<?xml version="1.0" encoding="iso-8859-1"?>
<!-- Generator: Adobe Illustrator 19.0.0, SVG Export Plug-In . SVG Version: 6.00 Build 0)  -->
<svg xmlns="http://www.w3.org/2000/svg" xmlns:xlink="http://www.w3.org/1999/xlink" version="1.1" id="Layer_1" x="0px" y="0px" viewBox="0 0 512 512" style="enable-background:new 0 0 512 512;" xml:space="preserve">
<g>
	<g>
		<path d="M293.463,140.867v-0.001V129.71l81.744-81.745l-26.49-26.49l-75.684,75.685h-34.067l-75.684-75.684l-26.49,26.49    l81.744,81.745v11.157H0v349.659h512V140.867H293.463z M149.854,403.11c-41.315,0-74.927-33.612-74.927-74.927    c0-41.315,33.612-74.927,74.927-74.927c41.315,0,74.927,33.612,74.927,74.927C224.781,369.498,191.168,403.11,149.854,403.11z     M368.39,390.622h-87.415v-37.463h87.415V390.622z M430.829,303.208H280.976v-37.463h149.854V303.208z"/>
	</g>
</g>
<g>
	<g>
		<path d="M149.854,290.72c-20.657,0-37.463,16.806-37.463,37.463c0,20.657,16.806,37.463,37.463,37.463    c20.657,0,37.463-16.806,37.463-37.463C187.317,307.526,170.511,290.72,149.854,290.72z"/>
	</g>
</g>
<g>
</g>
<g>
</g>
<g>
</g>
<g>
</g>
<g>
</g>
<g>
</g>
<g>
</g>
<g>
</g>
<g>
</g>
<g>
</g>
<g>
</g>
<g>
</g>
<g>
</g>
<g>
</g>
<g>
</g>
</svg>
