<?xml version="1.0" encoding="iso-8859-1"?>
<!-- Generator: Adobe Illustrator 19.0.0, SVG Export Plug-In . SVG Version: 6.00 Build 0)  -->
<svg xmlns="http://www.w3.org/2000/svg" xmlns:xlink="http://www.w3.org/1999/xlink" version="1.1" id="Layer_1" x="0px" y="0px" viewBox="0 0 512 512" style="enable-background:new 0 0 512 512;" xml:space="preserve">
<g>
	<g>
		<polygon points="291.505,11.604 255.405,0 219.306,11.604 177.874,3.129 177.874,130.306 332.937,130.306 332.937,3.129   "/>
	</g>
</g>
<g>
	<g>
		<polygon points="368.721,82.594 368.721,130.306 386.613,130.306 386.613,166.09 124.198,166.09 124.198,130.306 142.09,130.306     142.09,82.594 82.45,82.594 82.45,201.873 429.55,201.873 429.55,82.594   "/>
	</g>
</g>
<g>
	<g>
		<path d="M82.45,237.657V512h347.1V237.657H82.45z M201.73,458.324h-35.784V422.54h35.784V458.324z M201.73,386.757h-35.784    v-35.784h35.784V386.757z M201.73,315.189h-35.784v-35.784h35.784V315.189z M273.297,458.324h-35.784V422.54h35.784V458.324z     M273.297,386.757h-35.784v-35.784h35.784V386.757z M273.297,315.189h-35.784v-35.784h35.784V315.189z M344.865,458.324h-35.784    V350.973h35.784V458.324z M344.865,315.189h-35.784v-35.784h35.784V315.189z"/>
	</g>
</g>
<g>
</g>
<g>
</g>
<g>
</g>
<g>
</g>
<g>
</g>
<g>
</g>
<g>
</g>
<g>
</g>
<g>
</g>
<g>
</g>
<g>
</g>
<g>
</g>
<g>
</g>
<g>
</g>
<g>
</g>
</svg>
