<?xml version="1.0" encoding="iso-8859-1"?>
<!-- Generator: Adobe Illustrator 19.0.0, SVG Export Plug-In . SVG Version: 6.00 Build 0)  -->
<svg xmlns="http://www.w3.org/2000/svg" xmlns:xlink="http://www.w3.org/1999/xlink" version="1.1" id="Layer_1" x="0px" y="0px" viewBox="0 0 512 512" style="enable-background:new 0 0 512 512;" xml:space="preserve">
<g>
	<g>
		<path d="M256,0c-67.05,0-121.6,54.55-121.6,121.6c0,45.33,24.726,86.066,64,107.105V307.2h115.2v-78.495    c39.274-21.039,64-61.775,64-107.105C377.6,54.55,323.05,0,256,0z M256,140.8c-10.604,0-19.2-8.596-19.2-19.2    s8.596-19.2,19.2-19.2s19.2,8.596,19.2,19.2S266.604,140.8,256,140.8z"/>
	</g>
</g>
<g>
	<g>
		<polygon points="44.8,345.6 44.8,473.6 83.2,473.6 83.2,512 426.124,512 426.124,473.6 467.2,473.6 467.2,345.6   "/>
	</g>
</g>
<g>
</g>
<g>
</g>
<g>
</g>
<g>
</g>
<g>
</g>
<g>
</g>
<g>
</g>
<g>
</g>
<g>
</g>
<g>
</g>
<g>
</g>
<g>
</g>
<g>
</g>
<g>
</g>
<g>
</g>
</svg>
