<?xml version="1.0" encoding="iso-8859-1"?>
<!-- Generator: Adobe Illustrator 19.0.0, SVG Export Plug-In . SVG Version: 6.00 Build 0)  -->
<svg xmlns="http://www.w3.org/2000/svg" xmlns:xlink="http://www.w3.org/1999/xlink" version="1.1" id="Layer_1" x="0px" y="0px" viewBox="0 0 512 512" style="enable-background:new 0 0 512 512;" xml:space="preserve">
<g>
	<g>
		<path d="M511.202,253.011L312.284,116.908c-33.178-29.872-77.056-48.082-125.11-48.082C83.966,68.827,0,152.791,0,256    s83.966,187.173,187.173,187.173S374.347,359.209,374.347,256c0-20.727-3.393-40.678-9.642-59.329l104.346,71.395l-61.039,21.8    c-9.786,64.074-46.897,119.268-99.021,153.307h171.27L512,252.726L511.202,253.011z M187.173,358.643    C130.576,358.643,84.53,312.598,84.53,256s46.046-102.643,102.643-102.643S289.817,199.402,289.817,256    S243.771,358.643,187.173,358.643z"/>
	</g>
</g>
<g>
	<g>
		<path d="M187.173,189.584c-36.622,0-66.416,29.794-66.416,66.416s29.794,66.416,66.416,66.416S253.59,292.622,253.59,256    S223.795,189.584,187.173,189.584z M187.173,274.114c-10.003,0-18.114-8.11-18.114-18.114s8.11-18.114,18.114-18.114    s18.114,8.11,18.114,18.114S197.177,274.114,187.173,274.114z"/>
	</g>
</g>
<g>
</g>
<g>
</g>
<g>
</g>
<g>
</g>
<g>
</g>
<g>
</g>
<g>
</g>
<g>
</g>
<g>
</g>
<g>
</g>
<g>
</g>
<g>
</g>
<g>
</g>
<g>
</g>
<g>
</g>
</svg>
