<?xml version="1.0" encoding="iso-8859-1"?>
<!-- Generator: Adobe Illustrator 19.0.0, SVG Export Plug-In . SVG Version: 6.00 Build 0)  -->
<svg xmlns="http://www.w3.org/2000/svg" xmlns:xlink="http://www.w3.org/1999/xlink" version="1.1" id="Layer_1" x="0px" y="0px" viewBox="0 0 512 512" style="enable-background:new 0 0 512 512;" xml:space="preserve">
<g>
	<g>
		<path d="M437.019,74.981C388.668,26.629,324.381,0,256,0S123.332,26.629,74.981,74.981C26.629,123.332,0,187.619,0,256    s26.629,132.668,74.981,181.019C123.332,485.371,187.619,512,256,512s132.668-26.629,181.019-74.981    C485.371,388.668,512,324.381,512,256S485.371,123.332,437.019,74.981z M256,65.488c9.864,0,17.86,7.997,17.86,17.86    c0,9.864-7.997,17.86-17.86,17.86s-17.86-7.997-17.86-17.86C238.14,73.485,246.136,65.488,256,65.488z M83.349,273.86    c-9.864,0-17.86-7.997-17.86-17.86s7.997-17.86,17.86-17.86c9.864,0,17.86,7.997,17.86,17.86S93.213,273.86,83.349,273.86z     M256,446.512c-9.864,0-17.86-7.997-17.86-17.86c0-9.864,7.997-17.86,17.86-17.86s17.86,7.997,17.86,17.86    C273.86,438.515,265.864,446.512,256,446.512z M351.256,273.86h-87.858L155.513,381.745l-25.258-25.258L238.14,248.602V125.023    h35.721V238.14h77.395V273.86z M428.651,273.86c-9.864,0-17.86-7.997-17.86-17.86s7.997-17.86,17.86-17.86    c9.864,0,17.86,7.997,17.86,17.86S438.515,273.86,428.651,273.86z"/>
	</g>
</g>
<g>
</g>
<g>
</g>
<g>
</g>
<g>
</g>
<g>
</g>
<g>
</g>
<g>
</g>
<g>
</g>
<g>
</g>
<g>
</g>
<g>
</g>
<g>
</g>
<g>
</g>
<g>
</g>
<g>
</g>
</svg>
