<?xml version="1.0" encoding="iso-8859-1"?>
<!-- Generator: Adobe Illustrator 19.0.0, SVG Export Plug-In . SVG Version: 6.00 Build 0)  -->
<svg xmlns="http://www.w3.org/2000/svg" xmlns:xlink="http://www.w3.org/1999/xlink" version="1.1" id="Layer_1" x="0px" y="0px" viewBox="0 0 512 512" style="enable-background:new 0 0 512 512;" xml:space="preserve">
<g>
	<g>
		<path d="M256,238.933c-9.411,0-17.067,7.656-17.067,17.067c0,9.411,7.656,17.067,17.067,17.067    c9.411,0,17.067-7.656,17.067-17.067C273.067,246.589,265.411,238.933,256,238.933z"/>
	</g>
</g>
<g>
	<g>
		<path d="M256,79.644c-9.411,0-17.067,7.656-17.067,17.067c0,9.411,7.656,17.067,17.067,17.067c9.411,0,17.067-7.656,17.067-17.067    C273.067,87.301,265.411,79.644,256,79.644z"/>
	</g>
</g>
<g>
	<g>
		<path d="M406.544,0l-21.492,193.422H277.857l4.707,18.822C297.324,221.24,307.2,237.487,307.2,256c0,28.232-22.968,51.2-51.2,51.2    s-51.2-22.968-51.2-51.2c0-18.512,9.876-34.76,24.635-43.754l4.706-18.823H126.946L105.456,0H68.267v512h27.521l34.133-102.4    h252.158L416.212,512h27.522V0H406.544z"/>
	</g>
</g>
<g>
	<g>
		<polygon points="357.476,443.733 154.524,443.733 131.768,512 380.232,512   "/>
	</g>
</g>
<g>
	<g>
		<path d="M139.799,0l17.699,159.289h76.643l-4.706-18.823c-14.759-8.994-24.635-25.243-24.635-43.754    c0-28.232,22.968-51.2,51.2-51.2s51.2,22.968,51.2,51.2c0,18.513-9.876,34.76-24.635,43.755l-4.707,18.822h76.644L372.201,0    H139.799z"/>
	</g>
</g>
<g>
</g>
<g>
</g>
<g>
</g>
<g>
</g>
<g>
</g>
<g>
</g>
<g>
</g>
<g>
</g>
<g>
</g>
<g>
</g>
<g>
</g>
<g>
</g>
<g>
</g>
<g>
</g>
<g>
</g>
</svg>
