<?xml version="1.0" encoding="iso-8859-1"?>
<!-- Generator: Adobe Illustrator 19.0.0, SVG Export Plug-In . SVG Version: 6.00 Build 0)  -->
<svg xmlns="http://www.w3.org/2000/svg" xmlns:xlink="http://www.w3.org/1999/xlink" version="1.1" id="Layer_1" x="0px" y="0px" viewBox="0 0 512 512" style="enable-background:new 0 0 512 512;" xml:space="preserve">
<g>
	<g>
		<path d="M49.951,274.732V399.61h101.59c6.501-42.091,13.547-87.591,19.369-124.878H49.951z"/>
	</g>
</g>
<g>
	<g>
		<path d="M49.951,437.073V512h84.27c2.481-16.137,6.647-43.21,11.537-74.927H49.951z"/>
	</g>
</g>
<g>
	<g>
		<path d="M347.255,274.732c6.924,37.294,15.311,82.807,23.044,124.878h91.75V274.732H347.255z"/>
	</g>
</g>
<g>
	<g>
		<path d="M377.179,437.073c5.842,31.833,10.807,58.941,13.733,74.927h71.137v-74.927H377.179z"/>
	</g>
</g>
<g>
	<g>
		<path d="M387.122,68.683C387.122,30.811,356.311,0,318.439,0H193.561c-37.872,0-68.683,30.811-68.683,68.683    c0,37.441,30.116,67.982,67.397,68.67l-21.28,137.378h37.832c-5.723,36.629-12.786,82.214-19.377,124.878h142.759    c-7.86-42.754-16.27-88.37-23.057-124.878h38.008l-25.334-137.448C358.13,135.513,387.122,105.42,387.122,68.683z M318.439,99.902    H276.84l32.224,174.829h-100.16l27.082-174.829h-42.425c-17.214,0-31.219-14.005-31.219-31.22    c0-17.214,14.005-31.219,31.219-31.219h124.878c17.214,0,31.219,14.005,31.219,31.219    C349.659,85.897,335.653,99.902,318.439,99.902z"/>
	</g>
</g>
<g>
	<g>
		<path d="M339.09,437.073H183.667c-4.722,30.618-8.844,57.398-11.54,74.927h180.7C349.596,494.36,344.693,467.603,339.09,437.073z"/>
	</g>
</g>
<g>
</g>
<g>
</g>
<g>
</g>
<g>
</g>
<g>
</g>
<g>
</g>
<g>
</g>
<g>
</g>
<g>
</g>
<g>
</g>
<g>
</g>
<g>
</g>
<g>
</g>
<g>
</g>
<g>
</g>
</svg>
