<?xml version="1.0" encoding="iso-8859-1"?>
<!-- Generator: Adobe Illustrator 19.0.0, SVG Export Plug-In . SVG Version: 6.00 Build 0)  -->
<svg xmlns="http://www.w3.org/2000/svg" xmlns:xlink="http://www.w3.org/1999/xlink" version="1.1" id="Layer_1" x="0px" y="0px" viewBox="0 0 512 512" style="enable-background:new 0 0 512 512;" xml:space="preserve">
<g>
	<g>
		<polygon points="464.372,209.597 464.372,132.202 428.651,132.202 428.651,167.923 392.93,167.923 392.93,209.597     202.419,209.597 202.419,185.783 309.581,185.783 309.581,19.086 59.535,19.086 59.535,185.783 166.698,185.783 166.698,209.597     0,209.597 0,281.039 512,281.039 512,209.597   "/>
	</g>
</g>
<g>
	<g>
		<polygon points="0,316.76 0,388.202 31.795,388.202 12.255,485.908 47.28,492.914 68.223,388.202 154.791,388.202 154.791,316.76       "/>
	</g>
</g>
<g>
	<g>
		<polygon points="512,316.76 357.209,316.76 357.209,388.202 443.777,388.202 464.72,492.914 499.745,485.908 480.205,388.202     512,388.202   "/>
	</g>
</g>
<g>
</g>
<g>
</g>
<g>
</g>
<g>
</g>
<g>
</g>
<g>
</g>
<g>
</g>
<g>
</g>
<g>
</g>
<g>
</g>
<g>
</g>
<g>
</g>
<g>
</g>
<g>
</g>
<g>
</g>
</svg>
