<?xml version="1.0" encoding="iso-8859-1"?>
<!-- Generator: Adobe Illustrator 19.0.0, SVG Export Plug-In . SVG Version: 6.00 Build 0)  -->
<svg xmlns="http://www.w3.org/2000/svg" xmlns:xlink="http://www.w3.org/1999/xlink" version="1.1" id="Layer_1" x="0px" y="0px" viewBox="0 0 512 512" style="enable-background:new 0 0 512 512;" xml:space="preserve">
<g>
	<g>
		<path d="M410.791,116.093H119.07C53.415,116.093,0,169.508,0,235.163v17.86h71.442v37.518C30.73,298.839,0,334.921,0,378.047    v17.86h512V217.302C512,161.495,466.597,116.093,410.791,116.093z M142.884,288.744h-35.721v-35.721h35.721V288.744z     M345.302,288.744H178.605v-35.721h166.698V288.744z M428.651,288.744c-9.864,0-17.86-7.997-17.86-17.86    c0-9.864,7.997-17.86,17.86-17.86c9.864,0,17.86,7.997,17.86,17.86C446.512,280.747,438.515,288.744,428.651,288.744z"/>
	</g>
</g>
<g>
</g>
<g>
</g>
<g>
</g>
<g>
</g>
<g>
</g>
<g>
</g>
<g>
</g>
<g>
</g>
<g>
</g>
<g>
</g>
<g>
</g>
<g>
</g>
<g>
</g>
<g>
</g>
<g>
</g>
</svg>
