<?xml version="1.0" encoding="iso-8859-1"?>
<!-- Generator: Adobe Illustrator 19.0.0, SVG Export Plug-In . SVG Version: 6.00 Build 0)  -->
<svg xmlns="http://www.w3.org/2000/svg" xmlns:xlink="http://www.w3.org/1999/xlink" version="1.1" id="Layer_1" x="0px" y="0px" viewBox="0 0 512 512" style="enable-background:new 0 0 512 512;" xml:space="preserve">
<g>
	<g>
		<path d="M327.442,0C298.26,0,272.305,14.072,256,35.783C239.695,14.072,213.74,0,184.558,0c-49.241,0-89.302,40.061-89.302,89.302    c0,38.733,24.794,71.772,59.338,84.116l8.119,40.908h78.959l15.546-69.953c8.281,10.538,18.865,19.179,31.006,25.138    l-17.897,80.536H169.803l45.168,227.582C218.564,497.88,235.4,512,256,512c20.601,0,37.437-14.123,41.03-34.377l60.375-304.205    c34.545-12.344,59.338-45.382,59.338-84.116C416.744,40.061,376.683,0,327.442,0z M184.558,107.163    c-9.864,0-17.86-7.997-17.86-17.86c0-9.864,7.997-17.86,17.86-17.86c9.864,0,17.86,7.997,17.86,17.86    C202.419,99.166,194.422,107.163,184.558,107.163z M256,327.442c-9.864,0-17.86-7.997-17.86-17.86    c0-9.864,7.997-17.86,17.86-17.86c9.864,0,17.86,7.997,17.86,17.86C273.86,319.445,265.864,327.442,256,327.442z M327.442,107.163    c-9.864,0-17.86-7.997-17.86-17.86c0-9.864,7.997-17.86,17.86-17.86c9.864,0,17.86,7.997,17.86,17.86    C345.302,99.166,337.306,107.163,327.442,107.163z"/>
	</g>
</g>
<g>
</g>
<g>
</g>
<g>
</g>
<g>
</g>
<g>
</g>
<g>
</g>
<g>
</g>
<g>
</g>
<g>
</g>
<g>
</g>
<g>
</g>
<g>
</g>
<g>
</g>
<g>
</g>
<g>
</g>
</svg>
