<?xml version="1.0" encoding="iso-8859-1"?>
<!-- Generator: Adobe Illustrator 19.0.0, SVG Export Plug-In . SVG Version: 6.00 Build 0)  -->
<svg xmlns="http://www.w3.org/2000/svg" xmlns:xlink="http://www.w3.org/1999/xlink" version="1.1" id="Layer_1" x="0px" y="0px" viewBox="0 0 512 512" style="enable-background:new 0 0 512 512;" xml:space="preserve">
<g>
	<g>
		<rect x="149.854" y="380.878" width="212.293" height="74.927"/>
	</g>
</g>
<g>
	<g>
		<path d="M0,168.585v174.829h512V168.585H0z M330.927,280.976c-13.794,0-24.976-11.182-24.976-24.976s11.182-24.976,24.976-24.976    c13.794,0,24.976,11.182,24.976,24.976S344.721,280.976,330.927,280.976z M418.341,280.976c-13.794,0-24.976-11.182-24.976-24.976    s11.182-24.976,24.976-24.976c13.794,0,24.976,11.182,24.976,24.976S432.135,280.976,418.341,280.976z"/>
	</g>
</g>
<g>
	<g>
		<rect x="399.61" y="380.878" width="112.39" height="74.927"/>
	</g>
</g>
<g>
	<g>
		<rect y="380.878" width="112.39" height="74.927"/>
	</g>
</g>
<g>
	<g>
		<rect x="112.39" y="56.195" width="287.219" height="74.927"/>
	</g>
</g>
<g>
</g>
<g>
</g>
<g>
</g>
<g>
</g>
<g>
</g>
<g>
</g>
<g>
</g>
<g>
</g>
<g>
</g>
<g>
</g>
<g>
</g>
<g>
</g>
<g>
</g>
<g>
</g>
<g>
</g>
</svg>
