<?xml version="1.0" encoding="iso-8859-1"?>
<!-- Generator: Adobe Illustrator 19.0.0, SVG Export Plug-In . SVG Version: 6.00 Build 0)  -->
<svg version="1.1" id="Layer_1" xmlns="http://www.w3.org/2000/svg" xmlns:xlink="http://www.w3.org/1999/xlink" x="0px" y="0px"
	 viewBox="0 0 512 512" style="enable-background:new 0 0 512 512;" xml:space="preserve">
<g>
	<g>
		<g>
			<path d="M143.21,225.153h-30.974c-6.576,0-11.907,5.331-11.907,11.907v37.881c0,6.576,5.331,11.907,11.907,11.907h30.974
				c6.576,0,11.907-5.331,11.907-11.907V237.06C155.117,230.483,149.786,225.153,143.21,225.153z"/>
			<path d="M233.719,225.153h-30.974c-6.576,0-11.907,5.331-11.907,11.907v37.881c0,6.576,5.331,11.907,11.907,11.907h30.974
				c6.576,0,11.907-5.331,11.907-11.907V237.06C245.625,230.483,240.295,225.153,233.719,225.153z"/>
			<path d="M418.602,124.822H17.86c-9.864,0-17.86,7.997-17.86,17.86v226.635c0,9.864,7.997,17.86,17.86,17.86h400.741
				c9.864,0,17.86-7.997,17.86-17.86V142.682C436.462,132.819,428.467,124.822,418.602,124.822z M371.855,304.708
				c0,9.864-7.997,17.86-17.86,17.86H82.469c-9.864,0-17.86-7.997-17.86-17.86v-97.416c0-9.864,7.997-17.86,17.86-17.86h271.525
				c9.864,0,17.86,7.997,17.86,17.86V304.708z"/>
			<path d="M324.227,225.153h-30.974c-6.576,0-11.907,5.331-11.907,11.907v37.881c0,6.576,5.331,11.907,11.907,11.907h30.974
				c6.576,0,11.907-5.331,11.907-11.907V237.06C336.134,230.483,330.803,225.153,324.227,225.153z"/>
			<path d="M494.14,172.467h-21.956c-6.576,0-11.907,5.331-11.907,11.907v143.254c0,6.576,5.331,11.907,11.907,11.907h21.956
				c9.864,0,17.86-7.997,17.86-17.86V190.327C512,180.463,504.003,172.467,494.14,172.467z"/>
		</g>
	</g>
</g>
<g>
</g>
<g>
</g>
<g>
</g>
<g>
</g>
<g>
</g>
<g>
</g>
<g>
</g>
<g>
</g>
<g>
</g>
<g>
</g>
<g>
</g>
<g>
</g>
<g>
</g>
<g>
</g>
<g>
</g>
</svg>
