<?xml version="1.0" encoding="iso-8859-1"?>
<!-- Generator: Adobe Illustrator 19.0.0, SVG Export Plug-In . SVG Version: 6.00 Build 0)  -->
<svg version="1.1" id="Layer_1" xmlns="http://www.w3.org/2000/svg" xmlns:xlink="http://www.w3.org/1999/xlink" x="0px" y="0px"
	 viewBox="0 0 512 512" style="enable-background:new 0 0 512 512;" xml:space="preserve">
<g>
	<g>
		<g>
			<path d="M493.268,12.209H18.732C8.387,12.209,0,20.596,0,30.94v116.64c0,10.345,8.387,18.732,18.732,18.732h474.537
				c10.345,0,18.732-8.387,18.732-18.732V30.94C512,20.596,503.613,12.209,493.268,12.209z"/>
			<path d="M471.212,191.288H40.788c-6.897,0-12.488,5.591-12.488,12.488V481.06c0,10.345,8.387,18.732,18.732,18.732h417.937
				c10.345,0,18.732-8.387,18.732-18.732V203.775C483.7,196.878,478.109,191.288,471.212,191.288z M390.042,456.085H121.958
				c-10.345,0-18.732-8.387-18.732-18.732s8.387-18.732,18.732-18.732h268.083c10.345,0,18.732,8.387,18.732,18.732
				S400.387,456.085,390.042,456.085z M408.773,349.597c0,10.345-8.387,18.732-18.732,18.732H121.958
				c-10.345,0-18.732-8.387-18.732-18.732v-95.869c0-10.345,8.387-18.732,18.732-18.732h268.083
				c10.345,0,18.732,8.387,18.732,18.732V349.597z"/>
		</g>
	</g>
</g>
<g>
</g>
<g>
</g>
<g>
</g>
<g>
</g>
<g>
</g>
<g>
</g>
<g>
</g>
<g>
</g>
<g>
</g>
<g>
</g>
<g>
</g>
<g>
</g>
<g>
</g>
<g>
</g>
<g>
</g>
</svg>
