<?xml version="1.0" encoding="iso-8859-1"?>
<!-- Generator: Adobe Illustrator 19.0.0, SVG Export Plug-In . SVG Version: 6.00 Build 0)  -->
<svg version="1.1" id="Layer_1" xmlns="http://www.w3.org/2000/svg" xmlns:xlink="http://www.w3.org/1999/xlink" x="0px" y="0px"
	 viewBox="0 0 512 512" style="enable-background:new 0 0 512 512;" xml:space="preserve">
<g>
	<g>
		<g>
			<path d="M463.623,90.701h-37.892V77.603c0-9.864-7.997-17.86-17.86-17.86c-9.864,0-17.86,7.997-17.86,17.86v13.099H121.989
				V77.603c0-9.864-7.997-17.86-17.86-17.86c-9.864,0-17.86,7.997-17.86,17.86v13.099H48.377C21.702,90.701,0,112.402,0,139.078
				v65.089c0,9.864,7.997,17.86,17.86,17.86H494.14c9.864,0,17.86-7.997,17.86-17.86v-65.089
				C512,112.402,490.298,90.701,463.623,90.701z"/>
			<path d="M472.183,245.842H39.816c-6.576,0-11.907,5.331-11.907,11.907v176.648c0,9.864,7.997,17.86,17.86,17.86h420.46
				c9.864,0,17.86-7.997,17.86-17.86V257.749C484.09,251.173,478.759,245.842,472.183,245.842z M140.045,403.061h-30.012
				c-9.864,0-17.86-7.997-17.86-17.86c0-9.864,7.997-17.86,17.86-17.86h30.012c9.864,0,17.86,7.997,17.86,17.86
				C157.906,395.064,149.909,403.061,140.045,403.061z M140.045,330.76h-30.012c-9.864,0-17.86-7.997-17.86-17.86
				c0-9.864,7.997-17.86,17.86-17.86h30.012c9.864,0,17.86,7.997,17.86,17.86C157.906,322.764,149.909,330.76,140.045,330.76z
				 M227.352,403.061H197.34c-9.864,0-17.86-7.997-17.86-17.86c0-9.864,7.997-17.86,17.86-17.86h30.012
				c9.864,0,17.86,7.997,17.86,17.86C245.212,395.064,237.217,403.061,227.352,403.061z M227.352,330.76H197.34
				c-9.864,0-17.86-7.997-17.86-17.86c0-9.864,7.997-17.86,17.86-17.86h30.012c9.864,0,17.86,7.997,17.86,17.86
				C245.212,322.764,237.217,330.76,227.352,330.76z M314.66,403.061h-30.012c-9.864,0-17.86-7.997-17.86-17.86
				c0-9.864,7.997-17.86,17.86-17.86h30.012c9.864,0,17.86,7.997,17.86,17.86C332.52,395.064,324.523,403.061,314.66,403.061z
				 M314.66,330.76h-30.012c-9.864,0-17.86-7.997-17.86-17.86c0-9.864,7.997-17.86,17.86-17.86h30.012
				c9.864,0,17.86,7.997,17.86,17.86C332.52,322.764,324.523,330.76,314.66,330.76z M401.966,403.061h-30.012
				c-9.864,0-17.86-7.997-17.86-17.86c0-9.864,7.997-17.86,17.86-17.86h30.012c9.864,0,17.86,7.997,17.86,17.86
				C419.827,395.064,411.83,403.061,401.966,403.061z M401.966,330.76h-30.012c-9.864,0-17.86-7.997-17.86-17.86
				c0-9.864,7.997-17.86,17.86-17.86h30.012c9.864,0,17.86,7.997,17.86,17.86C419.827,322.764,411.83,330.76,401.966,330.76z"/>
		</g>
	</g>
</g>
<g>
</g>
<g>
</g>
<g>
</g>
<g>
</g>
<g>
</g>
<g>
</g>
<g>
</g>
<g>
</g>
<g>
</g>
<g>
</g>
<g>
</g>
<g>
</g>
<g>
</g>
<g>
</g>
<g>
</g>
</svg>
