<?xml version="1.0" encoding="iso-8859-1"?>
<!-- Generator: Adobe Illustrator 19.0.0, SVG Export Plug-In . SVG Version: 6.00 Build 0)  -->
<svg version="1.1" id="Layer_1" xmlns="http://www.w3.org/2000/svg" xmlns:xlink="http://www.w3.org/1999/xlink" x="0px" y="0px"
	 viewBox="0 0 511.999 511.999" style="enable-background:new 0 0 511.999 511.999;" xml:space="preserve">
<g>
	<g>
		<g>
			<path d="M297.749,399.215h-83.496c-10.145,0-16.057,11.454-10.18,19.722l36.406,51.226c8.042,11.316,23.562,10.526,30.79,0.356
				l36.659-51.582C313.805,410.669,307.893,399.215,297.749,399.215z"/>
			<path d="M437.716,33.599H74.284C33.324,33.599,0,66.923,0,107.884v192.071c0,40.96,33.324,74.284,74.284,74.284h363.431
				c40.961,0,74.284-33.324,74.284-74.284V107.884C512,66.923,478.676,33.599,437.716,33.599z M420.769,121.421
				c9.738,0,17.632,7.893,17.632,17.632c0,9.738-7.894,17.632-17.632,17.632c-9.737,0-17.632-7.894-17.632-17.632
				C403.138,129.315,411.032,121.421,420.769,121.421z M369.95,121.421c9.737,0,17.63,7.893,17.63,17.632
				c0,9.738-7.894,17.632-17.63,17.632c-9.738,0-17.632-7.894-17.632-17.632C352.318,129.315,360.213,121.421,369.95,121.421z
				 M87.995,120.32h86.588c10.345,0,18.732,8.387,18.732,18.732s-8.387,18.732-18.732,18.732H87.995
				c-10.345,0-18.732-8.387-18.732-18.732S77.65,120.32,87.995,120.32z M424.472,305.149H87.528
				c-10.345,0-18.732-8.387-18.732-18.732s8.387-18.732,18.732-18.732h336.943c10.345,0,18.732,8.387,18.732,18.732
				C443.203,296.764,434.817,305.149,424.472,305.149z M424.472,238.411H87.528c-10.345,0-18.732-8.387-18.732-18.732
				s8.387-18.732,18.732-18.732h336.943c10.345,0,18.732,8.387,18.732,18.732S434.817,238.411,424.472,238.411z"/>
		</g>
	</g>
</g>
<g>
</g>
<g>
</g>
<g>
</g>
<g>
</g>
<g>
</g>
<g>
</g>
<g>
</g>
<g>
</g>
<g>
</g>
<g>
</g>
<g>
</g>
<g>
</g>
<g>
</g>
<g>
</g>
<g>
</g>
</svg>
