<?xml version="1.0" encoding="iso-8859-1"?>
<!-- Generator: Adobe Illustrator 19.0.0, SVG Export Plug-In . SVG Version: 6.00 Build 0)  -->
<svg version="1.1" id="Layer_1" xmlns="http://www.w3.org/2000/svg" xmlns:xlink="http://www.w3.org/1999/xlink" x="0px" y="0px"
	 viewBox="0 0 512 512" style="enable-background:new 0 0 512 512;" xml:space="preserve">
<g>
	<g>
		<g>
			<path d="M256,130.402c-69.255,0-125.597,56.343-125.597,125.597S186.745,381.597,256,381.597S381.597,325.254,381.597,256
				S325.255,130.402,256,130.402z M199.876,271.978c-8.824,0-15.979-7.154-15.979-15.979c0-8.824,7.154-15.978,15.979-15.978
				c8.824,0,15.978,7.154,15.978,15.978C215.856,264.824,208.702,271.978,199.876,271.978z M256,271.978
				c-8.824,0-15.978-7.154-15.978-15.979c0-8.824,7.154-15.978,15.978-15.978s15.978,7.154,15.978,15.978
				C271.978,264.824,264.824,271.978,256,271.978z M312.122,271.978c-8.824,0-15.978-7.154-15.978-15.979
				c0-8.824,7.154-15.978,15.978-15.978c8.824,0,15.979,7.154,15.979,15.978C328.102,264.824,320.948,271.978,312.122,271.978z"/>
			<path d="M511.074,250.323C474.294,140.605,371.787,66.887,256,66.887S37.706,140.605,0.925,250.323
				c-1.234,3.684-1.234,7.669,0,11.353C37.706,371.395,140.213,445.112,256,445.112s218.294-73.717,255.075-183.436
				C512.308,257.993,512.308,254.007,511.074,250.323z M256,417.318c-88.951,0-161.318-72.367-161.318-161.318
				S167.049,94.681,256,94.681S417.318,167.049,417.318,256S344.951,417.318,256,417.318z"/>
		</g>
	</g>
</g>
<g>
</g>
<g>
</g>
<g>
</g>
<g>
</g>
<g>
</g>
<g>
</g>
<g>
</g>
<g>
</g>
<g>
</g>
<g>
</g>
<g>
</g>
<g>
</g>
<g>
</g>
<g>
</g>
<g>
</g>
</svg>
