<?xml version="1.0" encoding="iso-8859-1"?>
<!-- Generator: Adobe Illustrator 19.0.0, SVG Export Plug-In . SVG Version: 6.00 Build 0)  -->
<svg version="1.1" id="Layer_1" xmlns="http://www.w3.org/2000/svg" xmlns:xlink="http://www.w3.org/1999/xlink" x="0px" y="0px"
	 viewBox="0 0 512 512" style="enable-background:new 0 0 512 512;" xml:space="preserve">
<g>
	<g>
		<g>
			<path d="M499.512,372.114H12.488C5.591,372.114,0,377.705,0,384.602v50.436c0,10.345,8.387,18.732,18.732,18.732h474.537
				c10.345,0,18.732-8.387,18.732-18.732v-50.436C512,377.705,506.409,372.114,499.512,372.114z"/>
			<path d="M493.268,145.836H258.184V76.962c0-10.345-8.387-18.732-18.732-18.732H18.732C8.387,58.231,0,66.617,0,76.962v257.688
				c0,6.897,5.591,12.488,12.488,12.488h487.024c6.897,0,12.488-5.591,12.488-12.488V164.568
				C512,154.223,503.613,145.836,493.268,145.836z M162.253,145.696H95.93c-6.897,0-12.488-5.591-12.488-12.488
				c0-6.897,5.591-12.488,12.488-12.488h66.323c6.897,0,12.488,5.591,12.488,12.488C174.741,140.106,169.15,145.696,162.253,145.696
				z"/>
		</g>
	</g>
</g>
<g>
</g>
<g>
</g>
<g>
</g>
<g>
</g>
<g>
</g>
<g>
</g>
<g>
</g>
<g>
</g>
<g>
</g>
<g>
</g>
<g>
</g>
<g>
</g>
<g>
</g>
<g>
</g>
<g>
</g>
</svg>
