<?xml version="1.0" encoding="iso-8859-1"?>
<!-- Generator: Adobe Illustrator 19.0.0, SVG Export Plug-In . SVG Version: 6.00 Build 0)  -->
<svg version="1.1" id="Layer_1" xmlns="http://www.w3.org/2000/svg" xmlns:xlink="http://www.w3.org/1999/xlink" x="0px" y="0px"
	 viewBox="0 0 512 512" style="enable-background:new 0 0 512 512;" xml:space="preserve">
<g>
	<g>
		<g>
			<path d="M422.329,57.329h-84.268V18.732C338.062,8.387,329.675,0,319.33,0H192.669c-10.345,0-18.732,8.387-18.732,18.732v38.597
				H89.669c-10.345,0-18.732,8.387-18.732,18.732v71.62c0,10.345,8.387,18.732,18.732,18.732h332.661
				c10.345,0,18.732-8.387,18.732-18.732v-71.62C441.061,65.716,432.676,57.329,422.329,57.329z M300.598,57.329H211.4V37.463h0
				h89.198V57.329z"/>
			<path d="M404.336,191.388h-57.032c-6.897,0-12.488,5.591-12.488,12.488v167.727c0,6.651-5.019,12.459-11.655,12.889
				c-7.273,0.472-13.321-5.289-13.321-12.462V203.876c0-6.897-5.591-12.488-12.488-12.488H280.98
				c-6.897,0-12.488,5.591-12.488,12.488v167.727c0,6.651-5.019,12.459-11.657,12.889c-7.273,0.471-13.318-5.289-13.318-12.462
				V203.876c0-6.897-5.591-12.488-12.488-12.488h-16.381c-6.897,0-12.488,5.591-12.488,12.488v167.727
				c0,6.651-5.019,12.459-11.657,12.889c-7.273,0.471-13.318-5.289-13.318-12.462V203.876c0-6.897-5.591-12.488-12.488-12.488
				h-57.033c-6.897,0-12.488,5.591-12.488,12.488v203.05c0,6.897,5.591,12.488,12.488,12.488h296.673
				c6.897,0,12.488-5.591,12.488-12.488v-203.05C416.824,196.979,411.233,191.388,404.336,191.388z"/>
			<path d="M404.336,444.39H107.663c-6.897,0-12.488,5.591-12.488,12.488v36.391c0,10.345,8.387,18.732,18.732,18.732h284.185
				c10.345,0,18.732-8.387,18.732-18.732v-36.391C416.824,449.981,411.233,444.39,404.336,444.39z"/>
		</g>
	</g>
</g>
<g>
</g>
<g>
</g>
<g>
</g>
<g>
</g>
<g>
</g>
<g>
</g>
<g>
</g>
<g>
</g>
<g>
</g>
<g>
</g>
<g>
</g>
<g>
</g>
<g>
</g>
<g>
</g>
<g>
</g>
</svg>
