<?xml version="1.0" encoding="iso-8859-1"?>
<!-- Generator: Adobe Illustrator 19.0.0, SVG Export Plug-In . SVG Version: 6.00 Build 0)  -->
<svg version="1.1" id="Layer_1" xmlns="http://www.w3.org/2000/svg" xmlns:xlink="http://www.w3.org/1999/xlink" x="0px" y="0px"
	 viewBox="0 0 512 512" style="enable-background:new 0 0 512 512;" xml:space="preserve">
<g>
	<g>
		<path d="M507.537,290.537c-4.826-5.23-233.945-253.515-239.167-259.175c-6.656-7.213-18.081-7.217-24.742,0l-51.08,55.353V42.777
			c0-9.297-7.537-16.833-16.833-16.833h-50.756c-9.297,0-16.833,7.537-16.833,16.833v135.422L4.462,290.537
			c-6.305,6.832-5.877,17.482,0.955,23.787c6.834,6.305,17.483,5.877,23.787-0.955l55.609-60.26v216.115
			c0,9.297,7.537,16.833,16.833,16.833h86.667c9.297,0,16.833-7.537,16.833-16.833V350.681h101.709v118.542
			c0,9.297,7.537,16.833,16.833,16.833h86.667c9.297,0,16.833-7.537,16.833-16.833V253.108l55.609,60.26
			c6.307,6.834,16.957,7.257,23.787,0.955C513.414,308.019,513.842,297.369,507.537,290.537z M301.357,246.951h-90.716
			c-9.297,0-16.833-7.537-16.833-16.833s7.537-16.833,16.833-16.833h90.716c9.297,0,16.833,7.537,16.833,16.833
			S310.654,246.951,301.357,246.951z"/>
	</g>
</g>
<g>
</g>
<g>
</g>
<g>
</g>
<g>
</g>
<g>
</g>
<g>
</g>
<g>
</g>
<g>
</g>
<g>
</g>
<g>
</g>
<g>
</g>
<g>
</g>
<g>
</g>
<g>
</g>
<g>
</g>
</svg>
