<?xml version="1.0" encoding="iso-8859-1"?>
<!-- Generator: Adobe Illustrator 19.0.0, SVG Export Plug-In . SVG Version: 6.00 Build 0)  -->
<svg version="1.1" id="Layer_1" xmlns="http://www.w3.org/2000/svg" xmlns:xlink="http://www.w3.org/1999/xlink" x="0px" y="0px"
	 viewBox="0 0 512 512" style="enable-background:new 0 0 512 512;" xml:space="preserve">
<g>
	<g>
		<g>
			<path d="M432.578,0H79.422C69.078,0,60.691,8.387,60.691,18.732v66.32c0,10.345,8.387,18.732,18.732,18.732h353.155
				c10.345,0,18.732-8.387,18.732-18.732v-66.32C451.309,8.387,442.924,0,432.578,0z"/>
			<path d="M432.578,408.215h-26.331l-32.037-49.84H137.79l-32.039,49.84H79.422c-10.345,0-18.732,8.387-18.732,18.732v66.321
				c0,10.345,8.387,18.732,18.732,18.732h353.155c10.345,0,18.732-8.387,18.732-18.732v-66.322
				C451.309,416.602,442.924,408.215,432.578,408.215z"/>
			<path d="M390.194,128.76H121.806l77.451,120.487c2.637,4.102,2.637,9.403,0.001,13.506l-45.413,70.647h204.31l-45.413-70.647
				c-2.637-4.102-2.637-9.402,0-13.504L390.194,128.76z"/>
		</g>
	</g>
</g>
<g>
</g>
<g>
</g>
<g>
</g>
<g>
</g>
<g>
</g>
<g>
</g>
<g>
</g>
<g>
</g>
<g>
</g>
<g>
</g>
<g>
</g>
<g>
</g>
<g>
</g>
<g>
</g>
<g>
</g>
</svg>
