<?xml version="1.0" encoding="iso-8859-1"?>
<!-- Generator: Adobe Illustrator 19.0.0, SVG Export Plug-In . SVG Version: 6.00 Build 0)  -->
<svg version="1.1" id="Layer_1" xmlns="http://www.w3.org/2000/svg" xmlns:xlink="http://www.w3.org/1999/xlink" x="0px" y="0px"
	 viewBox="0 0 512 512" style="enable-background:new 0 0 512 512;" xml:space="preserve">
<g>
	<g>
		<path d="M494.14,93.527H17.86c-9.864,0-17.86,7.997-17.86,17.86v190.076c0,9.864,7.997,17.86,17.86,17.86h170.577l52.095,90.231
			c6.87,11.901,24.076,11.881,30.934,0l52.095-90.231H494.14c9.864,0,17.86-7.997,17.86-17.86V111.387
			C512,101.524,504.003,93.527,494.14,93.527z M123.703,230.373c-13.225,0-23.947-10.721-23.947-23.947
			c0-13.225,10.722-23.947,23.947-23.947c13.226,0,23.947,10.722,23.947,23.947C147.65,219.652,136.929,230.373,123.703,230.373z
			 M211.901,230.373c-13.225,0-23.947-10.721-23.947-23.947c0-13.225,10.722-23.947,23.947-23.947
			c13.226,0,23.947,10.722,23.947,23.947C235.849,219.652,225.126,230.373,211.901,230.373z M300.099,230.373
			c-13.225,0-23.947-10.721-23.947-23.947c0-13.225,10.722-23.947,23.947-23.947c13.226,0,23.947,10.722,23.947,23.947
			C324.046,219.652,313.325,230.373,300.099,230.373z M388.297,230.373c-13.226,0-23.947-10.721-23.947-23.947
			c0-13.225,10.721-23.947,23.947-23.947s23.947,10.722,23.947,23.947C412.245,219.652,401.522,230.373,388.297,230.373z"/>
	</g>
</g>
<g>
</g>
<g>
</g>
<g>
</g>
<g>
</g>
<g>
</g>
<g>
</g>
<g>
</g>
<g>
</g>
<g>
</g>
<g>
</g>
<g>
</g>
<g>
</g>
<g>
</g>
<g>
</g>
<g>
</g>
</svg>
