<?xml version="1.0" encoding="iso-8859-1"?>
<!-- Generator: Adobe Illustrator 19.0.0, SVG Export Plug-In . SVG Version: 6.00 Build 0)  -->
<svg version="1.1" id="Layer_1" xmlns="http://www.w3.org/2000/svg" xmlns:xlink="http://www.w3.org/1999/xlink" x="0px" y="0px"
	 viewBox="0 0 512 512" style="enable-background:new 0 0 512 512;" xml:space="preserve">
<g>
	<g>
		<g>
			<path d="M493.268,119.931H375.141V57.647c0-10.345-8.387-18.732-18.732-18.732H155.591c-10.345,0-18.732,8.387-18.732,18.732
				v62.284H18.732C8.387,119.931,0,128.318,0,138.663v315.69c0,10.345,8.387,18.732,18.732,18.732h474.537
				c10.345,0,18.732-8.387,18.732-18.732v-315.69C512,128.317,503.613,119.931,493.268,119.931z M105.387,425.247H60.326
				c-6.896,0-12.488-5.591-12.488-12.488s5.592-12.488,12.488-12.488h45.061c6.896,0,12.488,5.591,12.488,12.488
				S112.283,425.247,105.387,425.247z M256,387.643c-55.347,0-100.374-45.029-100.374-100.376
				c0-55.347,45.029-100.374,100.374-100.374s100.374,45.029,100.374,100.374C356.374,342.616,311.347,387.643,256,387.643z"/>
			<path d="M493.268,47.823h-72.107c-10.345,0-18.732,8.387-18.732,18.732v15.902c0,6.897,5.591,12.488,12.488,12.488h84.595
				c6.897,0,12.488-5.591,12.488-12.488V66.554C512,56.209,503.613,47.823,493.268,47.823z"/>
		</g>
	</g>
</g>
<g>
</g>
<g>
</g>
<g>
</g>
<g>
</g>
<g>
</g>
<g>
</g>
<g>
</g>
<g>
</g>
<g>
</g>
<g>
</g>
<g>
</g>
<g>
</g>
<g>
</g>
<g>
</g>
<g>
</g>
</svg>
