<?xml version="1.0" encoding="iso-8859-1"?>
<!-- Generator: Adobe Illustrator 19.0.0, SVG Export Plug-In . SVG Version: 6.00 Build 0)  -->
<svg version="1.1" id="Layer_1" xmlns="http://www.w3.org/2000/svg" xmlns:xlink="http://www.w3.org/1999/xlink" x="0px" y="0px"
	 viewBox="0 0 512 512" style="enable-background:new 0 0 512 512;" xml:space="preserve">
<g>
	<g>
		<g>
			<path d="M256,212.709c-22.786,0-42.036,15.43-47.848,36.39h95.695C298.036,228.14,278.786,212.709,256,212.709z"/>
			<path d="M67.639,370.738V141.261c0-3.515-1.397-6.886-3.882-9.371l-41.1-41.1c-8.347-8.347-22.619-2.444-22.624,9.361
				C0,171.074-0.016,340.952,0.021,411.866c0.007,11.803,14.277,17.702,22.624,9.355l41.112-41.112
				C66.242,377.623,67.639,374.253,67.639,370.738z"/>
			<path d="M511.967,100.151c-0.005-11.804-14.277-17.707-22.624-9.361l-41.1,41.1c-2.485,2.485-3.882,5.856-3.882,9.371v229.476
				c0,3.515,1.397,6.885,3.882,9.371l41.112,41.112c8.347,8.347,22.617,2.448,22.624-9.355
				C512.015,340.952,512,171.074,511.967,100.151z"/>
			<path d="M429.501,398.852c-2.485-2.485-5.856-3.882-9.371-3.882H91.871c-3.515,0-6.886,1.397-9.371,3.882l-41.112,41.113
				c-8.347,8.347-2.449,22.619,9.355,22.624c100.172,0.05,402.01-0.008,410.503-0.012c11.804-0.005,17.703-14.277,9.357-22.624
				L429.501,398.852z"/>
			<path d="M82.5,113.148c2.485,2.485,5.857,3.882,9.371,3.882H420.13c3.515,0,6.886-1.397,9.371-3.882l41.112-41.113
				c8.347-8.347,2.449-22.619-9.355-22.624c-100.172-0.05-402.01,0.008-410.503,0.012C38.951,49.428,33.052,63.7,41.398,72.047
				L82.5,113.148z"/>
			<path d="M107.398,143.536L107.398,143.536c-7.32,0-13.253,5.933-13.253,13.253v198.423c0,7.32,5.933,13.253,13.253,13.253
				h297.205c7.32,0,13.253-5.933,13.253-13.253V156.789c0-7.32-5.933-13.253-13.253-13.253H107.398z M338.25,325.796H173.749
				c-7.318,0-13.253-5.933-13.253-13.253s5.935-13.253,13.253-13.253H338.25c7.32,0,13.253,5.933,13.253,13.253
				C351.503,319.862,345.57,325.796,338.25,325.796z M377.639,275.605c-4.919,0-236.559,0-243.279,0
				c-7.32,0-13.253-5.933-13.253-13.253c0-7.32,5.933-13.253,13.253-13.253h46.668c6.292-35.69,37.504-62.896,74.972-62.896
				s68.678,27.206,74.972,62.896h46.667c7.32,0,13.253,5.933,13.253,13.253C390.892,269.672,384.959,275.605,377.639,275.605z"/>
		</g>
	</g>
</g>
<g>
</g>
<g>
</g>
<g>
</g>
<g>
</g>
<g>
</g>
<g>
</g>
<g>
</g>
<g>
</g>
<g>
</g>
<g>
</g>
<g>
</g>
<g>
</g>
<g>
</g>
<g>
</g>
<g>
</g>
</svg>
