<?xml version="1.0" encoding="iso-8859-1"?>
<!-- Generator: Adobe Illustrator 19.0.0, SVG Export Plug-In . SVG Version: 6.00 Build 0)  -->
<svg version="1.1" id="Layer_1" xmlns="http://www.w3.org/2000/svg" xmlns:xlink="http://www.w3.org/1999/xlink" x="0px" y="0px"
	 viewBox="0 0 511.999 511.999" style="enable-background:new 0 0 511.999 511.999;" xml:space="preserve">
<g>
	<g>
		<g>
			<path d="M482.196,374.265l-78.717-45.448c-15.889-9.175-35.828,2.308-35.829,20.686v90.894c0,18.347,19.913,29.876,35.829,20.686
				l78.717-45.447C498.086,406.464,498.113,383.455,482.196,374.265z"/>
			<path d="M29.803,137.733l78.717,45.448c15.89,9.176,35.829-2.308,35.829-20.686V71.601c0-18.347-19.913-29.876-35.829-20.686
				L29.803,96.361C13.914,105.534,13.886,128.544,29.803,137.733z"/>
			<path d="M360.942,99.188H180.07c-6.576,0-11.907,5.331-11.907,11.907v11.907c0,6.576,5.331,11.907,11.907,11.907h180.871
				c63.406,0,115.026,51.43,115.336,114.765c0.046,9.572,7.249,17.852,16.806,18.402c10.344,0.595,18.917-7.616,18.917-17.83
				C512,166.952,444.235,99.188,360.942,99.188z"/>
			<path d="M331.93,377.09H151.058c-63.406,0-115.026-51.43-115.336-114.765c-0.046-9.572-7.249-17.852-16.805-18.402
				C8.574,243.327,0,251.539,0,261.753c0,83.294,67.765,151.058,151.058,151.058h180.871c6.576,0,11.907-5.331,11.907-11.907
				v-11.907h0.001C343.837,382.42,338.506,377.09,331.93,377.09z"/>
		</g>
	</g>
</g>
<g>
</g>
<g>
</g>
<g>
</g>
<g>
</g>
<g>
</g>
<g>
</g>
<g>
</g>
<g>
</g>
<g>
</g>
<g>
</g>
<g>
</g>
<g>
</g>
<g>
</g>
<g>
</g>
<g>
</g>
</svg>
