<?xml version="1.0" encoding="iso-8859-1"?>
<!-- Generator: Adobe Illustrator 19.0.0, SVG Export Plug-In . SVG Version: 6.00 Build 0)  -->
<svg version="1.1" id="Layer_1" xmlns="http://www.w3.org/2000/svg" xmlns:xlink="http://www.w3.org/1999/xlink" x="0px" y="0px"
	 viewBox="0 0 511.999 511.999" style="enable-background:new 0 0 511.999 511.999;" xml:space="preserve">
<g>
	<g>
		<path d="M394.32,138.071L293.784,17.673c-19.694-23.584-55.92-23.545-75.581,0.001L117.677,138.073
			c-7.377,8.836-11.44,20.042-11.44,31.553v323.911c0,10.196,8.266,18.462,18.462,18.462h262.602
			c10.196,0,18.462-8.266,18.462-18.462V169.626C405.763,158.112,401.698,146.905,394.32,138.071z M256,131.058
			c19.211,0,34.841,15.63,34.841,34.843c0,19.213-15.63,34.841-34.841,34.841s-34.843-15.63-34.843-34.843
			C221.157,146.686,236.787,131.058,256,131.058z M189.476,345.519h42.579c10.196,0,18.462,8.266,18.462,18.462
			c0,10.196-8.266,18.462-18.462,18.462h-42.579c-10.196,0-18.462-8.266-18.462-18.462
			C171.015,353.785,179.281,345.519,189.476,345.519z M309.79,447.22H189.476c-10.196,0-18.462-8.266-18.462-18.462
			c0-10.196,8.266-18.462,18.462-18.462H309.79c10.196,0,18.462,8.266,18.462,18.462C328.252,438.954,319.986,447.22,309.79,447.22z
			"/>
	</g>
</g>
<g>
</g>
<g>
</g>
<g>
</g>
<g>
</g>
<g>
</g>
<g>
</g>
<g>
</g>
<g>
</g>
<g>
</g>
<g>
</g>
<g>
</g>
<g>
</g>
<g>
</g>
<g>
</g>
<g>
</g>
</svg>
