<?xml version="1.0" encoding="iso-8859-1"?>
<!-- Generator: Adobe Illustrator 19.0.0, SVG Export Plug-In . SVG Version: 6.00 Build 0)  -->
<svg version="1.1" id="Layer_1" xmlns="http://www.w3.org/2000/svg" xmlns:xlink="http://www.w3.org/1999/xlink" x="0px" y="0px"
	 viewBox="0 0 512 512" style="enable-background:new 0 0 512 512;" xml:space="preserve">
<g>
	<g>
		<path d="M373.444,242.979H187.816v-140.66c-0.001-37.598,30.587-68.186,68.185-68.186s68.186,30.588,68.186,68.186v63.857h-5.382
			c-9.425,0-17.067,7.641-17.067,17.067s7.641,17.067,17.067,17.067h44.897c9.425,0,17.067-7.641,17.067-17.067
			s-7.641-17.067-17.067-17.067h-5.382v-63.857C358.32,45.9,312.42,0,256.001,0S153.681,45.9,153.681,102.319v140.66h-15.124
			c-9.425,0-17.067,7.641-17.067,17.067v234.887c0,9.425,7.641,17.067,17.067,17.067h234.886c9.425,0,17.067-7.641,17.067-17.067
			V260.046C390.511,250.621,382.87,242.979,373.444,242.979z M273.067,402.812v32.993c0,9.425-7.641,17.067-17.067,17.067
			c-9.425,0-17.067-7.641-17.067-17.067v-32.993c-54.911-19.219-40.916-100.706,17.067-100.706
			C313.954,302.106,328.005,383.584,273.067,402.812z"/>
	</g>
</g>
<g>
</g>
<g>
</g>
<g>
</g>
<g>
</g>
<g>
</g>
<g>
</g>
<g>
</g>
<g>
</g>
<g>
</g>
<g>
</g>
<g>
</g>
<g>
</g>
<g>
</g>
<g>
</g>
<g>
</g>
</svg>
