<?xml version="1.0" encoding="iso-8859-1"?>
<!-- Generator: Adobe Illustrator 19.0.0, SVG Export Plug-In . SVG Version: 6.00 Build 0)  -->
<svg version="1.1" id="Layer_1" xmlns="http://www.w3.org/2000/svg" xmlns:xlink="http://www.w3.org/1999/xlink" x="0px" y="0px"
	 viewBox="0 0 511.997 511.997" style="enable-background:new 0 0 511.997 511.997;" xml:space="preserve">
<g>
	<g>
		<g>
			<path d="M215.985,111.366h80.038c16.161,0,26.306-17.538,18.215-31.549l-40.019-69.315c-8.078-13.99-28.339-14.015-36.431,0
				l-40.018,69.315C189.692,93.807,199.802,111.366,215.985,111.366z"/>
			<path d="M382.538,129.017h-49.538c-11.616,0-21.034,9.416-21.034,21.034v49.537c0,11.616,9.418,21.034,21.034,21.034h7.364
				v22.604l-66.704,28.396V146.678c0-6.501-5.27-11.77-11.77-11.77h-11.77c-6.501,0-11.77,5.27-11.77,11.77
				c0,8.013,0,172.936,0,180.819l-66.714-28.401v-26.049c16.647-6.866,28.397-23.262,28.397-42.357
				c0-25.256-20.546-45.802-45.802-45.802s-45.802,20.547-45.802,45.802c0,18.905,11.514,35.168,27.896,42.154v37.925
				c0,7.079,4.227,13.472,10.739,16.244l91.284,38.86v14.742c-28.337,7.766-49.227,33.732-49.227,64.5
				c0,36.879,30.004,66.882,66.883,66.882c36.879,0,66.882-30.003,66.882-66.882c0-30.768-20.89-56.734-49.226-64.5v-70.617
				l91.275-38.857c6.513-2.772,10.741-9.167,10.741-16.244v-34.277h6.863c11.616,0,21.034-9.416,21.034-21.034V150.05
				C403.571,138.435,394.154,129.017,382.538,129.017z"/>
		</g>
	</g>
</g>
<g>
</g>
<g>
</g>
<g>
</g>
<g>
</g>
<g>
</g>
<g>
</g>
<g>
</g>
<g>
</g>
<g>
</g>
<g>
</g>
<g>
</g>
<g>
</g>
<g>
</g>
<g>
</g>
<g>
</g>
</svg>
