<?xml version="1.0" encoding="iso-8859-1"?>
<!-- Generator: Adobe Illustrator 18.0.0, SVG Export Plug-In . SVG Version: 6.00 Build 0)  -->
<!DOCTYPE svg PUBLIC "-//W3C//DTD SVG 1.1//EN" "http://www.w3.org/Graphics/SVG/1.1/DTD/svg11.dtd">
<svg version="1.1" id="Capa_1" xmlns="http://www.w3.org/2000/svg" xmlns:xlink="http://www.w3.org/1999/xlink" x="0px" y="0px"
	 viewBox="0 0 297 297" style="enable-background:new 0 0 297 297;" xml:space="preserve">
<g>
	<path d="M20.579,181.096c1.673,1.155,3.635,1.75,5.613,1.75c1.183,0,2.371-0.213,3.509-0.646l244.617-92.905
		c3.978-1.511,6.543-5.398,6.365-9.651c-0.178-4.253-3.059-7.915-7.149-9.089L28.917,0.382C28.021,0.125,27.104,0,26.192,0
		c-2.123,0-4.215,0.684-5.948,1.99c-2.479,1.867-3.937,4.789-3.937,7.894v163.078C16.308,176.211,17.904,179.251,20.579,181.096z"/>
	<path d="M34.609,195.138c-2.699,1.025-5.531,1.544-8.417,1.544c-3.447,0-6.799-0.75-9.885-2.169v92.604
		c0,5.457,4.426,9.884,9.884,9.884h32.615c5.458,0,9.884-4.427,9.884-9.884V182.194L34.609,195.138z"/>
</g>
<g>
</g>
<g>
</g>
<g>
</g>
<g>
</g>
<g>
</g>
<g>
</g>
<g>
</g>
<g>
</g>
<g>
</g>
<g>
</g>
<g>
</g>
<g>
</g>
<g>
</g>
<g>
</g>
<g>
</g>
</svg>
