<?xml version="1.0" encoding="iso-8859-1"?>
<!-- Generator: Adobe Illustrator 18.0.0, SVG Export Plug-In . SVG Version: 6.00 Build 0)  -->
<!DOCTYPE svg PUBLIC "-//W3C//DTD SVG 1.1//EN" "http://www.w3.org/Graphics/SVG/1.1/DTD/svg11.dtd">
<svg version="1.1" id="Capa_1" xmlns="http://www.w3.org/2000/svg" xmlns:xlink="http://www.w3.org/1999/xlink" x="0px" y="0px"
	 viewBox="0 0 297 297" style="enable-background:new 0 0 297 297;" xml:space="preserve">
<g>
	<path d="M30.157,165.433c16.077,6.929,33.177,10.296,52.275,10.297c0.003,0,0.003,0,0.006,0c23.071,0,45.984-4.937,68.141-9.71
		c22.116-4.765,43.006-9.266,63.968-9.266c16.348,0,30.884,2.839,44.438,8.679c1.255,0.542,2.579,0.811,3.887,0.811
		c0.071,0,0.142-0.002,0.214-0.004c5.396-0.086,9.744-4.487,9.744-9.904c0-1.942-0.559-3.755-1.524-5.284
		c-13.95-25.444-28.795-49.277-45.251-72.634c15.974-21.928,30.315-38.945,43.731-51.897c2.384-2.302,3.459-5.645,2.864-8.904
		c-0.595-3.262-2.781-6.008-5.826-7.319C250.745,3.368,233.645,0,214.547,0c-23.074,0-45.988,4.937-68.148,9.711
		c-22.115,4.764-43.004,9.264-63.967,9.266c-0.003,0-0.004,0-0.008,0c-16.342,0-30.874-2.84-44.428-8.68
		c-1.257-0.542-2.591-0.809-3.92-0.809c-1.908,0-3.804,0.55-5.445,1.631c-2.784,1.832-4.461,4.941-4.461,8.275v136.942
		C24.171,160.291,26.524,163.867,30.157,165.433z"/>
	<path d="M24.171,177.933v109.161c0,5.471,4.436,9.906,9.906,9.906h32.689c5.471,0,9.905-4.435,9.905-9.906v-97.603
		C57.937,188.863,40.368,184.912,24.171,177.933z"/>
</g>
<g>
</g>
<g>
</g>
<g>
</g>
<g>
</g>
<g>
</g>
<g>
</g>
<g>
</g>
<g>
</g>
<g>
</g>
<g>
</g>
<g>
</g>
<g>
</g>
<g>
</g>
<g>
</g>
<g>
</g>
</svg>
