<?xml version="1.0" encoding="iso-8859-1"?>
<!-- Generator: Adobe Illustrator 18.0.0, SVG Export Plug-In . SVG Version: 6.00 Build 0)  -->
<!DOCTYPE svg PUBLIC "-//W3C//DTD SVG 1.1//EN" "http://www.w3.org/Graphics/SVG/1.1/DTD/svg11.dtd">
<svg version="1.1" id="Capa_1" xmlns="http://www.w3.org/2000/svg" xmlns:xlink="http://www.w3.org/1999/xlink" x="0px" y="0px"
	 viewBox="0 0 297 297" style="enable-background:new 0 0 297 297;" xml:space="preserve">
<g>
	<g>
		<path d="M148.498,157.854c27.855,0,50.518-22.74,50.518-50.691s-22.662-50.69-50.518-50.69c-27.853,0-50.514,22.739-50.514,50.69
			S120.645,157.854,148.498,157.854z M141.523,90.715c0-3.854,3.123-6.979,6.977-6.979c3.855,0,6.979,3.124,6.979,6.979v32.896
			c0,3.854-3.123,6.979-6.979,6.979c-3.854,0-6.977-3.124-6.977-6.979V90.715z"/>
	</g>
	<g>
		<path d="M94.904,199.977c4.115,2.381,8.596,2.702,12.438,2.702c1.69,0,3.377-0.074,5.008-0.146
			c1.535-0.068,3.125-0.139,4.645-0.139c2.443,0,4.295,0.191,5.826,0.6c2.774,0.74,5.746,2.65,8.895,4.67
			c4.863,3.124,10.373,6.661,16.785,6.661c6.414,0,11.924-3.537,16.783-6.658c3.15-2.023,6.125-3.932,8.895-4.673
			c1.529-0.408,3.381-0.6,5.826-0.6c1.475,0,2.979,0.066,4.57,0.136c1.621,0.073,3.371,0.15,5.086,0.15
			c3.615,0,8.295-0.307,12.434-2.702c5.424-3.137,8.398-8.895,11.025-13.975c1.678-3.246,3.41-6.598,5.518-8.704
			c2.107-2.106,5.459-3.841,8.701-5.517c5.084-2.629,10.844-5.605,13.979-11.025c3.09-5.34,2.807-11.771,2.555-17.443
			c-0.162-3.702-0.33-7.514,0.461-10.475c0.742-2.77,2.648-5.742,4.67-8.891c3.125-4.863,6.66-10.372,6.66-16.787
			c0-6.412-3.535-11.92-6.656-16.779c-2.023-3.15-3.934-6.126-4.674-8.902c-0.791-2.954-0.623-6.766-0.461-10.452
			c0.252-5.69,0.535-12.121-2.555-17.46c-3.135-5.419-8.895-8.398-13.975-11.024c-3.24-1.675-6.594-3.407-8.705-5.52
			c-2.105-2.106-3.84-5.458-5.516-8.699c-2.629-5.085-5.605-10.843-11.025-13.979c-4.115-2.381-8.596-2.703-12.436-2.703
			c-1.691,0-3.377,0.075-5.008,0.148c-1.537,0.068-3.125,0.139-4.646,0.139c-2.443,0-4.295-0.191-5.826-0.601
			c-2.771-0.739-5.744-2.649-8.893-4.67C160.424,3.537,154.914,0,148.5,0c-6.412,0-11.922,3.537-16.781,6.658
			c-3.152,2.023-6.125,3.932-8.896,4.672c-1.527,0.409-3.379,0.601-5.824,0.601c-1.479,0-2.984-0.066-4.578-0.136
			c-1.721-0.076-3.408-0.15-5.08-0.15c-3.84,0-8.318,0.32-12.434,2.701c-5.422,3.136-8.396,8.894-11.024,13.976
			c-1.678,3.245-3.412,6.597-5.52,8.704c-2.105,2.106-5.457,3.84-8.699,5.517c-5.084,2.627-10.844,5.604-13.979,11.024
			c-3.092,5.344-2.807,11.772-2.555,17.445c0.162,3.702,0.33,7.514-0.461,10.473c-0.74,2.774-2.652,5.749-4.674,8.896
			c-3.121,4.861-6.658,10.37-6.658,16.781c0,6.412,3.535,11.92,6.656,16.779c2.023,3.15,3.934,6.125,4.674,8.9
			c0.793,2.959,0.625,6.771,0.463,10.456c-0.252,5.69-0.537,12.119,2.553,17.458c3.137,5.423,8.896,8.398,13.975,11.024
			c3.246,1.679,6.598,3.411,8.705,5.518c2.106,2.107,3.84,5.459,5.516,8.7C86.51,191.084,89.486,196.842,94.904,199.977z
			 M148.498,42.516c35.551,0,64.475,29,64.475,64.646s-28.924,64.647-64.475,64.647c-35.549,0-64.469-29.001-64.469-64.647
			S112.949,42.516,148.498,42.516z"/>
	</g>
	<g>
		<path d="M207.584,209.47c-6.395,3.702-12.938,4.177-17.924,4.177c-1.961,0-3.84-0.084-5.498-0.159
			c-1.535-0.066-2.924-0.127-4.158-0.127c-1.934,0-2.738,0.158-2.992,0.228c-1.119,0.299-3.938,2.107-5.801,3.305
			c-5.521,3.545-13.08,8.397-22.711,8.397c-9.631,0-17.189-4.852-22.707-8.396c-1.867-1.198-4.684-3.007-5.803-3.306
			c-0.256-0.068-1.063-0.228-2.996-0.228c-1.277,0-2.744,0.065-4.16,0.127c-1.67,0.074-3.559,0.158-5.492,0.158
			c-4.986,0-11.531-0.476-17.928-4.177c-0.078-0.045-0.15-0.094-0.227-0.14v77.702c0,3.649,1.994,7.008,5.199,8.754
			c3.205,1.746,7.107,1.601,10.174-0.377L148.5,267.06l43.941,28.349c1.641,1.059,3.52,1.592,5.404,1.592
			c1.639,0,3.279-0.403,4.77-1.215c3.203-1.746,5.199-5.104,5.199-8.754v-77.703C207.736,209.374,207.664,209.424,207.584,209.47z"
			/>
	</g>
</g>
<g>
</g>
<g>
</g>
<g>
</g>
<g>
</g>
<g>
</g>
<g>
</g>
<g>
</g>
<g>
</g>
<g>
</g>
<g>
</g>
<g>
</g>
<g>
</g>
<g>
</g>
<g>
</g>
<g>
</g>
</svg>
