<?xml version="1.0" encoding="iso-8859-1"?>
<!-- Generator: Adobe Illustrator 18.0.0, SVG Export Plug-In . SVG Version: 6.00 Build 0)  -->
<!DOCTYPE svg PUBLIC "-//W3C//DTD SVG 1.1//EN" "http://www.w3.org/Graphics/SVG/1.1/DTD/svg11.dtd">
<svg version="1.1" id="Capa_1" xmlns="http://www.w3.org/2000/svg" xmlns:xlink="http://www.w3.org/1999/xlink" x="0px" y="0px"
	 viewBox="0 0 297 297" style="enable-background:new 0 0 297 297;" xml:space="preserve">
<g>
	<path d="M293.624,5.62C291.817,2.165,288.24,0,284.342,0h-83.984c-3.434,0-6.649,1.682-8.606,4.503L110.893,121H93.523
		c0.613-1.332,1.339-2.626,2.194-3.86l43.856-63.185L105.249,4.503C103.292,1.682,100.076,0,96.643,0H12.658
		C8.76,0,5.183,2.165,3.376,5.62c-1.808,3.454-1.547,7.627,0.677,10.83l73.107,105.328c-3.824,1.562-6.521,5.313-6.521,9.698
		c0,5.785,4.69,10.476,10.476,10.476H93.59c15.444-11.196,34.418-17.81,54.91-17.81s39.466,6.613,54.91,17.81h12.476
		c5.785,0,10.476-4.69,10.476-10.476c0-4.385-2.696-8.137-6.521-9.698L292.948,16.45C295.171,13.247,295.432,9.074,293.624,5.62z"/>
	<path d="M148.5,182.023c-19.785,0-35.881,16.097-35.881,35.881c0,19.785,16.096,35.882,35.881,35.882s35.881-16.097,35.881-35.882
		C184.381,198.12,168.285,182.023,148.5,182.023z"/>
	<path d="M148.5,138.81c-43.613,0-79.095,35.481-79.095,79.095S104.887,297,148.5,297s79.096-35.482,79.096-79.096
		S192.113,138.81,148.5,138.81z M148.5,268.452c-27.872,0-50.548-22.675-50.548-50.548c0-27.872,22.676-50.547,50.548-50.547
		s50.548,22.675,50.548,50.547C199.048,245.777,176.372,268.452,148.5,268.452z"/>
</g>
<g>
</g>
<g>
</g>
<g>
</g>
<g>
</g>
<g>
</g>
<g>
</g>
<g>
</g>
<g>
</g>
<g>
</g>
<g>
</g>
<g>
</g>
<g>
</g>
<g>
</g>
<g>
</g>
<g>
</g>
</svg>
