<?xml version="1.0" encoding="iso-8859-1"?>
<!-- Generator: Adobe Illustrator 19.0.0, SVG Export Plug-In . SVG Version: 6.00 Build 0)  -->
<svg xmlns="http://www.w3.org/2000/svg" xmlns:xlink="http://www.w3.org/1999/xlink" version="1.1" id="Capa_1" x="0px" y="0px" viewBox="0 0 512 512" style="enable-background:new 0 0 512 512;" xml:space="preserve">
<g>
	<g>
		<path d="M346,218.5c-24.814,0-45,20.186-45,45c0,24.814,20.186,45,45,45c24.814,0,45-20.186,45-45    C391,238.686,370.814,218.5,346,218.5z M346,278.5c-8.276,0-15-6.724-15-15s6.724-15,15-15s15,6.724,15,15    S354.276,278.5,346,278.5z"/>
	</g>
</g>
<g>
	<g>
		<path d="M166,218.5c-24.814,0-45,20.186-45,45c0,24.814,20.186,45,45,45c24.814,0,45-20.186,45-45    C211,238.686,190.814,218.5,166,218.5z M166,278.5c-8.276,0-15-6.724-15-15s6.724-15,15-15s15,6.724,15,15    S174.276,278.5,166,278.5z"/>
	</g>
</g>
<g>
	<g>
		<path d="M512,38.5c0-8.291-6.709-15-15-15c-8.291,0-15,6.709-15,15c0,16.538-14.462,30-31,30h-68.192    c-77.038-38.921-176.578-38.921-253.616,0H61.176c-16.538,0-31-13.462-31-30c0-8.291-6.709-15-15-15c-8.291,0-15,6.709-15,15v45    c0,28.802,11.689,54.91,30.538,73.901C10.937,189.965,0,226.234,0,263.5c0,124.072,115.39,225,256,225s256-100.928,256-225    c0-37.227-10.906-73.458-30.646-105.967C500.272,138.532,512,112.363,512,83.5V38.5z M30.513,90.648    c8.76,4.995,19.882,7.852,30.663,7.852H136c28.081,0,54.463,10.942,74.312,30.806c16.262,16.298,26.115,37.066,29.257,59.456    c-16.298-16.044-37.899-26.358-61.805-29.072c-1.8-0.764-3.779-1.19-5.859-1.19h-65.728    C67.226,158.5,34.116,128.661,30.513,90.648z M91,263.5c0-41.353,33.647-75,75-75c41.353,0,75,33.647,75,75    c0,41.353-33.647,75-75,75C124.647,338.5,91,304.853,91,263.5z M269.252,421.526c-2.601,4.906-7.7,7.974-13.252,7.974    s-10.651-3.068-13.252-7.974l-33.146-62.516c19.317-8.855,35.503-23.401,46.398-41.482c10.895,18.08,27.081,32.627,46.398,41.482    L269.252,421.526z M346,338.5c-41.353,0-75-33.647-75-75c0-41.353,33.647-75,75-75c41.353,0,75,33.647,75,75    C421,304.853,387.353,338.5,346,338.5z M406,158.5h-65.728c-2.045,0-3.99,0.423-5.766,1.163    c-23.926,2.651-45.542,12.931-61.88,28.94c3.173-22.337,13.032-43.052,29.253-59.297c19.849-19.863,46.23-30.806,74.297-30.806    H451c10.781,0,21.903-2.856,30.663-7.852C478.06,128.661,444.95,158.5,406,158.5z"/>
	</g>
</g>
<g>
</g>
<g>
</g>
<g>
</g>
<g>
</g>
<g>
</g>
<g>
</g>
<g>
</g>
<g>
</g>
<g>
</g>
<g>
</g>
<g>
</g>
<g>
</g>
<g>
</g>
<g>
</g>
<g>
</g>
</svg>
