<?xml version="1.0" encoding="iso-8859-1"?>
<!-- Generator: Adobe Illustrator 19.0.0, SVG Export Plug-In . SVG Version: 6.00 Build 0)  -->
<svg xmlns="http://www.w3.org/2000/svg" xmlns:xlink="http://www.w3.org/1999/xlink" version="1.1" id="Capa_1" x="0px" y="0px" viewBox="0 0 512 512" style="enable-background:new 0 0 512 512;" xml:space="preserve">
<g>
	<g>
		<g>
			<path d="M363.678,227.568c0.016-0.163,0.031-0.311,0.044-0.442C363.708,227.274,363.693,227.425,363.678,227.568z"/>
			<path d="M363.729,227.058c0.035-0.347,0.058-0.577,0.072-0.719C363.784,226.507,363.758,226.772,363.729,227.058z"/>
			<path d="M363.723,227.126c0.002-0.023,0.005-0.046,0.007-0.069C363.727,227.079,363.725,227.103,363.723,227.126z"/>
			<path d="M412.067,224.774l-18.055-0.211c-0.11-22.681-16.864-41.506-39.309-44.326c-2.259-0.486-304.256-0.288-305.557-0.015     c-24.214,2.93-41.631,24.7-39.025,49.053c3.547,35.344-0.31-1.203,21.315,215.143C35.217,482.944,67.323,512,106.128,512h191.547     c38.805,0,70.91-29.056,74.986-69.943c0.011-0.11,0.33-3.317,0.843-8.463l74.891-32.981     c32.648-14.381,53.743-47.781,53.743-84.768C502.138,266.178,461.735,224.774,412.067,224.774z M107.623,451.88     c-8.767,0.752-15.641-5.545-16.434-13.444L79.183,318.342c-0.821-8.254,5.19-17.615,13.444-18.435     c8.371-0.586,15.613,6.205,16.434,14.444l12.006,121.095C121.888,443.699,115.877,451.059,107.623,451.88z M363.678,227.568     c-0.173,1.736-0.533,5.338-1.22,12.218H41.345c-0.005-0.048-1.362-13.591-1.363-13.605c-0.857-8.007,4.09-15.259,14.807-16.419     c0,0,294.695,0.117,295.751,0.22c7.933,0.788,13.66,7.184,13.383,15.155C363.507,229.287,363.572,228.633,363.678,227.568z      M424.073,345.668l-43.739,19.437c2.575-25.836,5.374-55.95,7.792-80.284h23.942c16.828,0,30.023,15.723,30.023,33.227     C442.091,330.289,435.127,340.889,424.073,345.668z"/>
			<path d="M363.801,226.339c0.004-0.042,0.008-0.076,0.01-0.105C363.809,226.261,363.806,226.295,363.801,226.339z"/>
			<path d="M363.812,226.234C363.822,226.126,363.821,226.14,363.812,226.234L363.812,226.234z"/>
		</g>
	</g>
</g>
<g>
	<g>
		<path d="M246.937,134.703c0-11.576-4.512-22.037-11.713-30.024c7.202-7.986,11.713-18.448,11.713-30.024    c0-19.117-22.855-54.315-32.677-68.565c-5.6-8.121-19.117-8.121-24.716,0c-9.822,14.249-32.677,49.448-32.677,68.565    c0,11.576,4.512,22.037,11.713,30.024c-7.202,7.986-11.713,18.448-11.713,30.024v15.012h90.071L246.937,134.703L246.937,134.703z     M201.902,89.668c-8.283,0-15.012-6.729-15.012-14.997c0.132-4.574,6.377-17.636,15.012-32.208    c8.635,14.557,14.866,27.62,15.012,32.208C216.913,82.94,210.17,89.668,201.902,89.668z"/>
	</g>
</g>
<g>
	<g>
		<path d="M115.672,49.075L95.251,7.938c-5.072-10.233-21.814-10.233-26.886,0l-20.349,40.96    c-7.36,14.381-11.244,30.654-11.244,47.073c0,20.885,0,34.313,0,53.743c40.086,0,50.006,0,90.071,0c0-19.399,0-32.891,0-53.743    C126.842,79.553,122.957,63.28,115.672,49.075z M67.059,89.669c0.806-9.5,3.445-18.78,7.769-27.253l6.978-14.044l7.052,14.22    c4.266,8.327,6.89,17.577,7.696,27.077H67.059z"/>
	</g>
</g>
<g>
	<g>
		<path d="M355.861,49.075L335.44,7.938c-5.072-10.233-21.814-10.233-26.886,0l-20.349,40.96    c-7.36,14.381-11.244,30.654-11.244,47.073c0,20.885,0,34.313,0,53.743c40.036,0,50.006,0,90.071,0c0-19.399,0-32.891,0-53.743    C367.032,79.553,363.146,63.28,355.861,49.075z M307.248,89.668c1.42-16.73,7.216-26.138,14.748-41.298    c7.52,15.166,13.323,24.498,14.748,41.298H307.248z"/>
	</g>
</g>
<g>
</g>
<g>
</g>
<g>
</g>
<g>
</g>
<g>
</g>
<g>
</g>
<g>
</g>
<g>
</g>
<g>
</g>
<g>
</g>
<g>
</g>
<g>
</g>
<g>
</g>
<g>
</g>
<g>
</g>
</svg>
