<?xml version="1.0" encoding="iso-8859-1"?>
<!-- Generator: Adobe Illustrator 19.0.0, SVG Export Plug-In . SVG Version: 6.00 Build 0)  -->
<svg xmlns="http://www.w3.org/2000/svg" xmlns:xlink="http://www.w3.org/1999/xlink" version="1.1" id="Capa_1" x="0px" y="0px" viewBox="0 0 512 512" style="enable-background:new 0 0 512 512;" xml:space="preserve">
<g>
	<g>
		<path d="M449.539,30.677c-40.903-40.903-107.425-40.903-148.328,0L89.245,242.645c-17.788,17.788-17.276,46.201-0.146,63.331    l84.997,84.997c17.606,17.606,45.943,17.55,63.463,0l211.981-211.966C490.442,138.118,490.442,71.566,449.539,30.677z     M364.775,221.445c-18.082,18.082-46.549,17.046-63.595,0l-10.601-10.601l-0.004-0.004L186.099,315.183    c-4.63,4.875-14.482,6.028-20.788-0.278c-5.788-5.788-5.897-15.168,0.016-21.081L269.376,189.64l-0.004-0.004l-10.601-10.601    c-17.081-17.081-18.045-45.549,0-63.595c12.941-12.941,32.826-17.344,51.002-8.709c4.591,2.182,8.894,5.01,12.591,8.709    l10.539,10.539l0.009,0.009l21.185-21.225l21.355,21.355l-21.225,21.185l0.009,0.009l10.539,10.539    c3.699,3.699,6.524,7.997,8.705,12.588C382.233,188.845,377.501,208.719,364.775,221.445z M437.871,146.14    c-26.124-26.124-49.117-49.117-103.794-103.794c29.074-19.207,68.69-16.016,94.264,9.53    C453.916,77.451,457.094,117.08,437.871,146.14z"/>
	</g>
</g>
<g>
	<g>
		<path d="M343.578,179.05l-42.411-42.411c-5.855-5.855-15.343-5.855-21.198,0s-5.855,15.343,0,21.198l42.411,42.411    c5.856,5.856,15.342,5.856,21.198,0C349.434,194.393,349.434,184.905,343.578,179.05z"/>
	</g>
</g>
<g>
	<g>
		<path d="M68.09,327.364l-31.915,31.915c-2.811,2.811-4.392,6.617-4.392,10.599v127.13c0.001,13.367,16.215,19.974,25.591,10.599    l95.479-95.479L68.09,327.364z"/>
	</g>
</g>
<g>
</g>
<g>
</g>
<g>
</g>
<g>
</g>
<g>
</g>
<g>
</g>
<g>
</g>
<g>
</g>
<g>
</g>
<g>
</g>
<g>
</g>
<g>
</g>
<g>
</g>
<g>
</g>
<g>
</g>
</svg>
