<?xml version="1.0" encoding="iso-8859-1"?>
<!-- Generator: Adobe Illustrator 19.0.0, SVG Export Plug-In . SVG Version: 6.00 Build 0)  -->
<svg xmlns="http://www.w3.org/2000/svg" xmlns:xlink="http://www.w3.org/1999/xlink" version="1.1" id="Capa_1" x="0px" y="0px" viewBox="0 0 512 512" style="enable-background:new 0 0 512 512;" xml:space="preserve">
<g>
	<g>
		<path d="M255.97,229.506c-5.9,5.283-13.458,8.298-21.525,9.893l21.525,43.047l21.525-43.047    C269.429,237.804,261.871,234.788,255.97,229.506z"/>
	</g>
</g>
<g>
	<g>
		<path d="M255.024,0.002C165.538,0.419,95.935,65.754,79.935,142.784c-15.352,73.947,15.278,148.13,78.064,188.971    c14.385,9.36,23.07,25.039,23.07,40.259v34.981c0,19.531,12.578,36.025,30.001,42.238v17.764    C211.069,491.813,231.156,512,255.97,512c24.815,0,45.001-20.187,45.001-45.001v-17.764c17.422-6.213,30.001-22.708,30.001-42.238    v-36.022c0-14.663,8.306-29.756,22.208-38.706c51.843-33.385,82.796-89.944,82.796-151.279    C435.976,80.528,353.955-0.458,255.024,0.002z M150.967,195.99c-8.291,0-15-6.709-15-15c0-66.169,53.835-120.004,120.004-120.004    c8.291,0,15,6.709,15,15s-6.709,15-15,15c-49.631,0-90.003,40.372-90.003,90.003C165.968,189.281,159.258,195.99,150.967,195.99z     M330.834,197.378c-0.392,12.579-5.953,23.796-14.647,31.733l-45.113,90.428c0,25.349,0,34.009,0,36.605c0,0.756,0,0.998,0,0.988    c0,2.535,0,10.855,0,34.864h30.001v15c0,8.276-6.824,15-15.101,15c-28.784,0-31.218,0-60.002,0c-8.276,0-15-6.724-15-15v-15    h30.001c0-24.925,0-47.96,0-72.457l-45.215-90.428c-8.694-7.938-14.255-19.154-14.647-31.733    c-1.57-16.67,21.087-22.439,28.278-8.097l10.02,20.04c2.003,0.992,4.178,1.67,6.563,1.67c8.276,0,15-6.724,15-15    c0-8.291,6.709-15,15-15s15,6.709,15,15c0,8.276,6.724,15,15,15c2.384,0,4.559-0.677,6.563-1.67l10.02-20.04    C309.858,174.84,332.391,180.852,330.834,197.378z"/>
	</g>
</g>
<g>
</g>
<g>
</g>
<g>
</g>
<g>
</g>
<g>
</g>
<g>
</g>
<g>
</g>
<g>
</g>
<g>
</g>
<g>
</g>
<g>
</g>
<g>
</g>
<g>
</g>
<g>
</g>
<g>
</g>
</svg>
