<?xml version="1.0" encoding="iso-8859-1"?>
<!-- Generator: Adobe Illustrator 19.0.0, SVG Export Plug-In . SVG Version: 6.00 Build 0)  -->
<svg xmlns="http://www.w3.org/2000/svg" xmlns:xlink="http://www.w3.org/1999/xlink" version="1.1" id="Capa_1" x="0px" y="0px" viewBox="0 0 512 512" style="enable-background:new 0 0 512 512;" xml:space="preserve">
<g>
	<g>
		<path d="M482,424.763V300h-75c-8.291,0-15-6.709-15-15c0-8.291,6.709-15,15-15h75v-15c0-24.814-20.186-45-45-45h-73.434    l56.005,212H388.52l-70.406-265.994C336.365,139.072,347,115.078,347,90c0-49.629-41.371-90-91-90c-49.629,0-91,40.371-91,90    c0,25.078,10.635,49.072,28.887,66.006L123.481,422H92.43l56.005-212H75c-24.814,0-45,20.186-45,45v15h75c8.291,0,15,6.709,15,15    c0,8.291-6.709,15-15,15H30v124.763C12.578,430.976,0,447.47,0,467c0,24.814,20.186,45,45,45h60    c5.684,0,10.869-3.208,13.418-8.291L135,470.545l16.582,33.164C154.131,508.792,159.316,512,165,512h182    c5.684,0,10.869-3.208,13.418-8.291L377,470.545l16.582,33.164C396.131,508.792,401.316,512,407,512h60c24.814,0,45-20.186,45-45    C512,447.47,499.422,430.976,482,424.763z M326.432,422l-56.006-212h-28.847l-56.006,212H154.52l70.818-267.547    c1.597-5.977-0.645-12.334-5.64-15.981C204.229,127.178,195,109.058,195,90c0-33.091,27.909-60,61-60s61,26.909,61,60    c0,19.058-9.229,37.178-24.697,48.472c-4.995,3.647-7.236,10.005-5.64,15.981L357.481,422H326.432z"/>
	</g>
</g>
<g>
</g>
<g>
</g>
<g>
</g>
<g>
</g>
<g>
</g>
<g>
</g>
<g>
</g>
<g>
</g>
<g>
</g>
<g>
</g>
<g>
</g>
<g>
</g>
<g>
</g>
<g>
</g>
<g>
</g>
</svg>
