<?xml version="1.0" encoding="iso-8859-1"?>
<!-- Generator: Adobe Illustrator 19.0.0, SVG Export Plug-In . SVG Version: 6.00 Build 0)  -->
<svg xmlns="http://www.w3.org/2000/svg" xmlns:xlink="http://www.w3.org/1999/xlink" version="1.1" id="Capa_1" x="0px" y="0px" viewBox="0 0 512 512" style="enable-background:new 0 0 512 512;" xml:space="preserve">
<g>
	<g>
		<path d="M484.342,422.593c5.952-12.583,5.943-26.051-0.029-38.624l12.526-12.526c17.549-17.549,17.549-46.084,0-63.633    l-61.069-61.069c-5.859-5.859-15.352-5.859-21.211,0s-5.859,15.352,0,21.211l61.069,61.069c5.845,5.845,5.845,15.366,0,21.211    l-10.584,10.584l-82.711-82.711L276.215,384.213l93.3,93.3c12.982,12.982,33.038,17.308,51.189,8.708l12.502,12.502    c17.549,17.549,46.083,17.549,63.633,0c17.549-17.549,17.549-46.084,0-63.633L484.342,422.593z M475.627,477.513    c-5.684,5.654-15.527,5.654-21.211,0l-10.547-10.547l21.211-21.211l10.547,10.547C481.49,462.195,481.49,471.62,475.627,477.513z"/>
	</g>
</g>
<g>
	<g>
		<path d="M492.23,0.799l-127.052,42.08c-2.101,0.714-4.554,2.313-5.859,3.618c-58.978,59.027-301.947,302.194-337.222,337.5    c-29.524,29.585-29.342,76.417-0.059,105.762c29.705,30.042,77.072,29.241,105.88,0.073    c118.571-118.466,218.73-218.54,337.515-337.222c1.305-1.305,2.904-3.758,3.618-5.859L511.2,19.769    C515.15,7.952,503.785-3.105,492.23,0.799z M412.463,163.113l-21.218-21.218L138.662,394.478l21.11,21.11l-21.22,21.202    l-63.42-63.42l21.202-21.22l21.118,21.118l252.583-252.583l-21.218-21.218l21.211-21.211l63.647,63.647L412.463,163.113z     M448.325,114.131l-50.526-50.526L473.68,38.25L448.325,114.131z"/>
	</g>
</g>
<g>
	<g>
		<path d="M152.835,48.607c-0.61-0.616-5.211-3.408-5.875-3.633L19.753,0.785C7.921-3.105-3.069,8.134,0.784,19.755l42.305,129.091    c0.226,0.663,3.017,5.264,3.633,5.874l81.063,81.063l106.071-106.155L152.835,48.607z M38.709,40.594l75.884,25.234    l-50.651,50.651L38.709,40.594z M99.88,165.398l-21.226-21.211l63.647-63.647l21.211,21.226L99.88,165.398z"/>
	</g>
</g>
<g>
</g>
<g>
</g>
<g>
</g>
<g>
</g>
<g>
</g>
<g>
</g>
<g>
</g>
<g>
</g>
<g>
</g>
<g>
</g>
<g>
</g>
<g>
</g>
<g>
</g>
<g>
</g>
<g>
</g>
</svg>
