<?xml version="1.0" encoding="iso-8859-1"?>
<!-- Generator: Adobe Illustrator 19.0.0, SVG Export Plug-In . SVG Version: 6.00 Build 0)  -->
<svg xmlns="http://www.w3.org/2000/svg" xmlns:xlink="http://www.w3.org/1999/xlink" version="1.1" id="Capa_1" x="0px" y="0px" viewBox="0 0 512 512" style="enable-background:new 0 0 512 512;" xml:space="preserve">
<g>
	<g>
		<path d="M497,391H15c-8.291,0-15,6.709-15,15c0,24.814,20.186,45,45,45h422c24.814,0,45-20.186,45-45    C512,397.709,505.291,391,497,391z"/>
	</g>
</g>
<g>
	<g>
		<path d="M120,151v150h272V151H120z M347,271H165c-8.291,0-15-6.709-15-15c0-8.291,6.709-15,15-15h182c8.291,0,15,6.709,15,15    S355.291,271,347,271z M347,211H165c-8.291,0-15-6.709-15-15s6.709-15,15-15h182c8.291,0,15,6.709,15,15S355.291,211,347,211z"/>
	</g>
</g>
<g>
	<g>
		<path d="M437,61H75c-24.814,0-45,20.186-45,45v255h452V106C482,81.186,461.814,61,437,61z M422,316c0,8.291-6.709,15-15,15H105    c-8.291,0-15-6.709-15-15V136c0-8.291,6.709-15,15-15h302c8.291,0,15,6.709,15,15V316z"/>
	</g>
</g>
<g>
</g>
<g>
</g>
<g>
</g>
<g>
</g>
<g>
</g>
<g>
</g>
<g>
</g>
<g>
</g>
<g>
</g>
<g>
</g>
<g>
</g>
<g>
</g>
<g>
</g>
<g>
</g>
<g>
</g>
</svg>
