<?xml version="1.0" encoding="iso-8859-1"?>
<!-- Generator: Adobe Illustrator 19.0.0, SVG Export Plug-In . SVG Version: 6.00 Build 0)  -->
<svg xmlns="http://www.w3.org/2000/svg" xmlns:xlink="http://www.w3.org/1999/xlink" version="1.1" id="Capa_1" x="0px" y="0px" viewBox="0 0 512 512" style="enable-background:new 0 0 512 512;" xml:space="preserve">
<g>
	<g>
		<path d="M287,332c-8.276,0-15,6.724-15,15s6.724,15,15,15s15-6.724,15-15S295.276,332,287,332z"/>
	</g>
</g>
<g>
	<g>
		<path d="M511.493,246.596C501.593,226.751,492.425,210,467,210c-24.814,0-45,22.186-45,47c0,24.814,20.186,45,45,45    c24.67,0,44.804-20.026,44.984-44.659c0-0.115,0.016-0.225,0.016-0.341C512,253.505,511.632,250.069,511.493,246.596z"/>
	</g>
</g>
<g>
	<g>
		<path d="M297.635,477.634C290.193,462.063,273.241,452,256,452c-16.04,0-31.981,8.643-40.009,22.544    c-5.854,10.14-7.062,21.83-4.325,33.556c14.205,2.426,29.651,3.9,44.334,3.9c14.808,0,30.238-1.536,44.361-3.97    C302.824,497.564,302.181,487.15,297.635,477.634z"/>
	</g>
</g>
<g>
	<g>
		<path d="M392,257c0-41.353,33.647-77,75-77c12.98,0,25.367,3.505,36.262,9.565c-11.349-42.94-33.591-82.489-65.808-114.932    c-0.013-0.013-0.035-0.016-0.035-0.016c-0.029-0.029-0.037-0.055-0.053-0.071C388.953,26.47,323.896,0,256,0    C115.39,0,0,116.39,0,257c0,67.896,26.47,131.953,74.546,180.366c0.015,0.015,0.038,0.02,0.053,0.035s0.02,0.038,0.035,0.053    c30.117,29.908,66.297,51.427,105.681,63.441c-0.756-14.354,2.281-28.508,9.69-41.351C203.379,436.385,229.281,422,256,422    c28.74,0,56.313,16.758,68.705,42.7c5.46,11.431,7.641,23.708,6.996,36.086c83.721-25.704,148.958-93.506,171.522-178.541    C492.432,328.27,480.195,332,467,332C425.647,332,392,298.353,392,257z M201.987,201.973C187.808,216.138,180,236.976,180,257    c0,14.927,4.362,29.182,12.444,41.345l-21.222,21.222C157.676,301.506,150,279.903,150,257c0-57.891,48.109-107,106-107    c22.903,0,45.506,7.676,63.567,21.222l-21.328,21.328C269.429,174.117,226.681,177.253,201.987,201.973z M210,257    c0-12.012,4.688-25.291,13.213-33.802c13.284-13.308,36.091-15.859,52.735-8.357l-61.434,61.434    C211.659,270.312,210,263.81,210,257z M287,392c-24.814,0-47-20.186-47-45c0-24.814,22.186-45,47-45c24.814,0,45,20.186,45,45    C332,371.814,311.814,392,287,392z M340.778,150.011C316.921,130.909,286.912,120,256,120c-74.443,0-136,62.557-136,137    c0,30.912,10.909,59.921,30.011,83.778l-21.2,21.2C104.116,332.383,90,295.923,90,257c0-90.981,75.019-167,166-167    c38.923,0,76.383,14.116,105.978,38.811L340.778,150.011z M256,60C148.48,60,60,149.48,60,257    c0,46.987,16.703,91.37,47.082,126.707l-21.506,21.506C49.629,363.978,30,311.902,30,257C30,132.928,131.928,30,256,30    c54.902,0,107.978,19.629,149.213,55.576l-21.506,21.506C348.37,76.703,302.987,60,256,60z"/>
	</g>
</g>
<g>
</g>
<g>
</g>
<g>
</g>
<g>
</g>
<g>
</g>
<g>
</g>
<g>
</g>
<g>
</g>
<g>
</g>
<g>
</g>
<g>
</g>
<g>
</g>
<g>
</g>
<g>
</g>
<g>
</g>
</svg>
