<?xml version="1.0" encoding="iso-8859-1"?>
<!-- Generator: Adobe Illustrator 19.0.0, SVG Export Plug-In . SVG Version: 6.00 Build 0)  -->
<svg xmlns="http://www.w3.org/2000/svg" xmlns:xlink="http://www.w3.org/1999/xlink" version="1.1" id="Capa_1" x="0px" y="0px" viewBox="0 0 512 512" style="enable-background:new 0 0 512 512;" xml:space="preserve">
<g>
	<g>
		<path d="M466.992,29.999h-14.999V14.999C451.993,6.709,445.284,0,436.993,0H316.998C292.379,0,269.681,12.085,256,30.462    C242.318,12.085,219.621,0,195.002,0H75.007c-8.291,0-14.999,6.709-14.999,14.999v14.999H45.008    c-24.813,0-44.998,20.185-44.998,44.998v331.988c0,24.813,20.185,44.998,44.998,44.998h136.504    c6.973,34.188,38.265,59.998,74.488,59.998c36.224,0,67.516-25.81,74.488-59.998h31.508v44.998    c0,13.383,16.234,20.007,25.604,10.605l19.394-19.394l19.394,19.394c9.405,9.405,25.604,2.804,25.604-10.605v-44.998h14.999    c24.813,0,44.998-20.185,44.998-44.998V74.997C511.99,50.184,491.805,29.999,466.992,29.999z M301.998,74.997    c0-8.291,6.709-14.999,14.999-14.999h59.998c8.291,0,14.999,6.709,14.999,14.999v59.998c0,8.291-6.709,14.999-14.999,14.999    h-59.998c-8.291,0-14.999-6.709-14.999-14.999V74.997z M316.998,179.993h59.998c8.291,0,14.999,6.709,14.999,14.999    c0,8.291-6.709,14.999-14.999,14.999h-59.998c-8.291,0-14.999-6.709-14.999-14.999    C301.998,186.702,308.707,179.993,316.998,179.993z M316.998,239.991h59.998c8.291,0,14.999,6.709,14.999,14.999    s-6.709,14.999-14.999,14.999h-59.998c-8.291,0-14.999-6.709-14.999-14.999C301.998,246.7,308.707,239.991,316.998,239.991z     M165.003,59.998h29.999c8.291,0,14.999,6.709,14.999,14.999c0,8.291-6.709,14.999-14.999,14.999h-29.999    c-8.291,0-14.999-6.709-14.999-14.999C150.004,66.707,156.713,59.998,165.003,59.998z M135.004,119.996h59.998    c8.291,0,14.999,6.709,14.999,14.999s-6.709,14.999-14.999,14.999h-59.998c-8.291,0-14.999-6.709-14.999-14.999    S126.714,119.996,135.004,119.996z M135.004,179.993h59.998c8.291,0,14.999,6.709,14.999,14.999    c0,8.291-6.709,14.999-14.999,14.999h-59.998c-8.291,0-14.999-6.709-14.999-14.999    C120.005,186.702,126.714,179.993,135.004,179.993z M135.004,239.991h59.998c8.291,0,14.999,6.709,14.999,14.999    s-6.709,14.999-14.999,14.999h-59.998c-8.291,0-14.999-6.709-14.999-14.999C120.005,246.7,126.714,239.991,135.004,239.991z     M135.004,299.989h59.998c8.291,0,14.999,6.709,14.999,14.999c0,8.291-6.709,14.999-14.999,14.999h-59.998    c-8.291,0-14.999-6.709-14.999-14.999C120.005,306.698,126.714,299.989,135.004,299.989z M361.996,421.984h-44.998    c-8.291,0-14.999,6.709-14.999,14.999c0,24.813-21.185,44.998-45.998,44.998c-24.813,0-45.998-20.185-45.998-44.998    c0-8.291-6.709-14.999-14.999-14.999H45.008c-8.276,0-14.999-6.724-14.999-14.999V74.997c0-8.276,6.724-14.999,14.999-14.999    h14.999v316.988c0,8.291,6.709,14.999,14.999,14.999h119.996c24.813,0,45.998,20.185,45.998,44.998    c0,8.291,6.709,14.999,14.999,14.999c8.291,0,14.999-6.709,14.999-14.999c0-24.813,21.185-44.998,45.998-44.998h44.998V421.984z     M376.995,329.988h-59.998c-8.291,0-14.999-6.709-14.999-14.999c0-8.291,6.709-14.999,14.999-14.999h59.998    c8.291,0,14.999,6.709,14.999,14.999C391.995,323.279,385.286,329.988,376.995,329.988z M421.994,460.772    c-14.43-14.43-19.918-10.081-29.999,0v-68.786h29.999V460.772z M481.992,406.985c0,8.276-6.724,14.999-14.999,14.999h-14.999    c0-176.535,0-232.389,0-361.987h14.999c8.276,0,14.999,6.724,14.999,14.999V406.985z"/>
	</g>
</g>
<g>
</g>
<g>
</g>
<g>
</g>
<g>
</g>
<g>
</g>
<g>
</g>
<g>
</g>
<g>
</g>
<g>
</g>
<g>
</g>
<g>
</g>
<g>
</g>
<g>
</g>
<g>
</g>
<g>
</g>
</svg>
