<?xml version="1.0" encoding="iso-8859-1"?>
<!-- Generator: Adobe Illustrator 19.0.0, SVG Export Plug-In . SVG Version: 6.00 Build 0)  -->
<svg xmlns="http://www.w3.org/2000/svg" xmlns:xlink="http://www.w3.org/1999/xlink" version="1.1" id="Capa_1" x="0px" y="0px" viewBox="0 0 512.002 512.002" style="enable-background:new 0 0 512.002 512.002;" xml:space="preserve">
<g>
	<g>
		<path d="M454.104,359.614c-106.626,0-185.919,0-274.295,0c-25.209,0-45.716-20.507-45.716-45.716    c0-25.209,20.507-45.716,45.448-45.716l17.367,0.298c0.043,0.002,0.076-0.018,0.119-0.016c21.725,4.28,40.831-2.659,54.079-15.906    c0.141-0.13,0.235-0.292,0.374-0.424l10.683,10.529c13.333,13.701,33.714,18.002,52.035,9.072l12.714,12.714    c17.859,17.859,46.936,17.843,64.824,0.015v-0.015c17.799-17.783,17.799-46.743,0-64.526l-13.042-13.042    c7.977-16.926,5.381-37.607-8.596-51.574c-48.245-48.245-59.703-59.703-107.89-107.89c-13.949-13.985-34.612-16.58-51.566-8.589    L176.266,4.453c-5.923-5.923-15.552-5.938-21.504-0.045l-43.29,42.963c-6.101,6.038-5.904,15.764-0.045,21.593l34.365,34.354    c-2.969,6.075-4.691,12.701-4.691,19.636c0,12.248,4.881,23.766,13.542,32.189L165.355,166c-4.078,4.07-7.207,8.721-9.878,13.568    C90.692,191.278,42.66,247.253,42.66,313.9c0,75.627,61.52,137.147,137.147,137.147h15.239v30.477h-45.716    c-8.423,0-15.239,6.816-15.239,15.239c0,8.423,6.816,15.239,15.239,15.239c79.274,0,134.835,0,213.341,0    c8.423,0,15.239-6.816,15.239-15.239c0-8.423-6.816-15.239-15.239-15.239h-45.716v-32.019    c29.81-6.075,53.337-29.602,59.412-59.412h77.735c8.423,0,15.239-6.816,15.239-15.239    C469.341,366.431,462.527,359.614,454.104,359.614z M337.685,165.992l10.863,10.863c5.91,5.908,5.91,15.519,0.001,21.428    l-43.245,42.92c-0.002,0.002-0.002,0.002-0.004,0.004l-0.19,0.19c-5.685,5.863-15.179,6.086-21.34-0.224l-10.715-10.551    L337.685,165.992z M229.989,187.525c12.118,12.118,11.233,30.356,1.912,41.636c-9.729,11.775-31.406,14.952-44.978,1.43    c-11.8-11.82-12.199-30.83,0.417-43.498C196.981,176.72,217.799,175.334,229.989,187.525z M143.796,58.235l21.652-21.504    l21.488,21.504l-21.488,21.638L143.796,58.235z M286.479,481.522h-60.954c0-21.611,0-38.695,0-60.954    c0-17.48,14.809-31.398,32.102-30.148c15.406,0.862,28.853,14.905,28.853,30.148C286.479,442.828,286.479,459.911,286.479,481.522    z"/>
	</g>
</g>
<g>
</g>
<g>
</g>
<g>
</g>
<g>
</g>
<g>
</g>
<g>
</g>
<g>
</g>
<g>
</g>
<g>
</g>
<g>
</g>
<g>
</g>
<g>
</g>
<g>
</g>
<g>
</g>
<g>
</g>
</svg>
