<?xml version="1.0" encoding="iso-8859-1"?>
<!-- Generator: Adobe Illustrator 19.0.0, SVG Export Plug-In . SVG Version: 6.00 Build 0)  -->
<svg xmlns="http://www.w3.org/2000/svg" xmlns:xlink="http://www.w3.org/1999/xlink" version="1.1" id="Capa_1" x="0px" y="0px" viewBox="0 0 512 512" style="enable-background:new 0 0 512 512;" xml:space="preserve">
<g>
	<g>
		<path d="M492.657,1.497L365.236,42.777c-0.504,0.167-5.037,2.775-5.914,3.66C79.613,326.873,47.258,359.312,22.646,383.989    c-29.235,29.25-29.235,76.812,0,106.047c29.235,29.235,76.707,29.341,106.062-0.014    c305.768-306.571,248.391-249.107,336.778-337.524c1.68-1.68,2.741-3.686,3.457-5.791c0.013-0.035,0.046-0.059,0.057-0.093    l41.586-127.128C514.507,7.753,504.306-2.354,492.657,1.497z M412.449,163.069l-21.163-21.163L139.231,394.694l21.136,21.132    l-21.183,21.238l-63.638-63.648l21.172-21.227l21.313,21.31l252.054-252.792l-21.203-21.204l21.198-21.198l63.546,63.532    L412.449,163.069z M448.272,114.088L397.75,63.575l75.876-25.176L448.272,114.088z"/>
	</g>
</g>
<g>
	<g>
		<path d="M489.565,383.682c-60.032-59.905-94.067-94.866-105.904-106.679l-42.262,42.378l53.903,53.752l21.103-21.103    l21.222,21.176l-63.499,63.51l-21.227-21.181l21.203-21.203l-53.875-53.724l-42.326,42.443    c22.813,22.765,87.021,86.837,106.921,106.694c29.163,29.133,75.49,29.162,104.697,0.073    C519.374,460.329,518.923,412.649,489.565,383.682z"/>
	</g>
</g>
<g>
	<g>
		<path d="M192.648,171.083l42.262-42.368c-15.176-15.134-62.5-62.513-81.814-81.826c-1.717-1.717-3.777-2.774-5.934-3.484    c-0.009-0.004-0.015-0.011-0.015-0.011L20.025,0.804C8.407-3.122-2.886,7.991,1.052,19.777L43.62,146.892    c0.727,2.218,1.792,4.304,3.473,5.985c62.846,62.846,19.264,18.986,82.101,81.823l42.284-42.392l-50.167-50.032l-21.07,21.075    l-21.213-21.213l63.364-63.348l21.227,21.169l-21.112,21.117L192.648,171.083z M64.359,114.418L39.042,38.793l75.614,25.337    L64.359,114.418z"/>
	</g>
</g>
<g>
</g>
<g>
</g>
<g>
</g>
<g>
</g>
<g>
</g>
<g>
</g>
<g>
</g>
<g>
</g>
<g>
</g>
<g>
</g>
<g>
</g>
<g>
</g>
<g>
</g>
<g>
</g>
<g>
</g>
</svg>
