<?xml version="1.0" encoding="iso-8859-1"?>
<!-- Generator: Adobe Illustrator 19.0.0, SVG Export Plug-In . SVG Version: 6.00 Build 0)  -->
<svg xmlns="http://www.w3.org/2000/svg" xmlns:xlink="http://www.w3.org/1999/xlink" version="1.1" id="Capa_1" x="0px" y="0px" viewBox="0 0 512 512" style="enable-background:new 0 0 512 512;" xml:space="preserve">
<g>
	<g>
		<path d="M216.592,271c18.873,0,34.92-11.955,41.655-30H512v-45c0-19.565-12.563-36.048-30-42.246V106c0-8.291-6.709-15-15-15h-15    V46c0-8.291-6.709-15-15-15h-90c-8.291,0-15,6.709-15,15c0,59.002,0,46.284,0,105h-55.925l4.999-27.158    C292.375,76.396,259.424,31,208.198,31h-86.396c-49.491,0-84.144,46.752-72.949,92.446L53.928,151H45c-24.814,0-45,20.186-45,45    c0,151.072,0,177.901,0,270c0,8.291,6.709,15,15,15s15-6.709,15-15V241h41.554c6.334,17.715,22.656,30,41.854,30H150v30h-15    c-41.353,0-75,33.647-75,75c0,8.291,6.709,15,15,15h75v30h-20.142c-31.18,0-45.367,14.298-65.464,34.395    c-5.859,5.859-5.859,15.352,0,21.211c5.859,5.859,15.352,5.859,21.211,0c14.47-14.47,23.177-25.606,44.253-25.606H150v15    c0,8.291,6.709,15,15,15s15-6.709,15-15v-15h20.142c21.076,0,29.783,11.136,44.253,25.605c5.86,5.86,15.351,5.86,21.211,0    c5.859-5.859,5.859-15.352,0-21.211C245.509,435.298,231.325,421,200.142,421H180v-30h75c8.291,0,15-6.709,15-15    c0-41.353-33.647-75-75-75h-15v-30H216.592z M362,61h60v30h-60V61z M362,121c52.605,0,37.298,0,90,0v30h-90V121z M113.408,241    c-6.929,0-12.905-4.673-14.531-11.353C62.068,29.352,88.042,170.713,78.354,118.012C70.821,86.804,93.8,61,121.802,61h86.396    c29.161,0,50.495,27.295,43.696,55.898c-0.331,1.795,3.032-16.504-20.903,113.335c-1.479,5.904-7.265,10.767-14.399,10.767    H113.408z"/>
	</g>
</g>
<g>
	<g>
		<path d="M302,391v75c0,8.291,6.709,15,15,15h180c8.291,0,15-6.709,15-15v-75H302z M437,451h-60c-8.291,0-15-6.709-15-15    c0-8.291,6.709-15,15-15h60c8.291,0,15,6.709,15,15C452,444.291,445.291,451,437,451z"/>
	</g>
</g>
<g>
	<g>
		<path d="M302,271v90h210v-90C396.879,271,425.345,271,302,271z M437,331h-60c-8.291,0-15-6.709-15-15c0-8.291,6.709-15,15-15h60    c8.291,0,15,6.709,15,15C452,324.291,445.291,331,437,331z"/>
	</g>
</g>
<g>
</g>
<g>
</g>
<g>
</g>
<g>
</g>
<g>
</g>
<g>
</g>
<g>
</g>
<g>
</g>
<g>
</g>
<g>
</g>
<g>
</g>
<g>
</g>
<g>
</g>
<g>
</g>
<g>
</g>
</svg>
