<?xml version="1.0" encoding="iso-8859-1"?>
<!-- Generator: Adobe Illustrator 19.0.0, SVG Export Plug-In . SVG Version: 6.00 Build 0)  -->
<svg xmlns="http://www.w3.org/2000/svg" xmlns:xlink="http://www.w3.org/1999/xlink" version="1.1" id="Capa_1" x="0px" y="0px" viewBox="0 0 512 512" style="enable-background:new 0 0 512 512;" xml:space="preserve">
<g>
	<g>
		<path d="M391.001,242.293V197c0-57.676-36.769-109.99-90.1-128.735V45c0-24.814-20.085-45-44.9-45c-24.814,0-45,20.186-45,45    v23.725c-52.667,19.316-90,74.413-90,133.373v40.195c0,33.34-8.716,62.146-27.153,89.707h324.305    C399.717,304.439,391.001,275.633,391.001,242.293z M271.001,60.776c-8.475-0.947-20.594-1.017-30.1,0.088V45    c0-8.276,6.824-15,15.1-15s15,6.724,15,15V60.776z"/>
	</g>
</g>
<g>
	<g>
		<path d="M436.001,362h-360c-24.814,0-45,20.186-45,45c0,24.814,20.186,45,45,45h360c24.814,0,45-20.186,45-45    C481.001,382.186,460.816,362,436.001,362z"/>
	</g>
</g>
<g>
	<g>
		<path d="M48.081,74.282c-7.412-3.706-16.406-0.732-20.127,6.68C-4.777,146.129-6.953,222.169,17.217,286.546    c2.924,7.754,11.557,11.67,19.321,8.774c7.764-2.915,11.675-11.572,8.774-19.321c-21.264-56.606-19.484-123.94,9.448-181.59    C58.482,87.012,55.493,78.003,48.081,74.282z"/>
	</g>
</g>
<g>
	<g>
		<path d="M484.047,80.962c-3.705-7.398-12.685-10.357-20.126-6.68c-7.412,3.721-10.4,12.729-6.68,20.127    c28.918,57.622,30.724,124.952,9.448,181.59c-2.9,7.749,1.011,16.406,8.774,19.321c7.765,2.895,16.397-1.021,19.321-8.774    C518.938,222.211,516.797,146.167,484.047,80.962z"/>
	</g>
</g>
<g>
	<g>
		<path d="M84.453,138.413c-8.071-1.992-16.157,3.003-18.091,11.089c-6.328,26.354-7.067,56.1-2.168,82.757    c1.507,8.271,9.505,13.593,17.446,12.056c8.159-1.494,13.55-9.302,12.056-17.446c-3.999-21.899-3.68-47.405,1.846-70.364    C97.476,148.447,92.51,140.347,84.453,138.413z"/>
	</g>
</g>
<g>
	<g>
		<path d="M445.64,149.501c-1.934-8.07-10.064-13.007-18.091-11.088c-8.057,1.934-13.022,10.034-11.089,18.091    c5.525,22.96,5.845,48.466,1.846,70.364c-1.494,8.145,3.896,15.952,12.056,17.446c7.941,1.537,15.94-3.785,17.446-12.056    C452.707,205.601,451.968,175.855,445.64,149.501z"/>
	</g>
</g>
<g>
	<g>
		<path d="M196.438,482c16.028,20.758,37.079,30,59.563,30c24.404,0,45.912-11.896,59.617-30H196.438z"/>
	</g>
</g>
<g>
</g>
<g>
</g>
<g>
</g>
<g>
</g>
<g>
</g>
<g>
</g>
<g>
</g>
<g>
</g>
<g>
</g>
<g>
</g>
<g>
</g>
<g>
</g>
<g>
</g>
<g>
</g>
<g>
</g>
</svg>
