<?xml version="1.0" encoding="iso-8859-1"?>
<!-- Generator: Adobe Illustrator 19.0.0, SVG Export Plug-In . SVG Version: 6.00 Build 0)  -->
<svg xmlns="http://www.w3.org/2000/svg" xmlns:xlink="http://www.w3.org/1999/xlink" version="1.1" id="Capa_1" x="0px" y="0px" viewBox="0 0 512 512" style="enable-background:new 0 0 512 512;" xml:space="preserve">
<g>
	<g>
		<path d="M451,141.273V45c0-24.814-20.186-45-45-45H106C81.186,0,61,20.186,61,45v96.273c0,14.077,3.472,27.012,10.049,37.397    C83.91,199.032,91,226.483,91,256c0,29.517-7.09,56.968-19.966,77.329C64.472,343.715,61,356.649,61,370.727V467    c0,24.814,20.186,45,45,45h300c24.814,0,45-20.186,45-45v-96.273c0-14.077-3.472-27.012-10.049-37.397    C428.09,312.968,421,285.517,421,256c0-29.517,7.09-56.968,19.966-77.329C447.528,168.285,451,155.351,451,141.273z M211,405.617    c-18.104-13.705-30-35.213-30-59.617V30h30V405.617z M331,346c0,41.353-33.647,75-75,75c-5.136,0-10.151-0.529-15-1.518V285.617    C253.574,295.135,269.052,301,286,301c14.8,0,30.646-4.521,45-15.383V346z M241,226c0-12.55,5.187-23.888,13.5-32.056    l35.733,76.628C262.181,273.257,241,251.111,241,226z M317.5,258.056l-35.733-76.628C309.819,178.743,331,200.889,331,226    C331,238.55,325.813,249.888,317.5,258.056z M331,166.383C318.426,156.865,302.948,151,286,151c-14.776,0-30.611,4.495-45,15.383    V30h90V166.383z"/>
	</g>
</g>
<g>
</g>
<g>
</g>
<g>
</g>
<g>
</g>
<g>
</g>
<g>
</g>
<g>
</g>
<g>
</g>
<g>
</g>
<g>
</g>
<g>
</g>
<g>
</g>
<g>
</g>
<g>
</g>
<g>
</g>
</svg>
