<?xml version="1.0" encoding="iso-8859-1"?>
<!-- Generator: Adobe Illustrator 19.0.0, SVG Export Plug-In . SVG Version: 6.00 Build 0)  -->
<svg xmlns="http://www.w3.org/2000/svg" xmlns:xlink="http://www.w3.org/1999/xlink" version="1.1" id="Capa_1" x="0px" y="0px" viewBox="0 0 512 512" style="enable-background:new 0 0 512 512;" xml:space="preserve">
<g>
	<g>
		<path d="M256,241.977c-8.276,0-15,6.724-15,15s6.724,15,15,15s15-6.724,15-15S264.276,241.977,256,241.977z"/>
	</g>
</g>
<g>
	<g>
		<path d="M363,256.977c0-8.291,6.709-15,15-15h13.484c-2.915-25.908-12.984-54.106-28.477-73.473l-9.587,9.587    c-5.86,5.86-15.351,5.86-21.211,0c-5.859-5.859-5.859-15.352,0-21.211l9.587-9.587C322.429,131.8,296.907,121.731,271,118.816    v94.923c17.422,6.213,30,23.707,30,43.237c0,24.814-20.186,45-45,45c-6.927,0-13.412-1.703-19.279-4.51l-15.24,13.24    c-5.86,5.86-15.351,5.86-21.211,0c-5.859-5.859-5.859-15.352,0-21.211l13.24-13.24c-2.807-5.867-4.51-12.352-4.51-19.279    c0-19.53,14.478-37.024,31.9-43.237v-94.923c-25.908,2.915-51.329,12.984-70.696,28.477l9.587,9.587    c5.859,5.859,5.859,15.352,0,21.211c-5.86,5.86-15.351,5.86-21.211,0l-9.587-9.587c-15.493,19.367-25.562,47.565-28.477,73.473    H134c8.291,0,15,6.709,15,15c0,8.291-6.709,15-15,15h-13.484c2.915,25.908,12.984,49.429,28.477,68.796l9.587-9.587    c5.859-5.859,15.352-5.859,21.211,0s5.859,15.352,0,21.211l-9.587,9.587c19.367,15.493,44.789,25.562,70.696,28.477v-13.484    c0-8.291,6.809-15,15.1-15s15,6.709,15,15v13.484c25.908-2.915,51.429-12.984,70.796-28.477l-9.587-9.587    c-5.859-5.859-5.859-15.352,0-21.211s15.352-5.859,21.211,0l9.587,9.587c15.493-19.367,25.562-42.889,28.477-68.796H378    C369.709,271.977,363,265.268,363,256.977z"/>
	</g>
</g>
<g>
	<g>
		<path d="M255.956,27.378C130.795,27.378,29,134.45,29,256.977c0,124.867,103.623,225,227,225c124.523,0,227-101.259,227-225    C483,132.986,379.787,27.378,255.956,27.378z M256,421.977c-90.74,0-167-73.842-167-165c0-90.981,76.019-169.676,167-169.676    s167,78.695,167,169.676C423,347.717,347.158,421.977,256,421.977z"/>
	</g>
</g>
<g>
	<g>
		<path d="M31.3,29.601C-3.261,64.136-9.575,117.798,16.866,159.626C42.262,94.259,95.35,41.089,161.056,15.308    C120.901-9.005,65.282-4.407,31.3,29.601z"/>
	</g>
</g>
<g>
	<g>
		<path d="M480.7,29.601C446.712-4.413,391.109-9.016,350.965,15.289c65.334,25.483,118.453,78.618,144.153,144.364    C521.572,117.843,515.276,64.151,480.7,29.601z"/>
	</g>
</g>
<g>
	<g>
		<path d="M75.343,438.18l-15.756,54.637c-3.366,11.729,7.853,22.193,19.174,18.384l68.26-22.813    C120.538,475.973,96.372,458.798,75.343,438.18z"/>
	</g>
</g>
<g>
	<g>
		<path d="M452.414,492.817l-15.756-54.639c-21.039,20.621-45.194,37.787-71.691,50.206l68.273,22.817    C444.607,515.026,455.765,504.498,452.414,492.817z"/>
	</g>
</g>
<g>
</g>
<g>
</g>
<g>
</g>
<g>
</g>
<g>
</g>
<g>
</g>
<g>
</g>
<g>
</g>
<g>
</g>
<g>
</g>
<g>
</g>
<g>
</g>
<g>
</g>
<g>
</g>
<g>
</g>
</svg>
