<?xml version="1.0" encoding="iso-8859-1"?>
<!-- Generator: Adobe Illustrator 19.0.0, SVG Export Plug-In . SVG Version: 6.00 Build 0)  -->
<svg xmlns="http://www.w3.org/2000/svg" xmlns:xlink="http://www.w3.org/1999/xlink" version="1.1" id="Capa_1" x="0px" y="0px" viewBox="0 0 511.999 511.999" style="enable-background:new 0 0 511.999 511.999;" xml:space="preserve">
<g>
	<g>
		<path d="M256.001,119.666c-49.627,0-89.996,41.369-89.996,90.996s40.369,89.996,89.996,89.996s89.996-40.369,89.996-89.996    S305.628,119.666,256.001,119.666z M256.001,270.66c-33.09,0-59.998-26.908-59.998-59.998c0-33.09,26.908-60.997,59.998-60.997    s59.998,27.908,59.998,60.997S289.09,270.66,256.001,270.66z"/>
	</g>
</g>
<g>
	<g>
		<path d="M256.001,180.663c-16.537,0-29.999,13.461-29.999,29.999c0,16.537,13.46,29.999,29.999,29.999    c16.537,0,29.999-13.461,29.999-29.999C285.999,194.125,272.538,180.663,256.001,180.663z"/>
	</g>
</g>
<g>
	<g>
		<path d="M465.99,210.662c0-18.397-8.525-36.755-24.257-50.832c6.592-20.097,5.303-39.373-3.867-55.193    c-9.17-15.79-25.531-26.703-45.906-30.937c-4.233-20.375-15.145-36.736-30.937-45.906c-15.863-9.199-35.111-10.488-55.193-3.867    c-28.153-31.464-71.511-31.464-99.664,0c-20.067-6.577-39.344-5.288-55.193,3.867c-15.79,9.17-26.703,25.531-30.937,45.906    c-20.375,4.233-36.737,15.145-45.906,30.937c-9.17,15.819-10.459,35.097-3.867,55.193c-15.731,14.076-24.257,32.435-24.257,50.832    c0,18.397,8.525,35.755,24.257,49.847c-6.59,20.097-5.287,39.402,4.044,55.457c10.291,16.929,26.791,26.759,45.701,30.687    c3.985,19.283,13.922,35.503,30.966,45.877c15.863,9.185,35.185,10.474,55.252,3.838c14.442,15.893,31.625,24.286,49.773,24.286    c18.104,0,35.243-8.35,49.773-24.286c20.126,6.636,39.461,5.347,55.53-4.014c16.929-10.291,26.759-26.791,30.687-45.701    c19.283-3.985,35.504-13.922,45.877-30.966c9.17-15.819,10.459-35.097,3.867-55.193    C457.464,246.418,465.99,229.059,465.99,210.662z M256.001,330.657c-66.164,0-119.995-53.831-119.995-119.995    S189.836,89.667,256.001,89.667s119.995,54.831,119.995,120.995S322.165,330.657,256.001,330.657z"/>
	</g>
</g>
<g>
	<g>
		<path d="M135.946,418.486c-17.939-10.88-31.718-26.287-40.047-47.767c-18.118-7.068-29.369-16.577-38.571-27.593L4.405,395.05    c-9.409,9.409-2.755,25.604,10.606,25.604h76.097v75.997c0,13.375,16.123,19.986,25.504,10.605l76.639-77.639    C172.097,432.068,153.456,428.635,135.946,418.486z"/>
	</g>
</g>
<g>
	<g>
		<path d="M507.594,395.051l-52.967-51.967c-9.665,11.557-20.958,20.85-38.57,27.68c-8.469,21.71-22.164,36.891-39.168,47.225    c-19.088,11.113-37.823,13.968-58.152,11.616l76.652,77.652c9.405,9.405,25.604,2.804,25.604-10.605v-75.997h75.997    C510.35,420.654,517.003,404.458,507.594,395.051z"/>
	</g>
</g>
<g>
</g>
<g>
</g>
<g>
</g>
<g>
</g>
<g>
</g>
<g>
</g>
<g>
</g>
<g>
</g>
<g>
</g>
<g>
</g>
<g>
</g>
<g>
</g>
<g>
</g>
<g>
</g>
<g>
</g>
</svg>
