<?xml version="1.0" encoding="iso-8859-1"?>
<!-- Generator: Adobe Illustrator 19.0.0, SVG Export Plug-In . SVG Version: 6.00 Build 0)  -->
<svg xmlns="http://www.w3.org/2000/svg" xmlns:xlink="http://www.w3.org/1999/xlink" version="1.1" id="Layer_1" x="0px" y="0px" viewBox="0 0 512 512" style="enable-background:new 0 0 512 512;" xml:space="preserve">
<g>
	<g>
		<path d="M166.537,11.741c-29.294-26.417-75.138-5.215-75.138,33.357c0,19.809,30.055,19.891,30.055,0    c0-19.865,30.055-19.865,30.055,0v91.168c0,19.809,30.055,19.891,30.055,0V45.098c0-19.865,30.055-19.865,30.055,0    c0,19.809,30.055,19.891,30.055,0C241.675,6.527,195.83-14.676,166.537,11.741z"/>
	</g>
</g>
<g>
	<g>
		<path d="M481.916,466.875c0,3.742-15.997,15.028-45.083,15.028s-46.085-11.286-46.085-15.028c0-19.81-30.055-19.891-30.055,0    c0,3.742-15.997,15.028-45.083,15.028s-45.083-11.286-45.083-15.028c0-19.81-30.055-19.891-30.055,0    c0,3.742-15.996,15.028-45.083,15.028c-29.087,0-45.083-11.286-45.083-15.028c0-19.81-30.055-19.891-30.055,0    c0,3.742-15.996,15.028-45.083,15.028c-29.087,0-45.083-11.286-45.083-15.028c0-19.81-30.055-19.891-30.055,0    c0,46.142,95.228,59.468,135.249,27.722c29.252,23.204,90.97,23.204,120.221,0c29.252,23.204,90.97,23.204,120.221,0    c40.048,31.768,136.251,18.399,136.251-27.722C511.971,447.066,481.916,446.985,481.916,466.875z"/>
	</g>
</g>
<g>
	<g>
		<path d="M481.916,391.737c0,3.742-15.997,15.028-45.083,15.028s-46.085-11.286-46.085-15.028c0-19.809-30.055-19.891-30.055,0    c0,3.742-15.997,15.028-45.083,15.028s-45.083-11.286-45.083-15.028c0-19.809-30.055-19.891-30.055,0    c0,3.742-15.996,15.028-45.083,15.028c-29.087,0-45.083-11.286-45.083-15.028c0-19.809-30.055-19.891-30.055,0    c0,3.742-15.996,15.028-45.083,15.028c-29.087,0-45.083-11.286-45.083-15.028c0-19.809-30.055-19.891-30.055,0    c0,46.142,95.228,59.469,135.249,27.722c29.252,23.204,90.97,23.204,120.221,0c29.252,23.204,90.97,23.204,120.221,0    c40.048,31.768,136.251,18.399,136.251-27.722C511.971,371.927,481.916,371.846,481.916,391.737z"/>
	</g>
</g>
<g>
	<g>
		<path d="M496.943,181.349h-60.111c-11.535,0-23.073,4.359-31.057,11.505c-7.984-7.147-18.52-11.505-30.055-11.505h-60.111    c-8.306,0-15.028,6.721-15.028,15.028c0,20.868,6.075,41.003,17.552,58.232c9.832,14.763,23.04,26.665,38.391,34.664    c1.775,3.742,2.671,7.867,2.671,12.298c0,39.714-60.111,39.719-60.111,0c0-91.559-138.168-171.811-228.395-78.836    c-20.389,21.131-34.365,51.938-38.441,78.836h0.016c-2.799,15.879-3.59,32.042-2.579,47.729    c12.269,4.091,22.103,13.068,27.003,24.886c1.808,0.58,4.212,1.157,7.037,1.624c-5.123-23.287-5.512-49.652-0.238-74.238h35.438    c49.308,0,90.528,30.769,106.56,74.395c3.489-0.497,6.413-1.145,8.51-1.825c15.518-36.549,67.47-36.589,83.005,0    c10.609,3.441,26.608,3.441,37.217,0c6.854-16.143,22.879-27.488,41.502-27.488s34.649,11.344,41.502,27.488    c7.706,2.501,16.253,2.754,24.338,2.221c8.75-26.955,12.324-55.473,8.906-84.316c19.284-8.79,35.72-23.481,47.167-42.471    c9.377-16.231,14.338-34.62,14.338-53.199C511.971,188.071,505.25,181.349,496.943,181.349z M195.388,301.571    c-8.299,0-15.028-6.728-15.028-15.028c0-8.301,6.728-15.028,15.028-15.028c8.299,0,15.028,6.726,15.028,15.028    C210.416,294.842,203.687,301.571,195.388,301.571z"/>
	</g>
</g>
<g>
</g>
<g>
</g>
<g>
</g>
<g>
</g>
<g>
</g>
<g>
</g>
<g>
</g>
<g>
</g>
<g>
</g>
<g>
</g>
<g>
</g>
<g>
</g>
<g>
</g>
<g>
</g>
<g>
</g>
</svg>
