<?xml version="1.0" encoding="iso-8859-1"?>
<!-- Generator: Adobe Illustrator 19.0.0, SVG Export Plug-In . SVG Version: 6.00 Build 0)  -->
<svg xmlns="http://www.w3.org/2000/svg" xmlns:xlink="http://www.w3.org/1999/xlink" version="1.1" id="Layer_1" x="0px" y="0px" viewBox="0 0 511.999 511.999" style="enable-background:new 0 0 511.999 511.999;" xml:space="preserve">
<g>
	<g>
		<path d="M211.248,283.747c-2.077,9.39,5.08,18.252,14.648,18.252h74.998V97.52C245.939,157.098,224.79,222.813,211.248,283.747z"/>
	</g>
</g>
<g>
	<g>
		<path d="M31.571,222.884C28.85,232.44,36.035,242,46,242h74.898V85.548C78.126,117.812,48.102,165.025,31.571,222.884z"/>
	</g>
</g>
<g>
	<g>
		<path d="M496.988,391.997H360.892v-59.999h136.097c10.027,0,17.258-9.681,14.37-19.307    c-27.73-92.45-68.324-163.975-127.166-222.688h21.799c41.352,0,74.998-33.646,74.998-74.998c0-8.291-6.709-15-15-15H345.992    c-8.291,0-15,6.709-15,15c0,6.279,0,366.756,0,376.991h-30.099v-15c0-24.813-20.086-44.999-44.899-44.999h-75.098V120.003h45.099    c41.352,0,74.998-33.646,74.998-74.998c0-8.291-6.709-15-15-15H165.996c-8.291,0-15,6.709-15,15c0,11.888,0,215.331,0,226.995    h-44.999c-24.813,0-44.999,20.186-44.999,44.999v17.763c-17.423,6.213-29.999,22.706-29.999,42.236v15H15.001    c-4.819,0-9.346,2.314-12.173,6.226c-2.813,3.911-3.589,8.95-2.051,13.521l13.443,40.332c0.266-0.005,0.513-0.079,0.78-0.079    h60.999c8.628,0,14.736-1.318,18.574-2.563c6.841-16.113,22.836-27.436,41.425-27.436s34.584,11.323,41.425,27.436    c3.838,1.245,9.946,2.563,18.574,2.563s14.736-1.318,18.574-2.563c6.841-16.113,22.836-27.436,41.425-27.436    c18.589,0,34.584,11.323,41.425,27.436c3.838,1.245,9.946,2.563,18.574,2.563c8.628,0,14.736-1.318,18.574-2.563    c6.841-16.113,22.836-27.436,41.425-27.436s34.584,11.323,41.425,27.436c3.838,1.245,9.946,2.563,18.574,2.563h60.999    c0.267,0,0.514,0.073,0.78,0.079l13.444-40.332c1.538-4.57,0.762-9.609-2.051-13.521    C506.334,394.311,501.807,391.997,496.988,391.997z M360.893,29.905h87.535c-6.196,17.461-22.88,30.099-42.436,30.099h-45.099    V29.905z M180.897,59.904h87.535c-6.196,17.461-22.88,30.099-42.436,30.099h-45.099V59.904z M270.995,391.997H60.9v-15    c0-8.276,6.824-15,15.1-15h179.996c8.276,0,15,6.724,15,15V391.997z"/>
	</g>
</g>
<g>
	<g>
		<path d="M496.989,481.994h-60.999c-29.032,0-44.999-11.265-44.999-15c0-8.291-6.709-15-15-15s-15,6.709-15,15    c0,3.735-15.967,15-44.999,15s-44.999-11.265-44.999-15c0-8.291-6.709-15-15-15c-8.291,0-15,6.709-15,15    c0,3.735-15.967,15-44.999,15c-29.032,0-44.999-11.265-44.999-15c0-8.291-6.709-15-15-15c-8.291,0-15,6.709-15,15    c0,3.735-15.967,15-44.999,15H15.001c-8.291,0-15,6.709-15,15c0,8.291,6.709,15,15,15h60.999c25.077,0,46.537-6.65,59.999-17.329    c13.462,10.679,34.921,17.329,59.999,17.329s46.537-6.65,59.999-17.329c13.462,10.679,34.921,17.329,59.999,17.329    s46.537-6.65,59.999-17.329c13.462,10.679,34.921,17.329,59.999,17.329h60.999c8.291,0,15-6.709,15-15    C511.989,488.703,505.28,481.994,496.989,481.994z"/>
	</g>
</g>
<g>
</g>
<g>
</g>
<g>
</g>
<g>
</g>
<g>
</g>
<g>
</g>
<g>
</g>
<g>
</g>
<g>
</g>
<g>
</g>
<g>
</g>
<g>
</g>
<g>
</g>
<g>
</g>
<g>
</g>
</svg>
