<?xml version="1.0" encoding="iso-8859-1"?>
<!-- Generator: Adobe Illustrator 19.0.0, SVG Export Plug-In . SVG Version: 6.00 Build 0)  -->
<svg xmlns="http://www.w3.org/2000/svg" xmlns:xlink="http://www.w3.org/1999/xlink" version="1.1" id="Layer_1" x="0px" y="0px" viewBox="0 0 512 512" style="enable-background:new 0 0 512 512;" xml:space="preserve">
<g>
	<g>
		<path d="M474.994,213.706l-59.995-44.996c-16.209-12.191-34.656,12.386-18.426,24.549l59.995,44.996    C472.875,250.507,491.102,225.779,474.994,213.706z"/>
	</g>
</g>
<g>
	<g>
		<path d="M456.568,33.722l-59.995,44.996c-16.415,12.302,2.504,36.512,18.426,24.549l59.995-44.996    C491.268,46.074,472.708,21.486,456.568,33.722z"/>
	</g>
</g>
<g>
	<g>
		<path d="M96.597,168.71l-59.995,44.996c-16.414,12.302,2.504,36.512,18.427,24.549l59.995-44.996    C131.314,181.05,112.705,156.534,96.597,168.71z"/>
	</g>
</g>
<g>
	<g>
		<path d="M115.024,78.719L55.028,33.722C38.82,21.496,20.355,46.095,36.602,58.271l59.995,44.996    C112.905,115.519,131.132,90.791,115.024,78.719z"/>
	</g>
</g>
<g>
	<g>
		<path d="M496.778,120.087h-59.995c-20.184,0-20.35,30.9,0,30.9h59.995C516.963,150.988,517.129,120.087,496.778,120.087z"/>
	</g>
</g>
<g>
	<g>
		<path d="M75.217,120.087H15.222c-20.184,0-20.35,30.9,0,30.9h59.995C95.401,150.988,95.567,120.087,75.217,120.087z"/>
	</g>
</g>
<g>
	<g>
		<path d="M481.779,466.962c0,3.735-16.966,14.999-45.996,14.999c-28.345,0-43.984-10.643-44.718-14.627    c0.003-0.128,0.073-0.243,0.073-0.372c0-20.184-30.7-20.35-30.7,0v0.467c-0.921,4.043-16.48,14.532-44.644,14.532    c-29.031,0-44.996-11.264-44.996-14.999c0-19.771-29.998-19.852-29.998,0c0,3.735-15.966,14.999-44.996,14.999    c-28.165,0-43.724-10.489-44.644-14.532v-0.467c0-20.184-30.701-20.35-30.701,0v0.467c-0.922,4.043-16.481,14.532-44.645,14.532    c-29.031,0-45.794-11.264-45.794-14.999c0-19.771-29.998-19.852-29.998,0c0,46.053,95.843,59.354,135.787,27.669    c29.196,23.159,90.795,23.159,119.99,0c29.196,23.159,90.795,23.159,119.99,0c39.971,31.706,135.989,18.364,135.989-27.669    C511.777,447.19,481.779,447.109,481.779,466.962z"/>
	</g>
</g>
<g>
	<g>
		<path d="M358.758,405.349L346.252,228.92c25.353-23.366,16.51-64.201-15.261-75.724V90.993h9.52c20.184,0,20.35-30.901,0-30.901    h-11.114C322.284,25.891,291.925,0,255.645,0c-36.279,0-66.64,25.891-73.753,60.092h-11.113c-20.184,0-20.35,30.901,0,30.901h9.32    v62.203c-31.77,11.524-40.414,52.358-15.061,75.724l-12.507,176.427c-6.477,4.548-11.848,10.359-16.623,16.656    c18.478,0.111,34.361,11.362,41.169,27.398c10.588,3.436,26.557,3.436,37.145,0c6.84-16.113,22.836-27.435,41.423-27.435    s34.582,11.322,41.423,27.435c10.588,3.436,26.557,3.436,37.145,0c6.807-16.035,22.69-27.288,41.168-27.396    C370.606,415.708,365.235,409.896,358.758,405.349z M270.996,90.993h29.095v59.043h-29.095V90.993z M211.001,90.993h29.095v59.043    h-29.095V90.993z M191.903,285.677l88.794-44.696h35.097c0.3,0,0.601,0,0.601,0l1.199,16.499l-128.09,64.895L191.903,285.677z     M230.6,391.668c-11.732,0-35.487-0.582-46.195,1.199l0.9-12.598l136.188-69.095l2.401,33.998L230.6,391.668z"/>
	</g>
</g>
<g>
</g>
<g>
</g>
<g>
</g>
<g>
</g>
<g>
</g>
<g>
</g>
<g>
</g>
<g>
</g>
<g>
</g>
<g>
</g>
<g>
</g>
<g>
</g>
<g>
</g>
<g>
</g>
<g>
</g>
</svg>
