<?xml version="1.0" encoding="iso-8859-1"?>
<!-- Generator: Adobe Illustrator 19.0.0, SVG Export Plug-In . SVG Version: 6.00 Build 0)  -->
<svg xmlns="http://www.w3.org/2000/svg" xmlns:xlink="http://www.w3.org/1999/xlink" version="1.1" id="Layer_1" x="0px" y="0px" viewBox="0 0 512 512" style="enable-background:new 0 0 512 512;" xml:space="preserve">
<g>
	<g>
		<path d="M305.102,289.949c-19.485-11.101-41.443-18.953-65.023-18.953c-50.958,0-94.72,36.139-121.051,64.24    c-9.968-68.595-73.891-64.24-103.884-64.24c-8.289,0-14.996,6.707-14.996,14.996c0,31.429-4.038,64.364,30.035,89.974    C-3.899,401.583,0.149,434.68,0.149,465.939c0,8.289,6.707,14.996,14.996,14.996c29.993,0,93.914,4.368,103.884-64.24    c26.33,28.101,70.093,64.24,121.051,64.24c23.58,0,45.54-7.853,65.025-18.952C218.601,436.797,218.791,315.08,305.102,289.949z     M186.775,418.434c-30.291-20.194-30.276-64.752,0-84.936c16.438-10.983,33.152,13.942,16.636,24.954    c-12.517,8.335-12.517,26.694,0,35.029C220.105,404.61,203.012,429.197,186.775,418.434z"/>
	</g>
</g>
<g>
	<g>
		<path d="M387.487,367.604c-1.333-1.978-17.963-26.363-44.518-50.137c-38.024-8.396-72.899,20.764-72.899,58.5    c0,37.653,34.791,66.914,72.899,58.5c26.555-23.775,43.185-48.159,44.518-50.138C390.885,379.275,390.885,372.656,387.487,367.604    z M315.057,390.961c-8.282,0-14.996-6.714-14.996-14.996c0-8.284,6.714-14.996,14.996-14.996c8.282,0,14.996,6.712,14.996,14.996    C330.053,384.247,323.339,390.961,315.057,390.961z"/>
	</g>
</g>
<g>
	<g>
		<path d="M509.452,127.673c-1.333-1.978-17.963-26.363-44.518-50.138c-95.31-21.046-96.103,138.22,0,117    c26.555-23.775,43.185-48.159,44.518-50.138C512.85,139.345,512.85,132.726,509.452,127.673z M437.022,151.031    c-8.282,0-14.996-6.714-14.996-14.996c0-8.283,6.714-14.996,14.996-14.996c8.282,0,14.996,6.713,14.996,14.996    C452.018,144.316,445.304,151.031,437.022,151.031z"/>
	</g>
</g>
<g>
	<g>
		<path d="M427.067,50.018c-19.485-11.099-41.442-18.953-65.023-18.953c-50.958,0-94.72,36.141-121.051,64.24    c-9.968-68.595-73.891-64.24-103.884-64.24c-8.289,0-14.996,6.707-14.996,14.996c0,31.43-4.038,64.365,30.035,89.974    c-34.083,25.618-30.035,58.715-30.035,89.974c0,8.289,6.707,14.996,14.996,14.996c29.993,0,93.914,4.368,103.884-64.24    c26.33,28.101,70.093,64.24,121.051,64.24c23.58,0,45.54-7.853,65.025-18.953C340.565,196.866,340.755,75.149,427.067,50.018z     M308.739,178.504c-30.291-20.194-30.276-64.752,0-84.936c16.438-10.983,33.152,13.942,16.636,24.954    c-12.517,8.335-12.517,26.694,0,35.029C342.07,164.68,324.977,189.266,308.739,178.504z"/>
	</g>
</g>
<g>
</g>
<g>
</g>
<g>
</g>
<g>
</g>
<g>
</g>
<g>
</g>
<g>
</g>
<g>
</g>
<g>
</g>
<g>
</g>
<g>
</g>
<g>
</g>
<g>
</g>
<g>
</g>
<g>
</g>
</svg>
