<?xml version="1.0" encoding="iso-8859-1"?>
<!-- Generator: Adobe Illustrator 19.0.0, SVG Export Plug-In . SVG Version: 6.00 Build 0)  -->
<svg xmlns="http://www.w3.org/2000/svg" xmlns:xlink="http://www.w3.org/1999/xlink" version="1.1" id="Layer_1" x="0px" y="0px" viewBox="0 0 512 512" style="enable-background:new 0 0 512 512;" xml:space="preserve">
<g>
	<g>
		<path d="M467,211h-52.396c-3.534-12.435-8.425-24.291-14.621-35.35l36.325-36.324c17.549-17.549,17.549-46.084,0-63.633    s-46.084-17.549-63.633,0l-36.325,36.324c-11.06-6.196-22.916-11.087-35.35-14.621V45c0-24.814-20.186-45-45-45    c-24.814,0-45,20.186-45,45v52.396c-12.435,3.534-24.291,8.425-35.351,14.621l-36.324-36.324    c-17.549-17.549-46.084-17.549-63.633,0s-17.549,46.084,0,63.633l36.324,36.324c-6.196,11.06-11.087,22.916-14.621,35.35H45    c-24.814,0-45,20.186-45,45c0,24.814,20.186,45,45,45h52.396c3.534,12.435,8.425,24.291,14.621,35.35l-36.324,36.324    c-17.549,17.549-17.549,46.084,0,63.633c17.532,17.532,46.084,17.549,63.633,0l36.324-36.324    c11.06,6.196,22.916,11.087,35.351,14.621V467c0,24.814,20.186,45,45,45s45-20.186,45-45v-52.396    c12.435-3.534,24.291-8.425,35.35-14.621l36.325,36.324c17.532,17.532,46.084,17.549,63.633,0s17.549-46.084,0-63.633    l-36.325-36.324c6.196-11.06,11.087-22.916,14.621-35.35H467c24.814,0,45-20.186,45-45C512,231.186,491.814,211,467,211z M256,181    c15.262,0,29.441,4.636,41.301,12.499L275.28,215.51c-5.866-2.807-12.353-4.51-19.28-4.51s-13.415,1.703-19.281,4.51    l-22.02-22.011C226.558,185.636,240.738,181,256,181z M266.629,266.565c-0.011,0.011-0.028,0.015-0.028,0.015    s-0.025,0.039-0.037,0.05c-5.863,5.831-15.272,5.826-21.13,0c-0.011-0.011-0.015-0.028-0.015-0.028s-0.038-0.026-0.049-0.037    c-5.83-5.861-5.826-15.272,0-21.13c0.011-0.011,0.027-0.015,0.027-0.015s0.026-0.038,0.037-0.049    c5.862-5.831,15.273-5.827,21.13,0c0.011,0.011,0.015,0.027,0.015,0.027s0.039,0.026,0.05,0.037    C272.46,251.298,272.455,260.708,266.629,266.565z M193.499,297.301C185.636,285.442,181,271.262,181,256    c0-15.256,4.634-29.43,12.491-41.287l22.017,22.009C212.703,242.589,211,249.075,211,256c0,6.927,1.703,13.414,4.51,19.281    L193.499,297.301z M256,331c-15.256,0-29.431-4.634-41.287-12.491l22.009-22.017C242.589,299.297,249.075,301,256,301    s13.411-1.703,19.277-4.508l22.009,22.017C285.43,326.366,271.256,331,256,331z M318.501,297.301l-22.011-22.02    c2.807-5.867,4.51-12.354,4.51-19.281c0-6.925-1.703-13.411-4.508-19.277l22.017-22.009C326.365,226.57,331,240.744,331,256    C331,271.262,326.364,285.442,318.501,297.301z"/>
	</g>
</g>
<g>
</g>
<g>
</g>
<g>
</g>
<g>
</g>
<g>
</g>
<g>
</g>
<g>
</g>
<g>
</g>
<g>
</g>
<g>
</g>
<g>
</g>
<g>
</g>
<g>
</g>
<g>
</g>
<g>
</g>
</svg>
