<?xml version="1.0" encoding="iso-8859-1"?>
<!-- Generator: Adobe Illustrator 19.0.0, SVG Export Plug-In . SVG Version: 6.00 Build 0)  -->
<svg xmlns="http://www.w3.org/2000/svg" xmlns:xlink="http://www.w3.org/1999/xlink" version="1.1" id="Layer_1" x="0px" y="0px" viewBox="0 0 512 512" style="enable-background:new 0 0 512 512;" xml:space="preserve">
<g>
	<g>
		<path d="M444.102,303.495L270.797,187.958v70.036l167.271,113.17l12.304-51.718C451.822,313.338,449.332,306.981,444.102,303.495z    "/>
	</g>
</g>
<g>
	<g>
		<path d="M67.493,303.495c-5.229,3.486-7.719,9.842-6.269,15.951l12.304,51.712l167.271-113.165v-70.036L67.493,303.495z"/>
	</g>
</g>
<g>
	<g>
		<path d="M394.756,158.591c-3.617-21.782-22.277-37.601-44.38-37.601h-22.879l-7.499-29.997H191.599L184.1,120.99h-22.879    c-22.102,0-40.764,15.819-44.381,37.6l-14.243,85.452l128.242-85.496c15.076-10.06,34.743-10.121,49.947,0.015l128.212,85.48    L394.756,158.591z"/>
	</g>
</g>
<g>
	<g>
		<path d="M300.34,11.366C298.67,4.688,292.68,0,285.795,0H225.8c-6.884,0-12.875,4.688-14.545,11.366l-12.157,49.629h113.399    L300.34,11.366z"/>
	</g>
</g>
<g>
	<g>
		<path d="M238.239,295.937L80.948,402.352c3.925,16.492,5.878,26.605,15.133,44.261c17.858-34.712,66.501-31.717,81.149,2.787    c10.588,3.436,26.557,3.436,37.145,0c4.891-11.52,14.572-20.385,26.424-24.622V295.937H238.239z"/>
	</g>
</g>
<g>
	<g>
		<path d="M273.354,295.937h-2.558v128.841c11.853,4.235,21.533,13.102,26.424,24.622c10.588,3.436,26.557,3.436,37.145,0    c14.652-34.513,63.31-37.495,81.156-2.774c9.705-17.45,10.655-25.484,15.124-44.266L273.354,295.937z"/>
	</g>
</g>
<g>
	<g>
		<path d="M481.981,466.962c0,3.735-17.167,14.999-46.198,14.999s-44.996-11.264-44.996-14.999c0-19.771-29.997-19.852-29.997,0    c0,3.735-15.966,14.999-44.996,14.999c-29.031,0-44.996-11.264-44.996-14.999c0-8.29-6.708-14.999-14.999-14.999    c-8.29,0-14.999,6.708-14.999,14.999c0,3.735-15.966,14.999-44.996,14.999c-29.031,0-44.996-11.264-44.996-14.999    c0-19.771-29.998-19.852-29.998,0c0,3.735-15.966,14.999-44.996,14.999c-29.031,0-45.794-11.264-45.794-14.999    c0-19.771-29.998-19.852-29.998,0c0,46.053,95.843,59.354,135.787,27.669c29.196,23.159,90.795,23.159,119.99,0    c29.196,23.159,90.795,23.159,119.99,0c39.971,31.706,136.191,18.362,136.191-27.669    C511.979,447.19,481.981,447.109,481.981,466.962z"/>
	</g>
</g>
<g>
</g>
<g>
</g>
<g>
</g>
<g>
</g>
<g>
</g>
<g>
</g>
<g>
</g>
<g>
</g>
<g>
</g>
<g>
</g>
<g>
</g>
<g>
</g>
<g>
</g>
<g>
</g>
<g>
</g>
</svg>
