<?xml version="1.0" encoding="iso-8859-1"?>
<!-- Generator: Adobe Illustrator 19.0.0, SVG Export Plug-In . SVG Version: 6.00 Build 0)  -->
<svg xmlns="http://www.w3.org/2000/svg" xmlns:xlink="http://www.w3.org/1999/xlink" version="1.1" id="Layer_1" x="0px" y="0px" viewBox="0 0 512 512" style="enable-background:new 0 0 512 512;" xml:space="preserve">
<g>
	<g>
		<path d="M466.253,391.731H301.72v-29.077h149.545c6.601,0,12.471-4.23,14.551-10.496c2.094-6.266-0.059-13.36-5.343-17.312    c-79.211-59.419-116.977-129.142-158.553-232.615v-11.39h44.417c41.514,0,75.3-33.986,75.3-75.5c0-8.475-6.865-15.34-15.34-15.34    H286.379c-8.475,0-15.341,6.865-15.341,15.341v75.369C141.857,98.617,46.192,207.361,46.192,347.313    c0,8.475,6.865,15.341,15.341,15.341h209.504v29.076H46.544c-10.496,0-17.861,10.319-14.551,20.186l5.225,15.677    c9.155,4.818,16.679,12.311,20.743,21.884c3.835,1.244,9.939,2.561,18.561,2.561s14.726-1.317,18.561-2.561    c6.836-16.102,22.821-27.418,41.398-27.418s34.561,11.315,41.398,27.418c3.835,1.244,9.939,2.561,18.561,2.561    s14.726-1.317,18.561-2.561c6.836-16.102,22.821-27.418,41.398-27.418s34.561,11.315,41.398,27.418    c3.835,1.244,9.939,2.561,18.561,2.561s14.726-1.317,18.561-2.561c6.836-16.102,22.821-27.418,41.398-27.418    c18.576,0,34.561,11.315,41.398,27.418c3.835,1.244,9.939,2.561,18.561,2.561s14.726-1.317,18.561-2.561    c4.064-9.573,11.59-17.066,20.743-21.884l5.225-15.677C484.115,402.047,476.747,391.731,466.253,391.731z M388.233,30.882    c-6.266,17.068-22.675,29.077-41.895,29.077H301.92V30.882H388.233z M271.038,305.423c-17.33-23.12-27.139-50.819-27.139-80.226    c0-29.385,9.842-57.024,27.139-80.132V305.423z"/>
	</g>
</g>
<g>
	<g>
		<path d="M496.834,452.041c-8.285,0-14.99,6.704-14.99,14.99c0,3.732-15.956,14.99-44.969,14.99    c-29.013,0-44.969-11.257-44.969-14.99c0-8.285-6.704-14.99-14.99-14.99s-14.99,6.704-14.99,14.99    c0,3.732-15.956,14.99-44.969,14.99c-29.013,0-44.969-11.257-44.969-14.99c0-8.285-6.704-14.99-14.99-14.99    s-14.99,6.704-14.99,14.99c0,3.732-15.956,14.99-44.969,14.99s-44.969-11.257-44.969-14.99c0-8.285-6.704-14.99-14.99-14.99    c-8.285,0-14.99,6.704-14.99,14.99c0,3.732-15.956,14.99-44.969,14.99s-46.968-11.257-46.968-14.99    c0-8.285-6.704-14.99-14.99-14.99c-8.285,0-14.99,6.704-14.99,14.99C0.176,492.662,34.393,512,77.123,512    c25.061,0,46.506-6.645,59.959-17.317C150.534,505.355,171.98,512,197.04,512s46.506-6.645,59.959-17.317    C270.452,505.355,291.897,512,316.958,512c25.061,0,46.506-6.645,59.959-17.317C390.37,505.355,411.815,512,436.876,512    c42.73,0,74.948-19.338,74.948-44.969C511.824,458.746,505.12,452.041,496.834,452.041z"/>
	</g>
</g>
<g>
</g>
<g>
</g>
<g>
</g>
<g>
</g>
<g>
</g>
<g>
</g>
<g>
</g>
<g>
</g>
<g>
</g>
<g>
</g>
<g>
</g>
<g>
</g>
<g>
</g>
<g>
</g>
<g>
</g>
</svg>
