<?xml version="1.0" encoding="iso-8859-1"?>
<!-- Generator: Adobe Illustrator 19.0.0, SVG Export Plug-In . SVG Version: 6.00 Build 0)  -->
<svg xmlns="http://www.w3.org/2000/svg" xmlns:xlink="http://www.w3.org/1999/xlink" version="1.1" id="Layer_1" x="0px" y="0px" viewBox="0 0 512 512" style="enable-background:new 0 0 512 512;" xml:space="preserve">
<g>
	<g>
		<path d="M481.509,435.836c0,3.733-16.957,14.991-45.972,14.991c-29.016,0-44.973-11.258-44.973-14.991    c0-19.761-29.982-19.842-29.982,0c0,3.733-15.957,14.991-44.973,14.991c-29.016,0-44.973-11.258-44.973-14.991    c0-19.761-29.982-19.842-29.982,0c0,3.733-15.957,14.991-44.973,14.991s-44.973-11.258-44.973-14.991    c0-19.761-29.982-19.842-29.982,0c0,3.733-15.957,14.991-44.973,14.991c-29.016,0-45.771-11.257-45.771-14.99    c0-19.761-29.982-19.842-29.982,0c0,25.634,33.019,44.973,75.753,44.973c25.063,0,46.51-6.646,59.964-17.319    c29.181,23.147,90.748,23.147,119.928,0c29.18,23.147,90.748,23.147,119.928-0.001c39.95,31.69,135.918,18.354,135.918-27.654    C511.491,416.075,481.509,415.994,481.509,435.836z"/>
	</g>
</g>
<g>
	<g>
		<path d="M498.605,86.812l-42.338-42.614c-34.067-33.952-95.473,3.724-73.101,51.434c-22.964,22.964-46.83,56.963-77.687,51.614    c-43.143-6.895-87.209,7.159-117.951,37.887L45.191,327.479c5.016,4.423,9.349,9.609,11.999,15.85    c10.583,3.434,26.543,3.434,37.126,0c15.479-36.46,67.306-36.5,82.802,0c10.583,3.434,26.543,3.434,37.126,0    c15.479-36.46,67.306-36.5,82.802,0c10.583,3.434,26.543,3.434,37.126,0c6.837-16.103,22.823-27.421,41.401-27.421    c2.527,0,4.846,0.698,7.26,1.1c12.318-23.236,17.675-48.241,12.987-78.471c-5.081-32.011,28.247-55.565,51.669-78.987    C494.31,181.216,533.555,121.85,498.605,86.812z M456.252,129.019L413.71,86.77c-13.935-13.861,7.367-34.411,20.832-20.89    l42.309,42.601C490.682,122.311,469.524,142.253,456.252,129.019z"/>
	</g>
</g>
<g>
	<g>
		<path d="M481.509,360.882c0,3.733-16.957,14.991-45.972,14.991c-29.016,0-44.973-11.258-44.973-14.991    c0-19.761-29.982-19.842-29.982,0c0,3.733-15.957,14.991-44.973,14.991c-10.345,0-44.973-5.34-44.973-14.991    c0-19.761-29.982-19.842-29.982,0c0,3.733-15.957,14.991-44.973,14.991s-44.973-11.258-44.973-14.991    c0-19.761-29.982-19.842-29.982,0c0,3.733-15.957,14.991-44.973,14.991c-29.016,0-45.771-11.258-45.771-14.991    c0-19.761-29.982-19.842-29.982,0c0,46.029,95.794,59.323,135.717,27.654c29.181,23.147,90.748,23.147,119.928,0    c28.499,22.605,90.187,23.592,119.928,0c39.95,31.69,135.918,18.354,135.918-27.654    C511.491,341.121,481.509,341.04,481.509,360.882z"/>
	</g>
</g>
<g>
</g>
<g>
</g>
<g>
</g>
<g>
</g>
<g>
</g>
<g>
</g>
<g>
</g>
<g>
</g>
<g>
</g>
<g>
</g>
<g>
</g>
<g>
</g>
<g>
</g>
<g>
</g>
<g>
</g>
</svg>
