<?xml version="1.0" encoding="iso-8859-1"?>
<!-- Generator: Adobe Illustrator 19.0.0, SVG Export Plug-In . SVG Version: 6.00 Build 0)  -->
<svg xmlns="http://www.w3.org/2000/svg" xmlns:xlink="http://www.w3.org/1999/xlink" version="1.1" id="Layer_1" x="0px" y="0px" viewBox="0 0 512 512" style="enable-background:new 0 0 512 512;" xml:space="preserve">
<g>
	<g>
		<path d="M271.025,0.113v61c95.471,7.478,171.744,84.25,179.222,179.722H512C504.3,112.301,399.559,7.813,271.025,0.113z"/>
	</g>
</g>
<g>
	<g>
		<path d="M255.674,91.039c-90.791,0-164.649,73.857-164.649,164.648s73.858,164.648,164.649,164.648    s164.648-73.857,164.648-164.648S346.465,91.039,255.674,91.039z M255.673,120.687c8.284,0,15,6.715,15,15c0,8.284-6.716,15-15,15    s-15-6.716-15-15C240.673,127.401,247.39,120.687,255.673,120.687z M135.673,270.687c-8.284,0-15-6.716-15-15    c0-8.285,6.716-15,15-15s15,6.715,15,15C150.673,263.97,143.957,270.687,135.673,270.687z M255.673,390.687    c-8.284,0-15-6.717-15-15c0-8.286,6.716-15,15-15s15,6.714,15,15C270.673,383.971,263.957,390.687,255.673,390.687z     M355.092,175.676l-42.437,127.295c-0.048,0.141-0.178,0.232-0.229,0.372c-1.575,4.345-4.477,7.421-9.104,9.101    c-0.137,0.049-0.225,0.179-0.364,0.225l-127.295,42.437c-11.823,4.05-23.432-7.402-19.408-19.41l42.437-127.295    c0.047-0.143,0.181-0.234,0.232-0.375c1.579-4.34,4.462-7.416,9.109-9.102c0.134-0.049,0.22-0.174,0.355-0.22l127.295-42.437    C347.53,152.212,359.12,163.657,355.092,175.676z M375.673,270.687c-8.284,0-15-6.716-15-15c0-8.286,6.717-15,15-15    c8.284,0,15,6.715,15,15C390.673,263.971,383.957,270.687,375.673,270.687z"/>
	</g>
</g>
<g>
	<g>
		<polygon points="241.675,219.979 291.381,269.685 316.259,195.101   "/>
	</g>
</g>
<g>
	<g>
		<path d="M0,240.835h60.7c7.478-95.471,83.751-172.244,179.222-179.722v-61C111.387,7.813,7.7,112.301,0,240.835z"/>
	</g>
</g>
<g>
	<g>
		<polygon points="219.966,241.688 195.088,316.273 269.672,291.394   "/>
	</g>
</g>
<g>
	<g>
		<path d="M450.247,271.038c-7.478,95.471-83.75,171.744-179.222,179.222v61.627C399.559,504.187,504.3,399.573,512,271.038H450.247    z"/>
	</g>
</g>
<g>
	<g>
		<path d="M61.1,271.038H0c7.7,128.535,111.387,233.149,239.922,240.849V450.26C144.451,442.782,68.578,366.51,61.1,271.038z"/>
	</g>
</g>
<g>
</g>
<g>
</g>
<g>
</g>
<g>
</g>
<g>
</g>
<g>
</g>
<g>
</g>
<g>
</g>
<g>
</g>
<g>
</g>
<g>
</g>
<g>
</g>
<g>
</g>
<g>
</g>
<g>
</g>
</svg>
