<?xml version="1.0" encoding="iso-8859-1"?>
<!-- Generator: Adobe Illustrator 19.0.0, SVG Export Plug-In . SVG Version: 6.00 Build 0)  -->
<svg xmlns="http://www.w3.org/2000/svg" xmlns:xlink="http://www.w3.org/1999/xlink" version="1.1" id="Layer_1" x="0px" y="0px" viewBox="0 0 512 512" style="enable-background:new 0 0 512 512;" xml:space="preserve">
<g>
	<g>
		<path d="M193.338,339.8L86.809,446.329c41.548,36.96,95.118,62.214,154.118,65.671V359.484    C223.226,356.917,207.043,350.067,193.338,339.8z"/>
	</g>
</g>
<g>
	<g>
		<path d="M86.809,65.671L193.338,172.2c13.705-10.267,29.888-17.117,47.589-19.684V0C181.927,3.457,128.357,28.711,86.809,65.671z"/>
	</g>
</g>
<g>
	<g>
		<path d="M153.338,278H0.928c5.048,56.237,29.161,107.203,64.67,147.118l106.529-106.529    C163.215,306.693,156.646,292.954,153.338,278z"/>
	</g>
</g>
<g>
	<g>
		<path d="M65.598,86.882C27.165,130.085,2.079,186.232,0.073,248h151.18c1.601-20.41,9.245-39.066,20.874-54.589L65.598,86.882z"/>
	</g>
</g>
<g>
	<g>
		<path d="M318.662,339.8c-13.705,10.267-29.888,17.117-47.589,19.684V512c59-3.457,112.57-28.711,154.118-65.671L318.662,339.8z"/>
	</g>
</g>
<g>
	<g>
		<path d="M271.073,0v152.516c17.701,2.567,33.884,9.417,47.589,19.684L425.191,65.671C383.643,28.711,330.073,3.457,271.073,0z"/>
	</g>
</g>
<g>
	<g>
		<path d="M358.662,278c-3.308,14.954-9.877,28.693-18.789,40.589l106.529,106.529c35.509-39.915,59.622-90.881,64.67-147.118    H358.662z"/>
	</g>
</g>
<g>
	<g>
		<path d="M446.402,86.882L339.873,193.411c11.629,15.523,19.273,34.179,20.874,54.589h151.18    C509.922,186.232,484.835,130.085,446.402,86.882z"/>
	</g>
</g>
<g>
</g>
<g>
</g>
<g>
</g>
<g>
</g>
<g>
</g>
<g>
</g>
<g>
</g>
<g>
</g>
<g>
</g>
<g>
</g>
<g>
</g>
<g>
</g>
<g>
</g>
<g>
</g>
<g>
</g>
</svg>
