<?xml version="1.0" encoding="iso-8859-1"?>
<!-- Generator: Adobe Illustrator 19.0.0, SVG Export Plug-In . SVG Version: 6.00 Build 0)  -->
<svg xmlns="http://www.w3.org/2000/svg" xmlns:xlink="http://www.w3.org/1999/xlink" version="1.1" id="Layer_1" x="0px" y="0px" viewBox="0 0 512 512" style="enable-background:new 0 0 512 512;" xml:space="preserve">
<g>
	<g>
		<path d="M481.81,428.512c0,3.734-17.161,14.994-46.184,14.994c-29.023,0-44.982-11.261-44.982-14.994    c0-19.765-29.988-19.846-29.988,0c0,3.734-15.961,14.994-44.982,14.994s-44.982-11.261-44.982-14.994    c0-19.765-29.988-19.846-29.988,0c0,3.734-15.961,14.994-44.982,14.994s-44.982-11.261-44.982-14.994    c0-19.765-29.988-19.846-29.988,0c0,3.734-15.961,14.994-44.982,14.994S30.19,432.245,30.19,428.512    c0-19.765-29.988-19.846-29.988,0c0,46.039,95.611,59.336,135.544,27.66c29.187,23.152,90.766,23.152,119.953,0    c29.186,23.152,90.766,23.152,119.953,0c39.957,31.697,136.147,18.357,136.147-27.66    C511.798,408.747,481.81,408.666,481.81,428.512z"/>
	</g>
</g>
<g>
	<g>
		<path d="M240.002,53.66v59.976c0,20.178,30.891,20.344,30.891,0V53.66C270.893,33.482,240.002,33.316,240.002,53.66z"/>
	</g>
</g>
<g>
	<g>
		<path d="M139.376,155.543L96.912,113.08c-14.347-14.347-36.048,7.353-21.7,21.7l42.464,42.463    C131.945,191.513,153.88,170.048,139.376,155.543z"/>
	</g>
</g>
<g>
	<g>
		<path d="M75.768,277.868H15.196c-20.178,0-20.344,30.691,0,30.691h60.572C95.946,308.559,96.112,277.868,75.768,277.868z"/>
	</g>
</g>
<g>
	<g>
		<path d="M496.804,277.868h-61.178c-20.178,0-20.344,30.691,0,30.691h61.178C516.982,308.559,517.148,277.868,496.804,277.868z"/>
	</g>
</g>
<g>
	<g>
		<path d="M414.482,113.079l-42.405,42.405c-14.465,14.465,7.598,35.803,21.7,21.7l42.405-42.405    C450.53,120.432,428.83,98.732,414.482,113.079z"/>
	</g>
</g>
<g>
	<g>
		<path d="M255.697,158.266c-77.789,0-144.442,67.09-133.511,152.416c22.465-7.12,46.027,4.24,54.968,25.302    c10.585,3.435,26.549,3.435,37.133,0c15.482-36.468,67.319-36.508,82.819,0c10.585,3.435,26.549,3.435,37.133,0    c8.959-21.105,32.508-32.439,55.012-25.282C400.051,224.702,332.979,158.266,255.697,158.266z"/>
	</g>
</g>
<g>
	<g>
		<path d="M481.81,353.541c0,3.734-17.161,14.994-46.184,14.994c-29.023,0-44.982-11.261-44.982-14.994    c0-19.765-29.988-19.846-29.988,0c0,3.734-15.961,14.994-44.982,14.994s-44.982-11.261-44.982-14.994    c0-19.765-29.988-19.846-29.988,0c0,3.734-15.961,14.994-44.982,14.994s-44.982-11.261-44.982-14.994    c0-19.765-29.988-19.846-29.988,0c0,3.734-15.961,14.994-44.982,14.994S30.19,357.275,30.19,353.541    c0-19.765-29.988-19.846-29.988,0c0,46.039,95.611,59.336,135.544,27.66c29.187,23.152,90.766,23.152,119.953,0    c29.186,23.152,90.766,23.152,119.953,0c39.957,31.696,136.147,18.357,136.147-27.66    C511.798,333.776,481.81,333.695,481.81,353.541z"/>
	</g>
</g>
<g>
</g>
<g>
</g>
<g>
</g>
<g>
</g>
<g>
</g>
<g>
</g>
<g>
</g>
<g>
</g>
<g>
</g>
<g>
</g>
<g>
</g>
<g>
</g>
<g>
</g>
<g>
</g>
<g>
</g>
</svg>
