<?xml version="1.0" encoding="iso-8859-1"?>
<!-- Generator: Adobe Illustrator 19.0.0, SVG Export Plug-In . SVG Version: 6.00 Build 0)  -->
<svg xmlns="http://www.w3.org/2000/svg" xmlns:xlink="http://www.w3.org/1999/xlink" version="1.1" id="Layer_1" x="0px" y="0px" viewBox="0 0 512 512" style="enable-background:new 0 0 512 512;" xml:space="preserve">
<g>
	<g>
		<path d="M184.71,0c-5.295,19.891-10.169,40.76-14.284,60.858h68.253V0H184.71z"/>
	</g>
</g>
<g>
	<g>
		<path d="M426.772,25.233C419.155,10.423,403.261,0,386.269,0h-30.592c5.782,19.849,11.105,40.716,15.57,60.858h71.924    C438.13,48.839,432.783,36.917,426.772,25.233z"/>
	</g>
</g>
<g>
	<g>
		<path d="M323.682,0h-53.853v60.858h69.886C335.073,40.698,329.668,19.808,323.682,0z"/>
	</g>
</g>
<g>
	<g>
		<path d="M454.858,91H56.113c-6.48,19.554-11.711,39.892-15.831,59.858h431.023C467.046,130.841,461.569,110.486,454.858,91z"/>
	</g>
</g>
<g>
	<g>
		<path d="M269.829,451v61h53.886c5.99-19.777,11.364-40.818,16.011-61H269.829z"/>
	</g>
</g>
<g>
	<g>
		<path d="M169.921,451c4.129,20.16,8.935,41.192,14.24,61h54.518v-61H169.921z"/>
	</g>
</g>
<g>
	<g>
		<path d="M371.258,451c-4.468,20.151-9.781,41.164-15.564,61h30.575c16.992,0,32.886-10.004,40.503-24.814    c6.011-11.684,11.358-24.167,16.399-36.186H371.258z"/>
	</g>
</g>
<g>
	<g>
		<path d="M138.984,451H67.708c4.72,11.761,9.106,24.174,14.709,35.688C89.77,501.791,105.576,512,122.67,512h30.192    C147.72,492.15,142.982,471.136,138.984,451z"/>
	</g>
</g>
<g>
	<g>
		<path d="M123.154,0c-17.432,0-33.516,10.804-40.957,26.17c-5.519,11.371-9.824,23.077-14.484,34.688h71.314    C143.01,40.784,147.759,19.913,152.908,0H123.154z"/>
	</g>
</g>
<g>
	<g>
		<path d="M152.925,181c-3.814,49.62-3.814,100.238,0,149.858h85.754V181H152.925z"/>
	</g>
</g>
<g>
	<g>
		<path d="M358.772,181h-88.943v149.858h88.943C363.035,281.236,363.035,230.622,358.772,181z"/>
	</g>
</g>
<g>
	<g>
		<path d="M476.848,181h-87.283c4.116,49.629,4.116,100.229,0,149.858h87.042C484.015,281.295,484.221,230.508,476.848,181z"/>
	</g>
</g>
<g>
	<g>
		<path d="M38.74,352c0.062,0.329,0.13,0.657,0.193,0.986C38.952,352.664,38.893,352.336,38.74,352z"/>
	</g>
</g>
<g>
	<g>
		<path d="M40.514,361.049c4.06,19.958,9.138,40.263,15.618,59.809h398.727c6.708-19.476,12.039-39.804,16.254-59.809H40.514z"/>
	</g>
</g>
<g>
	<g>
		<path d="M122.597,181H35.032c-7.185,49.598-7.021,100.208,0.19,149.858h87.374C118.906,281.225,118.906,230.633,122.597,181z"/>
	</g>
</g>
<g>
</g>
<g>
</g>
<g>
</g>
<g>
</g>
<g>
</g>
<g>
</g>
<g>
</g>
<g>
</g>
<g>
</g>
<g>
</g>
<g>
</g>
<g>
</g>
<g>
</g>
<g>
</g>
<g>
</g>
</svg>
