<?xml version="1.0" encoding="iso-8859-1"?>
<!-- Generator: Adobe Illustrator 19.0.0, SVG Export Plug-In . SVG Version: 6.00 Build 0)  -->
<svg xmlns="http://www.w3.org/2000/svg" xmlns:xlink="http://www.w3.org/1999/xlink" version="1.1" id="Layer_1" x="0px" y="0px" viewBox="0 0 512 512" style="enable-background:new 0 0 512 512;" xml:space="preserve">
<g>
	<g>
		<path d="M286.104,43.505c-16.249,11.076-32.188,25.065-46.835,39.711L430.182,274.14c0,0,0.006-0.003,0.008-0.005    c14.813-14.815,27.712-32.023,38.632-47.913L286.104,43.505z"/>
	</g>
</g>
<g>
	<g>
		<path d="M171.125,184.772c-15.608,40.243-20.946,80.974-8.654,112.06c-8.057,1.756-15.8,4.863-21.795,10.864    c-12.786,12.786-17.457,32.708-8.679,51.116l-50.72,50.72c-11.675,11.675-30.732,11.704-42.437,0    c-11.689-11.704-11.689-30.732,0-42.437c3.377-3.375,33.254-32.3,35.072-36.694c4.099-9.911-3.252-20.328-13.846-20.328H17.629    c-18.712,0-23.786,29.6,6.215,29.6c-32.149,32.13-29.137,68.132-6.215,91.069c11.718,11.704,27.523,18.431,46.467,17.148    c-1.27,18.922,5.291,34.595,17.181,46.485c23.161,23.191,59.023,25.821,91.055-6.211c0,31.401,29.7,23.777,29.7,6.211v-42.422    c0-13.431-15.993-19.942-25.324-10.587l-31.798,31.798c-11.338,11.338-31.084,11.338-42.422,0    c-11.731-11.731-11.731-30.691,0-42.422l50.718-50.718c18.286,8.722,38.233,4.189,51.103-8.681    c5.934-5.934,9.877-13.288,11.796-21.248c35,13.446,77.465,5.657,112.447-7.897L171.125,184.772z M183.098,350.132    c-5.684,5.669-15.513,5.698-21.211,0c-5.893-5.923-5.836-15.39,0.015-21.211c5.815-5.845,15.289-5.893,21.196,0.015    C188.943,334.751,188.984,344.215,183.098,350.132z"/>
	</g>
</g>
<g>
	<g>
		<path d="M219.098,105.467c-13.713,16.377-25.226,33.325-34.455,50.402l172.815,172.815c17.11-9.24,34.117-20.58,50.525-34.321    L219.098,105.467z"/>
	</g>
</g>
<g>
	<g>
		<path d="M483.296,28.573c-30.205-30.206-89.361-44.78-170.863-1.161L484.891,199.87    C520.349,134.269,522.076,67.353,483.296,28.573z M428.482,96.878c-8.284,0-15-6.716-15-15c0-8.285,6.716-15,15-15s15,6.715,15,15    C443.482,90.162,436.765,96.878,428.482,96.878z"/>
	</g>
</g>
<g>
</g>
<g>
</g>
<g>
</g>
<g>
</g>
<g>
</g>
<g>
</g>
<g>
</g>
<g>
</g>
<g>
</g>
<g>
</g>
<g>
</g>
<g>
</g>
<g>
</g>
<g>
</g>
<g>
</g>
</svg>
