<?xml version="1.0" encoding="iso-8859-1"?>
<!-- Generator: Adobe Illustrator 19.0.0, SVG Export Plug-In . SVG Version: 6.00 Build 0)  -->
<svg xmlns="http://www.w3.org/2000/svg" xmlns:xlink="http://www.w3.org/1999/xlink" version="1.1" id="Layer_1" x="0px" y="0px" viewBox="0 0 512.001 512.001" style="enable-background:new 0 0 512.001 512.001;" xml:space="preserve">
<g>
	<g>
		<path d="M99.936,36.191l10.599-10.601c5.856-5.856,5.856-15.343,0-21.198s-15.343-5.856-21.198,0    C85.991,7.738,9.322,84.421,4.544,89.199c-5.856,5.856-5.856,15.342,0,21.198c5.856,5.856,15.342,5.857,21.198,0l10.605-10.607    l25.437,25.439l63.595-63.595L99.936,36.191z"/>
	</g>
</g>
<g>
	<g>
		<path d="M498.663,392.822l-86.98-88.502c-1.64-1.64-3.645-2.884-5.856-3.616l-60.257-20.086L146.576,82.833l-63.595,63.595    l199,197.793l20.093,60.25c0.732,2.211,1.977,4.216,3.616,5.856l86.966,88.488c17.611,17.611,46.076,17.551,63.595,0    l42.412-42.397C516.275,438.807,516.214,410.342,498.663,392.822z M477.465,435.219l-42.426,42.397    c-5.607,5.666-15.489,5.666-21.183,0l-84.462-85.984l-8.222-24.646l54.132,27.062c5.797,2.898,12.788,1.728,17.304-2.811    c4.567-4.567,5.695-11.536,2.811-17.304l-27.073-54.127l24.642,8.216l84.477,86.013    C483.305,419.846,483.348,429.305,477.465,435.219z"/>
	</g>
</g>
<g>
	<g>
		<path d="M231.716,336.354v-0.002c-33.986-33.988-24.739-24.743-57.402-57.406l-3.096-3.096l-4.767,4.769l-60.255,20.086    c-2.211,0.732-4.216,1.977-5.856,3.616l-87.044,88.502c-17.524,17.524-17.524,46.042,0,63.595l42.397,42.397    c17.556,17.556,46.003,17.607,63.609,0l87.044-88.487c1.64-1.64,2.884-3.645,3.616-5.856l20.078-60.25l4.772-4.772    L231.716,336.354z M182.644,391.632l-84.541,85.983c-5.666,5.681-15.518,5.681-21.198,0l-42.397-42.397    c-5.856-5.841-5.856-15.357-0.015-21.198l84.541-85.998l24.642-8.216l-27.073,54.127c-2.884,5.768-1.757,12.736,2.811,17.304    c4.515,4.538,11.507,5.71,17.304,2.811l54.142-27.067L182.644,391.632z"/>
	</g>
</g>
<g>
	<g>
		<polygon points="365.416,83.13 277.211,169.858 340.805,233.455 429.006,146.731   "/>
	</g>
</g>
<g>
	<g>
		<path d="M507.457,89.502c-9.049-9.049-75.775-75.775-84.808-84.808c-5.856-5.856-15.343-5.856-21.198,0    c-5.856,5.856-5.856,15.343,0,21.198l10.599,10.599l-25.437,25.44l63.589,63.598l25.442-25.444l10.614,10.614    c5.856,5.856,15.342,5.857,21.198,0C513.313,104.845,513.313,95.359,507.457,89.502z"/>
	</g>
</g>
<g>
</g>
<g>
</g>
<g>
</g>
<g>
</g>
<g>
</g>
<g>
</g>
<g>
</g>
<g>
</g>
<g>
</g>
<g>
</g>
<g>
</g>
<g>
</g>
<g>
</g>
<g>
</g>
<g>
</g>
</svg>
