<?xml version="1.0" encoding="iso-8859-1"?>
<!-- Generator: Adobe Illustrator 19.0.0, SVG Export Plug-In . SVG Version: 6.00 Build 0)  -->
<svg xmlns="http://www.w3.org/2000/svg" xmlns:xlink="http://www.w3.org/1999/xlink" version="1.1" id="Layer_1" x="0px" y="0px" viewBox="0 0 512 512" style="enable-background:new 0 0 512 512;" xml:space="preserve">
<g>
	<g>
		<circle cx="135" cy="255" r="15"/>
	</g>
</g>
<g>
	<g>
		<path d="M75,150c-24.814,0-45,20.186-45,45c0,24.814,20.186,45,45,45s45-20.186,45-45C120,170.186,99.814,150,75,150z M75,210    c-8.276,0-15-6.724-15-15s6.724-15,15-15s15,6.724,15,15S83.276,210,75,210z"/>
	</g>
</g>
<g>
	<g>
		<path d="M407,391c-8.276,0-16,6.724-16,15s7.724,15,16,15s15-6.724,15-15S415.276,391,407,391z"/>
	</g>
</g>
<g>
	<g>
		<path d="M286,391c-8.276,0-15,6.724-15,15s6.724,15,15,15s15-6.724,15-15S294.276,391,286,391z"/>
	</g>
</g>
<g>
	<g>
		<path d="M407,300h-20.193H184.193H165c-52.755,0-96.127,40.25-103.484,91H30v-46c0-8.291-6.709-15-15-15s-15,6.709-15,15v122    c0,8.291,6.709,15,15,15s15-6.709,15-15v-46h31.516c7.357,50.75,50.729,91,103.484,91h242c57.891,0,105-48.109,105-106    S464.891,300,407,300z M165,436c-16.569,0-30-13.433-30-30c0-16.569,13.431-30,30-30c16.569,0,30,13.431,30,30    C195,422.567,181.569,436,165,436z M286,451c-24.814,0-45-20.186-45-45c0-24.814,20.186-45,45-45c24.814,0,45,20.186,45,45    C331,430.814,310.814,451,286,451z M407,451c-24.814,0-46-20.186-46-45c0-24.814,21.186-45,46-45c24.814,0,45,20.186,45,45    C452,430.814,431.814,451,407,451z"/>
	</g>
</g>
<g>
	<g>
		<path d="M497,60c-8.291,0-15,6.709-15,15c0,3.735-15.967,15-45,15c-29.033,0-46-11.265-46-15c0-8.291-6.709-15-15-15    c-8.291,0-15,6.709-15,15c0,3.008-10.798,10.627-30,13.584V45c0-8.276,6.724-15,15-15h30c8.291,0,15-6.709,15-15s-6.709-15-15-15    h-30c-24.814,0-45,20.186-45,45v43.584C281.798,85.627,271,78.008,271,75c0-8.291-6.709-15-15-15c-8.291,0-15,6.709-15,15    c0,3.735-16.967,15-46,15s-45-11.265-45-15c0-8.291-6.709-15-15-15s-15,6.709-15,15c0,3.735-15.967,15-45,15S30,78.735,30,75    c0-8.291-6.709-15-15-15S0,66.709,0,75c0,25.649,32.241,45,75,45c25.078,0,46.538-6.65,60-17.329    C148.462,113.35,169.922,120,195,120s47.538-6.65,61-17.329c10.668,8.461,26.47,14.229,45,16.328V210h-30v-15    c0-8.291-6.709-15-15-15c-8.291,0-15,6.709-15,15v16.051c-16.523,2.501-30.654,13.489-36.064,29.71L194.191,270H376.81    l-9.745-29.238c-5.411-16.221-19.541-27.209-36.064-29.71v-92.053c18.53-2.099,34.332-7.866,45-16.328    C389.462,113.35,411.922,120,437,120c42.759,0,75-19.351,75-45C512,66.709,505.291,60,497,60z"/>
	</g>
</g>
<g>
	<g>
		<circle cx="437" cy="225" r="15"/>
	</g>
</g>
<g>
</g>
<g>
</g>
<g>
</g>
<g>
</g>
<g>
</g>
<g>
</g>
<g>
</g>
<g>
</g>
<g>
</g>
<g>
</g>
<g>
</g>
<g>
</g>
<g>
</g>
<g>
</g>
<g>
</g>
</svg>
