<?xml version="1.0" encoding="iso-8859-1"?>
<!-- Generator: Adobe Illustrator 19.0.0, SVG Export Plug-In . SVG Version: 6.00 Build 0)  -->
<svg xmlns="http://www.w3.org/2000/svg" xmlns:xlink="http://www.w3.org/1999/xlink" version="1.1" id="Layer_1" x="0px" y="0px" viewBox="0 0 512 512" style="enable-background:new 0 0 512 512;" xml:space="preserve">
<g>
	<g>
		<path d="M256,0c-43.598,0-82.454,17.055-107.269,42.504L256,60.385l107.269-17.88C338.454,17.055,299.598,0,256,0z"/>
	</g>
</g>
<g>
	<g>
		<path d="M446.781,65.57c-3.442-3.545-8.379-5.186-13.242-4.365l-51.138,8.523v-0.001l-123.94,20.658    c-1.611,0.264-3.311,0.264-4.922,0l-123.94-20.658v0.001l-51.138-8.523c-4.834-0.82-9.814,0.82-13.242,4.365    c-3.428,3.53-4.893,8.54-3.926,13.374L75.703,151H166c8.291,0,15,6.709,15,15s-6.709,15-15,15H81.704l9.589,47.944    C92.699,235.946,98.852,241,106,241h300c7.148,0,13.301-5.054,14.707-12.056L430.296,181H346c-8.291,0-15-6.709-15-15    s6.709-15,15-15h90.297l14.41-72.056C451.674,74.11,450.209,69.1,446.781,65.57z M256.44,90.722L256,90.795l-0.439-0.073H256.44z     M256,181c-8.284,0-15-6.716-15-15c0-8.286,6.716-15,15-15s15,6.714,15,15C271,174.284,264.284,181,256,181z"/>
	</g>
</g>
<g>
	<g>
		<path d="M450.224,371.254l-30-90c-0.035-0.106-0.152-0.152-0.19-0.258c-2.191-6.136-8.738-9.913-13.927-9.961    c-0.038,0-0.068-0.035-0.106-0.035H106c-0.189,0-0.324,0.158-0.511,0.165c-5.167,0.2-10.928,3.726-13.171,8.683    c-0.141,0.315-0.101,0.65-0.22,0.969c-0.066,0.178-0.262,0.256-0.322,0.438l-30,90c-2.783,8.289,2.113,17.18,10.591,19.292    l112.169,28.042C164.35,432.043,151,455.977,151,482v15c0,8.291,6.709,15,15,15h30c24.62,0,46.318-12.085,60-30.463    C269.682,499.915,291.38,512,316,512h30c8.291,0,14.9-6.709,14.9-15v-15c0-26.023-13.25-49.957-33.436-63.412l112.169-28.042    C448.118,388.432,453.005,379.536,450.224,371.254z M95.351,365.38l19.629-58.889l73.315,32.99    c25.833,11.629,44.068,34.765,50.235,61.683L95.351,365.38z M273.285,401.212c6.473-30.941,27.642-57.028,57.92-69.143    l65.596-26.233l19.849,59.544L273.285,401.212z"/>
	</g>
</g>
<g>
</g>
<g>
</g>
<g>
</g>
<g>
</g>
<g>
</g>
<g>
</g>
<g>
</g>
<g>
</g>
<g>
</g>
<g>
</g>
<g>
</g>
<g>
</g>
<g>
</g>
<g>
</g>
<g>
</g>
</svg>
