<?xml version="1.0" encoding="iso-8859-1"?>
<!-- Generator: Adobe Illustrator 19.0.0, SVG Export Plug-In . SVG Version: 6.00 Build 0)  -->
<svg xmlns="http://www.w3.org/2000/svg" xmlns:xlink="http://www.w3.org/1999/xlink" version="1.1" id="Layer_1" x="0px" y="0px" viewBox="0 0 512 512" style="enable-background:new 0 0 512 512;" xml:space="preserve">
<g>
	<g>
		<path d="M510.579,249.948C503.983,223.239,454.523,211,405.899,211c-48.624,0-96.883,12.239-103.478,38.948    c-0.824,1.859-1.32,3.888-1.32,6.052v50.869c49.523,32.439,160.962,32.436,210.798-0.031V256    C511.899,253.836,511.403,251.807,510.579,249.948z M405.899,271c-41.455,0-66.592-9.448-73.638-15    c7.046-5.552,32.183-15,73.638-15s66.592,9.448,73.638,15C472.491,261.552,447.354,271,405.899,271z"/>
	</g>
</g>
<g>
	<g>
		<path d="M389.639,62.26C383.165,27.44,352.564,0,315.899,0h-26.792c-67.278,0-101.758,75.906-60.352,124.574    C243.038,141.361,263.868,151,285.899,151h120c8.276,0,15,6.724,15,15c0,19.773,30,19.854,30,0v-30    C450.899,99.335,424.459,68.734,389.639,62.26z"/>
	</g>
</g>
<g>
	<g>
		<path d="M30.101,391v-15c0-19.773-30-19.854-30,0c0,57.684,0,63.316,0,121c0,19.773,30,19.854,30,0v-10.796l73.498,18.179    c5.695,1.425,11.521,2.188,17.3,3.215V391H30.101z"/>
	</g>
</g>
<g>
	<g>
		<path d="M301.101,341.005V376c0,8.276-6.925,15-15.202,15H151.101v120.106c4.852,0.278,9.681,0.894,14.546,0.894h240.252    c57.891,0,106-48.109,106-106v-64.817C455.81,367.596,358.217,368.052,301.101,341.005z"/>
	</g>
</g>
<g>
</g>
<g>
</g>
<g>
</g>
<g>
</g>
<g>
</g>
<g>
</g>
<g>
</g>
<g>
</g>
<g>
</g>
<g>
</g>
<g>
</g>
<g>
</g>
<g>
</g>
<g>
</g>
<g>
</g>
</svg>
