<?xml version="1.0" encoding="iso-8859-1"?>
<!-- Generator: Adobe Illustrator 19.0.0, SVG Export Plug-In . SVG Version: 6.00 Build 0)  -->
<svg xmlns="http://www.w3.org/2000/svg" xmlns:xlink="http://www.w3.org/1999/xlink" version="1.1" id="Layer_1" x="0px" y="0px" viewBox="0 0 512 512" style="enable-background:new 0 0 512 512;" xml:space="preserve">
<g>
	<g>
		<path d="M436,300.999c24.814,0,45-20.186,45-45v-60c0-24.814-20.186-45-45-45h-33.215c-15.81-30.808-40.976-55.974-71.785-71.784    V45c0-24.814-20.186-45-45-45h-60c-24.814,0-45,20.186-45,45v34.215C150.191,95.024,125.025,120.19,109.215,151H76    c-24.814,0-45,20.186-45,45v60c0,24.814,20.186,45,45,45h33.215c2.064,4.021,4.312,7.917,6.687,11.739    c-6.681,5.92-12.079,12.24-16.093,18.887C61.392,334.834,31,366.768,31,406v91c0,8.291,6.709,15,15,15h420c8.291,0,15-6.709,15-15    v-91c0-39.232-30.392-71.166-68.809-74.374c-4.014-6.647-9.412-12.968-16.093-18.888c2.375-3.821,4.623-7.718,6.687-11.739H436z     M256,121c57.891,0,105,47.109,105,105s-47.109,105-105,105s-105-47.109-105-105S198.109,121,256,121z M256,421    c-79.556,0-135-31.626-135-60c0-9.864,6.489-18.233,13-24.302C164.207,369.958,207.638,391,256,391s91.793-21.042,122-54.302    c6.511,6.068,13,14.438,13,24.302C391,389.374,335.556,421,256,421z"/>
	</g>
</g>
<g>
	<g>
		<path d="M256,151c-41.353,0-75,33.647-75,75c0,41.353,33.647,75,75,75c41.353,0,75-33.647,75-75C331,184.647,297.353,151,256,151z    "/>
	</g>
</g>
<g>
</g>
<g>
</g>
<g>
</g>
<g>
</g>
<g>
</g>
<g>
</g>
<g>
</g>
<g>
</g>
<g>
</g>
<g>
</g>
<g>
</g>
<g>
</g>
<g>
</g>
<g>
</g>
<g>
</g>
</svg>
