<?xml version="1.0" encoding="iso-8859-1"?>
<!-- Generator: Adobe Illustrator 19.0.0, SVG Export Plug-In . SVG Version: 6.00 Build 0)  -->
<svg xmlns="http://www.w3.org/2000/svg" xmlns:xlink="http://www.w3.org/1999/xlink" version="1.1" id="Layer_1" x="0px" y="0px" viewBox="0 0 512 512" style="enable-background:new 0 0 512 512;" xml:space="preserve">
<g>
	<g>
		<path d="M437,0c-36.216,0-67.513,25.809-74.482,60H149.482C142.513,25.809,111.216,0,75,0C33.647,0,0,33.647,0,75v361    c0,41.353,33.647,76,75,76h362c41.353,0,75-34.647,75-76V75C512,33.647,478.353,0,437,0z M121,376.383    C108.426,366.865,91.948,361,75,361s-32.426,5.865-45,15.383V75c0-24.814,20.186-45,45-45s46,20.186,46,45V376.383z     M185.395,206.605c-5.859-5.859-5.859-15.352,0-21.211L204.789,166l-19.395-19.395c-5.859-5.859-5.859-15.352,0-21.211    c5.859-5.859,15.352-5.859,21.211,0L226,144.789l19.395-19.395c5.859-5.859,15.352-5.859,21.211,0s5.859,15.352,0,21.211    L247.211,166l19.395,19.395c5.859,5.859,5.859,15.352,0,21.211c-5.859,5.859-15.351,5.86-21.211,0L226,187.211l-19.395,19.395    C200.746,212.465,191.254,212.465,185.395,206.605z M256,391h60c8.291,0,15,6.709,15,15c0,8.291-6.709,15-15,15h-60    c-24.814,0-45-20.186-45-45c0-24.814,20.186-45,45-45h30c8.276,0,15-6.724,15-15s-6.724-15-15-15h-30c-24.814,0-45-20.186-45-45    v-15c0-8.291,6.709-15,15-15s15,6.709,15,15v15c0,8.276,6.724,15,15,15h30c24.814,0,45,20.186,45,45c0,24.814-20.186,45-45,45h-30    c-8.276,0-15,6.724-15,15S247.724,391,256,391z M482,376.383C469.426,366.865,453.948,361,437,361s-33.426,5.865-46,15.383V75    c0-24.814,21.186-45,46-45c24.814,0,45,20.186,45,45V376.383z"/>
	</g>
</g>
<g>
</g>
<g>
</g>
<g>
</g>
<g>
</g>
<g>
</g>
<g>
</g>
<g>
</g>
<g>
</g>
<g>
</g>
<g>
</g>
<g>
</g>
<g>
</g>
<g>
</g>
<g>
</g>
<g>
</g>
</svg>
