<?xml version="1.0" encoding="iso-8859-1"?>
<!-- Generator: Adobe Illustrator 19.0.0, SVG Export Plug-In . SVG Version: 6.00 Build 0)  -->
<svg xmlns="http://www.w3.org/2000/svg" xmlns:xlink="http://www.w3.org/1999/xlink" version="1.1" id="Layer_1" x="0px" y="0px" viewBox="0 0 512 512" style="enable-background:new 0 0 512 512;" xml:space="preserve">
<g>
	<g>
		<path d="M498.839,13.167c-23.906-23.906-68.257-14.833-75.3,23.843c-33.754-22.217-75.278-31.75-116.41-28.017    c-79.334,7.009-113.927,55.039-221.774,162.885c-0.708,0.708-1.645,1.146-2.417,1.775l255.079,255.08    c110.641-110.641,159-145.66,165.998-224.856c3.652-41.238-6.84-81.699-29.02-115.413    C513.671,81.438,522.744,37.073,498.839,13.167z M391.686,205.228c13.957,13.957-7.157,35.298-21.227,21.227l-31.84-31.839    l-62.571,62.567c16.683,7.945,37.397,5.028,51.251-8.796c14.071-14.071,35.201,7.289,21.227,21.227    c-14.63,14.63-33.849,21.946-53.083,21.946c-66.681,0-100.18-80.963-53.068-128.097c13.956-13.956,35.298,7.156,21.227,21.227    c-13.824,13.839-16.756,34.524-8.796,51.251l62.581-62.555l-31.84-31.84c-13.956-13.956,7.157-35.298,21.227-21.227l12.54,12.54    c20.439-42.851,85.563-28.035,85.563,19.301c0,16.516-8.852,32.477-25.734,40.529L391.686,205.228z M456.384,55.621    c-5.85-5.85-5.85-15.378,0-21.227c5.849-5.849,15.379-5.849,21.227,0c5.849,5.85,5.849,15.378,0,21.227    C471.748,61.485,462.247,61.485,456.384,55.621z"/>
	</g>
</g>
<g>
	<g>
		<path d="M51.799,184.972l-18.473,4.982c-33.414,9.048-44.613,50.822-20.099,75.336l233.472,233.472    c24.547,24.547,66.297,13.284,75.336-20.099l4.981-18.475L51.799,184.972z"/>
	</g>
</g>
<g>
	<g>
		<path d="M370.458,141.562c-5.826-5.857-15.299-5.913-21.228-0.015c-5.823,5.823-5.909,15.288,0,21.227    c5.688,5.673,15.554,5.673,21.212,0c0.015,0,0.015,0,0.015,0C376.349,156.853,376.308,147.381,370.458,141.562z"/>
	</g>
</g>
<g>
</g>
<g>
</g>
<g>
</g>
<g>
</g>
<g>
</g>
<g>
</g>
<g>
</g>
<g>
</g>
<g>
</g>
<g>
</g>
<g>
</g>
<g>
</g>
<g>
</g>
<g>
</g>
<g>
</g>
</svg>
