<?xml version="1.0" encoding="iso-8859-1"?>
<!-- Generator: Adobe Illustrator 19.0.0, SVG Export Plug-In . SVG Version: 6.00 Build 0)  -->
<svg xmlns="http://www.w3.org/2000/svg" xmlns:xlink="http://www.w3.org/1999/xlink" version="1.1" id="Layer_1" x="0px" y="0px" viewBox="0 0 512 512" style="enable-background:new 0 0 512 512;" xml:space="preserve">
<g>
	<g>
		<path d="M256,210.998c-41.353,0-75,33.647-75,75c0,41.353,33.647,75,75,75c41.353,0,75-33.647,75-75    C331,244.645,297.353,210.998,256,210.998z"/>
	</g>
</g>
<g>
	<g>
		<path d="M353.899,414.698c-34.464,48.384-159.309,48.418-193.799,0C60.801,401.498,0,370.299,0,330.999c0,99.3,116.3,181,257,181    s255-81.7,255-181C512,370.299,453.199,401.498,353.899,414.698z"/>
	</g>
</g>
<g>
	<g>
		<path d="M463.094,131.115l-45.489,45.489c-13.954,13.954-35.35-7.072-21.211-21.211l45.614-45.613    c-15.577-30.786-47.609-50.881-84.322-48.42l-26.462,79.385c-6.266,18.798-34.713,9.305-28.447-9.492l31.833-96.499    c-41.63-46.335-113.585-46.337-155.217-0.004l31.831,96.502c6.273,18.82-22.148,28.389-28.447,9.492l-26.459-79.387    C119.814,58.909,87.622,79.005,72,109.787l45.606,45.606c14.211,14.211-7.471,34.951-21.211,21.211l-45.489-45.489    c-52.877,27.288-66.999,96.608-27.805,139.883c5.255,5.83,11.484,10.675,18.098,15H152c0-57.891,47.109-105,105-105    s105,47.109,105,105h108.801c6.614-4.325,12.843-9.17,18.098-15C528.149,227.659,515.883,158.357,463.094,131.115z"/>
	</g>
</g>
<g>
	<g>
		<path d="M471.622,315.999H356.838c-1.597,5.094-3.091,10.239-5.37,15H377c19.774,0,19.854,30,0,30h-46.749    c-18.939,18.499-44.753,30-73.251,30c-28.498,0-54.313-11.501-73.251-30H137c-19.774-0.001-19.854-30,0-30h25.532    c-2.28-4.761-3.774-9.906-5.37-15H40.378c-7.068,5.786-10.378,11.05-10.378,15c0,15.599,45.2,43.2,140.9,54.899    c5.4,0.601,9.901,3.9,12.001,8.701c5.698,12.9,35.099,26.4,74.099,26.4s68.401-13.5,74.099-26.4    c2.1-4.801,6.601-8.101,12.001-8.701c95.7-11.698,138.9-39.3,138.9-54.899C482,327.049,478.689,321.785,471.622,315.999z"/>
	</g>
</g>
<g>
</g>
<g>
</g>
<g>
</g>
<g>
</g>
<g>
</g>
<g>
</g>
<g>
</g>
<g>
</g>
<g>
</g>
<g>
</g>
<g>
</g>
<g>
</g>
<g>
</g>
<g>
</g>
<g>
</g>
</svg>
