<?xml version="1.0" encoding="iso-8859-1"?>
<!-- Generator: Adobe Illustrator 19.0.0, SVG Export Plug-In . SVG Version: 6.00 Build 0)  -->
<svg xmlns="http://www.w3.org/2000/svg" xmlns:xlink="http://www.w3.org/1999/xlink" version="1.1" id="Layer_1" x="0px" y="0px" viewBox="0 0 511.999 511.999" style="enable-background:new 0 0 511.999 511.999;" xml:space="preserve">
<g>
	<g>
		<path d="M134.999,76.501c-24.62,0-46.318,9.666-60,24.368C61.318,86.167,39.62,76.501,15,76.501c-8.291,0-15,6.709-15,15    s6.709,15,15,15c24.39,0,45,13.74,45,30c0,8.291,6.709,15,15,15c8.291,0,15-6.709,15-15c0-16.26,20.61-30,45-30    c8.291,0,15-6.709,15-15S143.29,76.501,134.999,76.501z"/>
	</g>
</g>
<g>
	<g>
		<path d="M255.998,166.5c-24.62,0-46.318,9.666-60,24.368c-13.682-14.702-35.38-24.368-60-24.368c-8.291,0-15,6.709-15,15    c0,8.291,6.709,15,15,15c24.39,0,45,13.74,45,30c0,8.291,6.709,15,15,15c8.291,0,15-6.709,15-15c0-16.26,20.61-30,45-30    c8.291,0,15-6.709,15-15C270.998,173.209,264.289,166.5,255.998,166.5z"/>
	</g>
</g>
<g>
	<g>
		<path d="M480.897,77.698c-6.093-35.273-36.914-62.196-73.9-62.196c-24.463,0-47.197,12.1-61.084,31.714    c-0.146-0.037-0.3-0.02-0.447-0.055c-4.382-1.003-8.862-1.659-13.469-1.659c-33.091,0-60,26.909-60,60s26.909,60,60,60h134.999    c24.814,0,45-20.186,45-45C511.996,100.535,498.93,83.572,480.897,77.698z"/>
	</g>
</g>
<g>
	<g>
		<path d="M508.817,352.256c-2.842-3.632-7.207-5.757-11.821-5.757h-87.009l-115.994-86.996c-4.541-3.428-10.62-3.955-15.703-1.421    c-5.083,2.549-8.291,7.734-8.291,13.418v74.999H180v-15c0-24.814-20.186-45-45-45c-24.814,0-45,20.186-45,45v15H15    c-8.291,0-15,6.709-15,15c0,27.486,8.745,53.264,23.394,74.999h51.606c8.628,0,14.736-1.318,18.574-2.563    c6.841-16.113,22.837-27.437,41.426-27.437c18.589,0,34.585,11.323,41.426,27.437c3.838,1.245,9.946,2.563,18.574,2.563    s14.736-1.318,18.574-2.563c6.841-16.113,22.837-27.437,41.426-27.437c18.589,0,34.585,11.323,41.426,27.437    c3.838,1.245,9.946,2.563,18.574,2.563c8.628,0,14.736-1.318,18.574-2.563c6.841-16.113,22.837-27.437,41.426-27.437    c18.589,0,34.585,11.323,41.426,27.437c3.838,1.245,9.946,2.563,18.574,2.563h39.324c17.54-20.246,30.546-44.46,37.236-71.381    C512.669,360.635,511.659,355.888,508.817,352.256z M150.999,346.499h-30v-15c0-8.276,6.724-15,15-15c8.276,0,15,6.724,15,15    V346.499z M300.998,346.499v-45l60.005,45H300.998z"/>
	</g>
</g>
<g>
	<g>
		<path d="M496.996,466.498h-62c-29.033,0-45-11.265-45-15c0-8.291-6.709-15-15-15c-8.291,0-15,6.709-15,15c0,3.735-15.967,15-45,15    c-29.033,0-45-11.265-45-15c0-8.291-6.709-15-15-15c-8.291,0-15,6.709-15,15c0,3.735-15.967,15-45,15s-45-11.265-45-15    c0-8.291-6.709-15-15-15c-8.291,0-15,6.709-15,15c0,3.735-15.967,15-45,15H15c-8.291,0-15,6.709-15,15s6.709,15,15,15h60    c25.078,0,46.538-6.65,60-17.329c13.462,10.679,34.922,17.329,60,17.329s46.538-6.65,60-17.329    c13.462,10.679,34.922,17.329,60,17.329c25.078,0,46.538-6.65,60-17.329c13.462,10.679,34.922,17.329,60,17.329h62    c8.291,0,15-6.709,15-15S505.287,466.498,496.996,466.498z"/>
	</g>
</g>
<g>
</g>
<g>
</g>
<g>
</g>
<g>
</g>
<g>
</g>
<g>
</g>
<g>
</g>
<g>
</g>
<g>
</g>
<g>
</g>
<g>
</g>
<g>
</g>
<g>
</g>
<g>
</g>
<g>
</g>
</svg>
