<?xml version="1.0" encoding="iso-8859-1"?>
<!-- Generator: Adobe Illustrator 19.0.0, SVG Export Plug-In . SVG Version: 6.00 Build 0)  -->
<svg xmlns="http://www.w3.org/2000/svg" xmlns:xlink="http://www.w3.org/1999/xlink" version="1.1" id="Layer_1" x="0px" y="0px" viewBox="0 0 512 512" style="enable-background:new 0 0 512 512;" xml:space="preserve">
<g>
	<g>
		<path d="M477.278,12.101c-53.389-34.875-123.889,10.519-114.7,73.844L166.133,282.768    c-41.283,41.283-107.071-20.226-61.905-65.392l113.116-112.769c9.409-9.408,2.756-25.606-10.605-25.606H19.455    c-13.361,0-20.015,16.197-10.606,25.606l40.606,40.272c-100.222,100.224-33.716,234.895,77.845,240.358    c5.565,113.643,141.655,176.345,240.357,77.858l40.474,40.592c9.531,9.499,25.606,2.633,25.606-10.605V305.796    c0-13.302-16.145-20.034-25.606-10.605l-114.714,114.86c-41.467,41.467-107.12-20.177-61.451-65.846    c95.835-95.817,55.479-55.839,194.263-194.64C505.821,160.814,544.497,55.913,477.278,12.101z M437.828,89.33    c-8.284,0-15-6.716-15-15c0-8.286,6.716-15,15-15c8.284,0,15,6.715,15,15C452.829,82.614,446.113,89.33,437.828,89.33z"/>
	</g>
</g>
<g>
</g>
<g>
</g>
<g>
</g>
<g>
</g>
<g>
</g>
<g>
</g>
<g>
</g>
<g>
</g>
<g>
</g>
<g>
</g>
<g>
</g>
<g>
</g>
<g>
</g>
<g>
</g>
<g>
</g>
</svg>
