<?xml version="1.0" encoding="iso-8859-1"?>
<!-- Generator: Adobe Illustrator 19.0.0, SVG Export Plug-In . SVG Version: 6.00 Build 0)  -->
<svg xmlns="http://www.w3.org/2000/svg" xmlns:xlink="http://www.w3.org/1999/xlink" version="1.1" id="Layer_1" x="0px" y="0px" viewBox="0 0 512 512" style="enable-background:new 0 0 512 512;" xml:space="preserve">
<g>
	<g>
		<path d="M121,76V15c0-8.291-6.709-15-15-15H46c-8.291,0-15,6.709-15,15v61c0,19.53,12.578,36.024,30,42.237v275.526    C43.577,399.976,31,416.47,31,436v61c0,8.291,6.709,15,15,15h60c8.291,0,15-6.709,15-15v-61c0-19.53-12.578-36.024-30-42.237    V118.237C108.422,112.024,121,95.53,121,76z"/>
	</g>
</g>
<g>
	<g>
		<path d="M481,76V15c0-8.291-6.709-15-15-15h-60c-8.291,0-15,6.709-15,15v61c0,19.53,12.578,36.024,30,42.237v275.526    c-17.422,6.213-30,22.707-30,42.237v61c0,8.291,6.709,15,15,15h60c8.291,0,15-6.709,15-15v-61c0-19.53-12.578-36.024-30-42.237    V118.237C468.422,112.024,481,95.53,481,76z"/>
	</g>
</g>
<g>
	<g>
		<path d="M271,8.78V121h80.176C321.367,63.598,283.9,21.899,271,8.78z"/>
	</g>
</g>
<g>
	<g>
		<path d="M256,211c-24.39,0-45,34.351-45,75s20.61,75,45,75s45-34.351,45-75S280.39,211,256,211z"/>
	</g>
</g>
<g>
	<g>
		<path d="M365.182,151H271v32.056c34.625,9.481,60,51.288,60,102.944s-25.375,93.463-60,102.944V421h97.634    C382.976,377.13,391,325.093,391,271C391,227.567,380.25,186.929,365.182,151z"/>
	</g>
</g>
<g>
	<g>
		<path d="M154.582,451c3.239,7.381,6.663,14.46,10.32,21.108C178.1,496.102,203.353,512,230.819,512H241v-61H154.582z"/>
	</g>
</g>
<g>
	<g>
		<path d="M271,451v61h10.181c27.465,0,52.719-15.898,65.918-39.906c3.655-6.645,7.081-13.716,10.318-21.094H271z"/>
	</g>
</g>
<g>
	<g>
		<path d="M160.824,121H241V8.78C228.1,21.9,190.633,63.598,160.824,121z"/>
	</g>
</g>
<g>
	<g>
		<path d="M241,183.056V151h-94.182C131.75,186.929,121,227.567,121,271c0,54.091,8.022,106.126,22.365,150H241v-32.056    c-34.625-9.481-60-51.288-60-102.944S206.375,192.537,241,183.056z"/>
	</g>
</g>
<g>
</g>
<g>
</g>
<g>
</g>
<g>
</g>
<g>
</g>
<g>
</g>
<g>
</g>
<g>
</g>
<g>
</g>
<g>
</g>
<g>
</g>
<g>
</g>
<g>
</g>
<g>
</g>
<g>
</g>
</svg>
