<?xml version="1.0" encoding="iso-8859-1"?>
<!-- Generator: Adobe Illustrator 19.0.0, SVG Export Plug-In . SVG Version: 6.00 Build 0)  -->
<svg version="1.1" id="Layer_1" xmlns="http://www.w3.org/2000/svg" xmlns:xlink="http://www.w3.org/1999/xlink" x="0px" y="0px"
	 viewBox="0 0 512.001 512.001" style="enable-background:new 0 0 512.001 512.001;" xml:space="preserve">
<g>
	<g>
		<path d="M283.146,100.712c-12.142,0-24.513-3.145-34.451-9.206c-0.12,3.183-0.687,6.36-1.702,9.434
			c4.631,15.59,19.06,26.964,36.153,26.964c21.004,0,38.172-17.227,37.695-38.564C310.284,97.006,296.197,100.712,283.146,100.712z"
			/>
	</g>
</g>
<g>
	<g>
		<path d="M378.226,182.77c-0.123-24.215-19.922-43.915-44.138-43.915c-28.833,0-69.865,0-96.418,0
			c-0.668,0-40.36,2.702-40.36,2.702l32.049-39.165c6.739-8.236,5.526-20.376-2.709-27.116c-8.236-6.738-20.377-5.527-27.116,2.709
			l-61.697,75.394c-10.882,13.301-0.146,33.152,16.914,31.368c22.44-2.351,78.474-7.353,78.474-7.353c0,4.647,0,300.655,0,311.484
			c0,12.771,10.353,23.123,23.123,23.123c12.77,0,23.123-10.353,23.123-23.123V314.324h6.858v174.553
			c0,12.771,10.353,23.123,23.123,23.123s23.123-10.353,23.123-23.123c0-8.835,0-297.018,0-305.876c0-1.957,1.581-3.546,3.537-3.556
			c1.957-0.01,3.555,1.562,3.575,3.52c0.4,79.659,0.326,51.232,0.326,124.625c0,10.642,8.628,19.269,19.269,19.269
			c10.641,0,19.269-8.627,19.269-19.269C378.552,234.087,378.626,262.554,378.226,182.77z"/>
	</g>
</g>
<g>
	<g>
		<path d="M283.146,0c-29.712,0-53.906,21.673-53.906,40.547c0,10.66,6.676,16.698,16.825,19.947v7.103
			c0.014,8.425,16.603,19.404,37.081,19.404s37.052-10.979,37.066-19.404v-7.098c10.208-3.263,16.839-9.321,16.839-19.951
			C337.051,21.66,312.829,0,283.146,0z M283.146,65.201c-3.464,0-7.339-5.599-7.339-13.094c0-7.495,3.875-13.096,7.339-13.096
			s7.339,5.601,7.339,13.096C290.484,59.601,286.61,65.201,283.146,65.201z M318.601,45.514c-2.97-1.638-10.242-2.983-19.77-3.697
			c-2.808-7.709-8.697-12.92-15.685-12.92c-6.987,0-12.877,5.21-15.684,12.919c-9.535,0.714-16.809,2.059-19.776,3.697
			c-3.816-1.83-3.833-3.79-3.833-4.965c0-10.206,17.568-25.935,39.293-25.935c21.725,0,39.293,15.73,39.293,25.935
			C322.439,41.723,322.421,43.682,318.601,45.514z"/>
	</g>
</g>
<g>
</g>
<g>
</g>
<g>
</g>
<g>
</g>
<g>
</g>
<g>
</g>
<g>
</g>
<g>
</g>
<g>
</g>
<g>
</g>
<g>
</g>
<g>
</g>
<g>
</g>
<g>
</g>
<g>
</g>
</svg>
