<?xml version="1.0" encoding="iso-8859-1"?>
<!-- Generator: Adobe Illustrator 19.0.0, SVG Export Plug-In . SVG Version: 6.00 Build 0)  -->
<svg version="1.1" id="Layer_1" xmlns="http://www.w3.org/2000/svg" xmlns:xlink="http://www.w3.org/1999/xlink" x="0px" y="0px"
	 viewBox="0 0 511.999 511.999" style="enable-background:new 0 0 511.999 511.999;" xml:space="preserve">
<g>
	<g>
		<path d="M145.267,373.244l-1.723-13.899c-6.513,0.629-12.859,0.783-19.516,0.48c-11.298-0.515-21.81-2.307-31.534-5.313
			l2.277,18.361l-43.075,104.55c-5.267,12.783,0.827,27.415,13.609,32.682c12.787,5.268,27.417-0.83,32.682-13.609L143.57,385.86
			C145.213,381.872,145.798,377.526,145.267,373.244z"/>
	</g>
</g>
<g>
	<g>
		<path d="M214.125,361.792l-3.971-30.402c-14.07,11.827-29.944,20.06-47.284,24.557l1.056,8.085l-24.934,117.741
			c-2.864,13.525,5.779,26.813,19.304,29.677c13.526,2.864,26.813-5.781,29.677-19.304l25.82-121.926
			C214.38,367.45,214.491,364.6,214.125,361.792z"/>
	</g>
</g>
<g>
	<g>
		<path d="M346.739,211.479c-1.907-6.739-8.914-10.655-15.658-8.746l-52.128,14.765c4.627,7.088,6.843,15.774,5.718,24.746
			l12.47-3.533l-3.563,13.156c-1.831,6.762,2.166,13.728,8.927,15.559c6.777,1.834,13.732-2.179,15.559-8.928l7.542-27.85
			l12.386-3.508C344.732,225.23,348.648,218.219,346.739,211.479z"/>
	</g>
</g>
<g>
	<g>
		<circle cx="143.114" cy="45.423" r="45.423"/>
	</g>
</g>
<g>
	<g>
		<path d="M251.497,216.027l-74.851-11.989l-24.681-54.145l32.716,40.222l16.239,2.601V135.12c0-16.945-13.737-30.682-30.682-30.682
			h-54.715c-7.325,0-14.049,2.571-19.325,6.856c-2.937-10.057-12.221-17.405-23.227-17.405H29.815c-13.366,0-24.2,10.835-24.2,24.2
			v113.785c0,8.981,4.895,16.813,12.16,20.989c6.104,3.51,11.353,3.212,14.373,3.212c2.276,17.232,8.646,41.714,26.069,60.944
			c16.264,17.953,38.62,27.698,66.443,28.968c41.411,1.882,74.776-16.342,98.191-48.669c5.982-8.26,10.667-16.56,14.269-23.993
			l-26.378-4.225c-2.503,4.53-5.446,9.267-8.886,13.954c-19.35,26.362-44.926,39.015-76.041,37.591
			c-20.761-0.947-37.146-7.858-48.697-20.546c-12.086-13.273-17.179-30.712-19.309-44.025c11.847,0,13.3,0,13.438,0
			c0.011,0,0.017,0,0.015,0c0.068,0,0.395,0,1.709,0c4.315,0,8.363-1.134,11.87-3.113l-0.75,33.773
			c9.328,12.72,23.07,19.192,42.354,20.071c27.735,1.263,48.553-10.284,64.639-32.494c1.83-2.527,3.495-5.062,5.016-7.558
			l-40.365-6.465c-17.727-2.84-27.402-17.295-28.829-24.44l-12.525-62.731l27.254,59.791c3.026,6.638,9.183,11.381,16.475,12.55
			l86.452,13.848c11.319,1.815,22.068-5.406,24.753-16.427C272.366,230.37,264.084,218.044,251.497,216.027z"/>
	</g>
</g>
<g>
	<g>
		<path d="M504.443,51c-1.852-6.783-8.851-10.779-15.634-8.927c-6.607,1.803-10.838,8.64-8.901,15.73
			c5.069,18.583,3.818,45.033-1.713,61.336c-7.445,24.156-22.807,43.388-44.106,57.639c-20.949,13.525-37.57,19.153-61.341,25.547
			l-0.186,0.05c-1.642,0.447-2.7,2.082-2.397,3.789c0.322,1.808,2.048,3.014,3.856,2.692c22.523-4.002,40.458-7.478,66.619-21.321
			c25.97-14.292,45.098-35.358,55.896-61.8c4.815-11.089,7.602-24.382,9.035-36.383C507.376,72.492,505.807,55.996,504.443,51z"/>
	</g>
</g>
<g>
	<g>
		<path d="M386.326,120.859c-6.968,2.294-10.501,9.896-8.165,16.438c0.002-0.013,0.017-0.105,0.029-0.111
			c1.029,1.708,3.162,11.442-0.85,20.805c-3.5,8.739-10.492,14.492-16.92,18.869l-0.185,0.125c-1.102,0.754-1.661,2.15-1.288,3.511
			c0.47,1.716,2.241,2.727,3.957,2.257c10.71-2.934,20.099-7.376,27.614-15.844c8.01-8.729,12.841-21.841,12.788-32.447
			C403.117,122.896,393.807,118.396,386.326,120.859z"/>
	</g>
</g>
<g>
	<g>
		<path d="M466.924,265.5c-0.352-1.108-1.079-4.885-4.871-11.278c-4.573-7.615-10.663-13.523-17.002-17.295
			c-10.341-6.387-20.797-7.485-31.004-7.236c-1.336,0.034-2.568,0.903-2.993,2.249c-0.536,1.696,0.404,3.506,2.1,4.043
			c3.979,1.261,14.733,4.352,21.837,13.274c6.321,7.559,7.36,17.453,6.795,19.683c-0.013-0.001-0.053-0.086-0.059-0.097
			c-0.453,8.62,8.06,15.526,16.734,12.814C465.26,279.532,469.049,272.298,466.924,265.5z"/>
	</g>
</g>
<g>
</g>
<g>
</g>
<g>
</g>
<g>
</g>
<g>
</g>
<g>
</g>
<g>
</g>
<g>
</g>
<g>
</g>
<g>
</g>
<g>
</g>
<g>
</g>
<g>
</g>
<g>
</g>
<g>
</g>
</svg>
