<?xml version="1.0" encoding="iso-8859-1"?>
<!-- Generator: Adobe Illustrator 19.0.0, SVG Export Plug-In . SVG Version: 6.00 Build 0)  -->
<svg version="1.1" id="Layer_1" xmlns="http://www.w3.org/2000/svg" xmlns:xlink="http://www.w3.org/1999/xlink" x="0px" y="0px"
	 viewBox="0 0 512 512" style="enable-background:new 0 0 512 512;" xml:space="preserve">
<g>
	<g>
		<circle cx="185.708" cy="42.14" r="42.14"/>
	</g>
</g>
<g>
	<g>
		<path d="M239.053,194.009l-15.852,22.949c2.465,5.845,3.38,12.425,2.299,19.149c-3.07,19.105-21.047,32.121-40.174,29.05
			l-53.975-8.674c0,0,0.009,206.679,0.009,231.118c0,13.476,10.924,24.4,24.4,24.4c13.476,0,24.4-10.924,24.4-24.4V292.571h10.536
			V487.6c0,13.476,10.924,24.4,24.4,24.4s24.4-10.924,24.4-24.4C239.496,477.096,239.053,204.514,239.053,194.009z"/>
	</g>
</g>
<g>
	<g>
		<path d="M337.63,204.659c-9.739,0-18.141-6.073-21.533-14.709l-27.642,3.235l-0.228-47.596c-0.031-6.254-1.28-12.227-3.499-17.708
			l-36.997,53.56l0.166,34.68c0.059,12.137,10.673,21.506,22.697,20.099l91.552-10.715c10.579-1.239,18.289-10.389,17.944-20.845
			H337.63z"/>
	</g>
</g>
<g>
	<g>
		<path d="M363.493,145.998c-12.942,0-25.435-0.973-36.43-2.792l2.294,38.796c0.259,4.38,3.887,7.8,8.275,7.8h51.723
			c4.388,0,8.016-3.42,8.275-7.8l2.294-38.796C388.929,145.025,376.435,145.998,363.493,145.998z"/>
	</g>
</g>
<g>
	<g>
		<path d="M363.493,94.823c-36.468,0-66.031,8.13-66.031,18.159c0,10.028,29.563,18.159,66.031,18.159s66.031-8.13,66.031-18.159
			C429.524,102.953,399.961,94.823,363.493,94.823z M363.493,116.283c-13.378,0-26.003-1.142-36.508-3.302
			c10.506-2.16,23.129-3.302,36.508-3.302c13.379,0,26.002,1.142,36.508,3.302C389.495,115.141,376.872,116.283,363.493,116.283z"/>
	</g>
</g>
<g>
	<g>
		<path d="M278.877,102.087c-3.793-2.621-8.992-1.669-11.612,2.123l-7.199,10.422l13.735,9.487L281,113.699
			C283.62,109.906,282.67,104.707,278.877,102.087z"/>
	</g>
</g>
<g>
	<g>
		<path d="M264.315,137.855l-13.735-9.487l-56.688,82.066c-8.49-1.364-63.409-10.191-70.661-11.356
			c0.138-27.31,0.15-29.729,0.268-53.284c0.019-3.77,2.909-7.416,7.851-7.416v47.093l59.638,9.584
			c6.548-9.479,57.784-83.654,65.296-94.528c-5.06-1.817-10.506-2.813-16.176-2.813H220.14c-3.892,9.904-30.422,77.415-34.94,88.914
			c-5.825-14.824-30.89-78.611-34.94-88.914H130.95c-26.4,0-47.984,21.478-48.118,47.877c-0.043,8.731-0.317,63.191-0.355,70.698
			c-0.05,10.023,7.21,18.587,17.106,20.178l88.077,14.155c11.205,1.798,21.544-5.907,23.304-16.849
			c0.832-5.179-0.389-10.203-3.037-14.282L264.315,137.855z"/>
	</g>
</g>
<g>
	<g>
		<circle cx="185.708" cy="125.633" r="5.186"/>
	</g>
</g>
<g>
	<g>
		<circle cx="185.708" cy="146.778" r="5.186"/>
	</g>
</g>
<g>
	<g>
		<path d="M200.01,89.636c-11.622,6.39-8.488,4.612-14.308,8.077c-5.819-3.464-2.687-1.687-14.308-8.077
			c-1.965-1.081-4.377,0.344-4.377,2.589c0,7.374,0,12.144,0,19.913c0,2.242,2.409,3.67,4.377,2.589l14.308-7.867l14.308,7.867
			c1.965,1.081,4.377-0.343,4.377-2.589c0-7.551,0-12.671,0-19.913C204.387,89.982,201.978,88.554,200.01,89.636z"/>
	</g>
</g>
<g>
</g>
<g>
</g>
<g>
</g>
<g>
</g>
<g>
</g>
<g>
</g>
<g>
</g>
<g>
</g>
<g>
</g>
<g>
</g>
<g>
</g>
<g>
</g>
<g>
</g>
<g>
</g>
<g>
</g>
</svg>
