<?xml version="1.0" encoding="iso-8859-1"?>
<!-- Generator: Adobe Illustrator 19.0.0, SVG Export Plug-In . SVG Version: 6.00 Build 0)  -->
<svg version="1.1" id="Layer_1" xmlns="http://www.w3.org/2000/svg" xmlns:xlink="http://www.w3.org/1999/xlink" x="0px" y="0px"
	 viewBox="0 0 512 512" style="enable-background:new 0 0 512 512;" xml:space="preserve">
<g>
	<g>
		<path d="M174.167,333.219c-0.064,0.001-0.127,0.001-0.192,0c-20.49-0.103-37.018-16.798-36.915-37.288l0.045-8.979l-91.904,58.367
			c-7.233,4.594-9.373,14.182-4.779,21.416l64.134,100.983c4.594,7.233,14.182,9.373,21.416,4.779l59.274-37.644V331.532
			C181.747,332.627,178.026,333.219,174.167,333.219z"/>
	</g>
</g>
<g>
	<g>
		<path d="M257.046,2.471c-23.161,0-41.937,18.777-41.937,41.937c0,23.194,18.838,41.937,41.937,41.937
			c23.149,0,41.937-18.763,41.937-41.937C298.983,21.247,280.207,2.471,257.046,2.471z"/>
	</g>
</g>
<g>
	<g>
		<path d="M462.919,9.968V3.218c0-1.778-1.441-3.218-3.217-3.218H344.311c-1.778,0-3.217,1.441-3.217,3.218v6.749
			c-6.117,0-11.075,4.958-11.075,11.075c0,6.117,4.958,11.075,11.075,11.075v6.749c0,1.778,1.441,3.218,3.217,3.218h42.721
			c-0.011,11.339-0.097,98.57-0.111,112.616l-27.702,20.839l-0.142-28.184c-0.133-26.271-21.614-47.645-47.886-47.645
			c-11.324,0-96.159,0-108.632,0c-26.018,0-47.753,21.167-47.886,47.645l-0.746,148.659c-0.056,11.175,8.958,20.281,20.133,20.336
			c0.034,0,0.07,0,0.104,0c11.054,0,20.177-8.952,20.233-20.133l0.746-148.659c0.011-2.155,1.763-3.894,3.917-3.888
			c2.154,0.005,3.896,1.753,3.896,3.907c0.001,48.35,0.009,318.006,0.009,340.138c0,13.42,10.878,24.282,24.282,24.282
			c13.408,0,24.282-10.868,24.282-24.282V293.629h10.484v194.088c0,13.411,10.871,24.282,24.282,24.282
			c13.405,0,24.282-10.865,24.282-24.282c0-30.69-0.441-341.807-0.441-340.709c0-2.345,1.899-4.245,4.244-4.246
			c2.306-0.001,4.461,1.877,4.225,4.798l0.344,68.472c0.085,16.732,19.218,25.986,32.399,16.069l36.724-27.626
			c2.278,5.338,7.57,9.083,13.741,9.089c0.004,0,0.01,0,0.016,0c8.248,0,14.943-6.683,14.951-14.937l0.016-16.17
			c7.179-7.687,7.335-19.673,0.027-27.555c0.014-14.15,0.1-101.547,0.111-112.819h42.767c1.778,0,3.217-1.441,3.217-3.218v-6.748
			c6.117,0,11.075-4.958,11.075-11.075C473.996,14.926,469.036,9.968,462.919,9.968z"/>
	</g>
</g>
<g>
</g>
<g>
</g>
<g>
</g>
<g>
</g>
<g>
</g>
<g>
</g>
<g>
</g>
<g>
</g>
<g>
</g>
<g>
</g>
<g>
</g>
<g>
</g>
<g>
</g>
<g>
</g>
<g>
</g>
</svg>
