<?xml version="1.0" encoding="iso-8859-1"?>
<!-- Generator: Adobe Illustrator 19.0.0, SVG Export Plug-In . SVG Version: 6.00 Build 0)  -->
<svg version="1.1" id="Layer_1" xmlns="http://www.w3.org/2000/svg" xmlns:xlink="http://www.w3.org/1999/xlink" x="0px" y="0px"
	 viewBox="0 0 512.001 512.001" style="enable-background:new 0 0 512.001 512.001;" xml:space="preserve">
<g>
	<g>
		<path d="M310.745,61.901c-11.18,7.956-24.509,12.261-38.507,12.261c-13.997,0-27.326-4.305-38.504-12.261
			c-0.625,2.789-0.965,5.687-0.965,8.665c0,21.799,17.671,39.471,39.471,39.471c21.799,0,39.471-17.671,39.471-39.471
			C311.71,67.588,311.37,64.69,310.745,61.901z"/>
	</g>
</g>
<g>
	<g>
		<path d="M370.492,167.457c-0.126-25.342-20.847-45.958-46.189-45.958c-12.627,0-88.827,0-100.189,0
			c-14.867,0-28.658,6.71-37.831,18.411l-41.18,52.52c-4.015,5.121-5.313,11.865-3.484,18.109l18.51,63.207
			c3.131,10.691,14.334,16.815,25.02,13.685c3.806-1.114,7.017-3.264,9.455-6.038v49.264c0,7.619,6.177,13.796,13.796,13.796
			c4.869,0,9.14-2.529,11.595-6.339v149.689c0,13.365,10.834,24.199,24.199,24.199c13.365,0,24.199-10.834,24.199-24.199V305.129
			h7.177v182.673c0,13.365,10.834,24.199,24.199,24.199s24.199-10.834,24.199-24.199c0-10.867,0-276.019,0-320.128
			c0-1.707,1.381-3.092,3.089-3.098c1.707-0.004,3.096,1.374,3.105,3.082l0.704,139.914c0.056,11.102,9.074,20.064,20.163,20.064
			c0.034,0,0.07,0,0.103,0c11.137-0.056,20.12-9.13,20.064-20.267L370.492,167.457z M219.994,267.952
			c-2.454-3.809-6.725-6.337-11.594-6.337c-3.448,0-6.592,1.273-9.011,3.365c-0.135-0.856-0.305-1.714-0.555-2.568l-15.596-53.257
			c22.454-28.637,30.633-39.178,33.909-43.227c0.427-0.528,1.14-0.73,1.781-0.503c0.641,0.227,1.067,0.832,1.067,1.51V267.952z"/>
	</g>
</g>
<g>
	<g>
		<path d="M321.492,28.92L283.066,3.281c-6.557-4.374-15.1-4.374-21.656,0L222.984,28.92c-2.472,1.649-2.817,5.153-0.716,7.253
			c11.378,11.378,23.905,26.952,49.97,26.952c26.033,0,38.541-15.523,49.97-26.952C324.31,34.071,323.963,30.568,321.492,28.92z
			 M272.238,44.065c-6.643,0-12.161-17.373-12.161-17.373c6.716-6.717,17.606-6.717,24.322,0
			C284.4,26.692,278.882,44.065,272.238,44.065z"/>
	</g>
</g>
<g>
</g>
<g>
</g>
<g>
</g>
<g>
</g>
<g>
</g>
<g>
</g>
<g>
</g>
<g>
</g>
<g>
</g>
<g>
</g>
<g>
</g>
<g>
</g>
<g>
</g>
<g>
</g>
<g>
</g>
</svg>
