<?xml version="1.0" encoding="iso-8859-1"?>
<!-- Generator: Adobe Illustrator 19.0.0, SVG Export Plug-In . SVG Version: 6.00 Build 0)  -->
<svg version="1.1" id="Layer_1" xmlns="http://www.w3.org/2000/svg" xmlns:xlink="http://www.w3.org/1999/xlink" x="0px" y="0px"
	 viewBox="0 0 512.001 512.001" style="enable-background:new 0 0 512.001 512.001;" xml:space="preserve">
<g>
	<g>
		<path d="M234.71,311.028c-7.925,7.924-20.117,10.753-32.928,3.755v172.818c0,13.476,10.924,24.4,24.4,24.4s24.4-10.924,24.4-24.4
			V295.155L234.71,311.028z"/>
	</g>
</g>
<g>
	<g>
		<path d="M309.473,235.828c0,0-8.644,8.896-56.308,56.743h7.951c0,24.355,0,170.591,0,195.029c0,13.476,10.924,24.4,24.4,24.4
			s24.4-10.924,24.4-24.4C309.916,472.336,309.473,235.828,309.473,235.828z"/>
	</g>
</g>
<g>
	<g>
		<path d="M358.649,145.592c-0.132-26.4-21.717-47.877-48.117-47.877H281.28V75.851h-0.258c10.232-7.688,16.852-19.925,16.852-33.71
			C297.874,18.867,279.007,0,255.733,0c-23.273,0-42.141,18.867-42.141,42.141c0,13.785,6.62,26.022,16.852,33.71h-0.48v21.863
			h-28.808c-26.282,0-47.784,21.288-48.107,47.525c-0.001,0.117-0.01,0.233-0.011,0.351l-0.75,149.379
			c-0.057,11.229,9.002,20.378,20.23,20.435c0.035,0,0.07,0,0.104,0c11.182,0,20.274-9.036,20.331-20.231
			c0.003-0.586,0.736-149.33,0.78-149.914c0.277-3.606,3.074-6.879,8.039-6.879l-0.072,23.626l14.114-14.109
			c10.381-10.383,27.208-10.405,37.571,0c48.282,48.475,56.087,56.521,56.087,56.521v-58.591c0-2.343,1.895-4.246,4.238-4.255
			c2.343-0.009,4.254,1.877,4.272,4.223c0.688,91.406,0.216,57.884,1.067,146.97c0.106,11.164,9.188,20.139,20.327,20.139
			c0.066,0,0.133,0,0.198-0.001c11.229-0.107,20.245-9.297,20.138-20.527C358.865,203.418,359.108,236.896,358.649,145.592z
			 M264.582,97.556h-17.918V79.638h17.918V97.556z"/>
	</g>
</g>
<g>
	<g>
		<path d="M295.072,213.094l-53.44-53.44c-3.882-3.882-10.178-3.883-14.061,0l-18.196,18.196l-0.127,20.335
			c3.254-3.337,8.567-3.33,11.823-0.075l11.103,11.103l11.444-11.444c3.246-3.246,8.51-3.246,11.755,0
			c3.246,3.246,3.246,8.51,0,11.755l-11.444,11.444l11.103,11.103c3.246,3.246,3.246,8.509,0,11.755
			c-1.623,1.623-3.75,2.435-5.877,2.435s-4.255-0.811-5.877-2.435l-11.103-11.103l-23.288,23.288l-0.441,42.815
			c4.744,4.745,10.897,4.061,14.509,0.449l72.118-72.118C298.955,223.272,298.955,216.977,295.072,213.094z"/>
	</g>
</g>
<g>
	<g>
		<path d="M209.316,209.864c-0.05-0.05-0.092-0.105-0.14-0.155l-0.142,22.643l11.384-11.384L209.316,209.864z"/>
	</g>
</g>
<g>
</g>
<g>
</g>
<g>
</g>
<g>
</g>
<g>
</g>
<g>
</g>
<g>
</g>
<g>
</g>
<g>
</g>
<g>
</g>
<g>
</g>
<g>
</g>
<g>
</g>
<g>
</g>
<g>
</g>
</svg>
