<?xml version="1.0" encoding="iso-8859-1"?>
<!-- Generator: Adobe Illustrator 19.0.0, SVG Export Plug-In . SVG Version: 6.00 Build 0)  -->
<svg version="1.1" id="Layer_1" xmlns="http://www.w3.org/2000/svg" xmlns:xlink="http://www.w3.org/1999/xlink" x="0px" y="0px"
	 viewBox="0 0 512 512" style="enable-background:new 0 0 512 512;" xml:space="preserve">
<g>
	<g>
		<rect x="166.957" y="411.826" width="178.087" height="33.391"/>
	</g>
</g>
<g>
	<g>
		<path d="M33.391,345.043v150.261c0,9.217,7.479,16.696,16.696,16.696h411.826c9.217,0,16.696-7.479,16.696-16.696V345.043H33.391z
			 M378.435,461.913c0,9.217-7.479,16.696-16.696,16.696H150.261c-9.217,0-16.696-7.479-16.696-16.696V395.13
			c0-9.217,7.479-16.696,16.696-16.696h211.478c9.217,0,16.696,7.479,16.696,16.696V461.913z"/>
	</g>
</g>
<g>
	<g>
		<path d="M461.913,211.478H122.435v-43.174l28.631-28.626c6.529,3.123,13.748,5.018,21.456,5.018
			c27.619,0,50.087-22.468,50.087-50.087s-22.468-50.087-50.087-50.087c-27.619,0-50.087,22.468-50.087,50.087
			c0,7.71,1.896,14.931,5.02,21.462l-33.52,33.516c-3.13,3.131-4.891,7.381-4.891,11.805v50.087H50.087
			C22.468,211.478,0,233.946,0,261.565v33.391c0,9.217,7.479,16.696,16.696,16.696h478.609c9.217,0,16.696-7.479,16.696-16.696
			v-33.391C512,233.946,489.532,211.478,461.913,211.478z"/>
	</g>
</g>
<g>
	<g>
		<path d="M371.162,112.688c11.372-11.981,18.403-28.121,18.403-45.905C389.565,29.956,359.609,0,322.783,0
			C285.956,0,256,29.956,256,66.783c0,17.784,7.031,33.924,18.403,45.905c-24.565,13.611-42.647,37.306-49.076,65.399h194.912
			C413.81,149.994,395.728,126.299,371.162,112.688z"/>
	</g>
</g>
<g>
</g>
<g>
</g>
<g>
</g>
<g>
</g>
<g>
</g>
<g>
</g>
<g>
</g>
<g>
</g>
<g>
</g>
<g>
</g>
<g>
</g>
<g>
</g>
<g>
</g>
<g>
</g>
<g>
</g>
</svg>
