<?xml version="1.0" encoding="iso-8859-1"?>
<!-- Generator: Adobe Illustrator 19.0.0, SVG Export Plug-In . SVG Version: 6.00 Build 0)  -->
<svg version="1.1" id="Layer_1" xmlns="http://www.w3.org/2000/svg" xmlns:xlink="http://www.w3.org/1999/xlink" x="0px" y="0px"
	 viewBox="0 0 512 512" style="enable-background:new 0 0 512 512;" xml:space="preserve">
<g>
	<g>
		<path d="M205.913,211.476v-61.252c1.356-1.214,2.753-2.36,4.055-3.661c0-0.006,0-0.006,0-0.006
			c39.055-39.06,39.055-102.61,0-141.669c-6.518-6.518-17.091-6.518-23.609,0l-48.42,48.418l-10.613-10.613
			c-6.521-6.521-17.088-6.521-23.609,0c-6.521,6.516-6.521,17.092,0,23.609l10.613,10.613L68.293,122.95
			c-6.531,6.531-6.505,17.11,0,23.614c19.533,19.522,45.185,29.283,70.838,29.283c11.316,0,22.6-2.013,33.392-5.812v41.443H55.652
			c-27.619,0-50.087,22.468-50.087,50.087v116.87h50.087c9.217,0,16.696,7.473,16.696,16.696c0,9.223-7.48,16.694-16.697,16.694
			H5.564v16.696c0,27.619,22.468,50.087,50.087,50.087h19.772C82.337,498,100.696,512,122.434,512c21.738,0,40.097-14,47.011-33.392
			h103.251V211.476H205.913z M122.434,478.608c-9.206,0-16.696-7.49-16.696-16.696s7.49-16.696,16.696-16.696
			s16.696,7.49,16.696,16.696S131.64,478.608,122.434,478.608z M239.304,361.738c0,9.223-7.479,16.696-16.696,16.696H111.303
			c-9.217,0-16.696-7.473-16.696-16.696v-66.783c0-9.223,7.479-16.696,16.696-16.696h111.305c9.217,0,16.696,7.473,16.696,16.696
			V361.738z"/>
	</g>
</g>
<g>
	<g>
		<rect x="128" y="311.654" width="77.914" height="33.392"/>
	</g>
</g>
<g>
	<g>
		<path d="M471.534,265.651c-12.141-32.402-43.555-54.174-78.164-54.174h-20.5v83.479c0,9.206,7.49,16.696,16.696,16.696h99.221
			L471.534,265.651z"/>
	</g>
</g>
<g>
	<g>
		<path d="M456.349,378.434h50.087v-4.581c0-9.845-1.742-19.529-5.151-28.81H389.566c-27.619,0-50.087-22.468-50.087-50.087v-83.479
			h-33.392v267.132h3.076C316.078,498,334.437,512,356.175,512c21.738,0,40.096-14,47.011-33.392h53.164
			c27.619,0,50.087-22.468,50.087-50.087v-16.696h-50.087c-9.217,0-16.696-7.473-16.696-16.696
			C439.653,385.907,447.132,378.434,456.349,378.434z M356.175,478.608c-9.206,0-16.696-7.49-16.696-16.696
			s7.49-16.696,16.696-16.696s16.696,7.49,16.696,16.696S365.381,478.608,356.175,478.608z"/>
	</g>
</g>
<g>
</g>
<g>
</g>
<g>
</g>
<g>
</g>
<g>
</g>
<g>
</g>
<g>
</g>
<g>
</g>
<g>
</g>
<g>
</g>
<g>
</g>
<g>
</g>
<g>
</g>
<g>
</g>
<g>
</g>
</svg>
