<?xml version="1.0" encoding="iso-8859-1"?>
<!-- Generator: Adobe Illustrator 19.0.0, SVG Export Plug-In . SVG Version: 6.00 Build 0)  -->
<svg version="1.1" id="Layer_1" xmlns="http://www.w3.org/2000/svg" xmlns:xlink="http://www.w3.org/1999/xlink" x="0px" y="0px"
	 viewBox="0 0 512 512" style="enable-background:new 0 0 512 512;" xml:space="preserve">
<g>
	<g>
		<path d="M423.392,166.056c-9.241,0-16.739,7.492-16.739,16.739v66.957c0,83.069-67.579,150.653-150.653,150.653
			s-150.653-67.584-150.653-150.653v-66.957c0-9.247-7.498-16.739-16.739-16.739s-16.739,7.492-16.739,16.739v66.957
			c0,95.88,73.692,174.788,167.392,183.284v45.486h-83.696c-9.241,0-16.739,7.492-16.739,16.739S146.323,512,155.565,512h200.871
			c9.241,0,16.739-7.492,16.739-16.739s-7.498-16.739-16.739-16.739h-83.696v-45.486c93.701-8.496,167.392-87.403,167.392-183.284
			v-66.957C440.132,173.548,432.634,166.056,423.392,166.056z"/>
	</g>
</g>
<g>
	<g>
		<path d="M289.479,166.056h83.696v-33.478h-83.696c-9.241,0-16.739-7.492-16.739-16.739s7.498-16.739,16.739-16.739h82.359
			C364.461,47.893,323.947,7.376,272.739,0v48.881c0,9.247-7.498,16.739-16.739,16.739s-16.739-7.492-16.739-16.739V0
			c-51.208,7.376-91.722,47.893-99.099,99.099h82.359c9.241,0,16.739,7.492,16.739,16.739s-7.498,16.739-16.739,16.739h-83.696
			v33.478h83.696c9.241,0,16.739,7.492,16.739,16.739s-7.498,16.739-16.739,16.739h-83.696v33.479h83.696
			c9.241,0,16.739,7.492,16.739,16.739c0,9.247-7.498,16.739-16.739,16.739h-82.359c7.376,51.205,47.89,91.722,99.099,99.099
			v-48.881c0-9.247,7.498-16.739,16.739-16.739s16.739,7.492,16.739,16.739v48.881c51.208-7.376,91.722-47.893,99.099-99.099
			h-82.359c-9.241,0-16.739-7.492-16.739-16.739c0-9.247,7.498-16.739,16.739-16.739h83.696v-33.479h-83.696
			c-9.241,0-16.739-7.492-16.739-16.739S280.237,166.056,289.479,166.056z"/>
	</g>
</g>
<g>
</g>
<g>
</g>
<g>
</g>
<g>
</g>
<g>
</g>
<g>
</g>
<g>
</g>
<g>
</g>
<g>
</g>
<g>
</g>
<g>
</g>
<g>
</g>
<g>
</g>
<g>
</g>
<g>
</g>
</svg>
