<?xml version="1.0" encoding="iso-8859-1"?>
<!-- Generator: Adobe Illustrator 19.0.0, SVG Export Plug-In . SVG Version: 6.00 Build 0)  -->
<svg version="1.1" id="Layer_1" xmlns="http://www.w3.org/2000/svg" xmlns:xlink="http://www.w3.org/1999/xlink" x="0px" y="0px"
	 viewBox="0 0 512 512" style="enable-background:new 0 0 512 512;" xml:space="preserve">
<g>
	<g>
		<rect x="100.174" y="406.261" width="33.391" height="66.783"/>
	</g>
</g>
<g>
	<g>
		<path d="M461.913,139.13H317.217c-21.737,0-40.096,14-47.01,33.391h-36.468v-16.696c0-64.441-52.424-116.87-116.87-116.87
			S0,91.385,0,155.826v267.13c0,27.619,22.468,50.087,50.087,50.087h16.696v-83.478c0-9.223,7.479-16.696,16.696-16.696h66.783
			c9.217,0,16.696,7.473,16.696,16.696v83.478h16.696c27.619,0,50.087-22.468,50.087-50.087v-83.478h36.468
			c6.914,19.391,25.273,33.391,47.01,33.391h144.696c27.619,0,50.087-22.468,50.087-50.087V189.217
			C512,161.598,489.532,139.13,461.913,139.13z M133.565,339.478h-33.391c-9.217,0-16.696-7.473-16.696-16.696
			c0-9.223,7.479-16.696,16.696-16.696h33.391c9.217,0,16.696,7.473,16.696,16.696C150.261,332.005,142.782,339.478,133.565,339.478
			z M116.87,239.304c-46.032,0-83.478-37.446-83.478-83.478c0-46.032,37.446-83.478,83.478-83.478
			c46.032,0,83.478,37.446,83.478,83.478C200.348,201.858,162.902,239.304,116.87,239.304z M267.13,306.087h-33.391V205.913h33.391
			V306.087z M428.522,239.304h-77.913c-9.217,0-16.696-7.473-16.696-16.696s7.479-16.696,16.696-16.696h77.913
			c9.217,0,16.696,7.473,16.696,16.696S437.739,239.304,428.522,239.304z"/>
	</g>
</g>
<g>
	<g>
		<circle cx="116.87" cy="155.826" r="50.087"/>
	</g>
</g>
<g>
</g>
<g>
</g>
<g>
</g>
<g>
</g>
<g>
</g>
<g>
</g>
<g>
</g>
<g>
</g>
<g>
</g>
<g>
</g>
<g>
</g>
<g>
</g>
<g>
</g>
<g>
</g>
<g>
</g>
</svg>
