<?xml version="1.0" encoding="iso-8859-1"?>
<!-- Generator: Adobe Illustrator 19.0.0, SVG Export Plug-In . SVG Version: 6.00 Build 0)  -->
<svg version="1.1" id="Layer_1" xmlns="http://www.w3.org/2000/svg" xmlns:xlink="http://www.w3.org/1999/xlink" x="0px" y="0px"
	 viewBox="0 0 512 512" style="enable-background:new 0 0 512 512;" xml:space="preserve">
<g>
	<g>
		<path d="M495.304,406.261c-9.217,0-16.696,7.479-16.696,16.696c0,9.206-7.49,16.696-16.696,16.696h-61.217v-33.391
			c56.455,0,89.043-40.523,89.043-83.478v-33.391c0-64.445-52.424-116.87-116.87-116.87c-57.791,0-230.901,0-288.489,0L73.533,140
			c-6.826-20.489-25.914-34.261-47.511-34.261h-9.326C7.479,105.739,0,113.218,0,122.435v100.174
			c0,27.619,22.468,50.087,50.087,50.087H167.88c6.431,57.943,46.017,105.924,99.25,124.827v42.13h-116.87
			c-9.217,0-16.696,7.479-16.696,16.696c0,9.217,7.479,16.696,16.696,16.696h311.652c27.619,0,50.087-22.468,50.087-50.087
			C512,413.739,504.521,406.261,495.304,406.261z M367.304,439.652h-66.783v-34.407c5.492,0.611,11.044,1.016,16.696,1.016h50.087
			V439.652z M384,239.304c-9.217,0-16.696,7.479-16.696,16.696v47.01c-19.391-6.914-33.391-25.273-33.391-47.01v-50.087h38.957
			c46.032,0,83.478,37.446,83.478,83.478v16.696h-55.652V256C400.696,246.783,393.217,239.304,384,239.304z"/>
	</g>
</g>
<g>
	<g>
		<path d="M450.783,38.957H116.87c-9.217,0-16.696,7.479-16.696,16.696c0,9.217,7.479,16.696,16.696,16.696h149.217v33.391h-15.652
			c-9.217,0-16.696,7.479-16.696,16.696v16.696h100.174v-16.696c0-9.217-7.479-16.696-16.696-16.696h-17.851V72.348h151.416
			c9.217,0,16.696-7.479,16.696-16.696C467.478,46.435,460,38.957,450.783,38.957z"/>
	</g>
</g>
<g>
</g>
<g>
</g>
<g>
</g>
<g>
</g>
<g>
</g>
<g>
</g>
<g>
</g>
<g>
</g>
<g>
</g>
<g>
</g>
<g>
</g>
<g>
</g>
<g>
</g>
<g>
</g>
<g>
</g>
</svg>
