<?xml version="1.0" encoding="iso-8859-1"?>
<!-- Generator: Adobe Illustrator 19.0.0, SVG Export Plug-In . SVG Version: 6.00 Build 0)  -->
<svg version="1.1" id="Layer_1" xmlns="http://www.w3.org/2000/svg" xmlns:xlink="http://www.w3.org/1999/xlink" x="0px" y="0px"
	 viewBox="0 0 512.003 512.003" style="enable-background:new 0 0 512.003 512.003;" xml:space="preserve">
<g>
	<g>
		<path d="M222.61,11.127H55.652c-27.62,0-50.087,22.468-50.087,50.087v434.09c0,9.223,7.479,16.696,16.696,16.696h50.087V411.825
			c0-36.826,29.957-66.783,66.783-66.783c36.826,0,66.783,29.957,66.783,66.783V512h50.087c9.217,0,16.696-7.473,16.696-16.696
			V61.214C272.697,33.595,250.229,11.127,222.61,11.127z M72.348,94.606c0-9.223,7.479-16.696,16.696-16.696
			c9.217,0,16.696,7.473,16.696,16.696v33.392c0,9.223-7.479,16.696-16.696,16.696c-9.217,0-16.696-7.473-16.696-16.696V94.606z
			 M72.348,194.781c0-9.223,7.479-16.696,16.696-16.696c9.217,0,16.696,7.473,16.696,16.696v33.392
			c0,9.223-7.479,16.696-16.696,16.696c-9.217,0-16.696-7.473-16.696-16.696V194.781z M189.218,311.651H89.043
			c-9.217,0-16.696-7.473-16.696-16.696c0-9.223,7.477-16.696,16.696-16.696h100.174c9.217,0,16.696,7.473,16.696,16.696
			C205.914,304.178,198.435,311.651,189.218,311.651z M205.914,228.172c0,9.223-7.479,16.696-16.696,16.696
			c-9.217,0-16.696-7.473-16.696-16.696v-33.392c0-9.223,7.479-16.696,16.696-16.696c9.217,0,16.696,7.473,16.696,16.696V228.172z
			 M205.914,127.997c0,9.223-7.479,16.696-16.696,16.696c-9.217,0-16.696-7.473-16.696-16.696V94.606
			c0-9.223,7.479-16.696,16.696-16.696c9.217,0,16.696,7.473,16.696,16.696V127.997z"/>
	</g>
</g>
<g>
	<g>
		<path d="M139.131,378.434c-18.413,0-33.392,14.978-33.392,33.392V512h66.783V411.825
			C172.522,393.412,157.544,378.434,139.131,378.434z"/>
	</g>
</g>
<g>
	<g>
		<rect x="372.873" y="311.654" width="66.783" height="33.392"/>
	</g>
</g>
<g>
	<g>
		<rect x="372.873" y="445.22" width="66.783" height="66.783"/>
	</g>
</g>
<g>
	<g>
		<path d="M456.35,211.476h-16.696v-61.252c1.356-1.214,2.753-2.36,4.055-3.661c0-0.006,0-0.006,0-0.006
			c39.055-39.06,39.055-102.61,0-141.669c-6.518-6.518-17.091-6.518-23.609,0l-48.42,48.418l-10.613-10.613
			c-6.521-6.521-17.088-6.521-23.609,0c-6.521,6.516-6.521,17.092,0,23.609l10.613,10.613l-46.037,46.035
			c-6.531,6.531-6.505,17.11,0,23.614c19.533,19.522,45.185,29.283,70.838,29.283c11.316,0,22.601-2.013,33.392-5.812v41.443H306.09
			v300.524h33.391v-83.479c0-9.223,7.479-16.696,16.696-16.696h100.175c9.217,0,16.696,7.473,16.696,16.696v83.479h16.696
			c9.217,0,16.696-7.473,16.696-16.696V261.566C506.437,233.944,483.969,211.476,456.35,211.476z M473.046,361.738
			c0,9.223-7.479,16.696-16.696,16.696H356.176c-9.217,0-16.696-7.473-16.696-16.696v-66.783c0-9.223,7.479-16.696,16.696-16.696
			H456.35c9.217,0,16.696,7.473,16.696,16.696V361.738z"/>
	</g>
</g>
<g>
</g>
<g>
</g>
<g>
</g>
<g>
</g>
<g>
</g>
<g>
</g>
<g>
</g>
<g>
</g>
<g>
</g>
<g>
</g>
<g>
</g>
<g>
</g>
<g>
</g>
<g>
</g>
<g>
</g>
</svg>
