<?xml version="1.0" encoding="iso-8859-1"?>
<!-- Generator: Adobe Illustrator 19.0.0, SVG Export Plug-In . SVG Version: 6.00 Build 0)  -->
<svg version="1.1" id="Layer_1" xmlns="http://www.w3.org/2000/svg" xmlns:xlink="http://www.w3.org/1999/xlink" x="0px" y="0px"
	 viewBox="0 0 512 512" style="enable-background:new 0 0 512 512;" xml:space="preserve">
<g>
	<g>
		<path d="M166.957,289.391c0-11.548,1.627-22.696,4.395-33.391H0v100.174h185.028C173.607,336.501,166.957,313.731,166.957,289.391
			z"/>
	</g>
</g>
<g>
	<g>
		<path d="M429.692,256c2.768,10.695,4.395,21.844,4.395,33.391c0,24.34-6.65,47.11-18.071,66.783H512V256H429.692z"/>
	</g>
</g>
<g>
	<g>
		<path d="M300.522,256c-18.413,0-33.391,14.978-33.391,33.391s14.978,33.391,33.391,33.391s33.391-14.978,33.391-33.391
			S318.935,256,300.522,256z"/>
	</g>
</g>
<g>
	<g>
		<path d="M300.522,189.217c-55.239,0-100.174,44.94-100.174,100.174s44.935,100.174,100.174,100.174
			c55.239,0,100.174-44.94,100.174-100.174S355.761,189.217,300.522,189.217z M300.522,356.174
			c-36.826,0-66.783-29.956-66.783-66.783s29.956-66.783,66.783-66.783c36.826,0,66.783,29.956,66.783,66.783
			S337.348,356.174,300.522,356.174z"/>
	</g>
</g>
<g>
	<g>
		<path d="M428.522,89.044H83.478C37.446,89.044,0,126.49,0,172.522v50.087h185.028c23.137-39.854,66.184-66.783,115.494-66.783
			s92.357,26.929,115.494,66.783H512v-50.087C512,126.49,474.554,89.044,428.522,89.044z M83.478,189.217
			c-9.22,0-16.696-7.475-16.696-16.696s7.475-16.696,16.696-16.696s16.696,7.475,16.696,16.696S92.699,189.217,83.478,189.217z"/>
	</g>
</g>
<g>
	<g>
		<path d="M388.572,389.565c-23.535,20.714-54.305,33.391-88.051,33.391s-64.515-12.678-88.051-33.391H0v16.696
			c0,46.032,37.446,83.478,83.478,83.478h345.043c46.032,0,83.478-37.446,83.478-83.478v-16.696H388.572z"/>
	</g>
</g>
<g>
	<g>
		<path d="M116.87,22.261c-21.737,0-40.096,14-47.01,33.391h94.02C156.966,36.261,138.606,22.261,116.87,22.261z"/>
	</g>
</g>
<g>
	<g>
		<path d="M419.293,49.951c-8.533-17.082-25.707-27.69-44.804-27.69h-92.282c-19.098,0-36.272,10.608-44.804,27.685l-2.853,5.707
			h187.595L419.293,49.951z"/>
	</g>
</g>
<g>
</g>
<g>
</g>
<g>
</g>
<g>
</g>
<g>
</g>
<g>
</g>
<g>
</g>
<g>
</g>
<g>
</g>
<g>
</g>
<g>
</g>
<g>
</g>
<g>
</g>
<g>
</g>
<g>
</g>
</svg>
