<?xml version="1.0" encoding="iso-8859-1"?>
<!-- Generator: Adobe Illustrator 19.0.0, SVG Export Plug-In . SVG Version: 6.00 Build 0)  -->
<svg version="1.1" id="Layer_1" xmlns="http://www.w3.org/2000/svg" xmlns:xlink="http://www.w3.org/1999/xlink" x="0px" y="0px"
	 viewBox="0 0 512 512" style="enable-background:new 0 0 512 512;" xml:space="preserve">
<g>
	<g>
		<path d="M89.044,411.826v50.087c0,27.619,22.468,50.087,50.087,50.087H372.87c27.619,0,50.087-22.468,50.087-50.087v-50.087
			H89.044z M272.696,478.609h-33.391c-9.22,0-16.696-7.475-16.696-16.696s7.475-16.696,16.696-16.696h33.391
			c9.22,0,16.696,7.475,16.696,16.696S281.916,478.609,272.696,478.609z"/>
	</g>
</g>
<g>
	<g>
		<path d="M372.87,0H139.13c-27.619,0-50.087,22.468-50.087,50.087v16.696h333.913V50.087C422.957,22.468,400.489,0,372.87,0z"/>
	</g>
</g>
<g>
	<g>
		<path d="M89.044,100.174v278.261h333.913V100.174H89.044z M155.826,150.261c0-9.22,7.475-16.696,16.696-16.696h66.783
			c9.22,0,16.696,7.475,16.696,16.696v66.783c0,9.22-7.475,16.696-16.696,16.696h-66.783c-9.22,0-16.696-7.475-16.696-16.696
			V150.261z M339.478,311.652H172.522c-9.22,0-16.696-7.475-16.696-16.696s7.475-16.696,16.696-16.696h166.957
			c9.22,0,16.696,7.475,16.696,16.696S348.699,311.652,339.478,311.652z M339.478,233.739h-33.391
			c-9.22,0-16.696-7.475-16.696-16.696c0-9.22,7.475-16.696,16.696-16.696h33.391c9.22,0,16.696,7.475,16.696,16.696
			C356.174,226.264,348.699,233.739,339.478,233.739z M339.478,166.957h-33.391c-9.22,0-16.696-7.475-16.696-16.696
			s7.475-16.696,16.696-16.696h33.391c9.22,0,16.696,7.475,16.696,16.696S348.699,166.957,339.478,166.957z"/>
	</g>
</g>
<g>
	<g>
		<rect x="189.217" y="166.957" width="33.391" height="33.391"/>
	</g>
</g>
<g>
</g>
<g>
</g>
<g>
</g>
<g>
</g>
<g>
</g>
<g>
</g>
<g>
</g>
<g>
</g>
<g>
</g>
<g>
</g>
<g>
</g>
<g>
</g>
<g>
</g>
<g>
</g>
<g>
</g>
</svg>
