<?xml version="1.0" encoding="iso-8859-1"?>
<!-- Generator: Adobe Illustrator 19.0.0, SVG Export Plug-In . SVG Version: 6.00 Build 0)  -->
<svg version="1.1" id="Layer_1" xmlns="http://www.w3.org/2000/svg" xmlns:xlink="http://www.w3.org/1999/xlink" x="0px" y="0px"
	 viewBox="0 0 512 512" style="enable-background:new 0 0 512 512;" xml:space="preserve">
<g>
	<g>
		<path d="M439.119,145.033c-1.141-37.218-15.5-71.869-41.076-98.62C369.826,16.924,330.228,0,289.391,0
			c-33.465,0-64.376,11.044-89.377,29.615C178.616,10.519,151.422,0,122.435,0C57.99,0,5.565,52.424,5.565,116.87
			c0,24.07,7.47,47.288,21.088,66.794c-13.25,18.948-21.088,41.945-21.088,66.771c0,64.445,52.424,116.87,116.87,116.87h16.696V384
			c0,9.217,7.479,16.696,16.696,16.696c9.217,0,16.696-7.479,16.696-16.696v-16.696h33.391v38.957
			c0,9.217,7.479,16.696,16.696,16.696s16.696-7.479,16.696-16.696v-38.957h33.391V384c0,9.217,7.479,16.696,16.696,16.696
			s16.696-7.479,16.696-16.696v-16.696h33.391v38.957c0,9.217,7.479,16.696,16.696,16.696c9.217,0,16.696-7.479,16.696-16.696
			v-38.957h16.696c64.445,0,116.87-52.424,116.87-116.87C506.435,205.098,479.837,164.13,439.119,145.033z M139.903,135.021
			c-5.881-0.967-11.707-1.456-17.468-1.456c-27.248,0-52.289,9.448-72.185,25.138c-7.319-12.616-11.293-26.996-11.293-41.834
			c0-46.032,37.446-83.478,83.478-83.478c19.665,0,38.209,6.745,53.121,19.107C156.045,75.183,143.073,103.645,139.903,135.021z"/>
	</g>
</g>
<g>
	<g>
		<path d="M155.826,434.087c-9.217,0-16.696,7.479-16.696,16.696v44.522c0,9.217,7.479,16.696,16.696,16.696
			c9.217,0,16.696-7.479,16.696-16.696v-44.522C172.522,441.565,165.043,434.087,155.826,434.087z"/>
	</g>
</g>
<g>
	<g>
		<path d="M289.391,434.087c-9.217,0-16.696,7.479-16.696,16.696v44.522c0,9.217,7.479,16.696,16.696,16.696
			s16.696-7.479,16.696-16.696v-44.522C306.087,441.565,298.608,434.087,289.391,434.087z"/>
	</g>
</g>
<g>
	<g>
		<path d="M222.609,456.348c-9.217,0-16.696,7.479-16.696,16.696v22.261c0,9.217,7.479,16.696,16.696,16.696
			s16.696-7.479,16.696-16.696v-22.261C239.304,463.826,231.826,456.348,222.609,456.348z"/>
	</g>
</g>
<g>
	<g>
		<path d="M356.174,456.348c-9.217,0-16.696,7.479-16.696,16.696v22.261c0,9.217,7.479,16.696,16.696,16.696
			c9.217,0,16.696-7.479,16.696-16.696v-22.261C372.87,463.826,365.391,456.348,356.174,456.348z"/>
	</g>
</g>
<g>
</g>
<g>
</g>
<g>
</g>
<g>
</g>
<g>
</g>
<g>
</g>
<g>
</g>
<g>
</g>
<g>
</g>
<g>
</g>
<g>
</g>
<g>
</g>
<g>
</g>
<g>
</g>
<g>
</g>
</svg>
