<?xml version="1.0" encoding="iso-8859-1"?>
<!-- Generator: Adobe Illustrator 19.0.0, SVG Export Plug-In . SVG Version: 6.00 Build 0)  -->
<svg version="1.1" id="Layer_1" xmlns="http://www.w3.org/2000/svg" xmlns:xlink="http://www.w3.org/1999/xlink" x="0px" y="0px"
	 viewBox="0 0 512 512" style="enable-background:new 0 0 512 512;" xml:space="preserve">
<g>
	<g>
		<path d="M495.304,406.261H386.489c-6.914-19.391-25.273-33.391-47.01-33.391s-40.096,14-47.01,33.391H16.696
			C7.479,406.261,0,413.739,0,422.957c0,9.217,7.479,16.696,16.696,16.696h275.772c6.914,19.391,25.273,33.391,47.01,33.391
			s40.096-14,47.01-33.391h108.816c9.217,0,16.696-7.479,16.696-16.696C512,413.739,504.521,406.261,495.304,406.261z"/>
	</g>
</g>
<g>
	<g>
		<path d="M461.913,38.957H50.087C22.468,38.957,0,61.424,0,89.044v200.348c0,27.619,22.468,50.087,50.087,50.087h411.826
			c27.619,0,50.087-22.468,50.087-50.087V89.044C512,61.424,489.532,38.957,461.913,38.957z M332.043,203.108l-100.174,66.783
			c-11.086,7.377-25.956-0.56-25.956-13.891V122.435c0-13.291,14.844-21.277,25.956-13.891l100.174,66.783
			C341.936,181.929,341.936,196.506,332.043,203.108z"/>
	</g>
</g>
<g>
</g>
<g>
</g>
<g>
</g>
<g>
</g>
<g>
</g>
<g>
</g>
<g>
</g>
<g>
</g>
<g>
</g>
<g>
</g>
<g>
</g>
<g>
</g>
<g>
</g>
<g>
</g>
<g>
</g>
</svg>
