<?xml version="1.0" encoding="iso-8859-1"?>
<!-- Generator: Adobe Illustrator 19.0.0, SVG Export Plug-In . SVG Version: 6.00 Build 0)  -->
<svg version="1.1" id="Layer_1" xmlns="http://www.w3.org/2000/svg" xmlns:xlink="http://www.w3.org/1999/xlink" x="0px" y="0px"
	 viewBox="0 0 512 512" style="enable-background:new 0 0 512 512;" xml:space="preserve">
<g>
	<g>
		<path d="M488.728,151.608l-74.767,32.043h-46.656c0-27.619-22.468-50.087-50.087-50.087H157.176l61.9-61.896
			c3.098-3.103,7.402-4.886,11.794-4.886h39.337c6.914,19.391,25.273,33.391,47.01,33.391h133.565
			c27.619,0,50.087-22.468,50.087-50.087S478.402,0,450.782,0H317.217c-21.737,0-40.096,14-47.01,33.391H230.87
			c-13.185,0-26.097,5.348-35.412,14.674l-79.638,79.638l-7.654-22.964c-7.566-22.707-28.729-37.957-52.654-37.957
			c-30.609,0-55.511,24.902-55.511,55.505V267.13H116.87c9.217,0,16.696,7.473,16.696,16.696c0,9.223-7.479,16.696-16.696,16.696
			H0.001v16.696c0,27.619,22.468,50.087,50.087,50.087h101.697L69.75,485.798c-5.25,7.582-3.359,17.983,4.228,23.234
			c7.554,5.239,17.978,3.359,23.228-4.223l69.75-100.752v91.247c0,9.223,7.479,16.696,16.696,16.696s16.696-7.473,16.696-16.696
			v-91.247l69.75,100.752c5.265,7.605,15.689,9.452,23.228,4.223c7.587-5.25,9.479-15.653,4.228-23.234L215.52,367.304h101.697
			c27.619,0,50.087-22.468,50.087-50.087h46.655c5.141,2.203,75.774,33.391,81.344,33.391c9.223,0,16.696-7.473,16.696-16.696
			V166.956C511.999,154.999,499.785,146.907,488.728,151.608z M217.044,233.739c-9.22,0-16.696-7.475-16.696-16.696
			c0-9.22,7.475-16.696,16.696-16.696c9.22,0,16.696,7.475,16.696,16.696C233.739,226.263,226.265,233.739,217.044,233.739z
			 M283.826,233.739c-9.22,0-16.696-7.475-16.696-16.696c0-9.22,7.475-16.696,16.696-16.696c9.22,0,16.696,7.475,16.696,16.696
			C300.522,226.263,293.048,233.739,283.826,233.739z M400.695,283.825h-33.391v-66.782h33.391V283.825z"/>
	</g>
</g>
<g>
</g>
<g>
</g>
<g>
</g>
<g>
</g>
<g>
</g>
<g>
</g>
<g>
</g>
<g>
</g>
<g>
</g>
<g>
</g>
<g>
</g>
<g>
</g>
<g>
</g>
<g>
</g>
<g>
</g>
</svg>
