<?xml version="1.0" encoding="iso-8859-1"?>
<!-- Generator: Adobe Illustrator 19.0.0, SVG Export Plug-In . SVG Version: 6.00 Build 0)  -->
<svg version="1.1" id="Layer_1" xmlns="http://www.w3.org/2000/svg" xmlns:xlink="http://www.w3.org/1999/xlink" x="0px" y="0px"
	 viewBox="0 0 512.002 512.002" style="enable-background:new 0 0 512.002 512.002;" xml:space="preserve">
<g>
	<g>
		<path d="M461.913,144.699H337.796c-2.963-14.542-9.776-27.663-19.241-38.398l61.913-79.331c5.674-7.266,4.381-17.761-2.892-23.435
			c-7.271-5.669-17.761-4.391-23.435,2.892l-62.222,79.726c-10.898-5.225-23.048-8.238-35.919-8.238s-25.021,3.013-35.919,8.238
			L157.86,6.429c-5.674-7.266-16.152-8.565-23.435-2.892c-7.271,5.674-8.565,16.168-2.892,23.435l61.913,79.331
			c-9.465,10.734-16.278,23.856-19.241,38.398H50.089c-27.619,0-50.087,22.468-50.087,50.087v267.129
			c0,27.619,22.468,50.087,50.087,50.087h411.823c27.619,0,50.087-22.468,50.087-50.087V194.787
			C512,167.167,489.532,144.699,461.913,144.699z M411.826,244.873c9.22,0,16.695,7.475,16.695,16.696
			c0,9.22-7.475,16.695-16.695,16.695s-16.696-7.475-16.696-16.695C395.131,252.348,402.605,244.873,411.826,244.873z
			 M411.826,311.655c9.22,0,16.695,7.475,16.695,16.696c0,9.22-7.475,16.695-16.695,16.695s-16.696-7.475-16.696-16.695
			C395.131,319.13,402.605,311.655,411.826,311.655z M256.001,111.308c21.772,0,40.336,13.956,47.228,33.391h-94.457
			C215.664,125.265,234.229,111.308,256.001,111.308z M345.044,395.132c0,27.619-22.468,50.087-50.087,50.087H116.872
			c-27.619,0-50.087-22.468-50.087-50.087V261.568c0-27.619,22.468-50.087,50.087-50.087h178.086
			c27.619,0,50.087,22.468,50.087,50.087V395.132z M428.522,411.828h-33.391c-9.217,0-16.696-7.473-16.696-16.695
			c0-9.223,7.479-16.696,16.696-16.696h33.391c9.217,0,16.696,7.473,16.696,16.696C445.217,404.355,437.739,411.828,428.522,411.828
			z"/>
	</g>
</g>
<g>
</g>
<g>
</g>
<g>
</g>
<g>
</g>
<g>
</g>
<g>
</g>
<g>
</g>
<g>
</g>
<g>
</g>
<g>
</g>
<g>
</g>
<g>
</g>
<g>
</g>
<g>
</g>
<g>
</g>
</svg>
