<?xml version="1.0" encoding="iso-8859-1"?>
<!-- Generator: Adobe Illustrator 19.0.0, SVG Export Plug-In . SVG Version: 6.00 Build 0)  -->
<svg version="1.1" id="Layer_1" xmlns="http://www.w3.org/2000/svg" xmlns:xlink="http://www.w3.org/1999/xlink" x="0px" y="0px"
	 viewBox="0 0 512 512" style="enable-background:new 0 0 512 512;" xml:space="preserve">
<g>
	<g>
		<path d="M401.497,95.155c6.529,3.124,13.75,5.019,21.459,5.019c27.619,0,50.087-22.468,50.087-50.087
			C473.043,22.468,450.576,0,422.957,0c-27.619,0-50.087,22.468-50.087,50.087c0,7.709,1.894,14.93,5.019,21.459l-28.628,28.628
			H229.522l-46.38-46.381c-6.521-6.521-17.087-6.521-23.609,0c-56.509,56.509-68.949,141.815-34.822,210.992
			c8.648-36.872,41.729-64.437,81.202-64.437c46.032,0,83.478,37.446,83.478,83.478v83.493c0.043,0,0.087,0.007,0.13,0.007
			c48.223,0,94.886-18.967,129.729-53.816c6.521-6.521,6.521-17.087,0-23.609l-46.381-46.379V123.783L401.497,95.155z
			 M289.391,160.043l-26.478-26.478h52.956L289.391,160.043z M339.478,210.13L313,183.652l26.478-26.478V210.13z"/>
	</g>
</g>
<g>
	<g>
		<path d="M322.783,411.826H256v-128c0-27.619-22.468-50.087-50.087-50.087c-27.619,0-50.087,22.468-50.087,50.087v128H89.044
			c-27.619,0-50.087,22.468-50.087,50.087v33.391c0,9.217,7.473,16.696,16.696,16.696h300.522c9.223,0,16.696-7.479,16.696-16.696
			v-33.391C372.87,434.294,350.402,411.826,322.783,411.826z"/>
	</g>
</g>
<g>
</g>
<g>
</g>
<g>
</g>
<g>
</g>
<g>
</g>
<g>
</g>
<g>
</g>
<g>
</g>
<g>
</g>
<g>
</g>
<g>
</g>
<g>
</g>
<g>
</g>
<g>
</g>
<g>
</g>
</svg>
