<?xml version="1.0" encoding="iso-8859-1"?>
<!-- Generator: Adobe Illustrator 19.0.0, SVG Export Plug-In . SVG Version: 6.00 Build 0)  -->
<svg version="1.1" id="Layer_1" xmlns="http://www.w3.org/2000/svg" xmlns:xlink="http://www.w3.org/1999/xlink" x="0px" y="0px"
	 viewBox="0 0 511.999 511.999" style="enable-background:new 0 0 511.999 511.999;" xml:space="preserve">
<g>
	<g>
		<rect x="345.042" y="205.912" width="66.782" height="66.782"/>
	</g>
</g>
<g>
	<g>
		<rect x="100.173" y="205.912" width="211.477" height="66.782"/>
	</g>
</g>
<g>
	<g>
		<path d="M395.129,372.868c-9.206,0-16.696,7.49-16.696,16.696s7.49,16.696,16.696,16.696s16.696-7.49,16.696-16.696
			S404.335,372.868,395.129,372.868z"/>
	</g>
</g>
<g>
	<g>
		<path d="M461.911,105.739H100.173v-34.69L496.65,38.902c9.196-0.745,16.043-8.799,15.293-17.989
			c-0.739-9.19-8.945-16.022-17.989-15.293L82.13,39.011c-8.668,0.701-15.348,7.946-15.348,16.641v50.087H50.087
			C22.468,105.739,0,128.207,0,155.826v300.52c0,27.619,22.468,50.087,50.087,50.087h411.824c27.619,0,50.087-22.468,50.087-50.087
			v-300.52C511.998,128.207,489.53,105.739,461.911,105.739z M294.955,439.65H83.478c-9.223,0-16.696-7.473-16.696-16.696
			s7.473-16.696,16.696-16.696h211.477c9.223,0,16.696,7.473,16.696,16.696S304.178,439.65,294.955,439.65z M294.955,372.868H83.478
			c-9.223,0-16.696-7.473-16.696-16.696s7.473-16.696,16.696-16.696h211.477c9.223,0,16.696,7.473,16.696,16.696
			S304.178,372.868,294.955,372.868z M395.129,439.65c-27.619,0-50.087-22.468-50.087-50.087s22.468-50.087,50.087-50.087
			s50.087,22.468,50.087,50.087S422.748,439.65,395.129,439.65z M445.215,289.39c0,9.223-7.473,16.696-16.696,16.696
			c-109.593,0-244.261,0-345.042,0c-9.223,0-16.696-7.473-16.696-16.696V189.217c0-9.223,7.473-16.696,16.696-16.696
			c159.939,0,188.681,0,345.042,0c9.223,0,16.696,7.473,16.696,16.696V289.39z"/>
	</g>
</g>
<g>
</g>
<g>
</g>
<g>
</g>
<g>
</g>
<g>
</g>
<g>
</g>
<g>
</g>
<g>
</g>
<g>
</g>
<g>
</g>
<g>
</g>
<g>
</g>
<g>
</g>
<g>
</g>
<g>
</g>
</svg>
