<?xml version="1.0" encoding="iso-8859-1"?>
<!-- Generator: Adobe Illustrator 19.0.0, SVG Export Plug-In . SVG Version: 6.00 Build 0)  -->
<svg version="1.1" id="Layer_1" xmlns="http://www.w3.org/2000/svg" xmlns:xlink="http://www.w3.org/1999/xlink" x="0px" y="0px"
	 viewBox="0 0 512 512" style="enable-background:new 0 0 512 512;" xml:space="preserve">
<g>
	<g>
		<path d="M506.435,250.435c0-66.8-26.078-129.661-73.429-177.001l-0.001-0.001c-0.001-0.001-0.001-0.001-0.002-0.002
			c-0.001-0.001-0.001-0.001-0.001-0.001s-0.001,0-0.001-0.001C385.66,26.077,322.8,0,256,0S126.34,26.077,78.999,73.429
			l-0.001,0.001c-0.001,0.001-0.001,0.001-0.002,0.002s-0.001,0.001-0.001,0.001l-0.001,0.001
			c-47.351,47.34-73.429,110.2-73.429,177.001c0,32.193,6.036,63.421,17.919,93.003C11.867,358.093,5.565,376.062,5.565,395.13
			c0,41.173,29.97,75.455,69.234,82.237C81.329,497.444,100.21,512,122.435,512c27.618,0,50.087-22.469,50.087-50.087V328.348
			c0-13.375-5.211-25.952-14.673-35.413c-9.462-9.463-22.038-14.674-35.414-14.674c-4.676,0-9.295,0.679-13.728,1.948
			c-1.968-9.749-2.967-19.704-2.967-29.774c0-40.025,15.614-77.7,43.967-106.103c0.032-0.032,0.068-0.058,0.1-0.09
			c0.031-0.031,0.056-0.065,0.087-0.096c28.403-28.356,66.08-43.972,106.106-43.972c39.986,0,77.626,15.585,106.02,43.886
			c0.059,0.061,0.109,0.127,0.169,0.187c0.061,0.061,0.129,0.112,0.191,0.174c28.298,28.392,43.881,66.03,43.881,106.014
			c0,10.069-1.001,20.026-2.97,29.776c-4.437-1.27-9.053-1.95-13.726-1.95c-13.375,0-25.952,5.211-35.413,14.673
			c-9.463,9.462-14.674,22.038-14.674,35.414v133.565c0,27.618,22.469,50.087,50.087,50.087c22.225,0,41.106-14.556,47.636-34.632
			c39.264-6.782,69.234-41.065,69.234-82.237c0-19.072-6.303-37.038-17.923-51.691C500.398,313.894,506.435,282.665,506.435,250.435
			z M72.348,442.357c-19.435-6.891-33.391-25.46-33.391-47.226c0-21.946,13.974-40.38,33.391-47.233V442.357z M72.348,250.435
			c0,17.616,2.489,34.964,7.407,51.694c-2.076,3.365-3.83,7.23-4.969,10.736c-8.134,1.398-16.548,4.173-24.085,8.083
			c-7.801-22.606-11.745-46.244-11.745-70.514c0-52.296,18.453-101.812,52.287-141.146l23.664,23.666
			C87.349,165.914,72.348,207.041,72.348,250.435z M439.652,442.357v-94.46c6.684,2.356,12.776,6.152,17.813,10.927
			c10.045,9.557,15.578,22.451,15.578,36.306C473.043,416.897,459.087,435.466,439.652,442.357z M461.3,320.949
			c-7.337-3.805-15.651-6.635-24.086-8.085c-1.189-3.664-2.893-7.371-4.97-10.741c4.92-16.732,7.408-34.077,7.408-51.689
			c0-43.394-15.002-84.521-42.561-117.481l23.664-23.666c33.834,39.334,52.287,88.85,52.287,141.146
			C473.043,274.735,469.101,298.37,461.3,320.949z"/>
	</g>
</g>
<g>
	<g>
		<path d="M289.391,411.826h-26.476l38.281-38.282c4.775-4.775,6.203-11.956,3.62-18.195c-2.584-6.239-8.673-10.307-15.425-10.307
			h-66.783c-9.22,0-16.696,7.475-16.696,16.696s7.475,16.696,16.696,16.696h26.476l-38.281,38.282
			c-4.775,4.775-6.203,11.956-3.62,18.195c2.584,6.239,8.673,10.307,15.425,10.307h66.783c9.22,0,16.696-7.475,16.696-16.696
			S298.612,411.826,289.391,411.826z"/>
	</g>
</g>
<g>
</g>
<g>
</g>
<g>
</g>
<g>
</g>
<g>
</g>
<g>
</g>
<g>
</g>
<g>
</g>
<g>
</g>
<g>
</g>
<g>
</g>
<g>
</g>
<g>
</g>
<g>
</g>
<g>
</g>
</svg>
