<?xml version="1.0" encoding="iso-8859-1"?>
<!-- Generator: Adobe Illustrator 19.0.0, SVG Export Plug-In . SVG Version: 6.00 Build 0)  -->
<svg xmlns="http://www.w3.org/2000/svg" xmlns:xlink="http://www.w3.org/1999/xlink" version="1.1" id="Layer_1" x="0px" y="0px" viewBox="0 0 512 512" style="enable-background:new 0 0 512 512;" xml:space="preserve">
<g>
	<g>
		<path d="M421.5,0h-240c-24.813,0-45,20.187-45,45v111c0,8.284,6.716,15,15,15s15-6.716,15-15V45c0-8.271,6.729-15,15-15h240    c8.271,0,15,6.729,15,15v422c0,8.271-6.729,15-15,15h-240c-8.271,0-15-6.729-15-15V356c0-8.284-6.716-15-15-15s-15,6.716-15,15    v111c0,24.813,20.187,45,45,45h240c24.813,0,45-20.187,45-45V45C466.5,20.187,446.313,0,421.5,0z"/>
	</g>
</g>
<g>
	<g>
		<path d="M242.231,241H60.5c-8.284,0-15,6.716-15,15s6.716,15,15,15h181.732c4.915-6.043,8.963-8.346,18.67-15    C251.343,249.448,247.178,247.082,242.231,241z"/>
	</g>
</g>
<g>
	<g>
		<path d="M347.642,243.74l-61.421-43.301c-6.771-4.774-16.128-3.153-20.902,3.617c-4.773,6.771-3.154,16.129,3.617,20.903    L312.967,256l-44.03,31.042c-6.772,4.773-8.391,14.131-3.618,20.902c4.776,6.774,14.135,8.389,20.902,3.617l61.421-43.301    C356.098,262.299,356.121,249.718,347.642,243.74z"/>
	</g>
</g>
<g>
</g>
<g>
</g>
<g>
</g>
<g>
</g>
<g>
</g>
<g>
</g>
<g>
</g>
<g>
</g>
<g>
</g>
<g>
</g>
<g>
</g>
<g>
</g>
<g>
</g>
<g>
</g>
<g>
</g>
</svg>
