<?xml version="1.0" encoding="iso-8859-1"?>
<!-- Generator: Adobe Illustrator 19.0.0, SVG Export Plug-In . SVG Version: 6.00 Build 0)  -->
<svg xmlns="http://www.w3.org/2000/svg" xmlns:xlink="http://www.w3.org/1999/xlink" version="1.1" id="Layer_1" x="0px" y="0px" viewBox="0 0 511.999 511.999" style="enable-background:new 0 0 511.999 511.999;" xml:space="preserve">
<g>
	<g>
		<path d="M353.511,220.888h-12.86v-35.236c0-46.677-37.975-84.651-84.651-84.651s-84.651,37.975-84.651,84.651v35.236h-12.86    c-8.284,0-15,6.716-15,15v62.599c0,62.039,50.473,112.511,112.511,112.511s112.511-50.471,112.511-112.511v-62.599    C368.511,227.604,361.796,220.888,353.511,220.888z M256,354.276c-21.137,0-38.334-17.196-38.334-38.333    s17.196-38.333,38.334-38.333s38.333,17.196,38.333,38.333S277.137,354.276,256,354.276z M310.651,220.888H201.348v-35.236    c0-30.135,24.517-54.651,54.651-54.651s54.652,24.517,54.652,54.651V220.888z"/>
	</g>
</g>
<g>
	<g>
		<path d="M504.767,207.773c-6.143-3.72-13.886-2.506-18.635,2.497C465.171,103.626,370.977,21.435,256,21.435    c-128.174,0-232.246,102.557-234.513,230.292l-19.316,31.9c-4.291,7.086-2.025,16.31,5.062,20.601    c6.148,3.722,13.883,2.51,18.635-2.494C46.83,408.372,141.024,490.565,256,490.565c128.174,0,232.246-102.557,234.513-230.292    l19.316-31.9C514.119,221.287,511.853,212.064,504.767,207.773z M256,460.565c-98.886,0-181.604-70.53-200.505-163.925    c5.853,5.241,14.842,5.104,20.515-0.486c5.9-5.815,5.969-15.312,0.154-21.212l-24.633-24.993    C54.744,139.94,145.227,51.435,256,51.435c98.886,0,181.604,70.53,200.505,163.925c-5.854-5.242-14.843-5.105-20.515,0.486    c-5.9,5.815-5.969,15.312-0.154,21.212l24.633,24.993C457.256,372.06,366.773,460.565,256,460.565z"/>
	</g>
</g>
<g>
</g>
<g>
</g>
<g>
</g>
<g>
</g>
<g>
</g>
<g>
</g>
<g>
</g>
<g>
</g>
<g>
</g>
<g>
</g>
<g>
</g>
<g>
</g>
<g>
</g>
<g>
</g>
<g>
</g>
</svg>
