<?xml version="1.0" encoding="iso-8859-1"?>
<!-- Generator: Adobe Illustrator 19.0.0, SVG Export Plug-In . SVG Version: 6.00 Build 0)  -->
<svg xmlns="http://www.w3.org/2000/svg" xmlns:xlink="http://www.w3.org/1999/xlink" version="1.1" id="Layer_1" x="0px" y="0px" viewBox="0 0 512 512" style="enable-background:new 0 0 512 512;" xml:space="preserve">
<g>
	<g>
		<path d="M437.254,197.945L267.252,5.079c-5.967-6.772-16.537-6.771-22.505,0L74.746,197.945c-2.415,2.74-3.747,6.266-3.747,9.918    V497c0,8.284,6.716,15,15,15h340.002c8.284,0,15-6.716,15-15V207.863C441.002,204.211,439.669,200.685,437.254,197.945z     M271.001,373.335v51.096c0,8.284-6.716,15-15,15s-15-6.716-15-15v-51.096c-23.057-6.547-40-27.777-40-52.904    c0-30.327,24.673-55,55-55s55,24.673,55,55C311.001,345.559,294.057,366.788,271.001,373.335z"/>
	</g>
</g>
<g>
</g>
<g>
</g>
<g>
</g>
<g>
</g>
<g>
</g>
<g>
</g>
<g>
</g>
<g>
</g>
<g>
</g>
<g>
</g>
<g>
</g>
<g>
</g>
<g>
</g>
<g>
</g>
<g>
</g>
</svg>
