<?xml version="1.0" encoding="iso-8859-1"?>
<!-- Generator: Adobe Illustrator 19.0.0, SVG Export Plug-In . SVG Version: 6.00 Build 0)  -->
<svg xmlns="http://www.w3.org/2000/svg" xmlns:xlink="http://www.w3.org/1999/xlink" version="1.1" id="Layer_1" x="0px" y="0px" viewBox="0 0 511.999 511.999" style="enable-background:new 0 0 511.999 511.999;" xml:space="preserve">
<g>
	<g>
		<path d="M308.313,305.904v-11.919c0-28.846-23.468-52.313-52.313-52.313s-52.313,23.468-52.313,52.313v11.919    c-8.25,0.04-14.927,6.737-14.927,14.996v85.77c0,8.284,6.716,15,15,15h104.48c8.284,0,15-6.716,15-15v-85.77    C323.24,312.641,316.563,305.943,308.313,305.904z M278.313,305.899h-44.627v-11.915c0.001-12.303,10.01-22.313,22.314-22.313    s22.313,10.01,22.313,22.313V305.899z"/>
	</g>
</g>
<g>
	<g>
		<path d="M394.93,144.68c-15.017,0-29.898,2.901-43.741,8.47c-25.562-39.083-68.923-62.82-116.319-62.82    c-71.604,0-130.741,54.406-138.246,124.05H82.22C36.884,214.38,0,251.263,0,296.609c0,45.336,36.884,82.22,82.22,82.22h76.54    v-57.93c0-13.364,5.886-25.409,15.201-33.666c3.443-42.243,38.923-75.563,82.039-75.563s78.596,33.319,82.039,75.563    c9.315,8.257,15.201,20.302,15.201,33.666v57.93h41.689c64.553,0,117.07-52.521,117.07-117.08    C512,197.197,459.482,144.68,394.93,144.68z"/>
	</g>
</g>
<g>
</g>
<g>
</g>
<g>
</g>
<g>
</g>
<g>
</g>
<g>
</g>
<g>
</g>
<g>
</g>
<g>
</g>
<g>
</g>
<g>
</g>
<g>
</g>
<g>
</g>
<g>
</g>
<g>
</g>
</svg>
