<?xml version="1.0" encoding="iso-8859-1"?>
<!-- Generator: Adobe Illustrator 19.0.0, SVG Export Plug-In . SVG Version: 6.00 Build 0)  -->
<svg xmlns="http://www.w3.org/2000/svg" xmlns:xlink="http://www.w3.org/1999/xlink" version="1.1" id="Layer_1" x="0px" y="0px" viewBox="0 0 512 512" style="enable-background:new 0 0 512 512;" xml:space="preserve">
<g>
	<g>
		<path d="M256,196c-12.304,0-22.313,10.01-22.313,22.313v11.912h44.627v-11.912C278.313,206.01,268.304,196,256,196z"/>
	</g>
</g>
<g>
	<g>
		<path d="M467,101H45c-24.813,0-45,20.187-45,45v220c0,24.813,20.187,45,45,45h422c24.813,0,45-20.187,45-45V146    C512,121.187,491.813,101,467,101z M139.38,271h-60c-8.284,0-15-6.716-15-15s6.716-15,15-15h60c8.284,0,15,6.716,15,15    S147.665,271,139.38,271z M308.239,346H203.761c-8.284,0-15-6.716-15-15v-85.774c0-8.259,6.676-14.956,14.925-14.996v-11.916    C203.687,189.468,227.154,166,256,166s52.313,23.468,52.313,52.313v11.916c8.249,0.041,14.925,6.737,14.925,14.996V331h0.001    C323.239,339.284,316.523,346,308.239,346z M432.62,271h-60c-8.284,0-15-6.716-15-15s6.716-15,15-15h60c8.284,0,15,6.716,15,15    S440.904,271,432.62,271z"/>
	</g>
</g>
<g>
</g>
<g>
</g>
<g>
</g>
<g>
</g>
<g>
</g>
<g>
</g>
<g>
</g>
<g>
</g>
<g>
</g>
<g>
</g>
<g>
</g>
<g>
</g>
<g>
</g>
<g>
</g>
<g>
</g>
</svg>
