<?xml version="1.0" encoding="iso-8859-1"?>
<!-- Generator: Adobe Illustrator 19.0.0, SVG Export Plug-In . SVG Version: 6.00 Build 0)  -->
<svg xmlns="http://www.w3.org/2000/svg" xmlns:xlink="http://www.w3.org/1999/xlink" version="1.1" id="Layer_1" x="0px" y="0px" viewBox="0 0 512 512" style="enable-background:new 0 0 512 512;" xml:space="preserve">
<g>
	<g>
		<path d="M487.256,254.671L267.254,5.078c-5.968-6.771-16.538-6.772-22.506,0.001c-5.44,6.172-211.543,239.996-220.001,249.591    c-8.529,9.676-1.619,24.919,11.252,24.919h35V497c0,8.284,6.716,15,15,15h340.004c8.284,0,15-6.716,15-15V279.59h35    C488.902,279.59,495.768,264.328,487.256,254.671z M296.004,439.433h-80.001c-10.176,0-17.394-9.935-14.276-19.604l18.56-57.548    c-12.125-10.3-19.284-25.437-19.284-41.848c0-30.327,24.673-55,55-55s55,24.673,55,55c0,16.411-7.159,31.548-19.284,41.848    l18.56,57.548C313.403,429.512,306.163,439.433,296.004,439.433z"/>
	</g>
</g>
<g>
</g>
<g>
</g>
<g>
</g>
<g>
</g>
<g>
</g>
<g>
</g>
<g>
</g>
<g>
</g>
<g>
</g>
<g>
</g>
<g>
</g>
<g>
</g>
<g>
</g>
<g>
</g>
<g>
</g>
</svg>
