<?xml version="1.0" encoding="iso-8859-1"?>
<!-- Generator: Adobe Illustrator 19.0.0, SVG Export Plug-In . SVG Version: 6.00 Build 0)  -->
<svg xmlns="http://www.w3.org/2000/svg" xmlns:xlink="http://www.w3.org/1999/xlink" version="1.1" id="Layer_1" x="0px" y="0px" viewBox="0 0 512 512" style="enable-background:new 0 0 512 512;" xml:space="preserve">
<g>
	<g>
		<path d="M416.666,321.333c-47.463,0-86.933,34.868-94.149,80.333H189.483c-2.399-15.114-8.364-29.055-17.001-40.935    l188.249-188.249c15.722,11.431,35.053,18.185,55.935,18.185c52.567,0,95.334-42.767,95.334-95.333    C512,42.767,469.233,0,416.666,0c-47.464,0-86.933,34.868-94.149,80.334H189.483C182.267,34.868,142.798,0,95.334,0    C42.767,0,0,42.767,0,95.334c0,52.566,42.767,95.333,95.334,95.333c47.463,0,86.933-34.868,94.149-80.333h133.034    c2.399,15.114,8.364,29.055,17.001,40.935L151.269,339.518c-15.722-11.431-35.053-18.185-55.935-18.185    C42.767,321.333,0,364.1,0,416.666C0,469.233,42.767,512,95.334,512c47.464,0,86.933-34.868,94.149-80.334h133.033    c7.217,45.466,46.686,80.334,94.15,80.334C469.233,512,512,469.233,512,416.666C512,364.1,469.233,321.333,416.666,321.333z"/>
	</g>
</g>
<g>
</g>
<g>
</g>
<g>
</g>
<g>
</g>
<g>
</g>
<g>
</g>
<g>
</g>
<g>
</g>
<g>
</g>
<g>
</g>
<g>
</g>
<g>
</g>
<g>
</g>
<g>
</g>
<g>
</g>
</svg>
