<?xml version="1.0" encoding="iso-8859-1"?>
<!-- Generator: Adobe Illustrator 19.0.0, SVG Export Plug-In . SVG Version: 6.00 Build 0)  -->
<svg xmlns="http://www.w3.org/2000/svg" xmlns:xlink="http://www.w3.org/1999/xlink" version="1.1" id="Layer_1" x="0px" y="0px" viewBox="0 0 512.001 512.001" style="enable-background:new 0 0 512.001 512.001;" xml:space="preserve">
<g>
	<g>
		<path d="M512.001,59.288H512c0-24.813-20.187-45-45-45H123.955c-24.813,0-45,20.187-45,45v91.142    c0,12.044,4.766,22.99,12.499,31.075c-7.37,8.178-12.014,18.861-12.456,30.606c4.881-0.725,9.873-1.105,14.953-1.105    c25.254,0,48.38,9.281,66.15,24.608c7-11.841,19.892-19.804,34.616-19.804c22.161,0,40.19,18.029,40.19,40.19    c0,22.245-18.236,40.544-40.859,40.173c1.138,7.043,1.304,12.288,1.304,17.901c1.325,0.765,2.601,1.605,3.836,2.497h-0.02    c11.788,8.503,18.747,22.082,18.747,36.5v21.28c10.27,7.29,16.991,19.268,16.991,32.796c0,13.524-6.721,25.499-16.991,32.787    v42.779c0,5.258-0.915,10.305-2.58,15h248.141c26.757,0,48.525-21.768,48.525-48.525v-84.092c0-12.996-5.145-24.805-13.493-33.525    c8.348-8.72,13.493-20.529,13.493-33.525v-84.092c0-12.471-4.732-23.855-12.49-32.459c7.728-8.084,12.49-19.026,12.49-31.066    V59.288z M194.717,145.048c-22.161,0-40.19-18.029-40.19-40.19c-0.001-22.161,18.029-40.19,40.19-40.19    c22.161,0,40.19,18.029,40.19,40.19C234.907,127.019,216.878,145.048,194.717,145.048z M421.429,422.142H270.287    c-8.284,0-15-6.716-15-15s6.716-15,15-15h151.142c8.284,0,15,6.716,15,15S429.713,422.142,421.429,422.142z M421.429,271H270.287    c-8.284,0-15-6.716-15-15s6.716-15,15-15h151.142c8.284,0,15,6.716,15,15S429.713,271,421.429,271z M421.429,119.858H270.287    c-8.284,0-15-6.716-15-15s6.716-15,15-15h151.142c8.284,0,15,6.716,15,15S429.713,119.858,421.429,119.858z"/>
	</g>
</g>
<g>
	<g>
		<path d="M172.914,338.071h-7.563v-25.677c0-39.364-32.03-71.389-71.4-71.389c-39.364,0-71.389,32.025-71.389,71.389v25.677H15    c-8.284,0-15,6.716-15,15v129.641c0,8.284,6.716,15,15,15h157.914c8.284,0,15-6.716,15-15V353.071    C187.914,344.787,181.198,338.071,172.914,338.071z M135.352,338.072H52.563v-25.677c0-22.822,18.566-41.389,41.389-41.389    c22.828,0,41.4,18.567,41.4,41.389V338.072z"/>
	</g>
</g>
<g>
</g>
<g>
</g>
<g>
</g>
<g>
</g>
<g>
</g>
<g>
</g>
<g>
</g>
<g>
</g>
<g>
</g>
<g>
</g>
<g>
</g>
<g>
</g>
<g>
</g>
<g>
</g>
<g>
</g>
</svg>
