<?xml version="1.0" encoding="iso-8859-1"?>
<!-- Generator: Adobe Illustrator 19.0.0, SVG Export Plug-In . SVG Version: 6.00 Build 0)  -->
<svg xmlns="http://www.w3.org/2000/svg" xmlns:xlink="http://www.w3.org/1999/xlink" version="1.1" id="Layer_1" x="0px" y="0px" viewBox="0 0 512.001 512.001" style="enable-background:new 0 0 512.001 512.001;" xml:space="preserve">
<g>
	<g>
		<path d="M301,295.896v44.325c3.201,6.587,5,13.976,5,21.779v70c0,27.57-22.43,50-50,50s-50-22.43-50-50v-70    c0-7.802,1.799-15.191,5-21.778v-44.325c-21.111,14.417-35,38.666-35,66.104v70c0,44.112,35.888,80,80,80s80-35.888,80-80v-70    C336,334.563,322.112,310.313,301,295.896z"/>
	</g>
</g>
<g>
	<g>
		<path d="M256,0c-44.112,0-80,35.888-80,80v70c0,27.437,13.889,51.687,35,66.104v-44.325c-3.201-6.587-5-13.976-5-21.778V80    c0-27.57,22.43-50,50-50s50,22.43,50,50v70c0,7.802-1.799,15.191-5,21.779v44.325c21.111-14.417,35-38.666,35-66.104V80    C336,35.888,300.112,0,256,0z"/>
	</g>
</g>
<g>
	<g>
		<path d="M256,151c-8.284,0-15,6.716-15,15v180c0,8.284,6.716,15,15,15s15-6.716,15-15V166C271,157.716,264.284,151,256,151z"/>
	</g>
</g>
<g>
</g>
<g>
</g>
<g>
</g>
<g>
</g>
<g>
</g>
<g>
</g>
<g>
</g>
<g>
</g>
<g>
</g>
<g>
</g>
<g>
</g>
<g>
</g>
<g>
</g>
<g>
</g>
<g>
</g>
</svg>
