<?xml version="1.0" encoding="iso-8859-1"?>
<!-- Generator: Adobe Illustrator 19.0.0, SVG Export Plug-In . SVG Version: 6.00 Build 0)  -->
<svg xmlns="http://www.w3.org/2000/svg" xmlns:xlink="http://www.w3.org/1999/xlink" version="1.1" id="Layer_1" x="0px" y="0px" viewBox="0 0 512 512" style="enable-background:new 0 0 512 512;" xml:space="preserve">
<g>
	<g>
		<path d="M497,141H180V76c0-8.284-6.716-15-15-15H15C6.716,61,0,67.716,0,76v360c0,8.284,6.716,15,15,15h482    c8.284,0,15-6.716,15-15V156C512,147.716,505.284,141,497,141z M158,311h-3.787l2.678,2.678c5.858,5.858,5.858,15.355,0,21.213    c-5.857,5.858-15.356,5.858-21.213,0L133,332.213V336c0,8.284-6.716,15-15,15s-15-6.716-15-15v-3.787l-2.678,2.678    c-5.857,5.858-15.356,5.858-21.213,0c-5.858-5.858-5.858-15.355,0-21.213L81.787,311H78c-8.284,0-15-6.716-15-15s6.716-15,15-15    h3.787l-2.678-2.678c-5.858-5.858-5.858-15.355,0-21.213c5.857-5.858,15.355-5.858,21.213,0l2.678,2.678V256    c0-8.284,6.716-15,15-15s15,6.716,15,15v3.787l2.678-2.678c5.857-5.858,15.355-5.858,21.213,0c5.858,5.858,5.858,15.355,0,21.213    L154.213,281H158c8.284,0,15,6.716,15,15S166.284,311,158,311z M296,311h-3.787l2.678,2.678c5.858,5.858,5.858,15.355,0,21.213    c-5.857,5.858-15.356,5.858-21.213,0L271,332.213V336c0,8.284-6.716,15-15,15s-15-6.716-15-15v-3.787    c-9.338,9.338-18.043,8.526-23.891,2.678c-5.858-5.858-5.858-15.355,0-21.213l2.678-2.678H216c-8.284,0-15-6.716-15-15    s6.716-15,15-15h3.787l-2.678-2.678c-5.858-5.858-5.858-15.355,0-21.213c5.857-5.858,15.355-5.858,21.213,0l2.678,2.678V256    c0-8.284,6.716-15,15-15s15,6.716,15,15v3.787l2.678-2.678c5.857-5.858,15.355-5.858,21.213,0c5.858,5.858,5.858,15.355,0,21.213    L292.213,281H296c8.284,0,15,6.716,15,15S304.284,311,296,311z M434,311h-3.787l2.678,2.678c5.858,5.858,5.858,15.355,0,21.213    c-5.857,5.858-15.356,5.858-21.213,0L409,332.213V336c0,8.284-6.716,15-15,15s-15-6.716-15-15v-3.787l-2.678,2.678    c-5.857,5.858-15.356,5.858-21.213,0c-5.858-5.858-5.858-15.355,0-21.213l2.678-2.678H354c-8.284,0-15-6.716-15-15s6.716-15,15-15    h3.787l-2.678-2.678c-5.858-5.858-5.858-15.355,0-21.213c5.857-5.858,15.355-5.858,21.213,0l2.678,2.678V256    c0-8.284,6.716-15,15-15s15,6.716,15,15v3.787l2.678-2.678c5.857-5.858,15.355-5.858,21.213,0c5.858,5.858,5.858,15.355,0,21.213    L430.213,281H434c8.284,0,15,6.716,15,15S442.284,311,434,311z"/>
	</g>
</g>
<g>
</g>
<g>
</g>
<g>
</g>
<g>
</g>
<g>
</g>
<g>
</g>
<g>
</g>
<g>
</g>
<g>
</g>
<g>
</g>
<g>
</g>
<g>
</g>
<g>
</g>
<g>
</g>
<g>
</g>
</svg>
