<?xml version="1.0" encoding="iso-8859-1"?>
<!-- Generator: Adobe Illustrator 19.0.0, SVG Export Plug-In . SVG Version: 6.00 Build 0)  -->
<svg xmlns="http://www.w3.org/2000/svg" xmlns:xlink="http://www.w3.org/1999/xlink" version="1.1" id="Layer_1" x="0px" y="0px" viewBox="0 0 512 512" style="enable-background:new 0 0 512 512;" xml:space="preserve">
<g>
	<g>
		<path d="M0,351v15c0,24.813,20.187,45,45,45h422c24.813,0,45-20.187,45-45v-15H0z"/>
	</g>
</g>
<g>
	<g>
		<path d="M467,101H45c-24.813,0-45,20.187-45,45v175h512V146C512,121.187,491.813,101,467,101z M326.5,280    c-30.678,0-56.442-21.369-63.234-50h-76.123v10c0,8.284-6.716,15-15,15s-15-6.716-15-15v-10H150.5v10c0,8.284-6.716,15-15,15    s-15-6.716-15-15v-25c0-8.284,6.716-15,15-15c15.123,0,112.585,0,127.766,0c6.792-28.631,32.556-50,63.234-50    c35.841,0,65,29.159,65,65S362.341,280,326.5,280z"/>
	</g>
</g>
<g>
</g>
<g>
</g>
<g>
</g>
<g>
</g>
<g>
</g>
<g>
</g>
<g>
</g>
<g>
</g>
<g>
</g>
<g>
</g>
<g>
</g>
<g>
</g>
<g>
</g>
<g>
</g>
<g>
</g>
</svg>
