<?xml version="1.0" encoding="iso-8859-1"?>
<!-- Generator: Adobe Illustrator 19.0.0, SVG Export Plug-In . SVG Version: 6.00 Build 0)  -->
<svg version="1.1" id="Layer_1" xmlns="http://www.w3.org/2000/svg" xmlns:xlink="http://www.w3.org/1999/xlink" x="0px" y="0px"
	 viewBox="0 0 330 330" style="enable-background:new 0 0 330 330;" xml:space="preserve">
<g id="XMLID_2_">
	<path id="XMLID_4_" d="M259.665,47.981C247.42,19.229,219.01,0,186.975,0c-43.568,0-79.014,35.444-79.014,79.012v0.196
		c14.773-6.011,30.694-9.168,47.039-9.168c25.285,0,49.675,7.529,70.531,21.772c15.242,10.41,27.832,23.874,37.082,39.535
		c21.241,3.278,40.578,12.395,56.326,25.646c7-10.994,11.06-24.032,11.06-38.006C330,80.06,298.509,48.347,259.665,47.981z"/>
	<path id="XMLID_5_" d="M329.872,240.412c-0.066-1.25-0.163-2.491-0.284-3.726c-0.024-0.25-0.05-0.5-0.076-0.749
		c-0.131-1.224-0.283-2.44-0.465-3.647c-0.033-0.216-0.07-0.431-0.105-0.647c-0.184-1.159-0.389-2.312-0.618-3.456
		c-0.026-0.129-0.048-0.26-0.075-0.389c-0.241-1.17-0.516-2.328-0.805-3.479c-0.074-0.294-0.145-0.587-0.222-0.879
		c-0.283-1.078-0.589-2.148-0.913-3.209c-0.107-0.348-0.217-0.694-0.327-1.041c-0.329-1.029-0.673-2.052-1.039-3.064
		c-0.126-0.349-0.261-0.692-0.392-1.039c-0.3-0.793-0.611-1.581-0.934-2.363c-0.199-0.483-0.401-0.965-0.609-1.444
		c-0.335-0.772-0.684-1.538-1.041-2.298c-0.215-0.457-0.43-0.913-0.652-1.365c-0.404-0.822-0.822-1.636-1.252-2.443
		c-0.27-0.504-0.545-1.004-0.824-1.503c-0.29-0.519-0.589-1.032-0.889-1.544c-0.457-0.778-0.926-1.548-1.406-2.31
		c-0.235-0.374-0.475-0.746-0.716-1.116c-0.604-0.924-1.224-1.835-1.862-2.733c-0.188-0.265-0.374-0.531-0.564-0.794
		c-1.316-1.813-2.703-3.569-4.155-5.271c-0.083-0.097-0.167-0.192-0.251-0.289c-0.923-1.071-1.871-2.12-2.846-3.144
		c-0.076-0.08-0.152-0.16-0.228-0.239c-2.673-2.788-5.53-5.392-8.558-7.796C283.256,166.909,264.925,160,245,160h-1.666
		c-14.172-35.825-48.977-59.961-88.334-59.961c-17.104,0-33.162,4.549-47.039,12.491c-5.144,2.944-9.986,6.355-14.472,10.174
		c-0.005,0.004-0.011,0.009-0.016,0.013c-2.226,1.897-4.363,3.894-6.405,5.984c-0.029,0.03-0.059,0.06-0.088,0.09
		c-2.014,2.067-3.934,4.225-5.755,6.468c-0.052,0.064-0.104,0.128-0.155,0.192c-0.576,0.713-1.143,1.433-1.697,2.162
		c-0.019,0.024-0.037,0.048-0.056,0.072c-1.151,1.515-2.256,3.066-3.315,4.649c-0.071,0.105-0.142,0.212-0.212,0.318
		c-0.471,0.709-0.933,1.425-1.384,2.147c-0.049,0.077-0.098,0.154-0.146,0.231c-0.988,1.59-1.93,3.212-2.826,4.863
		c-0.08,0.149-0.16,0.298-0.24,0.448c-0.374,0.699-0.74,1.404-1.098,2.114c-0.066,0.131-0.134,0.262-0.199,0.394
		c-0.824,1.654-1.6,3.336-2.328,5.044c-0.082,0.193-0.162,0.387-0.243,0.58c-0.288,0.687-0.567,1.378-0.839,2.073
		c-0.07,0.182-0.144,0.363-0.214,0.545c-0.334,0.869-0.657,1.743-0.967,2.625c-0.003,0.009-0.006,0.018-0.009,0.026
		c-0.297,0.847-0.578,1.701-0.851,2.559c-0.072,0.228-0.143,0.457-0.214,0.686c-0.21,0.68-0.413,1.362-0.608,2.048
		c-0.063,0.224-0.13,0.447-0.191,0.672c-0.247,0.89-0.483,1.784-0.705,2.684c-0.007,0.026-0.012,0.053-0.019,0.078
		c-0.211,0.861-0.406,1.729-0.593,2.599c-0.056,0.258-0.108,0.517-0.161,0.776c-0.14,0.677-0.271,1.356-0.396,2.038
		c-0.047,0.256-0.096,0.512-0.141,0.77c-0.159,0.912-0.309,1.827-0.441,2.748c-0.004,0.023-0.006,0.046-0.01,0.069
		c-0.129,0.894-0.24,1.792-0.344,2.693c-0.031,0.274-0.059,0.549-0.088,0.823c-0.072,0.686-0.138,1.374-0.195,2.065
		c-0.023,0.276-0.048,0.551-0.068,0.828c-0.07,0.936-0.131,1.874-0.174,2.816C26.17,195.521,0,224.761,0,260
		c0,4.825,0.49,9.537,1.425,14.09C7.963,305.958,36.227,330,70,330h175c46.869,0,85-38.131,85-85c0-1.335-0.04-2.661-0.102-3.98
		C329.89,240.817,329.883,240.614,329.872,240.412z"/>
</g>
<g>
</g>
<g>
</g>
<g>
</g>
<g>
</g>
<g>
</g>
<g>
</g>
<g>
</g>
<g>
</g>
<g>
</g>
<g>
</g>
<g>
</g>
<g>
</g>
<g>
</g>
<g>
</g>
<g>
</g>
</svg>
