<?xml version="1.0" encoding="iso-8859-1"?>
<!-- Generator: Adobe Illustrator 19.0.0, SVG Export Plug-In . SVG Version: 6.00 Build 0)  -->
<svg version="1.1" id="Layer_1" xmlns="http://www.w3.org/2000/svg" xmlns:xlink="http://www.w3.org/1999/xlink" x="0px" y="0px"
	 viewBox="0 0 330 330" style="enable-background:new 0 0 330 330;" xml:space="preserve">
<g id="XMLID_30_">
	<path id="XMLID_31_" d="M245,109.98h-1.667C229.162,74.155,194.356,50.02,155,50.02c-50.929,0-92.625,40.283-94.902,90.659
		C26.17,145.501,0,174.742,0,209.98c0,38.598,31.401,70,70,70h175c46.869,0,85-38.131,85-85C330,148.111,291.869,109.98,245,109.98z
		 M100.609,220.59c-2.8,2.79-6.659,4.39-10.609,4.39s-7.811-1.6-10.61-4.39c-2.79-2.8-4.39-6.66-4.39-10.61
		c0-3.95,1.6-7.81,4.39-10.61c2.8-2.79,6.66-4.39,10.61-4.39s7.81,1.6,10.609,4.39c2.79,2.8,4.391,6.66,4.391,10.61
		C105,213.93,103.399,217.79,100.609,220.59z M175.609,220.59c-2.8,2.79-6.659,4.39-10.609,4.39s-7.811-1.6-10.61-4.39
		c-2.79-2.8-4.39-6.66-4.39-10.61c0-3.95,1.6-7.81,4.39-10.61c2.79-2.79,6.66-4.39,10.61-4.39s7.81,1.6,10.609,4.39
		c2.79,2.8,4.391,6.66,4.391,10.61C180,213.93,178.399,217.79,175.609,220.59z M250.609,220.59c-2.8,2.79-6.659,4.39-10.609,4.39
		s-7.811-1.6-10.61-4.39c-2.79-2.79-4.39-6.66-4.39-10.61c0-3.95,1.6-7.82,4.39-10.61c2.8-2.79,6.66-4.39,10.61-4.39
		s7.81,1.6,10.609,4.39c2.79,2.79,4.391,6.66,4.391,10.61C255,213.93,253.399,217.8,250.609,220.59z"/>
</g>
<g>
</g>
<g>
</g>
<g>
</g>
<g>
</g>
<g>
</g>
<g>
</g>
<g>
</g>
<g>
</g>
<g>
</g>
<g>
</g>
<g>
</g>
<g>
</g>
<g>
</g>
<g>
</g>
<g>
</g>
</svg>
