<?xml version="1.0" encoding="iso-8859-1"?>
<!-- Generator: Adobe Illustrator 19.0.0, SVG Export Plug-In . SVG Version: 6.00 Build 0)  -->
<svg version="1.1" id="Layer_1" xmlns="http://www.w3.org/2000/svg" xmlns:xlink="http://www.w3.org/1999/xlink" x="0px" y="0px"
	 viewBox="0 0 330 330" style="enable-background:new 0 0 330 330;" xml:space="preserve">
<g id="XMLID_21_">
	<path id="XMLID_22_" d="M245,109.98h-1.666C229.162,74.155,194.357,50.02,155,50.02c-50.928,0-92.625,40.282-94.902,90.659
		C26.17,145.501,0,174.742,0,209.98c0,38.598,31.402,70,70,70h175c46.869,0,85-38.13,85-85C330,148.111,291.869,109.98,245,109.98z
		 M197.375,217.375c-3.248,3.251-7.763,5.122-12.376,5.122c-4.612,0-9.126-1.872-12.384-5.135
		c-3.257-3.253-5.129-7.767-5.129-12.378c0-4.607,1.87-9.122,5.131-12.385c3.254-3.259,7.768-5.129,12.382-5.129
		c0.841,0,1.674,0.083,2.501,0.204V157.5h-45v47.192c0.002,0.097,0.015,0.193,0.015,0.291c0,4.62-1.873,9.136-5.14,12.392
		c-3.247,3.251-7.762,5.122-12.375,5.122c-4.611,0-9.125-1.872-12.384-5.135c-3.257-3.253-5.129-7.767-5.129-12.378
		c0-4.607,1.87-9.122,5.13-12.385c3.256-3.259,7.769-5.129,12.383-5.129c0.84,0,1.674,0.083,2.5,0.204V150
		c0-4.142,3.357-7.5,7.5-7.5h60c4.143,0,7.5,3.358,7.5,7.5v54.711c0.002,0.091,0.014,0.181,0.014,0.272
		C202.514,209.604,200.641,214.12,197.375,217.375z"/>
</g>
<g>
</g>
<g>
</g>
<g>
</g>
<g>
</g>
<g>
</g>
<g>
</g>
<g>
</g>
<g>
</g>
<g>
</g>
<g>
</g>
<g>
</g>
<g>
</g>
<g>
</g>
<g>
</g>
<g>
</g>
</svg>
