<?xml version="1.0" encoding="iso-8859-1"?>
<!-- Generator: Adobe Illustrator 19.0.0, SVG Export Plug-In . SVG Version: 6.00 Build 0)  -->
<svg version="1.1" id="Layer_1" xmlns="http://www.w3.org/2000/svg" xmlns:xlink="http://www.w3.org/1999/xlink" x="0px" y="0px"
	 viewBox="0 0 290 290" style="enable-background:new 0 0 290 290;" xml:space="preserve">
<g id="XMLID_238_">
	<g id="XMLID_241_">
		<path d="M90,290V120H40v155c0,8.284,6.716,15,15,15H90z"/>
	</g>
	<g id="XMLID_244_">
		<path d="M250,275V120h-50v170h35C243.284,290,250,283.284,250,275z"/>
	</g>
	<g id="XMLID_311_">
		<path d="M265,60h-30h-15V15c0-8.284-6.716-15-15-15H85c-8.284,0-15,6.716-15,15v45H55H25c-8.284,0-15,6.716-15,15s6.716,15,15,15
			h15h60h30h30h30h60h8.08H265c8.284,0,15-6.716,15-15S273.284,60,265,60z M190,60h-15h-60h-15V30h90V60z"/>
	</g>
	<g id="XMLID_338_">
		<rect x="120" y="120" width="50" height="170"/>
	</g>
</g>
<g>
</g>
<g>
</g>
<g>
</g>
<g>
</g>
<g>
</g>
<g>
</g>
<g>
</g>
<g>
</g>
<g>
</g>
<g>
</g>
<g>
</g>
<g>
</g>
<g>
</g>
<g>
</g>
<g>
</g>
</svg>
