<?xml version="1.0" encoding="iso-8859-1"?>
<!-- Generator: Adobe Illustrator 19.0.0, SVG Export Plug-In . SVG Version: 6.00 Build 0)  -->
<svg version="1.1" id="Layer_1" xmlns="http://www.w3.org/2000/svg" xmlns:xlink="http://www.w3.org/1999/xlink" x="0px" y="0px"
	 viewBox="0 0 512 512" style="enable-background:new 0 0 512 512;" xml:space="preserve">
<g>
	<g>
		<g>
			<path d="M490.667,0H21.333C9.536,0,0,9.557,0,21.333V128h512V21.333C512,9.557,502.464,0,490.667,0z M85.333,85.333
				C73.557,85.333,64,75.776,64,64s9.557-21.333,21.333-21.333S106.667,52.224,106.667,64S97.109,85.333,85.333,85.333z
				 M149.333,85.333C137.557,85.333,128,75.776,128,64s9.557-21.333,21.333-21.333S170.667,52.224,170.667,64
				S161.109,85.333,149.333,85.333z M213.333,85.333C201.557,85.333,192,75.776,192,64s9.557-21.333,21.333-21.333
				S234.667,52.224,234.667,64S225.109,85.333,213.333,85.333z"/>
			<path d="M304.917,377.749c4.16,4.16,9.621,6.251,15.083,6.251s10.923-2.091,15.083-6.251l6.251-6.251l6.251,6.251
				c4.16,4.16,9.621,6.251,15.083,6.251s10.923-2.091,15.083-6.251c8.341-8.341,8.341-21.824,0-30.165l-6.251-6.251l6.251-6.251
				c8.341-8.341,8.341-21.824,0-30.165c-8.341-8.341-21.824-8.341-30.165,0l-6.251,6.251l-6.251-6.251
				c-8.341-8.341-21.824-8.341-30.165,0c-8.341,8.341-8.341,21.824,0,30.165l6.251,6.251l-6.251,6.251
				C296.576,355.925,296.576,369.408,304.917,377.749z"/>
			<path d="M0,490.667C0,502.443,9.536,512,21.333,512h469.333c11.797,0,21.333-9.557,21.333-21.333v-320H0V490.667z M192,448h-64
				c-11.797,0-21.333-9.557-21.333-21.333s9.536-21.333,21.333-21.333h64c11.797,0,21.333,9.557,21.333,21.333S203.797,448,192,448z
				 M234.667,256c0-11.776,9.536-21.333,21.333-21.333h170.667c11.797,0,21.333,9.557,21.333,21.333v170.667
				c0,11.776-9.536,21.333-21.333,21.333H256c-11.797,0-21.333-9.557-21.333-21.333v-33.835l-36.416-36.416
				c-8.341-8.341-8.341-21.824,0-30.165l36.416-36.416V256z M128,213.333h64c11.797,0,21.333,9.557,21.333,21.333
				S203.797,256,192,256h-64c-11.797,0-21.333-9.557-21.333-21.333S116.203,213.333,128,213.333z M85.333,277.333h64
				c11.797,0,21.333,9.557,21.333,21.333S161.131,320,149.333,320h-64C73.536,320,64,310.443,64,298.667
				S73.536,277.333,85.333,277.333z M85.333,341.333h64c11.797,0,21.333,9.557,21.333,21.333S161.131,384,149.333,384h-64
				C73.536,384,64,374.443,64,362.667S73.536,341.333,85.333,341.333z"/>
		</g>
	</g>
</g>
<g>
</g>
<g>
</g>
<g>
</g>
<g>
</g>
<g>
</g>
<g>
</g>
<g>
</g>
<g>
</g>
<g>
</g>
<g>
</g>
<g>
</g>
<g>
</g>
<g>
</g>
<g>
</g>
<g>
</g>
</svg>
