<?xml version="1.0" encoding="iso-8859-1"?>
<!-- Generator: Adobe Illustrator 19.0.0, SVG Export Plug-In . SVG Version: 6.00 Build 0)  -->
<svg version="1.1" id="Layer_1" xmlns="http://www.w3.org/2000/svg" xmlns:xlink="http://www.w3.org/1999/xlink" x="0px" y="0px"
	 viewBox="0 0 512 512" style="enable-background:new 0 0 512 512;" xml:space="preserve">
<g>
	<g>
		<g>
			<path d="M121.728,347.565l-42.645-42.645c-8.341-8.341-21.824-8.341-30.165,0c-8.341,8.32-8.341,21.824,0,30.165l6.251,6.251
				H21.333C9.536,341.335,0,350.893,0,362.669s9.536,21.333,21.333,21.333h33.835l-6.251,6.251c-8.341,8.32-8.341,21.824,0,30.165
				c4.16,4.16,9.621,6.251,15.083,6.251c5.461,0,10.923-2.091,15.083-6.251l42.645-42.645c1.984-1.984,3.541-4.331,4.629-6.955
				c2.155-5.205,2.155-11.093,0-16.299C125.269,351.895,123.712,349.549,121.728,347.565z"/>
			<path d="M106.709,234.667h298.624c35.307,0,64.043-28.736,64.043-64.043v-42.581C469.376,92.736,440.64,64,405.333,64H106.709
				c-35.307,0-64.043,28.736-64.043,64.043v42.581C42.667,205.931,71.403,234.667,106.709,234.667z M234.667,128h128
				c11.797,0,21.333,9.557,21.333,21.333s-9.536,21.333-21.333,21.333h-128c-11.797,0-21.333-9.557-21.333-21.333
				S222.869,128,234.667,128z M149.333,128c11.776,0,21.333,9.557,21.333,21.333s-9.557,21.333-21.333,21.333
				S128,161.109,128,149.333S137.557,128,149.333,128z"/>
			<path d="M447.957,277.333H213.376c-35.307,0-64.043,28.736-64.043,64.043v42.581c0,35.307,28.736,64.043,64.043,64.043h234.581
				C483.264,448,512,419.264,512,383.957v-42.581C512,306.069,483.264,277.333,447.957,277.333z M256,384
				c-11.776,0-21.333-9.557-21.333-21.333s9.557-21.333,21.333-21.333s21.333,9.557,21.333,21.333S267.776,384,256,384z
				 M405.333,384h-64C329.536,384,320,374.443,320,362.667s9.536-21.333,21.333-21.333h64c11.797,0,21.333,9.557,21.333,21.333
				S417.131,384,405.333,384z"/>
		</g>
	</g>
</g>
<g>
</g>
<g>
</g>
<g>
</g>
<g>
</g>
<g>
</g>
<g>
</g>
<g>
</g>
<g>
</g>
<g>
</g>
<g>
</g>
<g>
</g>
<g>
</g>
<g>
</g>
<g>
</g>
<g>
</g>
</svg>
