<?xml version="1.0" encoding="iso-8859-1"?>
<!-- Generator: Adobe Illustrator 19.0.0, SVG Export Plug-In . SVG Version: 6.00 Build 0)  -->
<svg version="1.1" id="Layer_1" xmlns="http://www.w3.org/2000/svg" xmlns:xlink="http://www.w3.org/1999/xlink" x="0px" y="0px"
	 viewBox="0 0 512 512" style="enable-background:new 0 0 512 512;" xml:space="preserve">
<g transform="translate(0 -1)">
	<g>
		<g>
			<path d="M465.4,258.259c-5.781-5.867-14.443-7.893-22.208-5.227c-2.133,0.725-4.075,1.771-5.824,3.072
				c-9.408-26.091-22.976-42.581-32-51.413V22.333C405.368,10.557,395.832,1,384.035,1h-85.333v192l62.955,12.587
				c-9.941,9.344-17.963,19.435-24.32,30.08H170.701v192h93.035c5.099,14.784,12.693,28.757,23.232,40.789
				c24.661,28.053,61.013,44.288,99.755,44.544h0.896c38.443,0,74.645-15.744,99.435-43.285
				C534.349,417.171,507.021,300.755,465.4,258.259z M455.352,441.171c-16.704,18.56-41.365,29.163-67.733,29.163H387
				c-26.581-0.171-51.328-11.115-67.947-30.037c-11.605-13.205-17.899-29.845-19.499-46.997c-0.149-1.707-0.469-3.413-0.533-5.12
				c-0.192-5.803,0.064-11.627,1.024-17.365c0,0.021,0.021,0.043,0.043,0.064c3.072,4.224,6.123,8.021,9.067,11.477
				c1.109,1.301,2.048,2.304,3.093,3.499c1.835,2.027,3.541,3.947,5.141,5.611c1.173,1.216,2.048,2.091,3.051,3.093
				c1.259,1.237,2.283,2.261,3.243,3.179c1.131,1.045,1.728,1.621,2.347,2.176c0.085,0.064,0.277,0.235,0.341,0.32
				c0.043,0.021,0.085,0.043,0.107,0.085c0.299,0.256,1.003,0.875,1.088,0.96c0.171,0.149,0.405,0.213,0.597,0.363
				c1.493,1.195,3.093,2.197,4.864,2.965c0.064,0.021,0.128,0.064,0.192,0.085c3.541,1.515,7.467,2.197,11.584,1.493
				c0.299-0.043,0.512-0.235,0.811-0.299c1.899-0.363,3.712-1.109,5.483-2.005c1.28-0.661,2.368-1.536,3.477-2.432
				c1.003-0.811,2.005-1.579,2.837-2.56c0.661-0.747,1.152-1.579,1.685-2.432c0.811-1.237,1.493-2.517,2.027-3.904
				c0.32-0.853,0.597-1.685,0.811-2.581c0.384-1.621,0.533-3.264,0.533-4.971c0-0.576,0.235-1.109,0.171-1.685
				c-0.021-0.512-0.107-1.024-0.171-1.536c-0.021,0,0-0.021,0-0.043c-1.387-8.811-2.411-17.173-3.179-25.152
				c-0.171-1.685-0.192-3.179-0.341-4.821c-0.491-6.272-0.896-12.416-1.024-18.197c-0.021-1.579,0.043-3.029,0.043-4.565
				c-0.021-5.696,0.107-11.243,0.491-16.469c0.085-1.195,0.235-2.325,0.341-3.499c0.533-5.461,1.216-10.709,2.219-15.68
				c0.128-0.725,0.299-1.429,0.448-2.155c1.152-5.376,2.539-10.517,4.267-15.339c0.085-0.213,0.149-0.448,0.235-0.661
				c4.224-11.627,10.283-21.611,17.899-30.485c9.643,13.205,21.504,37.312,21.504,76.288c0,7.979,4.437,15.275,11.52,18.944
				c7.061,3.669,15.637,3.093,22.123-1.515c1.451-1.024,8.747-6.464,16.107-17.28C471.736,361.576,475.896,418.365,455.352,441.171z
				"/>
			<path d="M256.039,1.004H21.372c-11.797,0-21.333,9.557-21.333,21.333v170.667h256V1.004z"/>
			<path d="M0.039,406.338c0,11.776,9.536,21.333,21.333,21.333h106.667v-192h-128V406.338z"/>
		</g>
	</g>
</g>
<g>
</g>
<g>
</g>
<g>
</g>
<g>
</g>
<g>
</g>
<g>
</g>
<g>
</g>
<g>
</g>
<g>
</g>
<g>
</g>
<g>
</g>
<g>
</g>
<g>
</g>
<g>
</g>
<g>
</g>
</svg>
