<?xml version="1.0" encoding="iso-8859-1"?>
<!-- Generator: Adobe Illustrator 19.0.0, SVG Export Plug-In . SVG Version: 6.00 Build 0)  -->
<svg version="1.1" id="Layer_1" xmlns="http://www.w3.org/2000/svg" xmlns:xlink="http://www.w3.org/1999/xlink" x="0px" y="0px"
	 viewBox="0 0 512 512" style="enable-background:new 0 0 512 512;" xml:space="preserve">
<g>
	<g>
		<g>
			<path d="M490.667,383.998H320c-5.653,0-11.093,2.24-15.083,6.251l-15.083,15.083h-67.669l-15.083-15.083
				c-3.989-4.011-9.429-6.251-15.083-6.251H21.333C9.557,383.998,0,393.555,0,405.331v64c0,23.531,19.136,42.667,42.667,42.667
				h426.667c23.531,0,42.667-19.136,42.667-42.667v-64C512,393.555,502.443,383.998,490.667,383.998z"/>
			<path d="M389.15,158.709c0-5.589-4.544-10.112-10.112-10.112h-10.112v20.224h10.112
				C384.606,168.821,389.15,164.299,389.15,158.709z"/>
			<path d="M42.671,341.335h140.501l15.083,15.083c3.989,3.989,9.429,6.251,15.083,6.251h85.333c5.653,0,11.072-2.261,15.083-6.251
				l15.083-15.083h140.501c11.776,0,21.333-9.557,21.333-21.333V42.669c0-23.531-19.136-42.667-42.667-42.667h-384
				c-23.531,0-42.667,19.136-42.667,42.667v277.333C21.338,331.778,30.895,341.335,42.671,341.335z M352.73,140.503
				c0-4.459,3.627-8.085,8.107-8.085h18.197c14.507,0,26.304,11.797,26.304,26.283c0,14.507-11.797,26.304-26.304,26.304h-10.112
				v20.224c0,4.48-3.627,8.107-8.085,8.107c-4.48,0-8.107-3.627-8.107-8.107V140.503z M279.919,132.418h48.533
				c4.48,0,8.107,3.627,8.107,8.085s-3.627,8.085-8.107,8.085h-16.171v56.64c0,4.48-3.627,8.107-8.107,8.107
				c-4.459,0-8.085-3.627-8.085-8.107v-56.64h-16.171c-4.48,0-8.107-3.627-8.107-8.085S275.439,132.418,279.919,132.418z
				 M198.98,132.418h48.555c4.48,0,8.107,3.627,8.107,8.085s-3.627,8.085-8.107,8.085h-16.171v56.64c0,4.48-3.627,8.107-8.107,8.107
				c-4.459,0-8.085-3.627-8.085-8.107v-56.64H198.98c-4.459,0-8.085-3.627-8.085-8.085S194.522,132.418,198.98,132.418z
				 M109.978,140.503c0-4.459,3.627-8.085,8.085-8.085c4.48,0,8.107,3.627,8.107,8.085v24.277h32.363v-24.277
				c0-4.459,3.627-8.085,8.085-8.085c4.48,0,8.085,3.627,8.085,8.085v64.725c0,4.48-3.605,8.107-8.085,8.107
				c-4.459,0-8.085-3.627-8.085-8.107v-24.256H126.17v24.256c0,4.48-3.627,8.107-8.107,8.107c-4.459,0-8.085-3.627-8.085-8.107
				V140.503z"/>
		</g>
	</g>
</g>
<g>
</g>
<g>
</g>
<g>
</g>
<g>
</g>
<g>
</g>
<g>
</g>
<g>
</g>
<g>
</g>
<g>
</g>
<g>
</g>
<g>
</g>
<g>
</g>
<g>
</g>
<g>
</g>
<g>
</g>
</svg>
