<?xml version="1.0" encoding="iso-8859-1"?>
<!-- Generator: Adobe Illustrator 19.0.0, SVG Export Plug-In . SVG Version: 6.00 Build 0)  -->
<svg version="1.1" id="Layer_1" xmlns="http://www.w3.org/2000/svg" xmlns:xlink="http://www.w3.org/1999/xlink" x="0px" y="0px"
	 viewBox="0 0 512 512" style="enable-background:new 0 0 512 512;" xml:space="preserve">
<g>
	<g>
		<g>
			<path d="M256,0C205.973,0,42.667,4.608,42.667,64v85.333c0,59.371,163.307,64,213.333,64c50.048,0,213.333-4.629,213.333-64V64
				C469.333,4.608,306.048,0,256,0z M411.413,66.581c-0.853,0.277-1.472,0.576-2.389,0.853c-4.16,1.344-8.96,2.709-14.357,4.053
				c-1.301,0.32-2.901,0.64-4.267,0.96c-4.288,1.003-8.789,1.984-13.76,2.923c-2.325,0.448-4.907,0.853-7.36,1.28
				c-4.565,0.789-9.301,1.557-14.336,2.261c-2.987,0.427-6.08,0.811-9.216,1.195c-5.205,0.661-10.709,1.237-16.363,1.792
				c-3.392,0.32-6.784,0.661-10.325,0.939c-6.336,0.512-13.077,0.896-19.904,1.259c-3.349,0.192-6.549,0.405-10.027,0.555
				c-10.517,0.405-21.483,0.683-33.109,0.683c-11.605,0-22.571-0.277-33.088-0.683c-3.477-0.149-6.677-0.363-10.027-0.555
				c-6.848-0.363-13.568-0.747-19.904-1.259c-3.563-0.277-6.933-0.619-10.325-0.939c-5.675-0.555-11.157-1.131-16.384-1.792
				c-3.136-0.384-6.229-0.768-9.195-1.195c-5.035-0.704-9.792-1.472-14.336-2.261c-2.475-0.427-5.056-0.832-7.381-1.28
				c-4.949-0.939-9.472-1.92-13.739-2.923c-1.387-0.32-2.965-0.64-4.267-0.96c-5.397-1.344-10.219-2.709-14.357-4.053
				c-0.917-0.277-1.536-0.576-2.389-0.853c-2.603-0.896-4.885-1.792-6.912-2.645C116.053,54.549,171.925,42.667,256,42.667
				c84.096,0,139.968,11.883,162.325,21.269C416.299,64.789,413.995,65.685,411.413,66.581z"/>
			<path d="M256,298.667c-50.027,0-213.333,4.608-213.333,64V448c0,59.371,163.307,64,213.333,64c50.048,0,213.333-4.629,213.333-64
				v-85.333C469.333,303.275,306.048,298.667,256,298.667z M411.413,365.248c-0.853,0.277-1.472,0.576-2.389,0.853
				c-4.16,1.344-8.96,2.709-14.357,4.053c-1.301,0.32-2.901,0.64-4.267,0.96c-4.288,1.003-8.789,1.984-13.76,2.923
				c-2.325,0.448-4.907,0.853-7.36,1.28c-4.565,0.789-9.301,1.557-14.336,2.261c-2.987,0.427-6.08,0.811-9.216,1.195
				c-5.205,0.661-10.709,1.237-16.363,1.792c-3.392,0.32-6.784,0.661-10.325,0.939c-6.336,0.512-13.077,0.896-19.904,1.259
				c-3.349,0.192-6.549,0.405-10.027,0.555C278.592,383.723,267.627,384,256,384c-11.605,0-22.571-0.277-33.088-0.683
				c-3.477-0.149-6.677-0.363-10.027-0.555c-6.848-0.363-13.568-0.747-19.904-1.259c-3.563-0.277-6.933-0.619-10.325-0.939
				c-5.675-0.555-11.157-1.131-16.384-1.792c-3.136-0.384-6.229-0.768-9.195-1.195c-5.035-0.704-9.792-1.472-14.336-2.261
				c-2.475-0.427-5.056-0.832-7.381-1.28c-4.949-0.939-9.472-1.92-13.739-2.923c-1.387-0.32-2.965-0.64-4.267-0.96
				c-5.397-1.344-10.219-2.709-14.357-4.053c-0.917-0.277-1.536-0.576-2.389-0.853c-2.603-0.896-4.885-1.792-6.912-2.645
				c22.357-9.387,78.229-21.269,162.304-21.269c84.096,0,139.968,11.883,162.325,21.269
				C416.299,363.456,413.995,364.352,411.413,365.248z"/>
		</g>
	</g>
</g>
<g>
</g>
<g>
</g>
<g>
</g>
<g>
</g>
<g>
</g>
<g>
</g>
<g>
</g>
<g>
</g>
<g>
</g>
<g>
</g>
<g>
</g>
<g>
</g>
<g>
</g>
<g>
</g>
<g>
</g>
</svg>
