<?xml version="1.0" encoding="iso-8859-1"?>
<!-- Generator: Adobe Illustrator 19.0.0, SVG Export Plug-In . SVG Version: 6.00 Build 0)  -->
<svg version="1.1" id="Layer_1" xmlns="http://www.w3.org/2000/svg" xmlns:xlink="http://www.w3.org/1999/xlink" x="0px" y="0px"
	 viewBox="0 0 512 512" style="enable-background:new 0 0 512 512;" xml:space="preserve">
<g>
	<g>
		<g>
			<path d="M490.667,383.999H320c-5.675,0-11.093,2.24-15.083,6.251l-15.083,15.083h-67.669l-15.083-15.083
				c-3.989-4.011-9.408-6.251-15.083-6.251H21.333C9.536,383.999,0,393.556,0,405.332v64c0,23.531,19.136,42.667,42.667,42.667
				h426.667c23.531,0,42.667-19.136,42.667-42.667v-64C512,393.556,502.464,383.999,490.667,383.999z"/>
			<path d="M320.369,158.71c0-5.589-4.544-10.112-10.112-10.112h-10.112v20.224h10.112
				C315.825,168.822,320.369,164.278,320.369,158.71z"/>
			<path d="M42.677,341.334h140.48l15.083,15.083c4.011,3.989,9.429,6.251,15.104,6.251h85.333c5.653,0,11.072-2.261,15.083-6.251
				l15.083-15.083h140.501c11.776,0,21.333-9.557,21.333-21.333V42.668c0-23.531-19.157-42.667-42.667-42.667h-384
				c-23.531,0-42.667,19.136-42.667,42.667v277.333C21.344,331.777,30.88,341.334,42.677,341.334z M283.957,140.502
				c0-4.459,3.627-8.085,8.085-8.085h18.219c14.485,0,26.283,11.797,26.283,26.283c0,14.507-11.797,26.304-26.283,26.304h-10.112
				v20.245c0,4.459-3.627,8.085-8.107,8.085c-4.459,0-8.085-3.627-8.085-8.085V140.502z M176.8,132.652
				c4.331-1.109,8.725,1.557,9.813,5.888l9.877,39.531l15.147-40.405c1.195-3.157,4.203-5.248,7.573-5.248
				c3.392,0,6.4,2.091,7.595,5.248l15.147,40.405l9.877-39.531c1.088-4.331,5.461-6.997,9.813-5.888
				c4.331,1.088,6.976,5.483,5.888,9.813l-16.192,64.747c-0.853,3.435-3.84,5.909-7.381,6.101c-0.149,0.021-0.32,0.021-0.469,0.021
				c-3.349,0-6.379-2.091-7.573-5.248l-16.704-44.544l-16.683,44.544c-1.259,3.307-4.501,5.44-8.043,5.227
				c-3.541-0.192-6.528-2.667-7.381-6.101l-16.192-64.747C169.824,138.134,172.469,133.74,176.8,132.652z"/>
		</g>
	</g>
</g>
<g>
</g>
<g>
</g>
<g>
</g>
<g>
</g>
<g>
</g>
<g>
</g>
<g>
</g>
<g>
</g>
<g>
</g>
<g>
</g>
<g>
</g>
<g>
</g>
<g>
</g>
<g>
</g>
<g>
</g>
</svg>
