<?xml version="1.0" encoding="iso-8859-1"?>
<!-- Generator: Adobe Illustrator 19.0.0, SVG Export Plug-In . SVG Version: 6.00 Build 0)  -->
<svg xmlns="http://www.w3.org/2000/svg" xmlns:xlink="http://www.w3.org/1999/xlink" version="1.1" id="Layer_1" x="0px" y="0px" viewBox="0 0 512 512" style="enable-background:new 0 0 512 512;" xml:space="preserve">
<g>
	<g>
		<path d="M468.68,227.786H176.405l-21.843-63.01c15.893,5.317,31.657,8.005,46.189,8.005c19.108,0,36.087-4.626,48.432-13.957    c7.234-5.469,11.056-14.121,10.224-23.143c-0.83-9.002-6.156-16.79-14.244-20.831l-7.614-3.805l-20.842-98.793    c-0.005-0.026-0.014-0.05-0.02-0.076c-0.066-0.302-0.153-0.601-0.238-0.901c-0.057-0.202-0.106-0.409-0.171-0.607    c-0.063-0.191-0.143-0.381-0.214-0.571c-0.111-0.299-0.22-0.598-0.35-0.886c-0.01-0.023-0.017-0.047-0.028-0.07    c-0.051-0.113-0.115-0.215-0.168-0.327c-0.156-0.323-0.315-0.643-0.491-0.952c-0.088-0.154-0.187-0.299-0.28-0.448    c-0.165-0.265-0.331-0.532-0.512-0.785c-0.131-0.185-0.274-0.358-0.413-0.536c-0.158-0.201-0.314-0.405-0.481-0.597    c-0.173-0.199-0.357-0.386-0.54-0.575c-0.151-0.156-0.299-0.316-0.457-0.465c-0.202-0.191-0.414-0.37-0.625-0.549    c-0.156-0.133-0.311-0.268-0.473-0.395c-0.215-0.167-0.438-0.323-0.661-0.477c-0.176-0.123-0.351-0.247-0.532-0.363    c-0.212-0.134-0.431-0.257-0.65-0.381c-0.206-0.117-0.412-0.235-0.624-0.344c-0.2-0.101-0.407-0.191-0.611-0.284    c-0.24-0.108-0.48-0.217-0.726-0.314c-0.189-0.073-0.382-0.136-0.573-0.201c-0.267-0.092-0.535-0.183-0.807-0.26    c-0.188-0.053-0.379-0.094-0.569-0.139c-0.279-0.067-0.557-0.133-0.841-0.184c-0.207-0.037-0.416-0.061-0.624-0.09    c-0.266-0.036-0.531-0.074-0.8-0.096c-0.251-0.021-0.505-0.025-0.758-0.033c-0.227-0.007-0.453-0.019-0.681-0.015    c-0.313,0.004-0.626,0.029-0.94,0.053c-0.174,0.014-0.347,0.02-0.522,0.04c-0.359,0.04-0.717,0.104-1.075,0.171    c-0.116,0.022-0.231,0.031-0.348,0.055c-0.024,0.005-0.046,0.013-0.069,0.018c-0.314,0.068-0.625,0.158-0.937,0.247    c-0.191,0.054-0.386,0.1-0.573,0.161c-0.2,0.066-0.399,0.149-0.598,0.224c-0.289,0.108-0.581,0.215-0.86,0.34    c-0.024,0.011-0.049,0.018-0.073,0.029l-92.787,42.143l-7.578-3.787c-8.089-4.042-17.514-3.624-25.211,1.117    C62.5,45.897,57.877,54.148,57.847,63.217c-0.093,28.528,22.072,60.047,56.654,82.308l-50.429,82.26H43.32    C19.395,227.786,0,247.181,0,271.105v197.244c0,23.925,19.395,43.319,43.319,43.319h2.132c6.729,0,12.183-5.455,12.183-12.183    V366.507c0-15.485,12.554-28.039,28.039-28.039h66.176c15.485,0,28.039,12.554,28.039,28.039v132.979    c0,6.729,5.455,12.183,12.183,12.183h128.896c6.729,0,12.183-5.455,12.183-12.183V366.507c0-15.485,12.554-28.039,28.039-28.039    h66.176c15.485,0,28.039,12.554,28.039,28.039v132.979c0,6.729,5.454,12.183,12.183,12.183h1.093    c23.925,0,43.32-19.395,43.32-43.32V271.105C512,247.181,492.605,227.786,468.68,227.786z M191.166,36.779l12.048,57.111    l-65.608-32.783L191.166,36.779z M164.862,312.831H72.66c-8.298,0-15.026-6.728-15.026-15.026c0-8.298,6.728-15.026,15.026-15.026    h92.202c8.298,0,15.026,6.728,15.026,15.026C179.888,306.103,173.16,312.831,164.862,312.831z"/>
	</g>
</g>
<g>
</g>
<g>
</g>
<g>
</g>
<g>
</g>
<g>
</g>
<g>
</g>
<g>
</g>
<g>
</g>
<g>
</g>
<g>
</g>
<g>
</g>
<g>
</g>
<g>
</g>
<g>
</g>
<g>
</g>
</svg>
