<?xml version="1.0" encoding="iso-8859-1"?>
<!-- Generator: Adobe Illustrator 19.0.0, SVG Export Plug-In . SVG Version: 6.00 Build 0)  -->
<svg xmlns="http://www.w3.org/2000/svg" xmlns:xlink="http://www.w3.org/1999/xlink" version="1.1" id="Layer_1" x="0px" y="0px" viewBox="0 0 512.001 512.001" style="enable-background:new 0 0 512.001 512.001;" xml:space="preserve">
<g>
	<g>
		<path d="M160.987,68.211c0-14.205,5.532-27.559,15.576-37.604c5.851-5.851,5.851-15.338,0-21.19    c-5.851-5.851-15.338-5.851-21.19,0c-15.706,15.706-24.355,36.586-24.355,58.795c0,22.209,8.649,43.089,24.353,58.792    c2.926,2.926,6.761,4.389,10.595,4.389s7.67-1.463,10.595-4.389c5.851-5.851,5.851-15.338,0-21.19    C166.518,95.77,160.987,82.416,160.987,68.211z"/>
	</g>
</g>
<g>
	<g>
		<path d="M100.677,66.961c0-14.205,5.532-27.559,15.575-37.603c5.854-5.85,5.854-15.337,0.003-21.188    c-5.852-5.852-15.338-5.852-21.19,0C79.36,23.873,70.712,44.754,70.712,66.962s8.649,43.089,24.353,58.793    c2.926,2.927,6.76,4.389,10.594,4.389c3.834,0,7.67-1.463,10.594-4.389c5.852-5.851,5.852-15.338,0-21.19    C106.209,94.52,100.677,81.166,100.677,66.961z"/>
	</g>
</g>
<g>
	<g>
		<path d="M356.669,10.045c-5.853-5.856-15.339-5.854-21.191-0.002c-5.852,5.851-5.852,15.338,0,21.19    c10.044,10.045,15.576,23.4,15.576,37.604c0,14.205-5.532,27.559-15.575,37.603c-5.852,5.851-5.852,15.338,0,21.19    c2.927,2.927,6.761,4.389,10.596,4.389c3.834,0,7.67-1.463,10.594-4.389c15.704-15.704,24.353-36.583,24.353-58.792    C381.022,46.629,372.373,25.749,356.669,10.045z"/>
	</g>
</g>
<g>
	<g>
		<path d="M416.976,8.795c-5.852-5.853-15.338-5.851-21.19,0c-5.852,5.851-5.852,15.338,0,21.19    c20.734,20.734,20.734,54.472,0,75.206c-5.852,5.851-5.852,15.338,0,21.19c2.926,2.926,6.761,4.389,10.594,4.389    c3.834,0,7.67-1.463,10.596-4.389C449.394,93.962,449.394,41.213,416.976,8.795z"/>
	</g>
</g>
<g>
	<g>
		<path d="M340.58,427.953l-33.373-215.111c-0.71-4.577-4.651-7.953-9.282-7.953h-84.696c-4.632,0-8.572,3.376-9.282,7.953    l-21.015,135.447c-0.883,5.694,3.52,10.833,9.282,10.833h47.498c8.068,0,15.011,6.2,15.39,14.26    c0.406,8.605-6.451,15.708-14.967,15.708H184.65c-4.632,0-8.572,3.376-9.282,7.953l-4.796,30.911    c-14.605,2.714-25.701,15.543-25.701,30.923v21.662c0,17.375,14.086,31.461,31.461,31.461H334.82    c17.375,0,31.461-14.086,31.461-31.461v-21.662C366.281,443.497,355.185,430.668,340.58,427.953z"/>
	</g>
</g>
<g>
	<g>
		<path d="M323.707,64.883C322.001,29.178,292.439,0.586,256.7,0.009c-38.125-0.616-69.335,30.217-69.335,68.203    c-0.001,23.653,12.105,44.526,30.441,56.766c-0.262,0.786-0.477,1.596-0.608,2.442l-5.689,36.668    c-0.883,5.694,3.52,10.833,9.282,10.833h69.568c5.762,0,10.166-5.139,9.282-10.833l-5.689-36.668    c-0.131-0.846-0.347-1.656-0.607-2.442C312.537,112.166,324.904,89.897,323.707,64.883z"/>
	</g>
</g>
<g>
</g>
<g>
</g>
<g>
</g>
<g>
</g>
<g>
</g>
<g>
</g>
<g>
</g>
<g>
</g>
<g>
</g>
<g>
</g>
<g>
</g>
<g>
</g>
<g>
</g>
<g>
</g>
<g>
</g>
</svg>
