<?xml version="1.0" encoding="iso-8859-1"?>
<!-- Generator: Adobe Illustrator 19.0.0, SVG Export Plug-In . SVG Version: 6.00 Build 0)  -->
<svg xmlns="http://www.w3.org/2000/svg" xmlns:xlink="http://www.w3.org/1999/xlink" version="1.1" id="Layer_1" x="0px" y="0px" viewBox="0 0 512 512" style="enable-background:new 0 0 512 512;" xml:space="preserve">
<g>
	<g>
		<path d="M402.073,91.531H109.926c-3.61,0-6.535,2.926-6.535,6.535v316.659c0,3.61,2.926,6.535,6.535,6.535h292.147    c3.61,0,6.535-2.926,6.535-6.535V98.066C408.609,94.458,405.683,91.531,402.073,91.531z M227.235,137.485    c1.939,0,3.555,0.647,4.04,2.343l12.282,41.449l6.383-27.309c0.484-2.182,3.313-3.313,6.059-3.313c2.746,0,5.576,1.131,6.06,3.313    l6.383,27.309l12.282-41.449c0.484-1.697,2.101-2.343,4.04-2.343c3.636,0,8.161,2.263,8.161,5.009    c0,0.404-0.081,0.808-0.161,1.051l-16.079,49.285c-0.97,2.828-4.605,4.201-8.322,4.201c-3.636,0-7.514-1.374-8.161-4.201    L256,173.681l-4.201,19.149c-0.647,2.828-4.525,4.201-8.161,4.201c-3.717,0-7.434-1.374-8.322-4.201l-16.079-49.285    c-0.081-0.243-0.161-0.647-0.161-1.051C219.076,139.748,223.599,137.485,227.235,137.485z M144.741,142.494    c0-2.746,4.525-5.009,8.161-5.009c1.939,0,3.555,0.647,4.04,2.343l12.282,41.449l6.383-27.309    c0.484-2.182,3.313-3.313,6.059-3.313s5.576,1.131,6.06,3.313l6.383,27.309l12.282-41.449c0.484-1.697,2.101-2.343,4.04-2.343    c3.636,0,8.161,2.263,8.161,5.009c0,0.404-0.081,0.808-0.161,1.051L202.35,192.83c-0.97,2.828-4.605,4.201-8.322,4.201    c-3.636,0-7.514-1.374-8.161-4.201l-4.201-19.149l-4.201,19.149c-0.647,2.828-4.525,4.201-8.161,4.201    c-3.717,0-7.434-1.374-8.322-4.201l-16.079-49.285C144.822,143.302,144.741,142.899,144.741,142.494z M346.048,304.337h-99.882    c-8.306,0-15.04-6.734-15.04-15.04s6.734-15.04,15.04-15.04h99.882c8.306,0,15.04,6.734,15.04,15.04    S354.354,304.337,346.048,304.337z M346.048,250.517H165.953c-8.306,0-15.04-6.734-15.04-15.04s6.734-15.04,15.04-15.04h180.095    c8.306,0,15.04,6.734,15.04,15.04S354.354,250.517,346.048,250.517z M367.095,143.545l-16.079,49.285    c-0.97,2.828-4.605,4.201-8.322,4.201c-3.636,0-7.514-1.374-8.161-4.201l-4.201-19.149l-4.201,19.149    c-0.647,2.828-4.525,4.201-8.161,4.201c-3.717,0-7.434-1.374-8.322-4.201l-16.079-49.285c-0.081-0.243-0.161-0.647-0.161-1.051    c0-2.746,4.525-5.009,8.161-5.009c1.939,0,3.555,0.647,4.04,2.343l12.282,41.449l6.383-27.309    c0.484-2.182,3.313-3.313,6.059-3.313c2.746,0,5.576,1.131,6.06,3.313l6.383,27.309l12.282-41.449    c0.484-1.697,2.101-2.343,4.04-2.343c3.636,0,8.161,2.263,8.161,5.009C367.257,142.899,367.177,143.302,367.095,143.545z"/>
	</g>
</g>
<g>
	<g>
		<path d="M402.073,451.341H109.926c-3.61,0-6.535,2.926-6.535,6.535v14.216c0,22.04,17.867,39.908,39.908,39.908h225.403    c22.04,0,39.908-17.867,39.908-39.908v-14.216C408.609,454.267,405.683,451.341,402.073,451.341z"/>
	</g>
</g>
<g>
	<g>
		<path d="M368.702,0H143.297c-22.04,0-39.907,17.867-39.907,39.907v15.009c0,3.61,2.926,6.535,6.535,6.535h292.147    c3.61,0,6.535-2.926,6.535-6.535V39.908C408.609,17.867,390.742,0,368.702,0z"/>
	</g>
</g>
<g>
</g>
<g>
</g>
<g>
</g>
<g>
</g>
<g>
</g>
<g>
</g>
<g>
</g>
<g>
</g>
<g>
</g>
<g>
</g>
<g>
</g>
<g>
</g>
<g>
</g>
<g>
</g>
<g>
</g>
</svg>
