<?xml version="1.0" encoding="iso-8859-1"?>
<!-- Generator: Adobe Illustrator 19.0.0, SVG Export Plug-In . SVG Version: 6.00 Build 0)  -->
<svg xmlns="http://www.w3.org/2000/svg" xmlns:xlink="http://www.w3.org/1999/xlink" version="1.1" id="Layer_1" x="0px" y="0px" viewBox="0 0 512 512" style="enable-background:new 0 0 512 512;" xml:space="preserve">
<g>
	<g>
		<path d="M331.259,116.455c-10.328-10.328-24.061-16.017-38.667-16.017s-28.339,5.688-38.667,16.017    c-10.328,10.328-16.017,24.061-16.017,38.667c0,14.606,5.688,28.339,16.017,38.667c21.32,21.319,56.013,21.319,77.334,0    C352.581,172.468,352.581,137.775,331.259,116.455z M327.55,147.137c-2.942,2.942-6.798,4.414-10.654,4.414    s-7.713-1.472-10.654-4.414c-7.122-7.122-18.711-7.122-25.833,0c-5.883,5.883-15.424,5.883-21.308,0    c-5.884-5.883-5.884-15.424,0-21.308c9.142-9.142,21.295-14.175,34.224-14.175s25.083,5.034,34.224,14.175    C333.434,131.713,333.434,141.254,327.55,147.137z"/>
	</g>
</g>
<g>
	<g>
		<path d="M339.894,450.299l-45.167-31.259v-25.296c0-4.23-3.429-7.659-7.658-7.659h-62.137c-4.23,0-7.658,3.429-7.658,7.659v25.542    l-45.009,30.981c-8.437,5.807-11.96,16.38-8.631,26.129c3.184,9.327,12.218,15.391,22.073,15.391h140.643    c10.305,0,19.658-6.625,22.486-16.534C351.517,465.854,347.969,455.886,339.894,450.299z"/>
	</g>
</g>
<g>
	<g>
		<path d="M475.66,20.213H36.34C16.302,20.215,0,36.515,0,56.553v262.995c0,20.038,16.302,36.34,36.34,36.34H475.66    c20.038,0,36.34-16.302,36.34-36.34V56.553C512,36.515,495.698,20.213,475.66,20.213z M352.568,215.098    c-16.534,16.533-38.258,24.802-59.975,24.802c-11.876,0-23.743-2.489-34.771-7.43l-69.86,69.86    c-5.685,5.686-13.246,8.818-21.288,8.818c-8.042,0-15.603-3.132-21.289-8.819c-11.739-11.739-11.739-30.838,0.001-42.578    l69.83-69.83c-4.863-10.8-7.443-22.598-7.443-34.798c0-22.656,8.823-43.956,24.843-59.975    c16.02-16.021,37.319-24.843,59.975-24.843c22.655,0,43.956,8.823,59.975,24.843C385.639,128.218,385.639,182.027,352.568,215.098    z"/>
	</g>
</g>
<g>
</g>
<g>
</g>
<g>
</g>
<g>
</g>
<g>
</g>
<g>
</g>
<g>
</g>
<g>
</g>
<g>
</g>
<g>
</g>
<g>
</g>
<g>
</g>
<g>
</g>
<g>
</g>
<g>
</g>
</svg>
