<?xml version="1.0" encoding="iso-8859-1"?>
<!-- Generator: Adobe Illustrator 19.0.0, SVG Export Plug-In . SVG Version: 6.00 Build 0)  -->
<svg xmlns="http://www.w3.org/2000/svg" xmlns:xlink="http://www.w3.org/1999/xlink" version="1.1" id="Layer_1" x="0px" y="0px" viewBox="0 0 512 512" style="enable-background:new 0 0 512 512;" xml:space="preserve">
<g>
	<g>
		<path d="M437.019,74.981C388.668,26.629,324.38,0,256,0S123.333,26.629,74.981,74.981C26.629,123.332,0,187.62,0,256    s26.629,132.668,74.981,181.019C123.333,485.371,187.62,512,256,512s132.668-26.629,181.019-74.981    C485.371,388.668,512,324.38,512,256S485.371,123.332,437.019,74.981z M256,462.998c-114.138,0-206.997-92.859-206.997-206.997    S141.862,49.003,256,49.003c114.139,0,206.997,92.859,206.997,206.997S370.139,462.998,256,462.998z"/>
	</g>
</g>
<g>
	<g>
		<path d="M256,79.048c-97.572,0-176.952,79.38-176.952,176.952S158.428,432.952,256,432.952    c97.573,0,176.952-79.38,176.952-176.952S353.573,79.048,256,79.048z M344.066,280.785c-1.63,1.589-2.375,3.88-1.99,6.124    l13.872,80.88c1.077,6.276-1.455,12.5-6.609,16.243c-5.153,3.743-11.852,4.227-17.491,1.262l-72.63-38.184    c-2.016-1.06-4.424-1.06-6.439,0l-72.634,38.186c-2.451,1.288-5.104,1.925-7.743,1.925c-3.427,0-6.832-1.073-9.744-3.188    c-5.153-3.741-7.685-9.964-6.611-16.24l13.873-80.884c0.385-2.244-0.36-4.535-1.99-6.124l-58.762-57.279    c-4.558-4.44-6.17-10.963-4.203-17.02c1.967-6.058,7.105-10.389,13.407-11.305l81.207-11.801c2.253-0.327,4.201-1.743,5.209-3.785    l36.317-73.586c2.813-5.706,8.52-9.257,14.889-9.258c6.368-0.001,12.077,3.546,14.895,9.258l36.317,73.587    c1.008,2.042,2.955,3.457,5.209,3.785l81.207,11.8c6.301,0.914,11.44,5.247,13.407,11.305c1.968,6.057,0.354,12.581-4.207,17.024    L344.066,280.785z"/>
	</g>
</g>
<g>
	<g>
		<path d="M256,235.392c-11.364,0-20.609,9.244-20.609,20.608s9.245,20.608,20.609,20.608s20.608-9.244,20.608-20.608    S267.364,235.392,256,235.392z"/>
	</g>
</g>
<g>
	<g>
		<path d="M352.32,230.783c4.107-4.003,1.842-10.976-3.834-11.802l-50.98-7.408c-5.4-0.778-10.078-4.174-12.502-9.082l-22.8-46.198    c-2.538-5.143-9.871-5.143-12.409,0l-22.799,46.196c-2.425,4.909-7.106,8.306-12.522,9.087l-50.962,7.405    c-5.674,0.824-7.941,7.799-3.835,11.801l36.889,35.959c3.922,3.829,5.703,9.326,4.774,14.711l-8.706,50.763    c-0.969,5.651,4.962,9.962,10.038,7.293l45.598-23.973c4.84-2.543,10.616-2.542,15.452-0.001l45.601,23.974    c5.076,2.668,11.007-1.641,10.038-7.293l-8.708-50.774c-0.923-5.384,0.859-10.875,4.767-14.691L352.32,230.783z M256,306.653    c-27.931,0-50.654-22.722-50.654-50.653s22.723-50.653,50.654-50.653s50.653,22.722,50.653,50.653S283.931,306.653,256,306.653z"/>
	</g>
</g>
<g>
</g>
<g>
</g>
<g>
</g>
<g>
</g>
<g>
</g>
<g>
</g>
<g>
</g>
<g>
</g>
<g>
</g>
<g>
</g>
<g>
</g>
<g>
</g>
<g>
</g>
<g>
</g>
<g>
</g>
</svg>
