<?xml version="1.0" encoding="iso-8859-1"?>
<!-- Generator: Adobe Illustrator 19.0.0, SVG Export Plug-In . SVG Version: 6.00 Build 0)  -->
<svg xmlns="http://www.w3.org/2000/svg" xmlns:xlink="http://www.w3.org/1999/xlink" version="1.1" id="Layer_1" x="0px" y="0px" viewBox="0 0 512.001 512.001" style="enable-background:new 0 0 512.001 512.001;" xml:space="preserve">
<g>
	<g>
		<path d="M335.866,170.965c-1.735-36.195-31.062-65.523-67.258-67.258c-30.978-1.484-57.9,17.064-68.933,43.784    c-2.345,5.681,1.853,11.924,7.998,11.924h57.469c8.292,0,15.015,6.723,15.015,15.015v57.469c0,6.145,6.244,10.343,11.924,7.998    C318.803,228.865,337.352,201.943,335.866,170.965z"/>
	</g>
</g>
<g>
	<g>
		<path d="M206.643,223.629h-15.131c-6.769,0-10.891,7.422-7.351,13.19c4.477,7.296,10.634,13.454,17.93,17.93    c5.77,3.54,13.19-0.583,13.19-7.351v-15.13C215.28,227.496,211.413,223.629,206.643,223.629z"/>
	</g>
</g>
<g>
	<g>
		<path d="M502.253,343.419H9.824c-5.599,0-9.739,5.25-8.401,10.686c5.236,21.285,24.474,37.13,47.35,37.143l140.818,0.079    l-3.806,18.413h-25.883c-12.075,0-21.898,9.823-21.898,21.898c0,31.514,25.639,57.154,57.154,57.154h121.828    c31.514,0,57.154-25.639,57.154-57.154c0-12.075-9.823-21.898-21.898-21.898h-25.882l-3.791-18.339l140.606,0.079    c0.011,0,0.019,0,0.029,0c13.028-0.001,25.28-5.072,34.496-14.283c6.494-6.49,10.926-14.488,12.982-23.202    C511.954,348.59,507.805,343.419,502.253,343.419z"/>
	</g>
</g>
<g>
	<g>
		<path d="M463.229,23.441L48.827,23.209c-0.011,0-0.019,0-0.029,0c-13.065,0-25.348,5.1-34.573,14.359    C4.937,46.892,0,59.701,0,72.863V304.75c0,4.771,3.868,8.639,8.639,8.639h494.724c4.771,0,8.639-3.868,8.639-8.639V72.24    C512,45.346,490.121,23.455,463.229,23.441z M245.311,277.731c0,8.292-6.723,15.015-15.015,15.015    c-46.392,0-84.134-37.742-84.134-84.133c0-8.292,6.723-15.015,15.015-15.015h69.119c8.292,0,15.015,6.723,15.015,15.015V277.731z     M265.088,275.268c-8.269-0.005-14.96-6.746-14.96-15.015v-62.169c0-4.771-3.868-8.639-8.639-8.639h-62.168    c-8.269,0-15.011-6.691-15.015-14.96c-0.031-56.439,46.547-102.212,103.28-100.864c53.514,1.272,97.093,44.851,98.365,98.365    C367.299,228.72,321.527,275.298,265.088,275.268z"/>
	</g>
</g>
<g>
</g>
<g>
</g>
<g>
</g>
<g>
</g>
<g>
</g>
<g>
</g>
<g>
</g>
<g>
</g>
<g>
</g>
<g>
</g>
<g>
</g>
<g>
</g>
<g>
</g>
<g>
</g>
<g>
</g>
</svg>
