<?xml version="1.0" encoding="iso-8859-1"?>
<!-- Generator: Adobe Illustrator 19.0.0, SVG Export Plug-In . SVG Version: 6.00 Build 0)  -->
<svg xmlns="http://www.w3.org/2000/svg" xmlns:xlink="http://www.w3.org/1999/xlink" version="1.1" id="Layer_1" x="0px" y="0px" viewBox="0 0 512 512" style="enable-background:new 0 0 512 512;" xml:space="preserve">
<g>
	<g>
		<path d="M309.83,171.024c-2.726,0-4.937,2.21-4.937,4.937v113.796c0,2.726,2.21,4.937,4.937,4.937c2.727,0,4.937-2.21,4.937-4.937    V175.961C314.767,173.234,312.557,171.024,309.83,171.024z"/>
	</g>
</g>
<g>
	<g>
		<path d="M246.788,247.846h-0.807c-2.726,0-4.937,2.21-4.937,4.937v36.975c0,2.726,2.21,4.937,4.937,4.937h0.807    c2.726,0,4.937-2.21,4.937-4.937v-36.975C251.724,250.056,249.514,247.846,246.788,247.846z"/>
	</g>
</g>
<g>
	<g>
		<path d="M111.586,267.02h-0.503c-2.726,0-4.937,2.21-4.937,4.937v17.8c0,2.726,2.21,4.937,4.937,4.937h0.503    c2.726,0,4.937-2.21,4.937-4.937v-17.8C116.522,269.23,114.312,267.02,111.586,267.02z"/>
	</g>
</g>
<g>
	<g>
		<path d="M179.721,208.975h-2.014c-2.726,0-4.937,2.21-4.937,4.937v75.845c0,2.726,2.21,4.937,4.937,4.937h2.014    c2.727,0,4.937-2.21,4.937-4.937v-75.845C184.658,211.185,182.447,208.975,179.721,208.975z"/>
	</g>
</g>
<g>
	<g>
		<path d="M459.309,253.578h-50.547V39.039C408.762,17.512,391.25,0,369.724,0H57.558C36.032,0,18.519,17.512,18.519,39.039v433.922    c0,21.526,17.512,39.039,39.039,39.039h296.175h15.99h31.807c50.702,0,91.95-41.249,91.95-91.95V287.751    C493.481,268.908,478.152,253.578,459.309,253.578z M329.775,438.942H164.351c-8.288,0-15.008-6.72-15.008-15.008    c0-8.288,6.72-15.008,15.008-15.008h165.424c8.288,0,15.008,6.72,15.008,15.008C344.783,432.223,338.063,438.942,329.775,438.942z     M329.775,384.306H91.138c-8.288,0-15.008-6.72-15.008-15.008c0-8.288,6.72-15.008,15.008-15.008h238.637    c8.288,0,15.008,6.72,15.008,15.008C344.783,377.587,338.063,384.306,329.775,384.306z M344.783,301.698    c0,12.708-10.302,23.01-23.01,23.01h-23.885c-7.347,0-13.899-3.463-18.115-8.841c-0.827-1.056-2.418-1.068-3.259-0.023    c-4.342,5.4-10.998,8.863-18.451,8.863h-23.36c-8.374,0-15.744-4.371-19.955-10.951c-0.824-1.289-2.713-1.272-3.519,0.028    c-4.06,6.549-11.311,10.922-19.567,10.922h-25.899c-8.122,0-15.273-4.232-19.368-10.607c-0.817-1.273-2.681-1.273-3.499,0    c-4.095,6.374-11.246,10.607-19.368,10.607H99.139c-12.708,0-23.009-10.301-23.009-23.009v-41.683    c0-12.708,10.302-23.01,23.01-23.01h24.388c6.072,0,11.599,2.365,15.714,6.221c1.334,1.25,3.512,0.296,3.512-1.531v-39.725    c0-12.708,10.302-23.01,23.01-23.01h25.899c12.708,0,23.01,10.302,23.01,23.01v21.06c0,1.866,2.232,2.776,3.573,1.477    c4.262-4.13,10.066-6.678,16.458-6.678h23.36c5.015,0,9.669,1.568,13.501,4.239c1.399,0.976,3.312,0.008,3.312-1.698v-56.353    c0-12.708,10.302-23.01,23.01-23.01h23.885c12.708,0,23.01,10.302,23.01,23.01V301.698z M343.949,93.418l-9.429,21.717    c-2.455,5.656-7.977,9.035-13.774,9.035c-1.995,0-4.023-0.4-5.969-1.246c-4.897-2.126-8.072-6.551-8.841-11.462L96.053,184.198    c-1.627,0.563-3.286,0.831-4.916,0.831c-6.217,0-12.028-3.893-14.18-10.097c-2.713-7.832,1.435-16.381,9.266-19.095    l209.605-72.639c-2.609-4.416-2.901-10.049-0.25-14.871c3.992-7.263,13.119-9.913,20.382-5.921l20.24,11.127    c0.457,0.251,0.894,0.523,1.315,0.812C344.166,78.058,347.048,86.282,343.949,93.418z"/>
	</g>
</g>
<g>
</g>
<g>
</g>
<g>
</g>
<g>
</g>
<g>
</g>
<g>
</g>
<g>
</g>
<g>
</g>
<g>
</g>
<g>
</g>
<g>
</g>
<g>
</g>
<g>
</g>
<g>
</g>
<g>
</g>
</svg>
