<?xml version="1.0" encoding="iso-8859-1"?>
<!-- Generator: Adobe Illustrator 19.0.0, SVG Export Plug-In . SVG Version: 6.00 Build 0)  -->
<svg xmlns="http://www.w3.org/2000/svg" xmlns:xlink="http://www.w3.org/1999/xlink" version="1.1" id="Layer_1" x="0px" y="0px" viewBox="0 0 511.999 511.999" style="enable-background:new 0 0 511.999 511.999;" xml:space="preserve">
<g>
	<g>
		<path d="M256,82.658c-58.473,0-106.045,47.572-106.045,106.045c0,58.473,47.571,106.045,106.045,106.045    s106.045-47.572,106.045-106.045C362.045,130.23,314.473,82.658,256,82.658z M205.18,121.696l0.016-0.016    c5.949-5.77,15.449-5.623,21.22,0.326c5.769,5.949,5.623,15.449-0.326,21.22c-2.917,2.828-6.69,4.237-10.457,4.237    c-3.918,0-7.83-1.523-10.77-4.556C199.093,136.958,199.231,127.466,205.18,121.696z M255.999,271.115    c-45.915,0-83.27-37.355-83.27-83.27c0-8.288,6.719-15.006,15.006-15.006c8.287,0,15.006,6.719,15.006,15.006    c0,29.366,23.892,53.258,53.258,53.258c8.287,0,15.006,6.719,15.006,15.006C271.005,264.396,264.286,271.115,255.999,271.115z     M324.26,201.432c-8.287,0-15.006-6.719-15.006-15.006c0-29.366-23.892-53.258-53.258-53.258c-8.287,0-15.006-6.719-15.006-15.006    c0-8.287,6.719-15.006,15.006-15.006c45.915,0,83.27,37.355,83.27,83.27C339.266,194.714,332.547,201.432,324.26,201.432z"/>
	</g>
</g>
<g>
	<g>
		<path d="M424.936,402.698c-4.665-15.405-13.963-28.618-26.888-38.209c-11.639-8.637-25.237-13.594-39.58-14.498    c52.625-33.827,87.557-92.894,87.557-159.967C446.025,85.245,360.78,0,256,0S65.974,85.245,65.974,190.025    c0,67.073,34.931,126.139,87.557,159.967c-14.343,0.904-27.941,5.861-39.58,14.498c-12.926,9.591-22.223,22.803-26.888,38.209    l-4.023,13.283c-6.899,22.784-2.719,46.817,11.467,65.935s35.977,30.082,59.783,30.082h203.417    c23.807,0,45.597-10.964,59.783-30.082s18.365-43.151,11.467-65.935L424.936,402.698z M318.958,445.399H193.041    c-8.287,0-15.006-6.719-15.006-15.006c0-8.287,6.719-15.006,15.006-15.006h125.916c8.287,0,15.006,6.719,15.006,15.006    C333.964,438.68,327.245,445.399,318.958,445.399z M255.999,324.761c-75.023,0-136.058-61.035-136.058-136.057    S180.976,52.646,255.999,52.646c75.023,0,136.057,61.035,136.057,136.058S331.022,324.761,255.999,324.761z"/>
	</g>
</g>
<g>
</g>
<g>
</g>
<g>
</g>
<g>
</g>
<g>
</g>
<g>
</g>
<g>
</g>
<g>
</g>
<g>
</g>
<g>
</g>
<g>
</g>
<g>
</g>
<g>
</g>
<g>
</g>
<g>
</g>
</svg>
