<?xml version="1.0" encoding="iso-8859-1"?>
<!-- Generator: Adobe Illustrator 19.0.0, SVG Export Plug-In . SVG Version: 6.00 Build 0)  -->
<svg xmlns="http://www.w3.org/2000/svg" xmlns:xlink="http://www.w3.org/1999/xlink" version="1.1" id="Layer_1" x="0px" y="0px" viewBox="0 0 511.999 511.999" style="enable-background:new 0 0 511.999 511.999;" xml:space="preserve">
<g>
	<g>
		<path d="M369.025,441.51l-32.007-92.246c-1.136-3.272-4.163-5.52-7.625-5.647c-48.085-1.764-96.297-1.811-144.39-0.157    c-3.469,0.119-6.506,2.369-7.644,5.647l-32.063,92.401c-3.489,10.054-0.235,21.601,8.847,28.261    c4.367,3.202,9.719,4.772,15.134,4.772h34.619c10.596,0,20.03-6.712,23.504-16.723l29.76-85.769l29.761,85.771    c3.472,10.001,12.917,16.721,23.503,16.721h34.625c5.416,0,10.771-1.572,15.136-4.777    C369.264,463.102,372.513,451.559,369.025,441.51z"/>
	</g>
</g>
<g>
	<g>
		<path d="M256,122.017c-36.331,0-65.889,29.558-65.889,65.889c0,6.734,1.031,13.229,2.918,19.352c0.25,0.81,0.983,1.376,1.83,1.422    c20.07,1.096,43.551-0.193,67.542-3.783c20.845-3.12,40.815-7.789,58.075-13.502c0.808-0.267,1.365-1.009,1.389-1.859    c0.015-0.542,0.024-1.085,0.024-1.63C321.888,151.575,292.331,122.017,256,122.017z"/>
	</g>
</g>
<g>
	<g>
		<path d="M504.032,43.975c-5.063-4.66-11.894-7.008-18.757-6.433l-61.389,5.113c-111.401,9.277-224.371,9.277-335.772,0    l-61.389-5.113c-6.853-0.571-13.693,1.774-18.757,6.433C2.904,48.633,0,55.252,0,62.133v253.158    c0,6.879,2.904,13.498,7.966,18.158c5.062,4.66,11.895,7.002,18.759,6.435l61.389-5.113c111.401-9.279,224.371-9.279,335.772,0    l61.389,5.113h0.002c0.677,0.057,1.355,0.084,2.029,0.084c6.161,0,12.164-2.32,16.727-6.519c5.062-4.66,7.966-11.277,7.966-18.158    V62.133C512,55.252,509.096,48.633,504.032,43.975z M386.654,190.029c-6.792,6.644-16.539,13.021-28.972,18.955    c-2.888,1.378-5.904,2.721-9.03,4.03c-11.065,40.79-48.408,70.882-92.652,70.882c-35.07,0-65.802-18.908-82.553-47.062    c-0.316-0.045-0.641-0.084-0.954-0.131c-13.626-2.033-24.813-5.277-33.253-9.641c-14.63-7.566-18.951-17.511-20.002-24.522    c-3.52-23.521,22.888-40.671,48.146-51.523c14.488-34.673,48.75-59.102,88.615-59.102c28.764,0,54.61,12.72,72.218,32.827    c42.985,2.903,67.282,15.282,70.381,35.983C399.648,167.737,398.428,178.512,386.654,190.029z"/>
	</g>
</g>
<g>
	<g>
		<path d="M160.119,192.387c-0.075-1.627-1.928-2.503-3.239-1.54c-2.894,2.124-4.855,3.956-6.104,5.386    c-0.829,0.95-0.622,2.408,0.45,3.073c1.52,0.942,3.764,2.053,6.889,3.181c1.424,0.514,2.895-0.664,2.7-2.166    C160.476,197.707,160.242,195.061,160.119,192.387z"/>
	</g>
</g>
<g>
	<g>
		<path d="M304.026,227.385c-11.848,2.905-24.335,5.362-37.168,7.284c-15.91,2.381-31.549,3.815-46.34,4.305    c-1.965,0.065-2.708,2.618-1.075,3.713c10.466,7.012,23.04,11.11,36.557,11.11c20.02,0,37.971-8.984,50.063-23.123    C307.34,229.177,305.936,226.916,304.026,227.385z"/>
	</g>
</g>
<g>
	<g>
		<path d="M366.647,163.923c-2.883-1.796-8.155-3.958-16.182-5.789c-1.517-0.346-2.848,1.064-2.406,2.556    c1.403,4.738,2.449,9.627,3.109,14.637c0.19,1.444,1.799,2.209,3.054,1.47c6.874-4.049,10.822-7.482,12.852-9.806    C367.899,166.045,367.713,164.586,366.647,163.923z"/>
	</g>
</g>
<g>
</g>
<g>
</g>
<g>
</g>
<g>
</g>
<g>
</g>
<g>
</g>
<g>
</g>
<g>
</g>
<g>
</g>
<g>
</g>
<g>
</g>
<g>
</g>
<g>
</g>
<g>
</g>
<g>
</g>
</svg>
