<?xml version="1.0" encoding="iso-8859-1"?>
<!-- Generator: Adobe Illustrator 19.0.0, SVG Export Plug-In . SVG Version: 6.00 Build 0)  -->
<svg xmlns="http://www.w3.org/2000/svg" xmlns:xlink="http://www.w3.org/1999/xlink" version="1.1" id="Layer_1" x="0px" y="0px" viewBox="0 0 512 512" style="enable-background:new 0 0 512 512;" xml:space="preserve">
<g>
	<g>
		<path d="M388.538,477.764c-2.823-50.762-16.928-94.274-40.793-125.838c-3.584-4.74-7.362-9.16-11.313-13.252    c-2.896-2.998-7.71-2.968-10.583,0.052c-16.292,17.12-41.811,28.146-70.503,28.146c-28.34,0-53.586-10.757-69.901-27.519    c-2.896-2.975-7.69-2.974-10.553,0.032c-3.707,3.891-7.259,8.073-10.637,12.541c-23.865,31.563-37.971,75.077-40.793,125.837    c-0.493,8.855,2.712,17.621,8.792,24.049c6.051,6.397,14.57,10.066,23.374,10.066h200.743c8.804,0,17.324-3.669,23.374-10.066    C385.827,495.383,389.032,486.617,388.538,477.764z"/>
	</g>
</g>
<g>
	<g>
		<path d="M256,182.193c-41.463,0-75.195,33.732-75.195,75.195c0,41.464,33.732,75.196,75.195,75.196s75.195-33.732,75.195-75.196    C331.196,215.926,297.463,182.193,256,182.193z"/>
	</g>
</g>
<g>
	<g>
		<path d="M373.233,144.562c-36.099-17.452-76.374-26.676-116.47-26.676s-80.371,9.225-116.472,26.678l-1.527,0.739    c-7.465,3.609-10.589,12.588-6.979,20.053c2.591,5.359,7.948,8.481,13.527,8.481c2.192,0,4.42-0.482,6.527-1.502l1.524-0.737    c32.049-15.494,67.803-23.683,103.4-23.683s71.352,8.19,103.401,23.683c7.463,3.606,16.443,0.482,20.051-6.984    C383.825,157.149,380.699,148.171,373.233,144.562z"/>
	</g>
</g>
<g>
	<g>
		<path d="M439.592,99.579l-17.791-7.278C368.92,70.667,313.136,59.699,256,59.699S143.081,70.666,90.199,92.301l-17.791,7.278    c-7.674,3.14-11.351,11.906-8.211,19.582c3.139,7.674,11.903,11.355,19.582,8.211l17.791-7.278    C150.826,99.945,202.783,89.728,256,89.728s105.175,10.217,154.43,30.366l17.791,7.278c1.861,0.762,3.786,1.122,5.679,1.122    c5.916,0,11.524-3.52,13.902-9.333C450.942,111.486,447.267,102.719,439.592,99.579z"/>
	</g>
</g>
<g>
	<g>
		<path d="M502.667,53.746l-24.1-9.859C407.58,14.847,332.698,0.123,256,0.123S104.42,14.847,33.433,43.887l-24.1,9.859    C1.658,56.885-2.018,65.653,1.122,73.327c3.139,7.674,11.903,11.355,19.582,8.211l24.1-9.859    C112.164,44.123,183.222,30.151,256,30.151s143.836,13.972,211.197,41.528l24.1,9.859c1.861,0.762,3.786,1.122,5.679,1.122    c5.916,0,11.524-3.52,13.902-9.333C514.018,65.653,510.341,56.885,502.667,53.746z"/>
	</g>
</g>
<g>
</g>
<g>
</g>
<g>
</g>
<g>
</g>
<g>
</g>
<g>
</g>
<g>
</g>
<g>
</g>
<g>
</g>
<g>
</g>
<g>
</g>
<g>
</g>
<g>
</g>
<g>
</g>
<g>
</g>
</svg>
