<?xml version="1.0" encoding="iso-8859-1"?>
<!-- Generator: Adobe Illustrator 19.0.0, SVG Export Plug-In . SVG Version: 6.00 Build 0)  -->
<svg xmlns="http://www.w3.org/2000/svg" xmlns:xlink="http://www.w3.org/1999/xlink" version="1.1" id="Layer_1" x="0px" y="0px" viewBox="0 0 512 512" style="enable-background:new 0 0 512 512;" xml:space="preserve">
<g>
	<g>
		<path d="M476.485,81.227c-0.042,0-0.084,0-0.127,0H35.642c-0.128,0-0.254,0.001-0.38,0.002c-5.156,0.054-7.659,6.354-4.019,10.005    l40.546,40.668c12.589,12.639,30.033,19.885,47.864,19.885h272.693c17.832,0,35.276-7.246,47.859-19.88l40.314-40.692    C484.142,87.558,481.632,81.245,476.485,81.227z"/>
	</g>
</g>
<g>
	<g>
		<path d="M379.78,241.297c-16.447,0-29.828,13.38-29.828,29.827c0,16.446,13.38,29.827,29.828,29.827    c16.446,0,29.827-13.38,29.827-29.827C409.607,254.677,396.226,241.297,379.78,241.297z"/>
	</g>
</g>
<g>
	<g>
		<path d="M130.789,241.297c-16.446,0-29.827,13.38-29.827,29.827c0,16.446,13.38,29.827,29.827,29.827    c16.446,0,29.827-13.38,29.827-29.827C160.616,254.677,147.236,241.297,130.789,241.297z"/>
	</g>
</g>
<g>
	<g>
		<path d="M511.996,116.355c-0.073-5.172-6.392-7.666-10.032-3.991l-40.389,40.768c-18.222,18.297-43.445,28.772-69.228,28.772    H119.654c-25.783,0-51.005-10.477-69.199-28.743l-40.438-40.557c-3.646-3.656-9.98-1.156-10.016,4.008    C0,116.697,0,116.782,0,116.867v278.264c0,19.684,15.958,35.642,35.642,35.642h440.716c19.684,0,35.642-15.957,35.642-35.642    V116.867C512,116.697,511.999,116.526,511.996,116.355z M379.78,380.032H130.789c-8.317,0-15.06-6.743-15.06-15.06    s6.743-15.06,15.06-15.06H379.78c8.317,0,15.06,6.743,15.06,15.06S388.097,380.032,379.78,380.032z M377.03,331.007    c-30.752-1.382-55.722-26.339-57.133-57.09c-0.4-8.709,1.08-17.03,4.057-24.607c1.513-3.85-1.306-8.014-5.444-8.014H192.057    c-4.137,0-6.957,4.164-5.444,8.014c2.736,6.963,4.208,14.556,4.118,22.498c-0.357,31.636-25.754,57.873-57.364,59.206    c-34.16,1.44-62.42-25.881-62.525-59.704c-0.103-33.343,27.596-60.135,60.938-60.135h254.093v0.308    c30.203,3.063,53.853,28.641,53.853,59.638C439.726,305.089,411.329,332.549,377.03,331.007z"/>
	</g>
</g>
<g>
</g>
<g>
</g>
<g>
</g>
<g>
</g>
<g>
</g>
<g>
</g>
<g>
</g>
<g>
</g>
<g>
</g>
<g>
</g>
<g>
</g>
<g>
</g>
<g>
</g>
<g>
</g>
<g>
</g>
</svg>
