<?xml version="1.0" encoding="iso-8859-1"?>
<!-- Generator: Adobe Illustrator 19.0.0, SVG Export Plug-In . SVG Version: 6.00 Build 0)  -->
<svg xmlns="http://www.w3.org/2000/svg" xmlns:xlink="http://www.w3.org/1999/xlink" version="1.1" id="Layer_1" x="0px" y="0px" viewBox="0 0 512.001 512.001" style="enable-background:new 0 0 512.001 512.001;" xml:space="preserve">
<g>
	<g>
		<path d="M454.109,194.626c-26.731,0-49.277,18.215-55.907,42.882h-86.281c-1.476-5.535-3.77-10.804-6.82-15.666l62.174-63.716    c8.667,4.985,18.518,7.653,28.785,7.653c15.464,0,30.002-6.022,40.936-16.955c10.934-10.934,16.956-25.471,16.956-40.935    s-6.022-30-16.956-40.935c-10.934-10.934-25.472-16.955-40.936-16.955s-30.001,6.022-40.935,16.955    c-10.934,10.934-16.956,25.471-16.956,40.935c0,10.381,2.725,20.338,7.817,29.074l-62.856,64.414    c-4.043-2.142-8.291-3.764-12.642-4.883v-82.697c24.667-6.629,42.883-29.176,42.883-55.907    c0.001-31.922-25.969-57.891-57.89-57.891s-57.891,25.969-57.891,57.89c0,26.731,18.216,49.278,42.883,55.907v82.976    c-4.526,1.253-8.926,3.063-13.095,5.432l-55.837-58.702c5.147-8.771,7.901-18.783,7.901-29.222    c0-15.464-6.022-30.001-16.956-40.935c-22.572-22.571-59.299-22.571-81.87,0C69.683,84.28,63.661,98.817,63.661,114.28    s6.022,30,16.956,40.935c11.287,11.287,26.108,16.928,40.935,16.928c9.891,0,19.779-2.527,28.621-7.553l55.837,58.702    c-2.613,4.452-4.603,9.226-5.932,14.214h-87.391c-7.776-22.804-29.394-39.257-54.796-39.257C25.97,198.251,0,224.221,0,256.142    c0,31.921,25.97,57.89,57.891,57.89c28.025,0,51.457-20.02,56.761-46.508h85.427c1.301,4.88,3.237,9.552,5.767,13.922    l-57.917,57.917c-21.757-11.117-49.125-7.594-67.31,10.591c-10.934,10.934-16.956,25.471-16.956,40.935    c0,15.464,6.022,30.001,16.956,40.935c11.287,11.287,26.108,16.928,40.935,16.928c14.822,0,29.65-5.644,40.936-16.928    c10.934-10.934,16.956-25.471,16.956-40.935c0-11.3-3.229-22.098-9.227-31.364l56.852-56.852    c4.822,2.792,10.012,4.863,15.441,6.152v89.38c-24.667,6.629-42.883,29.175-42.883,55.906c0,31.921,25.97,57.891,57.891,57.891    c31.921,0,57.891-25.97,57.891-57.891c0-26.731-18.216-49.277-42.883-55.906v-90.185c4.958-1.469,9.684-3.609,14.082-6.359    l59.66,59.66c-5.278,8.853-8.098,18.993-8.098,29.568c0,15.464,6.022,30.001,16.956,40.935    c10.934,10.934,25.472,16.955,40.935,16.955c15.464,0,30.002-6.022,40.936-16.955c10.934-10.934,16.956-25.471,16.956-40.935    c0-15.464-6.022-30-16.956-40.935c-10.934-10.934-25.472-16.955-40.936-16.955c-10.073,0-19.745,2.57-28.292,7.374l-60.643-60.643    c2.065-3.868,3.664-7.96,4.796-12.204h86.281c6.629,24.667,29.176,42.883,55.907,42.883c31.921,0,57.891-25.97,57.891-57.891    S486.03,194.626,454.109,194.626z"/>
	</g>
</g>
<g>
</g>
<g>
</g>
<g>
</g>
<g>
</g>
<g>
</g>
<g>
</g>
<g>
</g>
<g>
</g>
<g>
</g>
<g>
</g>
<g>
</g>
<g>
</g>
<g>
</g>
<g>
</g>
<g>
</g>
</svg>
