<?xml version="1.0" encoding="iso-8859-1"?>
<!-- Generator: Adobe Illustrator 19.0.0, SVG Export Plug-In . SVG Version: 6.00 Build 0)  -->
<svg xmlns="http://www.w3.org/2000/svg" xmlns:xlink="http://www.w3.org/1999/xlink" version="1.1" id="Layer_1" x="0px" y="0px" viewBox="0 0 512 512" style="enable-background:new 0 0 512 512;" xml:space="preserve">
<g>
	<g>
		<path d="M384.558,0H69.119C42.935,0,21.633,21.302,21.633,47.486v215.407v83.434c0,8.293,6.723,15.016,15.016,15.016    c4.224,0,8.034-1.75,10.763-4.557L171.73,277.91h212.827c26.183,0,47.485-21.302,47.485-47.485V47.486    C432.043,21.302,410.741,0,384.558,0z M247.247,193.9c0,15.608-12.698,28.305-28.305,28.305h-98.243    c-15.607,0-28.305-12.698-28.305-28.305v-59.301c0-15.608,12.698-28.305,28.305-28.305h98.243    c15.607,0,28.305,12.698,28.305,28.305V193.9z M342.645,136.327h-66.599c-8.293,0-15.016-6.723-15.016-15.016    c0-8.293,6.723-15.016,15.016-15.016h66.599c8.293,0,15.016,6.723,15.016,15.016C357.662,129.604,350.938,136.327,342.645,136.327    z M342.645,86.395H107.412c-8.293,0-15.016-6.723-15.016-15.016c0-8.293,6.723-15.016,15.016-15.016h235.234    c8.293,0,15.016,6.723,15.016,15.016C357.662,79.672,350.938,86.395,342.645,86.395z"/>
	</g>
</g>
<g>
	<g>
		<path d="M206.039,136.327h-72.437c-6.172,0-11.175,5.003-11.175,11.175v33.496c0,6.172,5.003,11.175,11.175,11.175h72.437    c6.172,0,11.175-5.003,11.175-11.175v-33.496C217.214,141.329,212.211,136.327,206.039,136.327z"/>
	</g>
</g>
<g>
	<g>
		<path d="M457.866,303.558H288.004c-17.92,0-32.501,14.58-32.501,32.501v98.511c0,17.92,14.58,32.501,32.501,32.501h112.593    l64.725,41.066c2.66,2.394,6.169,3.862,10.028,3.862c8.293,0,15.016-6.723,15.016-15.016v-44.928V336.059    C490.367,318.139,475.787,303.558,457.866,303.558z M427.037,424.894h-33.691c-8.293,0-15.016-6.723-15.016-15.016    c0-8.293,6.723-15.016,15.016-15.016h33.691c8.293,0,15.016,6.723,15.016,15.016C442.054,418.171,435.331,424.894,427.037,424.894    z M427.037,378.12H321.299c-8.293,0-15.016-6.723-15.016-15.016c0-8.293,6.723-15.016,15.016-15.016h105.738    c8.293,0,15.016,6.723,15.016,15.016C442.054,371.396,435.331,378.12,427.037,378.12z"/>
	</g>
</g>
<g>
</g>
<g>
</g>
<g>
</g>
<g>
</g>
<g>
</g>
<g>
</g>
<g>
</g>
<g>
</g>
<g>
</g>
<g>
</g>
<g>
</g>
<g>
</g>
<g>
</g>
<g>
</g>
<g>
</g>
</svg>
