<?xml version="1.0" encoding="iso-8859-1"?>
<!-- Generator: Adobe Illustrator 19.0.0, SVG Export Plug-In . SVG Version: 6.00 Build 0)  -->
<svg xmlns="http://www.w3.org/2000/svg" xmlns:xlink="http://www.w3.org/1999/xlink" version="1.1" id="Layer_1" x="0px" y="0px" viewBox="0 0 511.999 511.999" style="enable-background:new 0 0 511.999 511.999;" xml:space="preserve">
<g>
	<g>
		<path d="M394.483,368.853c-5.759-2.165-12.223,0.453-14.982,5.953c-20.601,41.076-74.944,81.27-118.237,83.074    c-53.526,2.23-109.76-40.298-128.009-82.473c-2.594-5.994-9.395-8.87-15.509-6.573c-31.371,11.787-53.754,42.09-53.754,77.529    v38.143c0,15.183,12.309,27.493,27.493,27.493h329.244c15.183,0,27.493-12.309,27.493-27.493v-38.144    C448.222,410.931,425.843,380.645,394.483,368.853z"/>
	</g>
</g>
<g>
	<g>
		<path d="M445.611,175.155C438.307,77.349,356.393,0,256.75,0C156.638,0,74.431,78.083,67.801,176.543    c-14.916,0.307-26.916,12.486-26.916,27.475v88.511c0,15.182,12.307,27.49,27.49,27.49h25.656c12.092,0,22.38-7.844,26.047-18.714    c6.692,19.105,15.137,37.428,25.075,54.018c30.425,50.822,69.836,78.812,110.95,78.812c41.124,0,80.526-27.991,110.95-78.812    c10.008-16.72,18.513-35.194,25.236-54.448c3.947,10.339,13.975,17.692,25.676,17.692h25.646c15.187,0,27.5-12.312,27.5-27.5    v-88.5C471.114,188.053,459.865,176.174,445.611,175.155z M175.54,261.851c-8.299,0-15.027-6.728-15.027-15.027    s6.728-15.027,15.027-15.027h43.588c8.299,0,15.027,6.728,15.027,15.027s-6.728,15.027-15.027,15.027H175.54z M298.957,357.708    c-11.16,6.792-26.082,11.81-42.397,11.81c-13.329,0-27.586-3.347-41.491-11.811c-7.089-4.315-9.338-13.559-5.023-20.648    c4.316-7.09,13.56-9.338,20.649-5.023c19.402,11.809,39.912,7.743,52.634-0.001c7.09-4.314,16.335-2.066,20.649,5.024    C308.295,344.147,306.046,353.392,298.957,357.708z M336.809,261.851h-43.588c-8.299,0-15.027-6.728-15.027-15.027    s6.728-15.027,15.027-15.027h43.588c8.299,0,15.027,6.728,15.027,15.027S345.108,261.851,336.809,261.851z M410.51,176.104    c-1.203,0.34-1.983,1.515-1.841,2.758c0.001,0.007,0.002,0.014,0.002,0.021c0.1,1.022,0.2,2.054,0.291,3.086    c0.1,1.152,0.19,2.314,0.271,3.476c0.02,0.21,0.03,0.421,0.05,0.641c0.08,1.152,0.15,2.324,0.21,3.496v0.06    c0.07,1.302,0.13,2.605,0.17,3.917c0.05,1.312,0.09,2.625,0.11,3.957c-2.825-0.22-6.071-0.481-9.798-0.771    c-2.945-0.23-5.931-0.471-8.706-0.681c-6.612-0.521-12.102-0.952-13.454-1.062c-25.134-0.673-47.187-14.959-60.715-36.691    c-1.974-3.171-6.437-3.471-8.898-0.661c-6.568,7.499-14.29,14.498-23.105,20.884c-30.625,22.2-71.088,34.422-113.946,34.422    c-16.981,0-33.641-1.913-49.63-5.71c-2.014-0.471-4.017-0.982-6.011-1.513c-0.096-0.024-0.265-0.066-0.498-0.124    c-0.155-0.039-0.35-0.088-0.56-0.14c-0.183-0.046-0.387-0.097-0.609-0.153c-1.37-0.345-3.438-0.865-5.846-1.47    c-0.265-0.067-0.536-0.134-0.808-0.203c-0.302-0.075-0.605-0.152-0.915-0.229c-0.927-0.232-1.883-0.472-2.858-0.716    c-0.012-0.003-0.024-0.006-0.036-0.009h-0.001c-0.331-0.08-0.651-0.16-0.972-0.24v-0.281c0-7.534,0.333-14.825,1.007-21.86    c0.117-1.221-0.629-2.371-1.808-2.711c-1.201-0.347-2.435-0.612-3.698-0.792c6.44-81.996,75.219-146.748,158.841-146.748    c83.078,0,151.498,63.913,158.701,145.15C413.756,175.359,412.1,175.654,410.51,176.104z"/>
	</g>
</g>
<g>
</g>
<g>
</g>
<g>
</g>
<g>
</g>
<g>
</g>
<g>
</g>
<g>
</g>
<g>
</g>
<g>
</g>
<g>
</g>
<g>
</g>
<g>
</g>
<g>
</g>
<g>
</g>
<g>
</g>
</svg>
