<?xml version="1.0" encoding="iso-8859-1"?>
<!-- Generator: Adobe Illustrator 19.0.0, SVG Export Plug-In . SVG Version: 6.00 Build 0)  -->
<svg xmlns="http://www.w3.org/2000/svg" xmlns:xlink="http://www.w3.org/1999/xlink" version="1.1" id="Layer_1" x="0px" y="0px" viewBox="0 0 512.003 512.003" style="enable-background:new 0 0 512.003 512.003;" xml:space="preserve">
<g>
	<g>
		<path d="M155.942,134.177H97.646c-7.417,0-13.43,6.013-13.43,13.43v58.295c0,7.417,6.013,13.43,13.43,13.43h58.296    c7.417,0,13.43-6.013,13.43-13.43v-58.295C169.372,140.19,163.359,134.177,155.942,134.177z"/>
	</g>
</g>
<g>
	<g>
		<path d="M503.054,160.658l-18.317-21.711c-2.552-3.025-6.308-4.77-10.265-4.77h-122.16c-7.417,0-13.43,6.013-13.43,13.43v58.295    c0,7.417,6.013,13.43,13.43,13.43h146.258c7.417,0,13.43-6.013,13.43-13.43v-20.766C512,176.191,508.823,167.498,503.054,160.658z    "/>
	</g>
</g>
<g>
	<g>
		<path d="M227.704,53.392H37.96C16.995,53.392,0,70.387,0,91.352V259.24c0,7.417,6.013,13.43,13.43,13.43H56.19    c8.098,0,15.066,6.223,15.447,14.312c0.407,8.636-6.475,15.765-15.021,15.765H13.43c-7.417,0-13.43,6.013-13.43,13.43v37.225    c0,20.965,16.995,37.96,37.96,37.96h15.29h0.407c3.919,37.731,35.903,67.248,74.653,67.248c38.75,0,70.734-29.518,74.653-67.248    h24.739c7.417,0,13.43-6.013,13.43-13.43V66.823C241.135,59.405,235.122,53.392,227.704,53.392z M143.272,385.029    c-0.05,0.491-0.12,0.983-0.221,1.464c-0.09,0.481-0.211,0.952-0.361,1.424c-0.14,0.472-0.301,0.933-0.491,1.385    c-0.19,0.45-0.401,0.901-0.632,1.332c-0.231,0.432-0.481,0.862-0.752,1.264c-0.271,0.411-0.571,0.812-0.872,1.192    c-0.321,0.381-0.652,0.752-0.993,1.093c-0.351,0.352-0.722,0.683-1.103,0.993c-0.381,0.312-0.782,0.612-1.193,0.882    c-0.401,0.272-0.832,0.522-1.263,0.752c-0.431,0.231-0.872,0.441-1.323,0.632c-0.461,0.181-0.922,0.352-1.394,0.491    c-0.461,0.15-0.942,0.272-1.424,0.361c-0.481,0.1-0.972,0.17-1.464,0.221s-0.983,0.08-1.474,0.08c-0.491,0-0.993-0.03-1.484-0.08    c-0.481-0.05-0.972-0.12-1.454-0.221c-0.481-0.09-0.962-0.211-1.434-0.361c-0.461-0.14-0.932-0.311-1.384-0.491    c-0.451-0.19-0.902-0.4-1.333-0.632c-0.431-0.23-0.852-0.48-1.263-0.752c-0.411-0.271-0.802-0.57-1.183-0.882    c-0.381-0.311-0.752-0.642-1.103-0.993c-0.341-0.341-0.682-0.712-0.992-1.093s-0.602-0.781-0.872-1.192    c-0.271-0.401-0.531-0.832-0.762-1.264c-0.231-0.431-0.441-0.882-0.622-1.332c-0.19-0.451-0.361-0.912-0.501-1.385    c-0.14-0.471-0.261-0.941-0.361-1.424c-0.1-0.48-0.17-0.972-0.221-1.464c-0.05-0.49-0.07-0.982-0.07-1.474s0.02-0.993,0.07-1.484    c0.05-0.48,0.12-0.972,0.221-1.453c0.1-0.481,0.221-0.962,0.361-1.435c0.14-0.461,0.311-0.932,0.501-1.384    c0.18-0.451,0.391-0.901,0.622-1.333c0.231-0.431,0.491-0.852,0.762-1.263s0.561-0.812,0.872-1.183    c0.311-0.392,0.652-0.752,0.992-1.104c3.148-3.148,7.67-4.782,12.111-4.33c0.491,0.05,0.982,0.12,1.464,0.221    c0.481,0.1,0.962,0.221,1.424,0.361c0.471,0.14,0.932,0.311,1.394,0.501c0.451,0.18,0.892,0.391,1.323,0.621    c0.431,0.231,0.862,0.491,1.263,0.763c0.411,0.271,0.812,0.561,1.193,0.872s0.752,0.642,1.103,0.992    c0.341,0.352,0.672,0.723,0.993,1.104c0.301,0.371,0.602,0.772,0.872,1.183c0.271,0.411,0.521,0.832,0.752,1.263    c0.231,0.432,0.441,0.882,0.632,1.333c0.19,0.451,0.351,0.922,0.491,1.384c0.15,0.472,0.271,0.952,0.361,1.435    c0.1,0.48,0.17,0.973,0.221,1.453c0.05,0.491,0.08,0.992,0.08,1.484C143.352,384.047,143.322,384.539,143.272,385.029z     M199.45,219.759h-0.001c0,16.35-13.301,29.651-29.651,29.651h-86.01c-16.349,0-29.65-13.302-29.65-29.651V133.75    c0-16.35,13.301-29.65,29.651-29.65h86.01c16.35,0,29.651,13.301,29.651,29.65V219.759z"/>
	</g>
</g>
<g>
	<g>
		<path d="M498.57,249.41H338.455c-16.375,0-29.65-13.275-29.65-29.65v-86.01c0-16.375,13.275-29.65,29.65-29.65h87.98    c11.425,0,17.632-13.358,10.265-22.091l-12.769-15.134c-7.229-8.569-17.804-13.482-29.013-13.482H284.642    c-7.417,0-13.43,6.013-13.43,13.43v192.418c0,7.417,6.013,13.43,13.43,13.43h5.035c8.098,0,15.066,6.223,15.447,14.312    c0.407,8.636-6.475,15.765-15.021,15.765h-5.459c-7.417,0-13.43,6.013-13.43,13.43v61.755c0,7.417,6.013,13.43,13.43,13.43h23.294    c4.265,37.369,36.066,66.498,74.558,66.498c38.491,0,70.293-29.13,74.558-66.498h16.99c20.965,0,37.96-16.995,37.96-37.96v-90.564    C512,255.424,505.988,249.41,498.57,249.41z M397.452,384.277c-0.04,0.491-0.12,0.982-0.221,1.464    c-0.09,0.481-0.211,0.962-0.351,1.424c-0.15,0.472-0.311,0.933-0.501,1.385c-0.19,0.461-0.401,0.901-0.632,1.332    c-0.231,0.432-0.481,0.862-0.752,1.264c-0.271,0.411-0.571,0.812-0.872,1.192c-0.321,0.381-0.652,0.752-1.003,1.093    c-0.341,0.352-0.712,0.683-1.093,1.003c-0.381,0.302-0.782,0.603-1.193,0.872c-0.401,0.272-0.832,0.522-1.263,0.752    c-0.431,0.231-0.872,0.441-1.323,0.632c-0.461,0.181-0.922,0.352-1.394,0.491c-0.461,0.15-0.942,0.272-1.424,0.361    c-0.481,0.1-0.972,0.17-1.464,0.221c-0.491,0.05-0.982,0.08-1.474,0.08s-0.993-0.03-1.484-0.08    c-0.481-0.05-0.972-0.12-1.454-0.221c-0.481-0.09-0.962-0.211-1.434-0.361c-0.461-0.14-0.932-0.311-1.384-0.491    c-0.451-0.189-0.902-0.4-1.333-0.632c-0.431-0.23-0.852-0.48-1.263-0.752c-0.411-0.271-0.802-0.57-1.183-0.872    c-0.381-0.32-0.752-0.651-1.103-1.003c-0.341-0.341-0.682-0.712-0.993-1.093s-0.602-0.781-0.872-1.192    c-0.271-0.401-0.531-0.832-0.762-1.264c-0.221-0.431-0.441-0.871-0.622-1.332c-0.19-0.451-0.361-0.912-0.501-1.385    c-0.14-0.461-0.261-0.941-0.361-1.424c-0.09-0.48-0.17-0.973-0.221-1.464c-0.05-0.49-0.07-0.982-0.07-1.474    c0-0.492,0.02-0.992,0.07-1.484c0.05-0.48,0.13-0.973,0.221-1.453c0.1-0.481,0.221-0.962,0.361-1.435    c0.14-0.461,0.311-0.932,0.501-1.384c0.18-0.451,0.401-0.901,0.622-1.333c0.231-0.431,0.491-0.852,0.762-1.263    c0.271-0.411,0.561-0.812,0.872-1.183c0.311-0.381,0.652-0.752,0.993-1.104c0.351-0.351,0.722-0.682,1.103-0.992    c0.371-0.312,0.772-0.603,1.183-0.872c0.411-0.272,0.832-0.531,1.263-0.763c0.431-0.23,0.882-0.44,1.333-0.621    c0.451-0.19,0.922-0.361,1.384-0.501c0.471-0.141,0.952-0.262,1.434-0.361c0.481-0.099,0.973-0.17,1.454-0.221    c4.451-0.451,8.973,1.183,12.111,4.33c0.351,0.352,0.682,0.723,1.003,1.104c0.301,0.371,0.602,0.772,0.872,1.183    s0.521,0.832,0.752,1.263c0.231,0.432,0.441,0.882,0.632,1.333c0.19,0.451,0.351,0.922,0.501,1.384    c0.14,0.472,0.261,0.952,0.351,1.435c0.1,0.48,0.18,0.972,0.221,1.453c0.05,0.491,0.08,0.993,0.08,1.484    S397.502,383.787,397.452,384.277z"/>
	</g>
</g>
<g>
</g>
<g>
</g>
<g>
</g>
<g>
</g>
<g>
</g>
<g>
</g>
<g>
</g>
<g>
</g>
<g>
</g>
<g>
</g>
<g>
</g>
<g>
</g>
<g>
</g>
<g>
</g>
<g>
</g>
</svg>
