<?xml version="1.0" encoding="iso-8859-1"?>
<!-- Generator: Adobe Illustrator 19.0.0, SVG Export Plug-In . SVG Version: 6.00 Build 0)  -->
<svg xmlns="http://www.w3.org/2000/svg" xmlns:xlink="http://www.w3.org/1999/xlink" version="1.1" id="Layer_1" x="0px" y="0px" viewBox="0 0 511.998 511.998" style="enable-background:new 0 0 511.998 511.998;" xml:space="preserve">
<g>
	<g>
		<path d="M507.925,354.844c-1.681-8.817-7.015-16.515-14.414-21.597l-81.464-55.946c-13.296-9.132-31.226-7.481-42.629,3.925    l-45.143,45.143l-28.279-28.279l48.345-48.345c3.274-3.274,3.274-8.582,0-11.856l-70.883-70.89c-3.274-3.274-8.582-3.275-11.857,0    l-48.188,48.188l-27.122-27.122l45.144-45.143c11.407-11.406,13.056-29.334,3.925-42.628l-56.284-81.956    c-5.651-8.227-14.591-13.471-24.529-14.386c-9.927-0.914-19.686,2.607-26.745,9.666L10.465,130.952    c-6.324,6.324-9.807,14.732-9.807,23.674s3.483,17.351,9.807,23.674l69.118,69.119c6.324,6.324,14.732,9.806,23.674,9.806    s17.351-3.483,23.674-9.807l38.117-38.117l27.122,27.122l-69.017,69.017c-13.053,13.055-13.053,34.294,0.001,47.349l7.078,7.078    l-48.13,48.13c-5.865,5.864-5.865,15.374,0,21.239c2.933,2.932,6.776,4.399,10.619,4.399c3.843,0,7.687-1.467,10.619-4.399    l48.13-48.129l7.078,7.078c6.528,6.527,15.101,9.79,23.674,9.79c8.573,0,17.148-3.264,23.674-9.791l68.856-68.856l28.279,28.279    l-37.665,37.664c-6.277,6.277-10.111,14.696-10.254,23.571c-0.147,9.151,3.348,17.776,9.803,24.231l69.118,69.119    c6.324,6.324,14.732,9.806,23.674,9.806s17.351-3.483,23.674-9.807L498.72,384.857    C506.55,377.027,510.029,365.885,507.925,354.844z"/>
	</g>
</g>
<g>
	<g>
		<path d="M502.127,207.155L304.185,9.213c-8.375-8.376-20.58-11.318-31.843-7.679c-11.289,3.645-19.48,13.189-21.38,24.908    c-7.064,43.594,22.483,105.873,75.274,158.664c47.605,47.606,102.924,76.308,145.301,76.308c4.615,0,9.081-0.34,13.363-1.034    c11.717-1.898,21.261-10.09,24.907-21.378C513.444,227.734,510.502,215.531,502.127,207.155z"/>
	</g>
</g>
<g>
</g>
<g>
</g>
<g>
</g>
<g>
</g>
<g>
</g>
<g>
</g>
<g>
</g>
<g>
</g>
<g>
</g>
<g>
</g>
<g>
</g>
<g>
</g>
<g>
</g>
<g>
</g>
<g>
</g>
</svg>
