<?xml version="1.0" encoding="iso-8859-1"?>
<!-- Generator: Adobe Illustrator 19.0.0, SVG Export Plug-In . SVG Version: 6.00 Build 0)  -->
<svg xmlns="http://www.w3.org/2000/svg" xmlns:xlink="http://www.w3.org/1999/xlink" version="1.1" id="Layer_1" x="0px" y="0px" viewBox="0 0 512 512" style="enable-background:new 0 0 512 512;" xml:space="preserve">
<g>
	<g>
		<path d="M373.237,148.594c-36.099-17.452-76.374-26.677-116.469-26.677c-40.096,0-80.371,9.225-116.466,26.676l-1.527,0.738    c-7.466,3.607-10.594,12.585-6.987,20.051c2.591,5.361,7.949,8.486,13.53,8.486c2.191,0,4.417-0.482,6.521-1.499l1.53-0.74    c32.048-15.494,67.803-23.683,103.4-23.683s71.351,8.19,103.4,23.683c7.465,3.609,16.444,0.483,20.053-6.983    C383.828,161.182,380.702,152.204,373.237,148.594z"/>
	</g>
</g>
<g>
	<g>
		<path d="M440.486,103.611l-17.792-7.279c-52.882-21.633-108.665-32.601-165.8-32.601S143.977,74.7,91.095,96.332l-17.792,7.278    c-7.674,3.14-11.352,11.906-8.212,19.582s11.909,11.351,19.582,8.212l17.792-7.278c49.255-20.149,101.213-30.366,154.43-30.366    c53.218,0,105.175,10.217,154.43,30.366l17.791,7.278c1.861,0.762,3.786,1.122,5.679,1.122c5.916,0,11.523-3.519,13.902-9.333    C451.837,115.518,448.161,106.751,440.486,103.611z"/>
	</g>
</g>
<g>
	<g>
		<path d="M502.666,57.778l-24.1-9.859C407.579,18.879,332.697,4.155,256,4.155S104.421,18.879,33.433,47.92l-24.1,9.859    C1.658,60.918-2.018,69.685,1.122,77.36s11.907,11.351,19.582,8.212l24.1-9.859C112.164,48.156,183.221,34.184,256,34.184    c72.78,0,143.837,13.972,211.197,41.529l24.1,9.859c1.861,0.762,3.786,1.122,5.679,1.122c5.916,0,11.524-3.519,13.902-9.333    C514.018,69.685,510.341,60.918,502.666,57.778z"/>
	</g>
</g>
<g>
	<g>
		<path d="M315.858,393.032L279.5,262.715c15.19-8.633,25.214-25.349,24.144-44.264c-1.378-24.356-21.373-43.978-45.751-44.925    c-27.169-1.055-49.609,20.742-49.609,47.682c0,17.773,9.773,33.297,24.222,41.508L196.15,393.032    c-1.558,5.576,2.635,11.1,8.426,11.1h102.855C313.221,404.132,317.414,398.609,315.858,393.032z"/>
	</g>
</g>
<g>
	<g>
		<path d="M327.384,434.345H184.623c-18.761,2.227-33.362,18.222-33.362,37.573v10.406c0,14.073,11.449,25.521,25.521,25.521    h158.444c14.072,0,25.521-11.449,25.521-25.521v-10.406C360.746,452.567,346.145,436.572,327.384,434.345z"/>
	</g>
</g>
<g>
</g>
<g>
</g>
<g>
</g>
<g>
</g>
<g>
</g>
<g>
</g>
<g>
</g>
<g>
</g>
<g>
</g>
<g>
</g>
<g>
</g>
<g>
</g>
<g>
</g>
<g>
</g>
<g>
</g>
</svg>
