<?xml version="1.0" encoding="iso-8859-1"?>
<!-- Generator: Adobe Illustrator 19.0.0, SVG Export Plug-In . SVG Version: 6.00 Build 0)  -->
<svg xmlns="http://www.w3.org/2000/svg" xmlns:xlink="http://www.w3.org/1999/xlink" version="1.1" id="Layer_1" x="0px" y="0px" viewBox="0 0 512.001 512.001" style="enable-background:new 0 0 512.001 512.001;" xml:space="preserve">
<g>
	<g>
		<path d="M69.909,342.557H41.571c-22.921,0-41.566,18.646-41.566,41.566v63.211c0,22.92,18.646,41.566,41.566,41.566h28.338    c22.921,0,41.566-18.646,41.566-41.566v-63.211C111.476,361.204,92.83,342.557,69.909,342.557z"/>
	</g>
</g>
<g>
	<g>
		<path d="M334.783,303.897h-21.235c-22.92,0-41.566,18.646-41.566,41.566v101.871c0,22.92,18.647,41.566,41.566,41.566h21.235    c22.921,0,41.566-18.646,41.566-41.566V345.463C376.351,322.543,357.704,303.897,334.783,303.897z"/>
	</g>
</g>
<g>
	<g>
		<path d="M503.662,48.648c-0.595-0.454-1.216-0.884-1.892-1.255l-40.808-22.435c-7.27-3.995-16.399-1.343-20.393,5.924    c-3.995,7.268-1.344,16.398,5.924,20.393l13.243,7.281L10.103,214.379c-7.836,2.715-11.987,11.269-9.271,19.105    c2.152,6.209,7.967,10.103,14.188,10.103c1.631,0,3.291-0.268,4.918-0.832L469.863,86.834l-5.665,13.048    c-3.304,7.607,0.186,16.452,7.794,19.755c1.947,0.846,3.976,1.246,5.973,1.246c5.8,0,11.325-3.381,13.782-9.04l19.011-43.786    C513.955,60.691,510.773,52.18,503.662,48.648z"/>
	</g>
</g>
<g>
	<g>
		<path d="M243.773,348.5l-107.594,56.707c-1.136,0.599-1.847,1.778-1.847,3.062v19.026c0,2.606,2.77,4.277,5.076,3.062L247,373.649    c1.136-0.599,1.847-1.778,1.847-3.062v-19.026C248.847,348.956,246.077,347.284,243.773,348.5z"/>
	</g>
</g>
<g>
	<g>
		<path d="M243.773,285.593L136.179,342.3c-1.136,0.599-1.847,1.778-1.847,3.062v21.132c0,2.606,2.77,4.277,5.076,3.062    l107.594-56.707c1.136-0.599,1.847-1.778,1.847-3.062v-21.132C248.847,286.049,246.077,284.378,243.773,285.593z"/>
	</g>
</g>
<g>
	<g>
		<path d="M244.018,247.668c-6.986-13.157-20.831-22.14-36.737-22.14h-31.382c-22.957,0-41.566,18.61-41.566,41.566v36.493    c0,2.606,2.77,4.277,5.076,3.062l103.135-54.357C244.213,251.411,244.904,249.335,244.018,247.668z"/>
	</g>
</g>
<g>
	<g>
		<path d="M243.773,409.3L141.3,463.309c-1.756,0.925-2.358,3.124-1.362,4.841c7.202,12.397,20.621,20.753,35.96,20.753h31.382    c22.957,0,41.566-18.61,41.566-41.566v-34.975C248.847,409.757,246.077,408.085,243.773,409.3z"/>
	</g>
</g>
<g>
	<g>
		<path d="M506.006,268.206L402.47,326.861c-1.084,0.615-1.755,1.765-1.755,3.011v18.327c0,2.652,2.86,4.319,5.168,3.011    l103.535-58.655c1.084-0.615,1.755-1.765,1.755-3.011v-18.327C511.172,268.565,508.312,266.899,506.006,268.206z"/>
	</g>
</g>
<g>
	<g>
		<path d="M506.006,329.007L402.47,387.662c-1.084,0.615-1.755,1.765-1.755,3.011v19.582c0,2.652,2.86,4.319,5.168,3.011    l103.535-58.655c1.084-0.615,1.755-1.765,1.755-3.011v-19.582C511.172,329.366,508.312,327.699,506.006,329.007z"/>
	</g>
</g>
<g>
	<g>
		<path d="M506.006,205.299L402.47,263.954c-1.084,0.615-1.755,1.765-1.755,3.011v20.432c0,2.652,2.86,4.319,5.168,3.011    l103.535-58.655c1.084-0.615,1.755-1.765,1.755-3.011V208.31C511.172,205.66,508.312,203.993,506.006,205.299z"/>
	</g>
</g>
<g>
	<g>
		<path d="M506.006,391.062l-103.163,58.444c-1.233,0.699-1.922,2.08-1.731,3.485c2.768,20.253,20.17,35.911,41.171,35.911h27.323    c22.957,0,41.566-18.61,41.566-41.566v-53.261C511.172,391.422,508.312,389.755,506.006,391.062z"/>
	</g>
</g>
<g>
	<g>
		<path d="M504.179,167.525c-7.463-11.154-20.174-18.514-34.573-18.514h-27.323c-22.957,0-41.568,18.61-41.568,41.568v33.914    c0,2.652,2.86,4.319,5.168,3.011l97.128-55.025C504.768,171.483,505.301,169.203,504.179,167.525z"/>
	</g>
</g>
<g>
</g>
<g>
</g>
<g>
</g>
<g>
</g>
<g>
</g>
<g>
</g>
<g>
</g>
<g>
</g>
<g>
</g>
<g>
</g>
<g>
</g>
<g>
</g>
<g>
</g>
<g>
</g>
<g>
</g>
</svg>
