<?xml version="1.0" encoding="iso-8859-1"?>
<!-- Generator: Adobe Illustrator 19.0.0, SVG Export Plug-In . SVG Version: 6.00 Build 0)  -->
<svg xmlns="http://www.w3.org/2000/svg" xmlns:xlink="http://www.w3.org/1999/xlink" version="1.1" id="Layer_1" x="0px" y="0px" viewBox="0 0 512.002 512.002" style="enable-background:new 0 0 512.002 512.002;" xml:space="preserve">
<g>
	<g>
		<path d="M159.395,367.519h-41.051c-3.88,0-7.026,3.146-7.026,7.026v133.203c0,2.349,1.904,4.254,4.254,4.254h46.596    c2.349,0,4.254-1.904,4.254-4.254V374.545C166.42,370.665,163.275,367.519,159.395,367.519z"/>
	</g>
</g>
<g>
	<g>
		<path d="M326.245,367.519h-51.236c-4.988,0-9.031,4.043-9.031,9.031v49.286c0,5.261,4.265,9.526,9.526,9.526h50.742    c4.988,0,9.031-4.043,9.031-9.031v-49.781C335.276,371.563,331.232,367.519,326.245,367.519z"/>
	</g>
</g>
<g>
	<g>
		<path d="M425.317,367.519h-50.964c-4.988,0-9.031,4.043-9.031,9.031v49.781c0,4.988,4.043,9.031,9.031,9.031h50.469    c5.261,0,9.526-4.265,9.526-9.526v-49.286C434.348,371.563,430.305,367.519,425.317,367.519z"/>
	</g>
</g>
<g>
	<g>
		<path d="M424.823,313.583H275.502c-5.26,0-9.525,4.265-9.525,9.525v5.334c0,4.988,4.043,9.031,9.031,9.031h150.309    c4.988,0,9.031-4.043,9.031-9.031v-5.334C434.348,317.848,430.083,313.583,424.823,313.583z"/>
	</g>
</g>
<g>
	<g>
		<path d="M475.484,238.979H371.334l-13.619-39.288c10.557,2.954,20.963,4.437,30.711,4.437c15.643,0,29.596-3.819,39.773-11.512    c6.559-4.958,10.025-12.803,9.271-20.985c-0.753-8.166-5.583-15.229-12.919-18.895l-4.505-2.252l-15.915-75.442    c-0.005-0.025-0.014-0.049-0.02-0.074c-0.067-0.307-0.155-0.613-0.242-0.918c-0.055-0.196-0.103-0.396-0.166-0.588    c-0.066-0.199-0.148-0.397-0.223-0.595c-0.109-0.29-0.215-0.582-0.341-0.862c-0.011-0.025-0.018-0.05-0.029-0.074    c-0.054-0.118-0.12-0.226-0.177-0.343c-0.153-0.317-0.308-0.631-0.483-0.933c-0.089-0.156-0.189-0.302-0.284-0.455    c-0.165-0.264-0.329-0.528-0.509-0.78c-0.13-0.183-0.271-0.356-0.41-0.531c-0.159-0.203-0.317-0.409-0.486-0.603    c-0.17-0.195-0.351-0.379-0.53-0.565c-0.155-0.16-0.307-0.323-0.468-0.476c-0.198-0.187-0.406-0.363-0.613-0.538    c-0.161-0.137-0.32-0.276-0.487-0.406c-0.21-0.163-0.428-0.315-0.646-0.467c-0.18-0.126-0.36-0.254-0.546-0.373    c-0.208-0.132-0.423-0.251-0.637-0.373c-0.211-0.12-0.421-0.24-0.637-0.351c-0.197-0.099-0.399-0.187-0.599-0.277    c-0.244-0.11-0.488-0.22-0.737-0.318c-0.186-0.072-0.377-0.134-0.566-0.199c-0.269-0.092-0.538-0.184-0.812-0.261    c-0.188-0.053-0.379-0.094-0.569-0.14c-0.277-0.066-0.555-0.133-0.837-0.183c-0.209-0.038-0.421-0.062-0.632-0.091    c-0.263-0.036-0.526-0.073-0.792-0.095c-0.255-0.021-0.512-0.026-0.768-0.034c-0.223-0.007-0.446-0.019-0.671-0.015    c-0.315,0.004-0.632,0.029-0.948,0.054c-0.171,0.013-0.341,0.019-0.513,0.039c-0.358,0.04-0.715,0.103-1.072,0.17    c-0.117,0.022-0.234,0.031-0.352,0.056c-0.024,0.005-0.047,0.014-0.071,0.019c-0.313,0.068-0.624,0.158-0.935,0.247    c-0.19,0.054-0.385,0.1-0.572,0.161c-0.203,0.067-0.404,0.151-0.605,0.227c-0.287,0.108-0.576,0.213-0.853,0.337    c-0.025,0.011-0.05,0.018-0.075,0.03l-70.885,32.197l-4.495-2.246c-7.337-3.667-15.886-3.288-22.868,1.014    c-6.996,4.309-11.189,11.79-11.216,20.012c-0.073,22.568,16.648,47.303,42.977,65.161l-35.786,58.375H216.81V67.566    c12.199-5.59,20.698-17.907,20.698-32.18C237.508,15.874,221.635,0,202.123,0H36.516C17.006,0.001,1.132,15.875,1.132,35.387    c0,14.394,8.643,26.798,21.007,32.321v408.909c0,19.543,15.843,35.385,35.385,35.385h19.494c2.349,0,4.254-1.904,4.254-4.254    V374.545c0-20.475,16.598-37.073,37.073-37.073h41.051c20.474,0,37.072,16.598,37.072,37.072v133.203    c0,2.349,1.904,4.254,4.254,4.254h1.066h273.697c19.543,0,35.385-15.843,35.385-35.385V274.364    C510.868,254.822,495.026,238.979,475.484,238.979z M138.869,179.607H96.294c-8.297,0-15.024-6.727-15.024-15.024    c0-8.297,6.727-15.024,15.024-15.024h42.575c8.297,0,15.024,6.727,15.024,15.024C153.892,172.88,147.167,179.607,138.869,179.607z     M138.869,131.774H96.294c-8.297,0-15.024-6.727-15.024-15.024s6.727-15.024,15.024-15.024h42.575    c8.297,0,15.024,6.727,15.024,15.024S147.167,131.774,138.869,131.774z M378.596,99.566l7.123,33.767l-38.791-19.383    L378.596,99.566z M464.396,434.869h-0.001c0,16.84-13.7,30.542-30.542,30.542H266.471c-16.84,0-30.541-13.7-30.541-30.542V314.077    c0-16.84,13.7-30.541,30.541-30.541h167.383c16.84,0,30.542,13.701,30.542,30.541V434.869z"/>
	</g>
</g>
<g>
</g>
<g>
</g>
<g>
</g>
<g>
</g>
<g>
</g>
<g>
</g>
<g>
</g>
<g>
</g>
<g>
</g>
<g>
</g>
<g>
</g>
<g>
</g>
<g>
</g>
<g>
</g>
<g>
</g>
</svg>
