<?xml version="1.0" encoding="iso-8859-1"?>
<!-- Generator: Adobe Illustrator 19.0.0, SVG Export Plug-In . SVG Version: 6.00 Build 0)  -->
<svg xmlns="http://www.w3.org/2000/svg" xmlns:xlink="http://www.w3.org/1999/xlink" version="1.1" id="Layer_1" x="0px" y="0px" viewBox="0 0 512 512" style="enable-background:new 0 0 512 512;" xml:space="preserve">
<g>
	<g>
		<path d="M227.134,181.713H108.778c-6.625,0-11.995,5.37-11.995,11.995v40.629c0,7.628,6.183,13.811,13.811,13.811h116.541    c7.628,0,13.811-6.183,13.811-13.811v-38.814C240.946,187.896,234.762,181.713,227.134,181.713z"/>
	</g>
</g>
<g>
	<g>
		<path d="M488.967,81.762H23.033c-3.59,0-6.501,2.911-6.501,6.501v223.913c0,3.59,2.911,6.501,6.501,6.501h465.934    c3.59,0,6.5-2.911,6.5-6.501V88.262C495.467,84.672,492.557,81.762,488.967,81.762z M81.727,101.415h74.279    c8.314,0,15.055,6.74,15.055,15.055s-6.74,15.054-15.055,15.054H81.727c-8.314,0-15.055-6.74-15.055-15.054    S73.413,101.415,81.727,101.415z M271.055,245.608c0,18.003-14.647,32.65-32.649,32.65H99.323c-18.003,0-32.65-14.647-32.65-32.65    v-63.17c0-17.003,13.832-30.835,30.835-30.835h140.898c18.003,0,32.649,14.647,32.649,32.65V245.608z M354.06,234.426h-48.492    c-8.314,0-15.055-6.74-15.055-15.055s6.74-15.055,15.055-15.055h48.492c8.314,0,15.055,6.74,15.055,15.055    S362.374,234.426,354.06,234.426z M429.029,181.713H305.566c-8.314,0-15.055-6.74-15.055-15.055s6.74-15.054,15.055-15.054    h123.463c8.314,0,15.055,6.74,15.055,15.054S437.343,181.713,429.029,181.713z"/>
	</g>
</g>
<g>
	<g>
		<path d="M456.647,0H55.352c-21.44,0-38.82,17.38-38.82,38.82v6.333c0,3.59,2.911,6.501,6.501,6.501h465.934    c3.59,0,6.5-2.911,6.5-6.501V38.82C495.467,17.38,478.087,0,456.647,0z"/>
	</g>
</g>
<g>
	<g>
		<path d="M460.516,418.626h-3.583l6.573-20.024c18.508-5.702,31.961-22.937,31.961-43.317c0-3.59-2.911-6.501-6.5-6.501H23.033    c-3.59,0-6.501,2.911-6.501,6.501v0.001c0,19.702,12.577,36.461,30.137,42.705l6.773,20.636h-1.96    c-19.272,0-34.951,15.679-34.951,34.951c0,32.215,26.209,58.423,58.424,58.423h362.085c32.216,0,58.424-26.209,58.424-58.423    C495.467,434.305,479.788,418.626,460.516,418.626z M87.404,482.595c-8.314,0-15.084-6.74-15.084-15.055    s6.711-15.055,15.025-15.055h0.059c8.314,0,15.055,6.74,15.055,15.055S95.719,482.595,87.404,482.595z M424.624,482.595    c-8.314,0-15.084-6.74-15.084-15.055s6.711-15.055,15.025-15.055h0.059c8.314,0,15.055,6.74,15.055,15.055    S432.939,482.595,424.624,482.595z"/>
	</g>
</g>
<g>
</g>
<g>
</g>
<g>
</g>
<g>
</g>
<g>
</g>
<g>
</g>
<g>
</g>
<g>
</g>
<g>
</g>
<g>
</g>
<g>
</g>
<g>
</g>
<g>
</g>
<g>
</g>
<g>
</g>
</svg>
