<?xml version="1.0" encoding="iso-8859-1"?>
<!-- Generator: Adobe Illustrator 19.0.0, SVG Export Plug-In . SVG Version: 6.00 Build 0)  -->
<svg xmlns="http://www.w3.org/2000/svg" xmlns:xlink="http://www.w3.org/1999/xlink" version="1.1" id="Layer_1" x="0px" y="0px" viewBox="0 0 512 512" style="enable-background:new 0 0 512 512;" xml:space="preserve">
<g>
	<g>
		<path d="M371.478,144.583l-91.335-91.511c-4.101-4.109-10.757-4.112-14.862-0.007L117.996,200.349    c-4.101,4.101-4.102,10.749-0.003,14.851l91.397,91.481c0.964,0.963,2.541,0.964,3.512-0.006L371.478,148.1    C372.447,147.13,372.447,145.552,371.478,144.583z M218.877,236.375c-0.05,0.49-0.13,0.98-0.22,1.461    c-0.1,0.47-0.22,0.951-0.36,1.421c-0.15,0.47-0.31,0.93-0.5,1.381c-0.19,0.45-0.4,0.9-0.63,1.331c-0.23,0.43-0.48,0.86-0.75,1.261    c-0.27,0.41-0.57,0.81-0.87,1.191c-0.32,0.38-0.65,0.75-0.99,1.091c-0.35,0.35-0.72,0.68-1.101,0.99    c-0.38,0.31-0.78,0.61-1.181,0.88c-0.41,0.27-0.83,0.52-1.271,0.75c-0.43,0.23-0.87,0.44-1.321,0.63    c-0.45,0.18-0.92,0.35-1.381,0.49c-0.47,0.15-0.951,0.27-1.431,0.36c-0.48,0.1-0.97,0.17-1.451,0.22    c-0.49,0.05-0.991,0.08-1.481,0.08s-0.99-0.03-1.481-0.08c-0.48-0.05-0.97-0.12-1.451-0.22c-0.48-0.09-0.961-0.21-1.431-0.36    c-0.46-0.14-0.93-0.31-1.381-0.49c-0.45-0.19-0.9-0.4-1.331-0.63c-0.43-0.23-0.85-0.48-1.261-0.75s-0.8-0.57-1.181-0.88    c-0.38-0.31-0.75-0.64-1.101-0.99c-0.34-0.34-0.68-0.71-0.99-1.091c-0.31-0.38-0.6-0.78-0.87-1.191    c-0.27-0.4-0.52-0.83-0.75-1.261c-0.23-0.43-0.44-0.88-0.63-1.331c-0.19-0.45-0.35-0.91-0.5-1.381    c-0.14-0.47-0.26-0.951-0.36-1.421c-0.09-0.48-0.17-0.97-0.22-1.461c-0.04-0.49-0.07-0.981-0.07-1.471s0.03-0.99,0.07-1.481    c0.05-0.49,0.13-0.97,0.22-1.461c0.1-0.47,0.22-0.95,0.36-1.421c0.15-0.47,0.31-0.93,0.5-1.381c0.19-0.45,0.4-0.9,0.63-1.331    s0.48-0.85,0.75-1.261s0.56-0.81,0.87-1.181c0.31-0.38,0.65-0.75,0.99-1.101c0.35-0.35,0.72-0.68,1.101-0.99s0.77-0.6,1.181-0.87    c0.41-0.27,0.83-0.53,1.261-0.76c0.43-0.23,0.88-0.44,1.331-0.62c0.45-0.19,0.92-0.36,1.381-0.5c0.47-0.14,0.95-0.26,1.431-0.36    c0.48-0.1,0.97-0.17,1.451-0.22c0.98-0.1,1.981-0.1,2.961,0c0.48,0.05,0.97,0.12,1.451,0.22c0.48,0.1,0.961,0.22,1.431,0.36    c0.46,0.14,0.93,0.31,1.381,0.5c0.45,0.18,0.89,0.39,1.321,0.62c0.44,0.23,0.86,0.49,1.271,0.76c0.4,0.27,0.8,0.56,1.181,0.87    c0.38,0.31,0.75,0.64,1.101,0.99c0.34,0.35,0.67,0.72,0.99,1.101c0.3,0.37,0.6,0.77,0.87,1.181s0.52,0.83,0.75,1.261    c0.23,0.43,0.44,0.88,0.63,1.331c0.19,0.45,0.35,0.91,0.5,1.381c0.14,0.47,0.26,0.95,0.36,1.421c0.09,0.49,0.17,0.971,0.22,1.461    c0.04,0.49,0.07,0.99,0.07,1.481S218.917,235.885,218.877,236.375z M282.684,177.381l-37.242,37.242    c-2.93,2.93-6.771,4.396-10.611,4.396c-3.84,0-7.682-1.465-10.611-4.396c-5.862-5.861-5.862-15.363-0.001-21.223l37.242-37.242    c5.86-5.861,15.363-5.861,21.223,0C288.545,162.019,288.545,171.52,282.684,177.381z M315.655,139.587    c-0.05,0.49-0.12,0.98-0.22,1.461c-0.09,0.48-0.21,0.96-0.36,1.421c-0.14,0.47-0.31,0.93-0.49,1.381    c-0.19,0.46-0.4,0.9-0.63,1.331c-0.23,0.43-0.48,0.86-0.75,1.261c-0.27,0.41-0.57,0.81-0.88,1.191    c-0.31,0.38-0.64,0.75-0.99,1.091c-0.34,0.35-0.71,0.68-1.091,1c-0.38,0.3-0.78,0.6-1.191,0.87c-0.4,0.27-0.83,0.52-1.261,0.75    c-0.43,0.23-0.87,0.44-1.331,0.63c-0.45,0.19-0.91,0.35-1.381,0.49c-0.46,0.15-0.94,0.27-1.421,0.36    c-0.48,0.1-0.97,0.17-1.461,0.22c-0.49,0.05-0.98,0.08-1.471,0.08s-0.99-0.03-1.481-0.08c-0.48-0.05-0.97-0.12-1.451-0.22    c-0.48-0.09-0.96-0.21-1.431-0.36c-0.46-0.14-0.93-0.3-1.381-0.49c-0.45-0.19-0.9-0.4-1.331-0.63c-0.43-0.23-0.85-0.48-1.261-0.75    s-0.81-0.57-1.181-0.87c-0.38-0.32-0.75-0.65-1.101-1c-0.35-0.34-0.68-0.71-0.99-1.091c-0.31-0.38-0.6-0.78-0.87-1.191    c-0.27-0.4-0.53-0.83-0.76-1.261c-0.23-0.43-0.44-0.87-0.62-1.331c-0.19-0.45-0.36-0.91-0.5-1.381    c-0.14-0.46-0.26-0.94-0.36-1.421s-0.17-0.97-0.22-1.461c-0.05-0.49-0.07-0.98-0.07-1.471c0-0.49,0.02-0.99,0.07-1.481    c0.05-0.48,0.12-0.971,0.22-1.451s0.22-0.96,0.36-1.431c0.14-0.46,0.31-0.93,0.5-1.381c0.18-0.45,0.39-0.9,0.62-1.331    s0.49-0.85,0.76-1.261c0.27-0.41,0.56-0.8,0.87-1.181c0.31-0.38,0.64-0.75,0.99-1.101c0.35-0.34,0.72-0.68,1.101-0.99    c0.37-0.31,0.77-0.6,1.181-0.87s0.83-0.53,1.261-0.76c0.43-0.23,0.88-0.44,1.331-0.62c0.45-0.19,0.92-0.36,1.381-0.5    c0.47-0.14,0.95-0.26,1.431-0.36c0.48-0.1,0.971-0.17,1.451-0.22c0.981-0.1,1.971-0.1,2.951,0c0.49,0.05,0.98,0.12,1.461,0.22    c0.48,0.1,0.961,0.22,1.421,0.36c0.47,0.14,0.93,0.31,1.381,0.5c0.46,0.18,0.9,0.39,1.331,0.62c0.43,0.23,0.86,0.49,1.261,0.76    c0.41,0.27,0.81,0.56,1.191,0.87c0.38,0.31,0.75,0.65,1.091,0.99c0.35,0.35,0.68,0.72,0.99,1.101c0.31,0.38,0.61,0.77,0.88,1.181    c0.27,0.41,0.52,0.83,0.75,1.261c0.23,0.43,0.44,0.88,0.63,1.331c0.18,0.45,0.35,0.92,0.49,1.381c0.15,0.47,0.27,0.95,0.36,1.431    c0.1,0.48,0.17,0.971,0.22,1.451c0.05,0.49,0.08,0.99,0.08,1.481S315.705,139.097,315.655,139.587z"/>
	</g>
</g>
<g>
	<g>
		<path d="M503.544,215.074l-12.046-12.046c13.304-15.349,12.675-38.669-1.908-53.251L356.738,16.924    c-15.251-15.252-40.066-15.251-55.317,0l-0.063,0.062c-4.099,4.099-4.102,10.744-0.007,14.847l91.36,91.536    c12.661,12.662,12.661,33.281-0.01,45.953L234.126,327.9c-6.336,6.336-14.659,9.504-22.982,9.504    c-8.322,0-16.645-3.168-22.981-9.504l-91.385-91.47c-4.101-4.105-10.755-4.107-14.858-0.003l-70.48,70.48    c-15.252,15.251-15.252,40.066,0,55.316l132.853,132.854c7.626,7.626,17.642,11.439,27.659,11.439s20.033-3.813,27.659-11.439    l105.874-105.874l22.156,22.155c2.93,2.93,6.771,4.396,10.611,4.396c3.862,0,7.723-1.481,10.66-4.443    c5.869-5.92,5.531-15.597-0.363-21.492l-21.841-21.84l11.172-11.173l12.318,12.318c5.638,5.638,13.043,8.457,20.449,8.457    c7.406,0,14.811-2.818,20.449-8.457l32.643-32.643c11.277-11.276,11.277-29.623,0-40.898l-12.318-12.318l6.615-6.615    l11.967,11.967c5.638,5.638,13.043,8.457,20.449,8.457c7.406,0,14.811-2.818,20.449-8.457l32.643-32.643    C514.819,244.696,514.819,226.349,503.544,215.074z M125.408,383.159c-2.93,2.93-6.771,4.396-10.611,4.396    c-3.84,0-7.682-1.465-10.611-4.396L66.37,345.343c-5.861-5.86-5.861-15.363,0-21.224c5.86-5.861,15.363-5.861,21.223,0    l37.816,37.816C131.269,367.795,131.269,377.298,125.408,383.159z M158.857,349.709c-2.93,2.93-6.771,4.396-10.611,4.396    c-3.84,0-7.682-1.465-10.611-4.396l-37.816-37.816c-5.861-5.861-5.861-15.363,0-21.224c5.86-5.861,15.363-5.861,21.223,0    l37.816,37.816C164.718,334.347,164.718,343.848,158.857,349.709z"/>
	</g>
</g>
<g>
</g>
<g>
</g>
<g>
</g>
<g>
</g>
<g>
</g>
<g>
</g>
<g>
</g>
<g>
</g>
<g>
</g>
<g>
</g>
<g>
</g>
<g>
</g>
<g>
</g>
<g>
</g>
<g>
</g>
</svg>
