<?xml version="1.0" encoding="iso-8859-1"?>
<!-- Generator: Adobe Illustrator 19.0.0, SVG Export Plug-In . SVG Version: 6.00 Build 0)  -->
<svg xmlns="http://www.w3.org/2000/svg" xmlns:xlink="http://www.w3.org/1999/xlink" version="1.1" id="Layer_1" x="0px" y="0px" viewBox="0 0 512.001 512.001" style="enable-background:new 0 0 512.001 512.001;" xml:space="preserve">
<g>
	<g>
		<path d="M445.498,265.736h-20.458h-3.958v-96.143l1.567,0.916c2.383,1.393,4.99,2.055,7.564,2.055    c5.162,0,10.188-2.664,12.98-7.442c4.185-7.161,1.773-16.359-5.388-20.546l-63.156-36.915c-7.16-4.184-16.358-1.773-20.545,5.388    c-4.185,7.161-1.773,16.359,5.388,20.546l31.552,18.442v113.699h-60.092v-85.882c0-15.437-8.41-29.634-21.95-37.049    c-11.838-6.485-25.932-6.872-37.982-1.313v71.249c0,8.294-6.724,15.019-15.019,15.019s-15.019-6.724-15.019-15.019v-71.246    c-12.05-5.56-26.143-5.172-37.981,1.312c-13.54,7.416-21.951,21.613-21.951,37.05v85.88h-60.385V152.037l31.552-18.442    c7.161-4.186,9.573-13.384,5.388-20.546c-4.185-7.16-13.384-9.572-20.545-5.388l-63.156,36.915    c-7.161,4.186-9.573,13.384-5.388,20.546c2.794,4.778,7.818,7.442,12.98,7.442c2.574,0,5.182-0.663,7.564-2.055l1.567-0.916    v96.143H86.96H66.504c-8.294,0-15.019,6.724-15.019,15.019c0,8.294,6.724,15.019,15.019,15.019h25.165l27.757,177.127    c3.55,22.656,22.772,39.1,45.705,39.1h181.738c22.932,0,42.154-16.443,45.705-39.1l27.757-177.127h25.165    c8.294,0,15.019-6.724,15.019-15.019S453.792,265.736,445.498,265.736z M239.488,464.593    c-29.85-6.012-53.416-29.579-59.429-59.429h59.429V464.593z M239.488,375.128h-59.429c6.013-29.85,29.579-53.416,59.429-59.429    V375.128z M269.525,464.593v-59.429h59.429C322.942,435.014,299.374,458.581,269.525,464.593z M269.525,375.128v-59.429    c29.85,6.013,53.416,29.579,59.429,59.429H269.525z"/>
	</g>
</g>
<g>
	<g>
		<path d="M256.001,0c-37.398,0-67.823,30.426-67.823,67.823s30.426,67.824,67.823,67.824s67.823-30.426,67.823-67.823    C323.824,30.427,293.398,0,256.001,0z"/>
	</g>
</g>
<g>
</g>
<g>
</g>
<g>
</g>
<g>
</g>
<g>
</g>
<g>
</g>
<g>
</g>
<g>
</g>
<g>
</g>
<g>
</g>
<g>
</g>
<g>
</g>
<g>
</g>
<g>
</g>
<g>
</g>
</svg>
