<?xml version="1.0" encoding="iso-8859-1"?>
<!-- Generator: Adobe Illustrator 19.0.0, SVG Export Plug-In . SVG Version: 6.00 Build 0)  -->
<svg xmlns="http://www.w3.org/2000/svg" xmlns:xlink="http://www.w3.org/1999/xlink" version="1.1" id="Layer_1" x="0px" y="0px" viewBox="0 0 512 512" style="enable-background:new 0 0 512 512;" xml:space="preserve">
<g>
	<g>
		<path d="M465.532,140.056c-0.947-31.348-26.726-56.564-58.299-56.564h-10.08c-31.479,0-57.201,25.065-58.292,56.284H118.944    L283.841,27.372c6.84-4.662,8.604-13.986,3.943-20.825c-4.663-6.839-13.986-8.604-20.825-3.943L65.726,139.776H51.818    c-28.224,0-51.186,22.962-51.186,51.186v225.68c0,28.224,22.962,51.186,51.186,51.186h16.485    C69.043,492.309,89.175,512,113.832,512h24.154c24.657,0,44.788-19.692,45.527-44.172h142.645    c0.739,24.482,20.87,44.172,45.527,44.172h24.154c24.657,0,44.788-19.692,45.527-44.172h18.816    c28.224,0,51.186-22.962,51.186-51.186v-225.68C511.368,164.544,491.25,142.739,465.532,140.056z M321.776,385.672H124.924v10.861    c0,8.277-6.71,14.987-14.987,14.987s-14.987-6.71-14.987-14.987v-10.861H73.323c-8.277,0-14.987-6.71-14.987-14.987    s6.71-14.987,14.987-14.987H94.95v-14.764c0-8.277,6.71-14.987,14.987-14.987s14.987,6.71,14.987,14.987v14.764h196.852    c8.277,0,14.987,6.71,14.987,14.987S330.053,385.672,321.776,385.672z M334.917,258.783c-8.277,0-14.987,6.71-14.987,14.987    v29.831h-0.204h-20.233v-48.569c0-8.277-6.71-14.987-14.987-14.987s-14.987,6.71-14.987,14.987v48.569h-0.209h-23.779v-29.514    c0-8.277-6.71-14.987-14.987-14.987c-8.277,0-14.987,6.71-14.987,14.987v29.514h-0.21h-23.284v-47.886    c0-8.277-6.71-14.987-14.987-14.987s-14.987,6.71-14.987,14.987v47.886h-0.206h-23.781v-28.832c0-8.277-6.71-14.987-14.987-14.987    s-14.987,6.71-14.987,14.987v28.832h-0.208H94.214c-19.783,0-35.878-16.096-35.878-35.878v-37.166h0    c0-19.783,16.096-35.878,35.878-35.878H417.79c19.783,0,35.878,16.096,35.878,35.878v37.167c0,19.783-16.096,35.878-35.878,35.878    h-13.926v-48.886c0-8.277-6.71-14.987-14.987-14.987s-14.987,6.71-14.987,14.987v48.885h-0.202h-23.785V273.77    C349.903,265.494,343.193,258.783,334.917,258.783z M402.659,421.876c-28.227,0-51.191-22.964-51.191-51.19    s22.964-51.19,51.191-51.19c28.226,0,51.19,22.964,51.19,51.19S430.885,421.876,402.659,421.876z"/>
	</g>
</g>
<g>
</g>
<g>
</g>
<g>
</g>
<g>
</g>
<g>
</g>
<g>
</g>
<g>
</g>
<g>
</g>
<g>
</g>
<g>
</g>
<g>
</g>
<g>
</g>
<g>
</g>
<g>
</g>
<g>
</g>
</svg>
