<?xml version="1.0" encoding="iso-8859-1"?>
<!-- Generator: Adobe Illustrator 19.0.0, SVG Export Plug-In . SVG Version: 6.00 Build 0)  -->
<svg xmlns="http://www.w3.org/2000/svg" xmlns:xlink="http://www.w3.org/1999/xlink" version="1.1" id="Layer_1" x="0px" y="0px" viewBox="0 0 512.001 512.001" style="enable-background:new 0 0 512.001 512.001;" xml:space="preserve">
<g>
	<g>
		<polygon points="232.074,122.742 232.074,186.394 283.84,155.022   "/>
	</g>
</g>
<g>
	<g>
		<path d="M384.302,0H127.701C74.53,0,31.273,43.258,31.273,96.427v115.474c0,53.17,43.258,96.427,96.427,96.427h256.601    c53.17,0,96.427-43.258,96.427-96.427V96.427C480.73,43.258,437.473,0,384.302,0z M327.536,155.285    c-0.001,0.242,0.005,0.485-0.008,0.727c-0.016,0.3-0.054,0.6-0.088,0.899c-0.02,0.173-0.031,0.348-0.057,0.52    c-0.048,0.32-0.117,0.636-0.186,0.954c-0.034,0.155-0.059,0.313-0.098,0.467c-0.072,0.287-0.164,0.572-0.253,0.856    c-0.059,0.187-0.111,0.376-0.177,0.56c-0.083,0.231-0.182,0.459-0.277,0.688c-0.098,0.238-0.194,0.477-0.305,0.709    c-0.085,0.177-0.181,0.351-0.273,0.526c-0.145,0.277-0.292,0.552-0.456,0.82c-0.029,0.047-0.051,0.097-0.08,0.144    c-0.153,0.246-0.315,0.484-0.481,0.718c-0.074,0.105-0.152,0.209-0.229,0.313c-0.208,0.28-0.426,0.551-0.65,0.812    c-0.085,0.098-0.17,0.196-0.257,0.292c-0.29,0.322-0.59,0.632-0.903,0.923c-0.013,0.012-0.027,0.023-0.039,0.035    c-0.337,0.31-0.687,0.599-1.047,0.874c-0.046,0.036-0.092,0.072-0.139,0.107c-0.384,0.286-0.777,0.554-1.183,0.801    c-0.011,0.007-0.021,0.015-0.032,0.022l-93.817,56.854c-2.434,1.475-5.12,2.177-7.772,2.177c-0.768,0-1.531-0.066-2.287-0.182    c-8.012-0.324-14.413-6.902-14.413-14.993V96.417c0-8.297,6.727-15.024,15.024-15.024c1.172,0,2.308,0.147,3.402,0.402    c2.139,0.248,4.259,0.945,6.208,2.16l93.817,58.501c0.104,0.064,0.196,0.14,0.297,0.207c0.272,0.178,0.542,0.362,0.803,0.559    c0.158,0.119,0.309,0.244,0.46,0.369c0.223,0.182,0.444,0.368,0.657,0.564c0.177,0.163,0.346,0.333,0.514,0.503    c0.169,0.171,0.338,0.343,0.499,0.524c0.192,0.214,0.374,0.436,0.552,0.66c0.124,0.155,0.248,0.308,0.367,0.47    c0.192,0.262,0.371,0.532,0.545,0.805c0.066,0.103,0.141,0.197,0.205,0.302c0.028,0.047,0.049,0.095,0.077,0.142    c0.16,0.271,0.305,0.551,0.448,0.831c0.09,0.175,0.184,0.35,0.266,0.527c0.107,0.233,0.199,0.473,0.294,0.711    c0.093,0.231,0.19,0.461,0.27,0.695c0.063,0.182,0.111,0.369,0.167,0.553c0.087,0.289,0.177,0.578,0.245,0.87    c0.035,0.147,0.057,0.297,0.088,0.447c0.067,0.326,0.134,0.651,0.178,0.979c0.022,0.161,0.03,0.326,0.047,0.488    c0.032,0.312,0.066,0.622,0.079,0.934C327.546,154.824,327.537,155.054,327.536,155.285z"/>
	</g>
</g>
<g>
	<g>
		<path d="M350.111,338.372L350.111,338.372l-188.221,0.001c-6.556,0-11.87,5.315-11.87,11.87v14.591    c0,5.038,1.272,9.786,3.506,13.952c4.657,8.684,13.942,13.902,23.798,13.902l157.323-0.01c10.287,0,19.862-5.689,24.369-14.944    c1.893-3.896,2.965-8.283,2.965-12.901v-14.592C361.981,343.686,356.667,338.372,350.111,338.372z"/>
	</g>
</g>
<g>
	<g>
		<path d="M377.67,461.63l-0.357-1.043l-16.123-31.346c-2.01-3.909-6.038-6.366-10.434-6.366H161.248    c-4.396,0-8.424,2.457-10.434,6.366l-15.619,30.369l-0.504,0.979l-0.355,1.042c-3.958,11.602-2.065,24.479,5.067,34.449    c7.132,9.97,18.709,15.922,30.967,15.922h171.265c12.258,0,23.834-5.952,30.967-15.922    C379.734,486.109,381.628,473.232,377.67,461.63z"/>
	</g>
</g>
<g>
</g>
<g>
</g>
<g>
</g>
<g>
</g>
<g>
</g>
<g>
</g>
<g>
</g>
<g>
</g>
<g>
</g>
<g>
</g>
<g>
</g>
<g>
</g>
<g>
</g>
<g>
</g>
<g>
</g>
</svg>
