<?xml version="1.0" encoding="iso-8859-1"?>
<!-- Generator: Adobe Illustrator 19.0.0, SVG Export Plug-In . SVG Version: 6.00 Build 0)  -->
<svg version="1.1" id="Layer_1" xmlns="http://www.w3.org/2000/svg" xmlns:xlink="http://www.w3.org/1999/xlink" x="0px" y="0px"
	 viewBox="0 0 512 512" style="enable-background:new 0 0 512 512;" xml:space="preserve">
<g>
	<g>
		<polygon points="195.395,79.405 195.395,172.47 233.043,172.47 256,190.134 278.958,172.47 316.605,172.47 316.605,79.405 		"/>
	</g>
</g>
<g>
	<g>
		<path d="M468.267,36.821H43.733C19.617,36.821,0,56.439,0,80.553v211.546c0,24.114,19.617,43.733,43.733,43.733h124.993v20.578
			H27.567v118.769h33.391v-85.378h107.767v66.258v19.12h33.391v-19.12v-99.65v-20.578h107.767v20.578v118.769h33.391v-85.378
			h107.767v85.378h33.391V356.408H343.275V335.83h124.993c24.114,0,43.733-19.617,43.733-43.733V80.553
			C512,56.439,492.381,36.821,468.267,36.821z M309.884,302.439H202.116v-71.516h107.767V302.439z M416.561,302.44h-73.286V197.531
			h-174.55v104.908H95.439V70.212h321.122V302.44z"/>
	</g>
</g>
<g>
	<g>
		<rect x="212.213" y="248.843" width="36.42" height="33.391"/>
	</g>
</g>
<g>
	<g>
		<rect x="263.368" y="248.843" width="36.42" height="33.391"/>
	</g>
</g>
<g>
	<g>
		<rect x="212.213" y="356.53" width="36.42" height="33.391"/>
	</g>
</g>
<g>
	<g>
		<rect x="263.368" y="356.53" width="36.42" height="33.391"/>
	</g>
</g>
<g>
	<g>
		<rect x="212.213" y="410.379" width="36.42" height="33.391"/>
	</g>
</g>
<g>
	<g>
		<rect x="263.368" y="410.379" width="36.42" height="33.391"/>
	</g>
</g>
<g>
	<g>
		<rect x="71.059" y="410.379" width="36.42" height="33.391"/>
	</g>
</g>
<g>
	<g>
		<rect x="122.201" y="410.379" width="36.42" height="33.391"/>
	</g>
</g>
<g>
	<g>
		<rect x="353.38" y="410.379" width="36.42" height="33.391"/>
	</g>
</g>
<g>
	<g>
		<rect x="404.525" y="410.379" width="36.42" height="33.391"/>
	</g>
</g>
<g>
</g>
<g>
</g>
<g>
</g>
<g>
</g>
<g>
</g>
<g>
</g>
<g>
</g>
<g>
</g>
<g>
</g>
<g>
</g>
<g>
</g>
<g>
</g>
<g>
</g>
<g>
</g>
<g>
</g>
</svg>
