<?xml version="1.0" encoding="iso-8859-1"?>
<!-- Generator: Adobe Illustrator 19.0.0, SVG Export Plug-In . SVG Version: 6.00 Build 0)  -->
<svg version="1.1" id="Layer_1" xmlns="http://www.w3.org/2000/svg" xmlns:xlink="http://www.w3.org/1999/xlink" x="0px" y="0px"
	 viewBox="0 0 512 512" style="enable-background:new 0 0 512 512;" xml:space="preserve">
<g>
	<g>
		<polygon points="451.425,143.111 60.575,143.111 0,143.111 0,362.185 15.625,362.185 212.625,362.185 256,315.738 
			260.787,320.864 299.375,362.185 496.375,362.185 512,362.185 512,143.111 		"/>
	</g>
</g>
<g>
	<g>
		<path d="M386.746,65.204C351.042,38.89,307.052,25.548,256,25.548S160.958,38.89,125.253,65.204
			c-16.418,12.1-31.108,26.994-43.983,44.516h349.459C417.854,92.197,403.164,77.304,386.746,65.204z"/>
	</g>
</g>
<g>
	<g>
		<path d="M299.375,395.576H284.87l-9.899-10.601L256,364.661l-18.971,20.314l-9.899,10.601h-14.505H131.43
			c28.597,52.784,72.586,90.876,124.57,90.876s95.972-38.092,124.568-90.876H299.375z M302.509,454.285h-93.017v-33.391h93.017
			V454.285z"/>
	</g>
</g>
<g>
	<g>
		<path d="M140.123,465.013c-14.479-15.466-27.445-33.776-38.54-54.424c-2.635-4.902-5.147-9.909-7.537-15.012H16.09
			c1.337,38.5,4.996,64.254,5.209,65.723l2.071,14.302h127.393C147.152,472.25,143.602,468.728,140.123,465.013z"/>
	</g>
</g>
<g>
	<g>
		<path d="M417.955,395.576c-2.392,5.103-4.905,10.112-7.541,15.016c-11.096,20.648-24.062,38.958-38.54,54.423
			c-3.477,3.714-7.028,7.236-10.638,10.585h127.392l2.071-14.302c0.213-1.469,3.872-27.223,5.209-65.723H417.955z"/>
	</g>
</g>
<g>
</g>
<g>
</g>
<g>
</g>
<g>
</g>
<g>
</g>
<g>
</g>
<g>
</g>
<g>
</g>
<g>
</g>
<g>
</g>
<g>
</g>
<g>
</g>
<g>
</g>
<g>
</g>
<g>
</g>
</svg>
