<?xml version="1.0" encoding="iso-8859-1"?>
<!-- Generator: Adobe Illustrator 19.0.0, SVG Export Plug-In . SVG Version: 6.00 Build 0)  -->
<svg version="1.1" id="Layer_1" xmlns="http://www.w3.org/2000/svg" xmlns:xlink="http://www.w3.org/1999/xlink" x="0px" y="0px"
	 viewBox="0 0 512 512" style="enable-background:new 0 0 512 512;" xml:space="preserve">
<g>
	<g>
		<circle cx="168.526" cy="248.052" r="26.98"/>
	</g>
</g>
<g>
	<g>
		<path d="M484.039,193.135c-10.321-7.789-21.998-11.976-34.029-12.418c-5.937-42.093-20.317-78.838-42.459-107.871
			C372.907,27.419,320.502,3.408,256,3.408S139.093,27.42,104.449,72.846c-14.174,18.584-25.148,40.341-32.783,64.624h113.556
			v52.572c25.19,7.263,43.676,30.509,43.676,58.005c0,33.289-27.083,60.371-60.371,60.371c-33.289,0-60.371-27.083-60.371-60.371
			c0-27.497,18.485-50.743,43.676-58.005v-19.18h-88.26c-0.573,3.256-1.114,6.532-1.583,9.856
			c-12.031,0.442-23.707,4.629-34.028,12.418C10.714,206.15,0,227.436,0,248.687c0,29.302,25.646,97.968,62.188,118.695
			c7.59,4.305,15.443,6.458,23.184,6.458c1.358,0,2.711-0.09,4.06-0.223c6.427,14.765,13.788,28.84,22.018,41.957
			c37.636,59.983,88.972,93.017,144.55,93.017c55.579,0,106.913-33.034,144.549-93.017c8.23-13.116,15.591-27.193,22.018-41.956
			c1.349,0.132,2.702,0.223,4.061,0.223c7.739,0,15.594-2.154,23.184-6.458C486.354,346.655,512,277.989,512,248.687
			C512,227.437,501.286,206.15,484.039,193.135z M305.753,412.869h-99.506v-33.391h99.506V412.869z M343.473,275.027
			c-14.9,0-26.98-12.08-26.98-26.98s12.08-26.98,26.98-26.98s26.98,12.08,26.98,26.98S358.374,275.027,343.473,275.027z
			 M380.044,211.852c-10.873-4.198-23.528-6.419-36.594-6.419s-25.72,2.219-36.594,6.419l-12.031-31.149
			c14.672-5.667,31.486-8.661,48.624-8.661s33.952,2.994,48.624,8.661L380.044,211.852z"/>
	</g>
</g>
<g>
	<g>
		<circle cx="168.526" cy="248.052" r="26.98"/>
	</g>
</g>
<g>
</g>
<g>
</g>
<g>
</g>
<g>
</g>
<g>
</g>
<g>
</g>
<g>
</g>
<g>
</g>
<g>
</g>
<g>
</g>
<g>
</g>
<g>
</g>
<g>
</g>
<g>
</g>
<g>
</g>
</svg>
