<?xml version="1.0" encoding="iso-8859-1"?>
<!-- Generator: Adobe Illustrator 19.0.0, SVG Export Plug-In . SVG Version: 6.00 Build 0)  -->
<svg version="1.1" id="Layer_1" xmlns="http://www.w3.org/2000/svg" xmlns:xlink="http://www.w3.org/1999/xlink" x="0px" y="0px"
	 viewBox="0 0 512 512" style="enable-background:new 0 0 512 512;" xml:space="preserve">
<g>
	<g>
		<path d="M235.403,144.422c-55.371,0-100.417,45.048-100.417,100.416s45.046,100.416,100.417,100.416
			c55.37,0,100.416-45.048,100.416-100.416C335.82,189.47,290.773,144.422,235.403,144.422z M235.403,309.534
			c-35.673,0-64.697-29.023-64.697-64.695s29.023-64.695,64.697-64.695s64.695,29.023,64.695,64.695
			S271.077,309.534,235.403,309.534z"/>
	</g>
</g>
<g>
	<g>
		<path d="M271.724,237.657c-2.187,1.693-4.927,2.712-7.909,2.712c-7.15,0-12.945-5.795-12.945-12.945
			c0-5.165,3.033-9.61,7.407-11.688c-6.298-4.957-14.238-7.923-22.874-7.923c-20.448,0-37.025,16.577-37.025,37.025
			c0,20.448,16.577,37.025,37.025,37.025c20.448,0,37.024-16.577,37.024-37.025C272.427,242.381,272.182,239.98,271.724,237.657z"/>
	</g>
</g>
<g>
	<g>
		<path d="M180.305,353.735l-16.157,31.861c0.972,0.493,1.96,0.944,2.941,1.416l-31.167,33.247H0v35.721h151.4l52.96-56.495
			c2.885,0.576,5.783,1.101,8.706,1.516l5.019-35.366C204.893,363.762,192.182,359.759,180.305,353.735z"/>
	</g>
</g>
<g>
	<g>
		<path d="M286.131,355.844c-12.094,5.537-24.953,9.028-38.223,10.377l3.611,35.538c17.172-1.746,33.819-6.267,49.481-13.436
			L286.131,355.844z"/>
	</g>
</g>
<g>
	<g>
		<path d="M175.542,98.864c-15.905,6.527-30.576,15.58-43.6,26.907l23.44,26.955c10.08-8.766,21.427-15.77,33.723-20.816
			L175.542,98.864z"/>
	</g>
</g>
<g>
	<g>
		<path d="M106.178,154.364c-9.917,14.141-17.39,29.69-22.211,46.212l34.291,10.007c3.724-12.761,9.501-24.775,17.167-35.709
			L106.178,154.364z"/>
	</g>
</g>
<g>
	<g>
		<path d="M130.179,306.647l-30.782,18.125c8.728,14.822,19.76,28.06,32.791,39.345l23.386-27.003
			C145.478,328.373,136.936,318.122,130.179,306.647z"/>
	</g>
</g>
<g>
	<g>
		<path d="M113.39,244.838c0-1.619,0.031-3.254,0.094-4.857l-35.694-1.397c-0.081,2.066-0.123,4.17-0.123,6.255
			c0.001,15.162,2.153,30.162,6.394,44.582l34.271-10.079C115.054,268.196,113.391,256.587,113.39,244.838z"/>
	</g>
</g>
<g>
	<g>
		<path d="M367.935,159.277l-29.992,19.4c7.247,11.204,12.564,23.425,15.804,36.321l34.645-8.705
			C384.195,189.594,377.312,173.775,367.935,159.277z"/>
	</g>
</g>
<g>
	<g>
		<path d="M357.418,244.531v0.307c0,13.404-2.155,26.569-6.405,39.129l33.837,11.449c5.5-16.255,8.288-33.272,8.288-50.577v-0.307
			H357.418z"/>
	</g>
</g>
<g>
	<g>
		<path d="M235.406,87.102c-0.005,0-0.008,0-0.013,0c-7.586,0-15.215,0.545-22.674,1.622l5.097,35.354
			c5.777-0.831,11.69-1.254,17.577-1.254c0.004,0,0.007,0,0.011,0c7.423,0,14.855,0.67,22.087,1.991l6.419-35.14
			C254.565,87.968,244.975,87.102,235.406,87.102z"/>
	</g>
</g>
<g>
	<g>
		<path d="M338.078,310.788c-7.216,11.207-16.161,21.112-26.588,29.441l22.293,27.91c13.462-10.752,25.012-23.542,34.33-38.014
			L338.078,310.788z"/>
	</g>
</g>
<g>
	<g>
		<path d="M361.389,56.022l-53.259,48.844c-2.447-1.273-4.918-2.506-7.436-3.653l-14.8,32.511
			c12.107,5.512,23.189,12.94,32.935,22.078l24.433-26.06c-1.556-1.459-3.139-2.883-4.747-4.273l36.775-33.725H512V56.022H361.389z"
			/>
	</g>
</g>
<g>
	<g>
		<rect x="417.268" y="2.987" width="94.732" height="35.721"/>
	</g>
</g>
<g>
	<g>
		<rect y="473.292" width="94.732" height="35.721"/>
	</g>
</g>
<g>
	<g>
		<rect x="417.268" y="473.292" width="94.732" height="35.721"/>
	</g>
</g>
<g>
	<g>
		<rect x="417.268" y="420.258" width="94.732" height="35.721"/>
	</g>
</g>
<g>
	<g>
		<rect x="417.268" y="367.224" width="94.732" height="35.721"/>
	</g>
</g>
<g>
</g>
<g>
</g>
<g>
</g>
<g>
</g>
<g>
</g>
<g>
</g>
<g>
</g>
<g>
</g>
<g>
</g>
<g>
</g>
<g>
</g>
<g>
</g>
<g>
</g>
<g>
</g>
<g>
</g>
</svg>
