<?xml version="1.0" encoding="iso-8859-1"?>
<!-- Generator: Adobe Illustrator 19.0.0, SVG Export Plug-In . SVG Version: 6.00 Build 0)  -->
<svg version="1.1" id="Layer_1" xmlns="http://www.w3.org/2000/svg" xmlns:xlink="http://www.w3.org/1999/xlink" x="0px" y="0px"
	 viewBox="0 0 511.999 511.999" style="enable-background:new 0 0 511.999 511.999;" xml:space="preserve">
<g>
	<g>
		<path d="M229.892,131.741c3.137,39.666,16.627,63.471,26.174,75.646c9.606-12.141,22.975-35.793,26.068-75.646
			C282.134,131.741,229.892,131.741,229.892,131.741z"/>
	</g>
</g>
<g>
	<g>
		<path d="M283.258,0c13.478,17.169,30.386,48.007,33.691,97.009h55.334C365.222,49.333,329.538,10.988,283.258,0z"/>
	</g>
</g>
<g>
	<g>
		<path d="M256.006,21.288c-9.609,12.119-23.028,35.788-26.127,75.721h52.255C279.033,57.078,265.615,33.407,256.006,21.288z"/>
	</g>
</g>
<g>
	<g>
		<path d="M139.73,97.009h55.334C198.367,48.007,215.276,17.169,228.754,0C182.474,10.988,146.79,49.333,139.73,97.009z"/>
	</g>
</g>
<g>
	<g>
		<path d="M316.948,131.741c-3.303,49.004-20.21,79.841-33.688,97.009c46.28-10.988,81.963-49.332,89.022-97.009H316.948z"/>
	</g>
</g>
<g>
	<g>
		<path d="M195.064,131.741H139.73c7.06,47.677,42.743,86.022,89.022,97.009C215.275,211.581,198.367,180.745,195.064,131.741z"/>
	</g>
</g>
<g>
	<g>
		<rect x="65.255" y="477.267" width="381.49" height="34.731"/>
	</g>
</g>
<g>
	<g>
		<rect x="89.891" y="384.546" width="34.731" height="60.156"/>
	</g>
</g>
<g>
	<g>
		<rect x="164.262" y="384.546" width="34.731" height="60.156"/>
	</g>
</g>
<g>
	<g>
		<rect x="238.645" y="384.546" width="34.731" height="60.156"/>
	</g>
</g>
<g>
	<g>
		<rect x="313.017" y="384.546" width="34.731" height="60.156"/>
	</g>
</g>
<g>
	<g>
		<rect x="387.4" y="384.546" width="34.731" height="60.156"/>
	</g>
</g>
<g>
	<g>
		<rect x="89.891" y="293.758" width="34.731" height="60.156"/>
	</g>
</g>
<g>
	<g>
		<rect x="164.262" y="293.758" width="34.731" height="60.156"/>
	</g>
</g>
<g>
	<g>
		<rect x="238.645" y="293.758" width="34.731" height="60.156"/>
	</g>
</g>
<g>
	<g>
		<rect x="313.017" y="293.758" width="34.731" height="60.156"/>
	</g>
</g>
<g>
	<g>
		<rect x="387.4" y="293.758" width="34.731" height="60.156"/>
	</g>
</g>
<g>
	<g>
		<rect x="387.4" y="202.97" width="34.731" height="60.157"/>
	</g>
</g>
<g>
	<g>
		<rect x="89.891" y="202.97" width="34.731" height="60.157"/>
	</g>
</g>
<g>
</g>
<g>
</g>
<g>
</g>
<g>
</g>
<g>
</g>
<g>
</g>
<g>
</g>
<g>
</g>
<g>
</g>
<g>
</g>
<g>
</g>
<g>
</g>
<g>
</g>
<g>
</g>
<g>
</g>
</svg>
