<?xml version="1.0" encoding="iso-8859-1"?>
<!-- Generator: Adobe Illustrator 19.0.0, SVG Export Plug-In . SVG Version: 6.00 Build 0)  -->
<svg version="1.1" id="Layer_1" xmlns="http://www.w3.org/2000/svg" xmlns:xlink="http://www.w3.org/1999/xlink" x="0px" y="0px"
	 viewBox="0 0 512 512" style="enable-background:new 0 0 512 512;" xml:space="preserve">
<g>
	<g>
		<path d="M302.705,0v134.554l33.68-14.369V4.771C325.615,2.372,314.378,0.775,302.705,0z"/>
	</g>
</g>
<g>
	<g>
		<path d="M378.81,233.465c-8.089,0-14.669,6.58-14.669,14.668c0,8.088,6.58,14.668,14.669,14.668
			c8.089,0,14.669-6.58,14.669-14.668C393.479,240.046,386.899,233.465,378.81,233.465z"/>
	</g>
</g>
<g>
	<g>
		<path d="M439.98,70.002c-1.191-1.562-2.408-3.095-3.641-4.608v87.5h-33.494V33.897c-10.2-7.284-21.206-13.449-32.966-18.455
			V142.31l-67.174,28.657v211.145h33.88v33.494h-33.881v96.393c22.394-2.675,43.931-10.707,63.982-23.701l20.993-146.841
			l85.611-17.622c8.476-31.739,13.006-65.023,13.006-97.856C486.296,163.669,470.279,109.734,439.98,70.002z M378.81,296.295
			c-26.557,0-48.163-21.606-48.163-48.162c0-26.556,21.606-48.162,48.163-48.162c26.557,0,48.163,21.606,48.163,48.162
			C426.973,274.689,405.367,296.295,378.81,296.295z"/>
	</g>
</g>
<g>
	<g>
		<path d="M417.504,369.515l-12.237,85.59c9.811-10.805,19.041-23.033,27.574-36.632c11.177-17.813,20.774-37.369,28.636-58.009
			L417.504,369.515z"/>
	</g>
</g>
<g>
	<g>
		<path d="M269.211,415.607h-33.88v-33.494h33.88V0c-57.893,3.843-105.118,27.839-137.274,70.002
			c-22.541,29.557-37.169,66.977-43.188,109.854c-12.263,0.409-24.171,4.657-34.69,12.595
			c-17.49,13.199-28.355,34.785-28.355,56.334c0,29.768,26.045,99.519,63.158,120.568c7.685,4.359,15.635,6.538,23.471,6.538
			c1.432,0,2.859-0.098,4.282-0.243c6.552,15.072,14.062,29.44,22.461,42.825c34.438,54.886,80.156,87.557,130.136,93.528v-96.393
			H269.211z M181.663,276.139c-15.447,0-27.969-12.522-27.969-27.969s12.522-27.969,27.969-27.969s27.969,12.522,27.969,27.969
			S197.11,276.139,181.663,276.139z M218.987,211.077c-11.092-4.283-23.998-6.547-37.324-6.547s-26.232,2.264-37.324,6.547
			l-12.067-31.244c14.901-5.754,31.98-8.797,49.39-8.797s34.49,3.042,49.39,8.797L218.987,211.077z"/>
	</g>
</g>
<g>
</g>
<g>
</g>
<g>
</g>
<g>
</g>
<g>
</g>
<g>
</g>
<g>
</g>
<g>
</g>
<g>
</g>
<g>
</g>
<g>
</g>
<g>
</g>
<g>
</g>
<g>
</g>
<g>
</g>
</svg>
