<?xml version="1.0" encoding="iso-8859-1"?>
<!-- Generator: Adobe Illustrator 19.0.0, SVG Export Plug-In . SVG Version: 6.00 Build 0)  -->
<svg version="1.1" id="Layer_1" xmlns="http://www.w3.org/2000/svg" xmlns:xlink="http://www.w3.org/1999/xlink" x="0px" y="0px"
	 viewBox="0 0 512 512" style="enable-background:new 0 0 512 512;" xml:space="preserve">
<g>
	<g>
		<rect x="77.304" y="203.534" transform="matrix(0.5518 -0.834 0.834 0.5518 -152.9406 183.2325)" width="33.392" height="60.74"/>
	</g>
</g>
<g>
	<g>
		<rect x="201.892" y="32.725" width="33.391" height="73.606"/>
	</g>
</g>
<g>
	<g>
		<rect x="332.763" y="32.725" width="33.391" height="73.606"/>
	</g>
</g>
<g>
	<g>
		<rect x="267.327" width="33.391" height="89.155"/>
	</g>
</g>
<g>
	<g>
		<rect x="398.188" y="67.384" width="33.391" height="55.458"/>
	</g>
</g>
<g>
	<g>
		<polygon points="431.584,212.326 431.584,157.195 398.192,157.195 398.192,212.326 366.151,212.326 366.151,140.021 
			332.76,140.021 332.76,212.326 300.719,212.326 300.719,123.502 267.327,123.502 267.327,212.326 235.286,212.326 
			235.286,140.021 201.895,140.021 201.895,212.326 180.937,212.326 180.937,271.413 156.911,255.517 138.487,283.365 
			180.937,311.45 180.937,400.696 452.541,400.696 452.541,212.326 		"/>
	</g>
</g>
<g>
	<g>
		<path d="M201.895,434.087V512h229.689v-77.913H201.895z M385.82,483.222c-6.323,0-11.45-5.126-11.45-11.45
			s5.127-11.45,11.45-11.45c6.324,0,11.45,5.126,11.45,11.45S392.143,483.222,385.82,483.222z"/>
	</g>
</g>
<g>
</g>
<g>
</g>
<g>
</g>
<g>
</g>
<g>
</g>
<g>
</g>
<g>
</g>
<g>
</g>
<g>
</g>
<g>
</g>
<g>
</g>
<g>
</g>
<g>
</g>
<g>
</g>
<g>
</g>
</svg>
