<?xml version="1.0" encoding="iso-8859-1"?>
<!-- Generator: Adobe Illustrator 19.0.0, SVG Export Plug-In . SVG Version: 6.00 Build 0)  -->
<svg version="1.1" id="Layer_1" xmlns="http://www.w3.org/2000/svg" xmlns:xlink="http://www.w3.org/1999/xlink" x="0px" y="0px"
	 viewBox="0 0 512 512" style="enable-background:new 0 0 512 512;" xml:space="preserve">
<g>
	<g>
		<path d="M370.336,235.749h-228.67c-7.971,0-14.455,6.485-14.455,14.455c0,7.97,6.485,14.455,14.455,14.455h228.669
			c7.971,0,14.455-6.485,14.455-14.455C384.79,242.234,378.306,235.749,370.336,235.749z"/>
	</g>
</g>
<g>
	<g>
		<path d="M331.335,145.096V0H180.666v145.096H11.417v210.215h489.166V145.096H331.335z M256.001,56.437
			c11.861,0,21.476,9.616,21.476,21.476c0,11.862-9.616,21.476-21.476,21.476s-21.476-9.614-21.476-21.476
			C234.524,66.052,244.14,56.437,256.001,56.437z M370.336,298.051h-228.67c-26.382,0-47.846-21.464-47.846-47.846
			c0-26.383,21.464-47.846,47.846-47.846h228.669c26.383,0,47.846,21.464,47.846,47.846
			C418.181,276.587,396.718,298.051,370.336,298.051z"/>
	</g>
</g>
<g>
	<g>
		<path d="M95.932,388.704c13.305,28.065,29.842,52.562,48.889,72.195C177.254,494.329,215.699,512,256.001,512
			s78.747-17.671,111.179-51.1c19.047-19.634,35.585-44.131,48.89-72.196H95.932z M304.426,454.851h-96.85v-33.391h96.85V454.851z"
			/>
	</g>
</g>
<g>
	<g>
		<path d="M399.874,74.052c-10.369-12.19-22.121-22.612-35.148-31.236v68.89h59.93C417.701,97.868,409.427,85.283,399.874,74.052z"
			/>
	</g>
</g>
<g>
	<g>
		<path d="M112.127,74.052c-9.553,11.231-17.828,23.816-24.782,37.653h59.93v-68.89C134.249,51.44,122.498,61.862,112.127,74.052z"
			/>
	</g>
</g>
<g>
</g>
<g>
</g>
<g>
</g>
<g>
</g>
<g>
</g>
<g>
</g>
<g>
</g>
<g>
</g>
<g>
</g>
<g>
</g>
<g>
</g>
<g>
</g>
<g>
</g>
<g>
</g>
<g>
</g>
</svg>
