<?xml version="1.0" encoding="iso-8859-1"?>
<!-- Generator: Adobe Illustrator 19.0.0, SVG Export Plug-In . SVG Version: 6.00 Build 0)  -->
<svg version="1.1" id="Layer_1" xmlns="http://www.w3.org/2000/svg" xmlns:xlink="http://www.w3.org/1999/xlink" x="0px" y="0px"
	 viewBox="0 0 512 512" style="enable-background:new 0 0 512 512;" xml:space="preserve">
<g>
	<g>
		<path d="M368.388,478.609v-10.795c15.849-6.574,27.027-22.205,27.027-40.402s-11.178-33.83-27.027-40.402v-87.165
			c15.849-6.574,27.027-22.205,27.027-40.402c0-24.109-19.614-43.723-43.723-43.723c-4.861,0-9.533,0.809-13.905,2.281
			l-42.685-49.099c2.95-5.882,4.62-12.513,4.62-19.528c0-18.198-11.178-33.83-27.027-40.402V84.127
			c15.849-6.574,27.027-22.205,27.027-40.402C299.723,19.614,280.109,0,256,0s-43.723,19.614-43.723,43.723
			c0,18.198,11.178,33.829,27.027,40.402v24.843c-15.849,6.574-27.027,22.205-27.027,40.402c0,7.017,1.671,13.647,4.621,19.529
			l-42.685,49.097c-4.372-1.471-9.045-2.281-13.905-2.281c-24.11,0-43.724,19.614-43.724,43.723
			c0,18.198,11.178,33.83,27.028,40.402v87.165c-15.849,6.574-27.028,22.204-27.028,40.402s11.178,33.83,27.028,40.402v10.798
			h-83.72V512h117.11v-44.187c15.849-6.574,27.027-22.205,27.027-40.402s-11.178-33.83-27.027-40.402v-87.165
			c15.849-6.574,27.027-22.205,27.027-40.402c0-7.017-1.671-13.647-4.621-19.529l42.685-49.097
			c4.372,1.471,9.045,2.281,13.905,2.281c4.862,0,9.534-0.81,13.906-2.281l42.684,49.097c-2.951,5.882-4.621,12.513-4.621,19.529
			c0,18.198,11.178,33.829,27.027,40.402v87.165c-15.849,6.574-27.027,22.205-27.027,40.402s11.178,33.829,27.027,40.402V512
			h117.112v-33.391H368.388z"/>
	</g>
</g>
<g>
</g>
<g>
</g>
<g>
</g>
<g>
</g>
<g>
</g>
<g>
</g>
<g>
</g>
<g>
</g>
<g>
</g>
<g>
</g>
<g>
</g>
<g>
</g>
<g>
</g>
<g>
</g>
<g>
</g>
</svg>
