<?xml version="1.0" encoding="iso-8859-1"?>
<!-- Generator: Adobe Illustrator 19.0.0, SVG Export Plug-In . SVG Version: 6.00 Build 0)  -->
<svg version="1.1" id="Layer_1" xmlns="http://www.w3.org/2000/svg" xmlns:xlink="http://www.w3.org/1999/xlink" x="0px" y="0px"
	 viewBox="0 0 512 512" style="enable-background:new 0 0 512 512;" xml:space="preserve">
<g>
	<g>
		<polygon points="344.093,194.532 380.791,194.532 380.791,161.141 329.01,161.141 272.696,225.055 272.696,176.178 
			332.591,108.199 353.183,108.199 353.183,74.808 317.508,74.808 272.696,125.667 272.696,89.845 305.506,52.608 318.112,52.608 
			318.112,19.217 290.423,19.217 272.696,39.336 272.696,0 239.304,0 239.304,39.336 221.577,19.217 193.888,19.217 193.888,52.608 
			206.494,52.608 239.304,89.845 239.304,125.667 194.492,74.808 158.818,74.808 158.818,108.199 179.409,108.199 239.304,176.178 
			239.304,225.055 182.99,161.141 131.209,161.141 131.209,194.532 167.907,194.532 239.304,275.564 239.304,326.358 
			181.303,260.527 131.209,260.527 131.209,293.918 166.22,293.918 239.304,376.869 239.304,412.69 194.492,361.83 158.818,361.83 
			158.818,395.222 179.409,395.222 239.304,463.201 239.304,512 272.696,512 272.696,463.201 332.591,395.222 353.183,395.222 
			353.183,361.83 317.508,361.83 272.696,412.69 272.696,376.869 345.78,293.918 380.791,293.918 380.791,260.527 330.697,260.527 
			272.696,326.358 272.696,275.564 		"/>
	</g>
</g>
<g>
</g>
<g>
</g>
<g>
</g>
<g>
</g>
<g>
</g>
<g>
</g>
<g>
</g>
<g>
</g>
<g>
</g>
<g>
</g>
<g>
</g>
<g>
</g>
<g>
</g>
<g>
</g>
<g>
</g>
</svg>
