<?xml version="1.0" encoding="iso-8859-1"?>
<!-- Generator: Adobe Illustrator 19.0.0, SVG Export Plug-In . SVG Version: 6.00 Build 0)  -->
<svg version="1.1" id="Layer_1" xmlns="http://www.w3.org/2000/svg" xmlns:xlink="http://www.w3.org/1999/xlink" x="0px" y="0px"
	 viewBox="0 0 512 512" style="enable-background:new 0 0 512 512;" xml:space="preserve">
<g>
	<g>
		<rect x="180.692" y="431.46" width="33.391" height="66.326"/>
	</g>
</g>
<g>
	<g>
		<rect x="297.918" y="431.46" width="33.391" height="66.326"/>
	</g>
</g>
<g>
	<g>
		<rect x="239.305" y="431.46" width="33.391" height="80.54"/>
	</g>
</g>
<g>
	<g>
		<rect x="214.083" y="381.451" width="83.846" height="38.284"/>
	</g>
</g>
<g>
	<g>
		<path d="M256.001,263.847c-7.402,0-13.423,6.02-13.423,13.421c0,7.401,6.022,13.421,13.423,13.421
			c7.402,0,13.423-6.02,13.423-13.421S263.402,263.847,256.001,263.847z"/>
	</g>
</g>
<g>
	<g>
		<path d="M94.959,204.019v215.717h85.729V348.06h150.625v71.676h85.729V204.019H94.959z M256.001,324.08
			c-25.814,0-46.815-21-46.815-46.812c0-25.811,21.001-46.812,46.815-46.812s46.815,21,46.815,46.812
			C302.815,303.081,281.814,324.08,256.001,324.08z"/>
	</g>
</g>
<g>
	<g>
		<path d="M95.821,170.627h320.359c-4.875-47.113-30.153-88.257-66.817-114.433l21.238-40.765L340.989,0l-20.684,39.701
			c-19.708-8.617-41.455-13.409-64.305-13.409s-44.596,4.792-64.304,13.409L171.013,0L141.4,15.428l21.238,40.765
			C125.975,82.371,100.696,123.514,95.821,170.627z M295.046,104.576c13.084,0,23.689,10.605,23.689,23.688
			s-10.606,23.688-23.689,23.688c-13.084,0-23.69-10.605-23.69-23.688S281.963,104.576,295.046,104.576z M216.955,104.576
			c13.084,0,23.69,10.605,23.69,23.688s-10.606,23.688-23.69,23.688c-13.083,0-23.689-10.605-23.689-23.688
			S203.872,104.576,216.955,104.576z"/>
	</g>
</g>
<g>
</g>
<g>
</g>
<g>
</g>
<g>
</g>
<g>
</g>
<g>
</g>
<g>
</g>
<g>
</g>
<g>
</g>
<g>
</g>
<g>
</g>
<g>
</g>
<g>
</g>
<g>
</g>
<g>
</g>
</svg>
