<?xml version="1.0" encoding="iso-8859-1"?>
<!-- Generator: Adobe Illustrator 19.0.0, SVG Export Plug-In . SVG Version: 6.00 Build 0)  -->
<svg version="1.1" id="Layer_1" xmlns="http://www.w3.org/2000/svg" xmlns:xlink="http://www.w3.org/1999/xlink" x="0px" y="0px"
	 viewBox="0 0 512 512" style="enable-background:new 0 0 512 512;" xml:space="preserve">
<g>
	<g>
		<path d="M179.766,98.869c-46.152,26.914-75.197,76.642-75.214,130.834l34.889-18.588c4.577-28.574,19.522-54.401,41.676-72.617
			L179.766,98.869z"/>
	</g>
</g>
<g>
	<g>
		<path d="M332.234,98.896l-1.35,39.609c22.353,18.357,37.13,44.285,41.686,72.615l34.887,18.587
			C407.415,176.258,379.032,126.16,332.234,98.896z"/>
	</g>
</g>
<g>
	<g>
		<path d="M177.845,42.466c-33.153,13.913-62.605,36.754-84.281,65.656c-26.482,35.314-40.479,77.371-40.479,121.626
			c0,8.854,0.593,17.696,1.735,26.451l31.918-17.005c-0.174-3.143-0.262-6.293-0.262-9.445c0-36.974,11.689-72.104,33.802-101.593
			c15.541-20.725,35.861-37.714,58.801-49.466L177.845,42.466z"/>
	</g>
</g>
<g>
	<g>
		<path d="M442.551,149.888c-17.341-40.592-46.766-73.742-85.091-95.87c-7.519-4.341-15.315-8.181-23.303-11.524l-1.233,36.192
			c2.648,1.35,5.265,2.763,7.841,4.25c32.019,18.488,56.598,46.176,71.079,80.07c10.247,23.985,14.791,50.269,13.409,76.183
			l31.949,17.022C461.842,220.386,456.811,183.267,442.551,149.888z"/>
	</g>
</g>
<g>
	<g>
		<path d="M432.324,385.409l46.191-80.009l-171.409-91.323c-2.377-7.486-6.353-14.267-11.532-19.933l0.224-6.57L302.194,0h-92.387
			l6.394,187.575l0.224,6.57c-5.178,5.668-9.155,12.447-11.532,19.933L33.484,305.401l46.191,80.009l159.629-99.562v60.733
			c-8.288-1.18-16.466-3.24-24.389-6.168l-33.709,21.024c18.108,10.267,37.9,16.562,58.098,18.795v18.229
			c-1.141-0.115-2.283-0.24-3.425-0.378c-25.564-3.079-50.294-12.087-71.848-25.934l-30.786,19.201
			c28.554,21.6,62.924,35.584,98.641,39.885c2.474,0.298,4.946,0.535,7.417,0.743V512h33.391v-79.968
			c29.644-2.401,58.411-11.339,84.763-26.553c7.387-4.265,14.49-9.006,21.27-14.145l-30.762-19.187
			c-2.365,1.526-4.763,3.004-7.204,4.413c-21.206,12.243-44.276,19.637-68.067,21.958v-18.288
			c20.094-2.218,39.878-8.457,58.09-18.799l-33.698-21.018c-7.945,2.941-16.124,4.993-24.392,6.17v-60.737L432.324,385.409z
			 M256.001,250.49c-11.15,0-20.221-9.07-20.221-20.221s9.07-20.221,20.221-20.221s20.221,9.071,20.221,20.221
			S267.151,250.49,256.001,250.49z"/>
	</g>
</g>
<g>
</g>
<g>
</g>
<g>
</g>
<g>
</g>
<g>
</g>
<g>
</g>
<g>
</g>
<g>
</g>
<g>
</g>
<g>
</g>
<g>
</g>
<g>
</g>
<g>
</g>
<g>
</g>
<g>
</g>
</svg>
