<?xml version="1.0" encoding="iso-8859-1"?>
<!-- Generator: Adobe Illustrator 19.0.0, SVG Export Plug-In . SVG Version: 6.00 Build 0)  -->
<svg xmlns="http://www.w3.org/2000/svg" xmlns:xlink="http://www.w3.org/1999/xlink" version="1.1" id="Layer_1" x="0px" y="0px" viewBox="0 0 512.001 512.001" style="enable-background:new 0 0 512.001 512.001;" xml:space="preserve">
<g>
	<g>
		<path d="M390.729,330.417c-12.158,0-22.049,9.891-22.049,22.049c0,12.158,9.891,22.049,22.049,22.049    c12.158,0,22.049-9.891,22.049-22.049C412.779,340.309,402.886,330.417,390.729,330.417z"/>
	</g>
</g>
<g>
	<g>
		<path d="M390.729,231.195c-66.869,0-121.272,54.402-121.272,121.272v88.198H4.865V501.3h33.074v-27.562h231.519h16.537h104.735    c66.869,0,121.272-54.402,121.272-121.272S457.599,231.195,390.729,231.195z M390.729,407.59    c-30.395,0-55.123-24.728-55.123-55.123c0-30.395,24.728-55.123,55.123-55.123s55.123,24.728,55.123,55.123    C445.853,382.862,421.124,407.59,390.729,407.59z"/>
	</g>
</g>
<g>
	<g>
		
			<rect x="162.033" y="179.364" transform="matrix(0.7071 -0.7071 0.7071 0.7071 -77.6471 248.5971)" width="198.454" height="77.326"/>
	</g>
</g>
<g>
	<g>
		<polygon points="258.203,10.701 249.615,19.288 382.141,151.814 390.729,143.227 390.729,10.701   "/>
	</g>
</g>
<g>
	<g>
		
			<rect x="84.063" y="101.563" transform="matrix(0.7071 -0.7071 0.7071 0.7071 -45.3626 170.6317)" width="198.454" height="77.02"/>
	</g>
</g>
<g>
	<g>
		
			<rect x="53.316" y="210.197" transform="matrix(0.7071 -0.7071 0.7071 0.7071 -186.3317 157.9681)" width="88.406" height="187.418"/>
	</g>
</g>
<g>
</g>
<g>
</g>
<g>
</g>
<g>
</g>
<g>
</g>
<g>
</g>
<g>
</g>
<g>
</g>
<g>
</g>
<g>
</g>
<g>
</g>
<g>
</g>
<g>
</g>
<g>
</g>
<g>
</g>
</svg>
