<?xml version="1.0" encoding="iso-8859-1"?>
<!-- Generator: Adobe Illustrator 19.0.0, SVG Export Plug-In . SVG Version: 6.00 Build 0)  -->
<svg xmlns="http://www.w3.org/2000/svg" xmlns:xlink="http://www.w3.org/1999/xlink" version="1.1" id="Layer_1" x="0px" y="0px" viewBox="0 0 512 512" style="enable-background:new 0 0 512 512;" xml:space="preserve">
<g>
	<g>
		<path d="M362.667,74.667c-5.611,0-10.992,0.984-16,2.765v119.372h-32V77.337h30.095c-5.793-19.999-24.254-34.67-46.095-34.67    c-5.609,0-10.992,0.977-16,2.753v151.383h-32V45.337h31.922C281.202,20.103,260.24,0,234.667,0    c-25.573,0-46.535,20.103-47.922,45.337h31.922v151.467h-32V45.42c-5.008-1.776-10.391-2.753-16-2.753c-26.467,0-48,21.533-48,48    v122.576l55.497,74.273l-0.087,0.066l3.342,4.455l43.865-43.865c18.715-18.714,49.167-18.716,67.882,0    c18.716,18.716,18.716,49.167,0,67.883l-53.562,53.562l34.39,45.854h110.338l26.336-87.79V122.667    C410.667,96.199,389.134,74.667,362.667,74.667z"/>
	</g>
</g>
<g>
	<g>
		<rect x="90.667" y="447.467" width="330.667" height="64.533"/>
	</g>
</g>
<g>
	<g>
		<path d="M270.537,270.8c-6.239-6.238-16.389-6.238-22.627,0l-69.954,69.954l-55.289-74.05V415.47h111.325l-36.642-48.855    l73.187-73.186C276.775,287.189,276.775,277.039,270.537,270.8z"/>
	</g>
</g>
<g>
</g>
<g>
</g>
<g>
</g>
<g>
</g>
<g>
</g>
<g>
</g>
<g>
</g>
<g>
</g>
<g>
</g>
<g>
</g>
<g>
</g>
<g>
</g>
<g>
</g>
<g>
</g>
<g>
</g>
</svg>
