<?xml version="1.0" encoding="iso-8859-1"?>
<!-- Generator: Adobe Illustrator 19.0.0, SVG Export Plug-In . SVG Version: 6.00 Build 0)  -->
<svg xmlns="http://www.w3.org/2000/svg" xmlns:xlink="http://www.w3.org/1999/xlink" version="1.1" id="Layer_1" x="0px" y="0px" viewBox="0 0 512 512" style="enable-background:new 0 0 512 512;" xml:space="preserve">
<g>
	<g>
		<polygon points="331.881,32.324 225.924,138.28 437.839,138.28   "/>
	</g>
</g>
<g>
	<g>
		<path d="M448.363,291.521l0.146-0.276c-17.552-13.227-39.391-21.073-63.061-21.073c-57.926,0-104.884,46.957-104.884,104.884    c0,5.621,0.447,11.137,1.299,16.519h0.272c7.945,49.867,51.245,88.102,103.313,88.102c57.688,0,104.621-46.933,104.621-104.621    C490.069,340.965,473.677,310.633,448.363,291.521z"/>
	</g>
</g>
<g>
	<g>
		<path d="M470.877,171.318H192.886h-34.2l11.013,187.217h-26.652L76.969,204.357H0v33.038h55.184l66.077,154.179h50.38h15.576    h61.55c-0.646-5.441-0.98-10.954-0.98-16.519c0-36.77,14.319-71.339,40.32-97.34c26-26,60.57-40.32,97.34-40.32    c28.497,0,55.669,8.607,78.558,24.579L512,171.318H470.877z"/>
	</g>
</g>
<g>
</g>
<g>
</g>
<g>
</g>
<g>
</g>
<g>
</g>
<g>
</g>
<g>
</g>
<g>
</g>
<g>
</g>
<g>
</g>
<g>
</g>
<g>
</g>
<g>
</g>
<g>
</g>
<g>
</g>
</svg>
