<?xml version="1.0" encoding="iso-8859-1"?>
<!-- Generator: Adobe Illustrator 19.0.0, SVG Export Plug-In . SVG Version: 6.00 Build 0)  -->
<svg xmlns="http://www.w3.org/2000/svg" xmlns:xlink="http://www.w3.org/1999/xlink" version="1.1" id="Layer_1" x="0px" y="0px" viewBox="0 0 512 512" style="enable-background:new 0 0 512 512;" xml:space="preserve">
<g>
	<g>
		<rect x="128" y="372.364" width="104.727" height="139.636"/>
	</g>
</g>
<g>
	<g>
		<path d="M397.956,49.321c-3.54-13.275-8.041-23.953-13.378-31.737C374.612,3.05,362.943,0,354.909,0h-5.503L233.043,81.455h-0.315    V34.909H128v46.545h-23.273v104.727H128v151.273h104.727V186.182h0.317l116.364,81.455h5.502c8.034,0,19.703-3.05,29.668-17.583    c5.338-7.784,9.839-18.462,13.378-31.737c6.008-22.53,9.317-52.539,9.317-84.499C407.273,101.859,403.963,71.85,397.956,49.321z"/>
	</g>
</g>
<g>
</g>
<g>
</g>
<g>
</g>
<g>
</g>
<g>
</g>
<g>
</g>
<g>
</g>
<g>
</g>
<g>
</g>
<g>
</g>
<g>
</g>
<g>
</g>
<g>
</g>
<g>
</g>
<g>
</g>
</svg>
