<?xml version="1.0" encoding="iso-8859-1"?>
<!-- Generator: Adobe Illustrator 19.0.0, SVG Export Plug-In . SVG Version: 6.00 Build 0)  -->
<svg xmlns="http://www.w3.org/2000/svg" xmlns:xlink="http://www.w3.org/1999/xlink" version="1.1" id="Layer_1" x="0px" y="0px" viewBox="0 0 512 512" style="enable-background:new 0 0 512 512;" xml:space="preserve">
<g>
	<g>
		<path d="M375.07,0c-0.96,0-1.916,0.013-2.87,0.037c-0.321,0.008-0.642,0.025-0.962,0.036c-0.631,0.021-1.261,0.04-1.888,0.071    c-0.381,0.019-0.76,0.048-1.141,0.07c-0.566,0.034-1.131,0.065-1.694,0.108c-0.405,0.031-0.806,0.07-1.21,0.105    c-0.535,0.046-1.072,0.089-1.604,0.143c-0.419,0.042-0.835,0.093-1.253,0.139c-0.514,0.057-1.03,0.112-1.542,0.176    c-0.424,0.054-0.844,0.114-1.267,0.171c-0.504,0.069-1.009,0.136-1.51,0.212c-0.424,0.064-0.847,0.136-1.269,0.204    c-0.494,0.08-0.99,0.16-1.481,0.246c-0.427,0.075-0.853,0.157-1.279,0.238c-0.483,0.092-0.968,0.181-1.45,0.279    c-0.426,0.086-0.851,0.179-1.276,0.269c-0.479,0.102-0.956,0.205-1.432,0.313c-0.424,0.096-0.847,0.199-1.268,0.3    c-0.471,0.113-0.943,0.226-1.412,0.345c-0.423,0.107-0.843,0.219-1.265,0.331c-0.466,0.124-0.932,0.249-1.397,0.379    c-0.419,0.118-0.836,0.239-1.253,0.361c-0.461,0.135-0.92,0.27-1.378,0.411c-0.417,0.127-0.832,0.26-1.247,0.392    c-0.454,0.145-0.906,0.292-1.357,0.442c-0.414,0.138-0.829,0.28-1.241,0.423c-0.445,0.155-0.891,0.311-1.334,0.47    c-0.412,0.149-0.824,0.3-1.234,0.454c-0.439,0.164-0.878,0.331-1.315,0.5c-0.41,0.158-0.817,0.32-1.224,0.483    c-0.433,0.174-0.864,0.351-1.295,0.53c-0.405,0.168-0.807,0.338-1.21,0.512c-0.429,0.185-0.856,0.373-1.282,0.562    c-0.399,0.177-0.797,0.356-1.193,0.538c-0.422,0.194-0.842,0.392-1.262,0.591c-0.397,0.188-0.793,0.377-1.188,0.57    c-0.412,0.201-0.823,0.407-1.232,0.613c-0.394,0.199-0.788,0.398-1.18,0.601c-0.406,0.211-0.81,0.425-1.212,0.641    c-0.389,0.208-0.779,0.416-1.166,0.629c-0.4,0.22-0.798,0.444-1.195,0.669c-0.383,0.217-0.768,0.433-1.148,0.654    c-0.392,0.227-0.781,0.461-1.17,0.693c-0.382,0.227-0.764,0.455-1.143,0.687c-0.383,0.235-0.763,0.475-1.143,0.714    c-0.377,0.237-0.755,0.473-1.129,0.714c-0.377,0.244-0.75,0.493-1.125,0.741c-0.373,0.247-0.745,0.492-1.115,0.743    c-0.367,0.249-0.729,0.504-1.092,0.757c-0.37,0.258-0.742,0.514-1.109,0.776c-0.356,0.255-0.708,0.516-1.062,0.775    c-0.368,0.269-0.737,0.536-1.1,0.81c-0.345,0.26-0.686,0.525-1.029,0.789c-0.364,0.281-0.731,0.558-1.093,0.843    c-0.336,0.264-0.666,0.536-0.998,0.805c-0.362,0.292-0.725,0.581-1.084,0.876c-0.317,0.262-0.629,0.532-0.943,0.798    c-0.367,0.31-0.736,0.617-1.099,0.932c-0.264,0.229-0.522,0.464-0.784,0.695c-1.013,0.897-2.015,1.806-2.996,2.737    c-0.043,0.042-0.088,0.081-0.131,0.123c-0.401,0.382-0.794,0.772-1.189,1.16c-0.239,0.235-0.483,0.467-0.72,0.704    c-0.369,0.369-0.731,0.744-1.095,1.118c-0.257,0.263-0.518,0.524-0.772,0.791c-0.349,0.364-0.689,0.735-1.034,1.104    c-0.263,0.283-0.53,0.563-0.791,0.849c-0.336,0.369-0.666,0.744-0.998,1.117c-0.26,0.292-0.52,0.581-0.776,0.875    c-0.327,0.375-0.648,0.756-0.969,1.137c-0.254,0.299-0.51,0.597-0.761,0.899c-0.317,0.381-0.626,0.767-0.937,1.153    c-0.249,0.307-0.499,0.613-0.744,0.924c-0.307,0.388-0.608,0.781-0.91,1.173c-0.242,0.313-0.483,0.625-0.722,0.941    c-0.299,0.396-0.592,0.797-0.885,1.197c-0.233,0.318-0.468,0.636-0.698,0.956c-0.291,0.404-0.575,0.812-0.86,1.22    c-0.225,0.323-0.451,0.645-0.673,0.97c-0.282,0.413-0.558,0.829-0.835,1.245c-0.217,0.326-0.433,0.653-0.647,0.982    c-0.273,0.419-0.539,0.843-0.806,1.266c-0.21,0.333-0.419,0.667-0.626,1.001c-0.261,0.425-0.518,0.853-0.774,1.28    c-0.202,0.339-0.405,0.679-0.604,1.02c-0.252,0.432-0.501,0.868-0.748,1.304c-0.194,0.343-0.386,0.686-0.576,1.03    c-0.243,0.439-0.482,0.881-0.719,1.324c-0.186,0.348-0.37,0.695-0.552,1.044c-0.233,0.448-0.463,0.897-0.691,1.348    c-0.176,0.349-0.35,0.699-0.523,1.05c-0.224,0.456-0.445,0.913-0.663,1.373c-0.168,0.352-0.332,0.706-0.495,1.06    c-0.214,0.463-0.425,0.926-0.633,1.393c-0.158,0.356-0.314,0.712-0.469,1.07c-0.204,0.471-0.406,0.943-0.604,1.417    c-0.149,0.357-0.294,0.716-0.439,1.074c-0.194,0.479-0.386,0.957-0.573,1.438c-0.141,0.361-0.276,0.723-0.413,1.085    c-0.183,0.486-0.366,0.973-0.543,1.462c-0.13,0.358-0.255,0.719-0.381,1.08c-0.174,0.497-0.346,0.993-0.513,1.493    c-0.12,0.36-0.236,0.72-0.351,1.081c-0.163,0.506-0.326,1.012-0.483,1.522c-0.108,0.355-0.213,0.712-0.318,1.068    c-0.154,0.519-0.308,1.038-0.455,1.561c-0.098,0.349-0.191,0.7-0.285,1.05c-0.144,0.535-0.289,1.068-0.426,1.605    c-0.087,0.341-0.168,0.685-0.251,1.028c-0.135,0.549-0.269,1.097-0.395,1.648c-0.076,0.335-0.146,0.672-0.22,1.007    c-0.124,0.564-0.248,1.129-0.363,1.697c-0.063,0.313-0.12,0.629-0.181,0.943c-0.115,0.594-0.231,1.187-0.337,1.784    c-0.05,0.279-0.092,0.56-0.139,0.838c-0.107,0.636-0.216,1.271-0.313,1.909c-0.032,0.212-0.058,0.425-0.089,0.637    c-0.498,3.414-0.847,6.875-1.031,10.381c-0.104,1.986-0.158,3.988-0.158,6.002c0,10.302,1.392,20.282,3.984,29.773    c0.723,2.645,1.538,5.25,2.443,7.813c0.001,0.005,0.004,0.01,0.005,0.014c0.907,2.565,1.904,5.088,2.986,7.565    c0,0.001,0.001,0.001,0.001,0.002c1.083,2.479,2.254,4.912,3.507,7.295v0.001c5.639,10.726,12.95,20.441,21.584,28.796    c1.906,1.844,3.877,3.622,5.908,5.331c0.023,0.019,0.045,0.038,0.068,0.057c2.015,1.692,4.09,3.314,6.22,4.864    c0.042,0.031,0.085,0.062,0.126,0.092c2.121,1.538,4.296,3.005,6.524,4.396c0.054,0.033,0.107,0.067,0.161,0.1    c2.222,1.384,4.496,2.691,6.817,3.921c0.063,0.033,0.127,0.067,0.19,0.1c2.321,1.224,4.689,2.37,7.101,3.433    c0.065,0.029,0.13,0.057,0.195,0.086c2.417,1.06,4.877,2.039,7.378,2.932c0.063,0.023,0.126,0.044,0.19,0.067    c2.511,0.891,5.062,1.697,7.65,2.411c0.05,0.014,0.101,0.027,0.151,0.04c2.605,0.716,5.247,1.341,7.924,1.871    c0.032,0.006,0.064,0.012,0.096,0.018c1.34,0.264,2.686,0.505,4.042,0.722c5.821,0.929,11.786,1.417,17.863,1.417    s12.042-0.488,17.86-1.415c5.027-0.801,9.944-1.936,14.729-3.378c0.045-0.013,0.09-0.026,0.136-0.04    c1.551-0.47,3.09-0.973,4.614-1.507c0.065-0.023,0.132-0.046,0.198-0.07c1.531-0.541,3.049-1.111,4.55-1.715    c0.015-0.006,0.03-0.012,0.045-0.019c4.577-1.843,9.005-3.978,13.263-6.381c0.052-0.03,0.106-0.06,0.16-0.089    c1.369-0.775,2.721-1.58,4.054-2.41c0.081-0.05,0.162-0.101,0.243-0.152c1.329-0.832,2.641-1.69,3.933-2.576    c0.052-0.036,0.104-0.073,0.156-0.108c3.971-2.73,7.759-5.708,11.341-8.91c0.071-0.064,0.144-0.127,0.216-0.192    c1.135-1.018,2.247-2.061,3.339-3.123c0.104-0.101,0.207-0.201,0.31-0.302c1.08-1.059,2.14-2.138,3.177-3.239    c0.087-0.092,0.171-0.185,0.257-0.276c1.06-1.133,2.1-2.285,3.114-3.46c0.014-0.017,0.027-0.033,0.043-0.05    c2.066-2.399,4.029-4.889,5.892-7.457c0.082-0.113,0.166-0.225,0.248-0.339c0.868-1.206,1.71-2.431,2.53-3.671    c0.107-0.161,0.213-0.323,0.319-0.485c0.806-1.231,1.588-2.479,2.347-3.742c0.095-0.158,0.188-0.318,0.282-0.476    c0.768-1.293,1.513-2.6,2.23-3.927c0.049-0.089,0.094-0.181,0.143-0.27c0.737-1.373,1.45-2.761,2.131-4.167    c0.011-0.021,0.021-0.042,0.031-0.063c0.668-1.38,1.303-2.778,1.915-4.188c0.07-0.162,0.143-0.323,0.212-0.485    c0.58-1.35,1.13-2.716,1.657-4.094c0.083-0.218,0.167-0.436,0.249-0.654c0.513-1.365,1-2.741,1.462-4.129    c0.073-0.218,0.142-0.436,0.213-0.654c0.461-1.417,0.899-2.845,1.305-4.285c0.042-0.149,0.081-0.3,0.123-0.45    c0.414-1.497,0.805-3.004,1.159-4.525c0.006-0.026,0.013-0.052,0.019-0.079c0.351-1.515,0.664-3.042,0.955-4.579    c0.036-0.192,0.075-0.383,0.111-0.576c0.269-1.469,0.505-2.949,0.717-4.438c0.036-0.252,0.073-0.505,0.106-0.757    c0.199-1.473,0.37-2.955,0.511-4.446c0.024-0.252,0.045-0.505,0.068-0.757c0.133-1.517,0.242-3.041,0.316-4.575    c0.01-0.189,0.013-0.379,0.021-0.568c0.067-1.612,0.109-3.234,0.109-4.866C488.186,50.744,437.442,0,375.07,0z M375.07,136.93    c-13.152,0-23.814-10.661-23.814-23.814s10.662-23.814,23.814-23.814c13.152,0,23.814,10.661,23.814,23.814    S388.222,136.93,375.07,136.93z"/>
	</g>
</g>
<g>
	<g>
		<path d="M375.07,261.953c-82.069,0-148.837-66.768-148.837-148.837c0-1.994,0.051-3.978,0.13-5.953h-35.851v83.349H77.395    c-29.545,0-53.581,24.037-53.581,53.581s24.037,53.581,53.581,53.581h113.116V512H392.93V260.878    C387.072,261.582,381.114,261.953,375.07,261.953z M315.535,440.558h-47.628v-35.721h47.628V440.558z M315.535,369.116h-47.628    v-35.721h47.628V369.116z"/>
	</g>
</g>
<g>
</g>
<g>
</g>
<g>
</g>
<g>
</g>
<g>
</g>
<g>
</g>
<g>
</g>
<g>
</g>
<g>
</g>
<g>
</g>
<g>
</g>
<g>
</g>
<g>
</g>
<g>
</g>
<g>
</g>
</svg>
