<?xml version="1.0" encoding="iso-8859-1"?>
<!-- Generator: Adobe Illustrator 19.0.0, SVG Export Plug-In . SVG Version: 6.00 Build 0)  -->
<svg xmlns="http://www.w3.org/2000/svg" xmlns:xlink="http://www.w3.org/1999/xlink" version="1.1" id="Layer_1" x="0px" y="0px" viewBox="0 0 512 512" style="enable-background:new 0 0 512 512;" xml:space="preserve">
<g>
	<g>
		<path d="M468.426,217.872V108.936h-32.681h-98.043h-19.609H272.34v108.936h-31.591V21.787H43.574v196.085h-16.34v32.681h16.34    h43.574V512h77.74l36.852-38.128l-21.058-21.787l21.058-21.787l-21.058-21.787l21.058-21.787l-21.058-21.787l21.058-21.787    l-21.058-21.787l21.058-21.787l-21.058-21.787L201.741,256l-5.265-5.447h43.183h32.681h196.085h16.34v-32.681H468.426z     M190.638,196.085h-87.149v-32.681h87.149V196.085z M190.638,152.511h-87.149V119.83h87.149V152.511z M190.638,108.936h-87.149    V76.255h87.149V108.936z"/>
	</g>
</g>
<g>
	<g>
		<path d="M386.723,0c-27.03,0-49.021,21.991-49.021,49.021v28.323h98.043V49.021C435.745,21.991,413.754,0,386.723,0z"/>
	</g>
</g>
<g>
</g>
<g>
</g>
<g>
</g>
<g>
</g>
<g>
</g>
<g>
</g>
<g>
</g>
<g>
</g>
<g>
</g>
<g>
</g>
<g>
</g>
<g>
</g>
<g>
</g>
<g>
</g>
<g>
</g>
</svg>
