<?xml version="1.0" encoding="iso-8859-1"?>
<!-- Generator: Adobe Illustrator 19.0.0, SVG Export Plug-In . SVG Version: 6.00 Build 0)  -->
<svg xmlns="http://www.w3.org/2000/svg" xmlns:xlink="http://www.w3.org/1999/xlink" version="1.1" id="Layer_1" x="0px" y="0px" viewBox="0 0 512 512" style="enable-background:new 0 0 512 512;" xml:space="preserve">
<g>
	<g>
		<path d="M348.596,0v65.362h59.915v32.681h-59.915v32.681h59.915v32.681h-59.915v32.681h59.915v32.681h-59.915v32.681h59.915    v32.681h-59.915v32.681h-32.681v59.915h-32.681v-59.915h21.787V194.764L201.532,91.274L98.043,194.764v132.045h21.787v59.915    H87.149v-59.915H21.787v108.936h468.426V326.809V0H348.596z M185.192,386.723h-32.681v-59.915h32.681V386.723z M250.553,386.723    h-32.681v-59.915h32.681V386.723z M235.425,223.21l-33.893-33.893l-33.893,33.893l-28.792-23.033l62.685-62.917l62.685,62.917    L235.425,223.21z"/>
	</g>
</g>
<g>
	<g>
		<rect x="98.043" y="468.426" width="206.979" height="43.574"/>
	</g>
</g>
<g>
</g>
<g>
</g>
<g>
</g>
<g>
</g>
<g>
</g>
<g>
</g>
<g>
</g>
<g>
</g>
<g>
</g>
<g>
</g>
<g>
</g>
<g>
</g>
<g>
</g>
<g>
</g>
<g>
</g>
</svg>
