<?xml version="1.0" encoding="iso-8859-1"?>
<!-- Generator: Adobe Illustrator 19.0.0, SVG Export Plug-In . SVG Version: 6.00 Build 0)  -->
<svg xmlns="http://www.w3.org/2000/svg" xmlns:xlink="http://www.w3.org/1999/xlink" version="1.1" id="Layer_1" x="0px" y="0px" viewBox="0 0 512 512" style="enable-background:new 0 0 512 512;" xml:space="preserve">
<g>
	<g>
		<path d="M124.542,387.456c-5.43-5.431-12.564-8.146-19.699-8.146c-7.134,0-14.268,2.716-19.699,8.146    c-10.862,10.862-10.862,28.537,0,39.399s28.537,10.861,39.399,0C135.405,415.993,135.405,398.319,124.542,387.456z"/>
	</g>
</g>
<g>
	<g>
		<path d="M508.468,77.688l-7.321-27.436l-57.623,57.623l-32.832-6.568l-6.567-32.832l57.623-57.623l-27.436-7.321    c-36.087-9.63-74.882,0.766-101.246,27.132c-24.065,24.065-34.826,58.488-29.197,91.753L122.462,303.824    c-33.265-5.63-67.688,5.131-91.753,29.197C10.906,352.823,0,379.151,0,407.156c0,28.005,10.906,54.334,30.708,74.136    C50.51,501.095,76.838,512,104.844,512c28.005,0,54.333-10.906,74.135-30.708c24.065-24.065,34.826-58.488,29.197-91.753    l181.408-181.408c5.81,0.984,11.65,1.466,17.469,1.466c27.498-0.001,54.421-10.801,74.284-30.663    C507.702,152.569,518.098,113.774,508.468,77.688z M147.701,450.013c-11.447,11.447-26.669,17.752-42.858,17.752    s-31.41-6.304-42.857-17.752s-17.752-26.668-17.752-42.857s6.304-31.41,17.752-42.857c11.447-11.447,26.668-17.752,42.857-17.752    s31.411,6.304,42.857,17.752C171.333,387.93,171.333,426.381,147.701,450.013z"/>
	</g>
</g>
<g>
</g>
<g>
</g>
<g>
</g>
<g>
</g>
<g>
</g>
<g>
</g>
<g>
</g>
<g>
</g>
<g>
</g>
<g>
</g>
<g>
</g>
<g>
</g>
<g>
</g>
<g>
</g>
<g>
</g>
</svg>
