<?xml version="1.0" encoding="iso-8859-1"?>
<!-- Generator: Adobe Illustrator 19.0.0, SVG Export Plug-In . SVG Version: 6.00 Build 0)  -->
<svg xmlns="http://www.w3.org/2000/svg" xmlns:xlink="http://www.w3.org/1999/xlink" version="1.1" id="Layer_1" x="0px" y="0px" viewBox="0 0 512 512" style="enable-background:new 0 0 512 512;" xml:space="preserve">
<g>
	<g>
		<path d="M473.872,61.978c-21.024,0-38.128,17.104-38.128,38.128v125.277h21.787v43.574H54.468v-43.574h21.787V100.105    c0-21.024-17.104-38.128-38.128-38.128C17.104,61.978,0,79.082,0,100.105v125.277h21.787v43.574v16.34v93.917l70.809,70.808    l54.468-54.468l54.468,54.468L256,395.554l54.468,54.468l54.468-54.468l54.468,54.468l70.809-70.808v-93.917v-16.34v-43.574H512    V100.105C512,79.082,494.896,61.978,473.872,61.978z"/>
	</g>
</g>
<g>
</g>
<g>
</g>
<g>
</g>
<g>
</g>
<g>
</g>
<g>
</g>
<g>
</g>
<g>
</g>
<g>
</g>
<g>
</g>
<g>
</g>
<g>
</g>
<g>
</g>
<g>
</g>
<g>
</g>
</svg>
