<?xml version="1.0" encoding="iso-8859-1"?>
<!-- Generator: Adobe Illustrator 19.0.0, SVG Export Plug-In . SVG Version: 6.00 Build 0)  -->
<svg version="1.1" id="Capa_1" xmlns="http://www.w3.org/2000/svg" xmlns:xlink="http://www.w3.org/1999/xlink" x="0px" y="0px"
	 viewBox="0 0 512 512" style="enable-background:new 0 0 512 512;" xml:space="preserve">
<g>
	<g>
		<path d="M153.233,303.557l-49.149-160.326c-1.404-4.378-4.599-7.753-9.593-10.119c-4.993-2.366-10.735-3.549-17.215-3.549
			c-6.484,0-12.221,1.183-17.215,3.549c-4.994,2.365-8.193,5.74-9.593,10.119L1.58,303.558c-0.354,1.404-0.525,2.365-0.525,2.891
			c0,4.559,2.846,8.501,8.542,11.827c5.692,3.331,11.605,4.994,17.741,4.994c7.532,0,11.999-2.538,13.404-7.622l8.937-32.854h55.457
			l8.936,32.854c1.4,5.084,5.868,7.622,13.404,7.622c6.132,0,12.045-1.663,17.742-4.994c5.692-3.325,8.542-7.268,8.542-11.828
			C153.759,305.923,153.582,304.962,153.233,303.557z M58.088,251.254l19.186-70.438l19.186,70.438H58.088z"/>
	</g>
</g>
<g>
	<g>
		<path d="M507.19,293.045c-2.279-3.68-5.256-5.52-8.936-5.52h-71.49l74.118-131.151c2.978-5.43,4.468-10.25,4.468-14.457
			c0-7.182-3.943-10.776-11.828-10.776H392.07c-4.032,0-7.096,1.754-9.2,5.257c-2.102,3.507-3.153,7.712-3.153,12.616
			c0,4.907,1.092,9.112,3.285,12.616c2.188,3.508,5.211,5.256,9.067,5.256h60.976L378.93,298.038
			c-2.983,5.084-4.469,9.902-4.469,14.456c0,7.186,3.943,10.776,11.828,10.776h111.966c3.68,0,6.656-1.84,8.936-5.52
			c2.275-3.68,3.416-7.794,3.416-12.352C510.607,300.843,509.465,296.724,507.19,293.045z"/>
	</g>
</g>
<g>
	<g>
		<path d="M340.359,221.197c-6.206-5.508-15.701-4.944-21.21,1.264l-13.175,14.843v-63.752c0-24.706-20.099-44.805-44.805-44.805
			s-44.806,20.099-44.806,44.805v63.863l-13.273-14.954c-5.509-6.205-15.005-6.773-21.209-1.264
			c-6.206,5.509-6.772,15.004-1.264,21.21l69.232,78c2.009,2.264,4.553,3.757,7.269,4.499c0.06,0.017,0.121,0.032,0.181,0.048
			c0.362,0.094,0.725,0.179,1.092,0.245c0.144,0.027,0.289,0.045,0.434,0.067c0.302,0.046,0.604,0.093,0.908,0.121
			c0.339,0.032,0.679,0.043,1.019,0.052c0.113,0.003,0.225,0.017,0.339,0.017c0.01,0,0.019-0.001,0.028-0.001
			c0.009,0,0.019,0.001,0.028,0.001c0.113,0,0.225-0.015,0.339-0.017c0.34-0.009,0.679-0.02,1.018-0.052
			c0.305-0.027,0.608-0.075,0.912-0.121c0.143-0.022,0.287-0.04,0.43-0.067c0.369-0.067,0.733-0.152,1.098-0.247
			c0.058-0.015,0.116-0.03,0.174-0.046c2.718-0.741,5.263-2.236,7.273-4.5l69.232-78
			C347.131,236.202,346.566,226.706,340.359,221.197z"/>
	</g>
</g>
<g>
	<g>
		<path d="M496.976,353.205H15.024C6.727,353.205,0,359.931,0,368.228c0,8.297,6.727,15.024,15.024,15.024h481.953
			c8.297,0,15.024-6.727,15.024-15.024C512,359.931,505.274,353.205,496.976,353.205z"/>
	</g>
</g>
<g>
</g>
<g>
</g>
<g>
</g>
<g>
</g>
<g>
</g>
<g>
</g>
<g>
</g>
<g>
</g>
<g>
</g>
<g>
</g>
<g>
</g>
<g>
</g>
<g>
</g>
<g>
</g>
<g>
</g>
</svg>
