<?xml version="1.0" encoding="iso-8859-1"?>
<!-- Generator: Adobe Illustrator 19.0.0, SVG Export Plug-In . SVG Version: 6.00 Build 0)  -->
<svg version="1.1" id="Capa_1" xmlns="http://www.w3.org/2000/svg" xmlns:xlink="http://www.w3.org/1999/xlink" x="0px" y="0px"
	 viewBox="0 0 512 512" style="enable-background:new 0 0 512 512;" xml:space="preserve">
<g>
	<g>
		<path d="M449.291,281.464c-12.669-5.358-26.118-8.075-39.972-8.075c-2.563,0-5.102,0.097-7.619,0.283V260.82h59.461
			c27.733,0,50.296-22.562,50.296-50.297c0-27.732-22.562-50.296-50.296-50.296H401.7V133.84h59.461
			c27.733,0,50.296-22.562,50.296-50.297c0-27.732-22.562-50.296-50.296-50.296H50.297C22.562,33.249,0,55.812,0,83.544
			c0,27.733,22.562,50.297,50.297,50.297h55.217v26.388H50.297C22.562,160.227,0,182.791,0,210.523
			c0,27.733,22.562,50.297,50.297,50.297h55.217v27.263H51.141c-27.54,0-50.608,21.787-51.132,49.323
			c-0.535,28.176,22.229,51.268,50.287,51.268h227.096c3.369,0,5.894-3.055,5.29-6.369c-1.09-5.979-1.662-12.136-1.662-18.425
			c0-25.52,9.359-48.895,24.826-66.874c3.016-3.505,0.568-8.924-4.056-8.924H135.508V260.82h236.197v19.704
			c-38.067,15.038-65.068,52.199-65.068,95.547c0,56.62,46.062,102.682,102.682,102.682c56.62,0,102.682-46.062,102.682-102.682
			C512,334.713,487.385,297.577,449.291,281.464z M445.434,208.927c0.05-0.49,0.13-0.979,0.22-1.46c0.1-0.48,0.22-0.96,0.36-1.42
			c0.15-0.47,0.31-0.93,0.5-1.38c0.19-0.46,0.4-0.9,0.63-1.33s0.48-0.86,0.75-1.26c0.27-0.41,0.56-0.811,0.87-1.19
			c0.31-0.379,0.65-0.75,0.99-1.09c0.35-0.35,0.72-0.68,1.1-0.99s0.77-0.609,1.18-0.88c0.41-0.27,0.83-0.52,1.26-0.75
			c0.44-0.229,0.88-0.44,1.33-0.63c0.45-0.19,0.92-0.35,1.38-0.49c0.47-0.149,0.95-0.27,1.43-0.37c0.48-0.09,0.97-0.17,1.46-0.21
			c0.97-0.1,1.97-0.1,2.95,0c0.48,0.04,0.97,0.12,1.45,0.21c0.48,0.101,0.96,0.221,1.43,0.37c0.46,0.141,0.93,0.3,1.38,0.49
			c0.45,0.189,0.9,0.4,1.33,0.63c0.43,0.23,0.85,0.48,1.26,0.75c0.4,0.271,0.8,0.57,1.18,0.88c0.38,0.311,0.75,0.641,1.1,0.99
			c0.34,0.34,0.68,0.71,0.99,1.09s0.6,0.78,0.87,1.19c0.27,0.399,0.52,0.83,0.75,1.26s0.44,0.87,0.63,1.33
			c0.19,0.45,0.35,0.91,0.5,1.38c0.14,0.46,0.26,0.939,0.36,1.42c0.09,0.48,0.17,0.97,0.21,1.46c0.05,0.49,0.08,0.98,0.08,1.47
			s-0.03,0.99-0.08,1.48c-0.04,0.479-0.12,0.97-0.21,1.45c-0.1,0.479-0.22,0.96-0.36,1.43c-0.15,0.46-0.31,0.93-0.5,1.38
			c-0.19,0.45-0.4,0.9-0.63,1.33c-0.23,0.43-0.48,0.85-0.75,1.26c-0.27,0.41-0.56,0.811-0.87,1.181c-0.31,0.38-0.65,0.75-0.99,1.1
			c-0.35,0.35-0.72,0.68-1.1,0.99s-0.78,0.6-1.18,0.87c-0.41,0.27-0.83,0.529-1.26,0.76c-0.43,0.229-0.88,0.439-1.33,0.62
			c-0.45,0.189-0.92,0.359-1.38,0.5c-0.47,0.14-0.95,0.26-1.43,0.359c-0.48,0.101-0.97,0.17-1.45,0.221
			c-0.49,0.05-0.99,0.069-1.48,0.069s-0.99-0.02-1.47-0.069c-0.49-0.051-0.98-0.12-1.46-0.221c-0.48-0.1-0.96-0.22-1.42-0.359
			c-0.47-0.141-0.94-0.311-1.39-0.5c-0.45-0.181-0.89-0.391-1.32-0.62c-0.44-0.23-0.86-0.49-1.27-0.76
			c-0.4-0.271-0.8-0.561-1.18-0.87c-0.38-0.311-0.75-0.641-1.1-0.99c-0.34-0.35-0.68-0.72-0.99-1.1c-0.31-0.37-0.6-0.771-0.87-1.181
			c-0.27-0.41-0.52-0.83-0.75-1.26c-0.23-0.43-0.44-0.88-0.63-1.33c-0.19-0.45-0.35-0.92-0.5-1.38c-0.14-0.47-0.26-0.95-0.36-1.43
			c-0.09-0.48-0.17-0.971-0.22-1.45c-0.04-0.49-0.07-0.99-0.07-1.48C445.364,209.908,445.394,209.418,445.434,208.927z
			 M445.434,81.948c0.05-0.49,0.13-0.979,0.22-1.46c0.1-0.48,0.22-0.95,0.36-1.42c0.15-0.47,0.31-0.93,0.5-1.38
			c0.19-0.46,0.4-0.9,0.63-1.33s0.48-0.86,0.75-1.26c0.27-0.41,0.56-0.811,0.87-1.19c0.31-0.379,0.65-0.75,0.99-1.09
			c0.35-0.35,0.72-0.68,1.1-0.99c0.38-0.31,0.78-0.609,1.18-0.88c0.41-0.27,0.83-0.52,1.27-0.75c0.43-0.229,0.87-0.44,1.32-0.63
			c0.45-0.19,0.92-0.35,1.38-0.49c0.47-0.149,0.95-0.27,1.43-0.37c0.48-0.09,0.97-0.17,1.45-0.21c0.98-0.1,1.98-0.1,2.95,0
			c0.49,0.04,0.98,0.12,1.46,0.21c0.48,0.101,0.96,0.221,1.43,0.37c0.46,0.141,0.93,0.3,1.38,0.49c0.45,0.189,0.89,0.4,1.32,0.63
			c0.44,0.23,0.86,0.48,1.27,0.75c0.4,0.271,0.8,0.57,1.18,0.88c0.38,0.311,0.75,0.641,1.1,0.99c0.34,0.34,0.68,0.71,0.99,1.09
			c0.31,0.38,0.6,0.78,0.87,1.19c0.27,0.399,0.52,0.83,0.75,1.26s0.44,0.87,0.63,1.33c0.19,0.45,0.35,0.91,0.5,1.38
			c0.14,0.47,0.26,0.939,0.36,1.42c0.09,0.48,0.17,0.97,0.22,1.46s0.07,0.98,0.07,1.47c0,0.49-0.02,0.99-0.07,1.48
			c-0.05,0.479-0.13,0.97-0.22,1.45c-0.1,0.479-0.22,0.96-0.36,1.43c-0.15,0.46-0.31,0.93-0.5,1.38c-0.19,0.45-0.4,0.9-0.63,1.33
			s-0.48,0.85-0.75,1.26c-0.27,0.41-0.56,0.8-0.87,1.181c-0.31,0.38-0.65,0.75-0.99,1.1c-0.35,0.34-0.72,0.68-1.1,0.99
			s-0.78,0.6-1.18,0.87c-0.41,0.27-0.83,0.529-1.27,0.76c-0.43,0.229-0.87,0.439-1.32,0.62c-0.45,0.189-0.92,0.359-1.38,0.5
			c-0.47,0.14-0.95,0.26-1.43,0.359c-0.48,0.101-0.97,0.17-1.46,0.221c-0.48,0.05-0.98,0.069-1.47,0.069
			c-0.49,0-0.99-0.02-1.48-0.069c-0.48-0.051-0.97-0.12-1.45-0.221c-0.48-0.1-0.96-0.22-1.43-0.359c-0.46-0.141-0.93-0.311-1.38-0.5
			c-0.45-0.181-0.89-0.391-1.32-0.62c-0.44-0.23-0.86-0.49-1.27-0.76c-0.4-0.271-0.8-0.561-1.18-0.87
			c-0.38-0.311-0.75-0.65-1.1-0.99c-0.34-0.35-0.68-0.72-0.99-1.1c-0.31-0.381-0.6-0.771-0.87-1.181c-0.27-0.41-0.52-0.83-0.75-1.26
			s-0.44-0.88-0.63-1.33c-0.19-0.45-0.35-0.92-0.5-1.38c-0.14-0.47-0.26-0.95-0.36-1.43c-0.09-0.48-0.17-0.971-0.22-1.45
			c-0.05-0.49-0.07-0.99-0.07-1.48C445.364,82.929,445.384,82.439,445.434,81.948z M66.357,84.899c-0.05,0.479-0.13,0.97-0.22,1.45
			c-0.1,0.479-0.22,0.96-0.36,1.43c-0.15,0.46-0.31,0.93-0.5,1.38c-0.19,0.45-0.4,0.9-0.63,1.33c-0.23,0.43-0.48,0.85-0.75,1.26
			c-0.27,0.41-0.56,0.8-0.87,1.181c-0.31,0.38-0.65,0.75-0.99,1.1c-0.35,0.34-0.72,0.68-1.1,0.99s-0.78,0.6-1.18,0.87
			c-0.41,0.27-0.83,0.529-1.27,0.76c-0.43,0.229-0.87,0.439-1.32,0.62c-0.45,0.189-0.92,0.359-1.39,0.5
			c-0.46,0.14-0.94,0.26-1.42,0.359c-0.48,0.101-0.97,0.17-1.45,0.221c-0.49,0.05-0.99,0.069-1.48,0.069s-0.99-0.02-1.48-0.069
			c-0.48-0.051-0.97-0.12-1.45-0.221c-0.48-0.1-0.96-0.22-1.43-0.359c-0.46-0.141-0.93-0.311-1.38-0.5
			c-0.45-0.181-0.89-0.391-1.33-0.62c-0.43-0.23-0.85-0.49-1.26-0.76c-0.41-0.271-0.8-0.561-1.18-0.87
			c-0.38-0.311-0.75-0.65-1.1-0.99c-0.34-0.35-0.68-0.72-0.99-1.1c-0.31-0.381-0.6-0.771-0.87-1.181s-0.52-0.83-0.75-1.26
			c-0.23-0.43-0.44-0.88-0.63-1.33c-0.19-0.45-0.35-0.92-0.5-1.38c-0.14-0.47-0.26-0.95-0.36-1.43c-0.09-0.48-0.17-0.971-0.22-1.45
			c-0.04-0.49-0.07-0.99-0.07-1.48c0-0.489,0.03-0.979,0.07-1.47c0.05-0.49,0.13-0.979,0.22-1.46c0.1-0.48,0.22-0.95,0.36-1.42
			c0.15-0.47,0.31-0.93,0.5-1.38c0.19-0.46,0.4-0.9,0.63-1.33c0.23-0.43,0.48-0.86,0.75-1.26c0.27-0.41,0.56-0.811,0.87-1.19
			c0.31-0.379,0.65-0.75,0.99-1.09c0.35-0.35,0.72-0.68,1.1-0.99s0.77-0.609,1.18-0.88c0.41-0.27,0.83-0.52,1.26-0.75
			c0.44-0.229,0.88-0.44,1.33-0.63c0.45-0.19,0.92-0.35,1.38-0.49c0.47-0.149,0.95-0.27,1.43-0.37c0.48-0.09,0.97-0.17,1.45-0.21
			c0.98-0.1,1.98-0.1,2.96,0c0.48,0.04,0.97,0.12,1.45,0.21c0.48,0.101,0.96,0.221,1.43,0.37c0.46,0.141,0.93,0.3,1.38,0.49
			c0.45,0.189,0.89,0.4,1.33,0.63c0.43,0.23,0.85,0.48,1.26,0.75c0.41,0.271,0.8,0.57,1.18,0.88c0.38,0.311,0.75,0.641,1.1,0.99
			c0.34,0.34,0.68,0.71,0.99,1.09s0.6,0.78,0.87,1.19c0.27,0.399,0.52,0.83,0.75,1.26s0.44,0.87,0.63,1.33
			c0.19,0.45,0.35,0.91,0.5,1.38c0.14,0.47,0.26,0.939,0.36,1.42c0.09,0.48,0.17,0.97,0.22,1.46c0.04,0.49,0.07,0.98,0.07,1.47
			C66.427,83.908,66.397,84.408,66.357,84.899z M66.357,211.878c-0.05,0.479-0.13,0.97-0.22,1.45c-0.1,0.479-0.22,0.96-0.36,1.43
			c-0.15,0.46-0.31,0.93-0.5,1.38c-0.19,0.45-0.4,0.9-0.63,1.33c-0.23,0.43-0.48,0.85-0.75,1.26c-0.27,0.41-0.56,0.8-0.87,1.181
			c-0.32,0.38-0.65,0.75-0.99,1.1c-0.35,0.35-0.72,0.68-1.1,0.99c-0.38,0.31-0.78,0.6-1.18,0.87c-0.41,0.27-0.83,0.529-1.27,0.76
			c-0.43,0.229-0.87,0.439-1.32,0.62c-0.45,0.189-0.92,0.359-1.39,0.5c-0.46,0.14-0.94,0.26-1.42,0.359
			c-0.48,0.101-0.97,0.17-1.46,0.221c-0.48,0.05-0.98,0.069-1.47,0.069s-0.99-0.02-1.48-0.069c-0.48-0.051-0.97-0.12-1.45-0.221
			c-0.48-0.1-0.96-0.22-1.43-0.359c-0.46-0.141-0.93-0.311-1.38-0.5c-0.45-0.181-0.89-0.391-1.33-0.62
			c-0.43-0.23-0.85-0.49-1.26-0.76c-0.4-0.271-0.8-0.561-1.18-0.87c-0.38-0.311-0.75-0.641-1.1-0.99c-0.34-0.35-0.68-0.72-0.99-1.1
			c-0.31-0.381-0.6-0.771-0.87-1.181c-0.27-0.41-0.52-0.83-0.75-1.26c-0.23-0.43-0.44-0.88-0.63-1.33c-0.19-0.45-0.35-0.92-0.5-1.38
			c-0.14-0.47-0.26-0.95-0.36-1.43c-0.09-0.48-0.17-0.971-0.22-1.45c-0.05-0.49-0.07-0.99-0.07-1.48c0-0.489,0.02-0.979,0.07-1.47
			c0.05-0.49,0.13-0.979,0.22-1.46c0.1-0.48,0.22-0.96,0.36-1.42c0.15-0.47,0.31-0.93,0.5-1.38c0.19-0.46,0.4-0.9,0.63-1.33
			c0.23-0.43,0.48-0.86,0.75-1.26c0.27-0.41,0.56-0.811,0.87-1.19c0.31-0.379,0.65-0.75,0.99-1.09c0.35-0.35,0.72-0.68,1.1-0.99
			c0.38-0.31,0.78-0.609,1.18-0.88c0.41-0.27,0.83-0.52,1.26-0.75c0.44-0.229,0.88-0.44,1.33-0.63c0.45-0.19,0.92-0.35,1.38-0.49
			c0.47-0.149,0.95-0.27,1.43-0.37c0.48-0.09,0.97-0.17,1.45-0.21c0.98-0.1,1.98-0.1,2.95,0c0.49,0.04,0.98,0.12,1.46,0.21
			c0.48,0.101,0.96,0.221,1.42,0.37c0.47,0.141,0.94,0.3,1.39,0.49c0.45,0.189,0.89,0.4,1.32,0.63c0.44,0.23,0.86,0.48,1.27,0.75
			c0.4,0.271,0.8,0.57,1.18,0.88c0.38,0.311,0.75,0.641,1.1,0.99c0.34,0.34,0.67,0.71,0.99,1.09c0.31,0.38,0.6,0.78,0.87,1.19
			c0.27,0.399,0.52,0.83,0.75,1.26c0.23,0.43,0.44,0.87,0.63,1.33c0.19,0.45,0.35,0.91,0.5,1.38c0.14,0.46,0.26,0.939,0.36,1.42
			c0.09,0.48,0.17,0.97,0.22,1.46c0.04,0.49,0.07,0.98,0.07,1.47C66.427,210.887,66.397,211.387,66.357,211.878z M66.357,339.857
			c-0.05,0.479-0.13,0.97-0.22,1.45c-0.1,0.479-0.22,0.96-0.36,1.43c-0.15,0.46-0.31,0.93-0.5,1.38c-0.19,0.45-0.4,0.9-0.63,1.33
			c-0.23,0.43-0.48,0.85-0.75,1.26c-0.27,0.41-0.56,0.811-0.87,1.181c-0.31,0.38-0.65,0.75-0.99,1.1c-0.35,0.35-0.72,0.68-1.1,0.99
			s-0.78,0.6-1.18,0.87c-0.41,0.27-0.83,0.529-1.27,0.76c-0.43,0.229-0.87,0.439-1.32,0.62c-0.45,0.189-0.92,0.359-1.38,0.5
			c-0.47,0.14-0.95,0.26-1.43,0.359c-0.48,0.101-0.97,0.17-1.45,0.221c-0.49,0.05-0.99,0.069-1.48,0.069s-0.99-0.02-1.47-0.069
			c-0.49-0.051-0.98-0.12-1.46-0.221c-0.48-0.1-0.96-0.22-1.43-0.359c-0.46-0.141-0.93-0.311-1.38-0.5
			c-0.45-0.181-0.89-0.391-1.32-0.62c-0.44-0.23-0.86-0.49-1.27-0.76c-0.41-0.271-0.8-0.561-1.18-0.87
			c-0.38-0.311-0.75-0.641-1.1-0.99c-0.34-0.35-0.68-0.72-0.99-1.1c-0.31-0.37-0.6-0.771-0.87-1.181s-0.52-0.83-0.75-1.26
			c-0.23-0.43-0.44-0.88-0.63-1.33c-0.19-0.45-0.35-0.92-0.5-1.38c-0.14-0.47-0.26-0.95-0.36-1.43c-0.09-0.48-0.17-0.971-0.22-1.45
			c-0.04-0.49-0.07-0.99-0.07-1.48c0-0.489,0.03-0.979,0.07-1.47c0.05-0.49,0.13-0.979,0.22-1.46c0.1-0.48,0.22-0.96,0.36-1.42
			c0.15-0.47,0.31-0.93,0.5-1.39c0.19-0.45,0.4-0.891,0.63-1.32c0.23-0.43,0.48-0.86,0.75-1.26c0.27-0.41,0.56-0.811,0.87-1.19
			c0.31-0.379,0.65-0.75,0.99-1.09c0.35-0.35,0.72-0.68,1.1-0.99s0.77-0.609,1.18-0.88c0.41-0.27,0.83-0.52,1.26-0.75
			c0.43-0.229,0.88-0.44,1.33-0.63c0.45-0.19,0.92-0.35,1.38-0.49c0.47-0.149,0.95-0.27,1.43-0.37c0.48-0.09,0.97-0.17,1.45-0.21
			c0.98-0.1,1.98-0.1,2.959,0c0.48,0.04,0.97,0.12,1.45,0.21c0.48,0.101,0.96,0.221,1.43,0.37c0.46,0.141,0.93,0.3,1.38,0.49
			c0.45,0.189,0.9,0.4,1.33,0.63s0.85,0.48,1.26,0.75c0.41,0.271,0.8,0.57,1.18,0.88c0.38,0.311,0.75,0.641,1.1,0.99
			c0.34,0.34,0.68,0.71,0.99,1.09s0.6,0.78,0.87,1.19c0.27,0.399,0.52,0.83,0.75,1.26c0.23,0.43,0.44,0.87,0.63,1.32
			c0.19,0.46,0.35,0.92,0.5,1.39c0.14,0.46,0.26,0.939,0.36,1.42c0.09,0.48,0.17,0.97,0.22,1.46c0.04,0.49,0.07,0.98,0.07,1.47
			C66.427,338.866,66.397,339.366,66.357,339.857z M135.508,160.228v-26.388h236.197v26.388H135.508z M452.543,362.672
			l-52.221,52.221c-0.002,0.002-0.003,0.003-0.005,0.005c-1.831,1.83-4.016,3.089-6.335,3.775c-1.392,0.412-2.831,0.618-4.27,0.618
			c-3.838,0-7.677-1.465-10.604-4.393l-21.081-21.081c-5.71-5.71-6.235-15.012-0.799-20.983c5.804-6.376,15.684-6.551,21.71-0.525
			l8.389,8.389c1.318,1.318,3.454,1.318,4.772,0l38.936-38.936c5.71-5.71,15.012-6.236,20.984-0.801
			C458.395,346.765,458.57,356.645,452.543,362.672z"/>
	</g>
</g>
<g>
</g>
<g>
</g>
<g>
</g>
<g>
</g>
<g>
</g>
<g>
</g>
<g>
</g>
<g>
</g>
<g>
</g>
<g>
</g>
<g>
</g>
<g>
</g>
<g>
</g>
<g>
</g>
<g>
</g>
</svg>
