<?xml version="1.0" encoding="iso-8859-1"?>
<!-- Generator: Adobe Illustrator 19.0.0, SVG Export Plug-In . SVG Version: 6.00 Build 0)  -->
<svg version="1.1" id="Capa_1" xmlns="http://www.w3.org/2000/svg" xmlns:xlink="http://www.w3.org/1999/xlink" x="0px" y="0px"
	 viewBox="0 0 512 512" style="enable-background:new 0 0 512 512;" xml:space="preserve">
<g>
	<g>
		<path d="M452.032,46.883H59.968C26.849,46.883,0,73.732,0,106.852v10.251c0,2.623,2.126,4.749,4.749,4.749h502.502
			c2.623,0,4.749-2.126,4.749-4.749v-10.251C512,73.732,485.151,46.883,452.032,46.883z M78.923,101.08
			c-0.05,0.48-0.12,0.97-0.22,1.45c-0.091,0.48-0.21,0.96-0.36,1.43c-0.14,0.46-0.31,0.93-0.49,1.38
			c-0.189,0.45-0.399,0.9-0.63,1.33c-0.229,0.43-0.479,0.85-0.75,1.26c-0.27,0.41-0.57,0.8-0.88,1.18s-0.64,0.75-0.99,1.1
			c-0.34,0.34-0.71,0.68-1.09,0.99s-0.78,0.6-1.19,0.87c-0.399,0.27-0.829,0.52-1.26,0.75c-0.43,0.23-0.88,0.44-1.33,0.63
			c-0.449,0.19-0.91,0.35-1.38,0.5c-0.46,0.14-0.939,0.26-1.42,0.36c-0.479,0.09-0.97,0.17-1.46,0.22
			c-0.49,0.05-0.979,0.07-1.47,0.07c-0.491,0-0.99-0.02-1.48-0.07c-0.479-0.05-0.97-0.13-1.45-0.22c-0.479-0.1-0.96-0.22-1.43-0.36
			c-0.46-0.15-0.93-0.31-1.38-0.5s-0.9-0.4-1.33-0.63s-0.85-0.48-1.26-0.75c-0.41-0.27-0.811-0.56-1.18-0.87
			c-0.381-0.31-0.75-0.65-1.101-0.99c-0.35-0.35-0.68-0.72-0.99-1.1s-0.6-0.77-0.869-1.18c-0.271-0.41-0.53-0.83-0.761-1.26
			c-0.229-0.43-0.439-0.88-0.62-1.33c-0.189-0.45-0.359-0.92-0.5-1.38c-0.14-0.47-0.26-0.95-0.359-1.43
			c-0.101-0.48-0.17-0.97-0.221-1.45c-0.05-0.49-0.069-0.99-0.069-1.48c0-0.49,0.02-0.99,0.069-1.48
			c0.051-0.48,0.12-0.97,0.221-1.45c0.1-0.48,0.22-0.96,0.359-1.43c0.141-0.46,0.311-0.93,0.5-1.38c0.181-0.45,0.391-0.89,0.62-1.32
			c0.23-0.44,0.49-0.86,0.761-1.27c0.27-0.4,0.56-0.8,0.869-1.18c0.311-0.38,0.641-0.75,0.99-1.1c0.351-0.34,0.72-0.67,1.101-0.99
			c0.369-0.31,0.77-0.6,1.18-0.87c0.41-0.27,0.83-0.52,1.26-0.75s0.88-0.44,1.33-0.63s0.92-0.35,1.38-0.49
			c0.47-0.15,0.95-0.27,1.43-0.36c0.48-0.1,0.971-0.18,1.45-0.22c0.98-0.1,1.971-0.1,2.95,0c0.49,0.04,0.98,0.12,1.46,0.22
			c0.48,0.09,0.96,0.21,1.42,0.36c0.47,0.14,0.931,0.3,1.38,0.49c0.45,0.19,0.9,0.4,1.33,0.63c0.431,0.23,0.86,0.48,1.26,0.75
			c0.41,0.27,0.811,0.56,1.19,0.87c0.38,0.32,0.75,0.65,1.09,0.99c0.351,0.35,0.681,0.72,0.99,1.1c0.31,0.38,0.61,0.78,0.88,1.18
			c0.271,0.41,0.521,0.83,0.75,1.27c0.23,0.43,0.44,0.87,0.63,1.32c0.181,0.45,0.351,0.92,0.49,1.38c0.15,0.47,0.27,0.95,0.36,1.43
			c0.1,0.48,0.17,0.97,0.22,1.45c0.05,0.49,0.08,0.99,0.08,1.48S78.973,100.589,78.923,101.08z M119.923,101.08
			c-0.05,0.48-0.12,0.97-0.22,1.45c-0.091,0.48-0.21,0.96-0.36,1.43c-0.14,0.46-0.31,0.93-0.49,1.38
			c-0.189,0.45-0.399,0.9-0.63,1.33c-0.229,0.43-0.479,0.85-0.75,1.26c-0.27,0.4-0.57,0.8-0.88,1.18s-0.64,0.75-0.99,1.1
			c-2.79,2.79-6.649,4.39-10.6,4.39c-0.49,0-0.99-0.02-1.48-0.07c-0.479-0.05-0.97-0.13-1.45-0.22c-0.479-0.1-0.96-0.22-1.43-0.36
			c-0.46-0.15-0.93-0.31-1.38-0.5s-0.9-0.4-1.33-0.63c-0.43-0.23-0.85-0.48-1.26-0.75c-0.41-0.27-0.811-0.56-1.18-0.87
			c-0.381-0.31-0.75-0.65-1.101-0.99c-0.35-0.35-0.68-0.72-0.99-1.1s-0.6-0.78-0.869-1.18c-0.271-0.41-0.53-0.83-0.761-1.26
			c-0.229-0.43-0.439-0.88-0.62-1.33c-0.189-0.45-0.359-0.92-0.5-1.38c-0.14-0.47-0.26-0.95-0.359-1.43
			c-0.101-0.48-0.17-0.97-0.221-1.45c-0.05-0.49-0.069-0.99-0.069-1.48c0-0.49,0.02-0.99,0.069-1.47
			c0.051-0.49,0.12-0.98,0.221-1.46c0.1-0.48,0.22-0.96,0.359-1.42c0.141-0.47,0.311-0.94,0.5-1.39c0.181-0.45,0.391-0.89,0.62-1.32
			c0.23-0.43,0.49-0.86,0.761-1.26c0.27-0.41,0.56-0.81,0.869-1.19c0.311-0.38,0.641-0.75,0.99-1.09c0.351-0.35,0.72-0.68,1.101-1
			c0.369-0.3,0.77-0.6,1.18-0.87c0.41-0.27,0.83-0.52,1.26-0.75c0.43-0.23,0.88-0.44,1.33-0.63s0.92-0.35,1.38-0.5
			c0.47-0.14,0.95-0.26,1.43-0.36c0.48-0.09,0.971-0.17,1.45-0.21c4.44-0.45,8.95,1.18,12.08,4.32c0.351,0.34,0.681,0.71,0.99,1.09
			c0.31,0.38,0.61,0.78,0.88,1.19c0.271,0.4,0.521,0.83,0.75,1.26c0.23,0.43,0.44,0.87,0.63,1.32c0.181,0.45,0.351,0.92,0.49,1.39
			c0.15,0.46,0.27,0.94,0.36,1.42c0.1,0.48,0.17,0.97,0.22,1.46c0.05,0.48,0.08,0.98,0.08,1.47S119.973,100.589,119.923,101.08z
			 M161.923,101.08c-0.05,0.48-0.12,0.97-0.22,1.45c-0.091,0.48-0.21,0.96-0.36,1.43c-0.14,0.46-0.31,0.93-0.49,1.38
			c-0.189,0.45-0.399,0.9-0.63,1.33c-0.229,0.43-0.479,0.85-0.75,1.26c-0.27,0.41-0.57,0.8-0.88,1.18s-0.64,0.75-0.99,1.1
			c-0.34,0.34-0.71,0.68-1.09,0.99s-0.78,0.6-1.19,0.87c-0.399,0.27-0.829,0.53-1.26,0.75c-0.43,0.23-0.87,0.44-1.33,0.63
			c-0.449,0.19-0.91,0.35-1.38,0.5c-0.46,0.14-0.939,0.26-1.42,0.36c-0.479,0.09-0.97,0.17-1.46,0.22
			c-0.49,0.05-0.979,0.07-1.47,0.07c-0.491,0-0.99-0.02-1.48-0.07c-0.479-0.05-0.97-0.13-1.45-0.22c-0.479-0.1-0.96-0.22-1.43-0.36
			c-0.46-0.15-0.93-0.31-1.38-0.5s-0.9-0.4-1.33-0.63c-0.43-0.22-0.85-0.48-1.26-0.75c-0.41-0.27-0.811-0.56-1.18-0.87
			c-0.381-0.31-0.75-0.65-1.101-0.99c-0.34-0.35-0.68-0.72-0.99-1.1c-0.31-0.38-0.6-0.77-0.869-1.18
			c-0.271-0.41-0.53-0.83-0.761-1.26c-0.229-0.43-0.439-0.88-0.62-1.33c-0.189-0.45-0.359-0.92-0.5-1.38
			c-0.14-0.47-0.26-0.95-0.359-1.43c-0.101-0.48-0.17-0.97-0.221-1.45c-0.05-0.49-0.069-0.99-0.069-1.48
			c0-0.49,0.02-0.98,0.069-1.47c0.051-0.49,0.12-0.98,0.221-1.46c0.1-0.48,0.22-0.96,0.359-1.42c0.141-0.47,0.311-0.94,0.5-1.39
			c0.181-0.45,0.391-0.89,0.62-1.32c0.23-0.44,0.49-0.86,0.761-1.27c0.27-0.4,0.56-0.8,0.869-1.18c0.311-0.38,0.65-0.75,0.99-1.1
			c0.351-0.34,0.72-0.67,1.101-0.99c0.369-0.3,0.77-0.6,1.18-0.87c0.41-0.27,0.83-0.52,1.26-0.75s0.88-0.44,1.33-0.63
			s0.92-0.35,1.38-0.49c0.47-0.15,0.95-0.27,1.43-0.37c0.48-0.09,0.971-0.17,1.45-0.21c0.98-0.1,1.971-0.1,2.95,0
			c0.49,0.04,0.98,0.12,1.46,0.21c0.48,0.1,0.96,0.22,1.42,0.37c0.47,0.14,0.931,0.3,1.38,0.49c0.46,0.19,0.9,0.4,1.33,0.63
			c0.431,0.23,0.86,0.48,1.26,0.75c0.41,0.27,0.811,0.57,1.19,0.87c0.38,0.32,0.75,0.65,1.09,0.99c2.8,2.8,4.4,6.66,4.4,10.61
			C162.003,100.089,161.973,100.589,161.923,101.08z"/>
	</g>
</g>
<g>
	<g>
		<path d="M507.251,151.852H4.749c-2.623,0-4.749,2.126-4.749,4.749v248.548c0,33.119,26.849,59.968,59.968,59.968h392.064
			c33.119,0,59.968-26.849,59.968-59.968V156.601C512,153.977,509.874,151.852,507.251,151.852z M198.065,358.633
			c0,20.753-16.884,37.637-37.637,37.637h-46.975c-20.754,0-37.638-16.884-37.638-37.637V229.55
			c0-20.753,16.884-37.637,37.638-37.637h46.975c20.753,0,37.637,16.884,37.637,37.637V358.633z M426.203,396.271h-59.867
			c-8.284,0-15-6.716-15-15s6.716-15,15-15h59.867c8.284,0,15,6.716,15,15S434.487,396.271,426.203,396.271z M426.203,337.198H246.6
			c-8.284,0-15-6.716-15-15s6.716-15,15-15h179.604c8.284,0,15,6.716,15,15S434.487,337.198,426.203,337.198z M275.333,263.969
			c0-0.48,0.029-0.98,0.08-1.47c0.05-0.49,0.12-0.98,0.22-1.46c0.09-0.47,0.22-0.95,0.36-1.42c0.14-0.47,0.31-0.93,0.489-1.38
			c0.19-0.45,0.4-0.9,0.63-1.33c0.23-0.43,0.48-0.86,0.75-1.26c0.271-0.41,0.57-0.81,0.881-1.19c0.31-0.38,0.64-0.75,0.989-1.09
			c0.34-0.35,0.71-0.68,1.09-0.99c0.381-0.31,0.78-0.61,1.19-0.88c0.4-0.27,0.83-0.52,1.26-0.75c0.431-0.23,0.88-0.44,1.33-0.63
			c0.45-0.18,0.91-0.35,1.38-0.49c0.471-0.14,0.95-0.26,1.42-0.36c0.48-0.1,0.971-0.17,1.46-0.22c0.98-0.1,1.971-0.1,2.95,0
			c0.48,0.05,0.971,0.12,1.45,0.22c0.48,0.1,0.96,0.22,1.43,0.36c0.46,0.14,0.931,0.31,1.38,0.49c0.45,0.19,0.9,0.4,1.33,0.63
			c0.431,0.23,0.851,0.48,1.261,0.75c0.409,0.27,0.81,0.57,1.18,0.88c0.38,0.31,0.75,0.64,1.1,0.99c0.351,0.34,0.681,0.71,0.99,1.09
			c0.311,0.38,0.601,0.78,0.87,1.19c0.27,0.4,0.53,0.83,0.76,1.26c0.23,0.43,0.44,0.88,0.62,1.33c0.19,0.45,0.36,0.91,0.5,1.38
			c0.14,0.47,0.26,0.95,0.36,1.42c0.1,0.48,0.17,0.97,0.22,1.46s0.07,0.99,0.07,1.47c0,0.49-0.021,0.99-0.07,1.48
			c-0.05,0.49-0.12,0.98-0.22,1.46c-0.101,0.47-0.221,0.95-0.36,1.42c-0.14,0.47-0.31,0.93-0.5,1.38c-0.18,0.45-0.39,0.9-0.62,1.33
			c-0.229,0.43-0.49,0.86-0.76,1.26c-0.27,0.41-0.56,0.81-0.87,1.19s-0.64,0.74-0.99,1.09c-0.35,0.35-0.72,0.68-1.1,0.99
			c-0.37,0.31-0.771,0.61-1.18,0.88c-0.41,0.27-0.83,0.52-1.261,0.75c-0.43,0.23-0.88,0.44-1.33,0.63
			c-0.449,0.18-0.92,0.35-1.38,0.49c-0.47,0.14-0.949,0.27-1.43,0.36c-0.479,0.1-0.97,0.17-1.45,0.22
			c-0.49,0.05-0.99,0.08-1.479,0.08c-0.49,0-0.98-0.03-1.471-0.08c-0.489-0.05-0.979-0.12-1.46-0.22
			c-0.47-0.09-0.949-0.22-1.42-0.36c-0.47-0.14-0.93-0.31-1.38-0.49c-0.45-0.19-0.899-0.4-1.33-0.63
			c-0.43-0.23-0.859-0.48-1.26-0.75c-0.41-0.27-0.81-0.57-1.19-0.88s-0.75-0.64-1.09-0.99c-0.35-0.35-0.68-0.71-0.989-1.09
			c-0.311-0.38-0.61-0.78-0.881-1.19c-0.27-0.4-0.52-0.83-0.75-1.26c-0.229-0.43-0.439-0.88-0.63-1.33
			c-0.18-0.45-0.35-0.91-0.489-1.38c-0.141-0.47-0.271-0.95-0.36-1.42c-0.1-0.48-0.17-0.97-0.22-1.46
			C275.362,264.959,275.333,264.459,275.333,263.969z M321.401,263.974c0-8.284,6.716-15,15-15h89.802c8.284,0,15,6.716,15,15
			s-6.716,15-15,15h-89.802C328.117,278.974,321.401,272.258,321.401,263.974z M426.203,221.912H246.6c-8.284,0-15-6.716-15-15
			s6.716-15,15-15h179.604c8.284,0,15,6.716,15,15S434.487,221.912,426.203,221.912z"/>
	</g>
</g>
<g>
	<g>
		<path d="M160.429,221.912h-46.975c-4.212,0-7.638,3.426-7.638,7.637v129.083c0,4.211,3.426,7.637,7.638,7.637h46.975
			c4.211,0,7.637-3.426,7.637-7.637V229.55C168.065,225.339,164.64,221.912,160.429,221.912z"/>
	</g>
</g>
<g>
</g>
<g>
</g>
<g>
</g>
<g>
</g>
<g>
</g>
<g>
</g>
<g>
</g>
<g>
</g>
<g>
</g>
<g>
</g>
<g>
</g>
<g>
</g>
<g>
</g>
<g>
</g>
<g>
</g>
</svg>
