<?xml version="1.0" encoding="iso-8859-1"?>
<!-- Generator: Adobe Illustrator 19.0.0, SVG Export Plug-In . SVG Version: 6.00 Build 0)  -->
<svg version="1.1" id="Capa_1" xmlns="http://www.w3.org/2000/svg" xmlns:xlink="http://www.w3.org/1999/xlink" x="0px" y="0px"
	 viewBox="0 0 511.999 511.999" style="enable-background:new 0 0 511.999 511.999;" xml:space="preserve">
<g>
	<g>
		<path d="M411.458,125.837C403.697,55.167,343.645,0,270.942,0c-28.96,0-56.803,8.699-80.515,25.154
			c-19.572,13.582-35.205,31.635-45.787,52.678c-5.36-0.854-10.794-1.3-16.264-1.3c-56.615,0-102.674,46.06-102.674,102.674
			c0,56.614,46.06,102.674,102.674,102.674h279.672c43.147,0,78.249-34.937,78.249-77.881
			C486.299,161.997,453.028,127.631,411.458,125.837z"/>
	</g>
</g>
<g>
	<g>
		<path d="M415.696,428.585c-5.635-6.092-15.142-6.465-21.235-0.828c-37.782,34.944-86.932,54.189-138.396,54.189
			c-51.464,0-100.614-19.244-138.396-54.189c-6.093-5.634-15.598-5.263-21.234,0.828c-5.635,6.093-5.264,15.6,0.828,21.235
			c43.352,40.096,99.749,62.178,158.802,62.178c59.053,0,115.45-22.082,158.803-62.178
			C420.96,444.185,421.331,434.678,415.696,428.585z"/>
	</g>
</g>
<g>
	<g>
		<path d="M378.881,384.437c-5.634-6.093-15.141-6.464-21.235-0.828c-27.731,25.649-63.805,39.774-101.579,39.774
			c-37.774,0-73.85-14.126-101.582-39.774c-6.094-5.634-15.6-5.263-21.236,0.828c-5.635,6.093-5.264,15.6,0.828,21.235
			c33.302,30.802,76.624,47.764,121.988,47.764c45.362,0,88.685-16.963,121.988-47.764
			C384.146,400.037,384.517,390.53,378.881,384.437z"/>
	</g>
</g>
<g>
	<g>
		<path d="M322.989,348.451c-5.634-6.092-15.142-6.464-21.234-0.828c-12.474,11.537-28.699,17.889-45.689,17.889
			s-33.216-6.354-45.688-17.889c-6.094-5.634-15.601-5.263-21.237,0.828c-5.635,6.093-5.265,15.6,0.828,21.235
			c18.045,16.689,41.517,25.88,66.096,25.88c24.577,0,48.052-9.191,66.095-25.88C328.254,364.052,328.625,354.544,322.989,348.451z"
			/>
	</g>
</g>
<g>
	<g>
		<path d="M271.016,320.445c-0.05-0.491-0.12-0.982-0.22-1.463c-0.091-0.481-0.21-0.962-0.361-1.423
			c-0.14-0.471-0.311-0.942-0.491-1.393c-0.189-0.451-0.4-0.892-0.631-1.322c-0.229-0.441-0.48-0.862-0.751-1.272
			c-0.27-0.401-0.571-0.801-0.882-1.182c-0.311-0.381-0.641-0.751-0.992-1.102c-0.341-0.341-0.711-0.681-1.092-0.992
			s-0.781-0.601-1.192-0.872c-0.4-0.27-0.831-0.521-1.262-0.751c-0.431-0.23-0.882-0.441-1.332-0.631
			c-0.45-0.19-0.912-0.351-1.382-0.501c-0.471-0.14-0.941-0.26-1.423-0.361c-0.48-0.09-0.972-0.17-1.463-0.22
			c-0.981-0.09-1.974-0.09-2.955,0c-0.48,0.05-0.972,0.13-1.453,0.22c-0.48,0.1-0.962,0.22-1.433,0.361
			c-0.461,0.15-0.932,0.311-1.383,0.501c-0.451,0.19-0.902,0.401-1.332,0.631s-0.852,0.481-1.262,0.751
			c-0.411,0.271-0.813,0.561-1.182,0.872c-0.392,0.311-0.751,0.651-1.103,0.992c-0.351,0.351-0.681,0.721-0.992,1.102
			c-0.311,0.381-0.601,0.781-0.871,1.182c-0.271,0.411-0.531,0.831-0.762,1.272c-0.229,0.431-0.44,0.872-0.621,1.322
			c-0.189,0.451-0.36,0.922-0.501,1.393c-0.14,0.461-0.26,0.942-0.36,1.423c-0.101,0.481-0.17,0.972-0.221,1.463
			c-0.05,0.491-0.069,0.982-0.069,1.473c0,0.491,0.02,0.992,0.069,1.483c0.051,0.481,0.12,0.972,0.221,1.453
			c0.099,0.481,0.219,0.962,0.36,1.433c0.141,0.461,0.312,0.932,0.501,1.383c0.181,0.451,0.392,0.902,0.621,1.332
			c0.23,0.431,0.491,0.852,0.762,1.262c0.271,0.411,0.561,0.801,0.871,1.182c0.312,0.381,0.642,0.751,0.992,1.102
			c0.352,0.341,0.711,0.681,1.103,0.992c0.37,0.311,0.771,0.601,1.182,0.872c0.411,0.27,0.831,0.531,1.262,0.751
			c0.431,0.23,0.882,0.441,1.332,0.631c0.451,0.19,0.922,0.361,1.383,0.501c0.471,0.14,0.952,0.26,1.433,0.361
			c0.481,0.09,0.973,0.17,1.453,0.22c0.491,0.05,0.992,0.07,1.483,0.07c0.491,0,0.981-0.02,1.473-0.07
			c0.491-0.05,0.982-0.13,1.463-0.22c0.481-0.1,0.952-0.22,1.423-0.361c0.471-0.14,0.933-0.311,1.382-0.501
			c0.451-0.19,0.902-0.401,1.332-0.631c0.432-0.22,0.862-0.481,1.262-0.751c0.411-0.271,0.812-0.561,1.192-0.872
			s0.751-0.651,1.092-0.992c0.352-0.351,0.682-0.721,0.992-1.102c0.311-0.381,0.611-0.771,0.882-1.182
			c0.271-0.411,0.522-0.831,0.751-1.262c0.23-0.431,0.441-0.882,0.631-1.332c0.181-0.451,0.352-0.922,0.491-1.383
			c0.15-0.471,0.27-0.952,0.361-1.433c0.1-0.481,0.17-0.972,0.22-1.453c0.05-0.491,0.08-0.992,0.08-1.483
			S271.066,320.936,271.016,320.445z"/>
	</g>
</g>
<g>
</g>
<g>
</g>
<g>
</g>
<g>
</g>
<g>
</g>
<g>
</g>
<g>
</g>
<g>
</g>
<g>
</g>
<g>
</g>
<g>
</g>
<g>
</g>
<g>
</g>
<g>
</g>
<g>
</g>
</svg>
