<?xml version="1.0" encoding="iso-8859-1"?>
<!-- Generator: Adobe Illustrator 19.0.0, SVG Export Plug-In . SVG Version: 6.00 Build 0)  -->
<svg version="1.1" id="Capa_1" xmlns="http://www.w3.org/2000/svg" xmlns:xlink="http://www.w3.org/1999/xlink" x="0px" y="0px"
	 viewBox="0 0 512 512" style="enable-background:new 0 0 512 512;" xml:space="preserve">
<g>
	<g>
		<path d="M114.976,397.074l-0.021-0.021c-7.74-7.74-20.337-7.733-28.07,0c-7.74,7.74-7.74,20.33,0,28.07s20.33,7.74,28.07,0
			C122.68,417.397,122.695,404.821,114.976,397.074z"/>
	</g>
</g>
<g>
	<g>
		<path d="M460.469,167.769l-11.422-11.422l9.918-9.918c2.387-2.387,2.387-6.257,0-8.644l-84.771-84.771
			c-2.387-2.387-6.257-2.387-8.644,0l-9.918,9.918L343.24,50.54c-7.436-7.436-19.537-7.429-26.987,0.021L29.824,337.995
			c-39.754,39.754-39.754,104.434,0,144.188c39.754,39.754,104.441,39.761,144.216-0.014l286.422-287.428
			C467.898,187.306,467.905,175.205,460.469,167.769z M408.179,124.11L148.192,385.021c-1.74,1.746-2.272,4.37-1.316,6.641
			c7.645,18.147,4.084,39.944-10.677,54.706c-20.354,20.353-54.067,19.41-73.182-2.831c-15.865-18.458-15.947-46.136-0.183-64.681
			c14.687-17.278,38.126-21.856,57.455-13.749c2.281,0.956,4.914,0.423,6.661-1.329l259.973-260.896
			c2.386-2.393,6.262-2.397,8.651-0.007l12.599,12.599C410.557,117.857,410.56,121.722,408.179,124.11z"/>
	</g>
</g>
<g>
	<g>
		<path d="M505.471,68.44L443.538,6.508c-8.674-8.674-22.802-8.681-31.483,0l-16.617,16.617c-2.386,2.387-2.386,6.257,0.001,8.644
			l84.771,84.771c2.387,2.387,6.257,2.387,8.644,0l16.617-16.617C514.164,91.23,514.164,77.134,505.471,68.44z"/>
	</g>
</g>
<g>
</g>
<g>
</g>
<g>
</g>
<g>
</g>
<g>
</g>
<g>
</g>
<g>
</g>
<g>
</g>
<g>
</g>
<g>
</g>
<g>
</g>
<g>
</g>
<g>
</g>
<g>
</g>
<g>
</g>
</svg>
