<?xml version="1.0" encoding="iso-8859-1"?>
<!-- Generator: Adobe Illustrator 19.0.0, SVG Export Plug-In . SVG Version: 6.00 Build 0)  -->
<svg version="1.1" id="Capa_1" xmlns="http://www.w3.org/2000/svg" xmlns:xlink="http://www.w3.org/1999/xlink" x="0px" y="0px"
	 viewBox="0 0 512.001 512.001" style="enable-background:new 0 0 512.001 512.001;" xml:space="preserve">
<g>
	<g>
		<path d="M458.436,257.183c0.695-0.743,1.071-1.351,1.071-1.796c0-43.987-34.849-79.975-78.386-81.836
			c-5.524-28.781-20.099-55.104-41.92-75.247c-25.545-23.579-58.769-36.565-93.554-36.565c-45.625,0-88.173,22.692-113.763,59.928
			c-7.48-1.596-15.128-2.421-22.848-2.421C48.912,119.246,0,168.159,0,228.28c0,60.121,48.912,109.034,109.034,109.034h197.833
			c-0.327,3.334-0.5,6.713-0.5,10.132c0,56.693,46.123,102.817,102.817,102.817c56.694,0,102.817-46.123,102.817-102.817
			C512,309.478,491.275,275.078,458.436,257.183z M444.304,387.079c-1.323,1.173-1.929,3.002-1.376,4.681
			c1.279,3.875,0.989,8.251-1.179,12.084c-2.762,4.883-7.848,7.626-13.084,7.626c-2.505,0-5.045-0.628-7.38-1.949l-19.254-10.893
			c-0.006-0.003-0.011-0.006-0.016-0.009l-0.225-0.127c-0.003-0.002-0.006-0.004-0.009-0.006c-0.204-0.115-0.396-0.245-0.595-0.37
			c-0.178-0.112-0.358-0.221-0.532-0.341c-0.235-0.162-0.458-0.336-0.683-0.511c-0.156-0.121-0.313-0.24-0.464-0.367
			c-0.064-0.054-0.134-0.102-0.197-0.157c-0.151-0.132-0.286-0.277-0.432-0.414c-0.147-0.139-0.295-0.275-0.437-0.42
			c-0.204-0.209-0.395-0.425-0.586-0.645c-0.128-0.147-0.257-0.293-0.379-0.446c-0.174-0.217-0.337-0.442-0.499-0.668
			c-0.125-0.174-0.249-0.348-0.367-0.529c-0.037-0.056-0.079-0.109-0.115-0.166c-0.097-0.154-0.181-0.315-0.272-0.472
			c-0.12-0.205-0.239-0.409-0.349-0.62c-0.032-0.061-0.068-0.12-0.1-0.182c-0.07-0.14-0.128-0.286-0.194-0.429
			c-0.108-0.232-0.216-0.464-0.313-0.703c-0.029-0.07-0.06-0.139-0.088-0.21c-0.051-0.132-0.088-0.267-0.135-0.4
			c-0.088-0.247-0.177-0.494-0.252-0.747c-0.024-0.081-0.051-0.16-0.074-0.241c-0.019-0.069-0.031-0.14-0.049-0.21
			c-0.023-0.089-0.041-0.18-0.063-0.269c-0.055-0.226-0.113-0.45-0.158-0.679c-0.017-0.086-0.037-0.171-0.053-0.258
			c-0.001-0.005-0.001-0.011-0.002-0.016c-0.036-0.203-0.053-0.409-0.081-0.615c-0.025-0.186-0.056-0.37-0.073-0.56
			c-0.032-0.337-0.042-0.678-0.051-1.019c-0.004-0.134-0.02-0.265-0.02-0.399c0-0.032,0.005-0.062,0.005-0.094
			c0-0.058-0.006-0.114-0.005-0.172c0.005-0.306,0.036-0.613,0.06-0.919c0.011-0.137,0.013-0.276,0.027-0.412
			c0.035-0.329,0.093-0.658,0.15-0.987c0.029-0.167,0.049-0.338,0.083-0.504c0.013-0.061,0.027-0.122,0.04-0.183
			c0.001-0.003,0.001-0.007,0.002-0.01l3.909-17.454c1.812-8.093,9.843-13.186,17.937-11.372c2.783,0.623,5.206,1.983,7.117,3.828
			c2.255,2.177,6.098,1.279,7.199-1.656c1.175-3.132,1.685-6.586,1.356-10.19c-0.98-10.731-9.529-19.472-20.238-20.667
			c-13.83-1.542-25.584,9.289-25.584,22.814c0,8.411-6.914,15.206-15.368,15.013c-8.153-0.186-14.752-7.447-14.663-15.601
			c0.331-30.301,26.22-54.581,57.081-52.253c25.853,1.95,46.722,22.764,48.74,48.612
			C463.374,360.654,456.229,376.504,444.304,387.079z"/>
	</g>
</g>
<g>
</g>
<g>
</g>
<g>
</g>
<g>
</g>
<g>
</g>
<g>
</g>
<g>
</g>
<g>
</g>
<g>
</g>
<g>
</g>
<g>
</g>
<g>
</g>
<g>
</g>
<g>
</g>
<g>
</g>
</svg>
