<?xml version="1.0" encoding="iso-8859-1"?>
<!-- Generator: Adobe Illustrator 19.0.0, SVG Export Plug-In . SVG Version: 6.00 Build 0)  -->
<svg version="1.1" id="Capa_1" xmlns="http://www.w3.org/2000/svg" xmlns:xlink="http://www.w3.org/1999/xlink" x="0px" y="0px"
	 viewBox="0 0 511.999 511.999" style="enable-background:new 0 0 511.999 511.999;" xml:space="preserve">
<g>
	<g>
		<path d="M265.587,78.782H15.044C6.736,78.782,0,85.518,0,93.826s6.736,15.044,15.044,15.044h250.544
			c8.308,0,15.044-6.736,15.044-15.044S273.896,78.782,265.587,78.782z"/>
	</g>
</g>
<g>
	<g>
		<path d="M295.371,142.597H15.044C6.736,142.597,0,149.333,0,157.641c0,8.308,6.736,15.044,15.044,15.044h280.327
			c8.308,0,15.044-6.736,15.044-15.044C310.415,149.333,303.68,142.597,295.371,142.597z"/>
	</g>
</g>
<g>
	<g>
		<path d="M253.425,205.669H15.044C6.736,205.669,0,212.405,0,220.713s6.736,15.044,15.044,15.044h238.381
			c8.308,0,15.044-6.736,15.044-15.044S261.733,205.669,253.425,205.669z"/>
	</g>
</g>
<g>
	<g>
		<path d="M287.106,269.59H15.044C6.736,269.59,0,276.325,0,284.633s6.736,15.044,15.044,15.044h272.062
			c8.308,0,15.044-6.736,15.044-15.044S295.414,269.59,287.106,269.59z"/>
	</g>
</g>
<g>
	<g>
		<path d="M190.825,332.662H15.044C6.736,332.662,0,339.397,0,347.705s6.736,15.044,15.044,15.044h175.782
			c8.308,0,15.044-6.736,15.044-15.044S199.134,332.662,190.825,332.662z"/>
	</g>
</g>
<g>
	<g>
		<path d="M219.91,396.722H15.044C6.736,396.722,0,403.458,0,411.766s6.736,15.044,15.044,15.044H219.91
			c8.308,0,15.044-6.736,15.044-15.044S228.219,396.722,219.91,396.722z"/>
	</g>
</g>
<g>
	<g>
		<path d="M497.49,329.507c-9.355-9.356-21.796-14.509-35.028-14.509c-9.37,0-18.338,2.597-26.101,7.429V71.414
			c0-27.315-22.222-49.537-49.537-49.537s-49.537,22.222-49.537,49.537v251.318c-7.872-5.028-17.018-7.734-26.583-7.734
			c-13.232,0-25.672,5.153-35.027,14.509c-9.356,9.356-14.51,21.796-14.51,35.028s5.154,25.672,14.51,35.028l74.032,74.033
			c0.495,0.706,1.045,1.386,1.676,2.017c9.355,9.356,21.796,14.509,35.027,14.509c1.222,0,2.434-0.059,3.641-0.145
			c11.565-0.765,22.911-5.544,31.729-14.363c0.633-0.633,1.184-1.316,1.682-2.025l74.027-74.026
			c9.356-9.356,14.51-21.797,14.51-35.028S506.846,338.863,497.49,329.507z"/>
	</g>
</g>
<g>
</g>
<g>
</g>
<g>
</g>
<g>
</g>
<g>
</g>
<g>
</g>
<g>
</g>
<g>
</g>
<g>
</g>
<g>
</g>
<g>
</g>
<g>
</g>
<g>
</g>
<g>
</g>
<g>
</g>
</svg>
