<?xml version="1.0" encoding="iso-8859-1"?>
<!-- Generator: Adobe Illustrator 19.0.0, SVG Export Plug-In . SVG Version: 6.00 Build 0)  -->
<svg version="1.1" id="Capa_1" xmlns="http://www.w3.org/2000/svg" xmlns:xlink="http://www.w3.org/1999/xlink" x="0px" y="0px"
	 viewBox="0 0 512 512" style="enable-background:new 0 0 512 512;" xml:space="preserve">
<g>
	<g>
		<path d="M461.482,254.739h-59.691v-27.253h59.439c27.723,0,50.278-22.554,50.278-50.277c0-27.723-22.555-50.277-50.279-50.277
			H401.79v-26.378h59.439c27.723,0,50.278-22.554,50.278-50.277C511.507,22.554,488.953,0,461.229,0H50.519
			C22.795,0,0.241,22.554,0.241,50.277c0,27.723,22.554,50.277,50.278,50.277h55.196v26.378H50.519
			c-27.723,0-50.278,22.554-50.278,50.277c0,27.723,22.554,50.277,50.278,50.277h55.196v27.253H50.771
			c-27.723,0-50.278,22.554-50.278,50.277s22.554,50.277,50.278,50.277h190.112v75.663h-88.089
			c-22.344,0-40.522,18.178-40.522,40.522c0,22.344,18.178,40.522,40.522,40.522h206.665c22.344,0,40.522-18.178,40.522-40.522
			s-18.178-40.522-40.522-40.522h-88.592v-75.663h190.615c27.723,0,50.278-22.554,50.278-50.277S489.205,254.739,461.482,254.739z
			 M445.509,175.613c0.05-0.49,0.13-0.979,0.22-1.459c0.101-0.48,0.221-0.959,0.36-1.419c0.14-0.47,0.311-0.93,0.5-1.389
			c0.18-0.45,0.4-0.89,0.63-1.319c0.221-0.43,0.48-0.859,0.75-1.259c0.271-0.41,0.561-0.81,0.87-1.189
			c0.311-0.38,0.65-0.75,0.989-1.099c0.35-0.34,0.72-0.67,1.099-0.989c0.38-0.3,0.78-0.6,1.18-0.87c0.409-0.27,0.83-0.52,1.269-0.75
			c0.43-0.23,0.87-0.44,1.319-0.63c0.45-0.19,0.919-0.35,1.379-0.49c0.47-0.15,0.95-0.27,1.429-0.36c0.48-0.1,0.969-0.17,1.459-0.22
			c0.971-0.1,1.97-0.1,2.948,0c0.48,0.05,0.969,0.12,1.449,0.22c0.479,0.09,0.959,0.21,1.429,0.36c0.46,0.14,0.93,0.3,1.379,0.49
			c0.45,0.19,0.891,0.4,1.319,0.63c0.44,0.23,0.86,0.48,1.269,0.75c0.4,0.27,0.801,0.57,1.18,0.87c0.38,0.32,0.75,0.65,1.099,0.989
			c0.34,0.35,0.67,0.72,0.99,1.099c0.31,0.38,0.6,0.78,0.87,1.189c0.27,0.4,0.52,0.83,0.75,1.259c0.229,0.43,0.439,0.87,0.63,1.319
			c0.189,0.46,0.35,0.919,0.5,1.389c0.14,0.46,0.26,0.94,0.36,1.419c0.09,0.48,0.17,0.969,0.22,1.459
			c0.05,0.49,0.07,0.979,0.07,1.469s-0.021,0.99-0.07,1.479c-0.05,0.48-0.13,0.969-0.22,1.449c-0.101,0.48-0.221,0.96-0.36,1.429
			c-0.15,0.46-0.311,0.93-0.5,1.379c-0.19,0.45-0.4,0.899-0.63,1.329c-0.23,0.43-0.48,0.85-0.75,1.259
			c-0.271,0.41-0.561,0.81-0.87,1.179c-0.32,0.38-0.65,0.75-0.99,1.099c-0.35,0.35-0.72,0.68-1.099,0.989
			c-0.38,0.31-0.78,0.6-1.18,0.87c-0.409,0.27-0.829,0.53-1.269,0.76c-0.43,0.23-0.87,0.44-1.319,0.62
			c-0.45,0.19-0.92,0.36-1.379,0.5c-0.47,0.14-0.95,0.26-1.429,0.36c-0.48,0.09-0.969,0.17-1.449,0.22
			c-0.49,0.05-0.989,0.07-1.478,0.07c-0.49,0-0.99-0.02-1.47-0.07c-0.49-0.05-0.978-0.13-1.459-0.22
			c-0.479-0.1-0.959-0.22-1.429-0.36c-0.46-0.14-0.929-0.31-1.379-0.5c-0.45-0.18-0.891-0.39-1.319-0.62
			c-0.439-0.23-0.859-0.49-1.269-0.76c-0.4-0.27-0.801-0.56-1.18-0.87s-0.75-0.64-1.099-0.989c-0.34-0.35-0.68-0.72-0.989-1.099
			c-0.31-0.37-0.6-0.77-0.87-1.179c-0.27-0.41-0.529-0.83-0.75-1.259c-0.229-0.43-0.45-0.88-0.63-1.329
			c-0.189-0.45-0.36-0.92-0.5-1.379c-0.14-0.47-0.26-0.95-0.36-1.429c-0.09-0.48-0.17-0.969-0.22-1.449
			c-0.05-0.49-0.069-0.989-0.069-1.479C445.44,176.593,445.459,176.103,445.509,175.613z M445.509,48.682
			c0.05-0.49,0.13-0.979,0.22-1.459c0.101-0.48,0.221-0.959,0.36-1.419c0.14-0.47,0.311-0.929,0.5-1.379
			c0.18-0.46,0.4-0.9,0.63-1.329c0.221-0.43,0.48-0.86,0.75-1.259c0.271-0.41,0.561-0.81,0.87-1.189
			c0.311-0.38,0.65-0.75,0.989-1.099c0.35-0.34,0.72-0.67,1.099-0.99c0.38-0.3,0.78-0.6,1.18-0.87c0.409-0.27,0.83-0.52,1.269-0.75
			c0.43-0.23,0.87-0.44,1.319-0.63c0.45-0.19,0.919-0.35,1.379-0.49c0.47-0.15,0.95-0.27,1.429-0.36c0.48-0.1,0.969-0.18,1.459-0.22
			c0.971-0.1,1.97-0.1,2.948,0c0.48,0.04,0.969,0.12,1.449,0.22c0.479,0.09,0.959,0.21,1.429,0.36c0.46,0.14,0.93,0.3,1.379,0.49
			c0.45,0.19,0.891,0.4,1.319,0.63c0.44,0.23,0.86,0.48,1.269,0.75c0.4,0.27,0.801,0.57,1.18,0.87c0.38,0.32,0.75,0.65,1.099,0.99
			c0.34,0.35,0.67,0.72,0.99,1.099c0.31,0.38,0.6,0.78,0.87,1.189c0.27,0.4,0.52,0.83,0.75,1.259c0.229,0.43,0.439,0.87,0.63,1.329
			c0.189,0.45,0.35,0.909,0.5,1.379c0.14,0.46,0.26,0.94,0.36,1.419c0.09,0.48,0.17,0.969,0.22,1.459
			c0.05,0.49,0.07,0.979,0.07,1.469c0,0.49-0.021,0.99-0.07,1.479c-0.05,0.48-0.13,0.969-0.22,1.449
			c-0.101,0.48-0.221,0.959-0.36,1.429c-0.15,0.46-0.311,0.93-0.5,1.379c-0.19,0.45-0.4,0.9-0.63,1.329
			c-0.23,0.43-0.48,0.85-0.75,1.259c-0.271,0.41-0.561,0.81-0.87,1.179c-0.32,0.38-0.65,0.75-0.99,1.099
			c-0.35,0.34-0.72,0.68-1.099,0.989c-0.38,0.31-0.78,0.6-1.18,0.87c-0.409,0.27-0.829,0.53-1.269,0.76
			c-0.43,0.22-0.87,0.44-1.319,0.62c-0.45,0.19-0.92,0.36-1.379,0.5c-0.47,0.14-0.95,0.26-1.429,0.36
			c-0.48,0.09-0.969,0.17-1.449,0.22c-0.49,0.05-0.989,0.07-1.478,0.07c-0.49,0-0.99-0.02-1.47-0.07
			c-0.49-0.05-0.978-0.13-1.459-0.22c-0.479-0.1-0.959-0.22-1.429-0.36c-0.46-0.14-0.929-0.31-1.379-0.5
			c-0.45-0.18-0.891-0.4-1.319-0.62c-0.439-0.23-0.859-0.49-1.269-0.76c-0.4-0.27-0.801-0.56-1.18-0.87
			c-0.38-0.31-0.75-0.65-1.099-0.989c-0.34-0.35-0.68-0.72-0.989-1.099c-0.31-0.37-0.6-0.77-0.87-1.179
			c-0.27-0.41-0.529-0.83-0.75-1.259c-0.229-0.43-0.45-0.88-0.63-1.329c-0.189-0.45-0.36-0.919-0.5-1.379
			c-0.14-0.47-0.26-0.949-0.36-1.429c-0.09-0.48-0.17-0.969-0.22-1.449c-0.05-0.49-0.069-0.99-0.069-1.479
			C445.44,49.661,445.459,49.172,445.509,48.682z M66.573,51.63c-0.05,0.48-0.13,0.969-0.22,1.449c-0.1,0.48-0.22,0.959-0.36,1.429
			c-0.15,0.46-0.31,0.93-0.5,1.379c-0.19,0.45-0.4,0.9-0.63,1.329c-0.23,0.43-0.48,0.85-0.75,1.259c-0.27,0.41-0.56,0.81-0.87,1.179
			c-0.32,0.38-0.65,0.75-0.99,1.099c-0.35,0.35-0.72,0.68-1.099,0.989c-0.38,0.31-0.78,0.6-1.179,0.87
			c-0.41,0.27-0.83,0.53-1.259,0.76c-0.43,0.22-0.88,0.44-1.329,0.62c-0.45,0.19-0.919,0.36-1.379,0.5
			c-0.47,0.14-0.949,0.26-1.429,0.36c-0.48,0.09-0.969,0.17-1.449,0.22c-0.49,0.05-0.99,0.07-1.479,0.07
			c-0.49,0-0.99-0.02-1.469-0.07c-0.49-0.05-0.979-0.13-1.459-0.22c-0.48-0.1-0.959-0.22-1.429-0.36c-0.46-0.14-0.93-0.31-1.379-0.5
			c-0.45-0.18-0.89-0.4-1.319-0.62c-0.44-0.23-0.86-0.49-1.269-0.76c-0.4-0.27-0.8-0.56-1.179-0.87
			c-0.38-0.31-0.75-0.64-1.099-0.989c-0.34-0.35-0.68-0.72-0.989-1.099c-0.31-0.37-0.6-0.77-0.87-1.179
			c-0.27-0.41-0.52-0.83-0.75-1.259c-0.23-0.43-0.44-0.88-0.63-1.329c-0.19-0.45-0.35-0.919-0.5-1.379
			c-0.14-0.47-0.26-0.949-0.36-1.429c-0.09-0.48-0.17-0.969-0.22-1.449c-0.05-0.49-0.07-0.99-0.07-1.479
			c0-0.49,0.02-0.979,0.07-1.469s0.13-0.979,0.22-1.459c0.1-0.48,0.22-0.959,0.36-1.419c0.15-0.47,0.31-0.929,0.5-1.389
			c0.19-0.45,0.4-0.89,0.63-1.319c0.23-0.43,0.48-0.86,0.75-1.259c0.27-0.41,0.56-0.81,0.87-1.189c0.31-0.38,0.65-0.75,0.989-1.099
			c0.35-0.34,0.72-0.67,1.099-0.989c0.38-0.3,0.78-0.6,1.179-0.87c0.41-0.27,0.83-0.52,1.269-0.75c0.43-0.23,0.87-0.44,1.319-0.63
			c0.45-0.19,0.919-0.35,1.379-0.49c0.47-0.15,0.949-0.27,1.429-0.36c0.48-0.1,0.969-0.17,1.459-0.22c0.969-0.1,1.969-0.1,2.948,0
			c0.48,0.05,0.969,0.12,1.449,0.22c0.48,0.09,0.959,0.21,1.429,0.36c0.46,0.14,0.93,0.3,1.379,0.49c0.45,0.19,0.9,0.4,1.329,0.63
			c0.43,0.23,0.85,0.48,1.259,0.75c0.4,0.27,0.8,0.57,1.179,0.87c0.38,0.32,0.75,0.65,1.099,0.989c0.34,0.35,0.67,0.72,0.99,1.099
			c0.31,0.38,0.6,0.78,0.87,1.189c0.27,0.4,0.52,0.83,0.75,1.259c0.23,0.43,0.44,0.87,0.63,1.319c0.19,0.46,0.35,0.919,0.5,1.389
			c0.14,0.46,0.26,0.94,0.36,1.419c0.09,0.48,0.17,0.969,0.22,1.459c0.04,0.49,0.07,0.979,0.07,1.469
			C66.643,50.641,66.613,51.14,66.573,51.63z M66.573,178.562c-0.05,0.48-0.13,0.969-0.22,1.449c-0.1,0.48-0.22,0.959-0.36,1.429
			c-0.15,0.46-0.31,0.93-0.5,1.379c-0.19,0.45-0.4,0.899-0.63,1.329c-0.23,0.43-0.48,0.85-0.75,1.259
			c-0.27,0.41-0.56,0.81-0.87,1.179c-0.32,0.38-0.65,0.75-0.99,1.099c-0.35,0.35-0.72,0.68-1.099,0.989
			c-0.38,0.31-0.78,0.6-1.179,0.87c-0.41,0.27-0.83,0.53-1.259,0.76s-0.88,0.44-1.329,0.62c-0.45,0.19-0.919,0.36-1.379,0.5
			c-0.47,0.14-0.949,0.26-1.429,0.36s-0.969,0.17-1.449,0.22c-0.49,0.05-0.99,0.07-1.479,0.07c-0.49,0-0.99-0.02-1.469-0.07
			c-0.49-0.05-0.979-0.12-1.459-0.22s-0.959-0.22-1.429-0.36c-0.46-0.14-0.93-0.31-1.379-0.5c-0.45-0.18-0.89-0.39-1.319-0.62
			c-0.44-0.23-0.86-0.49-1.269-0.76c-0.4-0.27-0.8-0.56-1.179-0.87c-0.38-0.31-0.75-0.64-1.099-0.989
			c-0.34-0.35-0.68-0.72-0.989-1.099c-0.31-0.37-0.6-0.77-0.87-1.179c-0.27-0.41-0.52-0.83-0.75-1.259
			c-0.23-0.43-0.44-0.88-0.63-1.329c-0.19-0.45-0.35-0.919-0.5-1.379c-0.14-0.47-0.26-0.949-0.36-1.429
			c-0.09-0.48-0.17-0.969-0.22-1.449c-0.05-0.49-0.07-0.99-0.07-1.479c0-0.49,0.02-0.979,0.07-1.469s0.13-0.979,0.22-1.459
			c0.1-0.48,0.22-0.959,0.36-1.419c0.15-0.47,0.31-0.929,0.5-1.389c0.19-0.45,0.4-0.89,0.63-1.319c0.23-0.43,0.48-0.86,0.75-1.269
			c0.27-0.4,0.56-0.8,0.87-1.179c0.31-0.38,0.65-0.75,0.989-1.099c0.35-0.34,0.72-0.67,1.099-0.99c0.38-0.3,0.78-0.6,1.179-0.87
			c0.41-0.27,0.83-0.52,1.269-0.75c0.43-0.23,0.87-0.44,1.319-0.63s0.919-0.35,1.379-0.49c0.47-0.15,0.949-0.27,1.429-0.36
			c0.48-0.1,0.969-0.17,1.459-0.22c0.969-0.1,1.969-0.1,2.948,0c0.48,0.05,0.969,0.12,1.449,0.22c0.48,0.09,0.959,0.21,1.429,0.36
			c0.46,0.14,0.93,0.3,1.379,0.49s0.9,0.4,1.329,0.63c0.43,0.23,0.85,0.48,1.259,0.75c0.4,0.27,0.8,0.57,1.179,0.87
			c0.38,0.32,0.75,0.65,1.099,0.99c0.34,0.35,0.67,0.72,0.99,1.099c0.31,0.38,0.6,0.78,0.87,1.179c0.27,0.41,0.52,0.84,0.75,1.269
			c0.23,0.43,0.44,0.87,0.63,1.319c0.19,0.46,0.35,0.919,0.5,1.389c0.14,0.46,0.26,0.94,0.36,1.419c0.09,0.48,0.17,0.969,0.22,1.459
			c0.04,0.49,0.07,0.979,0.07,1.469C66.643,177.572,66.613,178.072,66.573,178.562z M66.825,306.493
			c-0.05,0.48-0.13,0.969-0.22,1.449c-0.1,0.48-0.22,0.959-0.36,1.429c-0.15,0.46-0.31,0.93-0.5,1.379
			c-0.19,0.45-0.4,0.9-0.63,1.329s-0.48,0.85-0.75,1.259c-0.27,0.41-0.56,0.81-0.87,1.179c-0.32,0.38-0.65,0.75-0.989,1.099
			c-0.35,0.35-0.72,0.68-1.099,0.989c-0.38,0.31-0.78,0.6-1.179,0.87c-0.41,0.27-0.83,0.53-1.259,0.76
			c-0.43,0.23-0.88,0.44-1.329,0.62c-0.45,0.19-0.92,0.36-1.379,0.5c-0.47,0.14-0.95,0.26-1.429,0.36s-0.969,0.17-1.449,0.22
			c-0.49,0.05-0.989,0.07-1.479,0.07s-0.989-0.02-1.469-0.07c-0.49-0.05-0.979-0.12-1.459-0.22c-0.48-0.1-0.959-0.22-1.429-0.36
			c-0.46-0.14-0.93-0.31-1.379-0.5c-0.45-0.18-0.89-0.39-1.319-0.62c-0.44-0.23-0.859-0.49-1.269-0.76
			c-0.4-0.27-0.8-0.56-1.179-0.87c-0.38-0.31-0.75-0.64-1.099-0.989c-0.34-0.35-0.68-0.72-0.99-1.099
			c-0.31-0.37-0.6-0.77-0.87-1.179c-0.27-0.41-0.52-0.83-0.75-1.259c-0.23-0.43-0.44-0.88-0.63-1.329s-0.35-0.919-0.5-1.379
			c-0.14-0.47-0.26-0.949-0.36-1.429c-0.09-0.48-0.17-0.969-0.22-1.449c-0.05-0.49-0.07-0.99-0.07-1.479s0.02-0.979,0.07-1.469
			c0.05-0.49,0.13-0.979,0.22-1.459c0.1-0.48,0.22-0.959,0.36-1.419c0.15-0.47,0.31-0.94,0.5-1.389s0.4-0.89,0.63-1.319
			c0.23-0.43,0.48-0.859,0.75-1.259c0.27-0.41,0.56-0.81,0.87-1.189c0.31-0.38,0.65-0.75,0.99-1.089c0.35-0.35,0.72-0.68,1.099-0.99
			c0.38-0.31,0.78-0.61,1.179-0.88c0.41-0.27,0.83-0.52,1.269-0.75c0.43-0.23,0.87-0.44,1.319-0.63c0.45-0.19,0.919-0.35,1.379-0.49
			c0.47-0.15,0.95-0.27,1.429-0.36c0.48-0.1,0.969-0.18,1.459-0.22c0.969-0.1,1.969-0.1,2.948,0c0.48,0.04,0.969,0.12,1.449,0.22
			c0.48,0.09,0.96,0.21,1.429,0.36c0.46,0.14,0.93,0.3,1.379,0.49c0.45,0.19,0.899,0.4,1.329,0.63c0.43,0.23,0.849,0.48,1.259,0.75
			c0.4,0.27,0.8,0.57,1.179,0.88c0.38,0.31,0.75,0.64,1.099,0.99c0.34,0.34,0.67,0.71,0.989,1.089c0.31,0.38,0.6,0.78,0.87,1.189
			c0.27,0.4,0.52,0.83,0.75,1.259c0.23,0.43,0.44,0.87,0.63,1.319c0.19,0.45,0.35,0.92,0.5,1.389c0.14,0.46,0.26,0.94,0.36,1.419
			c0.09,0.48,0.17,0.969,0.22,1.459c0.04,0.49,0.07,0.979,0.07,1.469S66.865,306.003,66.825,306.493z M371.807,254.739H135.698
			v-27.253h236.109V254.739z M371.807,126.932H135.698v-26.378h236.109V126.932z M475.605,306.493c-0.05,0.48-0.13,0.969-0.22,1.449
			c-0.101,0.48-0.221,0.959-0.36,1.429c-0.15,0.46-0.311,0.93-0.5,1.379c-0.19,0.45-0.4,0.9-0.63,1.329
			c-0.23,0.43-0.48,0.85-0.75,1.259c-0.271,0.41-0.561,0.8-0.87,1.179c-0.32,0.38-0.65,0.75-0.989,1.099
			c-0.35,0.34-0.72,0.68-1.099,0.989c-0.38,0.31-0.78,0.6-1.18,0.87c-0.409,0.27-0.829,0.53-1.269,0.76
			c-0.43,0.23-0.87,0.44-1.319,0.62c-0.45,0.19-0.919,0.36-1.379,0.5c-0.47,0.14-0.949,0.26-1.429,0.36s-0.969,0.17-1.449,0.22
			c-0.49,0.05-0.99,0.07-1.478,0.07c-0.49,0-0.989-0.02-1.47-0.07c-0.49-0.05-0.979-0.12-1.459-0.22
			c-0.479-0.1-0.959-0.22-1.429-0.36c-0.46-0.14-0.93-0.31-1.379-0.5c-0.45-0.18-0.891-0.39-1.319-0.62
			c-0.439-0.23-0.86-0.49-1.269-0.76c-0.4-0.27-0.801-0.56-1.18-0.87c-0.38-0.31-0.75-0.65-1.099-0.989
			c-0.34-0.35-0.68-0.72-0.989-1.099c-0.31-0.38-0.6-0.77-0.87-1.179c-0.27-0.41-0.529-0.83-0.75-1.259
			c-0.229-0.43-0.45-0.88-0.63-1.329c-0.189-0.45-0.36-0.919-0.5-1.379c-0.14-0.47-0.26-0.949-0.36-1.429
			c-0.09-0.48-0.17-0.969-0.22-1.449c-0.05-0.49-0.069-0.99-0.069-1.479s0.02-0.979,0.069-1.469c0.05-0.49,0.13-0.979,0.22-1.459
			c0.101-0.48,0.221-0.959,0.36-1.419c0.14-0.47,0.311-0.93,0.5-1.379c0.18-0.46,0.4-0.899,0.63-1.329
			c0.221-0.43,0.48-0.859,0.75-1.259c0.271-0.41,0.561-0.81,0.87-1.189c0.311-0.38,0.65-0.75,0.989-1.089
			c0.35-0.35,0.72-0.68,1.099-0.999c0.38-0.3,0.78-0.6,1.18-0.87c0.409-0.27,0.83-0.52,1.269-0.75c0.43-0.23,0.87-0.44,1.319-0.63
			s0.919-0.35,1.379-0.49c0.47-0.15,0.949-0.27,1.429-0.37c0.48-0.09,0.969-0.17,1.459-0.21c0.97-0.1,1.97-0.1,2.948,0
			c0.48,0.04,0.969,0.12,1.449,0.21c0.479,0.1,0.959,0.22,1.429,0.37c0.46,0.14,0.93,0.3,1.379,0.49s0.891,0.4,1.319,0.63
			c0.44,0.23,0.86,0.48,1.269,0.75c0.4,0.27,0.801,0.57,1.18,0.87c0.38,0.32,0.75,0.65,1.099,0.999c0.34,0.34,0.67,0.71,0.989,1.089
			c0.31,0.38,0.6,0.78,0.87,1.189c0.27,0.4,0.52,0.83,0.75,1.259c0.229,0.43,0.439,0.87,0.63,1.329c0.189,0.45,0.35,0.91,0.5,1.379
			c0.14,0.46,0.26,0.94,0.36,1.419c0.09,0.48,0.17,0.969,0.22,1.459c0.05,0.49,0.07,0.979,0.07,1.469
			C475.676,305.503,475.655,306.003,475.605,306.493z"/>
	</g>
</g>
<g>
	<g>
		<path d="M56.007,430.956c-22.344,0-40.522,18.178-40.522,40.522S33.663,512,56.007,512c22.344,0,40.522-18.178,40.522-40.522
			S78.351,430.956,56.007,430.956z"/>
	</g>
</g>
<g>
	<g>
		<path d="M456.382,430.956c-22.344,0-40.522,18.178-40.522,40.522S434.038,512,456.382,512c22.344,0,40.522-18.178,40.522-40.522
			S478.726,430.956,456.382,430.956z"/>
	</g>
</g>
<g>
</g>
<g>
</g>
<g>
</g>
<g>
</g>
<g>
</g>
<g>
</g>
<g>
</g>
<g>
</g>
<g>
</g>
<g>
</g>
<g>
</g>
<g>
</g>
<g>
</g>
<g>
</g>
<g>
</g>
</svg>
