<?xml version="1.0" encoding="iso-8859-1"?>
<!-- Generator: Adobe Illustrator 19.0.0, SVG Export Plug-In . SVG Version: 6.00 Build 0)  -->
<svg version="1.1" id="Capa_1" xmlns="http://www.w3.org/2000/svg" xmlns:xlink="http://www.w3.org/1999/xlink" x="0px" y="0px"
	 viewBox="0 0 512 512" style="enable-background:new 0 0 512 512;" xml:space="preserve">
<g>
	<g>
		<path d="M208.091,103.78H88.277c-4.321,0-7.831,3.511-7.831,7.832c0,4.321,3.511,7.832,7.831,7.832h119.813
			c4.321,0,7.832-3.511,7.832-7.832C215.922,107.291,212.411,103.78,208.091,103.78z"/>
	</g>
</g>
<g>
	<g>
		<g>
			<path d="M336.416,104.86c-4.031,0-7.301,3.271-7.301,7.291c0,4.021,3.271,7.291,7.301,7.291c4.021,0,7.291-3.271,7.291-7.291
				C343.707,108.131,340.437,104.86,336.416,104.86z"/>
			<path d="M420.372,23.315H91.628C41.023,23.315,0,64.338,0,114.942v41.984c0,5.797,4.699,10.496,10.496,10.496h491.007
				c5.797,0,10.496-4.699,10.496-10.496v-41.984C512,64.338,470.977,23.315,420.372,23.315z M208.091,149.449H88.277
				c-20.864,0-37.837-16.973-37.837-37.837s16.973-37.837,37.837-37.837h119.813c20.864,0,37.837,16.973,37.837,37.837
				S228.955,149.449,208.091,149.449z M336.416,149.449c-20.574,0-37.307-16.733-37.307-37.297
				c0-20.574,16.733-37.297,37.307-37.297c20.564,0,37.297,16.723,37.297,37.297C373.713,132.716,356.98,149.449,336.416,149.449z
				 M425.433,149.449c-20.574,0-37.307-16.733-37.307-37.297c0-20.574,16.733-37.297,37.307-37.297
				c20.564,0,37.297,16.723,37.297,37.297C462.73,132.716,445.997,149.449,425.433,149.449z"/>
			<path d="M425.433,104.86c-4.031,0-7.301,3.271-7.301,7.291c0,4.021,3.271,7.291,7.301,7.291c4.021,0,7.291-3.271,7.291-7.291
				C432.725,108.131,429.454,104.86,425.433,104.86z"/>
		</g>
	</g>
</g>
<g>
	<g>
		<path d="M424.843,251.249c-4.021,0-7.291,3.271-7.291,7.291c0,4.021,3.271,7.291,7.291,7.291s7.291-3.271,7.291-7.291
			C432.134,254.52,428.864,251.249,424.843,251.249z"/>
	</g>
</g>
<g>
	<g>
		<path d="M328.443,471.736c-13.565-17.409-21.653-39.286-21.653-63.016c0-16.13,3.737-31.404,10.391-45.002
			c3.427-7.001-1.597-15.17-9.392-15.17H10.496C4.699,348.548,0,353.247,0,359.044v38.013c0,50.605,41.023,91.628,91.628,91.628
			h228.547C328.917,488.685,333.817,478.633,328.443,471.736z M210.661,420.382H85.707c-8.282,0-15.003-6.721-15.003-15.003
			s6.721-15.003,15.003-15.003h124.954c8.282,0,15.003,6.721,15.003,15.003S218.943,420.382,210.661,420.382z"/>
	</g>
</g>
<g>
	<g>
		<path d="M335.826,251.249c-4.021,0-7.291,3.271-7.291,7.291c0,4.021,3.271,7.291,7.291,7.291s7.291-3.271,7.291-7.291
			C343.117,254.52,339.846,251.249,335.826,251.249z"/>
	</g>
</g>
<g>
	<g>
		<path d="M501.504,197.429H10.496C4.699,197.429,0,202.127,0,207.925v100.121c0,5.797,4.699,10.496,10.496,10.496h349.177
			c0.444,0,0.88-0.112,1.271-0.323c14.472-7.792,31.012-12.219,48.565-12.219c40.042,0,75.008,23.031,92.038,56.539
			c2.638,5.19,10.452,3.344,10.452-2.478V207.925C512,202.127,507.301,197.429,501.504,197.429z M207.511,295.838H87.687
			c-20.854,0-37.827-16.973-37.827-37.837s16.973-37.837,37.827-37.837h119.823c20.864,0,37.837,16.973,37.837,37.837
			S228.375,295.838,207.511,295.838z M335.826,295.838c-20.564,0-37.297-16.733-37.297-37.297c0-20.564,16.733-37.297,37.297-37.297
			c20.574,0,37.297,16.733,37.297,37.297S356.4,295.838,335.826,295.838z M424.843,295.838c-20.564,0-37.297-16.733-37.297-37.297
			c0-20.564,16.733-37.297,37.297-37.297c20.574,0,37.297,16.733,37.297,37.297S445.417,295.838,424.843,295.838z"/>
	</g>
</g>
<g>
	<g>
		<path d="M207.511,250.169H87.687c-4.311,0-7.822,3.521-7.822,7.831c0,4.321,3.511,7.832,7.822,7.832h119.823
			c4.321,0,7.831-3.511,7.831-7.832C215.342,253.69,211.831,250.169,207.511,250.169z"/>
	</g>
</g>
<g>
	<g>
		<path d="M409.51,336.006c-40.098,0-72.714,32.616-72.714,72.714s32.616,72.714,72.714,72.714
			c40.088,0,72.714-32.616,72.714-72.714S449.598,336.006,409.51,336.006z M443.685,443.598c-0.866,0.734-1.206,1.947-0.784,3.002
			c1.634,4.081,1.477,8.834-0.855,12.958c-2.76,4.878-7.841,7.618-13.072,7.618c-2.503,0-5.04-0.627-7.373-1.947l-19.236-10.882
			c-0.006-0.003-0.011-0.006-0.016-0.009l-0.225-0.127c-0.003-0.002-0.006-0.004-0.009-0.006c-0.204-0.115-0.396-0.245-0.594-0.37
			c-0.178-0.112-0.358-0.221-0.531-0.341c-0.235-0.162-0.458-0.336-0.682-0.51c-0.156-0.121-0.313-0.24-0.464-0.367
			c-0.064-0.054-0.134-0.102-0.197-0.157c-0.151-0.132-0.286-0.277-0.431-0.414c-0.147-0.139-0.295-0.275-0.436-0.42
			c-0.204-0.209-0.395-0.425-0.585-0.644c-0.128-0.147-0.257-0.293-0.379-0.446c-0.174-0.217-0.337-0.441-0.498-0.667
			c-0.125-0.174-0.249-0.348-0.367-0.528c-0.037-0.056-0.079-0.109-0.115-0.166c-0.097-0.154-0.181-0.315-0.272-0.472
			c-0.12-0.205-0.239-0.409-0.349-0.619c-0.032-0.061-0.068-0.12-0.1-0.182c-0.07-0.14-0.128-0.286-0.194-0.428
			c-0.108-0.232-0.216-0.463-0.313-0.702c-0.029-0.07-0.06-0.139-0.088-0.21c-0.051-0.132-0.088-0.267-0.135-0.4
			c-0.088-0.247-0.177-0.493-0.252-0.746c-0.024-0.081-0.051-0.16-0.074-0.241c-0.019-0.069-0.031-0.14-0.049-0.21
			c-0.023-0.089-0.041-0.18-0.063-0.269c-0.055-0.226-0.113-0.449-0.158-0.678c-0.017-0.086-0.037-0.171-0.053-0.258
			c-0.001-0.005-0.001-0.011-0.002-0.016c-0.036-0.203-0.053-0.409-0.081-0.614c-0.025-0.186-0.056-0.37-0.073-0.559
			c-0.032-0.337-0.042-0.677-0.051-1.018c-0.004-0.134-0.02-0.265-0.02-0.399c0-0.032,0.005-0.062,0.005-0.094
			c0-0.058-0.006-0.114-0.005-0.172c0.005-0.306,0.036-0.612,0.06-0.918c0.011-0.137,0.013-0.276,0.027-0.412
			c0.035-0.329,0.093-0.657,0.15-0.986c0.029-0.167,0.049-0.338,0.083-0.503c0.013-0.061,0.027-0.122,0.04-0.183
			c0.001-0.003,0.001-0.007,0.002-0.01l3.905-17.437c1.81-8.086,9.833-13.175,17.919-11.361c3.489,0.781,6.412,2.722,8.468,5.325
			c1.237,1.566,3.619,1.399,4.565-0.358c2.05-3.812,3.055-8.266,2.625-12.977c-0.979-10.721-9.52-19.454-20.219-20.647
			c-13.817-1.54-25.56,9.28-25.56,22.792c0,8.403-6.907,15.192-15.353,14.999c-8.146-0.186-14.738-7.439-14.649-15.586
			c0.331-30.272,26.195-54.529,57.027-52.203c25.828,1.948,46.677,22.742,48.693,48.565
			C463.684,416.847,456.144,433.04,443.685,443.598z"/>
	</g>
</g>
<g>
</g>
<g>
</g>
<g>
</g>
<g>
</g>
<g>
</g>
<g>
</g>
<g>
</g>
<g>
</g>
<g>
</g>
<g>
</g>
<g>
</g>
<g>
</g>
<g>
</g>
<g>
</g>
<g>
</g>
</svg>
