<?xml version="1.0" encoding="iso-8859-1"?>
<!-- Generator: Adobe Illustrator 19.0.0, SVG Export Plug-In . SVG Version: 6.00 Build 0)  -->
<svg version="1.1" id="Capa_1" xmlns="http://www.w3.org/2000/svg" xmlns:xlink="http://www.w3.org/1999/xlink" x="0px" y="0px"
	 viewBox="0 0 512 512" style="enable-background:new 0 0 512 512;" xml:space="preserve">
<g>
	<g>
		<path d="M472.05,148.952H270.991v105.946c0,3.187,3.853,4.784,6.107,2.53l12.428-12.421c5.849-5.859,15.346-5.859,21.205,0
			c5.859,5.859,5.859,15.346,0,21.205l-43.099,43.089c-2.749,3.389-6.938,5.549-11.637,5.549c-4.689,0-8.878-2.159-11.627-5.549
			l-44.039-44.029c-5.859-5.859-5.859-15.356,0-21.205c5.859-5.859,15.356-5.859,21.205,0l13.358,13.358
			c2.254,2.254,6.107,0.658,6.107-2.53V148.952H39.95c-22.063,0-39.95,17.886-39.95,39.95V394.16
			c0,44.658,36.202,80.859,80.859,80.859h350.281c44.658,0,80.859-36.202,80.859-80.859V188.902
			C512,166.839,494.114,148.952,472.05,148.952z M377.89,348.022h-44.295c-1.647,0-3.085,1.123-3.468,2.723
			c-8.011,33.51-38.209,58.491-74.133,58.491s-66.112-24.981-74.123-58.491c-0.383-1.601-1.822-2.723-3.468-2.723h-44.295
			c-8.07,0-15.016-6.198-15.402-14.259c-0.412-8.612,6.446-15.733,14.978-15.733h61.306c8.273,0,14.786,6.766,14.794,15.039
			c0.023,25.464,20.749,46.175,46.208,46.175c25.483,0,46.218-20.735,46.218-46.218c0-8.278,6.708-14.996,14.996-14.996h61.104
			c8.532,0,15.39,7.12,14.978,15.733C392.907,341.823,385.961,348.022,377.89,348.022z"/>
	</g>
</g>
<g>
	<g>
		<path d="M255.995,36.981c-8.278,0-14.996,6.718-14.996,14.996v96.975h29.992V51.977C270.991,43.699,264.283,36.981,255.995,36.981
			z"/>
	</g>
</g>
<g>
</g>
<g>
</g>
<g>
</g>
<g>
</g>
<g>
</g>
<g>
</g>
<g>
</g>
<g>
</g>
<g>
</g>
<g>
</g>
<g>
</g>
<g>
</g>
<g>
</g>
<g>
</g>
<g>
</g>
</svg>
