<?xml version="1.0" encoding="iso-8859-1"?>
<!-- Generator: Adobe Illustrator 19.0.0, SVG Export Plug-In . SVG Version: 6.00 Build 0)  -->
<svg version="1.1" id="Capa_1" xmlns="http://www.w3.org/2000/svg" xmlns:xlink="http://www.w3.org/1999/xlink" x="0px" y="0px"
	 viewBox="0 0 511.999 511.999" style="enable-background:new 0 0 511.999 511.999;" xml:space="preserve">
<g>
	<g>
		<path d="M446.807,424.364l-63.406-63.406c21.392-25.581,34.403-56.646,37.611-89.808h40.546c8.286,0,15.004-6.718,15.004-15.004
			s-6.718-15.004-15.004-15.004h-40.332c-2.784-34.1-15.897-66.089-37.826-92.312l62.077-62.077
			c6.313,3.187,13.325,4.885,20.602,4.885c12.232,0,23.732-4.763,32.381-13.413c8.649-8.649,13.413-20.149,13.413-32.382
			s-4.763-23.732-13.412-32.381c-8.649-8.65-20.15-13.414-32.382-13.414s-23.732,4.763-32.382,13.413
			c-8.649,8.649-13.414,20.149-13.414,32.382c0,6.811,1.481,13.393,4.283,19.383l-62.391,62.391
			c-26.549-22.157-58.452-34.706-91.071-37.644v-40.52c0-8.286-6.718-15.004-15.004-15.004c-8.286,0-15.004,6.718-15.004,15.004
			v40.523c-32.607,2.943-64.496,15.492-91.037,37.64L87.492,65.048c2.763-5.957,4.225-12.491,4.225-19.253
			c0-12.232-4.763-23.732-13.413-32.382C69.654,4.763,58.153,0,45.921,0S22.189,4.763,13.541,13.413
			C4.891,22.062,0.127,33.562,0.127,45.794s4.764,23.732,13.414,32.382c8.648,8.649,20.149,13.413,32.381,13.413
			c7.325,0,14.381-1.72,20.727-4.947l62.194,62.194c-22.436,26.884-35.019,59.258-37.746,92.306H49.173
			c-8.286,0-15.004,6.718-15.004,15.004s6.718,15.004,15.004,15.004h42.139c3.145,32.177,15.66,63.596,37.529,89.801l-63.673,63.673
			c-5.95-2.756-12.476-4.214-19.228-4.214c-12.232,0-23.732,4.763-32.381,13.413c-8.649,8.649-13.413,20.149-13.413,32.382
			c0,12.232,4.763,23.732,13.413,32.382c8.648,8.649,20.149,13.413,32.381,13.413s23.732-4.763,32.382-13.413
			s13.414-20.149,13.414-32.382c0-7.334-1.724-14.399-4.96-20.751l63.284-63.284c26.541,22.152,58.427,34.701,91.037,37.641v41.026
			c0,8.286,6.718,15.004,15.004,15.004c8.286,0,15.004-6.718,15.004-15.004v-41.026c32.616-2.94,64.523-15.489,91.071-37.642
			l63.051,63.051c-8.687,17.183-5.874,38.734,8.463,53.072c8.929,8.929,20.653,13.392,32.382,13.392
			c11.726,0,23.455-4.465,32.382-13.392c8.649-8.649,13.414-20.149,13.414-32.382s-4.763-23.73-13.414-32.381
			C484.512,419.589,463.742,416.533,446.807,424.364z M256.118,119.286c30.032,0,60.059,9.891,84.735,29.654l-54.292,54.292
			c-18.713-11.023-42.172-11.023-60.885,0l-54.293-54.292C196.058,129.177,226.085,119.286,256.118,119.286z M150.164,170.159
			l54.292,54.292c-11.023,18.713-11.023,42.172,0,60.886l-54.292,54.292C110.637,290.278,110.637,219.51,150.164,170.159z
			 M171.382,360.847l54.284-54.284c9.128,5.4,19.566,8.289,30.451,8.289c10.884,0,21.322-2.888,30.45-8.288l54.284,54.284
			C291.501,400.373,220.734,400.374,171.382,360.847z M362.077,339.635l-54.299-54.299c11.023-18.713,11.024-42.172,0-60.886
			l54.299-54.299c19.249,23.975,29.711,53.552,29.711,84.741C391.788,286.083,381.327,315.66,362.077,339.635z"/>
	</g>
</g>
<g>
</g>
<g>
</g>
<g>
</g>
<g>
</g>
<g>
</g>
<g>
</g>
<g>
</g>
<g>
</g>
<g>
</g>
<g>
</g>
<g>
</g>
<g>
</g>
<g>
</g>
<g>
</g>
<g>
</g>
</svg>
