<?xml version="1.0" encoding="iso-8859-1"?>
<!-- Generator: Adobe Illustrator 19.0.0, SVG Export Plug-In . SVG Version: 6.00 Build 0)  -->
<svg version="1.1" id="Capa_1" xmlns="http://www.w3.org/2000/svg" xmlns:xlink="http://www.w3.org/1999/xlink" x="0px" y="0px"
	 viewBox="0 0 512 512" style="enable-background:new 0 0 512 512;" xml:space="preserve">
<g>
	<g>
		<path d="M335.829,251.242c-4.022,0-7.294,3.272-7.294,7.294c0,4.022,3.272,7.294,7.294,7.294c4.022,0,7.293-3.272,7.293-7.294
			C343.122,254.514,339.85,251.242,335.829,251.242z"/>
	</g>
</g>
<g>
	<g>
		<path d="M424.847,251.242c-4.022,0-7.294,3.272-7.294,7.294c0,4.022,3.272,7.294,7.294,7.294c4.022,0,7.293-3.272,7.293-7.294
			C432.14,254.514,428.869,251.242,424.847,251.242z"/>
	</g>
</g>
<g>
	<g>
		<path d="M420.371,23.313H91.629C41.023,23.313,0,64.337,0,114.941v45.823c0,3.677,2.981,6.657,6.657,6.657h498.685
			c3.677,0,6.657-2.981,6.657-6.657v-45.823C512,64.337,470.975,23.313,420.371,23.313z M208.094,149.443H88.271
			c-20.863,0-37.837-16.974-37.837-37.837c0-20.863,16.974-37.837,37.837-37.837h119.822c20.863,0,37.837,16.974,37.837,37.837
			C245.93,132.47,228.957,149.443,208.094,149.443z M336.412,149.443c-20.567,0-37.3-16.732-37.3-37.3s16.732-37.3,37.3-37.3
			c20.567,0,37.3,16.732,37.3,37.3S356.978,149.443,336.412,149.443z M425.43,149.443c-20.567,0-37.3-16.732-37.3-37.3
			s16.732-37.3,37.3-37.3c20.567,0,37.3,16.732,37.3,37.3S445.996,149.443,425.43,149.443z"/>
	</g>
</g>
<g>
	<g>
		<path d="M207.511,250.169H87.689c-4.318,0-7.831,3.513-7.831,7.831c0,4.318,3.513,7.831,7.831,7.831h119.822
			c4.318,0,7.831-3.513,7.831-7.831C215.342,253.682,211.829,250.169,207.511,250.169z"/>
	</g>
</g>
<g>
	<g>
		<path d="M208.094,103.777H88.271c-4.318,0-7.831,3.513-7.831,7.831c0,4.318,3.513,7.831,7.831,7.831h119.822
			c4.318,0,7.831-3.513,7.831-7.831C215.924,107.29,212.412,103.777,208.094,103.777z"/>
	</g>
</g>
<g>
	<g>
		<path d="M425.43,104.85c-4.022,0-7.294,3.272-7.294,7.294s3.272,7.294,7.294,7.294c4.022,0,7.293-3.272,7.293-7.294
			S429.451,104.85,425.43,104.85z"/>
	</g>
</g>
<g>
	<g>
		<path d="M336.412,104.85c-4.022,0-7.294,3.272-7.294,7.294s3.272,7.294,7.294,7.294c4.022,0,7.293-3.272,7.293-7.294
			S340.432,104.85,336.412,104.85z"/>
	</g>
</g>
<g>
	<g>
		<path d="M505.343,348.545H6.657c-3.677,0-6.657,2.981-6.657,6.657v41.856c0,50.605,41.023,91.629,91.629,91.629h328.742
			c50.605,0,91.629-41.024,91.629-91.629v-41.856C512,351.525,509.019,348.545,505.343,348.545z M210.66,420.381H85.706
			c-8.286,0-15.003-6.717-15.003-15.003s6.717-15.003,15.003-15.003h124.953c8.286,0,15.003,6.717,15.003,15.003
			S218.945,420.381,210.66,420.381z"/>
	</g>
</g>
<g>
	<g>
		<path d="M505.343,197.427H6.657c-3.677,0-6.657,2.981-6.657,6.657v107.796c0,3.677,2.981,6.657,6.657,6.657h498.685
			c3.677,0,6.657-2.981,6.657-6.657V204.085C512,200.408,509.019,197.427,505.343,197.427z M207.511,295.836H87.689
			c-20.863,0-37.837-16.974-37.837-37.837s16.974-37.837,37.837-37.837h119.822c20.863,0,37.837,16.974,37.837,37.837
			C245.348,278.862,228.374,295.836,207.511,295.836z M335.829,295.836c-20.567,0-37.3-16.732-37.3-37.3
			c0-20.567,16.732-37.3,37.3-37.3c20.567,0,37.3,16.732,37.3,37.3C373.128,279.103,356.396,295.836,335.829,295.836z
			 M424.847,295.836c-20.567,0-37.3-16.732-37.3-37.3c0-20.567,16.732-37.3,37.3-37.3c20.567,0,37.3,16.732,37.3,37.3
			C462.147,279.103,445.414,295.836,424.847,295.836z"/>
	</g>
</g>
<g>
</g>
<g>
</g>
<g>
</g>
<g>
</g>
<g>
</g>
<g>
</g>
<g>
</g>
<g>
</g>
<g>
</g>
<g>
</g>
<g>
</g>
<g>
</g>
<g>
</g>
<g>
</g>
<g>
</g>
</svg>
