<?xml version="1.0" encoding="iso-8859-1"?>
<!-- Generator: Adobe Illustrator 19.0.0, SVG Export Plug-In . SVG Version: 6.00 Build 0)  -->
<svg xmlns="http://www.w3.org/2000/svg" xmlns:xlink="http://www.w3.org/1999/xlink" version="1.1" id="Capa_1" x="0px" y="0px" viewBox="0 0 426.667 426.667" style="enable-background:new 0 0 426.667 426.667;" xml:space="preserve">
<g>
	<g>
		<g>
			<path d="M384,309.333c-26.56,0-52.267-4.267-76.16-12.16c-7.36-2.347-15.787-0.64-21.653,5.227l-46.933,47.04     c-60.48-30.72-109.76-80.107-140.587-140.48l46.933-47.04c5.867-5.867,7.573-14.293,5.227-21.653     c-7.893-24-12.16-49.707-12.16-76.267c0-11.84-9.493-21.333-21.333-21.333H42.667c-11.733,0-21.333,9.493-21.333,21.333     c0,200.32,162.347,362.667,362.667,362.667c11.84,0,21.333-9.493,21.333-21.333v-74.667     C405.333,318.827,395.84,309.333,384,309.333z"/>
			<path d="M384,64V53.333C384,23.893,360.107,0,330.667,0c-29.44,0-53.333,23.893-53.333,53.333V64C265.493,64,256,73.6,256,85.333     v85.333C256,182.4,265.493,192,277.333,192H384c11.84,0,21.333-9.6,21.333-21.333V85.333C405.333,73.6,395.84,64,384,64z      M366.933,64L366.933,64H294.4V53.333c0-20.053,16.213-36.267,36.267-36.267s36.267,16.213,36.267,36.267V64z"/>
		</g>
	</g>
</g>
<g>
</g>
<g>
</g>
<g>
</g>
<g>
</g>
<g>
</g>
<g>
</g>
<g>
</g>
<g>
</g>
<g>
</g>
<g>
</g>
<g>
</g>
<g>
</g>
<g>
</g>
<g>
</g>
<g>
</g>
</svg>
