<?xml version="1.0" encoding="iso-8859-1"?>
<!-- Generator: Adobe Illustrator 19.0.0, SVG Export Plug-In . SVG Version: 6.00 Build 0)  -->
<svg xmlns="http://www.w3.org/2000/svg" xmlns:xlink="http://www.w3.org/1999/xlink" version="1.1" id="Capa_1" x="0px" y="0px" viewBox="0 0 426.667 426.667" style="enable-background:new 0 0 426.667 426.667;" xml:space="preserve">
<g>
	<g>
		<g>
			<path d="M384,309.333c-26.56,0-52.16-4.267-76.16-12.16c-7.36-2.347-15.787-0.64-21.653,5.227l-46.933,47.04     c-60.48-30.72-109.76-80.107-140.587-140.48l46.933-47.04c5.867-5.867,7.573-14.293,5.227-21.653     c-7.893-24-12.16-49.707-12.16-76.267c0-11.84-9.493-21.333-21.333-21.333H42.667c-11.84,0-21.333,9.493-21.333,21.333     c0,200.32,162.347,362.667,362.667,362.667c11.84,0,21.333-9.493,21.333-21.333v-74.667     C405.333,318.827,395.84,309.333,384,309.333z"/>
			<path d="M271.04,181.333l48.96-48.96v80.96h10.667l60.907-60.907l-45.867-45.76l45.76-45.76L330.667,0H320v80.96L271.04,32     L256,47.04l59.627,59.627L256,166.293L271.04,181.333z M341.333,40.853l20.053,20.053L341.333,80.96V40.853z M341.333,132.373     l20.053,20.053l-20.053,20.053V132.373z"/>
		</g>
	</g>
</g>
<g>
</g>
<g>
</g>
<g>
</g>
<g>
</g>
<g>
</g>
<g>
</g>
<g>
</g>
<g>
</g>
<g>
</g>
<g>
</g>
<g>
</g>
<g>
</g>
<g>
</g>
<g>
</g>
<g>
</g>
</svg>
