<?xml version="1.0" encoding="iso-8859-1"?>
<!-- Generator: Adobe Illustrator 19.0.0, SVG Export Plug-In . SVG Version: 6.00 Build 0)  -->
<svg xmlns="http://www.w3.org/2000/svg" xmlns:xlink="http://www.w3.org/1999/xlink" version="1.1" id="Capa_1" x="0px" y="0px" viewBox="0 0 384 384" style="enable-background:new 0 0 384 384;" xml:space="preserve">
<g>
	<g>
		<g>
			<path d="M53.346,192V0H10.679v192c0,58.88,47.787,106.667,106.667,106.667h85.333V256h-85.333     C82.039,256,53.346,227.307,53.346,192z"/>
			<path d="M372.706,345.707C369.826,330.453,355.639,320,340.172,320h-30.827l42.667-149.333c0-23.573-19.093-42.667-42.667-42.667     H202.679V0h-128v170.667c0,35.2,28.8,64,64,64h128L245.346,320v64h96C361.079,384,376.652,366.08,372.706,345.707z"/>
		</g>
	</g>
</g>
<g>
</g>
<g>
</g>
<g>
</g>
<g>
</g>
<g>
</g>
<g>
</g>
<g>
</g>
<g>
</g>
<g>
</g>
<g>
</g>
<g>
</g>
<g>
</g>
<g>
</g>
<g>
</g>
<g>
</g>
</svg>
