<?xml version="1.0" encoding="iso-8859-1"?>
<!-- Generator: Adobe Illustrator 19.0.0, SVG Export Plug-In . SVG Version: 6.00 Build 0)  -->
<svg xmlns="http://www.w3.org/2000/svg" xmlns:xlink="http://www.w3.org/1999/xlink" version="1.1" id="Capa_1" x="0px" y="0px" viewBox="0 0 448.016 448.016" style="enable-background:new 0 0 448.016 448.016;" xml:space="preserve">
<g>
	<g>
		<g>
			<path d="M444.373,335.688c-8-15.36-27.52-20.693-43.307-13.44l-23.36,10.667l-72.853-148.8     c-7.147-14.613-21.973-23.893-38.187-23.893L192,160.008v-128H64v170.667c0,35.307,28.693,64,64,64h149.333l72.747,149.333     l79.253-36.373C445.867,372.062,452.907,352.115,444.373,335.688z"/>
			<path d="M42.667,224.008v-192H0v192c0,58.88,47.787,106.667,106.667,106.667h128v-42.667h-128     C71.36,288.008,42.667,259.315,42.667,224.008z"/>
		</g>
	</g>
</g>
<g>
</g>
<g>
</g>
<g>
</g>
<g>
</g>
<g>
</g>
<g>
</g>
<g>
</g>
<g>
</g>
<g>
</g>
<g>
</g>
<g>
</g>
<g>
</g>
<g>
</g>
<g>
</g>
<g>
</g>
</svg>
