<?xml version="1.0" encoding="iso-8859-1"?>
<!-- Generator: Adobe Illustrator 19.0.0, SVG Export Plug-In . SVG Version: 6.00 Build 0)  -->
<svg xmlns="http://www.w3.org/2000/svg" xmlns:xlink="http://www.w3.org/1999/xlink" version="1.1" id="Capa_1" x="0px" y="0px" viewBox="0 0 426.667 426.667" style="enable-background:new 0 0 426.667 426.667;" xml:space="preserve">
<g>
	<g>
		<circle cx="106.667" cy="74.667" r="42.667"/>
	</g>
</g>
<g>
	<g>
		<g>
			<path d="M327.36,98.987l1.387,1.28c12.267,13.12,17.493,30.187,14.4,46.933L340.8,160h40.853l1.387-9.067     c4.267-29.013-5.76-57.92-27.733-79.36l-1.493-1.387c-12.267-13.12-17.387-30.08-14.293-46.827l1.813-12.693h-40.32l-1.387,9.067     C295.253,48.747,305.387,77.653,327.36,98.987z"/>
			<path d="M242.027,98.987l1.387,1.28c12.267,13.12,17.493,30.187,14.4,46.933l-2.347,12.8h40.853l1.387-9.067     c4.267-29.013-5.76-57.92-27.733-79.36l-1.493-1.387c-12.267-13.12-17.387-30.08-14.293-46.827L256,10.667h-40.32l-1.387,9.067     C209.92,48.747,220.053,77.653,242.027,98.987z"/>
			<path d="M195.2,202.667c-6.507-4.8-12.48-9.92-17.493-15.36L147.84,154.24c-4.053-4.48-9.173-8.107-14.72-10.667     c-6.187-2.987-13.227-4.907-20.48-4.907H112c-26.453,0-48,21.547-48,48v16H0v170.667C0,396.907,19.093,416,42.667,416H384     c23.573,0,42.667-19.093,42.667-42.667V202.667H195.2z M106.667,373.333H64v-128h42.667V373.333z M192,373.333h-42.667v-128H192     V373.333z M277.333,373.333h-42.667v-128h42.667V373.333z M362.667,373.333H320v-128h42.667V373.333z"/>
		</g>
	</g>
</g>
<g>
</g>
<g>
</g>
<g>
</g>
<g>
</g>
<g>
</g>
<g>
</g>
<g>
</g>
<g>
</g>
<g>
</g>
<g>
</g>
<g>
</g>
<g>
</g>
<g>
</g>
<g>
</g>
<g>
</g>
</svg>
