<?xml version="1.0" encoding="iso-8859-1"?>
<!-- Generator: Adobe Illustrator 19.0.0, SVG Export Plug-In . SVG Version: 6.00 Build 0)  -->
<svg xmlns="http://www.w3.org/2000/svg" xmlns:xlink="http://www.w3.org/1999/xlink" version="1.1" id="Capa_1" x="0px" y="0px" viewBox="0 0 469.333 469.333" style="enable-background:new 0 0 469.333 469.333;" xml:space="preserve">
<g>
	<g>
		<circle cx="288" cy="202.667" r="26.667"/>
	</g>
</g>
<g>
	<g>
		<circle cx="181.333" cy="202.667" r="26.667"/>
	</g>
</g>
<g>
	<g>
		<g>
			<path d="M234.667,341.333c42.987,0,79.787-26.347,96-64h-192C154.88,314.987,191.68,341.333,234.667,341.333z"/>
			<path d="M468.16,220.48c-5.44-32.213-29.013-58.347-59.84-67.627c-11.2-23.787-27.307-44.907-46.827-62.08     c-33.813-29.867-78.187-48.107-126.827-48.107s-93.013,18.24-126.827,48.107c-19.52,17.28-35.52,38.293-46.827,62.08     c-30.827,9.173-54.4,35.307-59.84,67.627C0.427,225.067,0,229.867,0,234.667s0.427,9.6,1.173,14.187     c5.44,32.213,29.013,58.347,59.84,67.627c11.093,23.573,26.987,44.48,46.293,61.653c33.92,30.08,78.4,48.533,127.36,48.533     s93.44-18.453,127.36-48.533c19.307-17.173,35.2-38.08,46.293-61.653c30.827-9.28,54.4-35.413,59.84-67.627     c0.747-4.587,1.173-9.387,1.173-14.187S468.907,225.067,468.16,220.48z M384,277.333c-2.133,0-4.16-0.32-6.08-0.64     c-4.16,14.187-10.453,27.52-18.347,39.68C332.8,357.013,286.827,384,234.667,384s-98.133-26.987-124.8-67.627     c-8-12.16-14.187-25.493-18.347-39.68c-2.027,0.32-4.053,0.64-6.187,0.64c-23.467,0-42.667-19.2-42.667-42.667     S61.867,192,85.333,192c2.133,0,4.16,0.32,6.08,0.64c4.16-14.187,10.453-27.52,18.347-39.68     c26.773-40.64,72.747-67.627,124.907-67.627s98.133,26.987,124.8,67.627c8,12.16,14.187,25.493,18.347,39.68     c2.027-0.32,4.053-0.64,6.187-0.64c23.467,0,42.667,19.2,42.667,42.667S407.467,277.333,384,277.333z"/>
		</g>
	</g>
</g>
<g>
</g>
<g>
</g>
<g>
</g>
<g>
</g>
<g>
</g>
<g>
</g>
<g>
</g>
<g>
</g>
<g>
</g>
<g>
</g>
<g>
</g>
<g>
</g>
<g>
</g>
<g>
</g>
<g>
</g>
</svg>
