<?xml version="1.0" encoding="iso-8859-1"?>
<!-- Generator: Adobe Illustrator 19.0.0, SVG Export Plug-In . SVG Version: 6.00 Build 0)  -->
<svg xmlns="http://www.w3.org/2000/svg" xmlns:xlink="http://www.w3.org/1999/xlink" version="1.1" id="Capa_1" x="0px" y="0px" viewBox="0 0 384.091 384.091" style="enable-background:new 0 0 384.091 384.091;" xml:space="preserve">
<g>
	<g>
		<g>
			<path d="M307.6,124.415L307.6,124.415l61.12-61.12c-84.267-84.267-220.8-84.373-305.173-0.213     C147.493,35.241,240.827,57.535,307.6,124.415z"/>
			<polygon points="246.491,216.02 215.952,246.548 353.584,384.063 384.091,353.513    "/>
			<path d="M63.013,63.508c-84.053,84.373-84.053,220.907,0.213,305.173l61.12-61.12C57.467,240.895,35.173,147.561,63.013,63.508z"/>
			<path d="M63.44,63.188L63.44,63.188c-0.107,0.107-0.107,0.107-0.213,0.107c-0.107,0.107-0.107,0.107-0.107,0.213     c-8,64.213,24.96,146.88,91.84,213.653l122.24-122.24C210.213,88.148,127.653,55.081,63.44,63.188z"/>
		</g>
	</g>
</g>
<g>
</g>
<g>
</g>
<g>
</g>
<g>
</g>
<g>
</g>
<g>
</g>
<g>
</g>
<g>
</g>
<g>
</g>
<g>
</g>
<g>
</g>
<g>
</g>
<g>
</g>
<g>
</g>
<g>
</g>
</svg>
