<?xml version="1.0" encoding="iso-8859-1"?>
<!-- Generator: Adobe Illustrator 19.0.0, SVG Export Plug-In . SVG Version: 6.00 Build 0)  -->
<svg xmlns="http://www.w3.org/2000/svg" xmlns:xlink="http://www.w3.org/1999/xlink" version="1.1" id="Capa_1" x="0px" y="0px" viewBox="0 0 426.667 426.667" style="enable-background:new 0 0 426.667 426.667;" xml:space="preserve">
<g>
	<g>
		<polygon points="426.667,192 337.707,192 406.827,122.773 376.64,92.693 277.333,192 234.667,192 234.667,149.333 333.973,50.027     303.893,19.84 234.667,88.96 234.667,0 192,0 192,88.96 122.773,19.84 92.693,50.027 192,149.333 192,192 149.333,192     50.027,92.693 19.84,122.773 88.96,192 0,192 0,234.667 88.96,234.667 19.84,303.893 50.027,333.973 149.333,234.667 192,234.667     192,277.333 92.693,376.64 122.773,406.827 192,337.707 192,426.667 234.667,426.667 234.667,337.707 303.893,406.827     333.973,376.64 234.667,277.333 234.667,234.667 277.333,234.667 376.64,333.973 406.827,303.893 337.707,234.667     426.667,234.667   "/>
	</g>
</g>
<g>
</g>
<g>
</g>
<g>
</g>
<g>
</g>
<g>
</g>
<g>
</g>
<g>
</g>
<g>
</g>
<g>
</g>
<g>
</g>
<g>
</g>
<g>
</g>
<g>
</g>
<g>
</g>
<g>
</g>
</svg>
