<?xml version="1.0" encoding="iso-8859-1"?>
<!-- Generator: Adobe Illustrator 19.0.0, SVG Export Plug-In . SVG Version: 6.00 Build 0)  -->
<svg version="1.1" id="Layer_1" xmlns="http://www.w3.org/2000/svg" xmlns:xlink="http://www.w3.org/1999/xlink" x="0px" y="0px"
	 viewBox="0 0 512 512" style="enable-background:new 0 0 512 512;" xml:space="preserve">
<g>
	<g>
		<path d="M495.195,118.245h-133.01V50.929c0-9.32-7.609-16.805-16.805-16.805H110.603c-9.361,0-16.805,7.648-16.805,16.805v67.314
			H16.805C7.524,118.243,0,125.768,0,135.049v326.022c0,9.281,7.524,16.805,16.805,16.805h478.39
			c9.281,0,16.805-7.524,16.805-16.805V135.049C512,125.768,504.476,118.245,495.195,118.245z M323.714,67.735l-36.185,140.945
			H168.454L132.269,67.735H323.714z M328.574,183.97v90.458h-11.203v-46.819L328.574,183.97z M172.222,308.039h111.539v45.792
			H172.222V308.039z M172.221,274.428v-32.137H283.76v32.137H172.221z M127.408,183.97l11.203,43.639v46.819h-11.203V183.97z
			 M422.374,430.473c0,5.607-4.545,10.154-10.154,10.154H43.764c-5.607,0-10.154-4.545-10.154-10.154V165.649
			c0-5.607,4.545-10.154,10.154-10.154h50.034v135.737c0,2.857,0.751,5.746,2.17,8.26c0.003,0.005,44.676,79.158,44.678,79.163
			c3.294,5.828,8.972,8.785,14.82,8.785c27.919,0,141.808,0.001,145.102,0.001c6.635,0,12.402-4.052,14.777-8.801l44.671-79.147
			c1.47-2.605,2.17-5.519,2.17-8.26V155.496h50.034c5.607,0,10.154,4.545,10.154,10.154V430.473z M462.705,319.908
			c-12.066,0-21.847-9.781-21.847-21.847s9.781-21.847,21.847-21.847c12.03,0,21.847,9.796,21.847,21.847
			C484.551,310.09,474.756,319.908,462.705,319.908z"/>
	</g>
</g>
<g>
</g>
<g>
</g>
<g>
</g>
<g>
</g>
<g>
</g>
<g>
</g>
<g>
</g>
<g>
</g>
<g>
</g>
<g>
</g>
<g>
</g>
<g>
</g>
<g>
</g>
<g>
</g>
<g>
</g>
</svg>
