<?xml version="1.0" encoding="iso-8859-1"?>
<!-- Generator: Adobe Illustrator 19.0.0, SVG Export Plug-In . SVG Version: 6.00 Build 0)  -->
<svg version="1.1" id="Layer_1" xmlns="http://www.w3.org/2000/svg" xmlns:xlink="http://www.w3.org/1999/xlink" x="0px" y="0px"
	 viewBox="0 0 512 512" style="enable-background:new 0 0 512 512;" xml:space="preserve">
<g>
	<g>
		<path d="M512,256c0-35.206-7.077-69.32-20.523-100.738c9.564-15.192,15.107-33.158,15.107-52.398
			c0-54.386-44.247-98.633-98.633-98.633c-19.509,0-37.715,5.695-53.04,15.508C323.997,6.797,290.522,0.001,255.999,0.001
			c-33.412,0-65.839,6.374-95.915,18.517c-14.909-9.063-32.397-14.286-51.083-14.286c-54.386,0-98.633,44.247-98.633,98.633
			c0,17.248,4.455,33.472,12.267,47.592C7.815,183.19,0,218.992,0,256s7.815,72.81,22.636,105.543
			c-7.812,14.12-12.267,30.345-12.267,47.592c0,54.386,44.247,98.633,98.633,98.633c18.686,0,36.174-5.223,51.083-14.285
			c30.076,12.143,62.504,18.517,95.915,18.517c34.522,0,67.997-6.797,98.908-19.739c15.326,9.813,33.531,15.508,53.04,15.508
			c54.386,0,98.633-44.247,98.633-98.633c0-19.239-5.542-37.206-15.107-52.398C504.923,325.32,512,291.206,512,256z
			 M109.002,474.194c-35.93,0-65.058-29.128-65.058-65.058s29.128-65.058,65.058-65.058s65.058,29.128,65.058,65.058
			S144.933,474.194,109.002,474.194z M109.002,167.922c-35.93,0-65.058-29.128-65.058-65.058s29.128-65.058,65.058-65.058
			s65.058,29.128,65.058,65.058S144.932,167.922,109.002,167.922z M255.999,321.058c-35.93,0-65.058-29.128-65.058-65.058
			c0-35.93,29.128-65.058,65.058-65.058S321.057,220.07,321.057,256S291.93,321.058,255.999,321.058z M407.949,474.194
			c-35.93,0-65.058-29.128-65.058-65.058s29.128-65.058,65.058-65.058c35.93,0,65.058,29.128,65.058,65.058
			S443.88,474.194,407.949,474.194z M407.949,167.922c-35.93,0-65.058-29.128-65.058-65.058s29.128-65.058,65.058-65.058
			c35.93,0,65.058,29.128,65.058,65.058S443.879,167.922,407.949,167.922z"/>
	</g>
</g>
<g>
</g>
<g>
</g>
<g>
</g>
<g>
</g>
<g>
</g>
<g>
</g>
<g>
</g>
<g>
</g>
<g>
</g>
<g>
</g>
<g>
</g>
<g>
</g>
<g>
</g>
<g>
</g>
<g>
</g>
</svg>
