<?xml version="1.0" encoding="iso-8859-1"?>
<!-- Generator: Adobe Illustrator 19.0.0, SVG Export Plug-In . SVG Version: 6.00 Build 0)  -->
<svg version="1.1" id="Layer_1" xmlns="http://www.w3.org/2000/svg" xmlns:xlink="http://www.w3.org/1999/xlink" x="0px" y="0px"
	 viewBox="0 0 511.999 511.999" style="enable-background:new 0 0 511.999 511.999;" xml:space="preserve">
<g>
	<g>
		<path d="M498.995,14.644c-17.439-17.442-45.462-17.268-62.743-0.145L172.59,275.76l-2.805-2.805
			c-6.511-6.511-17.07-6.511-23.583,0l-24.369,24.369l-12.774-12.774c-6.511-6.511-17.07-6.511-23.583,0s-6.512,17.07,0,23.583
			l12.774,12.774l-79.396,79.396c-25.139,25.14-25.139,66.047,0,91.187c25.197,25.197,65.986,25.203,91.188,0l75.675-75.675
			l76.376-13.434c6.126-1.078,11.142-5.475,13.014-11.406c1.872-5.931,0.287-12.411-4.111-16.809l-35.517-35.517L498.853,77.675
			C516.314,60.368,516.401,32.049,498.995,14.644z M475.377,53.985l-263.481,261.08l-15.722-15.722L459.727,38.191
			c4.352-4.315,11.357-4.291,15.685,0.036C479.759,42.573,479.747,49.655,475.377,53.985z"/>
	</g>
</g>
<g>
</g>
<g>
</g>
<g>
</g>
<g>
</g>
<g>
</g>
<g>
</g>
<g>
</g>
<g>
</g>
<g>
</g>
<g>
</g>
<g>
</g>
<g>
</g>
<g>
</g>
<g>
</g>
<g>
</g>
</svg>
