<?xml version="1.0" encoding="iso-8859-1"?>
<!-- Generator: Adobe Illustrator 19.0.0, SVG Export Plug-In . SVG Version: 6.00 Build 0)  -->
<svg version="1.1" id="Layer_1" xmlns="http://www.w3.org/2000/svg" xmlns:xlink="http://www.w3.org/1999/xlink" x="0px" y="0px"
	 viewBox="0 0 511.999 511.999" style="enable-background:new 0 0 511.999 511.999;" xml:space="preserve">
<g>
	<g>
		<path d="M507.794,244.743c-1.237-1.425-30.829-35.293-76.162-69.526C369.638,128.405,310.547,104.669,256,104.669
			c-54.547,0-113.639,23.736-175.633,70.549c-45.333,34.232-74.925,68.1-76.162,69.526c-5.607,6.457-5.607,16.056,0,22.513
			c1.237,1.425,30.829,35.293,76.162,69.526C142.361,383.594,201.453,407.33,256,407.33c54.547,0,113.638-23.736,175.632-70.549
			c45.333-34.232,74.925-68.1,76.162-69.526C513.401,260.799,513.401,251.199,507.794,244.743z M256,372.207
			c-64.077,0-116.207-52.13-116.207-116.208S191.923,139.791,256,139.791s116.207,52.13,116.207,116.208
			S320.078,372.207,256,372.207z"/>
	</g>
</g>
<g>
	<g>
		<path d="M256,181.411c-41.128,0-74.589,33.46-74.589,74.589s33.46,74.589,74.589,74.589s74.589-33.46,74.589-74.589
			S297.128,181.411,256,181.411z M292.547,272.844c-2.205,0.428-1.796,0.322-19.38,0.322c0,17.633,0.105,17.178-0.322,19.38
			c-1.534,7.908-8.488,13.881-16.845,13.881c-8.357,0-15.311-5.973-16.845-13.881c-0.418-2.155-0.322-1.551-0.322-19.38
			c-17.614,0-17.176,0.105-19.38-0.322c-7.908-1.534-13.881-8.488-13.881-16.845c0-8.357,5.973-15.31,13.881-16.845
			c2.205-0.428,1.796-0.322,19.38-0.322c0-17.633-0.105-17.178,0.322-19.38c1.534-7.908,8.488-13.881,16.845-13.881
			c8.357,0,15.31,5.973,16.845,13.881c0.418,2.155,0.322,1.551,0.322,19.38c17.614,0,17.176-0.105,19.38,0.322
			c7.908,1.534,13.881,8.488,13.881,16.845C306.428,264.356,300.455,271.31,292.547,272.844z"/>
	</g>
</g>
<g>
</g>
<g>
</g>
<g>
</g>
<g>
</g>
<g>
</g>
<g>
</g>
<g>
</g>
<g>
</g>
<g>
</g>
<g>
</g>
<g>
</g>
<g>
</g>
<g>
</g>
<g>
</g>
<g>
</g>
</svg>
