<?xml version="1.0" encoding="iso-8859-1"?>
<!-- Generator: Adobe Illustrator 19.0.0, SVG Export Plug-In . SVG Version: 6.00 Build 0)  -->
<svg version="1.1" id="Layer_1" xmlns="http://www.w3.org/2000/svg" xmlns:xlink="http://www.w3.org/1999/xlink" x="0px" y="0px"
	 viewBox="0 0 511.999 511.999" style="enable-background:new 0 0 511.999 511.999;" xml:space="preserve">
<g>
	<g>
		<path d="M438.649,56.524h-75.929c-9.292,0-16.824,7.533-16.824,16.824s7.533,16.824,16.824,16.824h59.104v59.104
			c0,9.292,7.533,16.824,16.824,16.824s16.824-7.533,16.824-16.824V73.348C455.474,64.057,447.941,56.524,438.649,56.524z"/>
	</g>
</g>
<g>
	<g>
		<path d="M438.65,345.897c-9.292,0-16.824,7.533-16.824,16.824v59.104h-59.104c-9.292,0-16.824,7.533-16.824,16.824
			s7.533,16.824,16.824,16.824h75.929c9.292,0,16.824-7.533,16.824-16.824v-75.929C455.475,353.43,447.942,345.897,438.65,345.897z"
			/>
	</g>
</g>
<g>
	<g>
		<path d="M149.276,56.524H73.348c-9.292,0-16.824,7.533-16.824,16.824v75.928c0,9.293,7.533,16.826,16.824,16.826
			s16.824-7.533,16.824-16.824V90.173h59.104c9.292,0,16.824-7.533,16.824-16.824S158.568,56.524,149.276,56.524z"/>
	</g>
</g>
<g>
	<g>
		<path d="M149.278,421.826H90.172v-59.104c0-9.292-7.533-16.824-16.824-16.824s-16.824,7.533-16.824,16.824v75.929
			c0,9.292,7.533,16.824,16.824,16.824h75.928c9.292,0,16.824-7.533,16.824-16.824S158.569,421.826,149.278,421.826z"/>
	</g>
</g>
<g>
	<g>
		<path d="M507.877,244.968c-1.238-1.426-30.847-35.314-76.215-69.572c-55.695-42.055-109.037-65.481-158.839-69.822v19.082
			c59.571,7.588,106.93,54.938,114.519,114.519h29.602c9.292,0,16.824,7.533,16.824,16.824s-7.533,16.824-16.824,16.824h-29.602
			c-7.574,59.468-54.842,106.918-114.519,114.519v19.082c49.802-4.342,103.144-27.766,158.839-69.822
			c45.368-34.258,74.977-68.147,76.215-69.572C513.373,260.704,513.373,251.295,507.877,244.968z"/>
	</g>
</g>
<g>
	<g>
		<path d="M95.054,239.176h29.602c7.574-59.468,54.842-106.918,114.519-114.519v-19.085
			c-49.802,4.342-103.144,27.766-158.839,69.822c-45.368,34.259-74.977,68.148-76.215,69.573c-5.495,6.328-5.495,15.735,0,22.064
			c1.238,1.426,30.847,35.314,76.215,69.572c55.695,42.055,109.037,65.481,158.839,69.822v-19.082
			c-59.571-7.588-106.93-54.938-114.519-114.519H95.054c-9.292,0-16.824-7.533-16.824-16.824
			C78.229,246.709,85.762,239.176,95.054,239.176z"/>
	</g>
</g>
<g>
	<g>
		<path d="M272.824,272.824v80.495c41-7.066,73.428-39.495,80.495-80.495H272.824z"/>
	</g>
</g>
<g>
	<g>
		<path d="M158.68,272.824c7.066,41,39.495,73.428,80.495,80.495v-80.495H158.68z"/>
	</g>
</g>
<g>
	<g>
		<path d="M158.68,239.175h80.495v-80.495C198.175,165.747,165.746,198.175,158.68,239.175z"/>
	</g>
</g>
<g>
	<g>
		<path d="M272.824,158.681v80.495h80.495C346.252,198.175,313.823,165.747,272.824,158.681z"/>
	</g>
</g>
<g>
</g>
<g>
</g>
<g>
</g>
<g>
</g>
<g>
</g>
<g>
</g>
<g>
</g>
<g>
</g>
<g>
</g>
<g>
</g>
<g>
</g>
<g>
</g>
<g>
</g>
<g>
</g>
<g>
</g>
</svg>
