<?xml version="1.0" encoding="iso-8859-1"?>
<!-- Generator: Adobe Illustrator 19.0.0, SVG Export Plug-In . SVG Version: 6.00 Build 0)  -->
<svg version="1.1" id="Layer_1" xmlns="http://www.w3.org/2000/svg" xmlns:xlink="http://www.w3.org/1999/xlink" x="0px" y="0px"
	 viewBox="0 0 512 512" style="enable-background:new 0 0 512 512;" xml:space="preserve">
<g>
	<g>
		<path d="M511.276,458.762C467.85,311.764,470.541,320.477,469.62,318.57c0.216-1.794,0.144,14.095,0.144-269.633
			c0-9.967-8.081-18.048-18.048-18.048H60.282c-9.967,0-18.048,8.081-18.048,18.048c0,283.679-0.072,267.839,0.144,269.634
			c-0.92,1.906,1.781-6.845-41.655,140.191c-3.291,11.14,5.066,22.348,16.701,22.348h477.152
			C506.192,481.111,514.572,469.92,511.276,458.762z M109.399,170.834c2.869-3.305,71.133-80.913,146.601-80.913
			c75.467,0,143.732,77.608,146.601,80.913c5.895,6.787,5.894,16.879-0.001,23.666c-2.869,3.305-71.133,80.912-146.6,80.912
			c-75.468,0-143.732-77.607-146.601-80.912C103.505,187.712,103.504,177.621,109.399,170.834z M40.727,446.282L71.07,343.564
			h369.858l30.344,102.717H40.727z"/>
	</g>
</g>
<g>
	<g>
		<path d="M310.564,390.913H201.435c-9.617,0-17.414,7.797-17.414,17.414s7.797,17.414,17.414,17.414h109.129
			c9.617,0,17.414-7.797,17.414-17.414C327.979,398.708,320.182,390.913,310.564,390.913z"/>
	</g>
</g>
<g>
	<g>
		<path d="M255.999,111.544c-39.258,0-71.123,31.972-71.123,71.123c0,39.2,31.895,71.123,71.123,71.123
			c39.258,0,71.123-31.973,71.123-71.123C327.122,143.468,295.227,111.544,255.999,111.544z M255.999,217.694
			c-19.315,0-35.028-15.713-35.028-35.027s15.714-35.027,35.028-35.027s35.027,15.713,35.027,35.027
			S275.314,217.694,255.999,217.694z"/>
	</g>
</g>
<g>
</g>
<g>
</g>
<g>
</g>
<g>
</g>
<g>
</g>
<g>
</g>
<g>
</g>
<g>
</g>
<g>
</g>
<g>
</g>
<g>
</g>
<g>
</g>
<g>
</g>
<g>
</g>
<g>
</g>
</svg>
