<?xml version="1.0" encoding="iso-8859-1"?>
<!-- Generator: Adobe Illustrator 19.0.0, SVG Export Plug-In . SVG Version: 6.00 Build 0)  -->
<svg version="1.1" id="Layer_1" xmlns="http://www.w3.org/2000/svg" xmlns:xlink="http://www.w3.org/1999/xlink" x="0px" y="0px"
	 viewBox="0 0 512 512" style="enable-background:new 0 0 512 512;" xml:space="preserve">
<g>
	<g>
		<path d="M255.999,0C159.322,0,80.668,78.654,80.668,175.332v161.336C80.668,433.347,159.322,512,256.001,512
			s175.331-78.654,175.331-175.332V175.332C431.333,78.654,352.679,0,255.999,0z M192.089,399.018H151.43
			c-9.356,0-16.941-7.585-16.941-16.941c0-9.356,7.585-16.941,16.941-16.941h40.659c9.356,0,16.941,7.585,16.941,16.941
			C209.03,391.433,201.445,399.018,192.089,399.018z M355.852,399.018h-3.388v3.388c0,9.356-7.585,16.941-16.941,16.941
			c-9.356,0-16.941-7.585-16.941-16.941v-3.388h-3.388c-9.356,0-16.941-7.585-16.941-16.941c0-9.356,7.585-16.941,16.941-16.941
			h3.388v-3.388c0-9.356,7.585-16.941,16.941-16.941c9.356,0,16.941,7.585,16.941,16.941v3.388h3.388
			c9.356,0,16.941,7.585,16.941,16.941C372.793,391.433,365.208,399.018,355.852,399.018z M256.001,298.329
			c-67.273,0-122.004-54.731-122.004-122.004S188.728,54.321,256.001,54.321c67.272,0,122.003,54.731,122.003,122.004
			S323.274,298.329,256.001,298.329z"/>
	</g>
</g>
<g>
	<g>
		<path d="M256.001,122.458c-29.703,0-53.868,24.165-53.868,53.867c0,29.702,24.165,53.867,53.868,53.867
			c29.702,0,53.867-24.165,53.867-53.867C309.868,146.623,285.703,122.458,256.001,122.458z"/>
	</g>
</g>
<g>
</g>
<g>
</g>
<g>
</g>
<g>
</g>
<g>
</g>
<g>
</g>
<g>
</g>
<g>
</g>
<g>
</g>
<g>
</g>
<g>
</g>
<g>
</g>
<g>
</g>
<g>
</g>
<g>
</g>
</svg>
