<?xml version="1.0" encoding="iso-8859-1"?>
<!-- Generator: Adobe Illustrator 19.0.0, SVG Export Plug-In . SVG Version: 6.00 Build 0)  -->
<svg version="1.1" id="Layer_1" xmlns="http://www.w3.org/2000/svg" xmlns:xlink="http://www.w3.org/1999/xlink" x="0px" y="0px"
	 viewBox="0 0 512.002 512.002" style="enable-background:new 0 0 512.002 512.002;" xml:space="preserve">
<g>
	<g>
		<path d="M450.538,0H214.838c-9.342,0-16.917,7.573-16.917,16.917v1.127H158.45c-62.806,0-113.904,51.097-113.904,113.904v57.515
			c0,9.342,7.573,16.917,16.917,16.917h136.458v3.383c0,9.342,7.573,16.917,16.917,16.917h74.432v268.406
			c0,9.342,7.573,16.917,16.917,16.917h144.353c9.342,0,16.917-7.573,16.917-16.917V16.917C467.454,7.573,459.881,0,450.538,0z"/>
	</g>
</g>
<g>
	<g>
		<path d="M229.499,372.159h-89.092v-93.604c0-18.685-15.148-33.832-33.832-33.832c-18.685,0-33.832,15.148-33.832,33.832v104.781
			c0,25.294,16.71,46.757,39.671,53.931v57.817c0,9.342,7.573,16.917,16.917,16.917s16.917-7.573,16.917-16.917v-55.26h50.549v55.26
			c0,9.342,7.573,16.917,16.917,16.917s16.917-7.573,16.917-16.917v-55.289c18.161-0.596,32.705-15.497,32.705-33.803
			C263.331,387.306,248.183,372.159,229.499,372.159z"/>
	</g>
</g>
<g>
</g>
<g>
</g>
<g>
</g>
<g>
</g>
<g>
</g>
<g>
</g>
<g>
</g>
<g>
</g>
<g>
</g>
<g>
</g>
<g>
</g>
<g>
</g>
<g>
</g>
<g>
</g>
<g>
</g>
</svg>
