<?xml version="1.0" encoding="iso-8859-1"?>
<!-- Generator: Adobe Illustrator 19.0.0, SVG Export Plug-In . SVG Version: 6.00 Build 0)  -->
<svg version="1.1" id="Layer_1" xmlns="http://www.w3.org/2000/svg" xmlns:xlink="http://www.w3.org/1999/xlink" x="0px" y="0px"
	 viewBox="0 0 512 512" style="enable-background:new 0 0 512 512;" xml:space="preserve">
<g>
	<g>
		<path d="M455.265,30.266h-63.39c-9.237,0-16.726,7.489-16.726,16.726c0,0.128,0.001,0.256,0.004,0.387
			c-0.058,12.203-6.72,22.37-14.608,30.145c-18.639-24.906-57.982-41.705-104.547-41.705s-85.908,16.799-104.547,41.705
			c-7.888-7.776-14.55-17.942-14.607-30.145c0.001-0.097,0.003-0.196,0.003-0.264c0.032-4.457-1.715-8.742-4.855-11.905
			s-7.413-4.943-11.871-4.943h-63.39c-9.237,0-16.726,7.489-16.726,16.726v107.448c22.089,0,417.42,0,431.984,0V46.991
			C471.991,37.754,464.502,30.266,455.265,30.266z"/>
	</g>
</g>
<g>
	<g>
		<path d="M40.009,412.665v52.344c0,9.237,7.489,16.726,16.726,16.726h398.531c9.237,0,16.726-7.489,16.726-16.726v-52.344
			C418.017,412.665,51.904,412.665,40.009,412.665z"/>
	</g>
</g>
<g>
	<g>
		<path d="M497.504,179.891H14.497C6.504,179.891,0,186.394,0,194.387v178.33c0,7.993,6.504,14.496,14.497,14.496h483.008
			c7.993,0,14.496-6.503,14.496-14.496v-178.33C512,186.394,505.497,179.891,497.504,179.891z M173.432,340.351
			c0,8.006-6.49,14.496-14.496,14.496H45.339c-8.006,0-14.496-6.49-14.496-14.496V226.752c0-8.006,6.49-14.496,14.496-14.496
			h113.598c8.006,0,14.496,6.49,14.496,14.496V340.351z M287.077,356.339h-62.155c-9.237,0-16.726-7.489-16.726-16.726
			c0-9.237,7.489-16.726,16.726-16.726h62.155c9.237,0,16.726,7.489,16.726,16.726C303.803,348.85,296.314,356.339,287.077,356.339z
			 M287.077,300.278h-62.155c-9.237,0-16.726-7.489-16.726-16.726c0-9.237,7.489-16.726,16.726-16.726h62.155
			c9.237,0,16.726,7.489,16.726,16.726C303.803,292.79,296.314,300.278,287.077,300.278z M287.077,246.655h-62.155
			c-9.237,0-16.726-7.489-16.726-16.726c0-9.237,7.489-16.726,16.726-16.726h62.155c9.237,0,16.726,7.489,16.726,16.726
			C303.803,239.166,296.314,246.655,287.077,246.655z M481.158,340.351h-0.001c0,8.006-6.49,14.496-14.496,14.496H353.064
			c-8.006,0-14.496-6.49-14.496-14.496V226.752c0-8.006,6.49-14.496,14.496-14.496h113.599c8.006,0,14.496,6.49,14.496,14.496
			V340.351z"/>
	</g>
</g>
<g>
	<g>
		<path d="M148.742,236.92c-6.532-6.53-17.123-6.529-23.653,0.003l-69.586,69.605c-6.531,6.533-6.53,17.123,0.003,23.655
			c6.532,6.53,17.123,6.53,23.653-0.003l69.586-69.604C155.276,254.042,155.275,243.452,148.742,236.92z"/>
	</g>
</g>
<g>
	<g>
		<path d="M456.481,236.92c-6.534-6.529-17.124-6.53-23.655,0.003l-69.584,69.605c-6.53,6.533-6.529,17.123,0.003,23.655
			c6.538,6.533,17.127,6.526,23.655-0.003l69.584-69.604C463.014,254.042,463.013,243.452,456.481,236.92z"/>
	</g>
</g>
<g>
</g>
<g>
</g>
<g>
</g>
<g>
</g>
<g>
</g>
<g>
</g>
<g>
</g>
<g>
</g>
<g>
</g>
<g>
</g>
<g>
</g>
<g>
</g>
<g>
</g>
<g>
</g>
<g>
</g>
</svg>
