<?xml version="1.0" encoding="iso-8859-1"?>
<!-- Generator: Adobe Illustrator 19.0.0, SVG Export Plug-In . SVG Version: 6.00 Build 0)  -->
<svg version="1.1" id="Layer_1" xmlns="http://www.w3.org/2000/svg" xmlns:xlink="http://www.w3.org/1999/xlink" x="0px" y="0px"
	 viewBox="0 0 511.999 511.999" style="enable-background:new 0 0 511.999 511.999;" xml:space="preserve">
<g>
	<g>
		<path d="M238.931,42.74H78.389c-9.295,0-16.831,7.536-16.831,16.831v21.268c5.049,0,172.053,0,177.414,0
			C238.965,74.102,238.969,78.061,238.931,42.74z"/>
	</g>
</g>
<g>
	<g>
		<path d="M416.78,407.296H311.838c-16.756,0-30.96-12.322-33.325-28.911l-5.596-39.248c0.079,72.097,0.062,56.137,0.142,130.122
			h160.551c9.295,0,16.831-7.536,16.831-16.831v-45.131H416.78z"/>
	</g>
</g>
<g>
	<g>
		<path d="M239.254,337.939l-5.766,40.446c-2.365,16.587-16.569,28.911-33.325,28.911H95.22H61.558v45.133
			c0,9.295,7.536,16.831,16.831,16.831h161.008C239.381,454.412,239.27,352.293,239.254,337.939z"/>
	</g>
</g>
<g>
	<g>
		<path d="M433.611,42.74H272.593c0.01,9.366,0.033,29.744,0.042,38.098c4.672,0,173.358,0,177.807,0V59.571
			C450.442,50.276,442.906,42.74,433.611,42.74z"/>
	</g>
</g>
<g>
	<g>
		<path d="M482.771,114.5h-210.1l0.171,156.212c15.346,5.248,26.812,17.468,28.953,32.482l10.042,70.438H482.77
			c16.143,0,29.229-11.404,29.229-25.471V139.971C512,125.903,498.915,114.5,482.771,114.5z M374.225,309.555
			c-47.613,0-86.35-38.737-86.35-86.35s38.736-86.35,86.35-86.35s86.35,38.736,86.35,86.35S421.838,309.555,374.225,309.555z"/>
	</g>
</g>
<g>
	<g>
		<path d="M374.225,170.517c-29.052,0-52.689,23.635-52.689,52.688c0,29.054,23.635,52.689,52.689,52.689
			s52.689-23.636,52.689-52.689C426.913,194.153,403.277,170.517,374.225,170.517z"/>
	</g>
</g>
<g>
	<g>
		<path d="M239.01,114.5H29.229C13.087,114.5,0,125.903,0,139.971v208.192c0,14.067,13.087,25.471,29.229,25.471h170.933
			l10.044-70.438c2.142-15.023,13.617-27.248,28.975-32.491L239.01,114.5z M137.776,309.555c-47.613,0-86.35-38.737-86.35-86.35
			s38.737-86.35,86.35-86.35s86.35,38.736,86.35,86.35S185.39,309.555,137.776,309.555z"/>
	</g>
</g>
<g>
	<g>
		<path d="M137.776,170.517c-29.052,0-52.689,23.635-52.689,52.688c0,29.054,23.636,52.689,52.689,52.689
			c29.052,0,52.689-23.636,52.689-52.689C190.465,194.153,166.829,170.517,137.776,170.517z"/>
	</g>
</g>
<g>
</g>
<g>
</g>
<g>
</g>
<g>
</g>
<g>
</g>
<g>
</g>
<g>
</g>
<g>
</g>
<g>
</g>
<g>
</g>
<g>
</g>
<g>
</g>
<g>
</g>
<g>
</g>
<g>
</g>
</svg>
