<?xml version="1.0" encoding="iso-8859-1"?>
<!-- Generator: Adobe Illustrator 19.0.0, SVG Export Plug-In . SVG Version: 6.00 Build 0)  -->
<svg version="1.1" id="Layer_1" xmlns="http://www.w3.org/2000/svg" xmlns:xlink="http://www.w3.org/1999/xlink" x="0px" y="0px"
	 viewBox="0 0 512 512" style="enable-background:new 0 0 512 512;" xml:space="preserve">
<g>
	<g>
		<path d="M495.413,0h-99.525C386.727,0,379.3,7.427,379.3,16.587s7.427,16.587,16.587,16.587h82.937v82.937
			c0,9.161,7.427,16.587,16.588,16.587S512,125.273,512,116.112V16.587C512,7.427,504.573,0,495.413,0z"/>
	</g>
</g>
<g>
	<g>
		<path d="M495.413,379.3c-9.161,0-16.588,7.427-16.588,16.587v82.937h-82.937c-9.161,0-16.587,7.427-16.587,16.588
			S386.727,512,395.888,512h99.525c9.161,0,16.587-7.427,16.587-16.587v-99.525C512,386.727,504.573,379.3,495.413,379.3z"/>
	</g>
</g>
<g>
	<g>
		<path d="M116.112,0H16.587C7.427,0,0,7.427,0,16.587v99.525c0,9.161,7.427,16.587,16.587,16.587s16.587-7.427,16.587-16.587
			V33.175h82.937c9.161,0,16.587-7.427,16.587-16.587S125.273,0,116.112,0z"/>
	</g>
</g>
<g>
	<g>
		<path d="M116.112,478.825H33.175v-82.937c0-9.161-7.427-16.587-16.587-16.587S0,386.727,0,395.888v99.525
			C0,504.573,7.427,512,16.587,512h99.525c9.161,0,16.587-7.427,16.587-16.587S125.273,478.825,116.112,478.825z"/>
	</g>
</g>
<g>
	<g>
		<path d="M428.916,66.35c-4.964,0-337.158,0-345.831,0c-9.242,0-16.734,7.492-16.734,16.734c0,11.761,0,342.729,0,345.83
			c0,9.244,7.492,16.736,16.734,16.736c11.761,0,342.73,0,345.831,0c9.243,0,16.735-7.492,16.735-16.735c0-11.76,0-342.729,0-345.83
			C445.65,73.842,438.158,66.35,428.916,66.35z M106.158,122.432c0-7.703,6.245-13.948,13.948-13.948h69.417
			c7.703,0,13.948,6.245,13.948,13.948v69.417c0,7.703-6.245,13.948-13.948,13.948h-69.417c-7.703,0-13.948-6.245-13.948-13.948
			V122.432z M203.475,389.568c0,7.703-6.245,13.948-13.948,13.948H120.11c-7.703,0-13.948-6.245-13.948-13.948V320.15
			c0-7.703,6.245-13.948,13.948-13.948h69.417c7.703,0,13.948,6.245,13.948,13.948V389.568z M308.525,122.432
			c0-7.703,6.245-13.948,13.948-13.948h69.417c7.703,0,13.948,6.245,13.948,13.948v69.417c0,7.703-6.245,13.948-13.948,13.948
			h-69.417c-7.703,0-13.948-6.245-13.948-13.948V122.432z M405.842,389.568c0,7.703-6.245,13.948-13.948,13.948h-69.417
			c-7.703,0-13.948-6.245-13.948-13.948V320.15c0-7.703,6.245-13.948,13.948-13.948h69.417c7.703,0,13.948,6.245,13.948,13.948
			V389.568z"/>
	</g>
</g>
<g>
</g>
<g>
</g>
<g>
</g>
<g>
</g>
<g>
</g>
<g>
</g>
<g>
</g>
<g>
</g>
<g>
</g>
<g>
</g>
<g>
</g>
<g>
</g>
<g>
</g>
<g>
</g>
<g>
</g>
</svg>
