<?xml version="1.0" encoding="iso-8859-1"?>
<!-- Generator: Adobe Illustrator 19.0.0, SVG Export Plug-In . SVG Version: 6.00 Build 0)  -->
<svg version="1.1" id="Layer_1" xmlns="http://www.w3.org/2000/svg" xmlns:xlink="http://www.w3.org/1999/xlink" x="0px" y="0px"
	 viewBox="0 0 512 512" style="enable-background:new 0 0 512 512;" xml:space="preserve">
<g>
	<g>
		<path d="M431.089,89.299c-9.336-9.336-19.294-17.819-29.766-25.441c0.013,0.472,0.036,0.942,0.036,1.416
			c0,12.772-1.662,25.162-4.771,36.972c45.375,39.395,74.114,97.475,74.114,162.141c0,118.386-96.315,214.701-214.701,214.701
			S41.299,382.774,41.299,264.388c0-64.667,28.738-122.746,74.113-162.14c-3.109-11.81-4.771-24.2-4.771-36.972
			c0-0.475,0.022-0.945,0.036-1.416c-10.472,7.623-20.43,16.105-29.766,25.441C34.143,136.067,8.388,198.248,8.388,264.389
			s25.757,128.32,72.525,175.088C127.68,486.244,189.861,512,256,512s128.321-25.756,175.089-72.524s72.524-108.949,72.524-175.089
			S477.857,136.066,431.089,89.299z"/>
	</g>
</g>
<g>
	<g>
		<path d="M389.593,122.539c-4.521,10.507-10.241,20.378-16.996,29.439c28.121,29.158,45.446,68.797,45.446,112.409
			c0,89.351-72.692,162.043-162.043,162.043S93.957,353.739,93.957,264.388c0-43.612,17.324-83.25,45.446-112.409
			c-6.755-9.06-12.476-18.933-16.996-29.438c-37.752,35.575-61.361,86.004-61.361,141.847c0,107.499,87.456,194.955,194.954,194.955
			c107.499,0,194.955-87.456,194.955-194.955C450.955,208.543,427.345,158.115,389.593,122.539z"/>
	</g>
</g>
<g>
	<g>
		<path d="M351.991,48.818h-91.877V16.456c0-0.185-0.021-0.365-0.028-0.548C259.795,7.075,252.561,0,243.658,0h-53.755
			c-8.903,0-16.137,7.075-16.428,15.907c-0.006,0.184-0.028,0.363-0.028,0.548v32.362h-13.439c-9.088,0-16.456,7.368-16.456,16.456
			c0,36.463,17.449,68.922,44.43,89.481c0,3.903,0,178.271,0,182.038c0,37.505,30.512,68.016,68.016,68.016
			s68.016-30.513,68.016-68.016c0-3.768,0-178.135,0-182.038c26.981-20.559,44.43-53.018,44.43-89.479
			C368.447,56.186,361.079,48.818,351.991,48.818z M256,179.41c-21.046,0-38.103-17.063-38.103-38.103
			c0-21.166,17.211-38.103,38.103-38.103c20.894,0,38.103,16.94,38.103,38.103C294.103,162.35,277.043,179.41,256,179.41z"/>
	</g>
</g>
<g>
</g>
<g>
</g>
<g>
</g>
<g>
</g>
<g>
</g>
<g>
</g>
<g>
</g>
<g>
</g>
<g>
</g>
<g>
</g>
<g>
</g>
<g>
</g>
<g>
</g>
<g>
</g>
<g>
</g>
</svg>
