<?xml version="1.0" encoding="iso-8859-1"?>
<!-- Generator: Adobe Illustrator 19.0.0, SVG Export Plug-In . SVG Version: 6.00 Build 0)  -->
<svg version="1.1" id="Layer_1" xmlns="http://www.w3.org/2000/svg" xmlns:xlink="http://www.w3.org/1999/xlink" x="0px" y="0px"
	 viewBox="0 0 511.999 511.999" style="enable-background:new 0 0 511.999 511.999;" xml:space="preserve">
<g>
	<g>
		<path d="M478.951,152.434c-5.797-6.05-14.822-7.116-21.775-3.12c6.996-8.267,6.759-20.65-0.898-28.643
			c-6.576-6.864-16.616-8.39-24.743-4.489c6.33-8.25,5.895-20.095-1.521-27.835c-7.852-8.199-20.639-8.776-29.212-1.59l50.18-50.179
			c8.368-8.368,8.368-21.934,0-30.302s-21.935-8.368-30.304,0l-97.796,97.796l1.037-55.984c0.22-11.832-9.195-21.601-21.027-21.821
			c-11.839-0.213-21.602,9.194-21.821,21.027l-1.86,100.451l-19.091,19.091c-11.185,11.185-11.185,29.318,0,40.503l5.3,5.299
			l-41.28,41.28c12.419,12.42,50.671,50.671,62.032,62.032l41.281-41.281l5.299,5.3c11.185,11.185,29.318,11.185,40.503,0
			l32.221-32.223c-5.393-2.159-10.344-5.399-14.565-9.62c-0.229-0.229-0.454-0.458-0.683-0.697c-4.2-4.384-7.313-9.474-9.321-14.9
			c-6.622-2.301-12.688-6.086-17.783-11.181c-0.255-0.254-0.505-0.51-0.754-0.771c-5.909-6.179-9.989-13.809-11.874-22.042
			c-5.012-2.301-9.626-5.5-13.635-9.51c-0.25-0.25-0.495-0.501-0.739-0.756c-8.703-9.092-13.347-21.027-13.077-33.611
			c0.27-12.59,5.427-24.319,14.521-33.031c1.931-1.85,2.541-2.154,11.661-8.411c9.927-6.81,23.213-5.834,32.062,2.421
			l-25.935,24.559h-0.001c-8.547,8.186-8.837,21.751-0.65,30.297c0.108,0.114,0.217,0.225,0.328,0.336
			c6.535,6.534,16.368,8.016,24.417,4.149c-6.334,8.25-5.899,20.098,1.518,27.839c0.108,0.114,0.217,0.225,0.328,0.336
			c7.133,7.133,18.118,8.203,26.413,3.062c-5.461,6.883-5.158,16.904,1.09,23.425c0.09,0.095,0.182,0.187,0.273,0.28
			c6.844,6.844,17.943,6.998,24.973,0.263c12.047-13.065,44.368-42.502,44.368-42.502
			C485.53,170.859,485.773,159.557,478.951,152.434z"/>
	</g>
</g>
<g>
	<g>
		<path d="M63.26,414.792l-30.857,30.859c-5.757,5.756-5.757,15.089,0,20.845l41.186,41.186c5.757,5.756,15.089,5.756,20.845,0
			l30.858-30.858L63.26,414.792z"/>
	</g>
</g>
<g>
	<g>
		<path d="M268.358,344.871l-13.844-13.844c-11.716,11.715-30.709,11.715-42.425,0c-11.715-11.715-11.715-30.709,0-42.425
			l-13.844-13.844c-4.349-4.347-11.399-4.349-15.747,0l-98.396,98.396c-4.349,4.349-4.349,11.399,0,15.747l70.113,70.113
			c4.35,4.35,11.399,4.349,15.747,0l98.396-98.396C272.706,356.269,272.706,349.219,268.358,344.871z M157.543,411.836
			c-7.252,7.252-19.011,7.252-26.263,0c-7.252-7.252-7.252-19.011,0-26.263c7.252-7.252,19.011-7.252,26.263,0
			C164.796,392.826,164.796,404.583,157.543,411.836z"/>
	</g>
</g>
<g>
</g>
<g>
</g>
<g>
</g>
<g>
</g>
<g>
</g>
<g>
</g>
<g>
</g>
<g>
</g>
<g>
</g>
<g>
</g>
<g>
</g>
<g>
</g>
<g>
</g>
<g>
</g>
<g>
</g>
</svg>
