<?xml version="1.0" encoding="iso-8859-1"?>
<!-- Generator: Adobe Illustrator 19.0.0, SVG Export Plug-In . SVG Version: 6.00 Build 0)  -->
<svg version="1.1" id="Layer_1" xmlns="http://www.w3.org/2000/svg" xmlns:xlink="http://www.w3.org/1999/xlink" x="0px" y="0px"
	 viewBox="0 0 512 512" style="enable-background:new 0 0 512 512;" xml:space="preserve">
<g>
	<g>
		<path d="M390.414,61.198H91.526C41.059,61.198,0,102.257,0,152.724c0,9.241,7.492,16.732,16.732,16.732h373.682
			c9.241,0,16.732-7.491,16.732-16.732V77.93C407.146,68.689,399.654,61.198,390.414,61.198z"/>
	</g>
</g>
<g>
	<g>
		<path d="M495.268,228.928h-88.122v-20.43c0-9.241-7.491-16.732-16.732-16.732H16.732C7.491,191.766,0,199.257,0,208.498V434.07
			c0,9.241,7.492,16.732,16.732,16.732h116.196c0-0.041-0.003-0.083-0.003-0.124c0-38.884,31.646-70.648,70.648-70.648
			c38.993,0,70.648,31.755,70.648,70.648c0,0.041-0.003,0.083-0.003,0.124h116.196c9.241,0,16.732-7.492,16.732-16.732v-20.43
			h88.122c9.241,0,16.732-7.491,16.732-16.732V245.66C512,236.419,504.508,228.928,495.268,228.928z M70.832,405.502
			c0,9.237-7.488,16.732-16.732,16.732c-9.237,0-16.732-7.488-16.732-16.732V237.066c0-9.237,7.489-16.732,16.732-16.732
			c9.234,0,16.732,7.486,16.732,16.732V405.502z M233.691,253.456h-60.235c-9.241,0-16.732-7.492-16.732-16.732
			c0-9.164,7.471-16.732,16.732-16.732h60.235c9.217,0,16.732,7.523,16.732,16.732C250.423,245.964,242.931,253.456,233.691,253.456
			z M369.778,405.502c0,9.236-7.487,16.732-16.732,16.732c-9.235,0-16.732-7.487-16.732-16.732V237.066
			c0-9.237,7.489-16.732,16.732-16.732c9.236,0,16.732,7.488,16.732,16.732V405.502z M461.43,345.082
			c-13.144,0-23.799-10.655-23.799-23.799s10.655-23.798,23.799-23.798c13.109,0,23.799,10.678,23.799,23.798
			C485.229,334.391,474.553,345.082,461.43,345.082z"/>
	</g>
</g>
<g>
</g>
<g>
</g>
<g>
</g>
<g>
</g>
<g>
</g>
<g>
</g>
<g>
</g>
<g>
</g>
<g>
</g>
<g>
</g>
<g>
</g>
<g>
</g>
<g>
</g>
<g>
</g>
<g>
</g>
</svg>
