<?xml version="1.0" encoding="iso-8859-1"?>
<!-- Generator: Adobe Illustrator 19.0.0, SVG Export Plug-In . SVG Version: 6.00 Build 0)  -->
<svg version="1.1" id="Layer_1" xmlns="http://www.w3.org/2000/svg" xmlns:xlink="http://www.w3.org/1999/xlink" x="0px" y="0px"
	 viewBox="0 0 512 512" style="enable-background:new 0 0 512 512;" xml:space="preserve">
<g>
	<g>
		<path d="M495.041,288.788c-9.366,0-16.959,7.593-16.959,16.959v39.572h-44.572V210.775c0-18.703-15.216-33.919-33.919-33.919
			h-72.4v-74.622H184.81v74.622h-72.4c-18.703,0-33.919,15.216-33.919,33.919V345.32H33.919v-39.572
			c0-9.366-7.593-16.959-16.96-16.959C7.593,288.788,0,296.382,0,305.748v163.942c0,9.366,7.593,16.959,16.959,16.959H95.45
			c9.366,0,16.959-7.593,16.959-16.959c0-9.366-7.593-16.96-16.959-16.96H33.919v-73.491h44.572v1.131
			c0,18.703,15.216,33.919,33.919,33.919H399.59c18.703,0,33.919-15.216,33.919-33.919v-1.131h44.572v73.491H416.55
			c-9.366,0-16.96,7.593-16.96,16.96c0,9.366,7.593,16.959,16.96,16.959h78.491c9.366,0,16.959-7.593,16.959-16.959V305.748
			C512,296.382,504.407,288.788,495.041,288.788z M305.078,243.563h-98.157c-9.366,0-16.959-7.593-16.959-16.959
			s7.593-16.959,16.959-16.959h98.157c9.366,0,16.959,7.593,16.959,16.959S314.445,243.563,305.078,243.563z"/>
	</g>
</g>
<g>
	<g>
		<path d="M310.232,25.351H201.769c-9.366,0-16.959,7.593-16.959,16.959v26.005h142.382V42.311
			C327.191,32.944,319.598,25.351,310.232,25.351z"/>
	</g>
</g>
<g>
</g>
<g>
</g>
<g>
</g>
<g>
</g>
<g>
</g>
<g>
</g>
<g>
</g>
<g>
</g>
<g>
</g>
<g>
</g>
<g>
</g>
<g>
</g>
<g>
</g>
<g>
</g>
<g>
</g>
</svg>
