<?xml version="1.0" encoding="iso-8859-1"?>
<!-- Generator: Adobe Illustrator 19.0.0, SVG Export Plug-In . SVG Version: 6.00 Build 0)  -->
<svg version="1.1" id="Layer_1" xmlns="http://www.w3.org/2000/svg" xmlns:xlink="http://www.w3.org/1999/xlink" x="0px" y="0px"
	 viewBox="0 0 512.001 512.001" style="enable-background:new 0 0 512.001 512.001;" xml:space="preserve">
<g>
	<g>
		<path d="M470.108,50.868c-1.664-4.07-4.893-7.301-8.963-8.965C393.162,14.098,324.142,0,256.001,0S118.839,14.098,50.858,41.903
			c-4.07,1.665-7.3,4.894-8.963,8.965C14.74,117.293,0.008,186.339,0.001,256.009c0,0.001,0,0.002,0,0.003
			c-0.005,69.619,14.731,138.765,41.852,205.139c1.664,4.073,4.896,7.305,8.969,8.969c70.185,28.687,139.312,41.882,205.179,41.882
			c65.864,0,134.992-13.194,205.179-41.882c4.073-1.664,7.305-4.896,8.969-8.969c28.438-69.596,41.858-138.66,41.852-205.139
			c0-0.002,0-0.002,0-0.003C511.993,187.749,497.847,118.723,470.108,50.868z M169.409,40.794
			c23.454-4.324,46.886-6.905,70.208-7.73v85.48c-27.16,0.342-54.315,1.539-81.443,3.578
			C161.045,94.964,164.786,67.846,169.409,40.794z M155.097,155.218c28.15-2.239,56.333-3.538,84.52-3.902v88.31
			c-29.472,0-58.944-0.001-88.416,0C151.565,211.476,152.862,183.33,155.097,155.218z M40.885,169.496
			c26.982-4.606,54.029-8.335,81.115-11.2c-2.036,27.09-3.231,54.208-3.573,81.33c-28.379,0.001-56.757-0.002-85.137,0
			C34.098,216.237,36.629,192.853,40.885,169.496z M40.902,342.719c-4.273-23.423-6.809-46.871-7.614-70.326
			c28.379-0.002,56.759,0.001,85.138,0c0.341,27.192,1.54,54.378,3.584,81.537C94.925,351.062,67.881,347.33,40.902,342.719z
			 M69.617,442.358c-8.56-21.681-15.614-43.413-21.171-65.178c25.447,4.087,50.945,7.435,76.478,10.013
			c2.574,25.513,5.917,50.991,9.997,76.419C113.114,458.016,91.322,450.93,69.617,442.358z M124.913,125.034
			c-25.537,2.576-51.041,5.921-76.491,10.005c5.569-21.831,12.643-43.63,21.235-65.378c21.697-8.575,43.481-15.664,65.283-21.263
			C130.845,73.897,127.493,99.449,124.913,125.034z M239.618,478.938c-23.33-0.826-46.768-3.406-70.227-7.727
			c-4.607-26.977-8.337-54.019-11.203-81.101c27.123,2.041,54.274,3.24,81.431,3.582V478.938z M239.618,360.918
			c-28.185-0.364-56.363-1.665-84.51-3.906c-2.245-28.182-3.546-56.397-3.908-84.618c29.473-0.001,58.945,0,88.418,0V360.918z
			 M471.116,169.496c4.257,23.358,6.787,46.741,7.595,70.13c-28.379-0.002-56.757,0.001-85.137,0
			c-0.342-27.123-1.537-54.24-3.573-81.33C417.088,161.161,444.135,164.89,471.116,169.496z M272.385,33.064
			c23.322,0.825,46.753,3.406,70.208,7.729c4.621,27.052,8.362,54.17,11.235,81.328c-27.128-2.039-54.282-3.236-81.443-3.578V33.064
			z M272.385,151.316c28.187,0.364,56.37,1.662,84.52,3.902c2.235,28.113,3.532,56.258,3.896,84.408
			c-29.471-0.001-58.943,0-88.416,0V151.316z M342.612,471.21c-23.461,4.322-46.899,6.902-70.227,7.727v-85.246
			c27.156-0.342,54.306-1.54,81.431-3.582C350.949,417.191,347.219,444.234,342.612,471.21z M356.895,357.012
			c-28.147,2.241-56.326,3.542-84.511,3.906v-88.524c29.473,0,58.945-0.001,88.418,0
			C360.44,300.615,359.138,328.829,356.895,357.012z M442.346,69.661c8.591,21.748,15.664,43.546,21.235,65.378
			c-25.451-4.084-50.954-7.429-76.491-10.005c-2.58-25.585-5.932-51.137-10.026-76.636
			C398.865,53.997,420.649,61.085,442.346,69.661z M442.385,442.358c-21.704,8.573-43.496,15.659-65.304,21.254
			c4.08-25.427,7.422-50.906,9.997-76.419c25.533-2.578,51.032-5.927,76.478-10.013
			C457.998,398.945,450.945,420.677,442.385,442.358z M471.1,342.719c-26.979,4.61-54.023,8.343-81.107,11.211
			c2.044-27.158,3.243-54.345,3.584-81.537c28.379,0.001,56.759-0.002,85.138,0C477.909,295.848,475.371,319.297,471.1,342.719z"/>
	</g>
</g>
<g>
</g>
<g>
</g>
<g>
</g>
<g>
</g>
<g>
</g>
<g>
</g>
<g>
</g>
<g>
</g>
<g>
</g>
<g>
</g>
<g>
</g>
<g>
</g>
<g>
</g>
<g>
</g>
<g>
</g>
</svg>
