<?xml version="1.0" encoding="iso-8859-1"?>
<!-- Generator: Adobe Illustrator 19.0.0, SVG Export Plug-In . SVG Version: 6.00 Build 0)  -->
<svg version="1.1" id="Layer_1" xmlns="http://www.w3.org/2000/svg" xmlns:xlink="http://www.w3.org/1999/xlink" x="0px" y="0px"
	 viewBox="0 0 512 512" style="enable-background:new 0 0 512 512;" xml:space="preserve">
<g>
	<g>
		<path d="M458.458,59.12h-24.54c-9.241,0-16.732,7.492-16.732,16.732v10.039H94.815V75.852c0-9.241-7.492-16.732-16.732-16.732
			h-24.54C24.019,59.12,0,83.139,0,112.662v133.856h233.172c-15.415-3.949-26.81-17.933-26.81-34.58
			c0-19.714,15.981-35.695,35.695-35.695h122.702c19.714,0,35.695,15.981,35.695,35.695c0,16.646-11.396,30.631-26.81,34.58H512
			V112.662C512,83.139,487.981,59.12,458.458,59.12z M417.185,141.664H94.815v-22.309h322.37V141.664z M455.954,234.4
			c-12.014,0-21.752-9.738-21.752-21.752s9.738-21.752,21.752-21.752s21.752,9.738,21.752,21.752S467.968,234.4,455.954,234.4z"/>
	</g>
</g>
<g>
	<g>
		<path d="M0,279.983v119.355c0,29.523,24.019,53.542,53.542,53.542h404.915c29.523,0,53.542-24.019,53.542-53.542V279.983H0z"/>
	</g>
</g>
<g>
	<g>
		<circle cx="247.924" cy="211.939" r="20.364"/>
	</g>
</g>
<g>
	<g>
		<circle cx="362.817" cy="211.939" r="13.386"/>
	</g>
</g>
<g>
</g>
<g>
</g>
<g>
</g>
<g>
</g>
<g>
</g>
<g>
</g>
<g>
</g>
<g>
</g>
<g>
</g>
<g>
</g>
<g>
</g>
<g>
</g>
<g>
</g>
<g>
</g>
<g>
</g>
</svg>
