<?xml version="1.0" encoding="iso-8859-1"?>
<!-- Generator: Adobe Illustrator 19.0.0, SVG Export Plug-In . SVG Version: 6.00 Build 0)  -->
<svg version="1.1" id="Layer_1" xmlns="http://www.w3.org/2000/svg" xmlns:xlink="http://www.w3.org/1999/xlink" x="0px" y="0px"
	 viewBox="0 0 511.999 511.999" style="enable-background:new 0 0 511.999 511.999;" xml:space="preserve">
<g>
	<g>
		<path d="M231.798,121.305c-0.994-6.347-5.515-11.573-11.653-13.469c-32.808-10.14-66.116-15.28-98.998-15.28
			c-32.882,0-66.19,5.141-98.998,15.28c-6.137,1.896-10.659,7.123-11.653,13.469c-13.996,89.376-13.996,180.012,0,269.389
			c0.994,6.346,5.515,11.572,11.653,13.469c32.808,10.14,66.116,15.28,98.998,15.28c32.882,0,66.19-5.141,98.998-15.28
			c6.137-1.896,10.659-7.123,11.653-13.469C245.794,301.318,245.794,210.682,231.798,121.305z M185.113,320.001h-47.144v30.852
			c0,9.29-7.531,16.821-16.821,16.821s-16.821-7.531-16.821-16.821v-30.852H57.183c-13.039,0-21.128-14.245-14.444-25.442
			l38.059-63.755c-8.535-4.481-11.557-15.212-6.643-23.483l32.53-54.765c3.031-5.104,8.527-8.231,14.462-8.231
			s11.43,3.128,14.462,8.231l32.105,54.05c5.474,8.23,2.694,19.539-6.211,24.211l38.054,63.743
			C206.239,305.754,198.154,320.001,185.113,320.001z"/>
	</g>
</g>
<g>
	<g>
		<path d="M501.502,121.305c-0.994-6.346-5.515-11.572-11.653-13.469c-32.808-10.14-66.116-15.28-98.998-15.28
			s-66.19,5.141-98.998,15.28c-6.138,1.896-10.659,7.123-11.653,13.469c-13.996,89.376-13.996,180.012,0,269.389
			c0.994,6.346,5.515,11.572,11.653,13.469c32.808,10.14,66.116,15.28,98.998,15.28s66.19-5.141,98.998-15.28
			c6.137-1.896,10.659-7.123,11.653-13.469C515.498,301.317,515.498,210.681,501.502,121.305z M454.817,320.001h-47.144v30.852
			c0,9.29-7.531,16.821-16.821,16.821c-9.29,0-16.821-7.531-16.821-16.821v-30.852h-47.144c-13.039,0-21.128-14.245-14.444-25.442
			l38.059-63.755c-8.535-4.481-11.557-15.212-6.643-23.483l32.53-54.765c3.031-5.104,8.527-8.231,14.462-8.231
			c5.935,0,11.431,3.128,14.462,8.231l32.105,54.05c5.474,8.23,2.694,19.539-6.211,24.211l38.054,63.743
			C475.943,305.754,467.858,320.001,454.817,320.001z"/>
	</g>
</g>
<g>
</g>
<g>
</g>
<g>
</g>
<g>
</g>
<g>
</g>
<g>
</g>
<g>
</g>
<g>
</g>
<g>
</g>
<g>
</g>
<g>
</g>
<g>
</g>
<g>
</g>
<g>
</g>
<g>
</g>
</svg>
