<?xml version="1.0" encoding="iso-8859-1"?>
<!-- Generator: Adobe Illustrator 19.0.0, SVG Export Plug-In . SVG Version: 6.00 Build 0)  -->
<svg version="1.1" id="Layer_1" xmlns="http://www.w3.org/2000/svg" xmlns:xlink="http://www.w3.org/1999/xlink" x="0px" y="0px"
	 viewBox="0 0 511.999 511.999" style="enable-background:new 0 0 511.999 511.999;" xml:space="preserve">
<g>
	<g>
		<path d="M391.375,107.04c-26.719-47.457-77.58-79.586-135.811-79.586c-58.333,0-109.268,32.24-135.95,79.833
			C51.102,123.626,0,185.35,0,258.794c0,74.804,53.011,137.45,123.437,152.368c27.547,44.031,76.47,73.382,132.126,73.382
			c55.564,0,104.417-29.255,131.99-73.163c70.929-14.529,124.446-77.426,124.446-152.587
			C512,184.989,460.396,123.009,391.375,107.04z M105.553,370.716c-42.684-19.218-72.475-62.156-72.475-111.922
			c0-49.128,29.035-91.596,70.842-111.166c-8.325,35.5-4.168,74.169,13.992,108.371C98.716,292.148,95.114,333.408,105.553,370.716z
			 M255.564,60.532c37.118,0,70.436,16.575,92.95,42.707c-35.139,1.728-67.247,15.161-92.514,36.465
			c-25.469-21.475-57.89-34.944-93.359-36.497C185.154,77.092,218.461,60.532,255.564,60.532z M297.981,259.536
			c0,23.589-19.162,42.533-42.533,42.533c-23.394,0-42.533-18.969-42.533-42.533c0-23.576,19.166-42.533,42.533-42.533
			C278.82,217.003,297.981,235.947,297.981,259.536z M141.975,136.902c32.172-3.612,64.918,5.431,91.079,26.722
			c-3.304,4.268-6.055,8.254-8.81,12.617c-31.854,6.525-61.383,22.899-84.225,48.155
			C130.074,196.587,130.363,165.286,141.975,136.902z M144.549,380.948c-13.924-29.521-15.305-63.219-4.531-93.344
			c21.417,23.682,49.392,40.178,80.416,47.34c3.732,6.636,7.971,13.018,12.62,19.021
			C209.009,373.533,177.717,383.965,144.549,380.948z M255.564,451.467c-34.521,0-65.751-14.339-88.064-37.365
			c33.568-2.516,64.198-15.726,88.5-36.216c24.106,20.326,54.441,33.483,87.693,36.149
			C321.374,437.101,290.118,451.467,255.564,451.467z M366.541,381.029c-31.933,2.665-63.05-7.089-87.594-27.064
			c6.35-8.203,9.678-14.007,12.761-19.273c30.146-7.174,57.809-23.211,79.403-47.088
			C381.656,317.095,380.795,350.866,366.541,381.029z M371.111,224.395c-22.083-24.417-50.971-41.115-83.219-47.94
			c-1.801-2.971-5.368-8.211-8.945-12.831c25.367-20.644,57.599-30.234,90.163-26.827
			C380.588,164.779,381.225,196.108,371.111,224.395z M405.457,371.151c10.588-37.418,7.022-78.873-12.242-115.151
			c18.26-34.388,22.345-73.234,13.88-108.831c42.336,19.36,71.827,62.112,71.827,111.627
			C478.921,308.944,448.668,352.153,405.457,371.151z"/>
	</g>
</g>
<g>
</g>
<g>
</g>
<g>
</g>
<g>
</g>
<g>
</g>
<g>
</g>
<g>
</g>
<g>
</g>
<g>
</g>
<g>
</g>
<g>
</g>
<g>
</g>
<g>
</g>
<g>
</g>
<g>
</g>
</svg>
