<?xml version="1.0" encoding="iso-8859-1"?>
<!-- Generator: Adobe Illustrator 19.0.0, SVG Export Plug-In . SVG Version: 6.00 Build 0)  -->
<svg version="1.1" id="Layer_1" xmlns="http://www.w3.org/2000/svg" xmlns:xlink="http://www.w3.org/1999/xlink" x="0px" y="0px"
	 viewBox="0 0 512 512" style="enable-background:new 0 0 512 512;" xml:space="preserve">
<g>
	<g>
		<path d="M495.66,201.532h-15.251V92.596c0-21.057-17.07-38.128-38.128-38.128H38.128C17.07,54.468,0,71.538,0,92.596v326.808
			c0,21.057,17.07,38.128,38.128,38.128h404.153c21.057,0,38.128-17.07,38.128-38.128V310.468h15.251
			c9.024,0,16.34-7.316,16.34-16.34v-76.255C512,208.848,504.684,201.532,495.66,201.532z M409.6,370.383
			c0,9.024-7.316,16.34-16.34,16.34H87.149c-9.024,0-16.34-7.316-16.34-16.34V140.528c0-9.024,7.316-16.34,16.34-16.34H393.26
			c9.024,0,16.34,7.316,16.34,16.34v61.004h-32.681v-39.217c0-3.008-2.439-5.447-5.447-5.447H108.936
			c-3.008,0-5.447,2.439-5.447,5.447v186.281c0,3.008,2.439,5.447,5.447,5.447h262.536c3.008,0,5.447-2.439,5.447-5.447v-38.128
			H409.6V370.383z M479.319,277.787c-13.502,0-102.744,0-116.599,0c-12.013,0-21.787-9.774-21.787-21.787
			c0-12.013,9.774-21.787,21.787-21.787c13.54,0,103.086,0,116.599,0V277.787z"/>
	</g>
</g>
<g>
</g>
<g>
</g>
<g>
</g>
<g>
</g>
<g>
</g>
<g>
</g>
<g>
</g>
<g>
</g>
<g>
</g>
<g>
</g>
<g>
</g>
<g>
</g>
<g>
</g>
<g>
</g>
<g>
</g>
</svg>
