<?xml version="1.0" encoding="iso-8859-1"?>
<!-- Generator: Adobe Illustrator 19.0.0, SVG Export Plug-In . SVG Version: 6.00 Build 0)  -->
<svg version="1.1" id="Layer_1" xmlns="http://www.w3.org/2000/svg" xmlns:xlink="http://www.w3.org/1999/xlink" x="0px" y="0px"
	 viewBox="0 0 512 512" style="enable-background:new 0 0 512 512;" xml:space="preserve">
<g>
	<g>
		<path d="M256,126.259c-34.505,0-62.578,28.072-62.578,62.578c0,34.412,27.835,62.578,62.578,62.578
			c34.817,0,62.578-28.217,62.578-62.578C318.578,154.332,290.505,126.259,256,126.259z"/>
	</g>
</g>
<g>
	<g>
		<path d="M447.147,0H64.853c-9.425,0-17.067,7.641-17.067,17.067v477.867c0,9.425,7.641,17.067,17.067,17.067h382.293
			c9.425,0,17.067-7.641,17.067-17.067V17.067C464.213,7.641,456.572,0,447.147,0z M329.956,251.119v151.238
			c0,16.133-18.648,23.007-29.134,12.519l-40.798-40.798c-2.222-2.222-5.823-2.222-8.045,0l-40.798,40.798
			c-10.544,10.545-29.135,3.529-29.135-12.475V251.119c-53.315-63.16-7.035-160.118,75.308-158.984
			C338.84,93.258,382.334,189.07,329.956,251.119z"/>
	</g>
</g>
<g>
</g>
<g>
</g>
<g>
</g>
<g>
</g>
<g>
</g>
<g>
</g>
<g>
</g>
<g>
</g>
<g>
</g>
<g>
</g>
<g>
</g>
<g>
</g>
<g>
</g>
<g>
</g>
<g>
</g>
</svg>
