<?xml version="1.0" encoding="iso-8859-1"?>
<!-- Generator: Adobe Illustrator 19.0.0, SVG Export Plug-In . SVG Version: 6.00 Build 0)  -->
<svg version="1.1" id="Layer_1" xmlns="http://www.w3.org/2000/svg" xmlns:xlink="http://www.w3.org/1999/xlink" x="0px" y="0px"
	 viewBox="0 0 512 512" style="enable-background:new 0 0 512 512;" xml:space="preserve">
<g>
	<g>
		<path d="M473.877,84.97H38.123C17.102,84.97,0,102.072,0,123.093v265.814c0,21.02,17.102,38.122,38.123,38.122h435.753
			c21.021,0,38.123-17.102,38.123-38.123V123.093C512,102.072,494.898,84.97,473.877,84.97z M109.548,239.66h16.217
			c48.197,0,55.39,69.947,8.227,79.766v16.098c0,9.024-7.316,16.34-16.34,16.34s-16.34-7.316-16.34-16.34v-15.251H84.97
			c-9.024,0-16.34-7.316-16.34-16.34c0-9.024,7.316-16.34,16.34-16.34h40.794c10.077,0,10.079-15.251,0-15.251h-16.217
			c-48.18,0-55.397-69.93-8.238-79.764v-16.1c0-9.024,7.316-16.34,16.34-16.34c9.024,0,16.34,7.316,16.34,16.34v15.251h16.34
			c9.024,0,16.34,7.316,16.34,16.34c0,9.024-7.316,16.34-16.34,16.34h-40.784C99.472,224.408,99.47,239.66,109.548,239.66z
			 M332.255,335.523H238.57c-9.024,0-16.34-7.316-16.34-16.34s7.316-16.34,16.34-16.34h93.685c9.024,0,16.34,7.316,16.34,16.34
			S341.28,335.523,332.255,335.523z M427.03,273.43H238.57c-9.024,0-16.34-7.316-16.34-16.34c0-9.024,7.316-16.34,16.34-16.34
			h188.46c9.024,0,16.34,7.316,16.34,16.34C443.37,266.114,436.054,273.43,427.03,273.43z M427.03,209.157H238.57
			c-9.024,0-16.34-7.316-16.34-16.34c0-9.024,7.316-16.34,16.34-16.34h188.46c9.024,0,16.34,7.316,16.34,16.34
			C443.37,201.841,436.054,209.157,427.03,209.157z"/>
	</g>
</g>
<g>
</g>
<g>
</g>
<g>
</g>
<g>
</g>
<g>
</g>
<g>
</g>
<g>
</g>
<g>
</g>
<g>
</g>
<g>
</g>
<g>
</g>
<g>
</g>
<g>
</g>
<g>
</g>
<g>
</g>
</svg>
