<?xml version="1.0" encoding="iso-8859-1"?>
<!-- Generator: Adobe Illustrator 19.0.0, SVG Export Plug-In . SVG Version: 6.00 Build 0)  -->
<svg version="1.1" id="Layer_1" xmlns="http://www.w3.org/2000/svg" xmlns:xlink="http://www.w3.org/1999/xlink" x="0px" y="0px"
	 viewBox="0 0 512.001 512.001" style="enable-background:new 0 0 512.001 512.001;" xml:space="preserve">
<g>
	<g>
		<path d="M484.541,46.797H272.325V16.753c0-8.38-6.139-15.731-14.468-16.651c-9.847-1.086-18.181,6.595-18.181,16.222v30.472H27.46
			c-9.015,0-16.324,7.309-16.324,16.324v342.811c0,9.015,7.309,16.324,16.324,16.324h200.486l-37.674,65.255
			c-4.509,7.807-1.834,17.791,5.975,22.299c7.806,4.509,17.791,1.833,22.299-5.975L256,438.961l37.456,64.875
			c4.508,7.807,14.491,10.482,22.299,5.975s10.483-14.492,5.975-22.299l-37.674-65.255h200.486c9.015,0,16.324-7.309,16.324-16.324
			V63.121C500.866,54.106,493.557,46.797,484.541,46.797z M181.997,355.871c0,9.015-7.309,16.324-16.324,16.324h-51.15
			c-9.015,0-16.324-7.309-16.324-16.324v-80.533c0-9.015,7.309-16.324,16.324-16.324h51.15c9.015,0,16.324,7.309,16.324,16.324
			V355.871z M298.444,355.871c0,9.015-7.309,16.324-16.324,16.324h-51.15c-9.015,0-16.324-7.309-16.324-16.324V194.804
			c0-9.015,7.309-16.324,16.324-16.324h51.15c9.015,0,16.324,7.309,16.324,16.324V355.871z M414.891,355.871
			c0,9.015-7.309,16.324-16.324,16.324h-51.15c-9.015,0-16.324-7.309-16.324-16.324v-241.6c0-9.015,7.309-16.324,16.324-16.324
			h51.15c9.015,0,16.324,7.309,16.324,16.324V355.871z"/>
	</g>
</g>
<g>
</g>
<g>
</g>
<g>
</g>
<g>
</g>
<g>
</g>
<g>
</g>
<g>
</g>
<g>
</g>
<g>
</g>
<g>
</g>
<g>
</g>
<g>
</g>
<g>
</g>
<g>
</g>
<g>
</g>
</svg>
