<?xml version="1.0" encoding="iso-8859-1"?>
<!-- Generator: Adobe Illustrator 19.0.0, SVG Export Plug-In . SVG Version: 6.00 Build 0)  -->
<svg version="1.1" id="Layer_1" xmlns="http://www.w3.org/2000/svg" xmlns:xlink="http://www.w3.org/1999/xlink" x="0px" y="0px"
	 viewBox="0 0 512 512" style="enable-background:new 0 0 512 512;" xml:space="preserve">
<g>
	<g>
		<path d="M386.885,100.252C371.027,42.532,318.094,0,255.405,0c-62.687,0-115.619,42.529-131.478,100.248
			c-1.278,4.651,3.166,8.834,7.715,7.232L249.47,65.999c3.84-1.351,8.023-1.351,11.863,0l117.836,41.485
			C383.718,109.086,388.161,104.903,386.885,100.252z"/>
	</g>
</g>
<g>
	<g>
		<path d="M230.883,351.282c1.051-3.017-0.464-6.325-3.434-7.498l-85.016-33.591c-2.834-1.119-6.069,0.073-7.474,2.777
			c-9.767,18.78-15.295,40.104-15.295,62.695V494.14c0,9.864,7.997,17.86,17.86,17.86h86.358c5.041,0,7.8-5.875,4.582-9.754
			l-28.485-34.335c-4.256-5.13-5.515-12.114-3.323-18.408L230.883,351.282z"/>
	</g>
</g>
<g>
	<g>
		<path d="M386.609,147.976l-131.208-46.194l-131.202,46.19c-2.658,0.936-4.304,3.609-3.934,6.402
			c5.824,43.865,32.585,81.209,69.875,101.631c-8.404,4.603-16.277,10.06-23.492,16.263c-3.376,2.902-2.397,8.374,1.743,10.01
			l84.825,33.516c1.406,0.555,2.97,0.555,4.376,0l84.825-33.516c4.141-1.636,5.12-7.108,1.744-10.01
			c-7.216-6.204-15.089-11.659-23.492-16.263c37.289-20.42,64.049-57.762,69.874-101.626
			C390.914,151.585,389.266,148.912,386.609,147.976z"/>
	</g>
</g>
<g>
	<g>
		<path d="M377.039,312.965c-1.405-2.7-4.634-3.893-7.466-2.774c-29.654,11.716-63.494,25.087-85.037,33.599
			c-2.966,1.172-4.471,4.471-3.422,7.482l34.23,98.229c2.192,6.295,0.932,13.279-3.323,18.408l-28.485,34.335
			c-3.218,3.88-0.46,9.754,4.582,9.754h86.357c9.864,0,17.86-7.997,17.86-17.86V375.664
			C392.335,353.072,386.808,331.746,377.039,312.965z"/>
	</g>
</g>
<g>
</g>
<g>
</g>
<g>
</g>
<g>
</g>
<g>
</g>
<g>
</g>
<g>
</g>
<g>
</g>
<g>
</g>
<g>
</g>
<g>
</g>
<g>
</g>
<g>
</g>
<g>
</g>
<g>
</g>
</svg>
