<?xml version="1.0" encoding="iso-8859-1"?>
<!-- Generator: Adobe Illustrator 19.0.0, SVG Export Plug-In . SVG Version: 6.00 Build 0)  -->
<svg version="1.1" id="Layer_1" xmlns="http://www.w3.org/2000/svg" xmlns:xlink="http://www.w3.org/1999/xlink" x="0px" y="0px"
	 viewBox="0 0 512 512" style="enable-background:new 0 0 512 512;" xml:space="preserve">
<g>
	<g>
		<path d="M237.093,376.905l-80.28-84.702c-2.536-2.676-6.843-2.409-9.088,0.517c-17.637,22.987-28.135,51.724-28.135,82.87v118.54
			c0,9.869,8.001,17.87,17.87,17.87h95.309c3.289,0,5.957-2.667,5.957-5.957v-125.04
			C238.727,379.478,238.142,378.012,237.093,376.905z"/>
	</g>
</g>
<g>
	<g>
		<path d="M364.828,293.446c-2.233-2.951-6.563-3.23-9.109-0.543l-79.62,84.005c-1.048,1.107-1.633,2.573-1.633,4.097v125.039
			c0,3.289,2.667,5.957,5.957,5.957h94.117c9.869,0,17.87-8.001,17.87-17.87V375.59C392.41,344.77,382.131,316.311,364.828,293.446z
			 M341.778,438.136h-17.87c-9.869,0-17.87-8.001-17.87-17.87s8.001-17.87,17.87-17.87h17.87c9.869,0,17.87,8.001,17.87,17.87
			S351.647,438.136,341.778,438.136z"/>
	</g>
</g>
<g>
	<g>
		<path d="M378.411,186.841l-71.991-72.327c-1.031-1.035-2.432-1.618-3.892-1.618h-93.059c-1.461,0-2.86,0.581-3.891,1.615
			l-72.811,73.102c-1.637,1.643-2.054,4.133-1.075,6.234c12.338,26.468,32.932,48.338,58.441,62.302
			c-1.99,1.088-3.964,2.21-5.907,3.404c-3.245,1.993-3.871,6.444-1.251,9.209l68.702,72.487c2.349,2.479,6.297,2.479,8.647,0
			l68.262-72.021c2.578-2.719,2.056-7.142-1.12-9.128c-2.233-1.395-4.502-2.7-6.79-3.952c25.771-14.104,46.526-36.273,58.821-63.104
			C380.458,190.947,380.037,188.475,378.411,186.841z"/>
	</g>
</g>
<g>
	<g>
		<path d="M256,0c-75.218,0-136.41,61.193-136.41,136.41c0,0.384,0.001,0.766,0.005,1.148c0.041,4.864,5.958,7.249,9.391,3.804
			L187.7,82.414c3.354-3.367,7.909-5.259,12.661-5.259h112.471c4.753,0,9.312,1.894,12.667,5.263l57.62,57.89
			c3.4,3.416,9.288,1.048,9.293-3.771c0-0.043,0-0.086,0-0.128C392.41,61.193,331.218,0,256,0z"/>
	</g>
</g>
<g>
</g>
<g>
</g>
<g>
</g>
<g>
</g>
<g>
</g>
<g>
</g>
<g>
</g>
<g>
</g>
<g>
</g>
<g>
</g>
<g>
</g>
<g>
</g>
<g>
</g>
<g>
</g>
<g>
</g>
</svg>
