<?xml version="1.0" encoding="iso-8859-1"?>
<!-- Generator: Adobe Illustrator 19.0.0, SVG Export Plug-In . SVG Version: 6.00 Build 0)  -->
<svg version="1.1" id="Layer_1" xmlns="http://www.w3.org/2000/svg" xmlns:xlink="http://www.w3.org/1999/xlink" x="0px" y="0px"
	 viewBox="0 0 512 512" style="enable-background:new 0 0 512 512;" xml:space="preserve">
<g>
	<g>
		<path d="M162.96,142.884C221.611,95.467,188.211,0,112.521,0C36.94,0,3.316,95.374,62.082,142.884
			c-18.24,14.746-29.933,37.284-29.933,62.512v62.512c0,9.864,7.997,17.86,17.86,17.86h125.023c9.864,0,17.86-7.997,17.86-17.86
			v-62.512C192.893,180.168,181.2,157.629,162.96,142.884z"/>
	</g>
</g>
<g>
	<g>
		<path d="M449.918,369.116c58.651-47.417,25.251-142.884-50.439-142.884c-75.581,0-109.205,95.374-50.439,142.884
			c-18.24,14.746-29.933,37.284-29.933,62.512v62.512c0,9.864,7.997,17.86,17.86,17.86h125.023c9.864,0,17.86-7.997,17.86-17.86
			v-62.512C479.851,406.401,468.159,383.862,449.918,369.116z"/>
	</g>
</g>
<g>
	<g>
		<path d="M382.966,149.119c-31.636-37.546-77.912-59.08-126.966-59.08c-9.864,0-17.86,7.997-17.86,17.86
			c0,9.864,7.997,17.86,17.86,17.86c38.496,0,74.816,16.903,99.649,46.375c6.357,7.544,17.622,8.506,25.167,2.15
			C388.359,167.93,389.322,156.662,382.966,149.119z"/>
	</g>
</g>
<g>
	<g>
		<path d="M256,386.24c-38.496,0-74.816-16.903-99.649-46.375c-6.356-7.543-17.624-8.506-25.167-2.15
			c-7.543,6.356-8.506,17.623-2.15,25.167c31.636,37.546,77.913,59.08,126.966,59.08c9.864,0,17.86-7.997,17.86-17.86
			C273.86,394.236,265.864,386.24,256,386.24z"/>
	</g>
</g>
<g>
</g>
<g>
</g>
<g>
</g>
<g>
</g>
<g>
</g>
<g>
</g>
<g>
</g>
<g>
</g>
<g>
</g>
<g>
</g>
<g>
</g>
<g>
</g>
<g>
</g>
<g>
</g>
<g>
</g>
</svg>
