<?xml version="1.0" encoding="iso-8859-1"?>
<!-- Generator: Adobe Illustrator 19.0.0, SVG Export Plug-In . SVG Version: 6.00 Build 0)  -->
<svg version="1.1" id="Layer_1" xmlns="http://www.w3.org/2000/svg" xmlns:xlink="http://www.w3.org/1999/xlink" x="0px" y="0px"
	 viewBox="0 0 512 512" style="enable-background:new 0 0 512 512;" xml:space="preserve">
<g>
	<g>
		<path d="M350.884,259.413h-77.817v-14.791h66.043c21.779,0,39.161-18.285,38.075-40.026l-8.42-168.377
			C367.75,15.91,351.027,0,330.691,0H181.309c-20.336,0-37.06,15.91-38.075,36.219l-8.42,168.376
			c-1.088,21.752,16.303,40.027,38.075,40.027h66.043v14.791h-77.817c-21.083,0-38.236,17.153-38.236,38.236v42.546
			c0,9.425,7.641,17.067,17.067,17.067h232.107c9.425,0,17.067-7.641,17.067-17.067v-42.546
			C389.12,276.566,371.967,259.413,350.884,259.413z"/>
	</g>
</g>
<g>
	<g>
		<path d="M347.022,439.182h-73.956V409.6h35.271c6.518,0,12.905-3.683,15.656-10.512c1.485-3.686-1.354-7.693-5.327-7.693H192.198
			c-3.98,0-6.814,4.016-5.323,7.706c2.774,6.861,9.214,10.498,15.65,10.498h36.409v29.582h-73.956
			c-9.425,0-17.067,7.641-17.067,17.067v38.684c0,9.425,7.641,17.067,17.067,17.067s17.067-7.641,17.067-17.067v-21.618h56.889
			v21.618c0,9.425,7.641,17.067,17.067,17.067s17.067-7.641,17.067-17.067v-21.618h56.889v21.618
			c0,9.425,7.641,17.067,17.067,17.067s17.067-7.641,17.067-17.067v-38.684C364.089,446.824,356.448,439.182,347.022,439.182z"/>
	</g>
</g>
<g>
</g>
<g>
</g>
<g>
</g>
<g>
</g>
<g>
</g>
<g>
</g>
<g>
</g>
<g>
</g>
<g>
</g>
<g>
</g>
<g>
</g>
<g>
</g>
<g>
</g>
<g>
</g>
<g>
</g>
</svg>
