<?xml version="1.0" encoding="iso-8859-1"?>
<!-- Generator: Adobe Illustrator 19.0.0, SVG Export Plug-In . SVG Version: 6.00 Build 0)  -->
<svg version="1.1" id="Layer_1" xmlns="http://www.w3.org/2000/svg" xmlns:xlink="http://www.w3.org/1999/xlink" x="0px" y="0px"
	 viewBox="0 0 512 512" style="enable-background:new 0 0 512 512;" xml:space="preserve">
<g>
	<g>
		<path d="M511.333,70.623c-2.554-9.528-12.35-15.18-21.874-12.63L440.955,70.99l12.998-48.503
			c2.553-9.528-3.101-19.321-12.628-21.874c-9.523-2.553-19.323,3.101-21.875,12.628l-13.744,51.295
			c-42.685-33.687-96.54-53.817-155.01-53.817c-138.203,0-250.64,112.437-250.64,250.64S112.491,512,250.695,512
			s250.64-112.437,250.64-250.64c0-58.524-20.167-112.423-53.91-155.124l51.277-13.739C508.23,89.945,513.885,80.151,511.333,70.623
			z M251.079,407.126c-80.526,0-146.04-65.513-146.04-146.04c0-80.526,65.513-146.039,146.04-146.039
			c33.783,0,64.922,11.535,89.691,30.869L238.339,248.347c-6.975,6.974-6.975,18.283,0,25.258c6.973,6.974,18.282,6.976,25.258,0
			l102.461-102.461c19.45,24.81,31.06,56.046,31.06,89.942C397.12,341.613,331.605,407.126,251.079,407.126z"/>
	</g>
</g>
<g>
</g>
<g>
</g>
<g>
</g>
<g>
</g>
<g>
</g>
<g>
</g>
<g>
</g>
<g>
</g>
<g>
</g>
<g>
</g>
<g>
</g>
<g>
</g>
<g>
</g>
<g>
</g>
<g>
</g>
</svg>
