<?xml version="1.0" encoding="iso-8859-1"?>
<!-- Generator: Adobe Illustrator 19.0.0, SVG Export Plug-In . SVG Version: 6.00 Build 0)  -->
<svg version="1.1" id="Layer_1" xmlns="http://www.w3.org/2000/svg" xmlns:xlink="http://www.w3.org/1999/xlink" x="0px" y="0px"
	 viewBox="0 0 512 512" style="enable-background:new 0 0 512 512;" xml:space="preserve">
<g>
	<g>
		<path d="M114.383,162.859H16.34C7.316,162.859,0,170.176,0,179.2v225.498c0,9.024,7.316,16.34,16.34,16.34h98.043
			c3.008,0,5.447-2.439,5.447-5.447V168.306C119.83,165.299,117.391,162.859,114.383,162.859z M59.915,384.4
			c-9.927,0-17.974-8.047-17.974-17.974s8.047-17.974,17.974-17.974s17.974,8.047,17.974,17.974
			C77.889,376.352,69.842,384.4,59.915,384.4z"/>
	</g>
</g>
<g>
	<g>
		<path d="M459.711,162.859c-3.442,0-156.907,0-159.51,0c-22.304,0-22.008-32.681-0.462-32.681h38.426
			c3.367,0,5.993-3.037,5.373-6.348c-3.499-18.684-19.922-32.869-39.606-32.869h-86.234c-10.644,0-21.056,4.328-28.564,11.871
			l-35.037,35.196c-1.016,1.021-1.586,2.402-1.586,3.842v273.721c0,3.008,2.439,5.447,5.447,5.447h174.298
			c33.09,0,59.915-26.824,59.915-59.915v-93.685h66.69c27.276,0,51.639-22.233,53.066-49.471
			C513.504,187.835,489.605,162.859,459.711,162.859z"/>
	</g>
</g>
<g>
</g>
<g>
</g>
<g>
</g>
<g>
</g>
<g>
</g>
<g>
</g>
<g>
</g>
<g>
</g>
<g>
</g>
<g>
</g>
<g>
</g>
<g>
</g>
<g>
</g>
<g>
</g>
<g>
</g>
</svg>
