<?xml version="1.0" encoding="iso-8859-1"?>
<!-- Generator: Adobe Illustrator 19.0.0, SVG Export Plug-In . SVG Version: 6.00 Build 0)  -->
<svg version="1.1" id="Layer_1" xmlns="http://www.w3.org/2000/svg" xmlns:xlink="http://www.w3.org/1999/xlink" x="0px" y="0px"
	 viewBox="0 0 512 512" style="enable-background:new 0 0 512 512;" xml:space="preserve">
<g>
	<g>
		<path d="M474.184,64.788c0-7.898-5.425-14.761-13.11-16.586L259.93,0.461c-2.588-0.615-5.284-0.615-7.873,0L50.912,48.202
			c-7.684,1.824-13.11,8.688-13.11,16.586c0,122.324-7.005,180.57,32.367,262.34c39.72,82.493,92.644,115.305,175.193,181.153
			c6.217,4.959,15.04,4.96,21.26,0c85.269-68.019,136.078-99.917,175.193-181.153C481.276,245.175,474.184,186.6,474.184,64.788z
			 M245.033,223.045h21.935c62.457,0,67.715,92.113,6.079,99.621v26.073c0,8.75-6.411,16.427-15.107,17.387
			c-10.282,1.134-18.985-6.885-18.985-16.939v-26.137h-26.826c-8.75,0-16.427-6.41-17.387-15.107
			c-1.134-10.282,6.885-18.985,16.939-18.985h55.287c21.025,0,21.026-31.819,0-31.819h-21.935c-62.457,0-67.715-92.113-6.079-99.621
			v-26.073c0-8.75,6.411-16.427,15.107-17.387c10.282-1.134,18.985,6.885,18.985,16.939v26.137h26.826
			c8.75,0,16.427,6.41,17.387,15.107c1.134,10.282-6.885,18.985-16.939,18.985h-55.287
			C224.007,191.226,224.007,223.045,245.033,223.045z"/>
	</g>
</g>
<g>
</g>
<g>
</g>
<g>
</g>
<g>
</g>
<g>
</g>
<g>
</g>
<g>
</g>
<g>
</g>
<g>
</g>
<g>
</g>
<g>
</g>
<g>
</g>
<g>
</g>
<g>
</g>
<g>
</g>
</svg>
