<?xml version="1.0" encoding="iso-8859-1"?>
<!-- Generator: Adobe Illustrator 19.0.0, SVG Export Plug-In . SVG Version: 6.00 Build 0)  -->
<svg version="1.1" id="Layer_1" xmlns="http://www.w3.org/2000/svg" xmlns:xlink="http://www.w3.org/1999/xlink" x="0px" y="0px"
	 viewBox="0 0 512 512" style="enable-background:new 0 0 512 512;" xml:space="preserve">
<g>
	<g>
		<path d="M507.095,206.244l-37.804-37.804c-6.539-6.539-17.14-6.539-23.679,0L300.714,313.338c-6.539,6.539-6.539,17.14,0,23.679
			l37.804,37.804c6.539,6.538,17.14,6.538,23.679,0l144.899-144.899C513.634,223.384,513.634,212.782,507.095,206.244z"/>
	</g>
</g>
<g>
	<g>
		<path d="M343.577,42.725L305.772,4.921c-6.539-6.539-17.14-6.539-23.679,0L137.196,149.818c-6.539,6.539-6.539,17.14,0,23.679
			l37.804,37.805c6.539,6.539,17.14,6.539,23.679,0L343.577,66.403C350.116,59.865,350.116,49.264,343.577,42.725z"/>
	</g>
</g>
<g>
	<g>
		<path d="M410.057,148.744l-46.785-46.785c-2.18-2.18-5.713-2.18-7.893,0L234.233,223.105c-2.18,2.18-2.18,5.713,0,7.893
			l11.553,11.553l-72.064,72.064l-9.682-9.682c-6.538-6.538-17.14-6.538-23.679,0L13.829,431.466
			c-18.441,18.44-18.437,48.284,0,66.721c18.396,18.396,48.328,18.395,66.722,0l126.532-126.532c6.538-6.537,6.536-17.144,0-23.679
			l-9.682-9.682l72.064-72.064l11.553,11.553c2.18,2.179,5.713,2.179,7.893,0l121.146-121.146
			C412.237,154.457,412.237,150.923,410.057,148.744z"/>
	</g>
</g>
<g>
</g>
<g>
</g>
<g>
</g>
<g>
</g>
<g>
</g>
<g>
</g>
<g>
</g>
<g>
</g>
<g>
</g>
<g>
</g>
<g>
</g>
<g>
</g>
<g>
</g>
<g>
</g>
<g>
</g>
</svg>
