<?xml version="1.0" encoding="iso-8859-1"?>
<!-- Generator: Adobe Illustrator 19.0.0, SVG Export Plug-In . SVG Version: 6.00 Build 0)  -->
<svg version="1.1" id="Layer_1" xmlns="http://www.w3.org/2000/svg" xmlns:xlink="http://www.w3.org/1999/xlink" x="0px" y="0px"
	 viewBox="0 0 512.001 512.001" style="enable-background:new 0 0 512.001 512.001;" xml:space="preserve">
<g>
	<g>
		<path d="M494.16,476.023h-22.002v-23.318c0-9.158-6.709-17.192-15.811-18.196c-10.761-1.187-19.869,7.206-19.869,17.728v23.786
			H313.979v-23.318c0-9.158-6.709-17.192-15.811-18.196c-10.761-1.187-19.869,7.206-19.869,17.728v23.786H154.611v-23.318
			c0-9.158-6.709-17.192-15.811-18.196c-10.761-1.187-19.869,7.206-19.869,17.728v23.786H53.304l65.628-90.958v3.669
			c0,9.158,6.709,17.192,15.811,18.197c10.761,1.187,19.869-7.206,19.869-17.728v-5.215c17.677-5.765,31.631-19.84,37.207-37.6
			h49.276c5.576,17.76,19.53,31.836,37.206,37.6v4.747c0,9.158,6.709,17.192,15.811,18.196c10.761,1.187,19.869-7.206,19.869-17.728
			v-5.215c23.099-7.532,39.842-29.264,39.842-54.845c0-7.103-1.298-13.904-3.656-20.193l71.984-56.829
			c4.386,2.958,9.204,5.319,14.33,6.99v26.154c0,9.158,6.709,17.192,15.811,18.197c10.761,1.187,19.869-7.206,19.869-17.728V259.11
			c28.755-9.377,47.662-40.76,36.677-74.179c-6.218-18.917-22.315-33.043-41.823-37.038c-46.637-9.549-81.99,34.878-66.88,76.151
			l-72.201,57c-31.583-20.944-74.352-6.049-86.433,29.664h-50.677c-7.709-22.79-29.283-39.247-54.643-39.247
			c-47.451,0-74.398,54.305-46.289,92.058l-54.21,75.13V18.606c0-9.158-6.709-17.192-15.811-18.197C9.108-0.778,0,7.615,0,18.137
			v475.726c0,9.614,7.845,17.841,17.824,17.841c0.007,0,0.013-0.001,0.02-0.001h475.847c9.158,0,17.192-6.709,18.197-15.811
			C513.075,485.13,504.681,476.023,494.16,476.023z"/>
	</g>
</g>
<g>
	<g>
		<path d="M452.289,329.85c-9.102,1.004-15.811,9.039-15.811,18.197v40.689c0,9.158,6.709,17.192,15.811,18.196
			c10.761,1.187,19.869-7.206,19.869-17.728v-41.626C472.158,337.057,463.05,328.663,452.289,329.85z"/>
	</g>
</g>
<g>
</g>
<g>
</g>
<g>
</g>
<g>
</g>
<g>
</g>
<g>
</g>
<g>
</g>
<g>
</g>
<g>
</g>
<g>
</g>
<g>
</g>
<g>
</g>
<g>
</g>
<g>
</g>
<g>
</g>
</svg>
