<?xml version="1.0" encoding="iso-8859-1"?>
<!-- Generator: Adobe Illustrator 19.0.0, SVG Export Plug-In . SVG Version: 6.00 Build 0)  -->
<svg version="1.1" id="Layer_1" xmlns="http://www.w3.org/2000/svg" xmlns:xlink="http://www.w3.org/1999/xlink" x="0px" y="0px"
	 viewBox="0 0 512 512" style="enable-background:new 0 0 512 512;" xml:space="preserve">
<g>
	<g>
		<path d="M386.906,465.236h-63.05l-4.07-25.524c-0.415-2.604-2.661-4.521-5.298-4.521H197.167c-2.636,0-4.883,1.916-5.298,4.521
			l-4.07,25.524h-63.778c-8.889,0-16.095,7.206-16.095,16.095c0,8.889,7.206,16.095,16.095,16.095c11.974,0,250.692,0,262.886,0
			c8.889,0,16.095-7.206,16.095-16.095C403.002,472.442,395.796,465.236,386.906,465.236z"/>
	</g>
</g>
<g>
	<g>
		<path d="M511.174,264.475l-54.297-160.63c-2.225-6.579-8.454-10.941-15.247-10.941H300.749
			c-4.581-13.608-15.193-24.466-28.652-29.362V30.669c0-8.889-7.206-16.095-16.095-16.095c-8.889,0-16.095,7.206-16.095,16.095
			v32.873c-13.46,4.896-24.072,15.755-28.652,29.362H70.37c-6.928,0-13.058,4.471-15.247,10.941L0.826,264.475
			c-0.75,2.217-0.97,4.532-0.737,6.797v35.631c0,22.675,18.382,41.055,41.055,41.055h58.453c22.675,0,41.055-18.382,41.055-41.055
			v-35.631c0.233-2.264,0.013-4.581-0.737-6.797L92.8,125.093h119.233c4.665,11.906,14.023,21.474,25.795,26.402l-39.115,245.296
			c-0.519,3.259,1.998,6.209,5.298,6.209h103.633c3.301,0,5.818-2.951,5.299-6.209l-39.096-245.168
			c11.924-4.888,21.413-14.517,26.12-26.531h119.233l-47.116,139.381c-0.75,2.217-0.97,4.532-0.737,6.797v35.631
			c0,22.675,18.382,41.055,41.055,41.055h58.453c22.675,0,41.055-18.382,41.055-41.055v-35.631
			C512.144,269.008,511.924,266.692,511.174,264.475z M102.239,253.534H38.504l31.867-94.273L102.239,253.534z M409.764,253.533
			l31.866-94.273l31.867,94.273H409.764z"/>
	</g>
</g>
<g>
</g>
<g>
</g>
<g>
</g>
<g>
</g>
<g>
</g>
<g>
</g>
<g>
</g>
<g>
</g>
<g>
</g>
<g>
</g>
<g>
</g>
<g>
</g>
<g>
</g>
<g>
</g>
<g>
</g>
</svg>
