<?xml version="1.0" encoding="iso-8859-1"?>
<!-- Generator: Adobe Illustrator 19.0.0, SVG Export Plug-In . SVG Version: 6.00 Build 0)  -->
<svg version="1.1" id="Layer_1" xmlns="http://www.w3.org/2000/svg" xmlns:xlink="http://www.w3.org/1999/xlink" x="0px" y="0px"
	 viewBox="0 0 512.001 512.001" style="enable-background:new 0 0 512.001 512.001;" xml:space="preserve">
<g>
	<g>
		<path d="M463.645,294.511v-77.023l30.24-41.276c3.996-5.455,4.394-12.755,1.014-18.612l-34.132-59.135
			c-3.38-5.857-9.899-9.166-16.624-8.434l-51.01,5.542L326.455,57.09l-20.703-46.915C303.023,3.991,296.899,0,290.138,0h-68.276
			c-6.761,0-12.884,3.991-15.614,10.175l-20.703,46.916l-66.677,38.483l-51.01-5.542c-6.725-0.732-13.244,2.578-16.624,8.434
			l-34.132,59.135c-3.38,5.857-2.982,13.157,1.014,18.612l30.24,41.275v77.023l-30.24,41.276
			c-3.996,5.455-4.394,12.754-1.014,18.612l34.132,59.135c3.38,5.856,9.896,9.167,16.624,8.434l51.01-5.542l66.677,38.483
			l20.703,46.916c2.729,6.184,8.853,10.175,15.614,10.175h68.276c6.761,0,12.884-3.991,15.614-10.175l20.703-46.916l66.677-38.483
			l51.01,5.542c6.73,0.733,13.245-2.578,16.624-8.434l34.132-59.135c3.38-5.857,2.982-13.157-1.014-18.612L463.645,294.511z
			 M254.863,407.324c-83.44,0-151.324-67.884-151.324-151.324s67.884-151.324,151.324-151.324S406.187,172.56,406.187,256
			S338.303,407.324,254.863,407.324z"/>
	</g>
</g>
<g>
	<g>
		<path d="M256.001,164.978c-47.295,0-71.612,56.714-39.36,91.022c-9.095,9.676-14.684,22.683-14.684,36.978v36.978
			c0,9.425,7.641,17.067,17.067,17.067h73.956c9.425,0,17.067-7.641,17.067-17.067v-36.978c0-14.295-5.589-27.302-14.684-36.978
			C327.624,221.679,303.283,164.978,256.001,164.978z"/>
	</g>
</g>
<g>
</g>
<g>
</g>
<g>
</g>
<g>
</g>
<g>
</g>
<g>
</g>
<g>
</g>
<g>
</g>
<g>
</g>
<g>
</g>
<g>
</g>
<g>
</g>
<g>
</g>
<g>
</g>
<g>
</g>
</svg>
