<?xml version="1.0" encoding="iso-8859-1"?>
<!-- Generator: Adobe Illustrator 19.0.0, SVG Export Plug-In . SVG Version: 6.00 Build 0)  -->
<svg version="1.1" id="Layer_1" xmlns="http://www.w3.org/2000/svg" xmlns:xlink="http://www.w3.org/1999/xlink" x="0px" y="0px"
	 viewBox="0 0 512 512" style="enable-background:new 0 0 512 512;" xml:space="preserve">
<g>
	<g>
		<path d="M471.106,33.564H40.894C18.309,33.564,0,51.874,0,74.458v327.746v59.164c0,9.425,7.641,17.067,17.067,17.067h59.164
			c9.425,0,17.067-7.641,17.067-17.067v-42.098h325.404v42.098c0,9.425,7.641,17.067,17.067,17.067h59.164
			c9.425,0,17.067-7.641,17.067-17.067v-59.164V74.458C512,51.874,493.691,33.564,471.106,33.564z M451.698,343.04
			c0,9.425-7.641,17.067-17.067,17.067h-358.4c-9.425,0-17.067-7.641-17.067-17.067v-83.058c0-9.425,7.641-17.067,17.067-17.067
			h358.4c9.425,0,17.067,7.641,17.067,17.067V343.04z M451.698,191.716c0,9.425-7.641,17.067-17.067,17.067h-358.4
			c-9.425,0-17.067-7.641-17.067-17.067v-81.92c0-9.425,7.641-17.067,17.067-17.067h358.4c9.425,0,17.067,7.641,17.067,17.067
			V191.716z"/>
	</g>
</g>
<g>
</g>
<g>
</g>
<g>
</g>
<g>
</g>
<g>
</g>
<g>
</g>
<g>
</g>
<g>
</g>
<g>
</g>
<g>
</g>
<g>
</g>
<g>
</g>
<g>
</g>
<g>
</g>
<g>
</g>
</svg>
