<?xml version="1.0" encoding="iso-8859-1"?>
<!-- Generator: Adobe Illustrator 19.0.0, SVG Export Plug-In . SVG Version: 6.00 Build 0)  -->
<svg version="1.1" id="Layer_1" xmlns="http://www.w3.org/2000/svg" xmlns:xlink="http://www.w3.org/1999/xlink" x="0px" y="0px"
	 viewBox="0 0 512 512" style="enable-background:new 0 0 512 512;" xml:space="preserve">
<g>
	<g>
		<path d="M338.539,112.335h-86.051c-3.203,0-5.769,2.652-5.664,5.853l7.288,222.156c0.099,3.056,2.605,5.481,5.663,5.481h71.476
			c3.058,0,5.564-2.426,5.664-5.481l7.288-222.156C344.308,114.988,341.741,112.335,338.539,112.335z"/>
	</g>
</g>
<g>
	<g>
		<path d="M494.759,112.335h-110.86c-3.058,0-5.564,2.426-5.664,5.481l-7.288,222.156c-0.105,3.201,2.462,5.853,5.664,5.853H468.4
			c8.521,0,15.727-6.308,16.852-14.755l26.599-199.487C513.145,121.887,505.876,112.335,494.759,112.335z"/>
	</g>
</g>
<g>
	<g>
		<path d="M470.381,388.897H147.299l-5.743-43.071h72.857c3.203,0,5.769-2.652,5.664-5.853l-7.288-222.156
			c-0.1-3.056-2.607-5.481-5.664-5.481h-96.7L99.545,30.747c-1.127-8.446-8.331-14.755-16.852-14.755H17.449
			c-8.728,0-16.384,6.394-17.342,15.068c-1.131,10.255,6.869,18.935,16.895,18.935h50.806l47.753,358.149
			c1.127,8.446,8.332,14.755,16.853,14.755h46.724c-3.96,7.837-5.952,16.832-5.271,26.339c1.825,25.487,22.905,45.807,48.439,46.734
			c28.659,1.04,52.306-21.972,52.306-50.404c0-8.151-1.955-15.848-5.402-22.669h75.412c-3.96,7.837-5.952,16.832-5.271,26.339
			c1.825,25.487,22.905,45.807,48.439,46.734c28.659,1.04,52.306-21.972,52.306-50.404c0-8.151-1.955-15.848-5.402-22.669h35.241
			c8.728,0,16.384-6.394,17.342-15.068C488.408,397.577,480.408,388.897,470.381,388.897z"/>
	</g>
</g>
<g>
</g>
<g>
</g>
<g>
</g>
<g>
</g>
<g>
</g>
<g>
</g>
<g>
</g>
<g>
</g>
<g>
</g>
<g>
</g>
<g>
</g>
<g>
</g>
<g>
</g>
<g>
</g>
<g>
</g>
</svg>
