<?xml version="1.0" encoding="iso-8859-1"?>
<!-- Generator: Adobe Illustrator 19.0.0, SVG Export Plug-In . SVG Version: 6.00 Build 0)  -->
<svg version="1.1" id="Layer_1" xmlns="http://www.w3.org/2000/svg" xmlns:xlink="http://www.w3.org/1999/xlink" x="0px" y="0px"
	 viewBox="0 0 512 512" style="enable-background:new 0 0 512 512;" xml:space="preserve">
<g>
	<g>
		<path d="M468.293,0C453.732,0,65.399,0,43.707,0C19.607,0,0,19.607,0,43.707v424.585C0,492.393,19.607,512,43.707,512h424.585
			c24.1,0,43.707-19.607,43.707-43.707V43.707C512,19.607,492.393,0,468.293,0z M223.532,37.463h66.185
			c0,26.167,0,162.385,0,188.897l-19.832-19.879c-7.312-7.332-19.206-7.335-26.522,0l-19.832,19.879
			C223.532,199.744,223.532,63.535,223.532,37.463z M412.098,393.366c0,10.345-8.387,18.732-18.732,18.732H118.634
			c-10.345,0-18.732-8.387-18.732-18.732V118.634c0-10.345,8.387-18.732,18.732-18.732h67.434v37.463H143.61
			c-3.448,0-6.244,2.796-6.244,6.244V368.39c0,3.448,2.796,6.244,6.244,6.244H368.39c3.448,0,6.244-2.796,6.244-6.244V143.61
			c0-3.448-2.796-6.244-6.244-6.244h-41.21V99.902h66.185c10.345,0,18.732,8.387,18.732,18.732V393.366z"/>
	</g>
</g>
<g>
</g>
<g>
</g>
<g>
</g>
<g>
</g>
<g>
</g>
<g>
</g>
<g>
</g>
<g>
</g>
<g>
</g>
<g>
</g>
<g>
</g>
<g>
</g>
<g>
</g>
<g>
</g>
<g>
</g>
</svg>
