<?xml version="1.0" encoding="iso-8859-1"?>
<!-- Generator: Adobe Illustrator 19.0.0, SVG Export Plug-In . SVG Version: 6.00 Build 0)  -->
<svg version="1.1" id="Layer_1" xmlns="http://www.w3.org/2000/svg" xmlns:xlink="http://www.w3.org/1999/xlink" x="0px" y="0px"
	 viewBox="0 0 511.999 511.999" style="enable-background:new 0 0 511.999 511.999;" xml:space="preserve">
<g>
	<g>
		<path d="M491.9,21.539l-53.359,6.67c-2.983,0.373-5.221,2.909-5.221,5.914v334.173c0,3.007,2.239,5.542,5.221,5.914l53.358,6.671
			c10.182,1.28,20.1-6.385,20.1-18.062c0-29.507,0-293.088,0-323.135C512,27.837,502.016,20.259,491.9,21.539z"/>
	</g>
</g>
<g>
	<g>
		<path d="M390.857,34.17l-266.7,33.336c-20.837,2.605-36.549,20.403-36.549,41.402v184.607c0,20.997,15.711,38.795,36.544,41.402
			c215.127,26.883,266.761,33.341,266.704,33.335c3.557,0.445,6.7-2.329,6.7-5.914V40.084h0.001
			C397.557,36.498,394.415,33.725,390.857,34.17z"/>
	</g>
</g>
<g>
	<g>
		<path d="M42.348,116.747c-56.479,42.326-56.45,126.614,0,168.92c3.91,2.93,9.496,0.08,9.496-4.807V121.554
			C51.845,116.668,46.258,113.817,42.348,116.747z"/>
	</g>
</g>
<g>
	<g>
		<path d="M334.585,468.069l-18.537-68.861c-0.629-2.339-2.602-4.064-5.007-4.364c-51.652-6.458-143.342-17.915-143.04-17.877
			c-4.201-0.525-7.596,3.376-6.495,7.464l25.021,92.936c2.102,7.808,9.182,13.234,17.267,13.234h113.118
			C329.647,490.6,337.531,479.017,334.585,468.069z"/>
	</g>
</g>
<g>
</g>
<g>
</g>
<g>
</g>
<g>
</g>
<g>
</g>
<g>
</g>
<g>
</g>
<g>
</g>
<g>
</g>
<g>
</g>
<g>
</g>
<g>
</g>
<g>
</g>
<g>
</g>
<g>
</g>
</svg>
