<?xml version="1.0" encoding="iso-8859-1"?>
<!-- Generator: Adobe Illustrator 19.0.0, SVG Export Plug-In . SVG Version: 6.00 Build 0)  -->
<svg version="1.1" id="Layer_1" xmlns="http://www.w3.org/2000/svg" xmlns:xlink="http://www.w3.org/1999/xlink" x="0px" y="0px"
	 viewBox="0 0 512 512" style="enable-background:new 0 0 512 512;" xml:space="preserve">
<g>
	<g>
		<path d="M153.6,477.867c-38.987,0-70.705-31.718-70.705-70.705c0-9.425-7.641-17.067-17.067-17.067
			c-9.425,0-17.067,7.641-17.067,17.067C48.762,464.97,95.792,512,153.6,512c9.425,0,17.067-7.641,17.067-17.067
			S163.025,477.867,153.6,477.867z"/>
	</g>
</g>
<g>
	<g>
		<path d="M446.172,390.095c-9.425,0-17.067,7.641-17.067,17.067c0,38.987-31.718,70.705-70.705,70.705
			c-9.425,0-17.067,7.641-17.067,17.067S348.975,512,358.4,512c57.808,0,104.838-47.03,104.838-104.838
			C463.238,397.736,455.597,390.095,446.172,390.095z"/>
	</g>
</g>
<g>
	<g>
		<path d="M358.4,0c-9.425,0-17.067,7.641-17.067,17.067s7.641,17.067,17.067,17.067c38.987,0,70.705,31.718,70.705,70.705
			c0,9.425,7.641,17.067,17.067,17.067s17.067-7.641,17.067-17.067C463.238,47.03,416.208,0,358.4,0z"/>
	</g>
</g>
<g>
	<g>
		<path d="M153.6,0C95.792,0,48.762,47.03,48.762,104.838c0,9.425,7.641,17.067,17.067,17.067s17.067-7.641,17.067-17.067
			c0-38.987,31.718-70.705,70.705-70.705c9.425,0,17.067-7.641,17.067-17.067S163.025,0,153.6,0z"/>
	</g>
</g>
<g>
	<g>
		<path d="M355.003,68.267H156.997c-21.984,0-39.806,17.822-39.806,39.806v216.194c0,3.141,2.547,5.689,5.689,5.689h266.24
			c3.141,0,5.689-2.547,5.689-5.689V108.073C394.809,86.089,376.987,68.267,355.003,68.267z M312.889,238.364v39.253
			c0,9.425-7.641,17.067-17.067,17.067h-78.507c-9.425,0-17.067-7.641-17.067-17.067v-39.253c0-15.253,6.105-29.101,15.988-39.253
			c-34.651-35.595-9.314-95.573,40.332-95.573c49.683,0,74.949,60.014,40.332,95.573
			C306.784,209.263,312.889,223.111,312.889,238.364z"/>
	</g>
</g>
<g>
	<g>
		<path d="M389.12,364.089H122.88c-3.141,0-5.689,2.548-5.689,5.689v34.149c0,21.984,17.822,39.806,39.806,39.806h198.004
			c21.985,0,39.807-17.822,39.807-39.806v-34.149C394.809,366.636,392.261,364.089,389.12,364.089z M256,415.289
			c-6.284,0-11.378-5.094-11.378-11.378c0-6.284,5.094-11.378,11.378-11.378s11.378,5.094,11.378,11.378
			C267.378,410.195,262.284,415.289,256,415.289z"/>
	</g>
</g>
<g>
</g>
<g>
</g>
<g>
</g>
<g>
</g>
<g>
</g>
<g>
</g>
<g>
</g>
<g>
</g>
<g>
</g>
<g>
</g>
<g>
</g>
<g>
</g>
<g>
</g>
<g>
</g>
<g>
</g>
</svg>
