<?xml version="1.0" encoding="iso-8859-1"?>
<!-- Generator: Adobe Illustrator 19.0.0, SVG Export Plug-In . SVG Version: 6.00 Build 0)  -->
<svg version="1.1" id="Layer_1" xmlns="http://www.w3.org/2000/svg" xmlns:xlink="http://www.w3.org/1999/xlink" x="0px" y="0px"
	 viewBox="0 0 512.001 512.001" style="enable-background:new 0 0 512.001 512.001;" xml:space="preserve">
<g>
	<g>
		<path d="M256.001,182.598c-40.474,0-73.402,32.928-73.402,73.402s32.928,73.402,73.402,73.402s73.402-32.928,73.402-73.402
			C329.403,215.526,296.475,182.598,256.001,182.598z M256.001,296.722c-22.454,0-40.721-18.268-40.721-40.721
			s18.268-40.721,40.721-40.721s40.721,18.267,40.721,40.721S278.455,296.722,256.001,296.722z"/>
	</g>
</g>
<g>
	<g>
		<path d="M495.198,239.66h-6.593c-3.488-50.707-23.179-98.243-56.575-136.579l4.987-4.987c6.382-6.381,6.382-16.727,0-23.11
			c-6.381-6.379-16.727-6.38-23.109-0.001l-4.987,4.988c-38.337-33.397-85.873-53.087-136.581-56.576v-6.593
			c0-8.799-6.762-16.37-15.551-16.784c-9.384-0.442-17.13,7.035-17.13,16.322v7.055c-50.707,3.488-98.241,23.178-136.58,56.576
			l-4.988-4.988c-6.382-6.38-16.728-6.379-23.109,0.001c-6.381,6.381-6.38,16.727,0,23.11l4.987,4.987
			c-33.395,38.336-53.087,85.872-56.575,136.579h-6.593c-8.799,0-16.37,6.762-16.784,15.549
			c-0.442,9.385,7.035,17.131,16.322,17.131h7.055c3.488,50.705,23.178,98.241,56.575,136.58l-4.987,4.987
			c-6.382,6.381-6.382,16.727,0,23.11c6.383,6.382,16.727,6.382,23.109,0.001l4.987-4.988
			c38.337,33.395,85.872,53.087,136.58,56.576v6.593c0,8.799,6.762,16.37,15.551,16.784c9.385,0.441,17.131-7.037,17.131-16.323
			v-7.055c50.706-3.488,98.241-23.178,136.58-56.576l4.988,4.988c6.381,6.38,16.727,6.38,23.109-0.001
			c6.381-6.381,6.38-16.727,0-23.11l-4.987-4.987c33.396-38.336,53.087-85.872,56.575-136.58h7.055
			c9.287,0,16.764-7.746,16.322-17.131C511.568,246.421,503.997,239.66,495.198,239.66z M361.576,245.593
			c0.668,6.848,0.682,13.821,0,20.814c-0.31,3.185,2.219,5.933,5.42,5.933h88.834c-3.364,41.977-19.666,81.332-46.974,113.405
			l-62.832-62.831c-2.263-2.263-5.994-2.109-8.026,0.363c-4.428,5.383-9.328,10.281-14.722,14.716
			c-2.472,2.033-2.625,5.765-0.363,8.028l62.834,62.834c-32.074,27.309-71.427,43.61-113.405,46.977v-88.834
			c0-3.201-2.747-5.73-5.933-5.42c-6.848,0.668-13.82,0.682-20.814,0c-3.185-0.31-5.933,2.219-5.933,5.42v88.834
			c-41.979-3.365-81.333-19.667-113.406-46.975l62.831-62.832c5.999-5.999-2.964-8.017-15.079-22.749
			c-2.033-2.472-5.764-2.625-8.028-0.363l-62.834,62.833c-27.31-32.075-43.612-71.428-46.977-113.405h88.834
			c3.201,0,5.73-2.747,5.42-5.933c-0.668-6.848-0.682-13.821,0-20.814c0.31-3.185-2.219-5.933-5.42-5.933H56.17
			c3.365-41.977,19.667-81.332,46.975-113.405l62.832,62.831c2.263,2.263,5.994,2.109,8.026-0.363
			c4.428-5.383,9.328-10.281,14.722-14.716c2.472-2.033,2.625-5.765,0.363-8.028l-62.833-62.834
			c32.074-27.31,71.427-43.612,113.405-46.977v88.834c0,3.201,2.747,5.73,5.933,5.42c6.848-0.668,13.82-0.682,20.814,0
			c3.185,0.31,5.933-2.219,5.933-5.42V56.17c41.976,3.365,81.331,19.668,113.405,46.977l-62.831,62.831
			c-2.263,2.264-2.109,5.994,0.363,8.027c5.384,4.428,10.281,9.328,14.716,14.722c2.033,2.472,5.764,2.625,8.028,0.363
			l62.834-62.833c27.309,32.075,43.61,71.428,46.975,113.405h-88.834C363.795,239.661,361.266,242.408,361.576,245.593z"/>
	</g>
</g>
<g>
</g>
<g>
</g>
<g>
</g>
<g>
</g>
<g>
</g>
<g>
</g>
<g>
</g>
<g>
</g>
<g>
</g>
<g>
</g>
<g>
</g>
<g>
</g>
<g>
</g>
<g>
</g>
<g>
</g>
</svg>
