<?xml version="1.0" encoding="iso-8859-1"?>
<!-- Generator: Adobe Illustrator 19.0.0, SVG Export Plug-In . SVG Version: 6.00 Build 0)  -->
<svg version="1.1" id="Layer_1" xmlns="http://www.w3.org/2000/svg" xmlns:xlink="http://www.w3.org/1999/xlink" x="0px" y="0px"
	 viewBox="0 0 512 512" style="enable-background:new 0 0 512 512;" xml:space="preserve">
<g>
	<g>
		<path d="M157.957,272.34c-9.024,0-16.34-7.316-16.34-16.34v-49.661c-20.853,6.879-35.949,26.534-35.949,49.661
			c0,28.833,23.456,52.289,52.289,52.289c23.127,0,42.781-15.096,49.661-35.949H157.957z"/>
	</g>
</g>
<g>
	<g>
		<path d="M473.877,84.97H38.123C17.102,84.97,0,102.072,0,123.093v265.813c0,21.021,17.102,38.123,38.123,38.123h435.753
			c21.021,0,38.123-17.102,38.123-38.123V123.093C512,102.072,494.898,84.97,473.877,84.97z M157.957,340.97
			c-46.853,0-84.97-38.117-84.97-84.97s38.117-84.97,84.97-84.97s84.97,38.117,84.97,84.97S204.811,340.97,157.957,340.97z
			 M422.672,333.345H314.826c-9.024,0-16.34-7.316-16.34-16.34c0-9.024,7.316-16.34,16.34-16.34h107.847
			c9.024,0,16.34,7.316,16.34,16.34C439.013,326.029,431.697,333.345,422.672,333.345z M422.672,272.34H314.826
			c-9.024,0-16.34-7.316-16.34-16.34c0-9.024,7.316-16.34,16.34-16.34h107.847c9.024,0,16.34,7.316,16.34,16.34
			C439.013,265.024,431.697,272.34,422.672,272.34z M422.672,211.336H314.826c-9.024,0-16.34-7.316-16.34-16.34
			c0-9.024,7.316-16.34,16.34-16.34h107.847c9.024,0,16.34,7.316,16.34,16.34C439.013,204.02,431.697,211.336,422.672,211.336z"/>
	</g>
</g>
<g>
	<g>
		<path d="M174.298,206.339v33.32h33.32C202.436,223.952,190.005,211.521,174.298,206.339z"/>
	</g>
</g>
<g>
</g>
<g>
</g>
<g>
</g>
<g>
</g>
<g>
</g>
<g>
</g>
<g>
</g>
<g>
</g>
<g>
</g>
<g>
</g>
<g>
</g>
<g>
</g>
<g>
</g>
<g>
</g>
<g>
</g>
</svg>
