<?xml version="1.0" encoding="iso-8859-1"?>
<!-- Generator: Adobe Illustrator 19.0.0, SVG Export Plug-In . SVG Version: 6.00 Build 0)  -->
<svg version="1.1" id="Layer_1" xmlns="http://www.w3.org/2000/svg" xmlns:xlink="http://www.w3.org/1999/xlink" x="0px" y="0px"
	 viewBox="0 0 512 512" style="enable-background:new 0 0 512 512;" xml:space="preserve">
<g>
	<g>
		<path d="M397.074,190.234c0.001-0.075,0.011-0.149,0.011-0.225V91.022h5.689c9.425,0,17.067-7.641,17.067-17.067V17.067
			C419.841,7.641,412.199,0,402.774,0H109.227c-9.425,0-17.067,7.641-17.067,17.067v56.889c0,9.425,7.641,17.067,17.067,17.067
			h5.689v98.987c0,0.041,0.006,0.081,0.006,0.122c-0.179,6.134,2.632,12.365,9.067,15.776l95.572,50.662l-95.572,50.662
			c-5.582,2.959-9.074,8.76-9.074,15.079c0,10.753,0,88.119,0,98.668h-5.689c-9.425,0-17.067,7.641-17.067,17.067v56.889
			c0,9.425,7.641,17.067,17.067,17.067h293.547c9.425,0,17.067-7.641,17.067-17.067v-56.889c0-9.425-7.641-17.067-17.067-17.067
			h-5.689c0-10.54,0-87.916,0-98.668c0-6.319-3.491-12.12-9.074-15.079l-95.571-50.662l95.572-50.662
			C394.403,202.519,397.218,196.337,397.074,190.234z M362.952,332.579v16.719H149.049v-16.719l106.951-56.693L362.952,332.579z
			 M362.952,172.942H149.049v-81.92h213.902V172.942z"/>
	</g>
</g>
<g>
</g>
<g>
</g>
<g>
</g>
<g>
</g>
<g>
</g>
<g>
</g>
<g>
</g>
<g>
</g>
<g>
</g>
<g>
</g>
<g>
</g>
<g>
</g>
<g>
</g>
<g>
</g>
<g>
</g>
</svg>
