<?xml version="1.0" encoding="iso-8859-1"?>
<!-- Generator: Adobe Illustrator 18.0.0, SVG Export Plug-In . SVG Version: 6.00 Build 0)  -->
<!DOCTYPE svg PUBLIC "-//W3C//DTD SVG 1.1//EN" "http://www.w3.org/Graphics/SVG/1.1/DTD/svg11.dtd">
<svg version="1.1" id="Capa_1" xmlns="http://www.w3.org/2000/svg" xmlns:xlink="http://www.w3.org/1999/xlink" x="0px" y="0px"
	 viewBox="0 0 60 60" style="enable-background:new 0 0 60 60;" xml:space="preserve">
<g>
	<path d="M58.126,36.621l-2.849-2.85c-1.128-1.127-3.094-1.129-4.222,0L35.664,49.162l-2.121,7.779l-0.519,0.519
		c-0.388,0.388-0.389,1.014-0.006,1.405l-0.006,0.021l0.02-0.006c0.194,0.19,0.446,0.287,0.698,0.287
		c0.256,0,0.512-0.098,0.707-0.293l0.519-0.519l7.779-2.123l15.39-15.39C59.29,39.679,59.29,37.785,58.126,36.621z M37.974,49.682
		l10.243-10.243l4.243,4.243L42.216,53.924L37.974,49.682z M37.071,51.607l3.22,3.22l-4.428,1.208L37.071,51.607z M56.712,39.429
		l-2.839,2.839l-4.243-4.243l2.839-2.839c0.372-0.373,1.021-0.373,1.393,0l2.85,2.85C57.096,38.419,57.096,39.045,56.712,39.429z"/>
	<path d="M55.001,2.832C55.001,1.271,53.73,0,52.169,0H3.833C2.271,0,1.001,1.271,1.001,2.832V29h54V2.832z M37.001,14.495
		c0,1.933-1.572,3.505-3.504,3.505H22.506c-1.933,0-3.505-1.572-3.505-3.505V13c0-0.553,0.448-1,1-1s1,0.447,1,1v1.495
		c0,0.83,0.675,1.505,1.505,1.505h10.991c0.83,0,1.504-0.675,1.504-1.505V13c0-0.553,0.448-1,1-1s1,0.447,1,1V14.495z"/>
	<path d="M33.594,46.99C33.561,46.991,33.53,47,33.496,47H22.506c-1.933,0-3.505-1.572-3.505-3.505V42c0-0.553,0.448-1,1-1
		s1,0.447,1,1v1.495c0,0.83,0.675,1.505,1.505,1.505h10.991c0.83,0,1.504-0.675,1.504-1.505V42c0-0.553,0.448-1,1-1s1,0.447,1,1
		v1.495c0,0.034-0.009,0.065-0.01,0.099L48.934,31.65c0.242-0.242,0.504-0.456,0.778-0.65H1.001v26.168
		C1.001,58.729,2.271,60,3.833,60H29.6l3.38-12.396L33.594,46.99z"/>
</g>
<g>
</g>
<g>
</g>
<g>
</g>
<g>
</g>
<g>
</g>
<g>
</g>
<g>
</g>
<g>
</g>
<g>
</g>
<g>
</g>
<g>
</g>
<g>
</g>
<g>
</g>
<g>
</g>
<g>
</g>
</svg>
