<?xml version="1.0" encoding="iso-8859-1"?>
<!-- Generator: Adobe Illustrator 18.0.0, SVG Export Plug-In . SVG Version: 6.00 Build 0)  -->
<!DOCTYPE svg PUBLIC "-//W3C//DTD SVG 1.1//EN" "http://www.w3.org/Graphics/SVG/1.1/DTD/svg11.dtd">
<svg version="1.1" id="Capa_1" xmlns="http://www.w3.org/2000/svg" xmlns:xlink="http://www.w3.org/1999/xlink" x="0px" y="0px"
	 viewBox="0 0 60 60" style="enable-background:new 0 0 60 60;" xml:space="preserve">
<g>
	<path d="M55,47.166c-0.43-4.107-3.853-7.333-7.954-7.333c-2.564,0-4.983,1.287-6.479,3.402c-0.292-0.051-0.588-0.076-0.884-0.076
		c-2.32,0-4.381,1.577-5.066,3.813c-1.907,1.131-3.116,3.241-3.116,5.502c0,3.506,2.785,6.358,6.208,6.358h10.774
		c0.058,0,0.114-0.003,0.188-0.007c0.057,0.004,0.114,0.007,0.172,0.007h4.31c3.225,0,5.849-2.687,5.849-5.989
		C59,50.244,57.358,47.971,55,47.166z M53.151,56.833l-4.349-0.003l-0.173-0.005l-10.922,0.008c-2.32,0-4.208-1.955-4.208-4.358
		c0-1.665,0.949-3.21,2.417-3.935l0.435-0.214l0.102-0.475c0.331-1.56,1.689-2.692,3.229-2.692c0.344,0,0.687,0.057,1.019,0.169
		l0.777,0.261l0.409-0.711c1.079-1.878,3.057-3.045,5.158-3.045c3.265,0,5.955,2.747,5.999,6.124l0.011,0.814l0.799,0.154
		C55.677,49.279,57,50.927,57,52.844C57,55.043,55.273,56.833,53.151,56.833z"/>
	<path d="M55,2.832C55,1.271,53.729,0,52.168,0H3.833C2.271,0,1,1.271,1,2.832V29h54V2.832z M37,14.495
		C37,16.428,35.428,18,33.496,18H22.505C20.572,18,19,16.428,19,14.495V13c0-0.553,0.448-1,1-1s1,0.447,1,1v1.495
		C21,15.325,21.675,16,22.505,16h10.991C34.325,16,35,15.325,35,14.495V13c0-0.553,0.448-1,1-1s1,0.447,1,1V14.495z"/>
	<path d="M28.5,52.475c0-1.985,0.645-3.894,1.775-5.475h-7.771C20.572,47,19,45.428,19,43.495V42c0-0.553,0.448-1,1-1s1,0.447,1,1
		v1.495C21,44.325,21.675,45,22.505,45h9.666c0.666-1.427,3.437-4,3.829-4c0.02,0,0.037,0.01,0.057,0.011
		c0.976-0.482,2.048-0.777,3.166-0.839c2.066-2.127,4.894-3.339,7.823-3.339c3.064,0,5.92,1.337,7.954,3.506V31H1v26.168
		C1,58.729,2.271,60,3.833,60h28.425C29.984,58.294,28.5,55.561,28.5,52.475z"/>
</g>
<g>
</g>
<g>
</g>
<g>
</g>
<g>
</g>
<g>
</g>
<g>
</g>
<g>
</g>
<g>
</g>
<g>
</g>
<g>
</g>
<g>
</g>
<g>
</g>
<g>
</g>
<g>
</g>
<g>
</g>
</svg>
