<?xml version="1.0" encoding="iso-8859-1"?>
<!-- Generator: Adobe Illustrator 18.0.0, SVG Export Plug-In . SVG Version: 6.00 Build 0)  -->
<!DOCTYPE svg PUBLIC "-//W3C//DTD SVG 1.1//EN" "http://www.w3.org/Graphics/SVG/1.1/DTD/svg11.dtd">
<svg version="1.1" id="Capa_1" xmlns="http://www.w3.org/2000/svg" xmlns:xlink="http://www.w3.org/1999/xlink" x="0px" y="0px"
	 viewBox="0 0 60 60" style="enable-background:new 0 0 60 60;" xml:space="preserve">
<g>
	<path d="M58.723,58.309l-5.969-6.244c1.746-1.918,2.82-4.458,2.82-7.25c0-5.953-4.843-10.796-10.796-10.796
		s-10.796,4.843-10.796,10.796S38.824,55.61,44.777,55.61c2.441,0,4.688-0.824,6.499-2.196l6.001,6.277
		C57.474,59.896,57.736,60,58,60c0.249,0,0.497-0.092,0.691-0.277C59.09,59.341,59.105,58.708,58.723,58.309z M35.982,44.814
		c0-4.85,3.946-8.796,8.796-8.796s8.796,3.946,8.796,8.796s-3.946,8.796-8.796,8.796S35.982,49.664,35.982,44.814z"/>
	<path d="M55,2.832C55,1.271,53.73,0,52.168,0H3.833C2.271,0,1,1.271,1,2.832V29h54V2.832z M37,14.495
		C37,16.428,35.428,18,33.496,18H22.505C20.572,18,19,16.428,19,14.495V13c0-0.553,0.448-1,1-1s1,0.447,1,1v1.495
		C21,15.325,21.675,16,22.505,16h10.991C34.325,16,35,15.325,35,14.495V13c0-0.553,0.448-1,1-1s1,0.447,1,1V14.495z"/>
	<path d="M31.397,47h-8.892C20.572,47,19,45.428,19,43.495V42c0-0.553,0.448-1,1-1s1,0.447,1,1v1.495C21,44.325,21.675,45,22.505,45
		h8.709c-0.001-0.069-0.01-0.135-0.01-0.204C31.204,37.188,42,31,42,31H1v26.168C1,58.729,2.271,60,3.833,60H45v-1.408
		C38.145,58.592,32.458,53.561,31.397,47z"/>
</g>
<g>
</g>
<g>
</g>
<g>
</g>
<g>
</g>
<g>
</g>
<g>
</g>
<g>
</g>
<g>
</g>
<g>
</g>
<g>
</g>
<g>
</g>
<g>
</g>
<g>
</g>
<g>
</g>
<g>
</g>
</svg>
