<?xml version="1.0" encoding="iso-8859-1"?>
<!-- Generator: Adobe Illustrator 18.0.0, SVG Export Plug-In . SVG Version: 6.00 Build 0)  -->
<!DOCTYPE svg PUBLIC "-//W3C//DTD SVG 1.1//EN" "http://www.w3.org/Graphics/SVG/1.1/DTD/svg11.dtd">
<svg version="1.1" id="Capa_1" xmlns="http://www.w3.org/2000/svg" xmlns:xlink="http://www.w3.org/1999/xlink" x="0px" y="0px"
	 viewBox="0 0 60 60" style="enable-background:new 0 0 60 60;" xml:space="preserve">
<g>
	<path d="M58.188,44.863l-1.444-0.277c-0.677-0.13-1.21-0.573-1.462-1.216c-0.253-0.642-0.163-1.329,0.245-1.885l0.907-1.236
		c0.292-0.398,0.25-0.95-0.1-1.299l-1.959-1.958c-0.339-0.338-0.872-0.389-1.268-0.121l-1.217,0.824
		c-0.331,0.224-0.71,0.343-1.099,0.343c-0.844,0-1.787-0.576-1.956-1.676l-0.233-1.515C48.528,34.36,48.108,34,47.615,34h-2.77
		c-0.479,0-0.892,0.341-0.982,0.812l-0.358,1.865c-0.201,1.051-1.13,1.601-1.942,1.601c-0.389,0-0.769-0.118-1.099-0.342
		l-1.572-1.064c-0.397-0.268-0.929-0.217-1.268,0.121l-1.959,1.958c-0.35,0.349-0.392,0.9-0.1,1.299l0.907,1.236
		c0.408,0.556,0.498,1.243,0.245,1.885c-0.252,0.643-0.785,1.086-1.462,1.216l-1.444,0.277C33.341,44.954,33,45.366,33,45.846v2.77
		c0,0.493,0.36,0.913,0.848,0.988l1.515,0.233c0.683,0.105,1.232,0.528,1.508,1.16c0.276,0.633,0.212,1.323-0.175,1.895
		l-0.824,1.217c-0.269,0.396-0.218,0.929,0.121,1.268l1.958,1.959c0.348,0.348,0.899,0.391,1.299,0.1l1.236-0.907
		c0.342-0.252,0.742-0.385,1.156-0.385c0.813,0,1.742,0.551,1.944,1.602l0.277,1.444C43.954,59.659,44.366,60,44.846,60h2.77
		c0.493,0,0.913-0.36,0.988-0.848l0.164-1.065c0.169-1.1,1.113-1.676,1.958-1.676c0.413,0,0.813,0.134,1.156,0.386l0.869,0.638
		c0.4,0.293,0.951,0.25,1.299-0.1l1.958-1.959c0.339-0.339,0.39-0.871,0.121-1.268l-0.824-1.217
		c-0.387-0.571-0.451-1.262-0.175-1.895c0.275-0.632,0.825-1.055,1.508-1.16l1.515-0.233C58.64,49.528,59,49.108,59,48.615v-2.77
		C59,45.366,58.659,44.954,58.188,44.863z M57,47.758l-0.667,0.103c-1.354,0.208-2.489,1.082-3.036,2.337
		c-0.548,1.256-0.416,2.682,0.352,3.815l0.361,0.533l-0.768,0.768l-0.177-0.13c-0.689-0.505-1.498-0.772-2.34-0.772
		c-1.979,0-3.635,1.418-3.935,3.371L46.758,58h-1.086l-0.121-0.633c-0.359-1.868-2.004-3.225-3.909-3.225
		c-0.843,0-1.651,0.268-2.34,0.771l-0.544,0.399l-0.768-0.768l0.361-0.533c0.768-1.134,0.899-2.56,0.352-3.815
		c-0.547-1.255-1.683-2.129-3.036-2.337L35,47.758v-1.086l0.633-0.121c1.346-0.259,2.447-1.175,2.947-2.449
		c0.5-1.275,0.315-2.695-0.494-3.8l-0.399-0.544l0.768-0.768l0.889,0.602c0.662,0.448,1.43,0.686,2.22,0.686
		c1.905,0,3.548-1.355,3.907-3.224L45.672,36h1.086l0.103,0.667c0.301,1.953,1.955,3.371,3.934,3.371
		c0.789,0,1.556-0.237,2.219-0.687l0.533-0.361l0.768,0.768l-0.399,0.544c-0.81,1.104-0.994,2.524-0.494,3.8
		c0.5,1.274,1.602,2.19,2.947,2.449L57,46.672V47.758z"/>
	<path d="M46,42c-2.757,0-5,2.243-5,5s2.243,5,5,5s5-2.243,5-5S48.757,42,46,42z M46,50c-1.654,0-3-1.346-3-3s1.346-3,3-3
		s3,1.346,3,3S47.654,50,46,50z"/>
	<path d="M55,2.832C55,1.271,53.729,0,52.168,0H3.833C2.271,0,1,1.271,1,2.832V29h54V2.832z M37,14.495
		C37,16.428,35.428,18,33.496,18H22.505C20.572,18,19,16.428,19,14.495V13c0-0.553,0.448-1,1-1s1,0.447,1,1v1.495
		C21,15.325,21.675,16,22.505,16h10.991C34.325,16,35,15.325,35,14.495V13c0-0.553,0.448-1,1-1s1,0.447,1,1V14.495z"/>
	<path d="M31.998,54.313l1.303-1.925l-2.453-0.378C30.36,51.935,30,51.515,30,51.021V47h-7.495C20.572,47,19,45.428,19,43.495V42
		c0-0.553,0.448-1,1-1s1,0.447,1,1v1.495C21,44.325,21.675,45,22.505,45H30v-1.798c0-0.479,0.34-0.892,0.811-0.982l2.281-0.439
		l-1.469-2c-0.292-0.398-0.25-0.95,0.1-1.299l5.533-5.529c0.339-0.339,0.873-0.389,1.268-0.121L41,34c0,0,0-2.542,0-3H1v26.168
		C1,58.729,2.271,60,3.833,60H36.54l-4.421-4.42C31.78,55.241,31.729,54.71,31.998,54.313z"/>
</g>
<g>
</g>
<g>
</g>
<g>
</g>
<g>
</g>
<g>
</g>
<g>
</g>
<g>
</g>
<g>
</g>
<g>
</g>
<g>
</g>
<g>
</g>
<g>
</g>
<g>
</g>
<g>
</g>
<g>
</g>
</svg>
