<?xml version="1.0" encoding="iso-8859-1"?>
<!-- Generator: Adobe Illustrator 18.0.0, SVG Export Plug-In . SVG Version: 6.00 Build 0)  -->
<!DOCTYPE svg PUBLIC "-//W3C//DTD SVG 1.1//EN" "http://www.w3.org/Graphics/SVG/1.1/DTD/svg11.dtd">
<svg version="1.1" id="Capa_1" xmlns="http://www.w3.org/2000/svg" xmlns:xlink="http://www.w3.org/1999/xlink" x="0px" y="0px"
	 viewBox="0 0 60 60" style="enable-background:new 0 0 60 60;" xml:space="preserve">
<g>
	<path d="M58.707,57.293l-6.797-6.797l6.484-3.242l-17.638-6.498l6.498,17.638l3.242-6.484l6.797,6.797
		C57.488,58.902,57.744,59,58,59s0.512-0.098,0.707-0.293C59.098,58.316,59.098,57.684,58.707,57.293z M44.131,44.131l9.233,3.402
		l-3.888,1.943l-1.943,3.888L44.131,44.131z"/>
	<path d="M55,2.832C55,1.271,53.729,0,52.168,0H3.833C2.271,0,1,1.271,1,2.832V29h54V2.832z M37,14.495
		C37,16.428,35.428,18,33.496,18H22.505C20.572,18,19,16.428,19,14.495V13c0-0.553,0.448-1,1-1s1,0.447,1,1v1.495
		C21,15.325,21.675,16,22.505,16h10.991C34.325,16,35,15.325,35,14.495V13c0-0.553,0.448-1,1-1s1,0.447,1,1V14.495z"/>
	<path d="M55,42.807V31H1v26.168C1,58.729,2.271,60,3.833,60h40.816l-8.955-24.306L55,42.807z M36,41c0.552,0,1,0.447,1,1v1.495
		C37,45.428,35.428,47,33.496,47H22.505C20.572,47,19,45.428,19,43.495V42c0-0.553,0.448-1,1-1s1,0.447,1,1v1.495
		C21,44.325,21.675,45,22.505,45h10.991C34.325,45,35,44.325,35,43.495V42C35,41.447,35.448,41,36,41z"/>
</g>
<g>
</g>
<g>
</g>
<g>
</g>
<g>
</g>
<g>
</g>
<g>
</g>
<g>
</g>
<g>
</g>
<g>
</g>
<g>
</g>
<g>
</g>
<g>
</g>
<g>
</g>
<g>
</g>
<g>
</g>
</svg>
