<?xml version="1.0" encoding="iso-8859-1"?>
<!-- Generator: Adobe Illustrator 18.0.0, SVG Export Plug-In . SVG Version: 6.00 Build 0)  -->
<!DOCTYPE svg PUBLIC "-//W3C//DTD SVG 1.1//EN" "http://www.w3.org/Graphics/SVG/1.1/DTD/svg11.dtd">
<svg version="1.1" id="Capa_1" xmlns="http://www.w3.org/2000/svg" xmlns:xlink="http://www.w3.org/1999/xlink" x="0px" y="0px"
	 viewBox="0 0 60 60" style="enable-background:new 0 0 60 60;" xml:space="preserve">
<g>
	<path d="M35,36v24h24V36H35z M57,58h-9V45.414l4.293,4.293l1.414-1.414L47,41.586l-6.707,6.707l1.414,1.414L46,45.414V58h-9V38h20
		V58z"/>
	<path d="M55,2.832C55,1.271,53.729,0,52.168,0H3.833C2.271,0,1,1.271,1,2.832V29h54V2.832z M37,14.495
		C37,16.428,35.428,18,33.496,18H22.505C20.572,18,19,16.428,19,14.495V13c0-0.553,0.448-1,1-1s1,0.447,1,1v1.495
		C21,15.325,21.675,16,22.505,16h10.991C34.325,16,35,15.325,35,14.495V13c0-0.553,0.448-1,1-1s1,0.447,1,1V14.495z"/>
	<path d="M55,31H1v26.168C1,58.729,2.271,60,3.833,60H32V47h-9.495C20.572,47,19,45.428,19,43.495V42c0-0.553,0.448-1,1-1
		s1,0.447,1,1v1.495C21,44.325,21.675,45,22.505,45H32V33h23V31z"/>
</g>
<g>
</g>
<g>
</g>
<g>
</g>
<g>
</g>
<g>
</g>
<g>
</g>
<g>
</g>
<g>
</g>
<g>
</g>
<g>
</g>
<g>
</g>
<g>
</g>
<g>
</g>
<g>
</g>
<g>
</g>
</svg>
