<?xml version="1.0" encoding="iso-8859-1"?>
<!-- Generator: Adobe Illustrator 18.0.0, SVG Export Plug-In . SVG Version: 6.00 Build 0)  -->
<!DOCTYPE svg PUBLIC "-//W3C//DTD SVG 1.1//EN" "http://www.w3.org/Graphics/SVG/1.1/DTD/svg11.dtd">
<svg version="1.1" id="Capa_1" xmlns="http://www.w3.org/2000/svg" xmlns:xlink="http://www.w3.org/1999/xlink" x="0px" y="0px"
	 viewBox="0 0 56 56" style="enable-background:new 0 0 56 56;" xml:space="preserve">
<g>
	<path d="M40.5,30c-3.764,0-7.317,1.581-9.75,4.338c-0.365,0.415-0.326,1.047,0.088,1.412c0.415,0.365,1.045,0.327,1.412-0.088
		C34.303,33.335,37.311,32,40.5,32c6.065,0,11,4.935,11,11s-4.935,11-11,11c-4.992,0-9.407-3.367-10.741-8H34.5v-2h-8v8h2v-3.663
		C30.593,52.867,35.281,56,40.5,56c7.168,0,13-5.832,13-13S47.668,30,40.5,30z"/>
	<polygon points="36.5,11 36.5,0 19.5,0 2.5,0 2.5,11 19.5,11 	"/>
	<path d="M36.5,26.382V13h-17h-17v41.443C2.5,55.302,3.199,56,4.059,56c0.412,0,0.801-0.162,1.091-0.452L19.5,41l4.259,4.317
		C23.6,44.4,23.5,43.462,23.5,42.5C23.5,34.604,29.079,27.993,36.5,26.382z"/>
</g>
<g>
</g>
<g>
</g>
<g>
</g>
<g>
</g>
<g>
</g>
<g>
</g>
<g>
</g>
<g>
</g>
<g>
</g>
<g>
</g>
<g>
</g>
<g>
</g>
<g>
</g>
<g>
</g>
<g>
</g>
</svg>
