<?xml version="1.0" encoding="iso-8859-1"?>
<!-- Generator: Adobe Illustrator 18.0.0, SVG Export Plug-In . SVG Version: 6.00 Build 0)  -->
<!DOCTYPE svg PUBLIC "-//W3C//DTD SVG 1.1//EN" "http://www.w3.org/Graphics/SVG/1.1/DTD/svg11.dtd">
<svg version="1.1" id="Capa_1" xmlns="http://www.w3.org/2000/svg" xmlns:xlink="http://www.w3.org/1999/xlink" x="0px" y="0px"
	 viewBox="0 0 56 56" style="enable-background:new 0 0 56 56;" xml:space="preserve">
<g>
	<path d="M47,38v-1c0-3.859-3.14-7-7-7s-7,3.141-7,7v1h-4v18h22V38H47z M35,37c0-2.757,2.243-5,5-5s5,2.243,5,5v1H35V37z M49,54H31
		V40h2h14h2V54z"/>
	<path d="M40,43c-2.206,0-4,1.794-4,4c0,1.859,1.28,3.411,3,3.858V52c0,0.553,0.448,1,1,1s1-0.447,1-1v-1.142
		c1.72-0.447,3-1.999,3-3.858C44,44.794,42.206,43,40,43z M40,49c-1.103,0-2-0.897-2-2s0.897-2,2-2s2,0.897,2,2S41.103,49,40,49z"/>
	<polygon points="39,11 39,0 22,0 5,0 5,11 22,11 	"/>
	<path d="M39,26.191V13H22H5v41.443C5,55.302,5.699,56,6.559,56c0.412,0,0.801-0.162,1.091-0.452L22,41l4,4.055V34h4.426
		C31.558,30.017,34.876,26.953,39,26.191z"/>
</g>
<g>
</g>
<g>
</g>
<g>
</g>
<g>
</g>
<g>
</g>
<g>
</g>
<g>
</g>
<g>
</g>
<g>
</g>
<g>
</g>
<g>
</g>
<g>
</g>
<g>
</g>
<g>
</g>
<g>
</g>
</svg>
