<?xml version="1.0" encoding="iso-8859-1"?>
<!-- Generator: Adobe Illustrator 18.0.0, SVG Export Plug-In . SVG Version: 6.00 Build 0)  -->
<!DOCTYPE svg PUBLIC "-//W3C//DTD SVG 1.1//EN" "http://www.w3.org/Graphics/SVG/1.1/DTD/svg11.dtd">
<svg version="1.1" id="Capa_1" xmlns="http://www.w3.org/2000/svg" xmlns:xlink="http://www.w3.org/1999/xlink" x="0px" y="0px"
	 viewBox="0 0 56 56" style="enable-background:new 0 0 56 56;" xml:space="preserve">
<g>
	<path d="M50.626,31.724l-2.85-2.85c-1.128-1.127-3.092-1.127-4.221,0L28.164,44.265l-2.121,7.779l-0.519,0.519
		c-0.388,0.388-0.389,1.014-0.006,1.405l-0.005,0.02l0.019-0.005c0.194,0.191,0.446,0.288,0.699,0.288
		c0.256,0,0.512-0.098,0.707-0.293l0.52-0.52l7.778-2.121l15.39-15.391C51.79,34.781,51.79,32.888,50.626,31.724z M30.474,44.784
		l10.243-10.243l4.243,4.242L34.717,49.027L30.474,44.784z M29.571,46.71l3.22,3.22l-4.428,1.208L29.571,46.71z M49.212,34.531
		l-2.839,2.839l-4.243-4.242l2.839-2.839c0.373-0.373,1.022-0.372,1.394-0.001l2.85,2.85C49.596,33.521,49.596,34.147,49.212,34.531
		z"/>
	<polygon points="38.501,11 38.501,0 21.501,0 4.501,0 4.501,11 21.501,11 	"/>
	<path d="M38.501,29.272V13h-17h-17v41.443C4.501,55.302,5.2,56,6.06,56c0.412,0,0.801-0.162,1.091-0.452L21.501,41l3.453,3.501
		l0.631-2.313L38.501,29.272z"/>
</g>
<g>
</g>
<g>
</g>
<g>
</g>
<g>
</g>
<g>
</g>
<g>
</g>
<g>
</g>
<g>
</g>
<g>
</g>
<g>
</g>
<g>
</g>
<g>
</g>
<g>
</g>
<g>
</g>
<g>
</g>
</svg>
