<?xml version="1.0" encoding="iso-8859-1"?>
<!-- Generator: Adobe Illustrator 18.0.0, SVG Export Plug-In . SVG Version: 6.00 Build 0)  -->
<!DOCTYPE svg PUBLIC "-//W3C//DTD SVG 1.1//EN" "http://www.w3.org/Graphics/SVG/1.1/DTD/svg11.dtd">
<svg version="1.1" id="Capa_1" xmlns="http://www.w3.org/2000/svg" xmlns:xlink="http://www.w3.org/1999/xlink" x="0px" y="0px"
	 viewBox="0 0 56 56" style="enable-background:new 0 0 56 56;" xml:space="preserve">
<g>
	<path d="M50.25,43.332C49.82,39.225,46.397,36,42.296,36c-2.565,0-4.984,1.286-6.479,3.402c-0.292-0.051-0.588-0.076-0.884-0.076
		c-2.32,0-4.381,1.577-5.066,3.813c-1.907,1.131-3.116,3.241-3.116,5.503c0,3.506,2.785,6.358,6.208,6.358h10.774
		c0.063,0,0.124-0.004,0.172-0.008C43.966,54.996,44.028,55,44.092,55h4.31c3.225,0,5.849-2.687,5.849-5.989
		C54.25,46.411,52.608,44.138,50.25,43.332z M48.401,53l-4.352-0.003l-0.186-0.006L32.958,53c-2.32,0-4.208-1.955-4.208-4.358
		c0-1.666,0.948-3.21,2.417-3.935l0.435-0.214l0.102-0.475c0.331-1.56,1.689-2.692,3.229-2.692c0.344,0,0.687,0.057,1.019,0.169
		l0.777,0.261l0.409-0.711C38.233,39.139,40.161,38,42.296,38c3.265,0,5.955,2.747,5.999,6.123l0.011,0.813l0.799,0.155
		c1.822,0.354,3.146,2.002,3.146,3.919C52.25,51.21,50.523,53,48.401,53z"/>
	<rect x="1.75" width="34" height="11"/>
	<path d="M34.027,35.371c0.533-0.514,1.112-0.972,1.723-1.376V13h-34v41.443C1.75,55.302,2.449,56,3.309,56
		c0.412,0,0.801-0.162,1.091-0.452L18.75,41l4.489,4.551c0.609-1.943,1.768-3.702,3.368-5.002
		C28.049,37.637,30.849,35.688,34.027,35.371z"/>
</g>
<g>
</g>
<g>
</g>
<g>
</g>
<g>
</g>
<g>
</g>
<g>
</g>
<g>
</g>
<g>
</g>
<g>
</g>
<g>
</g>
<g>
</g>
<g>
</g>
<g>
</g>
<g>
</g>
<g>
</g>
</svg>
