<?xml version="1.0" encoding="iso-8859-1"?>
<!-- Generator: Adobe Illustrator 18.0.0, SVG Export Plug-In . SVG Version: 6.00 Build 0)  -->
<!DOCTYPE svg PUBLIC "-//W3C//DTD SVG 1.1//EN" "http://www.w3.org/Graphics/SVG/1.1/DTD/svg11.dtd">
<svg version="1.1" id="Capa_1" xmlns="http://www.w3.org/2000/svg" xmlns:xlink="http://www.w3.org/1999/xlink" x="0px" y="0px"
	 viewBox="0 0 56 56" style="enable-background:new 0 0 56 56;" xml:space="preserve">
<g>
	<path d="M40.5,31c-6.617,0-12,5.383-12,12s5.383,12,12,12s12-5.383,12-12S47.117,31,40.5,31z M40.5,53c-5.514,0-10-4.486-10-10
		s4.486-10,10-10s10,4.486,10,10S46.014,53,40.5,53z"/>
	<path d="M46.5,42h-5v-5c0-0.553-0.447-1-1-1s-1,0.447-1,1v6c0,0.553,0.447,1,1,1h6c0.553,0,1-0.447,1-1S47.053,42,46.5,42z"/>
	<polygon points="37.5,11 37.5,0 20.5,0 3.5,0 3.5,11 20.5,11 	"/>
	<path d="M37.5,27.292V13h-17h-17v41.443C3.5,55.302,4.199,56,5.059,56c0.412,0,0.801-0.162,1.091-0.452L20.5,41l4.174,4.232
		C24.572,44.5,24.5,43.759,24.5,43C24.5,35.204,30.108,28.701,37.5,27.292z"/>
</g>
<g>
</g>
<g>
</g>
<g>
</g>
<g>
</g>
<g>
</g>
<g>
</g>
<g>
</g>
<g>
</g>
<g>
</g>
<g>
</g>
<g>
</g>
<g>
</g>
<g>
</g>
<g>
</g>
<g>
</g>
</svg>
