<?xml version="1.0" encoding="iso-8859-1"?>
<!-- Generator: Adobe Illustrator 18.0.0, SVG Export Plug-In . SVG Version: 6.00 Build 0)  -->
<!DOCTYPE svg PUBLIC "-//W3C//DTD SVG 1.1//EN" "http://www.w3.org/Graphics/SVG/1.1/DTD/svg11.dtd">
<svg version="1.1" id="Capa_1" xmlns="http://www.w3.org/2000/svg" xmlns:xlink="http://www.w3.org/1999/xlink" x="0px" y="0px"
	 viewBox="0 0 56 56" style="enable-background:new 0 0 56 56;" xml:space="preserve">
<g>
	<path d="M55.188,40.863l-1.444-0.277c-0.677-0.13-1.21-0.573-1.462-1.216c-0.253-0.642-0.163-1.329,0.245-1.885l0.907-1.236
		c0.292-0.398,0.25-0.95-0.1-1.299l-1.959-1.958c-0.338-0.339-0.872-0.389-1.268-0.121l-1.217,0.824
		c-0.331,0.224-0.71,0.343-1.099,0.343c-0.844,0-1.787-0.576-1.956-1.676l-0.233-1.515C45.528,30.36,45.108,30,44.615,30h-2.77
		c-0.479,0-0.892,0.341-0.982,0.812l-0.358,1.865c-0.201,1.051-1.13,1.601-1.942,1.601c-0.389,0-0.769-0.118-1.099-0.342
		l-1.572-1.064c-0.397-0.268-0.928-0.218-1.268,0.121l-1.959,1.958c-0.35,0.349-0.392,0.9-0.1,1.299l0.907,1.236
		c0.408,0.556,0.498,1.243,0.245,1.885c-0.252,0.643-0.785,1.086-1.462,1.216l-1.444,0.277C30.341,40.954,30,41.366,30,41.846v2.77
		c0,0.493,0.36,0.913,0.848,0.988l1.515,0.233c0.683,0.105,1.232,0.528,1.508,1.16c0.276,0.633,0.212,1.323-0.175,1.895
		l-0.824,1.217c-0.269,0.396-0.218,0.929,0.121,1.268l1.958,1.959c0.349,0.348,0.898,0.391,1.299,0.1l1.236-0.907
		c0.342-0.252,0.742-0.385,1.156-0.385c0.813,0,1.742,0.551,1.944,1.602l0.277,1.444C40.954,55.659,41.366,56,41.846,56h2.77
		c0.493,0,0.913-0.36,0.988-0.848l0.164-1.065c0.169-1.1,1.113-1.676,1.958-1.676c0.413,0,0.813,0.134,1.156,0.386l0.869,0.638
		c0.399,0.292,0.951,0.249,1.299-0.1l1.958-1.959c0.339-0.339,0.39-0.871,0.121-1.268l-0.824-1.217
		c-0.387-0.571-0.451-1.262-0.175-1.895c0.275-0.632,0.825-1.055,1.508-1.16l1.515-0.233C55.64,45.528,56,45.108,56,44.615v-2.77
		C56,41.366,55.659,40.954,55.188,40.863z M54,43.758l-0.667,0.103c-1.354,0.208-2.489,1.082-3.036,2.337
		c-0.548,1.256-0.416,2.682,0.352,3.815l0.361,0.533l-0.768,0.768l-0.177-0.13c-0.689-0.505-1.498-0.772-2.34-0.772
		c-1.979,0-3.635,1.418-3.935,3.371L43.758,54h-1.086l-0.121-0.633c-0.359-1.868-2.004-3.225-3.909-3.225
		c-0.843,0-1.651,0.268-2.34,0.771l-0.544,0.399l-0.768-0.768l0.361-0.533c0.768-1.134,0.899-2.56,0.352-3.815
		c-0.547-1.255-1.683-2.129-3.036-2.337L32,43.758v-1.086l0.633-0.121c1.346-0.259,2.447-1.175,2.947-2.449
		c0.5-1.275,0.315-2.695-0.494-3.8l-0.399-0.544l0.768-0.768l0.889,0.602c0.662,0.448,1.43,0.686,2.22,0.686
		c1.905,0,3.548-1.355,3.907-3.224L42.672,32h1.086l0.103,0.667c0.301,1.953,1.955,3.371,3.934,3.371
		c0.789,0,1.556-0.237,2.219-0.687l0.533-0.361l0.768,0.768l-0.399,0.544c-0.81,1.104-0.994,2.524-0.494,3.8
		c0.5,1.274,1.602,2.19,2.947,2.449L54,42.672V43.758z"/>
	<path d="M43,38c-2.757,0-5,2.243-5,5s2.243,5,5,5s5-2.243,5-5S45.757,38,43,38z M43,46c-1.654,0-3-1.346-3-3s1.346-3,3-3
		s3,1.346,3,3S44.654,46,43,46z"/>
	<path d="M1,16h50c0.552,0,1-0.447,1-1V1c0-0.553-0.448-1-1-1H1C0.448,0,0,0.447,0,1v14C0,15.553,0.448,16,1,16z M26,4
		c2.206,0,4,1.794,4,4s-1.794,4-4,4s-4-1.794-4-4S23.794,4,26,4z M17,4c2.206,0,4,1.794,4,4s-1.794,4-4,4s-4-1.794-4-4
		S14.794,4,17,4z M8,4c2.206,0,4,1.794,4,4s-1.794,4-4,4s-4-1.794-4-4S5.794,4,8,4z"/>
	<path d="M27,47.188v-7.821c0-0.479,0.341-0.892,0.812-0.982l2.28-0.438l-1.469-2c-0.292-0.398-0.25-0.95,0.1-1.299l5.532-5.529
		c0.34-0.339,0.87-0.388,1.268-0.121l2.338,1.583l0.054-0.315l0.471-2.454C38.476,27.341,38.888,27,39.367,27h7.821
		c0.493,0,0.913,0.36,0.988,0.848l0.378,2.453l1.922-1.303c0.396-0.267,0.93-0.218,1.268,0.121L52,29.375v-1.563V19
		c0-0.553-0.448-1-1-1H1c-0.552,0-1,0.447-1,1v31c0,0.553,0.448,1,1,1h27.841c0.007-0.182,0.049-0.364,0.157-0.523l1.303-1.923
		l-2.453-0.377C27.36,48.102,27,47.682,27,47.188z"/>
</g>
<g>
</g>
<g>
</g>
<g>
</g>
<g>
</g>
<g>
</g>
<g>
</g>
<g>
</g>
<g>
</g>
<g>
</g>
<g>
</g>
<g>
</g>
<g>
</g>
<g>
</g>
<g>
</g>
<g>
</g>
</svg>
