<?xml version="1.0" encoding="iso-8859-1"?>
<!-- Generator: Adobe Illustrator 18.0.0, SVG Export Plug-In . SVG Version: 6.00 Build 0)  -->
<!DOCTYPE svg PUBLIC "-//W3C//DTD SVG 1.1//EN" "http://www.w3.org/Graphics/SVG/1.1/DTD/svg11.dtd">
<svg version="1.1" id="Capa_1" xmlns="http://www.w3.org/2000/svg" xmlns:xlink="http://www.w3.org/1999/xlink" x="0px" y="0px"
	 viewBox="0 0 55 55" style="enable-background:new 0 0 55 55;" xml:space="preserve">
<g>
	<path d="M54,53h-1v-2.36c0-3.535-1.845-6.748-4.827-8.64C51.155,40.108,53,36.895,53,33.36V31h1c0.553,0,1-0.447,1-1s-0.447-1-1-1
		h-1h-1H38h-1h-1c-0.553,0-1,0.447-1,1s0.447,1,1,1h1v2.36c0,3.535,1.845,6.748,4.827,8.64C38.845,43.892,37,47.105,37,50.64V53h-1
		c-0.553,0-1,0.447-1,1s0.447,1,1,1h1h1h14h1h1c0.553,0,1-0.447,1-1S54.553,53,54,53z M39,33.36V31h12v2.36
		c0,3.319-2.033,6.298-5.197,7.64h-1.605C41.033,39.658,39,36.68,39,33.36z M39,50.64c0-3.319,2.033-6.298,5.197-7.64h1.605
		C48.967,44.342,51,47.32,51,50.64V53H39V50.64z"/>
	<path d="M1,16h50c0.552,0,1-0.447,1-1V1c0-0.553-0.448-1-1-1H1C0.448,0,0,0.447,0,1v14C0,15.553,0.448,16,1,16z M26,4
		c2.206,0,4,1.794,4,4s-1.794,4-4,4s-4-1.794-4-4S23.794,4,26,4z M17,4c2.206,0,4,1.794,4,4s-1.794,4-4,4s-4-1.794-4-4
		S14.794,4,17,4z M8,4c2.206,0,4,1.794,4,4s-1.794,4-4,4s-4-1.794-4-4S5.794,4,8,4z"/>
	<path d="M34,33.36V26h18v-7c0-0.553-0.448-1-1-1H1c-0.552,0-1,0.447-1,1v31c0,0.553,0.448,1,1,1h33v-0.36
		c0-3.247,1.199-6.279,3.262-8.64C35.199,39.64,34,36.607,34,33.36z"/>
</g>
<g>
</g>
<g>
</g>
<g>
</g>
<g>
</g>
<g>
</g>
<g>
</g>
<g>
</g>
<g>
</g>
<g>
</g>
<g>
</g>
<g>
</g>
<g>
</g>
<g>
</g>
<g>
</g>
<g>
</g>
</svg>
