<?xml version="1.0" encoding="iso-8859-1"?>
<!-- Generator: Adobe Illustrator 18.0.0, SVG Export Plug-In . SVG Version: 6.00 Build 0)  -->
<!DOCTYPE svg PUBLIC "-//W3C//DTD SVG 1.1//EN" "http://www.w3.org/Graphics/SVG/1.1/DTD/svg11.dtd">
<svg version="1.1" id="Capa_1" xmlns="http://www.w3.org/2000/svg" xmlns:xlink="http://www.w3.org/1999/xlink" x="0px" y="0px"
	 viewBox="0 0 56 56" style="enable-background:new 0 0 56 56;" xml:space="preserve">
<g>
	<path d="M55.954,39.109c-0.399-4.089-3.452-7.052-7.271-7.052c-2.396,0-4.407,1.449-5.684,3.213
		c-1.276-1.764-3.288-3.213-5.684-3.213c-3.819,0-6.871,2.963-7.271,7.052c-0.042,0.268-0.144,1.22,0.226,2.709
		c0.546,2.197,1.801,4.192,3.631,5.77l8.329,7.127C42.445,54.898,42.719,55,43,55s0.555-0.102,0.769-0.284l8.331-7.129
		c1.828-1.575,3.083-3.57,3.629-5.768C56.099,40.329,55.996,39.376,55.954,39.109z M53.787,41.337
		c-0.445,1.794-1.479,3.432-2.99,4.732L43,52.741l-7.795-6.671c-1.513-1.303-2.547-2.94-2.992-4.734
		c-0.302-1.213-0.194-1.897-0.194-1.897l0.016-0.105c0.245-2.621,2.138-5.275,5.282-5.275c2.189,0,3.974,1.811,4.77,3.605L43,39.723
		l0.914-2.061c0.796-1.795,2.58-3.605,4.77-3.605c3.145,0,5.037,2.654,5.295,5.366C53.98,39.43,54.091,40.115,53.787,41.337z"/>
	<path d="M1,17h50c0.552,0,1-0.447,1-1V2c0-0.553-0.448-1-1-1H1C0.448,1,0,1.447,0,2v14C0,16.553,0.448,17,1,17z M26,5
		c2.206,0,4,1.794,4,4s-1.794,4-4,4s-4-1.794-4-4S23.794,5,26,5z M17,5c2.206,0,4,1.794,4,4s-1.794,4-4,4s-4-1.794-4-4
		S14.794,5,17,5z M8,5c2.206,0,4,1.794,4,4s-1.794,4-4,4s-4-1.794-4-4S5.794,5,8,5z"/>
	<path d="M27.359,42.541c-0.46-1.858-0.379-3.19-0.289-3.82c0.564-5.492,4.971-9.663,10.246-9.663c1.994,0,3.983,0.686,5.684,1.946
		c1.7-1.261,3.689-1.946,5.684-1.946c1.159,0,2.272,0.212,3.316,0.585v-0.831V20c0-0.553-0.448-1-1-1H1c-0.552,0-1,0.447-1,1v31
		c0,0.553,0.448,1,1,1h33.445l-2.492-2.133C29.644,47.878,28.057,45.345,27.359,42.541z"/>
</g>
<g>
</g>
<g>
</g>
<g>
</g>
<g>
</g>
<g>
</g>
<g>
</g>
<g>
</g>
<g>
</g>
<g>
</g>
<g>
</g>
<g>
</g>
<g>
</g>
<g>
</g>
<g>
</g>
<g>
</g>
</svg>
