<?xml version="1.0" encoding="iso-8859-1"?>
<!-- Generator: Adobe Illustrator 18.0.0, SVG Export Plug-In . SVG Version: 6.00 Build 0)  -->
<!DOCTYPE svg PUBLIC "-//W3C//DTD SVG 1.1//EN" "http://www.w3.org/Graphics/SVG/1.1/DTD/svg11.dtd">
<svg version="1.1" id="Capa_1" xmlns="http://www.w3.org/2000/svg" xmlns:xlink="http://www.w3.org/1999/xlink" x="0px" y="0px"
	 viewBox="0 0 57 57" style="enable-background:new 0 0 57 57;" xml:space="preserve">
<g>
	<path d="M56.707,53.071l-6.797-6.797l6.484-3.242l-17.638-6.498l6.498,17.637l3.241-6.483l6.798,6.797
		c0.195,0.195,0.451,0.293,0.707,0.293s0.512-0.098,0.707-0.293C57.098,54.095,57.098,53.462,56.707,53.071z M42.131,39.909
		l9.233,3.402l-3.888,1.943l-1.943,3.887L42.131,39.909z"/>
	<path d="M1,18.222h50c0.552,0,1-0.447,1-1v-14c0-0.553-0.448-1-1-1H1c-0.552,0-1,0.447-1,1v14C0,17.774,0.448,18.222,1,18.222z
		 M26,6.222c2.206,0,4,1.794,4,4s-1.794,4-4,4s-4-1.794-4-4S23.794,6.222,26,6.222z M17,6.222c2.206,0,4,1.794,4,4s-1.794,4-4,4
		s-4-1.794-4-4S14.794,6.222,17,6.222z M8,6.222c2.206,0,4,1.794,4,4s-1.794,4-4,4s-4-1.794-4-4S5.794,6.222,8,6.222z"/>
	<path d="M52,38.216v-8.183v-8.812c0-0.553-0.448-1-1-1H1c-0.552,0-1,0.447-1,1v31c0,0.553,0.448,1,1,1h40.707l-8.013-21.75
		L52,38.216z"/>
</g>
<g>
</g>
<g>
</g>
<g>
</g>
<g>
</g>
<g>
</g>
<g>
</g>
<g>
</g>
<g>
</g>
<g>
</g>
<g>
</g>
<g>
</g>
<g>
</g>
<g>
</g>
<g>
</g>
<g>
</g>
</svg>
