<?xml version="1.0" encoding="iso-8859-1"?>
<!-- Generator: Adobe Illustrator 18.0.0, SVG Export Plug-In . SVG Version: 6.00 Build 0)  -->
<!DOCTYPE svg PUBLIC "-//W3C//DTD SVG 1.1//EN" "http://www.w3.org/Graphics/SVG/1.1/DTD/svg11.dtd">
<svg version="1.1" id="Capa_1" xmlns="http://www.w3.org/2000/svg" xmlns:xlink="http://www.w3.org/1999/xlink" x="0px" y="0px"
	 viewBox="0 0 56.167 56.167" style="enable-background:new 0 0 56.167 56.167;" xml:space="preserve">
<g>
	<path d="M32.167,32.167v24h24v-24H32.167z M54.167,54.167h-9V41.581l4.293,4.293l1.414-1.414l-6.707-6.707L37.46,44.46l1.414,1.414
		l4.293-4.293v12.586h-9v-20h20V54.167z"/>
	<path d="M1,16h50c0.552,0,1-0.447,1-1V1c0-0.553-0.448-1-1-1H1C0.448,0,0,0.447,0,1v14C0,15.553,0.448,16,1,16z M26,4
		c2.206,0,4,1.794,4,4s-1.794,4-4,4s-4-1.794-4-4S23.795,4,26,4z M17,4c2.206,0,4,1.794,4,4s-1.794,4-4,4s-4-1.794-4-4
		S14.795,4,17,4z M8,4c2.206,0,4,1.794,4,4s-1.794,4-4,4s-4-1.794-4-4S5.795,4,8,4z"/>
	<path d="M52,27.812V19c0-0.553-0.448-1-1-1H1c-0.552,0-1,0.447-1,1v31c0,0.553,0.448,1,1,1h28.167V29.167H52V27.812z"/>
</g>
<g>
</g>
<g>
</g>
<g>
</g>
<g>
</g>
<g>
</g>
<g>
</g>
<g>
</g>
<g>
</g>
<g>
</g>
<g>
</g>
<g>
</g>
<g>
</g>
<g>
</g>
<g>
</g>
<g>
</g>
</svg>
