<?xml version="1.0" encoding="iso-8859-1"?>
<!-- Generator: Adobe Illustrator 18.0.0, SVG Export Plug-In . SVG Version: 6.00 Build 0)  -->
<!DOCTYPE svg PUBLIC "-//W3C//DTD SVG 1.1//EN" "http://www.w3.org/Graphics/SVG/1.1/DTD/svg11.dtd">
<svg version="1.1" id="Capa_1" xmlns="http://www.w3.org/2000/svg" xmlns:xlink="http://www.w3.org/1999/xlink" x="0px" y="0px"
	 viewBox="0 0 59.005 59.005" style="enable-background:new 0 0 59.005 59.005;" xml:space="preserve">
<g>
	<path d="M57.488,57.298l-6.797-6.798l6.483-3.241l-17.636-6.5l6.496,17.638l3.242-6.484l6.797,6.798
		c0.195,0.195,0.451,0.293,0.707,0.293s0.512-0.098,0.707-0.293C57.878,58.321,57.878,57.688,57.488,57.298z M42.913,44.134
		l9.232,3.403l-3.887,1.943l-1.944,3.888L42.913,44.134z"/>
	<path d="M53.229,5.004c0-0.552-0.448-1-1-1l-5,0l0-3c0-0.553-0.448-1-1-1l-7-0.001c-0.552,0-1,0.447-1,1l0,3l-22-0.002l0-3
		c0-0.553-0.448-1-1-1L8.229,0c-0.552,0-1,0.447-1,1l0,3l-5,0c-0.552,0-1,0.448-1,1l-0.001,9l52,0.005L53.229,5.004z M14.229,5.001
		l0,3l-5,0l0-3l0-3l5,0L14.229,5.001z M45.229,5.004l0,3l-5,0l0-3l0-3l5,0L45.229,5.004z"/>
	<path d="M53.225,42.606l0.001-12.424l0.001-13.178c0-0.553-0.448-1-1-1l-50-0.005c-0.552,0-1,0.447-1,1l-0.004,39
		c0,0.553,0.448,1,1,1l40.1,0.004l-7.848-21.307L53.225,42.606z M38.227,22.003l8,0.001l-0.001,8l-4.515,0l-3.485,0L38.227,22.003z
		 M16.225,50.001l-8-0.001l0.001-8l8,0.001L16.225,50.001z M16.226,40.001l-8-0.001l0.001-8l8,0.001L16.226,40.001z M16.227,30.001
		l-8-0.001l0.001-8l8,0.001L16.227,30.001z M26.225,50.002l-7-0.001l-1,0l0.001-8l8,0.001L26.225,50.002z M26.226,40.002l-8-0.001
		l0.001-8l8,0.001L26.226,40.002z M26.227,30.002l-8-0.001l0.001-8l1,0l7,0.001L26.227,30.002z M28.227,22.002l7,0.001l1,0l-0.001,8
		l-8-0.001L28.227,22.002z"/>
</g>
<g>
</g>
<g>
</g>
<g>
</g>
<g>
</g>
<g>
</g>
<g>
</g>
<g>
</g>
<g>
</g>
<g>
</g>
<g>
</g>
<g>
</g>
<g>
</g>
<g>
</g>
<g>
</g>
<g>
</g>
</svg>
