<?xml version="1.0" encoding="iso-8859-1"?>
<!-- Generator: Adobe Illustrator 18.0.0, SVG Export Plug-In . SVG Version: 6.00 Build 0)  -->
<!DOCTYPE svg PUBLIC "-//W3C//DTD SVG 1.1//EN" "http://www.w3.org/Graphics/SVG/1.1/DTD/svg11.dtd">
<svg version="1.1" id="Capa_1" xmlns="http://www.w3.org/2000/svg" xmlns:xlink="http://www.w3.org/1999/xlink" x="0px" y="0px"
	 viewBox="0 0 58 58" style="enable-background:new 0 0 58 58;" xml:space="preserve">
<g>
	<path d="M45,30.5c-7.168,0-13,5.832-13,13s5.832,13,13,13s13-5.832,13-13S52.168,30.5,45,30.5z M45,54.5c-6.065,0-11-4.935-11-11
		s4.935-11,11-11s11,4.935,11,11S51.065,54.5,45,54.5z"/>
	<path d="M49.95,38.551c-0.391-0.391-1.023-0.391-1.414,0L45,42.086l-3.536-3.535c-0.391-0.391-1.023-0.391-1.414,0
		s-0.391,1.023,0,1.414l3.536,3.535l-3.536,3.535c-0.391,0.391-0.391,1.023,0,1.414c0.195,0.195,0.451,0.293,0.707,0.293
		s0.512-0.098,0.707-0.293L45,44.914l3.536,3.535c0.195,0.195,0.451,0.293,0.707,0.293s0.512-0.098,0.707-0.293
		c0.391-0.391,0.391-1.023,0-1.414L46.414,43.5l3.536-3.535C50.34,39.574,50.34,38.941,49.95,38.551z"/>
	<rect y="1.5" width="17" height="8"/>
	<rect x="34" y="1.5" width="17" height="8"/>
	<rect x="19" y="1.5" width="13" height="8"/>
	<path d="M28.744,20.402c-1.503,0-2.782,0.528-3.837,1.583c-1.056,1.056-1.583,2.34-1.583,3.854c0,1.514,0.527,2.793,1.583,3.837
		c1.055,1.044,2.34,1.565,3.854,1.565c1.514,0,2.793-0.521,3.837-1.565s1.565-2.34,1.565-3.889s-0.527-2.833-1.583-3.854
		C31.526,20.913,30.247,20.402,28.744,20.402z"/>
	<path d="M29.169,41.301c-0.483,0.064-0.98,0.108-1.509,0.108h-0.603v-1.893h0.74c0.631,0,1.22-0.101,1.789-0.25
		c0.804-2.921,2.412-5.504,4.577-7.504v-0.968c-1.445,1.561-3.217,2.341-5.316,2.341s-3.86-0.711-5.282-2.134
		c-1.423-1.423-2.134-3.149-2.134-5.18s0.711-3.756,2.134-5.179c1.422-1.423,3.148-2.134,5.179-2.134s3.757,0.711,5.18,2.134
		c1.422,1.423,2.134,3.154,2.134,5.196v4.399C38.612,28.51,41.69,27.5,45,27.5c2.122,0,4.145,0.424,6,1.178V12.5
		c0-0.553-0.448-1-1-1H1c-0.552,0-1,0.447-1,1v35c0,0.553,0.448,1,1,1h28.811c-0.52-1.575-0.811-3.253-0.811-5
		C29,42.752,29.07,42.022,29.169,41.301z M18.058,41.578h-2V20.5L11,23.5v-2l5.058-3h2V41.578z"/>
</g>
<g>
</g>
<g>
</g>
<g>
</g>
<g>
</g>
<g>
</g>
<g>
</g>
<g>
</g>
<g>
</g>
<g>
</g>
<g>
</g>
<g>
</g>
<g>
</g>
<g>
</g>
<g>
</g>
<g>
</g>
</svg>
