<?xml version="1.0" encoding="iso-8859-1"?>
<!-- Generator: Adobe Illustrator 18.0.0, SVG Export Plug-In . SVG Version: 6.00 Build 0)  -->
<!DOCTYPE svg PUBLIC "-//W3C//DTD SVG 1.1//EN" "http://www.w3.org/Graphics/SVG/1.1/DTD/svg11.dtd">
<svg version="1.1" id="Capa_1" xmlns="http://www.w3.org/2000/svg" xmlns:xlink="http://www.w3.org/1999/xlink" x="0px" y="0px"
	 viewBox="0 0 59 59" style="enable-background:new 0 0 59 59;" xml:space="preserve">
<g>
	<path d="M58.188,41.363l-1.444-0.277c-0.677-0.13-1.21-0.573-1.462-1.216c-0.253-0.642-0.163-1.329,0.245-1.885l0.907-1.236
		c0.292-0.398,0.25-0.95-0.1-1.299l-1.959-1.958c-0.339-0.339-0.872-0.388-1.268-0.121l-1.217,0.824
		c-0.331,0.224-0.71,0.343-1.099,0.343c-0.844,0-1.787-0.576-1.956-1.676l-0.233-1.515c-0.075-0.487-0.495-0.848-0.988-0.848h-2.77
		c-0.479,0-0.892,0.341-0.982,0.812l-0.358,1.865c-0.201,1.051-1.13,1.601-1.942,1.601c-0.389,0-0.769-0.118-1.099-0.342
		l-1.572-1.064c-0.397-0.267-0.929-0.218-1.268,0.121l-1.959,1.958c-0.35,0.349-0.392,0.9-0.1,1.299l0.907,1.236
		c0.408,0.556,0.498,1.243,0.245,1.885c-0.252,0.643-0.785,1.086-1.462,1.216l-1.444,0.277C33.341,41.454,33,41.866,33,42.346v2.77
		c0,0.493,0.36,0.913,0.848,0.988l1.515,0.233c0.683,0.105,1.232,0.528,1.508,1.16c0.276,0.633,0.212,1.323-0.175,1.895
		l-0.824,1.217c-0.269,0.396-0.218,0.929,0.121,1.268l1.958,1.959c0.348,0.348,0.899,0.391,1.299,0.1l1.236-0.907
		c0.342-0.252,0.742-0.385,1.156-0.385c0.813,0,1.742,0.551,1.944,1.602l0.277,1.444c0.091,0.471,0.503,0.812,0.982,0.812h2.77
		c0.493,0,0.913-0.36,0.988-0.848l0.164-1.065c0.169-1.1,1.113-1.676,1.958-1.676c0.413,0,0.813,0.134,1.156,0.386l0.869,0.638
		c0.4,0.292,0.951,0.249,1.299-0.1l1.958-1.959c0.339-0.339,0.39-0.871,0.121-1.268l-0.824-1.217
		c-0.387-0.571-0.451-1.262-0.175-1.895c0.275-0.632,0.825-1.055,1.508-1.16l1.515-0.233C58.64,46.028,59,45.608,59,45.115v-2.77
		C59,41.866,58.659,41.454,58.188,41.363z M57,44.258l-0.667,0.103c-1.354,0.208-2.489,1.082-3.036,2.337
		c-0.548,1.256-0.416,2.682,0.352,3.815l0.361,0.533l-0.768,0.768l-0.177-0.13c-0.689-0.505-1.498-0.772-2.34-0.772
		c-1.979,0-3.635,1.418-3.935,3.371L46.758,54.5h-1.086l-0.121-0.633c-0.359-1.868-2.004-3.225-3.909-3.225
		c-0.843,0-1.651,0.268-2.34,0.771l-0.544,0.399l-0.768-0.768l0.361-0.533c0.768-1.134,0.899-2.56,0.352-3.815
		c-0.547-1.255-1.683-2.129-3.036-2.337L35,44.258v-1.086l0.633-0.121c1.346-0.259,2.447-1.175,2.947-2.449
		c0.5-1.275,0.315-2.695-0.494-3.8l-0.399-0.544l0.768-0.768l0.889,0.602c0.662,0.448,1.43,0.686,2.22,0.686
		c1.905,0,3.548-1.355,3.907-3.224l0.202-1.054h1.086l0.103,0.667c0.301,1.953,1.955,3.371,3.934,3.371
		c0.789,0,1.556-0.237,2.219-0.687l0.533-0.361l0.768,0.768l-0.399,0.544c-0.81,1.104-0.994,2.524-0.494,3.8
		c0.5,1.274,1.602,2.19,2.947,2.449L57,43.172V44.258z"/>
	<path d="M46,38.5c-2.757,0-5,2.243-5,5s2.243,5,5,5s5-2.243,5-5S48.757,38.5,46,38.5z M46,46.5c-1.654,0-3-1.346-3-3s1.346-3,3-3
		s3,1.346,3,3S47.654,46.5,46,46.5z"/>
	<rect y="2.5" width="17" height="8"/>
	<rect x="34" y="2.5" width="17" height="8"/>
	<rect x="19" y="2.5" width="13" height="8"/>
	<path d="M28.744,21.402c-1.503,0-2.782,0.528-3.837,1.583c-1.056,1.056-1.583,2.34-1.583,3.854c0,1.514,0.527,2.793,1.583,3.837
		c1.055,1.044,2.34,1.565,3.854,1.565c1.514,0,2.793-0.521,3.837-1.565s1.565-2.34,1.565-3.889s-0.527-2.833-1.583-3.854
		C31.526,21.913,30.247,21.402,28.744,21.402z"/>
	<path d="M31.723,35.148l2.441-2.44v-0.914c-1.445,1.561-3.217,2.341-5.316,2.341s-3.86-0.711-5.282-2.134
		c-1.423-1.423-2.134-3.149-2.134-5.18s0.711-3.756,2.134-5.179c1.422-1.423,3.148-2.134,5.179-2.134s3.757,0.711,5.18,2.134
		c1.422,1.423,2.134,3.154,2.134,5.196v3.977l1.197-1.197c0.34-0.338,0.87-0.388,1.268-0.121l2.338,1.583l0.054-0.315l0.471-2.454
		c0.091-0.471,0.503-0.812,0.982-0.812h7.821c0.336,0,0.629,0.175,0.812,0.437V13.5c0-0.553-0.448-1-1-1H1c-0.552,0-1,0.447-1,1v35
		c0,0.553,0.448,1,1,1h29v-1c0,0,0-0.318,0-0.812v-5.529c-0.724,0.161-1.5,0.249-2.34,0.249h-0.603v-1.893h0.74
		c0.784,0,1.514-0.131,2.202-0.362v-0.287c0-0.479,0.341-0.892,0.812-0.982l1.761-0.338c0.113-0.118,0.219-0.242,0.321-0.37
		l-1.271-1.73C31.331,36.049,31.373,35.497,31.723,35.148z M18.058,42.578h-2V21.5L11,24.5v-2l5.058-3h2V42.578z"/>
</g>
<g>
</g>
<g>
</g>
<g>
</g>
<g>
</g>
<g>
</g>
<g>
</g>
<g>
</g>
<g>
</g>
<g>
</g>
<g>
</g>
<g>
</g>
<g>
</g>
<g>
</g>
<g>
</g>
<g>
</g>
</svg>
