<?xml version="1.0" encoding="iso-8859-1"?>
<!-- Generator: Adobe Illustrator 18.0.0, SVG Export Plug-In . SVG Version: 6.00 Build 0)  -->
<!DOCTYPE svg PUBLIC "-//W3C//DTD SVG 1.1//EN" "http://www.w3.org/Graphics/SVG/1.1/DTD/svg11.dtd">
<svg version="1.1" id="Capa_1" xmlns="http://www.w3.org/2000/svg" xmlns:xlink="http://www.w3.org/1999/xlink" x="0px" y="0px"
	 viewBox="0 0 57 57" style="enable-background:new 0 0 57 57;" xml:space="preserve">
<g>
	<path d="M55.954,41.109c-0.399-4.089-3.452-7.052-7.271-7.052c-2.396,0-4.407,1.449-5.684,3.213
		c-1.276-1.764-3.288-3.213-5.684-3.213c-3.819,0-6.871,2.963-7.271,7.052c-0.042,0.268-0.144,1.22,0.226,2.709
		c0.546,2.197,1.801,4.192,3.631,5.77l8.329,7.127C42.446,56.898,42.719,57,43,57s0.555-0.102,0.769-0.284l8.331-7.129
		c1.828-1.575,3.083-3.57,3.629-5.768C56.099,42.329,55.996,41.376,55.954,41.109z M53.787,43.337
		c-0.445,1.794-1.479,3.432-2.99,4.732L43,54.741l-7.795-6.671c-1.513-1.303-2.547-2.94-2.992-4.734
		c-0.302-1.213-0.194-1.897-0.194-1.897l0.016-0.105c0.245-2.621,2.138-5.275,5.282-5.275c2.189,0,3.974,1.811,4.77,3.605L43,41.724
		l0.914-2.061c0.796-1.795,2.58-3.605,4.77-3.605c3.145,0,5.037,2.654,5.295,5.366C53.981,41.431,54.091,42.115,53.787,43.337z"/>
	<path d="M53,5c0-0.552-0.448-1-1-1h-5V1c0-0.553-0.448-1-1-1h-7c-0.552,0-1,0.447-1,1v3H16V1c0-0.553-0.448-1-1-1H8
		C7.448,0,7,0.447,7,1v3H2C1.448,4,1,4.448,1,5v9h52V5z M14,5v3H9V5V2h5V5z M45,5v3h-5V5V2h5V5z"/>
	<path d="M27.36,44.541c-0.46-1.858-0.379-3.19-0.289-3.82c0.564-5.492,4.971-9.663,10.246-9.663c1.994,0,3.983,0.686,5.684,1.946
		c1.7-1.261,3.689-1.946,5.684-1.946c1.539,0,2.999,0.364,4.316,1.004v-1.883V17c0-0.553-0.448-1-1-1H2c-0.552,0-1,0.447-1,1v39
		c0,0.553,0.448,1,1,1h35.95l-5.998-5.133C29.644,49.878,28.057,47.346,27.36,44.541z M38,22h8v8h-4.515H38V22z M28,22h7h1v8h-8V22z
		 M16,50H8v-8h8V50z M16,40H8v-8h8V40z M16,30H8v-8h8V30z M26,50h-7h-1v-8h8V50z M26,40h-8v-8h8V40z M26,30h-8v-8h1h7V30z"/>
</g>
<g>
</g>
<g>
</g>
<g>
</g>
<g>
</g>
<g>
</g>
<g>
</g>
<g>
</g>
<g>
</g>
<g>
</g>
<g>
</g>
<g>
</g>
<g>
</g>
<g>
</g>
<g>
</g>
<g>
</g>
</svg>
