<?xml version="1.0" encoding="iso-8859-1"?>
<!-- Generator: Adobe Illustrator 18.0.0, SVG Export Plug-In . SVG Version: 6.00 Build 0)  -->
<!DOCTYPE svg PUBLIC "-//W3C//DTD SVG 1.1//EN" "http://www.w3.org/Graphics/SVG/1.1/DTD/svg11.dtd">
<svg version="1.1" id="Capa_1" xmlns="http://www.w3.org/2000/svg" xmlns:xlink="http://www.w3.org/1999/xlink" x="0px" y="0px"
	 viewBox="0 0 58 58" style="enable-background:new 0 0 58 58;" xml:space="preserve">
<g>
	<path d="M53.5,46.332C53.07,42.225,49.647,39,45.546,39c-2.565,0-4.984,1.286-6.479,3.402c-0.292-0.051-0.588-0.076-0.884-0.076
		c-2.32,0-4.381,1.577-5.066,3.813C31.209,47.27,30,49.38,30,51.642C30,55.147,32.785,58,36.208,58h10.774
		c0.063,0,0.124-0.004,0.172-0.008C47.216,57.996,47.278,58,47.342,58h4.31c3.225,0,5.849-2.687,5.849-5.989
		C57.5,49.411,55.858,47.138,53.5,46.332z M51.651,56L47.3,55.997l-0.186-0.006L36.208,56C33.888,56,32,54.045,32,51.642
		c0-1.666,0.948-3.21,2.417-3.935l0.435-0.214l0.102-0.475c0.331-1.56,1.689-2.692,3.229-2.692c0.344,0,0.687,0.057,1.019,0.169
		l0.777,0.261l0.409-0.711C41.483,42.139,43.411,41,45.546,41c3.265,0,5.955,2.747,5.999,6.123l0.011,0.813l0.799,0.155
		c1.822,0.354,3.146,2.002,3.146,3.919C55.5,54.21,53.773,56,51.651,56z"/>
	<path d="M52.5,5c0-0.552-0.448-1-1-1h-5V1c0-0.553-0.448-1-1-1h-7c-0.552,0-1,0.447-1,1v3h-22V1c0-0.553-0.448-1-1-1h-7
		c-0.552,0-1,0.447-1,1v3h-5c-0.552,0-1,0.448-1,1v9h52V5z M13.5,5v3h-5V5V2h5V5z M44.5,5v3h-5V5V2h5V5z"/>
	<path d="M30.658,44.189c1.305-2.82,4.02-4.68,7.064-4.851C39.789,37.212,42.616,36,45.546,36c2.592,0,5.031,0.962,6.954,2.571
		v-8.393V17c0-0.553-0.448-1-1-1h-50c-0.552,0-1,0.447-1,1v39c0,0.553,0.448,1,1,1h27.17C27.621,55.48,27,53.635,27,51.642
		C27,48.729,28.362,45.963,30.658,44.189z M15.5,50h-8v-8h8V50z M15.5,40h-8v-8h8V40z M15.5,30h-8v-8h8V30z M25.5,50h-7h-1v-8h8V50z
		 M25.5,40h-8v-8h8V40z M25.5,30h-8v-8h1h7V30z M37.5,22h8v8h-4.515H37.5V22z M27.5,22h7h1v8h-8V22z"/>
</g>
<g>
</g>
<g>
</g>
<g>
</g>
<g>
</g>
<g>
</g>
<g>
</g>
<g>
</g>
<g>
</g>
<g>
</g>
<g>
</g>
<g>
</g>
<g>
</g>
<g>
</g>
<g>
</g>
<g>
</g>
</svg>
