<?xml version="1.0" encoding="iso-8859-1"?>
<!-- Generator: Adobe Illustrator 18.0.0, SVG Export Plug-In . SVG Version: 6.00 Build 0)  -->
<!DOCTYPE svg PUBLIC "-//W3C//DTD SVG 1.1//EN" "http://www.w3.org/Graphics/SVG/1.1/DTD/svg11.dtd">
<svg version="1.1" id="Capa_1" xmlns="http://www.w3.org/2000/svg" xmlns:xlink="http://www.w3.org/1999/xlink" x="0px" y="0px"
	 viewBox="0 0 56.999 56.999" style="enable-background:new 0 0 56.999 56.999;" xml:space="preserve">
<g>
	<path d="M56.125,32.453l-2.849-2.85c-1.128-1.127-3.094-1.129-4.222,0L33.664,44.994l-2.121,7.779l-0.519,0.519
		c-0.388,0.388-0.389,1.014-0.006,1.405l-0.005,0.02l0.019-0.005c0.194,0.191,0.446,0.288,0.699,0.288
		c0.256,0,0.512-0.098,0.707-0.293l0.52-0.52l7.778-2.121l15.39-15.391C57.29,35.511,57.29,33.617,56.125,32.453z M35.973,45.514
		l10.243-10.243l4.243,4.243L40.216,49.757L35.973,45.514z M35.07,47.44l3.22,3.22l-4.428,1.208L35.07,47.44z M54.711,35.261
		L51.873,38.1l-4.243-4.243l2.839-2.839c0.372-0.372,1.021-0.374,1.393,0l2.85,2.85C55.096,34.251,55.096,34.877,54.711,35.261z"/>
	<rect y="1.999" width="17" height="8"/>
	<rect x="34" y="1.999" width="17" height="8"/>
	<rect x="19" y="1.999" width="13" height="8"/>
	<path d="M32.581,22.432c-1.055-1.021-2.334-1.531-3.837-1.531s-2.782,0.528-3.837,1.583c-1.056,1.056-1.583,2.34-1.583,3.854
		c0,1.514,0.527,2.793,1.583,3.837c1.055,1.044,2.34,1.565,3.854,1.565c1.514,0,2.793-0.521,3.837-1.565s1.565-2.34,1.565-3.889
		S33.637,23.454,32.581,22.432z"/>
	<path d="M46.934,27.483c1.091-1.092,2.53-1.703,4.066-1.745V12.999c0-0.553-0.448-1-1-1H1c-0.552,0-1,0.447-1,1v35
		c0,0.553,0.448,1,1,1h28.462l1.517-5.563L46.934,27.483z M18.058,42.077h-2V20.999l-5.058,3v-2l5.058-3h2V42.077z M27.66,41.908
		h-0.603v-1.893h0.74c1.721,0,3.212-0.557,4.474-1.669c1.262-1.113,1.893-2.747,1.893-4.904v-2.148
		c-1.445,1.561-3.217,2.341-5.316,2.341s-3.86-0.711-5.282-2.134c-1.423-1.423-2.134-3.149-2.134-5.18s0.711-3.756,2.134-5.179
		c1.422-1.423,3.148-2.134,5.179-2.134s3.757,0.711,5.18,2.134c1.422,1.423,2.134,3.154,2.134,5.196v7.345
		c0,1.904-0.585,3.682-1.756,5.334c-0.597,0.849-1.468,1.543-2.615,2.082S29.197,41.908,27.66,41.908z"/>
</g>
<g>
</g>
<g>
</g>
<g>
</g>
<g>
</g>
<g>
</g>
<g>
</g>
<g>
</g>
<g>
</g>
<g>
</g>
<g>
</g>
<g>
</g>
<g>
</g>
<g>
</g>
<g>
</g>
<g>
</g>
</svg>
