<?xml version="1.0" encoding="iso-8859-1"?>
<!-- Generator: Adobe Illustrator 18.0.0, SVG Export Plug-In . SVG Version: 6.00 Build 0)  -->
<!DOCTYPE svg PUBLIC "-//W3C//DTD SVG 1.1//EN" "http://www.w3.org/Graphics/SVG/1.1/DTD/svg11.dtd">
<svg version="1.1" id="Capa_1" xmlns="http://www.w3.org/2000/svg" xmlns:xlink="http://www.w3.org/1999/xlink" x="0px" y="0px"
	 viewBox="0 0 58 58" style="enable-background:new 0 0 58 58;" xml:space="preserve">
<g>
	<path d="M34,33v24h24V33H34z M56,55H36V35h9v11.586l-4.293-4.293l-1.414,1.414L46,50.414l6.707-6.707l-1.414-1.414L47,46.586V35h9
		V55z"/>
	<rect y="1" width="17" height="8"/>
	<rect x="34" y="1" width="17" height="8"/>
	<rect x="19" y="1" width="13" height="8"/>
	<path d="M32.581,21.433c-1.055-1.021-2.334-1.531-3.837-1.531s-2.782,0.528-3.837,1.583c-1.056,1.056-1.583,2.34-1.583,3.854
		c0,1.514,0.527,2.793,1.583,3.837c1.055,1.044,2.34,1.565,3.854,1.565c1.514,0,2.793-0.521,3.837-1.565s1.565-2.34,1.565-3.889
		S33.637,22.455,32.581,21.433z"/>
	<path d="M23.565,30.501c-1.423-1.423-2.134-3.149-2.134-5.18s0.711-3.756,2.134-5.179c1.422-1.423,3.148-2.134,5.179-2.134
		s3.757,0.711,5.18,2.134c1.422,1.423,2.134,3.154,2.134,5.196V30H51V12c0-0.553-0.448-1-1-1H1c-0.552,0-1,0.447-1,1v35
		c0,0.553,0.448,1,1,1h30v-7.629c-0.988,0.353-2.097,0.538-3.34,0.538h-0.603v-1.893h0.74c1.178,0,2.24-0.281,3.202-0.802v-5.89
		c-0.675,0.205-1.391,0.311-2.152,0.311C26.748,32.635,24.987,31.924,23.565,30.501z M18.058,41.078h-2V20L11,23v-2l5.058-3h2
		V41.078z"/>
</g>
<g>
</g>
<g>
</g>
<g>
</g>
<g>
</g>
<g>
</g>
<g>
</g>
<g>
</g>
<g>
</g>
<g>
</g>
<g>
</g>
<g>
</g>
<g>
</g>
<g>
</g>
<g>
</g>
<g>
</g>
</svg>
