<?xml version="1.0" encoding="iso-8859-1"?>
<!-- Generator: Adobe Illustrator 18.0.0, SVG Export Plug-In . SVG Version: 6.00 Build 0)  -->
<!DOCTYPE svg PUBLIC "-//W3C//DTD SVG 1.1//EN" "http://www.w3.org/Graphics/SVG/1.1/DTD/svg11.dtd">
<svg version="1.1" id="Capa_1" xmlns="http://www.w3.org/2000/svg" xmlns:xlink="http://www.w3.org/1999/xlink" x="0px" y="0px"
	 viewBox="0 0 58 58" style="enable-background:new 0 0 58 58;" xml:space="preserve">
<g>
	<path d="M57,55h-1v-2.36c0-3.534-1.845-6.748-4.827-8.64C54.155,42.108,56,38.895,56,35.36V33h1c0.553,0,1-0.447,1-1s-0.447-1-1-1
		h-1h-1H41h-1h-1c-0.553,0-1,0.447-1,1s0.447,1,1,1h1v2.36c0,3.534,1.845,6.748,4.827,8.64C41.845,45.892,40,49.105,40,52.64V55h-1
		c-0.553,0-1,0.447-1,1s0.447,1,1,1h1h1h14h1h1c0.553,0,1-0.447,1-1S57.553,55,57,55z M42,35.36V33h12v2.36
		c0,3.319-2.033,6.298-5.197,7.64h-1.605C44.033,41.658,42,38.68,42,35.36z M42,52.64c0-3.319,2.033-6.298,5.197-7.64h1.605
		C51.967,46.342,54,49.32,54,52.64V55H42V52.64z"/>
	<rect y="1" width="17" height="8"/>
	<rect x="34" y="1" width="17" height="8"/>
	<rect x="19" y="1" width="13" height="8"/>
	<path d="M28.744,19.902c-1.503,0-2.782,0.528-3.837,1.583c-1.056,1.056-1.583,2.34-1.583,3.854c0,1.514,0.527,2.793,1.583,3.837
		c1.055,1.044,2.34,1.565,3.854,1.565c1.514,0,2.793-0.521,3.837-1.565s1.565-2.34,1.565-3.889s-0.527-2.833-1.583-3.854
		C31.526,20.413,30.247,19.902,28.744,19.902z"/>
	<path d="M37,35.36V28h14V12c0-0.553-0.448-1-1-1H1c-0.552,0-1,0.447-1,1v35c0,0.553,0.448,1,1,1h36.855
		c0.556-1.465,1.372-2.816,2.407-4C38.199,41.639,37,38.607,37,35.36z M18.058,41.078h-2V20L11,23v-2l5.058-3h2V41.078z
		 M36.058,32.684c0,1.904-0.585,3.682-1.756,5.334c-0.597,0.849-1.468,1.543-2.615,2.082s-2.489,0.809-4.026,0.809h-0.603v-1.893
		h0.74c1.721,0,3.212-0.557,4.474-1.669c1.262-1.113,1.893-2.747,1.893-4.904v-2.148c-1.445,1.561-3.217,2.341-5.316,2.341
		s-3.86-0.711-5.282-2.134c-1.423-1.423-2.134-3.149-2.134-5.18s0.711-3.756,2.134-5.179c1.422-1.423,3.148-2.134,5.179-2.134
		s3.757,0.711,5.18,2.134c1.422,1.423,2.134,3.154,2.134,5.196V32.684z"/>
</g>
<g>
</g>
<g>
</g>
<g>
</g>
<g>
</g>
<g>
</g>
<g>
</g>
<g>
</g>
<g>
</g>
<g>
</g>
<g>
</g>
<g>
</g>
<g>
</g>
<g>
</g>
<g>
</g>
<g>
</g>
</svg>
