<?xml version="1.0" encoding="iso-8859-1"?>
<!-- Generator: Adobe Illustrator 18.0.0, SVG Export Plug-In . SVG Version: 6.00 Build 0)  -->
<!DOCTYPE svg PUBLIC "-//W3C//DTD SVG 1.1//EN" "http://www.w3.org/Graphics/SVG/1.1/DTD/svg11.dtd">
<svg version="1.1" id="Capa_1" xmlns="http://www.w3.org/2000/svg" xmlns:xlink="http://www.w3.org/1999/xlink" x="0px" y="0px"
	 viewBox="0 0 58 58" style="enable-background:new 0 0 58 58;" xml:space="preserve">
<g>
	<path d="M46,33c-6.617,0-12,5.383-12,12s5.383,12,12,12s12-5.383,12-12S52.617,33,46,33z M46,55c-5.514,0-10-4.486-10-10
		s4.486-10,10-10s10,4.486,10,10S51.514,55,46,55z"/>
	<path d="M52,44h-5v-5c0-0.553-0.447-1-1-1s-1,0.447-1,1v6c0,0.553,0.447,1,1,1h6c0.553,0,1-0.447,1-1S52.553,44,52,44z"/>
	<rect y="1" width="17" height="8"/>
	<rect x="34" y="1" width="17" height="8"/>
	<rect x="19" y="1" width="13" height="8"/>
	<path d="M28.744,19.902c-1.503,0-2.782,0.528-3.837,1.583c-1.056,1.056-1.583,2.34-1.583,3.854c0,1.514,0.527,2.793,1.583,3.837
		c1.055,1.044,2.34,1.565,3.854,1.565c1.514,0,2.793-0.521,3.837-1.565s1.565-2.34,1.565-3.889s-0.527-2.833-1.583-3.854
		C31.526,20.413,30.247,19.902,28.744,19.902z"/>
	<path d="M34.164,30.294c-1.445,1.561-3.217,2.341-5.316,2.341s-3.86-0.711-5.282-2.134c-1.423-1.423-2.134-3.149-2.134-5.18
		s0.711-3.756,2.134-5.179c1.422-1.423,3.148-2.134,5.179-2.134s3.757,0.711,5.18,2.134c1.422,1.423,2.134,3.154,2.134,5.196v7.345
		c0,0.407-0.04,0.805-0.094,1.2C38.625,31.479,42.139,30,46,30c1.755,0,3.433,0.319,5,0.875V12c0-0.553-0.448-1-1-1H1
		c-0.552,0-1,0.447-1,1v35c0,0.553,0.448,1,1,1h30.302C31.105,47.03,31,46.027,31,45c0-1.756,0.319-3.434,0.875-5.001
		c-0.065,0.032-0.122,0.07-0.189,0.101c-1.147,0.539-2.489,0.809-4.026,0.809h-0.603v-1.893h0.74c1.721,0,3.212-0.557,4.474-1.669
		c1.262-1.113,1.893-2.747,1.893-4.904V30.294z M18.058,41.078h-2V20L11,23v-2l5.058-3h2V41.078z"/>
</g>
<g>
</g>
<g>
</g>
<g>
</g>
<g>
</g>
<g>
</g>
<g>
</g>
<g>
</g>
<g>
</g>
<g>
</g>
<g>
</g>
<g>
</g>
<g>
</g>
<g>
</g>
<g>
</g>
<g>
</g>
</svg>
