<?xml version="1.0" encoding="iso-8859-1"?>
<!-- Generator: Adobe Illustrator 18.0.0, SVG Export Plug-In . SVG Version: 6.00 Build 0)  -->
<!DOCTYPE svg PUBLIC "-//W3C//DTD SVG 1.1//EN" "http://www.w3.org/Graphics/SVG/1.1/DTD/svg11.dtd">
<svg version="1.1" id="Capa_1" xmlns="http://www.w3.org/2000/svg" xmlns:xlink="http://www.w3.org/1999/xlink" x="0px" y="0px"
	 viewBox="0 0 58 58" style="enable-background:new 0 0 58 58;" xml:space="preserve">
<g>
	<path d="M57.953,41.1c-0.116-0.367-0.434-0.634-0.814-0.688l-7.777-1.089l-3.472-6.78c-0.342-0.668-1.438-0.668-1.779,0
		l-3.472,6.78l-7.777,1.089c-0.381,0.054-0.698,0.32-0.814,0.688s-0.012,0.768,0.269,1.031l5.605,5.267L36.6,54.825
		c-0.066,0.373,0.084,0.752,0.388,0.978c0.305,0.227,0.712,0.262,1.049,0.089L45,52.363l6.964,3.528
		C52.106,55.965,52.262,56,52.416,56c0.211,0,0.421-0.066,0.597-0.197c0.304-0.226,0.454-0.604,0.388-0.978l-1.321-7.427
		l5.605-5.267C57.965,41.868,58.069,41.467,57.953,41.1z M50.315,46.311c-0.246,0.231-0.359,0.571-0.3,0.903l1.064,5.987
		l-5.628-2.852c-0.143-0.072-0.297-0.108-0.452-0.108s-0.31,0.036-0.452,0.108l-5.628,2.852l1.064-5.987
		c0.06-0.332-0.054-0.672-0.3-0.903l-4.479-4.207l6.225-0.872c0.322-0.045,0.603-0.244,0.751-0.534L45,35.194l2.818,5.504
		c0.148,0.29,0.429,0.489,0.751,0.534l6.225,0.872L50.315,46.311z"/>
	<rect y="2" width="17" height="8"/>
	<rect x="34" y="2" width="17" height="8"/>
	<rect x="19" y="2" width="13" height="8"/>
	<path d="M28.744,20.902c-1.503,0-2.782,0.528-3.837,1.583c-1.056,1.056-1.583,2.34-1.583,3.854c0,1.514,0.527,2.793,1.583,3.837
		c1.055,1.044,2.34,1.565,3.854,1.565c1.514,0,2.793-0.521,3.837-1.565s1.565-2.34,1.565-3.889s-0.527-2.833-1.583-3.854
		C31.526,21.412,30.247,20.902,28.744,20.902z"/>
	<path d="M27.66,41.908l-0.603-0.6l-1.361-1.279c-0.28-0.264-0.385-0.664-0.269-1.031s0.434-0.634,0.814-0.688l6.899-0.966
		c0.679-1.02,1.022-2.319,1.022-3.902v-2.148c-1.445,1.561-3.217,2.341-5.316,2.341s-3.86-0.711-5.282-2.134
		c-1.423-1.423-2.134-3.149-2.134-5.18s0.711-3.756,2.134-5.179c1.422-1.423,3.148-2.134,5.179-2.134s3.757,0.711,5.18,2.134
		c1.422,1.423,2.134,3.154,2.134,5.196v7.345c0,1.165-0.246,2.277-0.685,3.348l3.306-0.463l5.432-10.608
		c0.342-0.668,1.438-0.668,1.779,0L51,35.942V13c0-0.553-0.448-1-1-1H1c-0.552,0-1,0.447-1,1v35c0,0.553,0.448,1,1,1h33.589
		l0.094-0.527l-6.988-6.565C27.683,41.907,27.672,41.908,27.66,41.908z M18.058,42.078h-2V21L11,24v-2l5.058-3h2V42.078z"/>
</g>
<g>
</g>
<g>
</g>
<g>
</g>
<g>
</g>
<g>
</g>
<g>
</g>
<g>
</g>
<g>
</g>
<g>
</g>
<g>
</g>
<g>
</g>
<g>
</g>
<g>
</g>
<g>
</g>
<g>
</g>
</svg>
