<?xml version="1.0" encoding="iso-8859-1"?>
<!-- Generator: Adobe Illustrator 18.0.0, SVG Export Plug-In . SVG Version: 6.00 Build 0)  -->
<!DOCTYPE svg PUBLIC "-//W3C//DTD SVG 1.1//EN" "http://www.w3.org/Graphics/SVG/1.1/DTD/svg11.dtd">
<svg version="1.1" id="Capa_1" xmlns="http://www.w3.org/2000/svg" xmlns:xlink="http://www.w3.org/1999/xlink" x="0px" y="0px"
	 viewBox="0 0 58 58" style="enable-background:new 0 0 58 58;" xml:space="preserve">
<g>
	<path d="M57.723,54.309l-5.969-6.244c1.746-1.919,2.82-4.458,2.82-7.25c0-5.953-4.843-10.796-10.796-10.796
		s-10.796,4.843-10.796,10.796S37.824,51.61,43.777,51.61c2.441,0,4.688-0.824,6.499-2.196l6.001,6.277
		C56.474,55.896,56.736,56,57,56c0.249,0,0.497-0.092,0.691-0.277C58.09,55.341,58.104,54.708,57.723,54.309z M34.981,40.814
		c0-4.85,3.946-8.796,8.796-8.796s8.796,3.946,8.796,8.796s-3.946,8.796-8.796,8.796S34.981,45.664,34.981,40.814z"/>
	<rect y="2" width="17" height="8"/>
	<rect x="34" y="2" width="17" height="8"/>
	<rect x="19" y="2" width="13" height="8"/>
	<path d="M28.744,20.902c-1.503,0-2.782,0.528-3.837,1.583c-1.056,1.056-1.583,2.34-1.583,3.854c0,1.514,0.527,2.793,1.583,3.837
		c1.055,1.044,2.34,1.565,3.854,1.565c1.514,0,2.793-0.521,3.837-1.565s1.565-2.34,1.565-3.889s-0.527-2.833-1.583-3.854
		C31.526,21.413,30.247,20.902,28.744,20.902z"/>
	<path d="M27.798,40.016c0.799,0,1.543-0.133,2.243-0.373c0.229-2.702,1.241-5.177,2.805-7.212
		c-1.167,0.798-2.497,1.204-3.998,1.204c-2.1,0-3.86-0.711-5.282-2.134c-1.423-1.423-2.134-3.149-2.134-5.18
		s0.711-3.756,2.134-5.179c1.422-1.423,3.148-2.134,5.179-2.134s3.757,0.711,5.18,2.134c1.422,1.423,2.134,3.154,2.134,5.196v3.047
		c2.205-1.494,4.862-2.368,7.72-2.368c2.65,0,5.119,0.764,7.223,2.064V13c0-0.553-0.448-1-1-1H1c-0.552,0-1,0.447-1,1v35
		c0,0.553,0.448,1,1,1h31.698c-1.542-2.081-2.508-4.604-2.674-7.347c-0.73,0.165-1.514,0.255-2.364,0.255h-0.603v-1.893H27.798z
		 M18.058,42.078h-2V21L11,24v-2l5.058-3h2V42.078z"/>
</g>
<g>
</g>
<g>
</g>
<g>
</g>
<g>
</g>
<g>
</g>
<g>
</g>
<g>
</g>
<g>
</g>
<g>
</g>
<g>
</g>
<g>
</g>
<g>
</g>
<g>
</g>
<g>
</g>
<g>
</g>
</svg>
