<?xml version="1.0" encoding="iso-8859-1"?>
<!-- Generator: Adobe Illustrator 18.0.0, SVG Export Plug-In . SVG Version: 6.00 Build 0)  -->
<!DOCTYPE svg PUBLIC "-//W3C//DTD SVG 1.1//EN" "http://www.w3.org/Graphics/SVG/1.1/DTD/svg11.dtd">
<svg version="1.1" id="Capa_1" xmlns="http://www.w3.org/2000/svg" xmlns:xlink="http://www.w3.org/1999/xlink" x="0px" y="0px"
	 viewBox="0 0 56 56" style="enable-background:new 0 0 56 56;" xml:space="preserve">
<g>
	<path d="M29,26.5c-3.764,0-7.317,1.581-9.75,4.338c-0.365,0.415-0.326,1.047,0.088,1.412c0.415,0.365,1.046,0.326,1.412-0.088
		C22.803,29.835,25.811,28.5,29,28.5c6.065,0,11,4.935,11,11s-4.935,11-11,11c-4.992,0-9.407-3.367-10.741-8H23v-2h-8v8h2v-3.663
		c2.093,4.531,6.781,7.663,12,7.663c7.168,0,13-5.832,13-13S36.168,26.5,29,26.5z"/>
	<path d="M47.835,19.486c-0.137-0.019-2.457-0.335-4.684,0.002C43.1,19.496,43.049,19.5,42.999,19.5
		c-0.486,0-0.912-0.354-0.987-0.85c-0.083-0.546,0.292-1.056,0.838-1.139c1.531-0.233,3.062-0.196,4.083-0.124
		C46.262,9.635,39.83,3.5,32.085,3.5c-4.697,0-9.418,2.379-12.285,6.129c1.954,1.652,3.2,4.117,3.2,6.871c0,0.553-0.447,1-1,1
		s-1-0.447-1-1c0-2.462-1.281-4.627-3.209-5.876c-0.227-0.147-0.462-0.277-0.702-0.396c-0.069-0.034-0.139-0.069-0.21-0.101
		c-0.272-0.124-0.55-0.234-0.835-0.321c-0.035-0.01-0.071-0.017-0.106-0.027c-0.259-0.075-0.522-0.132-0.789-0.177
		c-0.078-0.013-0.155-0.025-0.233-0.036C14.614,9.527,14.309,9.5,14,9.5c-3.859,0-7,3.141-7,7c0,0.082,0.006,0.163,0.012,0.244
		l0.012,0.21l-0.009,0.16C7.008,17.244,7,17.373,7,17.5v0.63l-0.567,0.271C2.705,20.188,0,24.5,0,28.654
		C0,34.635,4.865,39.5,10.845,39.5h1.206c-0.02-0.333-0.051-0.663-0.051-1c0-9.374,7.626-17,17-17s17,7.626,17,17
		c0,0.337-0.031,0.667-0.051,1h0.022C51.501,39.5,56,35.001,56,29.472C56,24.661,52.49,20.372,47.835,19.486z"/>
</g>
<g>
</g>
<g>
</g>
<g>
</g>
<g>
</g>
<g>
</g>
<g>
</g>
<g>
</g>
<g>
</g>
<g>
</g>
<g>
</g>
<g>
</g>
<g>
</g>
<g>
</g>
<g>
</g>
<g>
</g>
</svg>
