<?xml version="1.0" encoding="iso-8859-1"?>
<!-- Generator: Adobe Illustrator 18.0.0, SVG Export Plug-In . SVG Version: 6.00 Build 0)  -->
<!DOCTYPE svg PUBLIC "-//W3C//DTD SVG 1.1//EN" "http://www.w3.org/Graphics/SVG/1.1/DTD/svg11.dtd">
<svg version="1.1" id="Capa_1" xmlns="http://www.w3.org/2000/svg" xmlns:xlink="http://www.w3.org/1999/xlink" x="0px" y="0px"
	 viewBox="0 0 56 56" style="enable-background:new 0 0 56 56;" xml:space="preserve">
<g>
	<path d="M28.585,32.542c-0.27-0.032-0.543-0.053-0.821-0.053c-0.491,0-0.969,0.053-1.431,0.151
		c-4.595,0.594-8.827,3.552-12.062,8.492l-0.466,0.711l0.359,0.548C17.798,47.942,22.693,51,27.947,51
		c5.253,0,10.148-3.058,13.783-8.609l0.466-0.711l-0.359-0.548C38.325,35.768,33.636,32.741,28.585,32.542z M32.673,39.397
		c0,2.707-2.202,4.909-4.909,4.909s-4.909-2.202-4.909-4.909c0-2.343,1.652-4.302,3.852-4.788c0.446-0.053,0.895-0.087,1.348-0.087
		c0.025,0,0.05,0.002,0.075,0.003C30.663,34.716,32.673,36.815,32.673,39.397z M27.947,49c-4.387,0-8.538-2.537-11.744-7.161
		c1.559-2.286,3.348-4.069,5.28-5.304c-0.4,0.874-0.629,1.841-0.629,2.863c0,3.81,3.1,6.909,6.909,6.909s6.909-3.1,6.909-6.909
		c0-1.216-0.318-2.357-0.872-3.351c2.204,1.207,4.242,3.107,5.996,5.637C36.577,46.406,32.383,49,27.947,49z"/>
	<path d="M47.835,20.986c-0.137-0.019-2.457-0.335-4.684,0.002C43.1,20.996,43.049,21,42.999,21c-0.486,0-0.912-0.354-0.987-0.85
		c-0.083-0.546,0.292-1.056,0.838-1.139c1.531-0.233,3.062-0.196,4.083-0.124C46.262,11.135,39.83,5,32.085,5
		c-4.697,0-9.418,2.379-12.285,6.129C21.754,12.781,23,15.246,23,18c0,0.553-0.447,1-1,1s-1-0.447-1-1
		c0-2.462-1.281-4.627-3.209-5.876c-0.227-0.147-0.462-0.277-0.702-0.396c-0.069-0.034-0.139-0.069-0.21-0.101
		c-0.272-0.124-0.55-0.234-0.835-0.321c-0.035-0.01-0.071-0.017-0.106-0.027c-0.259-0.075-0.522-0.132-0.789-0.177
		c-0.078-0.013-0.155-0.025-0.233-0.036C14.614,11.027,14.309,11,14,11c-3.859,0-7,3.141-7,7c0,0.082,0.006,0.163,0.012,0.244
		l0.012,0.21l-0.009,0.16C7.008,18.744,7,18.873,7,19v0.63l-0.567,0.271C2.705,21.688,0,26,0,30.154
		c0,5.956,4.826,10.803,10.772,10.842l0.989-1.509c4.207-6.426,9.993-9.965,16.292-9.965c6.299,0,12.085,3.539,16.292,9.966
		L45.336,41h0.636C51.501,41,56,36.501,56,30.972C56,26.161,52.49,21.872,47.835,20.986z"/>
</g>
<g>
</g>
<g>
</g>
<g>
</g>
<g>
</g>
<g>
</g>
<g>
</g>
<g>
</g>
<g>
</g>
<g>
</g>
<g>
</g>
<g>
</g>
<g>
</g>
<g>
</g>
<g>
</g>
<g>
</g>
</svg>
