<?xml version="1.0" encoding="iso-8859-1"?>
<!-- Generator: Adobe Illustrator 18.0.0, SVG Export Plug-In . SVG Version: 6.00 Build 0)  -->
<!DOCTYPE svg PUBLIC "-//W3C//DTD SVG 1.1//EN" "http://www.w3.org/Graphics/SVG/1.1/DTD/svg11.dtd">
<svg version="1.1" id="Capa_1" xmlns="http://www.w3.org/2000/svg" xmlns:xlink="http://www.w3.org/1999/xlink" x="0px" y="0px"
	 viewBox="0 0 56 56" style="enable-background:new 0 0 56 56;" xml:space="preserve">
<g>
	<path d="M34.684,29.058c-2.396,0-4.407,1.449-5.684,3.213c-1.276-1.764-3.288-3.213-5.684-3.213c-3.819,0-6.871,2.963-7.271,7.052
		c-0.042,0.268-0.144,1.22,0.226,2.709c0.546,2.197,1.801,4.192,3.631,5.77l8.329,7.127C28.445,51.898,28.719,52,29,52
		s0.555-0.102,0.769-0.284l8.331-7.129c1.828-1.575,3.083-3.57,3.629-5.768c0.37-1.49,0.268-2.443,0.226-2.71
		C41.555,32.021,38.502,29.058,34.684,29.058z M39.787,38.337c-0.445,1.794-1.479,3.432-2.99,4.732L29,49.741l-7.795-6.671
		c-1.513-1.303-2.547-2.94-2.992-4.734c-0.302-1.213-0.194-1.897-0.194-1.897l0.016-0.105c0.245-2.621,2.138-5.275,5.282-5.275
		c2.189,0,3.974,1.811,4.77,3.605L29,36.724l0.914-2.061c0.796-1.795,2.58-3.605,4.77-3.605c3.145,0,5.037,2.654,5.295,5.366
		C39.98,36.431,40.091,37.115,39.787,38.337z"/>
	<path d="M47.835,19.986c-0.137-0.019-2.457-0.335-4.684,0.002C43.1,19.996,43.049,20,42.999,20c-0.486,0-0.912-0.354-0.987-0.85
		c-0.083-0.546,0.292-1.056,0.838-1.139c1.531-0.233,3.062-0.196,4.083-0.124C46.262,10.135,39.83,4,32.085,4
		c-4.697,0-9.418,2.379-12.285,6.129C21.754,11.781,23,14.246,23,17c0,0.553-0.447,1-1,1s-1-0.447-1-1
		c0-2.462-1.281-4.627-3.209-5.876c-0.227-0.147-0.462-0.277-0.702-0.396c-0.069-0.034-0.139-0.069-0.21-0.101
		c-0.272-0.124-0.55-0.234-0.835-0.321c-0.035-0.01-0.071-0.017-0.106-0.027c-0.259-0.075-0.522-0.132-0.789-0.177
		c-0.078-0.013-0.155-0.025-0.233-0.036C14.614,10.027,14.309,10,14,10c-3.859,0-7,3.141-7,7c0,0.082,0.006,0.163,0.012,0.244
		l0.012,0.21l-0.009,0.16C7.008,17.744,7,17.873,7,18v0.63l-0.567,0.271C2.705,20.688,0,25,0,29.154C0,35.135,4.865,40,10.845,40
		h2.648c-0.044-0.153-0.095-0.304-0.134-0.459c-0.46-1.858-0.379-3.19-0.289-3.82c0.564-5.492,4.971-9.663,10.246-9.663
		c1.994,0,3.983,0.686,5.684,1.946c1.7-1.261,3.689-1.946,5.684-1.946c5.275,0,9.682,4.171,10.251,9.702
		c0.085,0.591,0.166,1.923-0.294,3.781c-0.039,0.155-0.09,0.306-0.134,0.459h1.465C51.501,40,56,35.501,56,29.972
		C56,25.161,52.49,20.872,47.835,19.986z"/>
</g>
<g>
</g>
<g>
</g>
<g>
</g>
<g>
</g>
<g>
</g>
<g>
</g>
<g>
</g>
<g>
</g>
<g>
</g>
<g>
</g>
<g>
</g>
<g>
</g>
<g>
</g>
<g>
</g>
<g>
</g>
</svg>
