<?xml version="1.0" encoding="iso-8859-1"?>
<!-- Generator: Adobe Illustrator 18.0.0, SVG Export Plug-In . SVG Version: 6.00 Build 0)  -->
<!DOCTYPE svg PUBLIC "-//W3C//DTD SVG 1.1//EN" "http://www.w3.org/Graphics/SVG/1.1/DTD/svg11.dtd">
<svg version="1.1" id="Capa_1" xmlns="http://www.w3.org/2000/svg" xmlns:xlink="http://www.w3.org/1999/xlink" x="0px" y="0px"
	 viewBox="0 0 56 56" style="enable-background:new 0 0 56 56;" xml:space="preserve">
<g>
	<path d="M17,52h24V28H17V52z M19,30h20v20h-9V37.414l4.293,4.293l1.414-1.414L29,33.586l-6.707,6.707l1.414,1.414L28,37.414V50h-9
		V30z"/>
	<path d="M47.835,19.986c-0.137-0.019-2.457-0.335-4.684,0.002C43.1,19.996,43.049,20,42.999,20c-0.486,0-0.912-0.354-0.987-0.85
		c-0.083-0.546,0.292-1.056,0.838-1.139c1.531-0.233,3.062-0.196,4.083-0.124C46.262,10.135,39.83,4,32.085,4
		c-4.697,0-9.418,2.379-12.285,6.129C21.754,11.781,23,14.246,23,17c0,0.553-0.447,1-1,1s-1-0.447-1-1
		c0-2.462-1.281-4.627-3.209-5.876c-0.227-0.147-0.462-0.277-0.702-0.396c-0.069-0.034-0.139-0.069-0.21-0.101
		c-0.272-0.124-0.55-0.234-0.835-0.321c-0.035-0.01-0.071-0.017-0.106-0.027c-0.259-0.075-0.522-0.132-0.789-0.177
		c-0.078-0.013-0.155-0.025-0.233-0.036C14.614,10.027,14.309,10,14,10c-3.859,0-7,3.141-7,7c0,0.082,0.006,0.163,0.012,0.244
		l0.012,0.21l-0.009,0.16C7.008,17.744,7,17.873,7,18v0.63l-0.567,0.271C2.705,20.688,0,25,0,29.154C0,35.135,4.865,40,10.845,40H14
		V25h30v15h1.972C51.501,40,56,35.501,56,29.972C56,25.161,52.49,20.872,47.835,19.986z"/>
</g>
<g>
</g>
<g>
</g>
<g>
</g>
<g>
</g>
<g>
</g>
<g>
</g>
<g>
</g>
<g>
</g>
<g>
</g>
<g>
</g>
<g>
</g>
<g>
</g>
<g>
</g>
<g>
</g>
<g>
</g>
</svg>
