<?xml version="1.0" encoding="iso-8859-1"?>
<!-- Generator: Adobe Illustrator 18.0.0, SVG Export Plug-In . SVG Version: 6.00 Build 0)  -->
<!DOCTYPE svg PUBLIC "-//W3C//DTD SVG 1.1//EN" "http://www.w3.org/Graphics/SVG/1.1/DTD/svg11.dtd">
<svg version="1.1" id="Capa_1" xmlns="http://www.w3.org/2000/svg" xmlns:xlink="http://www.w3.org/1999/xlink" x="0px" y="0px"
	 viewBox="0 0 56 56" style="enable-background:new 0 0 56 56;" xml:space="preserve">
<g>
	<path d="M37,51h-1v-2.36c0-3.534-1.845-6.748-4.827-8.64C34.155,38.108,36,34.895,36,31.36V29h1c0.553,0,1-0.447,1-1s-0.447-1-1-1
		h-1h-1H21h-1h-1c-0.553,0-1,0.447-1,1s0.447,1,1,1h1v2.36c0,3.534,1.845,6.748,4.827,8.64C21.845,41.892,20,45.105,20,48.64V51h-1
		c-0.553,0-1,0.447-1,1s0.447,1,1,1h1h14h2h1c0.553,0,1-0.447,1-1S37.553,51,37,51z M22,31.36V29h12v2.36
		c0,3.319-2.033,6.298-5.197,7.64h-1.605C24.033,37.658,22,34.68,22,31.36z M22,51v-2.36c0-3.319,2.033-6.298,5.197-7.64h1.605
		C31.967,42.342,34,45.32,34,48.64V51H22z"/>
	<path d="M47.835,18.986c-0.137-0.019-2.457-0.335-4.684,0.002C43.1,18.996,43.049,19,42.999,19c-0.486,0-0.912-0.354-0.987-0.85
		c-0.083-0.546,0.292-1.056,0.838-1.139c1.531-0.233,3.062-0.196,4.083-0.124C46.262,9.135,39.83,3,32.085,3
		C27.388,3,22.667,5.379,19.8,9.129C21.754,10.781,23,13.246,23,16c0,0.553-0.447,1-1,1s-1-0.447-1-1
		c0-2.462-1.281-4.627-3.209-5.876c-0.227-0.147-0.462-0.277-0.702-0.396c-0.069-0.034-0.139-0.069-0.21-0.101
		c-0.272-0.124-0.55-0.234-0.835-0.321c-0.035-0.01-0.071-0.017-0.106-0.027c-0.259-0.075-0.522-0.132-0.789-0.177
		c-0.078-0.013-0.155-0.025-0.233-0.036C14.614,9.027,14.309,9,14,9c-3.859,0-7,3.141-7,7c0,0.082,0.006,0.163,0.012,0.244
		l0.012,0.21l-0.009,0.16C7.008,16.744,7,16.873,7,17v0.63l-0.567,0.271C2.705,19.688,0,24,0,28.154C0,34.135,4.865,39,10.845,39
		h8.622C17.895,36.809,17,34.165,17,31.36V24h22v7.36c0,2.805-0.895,5.449-2.466,7.64h9.438C51.501,39,56,34.501,56,28.972
		C56,24.161,52.49,19.872,47.835,18.986z"/>
</g>
<g>
</g>
<g>
</g>
<g>
</g>
<g>
</g>
<g>
</g>
<g>
</g>
<g>
</g>
<g>
</g>
<g>
</g>
<g>
</g>
<g>
</g>
<g>
</g>
<g>
</g>
<g>
</g>
<g>
</g>
</svg>
