<?xml version="1.0" encoding="iso-8859-1"?>
<!-- Generator: Adobe Illustrator 18.0.0, SVG Export Plug-In . SVG Version: 6.00 Build 0)  -->
<!DOCTYPE svg PUBLIC "-//W3C//DTD SVG 1.1//EN" "http://www.w3.org/Graphics/SVG/1.1/DTD/svg11.dtd">
<svg version="1.1" id="Capa_1" xmlns="http://www.w3.org/2000/svg" xmlns:xlink="http://www.w3.org/1999/xlink" x="0px" y="0px"
	 viewBox="0 0 58.201 58.201" style="enable-background:new 0 0 58.201 58.201;" xml:space="preserve">
<g>
	<path d="M50.1,39.201c0-3.859-3.14-7-7-7s-7,3.141-7,7v1h-4v18h22v-18h-4V39.201z M38.1,39.201c0-2.757,2.243-5,5-5s5,2.243,5,5v1
		h-10V39.201z M52.1,42.201v14h-18v-14h2h14H52.1z"/>
	<path d="M42.1,53.059v1.142c0,0.553,0.448,1,1,1s1-0.447,1-1v-1.142c1.72-0.447,3-1.999,3-3.858c0-2.206-1.794-4-4-4s-4,1.794-4,4
		C39.1,51.06,40.38,52.611,42.1,53.059z M43.1,47.201c1.103,0,2,0.897,2,2s-0.897,2-2,2s-2-0.897-2-2S41.997,47.201,43.1,47.201z"/>
	<path d="M35.356,32.885c-1.177,0.083-2.383,0.15-3.649,0.185c-0.87,0.027-1.74,0.041-2.606,0.041c-0.869,0-1.742-0.014-2.614-0.042
		c-7.341-0.201-13.191-1.238-17.403-2.717C7.104,29.685,5.409,28.899,4.1,28v7.111v0.5v0.5V37.4c2.846,2.971,12.394,5.711,25,5.711
		v-5.91h4.202C33.631,35.587,34.351,34.115,35.356,32.885z"/>
	<path d="M4.1,14.889V22v0.5V23v1.289c2.638,2.754,11.033,5.31,22.286,5.668c0.115,0.003,0.233,0.005,0.349,0.008
		c0.326,0.009,0.651,0.018,0.982,0.023C28.174,29.996,28.635,30,29.1,30s0.926-0.004,1.383-0.011
		c0.33-0.005,0.656-0.015,0.982-0.023c0.116-0.003,0.234-0.005,0.349-0.008c11.253-0.359,19.648-2.915,22.286-5.668V23v-0.5V22
		v-7.111C49.233,18.232,38.944,20,29.1,20S8.968,18.232,4.1,14.889z"/>
	<path d="M53.965,8.542C52.843,4.241,44.215,0,29.1,0C14.023,0,5.404,4.22,4.247,8.51C4.162,8.657,4.1,8.818,4.1,9v0.5v1.806
		C6.937,14.267,16.417,17,29.1,17s22.164-2.733,25-5.694V9.5V9C54.1,8.832,54.044,8.681,53.965,8.542z"/>
	<path d="M4.1,49.201c0,0.162,0.043,0.315,0.117,0.451c1.181,4.895,11.747,8.549,24.883,8.549v-12c-12.346,0-20.866-2.29-25-5.201
		V49.201z"/>
</g>
<g>
</g>
<g>
</g>
<g>
</g>
<g>
</g>
<g>
</g>
<g>
</g>
<g>
</g>
<g>
</g>
<g>
</g>
<g>
</g>
<g>
</g>
<g>
</g>
<g>
</g>
<g>
</g>
<g>
</g>
</svg>
