<?xml version="1.0" encoding="iso-8859-1"?>
<!-- Generator: Adobe Illustrator 18.0.0, SVG Export Plug-In . SVG Version: 6.00 Build 0)  -->
<!DOCTYPE svg PUBLIC "-//W3C//DTD SVG 1.1//EN" "http://www.w3.org/Graphics/SVG/1.1/DTD/svg11.dtd">
<svg version="1.1" id="Capa_1" xmlns="http://www.w3.org/2000/svg" xmlns:xlink="http://www.w3.org/1999/xlink" x="0px" y="0px"
	 viewBox="0 0 58.201 58.201" style="enable-background:new 0 0 58.201 58.201;" xml:space="preserve">
<g>
	<path d="M32.6,34.201v24h24v-24H32.6z M54.6,56.201h-9V43.615l4.293,4.293l1.414-1.414L44.6,39.787l-6.707,6.707l1.414,1.414
		l4.293-4.293v12.586h-9v-20h20V56.201z"/>
	<path d="M26.6,33.111c-0.869,0-1.742-0.014-2.614-0.042c-7.341-0.201-13.191-1.238-17.403-2.717C4.604,29.685,2.909,28.899,1.6,28
		v7.111v0.5v0.5V37.4c2.846,2.971,12.394,5.711,25,5.711c1.024,0,2.019-0.024,3-0.059v-10c-0.134,0.004-0.259,0.013-0.394,0.017
		C28.337,33.097,27.467,33.111,26.6,33.111z"/>
	<path d="M24.236,29.965c0.326,0.009,0.651,0.018,0.982,0.023C25.674,29.996,26.135,30,26.6,30s0.926-0.004,1.383-0.011
		c0.33-0.005,0.656-0.015,0.982-0.023c0.116-0.003,0.234-0.005,0.349-0.008c11.253-0.359,19.648-2.915,22.286-5.668V23v-0.5V22
		v-7.111C46.733,18.232,36.444,20,26.6,20s-20.133-1.768-25-5.111V22v0.5V23v1.289c2.638,2.754,11.033,5.31,22.286,5.668
		C24.002,29.96,24.12,29.962,24.236,29.965z"/>
	<path d="M51.6,11.306V9.5V9c0-0.168-0.056-0.319-0.135-0.458C50.343,4.241,41.715,0,26.6,0C11.523,0,2.904,4.22,1.747,8.51
		C1.662,8.657,1.6,8.818,1.6,9v0.5v1.806C4.437,14.267,13.917,17,26.6,17S48.764,14.267,51.6,11.306z"/>
	<path d="M1.6,41v8.201c0,0.162,0.043,0.315,0.117,0.451c1.181,4.895,11.747,8.549,24.883,8.549c1.019,0,2.015-0.029,3-0.072v-11.98
		c-0.977,0.031-1.97,0.052-3,0.052C14.254,46.201,5.734,43.911,1.6,41z"/>
</g>
<g>
</g>
<g>
</g>
<g>
</g>
<g>
</g>
<g>
</g>
<g>
</g>
<g>
</g>
<g>
</g>
<g>
</g>
<g>
</g>
<g>
</g>
<g>
</g>
<g>
</g>
<g>
</g>
<g>
</g>
</svg>
