<?xml version="1.0" encoding="iso-8859-1"?>
<!-- Generator: Adobe Illustrator 18.0.0, SVG Export Plug-In . SVG Version: 6.00 Build 0)  -->
<!DOCTYPE svg PUBLIC "-//W3C//DTD SVG 1.1//EN" "http://www.w3.org/Graphics/SVG/1.1/DTD/svg11.dtd">
<svg version="1.1" id="Capa_1" xmlns="http://www.w3.org/2000/svg" xmlns:xlink="http://www.w3.org/1999/xlink" x="0px" y="0px"
	 viewBox="0 0 60 60" style="enable-background:new 0 0 60 60;" xml:space="preserve">
<g>
	<path d="M47,29c-7.168,0-13,5.832-13,13s5.832,13,13,13s13-5.832,13-13S54.168,29,47,29z M47,53c-6.065,0-11-4.935-11-11
		s4.935-11,11-11s11,4.935,11,11S53.065,53,47,53z"/>
	<path d="M53,41h-5v-5c0-0.552-0.448-1-1-1s-1,0.448-1,1v5h-5c-0.552,0-1,0.448-1,1s0.448,1,1,1h5v5c0,0.552,0.448,1,1,1
		s1-0.448,1-1v-5h5c0.552,0,1-0.448,1-1S53.552,41,53,41z"/>
	<path d="M0,6.232v37.962c5.233-4.049,16.986-13.204,22.449-17.944L0,6.232z"/>
	<path d="M38.431,28.511C40.912,26.93,43.847,26,47,26c4.262,0,8.13,1.685,11,4.411V6.232L35.587,26.217L38.431,28.511z"/>
	<path d="M31.299,27.361L56.376,5H1.624l25.076,22.36C27.968,28.493,30.031,28.493,31.299,27.361z"/>
	<path d="M36.753,29.727l-2.679-2.161l-1.444,1.287c-1,0.893-2.315,1.34-3.63,1.34s-2.63-0.447-3.631-1.34l-1.414-1.261
		c-5.521,4.814-17.851,14.41-23.007,18.398C0.966,45.99,0.981,46,1,46h30.527C31.195,44.719,31,43.383,31,42
		C31,37.074,33.241,32.664,36.753,29.727z"/>
</g>
<g>
</g>
<g>
</g>
<g>
</g>
<g>
</g>
<g>
</g>
<g>
</g>
<g>
</g>
<g>
</g>
<g>
</g>
<g>
</g>
<g>
</g>
<g>
</g>
<g>
</g>
<g>
</g>
<g>
</g>
</svg>
