<?xml version="1.0" encoding="iso-8859-1"?>
<!-- Generator: Adobe Illustrator 18.0.0, SVG Export Plug-In . SVG Version: 6.00 Build 0)  -->
<!DOCTYPE svg PUBLIC "-//W3C//DTD SVG 1.1//EN" "http://www.w3.org/Graphics/SVG/1.1/DTD/svg11.dtd">
<svg version="1.1" id="Capa_1" xmlns="http://www.w3.org/2000/svg" xmlns:xlink="http://www.w3.org/1999/xlink" x="0px" y="0px"
	 viewBox="0 0 60 60" style="enable-background:new 0 0 60 60;" xml:space="preserve">
<g>
	<path d="M59.453,45.101c-0.116-0.367-0.434-0.634-0.814-0.688l-7.777-1.089l-3.472-6.779c-0.342-0.669-1.438-0.669-1.779,0
		l-3.472,6.779l-7.777,1.089c-0.381,0.053-0.698,0.321-0.814,0.688s-0.012,0.768,0.269,1.032l5.605,5.266L38.1,58.825
		c-0.066,0.374,0.084,0.752,0.388,0.978c0.305,0.226,0.711,0.26,1.049,0.089l6.964-3.529l6.964,3.529
		C53.607,59.964,53.762,60,53.916,60c0.211,0,0.421-0.067,0.597-0.197c0.304-0.226,0.454-0.604,0.388-0.978l-1.321-7.426
		l5.605-5.266C59.465,45.869,59.569,45.467,59.453,45.101z M51.815,50.312c-0.246,0.231-0.359,0.572-0.3,0.904l1.064,5.986
		l-5.628-2.852c-0.143-0.072-0.297-0.108-0.452-0.108s-0.31,0.036-0.452,0.108l-5.628,2.852l1.064-5.986
		c0.06-0.333-0.054-0.673-0.3-0.904l-4.479-4.208l6.225-0.872c0.322-0.045,0.603-0.245,0.751-0.535l2.818-5.503l2.818,5.503
		c0.148,0.29,0.429,0.49,0.751,0.535l6.225,0.872L51.815,50.312z"/>
	<path d="M11.5,48c-0.552,0-1-0.447-1-1s0.448-1,1-1h17.793l-2.097-1.97c-0.28-0.264-0.385-0.665-0.269-1.032
		s0.434-0.634,0.814-0.688l12.437-1.742l5.432-10.607c0.342-0.669,1.438-0.669,1.779,0l0.11,0.216V14.586L32.914,0H0.5v60h34.343
		l1.339-7.527L31.422,48H11.5z M33.5,4l10,10h-10V4z M11.5,14h10c0.552,0,1,0.447,1,1s-0.448,1-1,1h-10c-0.552,0-1-0.447-1-1
		S10.948,14,11.5,14z M11.5,22h25c0.552,0,1,0.447,1,1s-0.448,1-1,1h-25c-0.552,0-1-0.447-1-1S10.948,22,11.5,22z M11.5,30h25
		c0.552,0,1,0.447,1,1s-0.448,1-1,1h-25c-0.552,0-1-0.447-1-1S10.948,30,11.5,30z M11.5,38h25c0.552,0,1,0.447,1,1s-0.448,1-1,1h-25
		c-0.552,0-1-0.447-1-1S10.948,38,11.5,38z"/>
</g>
<g>
</g>
<g>
</g>
<g>
</g>
<g>
</g>
<g>
</g>
<g>
</g>
<g>
</g>
<g>
</g>
<g>
</g>
<g>
</g>
<g>
</g>
<g>
</g>
<g>
</g>
<g>
</g>
<g>
</g>
</svg>
