<?xml version="1.0" encoding="iso-8859-1"?>
<!-- Generator: Adobe Illustrator 18.0.0, SVG Export Plug-In . SVG Version: 6.00 Build 0)  -->
<!DOCTYPE svg PUBLIC "-//W3C//DTD SVG 1.1//EN" "http://www.w3.org/Graphics/SVG/1.1/DTD/svg11.dtd">
<svg version="1.1" id="Capa_1" xmlns="http://www.w3.org/2000/svg" xmlns:xlink="http://www.w3.org/1999/xlink" x="0px" y="0px"
	 viewBox="0 0 60 60" style="enable-background:new 0 0 60 60;" xml:space="preserve">
<g>
	<path d="M54.5,42v-1c0-3.86-3.14-7-7-7s-7,3.14-7,7v1h-4v18h22V42H54.5z M42.5,41c0-2.757,2.243-5,5-5s5,2.243,5,5v1h-10V41z
		 M56.5,58h-18V44h2h14h2V58z"/>
	<path d="M47.5,46c-2.206,0-4,1.794-4,4c0,1.858,1.28,3.411,3,3.858V55c0,0.552,0.448,1,1,1s1-0.448,1-1v-1.142
		c1.72-0.447,3-2,3-3.858C51.5,47.794,49.706,46,47.5,46z M47.5,52c-1.103,0-2-0.897-2-2s0.897-2,2-2s2,0.897,2,2S48.603,52,47.5,52
		z"/>
	<path d="M11.5,39c0-0.553,0.448-1,1-1h25c0.156,0,0.299,0.043,0.431,0.106C39.175,33.999,42.992,31,47.5,31
		c0.338,0,0.671,0.018,1,0.051V14.586L33.914,0H1.5v60h32V48h-21c-0.552,0-1-0.447-1-1s0.448-1,1-1h21v-6h-21
		C11.948,40,11.5,39.553,11.5,39z M32.5,2l14,14h-14V2z M12.5,14h10c0.552,0,1,0.447,1,1s-0.448,1-1,1h-10c-0.552,0-1-0.447-1-1
		S11.948,14,12.5,14z M12.5,22h25c0.552,0,1,0.447,1,1s-0.448,1-1,1h-25c-0.552,0-1-0.447-1-1S11.948,22,12.5,22z M12.5,30h25
		c0.552,0,1,0.447,1,1s-0.448,1-1,1h-25c-0.552,0-1-0.447-1-1S11.948,30,12.5,30z"/>
</g>
<g>
</g>
<g>
</g>
<g>
</g>
<g>
</g>
<g>
</g>
<g>
</g>
<g>
</g>
<g>
</g>
<g>
</g>
<g>
</g>
<g>
</g>
<g>
</g>
<g>
</g>
<g>
</g>
<g>
</g>
</svg>
