<?xml version="1.0" encoding="iso-8859-1"?>
<!-- Generator: Adobe Illustrator 18.0.0, SVG Export Plug-In . SVG Version: 6.00 Build 0)  -->
<!DOCTYPE svg PUBLIC "-//W3C//DTD SVG 1.1//EN" "http://www.w3.org/Graphics/SVG/1.1/DTD/svg11.dtd">
<svg version="1.1" id="Capa_1" xmlns="http://www.w3.org/2000/svg" xmlns:xlink="http://www.w3.org/1999/xlink" x="0px" y="0px"
	 viewBox="0 0 60 60" style="enable-background:new 0 0 60 60;" xml:space="preserve">
<g>
	<path d="M57,34.86V32.5h1c0.553,0,1-0.447,1-1s-0.447-1-1-1h-1h-1H42h-1h-1c-0.553,0-1,0.447-1,1s0.447,1,1,1h1v2.36
		c0,3.535,1.845,6.748,4.827,8.64C42.845,45.392,41,48.605,41,52.14v2.36h-1c-0.553,0-1,0.447-1,1s0.447,1,1,1h1h1h14h1h1
		c0.553,0,1-0.447,1-1s-0.447-1-1-1h-1v-2.36c0-3.535-1.845-6.748-4.827-8.64C55.155,41.608,57,38.395,57,34.86z M55,52.14v2.36H43
		v-2.36c0-3.319,2.033-6.298,5.197-7.64h1.605C52.967,45.842,55,48.82,55,52.14z M49.803,42.5h-1.605
		C45.033,41.158,43,38.18,43,34.86V32.5h12v2.36C55,38.18,52.967,41.158,49.803,42.5z"/>
	<path d="M26.515,10.5l-5-7H0v53h38v-4.36c0-3.247,1.199-6.279,3.262-8.64C39.199,41.14,38,38.107,38,34.86V27.5h22v-8v-2v-7H26.515
		z M58,17.5H31.515l-3.571-5H58V17.5z"/>
</g>
<g>
</g>
<g>
</g>
<g>
</g>
<g>
</g>
<g>
</g>
<g>
</g>
<g>
</g>
<g>
</g>
<g>
</g>
<g>
</g>
<g>
</g>
<g>
</g>
<g>
</g>
<g>
</g>
<g>
</g>
</svg>
