<?xml version="1.0" encoding="iso-8859-1"?>
<!-- Generator: Adobe Illustrator 18.0.0, SVG Export Plug-In . SVG Version: 6.00 Build 0)  -->
<!DOCTYPE svg PUBLIC "-//W3C//DTD SVG 1.1//EN" "http://www.w3.org/Graphics/SVG/1.1/DTD/svg11.dtd">
<svg version="1.1" id="Capa_1" xmlns="http://www.w3.org/2000/svg" xmlns:xlink="http://www.w3.org/1999/xlink" x="0px" y="0px"
	 viewBox="0 0 60 60" style="enable-background:new 0 0 60 60;" xml:space="preserve">
<g>
	<path d="M58.139,40.746l-7.777-1.089l-3.472-6.78c-0.342-0.668-1.438-0.668-1.779,0l-3.472,6.78l-7.777,1.089
		c-0.381,0.054-0.698,0.32-0.814,0.688s-0.012,0.768,0.269,1.031l5.605,5.268L37.6,55.158c-0.066,0.373,0.084,0.752,0.388,0.978
		c0.305,0.227,0.711,0.263,1.049,0.089L46,52.696l6.964,3.528c0.143,0.073,0.298,0.108,0.452,0.108c0.211,0,0.421-0.066,0.597-0.197
		c0.304-0.226,0.454-0.604,0.388-0.978l-1.321-7.426l5.605-5.268c0.28-0.264,0.385-0.664,0.269-1.031S58.52,40.8,58.139,40.746z
		 M51.315,46.646c-0.246,0.231-0.359,0.571-0.3,0.903l1.064,5.986l-5.628-2.852c-0.143-0.072-0.297-0.108-0.452-0.108
		s-0.31,0.036-0.452,0.108l-5.628,2.852l1.064-5.986c0.06-0.332-0.054-0.672-0.3-0.903l-4.479-4.208l6.225-0.872
		c0.322-0.045,0.603-0.244,0.751-0.534L46,35.527l2.818,5.504c0.148,0.29,0.429,0.489,0.751,0.534l6.225,0.872L51.315,46.646z"/>
	<path d="M26.515,10.5l-5-7H0v53h34.314l1.369-7.693l-8.986-8.444c-0.28-0.264-0.385-0.664-0.269-1.031s0.434-0.634,0.814-0.688
		l12.437-1.741l5.432-10.608c0.342-0.668,1.438-0.668,1.779,0l5.432,10.608L60,37.978V19.5v-2v-7H26.515z M58,17.5H31.515l-3.571-5
		H58V17.5z"/>
</g>
<g>
</g>
<g>
</g>
<g>
</g>
<g>
</g>
<g>
</g>
<g>
</g>
<g>
</g>
<g>
</g>
<g>
</g>
<g>
</g>
<g>
</g>
<g>
</g>
<g>
</g>
<g>
</g>
<g>
</g>
</svg>
