<?xml version="1.0" encoding="iso-8859-1"?>
<!-- Generator: Adobe Illustrator 18.0.0, SVG Export Plug-In . SVG Version: 6.00 Build 0)  -->
<!DOCTYPE svg PUBLIC "-//W3C//DTD SVG 1.1//EN" "http://www.w3.org/Graphics/SVG/1.1/DTD/svg11.dtd">
<svg version="1.1" id="Capa_1" xmlns="http://www.w3.org/2000/svg" xmlns:xlink="http://www.w3.org/1999/xlink" x="0px" y="0px"
	 viewBox="0 0 60 60" style="enable-background:new 0 0 60 60;" xml:space="preserve">
<g>
	<path d="M58.199,44.52c-0.549-0.103-1.069,0.241-1.18,0.781c-1.116,5.502-5.445,9.199-10.771,9.199c-5.028,0-9.446-3.3-10.948-8H38
		v-2h-6v6h2v-1.849c2.169,4.681,6.915,7.849,12.249,7.849c6.304,0,11.42-4.341,12.731-10.801C59.09,45.157,58.74,44.63,58.199,44.52
		z"/>
	<path d="M58,37.809c-2.25-4.454-6.704-7.309-11.751-7.309c-6.109,0-11.541,3.997-13.209,9.721c-0.154,0.53,0.15,1.085,0.681,1.239
		c0.531,0.155,1.086-0.15,1.239-0.681c1.398-4.797,6.146-8.279,11.289-8.279c4.565,0,8.562,2.766,10.33,7H54v2h6v-6h-2V37.809z"/>
	<path d="M26.515,10.5l-5-7H0v53h37.043C32.791,53.512,30,48.58,30,43c0-9.098,7.402-16.5,16.5-16.5c5.58,0,10.512,2.792,13.5,7.043
		V19.5v-2v-7H26.515z M58,17.5H31.515l-3.571-5H58V17.5z"/>
</g>
<g>
</g>
<g>
</g>
<g>
</g>
<g>
</g>
<g>
</g>
<g>
</g>
<g>
</g>
<g>
</g>
<g>
</g>
<g>
</g>
<g>
</g>
<g>
</g>
<g>
</g>
<g>
</g>
<g>
</g>
</svg>
