<?xml version="1.0" encoding="iso-8859-1"?>
<!-- Generator: Adobe Illustrator 18.0.0, SVG Export Plug-In . SVG Version: 6.00 Build 0)  -->
<!DOCTYPE svg PUBLIC "-//W3C//DTD SVG 1.1//EN" "http://www.w3.org/Graphics/SVG/1.1/DTD/svg11.dtd">
<svg version="1.1" id="Capa_1" xmlns="http://www.w3.org/2000/svg" xmlns:xlink="http://www.w3.org/1999/xlink" x="0px" y="0px"
	 viewBox="0 0 60 60" style="enable-background:new 0 0 60 60;" xml:space="preserve">
<g>
	<path d="M53,37.5c0-3.859-3.14-7-7-7s-7,3.141-7,7v1h-4v18h22v-18h-4V37.5z M41,37.5c0-2.757,2.243-5,5-5s5,2.243,5,5v1H41V37.5z
		 M55,40.5v14H37v-14h2h14H55z"/>
	<path d="M45,51.358V52.5c0,0.553,0.448,1,1,1s1-0.447,1-1v-1.142c1.72-0.447,3-1.999,3-3.858c0-2.206-1.794-4-4-4s-4,1.794-4,4
		C42,49.359,43.28,50.911,45,51.358z M46,45.5c1.103,0,2,0.897,2,2s-0.897,2-2,2s-2-0.897-2-2S44.897,45.5,46,45.5z"/>
	<path d="M26.515,10.5l-5-7H0v53h32v-21h4.202c0.929-4.559,4.969-8,9.798-8s8.869,3.441,9.798,8H60v-16v-2v-7H26.515z M58,17.5
		H31.515l-3.571-5H58V17.5z"/>
</g>
<g>
</g>
<g>
</g>
<g>
</g>
<g>
</g>
<g>
</g>
<g>
</g>
<g>
</g>
<g>
</g>
<g>
</g>
<g>
</g>
<g>
</g>
<g>
</g>
<g>
</g>
<g>
</g>
<g>
</g>
</svg>
