<?xml version="1.0" encoding="iso-8859-1"?>
<!-- Generator: Adobe Illustrator 18.0.0, SVG Export Plug-In . SVG Version: 6.00 Build 0)  -->
<!DOCTYPE svg PUBLIC "-//W3C//DTD SVG 1.1//EN" "http://www.w3.org/Graphics/SVG/1.1/DTD/svg11.dtd">
<svg version="1.1" id="Capa_1" xmlns="http://www.w3.org/2000/svg" xmlns:xlink="http://www.w3.org/1999/xlink" x="0px" y="0px"
	 viewBox="0 0 60.001 60.001" style="enable-background:new 0 0 60.001 60.001;" xml:space="preserve">
<g>
	<path d="M59.693,53.136L47.849,32.83c-0.405-0.695-1.128-1.11-1.933-1.11c-0.805,0-1.528,0.415-1.933,1.11L32.137,53.136
		c-0.409,0.7-0.412,1.539-0.008,2.242c0.404,0.703,1.129,1.123,1.94,1.123h23.691c0.811,0,1.536-0.42,1.939-1.123
		C60.104,54.675,60.102,53.837,59.693,53.136z M57.966,54.382c-0.03,0.055-0.092,0.119-0.205,0.119H34.07
		c-0.114,0-0.175-0.064-0.206-0.119s-0.056-0.14,0.001-0.238L45.71,33.838c0.057-0.098,0.143-0.118,0.206-0.118
		c0.062,0,0.148,0.021,0.205,0.118l11.845,20.306C58.022,54.242,57.998,54.327,57.966,54.382z"/>
	<path d="M46,38.501c-0.552,0-1,0.447-1,1v8c0,0.553,0.448,1,1,1s1-0.447,1-1v-8C47,38.948,46.552,38.501,46,38.501z"/>
	<path d="M45.29,50.791C45.11,50.98,45,51.23,45,51.501c0,0.27,0.11,0.52,0.29,0.71c0.19,0.18,0.45,0.29,0.71,0.29
		c0.27,0,0.53-0.11,0.7-0.29c0.19-0.181,0.3-0.44,0.3-0.71c0-0.271-0.11-0.53-0.29-0.71C46.35,50.421,45.67,50.421,45.29,50.791z"/>
	<path d="M41.391,31.318c0.934-1.603,2.668-2.599,4.524-2.599c1.857,0,3.59,0.996,4.525,2.601L60,47.707V19.501v-2v-7H26.515l-5-7H0
		v53h29.347c-0.733-1.551-0.673-3.382,0.199-4.877L41.391,31.318z M27.943,12.501H58v5H31.515L27.943,12.501z"/>
</g>
<g>
</g>
<g>
</g>
<g>
</g>
<g>
</g>
<g>
</g>
<g>
</g>
<g>
</g>
<g>
</g>
<g>
</g>
<g>
</g>
<g>
</g>
<g>
</g>
<g>
</g>
<g>
</g>
<g>
</g>
</svg>
