<?xml version="1.0" encoding="iso-8859-1"?>
<!-- Generator: Adobe Illustrator 18.0.0, SVG Export Plug-In . SVG Version: 6.00 Build 0)  -->
<!DOCTYPE svg PUBLIC "-//W3C//DTD SVG 1.1//EN" "http://www.w3.org/Graphics/SVG/1.1/DTD/svg11.dtd">
<svg version="1.1" id="Capa_1" xmlns="http://www.w3.org/2000/svg" xmlns:xlink="http://www.w3.org/1999/xlink" x="0px" y="0px"
	 viewBox="0 0 58 58" style="enable-background:new 0 0 58 58;" xml:space="preserve">
<g>
	<path d="M52,37c0-3.859-3.14-7-7-7s-7,3.141-7,7v1h-4v18h22V38h-4V37z M40,37c0-2.757,2.243-5,5-5s5,2.243,5,5v1H40V37z M54,40v14
		H36V40h2h14H54z"/>
	<path d="M44,49.858V51c0,0.553,0.448,1,1,1s1-0.447,1-1v-1.142c1.72-0.447,3-1.999,3-3.858c0-2.206-1.794-4-4-4s-4,1.794-4,4
		C41,47.859,42.28,49.411,44,49.858z M45,44c1.103,0,2,0.897,2,2s-0.897,2-2,2s-2-0.897-2-2S43.897,44,45,44z"/>
	<path d="M57,2H1C0.448,2,0,2.447,0,3v44c0,0.553,0.448,1,1,1h30V35h3L23.974,24.389L7.661,38.751C7.471,38.918,7.235,39,7,39
		c-0.277,0-0.553-0.114-0.751-0.339c-0.365-0.415-0.325-1.047,0.09-1.412l17.017-14.982c0.396-0.348,0.994-0.329,1.368,0.044
		l4.743,4.743l9.794-10.727c0.179-0.196,0.429-0.313,0.694-0.325c0.264-0.006,0.524,0.083,0.72,0.262l12,11
		c0.407,0.373,0.435,1.006,0.062,1.413c-0.373,0.406-1.006,0.435-1.413,0.062L40.063,18.414l-9.181,10.054l4.807,4.807
		c0.011,0.01,0.014,0.025,0.024,0.036C37.186,29.62,40.789,27,45,27c4.829,0,8.869,3.441,9.798,8H58V3C58,2.447,57.552,2,57,2z
		 M16,21.138c-3.071,0-5.569-2.498-5.569-5.568C10.431,12.498,12.929,10,16,10s5.569,2.498,5.569,5.569
		C21.569,18.64,19.071,21.138,16,21.138z"/>
</g>
<g>
</g>
<g>
</g>
<g>
</g>
<g>
</g>
<g>
</g>
<g>
</g>
<g>
</g>
<g>
</g>
<g>
</g>
<g>
</g>
<g>
</g>
<g>
</g>
<g>
</g>
<g>
</g>
<g>
</g>
</svg>
