<?xml version="1.0" encoding="iso-8859-1"?>
<!-- Generator: Adobe Illustrator 18.0.0, SVG Export Plug-In . SVG Version: 6.00 Build 0)  -->
<!DOCTYPE svg PUBLIC "-//W3C//DTD SVG 1.1//EN" "http://www.w3.org/Graphics/SVG/1.1/DTD/svg11.dtd">
<svg version="1.1" id="Capa_1" xmlns="http://www.w3.org/2000/svg" xmlns:xlink="http://www.w3.org/1999/xlink" x="0px" y="0px"
	 viewBox="0 0 60 60" style="enable-background:new 0 0 60 60;" xml:space="preserve">
<g>
	<path d="M59.723,56.309l-5.969-6.244c1.746-1.919,2.82-4.458,2.82-7.25c0-5.953-4.843-10.796-10.796-10.796
		s-10.796,4.843-10.796,10.796S39.824,53.61,45.777,53.61c2.441,0,4.688-0.824,6.499-2.196l6.001,6.277
		C58.474,57.896,58.736,58,59,58c0.249,0,0.497-0.092,0.691-0.277C60.09,57.341,60.104,56.708,59.723,56.309z M36.981,42.814
		c0-4.85,3.946-8.796,8.796-8.796s8.796,3.946,8.796,8.796s-3.946,8.796-8.796,8.796S36.981,47.664,36.981,42.814z"/>
	<path d="M34.276,34.689L23.974,24.389L7.661,38.751C7.471,38.918,7.235,39,7,39c-0.277,0-0.553-0.114-0.751-0.339
		c-0.365-0.415-0.325-1.047,0.09-1.412l17.017-14.982c0.396-0.348,0.994-0.329,1.368,0.044l4.743,4.743l9.794-10.727
		c0.179-0.196,0.429-0.313,0.694-0.325c0.264-0.006,0.524,0.083,0.72,0.262l12,11c0.407,0.373,0.435,1.006,0.062,1.413
		c-0.373,0.406-1.006,0.435-1.413,0.062L40.063,18.414l-9.181,10.054l4.807,4.807c0.027,0.027,0.038,0.063,0.061,0.092
		c2.517-2.67,6.076-4.349,10.026-4.349c5.307,0,9.916,3.016,12.223,7.421V3c0-0.553-0.448-1-1-1H1C0.448,2,0,2.447,0,3v44
		c0,0.553,0.448,1,1,1h32.001c-0.653-1.603-1.02-3.351-1.02-5.186c0-2.965,0.949-5.707,2.546-7.958
		C34.439,34.81,34.35,34.764,34.276,34.689z M16,10c3.071,0,5.569,2.498,5.569,5.569c0,3.07-2.498,5.568-5.569,5.568
		s-5.569-2.498-5.569-5.568C10.431,12.498,12.929,10,16,10z"/>
</g>
<g>
</g>
<g>
</g>
<g>
</g>
<g>
</g>
<g>
</g>
<g>
</g>
<g>
</g>
<g>
</g>
<g>
</g>
<g>
</g>
<g>
</g>
<g>
</g>
<g>
</g>
<g>
</g>
<g>
</g>
</svg>
