<?xml version="1.0" encoding="iso-8859-1"?>
<!-- Generator: Adobe Illustrator 18.0.0, SVG Export Plug-In . SVG Version: 6.00 Build 0)  -->
<!DOCTYPE svg PUBLIC "-//W3C//DTD SVG 1.1//EN" "http://www.w3.org/Graphics/SVG/1.1/DTD/svg11.dtd">
<svg version="1.1" id="Capa_1" xmlns="http://www.w3.org/2000/svg" xmlns:xlink="http://www.w3.org/1999/xlink" x="0px" y="0px"
	 viewBox="0 0 59 59" style="enable-background:new 0 0 59 59;" xml:space="preserve">
<g>
	<path d="M58.953,42.6c-0.116-0.367-0.434-0.634-0.814-0.688l-7.777-1.089l-3.472-6.78c-0.342-0.668-1.438-0.668-1.779,0
		l-3.472,6.78l-7.777,1.089c-0.381,0.054-0.698,0.32-0.814,0.688s-0.012,0.768,0.269,1.031l5.605,5.267L37.6,56.325
		c-0.066,0.373,0.084,0.752,0.388,0.978c0.305,0.227,0.711,0.263,1.049,0.089L46,53.863l6.964,3.528
		c0.143,0.073,0.298,0.108,0.452,0.108c0.211,0,0.421-0.066,0.597-0.197c0.304-0.226,0.454-0.604,0.388-0.978l-1.321-7.427
		l5.605-5.267C58.965,43.368,59.069,42.967,58.953,42.6z M51.315,47.811c-0.246,0.231-0.359,0.571-0.3,0.903l1.064,5.987
		l-5.628-2.852c-0.143-0.072-0.297-0.108-0.452-0.108s-0.31,0.036-0.452,0.108l-5.628,2.852l1.064-5.987
		c0.06-0.332-0.054-0.672-0.3-0.903l-4.479-4.207l6.225-0.872c0.322-0.045,0.603-0.244,0.751-0.534L46,36.694l2.818,5.504
		c0.148,0.29,0.429,0.489,0.751,0.534l6.225,0.872L51.315,47.811z"/>
	<path d="M26.428,40.498c0.116-0.367,0.434-0.634,0.814-0.688l12.437-1.741L45.11,27.46c0.342-0.668,1.438-0.668,1.779,0
		l5.432,10.608L58,38.864V2.499c0-0.553-0.448-1-1-1H1c-0.552,0-1,0.447-1,1v44c0,0.553,0.448,1,1,1h32.051l-6.355-5.971
		C26.416,41.265,26.312,40.865,26.428,40.498z M16,9.499c3.071,0,5.569,2.498,5.569,5.569c0,3.07-2.498,5.568-5.569,5.568
		s-5.569-2.498-5.569-5.568C10.431,11.998,12.929,9.499,16,9.499z M7.661,38.25c-0.19,0.167-0.426,0.249-0.66,0.249
		c-0.277,0-0.553-0.114-0.751-0.339c-0.365-0.415-0.325-1.047,0.09-1.412l17.017-14.982c0.396-0.348,0.994-0.329,1.368,0.044
		l4.743,4.743l9.794-10.727c0.179-0.196,0.429-0.313,0.694-0.325c0.264-0.006,0.524,0.083,0.72,0.262l12,11
		c0.407,0.373,0.435,1.006,0.062,1.413c-0.373,0.406-1.006,0.435-1.413,0.062L40.063,17.914l-9.181,10.054l4.807,4.807
		c0.391,0.391,0.391,1.023,0,1.414s-1.023,0.391-1.414,0L23.974,23.888L7.661,38.25z"/>
</g>
<g>
</g>
<g>
</g>
<g>
</g>
<g>
</g>
<g>
</g>
<g>
</g>
<g>
</g>
<g>
</g>
<g>
</g>
<g>
</g>
<g>
</g>
<g>
</g>
<g>
</g>
<g>
</g>
<g>
</g>
</svg>
