<?xml version="1.0" encoding="iso-8859-1"?>
<!-- Generator: Adobe Illustrator 18.0.0, SVG Export Plug-In . SVG Version: 6.00 Build 0)  -->
<!DOCTYPE svg PUBLIC "-//W3C//DTD SVG 1.1//EN" "http://www.w3.org/Graphics/SVG/1.1/DTD/svg11.dtd">
<svg version="1.1" id="Capa_1" xmlns="http://www.w3.org/2000/svg" xmlns:xlink="http://www.w3.org/1999/xlink" x="0px" y="0px"
	 viewBox="0 0 59.999 59.999" style="enable-background:new 0 0 59.999 59.999;" xml:space="preserve">
<g>
	<path d="M59.954,42.081c-0.399-4.089-3.451-7.053-7.271-7.053c-2.396,0-4.407,1.449-5.684,3.213
		c-1.276-1.764-3.288-3.213-5.684-3.213c-3.818,0-6.871,2.963-7.271,7.052c-0.042,0.267-0.145,1.22,0.226,2.709
		c0.545,2.197,1.8,4.191,3.631,5.771l8.329,7.126c0.214,0.185,0.487,0.285,0.77,0.285c0.278,0,0.549-0.099,0.768-0.283l8.331-7.13
		c1.828-1.575,3.083-3.57,3.629-5.768C60.098,43.301,59.996,42.349,59.954,42.081z M57.787,44.308
		c-0.445,1.794-1.479,3.432-2.99,4.732l-7.796,6.672l-7.795-6.67c-1.514-1.305-2.549-2.941-2.993-4.735
		c-0.302-1.213-0.194-1.897-0.194-1.897l0.016-0.105c0.245-2.621,2.138-5.275,5.282-5.275c2.189,0,3.974,1.811,4.77,3.605L47,42.694
		l0.914-2.061c0.796-1.795,2.58-3.605,4.77-3.605c3.145,0,5.037,2.654,5.295,5.367C57.98,42.402,58.091,43.086,57.787,44.308z"/>
	<path d="M31.07,41.692c0.282-2.741,1.52-5.152,3.346-6.88c-0.046-0.033-0.099-0.052-0.14-0.093L23.974,24.417L7.661,38.779
		c-0.19,0.167-0.426,0.249-0.66,0.249c-0.277,0-0.553-0.114-0.751-0.339c-0.365-0.415-0.325-1.047,0.09-1.412l17.017-14.982
		c0.396-0.348,0.994-0.329,1.368,0.044l4.743,4.743l9.794-10.727c0.179-0.196,0.429-0.313,0.694-0.325
		c0.264-0.006,0.524,0.083,0.72,0.262l12,11c0.407,0.373,0.435,1.006,0.062,1.413c-0.373,0.406-1.006,0.435-1.413,0.062
		L40.063,18.443l-9.181,10.054l4.807,4.807c0.098,0.098,0.171,0.211,0.22,0.331c1.576-1.021,3.43-1.607,5.407-1.607
		c1.994,0,3.983,0.686,5.684,1.946c1.7-1.261,3.689-1.946,5.684-1.946c1.939,0,3.759,0.568,5.316,1.556V3.028c0-0.553-0.448-1-1-1H1
		c-0.552,0-1,0.447-1,1v44c0,0.553,0.448,1,1,1h31.268c-0.382-0.809-0.693-1.648-0.909-2.517
		C30.899,43.653,30.98,42.321,31.07,41.692z M16,10.028c3.071,0,5.569,2.498,5.569,5.569c0,3.07-2.498,5.568-5.569,5.568
		s-5.569-2.498-5.569-5.568C10.431,12.526,12.929,10.028,16,10.028z"/>
</g>
<g>
</g>
<g>
</g>
<g>
</g>
<g>
</g>
<g>
</g>
<g>
</g>
<g>
</g>
<g>
</g>
<g>
</g>
<g>
</g>
<g>
</g>
<g>
</g>
<g>
</g>
<g>
</g>
<g>
</g>
</svg>
