<?xml version="1.0" encoding="iso-8859-1"?>
<!-- Generator: Adobe Illustrator 18.0.0, SVG Export Plug-In . SVG Version: 6.00 Build 0)  -->
<!DOCTYPE svg PUBLIC "-//W3C//DTD SVG 1.1//EN" "http://www.w3.org/Graphics/SVG/1.1/DTD/svg11.dtd">
<svg version="1.1" id="Capa_1" xmlns="http://www.w3.org/2000/svg" xmlns:xlink="http://www.w3.org/1999/xlink" x="0px" y="0px"
	 viewBox="0 0 56 56" style="enable-background:new 0 0 56 56;" xml:space="preserve">
<g>
	<path d="M49,37c0-3.859-3.14-7-7-7s-7,3.141-7,7v1h-4v18h22V38h-4V37z M37,37c0-2.757,2.243-5,5-5s5,2.243,5,5v1H37V37z M51,40v14
		H33V40h2h14H51z"/>
	<path d="M41,50.858V52c0,0.553,0.448,1,1,1s1-0.447,1-1v-1.142c1.72-0.447,3-1.999,3-3.858c0-2.206-1.794-4-4-4s-4,1.794-4,4
		C38,48.859,39.28,50.411,41,50.858z M42,45c1.103,0,2,0.897,2,2s-0.897,2-2,2s-2-0.897-2-2S40.897,45,42,45z"/>
	<path d="M42.824,0H13.176C6.462,0,1,5.462,1,12.176v29.648C1,48.538,6.462,54,13.176,54H28V43c0-0.708,0-1.208,0-2v-6h4.202
		c0.63-3.093,2.699-5.662,5.468-7H28c-0.552,0-1-0.447-1-1s0.448-1,1-1h18c0.552,0,1,0.447,1,1c0,0.47-0.331,0.846-0.767,0.953
		c2.819,1.324,4.928,3.917,5.566,7.047H55V12.176C55,5.462,49.538,0,42.824,0z M21.688,37.65l-6.857,7.999
		c-0.197,0.23-0.477,0.35-0.76,0.35c-0.209,0-0.42-0.065-0.6-0.2L8.9,42.37c-0.442-0.331-0.531-0.958-0.2-1.399
		c0.332-0.442,0.958-0.53,1.4-0.2l3.822,2.866l6.248-7.287c0.359-0.42,0.992-0.468,1.41-0.108
		C21.999,36.601,22.047,37.231,21.688,37.65z M21.688,22.65l-6.857,8c-0.197,0.23-0.477,0.35-0.76,0.35c-0.209,0-0.42-0.065-0.6-0.2
		L8.9,27.371c-0.442-0.331-0.531-0.958-0.2-1.399c0.332-0.442,0.958-0.531,1.4-0.2l3.822,2.866l6.248-7.288
		c0.359-0.42,0.992-0.468,1.41-0.108C21.999,21.601,22.047,22.231,21.688,22.65z M21.688,8.65l-6.857,8
		c-0.197,0.23-0.477,0.35-0.76,0.35c-0.209,0-0.42-0.065-0.6-0.2L8.9,13.371c-0.442-0.331-0.531-0.958-0.2-1.399
		c0.332-0.442,0.958-0.531,1.4-0.2l3.822,2.866l6.248-7.288c0.359-0.42,0.992-0.468,1.41-0.108
		C21.999,7.601,22.047,8.231,21.688,8.65z M46,14H28c-0.552,0-1-0.447-1-1s0.448-1,1-1h18c0.552,0,1,0.447,1,1S46.552,14,46,14z"/>
</g>
<g>
</g>
<g>
</g>
<g>
</g>
<g>
</g>
<g>
</g>
<g>
</g>
<g>
</g>
<g>
</g>
<g>
</g>
<g>
</g>
<g>
</g>
<g>
</g>
<g>
</g>
<g>
</g>
<g>
</g>
</svg>
