<?xml version="1.0" encoding="iso-8859-1"?>
<!-- Generator: Adobe Illustrator 18.0.0, SVG Export Plug-In . SVG Version: 6.00 Build 0)  -->
<!DOCTYPE svg PUBLIC "-//W3C//DTD SVG 1.1//EN" "http://www.w3.org/Graphics/SVG/1.1/DTD/svg11.dtd">
<svg version="1.1" id="Capa_1" xmlns="http://www.w3.org/2000/svg" xmlns:xlink="http://www.w3.org/1999/xlink" x="0px" y="0px"
	 viewBox="0 0 57 57" style="enable-background:new 0 0 57 57;" xml:space="preserve">
<g>
	<path d="M52.699,45.02c-0.55-0.101-1.069,0.241-1.18,0.781C50.403,51.303,46.074,55,40.749,55c-5.028,0-9.446-3.3-10.948-8H33.5v-2
		h-7v7h2v-2.849C30.669,53.833,35.415,57,40.749,57c6.304,0,11.42-4.341,12.731-10.801C53.59,45.657,53.24,45.13,52.699,45.02z"/>
	<path d="M52.5,37.309C50.25,32.854,45.796,30,40.749,30c-6.109,0-11.541,3.997-13.209,9.721c-0.154,0.53,0.15,1.085,0.681,1.239
		c0.529,0.158,1.085-0.15,1.239-0.681C30.858,35.482,35.605,32,40.749,32c4.565,0,8.562,2.766,10.33,7H47.5v2h7v-7h-2V37.309z"/>
	<path d="M43.324,0H13.676C6.962,0,1.5,5.462,1.5,12.176v29.648C1.5,48.538,6.962,54,13.676,54h13.529
		c-2.242-2.935-3.591-6.587-3.591-10.557c0-6.701,3.804-12.522,9.36-15.443H28.5c-0.552,0-1-0.447-1-1s0.448-1,1-1h12.557H46.5
		c0.552,0,1,0.447,1,1c0,0.082-0.028,0.155-0.047,0.231c3.284,1.301,6.089,3.558,8.047,6.443V12.176C55.5,5.462,50.038,0,43.324,0z
		 M22.188,37.65l-6.857,7.999c-0.197,0.23-0.477,0.35-0.76,0.35c-0.209,0-0.42-0.065-0.6-0.2L9.4,42.37
		c-0.442-0.331-0.531-0.958-0.2-1.399c0.332-0.442,0.958-0.53,1.4-0.2l3.822,2.866l6.248-7.287c0.359-0.42,0.992-0.468,1.41-0.108
		C22.499,36.601,22.547,37.231,22.188,37.65z M22.188,22.65l-6.857,8c-0.197,0.23-0.477,0.35-0.76,0.35c-0.209,0-0.42-0.065-0.6-0.2
		L9.4,27.371c-0.442-0.331-0.531-0.958-0.2-1.399c0.332-0.442,0.958-0.531,1.4-0.2l3.822,2.866l6.248-7.288
		c0.359-0.42,0.992-0.468,1.41-0.108C22.499,21.601,22.547,22.231,22.188,22.65z M22.188,8.65l-6.857,8
		c-0.197,0.23-0.477,0.35-0.76,0.35c-0.209,0-0.42-0.065-0.6-0.2L9.4,13.371c-0.442-0.331-0.531-0.958-0.2-1.399
		c0.332-0.442,0.958-0.531,1.4-0.2l3.822,2.866l6.248-7.288c0.359-0.42,0.992-0.468,1.41-0.108
		C22.499,7.601,22.547,8.231,22.188,8.65z M46.5,14h-18c-0.552,0-1-0.447-1-1s0.448-1,1-1h18c0.552,0,1,0.447,1,1S47.052,14,46.5,14
		z"/>
</g>
<g>
</g>
<g>
</g>
<g>
</g>
<g>
</g>
<g>
</g>
<g>
</g>
<g>
</g>
<g>
</g>
<g>
</g>
<g>
</g>
<g>
</g>
<g>
</g>
<g>
</g>
<g>
</g>
<g>
</g>
</svg>
