<?xml version="1.0" encoding="iso-8859-1"?>
<!-- Generator: Adobe Illustrator 18.0.0, SVG Export Plug-In . SVG Version: 6.00 Build 0)  -->
<!DOCTYPE svg PUBLIC "-//W3C//DTD SVG 1.1//EN" "http://www.w3.org/Graphics/SVG/1.1/DTD/svg11.dtd">
<svg version="1.1" id="Capa_1" xmlns="http://www.w3.org/2000/svg" xmlns:xlink="http://www.w3.org/1999/xlink" x="0px" y="0px"
	 viewBox="0 0 55.833 55.833" style="enable-background:new 0 0 55.833 55.833;" xml:space="preserve">
<g>
	<path d="M55.287,39.943c-0.398-4.089-3.45-7.052-7.271-7.052c-2.396,0-4.407,1.448-5.684,3.212
		c-1.276-1.764-3.288-3.213-5.684-3.213c-3.819,0-6.871,2.963-7.27,7.052c-0.042,0.269-0.145,1.221,0.225,2.71
		c0.545,2.196,1.8,4.19,3.631,5.77l8.335,7.133c0.213,0.18,0.484,0.278,0.763,0.278c0.282,0,0.555-0.101,0.769-0.283l8.331-7.13
		c1.829-1.576,3.084-3.57,3.63-5.768C55.432,41.164,55.329,40.211,55.287,39.943z M53.121,42.17
		c-0.445,1.794-1.48,3.431-2.991,4.732l-7.797,6.673l-7.794-6.671c-1.514-1.304-2.549-2.941-2.993-4.734
		c-0.302-1.214-0.193-1.897-0.194-1.897l0.017-0.106c0.244-2.621,2.137-5.275,5.281-5.275c2.189,0,3.974,1.811,4.77,3.605
		l0.914,2.061l0.914-2.061c0.796-1.794,2.579-3.604,4.77-3.604c3.146,0,5.038,2.654,5.296,5.367
		C53.314,40.266,53.425,40.95,53.121,42.17z"/>
	<path d="M26.693,43.375c-0.46-1.854-0.378-3.189-0.288-3.821c0.564-5.492,4.971-9.663,10.245-9.663
		c1.995,0,3.985,0.686,5.684,1.946c1.7-1.26,3.69-1.945,5.684-1.945c2.45,0,4.706,0.907,6.483,2.424v-20.14
		C54.5,5.462,49.038,0,42.324,0H12.676C5.962,0,0.5,5.462,0.5,12.176v29.648C0.5,48.538,5.962,54,12.676,54H35.14l-3.855-3.299
		C28.976,48.71,27.388,46.177,26.693,43.375z M27.5,12h18c0.552,0,1,0.447,1,1s-0.448,1-1,1h-18c-0.552,0-1-0.447-1-1
		S26.948,12,27.5,12z M27.5,26h18c0.552,0,1,0.447,1,1s-0.448,1-1,1h-18c-0.552,0-1-0.447-1-1S26.948,26,27.5,26z M21.188,37.65
		l-6.857,7.999c-0.197,0.23-0.477,0.35-0.76,0.35c-0.209,0-0.42-0.065-0.6-0.2L8.4,42.37c-0.442-0.331-0.531-0.958-0.2-1.399
		c0.332-0.442,0.958-0.53,1.4-0.2l3.822,2.866l6.248-7.287c0.359-0.42,0.992-0.468,1.41-0.108
		C21.499,36.601,21.548,37.231,21.188,37.65z M21.188,22.65l-6.857,8c-0.197,0.23-0.477,0.35-0.76,0.35c-0.209,0-0.42-0.065-0.6-0.2
		L8.4,27.371c-0.442-0.331-0.531-0.958-0.2-1.399c0.332-0.442,0.958-0.531,1.4-0.2l3.822,2.866l6.248-7.288
		c0.359-0.42,0.992-0.468,1.41-0.108C21.499,21.601,21.548,22.231,21.188,22.65z M21.188,8.65l-6.857,8
		c-0.197,0.23-0.477,0.35-0.76,0.35c-0.209,0-0.42-0.065-0.6-0.2L8.4,13.371c-0.442-0.331-0.531-0.958-0.2-1.399
		c0.332-0.442,0.958-0.531,1.4-0.2l3.822,2.866L19.67,7.35c0.359-0.42,0.992-0.468,1.41-0.108
		C21.499,7.601,21.548,8.231,21.188,8.65z"/>
</g>
<g>
</g>
<g>
</g>
<g>
</g>
<g>
</g>
<g>
</g>
<g>
</g>
<g>
</g>
<g>
</g>
<g>
</g>
<g>
</g>
<g>
</g>
<g>
</g>
<g>
</g>
<g>
</g>
<g>
</g>
</svg>
