<?xml version="1.0" encoding="iso-8859-1"?>
<!-- Generator: Adobe Illustrator 18.0.0, SVG Export Plug-In . SVG Version: 6.00 Build 0)  -->
<!DOCTYPE svg PUBLIC "-//W3C//DTD SVG 1.1//EN" "http://www.w3.org/Graphics/SVG/1.1/DTD/svg11.dtd">
<svg version="1.1" id="Capa_1" xmlns="http://www.w3.org/2000/svg" xmlns:xlink="http://www.w3.org/1999/xlink" x="0px" y="0px"
	 viewBox="0 0 57 57" style="enable-background:new 0 0 57 57;" xml:space="preserve">
<g>
	<path d="M56.193,53.635L44.348,33.329c-0.405-0.695-1.128-1.11-1.933-1.11c-0.805,0-1.528,0.415-1.933,1.11L28.636,53.635
		c-0.409,0.7-0.412,1.539-0.008,2.242C29.033,56.58,29.758,57,30.569,57H54.26c0.811,0,1.536-0.42,1.939-1.123
		C56.604,55.174,56.601,54.336,56.193,53.635z M54.465,54.881C54.435,54.936,54.373,55,54.26,55H30.569
		c-0.114,0-0.175-0.064-0.206-0.119s-0.056-0.14,0.001-0.238l11.845-20.306c0.057-0.098,0.143-0.118,0.206-0.118
		c0.062,0,0.148,0.021,0.205,0.118l11.845,20.306C54.522,54.741,54.497,54.826,54.465,54.881z"/>
	<path d="M42.499,39c-0.552,0-1,0.447-1,1v8c0,0.553,0.448,1,1,1s1-0.447,1-1v-8C43.499,39.447,43.052,39,42.499,39z"/>
	<path d="M41.789,51.29c-0.18,0.189-0.29,0.449-0.29,0.71c0,0.26,0.11,0.52,0.29,0.71c0.19,0.189,0.44,0.29,0.71,0.29
		s0.52-0.11,0.71-0.29c0.18-0.19,0.29-0.45,0.29-0.71c0-0.261-0.11-0.521-0.29-0.71C42.839,50.92,42.179,50.91,41.789,51.29z"/>
	<path d="M27.499,43c-0.552,0-1-0.447-1-1s0.448-1,1-1h5.034l5.357-9.183c0.934-1.603,2.668-2.599,4.524-2.599
		c1.857,0,3.59,0.996,4.525,2.601l7.56,12.958V12.176C54.499,5.462,49.037,0,42.323,0H12.675C5.961,0,0.499,5.462,0.499,12.176
		v29.648C0.499,48.538,5.961,54,12.675,54h12.718c0.096-0.652,0.31-1.291,0.652-1.877L31.367,43H27.499z M27.499,12h18
		c0.552,0,1,0.447,1,1s-0.448,1-1,1h-18c-0.552,0-1-0.447-1-1S26.947,12,27.499,12z M27.499,26h18c0.552,0,1,0.447,1,1s-0.448,1-1,1
		h-18c-0.552,0-1-0.447-1-1S26.947,26,27.499,26z M21.187,37.65l-6.857,7.999c-0.197,0.23-0.477,0.35-0.76,0.35
		c-0.209,0-0.42-0.065-0.6-0.2L8.399,42.37c-0.442-0.331-0.531-0.958-0.2-1.399c0.332-0.442,0.958-0.53,1.4-0.2l3.822,2.866
		l6.248-7.287c0.359-0.42,0.992-0.468,1.41-0.108C21.498,36.601,21.547,37.231,21.187,37.65z M21.187,22.65l-6.857,8
		c-0.197,0.23-0.477,0.35-0.76,0.35c-0.209,0-0.42-0.065-0.6-0.2l-4.571-3.429c-0.442-0.331-0.531-0.958-0.2-1.399
		c0.332-0.442,0.958-0.531,1.4-0.2l3.822,2.866l6.248-7.288c0.359-0.42,0.992-0.468,1.41-0.108
		C21.498,21.601,21.547,22.231,21.187,22.65z M21.187,8.65l-6.857,8c-0.197,0.23-0.477,0.35-0.76,0.35c-0.209,0-0.42-0.065-0.6-0.2
		l-4.571-3.429c-0.442-0.331-0.531-0.958-0.2-1.399c0.332-0.442,0.958-0.531,1.4-0.2l3.822,2.866l6.248-7.288
		c0.359-0.42,0.992-0.468,1.41-0.108C21.498,7.601,21.547,8.231,21.187,8.65z"/>
</g>
<g>
</g>
<g>
</g>
<g>
</g>
<g>
</g>
<g>
</g>
<g>
</g>
<g>
</g>
<g>
</g>
<g>
</g>
<g>
</g>
<g>
</g>
<g>
</g>
<g>
</g>
<g>
</g>
<g>
</g>
</svg>
