<?xml version="1.0" encoding="iso-8859-1"?>
<!-- Generator: Adobe Illustrator 18.0.0, SVG Export Plug-In . SVG Version: 6.00 Build 0)  -->
<!DOCTYPE svg PUBLIC "-//W3C//DTD SVG 1.1//EN" "http://www.w3.org/Graphics/SVG/1.1/DTD/svg11.dtd">
<svg version="1.1" id="Capa_1" xmlns="http://www.w3.org/2000/svg" xmlns:xlink="http://www.w3.org/1999/xlink" x="0px" y="0px"
	 viewBox="0 0 60 60" style="enable-background:new 0 0 60 60;" xml:space="preserve">
<g>
	<path d="M59,52.5h-1v-2.36c0-3.534-1.845-6.748-4.827-8.64C56.155,39.608,58,36.395,58,32.86V30.5h1c0.553,0,1-0.447,1-1
		s-0.447-1-1-1h-1h-1H43h-1h-1c-0.553,0-1,0.447-1,1s0.447,1,1,1h1v2.36c0,3.534,1.845,6.748,4.827,8.64
		C43.845,43.392,42,46.605,42,50.14v2.36h-2c-0.553,0-1,0.447-1,1s0.447,1,1,1h2h14h2h1c0.553,0,1-0.447,1-1S59.553,52.5,59,52.5z
		 M44,32.86V30.5h12v2.36c0,3.319-2.033,6.298-5.197,7.64h-1.605C46.033,39.158,44,36.18,44,32.86z M44,52.5v-2.36
		c0-3.319,2.033-6.298,5.197-7.64h1.605C53.967,43.842,56,46.82,56,50.14v2.36H44z"/>
	<path d="M0,6.732v37.962c5.233-4.049,16.986-13.204,22.449-17.944L0,6.732z"/>
	<polygon points="39,29.47 39,25.5 58,25.5 58,6.732 35.587,26.717 	"/>
	<path d="M31.299,27.861L56.376,5.5H1.624l25.076,22.36C27.968,28.993,30.031,28.993,31.299,27.861z"/>
	<path d="M42.262,41.5C40.199,39.139,39,36.107,39,32.86v-0.821l-4.926-3.973l-1.444,1.287c-1,0.893-2.315,1.34-3.63,1.34
		s-2.63-0.447-3.631-1.34l-1.414-1.261c-5.521,4.814-17.851,14.41-23.007,18.398C0.966,46.49,0.981,46.5,1,46.5h38.523
		C40.058,44.649,40.996,42.949,42.262,41.5z"/>
</g>
<g>
</g>
<g>
</g>
<g>
</g>
<g>
</g>
<g>
</g>
<g>
</g>
<g>
</g>
<g>
</g>
<g>
</g>
<g>
</g>
<g>
</g>
<g>
</g>
<g>
</g>
<g>
</g>
<g>
</g>
</svg>
