<?xml version="1.0" encoding="iso-8859-1"?>
<!-- Generator: Adobe Illustrator 18.0.0, SVG Export Plug-In . SVG Version: 6.00 Build 0)  -->
<!DOCTYPE svg PUBLIC "-//W3C//DTD SVG 1.1//EN" "http://www.w3.org/Graphics/SVG/1.1/DTD/svg11.dtd">
<svg version="1.1" id="Capa_1" xmlns="http://www.w3.org/2000/svg" xmlns:xlink="http://www.w3.org/1999/xlink" x="0px" y="0px"
	 viewBox="0 0 59 59" style="enable-background:new 0 0 59 59;" xml:space="preserve">
<g>
	<path d="M46,27.5c-3.764,0-7.317,1.581-9.75,4.338c-0.365,0.415-0.326,1.047,0.088,1.412c0.415,0.366,1.045,0.327,1.412-0.088
		C39.803,30.835,42.811,29.5,46,29.5c6.065,0,11,4.935,11,11s-4.935,11-11,11c-4.992,0-9.407-3.367-10.741-8H40v-2h-8v8h2v-3.663
		c2.093,4.531,6.781,7.663,12,7.663c7.168,0,13-5.832,13-13S53.168,27.5,46,27.5z"/>
	<path d="M0,6.732v37.962c5.233-4.049,16.986-13.204,22.449-17.944L0,6.732z"/>
	<path d="M36.63,27.558C39.267,25.644,42.499,24.5,46,24.5c4.78,0,9.066,2.118,12,5.453V6.732L35.587,26.717L36.63,27.558z"/>
	<path d="M31.299,27.861L56.376,5.5H1.624l25.076,22.36C27.968,28.993,30.031,28.993,31.299,27.861z"/>
	<path d="M35.057,28.859l-0.983-0.793l-1.444,1.287c-1,0.893-2.315,1.34-3.63,1.34s-2.63-0.447-3.631-1.34l-1.414-1.261
		c-5.521,4.814-17.851,14.41-23.007,18.398C0.966,46.49,0.981,46.5,1,46.5h30.178C30.424,44.645,30,42.622,30,40.5
		C30,35.911,31.953,31.78,35.057,28.859z"/>
</g>
<g>
</g>
<g>
</g>
<g>
</g>
<g>
</g>
<g>
</g>
<g>
</g>
<g>
</g>
<g>
</g>
<g>
</g>
<g>
</g>
<g>
</g>
<g>
</g>
<g>
</g>
<g>
</g>
<g>
</g>
</svg>
