<?xml version="1.0" encoding="iso-8859-1"?>
<!-- Generator: Adobe Illustrator 18.0.0, SVG Export Plug-In . SVG Version: 6.00 Build 0)  -->
<!DOCTYPE svg PUBLIC "-//W3C//DTD SVG 1.1//EN" "http://www.w3.org/Graphics/SVG/1.1/DTD/svg11.dtd">
<svg version="1.1" id="Capa_1" xmlns="http://www.w3.org/2000/svg" xmlns:xlink="http://www.w3.org/1999/xlink" x="0px" y="0px"
	 viewBox="0 0 60 60" style="enable-background:new 0 0 60 60;" xml:space="preserve">
<g>
	<path d="M58.199,42.52c-0.549-0.105-1.069,0.241-1.18,0.781c-1.116,5.502-5.445,9.199-10.771,9.199c-5.028,0-9.446-3.3-10.948-8H40
		v-2h-8v8h2v-3.848c2.169,4.681,6.915,7.848,12.249,7.848c6.304,0,11.42-4.341,12.731-10.801C59.09,43.157,58.74,42.63,58.199,42.52
		z"/>
	<path d="M58,30.5v4.308c-2.25-4.454-6.704-7.308-11.751-7.308c-6.109,0-11.541,3.997-13.209,9.721
		c-0.154,0.53,0.15,1.085,0.681,1.239c0.531,0.156,1.086-0.151,1.239-0.681c1.398-4.797,6.146-8.279,11.289-8.279
		c4.565,0,8.562,2.766,10.33,7H52v2h8v-8H58z"/>
	<path d="M0,6.732v37.962c5.233-4.049,16.986-13.204,22.449-17.944L0,6.732z"/>
	<path d="M36.313,27.303c2.628-1.768,5.789-2.803,9.187-2.803c4.996,0,9.472,2.241,12.5,5.761V6.732L35.587,26.717L36.313,27.303z"
		/>
	<path d="M31.299,27.861L56.376,5.5H1.624l25.076,22.36C27.968,28.993,30.031,28.993,31.299,27.861z"/>
	<path d="M34.691,28.564l-0.617-0.497l-1.444,1.287c-1,0.893-2.315,1.34-3.63,1.34s-2.63-0.447-3.631-1.34l-1.414-1.261
		c-5.521,4.814-17.851,14.41-23.007,18.398C0.966,46.49,0.981,46.5,1,46.5h28.963C29.351,44.777,29,42.931,29,41
		C29,36.038,31.212,31.591,34.691,28.564z"/>
</g>
<g>
</g>
<g>
</g>
<g>
</g>
<g>
</g>
<g>
</g>
<g>
</g>
<g>
</g>
<g>
</g>
<g>
</g>
<g>
</g>
<g>
</g>
<g>
</g>
<g>
</g>
<g>
</g>
<g>
</g>
</svg>
