<?xml version="1.0" encoding="iso-8859-1"?>
<!-- Generator: Adobe Illustrator 18.0.0, SVG Export Plug-In . SVG Version: 6.00 Build 0)  -->
<!DOCTYPE svg PUBLIC "-//W3C//DTD SVG 1.1//EN" "http://www.w3.org/Graphics/SVG/1.1/DTD/svg11.dtd">
<svg version="1.1" id="Capa_1" xmlns="http://www.w3.org/2000/svg" xmlns:xlink="http://www.w3.org/1999/xlink" x="0px" y="0px"
	 viewBox="0 0 58 58" style="enable-background:new 0 0 58 58;" xml:space="preserve">
<g>
	<path d="M50.466,43.995l6.483-3.242l-17.637-6.498l6.498,17.638l3.242-6.484l6.797,6.797c0.195,0.195,0.451,0.293,0.707,0.293
		s0.512-0.098,0.707-0.293c0.391-0.391,0.391-1.023,0-1.414L50.466,43.995z M42.688,37.631l9.232,3.402l-3.887,1.943l-1.943,3.888
		L42.688,37.631z"/>
	<path d="M0,6.732v37.962c5.233-4.049,16.986-13.204,22.449-17.944L0,6.732z"/>
	<polygon points="35.587,26.717 42.363,32.182 58,37.944 58,6.732 	"/>
	<path d="M31.299,27.861L56.376,5.5H1.624l25.076,22.36C27.968,28.993,30.031,28.993,31.299,27.861z"/>
	<path d="M34,28.5l-1.37,0.854c-1,0.893-2.315,1.34-3.63,1.34s-2.63-0.447-3.631-1.34l-1.415-1.261
		c-5.521,4.814-17.851,14.41-23.007,18.398C0.966,46.49,0.981,46.5,1,46.5h39.626L34.25,29.193L34,28.5z"/>
</g>
<g>
</g>
<g>
</g>
<g>
</g>
<g>
</g>
<g>
</g>
<g>
</g>
<g>
</g>
<g>
</g>
<g>
</g>
<g>
</g>
<g>
</g>
<g>
</g>
<g>
</g>
<g>
</g>
<g>
</g>
</svg>
