<?xml version="1.0" encoding="iso-8859-1"?>
<!-- Generator: Adobe Illustrator 18.0.0, SVG Export Plug-In . SVG Version: 6.00 Build 0)  -->
<!DOCTYPE svg PUBLIC "-//W3C//DTD SVG 1.1//EN" "http://www.w3.org/Graphics/SVG/1.1/DTD/svg11.dtd">
<svg version="1.1" id="Capa_1" xmlns="http://www.w3.org/2000/svg" xmlns:xlink="http://www.w3.org/1999/xlink" x="0px" y="0px"
	 viewBox="0 0 59 59" style="enable-background:new 0 0 59 59;" xml:space="preserve">
<g>
	<path d="M47,30c-6.617,0-12,5.383-12,12s5.383,12,12,12s12-5.383,12-12S53.617,30,47,30z M47,52c-5.514,0-10-4.486-10-10
		s4.486-10,10-10s10,4.486,10,10S52.514,52,47,52z"/>
	<path d="M53,41h-5v-5c0-0.553-0.447-1-1-1s-1,0.447-1,1v6c0,0.553,0.447,1,1,1h6c0.553,0,1-0.447,1-1S53.553,41,53,41z"/>
	<path d="M0,6.232v37.962c5.233-4.049,16.986-13.204,22.449-17.944L0,6.232z"/>
	<path d="M39.257,29.177C41.521,27.805,44.165,27,47,27c4.348,0,8.258,1.871,11,4.836V6.232L35.587,26.217L39.257,29.177z"/>
	<path d="M31.299,27.361L56.376,5H1.624l25.076,22.36C27.968,28.493,30.031,28.493,31.299,27.361z"/>
	<path d="M37.547,30.367l-3.473-2.801l-1.444,1.287c-1,0.893-2.315,1.34-3.63,1.34s-2.63-0.447-3.631-1.34l-1.415-1.261
		c-5.521,4.814-17.851,14.41-23.007,18.398C0.966,45.99,0.981,46,1,46h31.558C32.204,44.724,32,43.387,32,42
		C32,37.31,34.166,33.12,37.547,30.367z"/>
</g>
<g>
</g>
<g>
</g>
<g>
</g>
<g>
</g>
<g>
</g>
<g>
</g>
<g>
</g>
<g>
</g>
<g>
</g>
<g>
</g>
<g>
</g>
<g>
</g>
<g>
</g>
<g>
</g>
<g>
</g>
</svg>
