<?xml version="1.0" encoding="iso-8859-1"?>
<!-- Generator: Adobe Illustrator 18.0.0, SVG Export Plug-In . SVG Version: 6.00 Build 0)  -->
<!DOCTYPE svg PUBLIC "-//W3C//DTD SVG 1.1//EN" "http://www.w3.org/Graphics/SVG/1.1/DTD/svg11.dtd">
<svg version="1.1" id="Capa_1" xmlns="http://www.w3.org/2000/svg" xmlns:xlink="http://www.w3.org/1999/xlink" x="0px" y="0px"
	 viewBox="0 0 57 57" style="enable-background:new 0 0 57 57;" xml:space="preserve">
<g>
	<path d="M53,42.833c-0.43-4.107-3.853-7.332-7.954-7.332c-2.565,0-4.984,1.286-6.479,3.402c-0.292-0.051-0.588-0.076-0.884-0.076
		c-2.32,0-4.381,1.577-5.066,3.813C30.709,43.77,29.5,45.88,29.5,48.142c0,3.506,2.785,6.358,6.208,6.358h10.774
		c0.063,0,0.124-0.004,0.172-0.008c0.062,0.004,0.124,0.008,0.188,0.008h4.31c3.225,0,5.849-2.687,5.849-5.989
		C57,45.912,55.358,43.638,53,42.833z M51.151,52.501L46.8,52.498l-0.186-0.006l-10.906,0.009c-2.32,0-4.208-1.955-4.208-4.358
		c0-1.666,0.948-3.21,2.417-3.935l0.435-0.214l0.102-0.475c0.331-1.56,1.689-2.692,3.229-2.692c0.344,0,0.687,0.057,1.019,0.169
		l0.777,0.261l0.409-0.711c1.096-1.906,3.023-3.045,5.158-3.045c3.265,0,5.955,2.747,5.999,6.123l0.011,0.813l0.799,0.155
		C53.677,44.947,55,46.594,55,48.511C55,50.711,53.273,52.501,51.151,52.501z"/>
	<path d="M30.158,40.69c1.271-2.747,3.882-4.569,6.831-4.821c0.079-0.007,0.155-0.025,0.234-0.03
		c2.066-2.127,4.894-3.339,7.823-3.339c4.285,0,8.163,2.614,9.954,6.466V3.501c0-0.321-0.154-0.623-0.416-0.812
		s-0.597-0.241-0.901-0.137l-17.73,5.91L19.229,4.527c-0.076-0.018-0.152-0.026-0.228-0.026c-0.048,0-0.094,0.017-0.142,0.024
		c-0.026,0.004-0.051-0.006-0.076,0l-18,4C0.326,8.627,0,9.032,0,9.501v43c0,0.304,0.138,0.59,0.375,0.78
		c0.179,0.144,0.4,0.22,0.625,0.22c0.072,0,0.145-0.008,0.217-0.023l17.807-3.957l7.888,1.392c-0.268-0.876-0.412-1.806-0.412-2.77
		C26.5,45.229,27.862,42.463,30.158,40.69z M24.5,48.142c0,0.105,0.001,0.209,0.004,0.314L20,47.661V6.763l15,3.529V34.2
		c-2.746,0.752-5.099,2.634-6.442,5.212C26.009,41.565,24.5,44.792,24.5,48.142z"/>
</g>
<g>
</g>
<g>
</g>
<g>
</g>
<g>
</g>
<g>
</g>
<g>
</g>
<g>
</g>
<g>
</g>
<g>
</g>
<g>
</g>
<g>
</g>
<g>
</g>
<g>
</g>
<g>
</g>
<g>
</g>
</svg>
