<?xml version="1.0" encoding="iso-8859-1"?>
<!-- Generator: Adobe Illustrator 18.0.0, SVG Export Plug-In . SVG Version: 6.00 Build 0)  -->
<!DOCTYPE svg PUBLIC "-//W3C//DTD SVG 1.1//EN" "http://www.w3.org/Graphics/SVG/1.1/DTD/svg11.dtd">
<svg version="1.1" id="Capa_1" xmlns="http://www.w3.org/2000/svg" xmlns:xlink="http://www.w3.org/1999/xlink" x="0px" y="0px"
	 viewBox="0 0 55 55" style="enable-background:new 0 0 55 55;" xml:space="preserve">
<g>
	<path d="M44.466,44.996l6.483-3.241l-17.637-6.498l6.498,17.638l3.242-6.484l6.797,6.797c0.195,0.195,0.451,0.293,0.707,0.293
		s0.512-0.098,0.707-0.293c0.391-0.391,0.391-1.023,0-1.414L44.466,44.996z M42.033,43.977l-1.943,3.888l-3.402-9.233l9.232,3.402
		L42.033,43.977z"/>
	<path d="M54.584,1.689c-0.261-0.188-0.597-0.241-0.901-0.137l-17.73,5.91L19.229,3.527c-0.076-0.018-0.152-0.026-0.228-0.026
		c-0.048,0-0.094,0.017-0.142,0.024c-0.026,0.004-0.051-0.006-0.076,0l-18,4C0.326,7.627,0,8.032,0,8.501v43
		c0,0.304,0.138,0.59,0.375,0.78c0.179,0.144,0.4,0.22,0.625,0.22c0.072,0,0.145-0.008,0.217-0.023l17.807-3.957l16.802,2.965
		c0.058,0.011,0.116,0.016,0.174,0.016c0.032,0,0.062-0.013,0.094-0.017l-7.844-21.29L37,33.418l0,0l18,6.632V2.501
		C55,2.179,54.846,1.878,54.584,1.689z M28.25,28.194c-0.521,0-1.033,0.204-1.415,0.586c-0.552,0.552-0.732,1.374-0.463,2.106
		l6.66,18.076L20,46.661V5.763l15,3.529V30.55l-6.059-2.232C28.716,28.234,28.482,28.194,28.25,28.194z"/>
</g>
<g>
</g>
<g>
</g>
<g>
</g>
<g>
</g>
<g>
</g>
<g>
</g>
<g>
</g>
<g>
</g>
<g>
</g>
<g>
</g>
<g>
</g>
<g>
</g>
<g>
</g>
<g>
</g>
<g>
</g>
</svg>
