<?xml version="1.0" encoding="iso-8859-1"?>
<!-- Generator: Adobe Illustrator 18.0.0, SVG Export Plug-In . SVG Version: 6.00 Build 0)  -->
<!DOCTYPE svg PUBLIC "-//W3C//DTD SVG 1.1//EN" "http://www.w3.org/Graphics/SVG/1.1/DTD/svg11.dtd">
<svg version="1.1" id="Capa_1" xmlns="http://www.w3.org/2000/svg" xmlns:xlink="http://www.w3.org/1999/xlink" x="0px" y="0px"
	 viewBox="0 0 56.001 56.001" style="enable-background:new 0 0 56.001 56.001;" xml:space="preserve">
<g>
	<path d="M55.085,0.19c-0.261-0.188-0.597-0.241-0.901-0.137l-17.73,5.91L19.73,2.028c-0.076-0.018-0.152-0.026-0.228-0.026
		c-0.048,0-0.094,0.017-0.142,0.024c-0.026,0.004-0.051-0.006-0.076,0l-18,4C0.826,6.127,0.501,6.532,0.501,7.001v43
		c0,0.304,0.138,0.59,0.375,0.78c0.179,0.144,0.4,0.22,0.625,0.22c0.072,0,0.145-0.008,0.217-0.023l17.807-3.957l14.156,2.498
		c0.393-2.405,1.445-4.65,3.081-6.517c-2.11-2.408-3.262-5.441-3.262-8.64v-7.36h2h2h18v-26C55.501,0.68,55.346,0.378,55.085,0.19z
		 M35.501,25.001h-2h-2v2v7.36c0,3.098,0.958,6.11,2.725,8.64c-0.903,1.294-1.596,2.716-2.057,4.22l-11.668-2.059V4.264l15,3.529
		V25.001z"/>
	<path d="M52.501,34.361v-2.36h1c0.553,0,1-0.447,1-1s-0.447-1-1-1h-1h-1h-14h-1h-1c-0.553,0-1,0.447-1,1s0.447,1,1,1h1v2.36
		c0,3.534,1.845,6.748,4.827,8.64c-2.981,1.892-4.827,5.105-4.827,8.64v2.36h-1c-0.553,0-1,0.447-1,1s0.447,1,1,1h1h14h2h1
		c0.553,0,1-0.447,1-1s-0.447-1-1-1h-1v-2.36c0-3.534-1.845-6.748-4.827-8.64C50.655,41.109,52.501,37.896,52.501,34.361z
		 M50.501,51.641v2.36h-12v-2.36c0-3.319,2.033-6.298,5.197-7.64h1.605C48.467,45.343,50.501,48.321,50.501,51.641z M45.303,42.001
		h-1.605c-3.164-1.342-5.197-4.32-5.197-7.64v-2.36h12v2.36C50.501,37.681,48.467,40.659,45.303,42.001z"/>
</g>
<g>
</g>
<g>
</g>
<g>
</g>
<g>
</g>
<g>
</g>
<g>
</g>
<g>
</g>
<g>
</g>
<g>
</g>
<g>
</g>
<g>
</g>
<g>
</g>
<g>
</g>
<g>
</g>
<g>
</g>
</svg>
