<?xml version="1.0" encoding="iso-8859-1"?>
<!-- Generator: Adobe Illustrator 18.0.0, SVG Export Plug-In . SVG Version: 6.00 Build 0)  -->
<!DOCTYPE svg PUBLIC "-//W3C//DTD SVG 1.1//EN" "http://www.w3.org/Graphics/SVG/1.1/DTD/svg11.dtd">
<svg version="1.1" id="Capa_1" xmlns="http://www.w3.org/2000/svg" xmlns:xlink="http://www.w3.org/1999/xlink" x="0px" y="0px"
	 viewBox="0 0 56 56" style="enable-background:new 0 0 56 56;" xml:space="preserve">
<g>
	<path d="M55.188,40.364l-1.444-0.277c-0.677-0.13-1.21-0.573-1.462-1.216c-0.253-0.642-0.163-1.329,0.245-1.885l0.907-1.236
		c0.292-0.398,0.25-0.95-0.1-1.299l-1.959-1.958c-0.339-0.339-0.872-0.389-1.268-0.121l-1.217,0.824
		c-0.331,0.224-0.71,0.343-1.099,0.343c-0.844,0-1.787-0.576-1.956-1.676l-0.233-1.515c-0.075-0.487-0.495-0.848-0.988-0.848h-2.77
		c-0.479,0-0.892,0.341-0.982,0.812l-0.358,1.865c-0.201,1.051-1.13,1.601-1.942,1.601c-0.389,0-0.769-0.118-1.099-0.342
		l-1.572-1.064c-0.396-0.268-0.929-0.218-1.268,0.121l-1.959,1.958c-0.35,0.349-0.392,0.9-0.1,1.299l0.907,1.236
		c0.408,0.556,0.498,1.243,0.245,1.885c-0.252,0.643-0.785,1.086-1.462,1.216l-1.444,0.277C30.341,40.455,30,40.867,30,41.346v2.77
		c0,0.493,0.36,0.913,0.848,0.988l1.515,0.233c0.683,0.105,1.232,0.528,1.508,1.16c0.276,0.633,0.212,1.323-0.175,1.895
		l-0.824,1.217c-0.269,0.396-0.218,0.929,0.121,1.268l1.958,1.959c0.348,0.348,0.899,0.391,1.299,0.1l1.236-0.907
		c0.342-0.252,0.742-0.385,1.156-0.385c0.813,0,1.742,0.551,1.944,1.602l0.277,1.444c0.091,0.471,0.503,0.812,0.982,0.812h2.77
		c0.493,0,0.913-0.36,0.988-0.848l0.164-1.065c0.169-1.1,1.113-1.676,1.958-1.676c0.413,0,0.813,0.134,1.156,0.386l0.869,0.638
		c0.399,0.293,0.951,0.249,1.299-0.1l1.958-1.959c0.339-0.339,0.39-0.871,0.121-1.268l-0.824-1.217
		c-0.387-0.571-0.451-1.262-0.175-1.895c0.275-0.632,0.825-1.055,1.508-1.16l1.515-0.233C55.64,45.029,56,44.609,56,44.116v-2.77
		C56,40.867,55.659,40.455,55.188,40.364z M54,43.258l-0.667,0.103c-1.354,0.208-2.489,1.082-3.036,2.337
		c-0.548,1.256-0.416,2.682,0.352,3.815l0.361,0.533l-0.768,0.768l-0.177-0.13c-0.689-0.505-1.498-0.772-2.34-0.772
		c-1.979,0-3.635,1.418-3.935,3.371l-0.033,0.218h-1.086l-0.121-0.633c-0.359-1.868-2.004-3.225-3.909-3.225
		c-0.843,0-1.651,0.268-2.34,0.771l-0.544,0.399l-0.768-0.768l0.361-0.533c0.768-1.134,0.899-2.56,0.352-3.815
		c-0.547-1.255-1.683-2.129-3.036-2.337L32,43.258v-1.086l0.633-0.121c1.346-0.259,2.447-1.175,2.947-2.449
		c0.5-1.275,0.315-2.695-0.494-3.8l-0.399-0.544l0.768-0.768l0.889,0.602c0.662,0.448,1.43,0.686,2.22,0.686
		c1.905,0,3.548-1.355,3.907-3.224l0.202-1.054h1.086l0.103,0.667c0.301,1.953,1.955,3.371,3.934,3.371
		c0.789,0,1.556-0.237,2.219-0.687l0.533-0.361l0.768,0.768l-0.399,0.544c-0.81,1.104-0.994,2.524-0.494,3.8
		c0.5,1.274,1.602,2.19,2.947,2.449L54,42.172V43.258z"/>
	<path d="M43,37.501c-2.757,0-5,2.243-5,5s2.243,5,5,5s5-2.243,5-5S45.757,37.501,43,37.501z M43,45.501c-1.654,0-3-1.346-3-3
		s1.346-3,3-3s3,1.346,3,3S44.654,45.501,43,45.501z"/>
	<path d="M27,46.689v-7.821c0-0.479,0.341-0.892,0.812-0.982l2.28-0.438l-1.469-2c-0.292-0.398-0.25-0.95,0.1-1.299l5.532-5.529
		c0.194-0.193,0.45-0.292,0.708-0.292c0.013,0,0.025,0.005,0.037,0.005v0.009c0.182,0.007,0.363,0.049,0.522,0.157l1.478,1l0,0
		l0.86,0.583l0.054-0.315l0.471-2.454c0.091-0.471,0.503-0.812,0.982-0.812h7.821c0.493,0,0.913,0.36,0.988,0.848l0.378,2.453
		l1.922-1.303c0.396-0.268,0.929-0.218,1.268,0.121L55,31.873V1.501c0-0.321-0.154-0.623-0.416-0.812s-0.597-0.241-0.901-0.137
		l-17.73,5.91L19.229,2.527c-0.076-0.018-0.152-0.026-0.228-0.026c-0.048,0-0.094,0.017-0.142,0.024
		c-0.026,0.004-0.051-0.006-0.076,0l-18,4C0.326,6.627,0,7.032,0,7.501v43c0,0.304,0.138,0.59,0.375,0.78
		c0.179,0.144,0.4,0.22,0.625,0.22c0.072,0,0.145-0.008,0.217-0.023l17.807-3.957l10.396,1.835l0.881-1.3l-2.453-0.377
		C27.36,47.602,27,47.182,27,46.689z M25,38.868v7.676l-5-0.882V4.763l15,3.529v18.035c-0.013,0-0.025,0-0.038,0
		c-0.8,0-1.553,0.311-2.121,0.878l-5.531,5.528c-0.922,0.92-1.136,2.286-0.588,3.42C25.693,36.639,25,37.687,25,38.868z"/>
</g>
<g>
</g>
<g>
</g>
<g>
</g>
<g>
</g>
<g>
</g>
<g>
</g>
<g>
</g>
<g>
</g>
<g>
</g>
<g>
</g>
<g>
</g>
<g>
</g>
<g>
</g>
<g>
</g>
<g>
</g>
</svg>
