<?xml version="1.0" encoding="iso-8859-1"?>
<!-- Generator: Adobe Illustrator 18.0.0, SVG Export Plug-In . SVG Version: 6.00 Build 0)  -->
<!DOCTYPE svg PUBLIC "-//W3C//DTD SVG 1.1//EN" "http://www.w3.org/Graphics/SVG/1.1/DTD/svg11.dtd">
<svg version="1.1" id="Capa_1" xmlns="http://www.w3.org/2000/svg" xmlns:xlink="http://www.w3.org/1999/xlink" x="0px" y="0px"
	 viewBox="0 0 55.561 55.561" style="enable-background:new 0 0 55.561 55.561;" xml:space="preserve">
<g>
	<path d="M54.688,32.87l-2.85-2.85c-1.128-1.127-3.092-1.127-4.221,0L32.226,45.411l-2.121,7.779l-0.519,0.519
		c-0.388,0.388-0.389,1.014-0.006,1.405l-0.005,0.02l0.019-0.005c0.194,0.191,0.446,0.288,0.699,0.288
		c0.256,0,0.512-0.098,0.707-0.293l0.52-0.52l7.778-2.121l15.39-15.391C55.852,35.928,55.852,34.034,54.688,32.87z M32.425,52.284
		l1.207-4.428l3.22,3.22L32.425,52.284z M38.778,50.174l-4.243-4.243l10.243-10.243l4.243,4.243L38.778,50.174z M53.274,35.678
		l-2.839,2.839l-4.243-4.242l2.839-2.839c0.373-0.373,1.022-0.372,1.394-0.001l2.85,2.85C53.658,34.668,53.658,35.294,53.274,35.678
		z"/>
	<path d="M29.542,43.853L35,38.395l0,0l10.496-10.496c1.131-1.131,2.634-1.753,4.232-1.753s3.1,0.622,4.23,1.752L55,28.94V1.146
		c0-0.321-0.154-0.623-0.416-0.812s-0.597-0.241-0.901-0.137l-17.73,5.91L19.229,2.173c-0.076-0.018-0.152-0.026-0.228-0.026
		c-0.048,0-0.094,0.017-0.142,0.024c-0.026,0.004-0.051-0.006-0.076,0l-18,4C0.326,6.272,0,6.678,0,7.146v43
		c0,0.304,0.138,0.59,0.375,0.78c0.179,0.144,0.4,0.22,0.625,0.22c0.072,0,0.145-0.008,0.217-0.023l17.807-3.957l9.172,1.619
		L29.542,43.853z M27.612,43.327l-0.865,3.171L20,45.307V4.409l15,3.529v27.629l-6.873,6.873
		C27.881,42.685,27.704,42.991,27.612,43.327z"/>
</g>
<g>
</g>
<g>
</g>
<g>
</g>
<g>
</g>
<g>
</g>
<g>
</g>
<g>
</g>
<g>
</g>
<g>
</g>
<g>
</g>
<g>
</g>
<g>
</g>
<g>
</g>
<g>
</g>
<g>
</g>
</svg>
