<?xml version="1.0" encoding="iso-8859-1"?>
<!-- Generator: Adobe Illustrator 18.0.0, SVG Export Plug-In . SVG Version: 6.00 Build 0)  -->
<!DOCTYPE svg PUBLIC "-//W3C//DTD SVG 1.1//EN" "http://www.w3.org/Graphics/SVG/1.1/DTD/svg11.dtd">
<svg version="1.1" id="Capa_1" xmlns="http://www.w3.org/2000/svg" xmlns:xlink="http://www.w3.org/1999/xlink" x="0px" y="0px"
	 viewBox="0 0 57 57" style="enable-background:new 0 0 57 57;" xml:space="preserve">
<g>
	<path d="M55.199,44.52c-0.549-0.103-1.069,0.241-1.18,0.781c-1.116,5.502-5.445,9.199-10.771,9.199c-5.028,0-9.446-3.3-10.948-8H37
		v-2h-8v8h2v-3.848c2.169,4.681,6.915,7.848,12.249,7.848c6.304,0,11.42-4.341,12.731-10.801C56.09,45.158,55.74,44.63,55.199,44.52
		z"/>
	<path d="M55,32.501v4.308c-2.25-4.454-6.704-7.308-11.751-7.308c-6.109,0-11.541,3.997-13.209,9.721
		c-0.154,0.53,0.15,1.085,0.681,1.239c0.531,0.156,1.086-0.15,1.239-0.681c1.398-4.797,6.146-8.279,11.289-8.279
		c4.565,0,8.562,2.766,10.33,7H49v2h8v-8H55z"/>
	<path d="M25,42.501c0-6.877,4.112-12.8,10-15.474v0c0.531-0.241,1.076-0.456,1.633-0.643c0.006-0.002,0.012-0.004,0.018-0.006
		c1.682-0.564,3.479-0.876,5.349-0.876c5.212,0,9.879,2.363,13,6.068V1.501c0-0.321-0.154-0.623-0.416-0.812
		s-0.597-0.241-0.901-0.137l-17.73,5.91L19.229,2.527c-0.076-0.018-0.152-0.026-0.228-0.026c-0.048,0-0.094,0.017-0.142,0.024
		c-0.026,0.004-0.051-0.006-0.076,0l-18,4C0.326,6.627,0,7.032,0,7.501v43c0,0.304,0.138,0.59,0.375,0.78
		c0.179,0.144,0.4,0.22,0.625,0.22c0.072,0,0.145-0.008,0.217-0.023l17.807-3.957l7.196,1.27C25.441,46.842,25,44.723,25,42.501z
		 M20,45.661V4.763l15,3.529v16.545c-7.236,2.856-12,9.778-12,17.664c0,1.266,0.127,2.522,0.38,3.757L20,45.661z"/>
</g>
<g>
</g>
<g>
</g>
<g>
</g>
<g>
</g>
<g>
</g>
<g>
</g>
<g>
</g>
<g>
</g>
<g>
</g>
<g>
</g>
<g>
</g>
<g>
</g>
<g>
</g>
<g>
</g>
<g>
</g>
</svg>
