<?xml version="1.0" encoding="iso-8859-1"?>
<!-- Generator: Adobe Illustrator 18.0.0, SVG Export Plug-In . SVG Version: 6.00 Build 0)  -->
<!DOCTYPE svg PUBLIC "-//W3C//DTD SVG 1.1//EN" "http://www.w3.org/Graphics/SVG/1.1/DTD/svg11.dtd">
<svg version="1.1" id="Capa_1" xmlns="http://www.w3.org/2000/svg" xmlns:xlink="http://www.w3.org/1999/xlink" x="0px" y="0px"
	 viewBox="0 0 56.001 56.001" style="enable-background:new 0 0 56.001 56.001;" xml:space="preserve">
<g>
	<path d="M51.501,37.001c0-3.859-3.14-7-7-7s-7,3.141-7,7v1h-4v18h22v-18h-4V37.001z M39.501,37.001c0-2.757,2.243-5,5-5
		s5,2.243,5,5v1h-10V37.001z M53.501,40.001v14h-18v-14h2h14H53.501z"/>
	<path d="M44.501,42.001c-2.206,0-4,1.794-4,4c0,1.859,1.28,3.411,3,3.858v1.142c0,0.553,0.448,1,1,1s1-0.447,1-1v-1.142
		c1.72-0.447,3-1.999,3-3.858C48.501,43.795,46.706,42.001,44.501,42.001z M44.501,48.001c-1.103,0-2-0.897-2-2s0.897-2,2-2
		s2,0.897,2,2S45.604,48.001,44.501,48.001z"/>
	<path d="M55.085,0.19c-0.261-0.188-0.597-0.241-0.901-0.137l-17.73,5.91L19.73,2.028c-0.076-0.018-0.152-0.026-0.228-0.026
		c-0.048,0-0.094,0.017-0.142,0.024c-0.026,0.004-0.051-0.006-0.076,0l-18,4C0.826,6.127,0.501,6.532,0.501,7.001v43
		c0,0.304,0.138,0.59,0.375,0.78c0.179,0.144,0.4,0.22,0.625,0.22c0.072,0,0.145-0.008,0.217-0.023l17.807-3.957l10.976,1.937
		V35.001h4.202c0.178-0.875,0.49-1.699,0.882-2.475c0.137-0.272,0.292-0.533,0.452-0.791c0.094-0.15,0.187-0.299,0.288-0.443
		c0.162-0.232,0.337-0.454,0.517-0.671c0.128-0.154,0.259-0.304,0.396-0.45c1.822-1.942,4.395-3.17,7.263-3.17
		c4.829,0,8.869,3.441,9.798,8h1.202v-34C55.501,0.68,55.346,0.378,55.085,0.19z M33.186,33.001h-2.686c-1.105,0-2,0.895-2,2v11.572
		l-8-1.412V4.264l15,3.529v21.283C34.479,30.233,33.696,31.562,33.186,33.001z"/>
</g>
<g>
</g>
<g>
</g>
<g>
</g>
<g>
</g>
<g>
</g>
<g>
</g>
<g>
</g>
<g>
</g>
<g>
</g>
<g>
</g>
<g>
</g>
<g>
</g>
<g>
</g>
<g>
</g>
<g>
</g>
</svg>
