<?xml version="1.0" encoding="iso-8859-1"?>
<!-- Generator: Adobe Illustrator 18.0.0, SVG Export Plug-In . SVG Version: 6.00 Build 0)  -->
<!DOCTYPE svg PUBLIC "-//W3C//DTD SVG 1.1//EN" "http://www.w3.org/Graphics/SVG/1.1/DTD/svg11.dtd">
<svg version="1.1" id="Capa_1" xmlns="http://www.w3.org/2000/svg" xmlns:xlink="http://www.w3.org/1999/xlink" x="0px" y="0px"
	 viewBox="0 0 56.001 56.001" style="enable-background:new 0 0 56.001 56.001;" xml:space="preserve">
<g>
	<path d="M43.001,30.001c-3.764,0-7.317,1.581-9.75,4.338c-0.365,0.415-0.326,1.047,0.088,1.412
		c0.415,0.366,1.045,0.326,1.412-0.088c2.053-2.327,5.061-3.662,8.25-3.662c6.065,0,11,4.935,11,11s-4.935,11-11,11
		c-4.992,0-9.407-3.367-10.741-8h4.741v-2h-8v8h2v-3.663c2.093,4.531,6.781,7.663,12,7.663c7.168,0,13-5.832,13-13
		S50.169,30.001,43.001,30.001z"/>
	<path d="M25.964,42.501c0-7.188,4.618-13.302,11.036-15.576v-0.002c1.722-0.615,3.57-0.959,5.5-0.959
		c4.993,0,9.465,2.233,12.5,5.743V1.001c0-0.321-0.154-0.623-0.416-0.812s-0.597-0.241-0.901-0.137l-17.73,5.91L19.23,2.028
		c-0.076-0.018-0.152-0.026-0.228-0.026c-0.048,0-0.094,0.017-0.142,0.024c-0.026,0.004-0.051-0.006-0.076,0l-18,4
		C0.326,6.127,0.001,6.532,0.001,7.001v43c0,0.304,0.138,0.59,0.375,0.78c0.179,0.144,0.4,0.22,0.625,0.22
		c0.072,0,0.145-0.008,0.217-0.023l17.807-3.957l8.062,1.423C26.372,46.596,25.964,44.597,25.964,42.501z M20.001,45.162V4.264
		l15,3.529v17.778c-6.656,2.953-11.036,9.587-11.036,16.93c0,1.148,0.109,2.29,0.324,3.417L20.001,45.162z"/>
</g>
<g>
</g>
<g>
</g>
<g>
</g>
<g>
</g>
<g>
</g>
<g>
</g>
<g>
</g>
<g>
</g>
<g>
</g>
<g>
</g>
<g>
</g>
<g>
</g>
<g>
</g>
<g>
</g>
<g>
</g>
</svg>
