<?xml version="1.0" encoding="iso-8859-1"?>
<!-- Generator: Adobe Illustrator 18.0.0, SVG Export Plug-In . SVG Version: 6.00 Build 0)  -->
<!DOCTYPE svg PUBLIC "-//W3C//DTD SVG 1.1//EN" "http://www.w3.org/Graphics/SVG/1.1/DTD/svg11.dtd">
<svg version="1.1" id="Capa_1" xmlns="http://www.w3.org/2000/svg" xmlns:xlink="http://www.w3.org/1999/xlink" x="0px" y="0px"
	 viewBox="0 0 56.001 56.001" style="enable-background:new 0 0 56.001 56.001;" xml:space="preserve">
<g>
	<path d="M42.501,32.001c-6.617,0-12,5.383-12,12s5.383,12,12,12s12-5.383,12-12S49.118,32.001,42.501,32.001z M42.501,54.001
		c-5.514,0-10-4.486-10-10s4.486-10,10-10s10,4.486,10,10S48.014,54.001,42.501,54.001z"/>
	<path d="M48.501,43.001h-5v-5c0-0.553-0.447-1-1-1s-1,0.447-1,1v6c0,0.553,0.447,1,1,1h6c0.553,0,1-0.447,1-1
		S49.053,43.001,48.501,43.001z"/>
	<path d="M55.085,0.19c-0.261-0.188-0.597-0.241-0.901-0.137l-17.73,5.91L19.73,2.028c-0.076-0.018-0.152-0.026-0.228-0.026
		c-0.048,0-0.094,0.017-0.142,0.024c-0.026,0.004-0.051-0.006-0.076,0l-18,4C0.826,6.127,0.501,6.532,0.501,7.001v43
		c0,0.304,0.138,0.59,0.375,0.78c0.179,0.144,0.4,0.22,0.625,0.22c0.072,0,0.145-0.008,0.217-0.023l17.807-3.957l8.687,1.533
		c-0.459-1.437-0.711-2.965-0.711-4.552c0-6.516,4.183-12.059,10-14.125v-0.006c1.565-0.558,3.246-0.869,5-0.869
		c5.558,0,10.409,3.045,13,7.548V1.001C55.501,0.68,55.346,0.378,55.085,0.19z M25.501,44.001c0,0.692,0.042,1.381,0.126,2.065
		l-5.126-0.905V4.264l15,3.529v20.735C29.465,31.263,25.501,37.312,25.501,44.001z"/>
</g>
<g>
</g>
<g>
</g>
<g>
</g>
<g>
</g>
<g>
</g>
<g>
</g>
<g>
</g>
<g>
</g>
<g>
</g>
<g>
</g>
<g>
</g>
<g>
</g>
<g>
</g>
<g>
</g>
<g>
</g>
</svg>
