<?xml version="1.0" encoding="iso-8859-1"?>
<!-- Generator: Adobe Illustrator 18.0.0, SVG Export Plug-In . SVG Version: 6.00 Build 0)  -->
<!DOCTYPE svg PUBLIC "-//W3C//DTD SVG 1.1//EN" "http://www.w3.org/Graphics/SVG/1.1/DTD/svg11.dtd">
<svg version="1.1" id="Capa_1" xmlns="http://www.w3.org/2000/svg" xmlns:xlink="http://www.w3.org/1999/xlink" x="0px" y="0px"
	 viewBox="0 0 60 60" style="enable-background:new 0 0 60 60;" xml:space="preserve">
<g>
	<path d="M59.723,57.309l-5.969-6.244c1.746-1.919,2.82-4.458,2.82-7.25c0-5.953-4.843-10.796-10.796-10.796
		s-10.796,4.843-10.796,10.796S39.824,54.61,45.777,54.61c2.441,0,4.688-0.824,6.499-2.196l6.001,6.277
		C58.474,58.896,58.736,59,59,59c0.249,0,0.497-0.092,0.691-0.277C60.09,58.341,60.104,57.708,59.723,57.309z M36.981,43.814
		c0-4.85,3.946-8.796,8.796-8.796s8.796,3.946,8.796,8.796s-3.946,8.796-8.796,8.796S36.981,48.664,36.981,43.814z"/>
	<path d="M33.436,37.685C30.862,36.886,29,34.642,29,32c0-3.309,2.916-6,6.5-6c1.746,0,3.331,0.642,4.5,1.68V18.17l-17,2.684v17.248
		c0,0.013-0.007,0.025-0.008,0.038C22.911,41.383,20.033,44,16.5,44c-3.584,0-6.5-2.691-6.5-6s2.916-6,6.5-6
		c1.746,0,3.331,0.642,4.5,1.68V20v-2.714V14c0-0.492,0.358-0.911,0.844-0.987l19-3c0.29-0.047,0.583,0.037,0.805,0.228
		C41.872,10.43,42,10.708,42,11v1v5v13.557c1.202-0.343,2.466-0.539,3.777-0.539c5.307,0,9.916,3.016,12.223,7.421V2.565
		C58,1.701,57.299,1,56.435,1H1.565C0.701,1,0,1.701,0,2.565v45.869C0,49.299,0.701,50,1.565,50h31.898
		c-0.94-1.863-1.482-3.96-1.482-6.186C31.981,41.611,32.514,39.534,33.436,37.685z"/>
</g>
<g>
</g>
<g>
</g>
<g>
</g>
<g>
</g>
<g>
</g>
<g>
</g>
<g>
</g>
<g>
</g>
<g>
</g>
<g>
</g>
<g>
</g>
<g>
</g>
<g>
</g>
<g>
</g>
<g>
</g>
</svg>
