<?xml version="1.0" encoding="iso-8859-1"?>
<!-- Generator: Adobe Illustrator 18.0.0, SVG Export Plug-In . SVG Version: 6.00 Build 0)  -->
<!DOCTYPE svg PUBLIC "-//W3C//DTD SVG 1.1//EN" "http://www.w3.org/Graphics/SVG/1.1/DTD/svg11.dtd">
<svg version="1.1" id="Capa_1" xmlns="http://www.w3.org/2000/svg" xmlns:xlink="http://www.w3.org/1999/xlink" x="0px" y="0px"
	 viewBox="0 0 60.001 60.001" style="enable-background:new 0 0 60.001 60.001;" xml:space="preserve">
<g>
	<path d="M59.693,55.636L47.849,35.33c-0.405-0.695-1.128-1.11-1.933-1.11c-0.805,0-1.528,0.415-1.933,1.11L32.137,55.636
		c-0.409,0.7-0.412,1.539-0.008,2.242c0.404,0.703,1.129,1.123,1.94,1.123h23.691c0.811,0,1.536-0.42,1.939-1.123
		C60.104,57.175,60.102,56.337,59.693,55.636z M57.966,56.882c-0.03,0.055-0.092,0.119-0.205,0.119H34.07
		c-0.114,0-0.175-0.064-0.206-0.119s-0.056-0.14,0.001-0.238L45.71,36.338c0.057-0.098,0.143-0.118,0.206-0.118
		c0.062,0,0.148,0.021,0.205,0.118l11.845,20.306C58.022,56.742,57.998,56.827,57.966,56.882z"/>
	<path d="M46,41.001c-0.552,0-1,0.447-1,1v8c0,0.553,0.448,1,1,1s1-0.447,1-1v-8C47,41.448,46.552,41.001,46,41.001z"/>
	<path d="M45.29,53.291c-0.18,0.189-0.29,0.45-0.29,0.71s0.11,0.52,0.29,0.71c0.19,0.18,0.45,0.29,0.71,0.29
		c0.26,0,0.52-0.11,0.71-0.29c0.19-0.19,0.29-0.45,0.29-0.71s-0.1-0.521-0.29-0.71C46.34,52.921,45.66,52.921,45.29,53.291z"/>
	<path d="M39.866,36.433c-1.155,0.97-2.685,1.568-4.366,1.568c-3.584,0-6.5-2.691-6.5-6s2.916-6,6.5-6c1.746,0,3.331,0.642,4.5,1.68
		v-9.511l-17,2.684v17.248c0,0.013-0.007,0.025-0.008,0.038c-0.081,3.244-2.959,5.861-6.492,5.861c-3.584,0-6.5-2.691-6.5-6
		s2.916-6,6.5-6c1.746,0,3.331,0.642,4.5,1.68v-13.68v-2.714v-3.286c0-0.492,0.358-0.911,0.844-0.987l19-3
		c0.29-0.047,0.583,0.037,0.805,0.228C41.872,10.43,42,10.709,42,11.001v1v5v15c0,0.386-0.043,0.763-0.119,1.13
		c0.985-1.191,2.463-1.911,4.035-1.911c1.857,0,3.59,0.996,4.525,2.601L58,46.778V2.566c0-0.865-0.701-1.565-1.565-1.565H1.565
		C0.701,1.001,0,1.702,0,2.566v45.869c0,0.865,0.701,1.565,1.565,1.565h30.386L39.866,36.433z"/>
</g>
<g>
</g>
<g>
</g>
<g>
</g>
<g>
</g>
<g>
</g>
<g>
</g>
<g>
</g>
<g>
</g>
<g>
</g>
<g>
</g>
<g>
</g>
<g>
</g>
<g>
</g>
<g>
</g>
<g>
</g>
</svg>
