<?xml version="1.0" encoding="iso-8859-1"?>
<!-- Generator: Adobe Illustrator 18.0.0, SVG Export Plug-In . SVG Version: 6.00 Build 0)  -->
<!DOCTYPE svg PUBLIC "-//W3C//DTD SVG 1.1//EN" "http://www.w3.org/Graphics/SVG/1.1/DTD/svg11.dtd">
<svg version="1.1" id="Capa_1" xmlns="http://www.w3.org/2000/svg" xmlns:xlink="http://www.w3.org/1999/xlink" x="0px" y="0px"
	 viewBox="0 0 60 60" style="enable-background:new 0 0 60 60;" xml:space="preserve">
<g>
	<path d="M56,44.832c-0.43-4.107-3.853-7.332-7.954-7.332c-2.565,0-4.984,1.286-6.479,3.402c-0.292-0.051-0.588-0.076-0.884-0.076
		c-2.32,0-4.381,1.577-5.066,3.813C33.709,45.77,32.5,47.88,32.5,50.142c0,3.506,2.785,6.358,6.208,6.358h10.774
		c0.063,0,0.124-0.004,0.172-0.008c0.062,0.004,0.124,0.008,0.188,0.008h4.31c3.225,0,5.849-2.687,5.849-5.989
		C60,47.911,58.358,45.638,56,44.832z M54.151,54.5L49.8,54.497l-0.186-0.006L38.708,54.5c-2.32,0-4.208-1.955-4.208-4.358
		c0-1.666,0.948-3.21,2.417-3.935l0.435-0.214l0.102-0.475c0.331-1.56,1.689-2.692,3.229-2.692c0.344,0,0.687,0.057,1.019,0.169
		l0.777,0.261l0.409-0.711c1.096-1.906,3.023-3.045,5.158-3.045c3.265,0,5.955,2.747,5.999,6.123l0.011,0.813l0.799,0.155
		C56.677,46.946,58,48.594,58,50.511C58,52.71,56.273,54.5,54.151,54.5z"/>
	<path d="M33.158,42.689c0.39-0.844,0.919-1.589,1.533-2.241C31.488,40.079,29,37.555,29,34.5c0-3.309,2.916-6,6.5-6
		c1.746,0,3.331,0.642,4.5,1.68V20.67l-17,2.684v17.248c0,0.013-0.007,0.025-0.008,0.038C22.911,43.883,20.033,46.5,16.5,46.5
		c-3.584,0-6.5-2.691-6.5-6s2.916-6,6.5-6c1.746,0,3.331,0.642,4.5,1.68V22.5v-2.714V16.5c0-0.492,0.358-0.911,0.844-0.987l19-3
		c0.29-0.047,0.583,0.037,0.805,0.228C41.872,12.93,42,13.208,42,13.5v1v5v15c0,0.775-0.165,1.514-0.457,2.195
		c1.878-1.405,4.154-2.195,6.503-2.195c4.285,0,8.163,2.614,9.954,6.466V5.065C58,4.201,57.299,3.5,56.435,3.5H1.565
		C0.701,3.5,0,4.201,0,5.065v45.869C0,51.799,0.701,52.5,1.565,52.5h28.242c-0.194-0.755-0.308-1.542-0.308-2.358
		C29.5,47.229,30.862,44.463,33.158,42.689z"/>
</g>
<g>
</g>
<g>
</g>
<g>
</g>
<g>
</g>
<g>
</g>
<g>
</g>
<g>
</g>
<g>
</g>
<g>
</g>
<g>
</g>
<g>
</g>
<g>
</g>
<g>
</g>
<g>
</g>
<g>
</g>
</svg>
