<?xml version="1.0" encoding="iso-8859-1"?>
<!-- Generator: Adobe Illustrator 18.0.0, SVG Export Plug-In . SVG Version: 6.00 Build 0)  -->
<!DOCTYPE svg PUBLIC "-//W3C//DTD SVG 1.1//EN" "http://www.w3.org/Graphics/SVG/1.1/DTD/svg11.dtd">
<svg version="1.1" id="Capa_1" xmlns="http://www.w3.org/2000/svg" xmlns:xlink="http://www.w3.org/1999/xlink" x="0px" y="0px"
	 viewBox="0 0 60 60" style="enable-background:new 0 0 60 60;" xml:space="preserve">
<g>
	<path d="M59.949,44.088c-0.119-0.358-0.431-0.619-0.804-0.674l-7.401-1.086l-3.474-6.784c-0.342-0.668-1.438-0.668-1.779,0
		l-3.472,6.78l-7.777,1.089c-0.381,0.054-0.698,0.32-0.814,0.688s-0.012,0.768,0.269,1.031l5.605,5.267l-1.321,7.427
		c-0.066,0.373,0.084,0.752,0.388,0.978C39.544,58.934,39.754,59,39.965,59c0.154,0,0.31-0.035,0.452-0.108l6.964-3.528l6.965,3.528
		c0.337,0.173,0.744,0.137,1.049-0.089c0.304-0.227,0.454-0.604,0.388-0.978l-1.325-7.448l5.251-5.268
		C59.975,44.842,60.068,44.446,59.949,44.088z M52.673,49.334c-0.23,0.231-0.334,0.561-0.276,0.881l1.065,5.987l-5.629-2.852
		c-0.143-0.072-0.297-0.108-0.452-0.108s-0.31,0.036-0.452,0.108l-5.628,2.852l1.064-5.987c0.06-0.332-0.054-0.672-0.3-0.903
		l-4.479-4.207l6.225-0.872c0.322-0.045,0.603-0.244,0.751-0.534l2.818-5.504l2.818,5.504c0.146,0.287,0.425,0.486,0.744,0.533
		l5.946,0.873L52.673,49.334z"/>
	<path d="M27.809,41.998c0.116-0.367,0.434-0.634,0.814-0.688l12.437-1.741l5.432-10.608c0.342-0.668,1.438-0.668,1.779,0
		l5.432,10.608L58,40.171V2.565C58,1.701,57.299,1,56.435,1H1.565C0.701,1,0,1.701,0,2.565v45.869C0,49.299,0.701,50,1.565,50
		h33.931l-7.419-6.971C27.797,42.766,27.693,42.365,27.809,41.998z M23,38.102c0,0.013-0.007,0.025-0.008,0.038
		C22.911,41.383,20.033,44,16.5,44c-3.584,0-6.5-2.691-6.5-6s2.916-6,6.5-6c1.746,0,3.331,0.642,4.5,1.68V20v-2.714V14
		c0-0.492,0.358-0.911,0.844-0.987l19-3c0.29-0.047,0.583,0.037,0.805,0.228C41.872,10.43,42,10.708,42,11v1v5v15
		c0,3.309-2.916,6-6.5,6S29,35.309,29,32s2.916-6,6.5-6c1.746,0,3.331,0.642,4.5,1.68V18.17l-17,2.684V38.102z"/>
</g>
<g>
</g>
<g>
</g>
<g>
</g>
<g>
</g>
<g>
</g>
<g>
</g>
<g>
</g>
<g>
</g>
<g>
</g>
<g>
</g>
<g>
</g>
<g>
</g>
<g>
</g>
<g>
</g>
<g>
</g>
</svg>
