<?xml version="1.0" encoding="iso-8859-1"?>
<!-- Generator: Adobe Illustrator 18.0.0, SVG Export Plug-In . SVG Version: 6.00 Build 0)  -->
<!DOCTYPE svg PUBLIC "-//W3C//DTD SVG 1.1//EN" "http://www.w3.org/Graphics/SVG/1.1/DTD/svg11.dtd">
<svg version="1.1" id="Capa_1" xmlns="http://www.w3.org/2000/svg" xmlns:xlink="http://www.w3.org/1999/xlink" x="0px" y="0px"
	 viewBox="0 0 59 59" style="enable-background:new 0 0 59 59;" xml:space="preserve">
<g>
	<path d="M35,34.5v24h24v-24H35z M57,56.5H37v-20h9v12.586l-4.293-4.293l-1.414,1.414L47,52.914l6.707-6.707l-1.414-1.414L48,49.086
		V36.5h9V56.5z"/>
	<path d="M29,31.5c0-3.309,2.916-6,6.5-6c1.746,0,3.331,0.642,4.5,1.68v-9.51l-17,2.684v17.248c0,0.013-0.007,0.025-0.008,0.038
		C22.911,40.883,20.033,43.5,16.5,43.5c-3.584,0-6.5-2.691-6.5-6s2.916-6,6.5-6c1.746,0,3.331,0.642,4.5,1.68V19.5v-2.714V13.5
		c0-0.492,0.358-0.911,0.844-0.987l19-3c0.29-0.047,0.583,0.037,0.805,0.228C41.872,9.93,42,10.208,42,10.5v1v5v15h16V2.065
		C58,1.201,57.299,0.5,56.435,0.5H1.565C0.701,0.5,0,1.201,0,2.065v45.869C0,48.799,0.701,49.5,1.565,49.5H32V36.548
		C30.199,35.48,29,33.619,29,31.5z"/>
</g>
<g>
</g>
<g>
</g>
<g>
</g>
<g>
</g>
<g>
</g>
<g>
</g>
<g>
</g>
<g>
</g>
<g>
</g>
<g>
</g>
<g>
</g>
<g>
</g>
<g>
</g>
<g>
</g>
<g>
</g>
</svg>
