<?xml version="1.0" encoding="iso-8859-1"?>
<!-- Generator: Adobe Illustrator 18.0.0, SVG Export Plug-In . SVG Version: 6.00 Build 0)  -->
<!DOCTYPE svg PUBLIC "-//W3C//DTD SVG 1.1//EN" "http://www.w3.org/Graphics/SVG/1.1/DTD/svg11.dtd">
<svg version="1.1" id="Capa_1" xmlns="http://www.w3.org/2000/svg" xmlns:xlink="http://www.w3.org/1999/xlink" x="0px" y="0px"
	 viewBox="0 0 58 58" style="enable-background:new 0 0 58 58;" xml:space="preserve">
<g>
	<path d="M43,32c-3.764,0-7.317,1.581-9.75,4.338c-0.365,0.415-0.326,1.047,0.088,1.412c0.415,0.366,1.045,0.326,1.412-0.088
		C36.803,35.335,39.811,34,43,34c6.065,0,11,4.935,11,11s-4.935,11-11,11c-4.992,0-9.407-3.367-10.741-8H37v-2h-8v8h2v-3.664
		C33.093,54.867,37.781,58,43,58c7.168,0,13-5.832,13-13S50.168,32,43,32z"/>
	<path d="M19,8h9c0.552,0,1-0.447,1-1V1c0-0.553-0.448-1-1-1h-9c-0.552,0-1,0.447-1,1v6C18,7.553,18.448,8,19,8z"/>
	<path d="M12,11h23c0.552,0,1-0.447,1-1V4c0-0.553-0.448-1-1-1h-4c-0.552,0-1,0.447-1,1v5H17V4c0-0.553-0.448-1-1-1h-4
		c-0.552,0-1,0.447-1,1v6C11,10.553,11.448,11,12,11z"/>
	<path d="M25,45.5c0-1.202,0.137-2.371,0.382-3.5H9c-0.552,0-1-0.447-1-1s0.448-1,1-1h16.963c0.51-1.435,1.205-2.778,2.07-4H9
		c-0.552,0-1-0.447-1-1s0.448-1,1-1h20.691c2.999-3.079,7.181-5,11.809-5c1.202,0,2.371,0.137,3.5,0.382V7c0-0.553-0.448-1-1-1h-6
		c-0.552,0-1,0.447-1,1v5H10V7c0-0.553-0.448-1-1-1H3C2.448,6,2,6.447,2,7v50c0,0.553,0.448,1,1,1h27.761
		C27.241,54.972,25,50.496,25,45.5z M9,16h13c0.552,0,1,0.447,1,1s-0.448,1-1,1H9c-0.552,0-1-0.447-1-1S8.448,16,9,16z M9,22h29
		c0.552,0,1,0.447,1,1s-0.448,1-1,1H9c-0.552,0-1-0.447-1-1S8.448,22,9,22z M9,28h14c0.552,0,1,0.447,1,1s-0.448,1-1,1H9
		c-0.552,0-1-0.447-1-1S8.448,28,9,28z M22,48H9c-0.552,0-1-0.447-1-1s0.448-1,1-1h13c0.552,0,1,0.447,1,1S22.552,48,22,48z"/>
</g>
<g>
</g>
<g>
</g>
<g>
</g>
<g>
</g>
<g>
</g>
<g>
</g>
<g>
</g>
<g>
</g>
<g>
</g>
<g>
</g>
<g>
</g>
<g>
</g>
<g>
</g>
<g>
</g>
<g>
</g>
</svg>
