<?xml version="1.0" encoding="iso-8859-1"?>
<!-- Generator: Adobe Illustrator 18.0.0, SVG Export Plug-In . SVG Version: 6.00 Build 0)  -->
<!DOCTYPE svg PUBLIC "-//W3C//DTD SVG 1.1//EN" "http://www.w3.org/Graphics/SVG/1.1/DTD/svg11.dtd">
<svg version="1.1" id="Capa_1" xmlns="http://www.w3.org/2000/svg" xmlns:xlink="http://www.w3.org/1999/xlink" x="0px" y="0px"
	 viewBox="0 0 59.833 59.833" style="enable-background:new 0 0 59.833 59.833;" xml:space="preserve">
<g>
	<path d="M56.148,58.142l-5.969-6.244c1.746-1.918,2.82-4.458,2.82-7.25c0-5.953-4.843-10.796-10.796-10.796
		s-10.796,4.843-10.796,10.796s4.843,10.796,10.796,10.796c2.441,0,4.688-0.824,6.499-2.196l6.001,6.277
		c0.196,0.205,0.459,0.309,0.723,0.309c0.249,0,0.497-0.092,0.691-0.277C56.516,59.174,56.53,58.541,56.148,58.142z M33.407,44.647
		c0-4.85,3.946-8.796,8.796-8.796s8.796,3.946,8.796,8.796s-3.946,8.796-8.796,8.796S33.407,49.497,33.407,44.647z"/>
	<path d="M20.407,8h9c0.552,0,1-0.447,1-1V1c0-0.553-0.448-1-1-1h-9c-0.552,0-1,0.447-1,1v6C19.407,7.553,19.855,8,20.407,8z"/>
	<path d="M13.407,11h23c0.552,0,1-0.447,1-1V4c0-0.553-0.448-1-1-1h-4c-0.552,0-1,0.447-1,1v5h-13V4c0-0.553-0.448-1-1-1h-4
		c-0.552,0-1,0.447-1,1v6C12.407,10.553,12.855,11,13.407,11z"/>
	<path d="M28.407,44.647c0-0.906,0.094-1.79,0.261-2.647H10.407c-0.552,0-1-0.447-1-1s0.448-1,1-1H29.23
		c0.525-1.462,1.281-2.813,2.239-4H10.407c-0.552,0-1-0.447-1-1s0.448-1,1-1H33.44c2.385-1.966,5.438-3.148,8.763-3.148
		c1.466,0,2.877,0.234,4.204,0.66V7c0-0.553-0.448-1-1-1h-6c-0.552,0-1,0.447-1,1v5h-27V7c0-0.553-0.448-1-1-1h-6
		c-0.552,0-1,0.447-1,1v50c0,0.553,0.448,1,1,1h34.388C32.834,56.477,28.407,51.077,28.407,44.647z M10.407,16h13
		c0.552,0,1,0.447,1,1s-0.448,1-1,1h-13c-0.552,0-1-0.447-1-1S9.855,16,10.407,16z M10.407,22h29c0.552,0,1,0.447,1,1s-0.448,1-1,1
		h-29c-0.552,0-1-0.447-1-1S9.855,22,10.407,22z M10.407,28h14c0.552,0,1,0.447,1,1s-0.448,1-1,1h-14c-0.552,0-1-0.447-1-1
		S9.855,28,10.407,28z M23.407,48h-13c-0.552,0-1-0.447-1-1s0.448-1,1-1h13c0.552,0,1,0.447,1,1S23.96,48,23.407,48z"/>
</g>
<g>
</g>
<g>
</g>
<g>
</g>
<g>
</g>
<g>
</g>
<g>
</g>
<g>
</g>
<g>
</g>
<g>
</g>
<g>
</g>
<g>
</g>
<g>
</g>
<g>
</g>
<g>
</g>
<g>
</g>
</svg>
