<?xml version="1.0" encoding="iso-8859-1"?>
<!-- Generator: Adobe Illustrator 18.0.0, SVG Export Plug-In . SVG Version: 6.00 Build 0)  -->
<!DOCTYPE svg PUBLIC "-//W3C//DTD SVG 1.1//EN" "http://www.w3.org/Graphics/SVG/1.1/DTD/svg11.dtd">
<svg version="1.1" id="Capa_1" xmlns="http://www.w3.org/2000/svg" xmlns:xlink="http://www.w3.org/1999/xlink" x="0px" y="0px"
	 viewBox="0 0 59 59" style="enable-background:new 0 0 59 59;" xml:space="preserve">
<g>
	<path d="M54.699,47.02c-0.55-0.106-1.069,0.241-1.18,0.781C52.403,53.303,48.074,57,42.749,57c-5.028,0-9.446-3.3-10.948-8H35.5v-2
		h-7v7h2v-2.849C32.669,55.833,37.415,59,42.749,59c6.304,0,11.42-4.341,12.731-10.801C55.59,47.657,55.24,47.13,54.699,47.02z"/>
	<path d="M54.5,35v4.309C52.25,34.854,47.796,32,42.749,32c-6.109,0-11.541,3.997-13.209,9.721c-0.154,0.53,0.15,1.085,0.681,1.239
		c0.529,0.154,1.085-0.15,1.239-0.681C32.858,37.482,37.605,34,42.749,34c4.565,0,8.562,2.766,10.33,7H48.5v2h8v-8H54.5z"/>
	<path d="M19.5,8h9c0.552,0,1-0.447,1-1V1c0-0.553-0.448-1-1-1h-9c-0.552,0-1,0.447-1,1v6C18.5,7.553,18.948,8,19.5,8z"/>
	<path d="M12.5,11h23c0.552,0,1-0.447,1-1V4c0-0.553-0.448-1-1-1h-4c-0.552,0-1,0.447-1,1v5h-13V4c0-0.553-0.448-1-1-1h-4
		c-0.552,0-1,0.447-1,1v6C11.5,10.553,11.948,11,12.5,11z"/>
	<path d="M25.5,45.5c0-1.202,0.137-2.371,0.382-3.5H9.5c-0.552,0-1-0.447-1-1s0.448-1,1-1h16.963c0.51-1.435,1.205-2.778,2.07-4H9.5
		c-0.552,0-1-0.447-1-1s0.448-1,1-1h20.691c2.999-3.079,7.181-5,11.809-5c1.202,0,2.371,0.137,3.5,0.382V7c0-0.553-0.448-1-1-1h-6
		c-0.552,0-1,0.447-1,1v5h-27V7c0-0.553-0.448-1-1-1h-6c-0.552,0-1,0.447-1,1v50c0,0.553,0.448,1,1,1h27.761
		C27.741,54.972,25.5,50.496,25.5,45.5z M9.5,16h13c0.552,0,1,0.447,1,1s-0.448,1-1,1h-13c-0.552,0-1-0.447-1-1S8.948,16,9.5,16z
		 M9.5,22h29c0.552,0,1,0.447,1,1s-0.448,1-1,1h-29c-0.552,0-1-0.447-1-1S8.948,22,9.5,22z M9.5,28h14c0.552,0,1,0.447,1,1
		s-0.448,1-1,1h-14c-0.552,0-1-0.447-1-1S8.948,28,9.5,28z M22.5,48h-13c-0.552,0-1-0.447-1-1s0.448-1,1-1h13c0.552,0,1,0.447,1,1
		S23.052,48,22.5,48z"/>
</g>
<g>
</g>
<g>
</g>
<g>
</g>
<g>
</g>
<g>
</g>
<g>
</g>
<g>
</g>
<g>
</g>
<g>
</g>
<g>
</g>
<g>
</g>
<g>
</g>
<g>
</g>
<g>
</g>
<g>
</g>
</svg>
