<?xml version="1.0" encoding="iso-8859-1"?>
<!-- Generator: Adobe Illustrator 18.0.0, SVG Export Plug-In . SVG Version: 6.00 Build 0)  -->
<!DOCTYPE svg PUBLIC "-//W3C//DTD SVG 1.1//EN" "http://www.w3.org/Graphics/SVG/1.1/DTD/svg11.dtd">
<svg version="1.1" id="Capa_1" xmlns="http://www.w3.org/2000/svg" xmlns:xlink="http://www.w3.org/1999/xlink" x="0px" y="0px"
	 viewBox="0 0 60 60" style="enable-background:new 0 0 60 60;" xml:space="preserve">
<g>
	<path d="M31.5,36v24h24V36H31.5z M53.5,58h-9V45.414l4.293,4.293l1.414-1.414L43.5,41.586l-6.707,6.707l1.414,1.414l4.293-4.293V58
		h-9V38h20V58z"/>
	<path d="M21.5,8h9c0.552,0,1-0.447,1-1V1c0-0.553-0.448-1-1-1h-9c-0.552,0-1,0.447-1,1v6C20.5,7.553,20.948,8,21.5,8z"/>
	<path d="M14.5,11h23c0.552,0,1-0.447,1-1V4c0-0.553-0.448-1-1-1h-4c-0.552,0-1,0.447-1,1v5h-13V4c0-0.553-0.448-1-1-1h-4
		c-0.552,0-1,0.447-1,1v6C13.5,10.553,13.948,11,14.5,11z"/>
	<path d="M47.5,7c0-0.553-0.448-1-1-1h-6c-0.552,0-1,0.447-1,1v5h-27V7c0-0.553-0.448-1-1-1h-6c-0.552,0-1,0.447-1,1v50
		c0,0.553,0.448,1,1,1h23V42h-17c-0.552,0-1-0.447-1-1s0.448-1,1-1h17v-4h-17c-0.552,0-1-0.447-1-1s0.448-1,1-1h17v-1h19V7z
		 M11.5,46h13c0.552,0,1,0.447,1,1s-0.448,1-1,1h-13c-0.552,0-1-0.447-1-1S10.948,46,11.5,46z M11.5,16h13c0.552,0,1,0.447,1,1
		s-0.448,1-1,1h-13c-0.552,0-1-0.447-1-1S10.948,16,11.5,16z M25.5,30h-14c-0.552,0-1-0.447-1-1s0.448-1,1-1h14c0.552,0,1,0.447,1,1
		S26.052,30,25.5,30z M40.5,24h-29c-0.552,0-1-0.447-1-1s0.448-1,1-1h29c0.552,0,1,0.447,1,1S41.052,24,40.5,24z"/>
</g>
<g>
</g>
<g>
</g>
<g>
</g>
<g>
</g>
<g>
</g>
<g>
</g>
<g>
</g>
<g>
</g>
<g>
</g>
<g>
</g>
<g>
</g>
<g>
</g>
<g>
</g>
<g>
</g>
<g>
</g>
</svg>
