<?xml version="1.0" encoding="iso-8859-1"?>
<!-- Generator: Adobe Illustrator 18.0.0, SVG Export Plug-In . SVG Version: 6.00 Build 0)  -->
<!DOCTYPE svg PUBLIC "-//W3C//DTD SVG 1.1//EN" "http://www.w3.org/Graphics/SVG/1.1/DTD/svg11.dtd">
<svg version="1.1" id="Capa_1" xmlns="http://www.w3.org/2000/svg" xmlns:xlink="http://www.w3.org/1999/xlink" x="0px" y="0px"
	 viewBox="0 0 58 58" style="enable-background:new 0 0 58 58;" xml:space="preserve">
<g>
	<path d="M51.917,46.332C51.487,42.225,48.064,39,43.962,39c-2.563,0-4.983,1.287-6.479,3.402c-0.292-0.051-0.587-0.076-0.883-0.076
		c-2.321,0-4.382,1.577-5.066,3.813c-1.908,1.131-3.117,3.241-3.117,5.503c0,3.506,2.785,6.358,6.208,6.358h10.774
		c0.063,0,0.126-0.004,0.173-0.008C45.634,57.996,45.696,58,45.758,58h4.31c3.225,0,5.849-2.687,5.849-5.989
		C55.917,49.411,54.275,47.138,51.917,46.332z M50.068,56l-4.351-0.003l-0.188-0.006L34.625,56c-2.32,0-4.208-1.955-4.208-4.358
		c0-1.666,0.949-3.21,2.418-3.934l0.435-0.215l0.102-0.475c0.331-1.561,1.689-2.692,3.229-2.692c0.343,0,0.686,0.057,1.018,0.169
		l0.777,0.261l0.409-0.711C39.901,42.139,41.829,41,43.962,41c3.265,0,5.955,2.747,5.999,6.123l0.011,0.813l0.799,0.155
		c1.822,0.354,3.146,2.002,3.146,3.919C53.917,54.21,52.19,56,50.068,56z"/>
	<path d="M19.083,8h9c0.552,0,1-0.447,1-1V1c0-0.553-0.448-1-1-1h-9c-0.552,0-1,0.447-1,1v6C18.083,7.553,18.531,8,19.083,8z"/>
	<path d="M12.083,11h23c0.552,0,1-0.447,1-1V4c0-0.553-0.448-1-1-1h-4c-0.552,0-1,0.447-1,1v5h-13V4c0-0.553-0.448-1-1-1h-4
		c-0.552,0-1,0.447-1,1v6C11.083,10.553,11.531,11,12.083,11z"/>
	<path d="M29.075,45.023c1.305-2.821,4.021-4.681,7.065-4.852c2.066-2.127,4.894-3.339,7.822-3.339c0.378,0,0.751,0.027,1.121,0.066
		V7c0-0.553-0.448-1-1-1h-6c-0.552,0-1,0.447-1,1v5h-27V7c0-0.553-0.448-1-1-1h-6c-0.552,0-1,0.447-1,1v50c0,0.553,0.448,1,1,1
		H27.21c-1.122-1.551-1.793-3.458-1.793-5.525C25.417,49.562,26.779,46.797,29.075,45.023z M9.083,16h13c0.552,0,1,0.447,1,1
		s-0.448,1-1,1h-13c-0.552,0-1-0.447-1-1S8.531,16,9.083,16z M9.083,22h29c0.552,0,1,0.447,1,1s-0.448,1-1,1h-29
		c-0.552,0-1-0.447-1-1S8.531,22,9.083,22z M9.083,28h14c0.552,0,1,0.447,1,1s-0.448,1-1,1h-14c-0.552,0-1-0.447-1-1
		S8.531,28,9.083,28z M9.083,34h24c0.552,0,1,0.447,1,1s-0.448,1-1,1h-24c-0.552,0-1-0.447-1-1S8.531,34,9.083,34z M22.083,48h-13
		c-0.552,0-1-0.447-1-1s0.448-1,1-1h13c0.552,0,1,0.447,1,1S22.636,48,22.083,48z M9.083,42c-0.552,0-1-0.447-1-1s0.448-1,1-1h19
		c0.552,0,1,0.447,1,1s-0.448,1-1,1H9.083z"/>
</g>
<g>
</g>
<g>
</g>
<g>
</g>
<g>
</g>
<g>
</g>
<g>
</g>
<g>
</g>
<g>
</g>
<g>
</g>
<g>
</g>
<g>
</g>
<g>
</g>
<g>
</g>
<g>
</g>
<g>
</g>
</svg>
