<?xml version="1.0" encoding="iso-8859-1"?>
<!-- Generator: Adobe Illustrator 18.0.0, SVG Export Plug-In . SVG Version: 6.00 Build 0)  -->
<!DOCTYPE svg PUBLIC "-//W3C//DTD SVG 1.1//EN" "http://www.w3.org/Graphics/SVG/1.1/DTD/svg11.dtd">
<svg version="1.1" id="Capa_1" xmlns="http://www.w3.org/2000/svg" xmlns:xlink="http://www.w3.org/1999/xlink" x="0px" y="0px"
	 viewBox="0 0 58 58" style="enable-background:new 0 0 58 58;" xml:space="preserve">
<g>
	<path d="M55.371,41.943c-0.398-4.089-3.45-7.052-7.271-7.052c-2.396,0-4.407,1.448-5.684,3.212
		c-1.276-1.764-3.288-3.213-5.684-3.213c-3.819,0-6.871,2.963-7.27,7.052c-0.042,0.269-0.145,1.221,0.225,2.71
		c0.545,2.196,1.8,4.19,3.631,5.77l8.335,7.133c0.213,0.18,0.484,0.278,0.763,0.278c0.282,0,0.555-0.101,0.769-0.283l8.331-7.13
		c1.829-1.576,3.084-3.57,3.63-5.768C55.515,43.164,55.413,42.211,55.371,41.943z M53.205,44.17
		c-0.445,1.794-1.48,3.431-2.991,4.732l-7.797,6.673l-7.794-6.671c-1.514-1.304-2.549-2.941-2.993-4.734
		c-0.302-1.214-0.193-1.897-0.194-1.897l0.017-0.106c0.244-2.621,2.137-5.275,5.281-5.275c2.189,0,3.974,1.811,4.77,3.605
		l0.914,2.061l0.914-2.061c0.796-1.794,2.579-3.604,4.77-3.604c3.146,0,5.038,2.654,5.296,5.367
		C53.397,42.266,53.508,42.95,53.205,44.17z"/>
	<path d="M19.584,8h9c0.552,0,1-0.447,1-1V1c0-0.553-0.448-1-1-1h-9c-0.552,0-1,0.447-1,1v6C18.584,7.553,19.031,8,19.584,8z"/>
	<path d="M12.584,11h23c0.552,0,1-0.447,1-1V4c0-0.553-0.448-1-1-1h-4c-0.552,0-1,0.447-1,1v5h-13V4c0-0.553-0.448-1-1-1h-4
		c-0.552,0-1,0.447-1,1v6C11.584,10.553,12.031,11,12.584,11z"/>
	<path d="M26.776,45.375c-0.372-1.499-0.388-2.652-0.334-3.375H9.584c-0.552,0-1-0.447-1-1s0.448-1,1-1h17.185
		c0.365-1.484,1.012-2.841,1.886-4H9.584c-0.552,0-1-0.447-1-1s0.448-1,1-1h21.04c1.715-1.328,3.83-2.109,6.109-2.109
		c1.995,0,3.985,0.686,5.684,1.946c0.977-0.724,2.052-1.251,3.167-1.575V7c0-0.553-0.448-1-1-1h-6c-0.552,0-1,0.447-1,1v5h-27V7
		c0-0.553-0.448-1-1-1h-6c-0.552,0-1,0.447-1,1v50c0,0.553,0.448,1,1,1H37.56l-6.192-5.299
		C29.059,50.71,27.471,48.177,26.776,45.375z M9.584,16h13c0.552,0,1,0.447,1,1s-0.448,1-1,1h-13c-0.552,0-1-0.447-1-1
		S9.031,16,9.584,16z M9.584,22h29c0.552,0,1,0.447,1,1s-0.448,1-1,1h-29c-0.552,0-1-0.447-1-1S9.031,22,9.584,22z M9.584,28h14
		c0.552,0,1,0.447,1,1s-0.448,1-1,1h-14c-0.552,0-1-0.447-1-1S9.031,28,9.584,28z M22.584,48h-13c-0.552,0-1-0.447-1-1s0.448-1,1-1
		h13c0.552,0,1,0.447,1,1S23.136,48,22.584,48z"/>
</g>
<g>
</g>
<g>
</g>
<g>
</g>
<g>
</g>
<g>
</g>
<g>
</g>
<g>
</g>
<g>
</g>
<g>
</g>
<g>
</g>
<g>
</g>
<g>
</g>
<g>
</g>
<g>
</g>
<g>
</g>
</svg>
