<?xml version="1.0" encoding="iso-8859-1"?>
<!-- Generator: Adobe Illustrator 18.0.0, SVG Export Plug-In . SVG Version: 6.00 Build 0)  -->
<!DOCTYPE svg PUBLIC "-//W3C//DTD SVG 1.1//EN" "http://www.w3.org/Graphics/SVG/1.1/DTD/svg11.dtd">
<svg version="1.1" id="Capa_1" xmlns="http://www.w3.org/2000/svg" xmlns:xlink="http://www.w3.org/1999/xlink" x="0px" y="0px"
	 viewBox="0 0 60 60" style="enable-background:new 0 0 60 60;" xml:space="preserve">
<g>
	<path d="M57.5,58h-1v-2.36c0-3.534-1.845-6.748-4.827-8.64c2.981-1.892,4.827-5.105,4.827-8.64V36h1c0.553,0,1-0.447,1-1
		s-0.447-1-1-1h-1h-1h-14h-1h-1c-0.553,0-1,0.447-1,1s0.447,1,1,1h1v2.36c0,3.534,1.845,6.748,4.827,8.64
		c-2.981,1.892-4.827,5.105-4.827,8.64V58h-1c-0.553,0-1,0.447-1,1s0.447,1,1,1h1h1h13h2h1c0.553,0,1-0.447,1-1S58.053,58,57.5,58z
		 M42.5,38.36V36h12v2.36c0,3.319-2.033,6.298-5.197,7.64h-1.605C44.533,44.658,42.5,41.68,42.5,38.36z M42.5,58v-2.36
		c0-3.319,2.033-6.298,5.197-7.64h1.605c3.164,1.342,5.197,4.32,5.197,7.64V58H42.5z"/>
	<path d="M18.5,22h20V12h-20V22z M21.5,14h14v2h-14V14z M21.5,18h14v2h-14V18z"/>
	<path d="M35.5,38.36V31h12V0h-35h-1h-9h-1v60h1h9h1h23v-4.36c0-3.247,1.199-6.279,3.262-8.64C36.699,44.639,35.5,41.607,35.5,38.36
		z M4.5,58V2h5v56H4.5z M16.5,24V10h24v14H16.5z"/>
</g>
<g>
</g>
<g>
</g>
<g>
</g>
<g>
</g>
<g>
</g>
<g>
</g>
<g>
</g>
<g>
</g>
<g>
</g>
<g>
</g>
<g>
</g>
<g>
</g>
<g>
</g>
<g>
</g>
<g>
</g>
</svg>
