<?xml version="1.0" encoding="iso-8859-1"?>
<!-- Generator: Adobe Illustrator 18.0.0, SVG Export Plug-In . SVG Version: 6.00 Build 0)  -->
<!DOCTYPE svg PUBLIC "-//W3C//DTD SVG 1.1//EN" "http://www.w3.org/Graphics/SVG/1.1/DTD/svg11.dtd">
<svg version="1.1" id="Capa_1" xmlns="http://www.w3.org/2000/svg" xmlns:xlink="http://www.w3.org/1999/xlink" x="0px" y="0px"
	 viewBox="0 0 60 60" style="enable-background:new 0 0 60 60;" xml:space="preserve">
<g>
	<path d="M57.699,48.02c-0.549-0.105-1.069,0.24-1.18,0.781C55.403,54.303,51.074,58,45.749,58c-5.028,0-9.446-3.3-10.948-8H39.5v-2
		h-8v8h2v-3.848C35.669,56.833,40.415,60,45.749,60c6.304,0,11.42-4.341,12.731-10.801C58.59,48.657,58.24,48.13,57.699,48.02z"/>
	<path d="M57.5,36v4.308C55.25,35.855,50.796,33,45.749,33c-6.109,0-11.541,3.997-13.209,9.721c-0.154,0.53,0.15,1.085,0.681,1.239
		c0.531,0.156,1.086-0.151,1.239-0.681C35.858,38.482,40.605,35,45.749,35c4.565,0,8.562,2.766,10.33,7H51.5v2h8v-8H57.5z"/>
	<path d="M17.5,22h20V12h-20V22z M20.5,14h14v2h-14V14z M20.5,18h14v2h-14V18z"/>
	<path d="M27.5,46.5C27.5,37.402,34.902,30,44,30c0.852,0,1.682,0.085,2.5,0.21V0h-35h-1h-9h-1v60h1h9h1h23.043
		C30.291,57.012,27.5,52.08,27.5,46.5z M3.5,58V2h5v56H3.5z M15.5,10h24v14h-24V10z"/>
</g>
<g>
</g>
<g>
</g>
<g>
</g>
<g>
</g>
<g>
</g>
<g>
</g>
<g>
</g>
<g>
</g>
<g>
</g>
<g>
</g>
<g>
</g>
<g>
</g>
<g>
</g>
<g>
</g>
<g>
</g>
</svg>
