<?xml version="1.0" encoding="iso-8859-1"?>
<!-- Generator: Adobe Illustrator 18.0.0, SVG Export Plug-In . SVG Version: 6.00 Build 0)  -->
<!DOCTYPE svg PUBLIC "-//W3C//DTD SVG 1.1//EN" "http://www.w3.org/Graphics/SVG/1.1/DTD/svg11.dtd">
<svg version="1.1" id="Capa_1" xmlns="http://www.w3.org/2000/svg" xmlns:xlink="http://www.w3.org/1999/xlink" x="0px" y="0px"
	 viewBox="0 0 57.138 57.138" style="enable-background:new 0 0 57.138 57.138;" xml:space="preserve">
<g>
	<path d="M14.772,34.653c-0.267-0.032-0.538-0.052-0.813-0.052c-0.489,0-0.965,0.053-1.425,0.149
		c-4.597,0.592-8.832,3.552-12.068,8.494L0,43.956l0.359,0.548c3.635,5.552,8.529,8.609,13.783,8.609
		c5.253,0,10.148-3.058,13.783-8.609l0.466-0.711l-0.359-0.548C24.518,37.878,19.826,34.85,14.772,34.653z M18.868,41.51
		c0,2.707-2.202,4.909-4.909,4.909S9.05,44.217,9.05,41.51c0-2.345,1.655-4.305,3.856-4.789c0.445-0.053,0.892-0.087,1.343-0.087
		c0.02,0,0.04,0.002,0.06,0.002C16.85,36.819,18.868,38.923,18.868,41.51z M14.142,51.113c-4.387,0-8.538-2.537-11.744-7.161
		c1.559-2.287,3.348-4.069,5.281-5.305c-0.4,0.874-0.629,1.842-0.629,2.864c0,3.81,3.1,6.909,6.909,6.909s6.909-3.1,6.909-6.909
		c0-1.216-0.318-2.358-0.872-3.352c2.204,1.207,4.242,3.107,5.996,5.638C22.772,48.519,18.578,51.113,14.142,51.113z"/>
	<path d="M56.559,42.505c-2.008-3.796-8.981-7.912-9.287-8.092c-0.896-0.51-1.831-0.78-2.706-0.78c-1.301,0-2.366,0.596-3.011,1.68
		c-1.02,1.22-2.285,2.646-2.592,2.867c-2.376,1.612-4.237,1.429-6.294-0.629L21.182,26.065c-2.045-2.045-2.233-3.928-0.631-6.291
		c0.224-0.31,1.649-1.575,2.87-2.596c0.778-0.463,1.312-1.15,1.545-1.995c0.307-1.106,0.071-2.463-0.652-3.732
		c-0.173-0.296-4.29-7.269-8.085-9.276c-0.708-0.375-1.506-0.573-2.306-0.573c-1.319,0-2.558,0.514-3.49,1.445L7.896,5.584
		c-4.014,4.013-5.467,8.562-4.321,13.52c0.934,4.038,3.628,8.33,7.986,12.759c0.884-0.146,1.78-0.228,2.688-0.228
		c6.298,0,12.084,3.54,16.292,9.967l1.436,2.192l-1.543,2.354c-0.605,0.924-1.246,1.78-1.912,2.583
		c5.033,4.515,9.843,6.806,14.323,6.806c3.721,0,7.189-1.581,10.307-4.699l2.537-2.537C57.228,46.76,57.579,44.431,56.559,42.505z"
		/>
</g>
<g>
</g>
<g>
</g>
<g>
</g>
<g>
</g>
<g>
</g>
<g>
</g>
<g>
</g>
<g>
</g>
<g>
</g>
<g>
</g>
<g>
</g>
<g>
</g>
<g>
</g>
<g>
</g>
<g>
</g>
</svg>
