<?xml version="1.0" encoding="iso-8859-1"?>
<!-- Generator: Adobe Illustrator 18.0.0, SVG Export Plug-In . SVG Version: 6.00 Build 0)  -->
<!DOCTYPE svg PUBLIC "-//W3C//DTD SVG 1.1//EN" "http://www.w3.org/Graphics/SVG/1.1/DTD/svg11.dtd">
<svg version="1.1" id="Capa_1" xmlns="http://www.w3.org/2000/svg" xmlns:xlink="http://www.w3.org/1999/xlink" x="0px" y="0px"
	 viewBox="0 0 56.885 56.885" style="enable-background:new 0 0 56.885 56.885;" xml:space="preserve">
<g>
	<path d="M25.188,41.274l-1.444-0.277c-0.677-0.13-1.21-0.573-1.462-1.216c-0.253-0.642-0.163-1.329,0.245-1.885l0.907-1.236
		c0.292-0.398,0.25-0.95-0.1-1.299l-1.959-1.958c-0.339-0.339-0.871-0.389-1.268-0.121l-1.217,0.824
		c-0.331,0.224-0.71,0.343-1.099,0.343c-0.844,0-1.787-0.576-1.956-1.676l-0.233-1.515c-0.075-0.487-0.495-0.848-0.988-0.848h-2.77
		c-0.479,0-0.892,0.341-0.982,0.812l-0.358,1.865c-0.201,1.051-1.13,1.601-1.942,1.601c-0.389,0-0.769-0.118-1.099-0.342
		l-1.572-1.064c-0.396-0.268-0.928-0.218-1.268,0.121l-1.959,1.958c-0.35,0.349-0.392,0.9-0.1,1.299l0.907,1.236
		c0.408,0.556,0.498,1.243,0.245,1.885c-0.252,0.643-0.785,1.086-1.462,1.216l-1.444,0.277C0.341,41.364,0,41.777,0,42.256v2.77
		c0,0.493,0.36,0.913,0.848,0.988l1.515,0.233c0.683,0.105,1.232,0.528,1.508,1.16c0.276,0.633,0.212,1.323-0.175,1.895
		l-0.824,1.217c-0.269,0.396-0.218,0.929,0.121,1.268l1.958,1.959c0.348,0.348,0.899,0.391,1.299,0.1l1.236-0.907
		c0.342-0.252,0.742-0.385,1.156-0.385c0.813,0,1.742,0.551,1.944,1.602l0.277,1.444c0.091,0.471,0.503,0.812,0.982,0.812h2.77
		c0.493,0,0.913-0.36,0.988-0.848l0.164-1.065c0.169-1.1,1.113-1.676,1.958-1.676c0.413,0,0.813,0.134,1.156,0.386l0.869,0.638
		c0.399,0.293,0.951,0.25,1.299-0.1l1.958-1.959c0.339-0.339,0.39-0.871,0.121-1.268l-0.824-1.217
		c-0.387-0.571-0.451-1.262-0.175-1.895c0.275-0.632,0.825-1.055,1.508-1.16l1.515-0.233C25.64,45.939,26,45.519,26,45.026v-2.77
		C26,41.777,25.659,41.364,25.188,41.274z M24,44.168l-0.667,0.103c-1.354,0.208-2.489,1.082-3.036,2.337
		c-0.548,1.256-0.416,2.682,0.352,3.815l0.361,0.533l-0.768,0.768l-0.177-0.13c-0.689-0.505-1.498-0.772-2.34-0.772
		c-1.979,0-3.635,1.418-3.935,3.371l-0.033,0.218h-1.086l-0.121-0.633c-0.359-1.868-2.004-3.225-3.909-3.225
		c-0.843,0-1.651,0.268-2.34,0.771l-0.544,0.399L4.99,50.956l0.361-0.533c0.768-1.134,0.899-2.56,0.352-3.815
		c-0.547-1.255-1.683-2.129-3.036-2.337L2,44.168v-1.086l0.633-0.121c1.346-0.259,2.447-1.175,2.947-2.449
		c0.5-1.275,0.315-2.695-0.494-3.8l-0.399-0.544l0.768-0.768l0.889,0.602c0.662,0.448,1.43,0.686,2.22,0.686
		c1.905,0,3.548-1.355,3.907-3.224l0.202-1.054h1.086l0.103,0.667c0.301,1.953,1.955,3.371,3.934,3.371
		c0.789,0,1.556-0.237,2.219-0.687l0.533-0.361l0.768,0.768l-0.399,0.544c-0.81,1.104-0.994,2.524-0.494,3.8
		c0.5,1.274,1.602,2.19,2.947,2.449L24,43.082V44.168z"/>
	<path d="M13,38.41c-2.757,0-5,2.243-5,5s2.243,5,5,5s5-2.243,5-5S15.757,38.41,13,38.41z M13,46.41c-1.654,0-3-1.346-3-3
		s1.346-3,3-3s3,1.346,3,3S14.654,46.41,13,46.41z"/>
	<path d="M56.307,41.379c-2.008-3.796-8.981-7.912-9.287-8.092c-0.896-0.51-1.831-0.78-2.706-0.78c-1.301,0-2.366,0.596-3.011,1.68
		c-1.02,1.22-2.285,2.646-2.592,2.867c-2.376,1.612-4.237,1.429-6.294-0.629L20.93,24.939c-2.045-2.045-2.233-3.928-0.631-6.291
		c0.224-0.31,1.649-1.575,2.87-2.596c0.778-0.463,1.312-1.15,1.545-1.995c0.307-1.106,0.071-2.463-0.652-3.732
		c-0.173-0.296-4.29-7.269-8.085-9.276c-0.708-0.375-1.506-0.573-2.306-0.573c-1.319,0-2.558,0.514-3.49,1.445L7.643,4.457
		c-4.014,4.013-5.467,8.562-4.321,13.52c0.724,3.13,2.504,6.413,5.295,9.794c0.185-0.216,0.449-0.36,0.75-0.36h7.821
		c0.493,0,0.913,0.36,0.988,0.848l0.378,2.453l1.922-1.303c0.396-0.267,0.929-0.218,1.268,0.121l5.533,5.529
		c0.35,0.349,0.392,0.9,0.1,1.299l-1.469,2l2.28,0.438C28.659,38.886,29,39.298,29,39.778v7.821c0,0.188-0.065,0.357-0.157,0.509
		c4.824,4.179,9.439,6.302,13.748,6.302c3.721,0,7.189-1.581,10.307-4.699l2.537-2.537C56.975,45.634,57.326,43.305,56.307,41.379z"
		/>
</g>
<g>
</g>
<g>
</g>
<g>
</g>
<g>
</g>
<g>
</g>
<g>
</g>
<g>
</g>
<g>
</g>
<g>
</g>
<g>
</g>
<g>
</g>
<g>
</g>
<g>
</g>
<g>
</g>
<g>
</g>
</svg>
