<?xml version="1.0" encoding="iso-8859-1"?>
<!-- Generator: Adobe Illustrator 18.0.0, SVG Export Plug-In . SVG Version: 6.00 Build 0)  -->
<!DOCTYPE svg PUBLIC "-//W3C//DTD SVG 1.1//EN" "http://www.w3.org/Graphics/SVG/1.1/DTD/svg11.dtd">
<svg version="1.1" id="Capa_1" xmlns="http://www.w3.org/2000/svg" xmlns:xlink="http://www.w3.org/1999/xlink" x="0px" y="0px"
	 viewBox="0 0 55 55" style="enable-background:new 0 0 55 55;" xml:space="preserve">
<g>
	<path d="M18,35.5c0-3.859-3.14-7-7-7s-7,3.141-7,7v1H0v18h22v-18h-4V35.5z M6,35.5c0-2.757,2.243-5,5-5s5,2.243,5,5v1H6V35.5z
		 M20,38.5v14H2v-14h2h14H20z"/>
	<path d="M10,49.358V50.5c0,0.553,0.448,1,1,1s1-0.447,1-1v-1.142c1.72-0.447,3-1.999,3-3.858c0-2.206-1.794-4-4-4s-4,1.794-4,4
		C7,47.359,8.28,48.911,10,49.358z M11,43.5c1.103,0,2,0.897,2,2s-0.897,2-2,2s-2-0.897-2-2S9.897,43.5,11,43.5z"/>
	<path d="M54.421,41.404c-2.008-3.796-8.981-7.912-9.287-8.092c-0.896-0.51-1.831-0.78-2.706-0.78c-1.301,0-2.366,0.596-3.011,1.68
		c-1.02,1.22-2.285,2.646-2.592,2.867c-2.376,1.612-4.237,1.429-6.294-0.629L19.044,24.964c-2.045-2.045-2.233-3.928-0.631-6.291
		c0.224-0.31,1.649-1.575,2.87-2.596c0.778-0.463,1.312-1.15,1.545-1.995c0.307-1.106,0.071-2.463-0.652-3.732
		c-0.173-0.296-4.29-7.269-8.085-9.276C13.382,0.698,12.585,0.5,11.785,0.5c-1.319,0-2.558,0.514-3.49,1.445L5.758,4.482
		c-4.014,4.013-5.467,8.562-4.321,13.52c0.657,2.839,2.198,5.805,4.558,8.854C7.469,25.999,9.176,25.5,11,25.5
		c4.829,0,8.869,3.441,9.798,8H25v12.835c5.536,5.37,10.817,8.101,15.706,8.101c3.721,0,7.189-1.581,10.307-4.699l2.537-2.537
		C55.09,45.659,55.441,43.33,54.421,41.404z"/>
</g>
<g>
</g>
<g>
</g>
<g>
</g>
<g>
</g>
<g>
</g>
<g>
</g>
<g>
</g>
<g>
</g>
<g>
</g>
<g>
</g>
<g>
</g>
<g>
</g>
<g>
</g>
<g>
</g>
<g>
</g>
</svg>
