<?xml version="1.0" encoding="iso-8859-1"?>
<!-- Generator: Adobe Illustrator 18.0.0, SVG Export Plug-In . SVG Version: 6.00 Build 0)  -->
<!DOCTYPE svg PUBLIC "-//W3C//DTD SVG 1.1//EN" "http://www.w3.org/Graphics/SVG/1.1/DTD/svg11.dtd">
<svg version="1.1" id="Capa_1" xmlns="http://www.w3.org/2000/svg" xmlns:xlink="http://www.w3.org/1999/xlink" x="0px" y="0px"
	 viewBox="0 0 55.942 55.942" style="enable-background:new 0 0 55.942 55.942;" xml:space="preserve">
<g>
	<path d="M18.683,32.496c-2.396,0-4.407,1.449-5.684,3.213c-1.276-1.764-3.288-3.213-5.684-3.213c-3.819,0-6.871,2.963-7.271,7.052
		c-0.042,0.268-0.144,1.22,0.226,2.709c0.546,2.197,1.801,4.192,3.631,5.77l8.329,7.127c0.214,0.184,0.487,0.285,0.769,0.285
		s0.555-0.102,0.769-0.284l8.331-7.129c1.828-1.575,3.083-3.57,3.629-5.768c0.37-1.49,0.268-2.443,0.226-2.71
		C25.554,35.459,22.501,32.496,18.683,32.496z M23.786,41.776c-0.445,1.794-1.479,3.432-2.99,4.732l-7.797,6.672l-7.795-6.671
		c-1.513-1.303-2.547-2.94-2.992-4.734c-0.302-1.213-0.194-1.897-0.194-1.897l0.016-0.105c0.245-2.621,2.138-5.275,5.282-5.275
		c2.189,0,3.974,1.811,4.77,3.605l0.914,2.061l0.914-2.061c0.796-1.795,2.58-3.605,4.77-3.605c3.145,0,5.037,2.654,5.295,5.366
		C23.98,39.869,24.09,40.554,23.786,41.776z"/>
	<path d="M55.363,41.407c-2.008-3.796-8.981-7.912-9.287-8.092c-0.896-0.51-1.831-0.78-2.706-0.78c-1.301,0-2.366,0.596-3.011,1.68
		c-1.02,1.22-2.285,2.646-2.592,2.867c-2.376,1.612-4.237,1.429-6.294-0.629L19.986,24.967c-2.045-2.045-2.233-3.928-0.631-6.291
		c0.224-0.31,1.649-1.575,2.87-2.596c0.778-0.463,1.312-1.15,1.545-1.995c0.307-1.106,0.071-2.463-0.652-3.732
		c-0.173-0.296-4.29-7.269-8.085-9.276c-0.708-0.375-1.506-0.573-2.306-0.573c-1.319,0-2.558,0.514-3.49,1.445L6.7,4.486
		c-4.014,4.013-5.467,8.562-4.321,13.52c0.862,3.729,3.229,7.674,7.016,11.743c1.271,0.303,2.5,0.875,3.605,1.694
		c1.7-1.261,3.689-1.946,5.684-1.946c5.275,0,9.682,4.171,10.251,9.702c0.085,0.591,0.166,1.923-0.294,3.781
		c-0.369,1.484-0.993,2.889-1.833,4.179c5.221,4.827,10.208,7.28,14.841,7.28c3.721,0,7.189-1.581,10.307-4.699l2.537-2.537
		C56.032,45.662,56.383,43.333,55.363,41.407z"/>
</g>
<g>
</g>
<g>
</g>
<g>
</g>
<g>
</g>
<g>
</g>
<g>
</g>
<g>
</g>
<g>
</g>
<g>
</g>
<g>
</g>
<g>
</g>
<g>
</g>
<g>
</g>
<g>
</g>
<g>
</g>
</svg>
