<?xml version="1.0" encoding="iso-8859-1"?>
<!-- Generator: Adobe Illustrator 18.0.0, SVG Export Plug-In . SVG Version: 6.00 Build 0)  -->
<!DOCTYPE svg PUBLIC "-//W3C//DTD SVG 1.1//EN" "http://www.w3.org/Graphics/SVG/1.1/DTD/svg11.dtd">
<svg version="1.1" id="Capa_1" xmlns="http://www.w3.org/2000/svg" xmlns:xlink="http://www.w3.org/1999/xlink" x="0px" y="0px"
	 viewBox="0 0 54.757 54.757" style="enable-background:new 0 0 54.757 54.757;" xml:space="preserve">
<g>
	<path d="M48.804,37.332C48.374,33.225,44.951,30,40.849,30c-2.565,0-4.984,1.286-6.479,3.402c-0.292-0.051-0.588-0.076-0.884-0.076
		c-2.32,0-4.381,1.577-5.066,3.813c-1.907,1.131-3.116,3.241-3.116,5.503c0,3.506,2.785,6.358,6.208,6.358h10.774
		c0.063,0,0.124-0.004,0.172-0.008C42.519,48.996,42.582,49,42.645,49h4.31c3.225,0,5.849-2.687,5.849-5.989
		C52.804,40.411,51.162,38.138,48.804,37.332z M46.955,47l-4.352-0.003l-0.186-0.006L31.512,47c-2.32,0-4.208-1.955-4.208-4.358
		c0-1.666,0.948-3.21,2.417-3.935l0.435-0.214l0.102-0.475c0.331-1.56,1.689-2.692,3.229-2.692c0.344,0,0.687,0.057,1.019,0.169
		l0.777,0.261l0.409-0.711C36.787,33.139,38.715,32,40.849,32c3.265,0,5.955,2.747,5.999,6.123l0.011,0.813l0.799,0.155
		c1.822,0.354,3.146,2.002,3.146,3.919C50.804,45.21,49.077,47,46.955,47z"/>
	<path d="M25.962,35.189c1.305-2.82,4.02-4.68,7.064-4.851c1.683-1.732,3.873-2.844,6.21-3.202
		c2.352-7.308,0.732-16.242-4.547-21.52C31.068,1.995,26.252,0,21.13,0c-5.123,0-9.938,1.995-13.56,5.617
		c-6.703,6.702-7.536,19.312-1.804,26.952L21.13,54.757l3.837-5.542c-1.645-1.691-2.664-4.013-2.664-6.573
		C22.304,39.729,23.666,36.963,25.962,35.189z M21.307,26c-3.859,0-7-3.141-7-7s3.141-7,7-7s7,3.141,7,7S25.166,26,21.307,26z"/>
</g>
<g>
</g>
<g>
</g>
<g>
</g>
<g>
</g>
<g>
</g>
<g>
</g>
<g>
</g>
<g>
</g>
<g>
</g>
<g>
</g>
<g>
</g>
<g>
</g>
<g>
</g>
<g>
</g>
<g>
</g>
</svg>
