<?xml version="1.0" encoding="iso-8859-1"?>
<!-- Generator: Adobe Illustrator 18.0.0, SVG Export Plug-In . SVG Version: 6.00 Build 0)  -->
<!DOCTYPE svg PUBLIC "-//W3C//DTD SVG 1.1//EN" "http://www.w3.org/Graphics/SVG/1.1/DTD/svg11.dtd">
<svg version="1.1" id="Capa_1" xmlns="http://www.w3.org/2000/svg" xmlns:xlink="http://www.w3.org/1999/xlink" x="0px" y="0px"
	 viewBox="0 0 54.757 54.757" style="enable-background:new 0 0 54.757 54.757;" xml:space="preserve">
<g>
	<path d="M28.378,30.757v24h24v-24H28.378z M50.378,52.757h-9V40.171l4.293,4.293l1.414-1.414l-6.707-6.707l-6.707,6.707
		l1.414,1.414l4.293-4.293v12.586h-9v-20h20V52.757z"/>
	<path d="M35.115,5.617C31.493,1.995,26.678,0,21.555,0c-5.123,0-9.938,1.995-13.56,5.617C1.293,12.319,0.46,24.929,6.192,32.569
		l15.363,22.188l3.823-5.522V27.757h14.089C42.118,20.342,40.542,11.044,35.115,5.617z M21.732,26c-3.859,0-7-3.141-7-7s3.141-7,7-7
		s7,3.141,7,7S25.592,26,21.732,26z"/>
</g>
<g>
</g>
<g>
</g>
<g>
</g>
<g>
</g>
<g>
</g>
<g>
</g>
<g>
</g>
<g>
</g>
<g>
</g>
<g>
</g>
<g>
</g>
<g>
</g>
<g>
</g>
<g>
</g>
<g>
</g>
</svg>
