<?xml version="1.0" encoding="iso-8859-1"?>
<!-- Generator: Adobe Illustrator 18.0.0, SVG Export Plug-In . SVG Version: 6.00 Build 0)  -->
<!DOCTYPE svg PUBLIC "-//W3C//DTD SVG 1.1//EN" "http://www.w3.org/Graphics/SVG/1.1/DTD/svg11.dtd">
<svg version="1.1" id="Capa_1" xmlns="http://www.w3.org/2000/svg" xmlns:xlink="http://www.w3.org/1999/xlink" x="0px" y="0px"
	 viewBox="0 0 57.248 57.248" style="enable-background:new 0 0 57.248 57.248;" xml:space="preserve">
<g>
	<path d="M53.248,35.749c-0.43-4.107-3.853-7.332-7.954-7.332c-2.563,0-4.983,1.287-6.479,3.402
		c-0.292-0.051-0.587-0.076-0.883-0.076c-2.321,0-4.382,1.577-5.066,3.813c-1.908,1.131-3.117,3.241-3.117,5.503
		c0,3.506,2.785,6.358,6.208,6.358H46.73c0.063,0,0.126-0.004,0.173-0.008c0.063,0.004,0.124,0.008,0.187,0.008h4.31
		c3.225,0,5.849-2.687,5.849-5.989C57.248,38.828,55.606,36.554,53.248,35.749z M51.399,45.417l-4.351-0.003l-0.188-0.006
		l-10.905,0.009c-2.32,0-4.208-1.955-4.208-4.358c0-1.666,0.949-3.21,2.418-3.934L34.6,36.91l0.102-0.475
		c0.331-1.561,1.689-2.692,3.229-2.692c0.343,0,0.686,0.057,1.018,0.169l0.777,0.261l0.409-0.711
		c1.097-1.906,3.024-3.045,5.158-3.045c3.265,0,5.955,2.747,5.999,6.123l0.011,0.813l0.799,0.155
		c1.822,0.354,3.146,2.002,3.146,3.919C55.248,43.627,53.521,45.417,51.399,45.417z"/>
	<polygon points="0,31.63 25.147,56.831 31.289,50.705 6.115,25.531 	"/>
	<path d="M26.748,41.058c0-2.914,1.363-5.679,3.659-7.452c1.305-2.821,4.019-4.68,7.063-4.851c2.067-2.127,4.895-3.339,7.823-3.339
		c3.035,0,5.864,1.314,7.895,3.447l3.226-3.218V11.506L45.3,0.417H31.295L7.531,24.119l19.602,19.602
		C26.885,42.876,26.748,41.984,26.748,41.058z M42.43,9.417c2.17,0,3.935,1.766,3.935,3.936s-1.765,3.935-3.935,3.935
		s-3.935-1.765-3.935-3.935S40.26,9.417,42.43,9.417z"/>
</g>
<g>
</g>
<g>
</g>
<g>
</g>
<g>
</g>
<g>
</g>
<g>
</g>
<g>
</g>
<g>
</g>
<g>
</g>
<g>
</g>
<g>
</g>
<g>
</g>
<g>
</g>
<g>
</g>
<g>
</g>
</svg>
