<?xml version="1.0" encoding="iso-8859-1"?>
<!-- Generator: Adobe Illustrator 18.0.0, SVG Export Plug-In . SVG Version: 6.00 Build 0)  -->
<!DOCTYPE svg PUBLIC "-//W3C//DTD SVG 1.1//EN" "http://www.w3.org/Graphics/SVG/1.1/DTD/svg11.dtd">
<svg version="1.1" id="Capa_1" xmlns="http://www.w3.org/2000/svg" xmlns:xlink="http://www.w3.org/1999/xlink" x="0px" y="0px"
	 viewBox="0 0 58.415 58.415" style="enable-background:new 0 0 58.415 58.415;" xml:space="preserve">
<g>
	<path d="M34.415,27v24h24V27H34.415z M56.415,49h-20V29h9v11.586l-4.293-4.293l-1.414,1.414l6.707,6.707l6.707-6.707l-1.414-1.414
		l-4.293,4.293V29h9V49z"/>
	<polygon points="0,32.213 25.147,57.414 31.289,51.289 6.115,26.115 	"/>
	<path d="M31.248,24h25.167V12.089L45.3,1H31.295L7.531,24.702L31.248,48.42V24z M42.43,10c2.17,0,3.935,1.766,3.935,3.936
		S44.6,17.87,42.43,17.87s-3.935-1.765-3.935-3.935S40.26,10,42.43,10z"/>
</g>
<g>
</g>
<g>
</g>
<g>
</g>
<g>
</g>
<g>
</g>
<g>
</g>
<g>
</g>
<g>
</g>
<g>
</g>
<g>
</g>
<g>
</g>
<g>
</g>
<g>
</g>
<g>
</g>
<g>
</g>
</svg>
