<?xml version="1.0" encoding="iso-8859-1"?>
<!-- Generator: Adobe Illustrator 18.0.0, SVG Export Plug-In . SVG Version: 6.00 Build 0)  -->
<!DOCTYPE svg PUBLIC "-//W3C//DTD SVG 1.1//EN" "http://www.w3.org/Graphics/SVG/1.1/DTD/svg11.dtd">
<svg version="1.1" id="Capa_1" xmlns="http://www.w3.org/2000/svg" xmlns:xlink="http://www.w3.org/1999/xlink" x="0px" y="0px"
	 viewBox="0 0 57.415 57.415" style="enable-background:new 0 0 57.415 57.415;" xml:space="preserve">
<g>
	<path d="M45.415,23.5c-6.617,0-12,5.383-12,12s5.383,12,12,12s12-5.383,12-12S52.032,23.5,45.415,23.5z M45.415,45.5
		c-5.514,0-10-4.486-10-10s4.486-10,10-10s10,4.486,10,10S50.928,45.5,45.415,45.5z"/>
	<path d="M51.415,34.5h-5v-5c0-0.553-0.447-1-1-1s-1,0.447-1,1v6c0,0.553,0.447,1,1,1h6c0.553,0,1-0.447,1-1
		S51.967,34.5,51.415,34.5z"/>
	<polygon points="0,31.713 25.147,56.914 31.289,50.789 6.115,25.615 	"/>
	<path d="M30.248,35.5c0-8.271,6.729-15,15-15c4.437,0,8.418,1.948,11.167,5.02V11.589L45.3,0.5H31.295L7.531,24.202l25.174,25.174
		l2.541-2.534c0.025-0.025,0.065-0.065,0.102-0.102C32.229,43.99,30.248,39.976,30.248,35.5z M42.43,9.5
		c2.17,0,3.935,1.766,3.935,3.936S44.6,17.37,42.43,17.37s-3.935-1.765-3.935-3.935S40.26,9.5,42.43,9.5z"/>
</g>
<g>
</g>
<g>
</g>
<g>
</g>
<g>
</g>
<g>
</g>
<g>
</g>
<g>
</g>
<g>
</g>
<g>
</g>
<g>
</g>
<g>
</g>
<g>
</g>
<g>
</g>
<g>
</g>
<g>
</g>
</svg>
