<?xml version="1.0" encoding="iso-8859-1"?>
<!-- Generator: Adobe Illustrator 18.0.0, SVG Export Plug-In . SVG Version: 6.00 Build 0)  -->
<!DOCTYPE svg PUBLIC "-//W3C//DTD SVG 1.1//EN" "http://www.w3.org/Graphics/SVG/1.1/DTD/svg11.dtd">
<svg version="1.1" id="Capa_1" xmlns="http://www.w3.org/2000/svg" xmlns:xlink="http://www.w3.org/1999/xlink" x="0px" y="0px"
	 viewBox="0 0 60 60" style="enable-background:new 0 0 60 60;" xml:space="preserve">
<g>
	<path d="M45.577,41.296c-0.267-0.032-0.538-0.052-0.813-0.052c-0.489,0-0.965,0.053-1.425,0.149
		c-4.597,0.592-8.832,3.552-12.068,8.494l-0.466,0.711l0.359,0.548c3.635,5.552,8.529,8.609,13.783,8.609
		c5.253,0,10.148-3.058,13.783-8.609l0.466-0.711l-0.359-0.548C55.323,44.521,50.631,41.493,45.577,41.296z M49.673,48.153
		c0,2.707-2.202,4.909-4.909,4.909s-4.909-2.202-4.909-4.909c0-2.345,1.655-4.305,3.856-4.789c0.445-0.053,0.892-0.087,1.343-0.087
		c0.02,0,0.04,0.002,0.06,0.002C47.655,43.462,49.673,45.566,49.673,48.153z M44.947,57.756c-4.387,0-8.538-2.537-11.744-7.161
		c1.559-2.287,3.348-4.069,5.281-5.305c-0.4,0.874-0.629,1.842-0.629,2.864c0,3.81,3.1,6.909,6.909,6.909s6.909-3.1,6.909-6.909
		c0-1.216-0.318-2.358-0.872-3.352c2.204,1.207,4.242,3.107,5.996,5.638C53.577,55.162,49.383,57.756,44.947,57.756z"/>
	<path d="M0.835,21.244C0.314,21.984,0,22.879,0,23.853v11.783c0,0.974,0.314,1.868,0.835,2.608h58.329
		C59.686,37.504,60,36.609,60,35.636V23.853c0-0.974-0.314-1.868-0.835-2.608H0.835z M10.5,34.244c-2.481,0-4.5-2.019-4.5-4.5
		s2.019-4.5,4.5-4.5s4.5,2.019,4.5,4.5S12.981,34.244,10.5,34.244z M34,29.244c-0.552,0-1-0.448-1-1s0.448-1,1-1s1,0.448,1,1
		S34.552,29.244,34,29.244z M38,29.244c-0.552,0-1-0.448-1-1s0.448-1,1-1s1,0.448,1,1S38.552,29.244,38,29.244z M42,29.244
		c-0.552,0-1-0.448-1-1s0.448-1,1-1s1,0.448,1,1S42.552,29.244,42,29.244z M46,29.244c-0.552,0-1-0.448-1-1s0.448-1,1-1s1,0.448,1,1
		S46.552,29.244,46,29.244z M50,29.244c-0.552,0-1-0.448-1-1s0.448-1,1-1s1,0.448,1,1S50.552,29.244,50,29.244z"/>
	<path d="M55.392,0.244H4.608C2.067,0.244,0,2.312,0,4.853v11.783c0,0.974,0.314,1.868,0.835,2.608h58.329
		C59.686,18.504,60,17.609,60,16.636V4.853C60,2.312,57.933,0.244,55.392,0.244z M10.5,15.244c-2.481,0-4.5-2.019-4.5-4.5
		s2.019-4.5,4.5-4.5s4.5,2.019,4.5,4.5S12.981,15.244,10.5,15.244z M34,10.244c-0.552,0-1-0.448-1-1s0.448-1,1-1s1,0.448,1,1
		S34.552,10.244,34,10.244z M36,13.244c-0.552,0-1-0.448-1-1s0.448-1,1-1s1,0.448,1,1S36.552,13.244,36,13.244z M38,10.244
		c-0.552,0-1-0.448-1-1s0.448-1,1-1s1,0.448,1,1S38.552,10.244,38,10.244z M40,13.244c-0.552,0-1-0.448-1-1s0.448-1,1-1s1,0.448,1,1
		S40.552,13.244,40,13.244z M42,10.244c-0.552,0-1-0.448-1-1s0.448-1,1-1s1,0.448,1,1S42.552,10.244,42,10.244z M44,13.244
		c-0.552,0-1-0.448-1-1s0.448-1,1-1s1,0.448,1,1S44.552,13.244,44,13.244z M46,10.244c-0.552,0-1-0.448-1-1s0.448-1,1-1s1,0.448,1,1
		S46.552,10.244,46,10.244z M48,13.244c-0.552,0-1-0.448-1-1s0.448-1,1-1s1,0.448,1,1S48.552,13.244,48,13.244z M50,10.244
		c-0.552,0-1-0.448-1-1s0.448-1,1-1s1,0.448,1,1S50.552,10.244,50,10.244z M52,13.244c-0.552,0-1-0.448-1-1s0.448-1,1-1s1,0.448,1,1
		S52.552,13.244,52,13.244z"/>
	<path d="M28.654,52.79l-1.436-2.192l1.543-2.354c2.372-3.624,5.246-6.328,8.431-7.999H0.835C0.314,40.984,0,41.879,0,42.853v11.783
		c0,2.541,2.067,4.608,4.608,4.608h30.026C32.421,57.618,30.4,55.457,28.654,52.79z M10.5,53.244c-2.481,0-4.5-2.019-4.5-4.5
		s2.019-4.5,4.5-4.5s4.5,2.019,4.5,4.5S12.981,53.244,10.5,53.244z"/>
</g>
<g>
</g>
<g>
</g>
<g>
</g>
<g>
</g>
<g>
</g>
<g>
</g>
<g>
</g>
<g>
</g>
<g>
</g>
<g>
</g>
<g>
</g>
<g>
</g>
<g>
</g>
<g>
</g>
<g>
</g>
</svg>
