<?xml version="1.0" encoding="iso-8859-1"?>
<!-- Generator: Adobe Illustrator 18.0.0, SVG Export Plug-In . SVG Version: 6.00 Build 0)  -->
<!DOCTYPE svg PUBLIC "-//W3C//DTD SVG 1.1//EN" "http://www.w3.org/Graphics/SVG/1.1/DTD/svg11.dtd">
<svg version="1.1" id="Capa_1" xmlns="http://www.w3.org/2000/svg" xmlns:xlink="http://www.w3.org/1999/xlink" x="0px" y="0px"
	 viewBox="0 0 60 60" style="enable-background:new 0 0 60 60;" xml:space="preserve">
<g>
	<path d="M52.466,50.996l6.483-3.242l-17.637-6.498l6.498,17.638l3.242-6.484l6.797,6.797c0.195,0.195,0.451,0.293,0.707,0.293
		s0.512-0.098,0.707-0.293c0.391-0.391,0.391-1.023,0-1.414L52.466,50.996z M44.688,44.631l9.232,3.402l-3.887,1.943l-1.943,3.888
		L44.688,44.631z"/>
	<path d="M0.835,21.5C0.314,22.24,0,23.135,0,24.108v11.783c0,0.974,0.314,1.868,0.835,2.608h58.329
		C59.686,37.76,60,36.865,60,35.892V24.108c0-0.974-0.314-1.868-0.835-2.608H0.835z M10.5,34.5C8.019,34.5,6,32.481,6,30
		s2.019-4.5,4.5-4.5S15,27.519,15,30S12.981,34.5,10.5,34.5z M34,29.5c-0.552,0-1-0.448-1-1s0.448-1,1-1s1,0.448,1,1
		S34.552,29.5,34,29.5z M38,29.5c-0.552,0-1-0.448-1-1s0.448-1,1-1s1,0.448,1,1S38.552,29.5,38,29.5z M42,29.5c-0.552,0-1-0.448-1-1
		s0.448-1,1-1s1,0.448,1,1S42.552,29.5,42,29.5z M46,29.5c-0.552,0-1-0.448-1-1s0.448-1,1-1s1,0.448,1,1S46.552,29.5,46,29.5z
		 M50,29.5c-0.552,0-1-0.448-1-1s0.448-1,1-1s1,0.448,1,1S50.552,29.5,50,29.5z"/>
	<path d="M55.392,0.5H4.608C2.067,0.5,0,2.567,0,5.108v11.783c0,0.974,0.314,1.868,0.835,2.608h58.329
		C59.686,18.76,60,17.865,60,16.892V5.108C60,2.567,57.933,0.5,55.392,0.5z M10.5,15.5C8.019,15.5,6,13.481,6,11s2.019-4.5,4.5-4.5
		S15,8.519,15,11S12.981,15.5,10.5,15.5z M34,10.5c-0.552,0-1-0.448-1-1s0.448-1,1-1s1,0.448,1,1S34.552,10.5,34,10.5z M36,13.5
		c-0.552,0-1-0.448-1-1s0.448-1,1-1s1,0.448,1,1S36.552,13.5,36,13.5z M38,10.5c-0.552,0-1-0.448-1-1s0.448-1,1-1s1,0.448,1,1
		S38.552,10.5,38,10.5z M40,13.5c-0.552,0-1-0.448-1-1s0.448-1,1-1s1,0.448,1,1S40.552,13.5,40,13.5z M42,10.5c-0.552,0-1-0.448-1-1
		s0.448-1,1-1s1,0.448,1,1S42.552,10.5,42,10.5z M44,13.5c-0.552,0-1-0.448-1-1s0.448-1,1-1s1,0.448,1,1S44.552,13.5,44,13.5z
		 M46,10.5c-0.552,0-1-0.448-1-1s0.448-1,1-1s1,0.448,1,1S46.552,10.5,46,10.5z M48,13.5c-0.552,0-1-0.448-1-1s0.448-1,1-1
		s1,0.448,1,1S48.552,13.5,48,13.5z M50,10.5c-0.552,0-1-0.448-1-1s0.448-1,1-1s1,0.448,1,1S50.552,10.5,50,10.5z M52,13.5
		c-0.552,0-1-0.448-1-1s0.448-1,1-1s1,0.448,1,1S52.552,13.5,52,13.5z"/>
	<path d="M0.835,40.5C0.314,41.24,0,42.135,0,43.108v11.783C0,57.433,2.067,59.5,4.608,59.5h40.228l-7-19H0.835z M10.5,53.5
		C8.019,53.5,6,51.481,6,49s2.019-4.5,4.5-4.5S15,46.519,15,49S12.981,53.5,10.5,53.5z M34,48.5c-0.552,0-1-0.448-1-1s0.448-1,1-1
		s1,0.448,1,1S34.552,48.5,34,48.5z M36,51.5c-0.552,0-1-0.448-1-1s0.448-1,1-1s1,0.448,1,1S36.552,51.5,36,51.5z"/>
</g>
<g>
</g>
<g>
</g>
<g>
</g>
<g>
</g>
<g>
</g>
<g>
</g>
<g>
</g>
<g>
</g>
<g>
</g>
<g>
</g>
<g>
</g>
<g>
</g>
<g>
</g>
<g>
</g>
<g>
</g>
</svg>
