<?xml version="1.0" encoding="iso-8859-1"?>
<!-- Generator: Adobe Illustrator 18.0.0, SVG Export Plug-In . SVG Version: 6.00 Build 0)  -->
<!DOCTYPE svg PUBLIC "-//W3C//DTD SVG 1.1//EN" "http://www.w3.org/Graphics/SVG/1.1/DTD/svg11.dtd">
<svg version="1.1" id="Capa_1" xmlns="http://www.w3.org/2000/svg" xmlns:xlink="http://www.w3.org/1999/xlink" x="0px" y="0px"
	 viewBox="0 0 60 60" style="enable-background:new 0 0 60 60;" xml:space="preserve">
<g>
	<path d="M47,34c-3.764,0-7.317,1.581-9.75,4.338c-0.365,0.415-0.326,1.047,0.088,1.412c0.415,0.366,1.045,0.327,1.412-0.088
		C40.803,37.335,43.811,36,47,36c6.065,0,11,4.935,11,11s-4.935,11-11,11c-4.992,0-9.407-3.367-10.741-8H41v-2h-8v8h2v-3.664
		C37.093,56.867,41.781,60,47,60c7.168,0,13-5.832,13-13S54.168,34,47,34z"/>
	<path d="M0.835,21C0.314,21.74,0,22.635,0,23.608v11.783C0,36.365,0.314,37.26,0.835,38h31.769c3.009-4.795,8.329-8,14.396-8
		c5.186,0,9.83,2.341,12.95,6.013c0.029-0.204,0.05-0.41,0.05-0.622V23.608c0-0.974-0.314-1.868-0.835-2.608H0.835z M10.5,34
		C8.019,34,6,31.981,6,29.5S8.019,25,10.5,25s4.5,2.019,4.5,4.5S12.981,34,10.5,34z M34,29c-0.552,0-1-0.448-1-1s0.448-1,1-1
		s1,0.448,1,1S34.552,29,34,29z M38,29c-0.552,0-1-0.448-1-1s0.448-1,1-1s1,0.448,1,1S38.552,29,38,29z M42,29c-0.552,0-1-0.448-1-1
		s0.448-1,1-1s1,0.448,1,1S42.552,29,42,29z M46,29c-0.552,0-1-0.448-1-1s0.448-1,1-1s1,0.448,1,1S46.552,29,46,29z M50,29
		c-0.552,0-1-0.448-1-1s0.448-1,1-1s1,0.448,1,1S50.552,29,50,29z"/>
	<path d="M55.392,0H4.608C2.067,0,0,2.067,0,4.608v11.783C0,17.365,0.314,18.26,0.835,19h58.329C59.686,18.26,60,17.365,60,16.392
		V4.608C60,2.067,57.933,0,55.392,0z M10.5,15C8.019,15,6,12.981,6,10.5S8.019,6,10.5,6S15,8.019,15,10.5S12.981,15,10.5,15z M34,10
		c-0.552,0-1-0.448-1-1s0.448-1,1-1s1,0.448,1,1S34.552,10,34,10z M36,13c-0.552,0-1-0.448-1-1s0.448-1,1-1s1,0.448,1,1
		S36.552,13,36,13z M38,10c-0.552,0-1-0.448-1-1s0.448-1,1-1s1,0.448,1,1S38.552,10,38,10z M40,13c-0.552,0-1-0.448-1-1s0.448-1,1-1
		s1,0.448,1,1S40.552,13,40,13z M42,10c-0.552,0-1-0.448-1-1s0.448-1,1-1s1,0.448,1,1S42.552,10,42,10z M44,13c-0.552,0-1-0.448-1-1
		s0.448-1,1-1s1,0.448,1,1S44.552,13,44,13z M46,10c-0.552,0-1-0.448-1-1s0.448-1,1-1s1,0.448,1,1S46.552,10,46,10z M48,13
		c-0.552,0-1-0.448-1-1s0.448-1,1-1s1,0.448,1,1S48.552,13,48,13z M50,10c-0.552,0-1-0.448-1-1s0.448-1,1-1s1,0.448,1,1
		S50.552,10,50,10z M52,13c-0.552,0-1-0.448-1-1s0.448-1,1-1s1,0.448,1,1S52.552,13,52,13z"/>
	<path d="M31.526,40H0.835C0.314,40.74,0,41.635,0,42.608v11.783C0,56.933,2.067,59,4.608,59h30.362C31.901,55.923,30,51.68,30,47
		C30,44.503,30.555,42.138,31.526,40z M10.5,53C8.019,53,6,50.981,6,48.5S8.019,44,10.5,44s4.5,2.019,4.5,4.5S12.981,53,10.5,53z"/>
</g>
<g>
</g>
<g>
</g>
<g>
</g>
<g>
</g>
<g>
</g>
<g>
</g>
<g>
</g>
<g>
</g>
<g>
</g>
<g>
</g>
<g>
</g>
<g>
</g>
<g>
</g>
<g>
</g>
<g>
</g>
</svg>
