<?xml version="1.0" encoding="iso-8859-1"?>
<!-- Generator: Adobe Illustrator 18.0.0, SVG Export Plug-In . SVG Version: 6.00 Build 0)  -->
<!DOCTYPE svg PUBLIC "-//W3C//DTD SVG 1.1//EN" "http://www.w3.org/Graphics/SVG/1.1/DTD/svg11.dtd">
<svg version="1.1" id="Capa_1" xmlns="http://www.w3.org/2000/svg" xmlns:xlink="http://www.w3.org/1999/xlink" x="0px" y="0px"
	 viewBox="0 0 60 60" style="enable-background:new 0 0 60 60;" xml:space="preserve">
<g>
	<path d="M44,33c-3.764,0-7.317,1.581-9.75,4.338c-0.365,0.415-0.326,1.047,0.088,1.412c0.415,0.366,1.045,0.327,1.412-0.088
		C37.803,36.335,40.811,35,44,35c6.065,0,11,4.935,11,11s-4.935,11-11,11c-4.992,0-9.407-3.367-10.741-8H38v-2h-8v8h2v-3.664
		C34.093,55.867,38.781,59,44,59c7.168,0,13-5.832,13-13S51.168,33,44,33z"/>
	<circle cx="30" cy="29.879" r="2"/>
	<path d="M30,0C13.458,0,0,13.458,0,30s13.458,30,30,30c1.262,0,2.502-0.087,3.723-0.239C29.655,56.753,27,51.937,27,46.5
		C27,37.402,34.402,30,43.5,30c6.607,0,12.304,3.914,14.937,9.536C59.445,36.538,60,33.333,60,30C60,13.458,46.542,0,30,0z
		 M29,7.879c0-0.553,0.448-1,1-1s1,0.447,1,1v1c0,0.553-0.448,1-1,1s-1-0.447-1-1V7.879z M9,30.879H8c-0.552,0-1-0.447-1-1
		s0.448-1,1-1h1c0.552,0,1,0.447,1,1S9.552,30.879,9,30.879z M15.858,45.436l-0.707,0.707c-0.195,0.195-0.451,0.293-0.707,0.293
		s-0.512-0.098-0.707-0.293c-0.391-0.391-0.391-1.023,0-1.414l0.707-0.707c0.391-0.391,1.023-0.391,1.414,0
		S16.249,45.045,15.858,45.436z M15.858,15.736c-0.195,0.195-0.451,0.293-0.707,0.293s-0.512-0.098-0.707-0.293l-0.707-0.707
		c-0.391-0.391-0.391-1.023,0-1.414s1.023-0.391,1.414,0l0.707,0.707C16.249,14.713,16.249,15.346,15.858,15.736z M30,33.879
		c-1.858,0-3.411-1.279-3.858-3H19c-0.552,0-1-0.447-1-1s0.448-1,1-1h7.142c0.364-1.399,1.459-2.494,2.858-2.858V15.879
		c0-0.553,0.448-1,1-1s1,0.447,1,1v10.142c1.72,0.447,3,2,3,3.858C34,32.085,32.206,33.879,30,33.879z M46.263,15.029l-0.707,0.707
		c-0.195,0.195-0.451,0.293-0.707,0.293s-0.512-0.098-0.707-0.293c-0.391-0.391-0.391-1.023,0-1.414l0.707-0.707
		c0.391-0.391,1.023-0.391,1.414,0S46.654,14.639,46.263,15.029z"/>
</g>
<g>
</g>
<g>
</g>
<g>
</g>
<g>
</g>
<g>
</g>
<g>
</g>
<g>
</g>
<g>
</g>
<g>
</g>
<g>
</g>
<g>
</g>
<g>
</g>
<g>
</g>
<g>
</g>
<g>
</g>
</svg>
