<?xml version="1.0" encoding="iso-8859-1"?>
<!-- Generator: Adobe Illustrator 18.0.0, SVG Export Plug-In . SVG Version: 6.00 Build 0)  -->
<!DOCTYPE svg PUBLIC "-//W3C//DTD SVG 1.1//EN" "http://www.w3.org/Graphics/SVG/1.1/DTD/svg11.dtd">
<svg version="1.1" id="Capa_1" xmlns="http://www.w3.org/2000/svg" xmlns:xlink="http://www.w3.org/1999/xlink" x="0px" y="0px"
	 viewBox="0 0 60 60" style="enable-background:new 0 0 60 60;" xml:space="preserve">
<g>
	<path d="M32,33v24h24V33H32z M54,55H34V35h9v12.586l-4.293-4.293l-1.414,1.414L44,51.414l6.707-6.707l-1.414-1.414L45,47.586V35h9
		V55z"/>
	<circle cx="21" cy="53" r="2"/>
	<path d="M6,8h30v22h2V4.405C38,1.977,36.024,0,33.595,0H8.405C5.976,0,4,1.977,4,4.405v51.189C4,58.023,5.976,60,8.405,60H29V46H6
		V8z M24,3h1c0.552,0,1,0.447,1,1s-0.448,1-1,1h-1c-0.552,0-1-0.447-1-1S23.448,3,24,3z M17,3h4c0.552,0,1,0.447,1,1s-0.448,1-1,1
		h-4c-0.552,0-1-0.447-1-1S16.448,3,17,3z M21,49c2.206,0,4,1.794,4,4s-1.794,4-4,4s-4-1.794-4-4S18.794,49,21,49z"/>
</g>
<g>
</g>
<g>
</g>
<g>
</g>
<g>
</g>
<g>
</g>
<g>
</g>
<g>
</g>
<g>
</g>
<g>
</g>
<g>
</g>
<g>
</g>
<g>
</g>
<g>
</g>
<g>
</g>
<g>
</g>
</svg>
