<?xml version="1.0" encoding="iso-8859-1"?>
<!-- Generator: Adobe Illustrator 18.0.0, SVG Export Plug-In . SVG Version: 6.00 Build 0)  -->
<!DOCTYPE svg PUBLIC "-//W3C//DTD SVG 1.1//EN" "http://www.w3.org/Graphics/SVG/1.1/DTD/svg11.dtd">
<svg version="1.1" id="Capa_1" xmlns="http://www.w3.org/2000/svg" xmlns:xlink="http://www.w3.org/1999/xlink" x="0px" y="0px"
	 viewBox="0 0 60 60" style="enable-background:new 0 0 60 60;" xml:space="preserve">
<g>
	<path d="M54.739,42.132c-3.512-5.364-8.2-8.391-13.251-8.59c-0.27-0.032-0.543-0.054-0.821-0.054c-0.491,0-0.969,0.053-1.431,0.151
		c-4.595,0.593-8.827,3.552-12.062,8.492l-0.466,0.711l0.359,0.548C30.701,48.942,35.595,52,40.849,52
		c5.253,0,10.148-3.058,13.783-8.609l0.466-0.711L54.739,42.132z M45.575,40.397c0,2.707-2.202,4.909-4.909,4.909
		s-4.909-2.202-4.909-4.909c0-2.343,1.652-4.302,3.852-4.788c0.446-0.053,0.895-0.087,1.348-0.087c0.025,0,0.05,0.002,0.075,0.003
		C43.565,35.715,45.575,37.815,45.575,40.397z M40.849,50c-4.387,0-8.538-2.537-11.744-7.161c1.559-2.287,3.348-4.069,5.28-5.304
		c-0.4,0.874-0.629,1.841-0.629,2.863c0,3.81,3.1,6.909,6.909,6.909s6.909-3.1,6.909-6.909c0-1.216-0.318-2.357-0.872-3.351
		c2.204,1.207,4.242,3.107,5.996,5.637C49.479,47.406,45.285,50,40.849,50z"/>
	<circle cx="21.902" cy="53" r="2"/>
	<path d="M25.222,46H6.902V8h30v23.035c0.658-0.166,1.325,0.049,2-0.035V4.405C38.902,1.977,36.926,0,34.497,0H9.308
		C6.878,0,4.902,1.977,4.902,4.405v51.189C4.902,58.023,6.878,60,9.308,60h25.189c2.429,0,4.405-1.977,4.405-4.405v-0.718
		C33.683,54.261,28.91,51.174,25.222,46z M24.902,3h1c0.552,0,1,0.447,1,1s-0.448,1-1,1h-1c-0.552,0-1-0.447-1-1S24.35,3,24.902,3z
		 M17.902,3h4c0.552,0,1,0.447,1,1s-0.448,1-1,1h-4c-0.552,0-1-0.447-1-1S17.35,3,17.902,3z M21.902,57c-2.206,0-4-1.794-4-4
		s1.794-4,4-4s4,1.794,4,4S24.108,57,21.902,57z"/>
</g>
<g>
</g>
<g>
</g>
<g>
</g>
<g>
</g>
<g>
</g>
<g>
</g>
<g>
</g>
<g>
</g>
<g>
</g>
<g>
</g>
<g>
</g>
<g>
</g>
<g>
</g>
<g>
</g>
<g>
</g>
</svg>
