<?xml version="1.0" encoding="iso-8859-1"?>
<!-- Generator: Adobe Illustrator 18.0.0, SVG Export Plug-In . SVG Version: 6.00 Build 0)  -->
<!DOCTYPE svg PUBLIC "-//W3C//DTD SVG 1.1//EN" "http://www.w3.org/Graphics/SVG/1.1/DTD/svg11.dtd">
<svg version="1.1" id="Capa_1" xmlns="http://www.w3.org/2000/svg" xmlns:xlink="http://www.w3.org/1999/xlink" x="0px" y="0px"
	 viewBox="0 0 60 60" style="enable-background:new 0 0 60 60;" xml:space="preserve">
<g>
	<path d="M55.202,54.635L43.356,34.328c-0.405-0.695-1.127-1.109-1.932-1.109s-1.527,0.414-1.933,1.109L27.646,54.635
		c-0.409,0.7-0.412,1.539-0.008,2.242C28.042,57.58,28.767,58,29.578,58h23.69c0.812,0,1.537-0.42,1.94-1.123
		C55.614,56.173,55.611,55.335,55.202,54.635z M53.475,55.881C53.444,55.935,53.383,56,53.269,56h-23.69
		c-0.114,0-0.175-0.064-0.206-0.119s-0.056-0.14,0.001-0.238l11.845-20.307c0.057-0.098,0.143-0.117,0.205-0.117
		s0.148,0.02,0.205,0.117l11.846,20.307C53.531,55.74,53.506,55.826,53.475,55.881z"/>
	<path d="M41.509,40c-0.552,0-1,0.447-1,1v8c0,0.553,0.448,1,1,1s1-0.447,1-1v-8C42.509,40.447,42.061,40,41.509,40z"/>
	<path d="M40.8,52.29c-0.18,0.189-0.29,0.449-0.29,0.71c0,0.26,0.11,0.52,0.29,0.71c0.19,0.189,0.45,0.29,0.71,0.29
		c0.26,0,0.52-0.101,0.71-0.29c0.18-0.19,0.29-0.45,0.29-0.71c0-0.261-0.11-0.521-0.29-0.71C41.849,51.92,41.169,51.92,40.8,52.29z"
		/>
	<circle cx="21.489" cy="53" r="2"/>
	<path d="M25.036,58.371c-0.457-0.797-0.686-1.688-0.691-2.579C23.619,56.535,22.609,57,21.489,57c-2.206,0-4-1.794-4-4s1.794-4,4-4
		c2.024,0,3.684,1.516,3.946,3.469L29.209,46H6.489V8h30v23c0,0,1.187,0,2,0V4.405C38.489,1.977,36.513,0,34.084,0H8.895
		C6.466,0,4.489,1.977,4.489,4.405v51.189C4.489,58.023,6.466,60,8.895,60h17.621C25.923,59.572,25.412,59.024,25.036,58.371z
		 M24.489,3h1c0.552,0,1,0.447,1,1s-0.448,1-1,1h-1c-0.552,0-1-0.447-1-1S23.937,3,24.489,3z M17.489,3h4c0.552,0,1,0.447,1,1
		s-0.448,1-1,1h-4c-0.552,0-1-0.447-1-1S16.937,3,17.489,3z"/>
</g>
<g>
</g>
<g>
</g>
<g>
</g>
<g>
</g>
<g>
</g>
<g>
</g>
<g>
</g>
<g>
</g>
<g>
</g>
<g>
</g>
<g>
</g>
<g>
</g>
<g>
</g>
<g>
</g>
<g>
</g>
</svg>
