<?xml version="1.0" encoding="iso-8859-1"?>
<!-- Generator: Adobe Illustrator 18.0.0, SVG Export Plug-In . SVG Version: 6.00 Build 0)  -->
<!DOCTYPE svg PUBLIC "-//W3C//DTD SVG 1.1//EN" "http://www.w3.org/Graphics/SVG/1.1/DTD/svg11.dtd">
<svg version="1.1" id="Capa_1" xmlns="http://www.w3.org/2000/svg" xmlns:xlink="http://www.w3.org/1999/xlink" x="0px" y="0px"
	 viewBox="0 0 60 60" style="enable-background:new 0 0 60 60;" xml:space="preserve">
<g>
	<path d="M55.379,43.223c-0.398-4.089-3.45-7.052-7.27-7.052c-2.396,0-4.407,1.448-5.684,3.212
		c-1.276-1.764-3.288-3.213-5.684-3.213c-3.819,0-6.871,2.964-7.271,7.053c-0.042,0.268-0.144,1.219,0.225,2.709
		c0.546,2.197,1.801,4.191,3.632,5.77l8.323,7.123c0.215,0.187,0.489,0.289,0.774,0.289c0.281,0,0.555-0.102,0.769-0.284
		l8.332-7.129c1.828-1.577,3.082-3.571,3.628-5.769C55.523,44.443,55.421,43.491,55.379,43.223z M53.213,45.449
		c-0.445,1.794-1.479,3.432-2.99,4.733l-7.797,6.672l-7.795-6.671c-1.513-1.304-2.548-2.94-2.993-4.733
		c-0.301-1.215-0.193-1.898-0.193-1.898l0.016-0.105c0.245-2.622,2.138-5.276,5.282-5.276c2.189,0,3.974,1.811,4.77,3.605
		l0.914,2.061l0.914-2.061c0.796-1.794,2.579-3.604,4.77-3.604c3.145,0,5.037,2.654,5.295,5.367
		C53.405,43.545,53.516,44.229,53.213,45.449z"/>
	<circle cx="21.576" cy="53" r="2"/>
	<path d="M26.784,46.654C26.728,46.428,26.681,46.21,26.64,46H6.576V8h30v25c0.056-0.001,0.11-0.008,0.166-0.008
		c0.615,0,1.146,0.008,1.834,0.008V4.405C38.576,1.977,36.6,0,34.171,0H8.981C6.552,0,4.576,1.977,4.576,4.405v51.189
		C4.576,58.023,6.552,60,8.981,60h25.189c1.124,0,2.14-0.436,2.919-1.131l-5.712-4.888C29.068,51.99,27.481,49.458,26.784,46.654z
		 M24.576,3h1c0.552,0,1,0.447,1,1s-0.448,1-1,1h-1c-0.552,0-1-0.447-1-1S24.024,3,24.576,3z M17.576,3h4c0.552,0,1,0.447,1,1
		s-0.448,1-1,1h-4c-0.552,0-1-0.447-1-1S17.024,3,17.576,3z M21.576,57c-2.206,0-4-1.794-4-4s1.794-4,4-4s4,1.794,4,4
		S23.781,57,21.576,57z"/>
</g>
<g>
</g>
<g>
</g>
<g>
</g>
<g>
</g>
<g>
</g>
<g>
</g>
<g>
</g>
<g>
</g>
<g>
</g>
<g>
</g>
<g>
</g>
<g>
</g>
<g>
</g>
<g>
</g>
<g>
</g>
</svg>
