<?xml version="1.0" encoding="iso-8859-1"?>
<!-- Generator: Adobe Illustrator 18.0.0, SVG Export Plug-In . SVG Version: 6.00 Build 0)  -->
<!DOCTYPE svg PUBLIC "-//W3C//DTD SVG 1.1//EN" "http://www.w3.org/Graphics/SVG/1.1/DTD/svg11.dtd">
<svg version="1.1" id="Capa_1" xmlns="http://www.w3.org/2000/svg" xmlns:xlink="http://www.w3.org/1999/xlink" x="0px" y="0px"
	 viewBox="0 0 60 60" style="enable-background:new 0 0 60 60;" xml:space="preserve">
<g>
	<path d="M42.5,33c-6.617,0-12,5.383-12,12s5.383,12,12,12s12-5.383,12-12S49.117,33,42.5,33z M42.5,55c-5.514,0-10-4.486-10-10
		s4.486-10,10-10s10,4.486,10,10S48.014,55,42.5,55z"/>
	<path d="M48.5,44h-5v-5c0-0.553-0.447-1-1-1s-1,0.447-1,1v6c0,0.553,0.447,1,1,1h6c0.553,0,1-0.447,1-1S49.053,44,48.5,44z"/>
	<circle cx="22.5" cy="53" r="2"/>
	<path d="M27.551,46H7.5V8h30v22.875c0.65-0.23,1.313-0.433,2-0.573V4.405C39.5,1.977,37.524,0,35.095,0H9.905
		C7.476,0,5.5,1.977,5.5,4.405v51.189C5.5,58.023,7.476,60,9.905,60h25.189c0.95,0,1.826-0.31,2.546-0.823
		C32.053,57.255,27.958,52.13,27.551,46z M25.5,3h1c0.552,0,1,0.447,1,1s-0.448,1-1,1h-1c-0.552,0-1-0.447-1-1S24.948,3,25.5,3z
		 M18.5,3h4c0.552,0,1,0.447,1,1s-0.448,1-1,1h-4c-0.552,0-1-0.447-1-1S17.948,3,18.5,3z M22.5,57c-2.206,0-4-1.794-4-4s1.794-4,4-4
		s4,1.794,4,4S24.706,57,22.5,57z"/>
</g>
<g>
</g>
<g>
</g>
<g>
</g>
<g>
</g>
<g>
</g>
<g>
</g>
<g>
</g>
<g>
</g>
<g>
</g>
<g>
</g>
<g>
</g>
<g>
</g>
<g>
</g>
<g>
</g>
<g>
</g>
</svg>
