<?xml version="1.0" encoding="iso-8859-1"?>
<!-- Generator: Adobe Illustrator 18.0.0, SVG Export Plug-In . SVG Version: 6.00 Build 0)  -->
<!DOCTYPE svg PUBLIC "-//W3C//DTD SVG 1.1//EN" "http://www.w3.org/Graphics/SVG/1.1/DTD/svg11.dtd">
<svg version="1.1" id="Capa_1" xmlns="http://www.w3.org/2000/svg" xmlns:xlink="http://www.w3.org/1999/xlink" x="0px" y="0px"
	 viewBox="0 0 60 60" style="enable-background:new 0 0 60 60;" xml:space="preserve">
<g>
	<path d="M42.5,29c-3.764,0-7.317,1.581-9.75,4.338c-0.365,0.415-0.326,1.047,0.088,1.412c0.415,0.366,1.045,0.327,1.412-0.088
		C36.303,32.335,39.311,31,42.5,31c6.065,0,11,4.935,11,11s-4.935,11-11,11c-4.992,0-9.407-3.367-10.741-8H36.5v-2h-8v8h2v-3.664
		C32.593,51.867,37.281,55,42.5,55c7.168,0,13-5.832,13-13S49.668,29,42.5,29z"/>
	<circle cx="21.5" cy="53" r="2"/>
	<path d="M24.995,46H6.5V8h30v17.753c0.65-0.201,1.32-0.35,2-0.472V4.405C38.5,1.977,36.524,0,34.095,0H8.905
		C6.476,0,4.5,1.977,4.5,4.405v51.189C4.5,58.023,6.476,60,8.905,60h25.189c1.321,0,2.495-0.597,3.303-1.521
		C31.285,56.956,26.481,52.127,24.995,46z M24.5,3h1c0.552,0,1,0.447,1,1s-0.448,1-1,1h-1c-0.552,0-1-0.447-1-1S23.948,3,24.5,3z
		 M17.5,3h4c0.552,0,1,0.447,1,1s-0.448,1-1,1h-4c-0.552,0-1-0.447-1-1S16.948,3,17.5,3z M21.5,57c-2.206,0-4-1.794-4-4s1.794-4,4-4
		s4,1.794,4,4S23.706,57,21.5,57z"/>
</g>
<g>
</g>
<g>
</g>
<g>
</g>
<g>
</g>
<g>
</g>
<g>
</g>
<g>
</g>
<g>
</g>
<g>
</g>
<g>
</g>
<g>
</g>
<g>
</g>
<g>
</g>
<g>
</g>
<g>
</g>
</svg>
