<?xml version="1.0" encoding="iso-8859-1"?>
<!-- Generator: Adobe Illustrator 18.0.0, SVG Export Plug-In . SVG Version: 6.00 Build 0)  -->
<!DOCTYPE svg PUBLIC "-//W3C//DTD SVG 1.1//EN" "http://www.w3.org/Graphics/SVG/1.1/DTD/svg11.dtd">
<svg version="1.1" id="Capa_1" xmlns="http://www.w3.org/2000/svg" xmlns:xlink="http://www.w3.org/1999/xlink" x="0px" y="0px"
	 viewBox="0 0 60 60" style="enable-background:new 0 0 60 60;" xml:space="preserve">
<g>
	<path d="M51,39v-1c0-3.859-3.14-7-7-7s-7,3.141-7,7v1h-4v18h22V39H51z M39,38c0-2.757,2.243-5,5-5s5,2.243,5,5v1H39V38z M53,55H35
		V41h2h14h2V55z"/>
	<path d="M44,44c-2.206,0-4,1.794-4,4c0,1.859,1.28,3.411,3,3.858V53c0,0.553,0.448,1,1,1s1-0.447,1-1v-1.142
		c1.72-0.447,3-1.999,3-3.858C48,45.794,46.206,44,44,44z M44,50c-1.103,0-2-0.897-2-2s0.897-2,2-2s2,0.897,2,2S45.103,50,44,50z"/>
	<circle cx="22" cy="53" r="2"/>
	<path d="M7,8h30v21c1.687,0,0.562,0,2,0V4.405C39,1.977,37.024,0,34.595,0H9.405C6.976,0,5,1.977,5,4.405v51.189
		C5,58.023,6.976,60,9.405,60H30V46H7V8z M25,3h1c0.552,0,1,0.447,1,1s-0.448,1-1,1h-1c-0.552,0-1-0.447-1-1S24.448,3,25,3z M18,3h4
		c0.552,0,1,0.447,1,1s-0.448,1-1,1h-4c-0.552,0-1-0.447-1-1S17.448,3,18,3z M22,49c2.206,0,4,1.794,4,4s-1.794,4-4,4s-4-1.794-4-4
		S19.794,49,22,49z"/>
</g>
<g>
</g>
<g>
</g>
<g>
</g>
<g>
</g>
<g>
</g>
<g>
</g>
<g>
</g>
<g>
</g>
<g>
</g>
<g>
</g>
<g>
</g>
<g>
</g>
<g>
</g>
<g>
</g>
<g>
</g>
</svg>
