<?xml version="1.0" encoding="iso-8859-1"?>
<!-- Generator: Adobe Illustrator 18.0.0, SVG Export Plug-In . SVG Version: 6.00 Build 0)  -->
<!DOCTYPE svg PUBLIC "-//W3C//DTD SVG 1.1//EN" "http://www.w3.org/Graphics/SVG/1.1/DTD/svg11.dtd">
<svg version="1.1" id="Capa_1" xmlns="http://www.w3.org/2000/svg" xmlns:xlink="http://www.w3.org/1999/xlink" x="0px" y="0px"
	 viewBox="0 0 60 60" style="enable-background:new 0 0 60 60;" xml:space="preserve">
<g>
	<path d="M54.761,34.724l-2.85-2.851c-1.126-1.125-3.092-1.126-4.221,0.001L32.299,47.265l-2.122,7.779l-0.519,0.519
		c-0.388,0.388-0.389,1.014-0.006,1.405l-0.005,0.02l0.019-0.005c0.194,0.19,0.446,0.288,0.699,0.288
		c0.256,0,0.512-0.098,0.707-0.293l0.52-0.52l7.778-2.121l15.391-15.391C55.925,37.781,55.925,35.888,54.761,34.724z M34.609,47.784
		l10.242-10.242l4.243,4.242L38.851,52.027L34.609,47.784z M33.706,49.71l3.22,3.22l-4.428,1.208L33.706,49.71z M53.347,37.531
		l-2.839,2.839l-4.243-4.242l2.839-2.839c0.373-0.373,1.022-0.372,1.394-0.001l2.849,2.85
		C53.731,36.521,53.731,37.147,53.347,37.531z"/>
	<circle cx="21.366" cy="53" r="2"/>
	<path d="M6.366,46V8h30v29h2V4.405C38.366,1.977,36.39,0,33.961,0H8.771C6.342,0,4.366,1.977,4.366,4.405v51.189
		C4.366,58.023,6.342,60,8.771,60h16.945l3.819-14H6.366z M24.366,3h1c0.552,0,1,0.447,1,1s-0.448,1-1,1h-1c-0.552,0-1-0.447-1-1
		S23.814,3,24.366,3z M17.366,3h4c0.552,0,1,0.447,1,1s-0.448,1-1,1h-4c-0.552,0-1-0.447-1-1S16.814,3,17.366,3z M21.366,57
		c-2.206,0-4-1.794-4-4s1.794-4,4-4s4,1.794,4,4S23.571,57,21.366,57z"/>
</g>
<g>
</g>
<g>
</g>
<g>
</g>
<g>
</g>
<g>
</g>
<g>
</g>
<g>
</g>
<g>
</g>
<g>
</g>
<g>
</g>
<g>
</g>
<g>
</g>
<g>
</g>
<g>
</g>
<g>
</g>
</svg>
