<?xml version="1.0" encoding="iso-8859-1"?>
<!-- Generator: Adobe Illustrator 18.0.0, SVG Export Plug-In . SVG Version: 6.00 Build 0)  -->
<!DOCTYPE svg PUBLIC "-//W3C//DTD SVG 1.1//EN" "http://www.w3.org/Graphics/SVG/1.1/DTD/svg11.dtd">
<svg version="1.1" id="Capa_1" xmlns="http://www.w3.org/2000/svg" xmlns:xlink="http://www.w3.org/1999/xlink" x="0px" y="0px"
	 viewBox="0 0 60 60" style="enable-background:new 0 0 60 60;" xml:space="preserve">
<g>
	<path d="M52.985,54.293l-6.798-6.797l6.483-3.242l-17.637-6.498l6.498,17.638l3.242-6.484l6.797,6.797
		C51.767,55.902,52.022,56,52.278,56s0.512-0.098,0.707-0.293C53.376,55.316,53.376,54.684,52.985,54.293z M38.409,41.131
		l9.232,3.402l-3.887,1.943l-1.943,3.888L38.409,41.131z"/>
	<circle cx="23.722" cy="53" r="2"/>
	<path d="M8.722,46V8h30v27.917l2,0.737V4.405C40.722,1.977,38.746,0,36.316,0H11.127C8.698,0,6.722,1.977,6.722,4.405v51.189
		c0,2.429,1.976,4.405,4.405,4.405h25.189c1.264,0,2.397-0.542,3.201-1.397L34.874,46H8.722z M26.722,3h1c0.552,0,1,0.447,1,1
		s-0.448,1-1,1h-1c-0.552,0-1-0.447-1-1S26.169,3,26.722,3z M19.722,3h4c0.552,0,1,0.447,1,1s-0.448,1-1,1h-4c-0.552,0-1-0.447-1-1
		S19.169,3,19.722,3z M23.722,57c-2.206,0-4-1.794-4-4s1.794-4,4-4s4,1.794,4,4S25.927,57,23.722,57z"/>
</g>
<g>
</g>
<g>
</g>
<g>
</g>
<g>
</g>
<g>
</g>
<g>
</g>
<g>
</g>
<g>
</g>
<g>
</g>
<g>
</g>
<g>
</g>
<g>
</g>
<g>
</g>
<g>
</g>
<g>
</g>
</svg>
