<?xml version="1.0" encoding="iso-8859-1"?>
<!-- Generator: Adobe Illustrator 18.0.0, SVG Export Plug-In . SVG Version: 6.00 Build 0)  -->
<!DOCTYPE svg PUBLIC "-//W3C//DTD SVG 1.1//EN" "http://www.w3.org/Graphics/SVG/1.1/DTD/svg11.dtd">
<svg version="1.1" id="Capa_1" xmlns="http://www.w3.org/2000/svg" xmlns:xlink="http://www.w3.org/1999/xlink" x="0px" y="0px"
	 viewBox="0 0 60 60" style="enable-background:new 0 0 60 60;" xml:space="preserve">
<g>
	<path d="M55.378,44.104c-0.116-0.367-0.434-0.634-0.814-0.688l-7.777-1.089l-3.472-6.78c-0.342-0.668-1.438-0.668-1.779,0
		l-3.472,6.78l-7.777,1.089c-0.381,0.054-0.698,0.32-0.814,0.688s-0.012,0.768,0.269,1.031l5.605,5.267l-1.322,7.427
		c-0.066,0.373,0.084,0.751,0.388,0.978c0.305,0.227,0.712,0.263,1.049,0.089l6.965-3.528l6.964,3.528
		c0.143,0.073,0.298,0.108,0.452,0.108c0.211,0,0.421-0.066,0.597-0.197c0.304-0.226,0.454-0.604,0.388-0.978l-1.321-7.427
		l5.605-5.267C55.39,44.872,55.494,44.472,55.378,44.104z M47.74,49.315c-0.246,0.231-0.359,0.571-0.3,0.903l1.064,5.987
		l-5.628-2.852c-0.285-0.145-0.619-0.145-0.904,0l-5.629,2.852l1.065-5.987c0.06-0.332-0.054-0.672-0.3-0.903l-4.479-4.207
		l6.225-0.872c0.322-0.045,0.603-0.244,0.751-0.534l2.818-5.504l2.818,5.504c0.148,0.29,0.429,0.489,0.751,0.534l6.225,0.872
		L47.74,49.315z"/>
	<circle cx="21.575" cy="53" r="2"/>
	<path d="M6.575,46V8h30v27h2V4.405C38.575,1.977,36.599,0,34.17,0H8.981C6.551,0,4.575,1.977,4.575,4.405v51.189
		C4.575,58.023,6.551,60,8.981,60h21.61l1.517-8.523L26.279,46H6.575z M24.575,3h1c0.552,0,1,0.447,1,1s-0.448,1-1,1h-1
		c-0.552,0-1-0.447-1-1S24.023,3,24.575,3z M17.575,3h4c0.552,0,1,0.447,1,1s-0.448,1-1,1h-4c-0.552,0-1-0.447-1-1
		S17.023,3,17.575,3z M21.575,57c-2.206,0-4-1.794-4-4s1.794-4,4-4s4,1.794,4,4S23.781,57,21.575,57z"/>
</g>
<g>
</g>
<g>
</g>
<g>
</g>
<g>
</g>
<g>
</g>
<g>
</g>
<g>
</g>
<g>
</g>
<g>
</g>
<g>
</g>
<g>
</g>
<g>
</g>
<g>
</g>
<g>
</g>
<g>
</g>
</svg>
