<?xml version="1.0" encoding="iso-8859-1"?>
<!-- Generator: Adobe Illustrator 18.0.0, SVG Export Plug-In . SVG Version: 6.00 Build 0)  -->
<!DOCTYPE svg PUBLIC "-//W3C//DTD SVG 1.1//EN" "http://www.w3.org/Graphics/SVG/1.1/DTD/svg11.dtd">
<svg version="1.1" id="Capa_1" xmlns="http://www.w3.org/2000/svg" xmlns:xlink="http://www.w3.org/1999/xlink" x="0px" y="0px"
	 viewBox="0 0 60 60" style="enable-background:new 0 0 60 60;" xml:space="preserve">
<g>
	<path d="M54.648,57.479l-5.969-6.243c1.745-1.918,2.82-4.458,2.82-7.25c0-5.953-4.843-10.796-10.796-10.796
		s-10.796,4.843-10.796,10.796s4.843,10.796,10.796,10.796c2.442,0,4.689-0.824,6.5-2.196l6,6.276
		c0.196,0.205,0.459,0.309,0.723,0.309c0.249,0,0.497-0.092,0.691-0.277C55.015,58.511,55.029,57.878,54.648,57.479z M31.906,43.985
		c0-4.85,3.946-8.796,8.796-8.796s8.796,3.946,8.796,8.796s-3.946,8.796-8.796,8.796S31.906,48.835,31.906,43.985z"/>
	<circle cx="22.075" cy="53" r="2"/>
	<path d="M27.07,46H7.075V8h30v22c0.833,0,1.25,0,2,0V4.405C39.075,1.977,37.099,0,34.67,0H9.481C7.051,0,5.075,1.977,5.075,4.405
		v51.189C5.075,58.023,7.051,60,9.481,60H34.67c1.704,0,3.167-0.982,3.9-2.401C32.632,56.672,27.948,51.955,27.07,46z M25.075,3h1
		c0.552,0,1,0.447,1,1s-0.448,1-1,1h-1c-0.552,0-1-0.447-1-1S24.523,3,25.075,3z M18.075,3h4c0.552,0,1,0.447,1,1s-0.448,1-1,1h-4
		c-0.552,0-1-0.447-1-1S17.523,3,18.075,3z M22.075,57c-2.206,0-4-1.794-4-4s1.794-4,4-4s4,1.794,4,4S24.281,57,22.075,57z"/>
</g>
<g>
</g>
<g>
</g>
<g>
</g>
<g>
</g>
<g>
</g>
<g>
</g>
<g>
</g>
<g>
</g>
<g>
</g>
<g>
</g>
<g>
</g>
<g>
</g>
<g>
</g>
<g>
</g>
<g>
</g>
</svg>
