<?xml version="1.0" encoding="iso-8859-1"?>
<!-- Generator: Adobe Illustrator 18.0.0, SVG Export Plug-In . SVG Version: 6.00 Build 0)  -->
<!DOCTYPE svg PUBLIC "-//W3C//DTD SVG 1.1//EN" "http://www.w3.org/Graphics/SVG/1.1/DTD/svg11.dtd">
<svg version="1.1" id="Capa_1" xmlns="http://www.w3.org/2000/svg" xmlns:xlink="http://www.w3.org/1999/xlink" x="0px" y="0px"
	 viewBox="0 0 60 60" style="enable-background:new 0 0 60 60;" xml:space="preserve">
<g>
	<path d="M54.699,45.02c-0.549-0.102-1.069,0.241-1.18,0.781C52.403,51.303,48.074,55,42.749,55c-5.028,0-9.446-3.3-10.948-8H36.5
		v-2h-8v8h2v-3.849C32.669,53.833,37.415,57,42.749,57c6.304,0,11.42-4.341,12.731-10.801C55.59,45.657,55.24,45.13,54.699,45.02z"
		/>
	<path d="M54.5,33v4.309C52.25,32.854,47.796,30,42.749,30c-6.109,0-11.541,3.997-13.209,9.721c-0.154,0.53,0.15,1.085,0.681,1.239
		c0.531,0.157,1.086-0.15,1.239-0.681C32.858,35.482,37.605,32,42.749,32c4.565,0,8.562,2.766,10.33,7H48.5v2h8v-8H54.5z"/>
	<circle cx="20.5" cy="53" r="2"/>
	<path d="M23.995,46H5.5V8h30v17.753c0.65-0.201,1.32-0.35,2-0.472V4.405C37.5,1.977,35.524,0,33.095,0H7.905
		C5.476,0,3.5,1.977,3.5,4.405v51.189C3.5,58.023,5.476,60,7.905,60h25.189c1.321,0,2.495-0.597,3.303-1.521
		C30.285,56.956,25.481,52.127,23.995,46z M23.5,3h1c0.552,0,1,0.447,1,1s-0.448,1-1,1h-1c-0.552,0-1-0.447-1-1S22.948,3,23.5,3z
		 M16.5,3h4c0.552,0,1,0.447,1,1s-0.448,1-1,1h-4c-0.552,0-1-0.447-1-1S15.948,3,16.5,3z M20.5,57c-2.206,0-4-1.794-4-4s1.794-4,4-4
		s4,1.794,4,4S22.706,57,20.5,57z"/>
</g>
<g>
</g>
<g>
</g>
<g>
</g>
<g>
</g>
<g>
</g>
<g>
</g>
<g>
</g>
<g>
</g>
<g>
</g>
<g>
</g>
<g>
</g>
<g>
</g>
<g>
</g>
<g>
</g>
<g>
</g>
</svg>
