<?xml version="1.0" encoding="iso-8859-1"?>
<!-- Generator: Adobe Illustrator 18.0.0, SVG Export Plug-In . SVG Version: 6.00 Build 0)  -->
<!DOCTYPE svg PUBLIC "-//W3C//DTD SVG 1.1//EN" "http://www.w3.org/Graphics/SVG/1.1/DTD/svg11.dtd">
<svg version="1.1" id="Capa_1" xmlns="http://www.w3.org/2000/svg" xmlns:xlink="http://www.w3.org/1999/xlink" x="0px" y="0px"
	 viewBox="0 0 60 60" style="enable-background:new 0 0 60 60;" xml:space="preserve">
<g>
	<path d="M56.199,40.02c-0.547-0.105-1.069,0.24-1.18,0.781C53.903,46.303,49.574,50,44.249,50c-5.028,0-9.446-3.3-10.948-8H38v-2
		h-8v8h2v-3.849C34.169,48.833,38.915,52,44.249,52c6.304,0,11.42-4.341,12.731-10.801C57.09,40.657,56.74,40.13,56.199,40.02z"/>
	<path d="M56,32.309C53.75,27.854,49.296,25,44.249,25c-6.109,0-11.541,3.997-13.209,9.721c-0.154,0.53,0.15,1.085,0.681,1.239
		s1.085-0.15,1.239-0.681C34.358,30.482,39.105,27,44.249,27c4.565,0,8.562,2.766,10.33,7H51v2h7v-7h-2V32.309z"/>
	<path d="M42,0H18C8.075,0,0,8.068,0,17.985v14c0,9.59,7.538,17.452,17,17.973v8.344C17,59.238,17.764,60,18.703,60
		c0.449,0,0.873-0.177,1.195-0.498l1.876-1.877c2.833-2.833,6.224-4.932,9.959-6.209C28.221,48.212,26,43.616,26,38.5
		C26,28.851,33.851,21,43.5,21c7.588,0,14.044,4.863,16.465,11.629C59.973,32.414,60,32.202,60,31.985v-14C60,8.068,51.925,0,42,0z"
		/>
</g>
<g>
</g>
<g>
</g>
<g>
</g>
<g>
</g>
<g>
</g>
<g>
</g>
<g>
</g>
<g>
</g>
<g>
</g>
<g>
</g>
<g>
</g>
<g>
</g>
<g>
</g>
<g>
</g>
<g>
</g>
</svg>
