<?xml version="1.0" encoding="iso-8859-1"?>
<!-- Generator: Adobe Illustrator 18.0.0, SVG Export Plug-In . SVG Version: 6.00 Build 0)  -->
<!DOCTYPE svg PUBLIC "-//W3C//DTD SVG 1.1//EN" "http://www.w3.org/Graphics/SVG/1.1/DTD/svg11.dtd">
<svg version="1.1" id="Capa_1" xmlns="http://www.w3.org/2000/svg" xmlns:xlink="http://www.w3.org/1999/xlink" x="0px" y="0px"
	 viewBox="0 0 60 60" style="enable-background:new 0 0 60 60;" xml:space="preserve">
<g>
	<path d="M33,57h24V33H33V57z M35,35h20v20h-9V42.414l4.293,4.293l1.414-1.414L45,38.586l-6.707,6.707l1.414,1.414L44,42.414V55h-9
		V35z"/>
	<path d="M42,0H18C8.075,0,0,8.068,0,17.985v14c0,9.59,7.538,17.452,17,17.973v8.344C17,59.238,17.764,60,18.703,60
		c0.449,0,0.873-0.177,1.195-0.498l1.876-1.877c2.388-2.388,5.173-4.257,8.226-5.552V30h30V17.985C60,8.068,51.925,0,42,0z"/>
</g>
<g>
</g>
<g>
</g>
<g>
</g>
<g>
</g>
<g>
</g>
<g>
</g>
<g>
</g>
<g>
</g>
<g>
</g>
<g>
</g>
<g>
</g>
<g>
</g>
<g>
</g>
<g>
</g>
<g>
</g>
</svg>
