<?xml version="1.0" encoding="iso-8859-1"?>
<!-- Generator: Adobe Illustrator 18.0.0, SVG Export Plug-In . SVG Version: 6.00 Build 0)  -->
<!DOCTYPE svg PUBLIC "-//W3C//DTD SVG 1.1//EN" "http://www.w3.org/Graphics/SVG/1.1/DTD/svg11.dtd">
<svg version="1.1" id="Capa_1" xmlns="http://www.w3.org/2000/svg" xmlns:xlink="http://www.w3.org/1999/xlink" x="0px" y="0px"
	 viewBox="0 0 60 60" style="enable-background:new 0 0 60 60;" xml:space="preserve">
<g>
	<path d="M51.972,47.765l6.484-3.242l-17.638-6.498l6.498,17.638l3.242-6.484l6.797,6.797c0.195,0.195,0.451,0.293,0.707,0.293
		s0.512-0.098,0.707-0.293c0.391-0.391,0.391-1.023,0-1.414L51.972,47.765z M44.193,41.4l9.233,3.402l-3.888,1.943l-1.943,3.888
		L44.193,41.4z"/>
	<path d="M42,0H18C8.075,0,0,8.068,0,17.985v14c0,9.59,7.538,17.452,17,17.973v8.344C17,59.238,17.764,60,18.703,60
		c0.449,0,0.873-0.177,1.195-0.498l1.876-1.877c3.876-3.876,8.792-6.396,14.214-7.288l1.218-0.2l4.202-1.833l-5.652-15.34
		l21.883,8.062l0.702-1.523c1.101-2.39,1.66-4.919,1.66-7.517v-14C60,8.068,51.925,0,42,0z"/>
</g>
<g>
</g>
<g>
</g>
<g>
</g>
<g>
</g>
<g>
</g>
<g>
</g>
<g>
</g>
<g>
</g>
<g>
</g>
<g>
</g>
<g>
</g>
<g>
</g>
<g>
</g>
<g>
</g>
<g>
</g>
</svg>
