<?xml version="1.0" encoding="iso-8859-1"?>
<!-- Generator: Adobe Illustrator 18.0.0, SVG Export Plug-In . SVG Version: 6.00 Build 0)  -->
<!DOCTYPE svg PUBLIC "-//W3C//DTD SVG 1.1//EN" "http://www.w3.org/Graphics/SVG/1.1/DTD/svg11.dtd">
<svg version="1.1" id="Capa_1" xmlns="http://www.w3.org/2000/svg" xmlns:xlink="http://www.w3.org/1999/xlink" x="0px" y="0px"
	 viewBox="0 0 60 60" style="enable-background:new 0 0 60 60;" xml:space="preserve">
<g>
	<path d="M34,60h24V36H34V60z M36,38h9v12.586l-4.293-4.293l-1.414,1.414L46,54.414l6.707-6.707l-1.414-1.414L47,50.586V38h9v20H36
		V38z"/>
	<path d="M33.53,28.553l-12.944-9.363c-0.396-0.286-0.945-0.242-1.293,0.104c-0.348,0.348-0.391,0.896-0.104,1.293l9.365,12.946
		C29.223,34.451,30.301,35,31.438,35c0.95,0,1.845-0.371,2.518-1.044c0.737-0.737,1.114-1.756,1.033-2.797
		S34.377,29.169,33.53,28.553z"/>
	<path d="M30,0c-0.553,0-1,0.447-1,1v13.292c0,0.553,0.447,1,1,1s1-0.447,1-1V2.018C45.979,2.546,58,14.896,58,30
		c0,1.014-0.057,2.014-0.163,3h2.013c0.098-0.987,0.15-1.987,0.15-3C60,13.458,46.542,0,30,0z"/>
	<path d="M2,30c0-7.46,2.9-14.479,8.166-19.764c0.391-0.392,0.389-1.024-0.002-1.414C9.772,8.434,9.14,8.434,8.75,8.824
		C3.107,14.486,0,22.007,0,30c0,16.542,13.458,30,30,30c0.335,0,0.667-0.015,1-0.025v-2C30.667,57.986,30.335,58,30,58
		C14.561,58,2,45.439,2,30z"/>
</g>
<g>
</g>
<g>
</g>
<g>
</g>
<g>
</g>
<g>
</g>
<g>
</g>
<g>
</g>
<g>
</g>
<g>
</g>
<g>
</g>
<g>
</g>
<g>
</g>
<g>
</g>
<g>
</g>
<g>
</g>
</svg>
