<?xml version="1.0" encoding="iso-8859-1"?>
<!-- Generator: Adobe Illustrator 18.0.0, SVG Export Plug-In . SVG Version: 6.00 Build 0)  -->
<!DOCTYPE svg PUBLIC "-//W3C//DTD SVG 1.1//EN" "http://www.w3.org/Graphics/SVG/1.1/DTD/svg11.dtd">
<svg version="1.1" id="Capa_1" xmlns="http://www.w3.org/2000/svg" xmlns:xlink="http://www.w3.org/1999/xlink" x="0px" y="0px"
	 viewBox="0 0 60 60" style="enable-background:new 0 0 60 60;" xml:space="preserve">
<g>
	<path d="M55.139,43.417l-7.777-1.089l-3.472-6.78c-0.342-0.668-1.438-0.668-1.779,0l-3.472,6.78l-7.777,1.089
		c-0.381,0.054-0.698,0.32-0.814,0.688s-0.012,0.768,0.269,1.031l5.605,5.267L34.6,57.829c-0.066,0.373,0.084,0.752,0.388,0.978
		c0.304,0.227,0.712,0.262,1.049,0.089L43,55.367l6.964,3.528c0.143,0.073,0.298,0.108,0.452,0.108c0.211,0,0.421-0.066,0.597-0.197
		c0.304-0.226,0.454-0.604,0.388-0.978l-1.321-7.427l5.605-5.267c0.28-0.264,0.385-0.664,0.269-1.031S55.52,43.471,55.139,43.417z
		 M48.315,49.315c-0.246,0.231-0.359,0.571-0.3,0.903l1.064,5.987l-5.628-2.852c-0.143-0.072-0.297-0.108-0.452-0.108
		s-0.31,0.036-0.452,0.108l-5.628,2.852l1.064-5.987c0.06-0.332-0.054-0.672-0.3-0.903l-4.479-4.207l6.225-0.872
		c0.322-0.045,0.603-0.244,0.751-0.534L43,38.198l2.818,5.504c0.148,0.29,0.429,0.489,0.751,0.534l6.225,0.872L48.315,49.315z"/>
	<path d="M28.555,33.532C29.223,34.451,30.301,35,31.438,35c0.95,0,1.845-0.371,2.518-1.044c0.737-0.737,1.114-1.756,1.033-2.797
		s-0.612-1.99-1.459-2.606l-12.944-9.363c-0.396-0.286-0.945-0.242-1.293,0.104c-0.348,0.348-0.391,0.896-0.104,1.293L28.555,33.532
		z"/>
	<path d="M30,0c-0.553,0-1,0.447-1,1v13.292c0,0.553,0.447,1,1,1s1-0.447,1-1V2.018C45.979,2.546,58,14.896,58,30
		c0,3.713-0.733,7.256-2.051,10.501l2.037,0.285C59.282,37.437,60,33.802,60,30C60,13.458,46.542,0,30,0z"/>
	<path d="M2,30c0-7.46,2.9-14.479,8.166-19.764c0.391-0.392,0.389-1.024-0.002-1.414C9.772,8.434,9.14,8.434,8.75,8.824
		C3.107,14.486,0,22.007,0,30c0,16.542,13.458,30,30,30c0.393,0,0.782-0.015,1.171-0.03l0.358-2.014C31.023,57.984,30.513,58,30,58
		C14.561,58,2,45.439,2,30z"/>
</g>
<g>
</g>
<g>
</g>
<g>
</g>
<g>
</g>
<g>
</g>
<g>
</g>
<g>
</g>
<g>
</g>
<g>
</g>
<g>
</g>
<g>
</g>
<g>
</g>
<g>
</g>
<g>
</g>
<g>
</g>
</svg>
