<?xml version="1.0" encoding="iso-8859-1"?>
<!-- Generator: Adobe Illustrator 18.0.0, SVG Export Plug-In . SVG Version: 6.00 Build 0)  -->
<!DOCTYPE svg PUBLIC "-//W3C//DTD SVG 1.1//EN" "http://www.w3.org/Graphics/SVG/1.1/DTD/svg11.dtd">
<svg version="1.1" id="Capa_1" xmlns="http://www.w3.org/2000/svg" xmlns:xlink="http://www.w3.org/1999/xlink" x="0px" y="0px"
	 viewBox="0 0 60 60" style="enable-background:new 0 0 60 60;" xml:space="preserve">
<g>
	<path d="M52,41c0-3.859-3.14-7-7-7s-7,3.141-7,7v1h-4v18h22V42h-4V41z M40,41c0-2.757,2.243-5,5-5s5,2.243,5,5v1H40V41z M54,44v14
		H36V44h2h14H54z"/>
	<path d="M44,54.858V56c0,0.553,0.448,1,1,1s1-0.447,1-1v-1.142c1.72-0.447,3-1.999,3-3.858c0-2.206-1.794-4-4-4s-4,1.794-4,4
		C41,52.859,42.28,54.411,44,54.858z M45,49c1.103,0,2,0.897,2,2s-0.897,2-2,2s-2-0.897-2-2S43.897,49,45,49z"/>
	<path d="M33.53,28.553l-12.944-9.363c-0.396-0.286-0.945-0.242-1.293,0.104c-0.348,0.348-0.391,0.896-0.104,1.293l9.365,12.946
		C29.223,34.451,30.301,35,31.438,35c0.95,0,1.845-0.371,2.518-1.044c0.737-0.737,1.114-1.756,1.033-2.797
		S34.377,29.169,33.53,28.553z"/>
	<path d="M30,0c-0.553,0-1,0.447-1,1v13.292c0,0.553,0.447,1,1,1s1-0.447,1-1V2.018C45.979,2.546,58,14.896,58,30
		c0,3.148-0.53,6.173-1.492,9h2.111C59.515,36.157,60,33.135,60,30C60,13.458,46.542,0,30,0z"/>
	<path d="M2,30c0-7.46,2.9-14.479,8.166-19.764c0.391-0.392,0.389-1.024-0.002-1.414C9.772,8.434,9.14,8.434,8.75,8.824
		C3.107,14.486,0,22.007,0,30c0,16.542,13.458,30,30,30c0.335,0,0.667-0.015,1-0.025v-2C30.667,57.986,30.335,58,30,58
		C14.561,58,2,45.439,2,30z"/>
</g>
<g>
</g>
<g>
</g>
<g>
</g>
<g>
</g>
<g>
</g>
<g>
</g>
<g>
</g>
<g>
</g>
<g>
</g>
<g>
</g>
<g>
</g>
<g>
</g>
<g>
</g>
<g>
</g>
<g>
</g>
</svg>
