<?xml version="1.0" encoding="iso-8859-1"?>
<!-- Generator: Adobe Illustrator 18.0.0, SVG Export Plug-In . SVG Version: 6.00 Build 0)  -->
<!DOCTYPE svg PUBLIC "-//W3C//DTD SVG 1.1//EN" "http://www.w3.org/Graphics/SVG/1.1/DTD/svg11.dtd">
<svg version="1.1" id="Capa_1" xmlns="http://www.w3.org/2000/svg" xmlns:xlink="http://www.w3.org/1999/xlink" x="0px" y="0px"
	 viewBox="0 0 60 60" style="enable-background:new 0 0 60 60;" xml:space="preserve">
<g>
	<path d="M48.684,36.058c-2.396,0-4.407,1.449-5.684,3.213c-1.276-1.764-3.288-3.213-5.684-3.213c-3.819,0-6.871,2.963-7.271,7.052
		c-0.042,0.268-0.144,1.22,0.226,2.709c0.546,2.197,1.801,4.192,3.631,5.77l8.329,7.127C42.445,58.898,42.719,59,43,59
		s0.555-0.102,0.769-0.284l8.331-7.129c1.828-1.575,3.083-3.57,3.629-5.768c0.37-1.49,0.268-2.443,0.226-2.71
		C55.555,39.021,52.502,36.058,48.684,36.058z M53.787,45.337c-0.445,1.794-1.479,3.432-2.99,4.732L43,56.741l-7.795-6.671
		c-1.513-1.303-2.547-2.94-2.992-4.734c-0.302-1.213-0.194-1.897-0.194-1.897l0.016-0.105c0.245-2.621,2.138-5.275,5.282-5.275
		c2.189,0,3.974,1.811,4.77,3.605L43,43.724l0.914-2.061c0.796-1.795,2.58-3.605,4.77-3.605c3.145,0,5.037,2.654,5.295,5.366
		C53.98,43.431,54.091,44.115,53.787,45.337z"/>
	<path d="M28.555,33.532C29.223,34.451,30.301,35,31.438,35c0.95,0,1.845-0.371,2.518-1.044c0.737-0.737,1.114-1.756,1.033-2.797
		s-0.612-1.99-1.459-2.606l-12.944-9.363c-0.396-0.286-0.945-0.242-1.293,0.104c-0.348,0.348-0.391,0.896-0.104,1.293L28.555,33.532
		z"/>
	<path d="M30,0c-0.553,0-1,0.447-1,1v13.292c0,0.553,0.447,1,1,1s1-0.447,1-1V2.018C45.979,2.546,58,14.896,58,30
		c0,2.619-0.369,5.151-1.045,7.557c0.533,0.755,0.977,1.586,1.312,2.48C59.386,36.896,60,33.52,60,30C60,13.458,46.542,0,30,0z"/>
	<path d="M30,58C14.561,58,2,45.439,2,30c0-7.46,2.9-14.479,8.166-19.764c0.391-0.392,0.389-1.024-0.002-1.414
		C9.772,8.434,9.14,8.434,8.75,8.824C3.107,14.486,0,22.007,0,30c0,16.542,13.458,30,30,30c2.691,0,5.299-0.362,7.782-1.03
		l-1.873-1.603C34.003,57.778,32.027,58,30,58z"/>
</g>
<g>
</g>
<g>
</g>
<g>
</g>
<g>
</g>
<g>
</g>
<g>
</g>
<g>
</g>
<g>
</g>
<g>
</g>
<g>
</g>
<g>
</g>
<g>
</g>
<g>
</g>
<g>
</g>
<g>
</g>
</svg>
