<?xml version="1.0" encoding="iso-8859-1"?>
<!-- Generator: Adobe Illustrator 18.0.0, SVG Export Plug-In . SVG Version: 6.00 Build 0)  -->
<!DOCTYPE svg PUBLIC "-//W3C//DTD SVG 1.1//EN" "http://www.w3.org/Graphics/SVG/1.1/DTD/svg11.dtd">
<svg version="1.1" id="Capa_1" xmlns="http://www.w3.org/2000/svg" xmlns:xlink="http://www.w3.org/1999/xlink" x="0px" y="0px"
	 viewBox="0 0 60 60" style="enable-background:new 0 0 60 60;" xml:space="preserve">
<g>
	<path d="M45,36c-6.617,0-12,5.383-12,12s5.383,12,12,12s12-5.383,12-12S51.617,36,45,36z M45,58c-5.514,0-10-4.486-10-10
		s4.486-10,10-10s10,4.486,10,10S50.514,58,45,58z"/>
	<path d="M51,47h-5v-5c0-0.553-0.447-1-1-1s-1,0.447-1,1v6c0,0.553,0.447,1,1,1h6c0.553,0,1-0.447,1-1S51.553,47,51,47z"/>
	<path d="M28.555,33.532C29.223,34.451,30.301,35,31.438,35c0.95,0,1.845-0.371,2.518-1.044c0.737-0.737,1.114-1.756,1.033-2.797
		s-0.612-1.99-1.459-2.606l-12.944-9.363c-0.396-0.286-0.945-0.242-1.293,0.104c-0.348,0.348-0.391,0.896-0.104,1.293L28.555,33.532
		z"/>
	<path d="M30,0c-0.553,0-1,0.447-1,1v13.292c0,0.553,0.447,1,1,1s1-0.447,1-1V2.018C45.979,2.546,58,14.896,58,30
		c0,2.99-0.476,5.87-1.348,8.573c0.521,0.643,0.986,1.331,1.396,2.055C59.306,37.322,60,33.742,60,30C60,13.458,46.542,0,30,0z"/>
	<path d="M33.63,57.757C32.441,57.912,31.231,58,30,58C14.561,58,2,45.439,2,30c0-7.46,2.9-14.479,8.166-19.764
		c0.391-0.392,0.389-1.024-0.002-1.414C9.772,8.434,9.14,8.434,8.75,8.824C3.107,14.486,0,22.007,0,30c0,16.542,13.458,30,30,30
		c1.841,0,3.641-0.176,5.392-0.495C34.756,58.973,34.17,58.385,33.63,57.757z"/>
</g>
<g>
</g>
<g>
</g>
<g>
</g>
<g>
</g>
<g>
</g>
<g>
</g>
<g>
</g>
<g>
</g>
<g>
</g>
<g>
</g>
<g>
</g>
<g>
</g>
<g>
</g>
<g>
</g>
<g>
</g>
</svg>
