<?xml version="1.0" encoding="iso-8859-1"?>
<!-- Generator: Adobe Illustrator 18.0.0, SVG Export Plug-In . SVG Version: 6.00 Build 0)  -->
<!DOCTYPE svg PUBLIC "-//W3C//DTD SVG 1.1//EN" "http://www.w3.org/Graphics/SVG/1.1/DTD/svg11.dtd">
<svg version="1.1" id="Capa_1" xmlns="http://www.w3.org/2000/svg" xmlns:xlink="http://www.w3.org/1999/xlink" x="0px" y="0px"
	 viewBox="0 0 60 60" style="enable-background:new 0 0 60 60;" xml:space="preserve">
<g>
	<path d="M45.018,35.407c-0.406-0.695-1.128-1.109-1.933-1.109c-0.805,0-1.527,0.414-1.933,1.109L29.307,55.713
		c-0.409,0.7-0.412,1.539-0.008,2.242c0.404,0.703,1.129,1.123,1.94,1.123h23.69c0.812,0,1.537-0.42,1.94-1.123
		c0.404-0.703,0.401-1.542-0.007-2.242L45.018,35.407z M55.137,56.959c-0.031,0.055-0.093,0.119-0.207,0.119h-23.69
		c-0.114,0-0.175-0.064-0.206-0.119s-0.056-0.14,0.001-0.238l11.845-20.307c0.057-0.098,0.143-0.117,0.206-0.117
		c0.062,0,0.148,0.02,0.205,0.117l11.846,20.307C55.192,56.82,55.168,56.905,55.137,56.959z"/>
	<path d="M43.169,51.079c0.552,0,1-0.447,1-1v-8c0-0.553-0.448-1-1-1s-1,0.447-1,1v8C42.169,50.631,42.617,51.079,43.169,51.079z"/>
	<path d="M42.47,53.365c-0.2,0.189-0.3,0.439-0.3,0.71c0,0.27,0.11,0.529,0.29,0.71c0.19,0.189,0.45,0.3,0.71,0.3
		c0.26,0,0.52-0.11,0.71-0.3c0.18-0.181,0.29-0.44,0.29-0.71c0-0.261-0.11-0.521-0.29-0.71C43.49,52.995,42.83,53.004,42.47,53.365z
		"/>
	<path d="M31.438,35.075c0.95,0,1.845-0.371,2.518-1.044c0.737-0.737,1.114-1.756,1.033-2.797s-0.612-1.99-1.459-2.606
		l-12.944-9.363c-0.396-0.286-0.945-0.242-1.293,0.104c-0.348,0.348-0.391,0.896-0.104,1.293l9.365,12.946
		C29.223,34.526,30.301,35.075,31.438,35.075z"/>
	<path d="M30,15.367c0.553,0,1-0.447,1-1V2.092C45.979,2.621,58,14.97,58,30.075c0,5.341-1.505,10.336-4.11,14.587l1.131,1.938
		C58.164,41.858,60,36.178,60,30.075c0-16.542-13.458-30-30-30c-0.553,0-1,0.447-1,1v13.292C29,14.919,29.447,15.367,30,15.367z"/>
	<path d="M26.102,57.797C12.502,55.894,2,44.191,2,30.075c0-7.46,2.9-14.479,8.166-19.764c0.391-0.392,0.389-1.024-0.002-1.414
		C9.772,8.508,9.14,8.508,8.75,8.899C3.107,14.561,0,22.082,0,30.075c0,15.535,11.869,28.348,27.015,29.851
		c-0.112-0.153-0.222-0.309-0.317-0.476C26.399,58.931,26.208,58.371,26.102,57.797z"/>
</g>
<g>
</g>
<g>
</g>
<g>
</g>
<g>
</g>
<g>
</g>
<g>
</g>
<g>
</g>
<g>
</g>
<g>
</g>
<g>
</g>
<g>
</g>
<g>
</g>
<g>
</g>
<g>
</g>
<g>
</g>
</svg>
