<?xml version="1.0" encoding="iso-8859-1"?>
<!-- Generator: Adobe Illustrator 18.0.0, SVG Export Plug-In . SVG Version: 6.00 Build 0)  -->
<!DOCTYPE svg PUBLIC "-//W3C//DTD SVG 1.1//EN" "http://www.w3.org/Graphics/SVG/1.1/DTD/svg11.dtd">
<svg version="1.1" id="Capa_1" xmlns="http://www.w3.org/2000/svg" xmlns:xlink="http://www.w3.org/1999/xlink" x="0px" y="0px"
	 viewBox="0 0 59.018 59.018" style="enable-background:new 0 0 59.018 59.018;" xml:space="preserve">
<g>
	<path d="M58.741,56.309l-5.969-6.244c1.746-1.919,2.82-4.458,2.82-7.25c0-5.953-4.843-10.796-10.796-10.796S34,36.861,34,42.814
		S38.843,53.61,44.796,53.61c2.441,0,4.688-0.824,6.499-2.196l6.001,6.277C57.492,57.896,57.755,58,58.019,58
		c0.249,0,0.497-0.092,0.691-0.277C59.108,57.341,59.123,56.708,58.741,56.309z M36,42.814c0-4.85,3.946-8.796,8.796-8.796
		s8.796,3.946,8.796,8.796s-3.946,8.796-8.796,8.796S36,47.664,36,42.814z"/>
	<path d="M31,42.814c0-7.607,6.188-13.796,13.796-13.796c0.623,0,1.231,0.056,1.833,0.136c0.39-0.814,0.746-1.65,1.044-2.519
		C49.084,25.988,50,24.594,50,23.018v-4c0-0.963-0.36-1.896-1-2.625v-5.319c0.056-0.55,0.276-3.824-2.092-6.525
		c-2.054-2.343-5.387-3.53-9.908-3.53s-7.854,1.188-9.908,3.53c-1.435,1.637-1.918,3.481-2.064,4.805
		C23.314,8.467,21.294,8.018,19,8.018c-10.389,0-10.994,8.855-11,9v4.579c-0.648,0.706-1,1.521-1,2.33v3.454
		c0,1.079,0.483,2.085,1.311,2.765c0.825,3.11,2.854,5.46,3.644,6.285v2.743c0,0.787-0.428,1.509-1.171,1.915l-6.653,4.173
		C1.583,46.652,0,49.319,0,52.222v3.797h14h2h24.812C35.142,54.305,31,49.037,31,42.814z M14,54.018H2v-1.797
		c0-2.17,1.183-4.164,3.089-5.203l0.053-0.029l0.052-0.032l6.609-4.146c1.349-0.764,2.152-2.118,2.152-3.636v-2.743v-0.803
		l-0.555-0.58c-0.558-0.583-2.436-2.698-3.156-5.415l-0.165-0.624L9.58,28.601C9.211,28.298,9,27.854,9,27.382v-3.454
		c0-0.298,0.168-0.645,0.474-0.978L10,22.376v-0.779v-4.506c0.078-0.921,0.901-7.073,9-7.073c2.392,0,4.408,0.552,6,1.644v4.73
		c-0.648,0.731-1,1.647-1,2.626v4c0,0.304,0.035,0.603,0.101,0.893c0.199,0.867,0.687,1.646,1.393,2.214
		c0.001,0.001,0.002,0.002,0.003,0.003c0.006,0.023,0.014,0.044,0.02,0.067c0.055,0.212,0.116,0.432,0.192,0.686l0.074,0.239
		c0.011,0.036,0.024,0.068,0.036,0.104c0.063,0.197,0.129,0.386,0.197,0.576c0.031,0.088,0.06,0.183,0.092,0.269
		c0.061,0.163,0.117,0.305,0.174,0.446c0.048,0.119,0.095,0.234,0.144,0.349c0.038,0.089,0.076,0.181,0.114,0.267l0.004-0.002
		c0.018,0.042,0.037,0.083,0.055,0.125l-0.004,0.002c0.024,0.055,0.05,0.104,0.075,0.159c0.098,0.216,0.195,0.425,0.296,0.627
		c0.016,0.033,0.032,0.07,0.048,0.103c0.026,0.052,0.053,0.096,0.079,0.147c0.157,0.306,0.311,0.594,0.465,0.864
		c0.017,0.03,0.033,0.058,0.05,0.087c0.575,0.997,1.102,1.742,1.392,2.122L29,36.674c0,0.242-0.033,0.479-0.096,0.706
		c-0.188,0.68-0.645,1.267-1.282,1.615l-8.921,4.866c-0.21,0.115-0.402,0.253-0.6,0.382C15.563,45.899,14,48.716,14,51.78V54.018z"
		/>
</g>
<g>
</g>
<g>
</g>
<g>
</g>
<g>
</g>
<g>
</g>
<g>
</g>
<g>
</g>
<g>
</g>
<g>
</g>
<g>
</g>
<g>
</g>
<g>
</g>
<g>
</g>
<g>
</g>
<g>
</g>
</svg>
