<?xml version="1.0" encoding="iso-8859-1"?>
<!-- Generator: Adobe Illustrator 18.0.0, SVG Export Plug-In . SVG Version: 6.00 Build 0)  -->
<!DOCTYPE svg PUBLIC "-//W3C//DTD SVG 1.1//EN" "http://www.w3.org/Graphics/SVG/1.1/DTD/svg11.dtd">
<svg version="1.1" id="Capa_1" xmlns="http://www.w3.org/2000/svg" xmlns:xlink="http://www.w3.org/1999/xlink" x="0px" y="0px"
	 viewBox="0 0 57 57" style="enable-background:new 0 0 57 57;" xml:space="preserve">
<g>
	<path d="M56.707,50.293l-6.797-6.797l6.484-3.242l-17.638-6.498l6.498,17.638l3.242-6.484l6.797,6.797
		C55.488,51.902,55.744,52,56,52s0.512-0.098,0.707-0.293C57.098,51.316,57.098,50.684,56.707,50.293z M42.131,37.131l9.233,3.402
		l-3.888,1.943l-1.943,3.888L42.131,37.131z"/>
	<path d="M44.524,32.684c0.065-0.089,0.129-0.174,0.195-0.268c1.239-1.75,2.232-3.698,2.954-5.799C49.084,25.97,50,24.575,50,23v-4
		c0-0.963-0.36-1.896-1-2.625v-5.319c0.056-0.55,0.276-3.824-2.092-6.525C44.854,2.188,41.521,1,37,1s-7.854,1.188-9.908,3.53
		c-1.435,1.637-1.918,3.481-2.064,4.805C23.314,8.449,21.294,8,19,8C8.611,8,8.006,16.855,8,17v4.579c-0.648,0.706-1,1.521-1,2.33
		v3.454c0,1.079,0.483,2.085,1.311,2.765c0.825,3.11,2.854,5.46,3.644,6.285v2.743c0,0.787-0.428,1.509-1.171,1.915l-6.653,4.173
		C1.583,46.634,0,49.301,0,52.203V56h14h2h27.754l-10.06-27.307L44.524,32.684z M14,54H2v-1.797c0-2.17,1.183-4.164,3.089-5.203
		l0.053-0.029l0.052-0.032l6.609-4.146c1.349-0.764,2.152-2.118,2.152-3.636v-2.743V35.61l-0.555-0.58
		c-0.558-0.583-2.436-2.698-3.156-5.415l-0.165-0.624L9.58,28.582C9.211,28.28,9,27.835,9,27.363v-3.454
		c0-0.298,0.168-0.645,0.474-0.978L10,22.358v-0.779v-4.506C10.078,16.152,10.901,10,19,10c2.392,0,4.408,0.552,6,1.644v4.73
		c-0.648,0.731-1,1.647-1,2.626v4c0,0.304,0.035,0.603,0.101,0.893c0.199,0.867,0.687,1.646,1.393,2.214
		c0.001,0.001,0.002,0.002,0.003,0.003c0.006,0.023,0.014,0.044,0.02,0.067c0.055,0.212,0.116,0.432,0.192,0.686l0.074,0.239
		c0.011,0.036,0.024,0.068,0.036,0.104c0.063,0.197,0.129,0.386,0.197,0.576c0.031,0.088,0.06,0.183,0.092,0.269
		c0.061,0.163,0.117,0.305,0.174,0.446c0.048,0.119,0.095,0.234,0.144,0.349c0.038,0.089,0.076,0.181,0.114,0.267l0.004-0.002
		c0.018,0.042,0.037,0.083,0.055,0.125l-0.004,0.002c0.024,0.055,0.05,0.104,0.075,0.159c0.098,0.216,0.195,0.425,0.296,0.627
		c0.016,0.033,0.032,0.07,0.048,0.103c0.026,0.052,0.053,0.096,0.079,0.147c0.157,0.306,0.311,0.594,0.465,0.864
		c0.017,0.03,0.033,0.058,0.05,0.087c0.575,0.997,1.102,1.742,1.392,2.122L29,36.655c0,0.242-0.033,0.479-0.096,0.706
		c-0.188,0.68-0.645,1.267-1.282,1.615l-8.921,4.866c-0.21,0.115-0.402,0.253-0.6,0.382C15.563,45.88,14,48.697,14,51.762V54z"/>
</g>
<g>
</g>
<g>
</g>
<g>
</g>
<g>
</g>
<g>
</g>
<g>
</g>
<g>
</g>
<g>
</g>
<g>
</g>
<g>
</g>
<g>
</g>
<g>
</g>
<g>
</g>
<g>
</g>
<g>
</g>
</svg>
