<?xml version="1.0" encoding="iso-8859-1"?>
<!-- Generator: Adobe Illustrator 18.0.0, SVG Export Plug-In . SVG Version: 6.00 Build 0)  -->
<!DOCTYPE svg PUBLIC "-//W3C//DTD SVG 1.1//EN" "http://www.w3.org/Graphics/SVG/1.1/DTD/svg11.dtd">
<svg version="1.1" id="Capa_1" xmlns="http://www.w3.org/2000/svg" xmlns:xlink="http://www.w3.org/1999/xlink" x="0px" y="0px"
	 viewBox="0 0 56.195 56.195" style="enable-background:new 0 0 56.195 56.195;" xml:space="preserve">
<g>
	<path d="M55.836,43.729c-3.512-5.364-8.2-8.391-13.251-8.59c-0.27-0.032-0.543-0.053-0.821-0.053c-0.491,0-0.969,0.053-1.431,0.151
		c-4.595,0.594-8.827,3.552-12.062,8.492l-0.466,0.711l0.359,0.548c3.635,5.552,8.529,8.609,13.783,8.609
		c5.253,0,10.148-3.058,13.783-8.609l0.466-0.711L55.836,43.729z M46.673,41.995c0,2.707-2.202,4.909-4.909,4.909
		s-4.909-2.202-4.909-4.909c0-2.343,1.652-4.302,3.852-4.788c0.446-0.053,0.895-0.087,1.348-0.087c0.025,0,0.05,0.002,0.075,0.003
		C44.663,37.313,46.673,39.413,46.673,41.995z M41.947,51.598c-4.387,0-8.538-2.537-11.744-7.161
		c1.559-2.286,3.348-4.069,5.28-5.304c-0.4,0.874-0.629,1.841-0.629,2.863c0,3.81,3.1,6.909,6.909,6.909s6.909-3.1,6.909-6.909
		c0-1.216-0.318-2.357-0.872-3.351c2.204,1.207,4.242,3.107,5.996,5.637C50.577,49.004,46.383,51.598,41.947,51.598z"/>
	<path d="M25.654,46.632l-1.436-2.192l1.543-2.354c4.207-6.426,9.993-9.965,16.292-9.965c0.035,0,0.069,0.003,0.104,0.004
		c-1.415-2.992-2.652-6.551-2.895-10.235c-0.143-2.147-0.547-3.938-1.237-5.473c-1.424-3.164-4.469-6.947-10.91-7
		c-10.964,0.09-11.33,11.206-11.332,11.32c-0.125,6.47-4.134,12.855-5.851,15.3c-0.467,0.665-0.616,1.312-0.444,1.921
		c0.188,0.66,0.719,1.171,1.625,1.56c1.917,0.823,4.322,1.066,4.521,1.081h6.084c-0.167,0.324-0.395,0.735-0.512,0.813l-9.166,3.933
		c-0.713,0.356-1.349,0.83-1.914,1.395C5.132,42.081,2,35.45,2,28.098c0-14.061,11.439-25.5,25.5-25.5S53,14.037,53,28.098
		c0,2.511-0.372,4.935-1.052,7.228c0.576,0.401,1.137,0.844,1.686,1.316C54.516,33.95,55,31.08,55,28.098
		c0-15.163-12.336-27.5-27.5-27.5S0,12.935,0,28.098c0,7.976,3.417,15.167,8.86,20.195l-0.072,0.098l0.705,0.604
		c3.904,3.342,8.655,5.483,13.681,6.26c0.356,0.056,0.715,0.102,1.075,0.145c0.391,0.045,0.782,0.084,1.176,0.112
		c0.579,0.043,1.162,0.071,1.75,0.078c0.062,0,0.123,0.008,0.185,0.008c0.017,0,0.035-0.002,0.052-0.002
		c0.03,0,0.059,0.002,0.089,0.002c2.351,0,4.634-0.298,6.814-0.856C31.039,53.082,28.082,50.341,25.654,46.632z"/>
</g>
<g>
</g>
<g>
</g>
<g>
</g>
<g>
</g>
<g>
</g>
<g>
</g>
<g>
</g>
<g>
</g>
<g>
</g>
<g>
</g>
<g>
</g>
<g>
</g>
<g>
</g>
<g>
</g>
<g>
</g>
</svg>
