<?xml version="1.0" encoding="iso-8859-1"?>
<!-- Generator: Adobe Illustrator 18.0.0, SVG Export Plug-In . SVG Version: 6.00 Build 0)  -->
<!DOCTYPE svg PUBLIC "-//W3C//DTD SVG 1.1//EN" "http://www.w3.org/Graphics/SVG/1.1/DTD/svg11.dtd">
<svg version="1.1" id="Capa_1" xmlns="http://www.w3.org/2000/svg" xmlns:xlink="http://www.w3.org/1999/xlink" x="0px" y="0px"
	 viewBox="0 0 58 58" style="enable-background:new 0 0 58 58;" xml:space="preserve">
<g>
	<path d="M53.5,40v-1c0-3.859-3.14-7-7-7s-7,3.141-7,7v1h-4v18h22V40H53.5z M41.5,39c0-2.757,2.243-5,5-5s5,2.243,5,5v1h-10V39z
		 M55.5,56h-18V42h2h14h2V56z"/>
	<path d="M46.5,44c-2.206,0-4,1.794-4,4c0,1.859,1.28,3.411,3,3.858V53c0,0.553,0.448,1,1,1s1-0.447,1-1v-1.142
		c1.72-0.447,3-1.999,3-3.858C50.5,45.794,48.706,44,46.5,44z M46.5,50c-1.103,0-2-0.897-2-2s0.897-2,2-2s2,0.897,2,2
		S47.603,50,46.5,50z"/>
	<path d="M42.012,30.076c-1.128-2.666-2.044-5.68-2.249-8.785c-0.143-2.147-0.547-3.938-1.237-5.473
		c-1.424-3.164-4.469-6.947-10.91-7c-10.964,0.09-11.33,11.206-11.332,11.32c-0.125,6.47-4.134,12.855-5.851,15.3
		c-0.467,0.665-0.616,1.312-0.444,1.921c0.188,0.66,0.719,1.171,1.625,1.56c1.917,0.823,4.322,1.066,4.521,1.081h6.084
		c-0.167,0.324-0.395,0.735-0.512,0.813l-9.166,3.933c-0.713,0.356-1.349,0.83-1.914,1.395C5.632,41.483,2.5,34.852,2.5,27.5
		C2.5,13.439,13.939,2,28,2s25.5,11.439,25.5,25.5c0,1.386-0.115,2.745-0.329,4.072c0.631,0.567,1.194,1.207,1.664,1.916
		c0.43-1.929,0.664-3.931,0.664-5.988C55.5,12.337,43.164,0,28,0S0.5,12.337,0.5,27.5c0,7.976,3.417,15.167,8.86,20.195
		l-0.072,0.098l0.705,0.604c3.904,3.342,8.655,5.483,13.681,6.26c0.356,0.056,0.715,0.102,1.075,0.145
		c0.391,0.045,0.782,0.084,1.176,0.112c0.579,0.043,1.162,0.071,1.75,0.078c0.062,0,0.123,0.008,0.185,0.008
		c0.017,0,0.035-0.002,0.052-0.002C27.941,54.998,27.97,55,28,55c1.533,0,3.035-0.132,4.5-0.374V37h4.202
		C37.32,33.966,39.321,31.435,42.012,30.076z"/>
</g>
<g>
</g>
<g>
</g>
<g>
</g>
<g>
</g>
<g>
</g>
<g>
</g>
<g>
</g>
<g>
</g>
<g>
</g>
<g>
</g>
<g>
</g>
<g>
</g>
<g>
</g>
<g>
</g>
<g>
</g>
</svg>
