<?xml version="1.0" encoding="iso-8859-1"?>
<!-- Generator: Adobe Illustrator 18.0.0, SVG Export Plug-In . SVG Version: 6.00 Build 0)  -->
<!DOCTYPE svg PUBLIC "-//W3C//DTD SVG 1.1//EN" "http://www.w3.org/Graphics/SVG/1.1/DTD/svg11.dtd">
<svg version="1.1" id="Capa_1" xmlns="http://www.w3.org/2000/svg" xmlns:xlink="http://www.w3.org/1999/xlink" x="0px" y="0px"
	 viewBox="0 0 58 58" style="enable-background:new 0 0 58 58;" xml:space="preserve">
<g>
	<path d="M46,34c-6.617,0-12,5.383-12,12s5.383,12,12,12s12-5.383,12-12S52.617,34,46,34z M46,56c-5.514,0-10-4.486-10-10
		s4.486-10,10-10s10,4.486,10,10S51.514,56,46,56z"/>
	<path d="M52,45h-5v-5c0-0.553-0.447-1-1-1s-1,0.447-1,1v6c0,0.553,0.447,1,1,1h6c0.553,0,1-0.447,1-1S52.553,45,52,45z"/>
	<path d="M42.154,31.518c-1.413-2.99-2.648-6.547-2.891-10.227c-0.143-2.147-0.547-3.938-1.237-5.473
		c-1.424-3.164-4.469-6.947-10.91-7c-10.964,0.09-11.33,11.206-11.332,11.32c-0.125,6.47-4.134,12.855-5.851,15.3
		c-0.467,0.665-0.616,1.312-0.444,1.921c0.188,0.66,0.719,1.171,1.625,1.56c1.917,0.823,4.322,1.066,4.521,1.081h6.084
		c-0.167,0.324-0.395,0.735-0.512,0.813l-9.166,3.933c-0.713,0.356-1.349,0.83-1.915,1.395C5.132,41.483,2,34.852,2,27.5
		C2,13.439,13.439,2,27.5,2S53,13.439,53,27.5c0,1.712-0.179,3.383-0.502,5.001c0.633,0.306,1.248,0.642,1.828,1.03
		C54.762,31.589,55,29.572,55,27.5C55,12.337,42.664,0,27.5,0S0,12.337,0,27.5c0,7.976,3.417,15.167,8.86,20.195l-0.072,0.098
		l0.705,0.604c3.904,3.342,8.656,5.483,13.681,6.26c0.356,0.056,0.715,0.102,1.075,0.145c0.391,0.045,0.782,0.084,1.176,0.112
		c0.579,0.043,1.162,0.071,1.75,0.078c0.062,0,0.123,0.008,0.185,0.008c0.017,0,0.035-0.002,0.052-0.002
		c0.03,0,0.059,0.002,0.089,0.002c2.072,0,4.089-0.238,6.031-0.675C31.935,51.942,31,49.079,31,46
		C31,39.06,35.743,33.223,42.154,31.518z"/>
</g>
<g>
</g>
<g>
</g>
<g>
</g>
<g>
</g>
<g>
</g>
<g>
</g>
<g>
</g>
<g>
</g>
<g>
</g>
<g>
</g>
<g>
</g>
<g>
</g>
<g>
</g>
<g>
</g>
<g>
</g>
</svg>
