<?xml version="1.0" encoding="iso-8859-1"?>
<!-- Generator: Adobe Illustrator 18.0.0, SVG Export Plug-In . SVG Version: 6.00 Build 0)  -->
<!DOCTYPE svg PUBLIC "-//W3C//DTD SVG 1.1//EN" "http://www.w3.org/Graphics/SVG/1.1/DTD/svg11.dtd">
<svg version="1.1" id="Capa_1" xmlns="http://www.w3.org/2000/svg" xmlns:xlink="http://www.w3.org/1999/xlink" x="0px" y="0px"
	 viewBox="0 0 59.018 59.018" style="enable-background:new 0 0 59.018 59.018;" xml:space="preserve">
<g>
	<path d="M58.741,56.809l-5.969-6.244c1.746-1.919,2.82-4.458,2.82-7.25c0-5.953-4.843-10.796-10.796-10.796S34,37.361,34,43.314
		S38.843,54.11,44.796,54.11c2.441,0,4.688-0.824,6.499-2.196l6.001,6.277c0.196,0.205,0.459,0.309,0.723,0.309
		c0.249,0,0.497-0.092,0.691-0.277C59.108,57.841,59.123,57.208,58.741,56.809z M36,43.314c0-4.85,3.946-8.796,8.796-8.796
		s8.796,3.946,8.796,8.796s-3.946,8.796-8.796,8.796S36,48.164,36,43.314z"/>
	<path d="M31,43.314c0-6.383,4.363-11.751,10.259-13.319c-1.01-2.515-1.807-5.313-1.996-8.186c-0.143-2.147-0.547-3.938-1.237-5.473
		c-1.424-3.164-4.469-6.947-10.91-7c-10.964,0.09-11.33,11.206-11.332,11.32c-0.125,6.47-4.134,12.855-5.851,15.3
		c-0.467,0.665-0.616,1.312-0.444,1.921c0.188,0.66,0.719,1.171,1.625,1.56c1.917,0.823,4.322,1.066,4.521,1.081h6.084
		c-0.167,0.324-0.395,0.735-0.512,0.813l-9.166,3.933c-0.713,0.356-1.349,0.83-1.915,1.395C5.132,42.002,2,35.371,2,28.018
		c0-14.061,11.439-25.5,25.5-25.5S53,13.958,53,28.018c0,1.359-0.112,2.691-0.318,3.992c0.63,0.441,1.224,0.93,1.771,1.468
		C54.811,31.714,55,29.888,55,28.018c0-15.163-12.336-27.5-27.5-27.5S0,12.855,0,28.018c0,7.976,3.417,15.167,8.86,20.195
		l-0.072,0.098l0.705,0.604c3.904,3.342,8.656,5.483,13.681,6.26c0.356,0.056,0.715,0.102,1.075,0.145
		c0.391,0.045,0.782,0.084,1.176,0.112c0.579,0.043,1.162,0.071,1.75,0.078c0.062,0,0.123,0.008,0.185,0.008
		c0.017,0,0.035-0.002,0.052-0.002c0.03,0,0.059,0.002,0.089,0.002c3.045,0,5.972-0.505,8.712-1.423
		C33.041,51.566,31,47.677,31,43.314z"/>
</g>
<g>
</g>
<g>
</g>
<g>
</g>
<g>
</g>
<g>
</g>
<g>
</g>
<g>
</g>
<g>
</g>
<g>
</g>
<g>
</g>
<g>
</g>
<g>
</g>
<g>
</g>
<g>
</g>
<g>
</g>
</svg>
