<?xml version="1.0" encoding="iso-8859-1"?>
<!-- Generator: Adobe Illustrator 18.0.0, SVG Export Plug-In . SVG Version: 6.00 Build 0)  -->
<!DOCTYPE svg PUBLIC "-//W3C//DTD SVG 1.1//EN" "http://www.w3.org/Graphics/SVG/1.1/DTD/svg11.dtd">
<svg version="1.1" id="Capa_1" xmlns="http://www.w3.org/2000/svg" xmlns:xlink="http://www.w3.org/1999/xlink" x="0px" y="0px"
	 viewBox="0 0 59.999 59.999" style="enable-background:new 0 0 59.999 59.999;" xml:space="preserve">
<g>
	<path d="M59.954,42.581c-0.399-4.089-3.451-7.053-7.271-7.053c-2.396,0-4.407,1.449-5.684,3.213
		c-1.276-1.764-3.288-3.213-5.684-3.213c-3.818,0-6.871,2.963-7.271,7.052c-0.042,0.267-0.145,1.22,0.226,2.709
		c0.545,2.197,1.8,4.191,3.631,5.771l8.329,7.126c0.214,0.185,0.487,0.285,0.77,0.285c0.278,0,0.549-0.099,0.768-0.283l8.331-7.13
		c1.828-1.575,3.083-3.57,3.629-5.768C60.098,43.801,59.996,42.849,59.954,42.581z M57.787,44.808
		c-0.445,1.794-1.479,3.432-2.99,4.732l-7.796,6.672l-7.795-6.67c-1.514-1.305-2.549-2.941-2.993-4.735
		c-0.302-1.213-0.194-1.897-0.194-1.897l0.016-0.105c0.245-2.621,2.138-5.275,5.282-5.275c2.189,0,3.974,1.811,4.77,3.605L47,43.194
		l0.914-2.061c0.796-1.795,2.58-3.605,4.77-3.605c3.145,0,5.037,2.654,5.295,5.367C57.98,42.902,58.091,43.586,57.787,44.808z"/>
	<path d="M31.359,46.012c-0.46-1.858-0.379-3.19-0.289-3.82c0.564-5.492,4.971-9.663,10.246-9.663c1.103,0,2.203,0.217,3.255,0.618
		c0.049-0.068,0.097-0.131,0.148-0.202c1.239-1.75,2.232-3.698,2.954-5.799C49.084,26.498,50,25.104,50,23.528v-4
		c0-0.963-0.36-1.896-1-2.625v-5.319c0.056-0.55,0.276-3.824-2.092-6.525c-2.054-2.343-5.387-3.53-9.908-3.53
		s-7.854,1.188-9.908,3.53c-1.435,1.637-1.918,3.481-2.064,4.805C23.314,8.977,21.294,8.528,19,8.528c-10.389,0-10.994,8.855-11,9
		v4.579c-0.648,0.706-1,1.521-1,2.33v3.454c0,1.079,0.483,2.085,1.311,2.765c0.825,3.11,2.854,5.46,3.644,6.285v2.743
		c0,0.787-0.428,1.509-1.171,1.915l-6.653,4.173C1.583,47.162,0,49.829,0,52.732v3.797h14h2h23.68l-3.728-3.189
		C33.643,51.348,32.056,48.815,31.359,46.012z M14,54.528H2v-1.797c0-2.17,1.183-4.164,3.089-5.203l0.053-0.029l0.052-0.032
		l6.609-4.146c1.349-0.764,2.152-2.118,2.152-3.636v-2.743v-0.803l-0.555-0.58c-0.558-0.583-2.435-2.698-3.156-5.415l-0.165-0.624
		L9.58,29.111C9.211,28.808,9,28.364,9,27.892v-3.454c0-0.298,0.168-0.645,0.474-0.978L10,22.886v-0.779v-4.506
		c0.078-0.921,0.901-7.073,9-7.073c2.392,0,4.408,0.552,6,1.644v4.73c-0.648,0.731-1,1.647-1,2.626v4
		c0,0.304,0.035,0.603,0.101,0.893c0.199,0.867,0.687,1.646,1.393,2.214c0.001,0.001,0.002,0.002,0.003,0.003
		c0.006,0.023,0.014,0.043,0.019,0.066c0.055,0.212,0.116,0.432,0.192,0.686l0.074,0.239c0.011,0.036,0.024,0.067,0.035,0.103
		c0.063,0.197,0.129,0.386,0.197,0.576c0.031,0.088,0.06,0.184,0.092,0.27c0.06,0.162,0.117,0.303,0.173,0.444
		c0.048,0.12,0.096,0.236,0.146,0.353c0.037,0.088,0.075,0.18,0.113,0.266l0.004-0.002c0.018,0.042,0.037,0.083,0.055,0.125
		l-0.004,0.002c0.025,0.055,0.05,0.105,0.075,0.159c0.098,0.215,0.195,0.424,0.295,0.625c0.017,0.034,0.032,0.071,0.049,0.104
		c0.027,0.053,0.054,0.097,0.08,0.149c0.156,0.305,0.31,0.591,0.463,0.86c0.018,0.031,0.034,0.06,0.052,0.091
		c0.575,0.997,1.101,1.74,1.391,2.12L29,37.184c0,0.242-0.033,0.479-0.096,0.706c-0.188,0.68-0.644,1.267-1.282,1.615l-8.921,4.866
		c-0.247,0.135-0.474,0.294-0.705,0.449c-0.108,0.072-0.225,0.133-0.329,0.21c-0.018,0.013-0.033,0.03-0.051,0.043
		C15.361,46.76,14,49.422,14,52.29V54.528z"/>
</g>
<g>
</g>
<g>
</g>
<g>
</g>
<g>
</g>
<g>
</g>
<g>
</g>
<g>
</g>
<g>
</g>
<g>
</g>
<g>
</g>
<g>
</g>
<g>
</g>
<g>
</g>
<g>
</g>
<g>
</g>
</svg>
