<?xml version="1.0" encoding="iso-8859-1"?>
<!-- Generator: Adobe Illustrator 18.0.0, SVG Export Plug-In . SVG Version: 6.00 Build 0)  -->
<!DOCTYPE svg PUBLIC "-//W3C//DTD SVG 1.1//EN" "http://www.w3.org/Graphics/SVG/1.1/DTD/svg11.dtd">
<svg version="1.1" id="Capa_1" xmlns="http://www.w3.org/2000/svg" xmlns:xlink="http://www.w3.org/1999/xlink" x="0px" y="0px"
	 viewBox="0 0 57.195 57.195" style="enable-background:new 0 0 57.195 57.195;" xml:space="preserve">
<g>
	<path d="M56.836,43.741c-3.514-5.367-8.206-8.395-13.26-8.591c-0.267-0.031-0.538-0.052-0.813-0.052
		c-0.489,0-0.965,0.053-1.425,0.149c-4.597,0.592-8.832,3.552-12.068,8.494l-0.466,0.711L29.164,45
		c3.635,5.552,8.529,8.609,13.783,8.609c5.253,0,10.148-3.058,13.783-8.609l0.466-0.711L56.836,43.741z M47.673,42.007
		c0,2.707-2.202,4.909-4.909,4.909s-4.909-2.202-4.909-4.909c0-2.345,1.655-4.305,3.856-4.789c0.445-0.053,0.892-0.087,1.343-0.087
		c0.02,0,0.04,0.002,0.06,0.002C45.655,37.316,47.673,39.419,47.673,42.007z M42.947,51.609c-4.387,0-8.538-2.537-11.744-7.161
		c1.559-2.287,3.348-4.069,5.281-5.305c-0.4,0.874-0.629,1.842-0.629,2.864c0,3.81,3.1,6.909,6.909,6.909s6.909-3.1,6.909-6.909
		c0-1.216-0.318-2.358-0.872-3.352c2.204,1.207,4.242,3.107,5.996,5.638C51.577,49.016,47.383,51.609,42.947,51.609z"/>
	<path d="M26.654,46.644l-1.436-2.192l1.543-2.354c2.683-4.099,6.011-7.017,9.702-8.598c0.212-0.49,0.411-0.988,0.588-1.499
		c0.009-0.004,0.016-0.01,0.025-0.014c0.054-0.026,0.103-0.059,0.156-0.088c0.111-0.061,0.22-0.122,0.323-0.193
		c0.059-0.04,0.112-0.085,0.168-0.129c0.089-0.069,0.177-0.139,0.258-0.216c0.054-0.05,0.104-0.103,0.154-0.156
		c0.075-0.079,0.147-0.16,0.214-0.245c0.046-0.058,0.089-0.116,0.131-0.177c0.063-0.09,0.12-0.183,0.175-0.278
		c0.035-0.062,0.07-0.124,0.102-0.188c0.051-0.103,0.094-0.209,0.135-0.317c0.024-0.063,0.05-0.124,0.07-0.188
		c0.039-0.123,0.067-0.249,0.093-0.377c0.011-0.053,0.026-0.105,0.035-0.16c0.029-0.185,0.046-0.372,0.046-0.564v-3.545
		c0-0.867-0.318-1.708-0.887-2.369V18.13c0.006-0.065,0.015-0.167,0.021-0.302c0.041-0.942-0.049-3.448-1.904-5.562
		c-1.843-2.103-4.826-3.168-8.867-3.168s-7.024,1.065-8.867,3.168c-1.854,2.114-1.945,4.621-1.904,5.563
		c0.006,0.135,0.014,0.237,0.021,0.302v4.667c-0.568,0.661-0.887,1.502-0.887,2.369v3.545c0,1.101,0.494,2.128,1.34,2.821
		c0.101,0.396,0.216,0.781,0.34,1.152c0.87,2.596,2.213,4.525,2.752,5.237v2.894c0,0.816-0.445,1.566-1.162,1.958l-7.907,4.313
		c-0.252,0.138-0.502,0.297-0.751,0.476c0,0-0.001,0-0.001,0.001l0,0c-1.291-1.161-2.463-2.451-3.496-3.85
		c-0.036-0.049-0.071-0.1-0.107-0.15c-0.213-0.293-0.422-0.589-0.622-0.892c-0.057-0.086-0.111-0.174-0.167-0.26
		c-0.174-0.269-0.345-0.54-0.509-0.816c-0.066-0.11-0.128-0.223-0.192-0.334c-0.148-0.258-0.293-0.517-0.433-0.78
		c-0.067-0.127-0.132-0.255-0.197-0.384c-0.128-0.251-0.253-0.505-0.372-0.761c-0.066-0.142-0.13-0.285-0.194-0.428
		c-0.11-0.248-0.216-0.497-0.318-0.749c-0.062-0.153-0.123-0.307-0.182-0.461c-0.095-0.248-0.185-0.497-0.273-0.748
		c-0.056-0.162-0.112-0.324-0.165-0.487c-0.081-0.248-0.156-0.498-0.229-0.749c-0.049-0.17-0.099-0.339-0.145-0.51
		c-0.068-0.251-0.129-0.506-0.189-0.76c-0.041-0.173-0.083-0.345-0.12-0.52c-0.055-0.258-0.102-0.519-0.15-0.779
		c-0.032-0.175-0.066-0.348-0.094-0.524c-0.043-0.27-0.077-0.542-0.111-0.815c-0.021-0.169-0.047-0.337-0.065-0.507
		c-0.032-0.3-0.053-0.603-0.074-0.906c-0.01-0.145-0.025-0.289-0.033-0.435C2.013,29.506,2,29.053,2,28.598
		c0-14.061,11.439-25.5,25.5-25.5S53,14.537,53,28.598c0,2.16-0.279,4.254-0.787,6.257c0.594,0.375,1.177,0.782,1.745,1.232
		C54.634,33.704,55,31.193,55,28.598c0-1.896-0.193-3.747-0.56-5.535C51.872,10.543,40.768,1.098,27.5,1.098
		S3.128,10.543,0.56,23.063C0.193,24.851,0,26.702,0,28.598c0,0.488,0.014,0.973,0.039,1.455c0.008,0.155,0.025,0.307,0.035,0.461
		c0.023,0.326,0.045,0.651,0.078,0.974c0.019,0.183,0.047,0.364,0.07,0.546c0.036,0.291,0.072,0.582,0.117,0.87
		c0.03,0.188,0.067,0.375,0.101,0.562c0.05,0.279,0.1,0.558,0.158,0.833c0.04,0.187,0.086,0.372,0.129,0.557
		c0.064,0.272,0.127,0.544,0.199,0.813c0.049,0.184,0.103,0.365,0.156,0.547c0.077,0.268,0.156,0.534,0.241,0.799
		c0.057,0.177,0.118,0.352,0.179,0.528c0.091,0.265,0.185,0.53,0.284,0.791c0.064,0.169,0.132,0.337,0.199,0.504
		c0.106,0.264,0.215,0.526,0.33,0.786c0.07,0.16,0.143,0.319,0.216,0.477c0.122,0.263,0.247,0.524,0.377,0.783
		c0.075,0.149,0.151,0.298,0.229,0.446c0.138,0.264,0.281,0.524,0.428,0.783c0.078,0.138,0.157,0.275,0.237,0.412
		c0.156,0.264,0.317,0.525,0.482,0.784c0.079,0.125,0.158,0.25,0.24,0.374c0.176,0.267,0.358,0.53,0.543,0.791
		c0.077,0.109,0.154,0.219,0.233,0.327c0.2,0.273,0.406,0.54,0.616,0.806c0.072,0.091,0.141,0.183,0.214,0.272
		c0.228,0.281,0.463,0.556,0.702,0.828c0.061,0.069,0.119,0.14,0.181,0.209c0.266,0.297,0.539,0.587,0.818,0.872
		c0.039,0.04,0.075,0.081,0.114,0.12c0.32,0.324,0.647,0.641,0.983,0.949l-0.026,0.023l0.892,0.752
		c0.057,0.048,0.12,0.089,0.177,0.136c0.476,0.395,0.969,0.77,1.472,1.133c0.159,0.115,0.318,0.23,0.479,0.341
		c0.535,0.369,1.085,0.719,1.646,1.051c0.122,0.071,0.243,0.141,0.366,0.211l0.001,0.001c0,0,0,0,0,0
		c0.613,0.349,1.238,0.678,1.879,0.98c0.047,0.022,0.094,0.042,0.141,0.064c0.515,0.239,1.038,0.462,1.57,0.669
		c0.014,0.005,0.027,0.011,0.041,0.016c1.612,0.627,3.297,1.105,5.04,1.419c0.062,0.011,0.123,0.022,0.185,0.033
		c0.723,0.125,1.455,0.225,2.197,0.292c0.09,0.008,0.18,0.013,0.27,0.021h0.001c0.001,0,0.002,0,0.003,0
		c0.356,0.029,0.713,0.054,1.073,0.069c0.387,0.018,0.775,0.03,1.166,0.03c0.749,0,1.488-0.039,2.222-0.098
		c0.093-0.008,0.186-0.013,0.279-0.021c0.735-0.067,1.461-0.164,2.178-0.287c0.062-0.011,0.125-0.022,0.187-0.034
		c1.092-0.196,2.159-0.46,3.202-0.781C32.191,53.231,29.145,50.448,26.654,46.644z"/>
</g>
<g>
</g>
<g>
</g>
<g>
</g>
<g>
</g>
<g>
</g>
<g>
</g>
<g>
</g>
<g>
</g>
<g>
</g>
<g>
</g>
<g>
</g>
<g>
</g>
<g>
</g>
<g>
</g>
<g>
</g>
</svg>
