<?xml version="1.0" encoding="iso-8859-1"?>
<!-- Generator: Adobe Illustrator 18.0.0, SVG Export Plug-In . SVG Version: 6.00 Build 0)  -->
<!DOCTYPE svg PUBLIC "-//W3C//DTD SVG 1.1//EN" "http://www.w3.org/Graphics/SVG/1.1/DTD/svg11.dtd">
<svg version="1.1" id="Capa_1" xmlns="http://www.w3.org/2000/svg" xmlns:xlink="http://www.w3.org/1999/xlink" x="0px" y="0px"
	 viewBox="0 0 55 55" style="enable-background:new 0 0 55 55;" xml:space="preserve">
<g>
	<path d="M44.973,46.052l6.483-3.241l-17.637-6.498l6.498,17.637l3.241-6.483l6.798,6.798c0.195,0.195,0.451,0.293,0.707,0.293
		s0.512-0.098,0.707-0.293c0.391-0.391,0.391-1.023,0-1.414L44.973,46.052z M37.194,39.688l9.232,3.402l-3.887,1.943l-1.943,3.887
		L37.194,39.688z"/>
	<path d="M27.5,0C12.337,0,0,12.337,0,27.5c0,8.009,3.444,15.228,8.926,20.258l-0.026,0.023l0.892,0.752
		c0.058,0.049,0.121,0.089,0.178,0.137c0.474,0.393,0.965,0.766,1.465,1.127c0.162,0.117,0.324,0.235,0.489,0.348
		c0.534,0.368,1.082,0.717,1.642,1.048c0.122,0.072,0.245,0.142,0.368,0.212c0.613,0.349,1.239,0.678,1.88,0.98
		c0.047,0.022,0.094,0.042,0.142,0.064c2.089,0.971,4.319,1.684,6.651,2.105c0.061,0.011,0.122,0.022,0.184,0.033
		c0.724,0.125,1.456,0.225,2.197,0.292c0.09,0.008,0.181,0.013,0.271,0.021C25.998,54.961,26.744,55,27.5,55
		c0.749,0,1.489-0.039,2.222-0.098c0.093-0.008,0.186-0.013,0.279-0.021c0.735-0.067,1.46-0.164,2.178-0.287
		c0.062-0.011,0.125-0.022,0.187-0.034c1.559-0.28,3.068-0.701,4.525-1.232L28.757,31.25l7.015,2.584
		c0.494-0.934,0.927-1.911,1.28-2.932c1.267-0.602,2.085-1.864,2.085-3.289v-3.545c0-0.867-0.318-1.708-0.887-2.369v-4.667
		c0.052-0.52,0.236-3.448-1.883-5.864C34.524,9.065,31.541,8,27.5,8s-7.024,1.065-8.867,3.168c-2.119,2.416-1.935,5.346-1.883,5.864
		v4.667c-0.568,0.661-0.887,1.502-0.887,2.369v3.545c0,1.101,0.494,2.128,1.34,2.821c0.81,3.173,2.477,5.575,3.093,6.389v2.894
		c0,0.816-0.445,1.566-1.162,1.958l-7.907,4.313c-0.252,0.137-0.502,0.297-0.752,0.476C5.276,41.792,2,35.022,2,27.5
		C2,13.439,13.439,2,27.5,2S53,13.439,53,27.5c0,4.193-1.022,8.15-2.824,11.642l1.891,0.697C53.94,36.125,55,31.935,55,27.5
		C55,12.337,42.663,0,27.5,0z"/>
</g>
<g>
</g>
<g>
</g>
<g>
</g>
<g>
</g>
<g>
</g>
<g>
</g>
<g>
</g>
<g>
</g>
<g>
</g>
<g>
</g>
<g>
</g>
<g>
</g>
<g>
</g>
<g>
</g>
<g>
</g>
</svg>
