<?xml version="1.0" encoding="iso-8859-1"?>
<!-- Generator: Adobe Illustrator 18.0.0, SVG Export Plug-In . SVG Version: 6.00 Build 0)  -->
<!DOCTYPE svg PUBLIC "-//W3C//DTD SVG 1.1//EN" "http://www.w3.org/Graphics/SVG/1.1/DTD/svg11.dtd">
<svg version="1.1" id="Capa_1" xmlns="http://www.w3.org/2000/svg" xmlns:xlink="http://www.w3.org/1999/xlink" x="0px" y="0px"
	 viewBox="0 0 60 60" style="enable-background:new 0 0 60 60;" xml:space="preserve">
<g>
	<path d="M59,56h-1v-2.36c0-3.534-1.845-6.748-4.827-8.64C56.155,43.108,58,39.895,58,36.36V34h1c0.553,0,1-0.447,1-1s-0.447-1-1-1
		h-1h-1H43h-1h-1c-0.553,0-1,0.447-1,1s0.447,1,1,1h1v2.36c0,3.534,1.845,6.748,4.827,8.64C43.845,46.892,42,50.105,42,53.64V56h-1
		c-0.553,0-1,0.447-1,1s0.447,1,1,1h1h1h14h1h1c0.553,0,1-0.447,1-1S59.553,56,59,56z M44,36.36V34h12v2.36
		c0,3.319-2.033,6.298-5.197,7.64h-1.605C46.033,42.658,44,39.68,44,36.36z M44,53.64c0-3.319,2.033-6.298,5.197-7.64h1.605
		C53.967,47.342,56,50.32,56,53.64V56H44V53.64z"/>
	<path d="M35.051,43.793c-0.76-0.38-1.232-1.144-1.232-1.993v-2.957c0.196-0.242,0.403-0.516,0.617-0.817
		c1.096-1.548,1.975-3.27,2.616-5.123c0.966-0.458,1.668-1.303,1.948-2.309V29h0.137v-2.932c0-0.867-0.318-1.708-0.887-2.369v-4.667
		c0.052-0.52,0.236-3.448-1.883-5.864C34.524,11.065,31.541,10,27.5,10s-7.024,1.065-8.867,3.168
		c-2.119,2.416-1.935,5.346-1.883,5.864v4.667c-0.568,0.661-0.887,1.502-0.887,2.369v3.545c0,1.101,0.494,2.128,1.34,2.821
		c0.81,3.173,2.477,5.575,3.093,6.389v2.894c0,0.816-0.445,1.566-1.162,1.958l-7.907,4.313c-0.252,0.137-0.502,0.297-0.752,0.476
		C5.276,43.792,2,37.022,2,29.5C2,15.439,13.439,4,27.5,4c13.893,0,25.219,11.17,25.487,25h2C54.719,14.068,42.495,2,27.5,2
		C12.337,2,0,14.337,0,29.5c0,8.009,3.444,15.228,8.926,20.258l-0.026,0.023l0.892,0.752c0.058,0.049,0.121,0.089,0.179,0.137
		c0.474,0.393,0.965,0.766,1.465,1.127c0.162,0.117,0.324,0.235,0.489,0.348c0.534,0.368,1.082,0.717,1.642,1.048
		c0.122,0.072,0.245,0.142,0.368,0.212c0.613,0.349,1.239,0.678,1.88,0.98c0.047,0.022,0.095,0.042,0.142,0.064
		c2.089,0.971,4.319,1.684,6.651,2.105c0.061,0.011,0.122,0.022,0.184,0.033c0.724,0.125,1.456,0.225,2.197,0.292
		c0.09,0.008,0.18,0.013,0.271,0.021C25.998,56.961,26.744,57,27.5,57c0.749,0,1.488-0.039,2.222-0.098
		c0.093-0.008,0.186-0.013,0.279-0.021c0.735-0.067,1.461-0.164,2.178-0.287c0.062-0.011,0.125-0.022,0.187-0.034
		c2.297-0.412,4.495-1.109,6.557-2.055c0.026-0.012,0.051-0.023,0.077-0.035V53.64c0-2.491,0.709-4.855,1.967-6.889L35.051,43.793z"
		/>
</g>
<g>
</g>
<g>
</g>
<g>
</g>
<g>
</g>
<g>
</g>
<g>
</g>
<g>
</g>
<g>
</g>
<g>
</g>
<g>
</g>
<g>
</g>
<g>
</g>
<g>
</g>
<g>
</g>
<g>
</g>
</svg>
