<?xml version="1.0" encoding="iso-8859-1"?>
<!-- Generator: Adobe Illustrator 18.0.0, SVG Export Plug-In . SVG Version: 6.00 Build 0)  -->
<!DOCTYPE svg PUBLIC "-//W3C//DTD SVG 1.1//EN" "http://www.w3.org/Graphics/SVG/1.1/DTD/svg11.dtd">
<svg version="1.1" id="Capa_1" xmlns="http://www.w3.org/2000/svg" xmlns:xlink="http://www.w3.org/1999/xlink" x="0px" y="0px"
	 viewBox="0 0 60 60" style="enable-background:new 0 0 60 60;" xml:space="preserve">
<g>
	<path d="M52.179,40.429l-5.596,8.04l-3.949-3.241c-0.426-0.352-1.057-0.288-1.407,0.138c-0.351,0.427-0.289,1.058,0.139,1.407
		l4.786,3.929c0.18,0.148,0.404,0.228,0.634,0.228c0.045,0,0.091-0.003,0.137-0.01c0.276-0.038,0.524-0.19,0.684-0.419l6.214-8.929
		c0.315-0.453,0.204-1.076-0.25-1.392C53.117,39.861,52.495,39.976,52.179,40.429z"/>
	<path d="M47,33c-7.168,0-13,5.832-13,13s5.832,13,13,13s13-5.832,13-13S54.168,33,47,33z M47,57c-6.065,0-11-4.935-11-11
		s4.935-11,11-11s11,4.935,11,11S53.065,57,47,57z"/>
	<path d="M41.48,31.002c-1.113-2.648-2.014-5.635-2.218-8.711c-0.143-2.147-0.547-3.938-1.237-5.473
		c-1.424-3.164-4.469-6.947-10.91-7c-10.964,0.09-11.33,11.206-11.332,11.32c-0.125,6.47-4.134,12.855-5.851,15.3
		c-0.467,0.665-0.616,1.312-0.444,1.921c0.188,0.66,0.719,1.171,1.625,1.56c1.917,0.823,4.322,1.066,4.521,1.081h6.084
		c-0.167,0.324-0.395,0.735-0.512,0.813l-9.166,3.933c-0.713,0.356-1.349,0.83-1.914,1.395C5.132,42.483,2,35.852,2,28.5
		C2,14.439,13.439,3,27.5,3S53,14.439,53,28.5c0,0.887-0.05,1.763-0.139,2.627c0.657,0.26,1.295,0.555,1.906,0.896
		C54.915,30.868,55,29.694,55,28.5C55,13.337,42.664,1,27.5,1S0,13.337,0,28.5c0,7.976,3.417,15.167,8.86,20.195l-0.072,0.098
		l0.705,0.604c3.904,3.342,8.655,5.483,13.681,6.26c0.356,0.056,0.715,0.102,1.075,0.145c0.391,0.045,0.782,0.084,1.176,0.112
		c0.579,0.043,1.162,0.071,1.75,0.078c0.062,0,0.123,0.008,0.185,0.008c0.017,0,0.035-0.002,0.052-0.002
		c0.03,0,0.059,0.002,0.089,0.002c2.222,0,4.381-0.272,6.452-0.772C32.1,52.617,31,49.438,31,46
		C31,39.12,35.374,33.257,41.48,31.002z"/>
</g>
<g>
</g>
<g>
</g>
<g>
</g>
<g>
</g>
<g>
</g>
<g>
</g>
<g>
</g>
<g>
</g>
<g>
</g>
<g>
</g>
<g>
</g>
<g>
</g>
<g>
</g>
<g>
</g>
<g>
</g>
</svg>
