<?xml version="1.0" encoding="iso-8859-1"?>
<!-- Generator: Adobe Illustrator 18.0.0, SVG Export Plug-In . SVG Version: 6.00 Build 0)  -->
<!DOCTYPE svg PUBLIC "-//W3C//DTD SVG 1.1//EN" "http://www.w3.org/Graphics/SVG/1.1/DTD/svg11.dtd">
<svg version="1.1" id="Capa_1" xmlns="http://www.w3.org/2000/svg" xmlns:xlink="http://www.w3.org/1999/xlink" x="0px" y="0px"
	 viewBox="0 0 57.942 57.942" style="enable-background:new 0 0 57.942 57.942;" xml:space="preserve">
<g>
	<path d="M57.426,42.053C57.026,37.964,53.974,35,50.155,35c-2.396,0-4.407,1.449-5.684,3.213C43.195,36.449,41.183,35,38.788,35
		c-3.818,0-6.871,2.963-7.271,7.052c-0.042,0.267-0.145,1.22,0.226,2.709c0.545,2.197,1.8,4.191,3.631,5.771l8.329,7.126
		c0.214,0.185,0.487,0.285,0.77,0.285c0.278,0,0.549-0.099,0.768-0.283l8.331-7.13c1.828-1.575,3.083-3.57,3.629-5.768
		C57.569,43.272,57.468,42.32,57.426,42.053z M55.259,44.279c-0.445,1.794-1.479,3.432-2.99,4.732l-7.796,6.672l-7.795-6.67
		c-1.514-1.305-2.549-2.941-2.993-4.735c-0.302-1.213-0.194-1.897-0.194-1.897l0.016-0.105C33.751,39.654,35.643,37,38.788,37
		c2.189,0,3.974,1.811,4.77,3.605l0.914,2.061l0.914-2.061c0.796-1.795,2.58-3.605,4.77-3.605c3.145,0,5.037,2.654,5.295,5.367
		C55.452,42.374,55.562,43.058,55.259,44.279z"/>
	<path d="M28.831,45.483c-0.46-1.858-0.379-3.19-0.289-3.82c0.501-4.871,4.025-8.696,8.496-9.5c0.173-0.413,0.337-0.833,0.485-1.26
		c1.267-0.602,2.085-1.864,2.085-3.289v-3.545c0-0.867-0.318-1.708-0.887-2.369v-4.667c0.052-0.52,0.236-3.448-1.883-5.864
		C34.996,9.065,32.013,8,27.972,8s-7.024,1.065-8.867,3.168c-2.119,2.416-1.935,5.346-1.883,5.864v4.667
		c-0.568,0.661-0.887,1.502-0.887,2.369v3.545c0,1.101,0.494,2.128,1.34,2.821c0.81,3.173,2.477,5.575,3.093,6.389v2.894
		c0,0.816-0.445,1.566-1.162,1.958l-7.907,4.313c-0.252,0.137-0.502,0.297-0.752,0.476C5.748,41.792,2.472,35.022,2.472,27.5
		c0-14.061,11.439-25.5,25.5-25.5s25.5,11.439,25.5,25.5c0,1.682-0.173,3.323-0.485,4.915c0.658,0.197,1.288,0.465,1.886,0.79
		c0.39-1.842,0.599-3.749,0.599-5.705c0-15.163-12.337-27.5-27.5-27.5s-27.5,12.337-27.5,27.5c0,8.009,3.444,15.228,8.926,20.258
		l-0.026,0.023l0.892,0.752c0.058,0.049,0.121,0.089,0.179,0.137c0.474,0.393,0.965,0.766,1.465,1.127
		c0.162,0.117,0.324,0.235,0.489,0.348c0.534,0.368,1.082,0.717,1.642,1.048c0.122,0.072,0.245,0.142,0.368,0.212
		c0.613,0.349,1.239,0.678,1.88,0.98c0.047,0.022,0.095,0.042,0.142,0.064c2.089,0.971,4.319,1.684,6.651,2.105
		c0.061,0.011,0.122,0.022,0.184,0.033c0.724,0.125,1.456,0.225,2.197,0.292c0.09,0.008,0.18,0.013,0.271,0.021
		C26.469,54.961,27.216,55,27.972,55c0.749,0,1.488-0.039,2.222-0.098c0.093-0.008,0.186-0.013,0.279-0.021
		c0.735-0.067,1.461-0.164,2.178-0.287c0.062-0.011,0.125-0.022,0.187-0.034c0.706-0.126,1.398-0.289,2.084-0.468l-1.497-1.281
		C31.114,50.819,29.527,48.286,28.831,45.483z"/>
</g>
<g>
</g>
<g>
</g>
<g>
</g>
<g>
</g>
<g>
</g>
<g>
</g>
<g>
</g>
<g>
</g>
<g>
</g>
<g>
</g>
<g>
</g>
<g>
</g>
<g>
</g>
<g>
</g>
<g>
</g>
</svg>
