<?xml version="1.0" encoding="iso-8859-1"?>
<!-- Generator: Adobe Illustrator 18.0.0, SVG Export Plug-In . SVG Version: 6.00 Build 0)  -->
<!DOCTYPE svg PUBLIC "-//W3C//DTD SVG 1.1//EN" "http://www.w3.org/Graphics/SVG/1.1/DTD/svg11.dtd">
<svg version="1.1" id="Capa_1" xmlns="http://www.w3.org/2000/svg" xmlns:xlink="http://www.w3.org/1999/xlink" x="0px" y="0px"
	 viewBox="0 0 60 60" style="enable-background:new 0 0 60 60;" xml:space="preserve">
<g>
	<path d="M58.199,46.52c-0.549-0.104-1.069,0.24-1.18,0.781c-1.116,5.502-5.445,9.199-10.771,9.199c-5.028,0-9.446-3.3-10.948-8H39
		v-2h-7v7h2v-2.848c2.169,4.681,6.915,7.848,12.249,7.848c6.304,0,11.42-4.341,12.731-10.801C59.09,47.157,58.74,46.63,58.199,46.52
		z"/>
	<path d="M58,34.5v4.308c-2.25-4.454-6.704-7.308-11.751-7.308c-6.109,0-11.541,3.997-13.209,9.721
		c-0.154,0.53,0.15,1.085,0.681,1.239c0.531,0.154,1.086-0.151,1.239-0.681c1.398-4.797,6.146-8.279,11.289-8.279
		c4.565,0,8.562,2.766,10.33,7H52v2h8v-8H58z"/>
	<path d="M29.62,40.455L29.62,40.455c0.165-0.612,0.362-1.211,0.587-1.796c0.005-0.012,0.009-0.025,0.014-0.038
		c0.229-0.588,0.488-1.161,0.779-1.716l0,0c2.928-5.582,8.772-9.405,15.5-9.405c0.34,0,0.672,0.032,1.007,0.051
		c0.053-0.146,0.115-0.286,0.166-0.434C49.084,26.47,50,25.075,50,23.5v-4c0-0.963-0.36-1.896-1-2.625v-5.319
		c0.056-0.55,0.276-3.824-2.092-6.525C44.854,2.688,41.521,1.5,37,1.5s-7.854,1.188-9.908,3.53
		c-1.435,1.637-1.918,3.481-2.064,4.805C23.314,8.949,21.294,8.5,19,8.5c-10.389,0-10.994,8.855-11,9v4.579
		c-0.648,0.706-1,1.521-1,2.33v3.454c0,1.079,0.483,2.085,1.311,2.765c0.825,3.11,2.854,5.46,3.644,6.285v2.743
		c0,0.787-0.428,1.509-1.171,1.915l-6.653,4.173C1.583,47.134,0,49.801,0,52.703V56.5h14h2h17.342C30.647,53.421,29,49.403,29,45
		C29,43.426,29.228,41.907,29.62,40.455z M14,54.5H2v-1.797c0-2.17,1.183-4.164,3.089-5.203l0.053-0.029l0.052-0.032l6.609-4.146
		c1.349-0.764,2.152-2.118,2.152-3.636v-2.743V36.11l-0.555-0.58c-0.558-0.583-2.435-2.698-3.156-5.415l-0.165-0.624L9.58,29.082
		C9.211,28.78,9,28.335,9,27.863v-3.454c0-0.298,0.168-0.645,0.474-0.978L10,22.858v-0.779v-4.506c0.078-0.921,0.901-7.073,9-7.073
		c2.392,0,4.408,0.552,6,1.644v4.73c-0.648,0.731-1,1.647-1,2.626v4c0,0.304,0.035,0.603,0.101,0.893
		c0.199,0.867,0.687,1.646,1.393,2.214c0.001,0.001,0.002,0.002,0.003,0.003c0.006,0.023,0.014,0.043,0.019,0.066
		c0.055,0.212,0.116,0.432,0.192,0.686l0.074,0.239c0.011,0.036,0.024,0.067,0.035,0.103c0.063,0.197,0.129,0.386,0.197,0.576
		c0.031,0.088,0.06,0.184,0.092,0.27c0.06,0.162,0.117,0.303,0.173,0.444c0.048,0.12,0.096,0.236,0.146,0.353
		c0.037,0.088,0.075,0.18,0.113,0.266l0.004-0.002c0.018,0.042,0.037,0.083,0.055,0.125l-0.004,0.002
		c0.025,0.055,0.05,0.105,0.075,0.159c0.098,0.215,0.195,0.424,0.295,0.625c0.017,0.034,0.032,0.071,0.049,0.104
		c0.027,0.053,0.054,0.097,0.08,0.149c0.156,0.305,0.31,0.591,0.463,0.86c0.018,0.031,0.034,0.06,0.052,0.091
		c0.575,0.997,1.101,1.74,1.391,2.12L29,36.427c-0.445,0.908-0.82,1.867-1.124,2.862c-0.086,0.061-0.159,0.135-0.253,0.186
		l-8.921,4.866c-0.247,0.135-0.474,0.294-0.705,0.449c-0.108,0.072-0.225,0.133-0.329,0.21c-0.018,0.013-0.033,0.03-0.051,0.043
		C15.361,46.731,14,49.393,14,52.262V54.5z"/>
</g>
<g>
</g>
<g>
</g>
<g>
</g>
<g>
</g>
<g>
</g>
<g>
</g>
<g>
</g>
<g>
</g>
<g>
</g>
<g>
</g>
<g>
</g>
<g>
</g>
<g>
</g>
<g>
</g>
<g>
</g>
</svg>
