<?xml version="1.0" encoding="iso-8859-1"?>
<!-- Generator: Adobe Illustrator 18.0.0, SVG Export Plug-In . SVG Version: 6.00 Build 0)  -->
<!DOCTYPE svg PUBLIC "-//W3C//DTD SVG 1.1//EN" "http://www.w3.org/Graphics/SVG/1.1/DTD/svg11.dtd">
<svg version="1.1" id="Capa_1" xmlns="http://www.w3.org/2000/svg" xmlns:xlink="http://www.w3.org/1999/xlink" x="0px" y="0px"
	 viewBox="0 0 59 59" style="enable-background:new 0 0 59 59;" xml:space="preserve">
<g>
	<path d="M58.188,42.863l-1.444-0.277c-0.677-0.13-1.21-0.573-1.462-1.216c-0.253-0.642-0.163-1.329,0.245-1.885l0.907-1.236
		c0.292-0.398,0.25-0.95-0.1-1.299l-1.959-1.958c-0.339-0.339-0.872-0.388-1.268-0.121l-1.217,0.824
		c-0.331,0.224-0.71,0.343-1.099,0.343c-0.844,0-1.787-0.576-1.956-1.676l-0.233-1.515C48.528,32.36,48.108,32,47.615,32h-2.77
		c-0.479,0-0.892,0.341-0.982,0.812l-0.358,1.865c-0.201,1.051-1.13,1.601-1.942,1.601c-0.389,0-0.769-0.118-1.099-0.342
		l-1.572-1.064c-0.396-0.267-0.929-0.218-1.268,0.121l-1.959,1.958c-0.35,0.349-0.392,0.9-0.1,1.299l0.907,1.236
		c0.408,0.556,0.498,1.243,0.245,1.885c-0.252,0.643-0.785,1.086-1.462,1.216l-1.444,0.277C33.341,42.954,33,43.366,33,43.846v2.77
		c0,0.493,0.36,0.913,0.848,0.988l1.515,0.233c0.683,0.105,1.232,0.528,1.508,1.16c0.276,0.633,0.212,1.323-0.175,1.895
		l-0.824,1.217c-0.269,0.396-0.218,0.929,0.121,1.268l1.958,1.959c0.348,0.349,0.899,0.391,1.299,0.1l1.236-0.907
		c0.342-0.252,0.742-0.385,1.156-0.385c0.813,0,1.742,0.551,1.944,1.602l0.277,1.444C43.954,57.659,44.366,58,44.846,58h2.77
		c0.493,0,0.913-0.36,0.988-0.848l0.164-1.065c0.169-1.1,1.113-1.676,1.958-1.676c0.413,0,0.813,0.134,1.156,0.386l0.869,0.638
		c0.399,0.293,0.951,0.25,1.299-0.1l1.958-1.959c0.339-0.339,0.39-0.871,0.121-1.268l-0.824-1.217
		c-0.387-0.571-0.451-1.262-0.175-1.895c0.275-0.632,0.825-1.055,1.508-1.16l1.515-0.233C58.64,47.528,59,47.108,59,46.615v-2.77
		C59,43.366,58.659,42.954,58.188,42.863z M57,45.758l-0.667,0.103c-1.354,0.208-2.489,1.082-3.036,2.337
		c-0.548,1.256-0.416,2.682,0.352,3.815l0.361,0.533l-0.768,0.768l-0.177-0.13c-0.689-0.505-1.498-0.772-2.34-0.772
		c-1.979,0-3.635,1.418-3.935,3.371L46.758,56h-1.086l-0.121-0.633c-0.359-1.868-2.004-3.225-3.909-3.225
		c-0.843,0-1.651,0.268-2.34,0.771l-0.544,0.399l-0.768-0.768l0.361-0.533c0.768-1.134,0.899-2.56,0.352-3.815
		c-0.547-1.255-1.683-2.129-3.036-2.337L35,45.758v-1.086l0.633-0.121c1.346-0.259,2.447-1.175,2.947-2.449
		c0.5-1.275,0.315-2.695-0.494-3.8l-0.399-0.544l0.768-0.768l0.889,0.602c0.662,0.448,1.43,0.686,2.22,0.686
		c1.905,0,3.548-1.355,3.907-3.224L45.672,34h1.086l0.103,0.667c0.301,1.953,1.955,3.371,3.934,3.371
		c0.789,0,1.556-0.237,2.219-0.687l0.533-0.361l0.768,0.768l-0.399,0.544c-0.81,1.104-0.994,2.524-0.494,3.8
		c0.5,1.274,1.602,2.19,2.947,2.449L57,44.672V45.758z"/>
	<path d="M46,40c-2.757,0-5,2.243-5,5s2.243,5,5,5s5-2.243,5-5S48.757,40,46,40z M46,48c-1.654,0-3-1.346-3-3s1.346-3,3-3
		s3,1.346,3,3S47.654,48,46,48z"/>
	<path d="M31.998,52.477l1.303-1.923l-2.453-0.377C30.36,50.102,30,49.682,30,49.188v-7.821c0-0.479,0.341-0.892,0.812-0.982
		l2.28-0.438l-1.469-2c-0.292-0.398-0.25-0.95,0.1-1.299l5.532-5.529c0.34-0.338,0.871-0.389,1.268-0.121l2.338,1.583l0.054-0.315
		l0.471-2.454C41.476,29.341,41.888,29,42.367,29h4.325c0.363-0.772,0.699-1.562,0.981-2.383C49.084,25.97,50,24.575,50,23v-4
		c0-0.963-0.36-1.896-1-2.625v-5.319c0.056-0.55,0.276-3.824-2.092-6.525C44.854,2.188,41.521,1,37,1s-7.854,1.188-9.908,3.53
		c-1.435,1.637-1.918,3.481-2.064,4.805C23.314,8.449,21.294,8,19,8C8.611,8,8.006,16.855,8,17v4.579c-0.648,0.706-1,1.521-1,2.33
		v3.454c0,1.079,0.483,2.085,1.311,2.765c0.825,3.11,2.854,5.46,3.644,6.285v2.743c0,0.787-0.428,1.509-1.171,1.915l-6.653,4.173
		C1.583,46.634,0,49.301,0,52.203V56h14h2h18.373l-2.254-2.256C31.78,53.405,31.729,52.873,31.998,52.477z M14,54H2v-1.797
		c0-2.17,1.183-4.164,3.089-5.203l0.053-0.029l0.052-0.032l6.609-4.146c1.349-0.764,2.152-2.118,2.152-3.636v-2.743V35.61
		l-0.555-0.58c-0.558-0.583-2.436-2.698-3.156-5.415l-0.165-0.624L9.58,28.582C9.211,28.28,9,27.835,9,27.363v-3.454
		c0-0.298,0.168-0.645,0.474-0.978L10,22.358v-0.779v-4.506C10.078,16.152,10.901,10,19,10c2.392,0,4.408,0.552,6,1.644v4.73
		c-0.648,0.731-1,1.647-1,2.626v4c0,0.304,0.035,0.603,0.101,0.893c0.199,0.867,0.687,1.646,1.393,2.214
		c0.001,0.001,0.002,0.002,0.003,0.003c0.006,0.023,0.014,0.044,0.02,0.067c0.055,0.212,0.116,0.432,0.192,0.686l0.074,0.239
		c0.011,0.036,0.024,0.068,0.036,0.104c0.063,0.197,0.129,0.386,0.197,0.576c0.031,0.088,0.06,0.183,0.092,0.269
		c0.061,0.163,0.117,0.305,0.174,0.446c0.048,0.119,0.095,0.234,0.144,0.349c0.038,0.089,0.076,0.181,0.114,0.267l0.004-0.002
		c0.018,0.042,0.037,0.083,0.055,0.125l-0.004,0.002c0.024,0.055,0.05,0.104,0.075,0.159c0.098,0.216,0.195,0.425,0.296,0.627
		c0.016,0.033,0.032,0.07,0.048,0.103c0.026,0.052,0.053,0.096,0.079,0.147c0.157,0.306,0.311,0.594,0.465,0.864
		c0.017,0.03,0.033,0.058,0.05,0.087c0.575,0.997,1.102,1.742,1.392,2.122L29,36.655c0,0.242-0.033,0.479-0.096,0.706
		c-0.188,0.68-0.645,1.267-1.282,1.615l-8.921,4.866c-0.21,0.115-0.402,0.253-0.6,0.382C15.563,45.88,14,48.697,14,51.762V54z"/>
</g>
<g>
</g>
<g>
</g>
<g>
</g>
<g>
</g>
<g>
</g>
<g>
</g>
<g>
</g>
<g>
</g>
<g>
</g>
<g>
</g>
<g>
</g>
<g>
</g>
<g>
</g>
<g>
</g>
<g>
</g>
</svg>
