<?xml version="1.0" encoding="iso-8859-1"?>
<!-- Generator: Adobe Illustrator 18.0.0, SVG Export Plug-In . SVG Version: 6.00 Build 0)  -->
<!DOCTYPE svg PUBLIC "-//W3C//DTD SVG 1.1//EN" "http://www.w3.org/Graphics/SVG/1.1/DTD/svg11.dtd">
<svg version="1.1" id="Capa_1" xmlns="http://www.w3.org/2000/svg" xmlns:xlink="http://www.w3.org/1999/xlink" x="0px" y="0px"
	 viewBox="0 0 58 58" style="enable-background:new 0 0 58 58;" xml:space="preserve">
<g>
	<path d="M53.5,40v-1c0-3.859-3.14-7-7-7s-7,3.141-7,7v1h-4v18h22V40H53.5z M41.5,39c0-2.757,2.243-5,5-5s5,2.243,5,5v1h-10V39z
		 M55.5,56h-18V42h2h14h2V56z"/>
	<path d="M46.5,44c-2.206,0-4,1.794-4,4c0,1.859,1.28,3.411,3,3.858V53c0,0.553,0.448,1,1,1s1-0.447,1-1v-1.142
		c1.72-0.447,3-1.999,3-3.858C50.5,45.794,48.706,44,46.5,44z M46.5,50c-1.103,0-2-0.897-2-2s0.897-2,2-2s2,0.897,2,2
		S47.603,50,46.5,50z"/>
	<path d="M39.637,27.613v-3.545c0-0.867-0.318-1.708-0.887-2.369v-4.667c0.052-0.52,0.236-3.448-1.883-5.864
		C35.024,9.065,32.041,8,28,8s-7.024,1.065-8.867,3.168c-2.119,2.416-1.935,5.346-1.883,5.864v4.667
		c-0.568,0.661-0.887,1.502-0.887,2.369v3.545c0,1.101,0.494,2.128,1.34,2.821c0.81,3.173,2.477,5.575,3.093,6.389v2.894
		c0,0.816-0.445,1.566-1.162,1.958l-7.907,4.313c-0.252,0.137-0.502,0.297-0.752,0.476C5.776,41.792,2.5,35.022,2.5,27.5
		C2.5,13.439,13.939,2,28,2s25.5,11.439,25.5,25.5c0,1.386-0.114,2.746-0.328,4.073c0.632,0.568,1.196,1.21,1.667,1.921
		c0.431-1.93,0.661-3.935,0.661-5.993C55.5,12.337,43.163,0,28,0S0.5,12.337,0.5,27.5c0,8.009,3.444,15.228,8.926,20.258
		l-0.026,0.023l0.892,0.752c0.058,0.049,0.121,0.089,0.179,0.137c0.474,0.393,0.965,0.766,1.465,1.127
		c0.162,0.117,0.324,0.235,0.489,0.348c0.534,0.368,1.082,0.717,1.642,1.048c0.122,0.072,0.245,0.142,0.368,0.212
		c0.613,0.349,1.239,0.678,1.88,0.98c0.047,0.022,0.095,0.042,0.142,0.064c2.089,0.971,4.319,1.684,6.651,2.105
		c0.061,0.011,0.122,0.022,0.184,0.033c0.724,0.125,1.456,0.225,2.197,0.292c0.09,0.008,0.18,0.013,0.271,0.021
		C26.498,54.961,27.244,55,28,55c0.749,0,1.488-0.039,2.222-0.098c0.093-0.008,0.186-0.013,0.279-0.021
		c0.674-0.061,1.339-0.155,1.999-0.264V37h1.818v-0.157c0.196-0.242,0.403-0.516,0.617-0.817c1.096-1.548,1.975-3.27,2.616-5.123
		C38.818,30.301,39.637,29.038,39.637,27.613z"/>
</g>
<g>
</g>
<g>
</g>
<g>
</g>
<g>
</g>
<g>
</g>
<g>
</g>
<g>
</g>
<g>
</g>
<g>
</g>
<g>
</g>
<g>
</g>
<g>
</g>
<g>
</g>
<g>
</g>
<g>
</g>
</svg>
