<?xml version="1.0" encoding="iso-8859-1"?>
<!-- Generator: Adobe Illustrator 18.0.0, SVG Export Plug-In . SVG Version: 6.00 Build 0)  -->
<!DOCTYPE svg PUBLIC "-//W3C//DTD SVG 1.1//EN" "http://www.w3.org/Graphics/SVG/1.1/DTD/svg11.dtd">
<svg version="1.1" id="Capa_1" xmlns="http://www.w3.org/2000/svg" xmlns:xlink="http://www.w3.org/1999/xlink" x="0px" y="0px"
	 viewBox="0 0 56.27 56.27" style="enable-background:new 0 0 56.27 56.27;" xml:space="preserve">
<g>
	<path d="M55.261,33.724l-2.85-2.85c-1.128-1.127-3.092-1.127-4.221,0L32.799,46.265l-2.121,7.779l-0.519,0.519
		c-0.388,0.388-0.389,1.014-0.006,1.405l-0.005,0.02l0.019-0.005c0.194,0.191,0.446,0.288,0.699,0.288
		c0.256,0,0.512-0.098,0.707-0.293l0.52-0.52l7.778-2.121l15.39-15.391C56.425,36.781,56.425,34.888,55.261,33.724z M35.108,46.784
		l10.243-10.243l4.243,4.242L39.351,51.027L35.108,46.784z M34.206,48.71l3.22,3.22l-4.428,1.208L34.206,48.71z M53.847,36.531
		l-2.839,2.839l-4.243-4.242l2.839-2.839c0.373-0.373,1.022-0.372,1.394-0.001l2.85,2.85C54.231,35.521,54.231,36.147,53.847,36.531
		z"/>
	<path d="M34.613,40.208L34.822,40l7.797-7.797c-1.548-3.121-2.958-6.948-3.22-10.912c-0.143-2.147-0.547-3.938-1.237-5.473
		c-1.424-3.164-4.469-6.947-10.91-7c-10.964,0.09-11.33,11.206-11.332,11.32c-0.125,6.47-4.134,12.855-5.851,15.3
		C9.6,36.104,9.451,36.75,9.624,37.359c0.188,0.66,0.719,1.171,1.625,1.56c1.917,0.823,4.322,1.066,4.521,1.081h6.084
		c-0.167,0.324-0.395,0.735-0.512,0.813l-9.166,3.933c-0.713,0.356-1.349,0.83-1.914,1.395C5.267,41.483,2.135,34.852,2.135,27.5
		c0-14.061,11.439-25.5,25.5-25.5s25.5,11.439,25.5,25.5c0,0.07-0.005,0.139-0.006,0.208c0.509,0.274,0.981,0.623,1.402,1.043
		l0.539,0.539c0.038-0.593,0.065-1.189,0.065-1.791c0-15.163-12.336-27.5-27.5-27.5s-27.5,12.337-27.5,27.5
		c0,7.976,3.417,15.167,8.86,20.195l-0.072,0.098l0.705,0.604c3.904,3.342,8.655,5.483,13.681,6.26
		c0.356,0.056,0.715,0.102,1.075,0.145c0.391,0.045,0.782,0.084,1.176,0.112c0.579,0.043,1.162,0.071,1.75,0.078l2.805-10.285
		L34.613,40.208z"/>
</g>
<g>
</g>
<g>
</g>
<g>
</g>
<g>
</g>
<g>
</g>
<g>
</g>
<g>
</g>
<g>
</g>
<g>
</g>
<g>
</g>
<g>
</g>
<g>
</g>
<g>
</g>
<g>
</g>
<g>
</g>
</svg>
