<?xml version="1.0" encoding="iso-8859-1"?>
<!-- Generator: Adobe Illustrator 18.0.0, SVG Export Plug-In . SVG Version: 6.00 Build 0)  -->
<!DOCTYPE svg PUBLIC "-//W3C//DTD SVG 1.1//EN" "http://www.w3.org/Graphics/SVG/1.1/DTD/svg11.dtd">
<svg version="1.1" id="Capa_1" xmlns="http://www.w3.org/2000/svg" xmlns:xlink="http://www.w3.org/1999/xlink" x="0px" y="0px"
	 viewBox="0 0 57 57" style="enable-background:new 0 0 57 57;" xml:space="preserve">
<g>
	<path d="M53,39v-1c0-3.859-3.14-7-7-7s-7,3.141-7,7v1h-4v18h22V39H53z M41,38c0-2.757,2.243-5,5-5s5,2.243,5,5v1H41V38z M55,55H37
		V41h2h14h2V55z"/>
	<path d="M46,43c-2.206,0-4,1.794-4,4c0,1.859,1.28,3.411,3,3.858V52c0,0.553,0.448,1,1,1s1-0.447,1-1v-1.142
		c1.72-0.447,3-1.999,3-3.858C50,44.794,48.206,43,46,43z M46,49c-1.103,0-2-0.897-2-2s0.897-2,2-2s2,0.897,2,2S47.103,49,46,49z"/>
	<path d="M46,28c0.228,0,0.451,0.019,0.676,0.034c0.37-0.782,0.711-1.584,0.997-2.417C49.084,24.97,50,23.575,50,22v-4
		c0-0.963-0.36-1.896-1-2.625v-5.319c0.056-0.55,0.276-3.824-2.092-6.525C44.854,1.188,41.521,0,37,0s-7.854,1.188-9.908,3.53
		c-1.435,1.637-1.918,3.481-2.064,4.805C23.314,7.449,21.294,7,19,7C8.611,7,8.006,15.855,8,16v4.579c-0.648,0.706-1,1.521-1,2.33
		v3.454c0,1.079,0.483,2.085,1.311,2.765c0.825,3.11,2.854,5.46,3.644,6.285v2.743c0,0.787-0.428,1.509-1.171,1.915l-6.653,4.173
		C1.583,45.634,0,48.301,0,51.203V55h14h2h16V36h4.202C37.131,31.441,41.171,28,46,28z M14,53H2v-1.797
		c0-2.17,1.183-4.164,3.089-5.203l0.053-0.029l0.052-0.032l6.609-4.146c1.349-0.764,2.152-2.118,2.152-3.636v-2.743V34.61
		l-0.555-0.58c-0.558-0.583-2.435-2.698-3.156-5.415l-0.165-0.624L9.58,27.582C9.211,27.28,9,26.835,9,26.363v-3.454
		c0-0.298,0.168-0.645,0.474-0.978L10,21.358v-0.779v-4.506C10.078,15.152,10.901,9,19,9c2.392,0,4.408,0.552,6,1.644v4.73
		c-0.648,0.731-1,1.647-1,2.626v4c0,0.304,0.035,0.603,0.101,0.893c0.199,0.867,0.687,1.646,1.393,2.214
		c0.001,0.001,0.002,0.002,0.003,0.003c0.006,0.023,0.014,0.043,0.019,0.066c0.055,0.212,0.116,0.432,0.192,0.686l0.074,0.239
		c0.011,0.036,0.024,0.067,0.035,0.103c0.063,0.197,0.129,0.387,0.197,0.578c0.031,0.088,0.06,0.183,0.092,0.269
		c0.06,0.162,0.116,0.303,0.173,0.443c0.048,0.12,0.096,0.237,0.146,0.354c0.037,0.088,0.075,0.18,0.113,0.266l0.004-0.002
		c0.018,0.042,0.037,0.083,0.055,0.125l-0.004,0.002c0.024,0.055,0.05,0.104,0.075,0.159c0.098,0.216,0.195,0.425,0.296,0.627
		c0.016,0.033,0.032,0.07,0.048,0.103c0.026,0.052,0.053,0.096,0.079,0.147c0.157,0.306,0.311,0.594,0.465,0.864
		c0.017,0.03,0.033,0.058,0.05,0.087c0.575,0.998,1.102,1.742,1.392,2.122L29,35.655c0,0.242-0.033,0.479-0.096,0.706
		c-0.188,0.68-0.644,1.267-1.282,1.615l-8.921,4.866c-0.247,0.135-0.474,0.294-0.705,0.449c-0.108,0.072-0.225,0.133-0.329,0.21
		c-0.018,0.013-0.033,0.03-0.051,0.043C15.361,45.231,14,47.893,14,50.762V53z"/>
</g>
<g>
</g>
<g>
</g>
<g>
</g>
<g>
</g>
<g>
</g>
<g>
</g>
<g>
</g>
<g>
</g>
<g>
</g>
<g>
</g>
<g>
</g>
<g>
</g>
<g>
</g>
<g>
</g>
<g>
</g>
</svg>
