<?xml version="1.0" encoding="iso-8859-1"?>
<!-- Generator: Adobe Illustrator 18.0.0, SVG Export Plug-In . SVG Version: 6.00 Build 0)  -->
<!DOCTYPE svg PUBLIC "-//W3C//DTD SVG 1.1//EN" "http://www.w3.org/Graphics/SVG/1.1/DTD/svg11.dtd">
<svg version="1.1" id="Capa_1" xmlns="http://www.w3.org/2000/svg" xmlns:xlink="http://www.w3.org/1999/xlink" x="0px" y="0px"
	 viewBox="0 0 58 58" style="enable-background:new 0 0 58 58;" xml:space="preserve">
<g>
	<path d="M43.585,35.042c-0.27-0.032-0.543-0.053-0.821-0.053c-0.491,0-0.969,0.053-1.431,0.151
		c-4.595,0.594-8.827,3.552-12.062,8.492l-0.466,0.711l0.359,0.548c3.635,5.552,8.529,8.609,13.783,8.609
		c5.253,0,10.148-3.058,13.783-8.609l0.466-0.711l-0.359-0.548C53.325,38.268,48.636,35.241,43.585,35.042z M47.673,41.897
		c0,2.707-2.202,4.909-4.909,4.909s-4.909-2.202-4.909-4.909c0-2.343,1.652-4.302,3.852-4.788c0.446-0.053,0.895-0.087,1.348-0.087
		c0.025,0,0.05,0.002,0.075,0.003C45.663,37.216,47.673,39.315,47.673,41.897z M42.947,51.5c-4.387,0-8.538-2.537-11.744-7.161
		c1.559-2.286,3.348-4.069,5.28-5.304c-0.4,0.874-0.629,1.841-0.629,2.863c0,3.81,3.1,6.909,6.909,6.909s6.909-3.1,6.909-6.909
		c0-1.216-0.318-2.357-0.872-3.351c2.204,1.207,4.242,3.107,5.996,5.637C51.577,48.906,47.383,51.5,42.947,51.5z"/>
	<path d="M57,4.5H1c-0.552,0-1,0.447-1,1v44c0,0.553,0.448,1,1,1h28.803c-1.124-1.166-2.18-2.485-3.149-3.966l-1.436-2.192
		l1.543-2.354c4.207-6.426,9.993-9.965,16.292-9.965c1.693,0,3.348,0.264,4.946,0.763V28.5h8v9h-0.321
		c0.81,0.79,1.584,1.662,2.321,2.612V5.5C58,4.947,57.552,4.5,57,4.5z M10,48.5H2v-9h8V48.5z M10,37.5H2v-9h8V37.5z M10,26.5H2v-9h8
		V26.5z M10,15.5H2v-9h8V15.5z M36.537,28.344l-11,7C25.374,35.447,25.187,35.5,25,35.5c-0.166,0-0.331-0.041-0.481-0.123
		C24.199,35.201,24,34.865,24,34.5v-14c0-0.365,0.199-0.701,0.519-0.877c0.32-0.175,0.71-0.162,1.019,0.033l11,7
		C36.825,26.84,37,27.158,37,27.5S36.825,28.16,36.537,28.344z M56,26.5h-8v-9h8V26.5z M56,15.5h-8v-9h8V15.5z"/>
</g>
<g>
</g>
<g>
</g>
<g>
</g>
<g>
</g>
<g>
</g>
<g>
</g>
<g>
</g>
<g>
</g>
<g>
</g>
<g>
</g>
<g>
</g>
<g>
</g>
<g>
</g>
<g>
</g>
<g>
</g>
</svg>
