<?xml version="1.0" encoding="iso-8859-1"?>
<!-- Generator: Adobe Illustrator 18.0.0, SVG Export Plug-In . SVG Version: 6.00 Build 0)  -->
<!DOCTYPE svg PUBLIC "-//W3C//DTD SVG 1.1//EN" "http://www.w3.org/Graphics/SVG/1.1/DTD/svg11.dtd">
<svg version="1.1" id="Capa_1" xmlns="http://www.w3.org/2000/svg" xmlns:xlink="http://www.w3.org/1999/xlink" x="0px" y="0px"
	 viewBox="0 0 58 58" style="enable-background:new 0 0 58 58;" xml:space="preserve">
<g>
	<path d="M52,37c0-3.859-3.14-7-7-7s-7,3.141-7,7v1h-4v18h22V38h-4V37z M40,37c0-2.757,2.243-5,5-5s5,2.243,5,5v1H40V37z M54,40v14
		H36V40h2h14H54z"/>
	<path d="M44,49.858V51c0,0.553,0.448,1,1,1s1-0.447,1-1v-1.142c1.72-0.447,3-1.999,3-3.858c0-2.206-1.794-4-4-4s-4,1.794-4,4
		C41,47.859,42.28,49.411,44,49.858z M45,44c1.103,0,2,0.897,2,2s-0.897,2-2,2s-2-0.897-2-2S43.897,44,45,44z"/>
	<path d="M57,2H1C0.448,2,0,2.447,0,3v44c0,0.553,0.448,1,1,1h30V35h4.202c0.929-4.559,4.969-8,9.798-8c1.045,0,2.052,0.162,3,0.461
		V26h8v9h2V3C58,2.447,57.552,2,57,2z M10,46H2v-9h8V46z M10,35H2v-9h8V35z M10,24H2v-9h8V24z M10,13H2V4h8V13z M36.537,25.844
		l-11,7C25.374,32.947,25.187,33,25,33c-0.166,0-0.331-0.041-0.481-0.123C24.199,32.701,24,32.365,24,32V18
		c0-0.365,0.199-0.701,0.519-0.877c0.32-0.175,0.71-0.162,1.019,0.033l11,7C36.825,24.34,37,24.658,37,25
		S36.825,25.66,36.537,25.844z M56,24h-8v-9h8V24z M56,13h-8V4h8V13z"/>
</g>
<g>
</g>
<g>
</g>
<g>
</g>
<g>
</g>
<g>
</g>
<g>
</g>
<g>
</g>
<g>
</g>
<g>
</g>
<g>
</g>
<g>
</g>
<g>
</g>
<g>
</g>
<g>
</g>
<g>
</g>
</svg>
