<?xml version="1.0" encoding="iso-8859-1"?>
<!-- Generator: Adobe Illustrator 18.0.0, SVG Export Plug-In . SVG Version: 6.00 Build 0)  -->
<!DOCTYPE svg PUBLIC "-//W3C//DTD SVG 1.1//EN" "http://www.w3.org/Graphics/SVG/1.1/DTD/svg11.dtd">
<svg version="1.1" id="Capa_1" xmlns="http://www.w3.org/2000/svg" xmlns:xlink="http://www.w3.org/1999/xlink" x="0px" y="0px"
	 viewBox="0 0 59.018 59.018" style="enable-background:new 0 0 59.018 59.018;" xml:space="preserve">
<g>
	<path d="M58.741,54.809l-5.969-6.244c1.746-1.919,2.82-4.458,2.82-7.25c0-5.953-4.843-10.796-10.796-10.796S34,35.361,34,41.314
		S38.843,52.11,44.796,52.11c2.441,0,4.688-0.824,6.499-2.196l6.001,6.277c0.196,0.205,0.459,0.309,0.723,0.309
		c0.249,0,0.497-0.092,0.691-0.277C59.108,55.841,59.123,55.208,58.741,54.809z M36,41.314c0-4.85,3.946-8.796,8.796-8.796
		s8.796,3.946,8.796,8.796s-3.946,8.796-8.796,8.796S36,46.164,36,41.314z"/>
	<path d="M56,37.518h-0.047c0.015,0.043,0.032,0.084,0.047,0.127V37.518z"/>
	<path d="M44.796,27.518c1.105,0,2.174,0.145,3.204,0.391v-1.391h8v6.777c0.872,1.215,1.557,2.571,2,4.035V3.518
		c0-0.553-0.448-1-1-1H1c-0.552,0-1,0.447-1,1v44c0,0.553,0.448,1,1,1h32.053C31.76,46.419,31,43.956,31,41.314
		C31,33.707,37.188,27.518,44.796,27.518z M48,4.518h8v9h-8V4.518z M48,15.518h8v9h-8V15.518z M10,46.518H2v-9h8V46.518z M10,35.518
		H2v-9h8V35.518z M10,24.518H2v-9h8V24.518z M10,13.518H2v-9h8V13.518z M25,33.518c-0.166,0-0.331-0.041-0.481-0.123
		C24.199,33.22,24,32.884,24,32.518v-14c0-0.365,0.199-0.701,0.519-0.877c0.32-0.175,0.71-0.162,1.019,0.033l11,7
		C36.825,24.858,37,25.177,37,25.518s-0.175,0.66-0.463,0.844l-11,7C25.374,33.466,25.187,33.518,25,33.518z"/>
</g>
<g>
</g>
<g>
</g>
<g>
</g>
<g>
</g>
<g>
</g>
<g>
</g>
<g>
</g>
<g>
</g>
<g>
</g>
<g>
</g>
<g>
</g>
<g>
</g>
<g>
</g>
<g>
</g>
<g>
</g>
</svg>
