<?xml version="1.0" encoding="iso-8859-1"?>
<!-- Generator: Adobe Illustrator 18.0.0, SVG Export Plug-In . SVG Version: 6.00 Build 0)  -->
<!DOCTYPE svg PUBLIC "-//W3C//DTD SVG 1.1//EN" "http://www.w3.org/Graphics/SVG/1.1/DTD/svg11.dtd">
<svg version="1.1" id="Capa_1" xmlns="http://www.w3.org/2000/svg" xmlns:xlink="http://www.w3.org/1999/xlink" x="0px" y="0px"
	 viewBox="0 0 59 59" style="enable-background:new 0 0 59 59;" xml:space="preserve">
<g>
	<path d="M58.953,41.6c-0.116-0.367-0.434-0.634-0.814-0.688l-7.777-1.089l-3.472-6.78c-0.342-0.668-1.438-0.668-1.779,0
		l-3.472,6.78l-7.777,1.089c-0.381,0.054-0.698,0.32-0.814,0.688s-0.012,0.768,0.269,1.031l5.605,5.267L37.6,55.325
		c-0.066,0.373,0.084,0.752,0.388,0.978c0.305,0.227,0.711,0.262,1.049,0.089L46,52.863l6.964,3.528
		c0.143,0.073,0.298,0.108,0.452,0.108c0.211,0,0.421-0.066,0.597-0.197c0.304-0.226,0.454-0.604,0.388-0.978l-1.321-7.427
		l5.605-5.267C58.965,42.368,59.069,41.967,58.953,41.6z M51.315,46.811c-0.246,0.231-0.359,0.571-0.3,0.903l1.064,5.987
		l-5.628-2.852c-0.143-0.072-0.297-0.108-0.452-0.108s-0.31,0.036-0.452,0.108l-5.628,2.852l1.064-5.987
		c0.06-0.332-0.054-0.672-0.3-0.903l-4.479-4.207l6.225-0.872c0.322-0.045,0.603-0.244,0.751-0.534L46,35.694l2.818,5.504
		c0.148,0.29,0.429,0.489,0.751,0.534l6.225,0.872L51.315,46.811z"/>
	<path d="M26.428,39.498c0.116-0.367,0.434-0.634,0.814-0.688l12.437-1.741l5.432-10.608c0.342-0.668,1.438-0.668,1.779,0L48,28.629
		V26.5h8v4.916v2V33.5h2v-30c0-0.553-0.448-1-1-1H1c-0.552,0-1,0.447-1,1v44c0,0.553,0.448,1,1,1h34.18l-8.483-7.971
		C26.416,40.265,26.312,39.865,26.428,39.498z M48,4.5h8v9h-8V4.5z M48,15.5h8v9h-8V15.5z M10,46.5H2v-9h8V46.5z M10,35.5H2v-9h8
		V35.5z M10,24.5H2v-9h8V24.5z M10,13.5H2v-9h8V13.5z M25,33.5c-0.166,0-0.331-0.041-0.481-0.123C24.199,33.201,24,32.865,24,32.5
		v-14c0-0.365,0.199-0.701,0.519-0.877c0.32-0.175,0.71-0.162,1.019,0.033l11,7C36.825,24.84,37,25.158,37,25.5
		s-0.175,0.66-0.463,0.844l-11,7C25.374,33.447,25.187,33.5,25,33.5z"/>
</g>
<g>
</g>
<g>
</g>
<g>
</g>
<g>
</g>
<g>
</g>
<g>
</g>
<g>
</g>
<g>
</g>
<g>
</g>
<g>
</g>
<g>
</g>
<g>
</g>
<g>
</g>
<g>
</g>
<g>
</g>
</svg>
