<?xml version="1.0" encoding="iso-8859-1"?>
<!-- Generator: Adobe Illustrator 18.0.0, SVG Export Plug-In . SVG Version: 6.00 Build 0)  -->
<!DOCTYPE svg PUBLIC "-//W3C//DTD SVG 1.1//EN" "http://www.w3.org/Graphics/SVG/1.1/DTD/svg11.dtd">
<svg version="1.1" id="Capa_1" xmlns="http://www.w3.org/2000/svg" xmlns:xlink="http://www.w3.org/1999/xlink" x="0px" y="0px"
	 viewBox="0 0 60 60" style="enable-background:new 0 0 60 60;" xml:space="preserve">
<g>
	<path d="M56,43.832c-0.43-4.107-3.853-7.332-7.954-7.332c-2.565,0-4.984,1.286-6.479,3.402c-0.292-0.051-0.588-0.076-0.884-0.076
		c-2.32,0-4.381,1.577-5.066,3.813C33.709,44.77,32.5,46.88,32.5,49.142c0,3.506,2.785,6.358,6.208,6.358h10.774
		c0.063,0,0.124-0.004,0.172-0.008c0.062,0.004,0.124,0.008,0.188,0.008h4.31c3.225,0,5.849-2.687,5.849-5.989
		C60,46.911,58.358,44.638,56,43.832z M54.151,53.5L49.8,53.497l-0.186-0.006L38.708,53.5c-2.32,0-4.208-1.955-4.208-4.358
		c0-1.666,0.948-3.21,2.417-3.935l0.435-0.214l0.102-0.475c0.331-1.56,1.689-2.692,3.229-2.692c0.344,0,0.687,0.057,1.019,0.169
		l0.777,0.261l0.409-0.711c1.096-1.906,3.023-3.045,5.158-3.045c3.265,0,5.955,2.747,5.999,6.123l0.011,0.813l0.799,0.155
		C56.677,45.946,58,47.594,58,49.511C58,51.71,56.273,53.5,54.151,53.5z"/>
	<path d="M33.158,41.689c1.305-2.82,4.02-4.68,7.064-4.851c2.056-2.116,4.864-3.324,7.777-3.336V28.5h8v8.506
		c0.811,0.865,1.49,1.862,2,2.96V5.5c0-0.553-0.448-1-1-1H1c-0.552,0-1,0.447-1,1v44c0,0.553,0.448,1,1,1h28.608
		c-0.064-0.445-0.108-0.896-0.108-1.358C29.5,46.229,30.862,43.463,33.158,41.689z M48,6.5h8v9h-8V6.5z M48,17.5h8v9h-8V17.5z
		 M10,48.5H2v-9h8V48.5z M10,37.5H2v-9h8V37.5z M10,26.5H2v-9h8V26.5z M10,15.5H2v-9h8V15.5z M25.537,35.344
		C25.374,35.447,25.187,35.5,25,35.5c-0.166,0-0.331-0.041-0.481-0.123C24.199,35.201,24,34.865,24,34.5v-14
		c0-0.365,0.199-0.701,0.519-0.877c0.32-0.175,0.71-0.162,1.019,0.033l11,7C36.825,26.84,37,27.158,37,27.5s-0.175,0.66-0.463,0.844
		L25.537,35.344z"/>
</g>
<g>
</g>
<g>
</g>
<g>
</g>
<g>
</g>
<g>
</g>
<g>
</g>
<g>
</g>
<g>
</g>
<g>
</g>
<g>
</g>
<g>
</g>
<g>
</g>
<g>
</g>
<g>
</g>
<g>
</g>
</svg>
