<?xml version="1.0" encoding="iso-8859-1"?>
<!-- Generator: Adobe Illustrator 19.0.0, SVG Export Plug-In . SVG Version: 6.00 Build 0)  -->
<svg xmlns="http://www.w3.org/2000/svg" xmlns:xlink="http://www.w3.org/1999/xlink" version="1.1" id="Layer_1" x="0px" y="0px" viewBox="0 0 512 512" style="enable-background:new 0 0 512 512;" xml:space="preserve">
<g>
	<g>
		<circle cx="94.802" cy="173.094" r="33.946"/>
	</g>
</g>
<g>
	<g>
		<path d="M239.502,36.628c-42.077,0-76.187,23.661-76.187,52.848c0,8.521,2.925,16.564,8.088,23.691l-9.945,22.889    c-1.586,3.654,2.424,7.239,5.879,5.245l21.465-12.39c13.469,8.338,31.227,13.413,50.7,13.413    c42.076,0,76.186-23.661,76.186-52.848C315.688,60.289,281.578,36.628,239.502,36.628z M249.395,65.14    c2.002,0,3.695,1.13,3.695,3.13c0,6.106-0.718,14.881-0.718,20.986c0,1.59-1.745,2.258-2.977,2.258    c-1.642,0-3.026-0.668-3.026-2.258c0-6.106-0.718-14.881-0.718-20.986C245.651,66.268,247.293,65.14,249.395,65.14z     M211.889,103.162c-0.615,0-1.385-0.206-1.795-0.821l-4.721-7.082l-4.668,7.082c-0.411,0.564-1.334,0.821-1.899,0.821    c-1.642,0-5.131-2.104-5.131-3.951c0-0.463,0.204-0.977,0.461-1.335l5.798-7.696l-5.234-6.979    c-0.206-0.257-0.513-0.77-0.513-1.282c0-1.795,3.335-4.002,5.387-4.002c0.308,0,1.232,0.051,1.693,0.821l4.104,6.722l4.157-6.669    c0.41-0.668,1.231-0.872,1.795-0.872c1.846,0,5.284,2.206,5.284,4.002c0,0.41-0.154,0.77-0.512,1.282l-5.285,7.029l5.849,7.646    c0.204,0.257,0.462,0.82,0.462,1.334C217.123,100.904,213.993,103.162,211.889,103.162z M243.086,82.688l-7.286,18.163    c-2.565,6.465-3.643,12.93-14.059,12.93c-2.052,0-3.642-0.359-3.642-3.386c0-1.744,0.512-3.284,1.95-3.284    c1.846,0,7.286-0.102,7.286-6.567l-8.98-17.855c-0.154-0.308-0.257-0.615-0.257-1.027c0-2.053,3.334-3.797,5.387-3.797    c0.974,0,1.846,0.36,2.206,1.282l5.798,13.905l4.258-13.905c0.36-0.923,1.232-1.282,2.053-1.282c1.846,0,5.489,1.744,5.489,3.952    C243.292,82.072,243.239,82.43,243.086,82.688z M249.448,102.956c-2.258,0-3.951-1.848-3.951-3.952    c0-2.155,1.693-3.951,3.951-3.951c2.104,0,3.9,1.795,3.9,3.951C253.347,101.108,251.552,102.956,249.448,102.956z M287.774,76.376    l-5.234,1.232l3.592,5.182c0.257,0.308,0.41,0.923,0.41,1.488c0,1.642-1.642,2.771-3.13,2.771c-0.564,0-1.385-0.103-1.95-0.975    l-3.335-5.132l-3.386,5.183c-0.462,0.77-1.078,0.924-1.797,0.924c-1.232,0-3.232-0.975-3.232-2.669    c0-0.667,0.257-1.231,0.615-1.642l3.386-4.823l-5.336-1.54c-1.18-0.257-1.745-1.282-1.745-2.616    c0.002-1.333,1.183-2.822,2.825-2.822c0.153,0,0.41,0,0.769,0.154l5.387,1.745l-0.257-5.234c0.051-1.693,1.334-2.463,2.77-2.463    c1.438,0,2.669,0.77,2.72,2.463l-0.204,5.336l5.438-1.848c0.257-0.102,0.513-0.154,0.77-0.154c1.59,0,2.668,1.693,2.668,3.182    C289.518,75.145,289.006,76.12,287.774,76.376z"/>
	</g>
</g>
<g>
	<g>
		<circle cx="412.104" cy="101.345" r="35.663"/>
	</g>
</g>
<g>
	<g>
		<path d="M511.595,452.054l-17.905-86.7l9.214-77.225l-16.769-122.48c-1.805-13.184-13.956-22.409-27.141-20.604l-42.571,5.828    c-13.184,1.805-22.409,13.956-20.604,27.141l5.063,34.635l30.187-44.699l-20.057,58.095l-54.104,14.051    c-7.863,2.043-13.346,9.86-11.844,18.417c1.648,9.402,10.906,15.217,19.968,12.864c67.649-17.568,63.068-16.324,64.404-16.855    c4.295-1.709,7.739-5.221,9.3-9.741v-0.001l22.148-64.153l-6.715,65.73c-0.706,6.914-7.873,19.944-22.747,23.807l-21.322,5.537    l3.602,24.638l-10.177,58.963c-0.133,0.777-0.221,1.56-0.26,2.346l-4.587,93.376c-0.542,11.046,8.257,20.345,19.385,20.345    c10.272-0.001,18.843-8.068,19.353-18.44l4.53-92.195l12.065-69.913l8.261-1.131l-7.469,70.585    c-0.211,1.991-0.112,4.002,0.293,5.963l18.516,89.659c2.166,10.49,12.428,17.236,22.913,15.068    C507.015,472.801,513.762,462.542,511.595,452.054z"/>
	</g>
</g>
<g>
	<g>
		<path d="M353.661,224.913l26.456-6.872v-15.087c0-6.954-5.637-12.591-12.591-12.591h-52.007c-3.476,0-6.295,2.819-6.295,6.295    v2.51c0,4.585-3.251,8.527-7.751,9.4l-6.839,1.328c-2.809,0.545-4.942,2.847-5.269,5.689l-1.753,15.16l-6.039,1.786    c-2.39,0.707-4.361,2.406-5.413,4.665l-2.392,5.141l-22.429-28.393c-2.96-3.746-8.396-4.385-12.143-1.425    c-3.746,2.96-4.385,8.396-1.425,12.143l29.353,37.159v28.948c0,5.325,3.312,9.869,7.984,11.709h-65.396    c6.136-2.066,10.547-7.886,10.472-14.736c-0.092-8.503-7.326-15.209-15.828-15.209h-48.012l-28.812-23.308    c0.172-3.339-0.401-6.543-1.542-9.477l-38.492,8.076l122.001-39.092c8.089-2.592,12.544-11.25,9.952-19.339    c-2.592-8.089-11.249-12.543-19.339-9.952L63.499,223.844c-12.047,3.915-20.196,15.15-20.178,27.816l0.103,76.13L30.581,226.375    c-1.064-8.411-8.74-14.365-17.157-13.301c-8.41,1.064-14.365,8.747-13.301,17.157L18.02,371.56    c0.971,7.672,7.497,12.661,15.23,12.661h45.323v55.068c0,0.068,0.009,0.133,0.01,0.201h-11.21c-2.714,0-5.317,1.078-7.236,2.997    L44.97,457.655c-3.854,3.854-4.311,10.128-0.713,14.223c3.942,4.487,10.782,4.653,14.939,0.497l12.417-12.417h33.29l12.169,12.169    c3.854,3.854,10.128,4.311,14.223,0.713c4.487-3.942,4.653-10.782,0.497-14.939l-15.414-15.414    c-1.919-1.92-4.522-2.997-7.236-2.997H99.03c0.001-0.068,0.01-0.133,0.01-0.201v-55.068h40.89l9.587,75.033    c1.29,10.091,10.51,17.261,20.645,15.967c10.111-1.292,17.259-10.536,15.967-20.645l-12.168-95.23    c-0.957-7.491-6.382-13.643-13.693-15.531l-38.72-9.997l3.347-47.163l16.328,13.21c2.738,2.215,6.153,3.423,9.675,3.423h36.319    c-6.072,2.046-10.45,7.776-10.45,14.539c0,8.09,6.262,14.703,14.202,15.293v130.543c0,6.239,4.881,11.592,11.12,11.707    c6.356,0.117,11.546-5.002,11.546-11.331V333.517h130.101v130.146c0,6.239,4.881,11.592,11.12,11.707    c6.356,0.117,11.546-5.002,11.546-11.331V333.034c7.533-0.981,13.354-7.406,13.354-15.206c0-6.815-4.443-12.583-10.588-14.589    c6.175-0.807,10.948-6.076,10.948-12.471v-7.278l-11.184,2.904c-18.102,4.702-36.493-7.267-39.296-26.015    C327.226,244.249,337.875,229.013,353.661,224.913z"/>
	</g>
</g>
<g>
</g>
<g>
</g>
<g>
</g>
<g>
</g>
<g>
</g>
<g>
</g>
<g>
</g>
<g>
</g>
<g>
</g>
<g>
</g>
<g>
</g>
<g>
</g>
<g>
</g>
<g>
</g>
<g>
</g>
</svg>
