<?xml version="1.0" encoding="iso-8859-1"?>
<!-- Generator: Adobe Illustrator 19.0.0, SVG Export Plug-In . SVG Version: 6.00 Build 0)  -->
<svg xmlns="http://www.w3.org/2000/svg" xmlns:xlink="http://www.w3.org/1999/xlink" version="1.1" id="Layer_1" x="0px" y="0px" viewBox="0 0 512 512" style="enable-background:new 0 0 512 512;" xml:space="preserve">
<g>
	<g>
		<path d="M453.484,63.165c-1.89-21.984-21.244-38.272-43.227-36.383c-17.228,1.48-30.955,13.688-35.18,29.48h-28.336    c-5.702,0-10.325,4.623-10.325,10.325c0,5.702,4.622,10.325,10.324,10.325h28.35c4.897,18.382,22.401,31.166,42.01,29.48    C439.085,104.502,455.373,85.149,453.484,63.165z"/>
	</g>
</g>
<g>
	<g>
		<path d="M327.194,205.908l25.872-6.457v-44.327c0-7.983-6.472-14.455-14.455-14.455h-36.179c0,8.641,0,57.731,0,64.139    l-7.673-7.673l-7.673,7.673l-7.673-7.673l-7.673,7.673l-7.673-7.673l-7.673,7.673c0-10.876,0-58.261,0-64.139h-36.179    c-7.983,0-14.455,6.472-14.455,14.455v118.395c0,7.983,6.472,14.455,14.455,14.455h118.395    c7.982-0.001,14.454-6.473,14.454-14.456v-4.83l-9.605,2.398c-17.984,4.49-36.233-6.466-40.722-24.455    C298.255,228.661,309.224,210.393,327.194,205.908z"/>
	</g>
</g>
<g>
	<g>
		<path d="M510.596,455.974l-34.616-91.778l12.967-82.599c0.157-0.997,0.651,6.465-10.536-138.911    c-1.277-14.85-14.35-25.854-29.202-24.578l-47.952,4.122c-14.85,1.277-25.854,14.35-24.578,29.202l3.545,41.238l32.041-44.705    l-20.574,57.806l-60.748,15.162c-9.728,2.428-15.595,12.269-13.179,21.945c2.402,9.627,12.192,15.614,21.945,13.178l70.165-17.512    c5.646-1.409,10.565-5.582,12.671-11.493l22.719-63.833l-7.327,65.554c-0.899,8.048-9.409,21.079-24.312,24.799l-27.573,6.881    l1.705,19.842l-29.856,66.066c-0.6,1.327-1.064,2.71-1.387,4.13l-24.63,108.332c-2.659,11.698,4.667,23.337,16.365,25.997    c11.7,2.659,23.338-4.669,25.996-16.365l24.144-106.197l34.658-76.689l11.457-0.985c-2.533,16.139-9.833,62.634-12.331,78.543    c-0.583,3.714-0.193,7.516,1.134,11.034l36.641,97.145c4.233,11.224,16.764,16.892,27.988,12.658    C509.163,479.73,514.831,467.198,510.596,455.974z"/>
	</g>
</g>
<g>
	<g>
		<circle cx="59.906" cy="67.585" r="40.15"/>
	</g>
</g>
<g>
	<g>
		<path d="M200,131.195l-16.932-9.862c-2.292-1.336-5.228-0.154-5.963,2.39l-1.68,5.818l-16.86,0.395    c-2.226,0.052-3.997,1.882-3.977,4.109l0.312,34.29l-52.587,9l-35.654-32.131l30.247,15.118v-11.767    c0-13.941-11.302-25.242-25.242-25.242H25.44c-13.941,0-25.242,11.302-25.242,25.242c0,0-0.489,116.04,0.069,315.056    c0.037,12.031,9.8,21.757,21.822,21.757c0.022,0,0.046,0,0.068,0c12.053-0.037,21.794-9.837,21.757-21.89L43.426,289.61h9.822    l0.013,173.934c0,12.053,9.772,21.823,21.825,21.822c12.053-0.001,21.823-9.773,21.822-21.825l-0.002-229.857l-2.01,0.344    c-8.954,1.533-17.573-2.62-22.176-9.822l-32.001-50.217l42.632,38.42c4.398,3.964,10.379,5.708,16.238,4.704l63.46-10.861    c10.548-1.804,17.634-11.818,15.829-22.365c-0.535-3.13-1.808-5.944-3.589-8.323l26.035-38.572    C202.644,135.039,202.033,132.379,200,131.195z"/>
	</g>
</g>
<g>
</g>
<g>
</g>
<g>
</g>
<g>
</g>
<g>
</g>
<g>
</g>
<g>
</g>
<g>
</g>
<g>
</g>
<g>
</g>
<g>
</g>
<g>
</g>
<g>
</g>
<g>
</g>
<g>
</g>
</svg>
