<?xml version="1.0" encoding="iso-8859-1"?>
<!-- Generator: Adobe Illustrator 19.0.0, SVG Export Plug-In . SVG Version: 6.00 Build 0)  -->
<svg xmlns="http://www.w3.org/2000/svg" xmlns:xlink="http://www.w3.org/1999/xlink" version="1.1" id="Layer_1" x="0px" y="0px" viewBox="0 0 512 512" style="enable-background:new 0 0 512 512;" xml:space="preserve">
<g>
	<g>
		<circle cx="223.366" cy="132.272" r="34.056"/>
	</g>
</g>
<g>
	<g>
		<path d="M314.147,31.593c-2.385,0-3.771,1.154-3.771,3.694v10.926c0,2.539,1.386,3.693,3.771,3.693    c2.385,0,3.848-1.154,3.848-3.693V35.287C317.994,32.747,316.532,31.593,314.147,31.593z"/>
	</g>
</g>
<g>
	<g>
		<path d="M349.466,56.37c-2.386,0-3.771,1.154-3.771,3.693V70.99c0,2.54,1.384,3.694,3.771,3.694c2.385,0,3.847-1.154,3.847-3.694    V60.063C353.314,57.525,351.851,56.37,349.466,56.37z"/>
	</g>
</g>
<g>
	<g>
		<path d="M404.194,53.917C404.194,24.139,371.817,0,331.879,0c-39.938,0-72.314,24.139-72.314,53.917    c0,9.665,3.427,18.728,9.401,26.573l-6.277,21.97c-0.573,2.004,0.06,4.159,1.625,5.537c1.566,1.377,3.783,1.729,5.698,0.906    l22.601-9.719c11.31,5.465,24.784,8.651,39.266,8.651c6.771,0,13.317-0.708,19.532-2.006c-1.44,0.838-2.78,1.906-3.954,3.211    l-39.252,43.644l-56.489,24.505c-7.656,0-45.507,0-51.37,0l-41.982-52.509L140.1,57.43c-2.38-8.759-11.408-13.929-20.165-11.551    c-8.758,2.38-13.929,11.407-11.55,20.165l19.159,70.54c0.589,2.171,1.619,4.198,3.024,5.955l49.047,61.344    c0.128,0.16,0.275,0.301,0.409,0.456v127.375l-24.455,157.541C153.716,501.173,162.922,512,175.076,512    c9.556,0,17.951-6.96,19.461-16.698c26.239-169.045,24.673-158.149,24.675-160.639h8.423c0.002,2.467-1.595-8.608,24.675,160.639    c1.67,10.77,11.756,18.131,22.509,16.461c10.762-1.67,18.132-11.748,16.461-22.51l-24.221-156.055V206.357l57.51-24.948    c2.164-0.939,4.101-2.333,5.678-4.087l41.645-46.307c6.068-6.748,5.519-17.137-1.229-23.206c-3.061-2.753-6.872-4.129-10.69-4.198    C385.957,95.437,404.194,76.265,404.194,53.917z M302.604,46.213V35.287c0-7.618,5.002-10.388,11.542-10.388    c6.464,0,11.543,2.77,11.543,10.388v10.926c0,7.618-5.078,10.388-11.543,10.388C307.606,56.602,302.604,53.832,302.604,46.213z     M322.15,82.764c-0.538,1.154-2.002,1.924-3.463,1.924c-2.615,0-4.309-2.155-4.309-4.078c0-0.461,0.155-1,0.385-1.462    l27.009-55.48c0.616-1.308,1.846-1.924,3.231-1.924c2.155,0,4.54,1.616,4.54,4.079c0,0.461-0.077,1.001-0.308,1.462L322.15,82.764    z M361.009,70.991c0,7.618-5.078,10.388-11.542,10.388c-6.541,0-11.543-2.77-11.543-10.388V60.064    c0-7.618,5.002-10.388,11.543-10.388c6.464,0,11.542,2.77,11.542,10.388V70.991z"/>
	</g>
</g>
<g>
</g>
<g>
</g>
<g>
</g>
<g>
</g>
<g>
</g>
<g>
</g>
<g>
</g>
<g>
</g>
<g>
</g>
<g>
</g>
<g>
</g>
<g>
</g>
<g>
</g>
<g>
</g>
<g>
</g>
</svg>
