<?xml version="1.0" encoding="iso-8859-1"?>
<!-- Generator: Adobe Illustrator 19.0.0, SVG Export Plug-In . SVG Version: 6.00 Build 0)  -->
<svg xmlns="http://www.w3.org/2000/svg" xmlns:xlink="http://www.w3.org/1999/xlink" version="1.1" id="Layer_1" x="0px" y="0px" viewBox="0 0 512 512" style="enable-background:new 0 0 512 512;" xml:space="preserve">
<g>
	<g>
		<path d="M320.843,351.323h-39.463c0,14.825,0,62.369,0,69.962l-8.369-8.369l-8.369,8.369l-8.369-8.369l-8.369,8.369l-8.369-8.369    l-8.369,8.369c0-7.593,0-55.137,0-69.962h-39.463c-8.708,0-15.767,7.059-15.767,15.767v129.142    c0,8.708,7.059,15.767,15.767,15.767h129.142c8.708,0,15.767-7.059,15.767-15.767V367.091    C336.611,358.383,329.551,351.323,320.843,351.323z"/>
	</g>
</g>
<g>
	<g>
		<circle cx="76.585" cy="44.894" r="44.894"/>
	</g>
</g>
<g>
	<g>
		<path d="M154.362,247.163l-57.849-43.629l-10.61-54.828l19.535,39.32l12.517,9.44v-62.043c0-15.587-12.638-28.223-28.225-28.223    H38.05c-15.587,0-28.145,12.636-28.145,28.223v352.252C9.947,501.125,20.862,512,34.303,512c0.024,0,0.051,0,0.076,0    c13.475-0.041,24.366-10.998,24.325-24.474c-0.626-206.277-0.53-192.55-0.701-194.392h11.139l0.015,194.467    C69.157,501.077,80.082,512,93.557,512c13.476-0.001,24.398-10.926,24.397-24.402V296.197c-1.203-0.885,8.251,6.237-71.18-53.67    c-6.159-4.645-9.16-12.058-8.65-19.22l5.242-66.371l12.19,62.998c1.017,5.259,3.947,9.955,8.223,13.18l64.493,48.64    c9.554,7.205,23.136,5.299,30.338-4.251C165.817,267.95,163.914,254.366,154.362,247.163z"/>
	</g>
</g>
<g>
	<g>
		<path d="M473.95,107.2h-51.68c-15.587,0-28.222,12.636-28.222,28.223v24.126l8.65,3.099l26.077-20.669l-28.283,38.74    l-66.836-23.951c-11.265-4.033-23.664,1.821-27.7,13.085s1.822,23.664,13.085,27.7l82.086,29.416    c9.062,3.246,19.151,0.124,24.804-7.62l37.836-51.826l-23.495,62.295c-5.544,14.701-21.843,22.202-36.579,16.93l-8.555-3.066    l-1.091-0.391l-0.002,244.305c-0.001,13.475,10.921,24.401,24.397,24.402c0,0,0,0,0.001,0c13.475,0,24.398-10.923,24.4-24.398    l0.014-194.467h11.139c-0.067,0.729-0.701,194.392-0.701,194.392c-0.041,13.476,10.85,24.433,24.325,24.474    c0.026,0,0.05,0,0.076,0c13.44,0,24.357-10.876,24.397-24.325V135.423C502.096,119.836,489.537,107.2,473.95,107.2z"/>
	</g>
</g>
<g>
	<g>
		<path d="M331.934,89.913c-2.094-5.414-8.181-8.106-13.595-6.012l-37.115,14.355c-5.415,2.094-8.107,8.181-6.012,13.596    l17.383,44.94c9.489-15.762,29.066-23.184,47.05-16.74l13.562,4.86L331.934,89.913z"/>
	</g>
</g>
<g>
	<g>
		<path d="M435.415,0c-20.906,0-38.473,14.289-43.47,33.633h-34.381c-6.221,0-11.262,5.042-11.262,11.262    c0,6.221,5.042,11.262,11.262,11.262h34.381c4.997,19.344,22.565,33.633,43.47,33.633c24.795,0,44.896-20.101,44.896-44.896    C480.311,20.101,460.21,0,435.415,0z"/>
	</g>
</g>
<g>
</g>
<g>
</g>
<g>
</g>
<g>
</g>
<g>
</g>
<g>
</g>
<g>
</g>
<g>
</g>
<g>
</g>
<g>
</g>
<g>
</g>
<g>
</g>
<g>
</g>
<g>
</g>
<g>
</g>
</svg>
