<?xml version="1.0" encoding="iso-8859-1"?>
<!-- Generator: Adobe Illustrator 19.0.0, SVG Export Plug-In . SVG Version: 6.00 Build 0)  -->
<svg xmlns="http://www.w3.org/2000/svg" xmlns:xlink="http://www.w3.org/1999/xlink" version="1.1" id="Layer_1" x="0px" y="0px" viewBox="0 0 512 512" style="enable-background:new 0 0 512 512;" xml:space="preserve">
<g>
	<g>
		<path d="M365.176,124.267c-0.13-25.949-20.52-50.663-53.885-50.663c-10.759,20.424-31.991,33.457-55.298,33.457    c-23.977,0-44.83-13.586-55.298-33.457c-33.075,0-53.754,24.465-53.886,50.663V282.34c-0.059,11.884,9.128,21.565,21.011,21.625    c0.037,0,0.074,0.001,0.11,0.001c11.832,0,22.249-9.563,22.308-21.409V124.485c0.012-2.353,1.926-4.253,4.28-4.247    c2.354,0.006,4.258,1.915,4.258,4.269l0.01,361.674c0,14.26,11.561,25.819,25.82,25.819c14.259,0,25.82-11.559,25.82-25.819    V279.802h11.148V486.18c0,14.26,11.561,25.819,25.82,25.819c14.259,0,25.82-11.559,25.82-25.819    c0-201.84-0.469-230.253-0.469-230.253l-36.515,12.042c-21.245,7.007-44.162-4.529-51.172-25.791    c-7.01-21.253,4.538-44.164,25.791-51.173l61.896-20.413v-46.11c0-2.574,2.086-4.661,4.661-4.661c2.574,0,4.661,2.087,4.661,4.661    c0.141,28.155-0.143,34.705,0,63.046l-23.503,7.751c2.606,1.397,4.473,3.42,5.192,5.962c1.198,4.232-1.055,8.903-5.465,12.603    l7.739,24.285l44.371-14.633c8.858-2.921,14.824-11.216,14.777-20.542C365.12,191.893,365.231,135.28,365.176,124.267z"/>
	</g>
</g>
<g>
	<g>
		<path d="M275.306,220.232c-5.564-0.888-9.815-3.659-10.994-7.825c-0.549-1.942-0.353-3.977,0.423-5.969l-7.936,2.617    c-11.281,3.72-17.418,15.882-13.695,27.173c3.726,11.299,15.902,17.414,27.172,13.694l13.114-4.325L275.306,220.232z"/>
	</g>
</g>
<g>
	<g>
		<circle cx="255.994" cy="44.593" r="44.593"/>
	</g>
</g>
<g>
</g>
<g>
</g>
<g>
</g>
<g>
</g>
<g>
</g>
<g>
</g>
<g>
</g>
<g>
</g>
<g>
</g>
<g>
</g>
<g>
</g>
<g>
</g>
<g>
</g>
<g>
</g>
<g>
</g>
</svg>
