<?xml version="1.0" encoding="iso-8859-1"?>
<!-- Generator: Adobe Illustrator 19.0.0, SVG Export Plug-In . SVG Version: 6.00 Build 0)  -->
<svg xmlns="http://www.w3.org/2000/svg" xmlns:xlink="http://www.w3.org/1999/xlink" version="1.1" id="Layer_1" x="0px" y="0px" viewBox="0 0 512 512" style="enable-background:new 0 0 512 512;" xml:space="preserve">
<g>
	<g>
		<path d="M389.115,61.635h-36.583v37.833h-32.265V61.635h24.819c4.498,0,8.144-3.647,8.144-8.144V8.144    c0-4.497-3.647-8.144-8.144-8.144h-29.396v23.199h-21.857V0h-29.396c-4.498,0-8.144,3.647-8.144,8.144v45.346    c0,4.498,3.646,8.144,8.144,8.144h19.247c-5.969,0-10.808,4.839-10.808,10.808v64.602c0,5.969,4.839,10.808,10.808,10.808h-27.286    c-7.449,0-13.486,6.038-13.486,13.486v2.893h49.744v-16.379h38.419v48.587c3.538,23.107-14.333,43.804-37.566,43.804H242.91    v15.567c0,7.448,6.038,13.486,13.486,13.486h110.932c7.449,0,13.487-6.038,13.487-13.486V161.34    c0-7.448-6.038-13.486-13.487-13.486h21.785c5.969,0,10.808-4.839,10.808-10.808V72.443    C399.923,66.474,395.084,61.635,389.115,61.635z"/>
	</g>
</g>
<g>
	<g>
		<path d="M293.508,181.352h-69.861l-39.999-36.046l32.605,16.297v-12.685c0-15.028-12.182-27.211-27.211-27.211h-49.828    c-15.028,0-27.136,12.183-27.136,27.211v339.629C112.117,501.514,122.642,512,135.602,512c0.023,0,0.049,0,0.073,0    c12.993-0.039,23.494-10.603,23.454-23.597V300.977h10.064l0.014,187.499c0.001,12.993,10.534,23.525,23.527,23.524    c12.993-0.001,23.525-10.534,23.524-23.527l-0.006-248.23c-0.172,0-0.289,0-0.373,0c-0.116,0-0.163,0-0.168,0    c-0.484,0-2.229,0-7.714,0c-7.438,0-14.052-3.964-17.817-9.773l-34.496-54.133l45.958,41.416    c3.837,3.458,8.818,5.371,13.982,5.371h77.883c11.535,0,20.887-9.352,20.887-20.887S305.043,181.352,293.508,181.352z"/>
	</g>
</g>
<g>
	<g>
		<circle cx="176.367" cy="61.639" r="43.286"/>
	</g>
</g>
<g>
</g>
<g>
</g>
<g>
</g>
<g>
</g>
<g>
</g>
<g>
</g>
<g>
</g>
<g>
</g>
<g>
</g>
<g>
</g>
<g>
</g>
<g>
</g>
<g>
</g>
<g>
</g>
<g>
</g>
</svg>
