<?xml version="1.0" encoding="iso-8859-1"?>
<!-- Generator: Adobe Illustrator 19.0.0, SVG Export Plug-In . SVG Version: 6.00 Build 0)  -->
<svg xmlns="http://www.w3.org/2000/svg" xmlns:xlink="http://www.w3.org/1999/xlink" version="1.1" id="Layer_1" x="0px" y="0px" viewBox="0 0 512.002 512.002" style="enable-background:new 0 0 512.002 512.002;" xml:space="preserve">
<g>
	<g>
		<circle cx="188.382" cy="81.697" r="41.362"/>
	</g>
</g>
<g>
	<g>
		<path d="M306.011,110.621c-6.872-2.025-14.08,1.91-16.101,8.781l-14.368,48.836l-46.5,23.78l-33.7-30.37l31.151,16.663v-13.213    c0-14.359-11.64-25.998-25.998-25.998h-47.611c-14.359,0-25.928,11.64-25.928,25.998c-0.244,80.77-0.314,253.285,0,324.494    c0.037,12.391,10.093,22.409,22.476,22.409c0.022,0,0.046,0,0.069,0c12.414-0.037,22.447-10.131,22.409-22.544V310.38h9.616    l0.013,179.144c0.001,12.414,10.064,22.476,22.479,22.475c12.413-0.001,22.476-10.064,22.475-22.478V254.728    c-9.66,1.162-19.474-3.239-24.913-11.713l-32.96-51.721l43.909,39.571c6.152,5.545,15.083,6.708,22.444,2.943l65.363-33.425    c9.813-5.019,13.7-17.041,8.682-26.854c-1.461-2.856-3.526-5.193-5.947-6.972l11.721-39.835    C316.815,119.85,312.883,112.642,306.011,110.621z"/>
	</g>
</g>
<g>
	<g>
		<path d="M119.376,57.835l-43-16.146c-5.795-2.176-12.251,0.758-14.425,6.55c-2.175,5.792,0.757,12.25,6.548,14.425l43,16.145    c5.791,2.175,12.251-0.756,14.425-6.55C128.099,66.467,125.167,60.01,119.376,57.835z"/>
	</g>
</g>
<g>
	<g>
		<path d="M137.708,22.203L108.325,1.976c-5.096-3.508-12.07-2.222-15.579,2.875c-3.507,5.097-2.221,12.071,2.876,15.58    l29.384,20.227c5.095,3.508,12.071,2.221,15.579-2.875C144.092,32.686,142.805,25.711,137.708,22.203z"/>
	</g>
</g>
<g>
	<g>
		<path d="M435.085,365.591h-72.603c-1.971,0-3.57,1.598-3.57,3.57v15.125c0,1.709-1.212,3.179-2.89,3.505l-16.449,3.192    c-3.381,0.656-5.948,3.427-6.343,6.849l-2.052,17.738c-0.164,1.422-1.162,2.607-2.534,3.014l-7.015,2.075    c-2.174,0.643-3.966,2.188-4.923,4.243l-3.737,8.032l-29.061-36.789c-1.842-2.331-4.534-3.836-7.485-4.182    c-2.951-0.346-5.918,0.494-8.249,2.336c-4.854,3.835-5.681,10.879-1.846,15.734l38.032,48.147v38.139    c0,8.661,7.021,15.683,15.683,15.683h115.042c8.661,0,15.683-7.021,15.683-15.683V381.274    C450.768,372.612,443.746,365.591,435.085,365.591z"/>
	</g>
</g>
<g>
</g>
<g>
</g>
<g>
</g>
<g>
</g>
<g>
</g>
<g>
</g>
<g>
</g>
<g>
</g>
<g>
</g>
<g>
</g>
<g>
</g>
<g>
</g>
<g>
</g>
<g>
</g>
<g>
</g>
</svg>
