<?xml version="1.0" encoding="iso-8859-1"?>
<!-- Generator: Adobe Illustrator 19.0.0, SVG Export Plug-In . SVG Version: 6.00 Build 0)  -->
<svg xmlns="http://www.w3.org/2000/svg" xmlns:xlink="http://www.w3.org/1999/xlink" version="1.1" id="Layer_1" x="0px" y="0px" viewBox="0 0 512 512" style="enable-background:new 0 0 512 512;" xml:space="preserve">
<g>
	<g>
		<circle cx="104.288" cy="60.199" r="43.423"/>
	</g>
</g>
<g>
	<g>
		<path d="M371.278,0c-56.005,0-101.407,30.325-101.407,67.734c0,5.932,1.145,11.685,3.291,17.169l-25.702,22.954    c-1.666,1.489-2.179,3.882-1.27,5.923c0.909,2.04,3.034,3.258,5.255,3.014l43.123-4.759    c18.594,14.353,46.065,23.434,76.712,23.434c56.005,0,101.407-30.326,101.407-67.734S427.284,0,371.278,0z M414.082,66.649    l-10.299,37.076c-0.792,2.848-3.384,4.818-6.339,4.818h-52.331c-2.956,0-5.548-1.971-6.339-4.818l-10.299-37.076    c-0.55-1.981-0.143-4.106,1.102-5.742c1.244-1.636,3.182-2.598,5.238-2.598h25.571V34.042c0-6.017,4.877-10.894,10.894-10.894    s10.894,4.877,10.894,10.894v24.266h25.57c2.057,0,3.994,0.962,5.238,2.598C414.224,62.543,414.632,64.668,414.082,66.649z"/>
	</g>
</g>
<g>
	<g>
		<path d="M227.8,90.558c-7.219-2.123-14.783,2.005-16.907,9.219l-15.087,51.277l-48.826,24.969l-35.387-31.889l32.635,16.275    l0.074-12.652c0-15.076-12.222-27.298-27.298-27.298H67.019c-15.076,0-27.261,12.222-27.261,27.298    c0,324.107-1.001,190.624,0,340.715C39.797,501.482,50.393,512,63.394,512c0.023,0,0.049,0,0.073,0    c13.034-0.039,23.568-10.638,23.528-23.673c-0.605-199.22-0.516-186.354-0.67-188.025h10.767l0.014,188.099    c0,13.035,10.568,23.599,23.601,23.599c13.035-0.001,23.599-10.569,23.598-23.602V241.886    c-10.142,1.22-20.445-3.418-26.156-12.314l-34.607-54.307l46.104,41.549c6.457,5.82,15.834,7.045,23.567,3.091l68.629-35.096    c10.303-5.268,14.384-17.892,9.115-28.195c-1.534-2.999-3.703-5.453-6.244-7.321l12.307-41.828    C239.143,100.25,235.015,92.68,227.8,90.558z"/>
	</g>
</g>
<g>
</g>
<g>
</g>
<g>
</g>
<g>
</g>
<g>
</g>
<g>
</g>
<g>
</g>
<g>
</g>
<g>
</g>
<g>
</g>
<g>
</g>
<g>
</g>
<g>
</g>
<g>
</g>
<g>
</g>
</svg>
