<?xml version="1.0" encoding="iso-8859-1"?>
<!-- Generator: Adobe Illustrator 19.0.0, SVG Export Plug-In . SVG Version: 6.00 Build 0)  -->
<svg xmlns="http://www.w3.org/2000/svg" xmlns:xlink="http://www.w3.org/1999/xlink" version="1.1" id="Capa_1" x="0px" y="0px" viewBox="0 0 512 512" style="enable-background:new 0 0 512 512;" xml:space="preserve">
<g>
	<g>
		<path d="M457.868,44.019c-10.6-19.674-28.228-34.042-49.635-40.456c-21.404-6.416-44.031-4.112-63.704,6.49    c-19.674,10.6-34.042,28.228-40.453,49.624l-48.089,160.046L207.897,59.688c-13.243-44.192-59.97-69.372-104.162-56.126    C59.545,16.805,34.367,63.533,47.611,107.723l11.927,39.797c8.804,29.376,39.866,46.119,69.244,37.31l36.031-10.798    c7.952-2.383,12.466-10.761,10.083-18.714c-2.383-7.951-10.757-12.469-18.714-10.083l-36.03,10.797    c-13.504,4.046-27.771-3.648-31.818-17.144L76.406,99.093c-4.11-13.716-2.633-28.21,4.159-40.814    c6.792-12.604,18.086-21.81,31.802-25.92c13.713-4.109,28.208-2.632,40.813,4.159c12.604,6.791,21.81,18.085,25.923,31.811    l50.853,169.239c-11.609,8.207-19.212,21.723-19.212,36.99c0,7.63,1.905,14.82,5.251,21.134l-44.583,50.17    c-10.074,11.336-13.005,27.193-7.649,41.381l43.418,115.03c2.272,6.019,7.992,9.727,14.065,9.727c1.764,0,3.557-0.313,5.305-0.973    c7.767-2.931,11.686-11.603,8.754-19.37l-43.415-115.03c-1.398-3.702-0.633-7.839,1.995-10.796l44.178-49.716    c5.511,2.392,11.584,3.725,17.964,3.725c6.356,0,12.407-1.322,17.901-3.697l44.154,49.688c2.628,2.957,3.393,7.094,1.995,10.795    l-43.417,115.03c-2.932,7.767,0.987,16.439,8.754,19.37c1.749,0.66,3.541,0.973,5.305,0.973c6.075,0,11.794-3.709,14.065-9.727    l43.417-115.029c5.357-14.189,2.426-30.046-7.649-41.382l-44.528-50.108c3.367-6.329,5.283-13.542,5.283-21.197    c0-15.299-7.633-28.839-19.283-37.041l50.839-169.198c8.487-28.312,38.421-44.443,66.737-35.959    c13.715,4.112,25.009,13.315,31.8,25.92c6.792,12.604,8.269,27.099,4.159,40.813l-11.928,39.798    c-4.045,13.498-18.321,21.188-31.816,17.144l-36.031-10.798c-7.949-2.381-16.331,2.13-18.714,10.083    c-2.384,7.952,2.13,16.331,10.083,18.714l36.032,10.799c29.378,8.798,60.441-7.936,69.243-37.311l11.929-39.797    C470.774,86.316,468.469,63.691,457.868,44.019z"/>
	</g>
</g>
<g>
</g>
<g>
</g>
<g>
</g>
<g>
</g>
<g>
</g>
<g>
</g>
<g>
</g>
<g>
</g>
<g>
</g>
<g>
</g>
<g>
</g>
<g>
</g>
<g>
</g>
<g>
</g>
<g>
</g>
</svg>
