<?xml version="1.0" encoding="iso-8859-1"?>
<!-- Generator: Adobe Illustrator 19.0.0, SVG Export Plug-In . SVG Version: 6.00 Build 0)  -->
<svg xmlns="http://www.w3.org/2000/svg" xmlns:xlink="http://www.w3.org/1999/xlink" version="1.1" id="Capa_1" x="0px" y="0px" viewBox="0 0 512 512" style="enable-background:new 0 0 512 512;" xml:space="preserve">
<g>
	<g>
		<path d="M440.191,236.453v-21.985c0-8.292-6.722-15.014-15.014-15.014s-15.014,6.722-15.014,15.014v8.288H367.97L311.818,96.141    c-1.944-23.75-18.715-43.355-41.024-49.521V15.014C270.795,6.722,264.072,0,255.781,0c-8.292,0-15.014,6.722-15.014,15.014V46.66    c-22.605,6.313-39.499,26.43-40.972,50.658l-55.631,125.438h-42.393v-8.288c0-8.292-6.722-15.014-15.014-15.014    c-8.292,0-15.014,6.722-15.014,15.014v46.604c0,8.292,6.722,15.014,15.014,15.014c8.292,0,15.014-6.722,15.014-15.014v-8.288    h29.077L78.896,369.923c-6.581,15.089-6.892,31.839-0.876,47.162c4.379,11.154,11.74,20.568,21.236,27.41l-20.301,46.477    c-3.319,7.599,0.15,16.449,7.749,19.768C88.661,511.596,90.7,512,92.706,512c5.786,0,11.302-3.366,13.767-9.008l26.478-60.62    l83.645-189.59h24.17v9.981c0,8.292,6.722,15.014,15.014,15.014s15.014-6.722,15.014-15.014v-9.981h24.744l33.419,75.747    c-0.52,2.823-0.807,5.727-0.807,8.698c0,17.097,9.021,32.12,22.548,40.579l28.267,64.073c0.002,0.005,0.005,0.009,0.007,0.014    l26.49,60.645c2.465,5.643,7.979,9.008,13.767,9.008c2.007,0,4.046-0.404,6.002-1.259c7.599-3.319,11.068-12.169,7.749-19.768    l-20.302-46.478c9.496-6.842,16.857-16.255,21.237-27.409c6.016-15.324,5.705-32.074-0.913-47.248l-10.105-22.786    c0.605-3.032,0.928-6.165,0.928-9.372c0-17.405-9.348-32.665-23.282-41.035l-19.253-43.41h28.876v8.288    c-0.002,8.293,6.72,15.015,15.012,15.015s15.014-6.722,15.014-15.014v-21.985c0.038-0.434,0.066-0.872,0.066-1.316    S440.228,236.887,440.191,236.453z M255.851,74.614c14.415,0,26.144,11.729,26.144,26.144s-11.729,26.144-26.144,26.144    c-14.416,0-26.145-11.729-26.145-26.144S241.436,74.614,255.851,74.614z M270.794,222.755v-6.595    c0-8.292-6.722-15.014-15.014-15.014s-15.014,6.722-15.014,15.014v6.595h-10.923l26.223-59.438l26.223,59.438H270.794z     M383.248,320.984c6.207,2.786,10.548,9.012,10.548,16.244c0,9.821-7.988,17.809-17.809,17.809c-2.253,0-4.402-0.437-6.389-1.205    c-0.51-0.263-1.036-0.493-1.573-0.697c-5.829-2.93-9.848-8.951-9.848-15.908c0-9.82,7.988-17.808,17.809-17.808    c0.807,0,1.595,0.073,2.374,0.177C380.142,320.135,381.789,320.603,383.248,320.984z"/>
	</g>
</g>
<g>
</g>
<g>
</g>
<g>
</g>
<g>
</g>
<g>
</g>
<g>
</g>
<g>
</g>
<g>
</g>
<g>
</g>
<g>
</g>
<g>
</g>
<g>
</g>
<g>
</g>
<g>
</g>
<g>
</g>
</svg>
