<?xml version="1.0" encoding="iso-8859-1"?>
<!-- Generator: Adobe Illustrator 19.0.0, SVG Export Plug-In . SVG Version: 6.00 Build 0)  -->
<svg xmlns="http://www.w3.org/2000/svg" xmlns:xlink="http://www.w3.org/1999/xlink" version="1.1" id="Capa_1" x="0px" y="0px" viewBox="0 0 512 512" style="enable-background:new 0 0 512 512;" xml:space="preserve">
<g>
	<g>
		<path d="M351.258,0H136.412c-5.385,0-10.63,2.168-14.166,6.23c-6.018,6.912-5.82,16.942-0.255,23.606l62.174,70.667v282.601    c0,3.017,2.446,5.463,5.463,5.463h174.349c3.017,0,5.463-2.446,5.463-5.463V18.181C369.439,8.14,361.299,0,351.258,0z     M269.195,322.307h33.492c8.079,0,15.031,6.209,15.411,14.279c0.406,8.616-6.46,15.729-14.987,15.729h-54.382    c-8.286,0-15.004-6.718-15.004-15.004V102.157h0c0-8.286,6.718-15.004,15.004-15.004h53.958c8.079,0,15.031,6.209,15.411,14.279    c0.406,8.616-6.46,15.729-14.987,15.729h-33.916c-3.017,0-5.463,2.446-5.463,5.463v17.57c0,3.017,2.446,5.463,5.463,5.463h33.492    c8.079,0,15.031,6.209,15.411,14.279c0.406,8.616-6.46,15.729-14.987,15.729h-33.916c-3.017,0-5.463,2.446-5.463,5.463v17.619    c0,3.017,2.446,5.463,5.463,5.463h33.492c8.079,0,15.031,6.208,15.411,14.279c0.406,8.616-6.46,15.729-14.987,15.729h-33.916    c-3.017,0-5.463,2.446-5.463,5.463v17.57c0,3.017,2.446,5.463,5.463,5.463h33.492c8.079,0,15.031,6.208,15.411,14.279    c0.406,8.616-6.46,15.729-14.987,15.729h-33.916c-3.017,0-5.463,2.446-5.463,5.463v18.658    C263.731,319.861,266.177,322.307,269.195,322.307z"/>
	</g>
</g>
<g>
	<g>
		<path d="M392.847,473.647l-16.062-51.244c-0.713-2.279-2.824-3.829-5.211-3.829H182.031c-2.388,0-4.499,1.55-5.213,3.829    l-15.902,50.734c-2.785,8.883-1.52,18.65,3.825,26.27C170.348,507.4,179.206,512,188.927,512h175.087    c9.635,0,18.887-4.38,24.55-12.175C394.11,492.191,395.673,482.66,392.847,473.647z"/>
	</g>
</g>
<g>
</g>
<g>
</g>
<g>
</g>
<g>
</g>
<g>
</g>
<g>
</g>
<g>
</g>
<g>
</g>
<g>
</g>
<g>
</g>
<g>
</g>
<g>
</g>
<g>
</g>
<g>
</g>
<g>
</g>
</svg>
