<?xml version="1.0" encoding="iso-8859-1"?>
<!-- Generator: Adobe Illustrator 19.0.0, SVG Export Plug-In . SVG Version: 6.00 Build 0)  -->
<svg xmlns="http://www.w3.org/2000/svg" xmlns:xlink="http://www.w3.org/1999/xlink" version="1.1" id="Capa_1" x="0px" y="0px" viewBox="0 0 512 512" style="enable-background:new 0 0 512 512;" xml:space="preserve">
<g>
	<g>
		<path d="M253.493,339.562l-18.942-18.942c-2.129-2.132-5.584-2.132-7.714-0.001c-7.311,7.312-7.692,19.645-0.401,26.979    c3.735,3.757,8.773,5.746,14.097,5.547c4.887-0.183,9.482-2.389,12.939-5.848l0.021-0.021    C255.624,345.146,255.624,341.692,253.493,339.562z"/>
	</g>
</g>
<g>
	<g>
		<path d="M280.48,289.366c-2.415-1.771-5.257-2.923-8.222-3.349c-6.058-0.871-11.92,1.102-16.137,5.319l-0.362,0.362    c-2.13,2.13-2.13,5.585,0,7.714l18.943,18.943c2.132,2.129,5.585,2.129,7.715-0.001l0.097-0.097    c3.238-3.238,5.364-7.486,5.725-12.051C288.76,299.594,285.909,293.344,280.48,289.366z"/>
	</g>
</g>
<g>
	<g>
		<path d="M385.89,439.035H126.11c-7.675,0.001-13.897,6.223-13.897,13.897v30.894c0,15.56,12.614,28.174,28.174,28.174h231.224    c15.56,0,28.175-12.614,28.175-28.175v-30.893C399.787,445.257,393.566,439.035,385.89,439.035z"/>
	</g>
</g>
<g>
	<g>
		<path d="M385.89,228.117H126.11c-7.675,0-13.897,6.222-13.897,13.897v153.133c0,7.675,6.222,13.897,13.897,13.897H385.89    c7.675,0,13.897-6.222,13.897-13.897V242.013C399.787,234.339,393.566,228.117,385.89,228.117z M303.987,339.199l-29.647,29.646    c-9.225,9.226-21.49,14.306-34.536,14.306s-25.311-5.081-34.536-14.306c-19.044-19.044-19.044-50.029,0-69.073l14.821-14.821    c0.001-0.001,0.002-0.002,0.002-0.003s0.002-0.002,0.003-0.002l14.821-14.821c9.225-9.226,21.49-14.306,34.536-14.306    c13.047,0,25.311,5.081,34.537,14.306c9.226,9.225,14.307,21.49,14.307,34.537C318.294,317.709,313.213,329.974,303.987,339.199z"/>
	</g>
</g>
<g>
	<g>
		<path d="M325.734,19.647C325.706,8.813,316.868,0,306.035,0h-99.603c-4.944,0-9.809,1.661-13.505,4.944    c-4.279,3.802-6.651,9.105-6.645,14.778l0.025,21.008c0.009,7.668,6.229,13.88,13.897,13.88h111.719    c7.696,0,13.927-6.256,13.896-13.952L325.734,19.647z"/>
	</g>
</g>
<g>
	<g>
		<path d="M325.994,84.606v-0.005H186.111c-41.402,3.93-73.898,38.892-73.898,81.305v18.321c0,7.674,6.221,13.897,13.897,13.897    H385.89c7.675,0,13.897-6.222,13.897-13.897v-18.32C399.787,123.53,367.348,88.585,325.994,84.606z"/>
	</g>
</g>
<g>
</g>
<g>
</g>
<g>
</g>
<g>
</g>
<g>
</g>
<g>
</g>
<g>
</g>
<g>
</g>
<g>
</g>
<g>
</g>
<g>
</g>
<g>
</g>
<g>
</g>
<g>
</g>
<g>
</g>
</svg>
