<?xml version="1.0" encoding="iso-8859-1"?>
<!-- Generator: Adobe Illustrator 19.0.0, SVG Export Plug-In . SVG Version: 6.00 Build 0)  -->
<svg xmlns="http://www.w3.org/2000/svg" xmlns:xlink="http://www.w3.org/1999/xlink" version="1.1" id="Capa_1" x="0px" y="0px" viewBox="0 0 512.001 512.001" style="enable-background:new 0 0 512.001 512.001;" xml:space="preserve">
<g>
	<g>
		<path d="M437.02,74.981C388.667,26.628,324.38,0,256,0S123.333,26.628,74.981,74.981C26.629,123.333,0,187.62,0,256.001    s26.628,132.667,74.981,181.02C123.333,485.373,187.62,512.001,256,512.001c35.766,0,69.378-6.515,99.906-19.365    c7.634-3.213,11.216-12.005,8.003-19.639c-3.213-7.633-12.004-11.216-19.639-8.003c-26.824,11.29-56.523,17.016-88.271,17.016    c-60.37,0-117.125-23.509-159.813-66.197S29.991,316.37,29.991,256.001c0-60.37,23.509-117.125,66.197-159.813    C138.875,53.5,195.63,29.99,256,29.99S373.125,53.5,415.814,96.187C458.501,138.874,482.01,195.631,482.01,256    c0,29.949-5.76,59.036-17.12,86.453c-3.17,7.651,0.462,16.424,8.112,19.594c7.653,3.172,16.425-0.463,19.594-8.112    c12.876-31.075,19.405-64.024,19.405-97.933C512.001,187.621,485.371,123.333,437.02,74.981z"/>
	</g>
</g>
<g>
	<g>
		<path d="M350.085,240.744h-21.94c-1.667-9.255-5.068-17.911-9.868-25.618l16.398-16.398c5.856-5.856,5.856-15.35,0-21.206    c-5.855-5.856-15.35-5.856-21.206,0l-15.895,15.895c-7.886-5.449-16.882-9.401-26.58-11.424v-22.205    c0.002-8.281-6.712-14.995-14.993-14.995s-14.995,6.714-14.995,14.995v22.205c-8.947,1.866-17.291,5.381-24.725,10.191    l-15.981-15.981c-5.855-5.855-15.35-5.856-21.206,0c-5.856,5.856-5.856,15.35,0,21.206l15.835,15.835    c-5.532,8.309-9.404,17.806-11.168,28.02h-22.075c-8.281,0-14.995,6.714-14.995,14.995c0,8.281,6.714,14.995,14.995,14.995h23.107    c2.192,8.928,6.024,17.212,11.155,24.527l-15.329,15.329c-5.856,5.856-5.856,15.35,0,21.206c2.928,2.928,6.766,4.393,10.603,4.393    c3.837,0,7.675-1.464,10.603-4.393l15.975-15.975c7.19,4.406,15.192,7.607,23.726,9.322v22.526    c0,8.281,6.714,14.995,14.995,14.995c8.281,0,14.995-6.714,14.995-14.995v-22.752c9.253-2.001,17.866-5.74,25.464-10.879    l15.703,15.703c2.928,2.928,6.766,4.393,10.603,4.393s7.676-1.464,10.603-4.393c5.856-5.856,5.856-15.35,0-21.206l-16.008-16.008    c4.312-6.769,7.541-14.285,9.449-22.313h22.758c8.281,0,14.995-6.714,14.995-14.995    C365.08,247.458,358.366,240.744,350.085,240.744z"/>
	</g>
</g>
<g>
	<g>
		<path d="M385.599,143.291c-27.348-31.161-64.918-51.447-105.79-57.123c-8.202-1.139-15.775,4.588-16.915,12.79    c-1.14,8.203,4.588,15.776,12.791,16.915c33.742,4.684,64.772,21.447,87.373,47.2c22.806,25.985,35.365,59.36,35.365,93.977    c0,78.596-63.942,142.538-142.538,142.538c-78.597,0-142.539-63.942-142.539-142.538c0-34.775,12.662-68.266,35.652-94.303    c5.482-6.207,4.893-15.683-1.315-21.165c-6.208-5.481-15.683-4.892-21.166,1.316c-27.833,31.521-43.162,72.062-43.162,114.153    c0,95.132,77.396,172.528,172.529,172.528c95.132,0,172.528-77.396,172.528-172.528    C428.413,215.15,413.208,174.75,385.599,143.291z"/>
	</g>
</g>
<g>
	<g>
		<path d="M433.595,362.72c-36.904,0-66.928,30.024-66.928,66.929c0,36.905,30.024,66.928,66.928,66.928    c36.905,0,66.929-30.024,66.929-66.928C500.525,392.744,470.5,362.72,433.595,362.72z"/>
	</g>
</g>
<g>
	<g>
		<path d="M199.942,53.82c-26.03,0-47.207,21.177-47.207,47.207c0,11.069,3.911,21.832,11.011,30.305    c8.999,10.742,22.192,16.902,36.195,16.902c26.03,0,47.207-21.177,47.207-47.207C247.149,74.997,225.972,53.82,199.942,53.82z"/>
	</g>
</g>
<g>
</g>
<g>
</g>
<g>
</g>
<g>
</g>
<g>
</g>
<g>
</g>
<g>
</g>
<g>
</g>
<g>
</g>
<g>
</g>
<g>
</g>
<g>
</g>
<g>
</g>
<g>
</g>
<g>
</g>
</svg>
