<?xml version="1.0" encoding="iso-8859-1"?>
<!-- Generator: Adobe Illustrator 19.0.0, SVG Export Plug-In . SVG Version: 6.00 Build 0)  -->
<svg xmlns="http://www.w3.org/2000/svg" xmlns:xlink="http://www.w3.org/1999/xlink" version="1.1" id="Capa_1" x="0px" y="0px" viewBox="0 0 512 512" style="enable-background:new 0 0 512 512;" xml:space="preserve">
<g>
	<g>
		<path d="M435.944,101.54c8.286,0,15.003-6.717,15.003-15.003c0-8.286-6.717-15.003-15.003-15.003H76.056    c-8.286,0-15.003,6.718-15.003,15.003c0,8.286,6.718,15.003,15.003,15.003h33.708v18.135l-23.041,16.598    c-8.81,6.346-14.031,16.543-14.031,27.401v28.571c0,3.033,2.459,5.491,5.491,5.491h359.342c3.033,0,5.491-2.458,5.491-5.491    v-24.923c0-10.161-4.575-19.782-12.456-26.196l-24.417-19.868V101.54H435.944z"/>
	</g>
</g>
<g>
	<g>
		<path d="M437.523,227.742H78.182c-3.033,0-5.491,2.459-5.491,5.491v168.46c0,3.033,2.458,5.491,5.491,5.491h359.342    c3.033,0,5.491-2.459,5.491-5.491v-168.46C443.015,230.201,440.556,227.742,437.523,227.742z M299.384,376.147h-86.775    c-32.358,0-58.684-26.326-58.684-58.684c0-32.358,26.326-58.684,58.684-58.684h86.775c32.358,0,58.684,26.326,58.684,58.684    C358.068,349.822,331.742,376.147,299.384,376.147z"/>
	</g>
</g>
<g>
	<g>
		<path d="M328.049,316.595c-0.463-15.599-13.67-27.809-29.275-27.809h-22.283c-3.033,0-5.491,2.459-5.491,5.491v46.372    c0,3.033,2.459,5.491,5.491,5.491h22.893C315.486,346.141,328.53,332.803,328.049,316.595z"/>
	</g>
</g>
<g>
	<g>
		<path d="M235.503,288.786H213.22c-15.605,0-28.811,12.212-29.275,27.809c-0.481,16.208,12.563,29.546,28.664,29.546h22.893    c3.033,0,5.491-2.459,5.491-5.491v-46.373C240.993,291.244,238.535,288.786,235.503,288.786z"/>
	</g>
</g>
<g>
	<g>
		<path d="M437.523,437.19H78.182c-3.033,0-5.491,2.459-5.491,5.491c0,38.284,31.035,69.319,69.319,69.319h231.687    c38.284,0,69.319-31.035,69.319-69.319C443.015,439.649,440.556,437.19,437.523,437.19z"/>
	</g>
</g>
<g>
	<g>
		<path d="M385.946,0H126.251c-19.501,0-35.31,15.809-35.31,35.31v6.684c0,3.033,2.458,5.491,5.49,5.491h319.333    c3.033,0,5.491-2.459,5.491-5.491V35.31C421.256,15.809,405.447,0,385.946,0z"/>
	</g>
</g>
<g>
</g>
<g>
</g>
<g>
</g>
<g>
</g>
<g>
</g>
<g>
</g>
<g>
</g>
<g>
</g>
<g>
</g>
<g>
</g>
<g>
</g>
<g>
</g>
<g>
</g>
<g>
</g>
<g>
</g>
</svg>
