<?xml version="1.0" encoding="iso-8859-1"?>
<!-- Generator: Adobe Illustrator 19.0.0, SVG Export Plug-In . SVG Version: 6.00 Build 0)  -->
<svg xmlns="http://www.w3.org/2000/svg" xmlns:xlink="http://www.w3.org/1999/xlink" version="1.1" id="Capa_1" x="0px" y="0px" viewBox="0 0 512.001 512.001" style="enable-background:new 0 0 512.001 512.001;" xml:space="preserve">
<g>
	<g>
		<path d="M336.77,295.868c-6.789,0-12.313,5.523-12.313,12.313s5.525,12.313,12.313,12.313c6.789,0,12.313-5.523,12.313-12.313    S343.559,295.868,336.77,295.868z"/>
	</g>
</g>
<g>
	<g>
		<path d="M174.966,401.991c-6.789,0-12.313,5.523-12.313,12.313s5.524,12.313,12.313,12.313s12.313-5.523,12.313-12.313    S181.756,401.991,174.966,401.991z"/>
	</g>
</g>
<g>
	<g>
		<path d="M336.056,401.991c-6.789,0-12.313,5.523-12.313,12.313s5.524,12.313,12.313,12.313c6.789,0,12.313-5.523,12.313-12.313    S342.844,401.991,336.056,401.991z"/>
	</g>
</g>
<g>
	<g>
		<path d="M175.681,295.868c-6.789,0-12.313,5.523-12.313,12.313s5.524,12.313,12.313,12.313s12.313-5.523,12.313-12.313    S182.471,295.868,175.681,295.868z"/>
	</g>
</g>
<g>
	<g>
		<path d="M385.123,0H126.879c-25.135,0-45.585,20.449-45.585,45.585v420.83c0,25.135,20.45,45.585,45.585,45.585h258.245    c25.135,0,45.584-20.449,45.584-45.585V45.585C430.708,20.449,410.258,0,385.123,0z M174.966,456.646    c-23.348,0-42.343-18.995-42.343-42.343c0-23.348,18.995-42.343,42.343-42.343s42.343,18.995,42.343,42.343    C217.31,437.651,198.316,456.646,174.966,456.646z M175.681,350.523c-23.348,0-42.343-18.995-42.343-42.343    s18.995-42.343,42.343-42.343s42.343,18.995,42.343,42.343S199.03,350.523,175.681,350.523z M132.981,201.139    c0-23.348,18.995-42.343,42.343-42.343s42.343,18.995,42.343,42.343s-18.995,42.343-42.343,42.343    S132.981,224.487,132.981,201.139z M176.04,137.36c-23.348,0-42.343-18.995-42.343-42.343s18.995-42.343,42.343-42.343    s42.343,18.995,42.343,42.343S199.388,137.36,176.04,137.36z M271.241,443.171c0,8.292-6.723,15.015-15.015,15.015    c-8.292,0-15.015-6.723-15.015-15.015V68.829c0-8.292,6.723-15.015,15.015-15.015c8.292,0,15.015,6.723,15.015,15.015V443.171z     M336.056,456.646c-23.348,0-42.343-18.995-42.343-42.343c0-23.348,18.995-42.343,42.343-42.343s42.343,18.995,42.343,42.343    C378.399,437.651,359.404,456.646,336.056,456.646z M336.77,350.523c-23.348,0-42.343-18.995-42.343-42.343    s18.995-42.343,42.343-42.343c23.348,0,42.343,18.995,42.343,42.343S360.119,350.523,336.77,350.523z M294.071,201.139    c0-23.348,18.995-42.343,42.343-42.343s42.343,18.995,42.343,42.343s-18.995,42.343-42.343,42.343    S294.071,224.487,294.071,201.139z M337.128,137.36c-23.348,0-42.343-18.995-42.343-42.343s18.995-42.343,42.343-42.343    s42.343,18.995,42.343,42.343S360.477,137.36,337.128,137.36z"/>
	</g>
</g>
<g>
	<g>
		<path d="M176.04,82.703c-6.789,0-12.313,5.523-12.313,12.313c0,6.79,5.524,12.313,12.313,12.313s12.313-5.523,12.313-12.313    C188.353,88.227,182.828,82.703,176.04,82.703z"/>
	</g>
</g>
<g>
	<g>
		<path d="M337.128,82.703c-6.789,0-12.313,5.523-12.313,12.313c0,6.79,5.525,12.313,12.313,12.313    c6.789,0,12.313-5.523,12.313-12.313C349.441,88.227,343.917,82.703,337.128,82.703z"/>
	</g>
</g>
<g>
	<g>
		<path d="M336.414,188.826c-6.789,0-12.313,5.523-12.313,12.313s5.523,12.313,12.313,12.313c6.789,0,12.313-5.523,12.313-12.313    S343.203,188.826,336.414,188.826z"/>
	</g>
</g>
<g>
	<g>
		<path d="M175.324,188.826c-6.789,0-12.313,5.523-12.313,12.313s5.524,12.313,12.313,12.313s12.313-5.523,12.313-12.313    S182.113,188.826,175.324,188.826z"/>
	</g>
</g>
<g>
</g>
<g>
</g>
<g>
</g>
<g>
</g>
<g>
</g>
<g>
</g>
<g>
</g>
<g>
</g>
<g>
</g>
<g>
</g>
<g>
</g>
<g>
</g>
<g>
</g>
<g>
</g>
<g>
</g>
</svg>
