<?xml version="1.0" encoding="iso-8859-1"?>
<!-- Generator: Adobe Illustrator 19.0.0, SVG Export Plug-In . SVG Version: 6.00 Build 0)  -->
<svg xmlns="http://www.w3.org/2000/svg" xmlns:xlink="http://www.w3.org/1999/xlink" version="1.1" id="Capa_1" x="0px" y="0px" viewBox="0 0 512 512" style="enable-background:new 0 0 512 512;" xml:space="preserve">
<g>
	<g>
		<path d="M423.443,9.296C419.925,3.475,413.765,0,406.964,0H105.037c-6.813,0-12.979,3.484-16.495,9.321    c-3.515,5.836-3.712,12.915-0.527,18.938l125.741,237.734v226.996c0,7.965,4.812,14.935,12.26,17.756    c2.229,0.845,4.527,1.255,6.796,1.255c5.31,0,10.454-2.248,14.153-6.427l47.379-53.534c3.078-3.475,4.772-7.946,4.772-12.589    l-0.012-173.48L424.011,28.209C427.174,22.187,426.961,15.117,423.443,9.296z"/>
	</g>
</g>
<g>
</g>
<g>
</g>
<g>
</g>
<g>
</g>
<g>
</g>
<g>
</g>
<g>
</g>
<g>
</g>
<g>
</g>
<g>
</g>
<g>
</g>
<g>
</g>
<g>
</g>
<g>
</g>
<g>
</g>
</svg>
