<?xml version="1.0" encoding="iso-8859-1"?>
<!-- Generator: Adobe Illustrator 19.0.0, SVG Export Plug-In . SVG Version: 6.00 Build 0)  -->
<svg version="1.1" id="Capa_1" xmlns="http://www.w3.org/2000/svg" xmlns:xlink="http://www.w3.org/1999/xlink" x="0px" y="0px"
	 viewBox="0 0 512 512" style="enable-background:new 0 0 512 512;" xml:space="preserve">
<g>
	<g>
		<path d="M219.823,0h-28.454c-8.275,0-15.006,6.731-15.006,15.006v38.5c9.463-1.86,19.236-2.845,29.236-2.845
			c9.925,0,19.702,0.953,29.23,2.805v-38.46C234.829,6.731,228.098,0,219.823,0z"/>
	</g>
</g>
<g>
	<g>
		<path d="M246.115,496.993v-39.147H84.281l-0.001,39.148c0,8.274,6.731,15.006,15.006,15.006h149.411
			C247.031,507.303,246.115,502.254,246.115,496.993z"/>
	</g>
</g>
<g>
	<g>
		<path d="M291.662,116.399c-22.966-23.037-53.531-35.724-86.063-35.724c-66.892,0-121.313,54.42-121.313,121.313l-0.001,31.782
			h161.833v-24.269c0.001-24.957,20.307-45.261,45.264-45.261h4.21v-43.682C294.315,119.149,293.015,117.755,291.662,116.399z"/>
	</g>
</g>
<g>
	<g>
		<path d="M246.118,263.781H84.285l-0.004,164.051h161.835v0.001l0.002-163.604c0-0.009-0.001-0.018-0.001-0.028
			c0-0.009,0.001-0.018,0.001-0.028V263.781z"/>
	</g>
</g>
<g>
	<g>
		<path d="M366.784,120.073h-29.718c-6.091,0-11.048,4.956-11.048,11.048v33.118h0.001h51.813v-33.118
			C377.832,125.03,372.876,120.073,366.784,120.073z"/>
	</g>
</g>
<g>
	<g>
		<path d="M276.13,279.208l-0.002,217.785c0,8.275,6.731,15.007,15.006,15.007h121.575c8.275,0,15.006-6.731,15.006-15.006
			l0.004-217.786H276.13z"/>
	</g>
</g>
<g>
	<g>
		<path d="M412.47,194.252H291.382v0c-8.409,0-15.25,6.842-15.251,15.251v39.693H427.72v-39.693
			C427.72,201.094,420.879,194.252,412.47,194.252z"/>
	</g>
</g>
<g>
</g>
<g>
</g>
<g>
</g>
<g>
</g>
<g>
</g>
<g>
</g>
<g>
</g>
<g>
</g>
<g>
</g>
<g>
</g>
<g>
</g>
<g>
</g>
<g>
</g>
<g>
</g>
<g>
</g>
</svg>
