<?xml version="1.0" encoding="iso-8859-1"?>
<!-- Generator: Adobe Illustrator 19.0.0, SVG Export Plug-In . SVG Version: 6.00 Build 0)  -->
<svg version="1.1" id="Capa_1" xmlns="http://www.w3.org/2000/svg" xmlns:xlink="http://www.w3.org/1999/xlink" x="0px" y="0px"
	 viewBox="0 0 512 512" style="enable-background:new 0 0 512 512;" xml:space="preserve">
<g>
	<g>
		<path d="M0,326.429v86.575c0,8.252,6.712,14.964,14.964,14.964h482.072c8.252-0.001,14.964-6.713,14.964-14.965v-86.574H0z"/>
	</g>
</g>
<g>
	<g>
		<path d="M497.036,244.192h-130c1.521,4.485,0.852,9.432-1.86,13.337c-2.796,4.027-7.387,6.429-12.291,6.429H159.114
			c-4.903,0-9.495-2.401-12.291-6.429c-2.712-3.905-3.381-8.852-1.86-13.337H14.964C6.712,244.192,0,250.904,0,259.156v37.346h512
			v-37.346C512,250.904,505.288,244.192,497.036,244.192z"/>
	</g>
</g>
<g>
	<g>
		<path d="M348.576,99.568c-59.957-20.714-125.196-20.714-185.153,0c-9.482,3.276-13.181,14.681-7.372,22.86
			c16.814,23.673,26.011,52.114,26.011,82.125c0.001,9.978-1.026,19.835-3.062,29.477h32.976v-38.833
			c0-8.057,6.192-14.99,14.24-15.369c8.593-0.405,15.687,6.443,15.687,14.947v39.256h28.194v-38.833
			c0-8.057,6.192-14.99,14.24-15.369c8.593-0.405,15.687,6.443,15.687,14.947v39.256H333c-2.036-9.642-3.063-19.499-3.063-29.479
			c0-30.011,9.197-58.452,26.011-82.125C361.757,114.249,358.058,102.844,348.576,99.568z"/>
	</g>
</g>
<g>
</g>
<g>
</g>
<g>
</g>
<g>
</g>
<g>
</g>
<g>
</g>
<g>
</g>
<g>
</g>
<g>
</g>
<g>
</g>
<g>
</g>
<g>
</g>
<g>
</g>
<g>
</g>
<g>
</g>
</svg>
