<?xml version="1.0" encoding="iso-8859-1"?>
<!-- Generator: Adobe Illustrator 19.0.0, SVG Export Plug-In . SVG Version: 6.00 Build 0)  -->
<svg version="1.1" id="Capa_1" xmlns="http://www.w3.org/2000/svg" xmlns:xlink="http://www.w3.org/1999/xlink" x="0px" y="0px"
	 viewBox="0 0 512 512" style="enable-background:new 0 0 512 512;" xml:space="preserve">
<g>
	<g>
		<path d="M210.229,176.899v296.938c0,21.043,17.12,38.163,38.162,38.163h15.219c21.042,0,38.162-17.12,38.162-38.163V176.899
			H210.229z"/>
	</g>
</g>
<g>
	<g>
		<path d="M344.516,13.655C343.829,5.925,337.352,0,329.592,0H182.408c-7.76,0-14.237,5.925-14.926,13.655l-1.607,18.026h180.248
			L344.516,13.655z"/>
	</g>
</g>
<g>
	<g>
		<path d="M350.796,84.089l-2-22.438H163.204l-2,22.438c-0.296,3.317,0.522,6.639,2.325,9.439l34.364,53.401h116.215l34.363-53.401
			C350.273,90.727,351.091,87.406,350.796,84.089z M270.597,115.433h-29.195c-8.276,0-14.985-6.709-14.985-14.985
			s6.709-14.985,14.985-14.985h29.195c8.276,0,14.985,6.709,14.985,14.985S278.873,115.433,270.597,115.433z"/>
	</g>
</g>
<g>
</g>
<g>
</g>
<g>
</g>
<g>
</g>
<g>
</g>
<g>
</g>
<g>
</g>
<g>
</g>
<g>
</g>
<g>
</g>
<g>
</g>
<g>
</g>
<g>
</g>
<g>
</g>
<g>
</g>
</svg>
