<?xml version="1.0" encoding="iso-8859-1"?>
<!-- Generator: Adobe Illustrator 19.0.0, SVG Export Plug-In . SVG Version: 6.00 Build 0)  -->
<svg version="1.1" id="Capa_1" xmlns="http://www.w3.org/2000/svg" xmlns:xlink="http://www.w3.org/1999/xlink" x="0px" y="0px"
	 viewBox="0 0 511.999 511.999" style="enable-background:new 0 0 511.999 511.999;" xml:space="preserve">
<g>
	<g>
		<path d="M335.086,253.728l-26.047-31.557v-58.336c0-20.465-11.657-38.247-28.673-47.087V24.914
			c0-13.66-11.179-25.169-24.837-24.909c-13.239,0.25-23.894,11.061-23.894,24.36v92.383c-17.016,8.841-28.673,26.622-28.673,47.087
			v58.336l-26.047,31.557c-2.219,2.689-3.434,6.067-3.434,9.553v99.386c0,16.578,13.438,30.016,30.016,30.016h105.006
			c16.578,0,30.017-13.438,30.017-30.016v-99.386C338.519,259.794,337.306,256.416,335.086,253.728z"/>
	</g>
</g>
<g>
	<g>
		<path d="M361.111,498.923l-9.976-30.936c-4.958-15.374-19.142-25.704-35.297-25.704h-35.472v-19.585h-48.731v19.585h-35.472
			c-16.155,0-30.339,10.33-35.297,25.704l-9.976,30.936c-0.982,3.045-0.448,6.375,1.435,8.961c1.883,2.586,4.889,4.115,8.087,4.115
			h191.178c3.199,0,6.205-1.529,8.087-4.115C361.56,505.299,362.092,501.968,361.111,498.923z"/>
	</g>
</g>
<g>
</g>
<g>
</g>
<g>
</g>
<g>
</g>
<g>
</g>
<g>
</g>
<g>
</g>
<g>
</g>
<g>
</g>
<g>
</g>
<g>
</g>
<g>
</g>
<g>
</g>
<g>
</g>
<g>
</g>
</svg>
