<?xml version="1.0" encoding="iso-8859-1"?>
<!-- Generator: Adobe Illustrator 19.0.0, SVG Export Plug-In . SVG Version: 6.00 Build 0)  -->
<svg version="1.1" id="Capa_1" xmlns="http://www.w3.org/2000/svg" xmlns:xlink="http://www.w3.org/1999/xlink" x="0px" y="0px"
	 viewBox="0 0 512 512" style="enable-background:new 0 0 512 512;" xml:space="preserve">
<g>
	<g>
		<path d="M256,0c-13.436,0-24.328,10.892-24.328,24.327v27.627h48.655V24.327h0.001C280.328,10.892,269.436,0,256,0z"/>
	</g>
</g>
<g>
	<g>
		<path d="M397.422,428.485h-78.636v-36.939c0-8.279-6.712-14.991-14.991-14.991h-23.468V81.936h-48.655v294.619h-23.468
			c-8.279,0-14.991,6.712-14.991,14.991v36.939h-78.636c-8.279,0-14.991,6.712-14.991,14.991v53.533
			c0,8.279,6.712,14.991,14.991,14.991h282.845c8.279,0,14.991-6.712,14.991-14.991v-53.533
			C412.413,435.197,405.702,428.485,397.422,428.485z"/>
	</g>
</g>
<g>
</g>
<g>
</g>
<g>
</g>
<g>
</g>
<g>
</g>
<g>
</g>
<g>
</g>
<g>
</g>
<g>
</g>
<g>
</g>
<g>
</g>
<g>
</g>
<g>
</g>
<g>
</g>
<g>
</g>
</svg>
