<?xml version="1.0" encoding="iso-8859-1"?>
<!-- Generator: Adobe Illustrator 19.0.0, SVG Export Plug-In . SVG Version: 6.00 Build 0)  -->
<svg version="1.1" id="Capa_1" xmlns="http://www.w3.org/2000/svg" xmlns:xlink="http://www.w3.org/1999/xlink" x="0px" y="0px"
	 viewBox="0 0 512.001 512.001" style="enable-background:new 0 0 512.001 512.001;" xml:space="preserve">
<g>
	<g>
		<path d="M39.549,94.427l7.724,312.61c0.286,11.565,3.911,22.565,10.378,31.875c7.457-28.573,33.482-49.724,64.359-49.724
			c36.673,0,66.508,29.835,66.508,66.508c0,2.857-0.202,5.667-0.553,8.431h136.071c-0.351-2.763-0.553-5.573-0.553-8.431
			c0-36.673,29.836-66.508,66.508-66.508c30.876,0,56.902,21.151,64.359,49.724c6.467-9.31,10.092-20.31,10.377-31.875l7.724-312.61
			H39.549z"/>
	</g>
</g>
<g>
	<g>
		<path d="M496.863,20.077H15.137C6.79,20.077,0,26.866,0,35.213v13.804c0,8.347,6.79,15.137,15.137,15.137h481.727
			c8.347,0,15.137-6.79,15.137-15.137V35.213C512,26.866,505.21,20.077,496.863,20.077z"/>
	</g>
</g>
<g>
	<g>
		<circle cx="122.01" cy="455.694" r="36.23"/>
	</g>
</g>
<g>
	<g>
		<circle cx="389.99" cy="455.694" r="36.23"/>
	</g>
</g>
<g>
</g>
<g>
</g>
<g>
</g>
<g>
</g>
<g>
</g>
<g>
</g>
<g>
</g>
<g>
</g>
<g>
</g>
<g>
</g>
<g>
</g>
<g>
</g>
<g>
</g>
<g>
</g>
<g>
</g>
</svg>
