<?xml version="1.0" encoding="iso-8859-1"?>
<!-- Generator: Adobe Illustrator 19.0.0, SVG Export Plug-In . SVG Version: 6.00 Build 0)  -->
<svg version="1.1" id="Capa_1" xmlns="http://www.w3.org/2000/svg" xmlns:xlink="http://www.w3.org/1999/xlink" x="0px" y="0px"
	 viewBox="0 0 512.002 512.002" style="enable-background:new 0 0 512.002 512.002;" xml:space="preserve">
<g>
	<g>
		<path d="M131.716,104.917l7.709,295.533c4.778-1.009,9.726-1.548,14.799-1.548c19.388,0,36.988,7.763,49.886,20.332h184.476
			l32.796-314.316H131.716z"/>
	</g>
</g>
<g>
	<g>
		<path d="M222.552,449.22c2.088,6.709,3.215,13.838,3.215,21.224c0,10.837-2.435,21.113-6.766,30.327h147.568
			c7.679,0,14.116-5.801,14.912-13.437l3.977-38.115H222.552z"/>
	</g>
</g>
<g>
	<g>
		<path d="M430.159,35.967H149.221l-21.39-29.73c-0.043-0.061-0.096-0.112-0.14-0.172C124.865,2.258,120.409,0,115.66,0H81.843
			C73.563,0,66.85,6.713,66.85,14.993c0,8.28,6.713,14.993,14.993,14.993h8.717h17.418l9.53,13.247
			c-1.366,2.26-2.169,4.899-2.169,7.727v8.977c0,8.267,6.726,14.993,14.993,14.993h299.828c8.267,0,14.993-6.726,14.993-14.993
			V50.96C445.152,42.693,438.426,35.967,430.159,35.967z"/>
	</g>
</g>
<g>
	<g>
		<circle cx="154.221" cy="470.446" r="41.556"/>
	</g>
</g>
<g>
</g>
<g>
</g>
<g>
</g>
<g>
</g>
<g>
</g>
<g>
</g>
<g>
</g>
<g>
</g>
<g>
</g>
<g>
</g>
<g>
</g>
<g>
</g>
<g>
</g>
<g>
</g>
<g>
</g>
</svg>
