<?xml version="1.0" encoding="iso-8859-1"?>
<!-- Generator: Adobe Illustrator 19.0.0, SVG Export Plug-In . SVG Version: 6.00 Build 0)  -->
<svg version="1.1" id="Capa_1" xmlns="http://www.w3.org/2000/svg" xmlns:xlink="http://www.w3.org/1999/xlink" x="0px" y="0px"
	 viewBox="0 0 512 512" style="enable-background:new 0 0 512 512;" xml:space="preserve">
<g>
	<g>
		<path d="M256,58.617c-31.975,0-57.988,26.014-57.988,57.988s26.013,57.989,57.988,57.989c31.975,0,57.988-26.014,57.988-57.988
			C313.988,84.632,287.975,58.617,256,58.617z"/>
	</g>
</g>
<g>
	<g>
		<path d="M20.428,339.115l5.806,44.052c5.276,40.03,39.702,70.216,80.079,70.216h299.375c40.377,0,74.802-30.187,80.078-70.216
			l5.806-44.052H20.428z"/>
	</g>
</g>
<g>
	<g>
		<path d="M497.049,223.007h-89.895c-4.46-29.06-29.63-51.387-59.918-51.387c-30.287,0-55.458,22.327-59.918,51.387h-62.637
			c-4.46-29.06-29.63-51.387-59.918-51.387c-30.288,0-55.458,22.327-59.918,51.387H14.951C6.694,223.007,0,229.701,0,237.958v56.613
			c0,7.217,5.114,13.239,11.916,14.642h488.168v0c6.802-1.403,11.916-7.425,11.916-14.642v-56.613
			C512,229.701,505.306,223.007,497.049,223.007z"/>
	</g>
</g>
<g>
</g>
<g>
</g>
<g>
</g>
<g>
</g>
<g>
</g>
<g>
</g>
<g>
</g>
<g>
</g>
<g>
</g>
<g>
</g>
<g>
</g>
<g>
</g>
<g>
</g>
<g>
</g>
<g>
</g>
</svg>
