<?xml version="1.0" encoding="iso-8859-1"?>
<!-- Generator: Adobe Illustrator 19.0.0, SVG Export Plug-In . SVG Version: 6.00 Build 0)  -->
<svg version="1.1" id="Capa_1" xmlns="http://www.w3.org/2000/svg" xmlns:xlink="http://www.w3.org/1999/xlink" x="0px" y="0px"
	 viewBox="0 0 512 512" style="enable-background:new 0 0 512 512;" xml:space="preserve">
<g>
	<g>
		<path d="M200.185,420.147v76.166c0,8.273,6.707,14.979,14.979,14.979h81.672c8.273,0,14.979-6.707,14.979-14.979v-76.166H200.185z
			"/>
	</g>
</g>
<g>
	<g>
		<path d="M30.498,265.051v14.67c0,60.912,49.556,110.468,110.469,110.468h230.066c60.912,0,110.468-49.556,110.468-110.468v-14.67
			H30.498z"/>
	</g>
</g>
<g>
	<g>
		<path d="M494.116,199.324H382.868c-2.192-11.854-8.37-22.32-17.095-29.958c-9.245-8.093-21.334-13.015-34.557-13.015
			c-13.224,0-25.313,4.921-34.558,13.015c-8.725,7.637-14.903,18.104-17.095,29.958h-8.585V39.295
			c0-21.276-17.31-38.587-38.586-38.587c-21.276,0-38.587,17.31-38.587,38.587v11.338c0,8.273,6.707,14.979,14.979,14.979
			c8.272,0,14.979-6.707,14.979-14.979V39.295c0-4.758,3.87-8.628,8.628-8.628c4.757,0,8.627,3.87,8.627,8.628v160.029h-8.585
			c-2.192-11.854-8.37-22.32-17.094-29.958c-9.245-8.093-21.334-13.015-34.558-13.015c-13.224,0-25.313,4.921-34.557,13.015
			c-8.724,7.637-14.903,18.104-17.094,29.958H17.884C8.023,199.324,0,207.348,0,217.209c0,9.862,8.023,17.885,17.884,17.885h476.232
			c9.861,0,17.884-8.023,17.884-17.885C512,207.348,503.977,199.324,494.116,199.324z"/>
	</g>
</g>
<g>
</g>
<g>
</g>
<g>
</g>
<g>
</g>
<g>
</g>
<g>
</g>
<g>
</g>
<g>
</g>
<g>
</g>
<g>
</g>
<g>
</g>
<g>
</g>
<g>
</g>
<g>
</g>
<g>
</g>
</svg>
