<?xml version="1.0" encoding="iso-8859-1"?>
<!-- Generator: Adobe Illustrator 19.0.0, SVG Export Plug-In . SVG Version: 6.00 Build 0)  -->
<svg version="1.1" id="Capa_1" xmlns="http://www.w3.org/2000/svg" xmlns:xlink="http://www.w3.org/1999/xlink" x="0px" y="0px"
	 viewBox="0 0 512 512" style="enable-background:new 0 0 512 512;" xml:space="preserve">
<g>
	<g>
		<path d="M497,231.921H88.639V56.95c0-8.926,7.262-16.188,16.188-16.188h23.699c6.715,0,12.486,4.112,14.934,9.949
			c-20.015,3.38-35.311,20.826-35.311,41.788v15.627c0,8.284,6.716,15,15,15h73.13c8.284,0,15-6.716,15-15V92.499
			c0-21.557-16.179-39.395-37.03-42.039c-3.166-22.405-22.458-39.697-45.722-39.697h-23.699c-25.468,0-46.188,20.72-46.188,46.188
			v174.971H15c-8.284,0-15,6.716-15,15v50.21c0,7.089,4.923,13.014,11.533,14.581h488.934c6.61-1.567,11.533-7.492,11.533-14.581
			v-50.21C512,238.636,505.284,231.921,497,231.921z"/>
	</g>
</g>
<g>
	<g>
		<path d="M21.412,341.711v55.876c0,38.418,25.705,70.927,60.813,81.283v7.367c0,8.284,6.716,15,15,15h42.845
			c8.284,0,15-6.716,15-15v-3.903h201.86v3.903c0,8.284,6.716,15,15,15h42.845c8.284,0,15-6.716,15-15v-7.367
			c35.108-10.356,60.813-42.864,60.813-81.283v-55.876H21.412z"/>
	</g>
</g>
<g>
</g>
<g>
</g>
<g>
</g>
<g>
</g>
<g>
</g>
<g>
</g>
<g>
</g>
<g>
</g>
<g>
</g>
<g>
</g>
<g>
</g>
<g>
</g>
<g>
</g>
<g>
</g>
<g>
</g>
</svg>
