<?xml version="1.0" encoding="iso-8859-1"?>
<!-- Generator: Adobe Illustrator 19.0.0, SVG Export Plug-In . SVG Version: 6.00 Build 0)  -->
<svg version="1.1" id="Capa_1" xmlns="http://www.w3.org/2000/svg" xmlns:xlink="http://www.w3.org/1999/xlink" x="0px" y="0px"
	 viewBox="0 0 512 512" style="enable-background:new 0 0 512 512;" xml:space="preserve">
<g>
	<g>
		<path d="M142.933,477.521V497c0,8.271,6.729,15,15,15h201.446c8.271,0,15-6.729,15-15v-19.479H142.933z"/>
	</g>
</g>
<g>
	<g>
		<path d="M395.984,48.318c-10.659,0-19.332,8.672-19.332,19.331v45.607v84.077c0,8.284-6.716,15-15,15s-15-6.716-15-15v-84.077
			V67.649v-25.9c0-10.659-8.672-19.331-19.332-19.331c-10.66,0-19.331,8.672-19.331,19.331v129.437v26.147c0,8.284-6.716,15-15,15
			s-15-6.716-15-15v-26.147V41.749V19.331C277.988,8.672,269.316,0,258.656,0c-10.659,0-19.332,8.672-19.332,19.331v22.417v125.858
			v29.726c0,8.284-6.716,15-15,15s-15-6.716-15-15v-29.726V41.749c0-10.659-8.672-19.331-19.331-19.331s-19.331,8.672-19.331,19.331
			v130.435v33.836v56.887c0,8.284-6.716,15-15,15s-15-6.716-15-15V206.02v-33.836c0-5.891-2.299-11.425-6.475-15.582
			c-4.15-4.133-9.656-6.406-15.51-6.406c-0.033,0-0.066,0-0.1,0c-5.876,0.025-11.389,2.338-15.525,6.513
			c-4.135,4.174-6.396,9.709-6.366,15.585L97.402,314.8c0.087,17.351,4.828,34.401,13.71,49.308l29.708,49.857
			c1.384,2.322,2.114,4.975,2.114,7.678v25.878H374.38v-25.878c0-2.479,0.614-4.919,1.788-7.102l27.553-51.259
			c7.585-14.111,11.594-30.038,11.594-46.06V67.649C415.315,56.99,406.643,48.318,395.984,48.318z"/>
	</g>
</g>
<g>
</g>
<g>
</g>
<g>
</g>
<g>
</g>
<g>
</g>
<g>
</g>
<g>
</g>
<g>
</g>
<g>
</g>
<g>
</g>
<g>
</g>
<g>
</g>
<g>
</g>
<g>
</g>
<g>
</g>
</svg>
