<?xml version="1.0" encoding="iso-8859-1"?>
<!-- Generator: Adobe Illustrator 19.0.0, SVG Export Plug-In . SVG Version: 6.00 Build 0)  -->
<svg version="1.1" id="Capa_1" xmlns="http://www.w3.org/2000/svg" xmlns:xlink="http://www.w3.org/1999/xlink" x="0px" y="0px"
	 viewBox="0 0 512 512" style="enable-background:new 0 0 512 512;" xml:space="preserve">
<g>
	<g>
		<path d="M458.176,0H53.824c-16.569,0-30,13.431-30,30v42.633h464.352V30C488.176,13.431,474.745,0,458.176,0z"/>
	</g>
</g>
<g>
	<g>
		<path d="M23.824,102.633V482c0,16.569,13.431,30,30,30h404.352c16.568,0,30-13.431,30-30V102.633H23.824z M345.73,129.852h13.006
			c8.284,0,15,6.716,15,15s-6.716,15-15,15H345.73c-8.284,0-15-6.716-15-15S337.446,129.852,345.73,129.852z M381.335,333.206
			c-14.43,59.347-68.016,103.544-131.74,103.544c-74.754,0-135.57-60.817-135.57-135.571s60.816-135.571,135.57-135.571
			c63.724,0,117.31,44.197,131.74,103.544c10.056,7.103,16.641,18.806,16.641,32.027S391.391,326.103,381.335,333.206z
			 M422.825,159.852h-13.006c-8.284,0-15-6.716-15-15s6.716-15,15-15h13.006c8.284,0,15,6.716,15,15
			S431.109,159.852,422.825,159.852z"/>
	</g>
</g>
<g>
	<g>
		<path d="M249.594,383.813c-45.563,0-82.633-37.069-82.633-82.634s37.069-82.634,82.633-82.634
			c31.39,0,58.744,17.595,72.728,43.438h25.295c-15.595-38.86-53.654-66.375-98.022-66.375c-58.212,0-105.57,47.359-105.57,105.571
			s47.358,105.571,105.57,105.571c44.368,0,82.427-27.515,98.022-66.375h-25.295C308.338,366.218,280.984,383.813,249.594,383.813z"
			/>
	</g>
</g>
<g>
	<g>
		<path d="M249.595,248.545c-29.021,0-52.633,23.611-52.633,52.634c0,29.023,23.611,52.634,52.633,52.634
			c20.307,0,37.951-11.567,46.726-28.451v-48.366C287.546,260.112,269.901,248.545,249.595,248.545z"/>
	</g>
</g>
<g>
</g>
<g>
</g>
<g>
</g>
<g>
</g>
<g>
</g>
<g>
</g>
<g>
</g>
<g>
</g>
<g>
</g>
<g>
</g>
<g>
</g>
<g>
</g>
<g>
</g>
<g>
</g>
<g>
</g>
</svg>
