<?xml version="1.0" encoding="iso-8859-1"?>
<!-- Generator: Adobe Illustrator 19.0.0, SVG Export Plug-In . SVG Version: 6.00 Build 0)  -->
<svg version="1.1" id="Capa_1" xmlns="http://www.w3.org/2000/svg" xmlns:xlink="http://www.w3.org/1999/xlink" x="0px" y="0px"
	 viewBox="0 0 512.001 512.001" style="enable-background:new 0 0 512.001 512.001;" xml:space="preserve">
<g>
	<g>
		<path d="M97.323,181.37L97.323,181.37l20.293,316.59c0.507,7.896,7.058,14.041,14.97,14.041h45.691l-9.907-209.932
			c-0.391-8.275,6.001-15.3,14.276-15.69c8.261-0.393,15.3,6.001,15.69,14.276L208.308,512H241V324.966c0-8.284,6.716-15,15-15
			s15,6.716,15,15V512h32.692l9.974-211.346c0.391-8.274,7.385-14.669,15.69-14.276c8.275,0.391,14.667,7.416,14.276,15.69
			L333.726,512h45.691c7.912,0,14.463-6.145,14.97-14.041L414.68,181.37H97.323z"/>
	</g>
</g>
<g>
	<g>
		<path d="M277.185,0h-42.369c-24.813,0-45,20.187-45,45v12.705c0,0.125,0.016,0.246,0.019,0.371h29.962
			c0.004-0.125,0.019-0.246,0.019-0.371V45c0-8.271,6.729-15,15-15h42.369c8.271,0,15,6.729,15,15v12.705
			c0,0.125,0.016,0.246,0.019,0.371h29.962c0.003-0.124,0.019-0.246,0.019-0.371V45C322.185,20.187,301.997,0,277.185,0z"/>
	</g>
</g>
<g>
	<g>
		<path d="M432.091,88.075H79.909c-8.271,0-15,6.729-15,15v33.295c0,8.271,6.729,15,15,15h352.182c8.271,0,15-6.729,15-15v-33.295
			C447.091,94.804,440.362,88.075,432.091,88.075z"/>
	</g>
</g>
<g>
</g>
<g>
</g>
<g>
</g>
<g>
</g>
<g>
</g>
<g>
</g>
<g>
</g>
<g>
</g>
<g>
</g>
<g>
</g>
<g>
</g>
<g>
</g>
<g>
</g>
<g>
</g>
<g>
</g>
</svg>
