<?xml version="1.0" encoding="iso-8859-1"?>
<!-- Generator: Adobe Illustrator 19.0.0, SVG Export Plug-In . SVG Version: 6.00 Build 0)  -->
<svg version="1.1" id="Capa_1" xmlns="http://www.w3.org/2000/svg" xmlns:xlink="http://www.w3.org/1999/xlink" x="0px" y="0px"
	 viewBox="0 0 512 512" style="enable-background:new 0 0 512 512;" xml:space="preserve">
<g>
	<g>
		<path d="M256.001,0c-13.45,0-24.353,10.903-24.353,24.353v312.224h48.705V24.353h0.001C280.354,10.903,269.451,0,256.001,0z"/>
	</g>
</g>
<g>
	<g>
		<rect x="237.251" y="466.9" width="37.496" height="45.1"/>
	</g>
</g>
<g>
	<g>
		<rect x="304.761" y="466.9" width="37.496" height="45.1"/>
	</g>
</g>
<g>
	<g>
		<path d="M417.599,494.675l-4.343-27.772H372.27V512h30.503c4.385,0,8.551-1.918,11.401-5.249
			C417.024,503.42,418.276,499.008,417.599,494.675z"/>
	</g>
</g>
<g>
	<g>
		<rect x="169.741" y="466.9" width="37.496" height="45.1"/>
	</g>
</g>
<g>
	<g>
		<path d="M98.745,466.903l-4.343,27.772c-0.678,4.332,0.574,8.744,3.425,12.076c2.851,3.332,7.017,5.249,11.402,5.249h30.503
			v-45.097H98.745z"/>
	</g>
</g>
<g>
	<g>
		<path d="M390.842,414.382l-95.799-47.793h-78.084l-95.799,47.793c-9.624,4.801-16.798,12.873-20.466,22.508h310.614
			C407.64,427.255,400.466,419.184,390.842,414.382z"/>
	</g>
</g>
<g>
</g>
<g>
</g>
<g>
</g>
<g>
</g>
<g>
</g>
<g>
</g>
<g>
</g>
<g>
</g>
<g>
</g>
<g>
</g>
<g>
</g>
<g>
</g>
<g>
</g>
<g>
</g>
<g>
</g>
</svg>
