<?xml version="1.0" encoding="iso-8859-1"?>
<!-- Generator: Adobe Illustrator 19.0.0, SVG Export Plug-In . SVG Version: 6.00 Build 0)  -->
<svg version="1.1" id="Capa_1" xmlns="http://www.w3.org/2000/svg" xmlns:xlink="http://www.w3.org/1999/xlink" x="0px" y="0px"
	 viewBox="0 0 512 512" style="enable-background:new 0 0 512 512;" xml:space="preserve">
<g>
	<g>
		<path d="M103.31,249.504l23.385,248.888c0.725,7.713,7.199,13.608,14.946,13.608h228.716c7.747,0,14.222-5.895,14.947-13.608
			l23.385-248.888H103.31z"/>
	</g>
</g>
<g>
	<g>
		<path d="M256,0c-82.807,0-150.504,65.889-153.443,147.992h30.044C135.521,82.449,189.75,30.025,256,30.025
			s120.479,52.424,123.399,117.967h30.044C406.504,65.889,338.807,0,256,0z"/>
	</g>
</g>
<g>
	<g>
		<path d="M428.393,178.016H83.607c-8.278,0-15.012,6.735-15.012,15.012v11.439c0,8.278,6.735,15.012,15.012,15.012h344.786
			c8.278,0,15.012-6.735,15.012-15.012v-11.439C443.405,184.751,436.671,178.016,428.393,178.016z"/>
	</g>
</g>
<g>
</g>
<g>
</g>
<g>
</g>
<g>
</g>
<g>
</g>
<g>
</g>
<g>
</g>
<g>
</g>
<g>
</g>
<g>
</g>
<g>
</g>
<g>
</g>
<g>
</g>
<g>
</g>
<g>
</g>
</svg>
