<?xml version="1.0" encoding="iso-8859-1"?>
<!-- Generator: Adobe Illustrator 19.0.0, SVG Export Plug-In . SVG Version: 6.00 Build 0)  -->
<svg version="1.1" id="Capa_1" xmlns="http://www.w3.org/2000/svg" xmlns:xlink="http://www.w3.org/1999/xlink" x="0px" y="0px"
	 viewBox="0 0 512 512" style="enable-background:new 0 0 512 512;" xml:space="preserve">
<g>
	<g>
		<rect x="91.839" y="294.887" width="224.528" height="110.069"/>
	</g>
</g>
<g>
	<g>
		<path d="M240.104,149.186v-34.712h11.539V8.514h-94.75c-29.214,0-52.98,23.767-52.98,52.98c0,29.213,23.767,52.979,52.98,52.979
			h11.207v34.711c-44.298,15.037-76.261,57.027-76.261,106.343v9.356h224.527v-9.355
			C316.365,206.213,284.401,164.223,240.104,149.186z"/>
	</g>
</g>
<g>
	<g>
		<path d="M91.838,434.949V497c0,8.284,6.716,15,15,15h194.527c8.284,0,15-6.716,15-15v-62.051H91.838z"/>
	</g>
</g>
<g>
	<g>
		<path d="M406.678,10.127c-2.694-7.834-11.228-12.003-19.062-9.307l-28.956,9.958c-7.834,2.694-12,11.229-9.306,19.063
			c2.138,6.219,7.956,10.126,14.183,10.126c1.618,0,3.264-0.264,4.879-0.819l28.956-9.958
			C405.206,26.496,409.372,17.961,406.678,10.127z"/>
	</g>
</g>
<g>
	<g>
		<path d="M397.372,93.798l-28.956-9.958c-7.837-2.694-16.369,1.472-19.063,9.306c-2.694,7.834,1.472,16.369,9.306,19.063
			l28.956,9.958c1.616,0.556,3.261,0.819,4.879,0.819c6.226,0,12.045-3.908,14.184-10.125
			C409.373,105.027,405.206,96.492,397.372,93.798z"/>
	</g>
</g>
<g>
	<g>
		<path d="M405.162,46.494h-28.956c-8.284,0-15,6.716-15,15s6.716,15,15,15h28.956c8.284,0,15-6.716,15-15
			S413.446,46.494,405.162,46.494z"/>
	</g>
</g>
<g>
	<g>
		<path d="M327.131,150.586l-26.077-36.111h8.233c8.284,0,15-6.716,15-15V23.514c0-8.284-6.716-15-15-15h-27.646v130.322h0.001
			l21.168,29.313c2.933,4.061,7.52,6.219,12.173,6.219c3.042,0,6.114-0.923,8.769-2.84
			C330.468,166.677,331.981,157.302,327.131,150.586z"/>
	</g>
</g>
<g>
</g>
<g>
</g>
<g>
</g>
<g>
</g>
<g>
</g>
<g>
</g>
<g>
</g>
<g>
</g>
<g>
</g>
<g>
</g>
<g>
</g>
<g>
</g>
<g>
</g>
<g>
</g>
<g>
</g>
</svg>
