<?xml version="1.0" encoding="iso-8859-1"?>
<!-- Generator: Adobe Illustrator 19.0.0, SVG Export Plug-In . SVG Version: 6.00 Build 0)  -->
<svg xmlns="http://www.w3.org/2000/svg" xmlns:xlink="http://www.w3.org/1999/xlink" version="1.1" id="Layer_1" x="0px" y="0px" viewBox="0 0 512 512" style="enable-background:new 0 0 512 512;" xml:space="preserve">
<g>
	<g>
		<path d="M492.284,55.369c-26.266-26.277-68.813-26.282-95.084,0L216.856,235.71l-23.773-23.774l59.436-59.436    c6.578-6.578,6.549-17.227,0-23.777l-23.782-23.771c-6.566-6.556-17.205-6.56-23.771,0.006c-6.566,6.566-6.566,17.209,0,23.777    l11.896,11.885l-47.55,47.545l-11.888-11.889c-6.304-6.304-17.467-6.304-23.771,0L14.787,295.141    c-19.706,19.695-19.726,51.609,0,71.324l95.084,95.084c19.693,19.715,51.615,19.726,71.324,0.006L300.06,342.69l0.006-0.007    l192.22-192.212C518.561,124.203,518.583,81.645,492.284,55.369z M157.423,295.141l-47.553,47.548    c-3.284,3.284-7.585,4.925-11.885,4.925c-4.3,0-8.602-1.642-11.885-4.925c-6.566-6.566-6.566-17.209,0-23.771l47.553-47.548    c6.566-6.566,17.205-6.566,23.771,0C163.99,277.936,163.989,288.58,157.423,295.141z M468.514,126.692L288.169,307.026    l-47.536-47.537L420.972,79.14c13.154-13.154,34.433-13.12,47.531,0C481.643,92.247,481.677,113.529,468.514,126.692z"/>
	</g>
</g>
<g>
</g>
<g>
</g>
<g>
</g>
<g>
</g>
<g>
</g>
<g>
</g>
<g>
</g>
<g>
</g>
<g>
</g>
<g>
</g>
<g>
</g>
<g>
</g>
<g>
</g>
<g>
</g>
<g>
</g>
</svg>
