<?xml version="1.0" encoding="iso-8859-1"?>
<!-- Generator: Adobe Illustrator 19.0.0, SVG Export Plug-In . SVG Version: 6.00 Build 0)  -->
<svg xmlns="http://www.w3.org/2000/svg" xmlns:xlink="http://www.w3.org/1999/xlink" version="1.1" id="Layer_1" x="0px" y="0px" viewBox="0 0 512 512" style="enable-background:new 0 0 512 512;" xml:space="preserve">
<g>
	<g>
		<path d="M367.304,0c-18.442,0-33.391,14.949-33.391,33.391v27.826H178.087V33.391C178.087,14.949,163.138,0,144.696,0    s-33.391,14.949-33.391,33.391v445.217c0,18.442,14.949,33.391,33.391,33.391s33.391-14.949,33.391-33.391v-27.826h155.826v27.826    c0,18.442,14.949,33.391,33.391,33.391s33.391-14.949,33.391-33.391V33.391C400.696,14.949,385.746,0,367.304,0z M333.913,417.391    H178.087v-55.652h155.826V417.391z M333.913,328.348H178.087v-55.652h155.826V328.348z M333.913,239.304H178.087v-55.652h155.826    V239.304z M333.913,150.261H178.087V94.609h155.826V150.261z"/>
	</g>
</g>
<g>
</g>
<g>
</g>
<g>
</g>
<g>
</g>
<g>
</g>
<g>
</g>
<g>
</g>
<g>
</g>
<g>
</g>
<g>
</g>
<g>
</g>
<g>
</g>
<g>
</g>
<g>
</g>
<g>
</g>
</svg>
