<?xml version="1.0" encoding="iso-8859-1"?>
<!-- Generator: Adobe Illustrator 19.0.0, SVG Export Plug-In . SVG Version: 6.00 Build 0)  -->
<svg xmlns="http://www.w3.org/2000/svg" xmlns:xlink="http://www.w3.org/1999/xlink" version="1.1" id="Layer_1" x="0px" y="0px" viewBox="0 0 512 512" style="enable-background:new 0 0 512 512;" xml:space="preserve">
<g>
	<g>
		<path d="M352.731,198.126c2.204-8.314,3.443-16.86,3.443-25.604c0-49.202-35.688-90.143-82.52-98.519    c4.447-23.096,24.754-40.612,49.129-40.612c9.217,0,16.696-7.473,16.696-16.696C339.478,7.473,332,0,322.783,0    C295.46,0,271.238,13.252,256,33.602C240.762,13.252,216.54,0,189.217,0C180,0,172.522,7.473,172.522,16.696    c0,9.223,7.479,16.696,16.696,16.696c24.375,0,44.682,17.516,49.129,40.612c-46.832,8.376-82.52,49.317-82.52,98.519    c0,8.744,1.239,17.29,3.443,25.604c-52.076,32.45-86.921,90.072-86.921,155.819c0,62.56,31.391,120.233,83.967,154.272    c6.402,4.142,14.782,3.429,20.402-1.75c7.003-6.468,13.551-13.333,19.856-20.391C213.604,502.859,234.133,512,256,512    s42.396-9.141,59.427-25.923c6.304,7.058,12.853,13.923,19.856,20.391c3.174,2.93,7.239,4.429,11.326,4.429    c3.141,0,6.293-0.88,9.076-2.679c52.577-34.038,83.968-91.713,83.968-154.272C439.652,288.198,404.807,230.576,352.731,198.126z     M256,478.609c-13.807,0-27.144-6.681-38.453-18.862c16.22-22.921,29.234-47.933,38.453-74.36    c9.22,26.427,22.234,51.44,38.453,74.36C283.144,471.928,269.807,478.609,256,478.609z M321.92,182.733    c-20.493-7.919-42.667-12.439-65.92-12.439c-23.253,0-45.427,4.52-65.92,12.439c-0.518-3.36-0.863-6.756-0.863-10.211    c0-36.826,29.956-66.783,66.783-66.783s66.783,29.956,66.783,66.783C322.783,175.977,322.438,179.372,321.92,182.733z"/>
	</g>
</g>
<g>
</g>
<g>
</g>
<g>
</g>
<g>
</g>
<g>
</g>
<g>
</g>
<g>
</g>
<g>
</g>
<g>
</g>
<g>
</g>
<g>
</g>
<g>
</g>
<g>
</g>
<g>
</g>
<g>
</g>
</svg>
