<?xml version="1.0" encoding="iso-8859-1"?>
<!-- Generator: Adobe Illustrator 19.0.0, SVG Export Plug-In . SVG Version: 6.00 Build 0)  -->
<svg xmlns="http://www.w3.org/2000/svg" xmlns:xlink="http://www.w3.org/1999/xlink" version="1.1" id="Layer_1" x="0px" y="0px" viewBox="0 0 512 512" style="enable-background:new 0 0 512 512;" xml:space="preserve">
<g>
	<g>
		<path d="M422.957,211.478h-33.391c-12.3,0-24.229,1.741-35.68,4.854C348.624,145.13,328.92,0,256,0s-92.624,145.13-97.885,216.332    c-11.451-3.113-23.379-4.854-35.68-4.854H89.044c-9.217,0-16.696,7.473-16.696,16.696c0,9.223,7.479,16.696,16.696,16.696h16.696    v116.87C105.739,444.592,173.142,512,256,512s150.261-67.408,150.261-150.261V244.87h16.696c9.217,0,16.696-7.473,16.696-16.696    C439.652,218.951,432.174,211.478,422.957,211.478z M256,301.99c-14.416-30.974-37.339-56.264-65.276-72.176    c1.318-22.138,3.479-43.227,6.361-62.857h25.523c9.217,0,16.696-7.473,16.696-16.696s-7.479-16.696-16.696-16.696h-19.655    C215.484,73.193,235.147,33.391,256,33.391c14.317,0,28.067,18.831,39.352,50.087h-5.96c-9.217,0-16.696,7.473-16.696,16.696    c0,9.223,7.479,16.696,16.696,16.696h15.879c7.795,31.663,13.472,70.391,16.006,112.944    C293.339,245.726,270.415,271.016,256,301.99z"/>
	</g>
</g>
<g>
	<g>
		<path d="M278.261,189.217H246.87c-9.217,0-16.696,7.473-16.696,16.696c0,9.223,7.479,16.696,16.696,16.696h31.391    c9.217,0,16.696-7.473,16.696-16.696C294.957,196.69,287.478,189.217,278.261,189.217z"/>
	</g>
</g>
<g>
</g>
<g>
</g>
<g>
</g>
<g>
</g>
<g>
</g>
<g>
</g>
<g>
</g>
<g>
</g>
<g>
</g>
<g>
</g>
<g>
</g>
<g>
</g>
<g>
</g>
<g>
</g>
<g>
</g>
</svg>
