<?xml version="1.0" encoding="iso-8859-1"?>
<!-- Generator: Adobe Illustrator 19.0.0, SVG Export Plug-In . SVG Version: 6.00 Build 0)  -->
<svg xmlns="http://www.w3.org/2000/svg" xmlns:xlink="http://www.w3.org/1999/xlink" version="1.1" id="Layer_1" x="0px" y="0px" viewBox="0 0 512 512" style="enable-background:new 0 0 512 512;" xml:space="preserve">
<g>
	<g>
		<path d="M468.006,96.777l-59.095-59.095c-26.069-26.069-68.484-26.069-94.553,0l106.371,106.371    c16.667,16.667,25.536,39.786,24.323,63.428c-1.219,23.912-12.154,45.434-30.786,60.596    c-32.729,26.659-83.326,22.568-115.193-9.299l-32.068-32.068c-13.069-12.916-34.241-12.882-47.199,0.077l-23.638,23.638    l54.366,54.366c56.775,56.776,147.388,63.285,206.288,14.813c33.368-27.404,52.901-66.136,54.998-109.054    C513.894,168.165,497.923,126.694,468.006,96.777z"/>
	</g>
</g>
<g>
	<g>
		<path d="M172.53,274.065L9.776,436.818c-13.035,13.034-13.035,34.241,0,47.276c13.035,13.034,34.242,13.034,47.277,0    l162.752-162.754L172.53,274.065z"/>
	</g>
</g>
<g>
</g>
<g>
</g>
<g>
</g>
<g>
</g>
<g>
</g>
<g>
</g>
<g>
</g>
<g>
</g>
<g>
</g>
<g>
</g>
<g>
</g>
<g>
</g>
<g>
</g>
<g>
</g>
<g>
</g>
</svg>
