<?xml version="1.0" encoding="iso-8859-1"?>
<!-- Generator: Adobe Illustrator 19.0.0, SVG Export Plug-In . SVG Version: 6.00 Build 0)  -->
<svg xmlns="http://www.w3.org/2000/svg" xmlns:xlink="http://www.w3.org/1999/xlink" version="1.1" id="Layer_1" x="0px" y="0px" viewBox="0 0 512 512" style="enable-background:new 0 0 512 512;" xml:space="preserve">
<g>
	<g>
		<path d="M475.174,131.382c31.123-31.37,41.103-71.327,34.97-116.234c-1.011-7.424-5.747-12.489-13.172-13.505    C448.2-5.006,409.001,8.871,380.754,36.93c-26.364,26.079-39.698,63.391-39.926,110.771l-24.934,24.934    c1.408-44.843-20.149-84.56-56.413-112.103c-5.979-4.533-14.22-4.533-20.2,0c-61.23,46.492-81.916,129.886-15.816,204.53    l-49.273,49.272c1.441-45.789-20.985-85.198-56.413-112.106c-5.979-4.533-14.22-4.533-20.2,0    C36.352,248.732,15.503,331.902,81.78,406.744l-76.749,76.75c-6.523,6.517-6.523,17.095,0,23.613    C8.293,510.369,12.565,512,16.837,512c4.272,0,8.545-1.631,11.806-4.893l76.734-76.735    c69.691,61.797,153.672,51.375,204.623-15.718c4.533-5.968,4.533-14.231,0-20.2c-27.143-35.759-67.535-58.341-112.331-56.373    l49.417-49.415c72.634,64.392,156.489,47.687,204.615-15.708c4.533-5.968,4.533-14.231,0-20.2    c-27.309-35.965-67.202-58.096-112.324-56.382l27.408-27.407C408.232,170.757,445.877,160.975,475.174,131.382z"/>
	</g>
</g>
<g>
</g>
<g>
</g>
<g>
</g>
<g>
</g>
<g>
</g>
<g>
</g>
<g>
</g>
<g>
</g>
<g>
</g>
<g>
</g>
<g>
</g>
<g>
</g>
<g>
</g>
<g>
</g>
<g>
</g>
</svg>
