<?xml version="1.0" encoding="iso-8859-1"?>
<!-- Generator: Adobe Illustrator 19.0.0, SVG Export Plug-In . SVG Version: 6.00 Build 0)  -->
<svg xmlns="http://www.w3.org/2000/svg" xmlns:xlink="http://www.w3.org/1999/xlink" version="1.1" id="Layer_1" x="0px" y="0px" viewBox="0 0 512 512" style="enable-background:new 0 0 512 512;" xml:space="preserve">
<g>
	<g>
		<path d="M456.348,211.478c-12.816,0-24.521,4.837-33.391,12.782c-8.87-7.945-20.576-12.782-33.391-12.782    c-12.816,0-24.521,4.837-33.391,12.782c-8.87-7.945-20.576-12.782-33.391-12.782c-12.816,0-24.521,4.837-33.391,12.782    c-8.87-7.945-20.576-12.782-33.391-12.782s-24.521,4.837-33.391,12.782c-8.87-7.945-20.576-12.782-33.391-12.782    c-12.816,0-24.521,4.837-33.391,12.782c-8.87-7.945-20.576-12.782-33.391-12.782c-12.816,0-24.521,4.837-33.391,12.782    c-8.87-7.945-20.576-12.782-33.391-12.782c-27.619,0-50.087,22.468-50.087,50.087c0,2.261,0.456,4.5,1.348,6.576l18.647,43.511    h460.88l18.647-43.511c0.892-2.076,1.348-4.315,1.348-6.576C506.435,233.946,483.967,211.478,456.348,211.478z"/>
	</g>
</g>
<g>
	<g>
		<path d="M39.871,345.043l58.542,136.598c7.903,18.44,25.978,30.358,46.043,30.358h229.598c16.109,0,30.62-9.565,36.968-24.375    l61.106-142.582H39.871z"/>
	</g>
</g>
<g>
	<g>
		<path d="M256,0C156.621,0,75.646,79.411,72.663,178.087h33.399C109.027,97.828,175.023,33.391,256,33.391    s146.973,64.436,149.937,144.696h33.399C436.354,79.411,355.379,0,256,0z"/>
	</g>
</g>
<g>
</g>
<g>
</g>
<g>
</g>
<g>
</g>
<g>
</g>
<g>
</g>
<g>
</g>
<g>
</g>
<g>
</g>
<g>
</g>
<g>
</g>
<g>
</g>
<g>
</g>
<g>
</g>
<g>
</g>
</svg>
