<?xml version="1.0" encoding="iso-8859-1"?>
<!-- Generator: Adobe Illustrator 19.0.0, SVG Export Plug-In . SVG Version: 6.00 Build 0)  -->
<svg xmlns="http://www.w3.org/2000/svg" xmlns:xlink="http://www.w3.org/1999/xlink" version="1.1" id="Layer_1" x="0px" y="0px" viewBox="0 0 512 512" style="enable-background:new 0 0 512 512;" xml:space="preserve">
<g>
	<g>
		<path d="M79.389,378.435C101.237,455.427,172.104,512,256,512c83.895,0,154.762-56.573,176.61-133.565H79.389z"/>
	</g>
</g>
<g>
	<g>
		<path d="M456.348,311.652h-23.913L294.865,81.29c6.909-8.587,11.222-19.348,11.222-31.203C306.087,22.468,283.619,0,256,0    s-50.087,22.468-50.087,50.087c0,11.855,4.313,22.616,11.222,31.203L79.565,311.652H55.652c-9.217,0-16.696,7.473-16.696,16.696    c0,9.223,7.479,16.696,16.696,16.696h400.696c9.217,0,16.696-7.473,16.696-16.696    C473.043,319.125,465.565,311.652,456.348,311.652z M239.304,311.652H118.462L239.304,109.3V311.652z M256,66.783    c-9.206,0-16.696-7.49-16.696-16.696s7.49-16.696,16.696-16.696c9.206,0,16.696,7.49,16.696,16.696S265.206,66.783,256,66.783z     M272.696,311.652V109.3l120.842,202.352H272.696z"/>
	</g>
</g>
<g>
</g>
<g>
</g>
<g>
</g>
<g>
</g>
<g>
</g>
<g>
</g>
<g>
</g>
<g>
</g>
<g>
</g>
<g>
</g>
<g>
</g>
<g>
</g>
<g>
</g>
<g>
</g>
<g>
</g>
</svg>
