<?xml version="1.0" encoding="iso-8859-1"?>
<!-- Generator: Adobe Illustrator 19.0.0, SVG Export Plug-In . SVG Version: 6.00 Build 0)  -->
<svg xmlns="http://www.w3.org/2000/svg" xmlns:xlink="http://www.w3.org/1999/xlink" version="1.1" id="Layer_1" x="0px" y="0px" viewBox="0 0 512 512" style="enable-background:new 0 0 512 512;" xml:space="preserve">
<g>
	<g>
		<path d="M450.783,339.212c-19.086,0-36.155,8.792-47.391,22.53L126.793,242.131l-50.37-148    c-2.304-6.766-8.652-11.315-15.804-11.315H16.696C7.479,82.815,0,90.288,0,99.511c0,9.223,7.479,16.696,16.696,16.696h31.968    l48.903,143.691c1.522,4.462,4.847,8.071,9.174,9.946l66.869,28.917l-15.653,130.001c-0.837,9.978,3.554,19.364,11.739,25.114    c8.183,5.751,18.515,6.69,27.837,2.408l161.731-77.237l30.89,13.358c-4.931,37.475,24.423,69.244,60.629,69.244    c33.75,0,61.217-27.462,61.217-61.217S484.532,339.212,450.783,339.212z M192.435,421.718l13.142-109.134l113.03,48.879    L192.435,421.718z M450.783,428.256c-15.348,0-27.826-12.484-27.826-27.826c0-15.342,12.478-27.826,27.826-27.826    c15.348,0,27.826,12.484,27.826,27.826C478.609,415.772,466.13,428.256,450.783,428.256z"/>
	</g>
</g>
<g>
	<g>
		<path d="M498.837,158.707c-2.924-5.369-8.555-8.712-14.663-8.712H150.261c-11.418,0-19.496,11.255-15.804,22.076l14.192,41.706    l253.5,110.748l96.047-148.779C501.512,170.61,501.761,164.072,498.837,158.707z"/>
	</g>
</g>
<g>
	<g>
		<path d="M387.923,94.973c-12.706-26.831-39.967-44.62-70.38-44.62c-30.392,0-57.652,17.793-70.359,44.614    c-17.845,0.948-33.832,8.951-45.272,21.239h231.261C421.736,103.922,405.757,95.921,387.923,94.973z"/>
	</g>
</g>
<g>
</g>
<g>
</g>
<g>
</g>
<g>
</g>
<g>
</g>
<g>
</g>
<g>
</g>
<g>
</g>
<g>
</g>
<g>
</g>
<g>
</g>
<g>
</g>
<g>
</g>
<g>
</g>
<g>
</g>
</svg>
