<?xml version="1.0" encoding="iso-8859-1"?>
<!-- Generator: Adobe Illustrator 19.0.0, SVG Export Plug-In . SVG Version: 6.00 Build 0)  -->
<svg xmlns="http://www.w3.org/2000/svg" xmlns:xlink="http://www.w3.org/1999/xlink" version="1.1" id="Layer_1" x="0px" y="0px" viewBox="0 0 512.001 512.001" style="enable-background:new 0 0 512.001 512.001;" xml:space="preserve">
<g>
	<g>
		<path d="M456.367,178.104l-183.67-0.049V66.789c0-18.415,14.98-33.395,33.394-33.395c18.415,0,33.395,14.98,33.395,33.395    c0,9.224,7.479,16.697,16.697,16.697c9.218,0,16.697-7.474,16.697-16.697C372.881,29.959,342.921,0,306.092,0    C286.136,0,268.248,8.841,256,22.758C243.752,8.841,225.864,0,205.908,0c-36.83,0-66.789,29.959-66.789,66.789    c0,9.224,7.479,16.697,16.697,16.697c9.218,0,16.697-7.474,16.697-16.697c0-18.415,14.98-33.395,33.395-33.395    s33.394,14.98,33.394,33.395v111.266l-183.67,0.049c-9.218,0-16.697,7.474-16.697,16.697c0,9.224,7.479,16.697,16.697,16.697    h17.551c1.767,19.502,6.538,38.519,14.442,56.702c0.007,0.017,0.02,0.027,0.027,0.043c19.54,44.808,56.891,80.544,102.493,98.059    c9.578,3.669,15.762,12.316,15.762,22.029c0,13.283-10.694,23.486-23.6,23.486h-59.886c-27.622,0-50.092,22.47-50.092,50.092    v33.395c0,9.224,7.479,16.697,16.697,16.697h333.945c9.218,0,16.697-7.474,16.697-16.697v-33.395    c0-27.622-22.47-50.092-50.092-50.092h-59.886c-13.012,0-23.6-10.534-23.6-23.486c0-10.034,6.496-18.456,15.784-22.035    c45.58-17.509,82.932-53.245,102.472-98.053c0.007-0.017,0.02-0.027,0.027-0.043c7.904-18.182,12.675-37.199,14.442-56.702h17.551    c9.218,0,16.697-7.474,16.697-16.697C473.065,185.578,465.585,178.104,456.367,178.104z M389.578,445.211    c9.208,0,16.697,7.49,16.697,16.697v16.697H105.725v-16.697c0-9.207,7.49-16.697,16.697-16.697    C123.896,445.211,381.906,445.211,389.578,445.211z M397.698,244.844H114.302c-3.831-10.833-6.384-21.98-7.645-33.346h298.686    C404.082,222.864,401.53,234.011,397.698,244.844z"/>
	</g>
</g>
<g>
</g>
<g>
</g>
<g>
</g>
<g>
</g>
<g>
</g>
<g>
</g>
<g>
</g>
<g>
</g>
<g>
</g>
<g>
</g>
<g>
</g>
<g>
</g>
<g>
</g>
<g>
</g>
<g>
</g>
</svg>
