<?xml version="1.0" encoding="iso-8859-1"?>
<!-- Generator: Adobe Illustrator 19.0.0, SVG Export Plug-In . SVG Version: 6.00 Build 0)  -->
<svg xmlns="http://www.w3.org/2000/svg" xmlns:xlink="http://www.w3.org/1999/xlink" version="1.1" id="Layer_1" x="0px" y="0px" viewBox="0 0 512 512" style="enable-background:new 0 0 512 512;" xml:space="preserve">
<g>
	<g>
		<path d="M461.914,0H317.218c-27.619,0-50.087,22.468-50.087,50.087v156.38c0,42.005-31.435,77.663-73.066,82.941l-80.055,9.907    c-65,8.157-114.01,63.706-114.01,129.206v33.391C0.001,489.532,22.468,512,50.088,512h233.739c4.424,0,8.674-1.761,11.804-4.892    l38.283-38.282v17.131c0,14.358,11.685,26.043,26.043,26.043h126c14.358,0,26.043-11.685,26.043-26.043V50.087    C512.001,22.468,489.533,0,461.914,0z M276.913,478.609H50.088c-9.206,0-16.696-7.49-16.696-16.696v-16.696h276.913    L276.913,478.609z M478.609,478.609H367.305v-33.391h111.304V478.609z M478.609,133.565H300.522V50.087    c0-9.206,7.49-16.696,16.696-16.696h144.696c9.206,0,16.696,7.49,16.696,16.696V133.565z"/>
	</g>
</g>
<g>
</g>
<g>
</g>
<g>
</g>
<g>
</g>
<g>
</g>
<g>
</g>
<g>
</g>
<g>
</g>
<g>
</g>
<g>
</g>
<g>
</g>
<g>
</g>
<g>
</g>
<g>
</g>
<g>
</g>
</svg>
