<?xml version="1.0" encoding="iso-8859-1"?>
<!-- Generator: Adobe Illustrator 19.0.0, SVG Export Plug-In . SVG Version: 6.00 Build 0)  -->
<svg xmlns="http://www.w3.org/2000/svg" xmlns:xlink="http://www.w3.org/1999/xlink" version="1.1" id="Layer_1" x="0px" y="0px" viewBox="0 0 512.001 512.001" style="enable-background:new 0 0 512.001 512.001;" xml:space="preserve">
<g>
	<g>
		<path d="M255.698,229.278c-46.492,0-84.312,30.256-84.312,67.449s37.819,67.449,84.312,67.449    c46.492,0,84.312-30.256,84.312-67.449S302.189,229.278,255.698,229.278z M221.973,313.59c-9.313,0-16.862-7.55-16.862-16.862    c0-9.313,7.55-16.862,16.862-16.862s16.862,7.55,16.862,16.862C238.835,306.04,231.285,313.59,221.973,313.59z M289.422,313.59    c-9.313,0-16.862-7.55-16.862-16.862c0-9.313,7.55-16.862,16.862-16.862c9.313,0,16.862,7.55,16.862,16.862    C306.285,306.04,298.735,313.59,289.422,313.59z"/>
	</g>
</g>
<g>
	<g>
		<path d="M255.698,38.171c-133.275,0-241.694,100.862-241.694,224.832s108.419,224.832,241.694,224.832    s241.694-100.862,241.694-224.832S388.972,38.171,255.698,38.171z M154.523,161.828c9.313,0,16.862,7.55,16.862,16.862    c0,9.313-7.55,16.862-16.862,16.862c-9.313,0-16.862-7.55-16.862-16.862C137.661,169.378,145.211,161.828,154.523,161.828z     M255.698,397.902c-65.089,0-118.037-45.389-118.037-101.174s52.947-101.174,118.037-101.174    c65.089,0,118.037,45.389,118.037,101.174C373.734,352.513,320.786,397.902,255.698,397.902z M356.872,195.553    c-9.313,0-16.862-7.55-16.862-16.862c0-9.313,7.55-16.862,16.862-16.862c9.313,0,16.862,7.55,16.862,16.862    C373.734,188.003,366.184,195.553,356.872,195.553z"/>
	</g>
</g>
<g>
	<g>
		<path d="M509.006,40.993c-1.196-7.087-6.752-12.636-13.833-13.827c-40.378-6.807-67.878-0.735-87.682,5.417    c-5.253,1.762-10.316,3.799-15.246,6.02c44.891,24.168,81.893,59.816,106.371,102.705c1.818-4.227,3.577-8.501,5.076-12.98    C509.73,108.875,515.801,81.375,509.006,40.993z"/>
	</g>
</g>
<g>
	<g>
		<path d="M104.156,32.468c-19.454-6.032-46.943-12.087-87.331-5.303c-7.081,1.192-12.636,6.74-13.833,13.827    c-6.796,40.383-0.725,67.883,5.434,87.688c1.38,4.127,3.026,8.073,4.693,12.002C37.644,97.99,74.612,62.523,119.398,38.468    C114.481,36.263,109.422,34.232,104.156,32.468z"/>
	</g>
</g>
<g>
</g>
<g>
</g>
<g>
</g>
<g>
</g>
<g>
</g>
<g>
</g>
<g>
</g>
<g>
</g>
<g>
</g>
<g>
</g>
<g>
</g>
<g>
</g>
<g>
</g>
<g>
</g>
<g>
</g>
</svg>
