<?xml version="1.0" encoding="iso-8859-1"?>
<!-- Generator: Adobe Illustrator 19.0.0, SVG Export Plug-In . SVG Version: 6.00 Build 0)  -->
<svg xmlns="http://www.w3.org/2000/svg" xmlns:xlink="http://www.w3.org/1999/xlink" version="1.1" id="Layer_1" x="0px" y="0px" viewBox="0 0 512 512" style="enable-background:new 0 0 512 512;" xml:space="preserve">
<g>
	<g>
		<path d="M456.348,166.957h-17.509C430.475,73.671,352.083,0,256,0C160.374,0,81.667,73.495,73.194,166.957H55.652    c-9.217,0-16.696,7.473-16.696,16.696c0,9.223,7.479,16.696,16.696,16.696h18.384c6.736,63.185,22.745,212.819,28.474,267.093    c2.837,25.402,24.272,44.56,49.87,44.56h207.239c25.598,0,47.033-19.158,49.891-44.663c8.513-80.86,7.709-72.413,28.453-266.989    h18.385c9.217,0,16.696-7.473,16.696-16.696S465.565,166.957,456.348,166.957z M376.316,463.734    c-0.956,8.478-8.131,14.875-16.696,14.875H152.38c-8.565,0-15.74-6.397-16.673-14.771l-1.968-18.62h244.522L376.316,463.734z     M400.826,233.739H111.174l-3.565-33.391h296.782L400.826,233.739z M387.368,166.957c-7.442-28.758-33.533-50.087-64.585-50.087    c-2.935,0-5.88,0.201-8.804,0.603C302.326,96.869,280.316,83.478,256,83.478s-46.326,13.391-57.978,33.995    c-2.924-0.402-5.869-0.603-8.804-0.603c-31.053,0-57.143,21.329-64.585,50.087h-17.909C115.063,91.941,178.79,33.391,256,33.391    c77.698,0,141.049,58.881,149.271,133.565H387.368z"/>
	</g>
</g>
<g>
</g>
<g>
</g>
<g>
</g>
<g>
</g>
<g>
</g>
<g>
</g>
<g>
</g>
<g>
</g>
<g>
</g>
<g>
</g>
<g>
</g>
<g>
</g>
<g>
</g>
<g>
</g>
<g>
</g>
</svg>
