<?xml version="1.0" encoding="iso-8859-1"?>
<!-- Generator: Adobe Illustrator 19.0.0, SVG Export Plug-In . SVG Version: 6.00 Build 0)  -->
<svg xmlns="http://www.w3.org/2000/svg" xmlns:xlink="http://www.w3.org/1999/xlink" version="1.1" id="Layer_1" x="0px" y="0px" viewBox="0 0 512 512" style="enable-background:new 0 0 512 512;" xml:space="preserve">
<g>
	<g>
		<path d="M495.304,478.606H432.64C410.51,400.463,338.372,345.041,256,345.041S101.49,400.463,79.36,478.606H16.696    C7.479,478.606,0,486.079,0,495.302c0,9.223,7.479,16.696,16.696,16.696c28.337,0,453.043,0,478.609,0    c9.217,0,16.696-7.473,16.696-16.696C512,486.079,504.521,478.606,495.304,478.606z M211.478,456.346h-33.391    c-9.217,0-16.696-7.473-16.696-16.696c0-9.223,7.479-16.696,16.696-16.696h33.391c9.217,0,16.696,7.473,16.696,16.696    C228.174,448.873,220.695,456.346,211.478,456.346z M322.783,422.954h-33.391c-9.217,0-16.696-7.473-16.696-16.696    c0-9.223,7.479-16.696,16.696-16.696h33.391c9.217,0,16.696,7.473,16.696,16.696C339.478,415.481,332,422.954,322.783,422.954z"/>
	</g>
</g>
<g>
	<g>
		<path d="M261.565,244.872c-9.217,0-16.696,7.473-16.696,16.696v33.391c0,9.223,7.479,16.696,16.696,16.696    c9.217,0,16.696-7.472,16.696-16.696v-33.391C278.261,252.345,270.782,244.872,261.565,244.872z"/>
	</g>
</g>
<g>
	<g>
		<path d="M328.348,178.089c-9.217,0-16.696,7.473-16.696,16.696v33.391c0,9.223,7.479,16.696,16.696,16.696    s16.696-7.472,16.696-16.696v-33.391C345.043,185.562,337.565,178.089,328.348,178.089z"/>
	</g>
</g>
<g>
	<g>
		<path d="M194.783,178.089c-9.217,0-16.696,7.473-16.696,16.696v33.391c0,9.223,7.479,16.696,16.696,16.696    c9.217,0,16.696-7.472,16.696-16.696v-33.391C211.478,185.562,204,178.089,194.783,178.089z"/>
	</g>
</g>
<g>
	<g>
		<path d="M495.304,0.002c-2.679,0-194.62,0-200.348,0c-9.217,0-16.696,7.473-16.696,16.696V83.48c0,4.429,1.761,8.674,4.892,11.804    l61.891,61.892c4.837,4.837,8.574,9.783,16.696,9.783h16.696h116.87c9.217,0,16.696-7.473,16.696-16.696V16.698    C512,7.475,504.521,0.002,495.304,0.002z M345.043,109.96l-33.391-33.391V33.394h33.391V109.96z"/>
	</g>
</g>
<g>
</g>
<g>
</g>
<g>
</g>
<g>
</g>
<g>
</g>
<g>
</g>
<g>
</g>
<g>
</g>
<g>
</g>
<g>
</g>
<g>
</g>
<g>
</g>
<g>
</g>
<g>
</g>
<g>
</g>
</svg>
