<?xml version="1.0" encoding="iso-8859-1"?>
<!-- Generator: Adobe Illustrator 19.0.0, SVG Export Plug-In . SVG Version: 6.00 Build 0)  -->
<svg xmlns="http://www.w3.org/2000/svg" xmlns:xlink="http://www.w3.org/1999/xlink" version="1.1" id="Layer_1" x="0px" y="0px" viewBox="0 0 512 512" style="enable-background:new 0 0 512 512;" xml:space="preserve">
<g>
	<g>
		<path d="M422.957,33.391h-16.696V16.696C406.261,7.473,398.782,0,389.565,0c-4.967,0-228.762,0-233.739,0    c-27.619,0-50.087,22.468-50.087,50.087v33.391c0,9.223,7.479,16.696,16.696,16.696h50.087v33.953    c-18.829,2.729-33.391,18.822-33.391,38.394v45.772c-42.945,25.657-66.783,71.505-66.783,117.935c0,11.818,0,95.416,0,108.989    c0,36.826,29.956,66.783,66.783,66.783h166.957c36.826,0,66.783-29.956,66.783-66.783c0-11.13,0-98.073,0-108.989    c0-46.091-23.69-92.19-66.783-117.935v-45.772c0-19.573-14.562-35.664-33.391-38.394v-33.953h33.391    c0,36.826,29.956,66.783,66.783,66.783c9.217,0,16.696-7.473,16.696-16.696s-7.479-16.696-16.696-16.696    c-18.413,0-33.391-14.978-33.391-33.391h50.087c9.217,0,16.696-7.473,16.696-16.696V66.783h16.696    c9.217,0,16.696-7.473,16.696-16.696S432.174,33.391,422.957,33.391z M205.913,100.174h33.391v33.391h-33.391V100.174z     M281.924,243.109c34.909,17.455,56.7,52.271,57.42,91.165c-46.293,18.629-74.179,13.379-114.234-6.649    c-36.693-18.337-79.337-20.976-117.881-8.299c5.307-32.701,25.705-61.037,56.066-76.218c5.651-2.831,9.227-8.607,9.227-14.934    v-55.652c0-3.071,2.5-5.565,5.565-5.565h11.13H256h11.13c3.065,0,5.565,2.494,5.565,5.565v55.652    C272.696,234.5,276.272,240.277,281.924,243.109z M372.87,66.783h-33.391V33.391h33.391V66.783z"/>
	</g>
</g>
<g>
</g>
<g>
</g>
<g>
</g>
<g>
</g>
<g>
</g>
<g>
</g>
<g>
</g>
<g>
</g>
<g>
</g>
<g>
</g>
<g>
</g>
<g>
</g>
<g>
</g>
<g>
</g>
<g>
</g>
</svg>
