<?xml version="1.0" encoding="iso-8859-1"?>
<!-- Generator: Adobe Illustrator 19.0.0, SVG Export Plug-In . SVG Version: 6.00 Build 0)  -->
<svg xmlns="http://www.w3.org/2000/svg" xmlns:xlink="http://www.w3.org/1999/xlink" version="1.1" id="Layer_1" x="0px" y="0px" viewBox="0 0 512 512" style="enable-background:new 0 0 512 512;" xml:space="preserve">
<g>
	<g>
		<path d="M395.13,77.913H116.87c-9.206,0-16.696,7.49-16.696,16.696s7.49,16.696,16.696,16.696H395.13    c9.206,0,16.696-7.49,16.696-16.696S404.336,77.913,395.13,77.913z"/>
	</g>
</g>
<g>
	<g>
		<path d="M428.522,144.696H83.478c-9.206,0-16.696,7.49-16.696,16.696c0,9.206,7.49,16.696,16.696,16.696h345.043    c9.206,0,16.696-7.49,16.696-16.696C445.217,152.185,437.728,144.696,428.522,144.696z"/>
	</g>
</g>
<g>
	<g>
		<path d="M461.913,211.478H50.087c-9.206,0-16.696,7.49-16.696,16.696c0,9.206,7.49,16.696,16.696,16.696h411.826    c9.206,0,16.696-7.49,16.696-16.696C478.609,218.968,471.119,211.478,461.913,211.478z"/>
	</g>
</g>
<g>
	<g>
		<path d="M495.304,278.261H16.696C7.49,278.261,0,285.751,0,294.957c0,9.206,7.49,16.696,16.696,16.696h478.609    c9.206,0,16.696-7.49,16.696-16.696C512,285.751,504.51,278.261,495.304,278.261z"/>
	</g>
</g>
<g>
	<g>
		<path d="M395.13,478.609H116.87c-9.206,0-16.696,7.49-16.696,16.696c0,9.206,7.49,16.696,16.696,16.696H395.13    c9.206,0,16.696-7.49,16.696-16.696C411.826,486.098,404.336,478.609,395.13,478.609z"/>
	</g>
</g>
<g>
	<g>
		<path d="M261.565,345.043c-27.619,0-50.087,22.468-50.087,50.087v50.087h100.174V395.13    C311.652,367.511,289.184,345.043,261.565,345.043z"/>
	</g>
</g>
<g>
	<g>
		<path d="M428.522,411.826h-83.478v33.391h83.478c9.206,0,16.696-7.49,16.696-16.696S437.728,411.826,428.522,411.826z"/>
	</g>
</g>
<g>
	<g>
		<path d="M83.478,411.826c-9.206,0-16.696,7.49-16.696,16.696s7.49,16.696,16.696,16.696h94.609v-33.391H83.478z"/>
	</g>
</g>
<g>
	<g>
		<path d="M461.913,345.043H328.19c7.328,9.725,12.653,21.037,15.171,33.391h118.552c9.206,0,16.696-7.49,16.696-16.696    S471.119,345.043,461.913,345.043z"/>
	</g>
</g>
<g>
	<g>
		<path d="M50.087,345.043c-9.206,0-16.696,7.49-16.696,16.696s7.49,16.696,16.696,16.696H179.77    c2.518-12.355,7.842-23.667,15.171-33.391H50.087z"/>
	</g>
</g>
<g>
	<g>
		<path d="M333.913,0H178.087c-24.588,0-44.522,19.932-44.522,44.522h244.87C378.435,19.932,358.501,0,333.913,0z"/>
	</g>
</g>
<g>
</g>
<g>
</g>
<g>
</g>
<g>
</g>
<g>
</g>
<g>
</g>
<g>
</g>
<g>
</g>
<g>
</g>
<g>
</g>
<g>
</g>
<g>
</g>
<g>
</g>
<g>
</g>
<g>
</g>
</svg>
