<?xml version="1.0" encoding="iso-8859-1"?>
<!-- Generator: Adobe Illustrator 19.0.0, SVG Export Plug-In . SVG Version: 6.00 Build 0)  -->
<svg xmlns="http://www.w3.org/2000/svg" xmlns:xlink="http://www.w3.org/1999/xlink" version="1.1" id="Layer_1" x="0px" y="0px" viewBox="0 0 512 512" style="enable-background:new 0 0 512 512;" xml:space="preserve">
<g>
	<g>
		<path d="M439.652,78.326V50.087C439.652,22.468,417.184,0,389.565,0h-267.13C94.816,0,72.348,22.468,72.348,50.087v27.972    c-10.877,15.216-33.391,49.469-33.391,72.202c0,21.737,14,40.096,33.391,47.01v231.25c0,46.032,37.446,83.478,83.478,83.478    h200.348c46.032,0,83.478-37.446,83.478-83.478v-231.25c19.391-6.914,33.391-25.273,33.391-47.01    C473.043,130.18,450.321,94.139,439.652,78.326z M189.217,445.217c-27.619,0-50.087-22.468-50.087-50.087    s22.468-50.087,50.087-50.087c27.619,0,50.087,22.468,50.087,50.087S216.836,445.217,189.217,445.217z M289.391,400.696    c-9.22,0-16.696-7.475-16.696-16.696s7.475-16.696,16.696-16.696s16.696,7.475,16.696,16.696S298.612,400.696,289.391,400.696z     M367.304,345.043c-9.22,0-16.696-7.475-16.696-16.696s7.475-16.696,16.696-16.696c9.22,0,16.696,7.475,16.696,16.696    S376.525,345.043,367.304,345.043z M406.261,233.739H105.739v-36.25c0.245-0.087,0.455-0.238,0.698-0.328    c1.996-0.742,3.86-1.711,5.727-2.692c0.907-0.476,1.873-0.841,2.746-1.371c2.676-1.622,5.207-3.455,7.525-5.533    c8.87,7.946,20.576,12.782,33.391,12.782c12.816,0,24.521-4.837,33.391-12.782c8.87,7.946,20.576,12.782,33.391,12.782    s24.521-4.837,33.391-12.782c8.87,7.946,20.576,12.782,33.391,12.782c12.816,0,24.521-4.837,33.391-12.782    c8.87,7.946,20.576,12.782,33.391,12.782c12.816,0,24.521-4.837,33.391-12.782c2.318,2.077,4.85,3.911,7.525,5.533    c0.873,0.529,1.839,0.895,2.746,1.371c1.867,0.981,3.732,1.95,5.727,2.692c0.243,0.09,0.453,0.242,0.698,0.328V233.739z     M422.957,166.957c-9.206,0-16.696-7.49-16.696-16.696c0-9.223-7.473-16.696-16.696-16.696c-9.223,0-16.696,7.473-16.696,16.696    c0,9.206-7.49,16.696-16.696,16.696c-9.206,0-16.696-7.49-16.696-16.696c0-9.223-7.473-16.696-16.696-16.696    c-9.223,0-16.696,7.473-16.696,16.696c0,9.206-7.49,16.696-16.696,16.696s-16.696-7.49-16.696-16.696    c0-9.223-7.473-16.696-16.696-16.696c-9.223,0-16.696,7.473-16.696,16.696c0,9.206-7.49,16.696-16.696,16.696    s-16.696-7.49-16.696-16.696c0-9.223-7.473-16.696-16.696-16.696s-16.696,7.473-16.696,16.696c0,9.206-7.49,16.696-16.696,16.696    c-9.206,0-16.696-7.49-16.696-16.696c0-9.223-7.473-16.696-16.696-16.696c-9.223,0-16.696,7.473-16.696,16.696    c0,9.206-7.49,16.696-16.696,16.696c-9.206,0-16.696-7.49-16.696-16.696c0-8.642,12.32-31.37,25.272-50.087h316.473    c13.962,21.212,25.43,43.457,25.56,50.092C439.652,159.468,432.162,166.957,422.957,166.957z"/>
	</g>
</g>
<g>
</g>
<g>
</g>
<g>
</g>
<g>
</g>
<g>
</g>
<g>
</g>
<g>
</g>
<g>
</g>
<g>
</g>
<g>
</g>
<g>
</g>
<g>
</g>
<g>
</g>
<g>
</g>
<g>
</g>
</svg>
