<?xml version="1.0" encoding="iso-8859-1"?>
<!-- Generator: Adobe Illustrator 19.0.0, SVG Export Plug-In . SVG Version: 6.00 Build 0)  -->
<svg xmlns="http://www.w3.org/2000/svg" xmlns:xlink="http://www.w3.org/1999/xlink" version="1.1" id="Layer_1" x="0px" y="0px" viewBox="0 0 512 512" style="enable-background:new 0 0 512 512;" xml:space="preserve">
<g>
	<g>
		<path d="M443.733,291.854V204.8c0-26.285-19.982-47.753-45.511-50.625V102.4c0-9.428-7.639-17.067-17.067-17.067    c-9.428,0-17.067,7.639-17.067,17.067v51.2h-27.522l-26.35-79.055C305.562,60.583,292.55,51.2,277.833,51.2H136.533    c-18.822,0-34.133,15.311-34.133,34.133v85.333v52.563C44.603,231.556,0,281.27,0,341.333C0,407.206,53.594,460.8,119.467,460.8    c47.533,0,88.552-27.977,107.775-68.267h115.812c7.928,38.904,42.402,68.267,83.613,68.267c47.055,0,85.333-38.278,85.333-85.333    C512,334.255,482.637,299.782,443.733,291.854z M119.467,426.667c-47.055,0-85.333-38.278-85.333-85.333    c0-47.055,38.278-85.333,85.333-85.333s85.333,38.278,85.333,85.333C204.8,388.388,166.522,426.667,119.467,426.667z     M204.8,174.313c-4.046-2.072-8.095-4.139-12.305-5.924c-17.909-7.592-36.675-12.207-55.962-13.945V85.333l68.267,0.002V174.313z     M307.2,221.867h-43.017c-3.8-4.589-7.822-9.017-12.027-13.228c-4.237-4.236-8.653-8.235-13.222-12.018V85.338l38.899,0.001    l29.367,88.095V221.867z M426.667,426.667c-28.233,0-51.2-22.967-51.2-51.2s22.967-51.2,51.2-51.2c28.233,0,51.2,22.967,51.2,51.2    S454.899,426.667,426.667,426.667z"/>
	</g>
</g>
<g>
</g>
<g>
</g>
<g>
</g>
<g>
</g>
<g>
</g>
<g>
</g>
<g>
</g>
<g>
</g>
<g>
</g>
<g>
</g>
<g>
</g>
<g>
</g>
<g>
</g>
<g>
</g>
<g>
</g>
</svg>
