<?xml version="1.0" encoding="iso-8859-1"?>
<!-- Generator: Adobe Illustrator 19.0.0, SVG Export Plug-In . SVG Version: 6.00 Build 0)  -->
<svg xmlns="http://www.w3.org/2000/svg" xmlns:xlink="http://www.w3.org/1999/xlink" version="1.1" id="Layer_1" x="0px" y="0px" viewBox="0 0 511.999 511.999" style="enable-background:new 0 0 511.999 511.999;" xml:space="preserve">
<g>
	<g>
		<polygon points="172.521,300.521 172.521,424.734 312.261,300.521   "/>
	</g>
</g>
<g>
	<g>
		<polygon points="199.738,445.217 339.478,445.217 339.478,321.003   "/>
	</g>
</g>
<g>
	<g>
		<path d="M496.316,101.519L262.575,1.345c-4.196-1.793-8.957-1.793-13.152,0L15.684,101.519c-6.142,2.63-10.12,8.668-10.12,15.348    v66.783c0,9.223,7.473,16.696,16.696,16.696h16.696v294.958c0,9.223,7.473,16.696,16.696,16.696h400.697    c9.223,0,16.696-7.473,16.696-16.696V200.346h16.696c9.217,0,16.696-7.473,16.696-16.696v-66.783    C506.435,110.189,502.457,104.15,496.316,101.519z M289.391,166.955h33.391c9.223,0,16.696,7.473,16.696,16.696    s-7.473,16.696-16.696,16.696h-33.391c-9.223,0-16.696-7.473-16.696-16.696S280.168,166.955,289.391,166.955z M189.217,166.955    h33.391c9.223,0,16.696,7.473,16.696,16.696s-7.473,16.696-16.696,16.696h-33.391c-9.223,0-16.696-7.473-16.696-16.696    S179.994,166.955,189.217,166.955z M122.434,200.347H89.042c-9.223,0-16.696-7.473-16.696-16.696s7.473-16.696,16.696-16.696    h33.391c9.223,0,16.696,7.473,16.696,16.696S131.656,200.347,122.434,200.347z M372.87,461.913    c0,9.223-7.473,16.696-16.696,16.696H155.825c-9.323,0-16.696-7.798-16.696-16.696V283.825c0-9.223,7.473-16.696,16.696-16.696    h200.349c8.816,0,16.696,7.481,16.696,16.696V461.913z M422.957,200.347h-33.391c-9.223,0-16.696-7.473-16.696-16.696    s7.473-16.696,16.696-16.696h33.391c9.223,0,16.696,7.473,16.696,16.696S432.18,200.347,422.957,200.347z"/>
	</g>
</g>
<g>
</g>
<g>
</g>
<g>
</g>
<g>
</g>
<g>
</g>
<g>
</g>
<g>
</g>
<g>
</g>
<g>
</g>
<g>
</g>
<g>
</g>
<g>
</g>
<g>
</g>
<g>
</g>
<g>
</g>
</svg>
