<?xml version="1.0" encoding="iso-8859-1"?>
<!-- Generator: Adobe Illustrator 19.0.0, SVG Export Plug-In . SVG Version: 6.00 Build 0)  -->
<svg xmlns="http://www.w3.org/2000/svg" xmlns:xlink="http://www.w3.org/1999/xlink" version="1.1" id="Layer_1" x="0px" y="0px" viewBox="0 0 512 512" style="enable-background:new 0 0 512 512;" xml:space="preserve">
<g>
	<g>
		<path d="M495.304,33.391h-61.217V16.696C434.087,7.473,426.614,0,417.391,0c-9.223,0-16.696,7.473-16.696,16.696v16.696H33.391    V16.696C33.391,7.473,25.918,0,16.696,0C7.473,0,0,7.473,0,16.696v478.609C0,504.527,7.473,512,16.696,512    c7.756,0,393.451,0,400.696,0c9.223,0,16.696-7.473,16.696-16.696c0-17.189,0-407.49,0-428.522h44.522v50.087    c0,9.223,7.479,16.696,16.696,16.696c9.217,0,16.696-7.473,16.696-16.696V50.087C512,40.864,504.521,33.391,495.304,33.391z     M33.391,311.652h100.174v33.391H33.391V311.652z M267.13,345.043H166.957v-33.391H267.13V345.043z M333.913,378.435v33.391    H233.739v-33.391H333.913z M200.348,378.435v33.391H100.174v-33.391H200.348z M33.391,378.435h33.391v33.391H33.391V378.435z     M133.565,478.609H33.391v-33.391h100.174V478.609z M267.13,478.609H166.957v-33.391H267.13V478.609z M400.696,478.609H300.522    v-33.391h100.174V478.609z M400.696,411.826h-33.391v-33.391h33.391V411.826z M400.696,345.043H300.522v-33.391h100.174V345.043z     M400.696,278.261h-116.87c-5.82,0-247.338,0-250.435,0V66.783h166.957v33.391h-50.087c-5.364,0-10.408,2.581-13.544,6.934    c-3.141,4.353-3.995,9.951-2.294,15.038l33.391,100.174c2.273,6.821,8.653,11.419,15.837,11.419h66.783    c7.185,0,13.566-4.598,15.837-11.419l33.391-100.174c1.701-5.087,0.848-10.685-2.294-15.038c-3.135-4.353-8.18-6.934-13.544-6.934    h-50.087V66.783h166.957V278.261z"/>
	</g>
</g>
<g>
</g>
<g>
</g>
<g>
</g>
<g>
</g>
<g>
</g>
<g>
</g>
<g>
</g>
<g>
</g>
<g>
</g>
<g>
</g>
<g>
</g>
<g>
</g>
<g>
</g>
<g>
</g>
<g>
</g>
</svg>
