<?xml version="1.0" encoding="iso-8859-1"?>
<!-- Generator: Adobe Illustrator 19.0.0, SVG Export Plug-In . SVG Version: 6.00 Build 0)  -->
<svg version="1.1" id="Layer_1" xmlns="http://www.w3.org/2000/svg" xmlns:xlink="http://www.w3.org/1999/xlink" x="0px" y="0px"
	 viewBox="0 0 512 512" style="enable-background:new 0 0 512 512;" xml:space="preserve">
<g>
	<g>
		<path d="M448,412.444h-14.222h-21.333H85.333H64c-7.479,0-14.656-1.301-21.333-3.669v10.78c0,50.974,41.469,92.444,92.444,92.444
			h298.667c11.782,0,21.333-9.552,21.333-21.333v-78.626C452.774,412.301,450.404,412.444,448,412.444z"/>
	</g>
</g>
<g>
	<g>
		<path d="M433.778,0H135.111C84.136,0,42.667,41.471,42.667,92.444V202.78c6.677-2.368,13.854-3.669,21.333-3.669h21.333h327.111
			h21.333H448c2.404,0,4.774,0.145,7.111,0.404V21.333C455.111,9.552,445.559,0,433.778,0z"/>
	</g>
</g>
<g>
	<g>
		<path d="M455.111,243.018c-2.227-0.789-4.614-1.24-7.111-1.24h-14.222h-21.333h-65.24c0.789,2.227,1.24,4.614,1.24,7.111v113.778
			c0,2.497-0.451,4.884-1.24,7.111h65.24h21.333H448c2.497,0,4.884-0.451,7.111-1.24c8.28-2.931,14.222-10.809,14.222-20.093
			v-85.333C469.333,253.827,463.391,245.951,455.111,243.018z"/>
	</g>
</g>
<g>
	<g>
		<path d="M305.778,248.889c0-2.497,0.451-4.884,1.24-7.111H85.333H64c-11.782,0-21.333,9.552-21.333,21.333v85.333
			c0,11.782,9.552,21.333,21.333,21.333h21.333h221.685c-0.789-2.227-1.24-4.614-1.24-7.111V248.889z"/>
	</g>
</g>
<g>
</g>
<g>
</g>
<g>
</g>
<g>
</g>
<g>
</g>
<g>
</g>
<g>
</g>
<g>
</g>
<g>
</g>
<g>
</g>
<g>
</g>
<g>
</g>
<g>
</g>
<g>
</g>
<g>
</g>
</svg>
