<?xml version="1.0" encoding="iso-8859-1"?>
<!-- Generator: Adobe Illustrator 19.0.0, SVG Export Plug-In . SVG Version: 6.00 Build 0)  -->
<svg version="1.1" id="Layer_1" xmlns="http://www.w3.org/2000/svg" xmlns:xlink="http://www.w3.org/1999/xlink" x="0px" y="0px"
	 viewBox="0 0 512.008 512.008" style="enable-background:new 0 0 512.008 512.008;" xml:space="preserve">
<g>
	<g>
		<path d="M399.07,7.559H180.687v22.586v22.586v406.546v22.586v22.586H399.07c12.473,0,22.586-10.112,22.586-22.586V30.145
			C421.656,17.67,411.544,7.559,399.07,7.559z"/>
	</g>
</g>
<g>
	<g>
		<rect x="466.836" y="52.734" width="45.172" height="75.286"/>
	</g>
</g>
<g>
	<g>
		<rect x="466.836" y="173.192" width="45.172" height="75.286"/>
	</g>
</g>
<g>
	<g>
		<rect x="466.836" y="293.65" width="45.172" height="75.286"/>
	</g>
</g>
<g>
	<g>
		<path d="M67.758,7.559c-12.473,0-22.586,10.111-22.586,22.586v67.758H22.586C10.112,97.902,0,108.015,0,120.488
			s10.112,22.586,22.586,22.586h22.586v90.344H22.586C10.112,233.418,0,243.53,0,256.004s10.112,22.586,22.586,22.586h22.586v90.344
			H22.586C10.112,368.933,0,379.046,0,391.519c0,12.473,10.112,22.586,22.586,22.586h22.586v67.758
			c0,12.473,10.112,22.586,22.586,22.586h67.758v-22.586v-22.586V52.731V30.145V7.559H67.758z"/>
	</g>
</g>
<g>
</g>
<g>
</g>
<g>
</g>
<g>
</g>
<g>
</g>
<g>
</g>
<g>
</g>
<g>
</g>
<g>
</g>
<g>
</g>
<g>
</g>
<g>
</g>
<g>
</g>
<g>
</g>
<g>
</g>
</svg>
