<?xml version="1.0" encoding="iso-8859-1"?>
<!-- Generator: Adobe Illustrator 19.0.0, SVG Export Plug-In . SVG Version: 6.00 Build 0)  -->
<svg version="1.1" id="Layer_1" xmlns="http://www.w3.org/2000/svg" xmlns:xlink="http://www.w3.org/1999/xlink" x="0px" y="0px"
	 viewBox="0 0 512 512" style="enable-background:new 0 0 512 512;" xml:space="preserve">
<g>
	<g>
		<path d="M492.308,52.513H387.282c-10.875,0-19.692,8.817-19.692,19.692v347.897h-39.385V157.538
			c0-10.875-8.817-19.692-19.692-19.692H203.487c-10.875,0-19.692,8.817-19.692,19.692v262.564H144.41V242.872
			c0-10.875-8.817-19.692-19.692-19.692H19.692C8.817,223.18,0,231.996,0,242.872v196.923c0,10.875,8.817,19.692,19.692,19.692
			H32.82h91.897h78.769h105.026h78.769h105.026c10.875,0,19.692-8.817,19.692-19.692V72.205
			C512,61.33,503.183,52.513,492.308,52.513z"/>
	</g>
</g>
<g>
</g>
<g>
</g>
<g>
</g>
<g>
</g>
<g>
</g>
<g>
</g>
<g>
</g>
<g>
</g>
<g>
</g>
<g>
</g>
<g>
</g>
<g>
</g>
<g>
</g>
<g>
</g>
<g>
</g>
</svg>
