<?xml version="1.0" encoding="iso-8859-1"?>
<!-- Generator: Adobe Illustrator 19.0.0, SVG Export Plug-In . SVG Version: 6.00 Build 0)  -->
<svg version="1.1" id="Layer_1" xmlns="http://www.w3.org/2000/svg" xmlns:xlink="http://www.w3.org/1999/xlink" x="0px" y="0px"
	 viewBox="0 0 512 512" style="enable-background:new 0 0 512 512;" xml:space="preserve">
<g>
	<g>
		<path d="M491.243,110.703H469.28c-2.852-8.056-10.517-13.838-19.55-13.838h-41.513c-9.033,0-16.697,5.781-19.55,13.838h-28.882
			v-62.27c0-11.463-9.294-20.757-20.757-20.757H172.973c-11.463,0-20.757,9.294-20.757,20.757v62.27h-28.882
			c-2.853-8.056-10.517-13.838-19.55-13.838H62.27c-9.033,0-16.698,5.781-19.55,13.838H20.757C9.294,110.703,0,119.996,0,131.459
			v117.622h20.757h20.757H193.73v-20.757c0-11.463,9.294-20.757,20.757-20.757h83.027c11.463,0,20.757,9.294,20.757,20.757v20.757
			h152.216h20.757H512V131.459C512,119.996,502.707,110.703,491.243,110.703z M318.27,110.703H193.73V69.189H318.27V110.703z"/>
	</g>
</g>
<g>
	<g>
		<path d="M491.243,290.595h-20.757H318.27v20.757c0,11.463-9.293,20.757-20.757,20.757h-83.027
			c-11.463,0-20.757-9.293-20.757-20.757v-20.757H41.513H20.757H0v172.973c0,11.463,9.294,20.757,20.757,20.757h470.486
			c11.463,0,20.757-9.294,20.757-20.757V290.595H491.243z"/>
	</g>
</g>
<g>
</g>
<g>
</g>
<g>
</g>
<g>
</g>
<g>
</g>
<g>
</g>
<g>
</g>
<g>
</g>
<g>
</g>
<g>
</g>
<g>
</g>
<g>
</g>
<g>
</g>
<g>
</g>
<g>
</g>
</svg>
