<?xml version="1.0" encoding="iso-8859-1"?>
<!-- Generator: Adobe Illustrator 19.0.0, SVG Export Plug-In . SVG Version: 6.00 Build 0)  -->
<svg version="1.1" id="Layer_1" xmlns="http://www.w3.org/2000/svg" xmlns:xlink="http://www.w3.org/1999/xlink" x="0px" y="0px"
	 viewBox="0 0 512 512" style="enable-background:new 0 0 512 512;" xml:space="preserve">
<g>
	<g>
		<path d="M492.308,137.846h-19.692v216.615c0,32.575-26.503,59.077-59.077,59.077H78.769v19.692
			c0,10.875,8.817,19.692,19.692,19.692h393.846c10.875,0,19.692-8.817,19.692-19.692V157.538
			C512,146.663,503.183,137.846,492.308,137.846z"/>
	</g>
</g>
<g>
	<g>
		<path d="M413.538,59.077H19.692C8.817,59.077,0,67.894,0,78.769v275.692c0,10.875,8.817,19.692,19.692,19.692h59.077h334.769
			c10.875,0,19.692-8.817,19.692-19.692V137.846V78.769C433.231,67.894,424.414,59.077,413.538,59.077z M182.482,301.949H72.205
			c0-41.299,33.477-74.773,74.772-74.773c-26.547,0-48.069-21.521-48.069-48.068c0-26.549,21.524-48.068,48.069-48.068
			s48.069,21.52,48.069,48.068c0,26.547-21.522,48.068-48.069,48.068c33.49,0,61.834,22.017,71.353,52.368
			c2.217,7.075,3.419,14.599,3.419,22.405H182.482z M334.769,282.256h-60.954c-10.875,0-19.692-8.817-19.692-19.692
			c0-2.082,0.328-4.087,0.927-5.971c2.53-7.956,9.972-13.722,18.766-13.722h3.19h57.764c10.875,0,19.692,8.817,19.692,19.692
			C354.462,273.439,345.645,282.256,334.769,282.256z M334.769,190.359h-60.954c-10.875,0-19.692-8.817-19.692-19.692
			c0-10.875,8.817-19.692,19.692-19.692h60.954c10.875,0,19.692,8.817,19.692,19.692
			C354.462,181.542,345.645,190.359,334.769,190.359z"/>
	</g>
</g>
<g>
</g>
<g>
</g>
<g>
</g>
<g>
</g>
<g>
</g>
<g>
</g>
<g>
</g>
<g>
</g>
<g>
</g>
<g>
</g>
<g>
</g>
<g>
</g>
<g>
</g>
<g>
</g>
<g>
</g>
</svg>
