<?xml version="1.0" encoding="iso-8859-1"?>
<!-- Generator: Adobe Illustrator 19.0.0, SVG Export Plug-In . SVG Version: 6.00 Build 0)  -->
<svg version="1.1" id="Layer_1" xmlns="http://www.w3.org/2000/svg" xmlns:xlink="http://www.w3.org/1999/xlink" x="0px" y="0px"
	 viewBox="0 0 512.001 512.001" style="enable-background:new 0 0 512.001 512.001;" xml:space="preserve">
<g>
	<g>
		<path d="M184.59,84.536c-9.656-9.654-13.924-14.389-13.922-25.46c-0.001-11.068,4.268-15.802,13.925-25.458
			c7.689-7.689,7.692-20.157,0.003-27.849s-20.158-7.693-27.85-0.003c-10.747,10.745-25.466,25.462-25.462,53.31
			c-0.004,27.85,14.713,42.566,25.46,53.31c9.656,9.656,13.925,14.391,13.925,25.461c0,10.875,8.817,19.692,19.692,19.692
			s19.692-8.817,19.692-19.692C210.052,109.997,195.335,95.282,184.59,84.536z"/>
	</g>
</g>
<g>
	<g>
		<path d="M276.487,84.536c-9.656-9.654-13.924-14.389-13.922-25.46c-0.001-11.068,4.268-15.802,13.925-25.458
			c7.689-7.689,7.692-20.157,0.003-27.849c-7.689-7.692-20.158-7.693-27.85-0.003c-10.748,10.745-25.466,25.462-25.464,53.31
			c-0.004,27.85,14.713,42.566,25.46,53.31c9.657,9.656,13.926,14.391,13.926,25.461c0,10.875,8.817,19.692,19.692,19.692
			s19.692-8.817,19.692-19.692C301.949,109.997,287.233,95.282,276.487,84.536z"/>
	</g>
</g>
<g>
	<g>
		<path d="M347.898,196.923H85.333c-10.875,0-19.692,8.817-19.692,19.692v144.411c0,83.247,67.727,150.975,150.975,150.975
			c72.472,0,133.172-51.333,147.674-119.544c46.513-7.831,82.07-48.366,82.07-97.072C446.36,241.093,402.19,196.923,347.898,196.923
			z M367.591,351.075v-111.38c22.921,8.129,39.385,30.018,39.385,55.69C406.975,321.057,390.511,342.946,367.591,351.075z"/>
	</g>
</g>
<g>
</g>
<g>
</g>
<g>
</g>
<g>
</g>
<g>
</g>
<g>
</g>
<g>
</g>
<g>
</g>
<g>
</g>
<g>
</g>
<g>
</g>
<g>
</g>
<g>
</g>
<g>
</g>
<g>
</g>
</svg>
