<?xml version="1.0" encoding="iso-8859-1"?>
<!-- Generator: Adobe Illustrator 19.0.0, SVG Export Plug-In . SVG Version: 6.00 Build 0)  -->
<svg version="1.1" id="Layer_1" xmlns="http://www.w3.org/2000/svg" xmlns:xlink="http://www.w3.org/1999/xlink" x="0px" y="0px"
	 viewBox="0 0 512 512" style="enable-background:new 0 0 512 512;" xml:space="preserve">
<g>
	<g>
		<path d="M492.308,131.282h-19.692v19.692v19.692v190.359c0,32.575-26.503,59.077-59.077,59.077H118.154H98.462H78.769v19.692
			c0,10.875,8.817,19.692,19.692,19.692h393.846c10.875,0,19.692-8.817,19.692-19.692v-288.82
			C512,140.099,503.183,131.282,492.308,131.282z"/>
	</g>
</g>
<g>
	<g>
		<path d="M413.538,52.513H19.692C8.817,52.513,0,61.33,0,72.205v72.205h394.991h38.24v-13.128V72.205
			C433.231,61.33,424.414,52.513,413.538,52.513z"/>
	</g>
</g>
<g>
	<g>
		<path d="M344.615,196.923H0v164.103c0,10.875,8.817,19.692,19.692,19.692h59.077h19.692h19.692h295.385
			c10.875,0,19.692-8.817,19.692-19.692V196.923H344.615z M334.769,288.82H229.744c-5.518,0-10.5-2.276-14.075-5.934
			c-3.471-3.55-5.618-8.401-5.618-13.758c0-10.875,8.817-19.692,19.692-19.692h36.103h68.923c10.875,0,19.692,8.817,19.692,19.692
			C354.462,280.004,345.645,288.82,334.769,288.82z"/>
	</g>
</g>
<g>
</g>
<g>
</g>
<g>
</g>
<g>
</g>
<g>
</g>
<g>
</g>
<g>
</g>
<g>
</g>
<g>
</g>
<g>
</g>
<g>
</g>
<g>
</g>
<g>
</g>
<g>
</g>
<g>
</g>
</svg>
