<?xml version="1.0" encoding="iso-8859-1"?>
<!-- Generator: Adobe Illustrator 19.0.0, SVG Export Plug-In . SVG Version: 6.00 Build 0)  -->
<svg version="1.1" id="Layer_1" xmlns="http://www.w3.org/2000/svg" xmlns:xlink="http://www.w3.org/1999/xlink" x="0px" y="0px"
	 viewBox="0 0 512 512" style="enable-background:new 0 0 512 512;" xml:space="preserve">
<g>
	<g>
		<path d="M455.111,0H56.889C45.107,0,35.556,9.552,35.556,21.333v469.333c0,11.782,9.552,21.333,21.333,21.333h398.222
			c11.782,0,21.333-9.552,21.333-21.333V21.333C476.444,9.552,466.893,0,455.111,0z M209.003,182.107
			c-28.759,0-52.075-23.315-52.075-52.073c0-28.762,23.317-52.073,52.075-52.073s52.075,23.312,52.075,52.073
			C261.077,158.793,237.761,182.107,209.003,182.107c44.736,0,81.003,36.264,81.003,81.004H128
			C128,218.371,164.267,182.107,209.003,182.107z M369.778,426.667H142.222c-11.782,0-21.333-9.552-21.333-21.333
			c0-11.782,9.552-21.333,21.333-21.333h227.556c11.782,0,21.333,9.552,21.333,21.333
			C391.111,417.115,381.559,426.667,369.778,426.667z M369.778,341.333H142.222c-11.782,0-21.333-9.552-21.333-21.333
			s9.552-21.333,21.333-21.333h227.556c11.782,0,21.333,9.552,21.333,21.333S381.559,341.333,369.778,341.333z M369.778,241.778
			h-37.589c-11.782,0-21.333-9.552-21.333-21.333s9.552-21.333,21.333-21.333h37.589c11.782,0,21.333,9.552,21.333,21.333
			S381.559,241.778,369.778,241.778z M369.778,142.222h-37.589c-11.782,0-21.333-9.552-21.333-21.333
			c0-11.782,9.552-21.333,21.333-21.333h37.589c11.782,0,21.333,9.552,21.333,21.333
			C391.111,132.671,381.559,142.222,369.778,142.222z"/>
	</g>
</g>
<g>
</g>
<g>
</g>
<g>
</g>
<g>
</g>
<g>
</g>
<g>
</g>
<g>
</g>
<g>
</g>
<g>
</g>
<g>
</g>
<g>
</g>
<g>
</g>
<g>
</g>
<g>
</g>
<g>
</g>
</svg>
