<?xml version="1.0" encoding="iso-8859-1"?>
<!-- Generator: Adobe Illustrator 19.0.0, SVG Export Plug-In . SVG Version: 6.00 Build 0)  -->
<svg version="1.1" id="Layer_1" xmlns="http://www.w3.org/2000/svg" xmlns:xlink="http://www.w3.org/1999/xlink" x="0px" y="0px"
	 viewBox="0 0 512 512" style="enable-background:new 0 0 512 512;" xml:space="preserve">
<g>
	<g>
		<path d="M383.075,239.58l-16.298-39.349c-4.5-10.867-16.957-16.024-27.825-11.525c-10.865,4.5-16.026,16.957-11.525,27.825
			l16.3,39.349c3.397,8.202,11.326,13.152,19.683,13.152c2.716,0,5.476-0.522,8.141-1.627
			C382.415,262.905,387.575,250.448,383.075,239.58z"/>
	</g>
</g>
<g>
	<g>
		<path d="M292.825,284.252l-3.183-44.782c-0.832-11.732-11.018-20.563-22.751-19.733c-11.732,0.833-20.566,11.021-19.731,22.751
			l3.183,44.782c0.798,11.219,10.145,19.788,21.219,19.788c0.507,0,1.019-0.018,1.532-0.054
			C284.827,306.169,293.66,295.983,292.825,284.252z"/>
	</g>
</g>
<g>
	<g>
		<path d="M471.303,195.747l-29.415-33.917c-7.706-8.886-21.156-9.841-30.041-2.135c-8.885,7.706-9.841,21.155-2.135,30.04
			l29.415,33.917c4.212,4.857,10.138,7.344,16.097,7.344c4.946,0,9.915-1.714,13.944-5.207
			C478.052,218.082,479.007,204.633,471.303,195.747z"/>
	</g>
</g>
<g>
	<g>
		<path d="M428.295,83.287C407.338,32.692,358.41,0,303.646,0c-17.724,0-35.074,3.466-51.568,10.297
			c-65.206,27.009-98.014,99.584-76.866,165.639l-52.58,84.916c-7.212-2.829-15.052-4.401-23.255-4.401
			c-35.227,0-63.887,28.658-63.887,63.887c0,35.227,28.66,63.887,63.887,63.887c8.609,0,16.821-1.722,24.324-4.823l62.673,90.005
			h-72.8c-11.761,0-21.296,9.535-21.296,21.296c0,11.761,9.535,21.296,21.296,21.296h113.56c0.011,0,0.024,0.001,0.036,0.001
			c0.018,0,0.035-0.001,0.055-0.001h113.502c11.761,0,21.296-9.535,21.296-21.296c0-11.761-9.533-21.296-21.294-21.296H238.273
			l-82.681-118.74c4.891-9.028,7.672-19.361,7.672-30.329c0-11.287-2.953-21.892-8.111-31.103l58.095-93.822l203.523-84.301
			C427.635,106.612,432.796,94.155,428.295,83.287z"/>
	</g>
</g>
<g>
</g>
<g>
</g>
<g>
</g>
<g>
</g>
<g>
</g>
<g>
</g>
<g>
</g>
<g>
</g>
<g>
</g>
<g>
</g>
<g>
</g>
<g>
</g>
<g>
</g>
<g>
</g>
<g>
</g>
</svg>
