<?xml version="1.0" encoding="iso-8859-1"?>
<!-- Generator: Adobe Illustrator 19.0.0, SVG Export Plug-In . SVG Version: 6.00 Build 0)  -->
<svg version="1.1" id="Layer_1" xmlns="http://www.w3.org/2000/svg" xmlns:xlink="http://www.w3.org/1999/xlink" x="0px" y="0px"
	 viewBox="0 0 512 512" style="enable-background:new 0 0 512 512;" xml:space="preserve">
<g>
	<g>
		<path d="M488.727,0H279.273v23.273v23.273v186.182h186.182h23.273H512V23.273C512,10.42,501.58,0,488.727,0z M368.856,70.692
			c2.087-10.505,12.299-17.324,22.807-15.236c10.504,2.091,17.329,12.3,15.233,22.806c-2.087,10.504-12.294,17.324-22.803,15.236
			C373.588,91.409,366.766,81.197,368.856,70.692z M442.182,170.667H333.576v-46.545h108.606V170.667z"/>
	</g>
</g>
<g>
	<g>
		<path d="M46.545,279.273H23.273H0v209.455C0,501.58,10.42,512,23.273,512h209.455v-23.273v-23.273V279.273H46.545z
			 M105.098,334.449c2.087-10.505,12.299-17.324,22.807-15.236c10.504,2.091,17.329,12.3,15.233,22.806
			c-2.087,10.504-12.294,17.324-22.803,15.236C109.83,355.167,103.008,344.955,105.098,334.449z M178.424,434.424H69.818v-46.545
			h108.606V434.424z"/>
	</g>
</g>
<g>
	<g>
		<path d="M23.273,0C10.42,0,0,10.42,0,23.273v209.455h23.273h23.273h186.182V46.545V23.273V0H23.273z M105.098,70.692
			c2.087-10.505,12.299-17.324,22.807-15.236c10.504,2.091,17.329,12.3,15.233,22.806c-2.087,10.504-12.294,17.324-22.803,15.236
			C109.83,91.409,103.008,81.197,105.098,70.692z M178.424,170.667H69.818v-46.545h108.606V170.667z"/>
	</g>
</g>
<g>
	<g>
		<path d="M488.727,279.273h-23.273H279.273v186.182v23.273V512h209.455C501.58,512,512,501.58,512,488.727V279.273H488.727z
			 M368.856,334.449c2.087-10.505,12.299-17.324,22.807-15.236c10.504,2.091,17.329,12.3,15.233,22.806
			c-2.087,10.504-12.294,17.324-22.803,15.236C373.588,355.167,366.766,344.955,368.856,334.449z M442.182,434.424H333.576v-46.545
			h108.606V434.424z"/>
	</g>
</g>
<g>
</g>
<g>
</g>
<g>
</g>
<g>
</g>
<g>
</g>
<g>
</g>
<g>
</g>
<g>
</g>
<g>
</g>
<g>
</g>
<g>
</g>
<g>
</g>
<g>
</g>
<g>
</g>
<g>
</g>
</svg>
