<?xml version="1.0" encoding="iso-8859-1"?>
<!-- Generator: Adobe Illustrator 19.0.0, SVG Export Plug-In . SVG Version: 6.00 Build 0)  -->
<svg version="1.1" id="Layer_1" xmlns="http://www.w3.org/2000/svg" xmlns:xlink="http://www.w3.org/1999/xlink" x="0px" y="0px"
	 viewBox="0 0 512 512" style="enable-background:new 0 0 512 512;" xml:space="preserve">
<g>
	<g>
		<path d="M471.111,183.439c0.002,0,0.003,0,0.003,0l0.084-0.047C471.169,183.409,471.141,183.424,471.111,183.439z"/>
	</g>
</g>
<g>
	<g>
		<path d="M481.882,228.894l-22.588,12.047l-26.827,14.307c-0.044,0.023-0.087,0.045-0.13,0.068l-165.709,88.377
			c-0.068,0.036-0.139,0.066-0.208,0.102c-0.232,0.12-0.467,0.235-0.703,0.346c-0.224,0.107-0.449,0.212-0.675,0.31
			c-0.194,0.084-0.387,0.164-0.583,0.244c-0.068,0.027-0.137,0.053-0.206,0.08c-0.122,0.047-0.244,0.095-0.366,0.14
			c-0.095,0.035-0.188,0.074-0.283,0.108c-0.149,0.054-0.297,0.105-0.449,0.157c-0.34,0.114-0.679,0.218-1.023,0.315
			c-0.111,0.032-0.223,0.063-0.339,0.095c-0.068,0.018-0.139,0.032-0.209,0.05c-0.096,0.026-0.197,0.047-0.294,0.069
			c-0.215,0.053-0.431,0.108-0.648,0.154c-0.087,0.018-0.173,0.038-0.261,0.056c-0.413,0.083-0.83,0.152-1.245,0.209
			c-0.068,0.011-0.134,0.023-0.2,0.032c-0.452,0.059-0.904,0.104-1.352,0.136c-0.038,0.002-0.077,0.008-0.114,0.01
			c-0.485,0.032-0.971,0.05-1.455,0.05c-0.008,0-0.014-0.002-0.02-0.002c-0.006,0-0.012,0.002-0.02,0.002
			c-0.483,0-0.968-0.018-1.455-0.05c-0.038-0.001-0.077-0.008-0.113-0.01c-0.452-0.032-0.904-0.077-1.354-0.136
			c-0.068-0.009-0.133-0.021-0.2-0.032c-0.416-0.059-0.833-0.128-1.245-0.209c-0.087-0.018-0.173-0.038-0.26-0.057
			c-0.194-0.041-0.385-0.09-0.577-0.135c-0.12-0.03-0.242-0.056-0.363-0.087c-0.069-0.018-0.14-0.032-0.211-0.05
			c-0.114-0.03-0.227-0.063-0.342-0.095c-0.342-0.095-0.679-0.2-1.018-0.313c-0.152-0.051-0.303-0.104-0.455-0.158
			c-0.143-0.051-0.283-0.108-0.428-0.163c-0.071-0.027-0.145-0.054-0.215-0.083c-0.069-0.027-0.139-0.051-0.206-0.078
			c-0.197-0.08-0.395-0.161-0.589-0.245c-0.223-0.098-0.447-0.202-0.67-0.309c-0.235-0.113-0.471-0.227-0.705-0.348
			c-0.069-0.035-0.14-0.066-0.208-0.102L79.642,255.31l-0.104-0.056l-26.832-14.314l-22.588-12.047l-10.479-5.588
			c-0.001-0.002-0.001-0.002-0.003-0.003l-12.106-6.456v272.565C7.529,501.886,17.643,512,30.118,512h451.765
			c12.475,0,22.588-10.114,22.588-22.588V216.847L481.882,228.894z"/>
	</g>
</g>
<g>
	<g>
		<path d="M421.647,0H90.353C77.878,0,67.765,10.114,67.765,22.588v175.184l10.353,5.522l12.235,6.525l22.588,12.047l25.409,13.551
			l56.043,29.889L256,298.165l117.647-62.746l25.412-13.553l22.588-12.047l12.235-6.525l10.353-5.522V22.588
			C444.235,10.114,434.122,0,421.647,0z"/>
	</g>
</g>
<g>
</g>
<g>
</g>
<g>
</g>
<g>
</g>
<g>
</g>
<g>
</g>
<g>
</g>
<g>
</g>
<g>
</g>
<g>
</g>
<g>
</g>
<g>
</g>
<g>
</g>
<g>
</g>
<g>
</g>
</svg>
