<?xml version="1.0" encoding="iso-8859-1"?>
<!-- Generator: Adobe Illustrator 19.0.0, SVG Export Plug-In . SVG Version: 6.00 Build 0)  -->
<svg version="1.1" id="Layer_1" xmlns="http://www.w3.org/2000/svg" xmlns:xlink="http://www.w3.org/1999/xlink" x="0px" y="0px"
	 viewBox="0 0 512 512" style="enable-background:new 0 0 512 512;" xml:space="preserve">
<g>
	<g>
		<path d="M411.153,31.035l-131.88-0.009v-7.753C279.273,10.42,268.853,0,256,0c-12.853,0-23.273,10.42-23.273,23.273v7.75
			L100.85,31.012c-0.002,0-0.002,0-0.002,0c-6.174,0-12.091,2.451-16.455,6.816c-4.366,4.364-6.817,10.283-6.817,16.457v93.089
			v93.091v93.096v0.002v0.002v155.164c0,12.853,10.42,23.273,23.273,23.273h131.879v-23.273v-23.273v-23.285
			c0-12.853,10.42-23.273,23.273-23.273c12.853,0,23.273,10.42,23.273,23.273v23.285v23.273V512h131.879
			c12.853,0,23.273-10.42,23.273-23.273V333.591v-0.029v-93.071V147.4V54.308C434.424,41.456,424.006,31.036,411.153,31.035z
			 M232.727,310.291H124.121v-46.55l108.606,0.009V310.291z M232.727,217.204l-108.606-0.009V170.65l108.606,0.009V217.204z
			 M232.727,124.113l-108.606-0.009V77.559l108.606,0.009V124.113z M387.879,310.291H279.273v-46.538l108.606,0.009V310.291z
			 M387.879,217.215l-108.606-0.009V170.66l108.606,0.009V217.215z M387.879,124.124l-108.606-0.009V77.57l108.606,0.009V124.124z"
			/>
	</g>
</g>
<g>
</g>
<g>
</g>
<g>
</g>
<g>
</g>
<g>
</g>
<g>
</g>
<g>
</g>
<g>
</g>
<g>
</g>
<g>
</g>
<g>
</g>
<g>
</g>
<g>
</g>
<g>
</g>
<g>
</g>
</svg>
