<?xml version="1.0" encoding="iso-8859-1"?>
<!-- Generator: Adobe Illustrator 19.0.0, SVG Export Plug-In . SVG Version: 6.00 Build 0)  -->
<svg version="1.1" id="Layer_1" xmlns="http://www.w3.org/2000/svg" xmlns:xlink="http://www.w3.org/1999/xlink" x="0px" y="0px"
	 viewBox="0 0 512 512" style="enable-background:new 0 0 512 512;" xml:space="preserve">
<g>
	<g>
		<path d="M142.222,175.134l-49.873-49.876L75.801,108.71L59.274,92.181C20.905,138.095,0,195.439,0,256.001
			c0,60.56,20.904,117.901,59.269,163.813l16.527-16.528l16.548-16.547l49.878-49.873c-16.275-22.835-25.859-50.751-25.859-80.865
			C116.363,225.886,125.947,197.968,142.222,175.134z"/>
	</g>
</g>
<g>
	<g>
		<path d="M452.728,92.181l-16.527,16.528l-16.548,16.548l-49.845,49.847c0.239,0.335,0.489,0.659,0.726,0.998
			c16.423,23.505,25.105,51.133,25.107,79.897c0,30.115-9.584,58.034-25.859,80.868l49.873,49.875l16.548,16.548l16.528,16.527
			C491.098,373.903,512,316.561,512,255.999C511.998,195.436,491.095,138.094,452.728,92.181z"/>
	</g>
</g>
<g>
	<g>
		<path d="M255.999,0.001c-60.56,0-117.899,20.9-163.812,59.268l16.527,16.528l16.548,16.548l49.873,49.875
			c22.83-16.272,50.745-25.853,80.854-25.853c17.327,0,34.22,3.133,50.238,9.311c10.965,4.229,21.245,9.785,30.683,16.497
			l49.827-49.828l16.548-16.55l16.527-16.528C373.9,20.903,316.559,0.001,255.999,0.001z"/>
	</g>
</g>
<g>
	<g>
		<path d="M403.292,436.201l-16.548-16.548l-49.875-49.875c-22.834,16.275-50.75,25.857-80.862,25.857h-0.008
			c-30.115,0-58.031-9.584-80.866-25.859l-49.875,49.875l-16.548,16.548l-16.527,16.527c45.911,38.37,103.253,59.272,163.816,59.272
			c60.563,0,117.906-20.904,163.819-59.271L403.292,436.201z"/>
	</g>
</g>
<g>
</g>
<g>
</g>
<g>
</g>
<g>
</g>
<g>
</g>
<g>
</g>
<g>
</g>
<g>
</g>
<g>
</g>
<g>
</g>
<g>
</g>
<g>
</g>
<g>
</g>
<g>
</g>
<g>
</g>
</svg>
