<?xml version="1.0" encoding="iso-8859-1"?>
<!-- Generator: Adobe Illustrator 19.0.0, SVG Export Plug-In . SVG Version: 6.00 Build 0)  -->
<svg version="1.1" id="Layer_1" xmlns="http://www.w3.org/2000/svg" xmlns:xlink="http://www.w3.org/1999/xlink" x="0px" y="0px"
	 viewBox="0 0 512 512" style="enable-background:new 0 0 512 512;" xml:space="preserve">
<g>
	<g>
		<path d="M256,0C150.517,0,64.699,85.818,64.699,191.301c0,58.223,26.597,113.139,71.738,149.325v51.811h31.884h63.767v-23.913
			v-95.651h-23.913c-13.206,0-23.913-10.707-23.913-23.913c0-13.206,10.706-23.913,23.913-23.913H256h47.825
			c13.206,0,23.913,10.706,23.913,23.913c0,13.206-10.706,23.913-23.913,23.913h-23.913v95.651v23.913h63.767h31.884v-51.811
			c45.141-36.186,71.738-91.102,71.738-149.325C447.301,85.818,361.483,0,256,0z"/>
	</g>
</g>
<g>
	<g>
		<path d="M168.32,440.262v47.825c0,13.206,10.705,23.913,23.913,23.913h127.534c13.206,0,23.913-10.706,23.913-23.913v-47.825
			H168.32z"/>
	</g>
</g>
<g>
</g>
<g>
</g>
<g>
</g>
<g>
</g>
<g>
</g>
<g>
</g>
<g>
</g>
<g>
</g>
<g>
</g>
<g>
</g>
<g>
</g>
<g>
</g>
<g>
</g>
<g>
</g>
<g>
</g>
</svg>
