<?xml version="1.0" encoding="iso-8859-1"?>
<!-- Generator: Adobe Illustrator 19.0.0, SVG Export Plug-In . SVG Version: 6.00 Build 0)  -->
<svg version="1.1" id="Layer_1" xmlns="http://www.w3.org/2000/svg" xmlns:xlink="http://www.w3.org/1999/xlink" x="0px" y="0px"
	 viewBox="0 0 511.999 511.999" style="enable-background:new 0 0 511.999 511.999;" xml:space="preserve">
<g>
	<g>
		<path d="M362.218,393.43c-3.695,6.961-8.715,12.921-14.653,17.646c-5.546,4.416-11.904,7.73-18.731,9.788
			c-5.196,1.566-10.658,2.418-16.262,2.418c-8.496,0-17.029-1.978-24.681-5.72l-31.888-15.601L224.11,417.56
			c-7.649,3.744-16.184,5.722-24.683,5.722c-5.606,0-11.069-0.852-16.266-2.419c-6.828-2.058-13.185-5.373-18.731-9.789
			c-5.939-4.728-10.96-10.689-14.655-17.654l-4.076-7.682v107.529c0,6.491,3.36,12.52,8.882,15.933
			c3.008,1.859,6.425,2.798,9.85,2.798c2.861,0,5.731-0.656,8.373-1.977l83.201-41.583l83.185,41.583
			c5.807,2.903,12.702,2.592,18.224-0.822c5.522-3.412,8.882-9.439,8.882-15.931V385.747L362.218,393.43z"/>
	</g>
</g>
<g>
	<g>
		<path d="M452.601,179.879l-37.436-38.692l7.544-53.291c1.417-10.005-5.358-19.331-15.312-21.075l-53.023-9.296L329.13,9.955
			C325.774,3.631,319.293,0,312.571,0c-2.763,0-5.568,0.613-8.213,1.907l-48.354,23.637L207.639,1.906
			C204.996,0.613,202.192,0,199.428,0c-6.723,0-13.205,3.631-16.561,9.957l-25.232,47.566l-53.025,9.296
			c-9.954,1.745-16.728,11.069-15.312,21.074l7.539,53.293l-37.437,38.694c-7.027,7.261-7.025,18.787,0.001,26.049l37.436,38.687
			l-7.54,53.329c-1.415,10.005,5.362,19.329,15.315,21.073l41.087,7.2l11.939,2.092l6.792,12.803l18.439,34.751
			c0.091,0.175,0.195,0.338,0.292,0.51c3.429,6.005,9.729,9.447,16.266,9.447c2.765,0,5.571-0.614,8.215-1.908l48.36-23.652
			l48.349,23.652c2.646,1.295,5.453,1.909,8.219,1.909c6.535,0,12.833-3.439,16.262-9.443c0.097-0.171,0.201-0.335,0.293-0.511
			l18.438-34.735l6.806-12.822l11.926-2.09l41.099-7.202c9.952-1.745,16.729-11.069,15.312-21.074l-7.544-53.328l37.435-38.686
			C459.626,198.668,459.626,187.142,452.601,179.879z M256.005,286.569c-51.644,0-93.661-42.019-93.661-93.668
			c0-51.638,42.017-93.651,93.661-93.651c51.641,0,93.651,42.011,93.651,93.651C349.656,244.55,307.644,286.569,256.005,286.569z"/>
	</g>
</g>
<g>
	<g>
		<path d="M256.005,136.712c-30.988,0-56.198,25.206-56.198,56.189c0,30.993,25.211,56.206,56.198,56.206
			c30.983,0,56.188-25.213,56.188-56.206C312.193,161.918,286.986,136.712,256.005,136.712z"/>
	</g>
</g>
<g>
</g>
<g>
</g>
<g>
</g>
<g>
</g>
<g>
</g>
<g>
</g>
<g>
</g>
<g>
</g>
<g>
</g>
<g>
</g>
<g>
</g>
<g>
</g>
<g>
</g>
<g>
</g>
<g>
</g>
</svg>
