<?xml version="1.0" encoding="iso-8859-1"?>
<!-- Generator: Adobe Illustrator 19.0.0, SVG Export Plug-In . SVG Version: 6.00 Build 0)  -->
<svg version="1.1" id="Layer_1" xmlns="http://www.w3.org/2000/svg" xmlns:xlink="http://www.w3.org/1999/xlink" x="0px" y="0px"
	 viewBox="0 0 512 512" style="enable-background:new 0 0 512 512;" xml:space="preserve">
<g>
	<g>
		<path d="M485.635,0h-68.04H324.04H187.96H94.405h-68.04c-0.91,0-1.81,0.046-2.696,0.136c-0.609,0.061-1.213,0.145-1.808,0.248
			C15.3,1.512,9.57,5.066,5.623,10.089c-0.359,0.456-0.703,0.925-1.032,1.405c-0.657,0.959-1.252,1.965-1.779,3.011
			c-0.264,0.524-0.512,1.056-0.74,1.599C0.738,19.257,0,22.724,0,26.365v68.04v119.07v68.04v102.06v102.06
			C0,500.195,11.803,512,26.365,512H187.96h136.08h161.595C500.195,512,512,500.195,512,485.635v-102.06v-102.06v-68.04V94.405
			v-68.04C512,11.803,500.195,0,485.635,0z M161.595,459.269H52.731V409.94h108.864V459.269z M161.595,357.209H52.731V307.88h41.674
			h0.032h67.157V357.209z M161.595,255.149h-44.597c-9-30.887-33.38-55.269-64.267-64.269v-73.884
			c30.887-9,55.265-33.379,64.265-64.265h44.598V255.149z M297.674,383.575v75.694h-83.349v-75.694V307.88h83.349V383.575z
			 M297.674,255.149h-83.349V52.731h83.349V255.149z M459.269,459.269H350.405V409.94h108.864V459.269z M459.269,357.209H350.405
			V307.88h67.189h41.674V357.209z M459.269,190.884c-30.887,9-55.265,33.379-64.265,64.265h-44.598V52.731h44.598
			c9,30.887,33.379,55.265,64.265,64.265V190.884z"/>
	</g>
</g>
<g>
</g>
<g>
</g>
<g>
</g>
<g>
</g>
<g>
</g>
<g>
</g>
<g>
</g>
<g>
</g>
<g>
</g>
<g>
</g>
<g>
</g>
<g>
</g>
<g>
</g>
<g>
</g>
<g>
</g>
</svg>
