<?xml version="1.0" encoding="iso-8859-1"?>
<!-- Generator: Adobe Illustrator 19.0.0, SVG Export Plug-In . SVG Version: 6.00 Build 0)  -->
<svg version="1.1" id="Layer_1" xmlns="http://www.w3.org/2000/svg" xmlns:xlink="http://www.w3.org/1999/xlink" x="0px" y="0px"
	 viewBox="0 0 512.002 512.002" style="enable-background:new 0 0 512.002 512.002;" xml:space="preserve">
<g>
	<g>
		<path d="M504.238,7.771c-9.348-9.348-24.502-9.348-33.851,0l-62.058,62.058l33.85,33.85l62.058-62.058
			C513.585,32.273,513.585,17.117,504.238,7.771z"/>
	</g>
</g>
<g>
	<g>
		<path d="M368.828,30.331c-40.438-40.441-106.239-40.441-146.683,0l-16.922,16.924l16.927,16.926l16.924,16.924l78.99,78.99
			l56.414-56.416l16.926-16.924l16.924-16.924L368.828,30.331z"/>
	</g>
</g>
<g>
	<g>
		<path d="M413.967,323.699l-16.926-16.926l-95.884-95.884l-0.038-0.038l-95.894-95.894L188.3,98.032l-16.924-16.924L30.338,222.154
			c-40.44,40.44-40.44,106.242,0,146.683l112.835,112.835c40.44,40.44,106.24,40.44,146.682-0.002l141.038-141.047L413.967,323.699z
			"/>
	</g>
</g>
<g>
	<g>
		<path d="M481.665,143.165l-39.486-39.486l-16.926,16.924l-16.924,16.926l-56.416,56.416l78.978,78.978l16.924,16.924
			l16.926,16.926l16.924-16.926C522.103,249.405,522.103,183.603,481.665,143.165z"/>
	</g>
</g>
<g>
</g>
<g>
</g>
<g>
</g>
<g>
</g>
<g>
</g>
<g>
</g>
<g>
</g>
<g>
</g>
<g>
</g>
<g>
</g>
<g>
</g>
<g>
</g>
<g>
</g>
<g>
</g>
<g>
</g>
</svg>
