<?xml version="1.0" encoding="iso-8859-1"?>
<!-- Generator: Adobe Illustrator 19.0.0, SVG Export Plug-In . SVG Version: 6.00 Build 0)  -->
<svg version="1.1" id="Layer_1" xmlns="http://www.w3.org/2000/svg" xmlns:xlink="http://www.w3.org/1999/xlink" x="0px" y="0px"
	 viewBox="0 0 512 512" style="enable-background:new 0 0 512 512;" xml:space="preserve">
<g>
	<g>
		<path d="M360.169,272.87c-19.266,0-36.046,10.823-44.594,26.704l-42.705-20.458V239.13h53.559c9.317,0,16.87-7.553,16.87-16.87
			c0-48.137-39.162-87.299-87.299-87.299c-48.138,0-87.3,39.162-87.3,87.299c0,9.317,7.553,16.87,16.87,16.87h53.56v39.987
			l-42.705,20.458c-8.55-15.883-25.329-26.704-44.594-26.704c-27.906,0-50.61,22.704-50.61,50.61c0,27.907,22.704,50.61,50.61,50.61
			c24.045,0,44.213-16.861,49.337-39.377L256,308.447l54.832,26.267c5.125,22.516,25.292,39.377,49.337,39.377
			c27.906,0,50.61-22.704,50.61-50.61C410.78,295.574,388.076,272.87,360.169,272.87z"/>
	</g>
</g>
<g>
	<g>
		<path d="M151.831,407.831c-48.138,0-87.3,39.162-87.3,87.299c0,9.317,7.553,16.87,16.87,16.87H222.26
			c9.317,0,16.87-7.553,16.87-16.87C239.13,446.993,199.968,407.831,151.831,407.831z"/>
	</g>
</g>
<g>
	<g>
		<path d="M360.169,407.831c-48.137,0-87.299,39.162-87.299,87.299c0,9.317,7.553,16.87,16.87,16.87H430.6
			c9.317,0,16.87-7.553,16.87-16.87C447.47,446.993,408.308,407.831,360.169,407.831z"/>
	</g>
</g>
<g>
	<g>
		<path d="M256,0c-27.905,0-50.61,22.704-50.61,50.61s22.705,50.61,50.61,50.61s50.61-22.704,50.61-50.61S283.905,0,256,0z"/>
	</g>
</g>
<g>
</g>
<g>
</g>
<g>
</g>
<g>
</g>
<g>
</g>
<g>
</g>
<g>
</g>
<g>
</g>
<g>
</g>
<g>
</g>
<g>
</g>
<g>
</g>
<g>
</g>
<g>
</g>
<g>
</g>
</svg>
