<?xml version="1.0" encoding="iso-8859-1"?>
<!-- Generator: Adobe Illustrator 19.0.0, SVG Export Plug-In . SVG Version: 6.00 Build 0)  -->
<svg version="1.1" id="Layer_1" xmlns="http://www.w3.org/2000/svg" xmlns:xlink="http://www.w3.org/1999/xlink" x="0px" y="0px"
	 viewBox="0 0 512 512" style="enable-background:new 0 0 512 512;" xml:space="preserve">
<g>
	<g>
		<path d="M422.054,110.755h-20.757v20.757v20.757v20.704c0,34.336-27.936,62.27-62.27,62.27H172.973
			c-34.336,0-62.27-27.934-62.27-62.27v-20.704v-20.757v-20.757H89.946c-11.463,0-20.757,9.293-20.757,20.757v255.947h20.757h20.757
			h290.595h20.757h20.757V131.512C442.811,120.049,433.517,110.755,422.054,110.755z"/>
	</g>
</g>
<g>
	<g>
		<path d="M422.054,428.973h-20.757H110.703H89.946H69.189v62.27c0,11.463,9.293,20.757,20.757,20.757h332.108
			c11.463,0,20.757-9.293,20.757-20.757v-62.27H422.054z"/>
	</g>
</g>
<g>
	<g>
		<path d="M339.027,69.186H318.27V62.27C318.27,27.934,290.334,0,256,0c-34.334,0-62.27,27.934-62.27,62.27v6.916h-20.757
			c-11.463,0-20.757,9.294-20.757,20.757v20.812v20.757v20.757v20.704c0,11.463,9.293,20.757,20.757,20.757h166.054
			c11.463,0,20.757-9.294,20.757-20.757v-20.704v-20.757v-20.757V89.943C359.784,78.48,350.49,69.186,339.027,69.186z"/>
	</g>
</g>
<g>
</g>
<g>
</g>
<g>
</g>
<g>
</g>
<g>
</g>
<g>
</g>
<g>
</g>
<g>
</g>
<g>
</g>
<g>
</g>
<g>
</g>
<g>
</g>
<g>
</g>
<g>
</g>
<g>
</g>
</svg>
