<?xml version="1.0" encoding="iso-8859-1"?>
<!-- Generator: Adobe Illustrator 19.0.0, SVG Export Plug-In . SVG Version: 6.00 Build 0)  -->
<svg version="1.1" id="Layer_1" xmlns="http://www.w3.org/2000/svg" xmlns:xlink="http://www.w3.org/1999/xlink" x="0px" y="0px"
	 viewBox="0 0 512.001 512.001" style="enable-background:new 0 0 512.001 512.001;" xml:space="preserve">
<g>
	<g>
		<path d="M192.766,309.434l-41.463-21.951l-18.727,128.28c-1.48,10.142,3.452,20.15,12.397,25.153
			c3.771,2.11,7.929,3.145,12.063,3.145c5.672,0,11.306-1.95,15.857-5.75l61.087-51.031L192.766,309.434z"/>
	</g>
</g>
<g>
	<g>
		<path d="M19.279,112.425c-10.091,2.278-17.697,10.597-19.062,20.854c-1.365,10.255,3.799,20.275,12.943,25.115l145.727,77.149
			l44.503,23.56l10.264-9.47L473.553,9.803L19.279,112.425z"/>
	</g>
</g>
<g>
	<g>
		<path d="M248.649,284.628l-8.774,8.095l32.902,62.147l71.034,134.172c4.315,8.153,12.763,13.156,21.844,13.156
			c0.89,0,1.785-0.048,2.684-0.145c10.067-1.096,18.45-8.222,21.154-17.982l122.509-442.46L248.649,284.628z"/>
	</g>
</g>
<g>
</g>
<g>
</g>
<g>
</g>
<g>
</g>
<g>
</g>
<g>
</g>
<g>
</g>
<g>
</g>
<g>
</g>
<g>
</g>
<g>
</g>
<g>
</g>
<g>
</g>
<g>
</g>
<g>
</g>
</svg>
