<?xml version="1.0" encoding="iso-8859-1"?>
<!-- Generator: Adobe Illustrator 19.0.0, SVG Export Plug-In . SVG Version: 6.00 Build 0)  -->
<svg version="1.1" id="Layer_1" xmlns="http://www.w3.org/2000/svg" xmlns:xlink="http://www.w3.org/1999/xlink" x="0px" y="0px"
	 viewBox="0 0 512 512" style="enable-background:new 0 0 512 512;" xml:space="preserve">
<g>
	<g>
		<path d="M255.998,0C126.603,0,21.331,105.271,21.331,234.667c0,0.054,0.006,0.107,0.007,0.161c0.001,0.23,0.02,0.457,0.03,0.685
			c0.017,0.422,0.037,0.845,0.08,1.264c0.024,0.235,0.057,0.466,0.087,0.697c0.055,0.412,0.118,0.822,0.198,1.23
			c0.044,0.233,0.094,0.466,0.148,0.697c0.09,0.398,0.195,0.795,0.307,1.188c0.068,0.233,0.134,0.466,0.208,0.697
			c0.127,0.387,0.272,0.771,0.421,1.151c0.088,0.222,0.166,0.449,0.262,0.668c0.208,0.488,0.442,0.967,0.69,1.441
			c0.151,0.289,0.317,0.57,0.482,0.853c0.191,0.327,0.381,0.657,0.59,0.976c0.164,0.25,0.341,0.489,0.515,0.732
			c0.206,0.284,0.414,0.567,0.636,0.846c0.178,0.223,0.361,0.444,0.549,0.66c0.266,0.307,0.543,0.607,0.829,0.902
			c0.162,0.166,0.321,0.336,0.488,0.498c0.472,0.454,0.961,0.897,1.482,1.314l0.014,0.011L195.181,384h-24.516
			c-11.782,0-21.333,9.552-21.333,21.333v85.333c0,11.782,9.552,21.333,21.333,21.333h170.667c11.782,0,21.333-9.552,21.333-21.333
			v-85.333c0-11.782-9.552-21.333-21.333-21.333h-24.516l165.834-132.666l0.011-0.009c0.522-0.418,1.011-0.86,1.483-1.316
			c0.166-0.159,0.323-0.33,0.484-0.495c0.287-0.296,0.566-0.596,0.833-0.905c0.186-0.216,0.37-0.437,0.548-0.658
			c0.222-0.277,0.431-0.562,0.637-0.848c0.174-0.242,0.35-0.481,0.513-0.731c0.209-0.32,0.401-0.65,0.594-0.98
			c0.158-0.272,0.32-0.545,0.466-0.825c0.252-0.481,0.489-0.967,0.703-1.464c0.092-0.218,0.172-0.442,0.26-0.664
			c0.148-0.384,0.294-0.767,0.421-1.156c0.075-0.229,0.141-0.464,0.209-0.695c0.112-0.393,0.218-0.789,0.309-1.188
			c0.051-0.23,0.101-0.464,0.146-0.697c0.08-0.408,0.142-0.818,0.198-1.23c0.031-0.232,0.064-0.462,0.088-0.697
			c0.041-0.42,0.063-0.842,0.08-1.264c0.01-0.228,0.028-0.455,0.028-0.685c0.001-0.054,0.007-0.107,0.007-0.161
			C490.665,105.271,385.393,0,255.998,0z M73.589,232.087c6.551-4.403,14.333-6.881,22.409-6.881
			c14.313,0,27.675,7.721,34.87,20.149c0.082,0.144,0.174,0.276,0.259,0.415c0.041,0.067,0.073,0.138,0.114,0.205l40.292,64.466
			L73.589,232.087z M175.312,235.987c7.359-6.808,17.102-10.78,27.351-10.78c12.588,0,24.432,5.972,32,15.862l0.001,89.88
			L175.312,235.987z M277.331,330.947l-0.001-89.879c7.568-9.89,19.412-15.862,31.999-15.862c10.247,0,19.994,3.972,27.349,10.78
			L277.331,330.947z M340.461,310.443l40.293-64.469c0.043-0.071,0.075-0.144,0.118-0.213c0.084-0.137,0.174-0.267,0.255-0.405
			c7.195-12.427,20.555-20.149,34.869-20.149c8.073,0,15.856,2.477,22.409,6.884L340.461,310.443z"/>
	</g>
</g>
<g>
</g>
<g>
</g>
<g>
</g>
<g>
</g>
<g>
</g>
<g>
</g>
<g>
</g>
<g>
</g>
<g>
</g>
<g>
</g>
<g>
</g>
<g>
</g>
<g>
</g>
<g>
</g>
<g>
</g>
</svg>
