<?xml version="1.0" encoding="iso-8859-1"?>
<!-- Generator: Adobe Illustrator 19.0.0, SVG Export Plug-In . SVG Version: 6.00 Build 0)  -->
<svg version="1.1" id="Layer_1" xmlns="http://www.w3.org/2000/svg" xmlns:xlink="http://www.w3.org/1999/xlink" x="0px" y="0px"
	 viewBox="0 0 511.999 511.999" style="enable-background:new 0 0 511.999 511.999;" xml:space="preserve">
<g>
	<g>
		<path d="M505.233,115.674L396.325,6.766c-9.021-9.021-23.65-9.021-32.672,0l-80.584,80.586l141.58,141.58l80.584-80.586
			C514.254,139.325,514.255,124.696,505.233,115.674z"/>
	</g>
</g>
<g>
	<g>
		
			<rect x="81.755" y="189.894" transform="matrix(0.7071 -0.7071 0.7071 0.7071 -140.0392 241.9259)" width="280.512" height="200.222"/>
	</g>
</g>
<g>
	<g>
		<path d="M19.368,351.052l-5.446,5.446c-3.986,3.984-6.376,9.29-6.723,14.915L0.044,487.474c-0.407,6.61,2.041,13.075,6.723,17.757
			c4.684,4.684,11.149,7.133,17.758,6.724l116.062-7.154c5.625-0.35,10.929-2.738,14.915-6.724l5.445-5.445L19.368,351.052z"/>
	</g>
</g>
<g>
</g>
<g>
</g>
<g>
</g>
<g>
</g>
<g>
</g>
<g>
</g>
<g>
</g>
<g>
</g>
<g>
</g>
<g>
</g>
<g>
</g>
<g>
</g>
<g>
</g>
<g>
</g>
<g>
</g>
</svg>
