<?xml version="1.0" encoding="iso-8859-1"?>
<!-- Generator: Adobe Illustrator 19.0.0, SVG Export Plug-In . SVG Version: 6.00 Build 0)  -->
<svg version="1.1" id="Layer_1" xmlns="http://www.w3.org/2000/svg" xmlns:xlink="http://www.w3.org/1999/xlink" x="0px" y="0px"
	 viewBox="0 0 512.001 512.001" style="enable-background:new 0 0 512.001 512.001;" xml:space="preserve">
<g>
	<g>
		<path d="M491.027,193.153h-34.172c-22.326-49.926-69.488-84.16-123.839-89.977l24.324-19.458
			c9.045-7.236,10.512-20.434,3.275-29.481c-7.236-9.044-20.433-10.512-29.481-3.275l-64.168,51.334h-71.243
			c-77.678,0-142.078,57.897-152.34,132.804h-22.41C9.391,235.101,0,244.491,0,256.075c0,11.583,9.391,20.974,20.974,20.974h22.4
			c5.568,41.106,27.377,78.006,61.085,102.803v64.811c0,11.583,9.391,20.974,20.974,20.974h83.896
			c11.583,0,20.974-9.391,20.974-20.974v-34.811h41.948v34.811c0,11.583,9.391,20.974,20.974,20.974h83.896
			c11.583,0,20.974-9.391,20.974-20.974v-58.239c25.665-16.151,46.285-39.844,58.73-67.427h34.203
			c11.583,0,20.974-9.391,20.974-20.974v-83.896C512.001,202.543,502.611,193.153,491.027,193.153z M288.307,228.14h-64.618
			c-11.583,0-20.974-9.391-20.974-20.974c0-11.583,9.391-20.974,20.974-20.974h64.618c11.583,0,20.974,9.391,20.974,20.974
			C309.281,218.749,299.892,228.14,288.307,228.14z"/>
	</g>
</g>
<g>
</g>
<g>
</g>
<g>
</g>
<g>
</g>
<g>
</g>
<g>
</g>
<g>
</g>
<g>
</g>
<g>
</g>
<g>
</g>
<g>
</g>
<g>
</g>
<g>
</g>
<g>
</g>
<g>
</g>
</svg>
