<?xml version="1.0" encoding="iso-8859-1"?>
<!-- Generator: Adobe Illustrator 19.0.0, SVG Export Plug-In . SVG Version: 6.00 Build 0)  -->
<svg version="1.1" id="Layer_1" xmlns="http://www.w3.org/2000/svg" xmlns:xlink="http://www.w3.org/1999/xlink" x="0px" y="0px"
	 viewBox="0 0 512 512" style="enable-background:new 0 0 512 512;" xml:space="preserve">
<g>
	<g>
		<path d="M419.401,41.842C392.419,14.861,356.546,0,318.388,0c-11.27,0-20.407,9.137-20.407,20.407
			c0,11.272,9.137,20.407,20.407,20.407c27.255,0,52.878,10.615,72.152,29.889c19.271,19.269,29.885,44.891,29.887,72.147
			c0.001,11.27,9.138,20.406,20.409,20.405c11.27,0,20.407-9.138,20.406-20.409C461.24,104.689,446.379,68.819,419.401,41.842z"/>
	</g>
</g>
<g>
	<g>
		<path d="M352.014,340.115l-86.541-86.639c-7.963-7.971-7.959-20.886,0.008-28.852l67.342-67.342
			c3.854-3.854,5.977-8.979,5.978-14.429c0-5.452-2.124-10.574-5.977-14.427c-3.857-3.857-8.982-5.981-14.431-5.981
			c-5.451,0-10.575,2.124-14.431,5.978L150.038,282.346c-2.735,2.733-6.054,4.507-9.553,5.364c-1.601,0.392-3.237,0.612-4.876,0.612
			c-5.223,0-10.444-1.993-14.429-5.978c-5.479-5.479-7.192-13.299-5.136-20.241c0.008-0.03,0.023-0.061,0.031-0.091
			c0.297-0.982,0.686-1.94,1.132-2.876c0.973-2.041,2.283-3.962,3.973-5.65l57.705-57.705c0.005-0.005,0.01-0.011,0.015-0.016
			c7.958-7.959,7.958-20.904,0.001-28.862c-7.958-7.958-20.904-7.958-28.862,0l-57.512,57.512
			c-55.492,55.493-55.692,145.664-0.604,201.414L194.547,512l158.746-105.874c8.183-8.826,12.668-20.237,12.668-32.34
			C365.961,361.065,361.007,349.108,352.014,340.115z"/>
	</g>
</g>
<g>
</g>
<g>
</g>
<g>
</g>
<g>
</g>
<g>
</g>
<g>
</g>
<g>
</g>
<g>
</g>
<g>
</g>
<g>
</g>
<g>
</g>
<g>
</g>
<g>
</g>
<g>
</g>
<g>
</g>
</svg>
