<?xml version="1.0" encoding="iso-8859-1"?>
<!-- Generator: Adobe Illustrator 19.0.0, SVG Export Plug-In . SVG Version: 6.00 Build 0)  -->
<svg version="1.1" id="Layer_1" xmlns="http://www.w3.org/2000/svg" xmlns:xlink="http://www.w3.org/1999/xlink" x="0px" y="0px"
	 viewBox="0 0 511.998 511.998" style="enable-background:new 0 0 511.998 511.998;" xml:space="preserve">
<g>
	<g>
		<path d="M167.201,401.874l-14.215-14.213l-47.381-47.381l-14.213-14.215l-14.213-14.213l-8.468,8.468
			c-28.735,28.741-28.733,75.5,0.003,104.234c13.918,13.922,32.428,21.589,52.116,21.588c19.688,0.001,38.196-7.665,52.116-21.585
			l8.468-8.47L167.201,401.874z"/>
	</g>
</g>
<g>
	<g>
		<path d="M479.573,80.028c-2.813-5.891-8.307-10.045-14.74-11.148c-6.432-1.103-12.999,0.984-17.613,5.599l-66.214,66.212
			l-28.429-28.426l66.212-66.214c4.614-4.611,6.702-11.181,5.599-17.613c-1.103-6.431-5.26-11.927-11.147-14.741
			C359.539-11.953,295.176-0.903,253.08,41.19c-23.18,23.18-37.033,52.787-40.453,83.926l19.433,19.433l23.933,23.933l68.785,68.787
			l23.934,23.934l19.442,19.444c31.139-3.421,60.746-17.283,83.922-40.461C494.173,198.092,505.221,133.729,479.573,80.028z"/>
	</g>
</g>
<g>
	<g>
		<path d="M432.528,420.828l-56.856-56.857c-3.77-3.771-8.882-5.888-14.216-5.888c-5.331,0-10.443,2.117-14.212,5.886
			l-14.215,14.215l-56.857-56.856l37.906-37.905l-14.215-14.215l-14.213-14.213l-61.596-61.596l-0.001,0.001l-79.541-79.541
			c-28.737-28.736-75.496-28.733-104.23,0c-28.74,28.74-28.74,75.502-0.001,104.242l65.324,65.324l14.213,14.213l14.215,14.215
			l47.38,47.38l14.213,14.213l14.213,14.215l37.905-37.904l56.857,56.856l-14.216,14.216c-3.77,3.77-5.887,8.884-5.887,14.213
			c0,5.332,2.117,10.445,5.887,14.215l56.858,56.856c3.927,3.924,9.07,5.887,14.212,5.887c5.146,0,10.291-1.963,14.216-5.888
			l56.856-56.856C440.378,441.405,440.378,428.678,432.528,420.828z"/>
	</g>
</g>
<g>
</g>
<g>
</g>
<g>
</g>
<g>
</g>
<g>
</g>
<g>
</g>
<g>
</g>
<g>
</g>
<g>
</g>
<g>
</g>
<g>
</g>
<g>
</g>
<g>
</g>
<g>
</g>
<g>
</g>
</svg>
