<?xml version="1.0" encoding="iso-8859-1"?>
<!-- Generator: Adobe Illustrator 19.0.0, SVG Export Plug-In . SVG Version: 6.00 Build 0)  -->
<svg version="1.1" id="Layer_1" xmlns="http://www.w3.org/2000/svg" xmlns:xlink="http://www.w3.org/1999/xlink" x="0px" y="0px"
	 viewBox="0 0 512 512" style="enable-background:new 0 0 512 512;" xml:space="preserve">
<g>
	<g>
		<path d="M66.151,366.7V492.36c0,10.846,8.793,19.64,19.64,19.64h124.384v-85.105c0-10.846,8.793-19.64,19.64-19.64h52.372
			c10.846,0,19.64,8.793,19.64,19.64V512H426.21c10.846,0,19.64-8.793,19.64-19.64V366.7H66.151z"/>
	</g>
</g>
<g>
	<g>
		<path d="M386.931,0H125.069c-10.846,0-19.64,8.793-19.64,19.64v45.826h301.14V19.64C406.57,8.793,397.777,0,386.931,0z"/>
	</g>
</g>
<g>
	<g>
		<path d="M483.878,222.327l-39.279-104.744c-2.874-7.665-10.202-12.743-18.389-12.743h-19.64v-0.094H105.43v0.094H85.79
			c-8.187,0-15.515,5.079-18.389,12.744L28.122,222.327c-0.826,2.205-1.25,4.541-1.25,6.896v78.558
			c0,10.846,8.793,19.64,19.64,19.64h19.64h379.699h19.64c10.848,0,19.64-8.793,19.64-19.64v-78.558
			C485.128,226.867,484.704,224.531,483.878,222.327z"/>
	</g>
</g>
<g>
</g>
<g>
</g>
<g>
</g>
<g>
</g>
<g>
</g>
<g>
</g>
<g>
</g>
<g>
</g>
<g>
</g>
<g>
</g>
<g>
</g>
<g>
</g>
<g>
</g>
<g>
</g>
<g>
</g>
</svg>
