<?xml version="1.0" encoding="iso-8859-1"?>
<!-- Generator: Adobe Illustrator 19.0.0, SVG Export Plug-In . SVG Version: 6.00 Build 0)  -->
<svg version="1.1" id="Layer_1" xmlns="http://www.w3.org/2000/svg" xmlns:xlink="http://www.w3.org/1999/xlink" x="0px" y="0px"
	 viewBox="0 0 512 512" style="enable-background:new 0 0 512 512;" xml:space="preserve">
<g>
	<g>
		<path d="M411.151,325.818h-23.273H124.121h-23.273H77.576v162.909c0,12.853,10.42,23.273,23.273,23.273h310.303
			c12.853,0,23.273-10.42,23.273-23.273V325.818H411.151z M272.449,412.096c-4.329,4.329-10.316,6.811-16.446,6.811
			c-6.128,0-12.133-2.482-16.462-6.811c-4.329-4.329-6.811-10.333-6.811-16.462s2.482-12.117,6.811-16.462
			c4.329-4.329,10.333-6.811,16.462-6.811s12.117,2.482,16.446,6.811c4.344,4.344,6.827,10.333,6.827,16.462
			C279.277,401.763,276.793,407.768,272.449,412.096z"/>
	</g>
</g>
<g>
	<g>
		<path d="M411.151,0H100.849C87.996,0,77.576,10.42,77.576,23.273v256h23.273h23.273h263.758h23.273h23.273v-256
			C434.424,10.42,424.004,0,411.151,0z"/>
	</g>
</g>
<g>
</g>
<g>
</g>
<g>
</g>
<g>
</g>
<g>
</g>
<g>
</g>
<g>
</g>
<g>
</g>
<g>
</g>
<g>
</g>
<g>
</g>
<g>
</g>
<g>
</g>
<g>
</g>
<g>
</g>
</svg>
