<?xml version="1.0" encoding="iso-8859-1"?>
<!-- Generator: Adobe Illustrator 19.0.0, SVG Export Plug-In . SVG Version: 6.00 Build 0)  -->
<svg version="1.1" id="Layer_1" xmlns="http://www.w3.org/2000/svg" xmlns:xlink="http://www.w3.org/1999/xlink" x="0px" y="0px"
	 viewBox="0 0 512 512" style="enable-background:new 0 0 512 512;" xml:space="preserve">
<g>
	<g>
		<path d="M341.976,17.155C314.496,5.771,285.597,0,256.082,0C164.853,0,83.346,54.461,48.434,138.744
			c-47.406,114.452,7.138,246.134,121.59,293.543c27.48,11.382,56.378,17.154,85.891,17.154c1.944,0,3.897-0.025,5.851-0.078
			l93.837,59.465c3.316,2.102,7.114,3.173,10.934,3.173c2.644,0,5.301-0.513,7.814-1.555c6.141-2.544,10.659-7.916,12.113-14.4
			l24.305-108.397c22.863-21.673,40.609-47.529,52.797-76.952C510.972,196.243,456.427,64.561,341.976,17.155z M364.93,292.802
			H147.071c-11.28,0-20.424-9.145-20.424-20.424s9.145-20.424,20.424-20.424H364.93c11.28,0,20.424,9.145,20.424,20.424
			S376.21,292.802,364.93,292.802z M364.933,197.491l-217.862-0.001c-11.28,0-20.424-9.145-20.424-20.424
			c0-11.278,9.146-20.424,20.424-20.424l217.862,0.001c11.28,0,20.424,9.145,20.424,20.424
			C385.357,188.346,376.211,197.491,364.933,197.491z"/>
	</g>
</g>
<g>
</g>
<g>
</g>
<g>
</g>
<g>
</g>
<g>
</g>
<g>
</g>
<g>
</g>
<g>
</g>
<g>
</g>
<g>
</g>
<g>
</g>
<g>
</g>
<g>
</g>
<g>
</g>
<g>
</g>
</svg>
