<?xml version="1.0" encoding="iso-8859-1"?>
<!-- Generator: Adobe Illustrator 19.0.0, SVG Export Plug-In . SVG Version: 6.00 Build 0)  -->
<svg version="1.1" id="Layer_1" xmlns="http://www.w3.org/2000/svg" xmlns:xlink="http://www.w3.org/1999/xlink" x="0px" y="0px"
	 viewBox="0 0 512 512" style="enable-background:new 0 0 512 512;" xml:space="preserve">
<g>
	<g>
		<path d="M448,0H64C52.218,0,42.667,9.552,42.667,21.333v277.333H64h21.333h341.333H448h21.333V21.333
			C469.333,9.552,459.782,0,448,0z"/>
	</g>
</g>
<g>
	<g>
		<path d="M448,341.333h-21.333H85.333H64H42.667v149.333C42.667,502.448,52.218,512,64,512h384
			c11.782,0,21.333-9.552,21.333-21.333V341.333H448z M271.078,420.422c-3.968,3.968-9.472,6.245-15.076,6.245
			c-5.618,0-11.122-2.277-15.09-6.245c-3.968-3.982-6.244-9.471-6.244-15.088c0-5.618,2.276-11.108,6.244-15.09
			c3.968-3.968,9.472-6.244,15.09-6.244c5.602,0,11.108,2.276,15.076,6.244c3.982,3.982,6.258,9.472,6.258,15.09
			C277.336,410.951,275.061,416.441,271.078,420.422z"/>
	</g>
</g>
<g>
</g>
<g>
</g>
<g>
</g>
<g>
</g>
<g>
</g>
<g>
</g>
<g>
</g>
<g>
</g>
<g>
</g>
<g>
</g>
<g>
</g>
<g>
</g>
<g>
</g>
<g>
</g>
<g>
</g>
</svg>
