<?xml version="1.0" encoding="iso-8859-1"?>
<!-- Generator: Adobe Illustrator 19.0.0, SVG Export Plug-In . SVG Version: 6.00 Build 0)  -->
<svg version="1.1" id="Layer_1" xmlns="http://www.w3.org/2000/svg" xmlns:xlink="http://www.w3.org/1999/xlink" x="0px" y="0px"
	 viewBox="0 0 512.002 512.002" style="enable-background:new 0 0 512.002 512.002;" xml:space="preserve">
<g>
	<g>
		<path d="M505.184,110.251L401.751,6.817C397.385,2.451,391.467,0,385.294,0H281.857c-6.173,0-12.091,2.451-16.455,6.817
			L6.817,265.402c-9.089,9.087-9.089,23.824,0,32.912l206.87,206.87c4.544,4.544,10.501,6.817,16.457,6.817
			s11.913-2.273,16.455-6.817l258.585-258.585c4.364-4.364,6.817-10.283,6.817-16.455V126.706
			C512,120.534,509.548,114.615,505.184,110.251z M378.43,182.939c-13.63,13.633-35.739,13.633-49.366,0
			c-13.636-13.632-13.636-35.734,0-49.369c13.627-13.63,35.733-13.633,49.366,0C392.06,147.203,392.063,169.306,378.43,182.939z"/>
	</g>
</g>
<g>
</g>
<g>
</g>
<g>
</g>
<g>
</g>
<g>
</g>
<g>
</g>
<g>
</g>
<g>
</g>
<g>
</g>
<g>
</g>
<g>
</g>
<g>
</g>
<g>
</g>
<g>
</g>
<g>
</g>
</svg>
