<?xml version="1.0" encoding="iso-8859-1"?>
<!-- Generator: Adobe Illustrator 19.0.0, SVG Export Plug-In . SVG Version: 6.00 Build 0)  -->
<svg version="1.1" id="Layer_1" xmlns="http://www.w3.org/2000/svg" xmlns:xlink="http://www.w3.org/1999/xlink" x="0px" y="0px"
	 viewBox="0 0 511.998 511.998" style="enable-background:new 0 0 511.998 511.998;" xml:space="preserve">
<g>
	<g>
		<path d="M482.935,120.336c-0.946-0.946-65.648-65.646-65.648-65.646c-9.378-9.379-24.587-9.379-33.965,0l-98.253,98.25
			c-4.506,4.504-7.035,10.614-7.035,16.983s2.53,12.479,7.035,16.983l48.745,48.745l-98.236,98.233l-48.745-48.743
			c-9.378-9.379-24.584-9.379-33.965,0l-98.215,98.21c-4.502,4.504-7.034,10.612-7.034,16.983c0,6.369,2.53,12.478,7.034,16.983
			c6.624,6.624,64.737,64.737,65.627,65.624c18.988,18.991,45.796,29.029,77.52,29.029c63.47,0,143.37-40.47,208.52-105.615
			c46.636-46.636,80.905-100.581,96.499-151.902C519.985,197.952,512.915,150.315,482.935,120.336z"/>
	</g>
</g>
<g>
	<g>
		<path d="M218.986,117.121c-28.092-28.09-73.803-28.089-101.894,0.002c-13.61,13.608-21.103,31.702-21.103,50.948
			c0,19.246,7.493,37.34,21.103,50.948c4.691,4.69,10.836,7.034,16.982,7.034s12.295-2.346,16.982-7.035
			c9.379-9.379,9.378-24.587,0-33.965c-4.536-4.534-7.034-10.566-7.034-16.982c0-6.416,2.498-12.447,7.034-16.983
			c9.367-9.363,24.605-9.363,33.97,0c9.378,9.378,24.585,9.378,33.965-0.002C228.366,141.706,228.366,126.498,218.986,117.121z"/>
	</g>
</g>
<g>
	<g>
		<path d="M286.917,49.191c-65.549-65.549-172.206-65.55-237.755,0s-65.549,172.208,0,237.757c4.688,4.69,10.835,7.034,16.982,7.034
			c6.147,0,12.294-2.344,16.983-7.034c9.379-9.378,9.379-24.585,0-33.965c-46.822-46.822-46.82-123.005,0-169.827
			c46.822-46.82,123.004-46.82,169.826,0c9.378,9.379,24.585,9.379,33.965,0C296.296,73.778,296.296,58.57,286.917,49.191z"/>
	</g>
</g>
<g>
</g>
<g>
</g>
<g>
</g>
<g>
</g>
<g>
</g>
<g>
</g>
<g>
</g>
<g>
</g>
<g>
</g>
<g>
</g>
<g>
</g>
<g>
</g>
<g>
</g>
<g>
</g>
<g>
</g>
</svg>
