<?xml version="1.0" encoding="iso-8859-1"?>
<!-- Generator: Adobe Illustrator 19.0.0, SVG Export Plug-In . SVG Version: 6.00 Build 0)  -->
<svg version="1.1" id="Layer_1" xmlns="http://www.w3.org/2000/svg" xmlns:xlink="http://www.w3.org/1999/xlink" x="0px" y="0px"
	 viewBox="0 0 512 512" style="enable-background:new 0 0 512 512;" xml:space="preserve">
<g>
	<g>
		<path d="M489.925,355.339h-26.491v-52.981h-22.075h-22.075H206.037h-22.075h-22.075v52.981h-52.981V37.453
			c0-12.192-9.884-22.075-22.075-22.075H22.075C9.884,15.378,0,25.262,0,37.453s9.884,22.075,22.075,22.075h42.679v317.886
			c0,12.191,9.884,22.075,22.075,22.075h15.475c-3.325,8.187-5.173,17.125-5.173,26.491c0,38.951,31.69,70.641,70.641,70.641
			s70.641-31.69,70.641-70.641c0-9.366-1.848-18.305-5.173-26.491h94.083c-3.325,8.187-5.173,17.125-5.173,26.491
			c0,38.951,31.69,70.641,70.641,70.641c38.951,0,70.641-31.69,70.641-70.641c0-9.366-1.848-18.305-5.173-26.491h31.664
			c12.192,0,22.075-9.884,22.075-22.075C512,365.223,502.118,355.339,489.925,355.339z M167.773,452.471
			c-14.608,0-26.491-11.883-26.491-26.491s11.882-26.491,26.491-26.491c14.608,0,26.491,11.883,26.491,26.491
			S182.381,452.471,167.773,452.471z M392.793,452.471c-14.608,0-26.491-11.883-26.491-26.491s11.882-26.491,26.491-26.491
			c14.608,0,26.49,11.883,26.49,26.491S407.401,452.471,392.793,452.471z"/>
	</g>
</g>
<g>
	<g>
		<path d="M441.359,161.076H183.962c-12.192,0-22.075,9.884-22.075,22.075v75.056h22.075h22.075h213.246h22.075h22.075v-75.056
			C463.434,170.96,453.55,161.076,441.359,161.076z"/>
	</g>
</g>
<g>
</g>
<g>
</g>
<g>
</g>
<g>
</g>
<g>
</g>
<g>
</g>
<g>
</g>
<g>
</g>
<g>
</g>
<g>
</g>
<g>
</g>
<g>
</g>
<g>
</g>
<g>
</g>
<g>
</g>
</svg>
