<?xml version="1.0" encoding="iso-8859-1"?>
<!-- Generator: Adobe Illustrator 19.0.0, SVG Export Plug-In . SVG Version: 6.00 Build 0)  -->
<svg version="1.1" id="Capa_1" xmlns="http://www.w3.org/2000/svg" xmlns:xlink="http://www.w3.org/1999/xlink" x="0px" y="0px"
	 viewBox="0 0 512 512" style="enable-background:new 0 0 512 512;" xml:space="preserve">
<g>
	<g>
		
			<rect x="228.571" y="169.566" transform="matrix(0.7071 -0.7071 0.7071 0.7071 -64.3151 238.7166)" width="54.855" height="54.855"/>
	</g>
</g>
<g>
	<g>
		<path d="M305.805,332h-99.609C184.032,332,166,350.032,166,372.195V422h180v-49.805C346,350.032,327.968,332,305.805,332z"/>
	</g>
</g>
<g>
	<g>
		<path d="M496,362c0-14.326,0-28.896,0-45c0-24.814-20.186-45-45-45h-15v-30c0-72.471-43.134-136.908-105-165.42V75
			c0-41.353-33.647-75-75-75c-41.353,0-75,33.647-75,75v1.58C119.134,105.092,76,169.529,76,242v30H61c-24.814,0-45,20.186-45,45
			c0,16.104,0,30.674,0,45h60v30H16c0,14.326,0,28.896,0,45c0,24.814,20.186,45,45,45h17.763c6.213,17.422,22.707,30,42.237,30h270
			c19.53,0,36.024-12.578,42.237-30H451c24.814,0,45-20.186,45-45c0-16.104,0-30.674,0-45h-60v-30H496z M256,30
			c21.612,0,39.686,15.32,43.998,35.665C285.888,62.1,271.201,60,256,60s-29.888,2.1-43.998,5.665C216.314,45.32,234.388,30,256,30z
			 M185.395,186.395l60-60c5.859-5.859,15.352-5.859,21.211,0l60,60c5.859,5.859,5.859,15.352,0,21.211l-60,60
			c-5.859,5.859-15.352,5.859-21.211,0l-60-60C179.535,201.746,179.535,192.254,185.395,186.395z M406,452
			c-151.844,0-148.715,0-300,0v-30h30v-49.805C136,333.494,167.494,302,206.195,302h99.609C344.506,302,376,333.494,376,372.195V422
			h30V452z"/>
	</g>
</g>
<g>
</g>
<g>
</g>
<g>
</g>
<g>
</g>
<g>
</g>
<g>
</g>
<g>
</g>
<g>
</g>
<g>
</g>
<g>
</g>
<g>
</g>
<g>
</g>
<g>
</g>
<g>
</g>
<g>
</g>
</svg>
