<?xml version="1.0" encoding="iso-8859-1"?>
<!-- Generator: Adobe Illustrator 19.0.0, SVG Export Plug-In . SVG Version: 6.00 Build 0)  -->
<svg version="1.1" id="Capa_1" xmlns="http://www.w3.org/2000/svg" xmlns:xlink="http://www.w3.org/1999/xlink" x="0px" y="0px"
	 viewBox="0 0 512 512" style="enable-background:new 0 0 512 512;" xml:space="preserve">
<g>
	<g>
		<path d="M329.033,136.066c-53.278-53.278-139.955-53.278-193.203,0c-53.263,53.278-53.263,139.955,0,193.219
			c27.205,27.205,47.46,54.057,64.65,101.416c99.563-48.657,181.319-130.343,229.914-229.844
			C377.133,182.438,365.299,172.332,329.033,136.066z"/>
	</g>
</g>
<g>
	<g>
		<path d="M466.706,213.078l-7.466-2.483C407.357,318.85,318.69,407.58,210.387,459.554l2.47,7.403
			c9.173,27.551,41.491,39.495,66.664,24.786c87.522-51.173,160.828-124.479,211.971-211.986
			C506.243,254.498,494.227,222.261,466.706,213.078z"/>
	</g>
</g>
<g>
	<g>
		<path d="M154.998,481.544c-74.566-10.658-126.57-79.991-115.925-154.557c1.186-8.301-4.58-15.996-12.882-17.182
			c-8.212-1.157-15.98,4.595-17.182,12.882c-13.001,91.141,50.55,175.89,141.689,188.921c8.226,1.175,15.987-4.514,17.182-12.882
			C169.066,490.424,163.299,482.73,154.998,481.544z"/>
	</g>
</g>
<g>
	<g>
		<path d="M163.581,421.431c-20.027-2.861-37.772-13.372-49.957-29.619c-12.17-16.232-17.3-36.215-14.424-56.243
			c1.186-8.286-4.58-15.98-12.882-17.182c-8.198-1.068-15.965,4.595-17.182,12.882c-4.018,28.048,3.157,56.02,20.206,78.761
			c17.048,22.725,41.893,37.446,69.94,41.464c8.226,1.176,15.986-4.512,17.181-12.881
			C177.649,430.311,171.882,422.617,163.581,421.431z"/>
	</g>
</g>
<g>
	<g>
		<path d="M511.846,150.475C498.815,59.321,414.021-4.289,322.911,8.786c-8.301,1.186-14.068,8.879-12.882,17.182
			c1.186,8.286,8.821,14.009,17.182,12.882c36.157-5.173,72.09,4.047,101.294,25.943c29.204,21.896,48.12,53.857,53.278,89.983
			c1.195,8.368,8.955,14.057,17.182,12.882C507.265,166.471,513.032,158.777,511.846,150.475z"/>
	</g>
</g>
<g>
	<g>
		<path d="M451.719,159.074c-4.002-28.062-18.723-52.907-41.448-69.955c-22.741-17.048-50.758-24.193-78.761-20.22
			c-8.301,1.186-14.068,8.879-12.882,17.182c1.171,8.301,8.716,14.023,17.182,12.882c19.996-2.862,39.994,2.267,56.242,14.438
			c16.232,12.185,26.757,29.916,29.604,49.943c1.201,8.402,9.013,14.085,17.167,12.897
			C447.123,175.054,452.905,167.361,451.719,159.074z"/>
	</g>
</g>
<g>
	<g>
		<path d="M77.72,13.559c-17.761-17.744-46.653-17.774-64.412,0c-17.744,17.744-17.744,46.622,0,64.396l27.008,27
			c2.763-4.177,5.974-8.144,9.652-11.82L92.9,50.204c3.648-3.648,7.616-6.854,11.82-9.645L77.72,13.559z"/>
	</g>
</g>
<g>
	<g>
		<path d="M178.76,71.671c-17.76-17.76-46.637-17.76-64.396,0l-42.931,42.931c-17.759,17.759-17.759,46.651,0.001,64.411l2.77,2.77
			c7.835-24.521,20.739-47.754,40.16-67.181c19.046-19.055,42.169-32.193,67.144-40.182L178.76,71.671z"/>
	</g>
</g>
<g>
	<g>
		<path d="M449.865,389.361c-18.828,21.621-39.125,41.917-60.747,60.749c20.117,10.825,40.153,6.169,53.543-7.199
			C457.218,428.354,459.173,406.617,449.865,389.361z"/>
	</g>
</g>
<g>
</g>
<g>
</g>
<g>
</g>
<g>
</g>
<g>
</g>
<g>
</g>
<g>
</g>
<g>
</g>
<g>
</g>
<g>
</g>
<g>
</g>
<g>
</g>
<g>
</g>
<g>
</g>
<g>
</g>
</svg>
