<?xml version="1.0" encoding="iso-8859-1"?>
<!-- Generator: Adobe Illustrator 19.0.0, SVG Export Plug-In . SVG Version: 6.00 Build 0)  -->
<svg version="1.1" id="Capa_1" xmlns="http://www.w3.org/2000/svg" xmlns:xlink="http://www.w3.org/1999/xlink" x="0px" y="0px"
	 viewBox="0 0 511.999 511.999" style="enable-background:new 0 0 511.999 511.999;" xml:space="preserve">
<g>
	<g>
		<path d="M401.259,481.623H378.49L276.419,353.035c11.994-8.085,19.903-21.791,19.903-37.313c0-24.799-20.174-44.973-44.973-44.973
			c-24.799,0-44.973,20.174-44.973,44.973c0,15.522,7.909,29.229,19.903,37.313L124.206,481.623h-22.768
			c-8.286,0-14.991,6.705-14.991,14.991c0,8.286,6.705,14.991,14.991,14.991h299.821c8.286,0,14.991-6.705,14.991-14.991
			C416.25,488.328,409.545,481.623,401.259,481.623z M236.858,481.623h-74.241l74.241-93.185V481.623z M266.84,481.623v-93.172
			l73.236,93.172H266.84z"/>
	</g>
</g>
<g>
	<g>
		<path d="M446.628,204.22L341.69,22.464C333.409,8.123,315.073,3.21,300.733,11.49c-14.341,8.279-19.255,26.615-10.974,40.957
			l104.937,181.756c8.279,14.341,26.615,19.255,40.957,10.974C449.993,236.897,454.907,218.561,446.628,204.22z"/>
	</g>
</g>
<g>
	<g>
		<path d="M498.02,48.88C471.61,3.138,416.062-10.264,368.411,8.782l103.426,179.139C512.156,156.176,524.43,94.624,498.02,48.88z"
			/>
	</g>
</g>
<g>
	<g>
		<path d="M93.591,192.386l-61.278,45.206c-6.341,4.465-8.229,13.029-4.349,19.749l7.489,12.971l-12.992,7.494
			c-21.462,12.415-28.84,39.981-16.44,61.444c12.409,21.49,39.862,28.901,61.426,16.454l12.985-7.495l7.496,12.983
			c3.91,6.746,12.277,9.345,19.281,6.121l68.217-33.186L93.591,192.386z"/>
	</g>
</g>
<g>
	<g>
		<path d="M265.805,70.922l-73.81,52.05l68.545,118.724c20.805,2.585,38.913,13.531,50.837,29.594l55.345-25.576L265.805,70.922z"/>
	</g>
</g>
<g>
	<g>
		<path d="M174.922,153.367c-8.279-14.341-26.617-19.255-40.957-10.974c-14.339,8.279-19.254,26.615-10.974,40.957l59.446,102.96
			c8.387-19.577,24.999-34.579,45.35-41.381L174.922,153.367z"/>
	</g>
</g>
<g>
</g>
<g>
</g>
<g>
</g>
<g>
</g>
<g>
</g>
<g>
</g>
<g>
</g>
<g>
</g>
<g>
</g>
<g>
</g>
<g>
</g>
<g>
</g>
<g>
</g>
<g>
</g>
<g>
</g>
</svg>
