<?xml version="1.0" encoding="iso-8859-1"?>
<!-- Generator: Adobe Illustrator 19.0.0, SVG Export Plug-In . SVG Version: 6.00 Build 0)  -->
<svg version="1.1" id="Capa_1" xmlns="http://www.w3.org/2000/svg" xmlns:xlink="http://www.w3.org/1999/xlink" x="0px" y="0px"
	 viewBox="0 0 512 512" style="enable-background:new 0 0 512 512;" xml:space="preserve">
<g>
	<g>
		<path d="M256,211c-24.814,0-45,20.186-45,45c0,24.814,20.186,45,45,45c24.814,0,45-20.186,45-45C301,231.186,280.814,211,256,211z
			"/>
	</g>
</g>
<g>
	<g>
		<path d="M427.634,256c32.64-33.713,72.627-86.911,49.206-127.5c-19.81-34.329-72.889-37.119-134.85-21.403
			C324.632,45.577,295.672,0,256,0c-39.67,0-68.63,45.572-85.988,107.088C108.067,91.379,54.992,94.177,35.16,128.5
			C11.746,169.076,51.696,222.257,84.366,256c-32.64,33.713-72.627,86.911-49.206,127.5c23.507,40.721,89.288,32.919,134.839,21.368
			C187.357,466.408,216.321,512,256,512s68.643-45.592,86.001-107.132C387.583,416.426,453.34,424.21,476.84,383.5
			C500.254,342.922,460.304,289.743,427.634,256z M61.146,368.5c-14.384-24.891,24.8-71.054,44.88-91.791
			c14.544,13.024,30.436,25.794,47.834,38.112c1.974,20.98,4.982,41.49,9.036,60.934C110.35,388.997,71.396,386.263,61.146,368.5z
			 M151.364,275.722c-8.366-6.5-16.046-13.076-23.547-19.722c7.502-6.647,15.181-13.222,23.547-19.722
			C150.881,251.67,150.881,260.329,151.364,275.722z M153.86,197.18c-17.399,12.318-33.29,25.087-47.834,38.112
			c-20.08-20.738-59.264-66.902-44.88-91.792c14.29-24.754,74.039-14.266,101.754-7.278
			C158.844,155.673,155.836,176.19,153.86,197.18z M325.52,175.745c-16-9.902-10.25-7.341-34.281-20.224
			c9.928-4.017,19.653-7.674,29.046-10.798C322.304,154.561,324.022,164.969,325.52,175.745z M256,30
			c20.495,0,42.345,33.379,57.155,85.516c-18.82,6.193-38.033,13.817-57.145,22.566c-19.114-8.752-38.339-16.381-57.162-22.575
			C213.657,63.373,235.505,30,256,30z M191.717,144.721c9.395,3.126,19.118,6.782,29.05,10.8
			c-24.033,12.88-18.287,10.322-34.286,20.224C187.978,164.969,189.698,154.561,191.717,144.721z M186.48,336.255
			c18.615,11.521,8.423,6.255,34.46,20.211c-9.987,4.047-19.768,7.722-29.213,10.865C189.705,357.477,187.98,347.051,186.48,336.255
			z M256,482c-20.493,0-42.339-33.371-57.149-85.5c18.816-6.194,38.042-13.705,57.149-22.456
			c19.107,8.751,38.333,16.262,57.149,22.456C298.339,448.629,276.493,482,256,482z M320.27,367.341
			c-9.446-3.144-19.233-6.823-29.222-10.869c26.091-13.986,15.818-8.672,34.471-20.217
			C324.018,347.055,322.293,357.483,320.27,367.341z M329.473,298.403c-24.135,16.218-46.207,29.134-73.48,42.44
			c-27.495-13.42-49.625-26.42-73.466-42.44c-2.034-29.106-2.034-55.7,0-84.807c26.986-18.135,47.435-29.614,73.475-42.312
			c25.975,12.669,46.417,24.133,73.471,42.312C331.507,242.702,331.507,269.297,329.473,298.403z M450.854,143.5
			c14.385,24.89-24.8,71.054-44.879,91.791c-14.544-13.024-30.436-25.794-47.834-38.112c-1.976-20.988-4.984-41.505-9.04-60.956
			C376.815,129.236,436.564,118.746,450.854,143.5z M360.636,236.278c8.366,6.5,16.046,13.076,23.547,19.722
			c-7.502,6.647-15.181,13.222-23.547,19.722C361.119,260.329,361.119,251.67,360.636,236.278z M450.854,368.5
			c-10.226,17.765-49.189,20.51-101.752,7.264c4.056-19.448,7.062-39.959,9.038-60.943c17.399-12.318,33.29-25.087,47.834-38.112
			C426.054,297.446,465.238,343.609,450.854,368.5z"/>
	</g>
</g>
<g>
</g>
<g>
</g>
<g>
</g>
<g>
</g>
<g>
</g>
<g>
</g>
<g>
</g>
<g>
</g>
<g>
</g>
<g>
</g>
<g>
</g>
<g>
</g>
<g>
</g>
<g>
</g>
<g>
</g>
</svg>
