<?xml version="1.0" encoding="iso-8859-1"?>
<!-- Generator: Adobe Illustrator 19.0.0, SVG Export Plug-In . SVG Version: 6.00 Build 0)  -->
<svg version="1.1" id="Capa_1" xmlns="http://www.w3.org/2000/svg" xmlns:xlink="http://www.w3.org/1999/xlink" x="0px" y="0px"
	 viewBox="0 0 512 512" style="enable-background:new 0 0 512 512;" xml:space="preserve">
<g>
	<g>
		<path d="M355.484,252.611c-8.952-28.152-29.854-50.94-56.73-62.422l-47.417,47.417c-5.859,5.859-15.352,5.859-21.211,0
			c-5.859-5.859-5.859-15.352,0-21.211l33.966-33.966c-1.529-0.07-2.975-0.428-4.523-0.428h-27.627l-55.605,55.605
			c-5.86,5.86-15.351,5.86-21.211,0c-5.859-5.859-5.859-15.352,0-21.211L189.521,182h-32.578l-55.605,55.605
			c-5.859,5.859-15.352,5.859-21.211,0s-5.859-15.352,0-21.211L114.521,182h-12.627c-45.066,0-83.969,29.733-96.911,70.556
			C1.938,262.16,9.425,272,19.5,272h321.466C351.018,272,358.531,262.191,355.484,252.611z"/>
	</g>
</g>
<g>
	<g>
		<path d="M481.732,212H369.451c11.402,17.547,18.263,38.044,20.153,60h92.128c16.569,0,30-13.433,30-30
			C511.732,225.431,498.301,212,481.732,212z"/>
	</g>
</g>
<g>
	<g>
		<path d="M387.969,302c-1.655,4.644-4.037,8.886-7.033,12.687c6.266,14.533,9.796,30.507,9.796,47.313
			c0,15.919-3.979,33.823-9.796,47.313c6.039,7.661,9.796,17.197,9.796,27.687c0,29.392-12.217,55.92-31.749,75h49.151
			c23.218,0,42.92-18.135,44.824-41.265L467.021,302H387.969z"/>
	</g>
</g>
<g>
	<g>
		<path d="M345.732,60h-45V45c0-24.814-20.186-45-45-45h-60c-8.291,0-15,6.709-15,15s6.709,15,15,15h60c8.276,0,15,6.724,15,15
			v16.205c-51.771,5.859-94.261,43.124-111.169,90.795H259.57c31.388,0,59.848,11.541,82.449,30h137.197
			C471.642,114.685,415.039,60,345.732,60z"/>
	</g>
</g>
<g>
	<g>
		<path d="M337.48,452H22.984c-11.691,0-18.882,12.788-12.96,22.87C23.061,497.066,48.184,512,75.732,512h210
			c27.548,0,51.671-14.934,64.708-37.13C356.362,464.788,349.171,452,337.48,452z"/>
	</g>
</g>
<g>
	<g>
		<path d="M300.732,302h-240c-31.311,0-57.726,24.071-60.464,54.672c0.758-0.787,1.809-1.174,2.437-2.113
			c9.551-14.341,26.547-22.911,43.774-22.911s33.223,8.569,42.773,22.91c7.822,11.689,26.631,11.689,34.453,0
			c9.551-14.341,25.547-22.91,42.773-22.91c17.226,0,33.223,8.569,42.773,22.91c7.822,11.689,26.631,11.689,34.453,0
			c9.551-14.341,25.547-22.91,42.773-22.91c17.226,0,33.223,8.569,42.773,22.91c6.94,10.369,22.137,10.999,31.029,2.97
			C357.954,326.518,332.336,302,300.732,302z"/>
	</g>
</g>
<g>
	<g>
		<path d="M346.479,394.476c-17.227,0-33.223-8.555-42.773-22.896c-7.822-11.719-26.631-11.719-34.453,0
			c-9.551,14.341-25.547,22.896-42.773,22.896c-17.226,0-33.223-8.555-42.773-22.896c-7.822-11.719-26.631-11.719-34.453,0
			c-9.551,14.341-25.547,22.896-42.773,22.896s-33.223-8.555-42.773-22.896c-7.822-11.719-27.631-11.719-35.453,0
			c-5.392,8.097-12.957,14.081-21.519,17.99C16.744,408.758,37.593,422,60.732,422h240c21.392,0,40.043-11.279,50.665-28.132
			C349.745,394.029,348.158,394.476,346.479,394.476z"/>
	</g>
</g>
<g>
</g>
<g>
</g>
<g>
</g>
<g>
</g>
<g>
</g>
<g>
</g>
<g>
</g>
<g>
</g>
<g>
</g>
<g>
</g>
<g>
</g>
<g>
</g>
<g>
</g>
<g>
</g>
<g>
</g>
</svg>
