<?xml version="1.0" encoding="iso-8859-1"?>
<!-- Generator: Adobe Illustrator 19.0.0, SVG Export Plug-In . SVG Version: 6.00 Build 0)  -->
<svg version="1.1" id="Capa_1" xmlns="http://www.w3.org/2000/svg" xmlns:xlink="http://www.w3.org/1999/xlink" x="0px" y="0px"
	 viewBox="0 0 512 512" style="enable-background:new 0 0 512 512;" xml:space="preserve">
<g>
	<g>
		<path d="M395.38,481.025h-52.376l-57.669-115.338c-2.632-5.248-7.985-8.56-13.854-8.56h-61.949c-5.869,0-11.222,3.312-13.854,8.56
			L138.01,481.025h-21.401c-8.56,0-15.487,6.927-15.487,15.487S108.048,512,116.608,512c113.181,0,16.276,0,278.772,0
			c8.56,0,15.487-6.927,15.487-15.487C410.868,487.952,403.941,481.025,395.38,481.025z M240.507,450.051
			c-8.553,0-15.487-6.934-15.487-15.487c0-8.554,6.934-15.487,15.487-15.487c8.553,0,15.487,6.932,15.487,15.487
			C255.994,443.117,249.06,450.051,240.507,450.051z"/>
	</g>
</g>
<g>
	<g>
		<path d="M457.33,357.127H315.69l42.747,85.496c12.865-8.271,21.456-22.635,21.456-39.034v-15.487h77.437
			c8.56,0,15.487-6.927,15.487-15.487S465.89,357.127,457.33,357.127z"/>
	</g>
</g>
<g>
	<g>
		<path d="M420.94,260.33l-9.784-13.972c-3.553,3.733-7.48,7.154-11.799,10.177l-50.727,35.527c-4.32,3.023-8.948,5.39-13.695,7.45
			l9.884,14.116c4.902,7.009,14.559,8.713,21.568,3.811l50.743-35.542C424.147,276.982,425.842,267.333,420.94,260.33z"/>
	</g>
</g>
<g>
	<g>
		<path d="M243.291,6.606c-4.823-6.892-14.427-8.777-21.569-3.812l-50.757,35.542c-6.98,4.882-8.729,14.568-3.811,21.568
			l9.793,13.981c3.554-3.736,7.484-7.159,11.804-10.185l50.727-35.527c4.322-3.019,8.954-5.384,13.701-7.443L243.291,6.606z"/>
	</g>
</g>
<g>
	<g>
		<path d="M160.146,159.439c-6.415,4.643-11.692,10.283-15.749,16.583C78.638,192.647,33.901,254.096,39.686,322.733
			c4.302,51.02,38.332,94.193,85.519,114.629l41.466-82.926c-17.78-5.634-31.629-19.762-34.075-36.83
			c-3.544-24.751,12.296-47.39,37.021-52.302c21.547,10.29,44.747,7.268,62.195-4.904L160.146,159.439z"/>
	</g>
</g>
<g>
	<g>
		<path d="M393.021,166.455l-71.069-101.5c-14.671-20.993-43.709-26.075-64.702-11.419l-50.743,35.542
			c-21.149,14.801-26.068,43.83-11.419,64.702l71.069,101.5c14.65,20.943,43.668,26.122,64.702,11.419l50.743-35.542
			C402.751,216.354,407.67,187.327,393.021,166.455z"/>
	</g>
</g>
<g>
</g>
<g>
</g>
<g>
</g>
<g>
</g>
<g>
</g>
<g>
</g>
<g>
</g>
<g>
</g>
<g>
</g>
<g>
</g>
<g>
</g>
<g>
</g>
<g>
</g>
<g>
</g>
<g>
</g>
</svg>
