<?xml version="1.0" encoding="iso-8859-1"?>
<!-- Generator: Adobe Illustrator 19.0.0, SVG Export Plug-In . SVG Version: 6.00 Build 0)  -->
<svg version="1.1" id="Capa_1" xmlns="http://www.w3.org/2000/svg" xmlns:xlink="http://www.w3.org/1999/xlink" x="0px" y="0px"
	 viewBox="0 0 512 512" style="enable-background:new 0 0 512 512;" xml:space="preserve">
<g>
	<g>
		<path d="M301,121c-49.629,0-90,40.371-90,90c0,49.629,40.371,90,90,90c49.629,0,90-40.371,90-90C391,161.371,350.629,121,301,121z
			 M331,256c0,8.291-6.709,15-15,15h-30c-8.291,0-15-6.709-15-15c0-8.291,6.709-15,15-15v-60c-8.291,0-15-6.709-15-15
			s6.709-15,15-15h30c8.291,0,15,6.709,15,15s-6.709,15-15,15v60C324.291,241,331,247.709,331,256z"/>
	</g>
</g>
<g>
	<g>
		<path d="M46,75v332.383C58.574,397.865,74.052,392,91,392h15V1.518C71.809,8.487,46,38.784,46,75z"/>
	</g>
</g>
<g>
	<g>
		<path d="M421,0H136v392h330V45C466,20.186,445.814,0,421,0z M301,331c-66.167,0-120-53.833-120-120S234.833,91,301,91
			s120,53.833,120,120S367.167,331,301,331z"/>
	</g>
</g>
<g>
	<g>
		<path d="M91,422c-24.853,0-45,20.147-45,45c0,24.853,20.147,45,45,45h375v-90H91z"/>
	</g>
</g>
<g>
</g>
<g>
</g>
<g>
</g>
<g>
</g>
<g>
</g>
<g>
</g>
<g>
</g>
<g>
</g>
<g>
</g>
<g>
</g>
<g>
</g>
<g>
</g>
<g>
</g>
<g>
</g>
<g>
</g>
</svg>
