<?xml version="1.0" encoding="iso-8859-1"?>
<!-- Generator: Adobe Illustrator 19.0.0, SVG Export Plug-In . SVG Version: 6.00 Build 0)  -->
<svg version="1.1" id="Capa_1" xmlns="http://www.w3.org/2000/svg" xmlns:xlink="http://www.w3.org/1999/xlink" x="0px" y="0px"
	 viewBox="0 0 512.001 512.001" style="enable-background:new 0 0 512.001 512.001;" xml:space="preserve">
<g>
	<g>
		<path d="M485.951,69.17l-20.59-20.591c-32.445-32.445-83.499-34.443-118.722-6.788c66.364,25.028,119.597,76.784,145.938,146.319
			C520.399,152.878,518.458,101.677,485.951,69.17z"/>
	</g>
</g>
<g>
	<g>
		<path d="M47.147,50.677L26.614,71.209c-31.177,30.858-35.861,79.62-9.278,115.991C43.442,118.029,96.625,66.442,162.99,41.571
			C128.329,17.039,77.54,19.97,47.147,50.677z"/>
	</g>
</g>
<g>
	<g>
		<path d="M416.833,432.916c38.764-40.263,62.749-94.855,62.749-155.031c0.001-25.923-4.312-51.017-12.794-74.507
			c-27.024-76.442-86.622-123.1-152.341-140.645V39.136c0-16.483-13.361-29.844-29.844-29.844h-59.688
			c-16.483,0-30.839,13.361-30.839,29.844v23.463C128.459,79.985,70.007,126.434,43.11,202.577
			c-8.743,23.621-13.173,48.963-13.173,75.309c0,60.176,23.985,114.768,62.749,155.031l-30.399,46.592
			c-4.576,6.863-2.725,16.117,4.138,20.693c6.974,4.622,16.192,2.623,20.693-4.138l27.909-41.866
			c38.181,30.277,87.328,48.511,139.732,48.511c52.405,0,101.551-18.234,139.732-48.511l27.909,41.866
			c4.5,6.762,13.719,8.761,20.693,4.138c6.863-4.576,8.714-13.829,4.138-20.693L416.833,432.916z M254.761,442.027
			c-90.507,0-165.135-73.633-165.135-164.141s74.628-164.141,165.135-164.141c90.507,0,165.135,73.633,165.135,164.141
			C419.896,368.393,345.268,442.027,254.761,442.027z"/>
	</g>
</g>
<g>
	<g>
		<path d="M360.209,277.886c0-8.248,6.674-14.922,14.922-14.922h13.414c-6.974-62-56.86-110.892-118.862-117.867v13.414
			c0,8.248-6.674,14.922-14.922,14.922s-14.922-6.674-14.922-14.922v-13.414c-62,6.974-111.887,55.865-118.862,117.867h13.414
			c8.248,0,14.922,6.674,14.922,14.922c0,8.248-6.674,14.922-14.922,14.922h-13.414c6.974,62,56.86,110.892,118.862,117.867v-13.414
			c0-8.248,6.674-14.922,14.922-14.922c8.248,0,14.922,6.674,14.922,14.922v13.414c62-6.974,111.887-55.865,118.862-117.867H375.13
			C366.883,292.808,360.209,286.134,360.209,277.886z M269.684,337.574h-0.001c0,8.248-6.674,14.922-14.922,14.922
			s-14.922-6.674-14.922-14.922v-53.509l-56.31-55.315c-5.828-5.828-5.828-15.272,0-21.101c5.828-5.828,15.272-5.828,21.101,0
			l60.682,59.688c2.798,2.798,4.372,6.586,4.372,10.55V337.574z"/>
	</g>
</g>
<g>
</g>
<g>
</g>
<g>
</g>
<g>
</g>
<g>
</g>
<g>
</g>
<g>
</g>
<g>
</g>
<g>
</g>
<g>
</g>
<g>
</g>
<g>
</g>
<g>
</g>
<g>
</g>
<g>
</g>
</svg>
