<?xml version="1.0" encoding="iso-8859-1"?>
<!-- Generator: Adobe Illustrator 19.0.0, SVG Export Plug-In . SVG Version: 6.00 Build 0)  -->
<svg version="1.1" id="Capa_1" xmlns="http://www.w3.org/2000/svg" xmlns:xlink="http://www.w3.org/1999/xlink" x="0px" y="0px"
	 viewBox="0 0 512 512" style="enable-background:new 0 0 512 512;" xml:space="preserve">
<g>
	<g>
		<path d="M467,0H45C20.186,0,0,20.186,0,45v422c0,24.814,20.186,45,45,45h422c24.814,0,45-20.186,45-45V45
			C512,20.186,491.814,0,467,0z M482,422H30v-61h32.741c1.729,4.885,4.184,9.591,7.689,13.799
			c15.937,19.114,45.321,21.629,64.369,5.771c0.482-0.401,0.828-0.897,1.289-1.315c17.428,15.66,42.095,15.147,58.711,1.315
			c0.482-0.401,0.828-0.897,1.289-1.315c17.428,15.66,42.095,15.147,58.711,1.315c6.434-5.358,10.823-12.197,13.427-19.57H482V422z
			 M482,331H268.259c-1.729-4.885-4.184-9.591-7.689-13.799c-15.908-19.072-44.326-21.636-63.369-5.771
			c-0.461,0.385-0.793,0.861-1.236,1.26c-16.353-14.707-41.406-15.72-58.764-1.26c-0.463,0.386-0.795,0.862-1.238,1.262
			c-16.373-14.711-42.404-15.723-59.762-1.262c-6.434,5.358-10.823,12.197-13.427,19.57H30v-90h123.741
			c1.729,4.885,4.184,9.591,7.689,13.799c15.937,19.114,44.321,21.629,63.369,5.771c6.434-5.358,10.823-12.197,13.427-19.57h65.515
			c1.729,4.885,4.184,9.591,7.689,13.799c15.937,19.114,44.321,21.629,63.369,5.771c0.482-0.401,0.828-0.897,1.289-1.315
			c17.428,15.66,43.095,15.147,59.711,1.315c6.434-5.358,10.823-12.197,13.427-19.57H482V331z M482,211h-32.741
			c-1.729-4.885-4.184-9.591-7.689-13.799c-15.908-19.072-45.341-21.65-64.369-5.771c-0.461,0.385-0.793,0.861-1.236,1.26
			c-16.364-14.713-41.418-15.734-58.764-1.26c-6.434,5.358-10.823,12.197-13.427,19.57h-65.515
			c-1.729-4.885-4.184-9.591-7.689-13.799c-15.908-19.072-44.341-21.65-63.369-5.771c-6.434,5.358-10.823,12.197-13.427,19.57H30
			v-90h32.763c6.213,17.422,23.707,30,43.237,30c19.53,0,36.024-12.578,42.237-30h35.504c1.729,4.885,4.184,9.591,7.689,13.799
			c15.937,19.114,44.321,21.629,63.369,5.771c6.434-5.358,10.823-12.197,13.427-19.57H482V211z M482,91H268.259
			c-1.729-4.885-4.184-9.591-7.689-13.799c-15.908-19.087-44.326-21.665-63.369-5.771c-6.434,5.358-10.823,12.197-13.427,19.57
			h-35.537C142.024,73.578,125.53,61,106,61c-19.53,0-37.024,12.578-43.237,30H30V45c0-8.276,6.724-15,15-15h422
			c8.276,0,15,6.724,15,15V91z"/>
	</g>
</g>
<g>
</g>
<g>
</g>
<g>
</g>
<g>
</g>
<g>
</g>
<g>
</g>
<g>
</g>
<g>
</g>
<g>
</g>
<g>
</g>
<g>
</g>
<g>
</g>
<g>
</g>
<g>
</g>
<g>
</g>
</svg>
