<?xml version="1.0" encoding="iso-8859-1"?>
<!-- Generator: Adobe Illustrator 19.0.0, SVG Export Plug-In . SVG Version: 6.00 Build 0)  -->
<svg version="1.1" id="Capa_1" xmlns="http://www.w3.org/2000/svg" xmlns:xlink="http://www.w3.org/1999/xlink" x="0px" y="0px"
	 viewBox="0 0 512 512" style="enable-background:new 0 0 512 512;" xml:space="preserve">
<g>
	<g>
		<path d="M302.536,209.653c-34.16-34.16-84.36-39.814-114.229-12.905c-0.106,0.093-0.244,0.115-0.352,0.205l-17.067,17.067
			c31.357,0.07,64.142,12.991,89.211,38.069c25.19,25.181,38.068,57.872,38.123,89.158l17.049-17.049
			c0.075-0.088,0.093-0.201,0.17-0.287C342.35,293.984,336.681,243.799,302.536,209.653z"/>
	</g>
</g>
<g>
	<g>
		<path d="M238.889,273.3c-31.626-31.626-78.398-39.053-108.779-17.3c-0.676,0.483-1.458,0.621-2.179,0.978L68.478,316.43
			c32.056,0.135,64.4,14.116,88.775,38.505c25.463,25.471,38,58.151,37.974,89.307l59.456-59.456
			c0.33-0.604,0.441-1.273,0.861-1.842C278.117,352.49,270.954,305.351,238.889,273.3z"/>
	</g>
</g>
<g>
	<g>
		<path d="M482.027,29.767C446.944-5.3,394.605-10.091,365.353,19.162l-130.8,131.193c31.152-0.007,63.746,12.621,89.194,38.086
			c25.457,25.457,38.091,58.046,38.093,89.187l130.792-131.186C521.856,117.204,517.11,64.865,482.027,29.767z"/>
	</g>
</g>
<g>
	<g>
		<path d="M440.421,389.975l-38.042-38.042v-21.211h27.437c6.108,0,11.602-3.706,13.901-9.36s0.938-12.144-3.442-16.392
			l-32.113-31.23l-41.99,41.986l-63.636,63.635l74.238,74.247c9.424,9.424,25.605,2.777,25.605-10.605V415.58h27.437
			C443.177,415.58,449.83,399.383,440.421,389.975z"/>
	</g>
</g>
<g>
	<g>
		<path d="M153.998,400.624l-39.167,39.17l41.135,41.135C169.785,458.16,168.576,427.541,153.998,400.624z"/>
	</g>
</g>
<g>
	<g>
		<path d="M83.015,429.189l53.031-53.036l-0.004-0.005c-35.098-35.098-87.437-39.829-116.675-10.605
			C-9.856,394.779-5.11,447.118,29.973,482.216c28.083,28.063,71.766,39.752,104.676,19.817L83.015,450.4
			C77.156,444.541,77.156,435.048,83.015,429.189z"/>
	</g>
</g>
<g>
</g>
<g>
</g>
<g>
</g>
<g>
</g>
<g>
</g>
<g>
</g>
<g>
</g>
<g>
</g>
<g>
</g>
<g>
</g>
<g>
</g>
<g>
</g>
<g>
</g>
<g>
</g>
<g>
</g>
</svg>
