<?xml version="1.0" encoding="iso-8859-1"?>
<!-- Generator: Adobe Illustrator 19.0.0, SVG Export Plug-In . SVG Version: 6.00 Build 0)  -->
<svg version="1.1" id="Capa_1" xmlns="http://www.w3.org/2000/svg" xmlns:xlink="http://www.w3.org/1999/xlink" x="0px" y="0px"
	 viewBox="0 0 512 512" style="enable-background:new 0 0 512 512;" xml:space="preserve">
<g>
	<g>
		<path d="M300,330.969v15c0,8.399-6.599,15-15,15H165c-8.401,0-15-6.601-15-15v-15H90v15c0,41.4,33.6,75,75,75h120
			c41.4,0,75-33.6,75-75v-15H300z"/>
	</g>
</g>
<g>
	<g>
		<path d="M21.599,182.468C11.7,177.669,0,184.869,0,195.969v120c0,11.1,11.7,18.3,21.599,13.5L60,310.268v-108.6L21.599,182.468z"
			/>
	</g>
</g>
<g>
	<g>
		<path d="M486.501,95.467L400.6,180.368c-19.801,19.801-47.199,30.601-75.399,30.601H300v-30h15c8.401,0,15-6.601,15-15
			c0-8.401-6.599-15-15-15H135c-8.401,0-15,6.599-15,15c0,8.399,6.599,15,15,15h15v30H90v90h235.201
			c28.2,0,55.598,10.8,75.399,30.599l85.901,84.901c9.3,9.6,25.499,3.001,25.499-10.499v-300
			C512,92.768,495.801,85.867,486.501,95.467z M210,210.969h-30v-30h30V210.969z M270,210.969h-30v-30h30V210.969z"/>
	</g>
</g>
<g>
</g>
<g>
</g>
<g>
</g>
<g>
</g>
<g>
</g>
<g>
</g>
<g>
</g>
<g>
</g>
<g>
</g>
<g>
</g>
<g>
</g>
<g>
</g>
<g>
</g>
<g>
</g>
<g>
</g>
</svg>
