<?xml version="1.0" encoding="iso-8859-1"?>
<!-- Generator: Adobe Illustrator 19.0.0, SVG Export Plug-In . SVG Version: 6.00 Build 0)  -->
<svg version="1.1" id="Capa_1" xmlns="http://www.w3.org/2000/svg" xmlns:xlink="http://www.w3.org/1999/xlink" x="0px" y="0px"
	 viewBox="0 0 512 512" style="enable-background:new 0 0 512 512;" xml:space="preserve">
<g>
	<g>
		<path d="M422,286h-61c-40.063,0-73.693,26.483-85.322,62.732c-12.823-3.386-26.532-3.386-39.355,0
			C224.694,312.481,191.063,286,151,286H90c-50.751,0-90,41.085-90,90c0,49.629,40.371,90,90,90h61
			c48.572,0,88.021-38.743,89.689-86.915c9.877-3.516,20.746-3.517,30.623-0.002C272.979,427.255,312.428,466,361,466h61
			c49.629,0,90-40.371,90-90C512,325.208,470.245,286,422,286z"/>
	</g>
</g>
<g>
	<g>
		<path d="M196,46h-19.307c-30.894,0-58.242,18.545-69.683,47.256L36.123,268.808c11.451-5.746,23.848-9.697,36.874-11.536
			l61.875-152.913C141.742,87.133,158.163,76,176.693,76H196c8.291,0,15-6.709,15-15S204.291,46,196,46z"/>
	</g>
</g>
<g>
	<g>
		<path d="M404.989,93.256C393.549,64.545,366.2,46,335.307,46H316c-8.291,0-15,6.709-15,15s6.709,15,15,15h19.307
			c18.53,0,34.951,11.133,41.821,28.359l61.936,153.056c13.01,1.902,25.459,5.878,36.947,11.719L404.989,93.256z"/>
	</g>
</g>
<g>
</g>
<g>
</g>
<g>
</g>
<g>
</g>
<g>
</g>
<g>
</g>
<g>
</g>
<g>
</g>
<g>
</g>
<g>
</g>
<g>
</g>
<g>
</g>
<g>
</g>
<g>
</g>
<g>
</g>
</svg>
