<?xml version="1.0" encoding="iso-8859-1"?>
<!-- Generator: Adobe Illustrator 19.0.0, SVG Export Plug-In . SVG Version: 6.00 Build 0)  -->
<svg version="1.1" id="Capa_1" xmlns="http://www.w3.org/2000/svg" xmlns:xlink="http://www.w3.org/1999/xlink" x="0px" y="0px"
	 viewBox="0 0 512 512" style="enable-background:new 0 0 512 512;" xml:space="preserve">
<g>
	<g>
		<path d="M453.81,396.537l-26.818-38.286l-78.871-39.439c-20.098-10.049-44.063-10.049-64.16,0l-36.182,18.091
			c-32.622,16.26-71.675,13.843-101.938-6.343c-10.14-6.753-21.57-10.428-33.276-11.497l-54.864,78.353
			c-14.092,23.481-14.443,51.724-0.952,75.542C70.227,496.776,94.631,512,122.009,512h268.066
			C447.634,512,485.05,448.437,453.81,396.537z M196.042,421c-8.284,0-15-6.716-15-15c0-8.286,6.716-15,15-15s15,6.714,15,15
			C211.042,414.284,204.326,421,196.042,421z M256.042,451c-8.284,0-15-6.716-15-15c0-8.286,6.716-15,15-15c8.284,0,15,6.714,15,15
			C271.042,444.284,264.326,451,256.042,451z M316.042,391c-8.284,0-15-6.716-15-15c0-8.286,6.716-15,15-15s15,6.714,15,15
			C331.042,384.284,324.326,391,316.042,391z"/>
	</g>
</g>
<g>
	<g>
		<path d="M331.042,220.269V87.437c17.461-6.196,30-22.881,30-42.437c0-24.814-20.186-45-45-45h-120c-24.814,0-45,20.186-45,45
			c0,19.556,12.539,36.24,30,42.437V90h45c8.291,0,15,6.709,15,15s-6.709,15-15,15h-45v30h45c8.291,0,15,6.709,15,15
			s-6.709,15-15,15h-45v30h45c8.291,0,15,6.709,15,15s-6.709,15-15,15h-58.815l-35.922,51.301
			c10.893,2.822,21.517,6.859,31.177,13.299c21.357,14.253,48.896,15.938,71.88,4.468l36.182-18.091
			c28.506-14.238,62.49-14.238,90.996,0l29.29,14.645L331.042,220.269z"/>
	</g>
</g>
<g>
</g>
<g>
</g>
<g>
</g>
<g>
</g>
<g>
</g>
<g>
</g>
<g>
</g>
<g>
</g>
<g>
</g>
<g>
</g>
<g>
</g>
<g>
</g>
<g>
</g>
<g>
</g>
<g>
</g>
</svg>
