<?xml version="1.0" encoding="iso-8859-1"?>
<!-- Generator: Adobe Illustrator 19.0.0, SVG Export Plug-In . SVG Version: 6.00 Build 0)  -->
<svg version="1.1" id="Capa_1" xmlns="http://www.w3.org/2000/svg" xmlns:xlink="http://www.w3.org/1999/xlink" x="0px" y="0px"
	 viewBox="0 0 512.001 512.001" style="enable-background:new 0 0 512.001 512.001;" xml:space="preserve">
<g>
	<g>
		<path d="M451.126,361.232H407.2c-19.913-38.181-41.764-80.028-62.252-119.196c-13.747,17.6-34.918,29.138-58.928,29.138h-23.44
			l46.517,90.058H271.01v-15.01c0-8.296-6.713-15.01-15.01-15.01c-8.296,0-15.01,6.713-15.01,15.01v15.01h-38.082l46.513-90.058
			h-23.44c-23.954,0-45.082-11.49-58.833-29.021l-62.186,119.078H60.875c-8.296,0-15.01,6.713-15.01,15.01s6.713,15.01,15.01,15.01
			h28.41l-1.103,2.11c-8.942,17.076-10.407,36.528-4.149,54.747c4.517,13.169,12.695,24.256,23.436,32.473l-4.85,9.39
			c-3.796,7.373-0.909,16.417,6.449,20.228c7.391,3.792,16.428,0.9,20.228-6.449l58.104-112.499h53.589v15.01
			c0,8.296,6.713,15.01,15.01,15.01c8.296,0,15.01-6.713,15.01-15.01v-15.01h53.591l58.175,112.631
			c3.8,7.349,12.836,10.243,20.228,6.449c7.359-3.811,10.246-12.855,6.449-20.228l-5.117-9.908
			c10.808-8.742,18.901-20.371,23.22-33.918c5.871-18.376,4.192-37.916-4.711-55.025h28.28c8.296,0,15.01-6.713,15.01-15.01
			S459.422,361.232,451.126,361.232z"/>
	</g>
</g>
<g>
	<g>
		<path d="M286.02,91.059h-60.039c-24.831,0-45.029,20.199-45.029,45.029v60.039c0,24.83,20.199,45.029,45.029,45.029h60.039
			c24.83,0,45.029-20.199,45.029-45.029v-60.039C331.049,111.258,310.85,91.059,286.02,91.059z M256,181.116
			c-8.289,0-15.01-6.72-15.01-15.01c0-8.291,6.72-15.01,15.01-15.01c8.289,0,15.01,6.718,15.01,15.01
			C271.01,174.396,264.29,181.116,256,181.116z"/>
	</g>
</g>
<g>
	<g>
		<path d="M256,0c-24.83,0-45.029,20.199-45.029,45.029v16.01h90.058v-16.01C301.029,20.199,280.83,0,256,0z"/>
	</g>
</g>
<g>
</g>
<g>
</g>
<g>
</g>
<g>
</g>
<g>
</g>
<g>
</g>
<g>
</g>
<g>
</g>
<g>
</g>
<g>
</g>
<g>
</g>
<g>
</g>
<g>
</g>
<g>
</g>
<g>
</g>
</svg>
