<?xml version="1.0" encoding="iso-8859-1"?>
<!-- Generator: Adobe Illustrator 19.0.0, SVG Export Plug-In . SVG Version: 6.00 Build 0)  -->
<svg version="1.1" id="Capa_1" xmlns="http://www.w3.org/2000/svg" xmlns:xlink="http://www.w3.org/1999/xlink" x="0px" y="0px"
	 viewBox="0 0 512 512" style="enable-background:new 0 0 512 512;" xml:space="preserve">
<g>
	<g>
		<path d="M497,465.996c-16.569,0-30-13.433-30-30c0-16.569,13.431-30,30-30c8.291,0,15-6.709,15-15c0-8.291-6.709-15-15-15
			c-52.423,0-384.317,0-437,0c-33.138,0-60,26.863-60,60c0,33.133,26.863,60,60,60c162.825,0,262.967,0,437,0
			c8.291,0,15-6.709,15-15C512,472.705,505.291,465.996,497,465.996z"/>
	</g>
</g>
<g>
	<g>
		<path d="M389.344,103.375C361.16,71.91,318.563,67.208,281.927,92.286c-4.559,3.124-9.461,5.109-14.469,6.451
			c-8.52-35.065-31.941-64.753-64.75-81.158c-7.397-3.677-16.421-0.703-20.127,6.709s-0.703,16.421,6.709,20.127
			c21.255,10.627,37.313,28.61,45.549,50.204c-1.577-0.84-3.256-1.296-4.768-2.333c-36.636-25.093-79.219-20.405-107.417,11.089
			c-25.267,28.242-37.074,74.706-31.566,124.277c5.464,49.102,26.254,91.498,54.131,118.345H366.78
			c27.878-26.847,48.668-69.243,54.131-118.345C426.419,178.082,414.612,131.617,389.344,103.375z"/>
	</g>
</g>
<g>
</g>
<g>
</g>
<g>
</g>
<g>
</g>
<g>
</g>
<g>
</g>
<g>
</g>
<g>
</g>
<g>
</g>
<g>
</g>
<g>
</g>
<g>
</g>
<g>
</g>
<g>
</g>
<g>
</g>
</svg>
