<?xml version="1.0" encoding="iso-8859-1"?>
<!-- Generator: Adobe Illustrator 19.0.0, SVG Export Plug-In . SVG Version: 6.00 Build 0)  -->
<svg version="1.1" id="Capa_1" xmlns="http://www.w3.org/2000/svg" xmlns:xlink="http://www.w3.org/1999/xlink" x="0px" y="0px"
	 viewBox="0 0 512 512" style="enable-background:new 0 0 512 512;" xml:space="preserve">
<g>
	<g>
		<path d="M0,271v195c0,24.814,20.186,46,45,46h196V271H0z M136,301c8.284,0,15,6.714,15,15c0,8.284-6.716,15-15,15s-15-6.716-15-15
			C121,307.714,127.716,301,136,301z M136,451c-8.284,0-15-6.716-15-15c0-8.286,6.716-15,15-15s15,6.714,15,15
			C151,444.284,144.284,451,136,451z M196,391H76c-8.291,0-15-6.709-15-15c0-8.291,6.709-15,15-15h120c8.291,0,15,6.709,15,15
			C211,384.291,204.291,391,196,391z"/>
	</g>
</g>
<g>
	<g>
		<path d="M45,0C20.186,0,0,20.186,0,45v196h241V0H45z M196,151h-45v45c0,8.291-6.709,15-15,15s-15-6.709-15-15v-45H76
			c-8.291,0-15-6.709-15-15s6.709-15,15-15h45V76c0-8.291,6.709-16,15-16s15,7.709,15,16v45h45c8.291,0,15,6.709,15,15
			S204.291,151,196,151z"/>
	</g>
</g>
<g>
	<g>
		<path d="M466,0H271v241h241V45C512,20.186,490.814,0,466,0z M436,151H316c-8.291,0-15-6.709-15-15s6.709-15,15-15h120
			c8.291,0,15,6.709,15,15S444.291,151,436,151z"/>
	</g>
</g>
<g>
	<g>
		<path d="M271,271v241h195c24.814,0,46-21.186,46-46V271H271z M446.606,425.395c5.859,5.859,5.859,15.352,0,21.211
			s-15.352,5.859-21.211,0L376,397.211l-49.395,49.395c-5.859,5.859-15.352,5.859-21.211,0s-5.859-15.352,0-21.211L354.789,376
			l-49.394-49.395c-5.859-5.859-5.859-15.352,0-21.211s15.352-5.859,21.211,0L376,354.789l49.395-49.395
			c5.859-5.859,15.352-5.859,21.211,0s5.859,15.352,0,21.211L397.211,376L446.606,425.395z"/>
	</g>
</g>
<g>
</g>
<g>
</g>
<g>
</g>
<g>
</g>
<g>
</g>
<g>
</g>
<g>
</g>
<g>
</g>
<g>
</g>
<g>
</g>
<g>
</g>
<g>
</g>
<g>
</g>
<g>
</g>
<g>
</g>
</svg>
