<?xml version="1.0" encoding="iso-8859-1"?>
<!-- Generator: Adobe Illustrator 19.0.0, SVG Export Plug-In . SVG Version: 6.00 Build 0)  -->
<svg version="1.1" id="Capa_1" xmlns="http://www.w3.org/2000/svg" xmlns:xlink="http://www.w3.org/1999/xlink" x="0px" y="0px"
	 viewBox="0 0 512 512" style="enable-background:new 0 0 512 512;" xml:space="preserve">
<g>
	<g>
		<rect x="361" y="272" width="30" height="30"/>
	</g>
</g>
<g>
	<g>
		<rect x="361" y="392" width="30" height="30"/>
	</g>
</g>
<g>
	<g>
		<rect x="241" y="272" width="30" height="30"/>
	</g>
</g>
<g>
	<g>
		<rect x="121" y="272" width="30" height="30"/>
	</g>
</g>
<g>
	<g>
		<rect x="241" y="392" width="30" height="30"/>
	</g>
</g>
<g>
	<g>
		<rect x="121" y="392" width="30" height="30"/>
	</g>
</g>
<g>
	<g>
		<path d="M436,0H76C51.186,0,31,20.186,31,45v422c0,24.814,20.186,45,45,45h360c24.814,0,45-20.186,45-45V45
			C481,20.186,460.814,0,436,0z M181,437c0,8.291-6.709,15-15,15h-60c-8.291,0-15-6.709-15-15v-60c0-8.291,6.709-15,15-15h60
			c8.291,0,15,6.709,15,15V437z M181,317c0,8.291-6.709,15-15,15h-60c-8.291,0-15-6.709-15-15v-60c0-8.291,6.709-15,15-15h60
			c8.291,0,15,6.709,15,15V317z M301,437c0,8.291-6.709,15-15,15h-60c-8.291,0-15-6.709-15-15v-60c0-8.291,6.709-15,15-15h60
			c8.291,0,15,6.709,15,15V437z M301,317c0,8.291-6.709,15-15,15h-60c-8.291,0-15-6.709-15-15v-60c0-8.291,6.709-15,15-15h60
			c8.291,0,15,6.709,15,15V317z M421,437c0,8.291-6.709,15-15,15h-60c-8.291,0-15-6.709-15-15v-60c0-8.291,6.709-15,15-15h60
			c8.291,0,15,6.709,15,15V437z M421,317c0,8.291-6.709,15-15,15h-60c-8.291,0-15-6.709-15-15v-60c0-8.291,6.709-15,15-15h60
			c8.291,0,15,6.709,15,15V317z M421,197c0,8.291-6.709,15-15,15H106c-8.291,0-15-6.709-15-15V75c0-8.291,6.709-15,15-15h300
			c8.291,0,15,6.709,15,15V197z"/>
	</g>
</g>
<g>
	<g>
		<path d="M121,90v92h270V90H121z M346,151h-30c-8.284,0-15-6.716-15-15s6.716-15,15-15h30c8.284,0,15,6.716,15,15
			S354.284,151,346,151z"/>
	</g>
</g>
<g>
</g>
<g>
</g>
<g>
</g>
<g>
</g>
<g>
</g>
<g>
</g>
<g>
</g>
<g>
</g>
<g>
</g>
<g>
</g>
<g>
</g>
<g>
</g>
<g>
</g>
<g>
</g>
<g>
</g>
</svg>
