<?xml version="1.0" encoding="iso-8859-1"?>
<!-- Generator: Adobe Illustrator 19.0.0, SVG Export Plug-In . SVG Version: 6.00 Build 0)  -->
<svg xmlns="http://www.w3.org/2000/svg" xmlns:xlink="http://www.w3.org/1999/xlink" version="1.1" id="Layer_1" x="0px" y="0px" viewBox="0 0 512 512" style="enable-background:new 0 0 512 512;" xml:space="preserve">
<g>
	<g>
		<g>
			<path d="M434.995,163.79C430.49,86.99,367.181,25.601,290.85,25.601c-46.327,0-91.196,22.724-118.997,59.793     c-0.631-0.333-1.314-0.555-1.954-0.87c-1.698-0.819-3.413-1.596-5.163-2.295c-0.973-0.384-1.946-0.734-2.935-1.075     c-1.732-0.606-3.49-1.135-5.282-1.621c-0.973-0.265-1.946-0.538-2.944-0.768c-1.92-0.435-3.883-0.768-5.854-1.058     c-0.862-0.128-1.707-0.29-2.577-0.393c-2.833-0.316-5.692-0.512-8.61-0.512c-42.342,0-76.8,34.449-76.8,76.8     c0,1.101,0.068,2.176,0.145,3.251C24.388,176.197,0,216.739,0,257.315c0,47.445,25.566,88.32,65.109,104.132     c1.033,0.418,2.108,0.606,3.166,0.606c3.388,0,6.596-2.022,7.927-5.367c1.749-4.369-0.384-9.336-4.762-11.085     c-33.033-13.21-54.374-47.872-54.374-88.286c0-35.447,23.083-72.243,54.895-87.492l4.838-2.313v-5.376     c0-1.024,0.068-2.074,0.128-3.123l0.094-1.57l-0.111-1.655c-0.051-0.725-0.111-1.451-0.111-2.185     c0-32.939,26.803-59.733,59.733-59.733c2.637,0,5.248,0.23,7.825,0.572c0.674,0.085,1.331,0.196,1.997,0.299     c2.27,0.384,4.523,0.87,6.733,1.51c0.29,0.085,0.597,0.145,0.896,0.23c2.432,0.742,4.804,1.69,7.125,2.739     c0.606,0.273,1.195,0.563,1.783,0.862c2.057,1.007,4.062,2.125,5.99,3.379c16.452,10.658,27.383,29.133,27.383,50.142     c0,4.71,3.823,8.533,8.533,8.533c4.719,0,8.533-3.823,8.533-8.533c0-23.501-10.633-44.535-27.307-58.633     c24.457-32,64.751-52.301,104.823-52.301c66.091,0,120.994,52.344,126.72,118.502c-8.721-0.606-21.786-0.922-34.85,1.058     c-4.659,0.708-7.859,5.06-7.151,9.719c0.64,4.224,4.275,7.253,8.422,7.253c0.427,0,0.862-0.034,1.297-0.102     c19.004-2.867,38.818-0.179,39.97-0.017c39.731,7.561,69.675,44.16,69.675,85.205c0,35.482-21.845,68.122-54.383,81.22     c-4.361,1.758-6.477,6.733-4.719,11.11c1.766,4.369,6.724,6.451,11.102,4.719C485.854,345.661,512,306.663,512,264.287     C512,217.456,479.343,175.438,434.995,163.79z"/>
			<path d="M256.003,247.466c-109.099,0-162.133,13.96-162.133,42.667v76.8v76.8c0,28.706,53.035,42.667,162.133,42.667     s162.133-13.961,162.133-42.667v-76.8v-76.8C418.137,261.426,365.102,247.466,256.003,247.466z M401.07,366.932     c0,1.041-1.647,25.6-145.067,25.6s-145.067-24.559-145.067-25.6v-53.367c1.613,0.888,3.371,1.732,5.205,2.552     c0.35,0.154,0.742,0.307,1.109,0.461c1.971,0.845,4.087,1.655,6.306,2.441c0.614,0.213,1.203,0.418,1.826,0.631     c2.628,0.87,5.393,1.707,8.346,2.492c0.427,0.12,0.887,0.213,1.323,0.324c2.654,0.683,5.444,1.323,8.354,1.946     c0.811,0.171,1.63,0.341,2.475,0.503c3.371,0.674,6.869,1.314,10.581,1.903c0.461,0.077,0.956,0.128,1.434,0.205     c3.354,0.521,6.886,0.99,10.513,1.434c1.024,0.128,2.065,0.256,3.123,0.375c4.13,0.478,8.388,0.922,12.86,1.314     c0.418,0.034,0.87,0.06,1.297,0.102c4.156,0.35,8.499,0.657,12.945,0.93c1.229,0.077,2.458,0.154,3.712,0.23     c4.924,0.282,9.958,0.529,15.232,0.725c0.256,0.017,0.546,0.017,0.811,0.034c5.043,0.171,10.283,0.307,15.642,0.418     c1.459,0.017,2.935,0.043,4.412,0.068c5.7,0.085,11.511,0.145,17.562,0.145c6.05,0,11.861-0.06,17.562-0.145     c1.476-0.026,2.953-0.051,4.412-0.068c5.359-0.111,10.598-0.247,15.642-0.418c0.265-0.017,0.555-0.017,0.811-0.034     c5.274-0.196,10.308-0.444,15.232-0.725c1.254-0.077,2.483-0.154,3.712-0.23c4.446-0.273,8.789-0.58,12.945-0.93     c0.427-0.043,0.879-0.068,1.297-0.102c4.471-0.393,8.73-0.836,12.86-1.314c1.058-0.119,2.099-0.247,3.123-0.375     c3.627-0.444,7.159-0.913,10.513-1.434c0.478-0.077,0.973-0.128,1.434-0.205c3.712-0.589,7.211-1.229,10.581-1.903     c0.845-0.162,1.664-0.333,2.475-0.503c2.91-0.623,5.7-1.263,8.354-1.946c0.435-0.111,0.896-0.205,1.323-0.324     c2.953-0.785,5.717-1.621,8.346-2.492c0.623-0.213,1.212-0.418,1.826-0.631c2.219-0.785,4.335-1.596,6.306-2.441     c0.367-0.154,0.759-0.307,1.109-0.461c1.835-0.819,3.593-1.664,5.205-2.552V366.932z"/>
		</g>
	</g>
</g>
<g>
</g>
<g>
</g>
<g>
</g>
<g>
</g>
<g>
</g>
<g>
</g>
<g>
</g>
<g>
</g>
<g>
</g>
<g>
</g>
<g>
</g>
<g>
</g>
<g>
</g>
<g>
</g>
<g>
</g>
</svg>
