<?xml version="1.0" encoding="iso-8859-1"?>
<!-- Generator: Adobe Illustrator 19.0.0, SVG Export Plug-In . SVG Version: 6.00 Build 0)  -->
<svg xmlns="http://www.w3.org/2000/svg" xmlns:xlink="http://www.w3.org/1999/xlink" version="1.1" id="Layer_1" x="0px" y="0px" viewBox="0 0 512.002 512.002" style="enable-background:new 0 0 512.002 512.002;" xml:space="preserve">
<g>
	<g>
		<g>
			<path d="M472.551,426.018c0.597-0.239,1.075-0.657,1.596-1.024c0.358-0.247,0.776-0.393,1.101-0.708     c0.017-0.017,0.026-0.051,0.043-0.068c0.666-0.648,1.161-1.442,1.587-2.287c0.077-0.154,0.23-0.282,0.307-0.444     c0.119-0.273,0.102-0.606,0.179-0.887c0.247-0.785,0.478-1.562,0.486-2.381c0-0.026,0.017-0.051,0.017-0.085v-42.667     c0-4.719-3.814-8.533-8.533-8.533s-8.533,3.814-8.533,8.533v21.487L276.046,204.8h69.999c35.046,0,63.556-28.467,63.556-63.454     c0-27.793-19.072-52.821-45.338-60.8C360.253,35.558,322.168,0,276.438,0c-27.281,0-53.726,12.732-70.776,33.664     c-6.178-2.714-12.86-4.122-19.695-4.122c-26.692,0-48.427,21.385-48.546,47.71c-20.856,12.169-35.021,36.105-35.021,60.075     c0,36.574,31.403,67.473,68.557,67.473h64.998L51.201,396.954v-21.487c0-4.719-3.814-8.533-8.533-8.533s-8.533,3.814-8.533,8.533     v42.667c0,0.034,0.017,0.06,0.017,0.085c0.009,0.828,0.239,1.613,0.486,2.415c0.085,0.265,0.068,0.589,0.179,0.853     c0.077,0.171,0.239,0.307,0.324,0.469c0.427,0.828,0.913,1.621,1.57,2.261c0.017,0.017,0.026,0.051,0.043,0.068     c0.333,0.316,0.742,0.461,1.109,0.717c0.512,0.358,0.99,0.777,1.587,1.016c1.033,0.427,2.125,0.648,3.217,0.648h42.667     c4.719,0,8.533-3.814,8.533-8.533s-3.814-8.533-8.533-8.533H62.712l184.755-192.145v180.079l-19.567-19.567     c-3.337-3.328-8.73-3.328-12.066,0c-3.337,3.336-3.337,8.738,0,12.066l34.125,34.125c0.785,0.794,1.732,1.417,2.782,1.852     c1.041,0.435,2.15,0.657,3.26,0.657s2.219-0.222,3.26-0.657c1.05-0.435,1.997-1.058,2.782-1.852l34.125-34.125     c3.336-3.328,3.336-8.73,0-12.066c-3.337-3.328-8.73-3.328-12.066,0l-19.567,19.567V217.455L449.289,409.6h-22.622     c-4.719,0-8.533,3.814-8.533,8.533s3.814,8.533,8.533,8.533h42.667C470.426,426.667,471.519,426.445,472.551,426.018z"/>
			<path d="M281.601,443.735h-51.2c-4.719,0-8.533,3.814-8.533,8.533v51.2c0,4.719,3.814,8.533,8.533,8.533h51.2     c4.719,0,8.533-3.814,8.533-8.533v-51.2C290.134,447.549,286.32,443.735,281.601,443.735z"/>
			<path d="M503.468,443.735h-51.2c-4.719,0-8.533,3.814-8.533,8.533v51.2c0,4.719,3.814,8.533,8.533,8.533h51.2     c4.719,0,8.533-3.814,8.533-8.533v-51.2C512.001,447.549,508.187,443.735,503.468,443.735z"/>
			<path d="M59.734,443.735h-51.2c-4.719,0-8.533,3.814-8.533,8.533v51.2c0,4.719,3.814,8.533,8.533,8.533h51.2     c4.719,0,8.533-3.814,8.533-8.533v-51.2C68.268,447.549,64.453,443.735,59.734,443.735z"/>
		</g>
	</g>
</g>
<g>
</g>
<g>
</g>
<g>
</g>
<g>
</g>
<g>
</g>
<g>
</g>
<g>
</g>
<g>
</g>
<g>
</g>
<g>
</g>
<g>
</g>
<g>
</g>
<g>
</g>
<g>
</g>
<g>
</g>
</svg>
