<?xml version="1.0" encoding="iso-8859-1"?>
<!-- Generator: Adobe Illustrator 19.0.0, SVG Export Plug-In . SVG Version: 6.00 Build 0)  -->
<svg xmlns="http://www.w3.org/2000/svg" xmlns:xlink="http://www.w3.org/1999/xlink" version="1.1" id="Layer_1" x="0px" y="0px" viewBox="0 0 512 512" style="enable-background:new 0 0 512 512;" xml:space="preserve">
<g>
	<g>
		<g>
			<polygon points="162.133,51.2 162.133,68.267 179.209,68.267 179.2,51.2    "/>
			<polygon points="247.467,51.2 230.4,51.2 230.4,68.267 247.475,68.267    "/>
			<path d="M264.533,349.935v-25.668h76.211c33.263,0,60.322-26.223,60.322-58.462c0-25.515-17.954-48.478-42.735-55.919     c-4.079-41.02-40.004-73.353-83.106-73.353c-3.584,0-7.151,0.282-10.692,0.717v-17.783h102.4     c18.825,0,34.133-15.309,34.133-34.133v-51.2C401.067,15.309,385.758,0,366.933,0H145.067c-18.825,0-34.133,15.309-34.133,34.133     v51.2c0,18.825,15.309,34.133,34.133,34.133h102.4v21.615c-15.121,5.035-28.783,14.029-38.946,25.993     c-5.786-2.423-12.041-3.686-18.432-3.686c-25.224,0-45.79,19.507-46.191,43.622c-19.644,11.238-32.964,33.169-32.964,55.142     c0,33.664,29.781,62.114,65.033,62.114h71.501v25.668c-103.228,0.734-153.6,14.669-153.6,42.598v76.8     C93.867,498.039,146.901,512,256,512s162.133-13.961,162.133-42.667v-76.8C418.133,364.604,367.761,350.669,264.533,349.935z      M290.133,51.2h59.733c4.71,0,8.533,3.814,8.533,8.533s-3.823,8.533-8.533,8.533h-59.733c-4.71,0-8.533-3.814-8.533-8.533     S285.423,51.2,290.133,51.2z M196.267,68.267c0,9.412-7.654,17.067-17.067,17.067h-17.067c-9.412,0-17.067-7.654-17.067-17.067     V51.2c0-9.412,7.654-17.067,17.067-17.067H179.2c9.412,0,17.067,7.654,17.067,17.067V68.267z M230.4,85.333     c-9.412,0-17.067-7.654-17.067-17.067V51.2c0-9.412,7.654-17.067,17.067-17.067h17.067c9.412,0,17.067,7.654,17.067,17.067     v17.067c0,9.412-7.654,17.067-17.067,17.067H230.4z M175.966,307.2c-26.001,0-47.966-20.634-47.966-45.047     c0-17.05,11.759-34.782,27.964-42.172c3.038-1.391,4.992-4.42,4.992-7.765c0-0.495,0.034-1.015,0.094-1.971     c0.017-0.316,0.017-0.64,0-0.956c0-0.034-0.085-1.51-0.094-1.553c0-15.044,13.073-27.281,29.133-27.281     c5.82,0,11.443,1.613,16.265,4.659c0.256,0.171,0.546,0.188,0.811,0.316c0.145,0.077,0.23,0.205,0.375,0.273     c10.18,4.48,16.759,14.182,16.759,24.704c0,4.719,3.823,8.533,8.533,8.533c4.71,0,8.533-3.814,8.533-8.533     c0-13.679-6.699-26.385-17.587-34.688c12.928-13.628,32.205-22.118,51.447-22.118c32.836,0,60.356,23.432,65.485,53.854     c-4.489-0.119-9.873,0-15.317,0.794c-4.659,0.674-7.893,5-7.219,9.668c0.614,4.25,4.267,7.313,8.431,7.313     c0.41,0,0.828-0.026,1.237-0.094c9.574-1.382,19.601-0.196,20.898-0.026c20.104,3.635,35.26,21.112,35.26,40.695     c0,22.434-19.806,41.395-43.255,41.395H175.966z M256,418.133c-143.42,0-145.067-24.559-145.067-25.6     c0-1.041,1.647-25.6,145.067-25.6s145.067,24.559,145.067,25.6C401.067,393.574,399.42,418.133,256,418.133z"/>
		</g>
	</g>
</g>
<g>
</g>
<g>
</g>
<g>
</g>
<g>
</g>
<g>
</g>
<g>
</g>
<g>
</g>
<g>
</g>
<g>
</g>
<g>
</g>
<g>
</g>
<g>
</g>
<g>
</g>
<g>
</g>
<g>
</g>
</svg>
