<?xml version="1.0" encoding="iso-8859-1"?>
<!-- Generator: Adobe Illustrator 19.0.0, SVG Export Plug-In . SVG Version: 6.00 Build 0)  -->
<svg xmlns="http://www.w3.org/2000/svg" xmlns:xlink="http://www.w3.org/1999/xlink" version="1.1" id="Layer_1" x="0px" y="0px" viewBox="0 0 512 512" style="enable-background:new 0 0 512 512;" xml:space="preserve">
<g>
	<g>
		<g>
			<polygon points="230.4,443.733 230.4,460.8 247.475,460.8 247.467,443.733    "/>
			<polygon points="162.133,443.733 162.133,460.8 179.209,460.8 179.2,443.733    "/>
			<polygon points="230.4,51.2 230.4,68.267 247.475,68.267 247.467,51.2    "/>
			<polygon points="162.133,51.2 162.133,68.267 179.209,68.267 179.2,51.2    "/>
			<path d="M366.933,119.467c18.825,0,34.133-15.309,34.133-34.133v-51.2C401.067,15.309,385.758,0,366.933,0H145.067     c-18.825,0-34.133,15.309-34.133,34.133v51.2c0,18.825,15.309,34.133,34.133,34.133h102.4v47.215     c-15.121,5.035-28.783,14.029-38.946,25.992c-5.786-2.423-12.041-3.686-18.432-3.686c-25.224,0-45.79,19.507-46.191,43.622     c-19.644,11.238-32.964,33.169-32.964,55.142c0,33.664,29.781,62.114,65.033,62.114h71.501v42.667h-102.4     c-18.825,0-34.133,15.309-34.133,34.133v51.2c0,18.825,15.309,34.133,34.133,34.133h221.867     c18.825,0,34.133-15.309,34.133-34.133v-51.2c0-18.825-15.309-34.133-34.133-34.133h-102.4v-42.667h76.211     c33.263,0,60.322-26.223,60.322-58.462c0-25.515-17.954-48.478-42.735-55.919c-4.079-41.02-40.004-73.353-83.106-73.353     c-3.584,0-7.151,0.282-10.692,0.717v-43.383H366.933z M290.133,443.733h59.733c4.71,0,8.533,3.814,8.533,8.533     c0,4.719-3.823,8.533-8.533,8.533h-59.733c-4.71,0-8.533-3.814-8.533-8.533C281.6,447.548,285.423,443.733,290.133,443.733z      M290.133,51.2h59.733c4.71,0,8.533,3.814,8.533,8.533s-3.823,8.533-8.533,8.533h-59.733c-4.71,0-8.533-3.814-8.533-8.533     S285.423,51.2,290.133,51.2z M196.267,68.267c0,9.412-7.654,17.067-17.067,17.067h-17.067c-9.412,0-17.067-7.654-17.067-17.067     V51.2c0-9.412,7.654-17.067,17.067-17.067H179.2c9.412,0,17.067,7.654,17.067,17.067V68.267z M196.267,460.8     c0,9.412-7.654,17.067-17.067,17.067h-17.067c-9.412,0-17.067-7.654-17.067-17.067v-17.067c0-9.412,7.654-17.067,17.067-17.067     H179.2c9.412,0,17.067,7.654,17.067,17.067V460.8z M264.533,460.8c0,9.412-7.654,17.067-17.067,17.067H230.4     c-9.412,0-17.067-7.654-17.067-17.067v-17.067c0-9.412,7.654-17.067,17.067-17.067h17.067c9.412,0,17.067,7.654,17.067,17.067     V460.8z M275.226,179.2c32.836,0,60.356,23.433,65.485,53.854c-4.489-0.119-9.873,0-15.317,0.794     c-4.659,0.674-7.893,5.001-7.219,9.668c0.614,4.25,4.267,7.313,8.431,7.313c0.41,0,0.828-0.026,1.237-0.094     c9.6-1.382,19.644-0.179,20.907-0.017C368.853,254.353,384,271.821,384,291.405c0,22.434-19.806,41.395-43.255,41.395H175.966     c-26.001,0-47.966-20.634-47.966-45.047c0-17.05,11.759-34.782,27.964-42.172c3.038-1.391,4.992-4.42,4.992-7.765     c0-0.495,0.034-1.016,0.094-1.971c0.017-0.316,0.017-0.64,0-0.956c0-0.034-0.085-1.51-0.094-1.553     c0-15.044,13.073-27.281,29.133-27.281c5.82,0,11.443,1.613,16.265,4.659c0.256,0.171,0.546,0.188,0.811,0.316     c0.145,0.077,0.23,0.205,0.375,0.273c10.18,4.48,16.759,14.182,16.759,24.704c0,4.719,3.823,8.533,8.533,8.533     c4.71,0,8.533-3.814,8.533-8.533c0-13.679-6.699-26.385-17.587-34.688C236.706,187.691,255.983,179.2,275.226,179.2z      M247.467,85.333H230.4c-9.412,0-17.067-7.654-17.067-17.067V51.2c0-9.412,7.654-17.067,17.067-17.067h17.067     c9.412,0,17.067,7.654,17.067,17.067v17.067C264.533,77.679,256.879,85.333,247.467,85.333z"/>
		</g>
	</g>
</g>
<g>
</g>
<g>
</g>
<g>
</g>
<g>
</g>
<g>
</g>
<g>
</g>
<g>
</g>
<g>
</g>
<g>
</g>
<g>
</g>
<g>
</g>
<g>
</g>
<g>
</g>
<g>
</g>
<g>
</g>
</svg>
