<?xml version="1.0" encoding="iso-8859-1"?>
<!-- Generator: Adobe Illustrator 19.0.0, SVG Export Plug-In . SVG Version: 6.00 Build 0)  -->
<svg xmlns="http://www.w3.org/2000/svg" xmlns:xlink="http://www.w3.org/1999/xlink" version="1.1" id="Layer_1" x="0px" y="0px" viewBox="0 0 512.003 512.003" style="enable-background:new 0 0 512.003 512.003;" xml:space="preserve">
<g>
	<g>
		<g>
			<polygon points="358.403,443.735 358.403,460.802 375.479,460.802 375.47,443.735    "/>
			<path d="M477.87,392.535h-76.8V196.268h50.697c33.212,0,60.237-27.349,60.237-60.962c0-26.573-17.911-50.509-42.633-58.291     C465.48,33.981,429.52,0.002,386.359,0.002c-25.668,0-50.551,12.092-66.679,31.991c-5.752-2.492-11.972-3.789-18.321-3.789     c-25.31,0-45.926,20.48-46.14,45.747c-16.154,9.668-27.887,26.923-31.565,45.517h-95.65c-14.114,0-25.6,11.486-25.6,25.6v128     h-76.8c-14.114,0-25.6,11.486-25.6,25.6v110.933H221.87V298.668c0-14.114-11.486-25.6-25.6-25.6h-76.8v-128     c0-4.71,3.831-8.533,8.533-8.533h94.583c2.697,32.862,31.181,59.733,64.674,59.733h96.742v196.267H273.07     c-18.825,0-34.133,15.309-34.133,34.133v51.2c0,18.825,15.309,34.133,34.133,34.133h204.8c18.825,0,34.133-15.309,34.133-34.133     v-51.2C512.003,407.844,496.695,392.535,477.87,392.535z M324.27,460.802c0,9.412-7.654,17.067-17.067,17.067h-17.067     c-9.412,0-17.067-7.654-17.067-17.067v-17.067c0-9.412,7.654-17.067,17.067-17.067h17.067c9.412,0,17.067,7.654,17.067,17.067     V460.802z M392.537,460.802c0,9.412-7.654,17.067-17.067,17.067h-17.067c-9.412,0-17.067-7.654-17.067-17.067v-17.067     c0-9.412,7.654-17.067,17.067-17.067h17.067c9.412,0,17.067,7.654,17.067,17.067V460.802z M460.803,460.802h-42.667     c-4.71,0-8.533-3.814-8.533-8.533c0-4.719,3.823-8.533,8.533-8.533h42.667c4.71,0,8.533,3.814,8.533,8.533     C469.337,456.987,465.514,460.802,460.803,460.802z"/>
			<polygon points="290.137,443.735 290.137,460.802 307.212,460.802 307.203,443.735    "/>
			<path d="M0,435.198c0,14.123,11.486,25.6,25.6,25.6h43.793l-15.061,22.596c-3.772,5.658-4.122,12.902-0.913,18.893     c3.208,5.99,9.421,9.711,16.222,9.711h82.688c6.775,0,12.979-3.712,16.179-9.685c3.2-5.99,2.85-13.201-0.913-18.842     l-15.112-22.673h43.784c14.123,0,25.6-11.477,25.6-25.6v-8.533H0V435.198z M131.968,460.798l21.427,32.136     c0.102,0.162,0.427,0.64,0.06,1.314c-0.358,0.683-0.939,0.683-1.126,0.683H69.641c-0.196,0-0.802,0-1.178-0.708     c-0.375-0.7-0.043-1.195,0.068-1.365l21.376-32.06H131.968z"/>
		</g>
	</g>
</g>
<g>
</g>
<g>
</g>
<g>
</g>
<g>
</g>
<g>
</g>
<g>
</g>
<g>
</g>
<g>
</g>
<g>
</g>
<g>
</g>
<g>
</g>
<g>
</g>
<g>
</g>
<g>
</g>
<g>
</g>
</svg>
