<?xml version="1.0" encoding="iso-8859-1"?>
<!-- Generator: Adobe Illustrator 19.0.0, SVG Export Plug-In . SVG Version: 6.00 Build 0)  -->
<svg xmlns="http://www.w3.org/2000/svg" xmlns:xlink="http://www.w3.org/1999/xlink" version="1.1" id="Layer_1" x="0px" y="0px" viewBox="0 0 512.003 512.003" style="enable-background:new 0 0 512.003 512.003;" xml:space="preserve">
<g>
	<g>
		<g>
			<path d="M498.538,460.802h-3.601V341.335c0-18.825-15.309-34.133-34.133-34.133H396.07L285.136,196.268h64.23     c33.22,0,60.237-27.349,60.237-60.962c0-26.573-17.911-50.509-42.624-58.291c-3.9-43.034-39.851-77.013-83.021-77.013     c-25.668,0-50.551,12.092-66.679,31.991c-5.76-2.492-11.972-3.789-18.33-3.789c-25.301,0-45.918,20.48-46.131,45.747     c-19.601,11.725-32.896,34.611-32.896,57.515c0,35.123,29.73,64.802,64.93,64.802h59.085l-76.8,76.8H25.603     c-14.114,0-25.6,11.486-25.6,25.6v110.933H221.87V298.668c0-14.114-11.486-25.6-25.6-25.6h-5.001l73.267-73.267l107.401,107.401     h-81.801c-18.825,0-34.133,15.309-34.133,34.133v119.467h-3.601c-7.424,0-13.466,6.042-13.466,13.466v24.269     c0,7.424,6.042,13.466,13.466,13.466h246.135c7.424,0,13.466-6.042,13.466-13.466v-24.269     C512.003,466.843,505.962,460.802,498.538,460.802z M290.137,349.868c0-4.719,3.814-8.533,8.533-8.533h153.6     c4.719,0,8.533,3.814,8.533,8.533v85.333c0,4.719-3.814,8.533-8.533,8.533h-153.6c-4.719,0-8.533-3.814-8.533-8.533V349.868z      M494.937,494.935H256.003v-17.067h72.61c3.959,5.265,10.223,8.533,16.99,8.533h68.267c6.767,0,13.03-3.268,16.99-8.533h64.077     V494.935z"/>
			<rect x="307.203" y="358.402" width="136.533" height="68.267"/>
			<path d="M0,435.198c0,14.123,11.486,25.6,25.6,25.6h43.785l-15.053,22.596c-3.772,5.666-4.122,12.902-0.913,18.893     c3.208,5.99,9.429,9.711,16.222,9.711h82.688c6.784,0,12.979-3.712,16.179-9.685c3.2-5.982,2.842-13.201-0.913-18.842     l-15.104-22.673h43.776c14.123,0,25.6-11.477,25.6-25.6v-8.533H0V435.198z M131.968,460.798l21.427,32.136     c0.111,0.162,0.427,0.64,0.068,1.323c-0.367,0.674-0.947,0.674-1.135,0.674H69.641c-0.205,0-0.794,0-1.169-0.7     c-0.384-0.708-0.051-1.212,0.06-1.374l21.376-32.06H131.968z"/>
		</g>
	</g>
</g>
<g>
</g>
<g>
</g>
<g>
</g>
<g>
</g>
<g>
</g>
<g>
</g>
<g>
</g>
<g>
</g>
<g>
</g>
<g>
</g>
<g>
</g>
<g>
</g>
<g>
</g>
<g>
</g>
<g>
</g>
</svg>
