<?xml version="1.0" encoding="iso-8859-1"?>
<!-- Generator: Adobe Illustrator 19.0.0, SVG Export Plug-In . SVG Version: 6.00 Build 0)  -->
<svg xmlns="http://www.w3.org/2000/svg" xmlns:xlink="http://www.w3.org/1999/xlink" version="1.1" id="Layer_1" x="0px" y="0px" viewBox="0 0 512 512" style="enable-background:new 0 0 512 512;" xml:space="preserve">
<g>
	<g>
		<g>
			<polygon points="209.067,443.733 209.067,460.8 226.15,460.8 226.133,443.733    "/>
			<polygon points="140.8,443.733 140.8,460.8 157.884,460.8 157.867,443.733    "/>
			<path d="M494.268,273.067h-3.601V153.6c0-18.825-15.309-34.133-34.133-34.133H285.867c-18.825,0-34.133,15.309-34.133,34.133     v119.467h-3.601c-7.424,0-13.466,6.042-13.466,13.466v24.269c0,7.424,6.042,13.466,13.466,13.466h216.934V435.2     c0,4.71-3.823,8.533-8.533,8.533h-25.6v-17.067c0-18.825-15.309-34.133-34.133-34.133H123.733     c-18.825,0-34.133,15.309-34.133,34.133v17.067H46.933c-4.71,0-8.533-3.823-8.533-8.533V187.733h35.251L58.59,210.321     c-3.763,5.675-4.113,12.902-0.905,18.893c3.209,5.99,9.421,9.719,16.213,9.719h82.697c6.784,0,12.971-3.721,16.171-9.694     c3.2-5.973,2.85-13.201-0.905-18.842l-15.113-22.665h43.785c14.114,0,25.6-11.486,25.6-25.6V153.6H4.267v8.533     c0,11.11,7.159,20.489,17.067,24.021V435.2c0,14.114,11.486,25.6,25.6,25.6H89.6v17.067c0,18.825,15.309,34.133,34.133,34.133     H396.8c18.825,0,34.133-15.309,34.133-34.133V460.8h25.6c14.114,0,25.6-11.486,25.6-25.6V324.267h12.134     c7.424,0,13.466-6.042,13.466-13.466v-24.269C507.733,279.108,501.692,273.067,494.268,273.067z M136.235,187.733l21.427,32.137     c0.102,0.154,0.418,0.64,0.06,1.323c-0.367,0.674-0.939,0.674-1.126,0.674H73.899c-0.196,0-0.794,0-1.169-0.7     c-0.375-0.708-0.043-1.22,0.06-1.374l21.376-32.06H136.235z M174.933,460.8c0,9.412-7.654,17.067-17.067,17.067H140.8     c-9.412,0-17.067-7.654-17.067-17.067v-17.067c0-9.412,7.654-17.067,17.067-17.067h17.067c9.412,0,17.067,7.654,17.067,17.067     V460.8z M243.2,460.8c0,9.412-7.654,17.067-17.067,17.067h-17.067c-9.412,0-17.067-7.654-17.067-17.067v-17.067     c0-9.412,7.654-17.067,17.067-17.067h17.067c9.412,0,17.067,7.654,17.067,17.067V460.8z M379.733,460.8H268.8     c-4.719,0-8.533-3.814-8.533-8.533c0-4.719,3.814-8.533,8.533-8.533h110.933c4.719,0,8.533,3.814,8.533,8.533     C388.267,456.986,384.452,460.8,379.733,460.8z M285.867,162.133c0-4.719,3.814-8.533,8.533-8.533H448     c4.719,0,8.533,3.814,8.533,8.533v85.333c0,4.719-3.814,8.533-8.533,8.533H294.4c-4.719,0-8.533-3.814-8.533-8.533V162.133z      M490.667,307.2H251.733v-17.067h72.61c3.959,5.265,10.223,8.533,16.99,8.533H409.6c6.767,0,13.03-3.268,16.99-8.533h64.077     V307.2z"/>
			<rect x="302.933" y="170.667" width="136.533" height="68.267"/>
			<path d="M226.133,25.6c0-14.114-11.486-25.6-25.6-25.6H29.867c-14.114,0-25.6,11.486-25.6,25.6v110.933h221.867V25.6z"/>
		</g>
	</g>
</g>
<g>
</g>
<g>
</g>
<g>
</g>
<g>
</g>
<g>
</g>
<g>
</g>
<g>
</g>
<g>
</g>
<g>
</g>
<g>
</g>
<g>
</g>
<g>
</g>
<g>
</g>
<g>
</g>
<g>
</g>
</svg>
