<?xml version="1.0" encoding="iso-8859-1"?>
<!-- Generator: Adobe Illustrator 19.0.0, SVG Export Plug-In . SVG Version: 6.00 Build 0)  -->
<svg xmlns="http://www.w3.org/2000/svg" xmlns:xlink="http://www.w3.org/1999/xlink" version="1.1" id="Layer_1" x="0px" y="0px" viewBox="0 0 512 512" style="enable-background:new 0 0 512 512;" xml:space="preserve">
<g>
	<g>
		<g>
			<rect x="51.2" y="162.133" width="68.267" height="17.067"/>
			<path d="M145.067,110.933H25.6c-14.114,0-25.6,11.486-25.6,25.6V230.4h170.667v-93.867     C170.667,122.419,159.181,110.933,145.067,110.933z M136.533,187.733c0,4.719-3.823,8.533-8.533,8.533H42.667     c-4.71,0-8.533-3.814-8.533-8.533V153.6c0-4.719,3.823-8.533,8.533-8.533H128c4.71,0,8.533,3.814,8.533,8.533V187.733z"/>
			<rect y="247.467" width="170.667" height="34.133"/>
			<path d="M0,375.467c0,14.114,11.486,25.6,25.6,25.6h119.467c14.114,0,25.6-11.486,25.6-25.6v-76.8H0V375.467z M119.467,341.333     c4.71,0,8.533,3.814,8.533,8.533c0,4.719-3.823,8.533-8.533,8.533s-8.533-3.814-8.533-8.533     C110.933,345.148,114.756,341.333,119.467,341.333z M51.2,341.333c4.71,0,8.533,3.814,8.533,8.533     c0,4.719-3.823,8.533-8.533,8.533s-8.533-3.814-8.533-8.533C42.667,345.148,46.49,341.333,51.2,341.333z"/>
			<path d="M486.4,110.933h-256c-14.114,0-25.6,11.486-25.6,25.6v162.133H512V136.533C512,122.419,500.514,110.933,486.4,110.933z      M313.856,250.667c2.953,3.678,2.355,9.054-1.323,11.989c-1.57,1.271-3.456,1.877-5.333,1.877c-2.492,0-4.975-1.092-6.656-3.2     l-34.133-42.607c-2.5-3.115-2.5-7.543-0.008-10.658l34.133-42.726c2.935-3.695,8.311-4.292,11.989-1.34     c3.686,2.935,4.284,8.303,1.34,11.989l-29.867,37.393L313.856,250.667z M341.333,264.533c-4.71,0-8.533-3.814-8.533-8.533     c0-4.719,3.823-8.533,8.533-8.533s8.533,3.814,8.533,8.533C349.867,260.719,346.044,264.533,341.333,264.533z M349.867,221.867     c0,4.719-3.823,8.533-8.533,8.533s-8.533-3.814-8.533-8.533v-51.2c0-4.719,3.823-8.533,8.533-8.533s8.533,3.814,8.533,8.533     V221.867z M392.533,264.533h-17.067c-4.71,0-8.533-3.814-8.533-8.533c0-4.719,3.823-8.533,8.533-8.533h17.067     c4.71,0,8.533,3.814,8.533,8.533C401.067,260.719,397.244,264.533,392.533,264.533z M443.733,264.533h-17.067     c-4.71,0-8.533-3.814-8.533-8.533c0-4.719,3.823-8.533,8.533-8.533h17.067c4.71,0,8.533,3.814,8.533,8.533     C452.267,260.719,448.444,264.533,443.733,264.533z"/>
			<path d="M204.797,324.263c0,14.123,11.486,25.6,25.6,25.6h60.86l-15.061,22.596c-3.772,5.658-4.122,12.902-0.913,18.893     c3.209,5.99,9.421,9.711,16.222,9.711h133.888c6.775,0,12.979-3.712,16.179-9.685c3.2-5.99,2.85-13.201-0.913-18.842     l-15.113-22.673h60.851c14.123,0,25.6-11.477,25.6-25.6v-8.533h-307.2V324.263z M405.031,349.863L426.458,382     c0.102,0.162,0.427,0.64,0.06,1.314c-0.358,0.683-0.939,0.683-1.126,0.683H291.504c-0.196,0-0.802,0-1.178-0.708     c-0.375-0.7-0.043-1.195,0.068-1.365l21.376-32.06H405.031z"/>
		</g>
	</g>
</g>
<g>
</g>
<g>
</g>
<g>
</g>
<g>
</g>
<g>
</g>
<g>
</g>
<g>
</g>
<g>
</g>
<g>
</g>
<g>
</g>
<g>
</g>
<g>
</g>
<g>
</g>
<g>
</g>
<g>
</g>
</svg>
