<?xml version="1.0" encoding="iso-8859-1"?>
<!-- Generator: Adobe Illustrator 19.0.0, SVG Export Plug-In . SVG Version: 6.00 Build 0)  -->
<svg xmlns="http://www.w3.org/2000/svg" xmlns:xlink="http://www.w3.org/1999/xlink" version="1.1" id="Layer_1" x="0px" y="0px" viewBox="0 0 512 512" style="enable-background:new 0 0 512 512;" xml:space="preserve">
<g>
	<g>
		<path d="M503.467,307.2H460.8v-128V42.667c0-10.505-9.003-22.588-75.793-32.572C342.101,3.678,285.747,0,230.4,0    C175.053,0,118.699,3.678,75.793,10.095C9.003,20.079,0,32.162,0,42.667V179.2v136.533v136.533    c0,10.505,9.003,22.588,75.793,32.572c42.906,6.417,99.26,10.095,154.607,10.095c25.899,0,51.627-0.905,76.8-2.44v10.974    c0,4.719,3.823,8.533,8.533,8.533h187.733c4.71,0,8.533-3.814,8.533-8.533V315.733C512,311.014,508.177,307.2,503.467,307.2z     M443.733,61.167v116.975c-0.299,0.35-0.87,0.708-1.323,1.067c-0.435,0.341-0.734,0.683-1.314,1.033    c-0.58,0.358-1.442,0.734-2.167,1.092c-0.734,0.367-1.348,0.734-2.219,1.109c-0.879,0.367-2.005,0.742-3.012,1.118    c-1.007,0.375-1.894,0.751-3.038,1.126c-1.186,0.375-2.62,0.768-3.942,1.161c-1.237,0.367-2.355,0.734-3.721,1.092    c-1.468,0.401-3.183,0.785-4.787,1.178c-1.468,0.358-2.816,0.725-4.395,1.075c-1.775,0.401-3.78,0.794-5.683,1.186    c-1.672,0.35-3.217,0.691-4.983,1.033c-2.116,0.401-4.463,0.794-6.716,1.186c-1.783,0.316-3.456,0.64-5.333,0.956    c-2.517,0.41-5.265,0.802-7.936,1.203c-1.835,0.273-3.558,0.572-5.461,0.836c-2.833,0.401-5.888,0.777-8.866,1.161    c-1.954,0.247-3.789,0.512-5.803,0.751c-3.26,0.393-6.733,0.759-10.155,1.126c-1.715,0.188-3.337,0.384-5.086,0.563    L233.907,85.308c54.212-0.162,109.099-3.78,151.1-10.069c3.934-0.589,7.637-1.178,11.179-1.783    c1.246-0.213,2.372-0.418,3.567-0.64c2.219-0.393,4.42-0.794,6.485-1.186c1.306-0.256,2.526-0.512,3.78-0.759    c1.792-0.367,3.558-0.742,5.231-1.109c1.203-0.265,2.347-0.538,3.49-0.802c1.57-0.375,3.089-0.742,4.54-1.118    c1.05-0.265,2.091-0.529,3.081-0.802c1.391-0.384,2.714-0.751,4.002-1.135c0.896-0.273,1.809-0.538,2.654-0.802    c1.271-0.401,2.449-0.811,3.61-1.212c0.708-0.247,1.468-0.486,2.133-0.742c1.289-0.469,2.466-0.947,3.61-1.434    c0.427-0.171,0.913-0.35,1.323-0.529C443.699,61.184,443.725,61.175,443.733,61.167z M230.4,17.067    c113.638,0,198.007,14.592,212.113,25.523c-0.247,0.205-0.452,0.401-0.742,0.597c-0.478,0.341-1.033,0.674-1.638,1.007    c-0.674,0.384-1.434,0.759-2.27,1.135c-0.734,0.35-1.527,0.691-2.389,1.041c-0.973,0.384-2.039,0.777-3.166,1.169    c-0.981,0.341-1.997,0.683-3.081,1.033c-1.271,0.401-2.645,0.802-4.062,1.203c-1.203,0.341-2.424,0.683-3.729,1.015    c-1.562,0.41-3.226,0.811-4.932,1.22c-1.417,0.333-2.842,0.666-4.352,0.998c-1.835,0.401-3.772,0.802-5.743,1.195    c-1.621,0.324-3.243,0.657-4.966,0.981c-2.091,0.384-4.301,0.777-6.519,1.161c-1.818,0.307-3.627,0.623-5.538,0.93    c-2.347,0.384-4.821,0.751-7.296,1.118c-1.997,0.299-3.968,0.589-6.042,0.879c-2.611,0.358-5.359,0.708-8.09,1.058    c-2.142,0.282-4.258,0.555-6.477,0.819c-2.85,0.333-5.845,0.649-8.815,0.973c-2.313,0.256-4.574,0.503-6.955,0.742    c-3.063,0.299-6.272,0.589-9.455,0.87c-2.458,0.222-4.872,0.444-7.398,0.657c-3.285,0.273-6.707,0.503-10.103,0.759    c-2.594,0.179-5.137,0.393-7.799,0.555c-3.533,0.239-7.211,0.427-10.863,0.631c-2.662,0.145-5.257,0.316-7.979,0.444    c-3.917,0.196-7.979,0.341-12.006,0.503c-2.586,0.094-5.103,0.213-7.731,0.299c-4.625,0.145-9.387,0.247-14.131,0.35    c-2.167,0.051-4.267,0.119-6.451,0.154c-7.006,0.111-14.14,0.179-21.393,0.179c-7.253,0-14.387-0.068-21.393-0.179    c-2.185-0.034-4.284-0.102-6.451-0.154c-4.745-0.102-9.506-0.205-14.131-0.35c-2.628-0.085-5.146-0.205-7.731-0.299    c-4.028-0.162-8.09-0.307-12.006-0.503c-2.722-0.128-5.325-0.299-7.987-0.444c-3.644-0.205-7.322-0.393-10.854-0.631    c-2.662-0.162-5.205-0.375-7.808-0.555c-3.388-0.256-6.81-0.486-10.095-0.759c-2.534-0.213-4.941-0.435-7.398-0.657    c-3.183-0.282-6.391-0.572-9.455-0.87c-2.381-0.239-4.642-0.486-6.955-0.742c-2.97-0.324-5.965-0.64-8.815-0.973    c-2.219-0.265-4.335-0.538-6.477-0.819c-2.731-0.35-5.478-0.7-8.09-1.058c-2.082-0.29-4.053-0.58-6.042-0.879    c-2.475-0.367-4.949-0.734-7.296-1.118c-1.911-0.307-3.721-0.623-5.538-0.93c-2.227-0.384-4.429-0.776-6.519-1.161    c-1.724-0.324-3.345-0.657-4.966-0.981c-1.971-0.393-3.917-0.794-5.743-1.195c-1.51-0.333-2.935-0.666-4.352-0.998    c-1.707-0.41-3.371-0.811-4.932-1.22c-1.306-0.333-2.526-0.674-3.729-1.015c-1.417-0.401-2.79-0.802-4.062-1.203    c-1.084-0.35-2.099-0.691-3.081-1.033c-1.126-0.393-2.193-0.785-3.166-1.169c-0.648-0.265-1.22-0.521-1.8-0.776l-3.849-3.849    C36.89,30.916,119.654,17.067,230.4,17.067z M17.067,63.266l139.358,139.358c-2.552-0.145-5.197-0.273-7.697-0.444    c-2.304-0.154-4.471-0.341-6.724-0.495c-3.814-0.282-7.68-0.555-11.349-0.853c-2.133-0.179-4.105-0.384-6.187-0.563    c-3.644-0.333-7.339-0.648-10.837-0.998c-1.971-0.205-3.789-0.427-5.709-0.64c-3.422-0.367-6.895-0.734-10.155-1.126    c-2.014-0.239-3.849-0.503-5.803-0.751c-2.978-0.384-6.033-0.759-8.866-1.161c-1.903-0.265-3.627-0.563-5.461-0.836    c-2.671-0.401-5.419-0.794-7.936-1.203c-1.877-0.316-3.55-0.64-5.333-0.956c-2.253-0.393-4.599-0.785-6.716-1.186    c-1.766-0.341-3.311-0.683-4.983-1.033c-1.903-0.393-3.908-0.785-5.683-1.186c-1.579-0.35-2.927-0.717-4.395-1.075    c-1.604-0.393-3.319-0.777-4.787-1.178c-1.365-0.358-2.483-0.725-3.721-1.092c-1.323-0.393-2.756-0.785-3.942-1.161    c-1.143-0.375-2.031-0.751-3.038-1.126s-2.133-0.751-3.012-1.118c-0.196-0.085-0.307-0.171-0.495-0.247l-6.528-6.528V63.266z     M17.067,451.234V344.866l130.287,130.278C73.916,470.195,24.209,459.443,17.067,451.234z M148.727,338.714    c-2.304-0.154-4.471-0.341-6.724-0.495c-3.814-0.282-7.68-0.555-11.349-0.853c-2.133-0.179-4.105-0.384-6.187-0.563    c-3.644-0.333-7.339-0.649-10.837-0.998c-1.971-0.205-3.789-0.427-5.709-0.64c-3.422-0.367-6.895-0.734-10.155-1.126    c-2.014-0.239-3.849-0.503-5.803-0.751c-2.978-0.384-6.033-0.76-8.866-1.161c-1.903-0.265-3.627-0.563-5.461-0.836    c-2.671-0.401-5.419-0.794-7.936-1.203c-1.877-0.316-3.55-0.64-5.333-0.956c-2.253-0.393-4.599-0.785-6.716-1.186    c-1.766-0.341-3.311-0.683-4.983-1.032c-1.903-0.393-3.908-0.785-5.683-1.186c-1.579-0.35-2.927-0.717-4.395-1.075    c-1.604-0.393-3.319-0.777-4.787-1.178c-1.365-0.358-2.483-0.725-3.721-1.092c-1.323-0.393-2.756-0.785-3.942-1.161    c-1.143-0.375-2.031-0.751-3.038-1.126s-2.133-0.751-3.012-1.118c-0.87-0.375-1.485-0.742-2.219-1.109    c-0.725-0.358-1.587-0.734-2.167-1.092c-0.58-0.35-0.879-0.691-1.314-1.033c-0.452-0.358-1.024-0.717-1.323-1.067V199.799    l139.358,139.358C153.873,339.012,151.228,338.884,148.727,338.714z M307.2,440.201l-81.843-81.843    c1.681,0.008,3.362,0.043,5.043,0.043c13.764,0,27.486-0.256,41.122-0.691c4.506-0.154,8.909-0.418,13.38-0.606    c7.45-0.324,14.95-0.572,22.298-1.024V440.201z M307.2,315.733v23.134c-7.629,0.478-15.317,0.853-23.049,1.186    c-4.326,0.179-8.585,0.444-12.928,0.589c-13.534,0.444-27.162,0.691-40.823,0.691c-7.356,0-14.592-0.06-21.692-0.188    c-1.69-0.017-3.302-0.077-4.975-0.111c-5.359-0.111-10.709-0.23-15.906-0.393c-2.057-0.077-4.011-0.179-6.033-0.247L48.29,206.891    c0.794,0.171,1.672,0.333,2.492,0.512c1.254,0.247,2.475,0.503,3.78,0.759c2.065,0.393,4.267,0.794,6.485,1.186    c1.195,0.222,2.321,0.427,3.567,0.64c3.541,0.606,7.245,1.195,11.179,1.783c29.286,4.386,64.879,7.441,102.101,8.977    c0.077,0,0.154,0.043,0.23,0.043c0.051,0,0.102-0.026,0.154-0.034c13.193,0.546,26.556,0.888,39.962,1.007l90.035,90.044    C307.644,313.003,307.2,314.291,307.2,315.733z M242.372,221.764c35.371-0.333,70.639-2.125,102.229-5.154h0.009h0.017    c14.319-1.374,27.964-2.978,40.38-4.838c3.934-0.589,7.637-1.178,11.179-1.783c1.246-0.213,2.372-0.418,3.567-0.64    c2.219-0.393,4.42-0.794,6.485-1.186c1.306-0.256,2.526-0.512,3.78-0.759c1.792-0.367,3.558-0.742,5.231-1.109    c1.203-0.265,2.347-0.538,3.49-0.802c1.57-0.375,3.089-0.742,4.54-1.118c1.05-0.265,2.091-0.529,3.081-0.802    c1.391-0.384,2.714-0.751,4.002-1.135c0.896-0.273,1.809-0.538,2.654-0.802c1.271-0.401,2.449-0.811,3.61-1.212    c0.708-0.247,1.468-0.486,2.133-0.742c1.289-0.469,2.466-0.947,3.61-1.434c0.427-0.171,0.913-0.35,1.323-0.529    c0.009,0,0.034-0.009,0.043-0.017v109.5H327.799L242.372,221.764z M449.766,441.233l-34.133,34.125    c-0.785,0.794-1.724,1.417-2.773,1.852c-1.041,0.435-2.15,0.657-3.26,0.657c-1.109,0-2.219-0.222-3.26-0.657    c-1.05-0.435-1.988-1.058-2.782-1.852l-34.125-34.125c-3.336-3.337-3.336-8.73,0-12.066c3.337-3.336,8.73-3.336,12.066,0    l19.567,19.567v-98.867c0-4.719,3.823-8.533,8.533-8.533s8.533,3.814,8.533,8.533v98.867l19.567-19.567    c3.337-3.336,8.73-3.336,12.066,0C453.103,432.503,453.103,437.897,449.766,441.233z"/>
	</g>
</g>
<g>
</g>
<g>
</g>
<g>
</g>
<g>
</g>
<g>
</g>
<g>
</g>
<g>
</g>
<g>
</g>
<g>
</g>
<g>
</g>
<g>
</g>
<g>
</g>
<g>
</g>
<g>
</g>
<g>
</g>
</svg>
