<?xml version="1.0" encoding="iso-8859-1"?>
<!-- Generator: Adobe Illustrator 19.0.0, SVG Export Plug-In . SVG Version: 6.00 Build 0)  -->
<svg xmlns="http://www.w3.org/2000/svg" xmlns:xlink="http://www.w3.org/1999/xlink" version="1.1" id="Layer_1" x="0px" y="0px" viewBox="0 0 512 512" style="enable-background:new 0 0 512 512;" xml:space="preserve">
<g>
	<g>
		<g>
			<path d="M201.143,210.288c0,1.115,1.765,27.429,155.429,27.429S512,211.403,512,210.288s-1.765-27.429-155.429-27.429     S201.143,209.172,201.143,210.288z"/>
			<path d="M505.232,421.475c-2.103,0.914-4.379,1.774-6.757,2.615c-0.658,0.229-1.289,0.457-1.957,0.677     c-2.816,0.942-5.769,1.838-8.951,2.67c-0.439,0.128-0.942,0.238-1.408,0.347c-2.834,0.741-5.833,1.426-8.942,2.085     c-0.878,0.183-1.755,0.366-2.651,0.558c-3.621,0.713-7.369,1.399-11.346,2.021c-0.484,0.082-1.024,0.146-1.527,0.229     c-3.602,0.549-7.369,1.061-11.264,1.536c-1.106,0.137-2.213,0.274-3.346,0.402c-4.434,0.503-8.997,0.987-13.787,1.399     c-0.448,0.046-0.933,0.073-1.39,0.119c-4.453,0.375-9.106,0.704-13.87,0.997c-1.317,0.082-2.633,0.165-3.977,0.238     c-5.275,0.302-10.67,0.576-16.311,0.777c-0.283,0.018-0.585,0.018-0.878,0.027c-5.394,0.201-11.017,0.338-16.759,0.448     c-1.554,0.037-3.136,0.064-4.727,0.091c-6.107,0.091-12.334,0.146-18.816,0.146s-12.699-0.055-18.807-0.146     c-1.591-0.027-3.173-0.055-4.736-0.091c-5.742-0.11-11.355-0.247-16.759-0.448c-0.283-0.009-0.585-0.009-0.878-0.027     c-5.641-0.201-11.035-0.475-16.311-0.777c-1.335-0.073-2.661-0.155-3.968-0.238c-4.773-0.293-9.426-0.622-13.879-0.997     c-0.457-0.046-0.942-0.073-1.381-0.119c-4.8-0.411-9.362-0.896-13.787-1.399c-1.134-0.128-2.24-0.265-3.346-0.402     c-3.895-0.475-7.662-0.987-11.273-1.536c-0.494-0.082-1.033-0.146-1.527-0.229c-3.968-0.622-7.726-1.307-11.337-2.021     c-0.905-0.192-1.774-0.375-2.651-0.558c-3.118-0.658-6.107-1.344-8.951-2.085c-0.457-0.11-0.96-0.219-1.408-0.347     c-3.182-0.832-6.135-1.728-8.942-2.67c-0.677-0.219-1.307-0.448-1.957-0.677c-2.386-0.841-4.654-1.701-6.766-2.615     c-0.393-0.165-0.805-0.32-1.179-0.494c-1.975-0.869-3.849-1.783-5.586-2.734v66.322c0,1.115,1.774,27.429,155.429,27.429     c153.664,0,155.429-26.313,155.429-27.429v-66.322c-1.728,0.951-3.602,1.865-5.577,2.734     C506.046,421.155,505.626,421.31,505.232,421.475z"/>
			<path d="M505.232,330.046c-2.103,0.914-4.379,1.774-6.757,2.615c-0.658,0.229-1.289,0.457-1.957,0.677     c-2.816,0.942-5.769,1.838-8.951,2.67c-0.439,0.128-0.942,0.238-1.408,0.347c-2.834,0.741-5.833,1.426-8.942,2.085     c-0.878,0.183-1.755,0.366-2.651,0.558c-3.621,0.713-7.369,1.399-11.346,2.021c-0.484,0.082-1.024,0.146-1.527,0.229     c-3.602,0.549-7.369,1.061-11.264,1.536c-1.106,0.137-2.213,0.274-3.346,0.402c-4.434,0.503-8.997,0.987-13.787,1.399     c-0.448,0.046-0.933,0.073-1.39,0.119c-4.453,0.375-9.106,0.704-13.87,0.997c-1.317,0.082-2.633,0.165-3.977,0.238     c-5.275,0.302-10.67,0.576-16.311,0.777c-0.283,0.018-0.585,0.018-0.878,0.027c-5.394,0.201-11.017,0.338-16.759,0.448     c-1.554,0.037-3.136,0.064-4.727,0.091c-6.107,0.091-12.334,0.146-18.816,0.146s-12.699-0.055-18.807-0.146     c-1.591-0.027-3.173-0.055-4.736-0.091c-5.742-0.11-11.355-0.247-16.759-0.448c-0.283-0.009-0.585-0.009-0.878-0.027     c-5.641-0.201-11.035-0.475-16.311-0.777c-1.335-0.073-2.661-0.155-3.968-0.238c-4.773-0.293-9.426-0.622-13.879-0.997     c-0.457-0.046-0.942-0.073-1.381-0.119c-4.8-0.411-9.362-0.896-13.787-1.399c-1.134-0.128-2.24-0.265-3.346-0.402     c-3.895-0.475-7.662-0.987-11.273-1.536c-0.494-0.082-1.033-0.146-1.527-0.229c-3.968-0.622-7.726-1.307-11.337-2.021     c-0.905-0.192-1.774-0.375-2.651-0.558c-3.118-0.658-6.107-1.344-8.951-2.085c-0.457-0.11-0.96-0.219-1.408-0.347     c-3.182-0.832-6.135-1.728-8.942-2.67c-0.677-0.219-1.307-0.448-1.957-0.677c-2.386-0.841-4.654-1.701-6.766-2.615     c-0.393-0.165-0.805-0.32-1.179-0.494c-1.975-0.869-3.849-1.783-5.586-2.734v66.322c0,1.115,1.774,27.429,155.429,27.429     c153.664,0,155.429-26.313,155.429-27.429v-66.322c-1.728,0.951-3.602,1.865-5.577,2.734     C506.046,329.726,505.626,329.882,505.232,330.046z"/>
			<path d="M505.232,238.618c-2.103,0.914-4.379,1.774-6.757,2.615c-0.658,0.229-1.289,0.457-1.957,0.677     c-2.816,0.942-5.769,1.838-8.951,2.67c-0.439,0.128-0.942,0.238-1.408,0.347c-2.834,0.741-5.833,1.426-8.942,2.085     c-0.878,0.183-1.755,0.366-2.651,0.558c-3.621,0.713-7.369,1.399-11.346,2.021c-0.484,0.082-1.024,0.146-1.527,0.229     c-3.602,0.549-7.369,1.061-11.264,1.536c-1.106,0.137-2.213,0.274-3.346,0.402c-4.434,0.503-8.997,0.987-13.787,1.399     c-0.448,0.046-0.933,0.073-1.39,0.119c-4.453,0.375-9.106,0.704-13.87,0.997c-1.317,0.082-2.633,0.165-3.977,0.238     c-5.275,0.302-10.67,0.576-16.311,0.777c-0.283,0.018-0.585,0.018-0.878,0.027c-5.394,0.201-11.017,0.338-16.759,0.448     c-1.554,0.037-3.136,0.064-4.727,0.091c-6.107,0.091-12.334,0.146-18.816,0.146s-12.699-0.055-18.807-0.146     c-1.591-0.027-3.173-0.055-4.736-0.091c-5.742-0.11-11.355-0.247-16.759-0.448c-0.283-0.009-0.585-0.009-0.878-0.027     c-5.641-0.201-11.035-0.475-16.311-0.777c-1.335-0.073-2.661-0.155-3.968-0.238c-4.773-0.293-9.426-0.622-13.879-0.997     c-0.457-0.046-0.942-0.073-1.381-0.119c-4.8-0.411-9.362-0.896-13.787-1.399c-1.134-0.128-2.24-0.265-3.346-0.402     c-3.895-0.475-7.662-0.987-11.273-1.536c-0.494-0.082-1.033-0.146-1.527-0.229c-3.968-0.622-7.726-1.307-11.337-2.021     c-0.905-0.192-1.774-0.375-2.651-0.558c-3.118-0.658-6.107-1.344-8.951-2.085c-0.457-0.11-0.96-0.219-1.408-0.347     c-3.182-0.832-6.135-1.728-8.942-2.67c-0.677-0.219-1.307-0.448-1.957-0.677c-2.386-0.841-4.654-1.701-6.766-2.615     c-0.393-0.165-0.805-0.32-1.179-0.494c-1.975-0.869-3.849-1.783-5.586-2.734v66.322c0,1.115,1.774,27.429,155.429,27.429     c153.664,0,155.429-26.313,155.429-27.429V235.39c-1.728,0.951-3.602,1.865-5.577,2.734     C506.046,238.298,505.626,238.453,505.232,238.618z"/>
			<path d="M172.785,255.859c-5.605,0.082-11.328,0.146-17.353,0.146c-6.482,0-12.709-0.064-18.816-0.155     c-1.591-0.027-3.173-0.055-4.736-0.091c-5.742-0.101-11.355-0.247-16.759-0.448c-0.283-0.009-0.585-0.009-0.869-0.018     c-5.65-0.21-11.035-0.475-16.32-0.777c-1.335-0.073-2.661-0.165-3.968-0.247c-4.773-0.293-9.417-0.622-13.879-0.997     c-0.448-0.046-0.933-0.073-1.381-0.119c-4.791-0.411-9.353-0.896-13.787-1.399c-1.134-0.128-2.24-0.265-3.346-0.402     c-3.895-0.475-7.662-0.987-11.264-1.536c-0.503-0.082-1.042-0.146-1.527-0.229c-3.977-0.622-7.726-1.307-11.346-2.021     c-0.896-0.192-1.774-0.366-2.651-0.558c-3.118-0.658-6.107-1.344-8.942-2.075c-0.466-0.119-0.969-0.229-1.417-0.347     c-3.173-0.841-6.126-1.737-8.942-2.67c-0.667-0.229-1.307-0.457-1.957-0.686c-2.386-0.832-4.654-1.701-6.757-2.615     c-0.393-0.155-0.814-0.32-1.189-0.485c-1.975-0.878-3.849-1.792-5.577-2.734v66.322c0,1.115,1.765,27.429,155.429,27.429     c9.682,0,18.77-0.128,27.429-0.338v-73.143c-1.865,0.046-3.822,0.073-5.714,0.11     C175.693,255.804,174.257,255.832,172.785,255.859z"/>
			<path d="M310.857,143.966c-1.728,0.951-3.611,1.856-5.577,2.734c-0.375,0.165-0.795,0.329-1.189,0.494     c-2.112,0.905-4.379,1.774-6.757,2.615c-0.658,0.219-1.289,0.448-1.957,0.677c-2.816,0.933-5.769,1.829-8.951,2.67     c-0.448,0.128-0.942,0.229-1.408,0.347c-2.843,0.731-5.833,1.417-8.951,2.085c-0.869,0.183-1.746,0.366-2.651,0.549     c-3.611,0.713-7.36,1.399-11.337,2.03c-0.494,0.082-1.024,0.137-1.527,0.219c-3.602,0.558-7.378,1.061-11.264,1.536     c-1.106,0.146-2.222,0.274-3.355,0.402c-4.425,0.512-8.987,0.987-13.778,1.399c-0.448,0.046-0.933,0.073-1.39,0.119     c-4.453,0.375-9.106,0.704-13.87,0.997c-1.317,0.082-2.633,0.174-3.977,0.247c-5.275,0.302-10.67,0.567-16.311,0.777     c-0.283,0.018-0.594,0.018-0.878,0.027c-5.403,0.192-11.017,0.338-16.759,0.448c-1.563,0.027-3.145,0.055-4.727,0.082     c-6.107,0.091-12.334,0.155-18.816,0.155s-12.709-0.064-18.816-0.155c-1.582-0.027-3.163-0.055-4.727-0.082     c-5.742-0.11-11.355-0.256-16.759-0.448c-0.283-0.009-0.594-0.009-0.878-0.027c-5.641-0.21-11.035-0.475-16.311-0.777     c-1.344-0.073-2.661-0.165-3.977-0.247c-4.763-0.293-9.417-0.622-13.87-0.997c-0.457-0.046-0.942-0.073-1.39-0.119     c-4.791-0.411-9.353-0.887-13.778-1.399c-1.134-0.128-2.249-0.256-3.355-0.402c-3.886-0.475-7.662-0.978-11.264-1.536     c-0.503-0.082-1.033-0.137-1.527-0.219c-3.977-0.631-7.726-1.317-11.337-2.03c-0.905-0.183-1.783-0.366-2.651-0.549     c-3.118-0.667-6.107-1.353-8.951-2.085c-0.466-0.119-0.96-0.219-1.408-0.347c-3.182-0.841-6.135-1.737-8.951-2.67     c-0.667-0.229-1.298-0.457-1.957-0.677c-2.377-0.841-4.645-1.71-6.757-2.615c-0.393-0.165-0.814-0.329-1.189-0.494     c-1.966-0.878-3.849-1.783-5.577-2.734v66.322c0,1.115,1.765,27.429,155.429,27.429c5.851,0,11.419-0.064,16.869-0.146     c1.792-0.027,3.538-0.064,5.303-0.091c1.792-0.037,3.511-0.091,5.257-0.137v-27.054c0-26.853,40.731-41.143,128-44.791V143.966z"/>
			<path d="M155.429,54.859c153.664,0,155.429-26.313,155.429-27.429S309.093,0.002,155.429,0.002S0,26.315,0,27.43     S1.765,54.859,155.429,54.859z"/>
			<path d="M155.429,146.288c153.664,0,155.429-26.313,155.429-27.429V52.537c-1.728,0.951-3.611,1.856-5.577,2.734     c-0.375,0.165-0.795,0.329-1.189,0.494c-2.112,0.905-4.379,1.774-6.757,2.615c-0.658,0.219-1.289,0.457-1.957,0.677     c-2.816,0.942-5.769,1.829-8.951,2.67c-0.448,0.128-0.942,0.229-1.408,0.347c-2.843,0.731-5.833,1.417-8.951,2.085     c-0.869,0.183-1.746,0.366-2.651,0.549c-3.611,0.713-7.36,1.399-11.337,2.03c-0.494,0.082-1.024,0.137-1.527,0.219     c-3.602,0.558-7.378,1.061-11.264,1.536c-1.106,0.146-2.222,0.274-3.355,0.402c-4.425,0.512-8.987,0.997-13.778,1.399     c-0.448,0.046-0.933,0.073-1.39,0.119c-4.453,0.375-9.106,0.704-13.87,1.006c-1.317,0.073-2.633,0.165-3.977,0.238     c-5.275,0.302-10.67,0.567-16.311,0.777c-0.283,0.018-0.594,0.018-0.878,0.027c-5.403,0.192-11.017,0.338-16.759,0.448     c-1.563,0.037-3.145,0.055-4.727,0.082c-6.107,0.091-12.334,0.155-18.816,0.155s-12.709-0.064-18.816-0.155     c-1.582-0.027-3.163-0.046-4.727-0.082c-5.742-0.11-11.355-0.256-16.759-0.448c-0.283-0.009-0.594-0.009-0.878-0.027     c-5.641-0.21-11.035-0.475-16.311-0.777c-1.344-0.073-2.661-0.165-3.977-0.238c-4.763-0.302-9.417-0.631-13.87-1.006     c-0.457-0.046-0.942-0.073-1.39-0.119c-4.791-0.402-9.353-0.887-13.778-1.399c-1.134-0.128-2.249-0.256-3.355-0.402     c-3.886-0.475-7.662-0.978-11.264-1.536c-0.503-0.082-1.033-0.137-1.527-0.219c-3.977-0.631-7.726-1.317-11.337-2.03     c-0.905-0.183-1.783-0.366-2.651-0.549c-3.118-0.667-6.107-1.353-8.951-2.085c-0.466-0.119-0.96-0.219-1.408-0.347     c-3.182-0.841-6.135-1.728-8.951-2.67c-0.667-0.219-1.298-0.457-1.957-0.677c-2.377-0.841-4.645-1.71-6.757-2.615     C6.373,55.6,5.952,55.435,5.577,55.27C3.611,54.393,1.728,53.488,0,52.537v66.322C0,119.974,1.765,146.288,155.429,146.288z"/>
			<path d="M379.709,70.869c1.582,4.773,3.173,9.545,4.763,14.309c1.28,3.831,4.837,6.254,8.667,6.254     c0.96,0,1.929-0.155,2.898-0.475c4.782-1.591,7.369-6.766,5.778-11.557l-4.672-14.034c24.759,5.202,44.297,24.731,49.481,49.49     l-14.016-4.663c-4.827-1.618-9.966,0.987-11.566,5.778c-1.6,4.791,0.987,9.966,5.778,11.557     c4.233,1.408,8.475,2.825,12.709,4.233c3.072,1.024,6.153,2.057,9.243,3.09c3.429,1.143,6.921,2.935,10.597,1.966     c5.303-1.408,8.311-8.128,11.136-12.379l10.13-15.186c0.795-1.207,1.591-2.405,2.395-3.602c2.807-4.206,1.673-9.874-2.533-12.681     c-4.215-2.798-9.883-1.673-12.681,2.533l-5.285,7.927c-8.046-25.637-28.315-45.915-53.961-53.961l7.927-5.285     c4.206-2.807,5.339-8.475,2.533-12.681c-2.798-4.206-8.457-5.339-12.672-2.533c-7.387,4.91-14.757,9.838-22.126,14.747     c-4.544,3.026-9.317,6.171-9.253,11.502c0.009,0.923,0.174,1.902,0.494,2.962C376.774,62.439,378.292,66.645,379.709,70.869z"/>
		</g>
	</g>
</g>
<g>
</g>
<g>
</g>
<g>
</g>
<g>
</g>
<g>
</g>
<g>
</g>
<g>
</g>
<g>
</g>
<g>
</g>
<g>
</g>
<g>
</g>
<g>
</g>
<g>
</g>
<g>
</g>
<g>
</g>
</svg>
