<?xml version="1.0" encoding="iso-8859-1"?>
<!-- Generator: Adobe Illustrator 19.0.0, SVG Export Plug-In . SVG Version: 6.00 Build 0)  -->
<svg xmlns="http://www.w3.org/2000/svg" xmlns:xlink="http://www.w3.org/1999/xlink" version="1.1" id="Layer_1" x="0px" y="0px" viewBox="0 0 512 512" style="enable-background:new 0 0 512 512;" xml:space="preserve">
<g>
	<g>
		<g>
			<path d="M375.467,341.333c-18.825,0-34.133,15.309-34.133,34.133c0,18.825,15.309,34.133,34.133,34.133     c18.825,0,34.133-15.309,34.133-34.133C409.6,356.642,394.291,341.333,375.467,341.333z"/>
			<path d="M505.071,354.773l-15.386-2.953c-7.851-1.51-14.276-6.852-17.203-14.293c-2.918-7.433-1.835-15.718,2.893-22.153     l9.668-13.184c2.492-3.396,2.125-8.107-0.853-11.085l-20.881-20.89c-0.742-0.742-1.596-1.306-2.509-1.724V162.133V42.667     c0-10.505-9.011-22.588-75.793-32.572C342.101,3.678,285.747,0,230.4,0C175.053,0,118.699,3.678,75.793,10.095     C9.011,20.079,0,32.162,0,42.667v119.467V281.6v119.467c0,10.505,9.011,22.588,75.793,32.572     c42.906,6.417,99.26,10.095,154.607,10.095c14.993,0,30.174-0.358,45.329-0.896l-6.536,9.651     c-2.295,3.388-1.86,7.927,1.033,10.82l20.881,20.881c2.987,2.978,7.68,3.337,11.085,0.853l13.184-9.668     c6.434-4.727,14.711-5.794,22.153-2.893c7.441,2.927,12.783,9.353,14.293,17.195l2.953,15.394     c0.776,4.019,4.292,6.929,8.388,6.929h29.542c4.207,0,7.791-3.072,8.431-7.236l1.749-11.366     c1.237-8.073,6.485-14.754,14.02-17.877c7.552-3.106,15.983-2.108,22.571,2.722l9.276,6.801     c3.371,2.483,8.098,2.125,11.076-0.853l20.881-20.881c2.893-2.893,3.328-7.433,1.032-10.82l-8.789-12.979     c-4.489-6.622-5.248-14.942-2.048-22.263c3.191-7.322,9.805-12.416,17.707-13.628l16.154-2.483     c4.164-0.64,7.236-4.224,7.236-8.431v-29.542C512,359.066,509.09,355.55,505.071,354.773z M230.4,17.067     c113.647,0,198.025,14.601,212.105,25.532c-0.23,0.196-0.427,0.384-0.708,0.58c-0.495,0.341-1.067,0.691-1.698,1.033     c-0.657,0.375-1.391,0.742-2.202,1.118c-0.751,0.35-1.57,0.7-2.449,1.05c-0.964,0.375-2.005,0.759-3.106,1.152     c-0.99,0.35-2.031,0.7-3.14,1.05c-1.254,0.393-2.611,0.785-4.002,1.186c-1.212,0.341-2.458,0.691-3.78,1.033     c-1.553,0.401-3.209,0.802-4.898,1.203c-1.417,0.341-2.85,0.674-4.369,1.007c-1.826,0.401-3.78,0.802-5.751,1.195     c-1.613,0.333-3.234,0.657-4.949,0.973c-2.099,0.401-4.318,0.785-6.554,1.169c-1.818,0.316-3.601,0.623-5.495,0.93     c-2.372,0.384-4.864,0.751-7.356,1.126c-1.98,0.29-3.917,0.58-5.982,0.87c-2.628,0.367-5.402,0.717-8.175,1.067     c-2.116,0.273-4.19,0.546-6.383,0.802c-2.893,0.341-5.905,0.666-8.917,0.99c-2.27,0.247-4.514,0.495-6.852,0.725     c-3.106,0.307-6.34,0.606-9.557,0.887c-2.423,0.213-4.804,0.444-7.305,0.648c-3.311,0.273-6.758,0.512-10.172,0.759     c-2.577,0.188-5.094,0.393-7.74,0.555c-3.558,0.239-7.245,0.435-10.914,0.631c-2.637,0.154-5.231,0.316-7.927,0.444     c-3.942,0.196-8.013,0.341-12.066,0.503c-2.56,0.094-5.06,0.213-7.671,0.299c-4.634,0.145-9.421,0.247-14.174,0.35     c-2.159,0.051-4.241,0.119-6.417,0.154c-7.006,0.111-14.131,0.179-21.393,0.179c-7.262,0-14.387-0.068-21.393-0.179     c-2.176-0.034-4.258-0.102-6.417-0.154c-4.753-0.102-9.54-0.205-14.174-0.35c-2.611-0.085-5.111-0.205-7.671-0.299     c-4.053-0.162-8.124-0.307-12.066-0.503c-2.697-0.128-5.282-0.29-7.919-0.444c-3.678-0.196-7.364-0.393-10.923-0.631     c-2.637-0.162-5.154-0.367-7.731-0.555c-3.422-0.247-6.869-0.486-10.18-0.759c-2.5-0.205-4.881-0.435-7.305-0.648     c-3.217-0.282-6.451-0.58-9.557-0.887c-2.338-0.23-4.582-0.478-6.852-0.725c-3.012-0.324-6.025-0.649-8.917-0.99     c-2.193-0.256-4.267-0.529-6.383-0.802c-2.773-0.35-5.547-0.7-8.175-1.067c-2.065-0.29-4.002-0.58-5.982-0.87     c-2.492-0.375-4.983-0.742-7.356-1.126c-1.894-0.307-3.678-0.614-5.495-0.93c-2.236-0.384-4.454-0.768-6.554-1.169     c-1.715-0.316-3.337-0.64-4.949-0.973c-1.971-0.393-3.925-0.794-5.751-1.195c-1.519-0.333-2.944-0.666-4.361-0.998     c-1.698-0.41-3.354-0.811-4.915-1.212c-1.314-0.341-2.551-0.691-3.763-1.033c-1.399-0.393-2.748-0.794-4.011-1.186     c-1.109-0.35-2.15-0.7-3.14-1.05c-1.101-0.393-2.142-0.777-3.106-1.152c-0.879-0.35-1.698-0.7-2.449-1.05     c-0.811-0.375-1.544-0.742-2.202-1.118c-0.631-0.341-1.203-0.691-1.698-1.033c-0.282-0.196-0.478-0.384-0.708-0.58     C32.375,31.667,116.753,17.067,230.4,17.067z M230.4,426.667c-117.513,0-203.742-15.607-213.333-26.633V300.1     c0.017,0.009,0.043,0.017,0.06,0.026c0.375,0.154,0.819,0.324,1.195,0.486c1.186,0.486,2.406,0.99,3.738,1.476     c0.64,0.239,1.348,0.469,2.022,0.7c1.203,0.427,2.415,0.845,3.746,1.263c0.802,0.247,1.673,0.495,2.526,0.759     c1.331,0.393,2.697,0.785,4.147,1.169c0.947,0.273,1.946,0.521,2.953,0.777c1.493,0.384,3.063,0.768,4.676,1.152     c1.101,0.256,2.21,0.521,3.371,0.777c1.715,0.375,3.524,0.751,5.367,1.135c1.212,0.239,2.398,0.486,3.669,0.742     c2.099,0.401,4.343,0.802,6.605,1.203c1.161,0.213,2.253,0.418,3.456,0.614c3.541,0.614,7.253,1.203,11.196,1.792     c42.906,6.417,99.26,10.095,154.607,10.095c14.805,0,29.85-0.333,44.86-0.87c1.297-0.034,2.594-0.017,3.891-0.068     c0.162,0.623,0.384,1.22,0.486,1.852c0.077,0.469,0.179,0.939,0.239,1.399c0.171,1.664,0.205,3.336,0.017,5.009     c-0.043,0.333-0.145,0.674-0.196,1.007c-0.213,1.365-0.563,2.722-1.024,4.053c-0.179,0.529-0.375,1.041-0.597,1.562     c-0.435,1.007-0.99,1.929-1.562,2.859c-0.427,0.717-0.828,1.451-1.331,2.099c-0.717,0.93-1.553,1.749-2.389,2.56     c-0.478,0.452-0.905,0.964-1.417,1.374c-1.058,0.845-2.227,1.527-3.43,2.185c-0.435,0.239-0.819,0.555-1.28,0.759     c-1.698,0.794-3.507,1.408-5.41,1.775l-15.394,2.953c-4.019,0.776-6.929,4.292-6.929,8.388v29.542     c0,4.207,3.072,7.791,7.236,8.431l16.154,2.483c1.843,0.282,3.593,0.819,5.265,1.502c0.435,0.179,0.836,0.41,1.254,0.614     c1.203,0.58,2.355,1.237,3.439,2.014c0.452,0.333,0.896,0.683,1.314,1.041c0.93,0.776,1.775,1.638,2.56,2.543     c0.427,0.495,0.862,0.964,1.254,1.502c0.469,0.649,0.828,1.382,1.237,2.082c0.666,1.169,1.306,2.355,1.758,3.61     c0.265,0.691,0.435,1.408,0.631,2.116c0.341,1.306,0.606,2.628,0.717,3.968c0.026,0.333,0.026,0.666,0.026,1.007     C264.644,426.308,247.381,426.667,230.4,426.667z M375.467,426.667c-28.237,0-51.2-22.963-51.2-51.2     c0-28.237,22.963-51.2,51.2-51.2c28.237,0,51.2,22.963,51.2,51.2C426.667,403.703,403.703,426.667,375.467,426.667z      M443.733,275.115l-4.224,2.867c-6.622,4.48-14.95,5.257-22.263,2.048c-7.322-3.191-12.416-9.805-13.628-17.707l-2.483-16.154     c-0.64-4.164-4.224-7.236-8.431-7.236h-29.542c-4.096,0-7.612,2.901-8.388,6.929l-3.823,19.891     c-1.493,7.782-6.562,13.986-13.884,17.024c-7.322,3.021-15.266,2.227-21.854-2.227l-16.768-11.366     c-3.371-2.287-7.927-1.86-10.82,1.033l-20.881,20.89c-2.978,2.978-3.345,7.689-0.853,11.085l3.183,4.344     c-1.399,0.043-2.79,0.094-4.19,0.128c-11.554,0.324-23.091,0.538-34.483,0.538c-7.356,0-14.592-0.06-21.692-0.179     c-1.775-0.026-3.464-0.094-5.222-0.128c-5.265-0.111-10.547-0.222-15.659-0.384c-2.287-0.077-4.454-0.196-6.707-0.273     c-4.471-0.179-8.977-0.333-13.312-0.555c-2.338-0.111-4.557-0.265-6.861-0.401c-4.096-0.222-8.243-0.435-12.211-0.7     c-2.5-0.162-4.864-0.367-7.313-0.546c-3.61-0.256-7.279-0.512-10.76-0.802c-2.313-0.188-4.463-0.418-6.716-0.614     c-3.465-0.316-6.98-0.614-10.317-0.947c-2.176-0.23-4.215-0.478-6.34-0.7c-3.2-0.35-6.46-0.7-9.506-1.058     c-2.253-0.273-4.309-0.572-6.477-0.845c-2.748-0.358-5.572-0.7-8.192-1.075c-2.108-0.29-4.011-0.606-6.033-0.922     c-2.466-0.367-5.035-0.734-7.364-1.118c-2.057-0.333-3.9-0.691-5.854-1.033c-2.074-0.367-4.25-0.734-6.195-1.109     c-1.946-0.367-3.652-0.751-5.47-1.135c-1.732-0.358-3.584-0.708-5.197-1.075c-1.732-0.393-3.226-0.785-4.821-1.186     c-1.459-0.35-3.029-0.708-4.361-1.067c-1.502-0.41-2.748-0.811-4.096-1.203c-1.195-0.35-2.5-0.708-3.576-1.058     c-1.263-0.418-2.27-0.836-3.379-1.254c-0.879-0.324-1.894-0.657-2.671-0.99c-0.964-0.41-1.655-0.819-2.458-1.22     c-0.64-0.324-1.408-0.657-1.929-0.973c-0.648-0.401-1.007-0.776-1.476-1.161c-0.384-0.316-0.905-0.64-1.169-0.947v-99.908     c0.017,0.009,0.043,0.017,0.06,0.026c0.375,0.154,0.819,0.324,1.195,0.486c1.186,0.486,2.406,0.99,3.738,1.476     c0.64,0.239,1.348,0.469,2.022,0.7c1.203,0.427,2.415,0.845,3.746,1.263c0.802,0.247,1.673,0.495,2.526,0.759     c1.331,0.393,2.697,0.785,4.147,1.169c0.947,0.273,1.946,0.521,2.953,0.777c1.493,0.384,3.063,0.768,4.676,1.152     c1.101,0.256,2.21,0.521,3.371,0.777c1.715,0.375,3.524,0.751,5.367,1.135c1.212,0.239,2.398,0.486,3.669,0.742     c2.099,0.401,4.343,0.802,6.605,1.203c1.161,0.213,2.253,0.418,3.456,0.614c3.541,0.614,7.253,1.203,11.196,1.792     c42.906,6.417,99.26,10.095,154.607,10.095c55.347,0,111.701-3.678,154.607-10.095c3.942-0.589,7.654-1.178,11.204-1.792     c1.186-0.196,2.278-0.401,3.439-0.614c2.27-0.401,4.514-0.811,6.622-1.212c1.271-0.247,2.44-0.495,3.661-0.734     c1.835-0.384,3.652-0.759,5.367-1.135c1.161-0.256,2.27-0.521,3.362-0.777c1.621-0.384,3.191-0.768,4.685-1.152     c1.007-0.256,2.005-0.503,2.953-0.777c1.451-0.384,2.825-0.776,4.147-1.178c0.853-0.256,1.724-0.503,2.526-0.751     c1.331-0.418,2.543-0.845,3.755-1.263c0.666-0.23,1.382-0.461,2.014-0.7c1.331-0.486,2.551-0.99,3.738-1.476     c0.375-0.162,0.819-0.333,1.195-0.486c0.017-0.008,0.043-0.017,0.06-0.026V275.115z"/>
		</g>
	</g>
</g>
<g>
</g>
<g>
</g>
<g>
</g>
<g>
</g>
<g>
</g>
<g>
</g>
<g>
</g>
<g>
</g>
<g>
</g>
<g>
</g>
<g>
</g>
<g>
</g>
<g>
</g>
<g>
</g>
<g>
</g>
</svg>
