<?xml version="1.0" encoding="iso-8859-1"?>
<!-- Generator: Adobe Illustrator 19.0.0, SVG Export Plug-In . SVG Version: 6.00 Build 0)  -->
<svg xmlns="http://www.w3.org/2000/svg" xmlns:xlink="http://www.w3.org/1999/xlink" version="1.1" id="Layer_1" x="0px" y="0px" viewBox="0 0 512 512" style="enable-background:new 0 0 512 512;" xml:space="preserve">
<g>
	<g>
		<g>
			<path d="M341.333,314.423v48.051c0,31.898,16.674,65.621,42.487,85.914c6.579,5.171,12.1,8.849,17.442,11.58     c7.245-3.243,14.089-7.287,19.55-11.588c24.67-19.388,39.987-52.301,39.987-85.905v-48.051     c-24.329-4.625-43.682-13.875-59.733-22.972C385.016,300.547,365.662,309.798,341.333,314.423z M432.7,335.304     c3.337,3.336,3.337,8.73,0,12.066l-19.567,19.567l19.567,19.567c3.337,3.336,3.337,8.73,0,12.066     c-1.664,1.664-3.849,2.5-6.033,2.5s-4.369-0.836-6.033-2.5l-19.567-19.567L381.5,398.57c-1.664,1.664-3.849,2.5-6.033,2.5     c-2.185,0-4.369-0.836-6.033-2.5c-3.336-3.336-3.336-8.73,0-12.066l19.567-19.567l-19.567-19.567     c-3.336-3.336-3.336-8.73,0-12.066c3.337-3.337,8.73-3.337,12.066,0l19.567,19.567l19.567-19.567     C423.97,331.967,429.363,331.967,432.7,335.304z"/>
			<path d="M503.467,264.533c-16.367,0-30.558-1.988-42.667-4.958V179.2V42.667c0-10.505-9.011-22.588-75.793-32.572     C342.101,3.678,285.747,0,230.4,0C175.053,0,118.699,3.678,75.793,10.095C9.011,20.079,0,32.162,0,42.667V179.2v136.533v136.533     c0,10.513,9.011,22.596,75.793,32.58c42.906,6.417,99.26,10.086,154.607,10.086c42.88,0,86.972-2.244,124.715-6.315     c10.59,8.098,24.789,17.468,43.529,23.031c0.794,0.239,1.604,0.35,2.424,0.35c0.819,0,1.63-0.111,2.423-0.35     c17.903-5.316,35.379-14.225,49.212-25.096C489.83,457.37,512,410.991,512,362.47v-89.404     C512,268.356,508.186,264.533,503.467,264.533z M230.4,17.067c113.655,0,198.025,14.601,212.105,25.54     c-0.23,0.188-0.427,0.384-0.708,0.572c-0.495,0.341-1.067,0.691-1.698,1.033c-0.657,0.375-1.391,0.742-2.202,1.118     c-0.751,0.35-1.57,0.7-2.449,1.05c-0.964,0.384-2.005,0.768-3.106,1.161c-0.998,0.35-2.031,0.7-3.14,1.05     c-1.254,0.393-2.611,0.785-4.011,1.178c-1.203,0.35-2.449,0.7-3.772,1.041c-1.553,0.393-3.209,0.794-4.898,1.195     c-1.417,0.341-2.85,0.674-4.369,1.007c-1.826,0.401-3.78,0.802-5.751,1.195c-1.613,0.333-3.234,0.657-4.949,0.973     c-2.099,0.401-4.318,0.785-6.562,1.169c-1.801,0.316-3.593,0.623-5.487,0.93c-2.372,0.384-4.864,0.751-7.356,1.126     c-1.98,0.29-3.917,0.589-5.982,0.879c-2.628,0.367-5.402,0.717-8.175,1.067c-2.116,0.265-4.19,0.538-6.383,0.794     c-2.893,0.35-5.905,0.674-8.917,0.998c-2.278,0.239-4.514,0.486-6.852,0.725c-3.106,0.307-6.34,0.597-9.549,0.879     c-2.432,0.222-4.813,0.452-7.313,0.649c-3.311,0.282-6.75,0.521-10.172,0.76c-2.577,0.196-5.094,0.393-7.74,0.563     c-3.558,0.23-7.245,0.427-10.914,0.631c-2.637,0.145-5.222,0.307-7.927,0.444c-3.942,0.188-8.013,0.341-12.066,0.495     c-2.56,0.102-5.06,0.222-7.671,0.299c-4.634,0.154-9.421,0.256-14.174,0.35c-2.159,0.051-4.241,0.119-6.417,0.162     c-7.006,0.111-14.131,0.171-21.393,0.171c-7.262,0-14.387-0.06-21.393-0.171c-2.176-0.043-4.258-0.111-6.417-0.162     c-4.753-0.094-9.54-0.196-14.174-0.35c-2.611-0.077-5.111-0.196-7.671-0.299c-4.053-0.154-8.124-0.307-12.066-0.495     c-2.697-0.137-5.282-0.299-7.919-0.444c-3.669-0.205-7.364-0.401-10.923-0.631c-2.637-0.171-5.163-0.367-7.731-0.563     c-3.422-0.239-6.869-0.478-10.18-0.76c-2.5-0.196-4.881-0.427-7.313-0.649c-3.208-0.282-6.443-0.572-9.549-0.879     c-2.338-0.239-4.574-0.486-6.852-0.725c-3.012-0.324-6.025-0.649-8.917-0.998c-2.193-0.256-4.267-0.529-6.383-0.794     c-2.773-0.35-5.547-0.7-8.175-1.067c-2.065-0.29-4.002-0.589-5.982-0.879c-2.492-0.375-4.983-0.742-7.356-1.126     c-1.894-0.307-3.686-0.614-5.487-0.93c-2.244-0.384-4.463-0.768-6.562-1.169c-1.715-0.316-3.337-0.64-4.949-0.973     c-1.971-0.393-3.925-0.794-5.751-1.195c-1.519-0.333-2.944-0.666-4.361-0.998c-1.698-0.41-3.354-0.811-4.915-1.203     c-1.314-0.341-2.551-0.691-3.763-1.041c-1.399-0.384-2.748-0.785-4.011-1.178c-1.109-0.35-2.142-0.7-3.14-1.05     c-1.101-0.393-2.142-0.776-3.106-1.161c-0.879-0.35-1.698-0.7-2.449-1.05c-0.811-0.375-1.544-0.742-2.202-1.118     c-0.631-0.341-1.203-0.691-1.698-1.033c-0.282-0.188-0.478-0.384-0.708-0.572C32.375,31.667,116.745,17.067,230.4,17.067z      M17.067,197.7c0.017,0.008,0.043,0.017,0.06,0.026c0.367,0.162,0.819,0.324,1.195,0.486c1.186,0.495,2.406,0.99,3.738,1.485     c0.64,0.23,1.348,0.461,2.022,0.7c1.203,0.427,2.415,0.836,3.746,1.254c0.802,0.256,1.673,0.503,2.526,0.759     c1.331,0.393,2.697,0.785,4.147,1.178c0.947,0.265,1.946,0.512,2.953,0.777c1.493,0.384,3.063,0.768,4.676,1.143     c1.101,0.265,2.21,0.521,3.371,0.776c1.715,0.375,3.524,0.751,5.367,1.135c1.212,0.239,2.398,0.495,3.669,0.742     c2.099,0.41,4.343,0.811,6.605,1.212c1.161,0.205,2.253,0.41,3.447,0.614c3.55,0.606,7.262,1.195,11.204,1.792     c42.906,6.417,99.26,10.086,154.607,10.086c55.347,0,111.701-3.669,154.607-10.086c3.942-0.597,7.654-1.186,11.204-1.792     c1.186-0.205,2.278-0.41,3.439-0.614c2.27-0.401,4.514-0.811,6.622-1.22c1.271-0.239,2.44-0.495,3.661-0.734     c1.843-0.384,3.652-0.759,5.367-1.135c1.161-0.256,2.27-0.512,3.371-0.776c1.613-0.375,3.183-0.759,4.676-1.143     c1.007-0.265,2.005-0.512,2.953-0.777c1.451-0.393,2.825-0.785,4.147-1.186c0.853-0.247,1.724-0.495,2.526-0.751     c1.331-0.418,2.543-0.836,3.755-1.254c0.666-0.239,1.382-0.469,2.014-0.7c1.331-0.495,2.551-0.99,3.738-1.485     c0.375-0.162,0.828-0.324,1.195-0.486c0.017-0.009,0.043-0.017,0.06-0.026v56.619c-24.201-9.054-36.139-20.915-36.497-21.282     c-0.119-0.119-0.29-0.162-0.401-0.265c-1.579-1.459-3.593-2.364-5.751-2.372h-0.017c-2.33,0-4.574,0.964-6.187,2.654     c-0.299,0.316-30.694,31.479-96.213,31.479c-4.719,0-8.533,3.823-8.533,8.533v66.765c-6.033,0.29-12.066,0.529-18.116,0.734     c-3.166,0.102-6.332,0.256-9.506,0.341c-10.735,0.273-21.47,0.427-32.111,0.427c-7.356,0-14.592-0.051-21.692-0.179     c-1.775-0.026-3.464-0.094-5.222-0.128c-5.265-0.102-10.547-0.213-15.659-0.384c-2.287-0.068-4.454-0.188-6.707-0.273     c-4.471-0.171-8.977-0.333-13.312-0.546c-2.338-0.119-4.557-0.273-6.861-0.401c-4.096-0.23-8.243-0.444-12.211-0.7     c-2.5-0.171-4.864-0.367-7.313-0.555c-3.61-0.256-7.279-0.503-10.76-0.794c-2.313-0.196-4.463-0.418-6.716-0.623     c-3.465-0.316-6.989-0.614-10.317-0.947c-2.176-0.222-4.215-0.478-6.34-0.7c-3.2-0.35-6.46-0.691-9.506-1.058     c-2.253-0.265-4.309-0.563-6.477-0.845c-2.748-0.358-5.572-0.7-8.192-1.075c-2.108-0.29-4.011-0.606-6.033-0.913     c-2.466-0.375-5.035-0.742-7.364-1.126c-2.057-0.333-3.9-0.691-5.854-1.033c-2.074-0.367-4.25-0.734-6.195-1.109     c-1.946-0.367-3.652-0.751-5.478-1.135c-1.724-0.358-3.576-0.708-5.188-1.075c-1.732-0.393-3.226-0.777-4.821-1.178     c-1.459-0.35-3.029-0.708-4.361-1.067c-1.502-0.41-2.748-0.811-4.096-1.212c-1.195-0.35-2.5-0.708-3.576-1.058     c-1.263-0.418-2.27-0.836-3.379-1.246c-0.879-0.333-1.894-0.666-2.671-0.998c-0.964-0.41-1.655-0.811-2.458-1.212     c-0.631-0.324-1.408-0.657-1.929-0.981c-0.648-0.393-1.007-0.768-1.476-1.152c-0.384-0.316-0.905-0.64-1.169-0.956V197.7z      M230.4,477.867c-117.513,0-203.742-15.607-213.333-26.633V334.234c0.017,0.009,0.043,0.017,0.06,0.026     c0.367,0.162,0.819,0.324,1.195,0.486c1.186,0.495,2.406,0.99,3.738,1.485c0.64,0.23,1.348,0.461,2.022,0.7     c1.203,0.427,2.415,0.836,3.746,1.254c0.802,0.256,1.673,0.503,2.526,0.759c1.331,0.393,2.697,0.785,4.147,1.178     c0.947,0.265,1.946,0.512,2.953,0.776c1.493,0.384,3.063,0.768,4.676,1.143c1.101,0.265,2.21,0.521,3.371,0.777     c1.715,0.375,3.524,0.751,5.367,1.135c1.212,0.239,2.398,0.495,3.669,0.742c2.099,0.41,4.343,0.811,6.605,1.212     c1.161,0.205,2.253,0.41,3.447,0.614c3.55,0.606,7.262,1.195,11.204,1.792c42.906,6.417,99.26,10.086,154.607,10.086     c10.675,0,21.436-0.162,32.205-0.427c3.601-0.094,7.177-0.265,10.778-0.384c5.581-0.188,11.179-0.324,16.751-0.589v5.47     c0,4.634,0.29,9.25,0.734,13.858c0.068,0.708,0.12,1.425,0.196,2.133c0.486,4.395,1.195,8.755,2.074,13.099     c0.162,0.811,0.341,1.621,0.512,2.423c0.964,4.378,2.091,8.713,3.43,13.005c0.171,0.512,0.35,1.033,0.529,1.544     c1.399,4.301,2.97,8.559,4.745,12.757c0.111,0.256,0.205,0.521,0.316,0.777c1.826,4.241,3.883,8.405,6.084,12.501     c0.358,0.657,0.708,1.331,1.075,1.997c2.185,3.951,4.557,7.834,7.091,11.614c0.418,0.632,0.862,1.254,1.306,1.894     c2.654,3.857,5.444,7.62,8.431,11.264c0.213,0.247,0.435,0.495,0.64,0.742c2.978,3.576,6.118,7.023,9.412,10.359     c0.247,0.256,0.469,0.538,0.725,0.794C304.077,476.245,266.795,477.867,230.4,477.867z M477.867,362.47     c0,38.724-17.818,76.783-46.498,99.328c-7.654,6.016-17.015,11.358-27.093,15.445c-1.024,0.418-2.116,0.623-3.208,0.623     c-1.195,0-2.372-0.247-3.482-0.734c-7.74-3.473-15.232-8.192-24.311-15.326c-29.773-23.415-49.007-62.396-49.007-99.336V307.2     c0-4.241,3.106-7.834,7.305-8.439c27.221-3.959,48.23-14.618,65.186-24.525c2.671-1.545,5.948-1.545,8.619,0     c16.956,9.907,37.965,20.565,65.186,24.525c4.198,0.606,7.305,4.198,7.305,8.439V362.47z"/>
		</g>
	</g>
</g>
<g>
</g>
<g>
</g>
<g>
</g>
<g>
</g>
<g>
</g>
<g>
</g>
<g>
</g>
<g>
</g>
<g>
</g>
<g>
</g>
<g>
</g>
<g>
</g>
<g>
</g>
<g>
</g>
<g>
</g>
</svg>
