<?xml version="1.0" encoding="iso-8859-1"?>
<!-- Generator: Adobe Illustrator 19.0.0, SVG Export Plug-In . SVG Version: 6.00 Build 0)  -->
<svg xmlns="http://www.w3.org/2000/svg" xmlns:xlink="http://www.w3.org/1999/xlink" version="1.1" id="Layer_1" x="0px" y="0px" viewBox="0 0 512 512" style="enable-background:new 0 0 512 512;" xml:space="preserve">
<g>
	<g>
		<g>
			<path d="M136.533,59.735h-17.067c-9.412,0-17.067,7.654-17.067,17.067v17.067c0,9.412,7.654,17.067,17.067,17.067h17.067     c9.412,0,17.067-7.654,17.067-17.067V76.802C153.6,67.39,145.946,59.735,136.533,59.735z M119.467,93.869V76.802h17.067     l0.009,17.067H119.467z"/>
			<path d="M68.267,59.735H51.2c-9.412,0-17.067,7.654-17.067,17.067v17.067c0,9.412,7.654,17.067,17.067,17.067h17.067     c9.412,0,17.067-7.654,17.067-17.067V76.802C85.333,67.39,77.679,59.735,68.267,59.735z M51.2,93.869V76.802h17.067l0.009,17.067     H51.2z"/>
			<path d="M298.667,68.269c0-4.719-3.823-8.533-8.533-8.533H179.2c-4.71,0-8.533,3.814-8.533,8.533s3.823,8.533,8.533,8.533     h110.933C294.844,76.802,298.667,72.988,298.667,68.269z"/>
			<path d="M136.533,179.202h-17.067c-9.412,0-17.067,7.654-17.067,17.067v17.067c0,9.412,7.654,17.067,17.067,17.067h17.067     c9.412,0,17.067-7.654,17.067-17.067v-17.067C153.6,186.856,145.946,179.202,136.533,179.202z M119.467,213.335v-17.067h17.067     l0.009,17.067H119.467z"/>
			<path d="M68.267,179.202H51.2c-9.412,0-17.067,7.654-17.067,17.067v17.067c0,9.412,7.654,17.067,17.067,17.067h17.067     c9.412,0,17.067-7.654,17.067-17.067v-17.067C85.333,186.856,77.679,179.202,68.267,179.202z M51.2,213.335v-17.067h17.067     l0.009,17.067H51.2z"/>
			<polygon points="221.867,196.269 221.867,213.335 238.942,213.335 238.933,196.269    "/>
			<polygon points="290.133,196.269 290.133,213.335 307.209,213.335 307.2,196.269    "/>
			<path d="M512,230.402v-68.267c0-18.825-15.309-34.133-34.133-34.133H336.589c2.935-5.043,4.745-10.829,4.745-17.067V42.669     c0-18.825-15.309-34.133-34.133-34.133H34.133C15.309,8.535,0,23.844,0,42.669v68.267c0,10.24,4.625,19.345,11.793,25.6     C4.625,142.79,0,151.895,0,162.135v68.267c0,10.24,4.625,19.345,11.793,25.6C4.625,262.257,0,271.362,0,281.602v68.267     c0,18.825,15.309,34.133,34.133,34.133h141.278c-2.935,5.043-4.745,10.829-4.745,17.067v68.267     c0,18.825,15.309,34.133,34.133,34.133h273.067c18.825,0,34.133-15.309,34.133-34.133v-68.267c0-10.24-4.625-19.345-11.793-25.6     c7.168-6.255,11.793-15.36,11.793-25.6v-68.267c0-10.24-4.625-19.345-11.793-25.6C507.375,249.747,512,240.642,512,230.402z      M349.867,179.202H460.8c4.71,0,8.533,3.814,8.533,8.533s-3.823,8.533-8.533,8.533H349.867c-4.71,0-8.533-3.814-8.533-8.533     S345.156,179.202,349.867,179.202z M85.333,324.269c0,9.412-7.654,17.067-17.067,17.067H51.2     c-9.412,0-17.067-7.654-17.067-17.067v-17.067c0-9.412,7.654-17.067,17.067-17.067h17.067c9.412,0,17.067,7.654,17.067,17.067     V324.269z M153.6,324.269c0,9.412-7.654,17.067-17.067,17.067h-17.067c-9.412,0-17.067-7.654-17.067-17.067v-17.067     c0-9.412,7.654-17.067,17.067-17.067h17.067c9.412,0,17.067,7.654,17.067,17.067V324.269z M171.29,236.529     c0.085,0.486,0.179,0.964,0.29,1.442c0.444,1.946,0.998,3.849,1.758,5.658c0.034,0.085,0.085,0.154,0.12,0.239     c0.538,1.237,1.118,2.441,1.792,3.601H34.133c-9.412,0-17.067-7.654-17.067-17.067v-68.267c0-9.412,7.654-17.067,17.067-17.067     h141.116c-0.674,1.161-1.254,2.364-1.792,3.601c-0.034,0.085-0.085,0.154-0.12,0.239c-0.759,1.809-1.314,3.712-1.758,5.658     c-0.111,0.478-0.205,0.956-0.29,1.442c-0.367,1.997-0.623,4.028-0.623,6.127v68.267     C170.667,232.501,170.923,234.532,171.29,236.529z M34.133,128.002c-9.412,0-17.067-7.654-17.067-17.067V42.669     c0-9.412,7.654-17.067,17.067-17.067H307.2c9.412,0,17.067,7.654,17.067,17.067v68.267c0,9.412-7.654,17.067-17.067,17.067H204.8     H34.133z M324.267,196.269v17.067c0,9.412-7.654,17.067-17.067,17.067h-17.067c-9.412,0-17.067-7.654-17.067-17.067v-17.067     c0-9.412,7.654-17.067,17.067-17.067H307.2C316.612,179.202,324.267,186.856,324.267,196.269z M256,196.269v17.067     c0,9.412-7.654,17.067-17.067,17.067h-17.067c-9.412,0-17.067-7.654-17.067-17.067v-17.067c0-9.412,7.654-17.067,17.067-17.067     h17.067C248.346,179.202,256,186.856,256,196.269z M256,452.269c0,9.412-7.654,17.067-17.067,17.067h-17.067     c-9.412,0-17.067-7.654-17.067-17.067v-17.067c0-9.412,7.654-17.067,17.067-17.067h17.067c9.412,0,17.067,7.654,17.067,17.067     V452.269z M324.267,452.269c0,9.412-7.654,17.067-17.067,17.067h-17.067c-9.412,0-17.067-7.654-17.067-17.067v-17.067     c0-9.412,7.654-17.067,17.067-17.067H307.2c9.412,0,17.067,7.654,17.067,17.067V452.269z M460.8,435.202H349.867     c-4.71,0-8.533-3.814-8.533-8.533s3.823-8.533,8.533-8.533H460.8c4.71,0,8.533,3.814,8.533,8.533S465.51,435.202,460.8,435.202z      M494.933,349.869c0,9.412-7.654,17.067-17.067,17.067H204.8c-9.412,0-17.067-7.654-17.067-17.067v-68.267     c0-9.412,7.654-17.067,17.067-17.067h273.067c9.412,0,17.067,7.654,17.067,17.067V349.869z"/>
			<path d="M307.2,298.669h-17.067c-9.412,0-17.067,7.654-17.067,17.067v17.067c0,9.412,7.654,17.067,17.067,17.067H307.2     c9.412,0,17.067-7.654,17.067-17.067v-17.067C324.267,306.323,316.612,298.669,307.2,298.669z M290.133,332.802v-17.067H307.2     l0.009,17.067H290.133z"/>
			<path d="M238.933,298.669h-17.067c-9.412,0-17.067,7.654-17.067,17.067v17.067c0,9.412,7.654,17.067,17.067,17.067h17.067     c9.412,0,17.067-7.654,17.067-17.067v-17.067C256,306.323,248.346,298.669,238.933,298.669z M221.867,332.802v-17.067h17.067     l0.009,17.067H221.867z"/>
			<path d="M460.8,298.669H349.867c-4.71,0-8.533,3.814-8.533,8.533s3.823,8.533,8.533,8.533H460.8c4.71,0,8.533-3.814,8.533-8.533     S465.51,298.669,460.8,298.669z"/>
			<polygon points="290.133,435.202 290.133,452.269 307.209,452.269 307.2,435.202    "/>
			<polygon points="221.867,435.202 221.867,452.269 238.942,452.269 238.933,435.202    "/>
			<path d="M384.434,62.433c1.195,3.575,4.523,5.837,8.098,5.837c0.896,0,1.809-0.145,2.705-0.444     c4.463-1.485,6.886-6.315,5.393-10.786l-4.361-13.099c23.108,4.855,41.335,23.083,46.182,46.191l-13.082-4.352     c-4.497-1.51-9.31,0.922-10.803,5.393c-1.485,4.471,0.93,9.301,5.402,10.786c5.606,1.869,11.221,3.746,16.828,5.606     c4.881,1.63,11.307,5.137,16.247,1.903c2.987-1.946,5.06-6.451,7.006-9.361c4.13-6.187,8.26-12.382,12.382-18.569     c2.611-3.925,1.553-9.216-2.364-11.836c-3.925-2.611-9.225-1.562-11.836,2.364l-4.932,7.398     c-7.509-23.927-26.436-42.854-50.372-50.364l7.407-4.932c3.917-2.62,4.975-7.91,2.364-11.836     c-2.62-3.925-7.91-4.983-11.836-2.364c-5.129,3.413-10.249,6.835-15.377,10.257c-4.122,2.739-9.216,4.898-12.186,9.045     c-1.178,1.647-1.613,3.243-1.621,4.838c-0.008,2.219,0.802,4.446,1.596,6.844C379.664,48.122,382.054,55.273,384.434,62.433z"/>
			<polygon points="119.467,307.202 119.467,324.269 136.542,324.269 136.533,307.202    "/>
			<polygon points="51.2,307.202 51.2,324.269 68.275,324.269 68.267,307.202    "/>
		</g>
	</g>
</g>
<g>
</g>
<g>
</g>
<g>
</g>
<g>
</g>
<g>
</g>
<g>
</g>
<g>
</g>
<g>
</g>
<g>
</g>
<g>
</g>
<g>
</g>
<g>
</g>
<g>
</g>
<g>
</g>
<g>
</g>
</svg>
