<?xml version="1.0" encoding="iso-8859-1"?>
<!-- Generator: Adobe Illustrator 19.0.0, SVG Export Plug-In . SVG Version: 6.00 Build 0)  -->
<svg xmlns="http://www.w3.org/2000/svg" xmlns:xlink="http://www.w3.org/1999/xlink" version="1.1" id="Layer_1" x="0px" y="0px" viewBox="0 0 512 512" style="enable-background:new 0 0 512 512;" xml:space="preserve">
<g>
	<g>
		<g>
			<path d="M119.467,392.536h17.067c9.412,0,17.067-7.654,17.067-17.067v-17.067c0-9.412-7.654-17.067-17.067-17.067h-17.067     c-9.412,0-17.067,7.654-17.067,17.067v17.067C102.4,384.882,110.054,392.536,119.467,392.536z M119.467,358.403h17.067     l0.017,17.067h-17.084V358.403z"/>
			<path d="M34.133,375.469c0,9.412,7.654,17.067,17.067,17.067h17.067c9.412,0,17.067-7.654,17.067-17.067v-17.067     c0-9.412-7.654-17.067-17.067-17.067H51.2c-9.412,0-17.067,7.654-17.067,17.067V375.469z M51.2,358.403h17.067l0.017,17.067H51.2     V358.403z"/>
			<path d="M204.8,204.803h-17.067c-9.412,0-17.067,7.654-17.067,17.067v17.067c0,9.412,7.654,17.067,17.067,17.067H204.8     c9.412,0,17.067-7.654,17.067-17.067v-17.067C221.867,212.457,214.212,204.803,204.8,204.803z M187.733,238.936v-17.067H204.8     l0.017,17.067H187.733z"/>
			<path d="M136.533,204.803h-17.067c-9.412,0-17.067,7.654-17.067,17.067v17.067c0,9.412,7.654,17.067,17.067,17.067h17.067     c9.412,0,17.067-7.654,17.067-17.067v-17.067C153.6,212.457,145.946,204.803,136.533,204.803z M119.467,238.936v-17.067h17.067     l0.017,17.067H119.467z"/>
			<path d="M68.267,204.803H51.2c-9.412,0-17.067,7.654-17.067,17.067v17.067c0,9.412,7.654,17.067,17.067,17.067h17.067     c9.412,0,17.067-7.654,17.067-17.067v-17.067C85.333,212.457,77.679,204.803,68.267,204.803z M51.2,238.936v-17.067h17.067     l0.017,17.067H51.2z"/>
			<polygon points="204.8,85.336 187.733,85.336 187.733,102.403 204.817,102.403    "/>
			<polygon points="68.267,85.336 51.2,85.336 51.2,102.403 68.284,102.403    "/>
			<polygon points="136.533,85.336 119.467,85.336 119.467,102.403 136.55,102.403    "/>
			<path d="M315.733,204.803h-42.667c-4.719,0-8.533,3.814-8.533,8.533c0,4.719,3.814,8.533,8.533,8.533h42.667     c4.719,0,8.533-3.814,8.533-8.533C324.267,208.617,320.452,204.803,315.733,204.803z"/>
			<path d="M409.6,310.619c0-20.71-19.14-37.547-42.667-37.547s-42.667,16.836-42.667,37.547v13.653H409.6V310.619z"/>
			<path d="M420.719,341.336h-2.586h-102.4h-2.586c-7.979,0-14.481,6.502-14.481,14.481v73.438c0,7.979,6.502,14.481,14.481,14.481     h107.571c7.979,0,14.481-6.502,14.481-14.481v-73.438C435.2,347.838,428.698,341.336,420.719,341.336z M375.467,392.536     c0,4.719-3.814,8.533-8.533,8.533s-8.533-3.814-8.533-8.533v-17.067c0-4.719,3.814-8.533,8.533-8.533s8.533,3.814,8.533,8.533     V392.536z"/>
			<path d="M474.658,270.123c2.048-4.437,3.209-9.207,3.209-14.123v-85.333c0-10.24-4.625-19.337-11.793-25.6     c7.168-6.255,11.793-15.36,11.793-25.6V34.133C477.867,15.309,462.558,0,443.733,0h-409.6C15.309,0,0,15.309,0,34.133v85.333     c0,10.24,4.625,19.345,11.793,25.6C4.625,151.33,0,160.427,0,170.667V256c0,10.24,4.625,19.345,11.793,25.6     C4.625,287.863,0,296.96,0,307.2v85.333c0,18.825,15.309,34.133,34.133,34.133H234.88C257.707,476.911,308.25,512,366.933,512     C446.925,512,512,446.925,512,366.933C512,329.711,497.784,295.825,474.658,270.123z M273.067,68.267h153.6     c4.719,0,8.533,3.823,8.533,8.533c0,4.719-3.814,8.533-8.533,8.533h-153.6c-4.719,0-8.533-3.814-8.533-8.533     C264.533,72.09,268.348,68.267,273.067,68.267z M170.667,85.333c0-9.404,7.654-17.067,17.067-17.067H204.8     c9.412,0,17.067,7.663,17.067,17.067V102.4c0,9.412-7.654,17.067-17.067,17.067h-17.067c-9.412,0-17.067-7.654-17.067-17.067     V85.333z M102.4,85.333c0-9.404,7.654-17.067,17.067-17.067h17.067c9.412,0,17.067,7.663,17.067,17.067V102.4     c0,9.412-7.654,17.067-17.067,17.067h-17.067c-9.412,0-17.067-7.654-17.067-17.067V85.333z M34.133,85.333     c0-9.404,7.654-17.067,17.067-17.067h17.067c9.412,0,17.067,7.663,17.067,17.067V102.4c0,9.412-7.654,17.067-17.067,17.067H51.2     c-9.412,0-17.067-7.654-17.067-17.067V85.333z M239.778,297.233c-0.154,0.265-0.307,0.512-0.452,0.776     c-2.159,3.959-4.104,8.021-5.862,12.143c-0.154,0.358-0.29,0.725-0.435,1.084c-1.638,3.9-3.089,7.868-4.369,11.887     c-0.119,0.384-0.247,0.759-0.367,1.143c-1.357,4.42-2.543,8.892-3.465,13.44c-0.009,0.043-0.009,0.085-0.026,0.128     c-0.853,4.19-1.468,8.44-1.946,12.732c-0.111,0.998-0.222,1.988-0.316,2.978c-0.401,4.42-0.674,8.883-0.674,13.389     c0,4.412,0.265,8.798,0.666,13.15c0.128,1.425,0.307,2.825,0.478,4.233c0.358,2.944,0.811,5.862,1.34,8.781     c0.29,1.562,0.555,3.14,0.896,4.693c0.7,3.174,1.519,6.315,2.432,9.438c0.23,0.785,0.375,1.596,0.614,2.372H34.133     c-9.412,0-17.067-7.654-17.067-17.067V307.2c0-9.404,7.654-17.067,17.067-17.067H243.9     C242.432,292.463,241.092,294.844,239.778,297.233z M452.267,429.252c0,17.399-14.148,31.548-31.548,31.548H313.148     c-17.399,0-31.548-14.148-31.548-31.548v-73.429c0-15.369,11.042-28.151,25.6-30.95v-14.251     c0-30.123,26.803-54.622,59.733-54.622c32.93,0,59.733,24.499,59.733,54.622v14.251c14.558,2.799,25.6,15.582,25.6,30.95V429.252     z M460.8,256v0.367c-0.401-0.341-0.836-0.631-1.246-0.964c-0.674-0.555-1.382-1.067-2.065-1.613     c-2.91-2.338-5.854-4.582-8.909-6.673c-0.708-0.478-1.451-0.922-2.167-1.399c-3.115-2.048-6.281-3.994-9.532-5.794     c-0.785-0.427-1.587-0.836-2.381-1.254c-3.234-1.707-6.519-3.311-9.865-4.762c-0.939-0.401-1.886-0.794-2.833-1.186     c-3.251-1.331-6.545-2.534-9.882-3.627c-1.126-0.367-2.244-0.734-3.388-1.075c-3.234-0.964-6.502-1.792-9.796-2.526     c-1.297-0.29-2.56-0.606-3.866-0.862c-3.328-0.657-6.707-1.126-10.086-1.544c-1.28-0.162-2.526-0.384-3.806-0.512     c-4.634-0.435-9.318-0.708-14.046-0.708c-5.18,0-10.3,0.299-15.351,0.836c-1.784,0.179-3.516,0.555-5.282,0.811     c-3.226,0.452-6.46,0.905-9.617,1.579c-2.193,0.469-4.326,1.109-6.494,1.673c-2.628,0.691-5.274,1.357-7.842,2.185     c-2.364,0.759-4.659,1.681-6.972,2.56c-2.278,0.87-4.548,1.724-6.767,2.705c-2.381,1.05-4.702,2.202-7.014,3.379     c-2.065,1.05-4.122,2.108-6.127,3.26c-2.261,1.28-4.463,2.637-6.656,4.045c-2.022,1.297-3.985,2.637-5.931,4.019     c-2.005,1.434-3.985,2.893-5.931,4.446c-2.108,1.673-4.13,3.43-6.144,5.222c-1.613,1.442-3.251,2.85-4.813,4.378     c-2.423,2.355-4.719,4.847-6.972,7.364c-0.845,0.939-1.775,1.775-2.594,2.739H34.133c-9.412,0-17.067-7.654-17.067-17.067     v-85.333c0-9.404,7.654-17.067,17.067-17.067h409.6c9.412,0,17.067,7.663,17.067,17.067V256z"/>
		</g>
	</g>
</g>
<g>
</g>
<g>
</g>
<g>
</g>
<g>
</g>
<g>
</g>
<g>
</g>
<g>
</g>
<g>
</g>
<g>
</g>
<g>
</g>
<g>
</g>
<g>
</g>
<g>
</g>
<g>
</g>
<g>
</g>
</svg>
