<?xml version="1.0" encoding="iso-8859-1"?>
<!-- Generator: Adobe Illustrator 19.0.0, SVG Export Plug-In . SVG Version: 6.00 Build 0)  -->
<svg xmlns="http://www.w3.org/2000/svg" xmlns:xlink="http://www.w3.org/1999/xlink" version="1.1" id="Layer_1" x="0px" y="0px" viewBox="0 0 512 512" style="enable-background:new 0 0 512 512;" xml:space="preserve">
<g>
	<g>
		<path d="M401.067,0H110.933C49.766,0,0,49.766,0,110.933v290.133C0,462.234,49.766,512,110.933,512h290.133    C462.234,512,512,462.234,512,401.067V110.933C512,49.766,462.234,0,401.067,0z M162.133,281.6h-102.4    c-4.719,0-8.533-3.814-8.533-8.533c0-4.719,3.814-8.533,8.533-8.533h102.4c4.719,0,8.533,3.814,8.533,8.533    C170.667,277.786,166.852,281.6,162.133,281.6z M162.133,247.467h-102.4c-4.719,0-8.533-3.814-8.533-8.533    s3.814-8.533,8.533-8.533h102.4c4.719,0,8.533,3.814,8.533,8.533S166.852,247.467,162.133,247.467z M307.2,281.6H204.8    c-4.719,0-8.533-3.814-8.533-8.533c0-4.719,3.814-8.533,8.533-8.533h102.4c4.719,0,8.533,3.814,8.533,8.533    C315.733,277.786,311.919,281.6,307.2,281.6z M307.2,247.467H204.8c-4.719,0-8.533-3.814-8.533-8.533s3.814-8.533,8.533-8.533    h102.4c4.719,0,8.533,3.814,8.533,8.533S311.919,247.467,307.2,247.467z M452.267,281.6h-102.4c-4.719,0-8.533-3.814-8.533-8.533    c0-4.719,3.814-8.533,8.533-8.533h102.4c4.719,0,8.533,3.814,8.533,8.533C460.8,277.786,456.986,281.6,452.267,281.6z     M452.267,247.467h-102.4c-4.719,0-8.533-3.814-8.533-8.533s3.814-8.533,8.533-8.533h102.4c4.719,0,8.533,3.814,8.533,8.533    S456.986,247.467,452.267,247.467z"/>
	</g>
</g>
<g>
</g>
<g>
</g>
<g>
</g>
<g>
</g>
<g>
</g>
<g>
</g>
<g>
</g>
<g>
</g>
<g>
</g>
<g>
</g>
<g>
</g>
<g>
</g>
<g>
</g>
<g>
</g>
<g>
</g>
</svg>
