<?xml version="1.0" encoding="iso-8859-1"?>
<!-- Generator: Adobe Illustrator 19.0.0, SVG Export Plug-In . SVG Version: 6.00 Build 0)  -->
<svg xmlns="http://www.w3.org/2000/svg" xmlns:xlink="http://www.w3.org/1999/xlink" version="1.1" id="Layer_1" x="0px" y="0px" viewBox="0 0 512 512" style="enable-background:new 0 0 512 512;" xml:space="preserve">
<g>
	<g>
		<path d="M401.067,0H110.933C49.766,0,0,49.766,0,110.933v290.133C0,462.234,49.766,512,110.933,512h290.133    C462.234,512,512,462.234,512,401.067V110.933C512,49.766,462.234,0,401.067,0z M236.075,339.174    c-1.63,1.451-3.652,2.159-5.675,2.159c-2.347,0-4.693-0.964-6.374-2.859l-68.267-76.74c-2.876-3.234-2.876-8.098-0.009-11.341    l68.19-76.86c3.123-3.524,8.516-3.84,12.049-0.717c3.524,3.123,3.849,8.525,0.717,12.049l-63.164,71.185l63.232,71.074    C239.906,330.65,239.59,336.043,236.075,339.174z M349.867,281.6h-102.4c-4.71,0-8.533-3.814-8.533-8.533    c0-4.719,3.823-8.533,8.533-8.533h102.4c4.71,0,8.533,3.814,8.533,8.533C358.4,277.786,354.577,281.6,349.867,281.6z     M349.867,247.467h-102.4c-4.71,0-8.533-3.814-8.533-8.533s3.823-8.533,8.533-8.533h102.4c4.71,0,8.533,3.814,8.533,8.533    S354.577,247.467,349.867,247.467z"/>
	</g>
</g>
<g>
</g>
<g>
</g>
<g>
</g>
<g>
</g>
<g>
</g>
<g>
</g>
<g>
</g>
<g>
</g>
<g>
</g>
<g>
</g>
<g>
</g>
<g>
</g>
<g>
</g>
<g>
</g>
<g>
</g>
</svg>
