<?xml version="1.0" encoding="iso-8859-1"?>
<!-- Generator: Adobe Illustrator 19.0.0, SVG Export Plug-In . SVG Version: 6.00 Build 0)  -->
<svg xmlns="http://www.w3.org/2000/svg" xmlns:xlink="http://www.w3.org/1999/xlink" version="1.1" id="Layer_1" x="0px" y="0px" viewBox="0 0 512 512" style="enable-background:new 0 0 512 512;" xml:space="preserve">
<g>
	<g>
		<g>
			<path d="M503.467,0H366.933c-4.71,0-8.533,3.814-8.533,8.533v59.733c-4.71,0-8.533,3.814-8.533,8.533s3.823,8.533,8.533,8.533     v59.733c0,4.719,3.823,8.533,8.533,8.533h59.733v8.533c0,4.719,3.823,8.533,8.533,8.533s8.533-3.814,8.533-8.533V153.6h59.733     c4.71,0,8.533-3.814,8.533-8.533V8.533C512,3.814,508.177,0,503.467,0z"/>
			<path d="M34.133,128h34.133v8.533c0,4.719,3.823,8.533,8.533,8.533s8.533-3.814,8.533-8.533V128h34.133     c4.71,0,8.533-3.814,8.533-8.533V85.333h8.533c4.71,0,8.533-3.814,8.533-8.533s-3.823-8.533-8.533-8.533H128V34.133     c0-4.719-3.823-8.533-8.533-8.533H34.133c-4.71,0-8.533,3.814-8.533,8.533v85.333C25.6,124.186,29.423,128,34.133,128z"/>
			<path d="M477.867,384h-34.133c0-4.719-3.823-8.533-8.533-8.533s-8.533,3.814-8.533,8.533h-34.133     c-4.71,0-8.533,3.814-8.533,8.533v34.133c-4.71,0-8.533,3.814-8.533,8.533s3.823,8.533,8.533,8.533v34.133     c0,4.719,3.823,8.533,8.533,8.533h85.333c4.71,0,8.533-3.814,8.533-8.533v-85.333C486.4,387.814,482.577,384,477.867,384z"/>
			<path d="M85.333,179.2c0-4.719-3.823-8.533-8.533-8.533s-8.533,3.814-8.533,8.533v17.067c0,4.719,3.823,8.533,8.533,8.533     s8.533-3.814,8.533-8.533V179.2z"/>
			<path d="M76.8,290.133c-4.71,0-8.533,3.814-8.533,8.533v17.067c0,4.719,3.823,8.533,8.533,8.533s8.533-3.814,8.533-8.533v-17.067     C85.333,293.948,81.51,290.133,76.8,290.133z"/>
			<path d="M85.333,238.933c0-4.719-3.823-8.533-8.533-8.533s-8.533,3.814-8.533,8.533V256c0,4.719,3.823,8.533,8.533,8.533     s8.533-3.814,8.533-8.533V238.933z"/>
			<path d="M426.667,281.6c0,4.719,3.823,8.533,8.533,8.533s8.533-3.814,8.533-8.533v-17.067c0-4.719-3.823-8.533-8.533-8.533     s-8.533,3.814-8.533,8.533V281.6z"/>
			<path d="M426.667,341.333c0,4.719,3.823,8.533,8.533,8.533s8.533-3.814,8.533-8.533v-17.067c0-4.719-3.823-8.533-8.533-8.533     s-8.533,3.814-8.533,8.533V341.333z"/>
			<path d="M435.2,230.4c4.71,0,8.533-3.814,8.533-8.533V204.8c0-4.719-3.823-8.533-8.533-8.533s-8.533,3.814-8.533,8.533v17.067     C426.667,226.586,430.49,230.4,435.2,230.4z"/>
			<path d="M298.667,85.333h17.067c4.71,0,8.533-3.814,8.533-8.533s-3.823-8.533-8.533-8.533h-17.067     c-4.71,0-8.533,3.814-8.533,8.533S293.956,85.333,298.667,85.333z"/>
			<path d="M238.933,85.333H256c4.71,0,8.533-3.814,8.533-8.533s-3.823-8.533-8.533-8.533h-17.067c-4.71,0-8.533,3.814-8.533,8.533     S234.223,85.333,238.933,85.333z"/>
			<path d="M179.2,85.333h17.067c4.71,0,8.533-3.814,8.533-8.533s-3.823-8.533-8.533-8.533H179.2c-4.71,0-8.533,3.814-8.533,8.533     S174.49,85.333,179.2,85.333z"/>
			<path d="M281.6,426.667h-17.067c-4.71,0-8.533,3.814-8.533,8.533s3.823,8.533,8.533,8.533H281.6c4.71,0,8.533-3.814,8.533-8.533     S286.31,426.667,281.6,426.667z"/>
			<path d="M221.867,426.667H204.8c-4.71,0-8.533,3.814-8.533,8.533s3.823,8.533,8.533,8.533h17.067c4.71,0,8.533-3.814,8.533-8.533     S226.577,426.667,221.867,426.667z"/>
			<path d="M341.333,426.667h-17.067c-4.71,0-8.533,3.814-8.533,8.533s3.823,8.533,8.533,8.533h17.067     c4.71,0,8.533-3.814,8.533-8.533S346.044,426.667,341.333,426.667z"/>
			<path d="M162.133,426.667H153.6v-59.733c0-4.719-3.823-8.533-8.533-8.533H85.333c0-4.719-3.823-8.533-8.533-8.533     s-8.533,3.814-8.533,8.533H8.533c-4.71,0-8.533,3.814-8.533,8.533v136.533C0,508.186,3.823,512,8.533,512h136.533     c4.71,0,8.533-3.814,8.533-8.533v-59.733h8.533c4.71,0,8.533-3.814,8.533-8.533S166.844,426.667,162.133,426.667z"/>
			<path d="M341.333,162.133h-102.4c-3.447,0-6.562,2.074-7.885,5.265c-1.323,3.191-0.589,6.861,1.852,9.301l45.167,45.167     L156.1,343.834c-3.337,3.336-3.337,8.73,0,12.066c1.664,1.664,3.849,2.5,6.033,2.5c2.185,0,4.369-0.836,6.033-2.5     l121.967-121.967L335.3,279.1c1.63,1.63,3.814,2.5,6.033,2.5c1.101,0,2.21-0.205,3.268-0.649     c3.183-1.314,5.265-4.437,5.265-7.885v-102.4C349.867,165.948,346.044,162.133,341.333,162.133z"/>
		</g>
	</g>
</g>
<g>
</g>
<g>
</g>
<g>
</g>
<g>
</g>
<g>
</g>
<g>
</g>
<g>
</g>
<g>
</g>
<g>
</g>
<g>
</g>
<g>
</g>
<g>
</g>
<g>
</g>
<g>
</g>
<g>
</g>
</svg>
