<?xml version="1.0" encoding="iso-8859-1"?>
<!-- Generator: Adobe Illustrator 19.0.0, SVG Export Plug-In . SVG Version: 6.00 Build 0)  -->
<svg xmlns="http://www.w3.org/2000/svg" xmlns:xlink="http://www.w3.org/1999/xlink" version="1.1" id="Layer_1" x="0px" y="0px" viewBox="0 0 512 512" style="enable-background:new 0 0 512 512;" xml:space="preserve">
<g>
	<g>
		<g>
			<path d="M503.467,358.4h-59.733c0-4.719-3.823-8.533-8.533-8.533s-8.533,3.814-8.533,8.533h-59.733     c-4.71,0-8.533,3.814-8.533,8.533v59.733h-8.533c-4.71,0-8.533,3.814-8.533,8.533s3.823,8.533,8.533,8.533h8.533v59.733     c0,4.719,3.823,8.533,8.533,8.533h136.533c4.71,0,8.533-3.814,8.533-8.533V366.933C512,362.214,508.177,358.4,503.467,358.4z"/>
			<path d="M443.733,238.933c0-4.719-3.823-8.533-8.533-8.533s-8.533,3.814-8.533,8.533V256c0,4.719,3.823,8.533,8.533,8.533     s8.533-3.814,8.533-8.533V238.933z"/>
			<path d="M443.733,179.2c0-4.719-3.823-8.533-8.533-8.533s-8.533,3.814-8.533,8.533v17.067c0,4.719,3.823,8.533,8.533,8.533     s8.533-3.814,8.533-8.533V179.2z"/>
			<path d="M435.2,290.133c-4.71,0-8.533,3.814-8.533,8.533v17.067c0,4.719,3.823,8.533,8.533,8.533s8.533-3.814,8.533-8.533     v-17.067C443.733,293.948,439.91,290.133,435.2,290.133z"/>
			<path d="M68.267,281.6c0,4.719,3.823,8.533,8.533,8.533s8.533-3.814,8.533-8.533v-17.067c0-4.719-3.823-8.533-8.533-8.533     s-8.533,3.814-8.533,8.533V281.6z"/>
			<path d="M68.267,341.333c0,4.719,3.823,8.533,8.533,8.533s8.533-3.814,8.533-8.533v-17.067c0-4.719-3.823-8.533-8.533-8.533     s-8.533,3.814-8.533,8.533V341.333z"/>
			<path d="M76.8,230.4c4.71,0,8.533-3.814,8.533-8.533V204.8c0-4.719-3.823-8.533-8.533-8.533s-8.533,3.814-8.533,8.533v17.067     C68.267,226.586,72.09,230.4,76.8,230.4z"/>
			<path d="M256,85.333h17.067c4.71,0,8.533-3.814,8.533-8.533s-3.823-8.533-8.533-8.533H256c-4.71,0-8.533,3.814-8.533,8.533     S251.29,85.333,256,85.333z"/>
			<path d="M315.733,85.333H332.8c4.71,0,8.533-3.814,8.533-8.533s-3.823-8.533-8.533-8.533h-17.067     c-4.71,0-8.533,3.814-8.533,8.533S311.023,85.333,315.733,85.333z"/>
			<path d="M375.467,85.333H384v34.133c0,4.719,3.823,8.533,8.533,8.533h34.133v8.533c0,4.719,3.823,8.533,8.533,8.533     s8.533-3.814,8.533-8.533V128h34.133c4.71,0,8.533-3.814,8.533-8.533V34.133c0-4.719-3.823-8.533-8.533-8.533h-85.333     c-4.71,0-8.533,3.814-8.533,8.533v34.133h-8.533c-4.71,0-8.533,3.814-8.533,8.533S370.756,85.333,375.467,85.333z"/>
			<path d="M196.267,85.333h17.067c4.71,0,8.533-3.814,8.533-8.533s-3.823-8.533-8.533-8.533h-17.067     c-4.71,0-8.533,3.814-8.533,8.533S191.556,85.333,196.267,85.333z"/>
			<path d="M153.6,68.267V8.533c0-4.719-3.823-8.533-8.533-8.533H8.533C3.823,0,0,3.814,0,8.533v136.533     c0,4.719,3.823,8.533,8.533,8.533h59.733v8.533c0,4.719,3.823,8.533,8.533,8.533s8.533-3.814,8.533-8.533V153.6h59.733     c4.71,0,8.533-3.814,8.533-8.533V85.333c4.71,0,8.533-3.814,8.533-8.533S158.31,68.267,153.6,68.267z"/>
			<path d="M247.467,426.667H230.4c-4.71,0-8.533,3.814-8.533,8.533s3.823,8.533,8.533,8.533h17.067c4.71,0,8.533-3.814,8.533-8.533     S252.177,426.667,247.467,426.667z"/>
			<path d="M187.733,426.667h-17.067c-4.71,0-8.533,3.814-8.533,8.533s3.823,8.533,8.533,8.533h17.067     c4.71,0,8.533-3.814,8.533-8.533S192.444,426.667,187.733,426.667z"/>
			<path d="M307.2,426.667h-17.067c-4.71,0-8.533,3.814-8.533,8.533s3.823,8.533,8.533,8.533H307.2c4.71,0,8.533-3.814,8.533-8.533     S311.91,426.667,307.2,426.667z"/>
			<path d="M128,426.667v-34.133c0-4.719-3.823-8.533-8.533-8.533H85.333c0-4.719-3.823-8.533-8.533-8.533s-8.533,3.814-8.533,8.533     H34.133c-4.71,0-8.533,3.814-8.533,8.533v85.333c0,4.719,3.823,8.533,8.533,8.533h85.333c4.71,0,8.533-3.814,8.533-8.533v-34.133     c4.71,0,8.533-3.814,8.533-8.533S132.71,426.667,128,426.667z"/>
			<path d="M162.133,273.067c0,3.448,2.082,6.571,5.265,7.885c1.058,0.444,2.167,0.649,3.268,0.649c2.219,0,4.403-0.87,6.033-2.5     l45.167-45.167L343.834,355.9c1.664,1.664,3.849,2.5,6.033,2.5c2.185,0,4.369-0.836,6.033-2.5c3.336-3.337,3.336-8.73,0-12.066     L233.933,221.867L279.1,176.7c2.441-2.441,3.174-6.11,1.852-9.301c-1.323-3.191-4.437-5.265-7.885-5.265h-102.4     c-4.71,0-8.533,3.814-8.533,8.533V273.067z"/>
		</g>
	</g>
</g>
<g>
</g>
<g>
</g>
<g>
</g>
<g>
</g>
<g>
</g>
<g>
</g>
<g>
</g>
<g>
</g>
<g>
</g>
<g>
</g>
<g>
</g>
<g>
</g>
<g>
</g>
<g>
</g>
<g>
</g>
</svg>
