<?xml version="1.0" encoding="iso-8859-1"?>
<!-- Generator: Adobe Illustrator 19.0.0, SVG Export Plug-In . SVG Version: 6.00 Build 0)  -->
<svg xmlns="http://www.w3.org/2000/svg" xmlns:xlink="http://www.w3.org/1999/xlink" version="1.1" id="Layer_1" x="0px" y="0px" viewBox="0 0 512.107 512.107" style="enable-background:new 0 0 512.107 512.107;" xml:space="preserve">
<g transform="translate(-1)">
	<g>
		<g>
			<path d="M176.142,119.607L79.767,256.141l96.375,136.533H337.96l96.384-136.533L337.96,119.607H176.142z M366.188,261.38     l-59.733,76.8c-1.613,2.074-4.096,3.294-6.733,3.294h-85.333c-2.637,0-5.12-1.22-6.733-3.294l-59.733-76.8     c-2.398-3.081-2.398-7.398,0-10.487l59.733-76.8c1.613-2.074,4.096-3.285,6.733-3.285h85.333c2.637,0,5.12,1.212,6.733,3.285     l59.733,76.8C368.586,253.982,368.586,258.3,366.188,261.38z"/>
			<polygon points="218.563,187.871 165.46,256.138 218.563,324.405 295.542,324.405 348.645,256.138 295.542,187.871    "/>
			<path d="M509.935,171.463L305.007,5.728c-2.304-1.869-5.385-2.398-8.166-1.425L47.846,90.754     c-2.927,1.015-5.077,3.533-5.606,6.588L1.126,332.709c-0.529,3.046,0.631,6.144,3.038,8.098L208.136,506.37     c1.544,1.254,3.447,1.911,5.376,1.911c0.93,0,1.877-0.154,2.782-0.469l249.95-86.281c2.935-1.015,5.094-3.541,5.623-6.605     l41.114-235.366C513.51,176.514,512.349,173.417,509.935,171.463z M451.763,261.063l-102.4,145.067     c-1.604,2.261-4.198,3.61-6.972,3.61H171.724c-2.782,0-5.376-1.348-6.98-3.61l-102.4-145.067c-2.074-2.953-2.074-6.904,0-9.847     l102.4-145.067c1.604-2.261,4.198-3.61,6.98-3.61h170.667c2.773,0,5.367,1.348,6.972,3.61l102.4,145.067     C453.836,254.159,453.836,258.11,451.763,261.063z"/>
		</g>
	</g>
</g>
<g>
</g>
<g>
</g>
<g>
</g>
<g>
</g>
<g>
</g>
<g>
</g>
<g>
</g>
<g>
</g>
<g>
</g>
<g>
</g>
<g>
</g>
<g>
</g>
<g>
</g>
<g>
</g>
<g>
</g>
</svg>
