<?xml version="1.0" encoding="iso-8859-1"?>
<!-- Generator: Adobe Illustrator 19.0.0, SVG Export Plug-In . SVG Version: 6.00 Build 0)  -->
<svg xmlns="http://www.w3.org/2000/svg" xmlns:xlink="http://www.w3.org/1999/xlink" version="1.1" id="Layer_1" x="0px" y="0px" viewBox="0 0 512 512" style="enable-background:new 0 0 512 512;" xml:space="preserve">
<g>
	<g>
		<g>
			<path d="M0,486.4C0,500.514,11.486,512,25.6,512h460.8c14.114,0,25.6-11.486,25.6-25.6V85.333H0V486.4z M247.467,281.6h-34.133     c-4.719,0-8.533-3.814-8.533-8.533c0-4.719,3.814-8.533,8.533-8.533h34.133c4.719,0,8.533,3.814,8.533,8.533     C256,277.786,252.186,281.6,247.467,281.6z M247.467,230.4h-85.333c-4.719,0-8.533-3.814-8.533-8.533s3.814-8.533,8.533-8.533     h85.333c4.719,0,8.533,3.814,8.533,8.533S252.186,230.4,247.467,230.4z M247.467,179.2h-34.133c-4.719,0-8.533-3.814-8.533-8.533     s3.814-8.533,8.533-8.533h34.133c4.719,0,8.533,3.814,8.533,8.533S252.186,179.2,247.467,179.2z M162.133,110.933h110.933     c4.719,0,8.533,3.814,8.533,8.533S277.786,128,273.067,128H162.133c-4.719,0-8.533-3.814-8.533-8.533     S157.414,110.933,162.133,110.933z M51.2,110.933h59.733c4.719,0,8.533,3.814,8.533,8.533S115.652,128,110.933,128H51.2     c-4.719,0-8.533-3.814-8.533-8.533S46.481,110.933,51.2,110.933z M51.2,162.133h110.933c4.719,0,8.533,3.814,8.533,8.533     s-3.814,8.533-8.533,8.533H51.2c-4.719,0-8.533-3.814-8.533-8.533S46.481,162.133,51.2,162.133z M51.2,213.333h59.733     c4.719,0,8.533,3.814,8.533,8.533s-3.814,8.533-8.533,8.533H51.2c-4.719,0-8.533-3.814-8.533-8.533S46.481,213.333,51.2,213.333z      M51.2,264.533h110.933c4.719,0,8.533,3.814,8.533,8.533c0,4.719-3.814,8.533-8.533,8.533H51.2c-4.719,0-8.533-3.814-8.533-8.533     C42.667,268.348,46.481,264.533,51.2,264.533z M70.767,381.5c-1.613-1.604-2.509-3.78-2.5-6.059l0.068-25.6     c0-9.387-7.689-17.041-17.135-17.041c-4.719,0-8.533-3.814-8.533-8.533c0-4.719,3.814-8.533,8.533-8.533     c18.859,0,34.202,15.309,34.202,34.133l-0.06,22.076L99.9,386.5c3.337,3.336,3.337,8.73,0,12.066l-14.566,14.566V435.2     c0,18.825-15.309,34.133-34.133,34.133c-4.719,0-8.533-3.814-8.533-8.533c0-4.719,3.814-8.533,8.533-8.533     c9.412,0,17.067-7.654,17.067-17.067v-25.6c0-2.27,0.896-4.437,2.5-6.033l11.034-11.034L70.767,381.5z"/>
			<path d="M486.4,0H25.6C11.486,0,0,11.486,0,25.6v42.667h512V25.6C512,11.486,500.514,0,486.4,0z M42.667,51.2     c-4.719,0-8.533-3.814-8.533-8.533s3.814-8.533,8.533-8.533s8.533,3.814,8.533,8.533S47.386,51.2,42.667,51.2z M76.8,51.2     c-4.719,0-8.533-3.814-8.533-8.533s3.814-8.533,8.533-8.533s8.533,3.814,8.533,8.533S81.519,51.2,76.8,51.2z M110.933,51.2     c-4.719,0-8.533-3.814-8.533-8.533s3.814-8.533,8.533-8.533s8.533,3.814,8.533,8.533S115.652,51.2,110.933,51.2z"/>
		</g>
	</g>
</g>
<g>
</g>
<g>
</g>
<g>
</g>
<g>
</g>
<g>
</g>
<g>
</g>
<g>
</g>
<g>
</g>
<g>
</g>
<g>
</g>
<g>
</g>
<g>
</g>
<g>
</g>
<g>
</g>
<g>
</g>
</svg>
