<?xml version="1.0" encoding="iso-8859-1"?>
<!-- Generator: Adobe Illustrator 19.0.0, SVG Export Plug-In . SVG Version: 6.00 Build 0)  -->
<svg xmlns="http://www.w3.org/2000/svg" xmlns:xlink="http://www.w3.org/1999/xlink" version="1.1" id="Layer_1" x="0px" y="0px" viewBox="0 0 512 512" style="enable-background:new 0 0 512 512;" xml:space="preserve">
<g>
	<g>
		<g>
			<path d="M498.534,392.533h-3.601V102.4c0-18.825-15.309-34.133-34.133-34.133H51.2c-18.825,0-34.133,15.309-34.133,34.133     v290.133h-3.601C6.042,392.533,0,398.575,0,405.999v24.269c0,7.424,6.042,13.466,13.466,13.466h485.069     c7.424,0,13.466-6.042,13.466-13.466v-24.269C512,398.575,505.958,392.533,498.534,392.533z M51.2,110.933     c0-4.719,3.823-8.533,8.533-8.533h392.533c4.71,0,8.533,3.814,8.533,8.533v256c0,4.719-3.823,8.533-8.533,8.533H59.733     c-4.71,0-8.533-3.814-8.533-8.533V110.933z M494.933,426.667H17.067V409.6h192.068c3.968,5.265,10.223,8.533,16.998,8.533H294.4     c6.775,0,13.03-3.268,16.998-8.533h183.535V426.667z"/>
			<path d="M443.736,119.465H68.269v238.933h375.467V119.465z M176.003,288.254c-1.57,1.271-3.465,1.877-5.333,1.877     c-2.5,0-4.975-1.092-6.665-3.2l-34.133-42.607c-2.492-3.115-2.5-7.543-0.009-10.658l34.133-42.726     c2.944-3.686,8.32-4.292,11.998-1.34c3.678,2.944,4.284,8.311,1.34,11.989l-29.875,37.393l29.867,37.282     C180.278,279.943,179.68,285.319,176.003,288.254z M204.803,290.132c-4.719,0-8.533-3.814-8.533-8.533     c0-4.719,3.814-8.533,8.533-8.533c4.71,0,8.533,3.814,8.533,8.533C213.336,286.317,209.513,290.132,204.803,290.132z      M213.336,247.465c0,4.719-3.823,8.533-8.533,8.533c-4.719,0-8.533-3.814-8.533-8.533v-51.2c0-4.719,3.814-8.533,8.533-8.533     c4.71,0,8.533,3.814,8.533,8.533V247.465z M256.003,290.132h-17.067c-4.719,0-8.533-3.814-8.533-8.533     c0-4.719,3.814-8.533,8.533-8.533h17.067c4.71,0,8.533,3.814,8.533,8.533C264.536,286.317,260.713,290.132,256.003,290.132z      M307.203,290.132h-17.067c-4.719,0-8.533-3.814-8.533-8.533c0-4.719,3.814-8.533,8.533-8.533h17.067     c4.71,0,8.533,3.814,8.533,8.533C315.736,286.317,311.913,290.132,307.203,290.132z M382.125,244.325l-34.133,42.607     c-1.681,2.108-4.164,3.2-6.665,3.2c-1.869,0-3.755-0.606-5.325-1.877c-3.678-2.935-4.275-8.312-1.331-11.989l29.867-37.282     l-29.875-37.393c-2.935-3.678-2.338-9.045,1.348-11.989c3.678-2.935,9.054-2.338,11.989,1.34l34.133,42.726     C384.625,236.781,384.617,241.21,382.125,244.325z"/>
		</g>
	</g>
</g>
<g>
</g>
<g>
</g>
<g>
</g>
<g>
</g>
<g>
</g>
<g>
</g>
<g>
</g>
<g>
</g>
<g>
</g>
<g>
</g>
<g>
</g>
<g>
</g>
<g>
</g>
<g>
</g>
<g>
</g>
</svg>
