<?xml version="1.0" encoding="iso-8859-1"?>
<!-- Generator: Adobe Illustrator 19.0.0, SVG Export Plug-In . SVG Version: 6.00 Build 0)  -->
<svg xmlns="http://www.w3.org/2000/svg" xmlns:xlink="http://www.w3.org/1999/xlink" version="1.1" id="Layer_1" x="0px" y="0px" viewBox="0 0 512 512" style="enable-background:new 0 0 512 512;" xml:space="preserve">
<g>
	<g>
		<g>
			<path d="M392.533,76.8H119.467v375.467h273.067V76.8z M138.402,139.802l34.133-42.726c2.935-3.686,8.303-4.292,11.989-1.34     c3.686,2.935,4.284,8.303,1.34,11.989l-29.867,37.393l29.858,37.282c2.953,3.678,2.355,9.054-1.323,11.989     c-1.57,1.271-3.456,1.877-5.333,1.877c-2.492,0-4.975-1.092-6.656-3.2l-34.133-42.607     C135.91,147.345,135.91,142.916,138.402,139.802z M193.766,364.433L179.2,379v22.067c0,18.825-15.309,34.133-34.133,34.133     c-4.71,0-8.533-3.814-8.533-8.533s3.823-8.533,8.533-8.533c9.412,0,17.067-7.654,17.067-17.067v-25.6     c0-2.27,0.896-4.437,2.5-6.033l11.034-11.034l-11.034-11.034c-1.613-1.604-2.5-3.78-2.5-6.059l0.068-25.6     c0-9.387-7.689-17.041-17.135-17.041c-4.71,0-8.533-3.814-8.533-8.533s3.823-8.533,8.533-8.533     c18.859,0,34.202,15.309,34.202,34.133l-0.06,22.076l14.558,14.558C197.103,355.703,197.103,361.097,193.766,364.433z      M213.333,196.267c-4.71,0-8.533-3.814-8.533-8.533s3.823-8.533,8.533-8.533c4.71,0,8.533,3.814,8.533,8.533     S218.044,196.267,213.333,196.267z M221.867,153.6c0,4.719-3.823,8.533-8.533,8.533c-4.71,0-8.533-3.814-8.533-8.533v-51.2     c0-4.719,3.823-8.533,8.533-8.533c4.71,0,8.533,3.814,8.533,8.533V153.6z M264.533,196.267h-17.067     c-4.71,0-8.533-3.814-8.533-8.533s3.823-8.533,8.533-8.533h17.067c4.71,0,8.533,3.814,8.533,8.533     S269.244,196.267,264.533,196.267z M315.733,196.267h-17.067c-4.71,0-8.533-3.814-8.533-8.533s3.823-8.533,8.533-8.533h17.067     c4.71,0,8.533,3.814,8.533,8.533S320.444,196.267,315.733,196.267z"/>
			<path d="M256,469.333c-9.412,0-17.067,7.654-17.067,17.067s7.654,17.067,17.067,17.067s17.067-7.654,17.067-17.067     S265.412,469.333,256,469.333z"/>
			<path d="M410.47,0H101.53C83.191,0,68.267,15.164,68.267,33.809v444.382c0,18.645,14.925,33.809,33.263,33.809h132.13     c-7.168-6.255-11.793-15.36-11.793-25.6c0-6.238,1.809-12.023,4.745-17.067H110.933c-4.71,0-8.533-3.814-8.533-8.533V68.267     c0-4.719,3.823-8.533,8.533-8.533h290.133c4.71,0,8.533,3.814,8.533,8.533V460.8c0,4.719-3.823,8.533-8.533,8.533H285.389     c2.935,5.043,4.745,10.829,4.745,17.067c0,10.24-4.625,19.345-11.793,25.6h132.13c18.338,0,33.263-15.164,33.263-33.809V33.809     C443.733,15.164,428.809,0,410.47,0z M264.533,51.2H256c-4.71,0-8.533-3.814-8.533-8.533s3.823-8.533,8.533-8.533h8.533     c4.71,0,8.533,3.814,8.533,8.533S269.244,51.2,264.533,51.2z"/>
		</g>
	</g>
</g>
<g>
</g>
<g>
</g>
<g>
</g>
<g>
</g>
<g>
</g>
<g>
</g>
<g>
</g>
<g>
</g>
<g>
</g>
<g>
</g>
<g>
</g>
<g>
</g>
<g>
</g>
<g>
</g>
<g>
</g>
</svg>
