<?xml version="1.0" encoding="iso-8859-1"?>
<!-- Generator: Adobe Illustrator 19.0.0, SVG Export Plug-In . SVG Version: 6.00 Build 0)  -->
<svg xmlns="http://www.w3.org/2000/svg" xmlns:xlink="http://www.w3.org/1999/xlink" version="1.1" id="Layer_1" x="0px" y="0px" viewBox="0 0 512 512" style="enable-background:new 0 0 512 512;" xml:space="preserve">
<g>
	<g>
		<g>
			<path d="M358.425,230.4h-17.067v17.067h17.067c4.702,0,8.533-3.823,8.533-8.533S363.127,230.4,358.425,230.4z"/>
			<path d="M401.067,0H110.933C49.766,0,0,49.766,0,110.933v290.133C0,462.234,49.766,512,110.933,512h290.133     C462.234,512,512,462.234,512,401.067V110.933C512,49.766,462.234,0,401.067,0z M85.333,247.467     c18.825,0,34.133,15.309,34.133,34.133s-15.309,34.133-34.133,34.133c-18.825,0-34.133-15.309-34.133-34.133     c0-4.719,3.823-8.533,8.533-8.533s8.533,3.814,8.533,8.533c0,9.412,7.654,17.067,17.067,17.067     c9.412,0,17.067-7.654,17.067-17.067c0-9.412-7.654-17.067-17.067-17.067c-18.825,0-34.133-15.309-34.133-34.133     s15.309-34.133,34.133-34.133c18.825,0,34.133,15.309,34.133,34.133c0,4.719-3.823,8.533-8.533,8.533s-8.533-3.814-8.533-8.533     c0-9.412-7.654-17.067-17.067-17.067c-9.412,0-17.067,7.654-17.067,17.067C68.267,239.812,75.921,247.467,85.333,247.467z      M179.2,298.667c7.339,0,14.345-3.157,19.209-8.678c3.123-3.533,8.508-3.866,12.049-0.742c3.524,3.123,3.866,8.516,0.742,12.049     c-8.107,9.173-19.763,14.438-32,14.438c-23.526,0-42.667-19.14-42.667-42.667c0-23.526,19.14-42.667,42.667-42.667     c12.245,0,23.91,5.265,32.009,14.455c3.115,3.533,2.782,8.926-0.751,12.041c-3.55,3.123-8.934,2.782-12.049-0.751     c-4.864-5.513-11.87-8.678-19.209-8.678c-14.114,0-25.6,11.486-25.6,25.6C153.6,287.181,165.086,298.667,179.2,298.667z      M264.55,247.467c-9.412,0-17.067,7.654-17.067,17.067V307.2c0,4.719-3.823,8.533-8.533,8.533c-4.71,0-8.533-3.814-8.533-8.533     v-68.267c0-4.719,3.823-8.533,8.533-8.533c3.507,0,6.502,2.116,7.808,5.146c5.197-3.2,11.255-5.146,17.792-5.146     c4.71,0,8.533,3.814,8.533,8.533S269.261,247.467,264.55,247.467z M307.217,307.2c0,4.719-3.814,8.533-8.533,8.533     c-4.71,0-8.533-3.814-8.533-8.533V256c0-4.719,3.823-8.533,8.533-8.533c4.719,0,8.533,3.814,8.533,8.533V307.2z M298.692,230.4     c-4.719,0-8.533-3.814-8.533-8.533s3.814-8.533,8.533-8.533c4.71,0,8.533,3.814,8.533,8.533S303.403,230.4,298.692,230.4z      M358.426,264.533H341.35V307.2c0,4.719-3.814,8.533-8.533,8.533c-4.71,0-8.533-3.814-8.533-8.533V256v-34.133     c0-4.719,3.823-8.533,8.533-8.533h25.609c14.114,0,25.591,11.486,25.591,25.6S372.54,264.533,358.426,264.533z M452.267,315.733     c-18.825,0-34.133-15.309-34.133-34.133v-34.133H409.6c-4.71,0-8.533-3.814-8.533-8.533s3.823-8.533,8.533-8.533h8.533v-17.067     c0-4.719,3.823-8.533,8.533-8.533s8.533,3.814,8.533,8.533V230.4h8.533c4.71,0,8.533,3.814,8.533,8.533s-3.823,8.533-8.533,8.533     H435.2V281.6c0,9.412,7.654,17.067,17.067,17.067c4.71,0,8.533,3.814,8.533,8.533S456.977,315.733,452.267,315.733z"/>
		</g>
	</g>
</g>
<g>
</g>
<g>
</g>
<g>
</g>
<g>
</g>
<g>
</g>
<g>
</g>
<g>
</g>
<g>
</g>
<g>
</g>
<g>
</g>
<g>
</g>
<g>
</g>
<g>
</g>
<g>
</g>
<g>
</g>
</svg>
