<?xml version="1.0" encoding="iso-8859-1"?>
<!-- Generator: Adobe Illustrator 19.0.0, SVG Export Plug-In . SVG Version: 6.00 Build 0)  -->
<svg xmlns="http://www.w3.org/2000/svg" xmlns:xlink="http://www.w3.org/1999/xlink" version="1.1" id="Layer_1" x="0px" y="0px" viewBox="0 0 512 512" style="enable-background:new 0 0 512 512;" xml:space="preserve">
<g>
	<g>
		<g>
			<path d="M179.2,0H8.533C3.823,0,0,3.823,0,8.533v494.933C0,508.177,3.823,512,8.533,512H179.2c4.71,0,8.533-3.823,8.533-8.533     V8.533C187.733,3.823,183.91,0,179.2,0z"/>
			<path d="M503.467,0H332.8c-4.71,0-8.533,3.823-8.533,8.533v494.933c0,4.71,3.823,8.533,8.533,8.533h170.667     c4.719,0,8.533-3.823,8.533-8.533V8.533C512,3.823,508.186,0,503.467,0z"/>
			<path d="M306.9,74.237c-0.64-2.039-2.031-3.703-3.806-4.753l-84.872-59.409c-3.857-2.697-9.165-1.766-11.878,2.099     c-2.705,3.857-1.766,9.182,2.099,11.887l75.426,52.796l-75.426,52.676c-2.278,1.596-3.644,4.207-3.644,6.997     c0,2.782,1.357,5.393,3.644,6.997l75.426,52.796L208.442,249c-2.278,1.596-3.644,4.207-3.644,6.997     c0,2.782,1.357,5.393,3.644,6.997l75.426,52.796l-75.426,52.676c-2.278,1.596-3.644,4.207-3.644,6.997     c0,2.782,1.357,5.393,3.644,6.997l75.426,52.796l-75.426,52.676c-3.857,2.705-4.804,8.021-2.108,11.887     c1.664,2.372,4.309,3.644,7.006,3.644c1.69,0,3.396-0.495,4.881-1.536l85.521-59.733c3.055-2.133,4.275-5.999,3.157-9.557     c-0.64-2.039-2.031-3.703-3.806-4.753l-74.871-52.412l75.52-52.745c3.055-2.133,4.275-5.999,3.157-9.557     c-0.64-2.039-2.031-3.703-3.806-4.753l-74.871-52.412l75.52-52.745c3.055-2.133,4.275-5.999,3.157-9.557     c-0.64-2.039-2.031-3.703-3.806-4.753l-74.871-52.412l75.52-52.745C306.797,81.661,308.018,77.796,306.9,74.237z"/>
		</g>
	</g>
</g>
<g>
</g>
<g>
</g>
<g>
</g>
<g>
</g>
<g>
</g>
<g>
</g>
<g>
</g>
<g>
</g>
<g>
</g>
<g>
</g>
<g>
</g>
<g>
</g>
<g>
</g>
<g>
</g>
<g>
</g>
</svg>
