<?xml version="1.0" encoding="iso-8859-1"?>
<!-- Generator: Adobe Illustrator 19.0.0, SVG Export Plug-In . SVG Version: 6.00 Build 0)  -->
<svg xmlns="http://www.w3.org/2000/svg" xmlns:xlink="http://www.w3.org/1999/xlink" version="1.1" id="Layer_1" x="0px" y="0px" viewBox="0 0 512 512" style="enable-background:new 0 0 512 512;" xml:space="preserve">
<g>
	<g>
		<path d="M401.067,0H110.933C49.766,0,0,49.766,0,110.933v290.133C0,462.242,49.766,512,110.933,512h290.133    C462.234,512,512,462.242,512,401.067V110.933C512,49.766,462.234,0,401.067,0z M159.633,347.349    c-1.664,1.664-3.849,2.5-6.033,2.5c-2.185,0-4.369-0.836-6.033-2.5l-85.333-85.316c-3.336-3.328-3.336-8.721-0.008-12.058    l85.257-85.385c3.336-3.345,8.747-3.337,12.075-0.009c3.337,3.328,3.337,8.73,0.009,12.066L80.333,256l79.3,79.283    C162.97,338.611,162.97,344.013,159.633,347.349z M187.733,341.333c-4.719,0-8.533-3.814-8.533-8.533    c0-4.71,3.814-8.533,8.533-8.533s8.533,3.823,8.533,8.533C196.267,337.519,192.452,341.333,187.733,341.333z M221.867,341.333    c-4.719,0-8.533-3.814-8.533-8.533c0-4.71,3.814-8.533,8.533-8.533s8.533,3.823,8.533,8.533    C230.4,337.519,226.586,341.333,221.867,341.333z M256,341.333c-4.719,0-8.533-3.814-8.533-8.533c0-4.71,3.814-8.533,8.533-8.533    s8.533,3.823,8.533,8.533C264.533,337.519,260.719,341.333,256,341.333z M290.133,341.333c-4.719,0-8.533-3.814-8.533-8.533    c0-4.71,3.814-8.533,8.533-8.533s8.533,3.823,8.533,8.533C298.667,337.519,294.852,341.333,290.133,341.333z M324.267,341.333    c-4.719,0-8.533-3.814-8.533-8.533c0-4.71,3.814-8.533,8.533-8.533c4.719,0,8.533,3.823,8.533,8.533    C332.8,337.519,328.986,341.333,324.267,341.333z M449.775,262.033l-85.257,85.385c-1.673,1.672-3.857,2.509-6.042,2.509    c-2.185,0-4.369-0.836-6.033-2.5c-3.336-3.328-3.336-8.73-0.009-12.066l79.232-79.352l-79.3-79.283    c-3.337-3.328-3.337-8.738,0-12.066c3.337-3.337,8.73-3.337,12.066,0l85.333,85.308    C453.103,253.303,453.103,258.697,449.775,262.033z"/>
	</g>
</g>
<g>
</g>
<g>
</g>
<g>
</g>
<g>
</g>
<g>
</g>
<g>
</g>
<g>
</g>
<g>
</g>
<g>
</g>
<g>
</g>
<g>
</g>
<g>
</g>
<g>
</g>
<g>
</g>
<g>
</g>
</svg>
