<?xml version="1.0" encoding="iso-8859-1"?>
<!-- Generator: Adobe Illustrator 19.0.0, SVG Export Plug-In . SVG Version: 6.00 Build 0)  -->
<svg xmlns="http://www.w3.org/2000/svg" xmlns:xlink="http://www.w3.org/1999/xlink" version="1.1" id="Layer_1" x="0px" y="0px" viewBox="0 0 512 512" style="enable-background:new 0 0 512 512;" xml:space="preserve">
<g>
	<g>
		<g>
			<path d="M503.467,0H8.533C3.814,0,0,3.823,0,8.533v494.933C0,508.177,3.814,512,8.533,512h494.933     c4.719,0,8.533-3.823,8.533-8.533V8.533C512,3.823,508.186,0,503.467,0z M38.332,52.378l28.971-17.067     c2.031-1.195,4.48-1.493,6.75-0.828c2.261,0.666,4.147,2.244,5.205,4.361l57.242,114.125l56.713-114.099     c1.05-2.108,2.918-3.695,5.171-4.378c2.261-0.674,4.702-0.393,6.733,0.785l29.551,17.067c3.942,2.27,5.402,7.236,3.328,11.281     l-75.861,148.036v155.273c0,4.71-3.814,8.533-8.533,8.533h-34.133c-4.719,0-8.533-3.823-8.533-8.533V211.661L35.072,63.625     C33.007,59.605,34.441,54.673,38.332,52.378z M238.933,469.333H51.2c-4.719,0-8.533-3.823-8.533-8.533s3.814-8.533,8.533-8.533     h187.733c4.719,0,8.533,3.823,8.533,8.533S243.652,469.333,238.933,469.333z M477.867,76.8c0,4.71-3.814,8.533-8.533,8.533h-76.8     v281.6c0,4.71-3.814,8.533-8.533,8.533h-34.133c-4.719,0-8.533-3.823-8.533-8.533v-281.6h-76.8c-4.719,0-8.533-3.823-8.533-8.533     V42.667c0-4.71,3.814-8.533,8.533-8.533h204.8c4.719,0,8.533,3.823,8.533,8.533V76.8z"/>
			<path d="M128,209.604V358.4h17.067V209.604c0-1.357,0.324-2.688,0.939-3.891L219.11,63.061l-14.66-8.465l-60.271,121.276     c-1.442,2.893-4.395,4.727-7.629,4.736h-0.017c-3.226,0-6.187-1.826-7.629-4.71L68.096,54.656l-14.165,8.346l73.131,142.711     C127.676,206.916,128,208.247,128,209.604z"/>
			<path d="M273.067,68.267h76.8c4.719,0,8.533,3.823,8.533,8.533v281.6h17.067V76.8c0-4.71,3.814-8.533,8.533-8.533h76.8V51.2     H273.067V68.267z"/>
		</g>
	</g>
</g>
<g>
</g>
<g>
</g>
<g>
</g>
<g>
</g>
<g>
</g>
<g>
</g>
<g>
</g>
<g>
</g>
<g>
</g>
<g>
</g>
<g>
</g>
<g>
</g>
<g>
</g>
<g>
</g>
<g>
</g>
</svg>
