<?xml version="1.0" encoding="iso-8859-1"?>
<!-- Generator: Adobe Illustrator 19.0.0, SVG Export Plug-In . SVG Version: 6.00 Build 0)  -->
<svg xmlns="http://www.w3.org/2000/svg" xmlns:xlink="http://www.w3.org/1999/xlink" version="1.1" id="Layer_1" x="0px" y="0px" viewBox="0 0 512 512" style="enable-background:new 0 0 512 512;" xml:space="preserve">
<g>
	<g>
		<g>
			<path d="M187.733,320.713c0-23.526-19.14-42.667-42.667-42.667c-23.526,0-42.667,19.14-42.667,42.667     c0,23.526,19.14,42.667,42.667,42.667C168.593,363.379,187.733,344.239,187.733,320.713z"/>
			<polygon points="375.467,5 375.467,102.399 472.866,102.399    "/>
			<path d="M366.933,119.467c-4.71,0-8.533-3.823-8.533-8.533V0H76.8c-4.71,0-8.533,3.823-8.533,8.533v232.098l-11.383,11.383     c-2.987,2.978-3.345,7.689-0.853,11.085l7.74,10.547c3.473,4.745,4.241,10.615,2.091,16.094     c-2.15,5.478-6.699,9.267-12.484,10.377l-12.322,2.372c-4.019,0.768-6.921,4.284-6.921,8.38v23.629     c0,4.207,3.072,7.791,7.236,8.431l12.928,1.988c5.82,0.896,10.505,4.506,12.86,9.907c2.355,5.393,1.818,11.281-1.493,16.162     l-7.031,10.385c-2.295,3.388-1.869,7.927,1.033,10.82l8.602,8.602v102.673c0,4.71,3.823,8.533,8.533,8.533h392.533     c4.719,0,8.533-3.823,8.533-8.533v-384H366.933z M120.337,384.034c-9.515-3.738-19.994-3.004-28.783,1.877     c-1.246,0.7-2.475,1.476-3.652,2.338l-4.642,3.405l-0.427-0.427l-6.118-6.118l3.089-4.557c6.554-9.677,7.671-21.845,3.004-32.555     c-4.676-10.718-14.362-18.167-25.916-19.951l-5.692-0.87v-9.267l5.402-1.033c11.477-2.21,20.881-10.027,25.148-20.898     c4.267-10.88,2.688-23.006-4.224-32.427l-3.405-4.642l6.554-6.554l7.578,5.137c9.472,6.417,21.419,7.637,31.974,3.251     c10.564-4.378,18.15-13.688,20.309-24.909l1.732-8.994h2.799h6.46l0.879,5.692c1.775,11.554,9.233,21.24,19.942,25.916     c10.701,4.668,22.886,3.55,32.563-3.004l4.548-3.089l6.554,6.554l-3.405,4.642c-6.912,9.421-8.491,21.547-4.224,32.427     c4.267,10.871,13.67,18.688,25.148,20.898l5.402,1.033v9.267l-5.692,0.87c-11.554,1.784-21.239,9.233-25.916,19.951     c-4.668,10.709-3.55,22.878,3.004,32.563l3.089,4.548l-6.545,6.545l-1.519-1.109c-9.634-7.057-21.982-8.559-33.007-3.985     c-11.042,4.574-18.714,14.353-20.531,26.155l-0.29,1.86h-6.46h-2.799l-1.041-5.393     C139.025,397.705,131.209,388.301,120.337,384.034z M409.6,435.2c0,4.71-3.823,8.533-8.533,8.533h-256     c-4.71,0-8.533-3.823-8.533-8.533v-3.558h22.315c4.216,0,8.081-5.683,7.757-4.975h225.929v-256h-76.8     c-4.71,0-8.533-3.823-8.533-8.533v-76.8H153.6v124.442h-17.067V76.8c0-4.71,3.823-8.533,8.533-8.533h170.667     c4.71,0,8.533,3.823,8.533,8.533v76.8h76.8c4.71,0,8.533,3.823,8.533,8.533V435.2z"/>
		</g>
	</g>
</g>
<g>
</g>
<g>
</g>
<g>
</g>
<g>
</g>
<g>
</g>
<g>
</g>
<g>
</g>
<g>
</g>
<g>
</g>
<g>
</g>
<g>
</g>
<g>
</g>
<g>
</g>
<g>
</g>
<g>
</g>
</svg>
