<?xml version="1.0" encoding="iso-8859-1"?>
<!-- Generator: Adobe Illustrator 19.0.0, SVG Export Plug-In . SVG Version: 6.00 Build 0)  -->
<svg xmlns="http://www.w3.org/2000/svg" xmlns:xlink="http://www.w3.org/1999/xlink" version="1.1" id="Layer_1" x="0px" y="0px" viewBox="0 0 512 512" style="enable-background:new 0 0 512 512;" xml:space="preserve">
<g>
	<g>
		<g>
			<path d="M332.8,290.133H179.2c-4.702,0-8.533,3.831-8.533,8.533s3.831,8.533,8.533,8.533h153.6c4.702,0,8.533-3.831,8.533-8.533     S337.502,290.133,332.8,290.133z"/>
			<polygon points="358.4,5 358.4,102.399 455.8,102.399    "/>
			<path d="M332.8,366.933H179.2c-4.702,0-8.533,3.831-8.533,8.533S174.498,384,179.2,384h153.6c4.702,0,8.533-3.831,8.533-8.533     S337.502,366.933,332.8,366.933z"/>
			<path d="M170.667,221.867c0,4.702,3.831,8.533,8.533,8.533h153.6c4.702,0,8.533-3.831,8.533-8.533     c0-4.702-3.831-8.533-8.533-8.533H179.2C174.498,213.333,170.667,217.165,170.667,221.867z"/>
			<path d="M290.133,162.133v-76.8h-153.6v341.333h238.933v-256h-76.8C293.956,170.667,290.133,166.844,290.133,162.133z      M332.8,401.067H179.2c-14.114,0-25.6-11.486-25.6-25.6s11.486-25.6,25.6-25.6h153.6c14.114,0,25.6,11.486,25.6,25.6     S346.914,401.067,332.8,401.067z M332.8,324.267H179.2c-14.114,0-25.6-11.486-25.6-25.6s11.486-25.6,25.6-25.6h153.6     c14.114,0,25.6,11.486,25.6,25.6S346.914,324.267,332.8,324.267z M358.4,221.867c0,14.114-11.486,25.6-25.6,25.6H179.2     c-14.114,0-25.6-11.486-25.6-25.6s11.486-25.6,25.6-25.6h153.6C346.914,196.267,358.4,207.753,358.4,221.867z"/>
			<path d="M349.867,119.467c-4.71,0-8.533-3.823-8.533-8.533V0h-281.6C55.023,0,51.2,3.823,51.2,8.533v494.933     c0,4.71,3.823,8.533,8.533,8.533h392.533c4.71,0,8.533-3.823,8.533-8.533v-384H349.867z M392.533,435.2     c0,4.71-3.823,8.533-8.533,8.533H128c-4.71,0-8.533-3.823-8.533-8.533V76.8c0-4.71,3.823-8.533,8.533-8.533h170.667     c4.71,0,8.533,3.823,8.533,8.533v76.8H384c4.71,0,8.533,3.823,8.533,8.533V435.2z"/>
		</g>
	</g>
</g>
<g>
</g>
<g>
</g>
<g>
</g>
<g>
</g>
<g>
</g>
<g>
</g>
<g>
</g>
<g>
</g>
<g>
</g>
<g>
</g>
<g>
</g>
<g>
</g>
<g>
</g>
<g>
</g>
<g>
</g>
</svg>
