<?xml version="1.0" encoding="iso-8859-1"?>
<!-- Generator: Adobe Illustrator 19.0.0, SVG Export Plug-In . SVG Version: 6.00 Build 0)  -->
<svg xmlns="http://www.w3.org/2000/svg" xmlns:xlink="http://www.w3.org/1999/xlink" version="1.1" id="Layer_1" x="0px" y="0px" viewBox="0 0 512 512" style="enable-background:new 0 0 512 512;" xml:space="preserve">
<g>
	<g>
		<g>
			<path d="M34.133,203.938v63.855l187.733,93.867v-66.253L40.141,204.544c0.853,0.051,1.655,0.256,2.526,0.256h36.147     l143.053,71.526v-72.388C241.314,199.97,256,182.741,256,162.133v-17.067c0-4.71-3.823-8.533-8.533-8.533H8.533     c-4.71,0-8.533,3.823-8.533,8.533v17.067C0,182.741,14.686,199.97,34.133,203.938z M17.067,153.6h221.867v8.533     c0,14.114-11.486,25.6-25.6,25.6H44.681h-2.014c-14.114,0-25.6-11.486-25.6-25.6V153.6z"/>
			<path d="M221.867,444.595V380.74L34.133,286.874v66.253l181.726,90.863c-0.853-0.051-1.655-0.256-2.526-0.256h-36.147     L34.133,372.207v72.388C14.686,448.563,0,465.792,0,486.4v17.067C0,508.177,3.823,512,8.533,512h238.933     c4.71,0,8.533-3.823,8.533-8.533V486.4C256,465.792,241.314,448.563,221.867,444.595z M238.933,494.933H17.067V486.4     c0-14.114,11.486-25.6,25.6-25.6h168.653h2.014c14.114,0,25.6,11.486,25.6,25.6V494.933z"/>
			<path d="M503.467,0H264.533C259.823,0,256,3.823,256,8.533V25.6c0,20.608,14.686,37.837,34.133,41.805v63.855l187.733,93.867     v-66.253L296.141,68.011c0.853,0.051,1.655,0.256,2.526,0.256h36.147l143.053,71.526V67.405C497.314,63.437,512,46.208,512,25.6     V8.533C512,3.823,508.177,0,503.467,0z M494.933,25.6c0,14.114-11.486,25.6-25.6,25.6H300.681h-2.014     c-14.114,0-25.6-11.486-25.6-25.6v-8.533h221.867V25.6z"/>
			<path d="M477.867,308.062v-63.855L290.133,150.34v66.253l181.726,90.863c-0.853-0.051-1.655-0.256-2.526-0.256h-36.147     l-143.053-71.526v72.388C270.686,312.03,256,329.259,256,349.867v17.067c0,4.71,3.823,8.533,8.533,8.533h238.933     c4.71,0,8.533-3.823,8.533-8.533v-17.067C512,329.259,497.314,312.03,477.867,308.062z M494.933,358.4H273.067v-8.533     c0-14.114,11.486-25.6,25.6-25.6H467.32h2.014c14.114,0,25.6,11.486,25.6,25.6V358.4z"/>
		</g>
	</g>
</g>
<g>
</g>
<g>
</g>
<g>
</g>
<g>
</g>
<g>
</g>
<g>
</g>
<g>
</g>
<g>
</g>
<g>
</g>
<g>
</g>
<g>
</g>
<g>
</g>
<g>
</g>
<g>
</g>
<g>
</g>
</svg>
