<?xml version="1.0" encoding="iso-8859-1"?>
<!-- Generator: Adobe Illustrator 19.0.0, SVG Export Plug-In . SVG Version: 6.00 Build 0)  -->
<svg xmlns="http://www.w3.org/2000/svg" xmlns:xlink="http://www.w3.org/1999/xlink" version="1.1" id="Layer_1" x="0px" y="0px" viewBox="0 0 512 512" style="enable-background:new 0 0 512 512;" xml:space="preserve">
<g>
	<g>
		<g>
			<path d="M486.4,0H25.6C11.486,0,0,11.486,0,25.6v42.667h512V25.6C512,11.486,500.514,0,486.4,0z M42.667,51.2     c-4.719,0-8.533-3.823-8.533-8.533c0-4.71,3.814-8.533,8.533-8.533s8.533,3.823,8.533,8.533C51.2,47.377,47.386,51.2,42.667,51.2     z M76.8,51.2c-4.719,0-8.533-3.823-8.533-8.533c0-4.71,3.814-8.533,8.533-8.533s8.533,3.823,8.533,8.533     C85.333,47.377,81.519,51.2,76.8,51.2z M110.933,51.2c-4.719,0-8.533-3.823-8.533-8.533c0-4.71,3.814-8.533,8.533-8.533     s8.533,3.823,8.533,8.533C119.467,47.377,115.652,51.2,110.933,51.2z"/>
			<path d="M0,486.4C0,500.514,11.486,512,25.6,512h460.8c14.114,0,25.6-11.486,25.6-25.6V85.333H0V486.4z M134.033,398.566     l-14.566,14.566v30.601c0,18.825-15.309,34.133-34.133,34.133c-4.719,0-8.533-3.823-8.533-8.533s3.814-8.533,8.533-8.533     c9.412,0,17.067-7.654,17.067-17.067V409.6c0-2.261,0.896-4.437,2.5-6.033l11.034-11.034L104.9,381.5     c-1.613-1.604-2.509-3.78-2.5-6.05l0.068-34.133c0-9.395-7.689-17.05-17.135-17.05c-4.719,0-8.533-3.823-8.533-8.533     s3.814-8.533,8.533-8.533c18.859,0,34.202,15.309,34.202,34.133l-0.06,30.601l14.558,14.566     C137.37,389.837,137.37,395.23,134.033,398.566z M198.767,181.7l14.566-14.566v-30.601c0-18.825,15.309-34.133,34.133-34.133     c4.719,0,8.533,3.823,8.533,8.533s-3.814,8.533-8.533,8.533c-9.412,0-17.067,7.654-17.067,17.067v34.133     c0,2.261-0.905,4.437-2.5,6.033l-11.034,11.034l11.034,11.034c1.596,1.596,2.5,3.772,2.5,6.033v34.133     c0,9.412,7.654,17.067,17.067,17.067c4.719,0,8.533,3.823,8.533,8.533c0,4.71-3.814,8.533-8.533,8.533     c-18.825,0-34.133-15.309-34.133-34.133v-30.601l-14.566-14.566C195.43,190.43,195.43,185.037,198.767,181.7z M51.2,256h102.4     c4.719,0,8.533,3.823,8.533,8.533c0,4.71-3.814,8.533-8.533,8.533H51.2c-4.719,0-8.533-3.823-8.533-8.533     C42.667,259.823,46.481,256,51.2,256z"/>
		</g>
	</g>
</g>
<g>
</g>
<g>
</g>
<g>
</g>
<g>
</g>
<g>
</g>
<g>
</g>
<g>
</g>
<g>
</g>
<g>
</g>
<g>
</g>
<g>
</g>
<g>
</g>
<g>
</g>
<g>
</g>
<g>
</g>
</svg>
