<?xml version="1.0" encoding="iso-8859-1"?>
<!-- Generator: Adobe Illustrator 19.0.0, SVG Export Plug-In . SVG Version: 6.00 Build 0)  -->
<svg xmlns="http://www.w3.org/2000/svg" xmlns:xlink="http://www.w3.org/1999/xlink" version="1.1" id="Layer_1" x="0px" y="0px" viewBox="0 0 512 512" style="enable-background:new 0 0 512 512;" xml:space="preserve">
<g>
	<g>
		<g>
			<path d="M486.4,0H25.6C11.486,0,0,11.486,0,25.6v42.667h512V25.6C512,11.486,500.514,0,486.4,0z M42.667,51.2     c-4.71,0-8.533-3.823-8.533-8.533c0-4.71,3.823-8.533,8.533-8.533c4.71,0,8.533,3.823,8.533,8.533     C51.2,47.377,47.377,51.2,42.667,51.2z M76.8,51.2c-4.71,0-8.533-3.823-8.533-8.533c0-4.71,3.823-8.533,8.533-8.533     s8.533,3.823,8.533,8.533C85.333,47.377,81.51,51.2,76.8,51.2z M110.933,51.2c-4.71,0-8.533-3.823-8.533-8.533     c0-4.71,3.823-8.533,8.533-8.533s8.533,3.823,8.533,8.533C119.467,47.377,115.644,51.2,110.933,51.2z"/>
			<path d="M0,486.4C0,500.514,11.486,512,25.6,512h460.8c14.114,0,25.6-11.486,25.6-25.6V85.333H0V486.4z M173.167,125.5     c-3.337-3.337-3.337-8.73,0-12.066s8.73-3.337,12.066,0L227.9,156.1c3.336,3.337,3.336,8.73,0,12.066l-42.667,42.667     c-1.664,1.664-3.849,2.5-6.033,2.5c-2.185,0-4.369-0.836-6.033-2.5c-3.337-3.337-3.337-8.73,0-12.066l36.634-36.634     L173.167,125.5z M128,119.467c0-4.71,3.823-8.533,8.533-8.533s8.533,3.823,8.533,8.533v51.2c0,4.71-3.823,8.533-8.533,8.533     S128,175.377,128,170.667V119.467z M136.533,196.267c4.71,0,8.533,3.823,8.533,8.533c0,4.71-3.823,8.533-8.533,8.533     S128,209.51,128,204.8C128,200.09,131.823,196.267,136.533,196.267z M45.167,156.1l42.667-42.667     c3.337-3.337,8.73-3.337,12.066,0c3.337,3.337,3.337,8.73,0,12.066l-36.634,36.634L99.9,198.767c3.337,3.336,3.337,8.73,0,12.066     c-1.664,1.664-3.849,2.5-6.033,2.5c-2.185,0-4.369-0.836-6.033-2.5l-42.667-42.667C41.83,164.83,41.83,159.437,45.167,156.1z"/>
		</g>
	</g>
</g>
<g>
</g>
<g>
</g>
<g>
</g>
<g>
</g>
<g>
</g>
<g>
</g>
<g>
</g>
<g>
</g>
<g>
</g>
<g>
</g>
<g>
</g>
<g>
</g>
<g>
</g>
<g>
</g>
<g>
</g>
</svg>
