<?xml version="1.0" encoding="iso-8859-1"?>
<!-- Generator: Adobe Illustrator 19.0.0, SVG Export Plug-In . SVG Version: 6.00 Build 0)  -->
<svg xmlns="http://www.w3.org/2000/svg" xmlns:xlink="http://www.w3.org/1999/xlink" version="1.1" id="Layer_1" x="0px" y="0px" viewBox="0 0 512 512" style="enable-background:new 0 0 512 512;" xml:space="preserve">
<g>
	<g>
		<g>
			<path d="M294.401,469.333c0,18.825-15.309,34.133-34.133,34.133s-34.133-15.309-34.133-34.133c0-10.24,4.625-19.337,11.793-25.6     H115.201V478.2c0,18.637,15.164,33.8,33.809,33.8h222.515c18.645,0,33.809-15.164,33.809-33.8v-34.466H282.608     C289.776,449.997,294.401,459.093,294.401,469.333z"/>
			<path d="M243.201,469.333c0,9.412,7.654,17.067,17.067,17.067c9.412,0,17.067-7.654,17.067-17.067     c0-9.412-7.654-17.067-17.067-17.067C250.856,452.267,243.201,459.921,243.201,469.333z"/>
			<path d="M405.332,426.671v-358.4H115.199v8.533c-4.71,0-8.533,3.814-8.533,8.533v8.533c0,4.71,3.823,8.533,8.533,8.533v8.533     c-4.71,0-8.533,3.814-8.533,8.533v8.533c0,4.71,3.823,8.533,8.533,8.533v8.533c-4.71,0-8.533,3.814-8.533,8.533v8.533     c0,4.71,3.823,8.533,8.533,8.533v256H405.332z M243.199,162.138c4.719,0,8.533,3.814,8.533,8.533c0,4.71-3.814,8.533-8.533,8.533     c-4.71,0-8.533-3.823-8.533-8.533C234.665,165.952,238.488,162.138,243.199,162.138z M217.599,170.671     c0,4.71-3.814,8.533-8.533,8.533c-4.71,0-8.533-3.823-8.533-8.533c0-4.719,3.823-8.533,8.533-8.533     C213.784,162.138,217.599,165.952,217.599,170.671z M160.477,96.363c3.337-3.328,8.738-3.337,12.075,0.009l34.022,34.074     c3.319,3.328,3.328,8.721,0.009,12.049l-34.022,34.193c-1.664,1.673-3.857,2.517-6.05,2.517c-2.176,0-4.361-0.836-6.016-2.483     c-3.345-3.328-3.362-8.73-0.034-12.075l28.023-28.16l-28.015-28.058C157.14,105.092,157.14,99.691,160.477,96.363z"/>
			<path d="M371.526,0H149.01c-18.645,0-33.809,15.164-33.809,33.801V51.2h290.133V33.801C405.335,15.164,390.171,0,371.526,0z      M226.135,42.667h-8.533c-4.719,0-8.533-3.823-8.533-8.533c0-4.71,3.814-8.533,8.533-8.533h8.533     c4.719,0,8.533,3.823,8.533,8.533C234.668,38.844,230.854,42.667,226.135,42.667z M294.401,42.667h-42.667     c-4.719,0-8.533-3.823-8.533-8.533c0-4.71,3.814-8.533,8.533-8.533h42.667c4.719,0,8.533,3.823,8.533,8.533     C302.935,38.844,299.12,42.667,294.401,42.667z"/>
		</g>
	</g>
</g>
<g>
</g>
<g>
</g>
<g>
</g>
<g>
</g>
<g>
</g>
<g>
</g>
<g>
</g>
<g>
</g>
<g>
</g>
<g>
</g>
<g>
</g>
<g>
</g>
<g>
</g>
<g>
</g>
<g>
</g>
</svg>
