<?xml version="1.0" encoding="iso-8859-1"?>
<!-- Generator: Adobe Illustrator 19.0.0, SVG Export Plug-In . SVG Version: 6.00 Build 0)  -->
<svg xmlns="http://www.w3.org/2000/svg" xmlns:xlink="http://www.w3.org/1999/xlink" version="1.1" id="Layer_1" x="0px" y="0px" viewBox="0 0 512 512" style="enable-background:new 0 0 512 512;" xml:space="preserve">
<g>
	<g>
		<path d="M401.067,0H110.933C49.766,0,0,49.766,0,110.933v290.133C0,462.234,49.766,512,110.933,512h290.133    C462.234,512,512,462.234,512,401.067V110.933C512,49.766,462.234,0,401.067,0z M185.378,347.341    c-1.673,1.673-3.866,2.509-6.042,2.509c-2.185,0-4.369-0.836-6.025-2.5l-85.47-85.316c-1.613-1.596-2.509-3.763-2.509-6.033    c0-2.261,0.896-4.437,2.5-6.033l85.393-85.385c3.328-3.337,8.73-3.337,12.066,0c3.328,3.328,3.328,8.73,0,12.066l-79.351,79.343    l79.42,79.283C188.698,338.603,188.698,344.004,185.378,347.341z M256,358.4c-4.719,0-8.533-3.823-8.533-8.533    s3.814-8.533,8.533-8.533s8.533,3.823,8.533,8.533S260.719,358.4,256,358.4z M264.533,315.733c0,4.71-3.814,8.533-8.533,8.533    s-8.533-3.823-8.533-8.533v-153.6c0-4.71,3.814-8.533,8.533-8.533s8.533,3.823,8.533,8.533V315.733z M424.166,262.033    l-85.393,85.385c-1.664,1.673-3.849,2.5-6.033,2.5c-2.185,0-4.369-0.828-6.033-2.5c-3.337-3.328-3.337-8.73,0-12.066L406.059,256    l-79.42-79.275c-3.337-3.328-3.337-8.73-0.017-12.066c3.337-3.345,8.755-3.345,12.066-0.008l85.47,85.308    c1.604,1.596,2.509,3.772,2.509,6.033C426.667,258.261,425.762,260.437,424.166,262.033z"/>
	</g>
</g>
<g>
</g>
<g>
</g>
<g>
</g>
<g>
</g>
<g>
</g>
<g>
</g>
<g>
</g>
<g>
</g>
<g>
</g>
<g>
</g>
<g>
</g>
<g>
</g>
<g>
</g>
<g>
</g>
<g>
</g>
</svg>
