<?xml version="1.0" encoding="iso-8859-1"?>
<!-- Generator: Adobe Illustrator 19.0.0, SVG Export Plug-In . SVG Version: 6.00 Build 0)  -->
<svg xmlns="http://www.w3.org/2000/svg" xmlns:xlink="http://www.w3.org/1999/xlink" version="1.1" id="Layer_1" x="0px" y="0px" viewBox="0 0 512.001 512.001" style="enable-background:new 0 0 512.001 512.001;" xml:space="preserve">
<g>
	<g>
		<g>
			<path d="M486.4,0H25.6C11.486,0,0,11.486,0,25.6v42.667h512V25.6C512,11.486,500.515,0,486.4,0z M42.667,51.2     c-4.71,0-8.533-3.823-8.533-8.533c0-4.71,3.823-8.533,8.533-8.533c4.71,0,8.533,3.823,8.533,8.533     C51.2,47.377,47.377,51.2,42.667,51.2z M76.8,51.2c-4.71,0-8.533-3.823-8.533-8.533c0-4.71,3.823-8.533,8.533-8.533     s8.533,3.823,8.533,8.533C85.334,47.377,81.511,51.2,76.8,51.2z M110.934,51.2c-4.71,0-8.533-3.823-8.533-8.533     c0-4.71,3.823-8.533,8.533-8.533s8.533,3.823,8.533,8.533C119.467,47.377,115.644,51.2,110.934,51.2z"/>
			<path d="M0,486.401c0,14.114,11.486,25.6,25.6,25.6h460.8c14.114,0,25.6-11.486,25.6-25.6V85.334H0V486.401z M419.721,243.892     c-2.739-3.831-1.852-9.165,1.988-11.904c3.823-2.739,9.156-1.852,11.904,1.988l42.667,59.733c2.116,2.97,2.116,6.946,0,9.916     l-42.667,59.733c-1.664,2.33-4.292,3.575-6.955,3.575c-1.715,0-3.447-0.521-4.949-1.587c-3.84-2.739-4.727-8.073-1.988-11.904     l39.125-54.775L419.721,243.892z M366.934,307.201c-18.825,0-34.133-15.309-34.133-34.133c0-18.825,15.309-34.133,34.133-34.133     s34.133,15.309,34.133,34.133c0,4.71-3.823,8.533-8.533,8.533c-4.71,0-8.533-3.823-8.533-8.533     c0-9.412-7.654-17.067-17.067-17.067s-17.067,7.654-17.067,17.067c0,9.412,7.654,17.067,17.067,17.067     c18.825,0,34.133,15.309,34.133,34.133c0,18.825-15.309,34.133-34.133,34.133S332.8,343.092,332.8,324.268     c0-4.71,3.823-8.533,8.533-8.533s8.533,3.823,8.533,8.533c0,9.412,7.654,17.067,17.067,17.067S384,333.68,384,324.268     C384,314.855,376.346,307.201,366.934,307.201z M273.067,307.201c-18.825,0-34.133-15.309-34.133-34.133     c0-18.825,15.309-34.133,34.133-34.133c18.825,0,34.133,15.309,34.133,34.133c0,4.71-3.823,8.533-8.533,8.533     s-8.533-3.823-8.533-8.533c0-9.412-7.654-17.067-17.067-17.067c-9.412,0-17.067,7.654-17.067,17.067     c0,9.412,7.654,17.067,17.067,17.067c18.825,0,34.133,15.309,34.133,34.133c0,18.825-15.309,34.133-34.133,34.133     c-18.825,0-34.133-15.309-34.133-34.133c0-4.71,3.823-8.533,8.533-8.533s8.533,3.823,8.533,8.533     c0,9.412,7.654,17.067,17.067,17.067c9.412,0,17.067-7.654,17.067-17.067C290.134,314.855,282.479,307.201,273.067,307.201z      M170.667,238.934c14.72,0,28.851,5.402,39.817,15.206c3.507,3.14,3.806,8.533,0.666,12.041     c-3.132,3.516-8.533,3.823-12.041,0.674c-7.825-6.997-17.929-10.854-28.442-10.854c-23.526,0-42.667,19.14-42.667,42.667     c0,23.526,19.14,42.667,42.667,42.667c10.513,0,20.625-3.857,28.45-10.863c3.516-3.149,8.909-2.842,12.049,0.666     c3.14,3.516,2.842,8.909-0.666,12.049c-10.965,9.813-25.105,15.215-39.834,15.215c-32.939,0-59.733-26.795-59.733-59.733     S137.728,238.934,170.667,238.934z M35.721,293.71l42.667-59.733c2.739-3.84,8.073-4.727,11.904-1.988     c3.84,2.739,4.727,8.073,1.988,11.904l-39.125,54.775l39.125,54.775c2.739,3.831,1.852,9.165-1.988,11.904     c-1.502,1.067-3.234,1.587-4.949,1.587c-2.662,0-5.291-1.246-6.955-3.575l-42.667-59.733     C33.605,300.656,33.605,296.679,35.721,293.71z"/>
		</g>
	</g>
</g>
<g>
</g>
<g>
</g>
<g>
</g>
<g>
</g>
<g>
</g>
<g>
</g>
<g>
</g>
<g>
</g>
<g>
</g>
<g>
</g>
<g>
</g>
<g>
</g>
<g>
</g>
<g>
</g>
<g>
</g>
</svg>
