<?xml version="1.0" encoding="iso-8859-1"?>
<!-- Generator: Adobe Illustrator 19.0.0, SVG Export Plug-In . SVG Version: 6.00 Build 0)  -->
<svg xmlns="http://www.w3.org/2000/svg" xmlns:xlink="http://www.w3.org/1999/xlink" version="1.1" id="Layer_1" x="0px" y="0px" viewBox="0 0 512 512" style="enable-background:new 0 0 512 512;" xml:space="preserve">
<g>
	<g>
		<g>
			<polygon points="332.8,5 332.8,102.399 430.199,102.399    "/>
			<path d="M477.867,187.733H435.2v-68.267H324.267c-4.719,0-8.533-3.823-8.533-8.533V0h-281.6C29.414,0,25.6,3.823,25.6,8.533     v187.733v102.4v102.4v102.4c0,4.71,3.814,8.533,8.533,8.533h392.533c4.719,0,8.533-3.823,8.533-8.533V409.6h42.667     c4.719,0,8.533-3.823,8.533-8.533v-102.4v-102.4C486.4,191.556,482.586,187.733,477.867,187.733z M312.201,204.8l85.333,85.333     H182.733L97.399,204.8H312.201z M42.667,204.8h30.601l85.333,85.333H42.667V204.8z M42.667,392.533V307.2h133l85.333,85.333     H42.667z M469.333,392.533h-42.667H285.133L199.799,307.2h214.801l54.733,54.733V392.533z M469.333,337.801L438.733,307.2h30.601     V337.801z M469.333,290.133h-47.667L336.333,204.8h90.334h42.667V290.133z"/>
		</g>
	</g>
</g>
<g>
</g>
<g>
</g>
<g>
</g>
<g>
</g>
<g>
</g>
<g>
</g>
<g>
</g>
<g>
</g>
<g>
</g>
<g>
</g>
<g>
</g>
<g>
</g>
<g>
</g>
<g>
</g>
<g>
</g>
</svg>
