<?xml version="1.0" encoding="iso-8859-1"?>
<!-- Generator: Adobe Illustrator 19.0.0, SVG Export Plug-In . SVG Version: 6.00 Build 0)  -->
<svg xmlns="http://www.w3.org/2000/svg" xmlns:xlink="http://www.w3.org/1999/xlink" version="1.1" id="Layer_1" x="0px" y="0px" viewBox="0 0 512 512" style="enable-background:new 0 0 512 512;" xml:space="preserve">
<g>
	<g>
		<g>
			<path d="M503.467,187.733H409.6v-68.267H298.667c-4.71,0-8.533-3.823-8.533-8.533V0H8.533C3.823,0,0,3.823,0,8.533v494.933     C0,508.177,3.823,512,8.533,512h392.533c4.71,0,8.533-3.823,8.533-8.533V409.6h93.867c4.71,0,8.533-3.823,8.533-8.533v-204.8     C512,191.556,508.177,187.733,503.467,187.733z M494.933,392.533h-93.867H136.533V204.8h264.533h93.867V392.533z"/>
			<path d="M366.933,221.867h-102.4c-4.71,0-8.533,3.823-8.533,8.533s3.823,8.533,8.533,8.533H307.2v128     c0,4.71,3.823,8.533,8.533,8.533s8.533-3.823,8.533-8.533v-128h42.667c4.71,0,8.533-3.823,8.533-8.533     S371.644,221.867,366.933,221.867z"/>
			<path d="M179.234,221.87h-17.101c-4.71,0-8.533,3.814-8.533,8.533v136.533c0,4.71,3.823,8.533,8.533,8.533h17.101     c32.922,0,59.699-26.786,59.699-59.699v-34.21C238.933,248.648,212.156,221.87,179.234,221.87z M221.867,315.771     c0,23.501-19.123,42.633-42.633,42.633h-8.567V238.937h8.567c23.509,0,42.633,19.123,42.633,42.624V315.771z"/>
			<path d="M392.533,230.4v136.533c0,4.71,3.823,8.533,8.533,8.533h17.101c32.922,0,59.699-26.778,59.699-59.699v-34.202     c0-32.922-26.778-59.699-59.699-59.699h-17.101C396.356,221.867,392.533,225.69,392.533,230.4z M409.6,238.933h8.567     c23.509,0,42.633,19.123,42.633,42.633v34.202c0,23.509-19.123,42.633-42.633,42.633H409.6V238.933z"/>
			<polygon points="307.2,5 307.2,102.399 404.599,102.399    "/>
		</g>
	</g>
</g>
<g>
</g>
<g>
</g>
<g>
</g>
<g>
</g>
<g>
</g>
<g>
</g>
<g>
</g>
<g>
</g>
<g>
</g>
<g>
</g>
<g>
</g>
<g>
</g>
<g>
</g>
<g>
</g>
<g>
</g>
</svg>
