<?xml version="1.0" encoding="iso-8859-1"?>
<!-- Generator: Adobe Illustrator 19.0.0, SVG Export Plug-In . SVG Version: 6.00 Build 0)  -->
<svg xmlns="http://www.w3.org/2000/svg" xmlns:xlink="http://www.w3.org/1999/xlink" version="1.1" id="Layer_1" x="0px" y="0px" viewBox="0 0 512 512" style="enable-background:new 0 0 512 512;" xml:space="preserve">
<g>
	<g>
		<g>
			<path d="M503.467,187.733H409.6v-68.267H298.667c-4.71,0-8.533-3.823-8.533-8.533V0H8.533C3.823,0,0,3.823,0,8.533v494.933     C0,508.177,3.823,512,8.533,512h392.533c4.71,0,8.533-3.823,8.533-8.533V409.6h93.867c4.71,0,8.533-3.823,8.533-8.533v-204.8     C512,191.556,508.177,187.733,503.467,187.733z M494.933,392.533h-93.867H136.533V204.8h264.533h93.867V392.533z"/>
			<path d="M196.267,238.933c14.114,0,25.6,11.486,25.6,25.6c0,4.71,3.823,8.533,8.533,8.533s8.533-3.823,8.533-8.533     c0-23.526-19.14-42.667-42.667-42.667c-23.526,0-42.667,19.14-42.667,42.667c0,23.526,19.14,42.667,42.667,42.667     c14.114,0,25.6,11.486,25.6,25.6c0,14.114-11.486,25.6-25.6,25.6s-25.6-11.486-25.6-25.6c0-4.71-3.823-8.533-8.533-8.533     c-4.71,0-8.533,3.823-8.533,8.533c0,23.526,19.14,42.667,42.667,42.667c23.526,0,42.667-19.14,42.667-42.667     c0-23.526-19.14-42.667-42.667-42.667c-14.114,0-25.6-11.486-25.6-25.6S182.153,238.933,196.267,238.933z"/>
			<path d="M375.467,290.133c0-37.641-26.795-68.267-59.733-68.267S256,252.493,256,290.133c0,37.641,26.795,68.267,59.733,68.267     c4.258,0,8.405-0.538,12.416-1.502c5.726,11.11,17.237,18.568,30.251,18.568c4.71,0,8.533-3.823,8.533-8.533     s-3.823-8.533-8.533-8.533c-6.042,0-11.469-3.191-14.507-8.09C362.667,338.79,375.467,316.143,375.467,290.133z M315.733,341.333     c-23.526,0-42.667-22.963-42.667-51.2c0-28.237,19.14-51.2,42.667-51.2c23.526,0,42.667,22.963,42.667,51.2     C358.4,318.37,339.26,341.333,315.733,341.333z"/>
			<path d="M392.533,230.4v136.533c0,4.71,3.823,8.533,8.533,8.533h68.267c4.71,0,8.533-3.823,8.533-8.533s-3.823-8.533-8.533-8.533     H409.6v-128c0-4.71-3.823-8.533-8.533-8.533S392.533,225.69,392.533,230.4z"/>
			<polygon points="307.2,5 307.2,102.399 404.599,102.399    "/>
		</g>
	</g>
</g>
<g>
</g>
<g>
</g>
<g>
</g>
<g>
</g>
<g>
</g>
<g>
</g>
<g>
</g>
<g>
</g>
<g>
</g>
<g>
</g>
<g>
</g>
<g>
</g>
<g>
</g>
<g>
</g>
<g>
</g>
</svg>
