<?xml version="1.0" encoding="iso-8859-1"?>
<!-- Generator: Adobe Illustrator 19.0.0, SVG Export Plug-In . SVG Version: 6.00 Build 0)  -->
<svg xmlns="http://www.w3.org/2000/svg" xmlns:xlink="http://www.w3.org/1999/xlink" version="1.1" id="Layer_1" x="0px" y="0px" viewBox="0 0 512 512" style="enable-background:new 0 0 512 512;" xml:space="preserve">
<g>
	<g>
		<g>
			<path d="M477.867,324.267H435.2v-204.8H324.267c-4.719,0-8.533-3.823-8.533-8.533V0h-281.6C29.414,0,25.6,3.823,25.6,8.533     v494.933c0,4.71,3.814,8.533,8.533,8.533H307.2h170.667c4.719,0,8.533-3.823,8.533-8.533V332.8     C486.4,328.09,482.586,324.267,477.867,324.267z M298.667,443.733H102.4c-4.719,0-8.533-3.823-8.533-8.533V76.8     c0-4.71,3.814-8.533,8.533-8.533h170.667c4.719,0,8.533,3.823,8.533,8.533v76.8h76.8c4.719,0,8.533,3.823,8.533,8.533v162.133     h-17.067v-153.6h-76.8c-4.719,0-8.533-3.823-8.533-8.533v-76.8h-153.6v341.333h187.733V443.733z M298.667,324.267V307.2     c0-32.939-26.803-59.733-59.733-59.733h-76.8V384c0,4.71-3.814,8.533-8.533,8.533s-8.533-3.823-8.533-8.533V128     c0-4.71,3.814-8.533,8.533-8.533s8.533,3.823,8.533,8.533v102.4h76.8c42.351,0,76.8,34.458,76.8,76.8v17.067H307.2H298.667z      M469.333,494.933h-153.6V435.2v-93.867H358.4h68.267h42.667V494.933z"/>
			<polygon points="332.8,5 332.8,102.399 430.199,102.399    "/>
		</g>
	</g>
</g>
<g>
</g>
<g>
</g>
<g>
</g>
<g>
</g>
<g>
</g>
<g>
</g>
<g>
</g>
<g>
</g>
<g>
</g>
<g>
</g>
<g>
</g>
<g>
</g>
<g>
</g>
<g>
</g>
<g>
</g>
</svg>
