<?xml version="1.0" encoding="iso-8859-1"?>
<!-- Generator: Adobe Illustrator 19.0.0, SVG Export Plug-In . SVG Version: 6.00 Build 0)  -->
<svg xmlns="http://www.w3.org/2000/svg" xmlns:xlink="http://www.w3.org/1999/xlink" version="1.1" id="Layer_1" x="0px" y="0px" viewBox="0 0 512 512" style="enable-background:new 0 0 512 512;" xml:space="preserve">
<g>
	<g>
		<g>
			<path d="M503.467,187.733H409.6v-68.267H298.667c-4.719,0-8.533-3.823-8.533-8.533V0H8.533C3.814,0,0,3.823,0,8.533v494.933     C0,508.177,3.814,512,8.533,512h392.533c4.719,0,8.533-3.823,8.533-8.533V409.6h93.867c4.719,0,8.533-3.823,8.533-8.533v-204.8     C512,191.556,508.186,187.733,503.467,187.733z M494.933,392.533h-93.867H187.733V204.8h213.333h93.867V392.533z"/>
			<path d="M290.176,221.87h-17.109c-4.719,0-8.533,3.814-8.533,8.533v136.533c0,4.71,3.814,8.533,8.533,8.533h17.109     c32.913,0,59.691-26.786,59.691-59.699v-34.21C349.867,248.648,323.089,221.87,290.176,221.87z M332.8,315.771     c0,23.501-19.123,42.633-42.624,42.633H281.6V238.937h8.576c23.501,0,42.624,19.123,42.624,42.624V315.771z"/>
			<path d="M230.4,221.867c-4.719,0-8.533,3.823-8.533,8.533v136.533c0,4.71,3.814,8.533,8.533,8.533s8.533-3.823,8.533-8.533V230.4     C238.933,225.69,235.119,221.867,230.4,221.867z"/>
			<path d="M392.533,230.4c0-4.71-3.814-8.533-8.533-8.533c-4.719,0-8.533,3.823-8.533,8.533v136.533     c0,4.71,3.814,8.533,8.533,8.533h68.267c4.719,0,8.533-3.823,8.533-8.533s-3.814-8.533-8.533-8.533h-59.733V230.4z"/>
			<polygon points="307.2,5 307.2,102.399 404.599,102.399    "/>
		</g>
	</g>
</g>
<g>
</g>
<g>
</g>
<g>
</g>
<g>
</g>
<g>
</g>
<g>
</g>
<g>
</g>
<g>
</g>
<g>
</g>
<g>
</g>
<g>
</g>
<g>
</g>
<g>
</g>
<g>
</g>
<g>
</g>
</svg>
