<?xml version="1.0" encoding="iso-8859-1"?>
<!-- Generator: Adobe Illustrator 19.0.0, SVG Export Plug-In . SVG Version: 6.00 Build 0)  -->
<svg xmlns="http://www.w3.org/2000/svg" xmlns:xlink="http://www.w3.org/1999/xlink" version="1.1" id="Layer_1" x="0px" y="0px" viewBox="0 0 512 512" style="enable-background:new 0 0 512 512;" xml:space="preserve">
<g>
	<g>
		<g>
			<path d="M503.467,170.667H409.6v-51.2H298.667c-4.71,0-8.533-3.823-8.533-8.533V0H8.533C3.823,0,0,3.823,0,8.533v494.933     C0,508.177,3.823,512,8.533,512h392.533c4.71,0,8.533-3.823,8.533-8.533v-76.8h93.867c4.71,0,8.533-3.823,8.533-8.533V179.2     C512,174.49,508.177,170.667,503.467,170.667z M494.933,409.6h-93.867H187.733V187.733h213.333h93.867V409.6z"/>
			<path d="M256,273.067v-34.133c0-9.412,7.654-17.067,17.067-17.067c4.71,0,8.533-3.823,8.533-8.533     c0-4.71-3.823-8.533-8.533-8.533c-18.825,0-34.133,15.309-34.133,34.133v30.601l-23.1,23.1c-3.337,3.337-3.337,8.73,0,12.066     l23.1,23.1V358.4c0,18.825,15.309,34.133,34.133,34.133c4.71,0,8.533-3.823,8.533-8.533s-3.823-8.533-8.533-8.533     c-9.412,0-17.067-7.654-17.067-17.067v-34.133c0-2.261-0.896-4.437-2.5-6.033l-19.567-19.567L253.5,279.1     C255.104,277.504,256,275.328,256,273.067z"/>
			<path d="M409.6,221.867c9.446,0,17.135,7.654,17.135,17.05l-0.068,34.133c0,2.27,0.896,4.446,2.5,6.05l19.567,19.567     l-19.567,19.567c-1.604,1.596-2.5,3.772-2.5,6.033V358.4c0,9.412-7.654,17.067-17.067,17.067c-4.71,0-8.533,3.823-8.533,8.533     s3.823,8.533,8.533,8.533c18.825,0,34.133-15.309,34.133-34.133v-30.601l23.1-23.1c3.337-3.337,3.337-8.73,0-12.066l-23.091-23.1     l0.06-30.601c0-18.825-15.343-34.133-34.202-34.133c-4.71,0-8.533,3.823-8.533,8.533     C401.067,218.044,404.89,221.867,409.6,221.867z"/>
			<path d="M375.467,349.867h-59.733V238.933c0-4.71-3.823-8.533-8.533-8.533s-8.533,3.823-8.533,8.533V358.4     c0,4.71,3.823,8.533,8.533,8.533h68.267c4.71,0,8.533-3.823,8.533-8.533S380.177,349.867,375.467,349.867z"/>
			<polygon points="307.2,5 307.2,102.399 404.599,102.399    "/>
		</g>
	</g>
</g>
<g>
</g>
<g>
</g>
<g>
</g>
<g>
</g>
<g>
</g>
<g>
</g>
<g>
</g>
<g>
</g>
<g>
</g>
<g>
</g>
<g>
</g>
<g>
</g>
<g>
</g>
<g>
</g>
<g>
</g>
</svg>
