<?xml version="1.0" encoding="iso-8859-1"?>
<!-- Generator: Adobe Illustrator 19.0.0, SVG Export Plug-In . SVG Version: 6.00 Build 0)  -->
<svg xmlns="http://www.w3.org/2000/svg" xmlns:xlink="http://www.w3.org/1999/xlink" version="1.1" id="Layer_1" x="0px" y="0px" viewBox="0 0 512 512" style="enable-background:new 0 0 512 512;" xml:space="preserve">
<g>
	<g>
		<g>
			<path d="M503.467,187.733H409.6v-68.267H298.667c-4.71,0-8.533-3.823-8.533-8.533V0H8.533C3.823,0,0,3.823,0,8.533v494.933     C0,508.177,3.823,512,8.533,512h392.533c4.71,0,8.533-3.823,8.533-8.533V409.6h93.867c4.71,0,8.533-3.823,8.533-8.533v-204.8     C512,191.556,508.177,187.733,503.467,187.733z M494.933,392.533h-93.867h-230.4V204.8h230.4h93.867V392.533z"/>
			<path d="M315.733,238.933c14.114,0,25.6,11.486,25.6,25.6c0,4.71,3.823,8.533,8.533,8.533s8.533-3.823,8.533-8.533     c0-23.526-19.14-42.667-42.667-42.667c-23.526,0-42.667,19.14-42.667,42.667c0,23.526,19.14,42.667,42.667,42.667     c14.114,0,25.6,11.486,25.6,25.6c0,14.114-11.486,25.6-25.6,25.6s-25.6-11.486-25.6-25.6c0-4.71-3.823-8.533-8.533-8.533     s-8.533,3.823-8.533,8.533c0,23.526,19.14,42.667,42.667,42.667c23.526,0,42.667-19.14,42.667-42.667     c0-23.526-19.14-42.667-42.667-42.667c-14.114,0-25.6-11.486-25.6-25.6S301.619,238.933,315.733,238.933z"/>
			<path d="M247.467,230.4c-4.71,0-8.533,3.823-8.533,8.533v102.4c0,9.412-7.654,17.067-17.067,17.067     c-9.412,0-17.067-7.654-17.067-17.067c0-4.71-3.823-8.533-8.533-8.533s-8.533,3.823-8.533,8.533     c0,18.825,15.309,34.133,34.133,34.133S256,360.158,256,341.333v-102.4C256,234.223,252.177,230.4,247.467,230.4z"/>
			<path d="M379.478,223.165c-4.002,2.5-5.214,7.757-2.714,11.759l39.842,63.744l-39.842,63.744     c-2.5,3.994-1.289,9.259,2.714,11.759c1.408,0.879,2.97,1.297,4.514,1.297c2.842,0,5.623-1.425,7.245-4.011l35.43-56.687     l35.43,56.687c1.621,2.586,4.395,4.011,7.245,4.011c1.545,0,3.106-0.418,4.514-1.297c3.994-2.5,5.205-7.765,2.714-11.759     l-39.842-63.744l39.842-63.744c2.492-4.002,1.28-9.259-2.714-11.759c-3.985-2.5-9.267-1.289-11.759,2.714l-35.43,56.687     l-35.43-56.687C388.737,221.877,383.472,220.674,379.478,223.165z"/>
			<polygon points="307.2,5 307.2,102.399 404.599,102.399    "/>
		</g>
	</g>
</g>
<g>
</g>
<g>
</g>
<g>
</g>
<g>
</g>
<g>
</g>
<g>
</g>
<g>
</g>
<g>
</g>
<g>
</g>
<g>
</g>
<g>
</g>
<g>
</g>
<g>
</g>
<g>
</g>
<g>
</g>
</svg>
