<?xml version="1.0" encoding="iso-8859-1"?>
<!-- Generator: Adobe Illustrator 19.0.0, SVG Export Plug-In . SVG Version: 6.00 Build 0)  -->
<svg xmlns="http://www.w3.org/2000/svg" xmlns:xlink="http://www.w3.org/1999/xlink" version="1.1" id="Layer_1" x="0px" y="0px" viewBox="0 0 512 512" style="enable-background:new 0 0 512 512;" xml:space="preserve">
<g>
	<g>
		<g>
			<path d="M503.467,187.733H409.6v-68.267H298.667c-4.71,0-8.533-3.823-8.533-8.533V0H8.533C3.823,0,0,3.823,0,8.533v494.933     C0,508.177,3.823,512,8.533,512h392.533c4.71,0,8.533-3.823,8.533-8.533V409.6h93.867c4.71,0,8.533-3.823,8.533-8.533v-204.8     C512,191.556,508.177,187.733,503.467,187.733z M494.933,392.533h-93.867h-230.4V204.8h230.4h93.867V392.533z"/>
			<path d="M324.267,238.933c14.114,0,25.6,11.486,25.6,25.6c0,4.71,3.823,8.533,8.533,8.533s8.533-3.823,8.533-8.533     c0-23.526-19.14-42.667-42.667-42.667c-23.526,0-42.667,19.14-42.667,42.667c0,23.526,19.14,42.667,42.667,42.667     c14.114,0,25.6,11.486,25.6,25.6c0,14.114-11.486,25.6-25.6,25.6s-25.6-11.486-25.6-25.6c0-4.71-3.823-8.533-8.533-8.533     s-8.533,3.823-8.533,8.533c0,23.526,19.14,42.667,42.667,42.667c23.526,0,42.667-19.14,42.667-42.667     c0-23.526-19.14-42.667-42.667-42.667c-14.114,0-25.6-11.486-25.6-25.6S310.153,238.933,324.267,238.933z"/>
			<path d="M247.467,230.4c-4.71,0-8.533,3.823-8.533,8.533v102.4c0,9.412-7.654,17.067-17.067,17.067     c-9.412,0-17.067-7.654-17.067-17.067c0-4.71-3.823-8.533-8.533-8.533s-8.533,3.823-8.533,8.533     c0,18.825,15.309,34.133,34.133,34.133S256,360.158,256,341.333v-102.4C256,234.223,252.177,230.4,247.467,230.4z"/>
			<path d="M392.533,230.4v68.267v68.267c0,4.71,3.823,8.533,8.533,8.533s8.533-3.823,8.533-8.533V307.2h34.133     c18.825,0,34.133-15.309,34.133-34.133V256c0-18.825-15.309-34.133-34.133-34.133h-42.667     C396.356,221.867,392.533,225.69,392.533,230.4z M409.6,238.933h34.133c9.412,0,17.067,7.654,17.067,17.067v17.067     c0,9.412-7.654,17.067-17.067,17.067H409.6V238.933z"/>
			<polygon points="307.2,5 307.2,102.399 404.599,102.399    "/>
		</g>
	</g>
</g>
<g>
</g>
<g>
</g>
<g>
</g>
<g>
</g>
<g>
</g>
<g>
</g>
<g>
</g>
<g>
</g>
<g>
</g>
<g>
</g>
<g>
</g>
<g>
</g>
<g>
</g>
<g>
</g>
<g>
</g>
</svg>
