<?xml version="1.0" encoding="iso-8859-1"?>
<!-- Generator: Adobe Illustrator 19.0.0, SVG Export Plug-In . SVG Version: 6.00 Build 0)  -->
<svg xmlns="http://www.w3.org/2000/svg" xmlns:xlink="http://www.w3.org/1999/xlink" version="1.1" id="Layer_1" x="0px" y="0px" viewBox="0 0 512 512" style="enable-background:new 0 0 512 512;" xml:space="preserve">
<g>
	<g>
		<g>
			<path d="M503.467,187.733H460.8v-68.267H349.867c-4.719,0-8.533-3.823-8.533-8.533V0h-281.6C55.014,0,51.2,3.823,51.2,8.533     v179.2H8.533c-4.719,0-8.533,3.823-8.533,8.533v204.8c0,4.71,3.814,8.533,8.533,8.533H51.2v93.867     c0,4.71,3.814,8.533,8.533,8.533h392.533c4.719,0,8.533-3.823,8.533-8.533V409.6h42.667c4.719,0,8.533-3.823,8.533-8.533v-204.8     C512,191.556,508.186,187.733,503.467,187.733z M494.933,392.533h-42.667H59.733H17.067V204.8h42.667h392.533h42.667V392.533z"/>
			<path d="M315.733,221.867H281.6c-4.719,0-8.533,3.823-8.533,8.533v68.267v68.267c0,4.71,3.814,8.533,8.533,8.533     c4.719,0,8.533-3.823,8.533-8.533V307.2h25.6c18.825,0,34.133-15.309,34.133-34.133V256     C349.867,237.175,334.558,221.867,315.733,221.867z M332.8,273.067c0,9.412-7.654,17.067-17.067,17.067h-25.6v-51.2h25.6     c9.412,0,17.067,7.654,17.067,17.067V273.067z"/>
			<path d="M59.776,221.87H42.667c-4.719,0-8.533,3.814-8.533,8.533v136.533c0,4.71,3.814,8.533,8.533,8.533h17.109     c32.913,0,59.691-26.786,59.691-59.699v-34.21C119.467,248.648,92.689,221.87,59.776,221.87z M102.4,315.771     c0,23.501-19.123,42.633-42.624,42.633H51.2V238.937h8.576c23.501,0,42.624,19.123,42.624,42.624V315.771z"/>
			<path d="M179.2,238.933c4.719,0,8.533-3.823,8.533-8.533s-3.814-8.533-8.533-8.533h-42.667c-4.719,0-8.533,3.823-8.533,8.533     v136.533c0,4.71,3.814,8.533,8.533,8.533H179.2c4.719,0,8.533-3.823,8.533-8.533s-3.814-8.533-8.533-8.533h-34.133v-51.2H179.2     c4.719,0,8.533-3.823,8.533-8.533s-3.814-8.533-8.533-8.533h-34.133v-51.2H179.2z"/>
			<path d="M256,358.4h-42.667v-128c0-4.71-3.814-8.533-8.533-8.533s-8.533,3.823-8.533,8.533v136.533     c0,4.71,3.814,8.533,8.533,8.533H256c4.719,0,8.533-3.823,8.533-8.533S260.719,358.4,256,358.4z"/>
			<path d="M469.333,375.467c4.719,0,8.533-3.823,8.533-8.533v-102.4c0-4.71-3.814-8.533-8.533-8.533s-8.533,3.823-8.533,8.533     v102.4C460.8,371.644,464.614,375.467,469.333,375.467z"/>
			<path d="M443.733,221.867c-4.719,0-8.533,3.823-8.533,8.533v59.733h-59.733V230.4c0-4.71-3.814-8.533-8.533-8.533     s-8.533,3.823-8.533,8.533v136.533c0,4.71,3.814,8.533,8.533,8.533s8.533-3.823,8.533-8.533V307.2H435.2v59.733     c0,4.71,3.814,8.533,8.533,8.533c4.719,0,8.533-3.823,8.533-8.533V230.4C452.267,225.69,448.452,221.867,443.733,221.867z"/>
			<path d="M469.333,238.933c4.719,0,8.533-3.823,8.533-8.533s-3.814-8.533-8.533-8.533s-8.533,3.823-8.533,8.533     S464.614,238.933,469.333,238.933z"/>
			<polygon points="358.4,5 358.4,102.399 455.799,102.399    "/>
		</g>
	</g>
</g>
<g>
</g>
<g>
</g>
<g>
</g>
<g>
</g>
<g>
</g>
<g>
</g>
<g>
</g>
<g>
</g>
<g>
</g>
<g>
</g>
<g>
</g>
<g>
</g>
<g>
</g>
<g>
</g>
<g>
</g>
</svg>
