<?xml version="1.0" encoding="iso-8859-1"?>
<!-- Generator: Adobe Illustrator 19.0.0, SVG Export Plug-In . SVG Version: 6.00 Build 0)  -->
<svg xmlns="http://www.w3.org/2000/svg" xmlns:xlink="http://www.w3.org/1999/xlink" version="1.1" id="Layer_1" x="0px" y="0px" viewBox="0 0 512 512" style="enable-background:new 0 0 512 512;" xml:space="preserve">
<g>
	<g>
		<g>
			<rect x="187.733" y="119.467" width="136.533" height="17.067"/>
			<rect x="187.733" y="298.667" width="17.067" height="51.2"/>
			<path d="M332.8,0H179.2c-23.526,0-42.667,19.14-42.667,42.667v25.6h238.933v-25.6C375.467,19.14,356.326,0,332.8,0z"/>
			<path d="M136.533,469.333c0,23.526,19.14,42.667,42.667,42.667h153.6c23.526,0,42.667-19.14,42.667-42.667v-25.6H136.533V469.333     z"/>
			<path d="M136.533,426.667h238.933V85.333H136.533V426.667z M170.667,110.933c0-4.71,3.814-8.533,8.533-8.533h153.6     c4.719,0,8.533,3.823,8.533,8.533v34.133c0,4.71-3.814,8.533-8.533,8.533H179.2c-4.719,0-8.533-3.823-8.533-8.533V110.933z      M170.667,179.2c0-4.71,3.814-8.533,8.533-8.533h153.6c4.719,0,8.533,3.823,8.533,8.533v34.133c0,4.71-3.814,8.533-8.533,8.533     H179.2c-4.719,0-8.533-3.823-8.533-8.533V179.2z M170.667,290.133c0-4.71,3.814-8.533,8.533-8.533h34.133     c4.719,0,8.533,3.823,8.533,8.533V358.4c0,4.71-3.814,8.533-8.533,8.533H179.2c-4.719,0-8.533-3.823-8.533-8.533V290.133z"/>
			<rect x="187.733" y="187.733" width="136.533" height="17.067"/>
		</g>
	</g>
</g>
<g>
</g>
<g>
</g>
<g>
</g>
<g>
</g>
<g>
</g>
<g>
</g>
<g>
</g>
<g>
</g>
<g>
</g>
<g>
</g>
<g>
</g>
<g>
</g>
<g>
</g>
<g>
</g>
<g>
</g>
</svg>
