<?xml version="1.0" encoding="iso-8859-1"?>
<!-- Generator: Adobe Illustrator 19.0.0, SVG Export Plug-In . SVG Version: 6.00 Build 0)  -->
<svg xmlns="http://www.w3.org/2000/svg" xmlns:xlink="http://www.w3.org/1999/xlink" version="1.1" id="Layer_1" x="0px" y="0px" viewBox="0 0 511.969 511.969" style="enable-background:new 0 0 511.969 511.969;" xml:space="preserve">
<g>
	<g>
		<g>
			<path d="M500.896,49.041c-11.844-17.357-31.462-27.725-52.48-27.725H63.554c-21.018,0-40.636,10.368-52.48,27.725     C-0.779,66.406-3.288,88.456,4.375,108.032l41.054,104.926c2.807,7.168,7.825,12.885,14.054,16.674     c-5.12,5.973-8.329,13.628-8.329,22.084v17.067h409.6v-17.067c0-8.448-3.2-16.094-8.311-22.067     c6.246-3.78,11.281-9.506,14.097-16.691l41.054-104.926C515.257,88.456,512.748,66.398,500.896,49.041z M119.421,260.25h-25.6     c-4.719,0-8.533-3.814-8.533-8.533c0-4.71,3.814-8.533,8.533-8.533h25.6c4.719,0,8.533,3.823,8.533,8.533     C127.955,256.435,124.14,260.25,119.421,260.25z M418.088,260.25h-85.333c-4.719,0-8.533-3.814-8.533-8.533     c0-4.71,3.814-8.533,8.533-8.533h85.333c4.719,0,8.533,3.823,8.533,8.533C426.621,256.435,422.807,260.25,418.088,260.25z      M491.697,101.811l-41.062,104.926c-2.569,6.588-8.815,10.846-15.889,10.846h-8.124H85.288h-8.064     c-7.074,0-13.321-4.258-15.898-10.846L20.273,101.811c-5.692-14.532-3.9-30.259,4.89-43.145     c8.798-12.885,22.793-20.284,38.391-20.284h384.862c15.599,0,29.594,7.398,38.391,20.275     C495.605,71.552,497.388,87.279,491.697,101.811z"/>
			<rect x="187.688" y="413.853" width="136.533" height="76.8"/>
			<path d="M51.155,447.986c0,23.526,19.14,42.667,42.667,42.667h76.8V405.32c0-4.71,3.814-8.533,8.533-8.533h153.6     c4.719,0,8.533,3.823,8.533,8.533v85.333h76.8c23.526,0,42.667-19.14,42.667-42.667V285.853h-409.6V447.986z M179.155,379.72     h-25.6c-4.719,0-8.533-3.823-8.533-8.533s3.814-8.533,8.533-8.533h25.6c4.719,0,8.533,3.823,8.533,8.533     S183.874,379.72,179.155,379.72z M298.621,379.72h-85.333c-4.719,0-8.533-3.823-8.533-8.533s3.814-8.533,8.533-8.533h85.333     c4.719,0,8.533,3.823,8.533,8.533S303.34,379.72,298.621,379.72z M358.355,379.72h-25.6c-4.719,0-8.533-3.823-8.533-8.533     s3.814-8.533,8.533-8.533h25.6c4.719,0,8.533,3.823,8.533,8.533S363.074,379.72,358.355,379.72z M418.088,379.72h-25.6     c-4.719,0-8.533-3.823-8.533-8.533s3.814-8.533,8.533-8.533h25.6c4.719,0,8.533,3.823,8.533,8.533S422.807,379.72,418.088,379.72     z M392.488,294.386h25.6c4.719,0,8.533,3.823,8.533,8.533s-3.814,8.533-8.533,8.533h-25.6c-4.719,0-8.533-3.823-8.533-8.533     S387.769,294.386,392.488,294.386z M375.421,328.52h42.667c4.719,0,8.533,3.823,8.533,8.533c0,4.71-3.814,8.533-8.533,8.533     h-42.667c-4.719,0-8.533-3.823-8.533-8.533C366.888,332.343,370.702,328.52,375.421,328.52z M358.355,294.386     c4.719,0,8.533,3.823,8.533,8.533s-3.814,8.533-8.533,8.533s-8.533-3.823-8.533-8.533S353.636,294.386,358.355,294.386z      M341.288,328.52c4.719,0,8.533,3.823,8.533,8.533c0,4.71-3.814,8.533-8.533,8.533c-4.719,0-8.533-3.823-8.533-8.533     C332.755,332.343,336.569,328.52,341.288,328.52z M324.221,294.386c4.719,0,8.533,3.823,8.533,8.533s-3.814,8.533-8.533,8.533     c-4.719,0-8.533-3.823-8.533-8.533S319.502,294.386,324.221,294.386z M307.155,328.52c4.719,0,8.533,3.823,8.533,8.533     c0,4.71-3.814,8.533-8.533,8.533s-8.533-3.823-8.533-8.533C298.621,332.343,302.436,328.52,307.155,328.52z M290.088,294.386     c4.719,0,8.533,3.823,8.533,8.533s-3.814,8.533-8.533,8.533s-8.533-3.823-8.533-8.533S285.369,294.386,290.088,294.386z      M273.021,328.52c4.719,0,8.533,3.823,8.533,8.533c0,4.71-3.814,8.533-8.533,8.533s-8.533-3.823-8.533-8.533     C264.488,332.343,268.302,328.52,273.021,328.52z M255.955,294.386c4.719,0,8.533,3.823,8.533,8.533s-3.814,8.533-8.533,8.533     s-8.533-3.823-8.533-8.533S251.236,294.386,255.955,294.386z M238.888,328.52c4.719,0,8.533,3.823,8.533,8.533     c0,4.71-3.814,8.533-8.533,8.533s-8.533-3.823-8.533-8.533C230.355,332.343,234.169,328.52,238.888,328.52z M221.821,294.386     c4.719,0,8.533,3.823,8.533,8.533s-3.814,8.533-8.533,8.533s-8.533-3.823-8.533-8.533S217.102,294.386,221.821,294.386z      M204.755,328.52c4.719,0,8.533,3.823,8.533,8.533c0,4.71-3.814,8.533-8.533,8.533s-8.533-3.823-8.533-8.533     C196.221,332.343,200.036,328.52,204.755,328.52z M187.688,294.386c4.719,0,8.533,3.823,8.533,8.533s-3.814,8.533-8.533,8.533     s-8.533-3.823-8.533-8.533S182.969,294.386,187.688,294.386z M170.621,328.52c4.719,0,8.533,3.823,8.533,8.533     c0,4.71-3.814,8.533-8.533,8.533s-8.533-3.823-8.533-8.533C162.088,332.343,165.902,328.52,170.621,328.52z M153.555,294.386     c4.719,0,8.533,3.823,8.533,8.533s-3.814,8.533-8.533,8.533c-4.719,0-8.533-3.823-8.533-8.533S148.836,294.386,153.555,294.386z      M93.821,294.386h25.6c4.719,0,8.533,3.823,8.533,8.533s-3.814,8.533-8.533,8.533h-25.6c-4.719,0-8.533-3.823-8.533-8.533     S89.102,294.386,93.821,294.386z M93.821,328.52h42.667c4.719,0,8.533,3.823,8.533,8.533c0,4.71-3.814,8.533-8.533,8.533H93.821     c-4.719,0-8.533-3.823-8.533-8.533C85.288,332.343,89.102,328.52,93.821,328.52z M93.821,362.653h25.6     c4.719,0,8.533,3.823,8.533,8.533s-3.814,8.533-8.533,8.533h-25.6c-4.719,0-8.533-3.823-8.533-8.533     S89.102,362.653,93.821,362.653z"/>
		</g>
	</g>
</g>
<g>
</g>
<g>
</g>
<g>
</g>
<g>
</g>
<g>
</g>
<g>
</g>
<g>
</g>
<g>
</g>
<g>
</g>
<g>
</g>
<g>
</g>
<g>
</g>
<g>
</g>
<g>
</g>
<g>
</g>
</svg>
