<?xml version="1.0" encoding="iso-8859-1"?>
<!-- Generator: Adobe Illustrator 19.0.0, SVG Export Plug-In . SVG Version: 6.00 Build 0)  -->
<svg xmlns="http://www.w3.org/2000/svg" xmlns:xlink="http://www.w3.org/1999/xlink" version="1.1" id="Capa_1" x="0px" y="0px" viewBox="0 0 503.657 503.657" style="enable-background:new 0 0 503.657 503.657;" xml:space="preserve">
<g>
	<g>
		<g>
			<path d="M84,218.229h16.787V0H84C70.117,0,58.82,11.298,58.82,25.18v167.869C58.82,206.931,70.117,218.229,84,218.229z"/>
			<path d="M151.148,335.737V318.95h-16.787v16.787c0,4.633-3.752,8.393-8.393,8.393h-16.787v16.787h16.787     c4.642,0,8.393,3.76,8.393,8.393v16.787h16.787V369.31c0-4.633,3.752-8.393,8.393-8.393h16.787V344.13h-16.787     C154.9,344.131,151.148,340.37,151.148,335.737z"/>
			<path d="M444.92,193.05V25.182c0-13.883-11.298-25.18-25.18-25.18h-41.967v218.229h41.967     C433.622,218.231,444.92,206.933,444.92,193.05z M402.894,117.451c-4.608,0-8.335-3.727-8.335-8.335     c0-4.608,3.727-8.335,8.335-8.335c4.608,0,8.335,3.727,8.335,8.335C411.229,113.724,407.502,117.451,402.894,117.451z"/>
			<path d="M288.055,84.129c-2.023-0.302-5.481-0.554-7.336,0.562c-1.536,0.932-2.736,3.475-3.92,4.927     c-2.073,2.56-4.323,4.977-6.732,7.218c-1.14,1.074-3.356,2.199-3.616,3.525c-0.101,0.52,0.092,1.066,0.755,1.654     c1.452,1.276,2.887,2.552,4.264,3.928c2.728,2.719,5.254,5.666,7.529,8.78c4.541,6.228,15.284,1.561,19.305-3.206     c3.248-3.861,4.541-8.788,3.651-13.883C300.78,90.844,294.93,85.17,288.055,84.129z"/>
			<polygon points="319.017,344.131 319.017,360.918 335.812,360.918 335.804,344.131    "/>
			<polygon points="377.771,344.131 377.771,360.918 394.566,360.918 394.558,344.131    "/>
			<path d="M461.671,343.115c-2.14-4.037-4.046-7.638-5.481-10.416c-1.234-2.619-30.712-64.109-86.813-64.109     c-40.448,0-56.647,10.139-62.926,16.787h-12.699v-67.148h67.231V0h-243.41v134.295h41.967c4.642,0,8.393,3.76,8.393,8.393     s-3.752,8.393-8.393,8.393h-41.967v16.787h25.18c4.642,0,8.393,3.76,8.393,8.393c0,4.633-3.752,8.393-8.393,8.393h-25.18v33.574     h92.244v67.148h-12.615c-6.278-6.648-22.469-16.787-62.926-16.787c-56.093,0-85.58,61.49-86.679,63.841     c-1.561,3.055-3.475,6.664-5.624,10.71C21.049,382.589-17.913,456.024,9.76,488.716c16.342,19.288,50.554,19.892,105.061,1.704     c1.821-0.722,43.319-17.551,66.199-53.961h141.623c22.881,36.411,64.394,53.248,66.635,54.129     c26.137,8.712,47.633,13.069,64.714,13.069c18.256,0,31.475-4.977,39.902-14.94C521.575,456.015,482.605,382.573,461.671,343.115     z M193.115,369.311c0,4.633-3.752,8.393-8.393,8.393h-16.787v16.787c0,4.633-3.752,8.393-8.393,8.393h-33.574     c-4.642,0-8.393-3.76-8.393-8.393v-16.787h-16.787c-4.642,0-8.393-3.76-8.393-8.393v-33.574c0-4.633,3.752-8.393,8.393-8.393     h16.787v-16.787c0-4.633,3.752-8.393,8.393-8.393h33.574c4.642,0,8.393,3.76,8.393,8.393v16.787h16.787     c4.642,0,8.393,3.76,8.393,8.393V369.311z M276.965,285.377h-50.361v-67.148h50.361V285.377z M273.465,160.004     c-6.094,5.12-13.748,7.865-21.655,7.865c-1.964,0-3.945-0.176-5.917-0.52c-13.916-2.426-25.105-13.916-27.212-27.95     c-0.252-1.712-0.336-3.416-0.336-5.103h-0.05c-9.938,0-19.305-4.365-25.701-11.977c-6.404-7.604-9.082-17.651-7.353-27.564     c2.426-13.916,13.916-25.113,27.95-27.22c1.721-0.26,3.441-0.386,5.154-0.369c0.008-1.704,0.084-3.408,0.344-5.128     c2.107-14.025,13.295-25.516,27.203-27.942c9.913-1.729,19.96,0.957,27.564,7.344c7.613,6.404,11.986,15.771,11.986,25.709v0.008     c1.695-0.008,3.408,0.117,5.103,0.378c14.034,2.107,25.524,13.304,27.95,27.212v0.008c1.729,9.913-0.948,19.96-7.353,27.564     c-6.396,7.613-15.763,11.977-25.701,11.977C285.443,144.232,281.07,153.6,273.465,160.004z M352.59,360.918     c0,9.258-7.529,16.787-16.787,16.787h-16.787c-9.258,0-16.787-7.529-16.787-16.787v-16.787c0-9.258,7.529-16.787,16.787-16.787     h16.787c9.258,0,16.787,7.529,16.787,16.787V360.918z M411.344,360.918c0,9.258-7.529,16.787-16.787,16.787H377.77     c-9.258,0-16.787-7.529-16.787-16.787v-16.787c0-9.258,7.529-16.787,16.787-16.787h16.787c9.258,0,16.787,7.529,16.787,16.787     V360.918z"/>
			<path d="M261.857,120.151c-2.451-2.694-5.053-5.682-8.116-7.68c-2.459-1.612-3.71,0.118-5.758,1.838     c-2.468,2.082-4.776,4.356-6.908,6.782c-3.937,4.499-6.723,9.678-5.8,15.813c1.041,6.874,6.715,12.724,13.505,13.908     c5.053,0.89,10.013-0.403,13.883-3.66c3.802-3.198,5.993-7.89,5.993-12.859c0-3.012-0.965-5.799-2.434-8.351     C265.013,123.852,263.477,121.922,261.857,120.151z"/>
			<path d="M250.314,89.112c0.428,0.378,0.898,0.764,1.46,0.865c1.351,0.252,4.197-2.971,5.196-3.827     c2.006-1.737,3.953-3.559,5.699-5.565c3.265-3.752,5.984-8.318,5.984-13.438c0-4.969-2.191-9.652-5.993-12.859     c-3.072-2.577-6.807-3.928-10.777-3.928c-1.024,0-2.056,0.092-3.106,0.277c-6.79,1.175-12.456,7.025-13.488,13.9     c-0.544,3.591,0.169,6.856,1.621,9.836C239.781,80.232,245.513,85.007,250.314,89.112z"/>
			<path d="M236.266,99.212c-1.637-1.402-3.206-2.879-4.709-4.423c-2.241-2.3-4.339-4.751-6.278-7.327     c-2.082-2.77-3.466-3.517-7.109-3.517c-0.823,0-1.654,0.067-2.493,0.185c-6.866,1.041-12.716,6.715-13.9,13.505     c-0.881,5.086,0.411,10.022,3.66,13.883c3.802,4.532,10.467,7.168,16.325,5.607c0.512-0.145,0.982-0.372,1.435-0.682     c2.082-1.435,3.525-4.432,5.137-6.303c2.082-2.409,4.331-4.667,6.723-6.782C236.744,101.872,238.456,101.109,236.266,99.212z"/>
		</g>
	</g>
</g>
<g>
</g>
<g>
</g>
<g>
</g>
<g>
</g>
<g>
</g>
<g>
</g>
<g>
</g>
<g>
</g>
<g>
</g>
<g>
</g>
<g>
</g>
<g>
</g>
<g>
</g>
<g>
</g>
<g>
</g>
</svg>
