<?xml version="1.0" encoding="iso-8859-1"?>
<!-- Generator: Adobe Illustrator 19.0.0, SVG Export Plug-In . SVG Version: 6.00 Build 0)  -->
<svg xmlns="http://www.w3.org/2000/svg" xmlns:xlink="http://www.w3.org/1999/xlink" version="1.1" id="Layer_1" x="0px" y="0px" viewBox="0 0 503.695 503.695" style="enable-background:new 0 0 503.695 503.695;" xml:space="preserve">
<g>
	<g>
		<g>
			<path d="M8.393,50.403h41.967v0.008h16.787v60.29c-9.745,3.475-16.787,12.708-16.787,23.636v67.156     c0,13.883,11.298,25.18,25.18,25.18s25.18-11.298,25.18-25.18h16.787c0,13.883,11.298,25.18,25.18,25.18h218.23     c13.883,0,25.18-11.298,25.18-25.18h16.787c0,13.883,11.298,25.18,25.18,25.18s25.18-11.298,25.18-25.18v-67.156     c0-10.928-7.042-20.161-16.787-23.636V75.583V50.411h16.787h41.967c4.642,0,8.393-3.76,8.393-8.393     c0-4.642-3.752-8.393-8.393-8.393h-41.967V19.187c0-10.559-8.586-19.145-19.145-19.145h-12.07     c-10.559,0-19.145,8.586-19.145,19.145v14.437h-41.967c-4.642,0-8.393,3.752-8.393,8.393c0,4.633,3.752,8.393,8.393,8.393h41.967     h16.787v25.172v35.118c-9.745,3.475-16.787,12.708-16.787,23.636v0.008h-16.787c0-13.891-11.298-25.18-25.18-25.18H324.18     l-22.897,45.778c-1.427,2.837-4.331,4.633-7.512,4.633h-83.934c-3.181,0-6.085-1.796-7.512-4.633l-22.897-45.778h-36.738     c-13.883,0-25.18,11.289-25.18,25.18h-16.787v-0.008c0-10.928-7.042-20.161-16.787-23.636v-60.29h16.787v-0.008h41.967     c4.642,0,8.393-3.76,8.393-8.393s-3.752-8.393-8.393-8.393h-41.967V19.187c0-10.559-8.586-19.145-19.145-19.145h-12.07     c-10.559,0-19.145,8.586-19.145,19.145v14.428H8.393C3.752,33.616,0,37.376,0,42.009S3.752,50.403,8.393,50.403z      M386.098,151.132h16.787v33.574h-16.787V151.132z M193.049,176.304h117.508c4.642,0,8.393,3.76,8.393,8.393     s-3.752,8.393-8.393,8.393H193.049c-4.642,0-8.393-3.76-8.393-8.393S188.408,176.304,193.049,176.304z M100.721,151.132h16.787     v33.574h-16.787V151.132z"/>
			<path d="M288.583,142.789l16.829-33.624h-11.642V92.378c0-23.141-18.827-41.967-41.967-41.967     c-23.141,0-41.967,18.826-41.967,41.967v16.787h-11.642l16.829,33.624H288.583z M226.623,92.378     c0-13.883,11.298-25.18,25.18-25.18c13.883,0,25.18,11.298,25.18,25.18v16.787h-50.361V92.378z"/>
			<path d="M499.284,310.822c-14.789-20.858-29.679-21.269-67.198-1.519l-72.385,44.25c-4.826,2.568-16.426,4.549-26.011,5.825     c-6.396,0.848-12.75,2.921-17.702,7.051c-2.182,1.83-5.229,2.988-7.797,2.988h-81.568c-25.18,0-25.18,12.632-25.18,16.787     c0,4.633-3.752,8.393-8.393,8.393c-4.642,0-8.393-3.76-8.393-8.393c0-21.026,15.687-33.574,41.967-33.574h80.904     c0.008-5.85-2.291-12.305-6.992-19.322c-13.153-19.624-35.706-31.333-60.332-31.333h-32.734     c-17.777,0-34.866-5.489-48.094-15.469c-30.141-22.721-80.485-25.936-100.621-26.271v-16.778c0-4.633-3.752-8.393-8.393-8.393     H8.393c-4.642,0-8.393,3.76-8.393,8.393v251.803c0,4.633,3.752,8.393,8.393,8.393h41.967c4.642,0,8.393-3.76,8.393-8.393v-16.787     h109.165c17.173,0,34.312-1.293,51.284-3.878l108.804-16.543c3.962-0.05,7.974-0.52,11.541-1.326     c10.022-1.402,19.599-6.194,27.724-13.849L494.491,343.8l0.201-0.159C504.563,335.616,506.653,321.204,499.284,310.822z      M41.967,260.511v217.961v8.393h-25.18V251.849h25.18V260.511z"/>
		</g>
	</g>
</g>
<g>
</g>
<g>
</g>
<g>
</g>
<g>
</g>
<g>
</g>
<g>
</g>
<g>
</g>
<g>
</g>
<g>
</g>
<g>
</g>
<g>
</g>
<g>
</g>
<g>
</g>
<g>
</g>
<g>
</g>
</svg>
