<?xml version="1.0" encoding="iso-8859-1"?>
<!-- Generator: Adobe Illustrator 19.0.0, SVG Export Plug-In . SVG Version: 6.00 Build 0)  -->
<svg xmlns="http://www.w3.org/2000/svg" xmlns:xlink="http://www.w3.org/1999/xlink" version="1.1" id="Layer_1" x="0px" y="0px" viewBox="0 0 512 512" style="enable-background:new 0 0 512 512;" xml:space="preserve">
<g>
	<g>
		<g>
			<path d="M503.467,59.741H460.8V45.064c0-10.735-8.73-19.465-19.465-19.465h-12.271c-10.735,0-19.464,8.73-19.464,19.465v14.677     h-42.667c-4.71,0-8.533,3.814-8.533,8.533c0,4.71,3.823,8.533,8.533,8.533H409.6h17.067V102.4v10.103     c-9.916,3.533-17.067,12.919-17.067,24.03v0.008h-17.067c0-14.123-11.486-25.6-25.6-25.6h-37.342l-23.287,46.541     c-1.451,2.884-4.403,4.71-7.637,4.71h-85.333c-3.234,0-6.187-1.826-7.637-4.71l-23.287-46.541h-37.342     c-14.114,0-25.6,11.477-25.6,25.6H102.4v-0.008c0-11.11-7.151-20.497-17.067-24.03V76.808H102.4V76.8h42.667     c4.71,0,8.533-3.823,8.533-8.533c0-4.71-3.823-8.533-8.533-8.533H102.4V45.064c0-10.735-8.73-19.465-19.465-19.465H70.665     C59.93,25.6,51.2,34.329,51.2,45.064v14.669H8.533C3.823,59.733,0,63.556,0,68.266c0,4.71,3.823,8.533,8.533,8.533H51.2v0.008     h17.067v35.695c-9.916,3.533-17.067,12.919-17.067,24.03v68.275c0,14.114,11.486,25.6,25.6,25.6s25.6-11.486,25.6-25.6h17.067     c0,14.114,11.486,25.6,25.6,25.6h11.221l-44.314,81.246c-2.261,4.13-0.734,9.318,3.405,11.571c1.297,0.708,2.697,1.05,4.079,1.05     c3.021,0,5.948-1.613,7.501-4.446l48.777-89.421h160.529l48.777,89.421c1.553,2.833,4.48,4.446,7.501,4.446     c1.382,0,2.782-0.341,4.079-1.05c4.139-2.253,5.666-7.441,3.405-11.571l-44.314-81.246h11.221c14.114,0,25.6-11.486,25.6-25.6     H409.6c0,14.114,11.486,25.6,25.6,25.6s25.6-11.486,25.6-25.6v-68.275c0-11.11-7.151-20.497-17.067-24.03V102.4V76.808H460.8     h42.667c4.71,0,8.533-3.823,8.533-8.533C512,63.556,508.177,59.741,503.467,59.741z M119.467,187.741H102.4v-34.133h17.067     V187.741z M315.733,196.266H196.267c-4.71,0-8.533-3.823-8.533-8.533c0-4.71,3.823-8.533,8.533-8.533h119.467     c4.71,0,8.533,3.823,8.533,8.533C324.267,192.443,320.444,196.266,315.733,196.266z M409.6,187.741h-17.067v-34.133H409.6     V187.741z"/>
			<path d="M256,435.2c-4.71,0-8.533,3.823-8.533,8.533V460.8c0,4.71,3.823,8.533,8.533,8.533s8.533-3.823,8.533-8.533v-17.067     C264.533,439.023,260.71,435.2,256,435.2z"/>
			<path d="M256,317.046c-4.71,0-8.533,3.823-8.533,8.533v23.637c0,4.71,3.823,8.533,8.533,8.533s8.533-3.823,8.533-8.533v-23.637     C264.533,320.869,260.71,317.046,256,317.046z"/>
			<path d="M256,376.125c-4.71,0-8.533,3.823-8.533,8.533v23.629c0,4.71,3.823,8.533,8.533,8.533s8.533-3.823,8.533-8.533v-23.629     C264.533,379.948,260.71,376.125,256,376.125z"/>
			<path d="M256,264.534c-4.71,0-8.533,3.823-8.533,8.533v17.067c0,4.71,3.823,8.533,8.533,8.533s8.533-3.823,8.533-8.533v-17.067     C264.533,268.357,260.71,264.534,256,264.534z"/>
			<path d="M187.733,452.267c-4.71,0-8.533,3.823-8.533,8.533v17.067c0,4.71,3.823,8.533,8.533,8.533s8.533-3.823,8.533-8.533V460.8     C196.267,456.09,192.444,452.267,187.733,452.267z"/>
			<path d="M187.733,360.366c-4.71,0-8.533,3.823-8.533,8.533v18.381c0,4.71,3.823,8.533,8.533,8.533s8.533-3.823,8.533-8.533V368.9     C196.267,364.189,192.444,360.366,187.733,360.366z"/>
			<path d="M187.733,406.317c-4.71,0-8.533,3.823-8.533,8.533v18.381c0,4.71,3.823,8.533,8.533,8.533s8.533-3.823,8.533-8.533     V414.85C196.267,410.14,192.444,406.317,187.733,406.317z"/>
			<path d="M187.733,315.734c-4.71,0-8.533,3.823-8.533,8.533v17.067c0,4.71,3.823,8.533,8.533,8.533s8.533-3.823,8.533-8.533     v-17.067C196.267,319.557,192.444,315.734,187.733,315.734z"/>
			<path d="M324.267,452.267c-4.71,0-8.533,3.823-8.533,8.533v17.067c0,4.71,3.823,8.533,8.533,8.533s8.533-3.823,8.533-8.533V460.8     C332.8,456.09,328.977,452.267,324.267,452.267z"/>
			<path d="M324.267,406.317c-4.71,0-8.533,3.823-8.533,8.533v18.381c0,4.71,3.823,8.533,8.533,8.533s8.533-3.823,8.533-8.533     V414.85C332.8,410.14,328.977,406.317,324.267,406.317z"/>
			<path d="M324.267,360.366c-4.71,0-8.533,3.823-8.533,8.533v18.381c0,4.71,3.823,8.533,8.533,8.533s8.533-3.823,8.533-8.533V368.9     C332.8,364.189,328.977,360.366,324.267,360.366z"/>
			<path d="M324.267,315.734c-4.71,0-8.533,3.823-8.533,8.533v17.067c0,4.71,3.823,8.533,8.533,8.533s8.533-3.823,8.533-8.533     v-17.067C332.8,319.557,328.977,315.734,324.267,315.734z"/>
			<polygon points="293.396,145.129 310.496,110.936 201.5,110.936 218.601,145.129    "/>
		</g>
	</g>
</g>
<g>
</g>
<g>
</g>
<g>
</g>
<g>
</g>
<g>
</g>
<g>
</g>
<g>
</g>
<g>
</g>
<g>
</g>
<g>
</g>
<g>
</g>
<g>
</g>
<g>
</g>
<g>
</g>
<g>
</g>
</svg>
