<?xml version="1.0" encoding="iso-8859-1"?>
<!-- Generator: Adobe Illustrator 19.0.0, SVG Export Plug-In . SVG Version: 6.00 Build 0)  -->
<svg xmlns="http://www.w3.org/2000/svg" xmlns:xlink="http://www.w3.org/1999/xlink" version="1.1" id="Layer_1" x="0px" y="0px" viewBox="0 0 512 512" style="enable-background:new 0 0 512 512;" xml:space="preserve">
<g>
	<g>
		<g>
			<path d="M503.467,117.005H460.8v-14.677c0-10.735-8.73-19.464-19.465-19.464h-12.271c-10.735,0-19.464,8.73-19.464,19.464v14.677     h-42.667c-4.71,0-8.533,3.814-8.533,8.533c0,4.71,3.823,8.533,8.533,8.533H409.6h17.067v61.295     c-9.916,3.533-17.067,12.919-17.067,24.03v0.009h-17.067c0-14.123-11.486-25.6-25.6-25.6h-37.376l-23.253,46.481     c-1.451,2.893-4.403,4.719-7.637,4.719h-85.333c-3.234,0-6.187-1.826-7.637-4.719l-23.253-46.481h-37.376     c-14.114,0-25.6,11.477-25.6,25.6H102.4v-0.009c0-11.11-7.151-20.497-17.067-24.03v-61.295H102.4v-0.009h42.667     c4.71,0,8.533-3.823,8.533-8.533s-3.823-8.533-8.533-8.533H102.4v-14.669c0-10.735-8.73-19.464-19.465-19.464H70.665     c-10.735,0-19.465,8.73-19.465,19.464v14.669H8.533c-4.71,0-8.533,3.823-8.533,8.533s3.823,8.533,8.533,8.533H51.2v0.009h17.067     v61.295c-9.916,3.533-17.067,12.919-17.067,24.03v68.275c0,14.114,11.486,25.6,25.6,25.6s25.6-11.486,25.6-25.6h17.067     c0,14.114,11.486,25.6,25.6,25.6h11.221l-44.314,81.246c-2.261,4.13-0.734,9.318,3.405,11.571c1.297,0.708,2.697,1.05,4.079,1.05     c3.021,0,5.948-1.613,7.501-4.446l48.777-89.421h46.131v30.208c-10.445,9.378-17.067,22.946-17.067,38.059     c0,20.309,12.058,38.716,30.711,46.882c4.318,1.886,9.353-0.085,11.238-4.395c1.894-4.318-0.077-9.353-4.395-11.238     c-12.45-5.453-20.489-17.724-20.489-31.249c0-10.957,5.274-20.617,13.329-26.863l0.35-0.273c1.459-1.101,2.995-2.057,4.565-2.893     c0.102-0.06,0.205-0.12,0.307-0.171c1.536-0.794,3.115-1.459,4.727-2.005c0.179-0.06,0.367-0.111,0.546-0.171     c6.707-2.142,13.909-2.142,20.617,0c0.179,0.06,0.367,0.111,0.546,0.171c1.613,0.546,3.191,1.212,4.727,2.005     c0.102,0.051,0.205,0.111,0.307,0.171c1.57,0.836,3.106,1.792,4.565,2.893l0.35,0.273c8.055,6.246,13.329,15.906,13.329,26.863     c0,13.525-8.038,25.796-20.489,31.249c-4.318,1.886-6.289,6.921-4.395,11.238c1.399,3.2,4.531,5.112,7.817,5.112     c1.143,0,2.313-0.23,3.422-0.717c18.654-8.166,30.711-26.573,30.711-46.882c0-15.113-6.622-28.681-17.067-38.059v-30.208h46.131     l48.777,89.421c1.553,2.833,4.48,4.446,7.501,4.446c1.382,0,2.782-0.341,4.079-1.05c4.139-2.253,5.666-7.441,3.405-11.571     l-44.314-81.246h11.221c14.114,0,25.6-11.486,25.6-25.6H409.6c0,14.114,11.486,25.6,25.6,25.6s25.6-11.486,25.6-25.6v-68.275     c0-11.11-7.151-20.497-17.067-24.03v-61.295H460.8h42.667c4.71,0,8.533-3.823,8.533-8.533     C512,120.819,508.177,117.005,503.467,117.005z M119.467,270.605H102.4v-34.133h17.067V270.605z M273.067,333.325     c-2.594-0.922-5.274-1.647-8.03-2.142c-0.316-0.06-0.631-0.094-0.939-0.145c-2.645-0.427-5.333-0.7-8.098-0.7     c-2.765,0-5.453,0.273-8.098,0.7c-0.307,0.051-0.623,0.085-0.939,0.145c-2.756,0.495-5.436,1.22-8.03,2.142v-20.053h34.133     V333.325z M290.133,279.13h-68.267c-4.71,0-8.533-3.823-8.533-8.533c0-4.71,3.823-8.533,8.533-8.533h68.267     c4.71,0,8.533,3.823,8.533,8.533C298.667,275.307,294.844,279.13,290.133,279.13z M409.6,270.605h-17.067v-34.133H409.6V270.605z     "/>
			<path d="M293.393,227.938l17.084-34.133h-11.81v-17.067c0-23.526-19.14-42.667-42.667-42.667     c-23.526,0-42.667,19.14-42.667,42.667v17.067h-11.81l17.084,34.133H293.393z M230.4,176.738c0-14.114,11.486-25.6,25.6-25.6     s25.6,11.486,25.6,25.6v17.067h-51.2V176.738z"/>
		</g>
	</g>
</g>
<g>
</g>
<g>
</g>
<g>
</g>
<g>
</g>
<g>
</g>
<g>
</g>
<g>
</g>
<g>
</g>
<g>
</g>
<g>
</g>
<g>
</g>
<g>
</g>
<g>
</g>
<g>
</g>
<g>
</g>
</svg>
