<?xml version="1.0" encoding="iso-8859-1"?>
<!-- Generator: Adobe Illustrator 19.0.0, SVG Export Plug-In . SVG Version: 6.00 Build 0)  -->
<svg xmlns="http://www.w3.org/2000/svg" xmlns:xlink="http://www.w3.org/1999/xlink" version="1.1" id="Layer_1" x="0px" y="0px" viewBox="0 0 512 512" style="enable-background:new 0 0 512 512;" xml:space="preserve">
<g>
	<g>
		<g>
			<path d="M486.4,425.697H305.621c-3.533-9.916-12.911-17.067-24.021-17.067h-17.067v-25.6c0-4.71-3.814-8.533-8.533-8.533     s-8.533,3.823-8.533,8.533v25.6H230.4c-11.11,0-20.489,7.151-24.021,17.067H25.6c-14.114,0-25.6,11.486-25.6,25.6v17.067     c0,14.114,11.486,25.6,25.6,25.6h180.779c3.533,9.916,12.911,17.067,24.021,17.067h51.2c11.11,0,20.489-7.151,24.021-17.067     H486.4c14.114,0,25.6-11.486,25.6-25.6v-17.067C512,437.183,500.514,425.697,486.4,425.697z M204.8,476.897H25.6     c-4.71,0-8.533-3.831-8.533-8.533v-17.067c0-4.702,3.823-8.533,8.533-8.533h179.2V476.897z M494.933,468.364     c0,4.702-3.823,8.533-8.533,8.533H307.2v-34.133h179.2c4.71,0,8.533,3.831,8.533,8.533V468.364z"/>
			<path d="M247.467,101.522V9.498c-20.326,8.132-40.704,44.254-51.61,96.247C212.762,103.314,230.178,101.88,247.467,101.522z"/>
			<path d="M308.35,78.98c-12.058-36.838-28.288-62.276-43.819-69.35v91.981c6.733,0.137,13.483,0.435,20.233,0.896     C289.116,91.814,297.649,83.307,308.35,78.98z"/>
			<path d="M247.467,118.684c-19.413,0.384-37.794,2.031-54.835,4.71c-3.063,19.541-4.898,40.772-4.898,63.369     c0,8.516,0.367,17.109,0.913,25.694c22.784,0.486,41.173,18.876,41.66,41.66c5.734,0.367,11.443,0.606,17.161,0.734V118.684z"/>
			<path d="M187.733,280.631c14.114,0,25.6-11.486,25.6-25.6s-11.486-25.6-25.6-25.6s-25.6,11.486-25.6,25.6     S173.619,280.631,187.733,280.631z"/>
			<path d="M325.3,75.935c22.69,0.555,40.977,18.842,41.532,41.532c21.965,7.049,57.446,21.103,74.965,42.564     C430.03,77.872,364.895,12.737,282.736,0.969C304.197,18.497,318.252,53.961,325.3,75.935z"/>
			<path d="M76.8,186.764c0,17.894,27.75,38.05,71.415,52.352c4.326-10.701,12.834-19.234,23.535-23.578     c-0.666-9.6-1.084-19.243-1.084-28.774c0-20.062,1.485-40.457,4.318-60.143C115.686,139.063,76.8,163.843,76.8,186.764z"/>
			<path d="M324.267,92.897c-14.114,0-25.6,11.486-25.6,25.6s11.486,25.6,25.6,25.6s25.6-11.486,25.6-25.6     S338.381,92.897,324.267,92.897z"/>
			<path d="M247.467,363.972v-92.058c-6.733-0.136-13.483-0.435-20.233-0.896c-4.352,10.692-12.885,19.2-23.586,23.535     C214.869,328.738,230.878,356.565,247.467,363.972z"/>
			<path d="M316.233,267.768c-16.922,2.44-34.381,3.883-51.703,4.241v92.075C285.198,356.046,305.439,319.762,316.233,267.768z"/>
			<path d="M177.958,108.722c9.071-47.667,26.308-88.9,49.843-107.563C146.82,13.405,82.641,77.584,70.396,158.557     C89.058,135.031,130.291,117.793,177.958,108.722z"/>
			<path d="M283.5,372.464c81.306-11.989,145.818-76.279,158.106-157.5c-18.645,23.509-59.827,40.738-107.443,49.818     C324.648,314.548,306.37,354.39,283.5,372.464z"/>
			<path d="M229.875,372.639c-17.382-14.063-32.358-41.37-43.153-75.042c-22.699-0.546-40.994-18.842-41.557-41.54     c-21.965-7.049-57.438-21.094-74.965-42.556C82.001,295.856,147.435,361.102,229.875,372.639z"/>
			<path d="M281.694,119.41c-5.734-0.367-11.443-0.606-17.161-0.734v136.166c19.439-0.384,37.837-2.039,54.895-4.727     c3.038-19.558,4.838-40.789,4.838-63.352c0-8.516-0.367-17.109-0.913-25.694C300.57,160.584,282.18,142.194,281.694,119.41z"/>
			<path d="M435.2,186.764c0-17.894-27.75-38.05-71.415-52.352c-4.326,10.701-12.834,19.234-23.535,23.578     c0.666,9.6,1.084,19.243,1.084,28.774c0,20.804-1.485,41.028-4.198,60.117C396.365,234.44,435.2,209.676,435.2,186.764z"/>
		</g>
	</g>
</g>
<g>
</g>
<g>
</g>
<g>
</g>
<g>
</g>
<g>
</g>
<g>
</g>
<g>
</g>
<g>
</g>
<g>
</g>
<g>
</g>
<g>
</g>
<g>
</g>
<g>
</g>
<g>
</g>
<g>
</g>
</svg>
