<?xml version="1.0" encoding="iso-8859-1"?>
<!-- Generator: Adobe Illustrator 19.0.0, SVG Export Plug-In . SVG Version: 6.00 Build 0)  -->
<svg xmlns="http://www.w3.org/2000/svg" xmlns:xlink="http://www.w3.org/1999/xlink" version="1.1" id="Layer_1" x="0px" y="0px" viewBox="0 0 511.997 511.997" style="enable-background:new 0 0 511.997 511.997;" xml:space="preserve">
<g>
	<g>
		<g>
			<path d="M405.328,33.801c0-18.637-15.155-33.801-33.8-33.801H149.004c-18.645,0-33.809,15.164-33.809,33.801v0.333h290.133     V33.801z"/>
			<path d="M115.198,51.199v25.6c-4.71,0-8.533,3.823-8.533,8.533v8.533c0,4.71,3.823,8.533,8.533,8.533v8.533     c-4.71,0-8.533,3.823-8.533,8.533v8.533c0,4.71,3.823,8.533,8.533,8.533v8.533c-4.71,0-8.533,3.823-8.533,8.533v8.533     c0,4.71,3.823,8.533,8.533,8.533v290.133h290.133v-409.6H115.198z M151.832,104.899l34.133-34.133     c3.337-3.337,8.73-3.337,12.066,0c3.336,3.336,3.336,8.73,0,12.066l-34.133,34.133c-1.664,1.664-3.849,2.5-6.033,2.5     c-2.185,0-4.369-0.836-6.033-2.5C148.495,113.629,148.495,108.236,151.832,104.899z M200.523,119.466     c-0.026,3.354-2.185,6.613-5.299,7.885c-3.268,1.348-7.347,0.375-9.668-2.295c-2.321-2.68-2.714-6.852-0.922-9.907     c1.809-3.089,5.76-4.847,9.25-3.985c3.567,0.879,6.383,4.062,6.622,7.757C200.515,119.107,200.523,119.287,200.523,119.466z      M151.832,147.566l17.067-17.067c3.337-3.337,8.73-3.337,12.066,0c3.337,3.336,3.337,8.73,0,12.066l-17.067,17.067     c-1.664,1.664-3.849,2.5-6.033,2.5c-2.185,0-4.369-0.836-6.033-2.5C148.495,156.296,148.495,150.903,151.832,147.566z      M240.698,125.499l-76.8,76.8c-1.664,1.664-3.849,2.5-6.033,2.5c-2.185,0-4.369-0.836-6.033-2.5     c-3.337-3.337-3.337-8.73,0-12.066l76.8-76.8c3.337-3.337,8.73-3.337,12.066,0C244.035,116.769,244.035,122.162,240.698,125.499z      M240.698,82.832l-25.6,25.6c-1.664,1.664-3.849,2.5-6.033,2.5c-2.185,0-4.369-0.836-6.033-2.5c-3.336-3.336-3.336-8.73,0-12.066     l25.6-25.6c3.337-3.337,8.73-3.337,12.066,0C244.035,74.103,244.035,79.496,240.698,82.832z M256.229,109.652     c-2.748,1.698-6.485,1.647-9.182-0.128c-2.705-1.775-4.233-5.18-3.755-8.38c0.589-3.934,4.036-7.057,8.004-7.228     c1.263-0.051,2.517,0.188,3.661,0.674c2.219,0.93,4.053,2.765,4.855,5.094c0.188,0.546,0.316,1.109,0.384,1.681     C260.589,104.575,258.976,107.946,256.229,109.652z M283.365,82.832l-8.533,8.533c-1.664,1.664-3.849,2.5-6.033,2.5     c-2.185,0-4.369-0.836-6.033-2.5c-3.336-3.337-3.336-8.73,0-12.066l8.533-8.533c3.337-3.337,8.73-3.337,12.066,0     C286.701,74.103,286.701,79.496,283.365,82.832z"/>
			<path d="M115.198,478.196c0,18.645,15.164,33.8,33.801,33.8h222.532c18.637,0,33.801-15.155,33.801-33.8v-0.333H115.198V478.196z     "/>
		</g>
	</g>
</g>
<g>
</g>
<g>
</g>
<g>
</g>
<g>
</g>
<g>
</g>
<g>
</g>
<g>
</g>
<g>
</g>
<g>
</g>
<g>
</g>
<g>
</g>
<g>
</g>
<g>
</g>
<g>
</g>
<g>
</g>
</svg>
