<?xml version="1.0" encoding="iso-8859-1"?>
<!-- Generator: Adobe Illustrator 19.0.0, SVG Export Plug-In . SVG Version: 6.00 Build 0)  -->
<svg xmlns="http://www.w3.org/2000/svg" xmlns:xlink="http://www.w3.org/1999/xlink" version="1.1" id="Layer_1" x="0px" y="0px" viewBox="0 0 508.393 508.393" style="enable-background:new 0 0 508.393 508.393;" xml:space="preserve">
<g>
	<g>
		<g>
			<path d="M169.687,149.106c23.987-3.405,49.493-5.393,75.981-5.751V7.965C215.528,16.515,184.688,69.405,169.687,149.106z"/>
			<path d="M160.334,390.73c23.526,0,42.667-19.14,42.667-42.667c0-23.526-19.14-42.667-42.667-42.667     c-23.526,0-42.667,19.14-42.667,42.667C117.667,371.59,136.808,390.73,160.334,390.73z"/>
			<path d="M6.734,254.197c0,25.796,37.299,53.257,97.869,72.559c6.741-17.579,21.53-31.155,39.868-36.216     c-0.734-12.22-1.203-24.414-1.203-36.343c0-29.551,2.074-57.958,5.845-84.514C61.859,186.109,6.734,221.514,6.734,254.197z"/>
			<path d="M326.76,104.599c-17.195-53.931-40.832-89.327-64.026-96.444v135.27c9.225,0.128,18.509,0.469,27.81,1.041     C295.613,126.129,309.181,111.34,326.76,104.599z"/>
			<path d="M390.734,160.33c0-23.526-19.14-42.667-42.667-42.667c-23.526,0-42.667,19.14-42.667,42.667     c0,23.526,19.14,42.667,42.667,42.667C371.594,202.997,390.734,183.857,390.734,160.33z"/>
			<path d="M343.5,100.83c1.519-0.119,3.021-0.23,4.565-0.23c32.939,0,59.733,26.795,59.733,59.733c0,1.536-0.119,3.046-0.23,4.557     c29.525,9.353,79.428,28.996,100.821,59.392C494.677,106.999,401.399,13.722,284.108,0     C314.504,21.393,334.148,71.305,343.5,100.83z"/>
			<path d="M245.667,347.904V160.418c-28.203,0.375-54.682,2.586-78.985,6.263c-4.036,26.743-6.349,56.098-6.349,87.518     c0,11.221,0.435,22.69,1.101,34.185c32.051,0.589,57.984,26.522,58.573,58.573C228.591,347.46,237.15,347.776,245.667,347.904z"/>
			<path d="M181.642,403.795c17.195,53.931,40.832,89.327,64.026,96.444v-135.27c-9.225-0.128-18.509-0.469-27.81-1.041     C212.789,382.265,199.22,397.053,181.642,403.795z"/>
			<path d="M356.501,356.493C343.599,429.572,317.299,485.969,285,508.284c116.565-14.054,209.237-106.709,223.283-223.283     C485.977,317.308,429.572,343.599,356.501,356.493z"/>
			<path d="M151.901,151.901C164.803,78.822,191.103,22.425,223.401,0.11C106.836,14.164,14.164,106.819,0.118,223.393     C22.424,191.086,78.83,164.795,151.901,151.901z"/>
			<path d="M164.901,407.563c-1.519,0.119-3.021,0.23-4.565,0.23c-32.939,0-59.733-26.795-59.733-59.733     c0-1.536,0.119-3.055,0.23-4.565c-29.525-9.344-79.428-28.996-100.83-59.392c13.722,117.291,106.999,210.569,224.29,224.29     C193.897,487,174.254,437.088,164.901,407.563z"/>
			<path d="M338.715,359.287c-23.987,3.405-49.493,5.393-75.981,5.751v135.39C292.874,491.878,323.713,438.988,338.715,359.287z"/>
			<path d="M288.395,161.436c-8.585-0.503-17.143-0.819-25.66-0.947v187.486c28.203-0.375,54.682-2.586,78.985-6.263     c4.036-26.743,6.349-56.098,6.349-87.518c0-11.221-0.435-22.69-1.101-34.185C314.916,219.42,288.983,193.487,288.395,161.436z"/>
			<path d="M501.667,254.197c0-25.796-37.299-53.257-97.869-72.559c-6.741,17.579-21.53,31.155-39.868,36.215     c0.734,12.22,1.203,24.414,1.203,36.343c0,29.551-2.074,57.958-5.845,84.514C446.542,322.284,501.667,286.88,501.667,254.197z"/>
		</g>
	</g>
</g>
<g>
</g>
<g>
</g>
<g>
</g>
<g>
</g>
<g>
</g>
<g>
</g>
<g>
</g>
<g>
</g>
<g>
</g>
<g>
</g>
<g>
</g>
<g>
</g>
<g>
</g>
<g>
</g>
<g>
</g>
</svg>
