<?xml version="1.0" encoding="iso-8859-1"?>
<!-- Generator: Adobe Illustrator 19.0.0, SVG Export Plug-In . SVG Version: 6.00 Build 0)  -->
<svg xmlns="http://www.w3.org/2000/svg" xmlns:xlink="http://www.w3.org/1999/xlink" version="1.1" id="Capa_1" x="0px" y="0px" viewBox="0 0 512 512" style="enable-background:new 0 0 512 512;" xml:space="preserve">
<g>
	<g>
		<g>
			<polygon points="227.641,59.733 217.4,85.333 294.602,85.333 284.353,59.733    "/>
			<path d="M85.332,435.2c0,73.097,142.165,76.8,170.667,76.8s170.667-3.703,170.667-76.8V273.067H85.332V435.2z M341.333,307.2     h34.133v17.067h-34.133V307.2z M341.333,358.4h34.133v17.067h-34.133V358.4z M341.333,409.6h34.133v17.067h-34.133V409.6z      M273.066,307.2h34.133v17.067h-34.133V307.2z M273.066,358.4h34.133v17.067h-34.133V358.4z M273.066,409.6h34.133v17.067     h-34.133V409.6z M204.798,307.2h34.133v17.067h-34.133V307.2z M204.798,358.4h34.133v17.067h-34.133V358.4z M204.798,409.6     h34.133v17.067h-34.133V409.6z M204.798,452.266h102.4v17.067h-102.4V452.266z M136.533,307.2h34.133v17.067h-34.133V307.2z      M136.533,358.4h34.133v17.067h-34.133V358.4z M136.533,409.6h34.133v17.067h-34.133V409.6z"/>
			<polygon points="426.665,102.4 307.199,102.4 204.798,102.4 85.332,102.4 85.332,256 426.665,256    "/>
			<path d="M256.001,0C227.501,0,85.335,3.703,85.335,76.8v8.533h113.681l14.925-37.308c1.297-3.234,4.437-5.359,7.927-5.359h68.267     c3.49,0,6.622,2.125,7.919,5.359l14.925,37.308h113.69V76.8C426.668,3.703,284.503,0,256.001,0z"/>
		</g>
	</g>
</g>
<g>
</g>
<g>
</g>
<g>
</g>
<g>
</g>
<g>
</g>
<g>
</g>
<g>
</g>
<g>
</g>
<g>
</g>
<g>
</g>
<g>
</g>
<g>
</g>
<g>
</g>
<g>
</g>
<g>
</g>
</svg>
