<?xml version="1.0" encoding="iso-8859-1"?>
<!-- Generator: Adobe Illustrator 19.0.0, SVG Export Plug-In . SVG Version: 6.00 Build 0)  -->
<svg xmlns="http://www.w3.org/2000/svg" xmlns:xlink="http://www.w3.org/1999/xlink" version="1.1" id="Layer_1" x="0px" y="0px" viewBox="0 0 512 512" style="enable-background:new 0 0 512 512;" xml:space="preserve">
<g>
	<g>
		<g>
			<path d="M256,179.2c14.114,0,25.6-11.486,25.6-25.6c0-14.114-11.486-25.6-25.6-25.6c-14.114,0-25.6,11.486-25.6,25.6     C230.4,167.714,241.886,179.2,256,179.2z"/>
			<path d="M170.667,332.8c0,14.114,11.486,25.6,25.6,25.6h119.467c14.114,0,25.6-11.486,25.6-25.6v-93.867H170.667V332.8z"/>
			<path d="M358.4,69.129v-0.862H170.667V25.6c0-14.114-11.486-25.6-25.6-25.6s-25.6,11.486-25.6,25.6v42.667V76.8v8.533v384     c0,23.526,19.14,42.667,42.667,42.667h187.733c23.526,0,42.667-19.14,42.667-42.667v-358.4     C392.533,90.325,377.847,73.097,358.4,69.129z M256,110.933c23.526,0,42.667,19.14,42.667,42.667     c0,23.526-19.14,42.667-42.667,42.667s-42.667-19.14-42.667-42.667C213.333,130.074,232.474,110.933,256,110.933z M136.533,25.6     c0-4.702,3.823-8.533,8.533-8.533s8.533,3.831,8.533,8.533v42.667h-17.067V25.6z M358.4,230.4v102.4     c0,23.526-19.14,42.667-42.667,42.667H196.267c-23.526,0-42.667-19.14-42.667-42.667V85.333h8.533h8.533v136.533h170.667V85.333     H358.4V230.4z"/>
		</g>
	</g>
</g>
<g>
</g>
<g>
</g>
<g>
</g>
<g>
</g>
<g>
</g>
<g>
</g>
<g>
</g>
<g>
</g>
<g>
</g>
<g>
</g>
<g>
</g>
<g>
</g>
<g>
</g>
<g>
</g>
<g>
</g>
</svg>
