<?xml version="1.0" encoding="iso-8859-1"?>
<!-- Generator: Adobe Illustrator 19.0.0, SVG Export Plug-In . SVG Version: 6.00 Build 0)  -->
<svg xmlns="http://www.w3.org/2000/svg" xmlns:xlink="http://www.w3.org/1999/xlink" version="1.1" id="Layer_1" x="0px" y="0px" viewBox="0 0 512 512" style="enable-background:new 0 0 512 512;" xml:space="preserve">
<g>
	<g>
		<g>
			<path d="M443.733,486.398c-4.719,0-8.533-3.823-8.533-8.533s3.814-8.533,8.533-8.533h64.649     c-6.596-15.044-21.598-25.6-39.049-25.6h-12.945l-66.637-84.019c41.438-35.849,68.42-87.987,70.835-146.381h-8.32     c-22.204,0-41.267-15.625-45.338-37.146C393.233,103.763,329.754,51.198,256,51.198c-73.762,0-137.233,52.565-150.929,124.988     c-4.07,21.521-23.142,37.146-45.338,37.146h-8.32c2.415,58.394,29.389,110.532,70.835,146.381l-66.637,84.019H42.667     c-17.451,0-32.444,10.556-39.049,25.6h64.649c4.71,0,8.533,3.823,8.533,8.533s-3.823,8.533-8.533,8.533H0v17.067     c0,4.71,3.823,8.533,8.533,8.533h494.933c4.719,0,8.533-3.823,8.533-8.533v-17.067H443.733z M256,127.998     c42.342,0,76.8,34.458,76.8,76.8c0,42.342-34.458,76.8-76.8,76.8s-76.8-34.458-76.8-76.8     C179.2,162.456,213.658,127.998,256,127.998z M77.389,443.731c14.481-18.253,28.945-36.497,43.426-54.741     c3.558-4.497,7.125-8.994,10.692-13.491c0.759-0.964,1.963-3.277,3.055-3.849c0.324-0.171,0.674-0.256,1.05-0.265     c3.132-0.111,8.047,4.625,10.82,6.374c21.581,13.628,45.722,23.151,70.775,28.032c12.766,2.492,25.779,3.772,38.793,3.772     c25.267,0,50.5-4.83,74.061-13.952c11.896-4.608,23.364-10.308,34.202-17.041c3.046-1.886,10.121-8.431,13.013-7.125     c0.998,0.452,2.236,2.807,2.91,3.669c16.58,20.898,33.152,41.796,49.732,62.703c1.562,1.971,3.123,3.942,4.693,5.914H77.389z"/>
			<path d="M88.303,173.016C103.518,92.538,174.046,34.135,256,34.135c81.946,0,152.474,58.402,167.697,138.88     c2.551,13.474,14.566,23.253,28.57,23.253h8.311C456.09,87.29,366.063,0.002,256,0.002S55.91,87.29,51.413,196.269h8.32     C73.737,196.269,85.751,186.49,88.303,173.016z"/>
			<path d="M255.999,264.532c32.939,0,59.733-26.795,59.733-59.733c0-32.939-26.795-59.733-59.733-59.733     s-59.733,26.795-59.733,59.733C196.266,237.737,223.06,264.532,255.999,264.532z M255.999,162.132     c4.71,0,8.533,3.823,8.533,8.533s-3.823,8.533-8.533,8.533c-14.114,0-25.6,11.486-25.6,25.6c0,4.71-3.823,8.533-8.533,8.533     c-4.71,0-8.533-3.823-8.533-8.533C213.333,181.272,232.473,162.132,255.999,162.132z"/>
		</g>
	</g>
</g>
<g>
</g>
<g>
</g>
<g>
</g>
<g>
</g>
<g>
</g>
<g>
</g>
<g>
</g>
<g>
</g>
<g>
</g>
<g>
</g>
<g>
</g>
<g>
</g>
<g>
</g>
<g>
</g>
<g>
</g>
</svg>
