<?xml version="1.0" encoding="iso-8859-1"?>
<!-- Generator: Adobe Illustrator 19.0.0, SVG Export Plug-In . SVG Version: 6.00 Build 0)  -->
<svg xmlns="http://www.w3.org/2000/svg" xmlns:xlink="http://www.w3.org/1999/xlink" version="1.1" id="Layer_1" x="0px" y="0px" viewBox="0 0 512 512" style="enable-background:new 0 0 512 512;" xml:space="preserve">
<g>
	<g>
		<g>
			<path d="M136.536,128.24c0-2.816,1.391-5.444,3.703-7.031c34.185-23.467,74.214-35.874,115.763-35.874     c41.549,0,81.579,12.407,115.763,35.874c2.313,1.587,3.703,4.215,3.703,7.031v68.028h85.12     C456.092,87.289,366.065,0.001,256.003,0.001S55.913,87.289,51.416,196.268h85.12V128.24z M256.003,34.135     c9.421,0,17.067,7.646,17.067,17.067c0,9.421-7.646,17.067-17.067,17.067c-9.421,0-17.067-7.646-17.067-17.067     C238.936,41.78,246.582,34.135,256.003,34.135z"/>
			<path d="M196.269,204.801c0,32.939,26.795,59.733,59.733,59.733s59.733-26.795,59.733-59.733     c0-32.939-26.795-59.733-59.733-59.733S196.269,171.863,196.269,204.801z M264.536,170.668c0,4.71-3.823,8.533-8.533,8.533     c-14.114,0-25.6,11.486-25.6,25.6c0,4.71-3.823,8.533-8.533,8.533c-4.71,0-8.533-3.823-8.533-8.533     c0-23.526,19.14-42.667,42.667-42.667C260.713,162.135,264.536,165.958,264.536,170.668z"/>
			<path d="M153.603,132.797v72.004c0,56.465,45.935,102.4,102.4,102.4s102.4-45.935,102.4-102.4v-72.004     c-30.498-19.908-65.801-30.396-102.4-30.396C219.403,102.401,184.101,112.889,153.603,132.797z M332.803,204.801     c0,42.342-34.458,76.8-76.8,76.8s-76.8-34.458-76.8-76.8s34.458-76.8,76.8-76.8S332.803,162.459,332.803,204.801z"/>
			<path d="M443.733,486.399c-4.71,0-8.533-3.823-8.533-8.533s3.823-8.533,8.533-8.533h64.649     c-6.596-15.036-21.598-25.6-39.049-25.6h-12.937l-66.637-84.019c41.438-35.849,68.42-87.987,70.827-146.381h-85.555     c-4.403,61.892-56.03,110.933-119.031,110.933c-62.993,0-114.628-49.041-119.031-110.933H51.422     c2.406,58.394,29.38,110.532,70.827,146.381l-66.637,84.019H42.667c-17.451,0-32.444,10.564-39.049,25.6h64.648     c4.719,0,8.533,3.823,8.533,8.533s-3.814,8.533-8.533,8.533H0v17.067c0,4.71,3.823,8.533,8.533,8.533h494.933     c4.719,0,8.533-3.823,8.533-8.533v-17.067H443.733z M77.397,443.732c19.388-24.439,38.98-48.734,58.163-73.335     c34.697,25.242,77.491,39.168,120.397,39.177c25.003,0.009,49.963-4.71,73.31-13.645c11.904-4.557,23.398-10.206,34.261-16.879     c8.192-5.043,10.906-10.342,17.434-2.961c17.818,20.147,33.664,42.445,50.381,63.531c1.092,1.365,2.176,2.748,3.268,4.113H77.397     z"/>
		</g>
	</g>
</g>
<g>
</g>
<g>
</g>
<g>
</g>
<g>
</g>
<g>
</g>
<g>
</g>
<g>
</g>
<g>
</g>
<g>
</g>
<g>
</g>
<g>
</g>
<g>
</g>
<g>
</g>
<g>
</g>
<g>
</g>
</svg>
