<?xml version="1.0" encoding="iso-8859-1"?>
<!-- Generator: Adobe Illustrator 19.0.0, SVG Export Plug-In . SVG Version: 6.00 Build 0)  -->
<svg xmlns="http://www.w3.org/2000/svg" xmlns:xlink="http://www.w3.org/1999/xlink" version="1.1" id="Layer_1" x="0px" y="0px" viewBox="0 0 512 512" style="enable-background:new 0 0 512 512;" xml:space="preserve">
<g>
	<g>
		<g>
			<rect x="51.2" y="230.4" width="68.267" height="59.733"/>
			<path d="M358.4,187.733c-28.237,0-51.2,22.963-51.2,51.2c0,28.237,22.963,51.2,51.2,51.2c28.237,0,51.2-22.963,51.2-51.2     C409.6,210.697,386.637,187.733,358.4,187.733z M358.4,221.867c-9.412,0-17.067,7.654-17.067,17.067     c0,4.71-3.823,8.533-8.533,8.533c-4.71,0-8.533-3.823-8.533-8.533c0-18.825,15.309-34.133,34.133-34.133     c4.71,0,8.533,3.823,8.533,8.533S363.11,221.867,358.4,221.867z"/>
			<path d="M486.4,179.2h-46.694c-19.388-27.179-48.768-42.667-81.306-42.667s-61.918,15.488-81.306,42.667H25.6     C11.486,179.2,0,190.686,0,204.8v110.933c0,14.114,11.486,25.6,25.6,25.6v8.533c0,14.114,11.486,25.6,25.6,25.6h51.2     c14.114,0,25.6-11.486,25.6-25.6v-8.533h256v8.533c0,14.114,11.486,25.6,25.6,25.6h51.2c14.114,0,25.6-11.486,25.6-25.6v-8.533     c14.114,0,25.6-11.486,25.6-25.6V204.8C512,190.686,500.514,179.2,486.4,179.2z M110.933,349.867     c0,4.702-3.831,8.533-8.533,8.533H51.2c-4.702,0-8.533-3.831-8.533-8.533v-8.533h68.267V349.867z M136.533,298.667     c0,4.71-3.823,8.533-8.533,8.533H42.667c-4.71,0-8.533-3.823-8.533-8.533v-76.8c0-4.71,3.823-8.533,8.533-8.533H128     c4.71,0,8.533,3.823,8.533,8.533V298.667z M247.467,298.667h-85.333c-4.71,0-8.533-3.823-8.533-8.533     c0-4.71,3.823-8.533,8.533-8.533h85.333c4.71,0,8.533,3.823,8.533,8.533C256,294.844,252.177,298.667,247.467,298.667z      M247.467,264.533h-85.333c-4.71,0-8.533-3.823-8.533-8.533c0-4.71,3.823-8.533,8.533-8.533h85.333     c4.71,0,8.533,3.823,8.533,8.533C256,260.71,252.177,264.533,247.467,264.533z M247.467,230.4h-85.333     c-4.71,0-8.533-3.823-8.533-8.533c0-4.71,3.823-8.533,8.533-8.533h85.333c4.71,0,8.533,3.823,8.533,8.533     C256,226.577,252.177,230.4,247.467,230.4z M358.4,307.2c-37.641,0-68.267-30.626-68.267-68.267     c0-37.641,30.626-68.267,68.267-68.267c37.641,0,68.267,30.626,68.267,68.267C426.667,276.574,396.041,307.2,358.4,307.2z      M469.333,349.867c0,4.702-3.831,8.533-8.533,8.533h-51.2c-4.702,0-8.533-3.831-8.533-8.533v-8.533h68.267V349.867z"/>
		</g>
	</g>
</g>
<g>
</g>
<g>
</g>
<g>
</g>
<g>
</g>
<g>
</g>
<g>
</g>
<g>
</g>
<g>
</g>
<g>
</g>
<g>
</g>
<g>
</g>
<g>
</g>
<g>
</g>
<g>
</g>
<g>
</g>
</svg>
