<?xml version="1.0" encoding="iso-8859-1"?>
<!-- Generator: Adobe Illustrator 19.0.0, SVG Export Plug-In . SVG Version: 6.00 Build 0)  -->
<svg xmlns="http://www.w3.org/2000/svg" xmlns:xlink="http://www.w3.org/1999/xlink" version="1.1" id="Layer_1" x="0px" y="0px" viewBox="0 0 512 512" style="enable-background:new 0 0 512 512;" xml:space="preserve">
<g>
	<g>
		<g>
			<path d="M405.333,93.867v-8.533c0-4.71-3.823-8.533-8.533-8.533V33.801C396.8,15.164,381.636,0,362.999,0H140.467     c-18.637,0-33.8,15.164-33.8,33.801V478.2c0,18.637,15.164,33.8,33.8,33.8h222.532c18.637,0,33.801-15.164,33.801-33.8V170.667     c4.71,0,8.533-3.823,8.533-8.533V153.6c0-4.71-3.823-8.533-8.533-8.533v-8.533c4.71,0,8.533-3.823,8.533-8.533v-8.533     c0-4.71-3.823-8.533-8.533-8.533V102.4C401.51,102.4,405.333,98.577,405.333,93.867z M234.667,59.733     c4.71,0,8.533,3.823,8.533,8.533s-3.823,8.533-8.533,8.533c-4.71,0-8.533-3.823-8.533-8.533S229.956,59.733,234.667,59.733z      M174.933,102.4c-18.825,0-34.133-15.309-34.133-34.133s15.309-34.133,34.133-34.133c18.825,0,34.133,15.309,34.133,34.133     S193.758,102.4,174.933,102.4z M268.8,401.067h-34.133c-4.71,0-8.533-3.823-8.533-8.533c0-4.71,3.823-8.533,8.533-8.533H268.8     c4.71,0,8.533,3.823,8.533,8.533C277.333,397.244,273.51,401.067,268.8,401.067z M285.867,366.933H217.6     c-4.71,0-8.533-3.823-8.533-8.533s3.823-8.533,8.533-8.533h68.267c4.71,0,8.533,3.823,8.533,8.533     S290.577,366.933,285.867,366.933z"/>
			<path d="M174.933,51.2c-9.412,0-17.067,7.654-17.067,17.067c0,9.412,7.654,17.067,17.067,17.067     c9.412,0,17.067-7.654,17.067-17.067C192,58.854,184.346,51.2,174.933,51.2z"/>
		</g>
	</g>
</g>
<g>
</g>
<g>
</g>
<g>
</g>
<g>
</g>
<g>
</g>
<g>
</g>
<g>
</g>
<g>
</g>
<g>
</g>
<g>
</g>
<g>
</g>
<g>
</g>
<g>
</g>
<g>
</g>
<g>
</g>
</svg>
