<?xml version="1.0" encoding="iso-8859-1"?>
<!-- Generator: Adobe Illustrator 19.0.0, SVG Export Plug-In . SVG Version: 6.00 Build 0)  -->
<svg xmlns="http://www.w3.org/2000/svg" xmlns:xlink="http://www.w3.org/1999/xlink" version="1.1" id="Layer_1" x="0px" y="0px" viewBox="0 0 512 512" style="enable-background:new 0 0 512 512;" xml:space="preserve">
<g>
	<g>
		<path d="M426.667,469.333c0-4.71,3.814-8.533,8.533-8.533h74.052l-14.925-37.308c-1.306-3.234-4.437-5.359-7.927-5.359h-87.586    c-6.4-17.451-22.485-30.524-41.156-33.434c-3.49-20.045-20.062-34.833-40.653-34.833h-9.489    c2.355-37.419,18.509-103.014,29.5-147.584c3.063-12.424,5.726-23.236,7.646-31.616h-71.595c-4.719,0-8.533-3.823-8.533-8.533    c0-4.71,3.814-8.533,8.533-8.533h74.795c1.732-12.032,2.321-23.398,1.835-34.133h-76.629c-4.719,0-8.533-3.823-8.533-8.533    s3.814-8.533,8.533-8.533h74.854c-3.413-20.292-11.187-37.939-23.629-52.574C296.585,17.229,246.409,0,179.2,0    c-35.9,0-57.89,8.183-65.34,24.329c-7.185,15.556-0.265,35.345,21.146,60.493c0.734,0.862,1.374,1.877,2.091,2.765    c-11.418,13.739-17.63,30.857-17.63,48.947c0,39.723,30.524,72.602,69.35,76.382c10.957,50.483,15.283,101.888,15.863,136.951    h-9.685c-20.599,0-37.163,14.788-40.653,34.833c-18.671,2.91-34.756,15.983-41.156,33.434H25.6c-3.49,0-6.622,2.125-7.927,5.359    L2.748,460.8H76.8c4.719,0,8.533,3.823,8.533,8.533s-3.814,8.533-8.533,8.533H3.26l14.703,29.414    C19.413,510.174,22.366,512,25.6,512h460.8c3.234,0,6.187-1.826,7.637-4.719l14.703-29.414H435.2    C430.481,477.867,426.667,474.044,426.667,469.333z M136.533,136.533c0-12.527,3.84-24.448,10.948-34.458    c2.108,3.294,4.224,6.571,6.195,10.095c0.196,0.358,0.393,0.734,0.589,1.092c2.662,4.838,5.205,9.847,7.62,15.053    c0.034,0.077,0.068,0.145,0.094,0.222c9.344,20.241,16.742,43.059,22.665,66.56C157.278,189.662,136.533,165.41,136.533,136.533z     M194.995,366.933h9.805h102.4h9.805c10.786,0,19.729,7.031,22.997,17.067H171.998    C175.266,373.965,184.209,366.933,194.995,366.933z M131.866,418.133c6.187-10.197,17.749-17.067,30.268-17.067h187.733    c12.518,0,24.081,6.869,30.268,17.067H131.866z"/>
	</g>
</g>
<g>
</g>
<g>
</g>
<g>
</g>
<g>
</g>
<g>
</g>
<g>
</g>
<g>
</g>
<g>
</g>
<g>
</g>
<g>
</g>
<g>
</g>
<g>
</g>
<g>
</g>
<g>
</g>
<g>
</g>
</svg>
