<?xml version="1.0" encoding="iso-8859-1"?>
<!-- Generator: Adobe Illustrator 19.0.0, SVG Export Plug-In . SVG Version: 6.00 Build 0)  -->
<svg xmlns="http://www.w3.org/2000/svg" xmlns:xlink="http://www.w3.org/1999/xlink" version="1.1" id="Layer_1" x="0px" y="0px" viewBox="0 0 512 512" style="enable-background:new 0 0 512 512;" xml:space="preserve">
<g>
	<g>
		<g>
			<path d="M486.4,85.333H25.6c-14.114,0-25.6,11.486-25.6,25.6v290.133c0,14.114,11.486,25.6,25.6,25.6h460.8     c14.114,0,25.6-11.486,25.6-25.6V110.933C512,96.819,500.514,85.333,486.4,85.333z M298.667,392.533h-85.333     c-4.719,0-8.533-3.823-8.533-8.533s3.814-8.533,8.533-8.533h85.333c4.719,0,8.533,3.823,8.533,8.533     S303.386,392.533,298.667,392.533z M477.867,341.333c0,9.412-7.654,17.067-17.067,17.067H51.2     c-9.412,0-17.067-7.654-17.067-17.067v-204.8c0-9.412,7.654-17.067,17.067-17.067h409.6c9.412,0,17.067,7.654,17.067,17.067     V341.333z"/>
			<path d="M51.2,341.341l409.6-0.008v-204.8H51.2V341.341z M181.7,164.633l8.533-8.533c3.337-3.337,8.73-3.337,12.066,0     s3.337,8.73,0,12.066l-8.533,8.533c-1.664,1.664-3.849,2.5-6.033,2.5c-2.185,0-4.369-0.836-6.033-2.5     C178.364,173.362,178.364,167.969,181.7,164.633z M167.484,180.018c3.507-1.408,7.902-0.666,10.334,3.081     c1.911,2.935,1.741,7.074-0.41,9.847c-2.142,2.782-6.11,3.985-9.429,2.876c-3.328-1.109-5.777-4.446-5.837-7.953     C162.082,184.021,164.454,181.222,167.484,180.018z M147.567,156.099c3.337-3.337,8.73-3.337,12.066,0     c3.337,3.337,3.337,8.73,0,12.066l-25.6,25.6c-1.664,1.664-3.849,2.5-6.033,2.5s-4.369-0.836-6.033-2.5     c-3.336-3.337-3.336-8.73,0-12.066L147.567,156.099z M119.467,204.799c0,2.219-0.939,4.437-2.475,6.059     c-1.621,1.536-3.755,2.475-6.059,2.475c-1.109,0-2.219-0.256-3.243-0.683c-1.109-0.427-2.048-1.024-2.816-1.792     c-1.545-1.621-2.475-3.84-2.475-6.059c0-2.219,0.93-4.437,2.475-6.059c2.048-1.963,4.949-2.816,7.671-2.304     c0.606,0.085,1.109,0.256,1.63,0.512c0.503,0.171,1.024,0.427,1.536,0.768c0.418,0.341,0.853,0.683,1.28,1.024     C118.528,200.362,119.467,202.581,119.467,204.799z M70.767,190.233l34.133-34.133c3.337-3.337,8.73-3.337,12.066,0     c3.336,3.337,3.336,8.73,0,12.066l-34.133,34.133c-1.664,1.664-3.849,2.5-6.033,2.5c-2.185,0-4.369-0.836-6.033-2.5     C67.43,198.962,67.43,193.569,70.767,190.233z M70.767,232.899l17.067-17.067c3.337-3.337,8.73-3.337,12.066,0     c3.337,3.336,3.337,8.73,0,12.066l-17.067,17.067c-1.664,1.664-3.849,2.5-6.033,2.5c-2.185,0-4.369-0.836-6.033-2.5     C67.43,241.629,67.43,236.236,70.767,232.899z M70.767,275.566l76.8-76.8c3.337-3.336,8.73-3.336,12.066,0     c3.337,3.337,3.337,8.73,0,12.066l-76.8,76.8c-1.664,1.664-3.849,2.5-6.033,2.5c-2.185,0-4.369-0.836-6.033-2.5     C67.43,284.296,67.43,278.903,70.767,275.566z"/>
		</g>
	</g>
</g>
<g>
</g>
<g>
</g>
<g>
</g>
<g>
</g>
<g>
</g>
<g>
</g>
<g>
</g>
<g>
</g>
<g>
</g>
<g>
</g>
<g>
</g>
<g>
</g>
<g>
</g>
<g>
</g>
<g>
</g>
</svg>
