<?xml version="1.0" encoding="iso-8859-1"?>
<!-- Generator: Adobe Illustrator 19.0.0, SVG Export Plug-In . SVG Version: 6.00 Build 0)  -->
<svg xmlns="http://www.w3.org/2000/svg" xmlns:xlink="http://www.w3.org/1999/xlink" version="1.1" id="Layer_1" x="0px" y="0px" viewBox="0 0 512 512" style="enable-background:new 0 0 512 512;" xml:space="preserve">
<g>
	<g>
		<path d="M371.533,0H149.001C130.364,0,115.2,15.164,115.2,33.801V76.8c-4.71,0-8.533,3.823-8.533,8.533v8.533    c0,4.71,3.823,8.533,8.533,8.533v8.533c-4.71,0-8.533,3.823-8.533,8.533V128c0,4.71,3.823,8.533,8.533,8.533v8.533    c-4.71,0-8.533,3.823-8.533,8.533v8.533c0,4.71,3.823,8.533,8.533,8.533V478.2c0,18.637,15.164,33.8,33.801,33.8h222.532    c18.637,0,33.801-15.164,33.801-33.8V33.801C405.333,15.164,390.17,0,371.533,0z M244.233,64.205    c0.41-0.751,0.913-1.408,1.468-1.971c3.703-3.652,10.266-3.14,13.21,1.527c1.084,1.707,1.553,3.772,1.254,5.777    c-0.486,3.268-3.055,6.127-6.255,6.972c-3.191,0.845-6.835-0.375-8.883-2.97C242.987,70.938,242.654,67.115,244.233,64.205z     M228.634,36.634c3.337-3.337,8.73-3.337,12.066,0c3.337,3.337,3.337,8.73,0,12.066l-25.6,25.6c-1.664,1.664-3.849,2.5-6.033,2.5    c-2.185,0-4.369-0.836-6.033-2.5c-3.336-3.337-3.336-8.73,0-12.066L228.634,36.634z M200.542,85.333    c0.026,1.118-0.196,2.227-0.691,3.243c-0.171,0.512-0.427,1.024-0.768,1.536c-1.254,1.579-2.662,2.773-4.634,3.354    c-1.809,0.538-3.789,0.503-5.547-0.188c-3.004-1.169-5.197-4.164-5.419-7.381c-0.205-3.209,1.57-6.468,4.395-8.021    c2.816-1.562,6.519-1.331,9.122,0.563C199.1,79.966,200.499,82.671,200.542,85.333z M151.834,70.767l34.133-34.133    c3.337-3.337,8.73-3.337,12.066,0c3.336,3.337,3.336,8.73,0,12.066L163.9,82.833c-1.664,1.664-3.849,2.5-6.033,2.5    c-2.185,0-4.369-0.836-6.033-2.5C148.497,79.497,148.497,74.103,151.834,70.767z M151.834,113.434L168.9,96.367    c3.337-3.337,8.73-3.337,12.066,0c3.337,3.337,3.337,8.73,0,12.066L163.9,125.5c-1.664,1.664-3.849,2.5-6.033,2.5    c-2.185,0-4.369-0.836-6.033-2.5C148.497,122.163,148.497,116.77,151.834,113.434z M163.9,168.166    c-1.664,1.664-3.849,2.5-6.033,2.5c-2.185,0-4.369-0.836-6.033-2.5c-3.337-3.337-3.337-8.73,0-12.066l76.8-76.8    c3.337-3.337,8.73-3.337,12.066,0c3.337,3.336,3.337,8.73,0,12.066L163.9,168.166z M260.267,486.4    c-9.429,0-17.067-7.646-17.067-17.067c0-9.429,7.637-17.067,17.067-17.067c9.421,0,17.067,7.637,17.067,17.067    C277.333,478.754,269.687,486.4,260.267,486.4z M283.366,48.7l-8.533,8.533c-1.664,1.664-3.849,2.5-6.033,2.5    c-2.185,0-4.369-0.836-6.033-2.5c-3.336-3.337-3.336-8.73,0-12.066l8.533-8.533c3.337-3.337,8.73-3.337,12.066,0    S286.703,45.363,283.366,48.7z"/>
	</g>
</g>
<g>
</g>
<g>
</g>
<g>
</g>
<g>
</g>
<g>
</g>
<g>
</g>
<g>
</g>
<g>
</g>
<g>
</g>
<g>
</g>
<g>
</g>
<g>
</g>
<g>
</g>
<g>
</g>
<g>
</g>
</svg>
