<?xml version="1.0" encoding="iso-8859-1"?>
<!-- Generator: Adobe Illustrator 19.0.0, SVG Export Plug-In . SVG Version: 6.00 Build 0)  -->
<svg version="1.1" id="Layer_1" xmlns="http://www.w3.org/2000/svg" xmlns:xlink="http://www.w3.org/1999/xlink" x="0px" y="0px"
	 viewBox="0 0 512.001 512.001" style="enable-background:new 0 0 512.001 512.001;" xml:space="preserve">
<g>
	<g>
		<path d="M255.999,0C131.125,0,29.533,101.592,29.533,226.466c0,41.415,11.823,82.205,35.14,121.237
			c18.303,30.637,43.694,60.227,75.471,87.946c53.583,46.741,106.52,71.949,108.748,72.999l7.108,3.353l7.108-3.353
			c2.227-1.05,55.165-26.258,108.748-72.999c31.776-27.718,57.168-57.308,75.471-87.946c23.317-39.033,35.14-79.822,35.14-121.237
			C482.466,101.592,380.874,0,255.999,0z M191.254,262.273c-14.985,0-33.628-2.669-49.971-12.922
			c-33.378-20.938-42.454-64.272-42.824-66.106l-2.699-13.381l13.222-3.394c1.812-0.464,44.778-11.153,78.155,9.784
			c33.377,20.939,42.454,64.272,42.824,66.107l2.699,13.381l-13.222,3.394C218.513,259.374,206.87,262.273,191.254,262.273z
			 M283.691,393.24h-55.384v-33.336h55.384V393.24z M413.54,183.245c-0.37,1.835-9.446,45.169-42.824,66.106
			c-16.344,10.253-34.987,12.922-49.971,12.922c-15.616-0.001-27.259-2.9-28.184-3.137l-13.222-3.394l2.699-13.381
			c0.37-1.836,9.448-45.169,42.824-66.107c33.378-20.938,76.343-10.249,78.155-9.784l13.222,3.394L413.54,183.245z"/>
	</g>
</g>
<g>
</g>
<g>
</g>
<g>
</g>
<g>
</g>
<g>
</g>
<g>
</g>
<g>
</g>
<g>
</g>
<g>
</g>
<g>
</g>
<g>
</g>
<g>
</g>
<g>
</g>
<g>
</g>
<g>
</g>
</svg>
