<?xml version="1.0" encoding="iso-8859-1"?>
<!-- Generator: Adobe Illustrator 19.0.0, SVG Export Plug-In . SVG Version: 6.00 Build 0)  -->
<svg version="1.1" id="Layer_1" xmlns="http://www.w3.org/2000/svg" xmlns:xlink="http://www.w3.org/1999/xlink" x="0px" y="0px"
	 viewBox="0 0 512 512" style="enable-background:new 0 0 512 512;" xml:space="preserve">
<g>
	<g>
		<path d="M469.377,324.215c-0.345,0-0.692,0.004-1.039,0.012c-11.322,0.274-21.861,4.938-29.674,13.138
			c-0.785,0.824-1.523,1.68-2.233,2.553l-167.229-47.513c-2.669-20.937-20.602-37.01-42.044-37.01c-0.345,0-0.691,0.004-1.036,0.012
			c-1.36,0.033-2.702,0.137-4.028,0.295l-23.834-41.264c5.514-7.353,8.703-16.529,8.465-26.409v-0.001
			c-0.557-23.026-19.466-41.377-42.375-41.377c-0.345,0-0.691,0.004-1.036,0.012c-3.793,0.092-7.495,0.687-11.039,1.734
			L80.378,61.755c3.204-6.225,4.823-13.186,4.649-20.38c-0.274-11.322-4.94-21.86-13.138-29.673
			C63.689,3.89,52.922-0.235,41.617,0.01C30.294,0.284,19.756,4.95,11.944,13.15C4.13,21.349-0.021,32.101,0.251,43.422
			C0.809,66.448,19.716,84.8,42.624,84.798c0.345,0,0.692-0.004,1.039-0.012c3.793-0.092,7.495-0.687,11.039-1.734l71.899,86.643
			c-3.204,6.225-4.823,13.185-4.65,20.379c0.274,11.322,4.938,21.861,13.138,29.674c7.946,7.572,18.286,11.704,29.22,11.704
			c0.349,0,0.701-0.004,1.051-0.012c1.36-0.032,2.702-0.136,4.027-0.294l23.835,41.265c-5.514,7.353-8.703,16.529-8.465,26.409
			c0.349,14.454,7.932,27.062,19.193,34.449l-16.766,95.036c-7.982,1.849-15.261,5.976-21.044,12.045
			c-7.813,8.199-11.965,18.951-11.693,30.273c0.274,11.322,4.94,21.86,13.138,29.673c7.946,7.572,18.286,11.704,29.22,11.704
			c0.349,0,0.701-0.004,1.051-0.012c11.322-0.273,21.861-4.938,29.674-13.138c7.813-8.199,11.965-18.951,11.693-30.273
			c-0.35-14.451-7.935-27.054-19.193-34.442l16.768-95.049c9.317-2.177,17.431-7.43,23.254-14.598l167.251,47.518
			c2.668,20.936,20.601,37.01,42.044,37.009c0.345,0,0.691-0.004,1.036-0.012c11.322-0.274,21.86-4.94,29.673-13.139
			c7.813-8.199,11.965-18.95,11.693-30.272C511.192,342.565,492.285,324.215,469.377,324.215z"/>
	</g>
</g>
<g>
</g>
<g>
</g>
<g>
</g>
<g>
</g>
<g>
</g>
<g>
</g>
<g>
</g>
<g>
</g>
<g>
</g>
<g>
</g>
<g>
</g>
<g>
</g>
<g>
</g>
<g>
</g>
<g>
</g>
</svg>
