<?xml version="1.0" encoding="iso-8859-1"?>
<!-- Generator: Adobe Illustrator 19.0.0, SVG Export Plug-In . SVG Version: 6.00 Build 0)  -->
<svg version="1.1" id="Layer_1" xmlns="http://www.w3.org/2000/svg" xmlns:xlink="http://www.w3.org/1999/xlink" x="0px" y="0px"
	 viewBox="0 0 512.001 512.001" style="enable-background:new 0 0 512.001 512.001;" xml:space="preserve">
<g>
	<g>
		<path d="M484.188,176.66c-24.868-38.094-61.065-69.067-78.534-81.363l-2.41-1.697c-32.93-23.205-78.031-54.985-129.277-54.985
			c-2.863,0-5.814-0.007-8.838-0.014c-52.572-0.111-118.016-0.274-147.238,28.95l-89.708,89.708
			c-15.07,15.07-25.129,39.432-27.597,66.838C-0.875,240.321-0.131,263,8.964,288.01c6.064-41.876,42.092-74.049,85.647-74.049
			c47.806,0,86.56,38.754,86.56,86.559s-38.754,86.56-86.56,86.56c-8.556,0-16.813-1.261-24.619-3.573
			c8.827,10.235,18.569,20.369,29.291,29.923c44.643,39.78,95.326,59.951,150.641,59.951c2.451,0,4.914,0.008,7.388,0.016
			c2.574,0.009,5.163,0.018,7.773,0.018c39.949,0,83.953-1.942,125.819-35.641c-4.078,0.579-8.24,0.896-12.477,0.896
			c-48.645,0-88.079-39.435-88.079-88.08c0-48.645,39.435-88.079,88.079-88.079s88.079,39.435,88.079,88.079
			c0,1.78-0.069,3.542-0.172,5.294c11.327-14.863,20.257-28.153,28.518-40.824C520.902,275.11,517.215,227.253,484.188,176.66z
			 M267.957,196.37c-22.249,0-40.35-18.101-40.35-40.351c0-22.249,18.101-40.35,40.35-40.35c22.25,0,40.351,18.101,40.351,40.35
			S290.207,196.37,267.957,196.37z"/>
	</g>
</g>
<g>
</g>
<g>
</g>
<g>
</g>
<g>
</g>
<g>
</g>
<g>
</g>
<g>
</g>
<g>
</g>
<g>
</g>
<g>
</g>
<g>
</g>
<g>
</g>
<g>
</g>
<g>
</g>
<g>
</g>
</svg>
