<?xml version="1.0" encoding="iso-8859-1"?>
<!-- Generator: Adobe Illustrator 19.0.0, SVG Export Plug-In . SVG Version: 6.00 Build 0)  -->
<svg version="1.1" id="Layer_1" xmlns="http://www.w3.org/2000/svg" xmlns:xlink="http://www.w3.org/1999/xlink" x="0px" y="0px"
	 viewBox="0 0 512 512" style="enable-background:new 0 0 512 512;" xml:space="preserve">
<g>
	<g>
		<polygon points="512,239.305 444.079,239.305 463.712,219.672 440.101,196.061 420.469,215.694 420.469,147.774 387.078,147.774 
			387.078,215.695 367.443,196.061 343.832,219.672 363.465,239.305 295.545,239.305 295.545,272.696 363.465,272.696 
			343.832,292.329 367.443,315.94 387.078,296.306 387.078,364.227 420.469,364.227 420.469,296.307 440.101,315.94 
			463.712,292.329 444.079,272.696 512,272.696 		"/>
	</g>
</g>
<g>
	<g>
		<path d="M238.049,351.157c-17.842-28.472-27.273-61.375-27.273-95.156s9.431-66.685,27.273-95.156
			c17.371-27.719,41.945-50.186,71.063-64.973l29.318-14.887l-29.318-14.887c-30.004-15.235-62.387-22.96-96.25-22.96
			C95.489,43.139,0,138.628,0,256.001s95.489,212.862,212.862,212.862c33.863,0,66.246-7.725,96.25-22.96l29.318-14.887
			l-29.318-14.887C279.994,401.343,255.42,378.876,238.049,351.157z"/>
	</g>
</g>
<g>
</g>
<g>
</g>
<g>
</g>
<g>
</g>
<g>
</g>
<g>
</g>
<g>
</g>
<g>
</g>
<g>
</g>
<g>
</g>
<g>
</g>
<g>
</g>
<g>
</g>
<g>
</g>
<g>
</g>
</svg>
