<?xml version="1.0" encoding="iso-8859-1"?>
<!-- Generator: Adobe Illustrator 19.0.0, SVG Export Plug-In . SVG Version: 6.00 Build 0)  -->
<svg version="1.1" id="Layer_1" xmlns="http://www.w3.org/2000/svg" xmlns:xlink="http://www.w3.org/1999/xlink" x="0px" y="0px"
	 viewBox="0 0 512 512" style="enable-background:new 0 0 512 512;" xml:space="preserve">
<g>
	<g>
		<path d="M499.488,335.213c8.183-25.25,12.443-51.903,12.443-79.213c0-21.159-2.557-41.925-7.511-61.95H343.979v-33.391h149.665
			c-12.709-31.699-31.817-60.802-56.694-85.679C388.599,26.628,324.311,0,255.932,0C188.315,0,124.713,26.052,76.55,73.382h121.469
			v33.391H47.873C18.287,147.839,1.649,196.586,0.07,247.936H280.86v33.391H1.161c4.522,46.343,21.428,90.035,49.104,127.191h177.34
			v33.391H79.944C127.68,487.16,189.896,512,255.932,512c68.38,0,132.667-26.628,181.019-74.981
			c20.289-20.289,36.735-43.39,49.012-68.414H365.675v-33.391H499.488z"/>
	</g>
</g>
<g>
</g>
<g>
</g>
<g>
</g>
<g>
</g>
<g>
</g>
<g>
</g>
<g>
</g>
<g>
</g>
<g>
</g>
<g>
</g>
<g>
</g>
<g>
</g>
<g>
</g>
<g>
</g>
<g>
</g>
</svg>
