<?xml version="1.0" encoding="iso-8859-1"?>
<!-- Generator: Adobe Illustrator 19.0.0, SVG Export Plug-In . SVG Version: 6.00 Build 0)  -->
<svg version="1.1" id="Layer_1" xmlns="http://www.w3.org/2000/svg" xmlns:xlink="http://www.w3.org/1999/xlink" x="0px" y="0px"
	 viewBox="0 0 512 512" style="enable-background:new 0 0 512 512;" xml:space="preserve">
<g>
	<g>
		<path d="M469.672,128.941c13.981-24.243,10.628-55.825-10.081-76.533c-20.71-20.709-52.292-24.061-76.533-10.08L340.732,0
			l-11.494,11.495c-47.217,47.219-47.217,124.049,0,171.267c23.609,23.61,54.621,35.414,85.634,35.414
			c31.013,0,62.025-11.805,85.635-35.414L512,171.268L469.672,128.941z M444.861,104.129l-37.006-37.006
			c2.237-0.507,4.545-0.777,6.896-0.777c8.255,0,16.015,3.214,21.852,9.052C444.385,83.18,447.132,94.114,444.861,104.129z"/>
	</g>
</g>
<g>
	<g>
		<path d="M348.261,265.634l21.638-21.637c-4.324-1.321-8.602-2.828-12.823-4.536c-19.091-7.727-36.192-19.069-50.831-33.708
			c-18.401-18.401-31.139-40.35-38.233-63.663l-21.647,21.647L104.601,21.972L0,126.574l141.764,141.764l-54.913,54.913
			l101.897,101.897l54.913-54.913L385.426,512l104.601-104.601L348.261,265.634z M45.98,126.573l58.621-58.62l24.172,24.172
			l-58.62,58.621L45.98,126.573z M93.142,173.736l58.621-58.621l24.311,24.311l-58.621,58.621L93.142,173.736z M164.755,245.348
			l-24.311-24.311l58.621-58.621l24.312,24.311L164.755,245.348z M266.651,347.246l58.621-58.621l24.173,24.172l-58.621,58.621
			L266.651,347.246z M313.814,394.407l58.621-58.621l24.311,24.311l-58.621,58.62L313.814,394.407z M361.115,441.708l58.621-58.62
			l24.311,24.311l-58.621,58.62L361.115,441.708z"/>
	</g>
</g>
<g>
</g>
<g>
</g>
<g>
</g>
<g>
</g>
<g>
</g>
<g>
</g>
<g>
</g>
<g>
</g>
<g>
</g>
<g>
</g>
<g>
</g>
<g>
</g>
<g>
</g>
<g>
</g>
<g>
</g>
</svg>
