<?xml version="1.0" encoding="iso-8859-1"?>
<!-- Generator: Adobe Illustrator 19.0.0, SVG Export Plug-In . SVG Version: 6.00 Build 0)  -->
<svg version="1.1" id="Layer_1" xmlns="http://www.w3.org/2000/svg" xmlns:xlink="http://www.w3.org/1999/xlink" x="0px" y="0px"
	 viewBox="0 0 511.999 511.999" style="enable-background:new 0 0 511.999 511.999;" xml:space="preserve">
<g>
	<g>
		<path d="M506.609,64.482c8.464-24.741,6.954-43.087-4.487-54.528c-19.623-19.621-54.304-5.005-65.701-0.203
			c-22.197,9.354-49.054,25.219-79.909,47.17c-83.388-37.908-185.235-22.627-253.728,45.865S19.014,273.125,56.921,356.513
			c-21.953,30.855-37.816,57.712-47.17,79.91c-4.803,11.397-19.418,46.076,0.204,65.698c11.441,11.441,29.788,12.95,54.528,4.488
			c18.908-6.469,42.26-18.786,69.406-36.609c5.346-3.511,10.798-7.209,16.335-11.075c86.387,49.496,198.709,37.409,272.409-36.292
			s85.788-186.022,36.292-272.41c3.866-5.537,7.565-10.989,11.075-16.335C487.823,106.741,500.14,83.39,506.609,64.482z
			 M437.808,121.989c-34.515,51.161-86.012,111.825-145.004,170.817c-58.992,58.992-119.656,110.489-170.816,145.003
			c-63.891,43.103-84.884,41.293-88.282,40.552c-0.484-2.123-1.388-11.049,8.837-33.586c7.132-15.72,18.225-34.744,32.501-55.822
			c6.144,9.125,13.024,17.899,20.642,26.235c2.456-1.603,4.991-3.282,7.628-5.061c49.442-33.355,108.353-83.406,165.879-140.933
			c57.526-57.526,107.578-116.437,140.933-165.879c1.779-2.637,3.458-5.172,5.061-7.628c-8.336-7.619-17.11-14.499-26.235-20.642
			c21.077-14.275,40.101-25.369,55.821-32.5c22.536-10.225,31.464-9.322,33.587-8.838
			C479.103,37.104,480.911,58.098,437.808,121.989z"/>
	</g>
</g>
<g>
</g>
<g>
</g>
<g>
</g>
<g>
</g>
<g>
</g>
<g>
</g>
<g>
</g>
<g>
</g>
<g>
</g>
<g>
</g>
<g>
</g>
<g>
</g>
<g>
</g>
<g>
</g>
<g>
</g>
</svg>
