<?xml version="1.0" encoding="iso-8859-1"?>
<!-- Generator: Adobe Illustrator 19.0.0, SVG Export Plug-In . SVG Version: 6.00 Build 0)  -->
<svg version="1.1" id="Layer_1" xmlns="http://www.w3.org/2000/svg" xmlns:xlink="http://www.w3.org/1999/xlink" x="0px" y="0px"
	 viewBox="0 0 512 512" style="enable-background:new 0 0 512 512;" xml:space="preserve">
<g>
	<g>
		<path d="M354.345,318.59c-15.106-16.912-30.727-34.399-30.727-44.578V103.642c0-25.265-6.087-49.759-17.14-68.966
			C293.612,12.315,275.684,0,256,0s-37.612,12.315-50.479,34.676c-11.052,19.208-17.14,43.701-17.14,68.966v170.369
			c0,10.18-15.62,27.666-30.727,44.578c-28.951,32.413-68.602,76.802-68.602,138.994v16.696h99.33V512h135.235v-37.721h99.33
			v-16.696C422.948,395.392,383.297,351.003,354.345,318.59z M283.651,115.552c-7.561-6.942-17.381-10.765-27.651-10.765
			s-20.09,3.823-27.651,10.765l-13.55-14.757C226.066,90.449,240.698,84.752,256,84.752s29.934,5.698,41.202,16.043L283.651,115.552
			z"/>
	</g>
</g>
<g>
</g>
<g>
</g>
<g>
</g>
<g>
</g>
<g>
</g>
<g>
</g>
<g>
</g>
<g>
</g>
<g>
</g>
<g>
</g>
<g>
</g>
<g>
</g>
<g>
</g>
<g>
</g>
<g>
</g>
</svg>
