<?xml version="1.0" encoding="iso-8859-1"?>
<!-- Generator: Adobe Illustrator 19.0.0, SVG Export Plug-In . SVG Version: 6.00 Build 0)  -->
<svg version="1.1" id="Layer_1" xmlns="http://www.w3.org/2000/svg" xmlns:xlink="http://www.w3.org/1999/xlink" x="0px" y="0px"
	 viewBox="0 0 512 512" style="enable-background:new 0 0 512 512;" xml:space="preserve">
<g>
	<g>
		<path d="M510.552,107.792c-3.685-19.373-14.211-36.788-29.64-49.037c-11.445-9.086-25.033-14.92-39.296-17.003l-1.926-10.128
			L315.148,55.306l3.832,20.154L72.952,122.245l3.413,17.944L0,154.711l18.415,96.836l76.365-14.522l3.413,17.944l98.718-18.772
			L80.015,463.189l29.525,15.203l98.755-191.768v193.751h33.209V286.627l98.754,191.766l29.525-15.203L247.896,226.502
			l96.327-18.318l3.832,20.153l124.54-23.682l-1.926-10.13c12.5-7.174,23.003-17.587,30.313-30.239
			C510.837,147.229,514.235,127.166,510.552,107.792z M463.823,158.53l-15.363-80.791c14.917,6.103,26.263,19.407,29.467,36.256
			C481.13,130.844,475.457,147.378,463.823,158.53z"/>
	</g>
</g>
<g>
</g>
<g>
</g>
<g>
</g>
<g>
</g>
<g>
</g>
<g>
</g>
<g>
</g>
<g>
</g>
<g>
</g>
<g>
</g>
<g>
</g>
<g>
</g>
<g>
</g>
<g>
</g>
<g>
</g>
</svg>
