<?xml version="1.0" encoding="iso-8859-1"?>
<!-- Generator: Adobe Illustrator 19.0.0, SVG Export Plug-In . SVG Version: 6.00 Build 0)  -->
<svg version="1.1" id="Layer_1" xmlns="http://www.w3.org/2000/svg" xmlns:xlink="http://www.w3.org/1999/xlink" x="0px" y="0px"
	 viewBox="0 0 512.004 512.004" style="enable-background:new 0 0 512.004 512.004;" xml:space="preserve">
<g>
	<g>
		
			<rect x="186.874" y="107.848" transform="matrix(0.7071 -0.7071 0.7071 0.7071 -74.6854 199.7121)" width="33.714" height="164.322"/>
	</g>
</g>
<g>
	<g>
		
			<rect x="97.383" y="93.214" transform="matrix(0.7071 -0.7071 0.7071 0.7071 -121.0475 144.779)" width="33.714" height="250.584"/>
	</g>
</g>
<g>
	<g>
		
			<rect x="215.369" y="-24.778" transform="matrix(0.7071 -0.7071 0.7071 0.7071 -3.0571 193.6487)" width="33.714" height="250.584"/>
	</g>
</g>
<g>
	<g>
		<path d="M487.051,437.578c-4.019-8.387-8.4-15.89-11.656-21.125c8.494-27.504,1.209-58.181-19.461-78.849
			c-20.67-20.67-51.346-27.954-78.849-19.46c-5.236-3.255-12.74-7.637-21.125-11.656c-24.375-11.681-43.103-14.215-57.258-7.755
			c-8.786,4.012-14.652,11.911-16.517,22.242c-5.82,32.253,28.365,89.19,64.777,125.602c33.667,33.668,84.876,65.431,117.901,65.427
			c2.693,0,5.27-0.211,7.701-0.65c10.331-1.864,18.23-7.731,22.241-16.517C501.268,480.683,498.73,461.953,487.051,437.578z
			 M444.374,401.806c-6.778-1.56-17.862-6.392-32.055-20.586c-14.194-14.194-19.027-25.278-20.587-32.055
			c14.421-2.799,29.717,1.633,40.363,12.279C442.742,372.09,447.171,387.387,444.374,401.806z"/>
	</g>
</g>
<g>
</g>
<g>
</g>
<g>
</g>
<g>
</g>
<g>
</g>
<g>
</g>
<g>
</g>
<g>
</g>
<g>
</g>
<g>
</g>
<g>
</g>
<g>
</g>
<g>
</g>
<g>
</g>
<g>
</g>
</svg>
