<?xml version="1.0" encoding="iso-8859-1"?>
<!-- Generator: Adobe Illustrator 19.0.0, SVG Export Plug-In . SVG Version: 6.00 Build 0)  -->
<svg xmlns="http://www.w3.org/2000/svg" xmlns:xlink="http://www.w3.org/1999/xlink" version="1.1" id="Layer_1" x="0px" y="0px" viewBox="0 0 512.003 512.003" style="enable-background:new 0 0 512.003 512.003;" xml:space="preserve">
<g>
	<g>
		<g>
			<path d="M423.154,64.002c-48.981,0-88.841,34.27-88.841,76.382c0,14.063,4.42,27.674,12.834,39.586     c-0.648,2.978-1.869,6.664-3.422,10.573c-10.547-4.292-22.758-6.673-36.693-6.955c-72.038,1.476-76.57,56.815-76.629,57.95     v24.653c-4.412,4.326-8.533,9.788-8.533,16.35v21.521c0,8.858,6.929,14.626,12.288,18.219     c5.367,18.918,17.058,34.739,21.879,40.721c0.017,0.478,0.026,0.964,0.034,1.468c0.171,8.388,0.444,21.077-4.949,24.431     c-0.418,0.265-0.947,0.512-1.604,0.759c-1.271,0.469-2.603,0.794-3.942,1.135c-1.289,0.333-2.577,0.666-3.849,1.058     c-10.65,3.328-15.906,9.242-21.461,15.505c-0.973,1.084-1.971,2.21-3.046,3.379c-3.413,3.678-6.75,7.415-9.89,11.307     c-0.401,0.495-1.314,1.818-2.44,3.516c-1.084,1.638-3.465,5.222-4.71,6.741c-2.347,1.51-3.908,4.156-3.908,7.168     c0,4.71,3.814,8.533,8.533,8.533h204.8c4.719,0,8.533-3.823,8.533-8.533c0-3.012-1.562-5.658-3.908-7.177     c-1.246-1.527-3.652-5.137-4.753-6.793c-1.092-1.656-1.988-2.944-2.381-3.439c0,0,0,0-0.009-0.009     c-3.149-3.9-6.485-7.637-9.89-11.315c-1.084-1.169-2.082-2.295-3.046-3.379c-5.564-6.263-10.82-12.177-21.47-15.505     c-1.263-0.393-2.56-0.725-3.849-1.058c-1.331-0.341-2.671-0.666-3.934-1.135c-0.666-0.247-1.195-0.495-1.63-0.759     c-4.855-3.029-4.813-14.251-4.787-22.443c0.009-1.237,0.009-2.44,0-3.593c4.881-6.076,16.444-21.803,21.777-40.576     c5.359-3.593,12.279-9.37,12.279-18.227v-21.521c0-6.562-4.113-12.032-8.533-16.358l-0.026-25.267     c-0.043-0.555-0.998-11.17-7.936-23.125c4.847-2.193,9.549-4.437,13.662-6.622c10.624,3.721,21.862,5.606,33.451,5.606     c48.99,0,88.849-34.27,88.849-76.39C512.003,98.272,472.143,64.002,423.154,64.002z"/>
			<path d="M207.07,396.502c6.647-7.484,14.387-16.196,29.577-20.941c0.751-0.23,1.51-0.452,2.261-0.657     c0.136-1.843,0.162-4.011,0.154-5.982c-5.7-7.748-14.14-20.796-19.516-36.258c-9.796-8.09-14.746-17.69-14.746-28.604v-21.513     c0-7.953,2.867-15.616,8.533-22.852l0.026-19.038c0.597-11.537,7.091-33.707,26.351-50.825     c-10.138-3.84-21.803-5.973-35.081-6.246c-13.67,0.282-25.813,2.662-36.361,6.955c-1.544-3.917-2.756-7.586-3.405-10.573     c8.405-11.913,12.834-25.523,12.834-39.586C177.698,98.27,137.839,64,88.849,64S0,98.27,0,140.382     c0,42.121,39.859,76.39,88.849,76.39c11.597,0,22.827-1.886,33.451-5.606c4.122,2.185,8.823,4.429,13.67,6.63     c-6.946,11.972-7.91,22.69-7.97,23.74v24.653c-4.412,4.326-8.533,9.788-8.533,16.358v21.513c0,8.858,6.929,14.626,12.288,18.219     c5.333,18.782,16.879,34.509,21.777,40.593c-0.009,1.143-0.009,2.347,0,3.584c0.026,8.192,0.06,19.413-4.813,22.443     c-0.418,0.265-0.939,0.512-1.596,0.759c-1.28,0.469-2.611,0.794-3.942,1.135c-1.297,0.333-2.586,0.666-3.849,1.067     c-10.65,3.319-15.906,9.225-21.47,15.488c-0.964,1.084-1.971,2.219-3.063,3.388c-3.405,3.695-6.733,7.424-9.873,11.307     c-0.401,0.495-1.314,1.826-2.441,3.516c-1.084,1.638-3.465,5.222-4.71,6.741c-2.347,1.519-3.908,4.164-3.908,7.168     c0,4.71,3.823,8.533,8.533,8.533h78.379c-0.956-2.679-1.579-5.521-1.579-8.533c0-7.45,3.191-14.404,8.695-19.226     c0.964-1.365,2.125-3.149,2.756-4.105c1.579-2.372,2.884-4.181,3.439-4.864c3.345-4.147,6.938-8.175,10.624-12.143     L207.07,396.502z"/>
		</g>
	</g>
</g>
<g>
</g>
<g>
</g>
<g>
</g>
<g>
</g>
<g>
</g>
<g>
</g>
<g>
</g>
<g>
</g>
<g>
</g>
<g>
</g>
<g>
</g>
<g>
</g>
<g>
</g>
<g>
</g>
<g>
</g>
</svg>
