<?xml version="1.0" encoding="iso-8859-1"?>
<!-- Generator: Adobe Illustrator 19.0.0, SVG Export Plug-In . SVG Version: 6.00 Build 0)  -->
<svg xmlns="http://www.w3.org/2000/svg" xmlns:xlink="http://www.w3.org/1999/xlink" version="1.1" id="Layer_1" x="0px" y="0px" viewBox="0 0 512.003 512.003" style="enable-background:new 0 0 512.003 512.003;" xml:space="preserve">
<g>
	<g>
		<g>
			<path d="M423.154,68.269c-48.981,0-88.841,34.27-88.841,76.382c0,14.063,4.42,27.674,12.834,39.586     c-0.648,2.978-1.869,6.664-3.422,10.573c-10.547-4.292-22.758-6.673-36.693-6.955c-72.038,1.476-76.57,56.815-76.629,57.95     v24.653c-4.412,4.326-8.533,9.788-8.533,16.35v21.521c0,8.858,6.929,14.635,12.288,18.227     c5.367,18.918,17.067,34.731,21.879,40.713c0.017,0.478,0.026,0.964,0.034,1.468c0.171,8.388,0.444,21.077-4.949,24.431     c-0.418,0.265-0.947,0.512-1.604,0.759c-1.271,0.469-2.603,0.794-3.942,1.135c-1.289,0.333-2.577,0.666-3.849,1.058     c-10.65,3.328-15.906,9.242-21.461,15.505c-0.973,1.084-1.971,2.21-3.046,3.379c-3.413,3.678-6.75,7.415-9.907,11.324     c-0.393,0.495-1.28,1.784-2.381,3.439c-1.101,1.655-3.499,5.265-4.753,6.793c-2.347,1.519-3.908,4.164-3.908,7.177     c0,4.71,3.814,8.533,8.533,8.533h204.8c4.719,0,8.533-3.823,8.533-8.533c0-3.012-1.562-5.658-3.908-7.168     c-1.237-1.519-3.627-5.103-4.71-6.741c-1.118-1.698-2.039-3.021-2.441-3.516c-3.149-3.9-6.477-7.629-9.882-11.307     c-1.084-1.169-2.082-2.295-3.046-3.379c-5.564-6.263-10.82-12.177-21.47-15.505c-1.263-0.393-2.56-0.725-3.849-1.058     c-1.331-0.341-2.671-0.666-3.934-1.135c-0.666-0.247-1.195-0.495-1.63-0.759c-4.855-3.029-4.813-14.251-4.787-22.443     c0.009-1.237,0.009-2.441,0-3.593c4.89-6.076,16.444-21.803,21.777-40.585c5.359-3.593,12.279-9.361,12.279-18.219v-21.521     c0-6.562-4.113-12.032-8.533-16.358l-0.026-25.267c-0.043-0.555-0.998-11.17-7.936-23.125c4.847-2.193,9.549-4.437,13.662-6.622     c10.624,3.721,21.862,5.606,33.451,5.606c48.99,0,88.849-34.27,88.849-76.39C512.003,102.539,472.143,68.269,423.154,68.269z"/>
			<path d="M207.07,400.768c6.647-7.484,14.387-16.196,29.577-20.941c0.751-0.23,1.51-0.452,2.261-0.657     c0.136-1.843,0.162-4.002,0.154-5.965c-6.144-8.311-14.268-21.094-19.524-36.275c-9.788-8.098-14.737-17.69-14.737-28.604     v-21.513c0-7.953,2.867-15.616,8.533-22.852l0.026-19.038c0.64-12.442,8.115-37.257,31.087-54.75     c-11.784-7.023-25.31-10.837-39.723-10.974c-12.86,0.128-24.798,3.183-35.678,8.909c-1.894-4.582-3.43-8.969-4.181-12.407     c8.405-11.913,12.834-25.523,12.834-39.586c0-42.112-39.859-76.382-88.849-76.382S0,94.004,0,136.116     c0,42.121,39.859,76.39,88.849,76.39c11.597,0,22.827-1.886,33.451-5.606c5.094,2.697,11.042,5.487,17.101,8.166     c-2.867,4.369-5.299,8.9-7.074,13.483c-4.105,10.598-6.511,22.938-7.356,37.726c-2.253,39.339-19.012,71.091-28.015,88.149     l-1.519,2.893c-1.613,3.098-1.971,6.903-1.084,11.315c2.671,13.175,15.087,23.902,27.648,23.902h25.557     c-7.945,9.284-17.732,19.763-24.166,23.697c-9.523,5.845-20.25,13.039-27.614,22.127c-2.074,2.56-2.492,6.076-1.075,9.045     c1.408,2.97,4.412,4.864,7.697,4.864h78.379c-0.956-2.679-1.579-5.521-1.579-8.533c0-7.45,3.191-14.396,8.687-19.226     c0.922-1.306,2.022-2.987,2.688-3.985c1.647-2.466,2.893-4.216,3.43-4.881c3.43-4.25,7.023-8.277,10.709-12.245L207.07,400.768z"/>
		</g>
	</g>
</g>
<g>
</g>
<g>
</g>
<g>
</g>
<g>
</g>
<g>
</g>
<g>
</g>
<g>
</g>
<g>
</g>
<g>
</g>
<g>
</g>
<g>
</g>
<g>
</g>
<g>
</g>
<g>
</g>
<g>
</g>
</svg>
