<?xml version="1.0" encoding="iso-8859-1"?>
<!-- Generator: Adobe Illustrator 19.0.0, SVG Export Plug-In . SVG Version: 6.00 Build 0)  -->
<svg xmlns="http://www.w3.org/2000/svg" xmlns:xlink="http://www.w3.org/1999/xlink" version="1.1" id="Layer_1" x="0px" y="0px" viewBox="0 0 511.999 511.999" style="enable-background:new 0 0 511.999 511.999;" xml:space="preserve">
<g>
	<g>
		<g>
			<path d="M376.079,331.765c-10.897-6.212-22.178-8.166-31.753-5.513c-7.202,1.988-13.073,6.545-17.033,13.184     c-8.704,10.419-19.507,22.579-22.118,24.474c-4.07,2.748-7.936,4.719-11.708,6.229c13.585,6.409,30.054,11.989,48.717,13.926     c4.685,0.486,8.098,4.676,7.603,9.37c-0.452,4.395-4.156,7.654-8.474,7.654c-0.29,0-0.589-0.008-0.887-0.043     c-58.837-6.11-97.365-43.494-98.978-45.082c-2.543-2.509-91.716-92.049-93.303-93.355c-1.963-1.613-48.102-40.243-54.263-99.575     c-0.486-4.693,2.918-8.883,7.612-9.37c4.693-0.546,8.883,2.918,9.361,7.612c2.91,27.964,16.367,51.081,28.331,66.654     c0.828-6.656,3.78-13.585,8.866-21.094c1.911-2.637,14.08-13.44,24.491-22.144c6.647-3.959,11.196-9.83,13.193-17.024     c2.654-9.583,0.7-20.864-5.564-31.846c-1.485-2.526-36.617-62.029-69.001-79.172c-16.427-8.704-36.309-5.7-49.451,7.441     L40.07,85.741c-63.164,63.164-51.473,141.619,33.801,226.893l125.483,125.483c49.169,49.169,96.06,73.873,139.068,73.873     c31.59-0.009,61.082-13.329,87.817-40.073l21.658-21.649c13.15-13.15,16.136-33.024,7.441-49.459     C438.193,368.425,378.69,333.293,376.079,331.765z"/>
			<path d="M315.733,83.424v39.518c0,24.183,11.093,47.13,29.688,61.38c6.775,5.197,14.003,9.071,21.513,11.554     c7.509-2.483,14.737-6.357,21.513-11.554c18.586-14.251,29.688-37.197,29.688-61.38V83.424     c-26.086-1.98-42.709-12.749-51.2-20.096C358.442,70.675,341.819,81.444,315.733,83.424z"/>
			<path d="M366.933,0.01c-79.991,0-145.067,57.054-145.067,127.189c0,24.132,7.706,47.497,22.323,67.806     c-3.055,31.65-9.967,54.11-19.567,63.411c-2.765,2.679-3.396,6.878-1.536,10.257c1.527,2.756,4.42,4.403,7.475,4.403     c0.666,0,1.34-0.077,2.014-0.239c1.886-0.461,44.885-11.051,77.013-28.792c18.15,6.869,37.419,10.342,57.344,10.342     c79.991,0,145.067-57.054,145.067-127.189S446.924,0.01,366.933,0.01z M435.199,122.941c0,29.466-13.602,57.472-36.369,74.931     c-9.182,7.031-19.106,12.126-29.525,15.138c-0.777,0.222-1.57,0.333-2.372,0.333s-1.596-0.111-2.372-0.333     c-10.419-3.012-20.344-8.107-29.525-15.147c-22.775-17.451-36.369-45.457-36.369-74.923V75.214c0-4.719,3.823-8.533,8.533-8.533     c36.454,0,52.301-19.814,52.958-20.659c1.63-2.099,4.531-3.217,6.818-3.319c2.637,0.026,5.137,1.237,6.733,3.328     c0.717,0.913,16.572,20.651,52.958,20.651c4.719,0,8.533,3.814,8.533,8.533V122.941z"/>
		</g>
	</g>
</g>
<g>
</g>
<g>
</g>
<g>
</g>
<g>
</g>
<g>
</g>
<g>
</g>
<g>
</g>
<g>
</g>
<g>
</g>
<g>
</g>
<g>
</g>
<g>
</g>
<g>
</g>
<g>
</g>
<g>
</g>
</svg>
