<?xml version="1.0" encoding="iso-8859-1"?>
<!-- Generator: Adobe Illustrator 19.0.0, SVG Export Plug-In . SVG Version: 6.00 Build 0)  -->
<svg xmlns="http://www.w3.org/2000/svg" xmlns:xlink="http://www.w3.org/1999/xlink" version="1.1" id="Layer_1" x="0px" y="0px" viewBox="0 0 512.004 512.004" style="enable-background:new 0 0 512.004 512.004;" xml:space="preserve">
<g>
	<g>
		<g>
			<path d="M512,38.391C512,17.22,494.789,0,473.618,0H38.383C17.221,0,0,17.22,0,38.391v285.875h512V38.391z M128.717,187.452     c-10.974,0-21.623-1.766-31.701-5.248c-18.509,9.293-43.213,13.739-44.322,13.935c-0.495,0.094-0.998,0.128-1.493,0.128     c-3.191,0-6.161-1.783-7.629-4.71c-1.69-3.379-0.956-7.467,1.801-10.052c5.453-5.103,9.523-18.005,10.982-28.834     c-9.199-12.527-13.687-24.73-13.687-37.214c0-40.132,38.605-72.789,86.05-72.789c46.66,0,84.617,32.478,84.617,72.397     S175.378,187.452,128.717,187.452z M468.438,293.956c-1.468,2.927-4.446,4.71-7.637,4.71c-0.486,0-0.99-0.034-1.485-0.128     c-1.109-0.196-25.813-4.642-44.322-13.935c-10.078,3.482-20.727,5.248-31.71,5.248c-46.652,0-84.617-32.469-84.617-72.388     s37.965-72.397,84.617-72.397c47.454,0,86.05,32.657,86.05,72.789c0,12.484-4.48,24.687-13.679,37.214     c1.459,10.829,5.521,23.731,10.982,28.834C469.393,286.49,470.127,290.577,468.438,293.956z"/>
			<path d="M452.271,217.852c0-30.199-31.59-55.714-68.983-55.714c-37.248,0-67.55,24.815-67.55,55.322     c0,30.515,30.302,55.33,67.55,55.33c4.378,0,8.67-0.41,12.885-1.075c-3.209-2.833-3.78-4.574-3.644-7.526     c0.136-2.944,1.783-5.632,4.343-7.074c3.635-2.057,8.149-1.161,10.743,1.946c1.877,1.51,7.535,5.53,12.407,8.883     c6.98,3.925,15.735,7.023,23.484,9.276c-2.901-8.038-4.574-16.708-5.214-23.834c-0.188-2.167,0.452-4.318,1.801-6.042     C448.285,236.949,452.271,227.298,452.271,217.852z M358.404,187.738h51.2c4.719,0,8.533,3.814,8.533,8.533     s-3.814,8.533-8.533,8.533h-51.2c-4.719,0-8.533-3.814-8.533-8.533S353.685,187.738,358.404,187.738z M426.671,238.938h-85.333     c-4.719,0-8.533-3.814-8.533-8.533s3.814-8.533,8.533-8.533h85.333c4.719,0,8.533,3.814,8.533,8.533     S431.389,238.938,426.671,238.938z"/>
			<path d="M128.721,59.738c-37.393,0-68.983,25.515-68.983,55.714c0,9.446,3.985,19.098,12.177,29.491     c1.348,1.724,1.988,3.874,1.801,6.042c-0.64,7.125-2.313,15.787-5.205,23.825c7.748-2.253,16.512-5.359,23.475-9.267     c4.872-3.354,10.53-7.373,12.407-8.883c2.586-3.106,7.108-3.994,10.743-1.946c2.56,1.442,4.207,4.13,4.344,7.074     c0.137,2.953-0.435,4.693-3.644,7.526c4.215,0.666,8.508,1.075,12.885,1.075c37.248,0,67.55-24.815,67.55-55.33     C196.271,84.553,165.969,59.738,128.721,59.738z M102.404,85.338h51.2c4.719,0,8.533,3.814,8.533,8.533     c0,4.719-3.814,8.533-8.533,8.533h-51.2c-4.719,0-8.533-3.814-8.533-8.533C93.871,89.152,97.685,85.338,102.404,85.338z      M170.671,136.538H85.337c-4.719,0-8.533-3.814-8.533-8.533c0-4.719,3.814-8.533,8.533-8.533h85.333     c4.719,0,8.533,3.814,8.533,8.533C179.204,132.723,175.389,136.538,170.671,136.538z"/>
			<path d="M0.004,341.338v29.884c0,21.163,17.22,38.383,38.383,38.383h152.371c1.212,14.95-5.282,29.705-17.263,38.17     l-15.369,10.829c-1.254,0.879-2.176,2.022-2.927,3.277c-10.726,3.038-18.662,12.826-18.662,24.525     c0,14.114,11.486,25.6,25.6,25.6h187.733c14.114,0,25.6-11.486,25.6-25.6c0-11.699-7.936-21.487-18.662-24.525     c-0.742-1.237-1.647-2.372-2.876-3.251l-15.394-10.837c-11.998-8.457-18.492-23.219-17.28-38.187h152.363     c21.163,0,38.383-17.22,38.383-38.383v-29.884H0.004z M256.004,358.404c4.719,0,8.533,3.814,8.533,8.533     s-3.814,8.533-8.533,8.533s-8.533-3.814-8.533-8.533S251.285,358.404,256.004,358.404z M327.419,460.804H184.588     c15.753-11.785,24.414-31.326,23.279-51.2l96.282,0.017C303.014,429.495,311.667,449.02,327.419,460.804z"/>
		</g>
	</g>
</g>
<g>
</g>
<g>
</g>
<g>
</g>
<g>
</g>
<g>
</g>
<g>
</g>
<g>
</g>
<g>
</g>
<g>
</g>
<g>
</g>
<g>
</g>
<g>
</g>
<g>
</g>
<g>
</g>
<g>
</g>
</svg>
