<?xml version="1.0" encoding="iso-8859-1"?>
<!-- Generator: Adobe Illustrator 19.0.0, SVG Export Plug-In . SVG Version: 6.00 Build 0)  -->
<svg xmlns="http://www.w3.org/2000/svg" xmlns:xlink="http://www.w3.org/1999/xlink" version="1.1" id="Layer_1" x="0px" y="0px" viewBox="0 0 512 512" style="enable-background:new 0 0 512 512;" xml:space="preserve">
<g>
	<g>
		<g>
			<path d="M473.617,0H38.383C17.22,0,0,17.22,0,38.383v285.884h512V38.383C512,17.22,494.78,0,473.617,0z M477.252,272.785     c-1.698,5.274-6.562,8.815-12.092,8.815h-38.494c0,14.114-11.349,25.6-25.31,25.6H59.733c-14.114,0-25.6-11.486-25.6-25.6     v-68.267c0-14.114,11.486-25.6,25.6-25.6h341.333c14.114,0,25.6,11.486,25.6,25.6v12.655l45.858,32.563     C477.056,261.803,478.942,267.511,477.252,272.785z M477.867,128c0,14.114-11.486,25.6-25.6,25.6H110.643     c-13.961,0-25.31-11.486-25.31-25.6H46.839c-5.53,0-10.394-3.541-12.092-8.815c-1.69-5.274,0.196-10.982,4.702-14.208     l45.884-32.589V59.733c0-14.114,11.486-25.6,25.6-25.6h341.333c14.114,0,25.6,11.486,25.6,25.6V128z"/>
			<path d="M452.267,51.2H110.933c-4.71,0-8.533,3.823-8.533,8.533V76.8c0,2.765-1.34,5.359-3.593,6.955l-38.272,27.179h33.331     c4.719,0,8.533,3.814,8.533,8.533V128c0,4.787,3.618,8.533,8.243,8.533h341.623c4.71,0,8.533-3.823,8.533-8.533V59.733     C460.8,55.023,456.977,51.2,452.267,51.2z M136.533,68.267h153.6c4.719,0,8.533,3.814,8.533,8.533s-3.814,8.533-8.533,8.533     h-153.6c-4.719,0-8.533-3.814-8.533-8.533S131.814,68.267,136.533,68.267z M358.4,119.467H136.533     c-4.719,0-8.533-3.814-8.533-8.533s3.814-8.533,8.533-8.533H358.4c4.719,0,8.533,3.814,8.533,8.533     S363.119,119.467,358.4,119.467z"/>
			<path d="M409.6,230.4v-17.067c0-4.71-3.823-8.533-8.533-8.533H59.733c-4.71,0-8.533,3.823-8.533,8.533V281.6     c0,4.71,3.823,8.533,8.533,8.533h341.623c4.625,0,8.243-3.746,8.243-8.533v-8.533c0-4.719,3.814-8.533,8.533-8.533h33.331     l-38.272-27.179C410.94,235.759,409.6,233.165,409.6,230.4z M375.467,273.067H153.6c-4.719,0-8.533-3.814-8.533-8.533     S148.881,256,153.6,256h221.867c4.719,0,8.533,3.814,8.533,8.533S380.186,273.067,375.467,273.067z M375.467,238.933h-153.6     c-4.719,0-8.533-3.814-8.533-8.533s3.814-8.533,8.533-8.533h153.6c4.719,0,8.533,3.814,8.533,8.533     S380.186,238.933,375.467,238.933z"/>
			<path d="M0,371.217C0,392.38,17.22,409.6,38.383,409.6h152.371c1.212,14.95-5.282,29.705-17.263,38.17l-15.369,10.829     c-1.254,0.879-2.176,2.022-2.927,3.277c-10.726,3.038-18.662,12.826-18.662,24.525c0,14.114,11.486,25.6,25.6,25.6h187.733     c14.114,0,25.6-11.486,25.6-25.6c0-11.699-7.936-21.487-18.662-24.525c-0.742-1.237-1.647-2.372-2.876-3.251l-15.394-10.837     c-11.998-8.457-18.492-23.219-17.28-38.187h152.363c21.163,0,38.383-17.22,38.383-38.383v-29.884H0V371.217z M256,358.4     c4.719,0,8.533,3.814,8.533,8.533s-3.814,8.533-8.533,8.533s-8.533-3.814-8.533-8.533S251.281,358.4,256,358.4z M304.145,409.617     c-1.135,19.874,7.518,39.398,23.27,51.183H184.585c15.753-11.785,24.414-31.326,23.279-51.2L304.145,409.617z"/>
		</g>
	</g>
</g>
<g>
</g>
<g>
</g>
<g>
</g>
<g>
</g>
<g>
</g>
<g>
</g>
<g>
</g>
<g>
</g>
<g>
</g>
<g>
</g>
<g>
</g>
<g>
</g>
<g>
</g>
<g>
</g>
<g>
</g>
</svg>
