<?xml version="1.0" encoding="iso-8859-1"?>
<!-- Generator: Adobe Illustrator 19.0.0, SVG Export Plug-In . SVG Version: 6.00 Build 0)  -->
<svg xmlns="http://www.w3.org/2000/svg" xmlns:xlink="http://www.w3.org/1999/xlink" version="1.1" id="Layer_1" x="0px" y="0px" viewBox="0 0 512 512" style="enable-background:new 0 0 512 512;" xml:space="preserve">
<g>
	<g>
		<g>
			<path d="M452.267,153.6H315.733c-4.702,0-8.533,3.823-8.533,8.533V230.4c0,4.71,3.831,8.533,8.533,8.533h59.733     c2.039,0,4.011,0.725,5.555,2.057l41.899,35.908l-4.668-28.032c-0.418-2.475,0.282-5.001,1.903-6.912     c1.621-1.92,4.002-3.021,6.511-3.021h25.6c4.702,0,8.533-3.823,8.533-8.533v-68.267C460.8,157.423,456.969,153.6,452.267,153.6z      M358.4,170.667h51.2c4.71,0,8.533,3.814,8.533,8.533s-3.823,8.533-8.533,8.533h-51.2c-4.71,0-8.533-3.814-8.533-8.533     S353.69,170.667,358.4,170.667z M435.2,221.867H332.8c-4.71,0-8.533-3.814-8.533-8.533c0-4.719,3.823-8.533,8.533-8.533h102.4     c4.71,0,8.533,3.814,8.533,8.533C443.733,218.052,439.91,221.867,435.2,221.867z"/>
			<path d="M196.271,51.196H59.738c-4.71,0-8.533,3.831-8.533,8.533v119.467c0,4.71,3.823,8.533,8.533,8.533h25.6     c2.5,0,4.89,1.101,6.511,3.021s2.313,4.437,1.903,6.921l-4.676,28.032l41.907-35.908c1.544-1.34,3.516-2.065,5.555-2.065h59.733     c4.702,0,8.533-3.823,8.533-8.533V59.729C204.804,55.027,200.973,51.196,196.271,51.196z M178.146,113.233     c-2.125,9.754-7.006,18.603-14.131,25.609l-30.046,29.389c-1.664,1.63-3.814,2.432-5.965,2.432c-2.159,0-4.309-0.802-5.973-2.432     l-30.029-29.372c-7.142-7.023-12.032-15.88-14.148-25.626c-1.604-7.381-0.93-11.955-0.785-12.809     c1.459-18.295,14.421-32.162,30.72-32.162c7.569,0,14.711,3.191,20.215,8.661c5.504-5.47,12.638-8.661,20.207-8.661     c16.299,0,29.261,13.867,30.822,32.973C179.076,101.278,179.75,105.852,178.146,113.233z"/>
			<path d="M148.209,85.333c-5.069,0-9.882,3.951-12.254,10.078c-1.271,3.268-4.437,5.436-7.953,5.436     c-3.524,0-6.682-2.167-7.953-5.436c-2.381-6.127-7.194-10.078-12.254-10.078c-8.055,0-13.133,8.909-13.815,17.28     c-0.077,0.614-0.341,2.893,0.546,6.997c1.417,6.485,4.676,12.39,9.421,17.067l24.055,23.526l24.064-23.543     c4.736-4.659,7.996-10.564,9.404-17.05c0.888-4.104,0.623-6.383,0.623-6.409C161.341,94.242,156.264,85.333,148.209,85.333z"/>
			<path d="M473.609,0H38.391C17.22,0,0,17.22,0,38.383v285.884h512V38.383C512,17.22,494.78,0,473.609,0z M221.867,179.2     c0,14.114-11.486,25.6-25.6,25.6h-56.576l-57.335,49.143C80.768,255.3,78.788,256,76.8,256c-1.434,0-2.884-0.358-4.19-1.101     c-3.132-1.766-4.821-5.299-4.224-8.832l6.869-41.267H59.733c-14.114,0-25.6-11.486-25.6-25.6V59.733     c0-14.114,11.486-25.6,25.6-25.6h136.533c14.114,0,25.6,11.486,25.6,25.6V179.2z M477.867,230.4c0,14.114-11.486,25.6-25.6,25.6     h-15.522l6.869,41.267c0.597,3.533-1.092,7.066-4.224,8.832c-1.306,0.742-2.756,1.101-4.19,1.101c-1.988,0-3.968-0.7-5.555-2.057     L372.309,256h-56.576c-14.114,0-25.6-11.486-25.6-25.6v-68.267c0-14.114,11.486-25.6,25.6-25.6h136.533     c14.114,0,25.6,11.486,25.6,25.6V230.4z"/>
			<path d="M0,371.217C0,392.38,17.22,409.6,38.391,409.6h152.363c1.212,14.95-5.282,29.705-17.263,38.17l-15.351,10.82     c-1.263,0.879-2.185,2.031-2.935,3.285c-10.735,3.038-18.671,12.826-18.671,24.525c0,14.114,11.486,25.6,25.6,25.6h187.733     c14.114,0,25.6-11.486,25.6-25.6c0-11.699-7.927-21.478-18.662-24.525c-0.742-1.237-1.647-2.381-2.884-3.251l-15.386-10.837     c-12.023-8.474-18.517-23.262-17.289-38.187h152.363c21.171,0,38.391-17.22,38.391-38.383v-29.884H0V371.217z M256,358.4     c4.71,0,8.533,3.814,8.533,8.533s-3.823,8.533-8.533,8.533s-8.533-3.814-8.533-8.533S251.29,358.4,256,358.4z M304.145,409.6     c-1.143,19.874,7.518,39.407,23.27,51.2H184.585c15.753-11.793,24.414-31.326,23.279-51.2H304.145z"/>
		</g>
	</g>
</g>
<g>
</g>
<g>
</g>
<g>
</g>
<g>
</g>
<g>
</g>
<g>
</g>
<g>
</g>
<g>
</g>
<g>
</g>
<g>
</g>
<g>
</g>
<g>
</g>
<g>
</g>
<g>
</g>
<g>
</g>
</svg>
