<?xml version="1.0" encoding="iso-8859-1"?>
<!-- Generator: Adobe Illustrator 19.0.0, SVG Export Plug-In . SVG Version: 6.00 Build 0)  -->
<svg xmlns="http://www.w3.org/2000/svg" xmlns:xlink="http://www.w3.org/1999/xlink" version="1.1" id="Layer_1" x="0px" y="0px" viewBox="0 0 512 512" style="enable-background:new 0 0 512 512;" xml:space="preserve">
<g>
	<g>
		<g>
			<path d="M408.701,196.267c-4.07,0-6.963,3.746-8.209,6.963c-1.28,3.285-4.437,5.444-7.962,5.444     c-3.516,0-6.673-2.159-7.953-5.444c-1.246-3.217-4.147-6.963-8.209-6.963c-5.419,0-8.866,6.315-9.353,12.262     c-0.06,0.529-0.222,2.15,0.418,5.094c1.05,4.864,3.49,9.284,7.057,12.8l18.039,17.647l18.065-17.673     c3.55-3.49,5.99-7.91,7.049-12.783c0.631-2.935,0.469-4.557,0.469-4.574C417.567,202.581,414.119,196.267,408.701,196.267z"/>
			<path d="M187.733,162.133H68.267c-4.702,0-8.533,3.823-8.533,8.533v102.4c0,4.71,3.831,8.533,8.533,8.533h119.467     c4.702,0,8.533-3.823,8.533-8.533v-102.4C196.267,165.956,192.435,162.133,187.733,162.133z M169.788,217.242     c-1.766,8.107-5.837,15.488-11.767,21.333l-24.055,23.526c-1.655,1.621-3.814,2.432-5.965,2.432c-2.15,0-4.309-0.811-5.965-2.432     l-24.03-23.501c-5.956-5.871-10.027-13.252-11.784-21.35c-1.314-6.076-0.828-9.882-0.649-10.897     c1.22-15.403,12.314-27.153,26.257-27.153c5.982,0,11.639,2.295,16.171,6.289c4.531-3.994,10.189-6.289,16.171-6.289     c13.943,0,25.037,11.75,26.359,27.93C170.607,207.377,171.093,211.191,169.788,217.242z"/>
			<path d="M144.167,196.267c-4.07,0-6.963,3.746-8.209,6.963c-1.28,3.285-4.437,5.444-7.962,5.444     c-3.516,0-6.673-2.159-7.953-5.444c-1.246-3.217-4.147-6.963-8.209-6.963c-5.419,0-8.866,6.315-9.353,12.262     c-0.06,0.529-0.222,2.15,0.418,5.094c1.05,4.864,3.49,9.284,7.057,12.8l18.039,17.647l18.065-17.673     c3.55-3.49,5.99-7.91,7.049-12.783c0.631-2.935,0.469-4.557,0.469-4.574C153.033,202.581,149.586,196.267,144.167,196.267z"/>
			<path d="M473.609,0H38.391C17.22,0,0,17.22,0,38.383v285.884h512V38.383C512,17.22,494.78,0,473.609,0z M213.333,273.067     c0,14.114-11.486,25.6-25.6,25.6H68.267c-14.114,0-25.6-11.486-25.6-25.6v-102.4c0-14.114,11.486-25.6,25.6-25.6h119.467     c14.114,0,25.6,11.486,25.6,25.6V273.067z M469.333,273.067c0,14.114-11.486,25.6-25.6,25.6h-102.4     c-14.114,0-25.6-11.486-25.6-25.6v-204.8c0-14.114,11.486-25.6,25.6-25.6h102.4c14.114,0,25.6,11.486,25.6,25.6V273.067z"/>
			<path d="M443.733,59.733h-102.4c-4.702,0-8.533,3.823-8.533,8.533v204.8c0,4.71,3.831,8.533,8.533,8.533h102.4     c4.702,0,8.533-3.823,8.533-8.533v-204.8C452.267,63.556,448.435,59.733,443.733,59.733z M358.4,76.8h34.133     c4.71,0,8.533,3.814,8.533,8.533s-3.823,8.533-8.533,8.533H358.4c-4.71,0-8.533-3.814-8.533-8.533S353.69,76.8,358.4,76.8z      M358.4,110.933h68.267c4.71,0,8.533,3.814,8.533,8.533S431.377,128,426.667,128H358.4c-4.71,0-8.533-3.814-8.533-8.533     S353.69,110.933,358.4,110.933z M358.4,145.067h34.133c4.71,0,8.533,3.814,8.533,8.533c0,4.719-3.823,8.533-8.533,8.533H358.4     c-4.71,0-8.533-3.814-8.533-8.533C349.867,148.881,353.69,145.067,358.4,145.067z M434.321,217.242     c-1.766,8.107-5.837,15.488-11.767,21.333l-24.055,23.526c-1.655,1.621-3.814,2.432-5.965,2.432c-2.15,0-4.309-0.811-5.965-2.432     l-24.03-23.501c-5.956-5.871-10.027-13.252-11.785-21.35c-1.314-6.076-0.828-9.882-0.649-10.897     c1.22-15.403,12.314-27.153,26.257-27.153c5.982,0,11.639,2.295,16.171,6.289c4.531-3.994,10.189-6.289,16.171-6.289     c13.943,0,25.037,11.75,26.359,27.93C435.14,207.377,435.627,211.191,434.321,217.242z"/>
			<path d="M0,371.217C0,392.38,17.22,409.6,38.391,409.6h152.363c1.212,14.95-5.282,29.705-17.263,38.17l-15.351,10.82     c-1.263,0.879-2.185,2.031-2.935,3.285c-10.735,3.038-18.671,12.826-18.671,24.525c0,14.114,11.486,25.6,25.6,25.6h187.733     c14.114,0,25.6-11.486,25.6-25.6c0-11.699-7.927-21.478-18.662-24.525c-0.742-1.237-1.647-2.381-2.884-3.251l-15.386-10.837     c-12.023-8.474-18.517-23.262-17.289-38.187h152.363c21.171,0,38.391-17.22,38.391-38.383v-29.884H0V371.217z M256,358.4     c4.71,0,8.533,3.814,8.533,8.533s-3.823,8.533-8.533,8.533s-8.533-3.814-8.533-8.533S251.29,358.4,256,358.4z M304.145,409.6     c-1.143,19.874,7.518,39.407,23.27,51.2H184.585c15.753-11.793,24.414-31.326,23.279-51.2H304.145z"/>
		</g>
	</g>
</g>
<g>
</g>
<g>
</g>
<g>
</g>
<g>
</g>
<g>
</g>
<g>
</g>
<g>
</g>
<g>
</g>
<g>
</g>
<g>
</g>
<g>
</g>
<g>
</g>
<g>
</g>
<g>
</g>
<g>
</g>
</svg>
