<?xml version="1.0" encoding="iso-8859-1"?>
<!-- Generator: Adobe Illustrator 19.0.0, SVG Export Plug-In . SVG Version: 6.00 Build 0)  -->
<svg xmlns="http://www.w3.org/2000/svg" xmlns:xlink="http://www.w3.org/1999/xlink" version="1.1" id="Layer_1" x="0px" y="0px" viewBox="0 0 512 512" style="enable-background:new 0 0 512 512;" xml:space="preserve">
<g>
	<g>
		<g>
			<path d="M401.066,25.6h-42.667c-4.719,0-8.533,3.823-8.533,8.533c0,4.71,3.814,8.533,8.533,8.533h42.667     c4.719,0,8.533-3.823,8.533-8.533C409.599,29.423,405.785,25.6,401.066,25.6z"/>
			<path d="M332.799,25.6h-8.533c-4.719,0-8.533,3.823-8.533,8.533c0,4.71,3.814,8.533,8.533,8.533h8.533     c4.719,0,8.533-3.823,8.533-8.533C341.332,29.423,337.518,25.6,332.799,25.6z"/>
			<path d="M478.191,0H264.858H42.342C23.697,0,8.533,15.164,8.533,33.801V51.2H281.6v8.533v8.533H8.533V76.8     C3.814,76.8,0,80.623,0,85.333v8.533c0,4.71,3.814,8.533,8.533,8.533v8.533c-4.719,0-8.533,3.823-8.533,8.533V128     c0,4.71,3.814,8.533,8.533,8.533v8.533C3.814,145.067,0,148.89,0,153.6v8.533c0,4.71,3.814,8.533,8.533,8.533v256H281.6v8.533     v8.533H175.616c7.168,6.263,11.793,15.36,11.793,25.6c0,18.825-15.309,34.133-34.133,34.133s-34.133-15.309-34.133-34.133     c0-10.24,4.625-19.337,11.793-25.6H8.533V478.2c0,18.637,15.164,33.8,33.809,33.8h222.515h213.333     C496.836,512,512,496.836,512,478.2v-43V59.733V33.801C512,15.164,496.836,0,478.191,0z M119.467,42.667h-8.533     c-4.719,0-8.533-3.823-8.533-8.533c0-4.71,3.814-8.533,8.533-8.533h8.533c4.719,0,8.533,3.823,8.533,8.533     C128,38.844,124.186,42.667,119.467,42.667z M187.733,42.667h-42.667c-4.719,0-8.533-3.823-8.533-8.533     c0-4.71,3.814-8.533,8.533-8.533h42.667c4.719,0,8.533,3.823,8.533,8.533C196.267,38.844,192.452,42.667,187.733,42.667z      M264.533,324.267c0,14.114-11.486,25.6-25.6,25.6h-13.756l13.312,39.97c1.186,3.541-0.077,7.441-3.098,9.617     c-1.493,1.075-3.243,1.613-4.992,1.613c-1.801,0-3.601-0.572-5.12-1.707l-65.988-49.493H68.267c-14.114,0-25.6-11.486-25.6-25.6     V256c0-14.114,11.486-25.6,25.6-25.6h170.667c14.114,0,25.6,11.486,25.6,25.6V324.267z M344.269,494.933h-50.048     c0.597-1.041,1.109-2.133,1.596-3.243c0.068-0.154,0.154-0.299,0.213-0.452c0.751-1.784,1.306-3.652,1.732-5.572     c0.111-0.469,0.205-0.93,0.29-1.408c0.367-1.971,0.614-3.985,0.614-6.059v-34.466h45.602c-7.168,6.263-11.793,15.36-11.793,25.6     C332.476,479.573,337.101,488.67,344.269,494.933z M366.609,486.4c-9.412,0-17.067-7.654-17.067-17.067     c0-9.412,7.654-17.067,17.067-17.067c9.404,0,17.067,7.654,17.067,17.067C383.676,478.746,376.013,486.4,366.609,486.4z      M494.933,478.2c0,9.224-7.509,16.734-16.742,16.734h-89.242c7.168-6.263,11.793-15.36,11.793-25.6     c0-10.24-4.625-19.337-11.793-25.6h105.984V478.2z M494.933,426.667H298.667V213.333h66.722l-6.869,41.259     c-0.597,3.541,1.092,7.074,4.224,8.841c1.306,0.742,2.748,1.101,4.19,1.101c1.988,0,3.968-0.7,5.547-2.057l57.344-49.143h22.443     c14.114,0,25.6-11.486,25.6-25.6v-68.267c0-14.114-11.486-25.6-25.6-25.6h-153.6v-25.6h196.267V426.667z M381.978,199.287     c-1.621-1.92-4.002-3.021-6.511-3.021h-76.8v-85.333h153.6c4.71,0,8.533,3.831,8.533,8.533v68.267     c0,4.702-3.823,8.533-8.533,8.533h-25.6c-2.031,0-4.011,0.725-5.547,2.057l-41.916,35.917l4.676-28.032     C384.299,203.733,383.599,201.199,381.978,199.287z M494.933,51.2H298.667V33.801c0-2.074-0.247-4.087-0.614-6.059     c-0.085-0.478-0.179-0.939-0.29-1.408c-0.427-1.92-0.981-3.789-1.732-5.572c-0.06-0.154-0.145-0.299-0.213-0.452     c-0.486-1.109-0.998-2.202-1.596-3.243h183.97c9.233,0,16.742,7.509,16.742,16.734V51.2z"/>
			<path d="M341.332,145.067h51.2c4.719,0,8.533-3.823,8.533-8.533S397.251,128,392.532,128h-51.2c-4.719,0-8.533,3.823-8.533,8.533     S336.614,145.067,341.332,145.067z"/>
			<path d="M426.666,170.667c0-4.71-3.814-8.533-8.533-8.533h-102.4c-4.719,0-8.533,3.823-8.533,8.533s3.814,8.533,8.533,8.533     h102.4C422.851,179.2,426.666,175.377,426.666,170.667z"/>
			<path d="M238.933,247.467H68.266c-4.71,0-8.533,3.831-8.533,8.533v68.267c0,4.702,3.823,8.533,8.533,8.533h93.867     c1.852,0,3.644,0.597,5.12,1.707l46.413,34.807l-8.422-25.284c-0.879-2.603-0.435-5.461,1.161-7.68     c1.613-2.236,4.19-3.55,6.929-3.55h25.6c4.71,0,8.533-3.831,8.533-8.533V256C247.466,251.298,243.643,247.467,238.933,247.467z      M127.999,264.533h51.2c4.719,0,8.533,3.823,8.533,8.533s-3.814,8.533-8.533,8.533h-51.2c-4.719,0-8.533-3.823-8.533-8.533     S123.28,264.533,127.999,264.533z M204.799,315.733h-102.4c-4.719,0-8.533-3.823-8.533-8.533s3.814-8.533,8.533-8.533h102.4     c4.719,0,8.533,3.823,8.533,8.533S209.518,315.733,204.799,315.733z"/>
			<path d="M170.341,469.333c0-9.412-7.654-17.067-17.067-17.067c-9.412,0-17.067,7.654-17.067,17.067     c0,9.412,7.654,17.067,17.067,17.067C162.686,486.4,170.341,478.746,170.341,469.333z"/>
		</g>
	</g>
</g>
<g>
</g>
<g>
</g>
<g>
</g>
<g>
</g>
<g>
</g>
<g>
</g>
<g>
</g>
<g>
</g>
<g>
</g>
<g>
</g>
<g>
</g>
<g>
</g>
<g>
</g>
<g>
</g>
<g>
</g>
</svg>
