<?xml version="1.0" encoding="iso-8859-1"?>
<!-- Generator: Adobe Illustrator 19.0.0, SVG Export Plug-In . SVG Version: 6.00 Build 0)  -->
<svg xmlns="http://www.w3.org/2000/svg" xmlns:xlink="http://www.w3.org/1999/xlink" version="1.1" id="Layer_1" x="0px" y="0px" viewBox="0 0 512 512" style="enable-background:new 0 0 512 512;" xml:space="preserve">
<g>
	<g>
		<g>
			<path d="M396.799,25.6h-42.667c-4.719,0-8.533,3.823-8.533,8.533c0,4.71,3.814,8.533,8.533,8.533h42.667     c4.719,0,8.533-3.823,8.533-8.533C405.332,29.423,401.518,25.6,396.799,25.6z"/>
			<path d="M328.533,25.6h-8.533c-4.719,0-8.533,3.823-8.533,8.533c0,4.71,3.814,8.533,8.533,8.533h8.533     c4.719,0,8.533-3.823,8.533-8.533C337.066,29.423,333.251,25.6,328.533,25.6z"/>
			<path d="M473.924,0H260.591H38.076C19.43,0,4.267,15.164,4.267,33.801V51.2h273.067v8.533v8.533H4.267v358.4h273.067v8.533v8.533     H171.349c7.168,6.263,11.793,15.36,11.793,25.6c0,18.825-15.309,34.133-34.133,34.133s-34.133-15.309-34.133-34.133     c0-10.24,4.625-19.337,11.793-25.6H4.267V478.2c0,18.637,15.164,33.8,33.809,33.8h222.515h213.333     c18.645,0,33.809-15.164,33.809-33.8v-43V59.733V33.801C507.733,15.164,492.57,0,473.924,0z M115.2,42.667h-8.533     c-4.719,0-8.533-3.823-8.533-8.533c0-4.71,3.814-8.533,8.533-8.533h8.533c4.719,0,8.533,3.823,8.533,8.533     C123.733,38.844,119.919,42.667,115.2,42.667z M183.467,42.667H140.8c-4.719,0-8.533-3.823-8.533-8.533     c0-4.71,3.814-8.533,8.533-8.533h42.667c4.719,0,8.533,3.823,8.533,8.533C192,38.844,188.186,42.667,183.467,42.667z      M240.538,386.338c2.739,2.603,3.447,6.682,1.741,10.044c-1.468,2.91-4.437,4.685-7.612,4.685c-0.503,0-0.998-0.043-1.51-0.137     c-1.229-0.222-28.843-5.248-49.323-15.761c-11.213,3.977-23.057,5.982-35.294,5.982c-51.328,0-93.073-36.053-93.073-80.375     c0-44.322,41.745-80.375,93.073-80.375c52.19,0,94.66,36.258,94.66,80.819c0,13.909-5.001,27.529-15.258,41.566     C229.538,365.466,234.138,380.271,240.538,386.338z M340.002,494.933h-50.048c0.606-1.041,1.109-2.133,1.596-3.243     c0.068-0.154,0.154-0.299,0.213-0.452c0.751-1.784,1.306-3.652,1.741-5.572c0.102-0.469,0.196-0.93,0.282-1.408     c0.367-1.971,0.614-3.985,0.614-6.059v-34.466h45.602c-7.168,6.263-11.793,15.36-11.793,25.6     C328.209,479.573,332.834,488.67,340.002,494.933z M362.342,486.4c-9.412,0-17.067-7.654-17.067-17.067     c0-9.412,7.654-17.067,17.067-17.067c9.404,0,17.067,7.654,17.067,17.067C379.409,478.746,371.746,486.4,362.342,486.4z      M490.667,478.2c0,9.224-7.509,16.734-16.742,16.734h-89.242c7.168-6.263,11.793-15.36,11.793-25.6     c0-10.24-4.625-19.337-11.793-25.6h105.984V478.2z M490.667,426.667H294.4V260.83c10.556-2.748,23.083-6.699,33.775-12.186     c11.196,3.968,23.049,5.973,35.285,5.973c51.319,0,93.073-36.053,93.073-80.375S414.78,93.867,363.46,93.867     c-26.308,0-51.311,9.813-69.06,26.095V68.267h196.267V426.667z M357.146,222.046c-0.196-2.876-1.843-5.478-4.369-6.886     c-3.669-2.048-8.235-1.084-10.795,2.099c-2.33,2.022-11.255,8.926-19.038,14.797c-8.55,4.838-19.507,8.567-28.544,11.127v-96.99     c13.406-21.487,40.243-35.26,69.06-35.26c41.907,0,76.006,28.399,76.006,63.309c0,34.91-34.099,63.309-76.006,63.309     c-5.905,0-11.682-0.58-17.331-1.681C357.453,227.115,357.436,226.142,357.146,222.046z M490.667,51.2H294.4V33.801     c0-2.074-0.247-4.087-0.614-6.059c-0.085-0.478-0.179-0.939-0.282-1.408c-0.435-1.92-0.99-3.789-1.741-5.572     c-0.06-0.154-0.145-0.299-0.213-0.452c-0.486-1.109-0.99-2.202-1.596-3.243h183.97c9.233,0,16.742,7.509,16.742,16.734V51.2z"/>
			<path d="M337.066,153.6h51.2c4.719,0,8.533-3.823,8.533-8.533c0-4.71-3.814-8.533-8.533-8.533h-51.2     c-4.719,0-8.533,3.823-8.533,8.533C328.533,149.777,332.347,153.6,337.066,153.6z"/>
			<path d="M413.866,179.2c0-4.71-3.814-8.533-8.533-8.533h-85.333c-4.719,0-8.533,3.823-8.533,8.533s3.814,8.533,8.533,8.533     h85.333C410.051,187.733,413.866,183.91,413.866,179.2z"/>
			<path d="M166.074,469.333c0-9.412-7.654-17.067-17.067-17.067c-9.412,0-17.067,7.654-17.067,17.067     c0,9.412,7.654,17.067,17.067,17.067C158.42,486.4,166.074,478.746,166.074,469.333z"/>
			<path d="M226.132,311.219c0-34.56-35.533-63.753-77.594-63.753c-41.907,0-76.006,28.399-76.006,63.309     c0,34.91,34.099,63.309,76.006,63.309c5.914,0,11.691-0.572,17.323-1.681c-11.315-8.755-11.298-9.728-11.017-13.824     c0.205-2.876,1.852-5.478,4.378-6.886c3.652-2.057,8.235-1.092,10.795,2.099c2.321,2.022,11.247,8.917,19.021,14.788     c8.38,4.736,18.97,8.405,28.006,10.974c-3.627-9.463-5.692-19.951-6.443-28.467c-0.196-2.142,0.435-4.284,1.766-5.99     C221.635,333.184,226.132,322.108,226.132,311.219z M123.733,273.067h51.2c4.719,0,8.533,3.823,8.533,8.533     s-3.814,8.533-8.533,8.533h-51.2c-4.719,0-8.533-3.823-8.533-8.533S119.014,273.067,123.733,273.067z M191.999,324.267h-85.333     c-4.719,0-8.533-3.823-8.533-8.533s3.814-8.533,8.533-8.533h85.333c4.719,0,8.533,3.823,8.533,8.533     S196.718,324.267,191.999,324.267z"/>
		</g>
	</g>
</g>
<g>
</g>
<g>
</g>
<g>
</g>
<g>
</g>
<g>
</g>
<g>
</g>
<g>
</g>
<g>
</g>
<g>
</g>
<g>
</g>
<g>
</g>
<g>
</g>
<g>
</g>
<g>
</g>
<g>
</g>
</svg>
