<?xml version="1.0" encoding="iso-8859-1"?>
<!-- Generator: Adobe Illustrator 19.0.0, SVG Export Plug-In . SVG Version: 6.00 Build 0)  -->
<svg xmlns="http://www.w3.org/2000/svg" xmlns:xlink="http://www.w3.org/1999/xlink" version="1.1" id="Layer_1" x="0px" y="0px" viewBox="0 0 512 512" style="enable-background:new 0 0 512 512;" xml:space="preserve">
<g>
	<g>
		<g>
			<path d="M396.799,25.6h-42.667c-4.719,0-8.533,3.823-8.533,8.533c0,4.71,3.814,8.533,8.533,8.533h42.667     c4.719,0,8.533-3.823,8.533-8.533C405.332,29.423,401.518,25.6,396.799,25.6z"/>
			<path d="M328.533,25.6h-8.533c-4.719,0-8.533,3.823-8.533,8.533c0,4.71,3.814,8.533,8.533,8.533h8.533     c4.719,0,8.533-3.823,8.533-8.533C337.066,29.423,333.251,25.6,328.533,25.6z"/>
			<path d="M473.924,0H260.591H38.076C19.43,0,4.267,15.164,4.267,33.801V51.2h273.067v8.533v8.533H4.267v358.4h273.067v8.533v8.533     H171.349c7.168,6.263,11.793,15.36,11.793,25.6c0,18.825-15.309,34.133-34.133,34.133s-34.133-15.309-34.133-34.133     c0-10.24,4.625-19.337,11.793-25.6H4.267V478.2c0,18.637,15.164,33.8,33.809,33.8h222.515h213.333     c18.645,0,33.809-15.164,33.809-33.8v-43V324.267V256v-34.133V153.6V59.733V33.801C507.733,15.164,492.57,0,473.924,0z      M115.2,42.667h-8.533c-4.719,0-8.533-3.823-8.533-8.533c0-4.71,3.814-8.533,8.533-8.533h8.533c4.719,0,8.533,3.823,8.533,8.533     C123.733,38.844,119.919,42.667,115.2,42.667z M183.467,42.667H140.8c-4.719,0-8.533-3.823-8.533-8.533     c0-4.71,3.814-8.533,8.533-8.533h42.667c4.719,0,8.533,3.823,8.533,8.533C192,38.844,188.186,42.667,183.467,42.667z      M115.422,163.123c1.92-20.045,17.024-35.123,35.26-35.123c9.156,0,17.801,3.866,24.252,10.436     C181.385,131.874,190.02,128,199.185,128c18.227,0,33.34,15.087,35.26,35.123c0.239,1.732,0.623,6.443-1.05,13.466     c-2.5,10.607-8.286,20.233-16.708,27.836l-36.053,32.333c-1.63,1.451-3.669,2.176-5.7,2.176c-2.039,0-4.079-0.725-5.7-2.176     l-36.045-32.316c-8.431-7.62-14.216-17.246-16.725-27.861C114.799,169.566,115.183,164.855,115.422,163.123z M259.362,404.881     c-1.459,2.927-4.437,4.719-7.629,4.719c-0.495,0-0.99-0.043-1.485-0.128c-1.118-0.196-25.813-4.651-44.322-13.935     c-10.078,3.482-20.727,5.248-31.71,5.248c-46.66,0-84.617-32.469-84.617-72.397c0-39.91,37.956-72.388,84.617-72.388     c47.445,0,86.05,32.649,86.05,72.781c0,12.484-4.48,24.687-13.688,37.222c1.459,10.82,5.53,23.723,10.991,28.834     C260.326,397.414,261.06,401.502,259.362,404.881z M340.002,494.933h-50.048c0.606-1.041,1.109-2.133,1.596-3.243     c0.068-0.154,0.154-0.299,0.213-0.452c0.751-1.784,1.306-3.652,1.741-5.572c0.102-0.469,0.196-0.93,0.282-1.408     c0.367-1.971,0.614-3.985,0.614-6.059v-34.466h45.602c-7.168,6.263-11.793,15.36-11.793,25.6     C328.209,479.573,332.834,488.67,340.002,494.933z M362.342,486.4c-9.412,0-17.067-7.654-17.067-17.067     c0-9.412,7.654-17.067,17.067-17.067c9.404,0,17.067,7.654,17.067,17.067C379.409,478.746,371.746,486.4,362.342,486.4z      M490.667,478.2c0,9.224-7.509,16.734-16.742,16.734h-89.242c7.168-6.263,11.793-15.36,11.793-25.6     c0-10.24-4.625-19.337-11.793-25.6h105.984V478.2z M490.667,51.2H294.4V33.801c0-2.074-0.247-4.087-0.614-6.059     c-0.085-0.478-0.179-0.939-0.282-1.408c-0.435-1.92-0.99-3.789-1.741-5.572c-0.06-0.154-0.145-0.299-0.213-0.452     c-0.486-1.109-0.99-2.202-1.596-3.243h183.97c9.233,0,16.742,7.509,16.742,16.734V51.2z"/>
			<path d="M166.074,469.333c0-9.412-7.654-17.067-17.067-17.067c-9.412,0-17.067,7.654-17.067,17.067     c0,9.412,7.654,17.067,17.067,17.067C158.42,486.4,166.074,478.746,166.074,469.333z"/>
			<path d="M133.066,172.65c1.715,7.228,5.709,13.833,11.546,19.106l30.319,27.187l30.345-27.204     c5.82-5.248,9.805-11.861,11.529-19.089c1.067-4.54,0.742-7.066,0.742-7.091c-0.956-10.505-7.509-20.489-18.364-20.489     c-6.912,0-13.338,4.651-16.393,11.861c-1.331,3.149-4.429,5.205-7.859,5.205c-3.422,0-6.519-2.057-7.859-5.205     c-3.046-7.211-9.481-11.861-16.393-11.861c-10.846,0-17.408,9.984-18.278,19.857c-0.026,0.29-0.068,0.58-0.128,0.862h0.008     C132.29,165.789,132.034,168.281,133.066,172.65z"/>
			<path d="M243.199,328.781c0-30.199-31.59-55.714-68.984-55.714c-37.248,0-67.55,24.815-67.55,55.322     c0,30.515,30.302,55.33,67.55,55.33c4.386,0,8.678-0.41,12.894-1.075c-3.217-2.833-3.789-4.574-3.652-7.526     c0.137-2.944,1.783-5.632,4.343-7.083c3.635-2.048,8.158-1.143,10.743,1.954c1.886,1.51,7.569,5.547,12.45,8.909     c6.98,3.908,15.71,7.006,23.441,9.25c-2.901-8.047-4.574-16.7-5.214-23.834c-0.188-2.167,0.452-4.326,1.8-6.033     C239.214,347.878,243.199,338.227,243.199,328.781z M149.332,298.667h51.2c4.719,0,8.533,3.823,8.533,8.533     s-3.814,8.533-8.533,8.533h-51.2c-4.719,0-8.533-3.823-8.533-8.533S144.614,298.667,149.332,298.667z M217.599,349.867h-85.333     c-4.719,0-8.533-3.823-8.533-8.533s3.814-8.533,8.533-8.533h85.333c4.719,0,8.533,3.823,8.533,8.533     S222.318,349.867,217.599,349.867z"/>
		</g>
	</g>
</g>
<g>
</g>
<g>
</g>
<g>
</g>
<g>
</g>
<g>
</g>
<g>
</g>
<g>
</g>
<g>
</g>
<g>
</g>
<g>
</g>
<g>
</g>
<g>
</g>
<g>
</g>
<g>
</g>
<g>
</g>
</svg>
