<?xml version="1.0" encoding="iso-8859-1"?>
<!-- Generator: Adobe Illustrator 19.0.0, SVG Export Plug-In . SVG Version: 6.00 Build 0)  -->
<svg xmlns="http://www.w3.org/2000/svg" xmlns:xlink="http://www.w3.org/1999/xlink" version="1.1" id="Layer_1" x="0px" y="0px" viewBox="0 0 512 512" style="enable-background:new 0 0 512 512;" xml:space="preserve">
<g>
	<g>
		<g>
			<path d="M396.799,25.6h-42.667c-4.719,0-8.533,3.823-8.533,8.533c0,4.71,3.814,8.533,8.533,8.533h42.667     c4.719,0,8.533-3.823,8.533-8.533C405.332,29.423,401.518,25.6,396.799,25.6z"/>
			<path d="M328.533,25.6h-8.533c-4.719,0-8.533,3.823-8.533,8.533c0,4.71,3.814,8.533,8.533,8.533h8.533     c4.719,0,8.533-3.823,8.533-8.533C337.066,29.423,333.251,25.6,328.533,25.6z"/>
			<path d="M473.924,0H260.591H38.076C19.43,0,4.267,15.164,4.267,33.801V51.2h273.067v8.533v8.533H4.267v358.4h273.067v8.533v8.533     H171.349c7.168,6.263,11.793,15.36,11.793,25.6c0,18.825-15.309,34.133-34.133,34.133s-34.133-15.309-34.133-34.133     c0-10.24,4.625-19.337,11.793-25.6H4.267V478.2c0,18.637,15.164,33.8,33.809,33.8h222.515h213.333     c18.645,0,33.809-15.164,33.809-33.8v-43V59.733V33.801C507.733,15.164,492.57,0,473.924,0z M115.2,42.667h-8.533     c-4.719,0-8.533-3.823-8.533-8.533c0-4.71,3.814-8.533,8.533-8.533h8.533c4.719,0,8.533,3.823,8.533,8.533     C123.733,38.844,119.919,42.667,115.2,42.667z M183.467,42.667H140.8c-4.719,0-8.533-3.823-8.533-8.533     c0-4.71,3.814-8.533,8.533-8.533h42.667c4.719,0,8.533,3.823,8.533,8.533C192,38.844,188.186,42.667,183.467,42.667z      M38.4,247.467c0-23.927,29.986-42.667,68.267-42.667c38.281,0,68.267,18.739,68.267,42.667s-29.986,42.667-68.267,42.667     C68.386,290.133,38.4,271.394,38.4,247.467z M192,409.6c-38.281,0-68.267-18.739-68.267-42.667S153.72,324.267,192,324.267     s68.267,18.739,68.267,42.667S230.281,409.6,192,409.6z M192,170.667c-38.281,0-68.267-18.739-68.267-42.667     S153.72,85.333,192,85.333s68.267,18.739,68.267,42.667S230.281,170.667,192,170.667z M340.002,494.933h-50.048     c0.606-1.041,1.109-2.133,1.596-3.243c0.068-0.154,0.154-0.299,0.213-0.452c0.751-1.784,1.306-3.652,1.741-5.572     c0.102-0.469,0.196-0.93,0.282-1.408c0.367-1.971,0.614-3.985,0.614-6.059v-34.466h45.602c-7.168,6.263-11.793,15.36-11.793,25.6     C328.209,479.573,332.834,488.67,340.002,494.933z M362.342,486.4c-9.412,0-17.067-7.654-17.067-17.067     c0-9.412,7.654-17.067,17.067-17.067c9.404,0,17.067,7.654,17.067,17.067C379.409,478.746,371.746,486.4,362.342,486.4z      M490.667,478.2c0,9.224-7.509,16.734-16.742,16.734h-89.242c7.168-6.263,11.793-15.36,11.793-25.6     c0-10.24-4.625-19.337-11.793-25.6h105.984V478.2z M490.667,426.667H294.4v-20.19c8.081,1.997,16.717,3.123,25.6,3.123     c38.281,0,68.267-18.739,68.267-42.667S358.281,324.267,320,324.267c-8.875,0-17.51,1.126-25.6,3.123V167.543     c8.081,1.997,16.717,3.123,25.6,3.123c38.281,0,68.267-18.739,68.267-42.667S358.281,85.333,320,85.333     c-8.875,0-17.51,1.126-25.6,3.123v-20.19h196.267V426.667z M294.4,388.881v-43.895c7.817-2.398,16.555-3.652,25.6-3.652     c30.174,0,51.2,13.491,51.2,25.6s-21.026,25.6-51.2,25.6C310.955,392.533,302.217,391.279,294.4,388.881z M294.4,149.948v-43.896     c7.817-2.398,16.555-3.652,25.6-3.652c30.174,0,51.2,13.491,51.2,25.6c0,12.109-21.026,25.6-51.2,25.6     C310.955,153.6,302.217,152.346,294.4,149.948z M490.667,51.2H294.4V33.801c0-2.074-0.247-4.087-0.614-6.059     c-0.085-0.478-0.179-0.939-0.282-1.408c-0.435-1.92-0.99-3.789-1.741-5.572c-0.06-0.154-0.145-0.299-0.213-0.452     c-0.486-1.109-0.99-2.202-1.596-3.243h183.97c9.233,0,16.742,7.509,16.742,16.734V51.2z"/>
			<path d="M337.066,247.467c0,23.927,29.986,42.667,68.267,42.667c38.281,0,68.267-18.739,68.267-42.667     S443.613,204.8,405.332,204.8C367.052,204.8,337.066,223.539,337.066,247.467z M405.332,221.867c30.174,0,51.2,13.491,51.2,25.6     s-21.026,25.6-51.2,25.6c-30.174,0-51.2-13.491-51.2-25.6S375.159,221.867,405.332,221.867z"/>
			<path d="M337.066,128c0-4.71-3.814-8.533-8.533-8.533h-17.067c-4.719,0-8.533,3.823-8.533,8.533s3.814,8.533,8.533,8.533h17.067     C333.251,136.533,337.066,132.71,337.066,128z"/>
			<path d="M396.799,256h17.067c4.719,0,8.533-3.823,8.533-8.533s-3.814-8.533-8.533-8.533h-17.067     c-4.719,0-8.533,3.823-8.533,8.533S392.08,256,396.799,256z"/>
			<path d="M337.066,366.933c0-4.71-3.814-8.533-8.533-8.533h-17.067c-4.719,0-8.533,3.823-8.533,8.533s3.814,8.533,8.533,8.533     h17.067C333.251,375.467,337.066,371.644,337.066,366.933z"/>
			<path d="M166.074,469.333c0-9.412-7.654-17.067-17.067-17.067c-9.412,0-17.067,7.654-17.067,17.067     c0,9.412,7.654,17.067,17.067,17.067C158.42,486.4,166.074,478.746,166.074,469.333z"/>
			<path d="M106.666,221.867c-30.174,0-51.2,13.491-51.2,25.6s21.026,25.6,51.2,25.6c30.174,0,51.2-13.491,51.2-25.6     S136.84,221.867,106.666,221.867z M115.199,256H98.132c-4.719,0-8.533-3.823-8.533-8.533s3.814-8.533,8.533-8.533h17.067     c4.719,0,8.533,3.823,8.533,8.533S119.918,256,115.199,256z"/>
			<path d="M191.999,341.333c-30.174,0-51.2,13.491-51.2,25.6s21.026,25.6,51.2,25.6s51.2-13.491,51.2-25.6     S222.173,341.333,191.999,341.333z M200.533,375.467h-17.067c-4.719,0-8.533-3.823-8.533-8.533s3.814-8.533,8.533-8.533h17.067     c4.719,0,8.533,3.823,8.533,8.533S205.251,375.467,200.533,375.467z"/>
			<path d="M191.999,102.4c-30.174,0-51.2,13.491-51.2,25.6c0,12.109,21.026,25.6,51.2,25.6s51.2-13.491,51.2-25.6     C243.199,115.891,222.173,102.4,191.999,102.4z M200.533,136.533h-17.067c-4.719,0-8.533-3.823-8.533-8.533     s3.814-8.533,8.533-8.533h17.067c4.719,0,8.533,3.823,8.533,8.533S205.251,136.533,200.533,136.533z"/>
		</g>
	</g>
</g>
<g>
</g>
<g>
</g>
<g>
</g>
<g>
</g>
<g>
</g>
<g>
</g>
<g>
</g>
<g>
</g>
<g>
</g>
<g>
</g>
<g>
</g>
<g>
</g>
<g>
</g>
<g>
</g>
<g>
</g>
</svg>
