<?xml version="1.0" encoding="iso-8859-1"?>
<!-- Generator: Adobe Illustrator 19.0.0, SVG Export Plug-In . SVG Version: 6.00 Build 0)  -->
<svg xmlns="http://www.w3.org/2000/svg" xmlns:xlink="http://www.w3.org/1999/xlink" version="1.1" id="Layer_1" x="0px" y="0px" viewBox="0 0 512 512" style="enable-background:new 0 0 512 512;" xml:space="preserve">
<g>
	<g>
		<g>
			<path d="M396.799,25.6h-42.667c-4.71,0-8.533,3.823-8.533,8.533c0,4.71,3.823,8.533,8.533,8.533h42.667     c4.719,0,8.533-3.823,8.533-8.533C405.332,29.423,401.518,25.6,396.799,25.6z"/>
			<path d="M328.533,25.6h-8.533c-4.71,0-8.533,3.823-8.533,8.533c0,4.71,3.823,8.533,8.533,8.533h8.533     c4.71,0,8.533-3.823,8.533-8.533C337.066,29.423,333.243,25.6,328.533,25.6z"/>
			<path d="M473.924,0H260.591H38.076C19.43,0,4.267,15.164,4.267,33.801V51.2h273.067v8.533v8.533H4.267v358.4h273.067v8.533v8.533     H171.349c7.168,6.263,11.793,15.36,11.793,25.6c0,18.825-15.309,34.133-34.133,34.133s-34.133-15.309-34.133-34.133     c0-10.24,4.625-19.337,11.793-25.6H4.267V478.2c0,18.637,15.164,33.8,33.809,33.8h222.515h213.333     c18.645,0,33.809-15.164,33.809-33.8v-43V247.467V179.2V59.733V33.801C507.733,15.164,492.57,0,473.924,0z M115.2,42.667h-8.533     c-4.719,0-8.533-3.823-8.533-8.533c0-4.71,3.814-8.533,8.533-8.533h8.533c4.719,0,8.533,3.823,8.533,8.533     C123.733,38.844,119.919,42.667,115.2,42.667z M183.467,42.667H140.8c-4.719,0-8.533-3.823-8.533-8.533     c0-4.71,3.814-8.533,8.533-8.533h42.667c4.719,0,8.533,3.823,8.533,8.533C192,38.844,188.186,42.667,183.467,42.667z      M260.267,384c0,14.114-11.486,25.6-25.6,25.6h-85.333c-14.114,0-25.6-11.486-25.6-25.6V230.4c0-14.114,11.486-25.6,25.6-25.6     h85.333c14.114,0,25.6,11.486,25.6,25.6V384z M340.002,494.933h-50.048c0.597-1.041,1.109-2.133,1.596-3.243     c0.068-0.154,0.154-0.299,0.222-0.452c0.742-1.784,1.297-3.652,1.732-5.572c0.111-0.469,0.196-0.93,0.282-1.408     c0.367-1.971,0.614-3.985,0.614-6.059v-34.466h45.602c-7.168,6.263-11.802,15.36-11.802,25.6     C328.201,479.573,332.834,488.67,340.002,494.933z M362.334,486.4c-9.412,0-17.067-7.654-17.067-17.067     c0-9.412,7.654-17.067,17.067-17.067s17.067,7.654,17.067,17.067C379.401,478.746,371.746,486.4,362.334,486.4z M490.667,478.2     c0,9.224-7.509,16.734-16.742,16.734h-89.25c7.168-6.263,11.793-15.36,11.793-25.6c0-10.24-4.625-19.337-11.793-25.6h105.992     V478.2z M490.667,170.667H294.4V128h30.601l-11.034,11.034c-3.337,3.336-3.337,8.73,0,12.066c1.664,1.664,3.849,2.5,6.033,2.5     s4.369-0.836,6.033-2.5l25.591-25.591c0.794-0.794,1.417-1.741,1.852-2.782c0.862-2.082,0.862-4.437,0-6.519     c-0.435-1.041-1.058-1.988-1.852-2.782l-25.591-25.591c-3.337-3.337-8.73-3.337-12.066,0s-3.337,8.73,0,12.066l11.034,11.034     H294.4V68.267h196.267V170.667z M490.667,51.2H294.4V33.801c0-2.074-0.247-4.087-0.614-6.059     c-0.085-0.478-0.171-0.939-0.282-1.408c-0.435-1.92-0.99-3.789-1.732-5.572c-0.068-0.154-0.154-0.299-0.222-0.452     c-0.486-1.109-0.998-2.202-1.596-3.243h183.97c9.233,0,16.742,7.509,16.742,16.734V51.2z"/>
			<path d="M166.074,469.333c0-9.412-7.654-17.067-17.067-17.067c-9.412,0-17.067,7.654-17.067,17.067     c0,9.412,7.654,17.067,17.067,17.067C158.42,486.4,166.074,478.746,166.074,469.333z"/>
			<path d="M234.666,221.867h-85.333c-4.702,0-8.533,3.831-8.533,8.533V384c0,4.702,3.831,8.533,8.533,8.533h85.333     c4.702,0,8.533-3.831,8.533-8.533V230.4C243.199,225.698,239.368,221.867,234.666,221.867z M157.866,247.467h34.133     c4.71,0,8.533,3.823,8.533,8.533s-3.823,8.533-8.533,8.533h-34.133c-4.71,0-8.533-3.823-8.533-8.533     S153.155,247.467,157.866,247.467z M226.132,366.933h-68.267c-4.71,0-8.533-3.823-8.533-8.533s3.823-8.533,8.533-8.533h68.267     c4.71,0,8.533,3.823,8.533,8.533S230.843,366.933,226.132,366.933z M149.332,324.267c0-4.71,3.823-8.533,8.533-8.533h51.2     c4.71,0,8.533,3.823,8.533,8.533s-3.823,8.533-8.533,8.533h-51.2C153.155,332.8,149.332,328.977,149.332,324.267z      M226.132,298.667h-68.267c-4.71,0-8.533-3.823-8.533-8.533s3.823-8.533,8.533-8.533h68.267c4.71,0,8.533,3.823,8.533,8.533     S230.843,298.667,226.132,298.667z"/>
		</g>
	</g>
</g>
<g>
</g>
<g>
</g>
<g>
</g>
<g>
</g>
<g>
</g>
<g>
</g>
<g>
</g>
<g>
</g>
<g>
</g>
<g>
</g>
<g>
</g>
<g>
</g>
<g>
</g>
<g>
</g>
<g>
</g>
</svg>
