<?xml version="1.0" encoding="iso-8859-1"?>
<!-- Generator: Adobe Illustrator 19.0.0, SVG Export Plug-In . SVG Version: 6.00 Build 0)  -->
<svg xmlns="http://www.w3.org/2000/svg" xmlns:xlink="http://www.w3.org/1999/xlink" version="1.1" id="Layer_1" x="0px" y="0px" viewBox="0 0 512 512" style="enable-background:new 0 0 512 512;" xml:space="preserve">
<g>
	<g>
		<g>
			<path d="M396.799,25.6h-42.667c-4.71,0-8.533,3.823-8.533,8.533c0,4.71,3.823,8.533,8.533,8.533h42.667     c4.71,0,8.533-3.823,8.533-8.533C405.332,29.423,401.51,25.6,396.799,25.6z"/>
			<path d="M328.533,25.6h-8.533c-4.71,0-8.533,3.823-8.533,8.533c0,4.71,3.823,8.533,8.533,8.533h8.533     c4.71,0,8.533-3.823,8.533-8.533C337.066,29.423,333.243,25.6,328.533,25.6z"/>
			<path d="M473.924,0H260.591H38.076C19.43,0,4.267,15.164,4.267,33.801V51.2h273.067v8.533v8.533H4.267v358.4h273.067v8.533v8.533     H171.349c7.168,6.263,11.793,15.36,11.793,25.6c0,18.825-15.309,34.133-34.133,34.133s-34.133-15.309-34.133-34.133     c0-10.24,4.625-19.337,11.793-25.6H4.267V478.2c0,18.637,15.164,33.8,33.809,33.8h222.515h213.333     c18.645,0,33.809-15.164,33.809-33.8v-43V59.733V33.801C507.733,15.164,492.57,0,473.924,0z M115.2,42.667h-8.533     c-4.719,0-8.533-3.823-8.533-8.533c0-4.71,3.814-8.533,8.533-8.533h8.533c4.719,0,8.533,3.823,8.533,8.533     C123.733,38.844,119.919,42.667,115.2,42.667z M183.467,42.667H140.8c-4.719,0-8.533-3.823-8.533-8.533     c0-4.71,3.814-8.533,8.533-8.533h42.667c4.719,0,8.533,3.823,8.533,8.533C192,38.844,188.186,42.667,183.467,42.667z      M149.333,145.067h22.067l-11.034-11.034c-3.337-3.337-3.337-8.73,0-12.066c3.336-3.336,8.73-3.336,12.066,0l25.591,25.591     c0.794,0.794,1.417,1.741,1.852,2.782c0.862,2.082,0.862,4.437,0,6.519c-0.435,1.041-1.058,1.988-1.852,2.782l-25.591,25.591     c-1.664,1.664-3.849,2.5-6.033,2.5c-2.185,0-4.369-0.836-6.033-2.5c-3.337-3.337-3.337-8.73,0-12.066l11.034-11.034h-22.067     c-28.237,0-51.2,22.963-51.2,51.2c0,4.71-3.823,8.533-8.533,8.533s-8.533-3.823-8.533-8.533     C81.067,175.693,111.693,145.067,149.333,145.067z M243.2,277.965v30.771v55.808v2.389c0,4.71-3.823,8.533-8.533,8.533H64     c-4.71,0-8.533-3.823-8.533-8.533V325.53v-56.243c0-4.489-0.358-8.892,4.028-11.844C63.898,254.481,71.851,256,76.894,256H98.15     h70.059h57.523c4.378,0,9.728-0.879,13.517,1.545C245.043,261.24,243.2,272,243.2,277.965z M340.002,494.933h-50.048     c0.597-1.041,1.109-2.133,1.596-3.243c0.068-0.154,0.154-0.299,0.222-0.452c0.742-1.784,1.297-3.652,1.732-5.572     c0.111-0.469,0.196-0.93,0.282-1.408c0.367-1.971,0.614-3.985,0.614-6.059v-34.466h45.602c-7.168,6.263-11.802,15.36-11.802,25.6     C328.201,479.573,332.834,488.67,340.002,494.933z M362.334,486.4c-9.412,0-17.067-7.654-17.067-17.067     c0-9.412,7.654-17.067,17.067-17.067s17.067,7.654,17.067,17.067C379.401,478.746,371.746,486.4,362.334,486.4z M490.667,478.2     c0,9.224-7.509,16.734-16.742,16.734h-89.25c7.168-6.263,11.793-15.36,11.793-25.6c0-10.24-4.625-19.337-11.793-25.6h105.992     V478.2z M490.667,426.667H294.4V213.333H448c4.71,0,8.533-3.823,8.533-8.533v-13.338V160.93v-33.527v-22.349     c0-3.191-0.145-6.246-2.611-8.67c-3.857-3.797-12.006-2.517-17.067-2.517h-24.96h-32.64h-34.099h-29.321h-18.313H294.4v-25.6     h196.267V426.667z M357.828,169.165c1.451,0.998,3.149,1.502,4.838,1.502c1.715,0,3.422-0.512,4.89-1.545l71.91-50.338v77.483     H294.4v-70.801L357.828,169.165z M303.386,110.933h117.547l-58.3,40.815L303.386,110.933z M490.667,51.2H294.4V33.801     c0-2.074-0.247-4.087-0.614-6.059c-0.085-0.478-0.171-0.939-0.282-1.408c-0.435-1.92-0.99-3.789-1.732-5.572     c-0.068-0.154-0.154-0.299-0.222-0.452c-0.486-1.109-0.998-2.202-1.596-3.243h183.97c9.233,0,16.742,7.509,16.742,16.734V51.2z"/>
			<path d="M422.399,256c-4.71,0-8.533,3.823-8.533,8.533c0,28.237-22.963,51.2-51.2,51.2h-22.067l11.034-11.034     c3.337-3.337,3.337-8.73,0-12.066c-3.336-3.337-8.73-3.337-12.066,0l-25.6,25.591c-0.785,0.794-1.408,1.741-1.843,2.782     c-0.862,2.082-0.862,4.437,0,6.519c0.435,1.041,1.058,1.988,1.843,2.782l25.6,25.591c1.664,1.664,3.849,2.5,6.033,2.5     c2.185,0,4.369-0.836,6.033-2.5c3.337-3.337,3.337-8.73,0-12.066L340.599,332.8h22.067c37.641,0,68.267-30.626,68.267-68.267     C430.933,259.823,427.11,256,422.399,256z"/>
			<path d="M166.074,469.333c0-9.412-7.654-17.067-17.067-17.067c-9.412,0-17.067,7.654-17.067,17.067     c0,9.412,7.654,17.067,17.067,17.067C158.42,486.4,166.074,478.746,166.074,469.333z"/>
			<polygon points="207.596,273.067 91.073,273.067 149.33,313.847    "/>
			<path d="M149.332,332.8c-1.715,0-3.422-0.512-4.89-1.544l-71.91-50.338V358.4h153.6v-77.483l-71.91,50.338     C152.754,332.288,151.048,332.8,149.332,332.8z"/>
		</g>
	</g>
</g>
<g>
</g>
<g>
</g>
<g>
</g>
<g>
</g>
<g>
</g>
<g>
</g>
<g>
</g>
<g>
</g>
<g>
</g>
<g>
</g>
<g>
</g>
<g>
</g>
<g>
</g>
<g>
</g>
<g>
</g>
</svg>
