<?xml version="1.0" encoding="iso-8859-1"?>
<!-- Generator: Adobe Illustrator 19.0.0, SVG Export Plug-In . SVG Version: 6.00 Build 0)  -->
<svg xmlns="http://www.w3.org/2000/svg" xmlns:xlink="http://www.w3.org/1999/xlink" version="1.1" id="Layer_1" x="0px" y="0px" viewBox="0 0 512 512" style="enable-background:new 0 0 512 512;" xml:space="preserve">
<g>
	<g>
		<g>
			<path d="M354.129,328.781c0-30.199-31.59-55.714-68.975-55.714c-37.257,0-67.558,24.815-67.558,55.322     c0,30.515,30.302,55.33,67.558,55.33c4.531,0,8.969-0.418,13.329-1.135c-8.781-6.827-8.755-7.893-8.516-11.716     c0.179-2.876,1.818-5.487,4.335-6.903c3.644-2.065,8.158-1.143,10.752,1.963c2.142,1.826,10.078,7.885,16.981,13.03     c6.955,3.874,15.633,6.946,23.322,9.182c-2.893-8.038-4.565-16.7-5.205-23.825c-0.188-2.167,0.452-4.326,1.8-6.033     C350.144,347.878,354.129,338.227,354.129,328.781z M260.262,298.667h51.2c4.71,0,8.533,3.823,8.533,8.533     s-3.823,8.533-8.533,8.533h-51.2c-4.71,0-8.533-3.823-8.533-8.533S255.552,298.667,260.262,298.667z M328.529,349.867h-85.333     c-4.71,0-8.533-3.823-8.533-8.533s3.823-8.533,8.533-8.533h85.333c4.71,0,8.533,3.823,8.533,8.533     S333.239,349.867,328.529,349.867z"/>
			<path d="M115.2,68.267V76.8c-4.719,0-8.533,3.823-8.533,8.533v8.533c0,4.71,3.814,8.533,8.533,8.533v8.533     c-4.719,0-8.533,3.823-8.533,8.533V128c0,4.71,3.814,8.533,8.533,8.533v8.533c-4.719,0-8.533,3.823-8.533,8.533v8.533     c0,4.71,3.814,8.533,8.533,8.533v256h290.133v-358.4H115.2z M157.858,238.933c-3.191,0-6.161-1.792-7.629-4.719     c-1.69-3.379-0.956-7.467,1.801-10.044c5.461-5.111,9.523-18.014,10.982-28.834c-9.207-12.535-13.679-24.738-13.679-37.222     c0-40.132,38.596-72.781,86.042-72.781c46.66,0,84.625,32.478,84.625,72.388c0,39.927-37.965,72.397-84.625,72.397     c-10.991,0-21.632-1.766-31.701-5.248c-18.517,9.284-43.213,13.739-44.322,13.935     C158.848,238.891,158.353,238.933,157.858,238.933z M368.495,394.837c2.756,2.577,3.49,6.665,1.801,10.044     c-1.468,2.927-4.437,4.719-7.629,4.719c-0.495,0-0.99-0.043-1.493-0.128c-1.109-0.196-25.805-4.651-44.322-13.935     c-10.069,3.482-20.71,5.248-31.701,5.248c-46.66,0-84.617-32.469-84.617-72.397c0-39.91,37.956-72.388,84.617-72.388     c47.445,0,86.05,32.649,86.05,72.781c0,12.484-4.48,24.687-13.688,37.222C358.972,376.823,363.034,389.726,368.495,394.837z"/>
			<path d="M226.223,193.297c2.517,1.417,4.156,4.028,4.335,6.904c0.239,3.823,0.265,4.89-8.516,11.716     c4.361,0.717,8.798,1.135,13.329,1.135c37.257,0,67.558-24.815,67.558-55.33c0-30.507-30.302-55.322-67.558-55.322     c-37.385,0-68.975,25.515-68.975,55.714c0,9.446,3.985,19.098,12.177,29.5c1.348,1.707,1.988,3.866,1.8,6.033     c-0.64,7.125-2.313,15.787-5.205,23.825c7.689-2.236,16.367-5.308,23.322-9.182c6.904-5.146,14.839-11.204,16.981-13.03     C218.065,192.154,222.579,191.241,226.223,193.297z M209.062,128h51.2c4.71,0,8.533,3.823,8.533,8.533s-3.823,8.533-8.533,8.533     h-51.2c-4.71,0-8.533-3.823-8.533-8.533S204.352,128,209.062,128z M191.996,179.2c-4.71,0-8.533-3.823-8.533-8.533     s3.823-8.533,8.533-8.533h85.333c4.71,0,8.533,3.823,8.533,8.533s-3.823,8.533-8.533,8.533H191.996z"/>
			<path d="M277,469.333c0-9.412-7.654-17.067-17.067-17.067c-9.412,0-17.067,7.654-17.067,17.067     c0,9.412,7.654,17.067,17.067,17.067C269.345,486.4,277,478.746,277,469.333z"/>
			<path d="M294.066,469.333c0,18.825-15.309,34.133-34.133,34.133S225.8,488.158,225.8,469.333c0-10.24,4.625-19.337,11.793-25.6     H115.199V478.2c0,18.637,15.155,33.8,33.801,33.8h222.524c18.645,0,33.809-15.164,33.809-33.8v-34.466H282.273     C289.441,449.997,294.066,459.093,294.066,469.333z"/>
			<path d="M405.329,33.801c0-18.637-15.164-33.801-33.8-33.801H148.996c-18.637,0-33.801,15.164-33.801,33.801V51.2h290.133V33.801     z M226.129,42.667h-8.533c-4.71,0-8.533-3.823-8.533-8.533c0-4.71,3.823-8.533,8.533-8.533h8.533c4.71,0,8.533,3.823,8.533,8.533     C234.662,38.844,230.84,42.667,226.129,42.667z M294.396,42.667h-42.667c-4.71,0-8.533-3.823-8.533-8.533     c0-4.71,3.823-8.533,8.533-8.533h42.667c4.71,0,8.533,3.823,8.533,8.533C302.929,38.844,299.106,42.667,294.396,42.667z"/>
		</g>
	</g>
</g>
<g>
</g>
<g>
</g>
<g>
</g>
<g>
</g>
<g>
</g>
<g>
</g>
<g>
</g>
<g>
</g>
<g>
</g>
<g>
</g>
<g>
</g>
<g>
</g>
<g>
</g>
<g>
</g>
<g>
</g>
</svg>
