<?xml version="1.0" encoding="iso-8859-1"?>
<!-- Generator: Adobe Illustrator 19.0.0, SVG Export Plug-In . SVG Version: 6.00 Build 0)  -->
<svg xmlns="http://www.w3.org/2000/svg" xmlns:xlink="http://www.w3.org/1999/xlink" version="1.1" id="Layer_1" x="0px" y="0px" viewBox="0 0 512 512" style="enable-background:new 0 0 512 512;" xml:space="preserve">
<g>
	<g>
		<g>
			<path d="M115.2,76.8c-4.719,0-8.533,3.823-8.533,8.533v8.533c0,4.71,3.814,8.533,8.533,8.533v8.533     c-4.719,0-8.533,3.823-8.533,8.533V128c0,4.71,3.814,8.533,8.533,8.533v8.533c-4.719,0-8.533,3.823-8.533,8.533v8.533     c0,4.71,3.814,8.533,8.533,8.533v256h290.133v-358.4H115.2V76.8z M371.2,273.067v68.267c0,14.114-11.486,25.6-25.6,25.6h-6.656     l6.485,32.461c0.7,3.43-0.785,6.938-3.729,8.841c-1.408,0.913-3.029,1.365-4.634,1.365c-1.741,0-3.473-0.529-4.958-1.587     l-57.506-41.079H243.2c-14.114,0-25.6-11.486-25.6-25.6v-68.267c0-14.114,11.486-25.6,25.6-25.6h102.4     C359.714,247.467,371.2,258.953,371.2,273.067z M149.333,110.933c0-14.114,11.486-25.6,25.6-25.6h102.4     c14.114,0,25.6,11.486,25.6,25.6V179.2c0,14.114-11.486,25.6-25.6,25.6h-31.403l-57.506,41.079     c-1.476,1.058-3.217,1.587-4.958,1.587c-1.604,0-3.226-0.452-4.634-1.365c-2.944-1.903-4.429-5.41-3.729-8.841l6.485-32.461     h-6.656c-14.114,0-25.6-11.486-25.6-25.6V110.933z"/>
			<path d="M174.933,187.733H192c2.56,0,4.975,1.143,6.596,3.123c1.621,1.98,2.27,4.574,1.766,7.083l-4.292,21.504l42.172-30.123     c1.442-1.033,3.183-1.587,4.958-1.587h34.133c4.71,0,8.533-3.831,8.533-8.533v-68.267c0-4.702-3.823-8.533-8.533-8.533h-102.4     c-4.71,0-8.533,3.831-8.533,8.533V179.2C166.4,183.902,170.223,187.733,174.933,187.733z M217.6,119.467h17.067     c4.719,0,8.533,3.823,8.533,8.533s-3.814,8.533-8.533,8.533H217.6c-4.719,0-8.533-3.823-8.533-8.533     S212.881,119.467,217.6,119.467z M192,153.6h68.267c4.719,0,8.533,3.823,8.533,8.533c0,4.71-3.814,8.533-8.533,8.533H192     c-4.719,0-8.533-3.823-8.533-8.533C183.467,157.423,187.281,153.6,192,153.6z"/>
			<path d="M277.008,469.333c0-9.412-7.654-17.067-17.067-17.067c-9.412,0-17.067,7.654-17.067,17.067     c0,9.412,7.654,17.067,17.067,17.067C269.354,486.4,277.008,478.746,277.008,469.333z"/>
			<path d="M234.667,273.067v68.267c0,4.702,3.823,8.533,8.533,8.533h34.133c1.775,0,3.516,0.555,4.958,1.587l42.172,30.123     l-4.292-21.504c-0.503-2.509,0.145-5.103,1.766-7.083s4.036-3.123,6.596-3.123H345.6c4.71,0,8.533-3.831,8.533-8.533v-68.267     c0-4.702-3.823-8.533-8.533-8.533H243.2C238.49,264.533,234.667,268.365,234.667,273.067z M285.867,281.6h17.067     c4.719,0,8.533,3.823,8.533,8.533s-3.814,8.533-8.533,8.533h-17.067c-4.719,0-8.533-3.823-8.533-8.533     S281.148,281.6,285.867,281.6z M260.267,315.733h68.267c4.719,0,8.533,3.823,8.533,8.533s-3.814,8.533-8.533,8.533h-68.267     c-4.719,0-8.533-3.823-8.533-8.533S255.548,315.733,260.267,315.733z"/>
			<path d="M371.524,0H149.009C130.364,0,115.2,15.164,115.2,33.801V51.2h290.133V33.801C405.333,15.164,390.17,0,371.524,0z      M226.133,42.667H217.6c-4.719,0-8.533-3.823-8.533-8.533c0-4.71,3.814-8.533,8.533-8.533h8.533c4.719,0,8.533,3.823,8.533,8.533     C234.667,38.844,230.852,42.667,226.133,42.667z M294.4,42.667h-42.667c-4.719,0-8.533-3.823-8.533-8.533     c0-4.71,3.814-8.533,8.533-8.533H294.4c4.719,0,8.533,3.823,8.533,8.533C302.933,38.844,299.119,42.667,294.4,42.667z"/>
			<path d="M294.075,469.333c0,18.825-15.309,34.133-34.133,34.133s-34.133-15.309-34.133-34.133c0-10.24,4.625-19.337,11.793-25.6     H115.199V478.2c0,18.637,15.164,33.8,33.809,33.8h222.515c18.645,0,33.809-15.164,33.809-33.8v-34.466H282.282     C289.45,449.997,294.075,459.093,294.075,469.333z"/>
		</g>
	</g>
</g>
<g>
</g>
<g>
</g>
<g>
</g>
<g>
</g>
<g>
</g>
<g>
</g>
<g>
</g>
<g>
</g>
<g>
</g>
<g>
</g>
<g>
</g>
<g>
</g>
<g>
</g>
<g>
</g>
<g>
</g>
</svg>
