<?xml version="1.0" encoding="iso-8859-1"?>
<!-- Generator: Adobe Illustrator 19.0.0, SVG Export Plug-In . SVG Version: 6.00 Build 0)  -->
<svg xmlns="http://www.w3.org/2000/svg" xmlns:xlink="http://www.w3.org/1999/xlink" version="1.1" id="Layer_1" x="0px" y="0px" viewBox="0 0 511.981 511.981" style="enable-background:new 0 0 511.981 511.981;" xml:space="preserve">
<g>
	<g>
		<g>
			<path d="M376.336,331.757c-10.897-6.212-22.178-8.166-31.753-5.513c-7.202,1.988-13.073,6.545-17.033,13.184     c-8.704,10.419-19.507,22.579-22.118,24.474c-4.07,2.748-7.936,4.719-11.708,6.229c13.585,6.409,30.054,11.989,48.717,13.926     c4.685,0.486,8.098,4.676,7.603,9.37c-0.452,4.395-4.156,7.654-8.474,7.654c-0.29,0-0.589-0.008-0.887-0.043     c-58.837-6.11-97.365-43.494-98.978-45.082c-2.543-2.509-91.716-92.049-93.303-93.355c-1.963-1.613-48.102-40.243-54.263-99.575     c-0.486-4.693,2.918-8.883,7.612-9.37c4.693-0.546,8.883,2.918,9.361,7.612c2.91,27.964,16.367,51.081,28.331,66.654     c0.828-6.656,3.78-13.585,8.866-21.094c1.911-2.637,14.08-13.44,24.491-22.144c6.647-3.959,11.196-9.83,13.193-17.024     c2.654-9.583,0.7-20.864-5.564-31.846c-1.485-2.526-36.617-62.029-69-79.172c-16.427-8.704-36.309-5.7-49.451,7.441     L40.327,85.733c-63.164,63.164-51.473,141.619,33.801,226.893l125.483,125.483c49.169,49.169,96.06,73.873,139.068,73.873     c31.59-0.009,61.082-13.329,87.817-40.073l21.649-21.649c13.15-13.15,16.145-33.024,7.441-49.459     C438.45,368.416,378.947,333.285,376.336,331.757z"/>
			<path d="M332.523,162.137c0,9.412,7.654,17.067,17.067,17.067c9.412,0,17.067-7.654,17.067-17.067V145.07H349.59     C340.178,145.07,332.523,152.724,332.523,162.137z"/>
			<path d="M366.657,0c-79.991,0-145.067,57.054-145.067,127.189c0,24.132,7.706,47.505,22.323,67.806     c-3.055,31.65-9.967,54.11-19.567,63.411c-2.765,2.679-3.396,6.878-1.536,10.257c1.528,2.765,4.42,4.403,7.475,4.403     c0.666,0,1.34-0.077,2.014-0.239c1.886-0.461,44.885-11.051,77.013-28.783c18.15,6.861,37.419,10.334,57.344,10.334     c79.991,0,145.067-57.054,145.067-127.189S446.649,0,366.657,0z M417.49,113.408c-1.109,3.686-4.497,6.067-8.166,6.067     c-0.819,0-1.647-0.119-2.475-0.375c-4.506-1.357-7.057-6.118-5.692-10.633c5.171-17.101,4.036-18.705-0.76-25.404     c-1.835-2.569-5.035-5.052-7.612-7.049l-2.142-1.681c-2.679-2.142-4.898-3.917-6.921-5.53v67.729v25.6     c0,18.825-15.309,34.133-34.133,34.133c-18.824,0-34.133-15.309-34.133-34.133c0-18.816,15.309-34.133,34.133-34.133h17.067     v-5.581v-13.986V90.18V71.808V57.446c0-2.697-0.35-5.649,0.333-8.252c0.623-2.372,2.304-4.446,4.497-5.538     c2.662-1.331,5.751-1.178,8.209,0.427c1.169,0.759,2.278,1.613,3.379,2.458c5.393,4.122,10.658,8.405,15.957,12.646     c0.759,0.606,1.519,1.212,2.27,1.818l1.954,1.527c3.627,2.816,7.748,6.016,10.607,10.018     C422.124,84.113,424.437,90.436,417.49,113.408z"/>
		</g>
	</g>
</g>
<g>
</g>
<g>
</g>
<g>
</g>
<g>
</g>
<g>
</g>
<g>
</g>
<g>
</g>
<g>
</g>
<g>
</g>
<g>
</g>
<g>
</g>
<g>
</g>
<g>
</g>
<g>
</g>
<g>
</g>
</svg>
