<?xml version="1.0" encoding="iso-8859-1"?>
<!-- Generator: Adobe Illustrator 19.0.0, SVG Export Plug-In . SVG Version: 6.00 Build 0)  -->
<svg xmlns="http://www.w3.org/2000/svg" xmlns:xlink="http://www.w3.org/1999/xlink" version="1.1" id="Layer_1" x="0px" y="0px" viewBox="0 0 512 512" style="enable-background:new 0 0 512 512;" xml:space="preserve">
<g>
	<g>
		<g>
			<path d="M302.933,341.333c-30.174,0-51.2,13.491-51.2,25.6s21.026,25.6,51.2,25.6c30.174,0,51.2-13.491,51.2-25.6     S333.107,341.333,302.933,341.333z M311.467,375.467H294.4c-4.719,0-8.533-3.823-8.533-8.533s3.814-8.533,8.533-8.533h17.067     c4.719,0,8.533,3.823,8.533,8.533S316.186,375.467,311.467,375.467z"/>
			<path d="M302.933,153.6c30.174,0,51.2-13.491,51.2-25.6c0-12.109-21.026-25.6-51.2-25.6c-30.174,0-51.2,13.491-51.2,25.6     C251.733,140.109,272.759,153.6,302.933,153.6z M294.4,119.467h17.067c4.719,0,8.533,3.823,8.533,8.533s-3.814,8.533-8.533,8.533     H294.4c-4.719,0-8.533-3.823-8.533-8.533S289.681,119.467,294.4,119.467z"/>
			<path d="M115.2,76.8c-4.719,0-8.533,3.823-8.533,8.533v8.533c0,4.71,3.814,8.533,8.533,8.533v8.533     c-4.719,0-8.533,3.823-8.533,8.533V128c0,4.71,3.814,8.533,8.533,8.533v8.533c-4.719,0-8.533,3.823-8.533,8.533v8.533     c0,4.71,3.814,8.533,8.533,8.533v256h290.133v-358.4H115.2V76.8z M302.933,409.6c-38.281,0-68.267-18.739-68.267-42.667     s29.986-42.667,68.267-42.667c38.281,0,68.267,18.739,68.267,42.667S341.214,409.6,302.933,409.6z M302.933,85.333     c38.281,0,68.267,18.739,68.267,42.667s-29.986,42.667-68.267,42.667c-38.281,0-68.267-18.739-68.267-42.667     S264.653,85.333,302.933,85.333z M217.6,204.8c38.281,0,68.267,18.739,68.267,42.667s-29.986,42.667-68.267,42.667     s-68.267-18.739-68.267-42.667S179.319,204.8,217.6,204.8z"/>
			<path d="M217.6,273.067c30.174,0,51.2-13.491,51.2-25.6s-21.026-25.6-51.2-25.6c-30.174,0-51.2,13.491-51.2,25.6     S187.426,273.067,217.6,273.067z M209.067,238.933h17.067c4.719,0,8.533,3.823,8.533,8.533S230.852,256,226.133,256h-17.067     c-4.719,0-8.533-3.823-8.533-8.533S204.348,238.933,209.067,238.933z"/>
			<path d="M277.008,469.333c0-9.412-7.654-17.067-17.067-17.067c-9.412,0-17.067,7.654-17.067,17.067     c0,9.412,7.654,17.067,17.067,17.067C269.354,486.4,277.008,478.746,277.008,469.333z"/>
			<path d="M371.524,0H149.009C130.364,0,115.2,15.164,115.2,33.801V51.2h290.133V33.801C405.333,15.164,390.17,0,371.524,0z      M226.133,42.667H217.6c-4.719,0-8.533-3.823-8.533-8.533c0-4.71,3.814-8.533,8.533-8.533h8.533c4.719,0,8.533,3.823,8.533,8.533     C234.667,38.844,230.852,42.667,226.133,42.667z M294.4,42.667h-42.667c-4.719,0-8.533-3.823-8.533-8.533     c0-4.71,3.814-8.533,8.533-8.533H294.4c4.719,0,8.533,3.823,8.533,8.533C302.933,38.844,299.119,42.667,294.4,42.667z"/>
			<path d="M294.075,469.333c0,18.825-15.309,34.133-34.133,34.133s-34.133-15.309-34.133-34.133c0-10.24,4.625-19.337,11.793-25.6     H115.199V478.2c0,18.637,15.164,33.8,33.809,33.8h222.515c18.645,0,33.809-15.164,33.809-33.8v-34.466H282.282     C289.45,449.997,294.075,459.093,294.075,469.333z"/>
		</g>
	</g>
</g>
<g>
</g>
<g>
</g>
<g>
</g>
<g>
</g>
<g>
</g>
<g>
</g>
<g>
</g>
<g>
</g>
<g>
</g>
<g>
</g>
<g>
</g>
<g>
</g>
<g>
</g>
<g>
</g>
<g>
</g>
</svg>
