<?xml version="1.0" encoding="iso-8859-1"?>
<!-- Generator: Adobe Illustrator 19.0.0, SVG Export Plug-In . SVG Version: 6.00 Build 0)  -->
<svg xmlns="http://www.w3.org/2000/svg" xmlns:xlink="http://www.w3.org/1999/xlink" version="1.1" id="Layer_1" x="0px" y="0px" viewBox="0 0 512 512" style="enable-background:new 0 0 512 512;" xml:space="preserve">
<g>
	<g>
		<path d="M503.467,59.733h-307.2c-4.719,0-8.533,3.823-8.533,8.533v145.067H8.533c-4.719,0-8.533,3.823-8.533,8.533v153.6    C0,380.177,3.814,384,8.533,384H76.8v59.733c0,3.362,1.971,6.409,5.043,7.782c1.118,0.503,2.304,0.751,3.49,0.751    c2.048,0,4.079-0.734,5.666-2.15L165.376,384h150.357c4.719,0,8.533-3.823,8.533-8.533V230.4h22.357l74.377,66.116    c1.587,1.417,3.618,2.15,5.666,2.15c1.186,0,2.372-0.247,3.49-0.751c3.072-1.374,5.043-4.42,5.043-7.782V230.4h68.267    c4.719,0,8.533-3.823,8.533-8.533v-153.6C512,63.556,508.186,59.733,503.467,59.733z M51.2,264.533h136.533    c4.719,0,8.533,3.823,8.533,8.533s-3.814,8.533-8.533,8.533H51.2c-4.719,0-8.533-3.823-8.533-8.533S46.481,264.533,51.2,264.533z     M273.067,332.8H51.2c-4.719,0-8.533-3.823-8.533-8.533s3.814-8.533,8.533-8.533h221.867c4.719,0,8.533,3.823,8.533,8.533    S277.786,332.8,273.067,332.8z M375.467,179.2H238.933c-4.719,0-8.533-3.823-8.533-8.533c0-4.71,3.814-8.533,8.533-8.533h136.533    c4.719,0,8.533,3.823,8.533,8.533C384,175.377,380.186,179.2,375.467,179.2z M460.8,128H238.933c-4.719,0-8.533-3.823-8.533-8.533    s3.814-8.533,8.533-8.533H460.8c4.719,0,8.533,3.823,8.533,8.533S465.519,128,460.8,128z"/>
	</g>
</g>
<g>
</g>
<g>
</g>
<g>
</g>
<g>
</g>
<g>
</g>
<g>
</g>
<g>
</g>
<g>
</g>
<g>
</g>
<g>
</g>
<g>
</g>
<g>
</g>
<g>
</g>
<g>
</g>
<g>
</g>
</svg>
