<?xml version="1.0" encoding="iso-8859-1"?>
<!-- Generator: Adobe Illustrator 19.0.0, SVG Export Plug-In . SVG Version: 6.00 Build 0)  -->
<svg xmlns="http://www.w3.org/2000/svg" xmlns:xlink="http://www.w3.org/1999/xlink" version="1.1" id="Layer_1" x="0px" y="0px" viewBox="0 0 512 512" style="enable-background:new 0 0 512 512;" xml:space="preserve">
<g>
	<g>
		<g>
			<path d="M384,381.625c5.077-2.961,8.533-8.397,8.533-14.694c0-6.289-3.456-11.733-8.533-14.686V381.625z"/>
			<path d="M469.333,230.4H281.6c-23.526,0-42.667,19.14-42.667,42.667V409.6c0,23.526,19.14,42.667,42.667,42.667h124.467     L463.3,509.5c1.638,1.638,3.823,2.5,6.033,2.5c1.297,0,2.603-0.299,3.814-0.896c3.285-1.647,5.154-5.205,4.634-8.849     l-7.151-50.005C493.56,451.558,512,432.691,512,409.6V273.067C512,249.54,492.86,230.4,469.333,230.4z M409.6,366.933     c0,15.855-10.914,29.107-25.6,32.922v9.745c0,4.71-3.823,8.533-8.533,8.533c-4.71,0-8.533-3.823-8.533-8.533v-9.745     c-14.677-3.814-25.6-17.067-25.6-32.922c0-4.71,3.823-8.533,8.533-8.533s8.533,3.823,8.533,8.533     c0,6.289,3.456,11.733,8.533,14.694v-32.973c-14.677-3.814-25.6-17.067-25.6-32.922c0-15.855,10.923-29.107,25.6-32.922v-9.745     c0-4.71,3.823-8.533,8.533-8.533c4.71,0,8.533,3.823,8.533,8.533v9.745c14.686,3.814,25.6,17.067,25.6,32.922     c0,4.71-3.814,8.533-8.533,8.533c-4.719,0-8.533-3.823-8.533-8.533c0-6.289-3.456-11.733-8.533-14.694v32.973     C398.686,337.826,409.6,351.078,409.6,366.933z"/>
			<path d="M358.4,315.733c0,6.289,3.456,11.733,8.533,14.694v-29.389C361.856,304,358.4,309.444,358.4,315.733z"/>
			<path d="M273.067,179.2V42.667C273.067,19.14,253.926,0,230.4,0H42.667C19.14,0,0,19.14,0,42.667V179.2     c0,23.091,18.441,41.958,41.361,42.65l-7.142,50.005c-0.521,3.644,1.348,7.202,4.634,8.849c1.212,0.597,2.517,0.896,3.814,0.896     c2.21,0,4.395-0.862,6.033-2.5l57.233-57.233H230.4C253.926,221.867,273.067,202.726,273.067,179.2z M51.2,42.667h119.467     c4.71,0,8.533,3.823,8.533,8.533s-3.823,8.533-8.533,8.533H51.2c-4.71,0-8.533-3.823-8.533-8.533S46.49,42.667,51.2,42.667z      M187.733,145.067H51.2c-4.71,0-8.533-3.823-8.533-8.533S46.49,128,51.2,128h136.533c4.71,0,8.533,3.823,8.533,8.533     S192.444,145.067,187.733,145.067z M221.867,102.4H51.2c-4.71,0-8.533-3.823-8.533-8.533c0-4.71,3.823-8.533,8.533-8.533h170.667     c4.71,0,8.533,3.823,8.533,8.533C230.4,98.577,226.577,102.4,221.867,102.4z"/>
		</g>
	</g>
</g>
<g>
</g>
<g>
</g>
<g>
</g>
<g>
</g>
<g>
</g>
<g>
</g>
<g>
</g>
<g>
</g>
<g>
</g>
<g>
</g>
<g>
</g>
<g>
</g>
<g>
</g>
<g>
</g>
<g>
</g>
</svg>
