<?xml version="1.0" encoding="iso-8859-1"?>
<!-- Generator: Adobe Illustrator 19.0.0, SVG Export Plug-In . SVG Version: 6.00 Build 0)  -->
<svg xmlns="http://www.w3.org/2000/svg" xmlns:xlink="http://www.w3.org/1999/xlink" version="1.1" id="Layer_1" x="0px" y="0px" viewBox="0 0 511.98 511.98" style="enable-background:new 0 0 511.98 511.98;" xml:space="preserve">
<g>
	<g>
		<g>
			<path d="M376.328,331.756c-10.897-6.212-22.178-8.166-31.753-5.513c-7.202,1.988-13.073,6.545-17.033,13.184     c-8.704,10.419-19.507,22.579-22.118,24.474c-4.07,2.748-7.936,4.719-11.708,6.229c13.585,6.409,30.054,11.989,48.717,13.926     c4.685,0.486,8.098,4.676,7.603,9.37c-0.452,4.395-4.156,7.654-8.474,7.654c-0.29,0-0.589-0.008-0.887-0.043     c-58.837-6.11-97.365-43.494-98.978-45.082c-2.543-2.509-91.716-92.049-93.303-93.355c-1.963-1.613-48.102-40.243-54.263-99.575     c-0.486-4.693,2.918-8.883,7.612-9.37c4.693-0.546,8.883,2.918,9.361,7.612c2.91,27.964,16.367,51.081,28.331,66.654     c0.828-6.656,3.78-13.585,8.866-21.094c1.911-2.637,14.08-13.44,24.491-22.144c6.647-3.959,11.196-9.83,13.193-17.024     c2.654-9.583,0.7-20.864-5.564-31.846c-1.485-2.526-36.617-62.029-69-79.172c-16.427-8.704-36.309-5.7-49.451,7.441L40.32,85.731     C-22.844,148.895-11.153,227.35,74.12,312.624l125.483,125.483c49.169,49.169,96.06,73.873,139.068,73.873     c31.59-0.009,61.082-13.329,87.817-40.073l21.649-21.649c13.15-13.15,16.145-33.024,7.441-49.459     C438.442,368.415,378.939,333.283,376.328,331.756z"/>
			<path d="M439.053,59.401l24.03,23.501c1.655,1.621,3.814,2.432,5.965,2.432c2.159,0,4.309-0.811,5.965-2.432l24.055-23.518     c5.939-5.854,10.001-13.227,11.767-21.342c1.306-6.059,0.819-9.873,0.742-10.104c-1.323-16.188-12.416-27.938-26.359-27.938     c-5.982,0-11.639,2.295-16.171,6.289c-4.531-3.994-10.189-6.289-16.162-6.289c-13.952,0-25.037,11.75-26.266,27.153     c-0.179,1.015-0.666,4.83,0.648,10.889C429.027,46.158,433.097,53.53,439.053,59.401z"/>
			<path d="M390.899,85.339c-6.912,0-13.338,4.651-16.393,11.861c-1.34,3.149-4.429,5.205-7.859,5.205     c-3.422,0-6.519-2.057-7.859-5.205c-3.046-7.211-9.489-11.861-16.393-11.861c-10.837,0-17.408,9.984-18.287,19.857     c-0.026,0.29-0.06,0.572-0.12,0.853c0.017,0-0.239,2.5,0.794,6.869c1.715,7.228,5.7,13.833,11.537,19.106l30.327,27.187     l30.345-27.204c5.82-5.248,9.805-11.861,11.52-19.089c1.075-4.548,0.76-7.074,0.751-7.1     C408.307,95.332,401.745,85.339,390.899,85.339z"/>
			<path d="M486.953,95.104c-4.821,4.702-11.17,7.296-17.903,7.296c-6.733,0-13.082-2.594-17.894-7.296l-24.038-23.501     c-8.363-8.243-14.063-18.577-16.529-29.935c-1.672-7.714-1.365-13.414-0.922-16.555c0.597-6.46,2.441-12.433,5.137-17.792     C399.349,2.526,383.068,0,366.65,0c-79.991,0-145.067,57.054-145.067,127.189c0,24.132,7.706,47.497,22.323,67.806     c-3.055,31.65-9.967,54.11-19.567,63.411c-2.773,2.679-3.396,6.878-1.536,10.257c1.528,2.756,4.42,4.403,7.475,4.403     c0.666,0,1.34-0.077,2.014-0.239c1.886-0.461,44.885-11.059,77.013-28.792c18.15,6.861,37.419,10.342,57.344,10.342     c79.991,0,145.067-57.054,145.067-127.189c0-15.957-3.507-31.659-10.138-46.396L486.953,95.104z M425.12,116.855     c-2.517,10.607-8.294,20.241-16.708,27.836l-36.07,32.333c-1.621,1.451-3.652,2.176-5.692,2.176s-4.079-0.725-5.7-2.176     l-36.036-32.316c-8.439-7.62-14.225-17.246-16.734-27.853c-1.664-7.031-1.289-11.733-1.041-13.457     c1.946-20.369,16.734-35.132,35.26-35.132c9.156,0,17.809,3.866,24.252,10.436c6.443-6.562,15.095-10.428,24.252-10.428     c18.526,0,33.314,14.754,35.26,35.123C426.4,105.122,426.784,109.824,425.12,116.855z"/>
		</g>
	</g>
</g>
<g>
</g>
<g>
</g>
<g>
</g>
<g>
</g>
<g>
</g>
<g>
</g>
<g>
</g>
<g>
</g>
<g>
</g>
<g>
</g>
<g>
</g>
<g>
</g>
<g>
</g>
<g>
</g>
<g>
</g>
</svg>
