<?xml version="1.0" encoding="iso-8859-1"?>
<!-- Generator: Adobe Illustrator 19.0.0, SVG Export Plug-In . SVG Version: 6.00 Build 0)  -->
<svg xmlns="http://www.w3.org/2000/svg" xmlns:xlink="http://www.w3.org/1999/xlink" version="1.1" id="Layer_1" x="0px" y="0px" viewBox="0 0 512.001 512.001" style="enable-background:new 0 0 512.001 512.001;" xml:space="preserve">
<g>
	<g>
		<g>
			<path d="M409.601,247.469c-56.465,0-102.4,45.935-102.4,102.4c0,56.465,45.935,102.4,102.4,102.4     c56.465,0,102.4-45.935,102.4-102.4C512.001,293.404,466.066,247.469,409.601,247.469z M452.268,409.603     c0,4.71-3.823,8.533-8.533,8.533c-37.641,0-68.267-30.626-68.267-68.267v-8.533h-17.067c-3.447,0-6.562-2.082-7.885-5.265     c-1.323-3.191-0.589-6.861,1.852-9.301l42.667-42.667c3.337-3.337,8.73-3.337,12.066,0l42.667,42.667     c2.441,2.44,3.174,6.11,1.852,9.301c-1.323,3.183-4.437,5.265-7.885,5.265h-17.067v8.533c0,9.412,7.654,17.067,17.067,17.067     c4.71,0,8.533,3.823,8.533,8.533V409.603z"/>
			<polygon points="430.276,59.732 13.457,59.732 221.867,261.187    "/>
			<path d="M140.501,206.274L0,70.457v302.729l138.53-165.333C139.093,207.178,139.793,206.726,140.501,206.274z"/>
			<path d="M305.209,207.848l36.642,43.733c19.268-13.329,42.598-21.18,67.746-21.18c11.87,0,23.313,1.792,34.133,5.026V70.453     L303.238,206.269C303.938,206.722,304.646,207.174,305.209,207.848z"/>
			<path d="M328.585,262.319l-36.454-43.511c-0.307-0.358-0.41-0.785-0.64-1.178c-9.498,9.173-18.987,18.355-28.484,27.529     l-20.949,20.25c-4.83,4.676-12.937,15.804-19.831,16.034c-7.023,0.23-14.694-10.377-19.499-15.019     c-7.185-6.946-14.37-13.892-21.555-20.838c-1.98-1.911-29.67-26.701-28.928-27.955c-0.222,0.393-0.333,0.819-0.631,1.178     L13.21,383.996h281.958c-3.234-10.82-5.035-22.263-5.035-34.133C290.133,315.268,305.007,284.156,328.585,262.319z"/>
		</g>
	</g>
</g>
<g>
</g>
<g>
</g>
<g>
</g>
<g>
</g>
<g>
</g>
<g>
</g>
<g>
</g>
<g>
</g>
<g>
</g>
<g>
</g>
<g>
</g>
<g>
</g>
<g>
</g>
<g>
</g>
<g>
</g>
</svg>
