<?xml version="1.0" encoding="iso-8859-1"?>
<!-- Generator: Adobe Illustrator 19.0.0, SVG Export Plug-In . SVG Version: 6.00 Build 0)  -->
<svg version="1.1" id="Layer_1" xmlns="http://www.w3.org/2000/svg" xmlns:xlink="http://www.w3.org/1999/xlink" x="0px" y="0px"
	 viewBox="0 0 512 512" style="enable-background:new 0 0 512 512;" xml:space="preserve">
<g>
	<g>
		<path d="M53.943,0c-8.947,0-16.677,7.239-16.677,16.188v479.624c0,8.949,7.73,16.188,16.677,16.188h177.753V0H53.943z
			 M132.861,427.732c-13.422,0-24.304-10.882-24.304-24.304s10.882-24.304,24.304-24.304s24.304,10.882,24.304,24.304
			S146.283,427.732,132.861,427.732z M157.165,307.848c0,13.422-10.882,24.304-24.304,24.304s-24.304-10.882-24.304-24.304v-194.43
			c0-13.422,10.882-24.304,24.304-24.304s24.304,10.882,24.304,24.304V307.848z"/>
	</g>
</g>
<g>
	<g>
		<path d="M458.057,0H280.304v512h177.753c8.949,0,16.677-7.239,16.677-16.188V16.188C474.734,7.239,467.004,0,458.057,0z
			 M379.139,427.732c-13.422,0-24.304-10.882-24.304-24.304s10.882-24.304,24.304-24.304c13.422,0,24.304,10.882,24.304,24.304
			S392.561,427.732,379.139,427.732z M403.443,307.848c0,13.422-10.882,24.304-24.304,24.304c-13.422,0-24.304-10.882-24.304-24.304
			v-194.43c0-13.422,10.882-24.304,24.304-24.304c13.422,0,24.304,10.882,24.304,24.304V307.848z"/>
	</g>
</g>
<g>
</g>
<g>
</g>
<g>
</g>
<g>
</g>
<g>
</g>
<g>
</g>
<g>
</g>
<g>
</g>
<g>
</g>
<g>
</g>
<g>
</g>
<g>
</g>
<g>
</g>
<g>
</g>
<g>
</g>
</svg>
