<?xml version="1.0" encoding="iso-8859-1"?>
<!-- Generator: Adobe Illustrator 19.0.0, SVG Export Plug-In . SVG Version: 6.00 Build 0)  -->
<svg version="1.1" id="Layer_1" xmlns="http://www.w3.org/2000/svg" xmlns:xlink="http://www.w3.org/1999/xlink" x="0px" y="0px"
	 viewBox="0 0 511.999 511.999" style="enable-background:new 0 0 511.999 511.999;" xml:space="preserve">
<g>
	<g>
		<g>
			<path d="M31.819,495.194c0,7.988,6.909,13.912,14.897,13.912h418.567c7.988,0,14.897-5.924,14.897-13.912V159.095H31.819V495.194
				z M156.203,216.948h196.701c11.981,0,21.695,9.714,21.695,21.695c0,11.981-9.714,21.695-21.695,21.695H156.203
				c-11.981,0-21.695-9.714-21.695-21.695C134.508,226.662,144.222,216.948,156.203,216.948z M134.508,328.316
				c0-7.988,6.475-14.463,14.463-14.463h211.164c7.988,0,14.463,6.475,14.463,14.463v94.011c0,7.988-6.475,14.463-14.463,14.463
				H148.972c-7.988,0-14.463-6.475-14.463-14.463V328.316z"/>
			<path d="M497.947,2.892H14.052C6.064,2.892,0,8.816,0,16.804v83.871c0,7.987,6.063,15.03,14.05,15.03h0.001h18.202h447.494
				h18.201h0.001c7.987,0,14.05-7.044,14.05-15.03V16.804C512,8.816,505.936,2.892,497.947,2.892z"/>
		</g>
	</g>
</g>
<g>
</g>
<g>
</g>
<g>
</g>
<g>
</g>
<g>
</g>
<g>
</g>
<g>
</g>
<g>
</g>
<g>
</g>
<g>
</g>
<g>
</g>
<g>
</g>
<g>
</g>
<g>
</g>
<g>
</g>
</svg>
