<?xml version="1.0" encoding="iso-8859-1"?>
<!-- Generator: Adobe Illustrator 19.0.0, SVG Export Plug-In . SVG Version: 6.00 Build 0)  -->
<svg version="1.1" id="Layer_1" xmlns="http://www.w3.org/2000/svg" xmlns:xlink="http://www.w3.org/1999/xlink" x="0px" y="0px"
	 viewBox="0 0 512 512" style="enable-background:new 0 0 512 512;" xml:space="preserve">
<g>
	<g>
		<path d="M428.568,0H83.432C75.555,0,69.17,6.385,69.17,14.262v483.476c0,7.877,6.385,14.262,14.262,14.262h345.136
			c7.877,0,14.262-6.385,14.262-14.262V14.262C442.83,6.385,436.445,0,428.568,0z M177.56,456.379h-28.524
			c-11.815,0-21.393-9.578-21.393-21.393c0-11.815,9.578-21.393,21.393-21.393h28.524c11.815,0,21.393,9.578,21.393,21.393
			C198.953,446.801,189.374,456.379,177.56,456.379z M177.56,386.496h-28.524c-11.815,0-21.393-9.578-21.393-21.393
			c0-11.814,9.578-21.393,21.393-21.393h28.524c11.815,0,21.393,9.578,21.393,21.393
			C198.953,376.918,189.374,386.496,177.56,386.496z M177.56,316.613h-28.524c-11.815,0-21.393-9.578-21.393-21.393
			c0-11.814,9.578-21.393,21.393-21.393h28.524c11.815,0,21.393,9.578,21.393,21.393
			C198.953,307.035,189.374,316.613,177.56,316.613z M270.262,456.379h-28.524c-11.815,0-21.393-9.578-21.393-21.393
			c0-11.815,9.578-21.393,21.393-21.393h28.524c11.815,0,21.393,9.578,21.393,21.393
			C291.655,446.801,282.076,456.379,270.262,456.379z M270.262,386.496h-28.524c-11.815,0-21.393-9.578-21.393-21.393
			c0-11.814,9.578-21.393,21.393-21.393h28.524c11.815,0,21.393,9.578,21.393,21.393
			C291.655,376.918,282.076,386.496,270.262,386.496z M270.262,316.613h-28.524c-11.815,0-21.393-9.578-21.393-21.393
			c0-11.814,9.578-21.393,21.393-21.393h28.524c11.815,0,21.393,9.578,21.393,21.393
			C291.655,307.035,282.076,316.613,270.262,316.613z M384.357,434.986c0,11.814-9.578,21.393-21.393,21.393H334.44
			c-11.815,0-21.393-9.578-21.393-21.393v-69.883c0-11.814,9.578-21.393,21.393-21.393h28.524c11.814,0,21.393,9.578,21.393,21.393
			V434.986z M362.964,316.613H334.44c-11.815,0-21.393-9.578-21.393-21.393c0-11.814,9.578-21.393,21.393-21.393h28.524
			c11.814,0,21.393,9.578,21.393,21.393C384.357,307.035,374.778,316.613,362.964,316.613z M384.357,198.24
			c0,11.815-9.578,21.393-21.393,21.393H149.036c-11.815,0-21.393-9.578-21.393-21.393V91.276c0-11.815,9.578-21.393,21.393-21.393
			h213.928c11.814,0,21.393,9.578,21.393,21.393V198.24z"/>
	</g>
</g>
<g>
</g>
<g>
</g>
<g>
</g>
<g>
</g>
<g>
</g>
<g>
</g>
<g>
</g>
<g>
</g>
<g>
</g>
<g>
</g>
<g>
</g>
<g>
</g>
<g>
</g>
<g>
</g>
<g>
</g>
</svg>
