<?xml version="1.0" encoding="iso-8859-1"?>
<!-- Generator: Adobe Illustrator 19.0.0, SVG Export Plug-In . SVG Version: 6.00 Build 0)  -->
<svg version="1.1" id="Layer_1" xmlns="http://www.w3.org/2000/svg" xmlns:xlink="http://www.w3.org/1999/xlink" x="0px" y="0px"
	 viewBox="0 0 512 512" style="enable-background:new 0 0 512 512;" xml:space="preserve">
<g>
	<g>
		<path d="M439.315,26.736h-83.722v-0.577v-0.091V12.686c0-7.383-5.317-12.686-12.7-12.686h-173.02
			c-7.383,0-13.466,5.303-13.466,12.686v13.382v0.091v0.577h-81.94c-7.383,0-14.311,5.407-14.311,12.791v458.527
			c0,7.383,6.927,13.946,14.311,13.946h364.847c7.383,0,12.529-6.562,12.529-13.946V39.527
			C451.843,32.144,446.698,26.736,439.315,26.736z M379.655,423.77c0,7.383-5.985,13.368-13.368,13.368H147.05
			c-7.383,0-13.368-5.985-13.368-13.368V126.997c0-7.383,5.985-13.368,13.368-13.368h219.238c7.383,0,13.368,5.985,13.368,13.368
			V423.77z"/>
	</g>
</g>
<g>
	<g>
		<path d="M320.167,172.449H194.507c-11.074,0-20.052,8.978-20.052,20.052c0,11.074,8.978,20.052,20.052,20.052h125.661
			c11.074,0,20.052-8.978,20.052-20.052C340.219,181.427,331.241,172.449,320.167,172.449z"/>
	</g>
</g>
<g>
	<g>
		<path d="M320.167,255.332H194.507c-11.074,0-20.052,8.978-20.052,20.052c0,11.074,8.978,20.052,20.052,20.052h125.661
			c11.074,0,20.052-8.978,20.052-20.052C340.219,264.31,331.241,255.332,320.167,255.332z"/>
	</g>
</g>
<g>
	<g>
		<path d="M320.167,338.214H194.507c-11.074,0-20.052,8.978-20.052,20.052c0,11.074,8.978,20.052,20.052,20.052h125.661
			c11.074,0,20.052-8.978,20.052-20.052C340.219,347.192,331.241,338.214,320.167,338.214z"/>
	</g>
</g>
<g>
</g>
<g>
</g>
<g>
</g>
<g>
</g>
<g>
</g>
<g>
</g>
<g>
</g>
<g>
</g>
<g>
</g>
<g>
</g>
<g>
</g>
<g>
</g>
<g>
</g>
<g>
</g>
<g>
</g>
</svg>
