<?xml version="1.0" encoding="iso-8859-1"?>
<!-- Generator: Adobe Illustrator 19.0.0, SVG Export Plug-In . SVG Version: 6.00 Build 0)  -->
<svg version="1.1" id="Layer_1" xmlns="http://www.w3.org/2000/svg" xmlns:xlink="http://www.w3.org/1999/xlink" x="0px" y="0px"
	 viewBox="0 0 512 512" style="enable-background:new 0 0 512 512;" xml:space="preserve">
<g>
	<g>
		<g>
			<path d="M495.515,21.988H94.233v468.025h401.282c8.674,0,16.485-6.976,16.485-15.651V37.954
				C512,29.28,504.19,21.988,495.515,21.988z M297.642,417.271c-88.98,0-161.112-72.132-161.112-161.114
				S208.66,95.045,297.642,95.045s161.114,72.132,161.114,161.112S386.621,417.271,297.642,417.271z"/>
			<path d="M0,37.954v436.408c0,8.674,7.81,15.651,16.484,15.651h30.632V21.988H16.484C7.81,21.988,0,29.28,0,37.954z"/>
		</g>
	</g>
</g>
<g>
	<g>
		<circle cx="297.635" cy="256.157" r="33.217"/>
	</g>
</g>
<g>
</g>
<g>
</g>
<g>
</g>
<g>
</g>
<g>
</g>
<g>
</g>
<g>
</g>
<g>
</g>
<g>
</g>
<g>
</g>
<g>
</g>
<g>
</g>
<g>
</g>
<g>
</g>
<g>
</g>
</svg>
