<?xml version="1.0" encoding="iso-8859-1"?>
<!-- Generator: Adobe Illustrator 19.0.0, SVG Export Plug-In . SVG Version: 6.00 Build 0)  -->
<svg version="1.1" id="Layer_1" xmlns="http://www.w3.org/2000/svg" xmlns:xlink="http://www.w3.org/1999/xlink" x="0px" y="0px"
	 viewBox="0 0 511.999 511.999" style="enable-background:new 0 0 511.999 511.999;" xml:space="preserve">
<g>
	<g>
		<path d="M450.912,323.61c0-10.984-8.905-19.889-19.889-19.889h-48.078l-39.522-102.887
			c-16.732,24.486-43.472,41.612-74.279,45.448l22.065,57.44H220.79l22.065-57.459c-30.807-3.837-57.547-20.921-74.279-45.407
			l-39.522,102.866H80.976c-10.984,0-19.889,8.905-19.889,19.889c0,10.984,8.905,19.889,19.889,19.889h32.793l-28.497,74.117
			c-14.337,37.309,4.285,79.157,41.595,93.493c6.835,2.627,14.506-0.754,17.134-7.59l61.505-160.02h100.991l61.503,160.011
			c2.627,6.835,10.299,10.227,17.134,7.6c37.309-14.337,55.932-56.174,41.595-93.484l-28.498-74.128h32.793
			C442.007,343.499,450.912,334.594,450.912,323.61z"/>
	</g>
</g>
<g>
	<g>
		<path d="M275.735,77.936c0.091-0.774,0.153-1.558,0.153-2.357V37.322V19.889C275.888,8.905,266.983,0,255.999,0
			c-10.984,0-19.889,8.905-19.889,19.889v17.433v38.256c0.001,0.799,0.061,1.583,0.152,2.357
			c-26.976,8.401-46.56,33.567-46.56,63.308c0,36.614,29.682,66.297,66.297,66.297s66.297-29.682,66.297-66.297
			C322.296,111.503,302.712,86.336,275.735,77.936z M256,161.133c-10.984,0-19.889-8.905-19.889-19.889
			c0-10.984,8.905-19.889,19.889-19.889s19.889,8.905,19.889,19.889C275.889,152.228,266.984,161.133,256,161.133z"/>
	</g>
</g>
<g>
</g>
<g>
</g>
<g>
</g>
<g>
</g>
<g>
</g>
<g>
</g>
<g>
</g>
<g>
</g>
<g>
</g>
<g>
</g>
<g>
</g>
<g>
</g>
<g>
</g>
<g>
</g>
<g>
</g>
</svg>
