<?xml version="1.0" encoding="iso-8859-1"?>
<!-- Generator: Adobe Illustrator 19.0.0, SVG Export Plug-In . SVG Version: 6.00 Build 0)  -->
<svg version="1.1" id="Layer_1" xmlns="http://www.w3.org/2000/svg" xmlns:xlink="http://www.w3.org/1999/xlink" x="0px" y="0px"
	 viewBox="0 0 511.999 511.999" style="enable-background:new 0 0 511.999 511.999;" xml:space="preserve">
<g>
	<g>
		<path d="M507.985,34.703l-5.595-5.595c-4.532-4.532-11.601-5.317-17.017-1.89L398.61,82.119l56.366,56.364l54.9-86.764
			C513.302,46.303,512.517,39.235,507.985,34.703z"/>
	</g>
</g>
<g>
	<g>
		<path d="M132.189,309.33l-77.99,77.99c-5.351,5.351-5.351,14.028,0,19.379l76.193,76.193c5.351,5.351,14.028,5.351,19.379,0
			l77.99-77.99L132.189,309.33z"/>
	</g>
</g>
<g>
	<g>
		<path d="M435.819,177.466l-3.376-3.376l-69.441-69.441l-3.376-3.377c-5.351-5.351-14.028-5.351-19.379,0l-55.326,55.326
			l95.572,95.572l55.327-55.324C441.171,191.495,441.171,182.818,435.819,177.466z"/>
	</g>
</g>
<g>
	<g>
		<path d="M26.626,27.217c-5.417-3.427-12.485-2.642-17.017,1.89l-5.595,5.595c-4.533,4.532-5.317,11.601-1.89,17.017l54.901,86.764
			l56.366-56.364L26.626,27.217z"/>
	</g>
</g>
<g>
	<g>
		<path d="M459.268,389.088c-0.438-0.617-0.921-1.213-1.473-1.766L171.75,101.273c-0.552-0.552-1.147-1.033-1.762-1.472
			c-5.351-3.81-12.818-3.329-17.617,1.472l-3.376,3.377l-69.441,69.441l-3.377,3.376c-3.956,3.956-4.978,9.728-3.085,14.631
			c0.667,1.729,1.69,3.353,3.085,4.748l286.047,286.047c1.395,1.395,3.019,2.417,4.748,3.085c4.904,1.894,10.675,0.871,14.631-3.085
			l76.193-76.193C462.593,401.903,463.075,394.437,459.268,389.088z"/>
	</g>
</g>
<g>
</g>
<g>
</g>
<g>
</g>
<g>
</g>
<g>
</g>
<g>
</g>
<g>
</g>
<g>
</g>
<g>
</g>
<g>
</g>
<g>
</g>
<g>
</g>
<g>
</g>
<g>
</g>
<g>
</g>
</svg>
