<?xml version="1.0" encoding="iso-8859-1"?>
<!-- Generator: Adobe Illustrator 19.0.0, SVG Export Plug-In . SVG Version: 6.00 Build 0)  -->
<svg version="1.1" id="Layer_1" xmlns="http://www.w3.org/2000/svg" xmlns:xlink="http://www.w3.org/1999/xlink" x="0px" y="0px"
	 viewBox="0 0 511.999 511.999" style="enable-background:new 0 0 511.999 511.999;" xml:space="preserve">
<g>
	<g>
		<g>
			<path d="M18.08,428.561c-2.994,2.994-4.574,7.121-4.343,11.35l3.157,57.97c0.701,12.872,16.306,18.844,25.421,9.728
				l97.945-97.945l-51.641-51.641L18.08,428.561z"/>
			<path d="M474.625,23.66c-30.268-30.267-77.924-31.683-106.445-3.161L101.441,287.236c-4.901,4.901-5.658,12.359-2.306,18.07
				c0.629,1.072,1.386,2.088,2.306,3.008l88.529,88.529c0.92,0.92,1.936,1.677,3.008,2.306c5.71,3.354,13.168,2.596,18.07-2.306
				l266.738-266.738C506.307,101.584,504.891,53.928,474.625,23.66z M415.506,114.396L233.18,296.722
				c-4.366,4.366-10.087,6.549-15.808,6.549c-5.72,0-11.444-2.182-15.808-6.549c-8.734-8.731-8.734-22.886-0.002-31.617
				L383.889,82.778c8.73-8.731,22.886-8.731,31.617,0S424.237,105.664,415.506,114.396z"/>
		</g>
	</g>
</g>
<g>
</g>
<g>
</g>
<g>
</g>
<g>
</g>
<g>
</g>
<g>
</g>
<g>
</g>
<g>
</g>
<g>
</g>
<g>
</g>
<g>
</g>
<g>
</g>
<g>
</g>
<g>
</g>
<g>
</g>
</svg>
