<?xml version="1.0" encoding="iso-8859-1"?>
<!-- Generator: Adobe Illustrator 19.0.0, SVG Export Plug-In . SVG Version: 6.00 Build 0)  -->
<svg version="1.1" id="Layer_1" xmlns="http://www.w3.org/2000/svg" xmlns:xlink="http://www.w3.org/1999/xlink" x="0px" y="0px"
	 viewBox="0 0 512 512" style="enable-background:new 0 0 512 512;" xml:space="preserve">
<g>
	<g>
		<path d="M275.168,413.327l-4.85,4.629c-4.032,3.763-9.175,5.645-14.318,5.645s-10.288-1.882-14.318-5.645l-4.85-4.629L85.816,512
			h340.367L275.168,413.327z"/>
	</g>
</g>
<g>
	<g>
		<polygon points="212.105,332.94 256,373.912 299.895,332.94 		"/>
	</g>
</g>
<g>
	<g>
		<polygon points="306.758,383.943 479.825,497.142 479.825,222.397 		"/>
	</g>
</g>
<g>
	<g>
		<polygon points="32.175,222.397 32.175,497.142 205.242,383.943 		"/>
	</g>
</g>
<g>
	<g>
		<path d="M435.06,190.251V13.785C435.06,6.059,428.797,0,421.071,0H93.727c-7.726,0-13.989,6.059-13.989,13.785v176.466H59.459
			l107.686,100.721h177.71l107.686-100.721H435.06z"/>
	</g>
</g>
<g>
</g>
<g>
</g>
<g>
</g>
<g>
</g>
<g>
</g>
<g>
</g>
<g>
</g>
<g>
</g>
<g>
</g>
<g>
</g>
<g>
</g>
<g>
</g>
<g>
</g>
<g>
</g>
<g>
</g>
</svg>
