<?xml version="1.0" encoding="iso-8859-1"?>
<!-- Generator: Adobe Illustrator 19.0.0, SVG Export Plug-In . SVG Version: 6.00 Build 0)  -->
<svg version="1.1" id="Layer_1" xmlns="http://www.w3.org/2000/svg" xmlns:xlink="http://www.w3.org/1999/xlink" x="0px" y="0px"
	 viewBox="0 0 512.002 512.002" style="enable-background:new 0 0 512.002 512.002;" xml:space="preserve">
<g>
	<g>
		<g>
			<path d="M500.446,53.019L459.015,11.59c-15.408-15.408-40.389-15.408-55.797,0l-3.6,3.6l97.227,97.227l3.6-3.601
				C515.854,93.408,515.854,68.427,500.446,53.019z"/>
			
				<rect x="33.684" y="360.538" transform="matrix(-0.7071 -0.7071 0.7071 -0.7071 -72.8011 754.288)" width="172.268" height="63.368"/>
			<path d="M1.455,451.182c-8.771,35.761,23.514,68.079,59.285,59.342l53.854-13.154l-99.951-99.952L1.455,451.182z"/>
			<path d="M466.585,145.404l-99.954-99.955c-1.759-1.759-3.839-2.989-6.049-3.723c-5.374-1.785-11.532-0.555-15.808,3.723
				L114.105,276.118l121.813,121.811l230.667-230.667c4.278-4.278,5.508-10.434,3.723-15.808
				C469.575,149.243,468.344,147.163,466.585,145.404z M373.922,170.912L243.869,300.966c-4.525,4.527-10.46,6.791-16.392,6.791
				c-5.933,0-11.865-2.263-16.392-6.791c-9.054-9.052-9.054-23.732,0-32.786l130.054-130.054c9.052-9.052,23.732-9.055,32.786,0
				C382.976,147.178,382.976,161.858,373.922,170.912z"/>
		</g>
	</g>
</g>
<g>
</g>
<g>
</g>
<g>
</g>
<g>
</g>
<g>
</g>
<g>
</g>
<g>
</g>
<g>
</g>
<g>
</g>
<g>
</g>
<g>
</g>
<g>
</g>
<g>
</g>
<g>
</g>
<g>
</g>
</svg>
