<?xml version="1.0" encoding="iso-8859-1"?>
<!-- Generator: Adobe Illustrator 19.0.0, SVG Export Plug-In . SVG Version: 6.00 Build 0)  -->
<svg version="1.1" id="Layer_1" xmlns="http://www.w3.org/2000/svg" xmlns:xlink="http://www.w3.org/1999/xlink" x="0px" y="0px"
	 viewBox="0 0 479.681 479.681" style="enable-background:new 0 0 479.681 479.681;" xml:space="preserve">
<g>
	<g>
		<g>
			<path d="M328.127,175.203h-27.051v-0.41v-40.414H178.604v40.414v0.41h-27.051c-39.184,0-71.607,31.354-71.607,70.537v216.812
				c0,9.395,8.275,17.129,17.67,17.129h284.449c9.395,0,17.67-7.734,17.67-17.129V245.74
				C399.733,206.557,367.311,175.203,328.127,175.203z M323.188,379.322c0,9.395-7.615,17.01-17.01,17.01H173.501
				c-9.395,0-17.01-7.615-17.01-17.01v-76.545c0-9.395,7.615-17.01,17.01-17.01h132.678c9.395,0,17.01,7.615,17.01,17.01V379.322z"
				/>
			<path d="M137.213,90.153h205.254c5.088,0,9.357-2.402,12.473-5.942c2.64-2.997,3.97-7.074,3.97-11.383v-56.38
				C358.911,7.054,351.862,0,342.468,0H137.213c-9.395,0-16.444,7.054-16.444,16.449V72.83c0,4.307,1.33,8.386,3.97,11.383
				C127.856,87.751,132.126,90.153,137.213,90.153z"/>
		</g>
	</g>
</g>
<g>
</g>
<g>
</g>
<g>
</g>
<g>
</g>
<g>
</g>
<g>
</g>
<g>
</g>
<g>
</g>
<g>
</g>
<g>
</g>
<g>
</g>
<g>
</g>
<g>
</g>
<g>
</g>
<g>
</g>
</svg>
