<?xml version="1.0" encoding="iso-8859-1"?>
<!-- Generator: Adobe Illustrator 19.0.0, SVG Export Plug-In . SVG Version: 6.00 Build 0)  -->
<svg version="1.1" id="Layer_1" xmlns="http://www.w3.org/2000/svg" xmlns:xlink="http://www.w3.org/1999/xlink" x="0px" y="0px"
	 viewBox="0 0 512 512" style="enable-background:new 0 0 512 512;" xml:space="preserve">
<g>
	<g>
		<path d="M454.404,0H172.742v512h281.662c8.595,0,14.022-8.397,14.022-16.992V14.937C468.426,6.342,462.999,0,454.404,0z
			 M408.511,421.739H227.988c-11.174,0-20.231-9.057-20.231-20.231c0-11.174,9.057-20.231,20.231-20.231h180.523
			c11.174,0,20.231,9.057,20.231,20.231C428.742,412.681,419.684,421.739,408.511,421.739z M408.511,326.809H227.988
			c-11.174,0-20.231-9.057-20.231-20.231s9.057-20.231,20.231-20.231h180.523c11.174,0,20.231,9.057,20.231,20.231
			S419.684,326.809,408.511,326.809z M408.511,231.878H227.988c-11.174,0-20.231-9.057-20.231-20.231
			c0-11.174,9.057-20.231,20.231-20.231h180.523c11.174,0,20.231,9.057,20.231,20.231
			C428.742,222.821,419.684,231.878,408.511,231.878z M408.511,136.948H227.988c-11.174,0-20.231-9.057-20.231-20.231
			c0-11.174,9.057-20.231,20.231-20.231h180.523c11.174,0,20.231,9.057,20.231,20.231
			C428.742,127.891,419.684,136.948,408.511,136.948z"/>
	</g>
</g>
<g>
	<g>
		<path d="M60.601,0c-8.595,0-17.027,6.342-17.027,14.937v69.1h28.79c11.174,0,20.231,9.057,20.231,20.231
			c0,11.174-9.057,20.231-20.231,20.231h-28.79v62.249h28.79c11.174,0,20.231,9.057,20.231,20.231
			c0,11.174-9.057,20.231-20.231,20.231h-28.79v62.249h28.79c11.174,0,20.231,9.057,20.231,20.231
			c0,11.174-9.057,20.231-20.231,20.231h-28.79v62.249h28.79c11.174,0,20.231,9.057,20.231,20.231
			c0,11.174-9.057,20.231-20.231,20.231h-28.79v62.375c0,8.595,8.432,16.992,17.027,16.992h71.678V0H60.601z"/>
	</g>
</g>
<g>
</g>
<g>
</g>
<g>
</g>
<g>
</g>
<g>
</g>
<g>
</g>
<g>
</g>
<g>
</g>
<g>
</g>
<g>
</g>
<g>
</g>
<g>
</g>
<g>
</g>
<g>
</g>
<g>
</g>
</svg>
