<?xml version="1.0" encoding="iso-8859-1"?>
<!-- Generator: Adobe Illustrator 19.0.0, SVG Export Plug-In . SVG Version: 6.00 Build 0)  -->
<svg version="1.1" id="Layer_1" xmlns="http://www.w3.org/2000/svg" xmlns:xlink="http://www.w3.org/1999/xlink" x="0px" y="0px"
	 viewBox="0 0 512 512" style="enable-background:new 0 0 512 512;" xml:space="preserve">
<g>
	<g>
		<path d="M505.901,12.451c-8.13-8.132-21.314-8.132-29.446,0l-6.067,6.067c-2.932-0.408-5.992,0.118-8.71,1.645l-75.945,42.654
			l69.467,69.467l42.653-75.944c1.421-2.531,1.966-5.357,1.706-8.1l6.344-6.344C514.033,33.766,514.033,20.583,505.901,12.451z"/>
	</g>
</g>
<g>
	<g>
		<path d="M70.341,341.791l-54.242,54.245c-5.421,5.421-5.421,14.21,0,19.631l86.252,86.252c5.421,5.421,14.21,5.421,19.631,0
			l54.243-54.243L70.341,341.791z"/>
	</g>
</g>
<g>
	<g>
		<path d="M438.4,174.379c-0.666-1.911-1.748-3.709-3.275-5.236l-86.252-86.252c-1.527-1.527-3.326-2.608-5.237-3.275
			c-4.872-1.7-10.5-0.619-14.393,3.275l-44.114,44.114l105.884,105.884l44.113-44.116C439.019,184.88,440.101,179.252,438.4,174.379
			z"/>
	</g>
</g>
<g>
	<g>
		<path d="M49.987,20.165c-2.531-1.421-5.355-1.966-8.098-1.706l-6.344-6.344c-8.13-8.132-21.314-8.132-29.446,0
			c-8.132,8.132-8.132,21.314,0,29.446l6.067,6.067c-0.408,2.932,0.118,5.992,1.645,8.712l42.654,75.945l69.467-69.467
			L49.987,20.165z"/>
	</g>
</g>
<g>
	<g>
		<path d="M182.42,82.891c-0.561-0.561-1.163-1.048-1.788-1.492c-3.717-2.644-8.434-3.238-12.605-1.782
			c-1.911,0.666-3.709,1.748-5.237,3.275l-86.252,86.252c-1.527,1.527-2.608,3.326-3.275,5.236c-1.7,4.872-0.619,10.5,3.275,14.395
			l73.412,73.412l-50.161,50.161L205.672,418.23l50.161-50.161l50.161,50.161l105.883-105.884L182.42,82.891z"/>
	</g>
</g>
<g>
	<g>
		<path d="M497.056,397.823c-0.444-0.625-0.933-1.228-1.492-1.788l-54.242-54.243L335.438,447.675l54.243,54.243
			c5.421,5.421,14.21,5.421,19.631,0l86.252-86.252C500.425,410.805,500.912,403.244,497.056,397.823z"/>
	</g>
</g>
<g>
</g>
<g>
</g>
<g>
</g>
<g>
</g>
<g>
</g>
<g>
</g>
<g>
</g>
<g>
</g>
<g>
</g>
<g>
</g>
<g>
</g>
<g>
</g>
<g>
</g>
<g>
</g>
<g>
</g>
</svg>
