<?xml version="1.0" encoding="iso-8859-1"?>
<!-- Generator: Adobe Illustrator 19.0.0, SVG Export Plug-In . SVG Version: 6.00 Build 0)  -->
<svg version="1.1" id="Layer_1" xmlns="http://www.w3.org/2000/svg" xmlns:xlink="http://www.w3.org/1999/xlink" x="0px" y="0px"
	 viewBox="0 0 511.999 511.999" style="enable-background:new 0 0 511.999 511.999;" xml:space="preserve">
<g>
	<g>
		<path d="M396.283,101.616h-53.602V13.559c0-9.826-10.421-16.381-19.384-12.353L109.445,97.383
			c-4.864,2.186-7.847,7.021-7.847,12.354v388.078c0,7.48,5.489,14.185,12.97,14.185h281.715c7.48,0,14.118-6.704,14.118-14.185
			V114.519C410.4,107.039,403.762,101.616,396.283,101.616z M174.734,218.094c0-7.48,6.064-13.544,13.544-13.544h135.44
			c7.48,0,13.544,6.064,13.544,13.544V339.99c0,7.48-6.064,13.544-13.544,13.544h-135.44c-7.48,0-13.544-6.064-13.544-13.544
			V218.094z M318.074,446.988H192.772c-11.22,0-20.316-9.096-20.316-20.316s9.096-20.316,20.316-20.316h125.302
			c11.22,0,20.316,9.096,20.316,20.316S329.296,446.988,318.074,446.988z"/>
	</g>
</g>
<g>
</g>
<g>
</g>
<g>
</g>
<g>
</g>
<g>
</g>
<g>
</g>
<g>
</g>
<g>
</g>
<g>
</g>
<g>
</g>
<g>
</g>
<g>
</g>
<g>
</g>
<g>
</g>
<g>
</g>
</svg>
