<?xml version="1.0" encoding="iso-8859-1"?>
<!-- Generator: Adobe Illustrator 19.0.0, SVG Export Plug-In . SVG Version: 6.00 Build 0)  -->
<svg version="1.1" id="Layer_1" xmlns="http://www.w3.org/2000/svg" xmlns:xlink="http://www.w3.org/1999/xlink" x="0px" y="0px"
	 viewBox="0 0 512 512" style="enable-background:new 0 0 512 512;" xml:space="preserve">
<g>
	<g>
		<g>
			<path d="M0,287.422v163.586c0,8.595,7.745,15.861,16.34,15.861h178.188V71.58C85.61,83.226,0,175.412,0,287.422z"/>
			<path d="M499.651,129.972l-21.888-4.62V59.436c0-8.595-6.189-14.305-14.784-14.305h-94.93c-8.595,0-16.34,5.71-16.34,14.305
				v39.307L241.216,75.256v195.528H392.17v38.128c0,12.892,10.452,23.343,23.343,23.343c12.892,0,23.344-10.452,23.344-23.343
				v-38.128h58.359c8.595,0,14.784-8.225,14.784-16.82V145.199C512,137.842,506.849,131.491,499.651,129.972z"/>
			<path d="M484.766,393.725h-243.55v73.143h256v0.002c8.595,0,14.784-7.266,14.784-15.861V420.48
				C512,405.009,500.236,393.725,484.766,393.725z"/>
		</g>
	</g>
</g>
<g>
</g>
<g>
</g>
<g>
</g>
<g>
</g>
<g>
</g>
<g>
</g>
<g>
</g>
<g>
</g>
<g>
</g>
<g>
</g>
<g>
</g>
<g>
</g>
<g>
</g>
<g>
</g>
<g>
</g>
</svg>
