<?xml version="1.0" encoding="iso-8859-1"?>
<!-- Generator: Adobe Illustrator 19.0.0, SVG Export Plug-In . SVG Version: 6.00 Build 0)  -->
<svg version="1.1" id="Layer_1" xmlns="http://www.w3.org/2000/svg" xmlns:xlink="http://www.w3.org/1999/xlink" x="0px" y="0px"
	 viewBox="0 0 512 512" style="enable-background:new 0 0 512 512;" xml:space="preserve">
<g>
	<g>
		<path d="M425.866,110.787L322.499,4.216C319.456,1.069,315.655,0,311.278,0H202.313c-4.377,0-8.567,1.069-11.61,4.216
			L86.93,111.141c-2.914,3.011-4.558,6.683-4.558,10.875v372.218c0,8.92,7.263,17.767,16.184,17.767h316.479
			c8.92,0,14.593-8.846,14.593-17.767V122.016C429.628,117.825,428.778,113.798,425.866,110.787z M256.795,90.627
			c44.092,0,79.962,35.871,79.962,79.962c0,44.092-35.871,79.962-79.962,79.962c-44.09,0-79.961-35.871-79.961-79.962
			C176.834,126.498,212.705,90.627,256.795,90.627z M341.603,442.549H170.397c-13.38,0-24.227-10.847-24.227-24.227
			s10.847-24.227,24.227-24.227h171.205c13.38,0,24.227,10.847,24.227,24.227S354.982,442.549,341.603,442.549z M341.603,360.177
			H170.397c-13.38,0-24.227-10.847-24.227-24.227s10.847-24.227,24.227-24.227h171.205c13.38,0,24.227,10.847,24.227,24.227
			S354.982,360.177,341.603,360.177z"/>
	</g>
</g>
<g>
	<g>
		<path d="M256.795,139.081c-17.372,0-31.507,14.134-31.507,31.508c0,17.374,14.134,31.508,31.507,31.508
			c17.374,0,31.508-14.134,31.508-31.508C288.303,153.216,274.169,139.081,256.795,139.081z"/>
	</g>
</g>
<g>
</g>
<g>
</g>
<g>
</g>
<g>
</g>
<g>
</g>
<g>
</g>
<g>
</g>
<g>
</g>
<g>
</g>
<g>
</g>
<g>
</g>
<g>
</g>
<g>
</g>
<g>
</g>
<g>
</g>
</svg>
