<?xml version="1.0" encoding="iso-8859-1"?>
<!-- Generator: Adobe Illustrator 16.0.0, SVG Export Plug-In . SVG Version: 6.00 Build 0)  -->
<!DOCTYPE svg PUBLIC "-//W3C//DTD SVG 1.1//EN" "http://www.w3.org/Graphics/SVG/1.1/DTD/svg11.dtd">
<svg version="1.1" id="Capa_1" xmlns="http://www.w3.org/2000/svg" xmlns:xlink="http://www.w3.org/1999/xlink" x="0px" y="0px"
	 width="497.406px" height="497.405px" viewBox="0 0 497.406 497.405" style="enable-background:new 0 0 497.406 497.405;"
	 xml:space="preserve">
<g>
	<path d="M330.744,389.434c-22.42,10.983-41.971,23.77-57.074,36.654V263.385c4.539-5.363,14.146-18.177,14.146-18.177
		l109.644-46.964l48.633-155.887c0,0-81.387-6.417-138.717,34.197C285.001,31.001,248.701,0,248.701,0S212.4,31,190.027,76.555
		C132.697,35.94,51.312,42.357,51.312,42.357l48.634,155.886l109.642,46.964c0,0,9.605,12.814,14.143,18.178v162.699
		c-15.105-12.883-34.652-25.668-57.07-36.65c-59.756-29.273-128.277-12.021-128.277-12.021s28.365,64.715,88.122,93.991
		c37.042,18.146,73.174,27.095,97.942,25.895c0,0,10.479,0.055,24.254,0.055s24.256-0.055,24.256-0.055
		c24.768,1.201,60.898-7.747,97.941-25.895c59.758-29.275,88.121-93.991,88.121-93.991S390.498,360.161,330.744,389.434z"/>
</g>
<g>
</g>
<g>
</g>
<g>
</g>
<g>
</g>
<g>
</g>
<g>
</g>
<g>
</g>
<g>
</g>
<g>
</g>
<g>
</g>
<g>
</g>
<g>
</g>
<g>
</g>
<g>
</g>
<g>
</g>
</svg>
