<?xml version="1.0" encoding="iso-8859-1"?>
<!-- Generator: Adobe Illustrator 16.0.0, SVG Export Plug-In . SVG Version: 6.00 Build 0)  -->
<!DOCTYPE svg PUBLIC "-//W3C//DTD SVG 1.1//EN" "http://www.w3.org/Graphics/SVG/1.1/DTD/svg11.dtd">
<svg version="1.1" id="Capa_1" xmlns="http://www.w3.org/2000/svg" xmlns:xlink="http://www.w3.org/1999/xlink" x="0px" y="0px"
	 width="458px" height="458px" viewBox="0 0 458 458" style="enable-background:new 0 0 458 458;" xml:space="preserve">
<g>
	<g>
		<path d="M458,164.416c0,0-31-155.25-229-155.25S0,164.416,0,164.416s60.959,60.992,229,60.992S458,164.416,458,164.416z"/>
		<path d="M296.762,269.125C297.627,274.117,295.057,259.141,296.762,269.125L296.762,269.125z"/>
		<path d="M290.24,244.908c-24.494,2.447-49.148,3.279-73.757,2.822c-16.27-0.304-32.53-1.205-48.724-2.822
			c-8.465,21.867-10.131,46.234-8.187,69.424c2.148,25.627,8.701,50.973,18.908,74.562c4.835,11.175,10.521,21.979,17.054,32.255
			c6.108,9.604,12.957,18.829,20.82,27.073c0.198,0.203,0.396,0.408,0.596,0.611h24.098c7.718-7.906,14.405-16.857,20.408-26.117
			c6.617-10.207,12.381-20.959,17.301-32.084c10.399-23.514,17.124-48.807,19.503-74.418c1.454-15.662,1.19-31.57-1.499-47.09
			C295.354,260.883,293.261,252.713,290.24,244.908z"/>
	</g>
</g>
<g>
</g>
<g>
</g>
<g>
</g>
<g>
</g>
<g>
</g>
<g>
</g>
<g>
</g>
<g>
</g>
<g>
</g>
<g>
</g>
<g>
</g>
<g>
</g>
<g>
</g>
<g>
</g>
<g>
</g>
</svg>
