<?xml version="1.0" encoding="iso-8859-1"?>
<!-- Generator: Adobe Illustrator 18.1.1, SVG Export Plug-In . SVG Version: 6.00 Build 0)  -->
<svg version="1.1" id="Capa_1" xmlns="http://www.w3.org/2000/svg" xmlns:xlink="http://www.w3.org/1999/xlink" x="0px" y="0px"
	 viewBox="0 0 468.395 468.395" style="enable-background:new 0 0 468.395 468.395;" xml:space="preserve">
<polygon points="450.873,174.638 393.639,95.185 258.871,141.12 257.746,136.896 267.885,122.655 260.578,95.291 237.773,112.088 
	237.438,113.099 234.197,110.758 230.956,113.099 230.62,112.088 207.816,95.291 200.51,122.655 210.648,136.896 209.523,141.12 
	74.756,95.185 17.521,174.638 0,373.21 105.566,238.708 106.603,238.952 133.705,305.198 204.636,261.76 217.261,290.421 
	234.197,277.625 251.133,290.421 263.758,261.76 334.689,305.198 361.791,238.952 362.828,238.708 468.395,373.21 "/>
<g>
</g>
<g>
</g>
<g>
</g>
<g>
</g>
<g>
</g>
<g>
</g>
<g>
</g>
<g>
</g>
<g>
</g>
<g>
</g>
<g>
</g>
<g>
</g>
<g>
</g>
<g>
</g>
<g>
</g>
</svg>
