<?xml version="1.0" encoding="iso-8859-1"?>
<!-- Generator: Adobe Illustrator 19.0.0, SVG Export Plug-In . SVG Version: 6.00 Build 0)  -->
<svg xmlns="http://www.w3.org/2000/svg" xmlns:xlink="http://www.w3.org/1999/xlink" version="1.1" id="Capa_1" x="0px" y="0px" viewBox="0 0 512 512" style="enable-background:new 0 0 512 512;" xml:space="preserve">
<g>
	<g>
		<path d="M66.756,166.144c-14.661,0-26.937,10.173-30.177,23.843h60.354C93.693,176.317,81.417,166.144,66.756,166.144z"/>
	</g>
</g>
<g>
	<g>
		<path d="M157.627,166.144c-14.661,0-26.938,10.173-30.177,23.843h60.354C184.564,176.317,172.287,166.144,157.627,166.144z"/>
	</g>
</g>
<g>
	<g>
		<path d="M248.498,166.144c-14.661,0-26.937,10.173-30.177,23.843h60.354C275.435,176.317,263.158,166.144,248.498,166.144z"/>
	</g>
</g>
<g>
	<g>
		<circle cx="117.03" cy="143.88" r="31.02"/>
	</g>
</g>
<g>
	<g>
		<circle cx="207.91" cy="143.88" r="31.02"/>
	</g>
</g>
<g>
	<g>
		<circle cx="298.78" cy="143.88" r="31.02"/>
	</g>
</g>
<g>
	<g>
		<path d="M0,431.332v9.495c0,9.514,7.739,17.253,17.253,17.253h371.618c9.514,0,17.254-7.739,17.254-17.253v-9.495H0z"/>
	</g>
</g>
<g>
	<g>
		<path d="M511.209,385.106L365.163,61.403c-2.028-4.495-7.333-6.504-11.832-4.475L337.48,64.08l-0.607-1.346    c-3.399-7.534-12.263-10.885-19.795-7.486c-7.533,3.399-10.885,12.261-7.486,19.795l0.393,0.872l41.899,92.866    c-3.829-1.691-8.06-2.637-12.515-2.637c-14.66,0-26.937,10.173-30.177,23.843h52.26l13.503,29.929H0v26.749h387.023l13.503,29.929    H0v124.809h406.125V289.004l29.929,66.336l27.761,61.532l0.394,0.872c2.498,5.536,7.946,8.813,13.649,8.813    c2.058,0,4.148-0.427,6.146-1.328c7.533-3.399,10.885-12.261,7.486-19.795l-0.607-1.345l15.851-7.152    C511.23,394.909,513.237,389.601,511.209,385.106z M203.062,384.993c-43.772,0-88.083-15.799-88.083-45.995    s44.311-45.995,88.083-45.995c43.772,0,88.083,15.799,88.083,45.995S246.835,384.993,203.062,384.993z"/>
	</g>
</g>
<g>
	<g>
		<path d="M203.062,322.932c-35.611,0-55.686,11.315-58.053,16.066c2.366,4.751,22.442,16.066,58.053,16.066    c35.611,0,55.687-11.315,58.053-16.066C258.749,334.247,238.673,322.932,203.062,322.932z"/>
	</g>
</g>
<g>
</g>
<g>
</g>
<g>
</g>
<g>
</g>
<g>
</g>
<g>
</g>
<g>
</g>
<g>
</g>
<g>
</g>
<g>
</g>
<g>
</g>
<g>
</g>
<g>
</g>
<g>
</g>
<g>
</g>
</svg>
