<?xml version="1.0" encoding="iso-8859-1"?>
<!-- Generator: Adobe Illustrator 19.0.0, SVG Export Plug-In . SVG Version: 6.00 Build 0)  -->
<svg xmlns="http://www.w3.org/2000/svg" xmlns:xlink="http://www.w3.org/1999/xlink" version="1.1" id="Capa_1" x="0px" y="0px" viewBox="0 0 512 512" style="enable-background:new 0 0 512 512;" xml:space="preserve">
<g>
	<g>
		<g>
			<polygon points="511.999,298.822 511.999,298.823 512,298.822    "/>
			<path d="M472.779,311.086h-176.44c-2.043,5.804-7.559,9.971-14.061,9.971h-52.555c-6.502,0-12.018-4.167-14.061-9.971H39.221     c-14.559,0-28.073-4.54-39.221-12.264v78.696c0,25.516,20.759,46.275,46.275,46.275h419.449     c25.516,0,46.275-20.759,46.275-46.275v-78.695C500.85,306.545,487.338,311.086,472.779,311.086z M102.344,387.932     c-1.023,7.241-7.229,12.817-14.753,12.817s-13.73-5.576-14.753-12.817c-7.242-1.023-12.817-7.229-12.817-14.753     s5.576-13.73,12.817-14.753c1.023-7.241,7.229-12.817,14.753-12.817s13.73,5.576,14.753,12.817     c7.242,1.023,12.817,7.229,12.817,14.753C115.161,380.702,109.585,386.908,102.344,387.932z M176.483,388.097h-9.376     c-8.239,0-14.918-6.679-14.918-14.918s6.679-14.918,14.918-14.918h9.376c8.239,0,14.918,6.679,14.918,14.918     S184.722,388.097,176.483,388.097z M270.753,387.932c-1.023,7.241-7.229,12.817-14.753,12.817s-13.73-5.576-14.753-12.817     c-7.242-1.023-12.817-7.229-12.817-14.753s5.576-13.73,12.817-14.753c1.023-7.241,7.229-12.817,14.753-12.817     s13.73,5.576,14.753,12.817c7.242,1.023,12.817,7.229,12.817,14.753C283.57,380.702,277.995,386.908,270.753,387.932z      M349.58,388.097h-9.375c-8.239,0-14.918-6.679-14.918-14.918s6.679-14.918,14.918-14.918h9.375     c8.239,0,14.918,6.679,14.918,14.918S357.819,388.097,349.58,388.097z M439.162,387.932c-1.023,7.241-7.229,12.817-14.753,12.817     s-13.73-5.576-14.753-12.817c-7.242-1.023-12.817-7.229-12.817-14.753s5.576-13.73,12.817-14.753     c1.023-7.241,7.229-12.817,14.753-12.817s13.73,5.576,14.753,12.817c7.242,1.023,12.817,7.229,12.817,14.753     C451.98,380.702,446.404,386.908,439.162,387.932z"/>
		</g>
	</g>
</g>
<g>
	<g>
		<path d="M497,88.207H15c-8.284,0-15,6.716-15,15v138.821c0,21.661,17.56,39.221,39.221,39.221h433.557    c21.661,0,39.221-17.56,39.221-39.221V103.207C512,94.922,505.284,88.207,497,88.207z M419.722,133.1h9.375    c8.239,0,14.918,6.679,14.918,14.918s-6.679,14.918-14.918,14.918h-9.375c-8.239,0-14.918-6.679-14.918-14.918    S411.483,133.1,419.722,133.1z M251.312,133.1h9.376c8.239,0,14.918,6.679,14.918,14.918s-6.679,14.918-14.918,14.918h-9.376    c-8.239,0-14.918-6.679-14.918-14.918S243.073,133.1,251.312,133.1z M82.903,133.1h9.375c8.239,0,14.918,6.679,14.918,14.918    s-6.679,14.918-14.918,14.918h-9.375c-8.239,0-14.918-6.679-14.918-14.918C67.984,139.779,74.664,133.1,82.903,133.1z     M102.344,241.835c-1.023,7.241-7.229,12.817-14.753,12.817s-13.73-5.576-14.753-12.817c-7.242-1.023-12.817-7.229-12.817-14.753    s5.576-13.73,12.817-14.753c1.023-7.241,7.229-12.817,14.753-12.817s13.73,5.576,14.753,12.817    c7.242,1.023,12.817,7.229,12.817,14.753S109.585,240.812,102.344,241.835z M176.483,242h-9.376    c-8.239,0-14.918-6.679-14.918-14.918c0-8.239,6.679-14.918,14.918-14.918h9.376c8.239,0,14.918,6.679,14.918,14.918    C191.401,235.321,184.722,242,176.483,242z M186.548,162.77c-1.023,7.241-7.229,12.817-14.753,12.817    c-7.524,0-13.73-5.576-14.753-12.817c-7.242-1.023-12.817-7.229-12.817-14.753c0-7.524,5.575-13.73,12.817-14.753    c1.023-7.241,7.229-12.817,14.753-12.817c7.524,0,13.73,5.576,14.753,12.817c7.242,1.023,12.817,7.229,12.817,14.753    C199.365,155.541,193.789,161.747,186.548,162.77z M270.753,241.835c-1.023,7.241-7.229,12.817-14.753,12.817    s-13.73-5.576-14.753-12.817c-7.242-1.023-12.817-7.229-12.817-14.753s5.576-13.73,12.817-14.753    c1.023-7.241,7.229-12.817,14.753-12.817s13.73,5.576,14.753,12.817c7.242,1.023,12.817,7.229,12.817,14.753    S277.994,240.812,270.753,241.835z M349.58,242h-9.375c-8.239,0-14.918-6.679-14.918-14.918c0-8.239,6.679-14.918,14.918-14.918    h9.375c8.239,0,14.918,6.679,14.918,14.918C364.498,235.321,357.819,242,349.58,242z M354.958,162.77    c-1.023,7.241-7.229,12.817-14.753,12.817s-13.73-5.576-14.753-12.817c-7.242-1.023-12.817-7.229-12.817-14.753    c0-7.524,5.576-13.73,12.817-14.753c1.023-7.241,7.229-12.817,14.753-12.817s13.73,5.576,14.753,12.817    c7.242,1.023,12.817,7.229,12.817,14.753C367.775,155.541,362.199,161.747,354.958,162.77z M439.162,241.835    c-1.023,7.241-7.229,12.817-14.753,12.817c-7.524,0-13.73-5.576-14.753-12.817c-7.242-1.023-12.817-7.229-12.817-14.753    s5.576-13.73,12.817-14.753c1.023-7.241,7.229-12.817,14.753-12.817s13.73,5.576,14.753,12.817    c7.242,1.023,12.817,7.229,12.817,14.753S446.403,240.812,439.162,241.835z"/>
	</g>
</g>
<g>
</g>
<g>
</g>
<g>
</g>
<g>
</g>
<g>
</g>
<g>
</g>
<g>
</g>
<g>
</g>
<g>
</g>
<g>
</g>
<g>
</g>
<g>
</g>
<g>
</g>
<g>
</g>
<g>
</g>
</svg>
