<?xml version="1.0" encoding="iso-8859-1"?>
<!-- Generator: Adobe Illustrator 19.0.0, SVG Export Plug-In . SVG Version: 6.00 Build 0)  -->
<svg xmlns="http://www.w3.org/2000/svg" xmlns:xlink="http://www.w3.org/1999/xlink" version="1.1" id="Capa_1" x="0px" y="0px" viewBox="0 0 512 512" style="enable-background:new 0 0 512 512;" xml:space="preserve">
<g>
	<g>
		<path d="M271.842,0h-31.69c-8.284,0-15,6.716-15,15v42.557h61.69V15C286.842,6.716,280.126,0,271.842,0z"/>
	</g>
</g>
<g>
	<g>
		<path d="M316.917,157.65l-21.163-9.398c-5.419-2.406-8.911-7.779-8.911-13.708V87.555h-61.69v46.988    c0,5.929-3.493,11.302-8.911,13.708l-21.163,9.398c-11.672,5.183-19.213,16.785-19.213,29.556v9.992h160.265v-9.991    C336.131,174.434,328.59,162.833,316.917,157.65z"/>
	</g>
</g>
<g>
	<g>
		<path d="M175.863,482c0,16.569,13.431,30,30,30H306.13c16.569,0,30-13.431,30-30v-18.334H175.863V482z"/>
	</g>
</g>
<g>
	<g>
		<rect x="175.867" y="227.19" width="160.27" height="206.47"/>
	</g>
</g>
<g>
</g>
<g>
</g>
<g>
</g>
<g>
</g>
<g>
</g>
<g>
</g>
<g>
</g>
<g>
</g>
<g>
</g>
<g>
</g>
<g>
</g>
<g>
</g>
<g>
</g>
<g>
</g>
<g>
</g>
</svg>
