<?xml version="1.0" encoding="iso-8859-1"?>
<!-- Generator: Adobe Illustrator 19.0.0, SVG Export Plug-In . SVG Version: 6.00 Build 0)  -->
<svg xmlns="http://www.w3.org/2000/svg" xmlns:xlink="http://www.w3.org/1999/xlink" version="1.1" id="Capa_1" x="0px" y="0px" viewBox="0 0 512 512" style="enable-background:new 0 0 512 512;" xml:space="preserve">
<g>
	<g>
		<path d="M31.163,377.616v101.92c0,8.284,6.716,15,15,15H485.65c8.284,0,15-6.716,15-15v-101.92H31.163z"/>
	</g>
</g>
<g>
	<g>
		<path d="M497,309.551h-39.513c0.893-1.87,1.425-3.946,1.475-6.147l1.892-83.991l7.962-4.834    c19.487-11.828,33.221-31.434,37.681-53.791c4.217-21.14-0.168-43.19-12.035-61.085l-9.957-57.848    c-0.991-5.757-5.216-10.426-10.847-11.985c-5.631-1.558-11.655,0.271-15.467,4.698c-42.692,49.587-92.221,92.711-147.215,128.174    l-53.956,33.614c-4.929,3.072-11.322,2.162-15.201-2.163l-22.472-25.065c-5.141-5.736-13.776-6.679-20.035-2.189l-117.795,84.49    c-0.154,0.11-0.307,0.224-0.457,0.341c-10.062,7.809-13.897,20.641-9.77,32.691c4.127,12.049,15.024,19.836,27.761,19.836h125.693    c14.733,0,29.127-4.114,41.634-11.897l70.144-42.651c25.014-15.209,53.709-23.25,82.984-23.25h5.473l3.817,77.31    c0.101,2.054,0.614,3.992,1.449,5.743h-135.91l-12.677,7.708c-17.105,10.611-36.782,16.218-56.915,16.218H99.051    c-19.347,0-36.558-9.014-47.305-23.926H34.814c-8.284,0-15,6.716-15,15v7.808c0,8.284,6.716,15,15,15H497c8.284,0,15-6.716,15-15    v-7.808C512,316.267,505.284,309.551,497,309.551z"/>
	</g>
</g>
<g>
	<g>
		<path d="M358.62,270.758l0.489,8.607l0.039,0.691c0.456,8.001,7.079,14.237,15.066,14.237c0.079,0,0.158-0.001,0.237-0.002    c8.093-0.125,14.646-6.61,14.856-14.702l0.006-0.225l0.524-20.26C379.005,261.632,368.513,265.541,358.62,270.758z"/>
	</g>
</g>
<g>
	<g>
		<path d="M149.693,157.27c-5.14-5.736-13.776-6.679-20.035-2.189L11.863,239.569c-0.154,0.11-0.307,0.224-0.457,0.341    c-10.062,7.809-13.897,20.641-9.77,32.691c0.837,2.443,1.964,4.7,3.317,6.764c5.317,8.112,14.29,13.072,24.445,13.072h13.81    c-7.427-23.597,0.303-48.463,19.959-63.72c0.445-0.346,0.921-0.701,1.402-1.044l90.224-64.714L149.693,157.27z"/>
	</g>
</g>
<g>
	<g>
		<path d="M414.85,29.997c-0.991-5.758-5.216-10.426-10.847-11.986c-5.632-1.559-11.656,0.272-15.467,4.698    c-42.552,49.425-91.902,92.424-146.675,127.818l12.017,13.404l41.475-25.836c44.228-28.542,84.745-62.284,120.804-100.505    L414.85,29.997z"/>
	</g>
</g>
<g>
</g>
<g>
</g>
<g>
</g>
<g>
</g>
<g>
</g>
<g>
</g>
<g>
</g>
<g>
</g>
<g>
</g>
<g>
</g>
<g>
</g>
<g>
</g>
<g>
</g>
<g>
</g>
<g>
</g>
</svg>
