<?xml version="1.0" encoding="iso-8859-1"?>
<!-- Generator: Adobe Illustrator 19.0.0, SVG Export Plug-In . SVG Version: 6.00 Build 0)  -->
<svg xmlns="http://www.w3.org/2000/svg" xmlns:xlink="http://www.w3.org/1999/xlink" version="1.1" id="Capa_1" x="0px" y="0px" viewBox="0 0 512 512" style="enable-background:new 0 0 512 512;" xml:space="preserve">
<g>
	<g>
		<path d="M496.967,265.582h-230.53L53.229,314.516c-3.38,0.775-6.79,1.159-10.174,1.159c-6.829,0-13.548-1.586-19.741-4.633V466.5    c0,8.288,6.744,15.033,15.032,15.033h458.621c8.289,0,15.033-6.744,15.033-15.033V280.615    C512,272.325,505.256,265.582,496.967,265.582z M486.325,388.564l-9.338,0.55c-2.298,0.181-8.864,3.318-13.502,6.453    c-2.486,1.681-5.443,2.596-8.445,2.596h-26.308c-3.458,12.193-14.683,21.153-27.969,21.153H251.792v32.825    c0,8.302-6.73,15.033-15.032,15.033s-15.032-6.73-15.032-15.033v-32.825H80.862c-23.223,0-42.116-18.893-42.116-42.116v-7.287    c0-23.223,18.893-42.115,42.116-42.115h140.864v-30.194c0-8.302,6.73-15.032,15.032-15.032s15.032,6.73,15.032,15.032v30.194    h148.973c13.286,0,24.51,8.961,27.969,21.153h26.308c3.021,0,5.971,0.91,8.467,2.612c4.616,3.121,11.182,6.258,13.488,6.439    l9.328,0.55c7.945,0.468,14.148,7.047,14.148,15.006C500.473,381.516,494.27,388.096,486.325,388.564z"/>
	</g>
</g>
<g>
	<g>
		<path d="M504.792,164.606L476.685,42.143c-0.898-3.914-3.267-7.243-6.669-9.376c-2.423-1.518-5.164-2.3-7.954-2.3    c-1.128,0-2.265,0.128-3.392,0.387L11.672,133.445c-8.079,1.854-13.143,9.936-11.289,18.015l28.106,122.463    c0.898,3.914,3.267,7.243,6.669,9.376c3.402,2.132,7.431,2.81,11.345,1.913l447-102.592c3.913-0.898,7.243-3.267,9.375-6.669    C505.01,172.549,505.69,168.52,504.792,164.606z"/>
	</g>
</g>
<g>
	<g>
		<rect x="251.79" y="357.86" width="147.98" height="31.389"/>
	</g>
</g>
<g>
	<g>
		<path d="M80.862,357.863c-6.645,0-12.051,5.406-12.051,12.05v7.287c0,6.645,5.406,12.051,12.051,12.051h140.865v-31.388H80.862z"/>
	</g>
</g>
<g>
</g>
<g>
</g>
<g>
</g>
<g>
</g>
<g>
</g>
<g>
</g>
<g>
</g>
<g>
</g>
<g>
</g>
<g>
</g>
<g>
</g>
<g>
</g>
<g>
</g>
<g>
</g>
<g>
</g>
</svg>
