<?xml version="1.0" encoding="iso-8859-1"?>
<!-- Generator: Adobe Illustrator 19.0.0, SVG Export Plug-In . SVG Version: 6.00 Build 0)  -->
<svg xmlns="http://www.w3.org/2000/svg" xmlns:xlink="http://www.w3.org/1999/xlink" version="1.1" id="Capa_1" x="0px" y="0px" viewBox="0 0 512.001 512.001" style="enable-background:new 0 0 512.001 512.001;" xml:space="preserve">
<g>
	<g>
		<path d="M507.19,305.1v-63.349c0-8.297-6.726-15.024-15.024-15.024h-74.571l-59.904-57.864c-2.801-2.705-6.543-4.218-10.438-4.218    H46.657c-8.297,0-15.024,6.726-15.024,15.024c0,8.297,6.726,15.024,15.024,15.024h0.086l-7.112,32.067    C17.666,227.427,0,245.491,0,267.616v48.503c0,8.297,6.726,15.024,15.024,15.024h17.823c-0.715-3.608-1.099-7.333-1.099-11.148    c0-31.552,25.669-57.221,57.221-57.221s57.221,25.669,57.221,57.221c0,3.815-0.383,7.54-1.099,11.148h208.877    c-0.715-3.608-1.098-7.333-1.098-11.148c0-31.552,25.669-57.221,57.221-57.221s57.221,25.669,57.221,57.221    c0,3.815-0.383,7.54-1.098,11.148h30.763c8.297,0,15.024-6.726,15.024-15.024C512,311.765,510.148,307.844,507.19,305.1z     M98.746,226.728h-28.33l7.105-32.035h21.225V226.728z M157.319,226.728h-28.526v-32.035h28.526V226.728z M215.892,226.728    h-28.526v-32.035h28.526V226.728z M274.465,226.728h-28.526v-32.035h28.526V226.728z M304.513,226.727v-32.035h36.67    l33.164,32.035H304.513z"/>
	</g>
</g>
<g>
	<g>
		<circle cx="88.969" cy="319.992" r="27.364"/>
	</g>
</g>
<g>
	<g>
		<circle cx="410.09" cy="319.992" r="27.364"/>
	</g>
</g>
<g>
</g>
<g>
</g>
<g>
</g>
<g>
</g>
<g>
</g>
<g>
</g>
<g>
</g>
<g>
</g>
<g>
</g>
<g>
</g>
<g>
</g>
<g>
</g>
<g>
</g>
<g>
</g>
<g>
</g>
</svg>
