<?xml version="1.0" encoding="iso-8859-1"?>
<!-- Generator: Adobe Illustrator 19.0.0, SVG Export Plug-In . SVG Version: 6.00 Build 0)  -->
<svg xmlns="http://www.w3.org/2000/svg" xmlns:xlink="http://www.w3.org/1999/xlink" version="1.1" id="Capa_1" x="0px" y="0px" viewBox="0 0 512 512" style="enable-background:new 0 0 512 512;" xml:space="preserve">
<g>
	<g>
		<path d="M468.41,5.332c-5.341-6.336-14.805-7.139-21.139-1.799L282.912,142.114c-3.572,3.012-7.607,5.372-11.91,7.029v-1.873    c0-8.285-6.717-15.002-15.002-15.002c-8.285,0-15.002,6.717-15.002,15.002v1.873c-4.303-1.657-8.339-4.017-11.91-7.029    L64.729,3.533C58.396-1.806,48.932-1.002,43.59,5.332c-5.34,6.334-4.535,15.799,1.799,21.139l148.326,125.063l14.753,12.439    H176.29c-6.664,0-12.679,4.297-14.531,10.698c-0.063,0.219-0.143,0.431-0.211,0.649l26.365,27.276h135.723l26.737-27.517    c-0.041-0.137-0.093-0.271-0.133-0.409c-1.852-6.401-7.867-10.698-14.531-10.698h-32.178l14.753-12.439L466.611,26.471    C472.945,21.131,473.75,11.666,468.41,5.332z"/>
	</g>
</g>
<g>
	<g>
		<path d="M142.056,198.32c-2.069,1.038-4.241,1.903-6.503,2.557c-6.401,1.852-10.698,7.867-10.698,14.531v245.157    c0,6.664,4.297,12.679,10.698,14.531c2.193,0.635,4.299,1.471,6.312,2.467l24.685-25.385V223.661L142.056,198.32z"/>
	</g>
</g>
<g>
	<g>
		<path d="M323.663,473.268H187.886v0.001l-26.411,27.16c0.092,0.292,0.198,0.578,0.283,0.873    c1.852,6.401,7.867,10.698,14.531,10.698H335.71c6.664,0,12.679-4.297,14.531-10.698c0.062-0.214,0.14-0.422,0.206-0.635    L323.663,473.268z"/>
	</g>
</g>
<g>
	<g>
		<path d="M376.447,200.877c-2.341-0.677-4.59-1.574-6.724-2.662l-24.747,25.469v228.471l24.939,25.512    c2.078-1.045,4.259-1.913,6.532-2.571c6.401-1.853,10.698-7.868,10.698-14.531V215.408    C387.145,208.745,382.847,202.73,376.447,200.877z"/>
	</g>
</g>
<g>
	<g>
		<rect x="196.55" y="232.6" width="118.42" height="210.67"/>
	</g>
</g>
<g>
</g>
<g>
</g>
<g>
</g>
<g>
</g>
<g>
</g>
<g>
</g>
<g>
</g>
<g>
</g>
<g>
</g>
<g>
</g>
<g>
</g>
<g>
</g>
<g>
</g>
<g>
</g>
<g>
</g>
</svg>
