<?xml version="1.0" encoding="iso-8859-1"?>
<!-- Generator: Adobe Illustrator 19.0.0, SVG Export Plug-In . SVG Version: 6.00 Build 0)  -->
<svg xmlns="http://www.w3.org/2000/svg" xmlns:xlink="http://www.w3.org/1999/xlink" version="1.1" id="Capa_1" x="0px" y="0px" viewBox="0 0 512 512" style="enable-background:new 0 0 512 512;" xml:space="preserve">
<g>
	<g>
		<path d="M429.433,187.946L271.01,93.002V85.45c16.918-6.152,29.032-22.391,29.032-41.408C300.042,19.757,280.285,0,256,0    c-24.285,0-44.042,19.757-44.042,44.042c0,8.29,6.72,15.01,15.01,15.01c2.25,0,4.376-0.509,6.291-1.396    c5.143-2.381,8.719-7.574,8.719-13.615c0-7.732,6.29-14.021,14.021-14.021c7.731,0,14.021,6.289,14.021,14.021    c0,7.731-6.29,14.021-14.021,14.021c-8.29,0-15.01,6.72-15.01,15.01v1.31V93L82.567,187.946    c-11.057,6.627-16.177,19.426-12.739,31.85s14.409,20.771,27.299,20.771h33.887v-30.021h-27.759l148.839-89.2    c1.247,0.336,2.552,0.531,3.906,0.531c1.353,0,2.658-0.195,3.906-0.531l148.839,89.2h-37.417v30.021h43.545    c12.89,0,23.861-8.347,27.299-20.77C445.61,207.374,440.491,194.574,429.433,187.946z"/>
	</g>
</g>
<g>
	<g>
		<path d="M206.113,197.912h-30.078c-8.284,0-15,6.716-15,15v197.359h60.078V212.912    C221.113,204.628,214.397,197.912,206.113,197.912z"/>
	</g>
</g>
<g>
	<g>
		<path d="M157.259,440.292v14.852c0,8.284,6.716,15,15,15h37.63c8.284,0,15-6.716,15-15v-14.852H157.259z"/>
	</g>
</g>
<g>
	<g>
		<path d="M326.307,197.912h-60.173c-8.284,0-15,6.716-15,15V451.67h90.173V212.912    C341.307,204.628,334.591,197.912,326.307,197.912z"/>
	</g>
</g>
<g>
	<g>
		<path d="M246.16,481.69V497c0,8.284,6.716,15,15,15h70.121c8.284,0,15-6.716,15-15v-15.31H246.16z"/>
	</g>
</g>
<g>
</g>
<g>
</g>
<g>
</g>
<g>
</g>
<g>
</g>
<g>
</g>
<g>
</g>
<g>
</g>
<g>
</g>
<g>
</g>
<g>
</g>
<g>
</g>
<g>
</g>
<g>
</g>
<g>
</g>
</svg>
