<?xml version="1.0" encoding="iso-8859-1"?>
<!-- Generator: Adobe Illustrator 19.0.0, SVG Export Plug-In . SVG Version: 6.00 Build 0)  -->
<svg xmlns="http://www.w3.org/2000/svg" xmlns:xlink="http://www.w3.org/1999/xlink" version="1.1" id="Capa_1" x="0px" y="0px" viewBox="0 0 512 512" style="enable-background:new 0 0 512 512;" xml:space="preserve">
<g>
	<g>
		<path d="M459.64,316.839c4.94,6.205,9.198,13.036,12.633,20.413c3.505,7.529,0.243,16.472-7.285,19.978    c-2.053,0.955-4.212,1.409-6.337,1.409c-5.666,0-11.092-3.219-13.641-8.694c-3.377-7.252-7.879-13.759-13.256-19.348    c-15.594,10.172-34.512,15.442-56.015,15.442h-12.971c-27.935,0-54.187-10.741-73.574-29.2h-66.387    c-19.388,18.459-45.64,29.2-73.575,29.2h-12.971c-21.503,0-40.421-5.27-56.015-15.442c-5.376,5.589-9.88,12.096-13.256,19.348    c-2.549,5.475-7.975,8.693-13.641,8.694c-2.125,0-4.283-0.453-6.337-1.409c-7.528-3.505-10.79-12.449-7.285-19.978    c3.435-7.377,7.694-14.208,12.633-20.413H0.038c0.813,37.514,31.559,67.785,69.264,67.785h373.394    c37.707,0,68.453-30.271,69.266-67.785H459.64z"/>
	</g>
</g>
<g>
	<g>
		<path d="M442.697,127.376H69.303C31.089,127.376,0,158.465,0,196.679v90.088h44.598c-6.068-14.031-9.012-27.951-10.412-38.639    c-0.076-0.581-0.526-1.003-1.069-1.003c-8.304,0-15.089-6.732-15.089-15.036v-31.372c0-6.667,4.39-12.538,10.785-14.423    c4.976-1.467,121.615-35.029,214.078,8.468h26.219c92.463-43.496,209.101-9.934,214.078-8.468    c6.394,1.885,10.785,7.756,10.785,14.423v31.372c0,8.304-6.732,15.036-15.036,15.036c-0.596,0-1.046,0.423-1.122,1.005    c-1.399,10.687-4.343,24.606-10.412,38.637H512v-90.088C512,158.465,480.911,127.376,442.697,127.376z"/>
	</g>
</g>
<g>
	<g>
		<path d="M262.332,274.38l-12.663-0.001c-1.371,4.214-3.05,8.345-4.992,12.387h22.647    C265.382,282.724,263.703,278.593,262.332,274.38z"/>
	</g>
</g>
<g>
	<g>
		<path d="M279.19,223.283c-2.068,1.019-4.342,1.55-6.649,1.55h-33.082c-2.306,0-4.58-0.531-6.649-1.55    c-67.31-33.184-154.558-17.75-184.71-10.85v8.501c8.449,4.672,14.577,13.167,15.904,23.288    c4.286,32.731,20.3,71.745,72.257,71.745h12.971c27.839,0,53.293-14.746,66.43-38.484c3.679-6.649,6.229-13.681,7.58-20.904    c1.33-7.115,7.542-12.272,14.78-12.272l35.958,0.001c7.238,0,13.449,5.157,14.78,12.272c1.351,7.221,3.901,14.254,7.581,20.903    c13.136,23.738,38.59,38.484,66.429,38.484h12.971c51.955,0,67.969-39.014,72.255-71.744c1.327-10.127,7.461-18.626,15.904-23.297    v-8.493C433.761,205.536,346.504,190.097,279.19,223.283z"/>
	</g>
</g>
<g>
</g>
<g>
</g>
<g>
</g>
<g>
</g>
<g>
</g>
<g>
</g>
<g>
</g>
<g>
</g>
<g>
</g>
<g>
</g>
<g>
</g>
<g>
</g>
<g>
</g>
<g>
</g>
<g>
</g>
</svg>
