<?xml version="1.0" encoding="iso-8859-1"?>
<!-- Generator: Adobe Illustrator 19.0.0, SVG Export Plug-In . SVG Version: 6.00 Build 0)  -->
<svg xmlns="http://www.w3.org/2000/svg" xmlns:xlink="http://www.w3.org/1999/xlink" version="1.1" id="Capa_1" x="0px" y="0px" viewBox="0 0 512 512" style="enable-background:new 0 0 512 512;" xml:space="preserve">
<g>
	<g>
		<path d="M286.334,26.001V15c0-8.284-6.716-15-15-15h-30.671c-8.284,0-15,6.716-15,15v11.001c0,37.773-3.483,75.347-10.358,112.335    h81.387C289.817,101.348,286.334,63.773,286.334,26.001z"/>
	</g>
</g>
<g>
	<g>
		<rect x="182.079" y="318.12" width="77.37" height="119.71"/>
	</g>
</g>
<g>
	<g>
		<path d="M313.692,207.375c-3.985-12.91-7.512-25.933-10.632-39.039h-94.12c-3.12,13.106-6.647,26.129-10.632,39.039    c-8.121,26.31-13.22,53.368-15.239,80.743h91.378c8.284,0,15,6.716,15,15v149.708c0,8.284-6.716,15-15,15h-92.371V497    c0,8.284,6.716,15,15,15h117.848c8.284,0,15-6.716,15-15V314.997C329.924,278.478,324.463,242.269,313.692,207.375z"/>
	</g>
</g>
<g>
</g>
<g>
</g>
<g>
</g>
<g>
</g>
<g>
</g>
<g>
</g>
<g>
</g>
<g>
</g>
<g>
</g>
<g>
</g>
<g>
</g>
<g>
</g>
<g>
</g>
<g>
</g>
<g>
</g>
</svg>
