<?xml version="1.0" encoding="iso-8859-1"?>
<!-- Generator: Adobe Illustrator 19.0.0, SVG Export Plug-In . SVG Version: 6.00 Build 0)  -->
<svg xmlns="http://www.w3.org/2000/svg" xmlns:xlink="http://www.w3.org/1999/xlink" version="1.1" id="Capa_1" x="0px" y="0px" viewBox="0 0 512.002 512.002" style="enable-background:new 0 0 512.002 512.002;" xml:space="preserve">
<g>
	<g>
		<path d="M496.978,265.574H266.439L53.221,314.509c-3.378,0.774-6.785,1.158-10.168,1.158c-6.826,0-13.543-1.586-19.735-4.634    v155.476c0,8.283,6.739,15.023,15.023,15.023h458.639c8.284,0,15.023-6.739,15.023-15.023V280.596    C512.001,272.313,505.262,265.574,496.978,265.574z M471.024,412.963L471.024,412.963c0,8.297-6.726,15.023-15.023,15.023H107.726    c-30.013,0-54.432-24.418-54.432-54.432c0-30.014,24.418-54.433,54.432-54.433h348.275c8.297,0,15.023,6.726,15.023,15.023    V412.963z"/>
	</g>
</g>
<g>
	<g>
		<path d="M504.798,164.628L476.684,42.133c-1.594-6.947-7.798-11.664-14.641-11.664c-1.11,0-2.235,0.124-3.361,0.383    L11.664,133.447C3.59,135.3-1.47,143.376,0.382,151.45l28.115,122.493c0.897,3.911,3.264,7.239,6.664,9.369    c3.401,2.13,7.426,2.808,11.338,1.912L493.516,182.63c3.911-0.897,7.239-3.264,9.369-6.664    C505.016,172.566,505.695,168.539,504.798,164.628z"/>
	</g>
</g>
<g>
	<g>
		<path d="M229.678,349.166v0.001v10.201c5.883,2.036,10.114,7.61,10.114,14.185c0,6.575-4.231,12.149-10.114,14.185v10.2H391.2    v-48.773H229.678z"/>
	</g>
</g>
<g>
	<g>
		<path d="M199.632,359.294v-10.127h-91.906c-13.446,0-24.387,10.94-24.387,24.388s10.939,24.387,24.387,24.387h91.906v-0.001    v-10.125c-5.99-1.976-10.319-7.609-10.319-14.26C189.314,366.902,193.642,361.269,199.632,359.294z"/>
	</g>
</g>
<g>
	<g>
		<rect x="421.245" y="349.167" width="19.734" height="48.773"/>
	</g>
</g>
<g>
</g>
<g>
</g>
<g>
</g>
<g>
</g>
<g>
</g>
<g>
</g>
<g>
</g>
<g>
</g>
<g>
</g>
<g>
</g>
<g>
</g>
<g>
</g>
<g>
</g>
<g>
</g>
<g>
</g>
</svg>
