<?xml version="1.0" encoding="iso-8859-1"?>
<!-- Generator: Adobe Illustrator 19.0.0, SVG Export Plug-In . SVG Version: 6.00 Build 0)  -->
<svg xmlns="http://www.w3.org/2000/svg" xmlns:xlink="http://www.w3.org/1999/xlink" version="1.1" id="Capa_1" x="0px" y="0px" viewBox="0 0 512 512" style="enable-background:new 0 0 512 512;" xml:space="preserve">
<g>
	<g>
		<path d="M438.971,482H406.27h-51.197c-6.153,0-11.158-5.006-11.158-11.158s5.005-11.158,11.158-11.158h2.544h36.125    c20.09,0,36.434-16.344,36.434-36.434c0-20.09-16.344-36.435-36.434-36.435H237.793V15c0-8.284-6.716-15-15-15H73.028    c-8.284,0-15,6.716-15,15v418.78c0,8.284,6.716,15,15,15H87.8l-18.411,36.792c-3.708,7.408-0.707,16.42,6.701,20.127    c2.155,1.078,4.445,1.589,6.701,1.589c5.5,0,10.797-3.037,13.426-8.29l25.13-50.218h53.13l25.129,50.218    c2.629,5.254,7.925,8.29,13.426,8.29c2.256,0,4.546-0.511,6.701-1.589c7.409-3.707,10.409-12.718,6.702-20.127l-18.411-36.792    h14.771c8.284,0,15-6.716,15-15v-16.965h26.365h129.583c3.548,0,6.434,2.887,6.434,6.435c0,3.548-2.886,6.434-6.434,6.434h-38.669    c-12.521,0-23.745,5.627-31.3,14.476c-6.139,7.191-9.858,16.508-9.858,26.682c0,22.694,18.463,41.158,41.158,41.158h83.899    c8.284,0,15-6.716,15-15S447.256,482,438.971,482z M147.911,397.48c-19.772,0-35.858-16.086-35.858-35.858    c0-19.772,16.085-35.858,35.858-35.858c19.772,0,35.858,16.086,35.858,35.858C183.769,381.394,167.683,397.48,147.911,397.48z     M147.91,197.955c-15.457,0.001-28.034-12.576-28.034-28.034c0-15.458,12.576-28.035,28.034-28.035s28.035,12.576,28.035,28.035    C175.945,185.379,163.369,197.955,147.91,197.955z M175.946,278.858c0,15.459-12.576,28.035-28.035,28.035    c-15.458,0-28.034-12.576-28.034-28.035c-0.001-15.458,12.576-28.034,28.034-28.034S175.946,263.4,175.946,278.858z     M147.911,123.015c-19.772,0-35.858-16.086-35.858-35.858c0-19.772,16.086-35.858,35.858-35.858    c19.772,0,35.858,16.086,35.858,35.858C183.769,106.929,167.683,123.015,147.911,123.015z"/>
	</g>
</g>
<g>
</g>
<g>
</g>
<g>
</g>
<g>
</g>
<g>
</g>
<g>
</g>
<g>
</g>
<g>
</g>
<g>
</g>
<g>
</g>
<g>
</g>
<g>
</g>
<g>
</g>
<g>
</g>
<g>
</g>
</svg>
