<?xml version="1.0" encoding="iso-8859-1"?>
<!-- Generator: Adobe Illustrator 19.0.0, SVG Export Plug-In . SVG Version: 6.00 Build 0)  -->
<svg xmlns="http://www.w3.org/2000/svg" xmlns:xlink="http://www.w3.org/1999/xlink" version="1.1" id="Capa_1" x="0px" y="0px" viewBox="0 0 512 512" style="enable-background:new 0 0 512 512;" xml:space="preserve">
<g>
	<g>
		<polygon points="413.135,201.508 413.135,333.592 428.11,333.592 468.379,333.592 483.339,333.592 483.339,201.508   "/>
	</g>
</g>
<g>
	<g>
		<path d="M502.469,407.547c-5.177-5.979-11.854-10.001-19.122-11.795l0.005-32.208h-70.217v0v82.272    c0,8.271,6.705,14.976,14.976,14.976h64.327c5.915,0,11.276-3.482,13.681-8.885l2.201-4.944    C514.244,433.659,512.002,418.555,502.469,407.547z"/>
	</g>
</g>
<g>
	<g>
		<rect x="28.661" y="201.51" width="70.2" height="132.09"/>
	</g>
</g>
<g>
	<g>
		<path d="M28.648,363.544L28.648,363.544l0.005,32.208c-7.267,1.794-13.946,5.817-19.122,11.795    c-9.533,11.009-11.775,26.112-5.851,39.414l2.201,4.945c2.405,5.403,7.766,8.885,13.681,8.885H83.89    c8.271,0,14.976-6.705,14.976-14.976v-82.271H28.648z"/>
	</g>
</g>
<g>
	<g>
		<path d="M497,51.208H15c-8.284,0-15,6.716-15,15v40.451h512V66.208C512,57.924,505.284,51.208,497,51.208z"/>
	</g>
</g>
<g>
	<g>
		<path d="M10.97,139.658v29.236c0,1.468,1.194,2.663,2.664,2.663h100.141c22.173,0,43.616,6.584,62.012,19.038    c6.612,4.477,8.55,13.354,4.402,20.178c-0.85,1.399-1.793,3.706-1.461,6.756c0.56,5.138,4.573,8.981,9.759,9.348    c4.358,0.306,7.167-1.896,8.457-3.236c5.31-5.515,13.923-6.137,19.97-1.443l17.339,13.458c12.803,9.939,30.69,9.939,43.494,0    l17.339-13.458c6.049-4.694,14.663-4.071,19.971,1.444c1.289,1.341,4.116,3.544,8.454,3.235c5.187-0.365,9.201-4.208,9.761-9.346    c0.332-3.05-0.611-5.359-1.462-6.759c-4.146-6.824-2.209-15.701,4.403-20.177c18.396-12.455,39.839-19.038,62.012-19.038h100.142    c1.468,0,2.663-1.195,2.663-2.663v-29.236H10.97z"/>
	</g>
</g>
<g>
</g>
<g>
</g>
<g>
</g>
<g>
</g>
<g>
</g>
<g>
</g>
<g>
</g>
<g>
</g>
<g>
</g>
<g>
</g>
<g>
</g>
<g>
</g>
<g>
</g>
<g>
</g>
<g>
</g>
</svg>
