<?xml version="1.0" encoding="iso-8859-1"?>
<!-- Generator: Adobe Illustrator 19.0.0, SVG Export Plug-In . SVG Version: 6.00 Build 0)  -->
<svg xmlns="http://www.w3.org/2000/svg" xmlns:xlink="http://www.w3.org/1999/xlink" version="1.1" id="Capa_1" x="0px" y="0px" viewBox="0 0 512 512" style="enable-background:new 0 0 512 512;" xml:space="preserve">
<g>
	<g>
		<polygon points="152.44,142.267 94.299,212 218.839,212   "/>
	</g>
</g>
<g>
	<g>
		<polygon points="356.192,141.087 288.828,212 415.614,212 417.701,203.152   "/>
	</g>
</g>
<g>
	<g>
		<path d="M95.986,242l61.758,247.427C161.077,502.79,173.08,512,186.852,512h133.572c13.892,0,25.967-9.372,29.185-22.886    L408.473,242H95.986z"/>
	</g>
</g>
<g>
	<g>
		<path d="M299.834,119V77h13.051c11.128,0,19.949-9.361,19.949-20.489V20.149C332.833,9.021,324.012,0,312.884,0H194.783    c-11.128,0-19.949,9.021-19.949,20.149v36.362c0,11.128,8.821,20.489,19.949,20.489h13.051v42H172.41l81.423,85.514L335.257,119    H299.834z"/>
	</g>
</g>
<g>
</g>
<g>
</g>
<g>
</g>
<g>
</g>
<g>
</g>
<g>
</g>
<g>
</g>
<g>
</g>
<g>
</g>
<g>
</g>
<g>
</g>
<g>
</g>
<g>
</g>
<g>
</g>
<g>
</g>
</svg>
