<?xml version="1.0" encoding="iso-8859-1"?>
<!-- Generator: Adobe Illustrator 19.0.0, SVG Export Plug-In . SVG Version: 6.00 Build 0)  -->
<svg xmlns="http://www.w3.org/2000/svg" xmlns:xlink="http://www.w3.org/1999/xlink" version="1.1" id="Capa_1" x="0px" y="0px" viewBox="0 0 512 512" style="enable-background:new 0 0 512 512;" xml:space="preserve">
<g>
	<g>
		<path d="M243.491,353.711v100.68H463.52c21.988,0,39.877-17.889,39.877-39.878v-60.802H243.491z"/>
	</g>
</g>
<g>
	<g>
		<path d="M8.603,353.711v60.802c0,21.989,17.889,39.878,39.877,39.878h73.501v-100.68H8.603z"/>
	</g>
</g>
<g>
	<g>
		<rect x="151.98" y="353.71" width="61.51" height="100.68"/>
	</g>
</g>
<g>
	<g>
		<path d="M30,227.88c-16.569,0-30,13.431-30,30v65.832h102.926v-0.001V227.88H30z"/>
	</g>
</g>
<g>
	<g>
		<path d="M279.219,60.888c-6.474-5.168-15.912-4.11-21.081,2.363L256,65.928l-2.138-2.677c-5.168-6.474-14.607-7.533-21.081-2.363    c-6.474,5.168-7.532,14.607-2.363,21.081l13.86,17.36c2.846,3.565,7.16,5.641,11.722,5.641s8.876-2.076,11.722-5.641l13.86-17.36    C286.751,75.495,285.693,66.056,279.219,60.888z"/>
	</g>
</g>
<g>
	<g>
		<path d="M482,227.88H369.989c12.407-7.303,22.816-17.642,30.194-30c7.58-12.698,11.97-27.511,12.024-43.331    c0.02-5.894,4.356-11.058,10.219-11.665c6.845-0.709,12.645,4.665,12.645,11.368v15.965c0,8.077,6.207,15.027,14.275,15.407    c8.614,0.406,15.725-6.458,15.725-14.983v-15.61c0-22.625-17.815-41.662-40.434-42.197c-23.3-0.551-42.43,18.242-42.43,41.42    c0,17.703-8.358,33.48-21.324,43.627c-9.404,7.359-21.226,11.762-34.065,11.762H315.39c-8.381,0-16.045-3.109-21.917-8.226    c4.103-0.937,8.485-2.099,13.033-3.536c16.722-5.285,35.669-14.305,51.069-29.706c5.292-5.291,10.14-11.326,14.408-17.937    c12.65-19.593,10.025-43.882-6.531-60.438c-16.555-16.557-40.843-19.182-60.436-6.532c-6.611,4.268-12.646,9.116-17.939,14.409    c-16.823,16.823-26.033,37.876-31.077,55.64c-5.043-17.764-14.254-38.817-31.077-55.64c-5.293-5.293-11.328-10.141-17.938-14.408    c-19.593-12.649-43.881-10.026-60.437,6.532c-16.557,16.558-19.181,40.847-6.53,60.441c4.267,6.608,9.114,12.642,14.406,17.934    c15.401,15.401,34.347,24.421,51.07,29.706c4.548,1.437,8.93,2.599,13.033,3.536c-5.872,5.117-13.536,8.226-21.917,8.226h-11.429    c-12.839,0-24.662-4.403-34.065-11.762c-12.809-10.024-21.121-25.544-21.32-42.987c-0.258-22.648-17.954-41.614-40.598-42.063    c-23.227-0.461-42.269,18.299-42.269,41.423v16.388c0,8.522,7.112,15.386,15.726,14.98c8.068-0.38,14.275-7.33,14.275-15.407    v-15.629c0-5.949,4.406-11.157,10.329-11.715c6.797-0.64,12.534,4.713,12.534,11.38c0,15.931,4.397,30.85,12.024,43.627    c7.377,12.359,17.786,22.697,30.194,30h-9.085v95.832h61.509v-84.069h2.175c9.977,0,19.419-2.323,27.825-6.446v90.516H512V257.88    C512,241.311,498.569,227.88,482,227.88z M175.638,146.961c-3.794-3.794-7.299-8.167-10.417-12.995    c-5.906-9.146-2.56-17.854,2.54-22.955c3.179-3.179,7.759-5.676,12.974-5.676c3.15,0,6.533,0.912,9.977,3.135    c4.83,3.118,9.203,6.623,12.998,10.417c16.204,16.204,23.182,38.766,26.172,54.244    C214.396,170.142,191.84,163.163,175.638,146.961z M233.328,227.879c8.656-6.17,15.711-14.447,20.384-24.091    c0.801-0.394,1.565-0.862,2.288-1.396c0.723,0.535,1.487,1.002,2.288,1.396c4.673,9.644,11.728,17.92,20.383,24.091H233.328z     M308.29,118.888c3.794-3.794,8.167-7.299,12.998-10.418c3.444-2.224,6.826-3.135,9.977-3.135c5.214,0,9.795,2.497,12.974,5.676    c5.1,5.1,8.446,13.808,2.542,22.953c-3.119,4.831-6.624,9.203-10.417,12.996c-16.204,16.204-38.766,23.182-54.244,26.172    C285.109,157.647,292.087,135.09,308.29,118.888z"/>
	</g>
</g>
<g>
</g>
<g>
</g>
<g>
</g>
<g>
</g>
<g>
</g>
<g>
</g>
<g>
</g>
<g>
</g>
<g>
</g>
<g>
</g>
<g>
</g>
<g>
</g>
<g>
</g>
<g>
</g>
<g>
</g>
</svg>
