<?xml version="1.0" encoding="iso-8859-1"?>
<!-- Generator: Adobe Illustrator 19.0.0, SVG Export Plug-In . SVG Version: 6.00 Build 0)  -->
<svg xmlns="http://www.w3.org/2000/svg" xmlns:xlink="http://www.w3.org/1999/xlink" version="1.1" id="Capa_1" x="0px" y="0px" viewBox="0 0 512 512" style="enable-background:new 0 0 512 512;" xml:space="preserve">
<g>
	<g>
		<path d="M352.813,12.236C351.497,5.144,345.31,0,338.098,0H173.902c-7.212,0-13.399,5.144-14.715,12.236    c-1.642,8.848-3.085,17.312-4.334,25.44h202.294C355.898,29.548,354.455,21.085,352.813,12.236z"/>
	</g>
</g>
<g>
	<g>
		<path d="M327.019,238.218c0.762-1.27,1.512-2.545,2.252-3.825c11.381-19.704,20.096-40.943,25.902-63.127    c8.005-30.584,9.98-62.668,5.83-103.657H150.997c-4.15,40.989-2.175,73.073,5.83,103.657    c5.806,22.185,14.521,43.424,25.902,63.127c0.74,1.28,1.49,2.555,2.252,3.825c19.675,32.79,39.788,71.504,39.788,110.023v126.66    l-40.797,7.406c-7.621,1.384-12.928,8.354-12.233,16.068c0.694,7.714,7.16,13.625,14.906,13.625h138.71    c7.746,0,14.212-5.91,14.906-13.625c0.695-7.715-4.612-14.685-12.233-16.068l-40.797-7.406v-126.66    C287.231,309.722,307.344,271.008,327.019,238.218z"/>
	</g>
</g>
<g>
</g>
<g>
</g>
<g>
</g>
<g>
</g>
<g>
</g>
<g>
</g>
<g>
</g>
<g>
</g>
<g>
</g>
<g>
</g>
<g>
</g>
<g>
</g>
<g>
</g>
<g>
</g>
<g>
</g>
</svg>
