<?xml version="1.0" encoding="iso-8859-1"?>
<!-- Generator: Adobe Illustrator 19.0.0, SVG Export Plug-In . SVG Version: 6.00 Build 0)  -->
<svg xmlns="http://www.w3.org/2000/svg" xmlns:xlink="http://www.w3.org/1999/xlink" version="1.1" id="Capa_1" x="0px" y="0px" viewBox="0 0 511.999 511.999" style="enable-background:new 0 0 511.999 511.999;" xml:space="preserve">
<g>
	<g>
		<path d="M256,59.419c-33.046,0-59.835,26.789-59.835,59.835c0,2.816,0.214,5.582,0.592,8.294h118.486    c0.379-2.712,0.592-5.478,0.592-8.294C315.834,86.208,289.045,59.419,256,59.419z"/>
	</g>
</g>
<g>
	<g>
		<path d="M256.001,0c-8.279,0-14.991,6.712-14.991,14.991V31.87c0,8.279,6.712,14.991,14.991,14.991s14.991-6.712,14.991-14.991    V14.991C270.992,6.712,264.28,0,256.001,0z"/>
	</g>
</g>
<g>
	<g>
		<path d="M339.304,31.521c-5.854-5.855-15.346-5.855-21.201,0l-12.87,12.87c-5.855,5.855-5.855,15.346,0,21.2    c2.928,2.928,6.765,4.391,10.601,4.391c3.837,0,7.674-1.463,10.6-4.391l12.87-12.87C345.159,46.867,345.159,37.376,339.304,31.521    z"/>
	</g>
</g>
<g>
	<g>
		<path d="M206.766,44.392l-12.869-12.869c-5.854-5.855-15.346-5.855-21.201,0s-5.855,15.346,0,21.201l12.87,12.869    c2.927,2.927,6.764,4.391,10.6,4.391c3.836,0,7.673-1.463,10.6-4.391C212.62,59.738,212.62,50.246,206.766,44.392z"/>
	</g>
</g>
<g>
	<g>
		<path d="M171.788,85.974h-14.993c-8.279,0-14.991,6.712-14.991,14.991s6.711,14.991,14.991,14.991h14.993    c8.279,0,14.991-6.712,14.991-14.991S180.067,85.974,171.788,85.974z"/>
	</g>
</g>
<g>
	<g>
		<path d="M355.206,85.974h-14.993c-8.279,0-14.991,6.712-14.991,14.991s6.712,14.991,14.991,14.991h14.993    c8.279,0,14.991-6.712,14.991-14.991S363.485,85.974,355.206,85.974z"/>
	</g>
</g>
<g>
	<g>
		<path d="M344.014,205.643c-9.815-6.159-20.317-11.325-31.371-15.343c7.055-0.714,12.58-6.687,12.58-13.927v-3.679    c0-7.719-6.279-13.999-13.999-13.999H200.777c-7.719,0-13.999,6.28-13.999,13.999v3.679c0,7.24,5.525,13.213,12.58,13.927    c-11.055,4.018-21.556,9.184-31.372,15.343c-46.729,29.326-77.802,81.301-77.802,140.541c0,91.577,74.238,165.815,165.815,165.815    s165.815-74.238,165.815-165.815C421.816,286.944,390.743,234.969,344.014,205.643z M256.001,454.532    c-59.839,0-108.347-48.508-108.347-108.347c0-59.839,48.508-108.347,108.347-108.347c59.839,0,108.347,48.508,108.347,108.347    C364.348,406.023,315.839,454.532,256.001,454.532z"/>
	</g>
</g>
<g>
</g>
<g>
</g>
<g>
</g>
<g>
</g>
<g>
</g>
<g>
</g>
<g>
</g>
<g>
</g>
<g>
</g>
<g>
</g>
<g>
</g>
<g>
</g>
<g>
</g>
<g>
</g>
<g>
</g>
</svg>
