<?xml version="1.0" encoding="iso-8859-1"?>
<!-- Generator: Adobe Illustrator 19.0.0, SVG Export Plug-In . SVG Version: 6.00 Build 0)  -->
<svg xmlns="http://www.w3.org/2000/svg" xmlns:xlink="http://www.w3.org/1999/xlink" version="1.1" id="Layer_1" x="0px" y="0px" viewBox="0 0 512 512" style="enable-background:new 0 0 512 512;" xml:space="preserve">
<g>
	<g>
		<path d="M436.728,302.99c-21.955-1.71-40.82-15.387-49.231-35.694c-9.788-23.631-3.181-50.502,16.443-66.864l13.421-11.192    l-12.936-11.748c-23.865-21.672-54.117-33.607-85.182-33.607c-16.445,0-32.625,3.334-47.824,9.758v-22.353h26.869    c31.587,0,57.286-25.698,57.286-57.286V16.719h-57.286c-9.705,0-18.85,2.434-26.869,6.711V0h-30.417v74.003v57.286V153.8    c-15.312-6.531-31.628-9.915-48.211-9.915c-73.6,0-133.477,65.549-133.477,146.121c0,42.374,14.047,96.386,35.787,137.601    c13.076,24.79,28.448,44.566,45.69,58.777C161.41,503.382,184.162,512,208.412,512c18.714,0,31.767-3.323,47.605-12.697    C271.855,508.677,284.908,512,303.622,512c40.14,0,76.188-23.724,104.248-68.609c21.164-33.854,37.15-79.942,42.763-123.284    l2.055-15.874L436.728,302.99z M192.788,224.997c-28.874,0-52.364,29.163-52.364,65.009h-30.417    c0-52.618,37.135-95.426,82.781-95.426V224.997z"/>
	</g>
</g>
<g>
</g>
<g>
</g>
<g>
</g>
<g>
</g>
<g>
</g>
<g>
</g>
<g>
</g>
<g>
</g>
<g>
</g>
<g>
</g>
<g>
</g>
<g>
</g>
<g>
</g>
<g>
</g>
<g>
</g>
</svg>
