<?xml version="1.0" encoding="iso-8859-1"?>
<!-- Generator: Adobe Illustrator 19.0.0, SVG Export Plug-In . SVG Version: 6.00 Build 0)  -->
<svg xmlns="http://www.w3.org/2000/svg" xmlns:xlink="http://www.w3.org/1999/xlink" version="1.1" id="Layer_1" x="0px" y="0px" viewBox="0 0 512 512" style="enable-background:new 0 0 512 512;" xml:space="preserve">
<g>
	<g>
		<polygon points="152.286,42.05 152.286,81.848 215.179,81.848 215.179,112.284 152.286,112.284 152.286,138.95 215.179,138.95     215.179,169.386 152.286,169.386 152.286,196.051 215.179,196.051 215.179,226.487 152.286,226.487 152.286,253.152     215.179,253.152 215.179,283.588 152.286,283.588 152.286,310.254 215.179,310.254 215.179,340.69 152.286,340.69     152.286,380.487 240.782,380.487 240.782,42.05   "/>
	</g>
</g>
<g>
	<g>
		<path d="M271.218,42.05v338.437H466.32V42.05H271.218z M331.374,81.848v30.436h-34.553V81.848H331.374z M296.821,196.051h86.502    v30.436h-86.502V196.051z M406.455,340.69H296.821v-30.436h109.634V340.69z M440.716,283.588H296.821v-30.436h143.895V283.588z     M440.716,226.487h-34.553v-30.436h34.553V226.487z M440.716,169.386H296.821V138.95h143.895V169.386z M440.717,112.284h-86.502    V81.848h86.502V112.284z"/>
	</g>
</g>
<g>
	<g>
		<polygon points="93.539,42.05 93.539,380.487 93.539,410.923 93.539,456.603 93.539,469.95 107.695,464.446 121.85,469.95     121.85,456.603 121.85,410.923 121.85,380.487 121.85,42.05   "/>
	</g>
</g>
<g>
	<g>
		<rect x="45.684" y="42.052" width="17.42" height="338.438"/>
	</g>
</g>
<g>
	<g>
		<polygon points="15.244,410.923 15.244,64.892 0,64.892 0,426.168 63.103,426.168 63.103,410.923   "/>
	</g>
</g>
<g>
	<g>
		<rect x="152.281" y="410.926" width="88.498" height="15.248"/>
	</g>
</g>
<g>
	<g>
		<polygon points="496.756,64.892 496.756,410.923 271.218,410.923 271.218,426.168 512,426.168 512,64.892   "/>
	</g>
</g>
<g>
</g>
<g>
</g>
<g>
</g>
<g>
</g>
<g>
</g>
<g>
</g>
<g>
</g>
<g>
</g>
<g>
</g>
<g>
</g>
<g>
</g>
<g>
</g>
<g>
</g>
<g>
</g>
<g>
</g>
</svg>
