<?xml version="1.0" encoding="iso-8859-1"?>
<!-- Generator: Adobe Illustrator 19.0.0, SVG Export Plug-In . SVG Version: 6.00 Build 0)  -->
<svg xmlns="http://www.w3.org/2000/svg" xmlns:xlink="http://www.w3.org/1999/xlink" version="1.1" id="Layer_1" x="0px" y="0px" viewBox="0 0 512.001 512.001" style="enable-background:new 0 0 512.001 512.001;" xml:space="preserve">
<g>
	<g>
		<path d="M152.377,490.002c12.023,5.298,24.531,9.721,37.462,13.187c3.348,0.897,6.704,1.707,10.065,2.466l142.315-82.165    l15.232,26.381l-107.467,62.046c46.557,1.193,92.68-10.417,134.037-34.294c59.195-34.177,101.538-89.361,119.229-155.383    c3.465-12.931,5.888-25.975,7.311-39.036L152.377,490.002z M387.112,432.746l-15.232-26.381l41.526-23.975l15.232,26.381    L387.112,432.746z"/>
	</g>
</g>
<g>
	<g>
		<path d="M255.655,0c-44.345,0-88.102,11.628-127.534,34.394c-41.355,23.876-74.47,58.016-96.716,98.931L262.173,0.092    C260,0.037,257.827,0,255.655,0z"/>
	</g>
</g>
<g>
	<g>
		<path d="M484.902,141.481l-152.995,88.331l-15.232-26.381l152.995-88.331c-6.958-10.578-14.62-20.547-22.926-29.857    L138.506,263.204l-15.232-26.381L424.297,63.027c-10.23-8.933-21.148-17.036-32.691-24.219L195.903,151.798l-15.232-26.381    l179.092-103.4c-12.023-5.298-24.531-9.721-37.462-13.187c-3.343-0.896-6.695-1.714-10.052-2.474L11.789,179.827    c-1.023,3.29-1.999,6.602-2.897,9.949C-8.8,255.801,0.28,324.762,34.456,383.958c21.333,36.949,50.851,67.332,86.08,89.252    l391.404-225.978C510.734,210.723,501.618,174.773,484.902,141.481z M229.082,289.178l-15.232-26.381l73.163-42.242l15.232,26.381    L229.082,289.178z"/>
	</g>
</g>
<g>
</g>
<g>
</g>
<g>
</g>
<g>
</g>
<g>
</g>
<g>
</g>
<g>
</g>
<g>
</g>
<g>
</g>
<g>
</g>
<g>
</g>
<g>
</g>
<g>
</g>
<g>
</g>
<g>
</g>
</svg>
