<?xml version="1.0" encoding="iso-8859-1"?>
<!-- Generator: Adobe Illustrator 19.0.0, SVG Export Plug-In . SVG Version: 6.00 Build 0)  -->
<svg xmlns="http://www.w3.org/2000/svg" xmlns:xlink="http://www.w3.org/1999/xlink" version="1.1" id="Layer_1" x="0px" y="0px" viewBox="0 0 512 512" style="enable-background:new 0 0 512 512;" xml:space="preserve">
<g>
	<g>
		<path d="M491.532,310.874v-25.601H312.695c-15.446,0-29.759,4.907-41.487,13.232v-34.206h20.637    c28.151,0,51.053-22.903,51.053-51.054V162.19H304.97c1.368-4.646,2.084-9.513,2.084-14.492c0-13.637-5.311-26.458-14.954-36.1    l-36.099-36.099l-36.099,36.099c-9.643,9.643-14.954,22.463-14.954,36.1c0,4.978,0.716,9.846,2.084,14.492h-37.928v51.053    c0,28.151,22.902,51.054,51.053,51.054h20.637v34.206c-11.728-8.325-26.041-13.232-41.487-13.232H20.468v25.601h160.767v30.417    H20.468v25.601h30.417h189.907h30.417h189.906h30.417v-25.601H330.766v-30.417H491.532z"/>
	</g>
</g>
<g>
	<g>
		<polygon points="30.417,397.309 20.468,397.309 0,397.309 0,436.501 240.791,436.501 240.791,406.084 240.791,397.309   "/>
	</g>
</g>
<g>
	<g>
		<polygon points="491.532,397.309 481.583,397.309 271.208,397.309 271.208,406.084 271.208,436.501 512,436.501 512,397.309   "/>
	</g>
</g>
<g>
</g>
<g>
</g>
<g>
</g>
<g>
</g>
<g>
</g>
<g>
</g>
<g>
</g>
<g>
</g>
<g>
</g>
<g>
</g>
<g>
</g>
<g>
</g>
<g>
</g>
<g>
</g>
<g>
</g>
</svg>
