<?xml version="1.0" encoding="iso-8859-1"?>
<!-- Generator: Adobe Illustrator 19.0.0, SVG Export Plug-In . SVG Version: 6.00 Build 0)  -->
<svg xmlns="http://www.w3.org/2000/svg" xmlns:xlink="http://www.w3.org/1999/xlink" version="1.1" id="Layer_1" x="0px" y="0px" viewBox="0 0 512 512" style="enable-background:new 0 0 512 512;" xml:space="preserve">
<g>
	<g>
		<path d="M54.294,435.678c4.617,6.871,8.01,14.624,9.902,22.942h411.452v-22.942H54.294z"/>
	</g>
</g>
<g>
	<g>
		<path d="M2.393,436.025v75.628c18.652-2.49,33.089-18.493,33.089-37.814C35.482,454.517,21.045,438.515,2.393,436.025z"/>
	</g>
</g>
<g>
	<g>
		<path d="M64.196,489.057c-1.892,8.318-5.285,16.072-9.902,22.943h421.355v-22.943H64.196z"/>
	</g>
</g>
<g>
	<g>
		<rect x="51.245" y="353.978" width="345.172" height="51.255"/>
	</g>
</g>
<g>
	<g>
		<polygon points="483.445,353.98 483.445,405.241 506.085,405.241 509.607,405.241 509.607,353.98   "/>
	</g>
</g>
<g>
	<g>
		<rect x="426.854" y="353.978" width="26.16" height="51.255"/>
	</g>
</g>
<g>
	<g>
		<path d="M28.604,252.105v71.439h458.364v-71.439H28.604z M98.37,303.042H60.639v-30.437H98.37V303.042z M154.967,303.042h-37.731    v-30.437h37.731V303.042z M211.564,303.042h-37.731v-30.437h37.731V303.042z M454.933,303.042h-37.731v-30.437h37.731V303.042z"/>
	</g>
</g>
<g>
	<g>
		<path d="M359.664,119.743c-10.067-0.783-18.716-7.052-22.571-16.359c-4.486-10.832-1.459-23.147,7.533-30.646l13.43-11.199    l-12.945-11.756c-14.828-13.465-33.658-20.882-53.02-20.882c-7.089,0-14.095,0.989-20.872,2.919V0h-30.437v31.823    c-6.777-1.93-13.784-2.919-20.872-2.919c-45.616,0-82.729,40.35-82.729,89.946c0,25.172,8.314,57.2,21.183,81.596    c4.19,7.945,8.809,15.028,13.785,21.223h167.695v-0.001c19.251-24.171,30.288-58.205,33.731-84.797l2.057-15.884L359.664,119.743z    "/>
	</g>
</g>
<g>
</g>
<g>
</g>
<g>
</g>
<g>
</g>
<g>
</g>
<g>
</g>
<g>
</g>
<g>
</g>
<g>
</g>
<g>
</g>
<g>
</g>
<g>
</g>
<g>
</g>
<g>
</g>
<g>
</g>
</svg>
