<?xml version="1.0" encoding="iso-8859-1"?>
<!-- Generator: Adobe Illustrator 19.0.0, SVG Export Plug-In . SVG Version: 6.00 Build 0)  -->
<svg xmlns="http://www.w3.org/2000/svg" xmlns:xlink="http://www.w3.org/1999/xlink" version="1.1" id="Layer_1" x="0px" y="0px" viewBox="0 0 511.992 511.992" style="enable-background:new 0 0 511.992 511.992;" xml:space="preserve">
<g>
	<g>
		<rect x="113.969" y="387.89" width="284.066" height="50.675"/>
	</g>
</g>
<g>
	<g>
		<path d="M113.964,73.432v53.792c19.822,2.334,32.231,8.684,43.276,14.361c12.463,6.406,23.227,11.938,46.046,11.938    c22.822,0,33.586-5.532,46.05-11.938c13.955-7.172,29.773-15.301,59.953-15.301c30.18,0,45.997,8.129,59.953,15.301    c8.475,4.356,16.006,8.215,26.949,10.303c1.194-7.398,1.837-14.98,1.837-22.711V73.432H113.964z"/>
	</g>
</g>
<g>
	<g>
		<path d="M116.229,357.476h279.533c-8.036-44.416-36.799-81.71-75.871-101.476c30.925-15.645,55.374-42.278,68.218-74.724    c-13.972-2.996-23.849-8.053-32.769-12.638c-12.465-6.406-23.23-11.938-46.051-11.938c-22.822,0-33.586,5.532-46.05,11.938    c-13.956,7.172-29.773,15.301-59.953,15.301c-30.179,0-45.995-8.13-59.95-15.301c-8.274-4.253-15.701-8.065-26.324-10.184    c8.982,42.679,37.175,78.367,75.088,97.546C153.027,275.766,124.264,313.06,116.229,357.476z"/>
	</g>
</g>
<g>
	<g>
		<rect x="29.895" width="452.202" height="43.01"/>
	</g>
</g>
<g>
	<g>
		<rect x="29.895" y="468.982" width="452.202" height="43.01"/>
	</g>
</g>
<g>
	<g>
		<rect x="53.135" y="73.427" width="30.417" height="365.138"/>
	</g>
</g>
<g>
	<g>
		<rect x="428.442" y="73.427" width="30.417" height="365.138"/>
	</g>
</g>
<g>
</g>
<g>
</g>
<g>
</g>
<g>
</g>
<g>
</g>
<g>
</g>
<g>
</g>
<g>
</g>
<g>
</g>
<g>
</g>
<g>
</g>
<g>
</g>
<g>
</g>
<g>
</g>
<g>
</g>
</svg>
