<?xml version="1.0" encoding="iso-8859-1"?>
<!-- Generator: Adobe Illustrator 19.0.0, SVG Export Plug-In . SVG Version: 6.00 Build 0)  -->
<svg xmlns="http://www.w3.org/2000/svg" xmlns:xlink="http://www.w3.org/1999/xlink" version="1.1" id="Layer_1" x="0px" y="0px" viewBox="0 0 512 512" style="enable-background:new 0 0 512 512;" xml:space="preserve">
<g>
	<g>
		<g>
			<path d="M119.619,394.685V281.484l-42.611-26.097v89.258C77.008,362.685,92.008,380.146,119.619,394.685V419.8l-43.391,43.391     l22.736,22.736l20.655-20.655v32.998h32.154v-32.998l20.655,20.655l22.736-22.736L151.773,419.8v-11.54     c-5.938-2.011-11.715-4.176-17.257-6.529C129.2,399.472,124.239,397.118,119.619,394.685z"/>
			<path d="M256.001,365.011l-104.227-63.835v107.082c31.275,10.588,67.576,16.347,104.227,16.347     c43.61,0,86.752-8.124,121.484-22.877c37.085-15.752,57.508-36.026,57.508-57.085v-89.259L256.001,365.011z"/>
			<rect x="151.773" y="408.259" width="0" height="0.001"/>
		</g>
	</g>
</g>
<g>
	<g>
		<polygon points="256.001,13.73 0,170.517 120.305,244.199 247.604,166.233 264.397,193.653 151.774,262.631 151.774,263.471     256.001,327.305 512,170.517   "/>
	</g>
</g>
<g>
</g>
<g>
</g>
<g>
</g>
<g>
</g>
<g>
</g>
<g>
</g>
<g>
</g>
<g>
</g>
<g>
</g>
<g>
</g>
<g>
</g>
<g>
</g>
<g>
</g>
<g>
</g>
<g>
</g>
</svg>
