<?xml version="1.0" encoding="iso-8859-1"?>
<!-- Generator: Adobe Illustrator 19.0.0, SVG Export Plug-In . SVG Version: 6.00 Build 0)  -->
<svg xmlns="http://www.w3.org/2000/svg" xmlns:xlink="http://www.w3.org/1999/xlink" version="1.1" id="Layer_1" x="0px" y="0px" viewBox="0 0 512 512" style="enable-background:new 0 0 512 512;" xml:space="preserve">
<g>
	<g>
		<polygon points="255.999,104.097 231.646,141.635 280.353,141.635   "/>
	</g>
</g>
<g>
	<g>
		<path d="M300.096,172.066h-88.195l-33.928,52.295c2.762,1.258,5.987,2.596,9.679,3.931c13.613,4.921,36.522,10.786,68.346,10.786    c31.824,0,54.733-5.865,68.346-10.786c3.692-1.335,6.917-2.674,9.679-3.931L300.096,172.066z"/>
	</g>
</g>
<g>
	<g>
		<path d="M171.602,254.685v257.314h35.977V265.086C192.88,262.256,180.898,258.43,171.602,254.685z"/>
	</g>
</g>
<g>
	<g>
		<path d="M273.988,268.926c-5.725,0.37-11.708,0.583-17.988,0.583c-6.28,0-12.264-0.213-17.988-0.583V512h35.977V268.926H273.988z"/>
	</g>
</g>
<g>
	<g>
		<path d="M304.42,265.087V512h35.977V254.686C331.102,258.431,319.12,262.257,304.42,265.087z"/>
	</g>
</g>
<g>
	<g>
		
			<rect x="295.614" y="41.755" transform="matrix(0.7071 -0.7071 0.7071 0.7071 54.6996 245.9979)" width="57.363" height="30.431"/>
	</g>
</g>
<g>
	<g>
		<polygon points="240.783,0 240.783,57.362 250.045,57.362 261.954,57.362 271.215,57.362 271.215,0   "/>
	</g>
</g>
<g>
	<g>
		<rect x="130.734" y="110.051" width="57.364" height="30.432"/>
	</g>
</g>
<g>
	<g>
		<rect x="323.903" y="110.051" width="57.364" height="30.432"/>
	</g>
</g>
<g>
	<g>
		<rect x="172.49" y="28.282" transform="matrix(0.7071 -0.7071 0.7071 0.7071 14.6983 149.4126)" width="30.431" height="57.363"/>
	</g>
</g>
<g>
</g>
<g>
</g>
<g>
</g>
<g>
</g>
<g>
</g>
<g>
</g>
<g>
</g>
<g>
</g>
<g>
</g>
<g>
</g>
<g>
</g>
<g>
</g>
<g>
</g>
<g>
</g>
<g>
</g>
</svg>
