<?xml version="1.0" encoding="iso-8859-1"?>
<!-- Generator: Adobe Illustrator 19.0.0, SVG Export Plug-In . SVG Version: 6.00 Build 0)  -->
<svg version="1.1" id="Layer_1" xmlns="http://www.w3.org/2000/svg" xmlns:xlink="http://www.w3.org/1999/xlink" x="0px" y="0px"
	 viewBox="0 0 299.124 299.124" style="enable-background:new 0 0 299.124 299.124;" xml:space="preserve">
<g id="XMLID_1230_">
	<g>
		<g>
			<circle cx="230.685" cy="43.392" r="20.303"/>
			<path d="M200.718,93.33c0.005-1.043,0.854-1.885,1.897-1.882c1.043,0.003,1.886,0.849,1.886,1.892v34.203h51.888V93.318
				c0-1.132,0.918-2.05,2.05-2.05c1.132,0,2.049,0.918,2.049,2.05c0,0,0,0.008,0,0.012l0.172,34.213h19.592l-0.172-34.311
				c-0.064-12.719-10.463-23.066-23.182-23.066h-10.041l-12.143,31.725l2.863-13.487c0.201-0.947,0.055-1.935-0.411-2.783
				l-3.932-7.151l3.496-6.358c0.242-0.441,0.234-0.977-0.022-1.41s-0.722-0.699-1.225-0.699h-9.594
				c-0.503,0-0.969,0.266-1.225,0.699c-0.256,0.433-0.265,0.969-0.022,1.41l3.496,6.358l-3.946,7.177
				c-0.458,0.832-0.607,1.799-0.422,2.731l2.802,13.705l-12.317-31.918h-9.946c-12.719,0-23.118,10.347-23.182,23.066l-0.172,34.311
				h19.592L200.718,93.33z"/>
			<path d="M288.929,140.456H92.848v20.39h196.081c5.63,0,10.195-4.564,10.195-10.195S294.559,140.456,288.929,140.456z"/>
			<path d="M113.683,128.399l38.238-7.023c5.784-1.063,9.612-6.612,8.549-12.396c-1.062-5.784-6.614-9.612-12.396-8.549
				l-30.79,5.656l-16.884-29.758c-3.379-5.956-9.732-9.655-16.58-9.655c-5.764,0-51.941,0-58.228,0
				c-13.825,0-25.128,11.246-25.197,25.07L0,169.968c-0.03,5.881,4.713,10.672,10.594,10.702c0.018,0,0.036,0,0.055,0
				c5.855,0,10.617-4.732,10.646-10.594l0.393-78.226c0.006-1.165,0.954-2.105,2.118-2.102c1.165,0.003,2.107,0.948,2.107,2.113
				l0.005,178.983c0,7.056,5.721,12.777,12.778,12.777s12.778-5.721,12.778-12.777V168.713h5.517v102.131
				c0,7.056,5.721,12.777,12.778,12.777s12.778-5.721,12.778-12.777C82.545,131.607,82.42,97.64,82.41,90.016
				c-0.001-0.249,0.167-0.467,0.408-0.53c0.241-0.064,0.494,0.042,0.617,0.259l19.064,33.435
				C104.733,127.119,109.218,129.218,113.683,128.399z"/>
			<path d="M54.229,59.638c12.221,0,22.068-9.943,22.068-22.068c0-12.191-9.899-22.068-22.068-22.068
				c-12.271,0-22.068,9.971-22.068,22.068C32.162,49.751,42.037,59.638,54.229,59.638z"/>
		</g>
	</g>
</g>
<g>
</g>
<g>
</g>
<g>
</g>
<g>
</g>
<g>
</g>
<g>
</g>
<g>
</g>
<g>
</g>
<g>
</g>
<g>
</g>
<g>
</g>
<g>
</g>
<g>
</g>
<g>
</g>
<g>
</g>
</svg>
