<?xml version="1.0" encoding="iso-8859-1"?>
<!-- Generator: Adobe Illustrator 19.0.0, SVG Export Plug-In . SVG Version: 6.00 Build 0)  -->
<svg version="1.1" id="Layer_1" xmlns="http://www.w3.org/2000/svg" xmlns:xlink="http://www.w3.org/1999/xlink" x="0px" y="0px"
	 viewBox="0 0 302.015 302.015" style="enable-background:new 0 0 302.015 302.015;" xml:space="preserve">
<g id="XMLID_1273_">
	<g>
		<g>
			<circle cx="188.615" cy="57.437" r="21.318"/>
			<path d="M294.591,14.455h-18.929c-0.578-2.109-1.819-4.054-3.697-5.477c-4.528-3.43-10.98-2.542-14.41,1.987l-2.645,3.49H121.814
				l-2.645-3.49c-3.431-4.528-9.883-5.417-14.41-1.987c-1.878,1.423-3.119,3.368-3.697,5.477H9.262
				c-4.101,0-7.424,3.324-7.424,7.424c0,2.647,1.39,4.965,3.476,6.279c-20.879,39.216,27.835,78.432,8.645,117.649
				c-0.814,1.663-0.717,3.627,0.263,5.198c0.979,1.571,2.701,2.526,4.553,2.526c21.098,0,42.196,0,63.294,0
				c2.382,0,4.605-1.234,5.869-3.252c25.245-40.325-26.833-80.651-6.743-120.976h26.059l53.868,71.095
				c0,0,0.005,176.146,0.005,182.384c0,6.816,5.526,12.343,12.343,12.343s12.343-5.526,12.343-12.343v-98.659h5.33v98.659
				c0,6.816,5.526,12.343,12.343,12.343c6.817,0,12.343-5.526,12.343-12.343c0-1.795-0.224-182.384-0.224-182.384l53.867-71.095
				h25.12c4.101,0,7.424-3.324,7.424-7.424S298.692,14.455,294.591,14.455z M201.042,85.55c-6.409,0-18.942,0-25.36,0
				l-42.618-56.248h110.597L201.042,85.55z"/>
		</g>
	</g>
</g>
<g>
</g>
<g>
</g>
<g>
</g>
<g>
</g>
<g>
</g>
<g>
</g>
<g>
</g>
<g>
</g>
<g>
</g>
<g>
</g>
<g>
</g>
<g>
</g>
<g>
</g>
<g>
</g>
<g>
</g>
</svg>
