<?xml version="1.0" encoding="iso-8859-1"?>
<!-- Generator: Adobe Illustrator 19.0.0, SVG Export Plug-In . SVG Version: 6.00 Build 0)  -->
<svg version="1.1" id="Layer_1" xmlns="http://www.w3.org/2000/svg" xmlns:xlink="http://www.w3.org/1999/xlink" x="0px" y="0px"
	 viewBox="0 0 301.013 301.013" style="enable-background:new 0 0 301.013 301.013;" xml:space="preserve">
<g id="XMLID_1267_">
	<g>
		<g>
			<circle cx="51.505" cy="27.95" r="24.15"/>
			<path d="M128.491,29.034c-5.094-3.25-11.86-1.757-15.113,3.338l-20.365,31.91l-35.478,0.656l13.588-3.866
				c-13.17,0-20.174,0-32.785,0c-7.284,0-13.521,5.139-14.935,12.285L0.123,190.97c-0.376,1.9,0.119,3.868,1.348,5.366
				c1.229,1.498,3.065,2.371,5.002,2.371c3.715,0,8.537,0,14.047,0v84.524c0,7.723,6.26,13.983,13.983,13.983
				s13.983-6.26,13.983-13.983v-84.524c2.011,0,4.027,0,6.038,0v84.524c0,7.723,6.26,13.983,13.983,13.983
				s13.983-6.26,13.983-13.983v-84.524c5.512,0,10.334,0,14.047,0c1.938,0,3.775-0.869,5.004-2.367
				c1.23-1.499,1.722-3.469,1.346-5.37L83.513,93.086l-25.576-6.265l41.347-0.764c3.664-0.068,7.051-1.965,9.023-5.054
				l23.522-36.856C135.08,39.051,133.586,32.285,128.491,29.034z"/>
			<path d="M221.071,261.221l-1.09,3.723c-2.366,8.084-9.898,13.73-18.316,13.73c-1.614,0-3.221-0.218-4.792-0.625l-3.567,13.709
				c-0.34,1.306-0.055,2.695,0.77,3.763c0.825,1.067,2.099,1.692,3.448,1.692h27.317c1.984,0,3.718-1.34,4.217-3.26l4.163-16
				C226.283,275.26,221.484,268.69,221.071,261.221z"/>
			<path d="M179.471,237.682h-27.317c-1.984,0-3.718,1.341-4.217,3.26l-13.223,50.815c-0.34,1.306-0.055,2.695,0.77,3.763
				c0.825,1.067,2.099,1.692,3.448,1.692h27.317c1.984,0,3.718-1.34,4.217-3.26l13.223-50.815c0.34-1.306,0.055-2.695-0.77-3.763
				C182.094,238.307,180.821,237.682,179.471,237.682z"/>
			<path d="M300.103,239.375c-0.825-1.068-2.099-1.692-3.448-1.692h-27.317c-1.984,0-3.718,1.34-4.217,3.26l-13.223,50.815
				c-0.34,1.306-0.055,2.695,0.77,3.763c0.825,1.067,2.099,1.692,3.448,1.692h27.317c1.984,0,3.718-1.34,4.217-3.26l13.223-50.815
				C301.213,241.832,300.929,240.443,300.103,239.375z"/>
			<path d="M255.037,221.289l-5.71-24.256l0.628-59.524c0-6.66-5.399-12.059-12.06-12.059h-29.088
				c-4.332-4.372-9.717-6.964-15.553-6.964c-14.315,0-25.919,15.584-25.919,34.808c0,7.814,1.917,15.027,5.155,20.836l-0.189-0.72
				l-0.977-3.72c-1.335-5.077,0.793-10.26,4.898-13.055l29.558-20.048l0.239-0.162l-22.849,26.255
				c-2.001,2.299-2.735,5.44-1.96,8.388l7.525,28.634c1.292,4.914,6.32,7.861,11.25,6.567c4.92-1.292,7.86-6.329,6.568-11.249
				l-6.286-23.922l19.65-22.579l-10.47,21.27c3.652,13.9,2.365,8.998,6.015,22.89c2.483,9.45-2.844,19.11-11.985,22.152
				l-0.397,4.268l-11.023,37.67c-1.552,5.304,1.488,10.863,6.795,12.417c5.314,1.554,10.866-1.498,12.416-6.795l11.293-38.595
				c0.18-0.615,0.3-1.247,0.36-1.885l2.311-24.88h3.534l6.358,27.011c-0.492,3.485-4.289,30.363-4.904,34.719
				c-0.773,5.472,3.036,10.536,8.51,11.309c5.472,0.774,10.536-3.037,11.309-8.509c0.648-4.591,4.652-32.941,5.167-36.58
				C255.387,223.692,255.298,222.396,255.037,221.289z"/>
			<circle cx="228.073" cy="91.727" r="21.577"/>
		</g>
	</g>
</g>
<g>
</g>
<g>
</g>
<g>
</g>
<g>
</g>
<g>
</g>
<g>
</g>
<g>
</g>
<g>
</g>
<g>
</g>
<g>
</g>
<g>
</g>
<g>
</g>
<g>
</g>
<g>
</g>
<g>
</g>
</svg>
