<?xml version="1.0" encoding="iso-8859-1"?>
<!-- Generator: Adobe Illustrator 19.0.0, SVG Export Plug-In . SVG Version: 6.00 Build 0)  -->
<svg version="1.1" id="Layer_1" xmlns="http://www.w3.org/2000/svg" xmlns:xlink="http://www.w3.org/1999/xlink" x="0px" y="0px"
	 viewBox="0 0 301.419 301.419" style="enable-background:new 0 0 301.419 301.419;" xml:space="preserve">
<g id="XMLID_1143_">
	<g>
		<g>
			<circle cx="229.681" cy="115.054" r="16.874"/>
			<path d="M298.813,175.322l-29.761-45.081c-3.468-5.254-10.539-6.701-15.793-3.233l-16.964,11.2
				c-3.142,2.074-4.91,5.438-5.092,8.93l14.73-7.637l-25.157,21.115l-23.336,10.068c-3.889-6.413-9.726-11.512-16.697-14.468
				l-11.911-62.767c-0.676-3.562-3.789-6.139-7.414-6.139H41.204c-3.625,0-6.738,2.578-7.414,6.139l-11.91,62.767
				C9.021,161.67,0,174.411,0,189.259v29.961c0,7.416,6.011,13.426,13.426,13.426h4.403v15.431c0,9.78,7.928,17.708,17.708,17.708
				s17.708-7.928,17.708-17.708v-15.431h96.13v15.431c0,9.78,7.928,17.708,17.708,17.708c9.78,0,17.708-7.928,17.708-17.708v-15.431
				h4.403c7.415,0,13.427-6.011,13.427-13.426v-29.961c0-1.373-0.078-2.726-0.228-4.06l25.467-10.988
				c0.682-0.294,1.317-0.686,1.886-1.164l26.015-21.835l-13.168,17.227l9.563,14.484l3.862,5.849l-15.444,14.014
				c-1.082,0.982-1.906,2.215-2.398,3.59l-17.022,47.494c-1.659,4.63,0.748,9.728,5.378,11.388c4.631,1.659,9.728-0.75,11.388-5.378
				l16.271-45.399l20.397-17.815l-7.094,13.239c-0.972,1.814-1.328,4.092-0.817,6.255l10.11,42.765
				c1.13,4.779,5.919,7.75,10.715,6.618c4.786-1.132,7.75-5.929,6.617-10.715l-9.334-39.484l15.74-29.376
				C302.447,182,300.989,179.121,298.813,175.322z M35.031,212.157c-8.459,0-15.445-6.283-16.559-14.436
				c-0.102-0.746-0.159-1.507-0.159-2.281c0-9.233,7.484-16.717,16.717-16.717c9.192,0,16.648,7.419,16.714,16.595
				c0,0.041,0.003,0.081,0.003,0.122C51.749,204.672,44.264,212.157,35.031,212.157z M37.78,153.383l9.674-50.98h107.713
				l9.674,50.98H37.78z M184.148,197.721c-1.113,8.152-8.1,14.436-16.558,14.436c-9.233,0-16.718-7.484-16.718-16.717
				c0-0.041,0.003-0.081,0.003-0.122c0.066-9.176,7.523-16.595,16.714-16.595c9.233,0,16.717,7.484,16.717,16.717
				C184.307,196.214,184.25,196.974,184.148,197.721z"/>
			<path d="M208.194,80.477c1.303,2.547,4.423,3.556,6.972,2.253c2.547-1.303,3.555-4.425,2.253-6.972l-10.571-20.663
				c-1.303-2.548-4.425-3.555-6.972-2.253c-2.547,1.303-3.555,4.425-2.253,6.972L208.194,80.477z"/>
			<path d="M228.596,83.213c2.812,0.519,5.515-1.34,6.034-4.155l6.881-37.302c0.519-2.814-1.342-5.516-4.155-6.034
				c-2.81-0.521-5.515,1.34-6.034,4.155l-6.881,37.302C223.922,79.992,225.783,82.693,228.596,83.213z"/>
		</g>
	</g>
</g>
<g>
</g>
<g>
</g>
<g>
</g>
<g>
</g>
<g>
</g>
<g>
</g>
<g>
</g>
<g>
</g>
<g>
</g>
<g>
</g>
<g>
</g>
<g>
</g>
<g>
</g>
<g>
</g>
<g>
</g>
</svg>
