<?xml version="1.0" encoding="iso-8859-1"?>
<!-- Generator: Adobe Illustrator 19.0.0, SVG Export Plug-In . SVG Version: 6.00 Build 0)  -->
<svg version="1.1" id="Layer_1" xmlns="http://www.w3.org/2000/svg" xmlns:xlink="http://www.w3.org/1999/xlink" x="0px" y="0px"
	 viewBox="0 0 299.913 299.913" style="enable-background:new 0 0 299.913 299.913;" xml:space="preserve">
<g id="XMLID_1392_">
	<g>
		<g>
			<path d="M227.314,229.936l41.669-3.184c4.012-0.307,7.269-3,8.49-6.581l4.976-68.815c0.439-6.677-4.614-12.446-11.291-12.889
				l-21.572-1.431c-6.679-0.443-12.452,4.612-12.895,11.29l-0.899,13.545l14.098-12.412l-14.669,21.898l-28.117-0.103
				c-0.01,0-0.02,0-0.031,0c-4.475,0-8.111,3.62-8.128,8.098c-0.016,4.489,3.609,8.141,8.098,8.158l32.475,0.119
				c0.01,0,0.02,0,0.03,0c2.711,0,5.244-1.351,6.753-3.605l17.094-25.518l-10.34,30.042c-1.53,4.445-5.693,7.234-10.145,7.225
				c-4.313-0.019-2.263-0.011-9.366-0.037l-0.693,10.441l20.208,2.226l-41.081,3.139c-3.168,0.242-6.02,2.012-7.643,4.744
				c-1.622,2.732-1.813,6.083-0.51,8.981l22.749,50.601c2.211,4.919,7.987,7.104,12.896,4.896c4.913-2.209,7.106-7.982,4.897-12.895
				L227.314,229.936z"/>
			<circle cx="259.97" cy="110.817" r="17.941"/>
			<path d="M292.806,139.01c-3.925,0-7.107,3.182-7.107,7.107v85.76h-34.588c-3.925,0-7.107,3.182-7.107,7.107
				s3.182,7.107,7.107,7.107h34.588v28.428c0,3.925,3.182,7.107,7.107,7.107s7.107-3.182,7.107-7.107V146.117
				C299.913,142.192,296.73,139.01,292.806,139.01z"/>
			<path d="M174.408,84.199l10-4.539l9.97-16.833c-1.076-9.602-9.218-17.068-19.107-17.068c-10.621,0-19.23,8.61-19.23,19.23
				C156.041,75.322,164.188,83.747,174.408,84.199z"/>
			<path d="M204.917,97.433l25.076-42.341c7.271-2.694,12.411-9.699,12.411-17.815c0-10.472-8.52-18.991-18.992-18.991
				c-10.472,0-18.992,8.52-18.992,18.991c0,5.474,2.337,10.461,6.131,13.959l-19.668,33.209l-34.01,7.712l-9.254-0.525
				c-7.747-0.636-14.542,5.127-15.179,12.873l-4.445,72.086l5.895,38.435l-14.371,52.417c-1.952,7.118,3.403,14.183,10.822,14.183
				c4.926,0,9.443-3.271,10.809-8.252l15.003-54.721c0.417-1.519,0.509-3.108,0.27-4.665l-5.446-35.506l4.363,0.359l13.378,36.475
				l-11.175,52.771c-1.283,6.059,2.589,12.011,8.648,13.295c6.06,1.282,12.012-2.59,13.295-8.648l11.844-55.927
				c0.437-2.062,0.283-4.206-0.443-6.185l-11.227-30.616l5.763-70.104l-24.415,0.486l37.934-8.601
				C201.447,101.216,203.607,99.643,204.917,97.433z M223.412,28.414c4.987,0,8.863,4.105,8.863,8.863
				c0,2.494-1.039,4.746-2.703,6.358c-0.668-0.805-1.474-1.517-2.424-2.081c-3.546-2.1-7.907-1.581-10.863,0.968
				c-1.086-1.471-1.736-3.282-1.736-5.246C214.549,32.437,218.489,28.414,223.412,28.414z"/>
			<circle cx="47.276" cy="64.279" r="19.291"/>
			<path d="M107.411,130.468V29.881c0-3.86-3.129-6.989-6.989-6.989c-3.86,0-6.989,3.129-6.989,6.989v101.007l-5.156,2.113
				L81.8,106.44c-2.076-8.512-9.645-14.458-18.407-14.458c-4.694,0-36.795,0-41.022,0c-12.085,0-21.966,9.831-22.027,21.916
				L0,182.278c-0.026,5.14,4.12,9.329,9.261,9.354c0.016,0,0.032,0,0.047,0c5.119,0,9.281-4.137,9.307-9.261l0.343-68.38
				c0.006-1.074,0.879-1.942,1.953-1.938s1.942,0.875,1.942,1.949c-0.015,28.334-0.202,89.896-0.202,156.454
				c0,6.168,5,11.17,11.169,11.17c6.169,0,11.17-5.001,11.17-11.17V181.18h4.822v89.277c0,6.168,5,11.17,11.169,11.17
				c6.169,0,11.17-5.001,11.17-11.17l0.005-124.996l0.6,2.46c0.642,2.634,2.401,4.857,4.817,6.087
				c2.425,1.236,5.258,1.343,7.756,0.319l8.105-3.322v123.631c0,3.86,3.129,6.989,6.989,6.989s6.989-3.129,6.989-6.989v-129.81
				c3.065-2.527,4.273-6.844,2.688-10.711C109.496,132.644,108.558,131.412,107.411,130.468z"/>
		</g>
	</g>
</g>
<g>
</g>
<g>
</g>
<g>
</g>
<g>
</g>
<g>
</g>
<g>
</g>
<g>
</g>
<g>
</g>
<g>
</g>
<g>
</g>
<g>
</g>
<g>
</g>
<g>
</g>
<g>
</g>
<g>
</g>
</svg>
