<?xml version="1.0" encoding="iso-8859-1"?>
<!-- Generator: Adobe Illustrator 19.0.0, SVG Export Plug-In . SVG Version: 6.00 Build 0)  -->
<svg version="1.1" id="Layer_1" xmlns="http://www.w3.org/2000/svg" xmlns:xlink="http://www.w3.org/1999/xlink" x="0px" y="0px"
	 viewBox="0 0 302.155 302.155" style="enable-background:new 0 0 302.155 302.155;" xml:space="preserve">
<g id="XMLID_1494_">
	<g>
		<g>
			<circle cx="219.904" cy="47.422" r="24.448"/>
			<path d="M296.252,167.701h-10.767c0-5.083,0-8.42,0-13.389c0-3.316-2.703-6.103-6.103-6.103h-5.541
				c0.322-6.102-4.217-10.964-9.829-11.586l-38.083-4.215l-19.314-37.439l24.081,26.831l4.508-19.842
				c2.021-8.895-3.551-17.743-12.446-19.764c-25.995-6.094-28.16-7.081-33.089-7.46c-1.765-0.136-3.573,0.208-5.392,0.736
				L138.68,88.717c-4.213,1.224-7.306,4.819-7.888,9.168l-7.942,59.356c-0.811,6.063,3.446,11.636,9.51,12.448
				c6.069,0.812,11.637-3.451,12.448-9.51l6.985-52.202l19.24-5.59c-0.405,1.779-15.127,66.579-15.531,68.357l-6.384,46.89
				l-37.087,63.857c-3.578,6.162-1.485,14.058,4.677,17.637c6.164,3.58,14.06,1.482,17.637-4.677l38.367-66.061
				c0.845-1.455,1.398-3.062,1.626-4.729l6.461-47.17l9.099,2.067l20.349,46.271l2.139,63.576
				c0.234,6.974,5.961,12.469,12.887,12.469c0.146,0,0.294-0.003,0.442-0.007c7.122-0.24,12.701-6.207,12.461-13.329l-1.822-54.158
				h-5.17c-9.579,0-17.371-7.793-17.371-17.371v-32.016v-10.389c0-3.4,0.985-6.572,2.68-9.253l-0.074-0.008
				c-9.798-1.084-16.441-8.615-17.77-13.914l-11.013-43.928l21.328,41.342c1.7,3.293,4.939,5.523,8.626,5.931
				c25.118,2.781,21.5,2.459,24.362,2.459v11.469h-10.767c-3.26,0-5.902,2.643-5.902,5.902v42.405c0,3.26,2.643,5.902,5.902,5.902
				h65.069c3.26,0,5.902-2.643,5.902-5.902v-42.405C302.155,170.344,299.512,167.701,296.252,167.701z M273.28,167.701h-19.122
				v-7.286h19.122V167.701z"/>
			<path d="M86.364,41.583c2.482,0,4.709-1.525,5.606-3.839l9.38-24.19c0.335-0.864,0.222-1.837-0.301-2.602
				c-0.523-0.764-1.391-1.222-2.317-1.222H78.663V7.292c0-3.321-2.692-6.013-6.013-6.013H31.489c-3.321,0-6.013,2.692-6.013,6.013
				v88.067h0.201v179.713H12.902C5.776,275.072,0,280.848,0,287.974c0,7.126,5.776,12.902,12.902,12.902h51.355
				c7.126,0,12.902-5.776,12.902-12.902c0-7.126-5.776-12.902-12.902-12.902H51.482V95.359H72.65c3.321,0,6.013-2.692,6.013-6.013
				v-5.601h7.701c2.482,0,4.709-1.525,5.606-3.839l9.38-24.19c0.335-0.864,0.222-1.837-0.301-2.602s-1.391-1.222-2.317-1.222H78.663
				V41.583H86.364z"/>
		</g>
	</g>
</g>
<g>
</g>
<g>
</g>
<g>
</g>
<g>
</g>
<g>
</g>
<g>
</g>
<g>
</g>
<g>
</g>
<g>
</g>
<g>
</g>
<g>
</g>
<g>
</g>
<g>
</g>
<g>
</g>
<g>
</g>
</svg>
