<?xml version="1.0" encoding="iso-8859-1"?>
<!-- Generator: Adobe Illustrator 19.0.0, SVG Export Plug-In . SVG Version: 6.00 Build 0)  -->
<svg version="1.1" id="Layer_1" xmlns="http://www.w3.org/2000/svg" xmlns:xlink="http://www.w3.org/1999/xlink" x="0px" y="0px"
	 viewBox="0 0 298.46 298.46" style="enable-background:new 0 0 298.46 298.46;" xml:space="preserve">
<g id="XMLID_1370_">
	<g>
		<g>
			<path d="M154.598,187.481l-16.183-9.793l-27.069,3.46c-8.159,1.043-16.21,2.072-24.373,3.115
				c-7.481,0.956-14.466-2.952-17.794-9.251l-7.703,0.023l3.082-10.758l-16.925-39.941l31.167,42.091
				c2.567,3.466,6.837,5.344,11.217,4.784l51.142-6.537c6.605-0.844,11.274-6.882,10.429-13.487
				c-0.844-6.605-6.882-11.274-13.487-10.43l-44.131,5.641l-30.065-40.601l13.843,12.134l0.906-2.863
				c2.735-9.543-2.786-19.497-12.329-22.231c-4.317-1.237-8.745-1.812-13.15-1.772c-0.012,0-0.025,0-0.038,0
				c-8.232,0.08-16.378,2.343-23.553,6.698c-11.024,6.692-18.753,17.684-21.323,30.322L0.637,165.61
				c-1.901,9.349,0.499,19.057,6.535,26.444c5.764,7.053,14.262,11.268,23.323,11.636c2.441,0.551,1.407,0.364,29.442,0.282
				l-43.09,36.581c-6.091,5.171-6.837,14.3-1.666,20.391c5.171,6.091,14.3,6.837,20.391,1.666l73.258-62.191
				c2.874-2.44,4.61-5.834,5.012-9.42l28.273,17.109c5.697,3.447,13.108,1.624,16.556-4.072
				C162.117,198.34,160.294,190.928,154.598,187.481z"/>
			<circle cx="77.937" cy="59.019" r="26.609"/>
			<path d="M297.557,191.552c-1.134-1.277-2.978-1.55-4.412-0.755l-11.034,6.113c-2.727-2.232-6.027-3.715-9.575-4.239
				l-51.955-7.686l-12.3-16.29c-0.092-0.224-0.218-0.422-0.358-0.605c-0.676-1.203-1.548-2.245-2.564-3.093h0.035l-2.346-13.045
				c-0.081-0.449-0.407-0.816-0.844-0.948c-0.437-0.132-0.912-0.008-1.228,0.322c-2.147,2.241-5.743,6.629-7.031,11.916
				l-12.15,4.938c-0.839,0.341-1.479,1.041-1.743,1.907s-0.124,1.804,0.382,2.555l2.38,3.535l-10.785,4.383
				c-0.79,0.321-1.381,0.997-1.595,1.823c-0.213,0.826-0.023,1.704,0.512,2.367l4.882,6.051c3.091,3.832,8.328,5.186,12.89,3.332
				c1.964-0.798,4.174-0.742,6.098,0.145c1.925,0.887,3.399,2.53,4.07,4.54c3.229,9.671,8.929,25.611,13.276,31.621l-12.297,26.562
				c-1.477,3.193-0.088,6.978,3.104,8.457c3.193,1.478,6.979,0.088,8.457-3.104l14.349-30.994
				c10.377-1.216,25.689-3.115,38.745-4.837c2.32,5.88,7.026,10.065,12.566,10.655l6.512,24.157
				c0.917,3.399,4.414,5.407,7.808,4.492c3.397-0.915,5.407-4.412,4.492-7.808l-6.963-25.832c3.052-3.479,4.965-8.452,4.965-13.977
				c0-5.308-1.765-10.106-4.609-13.56c-0.094-0.228-0.196-0.46-0.308-0.695l8.276-7.349
				C298.735,195.294,298.87,193.03,297.557,191.552z"/>
		</g>
	</g>
</g>
<g>
</g>
<g>
</g>
<g>
</g>
<g>
</g>
<g>
</g>
<g>
</g>
<g>
</g>
<g>
</g>
<g>
</g>
<g>
</g>
<g>
</g>
<g>
</g>
<g>
</g>
<g>
</g>
<g>
</g>
</svg>
