<?xml version="1.0" encoding="iso-8859-1"?>
<!-- Generator: Adobe Illustrator 19.0.0, SVG Export Plug-In . SVG Version: 6.00 Build 0)  -->
<svg version="1.1" id="Layer_1" xmlns="http://www.w3.org/2000/svg" xmlns:xlink="http://www.w3.org/1999/xlink" x="0px" y="0px"
	 viewBox="0 0 299.13 299.13" style="enable-background:new 0 0 299.13 299.13;" xml:space="preserve">
<g id="XMLID_1475_">
	<g>
		<g>
			<circle cx="102.233" cy="42.351" r="22.79"/>
			<path d="M131.658,75.08c-9.51,0-41.344,0-51.464,0c-1.488,0-2.961,0.302-4.33,0.889L57.45,83.856l9.094-19.503l1.901,3.738
				c1.628,3.201,5.541,4.474,8.741,2.847s4.475-5.541,2.847-8.741L61.91,26.56c-1.628-3.2-5.541-4.474-8.741-2.847
				c-3.2,1.627-4.475,5.541-2.847,8.741l4.296,8.447c-1.381,1.046-2.536,2.43-3.32,4.109l-25.946,55.641
				c-1.927,4.132-1.104,9.025,2.068,12.299c3.173,3.275,8.037,4.252,12.227,2.456l33.192-14.217c0,0,0.005,183.657,0.005,184.746
				c0,7.288,5.908,13.196,13.196,13.196s13.196-5.908,13.196-13.196V180.461h5.697v105.474c0,7.288,5.908,13.196,13.196,13.196
				c7.288,0,13.196-5.908,13.196-13.196c0-49.446-0.227-133.664-0.239-184.882c0-1.271,1.03-2.301,2.3-2.302s2.301,1.03,2.302,2.3
				c0,0.01,0,0.021,0,0.032c0.25,49.863,0.204,31.757,0.204,79.378c0,6.073,4.923,10.996,10.996,10.996s10.996-4.923,10.996-10.996
				c-0.001-47.681,0.046-29.561-0.205-79.489C157.609,86.696,145.935,75.08,131.658,75.08z"/>
			<path d="M215.82,0c-32.578,0-58.987,18.752-58.987,41.883c0,1.604,0.131,3.186,0.379,4.744l-16.883,13.507
				c-0.848,0.679-1.193,1.808-0.87,2.845s1.249,1.77,2.333,1.846l26.502,1.866c10.739,10.355,28.027,17.076,47.527,17.076
				c32.578,0,58.988-18.752,58.988-41.883S248.398,0,215.82,0z M195.454,47.237c-2.957,0-5.355-2.397-5.355-5.355
				c0-2.957,2.397-5.355,5.355-5.355s5.355,2.397,5.355,5.355C200.808,44.84,198.411,47.237,195.454,47.237z M215.82,47.237
				c-2.957,0-5.355-2.397-5.355-5.355c0-2.957,2.397-5.355,5.355-5.355s5.355,2.397,5.355,5.355
				C221.175,44.84,218.778,47.237,215.82,47.237z M236.773,47.706c-2.958,0-5.355-2.397-5.355-5.355
				c0-2.958,2.397-5.355,5.355-5.355c2.957,0,5.355,2.397,5.355,5.355C242.128,45.309,239.73,47.706,236.773,47.706z"/>
		</g>
	</g>
</g>
<g>
</g>
<g>
</g>
<g>
</g>
<g>
</g>
<g>
</g>
<g>
</g>
<g>
</g>
<g>
</g>
<g>
</g>
<g>
</g>
<g>
</g>
<g>
</g>
<g>
</g>
<g>
</g>
<g>
</g>
</svg>
