<?xml version="1.0" encoding="iso-8859-1"?>
<!-- Generator: Adobe Illustrator 19.0.0, SVG Export Plug-In . SVG Version: 6.00 Build 0)  -->
<svg version="1.1" id="Layer_1" xmlns="http://www.w3.org/2000/svg" xmlns:xlink="http://www.w3.org/1999/xlink" x="0px" y="0px"
	 viewBox="0 0 297.923 297.923" style="enable-background:new 0 0 297.923 297.923;" xml:space="preserve">
<g id="XMLID_1554_">
	<g>
		<g>
			<path d="M296.127,149.991l-23.473-32.247c-0.538-0.739-1.182-1.396-1.91-1.949l-34.521-26.214
				c-2.632-1.998-5.145-2.437-8.869-1.338c-4.739,1.277-10.553,3.511-26.918,9.745c-3.002,1.147-5.377,3.218-6.933,5.762
				l14.731-3.163l-31.839,16.041l-4.484-2.553c-0.742,2.444-1.986,4.757-3.741,6.761c-2.498,2.852-4.466,3.709-10.114,6.924
				l13.43,7.647h0.001c2.663,1.518,6.001,1.652,8.835,0.234c0.007-0.003,0.014-0.005,0.02-0.008l35.159-17.714l-16.984,14.227
				l13.549,35.485l-14.139,11.242c-1.862,1.481-3.19,3.528-3.781,5.833l-13.282,51.759c-1.499,5.841,2.021,11.792,7.862,13.29
				c5.838,1.499,11.79-2.019,13.291-7.862l12.371-48.208l22.511-17.898l3.964-1.514l-4.12,23.451
				c-0.478,2.717,0.091,5.514,1.592,7.829l25.646,39.566c3.281,5.062,10.044,6.503,15.102,3.223
				c5.06-3.28,6.503-10.041,3.224-15.101l-23.312-35.965l4.835-27.52c0.526-2.996,0.341-6.075-0.543-8.986l-10.682-35.206
				l5.703,4.331l22.661,31.132c3.045,4.185,8.908,5.109,13.094,2.061C298.25,160.04,299.173,154.177,296.127,149.991z"/>
			<circle cx="198.683" cy="68.513" r="20.69"/>
			<circle cx="99.24" cy="68.513" r="20.69"/>
			<path d="M161.415,102.575c-0.01-0.012-0.02-0.025-0.031-0.037c-2.899-3.303-7.789-4.166-11.678-1.954
				c-17.939,10.214-10.233,5.826-28.178,16.044l-31.839-16.041l14.731,3.163c-1.555-2.545-3.931-4.616-6.933-5.762
				c-9.534-3.648-23.609-8.839-26.916-9.744c-3.239-0.991-6.239-0.661-8.872,1.338l-34.522,26.214
				c-0.728,0.553-1.371,1.21-1.91,1.949L1.796,149.991c-3.047,4.185-2.124,10.049,2.062,13.096c4.191,3.05,10.052,2.12,13.096-2.062
				l22.661-31.131l5.703-4.331l-10.899,35.922c-0.74,2.441-0.896,5.021-0.455,7.533l4.964,28.256l-23.312,35.965
				c-3.28,5.06-1.836,11.822,3.223,15.101c5.06,3.281,11.822,1.837,15.101-3.223l25.646-39.566c1.5-2.315,2.069-5.112,1.592-7.829
				l-4.12-23.451l3.964,1.513l22.511,17.899l12.371,48.208c1.502,5.85,7.458,9.36,13.291,7.862c5.841-1.498,9.361-7.449,7.862-13.29
				l-13.282-51.759c-0.591-2.304-1.919-4.352-3.781-5.833L85.856,167.63l13.549-35.485l-16.984-14.227l35.16,17.714
				c2.694,1.357,6.05,1.372,8.856-0.226l32.545-18.531C164.094,113.968,165.317,107.069,161.415,102.575z"/>
		</g>
	</g>
</g>
<g>
</g>
<g>
</g>
<g>
</g>
<g>
</g>
<g>
</g>
<g>
</g>
<g>
</g>
<g>
</g>
<g>
</g>
<g>
</g>
<g>
</g>
<g>
</g>
<g>
</g>
<g>
</g>
<g>
</g>
</svg>
