<?xml version="1.0" encoding="iso-8859-1"?>
<!-- Generator: Adobe Illustrator 19.0.0, SVG Export Plug-In . SVG Version: 6.00 Build 0)  -->
<svg version="1.1" id="Layer_1" xmlns="http://www.w3.org/2000/svg" xmlns:xlink="http://www.w3.org/1999/xlink" x="0px" y="0px"
	 viewBox="0 0 299.452 299.452" style="enable-background:new 0 0 299.452 299.452;" xml:space="preserve">
<g id="XMLID_1512_">
	<g>
		<g>
			<path d="M196.131,238.923c3.882-0.296,42.12-3.219,48.794-3.728c4.698-0.359,8.512-3.513,9.942-7.706l5.827-80.583
				c0.515-7.818-5.403-14.574-13.222-15.094l-25.26-1.676c-6.85-0.454-12.886,4.031-14.628,10.406l11.491,9.601l4.924-5.206
				l-7.411,15.532l-17.051-14.245c-4.036-3.371-10.038-2.833-13.408,1.202c-3.371,4.034-2.832,10.037,1.202,13.407l26.463,22.108
				c4.758,3.975,12.012,2.414,14.693-3.206l12.692-26.601l-4.102,30.7c-1.615,12.083-15.93,17.609-25.24,9.877
				c-5.421-4.532-0.681-0.571-26.223-21.91c-5.724,11.361-7.858,25.124-4.135,36.973c4.241,0.467,40.368,4.447,44.801,4.935
				l-48.107,3.676c-3.71,0.283-7.049,2.356-8.95,5.555c-1.9,3.199-2.123,7.123-0.597,10.517l26.638,59.254
				c2.59,5.76,9.354,8.318,15.101,5.734c5.754-2.586,8.321-9.348,5.734-15.101L196.131,238.923z"/>
			<circle cx="234.371" cy="99.434" r="21.009"/>
			<circle cx="74.957" cy="39.021" r="23.114"/>
			<path d="M142.824,0c-13.668,0-24.787,11.119-24.787,24.787c0,9.657,5.555,18.036,13.634,22.126v25.838l-34.187-0.534
				c-0.059-0.001-0.116-0.002-0.174-0.002c-20.895,0-23.533,0-52.196,0c-14.48,0-26.32,11.781-26.393,26.261l-0.412,81.935
				c-0.031,6.159,4.937,11.177,11.097,11.209c0.019,0,0.038,0,0.058,0c6.133,0,11.12-4.956,11.151-11.097l0.412-81.936v-0.001
				c0.092-1.255,1.161-2.21,2.417-2.163c1.257,0.047,2.249,1.081,2.248,2.338c-0.019,34.035-0.242,107.666-0.242,187.308
				c0,7.391,5.992,13.383,13.383,13.383c7.391,0,13.383-5.992,13.383-13.383V179.095h5.779v106.974
				c0,7.391,5.992,13.383,13.383,13.383c7.391,0,13.383-5.992,13.383-13.383c0-4.248,0.005-191.43,0.005-191.43l37.882,0.591
				c0.058,0.001,0.116,0.001,0.174,0.001c6.158,0,11.153-4.998,11.153-11.153V46.912c8.079-4.089,13.634-12.468,13.634-22.125
				C167.61,11.119,156.491,0,142.824,0z M151.661,32.235c-2.039-2.651-5.233-4.367-8.836-4.367c-3.603,0-6.798,1.716-8.837,4.367
				c-1.701-2.014-2.731-4.612-2.731-7.448c0-6.378,5.19-11.567,11.567-11.567c6.378,0,11.567,5.189,11.567,11.567
				C154.391,27.623,153.361,30.221,151.661,32.235z"/>
			<path d="M272.821,132.448c-4.597,0-8.323,3.726-8.323,8.323v100.424h-40.503c-4.597,0-8.323,3.726-8.323,8.323
				s3.726,8.323,8.323,8.323h40.503v33.29c0,4.596,3.726,8.323,8.323,8.323c4.597,0,8.323-3.726,8.323-8.323V140.77
				C281.143,136.174,277.417,132.448,272.821,132.448z"/>
		</g>
	</g>
</g>
<g>
</g>
<g>
</g>
<g>
</g>
<g>
</g>
<g>
</g>
<g>
</g>
<g>
</g>
<g>
</g>
<g>
</g>
<g>
</g>
<g>
</g>
<g>
</g>
<g>
</g>
<g>
</g>
<g>
</g>
</svg>
