<?xml version="1.0" encoding="iso-8859-1"?>
<!-- Generator: Adobe Illustrator 19.0.0, SVG Export Plug-In . SVG Version: 6.00 Build 0)  -->
<svg version="1.1" id="Layer_1" xmlns="http://www.w3.org/2000/svg" xmlns:xlink="http://www.w3.org/1999/xlink" x="0px" y="0px"
	 viewBox="0 0 297.897 297.897" style="enable-background:new 0 0 297.897 297.897;" xml:space="preserve">
<g id="XMLID_1164_">
	<g>
		<g>
			<circle cx="71.995" cy="38.819" r="22.994"/>
			<path d="M139.509,0c-13.597,0-24.658,11.062-24.658,24.658c0,9.608,5.526,17.943,13.564,22.011v25.704
				c-45.503-0.71-20.027-0.532-86.107-0.532c-14.405,0-26.183,11.719-26.256,26.124l-0.409,81.509
				c-0.031,6.128,4.911,11.12,11.039,11.15c0.02,0,0.038,0.001,0.057,0.001c6.101-0.001,11.062-4.931,11.094-11.039l0.409-81.509
				c0.001-1.282,1.041-2.32,2.323-2.319s2.32,1.041,2.319,2.322c-0.018,33.736-0.241,107.206-0.241,186.503
				c0,7.353,5.961,13.314,13.314,13.314s13.314-5.961,13.314-13.314V178.165h5.749v106.418c0,7.353,5.961,13.314,13.314,13.314
				c7.353,0,13.314-5.961,13.314-13.314l0.005-190.435l37.684,0.588c0.058,0.001,0.116,0.002,0.174,0.002
				c6.125,0,11.095-4.972,11.095-11.095V46.669c8.037-4.068,13.564-12.404,13.564-22.011C164.168,11.062,153.106,0,139.509,0z
				 M148.3,32.068c-2.029-2.637-5.206-4.344-8.791-4.344s-6.762,1.707-8.791,4.344c-1.692-2.004-2.717-4.588-2.717-7.41
				c0-6.345,5.162-11.508,11.508-11.508c6.345,0,11.508,5.162,11.508,11.508C151.017,27.48,149.992,30.064,148.3,32.068z"/>
			<circle cx="235.309" cy="100.575" r="21.087"/>
			<path d="M196.926,237.143c32.688-2.498,28.694-2.193,48.976-3.743c4.716-0.36,8.79-3.252,9.283-8.841
				c1.782-20.195,6.545-79.776,6.545-79.776c0.517-7.847-5.424-14.629-13.271-15.15l-25.354-1.682
				c-7.85-0.521-14.635,5.42-15.157,13.27l-1.056,15.92l16.568-14.587l-17.24,25.737l-33.046-0.122c-0.013,0-0.024,0-0.036,0
				c-5.26,0-9.534,4.255-9.553,9.519c-0.02,5.277,4.243,9.569,9.519,9.589c0.058,0,38.146,0.14,38.204,0.14
				c3.186,0,6.163-1.589,7.938-4.237l20.09-29.992l-12.153,35.309c-1.798,5.223-6.691,8.503-11.924,8.492
				c-5.069-0.023-2.66-0.013-11.008-0.044l-0.814,12.272l23.752,2.616l-48.285,3.69c-3.724,0.285-7.076,2.365-8.983,5.576
				s-2.131,7.149-0.6,10.555l26.737,59.474c2.599,5.783,9.391,8.349,15.157,5.756c5.775-2.596,8.352-9.382,5.756-15.157
				L196.926,237.143z"/>
			<path d="M282.255,247.764V138.626c0-4.613-3.74-8.353-8.353-8.353c-4.613,0-8.353,3.74-8.353,8.353v100.797h-40.654
				c-4.613,0-8.353,3.74-8.353,8.353c0,4.613,3.74,8.354,8.353,8.354h40.654v33.413c0,4.613,3.74,8.353,8.353,8.353
				c4.613,0,8.353-3.74,8.353-8.353v-41.755c0-0.005,0.001-0.008,0.001-0.008C282.256,247.772,282.255,247.768,282.255,247.764z"/>
		</g>
	</g>
</g>
<g>
</g>
<g>
</g>
<g>
</g>
<g>
</g>
<g>
</g>
<g>
</g>
<g>
</g>
<g>
</g>
<g>
</g>
<g>
</g>
<g>
</g>
<g>
</g>
<g>
</g>
<g>
</g>
<g>
</g>
</svg>
