<?xml version="1.0" encoding="iso-8859-1"?>
<!-- Generator: Adobe Illustrator 19.0.0, SVG Export Plug-In . SVG Version: 6.00 Build 0)  -->
<svg version="1.1" id="Layer_1" xmlns="http://www.w3.org/2000/svg" xmlns:xlink="http://www.w3.org/1999/xlink" x="0px" y="0px"
	 viewBox="0 0 299.252 299.252" style="enable-background:new 0 0 299.252 299.252;" xml:space="preserve">
<g id="XMLID_1367_">
	<g>
		<g>
			<path d="M295.712,132.486l-0.216-43.061c-0.076-15.118-12.437-27.417-27.555-27.417c-5.027,0-44.434,0-49.632,0
				c-3.095,2.974-10.544,5.909-17.984,29.931l5.334-2.285c0,0,0.006,187.831,0.006,195.626c0,7.717,6.256,13.972,13.972,13.972
				s13.972-6.256,13.972-13.972V173.595v-0.001h6.033v0.001V285.28c0,7.717,6.256,13.972,13.972,13.972s13.972-6.256,13.972-13.972
				c0-52.407-0.241-141.702-0.253-195.922c0-1.346,1.091-2.438,2.437-2.438s2.438,1.091,2.438,2.437
				c0,0.061-0.001,0.123-0.002,0.185l0.216,43.003v41.05c0,6.43,5.213,11.643,11.644,11.643c6.431,0,11.644-5.213,11.644-11.643
				L295.712,132.486z"/>
			<path d="M209.904,57.778c3.72-1.633,5.119-5.976,3.372-9.411l-5.093-10.015L194.085,10.63c-1.723-3.388-5.867-4.739-9.255-3.015
				c-3.388,1.723-4.738,5.866-3.015,9.255l4.549,8.945c-1.462,1.108-2.686,2.573-3.515,4.351l-27.474,58.918
				c-2.04,4.375-1.169,9.556,2.19,13.023c2.748,2.836,6.781,4.12,10.739,3.294c5.489-23.154,11.933-46.167,27.71-60.609l4.071,8.005
				c-13.974,14.115-19.32,37.006-24.935,61.092c-4.529,19.426-9.211,39.513-18.705,54.582c-3.856,6.12-8.256,9.138-13.448,9.226
				c-0.083,0.001-0.164,0.002-0.248,0.002c-6.536,0-13.849-4.332-20.598-10.037c0.291-1.154,0.462-2.356,0.462-3.6V14.706
				C122.613,6.584,116.029,0,107.907,0h-89.66C10.124,0,3.541,6.584,3.541,14.706v149.357c0,8.122,6.584,14.706,14.706,14.706
				h27.279v99.835H34.169c-5.702,0-10.324,4.622-10.324,10.324s4.622,10.324,10.324,10.324h57.816
				c5.702,0,10.324-4.622,10.324-10.324s-4.622-10.324-10.324-10.324H80.627v-99.836h27.279c3.097,0,5.967-0.963,8.337-2.597
				c9.511,7.862,18.4,11.852,26.51,11.852c0.135,0,0.27-0.001,0.406-0.003c8.831-0.144,16.24-4.87,22.02-14.045
				c10.419-16.538,15.302-37.484,20.025-57.741C190.82,92.147,196.143,69.346,209.904,57.778z M97.491,120.397
				c0,2.512-2.036,4.549-4.549,4.549h-59.73v0.001c-2.512,0-4.549-2.036-4.549-4.549V43.292c0-2.512,2.036-4.549,4.549-4.549h59.73
				c2.512,0,4.549,2.036,4.549,4.549V120.397z"/>
			<path d="M236.783,51.484c13.328,0,24.133-10.804,24.133-24.133S250.112,3.219,236.783,3.219
				c-13.328,0-24.133,10.804-24.133,24.133C212.651,40.698,223.491,51.484,236.783,51.484z"/>
			<path d="M83.037,48.071h-39.92c-1.901,0-3.441,1.54-3.441,3.441v9.807c0,1.901,1.54,3.441,3.441,3.441h39.92
				c1.901,0,3.441-1.541,3.441-3.441v-9.807C86.478,49.611,84.937,48.071,83.037,48.071z"/>
			<circle cx="63.077" cy="80.305" r="5.162"/>
			<circle cx="46.902" cy="80.305" r="5.162"/>
			<circle cx="79.251" cy="80.305" r="5.162"/>
			<circle cx="63.077" cy="96.823" r="5.162"/>
			<circle cx="46.902" cy="96.823" r="5.162"/>
			<circle cx="79.251" cy="96.823" r="5.162"/>
			<circle cx="63.077" cy="112.654" r="5.162"/>
			<circle cx="46.902" cy="112.654" r="5.162"/>
			<circle cx="79.251" cy="112.654" r="5.162"/>
		</g>
	</g>
</g>
<g>
</g>
<g>
</g>
<g>
</g>
<g>
</g>
<g>
</g>
<g>
</g>
<g>
</g>
<g>
</g>
<g>
</g>
<g>
</g>
<g>
</g>
<g>
</g>
<g>
</g>
<g>
</g>
<g>
</g>
</svg>
