<?xml version="1.0" encoding="iso-8859-1"?>
<!-- Generator: Adobe Illustrator 19.0.0, SVG Export Plug-In . SVG Version: 6.00 Build 0)  -->
<svg version="1.1" id="Layer_1" xmlns="http://www.w3.org/2000/svg" xmlns:xlink="http://www.w3.org/1999/xlink" x="0px" y="0px"
	 viewBox="0 0 298.318 298.318" style="enable-background:new 0 0 298.318 298.318;" xml:space="preserve">
<g id="XMLID_1470_">
	<g>
		<g>
			<circle cx="52.393" cy="46.768" r="21.378"/>
			<path d="M115.163,10.677c-12.641,0-22.926,10.284-22.926,22.925c0,8.932,5.138,16.682,12.611,20.464v23.898
				c-41.97-0.655-18.217-0.495-80.057-0.495c-13.393,0-24.343,10.896-24.41,24.288L0,177.538
				c-0.029,5.697,4.566,10.338,10.263,10.367c0.018,0,0.036,0,0.053,0c5.673,0,10.285-4.584,10.314-10.263l0.381-75.782
				c-0.022-0.443-0.003-0.837,0.048-1.186c0.164-1.113,1.16-1.91,2.281-1.827c1.122,0.083,1.988,1.019,1.987,2.144
				c-0.013,31.037-0.224,99.756-0.224,174.271c0,6.836,5.542,12.378,12.378,12.378s12.378-5.542,12.378-12.378v-98.939h5.344v98.94
				c0,6.836,5.542,12.378,12.378,12.378s12.378-5.542,12.378-12.378l0.005-177.053l35.036,0.547
				c0.054,0.001,0.107,0.001,0.161,0.001c5.695,0,10.315-4.622,10.315-10.315V54.066c7.472-3.782,12.611-11.532,12.611-20.464
				C138.089,20.961,127.804,10.677,115.163,10.677z M123.336,40.492c-1.886-2.452-4.841-4.039-8.173-4.039
				c-3.333,0-6.287,1.587-8.173,4.039c-1.573-1.863-2.526-4.265-2.526-6.889c0-5.899,4.8-10.699,10.699-10.699
				s10.699,4.8,10.699,10.699C125.862,36.226,124.909,38.629,123.336,40.492z"/>
			<circle cx="214.002" cy="50.647" r="21.034"/>
			<path d="M275.761,15.137c-12.438,0-22.556,10.119-22.556,22.556c0,8.789,5.055,16.414,12.408,20.135V81.34
				c-41.576-0.649-18.203-0.487-78.768-0.487c-1.719,0-1.372,0.021-16.199,3.848l10.804-15.953c1.501,3.297,5.378,4.781,8.702,3.308
				c3.34-1.481,4.848-5.39,3.367-8.731l-13.621-30.722c-1.481-3.34-5.389-4.847-8.731-3.367c-3.34,1.481-4.848,5.39-3.367,8.731
				l4.566,10.298c-1.499,0.753-2.834,1.883-3.841,3.371l-29.739,43.91c-2.367,3.494-2.324,8.089,0.108,11.539
				c2.428,3.445,6.739,5.036,10.831,3.979l37.647-9.717c0,27.75-0.221,99.323-0.221,174.114c0,6.726,5.453,12.179,12.179,12.179
				s12.179-5.453,12.179-12.179v-97.347h5.258v97.347c0,6.726,5.453,12.179,12.179,12.179c6.726,0,12.179-5.453,12.179-12.179
				c0-3.868,0.005-174.203,0.005-174.203l34.472,0.538c0.053,0.001,0.106,0.001,0.159,0.001c5.604,0,10.148-4.547,10.148-10.149
				V57.828c7.353-3.721,12.408-11.346,12.408-20.135C298.317,25.256,288.198,15.137,275.761,15.137z M283.802,44.472
				c-1.855-2.412-4.763-3.973-8.041-3.973c-3.279,0-6.185,1.561-8.041,3.973c-1.548-1.833-2.486-4.197-2.486-6.778
				c0-5.805,4.722-10.526,10.526-10.526c5.805,0,10.526,4.722,10.526,10.526C286.287,40.275,285.349,42.639,283.802,44.472z"/>
		</g>
	</g>
</g>
<g>
</g>
<g>
</g>
<g>
</g>
<g>
</g>
<g>
</g>
<g>
</g>
<g>
</g>
<g>
</g>
<g>
</g>
<g>
</g>
<g>
</g>
<g>
</g>
<g>
</g>
<g>
</g>
<g>
</g>
</svg>
