<?xml version="1.0" encoding="iso-8859-1"?>
<!-- Generator: Adobe Illustrator 19.0.0, SVG Export Plug-In . SVG Version: 6.00 Build 0)  -->
<svg version="1.1" id="Layer_1" xmlns="http://www.w3.org/2000/svg" xmlns:xlink="http://www.w3.org/1999/xlink" x="0px" y="0px"
	 viewBox="0 0 299.303 299.303" style="enable-background:new 0 0 299.303 299.303;" xml:space="preserve">
<g id="XMLID_1278_">
	<g>
		<g>
			<path d="M160.952,84.003c1.107,0.268,2.248,0.456,3.417,0.556c12.457,1.071,23.423-8.159,24.495-20.617
				c0.576-6.701-1.832-12.968-6.116-17.498l-29.676,29.676L160.952,84.003z"/>
			<path d="M238.492,125.998c-2.523-2.523-6.612-2.521-9.133,0c-2.522,2.523-2.522,6.611,0,9.133
				c2.202,2.202,3.414,5.129,3.414,8.242c0,3.113-1.212,6.04-3.414,8.243c-1.35,1.35-2.954,2.289-4.657,2.837
				c-1.373,5.426-4.962,10.008-9.818,12.678c2.041,0.532,4.137,0.804,6.233,0.804c6.293,0,12.585-2.396,17.375-7.186
				c4.642-4.642,7.197-10.812,7.197-17.375S243.134,130.639,238.492,125.998z"/>
			<path d="M215.467,149.328c-0.09-5.225-4.121-9.556-9.329-10.026l-35.335-3.195l-18.577-34.302l23.206,24.835l13.708,1.24
				l-43.913-43.913l-8.274-8.274l61.871-61.872C188.901,4.491,175.575,0,160.903,0c-22.428,0-48.004,10.494-69.414,30.229
				c-8.962-8.962-5.431-5.431-13.629-13.629c-2.522-2.523-6.611-2.523-9.133,0c-2.522,2.522-2.522,6.611,0,9.133
				c6.117,6.117,2.865,2.865,13.701,13.701c-31.441,35.22-38.241,81.052-14.995,105.777l60.386-60.386l7.594,7.594
				c-18.27,19.8-15.876,17.236-17.424,18.784l-0.009,0.106l-0.031,0.034l0.029-0.014c-1.008,11.721-5.487,72.032-5.487,72.032
				c0.109,0.922,7.399,47.282,7.399,47.282l-19.615,52.005c-2.398,6.36,0.813,13.461,7.173,15.859
				c6.361,2.399,13.461-0.813,15.859-7.172l20.762-55.047c0.752-1.994,0.974-4.148,0.643-6.252l-6.987-44.505l6.492,0.558
				c2.22,4.914,17.723,39.218,19.638,43.456l13.681,60.176c1.503,6.611,8.08,10.781,14.731,9.274
				c6.628-1.507,10.78-8.102,9.274-14.731l-13.957-61.385c-0.183-0.804-0.447-1.588-0.786-2.34L169.878,183.1l1.416-16.466
				l-8.704-0.786c-9.08-0.821-15.378-7.659-16.71-12.552l-11.012-40.463l20.513,37.878c1.632,3.011,4.664,5.02,8.096,5.331
				c28.572,2.583,19.951,1.804,40.812,3.689c6.007,0.545,11.248-4.211,11.181-10.34C215.471,149.37,215.467,149.35,215.467,149.328z
				"/>
		</g>
	</g>
</g>
<g>
</g>
<g>
</g>
<g>
</g>
<g>
</g>
<g>
</g>
<g>
</g>
<g>
</g>
<g>
</g>
<g>
</g>
<g>
</g>
<g>
</g>
<g>
</g>
<g>
</g>
<g>
</g>
<g>
</g>
</svg>
