<?xml version="1.0" encoding="iso-8859-1"?>
<!-- Generator: Adobe Illustrator 19.0.0, SVG Export Plug-In . SVG Version: 6.00 Build 0)  -->
<svg version="1.1" id="Layer_1" xmlns="http://www.w3.org/2000/svg" xmlns:xlink="http://www.w3.org/1999/xlink" x="0px" y="0px"
	 viewBox="0 0 298.815 298.815" style="enable-background:new 0 0 298.815 298.815;" xml:space="preserve">
<g id="XMLID_1295_">
	<g>
		<g>
			<circle cx="130.374" cy="60.401" r="25.308"/>
			<path d="M131.9,182.13l-15.218-3.833l6.22-16.292c-2.249-1.255-4.18-3.068-5.552-5.309l-23.354-38.253l31.286,29.973
				c2.782,2.665,6.707,3.747,10.438,2.909l44.703-10.01c6.18-1.384,10.067-7.515,8.683-13.694
				c-1.384-6.18-7.517-10.069-13.694-8.683l-38.704,8.667l-26.848-25.721l25.715,14.224l3.634-0.814
				c-0.312-6.581-4.432-12.671-10.98-15.171L99.747,89.25c-8.821-3.368-18.702,1.052-22.07,9.874l-28.503,74.648
				c-1.826,4.781-2.371,9.956-1.583,15.013l7.393,47.416H13.759C6.161,236.2,0,242.36,0,249.96c0,7.599,6.161,13.76,13.759,13.76
				h57.259c4.014,0,7.827-1.753,10.442-4.799c2.614-3.047,3.767-7.082,3.158-11.049l-7.869-51.254l35.275,8.885l-9.776,41.287
				c-1.75,7.394,2.824,14.808,10.219,16.559c7.389,1.751,14.808-2.822,16.56-10.219l12.901-54.487
				C143.662,191.322,139.195,183.967,131.9,182.13z"/>
			<circle cx="237.949" cy="89.449" r="21.623"/>
			<path d="M262.772,210.12c-2.859-30.776-2.483-24.885-2.483-32.983c3.721,2.764,7.999,4.343,12.552,4.343
				c14.345,0,25.974-15.618,25.974-34.882c0-19.265-11.629-34.882-25.974-34.882c-5.849,0-11.244,2.597-15.586,6.978h-29.149
				c-6.674,0-12.085,5.411-12.085,12.085v9.471l20.169-11.157l-23.368,22.387l-26.573,6.263c-4.961,1.17-8.036,6.14-6.867,11.102
				c1.167,4.953,6.128,8.037,11.102,6.867l29.023-6.84c1.604-0.378,3.078-1.179,4.268-2.319l25.186-24.13l-18.801,30.794
				c-2.146,3.515-5.208,3.854-8.536,4.638l-5.604,1.321l0.629,11.253l-5.722,24.307c-0.285,1.212-0.343,2.467-0.168,3.7
				l5.177,36.658c0.775,5.486,5.851,9.303,11.333,8.527c5.485-0.774,9.303-5.848,8.528-11.333l-4.914-34.792l6.372-27.069h3.541
				l2.316,24.933c0.204,2.196,1.126,4.264,2.624,5.883l25.617,27.693c3.762,4.066,10.106,4.313,14.173,0.552
				c4.066-3.761,4.313-10.107,0.552-14.173L262.772,210.12z"/>
		</g>
	</g>
</g>
<g>
</g>
<g>
</g>
<g>
</g>
<g>
</g>
<g>
</g>
<g>
</g>
<g>
</g>
<g>
</g>
<g>
</g>
<g>
</g>
<g>
</g>
<g>
</g>
<g>
</g>
<g>
</g>
<g>
</g>
</svg>
