<?xml version="1.0" encoding="iso-8859-1"?>
<!-- Generator: Adobe Illustrator 19.0.0, SVG Export Plug-In . SVG Version: 6.00 Build 0)  -->
<svg version="1.1" id="Layer_1" xmlns="http://www.w3.org/2000/svg" xmlns:xlink="http://www.w3.org/1999/xlink" x="0px" y="0px"
	 viewBox="0 0 298.509 298.509" style="enable-background:new 0 0 298.509 298.509;" xml:space="preserve">
<g id="XMLID_1263_">
	<g>
		<g>
			<path d="M217.761,67.911h-54.737c-3.994,0-7.231,3.238-7.231,7.231v22.79c2.729,0.86,5.056,2.62,6.638,4.931l14.799-0.043
				c11.792-0.034,21.378,9.497,21.412,21.288c0,0.062-0.004,0.124-0.004,0.186h19.122c3.994,0,7.231-3.238,7.231-7.231V75.143
				C224.992,71.149,221.754,67.911,217.761,67.911z"/>
			<path d="M150.358,56.383h54.737c3.994,0,7.231-3.238,7.231-7.231V7.231c0-3.994-3.238-7.231-7.231-7.231h-54.737
				c-3.994,0-7.231,3.238-7.231,7.231v41.921C143.127,53.146,146.365,56.383,150.358,56.383z"/>
			<path d="M131.443,192.98c-9.968,0-17.519-8.908-16.004-18.678c5.242-33.797,4.863-31.506,5.103-32.505
				c-1.631-1.544-2.898-3.468-3.646-5.634l-13.549-39.465c24.441,36.547,22.722,34.185,24,35.383
				c4.575-3.015,8.527-2.675,11.986-2.675v-17.304l-18.238-27.273l20.45,18.032c0.93-1.357,2.118-2.521,3.492-3.426l-6.553-21.066
				c-2.106-6.771-8.705-11.123-15.757-10.372c-9.081,0.968-15.467,1.648-25.545,2.722c-7.066,0.753-12.583,6.383-13.216,13.46
				L73.542,200.668c-0.356,3.977,3.029,7.268,6.959,6.848c2.982-0.318,6.7-0.714,10.923-1.164v78.516
				c0,7.533,6.107,13.64,13.64,13.64s13.64-6.107,13.64-13.64v-81.426c1.956-0.209,3.923-0.418,5.89-0.628v82.051
				c0,7.534,6.107,13.64,13.64,13.64s13.64-6.107,13.64-13.64v-84.958c6.332-0.675,11.866-1.264,15.989-1.704
				c2.743-0.293,5.075-2.357,5.554-5.249C172.759,192.992,175.674,192.98,131.443,192.98z"/>
			<circle cx="106.528" cy="37.229" r="23.557"/>
			<path d="M177.293,113.495c-0.01,0-0.021,0-0.031,0l-12.622,0.036v15.874h3.052c4.692,0,8.928,1.973,11.896,5.188
				c4.804-1.053,8.395-5.335,8.38-10.453C187.95,118.254,183.174,113.495,177.293,113.495z"/>
			<path d="M172.441,144.865c-0.363-2.343-2.38-4.07-4.75-4.07h-10.012c0-3.307,0-27.676,0-30.792c0-3.145-2.549-5.695-5.695-5.695
				s-5.695,2.549-5.695,5.695c0,3.111,0,27.488,0,30.792h-10.011c-2.371,0-4.387,1.728-4.75,4.07l-4.836,31.183
				c-0.452,2.911,1.802,5.544,4.75,5.544h41.085c2.946,0,5.202-2.631,4.75-5.544L172.441,144.865z"/>
		</g>
	</g>
</g>
<g>
</g>
<g>
</g>
<g>
</g>
<g>
</g>
<g>
</g>
<g>
</g>
<g>
</g>
<g>
</g>
<g>
</g>
<g>
</g>
<g>
</g>
<g>
</g>
<g>
</g>
<g>
</g>
<g>
</g>
</svg>
