<?xml version="1.0" encoding="iso-8859-1"?>
<!-- Generator: Adobe Illustrator 19.0.0, SVG Export Plug-In . SVG Version: 6.00 Build 0)  -->
<svg version="1.1" id="Layer_1" xmlns="http://www.w3.org/2000/svg" xmlns:xlink="http://www.w3.org/1999/xlink" x="0px" y="0px"
	 viewBox="0 0 299.686 299.686" style="enable-background:new 0 0 299.686 299.686;" xml:space="preserve">
<g id="XMLID_1520_">
	<g>
		<g>
			<path d="M200.627,75.629l11.349-5.151l11.314-19.104c-1.221-10.897-10.46-19.369-21.683-19.369
				c-12.054,0-21.824,9.771-21.824,21.824C179.782,65.554,189.029,75.116,200.627,75.629z"/>
			<path d="M256.241,0.825c-11.884,0-21.553,9.669-21.553,21.553c0,6.213,2.652,11.872,6.959,15.842l-22.32,37.688l-38.597,8.752
				l-10.502-0.595c-8.791-0.723-16.504,5.818-17.227,14.61l-5.044,81.808l6.69,43.619l-16.309,59.487
				c-2.215,8.078,3.862,16.096,12.282,16.096c5.591,0,10.717-3.713,12.267-9.365l17.026-62.102c0.473-1.724,0.577-3.528,0.306-5.295
				l-6.18-40.295l4.952,0.407l15.183,41.394l-12.683,59.889c-1.456,6.876,2.938,13.632,9.815,15.088
				c6.878,1.455,13.632-2.939,15.088-9.815l13.441-63.471c0.495-2.341,0.321-4.774-0.502-7.02l-12.743-34.744l6.54-79.561
				l-27.708,0.551l43.051-9.762c2.842-0.645,5.295-2.431,6.78-4.939l28.458-48.052c8.252-3.058,14.085-11.008,14.085-20.218
				C277.794,10.494,268.125,0.825,256.241,0.825z M263.232,29.594c-0.758-0.913-1.672-1.722-2.751-2.361
				c-4.023-2.382-8.974-1.795-12.328,1.098c-1.232-1.669-1.97-3.724-1.97-5.953c0-5.494,4.471-10.058,10.058-10.058
				c5.66,0,10.059,4.659,10.059,10.058C266.299,25.208,265.12,27.764,263.232,29.594z"/>
			<path d="M84.527,81.494c10.187-0.516,18.824-8.301,20.07-18.771c1.391-11.693-6.96-22.3-18.654-23.692
				c-6.825-0.812-13.276,1.698-17.744,6.252l9.166,30.547L84.527,81.494z"/>
			<path d="M110.377,93.159l-11.641-0.424l4.923,3.894l-34.54-17.378l-12.62-42.058c3.405-2.862,5.812-6.728,6.887-11.062
				C66.656,12.948,56.688,0,42.937,0c-9.69,0-18.089,6.575-20.425,15.99c-2.631,10.605,3.335,21.393,13.471,24.939L50.552,89.48
				c0.818,2.727,2.724,4.998,5.268,6.278l38.524,19.384l-27.953-7.528l-2.865,78.644l-16.373,32.235
				c-1.058,2.084-1.509,4.424-1.297,6.752l5.714,63.126c0.585,6.458,6.009,11.315,12.369,11.314c0.376,0,0.754-0.017,1.136-0.051
				c6.84-0.619,11.882-6.665,11.263-13.504l-5.392-59.563l19.507-38.405l6.211,0.226l-3.104,98.472
				c-0.216,6.864,5.173,12.603,12.037,12.82c0.133,0.004,0.266,0.006,0.399,0.006c6.685,0,12.208-5.312,12.421-12.043l3.1-98.351
				l3.886-79.971C125.717,100.708,118.989,93.473,110.377,93.159z M52.487,23.427c-0.206,0.83-0.513,1.613-0.906,2.336
				c-2.605-2.421-6.381-3.444-10.035-2.349c-2.48,0.744-4.466,2.338-5.755,4.364c-2.2-2.352-3.21-5.732-2.378-9.083
				c1.064-4.287,4.916-7.464,9.525-7.464C49.368,11.23,54.009,17.289,52.487,23.427z"/>
		</g>
	</g>
</g>
<g>
</g>
<g>
</g>
<g>
</g>
<g>
</g>
<g>
</g>
<g>
</g>
<g>
</g>
<g>
</g>
<g>
</g>
<g>
</g>
<g>
</g>
<g>
</g>
<g>
</g>
<g>
</g>
<g>
</g>
</svg>
