<?xml version="1.0" encoding="iso-8859-1"?>
<!-- Generator: Adobe Illustrator 19.0.0, SVG Export Plug-In . SVG Version: 6.00 Build 0)  -->
<svg version="1.1" id="Layer_1" xmlns="http://www.w3.org/2000/svg" xmlns:xlink="http://www.w3.org/1999/xlink" x="0px" y="0px"
	 viewBox="0 0 300.528 300.528" style="enable-background:new 0 0 300.528 300.528;" xml:space="preserve">
<g id="XMLID_1144_">
	<g>
		<g>
			<circle cx="149.007" cy="22.578" r="22.578"/>
			<path d="M223.074,261.646h-48.346c1.933-2.086,3.14-4.857,3.182-7.924l0.839-61.045c0.009-0.628-0.032-1.257-0.123-1.879
				l-6.557-45.082l0.251-16.679l-5.597-0.477c-9.416-0.803-15.469-7.892-16.73-12.431l-11.192-40.298l20.655,37.67
				c1.647,3.002,4.685,4.984,8.102,5.275l40.721,3.468c5.673,0.478,10.584-3.731,11.061-9.324c0.481-5.65-3.734-10.582-9.324-11.061
				l-35.257-3.003l-18.704-34.113l16.965,17.967l0.208-13.772c0.127-8.418-6.591-15.348-15.01-15.48
				c-11.44-0.255-23.992-0.376-28.832-0.191c-2.637,0.346-6.27,0.88-11.37,3.651L85.28,74.408c-2.519,1.346-4.361,3.684-5.079,6.449
				l-11.17,42.959c-1.422,5.467,1.858,11.052,7.327,12.474c5.47,1.422,11.053-1.861,12.473-7.327l10.041-38.622l16.456-8.792
				l-0.137,68.907l3.431,28.796l-37.136-3.53c-6.55-0.622-12.367,4.182-12.99,10.734c-0.622,6.551,4.183,12.366,10.734,12.99
				l51.843,4.929c3.593,0.341,7.139-0.963,9.653-3.537c2.517-2.578,3.732-6.156,3.307-9.734l-4.797-40.268l9.519,0.15l6.153,42.308
				l-0.826,60.102c-0.044,3.184,1.173,6.086,3.179,8.251H96.902c-4.977,0-9.012,4.035-9.012,9.012s4.035,9.012,9.012,9.012h7.316
				c-0.902,1.896-1.408,4.015-1.408,6.251c0,8.053,6.552,14.605,14.606,14.605s14.606-6.552,14.606-14.605
				c0-2.235-0.506-4.355-1.408-6.251h54.716c-0.902,1.896-1.408,4.015-1.408,6.251c0,8.053,6.552,14.605,14.606,14.605
				c8.053,0,14.605-6.552,14.605-14.605c0-2.235-0.506-4.355-1.408-6.251h11.351c4.977,0,9.012-4.035,9.012-9.012
				S228.052,261.646,223.074,261.646z M117.416,289.435c-1.938,0-3.513-1.576-3.513-3.514c0-1.937,1.576-3.513,3.513-3.513
				s3.513,1.576,3.513,3.513C120.93,287.859,119.354,289.435,117.416,289.435z M198.526,289.435c-1.938,0-3.513-1.576-3.513-3.514
				c0-1.937,1.576-3.513,3.513-3.513c1.937,0,3.513,1.576,3.513,3.513C202.04,287.859,200.464,289.435,198.526,289.435z"/>
		</g>
	</g>
</g>
<g>
</g>
<g>
</g>
<g>
</g>
<g>
</g>
<g>
</g>
<g>
</g>
<g>
</g>
<g>
</g>
<g>
</g>
<g>
</g>
<g>
</g>
<g>
</g>
<g>
</g>
<g>
</g>
<g>
</g>
</svg>
