<?xml version="1.0" encoding="iso-8859-1"?>
<!-- Generator: Adobe Illustrator 19.0.0, SVG Export Plug-In . SVG Version: 6.00 Build 0)  -->
<svg version="1.1" id="Layer_1" xmlns="http://www.w3.org/2000/svg" xmlns:xlink="http://www.w3.org/1999/xlink" x="0px" y="0px"
	 viewBox="0 0 298.862 298.862" style="enable-background:new 0 0 298.862 298.862;" xml:space="preserve">
<g id="XMLID_1529_">
	<g>
		<g>
			<path d="M189.08,240.199l47.289-3.613c4.553-0.348,8.249-3.405,9.636-7.469l5.647-78.098c0.499-7.577-5.237-14.125-12.814-14.628
				l-24.481-1.624c-7.58-0.503-14.132,5.234-14.635,12.813l-1.02,15.372l16-14.086l-16.647,24.852l-31.909-0.117
				c-0.012,0-0.023,0-0.034,0c-5.078,0-9.205,4.108-9.224,9.191c-0.018,5.095,4.096,9.24,9.191,9.259l36.854,0.135
				c0.011,0,0.023,0,0.034,0c3.076,0,5.951-1.534,7.664-4.091l19.399-28.96l-11.735,34.094c-1.736,5.044-6.461,8.21-11.513,8.199
				c-4.895-0.022-2.569-0.013-10.629-0.042l-0.786,11.85l22.934,2.526l-46.623,3.563c-3.595,0.275-6.831,2.284-8.674,5.384
				c-1.841,3.101-2.057,6.904-0.579,10.192l25.817,57.426c2.51,5.582,9.065,8.062,14.635,5.557
				c5.576-2.507,8.064-9.059,5.557-14.635L189.08,240.199z"/>
			<circle cx="226.14" cy="105.012" r="20.361"/>
			<path d="M263.405,137.008c-4.454,0-8.066,3.611-8.066,8.066v97.327h-39.253c-4.454,0-8.066,3.611-8.066,8.066
				c0,4.454,3.611,8.066,8.066,8.066h39.253v32.263c0,4.454,3.611,8.066,8.066,8.066s8.066-3.611,8.066-8.066V145.073
				C271.47,140.619,267.859,137.008,263.405,137.008z"/>
			<path d="M90.142,74.804l11.349-5.151l11.314-19.104c-1.221-10.897-10.46-19.369-21.683-19.369
				c-12.054,0-21.824,9.771-21.824,21.824C69.297,64.729,78.543,74.291,90.142,74.804z"/>
			<path d="M167.309,21.553C167.309,9.669,157.64,0,145.755,0s-21.553,9.669-21.553,21.553c0,6.213,2.652,11.872,6.959,15.842
				l-22.32,37.688l-38.597,8.752L59.741,83.24c-8.791-0.723-16.504,5.818-17.227,14.61l-5.044,81.809l6.69,43.619l-16.309,59.487
				c-2.215,8.078,3.862,16.096,12.282,16.096c5.591,0,10.717-3.713,12.267-9.365l17.026-62.102c0.473-1.724,0.577-3.528,0.306-5.295
				l-6.18-40.295l4.952,0.407l15.183,41.395l-12.683,59.889c-1.457,6.876,2.938,13.632,9.815,15.088
				c6.878,1.455,13.632-2.939,15.088-9.815l13.441-63.471c0.495-2.341,0.321-4.774-0.502-7.019l-12.743-34.744l6.54-79.561
				l-27.708,0.551l43.051-9.762c2.842-0.645,5.295-2.431,6.781-4.939l28.458-48.052C161.475,38.713,167.309,30.763,167.309,21.553z
				 M152.747,28.769c-0.758-0.913-1.672-1.722-2.751-2.361c-4.024-2.382-8.974-1.795-12.328,1.099
				c-1.232-1.669-1.97-3.724-1.97-5.953c0-5.494,4.471-10.058,10.058-10.058c5.66,0,10.058,4.659,10.058,10.058
				C155.814,24.383,154.634,26.939,152.747,28.769z"/>
		</g>
	</g>
</g>
<g>
</g>
<g>
</g>
<g>
</g>
<g>
</g>
<g>
</g>
<g>
</g>
<g>
</g>
<g>
</g>
<g>
</g>
<g>
</g>
<g>
</g>
<g>
</g>
<g>
</g>
<g>
</g>
<g>
</g>
</svg>
