<?xml version="1.0" encoding="iso-8859-1"?>
<!-- Generator: Adobe Illustrator 19.0.0, SVG Export Plug-In . SVG Version: 6.00 Build 0)  -->
<svg version="1.1" id="Layer_1" xmlns="http://www.w3.org/2000/svg" xmlns:xlink="http://www.w3.org/1999/xlink" x="0px" y="0px"
	 viewBox="0 0 298.71 298.71" style="enable-background:new 0 0 298.71 298.71;" xml:space="preserve">
<g id="XMLID_1437_">
	<g>
		<g>
			<circle cx="174.46" cy="26.928" r="24.376"/>
			<path d="M179.591,176.948L179.591,176.948c-0.775-0.001-1.524-0.108-2.244-0.29v107.938c0,7.795,6.319,14.113,14.113,14.113
				s14.113-6.319,14.113-14.113V175.815c-1.31,0.72-2.812,1.132-4.409,1.132H179.591z"/>
			<path d="M233.764,86.767c-0.076-15.27-12.562-27.694-27.833-27.694H174.31c-0.004,0-0.008,0.001-0.012,0.001
				c-0.004,0-0.008-0.001-0.012-0.001h-27.126c-8.446,0-16.333,3.769-21.64,10.34l-13.181,16.325L99.984,61.188
				c-1.245-2.475-3.25-4.313-5.585-5.388V38.744l13.21-13.21l3.873,9.12c9.171-3.895,13.449-14.489,9.554-23.66
				c-3.895-9.172-14.488-13.449-23.66-9.554l6.107,14.379H66.956c-0.892,0-1.696,0.537-2.037,1.361
				c-0.341,0.824-0.153,1.772,0.478,2.402l19.161,19.161v17.064c-0.122,0.056-0.245,0.101-0.366,0.161
				c-5.803,2.92-8.139,9.991-5.219,15.793l20.553,40.844c1.796,3.57,5.282,5.983,9.255,6.408c0.419,0.045,0.836,0.067,1.252,0.067
				c3.531,0,6.904-1.591,9.149-4.373l22.354-30.83c0.209-0.288,0.579-0.409,0.918-0.299c0.338,0.11,0.567,0.425,0.567,0.781
				l0.005,200.236c0,7.795,6.319,14.113,14.113,14.113c7.795,0,14.113-6.319,14.113-14.113V171.785h0.096
				c-0.595-1.215-0.939-2.577-0.939-4.019v-16.036c-8.234-1.691-14.845-8.466-15.917-17.271
				c-1.275-10.478,5.753-20.047,15.917-22.126v-2.533c0-4.659,3.49-8.579,8.117-9.119l21.575-2.517
				c1.789-0.208,3.594,0.114,5.215,0.937V86.898c0-1.357,1.098-2.458,2.454-2.461c1.357-0.004,2.461,1.091,2.468,2.448
				c0.135,26.806,0.106,12.784,0.106,52.623l13.274-1.616c5.925-0.721,10.37-5.765,10.34-11.734
				C233.935,120.862,233.79,91.991,233.764,86.767z"/>
			<path d="M162.784,133.45c0.552,4.533,3.616,8.143,7.626,9.617v-22.071C165.397,122.832,162.111,127.921,162.784,133.45z"/>
			<path d="M201.166,169.907c1.183,0,2.142-0.959,2.142-2.142v-60.484c0-1.184-0.961-2.142-2.142-2.142
				c-0.083,0-0.165,0.005-0.248,0.014l-21.574,2.517c-1.08,0.126-1.893,1.041-1.893,2.127v57.966c0,1.183,0.959,2.142,2.142,2.142
				H201.166z"/>
		</g>
	</g>
</g>
<g>
</g>
<g>
</g>
<g>
</g>
<g>
</g>
<g>
</g>
<g>
</g>
<g>
</g>
<g>
</g>
<g>
</g>
<g>
</g>
<g>
</g>
<g>
</g>
<g>
</g>
<g>
</g>
<g>
</g>
</svg>
