<?xml version="1.0" encoding="iso-8859-1"?>
<!-- Generator: Adobe Illustrator 19.0.0, SVG Export Plug-In . SVG Version: 6.00 Build 0)  -->
<svg xmlns="http://www.w3.org/2000/svg" xmlns:xlink="http://www.w3.org/1999/xlink" version="1.1" id="Layer_1" x="0px" y="0px" viewBox="0 0 512 512" style="enable-background:new 0 0 512 512;" xml:space="preserve">
<g>
	<g>
		<path d="M491.76,215.022L291.413,14.674C281.956,5.212,269.38,0,256,0s-25.956,5.212-35.413,14.674L20.24,215.022    c-19.571,19.56-19.591,51.246,0,70.826c14.073,14.081,34.478,17.848,52.108,11.626v197.83c0,9.223,7.479,16.696,16.696,16.696    h333.913c9.217,0,16.584-7.473,16.584-16.696V297.485c19.485,6.9,39.193,1.398,52.22-11.637    C511.331,266.289,511.351,234.602,491.76,215.022z M272.696,411.031v6.36c0,9.223-7.479,16.696-16.696,16.696    s-16.807-7.473-16.807-16.696v-6.36c-20.954-11.344-66.671-42.033-66.671-93.814c0-63.495,71.141-112,74.174-114.032    c5.631-3.782,12.978-3.782,18.609,0c3.032,2.032,74.173,50.538,74.173,114.032C339.478,368.998,293.65,399.687,272.696,411.031z     M468.152,262.239c-6.304,6.304-17.305,6.304-23.609,0C415.309,233.005,333.591,151.287,267.804,85.5    c-6.521-6.522-17.087-6.522-23.609,0c-84.116,84.115-93.538,93.538-176.739,176.739c-6.304,6.304-17.305,6.304-23.609,0    c-6.509-6.521-6.537-17.061,0-23.609L244.195,38.282c6.304-6.304,17.305-6.304,23.609,0L468.152,238.63    C474.662,245.151,474.689,255.692,468.152,262.239z"/>
	</g>
</g>
<g>
	<g>
		<path d="M256.076,237.896c-16.685,13.506-50.163,44.887-50.163,79.321c0,24.447,17.65,42.845,33.28,54.332v-54.332    c0-9.223,7.59-16.696,16.807-16.696s16.696,7.473,16.696,16.696v54.331c15.625-11.483,33.391-29.883,33.391-54.331    C306.087,285.07,275.544,253.598,256.076,237.896z"/>
	</g>
</g>
<g>
</g>
<g>
</g>
<g>
</g>
<g>
</g>
<g>
</g>
<g>
</g>
<g>
</g>
<g>
</g>
<g>
</g>
<g>
</g>
<g>
</g>
<g>
</g>
<g>
</g>
<g>
</g>
<g>
</g>
</svg>
