<?xml version="1.0" encoding="iso-8859-1"?>
<!-- Generator: Adobe Illustrator 19.0.0, SVG Export Plug-In . SVG Version: 6.00 Build 0)  -->
<svg xmlns="http://www.w3.org/2000/svg" xmlns:xlink="http://www.w3.org/1999/xlink" version="1.1" id="Layer_1" x="0px" y="0px" viewBox="0 0 512 512" style="enable-background:new 0 0 512 512;" xml:space="preserve">
<g>
	<g>
		<path d="M256,248.261c-30.69,49.6-33.391,51.193-33.391,63.391c0,18.413,14.978,33.391,33.391,33.391s33.391-14.978,33.391-33.391    C289.391,299.406,286.59,297.666,256,248.261z"/>
	</g>
</g>
<g>
	<g>
		<path d="M439.652,166.957c9.217,0,16.696-7.473,16.696-16.696s-7.479-16.696-16.696-16.696h-16.696v-33.391h16.696    c9.217,0,16.696-7.473,16.696-16.696s-7.479-16.696-16.696-16.696c-28.997,0-54.389,0-83.478,0V16.696    C356.174,7.473,348.695,0,339.478,0h-66.783C263.478,0,256,7.473,256,16.696v50.087c-206.716,0-169.43,0-183.652,0    c-9.217,0-16.696,7.473-16.696,16.696s7.479,16.696,16.696,16.696h16.696v33.391H72.348c-9.217,0-16.696,7.473-16.696,16.696    c0,9.223,7.479,16.696,16.696,16.696h16.696v244.87H72.348c-9.217,0-16.696,7.473-16.696,16.696    c0,9.223,7.479,16.696,16.696,16.696h16.696v33.391H72.348c-9.217,0-16.696,7.473-16.696,16.696    c0,9.223,7.479,16.696,16.696,16.696c214.302,0,117.294,0,367.304,0c9.217,0,16.696-7.473,16.696-16.696    c0-9.223-7.479-16.696-16.696-16.696h-16.696v-33.391h16.696c9.217,0,16.696-7.473,16.696-16.696    c0-9.223-7.479-16.696-16.696-16.696h-16.696v-244.87H439.652z M389.565,478.609h-267.13v-33.391h267.13V478.609z     M189.217,311.652c0-28.846,17.995-48.006,52.587-103.897c3.043-4.913,8.414-7.907,14.196-7.907s11.153,2.994,14.196,7.907    c45.291,73.178,52.587,79.702,52.587,103.897c0,36.826-29.956,66.783-66.783,66.783S189.217,348.478,189.217,311.652z     M389.565,133.565h-267.13v-33.391c230.659,0,161.378,0,267.13,0V133.565z"/>
	</g>
</g>
<g>
</g>
<g>
</g>
<g>
</g>
<g>
</g>
<g>
</g>
<g>
</g>
<g>
</g>
<g>
</g>
<g>
</g>
<g>
</g>
<g>
</g>
<g>
</g>
<g>
</g>
<g>
</g>
<g>
</g>
</svg>
