<?xml version="1.0" encoding="iso-8859-1"?>
<!-- Generator: Adobe Illustrator 19.0.0, SVG Export Plug-In . SVG Version: 6.00 Build 0)  -->
<svg xmlns="http://www.w3.org/2000/svg" xmlns:xlink="http://www.w3.org/1999/xlink" version="1.1" id="Layer_1" x="0px" y="0px" viewBox="0 0 512 512" style="enable-background:new 0 0 512 512;" xml:space="preserve">
<g>
	<g>
		<path d="M495.307,276.476h-77.901c-9.216,0-16.693,7.472-16.693,16.693v0.416c-45.372-25.131-104.671-22.979-147.749,8.859    c-8.292,6.13-18.845,7.417-26.235,7.417h-46.702c-18.077,0-34.283,13.537-35.228,31.591    c-1.008,19.254,14.306,35.181,33.339,35.181h139.109c9.216,0,16.693,7.472,16.693,16.693s-7.477,16.693-16.693,16.693H164.142    c-4.426,0-8.67-1.758-11.8-4.888l-95.354-95.354c-13.037-13.036-34.173-13.036-47.21,0c-13.037,13.036-13.037,34.173,0,47.21    L114.91,462.121c9.394,9.395,22.135,14.672,35.422,14.672h250.382v16.693c0,9.221,7.477,16.693,16.693,16.693h77.901    c9.216,0,16.693-7.472,16.693-16.693V293.169C512,283.948,504.523,276.476,495.307,276.476z M478.614,476.794h-44.515v-166.93    h44.515V476.794z"/>
	</g>
</g>
<g>
	<g>
		<path d="M205.398,165.144c-12.373,0.232-24.549-0.457-36.511-1.871c5.479,46.458,21.818,79.818,31.51,79.818    c9.689,0,26.02-33.337,31.504-79.771C223.19,164.349,214.351,164.976,205.398,165.144z"/>
	</g>
</g>
<g>
	<g>
		<path d="M230.552,1.822c22.501,24.026,34.852,73.761,36.404,120.07c21.98-6.548,42.555-16.21,61.29-28.521    C314.546,47.887,277.2,12.647,230.552,1.822z"/>
	</g>
</g>
<g>
	<g>
		<path d="M72.5,93.548c18.766,12.318,39.386,21.991,61.331,28.53c1.526-46.362,13.879-96.199,36.409-120.257    C123.533,12.66,86.159,47.98,72.5,93.548z"/>
	</g>
</g>
<g>
	<g>
		<path d="M333.819,129.376c-20.93,12.121-43.667,21.448-67.713,27.552c-3.473,41.639-15.506,83.451-35.554,104.858    C289.293,248.154,334.914,195.161,333.819,129.376z"/>
	</g>
</g>
<g>
	<g>
		<path d="M134.688,156.94c-24.001-6.102-46.755-15.417-67.713-27.554c-1.191,64.734,43.672,118.572,103.266,132.4    C150.195,240.38,138.162,198.576,134.688,156.94z"/>
	</g>
</g>
<g>
	<g>
		<path d="M200.397,20.518c-11.601,0-32.721,47.774-33.329,108.632c12.324,1.773,24.863,2.854,37.706,2.614    c9.837-0.184,19.456-1.173,28.955-2.537C233.136,68.332,212.001,20.518,200.397,20.518z"/>
	</g>
</g>
<g>
</g>
<g>
</g>
<g>
</g>
<g>
</g>
<g>
</g>
<g>
</g>
<g>
</g>
<g>
</g>
<g>
</g>
<g>
</g>
<g>
</g>
<g>
</g>
<g>
</g>
<g>
</g>
<g>
</g>
</svg>
