<?xml version="1.0" encoding="iso-8859-1"?>
<!-- Generator: Adobe Illustrator 19.0.0, SVG Export Plug-In . SVG Version: 6.00 Build 0)  -->
<svg xmlns="http://www.w3.org/2000/svg" xmlns:xlink="http://www.w3.org/1999/xlink" version="1.1" id="Layer_1" x="0px" y="0px" viewBox="0 0 512 512" style="enable-background:new 0 0 512 512;" xml:space="preserve">
<g>
	<g>
		<path d="M256,0C154.738,0,72.346,82.387,72.346,183.654c0,67.734,16.606,79.516,169.556,320.6c6.56,10.328,21.635,10.328,28.196,0    c152.814-240.875,169.556-252.443,169.556-320.6C439.654,82.387,357.262,0,256,0z M272.696,288.599v6.36    c0,9.223-7.479,16.696-16.696,16.696c-9.217,0-16.696-7.473-16.696-16.696v-6.36c-20.954-11.344-66.783-42.033-66.783-93.815    c0-63.495,71.142-112.001,74.175-114.033c5.631-3.782,12.978-3.782,18.609,0c3.033,2.032,74.175,50.538,74.175,114.033    C339.479,246.566,293.65,277.255,272.696,288.599z"/>
	</g>
</g>
<g>
	<g>
		<path d="M256.077,115.463c-16.685,13.506-50.163,44.886-50.163,79.322c0,24.447,17.761,42.846,33.392,54.333v-54.333    c0-9.223,7.479-16.696,16.696-16.696c9.217,0,16.696,7.473,16.696,16.696v54.331c15.625-11.483,33.392-29.883,33.392-54.331    C306.088,162.637,275.544,131.164,256.077,115.463z"/>
	</g>
</g>
<g>
</g>
<g>
</g>
<g>
</g>
<g>
</g>
<g>
</g>
<g>
</g>
<g>
</g>
<g>
</g>
<g>
</g>
<g>
</g>
<g>
</g>
<g>
</g>
<g>
</g>
<g>
</g>
<g>
</g>
</svg>
