<?xml version="1.0" encoding="iso-8859-1"?>
<!-- Generator: Adobe Illustrator 19.0.0, SVG Export Plug-In . SVG Version: 6.00 Build 0)  -->
<svg xmlns="http://www.w3.org/2000/svg" xmlns:xlink="http://www.w3.org/1999/xlink" version="1.1" id="Layer_1" x="0px" y="0px" viewBox="0 0 512 512" style="enable-background:new 0 0 512 512;" xml:space="preserve">
<g>
	<g>
		<path d="M431.105,182.912c-46.514-47.699-101.457-58.254-154.615-29.766c-4.898,2.624-8.686,4.586-11.924,5.893    c1.559-2.54,2.506-5.499,2.506-8.7c0-19.105,0-24.694,0-26.101c0-0.294,0-0.409,0-0.423c0-0.731,0-2.589,0-6.885    c0-27.634,22.48-50.114,50.114-50.114c9.222,0,16.705-7.477,16.705-16.705c0-9.228-7.483-16.704-16.705-16.704    c-25.408,0-48.161,11.439-63.493,29.395C234.129,25.525,195.088,0,150.142,0h-33.409c-9.222,0-16.704,7.477-16.704,16.705v33.409    c0,37.34,17.659,70.568,44.993,91.991c-22.395,6.595-44.046,20.222-64.122,40.808c-85.035,87.15-23.144,235.229,35.398,293.634    c33.172,33.106,70.616,47.048,111.852,24.138c26.79-14.959,28.598-15.134,55.725,0.011c41.002,22.797,78.333,9.282,111.82-24.144    C454.236,418.146,516.139,270.067,431.105,182.912z M233.776,129.981c0,0.146,0,0.204,0,0.211c0,0.365,0,1.294,0,3.444H216.96    c-46.058,0-83.523-37.466-83.523-83.523V33.409h16.705c46.057,0,83.634,37.466,83.634,83.523    C233.776,126.486,233.776,129.279,233.776,129.981z"/>
	</g>
</g>
<g>
</g>
<g>
</g>
<g>
</g>
<g>
</g>
<g>
</g>
<g>
</g>
<g>
</g>
<g>
</g>
<g>
</g>
<g>
</g>
<g>
</g>
<g>
</g>
<g>
</g>
<g>
</g>
<g>
</g>
</svg>
