<?xml version="1.0" encoding="iso-8859-1"?>
<!-- Generator: Adobe Illustrator 19.0.0, SVG Export Plug-In . SVG Version: 6.00 Build 0)  -->
<svg xmlns="http://www.w3.org/2000/svg" xmlns:xlink="http://www.w3.org/1999/xlink" version="1.1" id="Layer_1" x="0px" y="0px" viewBox="0 0 512 512" style="enable-background:new 0 0 512 512;" xml:space="preserve">
<g>
	<g>
		<path d="M381.017,294.039c-2.326-0.007-4.657-0.107-6.985-0.319c1.612,18.178-2.588,37.025-14.15,55.129    c7.397,48.59-7.396,95.147-44.73,132.485c-7.016,7.01-7.016,18.39,0,25.401c7.018,7.018,18.385,7.018,25.401,0    C399.267,448.023,412.629,365.834,381.017,294.039z"/>
	</g>
</g>
<g>
	<g>
		<path d="M160.675,105.564c-22.197-22.197-53.13-11.251-68.018,3.637c-7.777,7.783-23.308,28.483,0.667,52.458    c7.016,7.016,7.016,18.39,0,25.401c-17.959,17.971-16.022,37.312-0.081,53.241c17.438,17.442,47.762,24.811,66.298,6.245    l71.058-71.058L160.675,105.564z"/>
	</g>
</g>
<g>
	<g>
		<path d="M295.716,0.099c-9.59-0.69-19.097,3.672-28.15,12.718c-7.013,7.013-18.388,7.013-25.401,0    C233.639,4.292,224.786,0,215.757,0c-30.45,0-59.659,50.175-29.681,80.162L256,150.086l71.058-71.052    C353.88,52.212,326.237,2.014,295.716,0.099z"/>
	</g>
</g>
<g>
	<g>
		<path d="M325.923,270.819l-69.924-69.924l-71.058,71.052c-24.983,24.983-2.781,70.396,25.343,77.94    c11.765,3.14,23.227-0.807,34.149-11.73c7.013-7.013,18.388-7.013,25.401,0c10.959,10.958,22.466,14.923,34.149,11.777    C330.996,342.69,353.476,298.383,325.923,270.819z"/>
	</g>
</g>
<g>
	<g>
		<path d="M418.676,189.323c-7.016-7.016-7.016-18.39,0-25.401c9.04-9.046,13.32-18.519,12.724-28.144    c-1.958-30.547-52.107-58.141-78.94-31.342l-71.058,71.053l69.924,69.929c22.221,22.203,53.141,11.233,68.018-3.643    C427.12,233.991,442.651,213.298,418.676,189.323z"/>
	</g>
</g>
<g>
</g>
<g>
</g>
<g>
</g>
<g>
</g>
<g>
</g>
<g>
</g>
<g>
</g>
<g>
</g>
<g>
</g>
<g>
</g>
<g>
</g>
<g>
</g>
<g>
</g>
<g>
</g>
<g>
</g>
</svg>
