<?xml version="1.0" encoding="iso-8859-1"?>
<!-- Generator: Adobe Illustrator 19.0.0, SVG Export Plug-In . SVG Version: 6.00 Build 0)  -->
<svg xmlns="http://www.w3.org/2000/svg" xmlns:xlink="http://www.w3.org/1999/xlink" version="1.1" id="Layer_1" x="0px" y="0px" viewBox="0 0 512 512" style="enable-background:new 0 0 512 512;" xml:space="preserve">
<g>
	<g>
		<path d="M501.859,184.549c-2.588-8.849-11.859-13.924-20.696-11.364c-8.859,2.581-13.945,11.848-11.37,20.701    c5.848,20.086,8.815,40.983,8.815,62.113c0,122.744-99.859,222.609-222.609,222.609c-62.856,0-122.063-26.614-163.981-72.353    h32.775c9.217,0,16.696-7.473,16.696-16.696c0-9.223-7.479-16.584-16.696-16.584H58.011c-10.011,0-18.918,9.167-16.696,20.132    v63.235c0,9.223,7.479,16.696,16.696,16.696s16.473-7.473,16.473-16.696v-19.771C122.125,484.43,187.301,512,256,512    c141.163,0,256-114.843,256-256C512,231.712,508.587,207.668,501.859,184.549z"/>
	</g>
</g>
<g>
	<g>
		<path d="M456.347,38.957c-9.217,0-16.696,7.473-16.696,16.696v22.214C391.811,28.514,325.865,0,256,0C114.837,0,0,114.843,0,256    c0,24.293,3.413,48.332,10.141,71.445c2.608,8.926,11.926,13.934,20.696,11.359c8.859-2.576,13.945-11.843,11.37-20.696    c-5.848-20.08-8.815-40.978-8.815-62.108C33.391,133.256,133.25,33.391,256,33.391c62.869,0,122.065,26.606,163.976,72.348    h-30.411c-9.217,0-16.696,7.473-16.696,16.696c0,9.223,7.479,16.696,16.696,16.696h64.913c0.006,0,0.008,0,0.008,0    c11.986,0,18.557-7.751,18.557-16.696V55.652C473.042,46.43,465.564,38.957,456.347,38.957z"/>
	</g>
</g>
<g>
	<g>
		<path d="M367.978,355.499l-34.065-34.065v-59.869c0-64.441-52.429-116.87-116.87-116.87h-66.783    c-9.223,0-16.696,7.473-16.696,16.696v66.783c0,64.441,52.429,116.87,116.87,116.87h59.869l34.065,34.065    c6.521,6.521,17.087,6.521,23.609,0C374.499,372.592,374.499,362.016,367.978,355.499z"/>
	</g>
</g>
<g>
</g>
<g>
</g>
<g>
</g>
<g>
</g>
<g>
</g>
<g>
</g>
<g>
</g>
<g>
</g>
<g>
</g>
<g>
</g>
<g>
</g>
<g>
</g>
<g>
</g>
<g>
</g>
<g>
</g>
</svg>
