<?xml version="1.0" encoding="iso-8859-1"?>
<!-- Generator: Adobe Illustrator 19.0.0, SVG Export Plug-In . SVG Version: 6.00 Build 0)  -->
<svg xmlns="http://www.w3.org/2000/svg" xmlns:xlink="http://www.w3.org/1999/xlink" version="1.1" id="Layer_1" x="0px" y="0px" viewBox="0 0 512 512" style="enable-background:new 0 0 512 512;" xml:space="preserve">
<g>
	<g>
		<path d="M0,361.739v16.696c0,27.619,22.468,50.087,50.087,50.087h133.565v50.087H116.87c-9.217,0-16.696,7.473-16.696,16.696    c0,9.223,7.479,16.696,16.696,16.696c244.74,0,38.028,0,278.261,0c9.217,0,16.696-7.473,16.696-16.696    c0-9.223-7.479-16.696-16.696-16.696h-66.783v-50.087h133.565c27.619,0,50.087-22.468,50.087-50.087v-16.696H0z"/>
	</g>
</g>
<g>
	<g>
		<path d="M322.783,100.174c-27.619,0-50.087,22.468-50.087,50.087v26.478l38.283-38.283c6.521-6.521,17.087-6.521,23.609,0    c6.521,6.516,6.521,17.092,0,23.609l-38.283,38.283h26.478c27.619,0,50.087-22.468,50.087-50.087v-50.087H322.783z"/>
	</g>
</g>
<g>
	<g>
		<path d="M461.913,0H50.087C22.468,0,0,22.468,0,50.087v278.261h512V50.087C512,22.468,489.532,0,461.913,0z M406.261,150.261    c0,46.032-37.446,83.478-83.478,83.478h-50.087v44.522c0,9.223-7.479,16.696-16.696,16.696s-16.696-7.473-16.696-16.696v-44.522    h-50.087c-46.032,0-83.478-37.446-83.478-83.478V83.478c0-9.223,7.479-16.696,16.696-16.696h66.783    c27.323,0,51.545,13.252,66.783,33.602c15.238-20.35,39.46-33.602,66.783-33.602h66.783c9.217,0,16.696,7.473,16.696,16.696    V150.261z"/>
	</g>
</g>
<g>
	<g>
		<path d="M201.021,138.456l38.283,38.283v-26.478c0-27.619-22.468-50.087-50.087-50.087H139.13v50.087    c0,27.619,22.468,50.087,50.087,50.087h26.478l-38.283-38.283c-6.521-6.516-6.521-17.092,0-23.609    C183.934,131.935,194.5,131.935,201.021,138.456z"/>
	</g>
</g>
<g>
</g>
<g>
</g>
<g>
</g>
<g>
</g>
<g>
</g>
<g>
</g>
<g>
</g>
<g>
</g>
<g>
</g>
<g>
</g>
<g>
</g>
<g>
</g>
<g>
</g>
<g>
</g>
<g>
</g>
</svg>
