<?xml version="1.0" encoding="iso-8859-1"?>
<!-- Generator: Adobe Illustrator 19.0.0, SVG Export Plug-In . SVG Version: 6.00 Build 0)  -->
<svg xmlns="http://www.w3.org/2000/svg" xmlns:xlink="http://www.w3.org/1999/xlink" version="1.1" id="Layer_1" x="0px" y="0px" viewBox="0 0 512 512" style="enable-background:new 0 0 512 512;" xml:space="preserve">
<g>
	<g>
		<path d="M256,0C114.615,0,0,114.615,0,255.999V256c0,141.384,114.615,256,256,256s256-114.616,256-256v-0.001    C512,114.615,397.385,0,256,0z M223.068,367.942c-0.019,0.018-0.022,0.042-0.041,0.06l-0.068,0.068    c-0.022,0.022-0.043,0.044-0.066,0.066l-33.258,33.258c-6.521,6.522-17.087,6.522-23.609,0c-6.521-6.516-6.521-17.092,0-23.609    l5.56-5.782l-42.593-0.166c0,0,0,0-0.011,0c-36.821,0-62.816-40.43-46.152-73.769l50.566-87.63    c4.609-8.001,14.837-10.723,22.804-6.108c7.989,4.609,10.718,14.82,6.108,22.804l-50.087,86.75    c-4.622,9.367,3.97,24.229,17.054,24.229l40.943,0.248l-4.193-3.748c-6.521-6.516-6.521-17.092,0-23.609    c6.521-6.521,17.087-6.521,23.609,0l33.391,33.391c0.022,0.021,0.027,0.05,0.049,0.071    C229.663,351.121,229.386,361.571,223.068,367.942z M232.538,139.036c8.934-2.375,18.065,2.892,20.457,11.804    c2.381,8.908-2.902,18.06-11.804,20.445l-45.609,12.222c-8.741,2.314-17.92-2.675-20.457-11.804l-12.228-45.614    c-2.381-8.902,2.902-18.06,11.804-20.445c8.87-2.402,18.076,2.892,20.457,11.804l2.036,7.594l21.921-36.529    c18.543-32.11,66.306-34.131,86.674-3.25l50.609,87.598c4.609,7.984,1.88,18.196-6.108,22.804    c-7.937,4.592-18.169,1.936-22.804-6.108l-50.087-86.75c-5.774-8.669-22.943-8.707-29.511,2.647l-21.071,35.115L232.538,139.036z     M426.505,261.035c-2.381,8.913-11.511,14.234-20.457,11.804l-7.598-2.036l20.674,37.254c18.419,31.883-3.298,74.899-40.51,77.129    l-101.173,0.032c-9.217,0-16.696-7.918-16.696-17.141s7.479-16.362,16.696-16.362h100.174    c10.34-0.667,19.019-15.825,12.456-27.208l-19.87-35.803l-1.533,5.721c-2.4,8.95-11.617,14.195-20.445,11.804    c-8.913-2.386-14.196-11.538-11.815-20.445l12.218-45.614c0.008-0.033,0.036-0.058,0.047-0.091    c2.454-8.947,11.602-14.071,20.41-11.714l45.619,12.222C423.603,242.975,428.886,252.128,426.505,261.035z"/>
	</g>
</g>
<g>
</g>
<g>
</g>
<g>
</g>
<g>
</g>
<g>
</g>
<g>
</g>
<g>
</g>
<g>
</g>
<g>
</g>
<g>
</g>
<g>
</g>
<g>
</g>
<g>
</g>
<g>
</g>
<g>
</g>
</svg>
