<?xml version="1.0" encoding="iso-8859-1"?>
<!-- Generator: Adobe Illustrator 19.0.0, SVG Export Plug-In . SVG Version: 6.00 Build 0)  -->
<svg xmlns="http://www.w3.org/2000/svg" xmlns:xlink="http://www.w3.org/1999/xlink" version="1.1" id="Layer_1" x="0px" y="0px" viewBox="0 0 512 512" style="enable-background:new 0 0 512 512;" xml:space="preserve">
<g>
	<g>
		<path d="M256,0C114.837,0,0,114.843,0,256s114.837,256,256,256s256-114.843,256-256S397.163,0,256,0z M162.174,91.886    c57.239-32.848,130.413-32.848,187.652,0c7.978,4.581,10.75,14.767,6.185,22.761l-35.859,62.75    c-4.615,8.047-14.874,10.771-22.804,6.195c-25.261-14.479-57.435-14.479-82.696,0c-7.916,4.563-18.179,1.869-22.804-6.195    l-35.859-62.75C151.424,106.652,154.195,96.467,162.174,91.886z M220.011,350.837l-36.402,62.418    c-4.693,8.019-14.948,10.633-22.859,5.995c-57.652-33.755-93.641-95.983-93.924-162.413c-0.043-9.217,7.402-16.722,16.62-16.766    l72.326-0.321c9.294-0.266,16.728,7.407,16.771,16.62c0.13,29.287,16.022,56.74,41.479,71.647    C221.968,332.669,224.652,342.881,220.011,350.837z M205.913,256c0-27.619,22.468-50.087,50.087-50.087    s50.087,22.468,50.087,50.087S283.619,306.087,256,306.087S205.913,283.619,205.913,256z M351.25,419.25    c-7.929,4.65-18.177,2.005-22.859-5.995l-36.402-62.418c-4.641-7.956-1.957-18.168,5.989-22.821    c25.456-14.908,41.347-42.359,41.479-71.647c0.043-9.196,7.511-16.62,16.696-16.62c0.022,0,0.043,0,0.076,0l72.326,0.321    c9.218,0.044,16.663,7.55,16.62,16.767C444.891,323.267,408.902,385.495,351.25,419.25z"/>
	</g>
</g>
<g>
</g>
<g>
</g>
<g>
</g>
<g>
</g>
<g>
</g>
<g>
</g>
<g>
</g>
<g>
</g>
<g>
</g>
<g>
</g>
<g>
</g>
<g>
</g>
<g>
</g>
<g>
</g>
<g>
</g>
</svg>
