<?xml version="1.0" encoding="iso-8859-1"?>
<!-- Generator: Adobe Illustrator 19.0.0, SVG Export Plug-In . SVG Version: 6.00 Build 0)  -->
<svg xmlns="http://www.w3.org/2000/svg" xmlns:xlink="http://www.w3.org/1999/xlink" version="1.1" id="Layer_1" x="0px" y="0px" viewBox="0 0 512 512" style="enable-background:new 0 0 512 512;" xml:space="preserve">
<g>
	<g>
		<path d="M328.434,104.346c-16.681,13.503-50.151,44.875-50.151,79.302c0,24.441,17.645,42.835,33.272,54.319v-54.319    c0-9.221,7.588-16.692,16.803-16.692c9.215,0,16.692,7.471,16.692,16.692v54.318c15.621-11.481,33.383-29.876,33.383-54.318    C378.434,151.508,347.897,120.043,328.434,104.346z"/>
	</g>
</g>
<g>
	<g>
		<path d="M328.391,0.001c-101.237,0-183.609,82.367-183.609,183.609c0,44.625,16.034,85.555,42.602,117.407l-24.724,24.722    l-11.803-11.801c-6.52-6.52-17.083-6.52-23.603,0L14.683,426.502c-19.567,19.556-19.587,51.25,0,70.825    c19.579,19.556,51.245,19.57,70.81-0.006l112.582-112.571c6.516-6.516,6.516-17.087,0-23.603l-11.81-11.809l24.724-24.721    c31.853,26.568,72.781,42.601,117.403,42.601C429.628,367.218,512,284.851,512,183.609S429.627,0.001,328.391,0.001z     M345.05,277.439v6.358c0,9.221-7.477,16.692-16.692,16.692c-9.215,0-16.803-7.471-16.803-16.692v-6.358    c-20.949-11.341-66.656-42.023-66.656-93.792c0-63.48,71.124-111.973,74.157-114.005c5.63-3.781,12.975-3.781,18.605,0    c3.032,2.032,74.157,50.526,74.157,114.005C411.817,235.416,365.999,266.097,345.05,277.439z"/>
	</g>
</g>
<g>
</g>
<g>
</g>
<g>
</g>
<g>
</g>
<g>
</g>
<g>
</g>
<g>
</g>
<g>
</g>
<g>
</g>
<g>
</g>
<g>
</g>
<g>
</g>
<g>
</g>
<g>
</g>
<g>
</g>
</svg>
