<?xml version="1.0" encoding="iso-8859-1"?>
<!-- Generator: Adobe Illustrator 19.0.0, SVG Export Plug-In . SVG Version: 6.00 Build 0)  -->
<svg xmlns="http://www.w3.org/2000/svg" xmlns:xlink="http://www.w3.org/1999/xlink" version="1.1" id="Layer_1" x="0px" y="0px" viewBox="0 0 512 512" style="enable-background:new 0 0 512 512;" xml:space="preserve">
<g>
	<g>
		<path d="M220.712,150.261c8.009-8.882,13.027-20.517,13.027-33.391c0-23.088-15.784-42.381-37.069-48.155    c2.324-5.77,3.677-12.035,3.677-18.628C200.348,22.468,177.88,0,150.261,0H83.478C55.859,0,33.391,22.468,33.391,50.087    c0,6.593,1.353,12.858,3.677,18.628C15.784,74.488,0,93.782,0,116.87c0,12.875,5.018,24.509,13.027,33.391    C5.018,159.143,0,170.778,0,183.652s5.018,24.509,13.027,33.391C5.018,225.926,0,237.56,0,250.435    c0,12.875,5.018,24.509,13.027,33.391C5.018,292.708,0,304.343,0,317.217v77.913c0,46.032,37.446,83.478,83.478,83.478h16.696    v16.696c0,9.223,7.479,16.696,16.696,16.696s16.696-7.473,16.696-16.696v-16.696h16.696c46.032,0,83.478-37.446,83.478-83.478    v-77.913c0-12.875-5.018-24.509-13.027-33.391c8.009-8.882,13.027-20.517,13.027-33.391c0-12.875-5.018-24.509-13.027-33.391    c8.009-8.882,13.027-20.517,13.027-33.391S228.722,159.143,220.712,150.261z M83.478,33.391h66.783    c9.206,0,16.696,7.49,16.696,16.696s-7.49,16.696-16.696,16.696H83.478c-9.206,0-16.696-7.49-16.696-16.696    S74.272,33.391,83.478,33.391z M100.174,395.13c0,9.223-7.479,16.696-16.696,16.696s-16.696-7.473-16.696-16.696v-44.522    c0-9.223,7.479-16.696,16.696-16.696s16.696,7.473,16.696,16.696V395.13z M183.652,267.13H50.087    c-9.206,0-16.696-7.49-16.696-16.696c0-9.206,7.49-16.696,16.696-16.696h133.565c9.206,0,16.696,7.49,16.696,16.696    C200.348,259.641,192.858,267.13,183.652,267.13z M183.652,200.348H50.087c-9.206,0-16.696-7.49-16.696-16.696    c0-9.206,7.49-16.696,16.696-16.696h133.565c9.206,0,16.696,7.49,16.696,16.696C200.348,192.858,192.858,200.348,183.652,200.348z     M183.652,133.565H50.087c-9.206,0-16.696-7.49-16.696-16.696s7.49-16.696,16.696-16.696c64.157,0,69.408,0,133.565,0    c9.206,0,16.696,7.49,16.696,16.696S192.858,133.565,183.652,133.565z"/>
	</g>
</g>
<g>
	<g>
		<path d="M498.973,150.261c8.01-8.882,13.027-20.517,13.027-33.391c0-23.088-15.784-42.381-37.069-48.155    c2.324-5.77,3.677-12.035,3.677-18.628C478.609,22.468,456.141,0,428.522,0h-66.783c-27.619,0-50.087,22.468-50.087,50.087    c0,6.593,1.353,12.858,3.677,18.628c-21.285,5.773-37.069,25.067-37.069,48.155c0,12.875,5.018,24.509,13.027,33.391    c-8.01,8.882-13.027,20.517-13.027,33.391s5.018,24.509,13.027,33.391c-8.01,8.882-13.027,20.517-13.027,33.391    c0,12.875,5.018,24.509,13.027,33.391c-8.01,8.882-13.027,20.517-13.027,33.391v77.913c0,46.032,37.446,83.478,83.478,83.478    h16.696v16.696c0,9.223,7.479,16.696,16.696,16.696s16.696-7.473,16.696-16.696v-16.696h16.696    c46.032,0,83.478-37.446,83.478-83.478v-77.913c0-12.875-5.018-24.509-13.027-33.391c8.01-8.882,13.027-20.517,13.027-33.391    c0-12.875-5.018-24.509-13.027-33.391c8.01-8.882,13.027-20.517,13.027-33.391S506.982,159.143,498.973,150.261z M361.739,33.391    h66.783c9.206,0,16.696,7.49,16.696,16.696s-7.49,16.696-16.696,16.696h-66.783c-9.206,0-16.696-7.49-16.696-16.696    S352.533,33.391,361.739,33.391z M378.435,395.13c0,9.223-7.479,16.696-16.696,16.696s-16.696-7.473-16.696-16.696v-44.522    c0-9.223,7.479-16.696,16.696-16.696s16.696,7.473,16.696,16.696V395.13z M461.913,267.13H328.348    c-9.206,0-16.696-7.49-16.696-16.696c0-9.206,7.49-16.696,16.696-16.696h133.565c9.206,0,16.696,7.49,16.696,16.696    C478.609,259.641,471.119,267.13,461.913,267.13z M461.913,200.348H328.348c-9.206,0-16.696-7.49-16.696-16.696    c0-9.206,7.49-16.696,16.696-16.696h133.565c9.206,0,16.696,7.49,16.696,16.696C478.609,192.858,471.119,200.348,461.913,200.348z     M461.913,133.565H328.348c-9.206,0-16.696-7.49-16.696-16.696s7.49-16.696,16.696-16.696c64.157,0,69.408,0,133.565,0    c9.206,0,16.696,7.49,16.696,16.696S471.119,133.565,461.913,133.565z"/>
	</g>
</g>
<g>
</g>
<g>
</g>
<g>
</g>
<g>
</g>
<g>
</g>
<g>
</g>
<g>
</g>
<g>
</g>
<g>
</g>
<g>
</g>
<g>
</g>
<g>
</g>
<g>
</g>
<g>
</g>
<g>
</g>
</svg>
