<?xml version="1.0" encoding="iso-8859-1"?>
<!-- Generator: Adobe Illustrator 19.0.0, SVG Export Plug-In . SVG Version: 6.00 Build 0)  -->
<svg xmlns="http://www.w3.org/2000/svg" xmlns:xlink="http://www.w3.org/1999/xlink" version="1.1" id="Layer_1" x="0px" y="0px" viewBox="0 0 512 512" style="enable-background:new 0 0 512 512;" xml:space="preserve">
<g>
	<g>
		<path d="M294.957,233.739c-46.032,0-83.478,37.446-83.478,83.478v26.478l71.674-71.674c6.521-6.521,17.086-6.521,23.608,0.001    c6.521,6.516,6.521,17.092,0,23.609l-71.673,71.673h26.478c46.032,0,83.478-37.446,83.478-83.478v-50.087H294.957z"/>
	</g>
</g>
<g>
	<g>
		<path d="M445.217,0H214.174c-13.609,0-26.756,6.006-35.413,14.674l-114,113.999c-8.993,8.987-14.674,21.897-14.674,35.419v331.212    c0,9.223,7.479,16.696,16.696,16.696h378.435c9.217,0,16.696-7.473,16.696-16.696V16.696C461.913,7.473,454.435,0,445.217,0z     M183.652,57.005v76.561h-76.565L183.652,57.005z M378.435,283.826c0,64.441-52.424,116.87-116.87,116.87h-59.87l-34.065,34.065    c-6.521,6.521-17.087,6.521-23.609,0c-6.521-6.516-6.521-17.092,0-23.609l34.065-34.065v-59.87    c0-64.441,52.424-116.87,116.87-116.87h66.783c9.217,0,16.696,7.473,16.696,16.696V283.826z"/>
	</g>
</g>
<g>
</g>
<g>
</g>
<g>
</g>
<g>
</g>
<g>
</g>
<g>
</g>
<g>
</g>
<g>
</g>
<g>
</g>
<g>
</g>
<g>
</g>
<g>
</g>
<g>
</g>
<g>
</g>
<g>
</g>
</svg>
