<?xml version="1.0" encoding="iso-8859-1"?>
<!-- Generator: Adobe Illustrator 19.0.0, SVG Export Plug-In . SVG Version: 6.00 Build 0)  -->
<svg xmlns="http://www.w3.org/2000/svg" xmlns:xlink="http://www.w3.org/1999/xlink" version="1.1" id="Layer_1" x="0px" y="0px" viewBox="0 0 512 512" style="enable-background:new 0 0 512 512;" xml:space="preserve">
<g>
	<g>
		<path d="M322.783,144.696c-46.032,0-83.478,37.446-83.478,83.478v26.478l71.674-71.674c6.521-6.521,17.086-6.521,23.608,0.001    c6.521,6.516,6.521,17.092,0,23.609l-71.673,71.673h26.478c46.032,0,83.478-37.446,83.478-83.478v-50.087H322.783z"/>
	</g>
</g>
<g>
	<g>
		<path d="M456.348,445.217c9.217,0,16.696-7.473,16.696-16.696V50.087C473.043,22.468,450.576,0,422.957,0H139.13v411.826h-33.391    V0H89.044C61.424,0,38.957,22.468,38.957,50.087v411.826C38.957,488.321,60.65,512,89.044,512h367.304    c9.217,0,16.696-7.473,16.696-16.696c0-9.223-7.479-16.696-16.696-16.696c-9.206,0-16.696-7.49-16.696-16.696    S447.142,445.217,456.348,445.217z M171.848,322.109l34.065-34.066v-59.87c0-64.441,52.424-116.87,116.87-116.87h66.783    c9.217,0,16.696,7.473,16.696,16.696v66.783c0,64.441-52.424,116.87-116.87,116.87h-59.869l-34.065,34.065    c-6.521,6.521-17.087,6.521-23.609,0C165.326,339.201,165.326,328.625,171.848,322.109z M409.119,478.609H89.044    c-9.206,0-16.696-7.49-16.696-16.696s7.49-16.696,16.696-16.696c98.13,0,14.663,0,320.076,0    c-1.848,5.222-2.858,10.842-2.858,16.696S407.271,473.386,409.119,478.609z"/>
	</g>
</g>
<g>
</g>
<g>
</g>
<g>
</g>
<g>
</g>
<g>
</g>
<g>
</g>
<g>
</g>
<g>
</g>
<g>
</g>
<g>
</g>
<g>
</g>
<g>
</g>
<g>
</g>
<g>
</g>
<g>
</g>
</svg>
