<?xml version="1.0" encoding="iso-8859-1"?>
<!-- Generator: Adobe Illustrator 19.0.0, SVG Export Plug-In . SVG Version: 6.00 Build 0)  -->
<svg xmlns="http://www.w3.org/2000/svg" xmlns:xlink="http://www.w3.org/1999/xlink" version="1.1" id="Layer_1" x="0px" y="0px" viewBox="0 0 512 512" style="enable-background:new 0 0 512 512;" xml:space="preserve">
<g>
	<g>
		<path d="M436.409,267.555l-125.434-51.767l17.826-130.799C335.126,40.559,300.932,0,254.725,0    c-45.453,0-80.076,40.347-73.728,84.886l17.946,131.729L75.726,267.494c-41.725,16.744-59.631,66.705-36.576,106.642    c22.771,39.463,75.158,49.065,110.217,21.527l105.641-79.848l107.359,79.657c35.291,27.705,87.537,18.367,110.641-21.641    C495.738,334.477,478.085,284.281,436.409,267.555z M254.91,278.261c-15.348,0-27.826-12.484-27.826-27.826    c0-15.175,12.377-27.826,27.826-27.826c15.348,0,27.826,12.484,27.826,27.826C282.736,265.777,270.258,278.261,254.91,278.261z"/>
	</g>
</g>
<g>
	<g>
		<path d="M255.193,357.533l-50.381,38.076v99.695c0,9.223,7.479,16.696,16.696,16.696h66.783c9.217,0,16.584-7.473,16.584-16.696    V394.469L255.193,357.533z"/>
	</g>
</g>
<g>
</g>
<g>
</g>
<g>
</g>
<g>
</g>
<g>
</g>
<g>
</g>
<g>
</g>
<g>
</g>
<g>
</g>
<g>
</g>
<g>
</g>
<g>
</g>
<g>
</g>
<g>
</g>
<g>
</g>
</svg>
