<?xml version="1.0" encoding="iso-8859-1"?>
<!-- Generator: Adobe Illustrator 19.0.0, SVG Export Plug-In . SVG Version: 6.00 Build 0)  -->
<svg xmlns="http://www.w3.org/2000/svg" xmlns:xlink="http://www.w3.org/1999/xlink" version="1.1" id="Layer_1" x="0px" y="0px" viewBox="0 0 512 512" style="enable-background:new 0 0 512 512;" xml:space="preserve">
<g>
	<g>
		<path d="M217.043,271.602h-16.696c-25.67,0-49.038,9.788-66.783,25.721v-60.728c20.405,9.669,42.569,4.684,56.924-9.683    l18.032-18.038c21.373-21.363,18.6-55.378-2.956-73.62c21.552-18.237,24.333-52.252,2.956-73.62L190.49,43.591    c-21.215-21.224-55.259-18.713-73.62,2.967c-18.353-21.671-52.396-24.203-73.62-2.962L25.217,61.634    c-21.373,21.363-18.6,55.378,2.956,73.62c-21.552,18.237-24.333,52.252-2.956,73.62l18.032,18.044    c14.383,14.383,36.518,19.348,56.924,9.678v60.728c-17.744-15.934-41.112-25.721-66.783-25.721H16.696    C7.479,271.602,0,279.075,0,288.298v16.696c0,55.234,44.935,100.174,100.174,100.174v61.217c0,9.223,7.479,16.696,16.696,16.696    s16.696-7.473,16.696-16.696v-61.217c55.239,0,100.174-44.94,100.174-100.174v-16.696    C233.739,279.075,226.261,271.602,217.043,271.602z M139.228,73.738c3.936-11.782,18.871-15.307,27.652-6.532l18.032,18.038    c8.776,8.776,5.258,23.718-6.521,27.647l-14.702,4.9c-2.473-6.644-6.234-12.784-11.396-17.943    c-5.164-5.17-11.311-8.935-17.962-11.412L139.228,73.738z M152.282,170.673c5.169-5.166,8.931-11.309,11.406-17.953l14.702,4.9    c11.773,3.927,15.302,18.866,6.521,27.647l-18.032,18.032c-8.795,8.795-23.722,5.235-27.652-6.521l-4.898-14.702    C140.979,179.599,147.124,175.837,152.282,170.673z M94.511,196.77c-3.912,11.714-18.816,15.361-27.652,6.532l-18.032-18.038    c-8.776-8.776-5.258-23.718,6.521-27.647l14.702-4.9c2.473,6.644,6.234,12.784,11.396,17.943    c5.164,5.17,11.311,8.935,17.962,11.412L94.511,196.77z M81.446,99.846c-5.161,5.161-8.921,11.301-11.394,17.943l-14.703-4.9    c-11.773-3.927-15.302-18.866-6.521-27.647l18.032-18.032c8.782-8.782,23.719-5.245,27.652,6.521l4.898,14.702    C92.758,90.911,86.61,94.676,81.446,99.846z"/>
	</g>
</g>
<g>
	<g>
		<path d="M495.304,271.602h-16.696c-25.67,0-49.038,9.788-66.783,25.721v-60.728c20.405,9.669,42.569,4.684,56.924-9.683    l18.032-18.038c21.373-21.363,18.6-55.378-2.956-73.62c21.552-18.237,24.333-52.252,2.956-73.62L468.75,43.591    c-21.215-21.224-55.259-18.713-73.62,2.967c-18.353-21.671-52.397-24.203-73.62-2.962l-18.032,18.038    c-21.373,21.363-18.6,55.378,2.956,73.62c-21.552,18.237-24.333,52.252-2.956,73.62l18.032,18.044    c14.294,14.294,36.391,19.408,56.924,9.678v60.728c-17.744-15.933-41.112-25.721-66.783-25.721h-16.696    c-9.217,0-16.696,7.473-16.696,16.696v16.696c0,55.234,44.935,100.174,100.174,100.174v61.217c0,9.223,7.479,16.696,16.696,16.696    s16.696-7.473,16.696-16.696v-61.217c55.239,0,100.174-44.94,100.174-100.174v-16.696    C512,279.074,504.521,271.602,495.304,271.602z M417.489,73.738c3.927-11.756,18.853-15.324,27.652-6.532l18.032,18.038    c8.776,8.776,5.258,23.718-6.521,27.647l-14.702,4.9c-2.473-6.644-6.234-12.784-11.396-17.943    c-5.165-5.17-11.311-8.935-17.962-11.412L417.489,73.738z M430.543,170.673c5.169-5.166,8.931-11.309,11.406-17.953l14.702,4.9    c11.773,3.927,15.302,18.866,6.521,27.647l-18.032,18.032c-8.795,8.795-23.722,5.235-27.652-6.521l-4.898-14.702    C419.24,179.599,425.385,175.837,430.543,170.673z M372.772,196.77c-3.913,11.717-18.802,15.359-27.652,6.532l-18.032-18.038    c-8.776-8.776-5.258-23.718,6.521-27.647l14.702-4.9c2.473,6.644,6.234,12.784,11.396,17.943    c5.165,5.17,11.311,8.935,17.962,11.412L372.772,196.77z M359.707,99.846c-5.161,5.161-8.921,11.301-11.394,17.943l-14.703-4.9    c-11.773-3.927-15.302-18.866-6.521-27.647l18.032-18.032c8.782-8.782,23.719-5.245,27.652,6.521l4.898,14.702    C371.019,90.911,364.871,94.676,359.707,99.846z"/>
	</g>
</g>
<g>
</g>
<g>
</g>
<g>
</g>
<g>
</g>
<g>
</g>
<g>
</g>
<g>
</g>
<g>
</g>
<g>
</g>
<g>
</g>
<g>
</g>
<g>
</g>
<g>
</g>
<g>
</g>
<g>
</g>
</svg>
