<?xml version="1.0" encoding="iso-8859-1"?>
<!-- Generator: Adobe Illustrator 19.0.0, SVG Export Plug-In . SVG Version: 6.00 Build 0)  -->
<svg xmlns="http://www.w3.org/2000/svg" xmlns:xlink="http://www.w3.org/1999/xlink" version="1.1" id="Layer_1" x="0px" y="0px" viewBox="0 0 512 512" style="enable-background:new 0 0 512 512;" xml:space="preserve">
<g>
	<g>
		<path d="M256,0C114.837,0,0,114.843,0,256s114.837,256,256,256s256-114.843,256-256S397.163,0,256,0z M39.711,307.75    c30.775,16.322,74.309,25.423,111.667,30.472c-7.904,15.884-12.248,33.414-12.248,51.344c0,25.039,7.987,48.208,21.447,67.25    C100.634,428.21,55.502,373.704,39.711,307.75z M172.522,307.111C82.16,297.159,33.391,273.706,33.391,256    c0-15.524,43.374-40.658,139.13-51.16V307.111z M172.522,89.044v82.217c-38.207,4.047-95.017,13.195-132.903,33.349    c17.792-74.869,73.364-135.127,145.5-159.449C177.184,57.929,172.522,72.934,172.522,89.044z M256,439.652    c-27.619,0-50.087-22.468-50.087-50.087c0-21.737,14-40.096,33.391-47.01V89.044c0-9.223,7.479-16.696,16.696-16.696    c9.217,0,16.696,7.473,16.696,16.696v253.511c19.391,6.914,33.391,25.273,33.391,47.01    C306.087,417.184,283.619,439.652,256,439.652z M472.381,204.61c-37.886-20.153-94.696-29.301-132.903-33.349V89.044    c0-16.109-4.663-31.114-12.597-43.883C399.017,69.483,454.59,129.742,472.381,204.61z M351.422,456.815    c13.46-19.042,21.447-42.211,21.447-67.25c0-17.93-4.344-35.459-12.248-51.344c37.358-5.049,80.893-14.151,111.667-30.472    C456.498,373.704,411.366,428.21,351.422,456.815z M339.478,307.111V204.84c95.756,10.502,139.13,35.636,139.13,51.16    C478.609,273.706,429.84,297.159,339.478,307.111z"/>
	</g>
</g>
<g>
	<g>
		<circle cx="256" cy="389.565" r="16.696"/>
	</g>
</g>
<g>
</g>
<g>
</g>
<g>
</g>
<g>
</g>
<g>
</g>
<g>
</g>
<g>
</g>
<g>
</g>
<g>
</g>
<g>
</g>
<g>
</g>
<g>
</g>
<g>
</g>
<g>
</g>
<g>
</g>
</svg>
