<?xml version="1.0" encoding="iso-8859-1"?>
<!-- Generator: Adobe Illustrator 19.0.0, SVG Export Plug-In . SVG Version: 6.00 Build 0)  -->
<svg xmlns="http://www.w3.org/2000/svg" xmlns:xlink="http://www.w3.org/1999/xlink" version="1.1" id="Layer_1" x="0px" y="0px" viewBox="0 0 512 512" style="enable-background:new 0 0 512 512;" xml:space="preserve">
<g>
	<g>
		<path d="M495.304,278.261h-61.217v-16.696c0-27.619-22.468-50.087-50.087-50.087H233.739v-44.522h50.087    c46.032,0,83.478-37.446,83.478-83.478V16.696C367.304,7.473,359.826,0,350.609,0h-66.783c-27.323,0-51.545,13.252-66.783,33.602    C201.806,13.252,177.584,0,150.261,0H83.478c-9.217,0-16.696,7.473-16.696,16.696v66.783c0,46.032,37.446,83.478,83.478,83.478    h50.087v44.522H50.087C22.468,211.478,0,233.946,0,261.565v200.348C0,489.532,22.468,512,50.087,512H384    c27.619,0,50.087-22.468,50.087-50.087v-16.696h61.217c9.217,0,16.696-7.473,16.696-16.696V294.957    C512,285.734,504.521,278.261,495.304,278.261z M233.739,83.478c0-27.619,22.468-50.087,50.087-50.087h50.087v50.087    c0,27.619-22.468,50.087-50.087,50.087h-26.478l38.283-38.283c6.521-6.516,6.521-17.092,0-23.609    c-6.521-6.521-17.087-6.521-23.609,0l-38.283,38.283V83.478z M138.457,95.282l38.282,38.283h-26.478    c-27.619,0-50.087-22.468-50.087-50.087V33.391h50.087c27.619,0,50.087,22.468,50.087,50.087v26.478l-38.283-38.283    c-6.521-6.521-17.087-6.521-23.609,0C131.935,78.19,131.935,88.766,138.457,95.282z M367.304,428.522    c0,9.223-7.479,16.696-16.696,16.696H83.478c-9.217,0-16.696-7.473-16.696-16.696V294.957c0-9.223,7.479-16.696,16.696-16.696    h267.13c9.217,0,16.696,7.473,16.696,16.696V428.522z M478.609,411.826h-44.522V311.652h44.522V411.826z"/>
	</g>
</g>
<g>
	<g>
		<rect x="166.957" y="311.652" width="33.391" height="100.174"/>
	</g>
</g>
<g>
	<g>
		<rect x="233.739" y="311.652" width="33.391" height="100.174"/>
	</g>
</g>
<g>
	<g>
		<rect x="100.174" y="311.652" width="33.391" height="100.174"/>
	</g>
</g>
<g>
	<g>
		<rect x="300.522" y="311.652" width="33.391" height="100.174"/>
	</g>
</g>
<g>
</g>
<g>
</g>
<g>
</g>
<g>
</g>
<g>
</g>
<g>
</g>
<g>
</g>
<g>
</g>
<g>
</g>
<g>
</g>
<g>
</g>
<g>
</g>
<g>
</g>
<g>
</g>
<g>
</g>
</svg>
