<?xml version="1.0" encoding="iso-8859-1"?>
<!-- Generator: Adobe Illustrator 19.0.0, SVG Export Plug-In . SVG Version: 6.00 Build 0)  -->
<svg xmlns="http://www.w3.org/2000/svg" xmlns:xlink="http://www.w3.org/1999/xlink" version="1.1" id="Layer_1" x="0px" y="0px" viewBox="0 0 512 512" style="enable-background:new 0 0 512 512;" xml:space="preserve">
<g>
	<g>
		<path d="M445.217,300.522H512v-29.864c0-17.097-5.714-33.849-14.022-46.309l-45.651-68.484    c-9.315-13.962-24.897-22.299-41.675-22.299h-43.348V94.609c0-27.619-22.468-50.087-50.087-50.087H50.087    C22.468,44.522,0,66.99,0,94.609V384c0,9.223,7.473,16.696,16.696,16.696h50.087c0,36.826,29.956,66.783,66.783,66.783    c36.826,0,66.783-29.956,66.783-66.783h111.304c0,36.826,29.956,66.783,66.783,66.783c36.826,0,66.783-29.956,66.783-66.783    h16.696c27.619,0,50.087-22.468,50.087-50.087v-16.696h-66.783c-9.223,0-16.696-7.473-16.696-16.696    C428.522,307.995,435.995,300.522,445.217,300.522z M73.739,240.473l4.669-8.091c-6.793-0.588-12.818-5.289-14.68-12.262    c-2.386-8.908,2.897-18.06,11.804-20.445l32.255-8.642c9.267-2.495,18.721,3.369,20.702,12.761l8.386,31.299    c2.386,8.908-2.897,18.06-11.804,20.445c-6.867,1.859-13.823-0.9-17.792-6.374l-4.621,8.005    c-6.677,11.553,2.206,25.874,15.527,25.006l17.832-1.152c9.174-0.549,17.146,6.38,17.74,15.587    c0.592,9.201-6.386,17.141-15.587,17.74l-17.832,1.152C80.466,318.092,53.76,275.059,73.739,240.473z M133.565,434.087    c-18.413,0-33.391-14.978-33.391-33.391c0-18.413,14.978-33.391,33.391-33.391s33.391,14.978,33.391,33.391    C166.957,419.109,151.978,434.087,133.565,434.087z M169.62,144.479l-7.918,16.017c-4.087,8.261-14.115,11.63-22.364,7.571    c-8.267-4.087-11.658-14.098-7.571-22.364l7.918-16.022c17.737-35.886,68.344-37.366,88.278-2.848l4.675,8.096    c3.911-5.588,10.981-8.464,17.95-6.585c8.908,2.386,14.19,11.538,11.804,20.445l-8.642,32.255    c-2.325,8.714-11.55,14.584-21.141,11.618l-31.56-8.455c-8.908-2.386-14.19-11.538-11.804-20.445    c1.838-6.872,7.731-11.55,14.411-12.246l-4.611-7.988C192.416,132.051,175.568,132.443,169.62,144.479z M249.261,317.217h-9.449    c2.904,6.185,1.942,13.724-3.171,18.837c-6.516,6.527-17.087,6.521-23.609,0l-23.614-23.609    c-6.629-6.629-6.641-17.73,0.706-24.313l22.909-22.909c6.521-6.521,17.087-6.521,23.609,0c5.043,5.04,6.083,12.464,3.326,18.603    h9.294c13.339,0,21.299-14.84,13.891-25.956l-9.913-14.869c-5.114-7.674-3.043-18.038,4.63-23.152    c7.679-5.12,18.038-3.049,23.152,4.63l9.913,14.869C313.104,272.595,289.21,317.217,249.261,317.217z M378.435,434.087    c-18.413,0-33.391-14.978-33.391-33.391c0-18.413,14.978-33.391,33.391-33.391c18.413,0,33.391,14.978,33.391,33.391    C411.826,419.109,396.848,434.087,378.435,434.087z M367.304,233.739v-66.783h43.348c5.592,0,10.788,2.783,13.891,7.435    l39.566,59.347H367.304z"/>
	</g>
</g>
<g>
</g>
<g>
</g>
<g>
</g>
<g>
</g>
<g>
</g>
<g>
</g>
<g>
</g>
<g>
</g>
<g>
</g>
<g>
</g>
<g>
</g>
<g>
</g>
<g>
</g>
<g>
</g>
<g>
</g>
</svg>
