<?xml version="1.0" encoding="iso-8859-1"?>
<!-- Generator: Adobe Illustrator 19.0.0, SVG Export Plug-In . SVG Version: 6.00 Build 0)  -->
<svg xmlns="http://www.w3.org/2000/svg" xmlns:xlink="http://www.w3.org/1999/xlink" version="1.1" id="Layer_1" x="0px" y="0px" viewBox="0 0 512 512" style="enable-background:new 0 0 512 512;" xml:space="preserve">
<g>
	<g>
		<path d="M134.248,439.655l-30.712-53.65c-6.418-11.216-22.639-11.209-29.021,0.076L49.39,430.493    c-25.285,32.621-1.987,80.673,39.657,80.673C128.744,511.165,150.043,467.498,134.248,439.655z M89.047,477.775    c-10.961,0-19.004-10.431-16.114-21.097c2.603-4.599,13.598-24.03,16.201-28.63l15.57,27.206    C108.747,466.14,100.664,477.775,89.047,477.775z"/>
	</g>
</g>
<g>
	<g>
		<path d="M301.201,439.655l-30.711-53.65c-2.973-5.196-8.506-8.402-14.489-8.402c-0.011,0-0.027,0-0.043,0    c-6,0.011-11.532,3.25-14.489,8.478l-25.124,44.412c-25.285,32.621-1.987,80.673,39.657,80.673    C295.697,511.165,316.997,467.498,301.201,439.655z M256.002,477.775c-10.961,0-19.004-10.431-16.114-21.097    c2.603-4.599,13.598-24.03,16.201-28.63l15.57,27.206C275.702,466.14,267.619,477.775,256.002,477.775z"/>
	</g>
</g>
<g>
	<g>
		<path d="M469.032,441.405c-0.587-1.401-30.831-54.08-31.587-55.4c-6.443-11.239-22.652-11.187-29.021,0.076l-25.13,44.412    c-25.865,33.509-1.06,80.673,39.663,80.673C458.712,511.165,483.14,474.514,469.032,441.405z M422.957,477.775    c-11.046,0-19.021-10.582-16.109-21.097c12.214-21.601-4.37,7.693,16.196-28.63l15.576,27.196    C442.664,466.286,434.47,477.775,422.957,477.775z"/>
	</g>
</g>
<g>
	<g>
		<path d="M502.803,321.821c-34.075-17.131-74.717-14.098-106.119,7.891c-24.608,17.217-56.407,17.217-81.026,0    c-36.239-25.369-83.076-25.369-119.314,0c-24.619,17.217-56.417,17.217-81.026,0c-31.413-21.989-72.081-25.011-106.113-7.903    c-8.239,4.142-11.565,14.184-7.424,22.423c4.142,8.229,14.196,11.543,22.413,7.424c23.065-11.619,50.641-9.522,71.977,5.403    c36.185,25.331,83,25.422,119.314,0c24.619-17.217,56.413-17.217,81.032,0c36.239,25.369,83.081,25.369,119.319,0    c21.326-14.912,48.912-16.999,71.966-5.413c8.261,4.174,18.283,0.815,22.413-7.413    C514.358,335.995,511.042,325.951,502.803,321.821z"/>
	</g>
</g>
<g>
	<g>
		<path d="M417.208,142.985c-10.099-25.334-41.46-34.531-63.865-17.923l-7.918,5.978L293.507,24.356    C286.469,9.846,272.1,0.835,256.002,0.835c-16.098,0-30.467,9.011-37.495,23.499l-51.928,106.705l-8.06-6.087    c-22.169-16.385-53.597-7.391-63.711,18.021L40.697,278.294c4.936-0.545,9.897-0.876,14.861-0.876    c28.32,0,55.608,8.63,78.907,24.934c13.103,9.17,29.612,9.176,42.744,0c23.407-16.392,50.657-25.065,78.793-25.065    c28.135,0,55.386,8.674,78.809,25.065c13.089,9.169,29.61,9.178,42.734,0c27.216-19.049,60.116-27.782,93.762-24.056    L417.208,142.985z"/>
	</g>
</g>
<g>
</g>
<g>
</g>
<g>
</g>
<g>
</g>
<g>
</g>
<g>
</g>
<g>
</g>
<g>
</g>
<g>
</g>
<g>
</g>
<g>
</g>
<g>
</g>
<g>
</g>
<g>
</g>
<g>
</g>
</svg>
