<?xml version="1.0" encoding="iso-8859-1"?>
<!-- Generator: Adobe Illustrator 19.0.0, SVG Export Plug-In . SVG Version: 6.00 Build 0)  -->
<svg xmlns="http://www.w3.org/2000/svg" xmlns:xlink="http://www.w3.org/1999/xlink" version="1.1" id="Layer_1" x="0px" y="0px" viewBox="0 0 512.002 512.002" style="enable-background:new 0 0 512.002 512.002;" xml:space="preserve">
<g>
	<g>
		<path d="M235.659,276.341l-35.33-35.33l-35.33,35.33c-19.473,19.479-19.473,51.183,0,70.662l18.676,18.676v-54.008    c0-9.2,7.454-16.654,16.654-16.654c9.2,0,16.765,7.454,16.765,16.654v54.008l18.565-18.676    C255.138,327.518,255.138,295.825,235.659,276.341z"/>
	</g>
</g>
<g>
	<g>
		<path d="M507.123,4.879c-6.505-6.505-17.045-6.505-23.55,0l-83.054,81.761c-6.291-2.862-13.219-4.551-20.569-4.551H238.633    c-13.347,0-25.892,5.194-35.325,14.632L14.65,285.378c-19.533,19.533-19.532,51.13,0,70.662l141.313,141.311    c19.528,19.528,51.13,19.538,70.656,0L415.28,308.695c9.439-9.433,14.632-21.978,14.632-35.325V132.054    c0-8.028-2.081-15.512-5.459-22.24l82.67-81.384C513.628,21.93,513.628,11.38,507.123,4.879z M259.211,370.553l-42.115,42.226    v48.005c0,9.2-7.565,16.654-16.765,16.654s-16.654-7.454-16.654-16.654v-48.005l-42.226-42.226    c-32.464-32.468-32.464-85.293-0.001-117.761l47.106-47.106c6.505-6.505,17.045-6.505,23.55,0l47.106,47.106    C291.679,285.26,291.679,338.085,259.211,370.553z M359.247,199.845c-13.009,13.02-34.081,13.036-47.112,0.006    c-13.01-13.01-13.019-34.081,0.006-47.106c12.986-12.986,34.118-12.988,47.106,0C372.231,165.734,372.231,186.866,359.247,199.845    z"/>
	</g>
</g>
<g>
</g>
<g>
</g>
<g>
</g>
<g>
</g>
<g>
</g>
<g>
</g>
<g>
</g>
<g>
</g>
<g>
</g>
<g>
</g>
<g>
</g>
<g>
</g>
<g>
</g>
<g>
</g>
<g>
</g>
</svg>
