<?xml version="1.0" encoding="iso-8859-1"?>
<!-- Generator: Adobe Illustrator 19.0.0, SVG Export Plug-In . SVG Version: 6.00 Build 0)  -->
<svg xmlns="http://www.w3.org/2000/svg" xmlns:xlink="http://www.w3.org/1999/xlink" version="1.1" id="Layer_1" x="0px" y="0px" viewBox="0 0 512 512" style="enable-background:new 0 0 512 512;" xml:space="preserve">
<g>
	<g>
		<path d="M415.468,273.821l-63.364-168.968c-7.288-19.446-26.131-32.505-46.897-32.505h-43.641    c-9.223,0-16.696,7.473-16.696,16.696c0,9.223,7.473,16.696,16.696,16.696h43.641c6.924,0,13.206,4.353,15.636,10.837    l33.501,89.337h-155.58l-22.605-33.391h29.754c9.223,0,16.696-7.473,16.696-16.696c0-9.223-7.473-16.696-16.696-16.696    c-41.1,0-68.104,0-110.609,0c-9.223,0-16.696,7.473-16.696,16.696c0,9.223,7.473,16.696,16.696,16.696h40.531l33.066,48.846    l-47.805,60.386c-11.321-5.747-24.077-9.058-37.619-9.058C37.446,272.696,0,310.142,0,356.174    c0,46.032,37.446,83.478,83.478,83.478c40.316,0,74.04-28.724,81.795-66.783h60.412c6.914,19.391,25.273,33.391,47.011,33.391    c27.619,0,50.087-22.468,50.087-50.087c0-11.205-3.829-21.453-10.068-29.806l60.097-71.209l11.399,30.395    c-23.483,14.789-39.167,40.875-39.167,70.62c0,46.032,37.446,83.478,83.478,83.478c46.032,0,83.478-37.446,83.478-83.478    C512,305.879,467.173,265.649,415.468,273.821z M83.478,406.262c-27.619,0-50.087-22.468-50.087-50.087    c0-27.619,22.468-50.088,50.087-50.088c5.653,0,10.999,1.148,16.072,2.883L70.386,345.81c-5.723,7.228-4.5,17.729,2.728,23.456    c7.256,5.727,17.74,4.487,23.456-2.728l29.215-36.904c4.857,7.714,7.78,16.769,7.78,26.541    C133.565,383.794,111.097,406.262,83.478,406.262z M225.685,339.477h-60.411c-2.834-13.907-9.158-26.544-17.981-37.012    l41.243-52.097l48.156,71.137C231.804,326.579,228.098,332.71,225.685,339.477z M284.758,307.722    c-9.288-2.318-12.215-1.702-17.79-1.056l-45.6-67.361H342.5L284.758,307.722z M428.522,406.26    c-27.619,0-50.087-22.468-50.087-50.087c0-15.335,7.076-28.912,17.967-38.107l16.49,43.973c3.24,8.647,12.887,13.006,21.495,9.766    c8.631-3.233,13.006-12.859,9.766-21.495l-16.549-44.13c0.313-0.006,0.604-0.094,0.918-0.094    c27.619,0,50.087,22.468,50.087,50.087C478.609,383.792,456.141,406.26,428.522,406.26z"/>
	</g>
</g>
<g>
</g>
<g>
</g>
<g>
</g>
<g>
</g>
<g>
</g>
<g>
</g>
<g>
</g>
<g>
</g>
<g>
</g>
<g>
</g>
<g>
</g>
<g>
</g>
<g>
</g>
<g>
</g>
<g>
</g>
</svg>
