<?xml version="1.0" encoding="iso-8859-1"?>
<!-- Generator: Adobe Illustrator 19.0.0, SVG Export Plug-In . SVG Version: 6.00 Build 0)  -->
<svg version="1.1" id="Layer_1" xmlns="http://www.w3.org/2000/svg" xmlns:xlink="http://www.w3.org/1999/xlink" x="0px" y="0px"
	 viewBox="0 0 511.998 511.998" style="enable-background:new 0 0 511.998 511.998;" xml:space="preserve">
<g>
	<g>
		<path d="M214.527,325.605c-20.749,0-37.571,16.82-37.571,37.571c0,20.749,16.82,37.57,37.571,37.57
			c20.749,0,37.571-16.821,37.571-37.57C252.096,342.427,235.276,325.605,214.527,325.605z M214.527,378.394
			c-8.405,0-15.219-6.814-15.219-15.219s6.813-15.219,15.219-15.219s15.219,6.814,15.219,15.219
			C229.744,371.58,222.932,378.394,214.527,378.394z"/>
	</g>
</g>
<g>
	<g>
		<path d="M424.209,325.605c-20.749,0-37.57,16.82-37.57,37.571c0,20.749,16.82,37.57,37.57,37.57
			c20.749,0,37.571-16.821,37.571-37.57S444.959,325.605,424.209,325.605z M424.209,378.394c-8.405,0-15.219-6.814-15.219-15.219
			s6.813-15.219,15.219-15.219c8.405,0,15.219,6.814,15.219,15.219S432.613,378.394,424.209,378.394z"/>
	</g>
</g>
<g>
	<g>
		<circle cx="71.075" cy="227.451" r="24.265"/>
	</g>
</g>
<g>
	<g>
		<path d="M138.263,311.666c-0.679-6.035-6.122-10.366-12.154-9.695l-45.987,5.18l-24.558-39.954l15.225,14.673l0.947-3.304
			c2.493-8.703-2.54-17.779-11.243-20.272c-23.621-6.767-48.047,8.038-52.948,32.143l-6.956,34.218
			c-3.552,17.472,9.388,34.019,27.257,34.727c2.134,0.477,2.404,0.327,15.966,0.289l-26.808,16.469
			c-6.209,3.814-8.15,11.938-4.335,18.145c3.814,6.21,11.938,8.149,18.145,4.335l66.805-41.04c5.633-3.462,7.9-10.628,5.067-16.771
			c-27.647,3.114-21.024,2.368-30.93,3.484c-8.622,0.971-16.476-4.517-18.763-12.583l-14.136-49.704l26.189,42.609
			c2.235,3.634,6.365,5.644,10.596,5.167l52.927-5.962C134.602,323.141,138.944,317.698,138.263,311.666z"/>
	</g>
</g>
<g>
	<g>
		<path d="M495.577,315.345c0-3.815,0-7.738,0-11.676h-17.859c-8.802,0-15.939-7.136-15.939-15.938s7.136-15.938,15.939-15.938
			h15.398c-5.795-16.108-21.204-27.63-39.308-27.63h-56.493l-46.965-83.867c-3.761-6.719-10.882-10.893-18.582-10.893
			c-164.268,0-152.957-0.199-156.086,0.44l-84.023-37.491c-6.369-2.842-13.839,0.018-16.682,6.388
			c-2.842,6.37,0.018,13.84,6.388,16.682l76.909,34.315l-21.433,98.294v21.761c8.145,3.36,14.261,10.931,15.317,20.306
			c1.544,13.708-8.317,26.074-22.027,27.618l-12.224,1.377c0.293,13.35,11.198,24.082,24.617,24.082h17.003
			c0-30.325,24.672-54.997,54.997-54.997c30.325,0,54.997,24.672,54.997,54.997h99.688c0-30.325,24.672-54.997,54.997-54.997
			c30.325,0,54.997,24.672,54.997,54.997c4.383,0,1.191,0,8.16,0c13.603,0,24.632-11.027,24.632-24.631
			C511.998,327.825,505.137,318.73,495.577,315.345z M234.2,244.305h-68.036l15.66-71.178H234.2V244.305z M305.004,285.582h-25.425
			c-4.813,0-8.714-3.901-8.714-8.714c0-4.813,3.901-8.714,8.714-8.714h25.425c4.813,0,8.714,3.901,8.714,8.714
			C313.717,281.681,309.816,285.582,305.004,285.582z M259.463,244.306v-71.178h70.881l39.78,71.035L259.463,244.306z"/>
	</g>
</g>
<g>
</g>
<g>
</g>
<g>
</g>
<g>
</g>
<g>
</g>
<g>
</g>
<g>
</g>
<g>
</g>
<g>
</g>
<g>
</g>
<g>
</g>
<g>
</g>
<g>
</g>
<g>
</g>
<g>
</g>
</svg>
