<?xml version="1.0" encoding="iso-8859-1"?>
<!-- Generator: Adobe Illustrator 19.0.0, SVG Export Plug-In . SVG Version: 6.00 Build 0)  -->
<svg version="1.1" id="Layer_1" xmlns="http://www.w3.org/2000/svg" xmlns:xlink="http://www.w3.org/1999/xlink" x="0px" y="0px"
	 viewBox="0 0 512 512" style="enable-background:new 0 0 512 512;" xml:space="preserve">
<g>
	<g>
		<path d="M214.498,306.18c-20.751,0-37.574,16.823-37.574,37.574s16.823,37.574,37.574,37.574
			c20.751,0,37.574-16.823,37.574-37.574C252.072,323.001,235.249,306.18,214.498,306.18z M214.498,358.973
			c-8.406,0-15.219-6.814-15.219-15.219c0-8.406,6.814-15.219,15.219-15.219c8.406,0,15.219,6.815,15.219,15.219
			C229.717,352.158,222.903,358.973,214.498,358.973z"/>
	</g>
</g>
<g>
	<g>
		<path d="M424.202,306.18c-20.751,0-37.574,16.823-37.574,37.574s16.822,37.574,37.574,37.574
			c20.752,0,37.574-16.823,37.574-37.574C461.775,323.001,444.953,306.18,424.202,306.18z M424.202,358.973
			c-8.406,0-15.219-6.814-15.219-15.219c0-8.406,6.814-15.219,15.219-15.219c8.406,0,15.219,6.815,15.219,15.219
			C439.421,352.158,432.608,358.973,424.202,358.973z"/>
	</g>
</g>
<g>
	<g>
		<path d="M75.268,325.64l-24.827-28.752l-0.055,19.668L4.041,359.877c-5.14,4.804-5.413,12.865-0.608,18.005
			c4.806,5.142,12.869,5.409,18.005,0.608l50.372-47.082c1.66-1.552,2.849-3.504,3.491-5.64L75.268,325.64z"/>
	</g>
</g>
<g>
	<g>
		<path d="M154.601,170.965c-8.943-8.237-22.861-7.653-31.088,1.279c-8.231,8.938-7.659,22.857,1.279,31.088
			c8.938,8.232,22.858,7.659,31.089-1.279C164.113,193.115,163.54,179.196,154.601,170.965z"/>
	</g>
</g>
<g>
	<g>
		<path d="M154.853,266.69l-33.974-13.934l-5.77-28.865l14.782,15.242l0.37-0.401c5.052-5.485,5.533-11.732,3.198-16.873
			c-1.638-3.606-1.729-3.18-22.961-22.733c-5.137-4.73-12.997-5.282-18.75-1.135c-0.175,0.126-1.07,1.041-2.513,2.558
			C59.249,232.057,58.144,281,86.578,313.914l3.493,4.044l13.588,54.283c1.625,6.847,8.487,11.077,15.334,9.456
			c6.846-1.623,11.079-8.489,9.456-15.334l-14.306-57.313c-0.472-1.991-1.416-3.838-2.753-5.386l-34.889-40.406l11.75,6.817
			c-1.129-2.553-2.047-5.703-1.9-8.62c0,0,4.467-50.995,4.507-51.236c0.057,1.167,3.672,20.396,9.537,51.942
			c0.702,3.501,3.106,6.397,6.382,7.741l40.019,16.432c4.973,2.041,10.494-0.002,13.102-4.31c0.016-0.026,0.028-0.052,0.043-0.077
			C163.298,276.302,160.791,269.124,154.853,266.69z"/>
	</g>
</g>
<g>
	<g>
		<path d="M495.577,295.893c0-3.807,0-7.722,0-11.653h-17.861c-8.803,0-15.94-7.136-15.94-15.94c0-8.803,7.136-15.94,15.94-15.94
			h15.401c-5.797-16.11-21.206-27.634-39.311-27.634h-56.498l-46.972-83.88c-3.763-6.717-10.883-10.89-18.581-10.89H179.839
			c-9.921,0-18.669,7.033-20.8,16.722l-1.47,6.682c9.441,5.001,16.298,13.617,19.036,23.91l5.189-23.585h52.382v71.185h-68.043
			l2.91-13.227c-6.999,8.379-17.029,13.12-27.305,13.675l-4.196,19.071l22.648,9.289c12.618,5.174,18.645,19.575,13.467,32.196
			c-5.272,12.858-19.804,18.553-32.2,13.466c-9.76-4.008-5.692-2.337-19.15-7.862c1.603,1.856,5.796,6.238,7.6,13.722l9.576,38.364
			c2.04,0.249,1.517,0.189,17.973,0.189c0-31.454,25.589-57.044,57.044-57.044c31.454,0,57.044,25.589,57.044,57.044h95.617
			c0-31.454,25.589-57.044,57.044-57.044c31.454,0,57.044,25.589,57.044,57.044h6.12c13.605,0,24.634-11.029,24.634-24.634
			C512,308.394,505.144,299.275,495.577,295.893z M304.983,267.171h-25.427c-5.377,0-9.734-4.358-9.734-9.734
			c0-5.377,4.358-9.734,9.734-9.734h25.427c5.377,0,9.735,4.358,9.735,9.734C314.719,262.813,310.36,267.171,304.983,267.171z
			 M340.629,224.871l11.049-13.789c2.803-3.496,2.238-8.602-1.257-11.403c-3.496-2.802-8.603-2.239-11.403,1.257l-19.18,23.934
			h-17.001v-9.288c0-9.768-7.918-17.686-17.686-17.686c-9.768,0-17.686,7.918-17.686,17.686v9.288h-8.025v-71.184h17.971
			c-7.006,3.005-11.916,9.961-11.916,18.068c0,10.856,8.8,19.654,19.656,19.654c10.856,0,19.656-8.8,19.656-19.654
			c0-8.106-4.909-15.062-11.916-18.068h37.437l39.783,71.041L340.629,224.871z"/>
	</g>
</g>
<g>
</g>
<g>
</g>
<g>
</g>
<g>
</g>
<g>
</g>
<g>
</g>
<g>
</g>
<g>
</g>
<g>
</g>
<g>
</g>
<g>
</g>
<g>
</g>
<g>
</g>
<g>
</g>
<g>
</g>
</svg>
