<?xml version="1.0" encoding="iso-8859-1"?>
<!-- Generator: Adobe Illustrator 19.0.0, SVG Export Plug-In . SVG Version: 6.00 Build 0)  -->
<svg version="1.1" id="Layer_1" xmlns="http://www.w3.org/2000/svg" xmlns:xlink="http://www.w3.org/1999/xlink" x="0px" y="0px"
	 viewBox="0 0 512 512" style="enable-background:new 0 0 512 512;" xml:space="preserve">
<g>
	<g>
		<path d="M425.614,147.852c-1.319-7.074-7.493-12.202-14.689-12.202H217.349c-0.358,0-0.71,0.022-1.063,0.047
			c5.423,8.991,8.576,19.493,8.633,30.71c0.376,74.923,0.313,58.527,0.313,71.574h92.208l4.042-15.756l-19.528,1.664
			c-3.724,0.317-6.723-3.043-5.964-6.719c0.373-1.749,6.631-31.267,8.753-41.281c0.173-0.814,0.682-1.516,1.402-1.933
			c0.721-0.417,1.584-0.512,2.376-0.258l14.073,4.539c0.792,0.255,1.438,0.834,1.778,1.593c0.34,0.758,0.344,1.626,0.008,2.388
			l-13.461,30.534c2.598,0.317,14.508,1.769,16.091,1.962c2.243,0.273,3.591,2.678,2.576,4.761l-9.109,18.505h102.613
			c6.855,0,13.497,0.918,19.823,2.614L425.614,147.852z M290.767,196.97l-11.983,24.343c-0.184,0.374-0.62,0.548-1.011,0.403
			c-0.39-0.144-0.609-0.561-0.505-0.964l5.396-21.034c-2.091,0.178-17.361,1.479-19.528,1.664c-3.725,0.317-6.725-3.043-5.965-6.719
			c0.372-1.749,6.631-31.267,8.753-41.281c0.173-0.814,0.681-1.516,1.402-1.933c0.719-0.417,1.584-0.512,2.376-0.258
			c6.525,2.105,5.689,1.835,14.071,4.54c0.792,0.255,1.439,0.835,1.779,1.595c0.34,0.76,0.341,1.627,0.006,2.389
			c-5.125,11.627-7.84,17.782-13.459,30.531c4.722,0.576,3.652,0.445,15.355,1.873C291.101,192.565,291.593,195.274,290.767,196.97z
			 M371.406,200.321l-4.412,15.263c-0.054,0.186-0.236,0.305-0.428,0.279c-0.192-0.026-0.336-0.19-0.338-0.384l-0.128-11.729
			l-8.931,3.23c-2.534,0.917-5.242-0.867-5.398-3.559c-0.098-1.875,0.023,0.429-1.212-22.779c-0.026-0.491,0.163-0.968,0.516-1.308
			c0.354-0.34,0.84-0.512,1.328-0.466l12.008,1.121c0.49,0.046,0.935,0.302,1.219,0.702c0.286,0.4,0.383,0.905,0.266,1.382
			l-3.798,15.57c6.109-0.335,5.808-0.318,6.878-0.376C370.602,197.177,371.863,198.714,371.406,200.321z"/>
	</g>
</g>
<g>
	<g>
		<path d="M500.284,221.65h-32.285c-6.47,0-11.716,5.246-11.716,11.716c0,5.415,0,8.891,0,14.505l-14.052,14.816
			c-5.965-2.201-12.413-3.404-19.142-3.404H225.232v29.09c0,7.244-2.073,14-5.648,19.722c8.247,4.48,13.901,13.12,14.172,23.105
			c0.007,0.249,0.019,0.497,0.019,0.747c0,14.979-12.136,27.123-27.107,27.123c-9.754,0-18.302-5.157-23.076-12.894v102.885
			c5.667,6.905,14.267,11.312,23.897,11.312c17.065,0,30.899-13.834,30.899-30.899c0-11.159,0-16.244,0-27.732h27.92v10.474
			c0,5.851,4.744,10.594,10.594,10.594h74.47c5.851,0,10.594-4.744,10.594-10.594v-10.474h27.919c0,11.509,0,16.524,0,27.732
			c0,17.065,13.834,30.899,30.899,30.899c17.065,0,30.899-13.834,30.899-30.899c0-11.159,0-16.244,0-27.732h6.021
			c11.434,0,20.703-9.269,20.703-20.703v-66.439c0-16.561-7.287-31.411-18.818-41.548l12.043-12.697c11.803,0-4.67,0,28.654,0
			c6.47,0,11.716-5.246,11.716-11.716v-15.274C512,226.896,506.754,221.65,500.284,221.65z M346.491,380.126
			c-0.607,0.117-1.232,0.183-1.874,0.183h-60.962c-0.641,0-1.267-0.066-1.874-0.183c-4.551-0.876-7.989-4.874-7.989-9.68
			c0-5.447,4.417-9.863,9.863-9.863h60.962c5.447,0,9.863,4.417,9.863,9.863C354.481,375.252,351.041,379.251,346.491,380.126z
			 M360.902,342.729H267.37c-5.447,0-9.863-4.417-9.863-9.863s4.417-9.863,9.863-9.863h93.532c5.447,0,9.863,4.417,9.863,9.863
			S366.349,342.729,360.902,342.729z M421.604,359.069c-14.97,0-27.107-12.143-27.107-27.123c0-0.251,0.012-0.499,0.019-0.748
			c0.397-14.632,12.368-26.375,27.088-26.375c14.97,0,27.107,12.143,27.107,27.123C448.711,346.819,436.661,359.069,421.604,359.069
			z"/>
	</g>
</g>
<g>
	<g>
		<path d="M204.812,166.509c-0.109-21.888-18.32-39.696-40.208-39.696h-16.763c-5.272,13.774-16.433,42.93-21.477,56.109
			l5.014-23.617c0.352-1.659,0.096-3.388-0.721-4.874l-6.885-12.521l6.121-11.132c0.911-1.657-0.29-3.693-2.184-3.693h-16.798
			c-1.892,0-3.096,2.033-2.184,3.693l6.121,11.132l-6.91,12.568c-0.802,1.458-1.063,3.151-0.739,4.783l4.383,23.661
			c-4.187-10.738-16.742-44.52-21.261-56.109c-10.3,0-13.441,2.258-39.484,13.453l13.942-29.898l2.914,5.73
			c2.494,4.903,8.49,6.862,13.4,4.366c4.905-2.495,6.861-8.495,4.365-13.4L57.674,52.427c-2.495-4.905-8.495-6.858-13.4-4.366
			c-4.905,2.495-6.861,8.495-4.366,13.4l6.586,12.951c-2.116,1.604-3.888,3.725-5.088,6.3L1.628,166.015
			c-6.52,13.982,7.716,28.703,21.917,22.622l50.887-21.796c0,0,0.008,273.44,0.008,283.233c0,11.173,9.057,20.23,20.229,20.23
			c11.173,0,20.229-9.057,20.229-20.23V288.372h8.734v161.701c0,11.173,9.057,20.23,20.229,20.23
			c15.489,0,19.996-13.52,19.955-19.788c0,0,0.01-143.36,0-283.958c0-1.949,1.488-3.528,3.436-3.529
			c1.949,0,3.633,1.579,3.633,3.528c0,0.04,0.001,0.08,0,0.122c0.385,76.451,0,48.682,0,121.695
			c0.001,9.31,7.757,16.858,17.067,16.858c9.311,0,16.859-7.548,16.859-16.859C204.812,215.267,205.197,243.059,204.812,166.509z"/>
	</g>
</g>
<g>
	<g>
		<path d="M119.494,41.697c-19.297,0-34.94,15.643-34.94,34.94c0,19.305,15.656,34.94,34.94,34.94
			c19.244,0,34.94-15.606,34.94-34.94C154.434,57.339,138.791,41.697,119.494,41.697z"/>
	</g>
</g>
<g>
</g>
<g>
</g>
<g>
</g>
<g>
</g>
<g>
</g>
<g>
</g>
<g>
</g>
<g>
</g>
<g>
</g>
<g>
</g>
<g>
</g>
<g>
</g>
<g>
</g>
<g>
</g>
<g>
</g>
</svg>
