<?xml version="1.0" encoding="iso-8859-1"?>
<!-- Generator: Adobe Illustrator 19.0.0, SVG Export Plug-In . SVG Version: 6.00 Build 0)  -->
<svg version="1.1" id="Layer_1" xmlns="http://www.w3.org/2000/svg" xmlns:xlink="http://www.w3.org/1999/xlink" x="0px" y="0px"
	 viewBox="0 0 511.997 511.997" style="enable-background:new 0 0 511.997 511.997;" xml:space="preserve">
<g>
	<g>
		<path d="M145.392,213.492L91.046,188.25l-14.865-45.486l20.403,27.81l13.882,6.448l4.025-23.753
			c2.241-13.23-6.665-25.772-19.895-28.014l-43.866-7.433c-13.23-2.241-25.772,6.665-28.014,19.895
			C22.302,140.161,0.21,270.41,0.011,271.581v0.036c-0.028,1.602,0.006,180.128,0,182.236c-0.03,11.601,9.099,21.029,20.7,21.06
			c0.019,0,0.036,0,0.055,0c11.576,0,20.975-9.369,21.005-20.951l0.451-175.23l8.531,1.444l0.012,173.731
			c0.001,11.601,9.406,21.005,21.006,21.004c11.601-0.001,21.006-9.406,21.005-21.007l-0.012-172.437l4.877-28.781
			c-16.366-7.601-27.218-12.641-45.242-21.013c-7.394-3.435-11.739-10.776-11.742-18.425l0.07-58.896l17.385,53.191
			c1.607,4.915,5.181,8.941,9.871,11.12l61.697,28.656c9.343,4.34,20.431,0.282,24.77-9.057
			C158.788,228.92,154.733,217.83,145.392,213.492z"/>
	</g>
</g>
<g>
	<g>
		<circle cx="109.335" cy="73.062" r="35.977"/>
	</g>
</g>
<g>
	<g>
		<path d="M499.785,237.886h-30.896c-6.745,0-12.212,5.467-12.212,12.212v13.822l-2.396,2.526l-17.557-94.122
			c-1.146-6.145-6.509-10.599-12.759-10.599H207.119c-6.25,0-11.613,4.455-12.759,10.599l-16.089,86.251l-12.268-3.448l-0.501-0.48
			c-10.279,11.867-27.356,16.217-42.413,9.822l-4.625,4.832c-4.663,4.874-4.493,12.604,0.381,17.266l10.117,9.681
			c4.872,4.663,12.604,4.493,17.266-0.38l19.573-20.455l8.864,2.492l-2.1,11.254c-12.314,10.574-20.124,26.246-20.124,43.75v62.203
			c0,11.918,9.661,21.581,21.58,21.581h4.953v27.535c0,16.944,13.736,30.68,30.678,30.68c16.944,0,30.68-13.736,30.68-30.68v-27.535
			h27.72v10.399c0,5.809,4.71,10.519,10.519,10.519h73.941c5.809,0,10.519-4.71,10.519-10.519v-10.399h27.72v27.535
			c0,16.944,13.735,30.68,30.678,30.68c16.944,0,30.68-13.736,30.68-30.68v-27.535h4.953c11.918,0,21.58-9.661,21.58-21.581v-62.203
			c0-17.188-7.529-32.61-19.459-43.174l12.732-13.424h27.87c6.745,0,12.212-5.467,12.212-12.212v-14.002
			C511.997,243.354,506.529,237.886,499.785,237.886z M208.839,374.327c-14.864,0-26.913-12.057-26.913-26.93
			c0-14.873,12.05-26.93,26.913-26.93c14.864,0,26.913,12.057,26.913,26.93C235.752,362.27,223.702,374.327,208.839,374.327z
			 M345.806,395.416h-60.53c-5.408,0-9.793-4.385-9.793-9.793s4.385-9.793,9.793-9.793h60.53c5.408,0,9.793,4.385,9.793,9.793
			S351.215,395.416,345.806,395.416z M361.974,358.103h-92.866c-5.408,0-9.793-4.385-9.793-9.793c0-5.408,4.385-9.793,9.793-9.793
			h92.866c5.408,0,9.793,4.385,9.793,9.793C371.767,353.718,367.383,358.103,361.974,358.103z M346.685,274.075
			c1.965-9.737,10.584-17.092,20.892-17.092c10.308,0,18.926,7.355,20.892,17.092H346.685z M367.577,235.35
			c-22.256,0-40.61,17.019-42.739,38.725H201.785l16.116-86.392h72.204c-1.458,2.23-1.793,4.242-1.793,6.674
			c0,6.08,4.929,11.01,11.01,11.01h32.44c6.08,0,11.01-4.929,11.01-11.01c0-2.263-0.261-4.331-1.793-6.674h72.204l16.116,86.392
			h-18.982C408.187,252.369,389.833,235.35,367.577,235.35z M422.244,374.327c-14.864,0-26.913-12.057-26.913-26.93
			c0-14.873,12.05-26.93,26.913-26.93c14.864,0,26.913,12.057,26.913,26.93C449.158,362.27,437.108,374.327,422.244,374.327z"/>
	</g>
</g>
<g>
</g>
<g>
</g>
<g>
</g>
<g>
</g>
<g>
</g>
<g>
</g>
<g>
</g>
<g>
</g>
<g>
</g>
<g>
</g>
<g>
</g>
<g>
</g>
<g>
</g>
<g>
</g>
<g>
</g>
</svg>
