<?xml version="1.0" encoding="iso-8859-1"?>
<!-- Generator: Adobe Illustrator 19.0.0, SVG Export Plug-In . SVG Version: 6.00 Build 0)  -->
<svg version="1.1" id="Layer_1" xmlns="http://www.w3.org/2000/svg" xmlns:xlink="http://www.w3.org/1999/xlink" x="0px" y="0px"
	 viewBox="0 0 512.001 512.001" style="enable-background:new 0 0 512.001 512.001;" xml:space="preserve">
<g>
	<g>
		<path d="M158.961,301.511c-19.882,0-35.999,16.117-35.999,35.999c0,19.882,16.117,35.999,35.999,35.999
			c19.882,0,35.999-16.117,35.999-35.999C194.958,317.629,178.842,301.511,158.961,301.511z M158.961,352.091
			c-8.053,0-14.582-6.529-14.582-14.582s6.529-14.582,14.582-14.582c8.053,0,14.582,6.529,14.582,14.582
			S167.014,352.091,158.961,352.091z"/>
	</g>
</g>
<g>
	<g>
		<path d="M229.612,235.44h46.922c-2.039-6.439-1.497-13.093,1.02-18.792h-47.942c-18.147,0-33.789,10.883-40.775,26.458h-45.108
			l51.358-55.051c4.56-4.886,4.294-12.546-0.594-17.106c-4.888-4.559-12.546-4.295-17.107,0.594L124.625,228.1l-36.565-65.294
			c-3.604-6.438-10.426-10.436-17.804-10.436h-59.33C4.647,152.369,0,157.459,0,163.736V337.51c10.375,0,98.304,0,108.323,0
			c0-27.849,22.657-50.505,50.507-50.505s50.507,22.657,50.507,50.505c5.174,0,7.479,0,10.009,0
			c13.034,0,23.601-10.567,23.601-23.601c0-10.276-6.569-19.012-15.734-22.253v-11.321c0-14.149-7.894-26.454-19.518-32.753
			C212.277,240.296,220.386,235.44,229.612,235.44z M44.182,282.507H19.821c-5.151,0-9.327-4.175-9.327-9.327
			c0-5.151,4.175-9.326,9.327-9.326h24.361c5.151,0,9.327,4.175,9.327,9.326C53.509,278.33,49.333,282.507,44.182,282.507z
			 M22.292,243.107v-68.004h46.6l38.082,68.004H22.292z"/>
	</g>
</g>
<g>
	<g>
		<path d="M343.212,255.448l-46.523-1.965c-7.058,6.774-11.457,16.297-11.457,26.852v11.321
			c-9.165,3.24-15.734,11.977-15.734,22.253c0,13.034,10.567,23.601,23.601,23.601h26.249l6.429-25.755
			c1.126-4.671,3.378-9.059,6.522-12.703l16.529-19.144C348.494,279.075,343.212,255.448,343.212,255.448z"/>
	</g>
</g>
<g>
	<g>
		<path d="M428.448,375.912l-17.907-50.56l-0.067-24.121l-26.641,30.851c0.025,0.074,0.042,0.151,0.069,0.223l18.687,52.764
			c2.527,7.138,10.362,10.879,17.508,8.351C427.239,390.891,430.977,383.052,428.448,375.912z"/>
	</g>
</g>
<g>
	<g>
		<path d="M389.15,136.332c-2.806-12.778-15.441-20.864-28.22-18.057c-12.779,2.806-20.864,15.441-18.057,28.22
			c2.797,12.74,15.424,20.868,28.22,18.057C383.886,161.742,391.949,149.074,389.15,136.332z"/>
	</g>
</g>
<g>
	<g>
		<path d="M421.513,251.474l-15.775-70.883c-1.641-7.476-8.264-12.574-15.615-12.574c-2.367,0-0.801-0.205-31.322,6.499
			c-8.633,1.896-14.094,10.431-12.198,19.063l0.026,0.117l0.537,4.161l22.278-17.976c-1.406,0.793-27.7,37.535-27.7,37.535
			l-39.515-1.391c-6.245-0.212-11.593,4.674-11.824,11.006c0,0.004-0.001,0.01-0.001,0.016c-0.221,6.275,4.673,11.596,11.021,11.826
			l46.554,1.621c3.7,0.131,7.453-1.635,9.694-4.767l33.322-49.236c0,0-19.511,55.905-21.041,58.039
			c-2.671,3.726-6.239,6.637-10.287,8.542c3.479,15.839,1.943,8.843,4.547,20.704l25.546-18.102l-44.912,54.213
			c-1.438,1.667-2.456,3.657-2.965,5.8l-15.404,61.711c-1.747,7.371,2.81,14.763,10.182,16.512
			c7.354,1.744,14.759-2.793,16.512-10.182l14.631-58.449l50.181-59.448C421.336,261.859,422.642,256.548,421.513,251.474z"/>
	</g>
</g>
<g>
	<g>
		<path d="M501.517,152.368h-59.332c-7.379,0-14.201,3.999-17.804,10.435l-4.498,8.033c0.878,1.967,1.573,4.038,2.048,6.2
			l5.786,26.341l15.833-28.275h46.6v68.004h-53.544l1.622,7.111c1.968,8.629-0.184,17.682-5.825,24.502l-5.533,6.69l0.244,41.07
			l5.324,15.03h79.562V163.735C512,157.458,507.794,152.368,501.517,152.368z M492.62,282.507H468.26
			c-5.151,0-9.327-4.175-9.327-9.327c0-5.151,4.175-9.326,9.327-9.326h24.361c5.151,0,9.327,4.175,9.327,9.326
			C501.946,278.33,497.771,282.507,492.62,282.507z"/>
	</g>
</g>
<g>
</g>
<g>
</g>
<g>
</g>
<g>
</g>
<g>
</g>
<g>
</g>
<g>
</g>
<g>
</g>
<g>
</g>
<g>
</g>
<g>
</g>
<g>
</g>
<g>
</g>
<g>
</g>
<g>
</g>
</svg>
