<?xml version="1.0" encoding="iso-8859-1"?>
<!-- Generator: Adobe Illustrator 16.0.0, SVG Export Plug-In . SVG Version: 6.00 Build 0)  -->
<!DOCTYPE svg PUBLIC "-//W3C//DTD SVG 1.1//EN" "http://www.w3.org/Graphics/SVG/1.1/DTD/svg11.dtd">
<svg version="1.1" id="Capa_1" xmlns="http://www.w3.org/2000/svg" xmlns:xlink="http://www.w3.org/1999/xlink" x="0px" y="0px"
	 width="41.801px" height="41.801px" viewBox="0 0 41.801 41.801" style="enable-background:new 0 0 41.801 41.801;"
	 xml:space="preserve">
<g>
	<path d="M20.004,31.548c1.397,0.197,2.708,0.388,3.943,0.71c-0.242,0.297-0.502,0.583-0.776,0.854
		c-6.271,6.197-14.298,2.48-14.298,2.48s-9.597-2.903-7.736-10.019C2.624,19.892,6.226,15.299,0,7.714c0,0,5.129,0.579,10.794,1.295
		c-1.717,3.231-2.025,6.298-2.073,7.032c-0.763,4.485-0.147,13.199,7.581,14.887C17.565,31.204,18.806,31.378,20.004,31.548z
		 M34.609,4.97c0,0-7.756-3.754-14.237-1.603c-1.114,0.37-2.1,0.836-2.972,1.37c-2.056,1.26-3.475,2.9-4.463,4.545
		c-2.088,3.48-2.226,6.986-2.226,6.986S8.749,27.23,16.73,28.973c2.866,0.626,5.727,0.725,8.408,1.543
		c3.282,1.002,6.293,3.087,8.699,8.583c0,0,4.603-12.278,7.31-20.35C44.373,9.125,34.609,4.97,34.609,4.97z"/>
</g>
<g>
</g>
<g>
</g>
<g>
</g>
<g>
</g>
<g>
</g>
<g>
</g>
<g>
</g>
<g>
</g>
<g>
</g>
<g>
</g>
<g>
</g>
<g>
</g>
<g>
</g>
<g>
</g>
<g>
</g>
</svg>
