<?xml version="1.0" encoding="iso-8859-1"?>
<!-- Generator: Adobe Illustrator 18.1.1, SVG Export Plug-In . SVG Version: 6.00 Build 0)  -->
<svg version="1.1" id="Capa_1" xmlns="http://www.w3.org/2000/svg" xmlns:xlink="http://www.w3.org/1999/xlink" x="0px" y="0px"
	 viewBox="0 0 40.356 40.356" style="enable-background:new 0 0 40.356 40.356;" xml:space="preserve">
<g>
	<path style="fill:#010002;" d="M32.268,4.061c-5.307-3.215-11.985-3.938-17.967-2.522C8.943,2.808,3.727,6.154,1.31,11.239
		c-1.141,2.401-1.553,5.069-1.171,7.7c0.378,2.601,1.562,4.961,3.206,6.99c3.152,3.891,8.078,6.172,12.949,6.925
		c0.711,0.11,1.426,0.189,2.143,0.243c0.319,0.024,0.639,0.038,0.959,0.049c0.319,0.011,0.74-0.066,1.045,0.024
		c1.544,0.457,3.06,1.023,4.538,1.66c2.863,1.235,5.634,2.74,8.185,4.536c0.423,0.298,1.142,0.101,1.368-0.359
		c1.163-2.365,1.715-5.067,2.27-7.626c0.479-2.211,0.964-4.481,1.154-6.744c1.513-2.272,2.375-4.896,2.4-7.635
		C40.321,11.483,36.855,6.84,32.268,4.061z M35.934,24.884c-0.042,0.378-0.049,0.404-0.096,0.729
		c-0.113,0.78-0.247,1.557-0.388,2.333c-0.34,1.868-0.736,3.727-1.2,5.569c-0.287,1.144-0.614,2.403-1.028,3.501
		c-2.674-1.769-5.543-3.235-8.509-4.45c-0.823-0.337-1.657-0.644-2.499-0.931c-0.411-0.14-0.826-0.269-1.242-0.395
		c-0.45-0.136-0.918-0.081-1.383-0.09c-1.544-0.03-3.074-0.229-4.579-0.572c-5.101-1.165-10.244-4.367-12.227-9.414
		c-0.903-2.299-1.03-4.807-0.379-7.186c0.663-2.423,2.151-4.519,3.984-6.202c4.369-4.012,10.69-5.397,16.464-4.782
		c7.298,0.777,15.452,5.912,15.503,14.009c0,0.001,0.001,0.002,0.001,0.004c-0.012,1.256-0.221,2.46-0.616,3.653
		c-0.192,0.583-0.447,1.137-0.73,1.681c-0.281,0.54-0.825,1.104-0.985,1.685C35.952,24.291,35.964,24.61,35.934,24.884z"/>
</g>
<g>
</g>
<g>
</g>
<g>
</g>
<g>
</g>
<g>
</g>
<g>
</g>
<g>
</g>
<g>
</g>
<g>
</g>
<g>
</g>
<g>
</g>
<g>
</g>
<g>
</g>
<g>
</g>
<g>
</g>
</svg>
