<?xml version="1.0" encoding="iso-8859-1"?>
<!-- Generator: Adobe Illustrator 18.1.1, SVG Export Plug-In . SVG Version: 6.00 Build 0)  -->
<svg version="1.1" id="Capa_1" xmlns="http://www.w3.org/2000/svg" xmlns:xlink="http://www.w3.org/1999/xlink" x="0px" y="0px"
	 viewBox="0 0 29.338 29.338" style="enable-background:new 0 0 29.338 29.338;" xml:space="preserve">
<g>
	<path style="fill:#010002;" d="M27.183,1.607H2.155c-0.577,0-1.118,0.225-1.526,0.632C0.223,2.647-0.001,3.188,0,3.763v17.572
		c0,1.188,0.965,2.154,2.155,2.154h13.544l5.056,3.777c0.414,0.31,0.84,0.466,1.265,0.466c0.79,0,1.64-0.602,1.64-1.922v-2.322
		h3.523c1.188,0,2.155-0.967,2.155-2.154V3.762C29.338,2.574,28.371,1.607,27.183,1.607z M27.338,21.333
		c0,0.087-0.068,0.154-0.155,0.154H21.66v3.957l-5.296-3.956h-0.332H2.151C2.068,21.489,2,21.42,2,21.335V3.761
		c0-0.053,0.024-0.088,0.045-0.109c0.02-0.021,0.056-0.045,0.11-0.045h25.028c0.086,0,0.155,0.069,0.155,0.155
		C27.338,3.762,27.338,21.333,27.338,21.333z M3.782,5.247h21.917v14.5h-5.563v2.334l-3.369-2.334H3.782V5.247z"/>
</g>
<g>
</g>
<g>
</g>
<g>
</g>
<g>
</g>
<g>
</g>
<g>
</g>
<g>
</g>
<g>
</g>
<g>
</g>
<g>
</g>
<g>
</g>
<g>
</g>
<g>
</g>
<g>
</g>
<g>
</g>
</svg>
