<?xml version="1.0" encoding="iso-8859-1"?>
<!-- Generator: Adobe Illustrator 18.1.1, SVG Export Plug-In . SVG Version: 6.00 Build 0)  -->
<svg version="1.1" id="Capa_1" xmlns="http://www.w3.org/2000/svg" xmlns:xlink="http://www.w3.org/1999/xlink" x="0px" y="0px"
	 viewBox="0 0 29.166 29.166" style="enable-background:new 0 0 29.166 29.166;" xml:space="preserve">
<g>
	<path style="fill:#010002;" d="M5.156,9.657h3.742v3.742H5.156V9.657z M11.201,13.399h3.742V9.657h-3.742V13.399z M17.246,13.399
		h3.742V9.657h-3.742V13.399z M29.029,25.021c0.013,0.047,0.039,0.094,0.039,0.141c0,1.471-6.508,2.662-14.533,2.662
		C6.508,27.824,0,26.632,0,25.161C0,23.694,6.508,22.5,14.535,22.5c2.113,0,4.115,0.084,5.927,0.233
		c-1.096-0.714-1.927-1.492-2.506-2.166c-1.572,0.491-3.221,0.74-4.914,0.74C5.852,21.307,0,16.83,0,11.325s5.85-9.982,13.041-9.982
		s13.043,4.478,13.043,9.982c0,1.652-0.539,3.279-1.559,4.732c0.324,1.599,1.332,4.594,3.396,7.328l1.245,1.646L29.029,25.021z
		 M25.231,22.725c-1.631-2.721-2.406-5.409-2.619-6.75l-0.064-0.398l0.246-0.319c0.932-1.207,1.422-2.568,1.422-3.934
		c0-4.475-5.012-8.116-11.174-8.116S1.867,6.849,1.867,11.325s5.012,8.116,11.174,8.116c1.705,0,3.361-0.283,4.916-0.843
		l0.647-0.232l0.414,0.548C19.905,20.084,21.803,21.965,25.231,22.725z"/>
</g>
<g>
</g>
<g>
</g>
<g>
</g>
<g>
</g>
<g>
</g>
<g>
</g>
<g>
</g>
<g>
</g>
<g>
</g>
<g>
</g>
<g>
</g>
<g>
</g>
<g>
</g>
<g>
</g>
<g>
</g>
</svg>
