<?xml version="1.0" encoding="iso-8859-1"?>
<!-- Generator: Adobe Illustrator 19.0.0, SVG Export Plug-In . SVG Version: 6.00 Build 0)  -->
<svg version="1.1" id="Layer_1" xmlns="http://www.w3.org/2000/svg" xmlns:xlink="http://www.w3.org/1999/xlink" x="0px" y="0px"
	 viewBox="0 0 512 512" style="enable-background:new 0 0 512 512;" xml:space="preserve">
<g>
	<g>
		<g>
			<path d="M304.576,213.325h-97.152c-3.733,6.421-9.024,11.691-15.424,15.424v97.173c6.4,3.712,11.691,9.003,15.424,15.403h97.152
				c3.733-6.4,9.024-11.691,15.424-15.403v-97.173C313.6,225.015,308.309,219.746,304.576,213.325z"/>
			<path d="M348.821,0H42.667v512h426.667V96.427L348.821,0z M384,362.667c0,23.573-19.093,42.667-42.667,42.667
				c-15.744,0-29.355-8.64-36.757-21.333h-97.152c-7.403,12.693-21.013,21.333-36.757,21.333c-23.573,0-42.667-19.093-42.667-42.667
				c0-15.744,8.64-29.355,21.333-36.757v-97.152C136.64,221.355,128,207.744,128,192c0-23.573,19.093-42.667,42.667-42.667
				c15.744,0,29.355,8.64,36.757,21.333h97.152c7.403-12.693,21.013-21.333,36.757-21.333C364.907,149.333,384,168.427,384,192
				c0,15.744-8.64,29.355-21.333,36.757v97.152C375.36,333.312,384,346.923,384,362.667z"/>
		</g>
	</g>
</g>
<g>
</g>
<g>
</g>
<g>
</g>
<g>
</g>
<g>
</g>
<g>
</g>
<g>
</g>
<g>
</g>
<g>
</g>
<g>
</g>
<g>
</g>
<g>
</g>
<g>
</g>
<g>
</g>
<g>
</g>
</svg>
