<?xml version="1.0" encoding="iso-8859-1"?>
<!-- Generator: Adobe Illustrator 19.0.0, SVG Export Plug-In . SVG Version: 6.00 Build 0)  -->
<svg version="1.1" id="Layer_1" xmlns="http://www.w3.org/2000/svg" xmlns:xlink="http://www.w3.org/1999/xlink" x="0px" y="0px"
	 viewBox="0 0 512 512" style="enable-background:new 0 0 512 512;" xml:space="preserve">
<g>
	<g>
		<g>
			<path d="M449.493,44.181h-38.677c-11.456-12.971-28.011-21.333-46.656-21.333h-37.419C315.264,9.024,298.176,0,278.827,0H256
				v277.333c0,8.619-5.184,16.405-13.163,19.712c-2.645,1.088-5.419,1.621-8.171,1.621c-5.547,0-11.008-2.155-15.083-6.251
				l-48.917-48.917l-48.917,48.917c-6.101,6.123-15.275,7.936-23.253,4.629c-7.979-3.307-13.163-11.093-13.163-19.712V0H62.485
				C28.011,0,0,28.032,0,62.485v387.029C0,483.968,28.032,512,62.507,512h216.341c18.645,0,35.2-8.363,46.656-21.333h38.656
				c18.645,0,35.2-8.363,46.656-21.333h38.677c34.475,0,62.507-28.032,62.507-62.485V106.667
				C512,72.213,483.968,44.181,449.493,44.181z M384,428.181c0,2.197-0.597,4.203-1.259,6.187c-0.32,0.917-0.661,1.856-1.152,2.773
				C378.304,443.499,371.84,448,364.16,448h-22.827V65.515h22.827c7.68,0,14.144,4.501,17.429,10.88
				c0.491,0.917,0.832,1.835,1.152,2.752c0.661,1.984,1.259,3.989,1.259,6.187V428.181z M469.333,406.848
				c0,10.923-8.896,19.819-19.84,19.819h-22.827V86.848h22.827c10.944,0,19.84,8.896,19.84,19.819V406.848z"/>
			<path d="M185.749,198.255l27.584,27.584V0.004H128v225.835l27.584-27.584C163.925,189.914,177.408,189.914,185.749,198.255z"/>
		</g>
	</g>
</g>
<g>
</g>
<g>
</g>
<g>
</g>
<g>
</g>
<g>
</g>
<g>
</g>
<g>
</g>
<g>
</g>
<g>
</g>
<g>
</g>
<g>
</g>
<g>
</g>
<g>
</g>
<g>
</g>
<g>
</g>
</svg>
