<?xml version="1.0" encoding="iso-8859-1"?>
<!-- Generator: Adobe Illustrator 19.0.0, SVG Export Plug-In . SVG Version: 6.00 Build 0)  -->
<svg version="1.1" id="Layer_1" xmlns="http://www.w3.org/2000/svg" xmlns:xlink="http://www.w3.org/1999/xlink" x="0px" y="0px"
	 viewBox="0 0 512 512" style="enable-background:new 0 0 512 512;" xml:space="preserve">
<g>
	<g>
		<g>
			<path d="M403.499,0H117.333v426.667h384V97.835L403.499,0z M224,106.667h106.667c11.776,0,21.333,9.557,21.333,21.333
				s-9.557,21.333-21.333,21.333H224c-11.776,0-21.333-9.557-21.333-21.333S212.224,106.667,224,106.667z M394.667,320H224
				c-11.776,0-21.333-9.557-21.333-21.333s9.557-21.333,21.333-21.333h170.667c11.776,0,21.333,9.557,21.333,21.333
				S406.443,320,394.667,320z M394.667,234.667H224c-11.776,0-21.333-9.557-21.333-21.333S212.224,192,224,192h170.667
				c11.776,0,21.333,9.557,21.333,21.333S406.443,234.667,394.667,234.667z"/>
			<polygon points="74.667,85.333 10.667,85.333 10.667,512 373.333,512 373.333,469.333 74.667,469.333 			"/>
		</g>
	</g>
</g>
<g>
</g>
<g>
</g>
<g>
</g>
<g>
</g>
<g>
</g>
<g>
</g>
<g>
</g>
<g>
</g>
<g>
</g>
<g>
</g>
<g>
</g>
<g>
</g>
<g>
</g>
<g>
</g>
<g>
</g>
</svg>
