<?xml version="1.0" encoding="iso-8859-1"?>
<!-- Generator: Adobe Illustrator 19.0.0, SVG Export Plug-In . SVG Version: 6.00 Build 0)  -->
<svg version="1.1" id="Layer_1" xmlns="http://www.w3.org/2000/svg" xmlns:xlink="http://www.w3.org/1999/xlink" x="0px" y="0px"
	 viewBox="0 0 512 512" style="enable-background:new 0 0 512 512;" xml:space="preserve">
<g>
	<g>
		<g>
			<path d="M213.333,256V85.333c0-5.653-2.24-11.093-6.251-15.083l-64-64C139.093,2.24,133.675,0,128,0H21.333
				C9.536,0,0,9.557,0,21.333V256c0,11.776,9.536,21.333,21.333,21.333H192C203.797,277.333,213.333,267.776,213.333,256z"/>
			<path d="M505.749,304.917l-64-64c-4.011-4.011-9.408-6.251-15.083-6.251H320c-11.797,0-21.333,9.557-21.333,21.333v234.667
				c0,11.776,9.536,21.333,21.333,21.333h170.667c11.797,0,21.333-9.557,21.333-21.333V320
				C512,314.347,509.739,308.907,505.749,304.917z"/>
			<path d="M341.325,149.327c5.461,0,10.923-2.069,15.083-6.251c8.341-8.32,8.341-21.824,0-30.165l-6.251-6.251h97.835
				c11.797,0,21.333-9.536,21.333-21.333c0-11.776-9.536-21.333-21.333-21.333h-97.835l6.251-6.251
				c8.341-8.32,8.341-21.824,0-30.165c-8.32-8.32-21.824-8.32-30.165,0l-42.645,42.667c-1.984,1.963-3.541,4.331-4.629,6.933
				c-2.155,5.227-2.155,11.093,0,16.299c1.088,2.624,2.645,4.992,4.629,6.955l42.645,42.645
				C330.423,147.258,335.885,149.327,341.325,149.327z"/>
			<path d="M228.395,390.232l-42.645-42.645c-8.341-8.341-21.824-8.341-30.165,0c-8.341,8.32-8.341,21.824,0,30.165l6.251,6.251H64
				c-11.797,0-21.333,9.557-21.333,21.333S52.203,426.669,64,426.669h97.835l-6.251,6.251c-8.341,8.32-8.341,21.824,0,30.165
				c4.16,4.16,9.621,6.251,15.083,6.251c5.461,0,10.923-2.091,15.083-6.251l42.645-42.645c1.984-1.984,3.541-4.331,4.629-6.955
				c2.155-5.205,2.155-11.093,0-16.299C231.936,394.562,230.379,392.215,228.395,390.232z"/>
		</g>
	</g>
</g>
<g>
</g>
<g>
</g>
<g>
</g>
<g>
</g>
<g>
</g>
<g>
</g>
<g>
</g>
<g>
</g>
<g>
</g>
<g>
</g>
<g>
</g>
<g>
</g>
<g>
</g>
<g>
</g>
<g>
</g>
</svg>
