<?xml version="1.0" encoding="iso-8859-1"?>
<!-- Generator: Adobe Illustrator 19.0.0, SVG Export Plug-In . SVG Version: 6.00 Build 0)  -->
<svg version="1.1" id="Layer_1" xmlns="http://www.w3.org/2000/svg" xmlns:xlink="http://www.w3.org/1999/xlink" x="0px" y="0px"
	 viewBox="0 0 511.999 511.999" style="enable-background:new 0 0 511.999 511.999;" xml:space="preserve">
<g>
	<g>
		<path d="M422.72,42.667h-60.053V32.491c0-17.92-14.571-32.491-32.47-32.491H181.802c-17.899,0-32.469,14.571-32.469,32.491v10.176
			H89.28c-25.707,0-46.613,20.907-46.613,46.613v248.107C42.666,363.093,63.573,384,89.28,384h145.387v42.667H128
			c-11.797,0-21.333,9.557-21.333,21.333s9.536,21.333,21.333,21.333h106.667v21.333c0,11.776,9.536,21.333,21.333,21.333
			s21.333-9.557,21.333-21.333v-21.333H384c11.797,0,21.333-9.557,21.333-21.333s-9.536-21.333-21.333-21.333H277.333V384H422.72
			c25.685,0,46.613-20.907,46.613-46.613V89.28C469.333,63.573,448.405,42.667,422.72,42.667z M192,42.667h128v42.667H192V42.667z
			 M313.749,228.416c-4.16,4.16-9.621,6.251-15.083,6.251c-5.461,0-10.923-2.091-15.083-6.251l-6.251-6.251v76.501
			c0,11.776-9.536,21.333-21.333,21.333s-21.333-9.557-21.333-21.333v-76.501l-6.251,6.251c-4.16,4.16-9.621,6.251-15.083,6.251
			c-5.461,0-10.923-2.091-15.083-6.251c-8.341-8.341-8.341-21.824,0-30.165l42.645-42.645c1.963-1.984,4.331-3.541,6.955-4.629
			c5.205-2.155,11.093-2.155,16.299,0c2.624,1.088,4.992,2.645,6.955,4.629l42.645,42.645
			C322.091,206.592,322.091,220.075,313.749,228.416z"/>
	</g>
</g>
<g>
</g>
<g>
</g>
<g>
</g>
<g>
</g>
<g>
</g>
<g>
</g>
<g>
</g>
<g>
</g>
<g>
</g>
<g>
</g>
<g>
</g>
<g>
</g>
<g>
</g>
<g>
</g>
<g>
</g>
</svg>
