<?xml version="1.0" encoding="iso-8859-1"?>
<!-- Generator: Adobe Illustrator 19.0.0, SVG Export Plug-In . SVG Version: 6.00 Build 0)  -->
<svg version="1.1" id="Layer_1" xmlns="http://www.w3.org/2000/svg" xmlns:xlink="http://www.w3.org/1999/xlink" x="0px" y="0px"
	 viewBox="0 0 512 512" style="enable-background:new 0 0 512 512;" xml:space="preserve">
<g>
	<g>
		<path d="M350.165,0H64v512h384V97.835L350.165,0z M170.667,106.667h106.667c11.776,0,21.333,9.557,21.333,21.333
			s-9.557,21.333-21.333,21.333H170.667c-11.776,0-21.333-9.557-21.333-21.333S158.891,106.667,170.667,106.667z M341.333,405.333
			H170.667c-11.776,0-21.333-9.557-21.333-21.333s9.557-21.333,21.333-21.333h170.667c11.776,0,21.333,9.557,21.333,21.333
			S353.109,405.333,341.333,405.333z M341.333,320H170.667c-11.776,0-21.333-9.557-21.333-21.333s9.557-21.333,21.333-21.333
			h170.667c11.776,0,21.333,9.557,21.333,21.333S353.109,320,341.333,320z M341.333,234.667H170.667
			c-11.776,0-21.333-9.557-21.333-21.333S158.891,192,170.667,192h170.667c11.776,0,21.333,9.557,21.333,21.333
			S353.109,234.667,341.333,234.667z"/>
	</g>
</g>
<g>
</g>
<g>
</g>
<g>
</g>
<g>
</g>
<g>
</g>
<g>
</g>
<g>
</g>
<g>
</g>
<g>
</g>
<g>
</g>
<g>
</g>
<g>
</g>
<g>
</g>
<g>
</g>
<g>
</g>
</svg>
