<?xml version="1.0" encoding="iso-8859-1"?>
<!-- Generator: Adobe Illustrator 19.0.0, SVG Export Plug-In . SVG Version: 6.00 Build 0)  -->
<svg version="1.1" id="Layer_1" xmlns="http://www.w3.org/2000/svg" xmlns:xlink="http://www.w3.org/1999/xlink" x="0px" y="0px"
	 viewBox="0 0 512 512" style="enable-background:new 0 0 512 512;" xml:space="preserve">
<g>
	<g>
		<path d="M350.165,0H64v512h384V97.835L350.165,0z M170.667,277.333h42.667c11.776,0,21.333,9.557,21.333,21.333
			S225.109,320,213.333,320h-42.667c-11.776,0-21.333-9.557-21.333-21.333S158.891,277.333,170.667,277.333z M149.333,213.333
			c0-11.776,9.557-21.333,21.333-21.333h42.667c11.776,0,21.333,9.557,21.333,21.333s-9.557,21.333-21.333,21.333h-42.667
			C158.891,234.667,149.333,225.109,149.333,213.333z M341.333,405.333H170.667c-11.776,0-21.333-9.557-21.333-21.333
			s9.557-21.333,21.333-21.333h170.667c11.776,0,21.333,9.557,21.333,21.333S353.109,405.333,341.333,405.333z M277.334,320V192
			h85.333v128H277.334z M341.333,149.333H170.667c-11.776,0-21.333-9.557-21.333-21.333s9.557-21.333,21.333-21.333h170.667
			c11.776,0,21.333,9.557,21.333,21.333S353.109,149.333,341.333,149.333z"/>
	</g>
</g>
<g>
</g>
<g>
</g>
<g>
</g>
<g>
</g>
<g>
</g>
<g>
</g>
<g>
</g>
<g>
</g>
<g>
</g>
<g>
</g>
<g>
</g>
<g>
</g>
<g>
</g>
<g>
</g>
<g>
</g>
</svg>
