<?xml version="1.0" encoding="iso-8859-1"?>
<!-- Generator: Adobe Illustrator 19.0.0, SVG Export Plug-In . SVG Version: 6.00 Build 0)  -->
<svg version="1.1" id="Layer_1" xmlns="http://www.w3.org/2000/svg" xmlns:xlink="http://www.w3.org/1999/xlink" x="0px" y="0px"
	 viewBox="0 0 512 512" style="enable-background:new 0 0 512 512;" xml:space="preserve">
<g>
	<g>
		<path d="M469.333,152.875v-40.533c0-26.645-21.696-48.341-48.341-48.341H261.035l-85.333-42.667H91.008
			c-26.645,0-48.341,21.696-48.341,48.341v83.2C17.963,161.216,0,184.341,0,211.84v216.341c0,34.453,28.032,62.485,62.507,62.485
			h172.16v-85.333h-21.333C201.536,405.333,192,395.797,192,384c0-11.776,9.536-21.333,21.333-21.333h21.333V320h-21.333
			C201.536,320,192,310.464,192,298.667c0-11.776,9.536-21.333,21.333-21.333h21.333v-42.667c0-11.776,9.536-21.333,21.333-21.333
			s21.333,9.557,21.333,21.333v42.667h21.333c11.797,0,21.333,9.557,21.333,21.333c0,11.797-9.536,21.333-21.333,21.333h-21.333
			v42.667h21.333c11.797,0,21.333,9.557,21.333,21.333c0,11.797-9.536,21.333-21.333,21.333h-21.333v85.333h172.16
			c34.475,0,62.507-28.032,62.507-62.485V211.84C512,184.341,494.037,161.216,469.333,152.875z M426.667,149.333H85.333V69.675
			c0-3.115,2.539-5.675,5.675-5.675h74.624l85.333,42.667h170.027c3.136,0,5.675,2.56,5.675,5.675V149.333z"/>
	</g>
</g>
<g>
</g>
<g>
</g>
<g>
</g>
<g>
</g>
<g>
</g>
<g>
</g>
<g>
</g>
<g>
</g>
<g>
</g>
<g>
</g>
<g>
</g>
<g>
</g>
<g>
</g>
<g>
</g>
<g>
</g>
</svg>
