<?xml version="1.0" encoding="iso-8859-1"?>
<!-- Generator: Adobe Illustrator 19.0.0, SVG Export Plug-In . SVG Version: 6.00 Build 0)  -->
<svg version="1.1" id="Layer_1" xmlns="http://www.w3.org/2000/svg" xmlns:xlink="http://www.w3.org/1999/xlink" x="0px" y="0px"
	 viewBox="0 0 512 512" style="enable-background:new 0 0 512 512;" xml:space="preserve">
<g>
	<g>
		<g>
			<path d="M304.941,100.437l42.645,42.645c4.16,4.16,9.621,6.251,15.083,6.251s10.923-2.091,15.083-6.251
				c8.341-8.341,8.341-21.824,0-30.165l-6.251-6.251h97.835c11.797,0,21.333-9.557,21.333-21.333S481.133,64,469.335,64h-97.835
				l6.251-6.251c8.341-8.341,8.341-21.824,0-30.165c-8.341-8.341-21.824-8.341-30.165,0l-42.645,42.645
				c-1.984,1.984-3.541,4.331-4.629,6.955c-2.155,5.205-2.155,11.093,0,16.299C301.399,96.107,302.957,98.453,304.941,100.437z"/>
			<path d="M207.061,390.232l-42.645-42.645c-8.341-8.341-21.824-8.341-30.165,0c-8.341,8.32-8.341,21.824,0,30.165l6.251,6.251
				H42.667c-11.797,0-21.333,9.557-21.333,21.333s9.536,21.333,21.333,21.333h97.835l-6.251,6.251
				c-8.341,8.32-8.341,21.824,0,30.165c4.16,4.16,9.621,6.251,15.083,6.251c5.461,0,10.923-2.091,15.083-6.251l42.645-42.645
				c1.984-1.984,3.541-4.331,4.629-6.955c2.155-5.205,2.155-11.093,0-16.299C210.603,394.562,209.045,392.215,207.061,390.232z"/>
			<path d="M256,106.667c0-11.776-9.536-21.333-21.333-21.333h-21.333c0-5.653-2.24-11.093-6.251-15.083l-64-64
				C139.093,2.24,133.675,0,128,0H21.333C9.536,0,0,9.557,0,21.333v85.333v128C0,246.443,9.536,256,21.333,256h213.333
				c11.797,0,21.333-9.557,21.333-21.333V106.667z M42.667,85.333V42.667h76.501l42.667,42.667H42.667z"/>
			<path d="M490.667,341.333h-21.333c0-5.653-2.24-11.093-6.251-15.083l-64-64C395.093,258.24,389.675,256,384,256H277.333
				C265.536,256,256,265.557,256,277.333v85.333v128c0,11.776,9.536,21.333,21.333,21.333h213.333
				c11.797,0,21.333-9.557,21.333-21.333v-128C512,350.891,502.464,341.333,490.667,341.333z M298.667,341.333v-42.667h76.501
				l42.667,42.667H298.667z"/>
		</g>
	</g>
</g>
<g>
</g>
<g>
</g>
<g>
</g>
<g>
</g>
<g>
</g>
<g>
</g>
<g>
</g>
<g>
</g>
<g>
</g>
<g>
</g>
<g>
</g>
<g>
</g>
<g>
</g>
<g>
</g>
<g>
</g>
</svg>
