<?xml version="1.0" encoding="iso-8859-1"?>
<!-- Generator: Adobe Illustrator 19.0.0, SVG Export Plug-In . SVG Version: 6.00 Build 0)  -->
<svg version="1.1" id="Layer_1" xmlns="http://www.w3.org/2000/svg" xmlns:xlink="http://www.w3.org/1999/xlink" x="0px" y="0px"
	 viewBox="0 0 512 512" style="enable-background:new 0 0 512 512;" xml:space="preserve">
<g>
	<g>
		<path d="M348.821,0H42.667v512h426.667V96.405L348.821,0z M381.76,286.869c-3.755,7.488-11.264,11.797-19.115,11.797
			c-3.2,0-6.443-0.725-9.515-2.261l-65.835-32.917c-7.808,8.448-18.88,13.845-31.296,13.845c-4.096,0-8-0.768-11.755-1.856
			l-73.579,55.168v32.021h170.667c11.797,0,21.333,9.536,21.333,21.333c0,11.776-9.536,21.333-21.333,21.333h-192
			C137.557,405.333,128,395.776,128,384V192c0-11.797,9.557-21.333,21.333-21.333c11.797,0,21.333,9.536,21.333,21.333v85.333
			l43.904-32.917c-0.747-3.136-1.237-6.379-1.237-9.749C213.333,211.093,232.448,192,256,192c18.432,0,34.005,11.755,39.957,28.117
			l76.267,38.123C382.763,263.509,387.029,276.331,381.76,286.869z"/>
	</g>
</g>
<g>
</g>
<g>
</g>
<g>
</g>
<g>
</g>
<g>
</g>
<g>
</g>
<g>
</g>
<g>
</g>
<g>
</g>
<g>
</g>
<g>
</g>
<g>
</g>
<g>
</g>
<g>
</g>
<g>
</g>
</svg>
