<?xml version="1.0" encoding="iso-8859-1"?>
<!-- Generator: Adobe Illustrator 19.0.0, SVG Export Plug-In . SVG Version: 6.00 Build 0)  -->
<svg version="1.1" id="Layer_1" xmlns="http://www.w3.org/2000/svg" xmlns:xlink="http://www.w3.org/1999/xlink" x="0px" y="0px"
	 viewBox="0 0 512 512" style="enable-background:new 0 0 512 512;" xml:space="preserve">
<g>
	<g>
		<path d="M348.821,0H42.666v512h426.667V96.427L348.821,0z M149.333,85.333h64c11.776,0,21.333,9.557,21.333,21.333
			S225.109,128,213.333,128h-64C137.557,128,128,118.443,128,106.667S137.557,85.333,149.333,85.333z M192,426.667h-64v-128h64
			V426.667z M277.333,426.667h-42.667V256h42.667V426.667z M277.333,213.333h-128C137.557,213.333,128,203.776,128,192
			s9.557-21.333,21.333-21.333h128c11.776,0,21.333,9.557,21.333,21.333S289.109,213.333,277.333,213.333z M384,426.667h-64V320h64
			V426.667z"/>
	</g>
</g>
<g>
</g>
<g>
</g>
<g>
</g>
<g>
</g>
<g>
</g>
<g>
</g>
<g>
</g>
<g>
</g>
<g>
</g>
<g>
</g>
<g>
</g>
<g>
</g>
<g>
</g>
<g>
</g>
<g>
</g>
</svg>
