<?xml version="1.0" encoding="iso-8859-1"?>
<!-- Generator: Adobe Illustrator 19.0.0, SVG Export Plug-In . SVG Version: 6.00 Build 0)  -->
<svg version="1.1" id="Layer_1" xmlns="http://www.w3.org/2000/svg" xmlns:xlink="http://www.w3.org/1999/xlink" x="0px" y="0px"
	 viewBox="0 0 512 512" style="enable-background:new 0 0 512 512;" xml:space="preserve">
<g>
	<g>
		<g>
			<path d="M213.333,320c-26.048,0-42.667,12.629-42.667,21.333c0,8.704,16.619,21.333,42.667,21.333
				c26.048,0,42.667-12.629,42.667-21.333C256,332.629,239.381,320,213.333,320z"/>
			<path d="M348.821,0H42.667v512h426.667V96.427L348.821,0z M362.667,256c-11.797,0-21.333-9.557-21.333-21.333
				c0-36.011-22.933-59.051-42.667-72.192v178.859c0,35.883-37.483,64-85.333,64S128,377.216,128,341.333
				c0-35.883,37.483-64,85.333-64c15.744,0,30.144,3.285,42.667,8.64V128c0-6.827,3.264-13.227,8.768-17.259
				c5.547-4.011,12.672-5.099,19.136-3.051C287.979,109.013,384,141.099,384,234.667C384,246.443,374.464,256,362.667,256z"/>
		</g>
	</g>
</g>
<g>
</g>
<g>
</g>
<g>
</g>
<g>
</g>
<g>
</g>
<g>
</g>
<g>
</g>
<g>
</g>
<g>
</g>
<g>
</g>
<g>
</g>
<g>
</g>
<g>
</g>
<g>
</g>
<g>
</g>
</svg>
