<?xml version="1.0" encoding="iso-8859-1"?>
<!-- Generator: Adobe Illustrator 19.0.0, SVG Export Plug-In . SVG Version: 6.00 Build 0)  -->
<svg version="1.1" id="Layer_1" xmlns="http://www.w3.org/2000/svg" xmlns:xlink="http://www.w3.org/1999/xlink" x="0px" y="0px"
	 viewBox="0 0 512 512" style="enable-background:new 0 0 512 512;" xml:space="preserve">
<g>
	<g>
		<path d="M422.72,42.667h-60.053V32.491C362.667,14.571,348.096,0,330.176,0H181.803c-17.899,0-32.469,14.571-32.469,32.491v10.176
			H89.259c-25.685,0-46.592,20.907-46.592,46.613v376.107c0,25.707,20.907,46.613,46.592,46.613H422.72
			c25.685,0,46.613-20.907,46.613-46.613V89.28C469.333,63.573,448.405,42.667,422.72,42.667z M192,42.667h128v42.667H192V42.667z
			 M276.352,405.333c-38.101,0-69.163-19.285-87.872-51.371l-2.432,4.949c-3.712,7.509-11.285,11.883-19.157,11.883
			c-3.157,0-6.4-0.704-9.408-2.219c-10.581-5.205-14.912-18.005-9.685-28.565l25.067-50.795c0.32-0.64,0.896-1.024,1.259-1.6
			c0.768-1.28,1.643-2.389,2.667-3.456c0.917-0.96,1.856-1.813,2.923-2.581c1.131-0.811,2.283-1.451,3.563-2.027
			c1.301-0.597,2.581-1.045,3.989-1.365c0.683-0.171,1.259-0.576,1.984-0.683c0.704-0.085,1.323,0.171,2.027,0.149
			c1.344-0.064,2.645,0.043,4.011,0.256c1.536,0.235,2.965,0.597,4.395,1.173c0.576,0.213,1.195,0.171,1.749,0.469l50.795,25.067
			c10.581,5.227,14.912,18.027,9.685,28.587c-5.184,10.56-18.005,14.933-28.565,9.664l-1.621-0.789
			c11.093,13.163,26.261,20.587,44.629,20.587c35.84,0,64.981-28.715,64.981-64c0-35.285-29.141-64-64.981-64
			c-19.2,0-36.544,7.573-48.811,21.333c-7.829,8.789-21.376,9.536-30.123,1.707c-8.789-7.851-9.557-21.333-1.707-30.144
			c20.16-22.592,49.557-35.563,80.64-35.563C335.701,192,384,239.851,384,298.667S335.701,405.333,276.352,405.333z"/>
	</g>
</g>
<g>
</g>
<g>
</g>
<g>
</g>
<g>
</g>
<g>
</g>
<g>
</g>
<g>
</g>
<g>
</g>
<g>
</g>
<g>
</g>
<g>
</g>
<g>
</g>
<g>
</g>
<g>
</g>
<g>
</g>
</svg>
