<?xml version="1.0" encoding="iso-8859-1"?>
<!-- Generator: Adobe Illustrator 19.0.0, SVG Export Plug-In . SVG Version: 6.00 Build 0)  -->
<svg version="1.1" id="Layer_1" xmlns="http://www.w3.org/2000/svg" xmlns:xlink="http://www.w3.org/1999/xlink" x="0px" y="0px"
	 viewBox="0 0 512 512" style="enable-background:new 0 0 512 512;" xml:space="preserve">
<g>
	<g>
		<path d="M422.72,42.667h-60.053V32.491C362.667,14.571,348.096,0,330.176,0H181.824c-17.92,0-32.491,14.571-32.491,32.491v10.176
			H89.28c-25.707,0-46.613,20.907-46.613,46.613v376.107C42.667,491.093,63.573,512,89.28,512h333.44
			c25.707,0,46.613-20.907,46.613-46.613V89.28C469.333,63.573,448.427,42.667,422.72,42.667z M192,42.667h128v42.667H192V42.667z
			 M149.333,192h149.333c11.776,0,21.333,9.557,21.333,21.333s-9.557,21.333-21.333,21.333H149.333
			c-11.776,0-21.333-9.557-21.333-21.333S137.557,192,149.333,192z M362.667,405.333H213.333C201.557,405.333,192,395.776,192,384
			s9.557-21.333,21.333-21.333h149.333c11.776,0,21.333,9.557,21.333,21.333S374.443,405.333,362.667,405.333z M362.667,320H149.333
			C137.557,320,128,310.443,128,298.667s9.557-21.333,21.333-21.333h213.333c11.776,0,21.333,9.557,21.333,21.333
			S374.443,320,362.667,320z"/>
	</g>
</g>
<g>
</g>
<g>
</g>
<g>
</g>
<g>
</g>
<g>
</g>
<g>
</g>
<g>
</g>
<g>
</g>
<g>
</g>
<g>
</g>
<g>
</g>
<g>
</g>
<g>
</g>
<g>
</g>
<g>
</g>
</svg>
