<?xml version="1.0" encoding="iso-8859-1"?>
<!-- Generator: Adobe Illustrator 19.0.0, SVG Export Plug-In . SVG Version: 6.00 Build 0)  -->
<svg version="1.1" id="Layer_1" xmlns="http://www.w3.org/2000/svg" xmlns:xlink="http://www.w3.org/1999/xlink" x="0px" y="0px"
	 viewBox="0 0 512 512" style="enable-background:new 0 0 512 512;" xml:space="preserve">
<g>
	<g>
		<rect x="234.667" y="362.667" width="42.666" height="42.666"/>
	</g>
</g>
<g>
	<g>
		<path d="M422.72,42.667h-60.053V32.491c0-17.92-14.571-32.491-32.47-32.491H181.803c-17.899,0-32.469,14.571-32.469,32.491v10.176
			H89.28c-25.707,0-46.613,20.907-46.613,46.613v376.107C42.667,491.093,63.573,512,89.28,512h333.44
			c25.707,0,46.613-20.907,46.613-46.613V89.28C469.333,63.573,448.427,42.667,422.72,42.667z M298.667,320
			c11.797,0,21.333,9.557,21.333,21.333v85.333c0,11.776-9.536,21.333-21.333,21.333h-85.333C201.536,448,192,438.443,192,426.667
			v-85.333c0-11.776,9.536-21.333,21.333-21.333h21.333v-21.333h-21.333c-11.797,0-21.333-9.557-21.333-21.333
			S201.536,256,213.333,256h21.333v-21.333h-21.333c-11.797,0-21.333-9.557-21.333-21.333S201.536,192,213.333,192h21.333v-21.333
			c0-11.776,9.536-21.333,21.333-21.333c11.797,0,21.333,9.557,21.333,21.333V192h21.333c11.797,0,21.333,9.557,21.333,21.333
			s-9.536,21.333-21.333,21.333h-21.333V256h21.335c11.797,0,21.333,9.557,21.333,21.333s-9.536,21.333-21.333,21.333h-21.333V320
			H298.667z M320,85.333H192V42.667h128V85.333z"/>
	</g>
</g>
<g>
</g>
<g>
</g>
<g>
</g>
<g>
</g>
<g>
</g>
<g>
</g>
<g>
</g>
<g>
</g>
<g>
</g>
<g>
</g>
<g>
</g>
<g>
</g>
<g>
</g>
<g>
</g>
<g>
</g>
</svg>
