<?xml version="1.0" encoding="iso-8859-1"?>
<!-- Generator: Adobe Illustrator 19.0.0, SVG Export Plug-In . SVG Version: 6.00 Build 0)  -->
<svg version="1.1" id="Layer_1" xmlns="http://www.w3.org/2000/svg" xmlns:xlink="http://www.w3.org/1999/xlink" x="0px" y="0px"
	 viewBox="0 0 512 512" style="enable-background:new 0 0 512 512;" xml:space="preserve">
<g>
	<g>
		<path d="M255.989,192.006c-58.795,0-106.667,47.851-106.667,106.667c0,58.816,47.873,106.667,106.667,106.667
			c58.816,0,106.667-47.851,106.667-106.667S314.805,192.006,255.989,192.006z M317.749,265.542l-42.667,85.333
			c-1.024,2.027-2.347,3.776-3.84,5.312c-0.064,0.064-0.085,0.171-0.171,0.235c-0.192,0.213-0.491,0.277-0.704,0.469
			c-1.621,1.493-3.435,2.688-5.419,3.605c-0.619,0.277-1.195,0.555-1.835,0.789c-2.261,0.811-4.629,1.365-7.061,1.365
			c0,0-0.043,0.021-0.064,0.021c-2.411,0-4.821-0.555-7.168-1.408c-0.448-0.149-0.875-0.277-1.301-0.469
			c-0.363-0.149-0.725-0.213-1.067-0.384c-1.088-0.533-1.792-1.451-2.731-2.133c-0.917-0.661-1.984-1.045-2.816-1.856
			l-42.667-42.667c-8.32-8.341-8.32-21.845,0-30.165c8.341-8.341,21.845-8.341,30.187,0l21.717,21.739l29.44-58.88
			c5.269-10.539,18.048-14.805,28.629-9.536C318.752,242.182,323.019,255.004,317.749,265.542z"/>
	</g>
</g>
<g>
	<g>
		<path d="M422.72,42.667h-60.053V32.491C362.667,14.571,348.096,0,330.176,0H181.824c-17.92,0-32.491,14.571-32.491,32.491v10.176
			H89.28c-25.707,0-46.613,20.907-46.613,46.613v376.107C42.667,491.093,63.573,512,89.28,512h333.44
			c25.707,0,46.613-20.907,46.613-46.613V89.28C469.333,63.573,448.427,42.667,422.72,42.667z M192,42.667h128v42.667H192V42.667z
			 M256,448c-82.347,0-149.333-66.987-149.333-149.333S173.653,149.333,256,149.333s149.333,66.987,149.333,149.333
			S338.347,448,256,448z"/>
	</g>
</g>
<g>
</g>
<g>
</g>
<g>
</g>
<g>
</g>
<g>
</g>
<g>
</g>
<g>
</g>
<g>
</g>
<g>
</g>
<g>
</g>
<g>
</g>
<g>
</g>
<g>
</g>
<g>
</g>
<g>
</g>
</svg>
