<?xml version="1.0" encoding="iso-8859-1"?>
<!-- Generator: Adobe Illustrator 19.0.0, SVG Export Plug-In . SVG Version: 6.00 Build 0)  -->
<svg version="1.1" id="Layer_1" xmlns="http://www.w3.org/2000/svg" xmlns:xlink="http://www.w3.org/1999/xlink" x="0px" y="0px"
	 viewBox="0 0 512 512" style="enable-background:new 0 0 512 512;" xml:space="preserve">
<g>
	<g>
		<path d="M422.741,42.667h-60.075V32.491C362.667,14.571,348.117,0,330.197,0H181.824c-17.92,0-32.491,14.571-32.491,32.491v10.176
			H89.28c-25.685,0-46.613,20.907-46.613,46.613v376.128C42.667,491.093,63.595,512,89.28,512h333.461
			c25.685,0,46.592-20.907,46.592-46.592V89.28C469.333,63.573,448.427,42.667,422.741,42.667z M192,42.667h128v42.667H192V42.667z
			 M203.84,380.416c-3.648,2.432-7.744,3.584-11.819,3.584c-6.891,0-13.653-3.328-17.771-9.493l-42.667-64v-0.021
			c-1.579-2.368-2.645-4.992-3.179-7.723c-0.256-1.365-0.021-2.709-0.021-4.096c0-1.365-0.235-2.731,0.021-4.096
			c0.533-2.731,1.6-5.355,3.179-7.701v-0.021l42.667-64c6.528-9.813,19.733-12.501,29.589-5.931
			c9.813,6.528,12.459,19.776,5.909,29.589l-34.773,52.16l34.774,52.181C216.298,360.64,213.653,373.888,203.84,380.416z
			 M383.595,302.763c-0.533,2.731-1.6,5.355-3.157,7.723c-0.021,0-0.021,0.021-0.021,0.021l-42.667,64
			c-4.096,6.165-10.88,9.493-17.771,9.493c-4.053,0-8.171-1.152-11.819-3.584c-9.792-6.528-12.459-19.776-5.909-29.568
			l34.773-52.181l-34.773-52.16c-6.549-9.813-3.883-23.061,5.909-29.589c9.813-6.571,23.061-3.883,29.589,5.931l42.667,64
			c0,0,0,0,0.021,0.021c1.557,2.347,2.624,4.971,3.157,7.701c0.256,1.365,0.021,2.731,0.021,4.096
			C383.616,300.053,383.851,301.397,383.595,302.763z"/>
	</g>
</g>
<g>
</g>
<g>
</g>
<g>
</g>
<g>
</g>
<g>
</g>
<g>
</g>
<g>
</g>
<g>
</g>
<g>
</g>
<g>
</g>
<g>
</g>
<g>
</g>
<g>
</g>
<g>
</g>
<g>
</g>
</svg>
