<?xml version="1.0" encoding="iso-8859-1"?>
<!-- Generator: Adobe Illustrator 19.0.0, SVG Export Plug-In . SVG Version: 6.00 Build 0)  -->
<svg version="1.1" id="Layer_1" xmlns="http://www.w3.org/2000/svg" xmlns:xlink="http://www.w3.org/1999/xlink" x="0px" y="0px"
	 viewBox="0 0 512 512" style="enable-background:new 0 0 512 512;" xml:space="preserve">
<g>
	<g>
		<g>
			<polygon points="213.327,306.822 272.292,277.339 213.327,247.856 			"/>
			<path d="M422.72,42.667h-60.053V32.491C362.667,14.592,348.096,0,330.176,0H181.803c-17.92,0-32.469,14.592-32.469,32.491v10.176
				H89.259c-25.685,0-46.592,20.907-46.592,46.613v376.128c0,25.685,20.907,46.592,46.592,46.592H422.72
				c25.685,0,46.613-20.907,46.613-46.592V89.28C469.333,63.573,448.405,42.667,422.72,42.667z M192,42.667h128v42.667H192V42.667z
				 M329.536,296.427l-128,64c-3.029,1.493-6.272,2.24-9.536,2.24c-3.904,0-7.787-1.067-11.221-3.179
				c-6.293-3.883-10.112-10.752-10.112-18.155v-128c0-7.381,3.819-14.251,10.112-18.133c6.293-3.882,14.123-4.245,20.757-0.939
				l128,64c7.232,3.605,11.797,11.008,11.797,19.072C341.333,285.419,336.768,292.821,329.536,296.427z"/>
		</g>
	</g>
</g>
<g>
</g>
<g>
</g>
<g>
</g>
<g>
</g>
<g>
</g>
<g>
</g>
<g>
</g>
<g>
</g>
<g>
</g>
<g>
</g>
<g>
</g>
<g>
</g>
<g>
</g>
<g>
</g>
<g>
</g>
</svg>
