<?xml version="1.0" encoding="iso-8859-1"?>
<!-- Generator: Adobe Illustrator 19.0.0, SVG Export Plug-In . SVG Version: 6.00 Build 0)  -->
<svg version="1.1" id="Layer_1" xmlns="http://www.w3.org/2000/svg" xmlns:xlink="http://www.w3.org/1999/xlink" x="0px" y="0px"
	 viewBox="0 0 512 512" style="enable-background:new 0 0 512 512;" xml:space="preserve">
<g>
	<g>
		<path d="M422.72,42.667h-60.053V32.491c0-17.92-14.571-32.491-32.47-32.491H181.803c-17.899,0-32.469,14.571-32.469,32.491v10.176
			H89.28c-25.707,0-46.613,20.907-46.613,46.613v376.107C42.667,491.093,63.573,512,89.28,512h333.44
			c25.707,0,46.613-20.907,46.613-46.613V89.28C469.333,63.573,448.427,42.667,422.72,42.667z M192,42.667h128v42.667H192V42.667z
			 M362.667,384C339.093,384,320,364.907,320,341.333c0-4.117,0.768-8,1.856-11.755l-56.107-74.795
			C262.613,255.509,259.371,256,256,256c-2.987,0-5.888-0.32-8.704-0.896l-46.464,77.397c7.723,7.723,12.501,18.389,12.501,30.165
			c0,23.573-19.093,42.667-42.667,42.667c-23.573,0-42.667-19.093-42.667-42.667c0-18.816,12.245-34.603,29.163-40.277
			l58.133-96.917c-1.152-3.861-1.963-7.893-1.963-12.139c0-23.573,19.093-42.667,42.667-42.667
			c23.574,0,42.667,19.093,42.667,42.667c0,4.117-0.768,8-1.856,11.755l56.107,74.795c3.136-0.725,6.379-1.216,9.749-1.216
			c23.573,0,42.667,19.093,42.667,42.667C405.333,364.907,386.24,384,362.667,384z"/>
	</g>
</g>
<g>
</g>
<g>
</g>
<g>
</g>
<g>
</g>
<g>
</g>
<g>
</g>
<g>
</g>
<g>
</g>
<g>
</g>
<g>
</g>
<g>
</g>
<g>
</g>
<g>
</g>
<g>
</g>
<g>
</g>
</svg>
