<?xml version="1.0" encoding="iso-8859-1"?>
<!-- Generator: Adobe Illustrator 19.0.0, SVG Export Plug-In . SVG Version: 6.00 Build 0)  -->
<svg version="1.1" id="Layer_1" xmlns="http://www.w3.org/2000/svg" xmlns:xlink="http://www.w3.org/1999/xlink" x="0px" y="0px"
	 viewBox="0 0 512 512" style="enable-background:new 0 0 512 512;" xml:space="preserve">
<g>
	<g>
		<path d="M422.72,42.667h-60.053V32.491C362.667,14.592,348.096,0,330.176,0H181.803c-17.92,0-32.469,14.592-32.469,32.491v10.176
			H89.259c-25.685,0-46.592,20.907-46.592,46.613v376.128c0,25.707,20.907,46.592,46.592,46.592H422.72
			c25.685,0,46.613-20.885,46.613-46.592V89.28C469.333,63.573,448.405,42.667,422.72,42.667z M192,42.667h128v42.667H192V42.667z
			 M213.333,192h21.333v-21.333c0-11.776,9.536-21.333,21.333-21.333c11.776,0,21.333,9.557,21.333,21.333V192h21.333
			c11.776,0,21.333,9.557,21.333,21.333c0,11.797-9.557,21.333-21.333,21.333h-21.333V256c0,11.797-9.557,21.333-21.333,21.333
			c-11.797,0-21.333-9.536-21.333-21.333v-21.333h-21.333c-11.797,0-21.333-9.536-21.333-21.333
			C192,201.557,201.536,192,213.333,192z M400.661,312l-85.333,106.667c-3.797,4.736-9.429,7.637-15.488,7.979
			c-0.384,0.021-0.789,0.021-1.173,0.021c-5.653,0-11.093-2.219-15.083-6.229L192,328.853l-48.917,48.917
			c-8.341,8.32-21.845,8.32-30.165,0c-8.341-8.341-8.341-21.845,0-30.187l64-64c8.32-8.32,21.824-8.32,30.165,0l89.813,89.813
			l70.443-88.043c7.381-9.195,20.757-10.688,29.995-3.328C406.507,289.365,408.021,302.805,400.661,312z"/>
	</g>
</g>
<g>
</g>
<g>
</g>
<g>
</g>
<g>
</g>
<g>
</g>
<g>
</g>
<g>
</g>
<g>
</g>
<g>
</g>
<g>
</g>
<g>
</g>
<g>
</g>
<g>
</g>
<g>
</g>
<g>
</g>
</svg>
