<?xml version="1.0" encoding="iso-8859-1"?>
<!-- Generator: Adobe Illustrator 19.0.0, SVG Export Plug-In . SVG Version: 6.00 Build 0)  -->
<svg version="1.1" id="Layer_1" xmlns="http://www.w3.org/2000/svg" xmlns:xlink="http://www.w3.org/1999/xlink" x="0px" y="0px"
	 viewBox="0 0 512 512" style="enable-background:new 0 0 512 512;" xml:space="preserve">
<g>
	<g>
		<path d="M256,192c-58.816,0-106.667,47.851-106.667,106.667c0,21.696,6.592,41.856,17.771,58.731l147.627-147.627
			C297.856,198.592,277.696,192,256,192z"/>
	</g>
</g>
<g>
	<g>
		<path d="M344.898,239.936L197.271,387.563c16.875,11.179,37.035,17.771,58.731,17.771c58.816,0,106.667-47.851,106.667-106.667
			C362.669,276.971,356.077,256.811,344.898,239.936z"/>
	</g>
</g>
<g>
	<g>
		<path d="M422.72,42.667h-60.053V32.491c0-17.92-14.571-32.491-32.47-32.491H181.803c-17.899,0-32.469,14.571-32.469,32.491v10.176
			H89.28c-25.707,0-46.613,20.907-46.613,46.613v376.107C42.667,491.093,63.573,512,89.28,512h333.44
			c25.707,0,46.613-20.907,46.613-46.613V89.28C469.333,63.573,448.427,42.667,422.72,42.667z M192,42.667h128v42.667H192V42.667z
			 M256,448c-82.325,0-149.333-66.987-149.333-149.333S173.675,149.333,256,149.333s149.333,66.987,149.333,149.333
			S338.325,448,256,448z"/>
	</g>
</g>
<g>
</g>
<g>
</g>
<g>
</g>
<g>
</g>
<g>
</g>
<g>
</g>
<g>
</g>
<g>
</g>
<g>
</g>
<g>
</g>
<g>
</g>
<g>
</g>
<g>
</g>
<g>
</g>
<g>
</g>
</svg>
