<?xml version="1.0" encoding="iso-8859-1"?>
<!-- Generator: Adobe Illustrator 19.0.0, SVG Export Plug-In . SVG Version: 6.00 Build 0)  -->
<svg version="1.1" id="Layer_1" xmlns="http://www.w3.org/2000/svg" xmlns:xlink="http://www.w3.org/1999/xlink" x="0px" y="0px"
	 viewBox="0 0 512 512" style="enable-background:new 0 0 512 512;" xml:space="preserve">
<g>
	<g>
		<path d="M422.741,42.667h-60.075V32.491C362.667,14.571,348.117,0,330.197,0H181.824c-17.92,0-32.491,14.571-32.491,32.491v10.176
			H89.28c-25.685,0-46.613,20.907-46.613,46.592v376.128C42.667,491.093,63.595,512,89.28,512h333.461
			c25.685,0,46.592-20.907,46.592-46.613V89.259C469.333,63.573,448.427,42.667,422.741,42.667z M192,42.667h128v42.667H192V42.667z
			 M181.333,170.667c17.685,0,32,14.315,32,32c0,17.664-14.315,32-32,32c-17.664,0-32-14.336-32-32
			C149.333,184.981,163.669,170.667,181.333,170.667z M394.987,380.949c-3.435,2.069-7.232,3.051-10.965,3.051
			c-7.253,0-14.315-3.691-18.304-10.368L320,297.451l-45.696,76.181c-3.371,5.632-9.173,9.408-15.701,10.197
			c-6.507,0.704-13.035-1.429-17.685-6.08L192,328.832l-48.917,48.917c-8.32,8.32-21.824,8.32-30.165,0
			c-8.32-8.341-8.32-21.845,0-30.165l64-64c8.341-8.341,21.845-8.341,30.165,0l44.693,44.672l49.941-83.243
			c7.701-12.864,28.864-12.864,36.587,0l64,106.667C408.363,361.792,405.099,374.891,394.987,380.949z"/>
	</g>
</g>
<g>
</g>
<g>
</g>
<g>
</g>
<g>
</g>
<g>
</g>
<g>
</g>
<g>
</g>
<g>
</g>
<g>
</g>
<g>
</g>
<g>
</g>
<g>
</g>
<g>
</g>
<g>
</g>
<g>
</g>
</svg>
