<?xml version="1.0" encoding="iso-8859-1"?>
<!-- Generator: Adobe Illustrator 19.0.0, SVG Export Plug-In . SVG Version: 6.00 Build 0)  -->
<svg version="1.1" id="Layer_1" xmlns="http://www.w3.org/2000/svg" xmlns:xlink="http://www.w3.org/1999/xlink" x="0px" y="0px"
	 viewBox="0 0 512 512" style="enable-background:new 0 0 512 512;" xml:space="preserve">
<g>
	<g>
		<path d="M422.741,42.667h-60.075V32.491C362.667,14.571,348.117,0,330.197,0H181.824c-17.92,0-32.491,14.571-32.491,32.491v10.176
			H89.28c-25.685,0-46.613,20.907-46.613,46.613v376.107C42.667,491.093,63.595,512,89.28,512h333.461
			c25.685,0,46.592-20.907,46.592-46.613V89.28C469.333,63.573,448.427,42.667,422.741,42.667z M192,42.667h128v42.667H192V42.667z
			 M335.339,384h-43.264c-0.512,0-2.069-0.064-2.56-0.107L180.288,384c-40.597,0-73.621-33.707-73.621-75.136
			c0-25.216,12.779-48.853,33.216-62.656c9.941-26.112,35.84-43.669,64.021-42.027c17.237-20.971,42.987-33.515,70.123-33.515
			c44.672,0,82.283,33.28,90.133,76.864c24.576,11.349,41.173,36.544,41.173,65.045C405.333,351.957,373.952,384,335.339,384z"/>
	</g>
</g>
<g>
	<g>
		<path d="M340.235,284.333c-9.941-1.92-17.152-10.56-17.28-20.672c-0.341-27.755-22.293-50.325-48.939-50.325
			c-17.323,0-33.003,9.301-41.963,24.896c-5.077,8.811-15.659,12.821-25.28,9.6c-12.181-4.096-25.323,4.203-28.011,16.96
			c-1.387,6.4-5.589,11.819-11.435,14.699c-10.923,5.397-17.984,16.917-17.984,29.376c0,17.899,13.888,32.469,30.955,32.469h108.16
			c0.235,0,2.112-0.085,2.475-0.085h0.043l44.373,0.085c15.061,0,27.328-12.907,27.328-28.757
			C362.677,298.733,353.227,286.85,340.235,284.333z"/>
	</g>
</g>
<g>
</g>
<g>
</g>
<g>
</g>
<g>
</g>
<g>
</g>
<g>
</g>
<g>
</g>
<g>
</g>
<g>
</g>
<g>
</g>
<g>
</g>
<g>
</g>
<g>
</g>
<g>
</g>
<g>
</g>
</svg>
