<?xml version="1.0" encoding="iso-8859-1"?>
<!-- Generator: Adobe Illustrator 19.0.0, SVG Export Plug-In . SVG Version: 6.00 Build 0)  -->
<svg version="1.1" id="Layer_1" xmlns="http://www.w3.org/2000/svg" xmlns:xlink="http://www.w3.org/1999/xlink" x="0px" y="0px"
	 viewBox="0 0 512 512" style="enable-background:new 0 0 512 512;" xml:space="preserve">
<g>
	<g>
		<g>
			<path d="M256,192c-58.816,0-106.667,47.851-106.667,106.667c0,58.816,47.851,106.667,106.667,106.667
				s106.667-47.851,106.667-106.667C362.667,239.851,314.816,192,256,192z M256,384c-11.776,0-21.333-9.557-21.333-21.333
				s9.557-21.333,21.333-21.333c11.776,0,21.333,9.557,21.333,21.333S267.776,384,256,384z M277.333,298.667
				c0,11.776-9.536,21.333-21.333,21.333c-11.797,0-21.333-9.557-21.333-21.333v-64c0-11.776,9.536-21.333,21.333-21.333
				c11.797,0,21.333,9.557,21.333,21.333V298.667z"/>
			<path d="M422.72,42.667h-60.053V32.491C362.667,14.571,348.096,0,330.197,0H181.803c-17.899,0-32.469,14.571-32.469,32.491
				v10.176H89.28c-25.707,0-46.613,20.907-46.613,46.613v376.107C42.667,491.093,63.573,512,89.28,512h333.44
				c25.707,0,46.613-20.907,46.613-46.613V89.28C469.333,63.573,448.427,42.667,422.72,42.667z M256,448
				c-82.325,0-149.333-66.987-149.333-149.333S173.675,149.333,256,149.333s149.333,66.987,149.333,149.333S338.325,448,256,448z"/>
		</g>
	</g>
</g>
<g>
</g>
<g>
</g>
<g>
</g>
<g>
</g>
<g>
</g>
<g>
</g>
<g>
</g>
<g>
</g>
<g>
</g>
<g>
</g>
<g>
</g>
<g>
</g>
<g>
</g>
<g>
</g>
<g>
</g>
</svg>
