<?xml version="1.0" encoding="iso-8859-1"?>
<!-- Generator: Adobe Illustrator 19.0.0, SVG Export Plug-In . SVG Version: 6.00 Build 0)  -->
<svg version="1.1" id="Layer_1" xmlns="http://www.w3.org/2000/svg" xmlns:xlink="http://www.w3.org/1999/xlink" x="0px" y="0px"
	 viewBox="0 0 512 512" style="enable-background:new 0 0 512 512;" xml:space="preserve">
<g>
	<g>
		<path d="M422.72,42.667h-60.053V32.491C362.667,14.571,348.096,0,330.176,0H181.803c-17.92,0-32.469,14.571-32.469,32.491v10.176
			H89.259c-25.685,0-46.592,20.907-46.592,46.613v376.107c0,25.707,20.907,46.613,46.592,46.613H422.72
			c25.685,0,46.613-20.907,46.613-46.613V89.28C469.333,63.573,448.405,42.667,422.72,42.667z M192,42.667h128v42.667H192V42.667z
			 M340.565,384h0.768c11.776,0,21.333,9.557,21.333,21.333s-9.557,21.333-21.333,21.333H170.667
			c-11.797,0-21.333-9.557-21.333-21.333S158.869,384,170.667,384h0.747c3.051-43.627,15.509-69.824,30.933-85.333
			c-15.424-15.509-27.883-41.707-30.933-85.333h-0.747c-11.797,0-21.333-9.557-21.333-21.333s9.536-21.333,21.333-21.333h170.667
			c11.776,0,21.333,9.557,21.333,21.333s-9.557,21.333-21.333,21.333h-0.768c-3.051,43.627-15.488,69.824-30.933,85.333
			C325.077,314.176,337.515,340.373,340.565,384z"/>
	</g>
</g>
<g>
	<g>
		<path d="M255.991,320c-9.579,0-36.971,0-41.899,64h83.797C292.962,320,265.57,320,255.991,320z"/>
	</g>
</g>
<g>
	<g>
		<path d="M214.093,213.333c4.928,64,32.32,64,41.898,64c9.579,0,36.971,0,41.899-64H214.093z"/>
	</g>
</g>
<g>
</g>
<g>
</g>
<g>
</g>
<g>
</g>
<g>
</g>
<g>
</g>
<g>
</g>
<g>
</g>
<g>
</g>
<g>
</g>
<g>
</g>
<g>
</g>
<g>
</g>
<g>
</g>
<g>
</g>
</svg>
