<?xml version="1.0" encoding="iso-8859-1"?>
<!-- Generator: Adobe Illustrator 19.0.0, SVG Export Plug-In . SVG Version: 6.00 Build 0)  -->
<svg version="1.1" id="Layer_1" xmlns="http://www.w3.org/2000/svg" xmlns:xlink="http://www.w3.org/1999/xlink" x="0px" y="0px"
	 viewBox="0 0 512 512" style="enable-background:new 0 0 512 512;" xml:space="preserve">
<g>
	<g>
		<path d="M348.821,0H42.667v512h426.667V96.427L348.821,0z M277.333,85.333c47.125,0,85.333,38.208,85.333,85.333h-85.333V85.333z
			 M256,106.667V192h85.333c0,47.125-38.208,85.333-85.333,85.333S170.667,239.125,170.667,192S208.875,106.667,256,106.667z
			 M192,320h128c11.797,0,21.333,9.557,21.333,21.333c0,11.776-9.536,21.333-21.333,21.333H192
			c-11.797,0-21.333-9.557-21.333-21.333C170.667,329.557,180.203,320,192,320z M362.667,448H149.333
			C137.536,448,128,438.443,128,426.667s9.536-21.333,21.333-21.333h213.333c11.797,0,21.333,9.557,21.333,21.333
			S374.464,448,362.667,448z"/>
	</g>
</g>
<g>
</g>
<g>
</g>
<g>
</g>
<g>
</g>
<g>
</g>
<g>
</g>
<g>
</g>
<g>
</g>
<g>
</g>
<g>
</g>
<g>
</g>
<g>
</g>
<g>
</g>
<g>
</g>
<g>
</g>
</svg>
