<?xml version="1.0" encoding="iso-8859-1"?>
<!-- Generator: Adobe Illustrator 19.0.0, SVG Export Plug-In . SVG Version: 6.00 Build 0)  -->
<svg version="1.1" id="Layer_1" xmlns="http://www.w3.org/2000/svg" xmlns:xlink="http://www.w3.org/1999/xlink" x="0px" y="0px"
	 viewBox="0 0 512.001 512.001" style="enable-background:new 0 0 512.001 512.001;" xml:space="preserve">
<g>
	<g>
		<g>
			<path style="fill:#231F20;" d="M410.432,74.834c-79.003-99.698-229.732-99.858-308.863,0c-6.794,8.573-5.352,21.03,3.222,27.824
				c8.572,6.794,21.03,5.352,27.824-3.222c63.149-79.689,183.512-79.826,246.772,0c6.795,8.575,19.25,10.015,27.824,3.222
				C415.783,95.864,417.226,83.407,410.432,74.834z"/>
			<path style="fill:#231F20;" d="M207.678,158.765c24.684-31.186,71.935-31.219,96.645,0c6.791,8.577,19.245,10.026,27.823,3.238
				c8.577-6.79,10.027-19.246,3.238-27.823c-40.528-51.202-118.177-51.281-158.767,0c-6.788,8.577-5.34,21.034,3.238,27.823
				C188.438,168.793,200.893,167.337,207.678,158.765z"/>
			<path style="fill:#231F20;" d="M345.221,220.175h-178.44c-10.938,0-19.806,8.868-19.806,19.806
				c0,60.117,48.908,109.026,109.026,109.026s109.026-48.91,109.026-109.026C365.027,229.041,356.159,220.175,345.221,220.175z"/>
			<path style="fill:#231F20;" d="M334.565,402.316h-58.757v-7.662c0-3.849-3.281-6.904-7.117-6.577
				c-8.451,0.722-16.917,0.724-25.378,0c-3.836-0.329-7.117,2.727-7.117,6.577v7.662h-58.757c-10.938,0-19.806,8.868-19.806,19.806
				v70.073c0,10.938,8.868,19.806,19.806,19.806h157.127c10.938,0,19.806-8.868,19.806-19.806v-70.073
				C354.371,411.184,345.503,402.316,334.565,402.316z"/>
		</g>
	</g>
</g>
<g>
</g>
<g>
</g>
<g>
</g>
<g>
</g>
<g>
</g>
<g>
</g>
<g>
</g>
<g>
</g>
<g>
</g>
<g>
</g>
<g>
</g>
<g>
</g>
<g>
</g>
<g>
</g>
<g>
</g>
</svg>
