<?xml version="1.0" encoding="iso-8859-1"?>
<!-- Generator: Adobe Illustrator 19.0.0, SVG Export Plug-In . SVG Version: 6.00 Build 0)  -->
<svg version="1.1" id="Layer_1" xmlns="http://www.w3.org/2000/svg" xmlns:xlink="http://www.w3.org/1999/xlink" x="0px" y="0px"
	 viewBox="0 0 512 512" style="enable-background:new 0 0 512 512;" xml:space="preserve">
<g>
	<g>
		<g>
			<path style="fill:#231F20;" d="M467.334,50.485H44.666C19.998,50.485,0,70.483,0,95.151v45.025
				c0,7.048,5.713,12.762,12.762,12.762h486.477c7.048,0,12.762-5.713,12.762-12.762V95.151
				C512,70.483,492.002,50.485,467.334,50.485z M77.97,117.749c-8.857,0-16.036-7.18-16.036-16.036s7.18-16.036,16.036-16.036
				c8.857,0,16.036,7.18,16.036,16.036S86.827,117.749,77.97,117.749z M123.292,117.749c-8.857,0-16.038-7.18-16.038-16.036
				s7.18-16.036,16.038-16.036c8.857,0,16.036,7.18,16.036,16.036S132.149,117.749,123.292,117.749z M168.613,117.749
				c-8.857,0-16.036-7.18-16.036-16.036s7.18-16.036,16.036-16.036s16.036,7.18,16.036,16.036S177.471,117.749,168.613,117.749z"/>
			<path style="fill:#231F20;" d="M499.238,191.223H12.762C5.713,191.223,0,196.936,0,203.984v212.864
				c0,24.668,19.998,44.666,44.666,44.666h422.668c24.668,0,44.666-19.998,44.666-44.666V203.984
				C512,196.936,506.287,191.223,499.238,191.223z M324.141,394.497c-7.475,7.476-19.596,7.477-27.071,0l-28.307-28.307
				c-22.564,11.16-50.434,7.224-68.963-11.304c-23.36-23.36-23.36-61.37,0-84.73c23.36-23.36,61.37-23.359,84.73,0
				c18.627,18.627,22.384,46.561,11.306,68.963l28.307,28.307C331.617,374.901,331.617,387.021,324.141,394.497z"/>
			<path style="fill:#231F20;" d="M226.871,297.228c-8.432,8.432-8.432,22.153,0,30.586c8.433,8.432,22.154,8.432,30.587,0
				c8.432-8.434,8.432-22.154,0-30.587C249.027,288.795,235.304,288.794,226.871,297.228z"/>
		</g>
	</g>
</g>
<g>
</g>
<g>
</g>
<g>
</g>
<g>
</g>
<g>
</g>
<g>
</g>
<g>
</g>
<g>
</g>
<g>
</g>
<g>
</g>
<g>
</g>
<g>
</g>
<g>
</g>
<g>
</g>
<g>
</g>
</svg>
