<?xml version="1.0" encoding="iso-8859-1"?>
<!-- Generator: Adobe Illustrator 19.0.0, SVG Export Plug-In . SVG Version: 6.00 Build 0)  -->
<svg version="1.1" id="Layer_1" xmlns="http://www.w3.org/2000/svg" xmlns:xlink="http://www.w3.org/1999/xlink" x="0px" y="0px"
	 viewBox="0 0 511.999 511.999" style="enable-background:new 0 0 511.999 511.999;" xml:space="preserve">
<g>
	<g>
		<g>
			<path style="fill:#231F20;" d="M446.106,0H261.789c-36.077,0-65.325,29.246-65.325,65.325v26.498
				c0,7.166,5.809,12.975,12.975,12.975h40.772c19.353,0,37.477,5.324,53.024,14.554c1.97,1.169,4.227,1.763,6.518,1.763H416.82
				c26.564,0,26.213,38.924,0.55,38.924h-55.804c-8.801,0-14.87,8.605-12.166,16.98c0.891,2.76,1.67,5.569,2.332,8.423
				c1.353,5.837,6.613,9.931,12.605,9.931h52.484c26.564,0,26.213,38.924,0.55,38.924h-49.936c-7.166,0-12.975,5.809-12.975,12.975
				v78.452c0,4.001,1.846,7.78,5.006,10.238l36.22,28.194c13.286,10.342,32.779,0,31.348-16.993l-5.565-66.008h24.639
				c36.077,0,65.324-29.246,65.324-65.324V65.324C511.43,29.246,482.184,0,446.106,0z M417.37,85.781H290.529
				c-25.717,0-25.744-38.924,0-38.924H417.37C443.087,46.857,443.113,85.781,417.37,85.781z"/>
			<path style="fill:#231F20;" d="M250.21,143.722H65.892c-36.019,0-65.324,29.31-65.324,65.337v150.494
				c0,36.02,29.305,65.324,65.324,65.324h24.639l-5.565,66.008c-1.431,16.998,18.088,27.313,31.348,16.993l106.63-83h27.266
				c36.02,0,65.325-29.303,65.325-65.324V209.059C315.535,173.032,286.231,143.722,250.21,143.722z M221.469,378.025H94.628
				c-25.717,0-25.744-38.924,0-38.924h126.841C247.186,339.1,247.212,378.025,221.469,378.025z M221.469,303.766H94.628
				c-25.717,0-25.744-38.924,0-38.924h126.841C247.186,264.842,247.212,303.766,221.469,303.766z M221.469,229.51H94.628
				c-25.717,0-25.744-38.924,0-38.924h126.841C247.186,190.585,247.212,229.51,221.469,229.51z"/>
		</g>
	</g>
</g>
<g>
</g>
<g>
</g>
<g>
</g>
<g>
</g>
<g>
</g>
<g>
</g>
<g>
</g>
<g>
</g>
<g>
</g>
<g>
</g>
<g>
</g>
<g>
</g>
<g>
</g>
<g>
</g>
<g>
</g>
</svg>
