<?xml version="1.0" encoding="iso-8859-1"?>
<!-- Generator: Adobe Illustrator 19.0.0, SVG Export Plug-In . SVG Version: 6.00 Build 0)  -->
<svg version="1.1" id="Layer_1" xmlns="http://www.w3.org/2000/svg" xmlns:xlink="http://www.w3.org/1999/xlink" x="0px" y="0px"
	 viewBox="0 0 512 512" style="enable-background:new 0 0 512 512;" xml:space="preserve">
<g>
	<g>
		<path style="fill:#231F20;" d="M388.226,0H123.774C76.607,0,38.233,38.374,38.233,85.541v215.933
			c0,47.167,38.374,85.541,85.541,85.541h44.257l-8.725,103.57c-1.454,17.244,18.352,27.698,31.795,17.234l155.205-120.804h41.92
			c47.167,0,85.541-38.373,85.541-85.541V85.541C473.766,38.374,435.393,0,388.226,0z M178.174,217.195
			c-13.082,0-23.688-10.606-23.688-23.688s10.606-23.688,23.688-23.688s23.688,10.606,23.688,23.688
			S191.256,217.195,178.174,217.195z M256.001,217.195c-13.082,0-23.688-10.606-23.688-23.688s10.606-23.688,23.688-23.688
			c13.082,0,23.688,10.606,23.688,23.688S269.084,217.195,256.001,217.195z M333.827,217.195c-13.082,0-23.688-10.606-23.688-23.688
			s10.606-23.688,23.688-23.688c13.082,0,23.688,10.606,23.688,23.688C357.515,206.59,346.91,217.195,333.827,217.195z"/>
	</g>
</g>
<g>
</g>
<g>
</g>
<g>
</g>
<g>
</g>
<g>
</g>
<g>
</g>
<g>
</g>
<g>
</g>
<g>
</g>
<g>
</g>
<g>
</g>
<g>
</g>
<g>
</g>
<g>
</g>
<g>
</g>
</svg>
