<?xml version="1.0" encoding="iso-8859-1"?>
<!-- Generator: Adobe Illustrator 19.0.0, SVG Export Plug-In . SVG Version: 6.00 Build 0)  -->
<svg version="1.1" id="Layer_1" xmlns="http://www.w3.org/2000/svg" xmlns:xlink="http://www.w3.org/1999/xlink" x="0px" y="0px"
	 viewBox="0 0 512 512" style="enable-background:new 0 0 512 512;" xml:space="preserve">
<g>
	<g>
		<g>
			<path style="fill:#231F20;" d="M2.265,177.641c-3.432,12.724-1.969,243.96-1.877,245.203l156.856-143.769L2.265,177.641z"/>
			<path style="fill:#231F20;" d="M255.981,330.909c-23.957,0-35.211-10.256-66.562-30.775L16.151,458.946
				c10.883,11.711,26.403,19.058,43.614,19.058h392.432c17.211,0,32.731-7.346,43.614-19.058L322.542,300.134
				C291.192,320.653,279.937,330.909,255.981,330.909z"/>
			<path style="fill:#231F20;" d="M509.696,177.641L354.718,279.075l156.855,143.769
				C511.665,421.592,513.239,190.772,509.696,177.641z"/>
			<path style="fill:#231F20;" d="M287.776,278.746c0.594-0.389,201.421-132.227,201.421-132.227
				c-18.827-14.975-35.861-12.94-56.849-12.94h-18.633v-80.95c0-10.29-8.343-18.633-18.633-18.633H116.88
				c-10.29,0-18.633,8.343-18.633,18.633v80.95h-0.001H79.613c-20.766,0-37.877-2.15-56.849,12.94
				c0,0,200.835,131.843,201.425,132.229C253.688,298.052,255.684,299.746,287.776,278.746z M198.45,75.336h115.061
				c10.29,0,18.633,8.343,18.633,18.633s-8.343,18.633-18.633,18.633H198.45c-10.29,0-18.633-8.343-18.633-18.633
				S188.16,75.336,198.45,75.336z M154.973,159.843c0-10.29,8.343-18.633,18.633-18.633h164.749c10.29,0,18.633,8.343,18.633,18.633
				s-8.343,18.633-18.633,18.633H173.606C163.316,178.476,154.973,170.133,154.973,159.843z"/>
		</g>
	</g>
</g>
<g>
</g>
<g>
</g>
<g>
</g>
<g>
</g>
<g>
</g>
<g>
</g>
<g>
</g>
<g>
</g>
<g>
</g>
<g>
</g>
<g>
</g>
<g>
</g>
<g>
</g>
<g>
</g>
<g>
</g>
</svg>
