<?xml version="1.0" encoding="iso-8859-1"?>
<!-- Generator: Adobe Illustrator 19.0.0, SVG Export Plug-In . SVG Version: 6.00 Build 0)  -->
<svg version="1.1" id="Layer_1" xmlns="http://www.w3.org/2000/svg" xmlns:xlink="http://www.w3.org/1999/xlink" x="0px" y="0px"
	 viewBox="0 0 512.001 512.001" style="enable-background:new 0 0 512.001 512.001;" xml:space="preserve">
<g>
	<g>
		<g>
			<path style="fill:#231F20;" d="M256,232.985c-23.991,0-35.302-10.318-66.552-30.771L16.2,361.006
				c10.882,11.71,26.4,19.056,43.608,19.056h88.049c0,0,0-0.001,0-0.001c0.047,4.745,1.903,9.473,5.574,13.048l80.048,77.957
				c11.64,11.337,31.36,3.148,31.36-13.234v-21.308h80.841c10.202,0,18.473-8.271,18.473-18.473v-37.991H147.857
				c-0.048-4.864,1.802-9.745,5.574-13.418l80.048-77.955c11.677-11.38,31.36-3.067,31.36,13.234v21.305h80.841
				c10.202,0,18.473,8.271,18.473,18.473v38.362h88.04c17.208,0,32.726-7.345,43.608-19.056L322.553,202.213
				C291.225,222.718,279.962,232.985,256,232.985z"/>
			<path style="fill:#231F20;" d="M509.683,79.735L354.725,181.156l156.836,143.752C511.666,323.477,513.249,92.947,509.683,79.735z
				"/>
			<path style="fill:#231F20;" d="M271.485,191.105L489.188,48.617c-10.169-8.089-23.024-12.939-36.996-12.939H59.809
				c-13.973,0-26.826,4.85-36.995,12.939l217.703,142.487C249.921,197.263,262.079,197.261,271.485,191.105z"/>
			<path style="fill:#231F20;" d="M2.316,79.735c-3.561,13.196-1.983,243.741-1.877,245.173l156.836-143.752L2.316,79.735z"/>
		</g>
	</g>
</g>
<g>
</g>
<g>
</g>
<g>
</g>
<g>
</g>
<g>
</g>
<g>
</g>
<g>
</g>
<g>
</g>
<g>
</g>
<g>
</g>
<g>
</g>
<g>
</g>
<g>
</g>
<g>
</g>
<g>
</g>
</svg>
