<?xml version="1.0" encoding="iso-8859-1"?>
<!-- Generator: Adobe Illustrator 19.0.0, SVG Export Plug-In . SVG Version: 6.00 Build 0)  -->
<svg version="1.1" id="Layer_1" xmlns="http://www.w3.org/2000/svg" xmlns:xlink="http://www.w3.org/1999/xlink" x="0px" y="0px"
	 viewBox="0 0 512 512" style="enable-background:new 0 0 512 512;" xml:space="preserve">
<g>
	<g>
		<g>
			<path style="fill:#231F20;" d="M410.463,0H101.538C76.14,0,55.476,20.663,55.476,46.062v419.876
				c0,25.399,20.663,46.062,46.062,46.062h308.923c25.399,0,46.062-20.663,46.062-46.062V46.062C456.525,20.663,435.86,0,410.463,0z
				 M370.981,422.337H141.02c-10.902,0-19.741-8.839-19.741-19.741V85.544c0-10.902,8.839-19.741,19.741-19.741h229.96
				c10.902,0,19.741,8.839,19.741,19.741v317.053h0.001C390.722,413.498,381.883,422.337,370.981,422.337z"/>
			<path style="fill:#231F20;" d="M224.415,167.409h63.171c10.902,0,19.741-8.839,19.741-19.741s-8.839-19.741-19.741-19.741
				h-63.171c-10.902,0-19.741,8.839-19.741,19.741C204.674,158.572,213.512,167.409,224.415,167.409z"/>
			<path style="fill:#231F20;" d="M312.59,203.62H199.41c-10.902,0-19.741,8.839-19.741,19.741s8.839,19.741,19.741,19.741H312.59
				c10.902,0,19.741-8.839,19.741-19.741S323.494,203.62,312.59,203.62z"/>
			<path style="fill:#231F20;" d="M312.59,262.176H199.41c-10.902,0-19.741,8.839-19.741,19.741s8.839,19.741,19.741,19.741H312.59
				c10.902,0,19.741-8.839,19.741-19.741S323.494,262.176,312.59,262.176z"/>
			<path style="fill:#231F20;" d="M312.59,320.73H199.41c-10.902,0-19.741,8.839-19.741,19.741s8.839,19.741,19.741,19.741H312.59
				c10.902,0,19.741-8.839,19.741-19.741S323.494,320.73,312.59,320.73z"/>
		</g>
	</g>
</g>
<g>
</g>
<g>
</g>
<g>
</g>
<g>
</g>
<g>
</g>
<g>
</g>
<g>
</g>
<g>
</g>
<g>
</g>
<g>
</g>
<g>
</g>
<g>
</g>
<g>
</g>
<g>
</g>
<g>
</g>
</svg>
