<?xml version="1.0" encoding="iso-8859-1"?>
<!-- Generator: Adobe Illustrator 19.0.0, SVG Export Plug-In . SVG Version: 6.00 Build 0)  -->
<svg version="1.1" id="Layer_1" xmlns="http://www.w3.org/2000/svg" xmlns:xlink="http://www.w3.org/1999/xlink" x="0px" y="0px"
	 viewBox="0 0 512 512" style="enable-background:new 0 0 512 512;" xml:space="preserve">
<g>
	<g>
		<g>
			<circle style="fill:#231F20;" cx="280.329" cy="323.123" r="32.29"/>
			<path style="fill:#231F20;" d="M408.734,59.624h-44.005c-56.941,0-103.266,46.325-103.266,103.267v42.542L15.874,244.855
				C6.728,246.324,0,254.216,0,263.479v21.078c0,3.776,3.305,6.701,7.054,6.241l329.84-40.475
				c10.729-1.417,21.338,6.595,21.338,19.019v107.461c0,12.51-10.572,20.546-21.338,19.121L7.054,355.45
				C3.305,354.99,0,357.915,0,361.691v21.076c0,9.263,6.728,17.157,15.874,18.625l311.587,50.016
				c45.835,7.349,87.039-28.134,87.039-74.183V269.024c0-46.265-41.423-81.496-87.039-74.183l-28.272,4.538v-36.486
				c0-36.139,29.401-65.541,65.54-65.541h44.005c36.139,0,65.54,29.401,65.54,65.541v160.23c0,10.417,8.446,18.863,18.863,18.863
				S512,333.54,512,323.123V162.891C512,105.949,465.676,59.624,408.734,59.624z"/>
		</g>
	</g>
</g>
<g>
</g>
<g>
</g>
<g>
</g>
<g>
</g>
<g>
</g>
<g>
</g>
<g>
</g>
<g>
</g>
<g>
</g>
<g>
</g>
<g>
</g>
<g>
</g>
<g>
</g>
<g>
</g>
<g>
</g>
</svg>
