<?xml version="1.0" encoding="iso-8859-1"?>
<!-- Generator: Adobe Illustrator 19.0.0, SVG Export Plug-In . SVG Version: 6.00 Build 0)  -->
<svg version="1.1" id="Layer_1" xmlns="http://www.w3.org/2000/svg" xmlns:xlink="http://www.w3.org/1999/xlink" x="0px" y="0px"
	 viewBox="0 0 511.999 511.999" style="enable-background:new 0 0 511.999 511.999;" xml:space="preserve">
<g>
	<g>
		<g>
			<path style="fill:#231F20;" d="M423.892,180.63h-9.059v-5.307c0-87.581-71.252-158.833-158.834-158.833
				S97.165,87.742,97.165,175.322v5.307h-9.059c-10.768,0-19.498,8.73-19.498,19.498v165.461c0,10.768,8.73,19.498,19.498,19.498
				h57.112c10.768,0,19.498-8.73,19.498-19.498V200.127c0-10.768-8.73-19.498-19.498-19.498h-9.059v-5.307
				c0-66.079,53.759-119.838,119.839-119.838s119.839,53.759,119.839,119.838v5.307h-9.059c-10.768,0-19.498,8.73-19.498,19.498
				v165.461c0,10.768,8.73,19.498,19.498,19.498h6.129c-8.16,26.474-31.071,46.81-69.035,46.81
				c-7.211-14.571-22.231-24.619-39.561-24.619h-16.626c-24.327,0-44.117,19.791-44.117,44.117
				c0,24.327,19.791,44.117,44.117,44.117h16.626c17.33,0,32.35-10.048,39.561-24.619c60.675,0,100.275-38.768,109.12-85.805h10.898
				c10.768,0,19.498-8.73,19.498-19.498V200.127C443.39,189.359,434.66,180.63,423.892,180.63z"/>
			<path style="fill:#231F20;" d="M493.715,233.421c-3.909-4.496-11.331-1.609-11.331,4.347v90.174
				c0,5.957,7.423,8.843,11.331,4.347C518.092,304.245,518.097,261.469,493.715,233.421z"/>
			<path style="fill:#231F20;" d="M18.284,233.421c-24.382,28.048-24.376,70.823,0,98.869c3.907,4.496,11.331,1.609,11.331-4.347
				v-90.174C29.614,231.812,22.192,228.927,18.284,233.421z"/>
		</g>
	</g>
</g>
<g>
</g>
<g>
</g>
<g>
</g>
<g>
</g>
<g>
</g>
<g>
</g>
<g>
</g>
<g>
</g>
<g>
</g>
<g>
</g>
<g>
</g>
<g>
</g>
<g>
</g>
<g>
</g>
<g>
</g>
</svg>
