<?xml version="1.0" encoding="iso-8859-1"?>
<!-- Generator: Adobe Illustrator 19.0.0, SVG Export Plug-In . SVG Version: 6.00 Build 0)  -->
<svg version="1.1" id="Layer_1" xmlns="http://www.w3.org/2000/svg" xmlns:xlink="http://www.w3.org/1999/xlink" x="0px" y="0px"
	 viewBox="0 0 511.999 511.999" style="enable-background:new 0 0 511.999 511.999;" xml:space="preserve">
<g>
	<g>
		<g>
			<path style="fill:#231F20;" d="M386.314,193.659c-11.335,0-20.524,9.189-20.524,20.524c0,60.539-49.252,109.79-109.79,109.79
				c-60.539,0-109.79-49.252-109.79-109.79c0-11.335-9.189-20.524-20.524-20.524c-11.335,0-20.524,9.189-20.524,20.524
				c0,83.173,67.666,150.839,150.839,150.839s150.839-67.666,150.839-150.839C406.839,202.848,397.649,193.659,386.314,193.659z"/>
			<path style="fill:#231F20;" d="M255.995,402.932c-48.823,0-88.544,39.719-88.544,88.542c0,11.335,9.19,20.524,20.524,20.524
				h136.037c11.335,0,20.524-9.189,20.524-20.524C344.538,442.652,304.819,402.932,255.995,402.932z"/>
			<path style="fill:#231F20;" d="M254.078,282.865c31.881,0.779,59.573-17.897,72.034-44.974c2.069-4.495-1.31-9.616-6.257-9.616
				h-38.429v-0.001c-11.665,0-21.057-9.73-20.501-21.516c0.52-11.039,10.03-19.532,21.081-19.532h44.296
				c3.778,0,6.841-3.064,6.841-6.841v-11.573c0-3.778-3.064-6.841-6.841-6.841h-44.296c-11.052,0-20.561-8.493-21.081-19.532
				c-0.555-11.786,8.836-21.516,20.501-21.516h44.876c3.778,0,6.841-3.064,6.841-6.841v-11.573c0-3.778-3.064-6.841-6.841-6.841
				h-44.296c-11.052,0-20.561-8.493-21.081-19.532c-0.555-11.786,8.836-21.516,20.501-21.516h38.429
				c4.949,0,8.326-5.122,6.257-9.616C313.65,17.921,285.96-0.755,254.078,0.023c-42.061,1.028-75.225,36.321-75.225,78.395V204.47
				C178.854,246.543,212.017,281.837,254.078,282.865z"/>
		</g>
	</g>
</g>
<g>
</g>
<g>
</g>
<g>
</g>
<g>
</g>
<g>
</g>
<g>
</g>
<g>
</g>
<g>
</g>
<g>
</g>
<g>
</g>
<g>
</g>
<g>
</g>
<g>
</g>
<g>
</g>
<g>
</g>
</svg>
