<?xml version="1.0" encoding="iso-8859-1"?>
<!-- Generator: Adobe Illustrator 19.0.0, SVG Export Plug-In . SVG Version: 6.00 Build 0)  -->
<svg version="1.1" id="Layer_1" xmlns="http://www.w3.org/2000/svg" xmlns:xlink="http://www.w3.org/1999/xlink" x="0px" y="0px"
	 viewBox="0 0 512 512" style="enable-background:new 0 0 512 512;" xml:space="preserve">
<g>
	<g>
		<g>
			<path style="fill:#231F20;" d="M366.355,369.557c3.597,0,6.514-2.917,6.514-6.514V223.215c0-3.597-2.917-6.514-6.514-6.514
				h-220.71c-3.598,0-6.514,2.917-6.514,6.514v139.828c0,3.597,2.917,6.514,6.514,6.514H366.355z M204.271,275.327
				c0-10.792,8.75-19.542,19.542-19.542h64.374c10.792,0,19.542,8.75,19.542,19.542v35.604c0,10.792-8.75,19.542-19.542,19.542
				h-64.374c-10.792,0-19.542-8.75-19.542-19.542V275.327z"/>
			<path style="fill:#231F20;" d="M375.666,74.259H136.333c-10.792,0-19.542,8.75-19.542,19.542v64.274
				c0,10.792,8.75,19.542,19.542,19.542h239.333c10.794,0,19.542-8.748,19.542-19.541V93.801
				C395.208,83.009,386.459,74.259,375.666,74.259z"/>
			<path style="fill:#231F20;" d="M375.666,408.642H136.333c-10.792,0-19.542,8.75-19.542,19.542v64.274
				c0,10.792,8.75,19.542,19.542,19.542h239.333c10.794,0,19.542-8.75,19.542-19.542v-64.274
				C395.208,417.392,386.459,408.642,375.666,408.642z"/>
			<path style="fill:#231F20;" d="M222.568,35.175h66.86c6.233,0,8.906-7.912,3.951-11.693L267.851,4.006
				c-7-5.341-16.708-5.34-23.708,0l-25.526,19.477C213.662,27.263,216.335,35.175,222.568,35.175z"/>
		</g>
	</g>
</g>
<g>
</g>
<g>
</g>
<g>
</g>
<g>
</g>
<g>
</g>
<g>
</g>
<g>
</g>
<g>
</g>
<g>
</g>
<g>
</g>
<g>
</g>
<g>
</g>
<g>
</g>
<g>
</g>
<g>
</g>
</svg>
