<?xml version="1.0" encoding="iso-8859-1"?>
<!-- Generator: Adobe Illustrator 19.0.0, SVG Export Plug-In . SVG Version: 6.00 Build 0)  -->
<svg version="1.1" id="Layer_1" xmlns="http://www.w3.org/2000/svg" xmlns:xlink="http://www.w3.org/1999/xlink" x="0px" y="0px"
	 viewBox="0 0 512 512" style="enable-background:new 0 0 512 512;" xml:space="preserve">
<g>
	<g>
		<path style="fill:#231F20;" d="M441.498,97.996h-243.2l155.158-57.325c10.123-3.74,15.298-14.978,11.558-25.102
			c-3.739-10.123-14.978-15.296-25.1-11.556L85.532,97.996H70.502C31.627,97.996,0,129.623,0,168.499V438.7
			c0,38.875,31.627,70.503,70.502,70.503h370.996c38.875,0,70.502-31.627,70.502-70.503V168.499
			C512,129.623,480.373,97.996,441.498,97.996z M155.469,401.572c-29.664,0-53.795-24.132-53.795-53.795
			c0-29.662,24.131-53.795,53.795-53.795s53.795,24.132,53.795,53.795C209.264,377.44,185.131,401.572,155.469,401.572z
			 M326.647,431.456c-46.141,0-83.679-37.539-83.679-83.679c0-46.14,37.537-83.679,83.679-83.679s83.679,37.538,83.679,83.679
			C410.326,393.918,372.789,431.456,326.647,431.456z M422.974,226.268H89.026c-10.792,0-19.54-8.749-19.54-19.54
			c0-10.792,8.749-19.54,19.54-19.54h333.949c10.792,0,19.54,8.749,19.54,19.54C442.515,217.52,433.767,226.268,422.974,226.268z"/>
	</g>
</g>
<g>
</g>
<g>
</g>
<g>
</g>
<g>
</g>
<g>
</g>
<g>
</g>
<g>
</g>
<g>
</g>
<g>
</g>
<g>
</g>
<g>
</g>
<g>
</g>
<g>
</g>
<g>
</g>
<g>
</g>
</svg>
