<?xml version="1.0" encoding="iso-8859-1"?>
<!-- Generator: Adobe Illustrator 19.0.0, SVG Export Plug-In . SVG Version: 6.00 Build 0)  -->
<svg version="1.1" id="Layer_1" xmlns="http://www.w3.org/2000/svg" xmlns:xlink="http://www.w3.org/1999/xlink" x="0px" y="0px"
	 viewBox="0 0 512 512" style="enable-background:new 0 0 512 512;" xml:space="preserve">
<g>
	<g>
		<path style="fill:#231F20;" d="M388.227,0H123.774C76.606,0,38.232,38.374,38.232,85.541v215.935
			c0,47.167,38.374,85.541,85.541,85.541h44.258l-8.727,103.571c-1.454,17.269,18.376,27.681,31.795,17.235l155.206-120.805h41.92
			c47.167,0,85.541-38.374,85.541-85.541V85.541C473.768,38.374,435.394,0,388.227,0z M178.662,281.487
			c0,10.902-8.838,19.74-19.74,19.74s-19.74-8.838-19.74-19.74V159.103c0-10.902,8.838-19.74,19.74-19.74s19.74,8.838,19.74,19.74
			V281.487z M313.598,301.228h-92.793c-10.902,0-19.74-8.838-19.74-19.74V159.103c0-10.902,8.838-19.74,19.74-19.74h3.656v-1.171
			c0-28.895,23.508-52.403,52.403-52.403c28.895,0,52.403,23.508,52.403,52.403v1.171h23.811c10.902,0,19.74,8.838,19.74,19.74
			v82.904h0.001C372.819,274.661,346.253,301.228,313.598,301.228z"/>
	</g>
</g>
<g>
</g>
<g>
</g>
<g>
</g>
<g>
</g>
<g>
</g>
<g>
</g>
<g>
</g>
<g>
</g>
<g>
</g>
<g>
</g>
<g>
</g>
<g>
</g>
<g>
</g>
<g>
</g>
<g>
</g>
</svg>
