<?xml version="1.0" encoding="iso-8859-1"?>
<!-- Generator: Adobe Illustrator 19.0.0, SVG Export Plug-In . SVG Version: 6.00 Build 0)  -->
<svg version="1.1" id="Layer_1" xmlns="http://www.w3.org/2000/svg" xmlns:xlink="http://www.w3.org/1999/xlink" x="0px" y="0px"
	 viewBox="0 0 512 512" style="enable-background:new 0 0 512 512;" xml:space="preserve">
<g>
	<g>
		<path style="fill:#231F20;" d="M431.83,0H150.094c-34.591,0-62.733,28.142-62.733,62.733v174.768
			c-40.023,9.388-69.925,45.357-69.925,88.202v95.683c0,49.965,40.649,90.614,90.614,90.614c14.403,0,64.156,0,81.054,0v-56.639
			c-26.097-4.639-45.98-27.476-45.98-54.886v-288.95c0-30.747,25.015-55.762,55.763-55.762h22.258
			c30.747,0,55.762,25.015,55.762,55.762v288.95c0,27.409-19.883,50.246-45.979,54.886V512h200.904
			c34.592,0,62.733-28.142,62.733-62.733V62.733C494.562,28.142,466.422,0,431.83,0z M59.258,421.386v-95.683
			c0-19.51,11.515-36.374,28.103-44.175c0,182.243-0.935,173.328,2.463,185.105C71.926,459.398,59.258,441.848,59.258,421.386z
			 M322.736,102.331c0-11.548,9.363-20.911,20.911-20.911h74.241c11.548,0,20.911,9.362,20.911,20.911v42.708
			c0,11.548-9.363,20.911-20.911,20.911h-74.241c-11.548,0-20.911-9.363-20.911-20.911V102.331z M322.736,233.611
			c0-8.777,7.115-15.892,15.892-15.892h26.246v90.537h-42.138V233.611z M364.877,430.58h-0.001H338.63
			c-8.777,0-15.892-7.115-15.892-15.892v-74.645h42.14V430.58z M396.66,217.719h26.245c8.777,0,15.892,7.115,15.892,15.892v74.645
			H396.66V217.719z M438.8,414.688h-0.001c0,8.777-7.115,15.892-15.892,15.892h-26.245v-90.539H438.8V414.688z"/>
	</g>
</g>
<g>
</g>
<g>
</g>
<g>
</g>
<g>
</g>
<g>
</g>
<g>
</g>
<g>
</g>
<g>
</g>
<g>
</g>
<g>
</g>
<g>
</g>
<g>
</g>
<g>
</g>
<g>
</g>
<g>
</g>
</svg>
