<?xml version="1.0" encoding="iso-8859-1"?>
<!-- Generator: Adobe Illustrator 19.0.0, SVG Export Plug-In . SVG Version: 6.00 Build 0)  -->
<svg version="1.1" id="Layer_1" xmlns="http://www.w3.org/2000/svg" xmlns:xlink="http://www.w3.org/1999/xlink" x="0px" y="0px"
	 viewBox="0 0 512 512" style="enable-background:new 0 0 512 512;" xml:space="preserve">
<g>
	<g>
		<path style="fill:#231F20;" d="M388.226,0H123.774C76.607,0,38.233,38.374,38.233,85.541v215.933
			c0,47.167,38.374,85.541,85.541,85.541h44.257l-8.725,103.57c-1.454,17.244,18.352,27.698,31.795,17.234l155.205-120.804h41.92
			c47.167,0,85.541-38.373,85.541-85.541V85.541C473.766,38.374,435.393,0,388.226,0z M361.37,134.018
			c-4.339,4.926-9.203,9.398-14.493,13.305c-0.873,0.645-1.371,1.662-1.34,2.747c0.039,1.38,0.053,2.769,0.053,4.156
			c0,60.048-46.413,129.278-131.328,129.278c-21.034,0-40.907-4.905-58.539-13.572c-3.081-1.515-2.052-6.139,1.379-6.233
			c16.555-0.451,32.957-5.223,47.422-14.316c2.525-1.587,1.82-5.43-1.104-6.019c-14.468-2.914-26.475-12.484-32.571-25.312
			c-1.073-2.256,0.744-4.819,3.235-4.639c4.906,0.355,5.401-4.576,2.498-6.141c-14.322-7.72-24.038-22.692-24.038-39.884v-0.576
			c2.8,1.529,5.783,2.783,8.905,3.723c3.211,0.966,5.602-2.932,3.336-5.404c-12.176-13.273-15.295-32.498-7.941-48.834
			c0.975-2.166,3.868-2.598,5.45-0.825c21.798,24.43,52.806,40.695,87.69,43.544c2.107,0.172,3.868-1.641,3.551-3.732
			c-6.491-42.898,47.226-69.013,78.172-38.692c0.796,0.78,1.92,1.15,3.01,0.917c6.742-1.442,13.21-3.599,19.318-6.392
			c2.944-1.346,5.848,1.894,4.199,4.678c-1.76,2.973-3.852,5.73-6.227,8.222c-2.264,2.375,0.047,6.269,3.219,5.427
			c0.934-0.247,1.862-0.511,2.783-0.786C361.171,127.713,363.552,131.542,361.37,134.018z"/>
	</g>
</g>
<g>
</g>
<g>
</g>
<g>
</g>
<g>
</g>
<g>
</g>
<g>
</g>
<g>
</g>
<g>
</g>
<g>
</g>
<g>
</g>
<g>
</g>
<g>
</g>
<g>
</g>
<g>
</g>
<g>
</g>
</svg>
