<?xml version="1.0" encoding="iso-8859-1"?>
<!-- Generator: Adobe Illustrator 19.0.0, SVG Export Plug-In . SVG Version: 6.00 Build 0)  -->
<svg version="1.1" id="Layer_1" xmlns="http://www.w3.org/2000/svg" xmlns:xlink="http://www.w3.org/1999/xlink" x="0px" y="0px"
	 viewBox="0 0 459 459" style="enable-background:new 0 0 459 459;" xml:space="preserve">
<g id="XMLID_164_">
	<g>
		<g>
			<path d="M229.5,0C102.751,0,0,102.751,0,229.5S102.751,459,229.5,459S459,356.249,459,229.5S356.249,0,229.5,0z M322.951,273.937
				h-15.047v23.425h-27.357v-23.425h-47.022v-24.451l55.74-71.473h18.639v71.302h15.047V273.937z M396.782,272.506
				c-2.929,2.929-6.768,4.394-10.606,4.394c-3.839,0-7.678-1.464-10.607-4.394c-5.032-5.032-35.134-35.134-41.899-41.899
				c-5.858-5.858-5.858-15.355,0-21.213c5.857-5.858,15.355-5.858,21.213,0l15.015,15.015C367.207,149.286,305.266,89,229.5,89
				C152.028,89,89,152.028,89,229.5S152.028,370,229.5,370c4.142,0,7.892,1.679,10.607,4.393c2.714,2.715,4.393,6.465,4.393,10.607
				c0,8.284-6.716,15-15,15C135.486,400,59,323.514,59,229.5S135.486,59,229.5,59c93.143,0,169.068,75.079,170.467,167.895
				l17.502-17.501c5.857-5.858,15.355-5.858,21.213,0c5.858,5.858,5.858,15.355,0,21.213L396.782,272.506z M188.044,202.977
				c-5.28-4.484-16.096-3.456-22.228,0.598c-3.535,2.338-6.955,5.386-10.259,9.148l-17.441-20.176
				c6.489-7.306,23.603-16.244,44.97-16.244c12.311,0,21.742,2.68,28.298,8.037c6.554,5.359,9.832,12.597,9.832,21.715
				c0,26.566-33.069,32.145-44.628,44.97h46.509v24.622h-85.152c0-30.646,12.41-37.235,39.071-51.638
				c12.215-6.59,14.448-9.59,14.448-13.337C191.464,207.482,190.323,204.917,188.044,202.977z"/>
			<polygon points="283.795,249.315 283.795,219.05 260.541,249.315 			"/>
		</g>
	</g>
</g>
<g>
</g>
<g>
</g>
<g>
</g>
<g>
</g>
<g>
</g>
<g>
</g>
<g>
</g>
<g>
</g>
<g>
</g>
<g>
</g>
<g>
</g>
<g>
</g>
<g>
</g>
<g>
</g>
<g>
</g>
</svg>
