<?xml version="1.0" encoding="iso-8859-1"?>
<!-- Generator: Adobe Illustrator 19.0.0, SVG Export Plug-In . SVG Version: 6.00 Build 0)  -->
<svg version="1.1" id="Layer_1" xmlns="http://www.w3.org/2000/svg" xmlns:xlink="http://www.w3.org/1999/xlink" x="0px" y="0px"
	 viewBox="0 0 455.657 455.657" style="enable-background:new 0 0 455.657 455.657;" xml:space="preserve">
<g id="XMLID_85_">
	<g>
		<g>
			<path d="M431.462,174.075v9.373c0,19.579-16.806,34.699-37.137,34.699c-15.028,0-28.781-8.376-34.47-21.682v102.341
				c0,10.516-3.602,20.201-9.623,27.909h31.951c8.402,0,15.214,6.811,15.214,15.214c0,8.403-6.812,15.214-15.214,15.214h-223.55
				c-7.616,0-13.907-5.603-15.021-12.908h-24.99H95.801v77.404c0,18.758,15.26,34.018,34.017,34.018h281.18
				c18.757,0,34.018-15.26,34.018-34.018v-220.41C445.017,190.148,439.689,180.29,431.462,174.075z M382.184,408.746H162.082
				c-8.403,0-15.214-6.811-15.214-15.214c0-8.403,6.812-15.214,15.214-15.214h220.101c8.402,0,15.214,6.811,15.214,15.214
				S390.585,408.746,382.184,408.746z"/>
			<path d="M394.325,200.184c9.243,0,16.736-7.493,16.736-16.736v-43.879c0-9.243-7.493-16.736-16.736-16.736
				s-16.736,7.493-16.736,16.736v43.879C377.59,192.691,385.082,200.184,394.325,200.184z"/>
			<path d="M337.033,298.807V78.396c0-3.993-1.039-7.741-2.856-10.997c-3.478,16.666-19.009,27.915-36.425,27.915
				c-20.303,0-37.137-15.101-37.137-34.699V55.79h-7.414v4.826c0,19.623-16.861,34.699-37.137,34.699
				c-20.303,0-37.137-15.101-37.137-34.699V55.79h-7.414v4.826c0,19.623-16.86,34.699-37.137,34.699
				c-20.303,0-37.138-15.101-37.138-34.699V55.79h-7.414v4.826c0,19.623-16.86,34.699-37.137,34.699
				c-18.982,0-35.057-13.21-36.946-31.22c-3.187,3.897-5.101,8.875-5.101,14.302v220.41c0,12.486,10.122,22.607,22.607,22.607
				h281.18C326.911,321.414,337.033,311.292,337.033,298.807z M58.989,140.888h102.337c8.402,0,15.214,6.812,15.214,15.215
				c0,8.403-6.812,15.215-15.214,15.215H58.989c-8.403,0-15.214-6.812-15.214-15.215C43.775,147.7,50.586,140.888,58.989,140.888z
				 M282.538,274.523H62.437c-8.403,0-15.214-6.811-15.214-15.214c0-8.403,6.812-15.214,15.214-15.214h220.101
				c8.403,0,15.214,6.811,15.214,15.214C297.752,267.712,290.941,274.523,282.538,274.523z M282.538,222.92H58.989
				c-8.403,0-15.214-6.811-15.214-15.214s6.812-15.214,15.214-15.214h223.549c8.403,0,15.214,6.812,15.214,15.214
				C297.752,216.109,290.941,222.92,282.538,222.92z"/>
			<path d="M216.063,77.352c9.243,0,16.736-7.493,16.736-16.736v-43.88C232.8,7.493,225.306,0,216.063,0
				c-9.243,0-16.736,7.493-16.736,16.736v43.879C199.327,69.858,206.82,77.352,216.063,77.352z"/>
			<path d="M134.374,77.352c9.243,0,16.736-7.493,16.736-16.736v-43.88C151.11,7.493,143.617,0,134.374,0
				s-16.736,7.493-16.736,16.736v43.879C117.638,69.858,125.131,77.352,134.374,77.352z"/>
			<path d="M52.686,77.352c9.243,0,16.736-7.493,16.736-16.736v-43.88C69.422,7.493,61.929,0,52.686,0S35.95,7.493,35.95,16.736
				v43.879C35.95,69.858,43.444,77.352,52.686,77.352z"/>
			<path d="M297.752,77.352c9.243,0,16.736-7.493,16.736-16.736v-43.88C314.489,7.493,306.996,0,297.752,0
				c-9.243,0-16.736,7.493-16.736,16.736v43.879C281.017,69.858,288.509,77.352,297.752,77.352z"/>
		</g>
	</g>
</g>
<g>
</g>
<g>
</g>
<g>
</g>
<g>
</g>
<g>
</g>
<g>
</g>
<g>
</g>
<g>
</g>
<g>
</g>
<g>
</g>
<g>
</g>
<g>
</g>
<g>
</g>
<g>
</g>
<g>
</g>
</svg>
