<?xml version="1.0" encoding="iso-8859-1"?>
<!-- Generator: Adobe Illustrator 19.0.0, SVG Export Plug-In . SVG Version: 6.00 Build 0)  -->
<svg version="1.1" id="Layer_1" xmlns="http://www.w3.org/2000/svg" xmlns:xlink="http://www.w3.org/1999/xlink" x="0px" y="0px"
	 viewBox="0 0 459.052 459.052" style="enable-background:new 0 0 459.052 459.052;" xml:space="preserve">
<g id="XMLID_23_">
	<g>
		<g>
			<path d="M441.725,77.314v15.472c0,25.496-21.881,45.613-48.818,45.613c-26.816,0-48.818-19.977-48.818-45.613v-21.84h-9.746
				v21.84c0,25.781-22.156,45.613-48.818,45.613c-26.816,0-48.818-19.977-48.818-45.613v-21.84h-9.746v21.84
				c0,25.781-22.156,45.613-48.818,45.613c-26.82,0-48.818-19.98-48.818-45.613v-21.84h-9.746v21.84
				c0,25.781-22.156,45.613-48.818,45.613c-27.067,0-48.818-20.227-48.818-45.613V74.694C8.979,80.895,0,94.141,0,109.446v298
				c0,21.229,17.271,38.5,38.5,38.5h382.052c21.229,0,38.5-17.271,38.5-38.5v-298C459.052,96.035,452.155,84.21,441.725,77.314z
				 M395.026,391.946h-331v-226h331V391.946z"/>
			<path d="M285.526,114.786c12.15,0,22-9.85,22-22v-57.68c0-12.15-9.85-22-22-22c-12.15,0-22,9.85-22,22v57.68
				C263.526,104.936,273.376,114.786,285.526,114.786z"/>
			<path d="M178.143,114.786c12.15,0,22-9.85,22-22v-57.68c0-12.15-9.85-22-22-22c-12.15,0-22,9.85-22,22v57.68
				C156.143,104.936,165.993,114.786,178.143,114.786z"/>
			<path d="M70.762,114.786c12.15,0,22-9.85,22-22v-57.68c0-12.15-9.85-22-22-22c-12.15,0-22,9.85-22,22v57.68
				C48.762,104.936,58.611,114.786,70.762,114.786z"/>
			<path d="M392.908,114.786c12.15,0,22-9.85,22-22v-57.68c0-12.15-9.85-22-22-22c-12.15,0-22,9.85-22,22v57.68
				C370.908,104.936,380.758,114.786,392.908,114.786z"/>
			<path d="M222.658,245.99v59.224h-32.979v33.444H290.01v-33.444h-29.496v-99.171h-37.856c-2.956,5.9-27.362,22.064-37.624,22.064
				v34.373C197.438,262.48,217.256,253.192,222.658,245.99z"/>
		</g>
	</g>
</g>
<g>
</g>
<g>
</g>
<g>
</g>
<g>
</g>
<g>
</g>
<g>
</g>
<g>
</g>
<g>
</g>
<g>
</g>
<g>
</g>
<g>
</g>
<g>
</g>
<g>
</g>
<g>
</g>
<g>
</g>
</svg>
