<?xml version="1.0" encoding="iso-8859-1"?>
<!-- Generator: Adobe Illustrator 19.0.0, SVG Export Plug-In . SVG Version: 6.00 Build 0)  -->
<svg version="1.1" id="Layer_1" xmlns="http://www.w3.org/2000/svg" xmlns:xlink="http://www.w3.org/1999/xlink" x="0px" y="0px"
	 viewBox="0 0 459.052 459.052" style="enable-background:new 0 0 459.052 459.052;" xml:space="preserve">
<g id="XMLID_2_">
	<g>
		<g>
			<path d="M441.726,77.314v15.472c0,25.725-22.136,45.613-48.818,45.613c-26.82,0-48.818-19.979-48.818-45.613v-21.84h-9.746v21.84
				c0,25.716-22.086,45.613-48.818,45.613c-26.82,0-48.818-19.979-48.818-45.613v-21.84h-9.746v21.84
				c0,25.716-22.086,45.613-48.818,45.613c-26.82,0-48.818-19.979-48.818-45.613v-21.84h-9.746v21.84
				c0,25.716-22.086,45.613-48.818,45.613c-27.002,0-48.818-20.19-48.818-45.613V74.693C8.979,80.895,0,94.14,0,109.446v298
				c0,21.229,17.271,38.5,38.5,38.5h382.052c21.229,0,38.5-17.271,38.5-38.5v-298C459.052,96.035,452.155,84.209,441.726,77.314z
				 M395.026,391.946h-331v-226h331V391.946z"/>
			<path d="M285.526,114.786c12.15,0,22-9.85,22-22v-57.68c0-12.15-9.85-22-22-22c-12.15,0-22,9.85-22,22v57.68
				C263.526,104.936,273.375,114.786,285.526,114.786z"/>
			<path d="M178.144,114.786c12.15,0,22-9.85,22-22v-57.68c0-12.15-9.85-22-22-22c-12.15,0-22,9.85-22,22v57.68
				C156.144,104.936,165.994,114.786,178.144,114.786z"/>
			<path d="M70.762,114.786c12.15,0,22-9.85,22-22v-57.68c0-12.15-9.85-22-22-22c-12.15,0-22,9.85-22,22v57.68
				C48.762,104.936,58.612,114.786,70.762,114.786z"/>
			<path d="M392.908,114.786c12.15,0,22-9.85,22-22v-57.68c0-12.15-9.85-22-22-22c-12.15,0-22,9.85-22,22v57.68
				C370.908,104.936,380.757,114.786,392.908,114.786z"/>
			<path d="M185.458,354.062c4.879,4.879,11.277,7.322,17.679,7.322c6.312,0,12.628-2.377,17.489-7.137l117.33-114.879
				c9.865-9.66,10.033-25.488,0.373-35.354c-9.66-9.863-25.488-10.03-35.354-0.371l-99.654,97.572L171.9,269.794
				c-9.764-9.763-25.592-9.763-35.355,0s-9.763,25.592,0,35.355L185.458,354.062z"/>
		</g>
	</g>
</g>
<g>
</g>
<g>
</g>
<g>
</g>
<g>
</g>
<g>
</g>
<g>
</g>
<g>
</g>
<g>
</g>
<g>
</g>
<g>
</g>
<g>
</g>
<g>
</g>
<g>
</g>
<g>
</g>
<g>
</g>
</svg>
