<?xml version="1.0" encoding="iso-8859-1"?>
<!-- Generator: Adobe Illustrator 19.0.0, SVG Export Plug-In . SVG Version: 6.00 Build 0)  -->
<svg version="1.1" id="Layer_1" xmlns="http://www.w3.org/2000/svg" xmlns:xlink="http://www.w3.org/1999/xlink" x="0px" y="0px"
	 viewBox="0 0 459.052 459.052" style="enable-background:new 0 0 459.052 459.052;" xml:space="preserve">
<g id="XMLID_489_">
	<g>
		<g>
			<path d="M347.234,426.294c3.176-3.176,87.748-87.748,94.787-94.787c-9.467,0-82.967,0-94.787,0
				C347.234,341.511,347.234,416.253,347.234,426.294z"/>
			<path d="M441.235,75.161v15.291c0,25.735-22.09,45.614-48.818,45.614c-26.875,0-48.818-20.039-48.818-45.614V69.109h-9.746
				v21.343c0,25.589-21.955,45.614-48.818,45.614c-26.868,0-48.818-20.033-48.818-45.614V69.109h-9.746v21.343
				c0,25.591-21.956,45.614-48.818,45.614c-26.801,0-48.818-19.966-48.818-45.614V69.109h-9.746v21.343
				c0,25.592-21.958,45.614-48.818,45.614c-26.84,0-48.818-20.026-48.818-45.614V73.101C8.754,79.401,0,92.499,0,107.609v302.169
				c0,21.229,17.271,38.5,38.5,38.5h278.734c0-9.414,0-127.288,0-131.771c0-8.284,6.716-15,15-15c6.395,0,119.654,0,126.818,0
				V107.609C459.053,93.989,451.937,82.007,441.235,75.161z M177.654,371.641H74.763c-11.046,0-20-8.954-20-20
				c0-11.046,8.954-20,20-20h102.891c11.046,0,20,8.954,20,20C197.654,362.686,188.7,371.641,177.654,371.641z M258.681,303.807
				H74.763c-11.046,0-20-8.954-20-20c0-11.046,8.954-20,20-20h183.918c11.046,0,20,8.954,20,20
				C278.681,294.854,269.727,303.807,258.681,303.807z M368.624,235.974H74.763c-11.046,0-20-8.954-20-20s8.954-20,20-20h293.861
				c11.046,0,20,8.954,20,20S379.67,235.974,368.624,235.974z"/>
			<path d="M285.035,112.453c12.15,0,22-9.85,22-22v-57.68c0-12.15-9.85-22-22-22c-12.15,0-22,9.85-22,22v57.68
				C263.035,102.604,272.885,112.453,285.035,112.453z"/>
			<path d="M177.653,112.453c12.15,0,22-9.85,22-22v-57.68c0-12.15-9.85-22-22-22c-12.15,0-22,9.85-22,22v57.68
				C155.653,102.604,165.503,112.453,177.653,112.453z"/>
			<path d="M70.271,112.453c12.15,0,22-9.85,22-22v-57.68c0-12.15-9.85-22-22-22c-12.15,0-22,9.85-22,22v57.68
				C48.271,102.604,58.121,112.453,70.271,112.453z"/>
			<path d="M392.417,112.453c12.15,0,22-9.85,22-22v-57.68c0-12.15-9.85-22-22-22c-12.15,0-22,9.85-22,22v57.68
				C370.417,102.604,380.267,112.453,392.417,112.453z"/>
		</g>
	</g>
</g>
<g>
</g>
<g>
</g>
<g>
</g>
<g>
</g>
<g>
</g>
<g>
</g>
<g>
</g>
<g>
</g>
<g>
</g>
<g>
</g>
<g>
</g>
<g>
</g>
<g>
</g>
<g>
</g>
<g>
</g>
</svg>
