<?xml version="1.0" encoding="iso-8859-1"?>
<!-- Generator: Adobe Illustrator 19.0.0, SVG Export Plug-In . SVG Version: 6.00 Build 0)  -->
<svg version="1.1" id="Layer_1" xmlns="http://www.w3.org/2000/svg" xmlns:xlink="http://www.w3.org/1999/xlink" x="0px" y="0px"
	 viewBox="0 0 454.283 454.283" style="enable-background:new 0 0 454.283 454.283;" xml:space="preserve">
<g id="XMLID_199_">
	<g>
		<path d="M380.404,376.872c-2.757-31.648-12.31-64.136-27.597-93.218c-14.283-27.175-32.848-49.858-53.594-65.816
			c20.746-15.958,39.311-38.641,53.594-65.816c12.162-23.139,20.694-48.434,25.064-73.746c16.417-4.983,28.367-20.231,28.367-38.276
			c0-22.091-17.908-40-40-40H88.044c-22.091,0-40,17.909-40,40c0,18.045,11.951,33.293,28.368,38.276
			c4.37,25.312,12.902,50.607,25.064,73.746c14.283,27.175,32.848,49.858,53.595,65.816c-20.747,15.958-39.312,38.641-53.595,65.816
			c-15.286,29.082-24.84,61.57-27.597,93.218c-15.098,5.72-25.835,20.308-25.835,37.411c0,22.091,17.909,40,40,40h278.195
			c22.092,0,40-17.909,40-40C406.239,397.18,395.502,382.592,380.404,376.872z M291.605,112.42c0,33.144-18.378,69.2-43.893,82.417
			c0.168,0.087-10.201,5.304-20.571,5.304c-10.369,0-20.738-5.217-20.571-5.304c-25.515-13.217-43.893-49.273-43.893-82.417H291.605
			z M166.011,368.807c0-33.144,18.378-69.2,43.893-82.417c-0.168-0.087,10.202-5.304,20.571-5.304
			c10.369,0,20.738,5.217,20.571,5.304c25.515,13.217,43.893,49.273,43.893,82.417H166.011z"/>
	</g>
</g>
<g>
</g>
<g>
</g>
<g>
</g>
<g>
</g>
<g>
</g>
<g>
</g>
<g>
</g>
<g>
</g>
<g>
</g>
<g>
</g>
<g>
</g>
<g>
</g>
<g>
</g>
<g>
</g>
<g>
</g>
</svg>
