<?xml version="1.0" encoding="iso-8859-1"?>
<!-- Generator: Adobe Illustrator 19.0.0, SVG Export Plug-In . SVG Version: 6.00 Build 0)  -->
<svg xmlns="http://www.w3.org/2000/svg" xmlns:xlink="http://www.w3.org/1999/xlink" version="1.1" id="Layer_1" x="0px" y="0px" viewBox="0 0 512 512" style="enable-background:new 0 0 512 512;" xml:space="preserve">
<g>
	<g>
		<g>
			<path d="M375.467,0H136.533c-14.114,0-25.6,11.486-25.6,25.6v162.133h290.133V25.6C401.067,11.486,389.581,0,375.467,0z      M366.933,145.067c0,14.114-11.486,25.6-25.6,25.6H170.667c-14.114,0-25.6-11.486-25.6-25.6V59.733     c0-14.114,11.486-25.6,25.6-25.6h170.667c14.114,0,25.6,11.486,25.6,25.6V145.067z"/>
			<polygon points="204.8,93.867 204.8,110.933 221.884,110.933 221.867,93.867    "/>
			<path d="M341.333,51.2H170.667c-4.71,0-8.533,3.823-8.533,8.533v85.333c0,4.71,3.823,8.533,8.533,8.533h170.667     c4.71,0,8.533-3.823,8.533-8.533V59.733C349.867,55.023,346.044,51.2,341.333,51.2z M238.933,110.933     c0,9.412-7.654,17.067-17.067,17.067H204.8c-9.412,0-17.067-7.654-17.067-17.067V93.867c0-9.412,7.654-17.067,17.067-17.067     h17.067c9.412,0,17.067,7.654,17.067,17.067V110.933z M324.267,110.933c0,9.412-7.654,17.067-17.067,17.067h-17.067     c-9.412,0-17.067-7.654-17.067-17.067V93.867c0-9.412,7.654-17.067,17.067-17.067H307.2c9.412,0,17.067,7.654,17.067,17.067     V110.933z"/>
			<polygon points="290.133,93.867 290.133,110.933 307.217,110.933 307.2,93.867    "/>
			<path d="M110.933,418.133c0,11.11,7.159,20.489,17.067,24.021v10.112c0,14.114,11.486,25.6,25.6,25.6h59.733v25.6     c0,4.719,3.814,8.533,8.533,8.533h68.267c4.719,0,8.533-3.814,8.533-8.533v-25.6H358.4c14.114,0,25.6-11.486,25.6-25.6v-10.112     c9.907-3.533,17.067-12.911,17.067-24.021V204.8H110.933V418.133z M256,221.867c23.526,0,42.667,19.14,42.667,42.667     c0,23.526-19.14,42.667-42.667,42.667c-23.526,0-42.667-19.14-42.667-42.667C213.333,241.007,232.474,221.867,256,221.867z      M145.067,358.4c0-9.412,7.654-17.067,17.067-17.067h34.133c9.412,0,17.067,7.654,17.067,17.067v34.133     c0,9.412-7.654,17.067-17.067,17.067h-34.133c-9.412,0-17.067-7.654-17.067-17.067V358.4z M145.067,443.733h221.867v8.533     c0,4.71-3.823,8.533-8.533,8.533h-68.267h-68.267H153.6c-4.71,0-8.533-3.823-8.533-8.533V443.733z"/>
			<path d="M256,290.133c14.114,0,25.6-11.486,25.6-25.6s-11.486-25.6-25.6-25.6c-14.114,0-25.6,11.486-25.6,25.6     S241.886,290.133,256,290.133z"/>
			<polygon points="196.267,358.4 162.133,358.4 162.133,392.533 196.284,392.533    "/>
		</g>
	</g>
</g>
<g>
</g>
<g>
</g>
<g>
</g>
<g>
</g>
<g>
</g>
<g>
</g>
<g>
</g>
<g>
</g>
<g>
</g>
<g>
</g>
<g>
</g>
<g>
</g>
<g>
</g>
<g>
</g>
<g>
</g>
</svg>
