<?xml version="1.0" encoding="iso-8859-1"?>
<!-- Generator: Adobe Illustrator 19.0.0, SVG Export Plug-In . SVG Version: 6.00 Build 0)  -->
<svg xmlns="http://www.w3.org/2000/svg" xmlns:xlink="http://www.w3.org/1999/xlink" version="1.1" id="Layer_1" x="0px" y="0px" viewBox="0 0 512 512" style="enable-background:new 0 0 512 512;" xml:space="preserve">
<g>
	<g>
		<g>
			<path d="M392.533,0H119.467c-14.114,0-25.6,11.486-25.6,25.6v153.6c0,14.114,11.486,25.6,25.6,25.6h39.134l-19.567,19.567     c-1.604,1.596-2.5,3.763-2.5,6.033v128h238.933v-128c0-2.27-0.896-4.437-2.5-6.033L353.4,204.8h39.134     c14.114,0,25.6-11.486,25.6-25.6V25.6C418.133,11.486,406.647,0,392.533,0z M298.667,298.667     c0,23.526-19.14,42.667-42.667,42.667c-23.526,0-42.667-19.14-42.667-42.667v-34.133c0-23.526,19.14-42.667,42.667-42.667     c23.526,0,42.667,19.14,42.667,42.667V298.667z M401.067,179.2c0,4.71-3.823,8.533-8.533,8.533H332.8H179.2h-59.733     c-4.71,0-8.533-3.823-8.533-8.533V25.6c0-4.71,3.823-8.533,8.533-8.533h273.067c4.71,0,8.533,3.823,8.533,8.533V179.2z"/>
			<path d="M358.4,34.133H153.6c-14.114,0-25.6,11.486-25.6,25.6v85.333c0,14.114,11.486,25.6,25.6,25.6h204.8     c14.114,0,25.6-11.486,25.6-25.6V59.733C384,45.619,372.514,34.133,358.4,34.133z"/>
			<rect x="136.533" y="375.467" width="238.933" height="34.133"/>
			<path d="M256,238.933c-14.114,0-25.6,11.486-25.6,25.6v34.133c0,14.114,11.486,25.6,25.6,25.6c14.114,0,25.6-11.486,25.6-25.6     v-34.133C281.6,250.419,270.114,238.933,256,238.933z"/>
			<path d="M163.348,456.661c1.545,2.56,4.318,4.139,7.322,4.139h49.655l-6.878,41.267c-0.41,2.475,0.29,5.001,1.911,6.912     c1.613,1.92,4.002,3.021,6.511,3.021h68.267c2.509,0,4.89-1.101,6.502-3.021c1.63-1.911,2.33-4.437,1.911-6.912l-6.878-41.267     h49.664c2.995,0,5.769-1.579,7.313-4.139l17.988-29.995H145.359L163.348,456.661z M237.622,460.8h36.753l5.683,34.133h-48.12     L237.622,460.8z"/>
		</g>
	</g>
</g>
<g>
</g>
<g>
</g>
<g>
</g>
<g>
</g>
<g>
</g>
<g>
</g>
<g>
</g>
<g>
</g>
<g>
</g>
<g>
</g>
<g>
</g>
<g>
</g>
<g>
</g>
<g>
</g>
<g>
</g>
</svg>
