<?xml version="1.0" encoding="iso-8859-1"?>
<!-- Generator: Adobe Illustrator 19.0.0, SVG Export Plug-In . SVG Version: 6.00 Build 0)  -->
<svg xmlns="http://www.w3.org/2000/svg" xmlns:xlink="http://www.w3.org/1999/xlink" version="1.1" id="Layer_1" x="0px" y="0px" viewBox="0 0 512 512" style="enable-background:new 0 0 512 512;" xml:space="preserve">
<g>
	<g>
		<g>
			<polygon points="213.333,315.733 213.333,332.8 230.409,332.8 230.4,315.733    "/>
			<polygon points="145.067,110.933 145.067,128 162.142,128 162.133,110.933    "/>
			<polygon points="281.6,110.933 281.6,128 298.675,128 298.667,110.933    "/>
			<polygon points="349.867,315.733 349.867,332.8 366.942,332.8 366.933,315.733    "/>
			<polygon points="213.333,110.933 213.333,128 230.409,128 230.4,110.933    "/>
			<polygon points="213.333,179.2 213.333,196.267 230.409,196.267 230.4,179.2    "/>
			<polygon points="281.6,247.467 281.6,264.533 298.675,264.533 298.667,247.467    "/>
			<polygon points="213.333,247.467 213.333,264.533 230.409,264.533 230.4,247.467    "/>
			<polygon points="281.6,315.733 281.6,332.8 298.675,332.8 298.667,315.733    "/>
			<polygon points="281.6,179.2 281.6,196.267 298.675,196.267 298.667,179.2    "/>
			<polygon points="145.067,315.733 145.067,332.8 162.142,332.8 162.133,315.733    "/>
			<path d="M384,68.267H128c-14.114,0-25.6,11.486-25.6,25.6v256c0,14.114,11.486,25.6,25.6,25.6h256     c14.114,0,25.6-11.486,25.6-25.6v-256C409.6,79.753,398.114,68.267,384,68.267z M179.2,332.8c0,9.412-7.654,17.067-17.067,17.067     h-17.067c-9.412,0-17.067-7.654-17.067-17.067v-17.067c0-9.412,7.654-17.067,17.067-17.067h17.067     c9.412,0,17.067,7.654,17.067,17.067V332.8z M179.2,264.533c0,9.412-7.654,17.067-17.067,17.067h-17.067     c-9.412,0-17.067-7.654-17.067-17.067v-17.067c0-9.412,7.654-17.067,17.067-17.067h17.067c9.412,0,17.067,7.654,17.067,17.067     V264.533z M179.2,196.267c0,9.412-7.654,17.067-17.067,17.067h-17.067c-9.412,0-17.067-7.654-17.067-17.067V179.2     c0-9.412,7.654-17.067,17.067-17.067h17.067c9.412,0,17.067,7.654,17.067,17.067V196.267z M179.2,128     c0,9.412-7.654,17.067-17.067,17.067h-17.067c-9.412,0-17.067-7.654-17.067-17.067v-17.067c0-9.412,7.654-17.067,17.067-17.067     h17.067c9.412,0,17.067,7.654,17.067,17.067V128z M247.467,332.8c0,9.412-7.654,17.067-17.067,17.067h-17.067     c-9.412,0-17.067-7.654-17.067-17.067v-17.067c0-9.412,7.654-17.067,17.067-17.067H230.4c9.412,0,17.067,7.654,17.067,17.067     V332.8z M247.467,264.533c0,9.412-7.654,17.067-17.067,17.067h-17.067c-9.412,0-17.067-7.654-17.067-17.067v-17.067     c0-9.412,7.654-17.067,17.067-17.067H230.4c9.412,0,17.067,7.654,17.067,17.067V264.533z M247.467,196.267     c0,9.412-7.654,17.067-17.067,17.067h-17.067c-9.412,0-17.067-7.654-17.067-17.067V179.2c0-9.412,7.654-17.067,17.067-17.067     H230.4c9.412,0,17.067,7.654,17.067,17.067V196.267z M247.467,128c0,9.412-7.654,17.067-17.067,17.067h-17.067     c-9.412,0-17.067-7.654-17.067-17.067v-17.067c0-9.412,7.654-17.067,17.067-17.067H230.4c9.412,0,17.067,7.654,17.067,17.067V128     z M315.733,332.8c0,9.412-7.654,17.067-17.067,17.067H281.6c-9.412,0-17.067-7.654-17.067-17.067v-17.067     c0-9.412,7.654-17.067,17.067-17.067h17.067c9.412,0,17.067,7.654,17.067,17.067V332.8z M315.733,264.533     c0,9.412-7.654,17.067-17.067,17.067H281.6c-9.412,0-17.067-7.654-17.067-17.067v-17.067c0-9.412,7.654-17.067,17.067-17.067     h17.067c9.412,0,17.067,7.654,17.067,17.067V264.533z M315.733,196.267c0,9.412-7.654,17.067-17.067,17.067H281.6     c-9.412,0-17.067-7.654-17.067-17.067V179.2c0-9.412,7.654-17.067,17.067-17.067h17.067c9.412,0,17.067,7.654,17.067,17.067     V196.267z M315.733,128c0,9.412-7.654,17.067-17.067,17.067H281.6c-9.412,0-17.067-7.654-17.067-17.067v-17.067     c0-9.412,7.654-17.067,17.067-17.067h17.067c9.412,0,17.067,7.654,17.067,17.067V128z M384,332.8     c0,9.412-7.654,17.067-17.067,17.067h-17.067c-9.412,0-17.067-7.654-17.067-17.067v-17.067c0-9.412,7.654-17.067,17.067-17.067     h17.067c9.412,0,17.067,7.654,17.067,17.067V332.8z M384,264.533c0,9.412-7.654,17.067-17.067,17.067h-17.067     c-9.412,0-17.067-7.654-17.067-17.067v-17.067c0-9.412,7.654-17.067,17.067-17.067h17.067c9.412,0,17.067,7.654,17.067,17.067     V264.533z M384,196.267c0,9.412-7.654,17.067-17.067,17.067h-17.067c-9.412,0-17.067-7.654-17.067-17.067V179.2     c0-9.412,7.654-17.067,17.067-17.067h17.067c9.412,0,17.067,7.654,17.067,17.067V196.267z M384,128     c0,9.412-7.654,17.067-17.067,17.067h-17.067c-9.412,0-17.067-7.654-17.067-17.067v-17.067c0-9.412,7.654-17.067,17.067-17.067     h17.067c9.412,0,17.067,7.654,17.067,17.067V128z"/>
			<polygon points="349.867,110.933 349.867,128 366.942,128 366.933,110.933    "/>
			<path d="M477.867,162.133V8.533c0-4.719-3.823-8.533-8.533-8.533h-153.6c-4.71,0-8.533,3.814-8.533,8.533H204.8     c0-4.719-3.823-8.533-8.533-8.533h-153.6c-4.71,0-8.533,3.814-8.533,8.533v153.6c0,4.719,3.823,8.533,8.533,8.533v102.4     c-4.71,0-8.533,3.814-8.533,8.533v153.6c0,4.719,3.823,8.533,8.533,8.533h145.067v25.6c0,4.719,3.823,8.533,8.533,8.533h1.869     l6.921,27.665c0.947,3.797,4.361,6.468,8.277,6.468h85.333c3.917,0,7.33-2.671,8.277-6.468l6.921-27.665h1.869     c4.71,0,8.533-3.814,8.533-8.533v-25.6h145.067c4.71,0,8.533-3.814,8.533-8.533V281.6c0-4.719-3.823-8.533-8.533-8.533v-102.4     C474.044,170.667,477.867,166.852,477.867,162.133z M426.667,349.867c0,23.526-19.14,42.667-42.667,42.667H128     c-23.526,0-42.667-19.14-42.667-42.667v-256C85.333,70.34,104.474,51.2,128,51.2h256c23.526,0,42.667,19.14,42.667,42.667     V349.867z"/>
			<polygon points="349.867,179.2 349.867,196.267 366.942,196.267 366.933,179.2    "/>
			<polygon points="145.067,179.2 145.067,196.267 162.142,196.267 162.133,179.2    "/>
			<polygon points="349.867,247.467 349.867,264.533 366.942,264.533 366.933,247.467    "/>
			<polygon points="145.067,247.467 145.067,264.533 162.142,264.533 162.133,247.467    "/>
		</g>
	</g>
</g>
<g>
</g>
<g>
</g>
<g>
</g>
<g>
</g>
<g>
</g>
<g>
</g>
<g>
</g>
<g>
</g>
<g>
</g>
<g>
</g>
<g>
</g>
<g>
</g>
<g>
</g>
<g>
</g>
<g>
</g>
</svg>
