<?xml version="1.0" encoding="iso-8859-1"?>
<!-- Generator: Adobe Illustrator 19.0.0, SVG Export Plug-In . SVG Version: 6.00 Build 0)  -->
<svg xmlns="http://www.w3.org/2000/svg" xmlns:xlink="http://www.w3.org/1999/xlink" version="1.1" id="Layer_1" x="0px" y="0px" viewBox="0 0 512 512" style="enable-background:new 0 0 512 512;" xml:space="preserve">
<g>
	<g>
		<g>
			<path d="M338.72,51.202H173.275c-2.509,0-4.804,1.041-6.451,2.944c-1.638,1.894-2.347,4.318-1.997,6.801l12.194,85.333     c0.597,4.173,4.224,7.322,8.448,7.322h141.065c4.215,0,7.851-3.149,8.448-7.322l12.186-85.333     c0.358-2.483-0.35-4.907-1.997-6.801C343.524,52.243,341.228,51.202,338.72,51.202z"/>
			<path d="M400.798,8.764C395.934,3.191,388.911,0,381.513,0H130.479c-7.39,0-14.413,3.191-19.277,8.764     c-4.864,5.572-7.083,12.971-6.084,20.292l20.949,153.609c1.724,12.621,12.621,22.135,25.361,22.135h2.167v8.533v204.8     c0,14.114,11.486,25.6,25.6,25.6h17.067v8.533c0,11.11,7.159,20.497,17.067,24.03v27.17c0,4.719,3.823,8.533,8.533,8.533h68.267     c4.719,0,8.533-3.814,8.533-8.533v-27.17c9.916-3.533,17.067-12.919,17.067-24.03v-8.533h17.067c14.123,0,25.6-11.486,25.6-25.6     v-204.8V204.8h2.176c12.732,0,23.637-9.515,25.361-22.144l20.949-153.6C407.881,21.734,405.662,14.336,400.798,8.764z      M298.662,452.267c0,4.71-3.823,8.533-8.533,8.533h-68.267c-4.702,0-8.533-3.823-8.533-8.533v-8.533h85.333V452.267z      M341.329,418.133c0,4.71-3.823,8.533-8.533,8.533h-25.6h-102.4h-25.6c-4.702,0-8.533-3.823-8.533-8.533v-204.8     c0-4.71,3.831-8.533,8.533-8.533h153.6c4.71,0,8.533,3.823,8.533,8.533V418.133z M364.062,63.36l-12.194,85.333     c-1.783,12.527-12.681,21.973-25.335,21.973H185.468c-12.663,0-23.552-9.446-25.335-21.973L147.938,63.36     c-1.058-7.347,1.135-14.78,5.999-20.403c4.864-5.606,11.913-8.823,19.345-8.823h165.436c7.424,0,14.481,3.217,19.345,8.823     C362.927,48.58,365.12,56.013,364.062,63.36z"/>
			<path d="M307.199,230.402h-102.4c-4.71,0-8.533,3.814-8.533,8.533v68.267c0,4.719,3.823,8.533,8.533,8.533h102.4     c4.71,0,8.533-3.814,8.533-8.533v-68.267C315.733,234.216,311.91,230.402,307.199,230.402z"/>
		</g>
	</g>
</g>
<g>
</g>
<g>
</g>
<g>
</g>
<g>
</g>
<g>
</g>
<g>
</g>
<g>
</g>
<g>
</g>
<g>
</g>
<g>
</g>
<g>
</g>
<g>
</g>
<g>
</g>
<g>
</g>
<g>
</g>
</svg>
