<?xml version="1.0" encoding="iso-8859-1"?>
<!-- Generator: Adobe Illustrator 19.0.0, SVG Export Plug-In . SVG Version: 6.00 Build 0)  -->
<svg xmlns="http://www.w3.org/2000/svg" xmlns:xlink="http://www.w3.org/1999/xlink" version="1.1" id="Layer_1" x="0px" y="0px" viewBox="0 0 512 512" style="enable-background:new 0 0 512 512;" xml:space="preserve">
<g>
	<g>
		<g>
			<polygon points="135.409,256 238.935,256 238.935,221.867 158.167,221.867    "/>
			<path d="M221.867,384h-85.333c-4.71,0-8.533,3.831-8.533,8.533V435.2h102.4v-42.667C230.4,387.832,226.577,384,221.867,384z      M204.8,409.6h-51.2c-4.719,0-8.533-3.823-8.533-8.533s3.814-8.533,8.533-8.533h51.2c4.719,0,8.533,3.823,8.533,8.533     S209.519,409.6,204.8,409.6z"/>
			<path d="M375.467,247.467c-28.237,0-51.2,22.963-51.2,51.2c0,28.237,22.963,51.2,51.2,51.2c28.237,0,51.2-22.963,51.2-51.2     C426.667,270.43,403.703,247.467,375.467,247.467z"/>
			<path d="M375.467,213.333c-47.053,0-85.333,38.281-85.333,85.333S328.414,384,375.467,384S460.8,345.72,460.8,298.667     S422.519,213.333,375.467,213.333z M375.467,366.933c-37.641,0-68.267-30.626-68.267-68.267     c0-37.641,30.626-68.267,68.267-68.267c37.641,0,68.267,30.626,68.267,68.267C443.733,336.307,413.107,366.933,375.467,366.933z"/>
			<path d="M469.333,110.933h-307.2V93.867c0-9.412-7.654-17.067-17.067-17.067h-51.2c-9.412,0-17.067,7.654-17.067,17.067v17.067     H42.667C19.14,110.933,0,130.074,0,153.6v238.933C0,416.06,19.14,435.2,42.667,435.2h68.267v-17.067v-25.6     c0-14.114,11.486-25.6,25.6-25.6h85.333c14.114,0,25.6,11.486,25.6,25.6V435.2h221.867c23.526,0,42.667-19.14,42.667-42.667     V170.667V153.6C512,130.074,492.86,110.933,469.333,110.933z M256,264.533c0,4.71-3.814,8.533-8.533,8.533h-128     c-3.149,0-6.042-1.732-7.526-4.506c-1.485-2.782-1.314-6.144,0.427-8.764l34.133-51.2c1.587-2.372,4.25-3.797,7.1-3.797h93.867     c4.719,0,8.533,3.823,8.533,8.533V264.533z M375.467,401.067c-56.465,0-102.4-45.935-102.4-102.4     c0-56.465,45.935-102.4,102.4-102.4s102.4,45.935,102.4,102.4C477.867,355.132,431.932,401.067,375.467,401.067z      M273.067,213.333c0-4.71,3.814-8.533,8.533-8.533c4.719,0,8.533,3.823,8.533,8.533s-3.814,8.533-8.533,8.533     C276.881,221.867,273.067,218.044,273.067,213.333z M494.933,162.133h-384c-23.526,0-42.667,19.14-42.667,42.667v187.733     c0,2.714,0.316,5.342,0.802,7.91c0.145,0.819,0.401,1.587,0.597,2.389c0.435,1.741,0.939,3.447,1.587,5.103     c0.333,0.845,0.7,1.664,1.084,2.492c0.725,1.562,1.536,3.055,2.449,4.506c0.444,0.717,0.862,1.442,1.357,2.133     c0.239,0.35,0.427,0.734,0.674,1.067h-34.15c-14.114,0-25.6-11.486-25.6-25.6v-25.6H25.6c4.719,0,8.533-3.823,8.533-8.533     s-3.814-8.533-8.533-8.533h-8.533V332.8H25.6c4.719,0,8.533-3.823,8.533-8.533s-3.814-8.533-8.533-8.533h-8.533v-17.067H25.6     c4.719,0,8.533-3.823,8.533-8.533c0-4.71-3.814-8.533-8.533-8.533h-8.533v-17.067H25.6c4.719,0,8.533-3.823,8.533-8.533     c0-4.71-3.814-8.533-8.533-8.533h-8.533V153.6c0-14.114,11.486-25.6,25.6-25.6h42.667H153.6h170.667v8.533     c0,4.71,3.814,8.533,8.533,8.533c4.719,0,8.533-3.823,8.533-8.533V128H358.4v8.533c0,4.71,3.814,8.533,8.533,8.533     s8.533-3.823,8.533-8.533V128h17.067v8.533c0,4.71,3.814,8.533,8.533,8.533c4.719,0,8.533-3.823,8.533-8.533V128h17.067v8.533     c0,4.71,3.814,8.533,8.533,8.533s8.533-3.823,8.533-8.533V128h25.6c14.114,0,25.6,11.486,25.6,25.6V162.133z"/>
		</g>
	</g>
</g>
<g>
</g>
<g>
</g>
<g>
</g>
<g>
</g>
<g>
</g>
<g>
</g>
<g>
</g>
<g>
</g>
<g>
</g>
<g>
</g>
<g>
</g>
<g>
</g>
<g>
</g>
<g>
</g>
<g>
</g>
</svg>
