<?xml version="1.0" encoding="iso-8859-1"?>
<!-- Generator: Adobe Illustrator 19.0.0, SVG Export Plug-In . SVG Version: 6.00 Build 0)  -->
<svg xmlns="http://www.w3.org/2000/svg" xmlns:xlink="http://www.w3.org/1999/xlink" version="1.1" id="Layer_1" x="0px" y="0px" viewBox="0 0 512 512" style="enable-background:new 0 0 512 512;" xml:space="preserve">
<g>
	<g>
		<g>
			<path d="M153.6,247.467h204.8V179.2H153.6V247.467z M298.667,204.8c0-4.719,3.814-8.533,8.533-8.533s8.533,3.814,8.533,8.533     v17.067c0,4.719-3.814,8.533-8.533,8.533s-8.533-3.814-8.533-8.533V204.8z M264.533,204.8c0-4.719,3.814-8.533,8.533-8.533     s8.533,3.814,8.533,8.533v17.067c0,4.719-3.814,8.533-8.533,8.533s-8.533-3.814-8.533-8.533V204.8z M230.4,204.8     c0-4.719,3.814-8.533,8.533-8.533s8.533,3.814,8.533,8.533v17.067c0,4.719-3.814,8.533-8.533,8.533s-8.533-3.814-8.533-8.533     V204.8z M196.267,204.8c0-4.719,3.814-8.533,8.533-8.533s8.533,3.814,8.533,8.533v17.067c0,4.719-3.814,8.533-8.533,8.533     s-8.533-3.814-8.533-8.533V204.8z"/>
			<path d="M381.865,2.884C380.244,1.05,377.914,0,375.465,0h-13.474c-10.368,0-19.849,6.349-23.612,15.804     c-4.489,11.307-13.158,18.33-22.647,18.33c-9.481,0-18.159-7.023-22.647-18.33C289.321,6.349,279.841,0,269.473,0h-26.948     c-10.368,0-19.849,6.349-23.612,15.804c-4.489,11.307-13.158,18.33-22.647,18.33c-9.481,0-18.159-7.023-22.647-18.33     C169.854,6.349,160.374,0,150.006,0h-13.474c-2.449,0-4.77,1.05-6.4,2.884c-1.613,1.843-2.372,4.284-2.065,6.707l7.33,58.675     H376.6l7.33-58.675C384.246,7.168,383.486,4.727,381.865,2.884z"/>
			<polygon points="230.4,307.2 213.333,307.2 213.333,324.267 230.417,324.267    "/>
			<path d="M153.6,149.092v13.039h204.8v-13.039c0-21.905,4.855-43.827,13.986-63.761H139.614     C148.745,105.265,153.6,127.187,153.6,149.092z"/>
			<polygon points="298.667,307.2 281.6,307.2 281.6,324.267 298.684,324.267    "/>
			<path d="M153.6,425.634c0,13.952,5.436,27.068,15.3,36.932c6.639,6.639,10.3,15.479,10.3,24.866v16.034     c0,4.719,3.814,8.533,8.533,8.533h136.533c4.719,0,8.533-3.814,8.533-8.533v-16.034c0-9.387,3.661-18.227,10.3-24.866     c9.865-9.865,15.3-22.98,15.3-36.932V264.533H153.6V425.634z M264.533,307.2c0-9.412,7.654-17.067,17.067-17.067h17.067     c9.412,0,17.067,7.654,17.067,17.067v17.067c0,9.412-7.654,17.067-17.067,17.067H281.6c-9.412,0-17.067-7.654-17.067-17.067     V307.2z M196.267,307.2c0-9.412,7.654-17.067,17.067-17.067H230.4c9.412,0,17.067,7.654,17.067,17.067v17.067     c0,9.412-7.654,17.067-17.067,17.067h-17.067c-9.412,0-17.067-7.654-17.067-17.067V307.2z"/>
		</g>
	</g>
</g>
<g>
</g>
<g>
</g>
<g>
</g>
<g>
</g>
<g>
</g>
<g>
</g>
<g>
</g>
<g>
</g>
<g>
</g>
<g>
</g>
<g>
</g>
<g>
</g>
<g>
</g>
<g>
</g>
<g>
</g>
</svg>
