<?xml version="1.0" encoding="iso-8859-1"?>
<!-- Generator: Adobe Illustrator 19.0.0, SVG Export Plug-In . SVG Version: 6.00 Build 0)  -->
<svg xmlns="http://www.w3.org/2000/svg" xmlns:xlink="http://www.w3.org/1999/xlink" version="1.1" id="Layer_1" x="0px" y="0px" viewBox="0 0 511.998 511.998" style="enable-background:new 0 0 511.998 511.998;" xml:space="preserve">
<g>
	<g>
		<g>
			<path d="M175.382,497.85c4.369,8.721,13.141,14.148,22.903,14.148h115.43c9.762,0,18.534-5.427,22.903-14.148l18.517-37.052     H156.856L175.382,497.85z"/>
			<polygon points="125.603,256 386.399,256 390.665,238.933 121.336,238.933    "/>
			<path d="M375.466,103.979V85.333H136.532v18.645c-9.916,3.533-17.067,12.911-17.067,24.021v93.867h273.067V128     C392.533,116.89,385.382,107.511,375.466,103.979z M179.199,196.267c0,4.719-3.823,8.533-8.533,8.533     c-4.71,0-8.533-3.814-8.533-8.533v-51.2c0-4.719,3.823-8.533,8.533-8.533c4.71,0,8.533,3.814,8.533,8.533V196.267z      M213.332,196.267c0,4.719-3.823,8.533-8.533,8.533s-8.533-3.814-8.533-8.533v-51.2c0-4.719,3.823-8.533,8.533-8.533     s8.533,3.814,8.533,8.533V196.267z M247.466,196.267c0,4.719-3.823,8.533-8.533,8.533s-8.533-3.814-8.533-8.533v-51.2     c0-4.719,3.823-8.533,8.533-8.533s8.533,3.814,8.533,8.533V196.267z M281.599,196.267c0,4.719-3.823,8.533-8.533,8.533     s-8.533-3.814-8.533-8.533v-51.2c0-4.719,3.823-8.533,8.533-8.533s8.533,3.814,8.533,8.533V196.267z M315.733,196.267     c0,4.719-3.823,8.533-8.533,8.533s-8.533-3.814-8.533-8.533v-51.2c0-4.719,3.823-8.533,8.533-8.533s8.533,3.814,8.533,8.533     V196.267z M349.866,196.267c0,4.719-3.823,8.533-8.533,8.533c-4.71,0-8.533-3.814-8.533-8.533v-51.2     c0-4.719,3.823-8.533,8.533-8.533c4.71,0,8.533,3.814,8.533,8.533V196.267z"/>
			<path d="M127.999,315.733c0,14.114,11.486,25.6,25.6,25.6v25.6h25.6c4.71,0,8.533,3.814,8.533,8.533S183.91,384,179.199,384     h-25.6v17.067h25.6c4.71,0,8.533,3.814,8.533,8.533s-3.823,8.533-8.533,8.533h-25.6v25.6h204.8v-25.6h-17.067     c-4.71,0-8.533-3.814-8.533-8.533s3.823-8.533,8.533-8.533h17.067V384h-17.067c-4.71,0-8.533-3.814-8.533-8.533     s3.823-8.533,8.533-8.533h17.067v-25.6c14.114,0,25.6-11.486,25.6-25.6v-42.667h-256V315.733z M281.599,366.933h17.067     c4.71,0,8.533,3.814,8.533,8.533S303.376,384,298.666,384h-17.067c-4.71,0-8.533-3.814-8.533-8.533     S276.889,366.933,281.599,366.933z M281.599,401.067h17.067c4.71,0,8.533,3.814,8.533,8.533s-3.823,8.533-8.533,8.533h-17.067     c-4.71,0-8.533-3.814-8.533-8.533S276.889,401.067,281.599,401.067z M221.866,366.933h17.067c4.71,0,8.533,3.814,8.533,8.533     S243.643,384,238.933,384h-17.067c-4.71,0-8.533-3.814-8.533-8.533S217.155,366.933,221.866,366.933z M221.866,401.067h17.067     c4.71,0,8.533,3.814,8.533,8.533s-3.823,8.533-8.533,8.533h-17.067c-4.71,0-8.533-3.814-8.533-8.533     S217.155,401.067,221.866,401.067z"/>
			<path d="M135.396,68.267h241.203l7.33-58.675c0.307-2.423-0.444-4.864-2.065-6.707C380.243,1.05,377.913,0,375.464,0H361.99     c-10.359,0-19.849,6.349-23.603,15.804c-4.489,11.307-13.167,18.33-22.656,18.33c-9.481,0-18.159-7.023-22.656-18.33     C289.32,6.349,279.84,0,269.48,0h-26.957c-10.359,0-19.849,6.349-23.603,15.804c-4.489,11.307-13.167,18.33-22.656,18.33     c-9.481,0-18.159-7.023-22.656-18.33C169.853,6.349,160.373,0,150.013,0h-13.483c-2.441,0-4.779,1.05-6.391,2.884     c-1.621,1.843-2.381,4.284-2.074,6.707L135.396,68.267z"/>
		</g>
	</g>
</g>
<g>
</g>
<g>
</g>
<g>
</g>
<g>
</g>
<g>
</g>
<g>
</g>
<g>
</g>
<g>
</g>
<g>
</g>
<g>
</g>
<g>
</g>
<g>
</g>
<g>
</g>
<g>
</g>
<g>
</g>
</svg>
