<?xml version="1.0" encoding="iso-8859-1"?>
<!-- Generator: Adobe Illustrator 19.0.0, SVG Export Plug-In . SVG Version: 6.00 Build 0)  -->
<svg xmlns="http://www.w3.org/2000/svg" xmlns:xlink="http://www.w3.org/1999/xlink" version="1.1" id="Layer_1" x="0px" y="0px" viewBox="0 0 512 512" style="enable-background:new 0 0 512 512;" xml:space="preserve">
<g>
	<g>
		<g>
			<path d="M384,187.733h17.067v-25.6c0-14.114-11.486-25.6-25.6-25.6V76.8c0-4.719-3.823-8.533-8.533-8.533v-51.2h8.533     c4.71,0,8.533-3.814,8.533-8.533S380.177,0,375.467,0H358.4H153.6h-17.067C131.823,0,128,3.814,128,8.533     s3.823,8.533,8.533,8.533h8.533v51.2c-4.71,0-8.533,3.814-8.533,8.533v59.733c-14.114,0-25.6,11.486-25.6,25.6v25.6H128     c4.71,0,8.533,3.814,8.533,8.533S132.71,204.8,128,204.8h-17.067v34.133H128c4.71,0,8.533,3.814,8.533,8.533S132.71,256,128,256     h-17.067v34.133H128c4.71,0,8.533,3.814,8.533,8.533S132.71,307.2,128,307.2h-17.067v25.6c0,11.11,7.151,20.489,17.067,24.021     V486.4c0,14.114,11.486,25.6,25.6,25.6h204.8c14.114,0,25.6-11.486,25.6-25.6V356.821c9.916-3.533,17.067-12.911,17.067-24.021     v-25.6H384c-4.71,0-8.533-3.814-8.533-8.533s3.823-8.533,8.533-8.533h17.067V256H384c-4.71,0-8.533-3.814-8.533-8.533     s3.823-8.533,8.533-8.533h17.067V204.8H384c-4.71,0-8.533-3.814-8.533-8.533S379.29,187.733,384,187.733z M360.533,196.267     c0,4.719-3.823,8.533-8.533,8.533h-12.8c-4.71,0-8.533-3.814-8.533-8.533s3.823-8.533,8.533-8.533H352     C356.71,187.733,360.533,191.548,360.533,196.267z M352,256h-12.8c-4.71,0-8.533-3.814-8.533-8.533s3.823-8.533,8.533-8.533H352     c4.71,0,8.533,3.814,8.533,8.533S356.71,256,352,256z M360.533,298.667c0,4.719-3.823,8.533-8.533,8.533h-12.8     c-4.71,0-8.533-3.814-8.533-8.533s3.823-8.533,8.533-8.533H352C356.71,290.133,360.533,293.948,360.533,298.667z M153.6,85.333     h17.067v8.533c0,4.719,3.823,8.533,8.533,8.533c4.71,0,8.533-3.814,8.533-8.533v-8.533h34.133v8.533     c0,4.719,3.823,8.533,8.533,8.533c4.71,0,8.533-3.814,8.533-8.533v-8.533h34.133v8.533c0,4.719,3.823,8.533,8.533,8.533     c4.71,0,8.533-3.814,8.533-8.533v-8.533h34.133v8.533c0,4.719,3.823,8.533,8.533,8.533s8.533-3.814,8.533-8.533v-8.533H358.4     v51.2H153.6V85.333z M307.2,256h-12.8c-4.71,0-8.533-3.814-8.533-8.533s3.823-8.533,8.533-8.533h12.8     c4.71,0,8.533,3.814,8.533,8.533S311.91,256,307.2,256z M315.733,298.667c0,4.719-3.823,8.533-8.533,8.533h-12.8     c-4.71,0-8.533-3.814-8.533-8.533s3.823-8.533,8.533-8.533h12.8C311.91,290.133,315.733,293.948,315.733,298.667z M307.2,204.8     h-12.8c-4.71,0-8.533-3.814-8.533-8.533s3.823-8.533,8.533-8.533h12.8c4.71,0,8.533,3.814,8.533,8.533S311.91,204.8,307.2,204.8z      M262.4,256h-12.8c-4.71,0-8.533-3.814-8.533-8.533s3.823-8.533,8.533-8.533h12.8c4.71,0,8.533,3.814,8.533,8.533     S267.11,256,262.4,256z M270.933,298.667c0,4.719-3.823,8.533-8.533,8.533h-12.8c-4.71,0-8.533-3.814-8.533-8.533     s3.823-8.533,8.533-8.533h12.8C267.11,290.133,270.933,293.948,270.933,298.667z M262.4,204.8h-12.8     c-4.71,0-8.533-3.814-8.533-8.533s3.823-8.533,8.533-8.533h12.8c4.71,0,8.533,3.814,8.533,8.533S267.11,204.8,262.4,204.8z      M217.6,256h-12.8c-4.71,0-8.533-3.814-8.533-8.533s3.823-8.533,8.533-8.533h12.8c4.71,0,8.533,3.814,8.533,8.533     S222.31,256,217.6,256z M226.133,298.667c0,4.719-3.823,8.533-8.533,8.533h-12.8c-4.71,0-8.533-3.814-8.533-8.533     s3.823-8.533,8.533-8.533h12.8C222.31,290.133,226.133,293.948,226.133,298.667z M217.6,204.8h-12.8     c-4.71,0-8.533-3.814-8.533-8.533s3.823-8.533,8.533-8.533h12.8c4.71,0,8.533,3.814,8.533,8.533S222.31,204.8,217.6,204.8z      M160,187.733h12.8c4.71,0,8.533,3.814,8.533,8.533s-3.823,8.533-8.533,8.533H160c-4.71,0-8.533-3.814-8.533-8.533     S155.29,187.733,160,187.733z M160,238.933h12.8c4.71,0,8.533,3.814,8.533,8.533S177.51,256,172.8,256H160     c-4.71,0-8.533-3.814-8.533-8.533S155.29,238.933,160,238.933z M160,290.133h12.8c4.71,0,8.533,3.814,8.533,8.533     s-3.823,8.533-8.533,8.533H160c-4.71,0-8.533-3.814-8.533-8.533S155.29,290.133,160,290.133z M366.933,486.4     c0,4.71-3.831,8.533-8.533,8.533H153.6c-4.702,0-8.533-3.823-8.533-8.533v-128h221.867V486.4z"/>
			<path d="M170.667,452.267c4.71,0,8.533-3.814,8.533-8.533V409.6c0-4.719-3.823-8.533-8.533-8.533     c-4.71,0-8.533,3.814-8.533,8.533v34.133C162.133,448.452,165.956,452.267,170.667,452.267z"/>
			<path d="M204.8,452.267c4.71,0,8.533-3.814,8.533-8.533V409.6c0-4.719-3.823-8.533-8.533-8.533s-8.533,3.814-8.533,8.533v34.133     C196.267,448.452,200.09,452.267,204.8,452.267z"/>
			<path d="M238.933,452.267c4.71,0,8.533-3.814,8.533-8.533V409.6c0-4.719-3.823-8.533-8.533-8.533     c-4.71,0-8.533,3.814-8.533,8.533v34.133C230.4,448.452,234.223,452.267,238.933,452.267z"/>
			<path d="M273.067,452.267c4.71,0,8.533-3.814,8.533-8.533V409.6c0-4.719-3.823-8.533-8.533-8.533s-8.533,3.814-8.533,8.533     v34.133C264.533,448.452,268.356,452.267,273.067,452.267z"/>
			<path d="M307.2,452.267c4.71,0,8.533-3.814,8.533-8.533V409.6c0-4.719-3.823-8.533-8.533-8.533s-8.533,3.814-8.533,8.533v34.133     C298.667,448.452,302.49,452.267,307.2,452.267z"/>
			<path d="M341.333,452.267c4.71,0,8.533-3.814,8.533-8.533V409.6c0-4.719-3.823-8.533-8.533-8.533     c-4.71,0-8.533,3.814-8.533,8.533v34.133C332.8,448.452,336.623,452.267,341.333,452.267z"/>
		</g>
	</g>
</g>
<g>
</g>
<g>
</g>
<g>
</g>
<g>
</g>
<g>
</g>
<g>
</g>
<g>
</g>
<g>
</g>
<g>
</g>
<g>
</g>
<g>
</g>
<g>
</g>
<g>
</g>
<g>
</g>
<g>
</g>
</svg>
