<?xml version="1.0" encoding="iso-8859-1"?>
<!-- Generator: Adobe Illustrator 19.0.0, SVG Export Plug-In . SVG Version: 6.00 Build 0)  -->
<svg xmlns="http://www.w3.org/2000/svg" xmlns:xlink="http://www.w3.org/1999/xlink" version="1.1" id="Layer_1" x="0px" y="0px" viewBox="0 0 512 512" style="enable-background:new 0 0 512 512;" xml:space="preserve">
<g>
	<g>
		<g>
			<path d="M507.947,52.48c-2.526-1.57-5.658-1.707-8.294-0.375l-79.505,39.748l39.757-79.505c1.323-2.637,1.178-5.777-0.375-8.294     C457.967,1.536,455.228,0,452.267,0H59.733c-2.961,0-5.7,1.536-7.262,4.053c-1.553,2.517-1.698,5.658-0.375,8.294l39.757,79.505     L12.348,52.105c-2.637-1.323-5.777-1.186-8.294,0.375C1.536,54.033,0,56.772,0,59.733v392.533c0,2.961,1.536,5.7,4.053,7.262     c1.365,0.845,2.918,1.271,4.48,1.271c1.306,0,2.611-0.299,3.814-0.896l79.505-39.757l-39.757,79.505     c-1.323,2.637-1.178,5.786,0.375,8.303c1.562,2.509,4.301,4.045,7.262,4.045h392.533c2.961,0,5.7-1.536,7.262-4.045     c1.553-2.517,1.698-5.666,0.375-8.303l-39.757-79.505l79.505,39.757c1.203,0.597,2.509,0.896,3.814,0.896     c1.562,0,3.115-0.427,4.48-1.271c2.517-1.562,4.053-4.301,4.053-7.262V59.733C512,56.772,510.464,54.033,507.947,52.48z      M73.54,17.067H438.46L395.793,102.4H116.207L73.54,17.067z M370.313,358.246c8.713-9.745,16.171-20.617,22.221-32.324v66.611     h-66.62c11.708-6.05,22.588-13.508,32.324-22.221L320.734,332.8H191.266l-37.504,37.513c9.737,8.713,20.617,16.171,32.324,22.221     h-66.62v-66.611c6.05,11.708,13.508,22.579,22.221,32.324l37.513-37.513V191.266l-37.513-37.504     c-8.713,9.737-16.171,20.617-22.221,32.324v-66.62h66.62c-11.708,6.05-22.588,13.508-32.324,22.229l37.504,37.504h129.468     l37.504-37.504c-9.737-8.721-20.617-16.179-32.324-22.229h66.62v66.62c-6.05-11.708-13.508-22.588-22.221-32.324L332.8,191.266     v129.468L370.313,358.246z M17.067,438.46V73.54l85.333,42.667v279.586L17.067,438.46z M438.46,494.933H73.54l42.667-85.333     h279.586L438.46,494.933z M494.933,438.46L409.6,395.793V116.207l85.333-42.667V438.46z"/>
			<path d="M196.267,315.735h119.467V196.268H196.267V315.735z M256,213.335c23.526,0,42.667,19.14,42.667,42.667     c0,23.526-19.14,42.667-42.667,42.667c-23.526,0-42.667-19.14-42.667-42.667C213.333,232.475,232.474,213.335,256,213.335z"/>
			<path d="M256,281.602c14.114,0,25.6-11.486,25.6-25.6s-11.486-25.6-25.6-25.6s-25.6,11.486-25.6,25.6     S241.886,281.602,256,281.602z"/>
		</g>
	</g>
</g>
<g>
</g>
<g>
</g>
<g>
</g>
<g>
</g>
<g>
</g>
<g>
</g>
<g>
</g>
<g>
</g>
<g>
</g>
<g>
</g>
<g>
</g>
<g>
</g>
<g>
</g>
<g>
</g>
<g>
</g>
</svg>
