<?xml version="1.0" encoding="iso-8859-1"?>
<!-- Generator: Adobe Illustrator 19.0.0, SVG Export Plug-In . SVG Version: 6.00 Build 0)  -->
<svg xmlns="http://www.w3.org/2000/svg" xmlns:xlink="http://www.w3.org/1999/xlink" version="1.1" id="Layer_1" x="0px" y="0px" viewBox="0 0 512.003 512.003" style="enable-background:new 0 0 512.003 512.003;" xml:space="preserve">
<g>
	<g>
		<g>
			<path d="M256.003,332.801c32.93,0,59.733-26.795,59.733-59.733s-26.803-59.733-59.733-59.733     c-32.93,0-59.733,26.795-59.733,59.733S223.072,332.801,256.003,332.801z M256.003,230.401c4.719,0,8.533,3.823,8.533,8.533     c0,4.71-3.814,8.533-8.533,8.533c-14.114,0-25.6,11.486-25.6,25.6c0,4.71-3.814,8.533-8.533,8.533s-8.533-3.823-8.533-8.533     C213.336,249.542,232.476,230.401,256.003,230.401z"/>
			<path d="M165.811,363.785c-0.102-0.085-0.222-0.119-0.316-0.205c-0.094-0.094-0.128-0.222-0.213-0.324     c-15.428-15.514-26.786-35.004-32.691-56.721c-8.277-1.545-15.667-5.888-21.103-11.793c-6.272,7.543-15.599,12.459-26.155,12.459     c-18.825,0-34.133-15.309-34.133-34.133c0-18.816,15.309-34.133,34.133-34.133c18.825,0,34.133,15.317,34.133,34.133     c0,5.572,3.908,10.94,9.361,14.123c-0.521-4.642-0.828-9.344-0.828-14.123c0-35.157,14.259-67.038,37.282-90.189     c0.085-0.102,0.119-0.23,0.213-0.316c0.094-0.094,0.213-0.119,0.316-0.213c1.109-1.101,2.313-2.091,3.456-3.149H0v187.733     h169.267C168.124,365.876,166.921,364.886,165.811,363.785z"/>
			<path d="M68.269,273.068c0,9.412,7.654,17.067,17.067,17.067c9.412,0,17.067-7.654,17.067-17.067     c0-9.412-7.654-17.067-17.067-17.067C75.924,256.001,68.269,263.656,68.269,273.068z"/>
			<path d="M183.597,209.196c-2.185,0-4.369-0.836-6.033-2.5l-5.709-5.709c-14.908,17.374-24.499,39.373-26.351,63.548h8.098     c4.719,0,8.533,3.823,8.533,8.533s-3.814,8.533-8.533,8.533h-8.098c1.852,24.175,11.443,46.174,26.351,63.548l5.709-5.709     c3.328-3.328,8.73-3.328,12.066,0c3.328,3.337,3.328,8.738,0,12.066l-5.709,5.709c17.374,14.908,39.381,24.499,63.548,26.351     v-8.098c0-4.71,3.814-8.533,8.533-8.533s8.533,3.823,8.533,8.533v8.098c24.166-1.852,46.174-11.443,63.548-26.351l-5.709-5.709     c-3.328-3.328-3.328-8.73,0-12.066c3.337-3.328,8.738-3.328,12.066,0l5.709,5.709c14.908-17.374,24.499-39.373,26.351-63.548     h-8.098c-4.719,0-8.533-3.823-8.533-8.533s3.814-8.533,8.533-8.533h8.098c-1.852-24.175-11.443-46.174-26.351-63.548     l-5.709,5.709c-1.664,1.664-3.849,2.5-6.033,2.5c-2.185,0-4.361-0.836-6.033-2.5c-3.328-3.337-3.328-8.738,0-12.066l5.709-5.709     c-17.374-14.908-39.381-24.499-63.548-26.351v8.098c0,4.71-3.814,8.533-8.533,8.533s-8.533-3.823-8.533-8.533v-8.098     c-24.166,1.852-46.174,11.443-63.548,26.351l5.709,5.709c3.328,3.328,3.328,8.73,0,12.066     C187.958,208.36,185.782,209.196,183.597,209.196z M256.003,196.268c42.351,0,76.8,34.458,76.8,76.8s-34.449,76.8-76.8,76.8     c-42.351,0-76.8-34.458-76.8-76.8S213.652,196.268,256.003,196.268z"/>
			<path d="M469.336,110.935h-42.667V93.868c0-9.412-7.654-17.067-17.067-17.067h-51.2c-9.412,0-17.067,7.654-17.067,17.067v17.067     H144.199c-3.951-19.448-21.197-34.133-41.796-34.133c-20.599,0-37.845,14.686-41.796,34.133H42.669     c-23.526,0-42.667,19.14-42.667,42.667v8.533h192.418c18.756-10.795,40.431-17.067,63.582-17.067s44.826,6.272,63.582,17.067     h192.418v-8.533C512.003,130.075,492.862,110.935,469.336,110.935z M78.262,110.935c3.524-9.933,13.013-17.067,24.141-17.067     c11.127,0,20.617,7.134,24.141,17.067H78.262z"/>
			<path d="M256.003,401.068c-23.151,0-44.826-6.272-63.582-17.067H0.003v8.533c0,23.526,19.14,42.667,42.667,42.667h426.667     c23.526,0,42.667-19.14,42.667-42.667v-8.533H319.584C300.828,394.796,279.154,401.068,256.003,401.068z"/>
			<path d="M346.191,182.35c0.102,0.085,0.23,0.119,0.316,0.213c0.094,0.085,0.128,0.213,0.213,0.316     c23.023,23.151,37.282,55.031,37.282,90.189s-14.259,67.038-37.282,90.189c-0.085,0.102-0.119,0.23-0.213,0.316     c-0.085,0.094-0.213,0.128-0.316,0.213c-1.109,1.101-2.313,2.091-3.456,3.149h169.267V179.201H342.735     C343.879,180.259,345.082,181.249,346.191,182.35z M452.269,315.735h-25.6c-4.719,0-8.533-3.823-8.533-8.533     s3.814-8.533,8.533-8.533h25.6c4.719,0,8.533,3.823,8.533,8.533S456.988,315.735,452.269,315.735z M426.669,230.401h25.6     c4.719,0,8.533,3.823,8.533,8.533c0,4.71-3.814,8.533-8.533,8.533h-25.6c-4.719,0-8.533-3.823-8.533-8.533     C418.136,234.224,421.95,230.401,426.669,230.401z M409.603,264.535h59.733c4.719,0,8.533,3.823,8.533,8.533     s-3.814,8.533-8.533,8.533h-59.733c-4.719,0-8.533-3.823-8.533-8.533S404.884,264.535,409.603,264.535z"/>
		</g>
	</g>
</g>
<g>
</g>
<g>
</g>
<g>
</g>
<g>
</g>
<g>
</g>
<g>
</g>
<g>
</g>
<g>
</g>
<g>
</g>
<g>
</g>
<g>
</g>
<g>
</g>
<g>
</g>
<g>
</g>
<g>
</g>
</svg>
