<?xml version="1.0" encoding="iso-8859-1"?>
<!-- Generator: Adobe Illustrator 19.0.0, SVG Export Plug-In . SVG Version: 6.00 Build 0)  -->
<svg xmlns="http://www.w3.org/2000/svg" xmlns:xlink="http://www.w3.org/1999/xlink" version="1.1" id="Layer_1" x="0px" y="0px" viewBox="0 0 512 512" style="enable-background:new 0 0 512 512;" xml:space="preserve">
<g>
	<g>
		<g>
			<path d="M507.947,52.48c-2.517-1.57-5.658-1.707-8.294-0.375l-79.505,39.748l39.757-79.505c1.323-2.637,1.178-5.777-0.375-8.294     C457.967,1.536,455.228,0,452.267,0H59.733c-2.961,0-5.7,1.536-7.262,4.053c-1.553,2.517-1.698,5.658-0.375,8.294l39.757,79.505     L12.348,52.105c-2.645-1.323-5.777-1.186-8.294,0.375C1.536,54.033,0,56.772,0,59.733v392.533c0,2.961,1.536,5.7,4.053,7.262     c1.365,0.845,2.918,1.271,4.48,1.271c1.306,0,2.611-0.299,3.814-0.896l79.505-39.757l-39.757,79.505     c-1.323,2.637-1.178,5.786,0.375,8.303c1.562,2.509,4.301,4.045,7.262,4.045h392.533c2.961,0,5.7-1.536,7.262-4.045     c1.553-2.517,1.698-5.666,0.375-8.303l-39.757-79.505l79.505,39.757c1.203,0.597,2.509,0.896,3.814,0.896     c1.562,0,3.115-0.427,4.48-1.271c2.517-1.562,4.053-4.301,4.053-7.262V59.733C512,56.772,510.464,54.033,507.947,52.48z      M73.54,17.067H438.46L395.793,102.4H116.207L73.54,17.067z M290.466,265.19c0.051,0.691,0.136,1.382,0.196,2.082     c0.179,2.21,0.41,4.42,0.708,6.622c0.026,0.205,0.034,0.427,0.06,0.631c0.077,0.538,0.171,1.058,0.247,1.587     c0.853,5.726,2.091,11.418,3.678,17.05c3.797,13.303,9.557,26.027,17.314,37.743c0.691,1.05,1.084,2.219,1.263,3.43     c8.772,13.252,19.712,24.951,32.435,34.244l7.33,5.854c16-13.218,29.235-29.645,38.835-48.23v66.33H277.001     C227.379,367.36,196.267,315.836,196.267,256c0-59.836,31.121-111.36,80.734-136.533h115.533v66.338     c-9.6-18.586-22.835-35.012-38.835-48.23l-7.031,5.623c-12.868,9.404-23.902,21.188-32.734,34.517     c-0.179,1.195-0.58,2.355-1.263,3.379c-7.757,11.716-13.517,24.439-17.314,37.751c-1.587,5.606-2.816,11.29-3.669,17.007     c-0.085,0.546-0.179,1.092-0.256,1.638c-0.026,0.205-0.034,0.401-0.06,0.606c-0.299,2.193-0.529,4.403-0.708,6.622     c-0.06,0.7-0.145,1.391-0.196,2.091c-0.196,3.046-0.333,6.118-0.333,9.19C290.133,259.081,290.27,262.144,290.466,265.19z      M119.467,185.958v-66.492h66.492C157.449,134.153,134.153,157.449,119.467,185.958z M185.958,392.533h-66.492v-66.492     C134.153,354.552,157.449,377.847,185.958,392.533z M17.067,438.46V73.54l85.333,42.667v279.586L17.067,438.46z M438.46,494.933     H73.54l42.667-85.333h279.586L438.46,494.933z M494.933,438.46L409.6,395.793V116.207l85.333-42.667V438.46z"/>
			<path d="M273.733,242.476c0.171-1.903,0.324-3.789,0.563-5.683c0.171-1.323,0.393-2.645,0.597-3.959     c0.299-1.954,0.597-3.917,0.973-5.854c0.179-0.939,0.384-1.852,0.58-2.782c0.35-1.673,0.666-3.345,1.067-5.009     c-6.511-3.84-13.858-5.854-21.513-5.854c-23.526,0-42.667,19.14-42.667,42.667c0,23.526,19.14,42.667,42.667,42.667     c7.654,0,15.002-2.014,21.504-5.862c-0.401-1.69-0.734-3.405-1.084-5.111c-0.188-0.879-0.375-1.749-0.555-2.628     c-0.375-1.98-0.683-3.985-0.981-5.982c-0.205-1.28-0.427-2.569-0.589-3.857c-0.239-1.911-0.393-3.831-0.563-5.76     c-0.119-1.28-0.264-2.56-0.35-3.84c-0.196-3.2-0.316-6.409-0.316-9.626c0-3.217,0.12-6.426,0.316-9.626     C273.469,245.07,273.614,243.773,273.733,242.476z"/>
			<path d="M242.592,171.752c-8.303,10.53-14.839,22.221-19.703,34.577c9.489-6.34,20.873-10.061,33.109-10.061     c9.353,0,18.321,2.261,26.513,6.366c2.91-8.081,6.477-15.889,10.598-23.373C277.561,171.692,260.204,168.953,242.592,171.752z"/>
			<path d="M256,315.735c-12.245,0-23.629-3.721-33.109-10.061c4.855,12.356,11.401,24.047,19.703,34.577     c17.587,2.79,34.935,0.06,50.492-7.501c-4.122-7.484-7.689-15.292-10.59-23.373C274.313,313.474,265.353,315.735,256,315.735z"/>
		</g>
	</g>
</g>
<g>
</g>
<g>
</g>
<g>
</g>
<g>
</g>
<g>
</g>
<g>
</g>
<g>
</g>
<g>
</g>
<g>
</g>
<g>
</g>
<g>
</g>
<g>
</g>
<g>
</g>
<g>
</g>
<g>
</g>
</svg>
