<?xml version="1.0" encoding="iso-8859-1"?>
<!-- Generator: Adobe Illustrator 19.0.0, SVG Export Plug-In . SVG Version: 6.00 Build 0)  -->
<svg xmlns="http://www.w3.org/2000/svg" xmlns:xlink="http://www.w3.org/1999/xlink" version="1.1" id="Layer_1" x="0px" y="0px" viewBox="0 0 512 512" style="enable-background:new 0 0 512 512;" xml:space="preserve">
<g>
	<g>
		<g>
			<path d="M507.947,52.48c-2.517-1.57-5.658-1.707-8.294-0.375l-79.505,39.748l39.757-79.505c1.323-2.637,1.178-5.777-0.375-8.294     C457.967,1.536,455.228,0,452.267,0H59.733c-2.961,0-5.7,1.536-7.262,4.053c-1.553,2.517-1.69,5.658-0.375,8.294l39.757,79.505     L12.348,52.105c-2.637-1.323-5.786-1.186-8.303,0.375C1.536,54.033,0,56.772,0,59.733v392.533c0,2.961,1.536,5.7,4.045,7.262     c1.374,0.845,2.927,1.271,4.489,1.271c1.306,0,2.611-0.299,3.814-0.896l79.505-39.757l-39.757,79.505     c-1.314,2.637-1.178,5.786,0.375,8.303c1.562,2.509,4.301,4.045,7.262,4.045h392.533c2.961,0,5.7-1.536,7.262-4.045     c1.553-2.517,1.698-5.666,0.375-8.303l-39.757-79.505l79.505,39.757c1.203,0.597,2.509,0.896,3.814,0.896     c1.562,0,3.115-0.427,4.48-1.271c2.517-1.562,4.053-4.301,4.053-7.262V59.733C512,56.772,510.464,54.033,507.947,52.48z      M73.54,17.067H438.46L395.793,102.4H116.207L73.54,17.067z M256,187.733h136.533V204.8h-91.529     c1.041,0.93,2.108,1.835,3.089,2.816c0.051,0.043,0.111,0.051,0.162,0.102l88.277,87.723v24.064l-68.497-68.07     c0.102,1.519,0.23,3.029,0.23,4.565v136.533H307.2v-91.529c-0.913,1.041-1.818,2.091-2.79,3.072     c-0.051,0.051-0.068,0.128-0.119,0.171l-87.689,88.286h-24.064l68.045-68.497c-1.527,0.102-3.038,0.23-4.582,0.23H119.467V307.2     h91.529c-1.033-0.905-2.082-1.809-3.055-2.782c-0.06-0.051-0.137-0.068-0.196-0.128l-88.277-87.723v-24.055l68.497,68.062     c-0.102-1.51-0.23-3.029-0.23-4.574V119.467H204.8v91.537c0.981-1.118,1.954-2.244,3.004-3.294     c0.043-0.051,0.06-0.12,0.111-0.171l93.722-88.073h90.897v66.714c-14.618-28.476-37.743-51.831-66.15-66.552l-72.585,68.216     C254.532,187.819,255.258,187.733,256,187.733z M392.533,325.666v66.867H325.82C354.5,377.813,377.83,354.364,392.533,325.666z      M186.334,392.533h-66.867V325.82C134.195,354.5,157.645,377.839,186.334,392.533z M119.467,186.334v-66.867h66.714     C157.5,134.195,134.17,157.645,119.467,186.334z M17.067,438.46V73.54l85.333,42.667v279.586L17.067,438.46z M438.46,494.933     H73.54l42.667-85.333h279.586L438.46,494.933z M494.933,438.46L409.6,395.793V116.207l85.333-42.667V438.46z"/>
			<path d="M204.8,256.002c0,28.237,22.963,51.2,51.2,51.2s51.2-22.963,51.2-51.2s-22.963-51.2-51.2-51.2     S204.8,227.765,204.8,256.002z"/>
		</g>
	</g>
</g>
<g>
</g>
<g>
</g>
<g>
</g>
<g>
</g>
<g>
</g>
<g>
</g>
<g>
</g>
<g>
</g>
<g>
</g>
<g>
</g>
<g>
</g>
<g>
</g>
<g>
</g>
<g>
</g>
<g>
</g>
</svg>
