<?xml version="1.0" encoding="iso-8859-1"?>
<!-- Generator: Adobe Illustrator 19.0.0, SVG Export Plug-In . SVG Version: 6.00 Build 0)  -->
<svg xmlns="http://www.w3.org/2000/svg" xmlns:xlink="http://www.w3.org/1999/xlink" version="1.1" id="Layer_1" x="0px" y="0px" viewBox="0 0 512 512" style="enable-background:new 0 0 512 512;" xml:space="preserve">
<g>
	<g>
		<g>
			<path d="M507.955,52.48c-2.517-1.562-5.666-1.698-8.303-0.375l-79.505,39.748l39.757-79.505c1.314-2.637,1.178-5.777-0.375-8.294     C457.967,1.536,455.228,0,452.267,0H59.733c-2.961,0-5.7,1.536-7.262,4.053c-1.553,2.517-1.69,5.658-0.375,8.294l39.757,79.505     L12.348,52.105c-2.637-1.323-5.777-1.186-8.303,0.375C1.536,54.033,0,56.772,0,59.733v392.533c0,2.961,1.536,5.7,4.045,7.262     c1.374,0.845,2.927,1.271,4.489,1.271c1.306,0,2.611-0.299,3.814-0.896l79.505-39.757l-39.757,79.505     c-1.314,2.637-1.178,5.786,0.375,8.303c1.562,2.509,4.301,4.045,7.262,4.045h392.533c2.961,0,5.7-1.536,7.262-4.045     c1.553-2.517,1.69-5.666,0.375-8.303l-39.757-79.505l79.505,39.757c1.203,0.597,2.509,0.896,3.814,0.896     c1.562,0,3.115-0.427,4.489-1.271c2.509-1.562,4.045-4.301,4.045-7.262V59.733C512,56.772,510.464,54.033,507.955,52.48z      M73.54,17.067H438.46L395.793,102.4H116.207L73.54,17.067z M256,136.533c-29.867,0-57.148,11.102-78.114,29.286l-46.353-46.353     h248.934l-46.353,46.353C313.148,147.635,285.867,136.533,256,136.533z M332.8,256c0,42.351-34.458,76.8-76.8,76.8     s-76.8-34.449-76.8-76.8c0-42.351,34.458-76.8,76.8-76.8S332.8,213.649,332.8,256z M165.82,177.886     c-18.193,20.966-29.286,48.239-29.286,78.114c0,29.875,11.093,57.148,29.286,78.114l-46.353,46.353V131.533L165.82,177.886z      M177.886,346.189c20.966,18.185,48.247,29.278,78.114,29.278c29.867,0,57.148-11.093,78.114-29.278l46.353,46.345H131.533     L177.886,346.189z M346.18,334.114c18.193-20.966,29.286-48.239,29.286-78.114c0-29.875-11.093-57.148-29.286-78.114     l46.353-46.353v248.934L346.18,334.114z M17.067,438.46V73.54l85.333,42.667v279.586L17.067,438.46z M438.46,494.933H73.54     l42.667-85.333h279.586L438.46,494.933z M494.933,438.46L409.6,395.793V116.207l85.333-42.667V438.46z"/>
			<path d="M196.267,256.002c0,32.93,26.795,59.733,59.733,59.733s59.733-26.803,59.733-59.733c0-32.93-26.795-59.733-59.733-59.733     S196.267,223.072,196.267,256.002z M264.533,221.868c0,4.719-3.823,8.533-8.533,8.533c-14.114,0-25.6,11.486-25.6,25.6     c0,4.719-3.823,8.533-8.533,8.533c-4.71,0-8.533-3.814-8.533-8.533c0-23.526,19.14-42.667,42.667-42.667     C260.71,213.335,264.533,217.149,264.533,221.868z"/>
		</g>
	</g>
</g>
<g>
</g>
<g>
</g>
<g>
</g>
<g>
</g>
<g>
</g>
<g>
</g>
<g>
</g>
<g>
</g>
<g>
</g>
<g>
</g>
<g>
</g>
<g>
</g>
<g>
</g>
<g>
</g>
<g>
</g>
</svg>
