<?xml version="1.0" encoding="iso-8859-1"?>
<!-- Generator: Adobe Illustrator 19.0.0, SVG Export Plug-In . SVG Version: 6.00 Build 0)  -->
<svg xmlns="http://www.w3.org/2000/svg" xmlns:xlink="http://www.w3.org/1999/xlink" version="1.1" id="Layer_1" x="0px" y="0px" viewBox="0 0 512 512" style="enable-background:new 0 0 512 512;" xml:space="preserve">
<g>
	<g>
		<g>
			<path d="M507.955,52.48c-2.517-1.562-5.658-1.698-8.303-0.375l-79.505,39.748l39.757-79.505c1.314-2.637,1.178-5.777-0.375-8.294     C457.967,1.536,455.228,0,452.267,0H59.733c-2.961,0-5.7,1.536-7.262,4.053c-1.553,2.517-1.69,5.658-0.375,8.294l39.757,79.505     L12.348,52.105c-2.637-1.323-5.777-1.186-8.303,0.375C1.536,54.033,0,56.772,0,59.733v392.533c0,2.961,1.536,5.7,4.045,7.262     c1.374,0.845,2.927,1.271,4.489,1.271c1.306,0,2.611-0.299,3.814-0.896l79.505-39.757l-39.757,79.505     c-1.314,2.637-1.178,5.786,0.375,8.303c1.562,2.509,4.301,4.045,7.262,4.045h392.533c2.961,0,5.7-1.536,7.262-4.045     c1.553-2.517,1.69-5.666,0.375-8.303l-39.757-79.505l79.505,39.757c1.203,0.597,2.509,0.896,3.814,0.896     c1.562,0,3.115-0.427,4.489-1.271c2.509-1.562,4.045-4.301,4.045-7.262V59.733C512,56.772,510.464,54.033,507.955,52.48z      M73.54,17.067H438.46L395.793,102.4H116.207L73.54,17.067z M151.066,235.546c0-0.008-0.009-0.008-0.009-0.017l-31.59-31.59     v-84.471h84.471l31.65,31.65c0.009,0.009,0.017,0.009,0.017,0.017l125.261,125.261c0.009,0.008,0.009,0.008,0.017,0.017     l31.65,31.659v84.463h-84.471l-31.59-31.59c-0.009,0-0.009-0.009-0.017-0.009L151.066,235.546z M185.958,392.533h-66.492v-66.492     C134.153,354.552,157.449,377.847,185.958,392.533z M326.042,119.467h66.492v66.492     C377.847,157.449,354.552,134.153,326.042,119.467z M17.067,438.46V73.54l85.333,42.667v279.586L17.067,438.46z M438.46,494.933     H73.54l42.667-85.333h279.586L438.46,494.933z M494.933,438.46L409.6,395.793V116.207l85.333-42.667V438.46z"/>
			<path d="M298.2,358.543l31.915,31.906c25.344-14.02,46.31-34.987,60.339-60.331l-31.974-31.966     C347.25,325.46,325.464,347.288,298.2,358.543z"/>
			<path d="M213.854,153.518l-31.966-31.966c-25.344,14.02-46.31,34.987-60.339,60.331l31.915,31.915     C164.719,186.534,186.539,164.748,213.854,153.518z"/>
			<path d="M345.218,284.879L227.125,166.787c-28.578,9.233-51.149,31.753-60.407,60.271l118.221,118.229     C313.448,336.028,335.976,313.449,345.218,284.879z M249.167,222.543c-13.44,2.739-23.893,13.184-26.615,26.624     c-0.819,4.045-4.378,6.835-8.354,6.835c-0.563,0-1.135-0.06-1.707-0.171c-4.617-0.939-7.603-5.436-6.665-10.061     c4.088-20.164,19.772-35.849,39.945-39.945c4.591-0.947,9.114,2.039,10.061,6.656     C256.77,217.099,253.792,221.613,249.167,222.543z"/>
		</g>
	</g>
</g>
<g>
</g>
<g>
</g>
<g>
</g>
<g>
</g>
<g>
</g>
<g>
</g>
<g>
</g>
<g>
</g>
<g>
</g>
<g>
</g>
<g>
</g>
<g>
</g>
<g>
</g>
<g>
</g>
<g>
</g>
</svg>
