<?xml version="1.0" encoding="iso-8859-1"?>
<!-- Generator: Adobe Illustrator 19.0.0, SVG Export Plug-In . SVG Version: 6.00 Build 0)  -->
<svg xmlns="http://www.w3.org/2000/svg" xmlns:xlink="http://www.w3.org/1999/xlink" version="1.1" id="Layer_1" x="0px" y="0px" viewBox="0 0 512 512" style="enable-background:new 0 0 512 512;" xml:space="preserve">
<g>
	<g>
		<g>
			<path d="M256.002,102.403c-4.719,0-8.533,3.823-8.533,8.533c0,4.71,3.814,8.533,8.533,8.533s8.533-3.823,8.533-8.533     C264.535,106.225,260.721,102.403,256.002,102.403z"/>
			<path d="M256.002,221.869c-47.053,0-85.333,38.281-85.333,85.333s38.281,85.333,85.333,85.333s85.333-38.281,85.333-85.333     S303.055,221.869,256.002,221.869z M256.002,273.069c-18.825,0-34.133,15.309-34.133,34.133c0,4.71-3.814,8.533-8.533,8.533     c-4.719,0-8.533-3.823-8.533-8.533c0-28.237,22.963-51.2,51.2-51.2c4.719,0,8.533,3.823,8.533,8.533     S260.721,273.069,256.002,273.069z"/>
			<path d="M512,264.533v-68.267c0-32.939-26.795-59.733-59.733-59.733H435.2v-17.067c0-9.412-7.654-17.067-17.067-17.067h-17.067     c-9.404,0-17.067,7.654-17.067,17.067v17.067h-54.46l-27.059-54.118c-4.361-8.721-13.141-14.148-22.895-14.148h-47.164     c-9.762,0-18.534,5.427-22.904,14.148l-27.059,54.118H153.6v59.733c0,4.719-3.814,8.533-8.533,8.533H76.8     c-4.719,0-8.533-3.814-8.533-8.533v-59.733h-8.533C26.803,136.533,0,163.328,0,196.267v68.267h126.396     c-1.835,5.547-3.328,11.238-4.437,17.067H0v51.2h121.958c1.109,5.837,2.603,11.52,4.437,17.067H0v17.067     c0,32.939,26.803,59.733,59.733,59.733h130.321c19.567,10.846,42.027,17.067,65.946,17.067s46.387-6.221,65.954-17.067h130.313     c32.939,0,59.733-26.795,59.733-59.733v-17.067H385.613c1.835-5.547,3.319-11.23,4.429-17.067H512v-51.2h-42.667h-68.267h-11.025     c-1.109-5.828-2.594-11.52-4.429-17.067h10.18l23.245-46.481c1.451-2.893,4.395-4.719,7.629-4.719h42.667     c4.719,0,8.533,3.823,8.533,8.533v42.667H512z M224.785,90.052c1.459-2.91,4.386-4.719,7.637-4.719h47.164     c3.251,0,6.178,1.809,7.629,4.719l23.245,46.481H201.54L224.785,90.052z M366.933,315.733h8.098     c-0.043,0.691-0.034,1.399-0.094,2.082c-0.102,1.041-0.205,2.082-0.316,3.123c-0.341,2.97-0.794,5.914-1.357,8.815     c-0.29,1.485-0.64,2.953-0.981,4.42c-0.461,1.963-0.956,3.908-1.51,5.837c-0.469,1.664-0.973,3.328-1.519,4.966     c-0.469,1.391-1.007,2.756-1.519,4.122c-1.143,3.038-2.406,6.033-3.789,8.969c-0.478,0.99-0.947,1.997-1.442,2.97     c-0.222,0.435-0.461,0.845-0.674,1.271l-6.878-4.233c-4.045-2.475-9.284-1.22-11.742,2.799c-2.475,4.011-1.22,9.267,2.79,11.733     l6.852,4.215c-0.239,0.333-0.469,0.666-0.708,0.998c-0.708,0.964-1.417,1.937-2.159,2.876c-1.178,1.51-2.381,2.995-3.644,4.446     c-0.93,1.075-1.911,2.116-2.876,3.166c-1.954,2.116-4.002,4.156-6.118,6.135c-1.161,1.084-2.321,2.167-3.533,3.209     c-1.323,1.152-2.688,2.261-4.07,3.354c-1.22,0.956-2.475,1.877-3.729,2.79c-0.512,0.375-1.032,0.742-1.544,1.109l-4.147-6.921     c-2.423-4.045-7.654-5.35-11.708-2.935c-4.036,2.424-5.359,7.663-2.944,11.708l4.164,6.946     c-13.79,7.006-29.09,11.375-45.303,12.527v-8.098c0-4.71-3.814-8.533-8.533-8.533s-8.533,3.823-8.533,8.533v8.098     c-16.717-1.186-32.478-5.769-46.601-13.158l4.258-6.921c2.475-4.011,1.22-9.267-2.79-11.742     c-4.036-2.483-9.284-1.22-11.742,2.799l-4.224,6.861c-0.128-0.094-0.247-0.179-0.384-0.273c-1.246-0.913-2.509-1.835-3.721-2.79     c-1.391-1.092-2.756-2.202-4.079-3.354c-1.212-1.041-2.364-2.125-3.533-3.209c-2.116-1.98-4.156-4.019-6.118-6.135     c-0.964-1.05-1.937-2.091-2.876-3.166c-1.254-1.451-2.466-2.935-3.635-4.446c-0.742-0.939-1.451-1.911-2.159-2.876     c-0.529-0.717-1.041-1.434-1.553-2.159l6.912-4.139c4.036-2.423,5.35-7.663,2.935-11.708c-2.423-4.045-7.663-5.359-11.708-2.935     l-6.946,4.164c-0.503-0.981-0.973-1.988-1.442-2.978c-1.382-2.935-2.654-5.931-3.797-8.969c-0.512-1.365-1.05-2.731-1.51-4.122     c-0.555-1.638-1.05-3.302-1.527-4.966c-0.546-1.929-1.05-3.874-1.51-5.837c-0.341-1.468-0.691-2.935-0.981-4.42     c-0.555-2.901-1.007-5.845-1.348-8.815c-0.119-1.041-0.222-2.082-0.316-3.123c-0.06-0.683-0.051-1.391-0.102-2.082h8.098     c4.719,0,8.533-3.814,8.533-8.533c0-4.71-3.814-8.533-8.533-8.533h-8.098c1.195-16.708,5.777-32.478,13.158-46.601l6.929,4.258     c1.399,0.862,2.935,1.271,4.463,1.271c2.867,0,5.666-1.442,7.27-4.062c2.483-4.019,1.22-9.276-2.79-11.742l-6.869-4.224     c7.842-10.88,17.417-20.395,28.39-28.1l4.156,6.946c1.604,2.671,4.437,4.147,7.33,4.147c1.493,0,3.004-0.384,4.378-1.212     c4.045-2.415,5.359-7.663,2.944-11.699l-4.156-6.955c13.79-6.997,29.09-11.375,45.295-12.527v8.098     c0,4.719,3.814,8.533,8.533,8.533s8.533-3.814,8.533-8.533v-8.098c16.717,1.186,32.486,5.769,46.601,13.158l-4.258,6.929     c-2.475,4.011-1.212,9.267,2.79,11.733c1.399,0.862,2.944,1.263,4.471,1.263c2.867,0,5.666-1.434,7.27-4.062l4.224-6.861     c10.88,7.834,20.395,17.417,28.1,28.39l-6.946,4.164c-4.045,2.415-5.359,7.663-2.944,11.699c1.604,2.671,4.437,4.156,7.339,4.156     c1.485,0,2.995-0.393,4.369-1.22l6.955-4.156c6.997,13.79,11.383,29.09,12.527,45.303h-8.098c-4.719,0-8.533,3.823-8.533,8.533     C358.4,311.919,362.214,315.733,366.933,315.733z"/>
			<rect x="85.335" y="136.536" width="51.2" height="51.2"/>
			<polygon points="460.802,264.536 460.802,230.403 431.942,230.403 414.875,264.536    "/>
		</g>
	</g>
</g>
<g>
</g>
<g>
</g>
<g>
</g>
<g>
</g>
<g>
</g>
<g>
</g>
<g>
</g>
<g>
</g>
<g>
</g>
<g>
</g>
<g>
</g>
<g>
</g>
<g>
</g>
<g>
</g>
<g>
</g>
</svg>
