<?xml version="1.0" encoding="iso-8859-1"?>
<!-- Generator: Adobe Illustrator 19.0.0, SVG Export Plug-In . SVG Version: 6.00 Build 0)  -->
<svg xmlns="http://www.w3.org/2000/svg" xmlns:xlink="http://www.w3.org/1999/xlink" version="1.1" id="Layer_1" x="0px" y="0px" viewBox="0 0 512.001 512.001" style="enable-background:new 0 0 512.001 512.001;" xml:space="preserve">
<g>
	<g>
		<g>
			<polygon points="220.2,392.534 216.804,426.667 295.319,426.667 291.906,392.534    "/>
			<path d="M215.1,443.734l-1.724,17.365c0,31.403,16.35,50.901,42.667,50.901c26.317,0,42.667-19.499,42.624-51.746l-1.647-16.521     H215.1z"/>
			<path d="M119.467,0h-8.533c-4.719,0-8.533,3.814-8.533,8.533H68.267v256H76.8c0,4.719,3.814,8.533,8.533,8.533h8.533     c4.719,0,8.533-3.814,8.533-8.533h17.067c0,4.719,3.814,8.533,8.533,8.533h8.533c4.719,0,8.533-3.814,8.533-8.533H179.2v8.533     c0,14.114,11.486,25.6,25.6,25.6h24.747l-7.646,76.8h68.301l-7.671-76.8h24.67c14.114,0,25.6-11.486,25.6-25.6v-8.533h93.867     v-256H128C128,3.815,124.186,0,119.467,0z M119.467,230.4h-25.6c-4.719,0-8.533-3.814-8.533-8.533v-25.6     c0-4.719,3.814-8.533,8.533-8.533c4.719,0,8.533,3.814,8.533,8.533v17.067h17.067c4.719,0,8.533,3.814,8.533,8.533     S124.186,230.4,119.467,230.4z M119.467,59.734H102.4V76.8c0,4.719-3.814,8.533-8.533,8.533c-4.719,0-8.533-3.814-8.533-8.533     V51.2c0-4.719,3.814-8.533,8.533-8.533h25.6c4.719,0,8.533,3.814,8.533,8.533S124.186,59.734,119.467,59.734z M315.733,273.067     c0,4.71-3.823,8.533-8.533,8.533h-34.091h-34.133H204.8c-4.71,0-8.533-3.823-8.533-8.533v-8.533h119.467V273.067z      M375.467,42.667h25.6c4.719,0,8.533,3.814,8.533,8.533v25.6c0,4.719-3.814,8.533-8.533,8.533c-4.719,0-8.533-3.814-8.533-8.533     V59.734h-17.067c-4.719,0-8.533-3.814-8.533-8.533S370.748,42.667,375.467,42.667z M375.467,213.334h17.067v-17.067     c0-4.719,3.814-8.533,8.533-8.533c4.719,0,8.533,3.814,8.533,8.533v25.6c0,4.719-3.814,8.533-8.533,8.533h-25.6     c-4.719,0-8.533-3.814-8.533-8.533S370.748,213.334,375.467,213.334z M298.667,128h25.6c4.719,0,8.533,3.814,8.533,8.533     s-3.814,8.533-8.533,8.533h-25.6c-4.719,0-8.533-3.814-8.533-8.533S293.948,128,298.667,128z M238.933,59.734     c0-4.719,3.814-8.533,8.533-8.533S256,55.015,256,59.734v25.6c0,4.719-3.814,8.533-8.533,8.533s-8.533-3.814-8.533-8.533V59.734z      M247.467,128c4.719,0,8.533,3.814,8.533,8.533s-3.814,8.533-8.533,8.533s-8.533-3.814-8.533-8.533S242.748,128,247.467,128z      M238.933,187.734c0-4.719,3.814-8.533,8.533-8.533s8.533,3.814,8.533,8.533v25.6c0,4.719-3.814,8.533-8.533,8.533     s-8.533-3.814-8.533-8.533V187.734z M170.667,128h25.6c4.719,0,8.533,3.814,8.533,8.533s-3.814,8.533-8.533,8.533h-25.6     c-4.719,0-8.533-3.814-8.533-8.533S165.948,128,170.667,128z"/>
			<path d="M486.4,136.534c0-9.412-7.654-17.067-17.067-17.067c-9.412,0-17.067,7.654-17.067,17.067     c0,9.412,7.654,17.067,17.067,17.067C478.746,153.6,486.4,145.946,486.4,136.534z"/>
			<path d="M0,42.343v188.382c0,18.645,15.164,33.809,33.809,33.809H51.2v-256H33.809C15.164,8.534,0,23.698,0,42.343z      M42.667,179.2c0,4.719-3.814,8.533-8.533,8.533S25.6,183.919,25.6,179.2v-8.533c0-4.719,3.814-8.533,8.533-8.533     s8.533,3.814,8.533,8.533V179.2z M42.667,102.4v42.667c0,4.719-3.814,8.533-8.533,8.533s-8.533-3.814-8.533-8.533V102.4     c0-4.719,3.814-8.533,8.533-8.533S42.667,97.682,42.667,102.4z"/>
			<path d="M478.192,8.534h-34.458v105.66c6.255-7.168,15.36-11.793,25.6-11.793c18.825,0,34.133,15.309,34.133,34.133     s-15.309,34.133-34.133,34.133c-10.24,0-19.345-4.625-25.6-11.793v105.66h34.458c18.645,0,33.809-15.164,33.809-33.809V42.343     C512.001,23.698,496.837,8.534,478.192,8.534z"/>
		</g>
	</g>
</g>
<g>
</g>
<g>
</g>
<g>
</g>
<g>
</g>
<g>
</g>
<g>
</g>
<g>
</g>
<g>
</g>
<g>
</g>
<g>
</g>
<g>
</g>
<g>
</g>
<g>
</g>
<g>
</g>
<g>
</g>
</svg>
