<?xml version="1.0" encoding="iso-8859-1"?>
<!-- Generator: Adobe Illustrator 19.0.0, SVG Export Plug-In . SVG Version: 6.00 Build 0)  -->
<svg xmlns="http://www.w3.org/2000/svg" xmlns:xlink="http://www.w3.org/1999/xlink" version="1.1" id="Layer_1" x="0px" y="0px" viewBox="0 0 512.001 512.001" style="enable-background:new 0 0 512.001 512.001;" xml:space="preserve">
<g>
	<g>
		<g>
			<polygon points="220.163,392.534 216.766,426.667 295.273,426.667 291.868,392.534    "/>
			<path d="M215.062,443.734l-1.732,17.365c0,31.403,16.35,50.901,42.667,50.901c26.317,0,42.667-19.499,42.624-51.746     l-1.647-16.521H215.062z"/>
			<path d="M119.467,0h-8.533c-4.71,0-8.533,3.814-8.533,8.533H68.267v256H76.8c0,4.719,3.823,8.533,8.533,8.533h8.533     c4.71,0,8.533-3.814,8.533-8.533h17.067c0,4.719,3.823,8.533,8.533,8.533h8.533c4.71,0,8.533-3.814,8.533-8.533H179.2v8.533     c0,14.114,11.486,25.6,25.6,25.6h24.713l-7.654,76.8h68.301l-7.663-76.8H307.2c14.114,0,25.6-11.486,25.6-25.6v-8.533h93.867     v-256H128C128,3.815,124.177,0,119.467,0z M76.8,136.534c0-4.719,3.823-8.533,8.533-8.533H102.4c4.71,0,8.533,3.814,8.533,8.533     s-3.823,8.533-8.533,8.533H85.333C80.623,145.067,76.8,141.253,76.8,136.534z M119.467,230.4h-25.6     c-4.71,0-8.533-3.814-8.533-8.533v-25.6c0-4.719,3.823-8.533,8.533-8.533c4.71,0,8.533,3.814,8.533,8.533v17.067h17.067     c4.71,0,8.533,3.814,8.533,8.533S124.177,230.4,119.467,230.4z M119.467,59.734H102.4V76.8c0,4.719-3.823,8.533-8.533,8.533     c-4.71,0-8.533-3.814-8.533-8.533V51.2c0-4.719,3.823-8.533,8.533-8.533h25.6c4.71,0,8.533,3.814,8.533,8.533     S124.177,59.734,119.467,59.734z M418.133,136.534c0,4.719-3.814,8.533-8.533,8.533h-17.067c-4.71,0-8.533-3.814-8.533-8.533     s3.823-8.533,8.533-8.533H409.6C414.319,128,418.133,131.815,418.133,136.534z M375.467,42.667h25.6     c4.719,0,8.533,3.814,8.533,8.533v25.6c0,4.719-3.814,8.533-8.533,8.533c-4.71,0-8.533-3.814-8.533-8.533V59.734h-17.067     c-4.71,0-8.533-3.814-8.533-8.533S370.756,42.667,375.467,42.667z M375.467,213.334h17.067v-17.067     c0-4.719,3.823-8.533,8.533-8.533c4.719,0,8.533,3.814,8.533,8.533v25.6c0,4.719-3.814,8.533-8.533,8.533h-25.6     c-4.71,0-8.533-3.814-8.533-8.533S370.756,213.334,375.467,213.334z M315.733,273.067c0,4.71-3.831,8.533-8.533,8.533h-34.133     h-34.133H204.8c-4.702,0-8.533-3.823-8.533-8.533v-8.533h119.467V273.067z M238.933,230.4v-17.067     c0-4.719,3.823-8.533,8.533-8.533s8.533,3.814,8.533,8.533V230.4c0,4.719-3.823,8.533-8.533,8.533S238.933,235.119,238.933,230.4     z M238.933,42.667c0-4.719,3.823-8.533,8.533-8.533S256,37.948,256,42.667v17.067c0,4.719-3.823,8.533-8.533,8.533     s-8.533-3.814-8.533-8.533V42.667z M202.223,179.602l18.918-5.99c0.435-0.341,0.725-0.708,0.785-0.879l-0.043-5.871     c-2.517-3.277-6.502-9.233-8.909-16.879c-3.524-2.253-8.175-5.948-8.175-11.989v-10.308c0-4.932,3.268-8.107,5.99-10.129v-10.027     c-0.265-2.833-0.452-11.785,6.263-19.584c6.366-7.398,16.597-11.145,30.413-11.145c13.798,0,24.064,3.738,30.532,11.102     c6.861,7.825,6.758,16.828,6.545,19.558v10.249c2.569,2.039,5.589,5.205,5.589,9.975v10.308c0,6.46-4.898,11.127-10.266,13.798     c-1.749,4.497-3.959,8.738-6.588,12.655c-0.051,0.307-0.119,0.64-0.213,0.99v7.979c0,0.333,0.008,0.614,0.017,0.845l19.285,5.239     c4.548,1.237,7.236,5.922,5.999,10.47c-1.237,4.548-5.905,7.279-10.47,5.999l-21.82-5.922c-0.538-0.145-1.067-0.35-1.562-0.597     c-5.658-2.816-8.516-8.209-8.516-16.034v-9.66c0-1.024,0.179-2.031,0.538-2.978c0.179-1.263,0.64-3.089,1.963-4.949     c2.765-3.908,4.949-8.32,6.485-13.099c0.853-2.662,2.953-4.727,5.623-5.547c0.853-0.256,1.792-0.742,2.458-1.169v-5.589     c-0.111-0.077-0.222-0.145-0.333-0.222c-0.956-0.683-1.818-1.331-2.449-1.894c-1.783-1.621-2.807-3.925-2.807-6.332v-14.908     c0-0.375,0.026-0.742,0.077-1.118c-0.009,0,0.299-3.857-2.517-6.938c-3.081-3.371-9.156-5.146-17.57-5.146     c-8.499,0-14.541,1.801-17.476,5.205c-2.551,2.97-2.236,6.699-2.227,6.724c0.06,0.418,0.094,0.845,0.094,1.271v14.908     c0,2.415-1.024,4.719-2.816,6.332c-0.691,0.631-1.732,1.365-2.884,2.142c-0.094,0.06-0.188,0.128-0.29,0.188v4.77     c0.572,0.375,1.212,0.759,1.613,0.998l1.468,0.913c1.869,1.203,3.183,3.089,3.678,5.248c2.005,8.738,7.962,15.309,8.013,15.377     c1.476,1.57,2.295,3.652,2.295,5.811v9.421c0,6.212-3.968,12.39-10.121,15.735c-0.478,0.265-0.981,0.469-1.493,0.64     l-19.942,6.315c-0.853,0.273-1.724,0.401-2.577,0.401c-3.627,0-6.98-2.313-8.132-5.956     C195.243,185.814,197.726,181.027,202.223,179.602z"/>
			<path d="M0,42.343v188.382c0,18.645,15.164,33.809,33.801,33.809H51.2v-256H33.801C15.164,8.534,0,23.698,0,42.343z      M42.667,179.2c0,4.719-3.823,8.533-8.533,8.533c-4.71,0-8.533-3.814-8.533-8.533v-8.533c0-4.719,3.823-8.533,8.533-8.533     c4.71,0,8.533,3.814,8.533,8.533V179.2z M42.667,102.4v42.667c0,4.719-3.823,8.533-8.533,8.533c-4.71,0-8.533-3.814-8.533-8.533     V102.4c0-4.719,3.823-8.533,8.533-8.533C38.844,93.867,42.667,97.682,42.667,102.4z"/>
			<path d="M478.192,8.534h-34.458v105.66c6.255-7.168,15.36-11.793,25.6-11.793c18.825,0,34.133,15.309,34.133,34.133     s-15.309,34.133-34.133,34.133c-10.24,0-19.345-4.625-25.6-11.793v105.66h34.458c18.645,0,33.809-15.164,33.809-33.809V42.343     C512.001,23.698,496.837,8.534,478.192,8.534z"/>
			<path d="M486.4,136.534c0-9.412-7.654-17.067-17.067-17.067c-9.412,0-17.067,7.654-17.067,17.067     c0,9.412,7.654,17.067,17.067,17.067C478.746,153.6,486.4,145.946,486.4,136.534z"/>
		</g>
	</g>
</g>
<g>
</g>
<g>
</g>
<g>
</g>
<g>
</g>
<g>
</g>
<g>
</g>
<g>
</g>
<g>
</g>
<g>
</g>
<g>
</g>
<g>
</g>
<g>
</g>
<g>
</g>
<g>
</g>
<g>
</g>
</svg>
