<?xml version="1.0" encoding="iso-8859-1"?>
<!-- Generator: Adobe Illustrator 19.0.0, SVG Export Plug-In . SVG Version: 6.00 Build 0)  -->
<svg xmlns="http://www.w3.org/2000/svg" xmlns:xlink="http://www.w3.org/1999/xlink" version="1.1" id="Layer_1" x="0px" y="0px" viewBox="0 0 511.998 511.998" style="enable-background:new 0 0 511.998 511.998;" xml:space="preserve">
<g>
	<g>
		<g>
			<polygon points="220.163,392.532 216.767,426.665 295.274,426.665 291.869,392.532    "/>
			<path d="M215.063,443.732l-1.732,17.365c0,31.403,16.35,50.901,42.667,50.901c26.317,0,42.667-19.499,42.624-51.746     l-1.647-16.521H215.063z"/>
			<path d="M119.463,0h-8.533c-4.71,0-8.533,3.814-8.533,8.533H68.263v256h8.533c0,4.719,3.823,8.533,8.533,8.533h8.533     c4.719,0,8.533-3.814,8.533-8.533h17.067c0,4.719,3.823,8.533,8.533,8.533h8.533c4.719,0,8.533-3.814,8.533-8.533h34.133v8.533     c0,14.114,11.486,25.6,25.6,25.6h24.713l-7.654,76.8h68.309l-7.671-76.8h24.704c14.123,0,25.6-11.486,25.6-25.6v-8.533h93.867     v-256H127.997C127.997,3.814,124.182,0,119.463,0z M76.797,136.533c0-4.719,3.823-8.533,8.533-8.533h17.067     c4.719,0,8.533,3.814,8.533,8.533s-3.814,8.533-8.533,8.533H85.33C80.62,145.067,76.797,141.252,76.797,136.533z M119.463,230.4     h-25.6c-4.71,0-8.533-3.814-8.533-8.533v-25.6c0-4.719,3.823-8.533,8.533-8.533c4.719,0,8.533,3.814,8.533,8.533v17.067h17.067     c4.719,0,8.533,3.814,8.533,8.533S124.182,230.4,119.463,230.4z M119.463,59.733h-17.067V76.8c0,4.719-3.814,8.533-8.533,8.533     c-4.71,0-8.533-3.814-8.533-8.533V51.2c0-4.719,3.823-8.533,8.533-8.533h25.6c4.719,0,8.533,3.814,8.533,8.533     S124.182,59.733,119.463,59.733z M418.13,136.533c0,4.719-3.814,8.533-8.533,8.533H392.53c-4.71,0-8.533-3.814-8.533-8.533     S387.82,128,392.53,128h17.067C414.316,128,418.13,131.814,418.13,136.533z M375.463,42.667h25.6     c4.719,0,8.533,3.814,8.533,8.533v25.6c0,4.719-3.814,8.533-8.533,8.533c-4.71,0-8.533-3.814-8.533-8.533V59.733h-17.067     c-4.71,0-8.533-3.814-8.533-8.533S370.753,42.667,375.463,42.667z M375.463,213.333h17.067v-17.067     c0-4.719,3.823-8.533,8.533-8.533c4.719,0,8.533,3.814,8.533,8.533v25.6c0,4.719-3.814,8.533-8.533,8.533h-25.6     c-4.71,0-8.533-3.814-8.533-8.533S370.753,213.333,375.463,213.333z M315.73,273.067c0,4.71-3.823,8.533-8.533,8.533h-34.133     H238.93h-34.133c-4.702,0-8.533-3.823-8.533-8.533v-8.533H315.73V273.067z M238.93,230.4v-17.067     c0-4.719,3.823-8.533,8.533-8.533c4.719,0,8.533,3.814,8.533,8.533V230.4c0,4.719-3.814,8.533-8.533,8.533     C242.753,238.933,238.93,235.119,238.93,230.4z M238.93,42.667c0-4.719,3.823-8.533,8.533-8.533c4.719,0,8.533,3.814,8.533,8.533     v17.067c0,4.719-3.814,8.533-8.533,8.533c-4.71,0-8.533-3.814-8.533-8.533V42.667z M190.384,149.965l1.468-2.005     c5.999-8.124,16.051-21.734,16.358-37.35c-0.017-1.058,0.06-13.338,9.6-23.04c7.023-7.142,17.007-10.769,29.653-10.769     c12.655,0,22.639,3.627,29.662,10.769c9.54,9.702,9.617,21.982,9.6,23.347c0.307,15.309,10.351,28.919,16.358,37.043l1.468,2.005     c3.098,4.25,2.927,8.047,2.244,10.487c-1.041,3.686-3.806,6.485-8.209,8.311c-6.562,2.722-14.08,2.176-16.486,1.903h-1.442     l11.273,10.94c3.379,3.285,3.456,8.695,0.171,12.066c-1.664,1.724-3.891,2.594-6.118,2.594c-2.142,0-4.284-0.802-5.948-2.406     l-16.913-16.435c-3.098-2.159-4.83-5.53-5.922-7.654c-1.741-3.362-1.562-7.543,0.469-10.871c2.022-3.319,5.487-5.299,9.267-5.299     h15.684c0.41,0,0.819,0.034,1.229,0.094c0.614,0.077,1.468,0.137,2.398,0.145c-6.886-9.677-16.23-24.772-16.589-42.897     c-0.034-4.173-1.724-17.075-22.195-17.075c-7.902,0-13.79,1.903-17.485,5.666c-4.599,4.676-4.702,11.034-4.702,11.102     c-0.358,18.372-9.694,33.51-16.58,43.187c1.126,0,2.022-0.085,2.389-0.128c0.41-0.06,0.811-0.094,1.229-0.094h15.684     c3.78,0,7.245,1.98,9.267,5.299c2.031,3.328,2.21,7.509,0.469,10.88c-1.092,2.116-2.825,5.487-5.922,7.646L214.9,193.86     c-3.379,3.268-8.789,3.208-12.075-0.188c-3.277-3.371-3.2-8.781,0.179-12.066l11.273-10.94h-1.442     c-2.398,0.273-9.933,0.819-16.486-1.903c-4.403-1.826-7.168-4.625-8.209-8.311C187.457,158.012,187.286,154.214,190.384,149.965z     "/>
			<path d="M0.001,42.341v188.382c0,18.645,15.164,33.809,33.801,33.809h17.399v-256H33.801C15.165,8.532,0.001,23.695,0.001,42.341     z M42.668,179.198c0,4.719-3.823,8.533-8.533,8.533c-4.71,0-8.533-3.814-8.533-8.533v-8.533c0-4.719,3.823-8.533,8.533-8.533     c4.71,0,8.533,3.814,8.533,8.533V179.198z M42.668,102.398v42.667c0,4.719-3.823,8.533-8.533,8.533     c-4.71,0-8.533-3.814-8.533-8.533v-42.667c0-4.719,3.823-8.533,8.533-8.533C38.845,93.865,42.668,97.679,42.668,102.398z"/>
			<path d="M486.401,136.532c0-9.412-7.654-17.067-17.067-17.067c-9.412,0-17.067,7.654-17.067,17.067     c0,9.412,7.654,17.067,17.067,17.067C478.746,153.598,486.401,145.944,486.401,136.532z"/>
			<path d="M478.197,8.532h-34.466v105.66c6.263-7.168,15.36-11.793,25.6-11.793c18.825,0,34.133,15.309,34.133,34.133     s-15.309,34.133-34.133,34.133c-10.24,0-19.337-4.625-25.6-11.793v105.66h34.466c18.645,0,33.8-15.164,33.8-33.809V42.341     C511.997,23.695,496.842,8.532,478.197,8.532z"/>
		</g>
	</g>
</g>
<g>
</g>
<g>
</g>
<g>
</g>
<g>
</g>
<g>
</g>
<g>
</g>
<g>
</g>
<g>
</g>
<g>
</g>
<g>
</g>
<g>
</g>
<g>
</g>
<g>
</g>
<g>
</g>
<g>
</g>
</svg>
