<?xml version="1.0" encoding="iso-8859-1"?>
<!-- Generator: Adobe Illustrator 19.0.0, SVG Export Plug-In . SVG Version: 6.00 Build 0)  -->
<svg xmlns="http://www.w3.org/2000/svg" xmlns:xlink="http://www.w3.org/1999/xlink" version="1.1" id="Layer_1" x="0px" y="0px" viewBox="0 0 512 512" style="enable-background:new 0 0 512 512;" xml:space="preserve">
<g>
	<g>
		<g>
			<path d="M452.267,119.684v-17.067c0-9.412-7.654-17.067-17.067-17.067h-17.067c-9.412,0-17.067,7.654-17.067,17.067v17.067     h-256.87c-3.951-19.448-21.197-34.133-41.796-34.133c-20.599,0-37.845,14.686-41.796,34.133h-0.87     C26.803,119.684,0,146.479,0,179.418v170.667c0,32.939,26.803,59.733,59.733,59.733h130.654     c17.135,9.455,36.463,15.351,57.079,16.631v-25.165c0-4.71,3.814-8.533,8.533-8.533s8.533,3.823,8.533,8.533v25.165     c20.548-1.28,39.757-7.228,56.866-16.631h130.867c32.93,0,59.733-26.795,59.733-59.733V179.418     C512,146.479,485.197,119.684,452.267,119.684z M102.4,102.618c11.127,0,20.617,7.134,24.141,17.067H78.259     C81.783,109.751,91.273,102.618,102.4,102.618z M76.8,136.751h59.733H409.6h25.6v101.973c0,25.412-18.483,46.549-42.692,50.799     c-0.026-3.84-0.247-7.629-0.589-11.383c-0.111-1.212-0.247-2.423-0.384-3.627c-0.367-3.106-0.836-6.178-1.408-9.225     c-0.341-1.818-0.734-3.61-1.143-5.41c-0.563-2.458-1.186-4.898-1.886-7.296c-0.597-2.091-1.263-4.139-1.954-6.187     c-0.393-1.126-0.819-2.236-1.237-3.354c-2.85-7.671-6.349-15.019-10.462-21.982c-0.316-0.529-0.648-1.058-0.981-1.587     c-11.076-18.142-26.223-33.476-44.22-44.766c-7.697-4.821-15.881-8.875-24.491-12.1c-1.041-0.401-2.091-0.785-3.157-1.161     c-2.159-0.751-4.318-1.476-6.528-2.116c-2.807-0.828-5.649-1.562-8.533-2.202c-1.621-0.358-3.251-0.666-4.89-0.973     c-2.85-0.529-5.726-0.964-8.636-1.314c-1.254-0.145-2.517-0.29-3.78-0.401c-4.036-0.367-8.107-0.623-12.228-0.623     s-8.183,0.256-12.22,0.614c-1.212,0.111-2.415,0.247-3.61,0.384c-3.123,0.367-6.195,0.836-9.233,1.408     c-1.818,0.341-3.61,0.734-5.402,1.143c-2.458,0.563-4.907,1.178-7.305,1.886c-2.091,0.597-4.13,1.263-6.178,1.954     c-1.135,0.393-2.253,0.819-3.379,1.237c-7.663,2.85-15.002,6.349-21.956,10.462c-18.842,11.162-34.748,26.684-46.37,45.218     c-0.324,0.521-0.631,1.05-0.956,1.57c-4.395,7.219-8.115,14.857-11.128,22.869c-0.401,1.058-0.802,2.125-1.169,3.191     c-0.742,2.159-1.476,4.318-2.116,6.519c-0.836,2.833-1.57,5.709-2.227,8.619c-0.35,1.596-0.64,3.2-0.947,4.813     c-0.521,2.85-0.973,5.726-1.314,8.636c-0.145,1.254-0.29,2.509-0.41,3.78c-0.341,3.763-0.563,7.552-0.58,11.401     c-24.218-4.25-42.701-25.387-42.701-50.799V136.751z M366.933,281.818h8.098c0.205,2.833,0.435,5.658,0.435,8.533     c0,2.569-0.094,5.12-0.256,7.663c-0.034,0.299-0.179,0.563-0.179,0.87h-8.098c-4.719,0-8.533-3.823-8.533-8.533     C358.4,285.641,362.214,281.818,366.933,281.818z M355.55,240.67c-1.374,0.819-2.884,1.212-4.378,1.212     c-2.901,0-5.734-1.476-7.33-4.147c-2.415-4.045-1.101-9.284,2.944-11.708l6.946-4.156c3.268,4.642,6.187,9.54,8.764,14.635     L355.55,240.67z M325.632,193.472l-4.224,6.869c-1.604,2.62-4.412,4.062-7.27,4.062c-1.527,0-3.072-0.41-4.471-1.263     c-4.011-2.466-5.265-7.723-2.79-11.742l4.258-6.921C316.203,187.123,321.024,190.153,325.632,193.472z M264.533,171.319v8.098     c0,4.71-3.814,8.533-8.533,8.533s-8.533-3.823-8.533-8.533v-8.098c2.833-0.205,5.649-0.435,8.533-0.435     S261.7,171.115,264.533,171.319z M203.383,202.5c-1.374,0.819-2.884,1.212-4.378,1.212c-2.901,0-5.734-1.476-7.33-4.147     l-4.156-6.955c4.651-3.26,9.549-6.178,14.643-8.764l4.164,6.946C208.742,194.837,207.428,200.077,203.383,202.5z      M145.067,281.818c4.719,0,8.533,3.823,8.533,8.533c0,4.71-3.814,8.533-8.533,8.533h-8.098c0-0.307-0.145-0.572-0.179-0.87     c-0.162-2.543-0.256-5.094-0.256-7.663c0-2.876,0.23-5.7,0.435-8.533H145.067z M59.733,392.751     c-23.526,0-42.667-19.14-42.667-42.667V179.418c0-23.526,19.14-42.667,42.667-42.667v101.973     c0,35.209,26.633,64.273,60.809,68.198c0.503,4.045,1.152,8.038,1.997,11.964c0.137,0.606,0.307,1.203,0.444,1.809     c0.853,3.652,1.852,7.245,2.987,10.778c0.299,0.956,0.572,1.903,0.896,2.85c1.271,3.678,2.697,7.279,4.258,10.803     c0.589,1.323,1.22,2.62,1.843,3.925c1.263,2.628,2.62,5.214,4.045,7.757c0.93,1.664,1.877,3.311,2.893,4.941     c-0.034-0.034-0.077-0.043-0.102-0.077c0.29,0.478,0.657,0.905,0.956,1.374c2.355,3.729,4.855,7.347,7.561,10.829     c0.597,0.768,1.237,1.493,1.86,2.253c2.603,3.217,5.333,6.332,8.235,9.318c0.751,0.768,1.545,1.51,2.321,2.27     c1.715,1.681,3.336,3.439,5.129,5.035H59.733z M165.214,354.675l-6.903,4.13c-3.277-4.659-6.238-9.54-8.806-14.609l6.946-4.164     c4.053-2.415,9.284-1.109,11.708,2.935C170.573,347.012,169.259,352.252,165.214,354.675z M168.789,236.676     c-1.604,2.628-4.403,4.07-7.27,4.07c-1.527,0-3.072-0.41-4.471-1.271l-6.921-4.258c2.645-5.069,5.675-9.899,8.994-14.507     l6.878,4.233C170.01,227.409,171.264,232.666,168.789,236.676z M205.124,389.303l-5.137,8.354     c-0.725-1.536-1.852-2.884-3.405-3.772c-3.55-2.039-6.921-4.301-10.214-6.664l4.224-6.861c2.458-4.019,7.697-5.274,11.742-2.799     C206.345,380.028,207.599,385.284,205.124,389.303z M315.418,393.886c-2.15,1.237-3.482,3.328-3.985,5.641l-5.76-9.617     c-2.415-4.045-1.101-9.284,2.944-11.708c4.053-2.415,9.284-1.101,11.708,2.935l4.139,6.921     C321.545,390.106,318.549,392.085,315.418,393.886z M256,375.684c-47.053,0-85.333-38.281-85.333-85.333     s38.281-85.333,85.333-85.333s85.333,38.281,85.333,85.333S303.053,375.684,256,375.684z M343.211,344.026     c2.466-4.019,7.697-5.282,11.742-2.799l6.869,4.233c-2.637,5.043-5.641,9.89-8.969,14.515l-6.852-4.216     C341.99,353.293,340.736,348.036,343.211,344.026z M494.933,350.084c0,23.526-19.14,42.667-42.667,42.667H346.138     c1.451-1.289,2.756-2.731,4.156-4.079c0.853-0.819,1.707-1.647,2.543-2.492c2.739-2.773,5.333-5.658,7.825-8.636     c0.836-1.007,1.681-2.005,2.5-3.038c2.355-2.995,4.548-6.11,6.639-9.293c0.512-0.768,1.118-1.459,1.613-2.244     c-0.06,0.077-0.171,0.102-0.239,0.179c0.469-0.734,0.99-1.434,1.442-2.176c-0.009,0.009-0.009,0.017-0.009,0.034     c0.026-0.051,0.051-0.094,0.077-0.145c0.887-1.468,1.698-2.978,2.534-4.48c1.254-2.261,2.458-4.557,3.593-6.895     c0.648-1.34,1.331-2.662,1.929-4.028c1.57-3.499,2.97-7.091,4.232-10.744c0.393-1.109,0.734-2.236,1.092-3.354     c1.152-3.593,2.176-7.236,3.029-10.948c0.094-0.444,0.23-0.879,0.333-1.323c0.87-3.994,1.51-8.055,2.022-12.16     c34.176-3.934,60.817-32.998,60.817-68.207V136.751c23.526,0,42.667,19.14,42.667,42.667V350.084z"/>
			<path d="M375.467,170.884H409.6c4.719,0,8.533-3.823,8.533-8.533c0-4.71-3.814-8.533-8.533-8.533h-34.133     c-4.719,0-8.533,3.823-8.533,8.533C366.933,167.061,370.748,170.884,375.467,170.884z"/>
			<path d="M256,222.084c-37.641,0-68.267,30.626-68.267,68.267c0,37.641,30.626,68.267,68.267,68.267     c37.641,0,68.267-30.626,68.267-68.267C324.267,252.71,293.641,222.084,256,222.084z"/>
		</g>
	</g>
</g>
<g>
</g>
<g>
</g>
<g>
</g>
<g>
</g>
<g>
</g>
<g>
</g>
<g>
</g>
<g>
</g>
<g>
</g>
<g>
</g>
<g>
</g>
<g>
</g>
<g>
</g>
<g>
</g>
<g>
</g>
</svg>
