<?xml version="1.0" encoding="iso-8859-1"?>
<!-- Generator: Adobe Illustrator 19.0.0, SVG Export Plug-In . SVG Version: 6.00 Build 0)  -->
<svg xmlns="http://www.w3.org/2000/svg" xmlns:xlink="http://www.w3.org/1999/xlink" version="1.1" id="Layer_1" x="0px" y="0px" viewBox="0 0 512 512" style="enable-background:new 0 0 512 512;" xml:space="preserve">
<g>
	<g>
		<g>
			<rect x="341.333" y="128" width="17.067" height="17.067"/>
			<polygon points="375.467,119.467 375.467,153.6 381.158,153.6 426.675,119.467    "/>
			<polygon points="443.733,153.6 443.733,128 409.6,153.6    "/>
			<path d="M0,0v512h512V0H0z M93.867,443.733H25.6c-4.719,0-8.533-3.814-8.533-8.533v-68.267c0-4.719,3.814-8.533,8.533-8.533     s8.533,3.814,8.533,8.533v59.733h59.733c4.719,0,8.533,3.814,8.533,8.533S98.586,443.733,93.867,443.733z M17.067,256     c0-4.719,3.814-8.533,8.533-8.533h34.133c4.719,0,8.533,3.814,8.533,8.533s-3.814,8.533-8.533,8.533H25.6     C20.881,264.533,17.067,260.719,17.067,256z M93.867,85.333H34.133v59.733c0,4.719-3.814,8.533-8.533,8.533     s-8.533-3.814-8.533-8.533V76.8c0-4.719,3.814-8.533,8.533-8.533h68.267c4.719,0,8.533,3.814,8.533,8.533     S98.586,85.333,93.867,85.333z M187.733,264.533c-4.719,0-8.533-3.814-8.533-8.533s3.814-8.533,8.533-8.533     s8.533,3.814,8.533,8.533S192.452,264.533,187.733,264.533z M213.76,310.306c-3.328,3.337-8.738,3.337-12.066,0     c-3.336-3.328-3.336-8.738,0-12.075c3.328-3.319,8.738-3.319,12.066,0C217.088,301.568,217.088,306.978,213.76,310.306z      M213.76,213.76c-3.328,3.328-8.738,3.328-12.066,0c-3.336-3.328-3.336-8.738,0-12.066c3.328-3.336,8.738-3.336,12.066,0     C217.088,205.022,217.088,210.432,213.76,213.76z M264.533,435.2c0,4.719-3.814,8.533-8.533,8.533s-8.533-3.814-8.533-8.533     v-34.133c0-4.719,3.814-8.533,8.533-8.533s8.533,3.814,8.533,8.533V435.2z M256,332.8c-4.719,0-8.533-3.814-8.533-8.533     c0-4.719,3.814-8.533,8.533-8.533s8.533,3.814,8.533,8.533C264.533,328.986,260.719,332.8,256,332.8z M256,196.267     c-4.719,0-8.533-3.814-8.533-8.533s3.814-8.533,8.533-8.533s8.533,3.814,8.533,8.533S260.719,196.267,256,196.267z      M264.533,110.933c0,4.719-3.814,8.533-8.533,8.533s-8.533-3.814-8.533-8.533V76.8c0-4.719,3.814-8.533,8.533-8.533     s8.533,3.814,8.533,8.533V110.933z M310.306,310.306c-3.328,3.337-8.738,3.337-12.066,0c-3.328-3.328-3.328-8.738,0-12.075     c3.328-3.319,8.738-3.319,12.066,0C313.643,301.568,313.643,306.978,310.306,310.306z M310.306,213.76     c-3.328,3.328-8.738,3.328-12.066,0c-3.328-3.328-3.328-8.738,0-12.066c3.328-3.336,8.738-3.336,12.066,0     C313.643,205.022,313.643,210.432,310.306,213.76z M324.267,264.533c-4.719,0-8.533-3.814-8.533-8.533s3.814-8.533,8.533-8.533     c4.719,0,8.533,3.814,8.533,8.533S328.986,264.533,324.267,264.533z M366.933,170.667c-4.719,0-8.533-3.814-8.533-8.533h-25.6     c-4.719,0-8.533-3.814-8.533-8.533v-34.133c0-4.719,3.814-8.533,8.533-8.533h25.6c0-4.719,3.814-8.533,8.533-8.533h29.423h46.174     c4.565,0,10.615-1.024,14.49,1.57c4.983,3.328,3.78,10.453,3.78,15.65v21.82v20.693c0,4.719-3.814,8.533-8.533,8.533H384H366.933     z M494.933,435.2c0,4.719-3.814,8.533-8.533,8.533h-68.267c-4.719,0-8.533-3.814-8.533-8.533s3.814-8.533,8.533-8.533h59.733     v-59.733c0-4.719,3.814-8.533,8.533-8.533s8.533,3.814,8.533,8.533V435.2z M486.4,264.533h-34.133     c-4.719,0-8.533-3.814-8.533-8.533s3.814-8.533,8.533-8.533H486.4c4.719,0,8.533,3.814,8.533,8.533     S491.119,264.533,486.4,264.533z M494.933,145.067c0,4.719-3.814,8.533-8.533,8.533s-8.533-3.814-8.533-8.533V85.333h-59.733     c-4.719,0-8.533-3.814-8.533-8.533s3.814-8.533,8.533-8.533H486.4c4.719,0,8.533,3.814,8.533,8.533V145.067z"/>
		</g>
	</g>
</g>
<g>
</g>
<g>
</g>
<g>
</g>
<g>
</g>
<g>
</g>
<g>
</g>
<g>
</g>
<g>
</g>
<g>
</g>
<g>
</g>
<g>
</g>
<g>
</g>
<g>
</g>
<g>
</g>
<g>
</g>
</svg>
