<?xml version="1.0" encoding="iso-8859-1"?>
<!-- Generator: Adobe Illustrator 19.0.0, SVG Export Plug-In . SVG Version: 6.00 Build 0)  -->
<svg xmlns="http://www.w3.org/2000/svg" xmlns:xlink="http://www.w3.org/1999/xlink" version="1.1" id="Layer_1" x="0px" y="0px" viewBox="0 0 512 512" style="enable-background:new 0 0 512 512;" xml:space="preserve">
<g>
	<g>
		<g>
			<path d="M392.533,238.933c-9.412,0-17.067,7.654-17.067,17.067c0,9.412,7.654,17.067,17.067,17.067     c9.412,0,17.067-7.654,17.067-17.067C409.6,246.588,401.946,238.933,392.533,238.933z"/>
			<path d="M256,375.467c-9.412,0-17.067,7.654-17.067,17.067c0,9.412,7.654,17.067,17.067,17.067     c9.412,0,17.067-7.654,17.067-17.067C273.067,383.121,265.412,375.467,256,375.467z"/>
			<path d="M119.467,238.933c-9.412,0-17.067,7.654-17.067,17.067c0,9.412,7.654,17.067,17.067,17.067s17.067-7.654,17.067-17.067     C136.533,246.588,128.879,238.933,119.467,238.933z"/>
			<path d="M256,102.4c-9.412,0-17.067,7.654-17.067,17.067s7.654,17.067,17.067,17.067c9.412,0,17.067-7.654,17.067-17.067     S265.412,102.4,256,102.4z"/>
			<path d="M0,0v512h512V0H0z M17.067,110.933c0-23.526,19.14-42.667,42.667-42.667h34.133c4.71,0,8.533,3.814,8.533,8.533     s-3.823,8.533-8.533,8.533H59.733c-14.114,0-25.6,11.486-25.6,25.6v34.133c0,4.719-3.823,8.533-8.533,8.533     c-4.71,0-8.533-3.814-8.533-8.533V110.933z M93.867,443.733H59.733c-23.526,0-42.667-19.14-42.667-42.667v-34.133     c0-4.719,3.823-8.533,8.533-8.533c4.71,0,8.533,3.814,8.533,8.533v34.133c0,14.114,11.486,25.6,25.6,25.6h34.133     c4.71,0,8.533,3.814,8.533,8.533S98.577,443.733,93.867,443.733z M119.467,290.133c-18.825,0-34.133-15.309-34.133-34.133     c0-18.825,15.309-34.133,34.133-34.133S153.6,237.175,153.6,256C153.6,274.825,138.291,290.133,119.467,290.133z M256,426.667     c-18.825,0-34.133-15.309-34.133-34.133c0-18.825,15.309-34.133,34.133-34.133c18.825,0,34.133,15.309,34.133,34.133     C290.133,411.358,274.825,426.667,256,426.667z M281.6,264.533h-17.067V281.6c0,4.719-3.823,8.533-8.533,8.533     s-8.533-3.814-8.533-8.533v-17.067H230.4c-4.71,0-8.533-3.814-8.533-8.533s3.823-8.533,8.533-8.533h17.067V230.4     c0-4.719,3.823-8.533,8.533-8.533s8.533,3.814,8.533,8.533v17.067H281.6c4.71,0,8.533,3.814,8.533,8.533     S286.31,264.533,281.6,264.533z M256,153.6c-18.825,0-34.133-15.309-34.133-34.133S237.175,85.333,256,85.333     c18.825,0,34.133,15.309,34.133,34.133S274.825,153.6,256,153.6z M358.4,256c0-18.825,15.309-34.133,34.133-34.133     c18.825,0,34.133,15.309,34.133,34.133c0,18.825-15.309,34.133-34.133,34.133C373.709,290.133,358.4,274.825,358.4,256z      M494.933,401.067c0,23.526-19.14,42.667-42.667,42.667h-34.133c-4.719,0-8.533-3.814-8.533-8.533s3.814-8.533,8.533-8.533     h34.133c14.114,0,25.6-11.486,25.6-25.6v-34.133c0-4.719,3.814-8.533,8.533-8.533s8.533,3.814,8.533,8.533V401.067z      M494.933,145.067c0,4.719-3.814,8.533-8.533,8.533s-8.533-3.814-8.533-8.533v-34.133c0-14.114-11.486-25.6-25.6-25.6h-34.133     c-4.719,0-8.533-3.814-8.533-8.533s3.814-8.533,8.533-8.533h34.133c23.526,0,42.667,19.14,42.667,42.667V145.067z"/>
		</g>
	</g>
</g>
<g>
</g>
<g>
</g>
<g>
</g>
<g>
</g>
<g>
</g>
<g>
</g>
<g>
</g>
<g>
</g>
<g>
</g>
<g>
</g>
<g>
</g>
<g>
</g>
<g>
</g>
<g>
</g>
<g>
</g>
</svg>
