<?xml version="1.0" encoding="iso-8859-1"?>
<!-- Generator: Adobe Illustrator 19.0.0, SVG Export Plug-In . SVG Version: 6.00 Build 0)  -->
<svg xmlns="http://www.w3.org/2000/svg" xmlns:xlink="http://www.w3.org/1999/xlink" version="1.1" id="Layer_1" x="0px" y="0px" viewBox="0 0 512 512" style="enable-background:new 0 0 512 512;" xml:space="preserve">
<g>
	<g>
		<path d="M0,0v512h512V0H0z M17.067,110.933c0-23.526,19.14-42.667,42.667-42.667h34.133c4.71,0,8.533,3.814,8.533,8.533    s-3.823,8.533-8.533,8.533H59.733c-14.114,0-25.6,11.486-25.6,25.6v34.133c0,4.719-3.823,8.533-8.533,8.533    c-4.71,0-8.533-3.814-8.533-8.533V110.933z M93.867,443.733H59.733c-23.526,0-42.667-19.14-42.667-42.667v-34.133    c0-4.719,3.823-8.533,8.533-8.533c4.71,0,8.533,3.814,8.533,8.533v34.133c0,14.114,11.486,25.6,25.6,25.6h34.133    c4.71,0,8.533,3.814,8.533,8.533S98.577,443.733,93.867,443.733z M153.6,264.533h-51.2c-4.71,0-8.533-3.814-8.533-8.533    s3.823-8.533,8.533-8.533h51.2c4.71,0,8.533,3.814,8.533,8.533S158.31,264.533,153.6,264.533z M264.533,409.6    c0,4.719-3.823,8.533-8.533,8.533s-8.533-3.814-8.533-8.533v-51.2c0-4.719,3.823-8.533,8.533-8.533s8.533,3.814,8.533,8.533V409.6    z M256,264.533c-4.71,0-8.533-3.814-8.533-8.533s3.823-8.533,8.533-8.533s8.533,3.814,8.533,8.533S260.71,264.533,256,264.533z     M264.533,153.6c0,4.719-3.823,8.533-8.533,8.533s-8.533-3.814-8.533-8.533v-51.2c0-4.719,3.823-8.533,8.533-8.533    s8.533,3.814,8.533,8.533V153.6z M349.867,256c0-4.719,3.823-8.533,8.533-8.533h51.2c4.71,0,8.533,3.814,8.533,8.533    s-3.823,8.533-8.533,8.533h-51.2C353.69,264.533,349.867,260.719,349.867,256z M494.933,401.067    c0,23.526-19.14,42.667-42.667,42.667h-34.133c-4.71,0-8.533-3.814-8.533-8.533s3.823-8.533,8.533-8.533h34.133    c14.114,0,25.6-11.486,25.6-25.6v-34.133c0-4.719,3.823-8.533,8.533-8.533s8.533,3.814,8.533,8.533V401.067z M494.933,145.067    c0,4.719-3.823,8.533-8.533,8.533s-8.533-3.814-8.533-8.533v-34.133c0-14.114-11.486-25.6-25.6-25.6h-34.133    c-4.71,0-8.533-3.814-8.533-8.533s3.823-8.533,8.533-8.533h34.133c23.526,0,42.667,19.14,42.667,42.667V145.067z"/>
	</g>
</g>
<g>
</g>
<g>
</g>
<g>
</g>
<g>
</g>
<g>
</g>
<g>
</g>
<g>
</g>
<g>
</g>
<g>
</g>
<g>
</g>
<g>
</g>
<g>
</g>
<g>
</g>
<g>
</g>
<g>
</g>
</svg>
