<?xml version="1.0" encoding="iso-8859-1"?>
<!-- Generator: Adobe Illustrator 19.0.0, SVG Export Plug-In . SVG Version: 6.00 Build 0)  -->
<svg xmlns="http://www.w3.org/2000/svg" xmlns:xlink="http://www.w3.org/1999/xlink" version="1.1" id="Layer_1" x="0px" y="0px" viewBox="0 0 512 512" style="enable-background:new 0 0 512 512;" xml:space="preserve">
<g>
	<g>
		<g>
			<path d="M358.4,358.4c0-4.702-3.823-8.533-8.533-8.533H332.8v17.067h17.067C354.577,366.933,358.4,363.102,358.4,358.4z"/>
			<path d="M358.4,324.267c0-4.702-3.823-8.533-8.533-8.533H332.8V332.8h17.067C354.577,332.8,358.4,328.969,358.4,324.267z"/>
			<path d="M59.733,221.867c0,4.71,3.814,8.533,8.533,8.533H76.8v85.333h-8.533c-4.719,0-8.533,3.823-8.533,8.533v102.4h392.533     v-102.4c0-4.71-3.814-8.533-8.533-8.533H435.2V230.4h8.533c4.719,0,8.533-3.823,8.533-8.533v-85.333H59.733V221.867z      M315.733,341.333V307.2c0-4.71,3.814-8.533,8.533-8.533h25.6c14.114,0,25.6,11.486,25.6,25.6c0,6.579-2.569,12.527-6.656,17.067     c4.087,4.54,6.656,10.487,6.656,17.067c0,14.114-11.486,25.6-25.6,25.6h-25.6c-4.719,0-8.533-3.823-8.533-8.533V341.333z      M292.727,309.316c3.541,3.115,3.874,8.508,0.759,12.041c-3.123,3.55-8.516,3.866-12.049,0.759     c-4.659-4.113-10.667-6.383-16.905-6.383c-14.114,0-25.6,11.486-25.6,25.6s11.486,25.6,25.6,25.6     c7.484,0,14.362-3.234,19.098-8.533h-10.564c-4.719,0-8.533-3.823-8.533-8.533s3.823-8.533,8.533-8.533h24.525     c2.645,0,5.137,1.229,6.741,3.311c1.621,2.082,2.185,4.804,1.527,7.356c-4.864,18.842-21.854,32-41.327,32     c-23.526,0-42.667-19.14-42.667-42.667c0-23.526,19.14-42.667,42.667-42.667C274.935,298.667,284.945,302.447,292.727,309.316z      M221.867,187.733c8.926,0.145,16.418,4.821,20.463,12.518c4.233,8.064,3.763,17.724-1.237,25.225L220.74,256h18.193     c4.719,0,8.533,3.823,8.533,8.533c0,4.71-3.814,8.533-8.533,8.533H204.8c-3.149,0-6.042-1.732-7.526-4.506     c-1.485-2.782-1.314-6.144,0.427-8.764l29.193-43.785c1.826-2.748,1.365-5.845,0.324-7.825c-0.648-1.246-2.193-3.337-5.197-3.388     h-0.009c-4.855,0-8.678,3.831-8.678,8.533c0,4.71-3.814,8.533-8.533,8.533s-8.533-3.823-8.533-8.533     C196.267,199.219,207.753,187.733,221.867,187.733z M162.133,238.933c-4.719,0-8.533-3.823-8.533-8.533s3.814-8.533,8.533-8.533     c4.71,0,8.533-3.831,8.533-8.533c0-4.702-3.823-8.533-8.533-8.533c-4.71,0-8.533,3.831-8.533,8.533     c0,4.71-3.814,8.533-8.533,8.533s-8.533-3.823-8.533-8.533c0-14.114,11.486-25.6,25.6-25.6s25.6,11.486,25.6,25.6     c0,6.554-2.475,12.535-6.537,17.067c4.062,4.531,6.537,10.513,6.537,17.067c0,14.114-11.486,25.6-25.6,25.6     s-25.6-11.486-25.6-25.6c0-4.71,3.814-8.533,8.533-8.533s8.533,3.823,8.533,8.533c0,4.702,3.823,8.533,8.533,8.533     c4.71,0,8.533-3.831,8.533-8.533C170.667,242.765,166.844,238.933,162.133,238.933z"/>
			<path d="M59.733,503.467c0,4.71,3.814,8.533,8.533,8.533h128c4.719,0,8.533-3.823,8.533-8.533v-8.533h102.4v8.533     c0,4.71,3.814,8.533,8.533,8.533h128c4.719,0,8.533-3.823,8.533-8.533v-59.733H59.733V503.467z"/>
			<path d="M449.766,87.834L364.433,2.5C362.837,0.896,360.67,0,358.4,0H68.267c-4.719,0-8.533,3.823-8.533,8.533v110.933h392.533     v-25.6C452.267,91.605,451.371,89.429,449.766,87.834z"/>
		</g>
	</g>
</g>
<g>
</g>
<g>
</g>
<g>
</g>
<g>
</g>
<g>
</g>
<g>
</g>
<g>
</g>
<g>
</g>
<g>
</g>
<g>
</g>
<g>
</g>
<g>
</g>
<g>
</g>
<g>
</g>
<g>
</g>
</svg>
