<?xml version="1.0" encoding="iso-8859-1"?>
<!-- Generator: Adobe Illustrator 19.0.0, SVG Export Plug-In . SVG Version: 6.00 Build 0)  -->
<svg xmlns="http://www.w3.org/2000/svg" xmlns:xlink="http://www.w3.org/1999/xlink" version="1.1" id="Layer_1" x="0px" y="0px" viewBox="0 0 512 512" style="enable-background:new 0 0 512 512;" xml:space="preserve">
<g>
	<g>
		<g>
			<path d="M349.867,273.067c0,12.74-2.577,24.892-7.194,35.977L512,343.782V203.264l-169.318,33.86     C347.298,248.201,349.867,260.335,349.867,273.067z"/>
			<rect x="341.333" y="162.133" width="51.2" height="17.067"/>
			<path d="M255.998,349.869c42.351,0,76.8-34.458,76.8-76.8c0-42.351-34.449-76.8-76.8-76.8c-42.342,0-76.8,34.449-76.8,76.8     C179.198,315.412,213.656,349.869,255.998,349.869z M216.173,228.542c10.957-9.805,25.105-15.206,39.825-15.206     c4.71,0,8.533,3.814,8.533,8.533c0,4.71-3.823,8.533-8.533,8.533c-10.513,0-20.617,3.857-28.442,10.863     c-1.63,1.459-3.661,2.176-5.683,2.176c-2.347,0-4.676-0.964-6.366-2.842C212.367,237.084,212.666,231.691,216.173,228.542z      M200.25,251.625c1.69-4.403,6.622-6.596,11.025-4.907c4.403,1.698,6.596,6.63,4.898,11.034     c-1.69,4.395-6.622,6.588-11.025,4.898C200.754,260.96,198.56,256.02,200.25,251.625z"/>
			<polygon points="110.933,179.2 170.667,179.2 170.667,162.133 123.733,162.133    "/>
			<path d="M162.133,273.067c0-12.766,2.586-24.926,7.219-36.036L0,201.105v141.764l169.318-33.86     C164.702,297.933,162.133,285.798,162.133,273.067z"/>
			<path d="M256,366.933c-32.674,0-61.474-16.802-78.285-42.197L0,360.277v15.189C0,408.405,26.795,435.2,59.733,435.2h392.533     c32.93,0,59.733-26.795,59.733-59.733v-14.259l-177.724-36.463C317.466,350.14,288.666,366.933,256,366.933z M136.533,401.067     H68.267c-4.71,0-8.533-3.823-8.533-8.533S63.556,384,68.267,384h68.267c4.71,0,8.533,3.823,8.533,8.533     S141.244,401.067,136.533,401.067z M307.2,401.067H204.8c-4.71,0-8.533-3.823-8.533-8.533S200.09,384,204.8,384h102.4     c4.71,0,8.533,3.823,8.533,8.533S311.91,401.067,307.2,401.067z M375.467,384h68.267c4.719,0,8.533,3.823,8.533,8.533     s-3.814,8.533-8.533,8.533h-68.267c-4.71,0-8.533-3.823-8.533-8.533S370.756,384,375.467,384z"/>
			<path d="M452.267,110.933V93.867c0-9.412-7.654-17.067-17.067-17.067h-17.067c-9.412,0-17.067,7.654-17.067,17.067v17.067     H135.671C131.703,91.486,114.475,76.8,93.867,76.8c-20.796,0-38.11,14.967-41.856,34.688C22.716,115.302,0,140.356,0,170.667     v12.996l177.732,37.7C194.551,195.985,223.334,179.2,256,179.2c32.674,0,61.474,16.802,78.285,42.197L512,185.856v-15.189     C512,137.728,485.197,110.933,452.267,110.933z M93.867,93.867c11.127,0,20.617,7.134,24.141,17.067H69.726     C73.25,101.001,82.739,93.867,93.867,93.867z M187.733,187.733c0,4.71-3.823,8.533-8.533,8.533H93.867     c-3.234,0-6.187-1.826-7.637-4.719c-1.442-2.893-1.126-6.349,0.811-8.934l25.6-34.133c1.613-2.15,4.139-3.413,6.827-3.413H179.2     c4.71,0,8.533,3.823,8.533,8.533V187.733z M409.6,187.733c0,4.71-3.814,8.533-8.533,8.533H332.8c-4.71,0-8.533-3.823-8.533-8.533     V153.6c0-4.71,3.823-8.533,8.533-8.533h68.267c4.719,0,8.533,3.823,8.533,8.533V187.733z"/>
		</g>
	</g>
</g>
<g>
</g>
<g>
</g>
<g>
</g>
<g>
</g>
<g>
</g>
<g>
</g>
<g>
</g>
<g>
</g>
<g>
</g>
<g>
</g>
<g>
</g>
<g>
</g>
<g>
</g>
<g>
</g>
<g>
</g>
</svg>
