<?xml version="1.0" encoding="iso-8859-1"?>
<!-- Generator: Adobe Illustrator 19.0.0, SVG Export Plug-In . SVG Version: 6.00 Build 0)  -->
<svg xmlns="http://www.w3.org/2000/svg" xmlns:xlink="http://www.w3.org/1999/xlink" version="1.1" id="Layer_1" x="0px" y="0px" viewBox="0 0 512 512" style="enable-background:new 0 0 512 512;" xml:space="preserve">
<g>
	<g>
		<g>
			<path d="M177.041,332.8h157.918c27.042,0,49.041-21.999,49.041-49.041v-21.385c0-27.042-21.999-49.041-49.041-49.041H177.041     c-27.042,0-49.041,21.999-49.041,49.041v21.385C128,310.801,149.999,332.8,177.041,332.8z M170.667,238.933     c0-4.71,3.814-8.533,8.533-8.533h153.6c4.719,0,8.533,3.823,8.533,8.533V307.2c0,4.71-3.814,8.533-8.533,8.533H179.2     c-4.719,0-8.533-3.823-8.533-8.533V238.933z"/>
			<path d="M59.733,221.866c0,4.71,3.814,8.533,8.533,8.533H76.8v85.333h-8.533c-4.719,0-8.533,3.823-8.533,8.533v102.4h392.533     v-102.4c0-4.71-3.814-8.533-8.533-8.533H435.2v-85.333h8.533c4.719,0,8.533-3.823,8.533-8.533v-85.333H59.733V221.866z      M110.933,262.374c0-36.454,29.662-66.108,66.108-66.108h157.918c36.446,0,66.108,29.653,66.108,66.108v21.385     c0,36.454-29.662,66.108-66.108,66.108H177.041c-36.446,0-66.108-29.653-66.108-66.108V262.374z"/>
			<path d="M449.766,87.834L364.433,2.5C362.837,0.896,360.67,0,358.4,0H68.267c-4.719,0-8.533,3.823-8.533,8.533v110.933h392.533     v-25.6C452.267,91.605,451.371,89.429,449.766,87.834z"/>
			<rect x="187.733" y="247.467" width="136.533" height="51.2"/>
			<path d="M59.733,503.467c0,4.71,3.814,8.533,8.533,8.533h128c4.719,0,8.533-3.823,8.533-8.533v-8.533h102.4v8.533     c0,4.71,3.814,8.533,8.533,8.533h128c4.719,0,8.533-3.823,8.533-8.533v-59.733H59.733V503.467z"/>
		</g>
	</g>
</g>
<g>
</g>
<g>
</g>
<g>
</g>
<g>
</g>
<g>
</g>
<g>
</g>
<g>
</g>
<g>
</g>
<g>
</g>
<g>
</g>
<g>
</g>
<g>
</g>
<g>
</g>
<g>
</g>
<g>
</g>
</svg>
