<?xml version="1.0" encoding="iso-8859-1"?>
<!-- Generator: Adobe Illustrator 19.0.0, SVG Export Plug-In . SVG Version: 6.00 Build 0)  -->
<svg xmlns="http://www.w3.org/2000/svg" xmlns:xlink="http://www.w3.org/1999/xlink" version="1.1" id="Layer_1" x="0px" y="0px" viewBox="0 0 512 512" style="enable-background:new 0 0 512 512;" xml:space="preserve">
<g>
	<g>
		<g>
			<path d="M128,426.667h256V102.4H128V426.667z M264.533,179.2c0-4.71,3.814-8.533,8.533-8.533     c51.755,0,93.867,42.112,93.867,93.867c0,51.755-42.112,93.867-93.867,93.867c-4.719,0-8.533-3.823-8.533-8.533V179.2z      M196.267,273.067c-28.237,0-51.2-22.963-51.2-51.2c0-28.237,22.963-51.2,51.2-51.2s51.2,22.963,51.2,51.2     c0,4.71-3.814,8.533-8.533,8.533s-8.533-3.823-8.533-8.533c0-18.825-15.309-34.133-34.133-34.133s-34.133,15.309-34.133,34.133     S177.442,256,196.267,256c28.237,0,51.2,22.963,51.2,51.2c0,28.237-22.963,51.2-51.2,51.2s-51.2-22.963-51.2-51.2     c0-4.71,3.814-8.533,8.533-8.533s8.533,3.823,8.533,8.533c0,18.825,15.309,34.133,34.133,34.133S230.4,326.025,230.4,307.2     S215.091,273.067,196.267,273.067z"/>
			<path d="M349.867,264.533c0-39.467-29.918-72.073-68.267-76.331v152.661C319.949,336.606,349.867,304,349.867,264.533z"/>
			<path d="M443.733,230.4c4.719,0,8.533-3.823,8.533-8.533v-128c0-2.261-0.896-4.437-2.5-6.033L364.433,2.5     C362.837,0.896,360.67,0,358.4,0H68.267c-4.719,0-8.533,3.823-8.533,8.533v213.333c0,4.71,3.814,8.533,8.533,8.533H76.8v85.333     h-8.533c-4.719,0-8.533,3.823-8.533,8.533v179.2c0,4.71,3.814,8.533,8.533,8.533h128c4.719,0,8.533-3.823,8.533-8.533v-8.533     h102.4v8.533c0,4.71,3.814,8.533,8.533,8.533h128c4.719,0,8.533-3.823,8.533-8.533v-179.2c0-4.71-3.814-8.533-8.533-8.533H435.2     V230.4H443.733z M401.067,435.2c0,4.71-3.814,8.533-8.533,8.533H119.467c-4.719,0-8.533-3.823-8.533-8.533V93.867     c0-4.71,3.814-8.533,8.533-8.533h273.067c4.719,0,8.533,3.823,8.533,8.533V435.2z"/>
		</g>
	</g>
</g>
<g>
</g>
<g>
</g>
<g>
</g>
<g>
</g>
<g>
</g>
<g>
</g>
<g>
</g>
<g>
</g>
<g>
</g>
<g>
</g>
<g>
</g>
<g>
</g>
<g>
</g>
<g>
</g>
<g>
</g>
</svg>
