<?xml version="1.0" encoding="iso-8859-1"?>
<!-- Generator: Adobe Illustrator 19.0.0, SVG Export Plug-In . SVG Version: 6.00 Build 0)  -->
<svg xmlns="http://www.w3.org/2000/svg" xmlns:xlink="http://www.w3.org/1999/xlink" version="1.1" id="Layer_1" x="0px" y="0px" viewBox="0 0 512 512" style="enable-background:new 0 0 512 512;" xml:space="preserve">
<g>
	<g>
		<g>
			<path d="M426.667,136.533H85.333c-18.825,0-34.133,15.309-34.133,34.133V358.4c0,18.825,15.309,34.133,34.133,34.133h341.333     c18.825,0,34.133-15.309,34.133-34.133V170.667C460.8,151.842,445.491,136.533,426.667,136.533z M187.733,247.467     c0,4.71-3.814,8.533-8.533,8.533s-8.533-3.823-8.533-8.533v-34.133c0-4.702-3.823-8.533-8.533-8.533h-18.645     c0.964,2.68,1.579,5.521,1.579,8.533v34.133c0,4.71-3.814,8.533-8.533,8.533S128,252.177,128,247.467v-34.133     c0-4.702-3.823-8.533-8.533-8.533H102.4v42.667c0,4.71-3.814,8.533-8.533,8.533c-4.719,0-8.533-3.823-8.533-8.533V179.2     c0-4.71,3.814-8.533,8.533-8.533c4.719,0,8.533,3.823,8.533,8.533v8.533h17.067h42.667c14.114,0,25.6,11.486,25.6,25.6V247.467z      M213.333,247.467c0,4.71-3.814,8.533-8.533,8.533s-8.533-3.823-8.533-8.533V204.8c0-4.71,3.814-8.533,8.533-8.533     s8.533,3.823,8.533,8.533V247.467z M204.8,179.2c-4.719,0-8.533-3.823-8.533-8.533c0-4.71,3.814-8.533,8.533-8.533     s8.533,3.823,8.533,8.533C213.333,175.377,209.519,179.2,204.8,179.2z M221.85,213.333c0-23.526,19.14-42.667,42.667-42.667     c12.245,0,23.91,5.265,32.009,14.447c3.115,3.541,2.773,8.934-0.76,12.049c-3.516,3.106-8.926,2.799-12.041-0.751     c-4.855-5.513-11.861-8.678-19.208-8.678c-14.114,0-25.6,11.486-25.6,25.6s11.486,25.6,25.6,25.6     c7.339,0,14.345-3.166,19.208-8.678c3.132-3.524,8.516-3.857,12.049-0.742c3.533,3.115,3.866,8.516,0.751,12.049     C288.418,250.735,276.753,256,264.516,256C240.99,256,221.85,236.86,221.85,213.333z M281.6,315.733     c18.825,0,34.133,15.309,34.133,34.133S300.425,384,281.6,384s-34.133-15.309-34.133-34.133c0-4.71,3.814-8.533,8.533-8.533     s8.533,3.823,8.533,8.533c0,9.412,7.654,17.067,17.067,17.067c9.412,0,17.067-7.654,17.067-17.067     c0-9.412-7.654-17.067-17.067-17.067c-18.825,0-34.133-15.309-34.133-34.133s15.309-34.133,34.133-34.133     s34.133,15.309,34.133,34.133c0,4.71-3.814,8.533-8.533,8.533s-8.533-3.823-8.533-8.533c0-9.412-7.654-17.067-17.067-17.067     c-9.412,0-17.067,7.654-17.067,17.067C264.533,308.079,272.188,315.733,281.6,315.733z M315.733,256     c-4.719,0-8.533-3.823-8.533-8.533V179.2c0-4.71,3.814-8.533,8.533-8.533c3.507,0,6.502,2.125,7.817,5.137     c5.188-3.2,11.247-5.137,17.784-5.137c4.719,0,8.533,3.823,8.533,8.533s-3.814,8.533-8.533,8.533     c-9.412,0-17.067,7.654-17.067,17.067v42.667C324.267,252.177,320.452,256,315.733,256z M332.8,384     c-4.719,0-8.533-3.823-8.533-8.533v-102.4c0-4.71,3.814-8.533,8.533-8.533c32.93,0,59.733,26.795,59.733,59.733     S365.73,384,332.8,384z M426.667,221.867c0,18.825-15.309,34.133-34.133,34.133c-18.825,0-34.133-15.309-34.133-34.133V204.8     c0-18.825,15.309-34.133,34.133-34.133c18.825,0,34.133,15.309,34.133,34.133V221.867z"/>
			<path d="M341.333,282.458v83.618c19.447-3.968,34.133-21.205,34.133-41.813C375.467,303.664,360.781,286.418,341.333,282.458z"/>
			<path d="M486.4,68.267h-42.667c-4.719,0-8.533,3.823-8.533,8.533v8.533H76.8V76.8c0-4.71-3.814-8.533-8.533-8.533H25.6     c-14.114,0-25.6,11.486-25.6,25.6v324.267c0,14.114,11.486,25.6,25.6,25.6h460.8c14.114,0,25.6-11.486,25.6-25.6V93.867     C512,79.753,500.514,68.267,486.4,68.267z M477.867,358.4c0,28.237-22.963,51.2-51.2,51.2H85.333     c-28.237,0-51.2-22.963-51.2-51.2V170.667c0-28.237,22.963-51.2,51.2-51.2h341.333c28.237,0,51.2,22.963,51.2,51.2V358.4z"/>
			<path d="M392.533,187.733c-9.412,0-17.067,7.654-17.067,17.067v17.067c0,9.412,7.654,17.067,17.067,17.067     c9.412,0,17.067-7.654,17.067-17.067V204.8C409.6,195.388,401.946,187.733,392.533,187.733z"/>
		</g>
	</g>
</g>
<g>
</g>
<g>
</g>
<g>
</g>
<g>
</g>
<g>
</g>
<g>
</g>
<g>
</g>
<g>
</g>
<g>
</g>
<g>
</g>
<g>
</g>
<g>
</g>
<g>
</g>
<g>
</g>
<g>
</g>
</svg>
