<?xml version="1.0" encoding="iso-8859-1"?>
<!-- Generator: Adobe Illustrator 19.0.0, SVG Export Plug-In . SVG Version: 6.00 Build 0)  -->
<svg xmlns="http://www.w3.org/2000/svg" xmlns:xlink="http://www.w3.org/1999/xlink" version="1.1" id="Layer_1" x="0px" y="0px" viewBox="0 0 512 512" style="enable-background:new 0 0 512 512;" xml:space="preserve">
<g>
	<g>
		<g>
			<path d="M51.2,315.733c-4.719,0-8.533,3.823-8.533,8.533s3.814,8.533,8.533,8.533s8.533-3.823,8.533-8.533     S55.919,315.733,51.2,315.733z"/>
			<path d="M85.333,315.733c-4.719,0-8.533,3.823-8.533,8.533s3.814,8.533,8.533,8.533s8.533-3.823,8.533-8.533     S90.052,315.733,85.333,315.733z"/>
			<path d="M119.467,315.733c-4.719,0-8.533,3.823-8.533,8.533s3.814,8.533,8.533,8.533s8.533-3.823,8.533-8.533     S124.186,315.733,119.467,315.733z"/>
			<path d="M512,51.2V34.133c0-14.114-11.486-25.6-25.6-25.6H25.6C11.486,8.533,0,20.019,0,34.133V51.2     c0,14.114,11.486,25.6,25.6,25.6v93.867h110.933V76.8H153.6v204.8h-17.067v-93.867H25.6V281.6C11.486,281.6,0,293.086,0,307.2     v51.2C0,372.514,11.486,384,25.6,384h17.067v110.933c0,4.71,3.814,8.533,8.533,8.533h409.6c4.719,0,8.533-3.823,8.533-8.533V384     H486.4c14.114,0,25.6-11.486,25.6-25.6v-51.2c0-14.114-11.486-25.6-25.6-25.6V76.8C500.514,76.8,512,65.314,512,51.2z      M89.6,153.6c-16.469,0-29.867-13.397-29.867-29.867S73.131,93.867,89.6,93.867c16.469,0,29.867,13.397,29.867,29.867     S106.069,153.6,89.6,153.6z M59.733,221.867c0-9.412,7.654-17.067,17.067-17.067h25.6c9.412,0,17.067,7.654,17.067,17.067v25.6     c0,9.412-7.654,17.067-17.067,17.067H76.8c-9.412,0-17.067-7.654-17.067-17.067V221.867z M435.2,460.8     c0,4.71-3.814,8.533-8.533,8.533H85.333c-4.719,0-8.533-3.823-8.533-8.533v-68.267c0-4.71,3.814-8.533,8.533-8.533h341.333     c4.719,0,8.533,3.823,8.533,8.533V460.8z M494.933,307.2v51.2c0,4.702-3.823,8.533-8.533,8.533h-17.067V358.4     c0-4.71-3.814-8.533-8.533-8.533H51.2c-4.719,0-8.533,3.823-8.533,8.533v8.533H25.6c-4.71,0-8.533-3.831-8.533-8.533v-51.2     c0-4.702,3.823-8.533,8.533-8.533h8.533h110.933h221.867h110.933h8.533C491.11,298.667,494.933,302.498,494.933,307.2z      M170.667,179.2c0-47.053,38.281-85.333,85.333-85.333s85.333,38.281,85.333,85.333S303.053,264.533,256,264.533     S170.667,226.253,170.667,179.2z M392.533,256V102.4c0-4.71,3.814-8.533,8.533-8.533h42.667c4.719,0,8.533,3.823,8.533,8.533V256     c0,4.71-3.814,8.533-8.533,8.533h-42.667C396.348,264.533,392.533,260.71,392.533,256z M477.867,59.733H366.933H145.067H34.133     H25.6c-4.71,0-8.533-3.831-8.533-8.533V34.133c0-4.702,3.823-8.533,8.533-8.533h460.8c4.71,0,8.533,3.831,8.533,8.533V51.2     c0,4.702-3.823,8.533-8.533,8.533H477.867z"/>
			<rect x="93.867" y="401.067" width="324.267" height="51.2"/>
			<path d="M324.267,179.2c0-37.641-30.626-68.267-68.267-68.267c-37.641,0-68.267,30.626-68.267,68.267     c0,37.641,30.626,68.267,68.267,68.267C293.641,247.467,324.267,216.841,324.267,179.2z M213.333,179.2     c0,4.71-3.814,8.533-8.533,8.533s-8.533-3.823-8.533-8.533c0-32.939,26.803-59.733,59.733-59.733     c4.719,0,8.533,3.823,8.533,8.533c0,4.71-3.814,8.533-8.533,8.533C232.474,136.533,213.333,155.674,213.333,179.2z"/>
			<path d="M89.6,110.933c-7.057,0-12.8,5.743-12.8,12.8c0,7.057,5.743,12.8,12.8,12.8c7.057,0,12.8-5.743,12.8-12.8     C102.4,116.676,96.657,110.933,89.6,110.933z"/>
			<polygon points="102.4,221.867 76.8,221.867 76.8,247.467 102.409,247.467    "/>
			<rect x="409.6" y="110.933" width="25.6" height="136.533"/>
		</g>
	</g>
</g>
<g>
</g>
<g>
</g>
<g>
</g>
<g>
</g>
<g>
</g>
<g>
</g>
<g>
</g>
<g>
</g>
<g>
</g>
<g>
</g>
<g>
</g>
<g>
</g>
<g>
</g>
<g>
</g>
<g>
</g>
</svg>
