<?xml version="1.0" encoding="iso-8859-1"?>
<!-- Generator: Adobe Illustrator 19.0.0, SVG Export Plug-In . SVG Version: 6.00 Build 0)  -->
<svg xmlns="http://www.w3.org/2000/svg" xmlns:xlink="http://www.w3.org/1999/xlink" version="1.1" id="Layer_1" x="0px" y="0px" viewBox="0 0 512 512" style="enable-background:new 0 0 512 512;" xml:space="preserve">
<g>
	<g>
		<g>
			<circle cx="273.082" cy="42.667" r="8.533"/>
			<circle cx="256.015" cy="68.267" r="8.533"/>
			<circle cx="307.215" cy="42.667" r="8.533"/>
			<circle cx="290.149" cy="68.267" r="8.533"/>
			<circle cx="324.282" cy="68.267" r="8.533"/>
			<circle cx="238.949" cy="93.867" r="8.533"/>
			<circle cx="273.082" cy="93.867" r="8.533"/>
			<circle cx="307.215" cy="93.867" r="8.533"/>
			<circle cx="341.349" cy="93.867" r="8.533"/>
			<circle cx="324.282" cy="119.467" r="8.533"/>
			<circle cx="290.149" cy="119.467" r="8.533"/>
			<circle cx="256.015" cy="119.467" r="8.533"/>
			<path d="M290.149,315.733c-28.237,0-51.2,22.963-51.2,51.2c0,28.237,22.963,51.2,51.2,51.2c28.237,0,51.2-22.963,51.2-51.2     C341.349,338.697,318.386,315.733,290.149,315.733z M256.015,375.467c-4.71,0-8.533-3.823-8.533-8.533s3.823-8.533,8.533-8.533     c4.71,0,8.533,3.823,8.533,8.533S260.726,375.467,256.015,375.467z M290.149,341.333c-6.246,0-12.262,2.27-16.93,6.4     c-1.621,1.425-3.644,2.133-5.649,2.133c-2.355,0-4.71-0.973-6.4-2.884c-3.115-3.533-2.782-8.926,0.751-12.049     c7.791-6.878,17.818-10.667,28.228-10.667c4.71,0,8.533,3.823,8.533,8.533C298.682,337.51,294.859,341.333,290.149,341.333z"/>
			<path d="M290.149,281.6c-47.053,0-85.333,38.281-85.333,85.333s38.281,85.333,85.333,85.333     c47.053,0,85.333-38.281,85.333-85.333S337.202,281.6,290.149,281.6z M290.149,435.2c-37.641,0-68.267-30.626-68.267-68.267     s30.626-68.267,68.267-68.267c37.641,0,68.267,30.626,68.267,68.267S327.789,435.2,290.149,435.2z"/>
			<path d="M452.137,334.43c-0.666-31.625-38.46-55.731-60.681-64.998l-17.724-7.381c-3.959-1.647-9.506-7.876-11.87-13.329     c-2.884-6.639-3.268-14.515-3.268-21.342c0-19.729-14.916-36.002-34.313-39.014V163.49c30.097-13.193,51.2-43.238,51.2-78.157     C375.482,38.281,337.202,0,290.149,0c-47.053,0-85.333,38.281-85.333,85.333c0,34.918,21.103,64.964,51.2,78.157v24.9     c-19.217,3.14-33.954,19.507-33.954,39.313v1.451c0,8.397-1.178,14.208-3.831,18.85c-2.227,3.908-4.48,5.641-8.619,6.434     l-35.644,8.252c-6.835,1.579-12.86,5.35-17.545,10.377h-53.999h-0.077c-12.467,0-23.117,4.053-30.805,11.733     c-7.714,7.706-11.793,18.398-11.793,30.933V332.8v34.133v51.2v34.133V486.4c0,15.07,10.53,25.6,25.6,25.6h51.2     c8.815,0,16-3.678,20.506-9.685c1.681,0.691,3.396,1.152,5.094,1.152h264.388c2.091,0,5.188-0.614,8.073-3.558     C450.098,484.087,452.905,371.465,452.137,334.43z M153.743,323.115c-0.367,6.835-4.326,12.911-6.417,19.277     c-3.465,10.556-2.244,22.059-2.244,32.998v23.859v53.965V486.4c0,5.666-2.867,8.533-8.533,8.533h-51.2     c-5.666,0-8.533-2.867-8.533-8.533v-25.6h25.6c14.114,0,25.6-11.486,25.6-25.6s-11.486-25.6-25.6-25.6h-25.6v-34.133h25.6     c14.114,0,25.6-11.486,25.6-25.6s-11.486-25.6-25.6-25.6h-25.6v-8.533c0-7.902,2.347-14.421,6.784-18.859     c4.42-4.412,10.897-6.741,18.816-6.741h25.028h15.71c0.785,0,3.78-0.478,4.403,0.085c0.939,0.853-0.068,5.146,0.043,6.571     c0.213,2.697,0.956,5.359,1.809,7.91C151.405,310.647,154.093,316.706,153.743,323.115z M221.882,85.333     c0-2.935,0.247-5.82,0.614-8.661c4.412-0.324,7.919-3.908,7.919-8.405c0-3.021-1.664-5.555-4.045-7.074     c1.707-4.48,3.84-8.738,6.4-12.706c1.553,1.647,3.729,2.714,6.178,2.714c4.71,0,8.533-3.823,8.533-8.533     c0-3.004-1.638-5.513-3.985-7.031c10.283-9.668,23.526-16.171,38.238-17.997c0.307,4.429,3.908,7.962,8.414,7.962     c4.506,0,8.107-3.533,8.414-7.962c14.711,1.826,27.955,8.328,38.238,17.997c-2.347,1.519-3.985,4.028-3.985,7.031     c0,4.71,3.823,8.533,8.533,8.533c2.449,0,4.625-1.067,6.178-2.714c2.56,3.968,4.693,8.226,6.4,12.706     c-2.381,1.519-4.045,4.053-4.045,7.074c0,4.497,3.507,8.081,7.919,8.405c0.367,2.842,0.614,5.726,0.614,8.661     c0,28.979-18.185,53.743-43.725,63.633c0.623-1.186,1.058-2.475,1.058-3.9c0-4.71-3.823-8.533-8.533-8.533     s-8.533,3.823-8.533,8.533c0,3.089,1.801,5.018,3.678,7.177c-6.485,2.628-18.039,2.833-24.414-0.06     c1.911-2.057,3.669-4.07,3.669-7.117c0-4.71-3.823-8.533-8.533-8.533s-8.533,3.823-8.533,8.533c0,1.425,0.435,2.714,1.058,3.9     C240.067,139.076,221.882,114.313,221.882,85.333z M307.215,221.867c4.71,0,8.533,3.823,8.533,8.533s-3.823,8.533-8.533,8.533     h-34.133c-4.71,0-8.533-3.823-8.533-8.533s3.823-8.533,8.533-8.533H307.215z M273.082,187.733v-18.79     c5.513,1.126,11.221,1.724,17.067,1.724c5.845,0,11.554-0.597,17.067-1.724v18.79H273.082z M290.149,469.333     c-56.465,0-102.4-45.935-102.4-102.4s45.935-102.4,102.4-102.4c56.465,0,102.4,45.935,102.4,102.4     S346.614,469.333,290.149,469.333z"/>
		</g>
	</g>
</g>
<g>
</g>
<g>
</g>
<g>
</g>
<g>
</g>
<g>
</g>
<g>
</g>
<g>
</g>
<g>
</g>
<g>
</g>
<g>
</g>
<g>
</g>
<g>
</g>
<g>
</g>
<g>
</g>
<g>
</g>
</svg>
