<?xml version="1.0" encoding="iso-8859-1"?>
<!-- Generator: Adobe Illustrator 19.0.0, SVG Export Plug-In . SVG Version: 6.00 Build 0)  -->
<svg xmlns="http://www.w3.org/2000/svg" xmlns:xlink="http://www.w3.org/1999/xlink" version="1.1" id="Layer_1" x="0px" y="0px" viewBox="0 0 512 512" style="enable-background:new 0 0 512 512;" xml:space="preserve">
<g>
	<g>
		<g>
			<path d="M392.549,110.933v-51.2c0-4.702-3.831-8.533-8.533-8.533H196.282c-4.702,0-8.533,3.831-8.533,8.533v51.2     c0,4.702,3.831,8.533,8.533,8.533h187.733C388.717,119.467,392.549,115.635,392.549,110.933z"/>
			<path d="M290.149,315.733c-28.237,0-51.2,22.963-51.2,51.2c0,28.237,22.963,51.2,51.2,51.2c28.237,0,51.2-22.963,51.2-51.2     C341.349,338.697,318.386,315.733,290.149,315.733z M256.015,375.467c-4.71,0-8.533-3.823-8.533-8.533s3.823-8.533,8.533-8.533     c4.71,0,8.533,3.823,8.533,8.533S260.726,375.467,256.015,375.467z M290.149,341.333c-6.246,0-12.262,2.27-16.93,6.4     c-1.621,1.425-3.644,2.133-5.649,2.133c-2.355,0-4.71-0.973-6.4-2.884c-3.115-3.533-2.782-8.926,0.751-12.049     c7.791-6.878,17.818-10.667,28.228-10.667c4.71,0,8.533,3.823,8.533,8.533C298.682,337.51,294.859,341.333,290.149,341.333z"/>
			<path d="M290.149,281.6c-47.053,0-85.333,38.281-85.333,85.333s38.281,85.333,85.333,85.333     c47.053,0,85.333-38.281,85.333-85.333S337.202,281.6,290.149,281.6z M290.149,435.2c-37.641,0-68.267-30.626-68.267-68.267     s30.626-68.267,68.267-68.267c37.641,0,68.267,30.626,68.267,68.267S327.789,435.2,290.149,435.2z"/>
			<path d="M452.137,334.43c-0.666-31.625-38.46-55.731-60.681-64.998l-17.724-7.381c-3.959-1.647-9.506-7.876-11.87-13.329     c-2.884-6.639-3.268-14.515-3.268-21.342c0-19.729-14.916-36.002-34.313-39.014v-17.698h76.8     c23.526,0,42.667-19.14,42.667-42.667V42.667C443.749,19.14,424.608,0,401.082,0H179.215c-23.526,0-42.667,19.14-42.667,42.667     V128c0,23.526,19.14,42.667,42.667,42.667h76.8v17.724c-19.217,3.14-33.954,19.507-33.954,39.313v1.451     c0,8.397-1.178,14.208-3.831,18.85c-2.227,3.908-4.48,5.641-8.619,6.434l-35.644,8.252c-6.835,1.579-12.86,5.35-17.545,10.377     h-53.999h-0.077c-12.467,0-23.117,4.053-30.805,11.733c-7.714,7.706-11.793,18.398-11.793,30.933V332.8v34.133v51.2v34.133V486.4     c0,15.07,10.53,25.6,25.6,25.6h51.2c8.815,0,16-3.678,20.506-9.685c1.681,0.691,3.396,1.152,5.094,1.152h264.388     c2.091,0,5.188-0.614,8.073-3.558C450.098,484.087,452.905,371.465,452.137,334.43z M148.052,340.318     c-3.243,8.593-2.97,17.331-2.97,26.317v18.338v48.401v41.865V486.4c0,5.666-2.867,8.533-8.533,8.533h-51.2     c-5.666,0-8.533-2.867-8.533-8.533v-25.6h25.6c14.114,0,25.6-11.486,25.6-25.6s-11.486-25.6-25.6-25.6h-25.6v-34.133h25.6     c14.114,0,25.6-11.486,25.6-25.6s-11.486-25.6-25.6-25.6h-25.6v-8.533c0-7.902,2.347-14.421,6.784-18.859     c4.42-4.412,10.897-6.741,18.816-6.741h34.594c2.987,0,5.973-0.043,8.96,0c1.451,0.026,1.442-0.273,1.818,1.007     c0.435,1.528-0.247,4.096-0.128,5.76c0.154,2.057,0.521,4.087,1.092,6.067c1.792,6.178,4.762,11.827,4.975,18.381     C153.957,328.209,150.407,334.097,148.052,340.318z M196.282,136.533c-14.114,0-25.6-11.486-25.6-25.6v-51.2     c0-14.114,11.486-25.6,25.6-25.6h187.733c14.114,0,25.6,11.486,25.6,25.6v51.2c0,14.114-11.486,25.6-25.6,25.6H196.282z      M307.215,221.867c4.71,0,8.533,3.823,8.533,8.533s-3.823,8.533-8.533,8.533h-34.133c-4.71,0-8.533-3.823-8.533-8.533     s3.823-8.533,8.533-8.533H307.215z M290.149,469.333c-56.465,0-102.4-45.935-102.4-102.4s45.935-102.4,102.4-102.4     c56.465,0,102.4,45.935,102.4,102.4S346.614,469.333,290.149,469.333z"/>
		</g>
	</g>
</g>
<g>
</g>
<g>
</g>
<g>
</g>
<g>
</g>
<g>
</g>
<g>
</g>
<g>
</g>
<g>
</g>
<g>
</g>
<g>
</g>
<g>
</g>
<g>
</g>
<g>
</g>
<g>
</g>
<g>
</g>
</svg>
