<?xml version="1.0" encoding="iso-8859-1"?>
<!-- Generator: Adobe Illustrator 19.0.0, SVG Export Plug-In . SVG Version: 6.00 Build 0)  -->
<svg xmlns="http://www.w3.org/2000/svg" xmlns:xlink="http://www.w3.org/1999/xlink" version="1.1" id="Layer_1" x="0px" y="0px" viewBox="0 0 512 512" style="enable-background:new 0 0 512 512;" xml:space="preserve">
<g>
	<g>
		<g>
			<path d="M128.016,315.733h-17.067c-4.719,0-8.533,3.823-8.533,8.533s3.814,8.533,8.533,8.533h17.067     c4.719,0,8.533-3.823,8.533-8.533S132.735,315.733,128.016,315.733z"/>
			<path d="M119.482,349.867h-17.067c-4.719,0-8.533,3.823-8.533,8.533s3.814,8.533,8.533,8.533h17.067     c4.719,0,8.533-3.823,8.533-8.533S124.201,349.867,119.482,349.867z"/>
			<path d="M119.482,384h-17.067c-4.719,0-8.533,3.823-8.533,8.533c0,4.71,3.814,8.533,8.533,8.533h17.067     c4.719,0,8.533-3.823,8.533-8.533C128.016,387.823,124.201,384,119.482,384z"/>
			<path d="M119.482,418.133h-17.067c-4.719,0-8.533,3.823-8.533,8.533s3.814,8.533,8.533,8.533h17.067     c4.719,0,8.533-3.823,8.533-8.533S124.201,418.133,119.482,418.133z"/>
			<path d="M119.482,452.267h-17.067c-4.719,0-8.533,3.823-8.533,8.533s3.814,8.533,8.533,8.533h17.067     c4.719,0,8.533-3.823,8.533-8.533S124.201,452.267,119.482,452.267z"/>
			<path d="M290.149,315.733c-28.237,0-51.2,22.963-51.2,51.2c0,28.237,22.963,51.2,51.2,51.2c28.237,0,51.2-22.963,51.2-51.2     C341.349,338.697,318.386,315.733,290.149,315.733z M290.149,349.867c-9.412,0-17.067,7.654-17.067,17.067     c0,4.71-3.814,8.533-8.533,8.533s-8.533-3.823-8.533-8.533c0-18.825,15.309-34.133,34.133-34.133     c4.719,0,8.533,3.823,8.533,8.533S294.868,349.867,290.149,349.867z"/>
			<path d="M290.149,281.6c-47.053,0-85.333,38.281-85.333,85.333s38.281,85.333,85.333,85.333     c47.053,0,85.333-38.281,85.333-85.333S337.202,281.6,290.149,281.6z M290.149,435.2c-37.641,0-68.267-30.626-68.267-68.267     s30.626-68.267,68.267-68.267c37.641,0,68.267,30.626,68.267,68.267S327.789,435.2,290.149,435.2z"/>
			<path d="M452.137,334.43c-0.666-31.625-38.46-55.74-60.689-64.998l-17.715-7.381c-3.959-1.647-9.506-7.876-11.87-13.321     c-2.884-6.665-3.268-14.532-3.268-21.35c0-17.468-11.742-32.171-27.878-37.436c-2.944-6.067-4.881-12.604-5.803-19.277h7.902     c14.114,0,25.6-11.486,25.6-25.6V25.6c0-14.114-11.486-25.6-25.6-25.6h-85.333c-14.114,0-25.6,11.486-25.6,25.6v119.467     c0,14.114,11.486,25.6,25.6,25.6h7.902c-0.922,6.716-2.876,13.295-5.854,19.388c-15.923,5.402-27.469,20.147-27.469,37.649v1.451     c0,8.397-1.178,14.216-3.823,18.842c-2.261,3.968-4.437,5.632-8.627,6.443l-35.644,8.252c-6.827,1.579-12.86,5.35-17.545,10.377     h-53.999h-0.077c-12.467,0-23.125,4.053-30.805,11.733c-7.714,7.697-11.793,18.398-11.793,30.933V486.4     c0,15.07,10.522,25.6,25.6,25.6h51.2c8.815,0,16-3.678,20.506-9.685c1.681,0.691,3.396,1.152,5.094,1.152h264.388     c2.099,0,5.197-0.614,8.081-3.558C450.081,484.105,452.905,371.473,452.137,334.43z M152.276,329.805     c-2.807,8.815-7.194,16.418-7.194,25.924V486.4c0,5.666-2.876,8.533-8.533,8.533h-51.2c-5.658,0-8.533-2.867-8.533-8.533V315.733     c0-7.902,2.347-14.421,6.784-18.859c4.42-4.412,10.897-6.741,18.816-6.741h36.011c2.534,0,5.419-0.384,7.927,0     c0.546,0.085,1.169-0.179,1.562,0.35c0.435,0.563-0.427,3.934-0.41,4.813c0.077,3.524,1.067,6.972,2.227,10.283     C152.592,313.762,155.015,321.237,152.276,329.805z M256.016,34.133c0-4.71,3.814-8.533,8.533-8.533h51.2     c4.719,0,8.533,3.823,8.533,8.533v34.133c0,4.71-3.814,8.533-8.533,8.533h-51.2c-4.719,0-8.533-3.823-8.533-8.533V34.133z      M273.082,110.933c-4.719,0-8.533-3.823-8.533-8.533c0-4.71,3.814-8.533,8.533-8.533s8.533,3.823,8.533,8.533     C281.616,107.11,277.801,110.933,273.082,110.933z M307.676,170.667c0.614,5.794,1.86,11.529,3.712,17.067h-42.479     c1.852-5.538,3.089-11.273,3.712-17.067H307.676z M273.082,221.867h34.133c4.719,0,8.533,3.823,8.533,8.533     s-3.814,8.533-8.533,8.533h-34.133c-4.719,0-8.533-3.823-8.533-8.533S268.363,221.867,273.082,221.867z M307.216,110.933     c-4.719,0-8.533-3.823-8.533-8.533c0-4.71,3.814-8.533,8.533-8.533s8.533,3.823,8.533,8.533     C315.749,107.11,311.935,110.933,307.216,110.933z M290.149,469.333c-56.465,0-102.4-45.935-102.4-102.4     s45.935-102.4,102.4-102.4c56.465,0,102.4,45.935,102.4,102.4S346.614,469.333,290.149,469.333z"/>
			<rect x="273.082" y="42.667" width="34.133" height="17.067"/>
		</g>
	</g>
</g>
<g>
</g>
<g>
</g>
<g>
</g>
<g>
</g>
<g>
</g>
<g>
</g>
<g>
</g>
<g>
</g>
<g>
</g>
<g>
</g>
<g>
</g>
<g>
</g>
<g>
</g>
<g>
</g>
<g>
</g>
</svg>
