<?xml version="1.0" encoding="iso-8859-1"?>
<!-- Generator: Adobe Illustrator 19.0.0, SVG Export Plug-In . SVG Version: 6.00 Build 0)  -->
<svg xmlns="http://www.w3.org/2000/svg" xmlns:xlink="http://www.w3.org/1999/xlink" version="1.1" id="Layer_1" x="0px" y="0px" viewBox="0 0 512 512" style="enable-background:new 0 0 512 512;" xml:space="preserve">
<g>
	<g>
		<g>
			<path d="M256,221.867c-28.237,0-51.2,22.963-51.2,51.2s22.963,51.2,51.2,51.2s51.2-22.963,51.2-51.2S284.237,221.867,256,221.867     z"/>
			<path d="M327.765,212.685c-1.058-1.246-2.185-2.432-3.302-3.618c-1.237-1.331-2.492-2.628-3.797-3.866     c-1.22-1.169-2.458-2.313-3.746-3.405c-1.417-1.212-2.893-2.347-4.378-3.473c-1.22-0.93-2.415-1.894-3.686-2.765     c-2.688-1.826-5.444-3.541-8.303-5.086c-0.896-0.486-1.852-0.879-2.765-1.331c-2.227-1.109-4.48-2.176-6.784-3.106     c-1.143-0.461-2.313-0.853-3.473-1.271c-2.202-0.785-4.437-1.502-6.699-2.125c-1.178-0.324-2.355-0.631-3.55-0.913     c-2.432-0.572-4.898-1.007-7.373-1.382c-1.058-0.154-2.091-0.358-3.157-0.478c-3.55-0.41-7.134-0.666-10.752-0.666     c-3.618,0-7.202,0.256-10.752,0.666c-1.067,0.119-2.099,0.324-3.157,0.478c-2.475,0.375-4.941,0.811-7.373,1.382     c-1.195,0.282-2.364,0.589-3.541,0.913c-2.27,0.623-4.506,1.34-6.707,2.125c-1.161,0.418-2.33,0.811-3.473,1.271     c-2.304,0.93-4.557,1.997-6.784,3.106c-0.913,0.452-1.869,0.845-2.765,1.331c-2.859,1.544-5.615,3.26-8.303,5.086     c-1.271,0.87-2.466,1.835-3.686,2.765c-1.485,1.126-2.961,2.261-4.386,3.473c-1.28,1.101-2.517,2.236-3.738,3.396     c-1.297,1.246-2.569,2.543-3.806,3.874c-1.109,1.186-2.236,2.372-3.294,3.618c-1.57,1.869-3.046,3.84-4.48,5.837     c-11.042,15.394-17.621,34.193-17.621,54.545s6.579,39.151,17.621,54.545c1.434,1.997,2.91,3.968,4.48,5.837     c1.058,1.246,2.185,2.432,3.294,3.618c1.237,1.331,2.509,2.628,3.806,3.874c1.22,1.161,2.458,2.295,3.738,3.396     c1.425,1.212,2.901,2.347,4.386,3.473c1.22,0.93,2.415,1.894,3.686,2.765c2.688,1.826,5.444,3.541,8.303,5.086     c0.896,0.486,1.852,0.879,2.765,1.331c2.227,1.109,4.48,2.176,6.784,3.106c1.143,0.461,2.313,0.853,3.473,1.271     c2.202,0.785,4.437,1.502,6.707,2.125c1.178,0.324,2.347,0.631,3.541,0.913c2.432,0.572,4.898,1.007,7.373,1.382     c1.058,0.154,2.091,0.358,3.157,0.478c3.55,0.41,7.134,0.666,10.752,0.666c3.618,0,7.202-0.256,10.752-0.666     c1.067-0.12,2.099-0.324,3.157-0.478c2.475-0.375,4.941-0.811,7.373-1.382c1.195-0.282,2.372-0.589,3.55-0.913     c2.261-0.623,4.497-1.34,6.699-2.125c1.161-0.418,2.33-0.811,3.473-1.271c2.304-0.93,4.557-1.997,6.784-3.106     c0.913-0.452,1.869-0.845,2.765-1.331c2.859-1.545,5.615-3.26,8.303-5.086c1.271-0.87,2.466-1.835,3.686-2.765     c1.485-1.126,2.961-2.261,4.378-3.473c1.289-1.092,2.526-2.236,3.746-3.405c1.306-1.237,2.56-2.534,3.797-3.866     c1.118-1.186,2.244-2.372,3.302-3.618c1.57-1.869,3.046-3.84,4.48-5.837c11.042-15.394,17.621-34.193,17.621-54.545     s-6.579-39.151-17.621-54.545C330.812,216.525,329.336,214.554,327.765,212.685z M256,341.333     c-37.641,0-68.267-30.626-68.267-68.267c0-37.641,30.626-68.267,68.267-68.267c37.641,0,68.267,30.626,68.267,68.267     C324.267,310.707,293.641,341.333,256,341.333z"/>
			<path d="M336.742,348.902c-0.87,0.922-1.673,1.894-2.577,2.782c-1.638,1.63-3.371,3.132-5.103,4.651     c-1.135,0.99-2.236,2.005-3.405,2.953c-1.69,1.365-3.43,2.628-5.188,3.883c-1.374,0.981-2.748,1.954-4.164,2.876     c-1.681,1.092-3.396,2.125-5.129,3.123c-1.656,0.947-3.32,1.852-5.026,2.714c-1.621,0.828-3.26,1.63-4.932,2.381     c-1.954,0.879-3.951,1.664-5.965,2.432c-1.527,0.58-3.046,1.178-4.599,1.69c-2.295,0.751-4.634,1.374-6.98,1.98     c-1.391,0.358-2.756,0.768-4.164,1.075c-2.679,0.58-5.402,0.981-8.141,1.365c-1.161,0.162-2.295,0.41-3.456,0.529     C263.996,383.761,260.028,384,256,384c-4.028,0-7.996-0.239-11.913-0.666c-1.161-0.119-2.304-0.367-3.456-0.529     c-2.739-0.384-5.461-0.785-8.132-1.365c-1.408-0.307-2.79-0.717-4.19-1.075c-2.338-0.606-4.668-1.229-6.946-1.98     c-1.562-0.512-3.089-1.118-4.634-1.69c-1.997-0.768-3.985-1.553-5.931-2.423c-1.681-0.751-3.328-1.562-4.966-2.389     c-1.681-0.862-3.345-1.749-4.975-2.697c-1.749-1.007-3.473-2.039-5.171-3.14c-1.399-0.913-2.765-1.877-4.122-2.85     c-1.766-1.263-3.524-2.534-5.222-3.908c-1.152-0.939-2.244-1.937-3.362-2.918c-1.741-1.527-3.49-3.038-5.146-4.676     c-0.896-0.896-1.707-1.86-2.569-2.782c-1.604-1.707-3.268-3.345-4.77-5.154L89.745,435.2h333.09l-81.314-91.477     C340.019,345.549,338.347,347.187,336.742,348.902z M170.667,401.067c-4.71,0-8.533-3.823-8.533-8.533s3.823-8.533,8.533-8.533     s8.533,3.823,8.533,8.533S175.377,401.067,170.667,401.067z M349.867,392.533c0,4.71-3.823,8.533-8.533,8.533     s-8.533-3.823-8.533-8.533s3.823-8.533,8.533-8.533S349.867,387.823,349.867,392.533z"/>
			<path d="M426.667,273.067c0,9.412,7.654,17.067,17.067,17.067H512V256h-68.267C434.321,256,426.667,263.654,426.667,273.067z"/>
			<path d="M452.267,110.933h-6.596l-94.182,105.958c9.754,16.495,15.445,35.661,15.445,56.175c0,20.514-5.692,39.68-15.445,56.175     L445.67,435.2h6.596c32.939,0,59.733-26.795,59.733-59.733V307.2h-68.267c-18.825,0-34.133-15.309-34.133-34.133     s15.309-34.133,34.133-34.133H512v-68.267C512,137.728,485.205,110.933,452.267,110.933z"/>
			<path d="M85.333,273.067c0-9.412-7.654-17.067-17.067-17.067H0v34.133h68.267C77.679,290.133,85.333,282.479,85.333,273.067z"/>
			<path d="M145.067,273.067c0-20.497,5.692-39.654,15.428-56.149L80.572,128h22.946l66.918,74.453     c1.527-1.843,3.217-3.516,4.847-5.248c0.853-0.913,1.647-1.86,2.526-2.739c1.647-1.638,3.396-3.14,5.129-4.659     c1.126-0.99,2.219-2.005,3.388-2.944c1.69-1.365,3.439-2.637,5.197-3.891c1.365-0.981,2.739-1.954,4.156-2.876     c1.681-1.092,3.396-2.125,5.137-3.123c1.647-0.947,3.311-1.852,5.009-2.714c1.638-0.828,3.268-1.638,4.949-2.389     c1.946-0.87,3.942-1.655,5.939-2.423c1.545-0.58,3.072-1.178,4.634-1.698c2.278-0.751,4.608-1.365,6.946-1.971     c1.399-0.358,2.782-0.776,4.198-1.084c2.662-0.58,5.376-0.981,8.107-1.365c1.169-0.162,2.313-0.401,3.49-0.529     c3.917-0.427,7.885-0.666,11.913-0.666c4.028,0,7.996,0.239,11.913,0.666c1.161,0.119,2.295,0.367,3.456,0.529     c2.739,0.384,5.461,0.785,8.141,1.365c1.408,0.307,2.773,0.717,4.164,1.075c2.347,0.606,4.685,1.229,6.98,1.98     c1.553,0.512,3.072,1.109,4.599,1.69c2.014,0.768,4.011,1.553,5.965,2.432c1.673,0.751,3.311,1.553,4.932,2.381     c1.707,0.862,3.371,1.766,5.026,2.714c1.732,0.998,3.447,2.031,5.129,3.123c1.417,0.922,2.79,1.894,4.164,2.876     c1.758,1.254,3.499,2.517,5.188,3.883c1.169,0.947,2.27,1.963,3.405,2.953c1.732,1.519,3.464,3.021,5.103,4.651     c0.905,0.888,1.707,1.86,2.577,2.782c1.604,1.715,3.277,3.354,4.779,5.18l81.314-91.477h-21.768V93.867     c0-9.412-7.654-17.067-17.067-17.067h-17.067c-9.412,0-17.067,7.654-17.067,17.067v17.067H135.671     C131.703,91.486,114.475,76.8,93.867,76.8c-20.796,0-38.11,14.967-41.856,34.688C22.716,115.302,0,140.356,0,170.667v68.267     h68.267c18.825,0,34.133,15.309,34.133,34.133S87.091,307.2,68.267,307.2H0v68.267C0,408.405,26.795,435.2,59.733,435.2h7.236     l93.551-105.933C150.767,312.755,145.067,293.589,145.067,273.067z M341.333,145.067c4.71,0,8.533,3.823,8.533,8.533     s-3.823,8.533-8.533,8.533s-8.533-3.823-8.533-8.533S336.623,145.067,341.333,145.067z M170.667,145.067     c4.71,0,8.533,3.823,8.533,8.533s-3.823,8.533-8.533,8.533s-8.533-3.823-8.533-8.533S165.956,145.067,170.667,145.067z      M93.867,93.867c11.127,0,20.617,7.134,24.141,17.067H88.175H69.726C73.25,101.001,82.739,93.867,93.867,93.867z"/>
		</g>
	</g>
</g>
<g>
</g>
<g>
</g>
<g>
</g>
<g>
</g>
<g>
</g>
<g>
</g>
<g>
</g>
<g>
</g>
<g>
</g>
<g>
</g>
<g>
</g>
<g>
</g>
<g>
</g>
<g>
</g>
<g>
</g>
</svg>
