<?xml version="1.0" encoding="iso-8859-1"?>
<!-- Generator: Adobe Illustrator 19.0.0, SVG Export Plug-In . SVG Version: 6.00 Build 0)  -->
<svg xmlns="http://www.w3.org/2000/svg" xmlns:xlink="http://www.w3.org/1999/xlink" version="1.1" id="Layer_1" x="0px" y="0px" viewBox="0 0 512 512" style="enable-background:new 0 0 512 512;" xml:space="preserve">
<g>
	<g>
		<g>
			<path d="M277.033,123.43c-3.337,3.336-3.337,8.738,0,12.075c3.336,3.328,8.73,3.328,12.066,0c3.336-3.337,3.336-8.738,0-12.075     C285.763,120.093,280.37,120.093,277.033,123.43z"/>
			<path d="M301.167,147.567c-3.336,3.336-3.336,8.73,0,12.066c3.337,3.337,8.73,3.337,12.066,0s3.337-8.73,0-12.066     C309.897,144.23,304.503,144.23,301.167,147.567z"/>
			<path d="M325.3,171.7c-3.337,3.336-3.337,8.738,0,12.075c3.336,3.328,8.73,3.328,12.066,0c3.337-3.337,3.337-8.738,0-12.075     C334.03,168.372,328.637,168.372,325.3,171.7z"/>
			<path d="M325.3,123.43c-3.337,3.336-3.337,8.738,0,12.075c3.336,3.328,8.73,3.328,12.066,0c3.337-3.337,3.337-8.738,0-12.075     C334.03,120.093,328.637,120.093,325.3,123.43z"/>
			<path d="M277.033,171.7c-3.337,3.336-3.337,8.738,0,12.075c3.336,3.328,8.73,3.328,12.066,0c3.336-3.337,3.336-8.738,0-12.075     C285.763,168.372,280.37,168.372,277.033,171.7z"/>
			<path d="M101.366,135.504c3.336-3.337,3.336-8.738,0-12.075c-3.337-3.337-8.73-3.337-12.066,0c-3.337,3.336-3.337,8.738,0,12.075     C92.636,138.832,98.029,138.832,101.366,135.504z"/>
			<path d="M125.5,159.633c3.336-3.337,3.336-8.73,0-12.066c-3.337-3.337-8.73-3.337-12.066,0c-3.337,3.336-3.337,8.73,0,12.066     S122.163,162.97,125.5,159.633z"/>
			<path d="M149.633,183.775c3.337-3.337,3.337-8.738,0-12.075c-3.337-3.328-8.73-3.328-12.066,0c-3.337,3.336-3.337,8.738,0,12.075     C140.903,187.103,146.296,187.103,149.633,183.775z"/>
			<path d="M149.633,135.504c3.337-3.337,3.337-8.738,0-12.075c-3.337-3.337-8.73-3.337-12.066,0c-3.337,3.336-3.337,8.738,0,12.075     C140.903,138.832,146.296,138.832,149.633,135.504z"/>
			<path d="M101.366,183.775c3.336-3.337,3.336-8.738,0-12.075c-3.337-3.328-8.73-3.328-12.066,0c-3.337,3.336-3.337,8.738,0,12.075     C92.636,187.103,98.029,187.103,101.366,183.775z"/>
			<path d="M503.467,247.467h-34.133c-4.719,0-8.533,3.823-8.533,8.533v3.26l-34.133,17.067v-3.26c0-4.71-3.814-8.533-8.533-8.533     h-25.6v-25.6c0-14.114-11.486-25.6-25.6-25.6h-11.563C372.804,199.245,384,177.715,384,153.6c0-42.342-34.449-76.8-76.8-76.8     s-76.8,34.458-76.8,76.8c0,24.115,11.196,45.645,28.629,59.733h-91.392c17.434-14.089,28.629-35.618,28.629-59.733     c0-42.342-34.449-76.8-76.8-76.8s-76.8,34.458-76.8,76.8c0,24.115,11.196,45.645,28.629,59.733H59.733     c-14.114,0-25.6,11.486-25.6,25.6V256h-25.6C3.814,256,0,259.823,0,264.533v51.2c0,4.71,3.814,8.533,8.533,8.533h25.6V409.6     c0,14.114,11.486,25.6,25.6,25.6h187.733v-42.667c0-4.71,3.814-8.533,8.533-8.533h68.267c4.719,0,8.533,3.823,8.533,8.533V435.2     h34.133c14.114,0,25.6-11.486,25.6-25.6v-42.667h25.6c4.719,0,8.533-3.823,8.533-8.533v-3.26l34.133,17.067v3.26     c0,4.71,3.814,8.533,8.533,8.533h34.133c4.719,0,8.533-3.823,8.533-8.533V256C512,251.29,508.186,247.467,503.467,247.467z      M59.733,153.6c0-32.939,26.803-59.733,59.733-59.733S179.2,120.661,179.2,153.6s-26.803,59.733-59.733,59.733     S59.733,186.539,59.733,153.6z M82.833,398.566c-3.337,3.337-8.73,3.337-12.066,0c-3.337-3.337-3.337-8.73,0-12.066     c3.336-3.336,8.73-3.336,12.066,0C86.17,389.837,86.17,395.23,82.833,398.566z M116.966,398.566     c-3.337,3.337-8.73,3.337-12.066,0s-3.337-8.73,0-12.066c3.337-3.336,8.73-3.336,12.066,0     C120.303,389.837,120.303,395.23,116.966,398.566z M151.1,398.566c-3.337,3.337-8.73,3.337-12.066,0     c-3.337-3.337-3.337-8.73,0-12.066c3.336-3.336,8.73-3.336,12.066,0C154.436,389.837,154.436,395.23,151.1,398.566z      M196.267,341.333h-85.333c-4.71,0-8.533-3.831-8.533-8.533c0-14.114-11.486-25.6-25.6-25.6H42.667h-25.6v-34.133h25.6h153.6     V341.333z M307.2,332.8c0,4.702-3.823,8.533-8.533,8.533h-34.133v-68.267h34.133c4.71,0,8.533,3.831,8.533,8.533V332.8z      M307.2,213.333c-32.93,0-59.733-26.795-59.733-59.733S274.27,93.867,307.2,93.867c32.93,0,59.733,26.795,59.733,59.733     S340.13,213.333,307.2,213.333z M409.6,290.133v51.2v8.533h-17.067V281.6H409.6V290.133z"/>
			<rect x="264.533" y="401.067" width="51.2" height="34.133"/>
		</g>
	</g>
</g>
<g>
</g>
<g>
</g>
<g>
</g>
<g>
</g>
<g>
</g>
<g>
</g>
<g>
</g>
<g>
</g>
<g>
</g>
<g>
</g>
<g>
</g>
<g>
</g>
<g>
</g>
<g>
</g>
<g>
</g>
</svg>
