<?xml version="1.0" encoding="iso-8859-1"?>
<!-- Generator: Adobe Illustrator 19.0.0, SVG Export Plug-In . SVG Version: 6.00 Build 0)  -->
<svg xmlns="http://www.w3.org/2000/svg" xmlns:xlink="http://www.w3.org/1999/xlink" version="1.1" id="Layer_1" x="0px" y="0px" viewBox="0 0 512 512" style="enable-background:new 0 0 512 512;" xml:space="preserve">
<g>
	<g>
		<g>
			<path d="M256,179.202c-51.755,0-93.867,42.112-93.867,93.867s42.112,93.867,93.867,93.867c51.755,0,93.867-42.112,93.867-93.867     S307.755,179.202,256,179.202z M256,349.868c-42.342,0-76.8-34.458-76.8-76.8s34.458-76.8,76.8-76.8s76.8,34.458,76.8,76.8     S298.342,349.868,256,349.868z"/>
			<path d="M507.281,195.372c-31.13,12.885-81.041,29.269-148.002,37.495c4.881,12.484,7.654,26.01,7.654,40.201     s-2.773,27.716-7.654,40.201c66.961,8.226,116.838,24.602,147.448,37.248l5.274,1.98V193.009L507.281,195.372z M452.267,281.602     H409.6c-4.71,0-8.533-3.823-8.533-8.533s3.823-8.533,8.533-8.533h42.667c4.71,0,8.533,3.823,8.533,8.533     S456.977,281.602,452.267,281.602z"/>
			<path d="M256,213.335c-32.939,0-59.733,26.795-59.733,59.733s26.795,59.733,59.733,59.733s59.733-26.795,59.733-59.733     S288.939,213.335,256,213.335z M256,247.468c-14.114,0-25.6,11.486-25.6,25.6c0,4.71-3.823,8.533-8.533,8.533     c-4.71,0-8.533-3.823-8.533-8.533c0-23.526,19.14-42.667,42.667-42.667c4.71,0,8.533,3.823,8.533,8.533     C264.533,243.645,260.71,247.468,256,247.468z"/>
			<rect x="375.467" y="128.002" width="51.2" height="34.133"/>
			<path d="M351.287,329.581c-19.362,32.521-54.767,54.417-95.292,54.417c-40.533,0-75.955-21.922-95.309-54.468     c-68.036,7.731-118.391,24.149-148.898,36.762l-10.308,5.154c5.973,26.684,29.807,46.686,58.249,46.686h392.533     c28.877,0,53.026-20.591,58.547-47.864l-10.342-3.874C469.722,353.688,419.281,337.321,351.287,329.581z"/>
			<path d="M160.683,216.603c19.354-32.546,54.784-54.468,95.317-54.468s75.964,21.922,95.317,54.468     c68.028-7.731,118.391-24.149,148.89-36.753l10.317-5.163c-5.982-26.675-29.807-46.686-58.257-46.686h-8.533v42.667     c0,4.71-3.823,8.533-8.533,8.533h-68.267c-4.71,0-8.533-3.823-8.533-8.533v-42.667H145.067v-17.067     c0-9.412-7.654-17.067-17.067-17.067H93.867c-9.412,0-17.067,7.654-17.067,17.067v17.067H59.733     c-28.638,0-52.608,20.267-58.385,47.206l10.65,4.727C42.3,192.454,92.655,208.872,160.683,216.603z"/>
			<path d="M152.721,313.269c-4.881-12.484-7.654-26.01-7.654-40.201s2.773-27.716,7.654-40.201     C85.76,224.642,35.883,208.266,5.274,195.62L0,193.273v159.855l4.719-2.364C35.849,337.879,85.76,321.495,152.721,313.269z      M59.733,264.535H102.4c4.71,0,8.533,3.823,8.533,8.533s-3.823,8.533-8.533,8.533H59.733c-4.71,0-8.533-3.823-8.533-8.533     S55.023,264.535,59.733,264.535z"/>
		</g>
	</g>
</g>
<g>
</g>
<g>
</g>
<g>
</g>
<g>
</g>
<g>
</g>
<g>
</g>
<g>
</g>
<g>
</g>
<g>
</g>
<g>
</g>
<g>
</g>
<g>
</g>
<g>
</g>
<g>
</g>
<g>
</g>
</svg>
