<?xml version="1.0" encoding="iso-8859-1"?>
<!-- Generator: Adobe Illustrator 19.0.0, SVG Export Plug-In . SVG Version: 6.00 Build 0)  -->
<svg xmlns="http://www.w3.org/2000/svg" xmlns:xlink="http://www.w3.org/1999/xlink" version="1.1" id="Layer_1" x="0px" y="0px" viewBox="0 0 512 512" style="enable-background:new 0 0 512 512;" xml:space="preserve">
<g>
	<g>
		<g>
			<path d="M256,226.133c-32.939,0-59.733,26.795-59.733,59.733c0,32.939,26.795,59.733,59.733,59.733s59.733-26.795,59.733-59.733     C315.733,252.928,288.939,226.133,256,226.133z M256,260.267c-14.114,0-25.6,11.486-25.6,25.6c0,4.71-3.823,8.533-8.533,8.533     c-4.71,0-8.533-3.823-8.533-8.533c0-23.526,19.14-42.667,42.667-42.667c4.71,0,8.533,3.823,8.533,8.533     C264.533,256.444,260.71,260.267,256,260.267z"/>
			<path d="M256,192c-51.755,0-93.867,42.112-93.867,93.867s42.112,93.867,93.867,93.867c51.755,0,93.867-42.112,93.867-93.867     S307.755,192,256,192z M256,362.667c-42.342,0-76.8-34.458-76.8-76.8s34.458-76.8,76.8-76.8s76.8,34.458,76.8,76.8     S298.342,362.667,256,362.667z"/>
			<path d="M452.267,140.8H435.2v-8.533c0-4.71-3.823-8.533-8.533-8.533s-8.533,3.823-8.533,8.533v8.533h-17.067v-8.533     c0-4.71-3.823-8.533-8.533-8.533c-4.71,0-8.533,3.823-8.533,8.533v8.533h-17.067v8.533c0,18.005,11.307,34.441,28.126,40.892     c27.674,10.615,47.343,34.031,56.883,67.721c0.725,2.568,0.213,5.333-1.399,7.467c-1.621,2.133-4.139,3.388-6.81,3.388h-25.6     c-9.412,0-17.067,7.654-17.067,17.067c0,9.412,7.654,17.067,17.067,17.067h25.6c2.671,0,5.188,1.254,6.81,3.388     c1.613,2.133,2.125,4.898,1.399,7.467c-9.54,33.69-29.21,57.105-56.883,67.721c-16.819,6.451-28.126,22.886-28.126,40.892v8.533     h85.333c32.939,0,59.733-26.795,59.733-59.733V200.533C512,167.595,485.205,140.8,452.267,140.8z"/>
			<path d="M116.941,381.508c-27.674-10.615-47.343-34.031-56.883-67.721c-0.725-2.569-0.213-5.333,1.399-7.467     c1.621-2.133,4.139-3.388,6.81-3.388h25.6c9.412,0,17.067-7.654,17.067-17.067c0-9.412-7.654-17.067-17.067-17.067h-25.6     c-2.671,0-5.188-1.254-6.81-3.388c-1.613-2.133-2.125-4.898-1.399-7.467c9.54-33.69,29.21-57.105,56.883-67.721     c16.819-6.451,28.126-22.886,28.126-40.892V140.8v-17.067c0-9.412-7.654-17.067-17.067-17.067H93.867     c-9.412,0-17.067,7.654-17.067,17.067V140.8H59.733C26.795,140.8,0,167.595,0,200.533V371.2     c0,32.939,26.795,59.733,59.733,59.733h85.333V422.4C145.067,404.395,133.76,387.96,116.941,381.508z"/>
			<path d="M388.949,365.568c19.763-7.578,34.185-22.878,42.965-45.568h-13.781C399.309,320,384,304.691,384,285.867     s15.309-34.133,34.133-34.133h13.781c-8.781-22.69-23.202-37.99-42.965-45.568c-23.381-8.969-39.083-31.812-39.083-56.832V140.8     h-27.469l-6.921-27.674c-0.947-3.797-4.361-6.46-8.277-6.46h-8.533V89.6c0-4.71-3.823-8.533-8.533-8.533H281.6     c-4.71,0-8.533,3.823-8.533,8.533s3.823,8.533,8.533,8.533v8.533h-51.2v-8.533c4.71,0,8.533-3.823,8.533-8.533     s-3.823-8.533-8.533-8.533h-8.533c-4.71,0-8.533,3.823-8.533,8.533v17.067H204.8c-3.917,0-7.33,2.662-8.277,6.46l-6.921,27.674     h-27.469v8.533c0,25.02-15.701,47.863-39.083,56.832c-19.763,7.578-34.185,22.878-42.965,45.568h13.781     c18.825,0,34.133,15.309,34.133,34.133S112.691,320,93.867,320H80.085c8.781,22.69,23.202,37.99,42.965,45.568     c23.381,8.969,39.083,31.804,39.083,56.832v8.533h187.733V422.4C349.867,397.372,365.568,374.537,388.949,365.568z      M211.465,123.733h89.071l4.267,17.067h-97.604L211.465,123.733z M256,396.8c-61.167,0-110.933-49.766-110.933-110.933     S194.833,174.933,256,174.933S366.933,224.7,366.933,285.867S317.167,396.8,256,396.8z"/>
		</g>
	</g>
</g>
<g>
</g>
<g>
</g>
<g>
</g>
<g>
</g>
<g>
</g>
<g>
</g>
<g>
</g>
<g>
</g>
<g>
</g>
<g>
</g>
<g>
</g>
<g>
</g>
<g>
</g>
<g>
</g>
<g>
</g>
</svg>
