<?xml version="1.0" encoding="iso-8859-1"?>
<!-- Generator: Adobe Illustrator 19.0.0, SVG Export Plug-In . SVG Version: 6.00 Build 0)  -->
<svg xmlns="http://www.w3.org/2000/svg" xmlns:xlink="http://www.w3.org/1999/xlink" version="1.1" id="Layer_1" x="0px" y="0px" viewBox="0 0 512.003 512.003" style="enable-background:new 0 0 512.003 512.003;" xml:space="preserve">
<g>
	<g>
		<g>
			<path d="M166.402,51.203c4.719,0,8.533-3.823,8.533-8.533c0-4.71-3.814-8.533-8.533-8.533s-8.533,3.823-8.533,8.533     C157.868,47.38,161.683,51.203,166.402,51.203z"/>
			<path d="M200.535,51.203c4.719,0,8.533-3.823,8.533-8.533c0-4.71-3.814-8.533-8.533-8.533s-8.533,3.823-8.533,8.533     C192.002,47.38,195.816,51.203,200.535,51.203z"/>
			<path d="M234.668,51.203c4.719,0,8.533-3.823,8.533-8.533c0-4.71-3.814-8.533-8.533-8.533s-8.533,3.823-8.533,8.533     C226.135,47.38,229.949,51.203,234.668,51.203z"/>
			<path d="M268.802,51.203c4.719,0,8.533-3.823,8.533-8.533c0-4.71-3.814-8.533-8.533-8.533s-8.533,3.823-8.533,8.533     C260.268,47.38,264.083,51.203,268.802,51.203z"/>
			<path d="M302.935,51.203c4.719,0,8.533-3.823,8.533-8.533c0-4.71-3.814-8.533-8.533-8.533s-8.533,3.823-8.533,8.533     C294.402,47.38,298.216,51.203,302.935,51.203z"/>
			<path d="M166.402,102.403c4.719,0,8.533-3.823,8.533-8.533c0-4.71-3.814-8.533-8.533-8.533s-8.533,3.823-8.533,8.533     C157.868,98.58,161.683,102.403,166.402,102.403z"/>
			<path d="M200.535,85.337c-4.719,0-8.533,3.823-8.533,8.533c0,4.71,3.814,8.533,8.533,8.533s8.533-3.823,8.533-8.533     C209.068,89.16,205.254,85.337,200.535,85.337z"/>
			<path d="M234.668,85.337c-4.719,0-8.533,3.823-8.533,8.533c0,4.71,3.814,8.533,8.533,8.533s8.533-3.823,8.533-8.533     C243.202,89.16,239.387,85.337,234.668,85.337z"/>
			<path d="M268.802,85.337c-4.719,0-8.533,3.823-8.533,8.533c0,4.71,3.814,8.533,8.533,8.533s8.533-3.823,8.533-8.533     C277.335,89.16,273.521,85.337,268.802,85.337z"/>
			<path d="M302.935,85.337c-4.719,0-8.533,3.823-8.533,8.533c0,4.71,3.814,8.533,8.533,8.533s8.533-3.823,8.533-8.533     C311.468,89.16,307.654,85.337,302.935,85.337z"/>
			<path d="M183.468,76.803c4.719,0,8.533-3.823,8.533-8.533s-3.814-8.533-8.533-8.533s-8.533,3.823-8.533,8.533     S178.749,76.803,183.468,76.803z"/>
			<path d="M217.602,76.803c4.719,0,8.533-3.823,8.533-8.533s-3.814-8.533-8.533-8.533c-4.719,0-8.533,3.823-8.533,8.533     S212.883,76.803,217.602,76.803z"/>
			<path d="M251.735,76.803c4.719,0,8.533-3.823,8.533-8.533s-3.814-8.533-8.533-8.533s-8.533,3.823-8.533,8.533     S247.016,76.803,251.735,76.803z"/>
			<path d="M285.868,76.803c4.719,0,8.533-3.823,8.533-8.533s-3.814-8.533-8.533-8.533s-8.533,3.823-8.533,8.533     S281.149,76.803,285.868,76.803z"/>
			<path d="M320.002,76.803c4.719,0,8.533-3.823,8.533-8.533s-3.814-8.533-8.533-8.533s-8.533,3.823-8.533,8.533     S315.283,76.803,320.002,76.803z"/>
			<path d="M378.762,197.035c-1.297-5.504-3.959-10.445-7.561-14.566v-37.402c0-11.102-7.159-20.489-17.067-24.03V25.6     c0-14.114-11.486-25.6-25.6-25.6H157.868c-14.114,0-25.6,11.486-25.6,25.6v95.437c-9.907,3.541-17.067,12.928-17.067,24.03     v37.402c-5.24,5.999-8.533,13.756-8.533,22.332c-4.719,0-8.533,3.823-8.533,8.533c0,4.719,3.814,8.533,8.533,8.533v17.067     c-4.719,0-8.533,3.823-8.533,8.533c0,4.719,3.814,8.533,8.533,8.533v34.133h69.862l1.126-9.847c0-0.026,0.009-0.051,0.017-0.085     c-14.66-3.806-25.045-15.906-27.657-32.734h-0.683c-9.412,0-17.067-7.654-17.067-17.067v-17.067     c0-9.412,7.654-17.067,17.067-17.067h17.067c9.412,0,17.067,7.654,17.067,17.067V230.4c0,9.071-7.125,16.435-16.051,16.964     c1.801,7.458,6.229,14.191,14.404,16.384c9.685-24.73,33.69-41.882,61.38-41.882c33.527,0,61.705,25.114,65.545,58.419     l1.126,9.847h69.862v-9.395c19.447-3.968,34.133-21.197,34.133-41.805C413.868,218.001,398.679,200.627,378.762,197.035z      M149.335,76.8c4.719,0,8.533-3.814,8.533-8.533c0-4.71-3.814-8.533-8.533-8.533V25.6c4.719,0,8.533-3.814,8.533-8.533h17.067     c0,4.719,3.814,8.533,8.533,8.533s8.533-3.814,8.533-8.533h17.067c0,4.719,3.814,8.533,8.533,8.533     c4.719,0,8.533-3.814,8.533-8.533h17.067c0,4.719,3.814,8.533,8.533,8.533s8.533-3.814,8.533-8.533h17.067     c0,4.719,3.814,8.533,8.533,8.533s8.533-3.814,8.533-8.533h17.067c0,4.719,3.814,8.533,8.533,8.533s8.533-3.814,8.533-8.533     c4.71,0,8.533,3.831,8.533,8.533v8.533c-4.719,0-8.533,3.823-8.533,8.533c0,4.719,3.814,8.533,8.533,8.533v34.133     c-4.719,0-8.533,3.823-8.533,8.533c0,4.719,3.814,8.533,8.533,8.533v17.067h-8.533c0-4.71-3.814-8.533-8.533-8.533     s-8.533,3.823-8.533,8.533h-17.067c0-4.71-3.814-8.533-8.533-8.533s-8.533,3.823-8.533,8.533h-17.067     c0-4.71-3.814-8.533-8.533-8.533s-8.533,3.823-8.533,8.533h-17.067c0-4.71-3.814-8.533-8.533-8.533     c-4.719,0-8.533,3.823-8.533,8.533h-17.067c0-4.71-3.814-8.533-8.533-8.533s-8.533,3.823-8.533,8.533h-17.067     c0-4.71-3.814-8.533-8.533-8.533V76.8z M354.135,171.776c-0.307-0.077-0.623-0.111-0.93-0.188     c-0.538-0.119-1.075-0.222-1.621-0.316c-1.963-0.358-3.959-0.606-5.982-0.606h-204.8c-2.022,0-4.019,0.247-5.982,0.606     c-0.546,0.094-1.084,0.196-1.621,0.316c-0.307,0.077-0.623,0.111-0.93,0.188v-26.709c0-4.702,3.823-8.533,8.533-8.533h204.8     c4.71,0,8.533,3.831,8.533,8.533V171.776z M379.735,263.074v-48.273c9.933,3.516,17.067,13.013,17.067,24.132     C396.802,250.061,389.668,259.55,379.735,263.074z"/>
			<path d="M243.202,307.203c9.412,0,17.067-7.654,17.067-17.067c0-9.412-7.654-17.067-17.067-17.067s-17.067,7.654-17.067,17.067     C226.135,299.549,233.789,307.203,243.202,307.203z"/>
			<path d="M243.202,409.603c14.114,0,25.6-11.486,25.6-25.6s-11.486-25.6-25.6-25.6s-25.6,11.486-25.6,25.6     S229.088,409.603,243.202,409.603z"/>
			<path d="M174.552,307.203h-67.883v85.333h58.325c0.06-1.758,0.128-3.516,0.324-5.282L174.552,307.203z"/>
			<path d="M321.085,387.257c0.196,1.766,0.265,3.524,0.324,5.282h58.325v-85.333h-67.883L321.085,387.257z"/>
			<path d="M230.862,443.737h24.678c13.943,0,27.255-5.965,36.531-16.367c9.259-10.411,13.662-24.311,12.066-38.153l-12.348-106.974     c-2.85-24.687-23.731-43.307-48.589-43.307s-45.739,18.62-48.589,43.307l-12.348,106.974     c-1.596,13.841,2.807,27.742,12.066,38.153C203.607,437.772,216.919,443.737,230.862,443.737z M243.202,256.003     c18.825,0,34.133,15.309,34.133,34.133s-15.309,34.133-34.133,34.133s-34.133-15.309-34.133-34.133     S224.377,256.003,243.202,256.003z M243.202,341.337c23.526,0,42.667,19.14,42.667,42.667c0,23.526-19.14,42.667-42.667,42.667     c-23.526,0-42.667-19.14-42.667-42.667C200.535,360.477,219.675,341.337,243.202,341.337z"/>
			<path d="M304.812,438.719c-12.51,14.037-30.473,22.084-49.271,22.084h-24.678c-18.799,0-36.762-8.047-49.271-22.084     c-7.45-8.363-12.501-18.415-14.967-29.116h-59.955v68.267c0,18.825,15.309,34.133,34.133,34.133h204.8     c18.825,0,34.133-15.309,34.133-34.133v-68.267H319.78C317.314,420.304,312.262,430.357,304.812,438.719z M149.335,477.87     c-4.719,0-8.533-3.823-8.533-8.533s3.814-8.533,8.533-8.533s8.533,3.823,8.533,8.533S154.054,477.87,149.335,477.87z      M337.068,460.803c4.719,0,8.533,3.823,8.533,8.533s-3.814,8.533-8.533,8.533c-4.719,0-8.533-3.823-8.533-8.533     S332.349,460.803,337.068,460.803z"/>
			<polygon points="149.335,213.337 149.335,230.403 166.41,230.403 166.402,213.337    "/>
		</g>
	</g>
</g>
<g>
</g>
<g>
</g>
<g>
</g>
<g>
</g>
<g>
</g>
<g>
</g>
<g>
</g>
<g>
</g>
<g>
</g>
<g>
</g>
<g>
</g>
<g>
</g>
<g>
</g>
<g>
</g>
<g>
</g>
</svg>
