<?xml version="1.0" encoding="iso-8859-1"?>
<!-- Generator: Adobe Illustrator 19.0.0, SVG Export Plug-In . SVG Version: 6.00 Build 0)  -->
<svg xmlns="http://www.w3.org/2000/svg" xmlns:xlink="http://www.w3.org/1999/xlink" version="1.1" id="Layer_1" x="0px" y="0px" viewBox="0 0 512 512" style="enable-background:new 0 0 512 512;" xml:space="preserve">
<g>
	<g>
		<g>
			<path d="M486.4,123.733h-0.862C481.57,104.286,464.341,89.6,443.733,89.6h-42.667v-8.533c0-4.71-3.823-8.533-8.533-8.533     c-4.71,0-8.533,3.823-8.533,8.533V89.6h-34.133v-8.533c0-4.71-3.823-8.533-8.533-8.533s-8.533,3.823-8.533,8.533V89.6H153.6     v-8.533c0-14.114-11.486-25.6-25.6-25.6h-17.067c-14.114,0-25.6,11.486-25.6,25.6V89.6H68.267     c-20.608,0-37.837,14.686-41.805,34.133H25.6c-14.114,0-25.6,11.486-25.6,25.6V396.8c0,7.535,3.337,14.251,8.533,18.944V448     c0,4.71,3.823,8.533,8.533,8.533h477.867c4.71,0,8.533-3.823,8.533-8.533v-32.256c5.197-4.693,8.533-11.409,8.533-18.944V149.333     C512,135.219,500.514,123.733,486.4,123.733z M315.733,149.333c51.755,0,93.867,42.112,93.867,93.867     c0,51.755-42.112,93.867-93.867,93.867c-51.755,0-93.867-42.112-93.867-93.867C221.867,191.445,263.979,149.333,315.733,149.333z      M102.4,81.067c0-4.702,3.831-8.533,8.533-8.533H128c4.702,0,8.533,3.831,8.533,8.533V89.6H102.4V81.067z M102.4,157.867     c0-14.114,11.486-25.6,25.6-25.6h51.2c14.114,0,25.6,11.486,25.6,25.6v51.2c0,14.114-11.486,25.6-25.6,25.6H128     c-14.114,0-25.6-11.486-25.6-25.6V157.867z M196.267,294.4c0,23.526-19.14,42.667-42.667,42.667     c-23.526,0-42.667-19.14-42.667-42.667c0-23.526,19.14-42.667,42.667-42.667C177.126,251.733,196.267,270.874,196.267,294.4z      M494.933,396.8c0,4.702-3.831,8.533-8.533,8.533H25.6c-4.702,0-8.533-3.831-8.533-8.533V149.333     c0-4.702,3.831-8.533,8.533-8.533h8.533h34.133v221.867c0,4.71,3.823,8.533,8.533,8.533h358.4c4.71,0,8.533-3.823,8.533-8.533     V140.8h34.133h8.533c4.702,0,8.533,3.831,8.533,8.533V396.8z"/>
			<path d="M128,294.4c0,14.114,11.486,25.6,25.6,25.6c14.114,0,25.6-11.486,25.6-25.6s-11.486-25.6-25.6-25.6     C139.486,268.8,128,280.286,128,294.4z"/>
			<path d="M128,217.6h51.2c4.702,0,8.533-3.831,8.533-8.533v-51.2c0-4.702-3.831-8.533-8.533-8.533H128     c-4.702,0-8.533,3.831-8.533,8.533v51.2C119.467,213.769,123.298,217.6,128,217.6z"/>
			<path d="M315.733,320c42.342,0,76.8-34.458,76.8-76.8s-34.458-76.8-76.8-76.8s-76.8,34.458-76.8,76.8S273.391,320,315.733,320z      M256,243.2c0-32.939,26.795-59.733,59.733-59.733c4.71,0,8.533,3.823,8.533,8.533s-3.823,8.533-8.533,8.533     c-23.526,0-42.667,19.14-42.667,42.667c0,4.71-3.823,8.533-8.533,8.533C259.823,251.733,256,247.91,256,243.2z"/>
		</g>
	</g>
</g>
<g>
</g>
<g>
</g>
<g>
</g>
<g>
</g>
<g>
</g>
<g>
</g>
<g>
</g>
<g>
</g>
<g>
</g>
<g>
</g>
<g>
</g>
<g>
</g>
<g>
</g>
<g>
</g>
<g>
</g>
</svg>
