<?xml version="1.0" encoding="iso-8859-1"?>
<!-- Generator: Adobe Illustrator 19.0.0, SVG Export Plug-In . SVG Version: 6.00 Build 0)  -->
<svg xmlns="http://www.w3.org/2000/svg" xmlns:xlink="http://www.w3.org/1999/xlink" version="1.1" id="Layer_1" x="0px" y="0px" viewBox="0 0 511.999 511.999" style="enable-background:new 0 0 511.999 511.999;" xml:space="preserve">
<g>
	<g>
		<g>
			<circle cx="375.467" cy="102.398" r="8.533"/>
			<path d="M91.87,230.398h81.126c18.62-25.788,48.845-42.667,83.004-42.667s64.384,16.879,83.004,42.667h81.126     c20.872,0,39.245-12.57,46.805-32.017l24.158-64.486c-10.453-8.969-24.004-14.43-38.827-14.43h-17.57     c-1.024-9.583-3.721-19.004-8.03-27.614l-9.429-18.867c-1.451-2.893-4.403-4.719-7.637-4.719h-68.267     c-3.234,0-6.187,1.826-7.637,4.719l-9.429,18.867c-4.309,8.61-7.006,18.031-8.03,27.614H153.6v-8.533     c0-14.114-11.486-25.6-25.6-25.6h-17.067c-14.114,0-25.6,11.486-25.6,25.6v8.533h-25.6c-14.822,0-28.373,5.461-38.827,14.43     l24.192,64.589C52.625,217.829,70.997,230.398,91.87,230.398z M339.533,99.48l7.074-14.148h57.719l7.074,14.148     c3.132,6.263,5.214,13.047,6.153,19.985H333.38C334.319,112.527,336.401,105.743,339.533,99.48z M213.333,153.598h85.333     c4.71,0,8.533,3.823,8.533,8.533c0,4.71-3.823,8.533-8.533,8.533h-85.333c-4.71,0-8.533-3.823-8.533-8.533     C204.8,157.421,208.623,153.598,213.333,153.598z M102.4,110.932c0-4.702,3.831-8.533,8.533-8.533H128     c4.702,0,8.533,3.831,8.533,8.533v8.533H102.4V110.932z"/>
			<path d="M338.817,350.115c-18.628,25.643-48.768,42.419-82.816,42.419c-34.048,0-64.188-16.776-82.816-42.419     c-15.121,1.22-28.544,8.892-37.248,21.615c-9.506,13.892-11.46,30.865-5.359,46.558l5.376,13.815l5.82,11.631h228.42l6.17-12.356     l5.06-13.09c6.101-15.693,4.147-32.666-5.359-46.558C367.361,359.007,353.938,351.335,338.817,350.115z"/>
			<path d="M256,255.998c-18.825,0-34.133,15.309-34.133,34.133s15.309,34.133,34.133,34.133c18.825,0,34.133-15.309,34.133-34.133     S274.825,255.998,256,255.998z"/>
			<path d="M503.679,148.94l-20.796,55.526c-10.172,26.163-34.782,42.999-62.754,42.999H348.97     c5.99,13.005,9.429,27.426,9.429,42.667c0,15.829-3.712,30.771-10.155,44.169c16.87,3.49,31.974,13.269,41.907,27.793     c12.552,18.338,15.232,41.66,7.177,62.379l-5.376,13.824l-2.714,5.436h63.027c32.939,0,59.733-26.795,59.733-59.733v-204.8     C511.999,168.148,508.936,157.832,503.679,148.94z"/>
			<path d="M114.671,424.478c-8.055-20.719-5.367-44.041,7.177-62.387c9.933-14.515,25.037-24.294,41.907-27.785     c-6.434-13.397-10.155-28.348-10.155-44.177c0-15.232,3.439-29.653,9.429-42.667H91.87c-27.972,0-52.582-16.836-62.711-42.897     L8.32,148.937C3.063,157.828,0,168.145,0,179.196v204.8c0,32.939,26.795,59.733,59.733,59.733h62.993l-2.364-4.71     L114.671,424.478z"/>
			<path d="M256,204.798c-47.053,0-85.333,38.281-85.333,85.333s38.281,85.333,85.333,85.333s85.333-38.281,85.333-85.333     S303.053,204.798,256,204.798z M256,341.332c-28.237,0-51.2-22.963-51.2-51.2c0-28.237,22.963-51.2,51.2-51.2     s51.2,22.963,51.2,51.2C307.2,318.368,284.237,341.332,256,341.332z"/>
		</g>
	</g>
</g>
<g>
</g>
<g>
</g>
<g>
</g>
<g>
</g>
<g>
</g>
<g>
</g>
<g>
</g>
<g>
</g>
<g>
</g>
<g>
</g>
<g>
</g>
<g>
</g>
<g>
</g>
<g>
</g>
<g>
</g>
</svg>
