<?xml version="1.0" encoding="iso-8859-1"?>
<!-- Generator: Adobe Illustrator 19.0.0, SVG Export Plug-In . SVG Version: 6.00 Build 0)  -->
<svg xmlns="http://www.w3.org/2000/svg" xmlns:xlink="http://www.w3.org/1999/xlink" version="1.1" id="Layer_1" x="0px" y="0px" viewBox="0 0 512.005 512.005" style="enable-background:new 0 0 512.005 512.005;" xml:space="preserve">
<g>
	<g>
		<g>
			<path d="M298.67,149.337c18.825,0,34.133-15.309,34.133-34.133c0-18.825-15.309-34.133-34.133-34.133     s-34.133,15.309-34.133,34.133C264.537,134.028,279.846,149.337,298.67,149.337z"/>
			<path d="M85.337,413.87H51.203c-4.719,0-8.533,3.823-8.533,8.533s3.814,8.533,8.533,8.533h34.133     c4.719,0,8.533-3.823,8.533-8.533S90.056,413.87,85.337,413.87z"/>
			<path d="M85.337,379.737H51.203c-4.719,0-8.533,3.823-8.533,8.533s3.814,8.533,8.533,8.533h34.133     c4.719,0,8.533-3.823,8.533-8.533S90.056,379.737,85.337,379.737z"/>
			<path d="M85.337,345.603H51.203c-4.719,0-8.533,3.823-8.533,8.533c0,4.71,3.814,8.533,8.533,8.533h34.133     c4.719,0,8.533-3.823,8.533-8.533C93.87,349.426,90.056,345.603,85.337,345.603z"/>
			<path d="M85.337,311.47H51.203c-4.719,0-8.533,3.823-8.533,8.533s3.814,8.533,8.533,8.533h34.133     c4.719,0,8.533-3.823,8.533-8.533S90.056,311.47,85.337,311.47z"/>
			<path d="M85.337,277.337H51.203c-4.719,0-8.533,3.823-8.533,8.533c0,4.71,3.814,8.533,8.533,8.533h34.133     c4.719,0,8.533-3.823,8.533-8.533C93.87,281.16,90.056,277.337,85.337,277.337z"/>
			<path d="M85.337,243.203H51.203c-4.719,0-8.533,3.823-8.533,8.533s3.814,8.533,8.533,8.533h34.133     c4.719,0,8.533-3.823,8.533-8.533S90.056,243.203,85.337,243.203z"/>
			<path d="M102.403,209.07H68.27c-4.719,0-8.533,3.823-8.533,8.533c0,4.71,3.814,8.533,8.533,8.533h34.133     c4.719,0,8.533-3.823,8.533-8.533C110.937,212.893,107.122,209.07,102.403,209.07z"/>
			<path d="M59.737,192.003H93.87c4.719,0,8.533-3.823,8.533-8.533s-3.814-8.533-8.533-8.533H59.737     c-4.719,0-8.533,3.823-8.533,8.533S55.018,192.003,59.737,192.003z"/>
			<path d="M313.278,210.445c0.819-2.278,1.647-4.548,2.722-6.776l5.299-9.062c-7.296-1.655-14.848-2.603-22.63-2.603     c-16.947,0-32.913,4.207-47.01,11.52l-4.762,8.149c-2.961,6.178-4.514,12.664-4.762,18.978     C261.182,213.807,287.235,205.922,313.278,210.445z"/>
			<path d="M329.588,281.016c-1.203-3.311-2.842-6.502-4.915-9.489c-2.125-3.063-4.719-5.717-6.741-8.866     c-0.29-0.444-0.572-0.887-0.845-1.331c-1.297-2.133-2.483-4.326-3.482-6.707c-0.93-2.193-1.655-4.48-2.287-6.81     c-0.179-0.691-0.367-1.382-0.521-2.091c-0.444-1.946-0.794-3.917-1.024-5.931c-0.154-1.229-0.23-2.475-0.307-3.721     c-0.068-1.365-0.128-2.739-0.102-4.13c0.009-1.408,0.068-2.825,0.188-4.25c0.017-0.213,0.009-0.418,0.026-0.631     c-24.081-4.045-47.855,5.367-63.01,23.663c1.263,2.449,2.748,4.668,4.454,6.588c2.33,2.654,4.378,5.47,6.135,8.414     c1.544,2.603,2.79,5.342,3.883,8.115c0.137,0.35,0.367,0.674,0.486,1.033c5.146,13.841,4.429,29.227-1.732,42.735     c-2.244,4.907-5.009,9.634-8.772,13.892c-1.681,1.929-3.149,4.147-4.412,6.588c-0.043,0.068-0.077,0.145-0.111,0.213     c15.24,18.091,38.938,27.443,63.061,23.458c-0.034-0.375-0.026-0.742-0.051-1.118c-0.068-0.99-0.094-1.971-0.12-2.953     c-0.051-1.903,0-3.789,0.12-5.649c0.043-0.597,0.034-1.195,0.094-1.783c0.23-2.398,0.666-4.736,1.195-7.04     c0.154-0.683,0.333-1.357,0.512-2.031c0.589-2.185,1.28-4.318,2.116-6.4c0.085-0.196,0.145-0.41,0.23-0.606     c0.947-2.253,2.108-4.403,3.354-6.494c0.316-0.529,0.64-1.041,0.973-1.553c1.357-2.074,2.807-4.096,4.454-5.973     C332.122,309.175,334.341,294.174,329.588,281.016z M291.828,260.954c-4.966,1.007-9.557,3.072-13.636,6.135     c-1.527,1.152-3.328,1.707-5.111,1.707c-2.594,0-5.154-1.169-6.835-3.405c-2.825-3.763-2.065-9.114,1.698-11.947     c6.033-4.531,13.124-7.723,20.506-9.216c4.625-0.939,9.114,2.057,10.052,6.665C299.44,255.518,296.453,260.015,291.828,260.954z"/>
			<path d="M400.287,282.266c-0.273-2.278-0.614-4.54-1.041-6.767c-0.162-0.87-0.307-1.749-0.495-2.611     c-0.64-2.978-1.374-5.922-2.261-8.798c-0.068-0.196-0.145-0.393-0.205-0.589c-0.87-2.748-1.869-5.436-2.961-8.081     c-0.273-0.649-0.563-1.289-0.836-1.937c-1.058-2.406-2.193-4.779-3.422-7.091c-0.196-0.367-0.375-0.742-0.58-1.101     c-3.098-5.641-6.69-10.957-10.752-15.88l-0.196-0.239c-6.178-7.45-13.38-14.012-21.402-19.465     c-0.247-0.171-0.495-0.333-0.751-0.495c-2.261-1.51-4.608-2.918-6.997-4.258c-0.555-0.307-1.109-0.623-1.673-0.922     c-2.364-1.263-4.779-2.423-7.236-3.499c-0.418-0.179-0.811-0.384-1.229-0.563c-0.085-0.034-0.188-0.06-0.282-0.094l-6.912,11.802     c-1.579,3.294-2.671,6.69-3.473,10.095c-0.026,0.188,0.026,0.358-0.008,0.546c-1.843,8.183-1.451,17.092,1.647,24.994     c3.132,7.97,9.702,13.594,13.636,21.12c7.535,14.43,8.38,31.872,2.295,46.976c-2.355,5.862-5.734,11.307-9.916,16.051     c-1.169,1.314-2.185,2.748-3.123,4.224c-0.299,0.469-0.572,0.964-0.845,1.451c-0.572,0.998-1.092,2.031-1.562,3.081     c-0.307,0.674-0.606,1.348-0.862,2.039c-0.316,0.845-0.563,1.715-0.828,2.586c-1.92,6.639-2.176,14.037-0.469,21.871     c0.836,3.695,2.056,7.381,3.814,10.991l6.605,11.23c0.094-0.034,0.196-0.06,0.282-0.102c0.41-0.171,0.794-0.375,1.203-0.555     c2.475-1.075,4.898-2.236,7.27-3.499c0.555-0.299,1.101-0.614,1.655-0.922c2.389-1.331,4.753-2.748,7.023-4.267     c0.239-0.162,0.486-0.316,0.717-0.478c8.03-5.461,15.232-12.015,21.41-19.465c0.068-0.085,0.145-0.171,0.205-0.256     c4.062-4.924,7.654-10.232,10.743-15.855c0.205-0.384,0.393-0.768,0.597-1.143c1.22-2.304,2.347-4.659,3.405-7.057     c0.282-0.649,0.572-1.297,0.845-1.954c1.092-2.645,2.091-5.333,2.953-8.081c0.068-0.188,0.145-0.375,0.213-0.58     c0.888-2.876,1.621-5.82,2.261-8.798c0.188-0.87,0.333-1.741,0.495-2.62c0.427-2.227,0.768-4.471,1.033-6.75     c0.12-0.922,0.23-1.852,0.316-2.773c0.282-3.098,0.478-6.212,0.478-9.378c0-3.166-0.196-6.281-0.478-9.37     C400.509,284.1,400.398,283.187,400.287,282.266z"/>
			<path d="M238.262,268.645c-0.017-0.017-0.026-0.034-0.043-0.051c-1.997-2.244-3.695-4.693-5.239-7.228     c-0.111-0.179-0.23-0.358-0.333-0.538c-6.596-11.093-8.969-24.636-6.75-38.366c-6.46,6.537-12.015,13.943-16.546,22.007     c-0.239,0.435-0.521,0.845-0.759,1.28c-1.067,1.963-1.988,4.019-2.918,6.059c-0.469,1.016-1.007,1.997-1.434,3.038     c-0.683,1.613-1.229,3.294-1.818,4.949c-0.546,1.51-1.152,2.987-1.63,4.523c-0.427,1.417-0.742,2.884-1.109,4.326     c-0.469,1.809-1.007,3.601-1.382,5.444c-0.316,1.596-0.486,3.243-0.742,4.864c-0.256,1.715-0.589,3.422-0.768,5.163     c-0.333,3.379-0.521,6.818-0.521,10.291c0,3.473,0.188,6.903,0.521,10.291c0.179,1.749,0.512,3.464,0.776,5.188     c0.256,1.613,0.418,3.251,0.742,4.838c0.375,1.852,0.913,3.652,1.374,5.478c0.375,1.425,0.691,2.893,1.118,4.292     c0.469,1.545,1.084,3.029,1.63,4.54c0.589,1.655,1.135,3.328,1.809,4.941c0.427,1.033,0.964,2.022,1.434,3.038     c0.939,2.039,1.852,4.087,2.918,6.059c0.23,0.41,0.495,0.794,0.725,1.195c4.548,8.115,10.138,15.565,16.631,22.127     c-2.236-13.73,0.137-27.196,6.699-38.332c0.111-0.205,0.239-0.401,0.367-0.597c1.519-2.509,3.191-4.932,5.137-7.159     c0.034-0.043,0.068-0.102,0.102-0.136C251.232,305.492,251.224,283.348,238.262,268.645z"/>
			<path d="M489.537,146.124l-3.9,6.827c-9.395,25.643-24.832,77.551-24.832,141.449c0,63.906,15.437,115.814,24.832,141.457     l3.9,6.827c13.312-7.228,22.468-21.171,22.468-37.35V183.466C512.005,167.287,502.849,153.352,489.537,146.124z"/>
			<path d="M313.254,378.278c-4.872,0.862-9.762,1.459-14.583,1.459c-20.932,0-41.003-7.902-56.474-21.598     c0.247,6.468,1.877,13.15,5.001,19.567l4.454,7.561c14.106,7.33,30.071,11.537,47.019,11.537c7.774,0,15.326-0.947,22.605-2.603     l-4.949-8.448C315.122,383.287,314.15,380.787,313.254,378.278z"/>
			<path d="M469.862,442.422c-9.762-26.479-26.129-80.913-26.129-148.019s16.367-121.54,26.129-148.019     c0.162-0.444,0.367-0.87,0.597-1.28l2.261-3.959c-1.135-0.094-2.227-0.341-3.388-0.341h-16.299l-13.807-27.614     c-7.27-14.549-21.897-23.586-38.161-23.586h-21.743l-1.374-12.297c-1.92-17.314-16.512-30.37-33.929-30.37h-90.701     c-17.417,0-32.009,13.056-33.937,30.37l-1.365,12.297H179.2V72.536c0-9.412-7.654-17.067-17.067-17.067H128     c-9.404,0-17.067,7.654-17.067,17.067v17.067h-4.506c-16.256,0-30.882,9.037-38.161,23.586l-13.926,27.87     c-13.884,1.229-26.786,7.202-36.779,17.178C6.238,169.543,0,184.587,0,200.613v230.323c0,18.825,15.309,34.133,34.133,34.133     H102.4c12.843,0,23.919-7.211,29.739-17.715c1.417,0.384,2.867,0.648,4.395,0.648h332.8c1.161,0,2.253-0.247,3.388-0.341     l-2.261-3.959C470.229,443.292,470.025,442.865,469.862,442.422z M128.393,222.364c-1.886,5.82-5.043,10.991-6.639,16.956     c-0.188,0.691-0.435,1.357-0.597,2.048c-0.06,0.256-0.085,0.521-0.145,0.776c-0.981,4.361-1.545,8.815-1.545,13.295v1.681     v173.815c0,9.412-7.654,17.067-17.067,17.067H34.133c-9.404,0-17.067-7.654-17.067-17.067V200.613     c0-11.46,4.463-22.221,12.561-30.302c8.038-8.021,18.697-12.442,30.106-12.442c6.656,0,13.295,0.009,19.942,0.009     c11.162,0,22.323,0,33.476,0.009h9.156c1.681,0,0.759,1.434,0.393,2.944c-0.546,2.304-0.905,4.651-1.067,7.014     c-0.452,6.417,0.614,12.732,2.842,18.748c2.167,5.845,5.035,11.503,5.734,17.775C130.876,210.409,130.27,216.587,128.393,222.364     z M73.549,140.803l9.984-19.985c4.369-8.73,13.141-14.148,22.895-14.148h13.039h51.2h45.457l-3.806,34.133H73.549z      M417.579,305.462c-0.111,1.161-0.273,2.304-0.418,3.456c-0.307,2.534-0.683,5.043-1.152,7.535     c-0.222,1.212-0.452,2.423-0.725,3.627c-0.58,2.654-1.263,5.274-2.031,7.868c-0.239,0.836-0.452,1.69-0.708,2.526     c-1.101,3.473-2.338,6.878-3.746,10.214c-0.128,0.299-0.273,0.572-0.393,0.862c-1.323,3.072-2.782,6.067-4.352,9.011     c-0.316,0.597-0.657,1.186-0.99,1.784c-1.536,2.765-3.174,5.461-4.915,8.09c-0.265,0.384-0.503,0.768-0.76,1.152     c-6.298,9.233-13.858,17.57-22.528,24.747c-0.213,0.179-0.444,0.358-0.657,0.529c-2.594,2.125-5.274,4.13-8.055,6.033     c-0.427,0.299-0.862,0.597-1.297,0.888c-2.748,1.826-5.572,3.558-8.491,5.171c-0.358,0.196-0.691,0.41-1.041,0.597     c-3.2,1.724-6.468,3.319-9.847,4.753c-0.785,0.333-1.604,0.597-2.389,0.913c-2.022,0.811-4.019,1.638-6.093,2.338     c-0.171,0.051-0.333,0.034-0.503,0.085c-11.895,3.977-24.593,6.229-37.82,6.229c-20.574,0-39.945-5.231-56.866-14.421     c-0.077-0.043-0.179-0.06-0.265-0.111c-3.234-1.758-6.315-3.703-9.344-5.726c-0.205-0.145-0.401-0.29-0.614-0.427     c-9.489-6.46-17.903-14.148-25.045-22.818c-0.009-0.009-0.009-0.017-0.017-0.026c-4.693-5.7-8.841-11.81-12.399-18.253     c-0.265-0.486-0.538-0.964-0.794-1.459c-1.69-3.157-3.268-6.366-4.668-9.668c-0.077-0.171-0.137-0.358-0.213-0.538     c-1.246-2.987-2.338-6.042-3.345-9.139c-0.29-0.913-0.58-1.818-0.862-2.731c-0.956-3.226-1.835-6.485-2.526-9.805     c-0.051-0.299-0.102-0.606-0.171-0.913c-0.64-3.226-1.118-6.502-1.493-9.788c-0.111-0.956-0.205-1.903-0.29-2.859     c-0.324-3.576-0.555-7.159-0.555-10.786c0-3.627,0.23-7.211,0.555-10.786c0.085-0.947,0.179-1.903,0.29-2.859     c0.375-3.285,0.853-6.562,1.493-9.788c0.068-0.307,0.119-0.614,0.171-0.913c0.691-3.319,1.57-6.571,2.526-9.796     c0.282-0.922,0.572-1.826,0.862-2.739c1.007-3.089,2.099-6.144,3.345-9.139c0.077-0.171,0.137-0.358,0.213-0.538     c1.399-3.302,2.978-6.511,4.668-9.668c0.256-0.486,0.529-0.973,0.794-1.459c3.558-6.443,7.706-12.553,12.399-18.253     c0.009-0.009,0.009-0.017,0.017-0.026c4.719-5.726,10.112-10.906,15.889-15.693c0.085-0.384,0.162-0.751,0.316-1.109     l5.717-51.345v-0.009v-0.009l5.692-51.2c0-0.008-0.009-0.008,0-0.017l2.21-19.874c0.956-8.653,8.252-15.181,16.964-15.181h90.701     c8.704,0,16.009,6.528,16.964,15.181l2.21,19.874v0.017l5.692,51.2v0.009v0.009l5.777,51.883     c-0.068-0.051-0.137-0.094-0.205-0.145l0.026,0.137c0.128,0.102,0.247,0.205,0.375,0.307c8.661,7.177,16.23,15.505,22.511,24.738     c0.265,0.393,0.521,0.785,0.785,1.186c1.732,2.611,3.362,5.291,4.89,8.038c0.341,0.614,0.691,1.212,1.015,1.826     c1.562,2.918,3.004,5.888,4.309,8.934c0.145,0.316,0.299,0.623,0.435,0.939c1.399,3.328,2.637,6.733,3.738,10.197     c0.256,0.836,0.469,1.698,0.717,2.543c0.76,2.586,1.442,5.197,2.022,7.842c0.273,1.212,0.503,2.432,0.725,3.652     c0.469,2.483,0.845,4.992,1.152,7.509c0.145,1.161,0.307,2.304,0.418,3.465c0.333,3.652,0.555,7.339,0.555,11.059     C418.133,298.132,417.911,301.81,417.579,305.462z M385.016,140.803l-3.797-34.133h19.849c9.762,0,18.526,5.419,22.895,14.148     l9.993,19.985H385.016z"/>
		</g>
	</g>
</g>
<g>
</g>
<g>
</g>
<g>
</g>
<g>
</g>
<g>
</g>
<g>
</g>
<g>
</g>
<g>
</g>
<g>
</g>
<g>
</g>
<g>
</g>
<g>
</g>
<g>
</g>
<g>
</g>
<g>
</g>
</svg>
