<?xml version="1.0" encoding="iso-8859-1"?>
<!-- Generator: Adobe Illustrator 19.0.0, SVG Export Plug-In . SVG Version: 6.00 Build 0)  -->
<svg xmlns="http://www.w3.org/2000/svg" xmlns:xlink="http://www.w3.org/1999/xlink" version="1.1" id="Layer_1" x="0px" y="0px" viewBox="0 0 511.929 511.929" style="enable-background:new 0 0 511.929 511.929;" xml:space="preserve">
<g>
	<g>
		<g>
			<path d="M307.2,200.498c-47.053,0-85.333,38.281-85.333,85.333c0,47.053,38.281,85.333,85.333,85.333     s85.333-38.281,85.333-85.333C392.533,238.778,354.253,200.498,307.2,200.498z M247.467,294.365     c-4.719,0-8.533-3.823-8.533-8.533c0-4.71,3.814-8.533,8.533-8.533s8.533,3.823,8.533,8.533     C256,290.542,252.186,294.365,247.467,294.365z M307.2,234.631c-18.116,0-34.526,9.276-43.895,24.823     c-1.596,2.654-4.42,4.13-7.313,4.13c-1.502,0-3.012-0.401-4.395-1.229c-4.036-2.432-5.342-7.671-2.901-11.716     c12.467-20.71,34.347-33.075,58.505-33.075c4.719,0,8.533,3.823,8.533,8.533C315.733,230.808,311.919,234.631,307.2,234.631z"/>
			<path d="M281.6,106.631h51.2c4.71,0,8.533-3.831,8.533-8.533c0-4.702-3.823-8.533-8.533-8.533h-51.2     c-4.71,0-8.533,3.831-8.533,8.533C273.067,102.8,276.89,106.631,281.6,106.631z"/>
			<path d="M452.267,388.231c0,9.412,7.654,17.067,17.067,17.067h38.323c1.178-10.419,2.082-21.956,2.748-34.133h-41.071     C459.921,371.164,452.267,378.819,452.267,388.231z M477.867,388.231c0,4.71-3.814,8.533-8.533,8.533s-8.533-3.823-8.533-8.533     s3.814-8.533,8.533-8.533S477.867,383.521,477.867,388.231z"/>
			<path d="M509.346,234.537c-2.005-25.941-13.85-49.451-32.512-66.423c0.606-3.43,1.033-6.869,1.033-10.283     c0-32.939-26.803-59.733-59.733-59.733c-8.516,0-16.742,1.937-24.388,5.393c-0.759-4.471-1.212-9.096-1.212-13.926     c0-28.237-22.963-51.2-51.2-51.2h-68.267c-28.237,0-51.2,22.963-51.2,51.2v1.98c0,10.342-2.27,19.78-6.554,27.29     c-3.507,6.144-7.27,8.994-13.722,10.249l-48.521,11.221c-6.639,1.536-12.612,4.685-17.57,9.02L128,149.34v-17.109     c0-9.412-7.654-17.067-17.067-17.067H76.8c-9.412,0-17.067,7.654-17.067,17.067v17.143c-15.94,0-30.925,6.195-42.206,17.459     C6.221,178.123,0,193.134,0,209.108v25.523v59.733v34.133v59.733v34.133v17.067c0,18.825,15.309,34.133,34.133,34.133H102.4     c12.843,0,23.91-7.211,29.73-17.715c1.417,0.384,2.867,0.648,4.403,0.648H486.4c2.355,0,5.854-0.725,9.062-4.207     c4.139-4.463,7.364-15.249,9.839-29.926h-35.968c-18.825,0-34.133-15.309-34.133-34.133c0-18.825,15.309-34.133,34.133-34.133     h41.856C512.717,312.046,511.77,265.795,509.346,234.537z M126.251,236.133c-4.437,8.542-6.784,18.159-6.784,27.802v175.497     c0,9.412-7.654,17.067-17.067,17.067H34.133c-9.412,0-17.067-7.654-17.067-17.067v-8.533h42.667c14.114,0,25.6-11.486,25.6-25.6     c0-14.114-11.486-25.6-25.6-25.6H17.067v-42.667h42.667c14.114,0,25.6-11.486,25.6-25.6s-11.486-25.6-25.6-25.6H17.067v-42.667     h42.667c14.114,0,25.6-11.486,25.6-25.6c0-14.114-11.486-25.6-25.6-25.6H20.719c2.108-4.796,5.052-9.242,8.866-13.047     c8.055-8.047,18.756-12.476,30.148-12.476h0.068l37.282,0.051l26.803-0.068c-2.756,7.765-3.072,16.06-0.973,23.936     c0.017,0.077,0.051,0.162,0.068,0.239c0.708,2.594,1.638,5.137,2.859,7.595C132.019,210.542,132.164,224.724,126.251,236.133z      M281.6,72.498h51.2c14.114,0,25.6,11.486,25.6,25.6c0,14.114-11.486,25.6-25.6,25.6h-51.2c-14.114,0-25.6-11.486-25.6-25.6     C256,83.984,267.486,72.498,281.6,72.498z M307.2,422.365c-75.281,0-136.533-61.252-136.533-136.533     c0-75.281,61.252-136.533,136.533-136.533s136.533,61.252,136.533,136.533C443.733,361.112,382.481,422.365,307.2,422.365z      M447.215,149.323c-8.499-3.541-17.007-7.083-25.506-10.624c-4.659-1.946-9.498-3.661-13.713-6.485     c-4.582-3.072-7.228-7.313-9.412-12.271c6.033-3.14,12.681-4.779,19.55-4.779c22.98,0,41.771,18.27,42.633,41.037     C456.465,153.616,451.959,151.295,447.215,149.323z"/>
			<path d="M307.2,166.365c-65.877,0-119.467,53.589-119.467,119.467S241.323,405.298,307.2,405.298s119.467-53.589,119.467-119.467     S373.077,166.365,307.2,166.365z M307.2,388.231c-56.465,0-102.4-45.935-102.4-102.4c0-56.465,45.935-102.4,102.4-102.4     s102.4,45.935,102.4,102.4C409.6,342.296,363.665,388.231,307.2,388.231z"/>
		</g>
	</g>
</g>
<g>
</g>
<g>
</g>
<g>
</g>
<g>
</g>
<g>
</g>
<g>
</g>
<g>
</g>
<g>
</g>
<g>
</g>
<g>
</g>
<g>
</g>
<g>
</g>
<g>
</g>
<g>
</g>
<g>
</g>
</svg>
