<?xml version="1.0" encoding="iso-8859-1"?>
<!-- Generator: Adobe Illustrator 19.0.0, SVG Export Plug-In . SVG Version: 6.00 Build 0)  -->
<svg xmlns="http://www.w3.org/2000/svg" xmlns:xlink="http://www.w3.org/1999/xlink" version="1.1" id="Layer_1" x="0px" y="0px" viewBox="0 0 512 512" style="enable-background:new 0 0 512 512;" xml:space="preserve">
<g>
	<g>
		<g>
			<path d="M266.575,235.687l-62.396,88.576h56.26c8.277-15.829,12.629-33.425,12.629-51.2c0-12.39-2.261-25.25-6.477-37.316     C266.584,235.73,266.584,235.704,266.575,235.687z"/>
			<polygon points="104.35,273.062 140.975,324.262 183.309,324.262 219.601,272.747 182.413,221.862 140.924,221.862    "/>
			<path d="M244.559,237.304l13.739-19.516c-10.249-17.732-25.173-32.435-43.187-42.231c-0.017-0.017-0.043-0.026-0.06-0.034     c-2.901-1.579-5.896-2.995-8.951-4.318c-0.375-0.162-0.734-0.333-1.109-0.486c-2.978-1.254-6.042-2.372-9.148-3.354     c-0.717-0.23-1.451-0.418-2.176-0.631c-2.381-0.708-4.813-1.323-7.262-1.877c-0.964-0.213-1.92-0.444-2.893-0.631     c-3.004-0.58-6.05-1.058-9.139-1.399c-0.862-0.094-1.732-0.137-2.594-0.205c-2.611-0.23-5.248-0.367-7.893-0.401     c-0.845-0.017-1.681-0.043-2.526-0.043c-0.461,0.009-0.905,0.06-1.365,0.077l69.982,95.761L244.559,237.304z"/>
			<path d="M153.184,341.333l29.15,40.755c0.418-0.077,0.853-0.111,1.271-0.196c1.399-0.273,2.773-0.64,4.147-0.964     c1.997-0.478,3.994-0.956,5.939-1.536c1.63-0.486,3.243-1.05,4.847-1.613c1.604-0.555,3.2-1.118,4.77-1.749     c1.792-0.717,3.558-1.502,5.308-2.313c1.314-0.614,2.637-1.237,3.925-1.894c1.826-0.939,3.618-1.92,5.393-2.953     c1.178-0.691,2.347-1.399,3.499-2.133c1.724-1.092,3.422-2.227,5.086-3.413c1.186-0.845,2.347-1.724,3.499-2.611     c1.502-1.169,2.987-2.355,4.429-3.593c1.297-1.109,2.543-2.27,3.78-3.43c1.195-1.126,2.389-2.253,3.541-3.43     c1.451-1.485,2.825-3.038,4.181-4.608c0.853-0.964,1.707-1.92,2.526-2.918c0.367-0.452,0.683-0.939,1.041-1.399h-61.781H153.184z     "/>
			<path d="M63.95,221.867c-0.614,1.169-1.161,2.372-1.724,3.567c-0.998,2.099-1.988,4.198-2.85,6.349     c-0.742,1.843-1.408,3.721-2.057,5.606c-0.631,1.835-1.195,3.678-1.724,5.538c-0.614,2.176-1.212,4.352-1.698,6.579     c-0.299,1.382-0.512,2.79-0.768,4.181c-1.109,6.306-1.801,12.757-1.801,19.379c0,11.29,1.715,22.178,4.864,32.444     c0.094,0.299,0.171,0.606,0.273,0.905c0.307,0.973,0.717,1.894,1.05,2.859l62.43-87.407H63.95z"/>
			<path d="M169.941,204.8l-12.51-17.118l-17.067-23.356c-3.703,0.742-7.347,1.664-10.914,2.765c-0.23,0.068-0.461,0.171-0.7,0.239     c-3.191,1.015-6.332,2.159-9.395,3.447c-0.265,0.111-0.521,0.239-0.785,0.35c-3.004,1.297-5.948,2.705-8.815,4.25     c-0.29,0.162-0.58,0.333-0.87,0.495c-2.765,1.519-5.444,3.157-8.064,4.898c-0.393,0.265-0.785,0.546-1.186,0.811     c-2.398,1.647-4.702,3.388-6.963,5.214c-0.589,0.478-1.169,0.956-1.758,1.451c-1.894,1.596-3.721,3.285-5.513,5.009     c-0.853,0.828-1.715,1.647-2.543,2.5c-1.331,1.374-2.594,2.816-3.857,4.25c-1.143,1.306-2.304,2.611-3.396,3.985     c-0.205,0.265-0.401,0.546-0.606,0.811h61.534H169.941z"/>
			<path d="M129.425,337.454l-35.55-49.715l-28.271,39.586c17.135,30.413,48.162,51.968,84.437,55.97     c0.606,0.06,1.22,0.119,1.826,0.179c3.422,0.316,6.886,0.529,10.394,0.529c0.137,0,0.282-0.026,0.418-0.026l-33.084-46.208     C129.527,337.667,129.493,337.556,129.425,337.454z"/>
			<path d="M452.267,110.933h-25.6V93.867c0-9.412-7.654-17.067-17.067-17.067h-34.133c-9.412,0-17.067,7.654-17.067,17.067v17.067     h-85.333c-22.144,0-42.487-2.961-60.476-8.789c-15.718-5.103-35.115-8.277-50.637-8.277c-15.531,0-34.927,3.174-50.645,8.277     l-8.124,2.688c-13.628,4.565-18.21,6.101-34.918,6.101h-8.533C26.803,110.933,0,137.728,0,170.667v204.8     C0,408.405,26.803,435.2,59.733,435.2h328.354l-2.543-3.644c-0.213-0.29-0.393-0.597-0.563-0.922     c-22.972-43.682-35.115-98.167-35.115-157.568c0-53.897,10.095-103.654,29.107-145.067h18.876     c-20.079,40.073-30.916,90.223-30.916,145.067c0,56.422,11.375,107.989,32.896,149.154l9.088,12.979h43.349     c32.93,0,59.733-26.795,59.733-59.733v-204.8C512,137.728,485.197,110.933,452.267,110.933z M289.894,280.252     c-0.026,0.538-0.043,1.075-0.085,1.613c-3.328,48.623-35.2,92.109-80.486,110.106c-0.64,0.256-1.289,0.504-1.929,0.742     c-46.481,17.579-100.565,6.076-135.62-29.116c-8.474-8.508-15.735-18.219-21.53-28.732c-0.29-0.529-0.597-1.05-0.879-1.587     c-0.478-0.896-1.007-1.758-1.476-2.697c-0.606-1.203-1.024-2.449-1.587-3.669c-1.067-2.278-2.082-4.565-3.012-6.912     c-0.87-2.193-1.681-4.395-2.423-6.613c-0.614-1.843-1.161-3.703-1.69-5.572c-0.776-2.714-1.519-5.427-2.108-8.183     c-0.239-1.126-0.393-2.278-0.606-3.413c-1.417-7.603-2.33-15.3-2.33-23.151c0-12.834,2.022-25.566,5.828-37.777     c0.034-0.145,0.085-0.29,0.128-0.435c2.398-7.62,5.53-15.027,9.335-22.118c0.196-0.367,0.393-0.742,0.589-1.109     c0.478-0.853,0.896-1.724,1.382-2.569c0.239-0.401,0.555-0.734,0.947-1.254c1.937-3.243,3.994-6.4,6.195-9.455     c0.785-1.092,1.596-2.15,2.406-3.209c1.809-2.338,3.686-4.608,5.649-6.827c1.237-1.408,2.475-2.799,3.772-4.147     c1.553-1.596,3.166-3.115,4.804-4.634c1.741-1.638,3.464-3.294,5.299-4.821c0.981-0.819,2.031-1.553,3.038-2.347     c37.316-29.244,90.018-35.302,132.941-15.232c15.667,7.322,29.841,17.818,41.335,30.754     c17.041,19.174,28.075,43.571,31.42,69.001c0.7,5.359,1.058,10.769,1.058,16.179C290.261,275.49,290.022,277.862,289.894,280.252     z M387.831,110.933h-12.365V93.867H409.6v17.067h-1.673H387.831z M469.333,358.4c0,18.825-15.309,34.133-34.133,34.133     c-18.825,0-34.133-15.309-34.133-34.133V187.733c0-18.825,15.309-34.133,34.133-34.133c18.825,0,34.133,15.309,34.133,34.133     V358.4z"/>
			<path d="M435.2,170.667c-9.412,0-17.067,7.654-17.067,17.067V358.4c0,9.412,7.654,17.067,17.067,17.067     s17.067-7.654,17.067-17.067V187.733C452.267,178.321,444.612,170.667,435.2,170.667z M435.2,358.4     c-4.719,0-8.533-3.823-8.533-8.533s3.814-8.533,8.533-8.533s8.533,3.823,8.533,8.533S439.919,358.4,435.2,358.4z M435.2,204.8     c-4.719,0-8.533-3.823-8.533-8.533s3.814-8.533,8.533-8.533s8.533,3.823,8.533,8.533S439.919,204.8,435.2,204.8z"/>
		</g>
	</g>
</g>
<g>
</g>
<g>
</g>
<g>
</g>
<g>
</g>
<g>
</g>
<g>
</g>
<g>
</g>
<g>
</g>
<g>
</g>
<g>
</g>
<g>
</g>
<g>
</g>
<g>
</g>
<g>
</g>
<g>
</g>
</svg>
