<?xml version="1.0" encoding="iso-8859-1"?>
<!-- Generator: Adobe Illustrator 19.0.0, SVG Export Plug-In . SVG Version: 6.00 Build 0)  -->
<svg xmlns="http://www.w3.org/2000/svg" xmlns:xlink="http://www.w3.org/1999/xlink" version="1.1" id="Layer_1" x="0px" y="0px" viewBox="0 0 512 512" style="enable-background:new 0 0 512 512;" xml:space="preserve">
<g>
	<g>
		<g>
			<circle cx="42.667" cy="247.467" r="8.533"/>
			<circle cx="76.8" cy="315.733" r="8.533"/>
			<path d="M469.333,256c4.719,0,8.533-3.823,8.533-8.533s-3.814-8.533-8.533-8.533s-8.533,3.823-8.533,8.533     S464.614,256,469.333,256z"/>
			<path d="M435.2,324.267c4.719,0,8.533-3.823,8.533-8.533s-3.814-8.533-8.533-8.533s-8.533,3.823-8.533,8.533     S430.481,324.267,435.2,324.267z"/>
			<path d="M459.989,102.955c-3.746-19.712-21.06-34.688-41.856-34.688c-20.608,0-37.837,14.686-41.805,34.133h-9.574     c-21.905,0-42.129-2.961-60.109-8.789c-15.718-5.103-35.123-8.277-50.645-8.277c-15.522,0-34.927,3.174-50.645,8.277     c-17.98,5.828-38.204,8.789-60.109,8.789h-0.179V85.333c0-9.412-7.654-17.067-17.067-17.067H93.867     c-9.412,0-17.067,7.654-17.067,17.067V102.4H59.733C26.795,102.4,0,129.195,0,162.133v55.714v127.505v21.581     c0,32.939,26.795,59.733,59.733,59.733h124.288c21.726,10.82,46.114,17.067,71.979,17.067c25.865,0,50.253-6.246,71.979-17.067     h124.288c32.93,0,59.733-26.795,59.733-59.733v-21.581V217.847v-55.714C512,131.823,489.284,106.769,459.989,102.955z      M17.067,225.459c28.194-3.14,58.325-5.709,89.847-7.654c-0.085,0.205-0.145,0.427-0.23,0.631     c-0.973,2.304-1.732,4.71-2.603,7.066c-0.956,2.594-2.031,5.137-2.85,7.774c-4.779,15.266-7.364,31.497-7.364,48.324     c0,5.128,0.299,10.189,0.768,15.223c0.068,0.683,0.111,1.374,0.179,2.048c0.512,4.821,1.263,9.574,2.185,14.276     c0.145,0.708,0.282,1.417,0.435,2.125c1.016,4.813,2.227,9.557,3.669,14.225c0.068,0.239,0.154,0.469,0.23,0.717     c1.613,5.154,3.456,10.231,5.572,15.181c-31.556-1.954-61.687-4.523-89.839-7.654V225.459z M59.733,409.6     c-23.526,0-42.667-19.14-42.667-42.667V354.85c30.857,3.405,63.949,6.153,98.714,8.149c9.421,16.196,21.666,30.72,36.301,42.897     c0.631,0.521,1.263,1.041,1.894,1.553c0.879,0.708,1.724,1.451,2.628,2.15H59.733z M256,409.6     c-59.025,0-108.698-40.209-123.435-94.635c-0.393-0.836-0.572-1.715-0.674-2.62c-2.449-9.873-3.891-20.13-3.891-30.746     c0-23.074,6.221-44.681,16.947-63.394c0.239-0.589,0.623-1.067,0.973-1.587c16.742-28.254,43.981-49.502,76.365-58.368     c0.009,0,0.017,0,0.026-0.009c10.76-2.935,22.016-4.642,33.69-4.642c23.142,0,44.809,6.263,63.565,17.058     c0.384,0.154,0.683,0.418,1.033,0.623C358.46,193.545,384,234.598,384,281.6C384,352.179,326.579,409.6,256,409.6z      M494.933,366.933c0,23.526-19.14,42.667-42.667,42.667h-96.87c0.905-0.7,1.749-1.442,2.628-2.15     c0.631-0.512,1.263-1.033,1.894-1.553c14.635-12.177,26.88-26.701,36.301-42.897c34.765-1.997,67.849-4.745,98.714-8.149V366.933     z M494.933,337.741c-28.16,3.132-58.283,5.7-89.83,7.654c2.116-4.949,3.951-10.027,5.564-15.181     c0.077-0.247,0.162-0.478,0.23-0.717c1.442-4.668,2.654-9.412,3.669-14.225c0.154-0.708,0.29-1.417,0.435-2.125     c0.922-4.702,1.673-9.455,2.185-14.276c0.068-0.674,0.111-1.365,0.171-2.048c0.478-5.035,0.777-10.095,0.777-15.223     c0-16.828-2.586-33.067-7.364-48.341c-0.777-2.483-1.792-4.873-2.688-7.313c-0.922-2.509-1.732-5.069-2.765-7.509     c-0.094-0.205-0.145-0.427-0.23-0.631c31.522,1.946,61.653,4.514,89.847,7.654V337.741z M494.933,208.35     c-30.967-3.413-64.137-6.17-98.944-8.158c-28.134-48.188-80.273-80.725-139.989-80.725c-59.716,0-111.855,32.538-139.989,80.725     c-34.807,1.988-67.977,4.745-98.944,8.158v-46.216c0-23.526,19.14-42.667,42.667-42.667h25.6h51.2h8.713     c23.697,0,45.688-3.234,65.374-9.626c14.14-4.591,31.522-7.441,45.38-7.441s31.241,2.85,45.38,7.441     c19.686,6.391,41.677,9.626,65.374,9.626H384h68.267c23.526,0,42.667,19.14,42.667,42.667V208.35z"/>
			<path d="M68.267,136.533H51.2c-9.412,0-17.067,7.654-17.067,17.067v17.067c0,9.412,7.654,17.067,17.067,17.067h17.067     c9.412,0,17.067-7.654,17.067-17.067V153.6C85.333,144.188,77.679,136.533,68.267,136.533z"/>
			<path d="M265.191,231.271c7.671,1.399,14.729,4.514,20.804,8.926c19.644-15.514,45.833-18.842,68.267-9.916     c-9.31-17.741-23.287-32.597-40.277-43.076C289.52,188.391,268.912,207.438,265.191,231.271z"/>
			<path d="M247.946,231.095c2.833-24.892,18.961-45.79,41.097-55.398c-10.436-3.268-21.538-5.035-33.041-5.035     c-8.883,0-17.476,1.169-25.762,3.149c-16.623,18.159-17.732,46.225-3.413,65.766     C233.013,235.268,240.189,232.333,247.946,231.095z"/>
			<path d="M213.8,310.533c-4.215-6.127-7.091-13.227-8.303-20.881c-15.309-1.741-29.568-8.576-40.789-19.763     c-6.281-6.263-11.17-13.5-14.609-21.333c-3.268,10.436-5.035,21.538-5.035,33.041c0,8.789,1.135,17.297,3.081,25.498     c9.412,8.636,21.623,13.466,34.739,13.542C194.301,320.492,204.943,316.976,213.8,310.533z"/>
			<path d="M279.942,257.591c-0.179-0.179-0.239-0.401-0.393-0.589c-6.135-5.88-14.404-9.54-23.552-9.54     c-18.816,0-34.133,15.317-34.133,34.133c0,18.825,15.317,34.133,34.133,34.133c9.336,0,17.792-3.772,23.962-9.865     c0.009-0.017,0.009-0.034,0.026-0.043c0.026-0.026,0.068-0.034,0.094-0.06c6.204-6.187,10.052-14.729,10.052-24.166     c0-9.165-3.669-17.451-9.574-23.595C280.369,257.839,280.121,257.771,279.942,257.591z"/>
			<path d="M363.954,256.47c-18.065-16.802-46.165-18.057-65.801-3.866c4.25,6.161,7.142,13.303,8.354,21.001     c15.317,1.86,29.551,8.815,40.687,20.113c6.255,6.349,11.102,13.653,14.481,21.555c3.388-10.624,5.257-21.931,5.257-33.673     C366.932,272.94,365.84,264.551,363.954,256.47z"/>
			<path d="M205.671,272.421c1.382-7.595,4.437-14.583,8.781-20.625c-15.65-19.558-19.089-45.73-10.291-68.198     c-17.562,9.327-32.256,23.262-42.633,40.149C162.774,248.186,181.838,268.743,205.671,272.421z"/>
			<path d="M306.319,290.835c-1.417,7.757-4.599,14.891-9.105,21.018c9.489,12.134,14.618,27.093,14.507,42.923     c-0.06,8.866-1.792,17.417-4.949,25.353c17.758-9.19,32.674-23.031,43.238-39.91c-0.444-12.902-5.675-25.096-14.968-34.517     C327.106,297.653,317.096,292.559,306.319,290.835z"/>
			<path d="M246.775,331.925c-7.68-1.408-14.754-4.531-20.83-8.969c-12.058,9.54-26.957,14.746-42.743,14.746h-0.418     c-8.747-0.051-17.203-1.741-25.062-4.821c9.216,17.579,23.006,32.333,39.782,42.803c12.877-0.478,25.045-5.717,34.441-15.01     C239.991,352.73,245.068,342.711,246.775,331.925z"/>
			<path d="M264.004,332.108c-1.843,15.309-8.781,29.551-20.062,40.704c-6.332,6.255-13.628,11.119-21.513,14.498     c10.598,3.371,21.871,5.222,33.57,5.222c8.482,0,16.717-1.05,24.661-2.859c16.811-17.988,18.193-46.046,4.079-65.732     C278.639,328.097,271.59,330.913,264.004,332.108z"/>
		</g>
	</g>
</g>
<g>
</g>
<g>
</g>
<g>
</g>
<g>
</g>
<g>
</g>
<g>
</g>
<g>
</g>
<g>
</g>
<g>
</g>
<g>
</g>
<g>
</g>
<g>
</g>
<g>
</g>
<g>
</g>
<g>
</g>
</svg>
