<?xml version="1.0" encoding="iso-8859-1"?>
<!-- Generator: Adobe Illustrator 19.0.0, SVG Export Plug-In . SVG Version: 6.00 Build 0)  -->
<svg xmlns="http://www.w3.org/2000/svg" xmlns:xlink="http://www.w3.org/1999/xlink" version="1.1" id="Layer_1" x="0px" y="0px" viewBox="0 0 512 512" style="enable-background:new 0 0 512 512;" xml:space="preserve">
<g>
	<g>
		<g>
			<path d="M256,384c63.164,0,116.941-51.814,119.313-114.995c1.126-30.08-9.634-60.254-29.431-82.918     c-21.914-25.079-54.042-41.02-89.882-41.02c-63.821,0-117.914,52.864-119.373,116.736c-0.614,26.615,8.081,53.171,24.03,74.428     c1.749,2.33,3.584,4.599,5.504,6.801C188.083,368.077,220.177,384,256,384z M153.6,264.533c0-56.465,45.935-102.4,102.4-102.4     s102.4,45.935,102.4,102.4s-45.935,102.4-102.4,102.4S153.6,320.998,153.6,264.533z"/>
			<path d="M256,349.867c47.053,0,85.333-38.281,85.333-85.333S303.053,179.2,256,179.2s-85.333,38.281-85.333,85.333     S208.947,349.867,256,349.867z M256,221.867c23.526,0,42.667,19.14,42.667,42.667c0,23.526-19.14,42.667-42.667,42.667     c-23.526,0-42.667-19.14-42.667-42.667C213.333,241.007,232.474,221.867,256,221.867z"/>
			<path d="M347.579,365.5c-24.252,22.016-56.32,35.567-91.58,35.567c-35.26,0-67.328-13.551-91.58-35.567     c-6.972,22.699-16.623,44.715-29.099,65.553c-0.154,0.247-0.316,0.495-0.495,0.734l-2.56,3.413h247.006l-2.509-4.011     C364.21,410.24,354.559,388.207,347.579,365.5z"/>
			<path d="M459.989,111.488c-3.746-19.721-21.06-34.688-41.856-34.688c-20.608,0-37.837,14.686-41.805,34.133h-5.666h-3.908     c-21.905,0-42.129-2.961-60.109-8.789c-15.718-5.103-35.123-8.277-50.645-8.277c-15.522,0-34.927,3.174-50.645,8.277     c-17.98,5.828-38.204,8.789-60.288,8.789V93.867c0-9.412-7.654-17.067-17.067-17.067H93.867c-9.412,0-17.067,7.654-17.067,17.067     v17.067H59.733C26.795,110.933,0,137.728,0,170.667v204.8C0,408.405,26.795,435.2,59.733,435.2h51.2l9.967-13.295     c7.373-12.348,13.824-25.242,19.243-38.562c4.454-10.948,14.191-27.187,6.281-37.794c-16.384-21.956-25.873-48.99-26.812-76.365     c-1.135-32.922,10.206-66.253,31.241-91.631c-5.112-18.415-12.826-35.584-19.661-49.553h5.342h13.585     c4.966,10.633,10.095,22.673,14.293,35.567C188.663,141.551,220.74,128,256,128c35.277,0,67.371,13.559,91.622,35.601     c4.215-13.013,9.327-25.028,14.259-35.601h18.901c-6.613,13.508-14.362,30.729-19.593,49.604     c-0.555,2.014,11.17,15.735,12.826,18.586c4.326,7.45,7.927,15.334,10.76,23.475c5.803,16.631,8.397,34.389,7.484,51.985     c-1.51,28.988-12.587,57.523-31.13,79.88c6.63,24.576,16.777,48.35,30.191,70.75l8.073,12.919h52.872     c32.939,0,59.733-26.795,59.733-59.733v-204.8C512,140.356,489.284,115.302,459.989,111.488z M68.267,358.4     c-4.71,0-8.533-3.823-8.533-8.533s3.823-8.533,8.533-8.533s8.533,3.823,8.533,8.533S72.977,358.4,68.267,358.4z M68.267,324.267     c-4.71,0-8.533-3.823-8.533-8.533s3.823-8.533,8.533-8.533s8.533,3.823,8.533,8.533S72.977,324.267,68.267,324.267z      M68.267,290.133c-4.71,0-8.533-3.823-8.533-8.533c0-4.71,3.823-8.533,8.533-8.533S76.8,276.89,76.8,281.6     C76.8,286.31,72.977,290.133,68.267,290.133z M68.267,256c-4.71,0-8.533-3.823-8.533-8.533s3.823-8.533,8.533-8.533     s8.533,3.823,8.533,8.533S72.977,256,68.267,256z M68.267,221.867c-4.71,0-8.533-3.823-8.533-8.533s3.823-8.533,8.533-8.533     s8.533,3.823,8.533,8.533S72.977,221.867,68.267,221.867z M68.267,187.733c-4.71,0-8.533-3.823-8.533-8.533     c0-4.71,3.823-8.533,8.533-8.533S76.8,174.49,76.8,179.2C76.8,183.91,72.977,187.733,68.267,187.733z M128,110.933h-5.274h-3.26     h-25.6V93.867H128V110.933z M393.993,110.933c3.524-9.933,13.013-17.067,24.141-17.067c11.127,0,20.617,7.134,24.141,17.067     H393.993z M443.733,358.4c-4.71,0-8.533-3.823-8.533-8.533s3.823-8.533,8.533-8.533s8.533,3.823,8.533,8.533     S448.444,358.4,443.733,358.4z M443.733,324.267c-4.71,0-8.533-3.823-8.533-8.533s3.823-8.533,8.533-8.533     s8.533,3.823,8.533,8.533S448.444,324.267,443.733,324.267z M443.733,290.133c-4.71,0-8.533-3.823-8.533-8.533     c0-4.71,3.823-8.533,8.533-8.533s8.533,3.823,8.533,8.533C452.267,286.31,448.444,290.133,443.733,290.133z M443.733,256     c-4.71,0-8.533-3.823-8.533-8.533s3.823-8.533,8.533-8.533s8.533,3.823,8.533,8.533S448.444,256,443.733,256z M443.733,221.867     c-4.71,0-8.533-3.823-8.533-8.533s3.823-8.533,8.533-8.533s8.533,3.823,8.533,8.533S448.444,221.867,443.733,221.867z      M443.733,187.733c-4.71,0-8.533-3.823-8.533-8.533c0-4.71,3.823-8.533,8.533-8.533s8.533,3.823,8.533,8.533     C452.267,183.91,448.444,187.733,443.733,187.733z"/>
			<path d="M256,290.133c14.114,0,25.6-11.486,25.6-25.6c0-14.114-11.486-25.6-25.6-25.6s-25.6,11.486-25.6,25.6     C230.4,278.647,241.886,290.133,256,290.133z"/>
		</g>
	</g>
</g>
<g>
</g>
<g>
</g>
<g>
</g>
<g>
</g>
<g>
</g>
<g>
</g>
<g>
</g>
<g>
</g>
<g>
</g>
<g>
</g>
<g>
</g>
<g>
</g>
<g>
</g>
<g>
</g>
<g>
</g>
</svg>
