<?xml version="1.0" encoding="iso-8859-1"?>
<!-- Generator: Adobe Illustrator 19.0.0, SVG Export Plug-In . SVG Version: 6.00 Build 0)  -->
<svg xmlns="http://www.w3.org/2000/svg" xmlns:xlink="http://www.w3.org/1999/xlink" version="1.1" id="Layer_1" x="0px" y="0px" viewBox="0 0 512 512" style="enable-background:new 0 0 512 512;" xml:space="preserve">
<g>
	<g>
		<g>
			<path d="M409.6,273.067c0-57.993,16.06-115.686,44.075-158.285l2.594-3.644c-1.331-0.094-2.654-0.205-4.002-0.205h-85.513     c-21.905,0-42.129-2.961-60.109-8.789c-15.718-5.103-35.123-8.277-50.645-8.277c-15.522,0-34.927,3.174-50.645,8.277     c-17.98,5.828-38.204,8.789-60.109,8.789h-0.179V93.867c0-9.412-7.654-17.067-17.067-17.067H93.867     c-9.412,0-17.067,7.654-17.067,17.067v17.067H59.733c-1.297,0-2.56,0.111-3.84,0.196l2.406,3.601     c28.041,42.65,44.1,100.344,44.1,158.336S86.34,388.753,58.325,431.352l-2.432,3.652c1.28,0.085,2.543,0.196,3.84,0.196h392.533     c1.348,0,2.671-0.111,3.994-0.205l-2.406-3.371C425.66,388.753,409.6,331.059,409.6,273.067z M256,401.067     c-75.281,0-136.533-61.252-136.533-136.533S180.719,128,256,128s136.533,61.252,136.533,136.533S331.281,401.067,256,401.067z"/>
			<path d="M256,145.067c-65.877,0-119.467,53.589-119.467,119.467S190.123,384,256,384s119.467-53.589,119.467-119.467     S321.877,145.067,256,145.067z M256,366.933c-56.465,0-102.4-45.935-102.4-102.4s45.935-102.4,102.4-102.4     s102.4,45.935,102.4,102.4S312.465,366.933,256,366.933z"/>
			<path d="M474.325,115.209l-6.579,9.216c-26.035,39.62-41.079,93.892-41.079,148.642s15.044,109.022,41.259,148.915l6.4,8.951     C496.367,422.127,512,400.606,512,375.467v-204.8C512,145.527,496.367,124.006,474.325,115.209z M469.333,349.867     c0,4.71-3.823,8.533-8.533,8.533s-8.533-3.823-8.533-8.533v-153.6c0-4.71,3.823-8.533,8.533-8.533s8.533,3.823,8.533,8.533     V349.867z"/>
			<path d="M256,179.2c-47.053,0-85.333,38.281-85.333,85.333s38.281,85.333,85.333,85.333s85.333-38.281,85.333-85.333     S303.053,179.2,256,179.2z M196.267,273.067c-4.71,0-8.533-3.823-8.533-8.533s3.823-8.533,8.533-8.533s8.533,3.823,8.533,8.533     S200.977,273.067,196.267,273.067z M256,213.333c-19.669,0-37.828,11.486-46.276,29.261c-1.459,3.081-4.523,4.873-7.714,4.873     c-1.229,0-2.475-0.265-3.652-0.828c-4.258-2.022-6.067-7.108-4.045-11.366c11.255-23.697,35.473-39.006,61.687-39.006     c4.71,0,8.533,3.823,8.533,8.533S260.71,213.333,256,213.333z"/>
			<path d="M44.075,124.151l-6.05-9.071C15.804,123.793,0,145.399,0,170.667v204.8c0,25.267,15.804,46.874,38.025,55.586     l6.076-9.122c26.189-39.842,41.233-94.114,41.233-148.864S70.289,164.045,44.075,124.151z M51.2,358.4     c-4.71,0-8.533-3.823-8.533-8.533v-153.6c0-4.71,3.823-8.533,8.533-8.533s8.533,3.823,8.533,8.533v153.6     C59.733,354.577,55.91,358.4,51.2,358.4z"/>
		</g>
	</g>
</g>
<g>
</g>
<g>
</g>
<g>
</g>
<g>
</g>
<g>
</g>
<g>
</g>
<g>
</g>
<g>
</g>
<g>
</g>
<g>
</g>
<g>
</g>
<g>
</g>
<g>
</g>
<g>
</g>
<g>
</g>
</svg>
