<?xml version="1.0" encoding="iso-8859-1"?>
<!-- Generator: Adobe Illustrator 19.0.0, SVG Export Plug-In . SVG Version: 6.00 Build 0)  -->
<svg xmlns="http://www.w3.org/2000/svg" xmlns:xlink="http://www.w3.org/1999/xlink" version="1.1" id="Layer_1" x="0px" y="0px" viewBox="0 0 512 512" style="enable-background:new 0 0 512 512;" xml:space="preserve">
<g>
	<g>
		<g>
			<path d="M256,366.933c56.465,0,102.4-45.935,102.4-102.4s-45.935-102.4-102.4-102.4s-102.4,45.935-102.4,102.4     S199.535,366.933,256,366.933z M256,179.2c47.053,0,85.333,38.281,85.333,85.333S303.053,349.867,256,349.867     s-85.333-38.281-85.333-85.333S208.947,179.2,256,179.2z"/>
			<polygon points="56.475,179.2 119.468,179.2 119.468,162.133 65.009,162.133    "/>
			<path d="M93.867,238.933H59.733c-4.702,0-8.533,3.831-8.533,8.533V281.6c0,4.702,3.831,8.533,8.533,8.533h34.133     c4.702,0,8.533-3.831,8.533-8.533v-34.133C102.4,242.765,98.569,238.933,93.867,238.933z"/>
			<path d="M329.66,170.667c11.58,9.105,21.393,20.301,28.962,33.024c0.572-4.164,3.994-7.424,8.311-7.424     c4.71,0,8.533,3.823,8.533,8.533s-3.823,8.533-8.533,8.533c-1.28,0-2.466-0.324-3.558-0.828     c4.053,8.328,7.228,17.161,9.259,26.428H512v-68.267H329.66z M401.067,213.333c-4.71,0-8.533-3.823-8.533-8.533     s3.823-8.533,8.533-8.533s8.533,3.823,8.533,8.533S405.777,213.333,401.067,213.333z M435.2,213.333     c-4.71,0-8.533-3.823-8.533-8.533s3.823-8.533,8.533-8.533s8.533,3.823,8.533,8.533S439.91,213.333,435.2,213.333z      M469.333,213.333c-4.71,0-8.533-3.823-8.533-8.533s3.823-8.533,8.533-8.533s8.533,3.823,8.533,8.533     S474.044,213.333,469.333,213.333z"/>
			<path d="M170.667,435.2h68.267v-52.565c-26.564-3.823-50.338-16.324-68.267-34.654V435.2z M204.8,384     c4.71,0,8.533,3.823,8.533,8.533s-3.823,8.533-8.533,8.533c-4.71,0-8.533-3.823-8.533-8.533S200.09,384,204.8,384z"/>
			<path d="M375.467,264.533C375.467,330.411,321.877,384,256,384v51.2h196.267c32.939,0,59.733-26.795,59.733-59.733V256H375.031     C375.236,258.833,375.467,261.658,375.467,264.533z M392.533,375.467H460.8c4.71,0,8.533,3.823,8.533,8.533     s-3.823,8.533-8.533,8.533h-68.267c-4.71,0-8.533-3.823-8.533-8.533S387.823,375.467,392.533,375.467z"/>
			<path d="M256,145.067c15.582,0,30.43,3.081,44.092,8.533h209.391c-7.364-24.644-30.208-42.667-57.216-42.667h-307.2V93.867     c0-9.412-7.654-17.067-17.067-17.067H93.867c-9.412,0-17.067,7.654-17.067,17.067v17.067H59.733     C26.795,110.933,0,137.728,0,170.667v204.8C0,408.405,26.795,435.2,59.733,435.2H153.6V325.751     c-10.761-17.929-17.067-38.827-17.067-61.218C136.533,198.656,190.123,145.067,256,145.067z M119.467,281.6     c0,14.114-11.486,25.6-25.6,25.6H59.733c-14.114,0-25.6-11.486-25.6-25.6v-34.133c0-14.114,11.486-25.6,25.6-25.6h34.133     c14.114,0,25.6,11.486,25.6,25.6V281.6z M128,196.267H42.667c-2.961,0-5.7-1.536-7.262-4.045     c-1.553-2.517-1.69-5.658-0.375-8.303l17.067-34.133c1.451-2.893,4.403-4.719,7.637-4.719H128c4.71,0,8.533,3.823,8.533,8.533     v34.133C136.533,192.444,132.71,196.267,128,196.267z"/>
			<path d="M256,332.8c37.641,0,68.267-30.626,68.267-68.267c0-37.641-30.626-68.267-68.267-68.267     c-37.641,0-68.267,30.626-68.267,68.267C187.733,302.174,218.359,332.8,256,332.8z M204.8,264.533     c0-28.237,22.963-51.2,51.2-51.2c4.71,0,8.533,3.823,8.533,8.533c0,4.71-3.823,8.533-8.533,8.533     c-18.825,0-34.133,15.309-34.133,34.133c0,4.71-3.823,8.533-8.533,8.533C208.623,273.067,204.8,269.244,204.8,264.533z"/>
		</g>
	</g>
</g>
<g>
</g>
<g>
</g>
<g>
</g>
<g>
</g>
<g>
</g>
<g>
</g>
<g>
</g>
<g>
</g>
<g>
</g>
<g>
</g>
<g>
</g>
<g>
</g>
<g>
</g>
<g>
</g>
<g>
</g>
</svg>
