<?xml version="1.0" encoding="iso-8859-1"?>
<!-- Generator: Adobe Illustrator 19.0.0, SVG Export Plug-In . SVG Version: 6.00 Build 0)  -->
<svg xmlns="http://www.w3.org/2000/svg" xmlns:xlink="http://www.w3.org/1999/xlink" version="1.1" id="Layer_1" x="0px" y="0px" viewBox="0 0 512 512" style="enable-background:new 0 0 512 512;" xml:space="preserve">
<g>
	<g>
		<g>
			<path d="M102.4,221.867c0,14.114,11.486,25.6,25.6,25.6s25.6-11.486,25.6-25.6s-11.486-25.6-25.6-25.6     S102.4,207.753,102.4,221.867z"/>
			<path d="M349.867,213.333c-32.93,0-59.733,26.795-59.733,59.733s26.803,59.733,59.733,59.733     c32.93,0,59.733-26.795,59.733-59.733S382.797,213.333,349.867,213.333z M315.733,281.6c-4.719,0-8.533-3.823-8.533-8.533     s3.814-8.533,8.533-8.533s8.533,3.823,8.533,8.533S320.452,281.6,315.733,281.6z M349.867,247.467     c-6.238,0-12.262,2.27-16.922,6.4c-1.63,1.425-3.644,2.133-5.658,2.133c-2.355,0-4.702-0.973-6.4-2.884     c-3.115-3.533-2.782-8.926,0.751-12.049c7.791-6.878,17.818-10.667,28.228-10.667c4.719,0,8.533,3.823,8.533,8.533     C358.4,243.644,354.586,247.467,349.867,247.467z"/>
			<path d="M170.667,341.333v-17.067c0-4.702-3.823-8.533-8.533-8.533H128H93.867c-4.71,0-8.533,3.831-8.533,8.533v17.067     c0,4.702,3.823,8.533,8.533,8.533H128h34.133C166.844,349.867,170.667,346.035,170.667,341.333z M128,341.333     c-4.719,0-8.533-3.823-8.533-8.533s3.814-8.533,8.533-8.533s8.533,3.823,8.533,8.533S132.719,341.333,128,341.333z"/>
			<path d="M349.867,179.2c-51.755,0-93.867,42.112-93.867,93.867s42.112,93.867,93.867,93.867     c51.755,0,93.867-42.112,93.867-93.867S401.621,179.2,349.867,179.2z M349.867,349.867c-42.351,0-76.8-34.458-76.8-76.8     s34.449-76.8,76.8-76.8s76.8,34.458,76.8,76.8S392.218,349.867,349.867,349.867z"/>
			<path d="M68.267,341.333v-17.067c0-14.114,11.486-25.6,25.6-25.6h25.6v-34.995c-19.447-3.968-34.133-21.197-34.133-41.805     c0-20.608,14.686-37.837,34.133-41.805v-69.128h-76.8C19.14,110.933,0,130.074,0,153.6v238.933     C0,416.06,19.14,435.2,42.667,435.2h76.8v-68.267h-25.6C79.753,366.933,68.267,355.447,68.267,341.333z"/>
			<path d="M469.333,110.933h-25.6V93.867c0-9.412-7.654-17.067-17.067-17.067h-34.133c-9.412,0-17.067,7.654-17.067,17.067v17.067     h-102.4v25.6c0,14.114-11.486,25.6-25.6,25.6h-51.2c-14.114,0-25.6-11.486-25.6-25.6v-25.6h-34.133c0,0,0,69.128,0.026,69.137     c0.154,0.026,0.29,0.094,0.444,0.128c12.928,2.79,24.286,12.049,29.756,24.073c4.719,10.377,5.018,22.665,0.828,33.254     c-5.146,12.979-16.939,23.066-30.583,26.01c-0.154,0.034-0.29,0.102-0.469,0.137v34.995h25.6c14.114,0,25.6,11.486,25.6,25.6     v17.067c0,14.114-11.486,25.6-25.6,25.6h-25.6V435.2h332.8c23.526,0,42.667-19.14,42.667-42.667V153.6     C512,130.074,492.86,110.933,469.333,110.933z M349.867,384c-61.167,0-110.933-49.766-110.933-110.933     S288.7,162.133,349.867,162.133S460.8,211.9,460.8,273.067S411.034,384,349.867,384z"/>
			<path d="M196.267,145.067h51.2c4.71,0,8.533-3.831,8.533-8.533v-25.6h-68.267v25.6     C187.733,141.235,191.556,145.067,196.267,145.067z"/>
		</g>
	</g>
</g>
<g>
</g>
<g>
</g>
<g>
</g>
<g>
</g>
<g>
</g>
<g>
</g>
<g>
</g>
<g>
</g>
<g>
</g>
<g>
</g>
<g>
</g>
<g>
</g>
<g>
</g>
<g>
</g>
<g>
</g>
</svg>
