<?xml version="1.0" encoding="iso-8859-1"?>
<!-- Generator: Adobe Illustrator 19.0.0, SVG Export Plug-In . SVG Version: 6.00 Build 0)  -->
<svg xmlns="http://www.w3.org/2000/svg" xmlns:xlink="http://www.w3.org/1999/xlink" version="1.1" id="Layer_1" x="0px" y="0px" viewBox="0 0 512 512" style="enable-background:new 0 0 512 512;" xml:space="preserve">
<g>
	<g>
		<g>
			<path d="M503.467,179.2v-8.533c0-32.939-26.795-59.733-59.733-59.733H435.2V102.4c0-14.114-11.486-25.6-25.6-25.6h-51.2     c-14.114,0-25.6,11.486-25.6,25.6v8.533h-51.2V102.4c0-4.71-3.823-8.533-8.533-8.533c-4.71,0-8.533,3.823-8.533,8.533v8.533     H230.4V102.4c0-4.71-3.823-8.533-8.533-8.533c-4.71,0-8.533,3.823-8.533,8.533v8.533H153.6V102.4c0-14.114-11.486-25.6-25.6-25.6     h-17.067c-14.114,0-25.6,11.486-25.6,25.6v8.533H68.267c-32.939,0-59.733,26.795-59.733,59.733v8.533     c-4.71,0-8.533,3.823-8.533,8.533s3.823,8.533,8.533,8.533V256h168.892c16.777-25.651,45.705-42.667,78.575-42.667     c32.87,0,61.798,17.016,78.575,42.667h168.892v-59.733c4.71,0,8.533-3.823,8.533-8.533S508.177,179.2,503.467,179.2z      M59.733,196.267c-4.71,0-8.533-3.823-8.533-8.533s3.823-8.533,8.533-8.533s8.533,3.823,8.533,8.533     S64.444,196.267,59.733,196.267z M102.4,102.4c0-4.702,3.831-8.533,8.533-8.533H128c4.702,0,8.533,3.831,8.533,8.533v8.533H102.4     V102.4z M102.4,196.267c-4.71,0-8.533-3.823-8.533-8.533s3.823-8.533,8.533-8.533c4.71,0,8.533,3.823,8.533,8.533     S107.11,196.267,102.4,196.267z M145.067,196.267c-4.71,0-8.533-3.823-8.533-8.533s3.823-8.533,8.533-8.533     c4.71,0,8.533,3.823,8.533,8.533S149.777,196.267,145.067,196.267z M324.267,187.733c0,4.71-3.823,8.533-8.533,8.533h-102.4     c-3.234,0-6.187-1.826-7.637-4.719c-1.442-2.893-1.126-6.349,0.811-8.934l25.6-34.133c1.613-2.15,4.139-3.413,6.827-3.413h76.8     c4.71,0,8.533,3.823,8.533,8.533V187.733z M349.867,102.4c0-4.702,3.831-8.533,8.533-8.533h51.2c4.702,0,8.533,3.831,8.533,8.533     v8.533h-68.267V102.4z M443.733,196.267c0,9.412-7.654,17.067-17.067,17.067h-51.2c-9.412,0-17.067-7.654-17.067-17.067v-34.133     c0-9.412,7.654-17.067,17.067-17.067h51.2c9.412,0,17.067,7.654,17.067,17.067V196.267z"/>
			<polygon points="375.467,162.133 375.467,196.267 426.675,196.267 426.667,162.133    "/>
			<path d="M349.867,307.2c0,12.049-2.364,23.535-6.519,34.133h160.119v-68.267H343.347     C347.503,283.665,349.867,295.151,349.867,307.2z"/>
			<path d="M256,384c42.342,0,76.8-34.458,76.8-76.8s-34.458-76.8-76.8-76.8s-76.8,34.458-76.8,76.8S213.658,384,256,384z      M196.267,307.2c0-32.939,26.795-59.733,59.733-59.733c4.71,0,8.533,3.823,8.533,8.533c0,4.71-3.823,8.533-8.533,8.533     c-23.526,0-42.667,19.14-42.667,42.667c0,4.71-3.823,8.533-8.533,8.533C200.09,315.733,196.267,311.91,196.267,307.2z"/>
			<path d="M8.533,273.067v68.267h160.12c-4.156-10.598-6.519-22.084-6.519-34.133s2.364-23.535,6.519-34.133H8.533z"/>
			<polygon points="230.4,179.2 307.2,179.2 307.2,162.133 243.2,162.133    "/>
			<path d="M256,401.067c-32.87,0-61.798-17.015-78.575-42.667H8.533v17.067c0,32.939,26.795,59.733,59.733,59.733h375.467     c32.939,0,59.733-26.795,59.733-59.733V358.4H334.575C317.798,384.051,288.87,401.067,256,401.067z"/>
		</g>
	</g>
</g>
<g>
</g>
<g>
</g>
<g>
</g>
<g>
</g>
<g>
</g>
<g>
</g>
<g>
</g>
<g>
</g>
<g>
</g>
<g>
</g>
<g>
</g>
<g>
</g>
<g>
</g>
<g>
</g>
<g>
</g>
</svg>
