<?xml version="1.0" encoding="iso-8859-1"?>
<!-- Generator: Adobe Illustrator 18.0.0, SVG Export Plug-In . SVG Version: 6.00 Build 0)  -->
<!DOCTYPE svg PUBLIC "-//W3C//DTD SVG 1.1//EN" "http://www.w3.org/Graphics/SVG/1.1/DTD/svg11.dtd">
<svg version="1.1" id="Capa_1" xmlns="http://www.w3.org/2000/svg" xmlns:xlink="http://www.w3.org/1999/xlink" x="0px" y="0px"
	 viewBox="0 0 50 50" style="enable-background:new 0 0 50 50;" xml:space="preserve">
<g>
	<path d="M9.869,29.5c-0.294,0-0.601,0.035-0.91,0.104c-1.661,0.369-3.031,1.693-3.575,3.456c-2.281,7.382,3.631,13.85,3.884,14.121
		C9.461,47.389,9.728,47.5,10,47.5c0.007,0,0.015,0,0.02,0c0.553,0,1-0.448,1-1c0-0.069-0.007-0.136-0.02-0.201
		c-0.001-0.556-0.006-1.095-0.01-1.618c-0.033-3.928-0.057-6.766,1.433-8.254c1.236-1.236,1.522-3.201,0.695-4.777
		C12.186,29.873,10.837,29.5,9.869,29.5z"/>
	<path d="M41.041,29.604c-0.31-0.069-0.616-0.104-0.91-0.104c-0.968,0-2.316,0.373-3.249,2.149
		c-0.827,1.577-0.541,3.541,0.695,4.777c1.489,1.489,1.466,4.327,1.433,8.255C39.005,45.267,39,45.874,39,46.5
		c0,0.411,0.252,0.78,0.634,0.931C39.753,47.478,39.877,47.5,40,47.5c0.272,0,0.539-0.111,0.732-0.319
		c0.253-0.271,6.165-6.739,3.884-14.121C44.072,31.297,42.702,29.973,41.041,29.604z"/>
	<path d="M14,25c0,2.481,1.794,4.5,4,4.5c1.636,0,3.041-1.113,3.66-2.699c0.091-0.234,0.155-0.476,0.21-0.72
		c0.012-0.054,0.033-0.103,0.044-0.158C21.97,25.622,22,25.313,22,25c0-2.481-1.794-4.5-4-4.5c-0.273,0-0.539,0.032-0.797,0.091
		c-0.234,0.054-0.462,0.137-0.685,0.238C15.045,21.493,14,23.108,14,25z"/>
	<path d="M20.549,17.343c-0.192-0.231-0.373-0.472-0.533-0.73c-0.009-0.015-0.017-0.031-0.026-0.046
		c-0.154-0.252-0.288-0.519-0.408-0.794c-0.021-0.049-0.044-0.096-0.065-0.145c-0.115-0.28-0.21-0.57-0.288-0.868
		c-0.007-0.028-0.02-0.052-0.027-0.08c-1.16,1.068-1.91,2.431-2.134,3.897c0.035-0.006,0.071-0.004,0.106-0.009
		C17.446,18.528,17.72,18.5,18,18.5c3.309,0,6,2.916,6,6.5c0,0.234-0.013,0.465-0.035,0.693c-0.007,0.068-0.02,0.135-0.029,0.204
		c-0.021,0.16-0.042,0.32-0.074,0.477c-0.003,0.017-0.004,0.034-0.008,0.051c0.768,0.101,1.523,0.101,2.291,0
		c-0.003-0.017-0.004-0.034-0.008-0.051c-0.031-0.156-0.053-0.316-0.074-0.477c-0.009-0.068-0.022-0.135-0.029-0.204
		C26.013,25.465,26,25.234,26,25c0-3.584,2.691-6.5,6-6.5c0.28,0,0.554,0.028,0.825,0.069c0.035,0.005,0.071,0.003,0.106,0.009
		c-0.224-1.467-0.974-2.83-2.134-3.897c-0.007,0.028-0.019,0.053-0.027,0.08c-0.078,0.299-0.173,0.589-0.288,0.868
		c-0.02,0.049-0.043,0.096-0.065,0.145c-0.12,0.275-0.255,0.541-0.408,0.794c-0.009,0.015-0.017,0.031-0.026,0.046
		c-0.16,0.259-0.341,0.5-0.533,0.73c-0.037,0.044-0.073,0.089-0.111,0.132c-0.192,0.219-0.398,0.423-0.616,0.612
		c-0.04,0.034-0.081,0.066-0.122,0.099c-0.226,0.185-0.462,0.357-0.712,0.507c-0.008,0.005-0.016,0.011-0.024,0.016
		c-0.254,0.15-0.523,0.275-0.797,0.385c-0.052,0.021-0.103,0.043-0.156,0.062c-0.27,0.099-0.547,0.177-0.833,0.234
		c-0.054,0.011-0.108,0.018-0.162,0.027c-0.3,0.05-0.605,0.084-0.918,0.084s-0.618-0.034-0.918-0.084
		c-0.054-0.009-0.109-0.016-0.162-0.027c-0.285-0.057-0.563-0.135-0.833-0.234c-0.053-0.019-0.104-0.041-0.156-0.062
		c-0.275-0.11-0.543-0.234-0.797-0.385c-0.008-0.005-0.016-0.011-0.024-0.016c-0.25-0.149-0.485-0.322-0.712-0.507
		c-0.041-0.033-0.082-0.065-0.122-0.099c-0.219-0.188-0.424-0.393-0.616-0.612C20.622,17.432,20.586,17.388,20.549,17.343z"/>
	<path d="M25,17.5c2.206,0,4-2.019,4-4.5s-1.794-4.5-4-4.5c-2.199,0-3.987,2.007-3.998,4.478C21,15.482,22.794,17.5,25,17.5z"/>
	<path d="M33.482,20.828c-0.223-0.101-0.451-0.184-0.685-0.238C32.539,20.532,32.273,20.5,32,20.5c-2.206,0-4,2.019-4,4.5
		c0,0.313,0.03,0.622,0.086,0.923c0.01,0.055,0.032,0.104,0.044,0.158c0.054,0.244,0.118,0.487,0.21,0.72
		C28.959,28.387,30.364,29.5,32,29.5c2.206,0,4-2.019,4-4.5C36,23.108,34.955,21.493,33.482,20.828z"/>
	<path d="M26.851,28.32C26.232,28.427,25.613,28.5,25,28.5s-1.232-0.073-1.851-0.18C22.101,30.221,20.188,31.5,18,31.5
		c-1.216,0-2.347-0.397-3.294-1.073c0.059,0.102,0.125,0.184,0.182,0.293c0.788,1.5,0.886,3.238,0.376,4.78h0.777
		c-0.173,2.055-0.022,6.297,3.444,9.712C19.677,45.4,19.93,45.5,20.187,45.5c0.127,0,0.255-0.024,0.377-0.074
		c0.37-0.151,0.615-0.508,0.623-0.907c0.055-2.855,0.741-7.685,2.34-9.019h3.133c1.596,1.332,2.284,6.163,2.34,9.02
		c0.008,0.399,0.253,0.756,0.623,0.907C29.745,45.476,29.873,45.5,30,45.5c0.258,0,0.511-0.1,0.702-0.288
		c3.466-3.415,3.617-7.658,3.444-9.712h0.589c-0.511-1.543-0.412-3.28,0.375-4.78c0.057-0.109,0.123-0.191,0.182-0.292
		C34.346,31.104,33.216,31.5,32,31.5C29.812,31.5,27.899,30.221,26.851,28.32z"/>
	<path d="M25,2.5C12.851,2.5,0,17.631,0,31.938c0,1.79,1.27,3.261,2.911,3.511c0.075-0.97,0.248-1.965,0.561-2.979
		c0.756-2.448,2.691-4.294,5.053-4.818c0.452-0.1,0.904-0.151,1.344-0.151c0.761,0,1.92,0.164,3.043,0.928
		C12.338,27.432,12,26.259,12,25c0-2.404,1.214-4.502,3.009-5.626c0.044-2.811,1.536-5.406,4.028-7.077
		C19.362,9.043,21.911,6.5,25,6.5s5.638,2.543,5.963,5.797c2.492,1.671,3.984,4.266,4.028,7.077C36.786,20.498,38,22.596,38,25
		c0,1.259-0.338,2.431-0.912,3.428c1.122-0.765,2.282-0.928,3.043-0.928c0.439,0,0.892,0.051,1.345,0.152
		c2.36,0.524,4.296,2.371,5.052,4.819c0.315,1.018,0.489,2.018,0.563,2.992c1.655-0.184,2.91-1.608,2.91-3.414
		C50,19.42,37.64,2.5,25,2.5z"/>
</g>
<g>
</g>
<g>
</g>
<g>
</g>
<g>
</g>
<g>
</g>
<g>
</g>
<g>
</g>
<g>
</g>
<g>
</g>
<g>
</g>
<g>
</g>
<g>
</g>
<g>
</g>
<g>
</g>
<g>
</g>
</svg>
