<?xml version="1.0" encoding="iso-8859-1"?>
<!-- Generator: Adobe Illustrator 18.0.0, SVG Export Plug-In . SVG Version: 6.00 Build 0)  -->
<!DOCTYPE svg PUBLIC "-//W3C//DTD SVG 1.1//EN" "http://www.w3.org/Graphics/SVG/1.1/DTD/svg11.dtd">
<svg version="1.1" id="Capa_1" xmlns="http://www.w3.org/2000/svg" xmlns:xlink="http://www.w3.org/1999/xlink" x="0px" y="0px"
	 viewBox="0 0 56.11 56.11" style="enable-background:new 0 0 56.11 56.11;" xml:space="preserve">
<path d="M46.272,46.393c0.38-0.401,1.012-0.42,1.414-0.042l8.423,7.948l-6.418-16.402l-8.33-1.041L22,17.661v-7.583
	c0-0.552-0.447-1-1-1h-1v-1c0-0.552-0.447-1-1-1h-1v-2c0-0.552-0.447-1-1-1h-1v-1c0-0.552-0.447-1-1-1h-1v-1c0-0.552-0.447-1-1-1H9
	c-0.553,0-1,0.448-1,1v5.5l12.903,12.667l0,0l1.016,0.998l-0.077,0.079l17.232,17.082l-0.707,0.707l-0.704,0.704L20.491,21.643
	l-0.504-0.495l0,0L6.675,8.079H1c-0.553,0-1,0.448-1,1v4c0,0.552,0.447,1,1,1h1v1c0,0.552,0.447,1,1,1h1v1c0,0.552,0.447,1,1,1h1v1
	c0,0.552,0.447,1,1,1h1v1.036c0,0.266,0.105,0.521,0.294,0.708C8.481,22.009,8.735,22.114,9,22.114c0.001,0,0.002,0,0.004,0
	l9.097-0.032l19.017,19.016l1.041,8.331l16.872,6.602l-8.717-8.225C45.912,47.427,45.894,46.794,46.272,46.393z"/>
<g>
</g>
<g>
</g>
<g>
</g>
<g>
</g>
<g>
</g>
<g>
</g>
<g>
</g>
<g>
</g>
<g>
</g>
<g>
</g>
<g>
</g>
<g>
</g>
<g>
</g>
<g>
</g>
<g>
</g>
</svg>
