<?xml version="1.0" encoding="iso-8859-1"?>
<!-- Generator: Adobe Illustrator 18.0.0, SVG Export Plug-In . SVG Version: 6.00 Build 0)  -->
<!DOCTYPE svg PUBLIC "-//W3C//DTD SVG 1.1//EN" "http://www.w3.org/Graphics/SVG/1.1/DTD/svg11.dtd">
<svg version="1.1" id="Capa_1" xmlns="http://www.w3.org/2000/svg" xmlns:xlink="http://www.w3.org/1999/xlink" x="0px" y="0px"
	 viewBox="0 0 60.17 60.17" style="enable-background:new 0 0 60.17 60.17;" xml:space="preserve">
<path d="M60.119,18.981c-0.185-1.023-0.861-1.891-1.807-2.321c-0.08-0.036-0.164-0.062-0.25-0.076L47.86,14.882l4.969-4.969
	C53.584,9.158,54,8.153,54,7.085s-0.416-2.073-1.171-2.828S51.069,3.085,50,3.085s-2.073,0.417-2.828,1.172l-6.776,6.776
	l-2.88-6.006c-0.018-0.036-0.037-0.071-0.058-0.104c-0.525-0.826-1.424-1.318-2.403-1.318c-0.758,0-1.472,0.296-2.01,0.833
	l-8.691,8.691c-0.614,0.614-0.911,1.46-0.816,2.323c0.094,0.863,0.569,1.625,1.301,2.09c0.055,0.035,0.114,0.065,0.175,0.088
	l6.329,2.456l-30.17,30.17C0.416,51.012,0,52.017,0,53.085s0.416,2.073,1.171,2.828S2.931,57.085,4,57.085s2.073-0.417,2.828-1.172
	l29.175-29.175l0.01,11.565c0,0.064,0.006,0.128,0.019,0.192c0.284,1.442,1.424,2.411,2.837,2.411c0.809,0,1.579-0.325,2.169-0.916
	l18.203-18.203C59.977,21.052,60.305,20.003,60.119,18.981z"/>
<g>
</g>
<g>
</g>
<g>
</g>
<g>
</g>
<g>
</g>
<g>
</g>
<g>
</g>
<g>
</g>
<g>
</g>
<g>
</g>
<g>
</g>
<g>
</g>
<g>
</g>
<g>
</g>
<g>
</g>
</svg>
