<?xml version="1.0" encoding="iso-8859-1"?>
<!-- Generator: Adobe Illustrator 18.0.0, SVG Export Plug-In . SVG Version: 6.00 Build 0)  -->
<!DOCTYPE svg PUBLIC "-//W3C//DTD SVG 1.1//EN" "http://www.w3.org/Graphics/SVG/1.1/DTD/svg11.dtd">
<svg version="1.1" id="Capa_1" xmlns="http://www.w3.org/2000/svg" xmlns:xlink="http://www.w3.org/1999/xlink" x="0px" y="0px"
	 viewBox="0 0 58.256 58.256" style="enable-background:new 0 0 58.256 58.256;" xml:space="preserve">
<path d="M56.102,36.716c-1.389-1.389-3.235-2.154-5.2-2.154s-3.812,0.765-5.2,2.154c-0.346,0.346-0.653,0.721-0.92,1.121
	L20.419,13.475c0.401-0.268,0.776-0.575,1.121-0.92c2.867-2.867,2.867-7.533,0-10.4C20.152,0.765,18.305,0,16.34,0
	s-3.812,0.765-5.2,2.154s-2.154,3.236-2.154,5.2c0,0.64,0.081,1.267,0.239,1.87c-0.604-0.157-1.23-0.239-1.871-0.239
	c-1.964,0-3.811,0.765-5.199,2.154S0,14.376,0,16.34s0.766,3.811,2.154,5.2c1.389,1.389,3.235,2.154,5.199,2.154
	c1.965,0,3.812-0.765,5.201-2.154c0.108-0.109,0.215-0.223,0.317-0.341l24.185,24.184c-0.118,0.104-0.231,0.209-0.341,0.319
	c-2.867,2.867-2.867,7.533,0,10.4c1.389,1.389,3.235,2.154,5.2,2.154c1.964,0,3.811-0.765,5.199-2.154s2.154-3.236,2.154-5.2
	c0-0.64-0.081-1.268-0.239-1.871c0.604,0.157,1.231,0.239,1.871,0.239c1.965,0,3.812-0.765,5.2-2.154s2.154-3.236,2.154-5.2
	C58.256,39.952,57.49,38.105,56.102,36.716z"/>
<g>
</g>
<g>
</g>
<g>
</g>
<g>
</g>
<g>
</g>
<g>
</g>
<g>
</g>
<g>
</g>
<g>
</g>
<g>
</g>
<g>
</g>
<g>
</g>
<g>
</g>
<g>
</g>
<g>
</g>
</svg>
