<?xml version="1.0" encoding="iso-8859-1"?>
<!-- Generator: Adobe Illustrator 18.0.0, SVG Export Plug-In . SVG Version: 6.00 Build 0)  -->
<!DOCTYPE svg PUBLIC "-//W3C//DTD SVG 1.1//EN" "http://www.w3.org/Graphics/SVG/1.1/DTD/svg11.dtd">
<svg version="1.1" id="Capa_1" xmlns="http://www.w3.org/2000/svg" xmlns:xlink="http://www.w3.org/1999/xlink" x="0px" y="0px"
	 viewBox="0 0 56 56" style="enable-background:new 0 0 56 56;" xml:space="preserve">
<g>
	<polygon points="45,36 45,30 45,28 39,28 39,30 39,36 43,36 	"/>
	<polygon points="50,44 50,38 47,38 45,38 45,44 47,44 	"/>
	<rect x="39" y="38" width="4" height="6"/>
	<rect x="52" y="38" width="4" height="6"/>
	<rect x="13" y="38" width="4" height="6"/>
	<polygon points="39,46 39,51 45,51 45,46 43,46 	"/>
	<polygon points="50,46 47,46 47,51 56,51 56,46 52,46 	"/>
	<polygon points="11,44 11,38 8,38 6,38 6,44 8,44 	"/>
	<polygon points="6,36 6,30 6,28 0,28 0,30 0,36 4,36 	"/>
	<polygon points="11,46 8,46 8,51 17,51 17,46 13,46 	"/>
	<path d="M19,36v2v6v2v5h18v-5v-2v-6v-2v-8H19V36z M29,48h-2v-2h2V48z M23,35.2c0-1.824,1.455-3.2,3.383-3.2h3.958
		C32.101,32,34,33.224,34,35.2v2.383C34,40,30.989,40,30,40c-0.734,0-1,0.967-1,1.617V44h-2v-2.383C27,39.521,28.262,38,30,38
		c1.805,0,2-0.292,2-0.417V35.2c0-0.708-0.874-1.2-1.658-1.2h-3.958C25.717,34,25,34.375,25,35.2V37h-2V35.2z"/>
	<rect y="38" width="4" height="6"/>
	<polygon points="0,46 0,51 6,51 6,46 4,46 	"/>
	<polygon points="8,30 8,36 11,36 13,36 17,36 17,30 17,28 8,28 	"/>
	<polygon points="47,28 47,30 47,36 50,36 52,36 56,36 56,30 56,28 	"/>
	<path d="M46,21c4.411,0,8-3.589,8-8s-3.589-8-8-8s-8,3.589-8,8S41.589,21,46,21z M45,10h2v6h-2V10z"/>
</g>
<g>
</g>
<g>
</g>
<g>
</g>
<g>
</g>
<g>
</g>
<g>
</g>
<g>
</g>
<g>
</g>
<g>
</g>
<g>
</g>
<g>
</g>
<g>
</g>
<g>
</g>
<g>
</g>
<g>
</g>
</svg>
