<?xml version="1.0" encoding="iso-8859-1"?>
<!-- Generator: Adobe Illustrator 18.0.0, SVG Export Plug-In . SVG Version: 6.00 Build 0)  -->
<!DOCTYPE svg PUBLIC "-//W3C//DTD SVG 1.1//EN" "http://www.w3.org/Graphics/SVG/1.1/DTD/svg11.dtd">
<svg version="1.1" id="Capa_1" xmlns="http://www.w3.org/2000/svg" xmlns:xlink="http://www.w3.org/1999/xlink" x="0px" y="0px"
	 viewBox="0 0 58 58" style="enable-background:new 0 0 58 58;" xml:space="preserve">
<g>
	<path d="M17,16.449c1.692-0.245,3-1.691,3-3.449c0-1.93-1.57-3.5-3.5-3.5h-5C9.57,9.5,8,11.07,8,13c0,1.758,1.308,3.204,3,3.449
		V18.5H0v30h28v-30H17V16.449z M13,16.5h2v2h-2V16.5z M22.485,25.015c0.009,0.009,0.012,0.021,0.02,0.03
		C24.664,27.216,26,30.204,26,33.5s-1.336,6.284-3.494,8.455c-0.009,0.009-0.011,0.021-0.02,0.03s-0.021,0.012-0.031,0.02
		C20.284,44.164,17.296,45.5,14,45.5s-6.284-1.336-8.455-3.494c-0.009-0.009-0.021-0.011-0.031-0.02s-0.012-0.021-0.02-0.03
		C3.336,39.784,2,36.796,2,33.5s1.336-6.284,3.494-8.455c0.009-0.009,0.011-0.021,0.02-0.03s0.021-0.012,0.031-0.02
		C7.716,22.836,10.704,21.5,14,21.5s6.284,1.336,8.455,3.494C22.464,25.003,22.476,25.006,22.485,25.015z"/>
	<path d="M52,32.5h1.949c-0.2-2.008-0.998-3.842-2.211-5.324l-1.374,1.374c-0.195,0.195-0.451,0.293-0.707,0.293
		s-0.512-0.098-0.707-0.293c-0.391-0.391-0.391-1.023,0-1.414l1.374-1.374c-1.482-1.213-3.316-2.011-5.324-2.211V25.5
		c0,0.553-0.447,1-1,1s-1-0.447-1-1v-1.949c-2.008,0.2-3.842,0.998-5.324,2.211l1.374,1.374c0.391,0.391,0.391,1.023,0,1.414
		c-0.195,0.195-0.451,0.293-0.707,0.293s-0.512-0.098-0.707-0.293l-1.374-1.374c-1.213,1.482-2.011,3.316-2.211,5.324H36
		c0.553,0,1,0.447,1,1s-0.447,1-1,1h-1.949c0.2,2.008,0.998,3.842,2.211,5.324l1.374-1.374c0.391-0.391,1.023-0.391,1.414,0
		s0.391,1.023,0,1.414l-1.374,1.374c1.482,1.213,3.316,2.011,5.324,2.211V41.5c0-0.553,0.447-1,1-1s1,0.447,1,1v1.949
		c2.008-0.2,3.842-0.998,5.324-2.211l-1.374-1.374c-0.391-0.391-0.391-1.023,0-1.414s1.023-0.391,1.414,0l1.374,1.374
		c1.213-1.482,2.011-3.316,2.211-5.324H52c-0.553,0-1-0.447-1-1S51.447,32.5,52,32.5z M48,37.5h-4c-2.206,0-4-1.794-4-4s1.794-4,4-4
		s4,1.794,4,4V37.5z"/>
	<path d="M13,25.5v-1.949c-2.008,0.2-3.842,0.998-5.324,2.211l1.374,1.374c0.391,0.391,0.391,1.023,0,1.414
		c-0.195,0.195-0.451,0.293-0.707,0.293s-0.512-0.098-0.707-0.293l-1.374-1.374c-1.213,1.482-2.011,3.316-2.211,5.324H6
		c0.553,0,1,0.447,1,1s-0.447,1-1,1H4.051c0.2,2.008,0.998,3.842,2.211,5.324l1.374-1.374c0.391-0.391,1.023-0.391,1.414,0
		s0.391,1.023,0,1.414l-1.374,1.374c1.482,1.213,3.316,2.011,5.324,2.211V41.5c0-0.553,0.447-1,1-1s1,0.447,1,1v1.949
		c2.008-0.2,3.842-0.998,5.324-2.211l-1.374-1.374c-0.391-0.391-0.391-1.023,0-1.414s1.023-0.391,1.414,0l1.374,1.374
		c1.213-1.482,2.011-3.316,2.211-5.324H22c-0.553,0-1-0.447-1-1s0.447-1,1-1h1.949c-0.2-2.008-0.998-3.842-2.211-5.324l-1.374,1.374
		c-0.195,0.195-0.451,0.293-0.707,0.293s-0.512-0.098-0.707-0.293c-0.391-0.391-0.391-1.023,0-1.414l1.374-1.374
		c-1.482-1.213-3.316-2.011-5.324-2.211V25.5c0,0.553-0.447,1-1,1S13,26.053,13,25.5z M16.828,30.672
		C17.584,31.427,18,32.432,18,33.5s-0.416,2.073-1.172,2.828C16.073,37.084,15.068,37.5,14,37.5s-2.073-0.416-2.828-1.172
		C10.416,35.573,10,34.568,10,33.5s0.416-2.073,1.172-2.828L14,27.844L16.828,30.672z"/>
	<path d="M47,18.5v-2.051c1.692-0.245,3-1.691,3-3.449c0-1.93-1.57-3.5-3.5-3.5h-5c-1.93,0-3.5,1.57-3.5,3.5
		c0,1.758,1.308,3.204,3,3.449V18.5H30v30h28v-30H47z M43,16.5h2v2h-2V16.5z M52.506,41.955c-0.009,0.009-0.011,0.021-0.02,0.03
		s-0.021,0.012-0.031,0.02C50.284,44.164,47.296,45.5,44,45.5s-6.284-1.336-8.455-3.494c-0.009-0.009-0.021-0.011-0.031-0.02
		s-0.012-0.021-0.02-0.03C33.336,39.784,32,36.796,32,33.5s1.336-6.284,3.494-8.455c0.009-0.009,0.011-0.021,0.02-0.03
		s0.021-0.012,0.031-0.02C37.716,22.836,40.704,21.5,44,21.5s6.284,1.336,8.455,3.494c0.009,0.009,0.021,0.011,0.031,0.02
		s0.012,0.021,0.02,0.03C54.664,27.216,56,30.204,56,33.5S54.664,39.784,52.506,41.955z"/>
</g>
<g>
</g>
<g>
</g>
<g>
</g>
<g>
</g>
<g>
</g>
<g>
</g>
<g>
</g>
<g>
</g>
<g>
</g>
<g>
</g>
<g>
</g>
<g>
</g>
<g>
</g>
<g>
</g>
<g>
</g>
</svg>
