<?xml version="1.0" encoding="iso-8859-1"?>
<!-- Generator: Adobe Illustrator 18.0.0, SVG Export Plug-In . SVG Version: 6.00 Build 0)  -->
<!DOCTYPE svg PUBLIC "-//W3C//DTD SVG 1.1//EN" "http://www.w3.org/Graphics/SVG/1.1/DTD/svg11.dtd">
<svg version="1.1" id="Capa_1" xmlns="http://www.w3.org/2000/svg" xmlns:xlink="http://www.w3.org/1999/xlink" x="0px" y="0px"
	 viewBox="0 0 57 57" style="enable-background:new 0 0 57 57;" xml:space="preserve">
<g>
	<path d="M19.6,29.548H3.4c-1.875,0-3.4,1.525-3.4,3.4v16.199c0,1.875,1.525,3.4,3.4,3.4H19.6c1.875,0,3.4-1.525,3.4-3.4V32.949
		C23,31.074,21.475,29.548,19.6,29.548z M6,48.548c-1.104,0-2-0.895-2-2c0-1.105,0.896-2,2-2s2,0.895,2,2
		C8,47.653,7.104,48.548,6,48.548z M6,37.548c-1.104,0-2-0.895-2-2c0-1.105,0.896-2,2-2s2,0.895,2,2C8,36.653,7.104,37.548,6,37.548
		z M11.5,43.381c-1.104,0-2-0.895-2-2s0.896-2,2-2s2,0.895,2,2S12.604,43.381,11.5,43.381z M17,48.548c-1.104,0-2-0.895-2-2
		c0-1.105,0.896-2,2-2s2,0.895,2,2C19,47.653,18.104,48.548,17,48.548z M17,37.548c-1.104,0-2-0.895-2-2c0-1.105,0.896-2,2-2
		s2,0.895,2,2C19,36.653,18.104,37.548,17,37.548z"/>
	<path d="M19.6,5.548H3.4c-1.875,0-3.4,1.525-3.4,3.4v16.199c0,1.875,1.525,3.4,3.4,3.4H19.6c1.875,0,3.4-1.525,3.4-3.4V8.949
		C23,7.074,21.475,5.548,19.6,5.548z M6,24.548c-1.104,0-2-0.895-2-2c0-1.105,0.896-2,2-2s2,0.895,2,2
		C8,23.653,7.104,24.548,6,24.548z M6,13.548c-1.104,0-2-0.895-2-2c0-1.105,0.896-2,2-2s2,0.895,2,2C8,12.653,7.104,13.548,6,13.548
		z M17,24.548c-1.104,0-2-0.895-2-2c0-1.105,0.896-2,2-2s2,0.895,2,2C19,23.653,18.104,24.548,17,24.548z M17,13.548
		c-1.104,0-2-0.895-2-2c0-1.105,0.896-2,2-2s2,0.895,2,2C19,12.653,18.104,13.548,17,13.548z"/>
	<path d="M32.803,30.033l15.665-4.132c1.812-0.479,2.896-2.343,2.419-4.155L46.755,6.08c-0.395-1.491-1.745-2.532-3.286-2.532
		c-0.292,0-0.584,0.038-0.868,0.113L26.935,7.793c-1.812,0.479-2.896,2.343-2.419,4.154l4.132,15.666
		c0.395,1.491,1.746,2.532,3.286,2.532C32.226,30.146,32.519,30.108,32.803,30.033z M41.106,8.192
		c1.068-0.282,2.162,0.356,2.444,1.424c0.282,1.068-0.356,2.162-1.424,2.444c-1.068,0.282-2.162-0.356-2.444-1.424
		C39.401,9.568,40.038,8.474,41.106,8.192z M37.106,14.591c1.068-0.282,2.162,0.356,2.444,1.424
		c0.282,1.068-0.356,2.162-1.424,2.444s-2.162-0.356-2.444-1.424C35.401,15.967,36.038,14.873,37.106,14.591z M33.276,21.634
		c1.068-0.282,2.162,0.356,2.444,1.424c0.282,1.068-0.356,2.162-1.424,2.444c-1.068,0.282-2.162-0.356-2.444-1.424
		C31.571,23.01,32.208,21.916,33.276,21.634z"/>
	<path d="M56.887,45.051l-4.132-15.665c-0.395-1.491-1.745-2.532-3.285-2.532c-0.293,0-0.585,0.038-0.869,0.113l-15.665,4.132
		c-0.878,0.231-1.613,0.791-2.07,1.576s-0.581,1.7-0.35,2.578l4.132,15.665c0.395,1.491,1.746,2.533,3.286,2.533
		c0.293,0,0.585-0.038,0.869-0.113l15.664-4.133C56.279,48.728,57.365,46.864,56.887,45.051z M35.046,36.747
		c-0.282-1.068,0.356-2.162,1.424-2.444c1.068-0.282,2.162,0.356,2.444,1.424s-0.356,2.162-1.424,2.444
		C36.422,38.453,35.328,37.815,35.046,36.747z M40.296,48.807c-1.068,0.282-2.162-0.356-2.444-1.424s0.356-2.162,1.424-2.444
		c1.068-0.282,2.162,0.356,2.444,1.424C42.002,47.431,41.364,48.525,40.296,48.807z M45.682,33.941
		c-0.282-1.068,0.356-2.162,1.424-2.444c1.068-0.282,2.162,0.356,2.444,1.424c0.282,1.068-0.356,2.162-1.424,2.444
		C47.058,35.647,45.964,35.009,45.682,33.941z M50.932,46.001c-1.068,0.282-2.162-0.356-2.444-1.424
		c-0.282-1.068,0.356-2.162,1.424-2.444c1.068-0.282,2.162,0.356,2.444,1.424C52.638,44.625,52,45.72,50.932,46.001z"/>
</g>
<g>
</g>
<g>
</g>
<g>
</g>
<g>
</g>
<g>
</g>
<g>
</g>
<g>
</g>
<g>
</g>
<g>
</g>
<g>
</g>
<g>
</g>
<g>
</g>
<g>
</g>
<g>
</g>
<g>
</g>
</svg>
