<?xml version="1.0" encoding="iso-8859-1"?>
<!-- Generator: Adobe Illustrator 18.0.0, SVG Export Plug-In . SVG Version: 6.00 Build 0)  -->
<!DOCTYPE svg PUBLIC "-//W3C//DTD SVG 1.1//EN" "http://www.w3.org/Graphics/SVG/1.1/DTD/svg11.dtd">
<svg version="1.1" id="Capa_1" xmlns="http://www.w3.org/2000/svg" xmlns:xlink="http://www.w3.org/1999/xlink" x="0px" y="0px"
	 viewBox="0 0 58.682 58.682" style="enable-background:new 0 0 58.682 58.682;" xml:space="preserve">
<path d="M51.911,29.667c-0.158-0.417-0.547-0.686-0.992-0.686l-0.467,0.018l-0.606,0.651l0.013,0.424
	c0.019,0.616-0.313,2.356-1.428,3.516c-0.449,0.468-0.987,0.771-1.591,0.939V23.682c0-5.146-2.159-9.854-5.923-12.918
	c-1.814-1.477-3.999-2.481-6.497-2.989c-0.785-1.088-3.308-4.511-4.856-5.727c-2.698-2.121-6.392-2.656-9.346-1.319
	c-3.878,1.757-4.556,5.387-4.373,7.062c0.038,0.345,0.253,0.646,0.567,0.794c0.313,0.149,0.683,0.123,0.975-0.066
	C17.41,8.506,19.53,7.14,21.651,7.14c0.979,0,1.787,0.293,2.441,0.89c-1.492,0.386-3.831,1.167-6.226,2.661
	c-3.772,2.354-6.025,7.21-6.025,12.991v10.847c-0.604-0.167-1.141-0.471-1.591-0.939c-1.114-1.16-1.447-2.9-1.428-3.519
	l-0.004-0.466l-0.294-0.303c-0.198-0.204-0.476-0.321-0.761-0.321l-0.745,0.04l-0.246,0.643c-0.9,2.35-3.41,10.181,1.294,13.673
	c-0.143,0.761-0.225,1.543-0.225,2.345c0,7.168,5.832,13,13,13h17c7.168,0,13-5.832,13-13c0-0.802-0.081-1.585-0.225-2.345
	C55.32,39.845,52.81,32.014,51.911,29.667z M49.874,34.976c0.448-0.466,0.808-0.991,1.091-1.528c0.557,2.467,0.83,5.729-0.862,7.677
	l-1.079-1.889l0.045-0.076c-0.21-0.36-0.442-0.705-0.684-1.042l-0.95-1.662C48.361,36.19,49.188,35.691,49.874,34.976z
	 M30.841,29.682c0-1.105,0.895-2,2-2s2,0.895,2,2c0,1.105-0.895,2-2,2S30.841,30.787,30.841,29.682z M31.841,38.682
	c0-0.552,0.448-1,1-1h4c0.552,0,1,0.448,1,1s-0.448,1-1,1h-3v3c0,0.552-0.448,1-1,1s-1-0.448-1-1V38.682z M16.841,18.682
	c0.552,0,1,0.448,1,1c0,1.505,5.328,4,11,4c5.952,0,12-2.566,12-4c0-0.552,0.448-1,1-1s1,0.448,1,1c0,2.112-2.895,3.803-6.409,4.846
	c0.852,0.689,1.409,1.729,1.409,2.907v5.247h-2v-5.247c0-0.967-0.786-1.753-1.753-1.753h-2.494c-0.967,0-1.753,0.786-1.753,1.753
	v5.247h-2v-5.247c0-0.967-0.786-1.753-1.753-1.753h-2.494c-0.967,0-1.753,0.786-1.753,1.753v5.247h-1c-0.337,0-0.67,0.016-1,0.041
	v-5.288c0-1.231,0.604-2.316,1.522-3c-3.157-1.086-5.522-2.789-5.522-4.753C15.841,19.13,16.289,18.682,16.841,18.682z
	 M21.841,39.682c-0.552,0-1-0.448-1-1s0.448-1,1-1h4c0.552,0,1,0.448,1,1v4c0,0.552-0.448,1-1,1s-1-0.448-1-1v-3H21.841z
	 M22.841,29.682c0-1.105,0.895-2,2-2s2,0.895,2,2c0,1.105-0.895,2-2,2S22.841,30.787,22.841,29.682z M7.717,33.448
	C8,33.985,8.36,34.51,8.808,34.976c0.687,0.715,1.513,1.214,2.439,1.481l-0.937,1.64c-0.267,0.37-0.521,0.752-0.749,1.15
	l0.049,0.075l-1.03,1.803C6.888,39.178,7.16,35.915,7.717,33.448z M37.841,49.682h-17c-4.597,0-8.851-2.485-11.179-6.422
	l1.171-2.048c0.009,0.017,0.02,0.033,0.028,0.05c1.805,3.9,5.723,6.42,9.98,6.42h17c4.258,0,8.176-2.52,9.98-6.42
	c0.008-0.018,0.018-0.034,0.027-0.051l1.171,2.049C46.692,47.197,42.438,49.682,37.841,49.682z"/>
<g>
</g>
<g>
</g>
<g>
</g>
<g>
</g>
<g>
</g>
<g>
</g>
<g>
</g>
<g>
</g>
<g>
</g>
<g>
</g>
<g>
</g>
<g>
</g>
<g>
</g>
<g>
</g>
<g>
</g>
</svg>
