<?xml version="1.0" encoding="iso-8859-1"?>
<!-- Generator: Adobe Illustrator 18.0.0, SVG Export Plug-In . SVG Version: 6.00 Build 0)  -->
<!DOCTYPE svg PUBLIC "-//W3C//DTD SVG 1.1//EN" "http://www.w3.org/Graphics/SVG/1.1/DTD/svg11.dtd">
<svg version="1.1" id="Capa_1" xmlns="http://www.w3.org/2000/svg" xmlns:xlink="http://www.w3.org/1999/xlink" x="0px" y="0px"
	 viewBox="0 0 53.975 53.975" style="enable-background:new 0 0 53.975 53.975;" xml:space="preserve">
<g>
	<path d="M53.487,30.698v-3.251c0-1.819-0.626-3.605-1.763-5.027l-3.339-2.978c0.064,0.677,0.102,1.356,0.102,2.033
		c0,1.484-0.158,2.985-0.47,4.461c-0.003,0.015-0.014,0.028-0.018,0.043v0c-0.03,0.115-0.079,0.224-0.144,0.321
		c-0.067,0.097-0.149,0.184-0.247,0.252l-0.552,0.382c-0.35,0.243-0.682,0.469-1.011,0.693c-0.263,0.179-0.521,0.354-0.773,0.524v0
		c-2.561,1.727-4.428,2.885-5.735,3.694c-3.201,1.981-3.201,1.981-3.735,4.665c-0.157,0.79-0.354,1.77-0.651,3.015l-1.956,0.978
		c-0.255,0.128-0.442,0.357-0.517,0.632c0.615-2.277,0.93-3.849,1.162-5.015c0.678-3.404,0.851-3.627,4.644-5.975
		c1.578-0.977,3.962-2.452,7.432-4.855l0.221-0.152c0.231-1.215,0.349-2.445,0.349-3.662c0-0.964-0.072-1.934-0.216-2.894
		l-11.583,2.374c-0.439,0.092-0.892-0.127-1.095-0.532l-1.724-3.447h-8.764l-1.724,3.447c-0.2,0.4-0.643,0.615-1.081,0.535
		L7.705,18.566c-0.145,0.963-0.218,1.938-0.218,2.909c0,1.217,0.117,2.447,0.349,3.662l0.22,0.152
		c4.46,3.088,7.156,4.465,8.94,5.376c3.687,1.883,3.79,2.248,5.509,8.333c0.223,0.788,0.475,1.68,0.767,2.692
		c0,0.001,0.001,0.003,0.001,0.004c-0.004-0.012-0.026-0.093-0.028-0.098c-0.084-0.278-0.286-0.506-0.551-0.625l-1.955-0.869
		c-0.053-0.187-0.109-0.385-0.159-0.562c-1.585-5.61-1.585-5.61-4.494-7.096c-1.58-0.807-3.863-1.976-7.392-4.311
		c-0.131-0.086-0.268-0.179-0.401-0.268c-0.443-0.296-0.894-0.6-1.376-0.934l-0.551-0.382c-0.097-0.067-0.177-0.154-0.244-0.249
		C6.058,26.208,6.01,26.102,5.98,25.99c-0.005-0.019-0.018-0.034-0.023-0.054c-0.312-1.476-0.47-2.978-0.47-4.461
		c0-0.68,0.038-1.361,0.102-2.04l-3.222,2.862l-0.117,0.123c-1.137,1.422-1.763,3.208-1.763,5.027v2.916l6.68,2.813l4.536,7.257
		c-0.193,0.381-0.406,0.744-0.66,1.069c-0.059,0.075-0.106,0.158-0.142,0.246l-0.287,0.717l-4.807-7.691l-5.271-2.219
		c0.113,2.116,0.588,4.084,1.462,5.842c1.505,3.023,3.968,5.275,7.125,6.51l0.345,0.135l0.35-0.123
		c0.063-0.022,0.683-0.253,1.455-0.844c0.634,0.487,1.945,1.462,3.615,2.541l2.402-6.175c0.594,0.293,1.208,0.556,1.836,0.798
		l-2.507,6.446c1.939,1.143,4.142,2.25,6.258,2.891l0.258,1.407c0.192,1.155,1.182,1.993,2.353,1.993h5
		c1.171,0,2.161-0.838,2.353-1.994l0.296-1.782c1.713-0.658,3.387-1.575,4.862-2.529l-2.202-6.607
		c0.62-0.278,1.218-0.588,1.802-0.918l2.117,6.35c1.388-1.005,2.454-1.905,3.016-2.398c0.759,0.575,1.364,0.799,1.426,0.821
		l0.35,0.123l0.345-0.135c3.157-1.235,5.62-3.486,7.125-6.51c0.833-1.674,1.304-3.539,1.447-5.542l-5.269,1.941l-4.794,7.67
		l-0.287-0.717c-0.035-0.088-0.083-0.171-0.142-0.246c-0.255-0.324-0.467-0.688-0.66-1.069l4.549-7.279L53.487,30.698z
		 M32.443,42.161l-0.301,1.813h-8.445l-0.357-1.947L32.443,42.161z M24.432,47.975l-0.367-2h7.745l-0.332,2H24.432z M29.194,24.268
		c0.391,0.391,0.391,1.023,0,1.414l-3,3c-0.195,0.195-0.451,0.293-0.707,0.293s-0.512-0.098-0.707-0.293
		c-0.391-0.391-0.391-1.023,0-1.414l3-3C28.171,23.877,28.804,23.877,29.194,24.268z M21.194,28.682
		c-0.195,0.195-0.451,0.293-0.707,0.293s-0.512-0.098-0.707-0.293c-0.391-0.391-0.391-1.023,0-1.414l6-6
		c0.391-0.391,1.023-0.391,1.414,0s0.391,1.023,0,1.414L21.194,28.682z M32.553,41.599l-0.029,0.108
		c-0.01,0.034-0.017,0.069-0.023,0.104c0.006-0.035,0.013-0.07,0.023-0.104C32.534,41.669,32.543,41.636,32.553,41.599z
		 M23.297,41.794c0,0.001,0,0.002,0,0.002c-0.002-0.013-0.006-0.025-0.009-0.038C23.291,41.77,23.295,41.782,23.297,41.794z
		 M30.487,51.975h-5c-0.189,0-0.349-0.135-0.383-0.338l-0.305-1.662h6.347l-0.278,1.678C30.836,51.839,30.677,51.975,30.487,51.975z
		"/>
	<path d="M18.487,11.975v6.602l1.444,0.274l1.662-3.324c0.169-0.339,0.516-0.553,0.895-0.553h4V0
		c-5.37,0.124-10.248,2.226-13.955,5.606l5.662,5.662C18.382,11.455,18.487,11.71,18.487,11.975z"/>
	<path d="M7.083,16.412l9.405,1.785v-5.809L11.118,7.02c-2.567,2.816-4.414,6.298-5.2,10.172
		C6.029,16.658,6.547,16.308,7.083,16.412z"/>
	<path d="M38.487,18.134l8.391-1.719c0.262-0.054,0.53-0.001,0.753,0.146c0.219,0.145,0.371,0.371,0.425,0.628
		c-0.738-3.632-2.403-6.926-4.724-9.646l-4.845,4.845V18.134z"/>
	<path d="M33.382,15.527l1.657,3.313l1.449-0.297v-6.569c0-0.265,0.105-0.52,0.293-0.707l5.186-5.186
		c-3.538-3.444-8.253-5.668-13.479-6.031v14.924h4C32.866,14.975,33.212,15.189,33.382,15.527z"/>
</g>
<g>
</g>
<g>
</g>
<g>
</g>
<g>
</g>
<g>
</g>
<g>
</g>
<g>
</g>
<g>
</g>
<g>
</g>
<g>
</g>
<g>
</g>
<g>
</g>
<g>
</g>
<g>
</g>
<g>
</g>
</svg>
