<?xml version="1.0" encoding="iso-8859-1"?>
<!-- Generator: Adobe Illustrator 18.0.0, SVG Export Plug-In . SVG Version: 6.00 Build 0)  -->
<!DOCTYPE svg PUBLIC "-//W3C//DTD SVG 1.1//EN" "http://www.w3.org/Graphics/SVG/1.1/DTD/svg11.dtd">
<svg version="1.1" id="Capa_1" xmlns="http://www.w3.org/2000/svg" xmlns:xlink="http://www.w3.org/1999/xlink" x="0px" y="0px"
	 viewBox="0 0 48 48" style="enable-background:new 0 0 48 48;" xml:space="preserve">
<g>
	<path d="M36,10.633c1.511,0,2.957-0.57,4.072-1.604l0.217-0.167c-0.568-0.644-1.158-1.266-1.788-1.847
		c-2.317-2.138-5.056-3.694-8.011-4.63l-0.293,0.752C30.065,3.643,30,4.146,30,4.633C30,7.941,32.691,10.633,36,10.633z"/>
	<path d="M47.926,30.755l-1.367-0.403C41.628,29.269,38,24.753,38,19.633c0-2.894,1.119-5.629,3.15-7.7l0.877-0.867
		c-0.156-0.222-0.312-0.443-0.474-0.659l-0.191,0.147c-1.417,1.319-3.346,2.079-5.362,2.079c-4.411,0-8-3.589-8-8
		c0-0.678,0.093-1.372,0.276-2.062l0.035-0.106l0.233-0.596C27.063,1.549,25.545,1.367,24,1.367c-1.225,0-2.434,0.117-3.622,0.319
		l0.344,0.883C20.906,3.259,21,3.953,21,4.633c0,4.411-3.589,8-8,8c-2.017,0-3.945-0.759-5.432-2.137L6.826,9.924
		c-0.293,0.372-0.578,0.752-0.853,1.142l0.866,0.856C8.881,14.004,10,16.739,10,19.633c0,5.12-3.628,9.636-8.627,10.737
		l-1.299,0.383C0.03,31.695,0,32.65,0,33.633c0,0.552,0.447,1,1,1h1.071C2.025,34.959,2,35.283,2,35.633v0.36
		c0,5.867,4.772,10.64,10.64,10.64h22.705c5.867,0,10.64-4.773,10.64-10.64v-0.36c0-0.35-0.025-0.674-0.071-1H47
		c0.553,0,1-0.448,1-1C48,32.651,47.97,31.697,47.926,30.755z M24,13.633c6.065,0,11,4.935,11,11c0,1.37-0.272,2.726-0.772,4h-2.194
		c0.622-1.246,0.966-2.613,0.966-4c0-4.962-4.037-9-9-9s-9,4.038-9,9c0,1.387,0.345,2.754,0.967,4h-2.186
		c-0.511-1.295-0.781-2.641-0.781-4C13,18.567,17.935,13.633,24,13.633z M43.984,35.633v0.36c0,4.764-3.876,8.64-8.64,8.64H12.64
		c-4.764,0-8.64-3.875-8.64-8.64v-0.36c0-0.357,0.027-0.667,0.095-1h1.723C7.021,34.633,8,33.654,8,32.45
		c0-1.002,0.815-1.817,1.817-1.817h5.018H15v4.5c0,1.93,1.57,3.5,3.5,3.5s3.5-1.57,3.5-3.5v-4.5h4v4.5c0,1.93,1.57,3.5,3.5,3.5
		s3.5-1.57,3.5-3.5v-4.5h0.153h5.029c1.002,0,1.817,0.815,1.817,1.817c0,1.204,0.979,2.183,2.183,2.183h1.707
		C43.957,34.965,43.984,35.275,43.984,35.633z"/>
	<path d="M47.057,28.417l0.73,0.215c-0.529-6.242-2.086-11.54-4.651-15.851l-0.569,0.563C40.916,15.028,40,17.266,40,19.633
		C40,23.822,42.968,27.516,47.057,28.417z"/>
	<path d="M13,10.633c3.309,0,6-2.691,6-6c0-0.488-0.066-0.991-0.196-1.495l-0.398-1.021c-3.3,0.887-6.356,2.545-8.906,4.898
		C9.02,7.457,8.565,7.924,8.122,8.402L8.858,8.97C10.043,10.063,11.489,10.633,13,10.633z"/>
	<path d="M8,19.633c0-2.367-0.916-4.604-2.578-6.3l-0.558-0.552c-2.565,4.31-4.121,9.607-4.65,15.848l0.662-0.195
		C5.032,27.516,8,23.822,8,19.633z"/>
</g>
<g>
</g>
<g>
</g>
<g>
</g>
<g>
</g>
<g>
</g>
<g>
</g>
<g>
</g>
<g>
</g>
<g>
</g>
<g>
</g>
<g>
</g>
<g>
</g>
<g>
</g>
<g>
</g>
<g>
</g>
</svg>
