<?xml version="1.0" encoding="iso-8859-1"?>
<!-- Generator: Adobe Illustrator 18.0.0, SVG Export Plug-In . SVG Version: 6.00 Build 0)  -->
<!DOCTYPE svg PUBLIC "-//W3C//DTD SVG 1.1//EN" "http://www.w3.org/Graphics/SVG/1.1/DTD/svg11.dtd">
<svg version="1.1" id="Capa_1" xmlns="http://www.w3.org/2000/svg" xmlns:xlink="http://www.w3.org/1999/xlink" x="0px" y="0px"
	 viewBox="0 0 49.328 49.328" style="enable-background:new 0 0 49.328 49.328;" xml:space="preserve">
<g>
	<path d="M27.664,8.867c0,3.584,2.916,6.5,6.5,6.5c2.634,0,4.99-1.573,6.003-4.007l0.074-0.144l0.7-1.125
		c-2.688-3.447-5.495-5.969-8.084-7.598l-1.955,0.757C28.903,4.412,27.664,6.558,27.664,8.867z"/>
	<path d="M48.482,23.811c-1.793-4.754-3.96-8.723-6.261-11.993l-0.241,0.387c-1.341,3.139-4.4,5.162-7.817,5.162
		c-4.687,0-8.5-3.813-8.5-8.5c0-3.05,1.653-5.882,4.313-7.393l0.133-0.063l0.43-0.167c-1.573-0.711-3.013-1.081-4.208-1.081h-3
		c-6.535,0-16.359,7.4-22.486,23.647c-1.201,3.185-1.12,6.673,0.224,9.57c1.052,2.269,3.252,4.693,6.275,4.693l0.235-0.005
		c1.136-0.047,2.266-0.479,3.269-1.25c0.707-0.543,2.162-1.462,4.587-2.216l-1.025,7.29c-0.287,1.819,0.234,3.667,1.431,5.067
		s2.94,2.204,4.782,2.204h9.618c1.842,0,3.585-0.803,4.782-2.204s1.718-3.247,1.432-5.065L35.4,35.137
		c1.537,0.619,2.533,1.263,3.079,1.682c1.003,0.772,2.134,1.205,3.269,1.251l0.236,0.005c3.022,0,5.223-2.424,6.275-4.693
		C49.602,30.484,49.683,26.995,48.482,23.811z M7.664,22.367c0-4.411,3.589-8,8-8s8,3.589,8,8s-3.589,8-8,8
		S7.664,26.778,7.664,22.367z M38.664,31.367c-2.757,0-5-2.243-5-5s2.243-5,5-5s5,2.243,5,5S41.421,31.367,38.664,31.367z"/>
</g>
<g>
</g>
<g>
</g>
<g>
</g>
<g>
</g>
<g>
</g>
<g>
</g>
<g>
</g>
<g>
</g>
<g>
</g>
<g>
</g>
<g>
</g>
<g>
</g>
<g>
</g>
<g>
</g>
<g>
</g>
</svg>
