<?xml version="1.0" encoding="iso-8859-1"?>
<!-- Generator: Adobe Illustrator 18.0.0, SVG Export Plug-In . SVG Version: 6.00 Build 0)  -->
<!DOCTYPE svg PUBLIC "-//W3C//DTD SVG 1.1//EN" "http://www.w3.org/Graphics/SVG/1.1/DTD/svg11.dtd">
<svg version="1.1" id="Capa_1" xmlns="http://www.w3.org/2000/svg" xmlns:xlink="http://www.w3.org/1999/xlink" x="0px" y="0px"
	 viewBox="0 0 60 60" style="enable-background:new 0 0 60 60;" xml:space="preserve">
<g>
	<rect x="4" y="40" width="31" height="20"/>
	<path d="M36.246,25H2.754C1.235,25,0,26.235,0,27.754v8.492C0,37.765,1.235,39,2.754,39h33.492C37.765,39,39,37.765,39,36.246
		v-8.492C39,26.235,37.765,25,36.246,25z"/>
	<path d="M57.094,0H38.906C37.304,0,36,1.304,36,2.906v18.188C36,22.696,37.304,24,38.906,24h18.188C58.696,24,60,22.696,60,21.094
		V2.906C60,1.304,58.696,0,57.094,0z M49,20h-2v-2h2V20z M54,9.583C54,12,50.989,12,50,12c-0.733,0-1,0.967-1,1.617V16h-2v-2.383
		C47,11.521,48.262,10,50,10c1.805,0,2-0.292,2-0.417V7.2C52,6.493,51.126,6,50.342,6h-3.958C45.718,6,45,6.375,45,7.2V9h-2V7.2
		C43,5.376,44.455,4,46.384,4h3.958C52.102,4,54,5.224,54,7.2V9.583z"/>
</g>
<g>
</g>
<g>
</g>
<g>
</g>
<g>
</g>
<g>
</g>
<g>
</g>
<g>
</g>
<g>
</g>
<g>
</g>
<g>
</g>
<g>
</g>
<g>
</g>
<g>
</g>
<g>
</g>
<g>
</g>
</svg>
