<?xml version="1.0" encoding="iso-8859-1"?>
<!-- Generator: Adobe Illustrator 18.0.0, SVG Export Plug-In . SVG Version: 6.00 Build 0)  -->
<!DOCTYPE svg PUBLIC "-//W3C//DTD SVG 1.1//EN" "http://www.w3.org/Graphics/SVG/1.1/DTD/svg11.dtd">
<svg version="1.1" id="Capa_1" xmlns="http://www.w3.org/2000/svg" xmlns:xlink="http://www.w3.org/1999/xlink" x="0px" y="0px"
	 viewBox="0 0 55.647 55.647" style="enable-background:new 0 0 55.647 55.647;" xml:space="preserve">
<path d="M52.795,3.82l-0.884-0.884c-1.808-1.808-4.385-2.845-7.071-2.845c-2.686,0-5.263,1.037-7.071,2.845l-11.49,11.49
	c-0.238,0.238-0.34,0.579-0.272,0.908c0.067,0.329,0.296,0.603,0.608,0.728c1.835,0.734,3.542,1.697,5.113,2.815L7.657,42.949H1
	c-0.552,0-1,0.448-1,1v5.291c0,0.552,0.448,1,1,1h4.315v4.315c0,0.552,0.448,1,1,1h5.291c0.552,0,1-0.448,1-1v-6.657L36.775,23.73
	c0.959,1.26,1.787,2.601,2.432,4.02l0.48,1.057c0.136,0.298,0.409,0.511,0.732,0.57c0.059,0.011,0.119,0.016,0.178,0.016
	c0.263,0,0.518-0.104,0.707-0.293l11.49-11.49C56.597,13.808,56.597,7.622,52.795,3.82z"/>
<g>
</g>
<g>
</g>
<g>
</g>
<g>
</g>
<g>
</g>
<g>
</g>
<g>
</g>
<g>
</g>
<g>
</g>
<g>
</g>
<g>
</g>
<g>
</g>
<g>
</g>
<g>
</g>
<g>
</g>
</svg>
