<?xml version="1.0" encoding="iso-8859-1"?>
<!-- Generator: Adobe Illustrator 18.0.0, SVG Export Plug-In . SVG Version: 6.00 Build 0)  -->
<!DOCTYPE svg PUBLIC "-//W3C//DTD SVG 1.1//EN" "http://www.w3.org/Graphics/SVG/1.1/DTD/svg11.dtd">
<svg version="1.1" id="Capa_1" xmlns="http://www.w3.org/2000/svg" xmlns:xlink="http://www.w3.org/1999/xlink" x="0px" y="0px"
	 viewBox="0 0 59.001 59.001" style="enable-background:new 0 0 59.001 59.001;" xml:space="preserve">
<g>
	<path d="M55.09,25.192c-0.441-0.323-1.058-0.23-1.386,0.203c-0.534,0.703-4.532,2.198-8.333,3.316
		c-0.005-2.123,1.191-4.125,3.168-5.114l5.319-2.899c0.246-0.134,0.425-0.366,0.492-0.638c0.067-0.273,0.017-0.561-0.139-0.794
		l-0.143-0.213c-1.178-1.769-2.787-3.202-5.218-4.646l-0.408-0.239c-0.67-0.389-1.249-0.725-1.679-1.223
		c-2.466-2.854-1.307-7.652-1.295-7.7c0.092-0.369-0.032-0.758-0.322-1.004c-0.29-0.247-0.693-0.308-1.041-0.158l-6.422,2.752
		l-7.526-6.585c-0.377-0.33-0.939-0.33-1.316,0l-7.526,6.585l-6.422-2.752c-0.348-0.151-0.753-0.088-1.043,0.158
		c-0.289,0.247-0.413,0.637-0.32,1.006c0.013,0.048,1.184,4.83-1.295,7.699c-0.43,0.498-1.009,0.834-1.679,1.223l-0.408,0.239
		c-2.431,1.445-4.04,2.877-5.218,4.646l-0.143,0.214c-0.155,0.233-0.206,0.521-0.139,0.794c0.067,0.272,0.246,0.504,0.492,0.638
		l5.351,2.916c1.95,0.975,3.143,2.975,3.137,5.097c-3.801-1.118-7.799-2.614-8.333-3.316c-0.328-0.433-0.943-0.525-1.386-0.203
		c-0.439,0.321-0.542,0.935-0.229,1.381l7,10c0.304,0.432,0.891,0.556,1.341,0.28c0.012-0.008,1.251-0.739,2.75-0.739
		c3.643,0,5.133,4.377,5.758,8.125c0.06,0.252,0.141,1.002-0.203,1.438c-0.37,0.468-1.307,0.591-2.642,0.34
		c-0.396-0.076-0.791,0.093-1.013,0.423c-0.224,0.33-0.229,0.761-0.016,1.097l7,11c0.189,0.298,0.497,0.482,0.878,0.462
		c0.354-0.012,0.675-0.21,0.844-0.521c0.021-0.039,0.521-0.959,1.121-2.474c2.619-6.61,2.089-14.135-1.457-20.647
		c-2.115-3.888-5.141-11.517-1.626-18.957C23.427,16.377,24.604,14,29.5,14c4.872,0,6.044,2.318,6.096,2.427
		c3.503,7.414,0.478,15.043-1.638,18.931c-3.546,6.512-4.076,14.037-1.457,20.647c0.601,1.514,1.1,2.435,1.121,2.474
		c0.169,0.311,0.49,0.509,0.844,0.521c0.012,0,0.023,0,0.034,0c0.341,0,0.66-0.174,0.844-0.463l7-11
		c0.214-0.336,0.208-0.768-0.016-1.097c-0.223-0.33-0.619-0.498-1.013-0.423c-1.331,0.25-2.273,0.128-2.643-0.34
		c-0.343-0.435-0.262-1.185-0.187-1.513c0.609-3.672,2.1-8.049,5.742-8.049c1.501,0,2.741,0.734,2.75,0.739
		c0.452,0.278,1.04,0.152,1.341-0.28l7-10C55.632,26.127,55.53,25.513,55.09,25.192z"/>
	<path d="M35.314,23.419l-5-7c-0.375-0.526-1.252-0.526-1.627,0l-5,7c-0.249,0.348-0.249,0.814,0,1.162l5,7
		C28.874,31.844,29.177,32,29.5,32s0.626-0.156,0.813-0.419l5-7C35.563,24.233,35.563,23.767,35.314,23.419z"/>
</g>
<g>
</g>
<g>
</g>
<g>
</g>
<g>
</g>
<g>
</g>
<g>
</g>
<g>
</g>
<g>
</g>
<g>
</g>
<g>
</g>
<g>
</g>
<g>
</g>
<g>
</g>
<g>
</g>
<g>
</g>
</svg>
