<?xml version="1.0" encoding="iso-8859-1"?>
<!-- Generator: Adobe Illustrator 18.0.0, SVG Export Plug-In . SVG Version: 6.00 Build 0)  -->
<!DOCTYPE svg PUBLIC "-//W3C//DTD SVG 1.1//EN" "http://www.w3.org/Graphics/SVG/1.1/DTD/svg11.dtd">
<svg version="1.1" id="Capa_1" xmlns="http://www.w3.org/2000/svg" xmlns:xlink="http://www.w3.org/1999/xlink" x="0px" y="0px"
	 viewBox="0 0 57 57" style="enable-background:new 0 0 57 57;" xml:space="preserve">
<g>
	<polygon points="11.914,26 14.086,26 20.086,20 17.914,20 	"/>
	<polygon points="45.914,26 48.5,26 48.5,23.414 	"/>
	<polygon points="39.086,20 36.914,20 32.5,24.414 32.5,26 33.086,26 	"/>
	<polygon points="16.914,26 19.086,26 24.5,20.586 24.5,20 22.914,20 	"/>
	<polygon points="34.086,20 32.5,20 32.5,21.586 	"/>
	<polygon points="40.914,26 43.086,26 48.5,20.586 48.5,20 46.914,20 	"/>
	<polygon points="35.914,26 38.086,26 44.086,20 41.914,20 	"/>
	<polygon points="21.914,26 24.5,26 24.5,23.414 	"/>
	<polygon points="51.5,45 51.5,49 11.5,49 11.5,45 0.5,45 0.5,57 56.5,57 56.5,45 	"/>
	<polygon points="6.5,14 6.5,8 23.5,8 23.5,5 42.5,5 42.5,10 56.5,10 56.5,0 0.5,0 0.5,14 	"/>
	<path d="M49.5,47v-4h7V12h-16V7h-15v3h-17v6h-8v27h13v4H49.5z M38.5,44h-20v-6h20V44z M30.5,18h20v10h-20V18z M6.5,28V18h20v10H6.5
		z"/>
	<polygon points="15.086,20 12.914,20 8.5,24.414 8.5,26 9.086,26 	"/>
	<polygon points="10.086,20 8.5,20 8.5,21.586 	"/>
</g>
<g>
</g>
<g>
</g>
<g>
</g>
<g>
</g>
<g>
</g>
<g>
</g>
<g>
</g>
<g>
</g>
<g>
</g>
<g>
</g>
<g>
</g>
<g>
</g>
<g>
</g>
<g>
</g>
<g>
</g>
</svg>
