<?xml version="1.0" encoding="iso-8859-1"?>
<!-- Generator: Adobe Illustrator 16.0.0, SVG Export Plug-In . SVG Version: 6.00 Build 0)  -->
<!DOCTYPE svg PUBLIC "-//W3C//DTD SVG 1.1//EN" "http://www.w3.org/Graphics/SVG/1.1/DTD/svg11.dtd">
<svg version="1.1" id="Capa_1" xmlns="http://www.w3.org/2000/svg" xmlns:xlink="http://www.w3.org/1999/xlink" x="0px" y="0px"
	 width="788.7px" height="788.699px" viewBox="0 0 788.7 788.699" style="enable-background:new 0 0 788.7 788.699;"
	 xml:space="preserve">
<g>
	<path d="M594,521.801c-48.199-20-68.699-34.4-68.699-63.201c0-22.199,16.1-47.699,58.8-47.699c35.5,0,58.2,12.199,69.899,18.9
		l13.9-36.601c-16.1-9.4-38.8-18.3-72.1-19.4V320h-34.4v56c-51,8.3-83.7,43.199-83.7,89.199c0,48.201,34.9,73.701,91.5,95.9
		c41,16.6,62.601,35.5,62.601,66c0,31.6-26.601,54.301-66,54.301c-31.101,0-59.9-10.5-79.801-23.801l-13.3,37.1
		c19.4,13.9,52.7,23.801,84.8,24.4v56h34.9V717.4c57.1-9.4,87.6-50.5,87.6-94.201C679.9,573.9,651.1,545.1,594,521.801z"/>
	<g>
		<circle cx="258.7" cy="89.7" r="89.7"/>
		<path d="M551.1,192.5H358.5H356.8h-35.3l-2.8,17.4l-8.4,52.3l-10.2,63.3h-12.6h-0.7l-8.6-97.4l10-35.6h-59.1l10,35.6l-8.6,97.4
			h-0.6h-12.6l-8-50l-10.1-62.9l-3.2-20.1h-37h-0.1l0,0c-27.7,0.1-50.2,22.6-50.2,50.3v214.501c0,27.799,22.5,50.299,50.3,50.299
			V738.4c0,27.799,22.5,50.299,50.3,50.299c24.6,0,45-17.6,49.5-40.898c4.4,23.299,24.9,40.898,49.5,40.898
			c27.8,0,50.3-22.5,50.3-50.299V482.5v-89.4v-99.9h192.6c27.8,0,50.3-22.5,50.3-50.3C601.4,215,578.9,192.5,551.1,192.5z"/>
	</g>
</g>
<g>
</g>
<g>
</g>
<g>
</g>
<g>
</g>
<g>
</g>
<g>
</g>
<g>
</g>
<g>
</g>
<g>
</g>
<g>
</g>
<g>
</g>
<g>
</g>
<g>
</g>
<g>
</g>
<g>
</g>
</svg>
