<?xml version="1.0" encoding="iso-8859-1"?>
<!-- Generator: Adobe Illustrator 19.0.0, SVG Export Plug-In . SVG Version: 6.00 Build 0)  -->
<svg version="1.1" id="Layer_1" xmlns="http://www.w3.org/2000/svg" xmlns:xlink="http://www.w3.org/1999/xlink" x="0px" y="0px"
	 viewBox="0 0 512 512" style="enable-background:new 0 0 512 512;" xml:space="preserve">
<g>
	<g>
		<path d="M297.514,83.027V0H20.757v442.811h213.274c-3.758-13.338-5.707-27.276-5.707-41.513
			c0-40.658,15.833-78.884,44.583-107.633c28.751-28.749,66.975-44.583,107.633-44.583V83.027H297.514z M103.784,96.865h96.865
			v41.513h-96.865V96.865z M297.514,207.568h-193.73v-41.513h193.73V207.568z"/>
	</g>
</g>
<g>
	<g>
		<path d="M380.541,290.595c-61.14,0-110.703,49.563-110.703,110.703S319.401,512,380.541,512s110.703-49.563,110.703-110.703
			S441.68,290.595,380.541,290.595z M401.297,422.054c0-11.445-9.311-20.757-20.757-20.757c-11.445,0-20.757,9.311-20.757,20.757
			h-27.676c0-19.333,11.39-36.05,27.81-43.811c1.143-10.381,9.936-18.46,20.623-18.46s19.48,8.079,20.623,18.46
			c16.42,7.76,27.81,24.478,27.81,43.811H401.297z"/>
	</g>
</g>
<g>
</g>
<g>
</g>
<g>
</g>
<g>
</g>
<g>
</g>
<g>
</g>
<g>
</g>
<g>
</g>
<g>
</g>
<g>
</g>
<g>
</g>
<g>
</g>
<g>
</g>
<g>
</g>
<g>
</g>
</svg>
