<?xml version="1.0" encoding="iso-8859-1"?>
<!-- Generator: Adobe Illustrator 19.0.0, SVG Export Plug-In . SVG Version: 6.00 Build 0)  -->
<svg version="1.1" id="Layer_1" xmlns="http://www.w3.org/2000/svg" xmlns:xlink="http://www.w3.org/1999/xlink" x="0px" y="0px"
	 viewBox="0 0 512 512" style="enable-background:new 0 0 512 512;" xml:space="preserve">
<g>
	<g>
		<path d="M297.514,83.027V0H20.757v442.811h213.274c-3.758-13.338-5.707-27.276-5.707-41.513
			c0-40.658,15.832-78.884,44.584-107.632c28.748-28.752,66.974-44.584,107.632-44.584V83.027H297.514z M103.784,96.865h96.865
			v41.513h-96.865V96.865z M297.514,207.568h-193.73v-41.513h193.73V207.568z"/>
	</g>
</g>
<g>
	<g>
		<path d="M380.541,290.595c-61.14,0-110.703,49.562-110.703,110.703S319.401,512,380.541,512s110.703-49.562,110.703-110.703
			S441.68,290.595,380.541,290.595z M424.892,413.059c-4.861,8.4-6.192,21.076-14.592,25.938c-0.67,0.388-1.37,0.688-2.084,0.952
			v30.537l-27.676-13.838l-27.676,13.838v-30.537c-0.714-0.263-1.413-0.563-2.084-0.952c-8.4-4.861-9.731-17.538-14.592-25.938
			c-4.71-8.141-15.151-15.516-15.151-25.6s10.441-17.459,15.151-25.6c4.861-8.4,6.192-21.076,14.592-25.938
			c8.144-4.71,19.676,0.338,29.76,0.338s21.616-5.047,29.76-0.336c8.4,4.86,9.731,17.537,14.592,25.936
			c4.71,8.141,15.151,15.516,15.151,25.6S429.603,404.919,424.892,413.059z"/>
	</g>
</g>
<g>
	<g>
		<circle cx="380.541" cy="387.459" r="27.676"/>
	</g>
</g>
<g>
</g>
<g>
</g>
<g>
</g>
<g>
</g>
<g>
</g>
<g>
</g>
<g>
</g>
<g>
</g>
<g>
</g>
<g>
</g>
<g>
</g>
<g>
</g>
<g>
</g>
<g>
</g>
<g>
</g>
</svg>
