<?xml version="1.0" encoding="iso-8859-1"?>
<!-- Generator: Adobe Illustrator 19.0.0, SVG Export Plug-In . SVG Version: 6.00 Build 0)  -->
<svg version="1.1" id="Layer_1" xmlns="http://www.w3.org/2000/svg" xmlns:xlink="http://www.w3.org/1999/xlink" x="0px" y="0px"
	 viewBox="0 0 512 512" style="enable-background:new 0 0 512 512;" xml:space="preserve">
<g>
	<g>
		<path d="M297.514,83.027V0H20.757v442.811h213.274c-3.758-13.338-5.707-27.276-5.707-41.513
			c0-40.658,15.832-78.884,44.584-107.633c28.748-28.749,66.974-44.583,107.632-44.583V83.027H297.514z M103.784,96.865h96.865
			v41.513h-96.865V96.865z M297.514,207.568h-193.73v-41.513h193.73V207.568z"/>
	</g>
</g>
<g>
	<g>
		<path d="M380.541,290.595c-61.14,0-110.703,49.563-110.703,110.703S319.401,512,380.541,512s110.703-49.563,110.703-110.703
			S441.68,290.595,380.541,290.595z M380.541,470.487c-38.212,0-69.189-30.977-69.189-69.189c0-38.212,30.977-69.189,69.189-69.189
			c38.21,0,69.189,30.977,69.189,69.189C449.73,439.509,418.751,470.487,380.541,470.487z"/>
	</g>
</g>
<g>
	<g>
		<path d="M418.221,383.881l-55.577,54.881c5.419,2.593,11.488,4.049,17.896,4.049c22.925,0,41.512-18.586,41.512-41.513
			C422.053,395.076,420.674,389.178,418.221,383.881z"/>
	</g>
</g>
<g>
	<g>
		<path d="M380.541,359.784c-22.927,0-41.513,18.586-41.513,41.513c0,6.408,1.454,12.476,4.048,17.896l55.826-55.13
			C393.364,361.328,387.134,359.784,380.541,359.784z"/>
	</g>
</g>
<g>
</g>
<g>
</g>
<g>
</g>
<g>
</g>
<g>
</g>
<g>
</g>
<g>
</g>
<g>
</g>
<g>
</g>
<g>
</g>
<g>
</g>
<g>
</g>
<g>
</g>
<g>
</g>
<g>
</g>
</svg>
