<?xml version="1.0" encoding="iso-8859-1"?>
<!-- Generator: Adobe Illustrator 19.0.0, SVG Export Plug-In . SVG Version: 6.00 Build 0)  -->
<svg version="1.1" id="Layer_1" xmlns="http://www.w3.org/2000/svg" xmlns:xlink="http://www.w3.org/1999/xlink" x="0px" y="0px"
	 viewBox="0 0 512 512" style="enable-background:new 0 0 512 512;" xml:space="preserve">
<g>
	<g>
		<path d="M297.514,83.027V0H20.757v442.811h213.274c-3.758-13.338-5.707-27.276-5.707-41.513
			c0-40.658,15.833-78.884,44.584-107.632c28.748-28.752,66.974-44.584,107.632-44.584V83.027H297.514z M103.784,96.865h96.865
			v41.513h-96.865V96.865z M297.514,207.568h-193.73v-41.513h193.73V207.568z"/>
	</g>
</g>
<g>
	<g>
		<path d="M380.541,290.595c-61.14,0-110.703,49.562-110.703,110.703S319.401,512,380.541,512s110.703-49.562,110.703-110.703
			S441.68,290.595,380.541,290.595z M415.135,375.928c0,10.026-4.27,19.051-11.084,25.369c6.814,6.318,11.084,15.343,11.084,25.369
			v16.145h-69.189v-16.145c0-10.025,4.27-19.051,11.084-25.369c-6.814-6.318-11.084-15.343-11.084-25.369v-16.145h69.189V375.928z"
			/>
	</g>
</g>
<g>
</g>
<g>
</g>
<g>
</g>
<g>
</g>
<g>
</g>
<g>
</g>
<g>
</g>
<g>
</g>
<g>
</g>
<g>
</g>
<g>
</g>
<g>
</g>
<g>
</g>
<g>
</g>
<g>
</g>
</svg>
