<?xml version="1.0" encoding="iso-8859-1"?>
<!-- Generator: Adobe Illustrator 19.0.0, SVG Export Plug-In . SVG Version: 6.00 Build 0)  -->
<svg version="1.1" id="Layer_1" xmlns="http://www.w3.org/2000/svg" xmlns:xlink="http://www.w3.org/1999/xlink" x="0px" y="0px"
	 viewBox="0 0 512 512" style="enable-background:new 0 0 512 512;" xml:space="preserve">
<g>
	<g>
		<path d="M0,172.8v192h268.8c0-37.609,14.646-72.968,41.24-99.561C336.632,238.646,371.991,224,409.6,224v-51.2H0z"/>
	</g>
</g>
<g>
	<g>
		<polygon points="204.8,83.2 179.2,44.8 0,44.8 0,134.4 409.6,134.4 409.6,83.2 		"/>
	</g>
</g>
<g>
	<g>
		<path d="M409.6,262.4c-56.554,0-102.4,45.846-102.4,102.4c0,56.554,45.846,102.4,102.4,102.4c56.554,0,102.4-45.846,102.4-102.4
			S466.154,262.4,409.6,262.4z M409.6,403.2c0,0-42.666-25.6-42.666-51.2c0-14.138,10.42-25.6,23.273-25.6
			c8.097,0,15.224,4.55,19.393,11.451c4.169-6.9,11.296-11.451,19.393-11.451c12.852,0,23.273,11.462,23.273,25.6
			C452.266,377.6,409.6,403.2,409.6,403.2z"/>
	</g>
</g>
<g>
</g>
<g>
</g>
<g>
</g>
<g>
</g>
<g>
</g>
<g>
</g>
<g>
</g>
<g>
</g>
<g>
</g>
<g>
</g>
<g>
</g>
<g>
</g>
<g>
</g>
<g>
</g>
<g>
</g>
</svg>
