<?xml version="1.0" encoding="iso-8859-1"?>
<!-- Generator: Adobe Illustrator 19.0.0, SVG Export Plug-In . SVG Version: 6.00 Build 0)  -->
<svg version="1.1" id="Layer_1" xmlns="http://www.w3.org/2000/svg" xmlns:xlink="http://www.w3.org/1999/xlink" x="0px" y="0px"
	 viewBox="0 0 512 512" style="enable-background:new 0 0 512 512;" xml:space="preserve">
<g>
	<g>
		<path d="M0,172.8v192h268.8c0-37.609,14.644-72.968,41.24-99.561C336.632,238.646,371.991,224,409.6,224v-51.2H0z"/>
	</g>
</g>
<g>
	<g>
		<polygon points="204.8,83.2 179.2,44.8 0,44.8 0,134.4 409.6,134.4 409.6,83.2 		"/>
	</g>
</g>
<g>
	<g>
		<path d="M409.6,262.4c-56.554,0-102.4,45.846-102.4,102.4c0,56.554,45.846,102.4,102.4,102.4c56.554,0,102.4-45.846,102.4-102.4
			S466.154,262.4,409.6,262.4z M409.6,396.8c-26.51,0-48-32-48-32s21.49-32,48-32s48,32,48,32S436.11,396.8,409.6,396.8z"/>
	</g>
</g>
<g>
	<g>
		<circle cx="409.6" cy="364.8" r="12.8"/>
	</g>
</g>
<g>
</g>
<g>
</g>
<g>
</g>
<g>
</g>
<g>
</g>
<g>
</g>
<g>
</g>
<g>
</g>
<g>
</g>
<g>
</g>
<g>
</g>
<g>
</g>
<g>
</g>
<g>
</g>
<g>
</g>
</svg>
