<?xml version="1.0" encoding="iso-8859-1"?>
<!-- Generator: Adobe Illustrator 19.0.0, SVG Export Plug-In . SVG Version: 6.00 Build 0)  -->
<svg version="1.1" id="Layer_1" xmlns="http://www.w3.org/2000/svg" xmlns:xlink="http://www.w3.org/1999/xlink" x="0px" y="0px"
	 viewBox="0 0 512 512" style="enable-background:new 0 0 512 512;" xml:space="preserve">
<g>
	<g>
		<path d="M512,216H0v96h179.667c-2.381,7.576-3.667,15.637-3.667,24s1.288,16.424,3.667,24H0v96h512v-96h-84.128
			c2.664-7.512,4.128-15.587,4.128-24s-1.464-16.488-4.128-24H512V216z M256,368c-17.645,0-32-14.355-32-32s14.355-32,32-32
			s32,14.355,32,32S273.645,368,256,368z M360,360h-27.667c2.381-7.576,3.667-15.637,3.667-24s-1.288-16.424-3.667-24H360
			c13.254,0,24,10.746,24,24S373.254,360,360,360z"/>
	</g>
</g>
<g>
	<g>
		<polygon points="256,104 224,56 0,56 0,168 512,168 512,104 		"/>
	</g>
</g>
<g>
</g>
<g>
</g>
<g>
</g>
<g>
</g>
<g>
</g>
<g>
</g>
<g>
</g>
<g>
</g>
<g>
</g>
<g>
</g>
<g>
</g>
<g>
</g>
<g>
</g>
<g>
</g>
<g>
</g>
</svg>
