<?xml version="1.0" encoding="iso-8859-1"?>
<!-- Generator: Adobe Illustrator 19.0.0, SVG Export Plug-In . SVG Version: 6.00 Build 0)  -->
<svg xmlns="http://www.w3.org/2000/svg" xmlns:xlink="http://www.w3.org/1999/xlink" version="1.1" id="Capa_1" x="0px" y="0px" viewBox="0 0 512 512" style="enable-background:new 0 0 512 512;" xml:space="preserve">
<g>
	<g>
		<path d="M453.116,123.876h-12.945c-9.864,9.754-23.412,15.789-38.347,15.789c-14.935,0-28.484-6.035-38.348-15.789h-12.625    c-24.732,0-45.657,20.121-45.782,44.854v139.946c-0.052,10.521,8.433,19.092,18.954,19.144c0.032,0,0.064,0,0.098,0    c10.476,0,18.994-8.466,19.047-18.953V168.922c-0.001-0.064-0.002-0.129-0.002-0.192c0-2.282,1.849-4.131,4.131-4.131    s4.131,1.849,4.131,4.131v320.411c0,12.902,10.687,23.306,23.692,22.844c12.387-0.44,22.026-10.997,22.026-23.391V306.428h9.87    v182.166c0,12.395,9.638,22.952,22.026,23.391c13.004,0.462,23.692-9.942,23.692-22.844V168.939c0-2.03,1.642-3.677,3.673-3.683    s3.682,1.632,3.693,3.663c0,0.001,0,0.001,0,0.002v139.946c0.053,10.488,9.273,18.953,19.75,18.953c0.032,0,0.065,0,0.098,0    c10.521-0.052,19.006-8.624,18.954-19.144V168.73C498.775,143.997,477.849,123.876,453.116,123.876z"/>
	</g>
</g>
<g>
	<g>
		<circle cx="401.827" cy="85.095" r="39.484"/>
	</g>
</g>
<g>
	<g>
		<path d="M286.554,0c-35.783,0-64.79,18.343-64.79,40.972c0,6.505,2.408,12.651,6.673,18.114v17.94h27.316    c9.16,3.136,19.651,4.918,30.8,4.918c35.782-0.001,64.79-18.344,64.79-40.972C351.343,18.343,322.335,0,286.554,0z"/>
	</g>
</g>
<g>
	<g>
		<path d="M180.529,369.115l-16.117-48.104c-2.513,4.14-5.917,7.718-10.061,10.492c-9.477,6.346-21.683,7.625-32.662,2.669    l15.08,45.008l-6.766,109.086c-0.795,12.828,9.38,23.729,22.325,23.729c11.708-0.001,21.546-9.117,22.281-20.963l7.034-113.435    C181.821,374.724,181.442,371.845,180.529,369.115z"/>
	</g>
</g>
<g>
	<g>
		<path d="M115.229,239.607l22.969-55.208l-7.223,51.596l21.426,31.999l15.49-104.098c-22.01-0.514-40.992-13.57-49.825-32.833    l-0.202-0.045c-6.502-6.799-17.223-7.715-24.816-1.82L20.29,185.673c-6.711,5.209-9.037,14.305-5.649,22.095l32.449,74.627    c1.366,3.143,3.502,5.712,6.085,7.595l4.78,87.528L30.25,484.023c-3.107,11.944,4.056,24.144,16,27.251    c11.942,3.107,24.145-4.056,27.251-16l26.666-102.508c1.271-4.883,1.812-9.928,1.607-14.969l-2.78-68.37l-32.807-48.999    c-7.165-10.701-7.142-24.313-2.471-33.032l-9.223-21.212l16.396-12.727l-6.637,33.039c0.69-1.098-2.957,4.005,38.12-52.943    l-25.363,60.963c-2.396,5.758-1.75,12.332,1.72,17.514l41.392,61.818c5.774,8.624,17.395,10.764,25.833,5.112    c8.522-5.706,10.855-17.255,5.113-25.833C145.882,285.387,120.433,247.38,115.229,239.607z"/>
	</g>
</g>
<g>
	<g>
		<path d="M176.782,67.341c-22.308-4.219-43.805,10.449-48.022,32.747c-4.218,22.304,10.443,43.804,32.747,48.022    c22.312,4.219,43.805-10.451,48.022-32.747C213.747,93.059,199.085,71.559,176.782,67.341z"/>
	</g>
</g>
<g>
</g>
<g>
</g>
<g>
</g>
<g>
</g>
<g>
</g>
<g>
</g>
<g>
</g>
<g>
</g>
<g>
</g>
<g>
</g>
<g>
</g>
<g>
</g>
<g>
</g>
<g>
</g>
<g>
</g>
</svg>
