<?xml version="1.0" encoding="iso-8859-1"?>
<!-- Generator: Adobe Illustrator 19.0.0, SVG Export Plug-In . SVG Version: 6.00 Build 0)  -->
<svg xmlns="http://www.w3.org/2000/svg" xmlns:xlink="http://www.w3.org/1999/xlink" version="1.1" id="Capa_1" x="0px" y="0px" viewBox="0 0 511.999 511.999" style="enable-background:new 0 0 511.999 511.999;" xml:space="preserve">
<g>
	<g>
		<path d="M417.071,242.719c-5.415-13.499-17.393-40.602-27.696-61.795c-7.25-14.91-22.652-24.545-39.237-24.545    c-4.313,0-102.123,0-104.863,0c-4.059-0.555-19.393-2.852-36.447-5.425l31.538-33.732c0.542-0.58,1.027-1.191,1.483-1.817    c3.272,4.653,8.683,7.694,14.81,7.664c2.579-0.012,4.646-2.154,4.646-4.733v-10.704c1.752,20.242,18.728,36.129,39.425,36.129    c19.769,0,36.15-14.493,39.106-33.433v8.007c0,2.631,2.154,4.741,4.785,4.733c9.917-0.028,17.947-8.075,17.947-17.999v-6.04    c0-7.65-4.781-14.169-11.511-16.774c-3.182-25.035-24.601-44.46-50.487-44.46c-25.886,0-47.305,19.424-50.487,44.46    c-4.254,1.646-7.715,4.857-9.694,8.933c-7.685-8.258-20.477-8.023-27.925-0.055l-56.308,60.224    c-2.879,3.079-4.592,6.955-5.029,10.999h99.224c12.884,0.001,23.328,10.446,23.328,23.331v78.132    c0,12.885-10.444,23.329-23.329,23.329h-0.412v10.833h53.122c-0.935-1.464-1.773-3.016-2.495-4.655    c-7.623-17.306,0.227-37.516,17.533-45.138l33.008-14.539v-35.116c0-0.961,0.664-1.794,1.599-2.01    c0.936-0.215,1.898,0.244,2.317,1.108c6.834,14.057,14.023,29.936,19.399,42.292L325.824,261.4    c-9.647,4.257-14.02,15.526-9.769,25.175c4.254,9.658,15.534,14.036,25.189,9.776l65.794-29.056    C416.458,263.144,420.895,252.277,417.071,242.719z M300.571,52.811c19.236,0,34.984,15.212,35.854,34.237    c-6.387-13.284-19.97-22.453-35.695-22.453c-16.016,0-29.802,9.518-36.033,23.202C265.183,68.424,281.083,52.811,300.571,52.811z"/>
	</g>
</g>
<g>
	<g>
		<path d="M276.904,440.037l-10.36-66.989h-43.231l11.369,73.518c1.803,11.652,12.708,19.65,24.376,17.846    C270.716,462.609,278.706,451.695,276.904,440.037z"/>
	</g>
</g>
<g>
	<g>
		<path d="M330.956,373.048l-10.359,66.989c-1.803,11.658,6.188,22.572,17.846,24.375c11.666,1.804,22.573-6.193,24.376-17.846    l11.369-73.518H330.956z"/>
	</g>
</g>
<g>
	<g>
		<path d="M417.159,313.631h-181.8c1.027-1.63,1.629-3.554,1.629-5.623c0-5.901-4.819-10.574-10.573-10.574h-24.537    c0-5.421,0-19.89,0-25.299h48.472c4.593,0,8.315-3.723,8.315-8.315v-78.132c0-4.592-3.723-8.315-8.315-8.315H118.942    c-4.592,0-8.315,3.723-8.315,8.315v78.132c0,4.592,3.723,8.315,8.315,8.315h48.472c0,5.416,0,19.86,0,25.299h-24.537    c-5.753,0-10.573,4.671-10.573,10.574c0,2.069,0.603,3.993,1.629,5.623h-22.722c-12.086,0-21.883,9.797-21.885,21.882    c0,0.001,0,0.001,0,0.002c0,0.001,0,0.002,0,0.002c0.001,11.477,8.84,20.884,20.081,21.802c0,6.051,0,133.196,0,138.82    c0,8.76,7.102,15.861,15.862,15.861s15.862-7.101,15.862-15.861c0-4.634,0-132.04,0-138.74h247.267c0,11.872,0,132.04,0,138.74    c0,8.76,7.102,15.861,15.862,15.861s15.862-7.101,15.862-15.861c0-6.853,0-128.258,0-138.945    c10.684-1.447,18.921-10.598,18.921-21.679C439.043,323.428,429.245,313.631,417.159,313.631z M184.647,239.292    c-8.03,0-14.54-6.51-14.54-14.54c0-8.03,6.51-14.54,14.54-14.54c8.03,0,14.54,6.51,14.54,14.54    C199.187,232.782,192.677,239.292,184.647,239.292z"/>
	</g>
</g>
<g>
	<g>
		<path d="M434.173,0c-36.944,0-66.894,18.939-66.894,42.302c0,6.716,2.486,13.063,6.89,18.703v18.522h28.203    c9.458,3.238,20.289,5.078,31.799,5.078c36.944,0,66.894-18.939,66.894-42.302C501.067,18.939,471.117,0,434.173,0z"/>
	</g>
</g>
<g>
	<g>
		<path d="M76.73,67.784c-36.339,0-65.797,18.629-65.797,41.608S40.391,151,76.73,151c11.322,0,21.976-1.81,31.279-4.994h27.741    v-18.218c4.332-5.547,6.777-11.791,6.777-18.395C142.526,86.412,113.068,67.784,76.73,67.784z"/>
	</g>
</g>
<g>
</g>
<g>
</g>
<g>
</g>
<g>
</g>
<g>
</g>
<g>
</g>
<g>
</g>
<g>
</g>
<g>
</g>
<g>
</g>
<g>
</g>
<g>
</g>
<g>
</g>
<g>
</g>
<g>
</g>
</svg>
