<?xml version="1.0" encoding="iso-8859-1"?>
<!-- Generator: Adobe Illustrator 19.0.0, SVG Export Plug-In . SVG Version: 6.00 Build 0)  -->
<svg xmlns="http://www.w3.org/2000/svg" xmlns:xlink="http://www.w3.org/1999/xlink" version="1.1" id="Capa_1" x="0px" y="0px" viewBox="0 0 512.001 512.001" style="enable-background:new 0 0 512.001 512.001;" xml:space="preserve">
<g>
	<g>
		<path d="M158.347,53.86c-21.968-3.008-42.214,12.363-45.223,34.33c-3.008,21.97,12.362,42.217,34.33,45.224    c10.712,1.466,21.009-1.445,29.103-7.353c-10.002-1.553-15.179-12.839-11.657-23.496c3.269-9.891,12.785-15.641,21.252-12.843    c2.802,0.926,5.125,2.683,6.878,4.964C193.584,74.475,178.839,56.667,158.347,53.86z"/>
	</g>
</g>
<g>
	<g>
		<path d="M224.674,122.801c-10.917-4.05-23.049,1.52-27.097,12.437l-20.538,55.388l-26.488-22.762l13.595,6.468l4.072-10.981    c-3.977-7.339-11.271-12.752-20.174-13.971l-47.918-6.561c-14.84-2.032-28.517,8.352-30.549,23.191    c-0.133,0.969-14.776,108.453-18.113,132.946c-0.446,3.275-0.496,6.591-0.149,9.878l8.412,79.726L20.25,481.644    c-4.707,11.098,0.474,23.911,11.573,28.617c11.102,4.708,23.913-0.479,28.617-11.573l41.683-98.283    c1.446-3.411,2.002-7.134,1.611-10.819l-8.423-79.604l12.475,1.709l13.534,78.424l5.099,101.151    c0.609,12.074,10.901,21.312,22.898,20.701c12.04-0.607,21.308-10.859,20.701-22.898l-5.165-102.467    c-0.044-0.876-0.141-1.75-0.29-2.613l-11.859-68.71l8.161-59.61l-37.795-55.824l49.466,42.506    c11.107,9.545,28.395,5.129,33.507-8.66l31.068-83.792C241.16,138.98,235.592,126.848,224.674,122.801z"/>
	</g>
</g>
<g>
	<g>
		<path d="M398.876,88.19c-3.008-21.968-23.255-37.338-45.223-34.33s-37.338,23.255-34.33,45.223    c0.354,2.588,0.956,5.08,1.763,7.464c1.655-4.37,4.885-7.836,9.27-9.285c8.468-2.799,17.982,2.951,21.252,12.843    c2.802,8.476,0.097,17.226-6.057,21.322c5.891,2.118,12.363,2.895,18.995,1.987C386.514,130.406,401.884,110.159,398.876,88.19z"/>
	</g>
</g>
<g>
	<g>
		<path d="M491.75,481.645l-39.477-93.083c9.461-89.411,8.881-83.801,8.933-84.675l0.091-0.012c0,0-2.709-19.791-18.875-137.863    c-0.507-3.703-1.74-7.129-3.534-10.154l-20.555,16.418l37.982-52.245c1.82-2.503,3.066-5.377,3.65-8.416l16.643-86.548    c2.199-11.433-5.288-22.485-16.722-24.684c-11.431-2.196-22.484,5.288-24.684,16.722l-15.756,81.933l-34.871,47.521l-20.622,2.824    c-14.841,2.032-25.223,15.709-23.191,30.549l1.638,11.964l-13.555,23.168l-44.686-26.825c-9.982-5.992-22.934-2.758-28.926,7.225    c-5.992,9.983-2.758,22.934,7.225,28.926l62.965,37.799c8.317,4.992,19.163,3.744,26.114-3.564l7.757,56.653    c-12.812,74.235-12.054,69.447-12.149,71.324l-5.165,102.468c-0.628,12.441,9.279,22.927,21.818,22.927    c11.551-0.001,21.193-9.064,21.782-20.729l5.099-101.153l13.534-78.422l12.475-1.709l-8.423,79.604    c-0.39,3.684,0.165,7.408,1.611,10.819l41.683,98.283c4.707,11.1,17.522,16.279,28.617,11.573    C491.276,505.555,496.458,492.743,491.75,481.645z"/>
	</g>
</g>
<g>
</g>
<g>
</g>
<g>
</g>
<g>
</g>
<g>
</g>
<g>
</g>
<g>
</g>
<g>
</g>
<g>
</g>
<g>
</g>
<g>
</g>
<g>
</g>
<g>
</g>
<g>
</g>
<g>
</g>
</svg>
