<?xml version="1.0" encoding="iso-8859-1"?>
<!-- Generator: Adobe Illustrator 19.0.0, SVG Export Plug-In . SVG Version: 6.00 Build 0)  -->
<svg xmlns="http://www.w3.org/2000/svg" xmlns:xlink="http://www.w3.org/1999/xlink" version="1.1" id="Capa_1" x="0px" y="0px" viewBox="0 0 512.001 512.001" style="enable-background:new 0 0 512.001 512.001;" xml:space="preserve">
<g>
	<g>
		<path d="M407.29,0c-37.978,0-68.766,19.47-68.766,43.487c0,6.904,2.555,13.429,7.083,19.226v19.04H374.6    c9.724,3.329,20.857,5.22,32.691,5.22c37.978,0,68.766-19.47,68.766-43.486C476.057,19.47,445.268,0,407.29,0z"/>
	</g>
</g>
<g>
	<g>
		<path d="M101.656,127.959c-36.291,0-65.712,18.604-65.712,41.555c0,22.949,29.421,41.555,65.712,41.555    c11.307-0.001,21.946-1.808,31.238-4.989H160.6v-18.194c4.327-5.541,6.768-11.775,6.768-18.372    C167.368,146.564,137.948,127.959,101.656,127.959z"/>
	</g>
</g>
<g>
	<g>
		<path d="M384.799,261.523c-0.993-6.42-8.544-55.245-9.566-61.856c-3.398-21.982-22.011-37.937-44.255-37.937    c-33.251,0-31.774,0-78.601,0c-20.16,0-38.804,11.749-47.497,29.929c-3.712,7.759-8.281,17.722-11.799,25.571h41.351    c1.117-2.411,3.418-7.347,4.446-9.446v9.446c12.587,0,20.779,7.787,22.805,17.398l8.736,41.446h3.923    c3.334-4.988,7.942-9.224,13.661-12.153l50.519-25.87v-29.576c2.378,15.375,4.724,30.547,7.074,45.741l-42.826,21.931    c10.787,0.719,20.453,9.253,20.453,22.994h17.188c0.057-0.029,34.186-17.507,34.186-17.507    C382.3,277.694,386.202,269.487,384.799,261.523z"/>
	</g>
</g>
<g>
	<g>
		<circle cx="288.904" cy="110.315" r="38.988"/>
	</g>
</g>
<g>
	<g>
		<path d="M265.435,441.119l-9.884-63.922h-42.58l10.88,70.353c1.773,11.469,12.505,19.353,24.007,17.577    C259.343,463.352,267.212,452.604,265.435,441.119z"/>
	</g>
</g>
<g>
	<g>
		<path d="M318.359,377.196l-9.885,63.922c-1.776,11.484,6.093,22.233,17.576,24.008c11.48,1.777,22.233-6.092,24.007-17.577    l10.88-70.353H318.359z"/>
	</g>
</g>
<g>
	<g>
		<path d="M403.583,316.614c-10.03,0-87.334,0-99.843,0c2.274-0.953,3.874-3.199,3.874-5.82v-12.803    c0-3.484-2.824-6.307-6.308-6.307h-43.549l-11.347-53.837c-0.616-2.918-3.19-5.007-6.173-5.007h-121.3    c-4.008,0-6.997,3.694-6.172,7.609l15.102,71.646c0.441,2.093,1.898,3.744,3.783,4.519c-10.515,0-18.981,0-29.413,0    c-11.901,0-21.548,9.644-21.555,21.543c0,0.004,0,0.009,0,0.013s0,0.008,0,0.012c0.007,11.299,8.711,20.548,19.778,21.452v136.742    c0,8.628,6.995,15.624,15.624,15.624c8.628,0,15.623-6.995,15.623-15.624V359.724h243.453c0,5.879,0,131.901,0,136.653    c0,8.628,6.995,15.624,15.624,15.624s15.624-6.995,15.624-15.624c0-3.622,0-131.694,0-136.859    c10.567-1.386,18.731-10.404,18.731-21.349C425.138,326.265,415.487,316.614,403.583,316.614z"/>
	</g>
</g>
<g>
</g>
<g>
</g>
<g>
</g>
<g>
</g>
<g>
</g>
<g>
</g>
<g>
</g>
<g>
</g>
<g>
</g>
<g>
</g>
<g>
</g>
<g>
</g>
<g>
</g>
<g>
</g>
<g>
</g>
</svg>
