<?xml version="1.0" encoding="iso-8859-1"?>
<!-- Generator: Adobe Illustrator 19.0.0, SVG Export Plug-In . SVG Version: 6.00 Build 0)  -->
<svg xmlns="http://www.w3.org/2000/svg" xmlns:xlink="http://www.w3.org/1999/xlink" version="1.1" id="Capa_1" x="0px" y="0px" viewBox="0 0 512 512" style="enable-background:new 0 0 512 512;" xml:space="preserve">
<g>
	<g>
		<path d="M511.732,200.782c-0.388-5.277-3.064-10.122-7.325-13.26l-55.387-40.781c-3.055-2.25-6.74-3.482-10.533-3.526    c-44.396-0.504-96.455,0-96.455,0c-9.435,0.008-18.449,4.302-24.11,11.848l-18.796,25.053l-44.751-41.639    c-7.324-6.814-18.785-6.401-25.599,0.922c-6.815,7.324-6.402,18.785,0.922,25.599l59.494,55.356    c7.856,7.309,20.354,6.237,26.827-2.391l27.019-36.011l0.009,308.311c0,12.004,9.732,21.736,21.735,21.736    s21.735-9.732,21.735-21.736V316.527h9.385v173.737c0,12.004,9.732,21.736,21.735,21.736s21.342-9.732,21.342-21.736V279.219    c2.545-0.855,4.944-2.272,6.98-4.29l60.463-59.959C510.179,211.244,512.119,206.06,511.732,200.782z M438.98,230.831v-46.496    l26.908,19.812L438.98,230.831z"/>
	</g>
</g>
<g>
	<g>
		<circle cx="391.45" cy="93.432" r="37.54"/>
	</g>
</g>
<g>
	<g>
		<path d="M159.777,210.751c11.485,3.768,23.21-5.19,22.554-17.287l-4.844-89.224c-0.515-9.492-8.638-16.77-18.12-16.254    c-6.764,0.368-12.386,4.601-14.882,10.434c-2.842-12.968-12.401-24.071-26.001-28.23c-12.114-3.706-24.652-1.052-34.04,6.044    c1.082-6.159-1.064-12.718-6.293-16.732c-7.42-5.697-18.068-4.424-23.93,2.919L3.98,125.362    c-6.336,7.938-4.741,20.259,5.365,25.938l50.802,28.542l-22.653-4.953L9.768,291.303c-0.845,3.807-0.848,7.753-0.011,11.561    l17.45,79.299L3.536,486.782c-2.572,11.37,4.771,22.671,16.324,24.857c11.005,2.082,21.604-5.299,24.076-16.223l24.601-108.731    c0.684-3.025,0.679-6.165-0.016-9.186l-14.149-61.547l7.329,0.11l54.705,78.304l12.95,99.639    c1.502,11.557,12.285,19.636,23.884,17.711c11.05-1.835,18.461-12.418,17.017-23.526l-13.554-104.284    c-0.439-3.373-1.703-6.587-3.682-9.354l-44.729-62.546l21.625-111.054L159.777,210.751z M78.396,150.607    c0,0-30.912-17.367-34.88-19.595L70.561,97.13c-5.001,19.543,6.206,39.754,25.695,45.718c20.064,6.139,41.305-5.151,47.442-25.215    c0.013-0.041,0.022-0.081,0.034-0.123l2.861,52.682L78.396,150.607z"/>
	</g>
</g>
<g>
	<g>
		<path d="M255.459,0c-39.94,0-72.318,20.476-72.318,45.733c0,25.258,32.378,45.731,72.318,45.731    c12.444,0,24.154-1.989,34.379-5.489h30.49V65.952c4.762-6.098,7.449-12.958,7.449-20.219C327.777,20.476,295.399,0,255.459,0z"/>
	</g>
</g>
<g>
</g>
<g>
</g>
<g>
</g>
<g>
</g>
<g>
</g>
<g>
</g>
<g>
</g>
<g>
</g>
<g>
</g>
<g>
</g>
<g>
</g>
<g>
</g>
<g>
</g>
<g>
</g>
<g>
</g>
</svg>
