<?xml version="1.0" encoding="iso-8859-1"?>
<!-- Generator: Adobe Illustrator 19.0.0, SVG Export Plug-In . SVG Version: 6.00 Build 0)  -->
<svg version="1.1" id="Capa_1" xmlns="http://www.w3.org/2000/svg" xmlns:xlink="http://www.w3.org/1999/xlink" x="0px" y="0px"
	 viewBox="0 0 512.002 512.002" style="enable-background:new 0 0 512.002 512.002;" xml:space="preserve">
<g>
	<g>
		<path d="M122.011,245.392c-2.79-2.791-6.66-4.391-10.61-4.391c-3.95,0-7.811,1.6-10.61,4.391c-2.79,2.789-4.39,6.659-4.39,10.609
			c0,3.949,1.6,7.811,4.39,10.609c2.799,2.792,6.659,4.391,10.61,4.391c3.95,0,7.82-1.6,10.61-4.391
			c2.789-2.799,4.39-6.66,4.39-10.609C126.401,252.051,124.8,248.181,122.011,245.392z"/>
	</g>
</g>
<g>
	<g>
		<path d="M411.211,245.392c-2.801-2.791-6.66-4.391-10.61-4.391c-3.95,0-7.81,1.6-10.61,4.391c-2.789,2.789-4.39,6.659-4.39,10.609
			c0,3.949,1.601,7.811,4.39,10.609c2.8,2.792,6.66,4.391,10.61,4.391s7.81-1.6,10.61-4.391c2.789-2.799,4.39-6.66,4.39-10.609
			C415.601,252.051,414,248.181,411.211,245.392z"/>
	</g>
</g>
<g>
	<g>
		<path d="M415.601,410.911v-68.82l68.45-76.055c5.542-6.158,5.043-15.643-1.115-21.185c-6.157-5.542-15.641-5.042-21.184,1.114
			l-61.151,67.947l-61.146-67.94c-0.002-0.002-0.002-0.004-0.004-0.006l-68.449-76.055v-68.82l68.449-76.055
			c5.542-6.158,5.043-15.643-1.115-21.185c-6.158-5.542-15.643-5.042-21.184,1.114l-61.15,67.946L194.85,4.966
			c-5.541-6.157-15.025-6.656-21.184-1.114c-6.157,5.542-6.656,15.026-1.115,21.185l68.451,76.055v68.82l-68.451,76.055
			c-0.001,0.002-0.002,0.004-0.004,0.006l-61.146,67.94l-61.15-67.946c-5.542-6.159-15.026-6.657-21.184-1.115
			c-6.157,5.542-6.657,15.026-1.115,21.184l68.449,76.055v68.82l-68.45,76.055c-5.542,6.158-5.043,15.643,1.115,21.184
			c2.867,2.58,6.454,3.852,10.029,3.852c4.104,0,8.192-1.676,11.154-4.965l61.15-67.945l61.15,67.945
			c2.963,3.291,7.051,4.965,11.154,4.965c3.576,0,7.164-1.272,10.03-3.852c6.157-5.541,6.657-15.025,1.114-21.184l-68.446-76.054
			v-68.82l68.445-76.051c0.002-0.002,0.003-0.003,0.004-0.004l61.152-67.945l61.15,67.945c0.002,0.001,0.003,0.002,0.004,0.004
			l68.445,76.05v68.822l-68.448,76.053c-5.542,6.158-5.043,15.643,1.115,21.184c2.867,2.58,6.453,3.852,10.029,3.852
			c4.103,0,8.193-1.676,11.154-4.967l61.15-67.944l61.151,67.945c2.963,3.291,7.05,4.965,11.154,4.965
			c3.575,0,7.163-1.272,10.029-3.852c6.159-5.54,6.658-15.025,1.116-21.183L415.601,410.911z"/>
	</g>
</g>
<g>
	<g>
		<path d="M266.61,4.392c-2.79-2.791-6.659-4.391-10.61-4.391c-3.949,0-7.819,1.6-10.609,4.391C242.601,7.191,241,11.051,241,15.001
			c0,3.949,1.601,7.811,4.391,10.609c2.79,2.792,6.66,4.391,10.609,4.391c3.951,0,7.82-1.6,10.61-4.391
			c2.79-2.799,4.39-6.66,4.39-10.609C271,11.051,269.4,7.19,266.61,4.392z"/>
	</g>
</g>
<g>
</g>
<g>
</g>
<g>
</g>
<g>
</g>
<g>
</g>
<g>
</g>
<g>
</g>
<g>
</g>
<g>
</g>
<g>
</g>
<g>
</g>
<g>
</g>
<g>
</g>
<g>
</g>
<g>
</g>
</svg>
