<?xml version="1.0" encoding="iso-8859-1"?>
<!-- Generator: Adobe Illustrator 19.0.0, SVG Export Plug-In . SVG Version: 6.00 Build 0)  -->
<svg version="1.1" id="Capa_1" xmlns="http://www.w3.org/2000/svg" xmlns:xlink="http://www.w3.org/1999/xlink" x="0px" y="0px"
	 viewBox="0 0 512 512" style="enable-background:new 0 0 512 512;" xml:space="preserve">
<g>
	<g>
		<path d="M255.999,21.672c-53.474,0-96.98,43.505-96.98,96.98c0,53.475,43.505,96.98,96.98,96.98
			c53.475,0,96.98-43.505,96.98-96.98C352.979,65.177,309.473,21.672,255.999,21.672z"/>
	</g>
</g>
<g>
	<g>
		<path d="M389.485,52.143c-8.061,0-15.789,1.443-22.945,4.082c10.459,18.446,16.439,39.749,16.439,62.426
			c0,22.675-5.98,43.977-16.437,62.422c7.154,2.639,14.883,4.082,22.943,4.082c36.672,0,66.506-29.834,66.506-66.504
			C455.991,81.979,426.157,52.143,389.485,52.143z"/>
	</g>
</g>
<g>
	<g>
		<path d="M145.457,56.226c-7.156-2.639-14.885-4.082-22.945-4.082c-36.671,0-66.506,29.835-66.506,66.508
			c0.001,36.67,29.835,66.504,66.507,66.504c8.06,0,15.788-1.443,22.943-4.082c-10.457-18.445-16.438-39.747-16.438-62.422
			C129.018,95.974,134.998,74.672,145.457,56.226z"/>
	</g>
</g>
<g>
	<g>
		<path d="M255.999,288.644c-102.939,0-186.685,83.746-186.685,186.684c0,8.283,6.716,15,15,15h343.371c8.284,0,15-6.717,15-15
			C442.685,372.391,358.938,288.644,255.999,288.644z M240.999,460.328H100.026c7.101-74.451,66.522-133.868,140.973-140.971
			V460.328z M270.999,460.328V319.357c74.451,7.103,133.873,66.52,140.974,140.971H270.999z"/>
	</g>
</g>
<g>
	<g>
		<path d="M389.485,258.167c-20.299,0-39.953,4.997-57.421,14.27c57.192,21.513,102.964,66.537,125.455,123.246H497
			c8.284,0,15-6.717,15-15C512,313.128,457.04,258.167,389.485,258.167z"/>
	</g>
</g>
<g>
	<g>
		<path d="M122.513,258.167C54.959,258.167,0,313.128,0,380.683c0,8.283,6.716,15,15,15h39.479
			c22.491-56.709,68.263-101.735,125.456-123.246C162.466,263.165,142.812,258.167,122.513,258.167z"/>
	</g>
</g>
<g>
</g>
<g>
</g>
<g>
</g>
<g>
</g>
<g>
</g>
<g>
</g>
<g>
</g>
<g>
</g>
<g>
</g>
<g>
</g>
<g>
</g>
<g>
</g>
<g>
</g>
<g>
</g>
<g>
</g>
</svg>
