<?xml version="1.0" encoding="iso-8859-1"?>
<!-- Generator: Adobe Illustrator 19.0.0, SVG Export Plug-In . SVG Version: 6.00 Build 0)  -->
<svg version="1.1" id="Capa_1" xmlns="http://www.w3.org/2000/svg" xmlns:xlink="http://www.w3.org/1999/xlink" x="0px" y="0px"
	 viewBox="0 0 512 512" style="enable-background:new 0 0 512 512;" xml:space="preserve">
<g>
	<g>
		<path d="M512,304.197c0-1.951-0.372-3.815-1.05-5.525L496.726,256l14.484-43.456c1.524-4.574,0.758-9.603-2.061-13.514
			c-1.223-1.695-2.778-3.069-4.527-4.106c-1.688-6.887-3.661-13.703-5.917-20.424c7.481-0.848,13.294-7.19,13.294-14.895
			c0-1.951-0.372-3.815-1.05-5.525l-14.224-42.672L511.21,67.95c1.524-4.574,0.758-9.603-2.061-13.514
			c-2.819-3.911-7.348-6.229-12.169-6.229h-80.33c-2.9,0-5.65,0.839-7.99,2.313C364.691,17.836,311.154,0.01,255.99,0.01
			c-68.377,0-132.662,26.627-181.013,74.977C26.628,123.337,0,187.622,0,256c0,68.377,26.628,132.663,74.977,181.013
			c48.351,48.349,112.636,74.977,181.013,74.977c55.164,0,108.702-17.827,152.673-50.512c2.339,1.473,5.089,2.313,7.988,2.313h80.33
			c0.005-0.001,0.013-0.001,0.02,0c8.285,0,14.999-6.717,14.999-14.999c0-1.951-0.372-3.815-1.05-5.525l-14.224-42.672
			l14.484-43.454c1.524-4.574,0.758-9.603-2.061-13.514c-2.48-3.44-6.283-5.645-10.444-6.126c2.253-6.715,4.225-13.521,5.909-20.395
			C509.03,314.494,512,309.697,512,304.197z M416.651,174.602h50.211c2.307,5.972,4.367,12.045,6.157,18.198h-56.368
			c-4.689,0-8.99,2.187-11.778,5.728c-11.282-29.126-30.872-54.141-55.852-72.123h40.751l12.648,37.94
			C404.463,170.47,410.195,174.602,416.651,174.602z M255.99,319.197c29.68,0,54.632-20.569,61.385-48.197h67.337
			c-7.459,64.417-62.336,114.596-128.722,114.596C184.531,385.594,126.395,327.458,126.395,256
			c0-71.459,58.136-129.595,129.595-129.595c66.386,0,121.263,50.177,128.722,114.596h-67.337
			c-6.753-27.629-31.705-48.199-61.385-48.199c-34.848,0-63.198,28.351-63.198,63.199
			C192.792,290.847,221.143,319.197,255.99,319.197z M255.99,481.991c-124.612,0-225.991-101.38-225.991-225.991
			c0-124.612,101.379-225.991,225.991-225.991c50.813,0,100.063,17.122,139.78,48.406l-5.997,17.991H255.99
			c-88.001,0-159.594,71.593-159.594,159.594c0,88,71.593,159.594,159.594,159.594h133.783l5.998,17.992
			C356.053,464.869,306.803,481.991,255.99,481.991z M466.862,337.397h-50.211c-6.456,0-12.188,4.131-14.229,10.256l-12.648,37.942
			h-40.751c24.98-17.983,44.57-42.999,55.852-72.125c2.789,3.54,7.089,5.728,11.778,5.728h56.369
			C471.231,325.347,469.169,331.421,466.862,337.397z"/>
	</g>
</g>
<g>
</g>
<g>
</g>
<g>
</g>
<g>
</g>
<g>
</g>
<g>
</g>
<g>
</g>
<g>
</g>
<g>
</g>
<g>
</g>
<g>
</g>
<g>
</g>
<g>
</g>
<g>
</g>
<g>
</g>
</svg>
