<?xml version="1.0" encoding="iso-8859-1"?>
<!-- Generator: Adobe Illustrator 19.0.0, SVG Export Plug-In . SVG Version: 6.00 Build 0)  -->
<svg version="1.1" id="Capa_1" xmlns="http://www.w3.org/2000/svg" xmlns:xlink="http://www.w3.org/1999/xlink" x="0px" y="0px"
	 viewBox="0 0 512 512" style="enable-background:new 0 0 512 512;" xml:space="preserve">
<g>
	<g>
		<path d="M464.14,232.059c-6.953-2.26-14.156-3.404-21.411-3.404c-4.773,0-9.455,0.487-13.994,1.417l-40.239-35.859l11.495-52.746
			c10.801-4.898,20.328-12.531,27.454-22.339c10.875-14.967,15.27-33.27,12.377-51.544c-2.895-18.272-12.73-34.321-27.696-45.195
			C400.214,13.734,386.153,9.16,371.465,9.16c-22.122,0-43.087,10.674-56.075,28.552c-7.18,9.881-11.516,21.221-12.813,33.044
			l-46.56,27.202l-46.606-27.228c-1.273-11.563-5.453-22.954-12.768-33.018c-12.99-17.881-33.952-28.556-56.075-28.556
			c-14.689,0-28.749,4.576-40.661,13.231C84.943,33.259,75.107,49.309,72.213,67.58c-2.895,18.272,1.5,36.577,12.374,51.546
			c7.127,9.809,16.656,17.442,27.457,22.34l11.495,52.739l-40.245,35.863c-4.537-0.93-9.218-1.417-13.991-1.417
			c-7.257,0-14.46,1.146-21.411,3.404c-17.594,5.717-31.908,17.942-40.307,34.424s-9.877,35.249-4.16,52.843
			c9.303,28.633,35.769,47.872,65.857,47.872c7.256,0,14.459-1.146,21.411-3.404c11.617-3.773,21.789-10.401,29.789-19.204
			l53.653,5.357l21.701,49.427c-5.766,10.101-9.08,21.773-9.08,34.215c0,38.188,31.069,69.258,69.256,69.258
			c38.188,0,69.256-31.069,69.256-69.258c0-12.44-3.313-24.113-9.08-34.215l21.701-49.422l53.712-5.365
			c7.824,8.605,17.904,15.364,29.733,19.209c6.953,2.259,14.158,3.404,21.414,3.404c30.087,0,56.554-19.238,65.855-47.87
			C520.406,283.011,500.46,243.862,464.14,232.059z M376.874,276.524c-4.314,13.274-4.369,26.92-0.951,39.477l-24.19,2.416
			l4.189-9.542c3.33-7.585-0.119-16.434-7.703-19.764c-7.586-3.33-16.435,0.118-19.766,7.703l-10.986,25.024l-27.188,2.717
			c-8.244,0.823-14.258,8.173-13.436,16.416c0.773,7.736,7.295,13.51,14.908,13.51c0.498,0,1.002-0.024,1.51-0.074l10.361-1.035
			l-9.771,22.252c-10.885-7.131-23.882-11.294-37.839-11.294c-13.957,0-26.952,4.163-37.837,11.294l-9.773-22.259l10.373,1.036
			c0.508,0.051,1.01,0.074,1.51,0.074c7.613,0,14.135-5.773,14.906-13.51c0.824-8.244-5.191-15.594-13.436-16.416l-27.196-2.717
			l-10.984-25.017c-3.33-7.585-12.18-11.034-19.766-7.703c-7.584,3.33-11.033,12.179-7.703,19.764l4.186,9.536l-24.134-2.41
			c3.51-12.875,3.223-26.498-0.996-39.484c-4.275-13.151-12.178-24.312-22.38-32.544l18.092-16.122l2.22,10.183
			c1.53,7.018,7.741,11.809,14.642,11.809c1.059,0,2.133-0.111,3.209-0.347c8.094-1.765,13.225-9.756,11.461-17.851l-5.82-26.704
			l20.397-18.179c6.186-5.512,6.73-14.993,1.221-21.179c-5.514-6.184-14.994-6.73-21.18-1.219l-7.773,6.928l-5.168-23.71
			c13.445-0.654,26.259-5.156,37.243-13.137c11.291-8.205,19.357-19.213,23.972-31.378l20.987,12.262l-8.998,5.257
			c-7.152,4.179-9.563,13.366-5.385,20.519c2.789,4.773,7.809,7.436,12.967,7.436c2.568,0,5.174-0.661,7.553-2.051l23.597-13.787
			l23.593,13.783c2.379,1.391,4.982,2.051,7.553,2.051c5.156,0,10.176-2.662,12.965-7.436c4.18-7.153,1.768-16.34-5.385-20.518
			l-8.992-5.253l20.944-12.236c4.728,12.479,12.967,23.329,24.013,31.355c10.984,7.98,23.798,12.48,37.243,13.136l-5.17,23.715
			l-7.779-6.933c-6.184-5.512-15.666-4.966-21.177,1.219c-5.512,6.186-4.965,15.668,1.219,21.179l20.404,18.183l-5.818,26.696
			c-1.764,8.095,3.369,16.086,11.463,17.851c1.076,0.235,2.15,0.347,3.209,0.347c6.9,0,13.111-4.791,14.641-11.809l2.219-10.174
			l18.088,16.117C389.048,252.21,381.148,263.372,376.874,276.524z"/>
	</g>
</g>
<g>
</g>
<g>
</g>
<g>
</g>
<g>
</g>
<g>
</g>
<g>
</g>
<g>
</g>
<g>
</g>
<g>
</g>
<g>
</g>
<g>
</g>
<g>
</g>
<g>
</g>
<g>
</g>
<g>
</g>
</svg>
