<?xml version="1.0" encoding="iso-8859-1"?>
<!-- Generator: Adobe Illustrator 19.0.0, SVG Export Plug-In . SVG Version: 6.00 Build 0)  -->
<svg version="1.1" id="Capa_1" xmlns="http://www.w3.org/2000/svg" xmlns:xlink="http://www.w3.org/1999/xlink" x="0px" y="0px"
	 viewBox="0 0 512 512" style="enable-background:new 0 0 512 512;" xml:space="preserve">
<g>
	<g>
		<path d="M497,96.444h-18.616c-2.063-10.723-6.278-20.688-12.201-29.412l13.178-13.178c5.857-5.858,5.857-15.355,0-21.214
			c-5.858-5.857-15.355-5.856-21.213,0.001L444.97,45.818c-8.724-5.922-18.688-10.138-29.41-12.2V15c0-8.284-6.716-15-15-15
			s-15,6.716-15,15v18.618c-10.723,2.063-20.688,6.278-29.412,12.201L342.97,32.642c-5.857-5.858-15.355-5.858-21.213,0
			c-5.857,5.857-5.857,15.354,0,21.213l13.178,13.178c-5.922,8.724-10.138,18.688-12.2,29.411h-18.616c-8.284,0-15,6.716-15,15
			c-0.001,8.284,6.715,14.999,14.999,14.999h18.616c2.064,10.722,6.278,20.686,12.2,29.408l-13.178,13.177
			c-5.857,5.857-5.858,15.355,0,21.213c2.929,2.93,6.768,4.395,10.607,4.395s7.677-1.465,10.606-4.393l13.179-13.178
			c8.724,5.923,18.689,10.138,29.411,12.201v18.617c0,8.284,6.716,15,15,15s15-6.716,15-15v-18.617
			c10.723-2.063,20.687-6.278,29.41-12.2l13.176,13.177c2.929,2.929,6.768,4.393,10.607,4.393s7.678-1.465,10.606-4.393
			c5.857-5.857,5.857-15.355,0-21.213l-13.176-13.177c5.923-8.724,10.139-18.688,12.201-29.409H497c8.284,0,15-6.716,15-15
			S505.284,96.444,497,96.444z M400.56,160.709c-27.166,0-49.268-22.101-49.268-49.266c0-27.167,22.102-49.267,49.268-49.267
			c27.166,0,49.267,22.101,49.267,49.267C449.827,138.608,427.726,160.709,400.56,160.709z"/>
	</g>
</g>
<g>
	<g>
		<path d="M497,385.559h-18.616c-2.063-10.723-6.277-20.688-12.201-29.411l13.178-13.177c5.857-5.858,5.857-15.355,0-21.213
			c-5.858-5.859-15.355-5.859-21.213,0l-13.177,13.176c-8.724-5.922-18.688-10.138-29.411-12.201v-18.615c0-8.284-6.716-15-15-15
			s-15,6.716-15,15v18.615c-10.724,2.064-20.69,6.279-29.413,12.203l-13.177-13.178c-5.857-5.857-15.355-5.857-21.213,0
			c-5.857,5.858-5.857,15.355,0,21.213l13.178,13.178c-5.923,8.724-10.138,18.689-12.201,29.41h-18.615c-8.284,0-15,6.717-15,15
			c0,8.285,6.716,15,15,15h18.616c2.064,10.723,6.278,20.686,12.2,29.409l-13.178,13.178c-5.857,5.858-5.857,15.355,0,21.214
			c2.929,2.929,6.768,4.393,10.607,4.393s7.678-1.465,10.606-4.393l13.18-13.179c8.723,5.923,18.688,10.138,29.41,12.2V497
			c0,8.283,6.716,15,15,15s15-6.717,15-15v-18.619c10.722-2.063,20.686-6.277,29.409-12.199l13.177,13.178
			c2.929,2.929,6.768,4.393,10.607,4.393s7.678-1.464,10.606-4.393c5.857-5.858,5.857-15.355,0-21.213l-13.176-13.177
			c5.922-8.724,10.139-18.688,12.201-29.411H497c8.284,0,15-6.715,15-15C512,392.275,505.284,385.559,497,385.559z M400.56,449.824
			c-27.166,0-49.268-22.102-49.268-49.266c0-27.166,22.102-49.268,49.268-49.268s49.267,22.102,49.267,49.268
			C449.826,427.723,427.726,449.824,400.56,449.824z"/>
	</g>
</g>
<g>
	<g>
		<path d="M256,241.002h-26.386c-2.398-15.105-8.359-29.038-16.99-40.912l18.689-18.69c5.857-5.858,5.857-15.355,0-21.214
			c-5.858-5.857-15.355-5.856-21.213,0.001l-18.69,18.691c-11.873-8.632-25.806-14.593-40.91-16.991V135.5c0-8.284-6.716-15-15-15
			s-15,6.716-15,15v26.387c-15.106,2.398-29.039,8.36-40.913,16.992L60.9,160.189c-5.857-5.857-15.355-5.859-21.213-0.001
			c-5.858,5.857-5.858,15.355,0,21.214l18.688,18.689c-8.631,11.873-14.591,25.806-16.989,40.91H15c-8.284,0-15,6.716-15,15
			s6.716,15,15,15h26.386c2.398,15.104,8.359,29.036,16.991,40.909L39.686,330.6c-5.858,5.857-5.858,15.355,0,21.213
			c2.929,2.93,6.768,4.395,10.607,4.395c3.838,0,7.678-1.465,10.606-4.393l18.69-18.69c11.874,8.632,25.805,14.592,40.91,16.99
			V376.5c0,8.283,6.716,15,15,15s15-6.717,15-15v-26.386c15.104-2.398,29.036-8.358,40.909-16.989l18.688,18.688
			c2.93,2.93,6.768,4.395,10.607,4.395c3.838,0,7.678-1.465,10.606-4.393c5.858-5.858,5.858-15.355,0.001-21.214l-18.688-18.688
			c8.632-11.874,14.593-25.806,16.991-40.91H256c8.284,0,15-6.716,15-15C271,247.718,264.284,241.002,256,241.002z M135.5,321.299
			c-36.006,0-65.299-29.293-65.299-65.298c0-36.006,29.293-65.299,65.299-65.299c36.006,0,65.299,29.293,65.299,65.299
			C200.799,292.006,171.506,321.299,135.5,321.299z"/>
	</g>
</g>
<g>
</g>
<g>
</g>
<g>
</g>
<g>
</g>
<g>
</g>
<g>
</g>
<g>
</g>
<g>
</g>
<g>
</g>
<g>
</g>
<g>
</g>
<g>
</g>
<g>
</g>
<g>
</g>
<g>
</g>
</svg>
