<?xml version="1.0" encoding="iso-8859-1"?>
<!-- Generator: Adobe Illustrator 19.0.0, SVG Export Plug-In . SVG Version: 6.00 Build 0)  -->
<svg version="1.1" id="Capa_1" xmlns="http://www.w3.org/2000/svg" xmlns:xlink="http://www.w3.org/1999/xlink" x="0px" y="0px"
	 viewBox="0 0 512 512" style="enable-background:new 0 0 512 512;" xml:space="preserve">
<g>
	<g>
		<path d="M461.546,412.908c11.317-11.428,18.321-27.135,18.321-44.449c0-34.85-28.352-63.202-63.2-63.202s-63.2,28.353-63.2,63.202
			c0,17.314,7.004,33.021,18.321,44.449c-14.433,7.733-26.656,19.071-35.455,32.807c-8.799-13.735-21.023-25.072-35.454-32.807
			c11.317-11.428,18.321-27.135,18.321-44.449c0-34.85-28.352-63.202-63.2-63.202c-34.848,0-63.2,28.353-63.2,63.202
			c0,17.314,7.004,33.021,18.321,44.449c-14.432,7.734-26.655,19.071-35.454,32.807c-8.799-13.735-21.023-25.073-35.455-32.807
			c11.317-11.428,18.321-27.135,18.321-44.449c0-34.85-28.352-63.202-63.2-63.202c-34.848,0-63.2,28.353-63.2,63.202
			c0,17.314,7.004,33.021,18.321,44.449C20.454,428.985,0,460.647,0,497c0,8.283,6.716,15,15,15h160.667h160.666H497
			c8.284,0,15-6.717,15-15C512,460.647,491.546,428.985,461.546,412.908z"/>
	</g>
</g>
<g>
	<g>
		<path d="M255.998,0c-52.555,0-95.311,42.76-95.311,95.319c0,24.194,8.889,46.808,24.835,64.204h140.956
			c15.947-17.396,24.835-40.01,24.835-64.204C351.313,42.76,308.555,0,255.998,0z"/>
	</g>
</g>
<g>
	<g>
		<path d="M192.826,189.523v50.338c0,8.284,6.716,15,15,15h96.4c8.284,0,15-6.716,15-15v-50.338H192.826z"/>
	</g>
</g>
<g>
</g>
<g>
</g>
<g>
</g>
<g>
</g>
<g>
</g>
<g>
</g>
<g>
</g>
<g>
</g>
<g>
</g>
<g>
</g>
<g>
</g>
<g>
</g>
<g>
</g>
<g>
</g>
<g>
</g>
</svg>
