<?xml version="1.0" encoding="iso-8859-1"?>
<!-- Generator: Adobe Illustrator 19.0.0, SVG Export Plug-In . SVG Version: 6.00 Build 0)  -->
<svg version="1.1" id="Capa_1" xmlns="http://www.w3.org/2000/svg" xmlns:xlink="http://www.w3.org/1999/xlink" x="0px" y="0px"
	 viewBox="0 0 512 512" style="enable-background:new 0 0 512 512;" xml:space="preserve">
<g>
	<g>
		<path d="M466.327,76.108c-29.505-29.507-68.739-45.757-110.467-45.757c-41.73,0-80.961,16.25-110.467,45.757l-10.608,10.61
			c-24.205,24.204-24.207,63.586-0.002,87.794c11.727,11.722,27.317,18.18,43.897,18.18c0,0,0,0,0.002,0
			c16.581-0.001,32.168-6.457,43.893-18.181l21.224-21.225l21.22-21.22l128.455,128.456
			C525.213,201.382,516.175,125.957,466.327,76.108z"/>
	</g>
</g>
<g>
	<g>
		<path d="M233.329,309.109c-10.341-10.339-23.69-16.575-38.07-17.906l-67.63,67.629c1.324,14.325,7.521,27.622,17.788,37.944
			l0.246,0.246c10.321,10.267,23.619,16.462,37.943,17.786l67.629-67.628C249.904,332.798,243.669,319.45,233.329,309.109z"/>
	</g>
</g>
<g>
	<g>
		<path d="M166.756,242.537c-11.725-11.725-27.315-18.181-43.895-18.181c0,0,0,0-0.002,0c-16.581,0-32.17,6.457-43.895,18.182
			c-11.727,11.726-18.184,27.315-18.184,43.896c0,16.582,6.459,32.171,18.184,43.895c6.071,6.072,13.184,10.717,20.929,13.799
			l80.624-80.624C177.498,255.867,172.925,248.706,166.756,242.537z"/>
	</g>
</g>
<g>
	<g>
		<path d="M433.05,242.539l-33.285-33.284c-0.002-0.002-0.002-0.003-0.006-0.005l-34.741-34.74l-21.224,21.224
			c-17.391,17.391-40.515,26.968-65.115,26.97c-24.594,0-47.718-9.577-65.117-26.971c-35.905-35.906-35.905-94.328-0.002-130.231
			l10.612-10.613c2.013-2.013,4.067-3.967,6.154-5.875c-22.524-12.185-47.854-18.659-74.182-18.66
			c-41.727,0-80.961,16.249-110.468,45.755C-9.868,131.654-14.751,218.963,31.01,280.107c1.498-22.214,10.841-42.898,26.736-58.789
			c17.393-17.393,40.517-26.971,65.115-26.971h0.002c24.598,0,47.722,9.578,65.115,26.971
			c11.832,11.832,20.065,26.507,24.094,42.389c15.937,4.01,30.555,12.262,42.479,24.184c11.906,11.907,20.151,26.5,24.168,42.407
			c15.911,4.018,30.5,12.262,42.405,24.167c15.077,15.077,24.27,34.464,26.453,55.38c6.957-3.063,13.362-7.407,18.899-12.943
			c11.727-11.724,18.186-27.313,18.184-43.895c0-1.583-0.078-3.153-0.193-4.715c1.56,0.116,3.122,0.191,4.685,0.191
			c15.896,0.001,31.795-6.051,43.895-18.153c11.727-11.726,18.182-27.314,18.184-43.896
			C451.229,269.852,444.772,254.263,433.05,242.539z"/>
	</g>
</g>
<g>
	<g>
		<path d="M318.019,417.028c-0.028-0.651-0.067-1.3-0.114-1.95c-1.061-14.887-7.347-28.739-18.004-39.398
			c-6.071-6.071-13.185-10.716-20.931-13.797l-80.66,80.659c3.043,7.647,7.614,14.675,13.573,20.695l0.227,0.227v0.001
			c11.725,11.726,27.314,18.183,43.893,18.184c0.002,0,0,0,0.002,0c16.579,0,32.17-6.459,43.895-18.182
			c8.976-8.975,14.852-20.216,17.12-32.432c0.694-3.74,1.061-7.568,1.061-11.457C318.082,418.724,318.054,417.876,318.019,417.028z"
			/>
	</g>
</g>
<g>
</g>
<g>
</g>
<g>
</g>
<g>
</g>
<g>
</g>
<g>
</g>
<g>
</g>
<g>
</g>
<g>
</g>
<g>
</g>
<g>
</g>
<g>
</g>
<g>
</g>
<g>
</g>
<g>
</g>
</svg>
