<?xml version="1.0" encoding="iso-8859-1"?>
<!-- Generator: Adobe Illustrator 19.0.0, SVG Export Plug-In . SVG Version: 6.00 Build 0)  -->
<svg version="1.1" id="Capa_1" xmlns="http://www.w3.org/2000/svg" xmlns:xlink="http://www.w3.org/1999/xlink" x="0px" y="0px"
	 viewBox="0 0 512 512" style="enable-background:new 0 0 512 512;" xml:space="preserve">
<g>
	<g>
		<path d="M461.547,179.947c11.317-11.427,18.32-27.133,18.32-44.447c0-34.849-28.352-63.199-63.2-63.199s-63.2,28.351-63.2,63.199
			c0,17.314,7.003,33.02,18.32,44.447c-14.431,7.733-26.655,19.07-35.453,32.804c-8.799-13.734-21.023-25.07-35.454-32.804
			c11.317-11.427,18.32-27.133,18.32-44.447c0-34.849-28.352-63.199-63.2-63.199s-63.2,28.351-63.2,63.199
			c0,17.314,7.004,33.02,18.32,44.447c-14.432,7.733-26.654,19.069-35.453,32.804c-8.799-13.734-21.022-25.07-35.453-32.805
			c11.316-11.426,18.319-27.132,18.319-44.446c0-34.849-28.352-63.199-63.199-63.199c-34.849,0-63.2,28.351-63.2,63.199
			c0,17.314,7.003,33.02,18.32,44.447C20.453,196.023,0,227.683,0,264.033v160.666c0,8.283,6.716,15,15,15h160.667h160.667H497
			c8.284,0,15-6.717,15-15V264.033C512,227.683,491.547,196.023,461.547,179.947z M160.667,409.699H30V264.033
			c0-30.862,21.518-56.776,50.334-63.574v95.707c0,8.284,6.716,15,15,15s15-6.716,15-15v-95.707
			c28.815,6.798,50.333,32.712,50.333,63.574V409.699z M321.334,409.699H190.667V264.033c0-30.862,21.518-56.776,50.333-63.574
			v95.707c0,8.284,6.716,15,15,15s15-6.716,15-15v-95.707c28.816,6.798,50.334,32.712,50.334,63.574V409.699z M482,409.699H351.334
			V264.033c0-30.862,21.518-56.776,50.333-63.574v95.707c0,8.284,6.716,15,15,15s15-6.716,15-15v-95.707
			C460.482,207.257,482,233.171,482,264.033V409.699z"/>
	</g>
</g>
<g>
</g>
<g>
</g>
<g>
</g>
<g>
</g>
<g>
</g>
<g>
</g>
<g>
</g>
<g>
</g>
<g>
</g>
<g>
</g>
<g>
</g>
<g>
</g>
<g>
</g>
<g>
</g>
<g>
</g>
</svg>
