<?xml version="1.0" encoding="iso-8859-1"?>
<!-- Generator: Adobe Illustrator 19.0.0, SVG Export Plug-In . SVG Version: 6.00 Build 0)  -->
<svg version="1.1" id="Capa_1" xmlns="http://www.w3.org/2000/svg" xmlns:xlink="http://www.w3.org/1999/xlink" x="0px" y="0px"
	 viewBox="0 0 512 512" style="enable-background:new 0 0 512 512;" xml:space="preserve">
<g>
	<g>
		<path d="M461.546,412.908c11.316-11.427,18.32-27.134,18.32-44.449c0-34.85-28.352-63.201-63.199-63.201
			c-34.849,0-63.2,28.352-63.2,63.201c0,17.316,7.003,33.022,18.321,44.449c-14.433,7.734-26.656,19.07-35.455,32.807
			c-8.799-13.736-21.022-25.072-35.453-32.807c11.316-11.427,18.32-27.133,18.32-44.449c0-34.85-28.352-63.201-63.2-63.201
			c-34.849,0-63.2,28.352-63.2,63.201c0,17.316,7.004,33.022,18.32,44.449c-14.432,7.734-26.654,19.07-35.453,32.807
			c-8.799-13.736-21.023-25.072-35.455-32.807c11.318-11.427,18.321-27.133,18.321-44.449c0-34.85-28.352-63.201-63.2-63.201
			c-34.848,0-63.199,28.352-63.199,63.201c0,17.315,7.003,33.022,18.32,44.449C20.454,428.984,0,460.647,0,497
			c0,8.283,6.716,15,15,15h160.667h160.666H497c8.284,0,15-6.717,15-15C512,460.647,491.546,428.984,461.546,412.908z"/>
	</g>
</g>
<g>
	<g>
		<path d="M461.546,107.652c11.316-11.427,18.32-27.134,18.32-44.449C479.866,28.353,451.515,0,416.667,0
			c-34.849,0-63.2,28.353-63.2,63.203c0,17.316,7.004,33.023,18.321,44.449c-14.432,7.733-26.656,19.071-35.455,32.807
			c-8.799-13.735-21.023-25.073-35.454-32.807C312.196,96.226,319.2,80.519,319.2,63.203C319.2,28.353,290.849,0,256,0
			s-63.2,28.353-63.2,63.203c0,17.316,7.004,33.023,18.321,44.449c-14.432,7.733-26.655,19.071-35.454,32.807
			c-8.799-13.735-21.023-25.073-35.455-32.807c11.317-11.427,18.321-27.134,18.321-44.449c0-34.85-28.351-63.203-63.2-63.203
			C60.485,0,32.134,28.353,32.134,63.203c0,17.316,7.003,33.023,18.321,44.449C20.454,123.729,0,155.391,0,191.744
			c0,8.284,6.716,15,15,15h160.667h160.666H497c8.284,0,15-6.716,15-15C512,155.39,491.546,123.729,461.546,107.652z"/>
	</g>
</g>
<g>
</g>
<g>
</g>
<g>
</g>
<g>
</g>
<g>
</g>
<g>
</g>
<g>
</g>
<g>
</g>
<g>
</g>
<g>
</g>
<g>
</g>
<g>
</g>
<g>
</g>
<g>
</g>
<g>
</g>
</svg>
