<?xml version="1.0" encoding="iso-8859-1"?>
<!-- Generator: Adobe Illustrator 19.0.0, SVG Export Plug-In . SVG Version: 6.00 Build 0)  -->
<svg version="1.1" id="Capa_1" xmlns="http://www.w3.org/2000/svg" xmlns:xlink="http://www.w3.org/1999/xlink" x="0px" y="0px"
	 viewBox="0 0 511.999 511.999" style="enable-background:new 0 0 511.999 511.999;" xml:space="preserve">
<g>
	<g>
		<path d="M504.864,269.262c-7.9-15.508-21.369-27.009-37.921-32.39c-6.541-2.125-13.318-3.201-20.144-3.201
			c-1.791,0-3.566,0.073-5.326,0.215l-33.702-103.725c7.292-4.43,13.74-10.286,18.867-17.342
			c21.117-29.069,14.648-69.898-14.42-91.016C401.011,13.662,387.78,9.357,373.96,9.357c-20.815,0-40.536,10.043-52.758,26.863
			c-5.16,7.103-8.765,15.006-10.725,23.299H201.459c-1.922-8.171-5.456-16.1-10.69-23.304
			c-12.225-16.818-31.946-26.858-52.759-26.858c-13.822,0-27.051,4.305-38.259,12.447c-14.081,10.23-23.334,25.331-26.057,42.523
			c-2.723,17.192,1.412,34.413,11.643,48.494c5.125,7.055,11.574,12.91,18.866,17.34L70.5,233.884
			c-1.76-0.142-3.536-0.215-5.326-0.215c-6.827,0-13.605,1.076-20.148,3.203c-34.168,11.107-52.934,47.94-41.831,82.105
			c8.754,26.939,33.654,45.04,61.963,45.04c6.827,0,13.605-1.078,20.146-3.203c8.35-2.713,15.911-6.988,22.372-12.547l88.199,64.082
			c-3.247,7.738-5.048,16.229-5.048,25.132c0,35.931,29.231,65.16,65.161,65.16c35.93,0,65.16-29.229,65.16-65.16
			c0-8.902-1.801-17.393-5.047-25.13l88.201-64.083c6.461,5.557,14.022,9.832,22.37,12.545c6.541,2.125,13.318,3.203,20.147,3.203
			c28.309,0,53.21-18.102,61.96-45.038C514.156,302.427,512.766,284.77,504.864,269.262z M99.038,243.128l33.687-103.674
			c1.778,0.148,3.569,0.228,5.368,0.228c8.726,0,17.213-1.719,25.106-5.033l43.408,59.749c-9.824,11.412-15.783,26.24-15.783,42.444
			c0,1.793,0.094,3.564,0.236,5.322l-70.215,22.813C115.383,255.96,107.874,248.501,99.038,243.128z M240.986,374.086
			c-10.307,2.439-19.669,7.326-27.444,14.02l-88.273-64.135c4.078-9.716,5.715-20.115,4.845-30.459l70.217-22.813
			c8.941,14.643,23.501,25.485,40.655,29.544V374.086z M255.984,171.682c-8.904,0-17.395,1.8-25.132,5.047l-43.401-59.738
			c6.905-8.029,11.606-17.487,13.964-27.472h109.112c2.41,10.257,7.197,19.631,13.982,27.489l-43.39,59.722
			C273.38,173.482,264.89,171.682,255.984,171.682z M298.431,388.106c-7.777-6.693-17.14-11.582-27.446-14.021v-73.844
			c17.154-4.059,31.714-14.901,40.654-29.544l70.219,22.815c-0.868,10.348,0.769,20.744,4.847,30.458L298.431,388.106z
			 M391.124,264.981l-70.215-22.815c0.143-1.758,0.236-3.529,0.236-5.323c0-16.203-5.959-31.032-15.783-42.444l43.411-59.749
			c7.895,3.314,16.381,5.033,25.105,5.033c1.799,0,3.589-0.08,5.367-0.228l33.688,103.677
			C404.097,248.504,396.587,255.963,391.124,264.981z"/>
	</g>
</g>
<g>
</g>
<g>
</g>
<g>
</g>
<g>
</g>
<g>
</g>
<g>
</g>
<g>
</g>
<g>
</g>
<g>
</g>
<g>
</g>
<g>
</g>
<g>
</g>
<g>
</g>
<g>
</g>
<g>
</g>
</svg>
