<?xml version="1.0" encoding="iso-8859-1"?>
<!-- Generator: Adobe Illustrator 19.0.0, SVG Export Plug-In . SVG Version: 6.00 Build 0)  -->
<svg version="1.1" id="Capa_1" xmlns="http://www.w3.org/2000/svg" xmlns:xlink="http://www.w3.org/1999/xlink" x="0px" y="0px"
	 viewBox="0 0 512 512" style="enable-background:new 0 0 512 512;" xml:space="preserve">
<g>
	<g>
		<path d="M432.734,0H79.267c-8.284,0-15,6.716-15,15v147.801h79.267c19.4,0,36.555,12.365,42.69,30.768l21.877,65.631H303.9
			l21.877-65.632c6.135-18.403,23.291-30.768,42.69-30.768h79.267V15C447.734,6.716,441.018,0,432.734,0z"/>
	</g>
</g>
<g>
	<g>
		<path d="M497,192.801H368.467c-6.456,0-12.189,4.131-14.23,10.256L325.522,289.2H186.479l-28.716-86.144
			c-2.041-6.125-7.773-10.256-14.229-10.256H15c-8.284,0-15,6.716-15,15V497c0,8.283,6.716,15,15,15h482c8.284,0,15-6.717,15-15
			V207.801C512,199.517,505.284,192.801,497,192.801z M304.2,415.6h-96.4c-8.284,0-15-6.715-15-15c0-8.283,6.716-15,15-15h96.4
			c8.284,0,15,6.717,15,15C319.2,408.885,312.484,415.6,304.2,415.6z"/>
	</g>
</g>
<g>
</g>
<g>
</g>
<g>
</g>
<g>
</g>
<g>
</g>
<g>
</g>
<g>
</g>
<g>
</g>
<g>
</g>
<g>
</g>
<g>
</g>
<g>
</g>
<g>
</g>
<g>
</g>
<g>
</g>
</svg>
