<?xml version="1.0" encoding="iso-8859-1"?>
<!-- Generator: Adobe Illustrator 19.0.0, SVG Export Plug-In . SVG Version: 6.00 Build 0)  -->
<svg version="1.1" id="Capa_1" xmlns="http://www.w3.org/2000/svg" xmlns:xlink="http://www.w3.org/1999/xlink" x="0px" y="0px"
	 viewBox="0 0 512 512" style="enable-background:new 0 0 512 512;" xml:space="preserve">
<g>
	<g>
		<path d="M497,289.216h-1.066V30H497c8.284,0,15-6.716,15-15s-6.716-15-15-15h-16.066H31.066H15C6.716,0,0,6.716,0,15
			s6.716,15,15,15h1.066v259.216H15c-8.284,0-15,6.716-15,15s6.716,14.999,15,14.999h16.066H241v68.192
			c-27.63,6.753-48.2,31.708-48.2,61.39c0,34.85,28.352,63.203,63.2,63.203c34.848,0,63.2-28.353,63.2-63.203
			c0-29.682-20.57-54.637-48.2-61.39v-68.192h209.934H497c8.284,0,15-6.715,15-14.999C512,295.932,505.284,289.216,497,289.216z
			 M175.667,222.808c-34.849,0-63.2-28.352-63.2-63.2c0-34.849,28.352-63.2,63.2-63.2c34.848,0,63.2,28.352,63.2,63.2
			C238.867,194.456,210.516,222.808,175.667,222.808z M289.2,448.797C289.2,467.105,274.307,482,256,482s-33.2-14.895-33.2-33.203
			c0-18.309,14.894-33.203,33.2-33.203C274.306,415.594,289.2,430.488,289.2,448.797z M384.533,222.808H304.2
			c-8.284,0-15-6.716-15-15s6.716-15,15-15h80.333c8.284,0,15,6.716,15,15S392.817,222.808,384.533,222.808z M384.533,126.407H304.2
			c-8.284,0-15-6.716-15-15s6.716-15,15-15h80.333c8.284,0,15,6.716,15,15S392.817,126.407,384.533,126.407z"/>
	</g>
</g>
<g>
</g>
<g>
</g>
<g>
</g>
<g>
</g>
<g>
</g>
<g>
</g>
<g>
</g>
<g>
</g>
<g>
</g>
<g>
</g>
<g>
</g>
<g>
</g>
<g>
</g>
<g>
</g>
<g>
</g>
</svg>
