<?xml version="1.0" encoding="iso-8859-1"?>
<!-- Generator: Adobe Illustrator 19.0.0, SVG Export Plug-In . SVG Version: 6.00 Build 0)  -->
<svg version="1.1" id="Capa_1" xmlns="http://www.w3.org/2000/svg" xmlns:xlink="http://www.w3.org/1999/xlink" x="0px" y="0px"
	 viewBox="0 0 512 512" style="enable-background:new 0 0 512 512;" xml:space="preserve">
<g>
	<g>
		<path d="M300.88,244.21c11.316-11.427,18.32-27.132,18.32-44.446c0-34.849-28.352-63.2-63.2-63.2c-34.849,0-63.2,28.351-63.2,63.2
			c0,17.314,7.004,33.02,18.32,44.446c-30,16.076-50.453,47.736-50.453,84.087c0,8.283,6.716,15,15,15h160.666
			c8.284,0,15-6.717,15-15C351.333,291.946,330.88,260.286,300.88,244.21z"/>
	</g>
</g>
<g>
	<g>
		<path d="M497,240.997h-33.746c-3.3-46.032-21.65-87.965-50.157-120.879l23.925-23.924c5.858-5.857,5.858-15.355,0.001-21.213
			c-5.857-5.858-15.355-5.858-21.214-0.001l-23.925,23.924c-32.914-28.509-74.849-46.861-120.882-50.161V15c0-8.284-6.716-15-15-15
			s-15,6.716-15,15v33.742c-46.034,3.3-87.968,21.651-120.882,50.159L96.196,74.979c-5.857-5.858-15.355-5.858-21.213,0
			c-5.858,5.857-5.858,15.354,0,21.213l23.923,23.923c-28.509,32.915-46.861,74.849-50.161,120.883H15c-8.284,0-15,6.716-15,15
			s6.716,15,15,15h33.746c3.3,46.034,21.653,87.969,50.163,120.884l-23.925,23.926c-5.858,5.858-5.858,15.354,0,21.213
			c2.929,2.929,6.768,4.393,10.606,4.393c3.839,0,7.678-1.464,10.606-4.393l23.926-23.926
			c32.914,28.507,74.848,46.857,120.88,50.157V497c0,8.283,6.716,15,15,15s15-6.717,15-15v-33.75
			c46.032-3.299,87.966-21.651,120.88-50.159l23.927,23.926c2.929,2.929,6.768,4.394,10.606,4.394c3.839,0,7.678-1.465,10.607-4.395
			c5.857-5.857,5.857-15.355-0.001-21.213l-23.927-23.926c28.508-32.914,46.859-74.848,50.159-120.88H497c8.284,0,15-6.716,15-15
			S505.284,240.997,497,240.997z M256,433.797c-98.039,0-177.8-79.762-177.8-177.8c0-98.029,79.745-177.784,177.77-177.8
			c0.011,0,0.021,0.002,0.031,0.002c0.011,0,0.02-0.002,0.03-0.002c98.024,0.017,177.768,79.771,177.768,177.8
			C433.8,354.035,354.039,433.797,256,433.797z"/>
	</g>
</g>
<g>
</g>
<g>
</g>
<g>
</g>
<g>
</g>
<g>
</g>
<g>
</g>
<g>
</g>
<g>
</g>
<g>
</g>
<g>
</g>
<g>
</g>
<g>
</g>
<g>
</g>
<g>
</g>
<g>
</g>
</svg>
