<?xml version="1.0" encoding="iso-8859-1"?>
<!-- Generator: Adobe Illustrator 19.0.0, SVG Export Plug-In . SVG Version: 6.00 Build 0)  -->
<svg version="1.1" id="Capa_1" xmlns="http://www.w3.org/2000/svg" xmlns:xlink="http://www.w3.org/1999/xlink" x="0px" y="0px"
	 viewBox="0 0 512 512" style="enable-background:new 0 0 512 512;" xml:space="preserve">
<g>
	<g>
		<path d="M461.546,412.908c11.316-11.428,18.32-27.135,18.32-44.449c0-29.682-20.57-54.637-48.199-61.39v-51.07
			c0-8.284-6.716-15-15-15H271v-34.256h65.333c8.284,0,15-6.716,15-15c0-36.354-20.453-68.015-50.454-84.092
			C312.196,96.225,319.2,80.518,319.2,63.202C319.2,28.352,290.849,0,256,0s-63.2,28.352-63.2,63.202
			c0,17.315,7.004,33.022,18.321,44.449c-30.001,16.077-50.454,47.738-50.454,84.092c0,8.284,6.716,15,15,15H241v34.256H95.333
			c-8.284,0-15,6.716-15,15v51.07c-27.629,6.753-48.199,31.708-48.199,61.39c0,17.314,7.003,33.022,18.321,44.449
			C20.454,428.984,0,460.647,0,497c0,8.283,6.716,15,15,15h160.667c8.284,0,15-6.717,15-15c0-36.353-20.454-68.016-50.455-84.092
			c11.317-11.428,18.321-27.135,18.321-44.449c0-29.682-20.571-54.637-48.2-61.39v-36.07h291.334v36.07
			c-27.629,6.753-48.2,31.708-48.2,61.39c0,17.314,7.004,33.022,18.321,44.449c-30.001,16.076-50.455,47.738-50.455,84.092
			c0,8.283,6.716,15,15,15H497c8.284,0,15-6.717,15-15C512,460.647,491.546,428.984,461.546,412.908z"/>
	</g>
</g>
<g>
</g>
<g>
</g>
<g>
</g>
<g>
</g>
<g>
</g>
<g>
</g>
<g>
</g>
<g>
</g>
<g>
</g>
<g>
</g>
<g>
</g>
<g>
</g>
<g>
</g>
<g>
</g>
<g>
</g>
</svg>
