<?xml version="1.0" encoding="iso-8859-1"?>
<!-- Generator: Adobe Illustrator 19.0.0, SVG Export Plug-In . SVG Version: 6.00 Build 0)  -->
<svg version="1.1" id="Capa_1" xmlns="http://www.w3.org/2000/svg" xmlns:xlink="http://www.w3.org/1999/xlink" x="0px" y="0px"
	 viewBox="0 0 512 512" style="enable-background:new 0 0 512 512;" xml:space="preserve">
<g>
	<g>
		<path d="M256,254.935c-27.166,0-49.267,22.101-49.267,49.267c0,27.165,22.101,49.266,49.267,49.266s49.267-22.101,49.267-49.266
			C305.267,277.035,283.166,254.935,256,254.935z"/>
	</g>
</g>
<g>
	<g>
		<path d="M497,96.4H367.4V15c0-8.284-6.716-15-15-15H159.6c-8.284,0-15,6.716-15,15v81.4H15c-8.284,0-15,6.716-15,15V497
			c0,8.283,6.716,15,15,15h482c8.284,0,15-6.717,15-15V111.4C512,103.116,505.284,96.4,497,96.4z M174.6,30h162.8v66.4H174.6V30z
			 M352.44,319.203h-18.616c-2.063,10.722-6.279,20.686-12.202,29.409l13.177,13.177c5.858,5.857,5.858,15.354,0,21.213
			c-2.929,2.929-6.767,4.392-10.606,4.392s-7.678-1.464-10.607-4.392l-13.177-13.177c-8.723,5.922-18.688,10.138-29.409,12.2v18.615
			c0,8.285-6.716,15-15,15s-15-6.715-15-15v-18.615c-10.723-2.063-20.688-6.279-29.41-12.201l-13.179,13.178
			c-2.929,2.929-6.769,4.392-10.606,4.392c-3.839,0-7.678-1.464-10.607-4.392c-5.858-5.858-5.858-15.355,0-21.214l13.178-13.177
			c-5.922-8.724-10.137-18.688-12.2-29.408h-18.617c-8.284,0-15-6.717-15-15c0-8.284,6.716-15,15-15h18.617
			c2.063-10.723,6.277-20.689,12.2-29.412l-13.178-13.178c-5.858-5.858-5.858-15.355,0-21.214
			c5.857-5.857,15.355-5.857,21.213,0.001l13.178,13.178c8.724-5.923,18.688-10.139,29.411-12.201v-18.618c0-8.284,6.716-15,15-15
			s15,6.716,15,15v18.618c10.722,2.063,20.686,6.277,29.41,12.2l13.176-13.178c5.857-5.858,15.354-5.858,21.214-0.001
			c5.857,5.857,5.858,15.355,0.001,21.213l-13.178,13.179c5.923,8.724,10.139,18.689,12.202,29.413h18.615c8.284,0,15,6.716,15,15
			C367.44,312.486,360.725,319.203,352.44,319.203z"/>
	</g>
</g>
<g>
</g>
<g>
</g>
<g>
</g>
<g>
</g>
<g>
</g>
<g>
</g>
<g>
</g>
<g>
</g>
<g>
</g>
<g>
</g>
<g>
</g>
<g>
</g>
<g>
</g>
<g>
</g>
<g>
</g>
</svg>
