<?xml version="1.0" encoding="iso-8859-1"?>
<!-- Generator: Adobe Illustrator 19.0.0, SVG Export Plug-In . SVG Version: 6.00 Build 0)  -->
<svg version="1.1" id="Capa_1" xmlns="http://www.w3.org/2000/svg" xmlns:xlink="http://www.w3.org/1999/xlink" x="0px" y="0px"
	 viewBox="0 0 512 512" style="enable-background:new 0 0 512 512;" xml:space="preserve">
<g>
	<g>
		<path d="M432.733,482h-19.427l-11.066-66.4h14.427c8.284,0,15-6.715,15-15c0-8.283-6.716-15-15-15h-32.134h-35.19l-27.848-194.933
			h14.838c8.284,0,15-6.716,15-15s-6.716-15-15-15h-10.975c16.095-17.076,25.975-40.071,25.975-65.333
			C351.333,42.767,308.567,0,256,0c-52.567,0-95.333,42.767-95.333,95.334c0,25.262,9.88,48.257,25.975,65.333h-10.975
			c-8.284,0-15,6.716-15,15s6.716,15,15,15h14.838L162.657,385.6h-35.19H95.333c-8.284,0-15,6.717-15,15c0,8.285,6.716,15,15,15
			h14.427L98.693,482H79.267c-8.284,0-15,6.715-15,15c0,8.283,6.716,15,15,15H111.4h289.2c0.007,0,0.013,0,0.02,0h32.113
			c8.284,0,15-6.717,15-15C447.733,488.715,441.018,482,432.733,482z"/>
	</g>
</g>
<g>
</g>
<g>
</g>
<g>
</g>
<g>
</g>
<g>
</g>
<g>
</g>
<g>
</g>
<g>
</g>
<g>
</g>
<g>
</g>
<g>
</g>
<g>
</g>
<g>
</g>
<g>
</g>
<g>
</g>
</svg>
