<?xml version="1.0" encoding="iso-8859-1"?>
<!-- Generator: Adobe Illustrator 19.0.0, SVG Export Plug-In . SVG Version: 6.00 Build 0)  -->
<svg version="1.1" id="Capa_1" xmlns="http://www.w3.org/2000/svg" xmlns:xlink="http://www.w3.org/1999/xlink" x="0px" y="0px"
	 viewBox="0 0 512 512" style="enable-background:new 0 0 512 512;" xml:space="preserve">
<g>
	<g>
		<path d="M172.346,107.646c11.316-11.427,18.32-27.132,18.32-44.446c0-34.849-28.352-63.2-63.2-63.2
			c-34.848,0-63.2,28.352-63.2,63.2c0,17.314,7.003,33.02,18.32,44.446c-16.632,8.913-30.321,22.621-39.226,39.257
			c1.245-0.105,2.501-0.17,3.772-0.17H207.8c1.271,0,2.527,0.065,3.773,0.17C202.668,130.267,188.978,116.559,172.346,107.646z"/>
	</g>
</g>
<g>
	<g>
		<path d="M429.412,107.646c11.316-11.427,18.32-27.133,18.32-44.446c0-34.849-28.352-63.2-63.2-63.2s-63.199,28.352-63.199,63.2
			c0,17.314,7.003,33.02,18.319,44.446c-16.632,8.913-30.321,22.62-39.227,39.257c1.246-0.105,2.502-0.17,3.773-0.17h160.669
			c1.272,0,2.527,0.065,3.772,0.17C459.734,130.266,446.044,116.559,429.412,107.646z"/>
	</g>
</g>
<g>
	<g>
		<path d="M497,273.134h-17.133v-81.4c0-8.284-6.716-15-15-15H304.2c-8.284,0-15,6.716-15,15v81.4h-66.4v-81.4
			c0-8.284-6.716-15-15-15H47.134c-8.284,0-15,6.716-15,15v81.4H15c-8.284,0-15,6.716-15,15V400.6V497c0,8.283,6.716,15,15,15
			s15-6.717,15-15v-81.4h452V497c0,8.283,6.716,15,15,15s15-6.717,15-15v-96.4V288.134C512,279.85,505.284,273.134,497,273.134z"/>
	</g>
</g>
<g>
</g>
<g>
</g>
<g>
</g>
<g>
</g>
<g>
</g>
<g>
</g>
<g>
</g>
<g>
</g>
<g>
</g>
<g>
</g>
<g>
</g>
<g>
</g>
<g>
</g>
<g>
</g>
<g>
</g>
</svg>
