<?xml version="1.0" encoding="iso-8859-1"?>
<!-- Generator: Adobe Illustrator 19.0.0, SVG Export Plug-In . SVG Version: 6.00 Build 0)  -->
<svg version="1.1" id="Capa_1" xmlns="http://www.w3.org/2000/svg" xmlns:xlink="http://www.w3.org/1999/xlink" x="0px" y="0px"
	 viewBox="0 0 512 512" style="enable-background:new 0 0 512 512;" xml:space="preserve">
<g>
	<g>
		<path d="M416.667,0H95.333c-8.284,0-15,6.716-15,15v112.467c0,8.284,6.716,15,15,15h106.254l43.807,43.807
			c2.928,2.928,6.767,4.393,10.606,4.393s7.678-1.465,10.606-4.394l43.807-43.807h106.254c8.284,0,15-6.716,15-15V15
			C431.667,6.716,424.951,0,416.667,0z"/>
	</g>
</g>
<g>
	<g>
		<path d="M140.214,316.512c11.316-11.426,18.319-27.132,18.319-44.445c0-34.849-28.352-63.199-63.2-63.199
			s-63.199,28.351-63.199,63.199c0,17.314,7.003,33.02,18.32,44.445C20.454,332.589,0,364.248,0,400.6V497c0,8.283,6.716,15,15,15
			h160.667c8.284,0,15-6.717,15-15v-96.4C190.667,364.248,170.214,332.589,140.214,316.512z"/>
	</g>
</g>
<g>
	<g>
		<path d="M497,385.6H219.761c0.594,4.939,0.906,9.945,0.906,15V497c0,5.258-0.915,10.305-2.58,15H497c8.284,0,15-6.717,15-15v-96.4
			C512,392.315,505.284,385.6,497,385.6z"/>
	</g>
</g>
<g>
	<g>
		<path d="M461.545,316.511c11.317-11.426,18.32-27.132,18.32-44.445c0-34.849-28.352-63.199-63.199-63.199
			c-34.848,0-63.199,28.351-63.199,63.199c0,17.314,7.003,33.02,18.32,44.445c-16.575,8.883-30.227,22.528-39.134,39.088H497
			c1.272,0,2.528,0.065,3.772,0.17C491.868,339.132,478.178,325.425,461.545,316.511z"/>
	</g>
</g>
<g>
</g>
<g>
</g>
<g>
</g>
<g>
</g>
<g>
</g>
<g>
</g>
<g>
</g>
<g>
</g>
<g>
</g>
<g>
</g>
<g>
</g>
<g>
</g>
<g>
</g>
<g>
</g>
<g>
</g>
</svg>
