<?xml version="1.0" encoding="iso-8859-1"?>
<!-- Generator: Adobe Illustrator 19.0.0, SVG Export Plug-In . SVG Version: 6.00 Build 0)  -->
<svg version="1.1" id="Capa_1" xmlns="http://www.w3.org/2000/svg" xmlns:xlink="http://www.w3.org/1999/xlink" x="0px" y="0px"
	 viewBox="0 0 512.001 512.001" style="enable-background:new 0 0 512.001 512.001;" xml:space="preserve">
<g>
	<g>
		<path d="M349.424,172.681c-5.784-28.483-24.166-51.916-48.586-64.992C312.181,96.26,319.2,80.535,319.2,63.2
			c0-34.849-28.352-63.2-63.199-63.2C221.151,0,192.8,28.352,192.8,63.2c0,17.335,7.02,33.06,18.361,44.489
			c-24.42,13.076-42.801,36.509-48.584,64.993c-0.896,4.411,0.236,8.991,3.086,12.477c2.849,3.486,7.112,5.508,11.613,5.508h157.447
			c4.502,0,8.766-2.023,11.615-5.508C349.186,181.674,350.318,177.094,349.424,172.681z"/>
	</g>
</g>
<g>
	<g>
		<path d="M506.87,494.016c-5.783-28.484-24.164-51.918-48.584-64.994c11.342-11.43,18.361-27.153,18.361-44.488
			c0-34.85-28.352-63.201-63.201-63.201c-34.848,0-63.199,28.352-63.199,63.201c0,17.335,7.02,33.059,18.361,44.488
			c-24.419,13.076-42.801,36.51-48.584,64.994c-0.896,4.411,0.236,8.991,3.086,12.477c2.849,3.486,7.112,5.508,11.613,5.508H492.17
			c4.501,0,8.765-2.022,11.613-5.508C506.634,503.007,507.767,498.427,506.87,494.016z"/>
	</g>
</g>
<g>
	<g>
		<path d="M191.978,494.014c-5.785-28.483-24.167-51.916-48.586-64.992c11.342-11.431,18.361-27.154,18.361-44.489
			c0-34.85-28.352-63.201-63.2-63.201c-34.849,0-63.2,28.352-63.2,63.201c0,17.335,7.02,33.059,18.361,44.488
			c-24.419,13.076-42.801,36.51-48.584,64.994c-0.895,4.411,0.237,8.991,3.086,12.477C11.064,509.978,15.328,512,19.83,512h157.447
			c4.502,0,8.766-2.022,11.615-5.508C191.74,503.007,192.872,498.426,191.978,494.014z"/>
	</g>
</g>
<g>
	<g>
		<path d="M304.2,289.2h-33.199V256c0-8.284-6.717-15-15-15c-8.285,0-15,6.716-15,15v33.2H207.8c-8.283,0-15,6.716-15,15
			s6.717,14.999,15,14.999h33.201V352.4c0,8.283,6.715,15,15,15c8.283,0,15-6.717,15-15v-33.201H304.2c8.285,0,15-6.715,15-14.999
			S312.485,289.2,304.2,289.2z"/>
	</g>
</g>
<g>
</g>
<g>
</g>
<g>
</g>
<g>
</g>
<g>
</g>
<g>
</g>
<g>
</g>
<g>
</g>
<g>
</g>
<g>
</g>
<g>
</g>
<g>
</g>
<g>
</g>
<g>
</g>
<g>
</g>
</svg>
