<?xml version="1.0" encoding="iso-8859-1"?>
<!-- Generator: Adobe Illustrator 19.0.0, SVG Export Plug-In . SVG Version: 6.00 Build 0)  -->
<svg xmlns="http://www.w3.org/2000/svg" xmlns:xlink="http://www.w3.org/1999/xlink" version="1.1" id="Capa_1" x="0px" y="0px" viewBox="0 0 452.267 452.267" style="enable-background:new 0 0 452.267 452.267;" xml:space="preserve">
<path d="M292.267,128v85.333H313.6V256h-64V85.333h42.667L228.267,0l-64,85.333h42.667V256h-64v-44.16  c15.04-7.787,25.6-23.04,25.6-41.173c0-25.92-21.013-46.933-46.933-46.933s-46.933,21.013-46.933,46.933  c0,18.133,10.56,33.387,25.6,41.173V256c0,23.573,19.093,42.667,42.667,42.667h64v65.067c-15.147,7.787-25.6,23.36-25.6,41.6  c0,25.92,21.013,46.933,46.933,46.933s46.933-21.013,46.933-46.933c0-18.24-10.453-33.813-25.6-41.6v-65.067h64  c23.573,0,42.667-19.093,42.667-42.667v-42.667H377.6V128H292.267z"/>
<g>
</g>
<g>
</g>
<g>
</g>
<g>
</g>
<g>
</g>
<g>
</g>
<g>
</g>
<g>
</g>
<g>
</g>
<g>
</g>
<g>
</g>
<g>
</g>
<g>
</g>
<g>
</g>
<g>
</g>
</svg>
