<?xml version="1.0" encoding="iso-8859-1"?>
<!-- Generator: Adobe Illustrator 19.0.0, SVG Export Plug-In . SVG Version: 6.00 Build 0)  -->
<svg xmlns="http://www.w3.org/2000/svg" xmlns:xlink="http://www.w3.org/1999/xlink" version="1.1" id="Capa_1" x="0px" y="0px" viewBox="0 0 490.667 490.667" style="enable-background:new 0 0 490.667 490.667;" xml:space="preserve">
<path d="M478.047,272.427L423.22,217.6l-30.187,30.187l47.253,47.253l-120.64,120.64L78.26,174.293L198.9,53.653l44.693,44.693  L273.78,68.16l-52.267-52.267c-12.48-12.48-32.747-12.48-45.227,0L40.5,151.68c-12.48,12.48-12.48,32.747,0,45.227l256.427,256.427  c12.48,12.48,32.747,12.48,45.227,0L477.94,317.547C490.527,305.173,490.527,284.907,478.047,272.427z M162.527,437.013  C92.873,403.947,42.847,336.213,35.273,256h-32c10.88,131.413,120.747,234.667,254.933,234.667c4.8,0,9.387-0.427,14.187-0.747  l-81.387-81.387L162.527,437.013z M323.273,192H429.94c11.84,0,21.333-9.6,21.333-21.333V85.333C451.273,73.6,441.78,64,429.94,64  V53.333C429.94,23.893,406.047,0,376.607,0s-53.333,23.893-53.333,53.333V64c-11.84,0-21.333,9.6-21.333,21.333v85.333  C301.94,182.4,311.433,192,323.273,192z M340.34,53.333c0-20.053,16.213-36.267,36.267-36.267s36.267,16.213,36.267,36.267V64  H340.34L340.34,53.333L340.34,53.333z"/>
<g>
</g>
<g>
</g>
<g>
</g>
<g>
</g>
<g>
</g>
<g>
</g>
<g>
</g>
<g>
</g>
<g>
</g>
<g>
</g>
<g>
</g>
<g>
</g>
<g>
</g>
<g>
</g>
<g>
</g>
</svg>
