<?xml version="1.0" encoding="iso-8859-1"?>
<!-- Generator: Adobe Illustrator 19.0.0, SVG Export Plug-In . SVG Version: 6.00 Build 0)  -->
<svg xmlns="http://www.w3.org/2000/svg" xmlns:xlink="http://www.w3.org/1999/xlink" version="1.1" id="Capa_1" x="0px" y="0px" viewBox="0 0 469.333 469.333" style="enable-background:new 0 0 469.333 469.333;" xml:space="preserve">
<path d="M425.387,213.333C415.573,124.373,344.96,53.76,256,43.947V0h-42.667v43.947c-24.107,2.667-46.72,9.92-67.307,20.693l32,32  c17.493-7.253,36.587-11.307,56.64-11.307C317.12,85.333,384,152.213,384,234.667c0,20.053-4.053,39.147-11.2,56.64l32,32  c10.773-20.587,17.92-43.2,20.587-67.307h43.947v-42.667L425.387,213.333L425.387,213.333z M42.667,69.867L86.08,113.28  c-22.827,27.947-37.973,62.293-42.133,100.053H0V256h43.947c9.813,88.96,80.427,159.573,169.387,169.387v43.947H256v-43.947  c37.76-4.16,72.107-19.413,100.053-42.24l43.413,43.52l27.2-27.093L69.867,42.667L42.667,69.867z M325.653,352.853  C300.48,372.267,269.013,384,234.667,384c-82.453,0-149.333-66.88-149.333-149.333c0-34.347,11.733-65.813,31.147-90.987  L325.653,352.853z"/>
<g>
</g>
<g>
</g>
<g>
</g>
<g>
</g>
<g>
</g>
<g>
</g>
<g>
</g>
<g>
</g>
<g>
</g>
<g>
</g>
<g>
</g>
<g>
</g>
<g>
</g>
<g>
</g>
<g>
</g>
</svg>
