<?xml version="1.0" encoding="iso-8859-1"?>
<!-- Generator: Adobe Illustrator 19.0.0, SVG Export Plug-In . SVG Version: 6.00 Build 0)  -->
<svg xmlns="http://www.w3.org/2000/svg" xmlns:xlink="http://www.w3.org/1999/xlink" version="1.1" id="Capa_1" x="0px" y="0px" viewBox="0 0 469.333 469.333" style="enable-background:new 0 0 469.333 469.333;" xml:space="preserve">
<path d="M426.667,42.667h-384C19.093,42.667,0,61.76,0,85.333v256C0,364.907,19.093,384,42.667,384h106.667v42.667H320V384h106.667  c23.573,0,42.453-19.093,42.453-42.667l0.213-256C469.333,61.76,450.24,42.667,426.667,42.667z M426.667,341.333h-384v-256h384  V341.333z M384,149.333H149.333V192H384V149.333z M384,234.667H149.333v42.667H384V234.667z M128,149.333H85.333V192H128V149.333z   M128,234.667H85.333v42.667H128V234.667z"/>
<g>
</g>
<g>
</g>
<g>
</g>
<g>
</g>
<g>
</g>
<g>
</g>
<g>
</g>
<g>
</g>
<g>
</g>
<g>
</g>
<g>
</g>
<g>
</g>
<g>
</g>
<g>
</g>
<g>
</g>
</svg>
