<?xml version="1.0" encoding="iso-8859-1"?>
<!-- Generator: Adobe Illustrator 19.0.0, SVG Export Plug-In . SVG Version: 6.00 Build 0)  -->
<svg xmlns="http://www.w3.org/2000/svg" xmlns:xlink="http://www.w3.org/1999/xlink" version="1.1" id="Capa_1" x="0px" y="0px" viewBox="0 0 426.773 426.773" style="enable-background:new 0 0 426.773 426.773;" xml:space="preserve">
<path d="M291.52,42.667H256V0h-85.333v42.667h-35.52c-15.787,0-28.48,12.693-28.48,28.48v327.147c0,15.68,12.693,28.48,28.48,28.48  h156.48c15.68,0,28.48-12.693,28.48-28.48V71.147C320,55.36,307.307,42.667,291.52,42.667z M233.6,340.267h-40.533v-40.533H233.6  V340.267z M262.4,228.053c0,0-8.107,8.96-14.293,15.147c-10.347,10.347-17.707,24.427-17.707,34.133h-34.133  c0-17.707,9.813-32.533,19.84-42.56l19.84-20.16c5.76-5.76,9.387-13.76,9.387-22.613c0-17.707-14.293-32-32-32s-32,14.293-32,32h-32  c0-35.307,28.693-64,64-64s64,28.693,64,64C277.333,206.08,271.68,218.88,262.4,228.053L262.4,228.053z"/>
<g>
</g>
<g>
</g>
<g>
</g>
<g>
</g>
<g>
</g>
<g>
</g>
<g>
</g>
<g>
</g>
<g>
</g>
<g>
</g>
<g>
</g>
<g>
</g>
<g>
</g>
<g>
</g>
<g>
</g>
</svg>
