<?xml version="1.0" encoding="iso-8859-1"?>
<!-- Generator: Adobe Illustrator 19.0.0, SVG Export Plug-In . SVG Version: 6.00 Build 0)  -->
<svg xmlns="http://www.w3.org/2000/svg" xmlns:xlink="http://www.w3.org/1999/xlink" version="1.1" id="Capa_1" x="0px" y="0px" viewBox="0 0 429.653 429.653" style="enable-background:new 0 0 429.653 429.653;" xml:space="preserve">
<path d="M126.933,32.64L99.52,0L1.493,82.24l27.413,32.64L126.933,32.64L126.933,32.64z M428.16,82.347l-98.027-82.24l-27.413,32.64  l98.027,82.24L428.16,82.347z M214.72,45.653c-106.133,0-191.893,85.973-191.893,192s85.76,192,191.893,192  s192.107-85.973,192.107-192S320.853,45.653,214.72,45.653z M214.827,386.987c-82.453,0-149.333-66.88-149.333-149.333  S132.373,88.32,214.827,88.32S364.16,155.2,364.16,237.653S297.387,386.987,214.827,386.987z M236.16,152.32h-42.667v64h-64v42.667  h64v64h42.667v-64h64V216.32h-64V152.32z"/>
<g>
</g>
<g>
</g>
<g>
</g>
<g>
</g>
<g>
</g>
<g>
</g>
<g>
</g>
<g>
</g>
<g>
</g>
<g>
</g>
<g>
</g>
<g>
</g>
<g>
</g>
<g>
</g>
<g>
</g>
</svg>
