<?xml version="1.0" encoding="iso-8859-1"?>
<!-- Generator: Adobe Illustrator 19.0.0, SVG Export Plug-In . SVG Version: 6.00 Build 0)  -->
<svg xmlns="http://www.w3.org/2000/svg" xmlns:xlink="http://www.w3.org/1999/xlink" version="1.1" id="Capa_1" x="0px" y="0px" viewBox="0 0 384 384" style="enable-background:new 0 0 384 384;" xml:space="preserve">
<g>
	<g>
		<path d="M298.667,125.013c36.8-9.493,64-42.56,64-82.347h-64V21.333C298.667,9.6,289.173,0,277.333,0H106.667    C94.933,0,85.333,9.6,85.333,21.333v21.333h-64c0,39.68,27.307,72.853,64,82.347v24.32h-64c0,39.68,27.307,72.853,64,82.347V256    h-64c0,39.68,27.307,72.853,64,82.347v24.32c0,11.733,9.6,21.333,21.333,21.333h170.667c11.84,0,21.333-9.6,21.333-21.333v-24.32    c36.8-9.493,64-42.56,64-82.347h-64v-24.32c36.8-9.493,64-42.667,64-82.347v0h-64V125.013z M192,341.333    c-23.573,0-42.667-19.093-42.667-42.667C149.333,275.093,168.427,256,192,256s42.667,19.093,42.667,42.667    C234.667,322.24,215.573,341.333,192,341.333z M192,234.667c-23.573,0-42.667-19.093-42.667-42.667s19.093-42.667,42.667-42.667    s42.667,19.093,42.667,42.667S215.573,234.667,192,234.667z M192,128c-23.573,0-42.667-19.093-42.667-42.667    c0-23.573,19.093-42.667,42.667-42.667s42.667,19.093,42.667,42.667C234.667,108.907,215.573,128,192,128z"/>
	</g>
</g>
<g>
</g>
<g>
</g>
<g>
</g>
<g>
</g>
<g>
</g>
<g>
</g>
<g>
</g>
<g>
</g>
<g>
</g>
<g>
</g>
<g>
</g>
<g>
</g>
<g>
</g>
<g>
</g>
<g>
</g>
</svg>
