<?xml version="1.0" encoding="iso-8859-1"?>
<!-- Generator: Adobe Illustrator 19.0.0, SVG Export Plug-In . SVG Version: 6.00 Build 0)  -->
<svg xmlns="http://www.w3.org/2000/svg" xmlns:xlink="http://www.w3.org/1999/xlink" version="1.1" id="Capa_1" x="0px" y="0px" viewBox="0 0 426.667 426.667" style="enable-background:new 0 0 426.667 426.667;" xml:space="preserve">
<g>
	<g>
		<path d="M320,245.333c-43.2,0-83.947,14.933-116.053,39.04C196.693,290.24,192,299.2,192,309.333v117.333h149.333    C364.8,426.667,384,407.467,384,384V256.533C363.84,249.387,342.293,245.333,320,245.333z"/>
	</g>
</g>
<g>
	<g>
		<circle cx="320" cy="106.667" r="106.667"/>
	</g>
</g>
<g>
	<g>
		<path d="M181.333,106.667c0-23.147,5.76-44.8,15.68-64H42.667C19.2,42.667,0,61.867,0,85.333V384c0,11.733,4.8,22.4,12.587,30.187    L221.973,204.8C196.907,179.627,181.333,144.96,181.333,106.667z"/>
	</g>
</g>
<g>
</g>
<g>
</g>
<g>
</g>
<g>
</g>
<g>
</g>
<g>
</g>
<g>
</g>
<g>
</g>
<g>
</g>
<g>
</g>
<g>
</g>
<g>
</g>
<g>
</g>
<g>
</g>
<g>
</g>
</svg>
