<?xml version="1.0" encoding="iso-8859-1"?>
<!-- Generator: Adobe Illustrator 19.0.0, SVG Export Plug-In . SVG Version: 6.00 Build 0)  -->
<svg version="1.1" id="Layer_1" xmlns="http://www.w3.org/2000/svg" xmlns:xlink="http://www.w3.org/1999/xlink" x="0px" y="0px"
	 viewBox="0 0 512 512" style="enable-background:new 0 0 512 512;" xml:space="preserve">
<g>
	<g>
		<g>
			<path d="M341.333,51.2H221.866v25.6c0,4.71,3.823,8.533,8.533,8.533h110.933c9.412,0,17.067,7.654,17.067,17.067v401.067
				c0,4.71,3.823,8.533,8.533,8.533h25.6V102.4C392.533,74.163,369.57,51.2,341.333,51.2z"/>
			<path d="M341.333,0H230.4c-4.71,0-8.533,3.823-8.533,8.533v25.6h119.467c37.641,0,68.267,30.626,68.267,68.267V512h25.6
				c4.71,0,8.533-3.823,8.533-8.533V102.4C443.733,45.935,397.798,0,341.333,0z"/>
			<path d="M247.466,162.133h-102.4v25.6c0,4.71,3.823,8.533,8.533,8.533h85.333c4.702,0,8.533,3.831,8.533,8.533v298.667
				c0,4.71,3.823,8.533,8.533,8.533h25.6V196.267C281.6,177.442,266.291,162.133,247.466,162.133z"/>
			<path d="M247.466,110.933H153.6c-4.71,0-8.533,3.823-8.533,8.533v25.6h102.4c28.237,0,51.2,22.963,51.2,51.2V512h25.6
				c4.71,0,8.533-3.823,8.533-8.533v-307.2C332.8,149.214,294.519,110.933,247.466,110.933z"/>
			<path d="M145.016,273.067H68.267v25.6c0,4.71,3.823,8.533,8.533,8.533l59.733,0.051v196.216c0,4.71,3.823,8.533,8.533,8.533h25.6
				V298.718C170.667,284.578,159.156,273.067,145.016,273.067z"/>
			<path d="M145.016,221.867H76.8c-4.71,0-8.533,3.823-8.533,8.533V256h76.749c23.552,0,42.718,19.166,42.718,42.718V512h25.6
				c4.71,0,8.533-3.823,8.533-8.533V298.718C221.867,256.341,187.392,221.867,145.016,221.867z"/>
		</g>
	</g>
</g>
<g>
</g>
<g>
</g>
<g>
</g>
<g>
</g>
<g>
</g>
<g>
</g>
<g>
</g>
<g>
</g>
<g>
</g>
<g>
</g>
<g>
</g>
<g>
</g>
<g>
</g>
<g>
</g>
<g>
</g>
</svg>
