<?xml version="1.0" encoding="iso-8859-1"?>
<!-- Generator: Adobe Illustrator 19.0.0, SVG Export Plug-In . SVG Version: 6.00 Build 0)  -->
<svg version="1.1" id="Layer_1" xmlns="http://www.w3.org/2000/svg" xmlns:xlink="http://www.w3.org/1999/xlink" x="0px" y="0px"
	 viewBox="0 0 503.607 503.607" style="enable-background:new 0 0 503.607 503.607;" xml:space="preserve">
<g>
	<g>
		<path d="M495.213,100.721h-45.325L332.38,218.229h28.538v16.787h-35.252L208.157,352.525h99.882l117.508-117.508h-14.269v-16.787
			h15.948l76.38-76.38v-32.734C503.607,104.918,500.249,100.721,495.213,100.721z M394.492,235.016h-16.787v-16.787h16.787V235.016z
			"/>
	</g>
</g>
<g>
	<g>
		<path d="M411.279,75.541c10.072-7.554,16.787-19.305,16.787-33.574C428.066,18.466,409.6,0,386.098,0
			c-23.502,0-41.967,18.466-41.967,41.967c0,13.43,6.715,26.02,16.787,33.574v25.18h-34.413L208.997,218.229h99.882l117.508-117.508
			h-15.108V75.541z M394.492,100.721h-16.787V83.095c2.518,0.839,5.875,0.839,8.393,0.839c2.518,0,5.875,0,8.393-0.839V100.721z"/>
	</g>
</g>
<g>
	<g>
		<path d="M8.393,100.721c-5.036,0-8.393,3.357-8.393,8.393v61.272l69.666-69.666H8.393z"/>
	</g>
</g>
<g>
	<g>
		<path d="M450.728,218.229h44.485c5.036,0,8.393-3.357,8.393-8.393v-44.485L450.728,218.229z"/>
	</g>
</g>
<g>
	<g>
		<path d="M142.689,100.721v-25.18c10.072-7.554,16.787-19.305,16.787-33.574C159.475,18.466,141.01,0,117.508,0
			C94.007,0,75.541,18.466,75.541,41.967c0,13.43,6.715,26.02,16.787,33.574V102.4L0,194.728v15.108
			c0,5.036,4.197,8.393,8.393,8.393h62.112l117.508-117.508H142.689z M125.902,100.721h-16.787V83.095
			c2.518,0.839,5.875,0.839,8.393,0.839c2.518,0,5.875,0,8.393-0.839V100.721z"/>
	</g>
</g>
<g>
	<g>
		<path d="M495.213,235.016h-45.325L332.38,352.525h45.325v41.967H125.902v-41.967h58.754l117.508-117.508h-89.81L111.633,335.738
			H88.131l100.721-100.721h-46.164v-16.787h41.967l117.508-117.508h-89.81L111.633,201.443h-10.911
			c-5.036,0-8.393,3.357-8.393,8.393v26.02L0,328.184v15.948c0,5.036,3.357,8.393,8.393,8.393h62.112l5.036-5.036v147.725
			c0,5.036,3.357,8.393,8.393,8.393h33.574c5.036,0,8.393-3.357,8.393-8.393v-33.574h251.803v33.574
			c0,5.036,3.357,8.393,8.393,8.393h33.574c5.036,0,8.393-3.357,8.393-8.393V351.685l75.541-75.541V243.41
			C503.607,239.213,500.249,235.016,495.213,235.016z M109.115,218.229h16.787v16.787h-16.787V218.229z M109.115,402.885v50.361
			v33.574H92.328V352.525h2.518h14.269V402.885z M411.279,486.82h-16.787v-33.574v-50.361v-50.361h16.787V486.82z"/>
	</g>
</g>
<g>
	<g>
		<path d="M8.393,235.016c-5.036,0-8.393,3.357-8.393,8.393v61.272l69.666-69.666H8.393z"/>
	</g>
</g>
<g>
	<g>
		<path d="M450.728,352.525h44.485c5.036,0,8.393-3.357,8.393-8.393v-44.485L450.728,352.525z"/>
	</g>
</g>
<g>
</g>
<g>
</g>
<g>
</g>
<g>
</g>
<g>
</g>
<g>
</g>
<g>
</g>
<g>
</g>
<g>
</g>
<g>
</g>
<g>
</g>
<g>
</g>
<g>
</g>
<g>
</g>
<g>
</g>
</svg>
