<?xml version="1.0" encoding="iso-8859-1"?>
<!-- Generator: Adobe Illustrator 19.0.0, SVG Export Plug-In . SVG Version: 6.00 Build 0)  -->
<svg version="1.1" id="Layer_1" xmlns="http://www.w3.org/2000/svg" xmlns:xlink="http://www.w3.org/1999/xlink" x="0px" y="0px"
	 viewBox="0 0 512 512" style="enable-background:new 0 0 512 512;" xml:space="preserve">
<g>
	<g>
		<g>
			<path d="M281.6,0h-51.2C133.265,0,51.2,85.973,51.2,187.733c0,4.719,3.814,8.533,8.533,8.533h25.6v8.533
				c0,9.412,7.654,17.067,17.067,17.067h0.486l10.044,170.667h32.137c4.719,0,8.533,3.814,8.533,8.533s-3.814,8.533-8.533,8.533
				h-31.13l0.998,17.067h47.198c4.719,0,8.533,3.814,8.533,8.533c0,4.719-3.814,8.533-8.533,8.533h-46.191l1.007,17.067H179.2
				c4.719,0,8.533,3.814,8.533,8.533s-3.814,8.533-8.533,8.533h-61.252l0.597,10.027C119.322,501.41,130.552,512,144.094,512
				h223.812c13.542,0,24.772-10.59,25.549-24.098l0.597-10.035h-27.119c-4.719,0-8.533-3.814-8.533-8.533s3.814-8.533,8.533-8.533
				h28.117l1.007-17.067h-46.191c-4.719,0-8.533-3.814-8.533-8.533c0-4.719,3.814-8.533,8.533-8.533h47.198l0.998-17.067H332.8
				c-4.719,0-8.533-3.814-8.533-8.533s3.814-8.533,8.533-8.533h66.27l10.044-170.667h0.486c9.412,0,17.067-7.654,17.067-17.067
				v-8.533h25.6c4.719,0,8.533-3.814,8.533-8.533C460.8,85.973,378.735,0,281.6,0z M332.8,315.733c0,4.719-3.814,8.533-8.533,8.533
				H187.733c-4.719,0-8.533-3.814-8.533-8.533v-68.267c0-4.719,3.814-8.533,8.533-8.533h136.533c4.719,0,8.533,3.814,8.533,8.533
				V315.733z M401.067,204.8H110.933H102.4v-34.133h307.2l0.009,17.024c0,0.017-0.009,0.026-0.009,0.043
				c0,0.017,0.009,0.026,0.009,0.043l0.008,17.024H401.067z M426.667,179.2v-8.533c0-9.412-7.654-17.067-17.067-17.067H102.4
				c-9.412,0-17.067,7.654-17.067,17.067v8.533H68.471C72.866,90.47,145.229,17.067,230.4,17.067h51.2
				c85.171,0,157.534,73.404,161.929,162.133H426.667z"/>
			<path d="M196.267,307.2h119.467V256H196.267V307.2z M221.867,273.067h68.267c4.719,0,8.533,3.814,8.533,8.533
				s-3.814,8.533-8.533,8.533h-68.267c-4.719,0-8.533-3.814-8.533-8.533S217.148,273.067,221.867,273.067z"/>
		</g>
	</g>
</g>
<g>
</g>
<g>
</g>
<g>
</g>
<g>
</g>
<g>
</g>
<g>
</g>
<g>
</g>
<g>
</g>
<g>
</g>
<g>
</g>
<g>
</g>
<g>
</g>
<g>
</g>
<g>
</g>
<g>
</g>
</svg>
