<?xml version="1.0" encoding="iso-8859-1"?>
<!-- Generator: Adobe Illustrator 19.0.0, SVG Export Plug-In . SVG Version: 6.00 Build 0)  -->
<svg version="1.1" id="Layer_1" xmlns="http://www.w3.org/2000/svg" xmlns:xlink="http://www.w3.org/1999/xlink" x="0px" y="0px"
	 viewBox="0 0 503.607 503.607" style="enable-background:new 0 0 503.607 503.607;" xml:space="preserve">
<g>
	<g>
		<g>
			<path d="M486.82,175.897h-16.787c0-9.258-7.529-16.787-16.787-16.787H436.46c0-13.883-11.298-25.18-25.18-25.18h-33.574v50.361
				c0,13.883-11.298,25.18-25.18,25.18H201.443c-13.883,0-25.18-11.298-25.18-25.18V133.93h-33.574
				c-11.004,0-20.287,7.143-23.703,16.997c-15.914,0.89-29.595,10.685-35.907,24.971H60.652l-22.763-21.454
				c-3.299-3.114-8.486-3.047-11.692,0.176L2.46,178.357c-1.595,1.595-2.484,3.76-2.459,6.026c0.025,2.249,0.957,4.407,2.585,5.968
				l35.009,33.574c1.57,1.494,3.651,2.333,5.808,2.333h33.28L67.87,341.886c-0.537,6.958,1.888,13.891,6.622,19.003
				c4.751,5.12,11.474,8.058,18.449,8.058c22.629,0,41.808-16.938,44.62-39.407l4.532-61.373c0.201,0,0.394,0.059,0.596,0.059
				h10.072l18.415,81.819c1.528,6.824,5.867,12.733,11.902,16.241c3.861,2.241,8.242,3.391,12.641,3.391
				c2.476,0,4.952-0.361,7.353-1.1c21.638-6.631,35.017-28.437,31.115-50.73l-0.26-1.528l-8.41-48.094h9.501v-33.574
				c0-4.642,3.76-8.393,8.393-8.393c4.633,0,8.393,3.752,8.393,8.393v33.574h50.361v-33.574c0-4.642,3.76-8.393,8.393-8.393
				s8.393,3.752,8.393,8.393v33.574h50.361v-33.574c0-4.642,3.76-8.393,8.393-8.393s8.393,3.752,8.393,8.393v33.574h25.18
				c13.883,0,25.18-11.298,25.18-25.18h16.787c9.258,0,16.787-7.529,16.787-16.787h16.787c9.258,0,16.787-7.529,16.787-16.787
				v-16.787C503.607,183.426,496.078,175.897,486.82,175.897z M121.084,325.964l-0.185,1.519
				c-1.763,14.059-13.782,24.677-27.959,24.677c-2.35,0-4.532-0.948-6.127-2.677c-1.603-1.721-2.384-3.97-2.207-6.312l9.493-124.626
				c0-0.017,0.008-0.025,0.008-0.042l2.216-29.025c0.084-0.638,0.26-1.242,0.386-1.863c0.101-0.369,0.193-0.739,0.327-1.217
				c0.025-0.109-0.017-0.227,0.008-0.336c2.61-9.577,10.66-16.787,20.463-18.273v75.256c0,1.771,0.193,3.5,0.546,5.179
				c0.109,0.512,0.327,0.99,0.47,1.502c0.311,1.133,0.621,2.266,1.091,3.332c0.227,0.529,0.546,0.999,0.814,1.502
				c0.52,1.007,1.041,2.006,1.687,2.921c0.285,0.395,0.63,0.747,0.932,1.125c0.781,0.982,1.586,1.922,2.493,2.77
				c0.076,0.076,0.134,0.159,0.21,0.235L121.084,325.964z M167.869,234.652c0-4.642,3.76-8.393,8.393-8.393s8.393,3.752,8.393,8.393
				v16.787h-16.787V234.652z M198.153,352.529c-2.241,0.697-4.608,0.428-6.648-0.764c-2.031-1.175-3.441-3.097-3.953-5.397
				l-17.584-78.143h6.295h32.214l9.182,52.509C220.093,334.71,211.717,348.374,198.153,352.529z M453.255,226.258H436.46v-50.361
				h16.787v8.385v0.008v33.574c0,0.017,0.008,0.034,0.008,0.05V226.258z"/>
			<path d="M201.443,192.684h151.082c4.625,0,8.393-3.76,8.393-8.393V133.93H193.05v50.361
				C193.05,188.924,196.818,192.684,201.443,192.684z"/>
		</g>
	</g>
</g>
<g>
</g>
<g>
</g>
<g>
</g>
<g>
</g>
<g>
</g>
<g>
</g>
<g>
</g>
<g>
</g>
<g>
</g>
<g>
</g>
<g>
</g>
<g>
</g>
<g>
</g>
<g>
</g>
<g>
</g>
</svg>
