<?xml version="1.0" encoding="iso-8859-1"?>
<!-- Generator: Adobe Illustrator 19.0.0, SVG Export Plug-In . SVG Version: 6.00 Build 0)  -->
<svg version="1.1" id="Layer_1" xmlns="http://www.w3.org/2000/svg" xmlns:xlink="http://www.w3.org/1999/xlink" x="0px" y="0px"
	 viewBox="0 0 512 512" style="enable-background:new 0 0 512 512;" xml:space="preserve">
<g>
	<g>
		<g>
			<path d="M359.433,85.359C352.214,64.921,332.809,51.2,311.152,51.2h-76.169c-21.658,0-41.062,13.722-48.282,34.159
				l-39.142,110.908h251.016L359.433,85.359z"/>
			<path d="M207.101,359.217c6.161,10.027,17.297,16.247,29.073,16.247h73.788c11.776,0,22.912-6.221,29.073-16.239l58.266-94.694
				H148.835L207.101,359.217z"/>
			<path d="M503.467,153.6h-8.533c0-4.719-3.814-8.533-8.533-8.533s-8.533,3.814-8.533,8.533v68.267h-8.533v-34.133
				c0-4.719-3.814-8.533-8.533-8.533h-34.133c-4.719,0-8.533,3.814-8.533,8.533v34.133h-17.067v-8.533h-256v8.533H128V110.934
				c0-4.719-3.814-8.533-8.533-8.533H85.333H42.667c-2.27,0-4.437,0.896-6.033,2.5L2.5,139.034c-1.604,1.596-2.5,3.763-2.5,6.033
				V179.2h34.133c4.719,0,8.533,3.814,8.533,8.533s-3.814,8.533-8.533,8.533H0v17.067h34.133c4.719,0,8.533,3.814,8.533,8.533
				s-3.814,8.533-8.533,8.533H0v8.559c0,18.808,15.3,34.108,34.108,34.108H76.8v111.155c-10.3,7.791-17.067,20.028-17.067,33.911
				c0,23.526,19.14,42.667,42.667,42.667c23.526,0,42.667-19.14,42.667-42.667c0-13.884-6.767-26.121-17.067-33.911V238.934h17.067
				v8.533h256v-8.533h17.067v145.289c-10.3,7.791-17.067,20.028-17.067,33.911c0,23.526,19.14,42.667,42.667,42.667
				c23.526,0,42.667-19.14,42.667-42.667c0-13.884-6.767-26.121-17.067-33.911V238.934h8.533V307.2c0,4.719,3.814,8.533,8.533,8.533
				s8.533-3.814,8.533-8.533V170.667h8.533c4.719,0,8.533-3.814,8.533-8.533S508.186,153.6,503.467,153.6z M110.933,229.863
				c-0.008,0.188-0.111,0.35-0.111,0.538s0.102,0.35,0.111,0.538v145.391c-2.756-0.563-5.615-0.862-8.533-0.862
				s-5.777,0.299-8.533,0.862V264.534V119.467h17.067V229.863z M452.267,376.329c-2.756-0.563-5.615-0.862-8.533-0.862
				s-5.777,0.299-8.533,0.862V196.267h17.067V376.329z"/>
		</g>
	</g>
</g>
<g>
</g>
<g>
</g>
<g>
</g>
<g>
</g>
<g>
</g>
<g>
</g>
<g>
</g>
<g>
</g>
<g>
</g>
<g>
</g>
<g>
</g>
<g>
</g>
<g>
</g>
<g>
</g>
<g>
</g>
</svg>
