<?xml version="1.0" encoding="iso-8859-1"?>
<!-- Generator: Adobe Illustrator 19.0.0, SVG Export Plug-In . SVG Version: 6.00 Build 0)  -->
<svg version="1.1" id="Layer_1" xmlns="http://www.w3.org/2000/svg" xmlns:xlink="http://www.w3.org/1999/xlink" x="0px" y="0px"
	 viewBox="0 0 511.998 511.998" style="enable-background:new 0 0 511.998 511.998;" xml:space="preserve">
<g>
	<g>
		<g>
			<path d="M401.066,443.732h-1.741l-17.724-76.8H130.397l-17.724,76.8h-1.741c-18.825,0-34.133,15.309-34.133,34.133
				s15.309,34.133,34.133,34.133h290.133c18.825,0,34.133-15.309,34.133-34.133S419.89,443.732,401.066,443.732z M401.066,494.932
				H110.932c-9.412,0-17.067-7.654-17.067-17.067c0-9.412,7.654-17.067,17.067-17.067h8.533h273.067h8.533
				c9.412,0,17.067,7.654,17.067,17.067C418.133,487.277,410.478,494.932,401.066,494.932z"/>
			<polygon points="342.214,196.265 169.781,196.265 154.028,264.532 357.967,264.532 			"/>
			<polygon points="361.906,281.598 150.091,281.598 134.339,349.865 377.658,349.865 			"/>
			<path d="M301.5,19.84C298.812,8.158,288.546,0,276.557,0h-41.114c-11.989,0-22.255,8.158-24.943,19.84l-17.084,74.027h125.167
				L301.5,19.84z"/>
			<polygon points="322.52,110.932 189.477,110.932 173.724,179.198 338.272,179.198 			"/>
		</g>
	</g>
</g>
<g>
</g>
<g>
</g>
<g>
</g>
<g>
</g>
<g>
</g>
<g>
</g>
<g>
</g>
<g>
</g>
<g>
</g>
<g>
</g>
<g>
</g>
<g>
</g>
<g>
</g>
<g>
</g>
<g>
</g>
</svg>
