<?xml version="1.0" encoding="iso-8859-1"?>
<!-- Generator: Adobe Illustrator 19.0.0, SVG Export Plug-In . SVG Version: 6.00 Build 0)  -->
<svg version="1.1" id="Layer_1" xmlns="http://www.w3.org/2000/svg" xmlns:xlink="http://www.w3.org/1999/xlink" x="0px" y="0px"
	 viewBox="0 0 512.05 512.05" style="enable-background:new 0 0 512.05 512.05;" xml:space="preserve">
<g transform="translate(0 -1)">
	<g>
		<g>
			<path d="M501.409,32.516l-20.89-20.89c-14.165-14.165-37.197-14.157-51.354,0L279.849,160.943
				c-0.128,0.128-0.171,0.307-0.29,0.444c-0.529,0.597-0.964,1.246-1.306,1.963c-0.137,0.299-0.265,0.58-0.367,0.888
				c-0.23,0.683-0.358,1.382-0.41,2.116c-0.026,0.29-0.085,0.563-0.077,0.845c0,0.111-0.034,0.205-0.034,0.307
				c0.384,6.084,1.178,18.731-3.627,23.526c-4.804,4.804-17.442,4.019-23.535,3.644c-0.085-0.009-0.171,0.026-0.256,0.026
				c-0.324-0.017-0.623,0.051-0.939,0.077c-0.734,0.051-1.425,0.179-2.099,0.41c-0.29,0.094-0.555,0.213-0.828,0.341
				c-0.742,0.35-1.408,0.794-2.014,1.34c-0.128,0.111-0.299,0.154-0.418,0.273l-24.132,24.132c-3.336,3.336-3.336,8.738,0,12.066
				l11.989,11.989L56.199,420.646l36.198,36.198l175.317-175.309l11.989,11.989c1.664,1.664,3.849,2.5,6.033,2.5
				c2.185,0,4.369-0.836,6.033-2.5l24.132-24.132c0.128-0.128,0.171-0.307,0.29-0.444c0.529-0.597,0.964-1.246,1.306-1.963
				c0.136-0.29,0.264-0.58,0.367-0.887c0.23-0.683,0.358-1.382,0.41-2.116c0.026-0.29,0.085-0.555,0.077-0.845
				c0-0.111,0.034-0.205,0.034-0.307c-0.384-6.076-1.178-18.722,3.627-23.526c4.813-4.821,17.451-4.028,23.526-3.635
				c0.094,0,0.179-0.034,0.282-0.026c0.085,0,0.162,0.051,0.247,0.051c0.222,0,0.435-0.111,0.657-0.128
				c0.7-0.06,1.374-0.171,2.031-0.401c0.341-0.111,0.657-0.247,0.981-0.41c0.657-0.316,1.246-0.717,1.801-1.186
				c0.179-0.154,0.401-0.213,0.563-0.375L501.409,83.878c6.861-6.852,10.641-15.974,10.641-25.677S508.269,39.377,501.409,32.516z
				 M285.737,275.426l-48.119-48.12l12.058-12.049l48.119,48.102L285.737,275.426z M309.946,227.238
				c-4.489,4.489-6.81,10.3-7.945,16.196l-32.384-32.384c5.888-1.143,11.708-3.465,16.188-7.945
				c4.489-4.489,6.801-10.308,7.945-16.205l32.384,32.384C320.246,220.428,314.426,222.75,309.946,227.238z M466.832,58.278
				L347.365,177.745c-1.664,1.664-3.849,2.5-6.033,2.5c-2.185,0-4.369-0.836-6.033-2.5c-3.336-3.337-3.336-8.73,0-12.066
				L454.765,46.212c3.337-3.336,8.73-3.336,12.066,0C470.168,49.548,470.168,54.942,466.832,58.278z"/>
			<path d="M15.586,449.42c-1.596,1.067-2.79,2.637-3.379,4.454L0.423,490.081c-0.998,3.055-0.196,6.409,2.074,8.678l11.793,11.785
				c1.621,1.63,3.797,2.5,6.033,2.5c0.879,0,1.775-0.137,2.637-0.418l36.207-11.793c1.826-0.589,3.396-1.783,4.454-3.379
				l18.108-27.153l-38.989-38.98L15.586,449.42z"/>
		</g>
	</g>
</g>
<g>
</g>
<g>
</g>
<g>
</g>
<g>
</g>
<g>
</g>
<g>
</g>
<g>
</g>
<g>
</g>
<g>
</g>
<g>
</g>
<g>
</g>
<g>
</g>
<g>
</g>
<g>
</g>
<g>
</g>
</svg>
