<?xml version="1.0" encoding="iso-8859-1"?>
<!-- Generator: Adobe Illustrator 19.0.0, SVG Export Plug-In . SVG Version: 6.00 Build 0)  -->
<svg version="1.1" id="Layer_1" xmlns="http://www.w3.org/2000/svg" xmlns:xlink="http://www.w3.org/1999/xlink" x="0px" y="0px"
	 viewBox="0 0 512.172 512.172" style="enable-background:new 0 0 512.172 512.172;" xml:space="preserve">
<g transform="translate(0 -1)">
	<g>
		<g>
			<path d="M466.878,29.272c-37.171-37.18-97.067-37.76-133.504-1.323L47.9,313.432c-5.777,5.777-8.414,13.73-7.228,21.811
				c0.375,2.577,1.237,4.966,2.313,7.236l-23.373,23.373c-2.517,2.517-3.209,6.323-1.732,9.566l60.339,132.753
				c1.161,2.543,3.49,4.369,6.246,4.864c0.503,0.094,1.016,0.137,1.519,0.137c2.244,0,4.42-0.887,6.033-2.5l88.559-88.559
				c3.533,1.681,7.262,2.637,10.982,2.637c6.605,0,13.107-2.586,18.057-7.535l256.512-256.512
				C504.416,122.405,504.74,67.126,466.878,29.272z M152.365,329.654c3.328,3.336,3.328,8.73,0,12.066l-29.909,29.901l-15.684-8.439
				l33.527-33.527C143.627,326.318,149.028,326.318,152.365,329.654z M103.708,317.964c3.337-3.337,8.738-3.337,12.066,0
				c3.337,3.328,3.337,8.73,0,12.066l-24.695,24.695l-15.684-8.439L103.708,317.964z M88.664,489.893L35.859,373.737l19.089-19.072
				l109.824,59.119L88.664,489.893z M435.953,130.529c-9.668,9.677-22.528,15.002-36.198,15.002
				c-13.679,0-26.539-5.325-36.207-15.002c-19.959-19.959-19.959-52.446,0-72.405c19.959-19.968,52.454-19.968,72.405,0
				c9.677,9.668,15.002,22.528,15.002,36.207C450.955,108.001,445.63,120.861,435.953,130.529z"/>
			<path d="M399.753,60.212c-8.738,0-17.485,3.328-24.141,9.975c-13.312,13.312-13.312,34.97,0,48.273
				c12.902,12.902,35.371,12.902,48.273,0c6.451-6.451,10.001-15.019,10.001-24.132c0-9.114-3.55-17.69-10.001-24.141
				C417.238,63.54,408.491,60.212,399.753,60.212z"/>
		</g>
	</g>
</g>
<g>
</g>
<g>
</g>
<g>
</g>
<g>
</g>
<g>
</g>
<g>
</g>
<g>
</g>
<g>
</g>
<g>
</g>
<g>
</g>
<g>
</g>
<g>
</g>
<g>
</g>
<g>
</g>
<g>
</g>
</svg>
