<?xml version="1.0" encoding="iso-8859-1"?>
<!-- Generator: Adobe Illustrator 19.0.0, SVG Export Plug-In . SVG Version: 6.00 Build 0)  -->
<svg version="1.1" id="Layer_1" xmlns="http://www.w3.org/2000/svg" xmlns:xlink="http://www.w3.org/1999/xlink" x="0px" y="0px"
	 viewBox="0 0 512 512" style="enable-background:new 0 0 512 512;" xml:space="preserve">
<g>
	<g>
		<g>
			<path d="M256,392.533c23.526,0,42.667-19.14,42.667-42.667V281.6c0-23.526-19.14-42.667-42.667-42.667
				c-23.526,0-42.667,19.14-42.667,42.667v68.267C213.333,373.393,232.474,392.533,256,392.533z M230.4,315.716
				c0.333,0.256,0.717,0.435,1.067,0.674c0.683,0.486,1.408,0.913,2.125,1.357c1.459,0.905,2.961,1.732,4.523,2.458
				c0.819,0.384,1.63,0.742,2.475,1.075c1.664,0.64,3.371,1.152,5.12,1.587c0.794,0.196,1.562,0.444,2.372,0.597
				c2.577,0.486,5.205,0.802,7.919,0.802c2.714,0,5.342-0.316,7.919-0.802c0.811-0.154,1.579-0.401,2.372-0.597
				c1.749-0.435,3.456-0.947,5.12-1.587c0.845-0.333,1.655-0.691,2.475-1.075c1.562-0.725,3.063-1.553,4.523-2.458
				c0.717-0.444,1.442-0.87,2.125-1.357c0.35-0.239,0.734-0.418,1.067-0.674v34.15c0,14.114-11.486,25.6-25.6,25.6
				s-25.6-11.486-25.6-25.6V315.716z"/>
			<path d="M324.267,42.667h42.667V25.6c0-14.114-11.486-25.6-25.6-25.6H170.667c-14.114,0-25.6,11.486-25.6,25.6v17.067h42.667
				c4.719,0,8.533,3.814,8.533,8.533s-3.814,8.533-8.533,8.533h-42.667V102.4h221.867V59.733h-42.667
				c-4.719,0-8.533-3.814-8.533-8.533S319.548,42.667,324.267,42.667z M290.133,59.733h-68.267c-4.719,0-8.533-3.814-8.533-8.533
				s3.814-8.533,8.533-8.533h68.267c4.719,0,8.533,3.814,8.533,8.533S294.852,59.733,290.133,59.733z"/>
			<path d="M179.2,216.789V486.4c0,14.114,11.486,25.6,25.6,25.6h102.4c14.114,0,25.6-11.486,25.6-25.6V216.789
				c28.143-28.937,33.587-48.742,34.082-97.323H145.118C145.613,168.047,151.057,187.853,179.2,216.789z M196.267,221.867h119.467
				V486.4c0,4.71-3.823,8.533-8.533,8.533H204.8c-4.71,0-8.533-3.823-8.533-8.533V221.867z"/>
		</g>
	</g>
</g>
<g>
</g>
<g>
</g>
<g>
</g>
<g>
</g>
<g>
</g>
<g>
</g>
<g>
</g>
<g>
</g>
<g>
</g>
<g>
</g>
<g>
</g>
<g>
</g>
<g>
</g>
<g>
</g>
<g>
</g>
</svg>
