<?xml version="1.0" encoding="iso-8859-1"?>
<!-- Generator: Adobe Illustrator 19.0.0, SVG Export Plug-In . SVG Version: 6.00 Build 0)  -->
<svg version="1.1" id="Layer_1" xmlns="http://www.w3.org/2000/svg" xmlns:xlink="http://www.w3.org/1999/xlink" x="0px" y="0px"
	 viewBox="0 0 503.609 503.609" style="enable-background:new 0 0 503.609 503.609;" xml:space="preserve">
<g>
	<g>
		<g>
			<rect x="339.936" y="50.356" width="50.361" height="41.967"/>
			<path d="M440.647,159.475l-0.21-151.09C440.429,3.752,436.669,0,432.044,0H297.749c-2.233,0-4.365,0.881-5.943,2.459
				c-1.57,1.578-2.459,3.718-2.451,5.943l0.21,151.074H440.647z M323.148,41.967c0-4.642,3.76-8.393,8.393-8.393h67.148
				c4.633,0,8.393,3.752,8.393,8.393v58.754c0,4.642-3.76,8.393-8.393,8.393h-67.148c-4.633,0-8.393-3.752-8.393-8.393V41.967z"/>
			<path d="M472.026,204.682c-6.631-4.113-14.764-4.49-21.756-0.99c-3.139,1.57-6.413,2.829-9.669,4.146l0.042-31.576H289.561
				l-0.042,31.87c-3.215-1.301-6.455-2.543-9.552-4.096c-6.975-3.483-15.1-3.114-21.756,0.982
				c-6.639,4.096-10.601,11.214-10.601,19.011v55.539c0,7.798,3.962,14.915,10.593,19.011c3.618,2.241,7.672,3.366,11.751,3.366
				c3.399,0,6.824-0.789,10.013-2.384c3.064-1.528,6.261-2.753,9.434-4.046l-0.042,31.828h151.09l0.042-32.315
				c3.29,1.335,6.597,2.61,9.77,4.188c3.181,1.595,6.606,2.392,10.022,2.392c4.062,0,8.116-1.133,11.734-3.366
				c6.639-4.096,10.609-11.214,10.609-19.011v-55.539C482.627,215.896,478.657,208.778,472.026,204.682z M289.427,277.47
				c-5.783,2.056-11.482,4.339-16.972,7.076c-2.51,1.251-4.625,0.252-5.422-0.243c-0.797-0.495-2.636-1.931-2.636-4.734v-55.539
				c0-2.803,1.847-4.247,2.636-4.734c0.52-0.311,1.578-0.848,2.938-0.848c0.755,0,1.595,0.168,2.484,0.613
				c5.506,2.745,11.23,5.036,17.039,7.092L289.427,277.47z M306.222,272.627l0.059-41.64c7.982,1.838,16.082,3.198,24.249,3.718
				l-6.497,13.001c-0.294,0.579-0.294,1.234-0.436,1.863c-0.151,0.63-0.445,1.225-0.445,1.872c0,0.63,0.285,1.217,0.428,1.838
				c0.143,0.638,0.143,1.301,0.436,1.897l6.782,13.698C322.514,269.396,314.313,270.764,306.222,272.627z M376.735,276.639h-23.216
				l-12.582-25.164l10.643-21.068c0.134-0.277,0.193-0.579,0.302-0.865l1.637-3.265h23.174l1.838,3.71v0.008l10.769,21.764
				L376.735,276.639z M423.73,272.225c-7.932-1.813-15.981-3.164-24.098-3.676l6.547-12.959c1.192-2.359,1.2-5.137,0.034-7.504
				l-6.782-13.698c8.209-0.512,16.334-1.872,24.358-3.71L423.73,272.225z M465.84,279.233c0,2.795-1.855,4.239-2.644,4.734
				c-0.806,0.478-2.938,1.477-5.422,0.235c-5.582-2.787-11.373-5.095-17.257-7.168l0.059-51.175
				c5.867-2.065,11.642-4.373,17.198-7.143c2.501-1.251,4.625-0.252,5.422,0.243c0.797,0.487,2.644,1.93,2.644,4.734V279.233z"/>
			<path d="M289.35,495.205c0,2.224,0.881,4.365,2.459,5.943c1.57,1.578,3.71,2.459,5.934,2.459h134.295
				c4.633,0,8.385-3.752,8.393-8.385l0.21-151.09H289.56L289.35,495.205z"/>
			<path d="M124.291,151.082H68.76c-2.803,0-4.247,1.847-4.742,2.636c-0.487,0.797-1.494,2.913-0.243,5.422
				c0.848,1.687,1.494,3.466,2.275,5.187c0.084,0.185,0.159,0.353,0.235,0.546c7.437,16.585,12.036,34.472,13.161,52.61
				l13.706-6.773c1.183-0.596,2.468-0.881,3.752-0.873c0.26,0,0.495,0.159,0.755,0.176c1.024,0.101,2.056,0.252,2.996,0.722
				l10.551,5.338l2.409,1.217c1.15-18.08,5.741-35.89,13.153-52.417c0.067-0.193,0.151-0.361,0.235-0.537
				c0.781-1.721,1.427-3.508,2.275-5.196c1.251-2.501,0.243-4.625-0.252-5.422C128.538,152.928,127.094,151.082,124.291,151.082z"/>
			<path d="M163.672,0H29.377c-2.233,0-4.365,0.881-5.943,2.459c-1.57,1.578-2.451,3.718-2.451,5.943l0.21,151.074h25.524
				c-0.646-5.003,0.269-10.122,3.022-14.571c4.104-6.639,11.214-10.609,19.02-10.609h55.531c7.806,0,14.915,3.97,19.02,10.609
				c2.753,4.449,3.668,9.569,3.022,14.571h25.944l-0.21-151.09C172.057,3.752,168.305,0,163.672,0z M138.492,100.721
				c0,4.642-3.76,8.393-8.393,8.393H62.951c-4.633,0-8.393-3.752-8.393-8.393V41.967c0-4.642,3.76-8.393,8.393-8.393h67.148
				c4.633,0,8.393,3.752,8.393,8.393V100.721z"/>
			<path d="M130.164,225.648l3.718,1.88c2.829,1.427,4.608,4.323,4.608,7.487v33.574c0,3.181-1.796,6.085-4.642,7.512l-3.349,1.679
				c0.117,16.955,3.651,33.834,10.013,49.563h31.568l0.193-151.082H140.16C133.832,191.931,130.307,208.752,130.164,225.648z"/>
			<path d="M66.098,339.943c-0.68,1.494-1.242,3.047-1.972,4.516c-1.259,2.51-0.252,4.633,0.243,5.431
				c0.487,0.789,1.93,2.636,4.734,2.636h55.531c2.803,0,4.247-1.847,4.742-2.636c0.487-0.797,1.494-2.921,0.243-5.431
				c-0.73-1.46-1.284-3.005-1.964-4.49c-0.369-0.604-0.646-1.234-0.848-1.93c-7.252-16.392-11.751-34.027-12.859-51.913
				l-13.706,6.773c-0.596,0.302-1.259,0.302-1.897,0.445c-0.613,0.134-1.2,0.428-1.821,0.428h-0.017
				c-0.638-0.008-1.242-0.294-1.872-0.445c-0.629-0.151-1.276-0.151-1.863-0.437l-13.001-6.505
				c-1.133,17.811-5.624,35.362-12.85,51.687C66.719,338.743,66.458,339.355,66.098,339.943z"/>
			<path d="M143.652,358.713c-4.104,6.639-11.214,10.601-19.02,10.601H69.102c-7.806,0-14.915-3.97-19.011-10.609
				c-2.753-4.457-3.676-9.577-3.03-14.571H21.192l-0.21,151.074c0,2.216,0.881,4.356,2.459,5.943c1.57,1.57,3.71,2.459,5.934,2.459
				H163.67c4.633,0,8.385-3.76,8.393-8.385l0.21-151.09h-25.6C147.32,349.136,146.405,354.256,143.652,358.713z"/>
			<path d="M59.227,227.496l3.66-1.813c-0.134-16.904-3.66-33.733-9.997-49.421H21.196l-0.201,151.082h32.239
				c6.312-15.62,9.82-32.382,9.988-49.236l-4.029-2.006c-2.837-1.427-4.633-4.331-4.633-7.512v-33.574
				C54.56,231.827,56.365,228.906,59.227,227.496z"/>
			<path d="M96.545,275.977l25.164-12.573v-23.225l-3.769-1.897c-0.008-0.008-0.017-0.008-0.025-0.008l-21.084-10.66L71.348,240.23
				v23.174l3.215,1.612c0.302,0.109,0.621,0.168,0.915,0.319L96.545,275.977z"/>
			<rect x="71.346" y="50.356" width="50.361" height="41.967"/>
		</g>
	</g>
</g>
<g>
</g>
<g>
</g>
<g>
</g>
<g>
</g>
<g>
</g>
<g>
</g>
<g>
</g>
<g>
</g>
<g>
</g>
<g>
</g>
<g>
</g>
<g>
</g>
<g>
</g>
<g>
</g>
<g>
</g>
</svg>
