<?xml version="1.0" encoding="iso-8859-1"?>
<!-- Generator: Adobe Illustrator 19.0.0, SVG Export Plug-In . SVG Version: 6.00 Build 0)  -->
<svg version="1.1" id="Layer_1" xmlns="http://www.w3.org/2000/svg" xmlns:xlink="http://www.w3.org/1999/xlink" x="0px" y="0px"
	 viewBox="0 0 503.609 503.609" style="enable-background:new 0 0 503.609 503.609;" xml:space="preserve">
<g>
	<g>
		<g>
			<path d="M145.067,151.082H89.536c-2.803,0-4.247,1.847-4.742,2.636c-0.487,0.797-1.494,2.913-0.243,5.422
				c0.848,1.687,1.494,3.466,2.275,5.187c0.084,0.185,0.159,0.353,0.235,0.546c7.437,16.585,12.036,34.472,13.161,52.61
				l13.706-6.773c1.183-0.596,2.468-0.881,3.752-0.873c0.26,0,0.495,0.159,0.755,0.176c1.024,0.101,2.056,0.252,2.996,0.722
				l10.551,5.338l2.409,1.217c1.15-18.08,5.741-35.89,13.153-52.417c0.067-0.193,0.151-0.361,0.235-0.537
				c0.781-1.721,1.427-3.508,2.275-5.196c1.251-2.501,0.243-4.625-0.252-5.422C149.314,152.928,147.871,151.082,145.067,151.082z"/>
			<path d="M184.448,0H50.153c-2.233,0-4.365,0.881-5.943,2.459c-1.57,1.578-2.451,3.718-2.451,5.943l0.21,151.074h25.524
				c-0.646-5.003,0.269-10.122,3.022-14.571c4.104-6.639,11.214-10.609,19.02-10.609h55.531c7.806,0,14.915,3.97,19.02,10.609
				c2.753,4.449,3.668,9.569,3.022,14.571h25.944l-0.21-151.09C192.833,3.752,189.082,0,184.448,0z M159.268,100.721
				c0,4.642-3.76,8.393-8.393,8.393H83.727c-4.633,0-8.393-3.752-8.393-8.393V41.967c0-4.642,3.76-8.393,8.393-8.393h67.148
				c4.633,0,8.393,3.752,8.393,8.393V100.721z"/>
			<path d="M150.94,225.648l3.718,1.88c2.829,1.427,4.608,4.323,4.608,7.487v33.574c0,3.181-1.796,6.085-4.642,7.512l-3.349,1.679
				c0.118,16.955,3.651,33.834,10.013,49.563h31.568l0.193-151.082h-32.113C154.608,191.931,151.083,208.752,150.94,225.648z"/>
			<path d="M86.874,339.943c-0.68,1.494-1.242,3.047-1.972,4.516c-1.259,2.51-0.252,4.633,0.243,5.431
				c0.487,0.789,1.93,2.636,4.734,2.636h55.531c2.803,0,4.247-1.847,4.742-2.636c0.487-0.797,1.494-2.921,0.243-5.431
				c-0.73-1.46-1.284-3.005-1.964-4.49c-0.369-0.604-0.646-1.234-0.848-1.93c-7.252-16.392-11.751-34.027-12.859-51.913
				l-13.706,6.773c-0.596,0.302-1.259,0.302-1.897,0.445c-0.613,0.134-1.2,0.428-1.821,0.428h-0.017
				c-0.638-0.008-1.242-0.294-1.872-0.445c-0.63-0.151-1.276-0.151-1.863-0.437l-13.001-6.505
				c-1.133,17.811-5.624,35.362-12.85,51.687C87.495,338.743,87.235,339.355,86.874,339.943z"/>
			<path d="M164.428,358.713c-4.104,6.639-11.214,10.601-19.02,10.601H89.877c-7.806,0-14.915-3.97-19.011-10.609
				c-2.753-4.457-3.676-9.577-3.03-14.571H41.967l-0.21,151.074c0,2.216,0.881,4.356,2.459,5.943c1.57,1.57,3.71,2.459,5.934,2.459
				h134.295c4.633,0,8.385-3.76,8.393-8.385l0.21-151.09h-25.6C168.095,349.136,167.181,354.256,164.428,358.713z"/>
			<path d="M80.003,227.496l3.66-1.813c-0.134-16.904-3.66-33.733-9.997-49.421H41.972l-0.201,151.082H74.01
				c6.312-15.62,9.82-32.382,9.988-49.236l-4.029-2.006c-2.837-1.427-4.633-4.331-4.633-7.512v-33.574
				C75.336,231.827,77.141,228.906,80.003,227.496z"/>
			<path d="M117.32,275.977l25.164-12.573v-23.225l-3.769-1.897c-0.008-0.008-0.017-0.008-0.025-0.008l-21.084-10.66L92.123,240.23
				v23.174l3.215,1.612c0.302,0.109,0.621,0.168,0.915,0.319L117.32,275.977z"/>
			<rect x="92.122" y="50.356" width="50.361" height="41.967"/>
			<path d="M413.867,151.082h-55.531c-2.803,0-4.247,1.847-4.742,2.636c-0.487,0.797-1.494,2.913-0.243,5.422
				c0.848,1.687,1.494,3.466,2.275,5.187c0.084,0.185,0.159,0.353,0.235,0.546c7.437,16.585,12.036,34.472,13.161,52.61
				l13.706-6.773c1.183-0.596,2.468-0.881,3.752-0.873c0.26,0,0.495,0.159,0.755,0.176c1.024,0.101,2.056,0.252,2.996,0.722
				l10.551,5.338l2.409,1.217c1.15-18.08,5.741-35.89,13.153-52.417c0.067-0.193,0.151-0.361,0.235-0.537
				c0.781-1.721,1.427-3.508,2.275-5.196c1.251-2.501,0.243-4.625-0.252-5.422C418.114,152.928,416.671,151.082,413.867,151.082z"/>
			<path d="M336.294,159.475c-0.646-5.003,0.269-10.122,3.022-14.571c4.104-6.639,11.214-10.609,19.02-10.609h55.531
				c7.806,0,14.915,3.97,19.02,10.609c2.753,4.449,3.668,9.569,3.022,14.571h25.944l-0.21-151.09C461.633,3.752,457.882,0,453.248,0
				H318.953c-2.233,0-4.365,0.881-5.943,2.459c-1.57,1.578-2.451,3.718-2.451,5.943l0.21,151.074H336.294z M344.134,41.967
				c0-4.642,3.76-8.393,8.393-8.393h67.148c4.633,0,8.393,3.752,8.393,8.393v58.754c0,4.642-3.76,8.393-8.393,8.393h-67.148
				c-4.633,0-8.393-3.752-8.393-8.393V41.967z"/>
			<path d="M419.74,225.648l3.718,1.88c2.829,1.427,4.608,4.323,4.608,7.487v33.574c0,3.181-1.796,6.085-4.642,7.512l-3.349,1.679
				c0.117,16.955,3.651,33.834,10.013,49.563h31.568l0.193-151.082h-32.113C423.408,191.931,419.883,208.752,419.74,225.648z"/>
			<path d="M355.674,339.943c-0.68,1.494-1.242,3.047-1.972,4.516c-1.259,2.51-0.252,4.633,0.243,5.431
				c0.487,0.789,1.931,2.636,4.734,2.636h55.531c2.803,0,4.247-1.847,4.742-2.636c0.487-0.797,1.494-2.921,0.243-5.431
				c-0.73-1.46-1.284-3.005-1.964-4.49c-0.369-0.604-0.646-1.234-0.848-1.93c-7.252-16.392-11.751-34.027-12.859-51.913
				l-13.706,6.773c-0.596,0.302-1.259,0.302-1.897,0.445c-0.613,0.134-1.2,0.428-1.821,0.428h-0.017
				c-0.638-0.008-1.242-0.294-1.872-0.445c-0.63-0.151-1.276-0.151-1.863-0.437l-13.001-6.505
				c-1.133,17.811-5.624,35.362-12.85,51.687C356.295,338.743,356.035,339.355,355.674,339.943z"/>
			<path d="M433.228,358.713c-4.104,6.639-11.214,10.601-19.02,10.601h-55.531c-7.806,0-14.915-3.97-19.011-10.609
				c-2.753-4.457-3.676-9.577-3.03-14.571h-25.869l-0.21,151.074c0,2.216,0.881,4.356,2.459,5.943c1.57,1.57,3.71,2.459,5.934,2.459
				h134.295c4.633,0,8.385-3.76,8.393-8.385l0.21-151.09h-25.6C436.896,349.136,435.981,354.256,433.228,358.713z"/>
			<path d="M348.804,227.496l3.66-1.813c-0.134-16.904-3.66-33.733-9.997-49.421h-31.694l-0.201,151.082h32.239
				c6.312-15.62,9.82-32.382,9.988-49.236l-4.029-2.006c-2.837-1.427-4.633-4.331-4.633-7.512v-33.574
				C344.137,231.827,345.942,228.906,348.804,227.496z"/>
			<path d="M386.121,275.977l25.164-12.573v-23.225l-3.769-1.897c-0.008-0.008-0.017-0.008-0.025-0.008l-21.084-10.66
				l-25.482,12.615v23.174l3.215,1.612c0.302,0.109,0.621,0.168,0.915,0.319L386.121,275.977z"/>
			<rect x="360.922" y="50.356" width="50.361" height="41.967"/>
		</g>
	</g>
</g>
<g>
</g>
<g>
</g>
<g>
</g>
<g>
</g>
<g>
</g>
<g>
</g>
<g>
</g>
<g>
</g>
<g>
</g>
<g>
</g>
<g>
</g>
<g>
</g>
<g>
</g>
<g>
</g>
<g>
</g>
</svg>
