<?xml version="1.0" encoding="iso-8859-1"?>
<!-- Generator: Adobe Illustrator 19.0.0, SVG Export Plug-In . SVG Version: 6.00 Build 0)  -->
<svg version="1.1" id="Layer_1" xmlns="http://www.w3.org/2000/svg" xmlns:xlink="http://www.w3.org/1999/xlink" x="0px" y="0px"
	 viewBox="0 0 503.607 503.607" style="enable-background:new 0 0 503.607 503.607;" xml:space="preserve">
<g>
	<g>
		<g>
			<rect x="92.325" y="50.356" width="50.361" height="41.967"/>
			<path d="M193.037,159.475l-0.21-151.09C192.818,3.752,189.058,0,184.433,0H50.138c-2.233,0-4.365,0.881-5.943,2.459
				c-1.57,1.578-2.459,3.718-2.451,5.943l0.21,151.074H193.037z M75.537,41.967c0-4.642,3.76-8.393,8.393-8.393h67.148
				c4.633,0,8.393,3.752,8.393,8.393v58.754c0,4.642-3.76,8.393-8.393,8.393H83.93c-4.633,0-8.393-3.752-8.393-8.393V41.967z"/>
			<path d="M224.415,204.682c-6.631-4.113-14.764-4.49-21.756-0.99c-3.139,1.57-6.413,2.829-9.669,4.146l0.042-31.576H41.95
				l-0.042,31.87c-3.215-1.301-6.455-2.543-9.552-4.096c-6.975-3.483-15.1-3.114-21.756,0.982C3.962,209.114,0,216.232,0,224.029
				v55.539c0,7.798,3.962,14.915,10.593,19.011c3.618,2.241,7.672,3.366,11.751,3.366c3.399,0,6.824-0.789,10.013-2.384
				c3.064-1.528,6.262-2.753,9.434-4.046l-0.042,31.828h151.09l0.042-32.315c3.29,1.335,6.597,2.61,9.77,4.188
				c3.181,1.595,6.606,2.392,10.022,2.392c4.062,0,8.116-1.133,11.734-3.366c6.639-4.096,10.609-11.214,10.609-19.011v-55.539
				C235.016,215.896,231.046,208.778,224.415,204.682z M41.816,277.47c-5.783,2.056-11.482,4.339-16.971,7.076
				c-2.51,1.251-4.625,0.252-5.422-0.243c-0.797-0.495-2.636-1.931-2.636-4.734v-55.539c0-2.803,1.847-4.247,2.636-4.734
				c0.52-0.311,1.578-0.848,2.938-0.848c0.755,0,1.595,0.168,2.484,0.613c5.506,2.745,11.23,5.036,17.039,7.092L41.816,277.47z
				 M58.611,272.627l0.059-41.64c7.982,1.838,16.082,3.198,24.249,3.718l-6.497,13.001c-0.294,0.579-0.294,1.234-0.436,1.863
				c-0.151,0.63-0.445,1.225-0.445,1.872c0,0.63,0.285,1.217,0.428,1.838c0.143,0.638,0.143,1.301,0.436,1.897l6.782,13.698
				C74.903,269.396,66.703,270.764,58.611,272.627z M129.125,276.639h-23.216l-12.582-25.164l10.643-21.068
				c0.134-0.277,0.193-0.579,0.302-0.865l1.637-3.265h23.174l1.838,3.71v0.008l10.769,21.764L129.125,276.639z M176.12,272.225
				c-7.932-1.813-15.981-3.164-24.098-3.676l6.547-12.959c1.192-2.359,1.2-5.137,0.034-7.504l-6.782-13.698
				c8.209-0.512,16.334-1.872,24.358-3.71L176.12,272.225z M218.23,279.233c0,2.795-1.855,4.239-2.644,4.734
				c-0.806,0.478-2.938,1.477-5.422,0.235c-5.582-2.787-11.373-5.095-17.257-7.168l0.059-51.175
				c5.867-2.065,11.642-4.373,17.198-7.143c2.501-1.251,4.625-0.252,5.422,0.243c0.797,0.487,2.644,1.93,2.644,4.734V279.233z"/>
			<path d="M41.74,495.205c0,2.224,0.881,4.365,2.459,5.943c1.57,1.578,3.71,2.459,5.934,2.459h134.295
				c4.633,0,8.385-3.752,8.393-8.385l0.21-151.09H41.95L41.74,495.205z"/>
			<rect x="360.916" y="50.356" width="50.361" height="41.967"/>
			<path d="M461.627,159.475l-0.21-151.09C461.409,3.752,457.648,0,453.023,0H318.728c-2.233,0-4.365,0.881-5.943,2.459
				c-1.57,1.578-2.459,3.718-2.451,5.943l0.21,151.074H461.627z M344.127,41.967c0-4.642,3.76-8.393,8.393-8.393h67.148
				c4.633,0,8.393,3.752,8.393,8.393v58.754c0,4.642-3.76,8.393-8.393,8.393H352.52c-4.633,0-8.393-3.752-8.393-8.393V41.967z"/>
			<path d="M493.006,204.682c-6.631-4.113-14.764-4.49-21.756-0.99c-3.139,1.57-6.413,2.829-9.669,4.146l0.042-31.576H310.541
				l-0.042,31.87c-3.215-1.301-6.455-2.543-9.552-4.096c-6.975-3.483-15.1-3.114-21.756,0.982
				c-6.639,4.096-10.601,11.214-10.601,19.011v55.539c0,7.798,3.962,14.915,10.593,19.011c3.618,2.241,7.672,3.366,11.751,3.366
				c3.399,0,6.824-0.789,10.013-2.384c3.064-1.528,6.262-2.753,9.434-4.046l-0.042,31.828h151.09l0.042-32.315
				c3.29,1.335,6.597,2.61,9.77,4.188c3.181,1.595,6.606,2.392,10.022,2.392c4.062,0,8.116-1.133,11.734-3.366
				c6.639-4.096,10.609-11.214,10.609-19.011v-55.539C503.607,215.896,499.636,208.778,493.006,204.682z M310.406,277.47
				c-5.783,2.056-11.482,4.339-16.972,7.076c-2.51,1.251-4.625,0.252-5.422-0.243c-0.797-0.495-2.636-1.931-2.636-4.734v-55.539
				c0-2.803,1.847-4.247,2.636-4.734c0.52-0.311,1.578-0.848,2.938-0.848c0.755,0,1.595,0.168,2.484,0.613
				c5.506,2.745,11.23,5.036,17.039,7.092L310.406,277.47z M327.202,272.627l0.059-41.64c7.982,1.838,16.082,3.198,24.249,3.718
				l-6.497,13.001c-0.294,0.579-0.294,1.234-0.436,1.863c-0.151,0.63-0.445,1.225-0.445,1.872c0,0.63,0.285,1.217,0.428,1.838
				c0.143,0.638,0.143,1.301,0.436,1.897l6.782,13.698C343.493,269.396,335.293,270.764,327.202,272.627z M397.715,276.639h-23.216
				l-12.582-25.164l10.643-21.068c0.134-0.277,0.193-0.579,0.302-0.865l1.637-3.265h23.174l1.838,3.71v0.008l10.769,21.764
				L397.715,276.639z M444.71,272.225c-7.932-1.813-15.981-3.164-24.098-3.676l6.547-12.959c1.192-2.359,1.2-5.137,0.034-7.504
				l-6.782-13.698c8.209-0.512,16.334-1.872,24.358-3.71L444.71,272.225z M486.82,279.233c0,2.795-1.855,4.239-2.644,4.734
				c-0.806,0.478-2.938,1.477-5.422,0.235c-5.582-2.787-11.373-5.095-17.257-7.168l0.059-51.175
				c5.867-2.065,11.642-4.373,17.198-7.143c2.501-1.251,4.625-0.252,5.422,0.243c0.797,0.487,2.644,1.93,2.644,4.734V279.233z"/>
			<path d="M310.33,495.205c0,2.224,0.881,4.365,2.459,5.943c1.57,1.578,3.71,2.459,5.934,2.459h134.295
				c4.633,0,8.385-3.752,8.393-8.385l0.21-151.09H310.54L310.33,495.205z"/>
		</g>
	</g>
</g>
<g>
</g>
<g>
</g>
<g>
</g>
<g>
</g>
<g>
</g>
<g>
</g>
<g>
</g>
<g>
</g>
<g>
</g>
<g>
</g>
<g>
</g>
<g>
</g>
<g>
</g>
<g>
</g>
<g>
</g>
</svg>
