<?xml version="1.0" encoding="iso-8859-1"?>
<!-- Generator: Adobe Illustrator 19.0.0, SVG Export Plug-In . SVG Version: 6.00 Build 0)  -->
<svg version="1.1" id="Layer_1" xmlns="http://www.w3.org/2000/svg" xmlns:xlink="http://www.w3.org/1999/xlink" x="0px" y="0px"
	 viewBox="0 0 503.607 503.607" style="enable-background:new 0 0 503.607 503.607;" xml:space="preserve">
<g>
	<g>
		<g>
			<path d="M478.426,33.574h-41.967c-4.742,0-9.317,1.981-12.54,5.431c-3.03,3.248-4.541,7.411-4.457,11.356
				c-8.536-0.034-9.745-1.158-14.781-5.875c-2.233-2.082-4.843-4.516-8.435-7.302c-10.005-7.739-22.637-12.003-35.58-12.003h-50.109
				c-40.742,0-84.337,24.954-111.037,63.572l-4.977,7.202c-2.082,2.996-1.981,7,0.252,9.887c2.233,2.887,6.052,4.037,9.518,2.761
				c0.487-0.159,50.042-17.836,74.953-0.353c9.594,6.732,14.26,17.996,14.26,34.438c0,0.436,0.176,0.806,0.243,1.217v91.111h83.934
				v-86.562c6.698-2.014,13.018-5.095,18.491-9.342c3.576-2.778,6.178-5.204,8.402-7.285c5.036-4.709,6.228-5.833,14.403-5.917
				h0.008c0.218-0.008,0.613,0.201,0.655-0.143c-0.218,4.264,1.301,8.36,4.314,11.549c3.215,3.416,7.764,5.372,12.481,5.372h41.967
				c13.883,0,25.18-11.298,25.18-25.18V58.754C503.607,44.871,492.309,33.574,478.426,33.574z M486.82,117.508
				c0,4.633-3.76,8.393-8.393,8.393l-41.976-0.109c0.008-4.088-1.595-8.007-4.574-11.121c-3.374-3.534-8.058-5.548-12.859-5.548
				h-0.21c-13.983,0.151-18.868,4.062-25.684,10.45c-1.914,1.788-4.138,3.895-7.218,6.278c-7.017,5.447-15.989,8.444-25.239,8.444
				h-50.73c-1.645-17.794-8.704-31.156-21.059-39.802c-19.154-13.413-46.768-11.709-66.434-7.974
				c23.661-27.43,56.958-44.552,88.114-44.552h50.109c9.233,0,18.231,3.013,25.298,8.494c3.097,2.384,5.33,4.49,7.244,6.278
				c6.857,6.413,11.793,10.358,26.188,10.408c4.566,0.126,9.367-1.972,12.649-5.481c2.946-3.156,4.507-7.151,4.415-11.306h41.967
				c4.633,0,8.393,3.76,8.393,8.393V117.508z"/>
			<path d="M176.262,0h-33.574v109.115c0,4.642-3.752,8.393-8.393,8.393c-4.642,0-8.393-3.752-8.393-8.393V0h-25.18v50.361
				c0,4.642-3.752,8.393-8.393,8.393c-4.642,0-8.393-3.752-8.393-8.393V0h-25.18v109.115c0,4.642-3.752,8.393-8.393,8.393
				s-8.393-3.752-8.393-8.393V0H8.393C3.752,0,0,3.752,0,8.393v486.82c0,4.642,3.752,8.393,8.393,8.393h33.574v-75.541
				c0-4.642,3.752-8.393,8.393-8.393s8.393,3.752,8.393,8.393v75.541h33.574c-4.642,0-8.393-3.752-8.393-8.393v-50.361
				c0-4.642,3.752-8.393,8.393-8.393c4.642,0,8.393,3.752,8.393,8.393v50.361c0,4.642-3.752,8.393-8.393,8.393h33.574V394.492
				c0-4.642,3.752-8.393,8.393-8.393c4.642,0,8.393,3.752,8.393,8.393v109.115h33.574c4.642,0,8.393-3.752,8.393-8.393V8.393
				C184.656,3.752,180.904,0,176.262,0z M58.754,386.098c0,4.642-3.752,8.393-8.393,8.393s-8.393-3.752-8.393-8.393v-16.787
				c0-4.642,3.752-8.393,8.393-8.393s8.393,3.752,8.393,8.393V386.098z M58.754,327.344c0,4.642-3.752,8.393-8.393,8.393
				s-8.393-3.752-8.393-8.393V243.41c0-4.642,3.752-8.393,8.393-8.393s8.393,3.752,8.393,8.393V327.344z M100.721,402.885
				c0,4.642-3.752,8.393-8.393,8.393c-4.642,0-8.393-3.752-8.393-8.393v-58.754c0-4.642,3.752-8.393,8.393-8.393
				c4.642,0,8.393,3.752,8.393,8.393V402.885z M100.721,302.164c0,4.642-3.752,8.393-8.393,8.393c-4.642,0-8.393-3.752-8.393-8.393
				v-76.238c-23.787-4.012-41.967-24.752-41.967-49.664v-25.18c0-4.642,3.752-8.393,8.393-8.393s8.393,3.752,8.393,8.393v25.18
				c0,18.516,15.058,33.574,33.574,33.574c4.642,0,8.393,3.752,8.393,8.393V302.164z M92.328,193.049
				c-9.266,0-16.787-7.521-16.787-16.787c0-9.275,7.521-16.787,16.787-16.787s16.787,7.512,16.787,16.787
				C109.115,185.529,101.594,193.049,92.328,193.049z M142.689,360.918c0,4.642-3.752,8.393-8.393,8.393
				c-4.642,0-8.393-3.752-8.393-8.393V293.77c0-4.642,3.752-8.393,8.393-8.393c4.642,0,8.393,3.752,8.393,8.393V360.918z
				 M142.689,251.803c0,4.642-3.752,8.393-8.393,8.393c-4.642,0-8.393-3.752-8.393-8.393v-75.541
				c0-18.516-15.058-33.574-33.574-33.574c-4.642,0-8.393-3.752-8.393-8.393v-33.574c0-4.642,3.752-8.393,8.393-8.393
				c4.642,0,8.393,3.752,8.393,8.393v25.877c23.787,4.012,41.967,24.752,41.967,49.664V251.803z"/>
			<path d="M293.77,411.279h33.33c4.633,0,8.393,3.752,8.393,8.393c0,4.642-3.76,8.393-8.393,8.393h-33.33v16.787h33.33
				c4.633,0,8.393,3.752,8.393,8.393s-3.76,8.393-8.393,8.393h-33.33v8.393c0,18.516,15.058,33.574,33.574,33.574h16.787
				c18.516,0,33.574-15.058,33.574-33.574v-218.23H293.77V411.279z"/>
		</g>
	</g>
</g>
<g>
</g>
<g>
</g>
<g>
</g>
<g>
</g>
<g>
</g>
<g>
</g>
<g>
</g>
<g>
</g>
<g>
</g>
<g>
</g>
<g>
</g>
<g>
</g>
<g>
</g>
<g>
</g>
<g>
</g>
</svg>
