<?xml version="1.0" encoding="iso-8859-1"?>
<!-- Generator: Adobe Illustrator 19.0.0, SVG Export Plug-In . SVG Version: 6.00 Build 0)  -->
<svg version="1.1" id="Layer_1" xmlns="http://www.w3.org/2000/svg" xmlns:xlink="http://www.w3.org/1999/xlink" x="0px" y="0px"
	 viewBox="0 0 512.002 512.002" style="enable-background:new 0 0 512.002 512.002;" xml:space="preserve">
<g>
	<g>
		<g>
			<path d="M391.928,22.426c-1.297-3.234-4.437-5.359-7.927-5.359h-25.6V8.533c0-4.71-3.823-8.533-8.533-8.533H162.134
				c-4.71,0-8.533,3.823-8.533,8.533v8.533h-25.6c-3.49,0-6.63,2.125-7.927,5.359c-11.819,29.56-11.819,62.123,0,91.682
				c1.297,3.234,4.437,5.359,7.927,5.359h25.6V128c0,4.71,3.823,8.533,8.533,8.533h59.418v102.4h68.267v-102.4h60.049
				c4.71,0,8.533-3.823,8.533-8.533v-8.533h25.6c3.49,0,6.63-2.125,7.927-5.359C403.747,84.548,403.747,51.985,391.928,22.426z
				 M341.334,25.6v85.333v8.533h-60.049h-51.2h-59.418v-8.533V25.6v-8.533h170.667V25.6z"/>
			<path d="M289.818,274.749v-18.748h-68.267v18.748c0,8.371-2.458,16.478-7.1,23.45c-6.519,9.788-9.967,21.171-9.967,32.913v87.023
				h34.133c4.71,0,8.533,3.814,8.533,8.533c0,4.71-3.823,8.533-8.533,8.533h-34.133v17.067h34.133c4.71,0,8.533,3.814,8.533,8.533
				c0,4.71-3.823,8.533-8.533,8.533h-34.133v8.533c0,18.816,15.309,34.133,34.133,34.133h34.133
				c18.825,0,34.133-15.317,34.133-34.133V331.112c0-11.742-3.447-23.125-9.967-32.913
				C292.275,291.227,289.818,283.121,289.818,274.749z"/>
		</g>
	</g>
</g>
<g>
</g>
<g>
</g>
<g>
</g>
<g>
</g>
<g>
</g>
<g>
</g>
<g>
</g>
<g>
</g>
<g>
</g>
<g>
</g>
<g>
</g>
<g>
</g>
<g>
</g>
<g>
</g>
<g>
</g>
</svg>
