<?xml version="1.0" encoding="iso-8859-1"?>
<!-- Generator: Adobe Illustrator 19.0.0, SVG Export Plug-In . SVG Version: 6.00 Build 0)  -->
<svg version="1.1" id="Layer_1" xmlns="http://www.w3.org/2000/svg" xmlns:xlink="http://www.w3.org/1999/xlink" x="0px" y="0px"
	 viewBox="0 0 503.322 503.322" style="enable-background:new 0 0 503.322 503.322;" xml:space="preserve">
<g>
	<g>
		<g>
			<path d="M494.644,355.797h-17.538c-4.686,0-8.496-3.801-8.496-8.496v-30.199c0-40.552-11.221-79.473-30.894-113.143
				l-104.969,38.487c-0.972,0.364-1.979,0.538-2.985,0.538c-2.195,0-4.365-0.842-6.005-2.412c-2.395-2.3-3.272-5.753-2.265-8.912
				l34.825-108.804c-11.169-6.404-22.892-11.95-35.233-16.289v-2.907c0-14.093-11.464-25.557-25.557-25.557h-35.189v121.422
				c0,4.799-3.888,8.678-8.678,8.678c-4.79,0-8.678-3.879-8.678-8.678V78.102h-35.189c-14.093,0-25.557,11.464-25.557,25.557v2.829
				c-13.286,4.495-25.852,10.388-37.775,17.243l37.298,107.737c1.076,3.124,0.295,6.595-2.031,8.938
				c-1.658,1.675-3.888,2.577-6.17,2.577c-0.92,0-1.84-0.148-2.742-0.451L62.75,206.51c-17.842,31.779-28.039,68.053-28.039,105.897
				v34.894c0,4.695-3.81,8.496-8.496,8.496H8.678c-4.79,0-8.678,3.879-8.678,8.678v52.068c0,4.799,3.888,8.678,8.678,8.678h485.966
				c4.79,0,8.678-3.879,8.678-8.678v-52.068C503.322,359.676,499.434,355.797,494.644,355.797z M399.186,373.153H104.136
				c-4.79,0-8.678-3.879-8.678-8.678s3.888-8.678,8.678-8.678h295.051c4.79,0,8.678,3.879,8.678,8.678
				S403.977,373.153,399.186,373.153z"/>
			<path d="M129.393,133.243c-22.641,15.646-42.053,35.415-57.309,58.09l87.517,29.175L129.393,133.243z"/>
			<path d="M428.189,188.974c-15.325-22.077-34.556-41.272-56.711-56.554l-28.039,87.63L428.189,188.974z"/>
		</g>
	</g>
</g>
<g>
</g>
<g>
</g>
<g>
</g>
<g>
</g>
<g>
</g>
<g>
</g>
<g>
</g>
<g>
</g>
<g>
</g>
<g>
</g>
<g>
</g>
<g>
</g>
<g>
</g>
<g>
</g>
<g>
</g>
</svg>
