<?xml version="1.0" encoding="iso-8859-1"?>
<!-- Generator: Adobe Illustrator 19.0.0, SVG Export Plug-In . SVG Version: 6.00 Build 0)  -->
<svg version="1.1" id="Layer_1" xmlns="http://www.w3.org/2000/svg" xmlns:xlink="http://www.w3.org/1999/xlink" x="0px" y="0px"
	 viewBox="0 0 511.959 511.959" style="enable-background:new 0 0 511.959 511.959;" xml:space="preserve">
<g>
	<g>
		<g>
			<path d="M273.046,255.997c0-14.114-11.486-25.6-25.6-25.6c-14.114,0-25.6,11.486-25.6,25.6c0,14.114,11.486,25.6,25.6,25.6
				C261.56,281.597,273.046,270.112,273.046,255.997z"/>
			<path d="M327.747,391.648c-11.691-16.93-29.952-28.638-50.091-32.128h-0.009c-2.278-0.393-4.599-3.379-4.599-5.914v-25.284
				c29.781-10.581,51.2-38.963,51.2-72.328c0-42.342-34.449-76.8-76.8-76.8c-42.351,0-76.8,34.458-76.8,76.8
				c0,33.365,21.419,61.747,51.2,72.328v46.515c0,19.166,15.59,34.756,34.756,34.756h7.91c7.834,0,15.138,3.541,20.036,9.685
				c4.958,6.238,6.69,14.071,4.855,22.05c-2.193,9.557-9.899,17.655-18.756,19.686c-10.3,2.415-19.029-2.33-30.165-16.205
				c-8.619-10.735-28.467-39.74-28.663-40.03c-1.826-2.662-4.983-4.096-8.226-3.635c-3.209,0.452-5.879,2.679-6.903,5.751
				l-1.476,4.42c-8.38,25.105-3.362,52.471,13.397,73.199c14.165,17.51,34.918,27.443,56.696,27.443
				c2.645,0,5.316-0.154,7.979-0.452c4.002-0.452,8.004-1.212,11.896-2.236c27.733-7.381,49.186-30.524,54.665-58.94
				C343.858,429.587,339.557,408.748,327.747,391.648z M204.782,255.993c0-23.518,19.14-42.667,42.667-42.667
				c23.526,0,42.667,19.149,42.667,42.667c0,23.526-19.14,42.667-42.667,42.667C223.922,298.66,204.782,279.52,204.782,255.993z
				 M323.097,447.097c-4.25,22.042-20.855,39.97-42.291,45.679c-3.089,0.811-6.263,1.417-9.438,1.775
				c-18.987,2.21-37.086-5.444-49.476-20.77c-10.163-12.553-14.797-28.211-13.312-43.733c6.289,8.969,13.884,19.576,18.603,25.446
				c10.411,12.988,25.199,27.264,47.309,22.153c15.215-3.499,27.895-16.563,31.548-32.503c2.978-12.954,0.017-26.266-8.132-36.497
				c-8.158-10.24-20.335-16.119-33.391-16.119h-7.91c-9.762,0-17.69-7.927-17.69-17.69V332.29c2.654,0.299,5.35,0.469,8.09,0.486
				h0.887c2.731-0.017,5.427-0.188,8.09-0.486v21.316c0,10.931,8.243,20.915,18.756,22.733
				c15.659,2.705,29.858,11.827,38.955,25.003C322.892,414.636,326.22,430.892,323.097,447.097z"/>
			<path d="M290.113,172.493V8.533c0-4.719-3.814-8.533-8.533-8.533h-68.267c-4.719,0-8.533,3.814-8.533,8.533v25.6h34.133
				c4.719,0,8.533,3.814,8.533,8.533c0,4.71-3.814,8.533-8.533,8.533h-34.133v8.533h34.133c4.719,0,8.533,3.814,8.533,8.533
				c0,4.71-3.814,8.533-8.533,8.533h-34.133v95.693c12.817-6.579,27.298-10.359,42.667-10.359S277.296,165.914,290.113,172.493z"/>
		</g>
	</g>
</g>
<g>
</g>
<g>
</g>
<g>
</g>
<g>
</g>
<g>
</g>
<g>
</g>
<g>
</g>
<g>
</g>
<g>
</g>
<g>
</g>
<g>
</g>
<g>
</g>
<g>
</g>
<g>
</g>
<g>
</g>
</svg>
