<?xml version="1.0" encoding="iso-8859-1"?>
<!-- Generator: Adobe Illustrator 19.0.0, SVG Export Plug-In . SVG Version: 6.00 Build 0)  -->
<svg version="1.1" id="Layer_1" xmlns="http://www.w3.org/2000/svg" xmlns:xlink="http://www.w3.org/1999/xlink" x="0px" y="0px"
	 viewBox="0 0 512 512" style="enable-background:new 0 0 512 512;" xml:space="preserve">
<g>
	<g>
		<path d="M503.467,443.733c-54.613,0-102.4-43.52-102.4-93.867c0-20.48-14.507-37.547-34.133-41.813V256
			c47.787,4.267,85.333,44.373,85.333,93.867c0,23.893,27.307,42.667,51.2,42.667c5.12,0,8.533-3.413,8.533-8.533
			s-3.413-8.533-8.533-8.533c-14.507,0-34.133-12.8-34.133-25.6c0-61.44-49.493-110.933-110.933-110.933h-25.6v-17.067h21.333
			c11.947,0,21.333-9.387,21.333-21.333v-7.68c0-11.947-9.387-21.333-21.333-21.333H332.8
			c-4.267-68.267-54.613-122.88-119.467-134.827V25.6c0-14.507-11.093-25.6-25.6-25.6s-25.6,11.093-25.6,25.6v11.093
			C97.28,48.64,46.933,103.253,43.52,170.667H22.187C10.24,170.667,0,180.053,0,192v7.68c0,12.8,10.24,22.187,22.187,22.187h20.48
			v17.067h-25.6c-5.12,0-8.533,3.413-8.533,8.533v68.267c0,5.12,3.413,8.533,8.533,8.533h25.6V460.8
			C18.773,460.8,0,479.573,0,503.467C0,508.587,3.413,512,8.533,512h358.4c5.12,0,8.533-3.413,8.533-8.533
			c0-23.893-18.773-42.667-42.667-42.667V324.267h25.6c14.507,0,25.6,11.093,25.6,25.6c0,58.88,55.467,110.933,119.467,110.933
			c5.12,0,8.533-3.413,8.533-8.533C512,448,508.587,443.733,503.467,443.733z M179.2,25.6c0-5.12,3.413-8.533,8.533-8.533
			s8.533,3.413,8.533,8.533v8.533c-2.56,0-5.973,0-8.533,0s-5.973,0-8.533,0V25.6z M25.6,307.2V256h17.067v51.2H25.6z
			 M356.693,494.933H18.773c3.413-10.24,12.8-17.067,23.893-17.067H51.2h273.067h8.533
			C343.893,477.867,353.28,484.693,356.693,494.933z M221.867,307.2V256c0-5.12,3.413-8.533,8.533-8.533h42.667
			c5.12,0,8.533,3.413,8.533,8.533v170.667c0,5.12-3.413,8.533-8.533,8.533H230.4c-5.12,0-8.533-3.413-8.533-8.533v-59.733H153.6
			v59.733c0,5.12-3.413,8.533-8.533,8.533H102.4c-5.12,0-8.533-3.413-8.533-8.533V256c0-5.12,3.413-8.533,8.533-8.533h42.667
			c5.12,0,8.533,3.413,8.533,8.533v51.2H221.867z M324.267,203.947v0.853H51.2H22.187c-2.56,0-5.12-1.707-5.12-4.267v-7.68
			c0-3.413,2.56-5.12,5.12-5.12H51.2h273.067h29.867c2.56,0,4.267,1.707,4.267,4.267v7.68c0,2.56-1.707,4.267-4.267,4.267H324.267z
			 M349.867,307.2H332.8V256h17.067V307.2z"/>
	</g>
</g>
<g>
	<g>
		<path d="M238.933,264.533v51.2c0,5.12-3.413,8.533-8.533,8.533h-85.333c-4.267,0-8.533-3.413-8.533-8.533v-51.2h-25.6v153.6h25.6
			V358.4c0-5.12,3.413-8.533,8.533-8.533H230.4c5.12,0,8.533,3.413,8.533,8.533v59.733h25.6v-153.6H238.933z"/>
	</g>
</g>
<g>
</g>
<g>
</g>
<g>
</g>
<g>
</g>
<g>
</g>
<g>
</g>
<g>
</g>
<g>
</g>
<g>
</g>
<g>
</g>
<g>
</g>
<g>
</g>
<g>
</g>
<g>
</g>
<g>
</g>
</svg>
