<?xml version="1.0" encoding="iso-8859-1"?>
<!-- Generator: Adobe Illustrator 19.0.0, SVG Export Plug-In . SVG Version: 6.00 Build 0)  -->
<svg version="1.1" id="Layer_1" xmlns="http://www.w3.org/2000/svg" xmlns:xlink="http://www.w3.org/1999/xlink" x="0px" y="0px"
	 viewBox="0 0 512 512" style="enable-background:new 0 0 512 512;" xml:space="preserve">
<g>
	<g>
		<path d="M469.333,25.6h-42.667c-4.71,0-8.533,3.814-8.533,8.533h-51.977l0.777-8.533c0-14.114-11.486-25.6-25.6-25.6H170.667
			c-14.114,0-25.6,11.486-25.566,26.377l0.708,7.757H93.867c0-4.719-3.823-8.533-8.533-8.533H42.667
			c-18.816,0-34.133,15.309-34.133,34.133c0,18.825,15.317,34.133,34.133,34.133h42.667c4.71,0,8.533-3.814,8.533-8.533h56.593
			l8.892,97.732c1.647,18.142,14.302,32.461,31.027,37.077l12.006,66.039c1.869,10.24,9.694,18.048,19.482,20.301V358.4
			c0,8.576,3.294,16.333,8.533,22.34v97.126c0,1.681,0.503,3.337,1.434,4.736l17.067,25.6c1.587,2.372,4.25,3.797,7.1,3.797
			c2.859,0,5.521-1.425,7.1-3.797l17.067-25.6c0.939-1.399,1.434-3.055,1.434-4.736V380.74c5.248-6.007,8.533-13.764,8.533-22.34
			v-51.917c9.796-2.253,17.613-10.061,19.482-20.309l12.006-66.031c16.734-4.617,29.389-18.935,31.036-37.077l8.858-97.732h56.619
			c0,4.719,3.823,8.533,8.533,8.533h42.667c18.825,0,34.133-15.309,34.133-34.133C503.467,40.909,488.158,25.6,469.333,25.6z
			 M93.867,68.267V51.2h53.495l1.263,13.901l0.282,3.166H93.867z M264.533,475.281l-8.533,12.8l-8.533-12.8v-83.857
			c0.299,0.077,0.597,0.111,0.896,0.179c0.563,0.128,1.135,0.23,1.715,0.333c1.877,0.333,3.78,0.563,5.7,0.572
			c0.077,0,0.145,0.026,0.222,0.026c0.077,0,0.145-0.026,0.222-0.026c1.92-0.008,3.823-0.239,5.709-0.572
			c0.572-0.102,1.143-0.205,1.707-0.333c0.299-0.068,0.606-0.102,0.896-0.179V475.281z M292.821,283.119
			c-0.742,4.062-4.267,7.014-8.397,7.014H281.6h-51.2h-2.825c-4.122,0-7.654-2.953-8.397-7.006l-11.136-61.261h95.915
			L292.821,283.119z M230.4,153.6c-4.71,0-8.533-3.814-8.533-8.533s3.823-8.533,8.533-8.533h51.2c4.71,0,8.533,3.814,8.533,8.533
			s-3.823,8.533-8.533,8.533H230.4z M273.067,179.2c0,4.719-3.823,8.533-8.533,8.533h-17.067c-4.71,0-8.533-3.814-8.533-8.533
			s3.823-8.533,8.533-8.533h17.067C269.244,170.667,273.067,174.481,273.067,179.2z M298.667,119.467h-85.333
			c-4.71,0-8.533-3.814-8.533-8.533s3.823-8.533,8.533-8.533h85.333c4.71,0,8.533,3.814,8.533,8.533
			S303.377,119.467,298.667,119.467z M418.133,68.267h-55.04l1.553-17.067h53.487V68.267z"/>
	</g>
</g>
<g>
</g>
<g>
</g>
<g>
</g>
<g>
</g>
<g>
</g>
<g>
</g>
<g>
</g>
<g>
</g>
<g>
</g>
<g>
</g>
<g>
</g>
<g>
</g>
<g>
</g>
<g>
</g>
<g>
</g>
</svg>
