<?xml version="1.0" encoding="iso-8859-1"?>
<!-- Generator: Adobe Illustrator 19.0.0, SVG Export Plug-In . SVG Version: 6.00 Build 0)  -->
<svg version="1.1" id="Layer_1" xmlns="http://www.w3.org/2000/svg" xmlns:xlink="http://www.w3.org/1999/xlink" x="0px" y="0px"
	 viewBox="0 0 512 512" style="enable-background:new 0 0 512 512;" xml:space="preserve">
<g>
	<g>
		<path d="M428.373,301.227c-3.413-3.413-8.533-3.413-11.947,0l-17.067,17.067c-3.413,3.413-3.413,8.533,0,11.947
			c1.707,1.707,4.267,2.56,5.973,2.56c1.707,0,4.267-0.853,5.973-2.56l17.067-17.067C431.787,309.76,431.787,304.64,428.373,301.227
			z"/>
	</g>
</g>
<g>
	<g>
		<path d="M448,349.867h-25.6c-5.12,0-8.533,3.413-8.533,8.533s3.413,8.533,8.533,8.533H448c5.12,0,8.533-3.413,8.533-8.533
			C456.533,354.133,453.12,349.867,448,349.867z"/>
	</g>
</g>
<g>
	<g>
		<path d="M428.373,403.627l-17.067-17.067c-3.413-3.413-8.533-3.413-11.947,0c-3.413,3.413-3.413,8.533,0,11.947l17.067,17.067
			c1.707,1.707,4.267,2.56,5.973,2.56c2.56,0,4.267-0.853,5.973-2.56C431.787,412.16,431.787,407.04,428.373,403.627z"/>
	</g>
</g>
<g>
	<g>
		<path d="M273.92,340.48l17.067,8.533c3.413,1.707,6.827,0.853,10.24-1.707l11.093-11.093l11.093,11.093
			c1.707,1.707,3.413,2.56,5.973,2.56c1.707,0,2.56,0,3.413-0.853l17.067-8.533c2.56-1.707,5.12-4.267,5.12-7.68v-34.133
			c23.893,0,42.667-18.773,42.667-42.667c0-23.893-18.773-42.667-42.667-42.667v-68.267c23.893,0,42.667-18.773,42.667-42.667
			c0-23.893-18.773-42.667-42.667-42.667V42.667C354.987,18.773,336.213,0,312.32,0c-23.893,0-42.667,18.773-42.667,42.667v17.067
			h-86.187V42.667C183.467,18.773,164.693,0,140.8,0c-23.04,0-42.667,18.773-42.667,42.667v17.067
			c-23.893,0-42.667,18.773-42.667,42.667c0,23.893,18.773,42.667,42.667,42.667v68.267c-23.893,0-42.667,18.773-42.667,42.667
			c0,23.893,18.773,42.667,42.667,42.667v46.08c-7.68,0-15.36,2.56-22.187,7.68c-9.387,6.827-15.36,16.213-17.92,27.307
			c-1.707,11.093,0.853,22.187,6.827,31.573c5.973,9.387,16.213,15.36,27.307,17.92l5.973,0.853v39.253
			c0,23.893,18.773,42.667,42.667,42.667c23.893,0,42.667-18.773,42.667-42.667V445.44L268.8,460.8v8.533
			c0,23.893,18.773,42.667,42.667,42.667c22.187,0,39.253-16.213,41.813-37.547c8.533,0,16.213-2.56,23.04-7.68
			c9.387-6.827,15.36-16.213,17.92-27.307c1.707-11.093-0.853-22.187-6.827-31.573c-6.827-9.387-16.213-15.36-27.307-17.92
			L183.467,358.4v-59.733H268.8V332.8C268.8,336.213,270.507,338.773,273.92,340.48z M285.867,42.667
			c0-14.507,11.093-25.6,25.6-25.6s25.6,11.093,25.6,25.6v17.067h-51.2V42.667z M320,102.4c0,5.12-3.413,8.533-8.533,8.533
			s-8.533-3.413-8.533-8.533s3.413-8.533,8.533-8.533S320,97.28,320,102.4z M285.867,145.067h51.2v68.267h-51.2V145.067z M320,256
			c0,5.12-3.413,8.533-8.533,8.533s-8.533-3.413-8.533-8.533s3.413-8.533,8.533-8.533S320,250.88,320,256z M285.867,298.667h51.2
			v29.013l-6.827,3.413l-12.8-12.8c-1.707-1.707-3.413-2.56-5.973-2.56s-4.267,0.853-5.973,2.56l-12.8,12.8l-6.827-3.413V298.667z
			 M166.4,469.333c0,14.507-11.093,25.6-25.6,25.6s-25.6-11.093-25.6-25.6v-35.84l51.2,9.387V469.333z M133.973,393.387
			c0.853-4.267,5.12-7.68,10.24-6.827c4.267,0.853,7.68,5.12,6.827,10.24c-0.853,5.12-5.12,7.68-10.24,6.827
			C136.533,402.773,133.12,397.653,133.973,393.387z M166.4,355.84h-0.853l-50.347-8.533v-48.64h51.2V355.84z M132.267,256
			c0-5.12,3.413-8.533,8.533-8.533s8.533,3.413,8.533,8.533s-3.413,8.533-8.533,8.533S132.267,261.12,132.267,256z M166.4,213.333
			h-51.2v-68.267h51.2V213.333z M132.267,102.4c0-5.12,3.413-8.533,8.533-8.533s8.533,3.413,8.533,8.533s-3.413,8.533-8.533,8.533
			S132.267,107.52,132.267,102.4z M166.4,59.733h-51.2V42.667c0-14.507,11.093-25.6,25.6-25.6s25.6,11.093,25.6,25.6V59.733z
			 M301.227,423.253c1.707-5.12,5.973-7.68,10.24-6.827s7.68,5.12,6.827,10.24s-5.12,7.68-10.24,6.827
			C303.787,432.64,300.373,428.373,301.227,423.253z M285.867,463.36l5.12,0.853l46.08,8.533c-1.707,12.8-11.947,22.187-25.6,22.187
			c-14.507,0-25.6-11.093-25.6-25.6V463.36z M183.467,213.333v-68.267H268.8v68.267H183.467z"/>
	</g>
</g>
<g>
</g>
<g>
</g>
<g>
</g>
<g>
</g>
<g>
</g>
<g>
</g>
<g>
</g>
<g>
</g>
<g>
</g>
<g>
</g>
<g>
</g>
<g>
</g>
<g>
</g>
<g>
</g>
<g>
</g>
</svg>
