<?xml version="1.0" encoding="iso-8859-1"?>
<!-- Generator: Adobe Illustrator 19.0.0, SVG Export Plug-In . SVG Version: 6.00 Build 0)  -->
<svg version="1.1" id="Layer_1" xmlns="http://www.w3.org/2000/svg" xmlns:xlink="http://www.w3.org/1999/xlink" x="0px" y="0px"
	 viewBox="0 0 512 512" style="enable-background:new 0 0 512 512;" xml:space="preserve">
<g>
	<g>
		<path d="M426.667,256c0-23.893-18.773-42.667-42.667-42.667v-68.267c23.893,0,42.667-18.773,42.667-42.667
			c0-23.893-18.773-42.667-42.667-42.667V42.667C384,18.773,365.227,0,341.333,0c-23.893,0-42.667,18.773-42.667,42.667v17.067
			h-85.333V42.667C213.333,18.773,194.56,0,170.667,0C147.627,0,128,18.773,128,42.667v17.067
			c-23.893,0-42.667,18.773-42.667,42.667c0,23.893,18.773,42.667,42.667,42.667v68.267c-23.893,0-42.667,18.773-42.667,42.667
			c0,23.893,18.773,42.667,42.667,42.667v68.267c-23.893,0-42.667,18.773-42.667,42.667c0,23.893,18.773,42.667,42.667,42.667
			v17.067C128,493.227,146.773,512,170.667,512c23.893,0,42.667-18.773,42.667-42.667v-17.067h85.333v17.067
			c0,23.893,18.773,42.667,42.667,42.667C365.227,512,384,493.227,384,469.333v-17.067c23.893,0,42.667-18.773,42.667-42.667
			c0-23.893-18.773-42.667-42.667-42.667v-68.267C407.893,298.667,426.667,279.893,426.667,256z M196.267,469.333
			c0,14.507-11.093,25.6-25.6,25.6c-14.507,0-25.6-11.093-25.6-25.6v-17.067h51.2V469.333z M162.133,409.6
			c0-5.12,3.413-8.533,8.533-8.533s8.533,4.267,8.533,8.533c0,5.12-3.413,8.533-8.533,8.533S162.133,414.72,162.133,409.6z
			 M196.267,366.933h-51.2v-68.267h51.2V366.933z M162.133,256c0-5.12,3.413-8.533,8.533-8.533s8.533,4.267,8.533,8.533
			c0,5.12-3.413,8.533-8.533,8.533S162.133,261.12,162.133,256z M196.267,213.333h-51.2v-68.267h51.2V213.333z M162.133,102.4
			c0-5.12,3.413-8.533,8.533-8.533s8.533,3.413,8.533,8.533s-3.413,8.533-8.533,8.533S162.133,107.52,162.133,102.4z
			 M196.267,59.733h-51.2V42.667c0-14.507,11.947-25.6,25.6-25.6c14.507,0,25.6,11.093,25.6,25.6V59.733z M298.667,366.933h-85.333
			v-68.267h85.333V366.933z M298.667,213.333h-85.333v-68.267h85.333V213.333z M366.933,469.333c0,14.507-11.093,25.6-25.6,25.6
			c-14.507,0-25.6-11.093-25.6-25.6v-17.067h51.2V469.333z M332.8,409.6c0-5.12,3.413-8.533,8.533-8.533
			c5.12,0,8.533,3.413,8.533,8.533s-3.413,8.533-8.533,8.533C336.213,418.133,332.8,414.72,332.8,409.6z M366.933,366.933h-51.2
			v-68.267h51.2V366.933z M332.8,256c0-5.12,3.413-8.533,8.533-8.533c5.12,0,8.533,4.267,8.533,8.533
			c0,5.12-3.413,8.533-8.533,8.533C336.213,264.533,332.8,261.12,332.8,256z M366.933,213.333h-51.2v-68.267h51.2V213.333z
			 M332.8,102.4c0-5.12,3.413-8.533,8.533-8.533c5.12,0,8.533,3.413,8.533,8.533s-3.413,8.533-8.533,8.533
			C336.213,110.933,332.8,107.52,332.8,102.4z M366.933,59.733h-51.2V42.667c0-14.507,11.093-25.6,25.6-25.6
			c14.507,0,25.6,11.093,25.6,25.6V59.733z"/>
	</g>
</g>
<g>
</g>
<g>
</g>
<g>
</g>
<g>
</g>
<g>
</g>
<g>
</g>
<g>
</g>
<g>
</g>
<g>
</g>
<g>
</g>
<g>
</g>
<g>
</g>
<g>
</g>
<g>
</g>
<g>
</g>
</svg>
