<?xml version="1.0" encoding="iso-8859-1"?>
<!-- Generator: Adobe Illustrator 19.0.0, SVG Export Plug-In . SVG Version: 6.00 Build 0)  -->
<svg version="1.1" id="Layer_1" xmlns="http://www.w3.org/2000/svg" xmlns:xlink="http://www.w3.org/1999/xlink" x="0px" y="0px"
	 viewBox="0 0 512 512" style="enable-background:new 0 0 512 512;" xml:space="preserve">
<g>
	<g>
		<path d="M426.667,145.067c5.12,0,8.533-3.413,8.533-8.533V68.267c0-5.12-3.413-8.533-8.533-8.533h-25.6v-51.2
			c0-5.12-3.413-8.533-8.533-8.533h-68.267c-5.12,0-8.533,3.413-8.533,8.533v51.2H196.267v-51.2c0-5.12-3.413-8.533-8.533-8.533
			h-68.267c-4.267,0-8.533,4.267-8.533,8.533v51.2h-25.6c-4.267,0-8.533,4.267-8.533,8.533v68.267c0,5.12,3.413,8.533,8.533,8.533
			h25.6V204.8h-25.6c-5.12,0-8.533,3.413-8.533,8.533V281.6c0,5.12,3.413,8.533,8.533,8.533h25.6v59.733h-25.6
			c-5.12,0-8.533,3.413-8.533,8.533v68.267c0,5.12,3.413,8.533,8.533,8.533h25.6v68.267c0,5.12,3.413,8.533,8.533,8.533h68.267
			c5.12,0,8.533-3.413,8.533-8.533V435.2h119.467v68.267c0,5.12,3.413,8.533,8.533,8.533h68.267c5.12,0,8.533-3.413,8.533-8.533
			V435.2h25.6c5.12,0,8.533-3.413,8.533-8.533V358.4c0-5.12-3.413-8.533-8.533-8.533h-25.6v-59.733h25.6
			c5.12,0,8.533-3.413,8.533-8.533v-68.267c0-5.12-3.413-8.533-8.533-8.533h-25.6v-59.733H426.667z M179.2,494.933H128V435.2h51.2
			V494.933z M145.067,392.533c0-5.12,3.413-8.533,8.533-8.533s8.533,3.413,8.533,8.533c0,5.12-3.413,8.533-8.533,8.533
			S145.067,397.653,145.067,392.533z M179.2,349.867H128v-59.733h51.2V349.867z M145.067,247.467c0-5.12,3.413-8.533,8.533-8.533
			s8.533,3.413,8.533,8.533S158.72,256,153.6,256S145.067,252.587,145.067,247.467z M179.2,204.8H128v-59.733h51.2V204.8z
			 M145.067,102.4c0-5.12,3.413-8.533,8.533-8.533s8.533,3.413,8.533,8.533s-3.413,8.533-8.533,8.533S145.067,107.52,145.067,102.4z
			 M179.2,59.733H128V17.067h51.2V59.733z M315.733,349.867H196.267v-59.733h119.467V349.867z M315.733,204.8H196.267v-59.733
			h119.467V204.8z M384,494.933h-51.2V435.2H384V494.933z M349.867,392.533c0-5.12,3.413-8.533,8.533-8.533s8.533,3.413,8.533,8.533
			c0,5.12-3.413,8.533-8.533,8.533S349.867,397.653,349.867,392.533z M384,349.867h-51.2v-59.733H384V349.867z M349.867,247.467
			c0-5.12,3.413-8.533,8.533-8.533s8.533,3.413,8.533,8.533S363.52,256,358.4,256S349.867,252.587,349.867,247.467z M384,204.8
			h-51.2v-59.733H384V204.8z M349.867,102.4c0-5.12,3.413-8.533,8.533-8.533s8.533,3.413,8.533,8.533s-3.413,8.533-8.533,8.533
			S349.867,107.52,349.867,102.4z M384,59.733h-51.2V17.067H384V59.733z"/>
	</g>
</g>
<g>
</g>
<g>
</g>
<g>
</g>
<g>
</g>
<g>
</g>
<g>
</g>
<g>
</g>
<g>
</g>
<g>
</g>
<g>
</g>
<g>
</g>
<g>
</g>
<g>
</g>
<g>
</g>
<g>
</g>
</svg>
