<?xml version="1.0" encoding="iso-8859-1"?>
<!-- Generator: Adobe Illustrator 19.0.0, SVG Export Plug-In . SVG Version: 6.00 Build 0)  -->
<svg version="1.1" id="Layer_1" xmlns="http://www.w3.org/2000/svg" xmlns:xlink="http://www.w3.org/1999/xlink" x="0px" y="0px"
	 viewBox="0 0 511.882 511.882" style="enable-background:new 0 0 511.882 511.882;" xml:space="preserve">
<g>
	<g>
		<g>
			<path d="M255.944,76.681c-51.755,0-93.867,42.112-93.867,93.867c0,51.755,42.112,93.867,93.867,93.867
				c51.755,0,93.867-42.112,93.867-93.867C349.811,118.793,307.699,76.681,255.944,76.681z M263.795,242.057
				c-0.427,1.024-1.024,1.954-1.792,2.816c-0.853,0.768-1.792,1.365-2.816,1.792c-1.024,0.503-2.133,0.683-3.243,0.683
				c-1.109,0-2.219-0.179-3.243-0.683c-1.024-0.427-1.963-1.024-2.816-1.792c-0.768-0.862-1.365-1.792-1.792-2.816
				c-0.512-1.024-0.683-2.133-0.683-3.243c0-2.219,0.939-4.446,2.475-6.059c3.243-3.157,8.875-3.157,12.117,0
				c1.536,1.613,2.475,3.84,2.475,6.059C264.477,239.923,264.307,241.033,263.795,242.057z M264.477,204.681
				c0,4.719-3.823,8.533-8.533,8.533c-4.71,0-8.533-3.814-8.533-8.533v-102.4c0-4.719,3.823-8.533,8.533-8.533
				c4.71,0,8.533,3.814,8.533,8.533V204.681z"/>
			<path d="M425.536,155.213C416.763,74.761,352.038,9.907,271.637,0.99c-4.804-0.538-9.873-0.862-15.898-0.99
				c-5.615,0.128-10.684,0.452-15.497,0.99C159.85,9.907,95.125,74.761,86.344,155.213c-5.956,54.673,13.261,107.742,52.727,145.596
				c18.142,17.399,31.181,37.47,37.547,57.472H335.27c6.366-20.002,19.405-40.073,37.547-57.472
				C412.283,262.946,431.5,209.886,425.536,155.213z M255.944,281.481c-61.167,0-110.933-49.766-110.933-110.933
				S194.777,59.614,255.944,59.614c61.167,0,110.933,49.766,110.933,110.933S317.111,281.481,255.944,281.481z"/>
			<path d="M179.141,392.416h68.267c4.719,0,8.533,3.814,8.533,8.533s-3.814,8.533-8.533,8.533h-68.267v17.067h42.667
				c4.719,0,8.533,3.814,8.533,8.533c0,4.719-3.814,8.533-8.533,8.533h-42.667v25.6c0,4.719,3.823,8.533,8.533,8.533h12.809
				l15.352,20.471c6.409,8.55,16.614,13.662,27.307,13.662h25.6c10.692,0,20.907-5.111,27.307-13.662l15.36-20.471h12.8
				c4.719,0,8.533-3.814,8.533-8.533v-25.6h-68.267c-4.71,0-8.533-3.814-8.533-8.533c0-4.719,3.823-8.533,8.533-8.533h68.267
				v-17.067h-42.667c-4.71,0-8.533-3.814-8.533-8.533s3.823-8.533,8.533-8.533h42.667v-17.067h-153.6V392.416z M290.074,477.749
				l-7.68,10.24c-3.2,4.275-8.303,6.827-13.653,6.827h-25.6c-5.342,0-10.445-2.551-13.653-6.827l-7.68-10.24H290.074z"/>
		</g>
	</g>
</g>
<g>
</g>
<g>
</g>
<g>
</g>
<g>
</g>
<g>
</g>
<g>
</g>
<g>
</g>
<g>
</g>
<g>
</g>
<g>
</g>
<g>
</g>
<g>
</g>
<g>
</g>
<g>
</g>
<g>
</g>
</svg>
