<?xml version="1.0" encoding="iso-8859-1"?>
<!-- Generator: Adobe Illustrator 19.0.0, SVG Export Plug-In . SVG Version: 6.00 Build 0)  -->
<svg version="1.1" id="Layer_1" xmlns="http://www.w3.org/2000/svg" xmlns:xlink="http://www.w3.org/1999/xlink" x="0px" y="0px"
	 viewBox="0 0 512 512" style="enable-background:new 0 0 512 512;" xml:space="preserve">
<g>
	<g>
		<path d="M351.227,71.834C339.144,29.542,299.985,0,256.004,0c-43.989,0-83.149,29.542-95.258,71.945
			c-20.932,77.594-20.924,157.705,0.026,231.689l18.432,64.486v24.414h68.267c4.71,0,8.533,3.814,8.533,8.533
			s-3.823,8.533-8.533,8.533h-68.267v17.067h42.667c4.71,0,8.533,3.814,8.533,8.533c0,4.719-3.823,8.533-8.533,8.533h-42.667v25.6
			c0,4.719,3.814,8.533,8.533,8.533h12.8l15.352,20.471c6.409,8.55,16.623,13.662,27.315,13.662h25.6
			c10.692,0,20.898-5.111,27.298-13.662l15.36-20.471h12.808c4.71,0,8.533-3.814,8.533-8.533v-25.6h-68.267
			c-4.719,0-8.533-3.814-8.533-8.533c0-4.719,3.814-8.533,8.533-8.533h68.267V409.6h-42.667c-4.719,0-8.533-3.814-8.533-8.533
			s3.814-8.533,8.533-8.533h42.667v-24.414l18.458-64.606C372.185,225.92,372.177,145.818,351.227,71.834z M290.137,477.867
			l-7.689,10.24c-3.2,4.275-8.303,6.827-13.645,6.827h-25.6c-5.35,0-10.445-2.551-13.653-6.827l-7.68-10.24H290.137z
			 M334.818,298.948l-16.99,59.452H298.67V187.733c0-4.719-3.823-8.533-8.533-8.533c-4.719,0-8.533,3.814-8.533,8.533V358.4h-51.2
			V187.733c0-4.719-3.823-8.533-8.533-8.533c-4.719,0-8.533,3.814-8.533,8.533V358.4h-19.166l-16.981-59.435
			c-20.105-70.997-20.087-147.968-0.009-222.447c10.001-35.004,42.411-59.452,78.822-59.452c36.403,0,68.813,24.448,78.805,59.435
			C354.914,147.499,354.905,224.461,334.818,298.948z"/>
	</g>
</g>
<g>
</g>
<g>
</g>
<g>
</g>
<g>
</g>
<g>
</g>
<g>
</g>
<g>
</g>
<g>
</g>
<g>
</g>
<g>
</g>
<g>
</g>
<g>
</g>
<g>
</g>
<g>
</g>
<g>
</g>
</svg>
