<?xml version="1.0" encoding="iso-8859-1"?>
<!-- Generator: Adobe Illustrator 19.0.0, SVG Export Plug-In . SVG Version: 6.00 Build 0)  -->
<svg version="1.1" id="Layer_1" xmlns="http://www.w3.org/2000/svg" xmlns:xlink="http://www.w3.org/1999/xlink" x="0px" y="0px"
	 viewBox="0 0 511.882 511.882" style="enable-background:new 0 0 511.882 511.882;" xml:space="preserve">
<g>
	<g>
		<g>
			<path d="M255.939,76.681c-51.755,0-93.867,42.103-93.867,93.867c0,51.755,42.112,93.867,93.867,93.867
				c51.763,0,93.867-42.112,93.867-93.867C349.805,118.785,307.702,76.681,255.939,76.681z M298.179,200.713
				c3.336,3.337,3.336,8.73,0,12.066c-1.664,1.664-3.849,2.5-6.033,2.5c-2.185,0-4.369-0.836-6.033-2.5l-30.174-30.165
				l-30.165,30.165c-1.673,1.664-3.857,2.5-6.033,2.5c-2.185,0-4.369-0.836-6.033-2.5c-3.337-3.337-3.337-8.73,0-12.066
				l30.165-30.165l-30.165-30.165c-3.337-3.336-3.337-8.738,0-12.066c3.328-3.337,8.73-3.337,12.066,0l30.165,30.165l30.174-30.165
				c3.337-3.337,8.73-3.337,12.066,0c3.336,3.328,3.336,8.73,0,12.066l-30.174,30.165L298.179,200.713z"/>
			<path d="M425.541,155.213C416.76,74.761,352.035,9.907,271.634,0.99c-4.804-0.538-9.873-0.862-15.898-0.99
				c-5.615,0.128-10.684,0.452-15.497,0.99C159.847,9.907,95.122,74.761,86.341,155.213
				c-5.956,54.673,13.261,107.742,52.727,145.596c18.142,17.399,31.181,37.47,37.547,57.472h158.652
				c6.366-20.002,19.405-40.073,37.547-57.472C412.28,262.955,431.497,209.886,425.541,155.213z M255.941,281.481
				c-61.167,0-110.933-49.766-110.933-110.933S194.774,59.614,255.941,59.614s110.933,49.766,110.933,110.933
				S317.108,281.481,255.941,281.481z"/>
			<path d="M179.138,392.416h68.267c4.719,0,8.533,3.814,8.533,8.533s-3.814,8.533-8.533,8.533h-68.267v17.067h42.667
				c4.719,0,8.533,3.814,8.533,8.533c0,4.719-3.814,8.533-8.533,8.533h-42.667v25.6c0,4.719,3.823,8.533,8.533,8.533h12.809
				l15.352,20.471c6.409,8.55,16.614,13.662,27.307,13.662h25.6c10.692,0,20.907-5.111,27.307-13.662l15.36-20.471h12.8
				c4.719,0,8.533-3.814,8.533-8.533v-25.6h-68.267c-4.71,0-8.533-3.814-8.533-8.533c0-4.719,3.823-8.533,8.533-8.533h68.267
				v-17.067h-42.667c-4.71,0-8.533-3.814-8.533-8.533s3.823-8.533,8.533-8.533h42.667v-17.067h-153.6V392.416z M290.071,477.749
				l-7.68,10.24c-3.2,4.275-8.303,6.827-13.653,6.827h-25.6c-5.342,0-10.445-2.551-13.653-6.827l-7.68-10.24H290.071z"/>
		</g>
	</g>
</g>
<g>
</g>
<g>
</g>
<g>
</g>
<g>
</g>
<g>
</g>
<g>
</g>
<g>
</g>
<g>
</g>
<g>
</g>
<g>
</g>
<g>
</g>
<g>
</g>
<g>
</g>
<g>
</g>
<g>
</g>
</svg>
