<?xml version="1.0" encoding="iso-8859-1"?>
<!-- Generator: Adobe Illustrator 19.0.0, SVG Export Plug-In . SVG Version: 6.00 Build 0)  -->
<svg version="1.1" id="Layer_1" xmlns="http://www.w3.org/2000/svg" xmlns:xlink="http://www.w3.org/1999/xlink" x="0px" y="0px"
	 viewBox="0 0 511.983 511.983" style="enable-background:new 0 0 511.983 511.983;" xml:space="preserve">
<g>
	<g>
		<path d="M332.792,307.2V76.8c0-42.351-34.458-76.8-76.8-76.8c-42.342,0-76.8,34.449-76.8,76.8v230.4
			c-4.71,0-8.533,3.814-8.533,8.533v50.671c0,20.71,14.66,38.025,34.133,42.197v18.065h25.6c4.71,0,8.533,3.814,8.533,8.533
			c0,4.71-3.823,8.533-8.533,8.533h-25.6v11.392c0,1.911,0.213,3.789,0.393,5.675h42.274c4.71,0,8.533,3.814,8.533,8.533
			c0,4.71-3.823,8.533-8.533,8.533h-37.973c1.178,2.756,2.526,5.461,4.13,8.03l1.801,2.884
			c6.281,10.061,15.369,17.442,25.583,20.796c4.932,1.63,9.975,2.406,14.942,2.406c15.949,0,31.155-8.047,39.927-22.084l2.5-4.002
			c1.613-2.568,2.953-5.274,4.13-8.03h-20.907c-4.71,0-8.533-3.823-8.533-8.533c0-4.719,3.823-8.533,8.533-8.533h25.207
			c0.179-1.886,0.393-3.763,0.393-5.675v-11.392h-42.667c-4.71,0-8.533-3.823-8.533-8.533c0-4.719,3.823-8.533,8.533-8.533h42.667
			v-18.065c19.473-4.173,34.133-21.487,34.133-42.197v-50.671C341.325,311.014,337.502,307.2,332.792,307.2z M213.325,76.8
			c0-23.526,19.14-42.667,42.667-42.667c23.526,0,42.667,19.14,42.667,42.667v230.4h-17.067V76.8c0-14.123-11.486-25.6-25.6-25.6
			c-14.114,0-25.6,11.477-25.6,25.6v230.4h-17.067V76.8z M264.525,94.259V307.2h-17.067V94.259c0-4.71,3.823-8.533,8.533-8.533
			C260.702,85.726,264.525,89.549,264.525,94.259z M324.258,366.404c0,14.404-11.725,26.129-26.129,26.129h-84.275
			c-14.404,0-26.129-11.725-26.129-26.129v-42.138h34.133h68.267h34.133V366.404z"/>
	</g>
</g>
<g>
</g>
<g>
</g>
<g>
</g>
<g>
</g>
<g>
</g>
<g>
</g>
<g>
</g>
<g>
</g>
<g>
</g>
<g>
</g>
<g>
</g>
<g>
</g>
<g>
</g>
<g>
</g>
<g>
</g>
</svg>
