<?xml version="1.0" encoding="iso-8859-1"?>
<!-- Generator: Adobe Illustrator 19.0.0, SVG Export Plug-In . SVG Version: 6.00 Build 0)  -->
<svg version="1.1" id="Layer_1" xmlns="http://www.w3.org/2000/svg" xmlns:xlink="http://www.w3.org/1999/xlink" x="0px" y="0px"
	 viewBox="0 0 511.881 511.881" style="enable-background:new 0 0 511.881 511.881;" xml:space="preserve">
<g>
	<g>
		<g>
			<path d="M425.536,155.213C416.756,74.761,352.039,9.907,271.638,0.99c-4.813-0.538-9.873-0.862-15.898-0.99
				c-5.623,0.128-10.684,0.452-15.497,0.99C159.843,9.907,95.126,74.761,86.345,155.213
				c-5.965,54.673,13.252,107.742,52.727,145.596c18.142,17.399,31.181,37.47,37.538,57.472h45.193v-128h-17.067
				c-18.816,0-34.133-15.309-34.133-34.133c0-18.825,15.317-34.133,34.133-34.133c18.825,0,34.133,15.309,34.133,34.133v17.067
				h34.133v-17.067c0-18.825,15.317-34.133,34.133-34.133c18.825,0,34.133,15.309,34.133,34.133
				c0,18.825-15.309,34.133-34.133,34.133H290.07v128h45.201c6.357-20.002,19.396-40.073,37.547-57.472
				C412.284,262.955,431.501,209.886,425.536,155.213z"/>
			<rect x="238.876" y="230.275" width="34.133" height="128"/>
			<path d="M324.207,196.146c0-9.412-7.654-17.067-17.067-17.067c-9.412,0-17.067,7.654-17.067,17.067v17.067h17.067
				C316.553,213.213,324.207,205.559,324.207,196.146z"/>
			<path d="M179.137,392.415h76.8c4.719,0,8.533,3.814,8.533,8.533s-3.814,8.533-8.533,8.533h-76.8v17.067h51.2
				c4.719,0,8.533,3.814,8.533,8.533c0,4.719-3.814,8.533-8.533,8.533h-51.2v25.6c0,4.719,3.823,8.533,8.533,8.533h12.809
				l15.352,20.471c6.409,8.55,16.614,13.662,27.307,13.662h25.6c10.692,0,20.907-5.111,27.307-13.662l15.36-20.471h12.8
				c4.719,0,8.533-3.814,8.533-8.533v-25.6h-59.733c-4.71,0-8.533-3.814-8.533-8.533c0-4.719,3.823-8.533,8.533-8.533h59.733
				v-17.067h-34.133c-4.71,0-8.533-3.814-8.533-8.533s3.823-8.533,8.533-8.533h34.133v-17.067h-153.6V392.415z M290.071,477.748
				l-7.68,10.24c-3.2,4.275-8.303,6.827-13.653,6.827h-25.6c-5.342,0-10.445-2.551-13.653-6.827l-7.68-10.24H290.071z"/>
			<path d="M204.741,179.08c-9.412,0-17.067,7.654-17.067,17.067c0,9.412,7.654,17.067,17.067,17.067h17.067v-17.067
				C221.807,186.734,214.153,179.08,204.741,179.08z"/>
		</g>
	</g>
</g>
<g>
</g>
<g>
</g>
<g>
</g>
<g>
</g>
<g>
</g>
<g>
</g>
<g>
</g>
<g>
</g>
<g>
</g>
<g>
</g>
<g>
</g>
<g>
</g>
<g>
</g>
<g>
</g>
<g>
</g>
</svg>
