<?xml version="1.0" encoding="iso-8859-1"?>
<!-- Generator: Adobe Illustrator 19.0.0, SVG Export Plug-In . SVG Version: 6.00 Build 0)  -->
<svg version="1.1" id="Layer_1" xmlns="http://www.w3.org/2000/svg" xmlns:xlink="http://www.w3.org/1999/xlink" x="0px" y="0px"
	 viewBox="0 0 512 512" style="enable-background:new 0 0 512 512;" xml:space="preserve">
<g>
	<g>
		<path d="M512,142.507l-34.133-102.4c-1.707-3.413-5.12-5.973-8.533-5.973h-17.067c-3.413,0-6.827,1.707-7.68,5.12L428.373,76.8
			H256c-2.56,0-4.267,0.853-5.973,2.56L141.653,188.587c-11.947,1.707-21.333,12.8-21.333,25.6v59.733H86.187v17.067
			c0,18.773-15.36,34.133-34.133,34.133H0v25.6c0,5.12,3.413,8.533,8.533,8.533h128v8.533H55.467C24.747,366.933,0,391.68,0,422.4
			c0,30.72,24.747,55.467,55.467,55.467H320c30.72,0,55.467-24.747,55.467-55.467c0-30.72-24.747-55.467-55.467-55.467h-81.067
			V358.4h25.6c5.12,0,8.533-3.413,8.533-8.533V327.68l-82.773-29.867c-17.067-5.973-28.16-22.187-28.16-40.96V204.8H179.2v52.053
			c0,11.093,6.827,20.48,17.067,24.747l76.8,28.16v-60.587c0-7.68-1.707-15.36-4.267-23.04
			c-6.827-17.067-20.48-29.013-36.693-34.987l44.373-46.933l145.067-6.827l21.333,186.88c-4.267,0.853-7.68,4.267-7.68,8.533v34.133
			c0,3.413,1.707,5.12,4.267,6.827l-46.08,91.307c-1.707,2.56-0.853,5.973,0,8.533c1.707,2.56,4.267,4.267,7.68,4.267h48.64
			c25.6,0,48.64-16.213,56.32-40.96c4.267-11.947,4.267-25.6,0-37.547l-7.68-24.747c3.413-0.853,5.12-4.267,5.12-7.68V332.8
			c0-4.267-3.413-7.68-7.68-8.533L512,145.92C512,145.067,512,143.36,512,142.507z M307.2,392.533c0.853,0,0.853,0,1.707,0
			s1.707,0,2.56,0c16.213,0,29.867,13.653,29.867,29.867c0,16.213-13.653,29.867-29.867,29.867c-0.853,0-1.707,0-2.56,0
			s-0.853,0-1.707,0H68.267c-0.853,0-0.853,0-1.707,0s-1.707,0-2.56,0c-16.213,0-29.867-13.653-29.867-29.867
			c0-16.213,13.653-29.867,29.867-29.867c0.853,0,1.707,0,2.56,0s1.707,0,1.707,0H307.2z M221.867,358.4v8.533H153.6V358.4H221.867z
			 M420.693,121.173L273.067,128c-2.56,0-4.267,0.853-5.973,2.56l-54.613,57.173h-0.853H179.2h-13.653l93.867-93.867h161.28
			l-2.56,5.12c0,1.707,0,2.56,0,4.267L420.693,121.173z M452.267,341.333H486.4V358.4h-34.133V341.333z M489.813,431.787
			c-5.973,17.067-22.187,29.013-40.107,29.013H414.72l42.667-85.333h23.04l9.387,29.013
			C493.227,413.013,493.227,423.253,489.813,431.787z"/>
	</g>
</g>
<g>
	<g>
		<path d="M34.987,273.067c-18.773,0-34.133,15.36-34.987,34.133h51.2c9.387,0,17.067-7.68,17.067-17.067v-17.067H34.987z"/>
	</g>
</g>
<g>
	<g>
		<path d="M75.947,418.133c0,0,0,0,0-0.853c-0.853-0.853-0.853-2.56-1.707-3.413c0,0,0,0,0-0.853
			c-0.853-0.853-1.707-1.707-2.56-2.56c0,0,0,0-0.853,0c-1.707,0-2.56,0-4.267-0.853c-0.853,0-1.707,0-2.56,0
			c-6.827,0-12.8,5.973-12.8,12.8s5.973,12.8,12.8,12.8c0.853,0,1.707,0,2.56,0c1.707,0,2.56-0.853,3.413-1.707c0,0,0,0,0.853,0
			c0.853-0.853,1.707-1.707,2.56-2.56c0,0,0,0,0-0.853c0.853-0.853,1.707-1.707,1.707-3.413c0,0,0,0,0-0.853
			c1.707-0.853,1.707-1.707,1.707-3.413S76.8,419.84,75.947,418.133z"/>
	</g>
</g>
<g>
	<g>
		<path d="M283.307,430.08c0-0.853,0-0.853-0.853-1.707c-0.853-1.707-0.853-3.413-0.853-5.973s0-4.267,0.853-5.973
			c0-0.853,0-0.853,0.853-1.707c0-1.707,0.853-2.56,1.707-4.267c0,0,0,0,0-0.853H91.307c0,0,0,0,0,0.853
			c0.853,1.707,0.853,2.56,1.707,4.267c0,0.853,0,0.853,0.853,1.707c0,1.707,0,3.413,0,5.973s0,4.267-0.853,5.973
			c0,0.853,0,1.707,0,1.707c0,1.707-0.853,2.56-1.707,4.267c0,0,0,0,0,0.853h193.707c0,0,0,0,0-0.853
			C284.16,432.64,284.16,431.787,283.307,430.08z"/>
	</g>
</g>
<g>
	<g>
		<path d="M310.613,409.6c-0.853,0-1.707,0-2.56,0c-1.707,0-2.56,0.853-3.413,1.707c0,0,0,0-0.853,0
			c-0.853,0.853-1.707,1.707-2.56,2.56c0,0,0,0,0,0.853c-0.853,0.853-1.707,1.707-1.707,3.413c0,0,0,0,0,0.853
			c0,0.853-0.853,2.56-0.853,4.267c0,0.853,0.853,1.707,0.853,3.413c0.853,0.853,0.853,2.56,1.707,3.413c0,0,0,0,0,0.853
			c0.853,0.853,1.707,1.707,2.56,2.56c0,0,0,0,0.853,0c0.853,0.853,2.56,0.853,3.413,1.707c0.853,0,1.707,0,2.56,0
			c6.827,0,12.8-5.973,12.8-12.8S317.44,409.6,310.613,409.6z"/>
	</g>
</g>
<g>
</g>
<g>
</g>
<g>
</g>
<g>
</g>
<g>
</g>
<g>
</g>
<g>
</g>
<g>
</g>
<g>
</g>
<g>
</g>
<g>
</g>
<g>
</g>
<g>
</g>
<g>
</g>
<g>
</g>
</svg>
