<?xml version="1.0" encoding="iso-8859-1"?>
<!-- Generator: Adobe Illustrator 19.0.0, SVG Export Plug-In . SVG Version: 6.00 Build 0)  -->
<svg version="1.1" id="Layer_1" xmlns="http://www.w3.org/2000/svg" xmlns:xlink="http://www.w3.org/1999/xlink" x="0px" y="0px"
	 viewBox="0 0 512 512" style="enable-background:new 0 0 512 512;" xml:space="preserve">
<g>
	<g>
		<g>
			<path d="M140.757,287.073c-4.105-2.321-9.31-0.887-11.639,3.191c-2.901,5.103-9.651,19.447-9.651,42.539
				c0,23.091,6.75,37.427,9.651,42.53c1.579,2.756,4.454,4.309,7.424,4.309c1.434,0,2.884-0.358,4.215-1.118
				c4.096-2.33,5.521-7.543,3.191-11.639c-2.227-3.917-7.415-15.07-7.415-34.082c0-19.021,5.188-30.174,7.415-34.091
				C146.278,294.617,144.853,289.411,140.757,287.073z"/>
			<path d="M483.379,256.026c15.642-12.527,26.633-37.811,28.373-68.292h-93.619c-4.71,0-8.533-3.814-8.533-8.533
				s3.823-8.533,8.533-8.533h93.619c-0.521-9.062-1.86-17.655-3.891-25.6H375.467h-8.533h-128c-4.71,0-8.533-3.814-8.533-8.533
				s3.823-8.533,8.533-8.533h128h8.533h126.49c-9.25-20.813-24.081-34.133-41.156-34.133H93.867c-28.706,0-51.2,37.487-51.2,85.333
				c0,30.447,9.131,56.653,23.151,71.723c-4.617-2.219-9.515-3.456-14.618-3.456C22.494,247.467,0,284.954,0,332.8
				c0,47.846,22.494,85.333,51.2,85.333h85.333H460.8c28.706,0,51.2-37.487,51.2-85.333
				C512,298.564,500.454,269.713,483.379,256.026z M58.615,366.882c2.33,4.105,0.905,9.31-3.191,11.639
				c-1.331,0.759-2.79,1.118-4.216,1.118c-2.97,0-5.854-1.544-7.424-4.309c-2.901-5.094-9.651-19.439-9.651-42.53
				c0-23.091,6.75-37.436,9.651-42.53c2.338-4.087,7.544-5.521,11.64-3.191c4.096,2.33,5.521,7.535,3.191,11.639
				c-2.227,3.917-7.415,15.061-7.415,34.082C51.2,351.821,56.388,362.965,58.615,366.882z M392.533,213.333H460.8
				c4.71,0,8.533,3.814,8.533,8.533s-3.823,8.533-8.533,8.533h-68.267c-4.71,0-8.533-3.814-8.533-8.533
				S387.823,213.333,392.533,213.333z M349.867,170.667h25.6c4.71,0,8.533,3.814,8.533,8.533s-3.823,8.533-8.533,8.533h-25.6
				c-4.71,0-8.533-3.814-8.533-8.533S345.156,170.667,349.867,170.667z M358.4,221.867c0,4.719-3.823,8.533-8.533,8.533h-85.333
				c-4.71,0-8.533-3.814-8.533-8.533s3.823-8.533,8.533-8.533h85.333C354.577,213.333,358.4,217.148,358.4,221.867z
				 M290.133,170.667h25.6c4.71,0,8.533,3.814,8.533,8.533s-3.823,8.533-8.533,8.533h-25.6c-4.71,0-8.533-3.814-8.533-8.533
				S285.423,170.667,290.133,170.667z M256,170.667c4.71,0,8.533,3.814,8.533,8.533s-3.823,8.533-8.533,8.533h-85.333
				c-4.71,0-8.533-3.814-8.533-8.533s3.823-8.533,8.533-8.533H256z M204.8,128c4.71,0,8.533,3.814,8.533,8.533
				s-3.823,8.533-8.533,8.533h-63.872c-1.562-6.127-3.567-11.81-5.905-17.067H204.8z M140.928,213.333h72.405
				c4.71,0,8.533,3.814,8.533,8.533s-3.823,8.533-8.533,8.533h-78.31C137.361,225.143,139.366,219.46,140.928,213.333z
				 M59.733,179.2c0-40.235,17.988-68.267,34.133-68.267S128,138.965,128,179.2s-17.988,68.267-34.133,68.267
				S59.733,219.435,59.733,179.2z M93.867,264.533h11.682c-4.548,5.7-8.525,12.587-11.682,20.506
				c-3.823-9.591-8.806-17.715-14.618-23.962C83.866,263.296,88.764,264.533,93.867,264.533z M82.287,401.067
				c0.196-0.256,0.375-0.58,0.572-0.845c1.681-2.176,3.302-4.471,4.804-6.98c0.051-0.094,0.102-0.196,0.154-0.29
				c1.493-2.534,2.867-5.265,4.156-8.098c0.137-0.307,0.307-0.555,0.444-0.853h2.901c0.137,0.299,0.307,0.546,0.444,0.853
				c1.289,2.833,2.662,5.564,4.156,8.098c0.051,0.094,0.102,0.196,0.154,0.29c1.502,2.509,3.123,4.804,4.804,6.98
				c0.196,0.265,0.375,0.589,0.572,0.845H82.287z M136.533,401.067c-1.143,0-2.287-0.188-3.422-0.444
				c-0.572-0.137-1.135-0.333-1.698-0.529c-0.503-0.171-1.007-0.358-1.51-0.58c-0.776-0.35-1.562-0.734-2.33-1.203
				c-0.154-0.094-0.307-0.196-0.461-0.29c-13.005-8.269-24.713-32.759-24.713-65.22c0-40.235,17.988-68.267,34.133-68.267
				s34.133,28.032,34.133,68.267C170.667,373.035,152.678,401.067,136.533,401.067z M460.8,401.067H167.62
				c0.247-0.316,0.469-0.691,0.717-1.016c0.905-1.178,1.766-2.423,2.611-3.695c0.486-0.734,0.981-1.434,1.451-2.193
				c0.981-1.587,1.903-3.26,2.799-4.975c0.282-0.538,0.589-1.033,0.853-1.579c0.58-1.161,1.101-2.398,1.638-3.61H256
				c4.71,0,8.533-3.814,8.533-8.533s-3.823-8.533-8.533-8.533h-72.405c0.222-0.87,0.41-1.766,0.614-2.654
				c0.256-1.118,0.503-2.244,0.734-3.388c0.367-1.826,0.7-3.686,0.998-5.572c0.179-1.143,0.367-2.287,0.521-3.447
				c0.273-2.074,0.478-4.19,0.666-6.315c0.085-1.024,0.205-2.022,0.273-3.055c0.205-3.183,0.333-6.417,0.333-9.702
				c0-3.285-0.128-6.519-0.333-9.702c-0.068-1.033-0.188-2.031-0.273-3.055c-0.188-2.125-0.393-4.241-0.666-6.315
				c-0.154-1.161-0.341-2.304-0.521-3.447c-0.299-1.886-0.631-3.746-0.998-5.581c-0.23-1.135-0.478-2.261-0.734-3.379
				c-0.205-0.879-0.393-1.784-0.614-2.654h63.872c4.71,0,8.533-3.814,8.533-8.533s-3.823-8.533-8.533-8.533H177.69
				c-0.538-1.212-1.058-2.449-1.638-3.61c-0.265-0.546-0.572-1.041-0.853-1.579c-0.896-1.715-1.818-3.388-2.799-4.975
				c-0.469-0.759-0.964-1.459-1.451-2.193c-0.845-1.271-1.707-2.517-2.611-3.695c-0.247-0.324-0.469-0.7-0.717-1.016H460.8
				c7.603,0,15.599,6.281,21.948,17.067H366.933c-4.71,0-8.533,3.814-8.533,8.533s3.823,8.533,8.533,8.533H486.4
				c1.237,0,2.398-0.29,3.456-0.759c2.441,7.757,4.139,16.623,4.779,26.359h-76.501c-4.71,0-8.533,3.814-8.533,8.533
				c0,4.719,3.823,8.533,8.533,8.533h76.501C492.305,376.934,475.776,401.067,460.8,401.067z"/>
			<path d="M332.8,281.6h-51.2c-4.71,0-8.533,3.814-8.533,8.533s3.823,8.533,8.533,8.533h51.2c4.71,0,8.533-3.814,8.533-8.533
				S337.51,281.6,332.8,281.6z"/>
			<path d="M384,332.8c0-4.719-3.823-8.533-8.533-8.533h-25.6c-4.71,0-8.533,3.814-8.533,8.533c0,4.719,3.823,8.533,8.533,8.533
				h25.6C380.177,341.333,384,337.519,384,332.8z"/>
			<path d="M307.2,332.8c0-4.719-3.823-8.533-8.533-8.533h-85.333c-4.71,0-8.533,3.814-8.533,8.533c0,4.719,3.823,8.533,8.533,8.533
				h85.333C303.377,341.333,307.2,337.519,307.2,332.8z"/>
			<path d="M375.467,375.467c0,4.719,3.823,8.533,8.533,8.533h68.267c4.71,0,8.533-3.814,8.533-8.533s-3.823-8.533-8.533-8.533H384
				C379.29,366.933,375.467,370.748,375.467,375.467z"/>
			<path d="M324.267,366.933H307.2c-4.71,0-8.533,3.814-8.533,8.533S302.49,384,307.2,384h17.067c4.71,0,8.533-3.814,8.533-8.533
				S328.977,366.933,324.267,366.933z"/>
			<path d="M98.091,224.923c4.096-2.33,5.521-7.543,3.191-11.639c-2.227-3.917-7.415-15.07-7.415-34.082
				c0-19.021,5.188-30.165,7.415-34.082c2.33-4.104,0.905-9.31-3.191-11.648c-4.104-2.338-9.31-0.896-11.639,3.191
				c-2.901,5.103-9.651,19.448-9.651,42.539s6.75,37.427,9.651,42.53c1.57,2.756,4.454,4.309,7.424,4.309
				C95.3,226.041,96.759,225.683,98.091,224.923z"/>
		</g>
	</g>
</g>
<g>
</g>
<g>
</g>
<g>
</g>
<g>
</g>
<g>
</g>
<g>
</g>
<g>
</g>
<g>
</g>
<g>
</g>
<g>
</g>
<g>
</g>
<g>
</g>
<g>
</g>
<g>
</g>
<g>
</g>
</svg>
