<?xml version="1.0" encoding="iso-8859-1"?>
<!-- Generator: Adobe Illustrator 19.0.0, SVG Export Plug-In . SVG Version: 6.00 Build 0)  -->
<svg version="1.1" id="Layer_1" xmlns="http://www.w3.org/2000/svg" xmlns:xlink="http://www.w3.org/1999/xlink" x="0px" y="0px"
	 viewBox="0 0 512 512" style="enable-background:new 0 0 512 512;" xml:space="preserve">
<g>
	<g>
		<g>
			<path d="M360.412,8.337c-3.166-5.197-9.097-8.055-15.053-7.185c-27.469,3.789-47.334,16.734-58.308,37.419
				c-4.429-10.948-10.735-20.745-18.551-28.45C262.645,4.352,251.774,0,243.215,0h-72.132c-7.731,0-14.711,3.951-18.654,10.573
				c-3.968,6.665-4.13,14.729-0.418,21.589c9.19,16.981,13.781,42.189,14.421,78.566h-0.017c-4.71,0-8.533,3.814-8.533,8.533v76.8
				c0,4.719,3.823,8.533,8.533,8.533v17.067h59.733c4.71,0,8.533,3.814,8.533,8.533s-3.823,8.533-8.533,8.533h-59.733v17.067h42.667
				c4.71,0,8.533,3.814,8.533,8.533s-3.823,8.533-8.533,8.533h-42.667v8.738c0,11.938,5.922,23.014,15.846,29.619
				c5.726,3.814,8.849,10.436,8.149,17.331l-14.677,156.749c-0.307,7.04,2.21,13.722,7.083,18.816
				c4.881,5.086,11.443,7.885,18.492,7.885h100.881c7.049,0,13.611-2.799,18.492-7.885c4.872-5.094,7.39-11.776,7.057-19.251
				l-14.66-156.365c-0.691-6.844,2.432-13.466,8.158-17.28c9.924-6.605,15.846-17.681,15.846-29.619v-77.005
				c4.71,0,8.533-3.814,8.533-8.533v-76.8c0-4.719-3.823-8.533-8.533-8.533h-0.128c0.171-17.007,2.85-57.071,22.938-85.615
				C363.39,20.147,363.595,13.559,360.412,8.337z M251.748,469.129c-18.825,0-34.133-15.309-34.133-34.133
				s15.309-34.133,34.133-34.133c18.825,0,34.133,15.309,34.133,34.133S270.573,469.129,251.748,469.129z M328.548,187.529h-153.6
				v-59.554c0.051,0,0.094,0.026,0.145,0.026h88.03h65.425V187.529z"/>
			<path d="M251.748,417.929c-9.412,0-17.067,7.654-17.067,17.067s7.654,17.067,17.067,17.067c9.412,0,17.067-7.654,17.067-17.067
				S261.161,417.929,251.748,417.929z"/>
		</g>
	</g>
</g>
<g>
</g>
<g>
</g>
<g>
</g>
<g>
</g>
<g>
</g>
<g>
</g>
<g>
</g>
<g>
</g>
<g>
</g>
<g>
</g>
<g>
</g>
<g>
</g>
<g>
</g>
<g>
</g>
<g>
</g>
</svg>
