<?xml version="1.0" encoding="iso-8859-1"?>
<!-- Generator: Adobe Illustrator 19.0.0, SVG Export Plug-In . SVG Version: 6.00 Build 0)  -->
<svg version="1.1" id="Layer_1" xmlns="http://www.w3.org/2000/svg" xmlns:xlink="http://www.w3.org/1999/xlink" x="0px" y="0px"
	 viewBox="0 0 512 512" style="enable-background:new 0 0 512 512;" xml:space="preserve">
<g>
	<g>
		<path d="M391.593,5.12c-0.853-3.413-4.267-5.12-7.68-5.12h-6.827c-34.133,0-67.413,18.773-82.773,46.08
			c-0.853,1.707-1.707,2.56-2.56,4.267c-5.973-17.92-14.507-31.573-24.747-40.96C260.179,3.413,250.793,0,241.406,0H140.713
			c-7.68,0-14.507,4.267-17.92,10.24c-4.267,6.827-4.267,15.36-0.853,22.187c9.387,17.067,13.653,41.813,14.507,78.507
			c-4.267,0-8.533,4.267-8.533,8.533v76.8c0,5.12,3.413,8.533,8.533,8.533v17.067h59.733c5.12,0,8.533,3.413,8.533,8.533
			s-3.413,8.533-8.533,8.533h-59.733V256h42.667c5.12,0,8.533,3.413,8.533,8.533s-3.413,8.533-8.533,8.533h-42.667
			c0,23.893,18.773,42.667,42.667,42.667c2.56,0,4.267,0.853,5.973,2.56s2.56,3.413,2.56,5.973l-7.68,161.28
			c0,6.827,2.56,13.653,6.827,18.773c5.12,5.12,11.093,7.68,18.773,7.68h100.693c6.827,0,13.653-2.56,18.773-7.68
			c5.12-5.12,7.68-11.947,6.827-18.773l-6.827-161.28c0-2.56,0.853-4.267,2.56-5.973s3.413-2.56,5.973-2.56
			c23.893,0,42.667-18.773,42.667-42.667V204.8c5.12,0,8.533-3.413,8.533-8.533v-76.8c0-5.12-3.413-8.533-8.533-8.533h-3.413
			c-11.093-25.6-2.56-74.24,17.92-96.427C392.446,11.947,393.299,8.533,391.593,5.12z M255.913,460.8
			c-18.773,0-34.133-15.36-34.133-34.133s15.36-34.133,34.133-34.133s34.133,15.36,34.133,34.133S274.686,460.8,255.913,460.8z
			 M366.846,187.733H144.979V128h221.867V187.733z"/>
	</g>
</g>
<g>
	<g>
		<circle cx="255.913" cy="426.667" r="17.067"/>
	</g>
</g>
<g>
</g>
<g>
</g>
<g>
</g>
<g>
</g>
<g>
</g>
<g>
</g>
<g>
</g>
<g>
</g>
<g>
</g>
<g>
</g>
<g>
</g>
<g>
</g>
<g>
</g>
<g>
</g>
<g>
</g>
</svg>
