<?xml version="1.0" encoding="iso-8859-1"?>
<!-- Generator: Adobe Illustrator 19.0.0, SVG Export Plug-In . SVG Version: 6.00 Build 0)  -->
<svg version="1.1" id="Layer_1" xmlns="http://www.w3.org/2000/svg" xmlns:xlink="http://www.w3.org/1999/xlink" x="0px" y="0px"
	 viewBox="0 0 512 512" style="enable-background:new 0 0 512 512;" xml:space="preserve">
<g>
	<g>
		<path d="M452.267,60.51V25.6c0-14.114-11.486-25.6-25.6-25.6H59.733c-14.114,0-25.6,11.486-25.6,25.6v34.133H25.6
			c-4.71,0-8.533,3.823-8.533,8.533c0,4.719,3.823,8.533,8.533,8.533h8.533v34.133c0,11.11,7.151,20.497,17.067,24.03v52.77
			c0,18.825,15.309,34.133,34.133,34.133c6.212,0,12.041-1.664,17.067-4.582V256c0,18.825,15.309,34.133,34.133,34.133
			c18.825,0,34.133-15.309,34.133-34.133v-62.618c3.883,1.852,8.218,2.884,12.8,2.884c16.469,0,29.867-13.397,29.867-29.867v-29.867
			h213.333c14.114,0,25.6-11.477,25.6-25.6V78.012c14.677,3.814,25.6,17.067,25.6,32.922v34.133
			c0,16.384-11.708,31.138-27.179,34.295c-6.647,1.195-115.405,10.786-186.155,16.905c-18.825,0-34.133,15.266-34.133,34.039V281.6
			h-51.2c-2.56,0-4.983,1.152-6.605,3.132c-1.613,1.971-2.27,4.574-1.766,7.083l8.533,42.667c0.802,3.977,4.301,6.852,8.371,6.852
			h8.533v76.8H230.4c4.71,0,8.533,3.823,8.533,8.533c0,4.719-3.823,8.533-8.533,8.533h-34.133v17.067H230.4
			c4.71,0,8.533,3.823,8.533,8.533c0,4.719-3.823,8.533-8.533,8.533h-34.133c0,23.526,19.14,42.667,42.667,42.667
			c23.526,0,42.667-19.14,42.667-42.667v-128h8.533c4.062,0,7.569-2.876,8.363-6.852l8.533-42.667
			c0.503-2.509-0.145-5.111-1.766-7.083c-1.621-1.98-4.036-3.132-6.596-3.132h-51.2v-51.294c0-9.523,7.492-16.973,17.801-17.007
			c30.182-2.594,181.163-15.65,188.774-17.203c23.697-4.847,40.892-26.3,40.892-51.029v-34.133
			C494.933,85.615,476.442,64.589,452.267,60.51z M172.646,37.205c3.012-3.618,8.388-4.105,12.015-1.092
			c3.618,3.012,4.113,8.397,1.092,12.023l-42.667,51.2c-1.69,2.022-4.113,3.063-6.562,3.063c-1.92,0-3.857-0.648-5.453-1.971
			c-3.627-3.021-4.113-8.397-1.092-12.023L172.646,37.205z M70.246,88.405l42.667-51.2c3.012-3.618,8.388-4.105,12.015-1.092
			c3.618,3.012,4.113,8.397,1.092,12.023l-42.667,51.2c-1.69,2.022-4.113,3.063-6.562,3.063c-1.92,0-3.857-0.648-5.453-1.971
			C67.712,97.408,67.226,92.032,70.246,88.405z M196.267,166.4c0,7.066-5.743,12.8-12.8,12.8s-12.8-5.734-12.8-12.8v-12.8
			c0-4.71-3.823-8.533-8.533-8.533s-8.533,3.823-8.533,8.533v12.8v4.267V256c0,9.412-7.654,17.067-17.067,17.067
			c-9.412,0-17.067-7.654-17.067-17.067v-68.267v-25.6c0-4.71-3.823-8.533-8.533-8.533s-8.533,3.823-8.533,8.533v25.6
			c0,9.412-7.654,17.067-17.067,17.067c-9.412,0-17.067-7.654-17.067-17.067v-51.2h128V166.4z M202.82,99.337
			c-1.69,2.022-4.113,3.063-6.562,3.063c-1.92,0-3.857-0.648-5.453-1.971c-3.627-3.021-4.113-8.397-1.092-12.023l42.667-51.2
			c3.012-3.618,8.397-4.105,12.015-1.092c3.618,3.012,4.113,8.397,1.092,12.023L202.82,99.337z M262.554,99.337
			c-1.69,2.022-4.113,3.063-6.562,3.063c-1.92,0-3.857-0.648-5.453-1.971c-3.627-3.021-4.113-8.397-1.092-12.023l42.667-51.2
			c3.012-3.618,8.397-4.105,12.015-1.092c3.618,3.012,4.113,8.397,1.092,12.023L262.554,99.337z M315.725,102.4
			c-1.92,0-3.857-0.648-5.453-1.971c-3.627-3.021-4.113-8.397-1.092-12.023l42.667-51.2c3.012-3.618,8.397-4.105,12.015-1.092
			c3.618,3.012,4.113,8.397,1.092,12.023l-42.667,51.2C320.597,101.359,318.174,102.4,315.725,102.4z M416.154,48.137l-42.667,51.2
			c-1.69,2.022-4.113,3.063-6.562,3.063c-1.92,0-3.857-0.648-5.453-1.971c-3.627-3.021-4.113-8.397-1.092-12.023l42.667-51.2
			c3.012-3.618,8.388-4.105,12.015-1.092C418.68,39.125,419.174,44.51,416.154,48.137z"/>
	</g>
</g>
<g>
</g>
<g>
</g>
<g>
</g>
<g>
</g>
<g>
</g>
<g>
</g>
<g>
</g>
<g>
</g>
<g>
</g>
<g>
</g>
<g>
</g>
<g>
</g>
<g>
</g>
<g>
</g>
<g>
</g>
</svg>
