<?xml version="1.0" encoding="iso-8859-1"?>
<!-- Generator: Adobe Illustrator 19.0.0, SVG Export Plug-In . SVG Version: 6.00 Build 0)  -->
<svg version="1.1" id="Layer_1" xmlns="http://www.w3.org/2000/svg" xmlns:xlink="http://www.w3.org/1999/xlink" x="0px" y="0px"
	 viewBox="0 0 511.147 511.147" style="enable-background:new 0 0 511.147 511.147;" xml:space="preserve">
<g>
	<g>
		<path d="M442.387,5.12c-0.853-3.413-4.267-5.12-7.68-5.12h-6.827c-34.133,0-67.413,18.773-82.773,46.08
			c-0.853,1.707-1.707,2.56-2.56,4.267c-5.973-17.92-14.507-31.573-24.747-40.96C310.974,3.413,301.587,0,292.201,0H89.107
			c-7.68,0-14.507,4.267-17.92,10.24c-4.267,6.827-4.267,15.36-0.853,22.187c9.387,17.067,13.653,41.813,14.507,78.507
			c-4.267,0-8.533,4.267-8.533,8.533v76.8c0,5.12,3.413,8.533,8.533,8.533v17.067h59.733c5.12,0,8.533,3.413,8.533,8.533
			s-3.413,8.533-8.533,8.533H84.841V256h42.667c5.12,0,8.533,3.413,8.533,8.533s-3.413,8.533-8.533,8.533H84.841
			c0,23.893,18.773,42.667,42.667,42.667h23.893c9.387,0,17.92,3.413,24.747,10.24s10.24,15.36,9.387,24.747l-5.973,133.973
			c0,6.827,2.56,13.653,6.827,18.773c5.12,5.12,11.093,7.68,18.773,7.68h100.693c6.827,0,13.653-2.56,18.773-7.68
			c5.12-5.12,7.68-11.947,6.827-18.773l-5.973-133.973c0-9.387,2.56-17.92,9.387-24.747c6.827-6.827,15.36-10.24,24.747-10.24
			h23.893c23.893,0,42.667-18.773,42.667-42.667V204.8c5.12,0,8.533-3.413,8.533-8.533v-76.8c0-5.12-3.413-8.533-8.533-8.533h-3.413
			c-11.093-25.6-2.56-74.24,17.92-96.427C443.241,11.947,444.094,8.533,442.387,5.12z M255.507,460.8
			c-18.773,0-34.133-15.36-34.133-34.133s15.36-34.133,34.133-34.133c18.773,0,34.133,15.36,34.133,34.133
			S274.281,460.8,255.507,460.8z M417.641,187.733H93.374V128h324.267V187.733z"/>
	</g>
</g>
<g>
	<g>
		<circle cx="255.507" cy="426.667" r="17.067"/>
	</g>
</g>
<g>
</g>
<g>
</g>
<g>
</g>
<g>
</g>
<g>
</g>
<g>
</g>
<g>
</g>
<g>
</g>
<g>
</g>
<g>
</g>
<g>
</g>
<g>
</g>
<g>
</g>
<g>
</g>
<g>
</g>
</svg>
