<?xml version="1.0" encoding="iso-8859-1"?>
<!-- Generator: Adobe Illustrator 19.0.0, SVG Export Plug-In . SVG Version: 6.00 Build 0)  -->
<svg version="1.1" id="Layer_1" xmlns="http://www.w3.org/2000/svg" xmlns:xlink="http://www.w3.org/1999/xlink" x="0px" y="0px"
	 viewBox="0 0 512 512" style="enable-background:new 0 0 512 512;" xml:space="preserve">
<g>
	<g>
		<g>
			<path d="M341.333,110.933V25.6c0-14.114-11.486-25.6-25.6-25.6h-17.067h-85.333h-17.067c-14.114,0-25.6,11.486-25.6,25.6v85.333
				c-4.719,0-8.533,3.814-8.533,8.533v76.8c0,4.719,3.814,8.533,8.533,8.533v17.067H230.4c4.719,0,8.533,3.814,8.533,8.533
				s-3.814,8.533-8.533,8.533h-59.733V256h42.667c4.719,0,8.533,3.814,8.533,8.533s-3.814,8.533-8.533,8.533h-42.231
				c0.836,8.243,2.884,16.119,6.059,23.117c8.371,18.5,22.391,49.459,19.208,69.999c-5.103,32.981-7.731,68.036-7.774,69.018
				c0,45.218,27.716,76.8,67.405,76.8s67.405-31.582,67.405-76.8c0-0.205-0.009-0.418-0.026-0.631
				c-0.017-0.35-2.645-35.405-7.748-68.386c-3.183-20.54,10.837-51.499,19.209-69.999c4.25-9.387,6.494-20.335,6.494-31.65V204.8
				c4.719,0,8.533-3.814,8.533-8.533v-76.8C349.867,114.748,346.052,110.933,341.333,110.933z M273.067,92.407
				c2.662,0.939,5.538,1.459,8.533,1.459c14.114,0,25.6-11.486,25.6-25.6v-51.2h8.533c4.71,0,8.533,3.823,8.533,8.533v85.333h-51.2
				V92.407z M187.733,25.6c0-4.71,3.823-8.533,8.533-8.533h8.533v93.867h-17.067V25.6z M256,469.333
				c-18.825,0-34.133-15.309-34.133-34.133c0-18.825,15.309-34.133,34.133-34.133c18.825,0,34.133,15.309,34.133,34.133
				C290.133,454.025,274.825,469.333,256,469.333z M332.8,187.733H179.2V128h25.6v8.533c0,18.825,15.309,34.133,34.133,34.133
				c18.825,0,34.133-15.309,34.133-34.133V128H332.8V187.733z"/>
			<path d="M256,418.133c-9.412,0-17.067,7.654-17.067,17.067c0,9.412,7.654,17.067,17.067,17.067
				c9.412,0,17.067-7.654,17.067-17.067C273.067,425.788,265.412,418.133,256,418.133z"/>
		</g>
	</g>
</g>
<g>
</g>
<g>
</g>
<g>
</g>
<g>
</g>
<g>
</g>
<g>
</g>
<g>
</g>
<g>
</g>
<g>
</g>
<g>
</g>
<g>
</g>
<g>
</g>
<g>
</g>
<g>
</g>
<g>
</g>
</svg>
