<?xml version="1.0" encoding="iso-8859-1"?>
<!-- Generator: Adobe Illustrator 19.0.0, SVG Export Plug-In . SVG Version: 6.00 Build 0)  -->
<svg version="1.1" id="Layer_1" xmlns="http://www.w3.org/2000/svg" xmlns:xlink="http://www.w3.org/1999/xlink" x="0px" y="0px"
	 viewBox="0 0 512 512" style="enable-background:new 0 0 512 512;" xml:space="preserve">
<g>
	<g>
		<path d="M494.933,145.067V25.6c0-14.507-11.093-25.6-25.6-25.6h-17.067v119.467c0,5.12-3.413,8.533-8.533,8.533
			s-8.533-3.413-8.533-8.533V0h-17.067v93.867c0,5.12-3.413,8.533-8.533,8.533s-8.533-3.413-8.533-8.533V0H384v119.467
			c0,5.12-3.413,8.533-8.533,8.533s-8.533-3.413-8.533-8.533V0h-17.067v93.867c0,5.12-3.413,8.533-8.533,8.533
			s-8.533-3.413-8.533-8.533V0h-17.067v119.467c0,5.12-3.413,8.533-8.533,8.533s-8.533-3.413-8.533-8.533V0H281.6v93.867
			c0,5.12-3.413,8.533-8.533,8.533s-8.533-3.413-8.533-8.533V0h-17.067v119.467c0,5.12-3.413,8.533-8.533,8.533
			c-5.12,0-8.533-3.413-8.533-8.533V0h-17.067v93.867c0,5.12-3.413,8.533-8.533,8.533s-8.533-3.413-8.533-8.533V0H179.2v119.467
			c0,5.12-3.413,8.533-8.533,8.533c-5.12,0-8.533-3.413-8.533-8.533V0h-17.067v93.867c0,5.12-3.413,8.533-8.533,8.533
			S128,98.987,128,93.867V0h-17.067v119.467c0,5.12-3.413,8.533-8.533,8.533s-8.533-3.413-8.533-8.533V0H76.8v93.867
			c0,5.12-3.413,8.533-8.533,8.533s-8.533-3.413-8.533-8.533V0H42.667c-13.653,0-25.6,11.093-25.6,25.6v119.467
			c-5.12,0-8.533,3.413-8.533,8.533v76.8c0,5.12,3.413,8.533,8.533,8.533V256H76.8c5.12,0,8.533,3.413,8.533,8.533
			s-3.413,8.533-8.533,8.533H17.067c0,5.973,0.853,11.947,2.56,17.067h40.107c5.12,0,8.533,3.413,8.533,8.533
			s-3.413,8.533-8.533,8.533h-33.28c11.947,20.48,34.133,34.133,58.88,34.133H194.56c-5.973,34.987-6.827,69.973-6.827,101.547
			c0,37.547,29.867,69.12,66.56,69.12c0,0,0.853,0,1.707,0h1.707c36.693-0.853,66.56-31.573,66.56-69.12
			c0-30.72-0.853-66.56-6.827-101.547h109.227c37.547,0,68.267-30.72,68.267-68.267v-34.133c5.12,0,8.533-3.413,8.533-8.533v-76.8
			C503.467,149.333,500.053,145.067,494.933,145.067z M256,460.8c-18.773,0-34.133-15.36-34.133-34.133s15.36-34.133,34.133-34.133
			c18.773,0,34.133,15.36,34.133,34.133S274.773,460.8,256,460.8z M486.4,221.867H25.6v-59.733h460.8V221.867z"/>
	</g>
</g>
<g>
	<g>
		<circle cx="256" cy="426.667" r="17.067"/>
	</g>
</g>
<g>
</g>
<g>
</g>
<g>
</g>
<g>
</g>
<g>
</g>
<g>
</g>
<g>
</g>
<g>
</g>
<g>
</g>
<g>
</g>
<g>
</g>
<g>
</g>
<g>
</g>
<g>
</g>
<g>
</g>
</svg>
