<?xml version="1.0" encoding="iso-8859-1"?>
<!-- Generator: Adobe Illustrator 19.0.0, SVG Export Plug-In . SVG Version: 6.00 Build 0)  -->
<svg version="1.1" id="Layer_1" xmlns="http://www.w3.org/2000/svg" xmlns:xlink="http://www.w3.org/1999/xlink" x="0px" y="0px"
	 viewBox="0 0 512 512" style="enable-background:new 0 0 512 512;" xml:space="preserve">
<g>
	<g>
		<path d="M340.907,145.067V25.6c0-14.507-11.093-25.6-25.6-25.6H298.24v93.867c0,5.12-3.413,8.533-8.533,8.533
			c-5.12,0-8.533-3.413-8.533-8.533V0h-17.067v119.467c0,5.12-3.413,8.533-8.533,8.533s-8.533-3.413-8.533-8.533V0h-17.067v93.867
			c0,5.12-3.413,8.533-8.533,8.533c-5.12,0-8.533-3.413-8.533-8.533V0H195.84c-13.653,0-25.6,11.093-25.6,25.6v119.467
			c-5.12,0-8.533,3.413-8.533,8.533v76.8c0,5.12,3.413,8.533,8.533,8.533V256h59.733c5.12,0,8.533,3.413,8.533,8.533
			s-3.413,8.533-8.533,8.533H170.24c0,15.36,10.24,28.16,23.893,32.427c-5.12,38.4-6.827,101.547-6.827,137.387
			c0,37.547,29.867,69.12,66.56,69.12c0,0,0.853,0,1.707,0h1.707c36.693-0.853,66.56-31.573,66.56-69.12
			c0-35.84-1.707-98.987-6.827-136.533c13.653-4.267,24.747-17.067,24.747-32.427v-34.133c5.12,0,8.533-3.413,8.533-8.533v-76.8
			C349.44,149.333,346.027,145.067,340.907,145.067z M255.573,460.8c-18.773,0-34.133-15.36-34.133-34.133
			s15.36-34.133,34.133-34.133s34.133,15.36,34.133,34.133S274.347,460.8,255.573,460.8z M332.373,221.867h-153.6v-59.733h153.6
			V221.867z"/>
	</g>
</g>
<g>
	<g>
		<circle cx="255.573" cy="426.667" r="17.067"/>
	</g>
</g>
<g>
</g>
<g>
</g>
<g>
</g>
<g>
</g>
<g>
</g>
<g>
</g>
<g>
</g>
<g>
</g>
<g>
</g>
<g>
</g>
<g>
</g>
<g>
</g>
<g>
</g>
<g>
</g>
<g>
</g>
</svg>
