<?xml version="1.0" encoding="iso-8859-1"?>
<!-- Generator: Adobe Illustrator 19.0.0, SVG Export Plug-In . SVG Version: 6.00 Build 0)  -->
<svg version="1.1" id="Layer_1" xmlns="http://www.w3.org/2000/svg" xmlns:xlink="http://www.w3.org/1999/xlink" x="0px" y="0px"
	 viewBox="0 0 503.607 503.607" style="enable-background:new 0 0 503.607 503.607;" xml:space="preserve">
<g>
	<g>
		<path d="M302.164,143.948c1.679,0,3.357-0.839,5.036-1.679l40.289-31.895h147.725c5.036,0,8.393-3.357,8.393-8.393V68.407
			c0-5.036-3.357-8.393-8.393-8.393H327.344c-1.679,0-3.357,0.839-5.036,1.679l-39.449,31.895h-5.875v-8.393
			c0-14.269-10.911-25.18-25.18-25.18c-14.269,0-25.18,10.911-25.18,25.18v8.393h-8.393c-5.036,0-8.393,3.357-8.393,8.393v33.574
			v25.18h-16.787c-10.911,0-20.144,6.715-23.502,16.787H25.18c-14.269,0-25.18,10.911-25.18,25.18v83.934
			c0,14.269,10.911,25.18,25.18,25.18h16.787v-41.967c0-5.036,3.357-8.393,8.393-8.393h25.18v-25.18
			c0-5.036,3.357-8.393,8.393-8.393h33.574c5.036,0,8.393,3.357,8.393,8.393s-3.357,8.393-8.393,8.393h-25.18v25.18
			c0,5.036-3.357,8.393-8.393,8.393h-25.18v33.574h110.793c3.357,10.072,12.59,16.787,23.502,16.787h117.508
			c10.911,0,20.144-6.715,23.502-16.787h144.367c14.269,0,25.18-10.911,25.18-25.18v-58.754h-25.18
			c-5.036,0-8.393-3.357-8.393-8.393c0-5.036,3.357-8.393,8.393-8.393h25.18v-8.393c0-14.269-10.911-25.18-25.18-25.18H334.059
			c-3.357-10.072-12.59-16.787-23.502-16.787h-16.787v-16.787H302.164z M444.852,211.095c5.036,0,8.393,3.357,8.393,8.393
			c0,5.036-3.357,8.393-8.393,8.393c-5.036,0-8.393-3.357-8.393-8.393C436.459,215.292,440.656,211.095,444.852,211.095z
			 M335.738,211.095h75.541c5.036,0,8.393,3.357,8.393,8.393c0,5.036-3.357,8.393-8.393,8.393h-75.541V211.095z M243.41,85.193
			c0-5.036,3.357-8.393,8.393-8.393c5.036,0,8.393,3.357,8.393,8.393v8.393H243.41V85.193z M226.623,143.948h50.361v16.787h-50.361
			V143.948z M310.557,177.521c5.036,0,8.393,3.357,8.393,8.393v33.574v83.934c0,5.036-3.357,8.393-8.393,8.393H193.049
			c-5.036,0-8.393-3.357-8.393-8.393V185.915c0-5.036,3.357-8.393,8.393-8.393h25.18h67.148H310.557z"/>
	</g>
</g>
<g>
	<g>
		<path d="M81.416,366.374l-24.341-34.413c-3.357-4.197-10.911-4.197-13.43,0l-24.341,34.413
			c-15.948,21.823-15.948,47.843,0.839,64.63c8.393,8.393,19.305,12.59,30.216,12.59c11.751,0,22.662-4.197,30.216-12.59
			C92.328,419.252,101.561,399.108,81.416,366.374z"/>
	</g>
</g>
<g>
</g>
<g>
</g>
<g>
</g>
<g>
</g>
<g>
</g>
<g>
</g>
<g>
</g>
<g>
</g>
<g>
</g>
<g>
</g>
<g>
</g>
<g>
</g>
<g>
</g>
<g>
</g>
<g>
</g>
</svg>
