<?xml version="1.0" encoding="iso-8859-1"?>
<!-- Generator: Adobe Illustrator 19.0.0, SVG Export Plug-In . SVG Version: 6.00 Build 0)  -->
<svg version="1.1" id="Layer_1" xmlns="http://www.w3.org/2000/svg" xmlns:xlink="http://www.w3.org/1999/xlink" x="0px" y="0px"
	 viewBox="0 0 503.607 503.607" style="enable-background:new 0 0 503.607 503.607;" xml:space="preserve">
<g>
	<g>
		<path d="M478.426,273.785h25.18v-8.393c0-14.269-10.911-25.18-25.18-25.18H334.059c-3.357-10.072-12.59-16.787-23.502-16.787
			h-33.574v-33.574h109.115c5.036,0,8.393-3.357,8.393-8.393v-42.807c0-8.393-4.197-15.948-10.911-20.984
			c-5.875-5.036-15.108-6.715-22.662-4.197l-84.774,26.02h-47.843l-85.613-26.02c-8.393-2.518-16.787-0.839-23.502,4.197
			c-5.875,5.036-10.072,12.59-10.072,20.984v42.807c0,5.036,3.357,8.393,8.393,8.393h109.115v33.574h-33.574
			c-10.911,0-20.144,6.715-23.502,16.787H25.18c-14.269,0-25.18,10.911-25.18,25.18v8.393h41.967c5.036,0,8.393,3.357,8.393,8.393
			c0,5.036-3.357,8.393-8.393,8.393H0v58.754c0,14.269,10.911,25.18,25.18,25.18h144.367c3.357,10.072,12.59,16.787,23.502,16.787
			h117.508c10.911,0,20.144-6.715,23.502-16.787h144.367c14.269,0,25.18-10.911,25.18-25.18v-58.754h-25.18
			c-5.036,0-8.393-3.357-8.393-8.393C470.033,277.982,474.229,273.785,478.426,273.785z M75.541,290.572
			c-5.036,0-8.393-3.357-8.393-8.393c0-5.036,3.357-8.393,8.393-8.393s8.393,3.357,8.393,8.393
			C83.934,287.214,80.577,290.572,75.541,290.572z M167.869,290.572h-58.754c-5.036,0-8.393-3.357-8.393-8.393
			c0-5.036,3.357-8.393,8.393-8.393h58.754V290.572z M235.016,156.277h33.574v16.787h-33.574V156.277z M260.197,189.851v33.574
			H243.41v-33.574H260.197z M318.951,282.178v83.934c0,5.036-3.357,8.393-8.393,8.393H193.049c-5.036,0-8.393-3.357-8.393-8.393
			v-83.934v-33.574c0-5.036,3.357-8.393,8.393-8.393h41.967h33.574h41.967c5.036,0,8.393,3.357,8.393,8.393V282.178z
			 M411.279,290.572h-75.541v-16.787h75.541c5.036,0,8.393,3.357,8.393,8.393C419.672,287.214,416.315,290.572,411.279,290.572z
			 M444.852,290.572c-5.036,0-8.393-3.357-8.393-8.393c0-5.036,3.357-8.393,8.393-8.393c5.036,0,8.393,3.357,8.393,8.393
			C453.246,287.214,449.888,290.572,444.852,290.572z"/>
	</g>
</g>
<g>
</g>
<g>
</g>
<g>
</g>
<g>
</g>
<g>
</g>
<g>
</g>
<g>
</g>
<g>
</g>
<g>
</g>
<g>
</g>
<g>
</g>
<g>
</g>
<g>
</g>
<g>
</g>
<g>
</g>
</svg>
