<?xml version="1.0" encoding="iso-8859-1"?>
<!-- Generator: Adobe Illustrator 19.0.0, SVG Export Plug-In . SVG Version: 6.00 Build 0)  -->
<svg version="1.1" id="Layer_1" xmlns="http://www.w3.org/2000/svg" xmlns:xlink="http://www.w3.org/1999/xlink" x="0px" y="0px"
	 viewBox="0 0 503.607 503.607" style="enable-background:new 0 0 503.607 503.607;" xml:space="preserve">
<g>
	<g>
		<path d="M486.82,75.541h-33.574c-9.258,0-16.787,7.529-16.787,16.787v8.393H318.951V83.934h8.393
			c9.258,0,16.787-7.529,16.787-16.787V33.574c0-9.258-7.529-16.787-16.787-16.787H176.262c-9.258,0-16.787,7.529-16.787,16.787
			v33.574c0,9.258,7.529,16.787,16.787,16.787h8.393v16.787H67.148v-8.393c0-9.258-7.529-16.787-16.787-16.787H16.787
			C7.529,75.541,0,83.07,0,92.328V243.41c0,9.258,7.529,16.787,16.787,16.787h33.574c9.258,0,16.787-7.529,16.787-16.787v-8.393
			h115.905c-11.734,53.265-59.938,92.328-115.905,92.328v-8.393c0-9.258-7.529-16.787-16.787-16.787H16.787
			C7.529,302.164,0,309.693,0,318.951v151.082c0,9.258,7.529,16.787,16.787,16.787h33.574c9.258,0,16.787-7.529,16.787-16.787
			v-8.393c129.57,0,238.374-98.917,251.123-226.631l118.188,0.008v8.393c0,9.258,7.529,16.787,16.787,16.787h33.574
			c9.258,0,16.787-7.529,16.787-16.787V92.328C503.607,83.07,496.078,75.541,486.82,75.541z M50.377,243.41H16.787V92.328h33.574
			v16.779v0.008v117.508c0,0.025,0.017,0.05,0.017,0.076V243.41z M50.377,470.033H16.787V318.951h33.574v16.778v0.008v83.934
			c0-0.017,0.008-0.034,0.008-0.05v0.101c0-0.017-0.008-0.034-0.008-0.05v33.574c0,0.025,0.017,0.05,0.017,0.076V470.033z
			 M102.056,425.279c-11.474,1.855-23.216,2.787-34.908,2.787v-16.787c10.794,0,21.638-0.873,32.239-2.577
			c4.583-0.722,8.88,2.384,9.619,6.95C109.744,420.226,106.63,424.54,102.056,425.279z M176.262,67.164V33.574h151.082v33.574
			h-16.779h-0.008H193.049c-0.025,0-0.05,0.017-0.076,0.017H176.262z M215.552,369.706c-15.645,14.529-33.263,26.674-52.375,36.075
			c-1.183,0.579-2.451,0.856-3.693,0.856c-3.097,0-6.085-1.721-7.537-4.684c-2.048-4.155-0.344-9.191,3.827-11.239
			c17.635-8.679,33.91-19.884,48.346-33.305c3.391-3.139,8.696-2.963,11.86,0.437C219.136,361.237,218.943,366.55,215.552,369.706z
			 M270.756,288.407c-8.603,22.192-20.732,42.748-36.05,61.104c-1.654,1.989-4.046,3.013-6.455,3.013
			c-1.889,0-3.802-0.638-5.363-1.947c-3.559-2.971-4.046-8.268-1.066-11.826c14.143-16.946,25.34-35.924,33.28-56.404
			c1.67-4.331,6.53-6.471,10.861-4.801C270.277,279.225,272.426,284.093,270.756,288.407z M360.918,201.443h-75.541v8.393
			c0,8.763-0.52,17.568-1.561,26.179c-0.512,4.264-4.138,7.395-8.326,7.395c-0.327,0-0.671-0.017-1.007-0.059
			c-4.608-0.554-7.881-4.734-7.336-9.333c0.957-7.949,1.444-16.09,1.444-24.182v-16.787c0-4.642,3.752-8.393,8.393-8.393h83.934
			c4.642,0,8.393,3.752,8.393,8.393C369.311,197.691,365.56,201.443,360.918,201.443z M394.492,201.443
			c-4.633,0-8.393-3.76-8.393-8.393s3.76-8.393,8.393-8.393c4.633,0,8.393,3.76,8.393,8.393S399.125,201.443,394.492,201.443z
			 M436.459,201.443h-8.393c-4.642,0-8.393-3.752-8.393-8.393c0-4.642,3.752-8.393,8.393-8.393h8.393V201.443z M486.82,243.41
			h-33.574v-16.779v-0.008v-33.574c0,0.008-0.008,0.017-0.008,0.025v-0.05c0,0.008,0.008,0.017,0.008,0.025v-83.934
			c0-0.025-0.017-0.05-0.017-0.076V92.328h0.017h33.574V243.41z"/>
	</g>
</g>
<g>
</g>
<g>
</g>
<g>
</g>
<g>
</g>
<g>
</g>
<g>
</g>
<g>
</g>
<g>
</g>
<g>
</g>
<g>
</g>
<g>
</g>
<g>
</g>
<g>
</g>
<g>
</g>
<g>
</g>
</svg>
