<?xml version="1.0" encoding="iso-8859-1"?>
<!-- Generator: Adobe Illustrator 19.0.0, SVG Export Plug-In . SVG Version: 6.00 Build 0)  -->
<svg version="1.1" id="Layer_1" xmlns="http://www.w3.org/2000/svg" xmlns:xlink="http://www.w3.org/1999/xlink" x="0px" y="0px"
	 viewBox="0 0 503.607 503.607" style="enable-background:new 0 0 503.607 503.607;" xml:space="preserve">
<g>
	<g>
		<path d="M302.164,201.443c1.679,0,3.357-0.839,5.036-1.679l40.289-31.895h147.725c5.036,0,8.393-3.357,8.393-8.393v-33.574
			c0-5.036-3.357-8.393-8.393-8.393H327.344c-1.679,0-3.357,0.839-5.036,1.679l-39.449,31.895h-5.875v-8.393
			c0-14.269-10.911-25.18-25.18-25.18c-14.269,0-25.18,10.911-25.18,25.18v8.393h-8.393c-5.036,0-8.393,3.357-8.393,8.393v33.574
			v25.18h-16.787c-10.911,0-20.144,6.715-23.502,16.787H25.18c-14.269,0-25.18,10.911-25.18,25.18v8.393h41.967
			c5.036,0,8.393,3.357,8.393,8.393c0,5.036-3.357,8.393-8.393,8.393H0v58.754c0,14.269,10.911,25.18,25.18,25.18h144.367
			c3.357,10.072,12.59,16.787,23.502,16.787h117.508c10.911,0,20.144-6.715,23.502-16.787h144.367
			c14.269,0,25.18-10.911,25.18-25.18v-58.754h-25.18c-5.036,0-8.393-3.357-8.393-8.393c0-5.036,3.357-8.393,8.393-8.393h25.18
			v-8.393c0-14.269-10.911-25.18-25.18-25.18H334.059c-3.357-10.072-12.59-16.787-23.502-16.787h-16.787v-16.787H302.164z
			 M75.541,285.377c-5.036,0-8.393-3.357-8.393-8.393c0-5.036,3.357-8.393,8.393-8.393s8.393,3.357,8.393,8.393
			C83.934,282.02,80.577,285.377,75.541,285.377z M167.869,285.377h-58.754c-5.036,0-8.393-3.357-8.393-8.393
			c0-5.036,3.357-8.393,8.393-8.393h58.754V285.377z M444.852,268.59c5.036,0,8.393,3.357,8.393,8.393
			c0,5.036-3.357,8.393-8.393,8.393c-5.036,0-8.393-3.357-8.393-8.393C436.459,272.787,440.656,268.59,444.852,268.59z
			 M335.738,268.59h75.541c5.036,0,8.393,3.357,8.393,8.393c0,5.036-3.357,8.393-8.393,8.393h-75.541V268.59z M243.41,142.689
			c0-5.036,3.357-8.393,8.393-8.393c5.036,0,8.393,3.357,8.393,8.393v8.393H243.41V142.689z M226.623,201.443h50.361v16.787h-50.361
			V201.443z M310.557,235.016c5.036,0,8.393,3.357,8.393,8.393v33.574v83.934c0,5.036-3.357,8.393-8.393,8.393H193.049
			c-5.036,0-8.393-3.357-8.393-8.393v-83.934V243.41c0-5.036,3.357-8.393,8.393-8.393h25.18h67.148H310.557z"/>
	</g>
</g>
<g>
</g>
<g>
</g>
<g>
</g>
<g>
</g>
<g>
</g>
<g>
</g>
<g>
</g>
<g>
</g>
<g>
</g>
<g>
</g>
<g>
</g>
<g>
</g>
<g>
</g>
<g>
</g>
<g>
</g>
</svg>
