<?xml version="1.0" encoding="iso-8859-1"?>
<!-- Generator: Adobe Illustrator 19.0.0, SVG Export Plug-In . SVG Version: 6.00 Build 0)  -->
<svg version="1.1" id="Layer_1" xmlns="http://www.w3.org/2000/svg" xmlns:xlink="http://www.w3.org/1999/xlink" x="0px" y="0px"
	 viewBox="0 0 503.607 503.607" style="enable-background:new 0 0 503.607 503.607;" xml:space="preserve">
<g>
	<g>
		<g>
			<path d="M486.82,159.475h-33.574c-9.258,0-16.787,7.529-16.787,16.787v8.393h-75.348c-24.433,0-47.927-5.321-67.92-15.385
				c-25.852-13.001-56.916-13.001-82.776,0c-19.993,10.064-43.486,15.385-67.92,15.385H67.148v-8.393
				c0-9.258-7.529-16.787-16.787-16.787H16.787C7.529,159.475,0,167.004,0,176.262v151.082c0,9.258,7.529,16.787,16.787,16.787
				h33.574c9.258,0,16.787-7.529,16.787-16.787v-8.393h75.348c24.433,0,47.927,5.321,67.92,15.385
				c12.926,6.497,26.851,9.795,41.388,9.795c14.537,0,28.462-3.299,41.388-9.795c19.993-10.064,43.486-15.385,67.92-15.385h75.348
				v8.393c0,9.258,7.529,16.787,16.787,16.787h33.574c9.258,0,16.787-7.529,16.787-16.787V176.262
				C503.607,167.004,496.078,159.475,486.82,159.475z M50.369,327.344H16.787V176.262h33.574v16.779v0.008v117.508
				c0,0.017,0.008,0.034,0.008,0.05V327.344z M160.172,234.286c-5.783,0.487-11.734,0.73-17.677,0.73H92.328
				c-4.633,0-8.393-3.752-8.393-8.393c0-4.642,3.76-8.393,8.393-8.393h50.168c5.481,0,10.962-0.218,16.283-0.663
				c4.65-0.478,8.679,3.038,9.065,7.663C168.221,229.854,164.788,233.908,160.172,234.286z M318.649,222.376
				c-1.158,4.49-5.741,7.227-10.223,6.026c-13.32-3.433-26.062-8.2-37.871-14.143c-11.658-5.867-25.843-5.867-37.502,0
				c-11.843,5.951-24.593,10.718-37.905,14.151c-0.705,0.185-1.41,0.269-2.098,0.269c-3.743,0-7.151-2.51-8.125-6.295
				c-1.158-4.49,1.536-9.065,6.026-10.223c12.162-3.139,23.787-7.479,34.556-12.901c16.376-8.242,36.209-8.242,52.602,0
				c10.735,5.414,22.352,9.745,34.514,12.892C317.104,213.311,319.807,217.894,318.649,222.376z M377.705,235.016h-16.594
				c-5.951,0-11.893-0.243-17.677-0.73c-4.625-0.378-8.058-4.432-7.672-9.057c0.378-4.625,4.415-8.15,9.065-7.663
				c5.321,0.445,10.802,0.663,16.283,0.663h16.594c4.633,0,8.393,3.752,8.393,8.393
				C386.098,231.264,382.338,235.016,377.705,235.016z M436.459,235.016h-33.574c-4.633,0-8.393-3.752-8.393-8.393
				c0-4.642,3.76-8.393,8.393-8.393h33.574V235.016z M453.246,327.344v-16.787v-83.934v-33.574v-16.787h33.574l0.008,151.082
				H453.246z"/>
			<path d="M251.803,134.295c4.633,0,8.393-3.752,8.393-8.393V92.328c0-4.642-3.76-8.393-8.393-8.393s-8.393,3.752-8.393,8.393
				v33.574C243.41,130.543,247.17,134.295,251.803,134.295z"/>
			<path d="M251.803,369.311c-4.633,0-8.393,3.752-8.393,8.393v33.574c0,4.642,3.76,8.393,8.393,8.393s8.393-3.752,8.393-8.393
				v-33.574C260.197,373.063,256.436,369.311,251.803,369.311z"/>
			<path d="M344.131,167.869c2.149,0,4.297-0.823,5.934-2.459l24.635-24.635c3.282-3.273,3.282-8.586,0-11.868
				c-3.282-3.273-8.587-3.273-11.868,0l-24.635,24.635c-3.282,3.282-3.282,8.586,0,11.868
				C339.834,167.046,341.982,167.869,344.131,167.869z"/>
			<path d="M153.541,338.196l-23.745,23.737c-3.273,3.282-3.273,8.595,0,11.868c1.645,1.637,3.794,2.459,5.934,2.459
				c2.149,0,4.297-0.823,5.934-2.459l23.745-23.737c3.282-3.282,3.282-8.586,0-11.868
				C162.128,334.914,156.823,334.914,153.541,338.196z"/>
			<path d="M154.434,165.41c1.637,1.637,3.785,2.459,5.934,2.459s4.297-0.823,5.934-2.459c3.282-3.282,3.282-8.586,0-11.868
				l-24.635-24.635c-3.282-3.273-8.586-3.273-11.868,0c-3.282,3.282-3.282,8.595,0,11.868L154.434,165.41z"/>
			<path d="M350.959,338.196c-3.282-3.282-8.586-3.282-11.868,0c-3.282,3.282-3.282,8.586,0,11.868l23.745,23.737
				c1.637,1.637,3.785,2.459,5.934,2.459c2.14,0,4.289-0.823,5.934-2.459c3.273-3.273,3.273-8.586,0-11.868L350.959,338.196z"/>
		</g>
	</g>
</g>
<g>
</g>
<g>
</g>
<g>
</g>
<g>
</g>
<g>
</g>
<g>
</g>
<g>
</g>
<g>
</g>
<g>
</g>
<g>
</g>
<g>
</g>
<g>
</g>
<g>
</g>
<g>
</g>
<g>
</g>
</svg>
