<?xml version="1.0" encoding="iso-8859-1"?>
<!-- Generator: Adobe Illustrator 19.0.0, SVG Export Plug-In . SVG Version: 6.00 Build 0)  -->
<svg version="1.1" id="Layer_1" xmlns="http://www.w3.org/2000/svg" xmlns:xlink="http://www.w3.org/1999/xlink" x="0px" y="0px"
	 viewBox="0 0 511.998 511.998" style="enable-background:new 0 0 511.998 511.998;" xml:space="preserve">
<g>
	<g>
		<g>
			<path d="M131.149,441.726c-2.697,10.308-3.721,19.567-3.123,28.322c1.604,23.475,13.542,38.724,32.742,41.847
				c0.452,0.068,0.904,0.102,1.365,0.102h17.997c13.602,0,24.883-10.206,26.231-23.731l14.754-147.516l-60.203-12.894
				L131.149,441.726z"/>
			<path d="M341.341,230.118c5.291-7.1,8.525-15.804,8.525-25.318c0-13.884-6.767-26.121-17.067-33.911v-32.87
				c7.842-20.574,8.533-35.499,8.533-52.685c0-3.132-0.196-6.315-0.563-9.515c-0.009-0.026,0-0.06-0.009-0.085
				c0-0.017-0.017-0.034-0.017-0.06c-0.009-0.068-0.026-0.137-0.034-0.213c-0.009-0.017,0.009-0.034,0-0.06
				c-0.35-3.055-0.887-6.059-1.553-9.011v-0.009c0,0,0,0,0-0.008C330.273,27.29,296.08,0,255.999,0
				c-40.081,0-74.274,27.29-83.157,66.372v0.008v0.009c-0.666,2.953-1.203,5.956-1.553,9.011c-0.008,0.026,0.009,0.043,0,0.06
				c-0.008,0.077-0.026,0.145-0.034,0.213c0,0.026-0.017,0.043-0.017,0.06c0,0.026,0,0.06-0.009,0.085
				c-0.367,3.2-0.563,6.383-0.563,9.515c0,17.186,0.691,32.111,8.533,52.685v32.87c-10.3,7.791-17.067,20.028-17.067,33.911
				c0,9.515,3.234,18.219,8.525,25.318l-7.347,80.802l61.022,13.073l4.855-19.448l26.812-13.406l26.812,13.406l5.291,21.188
				l60.749-13.022L341.341,230.118z M264.533,17.707c24.687,3.055,45.542,19.055,54.733,42.027h-54.733V17.707z M315.733,145.067
				v17.929c-0.222-0.043-0.461-0.026-0.674-0.068c-2.253-0.435-4.54-0.631-6.835-0.691c-0.35-0.009-0.674-0.102-1.024-0.102
				c-0.256,0-0.495,0.068-0.751,0.077c-2.458,0.043-4.898,0.282-7.296,0.742c-0.512,0.094-0.998,0.23-1.502,0.35
				c-0.947,0.213-1.903,0.384-2.825,0.666l-3.149-18.901H315.733z M290.132,119.467c-9.429,0-17.067-7.637-17.067-17.067
				c0-9.421,7.637-17.067,17.067-17.067c9.429,0,17.067,7.646,17.067,17.067C307.199,111.829,299.562,119.467,290.132,119.467z
				 M274.371,145.067l4.659,27.938c-2.116,1.877-4.036,3.942-5.743,6.195h-34.577c-1.707-2.253-3.627-4.318-5.743-6.195
				l4.659-27.938H274.371z M265.394,213.333h-18.79c0.563-2.756,0.862-5.615,0.862-8.533s-0.299-5.777-0.862-8.533h18.79
				c-0.563,2.756-0.862,5.615-0.862,8.533S264.831,210.577,265.394,213.333z M204.799,102.4c0-9.421,7.637-17.067,17.067-17.067
				s17.067,7.646,17.067,17.067c0,9.429-7.637,17.067-17.067,17.067S204.799,111.829,204.799,102.4z M220.321,145.067l-3.149,18.901
				c-0.802-0.247-1.647-0.358-2.466-0.555c-0.751-0.179-1.476-0.367-2.236-0.503c-2.517-0.461-5.069-0.777-7.671-0.777
				c-2.918,0-5.777,0.299-8.533,0.862v-17.929H220.321z M247.466,17.707v42.027h-54.733
				C201.923,36.762,222.779,20.762,247.466,17.707z M229.341,211.695c-0.597,1.997-1.408,3.968-2.517,5.879
				c-0.043,0.077-0.051,0.154-0.094,0.222c-2.185,3.678-5.24,6.741-8.917,8.934c-0.077,0.034-0.162,0.051-0.239,0.094
				c-1.911,1.118-3.874,1.92-5.871,2.509c-0.222,0.06-0.435,0.154-0.657,0.205c-2.048,0.555-4.139,0.862-6.246,0.862
				c-1.92,0-3.703-0.222-5.359-0.58c-0.256-0.06-0.486-0.171-0.742-0.23c-4.651-1.195-8.252-3.524-10.641-5.615
				c-0.043-0.034-0.102-0.043-0.145-0.085c-5.299-4.685-8.713-11.469-8.713-19.089c0-9.344,5.086-17.451,12.587-21.922
				c0.077-0.043,0.171-0.06,0.239-0.102c2.97-1.732,6.118-2.756,9.284-3.226c0.734-0.094,1.459-0.179,2.21-0.222
				c0.631-0.034,1.271-0.077,1.911-0.068c1.425,0.043,2.825,0.171,4.181,0.427c0.393,0.077,0.768,0.196,1.161,0.29
				c1.109,0.265,2.193,0.606,3.243,1.007c0.41,0.162,0.819,0.316,1.22,0.495c4.83,2.167,8.806,5.803,11.494,10.325
				c0.043,0.077,0.051,0.154,0.094,0.222c1.118,1.911,1.92,3.883,2.517,5.888c0.06,0.213,0.137,0.418,0.196,0.631
				c0.555,2.057,0.862,4.147,0.862,6.255c0,2.116-0.307,4.198-0.862,6.255C229.478,211.268,229.401,211.473,229.341,211.695z
				 M281.599,259.26l-25.6,12.8l-25.6-12.8v-20.54c3.149-2.389,5.931-5.171,8.311-8.32h34.577c2.381,3.149,5.163,5.931,8.311,8.32
				V259.26z M324.087,223.889c-0.043,0.043-0.102,0.051-0.145,0.085c-2.389,2.091-5.99,4.42-10.65,5.615
				c-0.247,0.06-0.478,0.171-0.734,0.23c-1.655,0.358-3.439,0.58-5.359,0.58c-2.108,0-4.19-0.307-6.246-0.862
				c-0.222-0.051-0.435-0.145-0.657-0.205c-1.997-0.589-3.959-1.391-5.871-2.509c-0.068-0.043-0.154-0.06-0.23-0.094
				c-3.686-2.193-6.741-5.248-8.926-8.934c-0.043-0.068-0.051-0.145-0.094-0.222c-1.109-1.911-1.92-3.883-2.517-5.879
				c-0.06-0.213-0.137-0.427-0.196-0.64c-0.546-2.057-0.862-4.139-0.862-6.255c0-2.108,0.316-4.198,0.862-6.255
				c0.06-0.213,0.137-0.418,0.196-0.631c0.597-2.005,1.408-3.977,2.517-5.888c0.043-0.068,0.051-0.145,0.094-0.222
				c2.688-4.514,6.665-8.158,11.494-10.325c0.401-0.179,0.819-0.333,1.229-0.495c1.041-0.41,2.125-0.742,3.234-1.007
				c0.384-0.094,0.768-0.213,1.169-0.29c1.357-0.256,2.756-0.384,4.173-0.427c0.64-0.009,1.28,0.034,1.911,0.068
				c0.751,0.043,1.485,0.128,2.21,0.222c3.166,0.469,6.315,1.493,9.284,3.226c0.077,0.043,0.162,0.06,0.239,0.102
				c7.501,4.471,12.587,12.578,12.587,21.922C332.799,212.42,329.386,219.204,324.087,223.889z"/>
			<path d="M380.85,441.726L351.538,329.59l-60.476,12.954l14.575,145.724c1.348,13.525,12.629,23.731,26.232,23.731h17.997
				c0.461,0,0.913-0.034,1.365-0.102c19.2-3.123,31.138-18.372,32.742-41.847C384.57,461.293,383.546,452.035,380.85,441.726z"/>
		</g>
	</g>
</g>
<g>
</g>
<g>
</g>
<g>
</g>
<g>
</g>
<g>
</g>
<g>
</g>
<g>
</g>
<g>
</g>
<g>
</g>
<g>
</g>
<g>
</g>
<g>
</g>
<g>
</g>
<g>
</g>
<g>
</g>
</svg>
