<?xml version="1.0" encoding="iso-8859-1"?>
<!-- Generator: Adobe Illustrator 19.0.0, SVG Export Plug-In . SVG Version: 6.00 Build 0)  -->
<svg version="1.1" id="Layer_1" xmlns="http://www.w3.org/2000/svg" xmlns:xlink="http://www.w3.org/1999/xlink" x="0px" y="0px"
	 viewBox="0 0 512 512" style="enable-background:new 0 0 512 512;" xml:space="preserve">
<g>
	<g>
		<path d="M324.233,182.067l27.597-55.236l1.604-3.533c6.246-13.747,13.321-29.338,13.107-49.749C366.131,35.055,329.523,0,289.75,0
			h-34.133h-33.365c-39.774,0-76.382,35.055-76.792,73.549c-0.222,20.42,6.869,36.011,13.116,49.766l28.553,57.463l-33.869,321.801
			c-0.256,2.398,0.529,4.796,2.142,6.596c1.621,1.8,3.925,2.825,6.349,2.825h25.6c4.198,0,7.774-3.055,8.422-7.202l50.065-317.065
			h19.55l50.065,317.065c0.649,4.147,4.224,7.202,8.431,7.202h25.6c2.415,0,4.719-1.024,6.34-2.825
			c1.613-1.801,2.398-4.198,2.142-6.596L324.233,182.067z M196.702,161.775l-20.966-41.933l-1.621-3.584
			c-5.786-12.732-11.767-25.899-11.588-42.522c0.307-29.124,29.338-56.67,59.725-56.67h17.067l-12.902,17.212
			c-26.982,1.724-46.831,19.43-46.831,42.522c0,22.724,19.942,42.667,42.667,42.667h0.896L196.702,161.775z M255.616,153.6
			c-4.719,0-8.533-3.823-8.533-8.533s3.814-8.533,8.533-8.533c4.71,0,8.533,3.823,8.533,8.533S260.327,153.6,255.616,153.6z
			 M238.55,102.4h-16.299c-11.836,0-25.6-11.187-25.6-25.6c0-14.592,14.677-25.6,34.133-25.6c2.688,0,5.222-1.263,6.827-3.413
			L256,23.27l18.389,24.516c1.604,2.15,4.139,3.413,6.827,3.413c19.456,0,34.133,11.008,34.133,25.6c0,14.413-13.764,25.6-25.6,25.6
			H238.55z M331.17,494.933l-48.503-307.2h24.994l32.341,307.2H331.17z"/>
	</g>
</g>
<g>
</g>
<g>
</g>
<g>
</g>
<g>
</g>
<g>
</g>
<g>
</g>
<g>
</g>
<g>
</g>
<g>
</g>
<g>
</g>
<g>
</g>
<g>
</g>
<g>
</g>
<g>
</g>
<g>
</g>
</svg>
