<?xml version="1.0" encoding="iso-8859-1"?>
<!-- Generator: Adobe Illustrator 19.0.0, SVG Export Plug-In . SVG Version: 6.00 Build 0)  -->
<svg version="1.1" id="Layer_1" xmlns="http://www.w3.org/2000/svg" xmlns:xlink="http://www.w3.org/1999/xlink" x="0px" y="0px"
	 viewBox="0 0 512 512" style="enable-background:new 0 0 512 512;" xml:space="preserve">
<g>
	<g>
		<path d="M392.533,110.933h-25.6V25.6c0-14.114-11.486-25.6-25.6-25.6s-25.6,11.486-25.6,25.6v85.333H196.267V25.6
			c0-14.114-11.486-25.6-25.6-25.6s-25.6,11.486-25.6,25.6v85.333h-25.6c-14.114,0-25.6,11.486-25.6,25.6
			c0,11.11,7.159,20.497,17.067,24.03v155.17c0,42.351,34.458,76.8,76.8,76.8h25.6v34.133c0,4.719,3.823,8.533,8.533,8.533h8.533
			v34.133c0,4.719,3.823,8.533,8.533,8.533h8.533v25.6c0,4.719,3.823,8.533,8.533,8.533c4.71,0,8.533-3.814,8.533-8.533v-25.6h8.533
			c4.71,0,8.533-3.814,8.533-8.533V435.2h8.533c4.71,0,8.533-3.814,8.533-8.533v-34.133h25.6c42.342,0,76.8-34.449,76.8-76.8
			v-155.17c9.907-3.533,17.067-12.919,17.067-24.03C418.133,122.419,406.648,110.933,392.533,110.933z M281.6,418.133h-8.533
			h-34.133H230.4v-25.6h51.2V418.133z M315.733,238.933H196.267c-4.71,0-8.533-3.814-8.533-8.533s3.823-8.533,8.533-8.533h119.467
			c4.71,0,8.533,3.814,8.533,8.533S320.444,238.933,315.733,238.933z M315.733,204.979H196.267c-4.71,0-8.533-3.823-8.533-8.533
			c0-4.719,3.823-8.533,8.533-8.533h119.467c4.71,0,8.533,3.814,8.533,8.533C324.267,201.156,320.444,204.979,315.733,204.979z
			 M392.533,145.067H119.467c-4.702,0-8.533-3.823-8.533-8.533c0-4.71,3.831-8.533,8.533-8.533H153.6h34.133h136.533H358.4h34.133
			c4.702,0,8.533,3.823,8.533,8.533C401.067,141.244,397.235,145.067,392.533,145.067z"/>
	</g>
</g>
<g>
</g>
<g>
</g>
<g>
</g>
<g>
</g>
<g>
</g>
<g>
</g>
<g>
</g>
<g>
</g>
<g>
</g>
<g>
</g>
<g>
</g>
<g>
</g>
<g>
</g>
<g>
</g>
<g>
</g>
</svg>
