<?xml version="1.0" encoding="iso-8859-1"?>
<!-- Generator: Adobe Illustrator 19.0.0, SVG Export Plug-In . SVG Version: 6.00 Build 0)  -->
<svg version="1.1" id="Layer_1" xmlns="http://www.w3.org/2000/svg" xmlns:xlink="http://www.w3.org/1999/xlink" x="0px" y="0px"
	 viewBox="0 0 512 512" style="enable-background:new 0 0 512 512;" xml:space="preserve">
<g>
	<g>
		<path d="M392.533,110.933h-25.6V25.6c0-14.114-11.486-25.6-25.6-25.6s-25.6,11.486-25.6,25.6v85.333H196.267V25.6
			c0-14.114-11.486-25.6-25.6-25.6s-25.6,11.486-25.6,25.6v85.333h-25.6c-14.114,0-25.6,11.486-25.6,25.6
			c0,11.11,7.159,20.497,17.067,24.03v155.17c0,42.351,34.449,76.8,76.8,76.8h25.6v34.133c0,4.719,3.814,8.533,8.533,8.533h8.533
			v34.133c0,4.719,3.814,8.533,8.533,8.533h8.533v25.6c0,4.719,3.814,8.533,8.533,8.533c4.719,0,8.533-3.814,8.533-8.533v-25.6
			h8.533c4.719,0,8.533-3.814,8.533-8.533V435.2h8.533c4.719,0,8.533-3.814,8.533-8.533v-34.133h25.6
			c42.351,0,76.8-34.449,76.8-76.8v-155.17c9.907-3.533,17.067-12.919,17.067-24.03
			C418.133,122.419,406.648,110.933,392.533,110.933z M281.6,418.133h-8.533h-34.133H230.4v-25.6h51.2V418.133z M296.166,270.566
			L236.433,330.3c-1.664,1.664-3.849,2.5-6.033,2.5c-2.185,0-4.369-0.836-6.033-2.5c-3.336-3.336-3.336-8.73,0-12.066l45.167-45.167
			h-47.667c-3.447,0-6.571-2.074-7.885-5.265c-1.323-3.191-0.589-6.861,1.852-9.301l59.733-59.733c3.337-3.337,8.73-3.337,12.066,0
			s3.337,8.73,0,12.066L242.466,256h47.667c3.447,0,6.571,2.074,7.885,5.265C299.341,264.457,298.607,268.126,296.166,270.566z
			 M392.533,145.067H119.467c-4.71,0-8.533-3.823-8.533-8.533c0-4.71,3.823-8.533,8.533-8.533H153.6h34.133h136.533H358.4h34.133
			c4.71,0,8.533,3.823,8.533,8.533C401.067,141.244,397.244,145.067,392.533,145.067z"/>
	</g>
</g>
<g>
</g>
<g>
</g>
<g>
</g>
<g>
</g>
<g>
</g>
<g>
</g>
<g>
</g>
<g>
</g>
<g>
</g>
<g>
</g>
<g>
</g>
<g>
</g>
<g>
</g>
<g>
</g>
<g>
</g>
</svg>
