<?xml version="1.0" encoding="iso-8859-1"?>
<!-- Generator: Adobe Illustrator 19.0.0, SVG Export Plug-In . SVG Version: 6.00 Build 0)  -->
<svg version="1.1" id="Layer_1" xmlns="http://www.w3.org/2000/svg" xmlns:xlink="http://www.w3.org/1999/xlink" x="0px" y="0px"
	 viewBox="0 0 512 512" style="enable-background:new 0 0 512 512;" xml:space="preserve">
<g>
	<g>
		<path d="M392.533,110.933h-25.6V25.6c0-14.114-11.486-25.6-25.6-25.6s-25.6,11.486-25.6,25.6v85.333H196.267V25.6
			c0-14.114-11.486-25.6-25.6-25.6s-25.6,11.486-25.6,25.6v85.333h-25.6c-4.71,0-8.533,3.814-8.533,8.533v64.572
			c0,43.025,15.94,84.258,44.885,116.104c26.086,28.689,40.448,65.843,40.448,104.619v21.879c0,23.543,19.149,42.692,42.684,42.692
			h8.516v34.133c0,4.719,3.823,8.533,8.533,8.533c4.71,0,8.533-3.814,8.533-8.533v-34.133h8.516
			c23.535,0,42.684-19.149,42.684-42.692v-21.862c0-38.767,14.362-75.921,40.465-104.644
			c28.937-31.838,44.868-73.062,44.868-116.087v-64.58C401.067,114.748,397.244,110.933,392.533,110.933z M179.2,110.933h-17.067
			V25.6c0-4.71,3.831-8.533,8.533-8.533S179.2,20.89,179.2,25.6V110.933z M296.166,236.433l-59.733,59.733
			c-1.664,1.664-3.849,2.5-6.033,2.5s-4.369-0.836-6.033-2.5c-3.336-3.337-3.336-8.73,0-12.066l45.167-45.167h-47.667
			c-3.447,0-6.562-2.074-7.885-5.265c-1.323-3.191-0.589-6.861,1.852-9.301l59.733-59.733c3.337-3.336,8.73-3.336,12.066,0
			c3.337,3.337,3.337,8.73,0,12.066l-45.167,45.167h47.667c3.447,0,6.562,2.074,7.885,5.265
			C299.341,230.323,298.607,233.993,296.166,236.433z M349.867,110.933H332.8V25.6c0-4.71,3.831-8.533,8.533-8.533
			s8.533,3.823,8.533,8.533V110.933z"/>
	</g>
</g>
<g>
</g>
<g>
</g>
<g>
</g>
<g>
</g>
<g>
</g>
<g>
</g>
<g>
</g>
<g>
</g>
<g>
</g>
<g>
</g>
<g>
</g>
<g>
</g>
<g>
</g>
<g>
</g>
<g>
</g>
</svg>
