<?xml version="1.0" encoding="iso-8859-1"?>
<!-- Generator: Adobe Illustrator 19.0.0, SVG Export Plug-In . SVG Version: 6.00 Build 0)  -->
<svg version="1.1" id="Layer_1" xmlns="http://www.w3.org/2000/svg" xmlns:xlink="http://www.w3.org/1999/xlink" x="0px" y="0px"
	 viewBox="0 0 503.607 503.607" style="enable-background:new 0 0 503.607 503.607;" xml:space="preserve">
<g>
	<g>
		<path d="M486.82,436.459h-8.393v-41.967c0-136.041-108.427-247.229-243.41-251.661V67.148h8.393
			c9.258,0,16.787-7.529,16.787-16.787V16.787C260.197,7.529,252.668,0,243.41,0H92.328C83.07,0,75.541,7.529,75.541,16.787v33.574
			c0,9.258,7.529,16.787,16.787,16.787h8.393v75.541H67.148v-8.393c0-9.258-7.529-16.787-16.787-16.787H16.787
			C7.529,117.508,0,125.037,0,134.295v151.082c0,9.258,7.529,16.787,16.787,16.787h33.574c9.258,0,16.787-7.529,16.787-16.787
			v-8.393h159.475c64.797,0,117.508,52.711,117.508,117.508v41.967h-8.393c-9.258,0-16.787,7.529-16.787,16.787v33.574
			c0,9.258,7.529,16.787,16.787,16.787H486.82c9.258,0,16.787-7.529,16.787-16.787v-33.574
			C503.607,443.988,496.078,436.459,486.82,436.459z M50.369,285.377H16.787V134.295h33.574v16.779v0.008V268.59
			c0,0.017,0.008,0.034,0.008,0.05V285.377z M432.447,352.634c4.583-0.797,8.88,2.375,9.619,6.958
			c0.932,5.817,1.637,11.684,2.098,17.45c0.369,4.625-3.08,8.662-7.705,9.031c-0.218,0.017-0.453,0.025-0.671,0.025
			c-4.339,0-8.007-3.332-8.36-7.73c-0.42-5.321-1.074-10.744-1.939-16.124C424.75,357.67,427.881,353.364,432.447,352.634z
			 M444.852,411.279v25.18h-16.787v-25.18c0-4.642,3.752-8.393,8.393-8.393C441.101,402.885,444.852,406.637,444.852,411.279z
			 M374.633,245.659c3.391-3.156,8.704-2.971,11.86,0.428c14.537,15.654,26.674,33.272,36.075,52.375
			c2.04,4.155,0.336,9.182-3.827,11.23c-1.192,0.588-2.451,0.865-3.701,0.865c-3.097,0-6.077-1.721-7.537-4.692
			c-8.67-17.626-19.884-33.901-33.305-48.346C371.041,254.12,371.234,248.815,374.633,245.659z M109.081,50.369H92.328V16.787
			H243.41v33.574h-16.779h-0.008H109.115C109.098,50.361,109.09,50.369,109.081,50.369z M193.049,193.049
			c-4.633,0-8.393-3.76-8.393-8.393s3.76-8.393,8.393-8.393s8.393,3.76,8.393,8.393S197.682,193.049,193.049,193.049z
			 M201.443,142.689c0,4.642-3.76,8.393-8.393,8.393s-8.393-3.752-8.393-8.393V92.328c0-4.642,3.76-8.393,8.393-8.393
			s8.393,3.752,8.393,8.393V142.689z M260.138,187.157c-0.512,4.264-4.138,7.395-8.326,7.395c-0.336,0-0.671-0.017-1.007-0.059
			c-7.957-0.957-16.099-1.444-24.182-1.444c-4.633,0-8.393-3.752-8.393-8.393s3.76-8.393,8.393-8.393
			c8.754,0,17.559,0.52,26.179,1.561C257.402,178.377,260.692,182.557,260.138,187.157z M299.134,206.537
			c-4.323-1.67-6.471-6.539-4.801-10.861c1.679-4.323,6.555-6.455,10.861-4.793c22.192,8.603,42.756,20.732,61.113,36.05
			c3.55,2.971,4.029,8.259,1.058,11.818c-1.662,1.998-4.046,3.022-6.446,3.022c-1.897,0-3.802-0.638-5.38-1.956
			C338.6,225.674,319.622,214.478,299.134,206.537z M486.82,486.82H335.738v-33.574h16.779h0.008h83.934
			c-0.017,0-0.034-0.008-0.05-0.008h0.101c-0.017,0-0.034,0.008-0.05,0.008h33.574c0.025,0,0.05-0.017,0.076-0.017h16.711V486.82z"
			/>
	</g>
</g>
<g>
</g>
<g>
</g>
<g>
</g>
<g>
</g>
<g>
</g>
<g>
</g>
<g>
</g>
<g>
</g>
<g>
</g>
<g>
</g>
<g>
</g>
<g>
</g>
<g>
</g>
<g>
</g>
<g>
</g>
</svg>
