<?xml version="1.0" encoding="iso-8859-1"?>
<!-- Generator: Adobe Illustrator 19.0.0, SVG Export Plug-In . SVG Version: 6.00 Build 0)  -->
<svg version="1.1" id="Layer_1" xmlns="http://www.w3.org/2000/svg" xmlns:xlink="http://www.w3.org/1999/xlink" x="0px" y="0px"
	 viewBox="0 0 512 512" style="enable-background:new 0 0 512 512;" xml:space="preserve">
<g>
	<g>
		<path d="M332.8,366.933h-42.667v-42.667H281.6V116.949c24.644-7.364,42.667-30.216,42.667-57.216V17.067h-25.6V0h-85.333v17.067
			h-25.6v42.667c0,27,18.022,49.852,42.667,57.216v207.317h-8.533v42.667H179.2c-18.825,0-34.133,15.309-34.133,34.133v102.4
			c0,4.719,3.823,8.533,8.533,8.533s8.533-3.814,8.533-8.533v-102.4c0-9.412,7.654-17.067,17.067-17.067v119.467
			c0,4.719,3.823,8.533,8.533,8.533c4.71,0,8.533-3.814,8.533-8.533V384h17.067v119.467c0,4.719,3.823,8.533,8.533,8.533
			s8.533-3.814,8.533-8.533V384h17.067v119.467c0,4.719,3.823,8.533,8.533,8.533c4.71,0,8.533-3.814,8.533-8.533V384H281.6v119.467
			c0,4.719,3.823,8.533,8.533,8.533s8.533-3.814,8.533-8.533V384h17.067v119.467c0,4.719,3.823,8.533,8.533,8.533
			c4.71,0,8.533-3.814,8.533-8.533V384c9.412,0,17.067,7.654,17.067,17.067v102.4c0,4.719,3.823,8.533,8.533,8.533
			s8.533-3.814,8.533-8.533v-102.4C366.933,382.242,351.625,366.933,332.8,366.933z M273.391,101.444l-0.802,0.145
			c-2.611,0.495-5.299,0.811-8.055,0.811h-17.067c-2.756,0-5.444-0.316-8.055-0.811l-0.802-0.145
			C219.324,97.357,204.8,80.222,204.8,59.733v-25.6h8.533V51.2h85.333V34.133h8.533v25.6
			C307.2,80.222,292.676,97.357,273.391,101.444z"/>
	</g>
</g>
<g>
</g>
<g>
</g>
<g>
</g>
<g>
</g>
<g>
</g>
<g>
</g>
<g>
</g>
<g>
</g>
<g>
</g>
<g>
</g>
<g>
</g>
<g>
</g>
<g>
</g>
<g>
</g>
<g>
</g>
</svg>
