<?xml version="1.0" encoding="iso-8859-1"?>
<!-- Generator: Adobe Illustrator 19.0.0, SVG Export Plug-In . SVG Version: 6.00 Build 0)  -->
<svg version="1.1" id="Layer_1" xmlns="http://www.w3.org/2000/svg" xmlns:xlink="http://www.w3.org/1999/xlink" x="0px" y="0px"
	 viewBox="0 0 511.997 511.997" style="enable-background:new 0 0 511.997 511.997;" xml:space="preserve">
<g>
	<g>
		<g>
			<path d="M426.511,477.112c-0.051-0.589-0.171-1.135-0.341-1.698c-0.162-0.521-0.341-1.007-0.589-1.485
				c-0.247-0.469-0.546-0.888-0.887-1.306c-0.367-0.469-0.759-0.879-1.22-1.254c-0.196-0.171-0.307-0.393-0.529-0.546
				l-141.346-96.708v-41.318h-51.2v41.318L89.044,470.823c-0.213,0.154-0.324,0.375-0.521,0.546
				c-0.461,0.375-0.853,0.785-1.229,1.254c-0.333,0.418-0.631,0.836-0.879,1.306c-0.256,0.478-0.427,0.964-0.589,1.485
				c-0.171,0.563-0.29,1.109-0.341,1.698c-0.026,0.265-0.154,0.486-0.154,0.751v25.6c0,4.719,3.823,8.533,8.533,8.533
				s8.533-3.814,8.533-8.533V482.36l82.654-56.55l-46.012,46.012c-0.794,0.794-1.417,1.732-1.852,2.782
				c-0.435,1.05-0.657,2.15-0.657,3.26v25.6c0,4.719,3.823,8.533,8.533,8.533c4.71,0,8.533-3.814,8.533-8.533v-22.067l67.328-67.328
				l-32.179,59.759c-0.06,0.111-0.051,0.247-0.102,0.358c-0.256,0.521-0.358,1.084-0.503,1.647
				c-0.137,0.555-0.307,1.092-0.333,1.647c-0.009,0.137-0.077,0.247-0.077,0.384v25.6c0,4.719,3.823,8.533,8.533,8.533
				c4.71,0,8.533-3.814,8.533-8.533v-23.45l42.667-79.24v77.09v25.6c0,4.719,3.823,8.533,8.533,8.533
				c4.71,0,8.533-3.814,8.533-8.533v-25.6v-77.09l42.667,79.24v23.45c0,4.719,3.823,8.533,8.533,8.533
				c4.71,0,8.533-3.814,8.533-8.533v-25.6c0-0.137-0.077-0.247-0.077-0.384c-0.026-0.555-0.196-1.092-0.333-1.647
				c-0.145-0.572-0.256-1.126-0.503-1.647c-0.06-0.111-0.043-0.247-0.111-0.358l-32.171-59.759l67.328,67.328v22.067
				c0,4.719,3.823,8.533,8.533,8.533s8.533-3.814,8.533-8.533v-25.6c0-1.109-0.23-2.21-0.657-3.26
				c-0.435-1.05-1.058-1.988-1.852-2.782l-46.012-46.012l82.654,56.55v21.103c0,4.719,3.823,8.533,8.533,8.533
				s8.533-3.814,8.533-8.533v-25.6C426.665,477.599,426.537,477.377,426.511,477.112z"/>
			<path d="M230.397,116.949v198.784h51.2V116.949c24.644-7.364,42.667-30.216,42.667-57.216V17.067h-25.6V0H213.33v17.067h-25.6
				v42.667C187.73,86.733,205.752,109.585,230.397,116.949z M204.797,34.133h8.533V51.2h85.333V34.133h8.533v25.6
				c0,20.489-14.524,37.623-33.809,41.711l-0.802,0.145c-2.611,0.495-5.299,0.811-8.055,0.811h-17.067
				c-2.756,0-5.444-0.316-8.055-0.811l-0.802-0.145c-19.285-4.087-33.809-21.222-33.809-41.711V34.133z"/>
		</g>
	</g>
</g>
<g>
</g>
<g>
</g>
<g>
</g>
<g>
</g>
<g>
</g>
<g>
</g>
<g>
</g>
<g>
</g>
<g>
</g>
<g>
</g>
<g>
</g>
<g>
</g>
<g>
</g>
<g>
</g>
<g>
</g>
</svg>
