<?xml version="1.0" encoding="iso-8859-1"?>
<!-- Generator: Adobe Illustrator 19.0.0, SVG Export Plug-In . SVG Version: 6.00 Build 0)  -->
<svg version="1.1" id="Layer_1" xmlns="http://www.w3.org/2000/svg" xmlns:xlink="http://www.w3.org/1999/xlink" x="0px" y="0px"
	 viewBox="0 0 512 512" style="enable-background:new 0 0 512 512;" xml:space="preserve">
<g>
	<g>
		<path d="M298.667,426.667v-34.133H281.6V145.067h-51.2v247.467h-17.067v34.133h-93.867v42.667v8.533v25.6
			c0,5.12,3.413,8.533,8.533,8.533s8.533-3.413,8.533-8.533v-25.6h8.533v25.6c0,5.12,3.413,8.533,8.533,8.533
			s8.533-3.413,8.533-8.533v-25.6h8.533v25.6c0,5.12,3.413,8.533,8.533,8.533s8.533-3.413,8.533-8.533v-25.6h8.533v25.6
			c0,5.12,3.413,8.533,8.533,8.533s8.533-3.413,8.533-8.533v-25.6h8.533v25.6c0,5.12,3.413,8.533,8.533,8.533
			c5.12,0,8.533-3.413,8.533-8.533v-25.6h8.533v25.6c0,5.12,3.413,8.533,8.533,8.533c5.12,0,8.533-3.413,8.533-8.533v-25.6h8.533
			v25.6c0,5.12,3.413,8.533,8.533,8.533c5.12,0,8.533-3.413,8.533-8.533v-25.6h8.533v25.6c0,5.12,3.413,8.533,8.533,8.533
			s8.533-3.413,8.533-8.533v-25.6h8.533v25.6c0,5.12,3.413,8.533,8.533,8.533s8.533-3.413,8.533-8.533v-25.6h8.533v25.6
			c0,5.12,3.413,8.533,8.533,8.533s8.533-3.413,8.533-8.533v-25.6h8.533v25.6c0,5.12,3.413,8.533,8.533,8.533
			s8.533-3.413,8.533-8.533v-25.6v-8.533v-42.667H298.667z M281.6,426.667h-51.2V409.6h51.2V426.667z"/>
	</g>
</g>
<g>
	<g>
		<rect x="230.4" y="51.2" width="51.2" height="76.8"/>
	</g>
</g>
<g>
	<g>
		<rect x="230.4" width="51.2" height="34.133"/>
	</g>
</g>
<g>
</g>
<g>
</g>
<g>
</g>
<g>
</g>
<g>
</g>
<g>
</g>
<g>
</g>
<g>
</g>
<g>
</g>
<g>
</g>
<g>
</g>
<g>
</g>
<g>
</g>
<g>
</g>
<g>
</g>
</svg>
