<?xml version="1.0" encoding="iso-8859-1"?>
<!-- Generator: Adobe Illustrator 19.0.0, SVG Export Plug-In . SVG Version: 6.00 Build 0)  -->
<svg version="1.1" id="Layer_1" xmlns="http://www.w3.org/2000/svg" xmlns:xlink="http://www.w3.org/1999/xlink" x="0px" y="0px"
	 viewBox="0 0 503.607 503.607" style="enable-background:new 0 0 503.607 503.607;" xml:space="preserve">
<g>
	<g>
		<path d="M486.82,159.475h-33.574c-9.25,0-16.787,7.529-16.787,16.787v8.393h-88.467c-2.35-3.349-4.809-6.606-7.479-9.686
			l-29.352,29.352c-1.645,1.637-3.785,2.459-5.934,2.459s-4.297-0.823-5.934-2.459c-3.282-3.282-3.282-8.595,0-11.868l29.352-29.352
			c-18.642-16.166-42.362-26.523-68.449-28.378v41.539c0,4.642-3.752,8.393-8.393,8.393c-4.633,0-8.393-3.752-8.393-8.393v-41.539
			c-26.078,1.855-49.807,12.212-68.44,28.378l29.352,29.352c3.282,3.273,3.282,8.586,0,11.868c-1.637,1.637-3.785,2.459-5.934,2.459
			c-2.149,0-4.297-0.823-5.934-2.459l-29.352-29.352c-2.669,3.08-5.128,6.337-7.479,9.686H67.148v-8.393
			c0-9.258-7.529-16.787-16.787-16.787H16.787C7.537,159.475,0,167.004,0,176.262v151.082c0,9.258,7.537,16.787,16.787,16.787
			h33.574c9.258,0,16.787-7.529,16.787-16.787v-8.393h88.475c2.35,3.349,4.809,6.606,7.479,9.686l29.352-29.352
			c3.282-3.273,8.595-3.273,11.868,0c3.282,3.282,3.282,8.595,0,11.868l-29.352,29.352c18.633,16.166,42.362,26.523,68.44,28.378
			v-41.539c0-4.642,3.76-8.393,8.393-8.393c4.642,0,8.393,3.752,8.393,8.393v41.539c26.087-1.855,49.807-12.212,68.449-28.378
			l-29.352-29.352c-3.282-3.273-3.282-8.586,0-11.868c3.273-3.273,8.586-3.273,11.868,0l29.352,29.352
			c2.669-3.08,5.128-6.337,7.479-9.686h88.467v8.393c0,9.258,7.537,16.787,16.787,16.787h33.574c9.258,0,16.787-7.529,16.787-16.787
			V176.262C503.607,167.004,496.078,159.475,486.82,159.475z M134.975,263.932c0.126,1.175,0.336,2.333,0.487,3.508
			c0.386,2.854,0.848,5.691,1.435,8.477c0.277,1.326,0.604,2.636,0.923,3.945c0.663,2.661,1.41,5.271,2.249,7.856
			c0.411,1.284,0.814,2.568,1.276,3.844c1.016,2.787,2.149,5.506,3.366,8.192c0.352,0.789,0.613,1.62,0.99,2.409H67.148v-67.148
			h25.18c4.642,0,8.393-3.752,8.393-8.393c0-4.642-3.752-8.393-8.393-8.393h-25.18v-16.787h78.554
			c-0.378,0.789-0.638,1.62-0.99,2.409c-1.217,2.686-2.35,5.405-3.366,8.192c-0.462,1.276-0.865,2.56-1.276,3.844
			c-0.839,2.585-1.586,5.196-2.249,7.856c-0.319,1.309-0.646,2.619-0.923,3.945c-0.588,2.787-1.049,5.615-1.435,8.477
			c-0.151,1.167-0.361,2.325-0.487,3.508c-0.411,3.987-0.68,8.024-0.68,12.128C134.295,255.908,134.564,259.945,134.975,263.932z
			 M176.262,260.197h-24.786c-0.235-2.787-0.394-5.582-0.394-8.393c0-2.812,0.159-5.607,0.394-8.393h24.786
			c4.642,0,8.393,3.752,8.393,8.393C184.656,256.445,180.904,260.197,176.262,260.197z M282.918,232.557l-50.361,50.361
			c-1.637,1.637-3.785,2.459-5.934,2.459c-2.14,0-4.289-0.823-5.934-2.459c-3.273-3.282-3.273-8.586,0-11.868l50.361-50.361
			c3.282-3.282,8.595-3.282,11.868,0C286.2,223.971,286.2,229.275,282.918,232.557z M352.138,260.197h-24.794
			c-4.633,0-8.393-3.752-8.393-8.393c0-4.642,3.76-8.393,8.393-8.393h24.794c0.235,2.787,0.386,5.582,0.386,8.393
			C352.525,254.615,352.373,257.41,352.138,260.197z M436.459,218.23h-16.787c-4.633,0-8.393,3.752-8.393,8.393
			c0,4.642,3.76,8.393,8.393,8.393h16.787v67.148h-78.546c0.378-0.789,0.63-1.62,0.99-2.409c1.217-2.686,2.35-5.405,3.366-8.192
			c0.462-1.276,0.865-2.56,1.276-3.844c0.839-2.585,1.586-5.195,2.249-7.856c0.319-1.309,0.646-2.619,0.923-3.945
			c0.588-2.787,1.049-5.624,1.427-8.477c0.159-1.175,0.369-2.333,0.495-3.508c0.411-3.987,0.671-8.024,0.671-12.129
			c0-4.104-0.26-8.142-0.671-12.128c-0.126-1.184-0.336-2.342-0.495-3.508c-0.05-0.386-0.101-0.764-0.159-1.15h18.113
			c4.642,0,8.393-3.752,8.393-8.393c0-4.642-3.752-8.393-8.393-8.393h-21.773c-0.243-0.789-0.529-1.561-0.781-2.342
			c-0.411-1.284-0.814-2.568-1.276-3.844c-1.016-2.787-2.157-5.506-3.366-8.192c-0.361-0.789-0.613-1.62-0.99-2.409h78.546V218.23z"
			/>
	</g>
</g>
<g>
</g>
<g>
</g>
<g>
</g>
<g>
</g>
<g>
</g>
<g>
</g>
<g>
</g>
<g>
</g>
<g>
</g>
<g>
</g>
<g>
</g>
<g>
</g>
<g>
</g>
<g>
</g>
<g>
</g>
</svg>
