<?xml version="1.0" encoding="iso-8859-1"?>
<!-- Generator: Adobe Illustrator 19.0.0, SVG Export Plug-In . SVG Version: 6.00 Build 0)  -->
<svg version="1.1" id="Layer_1" xmlns="http://www.w3.org/2000/svg" xmlns:xlink="http://www.w3.org/1999/xlink" x="0px" y="0px"
	 viewBox="0 0 512 512" style="enable-background:new 0 0 512 512;" xml:space="preserve">
<g>
	<g>
		<g>
			<path d="M503.467,409.6h-102.4v-51.2h102.4c4.719,0,8.533-3.814,8.533-8.533c0-4.71-3.814-8.533-8.533-8.533h-102.4v-2.978
				c0-17.178-13.978-31.155-31.147-31.155h-54.187v-42.795c4.676-1.971,9.207-4.233,13.542-6.801l-4.693-6.204
				c-0.171-0.23-0.341-0.469-0.495-0.725c-10.957-18.031-30.029-28.809-51.021-28.809s-40.064,10.778-51.021,28.809l-4.847,7.142
				c4.233,2.483,8.644,4.685,13.201,6.605V307.2h-54.187c-17.169,0-31.147,13.978-31.147,31.155v4.42
				c-33.621-4.216-59.733-32.93-59.733-67.669V59.733c0-4.71-3.814-8.533-8.533-8.533s-8.533,3.823-8.533,8.533v215.373
				c0,44.169,33.741,80.614,76.8,84.907v49.331c-71.322-4.36-128-62.899-128-134.238V59.733c0-4.71-3.814-8.533-8.533-8.533
				S0,55.023,0,59.733v215.373C0,355.84,64.35,421.837,145.067,426.24v3.413c0,17.178,13.978,31.147,31.147,31.147H369.92
				c17.169,0,31.147-13.969,31.147-31.147v-2.987h102.4c4.719,0,8.533-3.814,8.533-8.533C512,413.423,508.186,409.6,503.467,409.6z
				 M247.467,270.012c0.154,0.034,0.316,0.051,0.469,0.085c3.874,0.913,7.817,1.63,11.844,2.125c0.401,0.051,0.802,0.077,1.203,0.12
				c3.977,0.444,7.996,0.725,12.083,0.725c4.079,0,8.081-0.282,12.041-0.717c0.427-0.051,0.853-0.085,1.289-0.137
				c4.002-0.486,7.927-1.203,11.784-2.116c0.162-0.034,0.324-0.051,0.486-0.085V307.2h-51.2V270.012z M366.933,395.52
				c0,17.178-13.978,31.147-31.147,31.147h-125.44c-17.169,0-31.147-13.969-31.147-31.147v-23.031
				c0-17.178,13.978-31.155,31.147-31.155h125.44c17.169,0,31.147,13.978,31.147,31.155V395.52z"/>
			<path d="M203.153,248.161l4.54-6.699c13.841-22.818,38.366-36.659,65.374-36.659c26.854,0,51.268,13.688,65.374,36.634l4.89,6.46
				c24.806-20.36,40.67-51.243,40.67-85.76c0-61.167-49.766-110.933-110.933-110.933S162.133,100.97,162.133,162.137
				C162.133,196.816,178.15,227.801,203.153,248.161z M341.333,153.603c4.71,0,8.533,3.823,8.533,8.533
				c0,4.71-3.823,8.533-8.533,8.533c-4.71,0-8.533-3.823-8.533-8.533C332.8,157.426,336.623,153.603,341.333,153.603z
				 M324.267,110.937c4.71,0,8.533,3.823,8.533,8.533s-3.823,8.533-8.533,8.533s-8.533-3.823-8.533-8.533
				S319.556,110.937,324.267,110.937z M273.067,85.337c4.71,0,8.533,3.823,8.533,8.533c0,4.71-3.823,8.533-8.533,8.533
				c-4.71,0-8.533-3.823-8.533-8.533C264.533,89.16,268.356,85.337,273.067,85.337z M239.01,138.38
				c3.635-3.029,9.003-2.534,12.015,1.084l28.595,34.27c3.021,3.618,2.526,9.003-1.084,12.023c-1.604,1.331-3.533,1.98-5.461,1.98
				c-2.449,0-4.873-1.041-6.562-3.063l-28.587-34.278C234.897,146.777,235.392,141.392,239.01,138.38z M221.867,110.937
				c4.71,0,8.533,3.823,8.533,8.533s-3.823,8.533-8.533,8.533s-8.533-3.823-8.533-8.533S217.156,110.937,221.867,110.937z
				 M204.8,153.603c4.71,0,8.533,3.823,8.533,8.533c0,4.71-3.823,8.533-8.533,8.533s-8.533-3.823-8.533-8.533
				C196.267,157.426,200.09,153.603,204.8,153.603z"/>
			<path d="M335.783,358.403H210.352c-7.765,0-14.089,6.315-14.089,14.08v2.987h25.6c4.719,0,8.533,3.814,8.533,8.533
				c0,4.719-3.814,8.533-8.533,8.533h-25.6v2.987c0,7.765,6.323,14.08,14.089,14.08h125.432c7.765,0,14.08-6.315,14.08-14.08v-2.987
				h-25.6c-4.71,0-8.533-3.814-8.533-8.533c0-4.719,3.823-8.533,8.533-8.533h25.6v-2.987
				C349.863,364.718,343.549,358.403,335.783,358.403z"/>
		</g>
	</g>
</g>
<g>
</g>
<g>
</g>
<g>
</g>
<g>
</g>
<g>
</g>
<g>
</g>
<g>
</g>
<g>
</g>
<g>
</g>
<g>
</g>
<g>
</g>
<g>
</g>
<g>
</g>
<g>
</g>
<g>
</g>
</svg>
