<?xml version="1.0" encoding="iso-8859-1"?>
<!-- Generator: Adobe Illustrator 19.0.0, SVG Export Plug-In . SVG Version: 6.00 Build 0)  -->
<svg version="1.1" id="Layer_1" xmlns="http://www.w3.org/2000/svg" xmlns:xlink="http://www.w3.org/1999/xlink" x="0px" y="0px"
	 viewBox="0 0 512.103 512.103" style="enable-background:new 0 0 512.103 512.103;" xml:space="preserve">
<g>
	<g>
		<path d="M509.594,412.143L292.267,195.49L418.842,68.924c1.604-1.596,2.5-3.763,2.5-6.033c0-2.27-0.896-4.429-2.5-6.033
			L364.536,2.552c-2.825-2.825-7.228-3.302-10.581-1.195L191.037,103.936c-0.256,0.154-0.384,0.427-0.614,0.606
			c-0.282,0.222-0.614,0.324-0.87,0.58l-84.48,84.48c-0.265,0.265-0.375,0.606-0.597,0.896c-0.171,0.23-0.435,0.35-0.589,0.589
			L1.306,353.997c-2.116,3.379-1.621,7.765,1.195,10.59l54.298,54.306c1.604,1.596,3.772,2.5,6.033,2.5
			c2.27,0,4.437-0.905,6.033-2.5l126.609-126.609v0.009l36.309-36.318c3.337-3.336,8.738-3.336,12.066,0
			c3.337,3.337,3.337,8.73,0,12.066l-36.318,36.326l12.049,12.092l24.277-24.277c3.337-3.328,8.738-3.328,12.066,0
			c3.336,3.336,3.336,8.738,0,12.066l-24.286,24.286l12.049,12.083l36.369-36.369c3.336-3.328,8.738-3.328,12.066,0
			c3.336,3.337,3.336,8.738,0,12.066L255.736,352.7l12.058,12.083l24.329-24.337c3.336-3.328,8.738-3.328,12.066,0
			c3.337,3.336,3.337,8.738,0,12.066l-24.346,24.354L291.9,388.95l36.437-36.437c3.328-3.328,8.73-3.328,12.066,0
			c3.328,3.336,3.328,8.738,0,12.075l-36.454,36.446l12.058,12.083l24.397-24.388c3.328-3.337,8.73-3.337,12.066,0
			c3.328,3.328,3.328,8.73,0,12.066l-24.414,24.405l12.058,12.083l36.489-36.489c3.328-3.337,8.73-3.337,12.066,0
			c3.337,3.328,3.337,8.73,0,12.066l-36.506,36.506l12.058,12.083l24.448-24.448c3.337-3.336,8.73-3.336,12.066,0
			c3.337,3.328,3.337,8.73,0,12.066l-24.465,24.465l35.925,36.011c1.596,1.604,3.772,2.509,6.033,2.509h0.009
			c2.261,0,4.429-0.905,6.033-2.5l85.333-85.333c1.596-1.604,2.5-3.78,2.5-6.042C512.103,415.906,511.19,413.739,509.594,412.143z
			 M195.585,207.71c3.337,3.328,3.337,8.73,0,12.066l-24.141,24.132l-12.066-12.066l24.141-24.132
			C186.847,204.374,192.248,204.374,195.585,207.71z M147.312,195.635c3.328-3.337,8.73-3.337,12.066,0
			c3.328,3.328,3.328,8.73,0,12.066l-12.066,12.066l-12.066-12.066L147.312,195.635z M153.37,249.959
			c-0.008-0.009-0.017-0.009-0.026-0.017c-0.009-0.009-0.009-0.017-0.017-0.026L153.37,249.959z M129.238,225.826
			c-0.008-0.009-0.026-0.009-0.026-0.017c-0.009-0.008-0.009-0.017-0.017-0.026L129.238,225.826z M62.832,400.794l-43.443-43.46
			l93.235-148.096l70.801,70.963L62.832,400.794z M207.651,255.975l-12.066,12.066l-12.066-12.066l12.066-12.066
			c3.337-3.337,8.73-3.337,12.066,0S210.987,252.638,207.651,255.975z M280.184,183.441l-70.997-70.767l148.096-93.244l43.46,43.46
			L280.184,183.441z"/>
	</g>
</g>
<g>
</g>
<g>
</g>
<g>
</g>
<g>
</g>
<g>
</g>
<g>
</g>
<g>
</g>
<g>
</g>
<g>
</g>
<g>
</g>
<g>
</g>
<g>
</g>
<g>
</g>
<g>
</g>
<g>
</g>
</svg>
