<?xml version="1.0" encoding="iso-8859-1"?>
<!-- Generator: Adobe Illustrator 19.0.0, SVG Export Plug-In . SVG Version: 6.00 Build 0)  -->
<svg version="1.1" id="Layer_1" xmlns="http://www.w3.org/2000/svg" xmlns:xlink="http://www.w3.org/1999/xlink" x="0px" y="0px"
	 viewBox="0 0 499.787 499.787" style="enable-background:new 0 0 499.787 499.787;" xml:space="preserve">
<g>
	<g>
		<path d="M497.284,93.01l-48.282-48.282l-72.397,72.414c-1.664,1.664-3.849,2.5-6.033,2.5c-2.185,0-4.361-0.836-6.033-2.5
			c-3.328-3.337-3.328-8.738,0-12.066l72.397-72.414l-6.033-6.033l-30.165,30.174c-1.664,1.664-3.849,2.492-6.033,2.492
			c-2.176,0-4.361-0.828-6.033-2.492c-3.328-3.336-3.328-8.738,0-12.075l30.165-30.165L406.771,2.497
			c-3.328-3.328-8.73-3.328-12.066,0L2.496,394.706c-3.328,3.337-3.328,8.738,0,12.066l12.066,12.066l96.546-96.538
			c3.336-3.337,8.73-3.337,12.066,0c3.337,3.328,3.337,8.73,0,12.066l-96.546,96.538l6.042,6.042l48.273-48.273
			c3.328-3.328,8.73-3.328,12.066,0c3.337,3.337,3.337,8.738,0,12.066l-48.273,48.273l48.273,48.273
			c1.664,1.664,3.849,2.5,6.033,2.5s4.369-0.836,6.033-2.5l30.174-30.174l-36.207-36.207c-3.337-3.328-3.337-8.73,0-12.066
			c3.337-3.328,8.73-3.328,12.066,0l36.207,36.207l24.141-24.141l-24.141-24.132c-3.328-3.328-3.328-8.73,0-12.066
			c3.337-3.328,8.738-3.328,12.066,0l24.141,24.132l24.132-24.132l-36.207-36.198c-3.328-3.336-3.328-8.73,0-12.066
			c3.337-3.337,8.738-3.337,12.066,0l36.207,36.198l24.132-24.141l-24.124-24.132c-3.337-3.337-3.337-8.738,0-12.066
			c3.328-3.337,8.73-3.337,12.066,0l24.124,24.132l24.141-24.141l-36.198-36.198c-3.337-3.337-3.337-8.738,0-12.066
			c3.328-3.337,8.73-3.337,12.066,0l36.198,36.198l24.141-24.132l-24.132-24.132c-3.337-3.337-3.337-8.738,0-12.075
			c3.337-3.328,8.73-3.328,12.066,0l24.132,24.141l24.141-24.141l-36.207-36.207c-3.336-3.328-3.336-8.73,0-12.066
			c3.337-3.328,8.73-3.328,12.066,0l36.207,36.207l24.132-24.132l-24.132-24.141c-3.328-3.328-3.328-8.73,0-12.066
			c3.337-3.336,8.738-3.336,12.066,0l24.132,24.132l24.132-24.132l-36.198-36.198c-3.328-3.337-3.328-8.738,0-12.066
			c3.337-3.337,8.738-3.337,12.066,0l36.198,36.198l24.141-24.141l-24.132-24.132c-3.337-3.337-3.337-8.738,0-12.066
			c3.328-3.336,8.73-3.336,12.066,0l24.132,24.132l24.141-24.132C500.621,101.74,500.621,96.338,497.284,93.01z M141.274,352.466
			l-24.132,24.141c-1.664,1.664-3.849,2.5-6.033,2.5c-2.185,0-4.369-0.836-6.033-2.5c-3.337-3.337-3.337-8.73,0-12.066
			l24.132-24.141c3.337-3.337,8.738-3.337,12.066,0C144.61,343.737,144.61,349.13,141.274,352.466z M147.307,310.235
			c-1.664,1.664-3.849,2.5-6.033,2.5c-2.185,0-4.369-0.836-6.033-2.5c-3.328-3.337-3.328-8.738,0-12.066l18.108-18.099
			c3.337-3.337,8.738-3.337,12.066,0c3.337,3.328,3.337,8.73,0,12.066L147.307,310.235z M219.729,274.028l-54.315,54.306
			c-1.664,1.664-3.849,2.5-6.033,2.5c-2.185,0-4.361-0.836-6.033-2.5c-3.328-3.337-3.328-8.738,0-12.066l54.306-54.306
			c3.336-3.337,8.738-3.337,12.075,0C223.057,265.29,223.057,270.691,219.729,274.028z M225.762,231.788l-36.215,36.207
			c-1.664,1.664-3.849,2.5-6.033,2.5c-2.176,0-4.361-0.836-6.033-2.5c-3.328-3.336-3.328-8.738,0-12.075l36.215-36.198
			c3.328-3.328,8.73-3.328,12.066,0C229.09,223.058,229.09,228.46,225.762,231.788z M304.201,189.548l-60.339,60.339
			c-1.673,1.673-3.849,2.5-6.033,2.5c-2.185,0-4.369-0.828-6.033-2.5c-3.337-3.328-3.337-8.73,0-12.066l60.339-60.339
			c3.337-3.336,8.73-3.336,12.066,0C307.537,180.818,307.537,186.22,304.201,189.548z M249.894,207.647
			c-1.673,1.673-3.849,2.5-6.033,2.5s-4.369-0.828-6.033-2.5c-3.336-3.328-3.336-8.73,0-12.066l84.472-84.471
			c3.337-3.337,8.73-3.337,12.066,0c3.337,3.328,3.337,8.73,0,12.066L249.894,207.647z M352.465,141.283l-24.132,24.132
			c-1.664,1.664-3.849,2.5-6.033,2.5s-4.369-0.836-6.033-2.5c-3.336-3.337-3.336-8.73,0-12.066l24.132-24.132
			c3.337-3.337,8.738-3.337,12.066,0C355.802,132.545,355.802,137.947,352.465,141.283z M358.498,99.043
			c-1.664,1.664-3.849,2.5-6.033,2.5c-2.185,0-4.369-0.836-6.033-2.5c-3.328-3.337-3.328-8.738,0-12.066l18.108-18.099
			c3.337-3.337,8.738-3.337,12.066,0c3.336,3.328,3.336,8.73,0,12.066L358.498,99.043z"/>
	</g>
</g>
<g>
</g>
<g>
</g>
<g>
</g>
<g>
</g>
<g>
</g>
<g>
</g>
<g>
</g>
<g>
</g>
<g>
</g>
<g>
</g>
<g>
</g>
<g>
</g>
<g>
</g>
<g>
</g>
<g>
</g>
</svg>
