<?xml version="1.0" encoding="iso-8859-1"?>
<!-- Generator: Adobe Illustrator 19.0.0, SVG Export Plug-In . SVG Version: 6.00 Build 0)  -->
<svg version="1.1" id="Layer_1" xmlns="http://www.w3.org/2000/svg" xmlns:xlink="http://www.w3.org/1999/xlink" x="0px" y="0px"
	 viewBox="0 0 507.606 507.606" style="enable-background:new 0 0 507.606 507.606;" xml:space="preserve">
<g>
	<g>
		<g>
			<path d="M342.899,44.743c0-2.27-0.896-4.437-2.5-6.033l-12.066-12.066c-2.278-2.278-5.666-3.106-8.73-2.057L174.784,72.852
				c-1.263,0.418-2.398,1.126-3.337,2.057l-6.033,6.033L86.976,2.503c-3.337-3.337-8.738-3.337-12.066,0L2.496,74.908
				c-3.328,3.337-3.328,8.738,0,12.066l18.108,18.099l36.207-36.198c3.328-3.337,8.73-3.337,12.066,0
				c3.328,3.337,3.328,8.73,0,12.066L32.67,117.148l12.066,12.066l24.141-24.141c3.328-3.328,8.73-3.328,12.066,0
				c3.328,3.337,3.328,8.738,0,12.066l-24.141,24.141l24.141,24.141l-6.033,6.033c-1.903,1.894-2.79,4.582-2.415,7.236
				l12.066,84.489c0.265,1.818,1.109,3.524,2.415,4.821l12.066,12.058c1.664,1.664,3.849,2.5,6.033,2.5
				c2.185,0,4.369-0.836,6.033-2.5L340.399,50.776C342.003,49.172,342.899,47.013,342.899,44.743z M105.075,261.959l-4.028-4.019
				L89.988,180.5l9.054-9.045l72.405-72.414L182.089,88.4l137.907-45.961l2.304,2.304L105.075,261.959z"/>
			<path d="M505.11,420.634l-182.81-182.81l6.033-6.033c0.93-0.93,1.638-2.074,2.057-3.337l48.265-144.811
				c1.033-3.072,0.23-6.451-2.057-8.738L364.532,62.84c-3.2-3.2-8.866-3.2-12.066,0L123.184,292.13
				c-3.337,3.337-3.337,8.738,0,12.066l12.058,12.075c1.297,1.306,3.004,2.142,4.83,2.415l84.48,12.066
				c0.41,0.06,0.811,0.085,1.212,0.085c2.244,0,4.42-0.896,6.033-2.5l6.033-6.033l12.066,12.066l24.132-24.141
				c3.328-3.328,8.73-3.328,12.066,0c3.328,3.337,3.328,8.738,0,12.075l-24.132,24.132l12.075,12.075l36.198-36.207
				c3.337-3.337,8.73-3.337,12.066,0c3.336,3.328,3.336,8.73,0,12.066l-36.198,36.207l12.066,12.066l24.132-24.132
				c3.336-3.337,8.73-3.337,12.066,0c3.337,3.328,3.337,8.73,0,12.066l-24.132,24.132l12.066,12.066l36.207-36.198
				c3.337-3.336,8.738-3.336,12.066,0c3.336,3.328,3.336,8.73,0,12.066l-36.207,36.198l12.066,12.066l24.141-24.132
				c3.336-3.336,8.738-3.336,12.066,0c3.337,3.337,3.337,8.73,0,12.066l-24.141,24.132l12.075,12.075l36.198-36.207
				c3.337-3.337,8.738-3.337,12.066,0c3.337,3.336,3.337,8.73,0,12.066l-36.198,36.207l37.99,37.99c1.673,1.673,3.857,2.5,6.033,2.5
				c2.185,0,4.369-0.828,6.033-2.5L505.11,432.7C508.438,429.363,508.438,423.97,505.11,420.634z M314.842,221.15l-10.641,10.641
				l-72.405,72.405l-9.054,9.054l-77.44-11.059l-4.019-4.028L358.499,80.939l2.304,2.313L314.842,221.15z"/>
		</g>
	</g>
</g>
<g>
</g>
<g>
</g>
<g>
</g>
<g>
</g>
<g>
</g>
<g>
</g>
<g>
</g>
<g>
</g>
<g>
</g>
<g>
</g>
<g>
</g>
<g>
</g>
<g>
</g>
<g>
</g>
<g>
</g>
</svg>
