<?xml version="1.0" encoding="iso-8859-1"?>
<!-- Generator: Adobe Illustrator 19.0.0, SVG Export Plug-In . SVG Version: 6.00 Build 0)  -->
<svg version="1.1" id="Layer_1" xmlns="http://www.w3.org/2000/svg" xmlns:xlink="http://www.w3.org/1999/xlink" x="0px" y="0px"
	 viewBox="0 0 512.059 512.059" style="enable-background:new 0 0 512.059 512.059;" xml:space="preserve">
<g>
	<g>
		<g>
			<path d="M506.174,409.625L104.041,7.491c-9.993-9.993-26.223-9.984-36.198,0L7.503,67.83c-4.838,4.83-7.501,11.264-7.501,18.108
				c0,6.835,2.662,13.261,7.501,18.099l12.066,12.066l42.24-42.231c3.328-3.337,8.73-3.337,12.066,0
				c3.328,3.328,3.328,8.73,0,12.066l-42.24,42.232l12.066,12.075l30.174-30.174c3.328-3.337,8.73-3.337,12.066,0
				c3.328,3.328,3.328,8.73,0,12.066L55.777,152.31l12.066,12.066l42.232-42.24c3.336-3.337,8.738-3.337,12.066,0
				c3.337,3.337,3.337,8.73,0,12.066l-42.231,42.24l12.075,12.075l30.165-30.174c3.337-3.336,8.73-3.336,12.066,0
				c3.336,3.337,3.336,8.738,0,12.066l-30.165,30.174l12.066,12.066l42.24-42.24c3.328-3.328,8.73-3.328,12.066,0
				c3.328,3.336,3.328,8.738,0,12.066l-42.24,42.24l12.066,12.066l30.174-30.174c3.328-3.328,8.73-3.328,12.066,0
				c3.328,3.337,3.328,8.738,0,12.066l-30.174,30.174l12.075,12.066l42.232-42.231c3.336-3.328,8.738-3.328,12.066,0
				c3.337,3.336,3.337,8.738,0,12.066l-42.231,42.24l12.066,12.066l30.165-30.165c3.337-3.337,8.738-3.337,12.066,0
				c3.336,3.328,3.336,8.73,0,12.066l-30.165,30.165l12.066,12.066l42.24-42.231c3.336-3.337,8.738-3.337,12.066,0
				c3.337,3.328,3.337,8.73,0,12.066l-42.24,42.232l12.075,12.075l30.165-30.165c3.337-3.337,8.738-3.337,12.066,0
				c3.336,3.328,3.336,8.73,0,12.066l-30.165,30.165l12.066,12.066l42.24-42.231c3.328-3.337,8.73-3.337,12.066,0
				c3.337,3.328,3.337,8.73,0,12.066l-42.24,42.231l12.075,12.075l30.165-30.174c3.337-3.336,8.738-3.336,12.066,0
				c3.337,3.337,3.337,8.73,0,12.066l-30.165,30.174l12.066,12.066l42.24-42.24c3.336-3.337,8.73-3.337,12.066,0
				s3.337,8.738,0,12.066l-42.24,42.24l88.371,88.371c3.797,3.797,8.841,5.888,14.208,5.888c5.367,0,10.419-2.099,14.208-5.888
				l68.122-68.13C514.017,430.207,514.017,417.458,506.174,409.625z M447.815,447.803c-6.63,6.63-15.343,9.941-24.055,9.941
				c-8.713,0-17.417-3.311-24.047-9.941c-6.426-6.426-9.967-14.967-9.967-24.047c0-9.088,3.541-17.63,9.967-24.055
				c13.261-13.261,34.833-13.261,48.102,0C461.076,412.961,461.076,434.542,447.815,447.803z"/>
			<path d="M423.761,406.811c-4.343,0-8.678,1.655-11.981,4.958c-3.209,3.2-4.966,7.458-4.966,11.981
				c0,4.531,1.758,8.789,4.966,11.989c6.613,6.596,17.365,6.596,23.97,0c6.605-6.613,6.605-17.365,0-23.97
				C432.448,408.467,428.105,406.811,423.761,406.811z"/>
		</g>
	</g>
</g>
<g>
</g>
<g>
</g>
<g>
</g>
<g>
</g>
<g>
</g>
<g>
</g>
<g>
</g>
<g>
</g>
<g>
</g>
<g>
</g>
<g>
</g>
<g>
</g>
<g>
</g>
<g>
</g>
<g>
</g>
</svg>
