<?xml version="1.0" encoding="iso-8859-1"?>
<!-- Generator: Adobe Illustrator 19.0.0, SVG Export Plug-In . SVG Version: 6.00 Build 0)  -->
<svg version="1.1" id="Layer_1" xmlns="http://www.w3.org/2000/svg" xmlns:xlink="http://www.w3.org/1999/xlink" x="0px" y="0px"
	 viewBox="0 0 511.497 511.497" style="enable-background:new 0 0 511.497 511.497;" xml:space="preserve">
<g>
	<g>
		<g>
			<path d="M136.533,311.215c-23.526,0-42.667,19.14-42.667,42.667s19.14,42.667,42.667,42.667c23.526,0,42.667-19.14,42.667-42.667
				S160.06,311.215,136.533,311.215z"/>
			<rect x="307.202" y="277.077" width="102.4" height="34.133"/>
			<path d="M460.8,353.882c0-4.719,3.814-8.533,8.533-8.533h42.163c-4.258-38.34-36.83-68.267-76.297-68.267h-8.533v42.667
				c0,4.719-3.814,8.533-8.533,8.533H298.667c-4.719,0-8.533-3.814-8.533-8.533v-42.667h-40.806
				c-13.338-19.533-31.667-35.311-53.06-45.781v-31.019h8.533c2.961,0,5.7-1.536,7.262-4.053c1.553-2.517,1.698-5.658,0.375-8.294
				l-16.171-32.333V65.762l7.637-15.266c1.323-2.637,1.178-5.777-0.375-8.294c-1.562-2.517-4.301-4.053-7.262-4.053h-51.2
				c-2.961,0-5.7,1.536-7.262,4.053c-1.553,2.517-1.698,5.658-0.375,8.294l7.637,15.266v89.839l-16.171,32.333
				c-1.323,2.637-1.178,5.777,0.375,8.294c1.562,2.517,4.301,4.053,7.262,4.053h8.533v17.502c-2.833-0.179-5.649-0.435-8.533-0.435
				C61.252,217.348,0,278.601,0,353.882c0,4.719,3.814,8.533,8.533,8.533h8.969c4.403,61.892,56.038,110.933,119.032,110.933
				c36.642,0,69.444-16.614,91.375-42.667H435.2c26.573,0,50.022-13.568,63.812-34.133h-46.746c-4.719,0-8.533-3.814-8.533-8.533
				s3.814-8.533,8.533-8.533h55.253c1.937-5.444,3.319-11.136,3.977-17.067h-42.163C464.614,362.415,460.8,358.601,460.8,353.882z
				 M162.133,200.282H179.2v23.962c-0.136-0.051-0.273-0.077-0.41-0.119c-1.877-0.614-3.789-1.126-5.7-1.655
				c-1.459-0.401-2.918-0.785-4.395-1.135c-2.176-0.529-4.343-1.067-6.562-1.493V200.282z M238.583,362.432
				c-0.256,3.072-0.674,6.101-1.195,9.088c-0.188,1.05-0.444,2.074-0.657,3.106c-0.393,1.911-0.802,3.806-1.306,5.675
				c-0.358,1.323-0.777,2.628-1.178,3.934c-0.461,1.476-0.939,2.944-1.459,4.386c-0.572,1.57-1.195,3.123-1.843,4.668
				c-0.435,1.033-0.887,2.057-1.348,3.081c-0.862,1.852-1.758,3.695-2.731,5.504c-0.282,0.529-0.58,1.05-0.87,1.57
				c-2.603,4.651-5.564,9.148-8.926,13.44c-0.034,0.043-0.051,0.102-0.085,0.145c-18.765,23.859-47.821,39.253-80.452,39.253
				c-53.589,0-97.698-41.387-102.05-93.867h8.183c4.719,0,8.533-3.814,8.533-8.533c0-47.053,38.281-85.333,85.333-85.333
				s85.333,38.281,85.333,85.333c0,4.719,3.814,8.533,8.533,8.533h8.183V362.432z M247.467,345.348h-8.883
				c-4.352-52.48-48.461-93.867-102.05-93.867s-97.698,41.387-102.05,93.867H25.6h-8.235
				c4.395-61.909,56.166-110.933,119.168-110.933c5.41,0,10.701,0.486,15.923,1.186l0.008,0.008
				c7.526,1.007,14.831,2.739,21.871,5.06c1.408,0.478,2.816,0.947,4.198,1.476c1.476,0.546,2.944,1.118,4.386,1.724
				c22.588,9.566,41.617,25.865,54.596,46.396c5.094,8.064,9.122,16.657,12.143,25.549c0.239,0.708,0.461,1.425,0.683,2.133
				c1.178,3.686,2.142,7.433,2.953,11.213c0.179,0.862,0.401,1.715,0.563,2.586c0.853,4.489,1.502,9.028,1.835,13.602H247.467z"/>
		</g>
	</g>
</g>
<g>
</g>
<g>
</g>
<g>
</g>
<g>
</g>
<g>
</g>
<g>
</g>
<g>
</g>
<g>
</g>
<g>
</g>
<g>
</g>
<g>
</g>
<g>
</g>
<g>
</g>
<g>
</g>
<g>
</g>
</svg>
