<?xml version="1.0" encoding="iso-8859-1"?>
<!-- Generator: Adobe Illustrator 19.0.0, SVG Export Plug-In . SVG Version: 6.00 Build 0)  -->
<svg version="1.1" id="Layer_1" xmlns="http://www.w3.org/2000/svg" xmlns:xlink="http://www.w3.org/1999/xlink" x="0px" y="0px"
	 viewBox="0 0 512 512" style="enable-background:new 0 0 512 512;" xml:space="preserve">
<g>
	<g>
		<g>
			<path d="M290.133,102.4h-68.164c-4.71,0-8.533,3.823-8.533,8.533l-0.102,341.333c0,1.681,0.503,3.328,1.425,4.727l34.031,51.2
				c1.587,2.372,4.241,3.806,7.1,3.806h0.009c2.85,0,5.513-1.425,7.091-3.789l34.236-51.2c0.939-1.408,1.442-3.055,1.442-4.745
				V110.933C298.667,106.223,294.852,102.4,290.133,102.4z"/>
			<path d="M324.267,0H187.733c-4.719,0-8.533,3.823-8.533,8.533v34.133c0,1.843,0.597,3.644,1.707,5.12l25.6,34.133
				c1.613,2.15,4.147,3.413,6.827,3.413h85.333c2.68,0,5.214-1.263,6.827-3.413l25.6-34.133c1.109-1.476,1.707-3.277,1.707-5.12
				V8.533C332.8,3.823,328.986,0,324.267,0z"/>
		</g>
	</g>
</g>
<g>
</g>
<g>
</g>
<g>
</g>
<g>
</g>
<g>
</g>
<g>
</g>
<g>
</g>
<g>
</g>
<g>
</g>
<g>
</g>
<g>
</g>
<g>
</g>
<g>
</g>
<g>
</g>
<g>
</g>
</svg>
