<?xml version="1.0" encoding="iso-8859-1"?>
<!-- Generator: Adobe Illustrator 19.0.0, SVG Export Plug-In . SVG Version: 6.00 Build 0)  -->
<svg version="1.1" id="Layer_1" xmlns="http://www.w3.org/2000/svg" xmlns:xlink="http://www.w3.org/1999/xlink" x="0px" y="0px"
	 viewBox="0 0 498.652 498.652" style="enable-background:new 0 0 498.652 498.652;" xml:space="preserve">
<g>
	<g>
		<g>
			<path d="M473.799,46.998l-21.655-21.655C435.945,9.144,414.415,0.23,391.51,0.23c-22.897,0-44.435,8.914-60.626,25.113
				l-170.84,170.84c-0.134,0.126-0.185,0.319-0.302,0.453c-0.504,0.579-0.923,1.192-1.251,1.872
				c-0.134,0.285-0.252,0.562-0.361,0.856c-0.243,0.697-0.369,1.419-0.428,2.166c-0.008,0.201-0.117,0.386-0.117,0.588
				c0,0.076,0.042,0.143,0.042,0.218c0.008,0.101-0.025,0.201-0.025,0.302c0.378,5.976,1.158,18.415-3.567,23.141
				s-17.156,3.953-23.141,3.576c-0.101-0.008-0.185,0.025-0.277,0.025c-0.277-0.008-0.537,0.042-0.814,0.067
				c-0.797,0.042-1.553,0.176-2.275,0.436c-0.201,0.076-0.395,0.159-0.596,0.252c-0.814,0.369-1.553,0.856-2.216,1.469
				c-0.084,0.076-0.193,0.101-0.277,0.185l-0.327,0.327c-0.008,0.008-0.017,0.017-0.017,0.017l-23.401,23.393
				c-1.578,1.578-2.459,3.71-2.459,5.934c0,2.224,0.881,4.365,2.459,5.934l47.331,47.331l-98.086,98.094l35.605,35.605
				l98.094-98.086l47.473,47.473c1.578,1.57,3.702,2.459,5.934,2.459c2.233,0,4.365-0.89,5.934-2.459l23.737-23.745
				c0.118-0.109,0.151-0.269,0.26-0.386c0.537-0.604,0.982-1.267,1.326-1.998c0.134-0.277,0.252-0.546,0.344-0.831
				c0.235-0.68,0.361-1.385,0.411-2.124c0.025-0.277,0.084-0.537,0.076-0.814c0-0.101,0.034-0.193,0.025-0.294
				c-0.378-5.976-1.15-18.415,3.567-23.141c4.734-4.734,17.173-3.945,23.149-3.576c0.101,0.008,0.201-0.025,0.311-0.025
				c0.067,0,0.143,0.042,0.21,0.042c0.193,0,0.369-0.092,0.554-0.109c0.739-0.042,1.461-0.168,2.157-0.42
				c0.294-0.101,0.562-0.218,0.848-0.352c0.688-0.327,1.309-0.747,1.897-1.251c0.151-0.134,0.336-0.185,0.478-0.327l171.47-171.47
				c16.023-16.023,24.853-37.334,24.853-59.996S489.822,63.021,473.799,46.998z M437.128,61.385c3.282,3.282,3.282,8.586,0,11.868
				L260.866,249.515c-1.637,1.637-3.785,2.459-5.934,2.459c-2.149,0-4.297-0.823-5.934-2.459c-3.282-3.282-3.282-8.587,0-11.868
				L425.26,61.385C428.542,58.103,433.846,58.103,437.128,61.385z M223.817,204.073L383.292,44.598
				c3.282-3.282,8.586-3.282,11.868,0c3.282,3.282,3.282,8.586,0,11.868L235.685,215.941c-1.637,1.637-3.785,2.459-5.934,2.459
				c-2.149,0-4.297-0.823-5.934-2.459C220.535,212.66,220.535,207.355,223.817,204.073z M237.045,380.008l-47.473-47.473
				l-11.893-11.893l-59.182-59.182l11.868-11.86L248.905,368.14L237.045,380.008z M260.857,332.61
				c-4.407,4.415-6.681,10.122-7.806,15.922L149.98,245.461c5.791-1.125,11.507-3.399,15.931-7.814
				c4.407-4.415,6.681-10.131,7.806-15.931l103.071,103.08C270.997,325.921,265.272,328.195,260.857,332.61z M453.915,115.22
				L294.44,274.696c-1.637,1.637-3.785,2.459-5.934,2.459c-2.149,0-4.297-0.823-5.934-2.459c-3.282-3.282-3.282-8.586,0-11.868
				l159.475-159.475c3.282-3.282,8.586-3.282,11.868,0C457.197,106.634,457.197,111.938,453.915,115.22z"/>
			<path d="M33.021,429.831c-10.718,10.853-20.161,22.964-28.084,35.983l-2.14,3.517c-4.591,7.563-3.441,17.223,2.812,23.476
				c3.701,3.702,8.595,5.615,13.547,5.615c3.341,0,6.706-0.873,9.745-2.669l1.662-0.982c14.537-8.612,27.942-19.07,39.827-31.106
				l3.307-3.349l-35.613-35.613L33.021,429.831z"/>
		</g>
	</g>
</g>
<g>
</g>
<g>
</g>
<g>
</g>
<g>
</g>
<g>
</g>
<g>
</g>
<g>
</g>
<g>
</g>
<g>
</g>
<g>
</g>
<g>
</g>
<g>
</g>
<g>
</g>
<g>
</g>
<g>
</g>
</svg>
