<?xml version="1.0" encoding="iso-8859-1"?>
<!-- Generator: Adobe Illustrator 19.0.0, SVG Export Plug-In . SVG Version: 6.00 Build 0)  -->
<svg version="1.1" id="Layer_1" xmlns="http://www.w3.org/2000/svg" xmlns:xlink="http://www.w3.org/1999/xlink" x="0px" y="0px"
	 viewBox="0 0 506.845 506.845" style="enable-background:new 0 0 506.845 506.845;" xml:space="preserve">
<g>
	<g>
		<g>
			<path d="M498.359,111.926L395.02,8.579c-11.119-11.11-30.498-11.093-41.6,0L163.033,198.975
				c-0.137,0.137-0.188,0.324-0.316,0.469c-0.512,0.58-0.939,1.203-1.271,1.894c-0.136,0.29-0.256,0.572-0.358,0.879
				c-0.247,0.708-0.384,1.434-0.444,2.202c-0.008,0.196-0.111,0.384-0.111,0.589c0,0.077,0.043,0.145,0.043,0.222
				c0,0.102-0.034,0.205-0.026,0.307c0.375,6.084,1.169,18.722-3.627,23.526c-4.813,4.813-17.459,4.019-23.535,3.644
				c-0.102-0.009-0.188,0.026-0.282,0.017c-0.282-0.009-0.546,0.051-0.819,0.068c-0.828,0.043-1.613,0.188-2.355,0.452
				c-0.179,0.068-0.35,0.145-0.538,0.23c-0.87,0.384-1.656,0.896-2.338,1.553c-0.068,0.068-0.162,0.085-0.23,0.154l-0.273,0.273
				c-0.034,0.034-0.068,0.068-0.102,0.102l-23.765,23.757c-1.596,1.596-2.5,3.772-2.5,6.033s0.904,4.429,2.5,6.033l48.119,48.111
				L42.551,427.754l36.198,36.198l108.262-108.254l48.265,48.265c1.604,1.604,3.772,2.5,6.033,2.5c2.27,0,4.437-0.896,6.033-2.5
				l24.141-24.132c0.111-0.119,0.145-0.273,0.256-0.393c0.555-0.614,0.998-1.289,1.348-2.031c0.136-0.29,0.256-0.555,0.358-0.853
				c0.239-0.691,0.358-1.408,0.418-2.15c0.017-0.282,0.077-0.546,0.068-0.828c0-0.102,0.034-0.196,0.034-0.299
				c-0.384-6.084-1.178-18.722,3.618-23.526c4.813-4.813,17.459-4.011,23.535-3.635c0.111,0.009,0.205-0.034,0.316-0.026
				c0.077,0,0.145,0.034,0.222,0.034c0.188,0,0.358-0.094,0.546-0.102c0.777-0.051,1.519-0.179,2.236-0.435
				c0.273-0.094,0.538-0.205,0.802-0.333c0.734-0.35,1.391-0.794,2.005-1.331c0.137-0.12,0.307-0.162,0.444-0.29l190.669-190.686
				C509.674,141.64,509.674,123.233,498.359,111.926z M410.337,84.261c3.337-3.337,8.73-3.337,12.066,0
				c3.337,3.328,3.337,8.73,0,12.066L265.527,253.196c-1.664,1.673-3.849,2.5-6.033,2.5s-4.361-0.828-6.033-2.5
				c-3.328-3.328-3.328-8.73,0-12.066L410.337,84.261z M223.372,211.041L380.249,54.164c3.328-3.337,8.73-3.337,12.066,0
				c3.328,3.328,3.328,8.73,0,12.066L235.438,223.107c-1.664,1.664-3.849,2.5-6.033,2.5c-2.185,0-4.369-0.836-6.033-2.5
				C220.036,219.771,220.036,214.378,223.372,211.041z M241.309,385.863l-48.256-48.256l-0.008-0.009l-12.092-12.092l-60.169-60.16
				l12.066-12.058l120.525,120.508L241.309,385.863z M265.518,337.684c-4.48,4.48-6.793,10.291-7.936,16.179L152.801,249.083
				c5.888-1.143,11.699-3.465,16.188-7.953c4.48-4.489,6.801-10.3,7.936-16.188l104.798,104.789
				C275.826,330.875,270.015,333.187,265.518,337.684z M452.654,126.57L295.777,283.446c-1.664,1.664-3.849,2.5-6.033,2.5
				c-2.185,0-4.369-0.836-6.033-2.5c-3.328-3.336-3.328-8.738,0-12.066l156.877-156.877c3.337-3.337,8.73-3.337,12.066,0
				C455.991,117.84,455.991,123.233,452.654,126.57z"/>
			<path d="M24.479,446.04c-8.789,8.858-16.137,18.995-21.82,30.157l-0.452,0.896c-3.968,7.765-2.492,17.135,3.678,23.322
				l0.299,0.299c3.857,3.849,8.994,5.88,14.208,5.88c2.995,0,6.025-0.666,8.841-2.048c12.058-5.922,22.963-13.747,32.452-23.313
				l5.06-5.154L30.537,439.87L24.479,446.04z"/>
		</g>
	</g>
</g>
<g>
</g>
<g>
</g>
<g>
</g>
<g>
</g>
<g>
</g>
<g>
</g>
<g>
</g>
<g>
</g>
<g>
</g>
<g>
</g>
<g>
</g>
<g>
</g>
<g>
</g>
<g>
</g>
<g>
</g>
</svg>
