<?xml version="1.0" encoding="iso-8859-1"?>
<!-- Generator: Adobe Illustrator 19.0.0, SVG Export Plug-In . SVG Version: 6.00 Build 0)  -->
<svg version="1.1" id="Layer_1" xmlns="http://www.w3.org/2000/svg" xmlns:xlink="http://www.w3.org/1999/xlink" x="0px" y="0px"
	 viewBox="0 0 511.668 511.668" style="enable-background:new 0 0 511.668 511.668;" xml:space="preserve">
<g>
	<g>
		<g>
			<path d="M481.761,29.979c-39.885-39.885-104.772-39.868-144.657,0L174.108,192.983c-0.137,0.137-0.179,0.316-0.299,0.461
				c-0.521,0.589-0.956,1.237-1.297,1.946c-0.145,0.299-0.265,0.58-0.367,0.887c-0.239,0.683-0.358,1.391-0.418,2.125
				c-0.017,0.282-0.077,0.555-0.068,0.845c0,0.102-0.043,0.196-0.034,0.307c0.384,6.076,1.178,18.714-3.635,23.518
				c-4.804,4.813-17.434,4.019-23.518,3.644c-0.102-0.009-0.188,0.026-0.282,0.026c-0.307-0.017-0.589,0.051-0.896,0.068
				c-0.725,0.06-1.425,0.179-2.099,0.41c-0.307,0.102-0.589,0.23-0.879,0.367c-0.708,0.341-1.348,0.768-1.946,1.289
				c-0.145,0.128-0.333,0.171-0.469,0.316l-24.132,24.132c-3.336,3.328-3.336,8.73,0,12.066l48.12,48.119L64.737,410.66
				l36.198,36.198l97.152-97.152l48.265,48.273c1.664,1.664,3.849,2.492,6.033,2.492c2.185,0,4.369-0.828,6.033-2.492l24.141-24.141
				c0.128-0.12,0.171-0.29,0.29-0.418c0.521-0.597,0.956-1.246,1.306-1.954c0.128-0.282,0.247-0.555,0.35-0.853
				c0.247-0.708,0.384-1.442,0.444-2.219c0.009-0.196,0.111-0.384,0.111-0.589c0-0.077-0.043-0.137-0.043-0.222
				c0-0.102,0.034-0.196,0.026-0.299c-0.384-6.084-1.169-18.722,3.627-23.526c4.813-4.813,17.442-4.019,23.526-3.635
				c0.102,0,0.205-0.034,0.307-0.034c0.077,0.009,0.145,0.051,0.222,0.051c0.222,0,0.418-0.111,0.631-0.128
				c0.725-0.06,1.434-0.188,2.108-0.418c0.341-0.12,0.657-0.247,0.973-0.401c0.657-0.324,1.246-0.725,1.801-1.203
				c0.162-0.137,0.375-0.196,0.521-0.35l163.004-163.004C521.637,134.76,521.637,69.864,481.761,29.979z M458.303,53.293
				c3.336,3.336,3.336,8.73,0,12.066l-179.2,179.2c-1.664,1.664-3.849,2.5-6.033,2.5s-4.369-0.836-6.033-2.5
				c-3.336-3.337-3.336-8.73,0-12.066l179.2-179.2C449.573,49.956,454.966,49.956,458.303,53.293z M232.903,206.893L395.036,44.759
				c3.336-3.336,8.73-3.336,12.066,0c3.336,3.337,3.336,8.73,0,12.066L244.969,218.959c-1.664,1.664-3.849,2.5-6.033,2.5
				c-2.185,0-4.369-0.836-6.033-2.5C229.567,215.622,229.567,210.229,232.903,206.893z M252.385,379.872l-60.348-60.348
				l-12.049-12.049c0-0.009-0.009-0.009-0.009-0.009l-48.111-48.111l12.066-12.066l120.525,120.525L252.385,379.872z
				 M276.602,331.693c-4.48,4.488-6.793,10.291-7.936,16.188L163.877,243.091c5.888-1.143,11.691-3.456,16.188-7.945
				c4.489-4.489,6.801-10.308,7.936-16.196l52.403,52.395l52.395,52.395C286.902,324.883,281.091,327.204,276.602,331.693z
				 M466.836,116.559L304.703,278.692c-1.664,1.664-3.849,2.5-6.033,2.5c-2.185,0-4.369-0.836-6.033-2.5
				c-3.337-3.336-3.337-8.73,0-12.066L454.77,104.492c3.336-3.336,8.73-3.336,12.066,0
				C470.172,107.829,470.172,113.222,466.836,116.559z"/>
			<path d="M21.844,441.563c-1.391,0.922-2.483,2.236-3.132,3.763L0.69,487.643c-1.374,3.208-0.657,6.921,1.809,9.387l12.066,12.066
				c1.638,1.63,3.823,2.5,6.033,2.5c1.143,0,2.295-0.23,3.379-0.7l42.155-18.176c1.51-0.657,2.807-1.724,3.721-3.089l19.951-29.764
				l-38.101-38.101L21.844,441.563z"/>
		</g>
	</g>
</g>
<g>
</g>
<g>
</g>
<g>
</g>
<g>
</g>
<g>
</g>
<g>
</g>
<g>
</g>
<g>
</g>
<g>
</g>
<g>
</g>
<g>
</g>
<g>
</g>
<g>
</g>
<g>
</g>
<g>
</g>
</svg>
