<?xml version="1.0" encoding="iso-8859-1"?>
<!-- Generator: Adobe Illustrator 19.0.0, SVG Export Plug-In . SVG Version: 6.00 Build 0)  -->
<svg version="1.1" id="Layer_1" xmlns="http://www.w3.org/2000/svg" xmlns:xlink="http://www.w3.org/1999/xlink" x="0px" y="0px"
	 viewBox="0 0 512 512" style="enable-background:new 0 0 512 512;" xml:space="preserve">
<g>
	<g>
		<g>
			<polygon points="204.8,316.32 307.2,323.634 307.2,306.609 204.8,299.296 			"/>
			<polygon points="204.8,282.187 307.2,289.5 307.2,272.476 204.8,265.163 			"/>
			<polygon points="204.8,418.72 307.2,426.033 307.2,409.009 204.8,401.696 			"/>
			<polygon points="204.8,350.454 307.2,357.767 307.2,340.743 204.8,333.43 			"/>
			<polygon points="204.8,384.587 307.2,391.9 307.2,374.876 204.8,367.563 			"/>
			<path d="M204.8,494.933c0,9.412,7.654,17.067,17.067,17.067h68.267c9.412,0,17.067-7.654,17.067-17.067v-17.655l-102.4-7.313
				V494.933z"/>
			<polygon points="204.8,248.054 307.2,255.367 307.2,238.343 204.8,231.03 			"/>
			<polygon points="204.8,452.854 307.2,460.167 307.2,443.143 204.8,435.83 			"/>
			<path d="M119.467,17.067v51.2c0,9.412,7.654,17.067,17.067,17.067h34.133V0h-34.133C127.121,0,119.467,7.654,119.467,17.067z"/>
			<polygon points="187.733,85.333 204.8,85.333 204.8,213.922 307.2,221.235 307.2,85.333 324.267,85.333 324.267,0 187.733,0 			
				"/>
			<path d="M375.467,0h-34.133v85.333h34.133c9.412,0,17.067-7.654,17.067-17.067v-51.2C392.533,7.654,384.879,0,375.467,0z"/>
		</g>
	</g>
</g>
<g>
</g>
<g>
</g>
<g>
</g>
<g>
</g>
<g>
</g>
<g>
</g>
<g>
</g>
<g>
</g>
<g>
</g>
<g>
</g>
<g>
</g>
<g>
</g>
<g>
</g>
<g>
</g>
<g>
</g>
</svg>
