<?xml version="1.0" encoding="iso-8859-1"?>
<!-- Generator: Adobe Illustrator 19.0.0, SVG Export Plug-In . SVG Version: 6.00 Build 0)  -->
<svg version="1.1" id="Layer_1" xmlns="http://www.w3.org/2000/svg" xmlns:xlink="http://www.w3.org/1999/xlink" x="0px" y="0px"
	 viewBox="0 0 512 512" style="enable-background:new 0 0 512 512;" xml:space="preserve">
<g>
	<g>
		<g>
			<path d="M337.067,0c-10.743,0-21.06,2.313-30.319,6.315C305.758,2.697,302.592,0,298.667,0h-85.333
				c-3.925,0-7.091,2.697-8.081,6.315C195.994,2.313,185.677,0,174.933,0c-35.294,0-64,22.963-64,51.2s28.706,51.2,64,51.2
				c10.743,0,21.06-2.313,30.319-6.315c0.99,3.618,4.156,6.315,8.081,6.315h8.533v52.011l68.267,6.827V102.4h8.533
				c3.925,0,7.091-2.697,8.081-6.315c9.259,4.002,19.576,6.315,30.319,6.315c35.294,0,64-22.963,64-51.2S372.361,0,337.067,0z
				 M290.133,20.454v61.491v3.388H281.6h-51.2h-8.533v-3.388V20.454v-3.388h68.267V20.454z"/>
			<polygon points="221.867,290.943 290.133,297.77 290.133,280.788 221.867,273.962 			"/>
			<polygon points="221.867,256.81 290.133,263.637 290.133,246.655 221.867,239.828 			"/>
			<polygon points="221.867,393.343 290.133,400.17 290.133,383.189 221.867,376.362 			"/>
			<polygon points="221.867,359.21 290.133,366.036 290.133,349.055 221.867,342.228 			"/>
			<polygon points="221.867,325.077 290.133,331.903 290.133,314.922 221.867,308.095 			"/>
			<polygon points="221.867,222.676 290.133,229.503 290.133,212.522 221.867,205.695 			"/>
			<path d="M221.867,503.467c0,4.719,3.823,8.533,8.533,8.533h51.2c4.71,0,8.533-3.814,8.533-8.533v-17.877l-68.267-6.827V503.467z"
				/>
			<polygon points="221.867,188.543 290.133,195.37 290.133,178.388 221.867,171.562 			"/>
			<polygon points="221.867,461.61 290.133,468.436 290.133,451.455 221.867,444.629 			"/>
			<polygon points="221.867,427.476 290.133,434.303 290.133,417.322 221.867,410.495 			"/>
		</g>
	</g>
</g>
<g>
</g>
<g>
</g>
<g>
</g>
<g>
</g>
<g>
</g>
<g>
</g>
<g>
</g>
<g>
</g>
<g>
</g>
<g>
</g>
<g>
</g>
<g>
</g>
<g>
</g>
<g>
</g>
<g>
</g>
</svg>
