<?xml version="1.0" encoding="iso-8859-1"?>
<!-- Generator: Adobe Illustrator 19.0.0, SVG Export Plug-In . SVG Version: 6.00 Build 0)  -->
<svg version="1.1" id="Layer_1" xmlns="http://www.w3.org/2000/svg" xmlns:xlink="http://www.w3.org/1999/xlink" x="0px" y="0px"
	 viewBox="0 0 504.446 504.446" style="enable-background:new 0 0 504.446 504.446;" xml:space="preserve">
<g>
	<g>
		<path d="M342.872,312.236c-5.875-6.715-14.269-10.072-23.502-10.072h-33.574v-41.967h-8.393V114.99
			c24.341-7.554,41.967-29.377,41.967-56.236V16.787h-25.18V0h-83.934v16.787h-25.18v41.967c0,26.859,17.626,48.682,41.967,56.236
			v145.207h-8.393v41.967h-33.574c-8.393,0-16.787,3.357-23.502,9.233c-6.715,6.715-10.072,15.108-10.072,24.341v91.489
			c0,17.626,7.554,34.413,20.984,46.164c22.662,20.984,51.2,31.056,79.738,31.056s57.075-10.072,79.738-31.056
			c13.43-11.751,20.984-28.538,20.984-46.164v-91.489C352.944,326.505,349.587,318.112,342.872,312.236z M201.862,58.754v-25.18
			h8.393v16.787h83.934V33.574h8.393v25.18c0,20.144-14.269,36.931-33.574,41.128h-0.839c-1.679,0.839-5.036,0.839-7.554,0.839
			H243.83c-2.518,0-5.036,0-7.554-0.839h-0.839C216.131,95.685,201.862,78.898,201.862,58.754z M269.01,276.984v25.18h-33.574
			v-25.18H269.01z M285.797,343.292c0,14.269-11.751,26.02-26.02,26.02h-15.108c-14.269,0-26.02-11.751-26.02-26.02v-7.554
			c0-5.036,3.357-8.393,8.393-8.393s8.393,3.357,8.393,8.393v7.554c0,5.036,4.197,9.233,9.233,9.233h15.108
			c5.036,0,9.233-4.197,9.233-9.233v-7.554c0-5.036,3.357-8.393,8.393-8.393c5.036,0,8.393,3.357,8.393,8.393V343.292z"/>
	</g>
</g>
<g>
</g>
<g>
</g>
<g>
</g>
<g>
</g>
<g>
</g>
<g>
</g>
<g>
</g>
<g>
</g>
<g>
</g>
<g>
</g>
<g>
</g>
<g>
</g>
<g>
</g>
<g>
</g>
<g>
</g>
</svg>
