<?xml version="1.0" encoding="iso-8859-1"?>
<!-- Generator: Adobe Illustrator 19.0.0, SVG Export Plug-In . SVG Version: 6.00 Build 0)  -->
<svg version="1.1" id="Layer_1" xmlns="http://www.w3.org/2000/svg" xmlns:xlink="http://www.w3.org/1999/xlink" x="0px" y="0px"
	 viewBox="0 0 512.002 512.002" style="enable-background:new 0 0 512.002 512.002;" xml:space="preserve">
<g>
	<g>
		<g>
			<path d="M230.401,116.949V256h51.2V116.949c24.644-7.364,42.667-30.216,42.667-57.216V17.067h-25.6V0h-85.333v17.067h-25.6
				v42.667C187.734,86.733,205.757,109.585,230.401,116.949z M204.801,34.133h8.533V51.2h85.333V34.133h8.533v25.6
				c0,20.489-14.524,37.623-33.809,41.711l-0.802,0.145c-2.611,0.495-5.299,0.811-8.055,0.811h-17.067
				c-2.756,0-5.444-0.316-8.055-0.811l-0.802-0.145c-19.285-4.087-33.809-21.222-33.809-41.711V34.133z"/>
			<path d="M361.055,296.509c-3.302-4.053-8.183-6.374-13.406-6.374h-66.048v-17.067h-51.2v17.067h-66.048
				c-5.222,0-10.104,2.321-13.406,6.374c-3.294,4.053-4.574,9.31-3.507,14.421l41.89,201.071h133.342l41.89-201.071
				C365.629,305.819,364.349,300.563,361.055,296.509z M290.134,349.092c0,14.626-11.904,26.522-26.522,26.522h-15.223
				c-14.618,0-26.522-11.895-26.522-26.522v-7.612c0-4.71,3.823-8.533,8.533-8.533s8.533,3.823,8.533,8.533v7.612
				c0,5.214,4.241,9.455,9.455,9.455h15.223c5.214,0,9.455-4.241,9.455-9.455v-7.612c0-4.71,3.823-8.533,8.533-8.533
				s8.533,3.823,8.533,8.533V349.092z"/>
		</g>
	</g>
</g>
<g>
</g>
<g>
</g>
<g>
</g>
<g>
</g>
<g>
</g>
<g>
</g>
<g>
</g>
<g>
</g>
<g>
</g>
<g>
</g>
<g>
</g>
<g>
</g>
<g>
</g>
<g>
</g>
<g>
</g>
</svg>
