<?xml version="1.0" encoding="iso-8859-1"?>
<!-- Generator: Adobe Illustrator 19.0.0, SVG Export Plug-In . SVG Version: 6.00 Build 0)  -->
<svg version="1.1" id="Layer_1" xmlns="http://www.w3.org/2000/svg" xmlns:xlink="http://www.w3.org/1999/xlink" x="0px" y="0px"
	 viewBox="0 0 512 512" style="enable-background:new 0 0 512 512;" xml:space="preserve">
<g>
	<g>
		<path d="M300.527,384.205c-0.614-0.137-1.237-0.205-1.86-0.205H281.6V63.437c3.857-3.49,7.748-6.281,11.529-8.96
			c11.042-7.817,22.46-15.898,22.46-37.41C315.588,7.014,308.574,0,298.547,0h-85.214c-10.052,0-17.067,7.014-17.067,17.067
			c0,21.495,11.46,29.568,22.536,37.385c3.806,2.679,7.723,5.487,11.597,8.986V384h-17.067c-0.623,0-1.237,0.068-1.86,0.205
			c-6.349,1.408-15.206,8.508-15.206,16.862v42.667c0,30.746,20.122,57.6,50.074,66.816c3.149,0.964,6.391,1.451,9.66,1.451
			c3.268,0,6.519-0.486,9.668-1.451c29.952-9.216,50.065-36.07,50.065-66.816v-42.667
			C315.733,392.713,306.876,385.613,300.527,384.205z M242.364,51.2c-4.813-4.42-9.515-7.723-13.73-10.701
			c-10.027-7.074-15.13-10.675-15.232-23.432l85.12,0.06c-0.017,12.629-5.12,16.239-15.249,23.415
			c-4.19,2.97-8.849,6.263-13.628,10.658H242.364z"/>
	</g>
</g>
<g>
</g>
<g>
</g>
<g>
</g>
<g>
</g>
<g>
</g>
<g>
</g>
<g>
</g>
<g>
</g>
<g>
</g>
<g>
</g>
<g>
</g>
<g>
</g>
<g>
</g>
<g>
</g>
<g>
</g>
</svg>
