<?xml version="1.0" encoding="iso-8859-1"?>
<!-- Generator: Adobe Illustrator 19.0.0, SVG Export Plug-In . SVG Version: 6.00 Build 0)  -->
<svg version="1.1" id="Layer_1" xmlns="http://www.w3.org/2000/svg" xmlns:xlink="http://www.w3.org/1999/xlink" x="0px" y="0px"
	 viewBox="0 0 512 512" style="enable-background:new 0 0 512 512;" xml:space="preserve">
<g>
	<g>
		<path d="M281.6,393.395V63.437c3.857-3.49,7.748-6.281,11.529-8.96c11.042-7.817,22.46-15.898,22.46-37.41
			C315.588,7.014,308.574,0,298.547,0h-85.214c-10.052,0-17.067,7.014-17.067,17.067c0,21.495,11.46,29.568,22.536,37.385
			c3.806,2.679,7.723,5.487,11.597,8.986v329.958c-19.447,3.968-34.133,21.205-34.133,41.805v68.267c0,4.71,3.814,8.533,8.533,8.533
			h102.4c4.719,0,8.533-3.823,8.533-8.533V435.2C315.733,414.601,301.047,397.363,281.6,393.395z M242.364,51.2
			c-4.813-4.42-9.515-7.723-13.73-10.701c-10.027-7.074-15.13-10.675-15.232-23.432l85.12,0.06
			c-0.017,12.629-5.12,16.239-15.249,23.415c-4.19,2.97-8.849,6.263-13.628,10.658H242.364z"/>
	</g>
</g>
<g>
</g>
<g>
</g>
<g>
</g>
<g>
</g>
<g>
</g>
<g>
</g>
<g>
</g>
<g>
</g>
<g>
</g>
<g>
</g>
<g>
</g>
<g>
</g>
<g>
</g>
<g>
</g>
<g>
</g>
</svg>
