<?xml version="1.0" encoding="iso-8859-1"?>
<!-- Generator: Adobe Illustrator 19.0.0, SVG Export Plug-In . SVG Version: 6.00 Build 0)  -->
<svg version="1.1" id="Layer_1" xmlns="http://www.w3.org/2000/svg" xmlns:xlink="http://www.w3.org/1999/xlink" x="0px" y="0px"
	 viewBox="0 0 503.607 503.607" style="enable-background:new 0 0 503.607 503.607;" xml:space="preserve">
<g>
	<g>
		<g>
			<path d="M419.672,222.426c0-19.674-8.553-37.342-22.083-49.63c-3.936,32.995-3.936,66.266,0,99.261
				C411.119,259.769,419.672,242.1,419.672,222.426z"/>
			<path d="M285.377,222.426c0,19.674,8.553,37.342,22.083,49.63c3.937-32.995,3.937-66.266,0-99.261
				C293.93,185.084,285.377,202.752,285.377,222.426z"/>
			<path d="M176.262,272.787v11.868c25.164-10.055,41.967-34.338,41.967-62.229s-16.804-52.174-41.967-62.229v11.868
				c0,4.642-3.76,8.393-8.393,8.393h-33.574c-4.633,0-8.393-3.752-8.393-8.393v-11.868c-25.164,10.055-41.967,34.338-41.967,62.229
				s16.804,52.174,41.967,62.229v-11.868c0-4.642,3.76-8.393,8.393-8.393h33.574C172.502,264.393,176.262,268.145,176.262,272.787z
				 M125.902,239.213c-9.275,0-16.787-7.521-16.787-16.787s7.512-16.787,16.787-16.787c9.275,0,16.787,7.521,16.787,16.787
				S135.176,239.213,125.902,239.213z M159.475,222.426c0-9.266,7.512-16.787,16.787-16.787c9.275,0,16.787,7.521,16.787,16.787
				s-7.512,16.787-16.787,16.787C166.988,239.213,159.475,231.693,159.475,222.426z"/>
			<path d="M453.246,37.77H50.361C22.587,37.77,0,60.357,0,88.131v268.59c0,27.774,22.587,50.361,50.361,50.361h293.77
				c0,8.108,1.511,15.88,4.482,23.107c10.744,26.154,41.489,38.24,70.01,27.53c16.93-6.354,42.605-5.598,53.869,5.657
				c1.637,1.637,3.785,2.459,5.934,2.459s4.297-0.823,5.934-2.459c3.282-3.282,3.282-8.586,0-11.868
				c-16.577-16.577-49.446-17.836-71.646-9.51c-19.968,7.521-41.296-0.487-48.573-18.197c-2.14-5.187-3.223-10.819-3.223-16.72
				h92.328c27.774,0,50.361-22.587,50.361-50.361V88.131C503.607,60.357,481.02,37.77,453.246,37.77z M344.131,305.79
				c-0.638-0.067-1.301-0.05-1.93-0.134c-0.797-0.101-1.57-0.235-2.359-0.361c-2.887-0.436-5.724-1.024-8.511-1.746
				c-0.537-0.151-1.083-0.269-1.62-0.42c-6.958-1.972-13.53-4.818-19.632-8.419c-0.159-0.092-0.336-0.151-0.495-0.252
				c-0.084-0.05-0.143-0.134-0.227-0.185c-24.375-14.705-40.767-41.363-40.767-71.848s16.384-57.143,40.767-71.848
				c0.084-0.05,0.143-0.134,0.227-0.185c0.151-0.092,0.319-0.151,0.47-0.243c12.481-7.361,26.968-11.659,42.471-11.659
				c15.503,0,29.99,4.297,42.471,11.659c0.151,0.092,0.319,0.151,0.47,0.243c0.084,0.05,0.143,0.134,0.227,0.185
				c24.383,14.705,40.767,41.363,40.767,71.848s-16.392,57.143-40.767,71.848c-0.084,0.05-0.143,0.134-0.227,0.185
				c-0.159,0.101-0.336,0.159-0.495,0.252c-6.102,3.601-12.674,6.446-19.632,8.419c-0.537,0.151-1.083,0.269-1.62,0.42
				c-2.787,0.722-5.624,1.309-8.511,1.746c-0.789,0.126-1.561,0.26-2.359,0.361c-0.63,0.084-1.293,0.067-1.93,0.134v-17.03
				c4.717-0.588,9.401-1.494,13.9-3.072c0.109-0.042,0.218-0.076,0.319-0.117c2.233-0.797,4.423-1.721,6.572-2.761
				c0.101-0.05,0.201-0.092,0.294-0.143c-5.573-40.012-5.573-80.468,0-120.479c-0.092-0.05-0.193-0.092-0.294-0.143
				c-2.149-1.041-4.339-1.964-6.572-2.761c-0.101-0.042-0.21-0.076-0.319-0.118c-14.336-5.028-30.25-5.028-44.586,0
				c-0.109,0.042-0.218,0.076-0.319,0.118c-2.233,0.797-4.423,1.721-6.572,2.761c-0.101,0.05-0.201,0.092-0.294,0.143
				c5.573,40.012,5.573,80.468,0,120.479c0.092,0.05,0.193,0.092,0.294,0.143c2.149,1.041,4.339,1.964,6.572,2.761
				c0.101,0.042,0.21,0.076,0.319,0.117c4.499,1.578,9.182,2.484,13.899,3.072V305.79z M344.131,230.82
				c-4.633,0-8.393-3.752-8.393-8.393c0-4.642,3.76-8.393,8.393-8.393h16.787c4.633,0,8.393,3.752,8.393,8.393
				c0,4.642-3.76,8.393-8.393,8.393H344.131z M470.033,344.131c0,16.199-13.178,29.377-29.377,29.377h-79.738v-16.787h79.738
				c6.941,0,12.59-5.649,12.59-12.59v-243.41c0-6.941-5.649-12.59-12.59-12.59H62.951c-6.941,0-12.59,5.649-12.59,12.59v243.41
				c0,6.941,5.649,12.59,12.59,12.59h281.18v16.787H62.951c-16.199,0-29.377-13.178-29.377-29.377v-243.41
				c0-16.199,13.178-29.377,29.377-29.377h377.705c16.199,0,29.377,13.178,29.377,29.377V344.131z M142.689,281.18v14.856
				c0,2.543-1.158,4.961-3.156,6.555c-1.998,1.586-4.6,2.191-7.101,1.628c-38.434-8.738-65.284-42.37-65.284-81.794
				s26.851-73.057,65.284-81.794c2.501-0.562,5.103,0.034,7.101,1.628c1.998,1.595,3.156,4.012,3.156,6.555v14.856h16.787v-14.856
				c0-2.543,1.158-4.961,3.156-6.555c1.998-1.586,4.591-2.191,7.101-1.628c38.434,8.738,65.284,42.37,65.284,81.794
				s-26.851,73.057-65.284,81.794c-0.621,0.143-1.242,0.21-1.863,0.21c-1.888,0-3.735-0.638-5.237-1.838
				c-1.998-1.595-3.156-4.012-3.156-6.555V281.18H142.689z"/>
		</g>
	</g>
</g>
<g>
</g>
<g>
</g>
<g>
</g>
<g>
</g>
<g>
</g>
<g>
</g>
<g>
</g>
<g>
</g>
<g>
</g>
<g>
</g>
<g>
</g>
<g>
</g>
<g>
</g>
<g>
</g>
<g>
</g>
</svg>
