<?xml version="1.0" encoding="iso-8859-1"?>
<!-- Generator: Adobe Illustrator 19.0.0, SVG Export Plug-In . SVG Version: 6.00 Build 0)  -->
<svg version="1.1" id="Layer_1" xmlns="http://www.w3.org/2000/svg" xmlns:xlink="http://www.w3.org/1999/xlink" x="0px" y="0px"
	 viewBox="0 0 503.607 503.607" style="enable-background:new 0 0 503.607 503.607;" xml:space="preserve">
<g>
	<g>
		<g>
			<path d="M151.082,427.642v-24.752c0-4.642,3.752-8.393,8.393-8.393s8.393,3.752,8.393,8.393v24.752
				c42.353-4.222,75.541-40.062,75.541-83.506s-33.188-79.284-75.541-83.506v24.752c0,4.642-3.752,8.393-8.393,8.393
				s-8.393-3.752-8.393-8.393v-24.752c-42.353,4.222-75.541,40.062-75.541,83.506S108.729,423.42,151.082,427.642z M184.656,327.348
				c9.275,0,16.787,7.521,16.787,16.787s-7.512,16.787-16.787,16.787c-9.275,0-16.787-7.521-16.787-16.787
				S175.381,327.348,184.656,327.348z M134.295,327.348c9.275,0,16.787,7.521,16.787,16.787s-7.512,16.787-16.787,16.787
				c-9.275,0-16.787-7.521-16.787-16.787S125.02,327.348,134.295,327.348z"/>
			<path d="M495.213,109.115h-25.18V25.18c0-13.883-11.298-25.18-25.18-25.18s-25.18,11.298-25.18,25.18v83.934H302.164V25.18
				c0-13.883-11.298-25.18-25.18-25.18s-25.18,11.298-25.18,25.18v83.934h-25.18c-4.642,0-8.393,3.76-8.393,8.393v63.522
				c0,1.217,0.143,2.417,0.168,3.626H50.361C22.587,184.656,0,207.251,0,235.016v218.23c0,27.774,22.587,50.361,50.361,50.361
				H268.59c27.774,0,50.361-22.587,50.361-50.361v-0.218c7.042,5.33,15.713,8.612,25.206,8.612h8.368v33.574
				c0,4.642,3.752,8.393,8.393,8.393c4.642,0,8.393-3.752,8.393-8.393v-33.574h8.368c23.157,0,41.992-18.835,41.992-41.984v-21.512
				c0-38.123,14.126-74.66,39.802-102.929c28.462-31.307,44.133-71.856,44.133-114.176v-63.53
				C503.607,112.875,499.855,109.115,495.213,109.115z M268.59,25.18c0-4.625,3.76-8.393,8.393-8.393s8.393,3.769,8.393,8.393
				v83.934H268.59V25.18z M227.11,235.016c0.185,0.571,0.453,1.1,0.655,1.662c1.511,4.373,3.215,8.662,5.086,12.892
				c0.428,0.965,0.823,1.93,1.267,2.879c1.393,3.013,2.896,5.959,4.465,8.88c0.739,1.377,1.494,2.736,2.266,4.088
				c0.42,0.739,0.814,1.502,1.251,2.233c1.041,1.754,2.115,3.475,3.223,5.187c1.326,2.082,2.753,4.088,4.172,6.11
				c0.185,0.269,0.361,0.537,0.554,0.806c0.537,0.755,1.016,1.544,1.561,2.291c0.537,0.722,1.083,1.427,1.628,2.14
				c2.896,3.802,5.917,7.495,9.141,11.037c2.191,2.417,4.188,4.977,6.211,7.504v137.929c0,6.95-5.649,12.59-12.59,12.59H62.951
				c-6.941,0-12.59-5.64-12.59-12.59V247.607c0-6.941,5.649-12.59,12.59-12.59H227.11z M302.164,419.655v33.591
				c0,18.524-15.058,33.574-33.574,33.574H50.361c-18.516,0-33.574-15.049-33.574-33.574v-218.23
				c0-18.516,15.058-33.574,33.574-33.574h169.212c0.067,0.52,0.176,1.016,0.243,1.528c0.672,5.145,1.57,10.232,2.694,15.259H62.951
				c-16.199,0-29.377,13.186-29.377,29.377v193.049c0,16.199,13.178,29.377,29.377,29.377H256c16.199,0,29.377-13.178,29.377-29.377
				V328.578c10.92,21.361,16.787,45.115,16.787,69.556V419.655z M419.672,235.016H302.164c-4.642,0-8.393-3.752-8.393-8.393
				c0-4.633,3.752-8.393,8.393-8.393h117.508c4.642,0,8.393,3.76,8.393,8.393C428.066,231.265,424.314,235.016,419.672,235.016z
				 M419.672,201.619H302.164c-4.642,0-8.393-3.752-8.393-8.393c0-4.642,3.752-8.393,8.393-8.393h117.508
				c4.642,0,8.393,3.752,8.393,8.393C428.066,197.867,424.314,201.619,419.672,201.619z M453.246,109.115h-16.787V25.18
				c0-4.625,3.76-8.393,8.393-8.393c4.633,0,8.393,3.769,8.393,8.393V109.115z"/>
		</g>
	</g>
</g>
<g>
</g>
<g>
</g>
<g>
</g>
<g>
</g>
<g>
</g>
<g>
</g>
<g>
</g>
<g>
</g>
<g>
</g>
<g>
</g>
<g>
</g>
<g>
</g>
<g>
</g>
<g>
</g>
<g>
</g>
</svg>
