<?xml version="1.0" encoding="iso-8859-1"?>
<!-- Generator: Adobe Illustrator 19.0.0, SVG Export Plug-In . SVG Version: 6.00 Build 0)  -->
<svg version="1.1" id="Layer_1" xmlns="http://www.w3.org/2000/svg" xmlns:xlink="http://www.w3.org/1999/xlink" x="0px" y="0px"
	 viewBox="0 0 502.016 502.016" style="enable-background:new 0 0 502.016 502.016;" xml:space="preserve">
<g>
	<g>
		<path d="M453.246,36.136H50.361C22.662,36.136,0,58.798,0,86.496v268.59c0,27.698,22.662,50.361,50.361,50.361h92.328
			c0,8.393,1.679,15.948,4.197,23.502c10.911,26.02,41.128,38.61,69.666,27.698c16.787-6.715,42.807-5.875,53.718,5.875
			c1.679,1.679,4.197,2.518,5.875,2.518c2.518,0,4.197-0.839,5.875-2.518c3.357-3.357,3.357-8.393,0-11.751
			c-16.787-16.787-49.521-17.626-71.344-9.233c-20.144,7.554-41.128-0.839-48.682-18.466c-2.518-5.036-3.357-10.911-3.357-16.787
			h184.656c0,8.393,1.679,15.948,4.197,23.502c10.911,26.02,41.128,38.61,69.666,27.698c16.787-6.715,42.807-5.875,53.718,5.875
			c1.679,1.679,4.197,2.518,5.875,2.518c2.518,0,4.197-0.839,5.875-2.518c3.357-3.357,3.357-8.393,0-11.751
			c-16.787-16.787-49.521-17.626-71.344-9.233c-20.144,7.554-41.128-0.839-48.682-18.466c-2.518-5.036-3.357-10.911-3.357-16.787
			h92.328c27.698,0,50.361-22.662,50.361-50.361V86.496C503.607,58.798,480.944,36.136,453.246,36.136z M142.689,304.726h-41.967
			c-18.466,0-33.574-15.108-33.574-33.574v-67.148c0-13.43,5.036-26.02,15.108-35.252l20.984-20.984
			c7.554-7.554,16.787-10.911,26.859-10.911h42.807c10.072,0,19.305,4.197,26.859,10.911l20.984,20.984
			c9.233,9.233,15.108,22.662,15.108,35.252v67.148c0,18.466-15.108,33.574-33.574,33.574h-41.967v-16.787h41.967
			c9.233,0,16.787-7.554,16.787-16.787v-67.148c0-8.393-3.357-17.626-10.072-23.502l-20.984-20.984
			c-4.197-4.197-9.233-5.875-15.108-5.875h-42.807c-5.875,0-10.911,2.518-15.108,5.875l-20.984,20.984
			c-6.715,6.715-10.072,15.108-10.072,24.341v67.148c0,9.233,7.554,16.787,16.787,16.787h41.967V304.726z M142.689,229.185
			c-5.036,0-8.393-3.357-8.393-8.393s3.357-8.393,8.393-8.393h16.787c5.036,0,8.393,3.357,8.393,8.393s-3.357,8.393-8.393,8.393
			H142.689z M344.131,371.873H159.475v-16.787h184.656V371.873z M344.131,304.726h-41.967c-18.466,0-33.574-15.108-33.574-33.574
			v-67.148c0-13.43,5.036-26.02,15.108-35.252l20.984-20.984c7.554-7.554,16.787-10.911,26.859-10.911h42.807
			c10.072,0,19.305,4.197,26.859,10.911l20.984,20.984c9.233,9.233,15.108,22.662,15.108,35.252v67.148
			c0,18.466-15.108,33.574-33.574,33.574h-41.967v-16.787h41.967c9.233,0,16.787-7.554,16.787-16.787v-67.148
			c0-8.393-3.357-17.626-10.072-23.502l-20.984-20.984c-4.197-4.197-9.233-5.875-15.108-5.875h-42.807
			c-5.875,0-10.911,2.518-15.108,5.875l-20.984,20.984c-6.715,6.715-10.072,15.108-10.072,24.341v67.148
			c0,9.233,7.554,16.787,16.787,16.787h41.967V304.726z M344.131,229.185c-5.036,0-8.393-3.357-8.393-8.393s3.357-8.393,8.393-8.393
			h16.787c5.036,0,8.393,3.357,8.393,8.393s-3.357,8.393-8.393,8.393H344.131z M470.033,342.496
			c0,15.948-13.43,29.377-29.377,29.377h-79.738v-16.787h79.738c6.715,0,12.59-5.875,12.59-12.59V99.086
			c0-6.715-5.875-12.59-12.59-12.59H62.951c-6.715,0-12.59,5.875-12.59,12.59v243.41c0,6.715,5.875,12.59,12.59,12.59h79.738v16.787
			H62.951c-15.948,0-29.377-13.43-29.377-29.377V99.086c0-15.948,13.43-29.377,29.377-29.377h377.705
			c15.948,0,29.377,13.43,29.377,29.377V342.496z"/>
	</g>
</g>
<g>
</g>
<g>
</g>
<g>
</g>
<g>
</g>
<g>
</g>
<g>
</g>
<g>
</g>
<g>
</g>
<g>
</g>
<g>
</g>
<g>
</g>
<g>
</g>
<g>
</g>
<g>
</g>
<g>
</g>
</svg>
