<?xml version="1.0" encoding="iso-8859-1"?>
<!-- Generator: Adobe Illustrator 19.0.0, SVG Export Plug-In . SVG Version: 6.00 Build 0)  -->
<svg version="1.1" id="Layer_1" xmlns="http://www.w3.org/2000/svg" xmlns:xlink="http://www.w3.org/1999/xlink" x="0px" y="0px"
	 viewBox="0 0 503.607 503.607" style="enable-background:new 0 0 503.607 503.607;" xml:space="preserve">
<g>
	<g>
		<g>
			<rect x="201.444" y="184.652" width="16.787" height="33.574"/>
			<rect x="285.379" y="184.652" width="16.787" height="33.574"/>
			<path d="M260.197,293.77c0-4.633-3.769-8.393-8.393-8.393c-4.625,0-8.393,3.76-8.393,8.393v25.18h16.787V293.77z"/>
			<path d="M142.689,360.918h218.229v-218.23H142.689V360.918z M268.59,176.262c0-4.642,3.76-8.393,8.393-8.393h33.574
				c4.633,0,8.393,3.752,8.393,8.393v50.361c0,4.642-3.76,8.393-8.393,8.393h-33.574c-4.633,0-8.393-3.752-8.393-8.393V176.262z
				 M276.984,293.77v33.574c0,4.642-3.76,8.393-8.393,8.393h-33.574c-4.633,0-8.393-3.752-8.393-8.393V293.77
				c0-13.883,11.298-25.18,25.18-25.18S276.984,279.888,276.984,293.77z M184.656,176.262c0-4.642,3.76-8.393,8.393-8.393h33.574
				c4.633,0,8.393,3.752,8.393,8.393v50.361c0,4.642-3.76,8.393-8.393,8.393h-33.574c-4.633,0-8.393-3.752-8.393-8.393V176.262z"/>
			<path d="M453.246,0H50.361C22.587,0,0,22.587,0,50.361v402.885c0,27.774,22.587,50.361,50.361,50.361h402.885
				c27.774,0,50.361-22.587,50.361-50.361V50.361C503.607,22.587,481.02,0,453.246,0z M470.033,440.656
				c0,16.199-13.178,29.377-29.377,29.377H62.951c-16.199,0-29.377-13.178-29.377-29.377V62.951
				c0-16.199,13.178-29.377,29.377-29.377h377.705c16.199,0,29.377,13.178,29.377,29.377V440.656z"/>
			<path d="M440.656,50.361H62.951c-6.941,0-12.59,5.649-12.59,12.59v377.705c0,6.941,5.649,12.59,12.59,12.59h377.705
				c6.941,0,12.59-5.649,12.59-12.59V62.951C453.246,56.009,447.597,50.361,440.656,50.361z M377.705,369.311
				c0,4.642-3.76,8.393-8.393,8.393H134.295c-4.633,0-8.393-3.752-8.393-8.393V134.295c0-4.642,3.76-8.393,8.393-8.393h235.016
				c4.633,0,8.393,3.752,8.393,8.393V369.311z"/>
		</g>
	</g>
</g>
<g>
</g>
<g>
</g>
<g>
</g>
<g>
</g>
<g>
</g>
<g>
</g>
<g>
</g>
<g>
</g>
<g>
</g>
<g>
</g>
<g>
</g>
<g>
</g>
<g>
</g>
<g>
</g>
<g>
</g>
</svg>
