<?xml version="1.0" encoding="iso-8859-1"?>
<!-- Generator: Adobe Illustrator 19.0.0, SVG Export Plug-In . SVG Version: 6.00 Build 0)  -->
<svg version="1.1" id="Layer_1" xmlns="http://www.w3.org/2000/svg" xmlns:xlink="http://www.w3.org/1999/xlink" x="0px" y="0px"
	 viewBox="0 0 511.984 511.984" style="enable-background:new 0 0 511.984 511.984;" xml:space="preserve">
<g>
	<g>
		<path d="M409.592,349.85H296.977c-2.543-8.661-7.919-16.35-15.522-21.615c-10.206-7.074-23.083-8.909-34.859-5.18l-12.809-39.441
			l16.538-4.429c4.557-1.22,7.253-5.905,6.033-10.453L194.526,37.94c-7.313-27.273-35.456-43.477-62.711-36.198
			C104.551,9.055,88.303,37.18,95.608,64.444l42.368,158.114l32.196-10.231c4.454-1.442,9.284,1.05,10.709,5.547
			c1.425,4.497-1.058,9.293-5.547,10.718l-32.939,10.47l4.096,15.292l41.062-11.349c4.557-1.237,9.25,1.408,10.505,5.948
			s-1.408,9.242-5.956,10.496l-41.19,11.401l6.537,24.397c0.589,2.185,2.022,4.045,3.977,5.18c1.306,0.751,2.782,1.143,4.267,1.143
			c0.742,0,1.485-0.102,2.21-0.29l16.41-4.403l11.674,35.831c-0.563,0.008-1.118,0.077-1.673,0.077h-23.654
			c-4.719,0-8.533,3.814-8.533,8.533v51.2v93.261c0,14.694,11.247,26.206,25.6,26.206c13.688,0,25.165-10.692,26.129-24.235
			l7.313-86.699h17.758v42.667c0,4.719,3.814,8.533,8.533,8.533c4.71,0,8.533-3.814,8.533-8.533V401.05h2.697
			c20.045,0,36.523-14.874,39.381-34.133h111.522c4.71,0,8.533-3.814,8.533-8.533S414.302,349.85,409.592,349.85z M196.839,486.426
			c-0.341,4.77-4.344,8.491-9.114,8.491c-4.872,0-8.533-3.934-8.533-9.139V401.05h24.849L196.839,486.426z M216.286,330.975
			c-0.93,0.145-1.86,0.256-2.79,0.384l-12.681-38.903l15.164-4.062l1.297-0.35l13.005,40.013
			C225.587,329.293,220.92,330.232,216.286,330.975z"/>
	</g>
</g>
<g>
</g>
<g>
</g>
<g>
</g>
<g>
</g>
<g>
</g>
<g>
</g>
<g>
</g>
<g>
</g>
<g>
</g>
<g>
</g>
<g>
</g>
<g>
</g>
<g>
</g>
<g>
</g>
<g>
</g>
</svg>
