<?xml version="1.0" encoding="iso-8859-1"?>
<!-- Generator: Adobe Illustrator 19.0.0, SVG Export Plug-In . SVG Version: 6.00 Build 0)  -->
<svg version="1.1" id="Layer_1" xmlns="http://www.w3.org/2000/svg" xmlns:xlink="http://www.w3.org/1999/xlink" x="0px" y="0px"
	 viewBox="0 0 503.607 503.607" style="enable-background:new 0 0 503.607 503.607;" xml:space="preserve">
<g>
	<g>
		<g>
			<path d="M109.534,394.492H243.41V260.197H109.534V394.492z M167.869,302.164c0-4.642,3.76-8.393,8.393-8.393
				s8.393,3.752,8.393,8.393v50.361c0,4.642-3.76,8.393-8.393,8.393s-8.393-3.752-8.393-8.393V302.164z"/>
			<path d="M260.616,394.492h133.875V260.197H260.616V394.492z M318.951,302.164c0-4.642,3.76-8.393,8.393-8.393
				s8.393,3.752,8.393,8.393v50.361c0,4.642-3.76,8.393-8.393,8.393s-8.393-3.752-8.393-8.393V302.164z"/>
			<path d="M386.098,109.115h-33.574c0,4.633-3.76,8.393-8.393,8.393c-4.633,0-8.393-3.76-8.393-8.393h-33.574
				c0,4.633-3.76,8.393-8.393,8.393c-4.633,0-8.393-3.76-8.393-8.393h-25.18v25.18c0-4.633,3.76-8.393,8.393-8.393
				s8.393,3.76,8.393,8.393s-3.76,8.393-8.393,8.393s-8.393-3.76-8.393-8.393v50.361c0-4.633,3.76-8.393,8.393-8.393
				s8.393,3.76,8.393,8.393s-3.76,8.393-8.393,8.393s-8.393-3.76-8.393-8.393v50.361c4.633,0,8.393,3.76,8.393,8.393h33.574
				c0-4.633,3.76-8.393,8.393-8.393s8.393,3.76,8.393,8.393h33.574c0-4.633,3.76-8.393,8.393-8.393s8.393,3.76,8.393,8.393h25.18
				v-25.18c-4.633,0-8.393-3.76-8.393-8.393s3.76-8.393,8.393-8.393v-33.574c-4.633,0-8.393-3.76-8.393-8.393
				s3.76-8.393,8.393-8.393v-33.574C389.859,117.508,386.098,113.748,386.098,109.115z M293.77,218.23
				c-4.633,0-8.393-3.76-8.393-8.393s3.76-8.393,8.393-8.393c4.633,0,8.393,3.76,8.393,8.393S298.404,218.23,293.77,218.23z
				 M293.77,167.869c-4.633,0-8.393-3.76-8.393-8.393s3.76-8.393,8.393-8.393c4.633,0,8.393,3.76,8.393,8.393
				S298.404,167.869,293.77,167.869z M318.951,193.049c-4.633,0-8.393-3.76-8.393-8.393s3.76-8.393,8.393-8.393
				s8.393,3.76,8.393,8.393S323.584,193.049,318.951,193.049z M318.951,142.689c-4.633,0-8.393-3.76-8.393-8.393
				s3.76-8.393,8.393-8.393s8.393,3.76,8.393,8.393S323.584,142.689,318.951,142.689z M344.131,218.23
				c-4.633,0-8.393-3.76-8.393-8.393s3.76-8.393,8.393-8.393c4.633,0,8.393,3.76,8.393,8.393S348.764,218.23,344.131,218.23z
				 M344.131,167.869c-4.633,0-8.393-3.76-8.393-8.393s3.76-8.393,8.393-8.393c4.633,0,8.393,3.76,8.393,8.393
				S348.764,167.869,344.131,167.869z M369.311,193.049c-4.633,0-8.393-3.76-8.393-8.393s3.76-8.393,8.393-8.393
				s8.393,3.76,8.393,8.393S373.945,193.049,369.311,193.049z M369.311,142.689c-4.633,0-8.393-3.76-8.393-8.393
				s3.76-8.393,8.393-8.393s8.393,3.76,8.393,8.393S373.945,142.689,369.311,142.689z"/>
			<path d="M470.033,0H33.574C15.058,0,0,15.058,0,33.574v436.459c0,18.516,15.058,33.574,33.574,33.574h436.459
				c18.516,0,33.574-15.058,33.574-33.574V33.574C503.607,15.058,488.549,0,470.033,0z M50.361,470.033
				c-9.275,0-16.787-7.521-16.787-16.787s7.512-16.787,16.787-16.787s16.787,7.521,16.787,16.787S59.635,470.033,50.361,470.033z
				 M50.361,67.148c-9.275,0-16.787-7.521-16.787-16.787c0-9.266,7.512-16.787,16.787-16.787s16.787,7.521,16.787,16.787
				C67.148,59.627,59.635,67.148,50.361,67.148z M411.279,251.803v151.082c0,4.642-3.76,8.393-8.393,8.393H252.223
				c-0.076,0-0.134-0.042-0.21-0.042c-0.076,0-0.134,0.042-0.21,0.042H101.141c-4.633,0-8.393-3.752-8.393-8.393V253.876
				c-0.176-0.68-0.42-1.343-0.42-2.073V100.721c0-4.642,3.76-8.393,8.393-8.393h151.082h151.082c4.633,0,8.393,3.752,8.393,8.393
				V251.803z M453.246,470.033c-9.275,0-16.787-7.521-16.787-16.787s7.512-16.787,16.787-16.787c9.275,0,16.787,7.521,16.787,16.787
				S462.521,470.033,453.246,470.033z M453.246,67.148c-9.275,0-16.787-7.521-16.787-16.787c0-9.266,7.512-16.787,16.787-16.787
				c9.275,0,16.787,7.521,16.787,16.787C470.033,59.627,462.521,67.148,453.246,67.148z"/>
			<path d="M235.016,109.115h-33.574c0,4.633-3.76,8.393-8.393,8.393s-8.393-3.76-8.393-8.393h-33.574
				c0,4.633-3.76,8.393-8.393,8.393s-8.393-3.76-8.393-8.393h-25.18v25.18c0-4.633,3.76-8.393,8.393-8.393s8.393,3.76,8.393,8.393
				s-3.76,8.393-8.393,8.393s-8.393-3.76-8.393-8.393v50.361c0-4.633,3.76-8.393,8.393-8.393s8.393,3.76,8.393,8.393
				s-3.76,8.393-8.393,8.393s-8.393-3.76-8.393-8.393v58.754c0-4.633,3.76-8.393,8.393-8.393s8.393,3.76,8.393,8.393h33.574
				c0-4.633,3.76-8.393,8.393-8.393s8.393,3.76,8.393,8.393h33.574c0-4.633,3.76-8.393,8.393-8.393s8.393,3.76,8.393,8.393h16.787
				v-25.18c-4.633,0-8.393-3.76-8.393-8.393s3.76-8.393,8.393-8.393v-33.574c-4.633,0-8.393-3.76-8.393-8.393
				s3.76-8.393,8.393-8.393v-33.574C238.777,117.508,235.016,113.748,235.016,109.115z M142.689,218.23
				c-4.633,0-8.393-3.76-8.393-8.393s3.76-8.393,8.393-8.393s8.393,3.76,8.393,8.393S147.322,218.23,142.689,218.23z
				 M142.689,167.869c-4.633,0-8.393-3.76-8.393-8.393s3.76-8.393,8.393-8.393s8.393,3.76,8.393,8.393
				S147.322,167.869,142.689,167.869z M167.869,193.049c-4.633,0-8.393-3.76-8.393-8.393s3.76-8.393,8.393-8.393
				s8.393,3.76,8.393,8.393S172.502,193.049,167.869,193.049z M167.869,142.689c-4.633,0-8.393-3.76-8.393-8.393
				s3.76-8.393,8.393-8.393s8.393,3.76,8.393,8.393S172.502,142.689,167.869,142.689z M193.049,218.23
				c-4.633,0-8.393-3.76-8.393-8.393s3.76-8.393,8.393-8.393s8.393,3.76,8.393,8.393S197.682,218.23,193.049,218.23z
				 M193.049,167.869c-4.633,0-8.393-3.76-8.393-8.393s3.76-8.393,8.393-8.393s8.393,3.76,8.393,8.393
				S197.682,167.869,193.049,167.869z M218.229,193.049c-4.633,0-8.393-3.76-8.393-8.393s3.76-8.393,8.393-8.393
				s8.393,3.76,8.393,8.393S222.863,193.049,218.229,193.049z M218.229,142.689c-4.633,0-8.393-3.76-8.393-8.393
				s3.76-8.393,8.393-8.393s8.393,3.76,8.393,8.393S222.863,142.689,218.229,142.689z"/>
		</g>
	</g>
</g>
<g>
</g>
<g>
</g>
<g>
</g>
<g>
</g>
<g>
</g>
<g>
</g>
<g>
</g>
<g>
</g>
<g>
</g>
<g>
</g>
<g>
</g>
<g>
</g>
<g>
</g>
<g>
</g>
<g>
</g>
</svg>
