<?xml version="1.0" encoding="iso-8859-1"?>
<!-- Generator: Adobe Illustrator 19.0.0, SVG Export Plug-In . SVG Version: 6.00 Build 0)  -->
<svg version="1.1" id="Layer_1" xmlns="http://www.w3.org/2000/svg" xmlns:xlink="http://www.w3.org/1999/xlink" x="0px" y="0px"
	 viewBox="0 0 503.607 503.607" style="enable-background:new 0 0 503.607 503.607;" xml:space="preserve">
<g>
	<g>
		<g>
			<path d="M327.344,193.049c9.258,0,16.787-7.529,16.787-16.787c0-9.258-7.529-16.787-16.787-16.787s-16.787,7.529-16.787,16.787
				C310.557,185.52,318.086,193.049,327.344,193.049z"/>
			<path d="M260.197,243.41h134.295V109.115H260.197V243.41z M327.344,142.689c18.516,0,33.574,15.058,33.574,33.574
				s-15.058,33.574-33.574,33.574s-33.574-15.058-33.574-33.574S308.828,142.689,327.344,142.689z"/>
			<path d="M176.262,193.049c9.258,0,16.787-7.529,16.787-16.787c0-9.258-7.529-16.787-16.787-16.787
				c-9.258,0-16.787,7.529-16.787,16.787C159.475,185.52,167.004,193.049,176.262,193.049z"/>
			<path d="M109.115,243.41H243.41V109.115H109.115V243.41z M176.262,142.689c18.516,0,33.574,15.058,33.574,33.574
				s-15.058,33.574-33.574,33.574s-33.574-15.058-33.574-33.574S157.746,142.689,176.262,142.689z"/>
			<path d="M235.016,260.197h-33.574c0,4.633-3.76,8.393-8.393,8.393s-8.393-3.76-8.393-8.393h-33.574
				c0,4.633-3.76,8.393-8.393,8.393s-8.393-3.76-8.393-8.393h-24.761v23.107c0.94-3.601,4.071-6.32,7.974-6.32
				c4.633,0,8.393,3.76,8.393,8.393s-3.76,8.393-8.393,8.393c-3.903,0-7.034-2.719-7.974-6.32v46.214
				c0.94-3.601,4.071-6.32,7.974-6.32c4.633,0,8.393,3.76,8.393,8.393s-3.76,8.393-8.393,8.393c-3.903,0-7.034-2.719-7.974-6.32
				v54.608c0.94-3.601,4.071-6.32,7.974-6.32c4.633,0,8.393,3.76,8.393,8.393h33.574c0-4.633,3.76-8.393,8.393-8.393
				s8.393,3.76,8.393,8.393h33.574c0-4.633,3.76-8.393,8.393-8.393s8.393,3.76,8.393,8.393h16.787v-25.18
				c-4.633,0-8.393-3.76-8.393-8.393c0-4.633,3.76-8.393,8.393-8.393v-33.574c-4.633,0-8.393-3.76-8.393-8.393
				c0-4.633,3.76-8.393,8.393-8.393V268.59C238.777,268.59,235.016,264.83,235.016,260.197z M142.689,369.311
				c-4.633,0-8.393-3.76-8.393-8.393c0-4.633,3.76-8.393,8.393-8.393s8.393,3.76,8.393,8.393
				C151.082,365.551,147.322,369.311,142.689,369.311z M142.689,318.951c-4.633,0-8.393-3.76-8.393-8.393
				c0-4.633,3.76-8.393,8.393-8.393s8.393,3.76,8.393,8.393C151.082,315.191,147.322,318.951,142.689,318.951z M167.869,344.131
				c-4.633,0-8.393-3.76-8.393-8.393s3.76-8.393,8.393-8.393s8.393,3.76,8.393,8.393S172.502,344.131,167.869,344.131z
				 M167.869,293.77c-4.633,0-8.393-3.76-8.393-8.393s3.76-8.393,8.393-8.393s8.393,3.76,8.393,8.393S172.502,293.77,167.869,293.77
				z M193.049,369.311c-4.633,0-8.393-3.76-8.393-8.393c0-4.633,3.76-8.393,8.393-8.393s8.393,3.76,8.393,8.393
				C201.443,365.551,197.682,369.311,193.049,369.311z M193.049,318.951c-4.633,0-8.393-3.76-8.393-8.393
				c0-4.633,3.76-8.393,8.393-8.393s8.393,3.76,8.393,8.393C201.443,315.191,197.682,318.951,193.049,318.951z M218.229,344.131
				c-4.633,0-8.393-3.76-8.393-8.393s3.76-8.393,8.393-8.393s8.393,3.76,8.393,8.393S222.863,344.131,218.229,344.131z
				 M218.229,293.77c-4.633,0-8.393-3.76-8.393-8.393s3.76-8.393,8.393-8.393s8.393,3.76,8.393,8.393S222.863,293.77,218.229,293.77
				z"/>
			<path d="M470.033,0H33.574C15.058,0,0,15.058,0,33.574v436.459c0,18.516,15.058,33.574,33.574,33.574h436.459
				c18.516,0,33.574-15.058,33.574-33.574V33.574C503.607,15.058,488.549,0,470.033,0z M50.361,470.033
				c-9.275,0-16.787-7.521-16.787-16.787s7.512-16.787,16.787-16.787s16.787,7.521,16.787,16.787S59.635,470.033,50.361,470.033z
				 M50.361,67.148c-9.275,0-16.787-7.521-16.787-16.787c0-9.266,7.512-16.787,16.787-16.787s16.787,7.521,16.787,16.787
				C67.148,59.627,59.635,67.148,50.361,67.148z M411.279,251.803v151.082c0,4.642-3.76,8.393-8.393,8.393H252.223
				c-0.076,0-0.134-0.042-0.21-0.042c-0.076,0-0.134,0.042-0.21,0.042H101.141c-4.633,0-8.393-3.752-8.393-8.393V253.876
				c-0.176-0.68-0.42-1.343-0.42-2.073V100.721c0-4.642,3.76-8.393,8.393-8.393h151.082h151.082c4.633,0,8.393,3.752,8.393,8.393
				V251.803z M453.246,470.033c-9.275,0-16.787-7.521-16.787-16.787s7.512-16.787,16.787-16.787c9.275,0,16.787,7.521,16.787,16.787
				S462.521,470.033,453.246,470.033z M453.246,67.148c-9.275,0-16.787-7.521-16.787-16.787c0-9.266,7.512-16.787,16.787-16.787
				c9.275,0,16.787,7.521,16.787,16.787C470.033,59.627,462.521,67.148,453.246,67.148z"/>
			<path d="M386.098,260.197h-33.574c0,4.633-3.76,8.393-8.393,8.393c-4.633,0-8.393-3.76-8.393-8.393h-33.574
				c0,4.633-3.76,8.393-8.393,8.393c-4.633,0-8.393-3.76-8.393-8.393h-24.761v23.107c0.94-3.601,4.071-6.32,7.974-6.32
				c4.633,0,8.393,3.76,8.393,8.393s-3.76,8.393-8.393,8.393c-3.903,0-7.034-2.719-7.974-6.32v46.214
				c0.94-3.601,4.071-6.32,7.974-6.32c4.633,0,8.393,3.76,8.393,8.393s-3.76,8.393-8.393,8.393c-3.903,0-7.034-2.719-7.974-6.32
				v54.608c0.94-3.601,4.071-6.32,7.974-6.32c4.633,0,8.393,3.76,8.393,8.393h33.574c0-4.633,3.76-8.393,8.393-8.393
				s8.393,3.76,8.393,8.393h33.574c0-4.633,3.76-8.393,8.393-8.393s8.393,3.76,8.393,8.393h16.787v-25.18
				c-4.633,0-8.393-3.76-8.393-8.393c0-4.633,3.76-8.393,8.393-8.393v-33.574c-4.633,0-8.393-3.76-8.393-8.393
				c0-4.633,3.76-8.393,8.393-8.393V268.59C389.859,268.59,386.098,264.83,386.098,260.197z M293.77,369.311
				c-4.633,0-8.393-3.76-8.393-8.393c0-4.633,3.76-8.393,8.393-8.393c4.633,0,8.393,3.76,8.393,8.393
				C302.164,365.551,298.404,369.311,293.77,369.311z M293.77,318.951c-4.633,0-8.393-3.76-8.393-8.393
				c0-4.633,3.76-8.393,8.393-8.393c4.633,0,8.393,3.76,8.393,8.393C302.164,315.191,298.404,318.951,293.77,318.951z
				 M318.951,344.131c-4.633,0-8.393-3.76-8.393-8.393s3.76-8.393,8.393-8.393s8.393,3.76,8.393,8.393
				S323.584,344.131,318.951,344.131z M318.951,293.77c-4.633,0-8.393-3.76-8.393-8.393s3.76-8.393,8.393-8.393
				s8.393,3.76,8.393,8.393S323.584,293.77,318.951,293.77z M344.131,369.311c-4.633,0-8.393-3.76-8.393-8.393
				c0-4.633,3.76-8.393,8.393-8.393c4.633,0,8.393,3.76,8.393,8.393C352.525,365.551,348.764,369.311,344.131,369.311z
				 M344.131,318.951c-4.633,0-8.393-3.76-8.393-8.393c0-4.633,3.76-8.393,8.393-8.393c4.633,0,8.393,3.76,8.393,8.393
				C352.525,315.191,348.764,318.951,344.131,318.951z M369.311,344.131c-4.633,0-8.393-3.76-8.393-8.393s3.76-8.393,8.393-8.393
				s8.393,3.76,8.393,8.393S373.945,344.131,369.311,344.131z M369.311,293.77c-4.633,0-8.393-3.76-8.393-8.393
				s3.76-8.393,8.393-8.393s8.393,3.76,8.393,8.393S373.945,293.77,369.311,293.77z"/>
		</g>
	</g>
</g>
<g>
</g>
<g>
</g>
<g>
</g>
<g>
</g>
<g>
</g>
<g>
</g>
<g>
</g>
<g>
</g>
<g>
</g>
<g>
</g>
<g>
</g>
<g>
</g>
<g>
</g>
<g>
</g>
<g>
</g>
</svg>
