<?xml version="1.0" encoding="iso-8859-1"?>
<!-- Generator: Adobe Illustrator 19.0.0, SVG Export Plug-In . SVG Version: 6.00 Build 0)  -->
<svg version="1.1" id="Layer_1" xmlns="http://www.w3.org/2000/svg" xmlns:xlink="http://www.w3.org/1999/xlink" x="0px" y="0px"
	 viewBox="0 0 503.607 503.607" style="enable-background:new 0 0 503.607 503.607;" xml:space="preserve">
<g>
	<g>
		<g>
			<path d="M310.557,260.197h-33.574c0,4.633-3.76,8.393-8.393,8.393s-8.393-3.76-8.393-8.393h-33.574
				c0,4.633-3.76,8.393-8.393,8.393s-8.393-3.76-8.393-8.393h-24.761v23.107c0.94-3.601,4.071-6.32,7.974-6.32
				c4.633,0,8.393,3.76,8.393,8.393s-3.76,8.393-8.393,8.393c-3.903,0-7.034-2.719-7.974-6.32v46.214
				c0.94-3.601,4.071-6.32,7.974-6.32c4.633,0,8.393,3.76,8.393,8.393s-3.76,8.393-8.393,8.393c-3.903,0-7.034-2.719-7.974-6.32
				v54.608c0.94-3.601,4.071-6.32,7.974-6.32c4.633,0,8.393,3.76,8.393,8.393h33.574c0-4.633,3.76-8.393,8.393-8.393
				c4.633,0,8.393,3.76,8.393,8.393h33.574c0-4.633,3.76-8.393,8.393-8.393c4.633,0,8.393,3.76,8.393,8.393h16.787v-25.18
				c-4.633,0-8.393-3.76-8.393-8.393c0-4.633,3.76-8.393,8.393-8.393v-33.574c-4.633,0-8.393-3.76-8.393-8.393
				c0-4.633,3.76-8.393,8.393-8.393V268.59C314.318,268.59,310.557,264.83,310.557,260.197z M218.229,369.311
				c-4.633,0-8.393-3.76-8.393-8.393c0-4.633,3.76-8.393,8.393-8.393s8.393,3.76,8.393,8.393
				C226.623,365.551,222.863,369.311,218.229,369.311z M218.229,318.951c-4.633,0-8.393-3.76-8.393-8.393
				c0-4.633,3.76-8.393,8.393-8.393s8.393,3.76,8.393,8.393C226.623,315.191,222.863,318.951,218.229,318.951z M243.41,344.131
				c-4.633,0-8.393-3.76-8.393-8.393s3.76-8.393,8.393-8.393c4.633,0,8.393,3.76,8.393,8.393S248.043,344.131,243.41,344.131z
				 M243.41,293.77c-4.633,0-8.393-3.76-8.393-8.393s3.76-8.393,8.393-8.393c4.633,0,8.393,3.76,8.393,8.393
				S248.043,293.77,243.41,293.77z M268.59,369.311c-4.633,0-8.393-3.76-8.393-8.393c0-4.633,3.76-8.393,8.393-8.393
				s8.393,3.76,8.393,8.393C276.984,365.551,273.223,369.311,268.59,369.311z M268.59,318.951c-4.633,0-8.393-3.76-8.393-8.393
				c0-4.633,3.76-8.393,8.393-8.393s8.393,3.76,8.393,8.393C276.984,315.191,273.223,318.951,268.59,318.951z M293.77,344.131
				c-4.633,0-8.393-3.76-8.393-8.393s3.76-8.393,8.393-8.393c4.633,0,8.393,3.76,8.393,8.393S298.404,344.131,293.77,344.131z
				 M293.77,293.77c-4.633,0-8.393-3.76-8.393-8.393s3.76-8.393,8.393-8.393c4.633,0,8.393,3.76,8.393,8.393
				S298.404,293.77,293.77,293.77z"/>
			<path d="M251.803,193.049c9.258,0,16.787-7.529,16.787-16.787c0-9.258-7.529-16.787-16.787-16.787
				c-9.258,0-16.787,7.529-16.787,16.787C235.016,185.52,242.545,193.049,251.803,193.049z"/>
			<path d="M470.033,0H33.574C15.058,0,0,15.058,0,33.574v436.459c0,18.516,15.058,33.574,33.574,33.574h436.459
				c18.516,0,33.574-15.058,33.574-33.574V33.574C503.607,15.058,488.549,0,470.033,0z M50.361,470.033
				c-9.275,0-16.787-7.521-16.787-16.787s7.512-16.787,16.787-16.787s16.787,7.521,16.787,16.787S59.635,470.033,50.361,470.033z
				 M50.361,67.148c-9.275,0-16.787-7.521-16.787-16.787c0-9.266,7.512-16.787,16.787-16.787s16.787,7.521,16.787,16.787
				C67.148,59.627,59.635,67.148,50.361,67.148z M335.738,251.803v151.082c0,4.642-3.76,8.393-8.393,8.393H176.682
				c-4.633,0-8.393-3.752-8.393-8.393V253.876c-0.176-0.68-0.42-1.343-0.42-2.073V100.721c0-4.642,3.76-8.393,8.393-8.393h151.082
				c4.633,0,8.393,3.752,8.393,8.393V251.803z M453.246,470.033c-9.275,0-16.787-7.521-16.787-16.787s7.512-16.787,16.787-16.787
				c9.275,0,16.787,7.521,16.787,16.787S462.521,470.033,453.246,470.033z M453.246,67.148c-9.275,0-16.787-7.521-16.787-16.787
				c0-9.266,7.512-16.787,16.787-16.787c9.275,0,16.787,7.521,16.787,16.787C470.033,59.627,462.521,67.148,453.246,67.148z"/>
			<path d="M184.656,243.41h134.295V109.115H184.656V243.41z M251.803,142.689c18.516,0,33.574,15.058,33.574,33.574
				s-15.058,33.574-33.574,33.574s-33.574-15.058-33.574-33.574S233.287,142.689,251.803,142.689z"/>
		</g>
	</g>
</g>
<g>
</g>
<g>
</g>
<g>
</g>
<g>
</g>
<g>
</g>
<g>
</g>
<g>
</g>
<g>
</g>
<g>
</g>
<g>
</g>
<g>
</g>
<g>
</g>
<g>
</g>
<g>
</g>
<g>
</g>
</svg>
