<?xml version="1.0" encoding="iso-8859-1"?>
<!-- Generator: Adobe Illustrator 19.0.0, SVG Export Plug-In . SVG Version: 6.00 Build 0)  -->
<svg version="1.1" id="Layer_1" xmlns="http://www.w3.org/2000/svg" xmlns:xlink="http://www.w3.org/1999/xlink" x="0px" y="0px"
	 viewBox="0 0 503.607 503.607" style="enable-background:new 0 0 503.607 503.607;" xml:space="preserve">
<g>
	<g>
		<g>
			<path d="M310.557,109.115h-33.574c0,4.633-3.76,8.393-8.393,8.393s-8.393-3.76-8.393-8.393h-33.574
				c0,4.633-3.76,8.393-8.393,8.393s-8.393-3.76-8.393-8.393h-25.18v25.18c0-4.633,3.76-8.393,8.393-8.393s8.393,3.76,8.393,8.393
				s-3.76,8.393-8.393,8.393s-8.393-3.76-8.393-8.393v50.361c0-4.633,3.76-8.393,8.393-8.393s8.393,3.76,8.393,8.393
				s-3.76,8.393-8.393,8.393s-8.393-3.76-8.393-8.393v58.754c0-4.633,3.76-8.393,8.393-8.393s8.393,3.76,8.393,8.393h33.574
				c0-4.633,3.76-8.393,8.393-8.393c4.633,0,8.393,3.76,8.393,8.393h33.574c0-4.633,3.76-8.393,8.393-8.393
				c4.633,0,8.393,3.76,8.393,8.393h16.787v-25.18c-4.633,0-8.393-3.76-8.393-8.393s3.76-8.393,8.393-8.393v-33.574
				c-4.633,0-8.393-3.76-8.393-8.393s3.76-8.393,8.393-8.393v-33.574C314.318,117.508,310.557,113.748,310.557,109.115z
				 M218.229,218.23c-4.633,0-8.393-3.76-8.393-8.393s3.76-8.393,8.393-8.393s8.393,3.76,8.393,8.393S222.863,218.23,218.229,218.23
				z M218.229,167.869c-4.633,0-8.393-3.76-8.393-8.393s3.76-8.393,8.393-8.393s8.393,3.76,8.393,8.393
				S222.863,167.869,218.229,167.869z M243.41,193.049c-4.633,0-8.393-3.76-8.393-8.393s3.76-8.393,8.393-8.393
				c4.633,0,8.393,3.76,8.393,8.393S248.043,193.049,243.41,193.049z M243.41,142.689c-4.633,0-8.393-3.76-8.393-8.393
				s3.76-8.393,8.393-8.393c4.633,0,8.393,3.76,8.393,8.393S248.043,142.689,243.41,142.689z M268.59,218.23
				c-4.633,0-8.393-3.76-8.393-8.393s3.76-8.393,8.393-8.393s8.393,3.76,8.393,8.393S273.223,218.23,268.59,218.23z M268.59,167.869
				c-4.633,0-8.393-3.76-8.393-8.393s3.76-8.393,8.393-8.393s8.393,3.76,8.393,8.393S273.223,167.869,268.59,167.869z
				 M293.77,193.049c-4.633,0-8.393-3.76-8.393-8.393s3.76-8.393,8.393-8.393c4.633,0,8.393,3.76,8.393,8.393
				S298.404,193.049,293.77,193.049z M293.77,142.689c-4.633,0-8.393-3.76-8.393-8.393s3.76-8.393,8.393-8.393
				c4.633,0,8.393,3.76,8.393,8.393S298.404,142.689,293.77,142.689z"/>
			<path d="M470.033,0H33.574C15.058,0,0,15.058,0,33.574v436.459c0,18.516,15.058,33.574,33.574,33.574h436.459
				c18.516,0,33.574-15.058,33.574-33.574V33.574C503.607,15.058,488.549,0,470.033,0z M50.361,470.033
				c-9.275,0-16.787-7.521-16.787-16.787s7.512-16.787,16.787-16.787s16.787,7.521,16.787,16.787S59.635,470.033,50.361,470.033z
				 M50.361,67.148c-9.275,0-16.787-7.521-16.787-16.787c0-9.266,7.512-16.787,16.787-16.787s16.787,7.521,16.787,16.787
				C67.148,59.627,59.635,67.148,50.361,67.148z M335.738,251.803v151.082c0,4.642-3.76,8.393-8.393,8.393H176.682
				c-4.633,0-8.393-3.752-8.393-8.393V253.876c-0.176-0.68-0.42-1.343-0.42-2.073V100.721c0-4.642,3.76-8.393,8.393-8.393h151.082
				c4.633,0,8.393,3.752,8.393,8.393V251.803z M453.246,470.033c-9.275,0-16.787-7.521-16.787-16.787s7.512-16.787,16.787-16.787
				c9.275,0,16.787,7.521,16.787,16.787S462.521,470.033,453.246,470.033z M453.246,67.148c-9.275,0-16.787-7.521-16.787-16.787
				c0-9.266,7.512-16.787,16.787-16.787c9.275,0,16.787,7.521,16.787,16.787C470.033,59.627,462.521,67.148,453.246,67.148z"/>
			<path d="M185.075,394.492h133.875V260.197H185.075V394.492z M243.41,302.164c0-4.642,3.76-8.393,8.393-8.393
				s8.393,3.752,8.393,8.393v50.361c0,4.642-3.76,8.393-8.393,8.393s-8.393-3.752-8.393-8.393V302.164z"/>
		</g>
	</g>
</g>
<g>
</g>
<g>
</g>
<g>
</g>
<g>
</g>
<g>
</g>
<g>
</g>
<g>
</g>
<g>
</g>
<g>
</g>
<g>
</g>
<g>
</g>
<g>
</g>
<g>
</g>
<g>
</g>
<g>
</g>
</svg>
