<?xml version="1.0" encoding="iso-8859-1"?>
<!-- Generator: Adobe Illustrator 19.0.0, SVG Export Plug-In . SVG Version: 6.00 Build 0)  -->
<svg version="1.1" id="Layer_1" xmlns="http://www.w3.org/2000/svg" xmlns:xlink="http://www.w3.org/1999/xlink" x="0px" y="0px"
	 viewBox="0 0 503.607 503.607" style="enable-background:new 0 0 503.607 503.607;" xml:space="preserve">
<g>
	<g>
		<path d="M495.213,0H327.344c-1.679,0-3.357,0.839-5.036,1.679l-39.449,31.895h-5.875V25.18c0-14.269-10.911-25.18-25.18-25.18
			s-25.18,10.911-25.18,25.18v8.393h-8.393c-5.036,0-8.393,3.357-8.393,8.393v33.574v25.18h-8.393v117.508h100.721V100.721h-8.393
			V83.934h8.393c1.679,0,3.357-0.839,5.036-1.679l40.289-31.895h147.725c5.036,0,8.393-3.357,8.393-8.393V8.393
			C503.607,4.197,500.249,0,495.213,0z M243.41,25.18c0-5.036,3.357-8.393,8.393-8.393s8.393,3.357,8.393,8.393v8.393H243.41V25.18z
			 M276.984,100.721h-50.361V83.934h50.361V100.721z"/>
	</g>
</g>
<g>
	<g>
		<path d="M33.574,369.311c-5.036,0-8.393,3.357-8.393,8.393v16.787c0,5.036,3.357,8.393,8.393,8.393s8.393-3.357,8.393-8.393
			v-16.787C41.967,373.508,38.61,369.311,33.574,369.311z"/>
	</g>
</g>
<g>
	<g>
		<path d="M33.574,419.672c-5.036,0-8.393,3.357-8.393,8.393v16.787c0,5.036,3.357,8.393,8.393,8.393s8.393-3.357,8.393-8.393
			v-16.787C41.967,423.869,38.61,419.672,33.574,419.672z"/>
	</g>
</g>
<g>
	<g>
		<path d="M33.574,470.033c-5.036,0-8.393,3.357-8.393,8.393v16.787c0,5.036,3.357,8.393,8.393,8.393s8.393-3.357,8.393-8.393
			v-16.787C41.967,474.229,38.61,470.033,33.574,470.033z"/>
	</g>
</g>
<g>
	<g>
		<path d="M33.574,318.951c-5.036,0-8.393,3.357-8.393,8.393v16.787c0,5.036,3.357,8.393,8.393,8.393s8.393-3.357,8.393-8.393
			v-16.787C41.967,323.148,38.61,318.951,33.574,318.951z"/>
	</g>
</g>
<g>
	<g>
		<path d="M75.541,470.033c-5.036,0-8.393,3.357-8.393,8.393v16.787c0,5.036,3.357,8.393,8.393,8.393s8.393-3.357,8.393-8.393
			v-16.787C83.934,474.229,80.577,470.033,75.541,470.033z"/>
	</g>
</g>
<g>
	<g>
		<path d="M75.541,369.311c-5.036,0-8.393,3.357-8.393,8.393v16.787c0,5.036,3.357,8.393,8.393,8.393s8.393-3.357,8.393-8.393
			v-16.787C83.934,373.508,80.577,369.311,75.541,369.311z"/>
	</g>
</g>
<g>
	<g>
		<path d="M75.541,318.951c-5.036,0-8.393,3.357-8.393,8.393v16.787c0,5.036,3.357,8.393,8.393,8.393s8.393-3.357,8.393-8.393
			v-16.787C83.934,323.148,80.577,318.951,75.541,318.951z"/>
	</g>
</g>
<g>
	<g>
		<path d="M75.541,419.672c-5.036,0-8.393,3.357-8.393,8.393v16.787c0,5.036,3.357,8.393,8.393,8.393s8.393-3.357,8.393-8.393
			v-16.787C83.934,423.869,80.577,419.672,75.541,419.672z"/>
	</g>
</g>
<g>
	<g>
		<path d="M318.951,100.721v118.348c23.502,3.357,67.148,20.144,67.148,74.702V486.82v8.393v8.393h117.508v-8.393v-8.393V293.771
			C503.607,165.351,398.689,104.918,318.951,100.721z"/>
	</g>
</g>
<g>
	<g>
		<path d="M0,293.771c0,5.036,3.357,8.393,8.393,8.393h100.721c5.036,0,8.393-3.357,8.393-8.393
			c0-18.466,12.59-70.505,67.148-74.702V100.721C57.915,105.757,0,215.711,0,293.771z"/>
	</g>
</g>
<g>
</g>
<g>
</g>
<g>
</g>
<g>
</g>
<g>
</g>
<g>
</g>
<g>
</g>
<g>
</g>
<g>
</g>
<g>
</g>
<g>
</g>
<g>
</g>
<g>
</g>
<g>
</g>
<g>
</g>
</svg>
