<?xml version="1.0" encoding="iso-8859-1"?>
<!-- Generator: Adobe Illustrator 19.0.0, SVG Export Plug-In . SVG Version: 6.00 Build 0)  -->
<svg version="1.1" id="Layer_1" xmlns="http://www.w3.org/2000/svg" xmlns:xlink="http://www.w3.org/1999/xlink" x="0px" y="0px"
	 viewBox="0 0 503.062 503.062" style="enable-background:new 0 0 503.062 503.062;" xml:space="preserve">
<g>
	<g>
		<path d="M408.544,403.222c-4.267-12.8-20.48-46.933-21.333-47.787c-0.853-3.413-4.267-5.12-7.68-5.12s-5.973,1.707-7.68,5.12
			c0,0-15.36,32.427-21.333,45.227c-3.413,6.827-6.827,14.507-5.12,24.747c2.56,13.653,13.653,24.747,27.307,27.307
			c1.707,0,4.267,0.853,5.973,0.853c7.68,0,15.36-2.56,22.187-7.68c7.68-6.827,11.947-16.213,11.947-26.453
			C412.811,413.462,411.104,408.342,408.544,403.222z"/>
	</g>
</g>
<g>
	<g>
		<path d="M459.744,94.315c17.067,0,30.72-13.653,30.72-30.72c0-16.213-11.947-29.013-28.16-30.72L132.918,0.448
			c-23.893-2.56-47.787,5.973-65.707,22.187c-18.773,15.36-29.013,39.253-29.013,63.147v367.787
			c-14.507,3.413-25.6,17.067-25.6,32.427v8.533c0,5.12,3.413,8.533,8.533,8.533h170.667c5.12,0,8.533-3.413,8.533-8.533v-8.533
			c0-16.213-11.093-29.013-25.6-32.427v-76.8c0-32.427,12.8-63.147,34.987-83.627c25.6-23.893,58.88-36.693,93.013-36.693
			c0.853,0,0.853,0,1.707,0h23.893v25.6c0,5.12,3.413,8.533,8.533,8.533h85.333c5.12,0,8.533-3.413,8.533-8.533v-25.6h25.6
			c5.12,0,8.533-3.413,8.533-8.533v-75.947c0-18.773-15.36-34.987-34.987-34.987H302.731c-44.373,0-87.893,11.947-128,35.84V94.315
			H459.744z M345.398,256.448h68.267v17.067h-68.267V256.448z M183.264,486.848h-153.6c0-9.387,7.68-17.067,17.067-17.067h34.133
			h85.333C175.584,469.782,183.264,477.462,183.264,486.848z M80.864,154.048c5.12,0,8.533,3.413,8.533,8.533v85.333
			c0,5.12-3.413,8.533-8.533,8.533s-8.533-3.413-8.533-8.533v-85.333C72.331,158.315,76.598,154.048,80.864,154.048z
			 M72.331,111.382V94.315h17.067v17.067c0,5.12-3.413,8.533-8.533,8.533S72.331,116.502,72.331,111.382z M80.864,282.048
			c5.12,0,8.533,3.413,8.533,8.533v68.267c0,5.12-3.413,8.533-8.533,8.533s-8.533-3.413-8.533-8.533v-68.267
			C72.331,286.315,76.598,282.048,80.864,282.048z M80.864,384.448c5.12,0,8.533,3.413,8.533,8.533c0,5.12-3.413,8.533-8.533,8.533
			s-8.533-3.413-8.533-8.533C72.331,387.862,76.598,384.448,80.864,384.448z M80.864,418.582c5.12,0,8.533,3.413,8.533,8.533v25.6
			H72.331v-25.6C72.331,422.848,76.598,418.582,80.864,418.582z M166.198,77.248H80.864H56.118
			c1.707-16.213,10.24-31.573,22.187-42.667c14.507-12.8,33.28-19.627,52.907-17.92l330.24,32.427
			c6.827,0.853,11.947,6.827,11.947,14.507s-5.973,13.653-13.653,13.653H166.198z"/>
	</g>
</g>
<g>
</g>
<g>
</g>
<g>
</g>
<g>
</g>
<g>
</g>
<g>
</g>
<g>
</g>
<g>
</g>
<g>
</g>
<g>
</g>
<g>
</g>
<g>
</g>
<g>
</g>
<g>
</g>
<g>
</g>
</svg>
