<?xml version="1.0" encoding="iso-8859-1"?>
<!-- Generator: Adobe Illustrator 19.0.0, SVG Export Plug-In . SVG Version: 6.00 Build 0)  -->
<svg version="1.1" id="Layer_1" xmlns="http://www.w3.org/2000/svg" xmlns:xlink="http://www.w3.org/1999/xlink" x="0px" y="0px"
	 viewBox="0 0 512 512" style="enable-background:new 0 0 512 512;" xml:space="preserve">
<g>
	<g>
		<g>
			<path d="M511.898,250.436l-1.596-10.377c-9.609-62.456-62.447-107.793-125.636-107.793h-9.199V72.533
				c0-4.719-3.823-8.533-8.533-8.533h-25.6v-8.533c0-4.719-3.823-8.533-8.533-8.533H179.2c-4.71,0-8.533,3.814-8.533,8.533V64h-25.6
				c-4.71,0-8.533,3.814-8.533,8.533v59.733h-9.199c-63.189,0-116.028,45.338-125.636,107.793l-1.596,10.377
				C0.034,250.863,0,251.298,0,251.733c0,9.412,7.654,17.067,17.067,17.067v145.067h42.3c14.319,0,25.967,11.648,25.967,25.967
				v25.233h341.333v-25.233c0-14.319,11.648-25.967,25.967-25.967h42.3V268.8c9.412,0,17.067-7.654,17.067-17.067
				C512,251.298,511.966,250.863,511.898,250.436z M375.467,226.133c4.702,0,8.533,3.823,8.533,8.533v25.6v25.6
				c0,4.71-3.831,8.533-8.533,8.533H358.4c-4.702,0-8.533-3.823-8.533-8.533v-25.6v-25.6c0-4.71,3.831-8.533,8.533-8.533H375.467z
				 M153.6,81.067h17.067V89.6c0,4.719,3.823,8.533,8.533,8.533h153.6c4.71,0,8.533-3.814,8.533-8.533v-8.533H358.4v51.2H153.6
				V81.067z M128,260.267v-25.6c0-4.71,3.831-8.533,8.533-8.533H153.6c4.702,0,8.533,3.823,8.533,8.533v25.6v25.6
				c0,4.71-3.831,8.533-8.533,8.533h-17.067c-4.702,0-8.533-3.823-8.533-8.533V260.267z M401.067,430.933H110.933
				c-4.71,0-8.533-3.814-8.533-8.533s3.823-8.533,8.533-8.533h290.133c4.71,0,8.533,3.814,8.533,8.533
				S405.777,430.933,401.067,430.933z M401.067,396.8H110.933c-4.71,0-8.533-3.814-8.533-8.533c0-4.719,3.823-8.533,8.533-8.533
				h290.133c4.71,0,8.533,3.814,8.533,8.533C409.6,392.986,405.777,396.8,401.067,396.8z"/>
			<path d="M59.366,430.933h-42.3v8.166c0,14.319,11.648,25.967,25.967,25.967h25.233v-25.233
				C68.267,434.927,64.273,430.933,59.366,430.933z"/>
			<path d="M443.733,439.833v25.233h25.233c14.319,0,25.967-11.648,25.967-25.967v-8.166h-42.3
				C447.727,430.932,443.733,434.926,443.733,439.833z"/>
		</g>
	</g>
</g>
<g>
</g>
<g>
</g>
<g>
</g>
<g>
</g>
<g>
</g>
<g>
</g>
<g>
</g>
<g>
</g>
<g>
</g>
<g>
</g>
<g>
</g>
<g>
</g>
<g>
</g>
<g>
</g>
<g>
</g>
</svg>
