<?xml version="1.0" encoding="iso-8859-1"?>
<!-- Generator: Adobe Illustrator 19.0.0, SVG Export Plug-In . SVG Version: 6.00 Build 0)  -->
<svg version="1.1" id="Layer_1" xmlns="http://www.w3.org/2000/svg" xmlns:xlink="http://www.w3.org/1999/xlink" x="0px" y="0px"
	 viewBox="0 0 512 512" style="enable-background:new 0 0 512 512;" xml:space="preserve">
<g>
	<g>
		<path d="M341.333,0H170.667c-4.719,0-8.533,3.814-8.533,8.533v77.414c0,23.168,3.721,46.046,11.042,68.019
			c4.463,13.406,10.291,26.419,17.297,38.69l19.012,33.263c-3.251,1.98-6.161,4.531-8.363,7.765
			c-5.009,7.415-6.016,16.785-2.697,25.088l7.245,18.031c0.068,0.154,0.324,0.657,0.401,0.811c8.934,15.863,9.643,35.55,2.21,61.909
			c-2.313,5.931-3.482,12.169-3.482,18.534v43.008h34.133c4.719,0,8.533,3.814,8.533,8.533c0,4.71-3.814,8.533-8.533,8.533H204.8
			V435.2h34.133c4.719,0,8.533,3.814,8.533,8.533c0,4.71-3.814,8.533-8.533,8.533H204.8v16.964
			c0,23.586,19.183,42.769,42.769,42.769h16.862c23.586,0,42.769-19.183,42.769-42.769V358.059c0-6.528-1.229-12.911-3.396-18.261
			c-7.484-24.892-6.741-46.942,2.355-62.635c0.094-0.179,0.35-0.734,0.435-0.93l7.083-17.698c3.302-8.252,2.287-17.562-2.688-24.917
			c-2.21-3.268-5.137-5.828-8.414-7.799l18.953-33.161c7.006-12.271,12.834-25.284,17.297-38.69
			c7.322-21.973,11.042-44.851,11.042-68.019V8.533C349.867,3.814,346.052,0,341.333,0z M332.8,85.948
			c0,21.333-3.413,42.402-10.155,62.618c-4.122,12.339-9.481,24.329-15.94,35.627l-21.521,37.675h-58.368l-21.521-37.675
			c-6.46-11.298-11.819-23.287-15.94-35.627c-6.741-20.215-10.155-41.284-10.155-62.618V17.067h153.6V85.948z"/>
	</g>
</g>
<g>
</g>
<g>
</g>
<g>
</g>
<g>
</g>
<g>
</g>
<g>
</g>
<g>
</g>
<g>
</g>
<g>
</g>
<g>
</g>
<g>
</g>
<g>
</g>
<g>
</g>
<g>
</g>
<g>
</g>
</svg>
