<?xml version="1.0" encoding="iso-8859-1"?>
<!-- Generator: Adobe Illustrator 19.0.0, SVG Export Plug-In . SVG Version: 6.00 Build 0)  -->
<svg version="1.1" id="Layer_1" xmlns="http://www.w3.org/2000/svg" xmlns:xlink="http://www.w3.org/1999/xlink" x="0px" y="0px"
	 viewBox="0 0 511.753 511.753" style="enable-background:new 0 0 511.753 511.753;" xml:space="preserve">
<g>
	<g>
		<g>
			<path d="M276.442,7.286c0,0,0,0-0.009,0c-11.486-9.711-29.628-9.719-41.122,0c-68.275,57.779-107.435,142.216-107.435,231.654
				v20.446c0,22.042,14.182,41.105,35.302,47.445l23.415,7.023c14.225,4.267,28.885,7.125,43.682,8.713v18.517h51.2v-18.517
				c14.797-1.587,29.457-4.446,43.674-8.713l40.457-12.134c10.931-3.277,18.27-13.15,18.27-24.559v-38.221
				C383.877,149.503,344.717,65.066,276.442,7.286z M366.81,277.162c0,3.814-2.458,7.108-6.101,8.209l-40.465,12.134
				c-12.629,3.789-25.626,6.468-38.767,7.979v-32.666c0-2.261-0.896-4.429-2.5-6.033l-17.067-17.067
				c-1.664-1.664-3.849-2.5-6.033-2.5c-2.185,0-4.369,0.836-6.033,2.5l-17.067,17.067c-1.604,1.604-2.5,3.772-2.5,6.033v32.666
				c-13.141-1.51-26.138-4.19-38.775-7.979l-23.424-7.023c-13.841-4.156-23.134-16.657-23.134-31.095v-20.446
				c0-84.412,36.958-164.096,101.393-218.624c5.325-4.506,13.739-4.506,19.081-0.009C329.852,74.845,366.81,154.529,366.81,238.941
				V277.162z"/>
			<path d="M250.139,36.103c-29.013,26.368-53.888,63.889-70.033,105.643c-1.698,4.395,0.495,9.335,4.89,11.034
				c1.007,0.393,2.048,0.58,3.072,0.58c3.422,0,6.647-2.074,7.962-5.461c15.198-39.33,38.494-74.547,65.587-99.166
				c3.482-3.166,3.746-8.559,0.58-12.049C259.031,33.193,253.62,32.937,250.139,36.103z"/>
			<path d="M247.343,426.42h-25.6v17.067h68.267v-24.73c0-20.309-2.278-40.576-6.519-60.604h-55.245
				c-1.203,5.658-2.227,11.349-3.098,17.067h22.195c4.71,0,8.533,3.823,8.533,8.533c0,4.71-3.823,8.533-8.533,8.533h-24.26
				c-0.512,5.683-0.87,11.366-1.05,17.067h25.31c4.71,0,8.533,3.823,8.533,8.533S252.054,426.42,247.343,426.42z"/>
			<path d="M299.995,460.553h-88.252c-7.518,10.231-12.407,20.625-14.455,31.044c-0.964,4.898,0.324,9.941,3.533,13.85
				c3.302,4.002,8.166,6.306,13.346,6.306h83.405c5.197,0,10.061-2.304,13.363-6.323c3.208-3.908,4.48-8.969,3.516-13.858
				C312.377,481.136,307.479,470.759,299.995,460.553z"/>
		</g>
	</g>
</g>
<g>
</g>
<g>
</g>
<g>
</g>
<g>
</g>
<g>
</g>
<g>
</g>
<g>
</g>
<g>
</g>
<g>
</g>
<g>
</g>
<g>
</g>
<g>
</g>
<g>
</g>
<g>
</g>
<g>
</g>
</svg>
