<?xml version="1.0" encoding="iso-8859-1"?>
<!-- Generator: Adobe Illustrator 19.0.0, SVG Export Plug-In . SVG Version: 6.00 Build 0)  -->
<svg version="1.1" id="Layer_1" xmlns="http://www.w3.org/2000/svg" xmlns:xlink="http://www.w3.org/1999/xlink" x="0px" y="0px"
	 viewBox="0 0 512 512" style="enable-background:new 0 0 512 512;" xml:space="preserve">
<g>
	<g>
		<path d="M398.482,74.01C365.33,26.974,313.362,0,255.907,0c-57.318,0-109.193,26.854-142.336,73.677
			c-3.439,4.847-3.499,11.145-0.137,16.06c3.439,5.026,9.498,7.313,15.479,5.837c4.625-1.169,9.728-1.707,16.06-1.707
			c40.832,0,68.267,34.295,68.267,85.333v44.834c-4.855,1.971-9.173,5.188-12.211,9.66c-5.009,7.407-6.016,16.785-2.697,25.079
			l7.245,18.031c0.068,0.154,0.324,0.666,0.401,0.811c8.934,15.872,9.643,35.55,2.21,61.909c-2.313,5.931-3.482,12.169-3.482,18.534
			v43.008h34.133c4.719,0,8.533,3.814,8.533,8.533s-3.814,8.533-8.533,8.533h-34.133V435.2h34.133c4.719,0,8.533,3.814,8.533,8.533
			s-3.814,8.533-8.533,8.533h-34.133v16.964c0,23.586,19.183,42.769,42.769,42.769h16.862c23.586,0,42.769-19.183,42.769-42.769
			V358.059c0-6.528-1.229-12.911-3.396-18.261c-7.484-24.892-6.741-46.942,2.355-62.635c0.094-0.179,0.35-0.725,0.435-0.93
			l7.083-17.698c3.302-8.252,2.287-17.562-2.688-24.917c-3.046-4.506-7.415-7.723-12.322-9.677V179.2
			c0-51.038,27.435-85.333,68.267-85.333c6.451,0,11.657,0.563,16.384,1.783c5.837,1.519,11.887-0.717,15.326-5.683
			C401.904,85.111,401.879,78.839,398.482,74.01z M366.841,76.8c-50.244,0-85.333,42.112-85.333,102.4v42.667h-51.2V179.2
			c0-60.288-35.089-102.4-85.333-102.4c-4.804,0-9.097,0.265-13.099,0.836c30.268-39.125,74.035-60.57,124.032-60.57
			c50.014,0,93.773,21.444,124.041,60.578C375.937,77.073,371.637,76.8,366.841,76.8z"/>
	</g>
</g>
<g>
</g>
<g>
</g>
<g>
</g>
<g>
</g>
<g>
</g>
<g>
</g>
<g>
</g>
<g>
</g>
<g>
</g>
<g>
</g>
<g>
</g>
<g>
</g>
<g>
</g>
<g>
</g>
<g>
</g>
</svg>
