<?xml version="1.0" encoding="iso-8859-1"?>
<!-- Generator: Adobe Illustrator 19.0.0, SVG Export Plug-In . SVG Version: 6.00 Build 0)  -->
<svg version="1.1" id="Layer_1" xmlns="http://www.w3.org/2000/svg" xmlns:xlink="http://www.w3.org/1999/xlink" x="0px" y="0px"
	 viewBox="0 0 512 512" style="enable-background:new 0 0 512 512;" xml:space="preserve">
<g>
	<g>
		<path d="M396.8,409.6h34.133V128c0-23.526-19.14-42.667-42.667-42.667H226.133V68.267c4.719,0,8.533-3.814,8.533-8.533V42.667
			h119.501c0.171,9.438,7.876,17.067,17.348,17.067h16.435c9.583,0,17.382-7.799,17.382-17.382V25.916
			c0-9.583-7.799-17.382-17.382-17.382h-16.435c-9.472,0-17.178,7.637-17.348,17.067H234.667V8.533c0-4.71-3.814-8.533-8.533-8.533
			h-51.2c-4.719,0-8.533,3.823-8.533,8.533V25.6h-34.167c-0.171-9.429-7.876-17.067-17.348-17.067H98.449
			c-9.583,0-17.382,7.799-17.382,17.382v16.435c0,9.583,7.799,17.382,17.382,17.382h16.435c9.472,0,17.178-7.629,17.348-17.067
			H166.4v17.067c0,4.719,3.814,8.533,8.533,8.533v17.067H115.2c-18.825,0-34.133,15.309-34.133,34.133
			c0,18.825,15.309,34.133,34.133,34.133h59.733v9.54l-7.475-0.939c-4.676-0.521-8.934,2.731-9.523,7.407
			c-0.589,4.676,2.731,8.943,7.407,9.523l9.591,1.203v15.932h-17.067c-4.719,0-8.533,3.823-8.533,8.533v34.133
			c0,4.719,3.814,8.533,8.533,8.533H243.2c4.719,0,8.533-3.814,8.533-8.533V204.8c0-4.71-3.814-8.533-8.533-8.533h-17.067v-9.532
			l7.475,0.93c0.358,0.043,0.717,0.068,1.067,0.068c4.241,0,7.919-3.157,8.457-7.475c0.589-4.676-2.731-8.943-7.407-9.523
			l-9.591-1.195V153.6H320c4.71,0,8.533,3.831,8.533,8.533V435.2c0,4.71-3.823,8.533-8.533,8.533h-93.867v-26.598l7.475,0.93
			c0.358,0.043,0.717,0.068,1.067,0.068c4.241,0,7.919-3.157,8.457-7.475c0.589-4.676-2.731-8.943-7.407-9.523l-9.591-1.195v-16.939
			l7.475,0.93c0.358,0.043,0.717,0.068,1.067,0.068c4.241,0,7.919-3.157,8.457-7.475c0.589-4.676-2.731-8.943-7.407-9.523
			l-9.591-1.195v-16.939l7.475,0.93c0.358,0.043,0.717,0.068,1.067,0.068c4.241,0,7.919-3.157,8.457-7.475
			c0.589-4.676-2.731-8.943-7.407-9.523l-9.591-1.195v-15.94H243.2c4.719,0,8.533-3.814,8.533-8.533v-34.133
			c0-4.71-3.814-8.533-8.533-8.533h-85.333c-4.719,0-8.533,3.823-8.533,8.533V307.2c0,4.719,3.814,8.533,8.533,8.533h17.067v9.54
			l-7.475-0.939c-4.676-0.521-8.934,2.731-9.523,7.407c-0.589,4.676,2.731,8.943,7.407,9.523l9.591,1.203v16.939l-7.475-0.939
			c-4.676-0.546-8.934,2.731-9.523,7.407c-0.589,4.676,2.731,8.943,7.407,9.523l9.591,1.203v16.939l-7.475-0.939
			c-4.676-0.572-8.934,2.731-9.523,7.407c-0.589,4.676,2.731,8.943,7.407,9.523l9.591,1.203v32.998H115.2
			c-18.825,0-34.133,15.309-34.133,34.133C81.067,496.691,96.375,512,115.2,512h273.067c23.526,0,42.667-19.14,42.667-42.667V460.8
			h-51.2c-4.719,0-8.533-3.814-8.533-8.533c0-4.71,3.814-8.533,8.533-8.533h51.2v-17.067H396.8c-4.719,0-8.533-3.814-8.533-8.533
			C388.267,413.423,392.081,409.6,396.8,409.6z M209.067,196.267H192v-13.798l17.067,2.133V196.267z M209.067,167.407L192,165.274
			V153.6h17.067V167.407z M209.067,443.733H192v-30.865l17.067,2.133V443.733z M209.067,397.807L192,395.674v-16.939l17.067,2.133
			V397.807z M209.067,363.674L192,361.54v-16.939l17.067,2.133V363.674z M209.067,329.54L192,327.407v-11.674h17.067V329.54z"/>
	</g>
</g>
<g>
</g>
<g>
</g>
<g>
</g>
<g>
</g>
<g>
</g>
<g>
</g>
<g>
</g>
<g>
</g>
<g>
</g>
<g>
</g>
<g>
</g>
<g>
</g>
<g>
</g>
<g>
</g>
<g>
</g>
</svg>
