<?xml version="1.0" encoding="iso-8859-1"?>
<!-- Generator: Adobe Illustrator 19.0.0, SVG Export Plug-In . SVG Version: 6.00 Build 0)  -->
<svg version="1.1" id="Layer_1" xmlns="http://www.w3.org/2000/svg" xmlns:xlink="http://www.w3.org/1999/xlink" x="0px" y="0px"
	 viewBox="0 0 512 512" style="enable-background:new 0 0 512 512;" xml:space="preserve">
<g>
	<g>
		<g>
			<path d="M465.067,172.237V153.6c0-4.719-3.814-8.533-8.533-8.533S448,148.881,448,153.6v18.637
				c-9.907,3.533-17.067,12.919-17.067,24.03V256c0,4.719,3.814,8.533,8.533,8.533H448v204.8c0,14.114-11.486,25.6-25.6,25.6
				H183.467c-14.114,0-25.6-11.486-25.6-25.6V435.2h68.267v17.067c0,14.114,11.486,25.6,25.6,25.6H371.2
				c14.114,0,25.6-11.486,25.6-25.6V264.533h8.533c4.719,0,8.533-3.814,8.533-8.533v-59.733c0-11.11-7.159-20.497-17.067-24.03
				V153.6c0-4.719-3.814-8.533-8.533-8.533s-8.533,3.814-8.533,8.533v18.637c-9.907,3.533-17.067,12.919-17.067,24.03V256
				c0,4.719,3.814,8.533,8.533,8.533h8.533v187.733c0,4.71-3.823,8.533-8.533,8.533H251.733c-4.71,0-8.533-3.823-8.533-8.533V435.2
				h12.049c54.528,0,98.884-42.112,98.884-93.867c0-0.563-0.06-1.126-0.171-1.681c-21.265-105.839-21.931-140.228-4.736-245.052
				l4.753-24.721c0.102-0.529,0.154-1.075,0.154-1.613C354.133,30.626,321.937,0,282.351,0H101.649
				C62.063,0,29.867,30.626,29.867,68.267c0,0.538,0.051,1.084,0.154,1.613l4.727,24.533
				c17.365,101.777,16.751,133.879-4.719,245.308c-0.111,0.529-0.162,1.075-0.162,1.613c0,51.755,44.356,93.867,98.884,93.867H140.8
				v34.133c0,23.526,19.14,42.667,42.667,42.667H422.4c23.526,0,42.667-19.14,42.667-42.667v-204.8h8.533
				c4.719,0,8.533-3.814,8.533-8.533v-59.733C482.133,185.156,474.974,175.77,465.067,172.237z M72.533,162.133V68.267
				c0-14.114,11.486-25.6,25.6-25.6h187.733c14.114,0,25.6,11.486,25.6,25.6v93.867c0,14.114-11.486,25.6-25.6,25.6H98.133
				C84.019,187.733,72.533,176.247,72.533,162.133z M98.133,298.667c0-25.771,10.453-49.143,27.324-66.125
				c0.068-0.077,0.094-0.179,0.171-0.247c0.068-0.077,0.171-0.102,0.247-0.171C142.857,215.253,166.229,204.8,192,204.8
				c51.755,0,93.867,42.112,93.867,93.867c0,25.771-10.453,49.143-27.324,66.125c-0.068,0.077-0.094,0.179-0.171,0.247
				c-0.068,0.077-0.171,0.102-0.247,0.171c-16.981,16.87-40.354,27.324-66.125,27.324
				C140.245,392.533,98.133,350.421,98.133,298.667z"/>
			<path d="M285.867,170.667c4.71,0,8.533-3.823,8.533-8.533V68.267c0-4.71-3.823-8.533-8.533-8.533H98.133
				c-4.71,0-8.533,3.823-8.533,8.533v93.867c0,4.71,3.823,8.533,8.533,8.533H285.867z M226.133,95.292
				c0-10.197,8.294-18.492,18.492-18.492h14.217c10.197,0,18.492,8.294,18.492,18.492v39.817c0,10.197-8.294,18.492-18.492,18.492
				h-14.217c-10.197,0-18.492-8.294-18.492-18.492V95.292z M166.4,136.533c0-14.114,11.486-25.6,25.6-25.6
				c4.71,0,8.533-3.823,8.533-8.533s-3.823-8.533-8.533-8.533c-4.71,0-8.533,3.823-8.533,8.533c0,4.719-3.814,8.533-8.533,8.533
				s-8.533-3.814-8.533-8.533c0-14.114,11.486-25.6,25.6-25.6c14.114,0,25.6,11.486,25.6,25.6S206.114,128,192,128
				c-4.71,0-8.533,3.823-8.533,8.533h25.6c4.719,0,8.533,3.814,8.533,8.533s-3.814,8.533-8.533,8.533h-34.133
				c-4.719,0-8.533-3.814-8.533-8.533V136.533z M106.667,136.533c0-14.114,11.486-25.6,25.6-25.6c4.71,0,8.533-3.823,8.533-8.533
				s-3.823-8.533-8.533-8.533c-4.71,0-8.533,3.823-8.533,8.533c0,4.719-3.814,8.533-8.533,8.533s-8.533-3.814-8.533-8.533
				c0-14.114,11.486-25.6,25.6-25.6c14.114,0,25.6,11.486,25.6,25.6s-11.486,25.6-25.6,25.6c-4.71,0-8.533,3.823-8.533,8.533h25.6
				c4.719,0,8.533,3.814,8.533,8.533s-3.814,8.533-8.533,8.533H115.2c-4.719,0-8.533-3.814-8.533-8.533V136.533z"/>
			<path d="M268.8,298.667c0-42.351-34.449-76.8-76.8-76.8c-18.108,0-34.739,6.332-47.88,16.853l107.827,107.827
				C262.468,333.406,268.8,316.774,268.8,298.667z"/>
			<path d="M244.625,136.533h14.217c0.785,0,1.425-0.64,1.425-1.425V95.292c0-0.785-0.64-1.425-1.425-1.425h-14.217
				c-0.785,0-1.425,0.64-1.425,1.425v39.817C243.2,135.893,243.84,136.533,244.625,136.533z"/>
			<path d="M239.881,358.614L132.054,250.787c-10.522,13.141-16.853,29.773-16.853,47.881c0,42.351,34.449,76.8,76.8,76.8
				C210.109,375.468,226.74,369.136,239.881,358.614z"/>
		</g>
	</g>
</g>
<g>
</g>
<g>
</g>
<g>
</g>
<g>
</g>
<g>
</g>
<g>
</g>
<g>
</g>
<g>
</g>
<g>
</g>
<g>
</g>
<g>
</g>
<g>
</g>
<g>
</g>
<g>
</g>
<g>
</g>
</svg>
