<?xml version="1.0" encoding="iso-8859-1"?>
<!-- Generator: Adobe Illustrator 19.0.0, SVG Export Plug-In . SVG Version: 6.00 Build 0)  -->
<svg version="1.1" id="Layer_1" xmlns="http://www.w3.org/2000/svg" xmlns:xlink="http://www.w3.org/1999/xlink" x="0px" y="0px"
	 viewBox="0 0 512 512" style="enable-background:new 0 0 512 512;" xml:space="preserve">
<g>
	<g>
		<g>
			<path d="M341.333,68.267H170.667c-4.71,0-8.533,3.823-8.533,8.533v83.422c25.856-20.079,57.207-31.249,90.155-32.043
				l40.346-40.346c3.336-3.337,8.73-3.337,12.066,0s3.337,8.73,0,12.066l-29.449,29.448c27.221,3.422,52.864,13.978,74.615,30.874
				V76.8C349.867,72.09,346.044,68.267,341.333,68.267z"/>
			<path d="M256,307.2c-28.237,0-51.2,22.963-51.2,51.2c0,28.237,22.963,51.2,51.2,51.2c28.237,0,51.2-22.963,51.2-51.2
				C307.2,330.163,284.237,307.2,256,307.2z M238.933,358.4c0,4.719-3.814,8.533-8.533,8.533s-8.533-3.814-8.533-8.533
				c0-18.825,15.309-34.133,34.133-34.133c4.719,0,8.533,3.814,8.533,8.533s-3.814,8.533-8.533,8.533
				C246.588,341.333,238.933,348.988,238.933,358.4z M256,392.533c-4.719,0-8.533-3.814-8.533-8.533s3.814-8.533,8.533-8.533
				c9.412,0,17.067-7.654,17.067-17.067c0-4.719,3.814-8.533,8.533-8.533s8.533,3.814,8.533,8.533
				C290.133,377.225,274.825,392.533,256,392.533z"/>
			<path d="M256,273.067c-47.053,0-85.333,38.281-85.333,85.333c0,47.053,38.281,85.333,85.333,85.333s85.333-38.281,85.333-85.333
				C341.333,311.347,303.053,273.067,256,273.067z M256,426.667c-37.641,0-68.267-30.626-68.267-68.267
				c0-37.641,30.626-68.267,68.267-68.267c37.641,0,68.267,30.626,68.267,68.267C324.267,396.041,293.641,426.667,256,426.667z"/>
			<path d="M166.919,178.242c0.094,0.043,0.154,0.12,0.239,0.162c0.179,0.077,0.358,0.128,0.538,0.196
				c0.939,0.35,1.92,0.597,2.97,0.597h170.667c1.058,0,2.039-0.247,2.97-0.597c0.179-0.068,0.367-0.12,0.538-0.196
				c0.094-0.043,0.154-0.119,0.239-0.162c-24.823-21.453-56.158-33.178-89.079-33.178
				C223.077,145.064,191.742,156.789,166.919,178.242z"/>
			<path d="M404.975,94.507l4.489-24.713c0.085-0.503,0.137-1.015,0.137-1.527C409.6,30.626,378.974,0,341.333,0H170.667
				C133.026,0,102.4,30.626,102.4,68.267c0,0.512,0.051,1.024,0.137,1.527l4.489,24.67c18.765,106.385,17.263,214.707-4.454,321.98
				c-0.111,0.555-0.171,1.126-0.171,1.69c0,51.755,42.112,93.867,93.867,93.867h119.467c51.755,0,93.867-42.112,93.867-93.867
				c0-0.589-0.06-1.178-0.179-1.749C388.087,314.718,386.56,203.383,404.975,94.507z M256,460.8c-56.465,0-102.4-45.935-102.4-102.4
				c0-56.465,45.935-102.4,102.4-102.4s102.4,45.935,102.4,102.4C358.4,414.865,312.465,460.8,256,460.8z M366.933,170.667
				c0,3.652-0.794,7.108-2.176,10.257c-0.009,0.017-0.009,0.034-0.017,0.051c-0.563,1.28-1.237,2.475-1.98,3.618
				c-0.265,0.41-0.572,0.785-0.862,1.178c-0.614,0.828-1.263,1.621-1.963,2.372c-0.341,0.358-0.674,0.708-1.033,1.05
				c-0.853,0.811-1.749,1.544-2.697,2.219c-0.247,0.188-0.478,0.401-0.742,0.572c-1.203,0.802-2.483,1.485-3.814,2.074
				c-0.393,0.171-0.794,0.299-1.195,0.452c-1.033,0.401-2.091,0.725-3.174,0.99c-0.452,0.111-0.896,0.222-1.365,0.307
				c-1.493,0.273-3.021,0.461-4.582,0.461H170.667c-1.562,0-3.089-0.188-4.582-0.461c-0.469-0.085-0.913-0.196-1.365-0.307
				c-1.084-0.265-2.142-0.589-3.174-0.99c-0.401-0.154-0.802-0.282-1.195-0.452c-1.331-0.589-2.611-1.271-3.814-2.074
				c-0.265-0.171-0.495-0.384-0.742-0.572c-0.947-0.674-1.843-1.408-2.697-2.219c-0.358-0.341-0.691-0.691-1.033-1.05
				c-0.7-0.751-1.348-1.544-1.963-2.372c-0.29-0.393-0.597-0.768-0.862-1.178c-0.742-1.143-1.417-2.338-1.98-3.618
				c-0.009-0.017-0.009-0.034-0.017-0.06c-1.382-3.14-2.176-6.596-2.176-10.249V76.8c0-14.114,11.486-25.6,25.6-25.6h170.667
				c14.114,0,25.6,11.486,25.6,25.6V170.667z"/>
		</g>
	</g>
</g>
<g>
</g>
<g>
</g>
<g>
</g>
<g>
</g>
<g>
</g>
<g>
</g>
<g>
</g>
<g>
</g>
<g>
</g>
<g>
</g>
<g>
</g>
<g>
</g>
<g>
</g>
<g>
</g>
<g>
</g>
</svg>
