<?xml version="1.0" encoding="iso-8859-1"?>
<!-- Generator: Adobe Illustrator 19.0.0, SVG Export Plug-In . SVG Version: 6.00 Build 0)  -->
<svg version="1.1" id="Layer_1" xmlns="http://www.w3.org/2000/svg" xmlns:xlink="http://www.w3.org/1999/xlink" x="0px" y="0px"
	 viewBox="0 0 503.607 503.607" style="enable-background:new 0 0 503.607 503.607;" xml:space="preserve">
<g>
	<g>
		<g>
			<path d="M243.41,390.295c0-4.633-3.76-8.393-8.393-8.393h-15.595c-0.084,0.319-0.218,0.621-0.294,0.948
				c-0.118,0.512-0.21,1.024-0.302,1.536c-0.344,1.922-0.596,3.886-0.596,5.909c0,2.006,0.252,3.953,0.596,5.859
				c0.101,0.554,0.193,1.1,0.319,1.645c0.067,0.311,0.201,0.588,0.277,0.89h15.595C239.65,398.688,243.41,394.928,243.41,390.295z"
				/>
			<path d="M100.721,398.688c-4.633,0-8.393,3.76-8.393,8.393v15.595c0.302,0.076,0.579,0.21,0.89,0.277
				c0.546,0.126,1.091,0.218,1.637,0.319c1.914,0.344,3.861,0.596,5.867,0.596s3.953-0.252,5.867-0.596
				c0.546-0.101,1.091-0.193,1.637-0.319c0.311-0.067,0.588-0.201,0.89-0.277v-15.595
				C109.115,402.449,105.354,398.688,100.721,398.688z"/>
			<path d="M394.492,356.722c-18.516,0-33.574,15.058-33.574,33.574c0,17.744,13.866,32.155,31.316,33.339l-3.676-3.668
				c-4.751-4.742-7.378-11.071-7.378-17.802c0-6.723,2.627-13.052,7.378-17.802c9.518-9.518,26.112-9.501,35.613,0l3.668,3.668
				C426.647,370.58,412.236,356.722,394.492,356.722z"/>
			<path d="M251.803,356.721c-8.444,0-16.073,3.231-21.974,8.393h5.187c13.883,0,25.18,11.298,25.18,25.18
				s-11.298,25.18-25.18,25.18h-5.187c5.901,5.162,13.53,8.393,21.974,8.393c18.516,0,33.574-15.058,33.574-33.574
				S270.319,356.721,251.803,356.721z"/>
			<path d="M406.361,393.77c-2.241,0-4.348,0.873-5.934,2.459c-1.586,1.586-2.459,3.693-2.459,5.934
				c0,2.249,0.873,4.348,2.459,5.926l11.012,11.021c0.235-0.134,0.487-0.243,0.713-0.386c2.09-1.293,4.046-2.761,5.8-4.474
				c0.143-0.143,0.294-0.285,0.436-0.428c1.746-1.771,3.232-3.752,4.532-5.867c0.143-0.227,0.252-0.478,0.386-0.713l-11.012-11.012
				C410.709,394.643,408.61,393.77,406.361,393.77z"/>
			<path d="M436.459,79.738H67.148c-4.633,0-8.393,3.76-8.393,8.393v201.443c0,4.633,3.76,8.393,8.393,8.393h126.573
				c4.104-28.37,28.555-50.26,58.083-50.26c7.092,0,13.874,1.326,20.178,3.634l59.056-108.913
				c-25.273-8.024-51.83-12.33-79.234-12.33c-58.209,0-115.947,20.598-162.623,58.007c-1.544,1.242-3.399,1.847-5.238,1.847
				c-2.459,0-4.902-1.074-6.555-3.148c-2.904-3.618-2.325-8.897,1.301-11.793c49.63-39.793,111.104-61.7,173.115-61.7
				c30.275,0,59.644,4.776,87.451,13.958l14.286-26.355c2.207-4.071,7.311-5.582,11.381-3.374s5.59,7.302,3.374,11.382
				l-13.085,24.14c24.845,9.98,48.271,23.644,69.724,40.851c3.618,2.896,4.197,8.175,1.293,11.801
				c-2.879,3.618-8.175,4.197-11.801,1.293c-20.673-16.569-43.369-29.453-67.391-38.887l-60.29,111.196
				c12.28,9.115,20.858,22.864,23.141,38.652h126.573c4.633,0,8.393-3.76,8.393-8.393V88.131
				C444.852,83.498,441.092,79.738,436.459,79.738z"/>
			<path d="M100.721,356.721c-18.516,0-33.574,15.058-33.574,33.574c0,8.444,3.232,16.073,8.393,21.974v-5.187
				c0-13.883,11.298-25.18,25.18-25.18s25.18,11.298,25.18,25.18v5.187c5.162-5.901,8.393-13.53,8.393-21.974
				C134.295,371.779,119.237,356.721,100.721,356.721z"/>
			<path d="M461.639,20.984H41.967C18.826,20.984,0,39.81,0,62.951v377.705c0,23.141,18.826,41.967,41.967,41.967h419.672
				c23.141,0,41.967-18.826,41.967-41.967V62.951C503.607,39.81,484.78,20.984,461.639,20.984z M100.721,440.656
				c-27.774,0-50.361-22.587-50.361-50.361s22.587-50.361,50.361-50.361s50.361,22.587,50.361,50.361
				S128.495,440.656,100.721,440.656z M251.803,440.656c-27.774,0-50.361-22.587-50.361-50.361s22.587-50.361,50.361-50.361
				s50.361,22.587,50.361,50.361S279.577,440.656,251.803,440.656z M441.361,408.593c-0.008,0.025-0.008,0.05-0.017,0.067
				c-0.008,0.025-0.025,0.05-0.034,0.067c-1.225,3.106-2.745,6.06-4.532,8.83c-0.109,0.168-0.21,0.344-0.319,0.512
				c-1.813,2.736-3.878,5.279-6.178,7.604c-0.076,0.076-0.118,0.168-0.193,0.235c-0.076,0.076-0.168,0.126-0.252,0.201
				c-2.308,2.291-4.851,4.348-7.571,6.152c-0.168,0.117-0.353,0.21-0.529,0.327c-2.761,1.779-5.708,3.299-8.813,4.524
				c-0.017,0.008-0.042,0.025-0.067,0.034c-0.017,0.008-0.034,0.008-0.05,0.008c-5.682,2.233-11.852,3.5-18.315,3.5
				c-27.774,0-50.361-22.587-50.361-50.361s22.587-50.361,50.361-50.361c27.774,0,50.361,22.587,50.361,50.361
				C444.852,396.758,443.585,402.91,441.361,408.593z M461.639,289.574c0,13.883-11.298,25.18-25.18,25.18H302.164H201.443H67.148
				c-13.883,0-25.18-11.298-25.18-25.18V88.131c0-13.883,11.298-25.18,25.18-25.18h369.311c13.883,0,25.18,11.298,25.18,25.18
				V289.574z"/>
			<path d="M251.803,264.492c-20.262,0-37.217,14.395-41.12,33.473h82.239C289.02,278.886,272.065,264.492,251.803,264.492z"/>
		</g>
	</g>
</g>
<g>
</g>
<g>
</g>
<g>
</g>
<g>
</g>
<g>
</g>
<g>
</g>
<g>
</g>
<g>
</g>
<g>
</g>
<g>
</g>
<g>
</g>
<g>
</g>
<g>
</g>
<g>
</g>
<g>
</g>
</svg>
