<?xml version="1.0" encoding="iso-8859-1"?>
<!-- Generator: Adobe Illustrator 19.0.0, SVG Export Plug-In . SVG Version: 6.00 Build 0)  -->
<svg version="1.1" id="Layer_1" xmlns="http://www.w3.org/2000/svg" xmlns:xlink="http://www.w3.org/1999/xlink" x="0px" y="0px"
	 viewBox="0 0 512.002 512.002" style="enable-background:new 0 0 512.002 512.002;" xml:space="preserve">
<g>
	<g>
		<path d="M347.563,364.134c0.299-0.324,0.614-0.623,0.87-0.998l51.2-76.8c2.62-3.925,1.562-9.224-2.364-11.836
			c-3.934-2.62-9.233-1.562-11.836,2.364l-38.596,57.899L319.267,307.2l28.1-28.1c0.085-0.085,0.119-0.205,0.196-0.299
			c0.299-0.324,0.614-0.623,0.87-0.998l51.2-76.8c2.62-3.925,1.562-9.224-2.364-11.836c-3.934-2.628-9.233-1.562-11.836,2.364
			l-38.596,57.899l-27.571-27.563l28.1-28.1c1.596-1.596,2.5-3.772,2.5-6.033v-17.067c0-2.261-0.905-4.437-2.5-6.033l-28.1-28.1
			l28.1-28.1c1.596-1.596,2.5-3.772,2.5-6.033V49.63c9.907-3.533,17.067-12.919,17.067-24.03c0-14.114-11.486-25.6-25.6-25.6
			H170.667c-14.114,0-25.6,11.486-25.6,25.6c0,11.11,7.151,20.497,17.067,24.03v52.77c0,2.261,0.896,4.437,2.5,6.033l28.1,28.1
			l-28.1,28.1c-1.604,1.596-2.5,3.772-2.5,6.033v17.067c0,2.261,0.896,4.437,2.5,6.033l28.1,28.1l-27.571,27.563l-38.596-57.899
			c-2.611-3.925-7.902-4.992-11.836-2.364c-3.925,2.611-4.984,7.91-2.364,11.836l51.2,76.8c0.247,0.375,0.572,0.674,0.87,0.998
			c0.077,0.085,0.111,0.213,0.196,0.299l28.1,28.1l-27.571,27.563l-38.596-57.899c-2.611-3.925-7.902-4.984-11.836-2.364
			c-3.925,2.611-4.984,7.91-2.364,11.836l51.2,76.8c0.247,0.375,0.572,0.674,0.87,0.998c0.077,0.085,0.111,0.213,0.196,0.299
			l28.1,28.1l-27.571,27.563l-38.596-57.899c-2.611-3.917-7.902-4.992-11.836-2.364c-3.925,2.611-4.984,7.91-2.364,11.836l51.2,76.8
			c0.427,0.631,0.922,1.186,1.476,1.673c0,0,0,0.009,0.009,0.009l68.267,59.733c2.517,2.21,6.11,2.739,9.139,1.357
			c3.046-1.382,5.009-4.42,5.009-7.774V153.6c0-4.702,3.823-8.533,8.533-8.533c4.71,0,8.533,3.831,8.533,8.533v349.867
			c0,3.354,1.954,6.391,5.009,7.774c1.126,0.512,2.33,0.759,3.524,0.759c2.022,0,4.036-0.725,5.615-2.116l68.267-59.733
			c0.009,0,0.009-0.009,0.009-0.009c0.555-0.486,1.05-1.041,1.476-1.673l51.2-76.8c2.62-3.925,1.562-9.225-2.364-11.836
			c-3.934-2.628-9.233-1.553-11.836,2.364l-38.596,57.899l-27.571-27.563l28.1-28.1
			C347.453,364.348,347.487,364.228,347.563,364.134z"/>
	</g>
</g>
<g>
</g>
<g>
</g>
<g>
</g>
<g>
</g>
<g>
</g>
<g>
</g>
<g>
</g>
<g>
</g>
<g>
</g>
<g>
</g>
<g>
</g>
<g>
</g>
<g>
</g>
<g>
</g>
<g>
</g>
</svg>
