<?xml version="1.0" encoding="iso-8859-1"?>
<!-- Generator: Adobe Illustrator 19.0.0, SVG Export Plug-In . SVG Version: 6.00 Build 0)  -->
<svg version="1.1" id="Layer_1" xmlns="http://www.w3.org/2000/svg" xmlns:xlink="http://www.w3.org/1999/xlink" x="0px" y="0px"
	 viewBox="0 0 512 512" style="enable-background:new 0 0 512 512;" xml:space="preserve">
<g>
	<g>
		<path d="M486.4,460.8h-17.067H460.8V49.493c10.24-3.413,17.067-12.8,17.067-23.893c0-14.507-11.093-25.6-25.6-25.6H59.733
			c-13.653,0-25.6,11.093-25.6,25.6c0,11.093,6.827,20.48,17.067,23.893V460.8h-8.533H25.6c-5.12,0-8.533,3.413-8.533,8.533
			s3.413,8.533,8.533,8.533h8.533v8.533c0,14.507,11.093,25.6,25.6,25.6h392.533c14.507,0,25.6-11.093,25.6-25.6v-8.533h8.533
			c5.12,0,8.533-3.413,8.533-8.533C494.933,465.067,491.52,460.8,486.4,460.8z M59.733,17.067h392.533
			c5.12,0,8.533,3.413,8.533,8.533s-3.413,8.533-8.533,8.533H59.733c-4.267,0-8.533-3.413-8.533-8.533S55.467,17.067,59.733,17.067z
			 M418.133,247.467H384H273.067c-5.12,0-8.533-3.413-8.533-8.533V76.8c0-5.12,3.413-8.533,8.533-8.533H332.8h85.333
			c5.12,0,8.533,3.413,8.533,8.533v162.133C426.667,244.053,423.253,247.467,418.133,247.467z M426.667,273.067V435.2
			c0,5.12-3.413,8.533-8.533,8.533H358.4h-85.333c-5.12,0-8.533-3.413-8.533-8.533V273.067c0-5.12,3.413-8.533,8.533-8.533h119.467
			h25.6C423.253,264.533,426.667,268.8,426.667,273.067z M238.933,247.467H128H93.867c-5.12,0-8.533-3.413-8.533-8.533V76.8
			c0-5.12,3.413-8.533,8.533-8.533H179.2h59.733c5.12,0,8.533,4.267,8.533,8.533v162.133
			C247.467,244.053,244.053,247.467,238.933,247.467z M247.467,273.067V435.2c0,5.12-3.413,8.533-8.533,8.533H153.6H93.867
			c-5.12,0-8.533-3.413-8.533-8.533V273.067c0-5.12,3.413-8.533,8.533-8.533h25.6h119.467
			C244.053,264.533,247.467,267.947,247.467,273.067z M460.8,486.4c0,5.12-3.413,8.533-8.533,8.533H59.733
			c-5.12,0-8.533-3.413-8.533-8.533v-8.533h8.533h392.533h8.533V486.4z"/>
	</g>
</g>
<g>
	<g>
		<path d="M281.6,281.6v145.067h68.267c0.853-52.907,7.68-114.347,24.747-145.067H281.6z"/>
	</g>
</g>
<g>
	<g>
		<path d="M187.733,85.333c-2.56,31.573-14.507,110.08-36.693,145.067h79.36V85.333H187.733z"/>
	</g>
</g>
<g>
	<g>
		<path d="M138.24,281.6c17.067,30.72,23.893,92.16,24.747,145.067H230.4V281.6H138.24z"/>
	</g>
</g>
<g>
	<g>
		<path d="M395.093,281.6c-13.653,11.947-27.307,67.413-28.16,145.067H409.6V281.6H395.093z"/>
	</g>
</g>
<g>
	<g>
		<path d="M102.4,85.333V230.4H128c13.653,0,40.107-86.187,42.667-145.067H102.4z"/>
	</g>
</g>
<g>
	<g>
		<path d="M324.267,85.333H281.6V230.4h79.36C338.773,195.413,326.827,116.907,324.267,85.333z"/>
	</g>
</g>
<g>
	<g>
		<path d="M116.907,281.6H102.4v145.067h42.667C144.213,349.013,130.56,293.547,116.907,281.6z"/>
	</g>
</g>
<g>
	<g>
		<path d="M341.333,85.333C343.893,144.213,371.2,230.4,384,230.4h25.6V85.333H341.333z"/>
	</g>
</g>
<g>
</g>
<g>
</g>
<g>
</g>
<g>
</g>
<g>
</g>
<g>
</g>
<g>
</g>
<g>
</g>
<g>
</g>
<g>
</g>
<g>
</g>
<g>
</g>
<g>
</g>
<g>
</g>
<g>
</g>
</svg>
