<?xml version="1.0" encoding="iso-8859-1"?>
<!-- Generator: Adobe Illustrator 19.0.0, SVG Export Plug-In . SVG Version: 6.00 Build 0)  -->
<svg version="1.1" id="Layer_1" xmlns="http://www.w3.org/2000/svg" xmlns:xlink="http://www.w3.org/1999/xlink" x="0px" y="0px"
	 viewBox="0 0 503.324 503.324" style="enable-background:new 0 0 503.324 503.324;" xml:space="preserve">
<g>
	<g>
		<g>
			<path d="M364.475,190.916c-4.782,0-8.678,3.888-8.678,8.678s3.896,8.678,8.678,8.678h17.356h17.356v-17.356h-26.034H364.475z"/>
			<path d="M190.369,86.781c-2.673,24.75-15.299,70.3-36.04,92.004c6.37,4.755,10.552,12.271,10.552,20.81
				c0,12.757-9.233,23.344-21.356,25.565c12.678,18.154,20.237,48.571,21.218,87.248H338.58
				c0.981-38.678,8.539-69.094,21.218-87.248c-12.123-2.222-21.357-12.809-21.357-25.565c0-8.539,4.183-16.054,10.552-20.81
				c-20.74-21.704-33.367-67.254-36.04-92.004H190.369z"/>
			<path d="M104.135,286.374v26.034h43.286c-1.362-53.795-15.308-80.072-27.874-86.78h-15.412V286.374z"/>
			<rect x="459.934" y="225.624" width="43.39" height="52.068"/>
			<rect x="60.748" y="225.624" width="26.034" height="52.068"/>
			<path d="M104.136,208.272h17.356h17.356c4.782,0,8.678-3.888,8.678-8.678s-3.896-8.678-8.678-8.678h-8.678h-26.034V208.272z"/>
			<rect x="0.002" y="225.624" width="43.39" height="52.068"/>
			<polygon points="425.22,364.475 407.864,364.475 321.085,364.475 321.085,416.543 425.22,416.543 			"/>
			<polygon points="86.78,321.086 86.78,295.052 0,295.052 0,347.12 86.78,347.12 			"/>
			<rect x="60.748" y="86.776" width="26.034" height="52.068"/>
			<rect x="459.934" y="86.776" width="43.39" height="52.068"/>
			<rect x="416.544" y="86.776" width="26.034" height="52.068"/>
			<rect x="0.002" y="364.471" width="60.746" height="52.068"/>
			<polygon points="399.186,329.764 347.119,329.764 156.203,329.764 104.136,329.764 104.136,347.12 399.186,347.12 			"/>
			<rect x="416.544" y="225.624" width="26.034" height="52.068"/>
			<rect x="199.595" y="364.471" width="104.136" height="52.068"/>
			<path d="M355.902,312.408h43.286v-26.034v-60.746h-15.412C371.21,232.336,357.265,258.613,355.902,312.408z"/>
			<rect x="138.849" y="433.895" width="104.136" height="69.424"/>
			<polygon points="503.322,295.052 416.542,295.052 416.542,321.086 416.542,347.12 503.322,347.12 			"/>
			<rect x="442.578" y="364.471" width="60.746" height="52.068"/>
			<polygon points="503.322,156.204 416.542,156.204 416.542,182.238 416.542,208.272 503.322,208.272 			"/>
			<path d="M503.322,69.425V8.679c0-4.799-3.888-8.678-8.678-8.678H381.831v69.424h26.034H503.322z"/>
			<path d="M381.831,503.323h112.814c4.79,0,8.678-3.879,8.678-8.678v-60.746H381.831V503.323z"/>
			<path d="M0,494.645c0,4.799,3.888,8.678,8.678,8.678h112.814v-69.424H0V494.645z"/>
			<path d="M121.492,69.425V0.001H8.678C3.888,0.001,0,3.88,0,8.679v60.746h95.458H121.492z"/>
			<rect x="260.341" y="433.895" width="104.136" height="69.424"/>
			<polygon points="364.475,69.425 364.475,0.001 260.339,0.001 260.339,69.425 321.085,69.425 			"/>
			<path d="M373.149,173.56h26.034v-26.034V86.781h-68.894C333.925,119.557,355.724,173.56,373.149,173.56z"/>
			<polygon points="242.983,69.425 242.983,0.001 138.847,0.001 138.847,69.425 182.237,69.425 			"/>
			<polygon points="78.102,416.543 182.237,416.543 182.237,364.475 95.458,364.475 78.102,364.475 			"/>
			<polygon points="86.78,182.238 86.78,156.204 0,156.204 0,208.272 86.78,208.272 			"/>
			<rect x="0.002" y="86.776" width="43.39" height="52.068"/>
			<path d="M104.136,147.526v26.034h26.034c17.434,0,39.224-54.003,42.86-86.78h-68.894V147.526z"/>
		</g>
	</g>
</g>
<g>
</g>
<g>
</g>
<g>
</g>
<g>
</g>
<g>
</g>
<g>
</g>
<g>
</g>
<g>
</g>
<g>
</g>
<g>
</g>
<g>
</g>
<g>
</g>
<g>
</g>
<g>
</g>
<g>
</g>
</svg>
