<?xml version="1.0" encoding="iso-8859-1"?>
<!-- Generator: Adobe Illustrator 19.0.0, SVG Export Plug-In . SVG Version: 6.00 Build 0)  -->
<svg version="1.1" id="Layer_1" xmlns="http://www.w3.org/2000/svg" xmlns:xlink="http://www.w3.org/1999/xlink" x="0px" y="0px"
	 viewBox="0 0 512 512" style="enable-background:new 0 0 512 512;" xml:space="preserve">
<g>
	<g>
		<g>
			<path d="M486.4,460.8h-17.067H460.8V49.63c9.907-3.533,17.067-12.919,17.067-24.03c0-14.114-11.486-25.6-25.6-25.6H59.733
				c-14.114,0-25.6,11.486-25.6,25.6c0,11.11,7.151,20.497,17.067,24.03V460.8h-8.533H25.6c-4.71,0-8.533,3.814-8.533,8.533
				s3.823,8.533,8.533,8.533h8.533v8.533c0,14.114,11.486,25.6,25.6,25.6h392.533c14.114,0,25.6-11.486,25.6-25.6v-8.533h8.533
				c4.719,0,8.533-3.814,8.533-8.533S491.119,460.8,486.4,460.8z M59.733,17.067h392.533c4.71,0,8.533,3.823,8.533,8.533
				s-3.823,8.533-8.533,8.533H59.733c-4.702,0-8.533-3.823-8.533-8.533S55.031,17.067,59.733,17.067z M102.4,332.8v128H85.333v-384
				c0-4.719,3.823-8.533,8.533-8.533h324.267c4.719,0,8.533,3.814,8.533,8.533v384H409.6v-128H102.4z M460.8,486.4
				c0,4.71-3.823,8.533-8.533,8.533H59.733c-4.702,0-8.533-3.823-8.533-8.533v-8.533h8.533h34.133h324.267h34.133h8.533V486.4z"/>
			<path d="M409.6,85.333H102.4v230.4h307.2V85.333z M151.1,210.833L134.033,227.9c-1.664,1.664-3.849,2.5-6.033,2.5
				c-2.185,0-4.369-0.836-6.033-2.5c-3.337-3.337-3.337-8.73,0-12.066l17.067-17.067c3.337-3.337,8.73-3.337,12.066,0
				C154.436,202.104,154.436,207.497,151.1,210.833z M151.1,168.166l-17.067,17.067c-1.664,1.664-3.849,2.5-6.033,2.5
				c-2.185,0-4.369-0.836-6.033-2.5c-3.337-3.337-3.337-8.73,0-12.066l17.067-17.067c3.337-3.336,8.73-3.336,12.066,0
				C154.436,159.437,154.436,164.83,151.1,168.166z M134.033,142.566c-1.664,1.664-3.849,2.5-6.033,2.5
				c-2.185,0-4.369-0.836-6.033-2.5c-3.337-3.336-3.337-8.73,0-12.066l25.6-25.6c3.337-3.336,8.73-3.336,12.066,0
				c3.337,3.337,3.337,8.73,0,12.066L134.033,142.566z M164.634,130.5l25.6-25.6c3.336-3.336,8.73-3.336,12.066,0
				c3.337,3.337,3.337,8.73,0,12.066l-25.6,25.6c-1.664,1.664-3.849,2.5-6.033,2.5c-2.185,0-4.369-0.836-6.033-2.5
				C161.297,139.23,161.297,133.837,164.634,130.5z M170.667,187.733c-4.71,0-8.533-3.823-8.533-8.533s3.823-8.533,8.533-8.533
				s8.533,3.823,8.533,8.533S175.377,187.733,170.667,187.733z M244.966,116.966L202.3,159.633c-1.664,1.664-3.849,2.5-6.033,2.5
				c-2.185,0-4.369-0.836-6.033-2.5c-3.337-3.337-3.337-8.73,0-12.066L232.9,104.9c3.336-3.336,8.73-3.336,12.066,0
				C248.303,108.237,248.303,113.63,244.966,116.966z"/>
		</g>
	</g>
</g>
<g>
</g>
<g>
</g>
<g>
</g>
<g>
</g>
<g>
</g>
<g>
</g>
<g>
</g>
<g>
</g>
<g>
</g>
<g>
</g>
<g>
</g>
<g>
</g>
<g>
</g>
<g>
</g>
<g>
</g>
</svg>
