<?xml version="1.0" encoding="iso-8859-1"?>
<!-- Generator: Adobe Illustrator 19.0.0, SVG Export Plug-In . SVG Version: 6.00 Build 0)  -->
<svg version="1.1" id="Layer_1" xmlns="http://www.w3.org/2000/svg" xmlns:xlink="http://www.w3.org/1999/xlink" x="0px" y="0px"
	 viewBox="0 0 512 512" style="enable-background:new 0 0 512 512;" xml:space="preserve">
<g>
	<g>
		<g>
			<path d="M486.4,460.8h-17.067H460.8V49.63c9.907-3.533,17.067-12.919,17.067-24.03c0-14.114-11.486-25.6-25.6-25.6H59.733
				c-14.114,0-25.6,11.486-25.6,25.6c0,11.11,7.159,20.497,17.067,24.03V460.8h-8.533H25.6c-4.71,0-8.533,3.814-8.533,8.533
				s3.823,8.533,8.533,8.533h8.533v8.533c0,14.114,11.486,25.6,25.6,25.6h392.533c14.114,0,25.6-11.486,25.6-25.6v-8.533h8.533
				c4.71,0,8.533-3.814,8.533-8.533S491.11,460.8,486.4,460.8z M59.733,17.067h392.533c4.702,0,8.533,3.823,8.533,8.533
				s-3.831,8.533-8.533,8.533H59.733c-4.702,0-8.533-3.823-8.533-8.533S55.031,17.067,59.733,17.067z M264.533,221.867v18.278
				c14.677,3.814,25.6,17.058,25.6,32.922c0,18.825-15.309,34.133-34.133,34.133c-18.825,0-34.133-15.309-34.133-34.133
				c0-15.863,10.923-29.107,25.6-32.922v-18.278H102.4V460.8H85.333v-384c0-4.719,3.823-8.533,8.533-8.533h324.267
				c4.71,0,8.533,3.814,8.533,8.533v384H409.6V221.867H264.533z M460.8,486.4c0,4.71-3.831,8.533-8.533,8.533H59.733
				c-4.702,0-8.533-3.823-8.533-8.533v-8.533h8.533h34.133h324.267h34.133h8.533V486.4z"/>
			<path d="M409.6,187.733h-17.067c-4.71,0-8.533-3.814-8.533-8.533s3.823-8.533,8.533-8.533H409.6V153.6h-34.133
				c-4.71,0-8.533-3.814-8.533-8.533s3.823-8.533,8.533-8.533H409.6v-17.067h-51.2c-4.71,0-8.533-3.814-8.533-8.533
				s3.823-8.533,8.533-8.533h51.2V85.333H102.4V102.4h17.067c4.71,0,8.533,3.814,8.533,8.533s-3.823,8.533-8.533,8.533H102.4v17.067
				h34.133c4.71,0,8.533,3.814,8.533,8.533s-3.823,8.533-8.533,8.533H102.4v17.067h51.2c4.71,0,8.533,3.814,8.533,8.533
				s-3.823,8.533-8.533,8.533h-51.2V204.8h307.2V187.733z"/>
			<path d="M238.933,273.067c0,9.412,7.654,17.067,17.067,17.067c9.412,0,17.067-7.654,17.067-17.067
				c0-9.412-7.654-17.067-17.067-17.067C246.588,256,238.933,263.654,238.933,273.067z"/>
		</g>
	</g>
</g>
<g>
</g>
<g>
</g>
<g>
</g>
<g>
</g>
<g>
</g>
<g>
</g>
<g>
</g>
<g>
</g>
<g>
</g>
<g>
</g>
<g>
</g>
<g>
</g>
<g>
</g>
<g>
</g>
<g>
</g>
</svg>
