<?xml version="1.0" encoding="iso-8859-1"?>
<!-- Generator: Adobe Illustrator 19.0.0, SVG Export Plug-In . SVG Version: 6.00 Build 0)  -->
<svg version="1.1" id="Layer_1" xmlns="http://www.w3.org/2000/svg" xmlns:xlink="http://www.w3.org/1999/xlink" x="0px" y="0px"
	 viewBox="0 0 503.607 503.607" style="enable-background:new 0 0 503.607 503.607;" xml:space="preserve">
<g>
	<g>
		<g>
			<path d="M251.803,377.704c-13.883,0-25.18,11.298-25.18,25.18s11.298,25.18,25.18,25.18s25.18-11.298,25.18-25.18
				S265.686,377.704,251.803,377.704z"/>
			<path d="M211.211,392.767c0.428-1.721,0.932-3.408,1.57-5.036c0.319-0.831,0.672-1.628,1.049-2.434
				c0.722-1.544,1.528-3.022,2.417-4.457c0.445-0.705,0.856-1.41,1.335-2.09c0.235-0.336,0.42-0.714,0.663-1.049h-58.788
				c0.252,0.336,0.428,0.713,0.671,1.049c0.478,0.68,0.89,1.385,1.326,2.09c0.89,1.435,1.704,2.912,2.417,4.457
				c0.378,0.806,0.73,1.603,1.058,2.434c0.638,1.628,1.133,3.315,1.57,5.036c0.193,0.781,0.428,1.536,0.579,2.333
				c0.478,2.526,0.789,5.12,0.789,7.781c0,2.669-0.311,5.263-0.789,7.789c-0.151,0.797-0.386,1.553-0.579,2.333
				c-0.436,1.721-0.932,3.408-1.57,5.036c-0.327,0.831-0.68,1.628-1.058,2.434c-0.713,1.544-1.528,3.022-2.417,4.457
				c-0.436,0.705-0.848,1.41-1.326,2.09c-0.243,0.336-0.42,0.713-0.671,1.041h58.788c-0.243-0.327-0.428-0.705-0.663-1.041
				c-0.478-0.68-0.89-1.385-1.335-2.09c-0.89-1.435-1.695-2.912-2.417-4.457c-0.378-0.806-0.73-1.603-1.049-2.434
				c-0.638-1.628-1.141-3.315-1.57-5.036c-0.193-0.781-0.436-1.536-0.588-2.333c-0.478-2.526-0.789-5.12-0.789-7.789
				c0-2.661,0.311-5.254,0.789-7.781C210.774,394.303,211.018,393.547,211.211,392.767z"/>
			<path d="M402.889,402.88c0-13.883-11.298-25.18-25.18-25.18h-92.345c0.243,0.336,0.428,0.713,0.663,1.049
				c0.478,0.68,0.89,1.385,1.335,2.09c0.89,1.435,1.695,2.912,2.417,4.457c0.369,0.806,0.73,1.603,1.049,2.434
				c0.638,1.628,1.142,3.315,1.57,5.036c0.193,0.781,0.437,1.536,0.588,2.333c0.478,2.526,0.789,5.12,0.789,7.781
				c0,2.669-0.311,5.263-0.789,7.789c-0.151,0.797-0.394,1.553-0.588,2.333c-0.428,1.721-0.932,3.408-1.57,5.036
				c-0.319,0.831-0.68,1.628-1.049,2.434c-0.722,1.544-1.528,3.022-2.417,4.457c-0.445,0.705-0.856,1.41-1.335,2.09
				c-0.235,0.336-0.42,0.713-0.663,1.041h92.345C391.591,428.06,402.889,416.771,402.889,402.88z"/>
			<path d="M125.902,377.704c-13.883,0-25.18,11.298-25.18,25.18s11.298,25.18,25.18,25.18c13.883,0,25.18-11.298,25.18-25.18
				S139.784,377.704,125.902,377.704z"/>
			<path d="M211.207,325.617c0.436-1.721,0.932-3.408,1.57-5.036c0.327-0.831,0.68-1.628,1.058-2.434
				c0.713-1.544,1.528-3.022,2.417-4.457c0.436-0.705,0.848-1.41,1.326-2.09c0.243-0.336,0.42-0.713,0.671-1.041h-58.788
				c0.243,0.327,0.428,0.705,0.663,1.041c0.478,0.68,0.89,1.385,1.335,2.09c0.89,1.435,1.695,2.913,2.417,4.457
				c0.378,0.806,0.73,1.603,1.049,2.434c0.638,1.628,1.141,3.315,1.57,5.036c0.193,0.781,0.436,1.536,0.588,2.333
				c0.478,2.526,0.789,5.12,0.789,7.789c0,2.661-0.311,5.254-0.789,7.781c-0.151,0.797-0.395,1.553-0.588,2.333
				c-0.428,1.721-0.932,3.408-1.57,5.036c-0.319,0.831-0.672,1.628-1.049,2.434c-0.722,1.544-1.528,3.022-2.417,4.457
				c-0.445,0.705-0.856,1.41-1.335,2.09c-0.235,0.336-0.42,0.714-0.663,1.049h58.788c-0.252-0.336-0.428-0.713-0.671-1.049
				c-0.478-0.68-0.89-1.385-1.326-2.09c-0.89-1.435-1.704-2.913-2.417-4.457c-0.378-0.806-0.73-1.603-1.058-2.434
				c-0.638-1.628-1.133-3.315-1.57-5.036c-0.193-0.781-0.428-1.536-0.579-2.333c-0.478-2.526-0.789-5.12-0.789-7.781
				c0-2.669,0.311-5.263,0.789-7.789C210.779,327.154,211.014,326.398,211.207,325.617z"/>
			<path d="M125.902,310.556c-13.883,0-25.18,11.298-25.18,25.18s11.298,25.18,25.18,25.18c13.883,0,25.18-11.298,25.18-25.18
				S139.784,310.556,125.902,310.556z"/>
			<path d="M292.396,345.854c-0.428,1.721-0.932,3.408-1.57,5.036c-0.319,0.831-0.671,1.628-1.049,2.434
				c-0.722,1.544-1.528,3.022-2.417,4.457c-0.445,0.705-0.856,1.41-1.335,2.09c-0.235,0.336-0.42,0.714-0.663,1.049h92.345
				c13.883,0,25.18-11.298,25.18-25.18c0-13.891-11.298-25.18-25.18-25.18h-92.345c0.243,0.327,0.428,0.705,0.663,1.041
				c0.478,0.68,0.89,1.385,1.335,2.09c0.89,1.435,1.695,2.913,2.417,4.457c0.378,0.806,0.73,1.603,1.049,2.434
				c0.638,1.628,1.141,3.315,1.57,5.036c0.193,0.781,0.436,1.536,0.588,2.333c0.478,2.526,0.789,5.12,0.789,7.789
				c0,2.661-0.311,5.254-0.789,7.781C292.833,344.318,292.59,345.073,292.396,345.854z"/>
			<path d="M251.803,310.556c-13.883,0-25.18,11.298-25.18,25.18s11.298,25.18,25.18,25.18s25.18-11.298,25.18-25.18
				S265.686,310.556,251.803,310.556z"/>
			<path d="M498.646,168.606L255.236,59.492c-2.182-0.982-4.684-0.982-6.866,0L4.961,168.606C1.939,169.958,0,172.954,0,176.261
				v260.197c0,4.642,3.752,8.393,8.393,8.393h41.967V276.983v-58.754c0-4.642,3.752-8.393,8.393-8.393h386.098
				c4.642,0,8.393,3.752,8.393,8.393v58.754v167.869h41.967c4.642,0,8.393-3.752,8.393-8.393V176.261
				C503.607,172.954,501.668,169.958,498.646,168.606z M302.164,167.868c0,13.883-11.298,25.18-25.18,25.18h-25.18h-25.18
				c-13.883,0-25.18-11.298-25.18-25.18v-25.18c0-13.883,11.298-25.18,25.18-25.18h25.18h25.18c13.883,0,25.18,11.298,25.18,25.18
				V167.868z"/>
			<path d="M218.229,142.687v25.18c0,4.633,3.76,8.393,8.393,8.393h16.787v-41.967h-16.787
				C221.99,134.294,218.229,138.054,218.229,142.687z"/>
			<path d="M276.984,134.294h-16.787v41.967h16.787c4.633,0,8.393-3.76,8.393-8.393v-25.18
				C285.377,138.054,281.617,134.294,276.984,134.294z"/>
			<path d="M67.148,444.851h42.966c-0.101-1.242-0.008-2.493,0.411-3.651c-15.444-6.136-26.59-20.707-26.59-38.316
				c0-13.774,6.765-25.919,17.047-33.574c-10.282-7.655-17.047-19.8-17.047-33.574c0-23.141,18.826-41.967,41.967-41.967h251.803
				c23.141,0,41.967,18.826,41.967,41.967c0,13.774-6.765,25.919-17.047,33.574c10.282,7.655,17.047,19.8,17.047,33.574
				c0,16.946-10.257,31.249-24.761,37.838c0.008,0.042,0.008,0.101,0.017,0.143c0.671,1.225,1.125,2.568,1.125,3.987h40.406V285.376
				H67.148V444.851z"/>
			<rect x="67.149" y="226.618" width="369.311" height="41.967"/>
		</g>
	</g>
</g>
<g>
</g>
<g>
</g>
<g>
</g>
<g>
</g>
<g>
</g>
<g>
</g>
<g>
</g>
<g>
</g>
<g>
</g>
<g>
</g>
<g>
</g>
<g>
</g>
<g>
</g>
<g>
</g>
<g>
</g>
</svg>
