<?xml version="1.0" encoding="iso-8859-1"?>
<!-- Generator: Adobe Illustrator 19.0.0, SVG Export Plug-In . SVG Version: 6.00 Build 0)  -->
<svg version="1.1" id="Layer_1" xmlns="http://www.w3.org/2000/svg" xmlns:xlink="http://www.w3.org/1999/xlink" x="0px" y="0px"
	 viewBox="0 0 511.995 511.995" style="enable-background:new 0 0 511.995 511.995;" xml:space="preserve">
<g>
	<g>
		<path d="M311.473,1.147c-2.637-1.527-5.897-1.527-8.533-0.009c-2.654,1.519-4.275,4.343-4.275,7.39l0.017,79.275
			c-27.93,8.098-57.438,8.09-85.35-0.145V8.528c0-3.046-1.621-5.871-4.275-7.39c-2.637-1.519-5.897-1.519-8.533,0.009
			c-33.69,19.516-55.458,58.556-55.458,99.447c0,36.164,17.476,68.25,44.339,88.508c10.189,24.201,15.394,49.562,15.394,75.426
			v145.067h42.667c4.719,0,8.533,3.823,8.533,8.533c0,4.719-3.814,8.533-8.533,8.533h-42.667v17.067h42.667
			c4.719,0,8.533,3.823,8.533,8.533c0,4.719-3.814,8.533-8.533,8.533h-42.667c0,28.237,22.963,51.2,51.2,51.2
			c28.237,0,51.2-22.963,51.2-51.2V264.528c0-25.865,5.205-51.226,15.394-75.426c26.863-20.258,44.339-52.343,44.339-88.508
			C366.931,59.702,345.162,20.662,311.473,1.147z M310.124,177.155c-1.468,1.033-2.97,2.005-4.48,2.953
			c-0.811,0.512-1.63,1.015-2.458,1.493c-1.417,0.836-2.85,1.638-4.309,2.398c-1.092,0.563-2.21,1.084-3.337,1.604
			c-1.289,0.606-2.569,1.237-3.883,1.775c-2.372,0.981-4.787,1.877-7.245,2.662c-0.87,0.273-1.758,0.486-2.628,0.734
			c-1.86,0.529-3.729,1.033-5.641,1.451c-0.99,0.222-1.98,0.401-2.978,0.589c-1.929,0.358-3.866,0.657-5.828,0.896
			c-0.905,0.111-1.801,0.23-2.705,0.316c-2.85,0.256-5.717,0.435-8.636,0.435c-2.918,0-5.786-0.179-8.636-0.435
			c-0.905-0.085-1.801-0.205-2.705-0.316c-1.963-0.239-3.9-0.538-5.828-0.896c-0.998-0.188-1.997-0.367-2.987-0.589
			c-1.903-0.418-3.772-0.922-5.623-1.451c-0.879-0.247-1.766-0.461-2.637-0.734c-2.458-0.785-4.873-1.681-7.245-2.662
			c-1.314-0.538-2.594-1.169-3.883-1.775c-1.126-0.521-2.244-1.041-3.336-1.604c-1.459-0.759-2.893-1.562-4.318-2.398
			c-0.819-0.478-1.638-0.981-2.449-1.485c-1.51-0.956-3.012-1.92-4.48-2.97c-23.996-17.015-39.74-44.954-39.74-76.553
			c0-28.843,13.278-57.438,34.133-75.511v62.575c0,7.637,5.06,14.438,12.297,16.538c31.036,8.994,63.838,8.994,94.874,0
			c7.236-2.099,12.297-8.9,12.297-16.538V25.083c20.855,18.074,34.133,46.669,34.133,75.511
			C349.864,132.193,334.12,160.131,310.124,177.155z"/>
	</g>
</g>
<g>
</g>
<g>
</g>
<g>
</g>
<g>
</g>
<g>
</g>
<g>
</g>
<g>
</g>
<g>
</g>
<g>
</g>
<g>
</g>
<g>
</g>
<g>
</g>
<g>
</g>
<g>
</g>
<g>
</g>
</svg>
