<?xml version="1.0" encoding="iso-8859-1"?>
<!-- Generator: Adobe Illustrator 19.0.0, SVG Export Plug-In . SVG Version: 6.00 Build 0)  -->
<svg version="1.1" id="Layer_1" xmlns="http://www.w3.org/2000/svg" xmlns:xlink="http://www.w3.org/1999/xlink" x="0px" y="0px"
	 viewBox="0 0 512 512" style="enable-background:new 0 0 512 512;" xml:space="preserve">
<g>
	<g>
		<path d="M383.767,143.104c-0.905-3.849-4.343-6.571-8.303-6.571h-76.8V68.267h76.8c2.961,0,5.709-1.536,7.262-4.053
			c1.553-2.517,1.698-5.658,0.375-8.303C365.855,21.419,331.184,0,292.622,0h-32.478c-48.973,0-95.019,19.063-129.647,53.692
			c-2.441,2.449-3.166,6.11-1.852,9.301c1.323,3.191,4.437,5.274,7.885,5.274h76.8v68.267h-76.8c-3.959,0-7.39,2.722-8.303,6.571
			c-0.905,3.849,0.947,7.825,4.489,9.591l63.548,31.778V230.4c0,11.11,7.159,20.489,17.067,24.021v163.712h34.133
			c4.719,0,8.533,3.814,8.533,8.533c0,4.71-3.814,8.533-8.533,8.533H213.33v17.067h34.133c4.719,0,8.533,3.814,8.533,8.533
			c0,4.71-3.814,8.533-8.533,8.533H213.33c0,23.518,19.14,42.667,42.667,42.667c23.526,0,42.667-19.149,42.667-42.667V254.421
			c9.916-3.533,17.067-12.911,17.067-24.021v-45.926l63.556-31.778C382.82,150.929,384.68,146.953,383.767,143.104z M230.397,230.4
			c0,4.702-3.823,8.533-8.533,8.533c-4.702,0-8.533-3.831-8.533-8.533v-51.2c0-3.234-1.826-6.187-4.71-7.637L172.678,153.6h49.186
			h8.533V230.4z M221.864,51.2h-62.694c28.851-22.144,63.991-34.133,100.975-34.133h32.478c27.162,0,52.002,12.791,67.669,34.133
			H290.13H221.864z M303.383,171.563c-2.893,1.451-4.719,4.403-4.719,7.637v51.2c0,4.702-3.823,8.533-8.533,8.533
			c-4.702,0-8.533-3.831-8.533-8.533v-76.8h8.533h49.186L303.383,171.563z"/>
	</g>
</g>
<g>
</g>
<g>
</g>
<g>
</g>
<g>
</g>
<g>
</g>
<g>
</g>
<g>
</g>
<g>
</g>
<g>
</g>
<g>
</g>
<g>
</g>
<g>
</g>
<g>
</g>
<g>
</g>
<g>
</g>
</svg>
