<?xml version="1.0" encoding="iso-8859-1"?>
<!-- Generator: Adobe Illustrator 19.0.0, SVG Export Plug-In . SVG Version: 6.00 Build 0)  -->
<svg version="1.1" id="Layer_1" xmlns="http://www.w3.org/2000/svg" xmlns:xlink="http://www.w3.org/1999/xlink" x="0px" y="0px"
	 viewBox="0 0 512 512" style="enable-background:new 0 0 512 512;" xml:space="preserve">
<g>
	<g>
		<path d="M388.737,6.021c-5.987-7.132-16.621-8.061-23.753-2.073L301.814,56.98L322.9,83.305l63.764-53.531
			C393.796,23.787,394.724,13.153,388.737,6.021z"/>
	</g>
</g>
<g>
	<g>
		<path d="M433.332,399.522l-86.645-130.586h15.642c5.179,0,9.938-2.847,12.387-7.411c2.449-4.564,2.19-10.104-0.673-14.418
			c-6.749-10.173-56.099-84.549-62.867-94.748h17.491c3.322,0,6.349-1.905,7.788-4.899c1.438-2.994,1.032-6.548-1.044-9.141
			l-69.073-86.237c-2.514-3.138-6.316-4.965-10.337-4.965s-7.823,1.827-10.337,4.965l-5.934,7.409
			c22.391,18.798,5.639,4.735,37.988,31.893c14.295,12.001,16.071,33.302,4.145,47.507c-11.957,14.244-33.242,16.121-47.507,4.145
			c-13.358-11.215-23.105-19.396-36.798-30.892l-20.967,26.178c-2.077,2.593-2.482,6.146-1.044,9.141
			c1.438,2.995,4.466,4.899,7.788,4.899h17.491c-6.767,10.198-56.117,84.576-62.867,94.748c-2.863,4.316-3.122,9.856-0.673,14.418
			c2.449,4.564,7.208,7.411,12.387,7.411h15.642L78.667,399.522c-3.467,5.226-3.781,11.935-0.815,17.46
			c2.965,5.526,8.729,8.973,15,8.973h120.681l-2.518,22.207h-17.921c-6.854,0-12.41,5.556-12.41,12.41v39.017
			c0,6.854,5.556,12.41,12.41,12.41h125.812c6.854,0,12.411-5.556,12.411-12.41v-39.016c0-6.854-5.557-12.41-12.411-12.41h-17.921
			l-2.518-22.207h120.681c6.271,0,12.034-3.448,15-8.973C437.113,411.456,436.8,404.748,433.332,399.522z"/>
	</g>
</g>
<g>
	<g>
		<path d="M266.878,104.296L147.347,3.948c-7.132-5.987-17.766-5.058-23.753,2.073c-5.986,7.131-5.058,17.766,2.073,23.753
			l119.531,100.348c7.132,5.987,17.766,5.058,23.753-2.073C274.938,120.917,274.01,110.284,266.878,104.296z"/>
	</g>
</g>
<g>
</g>
<g>
</g>
<g>
</g>
<g>
</g>
<g>
</g>
<g>
</g>
<g>
</g>
<g>
</g>
<g>
</g>
<g>
</g>
<g>
</g>
<g>
</g>
<g>
</g>
<g>
</g>
<g>
</g>
</svg>
