<?xml version="1.0" encoding="iso-8859-1"?>
<!-- Generator: Adobe Illustrator 19.0.0, SVG Export Plug-In . SVG Version: 6.00 Build 0)  -->
<svg version="1.1" id="Layer_1" xmlns="http://www.w3.org/2000/svg" xmlns:xlink="http://www.w3.org/1999/xlink" x="0px" y="0px"
	 viewBox="0 0 512 512" style="enable-background:new 0 0 512 512;" xml:space="preserve">
<g>
	<g>
		<path d="M494.643,169.478c9.586,0,17.357-7.771,17.357-17.357v-50.324c0-9.586-7.771-17.357-17.357-17.357h-28.056V42.274
			c0-9.586-7.771-17.357-17.357-17.357h-83.413c-9.586,0-17.357,7.771-17.357,17.357V84.44H165.855V42.274
			c0-9.586-7.771-17.357-17.357-17.357H65.085c-9.586,0-17.357,7.771-17.357,17.357V84.44H17.356C7.771,84.44,0,92.211,0,101.797
			v50.324c0,9.586,7.771,17.357,17.357,17.357h33.844v234.606C21.822,411.463,0,438.091,0,469.726
			c0,9.586,7.771,17.357,17.357,17.357h477.286c9.586,0,17.357-7.771,17.357-17.357c0-31.635-21.82-58.263-51.2-65.643V169.478
			H494.643z M175.452,219.803h-71.264c-9.586,0-17.357-7.771-17.357-17.357c0-9.586,7.771-17.357,17.357-17.357h71.264
			c9.586,0,17.357,7.771,17.357,17.357C192.809,212.032,185.038,219.803,175.452,219.803z M409.179,219.803h-18.274v18.275
			c0,9.586-7.771,17.357-17.357,17.357c-9.586,0-17.357-7.771-17.357-17.357v-18.275h-18.276c-9.586,0-17.357-7.771-17.357-17.357
			c0-9.586,7.771-17.357,17.357-17.357h18.276v-18.276c0-9.586,7.771-17.357,17.357-17.357s17.357,7.771,17.357,17.357v18.276
			h18.275c9.586,0,17.357,7.771,17.357,17.357C426.536,212.032,418.765,219.803,409.179,219.803z"/>
	</g>
</g>
<g>
</g>
<g>
</g>
<g>
</g>
<g>
</g>
<g>
</g>
<g>
</g>
<g>
</g>
<g>
</g>
<g>
</g>
<g>
</g>
<g>
</g>
<g>
</g>
<g>
</g>
<g>
</g>
<g>
</g>
</svg>
