<?xml version="1.0" encoding="iso-8859-1"?>
<!-- Generator: Adobe Illustrator 19.0.0, SVG Export Plug-In . SVG Version: 6.00 Build 0)  -->
<svg version="1.1" id="Layer_1" xmlns="http://www.w3.org/2000/svg" xmlns:xlink="http://www.w3.org/1999/xlink" x="0px" y="0px"
	 viewBox="0 0 511.999 511.999" style="enable-background:new 0 0 511.999 511.999;" xml:space="preserve">
<g>
	<g>
		<path d="M511.98,96.784l-2.424-50.911c-0.42-8.827-7.482-15.888-16.309-16.309l-50.911-2.424
			c-4.833-0.227-9.522,1.586-12.938,5.002l-22.787,22.788c-3.671,3.671-5.482,8.808-4.922,13.969l1.731,15.967l-12.151-2.956
			c-5.816-1.412-11.943,0.306-16.175,4.536l-18.909,18.909c-4.765,4.765-6.296,11.879-3.914,18.182l7.733,20.464l-22.221-7.107
			c-6.114-1.957-12.809-0.332-17.344,4.207l-17.589,17.589c-4.377,4.375-6.054,10.77-4.391,16.73l2.72,9.745l-8.022-2.88
			c-6.245-2.24-13.223-0.679-17.915,4.013l-16.922,16.922c-20.674-12.423-44.397-19.054-69.138-19.054
			c-35.949,0-69.747,13.999-95.168,39.419L14.51,303.091C5.153,312.448,0,324.888,0,338.12c0,13.233,5.153,25.674,14.51,35.03
			l97.217,97.218c9.357,9.356,21.797,14.509,35.03,14.509c13.233,0,25.674-5.153,35.03-14.51L344.34,307.817
			c3.216-3.215,5.021-7.574,5.021-12.122c0-4.546-1.806-8.907-5.021-12.122l-5.608-5.608l168.246-168.244
			C510.393,106.306,512.21,101.609,511.98,96.784z M178.477,387.616l-13.943,13.943c-10.042,10.042-26.323,10.042-36.365,0
			L83.32,356.709c-10.042-10.042-10.042-26.323,0-36.365l13.943-13.943c10.042-10.042,26.323-10.042,36.365,0l44.849,44.849
			C188.518,361.293,188.518,377.575,178.477,387.616z"/>
	</g>
</g>
<g>
</g>
<g>
</g>
<g>
</g>
<g>
</g>
<g>
</g>
<g>
</g>
<g>
</g>
<g>
</g>
<g>
</g>
<g>
</g>
<g>
</g>
<g>
</g>
<g>
</g>
<g>
</g>
<g>
</g>
</svg>
