<?xml version="1.0" encoding="iso-8859-1"?>
<!-- Generator: Adobe Illustrator 19.0.0, SVG Export Plug-In . SVG Version: 6.00 Build 0)  -->
<svg version="1.1" id="Layer_1" xmlns="http://www.w3.org/2000/svg" xmlns:xlink="http://www.w3.org/1999/xlink" x="0px" y="0px"
	 viewBox="0 0 512 512" style="enable-background:new 0 0 512 512;" xml:space="preserve">
<g>
	<g>
		<path d="M512,217.155c0-28.733-23.377-52.11-52.11-52.11h-4.381l-9.023-54.743c-5.803-35.216-35.922-60.777-71.615-60.777H255.823
			h-119.05c-35.693,0-65.81,25.561-71.612,60.777l-9.024,54.743H52.11c-28.733,0-52.11,23.376-52.11,52.11
			c0,8.145,6.604,14.748,14.748,14.748h13.779c-13.568,15.24-21.835,35.302-21.835,57.265v45.159
			c0,17.125,9.337,32.102,23.18,40.136v45.488c0,23.447,19.076,42.523,42.523,42.523h25.288c23.447,0,42.523-19.076,42.523-42.523
			v-39.243h24.623v33.496c0,9.984,8.093,18.078,18.078,18.078h145.829c9.984,0,18.078-8.093,18.078-18.078v-33.496h24.622v39.242
			c0,23.447,19.076,42.523,42.523,42.523h25.288c23.447,0,42.523-19.076,42.523-42.523v-45.488
			c13.844-8.034,23.181-23.011,23.181-40.136v-45.159c0-21.963-8.267-42.023-21.836-57.265h14.134
			C505.395,231.903,512,225.299,512,217.155z M96.841,334.813c-18.622,0-33.717-15.096-33.717-33.717
			c0-18.622,15.096-33.717,33.717-33.717s33.717,15.096,33.717,33.717C130.559,319.718,115.463,334.813,96.841,334.813z
			 M92.921,202.94h-6.389l14.302-86.758c2.912-17.673,18.026-30.501,35.939-30.501h100.972v7.802h-14.462
			c-9.984,0-18.078,8.093-18.078,18.078c0,9.985,8.093,18.078,18.078,18.078h65.081c9.984,0,18.078-8.093,18.078-18.078
			c0-9.985-8.093-18.078-18.078-18.078h-14.462v-7.802h100.971c17.913,0,33.026,12.828,35.94,30.501
			c9.801,59.461,11.294,67.428,13.882,86.758c-2.634,0-4.313,0-7.133,0c-7.406-35.201-38.695-61.712-76.066-61.712
			c-37.372,0-68.66,26.511-76.066,61.712H92.921z M310.66,396.127H200.986v-15.419H310.66V396.127z M329.443,319.176H183.746
			c-9.984,0-18.078-8.095-18.078-18.078c0-9.984,8.093-18.078,18.078-18.078h145.697c9.984,0,18.078,8.093,18.078,18.078
			C347.521,311.081,339.428,319.176,329.443,319.176z M303.13,202.939c6.286-14.995,21.114-25.556,38.365-25.556
			c17.251,0,32.079,10.562,38.365,25.556H303.13z M414.804,334.815c-18.622,0-33.717-15.096-33.717-33.717
			c0-18.622,15.096-33.717,33.717-33.717s33.717,15.096,33.717,33.717C448.521,319.719,433.425,334.815,414.804,334.815z"/>
	</g>
</g>
<g>
</g>
<g>
</g>
<g>
</g>
<g>
</g>
<g>
</g>
<g>
</g>
<g>
</g>
<g>
</g>
<g>
</g>
<g>
</g>
<g>
</g>
<g>
</g>
<g>
</g>
<g>
</g>
<g>
</g>
</svg>
