<?xml version="1.0" encoding="iso-8859-1"?>
<!-- Generator: Adobe Illustrator 19.0.0, SVG Export Plug-In . SVG Version: 6.00 Build 0)  -->
<svg version="1.1" id="Layer_1" xmlns="http://www.w3.org/2000/svg" xmlns:xlink="http://www.w3.org/1999/xlink" x="0px" y="0px"
	 viewBox="0 0 511.998 511.998" style="enable-background:new 0 0 511.998 511.998;" xml:space="preserve">
<g>
	<g>
		<path d="M495.322,273.23h-8.214v-22.881c0-26.929-21.908-48.838-48.838-48.838h-45.609l-1.096-2.487
			c-22.25-50.499-72.284-83.129-127.466-83.129H132.02c-27.912,0-52.173,17.927-60.373,44.607l-13.841,45.043
			c-10.609,5.298-18.436,15.354-20.674,27.358c6.888,0,12.436,0,19.282,0c6.448,0,11.675,5.227,11.675,11.675
			c0,6.56-5.367,11.675-11.675,11.675H36.472v17.019C16.213,274.145,0,290.892,0,311.361c0,21.027,17.106,38.133,38.132,38.133
			h11.966c-3.515-47.129,31.049-86.927,75.828-92.301h20.714c45.217,5.426,79.307,45.674,75.828,92.301h87.259
			c-3.845-51.52,38.249-92.88,82.06-92.88c1.554,0,4.367-0.057,4.367-0.057c49.665,0.138,89.71,42.424,85.944,92.937h13.22
			c9.211,0,16.678-7.467,16.678-16.678v-42.908C512,280.696,504.534,273.23,495.322,273.23z M180.106,201.51H93.943l9.59-31.21
			c3.868-12.59,15.317-21.05,28.488-21.05h48.085V201.51z M295.736,256.251H256c-6.448,0-11.675-5.227-11.675-11.675
			c0-6.448,5.227-11.675,11.675-11.675h39.736c6.448,0,11.675,5.227,11.675,11.675C307.411,251.024,302.184,256.251,295.736,256.251
			z M213.462,201.511v-52.26H264.1c37.825,0,72.461,20.164,91.321,52.26H213.462z"/>
	</g>
</g>
<g>
	<g>
		<path d="M136.284,289.906c-29.326,0-53.098,23.773-53.098,53.098c0,29.326,23.773,53.098,53.098,53.098
			c29.326,0,53.098-23.773,53.098-53.098C189.382,313.679,165.61,289.906,136.284,289.906z M136.284,363.184
			c-11.144,0-20.179-9.034-20.179-20.178s9.034-20.179,20.179-20.179c11.144,0,20.178,9.034,20.178,20.179
			C156.463,354.149,147.428,363.184,136.284,363.184z"/>
	</g>
</g>
<g>
	<g>
		<path d="M395.915,289.906c-29.326,0-53.098,23.773-53.098,53.098c0,29.326,23.773,53.098,53.098,53.098
			s53.098-23.773,53.098-53.098C449.014,313.679,425.241,289.906,395.915,289.906z M395.915,363.184
			c-11.144,0-20.178-9.034-20.178-20.178s9.034-20.179,20.178-20.179s20.179,9.034,20.179,20.179
			C416.095,354.149,407.06,363.184,395.915,363.184z"/>
	</g>
</g>
<g>
</g>
<g>
</g>
<g>
</g>
<g>
</g>
<g>
</g>
<g>
</g>
<g>
</g>
<g>
</g>
<g>
</g>
<g>
</g>
<g>
</g>
<g>
</g>
<g>
</g>
<g>
</g>
<g>
</g>
</svg>
