<?xml version="1.0" encoding="iso-8859-1"?>
<!-- Generator: Adobe Illustrator 19.0.0, SVG Export Plug-In . SVG Version: 6.00 Build 0)  -->
<svg version="1.1" id="Layer_1" xmlns="http://www.w3.org/2000/svg" xmlns:xlink="http://www.w3.org/1999/xlink" x="0px" y="0px"
	 viewBox="0 0 512 512" style="enable-background:new 0 0 512 512;" xml:space="preserve">
<g>
	<g>
		<path d="M506.016,242.994c-7.145-6.071-17.863-5.204-23.937,1.943c-0.894,1.052-2.874,2.818-6.081,2.818
			c-4.395,0-7.97-3.575-7.97-7.97s3.575-7.97,7.97-7.97c9.378,0,16.981-7.603,16.981-16.981V71.362l1.885-2.187
			c8.979-10.419,7.813-26.145-2.605-35.126c-10.422-8.981-26.145-7.814-35.128,2.605l-165.014,191.46h-0.983
			c-18.082,0-32.792,14.71-32.792,32.792v30.004h-19.126V170.772c0-9.378-7.603-16.981-16.981-16.981h-30.532v-22.042
			c0-24.44-19.882-44.322-44.322-44.322s-44.322,19.883-44.322,44.322v22.042H72.525c-9.378,0-16.981,7.603-16.981,16.981v120.138
			h-5.317c-9.378,0-16.981,7.603-16.981,16.981v53.437H17.551C7.859,361.327,0,369.186,0,378.878v42.471
			c0,9.694,7.859,17.551,17.551,17.551h28.786c-0.212-2.463-0.343-4.948-0.343-7.464c0-47.707,38.813-86.521,86.521-86.521
			c47.707,0,86.521,38.813,86.521,86.521c0,2.516-0.132,5.001-0.343,7.464h84.631c-0.212-2.463-0.343-4.948-0.343-7.464
			c0-47.707,38.813-86.521,86.521-86.521c47.707,0,86.521,38.813,86.521,86.521c0,2.516-0.132,5.001-0.343,7.464h12.216
			c9.692,0,17.551-7.857,17.551-17.551v-42.471c0-9.694-7.859-17.551-17.551-17.551h-7.657V307.89
			c0-9.378-7.603-16.981-16.981-16.981H362.38v-30.004c0-9.904-4.42-18.791-11.385-24.809l108.02-125.329v90.68
			c-14.685,6.531-24.951,21.259-24.951,38.339c0,23.122,18.811,41.932,41.933,41.932c12.326,0,23.976-5.389,31.96-14.787
			C514.032,259.785,513.162,249.068,506.016,242.994z M196.221,249.347c0,7.369-5.973,13.342-13.342,13.342h-70.998
			c-7.369,0-13.342-5.973-13.342-13.342v-51.431c0-7.369,5.973-13.342,13.342-13.342h70.998c7.369,0,13.342,5.973,13.342,13.342
			V249.347z"/>
	</g>
</g>
<g>
	<g>
		<path d="M132.515,378.878c-29.027,0-52.558,23.531-52.558,52.557c0,29.027,23.531,52.558,52.558,52.558
			c29.027,0,52.557-23.531,52.557-52.558C185.072,402.409,161.542,378.878,132.515,378.878z M132.515,451.408
			c-11.031,0-19.973-8.942-19.973-19.974s8.942-19.974,19.973-19.974c11.03,0,19.974,8.942,19.974,19.974
			S143.545,451.408,132.515,451.408z"/>
	</g>
</g>
<g>
	<g>
		<path d="M389.5,378.878c-29.027,0-52.558,23.531-52.558,52.557c0,29.027,23.531,52.558,52.558,52.558
			c29.026,0,52.557-23.531,52.557-52.558C442.058,402.409,418.527,378.878,389.5,378.878z M389.5,451.408
			c-11.03,0-19.974-8.942-19.974-19.974s8.942-19.974,19.974-19.974s19.974,8.942,19.974,19.974
			C409.474,442.466,400.531,451.408,389.5,451.408z"/>
	</g>
</g>
<g>
</g>
<g>
</g>
<g>
</g>
<g>
</g>
<g>
</g>
<g>
</g>
<g>
</g>
<g>
</g>
<g>
</g>
<g>
</g>
<g>
</g>
<g>
</g>
<g>
</g>
<g>
</g>
<g>
</g>
</svg>
