<?xml version="1.0" encoding="iso-8859-1"?>
<!-- Generator: Adobe Illustrator 19.0.0, SVG Export Plug-In . SVG Version: 6.00 Build 0)  -->
<svg version="1.1" id="Layer_1" xmlns="http://www.w3.org/2000/svg" xmlns:xlink="http://www.w3.org/1999/xlink" x="0px" y="0px"
	 viewBox="0 0 512.001 512.001" style="enable-background:new 0 0 512.001 512.001;" xml:space="preserve">
<g>
	<g>
		<g>
			<rect x="328.21" y="146.126" width="0" height="0.001"/>
			<path d="M459.969,136.372c-10.989-38.384-33.857-72.917-64.466-97.319C363.457,13.504,325.168,0,284.775,0
				c-48.742,0-94.591,19.826-129.1,55.826c-34.103,35.576-53.172,82.852-53.742,133.196c-0.017,0.298-0.024,10.559-0.024,10.559
				l-54.387,74.337c-3.647,4.985-4.183,11.595-1.389,17.103c2.795,5.508,8.447,8.978,14.624,8.978h41.152v43.341
				c0,56.429,45.907,102.337,102.336,102.337c8.277,0,15.963-0.07,23.004-0.185v50.109c0,9.057,7.342,16.399,16.399,16.399h132.347
				c9.057,0,16.399-7.342,16.399-16.399v-93.655c0-1.435-0.203-2.818-0.549-4.144c4.18-3.638,8.204-7.468,12.048-11.495
				c42.301-44.325,63.749-109.924,63.749-194.976C467.642,167.546,465.132,149.551,459.969,136.372z M205.404,219.452
				c0,9.057-7.342,16.399-16.399,16.399s-16.399-7.342-16.399-16.399v-20.048c0-9.057,7.342-16.399,16.399-16.399
				s16.399,7.342,16.399,16.399V219.452z M328.21,225.933v-79.806h-79.807c0-44.076,35.731-79.807,79.807-79.807v79.806h79.807
				C408.016,190.203,372.286,225.933,328.21,225.933z"/>
		</g>
	</g>
</g>
<g>
</g>
<g>
</g>
<g>
</g>
<g>
</g>
<g>
</g>
<g>
</g>
<g>
</g>
<g>
</g>
<g>
</g>
<g>
</g>
<g>
</g>
<g>
</g>
<g>
</g>
<g>
</g>
<g>
</g>
</svg>
