<?xml version="1.0" encoding="iso-8859-1"?>
<!-- Generator: Adobe Illustrator 19.0.0, SVG Export Plug-In . SVG Version: 6.00 Build 0)  -->
<svg version="1.1" id="Layer_1" xmlns="http://www.w3.org/2000/svg" xmlns:xlink="http://www.w3.org/1999/xlink" x="0px" y="0px"
	 viewBox="0 0 512.001 512.001" style="enable-background:new 0 0 512.001 512.001;" xml:space="preserve">
<g>
	<g>
		<path d="M477.684,58.063c-8.883-3.078-18.589,1.628-21.668,10.516l-56.481,162.996l-10.661-3.695
			c-2.999-1.04-6.273,0.55-7.313,3.549l-16.081,46.407l-32.499-24.685c-4.597-3.491-10.65-4.418-16.076-2.459l-44.555,16.061
			l-115.407-22.877v-48.578c0-0.122-0.016-0.239-0.018-0.36h17.936c3.174,0,5.747-2.574,5.747-5.747v-42.253
			c0-3.174-2.574-5.747-5.747-5.747h-15.355c-3.174,0-5.747,2.574-5.747,5.747v15.715H67.272v-15.715
			c0-3.174-2.574-5.747-5.747-5.747H46.17c-3.174,0-5.747,2.574-5.747,5.747v42.253c0,3.174,2.574,5.747,5.747,5.747h17.936
			c-0.002,0.12-0.018,0.239-0.018,0.36c0,0.365,0,93.195,0,93.195c0.003,3.729,1.222,7.19,3.279,10.009
			c49.52,3.145,89.228,44.399,89.228,95.112c0,1.218-0.047,2.425-0.091,3.632h29.093v6.961c0,10.892,8.831,19.723,19.723,19.723
			h91.002c10.892,0,19.723-8.831,19.723-19.723v-6.961h39.453c-0.046-1.207-0.093-2.414-0.093-3.632
			c0-45.323,31.806-83.334,74.262-92.953l16.261-46.928c1.04-3-0.55-6.273-3.549-7.313l-10.661-3.695L488.199,79.73
			C491.279,70.844,486.572,61.142,477.684,58.063z"/>
	</g>
</g>
<g>
	<g>
		<path d="M61.267,332.347C27.431,332.347,0,359.778,0,393.614s27.431,61.267,61.267,61.267s61.267-27.43,61.267-61.267
			C122.534,359.778,95.104,332.347,61.267,332.347z M61.267,413.466c-10.964,0-19.852-8.888-19.852-19.852
			c0-10.964,8.888-19.852,19.852-19.852s19.852,8.888,19.852,19.852C81.119,404.578,72.231,413.466,61.267,413.466z"/>
	</g>
</g>
<g>
	<g>
		<path d="M450.734,332.347c-33.836,0-61.267,27.431-61.267,61.267s27.431,61.267,61.267,61.267
			c33.836,0,61.267-27.43,61.267-61.267C512,359.778,484.57,332.347,450.734,332.347z M450.734,413.466
			c-10.964,0-19.852-8.888-19.852-19.852c0-10.964,8.888-19.852,19.852-19.852c10.964,0,19.852,8.888,19.852,19.852
			C470.584,404.578,461.697,413.466,450.734,413.466z"/>
	</g>
</g>
<g>
</g>
<g>
</g>
<g>
</g>
<g>
</g>
<g>
</g>
<g>
</g>
<g>
</g>
<g>
</g>
<g>
</g>
<g>
</g>
<g>
</g>
<g>
</g>
<g>
</g>
<g>
</g>
<g>
</g>
</svg>
