<?xml version="1.0" encoding="iso-8859-1"?>
<!-- Generator: Adobe Illustrator 19.0.0, SVG Export Plug-In . SVG Version: 6.00 Build 0)  -->
<svg version="1.1" id="Layer_1" xmlns="http://www.w3.org/2000/svg" xmlns:xlink="http://www.w3.org/1999/xlink" x="0px" y="0px"
	 viewBox="0 0 512.002 512.002" style="enable-background:new 0 0 512.002 512.002;" xml:space="preserve">
<g>
	<g>
		<path d="M408.835,243.639L261.18,95.985c-3.19-3.19-7.516-4.982-12.027-4.982h-24.07V74.669h0.307
			c9.394,0,17.01-7.616,17.01-17.01V17.01c0-9.394-7.616-17.01-17.01-17.01h-86.287c-9.394,0-17.01,7.616-17.01,17.01V57.66
			c0,9.394,7.616,17.01,17.01,17.01h0.307v16.334h-24.215c-9.394,0-17.01,7.616-17.01,17.01v386.978
			c0,9.394,7.616,17.01,17.01,17.01h281.612c9.394,0,17.01-7.616,17.01-17.01V255.667
			C413.817,251.155,412.026,246.83,408.835,243.639z M256.001,393.921c-26.453,0-47.899-21.445-47.899-47.899
			c0-18.784,24.151-62.626,38.155-86.47c4.369-7.439,15.119-7.439,19.489,0c14.004,23.844,38.155,67.686,38.155,86.47
			C303.901,372.476,282.456,393.921,256.001,393.921z"/>
	</g>
</g>
<g>
</g>
<g>
</g>
<g>
</g>
<g>
</g>
<g>
</g>
<g>
</g>
<g>
</g>
<g>
</g>
<g>
</g>
<g>
</g>
<g>
</g>
<g>
</g>
<g>
</g>
<g>
</g>
<g>
</g>
</svg>
