<?xml version="1.0" encoding="iso-8859-1"?>
<!-- Generator: Adobe Illustrator 19.0.0, SVG Export Plug-In . SVG Version: 6.00 Build 0)  -->
<svg version="1.1" id="Layer_1" xmlns="http://www.w3.org/2000/svg" xmlns:xlink="http://www.w3.org/1999/xlink" x="0px" y="0px"
	 viewBox="0 0 512 512" style="enable-background:new 0 0 512 512;" xml:space="preserve">
<g>
	<g>
		<path d="M436.518,170.209l-21.954,13.194c-15.519,9.326-37.288,5.955-48.578-12.83c-8.082,4.857-14.396,9.608-25.688,9.608
			c-7.681,0-15.078-2.568-21.078-7.073c-11.72,10.984-27.047,17.043-43.061,17.043c-19.621,0-37.781-9.09-49.662-24.307
			l-0.456,0.077c-0.97-1.726-2.235-3.292-3.788-4.592c-3.762-3.153-8.731-4.476-13.565-3.616L68.564,182.663
			c-7.917,1.409-13.684,8.294-13.684,16.337v66.25c0.001,10.305,9.322,18.149,19.504,16.337l140.126-24.951
			c7.917-1.409,13.684-8.294,13.684-16.337v-4.946l214.363-36.339c7.98-1.353,13.82-8.266,13.82-16.36v-16.479
			C450.361,169.408,443.473,170.86,436.518,170.209z"/>
	</g>
</g>
<g>
	<g>
		<path d="M441.941,86.472L228.194,50.236V41.55c0-8.187-5.93-14.955-13.684-16.337L74.384,0.262
			C64.214-1.55,54.882,6.286,54.882,16.598v66.25c0,8.042,5.767,14.926,13.684,16.337c6.11,1.089,133.542,23.779,140.126,24.951
			c8.151,1.451,16.379-3.34,18.817-11.699l9.941,1.685c-8.987,26.539,10.947,53.905,38.712,53.905
			c21.179,0,38.646-16.194,40.673-36.849l12.392,20.62c3.669,6.106,11.598,8.086,17.71,4.415l26.619-15.998l11.905,19.811
			c1.763,2.934,4.62,5.048,7.94,5.875c3.313,0.825,6.828,0.306,9.769-1.46l28.845-17.336c5.101,0.865,10.633,2.703,16.099-1.913
			c2.903-2.453,4.578-6.059,4.578-9.859V99.196C452.69,92.901,448.148,87.523,441.941,86.472z M276.161,142.215
			c-8.315,0-15.057-6.741-15.057-15.057s6.74-15.057,15.057-15.057c8.315,0,15.057,6.741,15.057,15.057
			S284.476,142.215,276.161,142.215z"/>
	</g>
</g>
<g>
	<g>
		<path d="M443.436,412.816l-140.125-24.951c-4.832-0.86-9.8,0.464-13.565,3.616c-1.553,1.301-2.818,2.867-3.788,4.592l-0.456-0.077
			c-11.867,15.198-30.016,24.307-49.662,24.307c-15.728,0-30.796-5.845-42.43-16.46c-0.211-0.193-0.423-0.388-0.631-0.583
			c-6,4.506-13.396,7.073-21.078,7.073c-11.177,0-17.432-4.646-25.687-9.608c-7.31,12.163-18.714,17.833-30.535,17.833
			c-12.224,0-17.281-4.545-39.998-18.198c-6.936,0.649-13.825-0.792-19.859-4.037v16.481c0,8.094,5.84,15.007,13.82,16.36
			l214.364,36.34v4.946c0,8.042,5.767,14.926,13.684,16.337l140.125,24.951c10.202,1.816,19.503-6.054,19.503-16.337v-66.25
			C457.12,421.11,451.353,414.226,443.436,412.816z"/>
	</g>
</g>
<g>
	<g>
		<path d="M437.617,230.415c-150.498,26.798-140.805,24.954-142.809,25.671c-6.501,2.324-10.999,8.516-10.999,15.615v8.686
			L70.06,316.624c-6.207,1.052-10.749,6.429-10.749,12.724v36.136c0,7.987,7.194,14.058,15.062,12.724l5.613-0.952
			c30.553,18.362,31.852,20.481,38.614,18.796c3.321-0.827,6.177-2.94,7.94-5.875l11.905-19.811
			c28.853,17.34,28.542,17.843,33.254,17.843c4.381,0,8.654-2.231,11.074-6.26l12.392-20.62
			c2.026,20.655,19.494,36.849,40.673,36.849c22.535,0,40.868-18.333,40.868-40.868c0-4.472-0.747-8.874-2.156-13.037l9.941-1.685
			c0.91,3.123,2.707,5.951,5.253,8.084c3.757,3.147,8.72,4.478,13.565,3.616l23.44-4.174l116.685-20.777
			c7.917-1.409,13.684-8.294,13.684-16.337v-66.25C457.12,236.421,447.769,228.605,437.617,230.415z M235.841,372.367
			c-8.315,0-15.057-6.741-15.057-15.057s6.741-15.057,15.057-15.057s15.057,6.741,15.057,15.057S244.157,372.367,235.841,372.367z"
			/>
	</g>
</g>
<g>
</g>
<g>
</g>
<g>
</g>
<g>
</g>
<g>
</g>
<g>
</g>
<g>
</g>
<g>
</g>
<g>
</g>
<g>
</g>
<g>
</g>
<g>
</g>
<g>
</g>
<g>
</g>
<g>
</g>
</svg>
