<?xml version="1.0" encoding="iso-8859-1"?>
<!-- Generator: Adobe Illustrator 19.0.0, SVG Export Plug-In . SVG Version: 6.00 Build 0)  -->
<svg version="1.1" id="Layer_1" xmlns="http://www.w3.org/2000/svg" xmlns:xlink="http://www.w3.org/1999/xlink" x="0px" y="0px"
	 viewBox="0 0 512 512" style="enable-background:new 0 0 512 512;" xml:space="preserve">
<g>
	<g>
		<path d="M489.658,331.21L284.449,15.44C278.189,5.811,267.484,0,255.999,0s-22.19,5.811-28.449,15.441L22.342,331.21
			c-6.779,10.432-7.305,23.738-1.371,34.672c5.935,10.934,17.379,17.745,29.82,17.745h28.807v34.438H58.685
			c-7.966,0-14.86,5.543-16.568,13.322l-13.188,60.004c-2.011,9.151,3.776,18.199,12.928,20.21
			c9.165,2.012,18.201-3.789,20.21-12.927l10.261-46.681c12.643,0,354.946,0,367.348,0l10.261,46.681
			c2.011,9.151,11.057,14.939,20.211,12.927c9.15-2.012,14.938-11.06,12.927-20.21l-13.189-60.004
			c-1.71-7.781-8.603-13.322-16.568-13.322h-19.177v-34.438h27.073c12.442,0,23.884-6.809,29.82-17.745
			C496.962,354.947,496.436,341.642,489.658,331.21z M339.139,418.065H174.596v-34.438h164.543V418.065z M113.304,315.77
			L255.999,96.193L398.696,315.77H113.304z"/>
	</g>
</g>
<g>
	<g>
		<path d="M259.186,162.494c-7.433,0-13.234,3.989-13.234,11.059c0,21.574,2.538,52.577,2.538,74.152
			c0,5.621,4.895,7.977,10.696,7.977c4.351,0,10.515-2.357,10.515-7.977c0-21.574,2.538-52.577,2.538-74.152
			C272.24,166.482,266.257,162.494,259.186,162.494z"/>
	</g>
</g>
<g>
	<g>
		<path d="M259.368,268.193c-7.977,0-13.96,6.345-13.96,13.96c0,7.434,5.983,13.96,13.96,13.96c7.434,0,13.779-6.527,13.779-13.96
			C273.147,274.539,266.801,268.193,259.368,268.193z"/>
	</g>
</g>
<g>
</g>
<g>
</g>
<g>
</g>
<g>
</g>
<g>
</g>
<g>
</g>
<g>
</g>
<g>
</g>
<g>
</g>
<g>
</g>
<g>
</g>
<g>
</g>
<g>
</g>
<g>
</g>
<g>
</g>
</svg>
