<?xml version="1.0" encoding="iso-8859-1"?>
<!-- Generator: Adobe Illustrator 19.0.0, SVG Export Plug-In . SVG Version: 6.00 Build 0)  -->
<svg version="1.1" id="Layer_1" xmlns="http://www.w3.org/2000/svg" xmlns:xlink="http://www.w3.org/1999/xlink" x="0px" y="0px"
	 viewBox="0 0 512 512" style="enable-background:new 0 0 512 512;" xml:space="preserve">
<g>
	<g>
		<path d="M437.02,74.981C388.668,26.628,324.381,0,256.001,0S123.333,26.628,74.981,74.981S0.001,187.62,0.001,255.999
			s26.628,132.667,74.981,181.019S187.62,512,256,512s132.668-26.63,181.019-74.982c48.352-48.352,74.981-112.639,74.981-181.019
			S485.372,123.333,437.02,74.981z M284.878,101.519c35.887,6.694,67.52,25.619,90.396,52.274l-51.857,29.94
			c-7.949,4.589-17.743,4.589-25.692,0c-7.949-4.589-12.846-13.072-12.846-22.249V101.519z M227.124,101.519v59.964
			c0,9.179-4.897,17.66-12.846,22.249c-7.949,4.589-17.743,4.589-25.692,0l-51.857-29.94
			C159.603,127.138,191.237,108.213,227.124,101.519z M98.851,255.999c0-18.303,3.155-35.879,8.934-52.227l51.924,29.978
			c7.949,4.589,12.846,13.072,12.846,22.25c0,9.179-4.897,17.66-12.846,22.25l-51.924,29.978
			C102.006,291.879,98.851,274.302,98.851,255.999z M227.125,410.48c-35.888-6.692-67.521-25.617-90.396-52.273l51.857-29.94
			c7.949-4.589,17.743-4.589,25.692,0s12.846,13.07,12.846,22.249V410.48z M201.63,255.999c0-29.979,24.389-54.369,54.37-54.369
			c29.98,0,54.37,24.389,54.37,54.369s-24.389,54.37-54.37,54.37C226.02,310.369,201.63,285.979,201.63,255.999z M284.879,410.481
			v-59.964c0-9.179,4.897-17.66,12.846-22.249c7.949-4.589,17.743-4.589,25.692,0l51.857,29.94
			C352.398,384.863,320.765,403.788,284.879,410.481z M404.216,308.228c-13.776-7.954-30.827-17.797-51.92-29.976
			c-7.946-4.587-12.841-13.063-12.846-22.237s4.878-17.666,12.823-22.253l51.943-29.989c5.779,16.349,8.934,33.926,8.934,52.227
			C413.15,274.302,409.995,291.879,404.216,308.228z"/>
	</g>
</g>
<g>
	<g>
		<path d="M256.001,234.951c-11.607,0-21.049,9.442-21.049,21.048s9.442,21.049,21.049,21.049s21.049-9.443,21.049-21.049
			S267.608,234.951,256.001,234.951z"/>
	</g>
</g>
<g>
</g>
<g>
</g>
<g>
</g>
<g>
</g>
<g>
</g>
<g>
</g>
<g>
</g>
<g>
</g>
<g>
</g>
<g>
</g>
<g>
</g>
<g>
</g>
<g>
</g>
<g>
</g>
<g>
</g>
</svg>
