<?xml version="1.0" encoding="iso-8859-1"?>
<!-- Generator: Adobe Illustrator 19.0.0, SVG Export Plug-In . SVG Version: 6.00 Build 0)  -->
<svg xmlns="http://www.w3.org/2000/svg" xmlns:xlink="http://www.w3.org/1999/xlink" version="1.1" id="Capa_1" x="0px" y="0px" viewBox="0 0 426.667 426.667" style="enable-background:new 0 0 426.667 426.667;" xml:space="preserve">
<g>
	<g>
		<g>
			<path d="M213.333,106.667V21.333H0v384h426.667V106.667H213.333z M85.333,362.667H42.667V320h42.667V362.667z M85.333,277.333     H42.667v-42.667h42.667V277.333z M85.333,192H42.667v-42.667h42.667V192z M85.333,106.667H42.667V64h42.667V106.667z      M170.667,362.667H128V320h42.667V362.667z M170.667,277.333H128v-42.667h42.667V277.333z M170.667,192H128v-42.667h42.667V192z      M170.667,106.667H128V64h42.667V106.667z M384,362.667H213.333V320H256v-42.667h-42.667v-42.667H256V192h-42.667v-42.667H384     V362.667z"/>
			<rect x="298.667" y="192" width="42.667" height="42.667"/>
			<rect x="298.667" y="277.333" width="42.667" height="42.667"/>
		</g>
	</g>
</g>
<g>
</g>
<g>
</g>
<g>
</g>
<g>
</g>
<g>
</g>
<g>
</g>
<g>
</g>
<g>
</g>
<g>
</g>
<g>
</g>
<g>
</g>
<g>
</g>
<g>
</g>
<g>
</g>
<g>
</g>
</svg>
