<?xml version="1.0" encoding="iso-8859-1"?>
<!-- Generator: Adobe Illustrator 19.0.0, SVG Export Plug-In . SVG Version: 6.00 Build 0)  -->
<svg version="1.1" id="Layer_1" xmlns="http://www.w3.org/2000/svg" xmlns:xlink="http://www.w3.org/1999/xlink" x="0px" y="0px"
	 viewBox="0 0 512.001 512.001" style="enable-background:new 0 0 512.001 512.001;" xml:space="preserve">
<g>
	<g>
		<path d="M243.204,404.203l-14.311-14.311l144.842-144.842c-22.35-0.597-44.548-7.963-63.229-22.088L112.616,420.852l10.528,31.858
			l-37.826,37.826l21.466,21.466l27.024-27.024l73.62-73.62l14.311,14.311l-20.357,20.357l21.466,21.466l62.179-62.179
			l-21.466-21.466L243.204,404.203z"/>
	</g>
</g>
<g>
	<g>
		<path d="M266.951,138.265L27.024,378.193L0.001,405.216l21.466,21.466l37.826-37.826l31.858,10.528l197.889-197.889
			C274.913,182.814,267.548,160.617,266.951,138.265z"/>
	</g>
</g>
<g>
	<g>
		<path d="M463.329,0l-37.217,37.217c10.192,5.125,19.749,11.93,28.245,20.427c8.497,8.497,15.301,18.054,20.427,28.246L512,48.673
			L463.329,0z"/>
	</g>
</g>
<g>
	<g>
		<path d="M432.891,79.11c-30.988-30.988-81.41-30.988-112.398,0c-30.988,30.989-30.988,81.411,0,112.399
			c15.493,15.493,35.85,23.239,56.2,23.241c20.355,0.002,40.704-7.745,56.2-23.241C463.879,160.519,463.879,110.098,432.891,79.11z
			 M399.181,157.797c-12.419,12.419-32.557,12.419-44.976,0c-12.42-12.42-12.42-32.557,0-44.976
			c12.419-12.419,32.557-12.419,44.976,0S411.6,145.378,399.181,157.797z"/>
	</g>
</g>
<g>
</g>
<g>
</g>
<g>
</g>
<g>
</g>
<g>
</g>
<g>
</g>
<g>
</g>
<g>
</g>
<g>
</g>
<g>
</g>
<g>
</g>
<g>
</g>
<g>
</g>
<g>
</g>
<g>
</g>
</svg>
