<?xml version="1.0" encoding="iso-8859-1"?>
<!-- Generator: Adobe Illustrator 19.0.0, SVG Export Plug-In . SVG Version: 6.00 Build 0)  -->
<svg version="1.1" id="Layer_1" xmlns="http://www.w3.org/2000/svg" xmlns:xlink="http://www.w3.org/1999/xlink" x="0px" y="0px"
	 viewBox="0 0 512 512" style="enable-background:new 0 0 512 512;" xml:space="preserve">
<g>
	<g>
		<path d="M428.835,112.37C421.297,49.166,367.364,0,302.165,0c-33.777,0-65.861,13.297-89.662,36.83
			c-10.693-3.942-22.086-5.995-33.502-5.995c-48.17,0-88.23,35.387-95.542,81.533C37.444,112.56,0.07,150.055,0.07,196.117
			c0,46.179,37.568,83.748,83.747,83.748h51.762L256,109.317l120.421,170.548h51.762c46.179,0,83.747-37.569,83.747-83.748
			C511.931,150.154,474.716,112.722,428.835,112.37z"/>
	</g>
</g>
<g>
	<g>
		<polygon points="256.001,162.037 144.473,319.992 203.597,319.992 203.597,512 308.405,512 308.405,319.992 367.529,319.992 		"/>
	</g>
</g>
<g>
</g>
<g>
</g>
<g>
</g>
<g>
</g>
<g>
</g>
<g>
</g>
<g>
</g>
<g>
</g>
<g>
</g>
<g>
</g>
<g>
</g>
<g>
</g>
<g>
</g>
<g>
</g>
<g>
</g>
</svg>
