<?xml version="1.0" encoding="iso-8859-1"?>
<!-- Generator: Adobe Illustrator 19.0.0, SVG Export Plug-In . SVG Version: 6.00 Build 0)  -->
<svg version="1.1" id="Layer_1" xmlns="http://www.w3.org/2000/svg" xmlns:xlink="http://www.w3.org/1999/xlink" x="0px" y="0px"
	 viewBox="0 0 512.002 512.002" style="enable-background:new 0 0 512.002 512.002;" xml:space="preserve">
<g>
	<g>
		<polygon points="172.956,408.757 119.972,393.269 104.484,340.286 56.748,388.021 90.333,455.442 90.333,483.571 150.667,483.571 
			150.667,453.154 128.56,453.154 		"/>
	</g>
</g>
<g>
	<g>
		<path d="M409.38,125.37L205.123,329.627l-21.508-21.508l204.256-204.256l-39.278-39.278L121.86,291.319l22.634,77.428
			l77.428,22.634l159.766-159.766c15.442-15.441,35.559-26.258,58.176-31.282c11.142-2.474,21.611-7.102,30.888-13.592
			L409.38,125.37z"/>
	</g>
</g>
<g>
	<g>
		<path d="M482.449,53.831c-1.288-1.289-2.67-2.571-4.349-4.037c-30.434-26.586-74.865-28.191-107.033-5.752l121.176,121.176
			C515.966,131.288,512.718,84.101,482.449,53.831z"/>
	</g>
</g>
<g>
	<g>
		<rect y="453.155" width="60.338" height="30.417"/>
	</g>
</g>
<g>
	<g>
		<rect x="180.668" y="453.155" width="60.338" height="30.417"/>
	</g>
</g>
<g>
	<g>
		<rect x="270.997" y="453.155" width="60.338" height="30.417"/>
	</g>
</g>
<g>
	<g>
		<rect x="361.336" y="453.155" width="60.338" height="30.417"/>
	</g>
</g>
<g>
	<g>
		<rect x="451.664" y="453.155" width="60.338" height="30.417"/>
	</g>
</g>
<g>
</g>
<g>
</g>
<g>
</g>
<g>
</g>
<g>
</g>
<g>
</g>
<g>
</g>
<g>
</g>
<g>
</g>
<g>
</g>
<g>
</g>
<g>
</g>
<g>
</g>
<g>
</g>
<g>
</g>
</svg>
