<?xml version="1.0" encoding="iso-8859-1"?>
<!-- Generator: Adobe Illustrator 19.0.0, SVG Export Plug-In . SVG Version: 6.00 Build 0)  -->
<svg version="1.1" id="Layer_1" xmlns="http://www.w3.org/2000/svg" xmlns:xlink="http://www.w3.org/1999/xlink" x="0px" y="0px"
	 viewBox="0 0 512.001 512.001" style="enable-background:new 0 0 512.001 512.001;" xml:space="preserve">
<g>
	<g>
		<path d="M488.639,441.963h-7.057h-37.637H68.055H30.418h-7.057H0v22.917c0,17.598,14.318,31.916,31.917,31.916h448.166
			c17.599,0,31.917-14.318,31.917-31.916v-22.917H488.639z"/>
	</g>
</g>
<g>
	<g>
		<path d="M362.922,174.552c-4.863,9.494-10.635,18.308-17.228,26.294l-1.81,2.193c-6.106,7.678-11.124,16.389-14.93,25.841
			c5.09,5.203,8.236,12.316,8.236,20.153v31.188c0,13.908-9.895,25.547-23.014,28.25v8.01c0,24.143-19.641,43.783-43.783,43.783
			h-28.775c-24.143,0-43.783-19.641-43.783-43.783v-8.01c-13.119-2.703-23.013-14.342-23.013-28.25v-31.188
			c0-7.837,3.146-14.95,8.236-20.154c-3.818-9.48-8.856-18.216-14.987-25.911l-1.753-2.123c-6.595-7.988-12.366-16.8-17.229-26.294
			H98.473v236.992h315.055V174.552H362.922z"/>
	</g>
</g>
<g>
	<g>
		<path d="M456.722,99.44h-76.544c0.259,3.27,0.394,6.574,0.394,9.91c0,11.933-1.68,23.616-4.911,34.784h68.285v267.41h14.276
			h30.418V131.358C488.639,113.759,474.321,99.44,456.722,99.44z"/>
	</g>
</g>
<g>
	<g>
		<path d="M131.44,109.351c0-3.336,0.136-6.64,0.394-9.91H55.278c-17.599,0-31.917,14.318-31.917,31.917v280.188h30.418h14.276
			V144.134h68.296C133.12,132.966,131.44,121.282,131.44,109.351z"/>
	</g>
</g>
<g>
	<g>
		<path d="M228.253,309.064v7.417c-0.001,7.37,5.994,13.366,13.365,13.366h28.775c7.37,0,13.366-5.995,13.366-13.366v-7.417H228.253
			z"/>
	</g>
</g>
<g>
	<g>
		<rect x="205.239" y="250.612" width="101.535" height="28.037"/>
	</g>
</g>
<g>
	<g>
		<path d="M256.007,15.204c-51.913,0-94.148,42.234-94.148,94.147c-0.001,24.612,9.408,47.84,26.513,65.494l0.417,0.414
			c11.143,11.104,19.746,24.247,25.399,38.673c0.807,2.06,1.554,4.148,2.241,6.259h24.369v-61.387l-52.279-52.278l21.508-21.508
			l45.98,45.979l45.979-45.979l21.508,21.508l-52.278,52.278v61.387h24.369c5.486-16.887,14.903-32.241,27.64-44.931l0.432-0.429
			c17.094-17.651,26.499-40.874,26.499-65.479C350.154,57.439,307.92,15.204,256.007,15.204z"/>
	</g>
</g>
<g>
</g>
<g>
</g>
<g>
</g>
<g>
</g>
<g>
</g>
<g>
</g>
<g>
</g>
<g>
</g>
<g>
</g>
<g>
</g>
<g>
</g>
<g>
</g>
<g>
</g>
<g>
</g>
<g>
</g>
</svg>
