<?xml version="1.0" encoding="iso-8859-1"?>
<!-- Generator: Adobe Illustrator 19.0.0, SVG Export Plug-In . SVG Version: 6.00 Build 0)  -->
<svg version="1.1" id="Layer_1" xmlns="http://www.w3.org/2000/svg" xmlns:xlink="http://www.w3.org/1999/xlink" x="0px" y="0px"
	 viewBox="0 0 512 512" style="enable-background:new 0 0 512 512;" xml:space="preserve">
<g>
	<g>
		<path d="M0,347.629V512h512V347.629H0z M429.814,473.95c-24.336,0-44.136-19.8-44.136-44.136c0-24.336,19.8-44.136,44.136-44.136
			c24.337,0,44.136,19.8,44.136,44.136C473.95,454.15,454.151,473.95,429.814,473.95z"/>
	</g>
</g>
<g>
	<g>
		<path d="M429.814,416.116c-7.553,0-13.698,6.145-13.698,13.698c0,7.553,6.145,13.698,13.698,13.698
			c7.554,0,13.698-6.145,13.698-13.698C443.512,422.261,437.367,416.116,429.814,416.116z"/>
	</g>
</g>
<g>
	<g>
		<polygon points="345.845,317.191 399.114,317.191 98.676,143.733 16.491,286.083 70.371,317.191 123.642,317.191 52.876,276.334 
			108.426,180.117 		"/>
	</g>
</g>
<g>
	<g>
		<polygon points="317.19,70.373 286.081,16.491 143.732,98.677 174.84,152.559 220.973,179.193 180.116,108.428 276.332,52.876 
			413.407,290.295 459.539,316.93 		"/>
	</g>
</g>
<g>
	<g>
		<polygon points="119.567,221.695 94.454,265.193 184.516,317.191 284.969,317.191 		"/>
	</g>
</g>
<g>
	<g>
		<polygon points="265.192,94.455 221.694,119.568 273.693,209.631 360.686,259.858 		"/>
	</g>
</g>
<g>
	<g>
		<polygon points="347.628,0 347.628,62.217 374.263,108.351 374.263,26.635 485.364,26.635 485.364,300.785 494.836,317.191 
			511.999,317.191 511.999,0 		"/>
	</g>
</g>
<g>
	<g>
		<polygon points="404.701,57.073 404.701,161.07 454.926,248.064 454.926,57.073 		"/>
	</g>
</g>
<g>
</g>
<g>
</g>
<g>
</g>
<g>
</g>
<g>
</g>
<g>
</g>
<g>
</g>
<g>
</g>
<g>
</g>
<g>
</g>
<g>
</g>
<g>
</g>
<g>
</g>
<g>
</g>
<g>
</g>
</svg>
