<?xml version="1.0" encoding="iso-8859-1"?>
<!-- Generator: Adobe Illustrator 19.0.0, SVG Export Plug-In . SVG Version: 6.00 Build 0)  -->
<svg version="1.1" id="Layer_1" xmlns="http://www.w3.org/2000/svg" xmlns:xlink="http://www.w3.org/1999/xlink" x="0px" y="0px"
	 viewBox="0 0 512 512" style="enable-background:new 0 0 512 512;" xml:space="preserve">
<g>
	<g>
		<path d="M471.86,93.462l-367.591-0.191c9.111,12.373,14.51,27.642,14.51,44.152c0,16.51-5.398,31.779-14.51,44.152h359.867h3.711
			c24.346,0,44.153-19.807,44.153-44.152C512,114.431,494.331,95.496,471.86,93.462z"/>
	</g>
</g>
<g>
	<g>
		<path d="M480.507,0H176.968c5.475,9.236,8.63,20,8.63,31.493c0,11.493-3.155,22.257-8.63,31.493h303.539
			c17.365,0,31.493-14.128,31.493-31.493C512,14.128,497.872,0,480.507,0z"/>
	</g>
</g>
<g>
	<g>
		<g>
			<polygon points="162.747,212.052 162.748,212.052 162.747,212.051 			"/>
			<path d="M464.137,212.052h-301.39c10.259,13.248,16.385,29.849,16.385,47.862v47.864v15.238v88.122h100.86V512H512V259.915
				C512,233.524,490.529,212.052,464.137,212.052z"/>
		</g>
	</g>
</g>
<g>
	<g>
		<path d="M44.152,93.271C19.806,93.271,0,113.079,0,137.423c0,24.344,19.806,44.152,44.152,44.152s44.152-19.807,44.152-44.152
			C88.304,113.078,68.497,93.271,44.152,93.271z"/>
	</g>
</g>
<g>
	<g>
		<path d="M123.629,0c-17.365,0-31.493,14.128-31.493,31.493c0,17.365,14.128,31.493,31.493,31.493
			c17.365,0,31.493-14.128,31.493-31.493C155.122,14.128,140.994,0,123.629,0z"/>
	</g>
</g>
<g>
	<g>
		<path d="M100.794,212.051c-26.391,0-47.863,21.471-47.863,47.863s21.471,47.864,47.863,47.864
			c26.391,0,47.864-21.473,47.864-47.864S127.185,212.051,100.794,212.051z"/>
	</g>
</g>
<g>
	<g>
		<polygon points="163.895,426.377 163.896,426.378 163.896,426.377 		"/>
	</g>
</g>
<g>
	<g>
		<polygon points="179.133,441.615 249.518,512 249.518,441.615 		"/>
	</g>
</g>
<g>
</g>
<g>
</g>
<g>
</g>
<g>
</g>
<g>
</g>
<g>
</g>
<g>
</g>
<g>
</g>
<g>
</g>
<g>
</g>
<g>
</g>
<g>
</g>
<g>
</g>
<g>
</g>
<g>
</g>
</svg>
