<?xml version="1.0" encoding="iso-8859-1"?>
<!-- Generator: Adobe Illustrator 19.0.0, SVG Export Plug-In . SVG Version: 6.00 Build 0)  -->
<svg version="1.1" id="Layer_1" xmlns="http://www.w3.org/2000/svg" xmlns:xlink="http://www.w3.org/1999/xlink" x="0px" y="0px"
	 viewBox="0 0 512 512" style="enable-background:new 0 0 512 512;" xml:space="preserve">
<g>
	<g>
		<polygon points="256,266.834 188.211,387.809 323.788,387.809 		"/>
	</g>
</g>
<g>
	<g>
		<path d="M256,181.364c-29.972,0-54.358,24.384-54.358,54.358c0,14.41,5.746,28.038,15.589,38.075L256,204.61l38.769,69.187
			c9.843-10.037,15.589-23.666,15.589-38.075C310.358,205.748,285.972,181.364,256,181.364z"/>
	</g>
</g>
<g>
	<g>
		<path d="M105.772,124.193v263.616h47.573l48.632-86.788c-19.252-15.952-30.752-39.835-30.752-65.299
			c0-46.745,38.031-84.775,84.775-84.775s84.775,38.03,84.775,84.775c0,25.462-11.5,49.346-30.752,65.299l48.632,86.788h47.573
			V124.193H105.772z"/>
	</g>
</g>
<g>
	<g>
		<path d="M375.699,418.226H136.3h-30.528v55.646c0,21.023,17.105,38.128,38.128,38.128h224.198
			c21.023,0,38.128-17.105,38.128-38.128v-55.646H375.699z M279.658,480.321h-47.315v-30.417h47.315V480.321z"/>
	</g>
</g>
<g>
	<g>
		<path d="M368.099,0H143.9c-21.023,0-38.128,17.105-38.128,38.128v55.647h300.455V38.128C406.228,17.105,389.122,0,368.099,0z
			 M261.622,62.096h-69.781V31.679h69.781V62.096z M320.158,62.096H292.04V31.679h28.118V62.096z"/>
	</g>
</g>
<g>
</g>
<g>
</g>
<g>
</g>
<g>
</g>
<g>
</g>
<g>
</g>
<g>
</g>
<g>
</g>
<g>
</g>
<g>
</g>
<g>
</g>
<g>
</g>
<g>
</g>
<g>
</g>
<g>
</g>
</svg>
