<?xml version="1.0" encoding="iso-8859-1"?>
<!-- Generator: Adobe Illustrator 19.0.0, SVG Export Plug-In . SVG Version: 6.00 Build 0)  -->
<svg version="1.1" id="Layer_1" xmlns="http://www.w3.org/2000/svg" xmlns:xlink="http://www.w3.org/1999/xlink" x="0px" y="0px"
	 viewBox="0 0 512.003 512.003" style="enable-background:new 0 0 512.003 512.003;" xml:space="preserve">
<g>
	<g>
		<path d="M338.345,320.58c-2.373-2.373-5.529-3.68-8.885-3.68s-6.512,1.307-8.885,3.68c-2.373,2.373-3.681,5.529-3.681,8.885
			c0,3.356,1.307,6.511,3.681,8.884c2.373,2.373,5.529,3.681,8.885,3.681s6.512-1.307,8.885-3.68
			c2.373-2.373,3.681-5.529,3.681-8.885C342.026,326.108,340.718,322.953,338.345,320.58z"/>
	</g>
</g>
<g>
	<g>
		<path d="M412.739,254.301l-169.888-32.962l68.925,68.925c5.487-2.478,11.484-3.793,17.685-3.793
			c11.484,0,22.28,4.472,30.401,12.593c8.121,8.12,12.593,18.917,12.593,30.402c0,11.484-4.472,22.28-12.593,30.401
			c-8.12,8.12-18.916,12.592-30.401,12.592s-22.28-4.472-30.401-12.593c-8.121-8.12-12.593-18.916-12.593-30.401
			c0-6.201,1.314-12.198,3.793-17.685l-68.925-68.925l32.961,169.888l95.51,32.398l95.331-95.331L412.739,254.301z"/>
	</g>
</g>
<g>
	<g>
		
			<rect x="356.89" y="411.475" transform="matrix(0.7071 -0.7071 0.7071 0.7071 -181.0619 437.1273)" width="160.476" height="51.3"/>
	</g>
</g>
<g>
	<g>
		<path d="M327.28,25.457c-20.897,0-37.898,17.001-37.898,37.899c0,4.86,0.93,9.505,2.605,13.779l-44.49,44.49
			c5.513-43.236-8.289-88.487-41.423-121.621l-21.516,21.516c44.95,44.951,44.95,118.092,0,163.044
			c-44.95,44.948-118.092,44.95-163.043,0L0,206.078c28.408,28.408,65.722,42.61,103.037,42.61c6.208,0,12.417-0.403,18.584-1.189
			l-44.496,44.496c-4.274-1.675-8.918-2.605-13.78-2.605c-20.898,0-37.898,17.001-37.898,37.899s17.001,37.899,37.898,37.899
			s37.899-17.001,37.899-37.899c0-4.86-0.93-9.505-2.605-13.779L313.501,98.65c4.274,1.675,8.918,2.605,13.779,2.605
			c20.898,0,37.899-17.001,37.899-37.899C365.179,42.458,348.177,25.457,327.28,25.457z"/>
	</g>
</g>
<g>
</g>
<g>
</g>
<g>
</g>
<g>
</g>
<g>
</g>
<g>
</g>
<g>
</g>
<g>
</g>
<g>
</g>
<g>
</g>
<g>
</g>
<g>
</g>
<g>
</g>
<g>
</g>
<g>
</g>
</svg>
