<?xml version="1.0" encoding="iso-8859-1"?>
<!-- Generator: Adobe Illustrator 19.0.0, SVG Export Plug-In . SVG Version: 6.00 Build 0)  -->
<svg version="1.1" id="Layer_1" xmlns="http://www.w3.org/2000/svg" xmlns:xlink="http://www.w3.org/1999/xlink" x="0px" y="0px"
	 viewBox="0 0 512 512" style="enable-background:new 0 0 512 512;" xml:space="preserve">
<g>
	<g>
		<g>
			<path d="M438.411,424.848c-2.015-24.508-7.471-89.961-22.072-265.811C415.938,71.273,344.416,0,256.562,0
				S97.184,71.273,96.784,159.036L73.627,437.931c-0.789,9.521,6.381,18.852,17.775,18.852c215.687,0,291.204,0.014,317.689,0
				c5.241-0.003,7.791-6.402,3.991-10.01L191.986,236.808c-0.019-0.019-0.035-0.038-0.053-0.057
				c-22.629-18.745-37.017-47.108-36.832-78.762C155.417,104,198.59,59.317,252.54,57.222
				c57.771-2.244,105.484,44.097,105.484,101.373c0,53.546-41.668,97.427-94.077,101.195c-5.005,0.36-7.168,6.533-3.529,9.988
				l168.215,159.746C432.496,433.194,438.847,430.157,438.411,424.848z"/>
			<path d="M334.808,158.595c0-43.14-35.101-78.235-78.247-78.235c-43.146,0-78.247,35.096-78.247,78.235
				c0,43.145,35.101,78.247,78.247,78.247C299.707,236.842,334.808,201.74,334.808,158.595z"/>
			<path d="M410.536,479.998h-307.95c-3.206,0-5.804,2.599-5.804,5.804v8.787c0,9.616,7.796,17.411,17.411,17.411h284.735
				c9.616,0,17.411-7.796,17.411-17.411v-8.787C416.34,482.597,413.741,479.998,410.536,479.998z"/>
		</g>
	</g>
</g>
<g>
</g>
<g>
</g>
<g>
</g>
<g>
</g>
<g>
</g>
<g>
</g>
<g>
</g>
<g>
</g>
<g>
</g>
<g>
</g>
<g>
</g>
<g>
</g>
<g>
</g>
<g>
</g>
<g>
</g>
</svg>
