<?xml version="1.0" encoding="iso-8859-1"?>
<!-- Generator: Adobe Illustrator 19.0.0, SVG Export Plug-In . SVG Version: 6.00 Build 0)  -->
<svg version="1.1" id="Layer_1" xmlns="http://www.w3.org/2000/svg" xmlns:xlink="http://www.w3.org/1999/xlink" x="0px" y="0px"
	 viewBox="0 0 512.001 512.001" style="enable-background:new 0 0 512.001 512.001;" xml:space="preserve">
<g>
	<g>
		<g>
			<path d="M338.016,295.041c-50.628-29.296-113.316-29.349-164.032,0c-3.417,1.977-4.075,6.626-1.284,9.417l79.081,79.082
				c2.331,2.331,6.108,2.331,8.438,0l79.082-79.082C342.092,301.666,341.433,297.017,338.016,295.041z"/>
			<path d="M152.1,317.612c-2.276-2.276-5.955-2.345-8.305-0.144c-32.021,29.993-52.062,72.629-52.062,119.86v56.773
				c0,9.886,8.015,17.901,17.901,17.901h128.465c3.296,0,5.967-2.672,5.967-5.967V412.05c0-1.582-0.629-3.1-1.748-4.219
				L152.1,317.612z"/>
			<path d="M368.206,317.466c-2.35-2.201-6.029-2.131-8.305,0.144l-90.219,90.22c-1.119,1.119-1.747,2.637-1.747,4.219v93.984
				c0,3.295,2.671,5.967,5.967,5.967h128.465c9.886,0,17.901-8.015,17.901-17.901v-56.773
				C420.267,390.095,400.225,347.461,368.206,317.466z"/>
			<path d="M163.621,258.94c8.108,0,176.651,0,184.758,0c9.886,0,17.901-8.015,17.901-17.901
				c0-74.132,12.261-140.752-46.435-182.302C317.117,25.896,289.534,0,256.001,0c-33.535,0-61.117,25.896-63.844,58.739
				c-58.754,41.59-46.436,108.333-46.436,182.3C145.72,250.926,153.735,258.94,163.621,258.94z M256.001,35.801
				c15.595,0,28.283,12.688,28.283,28.283c0,15.62-12.729,28.283-28.283,28.283c-15.577,0-28.283-12.686-28.283-28.283
				C227.717,48.489,240.404,35.801,256.001,35.801z M330.389,152.167c-1.999,40.433-35.386,70.97-74.39,70.97
				c-39.014,0-72.391-30.566-74.389-70.97H330.389z"/>
		</g>
	</g>
</g>
<g>
</g>
<g>
</g>
<g>
</g>
<g>
</g>
<g>
</g>
<g>
</g>
<g>
</g>
<g>
</g>
<g>
</g>
<g>
</g>
<g>
</g>
<g>
</g>
<g>
</g>
<g>
</g>
<g>
</g>
</svg>
