<?xml version="1.0" encoding="iso-8859-1"?>
<!-- Generator: Adobe Illustrator 19.0.0, SVG Export Plug-In . SVG Version: 6.00 Build 0)  -->
<svg version="1.1" id="Layer_1" xmlns="http://www.w3.org/2000/svg" xmlns:xlink="http://www.w3.org/1999/xlink" x="0px" y="0px"
	 viewBox="0 0 512 512" style="enable-background:new 0 0 512 512;" xml:space="preserve">
<g>
	<g>
		<g>
			<path d="M427.148,444.167H84.852c-3.562,0-6.451,2.888-6.451,6.451v42.028c0,10.688,8.665,19.354,19.354,19.354h316.492
				c10.688,0,19.354-8.665,19.354-19.354v-42.028C433.6,447.056,430.711,444.167,427.148,444.167z"/>
			<path d="M296.308,338.229l50.298-50.299c2.968-2.968,2.38-7.975-1.241-10.094c-55.13-32.238-123.567-32.256-178.728,0
				c-3.623,2.119-4.209,7.126-1.241,10.094l50.297,50.299C237.97,360.507,274.029,360.51,296.308,338.229z"/>
			<path d="M134.243,302.099c-29.781,28.088-49.883,66.327-54.711,109.129c-0.43,3.807,2.589,7.134,6.423,7.134h340.093
				c3.832,0,6.851-3.326,6.422-7.134c-4.828-42.802-24.93-81.041-54.711-109.129c-2.533-2.388-6.517-2.31-8.979,0.152
				l-53.273,53.272c-33.696,33.696-85.854,33.159-118.06,0.951l-54.225-54.223C140.76,299.79,136.776,299.711,134.243,302.099z"/>
			<path d="M424.385,162.932c-10.41,0.49-18.418,9.457-18.418,19.879v9.875c0,7.999-5.925,15.002-13.888,15.751
				c-9.139,0.861-16.852-6.335-16.852-15.3v-73.965c0-6.338-0.497-12.563-1.455-18.636c-0.492-3.116-3.214-5.391-6.369-5.391
				H144.597c-3.155,0-5.877,2.275-6.369,5.391c-0.957,6.073-1.454,12.297-1.454,18.636v73.514c0,7.999-5.925,15-13.889,15.75
				c-9.139,0.859-16.852-6.336-16.852-15.301V182.81c0-10.421-8.008-19.388-18.418-19.879c-11.114-0.524-20.289,8.332-20.289,19.332
				v9.91c0,29.816,24.389,55.109,54.204,55.039c25.455-0.059,46.82-17.803,52.473-41.567c46.01,43.65,117.924,43.705,163.993,0
				c5.653,23.765,27.018,41.508,52.474,41.567c29.815,0.068,54.204-25.224,54.204-55.039v-9.91
				C444.675,171.264,435.499,162.408,424.385,162.932z"/>
			<path d="M158.318,69.34h195.364c4.989,0,8.068-5.41,5.567-9.727c-46.054-79.534-160.501-79.433-206.498,0
				C150.25,63.931,153.328,69.34,158.318,69.34z"/>
		</g>
	</g>
</g>
<g>
</g>
<g>
</g>
<g>
</g>
<g>
</g>
<g>
</g>
<g>
</g>
<g>
</g>
<g>
</g>
<g>
</g>
<g>
</g>
<g>
</g>
<g>
</g>
<g>
</g>
<g>
</g>
<g>
</g>
</svg>
