<?xml version="1.0" encoding="iso-8859-1"?>
<!-- Generator: Adobe Illustrator 19.0.0, SVG Export Plug-In . SVG Version: 6.00 Build 0)  -->
<svg version="1.1" id="Layer_1" xmlns="http://www.w3.org/2000/svg" xmlns:xlink="http://www.w3.org/1999/xlink" x="0px" y="0px"
	 viewBox="0 0 512 512" style="enable-background:new 0 0 512 512;" xml:space="preserve">
<g>
	<g>
		<g>
			<path d="M345.639,399.713H8.355c-3.196,0-5.913,2.347-6.368,5.51c-2.823,19.592-1.81,87.707-1.81,86.421
				c0,10.641,8.627,19.269,19.269,19.269H334.55c10.641,0,19.269-8.627,19.269-19.269c0-65.125,0.533-70.156-1.811-86.421
				C351.552,402.06,348.835,399.713,345.639,399.713z"/>
			<path d="M241.226,275.498v92.1c0,3.548,2.876,6.423,6.423,6.423h87.69c4.547,0,7.655-4.597,5.969-8.82
				c-16.893-42.338-49.7-76.665-90.988-95.556C246.069,267.701,241.226,270.823,241.226,275.498z"/>
			<path d="M143.685,256.87c-3.032,0.581-5.224,3.233-5.224,6.32v104.409c0,3.548,2.875,6.423,6.423,6.423h64.229
				c3.547,0,6.423-2.875,6.423-6.423V263.19c0-3.087-2.194-5.74-5.224-6.32C189.034,252.792,166.348,252.526,143.685,256.87z"/>
			<path d="M18.654,374.022h87.692c3.547,0,6.423-2.875,6.423-6.423v-92.1c0-4.676-4.844-7.797-9.096-5.853
				c-41.288,18.891-74.094,53.217-90.988,95.556C11,369.425,14.107,374.022,18.654,374.022z"/>
			<path d="M282.305,78.74c2.871-1.621,4.053-5.2,2.68-8.197c-28.999-63.315-105.659-88.063-165.8-54.376
				c-2.862,1.603-4.049,5.156-2.707,8.149C144.709,87.236,221.795,112.915,282.305,78.74z"/>
			<path d="M68.576,140.529c23.59-11.491,44.043-28.813,59.322-50.194c1.895-2.651,1.482-6.294-0.925-8.49
				c-11.89-10.851-21.872-23.677-29.544-38.048c-2.116-3.963-7.565-4.64-10.492-1.232c-22.358,26.029-32.059,59.82-27.584,93.112
				C59.936,140.015,64.641,142.446,68.576,140.529z"/>
			<path d="M157.245,103.007c-2.845-1.485-6.338-0.659-8.198,1.955c-18.841,26.479-44.509,47.648-74.144,60.999
				c-3.409,1.535-4.786,5.602-3.046,8.912c59.457,113.066,232.958,64.644,223.525-63.814c-0.334-4.542-5.073-7.354-9.18-5.386
				C244.3,125.749,196.918,123.713,157.245,103.007z"/>
			<path d="M490.121,249.618l-93.953,12.846c-9.419,1.292-16.658,9.406-16.658,19.091v64.524v145.564
				c0,10.641,8.627,19.269,19.269,19.269s19.269-8.627,19.269-19.269V368.163l72.074,9.854c11.559,1.583,21.879-7.416,21.879-19.091
				V268.71C512,257.021,501.665,248.035,490.121,249.618z"/>
		</g>
	</g>
</g>
<g>
</g>
<g>
</g>
<g>
</g>
<g>
</g>
<g>
</g>
<g>
</g>
<g>
</g>
<g>
</g>
<g>
</g>
<g>
</g>
<g>
</g>
<g>
</g>
<g>
</g>
<g>
</g>
<g>
</g>
</svg>
