<?xml version="1.0" encoding="iso-8859-1"?>
<!-- Generator: Adobe Illustrator 19.0.0, SVG Export Plug-In . SVG Version: 6.00 Build 0)  -->
<svg version="1.1" id="Layer_1" xmlns="http://www.w3.org/2000/svg" xmlns:xlink="http://www.w3.org/1999/xlink" x="0px" y="0px"
	 viewBox="0 0 512.001 512.001" style="enable-background:new 0 0 512.001 512.001;" xml:space="preserve">
<g>
	<g>
		<g>
			<path d="M326.278,268.205c-15.71-6.796-32.585-11.388-50.238-13.38c-3.81-0.43-7.138,2.589-7.138,6.422v75.806
				c0,6.871-5.185,12.871-12.04,13.315c-7.514,0.488-13.761-5.464-13.761-12.873v-76.247c0-3.834-3.328-6.852-7.138-6.422
				c-17.652,1.992-34.528,6.583-50.238,13.38c-2.38,1.028-3.94,3.352-3.94,5.945V505.55c0,3.562,2.887,6.451,6.451,6.451h135.531
				c3.563,0,6.45-2.889,6.45-6.451V274.151C330.217,271.558,328.657,269.234,326.278,268.205z"/>
			<path d="M145.525,292.345c-40.866,32.562-67.106,82.737-67.106,138.929v61.375c0,10.687,8.664,19.351,19.351,19.351h51.761
				c3.562,0,6.451-2.889,6.451-6.451V297.41C155.983,292.018,149.742,288.985,145.525,292.345z"/>
			<path d="M366.476,292.345c-4.217-3.361-10.458-0.328-10.458,5.065v208.141c0,3.562,2.889,6.45,6.451,6.45h51.761
				c10.687,0,19.352-8.664,19.352-19.351v-61.375C433.582,375.082,407.343,324.907,366.476,292.345z"/>
			<path d="M375.09,113.775c-0.203-4.422-4.646-7.386-8.767-5.771c-71.46,28.008-152.807,1.164-194.389-61.041
				c-2.433-3.639-7.756-3.814-10.428-0.346c-59.081,76.717-6.034,188.014,89.791,191.719
				C321.153,241.038,378.267,183.313,375.09,113.775z"/>
			<path d="M362.68,81.578c3.22-1.432,4.624-5.207,3.258-8.455C347.878,30.209,305.403,0,256.001,0
				c-23.46,0-45.36,6.813-63.825,18.563c-2.966,1.887-3.958,5.781-2.139,8.789C224.702,84.685,298.848,109.963,362.68,81.578z"/>
		</g>
	</g>
</g>
<g>
</g>
<g>
</g>
<g>
</g>
<g>
</g>
<g>
</g>
<g>
</g>
<g>
</g>
<g>
</g>
<g>
</g>
<g>
</g>
<g>
</g>
<g>
</g>
<g>
</g>
<g>
</g>
<g>
</g>
</svg>
