<?xml version="1.0" encoding="iso-8859-1"?>
<!-- Generator: Adobe Illustrator 19.0.0, SVG Export Plug-In . SVG Version: 6.00 Build 0)  -->
<svg version="1.1" id="Layer_1" xmlns="http://www.w3.org/2000/svg" xmlns:xlink="http://www.w3.org/1999/xlink" x="0px" y="0px"
	 viewBox="0 0 512 512" style="enable-background:new 0 0 512 512;" xml:space="preserve">
<g>
	<g>
		<g>
			<path d="M315.302,324.726c5.355,0,8.234-6.319,4.703-10.344c-10.522-11.996-15.987-17.872-21.297-12.561L195.469,405.059
				c-5.042,5.039-13.206,5.037-18.246,0L73.988,301.824c-2.458-2.458-6.434-2.54-8.968-0.163
				C29.464,335.017,8.762,382.033,8.762,431.277v61.371c0,10.687,8.664,19.352,19.352,19.352h222.631
				c3.443,0,6.235-2.792,6.235-6.235V369.88c0-24.938,20.216-45.154,45.154-45.154H315.302z"/>
			<path d="M97.614,277.471c-3.669,2.127-4.332,7.155-1.333,10.155l85.503,85.503c2.52,2.52,6.604,2.52,9.122,0l85.501-85.503
				c3-3,2.336-8.028-1.333-10.155C220.278,245.706,152.276,245.785,97.614,277.471z"/>
			<path d="M86.479,238.434c8.781,0,190.987,0,199.735,0c10.687,0,19.352-8.664,19.352-19.352c0-90.441,0.001-99.596,0.001-99.874
				c0,0.063,0,0.726,0,0C305.567,54.522,253.655,0,186.347,0C119.142,0,67.126,54.435,67.126,119.207c0,0.004,0,0.003,0,0.006
				v99.868C67.126,229.769,75.79,238.434,86.479,238.434z M107.749,101.636h157.197c11.18,50.197-27.091,98.088-78.599,98.088
				C134.998,199.724,96.524,151.996,107.749,101.636z"/>
			<path d="M483.886,350.528H302.134c-10.687,0-19.352,8.664-19.352,19.352v122.768c0,10.687,8.664,19.352,19.352,19.352h181.752
				c10.687,0,19.352-8.664,19.352-19.352V369.88C503.238,359.193,494.575,350.528,483.886,350.528z M393.013,454.561
				c-12.864,0-23.293-10.428-23.293-23.293c0-12.864,10.428-23.292,23.293-23.292c12.864,0,23.292,10.428,23.292,23.292
				C416.305,444.132,405.877,454.561,393.013,454.561z"/>
			<path d="M341.697,324.726h102.632c3.443,0,6.235-2.792,6.235-6.235c0-10.687-8.664-19.352-19.352-19.352h-76.398
				c-10.687,0-19.352,8.664-19.352,19.352C335.462,321.934,338.252,324.726,341.697,324.726z"/>
		</g>
	</g>
</g>
<g>
</g>
<g>
</g>
<g>
</g>
<g>
</g>
<g>
</g>
<g>
</g>
<g>
</g>
<g>
</g>
<g>
</g>
<g>
</g>
<g>
</g>
<g>
</g>
<g>
</g>
<g>
</g>
<g>
</g>
</svg>
