<?xml version="1.0" encoding="iso-8859-1"?>
<!-- Generator: Adobe Illustrator 19.0.0, SVG Export Plug-In . SVG Version: 6.00 Build 0)  -->
<svg version="1.1" id="Layer_1" xmlns="http://www.w3.org/2000/svg" xmlns:xlink="http://www.w3.org/1999/xlink" x="0px" y="0px"
	 viewBox="0 0 512 512" style="enable-background:new 0 0 512 512;" xml:space="preserve">
<g>
	<g>
		<g>
			<path d="M283.457,413.402h-54.915c-3.288,0-5.953,2.665-5.953,5.953v86.691c0,3.287,2.666,5.953,5.953,5.953h54.914
				c3.288,0,5.953-2.666,5.953-5.953v-86.691C289.41,416.067,286.744,413.402,283.457,413.402z"/>
			<path d="M284.542,286.041c-9.258-1.712-18.796-2.615-28.542-2.615c-9.746,0-19.285,0.903-28.542,2.615
				c-2.822,0.523-4.868,2.992-4.868,5.863v91.73c0,3.287,2.666,5.953,5.953,5.953h54.914c3.288,0,5.953-2.666,5.953-5.953v-91.73
				C289.41,289.034,287.365,286.563,284.542,286.041z"/>
			<path d="M190.346,297.844c-13.635,6.312-26.21,14.532-37.395,24.305l-12.152-12.152c-6.974-6.975-18.283-6.975-25.258,0
				c-6.975,6.975-6.975,18.283,0,25.258l13.323,13.323c-11.826,16.355-20.573,35.068-25.395,55.294H89.774
				c-9.864,0-17.86,7.997-17.86,17.86c0,9.864,7.997,17.86,17.86,17.86h9.422c-0.001,0.218-0.012,0.432-0.012,0.65v53.898
				c0,9.864,7.997,17.86,17.86,17.86h75.776c3.289,0,5.953-2.666,5.953-5.953V303.265
				C198.774,298.931,194.278,296.023,190.346,297.844z"/>
			<path d="M422.224,403.87h-13.692c-4.822-20.225-13.57-38.937-25.395-55.294l13.323-13.323c6.975-6.975,6.975-18.283,0-25.258
				c-6.974-6.975-18.283-6.975-25.258,0l-12.152,12.152c-11.185-9.773-23.76-17.994-37.395-24.305
				c-3.933-1.821-8.43,1.087-8.43,5.421v202.782c0,3.287,2.665,5.953,5.953,5.953h75.776c9.864,0,17.86-7.997,17.86-17.86v-53.898
				c0-0.218-0.011-0.432-0.012-0.65h9.423c9.864,0,17.86-7.997,17.86-17.86C440.085,411.867,432.088,403.87,422.224,403.87z"/>
			<path d="M218.575,137.922c0.878,9.162,8.574,16.157,17.779,16.157h39.291c9.205,0,16.901-6.994,17.78-16.157l11.329-118.361
				c0.479-5.009-1.176-9.99-4.563-13.713C296.805,2.123,292.006,0,286.974,0h-61.948c-5.033,0-9.832,2.123-13.217,5.848
				c-3.386,3.724-5.041,8.704-4.563,13.713L218.575,137.922z"/>
			<path d="M255.999,271.758c93.346,0,140.409-112.838,75.583-179.252c-3.558-3.645-9.744-1.515-10.229,3.555l-4.223,44.131
				c-2.059,21.495-19.894,37.701-41.485,37.701h-39.291c-21.591,0-39.425-16.207-41.485-37.7l-4.225-44.131
				c-0.486-5.071-6.671-7.2-10.229-3.555C115.701,158.814,162.539,271.758,255.999,271.758z"/>
		</g>
	</g>
</g>
<g>
</g>
<g>
</g>
<g>
</g>
<g>
</g>
<g>
</g>
<g>
</g>
<g>
</g>
<g>
</g>
<g>
</g>
<g>
</g>
<g>
</g>
<g>
</g>
<g>
</g>
<g>
</g>
<g>
</g>
</svg>
