<?xml version="1.0" encoding="iso-8859-1"?>
<!-- Generator: Adobe Illustrator 19.0.0, SVG Export Plug-In . SVG Version: 6.00 Build 0)  -->
<svg version="1.1" id="Layer_1" xmlns="http://www.w3.org/2000/svg" xmlns:xlink="http://www.w3.org/1999/xlink" x="0px" y="0px"
	 viewBox="0 0 511.999 511.999" style="enable-background:new 0 0 511.999 511.999;" xml:space="preserve">
<g>
	<g>
		<g>
			<path d="M176.082,300.589c-3.329,1.927-3.971,6.456-1.251,9.176l77.059,77.059c2.269,2.27,5.95,2.27,8.221,0l77.059-77.059
				c2.72-2.72,2.077-7.249-1.251-9.176C286.588,272.042,225.502,271.991,176.082,300.589z"/>
			<path d="M365.335,322.442c-2.29-2.144-5.875-2.077-8.092,0.141l-93.02,93.019c-4.542,4.541-11.903,4.541-16.446,0l-93.02-93.019
				c-2.218-2.218-5.803-2.285-8.092-0.141c-31.201,29.226-50.729,70.771-50.729,116.793v55.321c0,9.633,7.81,17.443,17.443,17.443
				h285.245c9.633,0,17.443-7.81,17.443-17.443v-55.321C416.065,393.213,396.536,351.668,365.335,322.442z"/>
			<path d="M180.225,93.009c-2.193-3.28-6.991-3.437-9.399-0.312c-53.253,69.15-5.439,169.468,80.934,172.807
				c62.965,2.435,114.446-49.596,111.583-112.275c-0.183-3.986-4.187-6.657-7.903-5.201
				C291.029,173.273,217.706,149.078,180.225,93.009z"/>
			<path d="M196.542,75.332c31.247,51.678,98.079,74.463,155.614,48.877c2.902-1.291,4.168-4.693,2.936-7.621
				C329.149,54.938,254.184,31.954,198.47,67.409C195.797,69.11,194.903,72.62,196.542,75.332z"/>
			<path d="M121.695,121.141c3.07,3.07,8.328,1.822,9.636-2.318c12.802-40.51,44.841-72.552,85.35-85.356
				c4.141-1.308,5.389-6.567,2.318-9.636L200.488,5.319c-7.414-7.414-18.383-6.697-24.874-0.207
				c-78.443,78.444-74.904,73.994-76.694,78.97c-2.371,6.594-0.624,13.658,4.055,18.338L121.695,121.141z"/>
		</g>
	</g>
</g>
<g>
</g>
<g>
</g>
<g>
</g>
<g>
</g>
<g>
</g>
<g>
</g>
<g>
</g>
<g>
</g>
<g>
</g>
<g>
</g>
<g>
</g>
<g>
</g>
<g>
</g>
<g>
</g>
<g>
</g>
</svg>
