<?xml version="1.0" encoding="iso-8859-1"?>
<!-- Generator: Adobe Illustrator 19.0.0, SVG Export Plug-In . SVG Version: 6.00 Build 0)  -->
<svg version="1.1" id="Layer_1" xmlns="http://www.w3.org/2000/svg" xmlns:xlink="http://www.w3.org/1999/xlink" x="0px" y="0px"
	 viewBox="0 0 511.999 511.999" style="enable-background:new 0 0 511.999 511.999;" xml:space="preserve">
<g>
	<g>
		<g>
			<path d="M276.024,254.802c-3.805-0.428-7.123,2.592-7.123,6.42v56.855c0,6.872-5.185,12.872-12.044,13.316
				c-7.514,0.486-13.76-5.464-13.76-12.875v-57.296c0-3.828-3.32-6.85-7.123-6.42C147.44,264.783,78.405,340.11,78.405,431.267
				v61.38c0,10.688,8.665,19.353,19.353,19.353h138.889c3.562,0,6.451-2.889,6.451-6.451V377.094
				c0-6.872,5.185-12.872,12.044-13.316c7.514-0.486,13.76,5.464,13.76,12.874v128.897c0,3.562,2.889,6.451,6.451,6.451h138.889
				c10.688,0,19.353-8.665,19.353-19.353v-61.38C433.592,340.111,364.556,264.783,276.024,254.802z"/>
			<path d="M156.123,238.41c8.766,0,190.983,0,199.747,0c10.688,0,19.353-8.665,19.353-19.353c0-12.514,0-87.408,0-99.877
				c0-59.825-44.353-109.928-102.162-118h0.001C200.017-8.939,136.77,47.35,136.77,119.229v99.828
				C136.77,229.745,145.435,238.41,156.123,238.41z M194.511,67.25c29.339,49.413,89.843,69.971,142.006,51.506
				c0,0.139,0.001,0.277,0.001,0.415c0,0.004,0,0.008,0,0.012c0,97.405-140.215,109.722-159.403,16.205
				C172.137,111.126,178.63,86.075,194.511,67.25z"/>
		</g>
	</g>
</g>
<g>
</g>
<g>
</g>
<g>
</g>
<g>
</g>
<g>
</g>
<g>
</g>
<g>
</g>
<g>
</g>
<g>
</g>
<g>
</g>
<g>
</g>
<g>
</g>
<g>
</g>
<g>
</g>
<g>
</g>
</svg>
