<?xml version="1.0" encoding="iso-8859-1"?>
<!-- Generator: Adobe Illustrator 19.0.0, SVG Export Plug-In . SVG Version: 6.00 Build 0)  -->
<svg version="1.1" id="Layer_1" xmlns="http://www.w3.org/2000/svg" xmlns:xlink="http://www.w3.org/1999/xlink" x="0px" y="0px"
	 viewBox="0 0 512.001 512.001" style="enable-background:new 0 0 512.001 512.001;" xml:space="preserve">
<g>
	<g>
		<g>
			<path d="M256.001,253.691c-97.92,0-177.583,79.663-177.583,177.583v61.376c0,10.687,8.664,19.352,19.352,19.352h316.462
				c10.687,0,19.352-8.664,19.352-19.352v-61.377C433.584,333.354,353.92,253.691,256.001,253.691z"/>
			<path d="M156.133,238.429c8.765,0,190.97,0,199.734,0c10.687,0,19.352-8.664,19.352-19.352c0-12.513,0-87.403,0-99.87
				C375.219,54.427,323.112,0,255.999,0C188.809,0,136.78,54.506,136.78,119.207c0.001,12.469,0.001,87.359,0.001,99.87
				C136.781,229.764,145.446,238.429,156.133,238.429z M177.403,101.635h157.195c11.183,50.196-27.092,98.087-78.598,98.087
				C204.564,199.723,166.204,151.905,177.403,101.635z"/>
		</g>
	</g>
</g>
<g>
</g>
<g>
</g>
<g>
</g>
<g>
</g>
<g>
</g>
<g>
</g>
<g>
</g>
<g>
</g>
<g>
</g>
<g>
</g>
<g>
</g>
<g>
</g>
<g>
</g>
<g>
</g>
<g>
</g>
</svg>
