<?xml version="1.0" encoding="iso-8859-1"?>
<!-- Generator: Adobe Illustrator 19.0.0, SVG Export Plug-In . SVG Version: 6.00 Build 0)  -->
<svg version="1.1" id="Layer_1" xmlns="http://www.w3.org/2000/svg" xmlns:xlink="http://www.w3.org/1999/xlink" x="0px" y="0px"
	 viewBox="0 0 512 512" style="enable-background:new 0 0 512 512;" xml:space="preserve">
<g>
	<g>
		<g>
			<path d="M361.757,77.984c2.883-1.628,4.07-5.222,2.691-8.232C335.325,6.166,258.337-18.686,197.94,15.144
				c-2.874,1.61-4.066,5.178-2.718,8.184C223.491,86.329,300.821,112.4,361.757,77.984z"/>
			<path d="M147.115,140.037c23.691-11.538,44.231-28.937,59.575-50.406c1.904-2.664,1.49-6.323-0.928-8.527
				c-11.941-10.897-21.966-23.778-29.67-38.21c-2.125-3.98-7.597-4.66-10.537-1.237c-22.453,26.142-32.196,60.077-27.701,93.51
				C138.439,139.521,143.165,141.962,147.115,140.037z"/>
			<path d="M236.165,102.353c-2.857-1.491-6.365-0.662-8.233,1.964c-18.921,26.592-44.699,47.851-74.461,61.26
				c-3.424,1.543-4.807,5.627-3.06,8.95c59.71,113.548,233.952,64.919,224.479-64.086c-0.335-4.562-5.094-7.386-9.219-5.409
				C323.591,125.194,276.006,123.149,236.165,102.353z"/>
			<path d="M167.339,277.461c-3.693,2.138-4.406,7.162-1.388,10.18l85.489,85.489c2.518,2.519,6.603,2.519,9.121,0l85.489-85.489
				c3.017-3.017,2.304-8.042-1.388-10.18C289.934,245.792,222.165,245.735,167.339,277.461z"/>
			<path d="M377.297,301.705c-2.54-2.379-6.517-2.304-8.977,0.156L265.123,405.057c-5.039,5.038-13.205,5.038-18.245,0
				L143.681,301.862c-2.46-2.46-6.437-2.535-8.977-0.156c-34.615,32.423-56.279,78.513-56.279,129.571v61.373
				c0,10.687,8.664,19.351,19.351,19.351h316.449c10.687,0,19.351-8.664,19.351-19.351v-61.373
				C433.576,380.218,411.912,334.128,377.297,301.705z"/>
		</g>
	</g>
</g>
<g>
</g>
<g>
</g>
<g>
</g>
<g>
</g>
<g>
</g>
<g>
</g>
<g>
</g>
<g>
</g>
<g>
</g>
<g>
</g>
<g>
</g>
<g>
</g>
<g>
</g>
<g>
</g>
<g>
</g>
</svg>
