<?xml version="1.0" encoding="iso-8859-1"?>
<!-- Generator: Adobe Illustrator 19.0.0, SVG Export Plug-In . SVG Version: 6.00 Build 0)  -->
<svg version="1.1" id="Layer_1" xmlns="http://www.w3.org/2000/svg" xmlns:xlink="http://www.w3.org/1999/xlink" x="0px" y="0px"
	 viewBox="0 0 512.002 512.002" style="enable-background:new 0 0 512.002 512.002;" xml:space="preserve">
<g>
	<g>
		<g>
			<path d="M238.513,286.653c-3.972,0.449-7.901,1.048-11.778,1.791c-2.666,0.511-4.592,2.846-4.592,5.561v91.879
				c0,3.121,2.531,5.652,5.652,5.652h56.522c3.121,0,5.652-2.531,5.652-5.652v-91.879c0-2.714-1.926-5.05-4.592-5.561
				c-3.877-0.743-7.804-1.342-11.778-1.791c-3.333-0.375-6.239,2.272-6.239,5.625v39.689c0,6.021-4.543,11.278-10.55,11.667
				c-6.584,0.427-12.058-4.787-12.058-11.279v-40.077C244.752,288.924,241.845,286.277,238.513,286.653z"/>
			<path d="M312.577,304.836v81.048c0.001,3.121,2.532,5.652,5.653,5.652h77.168c4.002,0,6.736-4.046,5.253-7.763
				c-14.866-37.257-43.736-67.464-80.069-84.088C316.84,297.974,312.577,300.721,312.577,304.836z"/>
			<path d="M116.714,391.537h77.168c3.122,0,5.653-2.531,5.653-5.652v-81.048c0-4.115-4.263-6.862-8.005-5.15
				c-36.333,16.624-65.203,46.831-80.069,84.088C109.978,387.491,112.712,391.537,116.714,391.537z"/>
			<path d="M410.065,418.994c-0.401-2.783-2.792-4.848-5.604-4.848H107.65c-2.813,0-5.203,2.065-5.604,4.848
				c-2.485,17.241-1.594,77.184-1.594,76.052c0,9.365,7.592,16.956,16.956,16.956h277.293c9.365,0,16.956-7.592,16.956-16.956
				C411.659,437.735,412.128,433.308,410.065,418.994z"/>
			<path d="M196.387,55.613c37.289-19.934,81.975-19.971,119.339,0.001c4.488,2.399,9.57-1.983,7.975-6.814
				c-21.489-65.081-113.807-65.053-135.29-0.001C186.815,53.632,191.899,58.012,196.387,55.613z"/>
			<path d="M256.056,272.288c57.601,0,104.463-46.862,104.464-104.463c0-34.888-17.32-67.334-46.328-86.79
				c-69.694-46.761-162.599,3.819-162.599,86.79C151.593,225.426,198.455,272.288,256.056,272.288z"/>
		</g>
	</g>
</g>
<g>
</g>
<g>
</g>
<g>
</g>
<g>
</g>
<g>
</g>
<g>
</g>
<g>
</g>
<g>
</g>
<g>
</g>
<g>
</g>
<g>
</g>
<g>
</g>
<g>
</g>
<g>
</g>
<g>
</g>
</svg>
