<?xml version="1.0" encoding="iso-8859-1"?>
<!-- Generator: Adobe Illustrator 19.0.0, SVG Export Plug-In . SVG Version: 6.00 Build 0)  -->
<svg xmlns="http://www.w3.org/2000/svg" xmlns:xlink="http://www.w3.org/1999/xlink" version="1.1" id="Capa_1" x="0px" y="0px" viewBox="0 0 512 512" style="enable-background:new 0 0 512 512;" xml:space="preserve">
<g>
	<g>
		<path d="M458.723,431.815h-193.66v-50.106h187.682v-30.001H265.063h-25.989v-75.102H75.326v75.102H49.337v80.298    C27.708,434,10.714,452.238,10.714,474.378V512h490.573v-37.622C501.287,450.909,482.193,431.815,458.723,431.815z"/>
	</g>
</g>
<g>
	<g>
		<rect x="298.823" width="113.115" height="34.625"/>
	</g>
</g>
<g>
	<g>
		<polygon points="278.042,241.41 278.042,286.501 321.951,286.501 321.951,305.335 388.807,305.335 388.807,286.501     432.715,286.501 432.715,241.41   "/>
	</g>
</g>
<g>
	<g>
		<path d="M278.042,64.626V85.2c-86.329,7.155-155.568,75.477-164.138,161.403h80.733v0.001    c7.618-41.75,41.238-74.537,83.406-80.906v45.71h154.673V64.626H278.042z"/>
	</g>
</g>
<g>
</g>
<g>
</g>
<g>
</g>
<g>
</g>
<g>
</g>
<g>
</g>
<g>
</g>
<g>
</g>
<g>
</g>
<g>
</g>
<g>
</g>
<g>
</g>
<g>
</g>
<g>
</g>
<g>
</g>
</svg>
