<?xml version="1.0" encoding="iso-8859-1"?>
<!-- Generator: Adobe Illustrator 19.0.0, SVG Export Plug-In . SVG Version: 6.00 Build 0)  -->
<svg xmlns="http://www.w3.org/2000/svg" xmlns:xlink="http://www.w3.org/1999/xlink" version="1.1" id="Capa_1" x="0px" y="0px" viewBox="0 0 512 512" style="enable-background:new 0 0 512 512;" xml:space="preserve">
<g>
	<g>
		<path d="M404.986,128.801c-20.146-13.942-29.693-39.28-23.758-63.05l8.928-35.75h35.42V0h-27.927H114.351H86.424v30.001h35.42    l8.927,35.75c5.936,23.77-3.611,49.107-23.757,63.05c-32.037,22.172-45.933,62.109-34.576,99.378l11.098,36.419l73.374-82.141    l56.475,74.056l38.666-56.104l43.77,14.493l28.486-64.03l27.411,12.196l-39.532,88.858l-48.203-15.962L214.614,307.6    l-59.531-78.062l-61.315,68.64l40.722,133.637h0.001H377.51v0l62.052-203.635v0.001    C450.919,190.911,437.025,150.974,404.986,128.801z"/>
	</g>
</g>
<g>
	<g>
		<polygon points="143.631,461.816 158.923,512 353.077,512 368.368,461.816   "/>
	</g>
</g>
<g>
</g>
<g>
</g>
<g>
</g>
<g>
</g>
<g>
</g>
<g>
</g>
<g>
</g>
<g>
</g>
<g>
</g>
<g>
</g>
<g>
</g>
<g>
</g>
<g>
</g>
<g>
</g>
<g>
</g>
</svg>
