<?xml version="1.0" encoding="iso-8859-1"?>
<!-- Generator: Adobe Illustrator 19.0.0, SVG Export Plug-In . SVG Version: 6.00 Build 0)  -->
<svg xmlns="http://www.w3.org/2000/svg" xmlns:xlink="http://www.w3.org/1999/xlink" version="1.1" id="Capa_1" x="0px" y="0px" viewBox="0 0 512 512" style="enable-background:new 0 0 512 512;" xml:space="preserve">
<g>
	<g>
		<polygon points="372.332,391.814 288.82,308.301 240.569,356.551 324.083,440.064 372.333,391.814   "/>
	</g>
</g>
<g>
	<g>
		<path d="M459.77,52.189c-69.528-69.53-182.661-69.53-252.189-0.001l-66.223,66.223l83.513,83.513l66.222-66.222    c11.352-11.352,26.473-17.603,42.581-17.603s31.23,6.251,42.581,17.603c11.351,11.352,17.603,26.474,17.603,42.581    c0,16.108-6.251,31.23-17.603,42.581l-66.223,66.223l83.514,83.514l66.223-66.223C493.451,270.696,512,225.915,512,178.283    C512,130.651,493.451,85.87,459.77,52.189z"/>
	</g>
</g>
<g>
	<g>
		<polygon points="120.144,139.625 120.144,139.626 71.894,187.876 155.407,271.388 203.658,223.139   "/>
	</g>
</g>
<g>
	<g>
		<path d="M283.204,438.514c-28.014,28.014-65.261,43.442-104.88,43.442c-39.619,0-76.866-15.428-104.88-43.442    c-28.015-28.014-43.443-65.262-43.443-104.88c0-39.619,15.428-76.866,43.442-104.881L52.23,207.539    C18.549,241.221,0,286.002,0,333.634s18.549,92.413,52.23,126.094c33.681,33.682,78.462,52.23,126.094,52.23    s92.413-18.549,126.094-52.23L283.204,438.514z"/>
	</g>
</g>
<g>
	<g>
		<path d="M241.26,396.57c-34.703,34.703-91.17,34.704-125.875,0c-16.812-16.812-26.069-39.163-26.069-62.938    c0-23.775,9.258-46.126,26.069-62.938l-21.213-21.212c-22.478,22.478-34.857,52.362-34.857,84.151s12.379,61.674,34.857,84.151    c23.201,23.2,53.677,34.802,84.151,34.802c30.475,0,60.951-11.602,84.151-34.802L241.26,396.57z"/>
	</g>
</g>
<g>
	<g>
		<path d="M199.319,354.629c-11.578,11.575-30.413,11.576-41.989,0c-5.608-5.608-8.696-13.065-8.696-20.995    c0-7.931,3.088-15.388,8.696-20.995l-21.215-21.214c-11.275,11.273-17.484,26.264-17.484,42.209    c0,15.944,6.208,30.934,17.484,42.209c11.639,11.639,26.92,17.457,42.209,17.456c15.284-0.002,30.573-5.82,42.209-17.456    L199.319,354.629z"/>
	</g>
</g>
<g>
</g>
<g>
</g>
<g>
</g>
<g>
</g>
<g>
</g>
<g>
</g>
<g>
</g>
<g>
</g>
<g>
</g>
<g>
</g>
<g>
</g>
<g>
</g>
<g>
</g>
<g>
</g>
<g>
</g>
</svg>
