<?xml version="1.0" encoding="iso-8859-1"?>
<!-- Generator: Adobe Illustrator 19.0.0, SVG Export Plug-In . SVG Version: 6.00 Build 0)  -->
<svg xmlns="http://www.w3.org/2000/svg" xmlns:xlink="http://www.w3.org/1999/xlink" version="1.1" id="Capa_1" x="0px" y="0px" viewBox="0 0 512 512" style="enable-background:new 0 0 512 512;" xml:space="preserve">
<g>
	<g>
		<path d="M499.637,12.367C488.283,1.013,471.771-2.889,456.534,2.19L252.155,70.317c-13.949,4.649-24.294,15.969-27.673,30.28    c-3.378,14.311,0.812,29.062,11.21,39.458l57.517,57.517l-77.215,77.214l-27.546-27.546l-36.92,32.099l81.134,81.134l32.099-36.92    l-27.546-27.546l77.215-77.214l57.516,57.516c8.029,8.029,18.652,12.356,29.665,12.356c3.249,0,6.533-0.376,9.793-1.146    c14.311-3.378,25.63-13.723,30.281-27.671l68.126-204.38C514.887,40.236,510.989,23.72,499.637,12.367z M382.754,217.095    l-87.847-87.847l21.22-21.22l87.847,87.847L382.754,217.095z"/>
	</g>
</g>
<g>
	<g>
		<path d="M128.824,299.078L23.841,390.352v0.001C9.384,402.921,0.71,421.111,0.042,440.256    c-0.667,19.146,6.719,37.894,20.265,51.439C33.289,504.677,51.047,512,69.356,512c0.795,0,1.595-0.014,2.392-0.042    c19.146-0.668,37.333-9.343,49.902-23.799l91.274-104.983L128.824,299.078z"/>
	</g>
</g>
<g>
</g>
<g>
</g>
<g>
</g>
<g>
</g>
<g>
</g>
<g>
</g>
<g>
</g>
<g>
</g>
<g>
</g>
<g>
</g>
<g>
</g>
<g>
</g>
<g>
</g>
<g>
</g>
<g>
</g>
</svg>
