<?xml version="1.0" encoding="iso-8859-1"?>
<!-- Generator: Adobe Illustrator 19.0.0, SVG Export Plug-In . SVG Version: 6.00 Build 0)  -->
<svg xmlns="http://www.w3.org/2000/svg" xmlns:xlink="http://www.w3.org/1999/xlink" version="1.1" id="Capa_1" x="0px" y="0px" viewBox="0 0 512.001 512.001" style="enable-background:new 0 0 512.001 512.001;" xml:space="preserve">
<g>
	<g>
		<polygon points="72.581,0.001 94.018,70.233 94.018,112.464 417.981,112.464 417.981,70.233 439.419,0.001   "/>
	</g>
</g>
<g>
	<g>
		<path d="M435.022,210.08c-5.765,0-11.477,0.655-17.041,1.915v-18.824h-24.945v19.705h24.945v30.001h-54.946V163.17h54.946v-20.705    H94.018v20.705h102.153v99.411h69.998v-19.704h-47.205V163.17h124.412v99.411h74.605V243.27    c5.398-2.099,11.175-3.188,17.041-3.188c25.902,0,46.976,21.073,46.976,46.976c0,25.903-21.073,46.977-46.976,46.977    c-9.166,0-17.957-2.625-25.493-7.516l-7.509,16.772H109.98l-7.509-16.772c-7.536,4.891-16.327,7.516-25.493,7.516    c-25.902,0-46.976-21.074-46.976-46.977c0-25.902,21.073-46.976,46.976-46.976c5.865,0,11.643,1.09,17.041,3.188v19.312h24.946    v-19.704H94.018v-30.001h54.947v79.707H95.012c0.775,7.047,2.003,13.958,3.656,20.705h314.662    c1.653-6.747,2.881-13.659,3.656-20.705H313.375v-99.411h-64.409v19.705h47.205v79.707H166.17v-99.411H94.018v18.824    c-5.563-1.26-11.276-1.915-17.041-1.915C34.533,210.08,0,244.613,0,287.058c0,42.446,34.532,76.979,76.977,76.979    c13.456,0,26.407-3.468,37.839-9.944l-0.078-0.174c13.094,23.281,31.76,43.025,54.199,57.383L137.781,512h236.438l-31.155-100.7    c22.439-14.358,41.104-34.102,54.198-57.382l-0.077,0.173c11.43,6.476,24.382,9.944,37.839,9.944    c42.445,0,76.977-34.532,76.977-76.979C511.999,244.613,477.467,210.08,435.022,210.08z"/>
	</g>
</g>
<g>
</g>
<g>
</g>
<g>
</g>
<g>
</g>
<g>
</g>
<g>
</g>
<g>
</g>
<g>
</g>
<g>
</g>
<g>
</g>
<g>
</g>
<g>
</g>
<g>
</g>
<g>
</g>
<g>
</g>
</svg>
