<?xml version="1.0" encoding="iso-8859-1"?>
<!-- Generator: Adobe Illustrator 19.0.0, SVG Export Plug-In . SVG Version: 6.00 Build 0)  -->
<svg xmlns="http://www.w3.org/2000/svg" xmlns:xlink="http://www.w3.org/1999/xlink" version="1.1" id="Capa_1" x="0px" y="0px" viewBox="0 0 512 512" style="enable-background:new 0 0 512 512;" xml:space="preserve">
<g>
	<g>
		<polygon points="231.307,280.693 149.907,252.604 0,368.206 143.794,512 259.396,362.092   "/>
	</g>
</g>
<g>
	<g>
		<polygon points="416.08,271.461 512,21.25 260.395,272.855 333.892,485.851 404.559,301.514 341.029,301.514 341.029,271.461       "/>
	</g>
</g>
<g>
	<g>
		<path d="M275.955,214.794L490.75,0L271.093,84.207l-1.675,8.026c-1.033,4.949-3.473,9.459-7.057,13.044    c-9.003,9.001-23.51,10.126-33.75,2.607l-6.613-4.856L26.15,178.108l212.995,73.496l15.559-15.559l-44.865-44.864l21.25-21.25    L275.955,214.794z"/>
	</g>
</g>
<g>
</g>
<g>
</g>
<g>
</g>
<g>
</g>
<g>
</g>
<g>
</g>
<g>
</g>
<g>
</g>
<g>
</g>
<g>
</g>
<g>
</g>
<g>
</g>
<g>
</g>
<g>
</g>
<g>
</g>
</svg>
