<?xml version="1.0" encoding="iso-8859-1"?>
<!-- Generator: Adobe Illustrator 19.0.0, SVG Export Plug-In . SVG Version: 6.00 Build 0)  -->
<svg xmlns="http://www.w3.org/2000/svg" xmlns:xlink="http://www.w3.org/1999/xlink" version="1.1" id="Capa_1" x="0px" y="0px" viewBox="0 0 511.999 511.999" style="enable-background:new 0 0 511.999 511.999;" xml:space="preserve">
<g>
	<g>
		<path d="M455.776,0H125.134C97.864,0,75.678,22.186,75.678,49.455v363.632H56.225c-27.271,0-49.456,22.186-49.456,49.456    c0,27.27,22.186,49.455,49.456,49.455h330.642c27.27,0,49.455-22.186,49.455-49.455V94.918c5.974,2.566,12.551,3.993,19.454,3.993    c27.27,0,49.455-22.186,49.455-49.456C505.231,22.186,483.046,0,455.776,0z M381.006,385.099c-15.657,0-24.189-3.755-31.046-6.772    c-5.58-2.457-9.613-4.231-18.96-4.231s-13.38,1.774-18.961,4.231c-6.855,3.018-15.389,6.772-31.045,6.772    c-15.656,0-24.188-3.756-31.043-6.773c-5.58-2.456-9.611-4.23-18.956-4.23s-13.377,1.774-18.957,4.23    c-6.855,3.018-15.389,6.773-31.044,6.773c-15.655,0-24.187-3.756-31.042-6.773c-5.58-2.456-9.611-4.23-18.956-4.23v-30.001    c15.655-0.001,24.186,3.755,31.042,6.773c5.58,2.456,9.611,4.23,18.956,4.23c9.345,0,13.378-1.774,18.958-4.23    c6.855-3.018,15.389-6.773,31.043-6.773s24.187,3.756,31.042,6.773c5.58,2.456,9.611,4.23,18.957,4.23    c9.346,0,13.38-1.774,18.961-4.231c6.855-3.018,15.389-6.772,31.045-6.772c15.657,0,24.189,3.755,31.046,6.772    c5.58,2.457,9.613,4.231,18.96,4.231V385.099z M381.006,327.878c-15.656,0-24.189-3.755-31.045-6.772    c-5.581-2.456-9.613-4.23-18.961-4.23s-13.38,1.774-18.961,4.23c-6.855,3.018-15.39,6.772-31.045,6.772    c-15.655,0-24.188-3.755-31.043-6.772c-5.58-2.456-9.611-4.23-18.956-4.23c-9.345,0-13.377,1.774-18.957,4.23    c-6.855,3.018-15.389,6.772-31.044,6.772c-15.655,0-24.187-3.755-31.042-6.772c-5.58-2.456-9.611-4.23-18.956-4.23v-30.001    c15.655-0.001,24.186,3.754,31.042,6.772c5.58,2.456,9.611,4.23,18.956,4.23c9.345,0,13.378-1.774,18.958-4.23    c6.855-3.018,15.389-6.772,31.043-6.772s24.187,3.755,31.042,6.772c5.58,2.456,9.611,4.23,18.957,4.23    c9.347,0,13.38-1.774,18.961-4.23c6.855-3.018,15.39-6.772,31.045-6.772s24.189,3.755,31.045,6.772    c5.581,2.456,9.613,4.23,18.961,4.23V327.878z M381.006,270.657c-15.656,0-24.189-3.755-31.045-6.772    c-5.581-2.456-9.613-4.23-18.961-4.23s-13.38,1.774-18.961,4.23c-6.855,3.018-15.39,6.772-31.045,6.772    c-15.655,0-24.188-3.755-31.043-6.772c-5.58-2.456-9.611-4.23-18.956-4.23c-9.345,0-13.377,1.774-18.957,4.23    c-6.855,3.018-15.389,6.772-31.044,6.772c-15.655,0-24.187-3.755-31.042-6.772c-5.58-2.456-9.611-4.23-18.956-4.23v-30.001    c15.655,0,24.186,3.754,31.042,6.772c5.58,2.456,9.611,4.23,18.956,4.23c9.345,0,13.378-1.774,18.958-4.23    c6.855-3.018,15.389-6.772,31.043-6.772s24.187,3.755,31.042,6.772c5.58,2.456,9.611,4.23,18.957,4.23    c9.347,0,13.38-1.774,18.961-4.23c6.855-3.018,15.39-6.772,31.045-6.772s24.189,3.755,31.045,6.772    c5.581,2.456,9.613,4.23,18.961,4.23V270.657z M381.006,213.437c-15.657,0-24.189-3.755-31.046-6.772    c-5.58-2.457-9.613-4.231-18.96-4.231s-13.38,1.774-18.961,4.231c-6.855,3.018-15.389,6.772-31.045,6.772    c-15.656,0-24.188-3.756-31.043-6.773c-5.58-2.456-9.611-4.23-18.956-4.23s-13.377,1.774-18.957,4.23    c-6.855,3.018-15.389,6.773-31.044,6.773c-15.655,0-24.187-3.756-31.042-6.773c-5.58-2.456-9.611-4.23-18.956-4.23v-30.001    c15.655,0,24.186,3.756,31.042,6.773c5.58,2.456,9.611,4.23,18.956,4.23c9.345,0,13.378-1.774,18.958-4.23    c6.855-3.018,15.389-6.773,31.043-6.773s24.187,3.756,31.042,6.773c5.58,2.456,9.611,4.23,18.957,4.23    c9.346,0,13.38-1.774,18.961-4.231c6.855-3.018,15.389-6.772,31.045-6.772c15.657,0,24.189,3.755,31.046,6.772    c5.58,2.457,9.613,4.231,18.96,4.231V213.437z M381.006,156.216c-15.657,0-24.189-3.755-31.046-6.772    c-5.58-2.457-9.613-4.231-18.96-4.231s-13.38,1.774-18.961,4.231c-6.855,3.018-15.389,6.772-31.045,6.772    c-15.656,0-24.188-3.756-31.043-6.773c-5.58-2.456-9.611-4.23-18.956-4.23s-13.377,1.774-18.957,4.23    c-6.855,3.018-15.389,6.773-31.044,6.773c-15.655,0-24.187-3.756-31.042-6.773c-5.58-2.456-9.611-4.23-18.956-4.23v-30.001    c15.655,0,24.186,3.756,31.042,6.773c5.58,2.456,9.611,4.23,18.956,4.23c9.345,0,13.378-1.774,18.958-4.23    c6.855-3.018,15.389-6.773,31.043-6.773s24.187,3.756,31.042,6.773c5.58,2.456,9.611,4.23,18.957,4.23    c9.346,0,13.38-1.774,18.961-4.231c6.855-3.018,15.389-6.772,31.045-6.772c15.657,0,24.189,3.755,31.046,6.772    c5.58,2.457,9.613,4.231,18.96,4.231V156.216z M381.006,98.995c-15.657,0-24.189-3.755-31.046-6.772    c-5.58-2.457-9.613-4.231-18.96-4.231s-13.38,1.774-18.961,4.231c-6.855,3.018-15.389,6.772-31.045,6.772    c-15.656,0-24.188-3.756-31.043-6.773c-5.58-2.456-9.611-4.23-18.956-4.23s-13.377,1.774-18.957,4.23    c-6.855,3.018-15.389,6.773-31.044,6.773c-15.655,0-24.187-3.756-31.042-6.773c-5.58-2.455-9.611-4.23-18.956-4.23V57.991    c15.655,0,24.187,3.756,31.042,6.773c5.58,2.456,9.611,4.23,18.956,4.23c9.345,0,13.378-1.774,18.958-4.23    c6.855-3.018,15.389-6.773,31.043-6.773s24.187,3.756,31.042,6.773c5.58,2.456,9.611,4.23,18.957,4.23    c9.346,0,13.38-1.774,18.961-4.231c6.855-3.018,15.389-6.772,31.045-6.772c15.657,0,24.189,3.755,31.046,6.772    c5.58,2.457,9.613,4.231,18.96,4.231V98.995z"/>
	</g>
</g>
<g>
</g>
<g>
</g>
<g>
</g>
<g>
</g>
<g>
</g>
<g>
</g>
<g>
</g>
<g>
</g>
<g>
</g>
<g>
</g>
<g>
</g>
<g>
</g>
<g>
</g>
<g>
</g>
<g>
</g>
</svg>
