<?xml version="1.0" encoding="iso-8859-1"?>
<!-- Generator: Adobe Illustrator 19.0.0, SVG Export Plug-In . SVG Version: 6.00 Build 0)  -->
<svg xmlns="http://www.w3.org/2000/svg" xmlns:xlink="http://www.w3.org/1999/xlink" version="1.1" id="Capa_1" x="0px" y="0px" viewBox="0 0 512 512" style="enable-background:new 0 0 512 512;" xml:space="preserve">
<g>
	<g>
		<path d="M388.981,165.269l-45.138,3.469l-4.568,59.382l-72.226,5.557l-2.305-29.966l46.541-3.58l4.569-59.384l48.565-3.733    c-30.628-27.937-69.528-41.917-108.42-41.917c-41.228,0-82.443,15.687-113.83,47.073c-62.765,62.765-62.765,164.894,0,227.66    c62.767,62.763,164.894,62.764,227.661-0.001C425.378,314.281,431.754,227.908,388.981,165.269z M256,148.854    c-28.618,0-55.525,11.145-75.764,31.382c-20.2,20.2-31.325,47.106-31.325,75.764c0,28.657,11.125,55.563,31.325,75.764    l-21.251,21.251c-25.877-25.876-40.128-60.331-40.128-97.015c0-36.684,14.252-71.138,40.128-97.015    C184.899,133.072,219.353,118.8,256,118.8V148.854z"/>
	</g>
</g>
<g>
	<g>
		<path d="M446.447,271.027c-1.167,15.101-4.092,29.846-8.673,44.002l60.602,25.102c7.645-22.081,12.256-45.284,13.623-69.104    H446.447z"/>
	</g>
</g>
<g>
	<g>
		<path d="M144.103,25.125c-21.018,10.208-40.687,23.354-58.497,39.23l46.355,46.355c11.607-9.924,24.134-18.219,37.276-24.907    L144.103,25.125z"/>
	</g>
</g>
<g>
	<g>
		<path d="M131.961,401.29l-46.355,46.355c17.81,15.876,37.478,29.023,58.497,39.23l25.134-60.679    C156.096,419.509,143.568,411.214,131.961,401.29z"/>
	</g>
</g>
<g>
	<g>
		<path d="M380.039,401.29c-11.607,9.924-24.134,18.219-37.276,24.907l25.134,60.679c21.018-10.207,40.687-23.354,58.497-39.23    L380.039,401.29z"/>
	</g>
</g>
<g>
	<g>
		<path d="M314.986,437.674c-14.322,4.624-29.085,7.508-43.96,8.672V512c23.82-1.367,47.023-5.98,69.104-13.623L314.986,437.674z"/>
	</g>
</g>
<g>
	<g>
		<path d="M65.553,271.027H0c1.367,23.82,5.98,47.023,13.623,69.104l60.603-25.102C69.646,300.873,66.721,286.128,65.553,271.027z"/>
	</g>
</g>
<g>
	<g>
		<path d="M197.013,437.674l-25.144,60.702c22.08,7.645,45.284,12.256,69.104,13.623v-65.654    C226.098,445.183,211.334,442.298,197.013,437.674z"/>
	</g>
</g>
<g>
	<g>
		<path d="M85.728,342.795l-60.603,25.102c10.207,21.018,23.354,40.687,39.23,58.497l46.353-46.353    C100.856,368.538,92.498,356.043,85.728,342.795z"/>
	</g>
</g>
<g>
	<g>
		<path d="M498.377,171.87l-60.603,25.102c4.58,14.155,7.505,28.901,8.673,44.002H512    C510.633,217.154,506.02,193.951,498.377,171.87z"/>
	</g>
</g>
<g>
	<g>
		<path d="M64.354,85.607c-15.876,17.81-29.023,37.478-39.23,58.497l60.603,25.102c6.771-13.248,15.129-25.743,24.981-37.246    L64.354,85.607z"/>
	</g>
</g>
<g>
	<g>
		<path d="M367.896,25.125l-25.133,60.679c12.14,6.178,23.753,13.731,34.601,22.67l2.46-32.009l56.406-2.877    C415.927,53.52,392.862,37.251,367.896,25.125z"/>
	</g>
</g>
<g>
	<g>
		<path d="M426.272,342.795c-6.771,13.248-15.129,25.743-24.981,37.246l46.353,46.353c15.876-17.81,29.023-37.478,39.23-58.497    L426.272,342.795z"/>
	</g>
</g>
<g>
	<g>
		<path d="M271.026,0v65.655c14.875,1.163,29.638,4.048,43.96,8.672l25.144-60.703C318.051,5.98,294.846,1.368,271.026,0z"/>
	</g>
</g>
<g>
	<g>
		<path d="M461.401,102.397l-53.638,2.736l-2.437,31.707c8.117,10.131,15.122,20.969,20.948,32.366l60.602-25.102    C479.779,129.493,471.268,115.532,461.401,102.397z"/>
	</g>
</g>
<g>
	<g>
		<path d="M171.87,13.624l25.144,60.703c14.322-4.624,29.085-7.508,43.96-8.672V0C217.154,1.368,193.95,5.98,171.87,13.624z"/>
	</g>
</g>
<g>
	<g>
		<path d="M13.624,171.869C5.98,193.95,1.367,217.153,0,240.973h65.553c1.167-15.101,4.092-29.846,8.673-44.002L13.624,171.869z"/>
	</g>
</g>
<g>
</g>
<g>
</g>
<g>
</g>
<g>
</g>
<g>
</g>
<g>
</g>
<g>
</g>
<g>
</g>
<g>
</g>
<g>
</g>
<g>
</g>
<g>
</g>
<g>
</g>
<g>
</g>
<g>
</g>
</svg>
