<?xml version="1.0" encoding="iso-8859-1"?>
<!-- Generator: Adobe Illustrator 19.0.0, SVG Export Plug-In . SVG Version: 6.00 Build 0)  -->
<svg xmlns="http://www.w3.org/2000/svg" xmlns:xlink="http://www.w3.org/1999/xlink" version="1.1" id="Capa_1" x="0px" y="0px" viewBox="0 0 511.999 511.999" style="enable-background:new 0 0 511.999 511.999;" xml:space="preserve">
<g>
	<g>
		<path d="M491.895,84.734c-12.069-12.069-27.97-19.059-44.606-20.024c-0.966-16.635-7.956-32.538-20.023-44.606    c-26.805-26.804-70.422-26.804-97.225,0c-26.237,26.237-26.793,68.58-1.668,95.499l-212.77,212.771    c-12.769-11.928-29.326-18.468-46.887-18.468c-18.364,0-35.627,7.152-48.612,20.136c-26.805,26.805-26.805,70.419,0,97.225    c12.069,12.069,27.97,19.059,44.606,20.023c0.966,16.635,7.956,32.538,20.023,44.606c13.403,13.402,31.008,20.103,48.613,20.103    c17.606,0,35.21-6.702,48.612-20.104c26.237-26.237,26.794-68.578,1.668-95.499l212.768-212.769    c12.769,11.927,29.327,18.468,46.887,18.468c18.364,0,35.627-7.152,48.612-20.136C518.701,155.154,518.701,111.539,491.895,84.734    z"/>
	</g>
</g>
<g>
</g>
<g>
</g>
<g>
</g>
<g>
</g>
<g>
</g>
<g>
</g>
<g>
</g>
<g>
</g>
<g>
</g>
<g>
</g>
<g>
</g>
<g>
</g>
<g>
</g>
<g>
</g>
<g>
</g>
</svg>
