<?xml version="1.0" encoding="iso-8859-1"?>
<!-- Generator: Adobe Illustrator 19.0.0, SVG Export Plug-In . SVG Version: 6.00 Build 0)  -->
<svg xmlns="http://www.w3.org/2000/svg" xmlns:xlink="http://www.w3.org/1999/xlink" version="1.1" id="Capa_1" x="0px" y="0px" viewBox="0 0 511.997 511.997" style="enable-background:new 0 0 511.997 511.997;" xml:space="preserve">
<g>
	<g>
		<rect x="88.323" y="463.012" width="335.346" height="48.985"/>
	</g>
</g>
<g>
	<g>
		<path d="M384.573,150.328c-20.313,0-40.25-6.974-56.138-19.639c-9.115-7.265-16.721-16.25-22.405-26.311H205.967    c-5.684,10.061-13.29,19.046-22.405,26.311c-15.889,12.665-35.826,19.639-56.138,19.639c-0.519,0-1.036-0.011-1.553-0.02v282.704    h260.254V150.309C385.609,150.318,385.092,150.328,384.573,150.328z M189.995,380.713h-30.001V173.396h30.001V380.713z     M243.998,403.867h-30.001V150.242h30.001V403.867z M298,403.867h-30.001V150.242H298V403.867z M352.003,380.713h-30.001V173.396    h30.001V380.713z"/>
	</g>
</g>
<g>
	<g>
		<path d="M384.573,0H127.424C94.25,0,67.261,26.989,67.261,60.164c0,33.174,26.989,60.163,60.164,60.163    c28.28,0,52.065-19.612,58.468-45.95h140.213c6.401,26.339,30.187,45.95,58.468,45.95c33.175,0,60.164-26.989,60.164-60.164    C444.736,26.989,417.747,0,384.573,0z M127.424,82.426c-12.275,0-22.262-9.986-22.262-22.262s9.987-22.262,22.262-22.262    c12.276,0,22.261,9.986,22.261,22.262S139.699,82.426,127.424,82.426z M384.573,82.426c-12.276,0-22.262-9.986-22.262-22.262    s9.986-22.262,22.262-22.262s22.262,9.986,22.262,22.262S396.848,82.426,384.573,82.426z"/>
	</g>
</g>
<g>
</g>
<g>
</g>
<g>
</g>
<g>
</g>
<g>
</g>
<g>
</g>
<g>
</g>
<g>
</g>
<g>
</g>
<g>
</g>
<g>
</g>
<g>
</g>
<g>
</g>
<g>
</g>
<g>
</g>
</svg>
