<?xml version="1.0" encoding="iso-8859-1"?>
<!-- Generator: Adobe Illustrator 19.0.0, SVG Export Plug-In . SVG Version: 6.00 Build 0)  -->
<svg xmlns="http://www.w3.org/2000/svg" xmlns:xlink="http://www.w3.org/1999/xlink" version="1.1" id="Capa_1" x="0px" y="0px" viewBox="0 0 512 512" style="enable-background:new 0 0 512 512;" xml:space="preserve">
<g>
	<g>
		<path d="M383.466,9.653L373.196,0l-10.269,9.654c-2.712,2.549-66.415,63.642-66.415,168.849v59.841l153.37,153.37V178.502    C449.882,73.296,386.177,12.203,383.466,9.653z M379.909,288.387V178.502c0-25.469-5.149-49.959-15.306-72.786l27.399-12.189    c11.873,26.69,17.894,55.28,17.894,84.975v109.885H379.909z"/>
	</g>
</g>
<g>
	<g>
		<path d="M109.606,93.848L73.805,129.65c-17.348,17.348-26.903,40.414-26.903,64.949c0,24.534,9.554,47.6,26.903,64.948    L299.399,485.14c17.906,17.907,41.427,26.86,64.949,26.86s47.043-8.954,64.949-26.86l35.801-35.801L109.606,93.848z     M136.588,213.88c-7.603,7.603-19.93,7.603-27.534,0c-7.604-7.603-7.603-19.93,0-27.534c7.603-7.603,19.93-7.603,27.534,0    C144.191,193.949,144.191,206.277,136.588,213.88z M372.599,449.892c-7.603,7.603-19.93,7.603-27.534,0    c-7.603-7.603-7.603-19.93,0-27.534c7.603-7.603,19.93-7.603,27.534,0C380.202,429.961,380.202,442.288,372.599,449.892z"/>
	</g>
</g>
<g>
</g>
<g>
</g>
<g>
</g>
<g>
</g>
<g>
</g>
<g>
</g>
<g>
</g>
<g>
</g>
<g>
</g>
<g>
</g>
<g>
</g>
<g>
</g>
<g>
</g>
<g>
</g>
<g>
</g>
</svg>
