<?xml version="1.0" encoding="iso-8859-1"?>
<!-- Generator: Adobe Illustrator 19.0.0, SVG Export Plug-In . SVG Version: 6.00 Build 0)  -->
<svg xmlns="http://www.w3.org/2000/svg" xmlns:xlink="http://www.w3.org/1999/xlink" version="1.1" id="Capa_1" x="0px" y="0px" viewBox="0 0 512 512" style="enable-background:new 0 0 512 512;" xml:space="preserve">
<g>
	<g>
		<path d="M453.683,453.683l-34.876,34.876L397.6,467.353l34.876-34.876L412.11,412.11l-34.875,34.876l-21.206-21.206l34.875-34.876    l-20.367-20.367l-34.876,34.875l-21.206-21.206l34.876-34.875l-20.367-20.367l-34.875,34.876l-21.206-21.206l34.875-34.876    L287.39,287.39l-34.876,34.875l-21.206-21.206l34.876-34.875l-20.367-20.367l-34.875,34.876l-21.206-21.206l34.875-34.876    l-20.367-20.367l-34.876,34.875l-21.206-21.206l34.876-34.875l-20.367-20.367l-34.875,34.876l-21.206-21.206l34.875-34.876    l-20.367-20.367l-34.877,34.874l-21.206-21.206l34.876-34.875L79.523,79.523L44.647,114.4L23.442,93.194l34.876-34.876L0,0v512    h512L453.683,453.683z M109.963,402.037V265.475l136.562,136.562H109.963z"/>
	</g>
</g>
<g>
</g>
<g>
</g>
<g>
</g>
<g>
</g>
<g>
</g>
<g>
</g>
<g>
</g>
<g>
</g>
<g>
</g>
<g>
</g>
<g>
</g>
<g>
</g>
<g>
</g>
<g>
</g>
<g>
</g>
</svg>
