<?xml version="1.0" encoding="iso-8859-1"?>
<!-- Generator: Adobe Illustrator 19.0.0, SVG Export Plug-In . SVG Version: 6.00 Build 0)  -->
<svg xmlns="http://www.w3.org/2000/svg" xmlns:xlink="http://www.w3.org/1999/xlink" version="1.1" id="Capa_1" x="0px" y="0px" viewBox="0 0 512 512" style="enable-background:new 0 0 512 512;" xml:space="preserve">
<g>
	<g>
		<path d="M241,214.944V15.026L207.406,0v124.673h-50.589v30.001h50.589v23.374l-78.865,108.539    c-15.637,21.521-24.06,47.44-24.06,74.043c0,76.309,55.931,140.575,129.529,151.372l-2.094-50.138    c-18.498-4.504-35.451-14.204-49.108-28.332c-18.998-19.653-29.462-45.544-29.462-72.902c0-16.389,5.092-32.06,14.726-45.319    L241,214.944z"/>
	</g>
</g>
<g>
	<g>
		<path d="M383.459,286.585l-78.865-108.539v-23.373h50.589v-30.001h-50.589V0L271,15.026v199.918l72.927,100.365    c9.634,13.259,14.726,28.93,14.726,45.319c0,27.358-10.463,53.248-29.462,72.902c-13.657,14.128-30.61,23.828-49.108,28.332    L277.99,512c73.598-10.796,129.529-75.063,129.529-151.372C407.519,334.026,399.096,308.106,383.459,286.585z"/>
	</g>
</g>
<g>
</g>
<g>
</g>
<g>
</g>
<g>
</g>
<g>
</g>
<g>
</g>
<g>
</g>
<g>
</g>
<g>
</g>
<g>
</g>
<g>
</g>
<g>
</g>
<g>
</g>
<g>
</g>
<g>
</g>
</svg>
