<?xml version="1.0" encoding="iso-8859-1"?>
<!-- Generator: Adobe Illustrator 19.0.0, SVG Export Plug-In . SVG Version: 6.00 Build 0)  -->
<svg xmlns="http://www.w3.org/2000/svg" xmlns:xlink="http://www.w3.org/1999/xlink" version="1.1" id="Capa_1" x="0px" y="0px" viewBox="0 0 511.998 511.998" style="enable-background:new 0 0 511.998 511.998;" xml:space="preserve">
<g>
	<g>
		<g>
			<path d="M327.315,343.129v44.35c8.111-0.516,16.031-1.745,23.698-3.627c0.009-0.002,0.018-0.004,0.027-0.007     c6.361-1.563,12.547-3.573,18.523-5.998c0.064-0.026,0.127-0.052,0.191-0.078c1.114-0.454,2.221-0.922,3.32-1.405     c0.086-0.038,0.172-0.075,0.259-0.113c1.136-0.502,2.265-1.017,3.384-1.548c0.012-0.006,0.025-0.012,0.037-0.017     c3.466-1.646,6.851-3.435,10.148-5.358c0.089-0.052,0.178-0.106,0.267-0.158c0.965-0.566,1.923-1.144,2.873-1.733     c0.177-0.11,0.353-0.22,0.529-0.331c0.879-0.551,1.751-1.111,2.616-1.681c0.182-0.12,0.366-0.24,0.548-0.361     c0.908-0.604,1.807-1.219,2.7-1.844c0.112-0.078,0.225-0.155,0.336-0.233c2.052-1.447,4.064-2.948,6.031-4.503     c0.052-0.041,0.103-0.084,0.155-0.125c0.888-0.704,1.766-1.42,2.636-2.146c0.21-0.175,0.418-0.354,0.627-0.53     c0.715-0.604,1.424-1.214,2.126-1.832c0.249-0.219,0.497-0.439,0.744-0.66c0.669-0.598,1.332-1.203,1.99-1.813     c0.241-0.224,0.483-0.447,0.722-0.672c0.701-0.661,1.393-1.33,2.08-2.005c0.175-0.172,0.353-0.342,0.527-0.515     c1.73-1.72,3.415-3.485,5.051-5.295c0.178-0.197,0.351-0.397,0.528-0.595c0.621-0.695,1.237-1.395,1.844-2.103     c0.245-0.285,0.486-0.574,0.728-0.861c0.536-0.636,1.067-1.275,1.592-1.921c0.255-0.313,0.508-0.628,0.76-0.943     c0.516-0.646,1.025-1.298,1.529-1.954c0.234-0.305,0.47-0.608,0.702-0.915c0.555-0.735,1.101-1.477,1.641-2.223     c0.165-0.227,0.333-0.452,0.496-0.68c0.711-0.995,1.412-1.998,2.096-3.013h-88.615     C334.244,327.681,327.315,334.611,327.315,343.129z"/>
			<rect x="327.314" y="387.479" width="0.001" height="0.001"/>
			<rect x="431.379" y="327.677" width="0.003" height="0.003"/>
			<path d="M466.549,236.781h-12.793v-0.001c-0.107-0.972-0.238-1.939-0.365-2.907c-0.077-0.585-0.15-1.171-0.235-1.754     c-0.134-0.924-0.282-1.844-0.435-2.764c-0.104-0.623-0.211-1.246-0.323-1.867c-0.162-0.899-0.33-1.796-0.51-2.691     c-0.128-0.638-0.268-1.273-0.405-1.908c-0.191-0.881-0.378-1.763-0.587-2.64c-0.154-0.649-0.326-1.293-0.49-1.94     c-0.377-1.489-0.779-2.97-1.207-4.444c-0.216-0.745-0.427-1.491-0.656-2.232c-0.233-0.755-0.483-1.505-0.729-2.256     c-0.247-0.754-0.497-1.507-0.758-2.257c-0.252-0.725-0.512-1.448-0.777-2.169c-0.29-0.79-0.59-1.577-0.895-2.362     c-0.261-0.672-0.521-1.344-0.793-2.012c-0.373-0.917-0.764-1.827-1.158-2.736c-0.229-0.528-0.447-1.06-0.682-1.585     c-0.624-1.392-1.273-2.775-1.945-4.147c-0.227-0.464-0.468-0.921-0.701-1.382c-0.487-0.968-0.981-1.932-1.492-2.89     c-0.285-0.533-0.579-1.063-0.871-1.593c-0.492-0.893-0.994-1.781-1.507-2.664c-0.302-0.52-0.606-1.039-0.916-1.556     c-0.559-0.933-1.133-1.858-1.715-2.78c-0.277-0.439-0.548-0.88-0.83-1.316c-0.871-1.345-1.761-2.681-2.683-4.001l-61.11-87.511     c-11.967-17.137-27.343-30.519-45.703-39.777c-17.208-8.676-36.582-13.264-56.029-13.264c-19.445,0-38.82,4.586-56.028,13.264     c-18.36,9.257-33.737,22.641-45.703,39.777l-61.11,87.511c-0.922,1.32-1.812,2.656-2.683,4.001     c-0.282,0.436-0.553,0.877-0.83,1.316c-0.582,0.922-1.156,1.847-1.715,2.78c-0.309,0.517-0.613,1.036-0.916,1.556     c-0.513,0.883-1.015,1.771-1.507,2.664c-0.292,0.53-0.586,1.059-0.871,1.593c-0.512,0.959-1.007,1.925-1.495,2.895     c-0.231,0.459-0.472,0.914-0.698,1.376c-0.672,1.373-1.322,2.756-1.946,4.149c-0.235,0.525-0.454,1.057-0.682,1.585     c-0.394,0.909-0.785,1.819-1.158,2.736c-0.272,0.669-0.532,1.342-0.794,2.015c-0.304,0.784-0.604,1.569-0.893,2.357     c-0.265,0.722-0.525,1.445-0.778,2.172c-0.261,0.75-0.51,1.503-0.758,2.257c-0.247,0.751-0.496,1.501-0.729,2.256     c-0.229,0.741-0.44,1.487-0.656,2.232c-0.428,1.474-0.829,2.956-1.207,4.444c-0.164,0.647-0.336,1.291-0.49,1.94     c-0.208,0.877-0.396,1.759-0.587,2.64c-0.138,0.635-0.277,1.271-0.405,1.908c-0.18,0.894-0.348,1.791-0.51,2.69     c-0.112,0.623-0.22,1.247-0.323,1.871c-0.152,0.918-0.301,1.837-0.434,2.759c-0.085,0.585-0.158,1.173-0.235,1.759     c-0.127,0.967-0.258,1.933-0.365,2.903v0.001H67.84C30.432,236.781,0,267.213,0,304.619v72.271     c0,56.098,45.639,101.736,101.736,101.736h180.129c25.061,0,45.449-20.389,45.449-45.45V387.48     c-2.883,0.183-5.786,0.287-8.714,0.287h-21.286v45.409c0,8.518-6.93,15.449-15.448,15.449h-180.13     c-39.554-0.001-71.734-32.18-71.734-71.735v-72.271c0-20.864,16.974-37.838,37.838-37.838h12.906     c1.169,10.606,3.563,20.849,7.037,30.584c0.005,0.015,0.01,0.03,0.016,0.045c0.335,0.937,0.68,1.869,1.035,2.796     c0.021,0.054,0.041,0.109,0.062,0.163c0.346,0.903,0.703,1.8,1.068,2.693c0.03,0.075,0.061,0.149,0.092,0.224     c0.363,0.882,0.734,1.76,1.114,2.633c0.034,0.077,0.067,0.154,0.101,0.23c0.384,0.877,0.776,1.748,1.177,2.615     c0.028,0.06,0.057,0.121,0.085,0.181c0.412,0.885,0.832,1.766,1.262,2.642c0.012,0.024,0.024,0.047,0.035,0.071     c3.602,7.314,7.841,14.259,12.647,20.763c0.021,0.029,0.042,0.058,0.064,0.087c0.541,0.731,1.092,1.455,1.647,2.176     c0.084,0.11,0.168,0.22,0.253,0.329c0.519,0.669,1.046,1.331,1.577,1.99c0.127,0.157,0.253,0.316,0.381,0.472     c0.51,0.627,1.027,1.249,1.549,1.867c0.152,0.18,0.304,0.36,0.457,0.54c0.51,0.598,1.025,1.191,1.545,1.78     c0.17,0.193,0.341,0.385,0.512,0.577c0.514,0.576,1.032,1.147,1.555,1.714c0.182,0.197,0.366,0.393,0.549,0.59     c0.522,0.559,1.048,1.114,1.579,1.664c0.188,0.195,0.378,0.388,0.568,0.581c0.535,0.548,1.073,1.092,1.618,1.631     c0.186,0.184,0.375,0.366,0.563,0.549c0.556,0.544,1.114,1.085,1.679,1.619c0.169,0.16,0.341,0.316,0.51,0.475     c0.592,0.553,1.185,1.105,1.787,1.648c0.113,0.102,0.228,0.201,0.341,0.302c2.854,2.559,5.815,5.001,8.878,7.315     c0.083,0.062,0.163,0.127,0.246,0.189c0.599,0.451,1.206,0.892,1.813,1.333c0.247,0.179,0.491,0.361,0.738,0.539     c0.551,0.394,1.107,0.78,1.664,1.167c0.311,0.216,0.621,0.434,0.934,0.648c0.529,0.361,1.063,0.714,1.597,1.067     c0.347,0.23,0.693,0.46,1.042,0.687c0.518,0.336,1.039,0.665,1.562,0.994c0.374,0.236,0.748,0.471,1.125,0.703     c0.51,0.314,1.023,0.623,1.538,0.931c0.395,0.236,0.791,0.471,1.189,0.704c0.506,0.296,1.015,0.588,1.526,0.877     c0.414,0.235,0.829,0.467,1.246,0.697c0.503,0.278,1.007,0.554,1.514,0.826c0.432,0.232,0.865,0.459,1.299,0.686     c0.501,0.262,1.002,0.523,1.507,0.778c0.447,0.226,0.896,0.448,1.345,0.67c0.5,0.246,0.999,0.493,1.502,0.733     c0.462,0.221,0.928,0.436,1.393,0.651c0.497,0.231,0.994,0.463,1.494,0.688c0.481,0.216,0.966,0.425,1.45,0.635     c0.491,0.214,0.981,0.431,1.476,0.639c0.512,0.216,1.029,0.423,1.544,0.632c0.472,0.192,0.941,0.388,1.415,0.574     c0.607,0.239,1.219,0.467,1.831,0.697c0.534,0.201,1.068,0.403,1.605,0.597c0.843,0.306,1.688,0.607,2.538,0.896     c0.412,0.14,0.828,0.271,1.241,0.407c0.61,0.201,1.219,0.404,1.833,0.596c0.449,0.141,0.902,0.273,1.353,0.409     c0.583,0.176,1.166,0.354,1.752,0.522c0.467,0.134,0.938,0.261,1.407,0.39c0.576,0.159,1.151,0.318,1.73,0.469     c0.477,0.125,0.956,0.243,1.435,0.362c0.576,0.144,1.153,0.287,1.732,0.424c0.484,0.114,0.97,0.223,1.456,0.331     c0.58,0.13,1.16,0.258,1.742,0.38c0.489,0.103,0.98,0.201,1.471,0.299c0.583,0.116,1.167,0.229,1.753,0.337     c0.493,0.091,0.988,0.18,1.483,0.265c0.59,0.102,1.182,0.2,1.775,0.295c0.494,0.079,0.989,0.156,1.485,0.23     c0.6,0.089,1.202,0.172,1.805,0.253c0.491,0.066,0.982,0.132,1.475,0.193c0.615,0.076,1.233,0.145,1.851,0.212     c0.485,0.053,0.97,0.108,1.457,0.156c0.636,0.063,1.274,0.117,1.912,0.17c0.471,0.04,0.942,0.083,1.415,0.117     c0.672,0.05,1.346,0.089,2.021,0.128c0.444,0.026,0.886,0.057,1.331,0.079c0.747,0.037,1.497,0.061,2.246,0.086     c0.375,0.012,0.749,0.031,1.125,0.04c1.127,0.028,2.257,0.043,3.39,0.043h81.412v-44.638c0-25.061,20.389-45.45,45.45-45.45     h103.844c0-0.001,0-0.001,0.001-0.002c0.426-1.184,0.834-2.376,1.227-3.575c0.033-0.1,0.065-0.2,0.098-0.3     c0.372-1.141,0.729-2.289,1.071-3.443c0.024-0.083,0.049-0.165,0.074-0.247c1.474-5.007,2.666-10.133,3.559-15.361     c0-0.001,0-0.003,0.001-0.004c0.219-1.286,0.42-2.578,0.603-3.875c0.008-0.059,0.016-0.118,0.025-0.177     c0.182-1.299,0.346-2.603,0.49-3.914h12.795c8.519,0,15.449,6.93,15.449,15.449c0,8.518-6.931,15.456-15.451,15.456h-19.943     c-3.84,10.677-8.974,20.743-15.223,29.998h35.165c25.062,0,45.45-20.389,45.45-45.45     C511.998,257.167,491.611,236.781,466.549,236.781z M188.828,140.886h156.843v30.001H188.828V140.886z M215.898,347.766     c-52.925,0-95.983-43.059-95.983-95.984h30.001c0,36.383,29.6,65.983,65.982,65.983V347.766z M336.402,276.249H198.097v-30.001     h138.305V276.249z M361.817,223.569H172.682v-30.001h189.135V223.569z"/>
		</g>
	</g>
</g>
<g>
</g>
<g>
</g>
<g>
</g>
<g>
</g>
<g>
</g>
<g>
</g>
<g>
</g>
<g>
</g>
<g>
</g>
<g>
</g>
<g>
</g>
<g>
</g>
<g>
</g>
<g>
</g>
<g>
</g>
</svg>
