<?xml version="1.0" encoding="iso-8859-1"?>
<!-- Generator: Adobe Illustrator 19.0.0, SVG Export Plug-In . SVG Version: 6.00 Build 0)  -->
<svg xmlns="http://www.w3.org/2000/svg" xmlns:xlink="http://www.w3.org/1999/xlink" version="1.1" id="Capa_1" x="0px" y="0px" viewBox="0 0 512 512" style="enable-background:new 0 0 512 512;" xml:space="preserve">
<g>
	<g>
		<path d="M384.348,0v30.001h76.438l-11.995,11.995h-106.44v30.001h76.438l-11.995,11.995H300.355v30.001h76.438l-11.995,11.995    H258.359v30.001h76.438l-11.995,11.995H216.363v30.001h76.438L86.405,404.381c-8.468-4.891-18.28-7.706-28.742-7.706    C25.868,396.675,0,422.542,0,454.337C0,486.132,25.867,512,57.663,512c31.795,0,57.663-25.867,57.663-57.663    c0-10.462-2.815-20.274-7.706-28.742l206.396-206.396v76.437h30.001V189.199l11.995-11.995v76.437h30.001V147.202l11.995-11.995    v76.437h30.001V105.206l11.995-11.995v76.438h30.001V63.21l11.995-11.995v76.438H512V0H384.348z"/>
	</g>
</g>
<g>
</g>
<g>
</g>
<g>
</g>
<g>
</g>
<g>
</g>
<g>
</g>
<g>
</g>
<g>
</g>
<g>
</g>
<g>
</g>
<g>
</g>
<g>
</g>
<g>
</g>
<g>
</g>
<g>
</g>
</svg>
