<?xml version="1.0" encoding="iso-8859-1"?>
<!-- Generator: Adobe Illustrator 19.0.0, SVG Export Plug-In . SVG Version: 6.00 Build 0)  -->
<svg xmlns="http://www.w3.org/2000/svg" xmlns:xlink="http://www.w3.org/1999/xlink" version="1.1" id="Capa_1" x="0px" y="0px" viewBox="0 0 511.996 511.996" style="enable-background:new 0 0 511.996 511.996;" xml:space="preserve">
<g>
	<g>
		
			<rect x="-4.08" y="359.773" transform="matrix(0.7071 -0.7071 0.7071 0.7071 -251.5132 195.7222)" width="229.162" height="83.382"/>
	</g>
</g>
<g>
	<g>
		<path d="M470.655,41.305c-55.033-55.034-144.576-55.031-199.609,0L91.718,220.632l70.324,70.325l98.153-98.153    c16.255-16.256,42.705-16.256,58.96,0c16.256,16.255,16.256,42.705,0,58.96l-98.153,98.153l70.324,70.325l179.329-179.33    c26.659-26.659,41.34-62.104,41.341-99.804C511.997,103.407,497.314,67.962,470.655,41.305z M442.39,212.648l-21.199-21.199    c13.447-13.447,20.852-31.325,20.852-50.341c0.001-19.016-7.405-36.894-20.852-50.34l21.199-21.2    c19.109,19.109,29.633,44.516,29.633,71.539S461.499,193.539,442.39,212.648z"/>
	</g>
</g>
<g>
</g>
<g>
</g>
<g>
</g>
<g>
</g>
<g>
</g>
<g>
</g>
<g>
</g>
<g>
</g>
<g>
</g>
<g>
</g>
<g>
</g>
<g>
</g>
<g>
</g>
<g>
</g>
<g>
</g>
</svg>
