<?xml version="1.0" encoding="iso-8859-1"?>
<!-- Generator: Adobe Illustrator 19.0.0, SVG Export Plug-In . SVG Version: 6.00 Build 0)  -->
<svg xmlns="http://www.w3.org/2000/svg" xmlns:xlink="http://www.w3.org/1999/xlink" version="1.1" id="Capa_1" x="0px" y="0px" viewBox="0 0 512 512" style="enable-background:new 0 0 512 512;" xml:space="preserve">
<g>
	<g>
		<path d="M338.954,376.425c13.911,5.058,28.795,7.771,44.1,7.771C454.155,384.196,512,326.351,512,255.25v-51.872L338.954,376.425z    "/>
	</g>
</g>
<g>
	<g>
		<path d="M255.999,127.803c-11.487,0-22.528,0.145-33.161,0.407L22.748,328.299c5.859,8.491,12.708,16.247,20.379,23.102    L266.68,127.849C263.157,127.822,259.607,127.803,255.999,127.803z"/>
	</g>
</g>
<g>
	<g>
		<path d="M502.597,158.911c-0.976-0.393-8.934-3.517-24.394-7.644L287.557,341.913c6.966,7.678,14.797,14.441,23.297,20.184    l199.903-199.903L502.597,158.911z"/>
	</g>
</g>
<g>
	<g>
		<path d="M9.403,158.912L0,162.694v92.557c0,15.893,2.897,31.119,8.179,45.19l170.338-170.338    C64.923,137.12,12.026,157.857,9.403,158.912z"/>
	</g>
</g>
<g>
	<g>
		<path d="M308.139,128.818L68.065,368.892c18.144,9.759,38.876,15.305,60.881,15.305c47.486,0,90.999-25.985,113.558-67.815    c2.673-4.955,7.688-8.034,13.089-8.034h0.813c5.4,0,10.416,3.079,13.089,8.034c0.136,0.252,0.282,0.496,0.419,0.747    L443.63,143.413C412.031,137.297,367.265,131.177,308.139,128.818z"/>
	</g>
</g>
<g>
</g>
<g>
</g>
<g>
</g>
<g>
</g>
<g>
</g>
<g>
</g>
<g>
</g>
<g>
</g>
<g>
</g>
<g>
</g>
<g>
</g>
<g>
</g>
<g>
</g>
<g>
</g>
<g>
</g>
</svg>
