<?xml version="1.0" encoding="iso-8859-1"?>
<!-- Generator: Adobe Illustrator 19.0.0, SVG Export Plug-In . SVG Version: 6.00 Build 0)  -->
<svg xmlns="http://www.w3.org/2000/svg" xmlns:xlink="http://www.w3.org/1999/xlink" version="1.1" id="Capa_1" x="0px" y="0px" viewBox="0 0 512 512" style="enable-background:new 0 0 512 512;" xml:space="preserve">
<g>
	<g>
		<rect x="200.99" y="79.81" width="110.02" height="30"/>
	</g>
</g>
<g>
	<g>
		<path d="M281.981,177.79h118.105V11.841H141.914V0h-30v11.841v47.07h-5.904c-19.798,0-35.904,16.106-35.904,35.904    c0,19.798,16.106,35.904,35.904,35.904h5.904v47.07v11.841h30v-11.84h88.105L45.857,496.768l25.98,15l92.014-159.373H241V512h30    V352.395h77.148l92.014,159.373l25.98-15L281.981,177.79z M241,322.395h-59.828v0L241,218.77V322.395z M171.922,133.63V56h168.156    v77.63H171.922z M271,322.395L271,322.395V218.77l59.828,103.625H271z"/>
	</g>
</g>
<g>
</g>
<g>
</g>
<g>
</g>
<g>
</g>
<g>
</g>
<g>
</g>
<g>
</g>
<g>
</g>
<g>
</g>
<g>
</g>
<g>
</g>
<g>
</g>
<g>
</g>
<g>
</g>
<g>
</g>
</svg>
