<?xml version="1.0" encoding="iso-8859-1"?>
<!-- Generator: Adobe Illustrator 19.0.0, SVG Export Plug-In . SVG Version: 6.00 Build 0)  -->
<svg version="1.1" id="Layer_1" xmlns="http://www.w3.org/2000/svg" xmlns:xlink="http://www.w3.org/1999/xlink" x="0px" y="0px"
	 viewBox="0 0 512.001 512.001" style="enable-background:new 0 0 512.001 512.001;" xml:space="preserve">
<g>
	<g>
		<circle cx="107.188" cy="43.34" r="43.34"/>
	</g>
</g>
<g>
	<g>
		<path d="M205.529,329.395v-24.17c4.821-3.854,7.522-9.784,7.489-16.436V135.158c-0.135-27.15-22.721-49.24-49.873-49.24h-6.63
			c-11.967,13.845-29.634,22.632-49.327,22.632c-19.049,0-36.98-8.347-49.327-22.632h-6.983c-27.15,0-49.737,22.09-49.874,49.24
			V288.79c-0.058,11.549,8.871,20.959,20.421,21.017c0.036,0,0.07,0,0.107,0c11.501,0,21.237-9.294,21.296-20.807V135.367
			c0.011-2.227,2.208-4.023,4.435-4.017c2.226,0.006,4.027,1.812,4.027,4.039c0.001,49.838,0.01,324.768,0.01,351.518
			c0,13.859,11.234,25.095,25.095,25.095c13.86,0,25.095-11.235,25.095-25.095V286.324h10.835v200.582
			c0,13.859,11.234,25.095,25.095,25.095s25.094-11.235,25.094-25.095c0-327.539-0.444-147.944-0.455-351.484
			c0-2.406,1.942-4.361,4.348-4.376c2.406-0.016,4.631,1.914,4.661,4.32c0,0.001,0,0.001,0,0.002V289
			c0.037,7.361,4.398,13.801,10.165,17.499v22.881h-1.473c-5.044,0-9.134,4.089-9.134,9.134v83.783c0,5.044,4.089,9.134,9.134,9.134
			h25.468c5.044,0,9.134-4.089,9.134-9.134v-83.783C214.359,333.572,210.432,329.557,205.529,329.395z"/>
	</g>
</g>
<g>
	<g>
		<path d="M373.293,364.08l15.482-46.21c-12.116,4.5-25.737,3.097-36.785-4.302c-4.331-2.9-7.914-6.499-10.723-10.541
			l-16.701,49.846c-1.018,3.039-1.439,6.245-1.241,9.444l7.833,126.31c0.843,13.6,12.518,24.132,26.374,23.294
			c13.716-0.851,24.144-12.658,23.294-26.374L373.293,364.08z"/>
	</g>
</g>
<g>
	<g>
		<path d="M377.727,49.949c-4.696-24.832-28.636-41.162-53.472-36.463c-24.835,4.697-41.161,28.637-36.463,53.473
			c4.696,24.833,28.637,41.162,53.472,36.463C366.099,98.725,382.424,74.785,377.727,49.949z"/>
	</g>
</g>
<g>
	<g>
		<path d="M473.148,256.31c2.698-6.204,31.465-72.365,36.132-83.099c3.772-8.675,1.183-18.804-6.29-24.605l-81.015-62.883
			c-7.815-6.064-18.599-5.642-25.907,0.433c-10.12,23.035-31.919,38.99-57.474,41.179c0.094,3.135-1.02-4.824,16.587,108.418
			l21.328-31.852l-9.525-68.046l30.292,72.809l-39.905,59.598c-6.64,9.916-3.6,23.611,7.09,29.622
			c9.265,5.205,21.275,2.553,27.368-6.549l46.091-68.834c3.869-5.778,4.578-13.098,1.915-19.502l-33.45-80.4
			c8.717,12.084,35.575,49.319,46.151,63.982l-5.886-29.3l18.257,14.171l-8.765,20.158c5.469,7.832,8.903,26.159-1.681,41.966
			c-27.985,41.794-8.735,13.045-39.437,58.899c-0.552,10.107-3.308,60.572-3.873,70.912c-0.141,2.566,0.116,5.136,0.764,7.621
			l31.824,122.343c3.46,13.301,17.047,21.276,30.345,17.817c13.3-3.46,21.275-17.046,17.817-30.345L461.049,362.23l5.324-97.462
			C469.248,262.671,471.626,259.811,473.148,256.31z"/>
	</g>
</g>
<g>
</g>
<g>
</g>
<g>
</g>
<g>
</g>
<g>
</g>
<g>
</g>
<g>
</g>
<g>
</g>
<g>
</g>
<g>
</g>
<g>
</g>
<g>
</g>
<g>
</g>
<g>
</g>
<g>
</g>
</svg>
