<?xml version="1.0" encoding="iso-8859-1"?>
<!-- Generator: Adobe Illustrator 19.0.0, SVG Export Plug-In . SVG Version: 6.00 Build 0)  -->
<svg version="1.1" id="Layer_1" xmlns="http://www.w3.org/2000/svg" xmlns:xlink="http://www.w3.org/1999/xlink" x="0px" y="0px"
	 viewBox="0 0 512 512" style="enable-background:new 0 0 512 512;" xml:space="preserve">
<g>
	<g>
		<path d="M120.53,9.703c-22.564,0-40.855,18.292-40.855,40.855c-0.001,17.196,10.629,31.901,25.673,37.928
			c10.489-10.203,26.705-13.164,40.577-5.938c9.416-7.484,15.46-19.028,15.46-31.991C161.385,27.994,143.093,9.703,120.53,9.703z"/>
	</g>
</g>
<g>
	<g>
		<path d="M172.251,263.635l-28.764,12.304c-21.255,9.093-45.407-4.614-48.411-27.632c-10.122,1.042-19.985-2.367-27.239-9.04
			l0.01,249.076c0,13.065,10.59,23.655,23.654,23.655c13.065,0,23.654-10.59,23.654-23.655V298.14h10.215v97.951
			c4.445-16.624,19.631-28.906,37.637-28.906h9.672C172.679,291.839,172.251,263.635,172.251,263.635z"/>
	</g>
</g>
<g>
	<g>
		<path d="M254.453,8.293c-0.401-1.342-1.655-2.247-3.055-2.205c-1.4,0.042-2.597,1.021-2.917,2.384
			c-0.965,4.105-2.658,8.61-6.065,13.032c-12.769,13.28-21.481,11.324-37.647,19.777c-10.331,6.477-18.521,16.584-18.133,29.163
			L151.414,86.09l-18.135,8.056c-9.162-1.683-18.507,3.325-21.954,12.34l-26.308,68.81c-7.106-8.649-13.865-17.146-18.338-23.306
			c-0.457-0.629-0.529-1.46-0.187-2.159s1.042-1.152,1.82-1.177c2.103-0.066,5.828-0.002,13.228-0.002l14.712-39.425
			c-11.093,0-17.254,0-28.5,0c-28.433,0-50.832,26.404-40.742,53.412c4.059,10.855,41.906,54.953,49.601,63.82
			c9.719,11.205,27.979,8.044,33.3-5.878l38.238-100.015c1.675-4.381,1.675-8.987,0.328-13.125l13.975-6.208l32.11-14.264
			c4.622-2.054,6.705-7.466,4.653-12.09c-1.287-2.896-3.892-4.796-6.796-5.305c10.785-15.464,26.822-15.095,41.066-21.448
			c13.585-7.177,18.386-14.292,21.187-23.181C256.051,19.411,256.05,13.634,254.453,8.293z"/>
	</g>
</g>
<g>
	<g>
		<path d="M219.927,155.619c0-0.011-0.001-0.021-0.002-0.031c-0.16-25.567-21.072-46.358-46.646-46.358h-8.846
			c0.686,5.5,0.077,11.243-2.04,16.78c-3.067,8.023-25.223,65.975-30.076,78.667l39.935-17.083v-31.623
			c0-2.258,1.816-4.097,4.074-4.125c2.258-0.028,4.121,1.764,4.177,4.024c0.101,15.795,0.18,28.371,0.283,44.655
			c-4.678,2.001-51.653,22.095-58.798,25.152c-10.637,4.55-14.979,17.151-9.725,27.244c4.715,9.059,15.691,13.085,25.23,9.005
			l70.842-30.304c7.297-3.121,12.01-10.313,11.96-18.25C220.06,176.597,220.161,192.405,219.927,155.619z"/>
	</g>
</g>
<g>
	<g>
		<path d="M487.26,145.59c-0.133-26.398-21.892-47.876-48.291-47.876h-13.013c-2.907,24.654-1.858,15.76-3.87,32.827
			c-0.952,8.071-7.792,14.153-15.92,14.153h-32.402c-5.762,0-10.865-3.066-13.694-7.722l-29.546,23.457
			c0,0,0.01,302.739,0.01,327.172c0,13.475,10.923,24.4,24.4,24.4c13.476,0,24.4-10.924,24.4-24.4V292.571h10.537V487.6
			c0,13.475,10.923,24.4,24.4,24.4s24.4-10.924,24.4-24.4c0-322.672-0.432-137.928-0.442-341.783c0-2.259,1.828-4.092,4.087-4.098
			c2.259-0.007,4.214,1.816,4.226,4.075v0.002c0.035,6.83,0,55.24,0,146.776c0,11.229,9.333,20.334,20.563,20.334
			c11.229,0,20.159-9.103,20.159-20.334C487.26,196.609,487.683,230.137,487.26,145.59z"/>
	</g>
</g>
<g>
	<g>
		<path d="M384.595,0c-23.273,0-42.141,18.866-42.141,42.141c0,5.064,0.895,9.918,2.532,14.416c4.597-0.167,9.199,0.45,13.591,1.838
			c2.525-1.582,5.461-2.463,8.502-2.463h45.772c3.716,0,7.275,1.308,10.115,3.624c2.413-5.31,3.77-11.203,3.77-17.415
			C426.736,18.866,407.869,0,384.595,0z"/>
	</g>
</g>
<g>
	<g>
		<path d="M378.027,71.963c4.611,5.789,7.985,13.876,8.445,22.492c0.001,0,0.003,0,0.005,0c0.615,11.655-3.854,23.409-13.004,31.742
			l0.291,2.466h32.402l4.034-34.208l2.651-22.492C409.291,71.963,381.454,71.963,378.027,71.963z"/>
	</g>
</g>
<g>
	<g>
		<path d="M362.392,83.958c-6.981-8.794-19.77-10.265-28.567-3.282l-71.586,56.834c-8.795,6.981-10.264,19.771-3.282,28.567
			c6.985,8.796,19.775,10.262,28.567,3.282l71.586-56.834C367.905,105.543,369.375,92.752,362.392,83.958z"/>
	</g>
</g>
<g>
	<g>
		<path d="M285.915,392.642h-23.529c0-19.281,0.223-19.56-0.753-22.9c-2.251-7.708-9.371-13.36-17.796-13.36h-37.972
			c-8.426,0-15.545,5.653-17.796,13.36c-0.975,3.34-0.753,3.586-0.753,22.9h-24.309c-8.87,0-16.059,7.19-16.059,16.059v87.239
			c0,8.87,7.19,16.059,16.059,16.059h122.91c8.87,0,16.059-7.19,16.059-16.059v-87.239
			C301.974,399.833,294.785,392.642,285.915,392.642z M243.476,392.642h-37.25v-17.35h37.25V392.642z"/>
	</g>
</g>
<g>
</g>
<g>
</g>
<g>
</g>
<g>
</g>
<g>
</g>
<g>
</g>
<g>
</g>
<g>
</g>
<g>
</g>
<g>
</g>
<g>
</g>
<g>
</g>
<g>
</g>
<g>
</g>
<g>
</g>
</svg>
