<?xml version="1.0" encoding="iso-8859-1"?>
<!-- Generator: Adobe Illustrator 19.0.0, SVG Export Plug-In . SVG Version: 6.00 Build 0)  -->
<svg version="1.1" id="Layer_1" xmlns="http://www.w3.org/2000/svg" xmlns:xlink="http://www.w3.org/1999/xlink" x="0px" y="0px"
	 viewBox="0 0 512 512" style="enable-background:new 0 0 512 512;" xml:space="preserve">
<g>
	<g>
		<path d="M171.803,97.005h-6.457c-5.647,6.532-12.588,11.916-20.437,15.721c-2.779,7.26-16.445,42.964-19.232,50.243l5.953-28.043
			c0.418-1.969,0.115-4.023-0.855-5.787l-5.812-10.57c-2.514,0.304-5.068,0.479-7.662,0.479c-2.595,0-5.148-0.175-7.663-0.479
			l-5.842,10.624c-0.951,1.731-1.263,3.741-0.878,5.678l5.205,28.096c-3.829-9.82-15.444-41.486-18.965-50.516
			c-7.628-3.787-14.386-9.064-19.903-15.447h-6.8c-26.445,0-48.443,21.514-48.577,47.96v149.635
			c-0.057,11.249,8.641,20.414,19.89,20.47c0.035,0,0.07,0,0.105,0c11.201,0,20.685-9.052,20.742-20.265V145.169
			c0.011-2.17,2.151-3.919,4.319-3.914c2.167,0.006,3.922,1.765,3.922,3.933l0.01,342.37c0,13.498,10.943,24.441,24.441,24.441
			c13.498,0,24.441-10.943,24.441-24.441V292.197h10.553v195.362c0,13.498,10.943,24.441,24.441,24.441s24.441-10.943,24.441-24.441
			c0-284.944-0.433-148.386-0.443-342.824c0-2.356,1.909-4.265,4.265-4.265c2.356,0,4.512,1.909,4.513,4.264
			c0,0.143,0.003,0.288,0,0.435v149.635c0.057,11.214,9.663,20.265,20.865,20.265c0.033,0,0.07,0,0.105,0
			c11.249-0.057,19.947-9.221,19.89-20.47V144.964C220.246,118.519,198.248,97.005,171.803,97.005z"/>
	</g>
</g>
<g>
	<g>
		<circle cx="117.305" cy="55.537" r="42.213"/>
	</g>
</g>
<g>
	<g>
		<circle cx="368.921" cy="42.14" r="42.14"/>
	</g>
</g>
<g>
	<g>
		<path d="M494.442,173.631l-43.013-61.414c-6.325-9.032-16.685-14.431-27.716-14.443l-21.242-0.019l-25.189,65.808l5.943-27.995
			c0.418-1.966,0.115-4.016-0.854-5.777l-8.161-14.842l7.255-13.195c1.08-1.965-0.344-4.377-2.589-4.377h-19.913
			c-2.242,0-3.67,2.41-2.588,4.377l7.255,13.195l-8.191,14.898c-0.95,1.727-1.26,3.736-0.877,5.669l5.196,28.047L334.83,97.755
			l-21.114,0.019c-11.024,0.011-21.384,5.409-27.712,14.441l-43.015,61.415c-3.945,5.634-4.776,12.879-2.206,19.259l25.2,62.586
			c4.799,11.919,19.362,16.494,30.14,9.327l18.447,26.399v1.37h0.009V487.6c0,13.476,10.925,24.4,24.4,24.4
			c13.475,0,24.4-10.925,24.4-24.4V292.571h10.534V487.6c0,13.476,10.925,24.4,24.4,24.4c13.475,0,24.4-10.925,24.4-24.4V292.571
			c0-0.373-0.011-0.744-0.028-1.114l18.626-26.656c10.771,7.164,25.339,2.597,30.139-9.327l25.199-62.586
			C499.218,186.51,498.387,179.263,494.442,173.631z M314.57,259.337L314.57,259.337l-10.796-4.085
			c1.812-4.651,1.945-9.967-0.067-14.964l-21.082-52.359l31.945-45.609V259.337z M433.726,240.287
			c-2.012,4.995-1.879,10.313-0.067,14.964l-11.39,4.31V141.471l32.538,46.456L433.726,240.287z"/>
	</g>
</g>
<g>
</g>
<g>
</g>
<g>
</g>
<g>
</g>
<g>
</g>
<g>
</g>
<g>
</g>
<g>
</g>
<g>
</g>
<g>
</g>
<g>
</g>
<g>
</g>
<g>
</g>
<g>
</g>
<g>
</g>
</svg>
