<?xml version="1.0" encoding="iso-8859-1"?>
<!-- Generator: Adobe Illustrator 19.0.0, SVG Export Plug-In . SVG Version: 6.00 Build 0)  -->
<svg version="1.1" id="Layer_1" xmlns="http://www.w3.org/2000/svg" xmlns:xlink="http://www.w3.org/1999/xlink" x="0px" y="0px"
	 viewBox="0 0 511.999 511.999" style="enable-background:new 0 0 511.999 511.999;" xml:space="preserve">
<g>
	<g>
		<path d="M180.763,79.717c-1.256-20.102-17.948-36.018-38.367-36.018c-21.235,0-38.45,17.215-38.45,38.45
			s17.216,38.45,38.452,38.45c6.322,0,12.282-1.535,17.543-4.239c12.411-6.378,20.907-19.298,20.907-34.212
			C180.848,81.331,180.814,80.521,180.763,79.717z"/>
	</g>
</g>
<g>
	<g>
		<path d="M415.944,79.717c-1.256-20.102-17.948-36.018-38.367-36.018c-21.235,0-38.45,17.215-38.45,38.45
			s17.216,38.45,38.452,38.45c6.322,0,12.282-1.535,17.543-4.239c12.411-6.378,20.907-19.298,20.907-34.212
			C416.029,81.331,415.994,80.521,415.944,79.717z"/>
	</g>
</g>
<g>
	<g>
		<path d="M502.61,3.559c-8.908-5.063-20.234-1.944-25.297,6.965l-68.763,121.011h0.163c-11.694,30.552-12.636,33.01-23.505,61.407
			l5.423-25.543c0.38-1.794,0.105-3.664-0.779-5.271l-7.447-13.543l6.62-12.04c0.985-1.793-0.313-3.993-2.362-3.993h-18.17
			c-2.046,0-3.348,2.198-2.362,3.993l6.62,12.04l-7.473,13.593c-0.867,1.577-1.15,3.408-0.8,5.173l4.741,25.592
			c-7.969-22.595-3.576-10.882-20.078-53.205l-0.18,0.031L274.714,28.218c4.57-8.806,1.415-19.716-7.286-24.66
			c-8.908-5.063-20.234-1.944-25.297,6.965l-68.763,121.01h0.163c-11.694,30.552-12.635,33.01-23.505,61.407l5.423-25.543
			c0.38-1.794,0.105-3.664-0.779-5.271l-7.447-13.543l6.62-12.04c0.986-1.793-0.314-3.993-2.362-3.993h-18.169
			c-2.045,0-3.348,2.198-2.362,3.993l6.62,12.04l-7.473,13.593c-0.867,1.577-1.15,3.408-0.8,5.173l4.741,25.592
			c-7.969-22.595-3.575-10.882-20.078-53.205l-0.18,0.031L34,19.904c-5.677-8.53-17.194-10.842-25.724-5.164
			c-8.531,5.677-10.843,17.195-5.165,25.724l89.695,135.813l0.009,312.327c0,12.296,9.968,22.263,22.263,22.263
			c12.295,0,22.263-9.967,22.263-22.263V310.652h9.612v177.953c0,12.296,9.968,22.263,22.263,22.263
			c12.295,0,22.061-9.967,22.061-22.263c0-60.619,0-254.144,0-314.776l62.776-109.497l73.932,111.946l0.009,312.327
			c0,12.296,9.968,22.263,22.263,22.263c12.295,0,22.263-9.967,22.263-22.263V310.652h9.612v177.953
			c0,12.296,9.968,22.263,22.263,22.263s22.061-9.967,22.061-22.263c0-60.619,0-254.144,0-314.776l83.116-144.974
			C514.637,19.946,511.518,8.62,502.61,3.559z"/>
	</g>
</g>
<g>
</g>
<g>
</g>
<g>
</g>
<g>
</g>
<g>
</g>
<g>
</g>
<g>
</g>
<g>
</g>
<g>
</g>
<g>
</g>
<g>
</g>
<g>
</g>
<g>
</g>
<g>
</g>
<g>
</g>
</svg>
