<?xml version="1.0" encoding="iso-8859-1"?>
<!-- Generator: Adobe Illustrator 19.0.0, SVG Export Plug-In . SVG Version: 6.00 Build 0)  -->
<svg version="1.1" id="Layer_1" xmlns="http://www.w3.org/2000/svg" xmlns:xlink="http://www.w3.org/1999/xlink" x="0px" y="0px"
	 viewBox="0 0 512.001 512.001" style="enable-background:new 0 0 512.001 512.001;" xml:space="preserve">
<g>
	<g>
		<path d="M366.146,329.494c-7.137,7.137-17.032,10.578-27.237,9.284v148.823c0,13.476,10.923,24.399,24.399,24.399
			c13.476,0,24.399-10.923,24.399-24.399V307.933L366.146,329.494z"/>
	</g>
</g>
<g>
	<g>
		<path d="M358.69,97.715h-20.406c-24.872,0-45.462,19.065-47.875,43.347c-0.336,3.381-0.181-7.74-0.993,153.908
			c-0.057,11.23,9.001,20.379,20.231,20.435c0.035,0,0.069,0,0.105,0c11.181,0,20.274-9.037,20.33-20.231l0.75-149.38
			c0.011-2.226,1.821-4.02,4.045-4.014c2.224,0.006,4.023,1.811,4.023,4.034v1.837c1.868,1.943,3.536,4.075,4.977,6.366
			c11.101-7.301,25.802-7.143,36.802,0.724C378.074,147.989,361.288,104.453,358.69,97.715z"/>
	</g>
</g>
<g>
	<g>
		<path d="M446.599,272.51c-36.825,12.145-33.828,11.17-34.978,11.51c-4.931,4.931-8.311,8.311-13.378,13.378v190.204
			c0,13.476,10.923,24.399,24.399,24.399c13.476,0,24.399-10.923,24.399-24.399C447.042,278.163,446.599,272.651,446.599,272.51z"/>
	</g>
</g>
<g>
	<g>
		<circle cx="392.975" cy="42.141" r="42.141"/>
	</g>
</g>
<g>
	<g>
		<path d="M387.364,206.406l10.351-3.414l-28.817-28.817c-3.946-3.945-10.342-3.946-14.288,0l-4.716,4.716l-0.727,116.429
			c-0.049,7.821-2.382,15.088-6.348,21.194c0.086,0.002,0.172,0.012,0.258,0.012c2.585,0,5.172-0.987,7.144-2.96l32.021-32.021
			c-9.495-4.644-17.189-12.951-20.76-23.782C354.446,236.432,366.034,213.44,387.364,206.406z"/>
	</g>
</g>
<g>
	<g>
		<path d="M495.776,145.59c-0.133-26.399-21.719-47.877-48.118-47.877h-20.004c-3.143,8.149-23.073,59.84-26.065,67.598
			l6.073-28.669c0.422-1.99,0.115-4.065-0.865-5.846l-8.266-15.035l7.335-13.34c1.094-1.989-0.347-4.43-2.62-4.43h-20.153
			c-2.269,0-3.714,2.439-2.62,4.43l7.35,13.368l-8.282,15.062c-0.961,1.748-1.276,3.78-0.887,5.737l3.937,19.829
			c21.795,21.272,10.17,9.77,39.074,38.674l24.931-8.223v-40.853c0-2.308,1.839-4.196,4.146-4.257
			c2.307-0.06,4.345,1.727,4.464,4.033c0,0,0,0.002,0,0.003c0.074,14.642-0.055,48.775,0,59.58l-61.478,20.341
			c-10.665,3.517-16.459,15.013-12.942,25.678c3.513,10.652,15.001,16.465,25.678,12.941l75.717-24.971
			c8.37-2.76,14.009-10.599,13.964-19.412C496.089,207.836,495.876,165.478,495.776,145.59z"/>
	</g>
</g>
<g>
	<g>
		<path d="M118.831,3.167c-23.13,0-41.879,18.752-41.879,41.882c0,23.169,18.815,41.879,41.879,41.879
			c22.906,0,41.88-18.566,41.88-41.88C160.712,21.918,141.961,3.167,118.831,3.167z"/>
	</g>
</g>
<g>
	<g>
		<path d="M221.465,296.313V147.857c-0.128-26.235-22.327-47.579-48.563-47.579H152.19c-2.338,6.109-22.226,58.068-25.049,65.443
			l5.906-27.821c0.414-1.954,0.114-3.992-0.849-5.741l-8.11-14.751l7.211-13.114c1.074-1.953-0.341-4.349-2.572-4.349h-19.789
			c-2.229,0-3.648,2.394-2.572,4.349l7.211,13.114l-8.141,14.805c-0.944,1.717-1.252,3.711-0.87,5.634l5.164,27.874
			c-2.588-6.635-21.988-58.255-24.79-65.443H64.42c-26.236,0-48.434,21.345-48.566,47.581v148.455
			c-0.056,11.16,8.946,20.252,20.106,20.309c0.036,0,0.069,0,0.104,0c11.112,0,20.149-8.98,20.205-20.106V148.062
			c0.011-2.152,2.507-3.889,4.658-3.882c2.151,0.006,3.891,1.752,3.891,3.902c0.001,49.397,0.009,330.048,0.009,339.671
			c0,13.392,10.856,24.248,24.248,24.248s24.248-10.856,24.248-24.248V293.929h10.47v193.822c0,13.392,10.856,24.248,24.248,24.248
			s24.248-10.856,24.248-24.248c0-321.222-0.431-136.445-0.44-340.715c0-2.354,1.907-4.261,4.261-4.262
			c2.269-0.001,4.632,1.824,4.196,5.288v148.455c0.035,6.936,4.307,13.037,9.649,16.649v21.473h-0.636
			c-5.08,0-9.198,4.118-9.198,9.198v76.208c0,5.08,4.118,9.198,9.198,9.198h22.149c5.08,0,9.198-4.118,9.198-9.198v-76.208
			c0-4.738-3.583-8.636-8.187-9.14v-21.484C217.925,309.568,221.501,303.355,221.465,296.313z"/>
	</g>
</g>
<g>
</g>
<g>
</g>
<g>
</g>
<g>
</g>
<g>
</g>
<g>
</g>
<g>
</g>
<g>
</g>
<g>
</g>
<g>
</g>
<g>
</g>
<g>
</g>
<g>
</g>
<g>
</g>
<g>
</g>
</svg>
