<?xml version="1.0" encoding="iso-8859-1"?>
<!-- Generator: Adobe Illustrator 19.0.0, SVG Export Plug-In . SVG Version: 6.00 Build 0)  -->
<svg version="1.1" id="Layer_1" xmlns="http://www.w3.org/2000/svg" xmlns:xlink="http://www.w3.org/1999/xlink" x="0px" y="0px"
	 viewBox="0 0 512 512" style="enable-background:new 0 0 512 512;" xml:space="preserve">
<g>
	<g>
		<path d="M509.166,83.861l-61.253-59.584c-3.706-3.606-9.634-3.523-13.239,0.183l-38.169,39.237
			c-3.606,3.707-3.523,9.634,0.183,13.239l9.481,9.223l-12.651,13.007c-3.185,3.275-3.113,8.51,0.161,11.696l30.433,29.603
			c3.275,3.185,8.511,3.112,11.696-0.161l12.651-13.007l9.481,9.223c3.706,3.606,9.634,3.523,13.239-0.183l38.168-39.237
			C512.954,93.394,512.872,87.467,509.166,83.861z M429.718,122.842l-18.575-18.069l6.885-7.077l18.575,18.069L429.718,122.842z"/>
	</g>
</g>
<g>
	<g>
		<path d="M386.068,145.607l-10.87-73.012c-1.238-8.323-8.982-14.068-17.317-12.827c-8.323,1.24-14.067,8.992-12.827,17.317
			l9.778,65.667l-35.263,37.147c-15.81,0-28.345,0-44.253,0l-38.931-48.693L225.253,90.22l-21.367,37.603l3.917,14.422
			c0.547,2.013,1.502,3.893,2.804,5.522c50.538,63.21,45.01,56.326,45.86,57.308v116.363l-22.247,52.645
			c-1.478,3.497-1.831,7.37-1.009,11.076l17.29,77.968c2.185,9.852,11.94,16.08,21.811,13.893
			c9.86-2.188,16.08-11.952,13.893-21.811l-16.027-72.269c22.985-54.392,22.531-57.013,22.531-57.013h7.891v146.158
			c0,10.099,8.186,18.285,18.285,18.285c10.099,0,18.285-8.186,18.285-18.285l0.008-266.475l44.87-47.268
			C385.276,154.942,386.76,150.244,386.068,145.607z"/>
	</g>
</g>
<g>
	<g>
		<circle cx="296.656" cy="138.25" r="31.578"/>
	</g>
</g>
<g>
	<g>
		<path d="M103.112,80.4c-18.627,0-33.727,15.1-33.727,33.727c-0.001,18.627,15.099,33.727,33.727,33.727
			c18.472,0,33.727-14.975,33.727-33.727C136.839,95.549,121.772,80.4,103.112,80.4z"/>
	</g>
</g>
<g>
	<g>
		<path d="M218.889,67.38c4.442-7.815,1.707-17.749-6.107-22.189c-7.815-4.443-17.749-1.707-22.189,6.108l-60.315,106.145h0.142
			c-11.858,30.978-8.806,23.005-20.618,53.863l4.757-22.405c0.334-1.573,0.092-3.215-0.683-4.624l-6.531-11.879l5.807-10.561
			c0.864-1.572-0.275-3.503-2.071-3.503H95.143c-1.794,0-2.938,1.928-2.071,3.503l5.807,10.561l-6.556,11.923
			c-0.76,1.383-1.008,2.99-0.701,4.538l4.158,22.448c-5.786-14.84-2.935-9.028-17.706-46.911l-6.116,1.004L34.791,140.64
			l13.788-56.372c2.136-8.73-3.21-17.538-11.941-19.673C27.913,62.46,19.1,67.804,16.965,76.536L0.467,143.989
			c-1.627,6.652,1.084,13.612,6.785,17.409l51.994,34.641c0.121,0.08,0.246,0.149,0.367,0.226v118.293h0.018
			c-0.001,0.067-0.01,0.131-0.01,0.198v156.09c0,10.786,8.743,19.528,19.528,19.528c10.784,0,19.528-8.743,19.528-19.528V314.754
			c0-0.067-0.009-0.131-0.01-0.198h8.452c-0.001,0.067-0.01,0.131-0.01,0.198v156.09c0,10.786,8.743,19.528,19.528,19.528
			s19.528-8.743,19.528-19.528v-156.09c0-1.251-0.13-2.469-0.354-3.654c0-16.944,0-117.537,0-117.537S157.96,173.613,218.889,67.38z
			"/>
	</g>
</g>
<g>
</g>
<g>
</g>
<g>
</g>
<g>
</g>
<g>
</g>
<g>
</g>
<g>
</g>
<g>
</g>
<g>
</g>
<g>
</g>
<g>
</g>
<g>
</g>
<g>
</g>
<g>
</g>
<g>
</g>
</svg>
