<?xml version="1.0" encoding="iso-8859-1"?>
<!-- Generator: Adobe Illustrator 19.0.0, SVG Export Plug-In . SVG Version: 6.00 Build 0)  -->
<svg version="1.1" id="Layer_1" xmlns="http://www.w3.org/2000/svg" xmlns:xlink="http://www.w3.org/1999/xlink" x="0px" y="0px"
	 viewBox="0 0 511.999 511.999" style="enable-background:new 0 0 511.999 511.999;" xml:space="preserve">
<g>
	<g>
		<circle cx="251.289" cy="44.59" r="44.59"/>
	</g>
</g>
<g>
	<g>
		<path d="M401.39,60.671c-6.176-1.565-12.439,2.165-14.007,8.333c-2.074,8.165-16.597,65.343-18.832,74.142l-56.076,26.925
			l-66.035-39.282l45.731,13.223l0.405-4.72c1.425-16.575-10.856-31.167-27.432-32.592l-53.52-4.601
			c-15.663-1.346-29.549,9.55-32.233,24.74c-0.298,1.688-0.349,2.571-0.513,4.486l-58.26,32.195
			c-5.896,3.26-9.808,9.259-10.364,16.034l-6.584,80.445c-0.583,7.112,2.611,13.905,8.314,18.029c0,26.715,0,18.525,0,30.054h-0.651
			c-5.198,0-9.411,4.214-9.411,9.411v77.979c0,5.198,4.214,9.411,9.411,9.411h22.664c5.198,0,9.411-4.214,9.411-9.411v-77.979
			c0-4.848-3.666-8.836-8.377-9.351c0-16.732,0-2.97,0-29.714c5.132-3.438,8.448-9.102,8.909-15.132l5.701-69.65l25.07-13.854
			c-2.392,27.823-7.537,103.838-7.537,103.838s3.44,22.247,14.572,93.13L143.11,479.195c-4.724,12.527,1.601,26.514,14.128,31.239
			c12.533,4.724,26.515-1.604,31.239-14.128l40.894-108.425c1.481-3.926,1.917-8.169,1.266-12.315l-8.188-52.153l-5.574-35.51
			l12.787,1.1l38.682,85.594l26.947,118.528c2.968,13.054,15.956,21.233,29.015,18.265c13.056-2.969,21.233-15.959,18.265-29.015
			l-27.49-120.911c-0.36-1.584-0.879-3.128-1.549-4.609l-33.324-73.737c0.996-11.59,4.228-49.182,5.24-60.955L228.2,166.957
			l72.92,43.378c5.623,3.345,12.817,3.854,19.074,0.849l72.762-34.937c10.001-4.8,14.326-16.836,9.468-26.956
			c0-0.001-0.002-0.002-0.002-0.003c-1.922-4-5.13-7.32-9.277-9.361c1.854-7.286,14.614-57.515,16.578-65.249
			C411.289,68.509,407.558,62.238,401.39,60.671z"/>
	</g>
</g>
<g>
</g>
<g>
</g>
<g>
</g>
<g>
</g>
<g>
</g>
<g>
</g>
<g>
</g>
<g>
</g>
<g>
</g>
<g>
</g>
<g>
</g>
<g>
</g>
<g>
</g>
<g>
</g>
<g>
</g>
</svg>
