<?xml version="1.0" encoding="iso-8859-1"?>
<!-- Generator: Adobe Illustrator 19.0.0, SVG Export Plug-In . SVG Version: 6.00 Build 0)  -->
<svg version="1.1" id="Layer_1" xmlns="http://www.w3.org/2000/svg" xmlns:xlink="http://www.w3.org/1999/xlink" x="0px" y="0px"
	 viewBox="0 0 512.002 512.002" style="enable-background:new 0 0 512.002 512.002;" xml:space="preserve">
<g>
	<g>
		<path d="M398.299,0c-10.916,0-19.763,8.847-19.763,19.763v64.853l-45.038,24.936c-3.81-0.051-8.516-0.127-13.479-0.221
			c-3.207,8.376-21.742,56.803-24.495,63.994l5.777-27.21c0.405-1.911,0.111-3.903-0.83-5.615l-7.934-14.427l7.052-12.826
			c1.05-1.909-0.333-4.254-2.516-4.254h-19.355c-2.179,0-3.568,2.342-2.516,4.254l7.052,12.826l-7.962,14.48
			c-0.923,1.68-1.225,3.63-0.852,5.511l5.051,27.262c-2.664-6.831-21.329-56.526-24.229-63.963l-18.57,0.017
			c-13.362,0.011-25.292,7.997-30.397,20.344l-8.118,19.636l-10.767-23.229l-16.958,29.951c9.372,6.575,12.823,19.214,7.598,29.79
			l-3.361,6.804l6.593,14.222c7.245,15.627,29.622,15.137,36.195-0.761l18.091-43.762c0,15.089,0.01,325.909,0.01,325.909
			c0,13.098,10.618,23.716,23.716,23.716s23.716-10.618,23.716-23.716V298.719h10.24v189.565c0,13.098,10.618,23.716,23.716,23.716
			c13.098,0,23.716-10.618,23.716-23.716c0-316.831-0.431-130.683-0.431-335.172l68.621-39.555
			c6.288-3.481,10.19-10.104,10.19-17.29V19.763C418.061,8.847,409.213,0,398.299,0z"/>
	</g>
</g>
<g>
	<g>
		<path d="M230.098,47.657l-66.083-32.65c-3.239-1.602-7.198-0.201-8.682,3.146c-13.036,29.407-15.172,58.427-6.697,75.268
			l-25.079,58.887l-13.085-6.465c-3.174-1.567-7.006-0.26-8.566,2.901l-7.303,14.781c-1.565,3.167-0.266,7.002,2.901,8.566
			l48.235,23.832c3.165,1.564,7.001,0.268,8.568-2.9l7.303-14.781c1.564-3.166,0.266-7.001-2.901-8.566l-13.084-6.465l31.535-55.698
			c18.526-3.5,40.278-22.829,55.715-51.049C234.626,53.261,233.337,49.257,230.098,47.657z M188.264,71.251l-3.901,13.118
			l-8.04-11.076l-13.682,0.343l8.05-11.069l-4.555-12.906l13.015,4.235l10.867-8.32l-0.007,13.686l11.271,7.764L188.264,71.251z"/>
	</g>
</g>
<g>
	<g>
		<path d="M287.395,14.345c-22.709,0-40.96,18.443-40.96,40.96c0,22.748,18.507,40.96,40.96,40.96
			c22.433,0,40.96-18.187,40.96-40.96C328.355,32.683,310.017,14.345,287.395,14.345z"/>
	</g>
</g>
<g>
</g>
<g>
</g>
<g>
</g>
<g>
</g>
<g>
</g>
<g>
</g>
<g>
</g>
<g>
</g>
<g>
</g>
<g>
</g>
<g>
</g>
<g>
</g>
<g>
</g>
<g>
</g>
<g>
</g>
</svg>
