<?xml version="1.0" encoding="iso-8859-1"?>
<!-- Generator: Adobe Illustrator 19.0.0, SVG Export Plug-In . SVG Version: 6.00 Build 0)  -->
<svg version="1.1" id="Layer_1" xmlns="http://www.w3.org/2000/svg" xmlns:xlink="http://www.w3.org/1999/xlink" x="0px" y="0px"
	 viewBox="0 0 511.989 511.989" style="enable-background:new 0 0 511.989 511.989;" xml:space="preserve">
<g>
	<g>
		<circle cx="404.423" cy="85.482" r="40.689"/>
	</g>
</g>
<g>
	<g>
		<path d="M503.13,482.053l-31.443-83.365v26.055c0,13.433-10.928,24.362-24.362,24.362h-3.909l18.317,48.563
			c4.315,11.44,17.084,17.201,28.505,12.89C501.669,506.248,507.442,493.484,503.13,482.053z"/>
	</g>
</g>
<g>
	<g>
		<path d="M481.876,297.039c-10.802,26.454-11.585,30.739-19.212,37.643c10.573,8.595,9.022,19.324,9.022,29.624
			C482.266,296.923,481.876,297.039,481.876,297.039z"/>
	</g>
</g>
<g>
	<g>
		<path d="M455.485,314.862c3.49-8.548,24.885-60.957,27.837-68.188c2.4-5.878,1.53-12.396-1.819-17.326v-0.001l-43.505-64.043
			l35.349,32.502l-2.993-34.818c-1.3-15.124-14.615-26.332-29.74-25.031l-48.836,4.198c-13.08,1.125-23.223,11.237-24.887,23.734
			l-65.526,39.257l-58.029,6.154c7.846,12.783,7.232,29.423-2.672,41.664l69.553-7.377c2.972-0.315,5.841-1.274,8.404-2.809
			l51.565-30.893c1.648,19.167,6.107,71.036,7.844,91.25l-30.407,67.284c-0.611,1.351-1.084,2.76-1.414,4.206l-25.085,110.329
			c-2.708,11.913,4.754,23.767,16.667,26.476c11.91,2.709,23.767-4.75,26.476-16.667l24.589-108.156l13.429-29.716
			c0-3.677-0.754-13.124,7.643-21.041v-5.723c-7.897-10.149-9.914-23.76-4.962-35.889l21.548-52.784l-20.46-57.561l39.398,57.996
			l-24.101,59.038c-2.894,7.089-1.052,15.14,4.351,20.297c0,8.761,0,15.393,0,23.828c-4.276,0.469-7.643,4.088-7.643,8.534v71.155
			v0.001c0,4.743,3.845,8.587,8.588,8.587h20.68c4.743,0.002,8.587-3.842,8.587-8.585v-71.156c0-4.265-3.184-8.588-9.181-8.588
			c0-8.19,0-12.681,0-20.653C450.391,322.499,453.697,319.244,455.485,314.862z"/>
	</g>
</g>
<g>
	<g>
		<circle cx="179.606" cy="40.688" r="40.688"/>
	</g>
</g>
<g>
	<g>
		<path d="M220.389,447.643h-20.771c6.943-5.045,10.598-13.908,8.575-22.808l-25.085-110.329c-0.329-1.446-0.802-2.855-1.414-4.206
			l-28.066-62.102l2.671-7.525l-25.671-14.022c-14.398-7.863-19.866-23.659-18.56-32.656l10.819-74.591l6.695,77.131
			c0.537,6.174,4.131,11.638,9.529,14.584c33.299,18.188,33.027,18.039,64.638,35.306c8.98,4.906,20.17,1.521,25.015-7.342
			c4.881-8.936,1.593-20.134-7.342-25.015c-11.19-6.112-43.581-23.804-55.963-30.567l-6.064-69.85l20.474,57.556l0.911,0.498
			l13.449-37.889c5.079-14.305-2.402-30.019-16.708-35.098l-46.193-16.397c-14.306-5.078-30.019,2.402-35.098,16.708L49.78,232.184
			c-1.595,3.704-2.219,7.879-1.547,12.157l13.206,84.121l-35.254,93.47c-3.708,9.833,0.063,20.124,7.7,25.711H18.066
			c-5.874,0-10.637,4.762-10.637,10.637c0,15.819,0,26.33,0,42.168c0,5.874,4.762,10.637,10.637,10.637c9.581,0,191.912,0,202.323,0
			c5.874,0,10.637-4.762,10.637-10.637c0-24.275,0,11.222,0-42.168C231.026,452.404,226.263,447.643,220.389,447.643z
			 M59.856,447.643c3.394-2.453,6.138-5.884,7.727-10.096l37.316-98.936c1.351-3.583,1.749-7.456,1.156-11.238l-7.472-47.588
			l-5.034-32.064l13.477,4.784l33.435,73.984l24.589,108.156c1.24,5.453,4.407,9.958,8.607,12.997H59.856z"/>
	</g>
</g>
<g>
</g>
<g>
</g>
<g>
</g>
<g>
</g>
<g>
</g>
<g>
</g>
<g>
</g>
<g>
</g>
<g>
</g>
<g>
</g>
<g>
</g>
<g>
</g>
<g>
</g>
<g>
</g>
<g>
</g>
</svg>
