<?xml version="1.0" encoding="iso-8859-1"?>
<!-- Generator: Adobe Illustrator 19.0.0, SVG Export Plug-In . SVG Version: 6.00 Build 0)  -->
<svg version="1.1" id="Layer_1" xmlns="http://www.w3.org/2000/svg" xmlns:xlink="http://www.w3.org/1999/xlink" x="0px" y="0px"
	 viewBox="0 0 512 512" style="enable-background:new 0 0 512 512;" xml:space="preserve">
<g>
	<g>
		<circle cx="418.291" cy="85.02" r="38.374"/>
	</g>
</g>
<g>
	<g>
		<path d="M263.732,62.036v8.309c2.108-0.496,3.781-1.674,3.781-3.907C267.514,64.393,265.965,63.09,263.732,62.036z"/>
	</g>
</g>
<g>
	<g>
		<path d="M256.291,46.659c0,1.798,1.612,2.914,3.968,3.906v-7.378C257.47,43.744,256.291,45.171,256.291,46.659z"/>
	</g>
</g>
<g>
	<g>
		<path d="M353.24,88.839l-19.861-19.211c1.027-3.409,1.574-6.941,1.574-10.562c0-28.369-33.153-51.365-74.049-51.365
			s-74.049,22.997-74.049,51.365s33.153,51.365,74.049,51.365c22.328,0,42.331-6.864,55.907-17.705l32.479,4.291
			c2.045,0.271,4.033-0.802,4.932-2.66C355.118,92.499,354.723,90.274,353.24,88.839z M264.352,78.964v1.798
			c0,0.868-1.178,1.674-2.357,1.674c-1.364,0-2.357-0.806-2.357-1.674v-1.55c-7.441-0.249-13.517-4.092-13.517-8.06
			c0-2.109,1.86-5.208,4.216-5.208c2.604,0,4.713,3.658,9.301,4.464V60.362c-5.705-2.171-12.401-4.836-12.401-12.773
			c0-7.874,5.829-11.657,12.401-12.586v-1.736c0-0.868,0.992-1.675,2.357-1.675c1.178,0,2.357,0.806,2.357,1.675v1.55
			c3.844,0.123,11.099,1.116,11.099,5.394c0,1.673-1.116,5.084-3.844,5.084c-2.046,0-3.224-1.984-7.255-2.295v9.054
			c5.643,2.108,12.216,5.022,12.216,13.393C276.567,73.135,271.607,77.785,264.352,78.964z"/>
	</g>
</g>
<g>
	<g>
		<circle cx="117.753" cy="176.32" r="37.31"/>
	</g>
</g>
<g>
	<g>
		<path d="M252.701,293.993c-1.399-7.49-7.532-12.897-14.73-13.701c3.285-15.815,5.995-28.855,9.844-47.388
			c1.346-6.48-2.816-12.824-9.295-14.17c-6.483-1.34-12.825,2.816-14.17,9.297c-8.104,39.005-7.017,33.776-11.683,56.235
			l-41.239,7.697l-47.501-41.358l29.429,15.087l0.37-5.202c0.986-13.884-9.471-25.94-23.357-26.925l-42.78-3.036
			c-14.646-1.039-27.1,10.633-26.988,25.333l0.902,118.504h-8.01L35.81,234.742c-1.247-9.848-10.235-16.827-20.091-15.574
			c-9.849,1.247-16.822,10.243-15.575,20.092l19.672,155.341c1.138,8.983,8.778,15.716,17.833,15.716h49.082v53.072H75.155
			c-3.178,0-6.226,1.263-8.473,3.51l-16.942,16.942c-4.68,4.68-4.68,12.267,0,16.948c4.68,4.679,12.267,4.68,16.947,0l13.433-13.432
			H116.1l13.433,13.432c4.681,4.681,12.266,4.68,16.947,0c4.68-4.681,4.68-12.268,0-16.948L129.538,466.9
			c-2.247-2.247-5.296-3.51-8.473-3.51h-10.367v-53.072h38.975c7.839,0,14.488-5.027,16.947-12.025l11.281,88.291
			c1.42,11.113,11.58,18.972,22.693,17.55c11.112-1.42,18.971-11.579,17.55-22.692l-13.374-104.671
			c-1.052-8.235-7.014-14.996-15.052-17.07l-42.26-10.911l0.58-8.18c0,0-0.551,0.716-46.309-64.502l53.666,46.723
			c3.899,3.395,9.133,4.814,14.201,3.868l69.589-12.988C248.362,311.998,254.413,303.17,252.701,293.993z"/>
	</g>
</g>
<g>
	<g>
		<path d="M508.427,206.413l-45.446-59.48c-4.672-7.278-12.503-12.054-21.381-12.054h-46.223c-14.316,0-25.92,12.412-25.92,27.722
			v11.086l28.371-23.15l-38.275,52.361c-37.538-1.678-21.409-0.958-58.931-2.636c-0.001,0-0.001,0-0.001,0
			c-9.903-0.44-18.157,7.697-17.804,17.66c0.313,8.809,7.357,16.015,16.281,16.414c0.001,0,68.09,3.044,68.09,3.044
			c5.486,0.243,11.048-2.246,14.504-6.971c0.001,0,0.001-0.001,0.002-0.002l42.266-57.822l-27.191,64.206
			c-2.675,6.317-12.753,16.258-27.312,16.931c0,0-0.524-9.944-0.524,228.971c0,11.931,9.672,21.603,21.603,21.603
			c11.931,0,21.603-9.672,21.603-21.603V318.757h12.297v163.937c0,11.931,9.672,21.603,21.603,21.603
			c11.931,0,21.603-9.672,21.603-21.603V304.95c6.948-0.052,13.482-4.288,16.122-11.166l27.081-70.576
			C513.009,217.571,512.093,211.213,508.427,206.413z M467.52,238.987v-28.798l7.357,9.628L467.52,238.987z"/>
	</g>
</g>
<g>
</g>
<g>
</g>
<g>
</g>
<g>
</g>
<g>
</g>
<g>
</g>
<g>
</g>
<g>
</g>
<g>
</g>
<g>
</g>
<g>
</g>
<g>
</g>
<g>
</g>
<g>
</g>
<g>
</g>
</svg>
