<?xml version="1.0" encoding="iso-8859-1"?>
<!-- Generator: Adobe Illustrator 19.0.0, SVG Export Plug-In . SVG Version: 6.00 Build 0)  -->
<svg version="1.1" id="Layer_1" xmlns="http://www.w3.org/2000/svg" xmlns:xlink="http://www.w3.org/1999/xlink" x="0px" y="0px"
	 viewBox="0 0 511.996 511.996" style="enable-background:new 0 0 511.996 511.996;" xml:space="preserve">
<g>
	<g>
		<circle cx="175.6" cy="44.575" r="44.575"/>
	</g>
</g>
<g>
	<g>
		<path d="M156.338,236.783l75.655,19.648c-6.877-12.63-6.635-28.408,2.055-41.197l-57.077-14.822l-25.065-72.603l38.113,55.962
			l5.94-43.385c2.255-16.476-9.272-31.662-25.749-33.918l-53.202-7.285c-16.476-2.257-31.662,9.272-33.918,25.749L63.805,278.226
			c-0.383,2.179-0.492,4.444-0.248,6.754l9.815,92.767L29.649,478.073c-5.347,12.269,0.265,26.551,12.534,31.898
			c12.277,5.351,26.556-0.273,31.898-12.534l46.28-106.193c1.676-3.846,2.325-8.06,1.883-12.232l-9.961-94.149l10.953,1.5
			l15.078,87.368l5.662,115.219c0.655,13.321,11.969,23.668,25.395,23.016c13.368-0.657,23.672-12.027,23.015-25.395
			c-6.212-126.423-5.693-117.516-6.058-119.627l-12.715-73.685l5.594-30.507l-27.74-7.204
			c-17.396-4.517-27.414-19.834-28.428-29.751l-8.391-82.144l27.678,80.173C144.538,230.233,149.808,235.086,156.338,236.783z"/>
	</g>
</g>
<g>
	<g>
		<circle cx="330.659" cy="44.575" r="44.575"/>
	</g>
</g>
<g>
	<g>
		<path d="M463.713,277.144c2.189-8.545,17.765-69.326,20.029-78.16c1.624-6.338,0.105-13.354-4.56-18.532
			c-6.815-7.564-54.021-59.95-59.511-66.042c-5.853-10.545-17.749-16.962-30.416-15.228l-53.202,7.285
			c-16.476,2.256-28.004,17.442-25.749,33.918l5.94,43.385l38.113-55.962l-25.066,72.603l-67.615,17.56
			c-10.793,2.802-17.275,13.825-14.471,24.623c2.818,10.849,13.88,17.259,24.623,14.471l78.095-20.281
			c6.52-1.693,11.797-6.536,14.014-12.957l27.679-80.174l-8.391,82.144c-0.883,8.643-9.837,24.923-28.428,29.751l-27.739,7.204
			l5.594,30.507l-12.716,73.684c-0.365,2.115,0.133-6.376-6.058,119.627c-0.677,13.789,10.303,25.425,24.224,25.425
			c12.837-0.001,23.548-10.083,24.185-23.047l5.662-115.219l15.078-87.368l10.952-1.5l-9.961,94.149
			c-0.441,4.171,0.208,8.387,1.884,12.232l46.28,106.193c5.348,12.27,19.63,17.882,31.898,12.534
			c12.27-5.347,17.882-19.629,12.534-31.898l-43.723-100.327c1.102-10.42,8.086-76.421,9.052-85.545
			C451.967,293.322,461.233,286.829,463.713,277.144z M436.353,221.201l-4.511-32.945l10.084,11.192L436.353,221.201z"/>
	</g>
</g>
<g>
</g>
<g>
</g>
<g>
</g>
<g>
</g>
<g>
</g>
<g>
</g>
<g>
</g>
<g>
</g>
<g>
</g>
<g>
</g>
<g>
</g>
<g>
</g>
<g>
</g>
<g>
</g>
<g>
</g>
</svg>
