<?xml version="1.0" encoding="iso-8859-1"?>
<!-- Generator: Adobe Illustrator 19.0.0, SVG Export Plug-In . SVG Version: 6.00 Build 0)  -->
<svg version="1.1" id="Layer_1" xmlns="http://www.w3.org/2000/svg" xmlns:xlink="http://www.w3.org/1999/xlink" x="0px" y="0px"
	 viewBox="0 0 512 512" style="enable-background:new 0 0 512 512;" xml:space="preserve">
<g>
	<g>
		<path d="M264.104,76.006c-2.003-5.55-8.125-8.425-13.675-6.422l-21.156,7.635c-5.55,2.003-8.425,8.125-6.422,13.675l11.797,32.69
			c0.926-1.258,1.943-2.471,3.066-3.621c10.728-10.988,27.122-13.083,40.018-6.195L264.104,76.006z"/>
	</g>
</g>
<g>
	<g>
		<path d="M127.001,37.621c-21.768,0-39.414,17.648-39.414,39.416c0,12.002,5.371,22.743,13.833,29.972
			c51.814,0-0.598-0.024,51.189-0.024c8.447-7.228,13.806-17.96,13.806-29.949C166.416,55.268,148.769,37.621,127.001,37.621z"/>
	</g>
</g>
<g>
	<g>
		<path d="M390.159,0c-20.663,0-37.414,16.751-37.414,37.414c0,14.798,8.592,27.587,21.058,33.657
			c4.941,2.406,10.49,3.759,16.356,3.759c3.965,0,7.783-0.621,11.369-1.765c15.104-4.813,26.045-18.951,26.045-35.651
			C427.574,16.751,410.823,0,390.159,0z"/>
	</g>
</g>
<g>
	<g>
		<path d="M473.826,296.318v-19.333c4.864-3.256,8.058-8.806,8.027-15.097l-0.666-132.626
			c-0.118-23.439-19.281-42.507-42.721-42.507h-18.503c-2.365,6.177-19.842,51.839-22.378,58.465l5.277-24.855
			c0.371-1.746,0.102-3.566-0.758-5.129l-7.245-13.178l6.441-11.716c0.96-1.744-0.305-3.886-2.297-3.886h-17.68
			c-1.991,0-3.258,2.14-2.297,3.886l6.441,11.716l-7.272,13.226c-0.843,1.534-1.119,3.316-0.778,5.033l4.613,24.902
			c-10.161-28.157-5.253-15.14-22.147-58.465h-18.33c-23.439,0-42.604,19.069-42.721,42.506l-0.125,25.035l-24.243-23.676
			c-7.132-6.966-18.562-6.832-25.528,0.301c-6.966,7.133-6.831,18.563,0.301,25.529l54.694,53.418
			c5.185,5.063,12.891,6.535,19.578,3.741c6.685-2.796,11.051-9.319,11.088-16.564l0.34-67.601c0.01-1.924,1.573-3.474,3.496-3.469
			c1.921,0.006,3.477,1.565,3.477,3.487c0.001,45.302,0.008,303.453,0.008,303.453c0,11.963,9.698,21.663,21.663,21.663
			c11.965,0,21.663-9.7,21.663-21.663V259.758h9.354v173.156c0,11.963,9.698,21.663,21.663,21.663s21.663-9.7,21.663-21.663
			c0-81.132-0.374-219.59-0.392-303.615c0-2.086,1.691-3.778,3.777-3.779c2.086,0,3.779,1.691,3.779,3.777
			c0,0.048,0,0.097-0.001,0.146l0.666,132.627c0.031,6.196,3.182,11.645,7.955,14.873v19.204c-4.885,0.21-8.785,4.227-8.785,9.164
			v66.149c0,5.072,4.111,9.184,9.185,9.184h17.853c5.072,0,9.184-4.111,9.184-9.184v-66.149
			C481.14,300.879,478.001,297.182,473.826,296.318z"/>
	</g>
</g>
<g>
	<g>
		<path d="M214.138,348.212c-0.003-20.56-0.003-17.825-0.003-23.459c4.97-3.436,8.228-9.172,8.22-15.671
			c-0.009-7.587-0.163-132.387-0.172-139.788c-0.124-24.692-20.313-44.778-45.004-44.778c-15.028,0-89.528,0-101.325,0
			c-24.692,0-44.881,20.088-45.004,44.778L30.147,309.01c-0.054,10.503,8.419,19.061,18.922,19.114c0.032,0,0.065,0,0.097,0
			c10.458,0,18.962-8.452,19.015-18.922l0.702-139.716c-0.019-0.693,0.011-1.321,0.083-1.889c0.249-1.963,1.981-3.394,3.955-3.268
			c1.974,0.125,3.508,1.765,3.508,3.743l0.009,321.107c0,12.604,10.218,22.821,22.822,22.821s22.822-10.217,22.822-22.821V306.768
			h9.853v182.412c0,12.604,10.218,22.821,22.822,22.821c12.604,0,22.822-10.217,22.822-22.821v-45.967
			c-5.633-4.783-9.217-11.909-9.217-19.859v-66.149c0-7.951,3.584-15.076,9.217-19.859c0-3.124-0.348-144.894-0.406-169.169
			c-0.004-1.873,1.514-3.397,3.389-3.397c2.004,0,3.629,1.623,3.631,3.628l0.131,140.722c0.009,7.103,3.918,13.281,9.692,16.541
			c0,8.174,0,14.366,0,22.371c-4.885,0.212-8.785,4.227-8.785,9.164v66.149c0,5.072,4.111,9.184,9.184,9.184h17.853
			c5.072,0,9.184-4.112,9.184-9.184v-66.149C221.451,352.773,218.313,349.076,214.138,348.212z"/>
	</g>
</g>
<g>
</g>
<g>
</g>
<g>
</g>
<g>
</g>
<g>
</g>
<g>
</g>
<g>
</g>
<g>
</g>
<g>
</g>
<g>
</g>
<g>
</g>
<g>
</g>
<g>
</g>
<g>
</g>
<g>
</g>
</svg>
