<?xml version="1.0" encoding="iso-8859-1"?>
<!-- Generator: Adobe Illustrator 19.0.0, SVG Export Plug-In . SVG Version: 6.00 Build 0)  -->
<svg version="1.1" id="Layer_1" xmlns="http://www.w3.org/2000/svg" xmlns:xlink="http://www.w3.org/1999/xlink" x="0px" y="0px"
	 viewBox="0 0 512 512" style="enable-background:new 0 0 512 512;" xml:space="preserve">
<g>
	<g>
		<path d="M46.509,77.53c-0.924-3.892-4.451-6.602-8.449-6.489l-15.597,0.439l-2.537-10.698c-0.879-3.709-5.584-4.882-8.106-2.033
			L0,72.112l9.776,41.222c3.083-4.298,7.277-7.887,12.419-10.271c10.043-4.654,21.746-3.728,30.933,2.377L46.509,77.53z"/>
	</g>
</g>
<g>
	<g>
		<path d="M254.577,109.428c-7.725,0-14.689,3.324-19.538,8.615l14.815,5.806l47.396-14.421H254.577z"/>
	</g>
</g>
<g>
	<g>
		<path d="M485.492,109.428H317.159c9.689,3.146,17.741,10.809,20.931,21.294c5.186,17.045-4.428,35.066-21.473,40.254
			l-58.707,17.861c-6.846,2.084-14.302,1.861-21.162-0.827l-8.678-3.401v125.854c0,14.617,11.891,26.508,26.508,26.508h71.998
			l-49.971,126.557c-3.218,8.15,0.781,17.365,8.931,20.584c8.147,3.216,17.364-0.777,20.584-8.931l54.571-138.21h19.012
			l55.333,138.277c3.256,8.135,12.491,12.089,20.624,8.836c8.136-3.256,12.091-12.49,8.836-20.624L413.88,336.97h71.612
			c14.617,0,26.508-11.891,26.508-26.508V135.936C512,121.319,500.109,109.428,485.492,109.428z M305.651,285.852
			c0,2.184-1.771,3.954-3.954,3.954h-27.348c-2.184,0-3.954-1.771-3.954-3.954v-37.093c0-2.184,1.771-3.954,3.954-3.954h27.348
			c2.184,0,3.954,1.771,3.954,3.954V285.852z M360.299,285.852L360.299,285.852c0,2.184-1.771,3.954-3.954,3.954h-27.348
			c-2.184,0-3.954-1.771-3.954-3.954v-65.275c0-2.184,1.771-3.954,3.954-3.954h27.348c2.184,0,3.954,1.771,3.954,3.954V285.852z
			 M414.946,285.852c0,2.184-1.771,3.954-3.954,3.954h-27.348c-2.184,0-3.954-1.771-3.954-3.954v-93.25
			c0-2.184,1.771-3.954,3.954-3.954h27.348c2.184,0,3.954,1.771,3.954,3.954V285.852z M469.593,285.852
			c0,2.184-1.771,3.954-3.954,3.954h-27.348c-2.184,0-3.954-1.771-3.954-3.954v-124.5c0-2.184,1.771-3.954,3.954-3.954h27.348
			c2.184,0,3.954,1.771,3.954,3.954V285.852z"/>
	</g>
</g>
<g>
	<g>
		<path d="M147.665,26.776c-20.84,0-37.733,16.893-37.733,37.733c0,20.934,17.02,37.733,37.733,37.733
			c20.669,0,37.733-16.756,37.733-37.733C185.398,43.669,168.505,26.776,147.665,26.776z"/>
	</g>
</g>
<g>
	<g>
		<path d="M324.646,134.813c-2.926-9.618-13.097-15.043-22.717-12.118l-52.013,15.826l-47.451-22.255
			c-2.356-1.106-4.922-1.693-7.525-1.722c-5.647-0.064-11.492-0.155-17.222-0.264c-2.951,7.709-20.044,52.363-22.566,58.953
			l5.321-25.067c0.374-1.76,0.102-3.596-0.765-5.173l-7.307-13.291l6.497-11.815c0.967-1.759-0.307-3.92-2.318-3.92h-17.83
			c-2.008,0-3.287,2.158-2.318,3.92l6.497,11.815l-7.335,13.338c-0.851,1.547-1.129,3.344-0.785,5.076l4.653,25.114
			c-9.909-25.41-10.957-29.78-22.321-58.924l-17.107,0.016c-12.306,0.01-23.297,7.366-28.002,18.741l-7.478,18.088l-12.496-26.958
			c-4.228-9.121-15.052-13.088-24.175-8.861c-9.123,4.229-13.09,15.053-8.861,24.175l29.968,64.652
			c6.672,14.395,27.288,13.945,33.343-0.701L99,163.143c0,12.186,0.008,300.233,0.008,300.233c0,12.067,9.781,21.848,21.848,21.848
			s21.848-9.781,21.848-21.848V288.745h9.432v174.63c0,12.067,9.781,21.848,21.848,21.848c12.067,0,21.848-9.781,21.848-21.848
			c0.001-286.348-0.396-128.433-0.396-310.189l45.354,21.271c3.996,1.875,8.637,2.271,13.031,0.935l58.708-17.862
			C322.148,154.602,327.573,144.432,324.646,134.813z"/>
	</g>
</g>
<g>
</g>
<g>
</g>
<g>
</g>
<g>
</g>
<g>
</g>
<g>
</g>
<g>
</g>
<g>
</g>
<g>
</g>
<g>
</g>
<g>
</g>
<g>
</g>
<g>
</g>
<g>
</g>
<g>
</g>
</svg>
