<?xml version="1.0" encoding="iso-8859-1"?>
<!-- Generator: Adobe Illustrator 19.0.0, SVG Export Plug-In . SVG Version: 6.00 Build 0)  -->
<svg version="1.1" id="Layer_1" xmlns="http://www.w3.org/2000/svg" xmlns:xlink="http://www.w3.org/1999/xlink" x="0px" y="0px"
	 viewBox="0 0 512.003 512.003" style="enable-background:new 0 0 512.003 512.003;" xml:space="preserve">
<g>
	<g>
		<path d="M496.291,272.813H366.09c0.647-1.678,1.115-3.453,1.325-5.325c1.32-11.786-7.164-22.412-18.951-23.732l-99.572-11.155
			c-6.07-0.674-12.141,1.257-16.697,5.326l-33.62,30.03l-38.95-86.369l35.458-79.848c2.325-5.234,1.695-11.309-1.654-15.954
			c-3.35-4.646-8.919-7.165-14.612-6.615l-64.36,6.207c7.086,5.32,12.808,12.51,16.392,21.072c1.287,3.076,2.258,6.232,2.92,9.426
			l20.677-1.994l-20.944,47.165c-57.08,23.892-59.181,26.361-59.181,26.361l14.91,9.039l-49.405-18.358l8.991-15.123
			c-4.992-4.76-9.062-10.578-11.843-17.222c-2.592-6.192-3.911-12.699-3.967-19.215L2.267,178.227
			c-5.14,8.645-1.177,19.832,8.232,23.328l82.074,30.498l-17.435-3.562l43.747,104.52h-18.352L69.887,227.418l-34.775-7.105
			l38.539,132.784c1.948,6.713,8.097,11.331,15.085,11.331h47.627v73.853h-10.116c-2.777,0-5.441,1.104-7.405,3.067l-14.805,14.806
			c-4.09,4.091-4.09,10.721,0,14.811c4.092,4.09,10.722,4.089,14.811,0l11.739-11.74h31.444l11.74,11.74
			c4.091,4.089,10.72,4.089,14.811,0c4.09-4.09,4.09-10.721,0-14.811l-14.806-14.806c-1.965-1.964-4.628-3.067-7.405-3.067h-9.059
			v-73.853h57.189c8.676,0,15.709-7.033,15.709-15.709s-7.033-15.709-15.709-15.709h-24.284l63.435-56.661l18.075,2.025
			c-2.321,2.739-3.727,6.276-3.727,10.146c0,8.676,7.033,15.709,15.709,15.709h2.094v159.329c0,5.784,4.689,10.473,10.473,10.473
			c5.784,0,10.473-4.689,10.473-10.473V304.23h167.556v159.329c0,5.784,4.689,10.473,10.473,10.473
			c5.784,0,10.473-4.689,10.473-10.473V304.23c10.876,0,16.756-7.857,16.756-15.709C512,279.845,504.967,272.813,496.291,272.813z"
			/>
	</g>
</g>
<g>
	<g>
		<path d="M118.29,111.707c-7.95-18.993-29.784-27.935-48.77-19.99c-18.987,7.948-27.937,29.782-19.99,48.77
			c7.952,19,29.794,27.934,48.77,19.99C117.288,152.529,126.238,130.695,118.29,111.707z"/>
	</g>
</g>
<g>
	<g>
		<path d="M493.1,171.319c-5.069-2.78-11.438-0.921-14.215,4.152l-31.578,57.637h-56.786c-5.784,0-10.473,4.689-10.473,10.473
			s4.69,10.471,10.473,10.471h62.99c3.824,0,7.346-2.085,9.184-5.44l34.558-63.077C500.032,180.461,498.173,174.097,493.1,171.319z"
			/>
	</g>
</g>
<g>
	<g>
		<path d="M431.119,155.11v-8.464c3.768,0.29,4.87,2.146,6.783,2.146c2.551,0,3.593-3.189,3.593-4.753
			c0-4.001-6.783-4.928-10.376-5.044v-1.449c0-0.812-1.103-1.566-2.203-1.566c-1.276,0-2.203,0.754-2.203,1.566v1.623
			c-6.146,0.869-11.595,4.406-11.595,11.768c0,7.421,6.26,9.914,11.595,11.943v9.391c-4.291-0.755-6.262-4.174-8.697-4.174
			c-2.203,0-3.941,2.899-3.941,4.87c0,3.71,5.682,7.304,12.638,7.536v1.449c0,0.812,0.927,1.566,2.203,1.566
			c1.1,0,2.203-0.754,2.203-1.566v-1.682c6.783-1.101,11.421-5.449,11.421-12.638C442.54,159.807,436.395,157.082,431.119,155.11z
			 M427.293,153.717c-5.668-2.387-4.224-6.053,0-6.898V153.717z M430.539,172.212v-7.769c2.087,0.985,3.535,2.203,3.535,4.116
			C434.074,170.646,432.51,171.748,430.539,172.212z"/>
	</g>
</g>
<g>
	<g>
		<path d="M479.202,100.022v-8.464c3.768,0.29,4.87,2.146,6.783,2.146c2.551,0,3.593-3.189,3.593-4.753
			c0-4.001-6.783-4.928-10.376-5.044v-1.449c0-0.812-1.103-1.566-2.203-1.566c-1.276,0-2.203,0.754-2.203,1.566v1.623
			c-6.146,0.869-11.595,4.406-11.595,11.768c0,7.421,6.261,9.914,11.595,11.943v9.391c-4.291-0.755-6.262-4.174-8.697-4.174
			c-2.203,0-3.941,2.899-3.941,4.87c0,3.71,5.682,7.304,12.638,7.536v1.449c0,0.812,0.927,1.566,2.203,1.566
			c1.1,0,2.203-0.754,2.203-1.566v-1.682c6.783-1.101,11.421-5.449,11.421-12.638C490.623,104.719,484.478,101.994,479.202,100.022z
			 M475.376,98.63c-5.668-2.387-4.224-6.054,0-6.898V98.63z M478.622,117.124v-7.769
			C483.947,111.867,482.806,116.138,478.622,117.124z"/>
	</g>
</g>
<g>
	<g>
		<path d="M433.391,51.067v-5.803c2.582,0.199,3.338,1.47,4.649,1.47c1.748,0,2.464-2.185,2.464-3.26
			c0-2.742-4.649-3.378-7.113-3.456v-0.994c0-1.358-3.021-1.451-3.021,0v1.112c-4.212,0.596-7.949,3.021-7.949,8.068
			c0,5.087,4.292,6.796,7.949,8.187v6.437c-2.941-0.515-4.292-2.86-5.962-2.86c-1.509,0-2.702,1.987-2.702,3.338
			c0,2.543,3.894,5.008,8.663,5.167v0.992c0,0.557,0.636,1.074,1.51,1.074c0.755,0,1.51-0.517,1.51-1.074v-1.151
			c4.649-0.756,7.829-3.735,7.829-8.665C441.22,54.285,437.008,52.418,433.391,51.067z M430.768,50.113
			c-3.884-1.635-2.899-4.15,0-4.729V50.113z M432.993,62.79v-5.325C436.648,59.192,435.857,62.116,432.993,62.79z"/>
	</g>
</g>
<g>
</g>
<g>
</g>
<g>
</g>
<g>
</g>
<g>
</g>
<g>
</g>
<g>
</g>
<g>
</g>
<g>
</g>
<g>
</g>
<g>
</g>
<g>
</g>
<g>
</g>
<g>
</g>
<g>
</g>
</svg>
