<?xml version="1.0" encoding="iso-8859-1"?>
<!-- Generator: Adobe Illustrator 19.0.0, SVG Export Plug-In . SVG Version: 6.00 Build 0)  -->
<svg version="1.1" id="Layer_1" xmlns="http://www.w3.org/2000/svg" xmlns:xlink="http://www.w3.org/1999/xlink" x="0px" y="0px"
	 viewBox="0 0 512 512" style="enable-background:new 0 0 512 512;" xml:space="preserve">
<g>
	<g>
		<path d="M138.339,40.305c-24.425-1.734-45.632,16.661-47.365,41.087c-1.71,24.091,16.166,45.036,40.091,47.269
			c-0.241-1.829-0.77-5.301-0.333-10.196l-19.783-17.621c-1.951-1.738-2.125-4.729-0.386-6.681l17.811-19.996
			c1.738-1.951,4.729-2.125,6.681-0.386l15.069,13.423c4.767-2.93,10.205-4.935,16.111-5.711c4.525-0.594,8.97-0.416,13.215,0.414
			C178.177,59.994,160.819,41.9,138.339,40.305z"/>
	</g>
</g>
<g>
	<g>
		<path d="M288.401,184.992c-2.537-5.211-7.037-8.813-12.174-10.39l11.196-46.036c1.447-5.948-2.203-11.943-8.152-13.391
			c-5.95-1.446-11.943,2.203-13.391,8.152l-13.873,57.042l-29.524,14.374c0.746,5.676,1.064,8.097,2.737,20.831
			c1.236,9.408-1.267,18.442-6.354,25.616l60.268-29.342C289.108,206.99,293.258,194.967,288.401,184.992z"/>
	</g>
</g>
<g>
	<g>
		<path d="M248.8,463.304C248.8,463.304,248.799,463.305,248.8,463.304C248.8,463.333,248.8,463.341,248.8,463.304z"/>
	</g>
</g>
<g>
	<g>
		<path d="M248.133,394.64l-9.529-74.561c-1.249-9.784-8.335-17.82-17.885-20.285l-50.036-12.918l2.435-34.317
			c-5.336-2.682-1.247,0.26-67.48-55.35l69.198,31.751c6.626,3.042,14.408,2.258,20.303-2.093c5.883-4.34,8.943-11.533,7.99-18.781
			l-11.635-88.546c-1.445-11-11.527-18.744-22.534-17.3c-11,1.445-18.745,11.534-17.3,22.533l6.901,52.518l-36.172-16.597
			l13.165,2.151c-0.027-0.201-1.492-11.358-1.519-11.559c-1.83-0.349-34.686-2.34-34.686-2.34
			c-17.405-1.235-31.097,12.636-30.964,30.104v145.555H54.663L33.127,154.547c-1.154-9.111-9.476-15.559-18.586-14.407
			c-9.11,1.153-15.56,9.475-14.408,18.586l23.378,184.598c1.053,8.308,8.121,14.538,16.496,14.538h61.48v70.956h-16.91
			c-2.94,0-5.76,1.168-7.838,3.247l-20.134,20.133c-4.329,4.329-4.33,11.348,0,15.678c4.331,4.33,11.349,4.328,15.677,0
			L89.17,450.99h45.372l16.886,16.886c4.329,4.328,11.348,4.328,15.678,0c4.329-4.329,4.329-11.348,0-15.678l-20.133-20.133
			c-2.078-2.078-4.899-3.247-7.838-3.247h-15.474v-70.956h49.472c9.063,0,16.42-7.255,16.61-16.274l3.111,0.804l13.823,108.183
			c2.647,20.721,28.591,28.356,42.124,12.73C248.773,462.047,248.133,394.64,248.133,394.64z M101.836,357.862h0.116
			C101.911,358.003,101.872,357.981,101.836,357.862z M123.195,357.862h0.116C123.275,357.981,123.236,358.003,123.195,357.862z"/>
	</g>
</g>
<g>
	<g>
		<path d="M495.372,260.952H270.34c-9.183,0-16.628,7.445-16.628,16.628s7.445,16.628,16.628,16.628h2.217v45.625
			c4.137-1.563,8.614-2.425,13.291-2.425h8.879v-43.2h177.366V459.54c0,6.121,4.964,11.085,11.085,11.085
			s11.085-4.964,11.085-11.085V294.208h1.109c9.183,0,16.628-7.445,16.628-16.628C512,268.397,504.557,260.952,495.372,260.952z"/>
	</g>
</g>
<g>
	<g>
		<path d="M404.845,356.253h-22.779c0-18.673,0.215-18.939-0.728-22.171c-2.18-7.463-9.072-12.935-17.231-12.935h-36.763
			c-8.158,0-15.049,5.473-17.23,12.935c-0.943,3.227-0.728,3.474-0.728,22.171h-23.535c-8.587,0-15.547,6.961-15.547,15.547v84.461
			c0,8.587,6.96,15.547,15.547,15.547h118.996c8.587,0,15.547-6.96,15.547-15.547V371.8
			C420.392,363.213,413.43,356.253,404.845,356.253z M363.757,356.253h-36.065v-16.798h36.065V356.253z"/>
	</g>
</g>
<g>
	<g>
		<path d="M413.295,223.788h-63.426c-6.121,0-11.085,4.964-11.085,11.085c0,6.121,4.963,11.085,11.085,11.085h63.426
			c6.121,0,11.085-4.964,11.085-11.085C424.381,228.752,419.417,223.788,413.295,223.788z"/>
	</g>
</g>
<g>
	<g>
		<path d="M413.295,188.326h-63.426c-6.121,0-11.085,4.964-11.085,11.085c0,6.121,4.963,11.085,11.085,11.085h63.426
			c6.121,0,11.085-4.964,11.085-11.085C424.381,193.29,419.417,188.326,413.295,188.326z"/>
	</g>
</g>
<g>
	<g>
		<path d="M413.295,152.864h-63.426c-6.121,0-11.085,4.964-11.085,11.085s4.963,11.085,11.085,11.085h63.426
			c6.121,0,11.085-4.964,11.085-11.085S419.417,152.864,413.295,152.864z"/>
	</g>
</g>
<g>
</g>
<g>
</g>
<g>
</g>
<g>
</g>
<g>
</g>
<g>
</g>
<g>
</g>
<g>
</g>
<g>
</g>
<g>
</g>
<g>
</g>
<g>
</g>
<g>
</g>
<g>
</g>
<g>
</g>
</svg>
