<?xml version="1.0" encoding="iso-8859-1"?>
<!-- Generator: Adobe Illustrator 19.0.0, SVG Export Plug-In . SVG Version: 6.00 Build 0)  -->
<svg xmlns="http://www.w3.org/2000/svg" xmlns:xlink="http://www.w3.org/1999/xlink" version="1.1" id="Layer_1" x="0px" y="0px" viewBox="0 0 512 512" style="enable-background:new 0 0 512 512;" xml:space="preserve">
<g>
	<g>
		<polygon points="461.543,292.312 402.285,292.312 402.285,324.69 398.188,324.69 370.932,324.69 370.932,292.312 366.835,292.312     291.764,292.312 291.764,268.797 291.764,265.683 291.764,254.302 291.764,234.33 221.042,234.33 221.042,252.724     221.042,265.683 221.042,268.797 221.042,292.312 145.846,292.312 145.846,324.69 114.492,324.69 114.492,292.312 89.159,292.312     70.597,292.312 70.597,291.769 70.597,291.654 70.148,292.312 51.137,292.312 7.42,356.064 26.431,356.064 27.581,356.064     45.431,356.064 467.249,356.064 486.25,356.064 488.34,356.064 505.26,356.064   "/>
	</g>
</g>
<g>
	<g>
		<polygon points="497.004,387.418 481.327,387.418 31.353,387.418 15.677,387.418 0,387.418 0,472.051 512,472.051 512,387.418       "/>
	</g>
</g>
<g>
	<g>
		<polygon points="426.406,211.086 410.73,211.086 354.293,211.086 338.617,211.086 322.94,211.086 322.94,231.675 322.94,234.33     322.94,254.991 323.118,255.002 323.118,260.959 338.617,260.959 354.293,260.959 442.083,260.959 442.083,211.086   "/>
	</g>
</g>
<g>
	<g>
		<polygon points="174.064,211.086 158.376,211.086 101.951,211.086 86.274,211.086 70.597,211.086 70.597,260.959 72.635,260.959     74.851,260.959 86.274,260.959 91.771,260.959 101.951,260.959 158.376,260.959 174.064,260.959 189.688,260.959 189.688,252.023     189.73,252.023 189.73,234.33 189.73,231.675 189.73,211.086   "/>
	</g>
</g>
<g>
	<g>
		<polygon points="359.77,39.949 152.9,39.949 73.419,179.733 91.458,179.733 109.486,179.733 161.177,179.733 179.101,179.733     197.004,179.733 212.9,150.961 299.78,150.961 315.677,179.733 333.579,179.733 351.493,179.733 403.184,179.733 421.223,179.733     439.261,179.733   "/>
	</g>
</g>
<g>
</g>
<g>
</g>
<g>
</g>
<g>
</g>
<g>
</g>
<g>
</g>
<g>
</g>
<g>
</g>
<g>
</g>
<g>
</g>
<g>
</g>
<g>
</g>
<g>
</g>
<g>
</g>
<g>
</g>
</svg>
