<?xml version="1.0" encoding="iso-8859-1"?>
<!-- Generator: Adobe Illustrator 19.0.0, SVG Export Plug-In . SVG Version: 6.00 Build 0)  -->
<svg xmlns="http://www.w3.org/2000/svg" xmlns:xlink="http://www.w3.org/1999/xlink" version="1.1" id="Layer_1" x="0px" y="0px" viewBox="0 0 512 512" style="enable-background:new 0 0 512 512;" xml:space="preserve">
<g>
	<g>
		<polygon points="454.417,427.677 438.734,427.677 144.425,427.677 128.742,427.677 113.059,427.677 113.059,512 470.1,512     470.1,427.677   "/>
	</g>
</g>
<g>
	<g>
		<path d="M357.632,319.318h-82.127c0.784,4.59,1.192,9.305,1.192,14.115c0,0.523,0,1.046-0.021,1.568    c-0.094,5.364-0.701,10.612-1.777,15.683c-3.785,18.015-13.393,33.907-26.755,45.627h157.991h15.683h26.463V268.306    L357.632,319.318z"/>
	</g>
</g>
<g>
	<g>
		<polygon points="310.687,0 41.9,235.016 97.334,298.417 109.149,288.098 120.953,277.779 121.016,277.852 173.209,232.214     291.7,128.601 342.409,84.302 354.411,73.825 366.215,63.506   "/>
	</g>
</g>
<g>
	<g>
		<path d="M363.058,107.92l-0.01-0.021l-11.815,10.33l-11.804,10.319l-0.01-0.01L200.268,250.093l0.136,0.01    c17.837,1.558,34.085,8.741,46.955,19.761c3.983,3.408,7.653,7.183,10.936,11.281c3.293,4.099,6.211,8.511,8.688,13.195    l87.501-74.756l93.795-14.188L363.058,107.92z"/>
	</g>
</g>
<g>
	<g>
		<path d="M193.041,281.144c-28.826,0-52.277,23.462-52.277,52.287c0,28.825,23.451,52.277,52.277,52.277    c8.918,0,17.325-2.248,24.685-6.2c8.239-4.433,15.139-10.989,20.001-18.956v-0.01c0.01,0,0.01-0.01,0.01-0.01    c0.01,0,0.01-0.01,0.01-0.01c4.809-7.904,7.58-17.178,7.58-27.09C245.328,304.606,221.877,281.144,193.041,281.144z     M206.339,341.482v0.01c-1.453,2.373-3.503,4.318-5.949,5.635c-2.196,1.181-4.694,1.851-7.34,1.851    c-8.573,0-15.547-6.974-15.547-15.547s6.974-15.558,15.547-15.558s15.547,6.984,15.547,15.558    C208.598,336.38,207.772,339.13,206.339,341.482z"/>
	</g>
</g>
<g>
</g>
<g>
</g>
<g>
</g>
<g>
</g>
<g>
</g>
<g>
</g>
<g>
</g>
<g>
</g>
<g>
</g>
<g>
</g>
<g>
</g>
<g>
</g>
<g>
</g>
<g>
</g>
<g>
</g>
</svg>
