<?xml version="1.0" encoding="iso-8859-1"?>
<!-- Generator: Adobe Illustrator 19.0.0, SVG Export Plug-In . SVG Version: 6.00 Build 0)  -->
<svg xmlns="http://www.w3.org/2000/svg" xmlns:xlink="http://www.w3.org/1999/xlink" version="1.1" id="Layer_1" x="0px" y="0px" viewBox="0 0 512 512" style="enable-background:new 0 0 512 512;" xml:space="preserve">
<g>
	<g>
		<path d="M445.712,238.493v0.01l-15.673,5.569l-157.665,56.121h-0.01l-44.032,15.673l-21.723,7.732h254.777v-90.676    L445.712,238.493z M427.886,294.374H409.59v-18.296h18.296V294.374z"/>
	</g>
</g>
<g>
	<g>
		<path d="M480.653,197.146l15.673-5.58l15.673-5.58V22.418L26.697,208.149V336.4C10.23,352.637,0,375.186,0,400.076    c0,49.351,40.145,89.496,89.485,89.496l0.031-0.031c0.178,0.01,0.366,0.01,0.543,0.021c-0.188,0-0.376,0.01-0.575,0.01h1.014    c0.146,0,0.282,0.01,0.418,0.01c0.136,0,0.272-0.01,0.408-0.01H512v-67.574H177.152c1.682-6.813,2.581-13.918,2.581-21.243    c0-3.281-0.178-6.52-0.533-9.718h282.185v-36.091h-294.41c-7.993-13.208-19.331-24.189-32.82-31.744l-2.278-1.912h-0.01v-0.01    L480.653,197.146z M87.667,421.893c-10.522,0-19.048-8.526-19.048-19.049c0-10.522,8.526-19.048,19.048-19.048    c10.522,0,19.049,8.526,19.049,19.048C106.715,413.367,98.189,421.893,87.667,421.893z"/>
	</g>
</g>
<g>
</g>
<g>
</g>
<g>
</g>
<g>
</g>
<g>
</g>
<g>
</g>
<g>
</g>
<g>
</g>
<g>
</g>
<g>
</g>
<g>
</g>
<g>
</g>
<g>
</g>
<g>
</g>
<g>
</g>
</svg>
