<?xml version="1.0" encoding="iso-8859-1"?>
<!-- Generator: Adobe Illustrator 19.0.0, SVG Export Plug-In . SVG Version: 6.00 Build 0)  -->
<svg xmlns="http://www.w3.org/2000/svg" xmlns:xlink="http://www.w3.org/1999/xlink" version="1.1" id="Layer_1" x="0px" y="0px" viewBox="0 0 512 512" style="enable-background:new 0 0 512 512;" xml:space="preserve">
<g>
	<g>
		<polygon points="278.868,278.633 278.868,351.263 294.541,351.263 310.215,351.263 480.522,351.263 496.196,351.263     511.869,351.263 511.869,278.633   "/>
	</g>
</g>
<g>
	<g>
		<polygon points="496.196,382.61 480.522,382.61 310.215,382.61 294.541,382.61 278.868,382.61 278.868,512 511.869,512     511.869,382.61   "/>
	</g>
</g>
<g>
	<g>
		<polygon points="217.459,199.356 201.785,199.356 31.478,199.356 15.804,199.356 0.131,199.356 0.131,389.256 15.804,389.256     31.478,389.256 201.785,389.256 217.459,389.256 233.132,389.256 233.132,199.356   "/>
	</g>
</g>
<g>
	<g>
		<polygon points="193.405,126.203 177.732,126.203 55.521,126.203 39.847,126.203 24.174,126.203 24.174,168.009 39.847,168.009     55.521,168.009 177.732,168.009 193.405,168.009 209.079,168.009 209.079,126.203   "/>
	</g>
</g>
<g>
	<g>
		<polygon points="49.23,0 49.23,94.856 64.904,94.856 80.577,94.856 152.686,94.856 168.359,94.856 184.033,94.856 184.033,0   "/>
	</g>
</g>
<g>
	<g>
		<path d="M217.459,420.603h-15.673H31.478H15.804H0.131V512h233.002v-91.397H217.459z M101.214,475.425v15.674H69.867v-15.674    v-33.959h31.347V475.425z M163.385,475.425v15.674h-31.347v-15.674v-33.959h31.347V475.425z"/>
	</g>
</g>
<g>
</g>
<g>
</g>
<g>
</g>
<g>
</g>
<g>
</g>
<g>
</g>
<g>
</g>
<g>
</g>
<g>
</g>
<g>
</g>
<g>
</g>
<g>
</g>
<g>
</g>
<g>
</g>
<g>
</g>
</svg>
