<?xml version="1.0" encoding="iso-8859-1"?>
<!-- Generator: Adobe Illustrator 19.0.0, SVG Export Plug-In . SVG Version: 6.00 Build 0)  -->
<svg xmlns="http://www.w3.org/2000/svg" xmlns:xlink="http://www.w3.org/1999/xlink" version="1.1" id="Layer_1" x="0px" y="0px" viewBox="0 0 512 512" style="enable-background:new 0 0 512 512;" xml:space="preserve">
<g>
	<g>
		<path d="M281.464,397.74l-0.125-2.769c-0.564-3.668-3.542-15.705-18.923-48.18c-2.163-4.566-4.336-9.028-6.416-13.228    c-2.079,4.2-4.253,8.662-6.416,13.228c-15.391,32.486-18.359,44.513-18.923,48.18l-0.125,2.769    c-0.021,0.408-0.031,0.815-0.031,1.223c0,14.064,11.431,25.506,25.495,25.506c14.064,0,25.495-11.442,25.495-25.506    C281.495,398.555,281.485,398.148,281.464,397.74z"/>
	</g>
</g>
<g>
	<g>
		<path d="M0,227.359V512h512V227.359H0z M312.226,407.364l-0.115,2.09l-0.24,0.052c-4.963,26.331-28.129,46.31-55.871,46.31    c-27.742,0-50.907-19.978-55.871-46.31l-0.23-0.052l-0.125-2.069c-0.408-2.748-0.616-5.559-0.616-8.422    c0-0.637,0.01-1.264,0.031-1.891c-0.209-7.67,2.435-22.141,21.661-62.83c10.47-22.173,20.908-41.618,21.347-42.433l10.261-19.122    l3.542-6.593l3.542,6.593l10.261,19.122c0.439,0.815,10.877,20.261,21.347,42.433c19.226,40.688,21.87,55.16,21.661,62.83    c0.021,0.627,0.031,1.254,0.031,1.891C312.842,401.815,312.633,404.626,312.226,407.364z"/>
	</g>
</g>
<g>
	<g>
		<polygon points="365.014,0 365.014,15.673 365.014,31.347 365.014,62.464 333.667,62.464 333.667,31.347 333.667,15.673     333.667,0 303.02,0 303.02,15.673 303.02,31.347 303.02,62.464 271.673,62.464 271.673,31.347 271.673,15.673 271.673,0     240.671,0 240.671,15.673 240.671,31.347 240.671,62.464 209.324,62.464 209.324,31.347 209.324,15.673 209.324,0 178.333,0     178.333,15.673 178.333,31.347 178.333,62.464 146.986,62.464 146.986,31.347 146.986,15.673 146.986,0 64.794,0 64.794,102.64     80.468,102.64 96.141,102.64 415.859,102.64 431.532,102.64 447.206,102.64 447.206,0   "/>
	</g>
</g>
<g>
	<g>
		<polygon points="389.998,133.987 374.324,133.987 137.676,133.987 122.002,133.987 106.329,133.987 106.329,197.737     122.002,197.737 137.676,197.737 374.324,197.737 389.998,197.737 405.671,197.737 405.671,133.987   "/>
	</g>
</g>
<g>
</g>
<g>
</g>
<g>
</g>
<g>
</g>
<g>
</g>
<g>
</g>
<g>
</g>
<g>
</g>
<g>
</g>
<g>
</g>
<g>
</g>
<g>
</g>
<g>
</g>
<g>
</g>
<g>
</g>
</svg>
