<?xml version="1.0" encoding="iso-8859-1"?>
<!-- Generator: Adobe Illustrator 19.0.0, SVG Export Plug-In . SVG Version: 6.00 Build 0)  -->
<svg xmlns="http://www.w3.org/2000/svg" xmlns:xlink="http://www.w3.org/1999/xlink" version="1.1" id="Layer_1" x="0px" y="0px" viewBox="0 0 512 512" style="enable-background:new 0 0 512 512;" xml:space="preserve">
<g>
	<g>
		<polygon points="224.131,194.152 224.131,480.653 224.131,496.327 224.131,512 287.869,512 287.869,496.327 287.869,480.653     287.869,194.152   "/>
	</g>
</g>
<g>
	<g>
		<polygon points="117.029,0 117.029,162.806 132.702,162.806 148.376,162.806 363.625,162.806 379.298,162.806 394.971,162.806     394.971,0   "/>
	</g>
</g>
<g>
	<g>
		<polygon points="148.376,194.152 132.702,194.152 117.029,194.152 117.029,512 192.784,512 192.784,496.327 192.784,480.653     192.784,194.152   "/>
	</g>
</g>
<g>
	<g>
		<polygon points="379.298,194.152 363.625,194.152 319.216,194.152 319.216,480.653 319.216,496.327 319.216,512 394.971,512     394.971,194.152   "/>
	</g>
</g>
<g>
</g>
<g>
</g>
<g>
</g>
<g>
</g>
<g>
</g>
<g>
</g>
<g>
</g>
<g>
</g>
<g>
</g>
<g>
</g>
<g>
</g>
<g>
</g>
<g>
</g>
<g>
</g>
<g>
</g>
</svg>
