<?xml version="1.0" encoding="iso-8859-1"?>
<!-- Generator: Adobe Illustrator 19.0.0, SVG Export Plug-In . SVG Version: 6.00 Build 0)  -->
<svg xmlns="http://www.w3.org/2000/svg" xmlns:xlink="http://www.w3.org/1999/xlink" version="1.1" id="Layer_1" x="0px" y="0px" viewBox="0 0 512 512" style="enable-background:new 0 0 512 512;" xml:space="preserve">
<g>
	<g>
		<g>
			<path d="M151.51,262.259H512v-73.78H151.51V262.259z M318.788,212.908h25.934v25.934h-25.934V212.908z"/>
			<path d="M340.522,67.051L335.82,72.6c-19.916,23.562-49.016,37.073-79.82,37.073s-59.904-13.51-79.82-37.073l-4.702-5.548H0     v377.898h172.701l4.681-5.339c19.863-22.674,48.515-35.673,78.618-35.673s58.755,12.999,78.618,35.673l4.681,5.339H512v-87.991     H120.163V157.132H512V67.051H340.522z"/>
		</g>
	</g>
</g>
<g>
	<g>
		<polygon points="496.327,293.606 480.653,293.606 151.51,293.606 151.51,325.611 480.653,325.611 496.327,325.611 512,325.611     512,293.606   "/>
	</g>
</g>
<g>
</g>
<g>
</g>
<g>
</g>
<g>
</g>
<g>
</g>
<g>
</g>
<g>
</g>
<g>
</g>
<g>
</g>
<g>
</g>
<g>
</g>
<g>
</g>
<g>
</g>
<g>
</g>
<g>
</g>
</svg>
