<?xml version="1.0" encoding="iso-8859-1"?>
<!-- Generator: Adobe Illustrator 19.0.0, SVG Export Plug-In . SVG Version: 6.00 Build 0)  -->
<svg xmlns="http://www.w3.org/2000/svg" xmlns:xlink="http://www.w3.org/1999/xlink" version="1.1" id="Layer_1" x="0px" y="0px" viewBox="0 0 512 512" style="enable-background:new 0 0 512 512;" xml:space="preserve">
<g>
	<g>
		<path d="M496.327,306.688h-15.673h-41.848h-44.262l-16.624,57.344l-2.006,6.917H136.088l-2.006-6.917l-16.624-57.344H72.422    H31.347H15.673H0V512h512V306.688H496.327z M327.701,454.635H184.299v-31.347h143.402V454.635z"/>
	</g>
</g>
<g>
	<g>
		<path d="M296.939,85.776H185.104h-9.153l-22.194,22.309l-2.873,2.884l-40.761,40.991l-22.026,22.141v9.206v92.035h52.914    l18.62,64.261h192.742l18.62-64.261h52.14V85.776H296.939z M242.416,133.642h137.927v31.347H242.416V133.642z M326.708,292.216    H185.292v-31.347h141.417V292.216z M381.388,228.728H130.612v-31.347h250.776V228.728z"/>
	</g>
</g>
<g>
	<g>
		<polygon points="108.534,0 108.534,109.098 124.207,93.341 139.88,77.584 162.91,54.429 372.12,54.429 387.793,54.429     403.466,54.429 403.466,0   "/>
	</g>
</g>
<g>
</g>
<g>
</g>
<g>
</g>
<g>
</g>
<g>
</g>
<g>
</g>
<g>
</g>
<g>
</g>
<g>
</g>
<g>
</g>
<g>
</g>
<g>
</g>
<g>
</g>
<g>
</g>
<g>
</g>
</svg>
