<?xml version="1.0" encoding="iso-8859-1"?>
<!-- Generator: Adobe Illustrator 19.0.0, SVG Export Plug-In . SVG Version: 6.00 Build 0)  -->
<svg xmlns="http://www.w3.org/2000/svg" xmlns:xlink="http://www.w3.org/1999/xlink" version="1.1" id="Layer_1" x="0px" y="0px" viewBox="0 0 512 512" style="enable-background:new 0 0 512 512;" xml:space="preserve">
<g>
	<g>
		<path d="M256,121.776c-8.829,0-16.006,7.176-16.006,15.994c0,8.829,7.176,16.006,16.006,16.006s16.006-7.176,16.006-16.006    C272.006,128.951,264.829,121.776,256,121.776z"/>
	</g>
</g>
<g>
	<g>
		<path d="M272.211,0.983v25.559v25.527v40.073c18.761,6.679,32.216,24.619,32.216,45.628c0,26.704-21.722,48.427-48.427,48.427    s-48.427-21.722-48.427-48.427c0-21.009,13.455-38.949,32.216-45.628V51.269V25.635V0L101.522,169.392l59.807,89.116h19.518    h19.528h110.622h19.572h19.582l60.379-89.105L272.211,0.983z"/>
	</g>
</g>
<g>
	<g>
		<polygon points="390.495,379.028 374.285,379.028 137.715,379.028 121.505,379.028 105.294,379.028 105.294,512 406.706,512     406.706,379.028   "/>
	</g>
</g>
<g>
	<g>
		<polygon points="423.154,290.929 328.192,290.929 183.084,290.929 88.846,290.929 72.635,290.929 72.635,346.607 105.294,346.607     121.505,346.607 390.495,346.607 406.706,346.607 439.365,346.607 439.365,290.929   "/>
	</g>
</g>
<g>
</g>
<g>
</g>
<g>
</g>
<g>
</g>
<g>
</g>
<g>
</g>
<g>
</g>
<g>
</g>
<g>
</g>
<g>
</g>
<g>
</g>
<g>
</g>
<g>
</g>
<g>
</g>
<g>
</g>
</svg>
