<?xml version="1.0" encoding="iso-8859-1"?>
<!-- Generator: Adobe Illustrator 19.0.0, SVG Export Plug-In . SVG Version: 6.00 Build 0)  -->
<svg xmlns="http://www.w3.org/2000/svg" xmlns:xlink="http://www.w3.org/1999/xlink" version="1.1" id="Layer_1" x="0px" y="0px" viewBox="0 0 512 512" style="enable-background:new 0 0 512 512;" xml:space="preserve">
<g>
	<g>
		<rect x="271.997" y="182.178" width="21.245" height="120.007"/>
	</g>
</g>
<g>
	<g>
		<rect x="326.196" y="182.178" width="21.245" height="46.828"/>
	</g>
</g>
<g>
	<g>
		<polygon points="437.249,442.664 420.771,442.664 32.954,442.664 16.477,442.664 0,442.664 0,500.949 453.726,500.949     453.726,442.664   "/>
	</g>
</g>
<g>
	<g>
		<polygon points="167.946,11.051 167.946,38.545 184.423,38.545 237.348,38.545 237.348,44.005 237.348,71.499 200.9,71.499     184.423,71.499 167.946,71.499 167.946,91.174 184.423,91.174 200.9,91.174 222.782,91.174 222.782,124.128 200.9,124.128     184.423,124.128 167.946,124.128 167.946,149.228 184.423,149.228 200.9,149.228 261.438,149.228 277.915,149.228     294.392,149.228 294.392,11.051   "/>
	</g>
</g>
<g>
	<g>
		<polygon points="310.956,11.051 310.956,149.228 327.434,149.228 343.911,149.228 357.708,149.228 357.708,75.893 390.662,75.893     390.662,149.228 404.449,149.228 420.926,149.228 437.403,149.228 437.403,11.051   "/>
	</g>
</g>
<g>
	<g>
		<polygon points="17.169,11.051 17.169,69.391 33.647,69.391 50.124,69.391 110.661,69.391 127.138,69.391 143.615,69.391     143.615,11.051   "/>
	</g>
</g>
<g>
	<g>
		<polygon points="127.138,102.345 110.661,102.345 50.124,102.345 33.647,102.345 17.169,102.345 17.169,149.228 33.647,149.228     50.124,149.228 110.661,149.228 127.138,149.228 143.615,149.228 143.615,102.345   "/>
	</g>
</g>
<g>
	<g>
		<path d="M453.726,248.871v-66.689h-16.477h-16.477h-40.38v79.782h-54.199v73.18H239.04V182.182H32.954H16.477H0V409.71h16.477    h16.477h387.817h16.477h16.477v-21.233H512V248.871H453.726z M479.046,355.522h-25.32v-73.697h25.32V355.522z"/>
	</g>
</g>
<g>
</g>
<g>
</g>
<g>
</g>
<g>
</g>
<g>
</g>
<g>
</g>
<g>
</g>
<g>
</g>
<g>
</g>
<g>
</g>
<g>
</g>
<g>
</g>
<g>
</g>
<g>
</g>
<g>
</g>
</svg>
