<?xml version="1.0" encoding="iso-8859-1"?>
<!-- Generator: Adobe Illustrator 19.0.0, SVG Export Plug-In . SVG Version: 6.00 Build 0)  -->
<svg xmlns="http://www.w3.org/2000/svg" xmlns:xlink="http://www.w3.org/1999/xlink" version="1.1" id="Layer_1" x="0px" y="0px" viewBox="0 0 512 512" style="enable-background:new 0 0 512 512;" xml:space="preserve">
<g>
	<g>
		<rect x="259.333" y="309.123" width="17.345" height="15.924"/>
	</g>
</g>
<g>
	<g>
		<path d="M276.752,219.126h-17.429c0,18.213,0,38.201-0.01,58.838h17.554C276.846,257.317,276.804,237.338,276.752,219.126z"/>
	</g>
</g>
<g>
	<g>
		<path d="M259.312,356.195c0.01,20.114,0.01,39.508,0.01,57.114h17.408c0.063-17.607,0.105-37,0.125-57.114H259.312z"/>
	</g>
</g>
<g>
	<g>
		<path d="M228.174,219.126h-34.158h-15.579v137.582l-24.001,36.342v20.261h15.569h15.579h42.59    c-0.01-53.979-0.01-124.709,0-181.666C228.164,227.391,228.164,223.211,228.174,219.126z"/>
	</g>
</g>
<g>
	<g>
		<polygon points="341.995,444.458 326.416,444.458 185.584,444.458 170.005,444.458 154.436,444.458 154.436,464.76 185.637,512     357.564,512 357.564,444.458   "/>
	</g>
</g>
<g>
	<g>
		<path d="M341.995,219.126H307.9c0.01,4.086,0.031,8.265,0.042,12.518c0.157,56.957,0.136,127.676-0.052,181.666h18.526h15.579    h15.569V219.126H341.995z"/>
	</g>
</g>
<g>
	<g>
		<polygon points="321.996,166.379 306.615,155.993 291.035,145.481 243.973,113.716 228.404,103.205 212.825,92.693     212.825,187.967 228.404,187.967 243.973,187.967 291.035,187.967 306.615,187.967 322.194,187.967 322.194,166.087   "/>
	</g>
</g>
<g>
	<g>
		<polygon points="212.825,0 212.825,55.108 228.404,65.62 243.973,76.131 291.035,107.896 306.615,118.408 322.194,128.93     322.194,69.705   "/>
	</g>
</g>
<g>
</g>
<g>
</g>
<g>
</g>
<g>
</g>
<g>
</g>
<g>
</g>
<g>
</g>
<g>
</g>
<g>
</g>
<g>
</g>
<g>
</g>
<g>
</g>
<g>
</g>
<g>
</g>
<g>
</g>
</svg>
