<?xml version="1.0" encoding="iso-8859-1"?>
<!-- Generator: Adobe Illustrator 19.0.0, SVG Export Plug-In . SVG Version: 6.00 Build 0)  -->
<svg xmlns="http://www.w3.org/2000/svg" xmlns:xlink="http://www.w3.org/1999/xlink" version="1.1" id="Layer_1" x="0px" y="0px" viewBox="0 0 512 512" style="enable-background:new 0 0 512 512;" xml:space="preserve">
<g>
	<g>
		<path d="M115.474,60.761c-7.229,7.459-14.668,15.138-22.054,22.618h21.835h0.115h21.835h29.639V53.124V31.508v-0.366V9.548    C148.968,26.191,131.96,43.742,115.474,60.761z"/>
	</g>
</g>
<g>
	<g>
		<path d="M459.659,194.892v15.671v15.671v32.857h19.39v31.342H33.473v-31.342h19.004v-32.857v-15.671v-15.671H0v230.352h83.714    v86.716h31.342v-86.716h14.504v54.981h31.342v-54.981h11.94v86.716h31.342v-86.716h14.504v54.981h31.342v-54.981h11.941v86.716    h31.342v-86.716h14.504v54.981h31.342v-54.981h11.94v86.716h31.342v-86.716h14.504v54.981h31.342v-54.981H512V194.892H459.659z     M99.385,369.405H71.083v-28.302h28.302V369.405z M152.144,369.405h-28.302v-28.302h28.302V369.405z"/>
	</g>
</g>
<g>
	<g>
		<path d="M428.276,194.892c0.01-66.089,0.01-143.514,0.01-179.181V0.04H198.185v15.671v15.671v83.338h-83.129H99.385H83.714    c0,28.187,0.01,51.672,0.01,71.24v8.932c0,5.568,0.01,10.782,0,15.671c0.01,5.652,0.01,10.855,0.01,15.671h0.063    c0.01,3.834,0.01,7.512,0.021,11.043v21.814h0.063h15.546h0.125h15.546h0.125h281.69h0.01h15.66h0.01h15.66h0.01h0.052v-32.857    v-15.671v-15.671H428.276z M363.085,230.413H148.915v-31.342h0h214.169V230.413z M363.085,170.29H148.915v-31.342h0h214.169    V170.29z M245.292,110.103V78.761h117.793v31.342H245.292z"/>
	</g>
</g>
<g>
</g>
<g>
</g>
<g>
</g>
<g>
</g>
<g>
</g>
<g>
</g>
<g>
</g>
<g>
</g>
<g>
</g>
<g>
</g>
<g>
</g>
<g>
</g>
<g>
</g>
<g>
</g>
<g>
</g>
</svg>
