<?xml version="1.0" encoding="iso-8859-1"?>
<!-- Generator: Adobe Illustrator 19.0.0, SVG Export Plug-In . SVG Version: 6.00 Build 0)  -->
<svg xmlns="http://www.w3.org/2000/svg" xmlns:xlink="http://www.w3.org/1999/xlink" version="1.1" id="Layer_1" x="0px" y="0px" viewBox="0 0 512 512" style="enable-background:new 0 0 512 512;" xml:space="preserve">
<g>
	<g>
		<polygon points="126.934,404.825 197.287,476.599 197.287,404.825   "/>
	</g>
</g>
<g>
	<g>
		<path d="M271.673,134.875v15.673v15.673v19.08h-31.347v-19.08v-15.673v-15.673H88.252v238.602h15.673h15.673h109.035v107.175    v15.673V512h195.114V134.875H271.673z M337.387,316.823H174.613v-31.347h162.774V316.823z M337.387,254.401H174.613v-31.347    h162.774V254.401z"/>
	</g>
</g>
<g>
	<g>
		<polygon points="172.732,496.327 157.372,480.653 119.599,442.128 103.926,426.141 88.252,410.154 88.252,512 188.103,512   "/>
	</g>
</g>
<g>
	<g>
		<path d="M254.433,0c-27.658,0-50.155,22.497-50.155,50.155c0,22.768,15.235,42.026,36.049,48.138v36.582h31.347V97.259    c19.184-7.043,32.914-25.495,32.914-47.104C304.588,22.497,282.091,0,254.433,0z"/>
	</g>
</g>
<g>
</g>
<g>
</g>
<g>
</g>
<g>
</g>
<g>
</g>
<g>
</g>
<g>
</g>
<g>
</g>
<g>
</g>
<g>
</g>
<g>
</g>
<g>
</g>
<g>
</g>
<g>
</g>
<g>
</g>
</svg>
