<?xml version="1.0" encoding="iso-8859-1"?>
<!-- Generator: Adobe Illustrator 19.0.0, SVG Export Plug-In . SVG Version: 6.00 Build 0)  -->
<svg xmlns="http://www.w3.org/2000/svg" xmlns:xlink="http://www.w3.org/1999/xlink" version="1.1" id="Layer_1" x="0px" y="0px" viewBox="0 0 512 512" style="enable-background:new 0 0 512 512;" xml:space="preserve">
<g>
	<g>
		<polygon points="379.805,477.477 364.131,477.477 147.869,477.477 132.195,477.477 116.522,477.477 116.522,512 395.478,512     395.478,477.477   "/>
	</g>
</g>
<g>
	<g>
		<polygon points="406.188,382.359 389.992,382.359 121.997,382.359 105.801,382.359 80.107,382.359 80.107,446.13 95.781,446.13     116.522,446.13 395.478,446.13 416.219,446.13 431.893,446.13 431.893,382.359   "/>
	</g>
</g>
<g>
	<g>
		<path d="M386.252,305.863h-86.256V202.877c-5.089,1.975-10.324,3.605-15.673,4.869c-5.13,1.233-10.365,2.132-15.673,2.664    c-4.18,0.439-8.401,0.658-12.654,0.658s-8.474-0.219-12.643-0.658c-5.308-0.533-10.543-1.432-15.673-2.664    c-5.35-1.264-10.585-2.894-15.673-4.869v102.985h-86.267l-11.766,45.15h16.196h16.196h219.261h16.196h16.196L386.252,305.863z"/>
	</g>
</g>
<g>
	<g>
		<path d="M255.995,0c-49.633,0-89.861,40.229-89.861,89.861c0,39.727,25.778,73.435,61.524,85.295c0.01,0.01,0.01,0.01,0.021,0.01    c5.036,1.672,10.282,2.915,15.673,3.668c4.127,0.585,8.349,0.888,12.643,0.888c4.294,0,8.526-0.303,12.654-0.888    c5.392-0.752,10.637-1.996,15.673-3.678h0.01c35.746-11.86,61.524-45.568,61.524-85.295C345.856,40.229,305.627,0,255.995,0z"/>
	</g>
</g>
<g>
</g>
<g>
</g>
<g>
</g>
<g>
</g>
<g>
</g>
<g>
</g>
<g>
</g>
<g>
</g>
<g>
</g>
<g>
</g>
<g>
</g>
<g>
</g>
<g>
</g>
<g>
</g>
<g>
</g>
</svg>
