<?xml version="1.0" encoding="iso-8859-1"?>
<!-- Generator: Adobe Illustrator 19.0.0, SVG Export Plug-In . SVG Version: 6.00 Build 0)  -->
<svg xmlns="http://www.w3.org/2000/svg" xmlns:xlink="http://www.w3.org/1999/xlink" version="1.1" id="Layer_1" x="0px" y="0px" viewBox="0 0 512 512" style="enable-background:new 0 0 512 512;" xml:space="preserve">
<g>
	<g>
		<polygon points="203.287,114.278 149.867,47.815 0,47.815 0,445.631 0.974,443.001 15.715,403.253 31.43,360.876 31.43,360.865     51.744,306.083 51.744,161.947 381.703,161.947 397.418,161.947 413.133,161.947 413.133,114.278   "/>
	</g>
</g>
<g>
	<g>
		<path d="M413.133,193.376h-15.715h-15.715H83.173v99.8h338.142h20.723v-99.8H413.133z M352.903,259.379H175.734v-31.43h177.169    V259.379z"/>
	</g>
</g>
<g>
	<g>
		<polygon points="495.227,324.606 478.475,324.606 429.047,324.606 78.396,324.606 38.292,432.755 32.467,448.47 32.32,448.858     30.445,453.928 26.642,464.185 459.512,464.185 460.201,464.185 512,324.606   "/>
	</g>
</g>
<g>
</g>
<g>
</g>
<g>
</g>
<g>
</g>
<g>
</g>
<g>
</g>
<g>
</g>
<g>
</g>
<g>
</g>
<g>
</g>
<g>
</g>
<g>
</g>
<g>
</g>
<g>
</g>
<g>
</g>
</svg>
