<?xml version="1.0" encoding="iso-8859-1"?>
<!-- Generator: Adobe Illustrator 19.0.0, SVG Export Plug-In . SVG Version: 6.00 Build 0)  -->
<svg xmlns="http://www.w3.org/2000/svg" xmlns:xlink="http://www.w3.org/1999/xlink" version="1.1" id="Layer_1" x="0px" y="0px" viewBox="0 0 512 512" style="enable-background:new 0 0 512 512;" xml:space="preserve">
<g>
	<g>
		<polygon points="216.127,332.006 235.541,344.827 235.541,319.216   "/>
	</g>
</g>
<g>
	<g>
		<rect x="266.888" y="305.81" width="118.794" height="52.464"/>
	</g>
</g>
<g>
	<g>
		<polygon points="50.761,97.531 72.871,97.531 94.981,97.531 138.616,97.531 138.616,53.656 138.616,31.431 138.616,9.206   "/>
	</g>
</g>
<g>
	<g>
		<path d="M423.664,389.622h-6.635h-31.347h-139.18l-87.322-57.637l87.333-57.522h139.17h31.347h6.635h15.673V0H169.963v15.673    v15.673v97.531H72.955H57.281H41.608V512h397.73V389.622H423.664z M231.455,90.906h137.927v31.347H231.455V90.906z     M118.606,154.645h250.776v31.347H118.606V154.645z M118.606,215.249h250.776v31.347H118.606V215.249z M97.708,317.304h50.594    v31.347H97.708V317.304z M369.382,451.396H118.606v-31.347h250.776V451.396z"/>
	</g>
</g>
<g>
	<g>
		<polygon points="469.608,274.463 439.338,274.463 439.338,305.81 439.045,305.81 438.262,305.81 423.664,305.81 417.029,305.81     417.029,358.275 423.664,358.275 438.262,358.275 439.045,358.275 439.338,358.275 439.338,389.622 469.608,389.622     470.392,389.622 470.392,274.463   "/>
	</g>
</g>
<g>
</g>
<g>
</g>
<g>
</g>
<g>
</g>
<g>
</g>
<g>
</g>
<g>
</g>
<g>
</g>
<g>
</g>
<g>
</g>
<g>
</g>
<g>
</g>
<g>
</g>
<g>
</g>
<g>
</g>
</svg>
