<?xml version="1.0" encoding="iso-8859-1"?>
<!-- Generator: Adobe Illustrator 19.0.0, SVG Export Plug-In . SVG Version: 6.00 Build 0)  -->
<svg xmlns="http://www.w3.org/2000/svg" xmlns:xlink="http://www.w3.org/1999/xlink" version="1.1" id="Layer_1" x="0px" y="0px" viewBox="0 0 512 512" style="enable-background:new 0 0 512 512;" xml:space="preserve">
<g>
	<g>
		<polygon points="373.158,15.809 373.158,93.082 450.022,93.082   "/>
	</g>
</g>
<g>
	<g>
		<path d="M341.707,124.533V0H56.894v189.477h77.525l78.783,67.534h179.896h31.45v167.976v18.545h25.391V350.88V124.533H341.707z     M290.359,162.179H125.12v-31.45h165.24V162.179z M290.359,96.856H125.12v-31.45h165.24V96.856z"/>
	</g>
</g>
<g>
	<g>
		<path d="M481.388,320.709v154.274h-56.642c0.01,0.063,0.01,0.126,0.021,0.189c0.031,0.315,0.073,0.629,0.115,0.944    c0.031,0.252,0.063,0.514,0.105,0.765c0.042,0.283,0.084,0.577,0.126,0.86c0.01,0.021,0.01,0.042,0.021,0.073    c0.042,0.294,0.094,0.577,0.157,0.87c0.136,0.702,0.294,1.415,0.472,2.107c0.105,0.451,0.22,0.902,0.346,1.342    c0.147,0.503,0.304,1.017,0.472,1.52c0.147,0.461,0.304,0.912,0.461,1.352c0.189,0.503,0.377,1.006,0.598,1.499    c0.126,0.335,0.273,0.681,0.43,1.017c0.168,0.398,0.346,0.786,0.535,1.174c0.21,0.419,0.419,0.839,0.639,1.247    c0.241,0.472,0.493,0.933,0.755,1.394c0.168,0.283,0.336,0.566,0.514,0.849c0.262,0.419,0.524,0.839,0.797,1.258    c0.136,0.21,0.273,0.419,0.419,0.619c0.314,0.472,0.65,0.943,0.996,1.405c0.398,0.535,0.807,1.048,1.227,1.552    c0.21,0.262,0.419,0.514,0.639,0.755c0.283,0.325,0.566,0.65,0.86,0.965c0.461,0.503,0.943,1.006,1.436,1.478    c0.493,0.493,0.996,0.964,1.52,1.415c0.472,0.43,0.965,0.849,1.468,1.247c0.136,0.115,0.273,0.231,0.419,0.336    c0.388,0.304,0.776,0.608,1.174,0.891c0.66,0.493,1.352,0.965,2.044,1.405c0.283,0.178,0.566,0.356,0.849,0.524    c0.566,0.346,1.132,0.681,1.719,0.996c0.577,0.314,1.174,0.618,1.772,0.912c1.457,0.702,2.956,1.321,4.497,1.845    c0.294,0.105,0.598,0.199,0.902,0.294c0.294,0.094,0.598,0.189,0.891,0.273c0.199,0.063,0.409,0.115,0.608,0.168    c0.545,0.157,1.09,0.294,1.635,0.419c0.493,0.115,0.985,0.22,1.489,0.315c0.304,0.063,0.618,0.115,0.923,0.168    c0.744,0.126,1.499,0.231,2.254,0.315c0.22,0.031,0.44,0.052,0.66,0.073c0.325,0.031,0.65,0.063,0.985,0.084    c0.325,0.021,0.66,0.042,0.985,0.052c0.66,0.031,1.321,0.052,1.981,0.052c22.676,0,41.116-18.44,41.116-41.116V320.709H481.388z"/>
	</g>
</g>
<g>
	<g>
		<path d="M405.509,511.423c-0.325-0.482-0.65-0.964-0.964-1.457c-0.314-0.493-0.629-0.985-0.923-1.489    c-0.252-0.398-0.493-0.797-0.723-1.206c-0.147-0.252-0.294-0.503-0.43-0.755c-0.964-1.688-1.845-3.407-2.663-5.179    c-0.157-0.325-0.304-0.66-0.451-0.985c-0.43-0.954-0.828-1.908-1.216-2.893c-0.21-0.524-0.409-1.059-0.608-1.594    c-0.031-0.073-0.063-0.157-0.084-0.241c-0.231-0.629-0.451-1.258-0.66-1.887c-0.493-1.468-0.933-2.967-1.331-4.476    c-0.031-0.136-0.063-0.283-0.105-0.419c-0.178-0.702-0.346-1.405-0.503-2.118c-0.042-0.147-0.073-0.294-0.094-0.451    c-0.084-0.356-0.157-0.713-0.231-1.069c-0.073-0.356-0.147-0.713-0.21-1.069c-0.042-0.21-0.084-0.419-0.115-0.629    c-0.042-0.21-0.073-0.419-0.105-0.629c-0.073-0.419-0.136-0.839-0.199-1.258c-0.084-0.566-0.168-1.132-0.231-1.698    c-0.073-0.535-0.136-1.08-0.189-1.625c-0.063-0.608-0.115-1.227-0.168-1.835c-0.052-0.713-0.094-1.426-0.126-2.139    c-0.052-1.143-0.084-2.285-0.084-3.439v-10.892v-171.53H201.565l-78.783-67.534H77.64H5.221v251.277    C5.221,494.147,23.074,512,45.016,512h360.881C405.761,511.811,405.635,511.612,405.509,511.423z"/>
	</g>
</g>
<g>
</g>
<g>
</g>
<g>
</g>
<g>
</g>
<g>
</g>
<g>
</g>
<g>
</g>
<g>
</g>
<g>
</g>
<g>
</g>
<g>
</g>
<g>
</g>
<g>
</g>
<g>
</g>
<g>
</g>
</svg>
