<?xml version="1.0" encoding="iso-8859-1"?>
<!-- Generator: Adobe Illustrator 19.0.0, SVG Export Plug-In . SVG Version: 6.00 Build 0)  -->
<svg xmlns="http://www.w3.org/2000/svg" xmlns:xlink="http://www.w3.org/1999/xlink" version="1.1" id="Layer_1" x="0px" y="0px" viewBox="0 0 512 512" style="enable-background:new 0 0 512 512;" xml:space="preserve">
<g>
	<g>
		<polygon points="422.647,62.131 422.647,8.771 326.716,8.771 326.716,62.131 359.606,62.131 359.606,41.661 389.756,41.661     389.756,62.131 359.606,62.131 359.606,78.576 359.606,95.021 359.606,116.215 387.563,116.215 387.563,149.105 326.716,149.105     326.716,95.021 326.716,78.576 326.716,62.131 303.144,62.131 303.144,8.771 207.212,8.771 207.212,61.857 207.212,62.131     240.103,62.131 240.103,61.857 240.103,41.661 270.252,41.661 270.252,62.131 240.103,62.131 240.103,78.576 240.103,95.021     240.103,116.215 268.06,116.215 268.06,149.105 207.212,149.105 207.212,95.021 207.212,78.576 207.212,62.131 183.64,62.131     183.64,8.771 87.709,8.771 87.709,61.857 87.709,62.131 120.6,62.131 120.6,61.857 120.6,41.661 150.75,41.661 150.75,62.131     120.6,62.131 120.6,78.576 120.6,95.021 120.6,116.215 148.556,116.215 148.556,149.105 87.709,149.105 87.709,95.021     87.709,78.576 87.709,62.131 0,62.131 0,171.81 16.446,171.81 32.891,171.81 479.109,171.81 495.554,171.81 512,171.81     512,62.131   "/>
	</g>
</g>
<g>
	<g>
		<polygon points="32.891,372.872 16.446,372.872 0,372.872 0,422.756 16.446,422.756 32.891,422.756 97.192,422.756     97.192,372.872   "/>
	</g>
</g>
<g>
	<g>
		<polygon points="32.891,290.097 16.446,290.097 0,290.097 0,339.982 16.446,339.982 32.891,339.982 97.192,339.982     97.192,290.097   "/>
	</g>
</g>
<g>
	<g>
		<polygon points="32.891,455.648 16.446,455.648 0,455.648 0,503.229 97.192,503.229 97.192,486.783 97.192,470.339     97.192,455.648   "/>
	</g>
</g>
<g>
	<g>
		<polygon points="495.554,455.648 479.109,455.648 130.084,455.648 130.084,470.339 130.084,486.783 130.084,503.229 512,503.229     512,455.648   "/>
	</g>
</g>
<g>
	<g>
		<polygon points="495.554,372.872 479.109,372.872 130.084,372.872 130.084,422.756 479.109,422.756 495.554,422.756 512,422.756     512,372.872   "/>
	</g>
</g>
<g>
	<g>
		<polygon points="495.554,290.097 479.109,290.097 130.084,290.097 130.084,339.982 479.109,339.982 495.554,339.982 512,339.982     512,290.097   "/>
	</g>
</g>
<g>
	<g>
		<polygon points="32.891,204.702 16.446,204.702 0,204.702 0,257.206 16.446,257.206 32.891,257.206 97.192,257.206     97.192,204.702   "/>
	</g>
</g>
<g>
	<g>
		<polygon points="495.554,204.702 479.109,204.702 130.084,204.702 130.084,257.206 479.109,257.206 495.554,257.206 512,257.206     512,204.702   "/>
	</g>
</g>
<g>
</g>
<g>
</g>
<g>
</g>
<g>
</g>
<g>
</g>
<g>
</g>
<g>
</g>
<g>
</g>
<g>
</g>
<g>
</g>
<g>
</g>
<g>
</g>
<g>
</g>
<g>
</g>
<g>
</g>
</svg>
