<?xml version="1.0" encoding="iso-8859-1"?>
<!-- Generator: Adobe Illustrator 19.0.0, SVG Export Plug-In . SVG Version: 6.00 Build 0)  -->
<svg xmlns="http://www.w3.org/2000/svg" xmlns:xlink="http://www.w3.org/1999/xlink" version="1.1" id="Layer_1" x="0px" y="0px" viewBox="0 0 512 512" style="enable-background:new 0 0 512 512;" xml:space="preserve">
<g>
	<g>
		<path d="M308.245,0h-104.49h-9.404v370.437h124.343V0H308.245z M285.605,86.03h-59.21V54.683h59.21V86.03z"/>
	</g>
</g>
<g>
	<g>
		<path d="M36.571,401.784V512h126.433V401.784H36.571z M116.333,455.576H86.379v-29.954h29.954V455.576z"/>
	</g>
</g>
<g>
	<g>
		<path d="M36.571,0v370.437h126.433V0H36.571z M129.915,86.03h-59.21V54.683h59.21V86.03z"/>
	</g>
</g>
<g>
	<g>
		<path d="M350.041,401.784V512h125.388V401.784H350.041z M427.711,455.576h-29.954v-29.954h29.954V455.576z"/>
	</g>
</g>
<g>
	<g>
		<path d="M350.041,0v370.437h125.388V0H350.041z M443.385,86.03h-59.21V54.683h59.21V86.03z"/>
	</g>
</g>
<g>
	<g>
		<path d="M194.351,401.784V512h9.404h104.49h10.449V401.784H194.351z M270.977,455.576h-29.954v-29.954h29.954V455.576z"/>
	</g>
</g>
<g>
</g>
<g>
</g>
<g>
</g>
<g>
</g>
<g>
</g>
<g>
</g>
<g>
</g>
<g>
</g>
<g>
</g>
<g>
</g>
<g>
</g>
<g>
</g>
<g>
</g>
<g>
</g>
<g>
</g>
</svg>
