<?xml version="1.0" encoding="iso-8859-1"?>
<!-- Generator: Adobe Illustrator 19.0.0, SVG Export Plug-In . SVG Version: 6.00 Build 0)  -->
<svg xmlns="http://www.w3.org/2000/svg" xmlns:xlink="http://www.w3.org/1999/xlink" version="1.1" id="Layer_1" x="0px" y="0px" viewBox="0 0 512 512" style="enable-background:new 0 0 512 512;" xml:space="preserve">
<g>
	<g>
		<rect x="166.87" y="103.037" width="63.564" height="29.041"/>
	</g>
</g>
<g>
	<g>
		<path d="M440.008,40.859l44.567,44.808v369.609h-48.478h-11.922v1.088c0,4.757,0.759,9.328,2.165,13.624    c2.538,7.769,7.197,14.602,13.295,19.789c4.769,4.076,10.427,7.142,16.624,8.867c3.769,1.066,7.735,1.626,11.833,1.626v-0.341    c4.054,0,8.01-0.439,11.823-1.275C498.398,493.48,512,476.482,512,456.363V40.859H440.008z"/>
	</g>
</g>
<g>
	<g>
		<rect x="183.526" y="294.39" width="30.25" height="22.383"/>
	</g>
</g>
<g>
	<g>
		<polygon points="428.437,75.976 412.955,60.406 381.926,29.211 358.588,5.742 348.962,5.742 96.89,5.742 96.89,132.079     133.909,132.079 133.909,70.075 263.4,70.075 263.4,132.079 391.211,132.079 412.955,132.079 424.174,132.079 424.174,422.311     430.657,422.311 451.611,422.311 451.611,108.939 451.611,99.269   "/>
	</g>
</g>
<g>
	<g>
		<polygon points="99.506,165.043 32.963,165.043 16.481,165.043 0,165.043 0,199.028 16.481,207.939 32.963,216.851     115.405,261.428 211.219,261.428 282.673,261.428 391.211,202.742 391.211,165.043   "/>
	</g>
</g>
<g>
	<g>
		<path d="M398.858,489.777c-2.516-5.197-4.462-10.713-5.757-16.482c-1.241-5.45-1.89-11.12-1.89-16.933V416.74V240.222    l-100.198,54.17h-41.599h-2.67v55.346h-96.177v-55.346h-43.501l-74.102-40.073l-16.482-8.911L0,236.497v200.615    c0,38.127,31.019,69.146,69.136,69.146H409.66C405.385,501.27,401.749,495.742,398.858,489.777z"/>
	</g>
</g>
<g>
</g>
<g>
</g>
<g>
</g>
<g>
</g>
<g>
</g>
<g>
</g>
<g>
</g>
<g>
</g>
<g>
</g>
<g>
</g>
<g>
</g>
<g>
</g>
<g>
</g>
<g>
</g>
<g>
</g>
</svg>
