<?xml version="1.0" encoding="iso-8859-1"?>
<!-- Generator: Adobe Illustrator 19.0.0, SVG Export Plug-In . SVG Version: 6.00 Build 0)  -->
<svg xmlns="http://www.w3.org/2000/svg" xmlns:xlink="http://www.w3.org/1999/xlink" version="1.1" id="Layer_1" x="0px" y="0px" viewBox="0 0 512 512" style="enable-background:new 0 0 512 512;" xml:space="preserve">
<g>
	<g>
		<path d="M65.591,107.842c-0.58,0-1.149-0.01-1.729-0.022c-0.322-0.01-0.645-0.022-0.956-0.032    c-0.59-0.022-1.171-0.053-1.751-0.096c-0.677-0.043-1.343-0.097-2.009-0.161c-0.065-0.01-0.129-0.01-0.193-0.022    c-0.73-0.075-1.461-0.161-2.181-0.258c-0.73-0.097-1.45-0.204-2.17-0.322c-0.59-0.108-1.192-0.215-1.772-0.323    c-0.903-0.183-1.794-0.376-2.675-0.591c-0.494-0.118-0.978-0.236-1.472-0.376c-0.311-0.075-0.623-0.161-0.934-0.258    c-0.548-0.14-1.086-0.301-1.623-0.472c-0.645-0.193-1.289-0.397-1.923-0.634c-0.677-0.226-1.354-0.472-2.02-0.73    c-0.322-0.118-0.645-0.248-0.956-0.376c-0.484-0.183-0.966-0.387-1.44-0.59c-0.484-0.204-0.978-0.419-1.45-0.645    c-0.849-0.387-1.698-0.795-2.536-1.225c-0.419-0.215-0.838-0.429-1.257-0.667c-0.322-0.161-0.634-0.333-0.946-0.515    c-0.451-0.247-0.903-0.505-1.343-0.763c-4.556-2.707-8.821-5.984-12.688-9.798c-1.192-1.182-2.343-2.396-3.427-3.653    C5.963,73.665,0.279,58.947,0.022,43.335L0,437.518c0,33.392,25.388,61.273,57.866,65.13l0.472,0.462h25.087v-16.115v-16.115    V107.842H65.591z"/>
	</g>
</g>
<g>
	<g>
		<path d="M259.196,283.332c-15.847,0-28.74,12.903-28.74,28.75v15.159h57.48v-15.159    C287.936,296.236,275.043,283.332,259.196,283.332z"/>
	</g>
</g>
<g>
	<g>
		<path d="M259.196,213.045c-10.497,0-19.038,8.531-19.038,19.028c0,10.497,8.541,19.028,19.038,19.028s19.028-8.531,19.028-19.028    C278.224,221.576,269.693,213.045,259.196,213.045z"/>
	</g>
</g>
<g>
	<g>
		<path d="M115.658,107.842v363.036v16.115v16.115h285.315v-16.115v-16.115V107.842H115.658z M198.224,312.083    c0-18.791,8.541-35.616,21.939-46.822c-7.639-8.95-12.238-20.543-12.238-33.188c0-28.268,23.002-51.26,51.27-51.26    c28.267,0,51.259,22.992,51.259,51.26c0,12.645-4.599,24.239-12.226,33.188c13.398,11.206,21.939,28.03,21.939,46.822v47.391    H198.224V312.083z M348.65,420.995h-4.104H169.743v-16.728v-15.504H348.65V420.995z"/>
	</g>
</g>
<g>
	<g>
		<path d="M65.591,8.891c-8.907,0-17.287,3.47-23.583,9.776c-6.253,6.242-9.723,14.537-9.777,23.379    c0.01,0.269,0.022,0.505,0.022,0.752v0.043c0.086,5.103,1.353,9.938,3.513,14.258c0.462,0.924,0.967,1.826,1.515,2.697    c0.01,0.01,0.022,0.032,0.032,0.053c0.472,0.752,0.967,1.472,1.504,2.181c2.622,3.545,5.931,6.554,9.712,8.831    c0.451,0.269,0.913,0.537,1.375,0.785h0.01c0.698,0.387,1.418,0.73,2.138,1.064c4.147,1.859,8.734,2.901,13.538,2.901h335.381    V8.891H65.591z"/>
	</g>
</g>
<g>
	<g>
		<polygon points="512,119.972 433.204,119.972 433.204,136.088 433.204,152.203 433.204,196.909 433.204,213.024 433.204,229.14     512,229.14 492.371,174.562   "/>
	</g>
</g>
<g>
	<g>
		<polygon points="512,247.34 433.204,247.34 433.204,263.456 433.204,279.572 433.204,324.278 433.204,340.393 433.204,356.509     512,356.509 492.371,301.931   "/>
	</g>
</g>
<g>
	<g>
		<polygon points="512,374.72 433.204,374.72 433.204,390.836 433.204,406.951 433.204,451.657 433.204,467.773 433.204,483.888     512,483.888 492.371,429.299   "/>
	</g>
</g>
<g>
</g>
<g>
</g>
<g>
</g>
<g>
</g>
<g>
</g>
<g>
</g>
<g>
</g>
<g>
</g>
<g>
</g>
<g>
</g>
<g>
</g>
<g>
</g>
<g>
</g>
<g>
</g>
<g>
</g>
</svg>
