<?xml version="1.0" encoding="iso-8859-1"?>
<!-- Generator: Adobe Illustrator 19.0.0, SVG Export Plug-In . SVG Version: 6.00 Build 0)  -->
<svg xmlns="http://www.w3.org/2000/svg" xmlns:xlink="http://www.w3.org/1999/xlink" version="1.1" id="Layer_1" x="0px" y="0px" viewBox="0 0 512 512" style="enable-background:new 0 0 512 512;" xml:space="preserve">
<g>
	<g>
		<rect x="47.966" y="41.499" width="41.51" height="119.754"/>
	</g>
</g>
<g>
	<g>
		<rect x="422.524" y="41.499" width="42.135" height="119.754"/>
	</g>
</g>
<g>
	<g>
		<path d="M121.813,0v161.253h268.374V0H121.813z M332.919,131.859H179.081V99.522h153.837V131.859z M332.919,80.486H179.081V48.15    h153.837V80.486z"/>
	</g>
</g>
<g>
	<g>
		<path d="M256,239.293c-5.939,0-10.779,4.84-10.779,10.779c0,5.939,4.84,10.779,10.779,10.779s10.779-4.84,10.779-10.779    C266.779,244.132,261.939,239.293,256,239.293z"/>
	</g>
</g>
<g>
	<g>
		<path d="M448.534,193.59h-16.168H272.168v16.513c15.791,6.403,26.947,21.903,26.947,39.968c0,23.778-19.337,43.116-43.116,43.116    c-23.778,0-43.116-19.337-43.116-43.116c0-18.065,11.156-33.566,26.947-39.968V193.59H79.635H63.466H47.298v296.518l16.168-20.006    l16.168-20.006l28.079-34.751h296.572l28.079,34.751l16.168,20.006l16.168,20.006V193.59H448.534z"/>
	</g>
</g>
<g>
	<g>
		<polygon points="427.752,495.832 414.688,479.663 388.84,447.682 123.16,447.682 97.312,479.663 84.248,495.832 71.184,512     440.816,512   "/>
	</g>
</g>
<g>
</g>
<g>
</g>
<g>
</g>
<g>
</g>
<g>
</g>
<g>
</g>
<g>
</g>
<g>
</g>
<g>
</g>
<g>
</g>
<g>
</g>
<g>
</g>
<g>
</g>
<g>
</g>
<g>
</g>
</svg>
