<?xml version="1.0" encoding="iso-8859-1"?>
<!-- Generator: Adobe Illustrator 19.0.0, SVG Export Plug-In . SVG Version: 6.00 Build 0)  -->
<svg xmlns="http://www.w3.org/2000/svg" xmlns:xlink="http://www.w3.org/1999/xlink" version="1.1" id="Layer_1" x="0px" y="0px" viewBox="0 0 512 512" style="enable-background:new 0 0 512 512;" xml:space="preserve">
<g>
	<g>
		<polygon points="371.273,285.957 355.516,285.957 156.484,285.957 140.727,285.957 105.691,285.957 105.691,389.402     240.327,389.402 240.327,512 271.673,512 271.673,389.402 406.309,389.402 406.309,285.957   "/>
	</g>
</g>
<g>
	<g>
		<polygon points="131.657,0 131.657,73.488 161.228,73.488 176.974,73.488 335.026,73.488 350.772,73.488 380.343,73.488     380.343,0   "/>
	</g>
</g>
<g>
	<g>
		<polygon points="353.792,104.835 338.045,104.835 322.299,104.835 189.701,104.835 173.955,104.835 158.208,104.835     143.757,254.61 159.504,254.61 175.25,254.61 336.75,254.61 352.496,254.61 368.243,254.61   "/>
	</g>
</g>
<g>
</g>
<g>
</g>
<g>
</g>
<g>
</g>
<g>
</g>
<g>
</g>
<g>
</g>
<g>
</g>
<g>
</g>
<g>
</g>
<g>
</g>
<g>
</g>
<g>
</g>
<g>
</g>
<g>
</g>
</svg>
