<?xml version="1.0" encoding="iso-8859-1"?>
<!-- Generator: Adobe Illustrator 19.0.0, SVG Export Plug-In . SVG Version: 6.00 Build 0)  -->
<svg xmlns="http://www.w3.org/2000/svg" xmlns:xlink="http://www.w3.org/1999/xlink" version="1.1" id="Layer_1" x="0px" y="0px" viewBox="0 0 512 512" style="enable-background:new 0 0 512 512;" xml:space="preserve">
<g>
	<g>
		<path d="M120.345,300.565c-9.29,0-16.851,7.56-16.851,16.861c0,9.29,7.56,16.851,16.851,16.851s16.851-7.56,16.851-16.851    C137.196,308.125,129.636,300.565,120.345,300.565z"/>
	</g>
</g>
<g>
	<g>
		<rect x="177.399" y="172.711" width="157.203" height="27.336"/>
	</g>
</g>
<g>
	<g>
		<path d="M120.345,365.734c-14.261,0-25.858,11.597-25.858,25.858v13.275h51.716v-13.275    C146.203,377.331,134.606,365.734,120.345,365.734z"/>
	</g>
</g>
<g>
	<g>
		<path d="M366.059,172.711v58.794H145.941v-58.794H0v310.306h512V172.711H366.059z M177.661,436.324H63.03v-44.732    c0-17.375,7.77-32.978,20.028-43.485c-6.889-8.347-11.021-19.042-11.021-30.681c0-26.644,21.664-48.319,48.308-48.319    c26.644,0,48.308,21.674,48.308,48.319c0,11.639-4.131,22.335-11.021,30.681c12.258,10.507,20.028,26.11,20.028,43.485V436.324z     M449.243,432.979H228.171v-31.457h221.072V432.979z M449.243,373.263H228.171v-31.457h221.072V373.263z M449.243,313.546H228.171    v-31.457h221.072V313.546z"/>
	</g>
</g>
<g>
	<g>
		<path d="M312.728,94.97V28.983H199.272V94.97h-53.331v77.742h31.457v-46.284h21.873v34.561h113.456v-34.561h21.873v46.284h31.457    V94.97H312.728z M281.271,129.531h-50.542V60.44h50.542V129.531z"/>
	</g>
</g>
<g>
	<g>
		<rect x="244.057" y="71.419" width="23.888" height="23.004"/>
	</g>
</g>
<g>
</g>
<g>
</g>
<g>
</g>
<g>
</g>
<g>
</g>
<g>
</g>
<g>
</g>
<g>
</g>
<g>
</g>
<g>
</g>
<g>
</g>
<g>
</g>
<g>
</g>
<g>
</g>
<g>
</g>
</svg>
