<?xml version="1.0" encoding="iso-8859-1"?>
<!-- Generator: Adobe Illustrator 19.0.0, SVG Export Plug-In . SVG Version: 6.00 Build 0)  -->
<svg xmlns="http://www.w3.org/2000/svg" xmlns:xlink="http://www.w3.org/1999/xlink" version="1.1" id="Layer_1" x="0px" y="0px" viewBox="0 0 512 512" style="enable-background:new 0 0 512 512;" xml:space="preserve">
<g>
	<g>
		<path d="M15.673,448.564H0V512h63.436v-15.673C63.436,469.995,42.005,448.564,15.673,448.564z"/>
	</g>
</g>
<g>
	<g>
		<path d="M496.327,448.564c-26.331,0-47.762,21.431-47.762,47.762V512H512v-63.436H496.327z"/>
	</g>
</g>
<g>
	<g>
		<path d="M460.8,230.463v84.052H51.2v-84.052H0v186.755h15.673c43.625,0,79.109,35.485,79.109,79.109V512h322.435v-15.673    c0-43.624,35.485-79.109,79.109-79.109H512V230.463H460.8z M128.815,426.726h-27.752v-27.753h27.752V426.726z M128.815,376.456    h-27.752v-27.752h27.752V376.456z M185.24,426.726h-27.752v-27.753h27.752V426.726z M185.24,376.456h-27.752v-27.752h27.752    V376.456z M241.664,426.726h-27.753v-27.753h27.753V426.726z M241.664,376.456h-27.753v-27.752h27.753V376.456z M298.089,426.726    h-27.753v-27.753h27.753V426.726z M298.089,376.456h-27.753v-27.752h27.753V376.456z M354.513,426.726H326.76v-27.753h27.753    V426.726z M354.513,376.456H326.76v-27.752h27.753V376.456z M410.937,426.726h-27.752v-27.753h27.752V426.726z M410.937,376.456    h-27.752v-27.752h27.752V376.456z"/>
	</g>
</g>
<g>
	<g>
		<path d="M211.519,203.337c6.886,17.899,24.336,30.72,44.481,30.72s37.595-12.821,44.481-30.72H211.519z"/>
	</g>
</g>
<g>
	<g>
		<path d="M480.653,109.641v14.284h-63.227V0H94.574v123.925H31.347v-14.284H0v14.284v79.412v14.973h31.347v-14.973H51.2h31.347    v42.799v37.031h346.906v-37.031v-42.799H460.8h19.853v14.973H512v-14.973v-79.412v-14.284H480.653z M181.436,55.902h149.128    v31.347H181.436V55.902z M181.436,104.145h149.128v31.347H181.436V104.145z M417.299,203.337h-84.143    c-3.239,14.89-10.731,28.536-21.828,39.434c-1.191,1.17-2.414,2.288-3.657,3.365c-14.346,12.466-32.517,19.268-51.67,19.268    s-37.324-6.802-51.67-19.268c-1.243-1.076-2.466-2.194-3.657-3.365c-11.097-10.898-18.589-24.545-21.828-39.434H94.571V171.99    l0.003-0.04v0.04h15.673h15.673h260.159h15.673h15.546V203.337z"/>
	</g>
</g>
<g>
</g>
<g>
</g>
<g>
</g>
<g>
</g>
<g>
</g>
<g>
</g>
<g>
</g>
<g>
</g>
<g>
</g>
<g>
</g>
<g>
</g>
<g>
</g>
<g>
</g>
<g>
</g>
<g>
</g>
</svg>
