<?xml version="1.0" encoding="iso-8859-1"?>
<!-- Generator: Adobe Illustrator 19.0.0, SVG Export Plug-In . SVG Version: 6.00 Build 0)  -->
<svg xmlns="http://www.w3.org/2000/svg" xmlns:xlink="http://www.w3.org/1999/xlink" version="1.1" id="Layer_1" x="0px" y="0px" viewBox="0 0 512 512" style="enable-background:new 0 0 512 512;" xml:space="preserve">
<g>
	<g>
		<rect x="159.472" y="300.116" width="43.454" height="46.32"/>
	</g>
</g>
<g>
	<g>
		<rect x="159.472" y="377.783" width="43.454" height="46.32"/>
	</g>
</g>
<g>
	<g>
		<rect x="159.472" y="222.448" width="43.454" height="46.32"/>
	</g>
</g>
<g>
	<g>
		<rect x="234.276" y="377.783" width="43.454" height="46.32"/>
	</g>
</g>
<g>
	<g>
		<rect x="234.276" y="222.448" width="43.454" height="46.32"/>
	</g>
</g>
<g>
	<g>
		<rect x="234.276" y="300.116" width="43.454" height="46.32"/>
	</g>
</g>
<g>
	<g>
		<rect x="309.07" y="222.448" width="43.454" height="46.32"/>
	</g>
</g>
<g>
	<g>
		<path d="M67.137,0v512h377.725V0H67.137z M383.875,268.772v31.347v155.336h-74.801h-31.347h-43.454h-31.347h-74.801v-77.668    v-31.347v-46.321v-31.347v-77.667h74.801h31.347h43.454h31.347h74.801V268.772z M383.875,156.652h-255.75V55.902h255.75V156.652z"/>
	</g>
</g>
<g>
	<g>
		<rect x="159.472" y="87.249" width="193.055" height="38.056"/>
	</g>
</g>
<g>
	<g>
		<polygon points="309.074,300.119 309.074,346.439 309.074,377.786 309.074,424.107 352.528,424.107 352.528,300.119   "/>
	</g>
</g>
<g>
</g>
<g>
</g>
<g>
</g>
<g>
</g>
<g>
</g>
<g>
</g>
<g>
</g>
<g>
</g>
<g>
</g>
<g>
</g>
<g>
</g>
<g>
</g>
<g>
</g>
<g>
</g>
<g>
</g>
</svg>
