<?xml version="1.0" encoding="iso-8859-1"?>
<!-- Generator: Adobe Illustrator 19.0.0, SVG Export Plug-In . SVG Version: 6.00 Build 0)  -->
<svg xmlns="http://www.w3.org/2000/svg" xmlns:xlink="http://www.w3.org/1999/xlink" version="1.1" id="Layer_1" x="0px" y="0px" viewBox="0 0 512 512" style="enable-background:new 0 0 512 512;" xml:space="preserve">
<g>
	<g>
		<polygon points="205.219,392.478 227.749,407.647 227.749,377.339   "/>
	</g>
</g>
<g>
	<g>
		<rect x="415.944" y="363.567" width="24.31" height="57.885"/>
	</g>
</g>
<g>
	<g>
		<rect x="259.156" y="363.567" width="125.38" height="57.885"/>
	</g>
</g>
<g>
	<g>
		<path d="M339.561,157.924l140.843,133.148H194.812V157.924h-70.825v263.135H52.284c-1.675,0.754-3.403,1.644-5.109,2.691    c-10.647,6.564-15.83,16.437-15.83,30.193c0,30.717,29.754,36.171,35.669,36.957H512V157.924H339.561z M471.662,452.864h-55.717    v17.316h-31.408v-17.316H238.658l-89.711-60.408l89.722-60.293h145.868v-17.829h31.408v17.829h55.717V452.864z"/>
	</g>
</g>
<g>
	<g>
		<path d="M50.326,25.111C22.53,25.111,0,47.64,0,75.447v366.697c0-39.186,32.654-49.394,44.463-51.812    c2.607-0.523,4.198-0.68,4.198-0.68H92.58V126.516V25.111H50.326z"/>
	</g>
</g>
<g>
	<g>
		<path d="M401.465,259.664l-107.624-101.74h45.719l-33.229-31.408l-14.207-13.432l-97.312-91.983v104.546v0.869v15.704v15.704    h31.408V142.22h0v-15.704v-0.869V94.009l34.392,32.507l9.935,9.391l6.679,6.313l16.604,15.704H226.22v101.74H401.465z     M260.549,174.057l57.372,54.231h-57.372V174.057z"/>
	</g>
</g>
<g>
</g>
<g>
</g>
<g>
</g>
<g>
</g>
<g>
</g>
<g>
</g>
<g>
</g>
<g>
</g>
<g>
</g>
<g>
</g>
<g>
</g>
<g>
</g>
<g>
</g>
<g>
</g>
<g>
</g>
</svg>
