<?xml version="1.0" encoding="iso-8859-1"?>
<!-- Generator: Adobe Illustrator 19.0.0, SVG Export Plug-In . SVG Version: 6.00 Build 0)  -->
<svg xmlns="http://www.w3.org/2000/svg" xmlns:xlink="http://www.w3.org/1999/xlink" version="1.1" id="Layer_1" x="0px" y="0px" viewBox="0 0 512 512" style="enable-background:new 0 0 512 512;" xml:space="preserve">
<g>
	<g>
		<path d="M413.029,201.476v260.868c0,18.731,15.238,33.968,33.968,33.968c18.731,0,33.968-15.238,33.968-33.968V201.476H413.029z"/>
	</g>
</g>
<g>
	<g>
		<rect x="31.035" width="350.62" height="78.164"/>
	</g>
</g>
<g>
	<g>
		<path d="M381.655,462.345V109.539H31.035v353.956c0,26.794,21.711,48.505,48.494,48.505h325.039    C390.555,500.005,381.655,482.194,381.655,462.345z M321.301,427.446H98.615v-31.374h222.686V427.446z M321.301,349.051H98.615    v-31.374h222.686V349.051z M321.301,273.313H98.615v-31.374h222.686V273.313z M321.301,197.962H98.615v-31.375h222.686V197.962z"/>
	</g>
</g>
<g>
</g>
<g>
</g>
<g>
</g>
<g>
</g>
<g>
</g>
<g>
</g>
<g>
</g>
<g>
</g>
<g>
</g>
<g>
</g>
<g>
</g>
<g>
</g>
<g>
</g>
<g>
</g>
<g>
</g>
</svg>
