<?xml version="1.0" encoding="iso-8859-1"?>
<!-- Generator: Adobe Illustrator 19.0.0, SVG Export Plug-In . SVG Version: 6.00 Build 0)  -->
<svg xmlns="http://www.w3.org/2000/svg" xmlns:xlink="http://www.w3.org/1999/xlink" version="1.1" id="Layer_1" x="0px" y="0px" viewBox="0 0 512 512" style="enable-background:new 0 0 512 512;" xml:space="preserve">
<g>
	<g>
		<path d="M425.064,124.282v-15.674V92.464h-8.15H401.24h-15.673H126.433H110.76H95.086h-8.15v16.144v15.674v65.494h338.129    L425.064,124.282L425.064,124.282z M389.402,166.777h-19.509v-19.497h19.509V166.777z"/>
	</g>
</g>
<g>
	<g>
		<polygon points="456.411,92.935 456.411,108.608 456.411,124.282 456.411,221.122 55.588,221.122 55.588,124.282 55.588,108.608     55.588,92.935 0,92.935 0,377.146 95.086,377.146 95.086,361.473 95.086,345.799 95.086,307.483 63.226,307.483 63.226,276.136     448.773,276.136 448.773,307.483 416.914,307.483 416.914,345.799 416.914,361.473 416.914,377.146 512,377.146 512,92.935   "/>
	</g>
</g>
<g>
	<g>
		<polygon points="95.086,2.153 95.086,61.117 110.759,61.117 126.433,61.117 385.567,61.117 401.24,61.117 416.914,61.117     416.914,2.153   "/>
	</g>
</g>
<g>
	<g>
		<polygon points="148.459,432.526 126.348,432.526 104.239,432.526 171.99,500.632 171.99,478.417 171.99,456.193 171.99,432.526       "/>
	</g>
</g>
<g>
	<g>
		<path d="M401.24,377.146h-15.673v-15.673v-53.99H126.433v53.99v15.673H110.76H95.086v0.083v23.949h15.673h15.673h76.904v77.322    v15.673v15.673h213.577V377.229v-0.083H401.24z M183.63,361.002v-31.347h144.739v31.347H183.63z M329.268,454.469h-98.743v-31.347    h98.743V454.469z M329.268,407.448h-98.743v-31.347h98.743V407.448z"/>
	</g>
</g>
<g>
</g>
<g>
</g>
<g>
</g>
<g>
</g>
<g>
</g>
<g>
</g>
<g>
</g>
<g>
</g>
<g>
</g>
<g>
</g>
<g>
</g>
<g>
</g>
<g>
</g>
<g>
</g>
<g>
</g>
</svg>
