<?xml version="1.0" encoding="iso-8859-1"?>
<!-- Generator: Adobe Illustrator 19.0.0, SVG Export Plug-In . SVG Version: 6.00 Build 0)  -->
<svg version="1.1" id="Layer_1" xmlns="http://www.w3.org/2000/svg" xmlns:xlink="http://www.w3.org/1999/xlink" x="0px" y="0px"
	 viewBox="0 0 370.373 370.373" style="enable-background:new 0 0 370.373 370.373;" xml:space="preserve">
<g id="XMLID_18_">
	<path id="XMLID_19_" d="M295.372,110.187c-0.001,0-0.001,0-0.002,0c-20.031,0-38.865,7.802-53.03,21.966
		c-14.165,14.166-21.967,33-21.967,53.033v10.686l-0.001,39.317c0,24.81,20.187,44.997,45.002,45c1.518,0,3.016-0.078,4.494-0.226
		c22.709-2.266,40.504-21.483,40.504-44.777v-52.9c0-8.284-6.716-15-15-15c-8.284,0-15,6.716-15,15v52.9
		c0,8.271-6.729,15.002-14.998,15.003c-0.838,0-1.653-0.086-2.454-0.219c-7.106-1.178-12.548-7.348-12.548-14.781v-9.236
		l0.001-40.767c0-12.02,4.681-23.32,13.181-31.819c8.499-8.499,19.799-13.18,31.818-13.18c24.813,0,45,20.187,45.001,44.998v60.002
		c-0.001,41.355-33.645,75-75.001,75c-16.172,0.001-31.559-5.088-44.342-14.5c-3.053-2.247-5.96-4.735-8.691-7.466
		c-14.166-14.166-21.967-33-21.967-53.034v-52.499c0-7.177-5.044-13.169-11.778-14.644c-0.158-0.033-0.318-0.063-0.477-0.094
		c-7.355-1.482-14.96-2.264-22.745-2.264c-8.643,0-17.064,0.965-25.165,2.781c-38.121,8.543-69.149,36.066-82.606,72.092
		c-4.669,12.5-7.229,26.02-7.229,40.127c0,8.284,6.716,15,15,15h124.15c3.438,4.855,7.311,9.455,11.603,13.747
		c19.833,19.833,46.201,30.754,74.247,30.753c57.897,0,104.999-47.102,105-105v-60.002
		C370.372,143.83,336.727,110.187,295.372,110.187z"/>
	<path id="XMLID_20_" d="M32.622,82.937c0,23.666,18.367,43.109,41.594,44.857c-7.382-13.302-11.594-28.596-11.594-44.857
		s4.212-31.556,11.594-44.857C50.989,39.827,32.622,59.271,32.622,82.937z"/>
	<path id="XMLID_21_" d="M93.489,159.575c-5.17-1.077-10.482-1.639-15.867-1.639C34.821,157.936,0,192.758,0,235.559
		c0,8.284,6.716,15,15,15h1.025C27.627,210.331,56.218,177.237,93.489,159.575z"/>
	<path id="XMLID_22_" d="M104.216,46.665c-7.289,10.25-11.594,22.764-11.594,36.271s4.305,26.021,11.594,36.271
		c11.383,16.006,30.065,26.478,51.157,26.478c34.601,0,62.75-28.149,62.75-62.75s-28.149-62.75-62.75-62.75
		C134.28,20.187,115.599,30.659,104.216,46.665z"/>
</g>
<g>
</g>
<g>
</g>
<g>
</g>
<g>
</g>
<g>
</g>
<g>
</g>
<g>
</g>
<g>
</g>
<g>
</g>
<g>
</g>
<g>
</g>
<g>
</g>
<g>
</g>
<g>
</g>
<g>
</g>
</svg>
