<?xml version="1.0" encoding="iso-8859-1"?>
<!-- Generator: Adobe Illustrator 19.0.0, SVG Export Plug-In . SVG Version: 6.00 Build 0)  -->
<svg version="1.1" id="Layer_1" xmlns="http://www.w3.org/2000/svg" xmlns:xlink="http://www.w3.org/1999/xlink" x="0px" y="0px"
	 viewBox="0 0 370.373 370.373" style="enable-background:new 0 0 370.373 370.373;" xml:space="preserve">
<g id="XMLID_11_">
	<path id="XMLID_12_" d="M104.216,46.665c-7.289,10.25-11.594,22.764-11.594,36.271s4.305,26.021,11.594,36.271
		c11.383,16.006,30.065,26.478,51.157,26.478c34.601,0,62.75-28.149,62.75-62.75s-28.149-62.75-62.75-62.75
		C134.28,20.187,115.599,30.659,104.216,46.665z"/>
	<path id="XMLID_13_" d="M32.622,82.937c0,23.666,18.367,43.109,41.594,44.857c-7.382-13.302-11.594-28.596-11.594-44.857
		s4.212-31.556,11.594-44.857C50.989,39.827,32.622,59.271,32.622,82.937z"/>
	<path id="XMLID_14_" d="M93.489,159.575c-5.17-1.077-10.482-1.639-15.867-1.639C34.821,157.936,0,192.758,0,235.559
		c0,8.284,6.716,15,15,15h1.025C27.627,210.331,56.218,177.237,93.489,159.575z"/>
	<path id="XMLID_15_" d="M355.373,220.186h-5v-25c0-30.327-24.673-55-55-55c-30.327,0-55,24.673-55,55v18.039l-0.015,0.066
		c-21.047-23.092-51.354-37.606-84.985-37.606c-8.643,0-17.064,0.965-25.165,2.781c-38.121,8.543-69.149,36.066-82.606,72.092
		c-4.669,12.5-7.229,26.02-7.229,40.127c0,8.284,6.716,15,15,15h165v29.5c0,8.284,6.716,15,15,15h120c8.284,0,15-6.716,15-15v-100
		C370.373,226.902,363.657,220.186,355.373,220.186z M320.373,220.186h-50v-25c0-13.785,11.215-25,25-25c13.785,0,25,11.215,25,25
		V220.186z"/>
</g>
<g>
</g>
<g>
</g>
<g>
</g>
<g>
</g>
<g>
</g>
<g>
</g>
<g>
</g>
<g>
</g>
<g>
</g>
<g>
</g>
<g>
</g>
<g>
</g>
<g>
</g>
<g>
</g>
<g>
</g>
</svg>
