<?xml version="1.0" encoding="iso-8859-1"?>
<!-- Generator: Adobe Illustrator 19.0.0, SVG Export Plug-In . SVG Version: 6.00 Build 0)  -->
<svg version="1.1" id="Layer_1" xmlns="http://www.w3.org/2000/svg" xmlns:xlink="http://www.w3.org/1999/xlink" x="0px" y="0px"
	 viewBox="0 0 330 330" style="enable-background:new 0 0 330 330;" xml:space="preserve">
<g id="XMLID_498_">
	<path id="XMLID_500_" d="M65,330h200c8.284,0,15-6.716,15-15V145c0-8.284-6.716-15-15-15h-15V85c0-46.869-38.131-85-85-85
		S80,38.131,80,85v45H65c-8.284,0-15,6.716-15,15v170C50,323.284,56.716,330,65,330z M196.856,240.644
		c5.858,5.858,5.858,15.354,0,21.213c-2.929,2.929-6.768,4.394-10.606,4.394s-7.678-1.465-10.606-4.394L165,251.213l-10.644,10.644
		c-2.929,2.929-6.768,4.394-10.606,4.394s-7.678-1.465-10.606-4.394c-5.858-5.858-5.858-15.354,0-21.213L143.787,230l-10.643-10.644
		c-5.858-5.858-5.858-15.354,0-21.213c5.857-5.858,15.355-5.858,21.213,0L165,208.787l10.644-10.643
		c5.857-5.858,15.355-5.858,21.213,0c5.858,5.858,5.858,15.354,0,21.213L186.213,230L196.856,240.644z M110,85
		c0-30.327,24.673-55,55-55s55,24.673,55,55v45H110V85z"/>
</g>
<g>
</g>
<g>
</g>
<g>
</g>
<g>
</g>
<g>
</g>
<g>
</g>
<g>
</g>
<g>
</g>
<g>
</g>
<g>
</g>
<g>
</g>
<g>
</g>
<g>
</g>
<g>
</g>
<g>
</g>
</svg>
