<?xml version="1.0" encoding="iso-8859-1"?>
<!-- Generator: Adobe Illustrator 19.0.0, SVG Export Plug-In . SVG Version: 6.00 Build 0)  -->
<svg version="1.1" id="Layer_1" xmlns="http://www.w3.org/2000/svg" xmlns:xlink="http://www.w3.org/1999/xlink" x="0px" y="0px"
	 viewBox="0 0 330 330" style="enable-background:new 0 0 330 330;" xml:space="preserve">
<g id="XMLID_474_">
	<path id="XMLID_475_" d="M165,330c63.411,0,115-51.589,115-115c0-29.771-11.373-56.936-30-77.379V85c0-46.869-38.131-85-85-85
		S80,38.131,80,85v52.621C61.373,158.064,50,185.229,50,215C50,278.411,101.589,330,165,330z M196.856,225.644
		c5.858,5.858,5.858,15.354,0,21.213c-2.929,2.929-6.768,4.394-10.606,4.394s-7.678-1.465-10.606-4.394L165,236.213l-10.644,10.643
		c-2.929,2.929-6.768,4.394-10.606,4.394s-7.678-1.465-10.606-4.394c-5.858-5.858-5.858-15.354,0-21.213L143.787,215l-10.643-10.644
		c-5.858-5.858-5.858-15.354,0-21.213c5.857-5.858,15.355-5.858,21.213,0L165,193.787l10.644-10.643
		c5.857-5.858,15.355-5.858,21.213,0c5.858,5.858,5.858,15.354,0,21.213L186.213,215L196.856,225.644z M110,85
		c0-30.327,24.673-55,55-55s55,24.673,55,55v29.029C203.652,105.088,184.91,100,165,100s-38.652,5.088-55,14.029V85z"/>
</g>
<g>
</g>
<g>
</g>
<g>
</g>
<g>
</g>
<g>
</g>
<g>
</g>
<g>
</g>
<g>
</g>
<g>
</g>
<g>
</g>
<g>
</g>
<g>
</g>
<g>
</g>
<g>
</g>
<g>
</g>
</svg>
