<?xml version="1.0" encoding="iso-8859-1"?>
<!-- Generator: Adobe Illustrator 19.0.0, SVG Export Plug-In . SVG Version: 6.00 Build 0)  -->
<svg version="1.1" id="Layer_1" xmlns="http://www.w3.org/2000/svg" xmlns:xlink="http://www.w3.org/1999/xlink" x="0px" y="0px"
	 viewBox="0 0 330 330" style="enable-background:new 0 0 330 330;" xml:space="preserve">
<g id="XMLID_494_">
	<path id="XMLID_495_" d="M165,330c63.411,0,115-51.589,115-115c0-29.771-11.373-56.936-30-77.379V85c0-46.869-38.131-85-85-85
		S80.001,38.131,80.001,85v52.619C61.373,158.064,50,185.229,50,215C50,278.411,101.589,330,165,330z M110.001,85
		c0-30.327,24.673-55,54.999-55c30.327,0,55,24.673,55,55v29.029C203.652,105.088,184.91,100,165,100
		c-19.909,0-38.651,5.088-54.999,14.028V85z"/>
</g>
<g>
</g>
<g>
</g>
<g>
</g>
<g>
</g>
<g>
</g>
<g>
</g>
<g>
</g>
<g>
</g>
<g>
</g>
<g>
</g>
<g>
</g>
<g>
</g>
<g>
</g>
<g>
</g>
<g>
</g>
</svg>
