<?xml version="1.0" encoding="iso-8859-1"?>
<!-- Generator: Adobe Illustrator 19.0.0, SVG Export Plug-In . SVG Version: 6.00 Build 0)  -->
<svg version="1.1" id="Layer_1" xmlns="http://www.w3.org/2000/svg" xmlns:xlink="http://www.w3.org/1999/xlink" x="0px" y="0px"
	 viewBox="0 0 368.373 368.373" style="enable-background:new 0 0 368.373 368.373;" xml:space="preserve">
<g id="XMLID_23_">
	<path id="XMLID_24_" d="M302.932,225.875l-22.688-3.297l-10.145-20.559c-1.264-2.56-3.871-4.181-6.726-4.181
		c-2.854,0-5.462,1.621-6.726,4.181l-10.146,20.559l-22.688,3.297c-2.825,0.41-5.173,2.389-6.055,5.104
		c-0.882,2.715-0.146,5.695,1.898,7.688l16.417,16.001l-3.876,22.598c-0.482,2.814,0.674,5.657,2.982,7.335
		c2.311,1.678,5.372,1.901,7.898,0.571l20.294-10.668l20.294,10.668c1.097,0.577,2.295,0.861,3.488,0.861c0.008,0,0.015,0,0.021,0
		c4.143,0,7.5-3.358,7.5-7.5c0-0.629-0.078-1.24-0.224-1.824l-3.781-22.041l16.417-16.001c2.044-1.993,2.779-4.974,1.897-7.688
		C308.105,228.264,305.757,226.285,302.932,225.875z"/>
	<path id="XMLID_25_" d="M263.373,136.937c-34.485,0-65.14,16.713-84.293,42.463c-7.653-1.61-15.582-2.463-23.707-2.463
		c-8.643,0-17.063,0.965-25.165,2.781c-38.121,8.543-69.149,36.066-82.606,72.092c-4.669,12.5-7.229,26.02-7.229,40.127
		c0,8.284,6.716,15,15,15h125.596c19.246,24.348,49.03,40,82.404,40c57.898,0,105-47.103,105-105S321.271,136.937,263.373,136.937z
		 M263.373,316.937c-13.592,0-26.339-3.652-37.344-10c-22.48-12.967-37.656-37.236-37.656-65c0-20.01,7.892-38.199,20.708-51.662
		c13.67-14.359,32.946-23.338,54.292-23.338c41.356,0,75,33.645,75,75S304.729,316.937,263.373,316.937z"/>
	<path id="XMLID_28_" d="M32.622,84.187c0,23.666,18.367,43.109,41.594,44.857c-7.382-13.302-11.594-28.596-11.594-44.857
		s4.212-31.556,11.594-44.857C50.989,41.077,32.622,60.521,32.622,84.187z"/>
	<path id="XMLID_29_" d="M93.489,160.825c-5.17-1.077-10.482-1.639-15.867-1.639C34.821,159.187,0,194.008,0,236.81
		c0,8.284,6.716,15,15,15h1.025C27.627,211.581,56.218,178.487,93.489,160.825z"/>
	<path id="XMLID_30_" d="M104.216,47.915c-7.289,10.25-11.594,22.764-11.594,36.271s4.305,26.021,11.594,36.271
		c11.383,16.006,30.065,26.479,51.157,26.479c34.601,0,62.75-28.149,62.75-62.75s-28.149-62.75-62.75-62.75
		C134.28,21.437,115.599,31.909,104.216,47.915z"/>
</g>
<g>
</g>
<g>
</g>
<g>
</g>
<g>
</g>
<g>
</g>
<g>
</g>
<g>
</g>
<g>
</g>
<g>
</g>
<g>
</g>
<g>
</g>
<g>
</g>
<g>
</g>
<g>
</g>
<g>
</g>
</svg>
