<?xml version="1.0" encoding="iso-8859-1"?>
<!-- Generator: Adobe Illustrator 19.0.0, SVG Export Plug-In . SVG Version: 6.00 Build 0)  -->
<svg version="1.1" id="Layer_1" xmlns="http://www.w3.org/2000/svg" xmlns:xlink="http://www.w3.org/1999/xlink" x="0px" y="0px"
	 viewBox="0 0 512 512" style="enable-background:new 0 0 512 512;" xml:space="preserve">
<g>
	<g>
		<path d="M311.349,55.356v-0.004C311.349,24.781,286.568,0,255.997,0s-55.351,24.781-55.351,55.351v0.004H69.189V512h373.622
			V55.356H311.349z M255.997,27.676c7.643,0,13.838,6.197,13.838,13.838c0,7.641-6.195,13.838-13.838,13.838
			c-7.643,0-13.838-6.197-13.838-13.838C242.159,33.872,248.355,27.676,255.997,27.676z M408.213,470.487H103.781V96.865h53.331
			c-7.436,10.575-11.818,23.452-11.818,37.362v4.151H366.7v-4.151c0-13.91-4.381-26.787-11.818-37.362h53.331V470.487z"/>
	</g>
</g>
<g>
	<g>
		<polygon points="304.43,276.757 270.505,327.644 221.403,249.081 152.213,359.784 359.781,359.784 		"/>
	</g>
</g>
<g>
	<g>
		<circle cx="283.676" cy="228.324" r="20.757"/>
	</g>
</g>
<g>
</g>
<g>
</g>
<g>
</g>
<g>
</g>
<g>
</g>
<g>
</g>
<g>
</g>
<g>
</g>
<g>
</g>
<g>
</g>
<g>
</g>
<g>
</g>
<g>
</g>
<g>
</g>
<g>
</g>
</svg>
