<?xml version="1.0" encoding="iso-8859-1"?>
<!-- Generator: Adobe Illustrator 19.0.0, SVG Export Plug-In . SVG Version: 6.00 Build 0)  -->
<svg version="1.1" id="Layer_1" xmlns="http://www.w3.org/2000/svg" xmlns:xlink="http://www.w3.org/1999/xlink" x="0px" y="0px"
	 viewBox="0 0 512 512" style="enable-background:new 0 0 512 512;" xml:space="preserve">
<g>
	<g>
		<path d="M356.11,184.243c-0.008-0.017-47.598,12.681-47.598,12.681s41.62-52.492,41.603-52.513
			c-6.961-43.704-14.509-81.76-21.295-95.72C315.301,20.874,288.851,0,256,0s-59.301,20.874-72.822,48.69
			c-6.786,13.961-14.335,52.017-21.294,95.72c-0.017,0.021,41.603,52.513,41.603,52.513s-47.59-12.698-47.598-12.681
			c-10.254,71.751-18.043,143.963-18.043,143.963l86.646,77.019v80.519L287.508,512V405.224l86.646-77.019
			C374.154,328.205,366.364,255.993,356.11,184.243z"/>
	</g>
</g>
<g>
</g>
<g>
</g>
<g>
</g>
<g>
</g>
<g>
</g>
<g>
</g>
<g>
</g>
<g>
</g>
<g>
</g>
<g>
</g>
<g>
</g>
<g>
</g>
<g>
</g>
<g>
</g>
<g>
</g>
</svg>
