<?xml version="1.0" encoding="iso-8859-1"?>
<!-- Generator: Adobe Illustrator 19.0.0, SVG Export Plug-In . SVG Version: 6.00 Build 0)  -->
<svg version="1.1" id="Layer_1" xmlns="http://www.w3.org/2000/svg" xmlns:xlink="http://www.w3.org/1999/xlink" x="0px" y="0px"
	 viewBox="0 0 512 512" style="enable-background:new 0 0 512 512;" xml:space="preserve">
<g>
	<g>
		<path d="M446.962,96.865h-80.259l-13.838-55.351h-193.73l-13.838,55.351H65.038C29.119,96.865,0,125.984,0,161.903v243.546
			c0,35.919,29.119,65.038,65.038,65.038h123.074c-61.783-26.392-105.085-87.704-105.085-159.135
			c0-95.53,77.442-172.973,172.973-172.973s172.973,77.443,172.973,172.973c0,71.431-43.301,132.744-105.085,159.135h123.074
			c35.922,0,65.038-29.119,65.038-65.038V161.903C512,125.984,482.884,96.865,446.962,96.865z M449.73,179.892
			c-11.463,0-20.757-9.294-20.757-20.757s9.294-20.757,20.757-20.757s20.757,9.294,20.757,20.757S461.193,179.892,449.73,179.892z"
			/>
	</g>
</g>
<g>
	<g>
		<path d="M256,186.811c-68.78,0-124.541,55.762-124.541,124.541c0,68.777,55.761,124.541,124.541,124.541
			s124.541-55.764,124.541-124.541C380.541,242.573,324.78,186.811,256,186.811z"/>
	</g>
</g>
<g>
</g>
<g>
</g>
<g>
</g>
<g>
</g>
<g>
</g>
<g>
</g>
<g>
</g>
<g>
</g>
<g>
</g>
<g>
</g>
<g>
</g>
<g>
</g>
<g>
</g>
<g>
</g>
<g>
</g>
</svg>
