<?xml version="1.0" encoding="iso-8859-1"?>
<!-- Generator: Adobe Illustrator 19.0.0, SVG Export Plug-In . SVG Version: 6.00 Build 0)  -->
<svg version="1.1" id="Layer_1" xmlns="http://www.w3.org/2000/svg" xmlns:xlink="http://www.w3.org/1999/xlink" x="0px" y="0px"
	 viewBox="0 0 512 512" style="enable-background:new 0 0 512 512;" xml:space="preserve">
<g>
	<g>
		<path d="M235.876,0c-44.459,0-80.501,36.042-80.501,80.501v13.417h161.001V80.501C316.377,36.042,280.335,0,235.876,0z"/>
	</g>
</g>
<g>
	<g>
		<path d="M316.377,93.917v40.25H155.376v161.001l20.502,67.084h0.011c-12.751,14.243-20.514,33.046-20.514,53.667
			c0,32.941,44.185,75.984,67.084,96.08v-59.448c-8.013-4.642-13.417-13.288-13.417-23.215c0-14.82,12.013-26.834,26.833-26.834
			c14.82,0,26.834,12.013,26.834,26.834c0,9.927-5.404,18.573-13.417,23.215V512c22.898-20.096,67.084-63.139,67.084-96.08
			c0-20.622-7.763-39.424-20.514-53.667h0.012l20.502-67.084h40.25V93.917H316.377z"/>
	</g>
</g>
<g>
</g>
<g>
</g>
<g>
</g>
<g>
</g>
<g>
</g>
<g>
</g>
<g>
</g>
<g>
</g>
<g>
</g>
<g>
</g>
<g>
</g>
<g>
</g>
<g>
</g>
<g>
</g>
<g>
</g>
</svg>
