<?xml version="1.0" encoding="iso-8859-1"?>
<!-- Generator: Adobe Illustrator 19.0.0, SVG Export Plug-In . SVG Version: 6.00 Build 0)  -->
<svg version="1.1" id="Layer_1" xmlns="http://www.w3.org/2000/svg" xmlns:xlink="http://www.w3.org/1999/xlink" x="0px" y="0px"
	 viewBox="0 0 512 512" style="enable-background:new 0 0 512 512;" xml:space="preserve">
<g>
	<g>
		<path d="M256,0C155.542,0,74.105,81.436,74.105,181.895c0,84.146,57.143,154.935,134.737,175.709v107.238
			C208.842,490.885,229.955,512,256,512s47.158-21.115,47.158-47.158V357.604c77.594-20.774,134.737-91.563,134.737-175.709
			C437.895,81.436,356.458,0,256,0z M256,303.158c-66.972,0-121.263-54.294-121.263-121.263
			c0-66.971,54.291-121.263,121.263-121.263s121.263,54.292,121.263,121.263C377.263,248.864,322.972,303.158,256,303.158z"/>
	</g>
</g>
<g>
	<g>
		<polygon points="282.947,154.947 282.947,114.526 229.053,114.526 229.053,154.947 188.632,154.947 188.632,208.842 
			229.053,208.842 229.053,249.263 282.947,249.263 282.947,208.842 323.368,208.842 323.368,154.947 		"/>
	</g>
</g>
<g>
</g>
<g>
</g>
<g>
</g>
<g>
</g>
<g>
</g>
<g>
</g>
<g>
</g>
<g>
</g>
<g>
</g>
<g>
</g>
<g>
</g>
<g>
</g>
<g>
</g>
<g>
</g>
<g>
</g>
</svg>
