<?xml version="1.0" encoding="iso-8859-1"?>
<!-- Generator: Adobe Illustrator 19.0.0, SVG Export Plug-In . SVG Version: 6.00 Build 0)  -->
<svg version="1.1" id="Layer_1" xmlns="http://www.w3.org/2000/svg" xmlns:xlink="http://www.w3.org/1999/xlink" x="0px" y="0px"
	 viewBox="0 0 512 512" style="enable-background:new 0 0 512 512;" xml:space="preserve">
<g>
	<g>
		<path d="M512,212.396c0-87.313-87.633-158.092-195.733-158.092c-43.651,0-83.952,11.551-116.503,31.064
			c59.87,0.839,116.343,20.327,159.411,55.112c22.242,17.964,39.807,39.081,52.209,62.764
			c13.224,25.253,19.928,52.175,19.928,80.022c0,21.885-4.254,43.392-12.456,63.773c0.154-0.077,0.312-0.146,0.466-0.223
			l71.706,40.976l-15.628-83.337C498.434,278.526,512,246.742,512,212.396z"/>
	</g>
</g>
<g>
	<g>
		<path d="M195.733,125.172c-15.934,0-31.418,1.549-46.249,4.452C63.708,146.409,0,208.823,0,283.264
			c0,36.302,15.16,69.741,40.631,96.428l-13,78.003l67.717-38.697c29.353,14.194,63.687,22.359,100.386,22.359
			c70.532,0,132.343-30.135,166.792-75.332c18.349-24.074,28.941-52.416,28.941-82.761
			C391.466,195.952,303.834,125.172,195.733,125.172z M232.802,328.552h0.05v36.211H220.48v3.128
			c0,13.666-11.08,24.746-24.746,24.746c-13.668,0-24.746-11.08-24.746-24.746v-3.128h-12.373v-36.211h0.05
			c-26.527-13.52-44.706-41.069-44.706-72.883c0-45.163,36.61-81.773,81.774-81.773c45.161,0,81.772,36.61,81.772,81.773
			C277.507,287.483,259.327,315.032,232.802,328.552z"/>
	</g>
</g>
<g>
</g>
<g>
</g>
<g>
</g>
<g>
</g>
<g>
</g>
<g>
</g>
<g>
</g>
<g>
</g>
<g>
</g>
<g>
</g>
<g>
</g>
<g>
</g>
<g>
</g>
<g>
</g>
<g>
</g>
</svg>
