<?xml version="1.0" encoding="iso-8859-1"?>
<!-- Generator: Adobe Illustrator 19.0.0, SVG Export Plug-In . SVG Version: 6.00 Build 0)  -->
<svg version="1.1" id="Layer_1" xmlns="http://www.w3.org/2000/svg" xmlns:xlink="http://www.w3.org/1999/xlink" x="0px" y="0px"
	 viewBox="0 0 512 512" style="enable-background:new 0 0 512 512;" xml:space="preserve">
<g>
	<g>
		<polygon points="196.923,26.256 196.923,65.638 354.462,65.638 354.462,98.543 384.227,98.543 466.051,334.69 400.194,334.69 
			385.893,288.458 354.462,288.458 354.462,406.978 512,406.978 512,26.256 		"/>
	</g>
</g>
<g>
	<g>
		<polygon points="354.627,172.046 354.462,172.6 354.462,245.222 375.582,245.222 		"/>
	</g>
</g>
<g>
	<g>
		<polygon points="157.704,250.813 135.752,323.988 178.659,323.988 		"/>
	</g>
</g>
<g>
	<g>
		<path d="M0,105.023v380.721h315.077V105.023H0z M203.271,413.458l-14.301-46.234h-62.863l-13.97,46.234H45.949l82.154-236.149
			h59.203l81.823,236.149H203.271z"/>
	</g>
</g>
<g>
</g>
<g>
</g>
<g>
</g>
<g>
</g>
<g>
</g>
<g>
</g>
<g>
</g>
<g>
</g>
<g>
</g>
<g>
</g>
<g>
</g>
<g>
</g>
<g>
</g>
<g>
</g>
<g>
</g>
</svg>
