<?xml version="1.0" encoding="iso-8859-1"?>
<!-- Generator: Adobe Illustrator 19.0.0, SVG Export Plug-In . SVG Version: 6.00 Build 0)  -->
<svg version="1.1" id="Layer_1" xmlns="http://www.w3.org/2000/svg" xmlns:xlink="http://www.w3.org/1999/xlink" x="0px" y="0px"
	 viewBox="0 0 512 512" style="enable-background:new 0 0 512 512;" xml:space="preserve">
<g>
	<g>
		<polygon points="120.471,30.118 120.471,0 0,0 0,120.471 30.118,120.471 30.118,240.941 90.353,240.941 90.353,120.471 
			120.471,120.471 120.471,90.353 240.941,90.353 240.941,30.118 		"/>
	</g>
</g>
<g>
	<g>
		<polygon points="481.882,391.529 481.882,271.059 421.647,271.059 421.647,391.529 391.529,391.529 391.529,421.647 
			271.059,421.647 271.059,481.882 391.529,481.882 391.529,512 512,512 512,391.529 		"/>
	</g>
</g>
<g>
	<g>
		<polygon points="391.529,0 391.529,30.118 271.059,30.118 271.059,90.353 391.529,90.353 391.529,120.471 421.647,120.471 
			421.647,240.941 481.882,240.941 481.882,120.471 512,120.471 512,0 		"/>
	</g>
</g>
<g>
	<g>
		<polygon points="120.471,421.647 120.471,391.529 90.353,391.529 90.353,271.059 30.118,271.059 30.118,391.529 0,391.529 0,512 
			120.471,512 120.471,481.882 240.941,481.882 240.941,421.647 		"/>
	</g>
</g>
<g>
	<g>
		<circle cx="256" cy="256" r="105.412"/>
	</g>
</g>
<g>
</g>
<g>
</g>
<g>
</g>
<g>
</g>
<g>
</g>
<g>
</g>
<g>
</g>
<g>
</g>
<g>
</g>
<g>
</g>
<g>
</g>
<g>
</g>
<g>
</g>
<g>
</g>
<g>
</g>
</svg>
