<?xml version="1.0" encoding="iso-8859-1"?>
<!-- Generator: Adobe Illustrator 19.0.0, SVG Export Plug-In . SVG Version: 6.00 Build 0)  -->
<svg version="1.1" id="Layer_1" xmlns="http://www.w3.org/2000/svg" xmlns:xlink="http://www.w3.org/1999/xlink" x="0px" y="0px"
	 viewBox="0 0 512 512" style="enable-background:new 0 0 512 512;" xml:space="preserve">
<g>
	<g>
		<path d="M446.962,41.513H65.038C29.119,41.513,0,70.632,0,106.551v243.546c0,35.919,29.119,65.038,65.038,65.038h116.238
			l-22.141,55.351h193.73l-22.141-55.351h116.238c35.922,0,65.038-29.119,65.038-65.038V106.551
			C512,70.632,482.884,41.513,446.962,41.513z M449.73,332.108H311.351v-55.351H256v55.351h-55.351v-55.351h-55.351v55.351H62.27
			V110.703h138.378v55.351H256v-55.351h55.351v55.351h55.351v-55.351h83.027V332.108z"/>
	</g>
</g>
<g>
	<g>
		<rect x="200.649" y="221.405" width="55.351" height="55.351"/>
	</g>
</g>
<g>
	<g>
		<rect x="145.297" y="166.054" width="55.351" height="55.351"/>
	</g>
</g>
<g>
	<g>
		<rect x="311.351" y="221.405" width="55.351" height="55.351"/>
	</g>
</g>
<g>
	<g>
		<rect x="256" y="166.054" width="55.351" height="55.351"/>
	</g>
</g>
<g>
</g>
<g>
</g>
<g>
</g>
<g>
</g>
<g>
</g>
<g>
</g>
<g>
</g>
<g>
</g>
<g>
</g>
<g>
</g>
<g>
</g>
<g>
</g>
<g>
</g>
<g>
</g>
<g>
</g>
</svg>
