<?xml version="1.0" encoding="iso-8859-1"?>
<!-- Generator: Adobe Illustrator 19.0.0, SVG Export Plug-In . SVG Version: 6.00 Build 0)  -->
<svg xmlns="http://www.w3.org/2000/svg" xmlns:xlink="http://www.w3.org/1999/xlink" version="1.1" id="Capa_1" x="0px" y="0px" viewBox="0 0 512 512" style="enable-background:new 0 0 512 512;" xml:space="preserve">
<g>
	<g>
		<path d="M414.39,491.088l-63.341-147.794h49.554c8.284,0,15-6.717,15-15c0-8.285-6.716-15-15-15h-62.411l-61.013-142.366    c24.463-8.729,42.022-32.117,42.022-59.54c0-29.681-20.571-54.634-48.201-61.388V15c0-8.284-6.716-15-15-15s-15,6.716-15,15    v35.002c-27.63,6.754-48.201,31.707-48.201,61.388c0,27.423,17.56,50.812,42.023,59.54l-61.015,142.366h-62.41    c-8.284,0-15,6.715-15,15c0,8.283,6.716,15,15,15h49.555L97.61,491.088c-3.264,7.614,0.264,16.433,7.879,19.695    c1.926,0.826,3.93,1.217,5.9,1.217c5.82,0,11.357-3.407,13.795-9.095l68.405-159.611H241v9.1c0,8.285,6.716,15,15,15    s15-6.715,15-15v-9.1h47.411l68.404,159.611c2.438,5.688,7.975,9.095,13.794,9.095c1.972,0,3.975-0.391,5.902-1.217    C414.126,507.521,417.654,498.702,414.39,491.088z M271,313.295v-9.102c0-8.283-6.716-15-15-15s-15,6.717-15,15v9.102h-34.555    L256,197.668l49.554,115.626H271z"/>
	</g>
</g>
<g>
</g>
<g>
</g>
<g>
</g>
<g>
</g>
<g>
</g>
<g>
</g>
<g>
</g>
<g>
</g>
<g>
</g>
<g>
</g>
<g>
</g>
<g>
</g>
<g>
</g>
<g>
</g>
<g>
</g>
</svg>
