<?xml version="1.0" encoding="iso-8859-1"?>
<!-- Generator: Adobe Illustrator 19.0.0, SVG Export Plug-In . SVG Version: 6.00 Build 0)  -->
<svg xmlns="http://www.w3.org/2000/svg" xmlns:xlink="http://www.w3.org/1999/xlink" version="1.1" id="Capa_1" x="0px" y="0px" viewBox="0 0 512 512" style="enable-background:new 0 0 512 512;" xml:space="preserve">
<g>
	<g>
		<path d="M400.6,0H15C6.716,0,0,6.716,0,15v370.602h160.7c-7.447-8.271-11.522-18.855-11.522-30.068    c0-12.02,4.682-23.32,13.181-31.82c8.5-8.498,19.801-13.178,31.82-13.178c11.015,0,21.425,3.93,29.629,11.127V167.395    c0-24.813,20.188-45,45-45s45,20.188,45,45v69.096H415.6V15C415.6,6.716,408.884,0,400.6,0z"/>
	</g>
</g>
<g>
	<g>
		<path d="M272.13,497c-0.103-0.1-0.207-0.195-0.31-0.295c-0.661-0.586-1.287-1.176-1.892-1.779L257.003,482l-66.398-66.398H0V497    c0,8.285,6.716,15,15,15h274.978C283.726,507.477,277.761,502.471,272.13,497z"/>
	</g>
</g>
<g>
	<g>
		<path d="M497,266.49H283.808v-99.096c0-8.285-6.716-15-15-15s-15,6.715-15,15v215.512c0,3.898,0.184,7.756,0.524,11.57    l-49.548-49.549c-2.929-2.93-6.768-4.393-10.605-4.393c-3.84,0-7.678,1.463-10.607,4.393c-5.857,5.857-5.857,15.355,0,21.213    l19.46,19.461l88.11,88.111c0.329,0.328,0.673,0.633,1.023,0.924c2.596,2.568,5.306,5.022,8.11,7.363    c6.866,5.734,14.333,10.772,22.294,15c18.018,9.568,38.553,15,60.337,15C454.089,512,512,454.088,512,382.906V281.49    C512,273.205,505.284,266.49,497,266.49z"/>
	</g>
</g>
<g>
</g>
<g>
</g>
<g>
</g>
<g>
</g>
<g>
</g>
<g>
</g>
<g>
</g>
<g>
</g>
<g>
</g>
<g>
</g>
<g>
</g>
<g>
</g>
<g>
</g>
<g>
</g>
<g>
</g>
</svg>
