<?xml version="1.0" encoding="iso-8859-1"?>
<!-- Generator: Adobe Illustrator 19.0.0, SVG Export Plug-In . SVG Version: 6.00 Build 0)  -->
<svg xmlns="http://www.w3.org/2000/svg" xmlns:xlink="http://www.w3.org/1999/xlink" version="1.1" id="Capa_1" x="0px" y="0px" viewBox="0 0 512 512" style="enable-background:new 0 0 512 512;" xml:space="preserve">
<g>
	<g>
		<path d="M399.497,133.182c0.018-0.205,0.031-0.41,0.031-0.619v-0.008C399.528,132.768,399.504,132.973,399.497,133.182z"/>
	</g>
</g>
<g>
	<g>
		<path d="M496.999,0H15C6.716,0,0,6.716,0,15v355.602c0,8.283,6.716,15,15,15h481.999c8.285,0,15-6.717,15-15V15    C511.999,6.716,505.285,0,496.999,0z M392.566,155.584c-6.972,0-13.228-3.121-17.457-8.035h-31.4    c33.935,26.275,55.824,67.395,55.824,113.535c0,8.285-6.715,15-15,15c-8.283,0-15-6.715-15-15    c0-55.715-40.34-102.184-93.346-111.734c-2.725,3.77-7.146,6.232-12.152,6.232l-16.066,0.002c-3.979,0-7.794-1.58-10.608-4.393    c-0.572-0.572-1.078-1.195-1.546-1.842c-53.007,9.551-93.348,56.02-93.348,111.734c0,8.285-6.716,15-15,15s-15-6.715-15-15    c0-46.141,21.89-87.26,55.824-113.535h-31.401c-4.226,4.912-10.479,8.031-17.449,8.035c-0.002,0-0.005,0-0.007,0    c-12.7,0-23.033-10.334-23.033-23.035c0-12.695,10.329-23.027,23.026-23.033c6.979,0.002,13.233,3.123,17.461,8.033h97.8    c0.697-1.33,1.592-2.561,2.673-3.641c2.813-2.813,6.628-4.393,10.605-4.393c0.001,0,0.002,0,0.002,0l16.066,0.002    c5.767,0,10.766,3.26,13.275,8.031h97.805c4.229-4.914,10.483-8.033,17.451-8.033c12.701,0,23.033,10.332,23.033,23.033    C415.592,145.254,405.26,155.584,392.566,155.584z"/>
	</g>
</g>
<g>
	<g>
		<path d="M368.465,482h-33.199v-66.398H176.731V482h-33.198c-8.284,0-15,6.717-15,15c0,8.285,6.716,15,15,15h224.933    c8.285,0,15-6.715,15-15C383.465,488.717,376.751,482,368.465,482z"/>
	</g>
</g>
<g>
</g>
<g>
</g>
<g>
</g>
<g>
</g>
<g>
</g>
<g>
</g>
<g>
</g>
<g>
</g>
<g>
</g>
<g>
</g>
<g>
</g>
<g>
</g>
<g>
</g>
<g>
</g>
<g>
</g>
</svg>
