<?xml version="1.0" encoding="iso-8859-1"?>
<!-- Generator: Adobe Illustrator 19.0.0, SVG Export Plug-In . SVG Version: 6.00 Build 0)  -->
<svg xmlns="http://www.w3.org/2000/svg" xmlns:xlink="http://www.w3.org/1999/xlink" version="1.1" id="Capa_1" x="0px" y="0px" viewBox="0 0 512 512" style="enable-background:new 0 0 512 512;" xml:space="preserve">
<g>
	<g>
		<path d="M487.36,231.359h-49.889c-3.192-38.955-18.699-74.471-42.609-102.648l35.342-35.342c5.857-5.857,5.857-15.354,0-21.212    c-5.857-5.858-15.355-5.858-21.213,0l-35.341,35.341c-28.179-23.911-63.695-39.417-102.651-42.609V15c0-8.284-6.715-15-15-15    c-8.283,0-15,6.716-15,15v49.889c-38.954,3.192-74.471,18.698-102.648,42.609l-35.338-35.34c-5.859-5.857-15.355-5.857-21.214,0    c-5.858,5.857-5.858,15.355-0.001,21.213l35.34,35.34c-23.91,28.178-39.416,63.693-42.608,102.648h-49.89c-8.284,0-15,6.717-15,15    c0,8.285,6.716,15,15,15h49.871c2.775,34.393,15.105,66.844,36.076,94.623c2.085,2.76,4.251,5.457,6.488,8.09L81.798,399.35    c-5.858,5.857-5.858,15.355,0.001,21.213c2.929,2.93,6.768,4.395,10.606,4.395c3.839,0,7.678-1.465,10.607-4.395l3.514-3.514    l25.65-25.65l6.145-6.145c2.5,2.115,5.053,4.166,7.66,6.145h46.82V223.863c0-3.979,1.581-7.793,4.395-10.607l48.197-48.197    c5.857-5.857,15.354-5.857,21.212,0l48.203,48.199c2.814,2.814,4.395,6.629,4.393,10.609l-0.003,167.531h46.818    c2.607-1.979,5.161-4.031,7.661-6.146l6.145,6.146l21.371,21.371l7.796,7.795c2.93,2.93,6.768,4.395,10.607,4.395    s7.678-1.465,10.607-4.395c5.857-5.858,5.857-15.355,0-21.213l-35.279-35.281c2.236-2.633,4.402-5.328,6.486-8.088    c20.972-27.777,33.303-60.23,36.078-94.623h49.871c8.285,0,15-6.715,15-15C502.36,238.076,495.646,231.359,487.36,231.359z"/>
	</g>
</g>
<g>
	<g>
		<polygon points="256,196.879 222.802,230.076 222.803,391.398 289.198,391.398 289.203,230.078   "/>
	</g>
</g>
<g>
	<g>
		<path d="M192.802,421.398L192.803,497c0,8.285,6.715,15,15,15h96.393c8.283,0,15-6.717,15-15v-75.602H192.802z"/>
	</g>
</g>
<g>
</g>
<g>
</g>
<g>
</g>
<g>
</g>
<g>
</g>
<g>
</g>
<g>
</g>
<g>
</g>
<g>
</g>
<g>
</g>
<g>
</g>
<g>
</g>
<g>
</g>
<g>
</g>
<g>
</g>
</svg>
