<?xml version="1.0" encoding="iso-8859-1"?>
<!-- Generator: Adobe Illustrator 19.0.0, SVG Export Plug-In . SVG Version: 6.00 Build 0)  -->
<svg xmlns="http://www.w3.org/2000/svg" xmlns:xlink="http://www.w3.org/1999/xlink" version="1.1" id="Capa_1" x="0px" y="0px" viewBox="0 0 512 512" style="enable-background:new 0 0 512 512;" xml:space="preserve">
<g>
	<g>
		<path d="M437.02,74.98C388.67,26.629,324.383,0,256.002,0S123.332,26.629,74.98,74.98C26.629,123.332,0,187.62,0,256    c0,68.381,26.629,132.669,74.98,181.021C123.332,485.372,187.621,512,256.002,512h100.414c52.568,0,95.334-42.766,95.334-95.332    v-74.871H497c8.285,0,15-6.717,15-15V256C512,187.62,485.373,123.332,437.02,74.98z M347.105,190.002l-124.969,124.97    c-2.813,2.813-6.627,4.393-10.605,4.393h-68.162c-8.283,0-15-6.716-15-15l-0.002-68.166c0-3.979,1.58-7.795,4.393-10.607    l124.97-124.964c5.857-5.858,15.355-5.857,21.213,0l68.162,68.161C352.965,174.646,352.965,184.145,347.105,190.002z"/>
	</g>
</g>
<g>
</g>
<g>
</g>
<g>
</g>
<g>
</g>
<g>
</g>
<g>
</g>
<g>
</g>
<g>
</g>
<g>
</g>
<g>
</g>
<g>
</g>
<g>
</g>
<g>
</g>
<g>
</g>
<g>
</g>
</svg>
