<?xml version="1.0" encoding="iso-8859-1"?>
<!-- Generator: Adobe Illustrator 19.0.0, SVG Export Plug-In . SVG Version: 6.00 Build 0)  -->
<svg xmlns="http://www.w3.org/2000/svg" xmlns:xlink="http://www.w3.org/1999/xlink" version="1.1" id="Capa_1" x="0px" y="0px" viewBox="0 0 512 512" style="enable-background:new 0 0 512 512;" xml:space="preserve">
<g>
	<g>
		<path d="M314.807,52.598L266.608,4.394C263.796,1.581,259.981,0,256.003,0c-0.001,0,0,0-0.001,0    c-3.978,0-7.794,1.581-10.606,4.394l-48.2,48.2c-2.814,2.813-4.393,6.628-4.393,10.606l0.001,433.8    c0,3.978,1.581,7.793,4.394,10.607c2.813,2.813,6.629,4.393,10.606,4.393H304.2c8.284,0,15-6.717,15-15V63.203    C319.2,59.226,317.62,55.41,314.807,52.598z"/>
	</g>
</g>
<g>
	<g>
		<path d="M497.001,0.002L400.603,0c-0.001,0-0.001,0-0.001,0c-3.978,0-7.794,1.581-10.607,4.394s-4.393,6.628-4.393,10.606    l0.002,482c0,3.978,1.581,7.793,4.394,10.607c2.813,2.813,6.629,4.393,10.606,4.393h96.395c8.284,0,15-6.717,15-15L512,15.002    C512,6.718,505.284,0.003,497.001,0.002z"/>
	</g>
</g>
<g>
	<g>
		<path d="M123.546,72.714L75.347,6.198C72.524,2.306,68.009,0,63.2,0s-9.324,2.306-12.146,6.198l-48.2,66.516    c-2.764,3.814-3.576,8.704-2.193,13.207l17.406,56.661c1.935,6.297,7.752,10.596,14.339,10.596H48.2V497c0,8.285,6.716,15,15,15    s15-6.715,15-15V153.178h15.793c6.588,0,12.404-4.299,14.338-10.596l17.408-56.661C127.122,81.419,126.309,76.528,123.546,72.714z    "/>
	</g>
</g>
<g>
</g>
<g>
</g>
<g>
</g>
<g>
</g>
<g>
</g>
<g>
</g>
<g>
</g>
<g>
</g>
<g>
</g>
<g>
</g>
<g>
</g>
<g>
</g>
<g>
</g>
<g>
</g>
<g>
</g>
</svg>
