<?xml version="1.0" encoding="iso-8859-1"?>
<!-- Generator: Adobe Illustrator 19.0.0, SVG Export Plug-In . SVG Version: 6.00 Build 0)  -->
<svg xmlns="http://www.w3.org/2000/svg" xmlns:xlink="http://www.w3.org/1999/xlink" version="1.1" id="Capa_1" x="0px" y="0px" viewBox="0 0 512 512" style="enable-background:new 0 0 512 512;" xml:space="preserve">
<g>
	<g>
		<path d="M437.02,74.98C388.67,26.629,324.383,0,256.002,0S123.332,26.629,74.98,74.98C26.629,123.332,0,187.62,0,256    c0,68.382,26.629,132.67,74.98,181.022C123.332,485.372,187.621,512,256.002,512h100.414c52.568,0,95.334-42.766,95.334-95.332    v-74.871H497c8.285,0,15-6.717,15-15V256C512,187.62,485.373,123.333,437.02,74.98z M400.6,271H111.4c-8.285,0-15-6.715-15-15    c0-88.003,71.596-159.6,159.6-159.6S415.6,167.997,415.6,256C415.6,264.285,408.885,271,400.6,271z"/>
	</g>
</g>
<g>
</g>
<g>
</g>
<g>
</g>
<g>
</g>
<g>
</g>
<g>
</g>
<g>
</g>
<g>
</g>
<g>
</g>
<g>
</g>
<g>
</g>
<g>
</g>
<g>
</g>
<g>
</g>
<g>
</g>
</svg>
