<?xml version="1.0" encoding="iso-8859-1"?>
<!-- Generator: Adobe Illustrator 19.0.0, SVG Export Plug-In . SVG Version: 6.00 Build 0)  -->
<svg xmlns="http://www.w3.org/2000/svg" xmlns:xlink="http://www.w3.org/1999/xlink" version="1.1" id="Capa_1" x="0px" y="0px" viewBox="0 0 512 512" style="enable-background:new 0 0 512 512;" xml:space="preserve">
<g>
	<g>
		<path d="M497,96.4H207.8c-8.284,0-15,6.715-15,15v96.4c0,8.283,6.716,15,15,15h192.801c8.284,0,15-6.717,15-15    c0-8.285-6.716-15-15-15H222.8v-66.4H482V497c0,8.285,6.716,15,15,15s15-6.715,15-15V111.4C512,103.115,505.284,96.4,497,96.4z"/>
	</g>
</g>
<g>
	<g>
		<path d="M304.2,385.602H111.4c-8.284,0-15,6.715-15,15c0,8.283,6.716,15,15,15h177.8V482H30V111.4c0-8.285-6.716-15-15-15    s-15,6.715-15,15V497c0,8.285,6.716,15,15,15h289.2c8.284,0,15-6.715,15-15v-96.398C319.2,392.316,312.484,385.602,304.2,385.602z    "/>
	</g>
</g>
<g>
	<g>
		<path d="M400.601,289.201H126.4V62.134h9.1c0.006,0,0.013,0,0.02,0c8.283,0,15-6.716,15-15c0-3.629-1.289-6.957-3.434-9.551    L123.4,6.001C120.567,2.224,116.122,0,111.4,0c-4.722,0-9.167,2.224-12,6L75.3,38.134c-3.409,4.546-3.957,10.627-1.416,15.709    c2.541,5.081,7.734,8.291,13.416,8.291h9.1v242.067c0,8.285,6.716,15,15,15h274.2V497c0,8.285,6.716,15,15,15s15-6.715,15-15    V304.201C415.601,295.918,408.885,289.201,400.601,289.201z"/>
	</g>
</g>
<g>
</g>
<g>
</g>
<g>
</g>
<g>
</g>
<g>
</g>
<g>
</g>
<g>
</g>
<g>
</g>
<g>
</g>
<g>
</g>
<g>
</g>
<g>
</g>
<g>
</g>
<g>
</g>
<g>
</g>
</svg>
