<?xml version="1.0" encoding="iso-8859-1"?>
<!-- Generator: Adobe Illustrator 19.0.0, SVG Export Plug-In . SVG Version: 6.00 Build 0)  -->
<svg xmlns="http://www.w3.org/2000/svg" xmlns:xlink="http://www.w3.org/1999/xlink" version="1.1" id="Capa_1" x="0px" y="0px" viewBox="0 0 512.003 512.003" style="enable-background:new 0 0 512.003 512.003;" xml:space="preserve">
<g>
	<g>
		<path d="M459.589,179.165c-0.488-4.645-3.113-8.799-7.1-11.234l-33.363-20.371l15.017-36.09c1.794-4.313,1.478-9.217-0.858-13.262    c-2.336-4.045-6.424-6.771-11.057-7.375l-38.763-5.039l-0.961-39.076c-0.115-4.671-2.399-9.021-6.179-11.767    c-3.779-2.745-8.623-3.573-13.1-2.24l-37.461,11.16L308.993,8.564c-2.004-4.22-5.86-7.265-10.43-8.236    c-4.568-0.971-9.332,0.242-12.879,3.282l-29.681,25.432L226.318,3.609c-3.548-3.04-8.308-4.252-12.878-3.281    c-4.57,0.972-8.426,4.017-10.43,8.236l-16.772,35.307l-37.461-11.16c-4.477-1.333-9.32-0.506-13.1,2.24    c-3.779,2.746-6.064,7.096-6.179,11.767l-0.961,39.076l-38.762,5.041c-4.633,0.602-8.721,3.328-11.057,7.373    c-2.336,4.047-2.652,8.949-0.858,13.264l15.015,36.088l-33.36,20.37c-3.986,2.436-6.611,6.59-7.1,11.234    c-0.488,4.646,1.216,9.256,4.609,12.465l28.397,26.861L63.23,250.67c-2.652,3.846-3.361,8.707-1.917,13.15    c1.443,4.443,4.874,7.961,9.28,9.514l36.868,12.988l-7.185,38.424c-0.858,4.592,0.472,9.322,3.598,12.795    c3.126,3.471,7.69,5.287,12.349,4.914l38.962-3.131l9.063,38.023c1.084,4.545,4.223,8.326,8.49,10.227    c4.268,1.898,9.178,1.703,13.279-0.533l34.324-18.707l23.747,31.049c2.839,3.711,7.243,5.889,11.915,5.889    c4.672,0,9.076-2.178,11.915-5.889l23.743-31.049l34.324,18.708c4.102,2.236,9.012,2.434,13.279,0.533    c4.268-1.9,7.406-5.682,8.49-10.225l9.064-38.025l38.965,3.131c4.651,0.373,9.222-1.443,12.348-4.914    c3.127-3.473,4.456-8.203,3.598-12.795l-7.186-38.424l36.867-12.988c4.406-1.553,7.838-5.07,9.281-9.514    c1.443-4.443,0.734-9.305-1.918-13.15l-22.191-32.18l28.398-26.859C458.374,188.421,460.078,183.812,459.589,179.165z     M346.803,190.523l-34.521,33.648l8.011,46.695c0.246,1.078,0.375,2.199,0.375,3.352c0,8.273-6.697,14.982-14.966,15    c-0.018,0-0.036,0-0.056,0c-2.387,0-4.783-0.568-6.978-1.723l-42.667-22.432l-42.668,22.432c-2.193,1.154-4.591,1.723-6.979,1.723    c-3.109,0-6.204-0.965-8.818-2.865c-4.619-3.356-6.932-9.043-5.967-14.67l8.148-47.512l-34.52-33.648    c-4.089-3.984-5.561-9.945-3.797-15.377c1.766-5.43,6.459-9.387,12.109-10.209l47.705-6.932l21.334-43.229    c2.527-5.121,7.741-8.361,13.451-8.361c5.709,0,10.924,3.24,13.451,8.361l21.335,43.229l47.705,6.932    c5.65,0.822,10.345,4.779,12.108,10.209C352.363,180.578,350.891,186.539,346.803,190.523z"/>
	</g>
</g>
<g>
	<g>
		<path d="M220.261,417.61l-8.132-10.633l-11.755,6.406c-6.586,3.59-14.032,5.486-21.534,5.486c-6.347,0-12.503-1.309-18.304-3.889    c-12.719-5.664-22.24-17.131-25.469-30.676l-3.103-13.018l-13.34,1.072c-1.193,0.096-2.404,0.145-3.602,0.145    c-12.734,0-24.923-5.428-33.441-14.889c-4.623-5.135-7.941-11.254-9.803-17.789L31.94,379.663    c-3.677,3.676-5.188,8.994-3.992,14.053c1.193,5.061,4.923,9.141,9.855,10.785l72.931,24.309l24.31,72.932    c1.644,4.932,5.725,8.662,10.783,9.855c1.143,0.27,2.299,0.402,3.446,0.402c3.933,0,7.761-1.549,10.606-4.395l76.764-76.762    C230.279,427.807,224.616,423.305,220.261,417.61z"/>
	</g>
</g>
<g>
	<g>
		<path d="M480.065,379.665l-39.838-39.836c-1.861,6.533-5.18,12.652-9.802,17.787c-8.521,9.461-20.709,14.889-33.442,14.889    c-1.199,0-2.412-0.049-3.602-0.145l-13.342-1.072l-3.104,13.02c-3.228,13.545-12.752,25.012-25.471,30.674    c-5.798,2.58-11.955,3.891-18.303,3.891c-7.502,0-14.948-1.898-21.535-5.488l-11.75-6.404l-8.129,10.631    c-4.357,5.695-10.02,10.197-16.385,13.236l76.759,76.76c2.847,2.846,6.675,4.395,10.607,4.395c1.147,0,2.304-0.133,3.446-0.402    c5.059-1.193,9.14-4.924,10.783-9.855l24.311-72.932l72.932-24.309c4.932-1.645,8.66-5.725,9.855-10.785    C485.251,388.659,483.741,383.34,480.065,379.665z"/>
	</g>
</g>
<g>
</g>
<g>
</g>
<g>
</g>
<g>
</g>
<g>
</g>
<g>
</g>
<g>
</g>
<g>
</g>
<g>
</g>
<g>
</g>
<g>
</g>
<g>
</g>
<g>
</g>
<g>
</g>
<g>
</g>
</svg>
