<?xml version="1.0" encoding="iso-8859-1"?>
<!-- Generator: Adobe Illustrator 19.0.0, SVG Export Plug-In . SVG Version: 6.00 Build 0)  -->
<svg xmlns="http://www.w3.org/2000/svg" xmlns:xlink="http://www.w3.org/1999/xlink" version="1.1" id="Capa_1" x="0px" y="0px" viewBox="0 0 512 512" style="enable-background:new 0 0 512 512;" xml:space="preserve">
<g>
	<g>
		<path d="M497.001,192.8H454.01c-3.523-11.04-7.979-21.779-13.322-32.107l30.416-30.417c2.813-2.812,4.394-6.628,4.394-10.606    c0-3.978-1.581-7.793-4.394-10.606L402.94,40.899c-5.857-5.857-15.355-5.857-21.213,0l-30.418,30.417    c-10.328-5.343-21.067-9.799-32.108-13.323V15c0-8.284-6.716-15-15-15h-96.398c-8.284,0-15,6.716-15,15v42.993    c-11.04,3.523-21.778,7.979-32.107,13.321l-30.417-30.416c-5.858-5.857-15.355-5.857-21.213,0L40.9,109.062    c-2.813,2.813-4.393,6.628-4.393,10.606c0,3.979,1.58,7.794,4.393,10.606l30.418,30.418c-5.343,10.328-9.799,21.066-13.322,32.106    H15c-8.283,0-15,6.716-15,15V304.2c0,8.285,6.717,15,15,15h42.993c3.524,11.041,7.98,21.779,13.323,32.107l-30.418,30.418    c-2.813,2.813-4.393,6.628-4.393,10.605c0,3.979,1.58,7.795,4.393,10.607l68.168,68.165c5.857,5.858,15.355,5.858,21.213-0.001    l30.416-30.416c10.33,5.344,21.066,9.799,32.107,13.322V497c0,8.285,6.716,15,15,15H304.2c8.284,0,15-6.715,15-15v-42.992    c11.041-3.523,21.78-7.979,32.108-13.322l30.418,30.416c5.857,5.859,15.355,5.859,21.213,0l68.164-68.164    c5.858-5.858,5.858-15.355,0-21.213l-30.416-30.417c5.344-10.329,9.799-21.067,13.322-32.108H497c8.284,0,15-6.715,15-15v-96.4    C512.001,199.516,505.285,192.8,497.001,192.8z M326.591,191.212l-41.916,52.798c1.569,3.749,2.394,7.809,2.393,11.994    c0.002,8.296-3.23,16.1-9.099,21.968c-5.865,5.865-13.666,9.095-21.964,9.095c-17.13,0-31.068-13.934-31.072-31.06    c0.004-17.136,13.942-31.072,31.072-31.072c1.749,0,3.474,0.152,5.165,0.435l41.925-52.81c5.151-6.488,14.587-7.572,21.075-2.422    C330.658,175.289,331.742,184.724,326.591,191.212z"/>
	</g>
</g>
<g>
</g>
<g>
</g>
<g>
</g>
<g>
</g>
<g>
</g>
<g>
</g>
<g>
</g>
<g>
</g>
<g>
</g>
<g>
</g>
<g>
</g>
<g>
</g>
<g>
</g>
<g>
</g>
<g>
</g>
</svg>
