<?xml version="1.0" encoding="iso-8859-1"?>
<!-- Generator: Adobe Illustrator 19.0.0, SVG Export Plug-In . SVG Version: 6.00 Build 0)  -->
<svg xmlns="http://www.w3.org/2000/svg" xmlns:xlink="http://www.w3.org/1999/xlink" version="1.1" id="Capa_1" x="0px" y="0px" viewBox="0 0 511.998 511.998" style="enable-background:new 0 0 511.998 511.998;" xml:space="preserve">
<g>
	<g>
		<path d="M364.812,133.555c-16.238-22.393-37.758-40.977-62.23-53.743c-25.301-13.198-53.854-20.175-82.57-20.176    c-47.749,0.001-92.641,18.596-126.404,52.359C59.842,145.759,41.249,190.65,41.25,238.398c0,24.842,5.229,49.568,15.184,72.166    l-52.04,52.04c-3.912,3.912-5.354,9.659-3.75,14.954c1.603,5.294,5.99,9.276,11.414,10.361l144.746,28.949    c0.979,0.196,1.965,0.292,2.942,0.292c0.061,0,0.121-0.001,0.182-0.001c8.21-0.088,14.839-6.77,14.839-15    c0-1.297-0.165-2.556-0.475-3.756l-28.785-143.932c-1.085-5.424-5.067-9.812-10.362-11.414    c-5.295-1.604-11.042-0.162-14.953,3.749l-40.669,40.668c-5.488-15.658-8.272-32.089-8.272-49.077    c-0.001-39.735,15.473-77.092,43.57-105.189c28.097-28.096,65.455-43.571,105.189-43.572    c47.525,0.002,92.577,23.004,120.517,61.531c4.863,6.706,14.242,8.201,20.949,3.337    C368.183,149.641,369.677,140.261,364.812,133.555z"/>
	</g>
</g>
<g>
	<g>
		<path d="M507.607,264.86l-69.359-69.357c-5.857-5.857-15.355-5.857-21.213,0L255.14,357.397    c-2.814,2.813-4.394,6.629-4.394,10.606v69.359c0,8.285,6.716,15,15,15h69.356c3.978,0,7.793-1.58,10.607-4.393l161.896-161.897    c2.813-2.813,4.393-6.629,4.393-10.607C512,271.488,510.42,267.673,507.607,264.86z"/>
	</g>
</g>
<g>
</g>
<g>
</g>
<g>
</g>
<g>
</g>
<g>
</g>
<g>
</g>
<g>
</g>
<g>
</g>
<g>
</g>
<g>
</g>
<g>
</g>
<g>
</g>
<g>
</g>
<g>
</g>
<g>
</g>
</svg>
