<?xml version="1.0" encoding="iso-8859-1"?>
<!-- Generator: Adobe Illustrator 19.0.0, SVG Export Plug-In . SVG Version: 6.00 Build 0)  -->
<svg xmlns="http://www.w3.org/2000/svg" xmlns:xlink="http://www.w3.org/1999/xlink" version="1.1" id="Capa_1" x="0px" y="0px" viewBox="0 0 512 512" style="enable-background:new 0 0 512 512;" xml:space="preserve">
<g>
	<g>
		<path d="M497,222.802v-0.001c8.284,0,15-6.716,15-15.001V15c0-8.284-6.716-15-15-15H223.867c-8.284,0-15,6.716-15,15v192.8    c0,8.285,6.716,15.001,15,15.001h121.566v66.398H15c-8.284,0-15,6.716-15,15v96.4V497c0,8.285,6.716,15,15,15s15-6.715,15-15    v-81.4h452V497c0,8.285,6.716,15,15,15s15-6.715,15-15v-96.4v-96.4c0-8.284-6.716-15-15-15H375.434v-66.398H497z"/>
	</g>
</g>
<g>
	<g>
		<path d="M111.4,192.8H15c-8.284,0-15,6.716-15,15s6.716,15.001,15,15.001h96.4c8.284,0,15-6.717,15-15.001    S119.684,192.8,111.4,192.8z"/>
	</g>
</g>
<g>
	<g>
		<path d="M111.4,96.4H15c-8.284,0-15,6.716-15,15s6.716,15,15,15h96.4c8.284,0,15-6.716,15-15S119.684,96.4,111.4,96.4z"/>
	</g>
</g>
<g>
</g>
<g>
</g>
<g>
</g>
<g>
</g>
<g>
</g>
<g>
</g>
<g>
</g>
<g>
</g>
<g>
</g>
<g>
</g>
<g>
</g>
<g>
</g>
<g>
</g>
<g>
</g>
<g>
</g>
</svg>
