<?xml version="1.0" encoding="iso-8859-1"?>
<!-- Generator: Adobe Illustrator 19.0.0, SVG Export Plug-In . SVG Version: 6.00 Build 0)  -->
<svg xmlns="http://www.w3.org/2000/svg" xmlns:xlink="http://www.w3.org/1999/xlink" version="1.1" id="Capa_1" x="0px" y="0px" viewBox="0 0 512 512" style="enable-background:new 0 0 512 512;" xml:space="preserve">
<g>
	<g>
		<path d="M384.524,0H255.991c-8.285,0-15,6.716-15,15v96.4v75.637L160.15,305.211h191.681l-80.84-118.174V126.4h113.533    c8.283,0,15-6.717,15-15V15C399.524,6.716,392.807,0,384.524,0z"/>
	</g>
</g>
<g>
	<g>
		<path d="M476.837,487.945L372.353,335.211H139.628L34.743,488.531c-3.142,4.592-3.482,10.547-0.887,15.467    C36.452,508.92,41.559,512,47.124,512h417.733c0.008,0,0.014,0,0.02,0c8.284,0,15-6.715,15-15    C479.877,493.6,478.745,490.461,476.837,487.945z"/>
	</g>
</g>
<g>
</g>
<g>
</g>
<g>
</g>
<g>
</g>
<g>
</g>
<g>
</g>
<g>
</g>
<g>
</g>
<g>
</g>
<g>
</g>
<g>
</g>
<g>
</g>
<g>
</g>
<g>
</g>
<g>
</g>
</svg>
