<?xml version="1.0" encoding="iso-8859-1"?>
<!-- Generator: Adobe Illustrator 19.0.0, SVG Export Plug-In . SVG Version: 6.00 Build 0)  -->
<svg xmlns="http://www.w3.org/2000/svg" xmlns:xlink="http://www.w3.org/1999/xlink" version="1.1" id="Capa_1" x="0px" y="0px" viewBox="0 0 512 512" style="enable-background:new 0 0 512 512;" xml:space="preserve">
<g>
	<g>
		<path d="M84.41,63.208l37.592-37.591c5.857-5.858,5.857-15.354,0-21.213c-5.857-5.858-15.354-5.858-21.212,0L63.197,41.996    L25.606,4.404c-5.857-5.858-15.355-5.858-21.212,0c-5.857,5.858-5.857,15.354,0,21.213l37.591,37.59L4.394,100.799    c-5.858,5.859-5.858,15.355,0,21.212c2.93,2.93,6.768,4.394,10.606,4.394c3.839,0,7.678-1.465,10.607-4.393L63.197,84.42    l37.592,37.592c2.929,2.929,6.768,4.393,10.606,4.393c3.839,0,7.678-1.464,10.606-4.394c5.857-5.857,5.857-15.353,0-21.212    L84.41,63.208z"/>
	</g>
</g>
<g>
	<g>
		<path d="M469.994,448.793l37.592-37.592c5.857-5.858,5.857-15.354,0-21.213c-5.857-5.858-15.354-5.858-21.212,0.001    l-37.592,37.592l-37.591-37.592c-5.858-5.858-15.353-5.858-21.212-0.001c-5.858,5.858-5.858,15.354,0,21.213l37.591,37.592    l-37.591,37.592c-5.858,5.857-5.858,15.353,0,21.212c2.929,2.929,6.768,4.393,10.606,4.393c3.839,0,7.678-1.464,10.607-4.393    l37.591-37.592l37.592,37.592c2.93,2.929,6.768,4.393,10.606,4.393c3.839,0,7.678-1.465,10.607-4.393    c5.857-5.858,5.857-15.354,0-21.212L469.994,448.793z"/>
	</g>
</g>
<g>
	<g>
		<path d="M510.033,167.326L430.049,8.272c-2.547-5.065-7.73-8.262-13.399-8.262c-5.67,0-10.853,3.196-13.399,8.262L322.92,168.018    c-2.338,4.649-2.099,10.18,0.633,14.609c2.73,4.431,7.564,7.128,12.768,7.128h65.33v82.92H63.197    c-8.284,0-14.999,6.717-14.999,14.999v99.734C20.57,394.161,0,419.113,0,448.793c0,34.847,28.351,63.196,63.197,63.196    c34.848,0,63.197-28.351,63.197-63.196c0-29.68-20.57-54.632-48.198-61.384v-84.735H416.65c8.284,0,14.999-6.715,14.999-14.999    v-97.919h65.33c0.007,0,0.013,0,0.021,0c8.283,0,14.999-6.716,14.999-14.999C512,172.053,511.285,169.517,510.033,167.326z"/>
	</g>
</g>
<g>
</g>
<g>
</g>
<g>
</g>
<g>
</g>
<g>
</g>
<g>
</g>
<g>
</g>
<g>
</g>
<g>
</g>
<g>
</g>
<g>
</g>
<g>
</g>
<g>
</g>
<g>
</g>
<g>
</g>
</svg>
