<?xml version="1.0" encoding="iso-8859-1"?>
<!-- Generator: Adobe Illustrator 19.0.0, SVG Export Plug-In . SVG Version: 6.00 Build 0)  -->
<svg xmlns="http://www.w3.org/2000/svg" xmlns:xlink="http://www.w3.org/1999/xlink" version="1.1" id="Capa_1" x="0px" y="0px" viewBox="0 0 512 512" style="enable-background:new 0 0 512 512;" xml:space="preserve">
<g>
	<g>
		<path d="M432.734,385.6h-33.2V145.754c0-71.51-58.178-129.689-129.689-129.689H213.99L202.316,4.394    c-5.857-5.858-15.355-5.858-21.213,0c-5.858,5.858-5.858,15.355,0,21.214l5.46,5.46L68.659,148.995    c-5.277,5.278-5.871,13.635-1.393,19.605l48.2,64.268c3.874,5.164,10.618,7.27,16.743,5.229l76.656-25.552v38.914l-61.748,92.62    c-1.643,2.464-2.519,5.359-2.519,8.321v33.199h-33.198c-8.284,0-15,6.716-15,15v15v81.402c0,8.285,6.716,15,15,15h321.333    c8.284,0,15-6.715,15-15v-81.4v-15C447.734,392.316,441.018,385.6,432.734,385.6z"/>
	</g>
</g>
<g>
</g>
<g>
</g>
<g>
</g>
<g>
</g>
<g>
</g>
<g>
</g>
<g>
</g>
<g>
</g>
<g>
</g>
<g>
</g>
<g>
</g>
<g>
</g>
<g>
</g>
<g>
</g>
<g>
</g>
</svg>
