<?xml version="1.0" encoding="iso-8859-1"?>
<!-- Generator: Adobe Illustrator 19.0.0, SVG Export Plug-In . SVG Version: 6.00 Build 0)  -->
<svg xmlns="http://www.w3.org/2000/svg" xmlns:xlink="http://www.w3.org/1999/xlink" version="1.1" id="Capa_1" x="0px" y="0px" viewBox="0 0 512.002 512.002" style="enable-background:new 0 0 512.002 512.002;" xml:space="preserve">
<g>
	<g>
		<path d="M488.968,232.967c-6.975,0-13.23,3.121-17.458,8.033H376.51c21.994-11.764,42.373-26.844,60.509-44.98    C485.372,147.668,512.002,83.38,512.002,15c0-8.284-6.717-15-15-15c-8.285,0-15,6.716-15,15    c0,117.621-90.324,214.527-205.251,225.039c-2.649-4.241-7.347-7.072-12.716-7.072h-16.068c-5.768,0-10.769,3.26-13.278,8.033    H40.492c-4.228-4.912-10.483-8.033-17.458-8.033c-4.835,0-9.323,1.501-13.032,4.056C3.966,241.18,0,248.135,0,256    c0,7.867,3.966,14.821,10.001,18.978c3.709,2.555,8.197,4.055,13.032,4.055c6.975,0,13.23-3.119,17.458-8.033h94.998    c-21.994,11.766-42.373,26.846-60.509,44.982c-31.069,31.069-53.151,68.724-64.979,109.809C3.419,448.647,0,472.56,0,497.002    c0,6.527,4.179,12.066,10.001,14.128c1.565,0.554,3.243,0.872,4.999,0.872c8.284,0,15-6.717,15-15    c0-117.621,90.323-214.527,205.249-225.039c2.65,4.24,7.348,7.07,12.717,7.07h16.068c5.768,0,10.768-3.26,13.277-8.033H471.51    c4.228,4.914,10.483,8.033,17.458,8.033c12.7,0,23.033-10.332,23.033-23.033C512.002,243.3,501.668,232.967,488.968,232.967z"/>
	</g>
</g>
<g>
</g>
<g>
</g>
<g>
</g>
<g>
</g>
<g>
</g>
<g>
</g>
<g>
</g>
<g>
</g>
<g>
</g>
<g>
</g>
<g>
</g>
<g>
</g>
<g>
</g>
<g>
</g>
<g>
</g>
</svg>
