<?xml version="1.0" encoding="iso-8859-1"?>
<!-- Generator: Adobe Illustrator 19.0.0, SVG Export Plug-In . SVG Version: 6.00 Build 0)  -->
<svg xmlns="http://www.w3.org/2000/svg" xmlns:xlink="http://www.w3.org/1999/xlink" version="1.1" id="Capa_1" x="0px" y="0px" viewBox="0 0 512.001 512.001" style="enable-background:new 0 0 512.001 512.001;" xml:space="preserve">
<g>
	<g>
		<path d="M497.001,0.001H15c-8.284,0-15,6.716-15,15v482c0,8.285,6.716,15,15,15h145.666V175.668c0-8.285,6.716-15,15-15h336.335    V15.001C512.001,6.717,505.284,0.001,497.001,0.001z"/>
	</g>
</g>
<g>
	<g>
		<path d="M190.666,190.668V512h130.669V336.335c0-8.285,6.715-15,15-15h175.666V190.668H190.666z"/>
	</g>
</g>
<g>
	<g>
		<path d="M351.335,351.335V512h145.666c8.283,0,15-6.715,15-15V351.335H351.335z"/>
	</g>
</g>
<g>
</g>
<g>
</g>
<g>
</g>
<g>
</g>
<g>
</g>
<g>
</g>
<g>
</g>
<g>
</g>
<g>
</g>
<g>
</g>
<g>
</g>
<g>
</g>
<g>
</g>
<g>
</g>
<g>
</g>
</svg>
