<?xml version="1.0" encoding="iso-8859-1"?>
<!-- Generator: Adobe Illustrator 19.0.0, SVG Export Plug-In . SVG Version: 6.00 Build 0)  -->
<svg xmlns="http://www.w3.org/2000/svg" xmlns:xlink="http://www.w3.org/1999/xlink" version="1.1" id="Capa_1" x="0px" y="0px" viewBox="0 0 512.001 512.001" style="enable-background:new 0 0 512.001 512.001;" xml:space="preserve">
<g>
	<g>
		<path d="M0.001,192.799v147.803c0,8.283,6.715,15,15,15h113.533V192.799H0.001z"/>
	</g>
</g>
<g>
	<g>
		<path d="M497.001,0H158.534v355.602h338.467c8.285,0,15-6.717,15-15V15C512,6.716,505.286,0,497.001,0z"/>
	</g>
</g>
<g>
	<g>
		<path d="M15.001,0c-8.285,0-15,6.716-15,15v147.799h128.533V0H15.001z"/>
	</g>
</g>
<g>
	<g>
		<path d="M511.999,400.602c0-8.283-6.715-14.998-15-14.998l-433.797-0.002c-3.979,0-7.793,1.58-10.605,4.393L4.394,438.193    c-2.813,2.813-4.393,6.629-4.393,10.606c0,3.979,1.58,7.795,4.393,10.608l48.201,48.199c2.813,2.813,6.627,4.392,10.605,4.395    l433.801-0.003c3.978,0,7.795-1.58,10.607-4.392c2.813-2.815,4.393-6.629,4.393-10.608L511.999,400.602z"/>
	</g>
</g>
<g>
</g>
<g>
</g>
<g>
</g>
<g>
</g>
<g>
</g>
<g>
</g>
<g>
</g>
<g>
</g>
<g>
</g>
<g>
</g>
<g>
</g>
<g>
</g>
<g>
</g>
<g>
</g>
<g>
</g>
</svg>
