<?xml version="1.0" encoding="iso-8859-1"?>
<!-- Generator: Adobe Illustrator 19.0.0, SVG Export Plug-In . SVG Version: 6.00 Build 0)  -->
<svg xmlns="http://www.w3.org/2000/svg" xmlns:xlink="http://www.w3.org/1999/xlink" version="1.1" id="Capa_1" x="0px" y="0px" viewBox="0 0 512 512" style="enable-background:new 0 0 512 512;" xml:space="preserve">
<g>
	<g>
		<path d="M497,0H15C6.716,0,0,6.716,0,15v355.602c0,8.283,6.716,15,15,15h176.733h128.533H497c8.284,0,15-6.717,15-15V15    C512,6.716,505.284,0,497,0z M363.007,175.051L238.253,299.807c-2.813,2.813-6.629,4.395-10.607,4.395h-68.045    c-8.285,0-15-6.717-15-15v-68.049c0-3.979,1.58-7.793,4.393-10.607L273.747,85.794c5.857-5.857,15.355-5.857,21.213,0    l68.047,68.044C368.864,159.695,368.864,169.193,363.007,175.051z"/>
	</g>
</g>
<g>
	<g>
		<path d="M368.467,482h-33.2v-66.398H176.733V482h-33.2c-8.284,0-15,6.717-15,15c0,8.285,6.716,15,15,15h224.934    c8.284,0,15-6.715,15-15C383.467,488.717,376.751,482,368.467,482z"/>
	</g>
</g>
<g>
</g>
<g>
</g>
<g>
</g>
<g>
</g>
<g>
</g>
<g>
</g>
<g>
</g>
<g>
</g>
<g>
</g>
<g>
</g>
<g>
</g>
<g>
</g>
<g>
</g>
<g>
</g>
<g>
</g>
</svg>
