<?xml version="1.0" encoding="iso-8859-1"?>
<!-- Generator: Adobe Illustrator 19.0.0, SVG Export Plug-In . SVG Version: 6.00 Build 0)  -->
<svg xmlns="http://www.w3.org/2000/svg" xmlns:xlink="http://www.w3.org/1999/xlink" version="1.1" id="Capa_1" x="0px" y="0px" viewBox="0 0 512 512" style="enable-background:new 0 0 512 512;" xml:space="preserve">
<g>
	<g>
		<path d="M371.719,86.73h-7.05C346.29,35.121,297.223,0,241.535,0c-71.987,0-130.569,58.488-130.72,130.439    c-48.518,3.965-86.788,44.719-86.788,94.244c0,52.137,42.417,94.555,94.556,94.555h253.136    c64.102,0,116.254-52.15,116.254-116.252C487.973,138.882,435.822,86.73,371.719,86.73z"/>
	</g>
</g>
<g>
	<g>
		<circle cx="95.311" cy="400.59" r="15"/>
	</g>
</g>
<g>
	<g>
		<circle cx="47.101" cy="497" r="15"/>
	</g>
</g>
<g>
	<g>
		<circle cx="256.001" cy="400.59" r="15"/>
	</g>
</g>
<g>
	<g>
		<circle cx="256.001" cy="497" r="15"/>
	</g>
</g>
<g>
	<g>
		<circle cx="416.691" cy="400.59" r="15"/>
	</g>
</g>
<g>
	<g>
		<circle cx="464.891" cy="497" r="15"/>
	</g>
</g>
<g>
</g>
<g>
</g>
<g>
</g>
<g>
</g>
<g>
</g>
<g>
</g>
<g>
</g>
<g>
</g>
<g>
</g>
<g>
</g>
<g>
</g>
<g>
</g>
<g>
</g>
<g>
</g>
<g>
</g>
</svg>
