<?xml version="1.0" encoding="iso-8859-1"?>
<!-- Generator: Adobe Illustrator 19.0.0, SVG Export Plug-In . SVG Version: 6.00 Build 0)  -->
<svg xmlns="http://www.w3.org/2000/svg" xmlns:xlink="http://www.w3.org/1999/xlink" version="1.1" id="Capa_1" x="0px" y="0px" viewBox="0 0 512 512" style="enable-background:new 0 0 512 512;" xml:space="preserve">
<g>
	<g>
		<path d="M171.378,413.293V497c0,8.285,6.717,15,15,15h139.244c8.285,0,15-6.715,15-15v-83.707H171.378z"/>
	</g>
</g>
<g>
	<g>
		<path d="M487.36,231.361h-49.889c-3.191-38.957-18.698-74.473-42.609-102.65l35.34-35.342c5.858-5.857,5.858-15.354,0-21.212    c-5.857-5.857-15.355-5.857-21.214,0l-35.339,35.339c-28.179-23.909-63.695-39.416-102.65-42.607V15c0-8.284-6.715-15-15-15    c-8.283,0-15,6.716-15,15v49.889c-38.955,3.191-74.471,18.698-102.649,42.607l-35.339-35.338c-5.857-5.857-15.355-5.857-21.213,0    c-5.858,5.858-5.858,15.355,0,21.213l35.339,35.338c-23.91,28.18-39.417,63.695-42.608,102.652H24.64c-8.284,0-15,6.715-15,15    c0,8.283,6.716,15,15,15h49.886c2.468,30.17,12.362,59.145,28.995,84.566c4.156,6.352,8.688,12.404,13.553,18.147l-35.275,35.277    c-5.858,5.857-5.858,15.355,0,21.213c2.929,2.928,6.767,4.392,10.606,4.392c3.839,0,7.678-1.465,10.606-4.392l35.27-35.272    l2.001-2H241V320.96l-37.38-37.38c-5.858-5.857-5.858-15.355,0-21.213c5.857-5.857,15.355-5.857,21.213,0l31.166,31.166    l31.168-31.166c5.857-5.857,15.355-5.857,21.213,0c5.857,5.857,5.857,15.355,0,21.213l-37.381,37.381v62.332h100.719l2.001,2.002    l27.067,27.066l8.202,8.203c2.93,2.93,6.768,4.395,10.606,4.395c3.839,0,7.678-1.465,10.607-4.395    c5.858-5.858,5.858-15.355,0-21.213l-35.275-35.277c4.864-5.74,9.396-11.795,13.553-18.147    c16.633-25.422,26.526-54.396,28.994-84.566h49.887c8.285,0,15-6.717,15-15C502.36,238.076,495.646,231.361,487.36,231.361z"/>
	</g>
</g>
<g>
</g>
<g>
</g>
<g>
</g>
<g>
</g>
<g>
</g>
<g>
</g>
<g>
</g>
<g>
</g>
<g>
</g>
<g>
</g>
<g>
</g>
<g>
</g>
<g>
</g>
<g>
</g>
<g>
</g>
</svg>
