<?xml version="1.0" encoding="iso-8859-1"?>
<!-- Generator: Adobe Illustrator 19.0.0, SVG Export Plug-In . SVG Version: 6.00 Build 0)  -->
<svg xmlns="http://www.w3.org/2000/svg" xmlns:xlink="http://www.w3.org/1999/xlink" version="1.1" id="Capa_1" x="0px" y="0px" viewBox="0 0 512 512" style="enable-background:new 0 0 512 512;" xml:space="preserve">
<g>
	<g>
		<path d="M505.547,198.699H6.453C2.17,217.418,0,236.615,0,256c0,68.381,26.629,132.668,74.98,181.02    C123.332,485.371,187.621,512,256.002,512h100.414c52.568,0,95.334-42.766,95.334-95.334v-74.869H497c8.285,0,15-6.717,15-15V256    C512,236.615,509.83,217.418,505.547,198.699z"/>
	</g>
</g>
<g>
	<g>
		<path d="M471.102,109.065l-68.164-68.166c-2.813-2.813-6.629-4.393-10.607-4.393c-3.979,0-7.793,1.581-10.605,4.393L351.31,71.316    c-10.33-5.344-21.07-9.8-32.109-13.323V15c0-8.284-6.715-15-15-15h-96.398c-8.285,0-15,6.716-15,15v42.992    c-11.039,3.523-21.777,7.979-32.107,13.323L130.28,40.898c-2.813-2.813-6.629-4.393-10.607-4.393    c-3.978,0-7.793,1.581-10.605,4.393l-68.166,68.166c-2.814,2.812-4.395,6.629-4.395,10.605c0,3.979,1.58,7.795,4.395,10.607    L71.326,160.7c-1.358,2.631-2.656,5.301-3.906,7.998h377.17c-1.25-2.697-2.551-5.367-3.908-8l30.424-30.422    C476.959,124.42,476.959,114.922,471.102,109.065z"/>
	</g>
</g>
<g>
</g>
<g>
</g>
<g>
</g>
<g>
</g>
<g>
</g>
<g>
</g>
<g>
</g>
<g>
</g>
<g>
</g>
<g>
</g>
<g>
</g>
<g>
</g>
<g>
</g>
<g>
</g>
<g>
</g>
</svg>
