<?xml version="1.0" encoding="iso-8859-1"?>
<!-- Generator: Adobe Illustrator 19.0.0, SVG Export Plug-In . SVG Version: 6.00 Build 0)  -->
<svg xmlns="http://www.w3.org/2000/svg" xmlns:xlink="http://www.w3.org/1999/xlink" version="1.1" id="Capa_1" x="0px" y="0px" viewBox="0 0 512 512" style="enable-background:new 0 0 512 512;" xml:space="preserve">
<g>
	<g>
		<rect x="222.8" y="126.4" width="66.4" height="96.4"/>
	</g>
</g>
<g>
	<g>
		<path d="M0,383.467V497c0,8.285,6.716,15,15,15h177.8V383.467H0z"/>
	</g>
</g>
<g>
	<g>
		<path d="M319.2,383.467V512H497c8.284,0,15-6.715,15-15V383.467H319.2z"/>
	</g>
</g>
<g>
	<g>
		<polygon points="45.126,126.398 2.551,353.467 192.8,353.467 192.8,126.398   "/>
	</g>
</g>
<g>
	<g>
		<path d="M63.2,0c-8.284,0-15,6.716-15,15v81.398h144.6V0H63.2z"/>
	</g>
</g>
<g>
	<g>
		<polygon points="466.874,126.398 319.2,126.398 319.2,353.467 509.448,353.467   "/>
	</g>
</g>
<g>
	<g>
		<path d="M448.8,0H319.2v96.398h144.6V15C463.8,6.716,457.084,0,448.8,0z"/>
	</g>
</g>
<g>
</g>
<g>
</g>
<g>
</g>
<g>
</g>
<g>
</g>
<g>
</g>
<g>
</g>
<g>
</g>
<g>
</g>
<g>
</g>
<g>
</g>
<g>
</g>
<g>
</g>
<g>
</g>
<g>
</g>
</svg>
