<?xml version="1.0" encoding="iso-8859-1"?>
<!-- Generator: Adobe Illustrator 19.0.0, SVG Export Plug-In . SVG Version: 6.00 Build 0)  -->
<svg xmlns="http://www.w3.org/2000/svg" xmlns:xlink="http://www.w3.org/1999/xlink" version="1.1" id="Capa_1" x="0px" y="0px" viewBox="0 0 512 512" style="enable-background:new 0 0 512 512;" xml:space="preserve">
<g>
	<g>
		<path d="M139.214,4.394c-5.857-5.858-15.354-5.858-21.213,0L4.394,118C1.581,120.813,0,124.628,0,128.606    c0,3.979,1.581,7.794,4.394,10.607l95.576,95.574L234.789,99.971L139.214,4.394z"/>
	</g>
</g>
<g>
	<g>
		<path d="M507.607,372.791l-95.576-95.579L277.215,412.031l95.576,95.575c2.93,2.929,6.768,4.394,10.607,4.394    c3.838,0,7.678-1.465,10.605-4.394l113.603-113.603C513.465,388.146,513.465,378.648,507.607,372.791z"/>
	</g>
</g>
<g>
	<g>
		<path d="M256.006,121.181l-0.004,0.003L4.394,372.786C1.581,375.6,0.001,379.414,0,383.393V497c0,4.143,1.68,7.893,4.394,10.606    C7.107,510.32,10.857,512,14.999,512H15h113.609c3.979,0,7.794-1.58,10.607-4.395l251.602-251.607h0.001L256.006,121.181z"/>
	</g>
</g>
<g>
	<g>
		<path d="M507.604,117.997L394.005,4.396c-2.929-2.929-6.768-4.393-10.607-4.393s-7.678,1.464-10.606,4.393L277.22,99.968    l134.813,134.815l95.571-95.573C513.462,133.352,513.462,123.854,507.604,117.997z"/>
	</g>
</g>
<g>
</g>
<g>
</g>
<g>
</g>
<g>
</g>
<g>
</g>
<g>
</g>
<g>
</g>
<g>
</g>
<g>
</g>
<g>
</g>
<g>
</g>
<g>
</g>
<g>
</g>
<g>
</g>
<g>
</g>
</svg>
