<?xml version="1.0" encoding="iso-8859-1"?>
<!-- Generator: Adobe Illustrator 19.0.0, SVG Export Plug-In . SVG Version: 6.00 Build 0)  -->
<svg xmlns="http://www.w3.org/2000/svg" xmlns:xlink="http://www.w3.org/1999/xlink" version="1.1" id="Capa_1" x="0px" y="0px" viewBox="0 0 512 512" style="enable-background:new 0 0 512 512;" xml:space="preserve">
<g>
	<g>
		<path d="M239.933,174.599c-18.307,0-33.199,14.894-33.199,33.199c0,18.308,14.893,33.2,33.199,33.2    c18.307,0,33.2-14.893,33.2-33.2C273.133,189.492,258.239,174.599,239.933,174.599z"/>
	</g>
</g>
<g>
	<g>
		<path d="M437.021,74.979C388.669,26.629,324.382,0,256.003,0c-68.381,0-132.67,26.629-181.021,74.979    C26.629,123.331,0,187.618,0,255.998c0,68.383,26.629,132.67,74.981,181.023C123.333,485.372,187.621,512,256.003,512h100.413    c52.567,0,95.334-42.766,95.334-95.332v-74.873H497c8.284,0,15-6.717,15-15v-70.797C512,187.618,485.372,123.332,437.021,74.979z     M336.333,222.799h-35.014c-1.555,6.359-4.061,12.349-7.381,17.795l24.767,24.765c5.858,5.858,5.858,15.355,0.001,21.214    c-2.93,2.928-6.769,4.393-10.607,4.393c-3.839,0-7.678-1.464-10.606-4.393l-24.767-24.766c-5.446,3.318-11.435,5.824-17.793,7.379    V304.2c0,8.283-6.716,15-15,15s-15-6.717-15-15v-35.014c-6.358-1.555-12.347-4.06-17.792-7.379l-24.766,24.766    c-2.929,2.929-6.768,4.393-10.606,4.393c-3.839,0-7.678-1.464-10.607-4.393c-5.858-5.858-5.858-15.355,0-21.213l24.765-24.766    c-3.319-5.446-5.826-11.436-7.38-17.795h-35.014c-8.284,0-15-6.717-15-15.001s6.716-15,15-15h35.014    c1.554-6.358,4.06-12.347,7.379-17.793l-24.765-24.765c-5.857-5.857-5.857-15.355,0-21.213c5.858-5.857,15.355-5.857,21.213,0    l24.765,24.765c5.446-3.319,11.435-5.825,17.794-7.38v-35.013c0-8.284,6.716-15,15-15s15,6.716,15,15v35.013    c6.359,1.555,12.348,4.061,17.794,7.38l24.766-24.765c5.858-5.857,15.356-5.857,21.214,0c5.857,5.858,5.857,15.355-0.001,21.214    l-24.765,24.764c3.318,5.446,5.824,11.435,7.379,17.793h35.014c8.284,0,15,6.716,15,15    C351.333,216.082,344.617,222.799,336.333,222.799z"/>
	</g>
</g>
<g>
</g>
<g>
</g>
<g>
</g>
<g>
</g>
<g>
</g>
<g>
</g>
<g>
</g>
<g>
</g>
<g>
</g>
<g>
</g>
<g>
</g>
<g>
</g>
<g>
</g>
<g>
</g>
<g>
</g>
</svg>
