<?xml version="1.0" encoding="iso-8859-1"?>
<!-- Generator: Adobe Illustrator 19.0.0, SVG Export Plug-In . SVG Version: 6.00 Build 0)  -->
<svg xmlns="http://www.w3.org/2000/svg" xmlns:xlink="http://www.w3.org/1999/xlink" version="1.1" id="Capa_1" x="0px" y="0px" viewBox="0 0 512 512" style="enable-background:new 0 0 512 512;" xml:space="preserve">
<g>
	<g>
		<path d="M255.987,449.431l-35.568,17.784l22.396,37.326c2.777,4.627,7.778,7.457,13.175,7.457c5.396,0,10.396-2.831,13.173-7.458    l22.395-37.325L255.987,449.431z"/>
	</g>
</g>
<g>
	<g>
		<path d="M44.254,490.93c-2.369,5.922-0.833,12.693,3.861,17.011c2.901,2.667,6.634,4.058,10.407,4.058    c2.335,0,4.686-0.533,6.866-1.622l175.238-87.618V0L44.254,490.93z"/>
	</g>
</g>
<g>
	<g>
		<path d="M467.418,490.161L271.353,0v422.759l175.238,87.618c2.181,1.09,4.531,1.622,6.867,1.622c0.06,0,0.122-0.001,0.182-0.001    c8.412-0.085,15.206-6.931,15.206-15.363C468.845,494.323,468.333,492.128,467.418,490.161z"/>
	</g>
</g>
<g>
</g>
<g>
</g>
<g>
</g>
<g>
</g>
<g>
</g>
<g>
</g>
<g>
</g>
<g>
</g>
<g>
</g>
<g>
</g>
<g>
</g>
<g>
</g>
<g>
</g>
<g>
</g>
<g>
</g>
</svg>
