<?xml version="1.0" encoding="iso-8859-1"?>
<!-- Generator: Adobe Illustrator 19.0.0, SVG Export Plug-In . SVG Version: 6.00 Build 0)  -->
<svg xmlns="http://www.w3.org/2000/svg" xmlns:xlink="http://www.w3.org/1999/xlink" version="1.1" id="Capa_1" x="0px" y="0px" viewBox="0 0 512 512" style="enable-background:new 0 0 512 512;" xml:space="preserve">
<g>
	<g>
		<path d="M160.666,398.103V497c0,8.285,6.715,15,15,15h160.668c8.283,0,15-6.715,15-15v-98.897H160.666z"/>
	</g>
</g>
<g>
	<g>
		<path d="M256,0C141.418,0,48.199,93.219,48.199,207.8c0,40.544,11.686,79.833,33.793,113.62    c11.58,17.699,25.692,33.395,41.796,46.684H241v-75.185l-43.807-43.807c-5.858-5.857-5.858-15.355,0-21.213    c5.857-5.857,15.355-5.857,21.213,0L256,265.492l37.591-37.594c5.857-5.857,15.356-5.857,21.213,0s5.857,15.355,0,21.213    L271,292.918v75.185h117.211c16.104-13.289,30.215-28.984,41.797-46.684c22.107-33.787,33.793-73.076,33.793-113.62    C463.801,93.219,370.582,0,256,0z"/>
	</g>
</g>
<g>
</g>
<g>
</g>
<g>
</g>
<g>
</g>
<g>
</g>
<g>
</g>
<g>
</g>
<g>
</g>
<g>
</g>
<g>
</g>
<g>
</g>
<g>
</g>
<g>
</g>
<g>
</g>
<g>
</g>
</svg>
