<?xml version="1.0" encoding="iso-8859-1"?>
<!-- Generator: Adobe Illustrator 19.0.0, SVG Export Plug-In . SVG Version: 6.00 Build 0)  -->
<svg xmlns="http://www.w3.org/2000/svg" xmlns:xlink="http://www.w3.org/1999/xlink" version="1.1" id="Capa_1" x="0px" y="0px" viewBox="0 0 512 512" style="enable-background:new 0 0 512 512;" xml:space="preserve">
<g>
	<g>
		<path d="M256,301c-5.259,0-10.306-0.914-15-2.58c-12.764-4.526-22.893-14.656-27.42-27.42c-1.665-4.694-2.58-9.741-2.58-15v-15H15    c-8.284,0-15,6.717-15,15v241c0,8.285,6.716,15,15,15h241c8.284,0,15-6.715,15-15V301H256z"/>
	</g>
</g>
<g>
	<g>
		<path d="M507.606,73.251L438.749,4.394C435.936,1.58,432.121,0,428.143,0c-3.978,0-7.794,1.58-10.607,4.394l-58.444,58.443    c0.772,0.524,1.511,1.122,2.196,1.807l86.068,86.069c0.684,0.685,1.281,1.423,1.806,2.195l58.444-58.444    c2.813-2.813,4.394-6.628,4.394-10.606C512,79.88,510.42,76.063,507.606,73.251z"/>
	</g>
</g>
<g>
	<g>
		<path d="M426.143,171.925l-86.068-86.069c-0.686-0.685-1.282-1.423-1.807-2.196l-92.875,92.873    c-2.813,2.813-4.394,6.629-4.394,10.607V241v15c0,8.285,6.716,15,15,15h15h53.857c3.978,0,7.794-1.58,10.607-4.393l92.875-92.875    C427.565,173.208,426.826,172.61,426.143,171.925z"/>
	</g>
</g>
<g>
</g>
<g>
</g>
<g>
</g>
<g>
</g>
<g>
</g>
<g>
</g>
<g>
</g>
<g>
</g>
<g>
</g>
<g>
</g>
<g>
</g>
<g>
</g>
<g>
</g>
<g>
</g>
<g>
</g>
</svg>
