<?xml version="1.0" encoding="iso-8859-1"?>
<!-- Generator: Adobe Illustrator 19.0.0, SVG Export Plug-In . SVG Version: 6.00 Build 0)  -->
<svg version="1.1" id="Layer_1" xmlns="http://www.w3.org/2000/svg" xmlns:xlink="http://www.w3.org/1999/xlink" x="0px" y="0px"
	 viewBox="0 0 511.999 511.999" style="enable-background:new 0 0 511.999 511.999;" xml:space="preserve">
<g>
	<g>
		<g>
			<path d="M315.691,302.109c-27.861-7.31-54.859,13.825-54.859,42.281c0,24.103,19.609,43.713,43.713,43.713h61.09
				c31.721,0,57.527-25.807,57.527-57.526C423.161,271.925,345.039,250.944,315.691,302.109z"/>
			<path d="M152.042,265.075l43.111-59.737c1.604-2.223,4.178-3.54,6.919-3.54h54.362c3.141,0,5.689-2.546,5.689-5.689v-51.444
				c0-3.499-3.129-6.169-6.584-5.618l-137.344,21.887l-10.505-26.088c-2.601-6.46-8.867-10.69-15.831-10.69H17.47
				c-12.965,0-20.61,12.549-16.228,23.438l36.066,89.617c7.383,18.36,24.942,30.223,44.733,30.223h65.388
				C149.256,267.435,150.973,266.557,152.042,265.075z"/>
			<path d="M498.053,183.851c-23.104-23.748-45.259-8.711-55.676-19.82c-31.98-34.083-77.773-42.363-94.729-39.661l-63.665,10.145
				c-2.761,0.44-4.793,2.822-4.793,5.618v55.977c0,3.143,2.547,5.689,5.689,5.689h75.51c8.014,0,11.494,9.151,6.395,14.45
				l-39.984,41.553c-3.477,3.613-0.916,9.633,4.099,9.633h131.175c26.782,0,49.17-21.473,49.907-47.868c0-0.002,0-0.005,0-0.007
				C512.35,206.144,507.404,193.462,498.053,183.851z"/>
			<path d="M327.211,218.865H209.347c-1.827,0-3.544,0.878-4.614,2.36l-80.41,111.422c-5.149,11.069,2.584,24.262,15.914,24.262
				h60.765c3.451,0,6.787-1.048,9.595-2.957l120.714-125.453C334.788,224.884,332.227,218.865,327.211,218.865z"/>
		</g>
	</g>
</g>
<g>
</g>
<g>
</g>
<g>
</g>
<g>
</g>
<g>
</g>
<g>
</g>
<g>
</g>
<g>
</g>
<g>
</g>
<g>
</g>
<g>
</g>
<g>
</g>
<g>
</g>
<g>
</g>
<g>
</g>
</svg>
