<?xml version="1.0" encoding="iso-8859-1"?>
<!-- Generator: Adobe Illustrator 19.0.0, SVG Export Plug-In . SVG Version: 6.00 Build 0)  -->
<svg version="1.1" id="Layer_1" xmlns="http://www.w3.org/2000/svg" xmlns:xlink="http://www.w3.org/1999/xlink" x="0px" y="0px"
	 viewBox="0 0 512 512" style="enable-background:new 0 0 512 512;" xml:space="preserve">
<g>
	<g>
		<g>
			<path d="M494.933,372.911c-9.383,0-429.843,0-477.867,0C7.641,372.911,0,380.553,0,389.978s7.641,17.067,17.067,17.067h61.901
				v7.038c0,9.425,7.641,17.067,17.067,17.067s17.067-7.641,17.067-17.067v-7.038h125.833v7.038c0,9.425,7.641,17.067,17.067,17.067
				s17.067-7.641,17.067-17.067v-7.038h125.833v7.038c0,9.425,7.641,17.067,17.067,17.067s17.067-7.641,17.067-17.067v-7.038h61.901
				c9.425,0,17.067-7.641,17.067-17.067S504.359,372.911,494.933,372.911z"/>
			<path d="M362.22,355.845h107.493c6.284,0,11.378-5.094,11.378-11.378V97.917c0-9.425-7.641-17.067-17.067-17.067h-96.115
				c-9.425,0-17.067,7.641-17.067,17.067v246.55C350.842,350.751,355.937,355.845,362.22,355.845z"/>
			<path d="M202.254,355.845h107.494c6.284,0,11.378-5.094,11.378-11.378V207.26c0-9.425-7.641-17.067-17.067-17.067h-96.116
				c-9.425,0-17.067,7.641-17.067,17.067v137.207C190.876,350.751,195.97,355.845,202.254,355.845z"/>
			<path d="M42.288,355.845h107.493c6.284,0,11.378-5.094,11.378-11.378V133.548c0-9.425-7.641-17.067-17.067-17.067H47.977
				c-9.425,0-17.067,7.641-17.067,17.067v210.919C30.91,350.751,36.004,355.845,42.288,355.845z"/>
		</g>
	</g>
</g>
<g>
</g>
<g>
</g>
<g>
</g>
<g>
</g>
<g>
</g>
<g>
</g>
<g>
</g>
<g>
</g>
<g>
</g>
<g>
</g>
<g>
</g>
<g>
</g>
<g>
</g>
<g>
</g>
<g>
</g>
</svg>
