<?xml version="1.0" encoding="iso-8859-1"?>
<!-- Generator: Adobe Illustrator 19.0.0, SVG Export Plug-In . SVG Version: 6.00 Build 0)  -->
<svg version="1.1" id="Layer_1" xmlns="http://www.w3.org/2000/svg" xmlns:xlink="http://www.w3.org/1999/xlink" x="0px" y="0px"
	 viewBox="0 0 512.001 512.001" style="enable-background:new 0 0 512.001 512.001;" xml:space="preserve">
<g>
	<g>
		<g>
			<path d="M240.052,268.162c0,5.606,5.026,9.086,12.373,12.181v-23.008C243.724,259.076,240.052,263.522,240.052,268.162z"/>
			<path d="M263.25,316.109v25.906c6.574-1.547,11.793-5.22,11.793-12.179C275.044,323.456,270.211,319.396,263.25,316.109z"/>
			<path d="M463.952,89.881H48.048C21.554,89.881,0,111.435,0,137.93v325.039c0,26.494,21.554,48.049,48.048,48.049h415.905
				c26.493,0,48.048-21.555,48.048-48.049V137.93C512,111.435,490.446,89.881,463.952,89.881z M434.105,423.755
				c0,5.174-4.193,9.366-9.366,9.366H87.261c-5.172,0-9.366-4.192-9.366-9.366V177.143c0-5.174,4.193-9.366,9.366-9.366h337.478
				c5.172,0,9.366,4.192,9.366,9.366V423.755z"/>
			<path d="M402.885,186.508H109.115c-6.897,0-12.488,5.591-12.488,12.488v202.904c0,6.898,5.591,12.489,12.488,12.489h293.771
				c6.897,0,12.488-5.591,12.488-12.488V198.996C415.373,192.099,409.782,186.508,402.885,186.508z M265.184,368.887v5.606
				c0,2.707-3.673,5.221-7.347,5.221c-4.253,0-7.347-2.514-7.347-5.221v-4.833c-23.2-0.773-42.145-12.76-42.145-25.133
				c0-6.574,5.799-16.24,13.146-16.24c8.12,0,14.693,11.408,28.999,13.921v-31.321c-17.786-6.765-38.666-15.078-38.666-39.825
				c0-24.552,18.172-36.346,38.666-39.247v-5.413c0-2.706,3.093-5.22,7.347-5.22c3.673,0,7.347,2.514,7.347,5.22v4.834
				c11.987,0.387,34.606,3.479,34.606,16.82c0,5.22-3.48,15.852-11.987,15.852c-6.38,0-10.053-6.186-22.619-7.153v28.226
				c17.593,6.574,38.087,15.66,38.087,41.759C303.27,350.713,287.804,365.214,265.184,368.887z"/>
			<path d="M180.679,71.15h14.491c4.157,0,8.088-2.038,10.36-5.52c23.678-36.288,77.26-36.293,100.941,0
				c2.272,3.482,6.203,5.52,10.36,5.52h14.493c9.408,0,15.439-10.011,11.047-18.331c-36.468-69.066-136.222-69.161-172.739,0
				C165.239,61.138,171.27,71.15,180.679,71.15z"/>
		</g>
	</g>
</g>
<g>
</g>
<g>
</g>
<g>
</g>
<g>
</g>
<g>
</g>
<g>
</g>
<g>
</g>
<g>
</g>
<g>
</g>
<g>
</g>
<g>
</g>
<g>
</g>
<g>
</g>
<g>
</g>
<g>
</g>
</svg>
