<?xml version="1.0" encoding="iso-8859-1"?>
<!-- Generator: Adobe Illustrator 19.0.0, SVG Export Plug-In . SVG Version: 6.00 Build 0)  -->
<svg version="1.1" id="Layer_1" xmlns="http://www.w3.org/2000/svg" xmlns:xlink="http://www.w3.org/1999/xlink" x="0px" y="0px"
	 viewBox="0 0 512 512" style="enable-background:new 0 0 512 512;" xml:space="preserve">
<g>
	<g>
		<path d="M499.46,265.4h-53.967v0.001c-5.289,0-9.558-4.366-9.399-9.692c0.154-5.146,4.644-9.113,9.792-9.113h53.574
			c7.381,0,13.147-6.346,12.489-13.699C500.91,109.587,402.412,11.088,279.102,0.051c-7.353-0.658-13.699,5.107-13.699,12.489
			v53.572c0,5.149-3.967,9.638-9.113,9.792c-5.324,0.159-9.692-4.109-9.692-9.397V12.54c0-7.382-6.346-13.147-13.699-12.489
			C109.587,11.088,11.088,109.587,0.051,232.898c-0.658,7.353,5.107,13.699,12.489,13.699h53.572c5.149,0,9.638,3.967,9.792,9.113
			c0.159,5.324-4.109,9.692-9.397,9.692H12.54c-7.382,0-13.147,6.346-12.489,13.699c11.037,123.312,109.535,221.81,232.847,232.848
			c7.353,0.658,13.699-5.107,13.699-12.489v-53.573c0-5.149,3.968-9.638,9.114-9.792c5.324-0.159,9.691,4.109,9.691,9.397v53.967
			c0,7.381,6.346,13.147,13.699,12.489c123.312-11.038,221.81-109.535,232.848-232.848C512.607,271.746,506.841,265.4,499.46,265.4z
			 M319.716,265.402h-63.721c-5.193,0-9.402-4.21-9.402-9.402V141.4c0-5.193,4.21-9.402,9.402-9.402s9.401,4.21,9.401,9.402v105.196
			h54.318c5.194,0,9.402,4.21,9.402,9.402C329.118,261.193,324.909,265.402,319.716,265.402z"/>
	</g>
</g>
<g>
</g>
<g>
</g>
<g>
</g>
<g>
</g>
<g>
</g>
<g>
</g>
<g>
</g>
<g>
</g>
<g>
</g>
<g>
</g>
<g>
</g>
<g>
</g>
<g>
</g>
<g>
</g>
<g>
</g>
</svg>
