<?xml version="1.0" encoding="iso-8859-1"?>
<!-- Generator: Adobe Illustrator 19.0.0, SVG Export Plug-In . SVG Version: 6.00 Build 0)  -->
<svg version="1.1" id="Layer_1" xmlns="http://www.w3.org/2000/svg" xmlns:xlink="http://www.w3.org/1999/xlink" x="0px" y="0px"
	 viewBox="0 0 512 512" style="enable-background:new 0 0 512 512;" xml:space="preserve">
<g>
	<g>
		<g>
			<path d="M321.803,133.57h89.219c11.079,0,16.676-13.353,8.901-21.246c-24.311-24.682-64.681-65.048-89.364-89.356
				c-7.894-7.774-21.245-2.177-21.245,8.903v89.212C309.315,127.979,314.906,133.57,321.803,133.57z"/>
			<path d="M265.766,328.838v34.897c8.855-2.084,15.887-7.032,15.887-16.406C281.653,338.734,275.142,333.266,265.766,328.838z"/>
			<path d="M430.402,152.301H299.949c-5.172,0-9.366-4.193-9.366-9.366V12.488C290.583,5.591,284.992,0,278.095,0H87.844
				C77.499,0,69.112,8.387,69.112,18.732v474.537c0,10.345,8.387,18.732,18.732,18.732h336.313c10.345,0,18.732-8.387,18.732-18.732
				V164.789C442.889,157.893,437.299,152.301,430.402,152.301z M145.357,142.935c0-5.172,4.192-9.366,9.366-9.366h78.345
				c5.174,0,9.366,4.193,9.366,9.366c0,5.172-4.192,9.366-9.366,9.366h-78.345C149.551,152.301,145.357,148.109,145.357,142.935z
				 M268.371,399.933v7.551c0,3.646-4.948,7.032-9.897,7.032c-5.729,0-9.897-3.385-9.897-7.032v-6.51
				c-31.25-1.042-56.772-17.188-56.772-33.854c0-8.854,7.814-21.876,17.709-21.876c10.938,0,19.793,15.365,39.063,18.75v-42.189
				c-23.959-9.115-52.084-20.313-52.084-53.646c0-33.074,24.48-48.96,52.084-52.866v-7.292c0-3.646,4.167-7.032,9.897-7.032
				c4.949,0,9.897,3.385,9.897,7.032v6.51c16.147,0.521,46.616,4.688,46.616,22.657c0,7.032-4.688,21.355-16.147,21.355
				c-8.594,0-13.543-8.333-30.469-9.636v38.022c23.699,8.854,51.304,21.094,51.304,56.251
				C319.675,375.453,298.841,394.986,268.371,399.933z"/>
			<path d="M234.517,264.253c0,7.551,6.771,12.239,16.667,16.406v-30.99C239.464,252.013,234.517,258.003,234.517,264.253z"/>
		</g>
	</g>
</g>
<g>
</g>
<g>
</g>
<g>
</g>
<g>
</g>
<g>
</g>
<g>
</g>
<g>
</g>
<g>
</g>
<g>
</g>
<g>
</g>
<g>
</g>
<g>
</g>
<g>
</g>
<g>
</g>
<g>
</g>
</svg>
