<?xml version="1.0" encoding="iso-8859-1"?>
<!-- Generator: Adobe Illustrator 19.0.0, SVG Export Plug-In . SVG Version: 6.00 Build 0)  -->
<svg version="1.1" id="Layer_1" xmlns="http://www.w3.org/2000/svg" xmlns:xlink="http://www.w3.org/1999/xlink" x="0px" y="0px"
	 viewBox="0 0 512.001 512.001" style="enable-background:new 0 0 512.001 512.001;" xml:space="preserve">
<g>
	<g>
		<g>
			<path d="M426.852,96.407L312.705,17.689c-7.096-4.893-16.675-4.021-22.769,2.074l-7.3,7.3L268.83,13.258
				c-17.675-17.677-46.439-17.678-64.117,0c-17.678,17.677-17.678,46.439,0,64.117l13.806,13.804l-7.3,7.3
				c-6.095,6.095-6.968,15.674-2.074,22.769l25.523,37.01l-58.982,51.923c-3.407,3,2.352,3.794,11.266,13.951
				c8.909,10.063,8.976,15.821,12.367,12.836l55.772-49.097l32.774,47.525c6.349,9.207,19.468,10.357,27.334,2.49l114.147-114.149
				C437.231,115.85,436.025,102.732,426.852,96.407z"/>
			<path d="M139.779,326.683l22.273,44.068c0.544,1.076,1.802,1.563,2.936,1.156c24.707-8.858,35.303-4.692,32.473-10.292
				l-25.808-51.062c40.528-41.52-3.568-110.509-58.811-89.706C52.239,243.67,74.82,335.762,139.779,326.683z"/>
			<path d="M208.022,382.309c-60.65,0-109.992,49.342-109.992,109.992v1.84c0,9.864,7.997,17.861,17.861,17.861h184.261
				c9.864,0,17.861-7.997,17.861-17.861v-1.84C318.013,431.65,268.671,382.309,208.022,382.309z"/>
			<path d="M417.712,160.63l-65.599,65.599c-1.431,1.431-0.535,3.863,1.48,4.062c39.003,3.862,72.066-28.974,68.18-68.18
				C421.574,160.095,419.144,159.197,417.712,160.63z"/>
		</g>
	</g>
</g>
<g>
</g>
<g>
</g>
<g>
</g>
<g>
</g>
<g>
</g>
<g>
</g>
<g>
</g>
<g>
</g>
<g>
</g>
<g>
</g>
<g>
</g>
<g>
</g>
<g>
</g>
<g>
</g>
<g>
</g>
</svg>
