<?xml version="1.0" encoding="iso-8859-1"?>
<!-- Generator: Adobe Illustrator 19.0.0, SVG Export Plug-In . SVG Version: 6.00 Build 0)  -->
<svg version="1.1" id="Layer_1" xmlns="http://www.w3.org/2000/svg" xmlns:xlink="http://www.w3.org/1999/xlink" x="0px" y="0px"
	 viewBox="0 0 512 512" style="enable-background:new 0 0 512 512;" xml:space="preserve">
<g>
	<g>
		<g>
			<path d="M493.268,84.612h-36.579V27.079c0-10.345-8.387-18.732-18.732-18.732h-235.97c-10.345,0-18.732,8.387-18.732,18.732
				v57.533H165.41v-1.544c0-22.03-17.924-39.952-39.952-39.952H39.952C17.922,43.116,0,61.039,0,83.068v294.936
				c0,22.03,17.922,39.952,39.952,39.952h85.505c22.03,0,39.952-17.922,39.952-39.952v-1.543h327.859
				c10.345,0,18.732-8.387,18.732-18.732V103.343C512,92.999,503.613,84.612,493.268,84.612z M237.025,283.52
				c0,5.172-4.192,9.366-9.366,9.366s-9.366-4.193-9.366-9.366v-40.774c0-5.172,4.192-9.366,9.366-9.366s9.366,4.193,9.366,9.366
				V283.52z M298.567,283.52c0,5.172-4.192,9.366-9.366,9.366s-9.366-4.193-9.366-9.366v-40.774c0-5.172,4.192-9.366,9.366-9.366
				s9.366,4.193,9.366,9.366V283.52z M360.11,283.52c0,5.172-4.192,9.366-9.366,9.366s-9.366-4.193-9.366-9.366v-40.774
				c0-5.172,4.192-9.366,9.366-9.366s9.366,4.193,9.366,9.366V283.52z M421.652,283.52c0,5.172-4.192,9.366-9.366,9.366
				s-9.366-4.193-9.366-9.366v-40.774c0-5.172,4.192-9.366,9.366-9.366s9.366,4.193,9.366,9.366V283.52z M412.286,186.918H227.659
				c-5.174,0-9.366-4.193-9.366-9.366c0-5.172,4.192-9.366,9.366-9.366h184.628c5.174,0,9.366,4.193,9.366,9.366
				C421.652,182.725,417.46,186.918,412.286,186.918z"/>
			<path d="M444.201,395.192H195.744c-6.897,0-12.488,5.591-12.488,12.488v77.241c0,10.345,8.387,18.732,18.732,18.732h235.97
				c10.345,0,18.732-8.387,18.732-18.732V407.68C456.689,400.784,451.098,395.192,444.201,395.192z M350.392,458.789h-60.838
				c-5.174,0-9.366-4.193-9.366-9.366s4.192-9.366,9.366-9.366h60.838c5.174,0,9.366,4.193,9.366,9.366
				S355.564,458.789,350.392,458.789z"/>
		</g>
	</g>
</g>
<g>
</g>
<g>
</g>
<g>
</g>
<g>
</g>
<g>
</g>
<g>
</g>
<g>
</g>
<g>
</g>
<g>
</g>
<g>
</g>
<g>
</g>
<g>
</g>
<g>
</g>
<g>
</g>
<g>
</g>
</svg>
