<?xml version="1.0" encoding="iso-8859-1"?>
<!-- Generator: Adobe Illustrator 19.0.0, SVG Export Plug-In . SVG Version: 6.00 Build 0)  -->
<svg version="1.1" id="Layer_1" xmlns="http://www.w3.org/2000/svg" xmlns:xlink="http://www.w3.org/1999/xlink" x="0px" y="0px"
	 viewBox="0 0 512.001 512.001" style="enable-background:new 0 0 512.001 512.001;" xml:space="preserve">
<g>
	<g>
		<g>
			<path d="M283.585,386.226c-1.065-1.049-2.504-1.643-3.998-1.643H177.288c-1.459,0-2.862,0.559-3.917,1.565
				c-6.117,5.82-15.422,14.183-8.926,26.208l49.001,90.705c6.43,11.901,23.583,11.94,30.034-0.002
				C299.82,398.741,303.231,405.577,283.585,386.226z"/>
			<path d="M178.786,367.515h99.348c2.834,0,5.235-2.078,5.632-4.883c2.682-18.975,6.784-47.728,8.703-83.552
				c0.175-3.259-2.42-6.007-5.683-6.007H170.138c-3.263,0-5.857,2.748-5.683,6.007c1.916,35.798,6.01,64.53,8.699,83.552
				C173.551,365.438,175.95,367.515,178.786,367.515z"/>
			<path d="M175.879,53.142h105.163c3.539,0,6.218-3.196,5.603-6.68l-5.728-32.368C279.474,5.942,272.389,0,264.11,0h-71.301
				c-8.279,0-15.364,5.942-16.807,14.094l-5.728,32.368C169.659,49.946,172.34,53.142,175.879,53.142z"/>
			<path d="M345.885,70.21H166.074l-0.002,0.011c-7.616,1.712-13.311,8.505-13.311,16.639v153.064
				c0,7.215,4.484,13.37,10.811,15.868c0.001,0.072,0.003,0.143,0.006,0.215h129.768c0.001-0.073,0.003-0.143,0.006-0.216
				c6.325-2.497,10.807-8.653,10.807-15.867V103.927h20.947v135.997c0,9.426,7.641,17.067,17.067,17.067s17.067-7.642,17.067-17.067
				V86.86C359.241,78.71,353.525,71.906,345.885,70.21z"/>
		</g>
	</g>
</g>
<g>
</g>
<g>
</g>
<g>
</g>
<g>
</g>
<g>
</g>
<g>
</g>
<g>
</g>
<g>
</g>
<g>
</g>
<g>
</g>
<g>
</g>
<g>
</g>
<g>
</g>
<g>
</g>
<g>
</g>
</svg>
