<?xml version="1.0" encoding="iso-8859-1"?>
<!-- Generator: Adobe Illustrator 19.0.0, SVG Export Plug-In . SVG Version: 6.00 Build 0)  -->
<svg version="1.1" id="Layer_1" xmlns="http://www.w3.org/2000/svg" xmlns:xlink="http://www.w3.org/1999/xlink" x="0px" y="0px"
	 viewBox="0 0 512 512" style="enable-background:new 0 0 512 512;" xml:space="preserve">
<g>
	<g>
		<g>
			<path d="M0,485.057c0,10.345,8.387,18.732,18.732,18.732h474.537c10.345,0,18.732-8.387,18.732-18.732V261.732H0V485.057z
				 M252.698,315.462h175.903c5.174,0,9.366,4.193,9.366,9.366c0,5.174-4.193,9.366-9.366,9.366H252.698
				c-5.172,0-9.366-4.193-9.366-9.366C243.332,319.656,247.526,315.462,252.698,315.462z M252.698,373.395h175.903
				c5.174,0,9.366,4.193,9.366,9.366s-4.193,9.366-9.366,9.366H252.698c-5.172,0-9.366-4.193-9.366-9.366
				S247.526,373.395,252.698,373.395z M252.698,431.327h175.903c5.174,0,9.366,4.193,9.366,9.366c0,5.172-4.193,9.366-9.366,9.366
				H252.698c-5.172,0-9.366-4.193-9.366-9.366C243.332,435.52,247.526,431.327,252.698,431.327z M74.033,324.829
				c0-5.172,4.193-9.366,9.366-9.366h115.863c5.172,0,9.366,4.193,9.366,9.366v115.863c0,5.172-4.193,9.366-9.366,9.366H83.399
				c-5.172,0-9.366-4.193-9.366-9.366V324.829z"/>
			<path d="M156.105,236.757v-84.823c0-3.449-2.796-6.244-6.244-6.244H18.732C8.387,145.689,0,154.076,0,164.421v78.579h149.861
				C153.309,243.001,156.105,240.205,156.105,236.757z"/>
			<path d="M493.268,145.689H362.139c-3.448,0-6.244,2.796-6.244,6.244v84.823c0,3.448,2.796,6.244,6.244,6.244H512v-78.58
				C512,154.075,503.613,145.689,493.268,145.689z"/>
			<path d="M181.079,243.001h149.839c3.449,0,6.244-2.796,6.244-6.244V89.374c0.001-45.172-37.094-81.844-82.423-81.153
				c-44.534,0.679-79.903,37.847-79.903,82.386v146.15C174.836,240.205,177.632,243.001,181.079,243.001z M256,71.557
				c12.825,0,23.222,10.397,23.222,23.222c0,12.825-10.397,23.222-23.222,23.222s-23.222-10.397-23.222-23.222
				S243.175,71.557,256,71.557z"/>
		</g>
	</g>
</g>
<g>
</g>
<g>
</g>
<g>
</g>
<g>
</g>
<g>
</g>
<g>
</g>
<g>
</g>
<g>
</g>
<g>
</g>
<g>
</g>
<g>
</g>
<g>
</g>
<g>
</g>
<g>
</g>
<g>
</g>
</svg>
