<?xml version="1.0" encoding="iso-8859-1"?>
<!-- Generator: Adobe Illustrator 19.0.0, SVG Export Plug-In . SVG Version: 6.00 Build 0)  -->
<svg version="1.1" id="Layer_1" xmlns="http://www.w3.org/2000/svg" xmlns:xlink="http://www.w3.org/1999/xlink" x="0px" y="0px"
	 viewBox="0 0 512 512" style="enable-background:new 0 0 512 512;" xml:space="preserve">
<g>
	<g>
		<g>
			<path d="M417.471,225.428H94.529c-6.576,0-11.907,5.331-11.907,11.907v153.107C82.623,457.577,137.046,512,204.181,512h103.638
				c67.135,0,121.558-54.423,121.558-121.558V237.335C429.377,230.758,424.047,225.428,417.471,225.428z"/>
			<path d="M307.819,0h-30.987c-6.576,0-11.907,5.331-11.907,11.907v61.911c-0.001,3.239,2.624,5.864,5.863,5.864h0.012
				c9.864,0,17.86,7.997,17.86,17.86v39.272c0,9.864-7.997,17.86-17.86,17.86h-0.012c-3.239,0-5.864,2.626-5.864,5.864v35.121
				c0,6.576,5.331,11.907,11.907,11.907h140.639c6.576,0,11.907-5.331,11.907-11.907v-74.102C429.377,54.423,374.954,0,307.819,0z"
				/>
			<path d="M94.529,207.566h140.627c6.576,0.001,11.907-5.33,11.907-11.906v-35.121c0-3.239-2.625-5.864-5.864-5.864
				c-9.864,0-17.86-7.997-17.86-17.86V97.543c0-9.864,7.997-17.86,17.86-17.86c3.239,0,5.864-2.625,5.864-5.864V11.907
				C247.064,5.331,241.733,0,235.157,0h-30.976C137.046,0,82.623,54.423,82.623,121.558v74.101
				C82.623,202.235,87.953,207.566,94.529,207.566z"/>
		</g>
	</g>
</g>
<g>
</g>
<g>
</g>
<g>
</g>
<g>
</g>
<g>
</g>
<g>
</g>
<g>
</g>
<g>
</g>
<g>
</g>
<g>
</g>
<g>
</g>
<g>
</g>
<g>
</g>
<g>
</g>
<g>
</g>
</svg>
