<?xml version="1.0" encoding="iso-8859-1"?>
<!-- Generator: Adobe Illustrator 19.0.0, SVG Export Plug-In . SVG Version: 6.00 Build 0)  -->
<svg version="1.1" id="Layer_1" xmlns="http://www.w3.org/2000/svg" xmlns:xlink="http://www.w3.org/1999/xlink" x="0px" y="0px"
	 viewBox="0 0 512.001 512.001" style="enable-background:new 0 0 512.001 512.001;" xml:space="preserve">
<g>
	<g>
		<g>
			<path d="M364.296,368.179V63.958c0.001-10.345-8.386-18.732-18.731-18.732h-54.269l-84.601,84.6
				c-7.315,7.315-19.175,7.317-26.49,0c-7.315-7.315-7.315-19.175,0-26.49l58.109-58.109H41.346
				c-10.345,0-18.732,8.387-18.732,18.732v304.22c0,10.345,8.387,18.732,18.732,18.732h304.219
				C355.91,386.91,364.296,378.523,364.296,368.179z"/>
			<path d="M470.656,170.317h-75.139c-6.897,0-12.488,5.591-12.488,12.488v185.374c0,20.691-16.774,37.463-37.463,37.463H160.192
				c-6.897,0-12.488,5.591-12.488,12.488v75.139c0,10.345,8.387,18.732,18.732,18.732h304.219c10.345,0,18.732-8.387,18.732-18.732
				v-304.22C489.388,178.704,481.001,170.317,470.656,170.317z"/>
			<path d="M304.546,5.487c-7.313-7.315-19.175-7.315-26.49,0l-39.74,39.74h52.981l13.25-13.25
				C311.861,24.663,311.861,12.802,304.546,5.487z"/>
		</g>
	</g>
</g>
<g>
</g>
<g>
</g>
<g>
</g>
<g>
</g>
<g>
</g>
<g>
</g>
<g>
</g>
<g>
</g>
<g>
</g>
<g>
</g>
<g>
</g>
<g>
</g>
<g>
</g>
<g>
</g>
<g>
</g>
</svg>
