<?xml version="1.0" encoding="iso-8859-1"?>
<!-- Generator: Adobe Illustrator 19.0.0, SVG Export Plug-In . SVG Version: 6.00 Build 0)  -->
<svg version="1.1" id="Layer_1" xmlns="http://www.w3.org/2000/svg" xmlns:xlink="http://www.w3.org/1999/xlink" x="0px" y="0px"
	 viewBox="0 0 512 512" style="enable-background:new 0 0 512 512;" xml:space="preserve">
<g>
	<g>
		<g>
			<path d="M445.522,135.68H66.478c-6.897,0-12.488,5.591-12.488,12.488v345.101c0,10.345,8.387,18.732,18.732,18.732h366.556
				c10.345,0,18.732-8.387,18.732-18.732V148.168C458.01,141.271,452.419,135.68,445.522,135.68z M183.648,198.998h144.705
				c5.174,0,9.366,4.193,9.366,9.366c0,5.172-4.192,9.366-9.366,9.366H183.648c-5.174,0-9.366-4.193-9.366-9.366
				C174.282,203.192,178.475,198.998,183.648,198.998z M365.577,448.682H146.424c-5.174,0-9.366-4.193-9.366-9.366
				c0-5.172,4.192-9.366,9.366-9.366h219.154c5.172,0,9.366,4.193,9.366,9.366C374.943,444.488,370.751,448.682,365.577,448.682z
				 M365.577,371.697H146.424c-5.174,0-9.366-4.193-9.366-9.366s4.192-9.366,9.366-9.366h219.154c5.172,0,9.366,4.193,9.366,9.366
				S370.751,371.697,365.577,371.697z M365.577,294.715H146.424c-5.174,0-9.366-4.193-9.366-9.366c0-5.172,4.192-9.366,9.366-9.366
				h219.154c5.172,0,9.366,4.193,9.366,9.366C374.943,290.521,370.751,294.715,365.577,294.715z"/>
			<path d="M439.279,34.606h-70.396V18.732C368.883,8.387,360.496,0,350.151,0c-10.345,0-18.732,8.387-18.732,18.732v15.875h-56.69
				V18.732C274.73,8.387,266.343,0,255.998,0s-18.732,8.387-18.732,18.732v15.875h-56.692V18.732C180.574,8.387,172.187,0,161.843,0
				c-10.345,0-18.732,8.387-18.732,18.732v15.875H72.722c-10.345,0-18.732,8.387-18.732,18.732v51.123
				c0,6.897,5.591,12.488,12.488,12.488h379.044c6.897,0,12.488-5.591,12.488-12.488V53.338
				C458.011,42.993,449.624,34.606,439.279,34.606z"/>
		</g>
	</g>
</g>
<g>
</g>
<g>
</g>
<g>
</g>
<g>
</g>
<g>
</g>
<g>
</g>
<g>
</g>
<g>
</g>
<g>
</g>
<g>
</g>
<g>
</g>
<g>
</g>
<g>
</g>
<g>
</g>
<g>
</g>
</svg>
