<?xml version="1.0" encoding="iso-8859-1"?>
<!-- Generator: Adobe Illustrator 19.0.0, SVG Export Plug-In . SVG Version: 6.00 Build 0)  -->
<svg version="1.1" id="Layer_1" xmlns="http://www.w3.org/2000/svg" xmlns:xlink="http://www.w3.org/1999/xlink" x="0px" y="0px"
	 viewBox="0 0 512 512" style="enable-background:new 0 0 512 512;" xml:space="preserve">
<g>
	<g>
		<g>
			<path d="M331.261,434.463c-4.027,0-146.326,0-150.519,0c-10.345,0-18.732,8.387-18.732,18.732v40.073
				c0,10.345,8.387,18.732,18.732,18.732c10.345,0,18.732-8.387,18.732-18.732v-21.342h37.796v21.342
				c0,10.345,8.387,18.732,18.732,18.732s18.732-8.387,18.732-18.732v-21.342h37.797v21.342c0,10.345,8.387,18.732,18.732,18.732
				s18.732-8.387,18.732-18.732v-40.073C349.993,442.85,341.606,434.463,331.261,434.463z"/>
			<path d="M459.777,211.643h-33.3c-10.345,0-18.732,8.387-18.732,18.732v36.9c-18.002,0-114.715,0-133.013,0v-18.168h81.694
				c10.345,0,18.732-8.387,18.732-18.732V50.548C375.158,22.675,352.484,0,324.611,0H187.39c-27.872,0-50.547,22.675-50.547,50.548
				v179.827c0,10.345,8.387,18.732,18.732,18.732h81.694v18.168c-12.736,0-118.387,0-133.013,0v-36.9
				c0-10.345-8.387-18.732-18.732-18.732h-33.3c-10.345,0-18.732,8.387-18.732,18.732c0,10.345,8.387,18.732,18.732,18.732h14.568
				v36.9c0,10.345,8.387,18.732,18.732,18.732h21.796c-0.656,4.275-0.511,5.987-0.511,19.783c0,24.364,19.821,44.184,44.184,44.184
				h86.274v34.538c0,6.897,5.591,12.488,12.488,12.488h12.488c6.897,0,12.488-5.591,12.488-12.488v-34.538h86.275
				c24.364,0,44.184-19.821,44.184-44.184c0-14.069,0.132-15.589-0.511-19.783h21.795c10.345,0,18.732-8.387,18.732-18.732v-36.9
				h14.568c10.345,0,18.732-8.387,18.732-18.732C478.508,220.03,470.122,211.643,459.777,211.643z"/>
		</g>
	</g>
</g>
<g>
</g>
<g>
</g>
<g>
</g>
<g>
</g>
<g>
</g>
<g>
</g>
<g>
</g>
<g>
</g>
<g>
</g>
<g>
</g>
<g>
</g>
<g>
</g>
<g>
</g>
<g>
</g>
<g>
</g>
</svg>
