<?xml version="1.0" encoding="iso-8859-1"?>
<!-- Generator: Adobe Illustrator 19.0.0, SVG Export Plug-In . SVG Version: 6.00 Build 0)  -->
<svg version="1.1" id="Layer_1" xmlns="http://www.w3.org/2000/svg" xmlns:xlink="http://www.w3.org/1999/xlink" x="0px" y="0px"
	 viewBox="0 0 512.001 512.001" style="enable-background:new 0 0 512.001 512.001;" xml:space="preserve">
<g>
	<g>
		<g>
			<path d="M288.245,277.336H167.574c-3.141,0-5.689,2.548-5.689,5.689c0,111.935-0.315,107.554,0.862,114.868
				c0.44,2.739,2.839,4.736,5.613,4.736h119.059c2.768,0,5.161-1.99,5.61-4.722c1.479-9.005,0.905-116.022,0.905-114.882
				C293.934,279.884,291.388,277.336,288.245,277.336z"/>
			<path d="M347.364,71.541H164.577l-0.002,0.011c-7.73,1.627-13.534,8.486-13.534,16.701V244.37c0,7.231,4.495,13.41,10.844,15.897
				v0.002h132.049v-0.002c6.349-2.487,10.845-8.667,10.845-15.897V105.32h22.046v139.05c0,9.426,7.641,17.067,17.067,17.067
				s17.067-7.641,17.067-17.067V88.253C360.96,80.017,355.125,73.144,347.364,71.541z"/>
			<path d="M276.844,419.696h-97.857c-4.216,0-6.96,4.42-5.102,8.206c7.298,14.869,18.683,35.944,38.646,74.455
				c6.794,13.105,24.298,12.465,30.532,0.438c20.109-38.797,31.54-59.883,38.898-74.923
				C283.807,424.099,281.046,419.696,276.844,419.696z"/>
			<path d="M174.382,54.473h107.057c3.537,0.001,6.218-3.195,5.601-6.679l-5.963-33.7C279.636,5.942,272.551,0,264.272,0h-72.724
				c-8.279,0-15.364,5.942-16.805,14.093l-5.963,33.7C168.163,51.277,170.843,54.473,174.382,54.473z"/>
		</g>
	</g>
</g>
<g>
</g>
<g>
</g>
<g>
</g>
<g>
</g>
<g>
</g>
<g>
</g>
<g>
</g>
<g>
</g>
<g>
</g>
<g>
</g>
<g>
</g>
<g>
</g>
<g>
</g>
<g>
</g>
<g>
</g>
</svg>
