<?xml version="1.0" encoding="iso-8859-1"?>
<!-- Generator: Adobe Illustrator 19.0.0, SVG Export Plug-In . SVG Version: 6.00 Build 0)  -->
<svg version="1.1" id="Layer_1" xmlns="http://www.w3.org/2000/svg" xmlns:xlink="http://www.w3.org/1999/xlink" x="0px" y="0px"
	 viewBox="0 0 512 512" style="enable-background:new 0 0 512 512;" xml:space="preserve">
<g>
	<g>
		<g>
			<path d="M310.4,409.018H201.599c-4.266,0-7.013,4.52-5.051,8.307l16.336,31.52c0.977,1.886,2.925,3.071,5.051,3.071h76.126
				c2.125,0,4.072-1.184,5.051-3.071l16.339-31.52C317.413,413.538,314.666,409.018,310.4,409.018z"/>
			<path d="M247.462,386.261V102.473c0-3.141-2.546-5.689-5.689-5.689h-46.109c-3.141,0-5.689,2.548-5.689,5.689v283.788
				c0,3.143,2.547,5.689,5.689,5.689h46.109C244.915,391.95,247.462,389.403,247.462,386.261z"/>
			<path d="M279.317,468.981h-46.639c-4.266,0-7.013,4.52-5.051,8.307l13.216,25.501c6.378,12.309,23.954,12.252,30.305,0.001
				l13.219-25.502C286.33,473.502,283.583,468.981,279.317,468.981z"/>
			<path d="M257.026,0.008c-36.873-0.562-67.049,29.27-67.049,66.015v8.005c0,3.141,2.547,5.689,5.689,5.689h120.67
				c3.14,0,5.688-2.546,5.688-5.689v-7.003C322.024,30.794,293.253,0.56,257.026,0.008z"/>
			<path d="M316.335,96.784h-46.117c-3.141,0-5.689,2.548-5.689,5.689v283.788c0,3.143,2.547,5.69,5.689,5.69h46.117
				c3.141,0,5.689-2.546,5.689-5.689V102.473C322.024,99.332,319.476,96.784,316.335,96.784z"/>
		</g>
	</g>
</g>
<g>
</g>
<g>
</g>
<g>
</g>
<g>
</g>
<g>
</g>
<g>
</g>
<g>
</g>
<g>
</g>
<g>
</g>
<g>
</g>
<g>
</g>
<g>
</g>
<g>
</g>
<g>
</g>
<g>
</g>
</svg>
