<?xml version="1.0" encoding="iso-8859-1"?>
<!-- Generator: Adobe Illustrator 19.0.0, SVG Export Plug-In . SVG Version: 6.00 Build 0)  -->
<svg version="1.1" id="Layer_1" xmlns="http://www.w3.org/2000/svg" xmlns:xlink="http://www.w3.org/1999/xlink" x="0px" y="0px"
	 viewBox="0 0 512 512" style="enable-background:new 0 0 512 512;" xml:space="preserve">
<g>
	<g>
		<g>
			<path d="M104.529,203.275h302.943c3.448,0,6.244-2.796,6.244-6.244V25.179h-0.001c0-10.345-8.387-18.732-18.732-18.732H117.017
				c-10.345,0-18.732,8.387-18.732,18.732v171.852C98.285,200.479,101.081,203.275,104.529,203.275z"/>
			<path d="M407.477,439.818H104.523c-3.449,0-6.244,2.796-6.244,6.244v40.759c0,10.345,8.387,18.732,18.732,18.732h277.979
				c10.345,0,18.732-8.387,18.732-18.732v-40.759C413.721,442.614,410.925,439.818,407.477,439.818z"/>
			<path d="M457.187,104.875h-18.496c-3.448,0-6.244,2.796-6.244,6.244v85.912c0,3.448,2.796,6.244,6.244,6.244h9.596
				c5.129,0,9.601,3.952,9.754,9.079c0.159,5.304-4.094,9.653-9.362,9.653H63.713c-5.129,0-9.601-3.952-9.754-9.079
				c-0.159-5.304,4.094-9.653,9.362-9.653h9.989c3.448,0,6.244-2.796,6.244-6.244v-85.912c0-3.448-2.796-6.244-6.244-6.244H54.813
				C24.541,104.875,0,129.416,0,159.689v206.586c0,30.272,24.54,54.813,54.813,54.813h402.375c30.272,0,54.813-24.541,54.813-54.813
				V159.689C512,129.416,487.459,104.875,457.187,104.875z M362.753,312.476c-9.872,0-17.874-8.002-17.874-17.874
				c0-9.872,8.002-17.874,17.874-17.874c9.872,0,17.874,8.002,17.874,17.874C380.627,304.474,372.625,312.476,362.753,312.476z
				 M412.863,312.476c-9.872,0-17.874-8.002-17.874-17.874c0-9.872,8.002-17.874,17.874-17.874c9.872,0,17.874,8.002,17.874,17.874
				C430.737,304.474,422.735,312.476,412.863,312.476z"/>
		</g>
	</g>
</g>
<g>
</g>
<g>
</g>
<g>
</g>
<g>
</g>
<g>
</g>
<g>
</g>
<g>
</g>
<g>
</g>
<g>
</g>
<g>
</g>
<g>
</g>
<g>
</g>
<g>
</g>
<g>
</g>
<g>
</g>
</svg>
