<?xml version="1.0" encoding="iso-8859-1"?>
<!-- Generator: Adobe Illustrator 19.0.0, SVG Export Plug-In . SVG Version: 6.00 Build 0)  -->
<svg version="1.1" id="Layer_1" xmlns="http://www.w3.org/2000/svg" xmlns:xlink="http://www.w3.org/1999/xlink" x="0px" y="0px"
	 viewBox="0 0 512 512" style="enable-background:new 0 0 512 512;" xml:space="preserve">
<g>
	<g>
		<g>
			<path d="M464.279,354.057H17.86c-9.864,0-17.86,7.997-17.86,17.86v70.624c0,9.864,7.997,17.86,17.86,17.86h446.419
				c9.864,0,17.86-7.997,17.86-17.86v-70.624C482.14,362.052,474.143,354.057,464.279,354.057z"/>
			<path d="M494.14,191.073H367.602c-0.007,0-0.014,0.001-0.021,0.001c-6.6,0.011-12.773,3.701-15.866,9.724
				c-0.014,0.029-0.032,0.056-0.046,0.085l-41.64,82.469l-43.42-118.854h100.994c9.864,0,17.86-7.997,17.86-17.86
				c0-9.864-7.997-17.86-17.86-17.86H241.065c-0.006,0-0.011,0.001-0.015,0.001c-7.575,0.008-14.232,4.821-16.757,11.732
				l-41.22,112.84L137.898,87.319h103.167c9.864,0,17.86-7.997,17.86-17.86c0-9.864-7.997-17.86-17.86-17.86H114.53
				c-8.153,0-15.158,5.545-17.234,13.172L27.531,321.163c-2.06,7.573,3.641,15.033,11.489,15.033h393.508
				c8.872,0,14.628-9.354,10.628-17.273l-46.519-92.128h97.503c9.864,0,17.86-7.997,17.86-17.86
				C512,199.07,504.003,191.073,494.14,191.073z"/>
		</g>
	</g>
</g>
<g>
</g>
<g>
</g>
<g>
</g>
<g>
</g>
<g>
</g>
<g>
</g>
<g>
</g>
<g>
</g>
<g>
</g>
<g>
</g>
<g>
</g>
<g>
</g>
<g>
</g>
<g>
</g>
<g>
</g>
</svg>
