<?xml version="1.0" encoding="iso-8859-1"?>
<!-- Generator: Adobe Illustrator 19.0.0, SVG Export Plug-In . SVG Version: 6.00 Build 0)  -->
<svg version="1.1" id="Layer_1" xmlns="http://www.w3.org/2000/svg" xmlns:xlink="http://www.w3.org/1999/xlink" x="0px" y="0px"
	 viewBox="0 0 512 512" style="enable-background:new 0 0 512 512;" xml:space="preserve">
<g>
	<g>
		<g>
			<path d="M379.669,149.066l5.892-5.892c6.975-6.975,6.975-18.283,0-25.258c-6.974-6.975-18.283-6.975-25.258,0l-11.483,11.482
				c-10.431-5.389-21.4-9.903-32.82-13.439v-6.767c0-3.289-2.665-5.953-5.953-5.953h-108.09c-3.288,0-5.953,2.665-5.953,5.953v6.767
				c-83.24,25.776-142.547,103.424-142.547,193.497C53.456,421.138,144.317,512,256.001,512s202.545-90.862,202.545-202.545
				C458.545,244.643,427.848,186.308,379.669,149.066z M256.001,449.463c-77.201,0-140.008-62.808-140.008-140.008
				c0-77.201,62.808-140.008,140.008-140.008s140.008,62.808,140.008,140.008S333.202,449.463,256.001,449.463z"/>
			<path d="M256.001,240.13c-4.932,0-8.93,3.998-8.93,8.93v60.393c0,4.932,3.998,8.93,8.93,8.93s8.93-3.998,8.93-8.93v-60.393
				C264.931,244.129,260.932,240.13,256.001,240.13z"/>
			<path d="M185.216,85.378h141.569c9.864,0,17.86-7.997,17.86-17.86V17.86c0-9.864-7.997-17.86-17.86-17.86H185.216
				c-9.864,0-17.86,7.997-17.86,17.86v49.657C167.355,77.381,175.352,85.378,185.216,85.378z"/>
		</g>
	</g>
</g>
<g>
</g>
<g>
</g>
<g>
</g>
<g>
</g>
<g>
</g>
<g>
</g>
<g>
</g>
<g>
</g>
<g>
</g>
<g>
</g>
<g>
</g>
<g>
</g>
<g>
</g>
<g>
</g>
<g>
</g>
</svg>
