<?xml version="1.0" encoding="iso-8859-1"?>
<!-- Generator: Adobe Illustrator 19.0.0, SVG Export Plug-In . SVG Version: 6.00 Build 0)  -->
<svg version="1.1" id="Layer_1" xmlns="http://www.w3.org/2000/svg" xmlns:xlink="http://www.w3.org/1999/xlink" x="0px" y="0px"
	 viewBox="0 0 512 512" style="enable-background:new 0 0 512 512;" xml:space="preserve">
<g>
	<g>
		<g>
			<path d="M467.165,408.673h-54.195c11.263-14.966,17.943-33.574,17.943-53.748V85.464c0-9.865-7.998-17.863-17.863-17.863H203.855
				c-3.288,0-5.954,2.665-5.954,5.954v89.736c0,3.288,2.666,5.954,5.954,5.954h33.48c9.865,0,17.863,7.998,17.863,17.863v96.731
				c0,9.865-7.998,17.863-17.863,17.863h-96.732c-9.865,0-17.863-7.998-17.863-17.863v-96.731c0-9.865,7.998-17.863,17.863-17.863
				h33.479c3.288,0,5.954-2.666,5.954-5.954V73.556c0-3.289-2.666-5.954-5.954-5.954H71.978c-9.865,0-17.863,7.998-17.863,17.863
				v269.46c0,20.172,6.681,38.782,17.943,53.748H17.863C7.998,408.673,0,416.671,0,426.536c0,9.865,7.998,17.863,17.863,17.863
				c19.034,0,432.612,0,449.302,0c9.865,0,17.863-7.998,17.863-17.863C485.028,416.671,477.03,408.673,467.165,408.673z"/>
			<path d="M457.46,344.468c72.691-36.629,72.748-140.278,0-176.935c-3.98-2.005-8.684,0.843-8.684,5.301v27.912
				c0,1.855,0.865,3.607,2.345,4.725c33.627,25.397,33.634,75.659,0,101.061c-1.48,1.118-2.345,2.87-2.345,4.725v27.912
				C448.776,343.625,453.479,346.473,457.46,344.468z"/>
		</g>
	</g>
</g>
<g>
</g>
<g>
</g>
<g>
</g>
<g>
</g>
<g>
</g>
<g>
</g>
<g>
</g>
<g>
</g>
<g>
</g>
<g>
</g>
<g>
</g>
<g>
</g>
<g>
</g>
<g>
</g>
<g>
</g>
</svg>
