<?xml version="1.0" encoding="iso-8859-1"?>
<!-- Generator: Adobe Illustrator 19.0.0, SVG Export Plug-In . SVG Version: 6.00 Build 0)  -->
<svg version="1.1" id="Layer_1" xmlns="http://www.w3.org/2000/svg" xmlns:xlink="http://www.w3.org/1999/xlink" x="0px" y="0px"
	 viewBox="0 0 512 512" style="enable-background:new 0 0 512 512;" xml:space="preserve">
<g>
	<g>
		<g>
			<path d="M455.518,326.462c-18.703-18.704-46.649-24.423-71.198-14.572l-37.292,14.965c-10.613,4.257-22.693,1.786-30.779-6.3
				L191.442,195.748c-8.086-8.086-10.558-20.168-6.299-30.78l14.965-37.292c9.849-24.549,4.13-52.494-14.573-71.197l-34.809-34.81
				C117.508-11.55,61.09-0.335,43.137,43.124l-30.906,74.813c-24.838,60.12-11.165,128.686,34.831,174.679L219.38,464.937
				c46.013,46.011,114.576,59.66,174.681,34.831l74.813-30.906c43.42-17.938,54.702-74.344,21.453-107.591L455.518,326.462z"/>
			<path d="M263.455,43.313c124.447-33.221,238.423,80.887,205.23,205.232c-6.407,24.002,29.754,33.708,36.173,9.657
				c40.661-152.305-98.895-291.692-251.06-251.062C229.867,13.529,239.563,49.698,263.455,43.313z"/>
			<path d="M409.316,232.696c21.085-78.974-51.12-151.071-130.013-130.015c-23.931,6.39-14.239,42.549,9.657,36.174
				c51.117-13.646,97.824,33.088,84.182,84.183C366.735,247.038,402.893,256.748,409.316,232.696z"/>
		</g>
	</g>
</g>
<g>
</g>
<g>
</g>
<g>
</g>
<g>
</g>
<g>
</g>
<g>
</g>
<g>
</g>
<g>
</g>
<g>
</g>
<g>
</g>
<g>
</g>
<g>
</g>
<g>
</g>
<g>
</g>
<g>
</g>
</svg>
