<?xml version="1.0" encoding="iso-8859-1"?>
<!-- Generator: Adobe Illustrator 19.0.0, SVG Export Plug-In . SVG Version: 6.00 Build 0)  -->
<svg xmlns="http://www.w3.org/2000/svg" xmlns:xlink="http://www.w3.org/1999/xlink" version="1.1" id="Layer_1" x="0px" y="0px" viewBox="0 0 512 512" style="enable-background:new 0 0 512 512;" xml:space="preserve">
<g>
	<g>
		<g>
			<path d="M418.133,375.467c0,4.719,3.823,8.533,8.533,8.533s8.533-3.814,8.533-8.533c0-15.855-10.923-29.107-25.6-32.913V332.8     c0-4.719-3.823-8.533-8.533-8.533s-8.533,3.814-8.533,8.533v9.754c-14.677,3.806-25.6,17.058-25.6,32.913     c0,15.855,10.923,29.107,25.6,32.913v32.981c-5.077-2.961-8.533-8.414-8.533-14.694c0-4.719-3.823-8.533-8.533-8.533     s-8.533,3.814-8.533,8.533c0,15.855,10.923,29.107,25.6,32.913v9.754c0,4.719,3.823,8.533,8.533,8.533s8.533-3.814,8.533-8.533     v-9.754c14.677-3.806,25.6-17.058,25.6-32.913c0-15.855-10.923-29.107-25.6-32.913v-32.981     C414.677,363.733,418.133,369.186,418.133,375.467z M392.533,390.161c-5.077-2.961-8.533-8.414-8.533-14.694     s3.456-11.733,8.533-14.694V390.161z M418.133,426.667c0,6.281-3.456,11.733-8.533,14.694v-29.389     C414.677,414.933,418.133,420.386,418.133,426.667z"/>
			<path d="M460.8,307.738V136.533H0v315.733c0,14.114,11.486,25.6,25.6,25.6h295.603C341.402,498.859,369.707,512,401.067,512     C462.234,512,512,462.234,512,401.067C512,361.899,491.546,327.484,460.8,307.738z M349.867,179.2     c0-4.719,3.823-8.533,8.533-8.533h51.2c4.71,0,8.533,3.814,8.533,8.533v51.2c0,4.719-3.823,8.533-8.533,8.533h-51.2     c-4.71,0-8.533-3.814-8.533-8.533V179.2z M349.867,273.067c0-4.719,3.823-8.533,8.533-8.533h51.2c4.71,0,8.533,3.814,8.533,8.533     v18.517c-5.581-0.87-11.247-1.451-17.067-1.451c-3.43,0-6.801,0.205-10.155,0.521c3.371-0.324,6.75-0.521,10.155-0.521V281.6     h-34.133v13.969c-5.922,1.911-11.622,4.343-17.067,7.185V273.067z M387.405,291.063c-2.116,0.265-4.207,0.589-6.281,0.964     C383.206,291.644,385.306,291.328,387.405,291.063z M247.467,179.2c0-4.719,3.823-8.533,8.533-8.533h51.2     c4.71,0,8.533,3.814,8.533,8.533v51.2c0,4.719-3.823,8.533-8.533,8.533H256c-4.71,0-8.533-3.814-8.533-8.533V179.2z      M247.467,273.067c0-4.719,3.823-8.533,8.533-8.533h51.2c4.71,0,8.533,3.814,8.533,8.533v51.2c0,4.719-3.823,8.533-8.533,8.533     H256c-4.71,0-8.533-3.814-8.533-8.533V273.067z M110.933,418.133c0,4.719-3.823,8.533-8.533,8.533H51.2     c-4.71,0-8.533-3.814-8.533-8.533v-51.2c0-4.719,3.823-8.533,8.533-8.533h51.2c4.71,0,8.533,3.814,8.533,8.533V418.133z      M110.933,324.267c0,4.719-3.823,8.533-8.533,8.533H51.2c-4.71,0-8.533-3.814-8.533-8.533v-51.2c0-4.719,3.823-8.533,8.533-8.533     h51.2c4.71,0,8.533,3.814,8.533,8.533V324.267z M110.933,230.4c0,4.719-3.823,8.533-8.533,8.533H51.2     c-4.71,0-8.533-3.814-8.533-8.533v-51.2c0-4.719,3.823-8.533,8.533-8.533h51.2c4.71,0,8.533,3.814,8.533,8.533V230.4z      M213.333,418.133c0,4.719-3.823,8.533-8.533,8.533h-51.2c-4.71,0-8.533-3.814-8.533-8.533v-51.2     c0-4.719,3.823-8.533,8.533-8.533h51.2c4.71,0,8.533,3.814,8.533,8.533V418.133z M213.333,324.267     c0,4.719-3.823,8.533-8.533,8.533h-51.2c-4.71,0-8.533-3.814-8.533-8.533v-51.2c0-4.719,3.823-8.533,8.533-8.533h51.2     c4.71,0,8.533,3.814,8.533,8.533V324.267z M213.333,230.4c0,4.719-3.823,8.533-8.533,8.533h-51.2     c-4.71,0-8.533-3.814-8.533-8.533v-51.2c0-4.719,3.823-8.533,8.533-8.533h51.2c4.71,0,8.533,3.814,8.533,8.533V230.4z      M264.533,375.467V409.6h25.964c0.479,5.822,1.416,11.516,2.733,17.067H256c-4.71,0-8.533-3.814-8.533-8.533v-51.2     c0-4.719,3.823-8.533,8.533-8.533h42.692c-2.355,5.623-4.181,11.52-5.581,17.57c0.034-0.171,0.043-0.333,0.085-0.503H264.533z      M290.235,405.376c-0.003-0.056-0.006-0.113-0.008-0.169C290.229,405.264,290.232,405.32,290.235,405.376z M401.067,494.933     c-27.861,0-52.855-12.271-70.059-31.616c-5.751-6.46-10.513-13.602-14.234-21.214c-0.119-0.239-0.23-0.478-0.341-0.717     c-3.652-7.637-6.246-15.718-7.723-24.064c-0.93-5.291-1.51-10.709-1.51-16.256c0-10.906,1.963-21.342,5.402-31.087     c1.058-2.995,2.261-5.922,3.61-8.772c0.017-0.043,0.034-0.077,0.051-0.119c1.323-2.799,2.79-5.521,4.378-8.175l0.137-0.222     c1.562-2.594,3.26-5.103,5.06-7.518c0.085-0.111,0.171-0.23,0.256-0.35c1.783-2.372,3.678-4.659,5.675-6.852     c0.119-0.119,0.23-0.256,0.35-0.375c1.997-2.167,4.096-4.25,6.289-6.221c0.128-0.119,0.256-0.23,0.393-0.35     c2.21-1.971,4.523-3.84,6.929-5.606c0.111-0.085,0.222-0.171,0.341-0.256c2.449-1.783,4.983-3.447,7.603-4.983     c0.077-0.043,0.145-0.085,0.222-0.128c2.697-1.587,5.47-3.029,8.337-4.335h-0.009c11.853-5.419,24.977-8.516,38.844-8.516     c2.662,0,5.291,0.179,7.893,0.401c-0.026,0-0.043,0.009-0.068,0.009c-0.776-0.068-1.579,0-2.355-0.043     c14.379,0.853,28.484,4.881,41.105,12.117c28.211,16.213,47.292,46.583,47.292,81.382     C494.933,452.821,452.821,494.933,401.067,494.933z"/>
			<rect x="264.533" y="187.733" width="34.133" height="34.133"/>
			<rect x="162.133" y="187.733" width="34.133" height="34.133"/>
			<rect x="162.133" y="375.467" width="34.133" height="34.133"/>
			<rect x="264.533" y="281.6" width="34.133" height="34.133"/>
			<rect x="162.133" y="281.6" width="34.133" height="34.133"/>
			<rect x="59.733" y="375.467" width="34.133" height="34.133"/>
			<path d="M460.8,59.733c0-14.114-11.486-25.6-25.6-25.6h-9.395C421.837,14.686,404.608,0,384,0     c-20.608,0-37.837,14.686-41.805,34.133h-18.79C319.437,14.686,302.208,0,281.6,0c-20.608,0-37.837,14.686-41.805,34.133h-18.79     C217.037,14.686,199.808,0,179.2,0s-37.837,14.686-41.805,34.133h-18.79C114.637,14.686,97.408,0,76.8,0     C56.192,0,38.963,14.686,34.995,34.133H25.6c-14.114,0-25.6,11.486-25.6,25.6v59.733h460.8V59.733z M52.77,34.133     c3.541-9.907,12.919-17.067,24.03-17.067s20.489,7.159,24.03,17.067H52.77z M155.17,34.133     c3.541-9.907,12.919-17.067,24.03-17.067s20.489,7.159,24.03,17.067H155.17z M257.57,34.133     c3.541-9.907,12.919-17.067,24.03-17.067c11.11,0,20.489,7.159,24.03,17.067H257.57z M359.97,34.133     c3.541-9.907,12.919-17.067,24.03-17.067c11.11,0,20.489,7.159,24.03,17.067H359.97z"/>
			<rect x="59.733" y="187.733" width="34.133" height="34.133"/>
			<rect x="59.733" y="281.6" width="34.133" height="34.133"/>
			<rect x="366.933" y="187.733" width="34.133" height="34.133"/>
		</g>
	</g>
</g>
<g>
</g>
<g>
</g>
<g>
</g>
<g>
</g>
<g>
</g>
<g>
</g>
<g>
</g>
<g>
</g>
<g>
</g>
<g>
</g>
<g>
</g>
<g>
</g>
<g>
</g>
<g>
</g>
<g>
</g>
</svg>
