<?xml version="1.0" encoding="iso-8859-1"?>
<!-- Generator: Adobe Illustrator 19.0.0, SVG Export Plug-In . SVG Version: 6.00 Build 0)  -->
<svg xmlns="http://www.w3.org/2000/svg" xmlns:xlink="http://www.w3.org/1999/xlink" version="1.1" id="Layer_1" x="0px" y="0px" viewBox="0 0 512.003 512.003" style="enable-background:new 0 0 512.003 512.003;" xml:space="preserve">
<g>
	<g>
		<g>
			<path d="M341.337,211.76c9.916-3.533,17.067-12.919,17.067-24.021c0-11.11-7.151-20.497-17.067-24.03V211.76z"/>
			<path d="M307.203,119.468c0,11.11,7.151,20.489,17.067,24.021V95.447C314.354,98.98,307.203,108.358,307.203,119.468z"/>
			<path d="M337.07,0.002c-96.461,0-174.933,70.75-174.933,157.713c0,8.602,0.853,17.101,2.364,25.481     c-8.414-2.466-17.178-3.908-26.334-3.994c-44.604,0.427-76.058,30.234-87.441,59.58c-5,12.877-7.927,27.904-8.96,45.935     c-2.79,48.93-23.586,88.337-34.756,109.508l-1.877,3.558c-1.801,3.456-2.185,7.595-1.161,12.672     c3.302,16.247,18.671,24.747,32.154,24.747H72.69c-10.377,13.397-24.747,30.49-33.809,36.053     c-1.826,1.109-3.823,2.287-5.905,3.516c-10.368,6.11-23.279,13.713-31.07,23.322c-2.074,2.56-2.492,6.076-1.075,9.054     c1.417,2.961,4.412,4.855,7.706,4.855h256c3.294,0,6.289-1.894,7.706-4.855c1.417-2.978,0.998-6.494-1.075-9.054     c-8.934-11.017-21.982-19.746-33.57-26.837c-9.062-5.572-23.424-22.656-33.792-36.053h36.557     c13.483,0,28.851-8.499,32.154-24.755c1.024-5.069,0.64-9.207-1.161-12.663l-1.784-3.388     c-8.909-16.896-23.339-44.544-30.618-79.224c9.583-3.627,19.183-7.876,28.075-12.902c22.153,8.738,45.687,13.175,70.042,13.175     c96.461,0,174.933-70.758,174.933-157.73C512.003,70.751,433.531,0.002,337.07,0.002z M254.476,402.357l1.519,2.697     c0,0.009,0.077,0.589-0.205,1.997c-1.468,7.202-9.037,11.085-15.428,11.085h-53.538c-3.191,0-6.118,1.775-7.586,4.608     c-1.459,2.833-1.229,6.246,0.614,8.849c3.098,4.395,30.822,43.162,48.828,54.212h0.009c4.548,2.782,9.327,5.828,13.875,9.131     H32.566c3.089-1.937,6.195-3.755,9.071-5.461c2.176-1.28,4.25-2.509,6.161-3.669c18.005-11.051,45.73-49.818,48.836-54.212     c1.843-2.603,2.082-6.016,0.614-8.849c-1.468-2.833-4.395-4.608-7.578-4.608H36.125c-6.391,0-13.961-3.883-15.428-11.076     c-0.213-1.075-0.282-1.621-0.307-1.613l1.715-3.251c11.776-22.323,33.698-63.881,36.702-116.506     c0.93-16.222,3.482-29.542,7.825-40.73c9.31-23.979,35.081-48.341,71.526-48.691c11.085,0.111,21.615,2.381,31.377,6.784     c4.574,13.764,11.213,26.965,19.874,39.245c-0.99,10.564-2.483,20.224-4.335,29.065c-4.54,21.564-11.494,37.786-20.437,46.72     c-2.594,2.594-3.243,6.562-1.604,9.847c0.384,0.777,0.896,1.459,1.468,2.065c0.222,0.222,0.486,0.393,0.725,0.589     c0.393,0.333,0.785,0.657,1.229,0.922c0.316,0.179,0.657,0.299,1.007,0.435c0.418,0.179,0.836,0.333,1.289,0.444     c0.367,0.085,0.742,0.119,1.118,0.162c0.273,0.026,0.529,0.102,0.802,0.102c0.393,0,0.785-0.026,1.186-0.077h0.009     c0.085-0.017,0.41-0.06,0.811-0.12c0.137-0.026,0.247-0.043,0.41-0.068c0.179-0.026,0.393-0.06,0.614-0.094     c5.973-0.922,25.958-4.335,48.888-11.477C230.463,356.814,245.311,384.966,254.476,402.357z M375.47,187.735     c0,20.599-14.686,37.845-34.133,41.796v9.404c0,4.719-3.823,8.533-8.533,8.533c-4.71,0-8.533-3.814-8.533-8.533v-9.404     c-19.447-3.951-34.133-21.197-34.133-41.796c0-4.719,3.823-8.533,8.533-8.533s8.533,3.814,8.533,8.533     c0,11.11,7.151,20.489,17.067,24.021v-50.492c-19.447-3.951-34.133-21.197-34.133-41.796s14.686-37.845,34.133-41.796v-9.404     c0-4.719,3.823-8.533,8.533-8.533c4.71,0,8.533,3.814,8.533,8.533v9.404c19.447,3.951,34.133,21.197,34.133,41.796     c0,4.719-3.823,8.533-8.533,8.533s-8.533-3.814-8.533-8.533c0-11.11-7.151-20.489-17.067-24.021v50.492     C360.784,149.89,375.47,167.135,375.47,187.735z"/>
		</g>
	</g>
</g>
<g>
</g>
<g>
</g>
<g>
</g>
<g>
</g>
<g>
</g>
<g>
</g>
<g>
</g>
<g>
</g>
<g>
</g>
<g>
</g>
<g>
</g>
<g>
</g>
<g>
</g>
<g>
</g>
<g>
</g>
</svg>
