<?xml version="1.0" encoding="iso-8859-1"?>
<!-- Generator: Adobe Illustrator 19.0.0, SVG Export Plug-In . SVG Version: 6.00 Build 0)  -->
<svg xmlns="http://www.w3.org/2000/svg" xmlns:xlink="http://www.w3.org/1999/xlink" version="1.1" id="Layer_1" x="0px" y="0px" viewBox="0 0 512 512" style="enable-background:new 0 0 512 512;" xml:space="preserve">
<g>
	<g>
		<g>
			<path d="M166.399,161.946v76.501c0,45.107,19.959,87.91,53.393,114.483c12.689,10.095,26.3,17.527,40.474,22.127     c14.174-4.599,27.785-12.032,40.474-22.127c33.434-26.573,53.393-69.376,53.393-114.483v-76.501     c-51.251-2.381-81.297-25.694-93.867-38.212C247.696,136.252,217.65,159.565,166.399,161.946z M268.799,179.2v9.745     c14.686,3.814,25.6,17.067,25.6,32.922c0,4.719-3.814,8.533-8.533,8.533c-4.719,0-8.533-3.814-8.533-8.533     c0-6.281-3.456-11.733-8.533-14.694v32.973c14.686,3.814,25.6,17.067,25.6,32.922c0,15.855-10.914,29.107-25.6,32.922v9.745     c0,4.719-3.814,8.533-8.533,8.533c-4.719,0-8.533-3.814-8.533-8.533v-9.745c-14.686-3.814-25.6-17.067-25.6-32.922     c0-4.719,3.814-8.533,8.533-8.533s8.533,3.814,8.533,8.533c0,6.281,3.456,11.733,8.533,14.694v-32.973     c-14.686-3.814-25.6-17.067-25.6-32.922c0-15.855,10.914-29.107,25.6-32.922V179.2c0-4.719,3.814-8.533,8.533-8.533     C264.984,170.667,268.799,174.481,268.799,179.2z"/>
			<path d="M277.332,273.067c0-6.281-3.456-11.733-8.533-14.694v29.389C273.876,284.8,277.332,279.347,277.332,273.067z"/>
			<path d="M115.201,68.265V76.8c-0.001,0-0.002,0-0.003,0c-4.719,0-8.533,3.814-8.533,8.533v8.533c0,4.719,3.814,8.533,8.533,8.533     c0.001,0,0.002,0,0.003,0v8.534c-0.001,0-0.002,0-0.003,0c-4.719,0-8.533,3.814-8.533,8.533V128c0,4.719,3.814,8.533,8.533,8.533     c0.001,0,0.002,0,0.003,0v8.534c-0.001,0-0.002,0-0.003,0c-4.719,0-8.533,3.814-8.533,8.533v8.533     c0,4.719,3.814,8.533,8.533,8.533c0.001,0,0.002,0,0.003,0v255.998h290.133v-358.4H115.201z M371.201,238.454     c0,50.253-22.366,98.057-59.844,127.846c-15.121,12.015-31.488,20.727-48.631,25.873c-0.811,0.247-1.638,0.358-2.458,0.358     c-0.828,0-1.655-0.111-2.458-0.358c-17.143-5.146-33.51-13.858-48.64-25.873c-37.47-29.79-59.836-77.594-59.836-127.846v-84.855     c0-4.719,3.814-8.533,8.533-8.533c66.253,0,95.215-38.758,95.497-39.151c3.217-4.403,10.564-4.412,13.781-0.026     c1.271,1.707,29.85,39.177,95.522,39.177c4.71,0,8.533,3.814,8.533,8.533V238.454z"/>
			<path d="M243.199,221.867c0,6.281,3.456,11.733,8.533,14.694v-29.389C246.655,210.133,243.199,215.586,243.199,221.867z"/>
			<path d="M277.332,469.333c0-9.412-7.654-17.067-17.067-17.067c-9.412,0-17.067,7.654-17.067,17.067     c0,9.412,7.654,17.067,17.067,17.067C269.678,486.4,277.332,478.746,277.332,469.333z"/>
			<path d="M294.4,469.333c0,18.825-15.309,34.133-34.133,34.133s-34.133-15.309-34.133-34.133c0-10.24,4.625-19.345,11.793-25.6     H115.2v34.458c0,18.645,15.164,33.809,33.809,33.809h222.515c18.637,0,33.809-15.164,33.809-33.809v-34.458H282.607     C289.775,449.988,294.4,459.093,294.4,469.333z"/>
			<path d="M405.332,33.809C405.332,15.164,390.168,0,371.523,0H149.008c-18.645,0-33.809,15.164-33.809,33.809V51.2h290.133V33.809     z M226.132,42.667h-8.533c-4.719,0-8.533-3.814-8.533-8.533s3.814-8.533,8.533-8.533h8.533c4.719,0,8.533,3.814,8.533,8.533     S230.851,42.667,226.132,42.667z M294.399,42.667h-42.667c-4.719,0-8.533-3.814-8.533-8.533s3.814-8.533,8.533-8.533h42.667     c4.719,0,8.533,3.814,8.533,8.533S299.118,42.667,294.399,42.667z"/>
		</g>
	</g>
</g>
<g>
</g>
<g>
</g>
<g>
</g>
<g>
</g>
<g>
</g>
<g>
</g>
<g>
</g>
<g>
</g>
<g>
</g>
<g>
</g>
<g>
</g>
<g>
</g>
<g>
</g>
<g>
</g>
<g>
</g>
</svg>
