<?xml version="1.0" encoding="iso-8859-1"?>
<!-- Generator: Adobe Illustrator 19.0.0, SVG Export Plug-In . SVG Version: 6.00 Build 0)  -->
<svg xmlns="http://www.w3.org/2000/svg" xmlns:xlink="http://www.w3.org/1999/xlink" version="1.1" id="Layer_1" x="0px" y="0px" viewBox="0 0 512 512" style="enable-background:new 0 0 512 512;" xml:space="preserve">
<g>
	<g>
		<g>
			<path d="M498.534,392.533h-3.601V102.4c0-18.825-15.309-34.133-34.133-34.133H51.2c-18.825,0-34.133,15.309-34.133,34.133     v290.133h-3.601C6.042,392.533,0,398.575,0,405.999v24.269c0,7.424,6.042,13.466,13.466,13.466h485.069     c7.424,0,13.466-6.042,13.466-13.466v-24.269C512,398.575,505.958,392.533,498.534,392.533z M51.2,110.933     c0-4.719,3.823-8.533,8.533-8.533h392.533c4.71,0,8.533,3.814,8.533,8.533v256c0,4.719-3.823,8.533-8.533,8.533H59.733     c-4.71,0-8.533-3.814-8.533-8.533V110.933z M494.933,426.667H17.067V409.6h192.068c3.968,5.265,10.223,8.533,16.998,8.533H294.4     c6.775,0,13.03-3.268,16.998-8.533h183.535V426.667z"/>
			<path d="M264.533,297.091c9.916-3.533,17.067-12.919,17.067-24.021c0-11.11-7.151-20.497-17.067-24.03V297.091z"/>
			<path d="M443.733,119.467H68.267V358.4h375.467V119.467z M298.667,273.067c0,20.599-14.686,37.845-34.133,41.796v9.404     c0,4.719-3.823,8.533-8.533,8.533s-8.533-3.814-8.533-8.533v-9.404c-19.447-3.951-34.133-21.197-34.133-41.796     c0-4.719,3.823-8.533,8.533-8.533c4.71,0,8.533,3.814,8.533,8.533c0,11.11,7.151,20.489,17.067,24.021v-50.492     c-19.447-3.951-34.133-21.197-34.133-41.796c0-20.599,14.686-37.845,34.133-41.796V153.6c0-4.719,3.823-8.533,8.533-8.533     s8.533,3.814,8.533,8.533v9.404c19.448,3.951,34.133,21.197,34.133,41.796c0,4.719-3.823,8.533-8.533,8.533     s-8.533-3.814-8.533-8.533c0-11.11-7.151-20.489-17.067-24.021v50.492C283.981,235.221,298.667,252.467,298.667,273.067z"/>
			<path d="M230.4,204.8c0,11.11,7.151,20.489,17.067,24.021v-48.043C237.551,184.311,230.4,193.69,230.4,204.8z"/>
		</g>
	</g>
</g>
<g>
</g>
<g>
</g>
<g>
</g>
<g>
</g>
<g>
</g>
<g>
</g>
<g>
</g>
<g>
</g>
<g>
</g>
<g>
</g>
<g>
</g>
<g>
</g>
<g>
</g>
<g>
</g>
<g>
</g>
</svg>
