<?xml version="1.0" encoding="iso-8859-1"?>
<!-- Generator: Adobe Illustrator 19.0.0, SVG Export Plug-In . SVG Version: 6.00 Build 0)  -->
<svg xmlns="http://www.w3.org/2000/svg" xmlns:xlink="http://www.w3.org/1999/xlink" version="1.1" id="Layer_1" x="0px" y="0px" viewBox="0 0 512 512" style="enable-background:new 0 0 512 512;" xml:space="preserve">
<g>
	<g>
		<path d="M486.4,392.533h-25.6v-42.667c0-5.12-3.413-8.533-8.533-8.533H315.733V68.267H25.6V76.8c-5.12,0-8.533,3.413-8.533,8.533    v8.533c0,5.12,3.413,8.533,8.533,8.533v8.533c-5.12,0-8.533,3.413-8.533,8.533V128c0,5.12,3.413,8.533,8.533,8.533v8.533    c-5.12,0-8.533,3.413-8.533,8.533v8.533c0,5.12,3.413,8.533,8.533,8.533v256h247.467v17.067H256h-63.147    c6.827,5.973,11.947,15.36,11.947,25.6c0,18.773-15.36,34.133-34.133,34.133c-18.773,0-34.133-15.36-34.133-34.133    c0-10.24,4.267-19.627,11.947-25.6H25.6v34.133C25.6,496.64,40.96,512,59.733,512H256h204.8c5.12,0,8.533-3.413,8.533-8.533V460.8    H486.4c5.12,0,8.533-3.413,8.533-8.533v-51.2C494.933,395.947,491.52,392.533,486.4,392.533z M409.6,358.4h34.133v34.133H409.6    V358.4z M426.667,409.6v34.133h-34.133V409.6H426.667z M358.4,358.4h34.133v34.133H358.4V358.4z M375.467,409.6v34.133h-34.133    V409.6H375.467z M307.2,358.4h34.133v34.133H307.2V358.4z M324.267,409.6v34.133h-34.133V435.2v-25.6H324.267z M213.333,281.6    c0,20.48-14.507,37.547-34.133,41.813v9.387c0,5.12-3.413,8.533-8.533,8.533c-5.12,0-8.533-3.413-8.533-8.533v-9.387    C142.507,319.147,128,302.08,128,281.6c0-5.12,3.413-8.533,8.533-8.533s8.533,3.413,8.533,8.533    c0,11.093,6.827,20.48,17.067,23.893v-50.347C142.507,250.88,128,233.813,128,213.333c0-20.48,14.507-37.547,34.133-41.813v-9.387    c0-5.12,3.413-8.533,8.533-8.533c5.12,0,8.533,3.413,8.533,8.533v9.387c19.627,4.267,34.133,21.333,34.133,41.813    c0,5.12-3.413,8.533-8.533,8.533s-8.533-3.413-8.533-8.533c0-11.093-6.827-20.48-17.067-23.893v50.347    C198.827,244.053,213.333,261.12,213.333,281.6z M256,392.533V358.4h34.133v34.133H281.6H256z M298.667,494.933h-34.133V460.8    H281.6h17.067V494.933z M349.867,494.933h-34.133V460.8h34.133V494.933z M401.067,494.933h-34.133V460.8h34.133V494.933z     M452.267,494.933h-34.133V460.8h34.133V494.933z M477.867,443.733H460.8h-17.067V409.6h8.533h25.6V443.733z"/>
	</g>
</g>
<g>
	<g>
		<path d="M179.2,257.707v47.787c10.24-3.413,17.067-12.8,17.067-23.893S189.44,261.12,179.2,257.707z"/>
	</g>
</g>
<g>
	<g>
		<path d="M145.067,213.333c0,11.093,6.827,20.48,17.067,23.893V189.44C151.893,192.853,145.067,202.24,145.067,213.333z"/>
	</g>
</g>
<g>
	<g>
		<path d="M281.6,0H59.733C40.96,0,25.6,15.36,25.6,34.133V51.2h290.133V34.133C315.733,15.36,300.373,0,281.6,0z M136.533,42.667    H128c-5.12,0-8.533-3.413-8.533-8.533c0-5.12,3.413-8.533,8.533-8.533h8.533c5.12,0,8.533,3.413,8.533,8.533    C145.067,39.253,141.653,42.667,136.533,42.667z M204.8,42.667h-42.667c-5.12,0-8.533-3.413-8.533-8.533    c0-5.12,3.413-8.533,8.533-8.533H204.8c5.12,0,8.533,3.413,8.533,8.533C213.333,39.253,209.92,42.667,204.8,42.667z"/>
	</g>
</g>
<g>
	<g>
		<path d="M170.667,452.267c-9.387,0-17.067,7.68-17.067,17.067s7.68,17.067,17.067,17.067c9.387,0,17.067-7.68,17.067-17.067    S180.053,452.267,170.667,452.267z"/>
	</g>
</g>
<g>
</g>
<g>
</g>
<g>
</g>
<g>
</g>
<g>
</g>
<g>
</g>
<g>
</g>
<g>
</g>
<g>
</g>
<g>
</g>
<g>
</g>
<g>
</g>
<g>
</g>
<g>
</g>
<g>
</g>
</svg>
