<?xml version="1.0" encoding="iso-8859-1"?>
<!-- Generator: Adobe Illustrator 19.0.0, SVG Export Plug-In . SVG Version: 6.00 Build 0)  -->
<svg xmlns="http://www.w3.org/2000/svg" xmlns:xlink="http://www.w3.org/1999/xlink" version="1.1" id="Layer_1" x="0px" y="0px" viewBox="0 0 512 512" style="enable-background:new 0 0 512 512;" xml:space="preserve">
<g>
	<g>
		<g>
			<rect x="102.4" y="230.4" width="17.067" height="51.2"/>
			<polygon points="315.733,179.2 230.4,179.2 230.4,230.4 315.75,230.4    "/>
			<path d="M401.067,273.067c9.412,0,17.067-7.654,17.067-17.067s-7.654-17.067-17.067-17.067c-9.412,0-17.067,7.654-17.067,17.067     S391.654,273.067,401.067,273.067z"/>
			<path d="M486.4,68.267H25.6c-14.114,0-25.6,11.486-25.6,25.6v324.267c0,14.114,11.486,25.6,25.6,25.6h460.8     c14.114,0,25.6-11.486,25.6-25.6V93.867C512,79.753,500.514,68.267,486.4,68.267z M477.867,401.067     c0,4.719-3.814,8.533-8.533,8.533H42.667c-4.719,0-8.533-3.814-8.533-8.533V110.933c0-4.719,3.814-8.533,8.533-8.533h426.667     c4.719,0,8.533,3.814,8.533,8.533V401.067z"/>
			<path d="M51.2,392.533h409.6V119.467H51.2V392.533z M230.4,349.867c-4.719,0-8.533-3.814-8.533-8.533     c0-4.719,3.814-8.533,8.533-8.533s8.533,3.814,8.533,8.533C238.933,346.052,235.119,349.867,230.4,349.867z M230.4,315.733     c-4.719,0-8.533-3.814-8.533-8.533s3.814-8.533,8.533-8.533s8.533,3.814,8.533,8.533S235.119,315.733,230.4,315.733z      M230.4,281.6c-4.719,0-8.533-3.814-8.533-8.533s3.814-8.533,8.533-8.533s8.533,3.814,8.533,8.533S235.119,281.6,230.4,281.6z      M273.067,349.867c-4.719,0-8.533-3.814-8.533-8.533c0-4.719,3.814-8.533,8.533-8.533s8.533,3.814,8.533,8.533     C281.6,346.052,277.786,349.867,273.067,349.867z M273.067,315.733c-4.719,0-8.533-3.814-8.533-8.533s3.814-8.533,8.533-8.533     s8.533,3.814,8.533,8.533S277.786,315.733,273.067,315.733z M273.067,281.6c-4.719,0-8.533-3.814-8.533-8.533     s3.814-8.533,8.533-8.533s8.533,3.814,8.533,8.533S277.786,281.6,273.067,281.6z M315.733,349.867     c-4.719,0-8.533-3.814-8.533-8.533c0-4.719,3.814-8.533,8.533-8.533s8.533,3.814,8.533,8.533     C324.267,346.052,320.452,349.867,315.733,349.867z M315.733,315.733c-4.719,0-8.533-3.814-8.533-8.533s3.814-8.533,8.533-8.533     s8.533,3.814,8.533,8.533S320.452,315.733,315.733,315.733z M315.733,281.6c-4.719,0-8.533-3.814-8.533-8.533     s3.814-8.533,8.533-8.533s8.533,3.814,8.533,8.533S320.452,281.6,315.733,281.6z M401.067,221.867     c18.825,0,34.133,15.309,34.133,34.133s-15.309,34.133-34.133,34.133c-18.825,0-34.133-15.309-34.133-34.133     S382.242,221.867,401.067,221.867z M213.333,179.2c0-9.412,7.654-17.067,17.067-17.067h85.333     c9.412,0,17.067,7.654,17.067,17.067v51.2c0,9.412-7.654,17.067-17.067,17.067H230.4c-9.412,0-17.067-7.654-17.067-17.067V179.2z      M85.333,196.267c0-4.719,3.814-8.533,8.533-8.533c4.719,0,8.533,3.814,8.533,8.533v17.067h17.067v-17.067     c0-4.719,3.814-8.533,8.533-8.533s8.533,3.814,8.533,8.533v119.467c0,4.719-3.814,8.533-8.533,8.533s-8.533-3.814-8.533-8.533     v-17.067H102.4v17.067c0,4.719-3.814,8.533-8.533,8.533c-4.719,0-8.533-3.814-8.533-8.533V196.267z"/>
		</g>
	</g>
</g>
<g>
</g>
<g>
</g>
<g>
</g>
<g>
</g>
<g>
</g>
<g>
</g>
<g>
</g>
<g>
</g>
<g>
</g>
<g>
</g>
<g>
</g>
<g>
</g>
<g>
</g>
<g>
</g>
<g>
</g>
</svg>
