<?xml version="1.0" encoding="iso-8859-1"?>
<!-- Generator: Adobe Illustrator 19.0.0, SVG Export Plug-In . SVG Version: 6.00 Build 0)  -->
<svg xmlns="http://www.w3.org/2000/svg" xmlns:xlink="http://www.w3.org/1999/xlink" version="1.1" id="Layer_1" x="0px" y="0px" viewBox="0 0 512 512" style="enable-background:new 0 0 512 512;" xml:space="preserve">
<g>
	<g>
		<g>
			<polygon points="250.849,359.44 240.806,392.055 273.42,402.098 283.464,369.475    "/>
			<polygon points="289.737,407.114 322.36,417.158 332.396,384.535 299.781,374.5    "/>
			<polygon points="240.98,338.977 222.582,310.229 193.833,328.609 212.222,357.367    "/>
			<polygon points="338.67,422.173 371.293,432.217 381.328,399.594 348.714,389.559    "/>
			<rect x="230.397" y="435.2" width="34.133" height="34.133"/>
			<polygon points="197.837,366.566 179.447,337.808 150.699,356.198 169.096,384.955    "/>
			<rect x="179.197" y="435.2" width="34.133" height="34.133"/>
			<path d="M358.656,90.769c1.783-19.473,12.544-47.198,29.013-63.027c4.71-4.523,6.178-11.383,3.721-17.485     C388.89,4.028,382.95,0,376.26,0H135.731c-6.673,0-12.621,4.028-15.113,10.249c-2.466,6.101-1.007,12.962,3.695,17.485     c0.009,0,0.009,0,0.009,0.009c16.478,15.821,27.23,43.554,29.013,63.027C65.169,131.012,8.533,218.667,8.533,315.733     c0,76.262,34.432,147.123,94.473,194.432c1.51,1.195,3.371,1.835,5.282,1.835h295.416c1.92,0,3.78-0.64,5.282-1.835     c60.049-47.309,94.481-118.17,94.481-194.432C503.467,218.667,446.822,131.012,358.656,90.769z M434.039,460.45     c-0.666,2.167-2.167,3.977-4.164,5.035c-1.246,0.657-2.62,0.99-3.994,0.99c-0.845,0-1.69-0.128-2.509-0.375l-90.573-27.87v39.637     c0,4.719-3.823,8.533-8.533,8.533h-204.8c-4.719,0-8.533-3.814-8.533-8.533v-35.439l-26.095,16.691     c-1.425,0.905-3.012,1.34-4.591,1.34c-2.816,0-5.564-1.391-7.202-3.934l-27.588-43.136c-1.22-1.903-1.63-4.224-1.143-6.434     c0.486-2.202,1.826-4.13,3.738-5.35l129.399-82.773l43.119-27.58c3.977-2.526,9.25-1.365,11.793,2.594l27.597,43.119     c1.212,1.911,1.621,4.215,1.135,6.434c-0.085,0.427-0.358,0.776-0.512,1.178l133.922,41.207l48.947,15.061     c2.159,0.666,3.968,2.167,5.026,4.164c1.058,1.997,1.289,4.343,0.623,6.502L434.039,460.45z"/>
			<rect x="127.997" y="435.2" width="34.133" height="34.133"/>
			<rect x="281.597" y="435.2" width="34.133" height="34.133"/>
			<polygon points="387.614,437.234 420.228,447.277 430.272,414.654 397.649,404.611    "/>
			<path d="M222.595,401.698c-1.058-1.997-1.28-4.344-0.614-6.502l9.122-29.636l-16.87,10.795l-43.102,27.571     c-0.017,0-0.017,0.009-0.026,0.017s-0.026,0.009-0.034,0.017l-22.161,14.174h118.588l-39.868-12.262     C225.463,405.197,223.654,403.703,222.595,401.698z"/>
			
				<rect x="114.076" y="371.907" transform="matrix(0.8424 -0.5388 0.5388 0.8424 -188.932 131.9656)" width="34.127" height="34.139"/>
			
				<rect x="70.936" y="399.501" transform="matrix(-0.5389 -0.8424 0.8424 -0.5389 -215.4662 715.189)" width="34.139" height="34.127"/>
		</g>
	</g>
</g>
<g>
</g>
<g>
</g>
<g>
</g>
<g>
</g>
<g>
</g>
<g>
</g>
<g>
</g>
<g>
</g>
<g>
</g>
<g>
</g>
<g>
</g>
<g>
</g>
<g>
</g>
<g>
</g>
<g>
</g>
</svg>
