<?xml version="1.0" encoding="iso-8859-1"?>
<!-- Generator: Adobe Illustrator 19.0.0, SVG Export Plug-In . SVG Version: 6.00 Build 0)  -->
<svg xmlns="http://www.w3.org/2000/svg" xmlns:xlink="http://www.w3.org/1999/xlink" version="1.1" id="Layer_1" x="0px" y="0px" viewBox="0 0 512 512" style="enable-background:new 0 0 512 512;" xml:space="preserve">
<g>
	<g>
		<g>
			<path d="M230.4,256c0,11.11,7.159,20.489,17.067,24.021v-48.043C237.559,235.511,230.4,244.89,230.4,256z"/>
			<path d="M264.533,348.288c9.907-3.533,17.067-12.911,17.067-24.021c0-11.11-7.159-20.489-17.067-24.021V348.288z"/>
			<path d="M358.656,90.769c1.783-19.43,12.51-47.112,28.945-62.95c4.719-4.548,6.17-11.435,3.695-17.553     C388.787,4.028,382.822,0,376.132,0H135.868c-6.69,0-12.655,4.028-15.164,10.266c-2.475,6.118-1.024,13.005,3.695,17.553     c16.435,15.838,27.162,43.52,28.945,62.95C65.178,131.012,8.533,218.667,8.533,315.733c0,76.262,34.432,147.123,94.473,194.432     c1.51,1.195,3.371,1.835,5.282,1.835h295.424c1.911,0,3.772-0.64,5.282-1.835c60.041-47.309,94.473-118.17,94.473-194.432     C503.467,218.667,446.822,131.012,358.656,90.769z M298.667,324.267c0,20.599-14.686,37.845-34.133,41.796v9.404     c0,4.719-3.814,8.533-8.533,8.533c-4.719,0-8.533-3.814-8.533-8.533v-9.404c-19.447-3.951-34.133-21.197-34.133-41.796     c0-4.719,3.814-8.533,8.533-8.533c4.719,0,8.533,3.814,8.533,8.533c0,11.11,7.159,20.489,17.067,24.021v-50.492     c-19.447-3.951-34.133-21.197-34.133-41.796c0-20.599,14.686-37.845,34.133-41.796V204.8c0-4.719,3.814-8.533,8.533-8.533     c4.719,0,8.533,3.814,8.533,8.533v9.404c19.447,3.951,34.133,21.197,34.133,41.796c0,4.719-3.814,8.533-8.533,8.533     c-4.719,0-8.533-3.814-8.533-8.533c0-11.11-7.159-20.489-17.067-24.021v50.492C283.981,286.421,298.667,303.667,298.667,324.267z     "/>
		</g>
	</g>
</g>
<g>
</g>
<g>
</g>
<g>
</g>
<g>
</g>
<g>
</g>
<g>
</g>
<g>
</g>
<g>
</g>
<g>
</g>
<g>
</g>
<g>
</g>
<g>
</g>
<g>
</g>
<g>
</g>
<g>
</g>
</svg>
