<?xml version="1.0" encoding="iso-8859-1"?>
<!-- Generator: Adobe Illustrator 19.0.0, SVG Export Plug-In . SVG Version: 6.00 Build 0)  -->
<svg xmlns="http://www.w3.org/2000/svg" xmlns:xlink="http://www.w3.org/1999/xlink" version="1.1" id="Layer_1" x="0px" y="0px" viewBox="0 0 512 512" style="enable-background:new 0 0 512 512;" xml:space="preserve">
<g>
	<g>
		<path d="M264.533,300.373v47.787c10.24-3.413,17.067-12.8,17.067-23.893S274.773,303.787,264.533,300.373z"/>
	</g>
</g>
<g>
	<g>
		<path d="M230.4,256c0,11.093,6.827,20.48,17.067,23.893v-47.787C237.227,235.52,230.4,244.907,230.4,256z"/>
	</g>
</g>
<g>
	<g>
		<path d="M469.333,136.533H358.4V93.867c0-23.893-18.773-42.667-42.667-42.667H196.267c-23.893,0-42.667,18.773-42.667,42.667    v42.667H42.667C18.773,136.533,0,155.307,0,179.2v221.867c0,20.48,14.507,37.547,34.133,41.813v9.387    c0,5.12,3.413,8.533,8.533,8.533s8.533-3.413,8.533-8.533v-8.533h409.6v8.533c0,5.12,3.413,8.533,8.533,8.533    s8.533-3.413,8.533-8.533v-9.387C497.493,438.613,512,421.547,512,401.067V179.2C512,155.307,493.227,136.533,469.333,136.533z     M298.667,324.267c0,20.48-14.507,37.547-34.133,41.813v9.387c0,5.12-3.413,8.533-8.533,8.533s-8.533-3.413-8.533-8.533v-9.387    c-19.627-4.267-34.133-21.333-34.133-41.813c0-5.12,3.413-8.533,8.533-8.533s8.533,3.413,8.533,8.533    c0,11.093,6.827,20.48,17.067,23.893v-50.347c-19.627-4.267-34.133-21.333-34.133-41.813s14.507-37.547,34.133-41.813V204.8    c0-5.12,3.413-8.533,8.533-8.533s8.533,3.413,8.533,8.533v9.387c19.627,4.267,34.133,21.333,34.133,41.813    c0,5.12-3.413,8.533-8.533,8.533S281.6,261.12,281.6,256c0-11.093-6.827-20.48-17.067-23.893v50.347    C284.16,286.72,298.667,303.787,298.667,324.267z M307.2,136.533H204.8V102.4h102.4V136.533z M341.333,136.533h-17.067V93.867    c0-5.12-3.413-8.533-8.533-8.533H196.267c-5.12,0-8.533,3.413-8.533,8.533v42.667h-17.067V93.867c0-14.507,11.093-25.6,25.6-25.6    h119.467c14.507,0,25.6,11.093,25.6,25.6V136.533z"/>
	</g>
</g>
<g>
</g>
<g>
</g>
<g>
</g>
<g>
</g>
<g>
</g>
<g>
</g>
<g>
</g>
<g>
</g>
<g>
</g>
<g>
</g>
<g>
</g>
<g>
</g>
<g>
</g>
<g>
</g>
<g>
</g>
</svg>
