<?xml version="1.0" encoding="iso-8859-1"?>
<!-- Generator: Adobe Illustrator 19.0.0, SVG Export Plug-In . SVG Version: 6.00 Build 0)  -->
<svg xmlns="http://www.w3.org/2000/svg" xmlns:xlink="http://www.w3.org/1999/xlink" version="1.1" id="Layer_1" x="0px" y="0px" viewBox="0 0 512 512" style="enable-background:new 0 0 512 512;" xml:space="preserve">
<g>
	<g>
		<path d="M298.306,384c-18.773,0-34.133,15.36-34.133,34.133c0,18.773,15.36,34.133,34.133,34.133    c18.773,0,34.133-15.36,34.133-34.133C332.439,399.36,317.079,384,298.306,384z"/>
	</g>
</g>
<g>
	<g>
		<path d="M323.906,162.133h-51.2c-5.12,0-8.533,3.413-8.533,8.533s3.413,8.533,8.533,8.533h51.2c5.12,0,8.533-3.413,8.533-8.533    S329.026,162.133,323.906,162.133z"/>
	</g>
</g>
<g>
	<g>
		<path d="M323.906,128h-51.2c-5.12,0-8.533,3.413-8.533,8.533s3.413,8.533,8.533,8.533h51.2c5.12,0,8.533-3.413,8.533-8.533    S329.026,128,323.906,128z"/>
	</g>
</g>
<g>
	<g>
		<path d="M323.906,93.867h-51.2c-5.12,0-8.533,3.413-8.533,8.533s3.413,8.533,8.533,8.533h51.2c5.12,0,8.533-3.413,8.533-8.533    S329.026,93.867,323.906,93.867z"/>
	</g>
</g>
<g>
	<g>
		<path d="M323.906,59.733h-51.2c-5.12,0-8.533,3.413-8.533,8.533s3.413,8.533,8.533,8.533h51.2c5.12,0,8.533-3.413,8.533-8.533    S329.026,59.733,323.906,59.733z"/>
	</g>
</g>
<g>
	<g>
		<path d="M417.772,401.067c-9.387,0-17.067,7.68-17.067,17.067s7.68,17.067,17.067,17.067s17.067-7.68,17.067-17.067    S427.159,401.067,417.772,401.067z"/>
	</g>
</g>
<g>
	<g>
		<path d="M298.306,213.333c-5.12,0-8.533,3.413-8.533,8.533v119.467c0,5.12,3.413,8.533,8.533,8.533s8.533-3.413,8.533-8.533    V221.867C306.839,216.747,303.426,213.333,298.306,213.333z"/>
	</g>
</g>
<g>
	<g>
		<path d="M111.426,391.68c-0.853,0-1.707,0-3.413,0c-3.413,0-6.827,0.853-9.387,3.413c-3.413,2.56-5.973,6.827-6.827,11.093    c-1.707,9.387,4.267,17.92,13.653,19.627c4.267,0.853,9.387,0,12.8-2.56s5.973-6.827,6.827-11.093    C126.786,402.773,120.812,393.387,111.426,391.68z"/>
	</g>
</g>
<g>
	<g>
		<path d="M477.506,0H358.039H238.572c-5.12,0-8.533,3.413-8.533,8.533v11.093L122.519,0c-2.56,0-4.267,0-5.973,1.707    c-1.707,0.853-3.413,3.413-3.413,5.12l-87.04,473.6c-0.853,4.267,2.56,9.387,6.827,10.24L149.826,512c0.853,0,0.853,0,1.707,0    c1.707,0,3.413-0.853,5.12-1.707c1.707-1.707,3.413-3.413,3.413-5.12l69.973-381.44v379.733c0,5.12,3.413,8.533,8.533,8.533    h119.467h119.467c5.12,0,8.533-3.413,8.533-8.533V8.533C486.039,3.413,482.626,0,477.506,0z M142.146,414.72    c-1.707,9.387-6.827,17.067-14.507,22.187c-5.973,4.267-12.8,5.973-19.627,5.973c-1.707,0-4.267,0-5.973-0.853    c-18.773-3.413-30.72-21.333-27.307-40.107c1.707-9.387,6.827-17.067,14.507-22.187s16.213-6.827,25.6-5.12    C132.759,378.88,145.559,396.8,142.146,414.72z M148.119,230.4l-21.333,117.76c-0.853,4.267-4.267,6.827-8.533,6.827    c-0.853,0-0.853,0-1.707,0c-4.267-0.853-7.68-5.12-6.827-10.24l21.333-117.76c0.853-4.267,5.12-7.68,10.24-6.827    C145.559,221.013,148.972,225.28,148.119,230.4z M183.959,188.587c-0.853,3.413-5.12,6.827-8.533,6.827c-0.853,0-0.853,0-1.707,0    l-50.347-9.387c-4.267-0.853-7.68-5.12-6.827-10.24c0.853-4.267,5.12-7.68,10.24-6.827l50.347,9.387    C181.399,179.2,184.812,183.467,183.959,188.587z M189.932,155.307c-0.853,3.413-4.267,6.827-8.533,6.827    c-0.853,0-0.853,0-1.707,0l-50.347-9.387c-4.267-0.853-7.68-5.12-6.827-10.24c0.853-4.267,5.12-7.68,10.24-6.827l50.347,9.387    C187.372,145.92,190.786,150.187,189.932,155.307z M195.906,121.173c-0.853,4.267-4.267,6.827-8.533,6.827    c-0.853,0-0.853,0-1.707,0l-50.347-9.387c-4.267-0.853-7.68-5.12-6.827-10.24c0.853-4.267,5.12-7.68,10.24-6.827l50.347,9.387    C193.346,111.787,196.759,116.053,195.906,121.173z M201.879,87.893c-0.853,3.413-4.267,6.827-8.533,6.827    c-0.853,0-0.853,0-1.707,0l-49.493-9.387c-4.267-0.853-7.68-5.12-6.827-10.24c0-4.267,5.12-7.68,9.387-6.827l50.347,9.387    C199.319,78.507,202.732,82.773,201.879,87.893z M349.506,494.933h-102.4V17.067h102.4V494.933z M417.772,452.267    c-18.773,0-34.133-15.36-34.133-34.133c0-18.773,15.36-34.133,34.133-34.133c18.773,0,34.133,15.36,34.133,34.133    C451.906,436.907,436.546,452.267,417.772,452.267z M409.239,341.333V221.867c0-5.12,3.413-8.533,8.533-8.533    s8.533,3.413,8.533,8.533v119.467c0,5.12-3.413,8.533-8.533,8.533S409.239,346.453,409.239,341.333z M443.372,179.2h-51.2    c-5.12,0-8.533-3.413-8.533-8.533s3.413-8.533,8.533-8.533h51.2c5.12,0,8.533,3.413,8.533,8.533S448.492,179.2,443.372,179.2z     M443.372,145.067h-51.2c-5.12,0-8.533-3.413-8.533-8.533s3.413-8.533,8.533-8.533h51.2c5.12,0,8.533,3.413,8.533,8.533    S448.492,145.067,443.372,145.067z M443.372,110.933h-51.2c-5.12,0-8.533-3.413-8.533-8.533s3.413-8.533,8.533-8.533h51.2    c5.12,0,8.533,3.413,8.533,8.533S448.492,110.933,443.372,110.933z M443.372,76.8h-51.2c-5.12,0-8.533-3.413-8.533-8.533    s3.413-8.533,8.533-8.533h51.2c5.12,0,8.533,3.413,8.533,8.533S448.492,76.8,443.372,76.8z"/>
	</g>
</g>
<g>
</g>
<g>
</g>
<g>
</g>
<g>
</g>
<g>
</g>
<g>
</g>
<g>
</g>
<g>
</g>
<g>
</g>
<g>
</g>
<g>
</g>
<g>
</g>
<g>
</g>
<g>
</g>
<g>
</g>
</svg>
