<?xml version="1.0" encoding="iso-8859-1"?>
<!-- Generator: Adobe Illustrator 19.0.0, SVG Export Plug-In . SVG Version: 6.00 Build 0)  -->
<svg xmlns="http://www.w3.org/2000/svg" xmlns:xlink="http://www.w3.org/1999/xlink" version="1.1" id="Layer_1" x="0px" y="0px" viewBox="0 0 512 512" style="enable-background:new 0 0 512 512;" xml:space="preserve">
<g>
	<g>
		<g>
			<path d="M341.333,358.4h-179.2H153.6v51.2h8.533h179.2V358.4z M179.2,392.533c-4.71,0-8.533-3.814-8.533-8.533     c0-4.719,3.823-8.533,8.533-8.533s8.533,3.814,8.533,8.533C187.733,388.719,183.91,392.533,179.2,392.533z M290.133,392.533     c0,4.719-3.823,8.533-8.533,8.533c-4.71,0-8.533-3.814-8.533-8.533v-17.067c0-4.719,3.823-8.533,8.533-8.533     c4.71,0,8.533,3.814,8.533,8.533V392.533z M324.267,392.533c0,4.719-3.823,8.533-8.533,8.533s-8.533-3.814-8.533-8.533v-17.067     c0-4.719,3.823-8.533,8.533-8.533s8.533,3.814,8.533,8.533V392.533z"/>
			<path d="M315.733,187.733h25.6c9.412,0,17.067-7.654,17.067-17.067c0-9.412-7.654-17.067-17.067-17.067h-25.6H184.235     c3.661,11.085,3.661,23.049,0,34.133H315.733z"/>
			<path d="M358.4,341.333v-51.2H170.667v51.2h179.2H358.4z M196.267,324.267c-4.71,0-8.533-3.814-8.533-8.533     s3.823-8.533,8.533-8.533s8.533,3.814,8.533,8.533S200.977,324.267,196.267,324.267z M307.2,324.267     c0,4.719-3.823,8.533-8.533,8.533s-8.533-3.814-8.533-8.533V307.2c0-4.719,3.823-8.533,8.533-8.533s8.533,3.814,8.533,8.533     V324.267z M341.333,324.267c0,4.719-3.823,8.533-8.533,8.533c-4.71,0-8.533-3.814-8.533-8.533V307.2     c0-4.719,3.823-8.533,8.533-8.533c4.71,0,8.533,3.814,8.533,8.533V324.267z"/>
			<path d="M170.667,136.533h145.067c9.412,0,17.067-7.654,17.067-17.067s-7.654-17.067-17.067-17.067H158.635     c3.661,11.085,3.661,23.049,0,34.133H170.667z"/>
			<path d="M315.733,238.933c9.412,0,17.067-7.654,17.067-17.067c0-9.412-7.654-17.067-17.067-17.067H170.667h-12.032     c3.661,11.085,3.661,23.049,0,34.133H315.733z"/>
			<path d="M145.067,256H102.4v230.4c0,4.719,3.823,8.533,8.533,8.533h8.533v8.533c0,4.719,3.823,8.533,8.533,8.533     s8.533-3.814,8.533-8.533v-8.533H153.6v-68.267h-8.533c-4.71,0-8.533-3.814-8.533-8.533v-68.267c0-4.719,3.823-8.533,8.533-8.533     h8.533V281.6c0-4.719,3.823-8.533,8.533-8.533h204.8c4.71,0,8.533,3.814,8.533,8.533v68.267c0,4.719-3.823,8.533-8.533,8.533     H358.4v51.2h8.533c4.71,0,8.533,3.814,8.533,8.533V486.4v8.533v8.533c0,4.719,3.823,8.533,8.533,8.533s8.533-3.814,8.533-8.533     v-8.533h8.533c4.71,0,8.533-3.814,8.533-8.533V256h-93.867H145.067z"/>
			<path d="M170.667,426.667v68.267H358.4v-68.267h-8.533H170.667z M196.267,460.8c-4.71,0-8.533-3.814-8.533-8.533     c0-4.719,3.823-8.533,8.533-8.533s8.533,3.814,8.533,8.533C204.8,456.986,200.977,460.8,196.267,460.8z M307.2,460.8     c0,4.719-3.823,8.533-8.533,8.533s-8.533-3.814-8.533-8.533v-17.067c0-4.719,3.823-8.533,8.533-8.533s8.533,3.814,8.533,8.533     V460.8z M341.333,460.8c0,4.719-3.823,8.533-8.533,8.533c-4.71,0-8.533-3.814-8.533-8.533v-17.067     c0-4.719,3.823-8.533,8.533-8.533c4.71,0,8.533,3.814,8.533,8.533V460.8z"/>
			<path d="M401.067,0H110.933c-4.71,0-8.533,3.814-8.533,8.533v230.4h37.709c6.161-12.032,5.495-26.487-2.142-37.931     c-1.749-2.62-1.911-5.982-0.427-8.764c1.485-2.773,4.378-4.506,7.526-4.506h20.642c5.495-10.752,5.495-23.381,0-34.133h-20.642     c-3.149,0-6.042-1.732-7.526-4.506c-1.485-2.782-1.323-6.144,0.427-8.764c8.448-12.672,8.448-29.056,0-41.728     c-1.749-2.62-1.911-5.982-0.427-8.764c1.485-2.773,4.378-4.506,7.526-4.506h170.667c18.825,0,34.133,15.309,34.133,34.133     c0,6.391-1.877,12.305-4.949,17.434c17.118,1.818,30.549,16.162,30.549,33.766c0,17.596-13.431,31.949-30.549,33.766     c3.072,5.129,4.949,11.042,4.949,17.434c0,6.238-1.809,12.023-4.745,17.067H409.6V8.533C409.6,3.814,405.777,0,401.067,0z"/>
		</g>
	</g>
</g>
<g>
</g>
<g>
</g>
<g>
</g>
<g>
</g>
<g>
</g>
<g>
</g>
<g>
</g>
<g>
</g>
<g>
</g>
<g>
</g>
<g>
</g>
<g>
</g>
<g>
</g>
<g>
</g>
<g>
</g>
</svg>
