<?xml version="1.0" encoding="iso-8859-1"?>
<!-- Generator: Adobe Illustrator 19.0.0, SVG Export Plug-In . SVG Version: 6.00 Build 0)  -->
<svg xmlns="http://www.w3.org/2000/svg" xmlns:xlink="http://www.w3.org/1999/xlink" version="1.1" id="Layer_1" x="0px" y="0px" viewBox="0 0 512.002 512.002" style="enable-background:new 0 0 512.002 512.002;" xml:space="preserve">
<g>
	<g>
		<g>
			<path d="M503.468,221.868h-43.196c-2.492-21.513-14.626-34.133-33.604-34.133s-31.113,12.621-33.604,34.133h-17.596     c-23.526,0-42.667-19.14-42.667-42.667v-8.533h85.333c4.71,0,8.533-3.814,8.533-8.533v-25.6H136.535v25.6     c0,4.719,3.823,8.533,8.533,8.533h85.333v8.533c0,23.526-19.14,42.667-42.667,42.667h-52.77c0.956-2.68,1.57-5.521,1.57-8.533     c0-11.793-8.055-21.649-18.927-24.61c1.186-2.944,1.877-6.144,1.877-9.523c0-14.114-11.477-25.6-25.6-25.6H8.535     c-3.447,0-6.562,2.074-7.885,5.265c-1.323,3.191-0.589,6.861,1.852,9.301l2.534,2.534c2.27,2.27,3.516,5.291,3.516,8.499     c0,3.208-1.246,6.229-3.516,8.499l-2.534,2.534c-2.44,2.441-3.174,6.11-1.852,9.301c1.323,3.192,4.437,5.265,7.885,5.265h13.508     l0.034,0.034c2.278,2.278,3.524,5.291,3.524,8.499c0,3.208-1.246,6.221-3.524,8.499l-0.034,0.034H8.535     c-4.71,0-8.533,3.814-8.533,8.533v34.133c0,4.719,3.823,8.533,8.533,8.533h8.533v230.4c0,4.719,3.823,8.533,8.533,8.533h34.133     c4.71,0,8.533-3.814,8.533-8.533v-230.4h256v102.4h170.667v-102.4h8.533c4.71,0,8.533-3.814,8.533-8.533v-34.133     C512.002,225.682,508.179,221.868,503.468,221.868z M426.668,204.801c3.686,0,13.961,0,16.495,17.067h-32.99     C412.708,204.801,422.982,204.801,426.668,204.801z M247.468,179.201v-8.533h68.267v8.533c0,16.7,6.886,31.821,17.963,42.667     H229.506C240.582,211.022,247.468,195.901,247.468,179.201z M41.405,204.801h52.48h17.05c4.702,0,8.533,3.823,8.533,8.533     c0,4.71-3.831,8.533-8.533,8.533h-69.53c0.836-2.731,1.263-5.598,1.263-8.533C42.668,210.399,42.242,207.532,41.405,204.801z      M426.668,332.801h-34.133c-4.71,0-8.533-3.814-8.533-8.533c0-4.719,3.823-8.533,8.533-8.533h34.133     c4.71,0,8.533,3.814,8.533,8.533C435.202,328.986,431.379,332.801,426.668,332.801z M494.935,256.001h-8.533h-153.6H59.735     H25.602h-8.533v-17.067h8.516h85.35h76.8h187.733h25.6h51.2h42.667V256.001z"/>
			<path d="M324.268,503.467c0,4.719,3.823,8.533,8.533,8.533h153.6c4.71,0,8.533-3.814,8.533-8.533V392.534H324.268V503.467z      M392.535,435.201h34.133c4.71,0,8.533,3.814,8.533,8.533c0,4.719-3.823,8.533-8.533,8.533h-34.133     c-4.71,0-8.533-3.814-8.533-8.533C384.002,439.015,387.825,435.201,392.535,435.201z"/>
			<path d="M426.668,8.534c0-4.719-3.823-8.533-8.533-8.533H145.068c-4.71,0-8.533,3.814-8.533,8.533v110.933h290.133V8.534z"/>
		</g>
	</g>
</g>
<g>
</g>
<g>
</g>
<g>
</g>
<g>
</g>
<g>
</g>
<g>
</g>
<g>
</g>
<g>
</g>
<g>
</g>
<g>
</g>
<g>
</g>
<g>
</g>
<g>
</g>
<g>
</g>
<g>
</g>
</svg>
