<?xml version="1.0" encoding="iso-8859-1"?>
<!-- Generator: Adobe Illustrator 19.0.0, SVG Export Plug-In . SVG Version: 6.00 Build 0)  -->
<svg xmlns="http://www.w3.org/2000/svg" xmlns:xlink="http://www.w3.org/1999/xlink" version="1.1" id="Layer_1" x="0px" y="0px" viewBox="0 0 512 512" style="enable-background:new 0 0 512 512;" xml:space="preserve">
<g>
	<g>
		<path d="M503.467,218.133c5.12,0,8.533-3.413,8.533-8.533v-51.2c0-5.12-3.413-8.533-8.533-8.533H486.4V107.2    c0-5.12-3.413-8.533-8.533-8.533H290.133c-5.12,0-8.533,3.413-8.533,8.533v51.2c0,5.12,3.413,8.533,8.533,8.533H307.2v34.133    h-17.067c-5.12,0-8.533,3.413-8.533,8.533v42.667H136.533v-8.533c0-14.507-11.093-25.6-25.6-25.6h-20.48l-35.84-66.56    c7.68-5.973,13.653-16.213,13.653-27.307c0-5.973-1.707-11.947-5.12-17.067l52.907-52.907l8.533,8.533    c-3.413,11.093,0,23.893,8.533,32.427l23.04,23.04c1.707,1.707,4.267,2.56,5.973,2.56c2.56,0,4.267-0.853,5.973-2.56l48.64-48.64    c3.413-3.413,3.413-8.533,0-11.947l-23.04-23.04c-8.533-8.533-21.333-11.947-33.28-8.533l-15.36-15.36    c-9.387-9.387-26.453-9.387-35.84,0c-5.12,5.12-7.68,11.093-7.68,17.92c0,4.267,1.707,9.387,3.413,12.8L51.2,95.253    c-5.12-3.413-11.093-5.12-17.067-5.12C15.36,90.133,0,105.493,0,124.267C0,143.04,15.36,158.4,34.133,158.4    c1.707,0,2.56,0,4.267,0l32.427,59.733H59.733c-14.507,0-25.6,11.093-25.6,25.6v8.533h-25.6C3.413,252.267,0,255.68,0,260.8    v34.133c0,5.12,3.413,8.533,8.533,8.533h8.533v196.267c0,5.12,3.413,8.533,8.533,8.533h34.133c5.12,0,8.533-3.413,8.533-8.533    V303.467h256V388.8h170.667v-85.333h8.533c5.12,0,8.533-3.413,8.533-8.533V260.8c0-5.12-3.413-8.533-8.533-8.533H486.4v-34.133    H503.467z M120.32,22.72c1.707-1.707,3.413-2.56,5.973-2.56s4.267,0.853,5.973,2.56l12.8,12.8L133.12,47.467l-12.8-12.8    c-1.707-1.707-2.56-3.413-2.56-5.973C117.76,26.987,118.613,24.427,120.32,22.72z M443.733,166.933H460.8v34.133h-17.067V166.933z     M469.333,218.133v34.133h-17.067v-34.133H469.333z M418.133,115.733H435.2v34.133h-17.067V115.733z M418.133,218.133H435.2    v34.133h-17.067V218.133z M298.667,149.867v-34.133h102.4v34.133h-85.333H298.667z M298.667,218.133h17.067h85.333v34.133h-102.4    V218.133z M426.667,354.667h-34.133c-5.12,0-8.533-3.413-8.533-8.533s3.413-8.533,8.533-8.533h34.133    c5.12,0,8.533,3.413,8.533,8.533S431.787,354.667,426.667,354.667z M494.933,269.333V286.4H486.4H332.8H59.733H25.6h-8.533    v-17.067h25.6H128h162.133h187.733H494.933z M477.867,201.067v-34.133h17.067v34.133H477.867z"/>
	</g>
</g>
<g>
	<g>
		<path d="M324.267,405.867v93.867c0,5.12,3.413,8.533,8.533,8.533h153.6c5.12,0,8.533-3.413,8.533-8.533v-93.867H324.267z     M426.667,457.067h-34.133c-5.12,0-8.533-3.413-8.533-8.533c0-5.12,3.413-8.533,8.533-8.533h34.133    c5.12,0,8.533,3.413,8.533,8.533C435.2,453.653,431.787,457.067,426.667,457.067z"/>
	</g>
</g>
<g>
</g>
<g>
</g>
<g>
</g>
<g>
</g>
<g>
</g>
<g>
</g>
<g>
</g>
<g>
</g>
<g>
</g>
<g>
</g>
<g>
</g>
<g>
</g>
<g>
</g>
<g>
</g>
<g>
</g>
</svg>
