<?xml version="1.0" encoding="iso-8859-1"?>
<!-- Generator: Adobe Illustrator 19.0.0, SVG Export Plug-In . SVG Version: 6.00 Build 0)  -->
<svg xmlns="http://www.w3.org/2000/svg" xmlns:xlink="http://www.w3.org/1999/xlink" version="1.1" id="Layer_1" x="0px" y="0px" viewBox="0 0 512 512" style="enable-background:new 0 0 512 512;" xml:space="preserve">
<g>
	<g>
		<g>
			<path d="M418.133,375.466c0,4.719,3.814,8.533,8.533,8.533s8.533-3.814,8.533-8.533c0-15.855-10.914-29.107-25.6-32.922V332.8     c0-4.719-3.814-8.533-8.533-8.533c-4.719,0-8.533,3.814-8.533,8.533v9.745c-14.686,3.814-25.6,17.067-25.6,32.922     c0,15.855,10.914,29.107,25.6,32.922v32.973c-5.077-2.961-8.533-8.414-8.533-14.694c0-4.719-3.814-8.533-8.533-8.533     s-8.533,3.814-8.533,8.533c0,15.855,10.914,29.107,25.6,32.922v9.745c0,4.719,3.814,8.533,8.533,8.533     c4.719,0,8.533-3.814,8.533-8.533v-9.745c14.686-3.814,25.6-17.067,25.6-32.922c0-15.855-10.914-29.107-25.6-32.922v-32.973     C414.677,363.733,418.133,369.186,418.133,375.466z M392.533,390.161c-5.077-2.961-8.533-8.414-8.533-14.694     s3.456-11.733,8.533-14.694V390.161z M418.133,426.666c0,6.281-3.456,11.733-8.533,14.694v-29.389     C414.677,414.933,418.133,420.386,418.133,426.666z"/>
			<path d="M477.867,321.203v-156.45L243.712,322.807c-1.442,0.973-3.115,1.459-4.779,1.459c-1.647,0-3.302-0.478-4.736-1.434     L0,166.698v251.435c0,4.719,3.814,8.533,8.533,8.533h284.698C304.845,475.511,348.723,512,401.067,512     C462.234,512,512,462.233,512,401.066C512,369.706,498.859,341.401,477.867,321.203z M401.067,494.933     c-46.404,0-84.958-33.894-92.45-78.199v-0.017c-0.452-2.705-0.785-5.274-1.016-7.765c-0.222-2.611-0.401-5.222-0.401-7.885     c0-51.755,42.112-93.867,93.867-93.867c3.046,0,6.05,0.179,9.028,0.461c1.382,0.128,2.739,0.375,4.113,0.572     c1.545,0.213,3.081,0.41,4.599,0.7c1.724,0.333,3.422,0.768,5.129,1.203c1.101,0.273,2.202,0.529,3.277,0.845     c1.886,0.555,3.746,1.186,5.589,1.86c0.836,0.299,1.69,0.589,2.526,0.93c1.946,0.759,3.874,1.621,5.769,2.517     c0.683,0.324,1.357,0.648,2.022,0.981c1.963,0.99,3.891,2.057,5.786,3.183c0.563,0.333,1.109,0.666,1.664,1.007     c1.929,1.212,3.831,2.492,5.692,3.849c0.452,0.333,0.913,0.674,1.374,1.024c1.869,1.417,3.686,2.901,5.461,4.471     c19.473,17.203,31.838,42.291,31.838,70.263C494.933,452.821,452.821,494.933,401.067,494.933z"/>
			<path d="M232.892,134.025c0.512,0.512,1.161,0.845,1.784,1.212c0.273,0.154,0.495,0.393,0.785,0.521     c0.077,0.034,0.137,0.085,0.213,0.12c1.041,0.435,2.15,0.657,3.26,0.657h0.009c1.015,0,2.022-0.213,3.004-0.58     c0.077-0.034,0.162-0.043,0.247-0.077c0.299-0.128,0.512-0.35,0.794-0.503c0.427-0.239,0.887-0.393,1.28-0.708l42.667-34.133     c3.678-2.953,4.275-8.311,1.331-11.998c-2.953-3.678-8.303-4.284-11.998-1.331l-27.025,21.615     c9.122-52.045,54.545-91.75,109.158-91.75c4.719,0,8.533-3.814,8.533-8.533S363.119,0,358.4,0     c-64.102,0-117.188,47.411-126.421,108.971l-21.146-21.137c-3.337-3.337-8.73-3.337-12.066,0c-3.337,3.337-3.337,8.73,0,12.066     L232.892,134.025z"/>
			<polygon points="463.875,153.6 11.114,153.6 238.903,305.459    "/>
		</g>
	</g>
</g>
<g>
</g>
<g>
</g>
<g>
</g>
<g>
</g>
<g>
</g>
<g>
</g>
<g>
</g>
<g>
</g>
<g>
</g>
<g>
</g>
<g>
</g>
<g>
</g>
<g>
</g>
<g>
</g>
<g>
</g>
</svg>
