<?xml version="1.0" encoding="iso-8859-1"?>
<!-- Generator: Adobe Illustrator 19.0.0, SVG Export Plug-In . SVG Version: 6.00 Build 0)  -->
<svg xmlns="http://www.w3.org/2000/svg" xmlns:xlink="http://www.w3.org/1999/xlink" version="1.1" id="Layer_1" x="0px" y="0px" viewBox="0 0 512 512" style="enable-background:new 0 0 512 512;" xml:space="preserve">
<g>
	<g>
		<g>
			<path d="M407.106,326.775c-0.785-0.794-1.732-1.417-2.782-1.852c-2.082-0.862-4.429-0.862-6.511,0     c-1.05,0.435-1.997,1.058-2.782,1.852l-25.6,25.591c-3.328,3.337-3.328,8.73,0,12.066c1.673,1.664,3.857,2.5,6.033,2.5     c2.185,0,4.369-0.836,6.042-2.5l8.892-8.892c-10.786,59.75-63.053,105.259-125.867,105.259c-4.71,0-8.533,3.814-8.533,8.533     s3.823,8.533,8.533,8.533c73.481,0,134.221-54.946,143.65-125.884l12.45,12.45c1.673,1.664,3.857,2.5,6.033,2.5     c2.185,0,4.369-0.836,6.042-2.5c3.328-3.337,3.328-8.73,0-12.066L407.106,326.775z"/>
			<path d="M247.469,34.133c-73.472,0-134.212,54.946-143.642,125.884l-12.459-12.45c-3.337-3.337-8.73-3.337-12.066,0     c-3.337,3.337-3.337,8.73,0,12.066l25.591,25.591c0.794,0.794,1.732,1.417,2.782,1.852c1.041,0.435,2.15,0.657,3.26,0.657     c1.109,0,2.219-0.222,3.26-0.657c1.05-0.435,1.988-1.058,2.782-1.852l25.591-25.591c3.337-3.336,3.337-8.73,0-12.066     s-8.73-3.337-12.066,0l-8.892,8.892C132.388,96.708,184.663,51.2,247.469,51.2c4.71,0,8.533-3.814,8.533-8.533     S252.179,34.133,247.469,34.133z"/>
			<path d="M93.869,375.467c0,6.281,3.456,11.733,8.533,14.694v-29.389C97.325,363.733,93.869,369.186,93.869,375.467z"/>
			<path d="M136.535,298.667v-85.333h-128c-4.71,0-8.533,3.814-8.533,8.533v281.6c0,4.719,3.823,8.533,8.533,8.533h213.333     c4.71,0,8.533-3.814,8.533-8.533V307.2h-85.333C140.358,307.2,136.535,303.386,136.535,298.667z M145.069,426.667     c0,15.855-10.923,29.107-25.6,32.922v9.745c0,4.719-3.823,8.533-8.533,8.533s-8.533-3.814-8.533-8.533v-9.745     c-14.677-3.814-25.6-17.067-25.6-32.922c0-4.719,3.823-8.533,8.533-8.533c4.71,0,8.533,3.814,8.533,8.533     c0,6.281,3.456,11.733,8.533,14.694v-32.973c-14.677-3.814-25.6-17.067-25.6-32.922c0-15.855,10.923-29.107,25.6-32.922V332.8     c0-4.719,3.823-8.533,8.533-8.533s8.533,3.814,8.533,8.533v9.745c14.677,3.814,25.6,17.067,25.6,32.922     c0,4.719-3.823,8.533-8.533,8.533s-8.533-3.814-8.533-8.533c0-6.281-3.456-11.733-8.533-14.694v32.973     C134.146,397.56,145.069,410.812,145.069,426.667z"/>
			<polygon points="153.602,290.133 225.402,290.133 153.602,218.334    "/>
			<path d="M119.469,441.359c5.077-2.961,8.533-8.405,8.533-14.694c0-6.281-3.456-11.733-8.533-14.686V441.359z"/>
			<polygon points="435.202,5 435.202,76.799 507.002,76.799    "/>
			<path d="M426.665,93.867c-4.71,0-8.533-3.814-8.533-8.533V0h-128c-4.71,0-8.533,3.814-8.533,8.533v281.6     c0,4.719,3.823,8.533,8.533,8.533h213.333c4.719,0,8.533-3.814,8.533-8.533V93.867H426.665z M383.998,153.6     c4.71,0,8.533,3.814,8.533,8.533s-3.823,8.533-8.533,8.533h-16.427c-0.393,2.782-0.64,5.615-0.64,8.533s0.247,5.751,0.64,8.533     h16.427c4.71,0,8.533,3.814,8.533,8.533s-3.823,8.533-8.533,8.533H372.7c7.39,15.275,21.146,25.6,36.898,25.6     c10.274,0,20.207-4.463,27.972-12.587c3.268-3.396,8.661-3.524,12.066-0.265c3.405,3.26,3.524,8.661,0.265,12.066     c-11.017,11.511-25.327,17.852-40.303,17.852c-25.011,0-46.456-17.681-55.339-42.667h-12.928c-4.71,0-8.533-3.814-8.533-8.533     s3.823-8.533,8.533-8.533h9.054c-0.307-2.799-0.521-5.632-0.521-8.533c0-2.901,0.213-5.734,0.521-8.533h-9.054     c-4.71,0-8.533-3.814-8.533-8.533s3.823-8.533,8.533-8.533h12.928c8.883-24.986,30.327-42.667,55.339-42.667     c14.976,0,29.286,6.34,40.303,17.852c3.26,3.405,3.14,8.806-0.265,12.066c-3.405,3.268-8.798,3.132-12.066-0.265     C429.805,132.463,419.872,128,409.598,128c-15.753,0-29.508,10.325-36.898,25.6H383.998z"/>
		</g>
	</g>
</g>
<g>
</g>
<g>
</g>
<g>
</g>
<g>
</g>
<g>
</g>
<g>
</g>
<g>
</g>
<g>
</g>
<g>
</g>
<g>
</g>
<g>
</g>
<g>
</g>
<g>
</g>
<g>
</g>
<g>
</g>
</svg>
