<?xml version="1.0" encoding="iso-8859-1"?>
<!-- Generator: Adobe Illustrator 19.0.0, SVG Export Plug-In . SVG Version: 6.00 Build 0)  -->
<svg xmlns="http://www.w3.org/2000/svg" xmlns:xlink="http://www.w3.org/1999/xlink" version="1.1" id="Layer_1" x="0px" y="0px" viewBox="0 0 512 512" style="enable-background:new 0 0 512 512;" xml:space="preserve">
<g>
	<g>
		<g>
			<path d="M174.933,366.933c0-6.281-3.456-11.733-8.533-14.694v29.389C171.477,378.667,174.933,373.214,174.933,366.933z"/>
			<polygon points="379.733,5 379.733,102.399 477.133,102.399    "/>
			<path d="M149.333,301.042c-5.077,2.961-8.533,8.405-8.533,14.694c0,6.281,3.456,11.733,8.533,14.686V301.042z"/>
			<path d="M371.2,119.467c-4.71,0-8.533-3.814-8.533-8.533V0h-281.6c-4.71,0-8.533,3.814-8.533,8.533v25.6H38.4     c-4.71,0-8.533,3.814-8.533,8.533v460.8c0,4.719,3.823,8.533,8.533,8.533h392.533c4.71,0,8.533-3.814,8.533-8.533v-34.133H473.6     c4.71,0,8.533-3.814,8.533-8.533V119.467H371.2z M277.342,154.906c-0.316-4.079,2.372-7.56,6.153-8.678L271.3,134.033     c-3.336-3.337-3.336-8.73,0-12.066c3.337-3.336,8.73-3.336,12.066,0l25.591,25.591c0.794,0.794,1.417,1.732,1.852,2.782     c0.862,2.082,0.862,4.437,0,6.519c-0.435,1.05-1.058,1.988-1.852,2.782l-25.591,25.591c-1.664,1.664-3.849,2.5-6.033,2.5     c-2.185,0-4.369-0.836-6.033-2.5c-3.336-3.337-3.336-8.73,0-12.066l11.145-11.145     C279.654,160.794,277.589,158.157,277.342,154.906z M267.691,377.839c7.364-1.903,14.609-4.284,21.521-7.057     c4.386-1.741,9.335,0.367,11.093,4.736c1.758,4.378-0.358,9.344-4.727,11.102c-7.595,3.046-15.539,5.658-23.612,7.74     c-0.717,0.188-1.442,0.273-2.142,0.273c-3.806,0-7.262-2.552-8.26-6.4C260.386,383.676,263.125,379.017,267.691,377.839z      M227.55,158.498c7.287-2.799,14.908-5.205,22.63-7.134c4.574-1.143,9.199,1.63,10.351,6.212     c1.143,4.565-1.638,9.199-6.212,10.342c-7.049,1.766-13.995,3.959-20.651,6.511c-0.998,0.384-2.039,0.572-3.063,0.572     c-3.422,0-6.656-2.074-7.962-5.47C220.954,165.137,223.147,160.188,227.55,158.498z M209.724,389.274     c0.435-1.05,1.058-1.988,1.852-2.782l25.591-25.591c3.337-3.336,8.73-3.336,12.066,0c3.336,3.337,3.336,8.73,0,12.066     l-11.187,11.187c2.799,1.22,4.898,3.814,5.154,7.074c0.316,4.087-2.372,7.561-6.161,8.678l12.194,12.194     c3.336,3.337,3.336,8.73,0,12.066c-1.664,1.664-3.849,2.5-6.033,2.5c-2.185,0-4.369-0.836-6.033-2.5l-25.591-25.591     c-0.794-0.794-1.417-1.732-1.852-2.782C208.862,393.711,208.862,391.356,209.724,389.274z M176.367,188.459     c6.067-5.069,12.552-9.779,19.285-14.012c3.994-2.5,9.259-1.289,11.767,2.688c2.509,3.994,1.306,9.259-2.688,11.767     c-6.084,3.823-11.947,8.081-17.434,12.655c-1.596,1.331-3.533,1.988-5.461,1.988c-2.441,0-4.864-1.05-6.554-3.072     C172.262,196.855,172.749,191.471,176.367,188.459z M140.791,228.42c3.26-4.966,6.793-9.83,10.513-14.447     c2.961-3.661,8.329-4.25,12.006-1.297c3.661,2.961,4.25,8.329,1.289,11.998c-3.371,4.19-6.579,8.602-9.54,13.107     c-1.638,2.492-4.361,3.849-7.142,3.849c-1.604,0-3.226-0.444-4.676-1.399C139.307,237.653,138.206,232.354,140.791,228.42z      M123.733,315.733c0-15.855,10.923-29.107,25.6-32.922v-9.745c0-4.719,3.823-8.533,8.533-8.533c4.71,0,8.533,3.814,8.533,8.533     v9.745c14.677,3.814,25.6,17.067,25.6,32.922c0,4.719-3.823,8.533-8.533,8.533s-8.533-3.814-8.533-8.533     c0-6.281-3.456-11.733-8.533-14.694v32.973c14.677,3.814,25.6,17.067,25.6,32.922c0,15.855-10.923,29.107-25.6,32.922v9.745     c0,4.719-3.823,8.533-8.533,8.533c-4.71,0-8.533-3.814-8.533-8.533v-9.745c-14.677-3.814-25.6-17.067-25.6-32.922     c0-4.719,3.823-8.533,8.533-8.533s8.533,3.814,8.533,8.533c0,6.281,3.456,11.733,8.533,14.694v-32.973     C134.656,344.841,123.733,331.588,123.733,315.733z M422.4,494.933H46.933V51.2h25.6v409.6c0,4.719,3.823,8.533,8.533,8.533     H422.4V494.933z M319.181,355.055c6.263-4.156,12.271-8.781,17.869-13.747c3.524-3.115,8.917-2.799,12.049,0.717     c3.123,3.524,2.807,8.917-0.717,12.049c-6.187,5.495-12.834,10.607-19.763,15.198c-1.451,0.973-3.089,1.425-4.71,1.425     c-2.765,0-5.478-1.34-7.117-3.814C314.18,362.957,315.255,357.666,319.181,355.055z M359.936,316.271     c3.217-4.326,6.263-8.875,9.037-13.483c2.432-4.036,7.68-5.342,11.716-2.893c4.036,2.432,5.333,7.671,2.901,11.716     c-3.055,5.069-6.409,10.061-9.941,14.831c-1.681,2.261-4.258,3.447-6.869,3.447c-1.766,0-3.55-0.546-5.077-1.681     C357.922,325.402,357.129,320.06,359.936,316.271z M362.667,179.2c4.71,0,8.533,3.814,8.533,8.533s-3.823,8.533-8.533,8.533     H346.24c-0.393,2.782-0.64,5.615-0.64,8.533s0.247,5.751,0.64,8.533h16.427c4.71,0,8.533,3.814,8.533,8.533     s-3.823,8.533-8.533,8.533h-11.298c7.39,15.275,21.146,25.6,36.898,25.6c10.274,0,20.207-4.463,27.964-12.587     c3.268-3.396,8.661-3.524,12.066-0.265c3.405,3.26,3.524,8.661,0.273,12.066c-11.017,11.511-25.335,17.852-40.303,17.852     c-25.02,0-46.455-17.681-55.339-42.667H320c-4.719,0-8.533-3.814-8.533-8.533s3.814-8.533,8.533-8.533h9.045     c-0.307-2.799-0.512-5.632-0.512-8.533c0-2.901,0.205-5.734,0.512-8.533H320c-4.719,0-8.533-3.814-8.533-8.533     s3.814-8.533,8.533-8.533h12.928c8.883-24.986,30.319-42.667,55.339-42.667c14.967,0,29.286,6.34,40.303,17.852     c3.251,3.405,3.132,8.806-0.273,12.066c-3.405,3.268-8.798,3.132-12.066-0.265c-7.757-8.124-17.69-12.587-27.964-12.587     c-15.753,0-29.508,10.325-36.898,25.6H362.667z"/>
		</g>
	</g>
</g>
<g>
</g>
<g>
</g>
<g>
</g>
<g>
</g>
<g>
</g>
<g>
</g>
<g>
</g>
<g>
</g>
<g>
</g>
<g>
</g>
<g>
</g>
<g>
</g>
<g>
</g>
<g>
</g>
<g>
</g>
</svg>
