<?xml version="1.0" encoding="iso-8859-1"?>
<!-- Generator: Adobe Illustrator 19.0.0, SVG Export Plug-In . SVG Version: 6.00 Build 0)  -->
<svg xmlns="http://www.w3.org/2000/svg" xmlns:xlink="http://www.w3.org/1999/xlink" version="1.1" id="Layer_1" x="0px" y="0px" viewBox="0 0 512 512" style="enable-background:new 0 0 512 512;" xml:space="preserve">
<g>
	<g>
		<g>
			<path d="M290.133,443.733c14.114,0,25.6-11.486,25.6-25.6s-11.486-25.6-25.6-25.6c-14.114,0-25.6,11.486-25.6,25.6     S276.019,443.733,290.133,443.733z"/>
			<path d="M290.133,170.667c-14.114,0-25.6,11.486-25.6,25.6s11.486,25.6,25.6,25.6c14.114,0,25.6-11.486,25.6-25.6     S304.247,170.667,290.133,170.667z"/>
			<path d="M136.533,290.133c-14.114,0-25.6,11.486-25.6,25.6s11.486,25.6,25.6,25.6s25.6-11.486,25.6-25.6     S150.647,290.133,136.533,290.133z"/>
			<polygon points="358.4,5 358.4,102.399 455.8,102.399    "/>
			<path d="M375.467,264.533c-14.114,0-25.6,11.486-25.6,25.6s11.486,25.6,25.6,25.6s25.6-11.486,25.6-25.6     S389.581,264.533,375.467,264.533z"/>
			<path d="M349.867,119.467c-4.71,0-8.533-3.814-8.533-8.533V0h-281.6C55.023,0,51.2,3.814,51.2,8.533v494.933     c0,4.719,3.823,8.533,8.533,8.533h392.533c4.71,0,8.533-3.814,8.533-8.533v-384H349.867z M375.467,332.8     c-23.526,0-42.667-19.14-42.667-42.667c0-9.404,3.157-18.022,8.329-25.079l-29.303-32.247     c-6.383,3.806-13.739,6.127-21.692,6.127c-10.573,0-20.13-4.011-27.597-10.402l-87.91,68.378     c2.833,5.709,4.574,12.041,4.574,18.825c0,5.683-1.169,11.102-3.191,16.06l84.105,56.073c7.723-7.646,18.321-12.399,30.02-12.399     c23.526,0,42.667,19.14,42.667,42.667c0,23.526-19.14,42.667-42.667,42.667c-23.526,0-42.667-19.14-42.667-42.667     c0-5.683,1.169-11.102,3.191-16.06l-84.105-56.073c-7.723,7.646-18.321,12.399-30.02,12.399     c-23.526,0-42.667-19.14-42.667-42.667c0-23.526,19.14-42.667,42.667-42.667c10.573,0,20.13,4.011,27.597,10.402l87.91-68.386     c-2.833-5.7-4.574-12.032-4.574-18.816c0-23.526,19.14-42.667,42.667-42.667c23.526,0,42.667,19.14,42.667,42.667     c0,9.404-3.157,18.022-8.329,25.079l29.303,32.247c6.383-3.806,13.739-6.127,21.692-6.127c23.526,0,42.667,19.14,42.667,42.667     C418.133,313.66,398.993,332.8,375.467,332.8z"/>
		</g>
	</g>
</g>
<g>
</g>
<g>
</g>
<g>
</g>
<g>
</g>
<g>
</g>
<g>
</g>
<g>
</g>
<g>
</g>
<g>
</g>
<g>
</g>
<g>
</g>
<g>
</g>
<g>
</g>
<g>
</g>
<g>
</g>
</svg>
