<?xml version="1.0" encoding="iso-8859-1"?>
<!-- Generator: Adobe Illustrator 19.0.0, SVG Export Plug-In . SVG Version: 6.00 Build 0)  -->
<svg xmlns="http://www.w3.org/2000/svg" xmlns:xlink="http://www.w3.org/1999/xlink" version="1.1" id="Layer_1" x="0px" y="0px" viewBox="0 0 512 512" style="enable-background:new 0 0 512 512;" xml:space="preserve">
<g>
	<g>
		<g>
			<path d="M298.665,153.601c0,11.11,7.159,20.489,17.067,24.021v-48.051C305.824,133.112,298.665,142.49,298.665,153.601z"/>
			<path d="M332.798,197.837v48.06c9.907-3.541,17.067-12.919,17.067-24.03C349.865,210.756,342.706,201.378,332.798,197.837z"/>
			<path d="M324.267,0c-87.885,0-161.826,60.715-182.17,142.396C59.46,163.106,0,238.609,0,324.267     C0,427.785,84.215,512,187.733,512c85.649,0,161.152-59.469,181.871-142.097C451.285,349.56,512,275.618,512,187.733     C512,84.215,427.785,0,324.267,0z M40.823,279.424c1.929-6.366,4.343-12.698,7.134-18.807c1.946-4.284,7.006-6.187,11.298-4.224     c4.292,1.963,6.178,7.023,4.215,11.315c-2.475,5.427-4.608,11.042-6.332,16.691c-1.118,3.678-4.497,6.05-8.158,6.05     c-0.828,0-1.655-0.12-2.492-0.375C41.984,288.7,39.45,283.93,40.823,279.424z M45.961,356.258     c-0.461,0.077-0.93,0.111-1.391,0.111c-4.104,0-7.723-2.961-8.405-7.151c-1.092-6.596-1.741-13.329-1.954-20.011     c-0.145-4.719,3.558-8.653,8.26-8.798c4.599-0.154,8.653,3.541,8.806,8.26c0.179,5.939,0.759,11.921,1.724,17.783     C53.769,351.104,50.611,355.49,45.961,356.258z M74.837,415.684c-1.51,1.075-3.243,1.596-4.966,1.596     c-2.654,0-5.274-1.237-6.938-3.558c-3.908-5.444-7.492-11.187-10.641-17.05c-2.236-4.147-0.674-9.327,3.473-11.554     c4.19-2.244,9.327-0.666,11.554,3.482c2.807,5.214,5.999,10.325,9.481,15.172C79.548,407.603,78.66,412.937,74.837,415.684z      M88.363,230.767c-1.681,1.783-3.951,2.679-6.212,2.679c-2.099,0-4.198-0.759-5.854-2.313c-3.422-3.226-3.593-8.627-0.367-12.066     c4.574-4.864,9.523-9.481,14.711-13.722c3.644-2.987,9.011-2.44,12.006,1.212c2.987,3.644,2.441,9.028-1.212,12.006     C96.828,222.328,92.433,226.432,88.363,230.767z M126.976,456.26c-1.545,2.876-4.497,4.506-7.535,4.506     c-1.357,0-2.739-0.324-4.028-1.015c-5.879-3.149-11.614-6.724-17.058-10.624c-3.823-2.748-4.71-8.081-1.954-11.913     c2.748-3.823,8.073-4.702,11.904-1.954c4.838,3.473,9.941,6.647,15.172,9.455C127.633,446.942,129.195,452.105,126.976,456.26z      M345.754,43.998c0.973-4.608,5.53-7.578,10.112-6.596c5.982,1.263,11.947,2.893,17.724,4.855     c4.454,1.519,6.852,6.366,5.333,10.829c-1.212,3.55-4.523,5.786-8.081,5.786c-0.913,0-1.835-0.145-2.756-0.452     c-5.12-1.741-10.411-3.191-15.735-4.318C347.742,53.137,344.789,48.614,345.754,43.998z M292.045,37.53     c5.973-1.271,12.075-2.202,18.159-2.756c4.787-0.393,8.841,3.038,9.276,7.731c0.427,4.693-3.029,8.841-7.723,9.267     c-5.41,0.495-10.837,1.314-16.128,2.458c-0.606,0.128-1.203,0.179-1.8,0.179c-3.942,0-7.475-2.739-8.329-6.741     C284.51,43.059,287.437,38.519,292.045,37.53z M233.813,63.65c4.932-3.593,10.121-6.938,15.428-9.916     c4.104-2.313,9.318-0.853,11.622,3.26c2.313,4.105,0.853,9.31-3.26,11.614c-4.719,2.654-9.335,5.623-13.722,8.832     c-1.519,1.109-3.285,1.638-5.026,1.638c-2.637,0-5.222-1.212-6.904-3.499C229.18,71.774,230.008,66.441,233.813,63.65z      M222.276,291.149c-1.638,1.468-3.678,2.193-5.717,2.193c-2.338,0-4.651-0.947-6.34-2.816     c-4.087-4.531-7.936-9.353-11.452-14.327c-2.731-3.849-1.809-9.173,2.039-11.896c3.857-2.722,9.173-1.809,11.896,2.039     c3.132,4.429,6.554,8.721,10.189,12.749C226.048,282.59,225.775,287.992,222.276,291.149z M191.155,111.121     c3.063-5.282,6.46-10.436,10.112-15.317c2.833-3.763,8.166-4.548,11.947-1.715c3.772,2.825,4.54,8.175,1.715,11.947     c-3.26,4.343-6.281,8.926-8.986,13.619c-1.587,2.739-4.454,4.267-7.407,4.267c-1.451,0-2.91-0.358-4.258-1.143     C190.199,120.422,188.8,115.209,191.155,111.121z M188.971,240.777c-0.879,0.29-1.775,0.427-2.645,0.427     c-3.593,0-6.938-2.287-8.107-5.888c-1.911-5.837-3.473-11.827-4.634-17.792c-0.905-4.625,2.116-9.105,6.741-10.01     c4.582-0.913,9.105,2.108,10.001,6.741c1.041,5.282,2.415,10.59,4.105,15.761C195.9,234.496,193.459,239.309,188.971,240.777z      M171.469,171.853c0.64-6.11,1.647-12.211,2.995-18.125c1.041-4.591,5.564-7.492,10.214-6.426     c4.591,1.05,7.467,5.623,6.417,10.214c-1.186,5.248-2.082,10.667-2.637,16.085c-0.461,4.395-4.173,7.663-8.482,7.663     c-0.299,0-0.589-0.017-0.888-0.051C174.396,180.736,170.991,176.538,171.469,171.853z M183.16,477.798h-0.29     c-6.716-0.213-13.448-0.87-20.002-1.946c-4.659-0.76-7.808-5.146-7.049-9.796c0.759-4.651,5.111-7.817,9.796-7.04     c5.837,0.947,11.827,1.527,17.809,1.724c4.71,0.145,8.397,4.087,8.252,8.798C191.531,474.155,187.742,477.798,183.16,477.798z      M196.267,400.205v9.395c0,4.71-3.823,8.533-8.533,8.533c-4.719,0-8.533-3.823-8.533-8.533v-9.395     c-19.456-3.968-34.133-21.197-34.133-41.805c0-4.71,3.814-8.533,8.533-8.533c4.71,0,8.533,3.823,8.533,8.533     c0,11.11,7.159,20.489,17.067,24.021v-50.483c-19.456-3.968-34.133-21.197-34.133-41.805c0-9.097,2.978-17.724,8.252-24.969     c2.901,6.4,6.127,12.612,9.711,18.594c-0.529,2.074-0.896,4.19-0.896,6.374c0,11.11,7.159,20.489,17.067,24.021v-7.398     c14.037,17.075,31.044,31.616,50.202,42.88c0.597,2.842,0.998,5.751,0.998,8.764C230.4,379.008,215.714,396.237,196.267,400.205z      M251.358,464.06c-6.067,2.782-12.399,5.18-18.816,7.142c-0.836,0.256-1.673,0.375-2.492,0.375c-3.661,0-7.04-2.372-8.158-6.05     c-1.382-4.506,1.152-9.276,5.666-10.65c5.7-1.741,11.315-3.874,16.7-6.34c4.292-1.98,9.344-0.077,11.307,4.216     C257.519,457.037,255.642,462.097,251.358,464.06z M273.109,323.755c-1.417,3.174-4.54,5.06-7.799,5.06     c-1.161,0-2.347-0.247-3.482-0.751c-5.538-2.475-11.017-5.325-16.282-8.474c-4.036-2.423-5.359-7.663-2.944-11.708     c2.432-4.045,7.672-5.359,11.708-2.935c4.685,2.799,9.566,5.333,14.49,7.535C273.101,314.402,275.029,319.454,273.109,323.755z      M306.62,421.385c-4.207,5.163-8.823,10.112-13.713,14.711c-1.647,1.553-3.755,2.321-5.854,2.321     c-2.261,0-4.531-0.896-6.212-2.688c-3.226-3.43-3.063-8.832,0.367-12.066c4.352-4.087,8.457-8.482,12.203-13.073     c2.961-3.652,8.337-4.198,11.998-1.212C309.069,412.356,309.606,417.732,306.62,421.385z M324.855,341.333h-0.589     c-6.101,0-12.271-0.367-18.321-1.084c-4.685-0.555-8.021-4.804-7.467-9.481c0.563-4.676,4.796-7.996,9.489-7.467     c5.376,0.64,10.863,0.964,16.299,0.964c4.71,0,8.832,3.823,8.832,8.533C333.099,337.51,329.574,341.333,324.855,341.333z      M332.8,263.672v9.395c0,4.71-3.823,8.533-8.533,8.533c-4.719,0-8.533-3.823-8.533-8.533v-9.395     c-19.456-3.968-34.133-21.197-34.133-41.805c0-4.71,3.814-8.533,8.533-8.533c4.71,0,8.533,3.823,8.533,8.533     c0,11.11,7.159,20.489,17.067,24.021v-50.483c-19.456-3.968-34.133-21.197-34.133-41.805c0-20.608,14.677-37.837,34.133-41.805     V102.4c0-4.71,3.814-8.533,8.533-8.533c4.71,0,8.533,3.823,8.533,8.533v9.395c19.448,3.968,34.133,21.197,34.133,41.805     c0,4.71-3.823,8.533-8.533,8.533c-4.719,0-8.533-3.823-8.533-8.533c0-11.11-7.159-20.489-17.067-24.03v50.492     c19.448,3.968,34.133,21.197,34.133,41.805C366.933,242.475,352.247,259.703,332.8,263.672z M387.277,327.808     c-5.547,2.509-11.324,4.702-17.152,6.536c-0.853,0.265-1.715,0.393-2.56,0.393c-3.635,0-6.997-2.338-8.141-5.982     c-1.408-4.497,1.092-9.284,5.581-10.701c5.197-1.621,10.317-3.575,15.249-5.803c4.292-1.954,9.353-0.017,11.29,4.267     C393.481,320.811,391.569,325.871,387.277,327.808z M402.304,65.195c2.756-3.823,8.09-4.668,11.921-1.894     c4.932,3.567,9.702,7.484,14.191,11.631c3.456,3.2,3.669,8.602,0.469,12.058c-1.681,1.818-3.968,2.739-6.263,2.739     c-2.074,0-4.147-0.751-5.794-2.261c-3.985-3.695-8.226-7.177-12.621-10.351C400.393,74.351,399.539,69.009,402.304,65.195z      M438.724,290.065c-4.087,4.557-8.457,8.909-13.03,12.928c-1.621,1.425-3.627,2.125-5.641,2.125c-2.355,0-4.71-0.973-6.4-2.884     c-3.115-3.541-2.773-8.934,0.759-12.049c4.062-3.576,7.962-7.45,11.597-11.503c3.149-3.507,8.559-3.797,12.049-0.666     C441.566,281.165,441.865,286.558,438.724,290.065z M445.38,107.52c4.079-2.372,9.293-0.998,11.674,3.072     c3.106,5.325,5.888,10.837,8.277,16.384c1.86,4.335-0.145,9.353-4.463,11.213c-1.101,0.478-2.244,0.7-3.379,0.7     c-3.302,0-6.451-1.929-7.842-5.163c-2.116-4.924-4.582-9.813-7.339-14.541C439.936,115.115,441.318,109.892,445.38,107.52z      M470.519,234.709c-1.869,5.811-4.113,11.563-6.673,17.118c-1.442,3.123-4.523,4.966-7.757,4.966     c-1.195,0-2.406-0.256-3.558-0.785c-4.284-1.971-6.161-7.04-4.181-11.324c2.27-4.932,4.267-10.044,5.922-15.206     c1.451-4.48,6.263-6.955,10.743-5.504C469.495,225.417,471.962,230.229,470.519,234.709z M469.325,197.982h-0.128     c-4.719-0.068-8.474-3.942-8.405-8.653l0.008-1.596c0-4.898-0.273-9.839-0.785-14.686c-0.503-4.685,2.884-8.9,7.578-9.395     c4.745-0.469,8.892,2.893,9.387,7.569c0.589,5.453,0.888,11.008,0.888,16.512l-0.009,1.843     C477.79,194.244,473.984,197.982,469.325,197.982z"/>
			<path d="M196.265,334.371v48.06c9.907-3.541,17.067-12.919,17.067-24.03S206.172,337.912,196.265,334.371z"/>
		</g>
	</g>
</g>
<g>
</g>
<g>
</g>
<g>
</g>
<g>
</g>
<g>
</g>
<g>
</g>
<g>
</g>
<g>
</g>
<g>
</g>
<g>
</g>
<g>
</g>
<g>
</g>
<g>
</g>
<g>
</g>
<g>
</g>
</svg>
