<?xml version="1.0" encoding="iso-8859-1"?>
<!-- Generator: Adobe Illustrator 19.0.0, SVG Export Plug-In . SVG Version: 6.00 Build 0)  -->
<svg xmlns="http://www.w3.org/2000/svg" xmlns:xlink="http://www.w3.org/1999/xlink" version="1.1" id="Layer_1" x="0px" y="0px" viewBox="0 0 512 512" style="enable-background:new 0 0 512 512;" xml:space="preserve">
<g>
	<g>
		<g>
			<rect x="273.067" y="281.6" width="17.067" height="93.867"/>
			<polygon points="358.4,5 358.4,102.399 455.8,102.399    "/>
			<rect x="187.733" y="324.267" width="17.067" height="51.2"/>
			<rect x="358.4" y="238.933" width="17.067" height="136.533"/>
			<path d="M349.867,119.467c-4.719,0-8.533-3.814-8.533-8.533V0h-281.6C55.014,0,51.2,3.814,51.2,8.533v494.933     c0,4.719,3.814,8.533,8.533,8.533h392.533c4.719,0,8.533-3.814,8.533-8.533v-384H349.867z M165.743,266.095l127.428-89.95     l-20.924-3.499c-4.651-0.768-7.791-5.171-7.014-9.813c0.768-4.651,5.171-7.859,9.813-7.014l39.049,6.502     c3.2-0.614,6.605,0.597,8.61,3.422c1.374,1.937,1.809,4.25,1.425,6.409c-0.017,0.162,0.043,0.324,0.017,0.495l-7.014,42.086     c-0.691,4.173-4.309,7.134-8.405,7.134c-0.469,0-0.939-0.034-1.408-0.12c-4.651-0.768-7.791-5.171-7.023-9.813l3.772-22.588     L175.59,280.038c-1.502,1.05-3.217,1.562-4.915,1.562c-2.679,0-5.316-1.254-6.98-3.61     C160.973,274.133,161.894,268.817,165.743,266.095z M418.133,392.533H384h-34.133h-51.2h-34.133h-51.2H179.2h-42.667v25.6     c0,4.719-3.814,8.533-8.533,8.533c-4.719,0-8.533-3.814-8.533-8.533v-25.6h-25.6c-4.719,0-8.533-3.814-8.533-8.533     c0-4.719,3.814-8.533,8.533-8.533h25.6V128c0-4.719,3.814-8.533,8.533-8.533c4.719,0,8.533,3.814,8.533,8.533v247.467h34.133     v-59.733c0-4.719,3.814-8.533,8.533-8.533h34.133c4.719,0,8.533,3.814,8.533,8.533v59.733H256v-102.4     c0-4.719,3.814-8.533,8.533-8.533h34.133c4.719,0,8.533,3.814,8.533,8.533v102.4h34.133V230.4c0-4.719,3.814-8.533,8.533-8.533     H384c4.719,0,8.533,3.814,8.533,8.533v145.067h25.6c4.719,0,8.533,3.814,8.533,8.533     C426.667,388.719,422.852,392.533,418.133,392.533z"/>
		</g>
	</g>
</g>
<g>
</g>
<g>
</g>
<g>
</g>
<g>
</g>
<g>
</g>
<g>
</g>
<g>
</g>
<g>
</g>
<g>
</g>
<g>
</g>
<g>
</g>
<g>
</g>
<g>
</g>
<g>
</g>
<g>
</g>
</svg>
