<?xml version="1.0" encoding="iso-8859-1"?>
<!-- Generator: Adobe Illustrator 19.0.0, SVG Export Plug-In . SVG Version: 6.00 Build 0)  -->
<svg xmlns="http://www.w3.org/2000/svg" xmlns:xlink="http://www.w3.org/1999/xlink" version="1.1" id="Layer_1" x="0px" y="0px" viewBox="0 0 512 512" style="enable-background:new 0 0 512 512;" xml:space="preserve">
<g>
	<g>
		<g>
			<rect x="349.867" y="221.867" width="51.2" height="17.067"/>
			<rect x="298.667" y="221.867" width="34.133" height="17.067"/>
			<polygon points="418.133,358.4 418.133,375.467 452.284,375.467 452.267,358.4    "/>
			<rect x="298.667" y="290.133" width="34.133" height="17.067"/>
			<polygon points="418.133,290.133 418.133,307.2 452.284,307.2 452.267,290.133    "/>
			<polygon points="418.133,221.867 418.133,238.933 452.284,238.933 452.267,221.867    "/>
			<rect x="349.867" y="290.133" width="51.2" height="17.067"/>
			<rect x="298.667" y="358.4" width="34.133" height="17.067"/>
			<path d="M426.667,102.4h-102.4c-14.114,0-25.6,11.486-25.6,25.6v17.067c0,14.114,11.486,25.6,25.6,25.6h102.4     c14.114,0,25.6-11.486,25.6-25.6V128C452.267,113.886,440.781,102.4,426.667,102.4z M358.4,145.067h-17.067     c-4.71,0-8.533-3.814-8.533-8.533s3.823-8.533,8.533-8.533H358.4c4.71,0,8.533,3.814,8.533,8.533S363.11,145.067,358.4,145.067z      M409.6,145.067h-17.067c-4.71,0-8.533-3.814-8.533-8.533s3.823-8.533,8.533-8.533H409.6c4.719,0,8.533,3.814,8.533,8.533     S414.319,145.067,409.6,145.067z"/>
			<path d="M486.4,42.667H179.2V25.6c0-14.114-11.486-25.6-25.6-25.6H68.267c-14.114,0-25.6,11.486-25.6,25.6v17.067H25.6     c-14.114,0-25.6,11.486-25.6,25.6V409.6c0,14.114,11.486,25.6,25.6,25.6h17.067v17.067c0,14.114,11.486,25.6,25.6,25.6h34.995     C107.23,497.314,124.459,512,145.067,512c0.401,0,0.811-0.026,1.203-0.085l41.796-5.965c13.662-1.954,26.052-8.875,34.893-19.473     l20.139-24.166c6.477-7.774,10.607-17.195,12.151-27.11H486.4c14.114,0,25.6-11.486,25.6-25.6V68.267     C512,54.153,500.514,42.667,486.4,42.667z M68.267,460.8c-4.702,0-8.533-3.823-8.533-8.533v-25.6V51.2V25.6     c0-4.71,3.831-8.533,8.533-8.533H153.6c4.702,0,8.533,3.823,8.533,8.533v25.6v375.467v25.6c0,4.71-3.831,8.533-8.533,8.533     H68.267z M229.99,451.379l-20.139,24.175c-6.127,7.347-14.729,12.143-24.201,13.5l-41.148,5.871     c-10.863-0.23-20.002-7.313-23.467-17.058H153.6c14.114,0,25.6-11.486,25.6-25.6V435.2h58.658     C236.51,441.097,233.899,446.686,229.99,451.379z M469.333,375.467c0,9.412-7.654,17.067-17.067,17.067h-153.6     c-9.412,0-17.067-7.654-17.067-17.067V358.4c0-9.412,7.654-17.067,17.067-17.067h153.6c9.412,0,17.067,7.654,17.067,17.067     V375.467z M469.333,307.2c0,9.412-7.654,17.067-17.067,17.067h-153.6c-9.412,0-17.067-7.654-17.067-17.067v-17.067     c0-9.412,7.654-17.067,17.067-17.067h153.6c9.412,0,17.067,7.654,17.067,17.067V307.2z M469.333,238.933     c0,9.412-7.654,17.067-17.067,17.067h-153.6c-9.412,0-17.067-7.654-17.067-17.067v-17.067c0-9.412,7.654-17.067,17.067-17.067     h153.6c9.412,0,17.067,7.654,17.067,17.067V238.933z M469.333,145.067c0,23.526-19.14,42.667-42.667,42.667h-102.4     c-23.526,0-42.667-19.14-42.667-42.667V128c0-23.526,19.14-42.667,42.667-42.667h102.4c23.526,0,42.667,19.14,42.667,42.667     V145.067z"/>
			<rect x="349.867" y="358.4" width="51.2" height="17.067"/>
		</g>
	</g>
</g>
<g>
</g>
<g>
</g>
<g>
</g>
<g>
</g>
<g>
</g>
<g>
</g>
<g>
</g>
<g>
</g>
<g>
</g>
<g>
</g>
<g>
</g>
<g>
</g>
<g>
</g>
<g>
</g>
<g>
</g>
</svg>
