<?xml version="1.0" encoding="iso-8859-1"?>
<!-- Generator: Adobe Illustrator 19.0.0, SVG Export Plug-In . SVG Version: 6.00 Build 0)  -->
<svg xmlns="http://www.w3.org/2000/svg" xmlns:xlink="http://www.w3.org/1999/xlink" version="1.1" id="Layer_1" x="0px" y="0px" viewBox="0 0 512 512" style="enable-background:new 0 0 512 512;" xml:space="preserve">
<g>
	<g>
		<g>
			<polygon points="366.933,307.2 366.933,324.267 384.009,324.267 384,307.2    "/>
			<polygon points="366.933,375.467 366.933,392.533 384.009,392.533 384,375.467    "/>
			<polygon points="366.933,238.933 366.933,256 384.009,256 384,238.933    "/>
			<polygon points="298.667,375.467 298.667,392.533 315.742,392.533 315.733,375.467    "/>
			<polygon points="298.667,307.2 298.667,324.267 315.742,324.267 315.733,307.2    "/>
			<polygon points="435.2,375.467 435.2,392.533 452.275,392.533 452.267,375.467    "/>
			<polygon points="298.667,238.933 298.667,256 315.742,256 315.733,238.933    "/>
			<path d="M486.4,59.733H174.174c-10.155-24.986-34.654-42.667-63.241-42.667S57.847,34.748,47.693,59.733H25.6     c-14.114,0-25.6,11.486-25.6,25.6v341.333c0,14.114,11.486,25.6,25.6,25.6h22.093c10.155,24.986,34.654,42.667,63.241,42.667     s53.086-17.681,63.241-42.667H486.4c14.114,0,25.6-11.486,25.6-25.6V85.333C512,71.219,500.514,59.733,486.4,59.733z      M162.133,426.667c0,2.253-0.188,4.489-0.495,6.733c-0.06,0.452-0.137,0.913-0.213,1.357c-0.35,2.185-0.802,4.361-1.434,6.502     c-6.306,21.137-25.899,36.608-49.058,36.608s-42.752-15.471-49.058-36.608c-0.631-2.142-1.084-4.318-1.434-6.502     c-0.077-0.444-0.154-0.905-0.213-1.357c-0.307-2.244-0.495-4.48-0.495-6.733V85.333c0-2.253,0.188-4.489,0.495-6.733     c0.06-0.452,0.137-0.913,0.213-1.357c0.35-2.185,0.802-4.361,1.434-6.502c6.306-21.137,25.899-36.608,49.058-36.608     s42.752,15.471,49.058,36.608c0.631,2.142,1.084,4.318,1.434,6.502c0.077,0.444,0.154,0.905,0.213,1.357     c0.307,2.244,0.495,4.48,0.495,6.733V426.667z M332.8,392.533c0,9.412-7.654,17.067-17.067,17.067h-17.067     c-9.412,0-17.067-7.654-17.067-17.067v-17.067c0-9.412,7.654-17.067,17.067-17.067h17.067c9.412,0,17.067,7.654,17.067,17.067     V392.533z M332.8,324.267c0,9.412-7.654,17.067-17.067,17.067h-17.067c-9.412,0-17.067-7.654-17.067-17.067V307.2     c0-9.412,7.654-17.067,17.067-17.067h17.067c9.412,0,17.067,7.654,17.067,17.067V324.267z M332.8,256     c0,9.412-7.654,17.067-17.067,17.067h-17.067c-9.412,0-17.067-7.654-17.067-17.067v-17.067c0-9.412,7.654-17.067,17.067-17.067     h17.067c9.412,0,17.067,7.654,17.067,17.067V256z M401.067,392.533c0,9.412-7.654,17.067-17.067,17.067h-17.067     c-9.412,0-17.067-7.654-17.067-17.067v-17.067c0-9.412,7.654-17.067,17.067-17.067H384c9.412,0,17.067,7.654,17.067,17.067     V392.533z M401.067,324.267c0,9.412-7.654,17.067-17.067,17.067h-17.067c-9.412,0-17.067-7.654-17.067-17.067V307.2     c0-9.412,7.654-17.067,17.067-17.067H384c9.412,0,17.067,7.654,17.067,17.067V324.267z M401.067,256     c0,9.412-7.654,17.067-17.067,17.067h-17.067c-9.412,0-17.067-7.654-17.067-17.067v-17.067c0-9.412,7.654-17.067,17.067-17.067     H384c9.412,0,17.067,7.654,17.067,17.067V256z M469.333,392.533c0,9.412-7.654,17.067-17.067,17.067H435.2     c-9.412,0-17.067-7.654-17.067-17.067v-17.067c0-9.412,7.654-17.067,17.067-17.067h17.067c9.412,0,17.067,7.654,17.067,17.067     V392.533z M469.333,324.267c0,9.412-7.654,17.067-17.067,17.067H435.2c-9.412,0-17.067-7.654-17.067-17.067V307.2     c0-9.412,7.654-17.067,17.067-17.067h17.067c9.412,0,17.067,7.654,17.067,17.067V324.267z M469.333,256     c0,9.412-7.654,17.067-17.067,17.067H435.2c-9.412,0-17.067-7.654-17.067-17.067v-17.067c0-9.412,7.654-17.067,17.067-17.067     h17.067c9.412,0,17.067,7.654,17.067,17.067V256z M469.333,196.267c0,4.719-3.823,8.533-8.533,8.533H290.133     c-4.71,0-8.533-3.814-8.533-8.533v-85.333c0-4.719,3.823-8.533,8.533-8.533H460.8c4.71,0,8.533,3.814,8.533,8.533V196.267z"/>
			<rect x="298.667" y="119.467" width="153.6" height="68.267"/>
			<polygon points="435.2,238.933 435.2,256 452.275,256 452.267,238.933    "/>
			<polygon points="435.2,307.2 435.2,324.267 452.275,324.267 452.267,307.2    "/>
		</g>
	</g>
</g>
<g>
</g>
<g>
</g>
<g>
</g>
<g>
</g>
<g>
</g>
<g>
</g>
<g>
</g>
<g>
</g>
<g>
</g>
<g>
</g>
<g>
</g>
<g>
</g>
<g>
</g>
<g>
</g>
<g>
</g>
</svg>
