<?xml version="1.0" encoding="iso-8859-1"?>
<!-- Generator: Adobe Illustrator 19.0.0, SVG Export Plug-In . SVG Version: 6.00 Build 0)  -->
<svg xmlns="http://www.w3.org/2000/svg" xmlns:xlink="http://www.w3.org/1999/xlink" version="1.1" id="Layer_1" x="0px" y="0px" viewBox="0 0 512.001 512.001" style="enable-background:new 0 0 512.001 512.001;" xml:space="preserve">
<g>
	<g>
		<g>
			<path d="M0,362.677c0,21.171,17.22,38.391,38.383,38.391h152.371c1.212,14.95-5.274,29.705-17.263,38.161l-15.369,10.837     c-1.254,0.87-2.176,2.022-2.927,3.277c-10.726,3.046-18.662,12.826-18.662,24.525c0,14.114,11.486,25.6,25.6,25.6h187.733     c14.114,0,25.6-11.486,25.6-25.6c0-11.699-7.936-21.478-18.662-24.525c-0.742-1.237-1.647-2.372-2.876-3.251l-15.394-10.846     c-11.998-8.457-18.492-23.219-17.28-38.178h152.363c21.163,0,38.383-17.22,38.383-38.391v-29.875H0V362.677z M256,349.868     c4.719,0,8.533,3.823,8.533,8.533s-3.814,8.533-8.533,8.533s-8.533-3.823-8.533-8.533S251.281,349.868,256,349.868z      M304.145,401.085c-1.135,19.874,7.526,39.398,23.279,51.183H184.585c15.753-11.785,24.422-31.317,23.279-51.2L304.145,401.085z"/>
			<path d="M391.452,72.615l-60.544,75.682l94.515,21.487c0.828-5.461,1.246-10.871,1.246-16.179     C426.669,122.654,413.929,93.59,391.452,72.615z"/>
			<path d="M473.618,8.533H38.384c-21.171,0-38.383,17.22-38.383,38.391v268.809h512V46.924     C512.001,25.753,494.781,8.533,473.618,8.533z M389.283,199.014c-13.286,58.675-64.58,99.652-124.749,99.652     c-70.588,0-128-57.421-128-128s57.412-128,128-128c29.363,0,56.994,9.702,79.889,28.058c0.683,0.546,1.289,1.195,1.766,1.929     l0.034,0.051c2.057,3.089,1.886,7.159-0.435,10.061l-66.082,82.603l103.142,23.441     C387.44,189.849,390.324,194.414,389.283,199.014z M440.483,181.947c-0.503,2.21-1.86,4.122-3.772,5.333     c-1.382,0.862-2.953,1.314-4.557,1.314c-0.631,0-1.263-0.068-1.886-0.213L313.84,161.92c-2.867-0.648-5.188-2.731-6.161-5.504     c-0.973-2.773-0.444-5.854,1.391-8.141l74.59-93.235c1.417-1.775,3.473-2.901,5.726-3.157c2.304-0.23,4.514,0.418,6.272,1.826     c30.549,24.474,48.077,60.885,48.077,99.891C443.734,162.901,442.642,172.433,440.483,181.947z"/>
			<path d="M256.475,173.485c-0.964-2.773-0.444-5.854,1.391-8.149l69.086-86.34c-18.406-12.629-39.817-19.26-62.421-19.26     c-61.167,0-110.933,49.758-110.933,110.933c0,61.167,49.766,110.933,110.933,110.933c49.28,0,91.682-31.718,105.907-78.114     l-107.793-24.499C259.778,178.34,257.448,176.258,256.475,173.485z"/>
		</g>
	</g>
</g>
<g>
</g>
<g>
</g>
<g>
</g>
<g>
</g>
<g>
</g>
<g>
</g>
<g>
</g>
<g>
</g>
<g>
</g>
<g>
</g>
<g>
</g>
<g>
</g>
<g>
</g>
<g>
</g>
<g>
</g>
</svg>
