<?xml version="1.0" encoding="iso-8859-1"?>
<!-- Generator: Adobe Illustrator 19.0.0, SVG Export Plug-In . SVG Version: 6.00 Build 0)  -->
<svg xmlns="http://www.w3.org/2000/svg" xmlns:xlink="http://www.w3.org/1999/xlink" version="1.1" id="Layer_1" x="0px" y="0px" viewBox="0 0 512 512" style="enable-background:new 0 0 512 512;" xml:space="preserve">
<g>
	<g>
		<g>
			<path d="M473.617,8.533H38.383C17.22,8.533,0,25.754,0,46.925v268.809h512V46.925C512,25.754,494.78,8.533,473.617,8.533z      M190.234,207.3l25.6-25.6c2.756-2.782,7.066-3.294,10.428-1.28l36.395,21.837l37.982-45.585c1.63-1.946,4.028-3.072,6.562-3.072     h47.198l24.636-29.559l-18.961,3.789c-4.668,0.922-9.114-2.074-10.035-6.69c-0.93-4.617,2.074-9.114,6.69-10.035l42.667-8.533     c0.137-0.026,0.273,0.026,0.418,0.009c0.811-0.128,1.613-0.06,2.44,0.06c0.358,0.051,0.717,0.009,1.067,0.111     c0.973,0.265,1.886,0.751,2.748,1.382c0.128,0.085,0.29,0.102,0.41,0.205c0.009,0.009,0.009,0.017,0.017,0.017     c0.017,0.009,0.034,0.017,0.043,0.026c0.947,0.794,1.655,1.758,2.167,2.807c0.128,0.256,0.137,0.555,0.239,0.828     c0.307,0.836,0.538,1.681,0.58,2.577c0,0.12,0.077,0.222,0.077,0.341V153.6c0,4.71-3.814,8.533-8.533,8.533     c-4.719,0-8.533-3.823-8.533-8.533v-19.098l-27.571,33.092c-1.63,1.946-4.028,3.072-6.562,3.072h-47.198l-40.107,48.128     c-1.681,2.005-4.104,3.072-6.571,3.072c-1.502,0-3.012-0.393-4.386-1.22l-36.949-22.17l-20.89,20.89     c-3.337,3.337-8.73,3.337-12.066,0C186.897,216.03,186.897,210.637,190.234,207.3z M409.6,256H170.667v17.067     c0,4.71-3.814,8.533-8.533,8.533s-8.533-3.823-8.533-8.533V256h-17.067c-4.719,0-8.533-3.823-8.533-8.533     s3.814-8.533,8.533-8.533H153.6v-179.2c0-4.71,3.814-8.533,8.533-8.533s8.533,3.823,8.533,8.533v179.2H409.6     c4.719,0,8.533,3.823,8.533,8.533S414.319,256,409.6,256z"/>
			<path d="M0,362.675c0,21.171,17.22,38.391,38.383,38.391h152.371c1.212,14.95-5.274,29.705-17.263,38.161l-15.369,10.837     c-1.254,0.87-2.176,2.022-2.927,3.277c-10.726,3.046-18.662,12.826-18.662,24.525c0,14.114,11.486,25.6,25.6,25.6h187.733     c14.114,0,25.6-11.486,25.6-25.6c0-11.699-7.936-21.478-18.662-24.525c-0.742-1.237-1.647-2.372-2.876-3.251l-15.394-10.846     c-11.998-8.457-18.492-23.219-17.28-38.178h152.363c21.163,0,38.383-17.22,38.383-38.391V332.8H0V362.675z M256,349.867     c4.719,0,8.533,3.823,8.533,8.533s-3.814,8.533-8.533,8.533s-8.533-3.823-8.533-8.533S251.281,349.867,256,349.867z      M304.145,401.084c-1.135,19.874,7.526,39.398,23.279,51.183H184.585c15.753-11.785,24.422-31.317,23.279-51.2L304.145,401.084z"/>
		</g>
	</g>
</g>
<g>
</g>
<g>
</g>
<g>
</g>
<g>
</g>
<g>
</g>
<g>
</g>
<g>
</g>
<g>
</g>
<g>
</g>
<g>
</g>
<g>
</g>
<g>
</g>
<g>
</g>
<g>
</g>
<g>
</g>
</svg>
