<?xml version="1.0" encoding="iso-8859-1"?>
<!-- Generator: Adobe Illustrator 19.0.0, SVG Export Plug-In . SVG Version: 6.00 Build 0)  -->
<svg xmlns="http://www.w3.org/2000/svg" xmlns:xlink="http://www.w3.org/1999/xlink" version="1.1" id="Layer_1" x="0px" y="0px" viewBox="0 0 512 512" style="enable-background:new 0 0 512 512;" xml:space="preserve">
<g>
	<g>
		<g>
			<path d="M256,185.358c5.077-2.961,8.533-8.405,8.533-14.694c0-6.281-3.456-11.733-8.533-14.686V185.358z"/>
			<path d="M230.4,119.466c0,6.289,3.456,11.733,8.533,14.694v-29.389C233.856,107.732,230.4,113.177,230.4,119.466z"/>
			<path d="M247.467,59.732c-47.053,0-85.333,38.281-85.333,85.333s38.281,85.333,85.333,85.333s85.333-38.281,85.333-85.333     S294.519,59.732,247.467,59.732z M281.6,170.666c0,15.855-10.914,29.107-25.6,32.922v1.212c0,4.71-3.814,8.533-8.533,8.533     s-8.533-3.823-8.533-8.533v-1.212c-14.686-3.814-25.6-17.067-25.6-32.922c0-4.71,3.814-8.533,8.533-8.533     s8.533,3.823,8.533,8.533c0,6.289,3.456,11.733,8.533,14.694v-32.973c-14.686-3.814-25.6-17.067-25.6-32.922     s10.914-29.107,25.6-32.922v-1.212c0-4.71,3.814-8.533,8.533-8.533S256,80.622,256,85.332v1.212     c14.686,3.814,25.6,17.067,25.6,32.922c0,4.71-3.814,8.533-8.533,8.533s-8.533-3.823-8.533-8.533     c0-6.289-3.456-11.733-8.533-14.694v32.973C270.686,141.559,281.6,154.811,281.6,170.666z"/>
			<path d="M473.617,8.534H38.383C17.22,8.534,0,25.754,0,46.917v268.817h512V46.917C512,25.754,494.78,8.534,473.617,8.534z      M415.983,295.749c-1.681,1.903-4.036,2.876-6.383,2.876c-2.014,0-4.036-0.708-5.658-2.15l-86.622-76.749     c-18.313,17.152-42.846,27.742-69.854,27.742c-56.465,0-102.4-45.943-102.4-102.4c0-56.465,45.935-102.4,102.4-102.4     s102.4,45.935,102.4,102.4c0,23.313-7.927,44.766-21.103,62.003l86.494,76.629C418.782,286.832,419.106,292.225,415.983,295.749z     "/>
			<path d="M0,362.674c0,21.171,17.22,38.391,38.383,38.391h152.371c1.212,14.95-5.274,29.705-17.263,38.161l-15.369,10.837     c-1.254,0.87-2.176,2.022-2.927,3.277c-10.726,3.046-18.662,12.826-18.662,24.525c0,14.114,11.486,25.6,25.6,25.6h187.733     c14.114,0,25.6-11.486,25.6-25.6c0-11.699-7.936-21.478-18.662-24.525c-0.742-1.237-1.647-2.372-2.876-3.251l-15.394-10.846     c-11.998-8.457-18.492-23.219-17.28-38.178h152.363c21.163,0,38.383-17.22,38.383-38.391v-29.875H0V362.674z M256,349.866     c4.719,0,8.533,3.823,8.533,8.533s-3.814,8.533-8.533,8.533s-8.533-3.823-8.533-8.533S251.281,349.866,256,349.866z      M304.145,401.083c-1.135,19.874,7.526,39.398,23.279,51.183H184.585c15.753-11.785,24.422-31.317,23.279-51.2L304.145,401.083z"/>
		</g>
	</g>
</g>
<g>
</g>
<g>
</g>
<g>
</g>
<g>
</g>
<g>
</g>
<g>
</g>
<g>
</g>
<g>
</g>
<g>
</g>
<g>
</g>
<g>
</g>
<g>
</g>
<g>
</g>
<g>
</g>
<g>
</g>
</svg>
