<?xml version="1.0" encoding="iso-8859-1"?>
<!-- Generator: Adobe Illustrator 19.0.0, SVG Export Plug-In . SVG Version: 6.00 Build 0)  -->
<svg xmlns="http://www.w3.org/2000/svg" xmlns:xlink="http://www.w3.org/1999/xlink" version="1.1" id="Layer_1" x="0px" y="0px" viewBox="0 0 512.005 512.005" style="enable-background:new 0 0 512.005 512.005;" xml:space="preserve">
<g>
	<g>
		<g>
			<path d="M451.115,213.343c-3.302,0.222-5.948,2.347-7.177,5.188l-19.763-19.763c-3.336-3.337-8.738-3.337-12.066,0     c-3.336,3.336-3.336,8.73,0,12.066l34.125,34.125c0.794,0.794,1.732,1.417,2.782,1.852c1.041,0.435,2.15,0.657,3.26,0.657     c1.109,0,2.219-0.222,3.26-0.657c1.05-0.435,1.988-1.058,2.782-1.852l34.125-34.125c3.328-3.337,3.328-8.73,0-12.066     c-3.336-3.337-8.738-3.337-12.066,0l-20.651,20.651C458.624,215.732,455.305,213.121,451.115,213.343z"/>
			<path d="M417.064,134.321c3.081,5.248,5.939,10.752,8.499,16.358c1.434,3.149,4.531,4.992,7.774,4.992     c1.186,0,2.389-0.239,3.533-0.768c4.292-1.954,6.178-7.014,4.224-11.307c-2.807-6.144-5.939-12.169-9.31-17.92     c-2.398-4.062-7.62-5.419-11.691-3.038C416.04,125.029,414.683,130.26,417.064,134.321z"/>
			<path d="M435.189,176.689c1.707,5.888,3.183,11.964,4.378,18.048c0.794,4.062,4.361,6.886,8.363,6.886     c0.546,0,1.101-0.051,1.655-0.162c4.625-0.905,7.637-5.393,6.733-10.018c-1.297-6.579-2.884-13.141-4.745-19.516     c-1.314-4.523-6.007-7.125-10.573-5.811C436.469,167.43,433.875,172.166,435.189,176.689z"/>
			<path d="M351.614,71.559c5.419,2.842,10.718,6.007,15.753,9.421c1.468,0.99,3.123,1.468,4.77,1.468     c2.739,0,5.427-1.314,7.074-3.746c2.645-3.9,1.63-9.207-2.278-11.853c-5.555-3.763-11.401-7.262-17.382-10.402     c-4.19-2.193-9.344-0.572-11.529,3.584C345.829,64.212,347.442,69.366,351.614,71.559z"/>
			<path d="M308.456,55.872c6.05,1.348,12.032,3.004,17.775,4.907c0.896,0.299,1.8,0.444,2.688,0.444     c3.576,0,6.912-2.27,8.107-5.845c1.476-4.471-0.939-9.301-5.41-10.786c-6.289-2.099-12.834-3.9-19.456-5.376     c-4.514-0.998-9.156,1.877-10.189,6.477C300.955,50.291,303.848,54.848,308.456,55.872z"/>
			<path d="M401.223,111.722c1.69,2.031,4.122,3.081,6.579,3.081c1.911,0,3.849-0.64,5.436-1.971     c3.627-3.004,4.13-8.388,1.118-12.015c-4.301-5.171-8.943-10.163-13.798-14.839c-3.405-3.26-8.798-3.166-12.066,0.23     c-3.268,3.396-3.166,8.806,0.23,12.066C393.125,102.506,397.332,107.037,401.223,111.722z"/>
			<path d="M264.539,51.201c5.547,0,11.076,0.205,16.427,0.623c0.222,0.017,0.452,0.026,0.666,0.026c4.42,0,8.149-3.396,8.499-7.876     c0.367-4.693-3.149-8.798-7.851-9.165c-5.786-0.444-11.75-0.674-17.741-0.674c-4.719,0-8.533,3.823-8.533,8.533     C256.006,47.378,259.82,51.201,264.539,51.201z"/>
			<path d="M60.789,326.205c-1.92-5.743-3.567-11.725-4.907-17.775c-1.016-4.608-5.589-7.535-10.189-6.485     c-4.599,1.024-7.492,5.581-6.477,10.18c1.476,6.622,3.277,13.176,5.376,19.473c1.186,3.576,4.523,5.837,8.098,5.837     c0.887,0,1.801-0.137,2.697-0.435C59.859,335.507,62.274,330.677,60.789,326.205z"/>
			<path d="M71.564,351.592c-2.202-4.173-7.339-5.786-11.529-3.584c-4.173,2.185-5.777,7.347-3.584,11.52     c3.157,6.007,6.656,11.853,10.411,17.391c1.655,2.432,4.335,3.746,7.066,3.746c1.655,0,3.319-0.478,4.787-1.476     c3.9-2.645,4.915-7.945,2.27-11.853C77.588,362.336,74.423,357.036,71.564,351.592z"/>
			<path d="M150.681,425.551c-5.606-2.56-11.11-5.419-16.358-8.499c-4.053-2.372-9.293-1.015-11.674,3.038     c-2.381,4.07-1.024,9.301,3.038,11.682c5.743,3.379,11.767,6.502,17.911,9.301c1.152,0.529,2.347,0.777,3.533,0.777     c3.243,0,6.34-1.852,7.774-4.992C156.859,432.565,154.973,427.505,150.681,425.551z"/>
			<path d="M194.714,439.551c-6.101-1.195-12.169-2.662-18.022-4.369c-4.54-1.348-9.267,1.289-10.581,5.803     c-1.314,4.523,1.289,9.259,5.811,10.581c6.34,1.852,12.911,3.439,19.507,4.736c0.563,0.111,1.109,0.154,1.655,0.154     c3.994,0,7.561-2.816,8.363-6.886C202.36,444.944,199.34,440.456,194.714,439.551z"/>
			<path d="M111.746,401.236c-4.685-3.891-9.207-8.09-13.44-12.493c-3.268-3.405-8.661-3.507-12.066-0.239     c-3.396,3.26-3.499,8.67-0.23,12.066c4.668,4.864,9.66,9.506,14.839,13.798c1.587,1.323,3.524,1.963,5.444,1.963     c2.458,0,4.89-1.05,6.571-3.081C115.876,409.624,115.372,404.239,111.746,401.236z"/>
			<path d="M238.939,443.734c-5.513,0-11.068-0.188-16.503-0.555c-4.804-0.265-8.772,3.234-9.096,7.927     c-0.316,4.702,3.234,8.772,7.936,9.097c5.82,0.401,11.767,0.597,17.664,0.597c4.719,0,8.533-3.823,8.533-8.533     C247.473,447.557,243.658,443.734,238.939,443.734z"/>
			<path d="M82.839,292.634L48.714,258.51c-0.794-0.794-1.732-1.417-2.782-1.852c-2.082-0.862-4.437-0.862-6.519,0     c-1.05,0.435-1.988,1.058-2.782,1.852L2.506,292.634c-3.336,3.337-3.336,8.73,0,12.066c1.664,1.664,3.849,2.5,6.033,2.5     c2.185,0,4.369-0.836,6.033-2.5l20.71-20.71c1.067,3.567,4.224,6.161,8.03,6.161c0.222,0,0.444-0.008,0.666-0.026     c3.26-0.256,5.845-2.355,7.066-5.146l19.729,19.721c1.664,1.664,3.849,2.5,6.033,2.5c2.185,0,4.369-0.836,6.033-2.5     C86.176,301.364,86.176,295.971,82.839,292.634z"/>
			<path d="M375.469,238.938c-75.281,0-136.533,61.244-136.533,136.533c0,75.281,61.252,136.533,136.533,136.533     c75.29,0,136.533-61.252,136.533-136.533C512.003,300.182,450.759,238.938,375.469,238.938z M383.072,281.52     c0.794-4.634,5.222-7.782,9.847-6.963c6.699,1.152,13.312,2.978,19.652,5.444c4.395,1.698,6.571,6.647,4.864,11.034     c-1.314,3.379-4.54,5.453-7.953,5.453c-1.032,0-2.074-0.188-3.098-0.58c-5.274-2.048-10.778-3.575-16.35-4.531     C385.385,290.574,382.27,286.162,383.072,281.52z M324.03,286.913c5.888-3.43,12.134-6.272,18.56-8.448     c4.471-1.502,9.31,0.879,10.82,5.333c1.51,4.463-0.879,9.31-5.342,10.82c-5.35,1.818-10.547,4.19-15.454,7.04     c-1.348,0.785-2.825,1.161-4.284,1.161c-2.944,0-5.803-1.519-7.381-4.241C318.578,294.499,319.951,289.277,324.03,286.913z      M290.23,415.749c-0.964,0.358-1.954,0.529-2.935,0.529c-3.482,0-6.75-2.15-8.013-5.606c-2.338-6.383-4.036-13.03-5.052-19.755     c-0.708-4.659,2.492-9.011,7.151-9.719c4.668-0.7,9.011,2.5,9.719,7.159c0.845,5.606,2.261,11.136,4.216,16.452     C296.928,409.238,294.659,414.136,290.23,415.749z M302.543,331.141c-2.944,4.847-5.419,9.993-7.347,15.309     c-1.254,3.473-4.531,5.632-8.021,5.632c-0.973,0-1.954-0.162-2.91-0.512c-4.429-1.604-6.716-6.494-5.12-10.931     c2.321-6.383,5.282-12.561,8.815-18.372c2.458-4.028,7.689-5.308,11.733-2.85C303.721,321.865,305.001,327.113,302.543,331.141z      M336.037,461.104c-1.579,2.739-4.446,4.267-7.398,4.267c-1.451,0-2.91-0.367-4.258-1.143     c-5.871-3.388-11.452-7.381-16.546-11.878c-3.541-3.106-3.883-8.499-0.776-12.041c3.123-3.55,8.525-3.874,12.041-0.776     c4.267,3.755,8.909,7.083,13.815,9.916C337.001,451.802,338.4,457.025,336.037,461.104z M393.347,476.31     c-5.854,1.032-11.878,1.562-17.877,1.562l-2.432-0.034c-4.71-0.102-8.439-4.011-8.337-8.721c0.102-4.642,3.908-8.337,8.533-8.337     h0.188l2.048,0.026c5.009,0,10.027-0.444,14.908-1.297c4.625-0.828,9.071,2.278,9.89,6.921     C401.086,471.071,397.989,475.5,393.347,476.31z M409.603,358.405c-4.71,0-8.533-3.823-8.533-8.533     c0-9.421-7.654-17.067-17.067-17.067c-0.776,0-1.562,0.051-2.321,0.154c-5.7,0.768-8.755,4.659-10.086,6.912     c-2.68,4.582-3.115,10.325-1.135,15.334c2.551,6.485,4.028,13.346,4.693,20.267h8.849c4.719,0,8.533,3.814,8.533,8.533     c0,4.71-3.814,8.533-8.533,8.533H375c-1.075,9.19-3.627,18.014-7.697,25.6h37.786c4.719,0,8.533,3.814,8.533,8.533     c0,4.71-3.814,8.533-8.533,8.533h-55.219c-3.584,0-6.784-2.244-8.013-5.606c-1.229-3.354-0.23-7.134,2.5-9.446     c6.562-5.555,11.511-15.838,13.338-27.614h-7.825c-4.71,0-8.533-3.823-8.533-8.533c0-4.719,3.823-8.533,8.533-8.533h8.09     c-0.589-4.71-1.579-9.429-3.379-14.003c-3.883-9.856-3.021-21.163,2.304-30.234c4.907-8.38,13.116-13.918,22.494-15.189     c1.51-0.205,3.063-0.307,4.625-0.307c18.825,0,34.133,15.309,34.133,34.133C418.136,354.582,414.322,358.405,409.603,358.405z      M453.959,441.255c-4.361,5.197-9.259,9.984-14.575,14.234c-1.579,1.263-3.465,1.877-5.325,1.877     c-2.509,0-4.983-1.101-6.682-3.209c-2.935-3.678-2.338-9.045,1.34-11.989c4.437-3.55,8.533-7.543,12.151-11.878     c3.038-3.601,8.414-4.079,12.032-1.05C456.502,432.27,456.98,437.646,453.959,441.255z M450.281,334.384     c-2.739-4.966-5.982-9.677-9.634-14.003c-3.038-3.593-2.594-8.977,1.007-12.023c3.601-3.038,8.977-2.577,12.023,1.007     c4.378,5.18,8.26,10.82,11.554,16.777c2.278,4.13,0.777,9.318-3.354,11.597c-1.306,0.717-2.722,1.058-4.113,1.058     C454.752,338.796,451.843,337.208,450.281,334.384z M475.864,395.738c-0.819,4.053-4.378,6.852-8.354,6.852     c-0.563,0-1.126-0.06-1.698-0.171c-4.617-0.93-7.603-5.427-6.682-10.052c1.109-5.521,1.673-11.204,1.673-16.896     c0-4.719,3.823-8.721,8.525-8.721c4.719,0,8.533,3.627,8.533,8.337h-8.533l8.533,0.06     C477.869,382.29,477.195,389.108,475.864,395.738z"/>
			<path d="M136.536,273.067c75.29,0,136.533-61.252,136.533-136.533S211.826,0,136.536,0C61.255,0,0.003,61.252,0.003,136.533     S61.255,273.067,136.536,273.067z M154.413,237.38c-5.854,1.033-11.878,1.553-17.877,1.553l-2.432-0.026     c-4.71-0.102-8.439-4.011-8.337-8.721c0.102-4.651,3.908-8.346,8.533-8.346c0.06,0,0.119,0,0.188,0.009l2.048,0.017     c5.009,0,10.027-0.435,14.908-1.297c4.634-0.819,9.071,2.287,9.89,6.929C162.153,232.141,159.055,236.561,154.413,237.38z      M238.927,136.158h-8.533l8.533,0.06c0.009,7.134-0.666,13.961-1.997,20.591c-0.819,4.045-4.378,6.844-8.354,6.844     c-0.563,0-1.126-0.051-1.698-0.162c-4.617-0.93-7.603-5.427-6.682-10.052c1.109-5.521,1.673-11.213,1.673-16.905     c0-4.71,3.823-8.721,8.525-8.721C235.113,127.812,238.927,131.439,238.927,136.158z M202.72,69.427     c3.601-3.055,8.977-2.586,12.023,1.007c4.378,5.171,8.26,10.82,11.554,16.777c2.278,4.122,0.777,9.318-3.354,11.588     c-1.306,0.725-2.722,1.067-4.113,1.067c-3.012,0-5.922-1.596-7.484-4.412c-2.739-4.975-5.982-9.685-9.634-14.003     C198.676,77.858,199.119,72.474,202.72,69.427z M189.784,203.238c4.437-3.55,8.533-7.552,12.151-11.878     c3.038-3.601,8.414-4.087,12.032-1.058c3.601,3.029,4.079,8.414,1.058,12.023c-4.361,5.188-9.259,9.984-14.575,14.234     c-1.579,1.263-3.465,1.869-5.325,1.869c-2.509,0-4.983-1.092-6.682-3.2C185.509,211.55,186.106,206.174,189.784,203.238z      M144.139,42.581c0.794-4.634,5.205-7.791,9.847-6.963c6.699,1.152,13.312,2.987,19.652,5.444     c4.395,1.707,6.571,6.648,4.864,11.042c-1.314,3.379-4.54,5.453-7.953,5.453c-1.033,0-2.074-0.188-3.098-0.589     c-5.274-2.048-10.778-3.576-16.35-4.531C146.452,51.644,143.337,47.232,144.139,42.581z M85.097,47.974     c5.888-3.43,12.134-6.272,18.56-8.448c4.471-1.493,9.31,0.879,10.82,5.342c1.51,4.463-0.879,9.31-5.342,10.82     c-5.35,1.818-10.547,4.181-15.454,7.04c-1.348,0.785-2.825,1.152-4.284,1.152c-2.944,0-5.803-1.51-7.381-4.241     C79.644,55.569,81.027,50.347,85.097,47.974z M85.327,136.533c0-2.893,0.213-5.734,0.521-8.533h-9.054     c-4.71,0-8.533-3.823-8.533-8.533s3.823-8.533,8.533-8.533h12.937c8.883-24.986,30.327-42.667,55.33-42.667     c14.967,0,29.286,6.34,40.311,17.843c3.26,3.405,3.14,8.806-0.265,12.066c-3.396,3.251-8.789,3.149-12.066-0.256     c-7.765-8.115-17.707-12.587-27.981-12.587c-15.744,0-29.5,10.325-36.89,25.6h11.29c4.719,0,8.533,3.823,8.533,8.533     S124.18,128,119.461,128h-16.418c-0.393,2.782-0.649,5.623-0.649,8.533c0,2.91,0.256,5.751,0.649,8.533h16.418     c4.719,0,8.533,3.823,8.533,8.533c0,4.71-3.814,8.533-8.533,8.533h-11.29c7.39,15.283,21.146,25.6,36.89,25.6     c10.274,0,20.215-4.471,27.981-12.578c3.268-3.413,8.67-3.524,12.066-0.265c3.405,3.26,3.524,8.653,0.265,12.058     c-11.025,11.511-25.336,17.852-40.311,17.852c-25.003,0-46.447-17.681-55.33-42.667H76.794c-4.71,0-8.533-3.823-8.533-8.533     c0-4.71,3.823-8.533,8.533-8.533h9.054C85.541,142.268,85.327,139.426,85.327,136.533z M68.124,201.37     c3.132-3.541,8.516-3.874,12.041-0.768c4.267,3.746,8.909,7.083,13.815,9.916c4.087,2.347,5.487,7.569,3.123,11.648     c-1.579,2.748-4.446,4.275-7.398,4.275c-1.451,0-2.91-0.367-4.258-1.143c-5.871-3.388-11.452-7.39-16.546-11.878     C65.359,210.304,65.018,204.911,68.124,201.37z M40.212,101.709c2.321-6.383,5.282-12.57,8.815-18.381     c2.458-4.019,7.689-5.308,11.733-2.85c4.028,2.449,5.308,7.706,2.85,11.725c-2.944,4.847-5.419,10.001-7.347,15.317     c-1.254,3.473-4.531,5.632-8.021,5.632c-0.973,0-1.954-0.171-2.91-0.512C40.903,111.027,38.616,106.138,40.212,101.709z      M42.447,142.268c4.668-0.7,9.011,2.492,9.719,7.159c0.845,5.598,2.261,11.136,4.216,16.452c1.613,4.42-0.657,9.318-5.086,10.94     c-0.964,0.35-1.954,0.521-2.935,0.521c-3.482,0-6.75-2.142-8.013-5.606c-2.338-6.374-4.036-13.022-5.052-19.746     C34.588,147.328,37.788,142.976,42.447,142.268z"/>
		</g>
	</g>
</g>
<g>
</g>
<g>
</g>
<g>
</g>
<g>
</g>
<g>
</g>
<g>
</g>
<g>
</g>
<g>
</g>
<g>
</g>
<g>
</g>
<g>
</g>
<g>
</g>
<g>
</g>
<g>
</g>
<g>
</g>
</svg>
