<?xml version="1.0" encoding="iso-8859-1"?>
<!-- Generator: Adobe Illustrator 19.0.0, SVG Export Plug-In . SVG Version: 6.00 Build 0)  -->
<svg xmlns="http://www.w3.org/2000/svg" xmlns:xlink="http://www.w3.org/1999/xlink" version="1.1" id="Layer_1" x="0px" y="0px" viewBox="0 0 512.213 512.213" style="enable-background:new 0 0 512.213 512.213;" xml:space="preserve">
<g>
	<g>
		<path d="M503.573,187.947c5.12,0,8.533-3.413,8.533-8.533V145.28c0-5.12-3.413-8.533-8.533-8.533H446.4L261.227,1.92    c-3.413-2.56-6.827-2.56-10.24,0L65.813,136.747H8.64c-5.12,0-8.533,3.413-8.533,8.533v34.133c0,5.12,3.413,8.533,8.533,8.533    h34.133V426.88H25.707c-5.12,0-8.533,3.413-8.533,8.533v25.6H8.64c-5.12,0-8.533,3.413-8.533,8.533v34.133    c0,5.12,3.413,8.533,8.533,8.533h494.933c5.12,0,8.533-3.413,8.533-8.533v-34.133c0-5.12-3.413-8.533-8.533-8.533h-8.533v-25.6    c0-5.12-3.413-8.533-8.533-8.533H469.44V187.947H503.573z M477.973,443.947v17.067H34.24v-17.067h17.067H85.44h59.733h34.133    h59.733h34.133h59.733h34.133h59.733h34.133H477.973z M93.973,426.88V187.947h42.667V426.88H93.973z M187.84,426.88V187.947    h42.667V426.88H187.84z M281.707,426.88V187.947h42.667V426.88H281.707z M375.573,426.88V187.947h42.667V426.88H375.573z     M460.907,170.88h-34.133H367.04h-34.133h-59.733H239.04h-59.733h-34.133H85.44H51.307H17.173v-17.067h51.2H443.84h51.2v17.067    H460.907z"/>
	</g>
</g>
<g>
</g>
<g>
</g>
<g>
</g>
<g>
</g>
<g>
</g>
<g>
</g>
<g>
</g>
<g>
</g>
<g>
</g>
<g>
</g>
<g>
</g>
<g>
</g>
<g>
</g>
<g>
</g>
<g>
</g>
</svg>
