<?xml version="1.0" encoding="iso-8859-1"?>
<!-- Generator: Adobe Illustrator 19.0.0, SVG Export Plug-In . SVG Version: 6.00 Build 0)  -->
<svg xmlns="http://www.w3.org/2000/svg" xmlns:xlink="http://www.w3.org/1999/xlink" version="1.1" id="Layer_1" x="0px" y="0px" viewBox="0 0 512 512" style="enable-background:new 0 0 512 512;" xml:space="preserve">
<g>
	<g>
		<rect x="290.133" y="358.4" width="17.067" height="17.067"/>
	</g>
</g>
<g>
	<g>
		<rect x="204.8" y="290.133" width="17.067" height="17.067"/>
	</g>
</g>
<g>
	<g>
		<rect x="204.8" y="221.867" width="17.067" height="17.067"/>
	</g>
</g>
<g>
	<g>
		<rect x="290.133" y="290.133" width="17.067" height="17.067"/>
	</g>
</g>
<g>
	<g>
		<rect x="204.8" y="358.4" width="17.067" height="17.067"/>
	</g>
</g>
<g>
	<g>
		<rect x="290.133" y="221.867" width="17.067" height="17.067"/>
	</g>
</g>
<g>
	<g>
		<rect x="230.4" y="435.2" width="51.2" height="76.8"/>
	</g>
</g>
<g>
	<g>
		<path d="M110.933,392.533h-51.2c-5.12,0-8.533,3.413-8.533,8.533v68.267c0,5.12,3.413,8.533,8.533,8.533h51.2    c5.12,0,8.533-3.413,8.533-8.533v-68.267C119.467,395.947,116.053,392.533,110.933,392.533z"/>
	</g>
</g>
<g>
	<g>
		<path d="M110.933,307.2h-51.2c-5.12,0-8.533,3.413-8.533,8.533v51.2c0,5.12,3.413,8.533,8.533,8.533h51.2    c5.12,0,8.533-3.413,8.533-8.533v-51.2C119.467,310.613,116.053,307.2,110.933,307.2z"/>
	</g>
</g>
<g>
	<g>
		<path d="M452.267,392.533h-51.2c-5.12,0-8.533,3.413-8.533,8.533v68.267c0,5.12,3.413,8.533,8.533,8.533h51.2    c5.12,0,8.533-3.413,8.533-8.533v-68.267C460.8,395.947,457.387,392.533,452.267,392.533z"/>
	</g>
</g>
<g>
	<g>
		<path d="M452.267,307.2h-51.2c-5.12,0-8.533,3.413-8.533,8.533v51.2c0,5.12,3.413,8.533,8.533,8.533h51.2    c5.12,0,8.533-3.413,8.533-8.533v-51.2C460.8,310.613,457.387,307.2,452.267,307.2z"/>
	</g>
</g>
<g>
	<g>
		<path d="M503.467,273.067h-8.533h-128V179.2h8.533c5.12,0,8.533-3.413,8.533-8.533s-3.413-8.533-8.533-8.533H358.4h-93.867v-17.92    c14.507-3.413,25.6-17.067,25.6-33.28s-11.093-29.013-25.6-33.28V45.227c5.12,2.56,8.533,8.533,8.533,14.507    c0,5.12,3.413,8.533,8.533,8.533s8.533-3.413,8.533-8.533c0-16.213-11.093-29.013-25.6-33.28V8.533C264.533,3.413,261.12,0,256,0    s-8.533,3.413-8.533,8.533v17.92c-14.507,3.413-25.6,17.067-25.6,33.28s11.093,29.013,25.6,33.28v33.28    c-5.12-2.56-8.533-8.533-8.533-14.507c0-5.12-3.413-8.533-8.533-8.533s-8.533,3.413-8.533,8.533    c0,16.213,11.093,29.013,25.6,33.28v17.067H153.6h-17.067c-5.12,0-8.533,3.413-8.533,8.533s3.413,8.533,8.533,8.533h8.533v93.867    h-128H8.533C3.413,273.067,0,276.48,0,281.6s3.413,8.533,8.533,8.533v213.333c0,5.12,3.413,8.533,8.533,8.533H153.6h59.733    v-85.333c0-5.12,3.413-8.533,8.533-8.533h68.267c5.12,0,8.533,3.413,8.533,8.533V512H358.4h136.533    c5.12,0,8.533-3.413,8.533-8.533V290.133c5.12,0,8.533-3.413,8.533-8.533S508.587,273.067,503.467,273.067z M264.533,96.427    c5.12,2.56,8.533,8.533,8.533,14.507s-3.413,11.947-8.533,14.507V96.427z M145.067,494.933H25.6v-204.8h119.467V494.933z     M238.933,375.467c0,9.387-7.68,17.067-17.067,17.067H204.8c-9.387,0-17.067-7.68-17.067-17.067V358.4    c0-9.387,7.68-17.067,17.067-17.067h17.067c9.387,0,17.067,7.68,17.067,17.067V375.467z M238.933,307.2    c0,9.387-7.68,17.067-17.067,17.067H204.8c-9.387,0-17.067-7.68-17.067-17.067v-17.067c0-9.387,7.68-17.067,17.067-17.067h17.067    c9.387,0,17.067,7.68,17.067,17.067V307.2z M238.933,238.933c0,9.387-7.68,17.067-17.067,17.067H204.8    c-9.387,0-17.067-7.68-17.067-17.067v-17.067c0-9.387,7.68-17.067,17.067-17.067h17.067c9.387,0,17.067,7.68,17.067,17.067    V238.933z M247.467,74.24c-5.12-2.56-8.533-8.533-8.533-14.507s3.413-11.947,8.533-14.507V74.24z M324.267,375.467    c0,9.387-7.68,17.067-17.067,17.067h-17.067c-9.387,0-17.067-7.68-17.067-17.067V358.4c0-9.387,7.68-17.067,17.067-17.067H307.2    c9.387,0,17.067,7.68,17.067,17.067V375.467z M324.267,307.2c0,9.387-7.68,17.067-17.067,17.067h-17.067    c-9.387,0-17.067-7.68-17.067-17.067v-17.067c0-9.387,7.68-17.067,17.067-17.067H307.2c9.387,0,17.067,7.68,17.067,17.067V307.2z     M324.267,238.933c0,9.387-7.68,17.067-17.067,17.067h-17.067c-9.387,0-17.067-7.68-17.067-17.067v-17.067    c0-9.387,7.68-17.067,17.067-17.067H307.2c9.387,0,17.067,7.68,17.067,17.067V238.933z M486.4,494.933H366.933v-204.8H486.4    V494.933z"/>
	</g>
</g>
<g>
</g>
<g>
</g>
<g>
</g>
<g>
</g>
<g>
</g>
<g>
</g>
<g>
</g>
<g>
</g>
<g>
</g>
<g>
</g>
<g>
</g>
<g>
</g>
<g>
</g>
<g>
</g>
<g>
</g>
</svg>
