<?xml version="1.0" encoding="iso-8859-1"?>
<!-- Generator: Adobe Illustrator 19.0.0, SVG Export Plug-In . SVG Version: 6.00 Build 0)  -->
<svg xmlns="http://www.w3.org/2000/svg" xmlns:xlink="http://www.w3.org/1999/xlink" version="1.1" id="Layer_1" x="0px" y="0px" viewBox="0 0 512.003 512.003" style="enable-background:new 0 0 512.003 512.003;" xml:space="preserve">
<g>
	<g>
		<g>
			<path d="M102.4,362.668c-9.421,0-17.067,7.646-17.067,17.067s7.646,17.067,17.067,17.067c9.421,0,17.067-7.646,17.067-17.067     S111.821,362.668,102.4,362.668z"/>
			<path d="M409.6,396.802c9.421,0,17.067-7.646,17.067-17.067s-7.646-17.067-17.067-17.067c-9.421,0-17.067,7.646-17.067,17.067     S400.179,396.802,409.6,396.802z"/>
			<path d="M197.196,129.881c-19.558-2.142-31.164-5.914-37.623-12.245c-3.371-3.294-8.772-3.234-12.066,0.128     c-6.161,6.289-17.374,9.916-37.504,12.117c-4.326,0.478-7.603,4.13-7.603,8.482v32.913c0,22.468,10.428,41.865,29.372,54.622     c5.743,3.874,11.989,5.956,17.502,7.791l1.604,0.538c0.887,0.29,1.809,0.444,2.722,0.444c0.922,0,1.835-0.154,2.722-0.444     l1.596-0.538c5.513-1.835,11.759-3.908,17.519-7.791c18.935-12.757,29.363-32.154,29.363-54.622v-32.913     C204.799,134.011,201.522,130.359,197.196,129.881z"/>
			<path d="M504.571,189.06l-36.113-39.723H366.937v85.333h145.067v-26.385C512.003,201.161,509.367,194.334,504.571,189.06z"/>
			<path d="M349.867,237.066v-90.129c0-8.09,6.579-14.669,14.669-14.669h88.405l-22.528-24.781     c-5.402-5.948-13.116-9.353-21.154-9.353h-86.221c-3.823-14.686-17.084-25.6-32.947-25.6H34.176     C15.326,72.535,0,87.861,0,106.711v170.624v81.075c0,16.461,13.397,29.858,29.858,29.858h13.491     c4.156,28.902,29.013,51.2,59.051,51.2c30.037,0,54.895-22.298,59.051-51.2h154.283h34.816c4.156,28.902,29.013,51.2,59.051,51.2     s54.895-22.298,59.051-51.2h34.816c4.71,0,8.533-3.823,8.533-8.533v-85.333h-59.733c-4.71,0-8.533-3.823-8.533-8.533     c0-4.71,3.823-8.533,8.533-8.533H512v-25.6H364.536C356.446,251.735,349.867,245.156,349.867,237.066z M102.4,422.402     c-23.526,0-42.667-19.14-42.667-42.667c0-23.526,19.14-42.667,42.667-42.667c23.526,0,42.667,19.14,42.667,42.667     C145.067,403.261,125.926,422.402,102.4,422.402z M307.2,371.202H161.527c-0.102-0.657-0.256-1.289-0.375-1.937     c-0.137-0.811-0.282-1.621-0.461-2.432c-0.239-1.075-0.521-2.133-0.819-3.183c-0.213-0.759-0.41-1.519-0.657-2.27     c-0.35-1.092-0.768-2.159-1.178-3.226c-0.265-0.674-0.503-1.357-0.785-2.014c-0.512-1.195-1.092-2.347-1.69-3.499     c-0.247-0.495-0.469-1.007-0.734-1.502c-0.879-1.613-1.835-3.174-2.859-4.685c-0.256-0.384-0.546-0.734-0.811-1.101     c-0.794-1.135-1.604-2.244-2.475-3.319c-0.444-0.538-0.922-1.041-1.374-1.562c-0.76-0.862-1.51-1.715-2.304-2.526     c-0.529-0.546-1.101-1.058-1.647-1.579c-0.785-0.734-1.57-1.468-2.389-2.167c-0.597-0.512-1.229-0.99-1.843-1.476     c-0.828-0.648-1.664-1.28-2.526-1.886c-0.657-0.461-1.323-0.896-2.005-1.34c-0.87-0.563-1.766-1.109-2.671-1.621     c-0.708-0.41-1.417-0.794-2.133-1.169c-0.93-0.486-1.886-0.93-2.842-1.374c-0.734-0.324-1.468-0.657-2.21-0.956     c-1.007-0.41-2.031-0.768-3.055-1.126c-0.751-0.247-1.485-0.521-2.244-0.742c-1.084-0.324-2.202-0.589-3.311-0.853     c-0.734-0.171-1.451-0.367-2.193-0.512c-1.246-0.247-2.517-0.418-3.797-0.589c-0.631-0.077-1.254-0.196-1.886-0.256     c-1.937-0.188-3.883-0.299-5.854-0.299s-3.917,0.111-5.854,0.299c-0.631,0.06-1.254,0.179-1.886,0.256     c-1.28,0.171-2.551,0.341-3.797,0.589c-0.742,0.145-1.459,0.341-2.193,0.512c-1.109,0.265-2.227,0.529-3.311,0.853     c-0.759,0.222-1.493,0.495-2.244,0.742c-1.024,0.358-2.048,0.717-3.055,1.126c-0.742,0.299-1.476,0.631-2.21,0.956     c-0.956,0.444-1.911,0.888-2.842,1.374c-0.717,0.375-1.425,0.759-2.133,1.169c-0.905,0.512-1.801,1.058-2.671,1.621     c-0.683,0.444-1.348,0.879-2.005,1.34c-0.862,0.606-1.698,1.237-2.526,1.886c-0.614,0.486-1.246,0.964-1.843,1.476     c-0.819,0.7-1.604,1.434-2.389,2.167c-0.546,0.521-1.118,1.033-1.647,1.579c-0.794,0.811-1.545,1.664-2.304,2.526     c-0.452,0.521-0.93,1.024-1.374,1.562c-0.87,1.075-1.681,2.185-2.475,3.319c-0.265,0.367-0.555,0.717-0.811,1.101     c-1.024,1.51-1.98,3.072-2.859,4.685c-0.265,0.495-0.486,1.007-0.734,1.502c-0.597,1.152-1.178,2.304-1.69,3.499     c-0.282,0.657-0.521,1.34-0.785,2.014c-0.41,1.067-0.828,2.133-1.178,3.226c-0.247,0.751-0.444,1.51-0.657,2.27     c-0.299,1.05-0.58,2.108-0.819,3.183c-0.179,0.811-0.324,1.621-0.461,2.432c-0.119,0.648-0.273,1.28-0.375,1.937H29.858     c-7.057,0-12.792-5.734-12.792-12.792v-72.542H307.2V371.202z M307.2,268.802H17.067V106.711c0-9.438,7.672-17.109,17.109-17.109     h255.915c9.438,0,17.109,7.672,17.109,17.109V268.802z M409.6,337.068c23.526,0,42.667,19.14,42.667,42.667     c0,23.526-19.14,42.667-42.667,42.667c-23.526,0-42.667-19.14-42.667-42.667C366.933,356.209,386.074,337.068,409.6,337.068z"/>
		</g>
	</g>
</g>
<g>
</g>
<g>
</g>
<g>
</g>
<g>
</g>
<g>
</g>
<g>
</g>
<g>
</g>
<g>
</g>
<g>
</g>
<g>
</g>
<g>
</g>
<g>
</g>
<g>
</g>
<g>
</g>
<g>
</g>
</svg>
