<?xml version="1.0" encoding="iso-8859-1"?>
<!-- Generator: Adobe Illustrator 19.0.0, SVG Export Plug-In . SVG Version: 6.00 Build 0)  -->
<svg xmlns="http://www.w3.org/2000/svg" xmlns:xlink="http://www.w3.org/1999/xlink" version="1.1" id="Layer_1" x="0px" y="0px" viewBox="0 0 512 512" style="enable-background:new 0 0 512 512;" xml:space="preserve">
<g>
	<g>
		<path d="M503.467,119.467h-460.8c-4.71,0-8.533,3.823-8.533,8.533v25.6h-25.6c-4.71,0-8.533,3.823-8.533,8.533V384    c0,4.71,3.823,8.533,8.533,8.533h460.8c4.71,0,8.533-3.823,8.533-8.533v-25.6h25.6c4.71,0,8.533-3.823,8.533-8.533V128    C512,123.29,508.177,119.467,503.467,119.467z M230.4,238.933h16.119c-1.033-11.128-2.97-22.502-5.453-33.169    c-3.78-16.205,1.647-32.998,13.841-42.786c7.535-6.05,17.016-9.378,26.692-9.378c15.206,0,29.372,8.183,36.975,21.367    c2.355,4.079,0.956,9.301-3.132,11.657c-4.087,2.347-9.301,0.956-11.648-3.132c-4.574-7.91-13.073-12.826-22.195-12.826    c-5.888,0-11.426,1.946-16.009,5.623c-7.1,5.7-10.206,15.744-7.91,25.6c2.074,8.9,4.71,22.323,5.973,37.043h26.479    c4.71,0,8.533,3.823,8.533,8.533S294.844,256,290.133,256h-25.762c-0.06,15.138-2.185,30.396-8.346,42.667h59.708    c4.71,0,8.533,3.823,8.533,8.533s-3.823,8.533-8.533,8.533h-76.8c-3.576,0-6.775-2.236-8.013-5.598    c-1.229-3.362-0.23-7.134,2.5-9.446c10.001-8.465,13.815-25.327,13.884-44.689H230.4c-4.71,0-8.533-3.823-8.533-8.533    S225.69,238.933,230.4,238.933z M76.8,307.2h34.133c4.71,0,8.533,3.823,8.533,8.533s-3.823,8.533-8.533,8.533H76.8    c-4.71,0-8.533-3.823-8.533-8.533S72.09,307.2,76.8,307.2z M460.8,375.467H17.067v-204.8h17.067v179.2    c0,4.71,3.823,8.533,8.533,8.533H460.8V375.467z M469.333,170.667H435.2c-4.71,0-8.533-3.823-8.533-8.533    c0-4.71,3.823-8.533,8.533-8.533h34.133c4.71,0,8.533,3.823,8.533,8.533C477.867,166.844,474.044,170.667,469.333,170.667z"/>
	</g>
</g>
<g>
</g>
<g>
</g>
<g>
</g>
<g>
</g>
<g>
</g>
<g>
</g>
<g>
</g>
<g>
</g>
<g>
</g>
<g>
</g>
<g>
</g>
<g>
</g>
<g>
</g>
<g>
</g>
<g>
</g>
</svg>
