<?xml version="1.0" encoding="iso-8859-1"?>
<!-- Generator: Adobe Illustrator 19.0.0, SVG Export Plug-In . SVG Version: 6.00 Build 0)  -->
<svg xmlns="http://www.w3.org/2000/svg" xmlns:xlink="http://www.w3.org/1999/xlink" version="1.1" id="Layer_1" x="0px" y="0px" viewBox="0 0 511.328 511.328" style="enable-background:new 0 0 511.328 511.328;" xml:space="preserve">
<g>
	<g>
		<g>
			<path d="M293.325,277.68l-155.972,91.503l-4.011-17.425l142.874-83.823l-186.65-106.24l-5.205-22.613l208.845,118.886     L500.77,136.197H83.695L68.173,68.818c0.009-0.299,0.094-0.58,0.094-0.887c0-18.816-15.309-34.133-34.133-34.133     C15.309,33.797,0,49.114,0,67.93c0,18.825,15.309,34.133,34.133,34.133c8.533,0,16.247-3.251,22.238-8.448l13.039,56.602     l-0.12-0.068l48.606,210.662h0.009l17.502,75.972c0.896,3.874,4.344,6.613,8.32,6.613h27.81     c3.951,19.456,21.197,34.133,41.796,34.133c20.599,0,37.845-14.677,41.796-34.133h87.074     c3.951,19.456,21.197,34.133,41.796,34.133s37.845-14.677,41.796-34.133h26.47c4.719,0,8.533-3.814,8.533-8.533     c0-4.71-3.814-8.533-8.533-8.533h-26.47c-3.951-19.447-21.197-34.133-41.796-34.133s-37.845,14.686-41.796,34.133H255.13     c-3.951-19.447-21.197-34.133-41.796-34.133c-20.599,0-37.845,14.686-41.796,34.133h-21.018l-11.793-51.2h325.803L293.325,277.68     z"/>
			<polygon points="310.325,267.709 478.457,363.418 511.328,149.786    "/>
		</g>
	</g>
</g>
<g>
</g>
<g>
</g>
<g>
</g>
<g>
</g>
<g>
</g>
<g>
</g>
<g>
</g>
<g>
</g>
<g>
</g>
<g>
</g>
<g>
</g>
<g>
</g>
<g>
</g>
<g>
</g>
<g>
</g>
</svg>
