<?xml version="1.0" encoding="iso-8859-1"?>
<!-- Generator: Adobe Illustrator 19.0.0, SVG Export Plug-In . SVG Version: 6.00 Build 0)  -->
<svg xmlns="http://www.w3.org/2000/svg" xmlns:xlink="http://www.w3.org/1999/xlink" version="1.1" id="Layer_1" x="0px" y="0px" viewBox="0 0 511.999 511.999" style="enable-background:new 0 0 511.999 511.999;" xml:space="preserve">
<g>
	<g>
		<g>
			<path d="M290.133,187.733c-37.641,0-68.267,30.626-68.267,68.267c0,37.64,30.626,68.267,68.267,68.267     c37.641,0,68.267-30.626,68.267-68.267C358.4,218.359,327.774,187.733,290.133,187.733z M330.3,284.1     c3.337,3.336,3.337,8.73,0,12.066c-1.664,1.664-3.849,2.5-6.033,2.5c-2.185,0-4.369-0.836-6.033-2.5l-28.1-28.1l-28.1,28.1     c-1.664,1.664-3.849,2.5-6.033,2.5c-2.185,0-4.369-0.836-6.033-2.5c-3.336-3.337-3.336-8.73,0-12.066l28.1-28.1l-28.1-28.1     c-3.336-3.337-3.336-8.73,0-12.066c3.337-3.336,8.73-3.336,12.066,0l28.1,28.1l28.1-28.1c3.337-3.336,8.73-3.336,12.066,0     c3.337,3.337,3.337,8.73,0,12.066L302.2,256L330.3,284.1z"/>
			<path d="M509.943,139.511c-1.621-1.894-3.985-2.978-6.477-2.978H83.695L68.173,69.154c0.009-0.299,0.094-0.58,0.094-0.887     c0-18.825-15.309-34.133-34.133-34.133C15.309,34.133,0,49.442,0,68.266S15.309,102.4,34.133,102.4     c8.533,0,16.247-3.26,22.238-8.448l12.109,52.591c0.026,0.145-0.034,0.299,0,0.444l51.004,221.005l15.923,69.129     c0.888,3.866,4.335,6.613,8.311,6.613h27.81c3.968,19.447,21.197,34.133,41.805,34.133c20.608,0,37.837-14.686,41.805-34.133     h87.057c3.968,19.447,21.197,34.133,41.805,34.133c20.599,0,37.845-14.686,41.796-34.133h26.47c4.719,0,8.533-3.823,8.533-8.533     s-3.814-8.533-8.533-8.533h-26.47c-3.951-19.447-21.197-34.133-41.796-34.133c-20.608,0-37.837,14.686-41.805,34.133h-87.057     c-3.968-19.447-21.197-34.133-41.805-34.133c-20.608,0-37.837,14.686-41.805,34.133h-21.018l-11.793-51.2h330.615     c4.207,0,7.791-3.072,8.431-7.236l34.133-221.867C512.282,143.906,511.565,141.397,509.943,139.511z M290.133,341.333     c-47.053,0-85.333-38.281-85.333-85.333s38.281-85.333,85.333-85.333s85.333,38.281,85.333,85.333     S337.186,341.333,290.133,341.333z"/>
		</g>
	</g>
</g>
<g>
</g>
<g>
</g>
<g>
</g>
<g>
</g>
<g>
</g>
<g>
</g>
<g>
</g>
<g>
</g>
<g>
</g>
<g>
</g>
<g>
</g>
<g>
</g>
<g>
</g>
<g>
</g>
<g>
</g>
</svg>
