<?xml version="1.0" encoding="iso-8859-1"?>
<!-- Generator: Adobe Illustrator 19.0.0, SVG Export Plug-In . SVG Version: 6.00 Build 0)  -->
<svg xmlns="http://www.w3.org/2000/svg" xmlns:xlink="http://www.w3.org/1999/xlink" version="1.1" id="Layer_1" x="0px" y="0px" viewBox="0 0 511.988 511.988" style="enable-background:new 0 0 511.988 511.988;" xml:space="preserve">
<g>
	<g>
		<g>
			<path d="M507.366,289.999c-14.95-20.838-30.123-21.171-68.079-1.195l-73.591,44.988c-10.906,5.803-33.289,7.543-54.997,7.91     c3.857-8.03,2.133-17.613-5.154-28.493c-13.38-19.951-36.301-31.855-61.338-31.855h-33.28c-18.082,0-35.447-5.589-48.905-15.727     c-30.635-23.1-81.818-26.368-102.289-26.709V221.86c0-4.71-3.814-8.533-8.533-8.533H8.533C3.814,213.327,0,217.15,0,221.86v256     c0,4.71,3.814,8.533,8.533,8.533H51.2c4.719,0,8.533-3.823,8.533-8.533v-17.067h110.933c17.408,0,34.97-1.331,52.19-3.942     l110.618-16.819c4.028-0.051,8.107-0.529,11.742-1.348c10.189-1.434,19.925-6.298,28.177-14.08l129.34-100.727l0.205-0.162     C513.007,315.369,514.953,300.563,507.366,289.999z M42.667,239.2v221.594v8.533h-25.6V230.394h25.6V239.2z"/>
			<path d="M477.867,51.194c0-14.114-11.486-25.6-25.6-25.6H162.133c-14.114,0-25.6,11.486-25.6,25.6V68.26h341.333V51.194z"/>
			<rect x="136.533" y="85.327" width="341.333" height="17.067"/>
			<polygon points="426.667,162.127 375.467,162.127 375.467,179.194 426.675,179.194    "/>
			<path d="M162.133,230.394h290.133c14.114,0,25.6-11.486,25.6-25.6V119.46H136.533v85.333     C136.533,218.908,148.019,230.394,162.133,230.394z M358.4,162.127c0-9.412,7.654-17.067,17.067-17.067h51.2     c9.412,0,17.067,7.654,17.067,17.067v17.067c0,9.412-7.654,17.067-17.067,17.067h-51.2c-9.412,0-17.067-7.654-17.067-17.067     V162.127z M281.6,145.06h17.067c4.719,0,8.533,3.823,8.533,8.533c0,4.71-3.814,8.533-8.533,8.533H281.6     c-4.719,0-8.533-3.823-8.533-8.533C273.067,148.883,276.881,145.06,281.6,145.06z M196.267,145.06h51.2     c4.719,0,8.533,3.823,8.533,8.533c0,4.71-3.814,8.533-8.533,8.533h-51.2c-4.719,0-8.533-3.823-8.533-8.533     C187.733,148.883,191.548,145.06,196.267,145.06z"/>
		</g>
	</g>
</g>
<g>
</g>
<g>
</g>
<g>
</g>
<g>
</g>
<g>
</g>
<g>
</g>
<g>
</g>
<g>
</g>
<g>
</g>
<g>
</g>
<g>
</g>
<g>
</g>
<g>
</g>
<g>
</g>
<g>
</g>
</svg>
