<?xml version="1.0" encoding="iso-8859-1"?>
<!-- Generator: Adobe Illustrator 19.0.0, SVG Export Plug-In . SVG Version: 6.00 Build 0)  -->
<svg xmlns="http://www.w3.org/2000/svg" xmlns:xlink="http://www.w3.org/1999/xlink" version="1.1" id="Layer_1" x="0px" y="0px" viewBox="0 0 512 512" style="enable-background:new 0 0 512 512;" xml:space="preserve">
<g>
	<g>
		<g>
			<path d="M281.6,204.8c0-11.11-7.159-20.489-17.067-24.03v48.06C274.441,225.289,281.6,215.91,281.6,204.8z"/>
			<rect x="85.333" y="341.333" width="136.533" height="34.133"/>
			<path d="M247.467,112.504c-9.907,3.541-17.067,12.919-17.067,24.03s7.159,20.489,17.067,24.021V112.504z"/>
			<path d="M59.733,281.6h392.533V59.733H59.733V281.6z M213.333,136.533c0-20.608,14.686-37.837,34.133-41.805v-9.395     c0-4.71,3.814-8.533,8.533-8.533s8.533,3.823,8.533,8.533v9.395c19.448,3.968,34.133,21.197,34.133,41.805     c0,4.71-3.814,8.533-8.533,8.533s-8.533-3.823-8.533-8.533c0-11.11-7.159-20.489-17.067-24.03v50.492     c19.448,3.968,34.133,21.197,34.133,41.805c0,20.608-14.686,37.837-34.133,41.805V256c0,4.71-3.814,8.533-8.533,8.533     s-8.533-3.823-8.533-8.533v-9.395c-19.447-3.968-34.133-21.197-34.133-41.805c0-4.71,3.814-8.533,8.533-8.533     s8.533,3.823,8.533,8.533c0,11.11,7.159,20.489,17.067,24.021v-50.483C228.019,174.37,213.333,157.141,213.333,136.533z"/>
			<path d="M486.4,0H25.6C11.486,0,0,11.486,0,25.6v418.133c0,14.114,11.486,25.6,25.6,25.6h324.267V486.4     c0,14.114,11.486,25.6,25.6,25.6h51.2c14.114,0,25.6-11.486,25.6-25.6v-17.067H486.4c14.114,0,25.6-11.486,25.6-25.6V25.6     C512,11.486,500.514,0,486.4,0z M238.933,384c0,4.71-3.814,8.533-8.533,8.533H76.8c-4.719,0-8.533-3.823-8.533-8.533v-51.2     c0-4.71,3.814-8.533,8.533-8.533h153.6c4.719,0,8.533,3.823,8.533,8.533V384z M401.067,494.933h-25.6     c-4.71,0-8.533-3.831-8.533-8.533v-25.6V384c0-4.702,3.823-8.533,8.533-8.533h25.6V494.933z M435.2,460.8v25.6     c0,4.702-3.823,8.533-8.533,8.533h-8.533V375.467h8.533c4.71,0,8.533,3.831,8.533,8.533V460.8z M469.333,290.133     c0,4.71-3.814,8.533-8.533,8.533H51.2c-4.719,0-8.533-3.823-8.533-8.533V51.2c0-4.71,3.814-8.533,8.533-8.533h409.6     c4.719,0,8.533,3.823,8.533,8.533V290.133z"/>
		</g>
	</g>
</g>
<g>
</g>
<g>
</g>
<g>
</g>
<g>
</g>
<g>
</g>
<g>
</g>
<g>
</g>
<g>
</g>
<g>
</g>
<g>
</g>
<g>
</g>
<g>
</g>
<g>
</g>
<g>
</g>
<g>
</g>
</svg>
