<?xml version="1.0" encoding="iso-8859-1"?>
<!-- Generator: Adobe Illustrator 19.0.0, SVG Export Plug-In . SVG Version: 6.00 Build 0)  -->
<svg xmlns="http://www.w3.org/2000/svg" xmlns:xlink="http://www.w3.org/1999/xlink" version="1.1" id="Layer_1" x="0px" y="0px" viewBox="0 0 512 512" style="enable-background:new 0 0 512 512;" xml:space="preserve">
<g>
	<g>
		<path d="M503.286,392.533h-26.453c-1.707-12.8-5.12-24.747-11.093-35.84l-105.813-204.8c-1.707-3.413-2.56-6.827-4.267-11.093    c0.853-0.853,0.853-2.56,0.853-4.267V93.867c0-3.413-1.707-5.973-4.267-6.827c0.853-3.413,1.707-7.68,3.413-11.093    c4.267-10.24,8.533-16.213,12.8-19.627c17.92-14.507,16.213-29.013,13.653-34.987C378.699,8.533,365.046,0,348.833,0    c-10.24,0-19.627,3.413-27.307,10.24C313.846,3.413,304.459,0,294.219,0s-19.627,3.413-27.307,10.24    C260.086,4.267,248.993,0,238.753,0c-9.387,0-22.187,3.413-30.72,10.24C200.353,3.413,190.966,0,180.726,0    s-19.627,3.413-27.307,10.24C145.739,3.413,136.353,0,126.113,0c-14.507,0-27.307,9.387-31.573,21.333    c-4.267,11.947,0.853,24.747,12.8,34.133c5.12,4.267,9.387,12.8,11.947,19.627c1.707,4.267,2.56,7.68,3.413,11.093    c-1.707,1.707-3.413,4.267-3.413,7.68v42.667c0,1.707,0.853,2.56,0.853,4.267c-0.853,3.413-2.56,7.68-4.267,10.24L12.619,353.28    c-17.92,34.133-16.213,74.24,3.413,106.667C35.659,492.373,70.646,512,109.046,512h172.373h204.8c5.12,0,8.533-3.413,8.533-8.533    V460.8h8.533c5.12,0,8.533-3.413,8.533-8.533v-51.2C511.819,395.947,508.406,392.533,503.286,392.533z M409.419,409.6h34.133    v34.133h-34.133V409.6z M358.219,409.6h34.133v34.133h-34.133V409.6z M136.353,102.4h203.093V128H136.353V102.4z M341.153,409.6    v34.133h-34.133V409.6H341.153z M298.486,221.867c-42.667,0-59.733-46.933-65.707-70.827    c-13.653,11.093-36.693,34.133-36.693,62.293c0,5.12-3.413,8.533-8.533,8.533s-8.533-3.413-8.533-8.533    c0-29.867,19.627-53.76,34.987-68.267h34.987c4.267,18.773,17.92,59.733,48.64,59.733c4.267,0,8.533,3.413,8.533,8.533    C307.019,217.6,303.606,221.867,298.486,221.867z M286.539,389.973c-11.947,6.827-25.6,11.093-39.253,11.093    c-34.133,0-63.147-24.747-73.387-59.733h-20.48c-5.12,0-8.533-3.413-8.533-8.533c0-5.12,3.413-8.533,8.533-8.533h17.067    c0-2.56,0-5.973,0-8.533s0-5.973,0-8.533h-17.067c-5.12,0-8.533-3.413-8.533-8.533s3.413-8.533,8.533-8.533h20.48    c10.24-34.987,39.253-59.733,73.387-59.733c13.653,0,27.307,4.267,38.4,11.947c4.267,2.56,5.12,7.68,2.56,11.947    s-7.68,5.12-11.947,2.56c-8.533-5.973-18.773-8.533-29.867-8.533c-24.747,0-46.08,17.92-55.467,42.667h30.72v-0.853    c5.12,0,8.533,3.413,8.533,8.533s-3.413,8.533-8.533,8.533h-33.28c0,2.56-0.853,5.973-0.853,8.533s0,5.973,0.853,8.533h33.28    c5.12,0,8.533,3.413,8.533,8.533c0,5.12-3.413,8.533-8.533,8.533h-29.867C200.353,366.08,222.539,384,247.286,384    c10.24,0,20.48-3.413,29.867-8.533c4.267-2.56,9.387-1.707,11.947,2.56S290.806,387.413,286.539,389.973z M324.086,494.933    h-34.133V460.8h8.533h25.6V494.933z M375.286,494.933h-34.133V460.8h34.133V494.933z M426.486,494.933h-34.133V460.8h34.133    V494.933z M477.686,494.933h-34.133V460.8h34.133V494.933z M494.753,443.733h-8.533h-25.6V409.6h8.533h25.6V443.733z"/>
	</g>
</g>
<g>
</g>
<g>
</g>
<g>
</g>
<g>
</g>
<g>
</g>
<g>
</g>
<g>
</g>
<g>
</g>
<g>
</g>
<g>
</g>
<g>
</g>
<g>
</g>
<g>
</g>
<g>
</g>
<g>
</g>
</svg>
