<?xml version="1.0" encoding="iso-8859-1"?>
<!-- Generator: Adobe Illustrator 19.0.0, SVG Export Plug-In . SVG Version: 6.00 Build 0)  -->
<svg xmlns="http://www.w3.org/2000/svg" xmlns:xlink="http://www.w3.org/1999/xlink" version="1.1" id="Layer_1" x="0px" y="0px" viewBox="0 0 512 512" style="enable-background:new 0 0 512 512;" xml:space="preserve">
<g>
	<g>
		<path d="M230.4,273.067H42.667c-5.12,0-8.533,3.413-8.533,8.533v119.467c0,5.12,3.413,8.533,8.533,8.533H230.4    c5.12,0,8.533-3.413,8.533-8.533V281.6C238.933,276.48,235.52,273.067,230.4,273.067z"/>
	</g>
</g>
<g>
	<g>
		<path d="M469.333,281.6H332.8c-5.12,0-8.533,3.413-8.533,8.533c0,5.12,3.413,8.533,8.533,8.533h136.533    c5.12,0,8.533-3.413,8.533-8.533C477.867,285.013,474.453,281.6,469.333,281.6z"/>
	</g>
</g>
<g>
	<g>
		<path d="M469.333,332.8H332.8c-5.12,0-8.533,3.413-8.533,8.533c0,5.12,3.413,8.533,8.533,8.533h136.533    c5.12,0,8.533-3.413,8.533-8.533C477.867,336.213,474.453,332.8,469.333,332.8z"/>
	</g>
</g>
<g>
	<g>
		<path d="M469.333,384H332.8c-5.12,0-8.533,3.413-8.533,8.533s3.413,8.533,8.533,8.533h136.533c5.12,0,8.533-3.413,8.533-8.533    S474.453,384,469.333,384z"/>
	</g>
</g>
<g>
	<g>
		<path d="M273.067,173.227v29.013c5.12-2.56,8.533-8.533,8.533-14.507S278.187,175.787,273.067,173.227z"/>
	</g>
</g>
<g>
	<g>
		<path d="M247.467,136.533c0,5.973,3.413,11.947,8.533,14.507v-29.013C250.88,124.587,247.467,130.56,247.467,136.533z"/>
	</g>
</g>
<g>
	<g>
		<path d="M486.4,179.2h-34.133V68.267c0-5.12-3.413-8.533-8.533-8.533H68.267c-5.12,0-8.533,3.413-8.533,8.533V179.2H25.6    C11.093,179.2,0,190.293,0,204.8v34.133v187.733c0,14.507,11.093,25.6,25.6,25.6h273.067H486.4c14.507,0,25.6-11.093,25.6-25.6    V238.933V204.8C512,190.293,500.907,179.2,486.4,179.2z M375.467,93.867H409.6c5.12,0,8.533,3.413,8.533,8.533    c0,5.12-3.413,8.533-8.533,8.533h-34.133c-5.12,0-8.533-3.413-8.533-8.533C366.933,97.28,370.347,93.867,375.467,93.867z     M102.4,204.8h34.133c5.12,0,8.533,3.413,8.533,8.533s-3.413,8.533-8.533,8.533H102.4c-5.12,0-8.533-3.413-8.533-8.533    S97.28,204.8,102.4,204.8z M17.067,204.8c0-5.12,3.413-8.533,8.533-8.533h34.133V230.4H17.067V204.8z M256,435.2H25.6    c-5.12,0-8.533-3.413-8.533-8.533v-179.2h51.2H256V435.2z M290.133,435.2h-17.067V247.467h17.067V435.2z M298.667,187.733    c0,16.213-11.093,29.013-25.6,33.28v9.387H256v-9.387c-14.507-3.413-25.6-17.067-25.6-33.28c0-5.12,3.413-8.533,8.533-8.533    s8.533,3.413,8.533,8.533c0,5.973,3.413,11.947,8.533,14.507v-33.28c-14.507-3.413-25.6-17.067-25.6-33.28    s11.093-29.013,25.6-33.28v-8.533c0-5.12,3.413-8.533,8.533-8.533s8.533,3.413,8.533,8.533v9.387    c14.507,3.413,25.6,17.067,25.6,33.28c0,5.12-3.413,8.533-8.533,8.533s-8.533-3.413-8.533-8.533    c0-5.973-3.413-11.947-8.533-14.507v33.28C287.573,158.72,298.667,171.52,298.667,187.733z M494.933,426.667    c0,5.12-3.413,8.533-8.533,8.533H307.2V247.467h136.533h51.2V426.667z M494.933,230.4h-42.667v-34.133H486.4    c5.12,0,8.533,3.413,8.533,8.533V230.4z"/>
	</g>
</g>
<g>
</g>
<g>
</g>
<g>
</g>
<g>
</g>
<g>
</g>
<g>
</g>
<g>
</g>
<g>
</g>
<g>
</g>
<g>
</g>
<g>
</g>
<g>
</g>
<g>
</g>
<g>
</g>
<g>
</g>
</svg>
