<?xml version="1.0" encoding="iso-8859-1"?>
<!-- Generator: Adobe Illustrator 19.0.0, SVG Export Plug-In . SVG Version: 6.00 Build 0)  -->
<svg xmlns="http://www.w3.org/2000/svg" xmlns:xlink="http://www.w3.org/1999/xlink" version="1.1" id="Layer_1" x="0px" y="0px" viewBox="0 0 512 512" style="enable-background:new 0 0 512 512;" xml:space="preserve">
<g>
	<g>
		<g>
			<path d="M264.533,180.771c-9.916,3.541-17.067,12.919-17.067,24.03s7.151,20.489,17.067,24.021V180.771z"/>
			<path d="M298.667,273.067c0-11.11-7.151-20.489-17.067-24.03v48.06C291.516,293.555,298.667,284.177,298.667,273.067z"/>
			<path d="M503.467,119.467h-460.8c-4.71,0-8.533,3.823-8.533,8.533v25.6h-25.6c-4.71,0-8.533,3.823-8.533,8.533V384     c0,4.71,3.823,8.533,8.533,8.533h460.8c4.71,0,8.533-3.823,8.533-8.533v-25.6h25.6c4.71,0,8.533-3.823,8.533-8.533V128     C512,123.29,508.177,119.467,503.467,119.467z M230.4,204.8c0-20.608,14.686-37.837,34.133-41.805V153.6     c0-4.71,3.823-8.533,8.533-8.533c4.71,0,8.533,3.823,8.533,8.533v9.395c19.447,3.968,34.133,21.197,34.133,41.805     c0,4.71-3.823,8.533-8.533,8.533s-8.533-3.823-8.533-8.533c0-11.11-7.151-20.489-17.067-24.03v50.492     c19.447,3.968,34.133,21.197,34.133,41.805c0,20.608-14.686,37.837-34.133,41.805v9.395c0,4.71-3.823,8.533-8.533,8.533     c-4.71,0-8.533-3.823-8.533-8.533v-9.395c-19.447-3.968-34.133-21.197-34.133-41.805c0-4.71,3.823-8.533,8.533-8.533     s8.533,3.823,8.533,8.533c0,11.11,7.151,20.489,17.067,24.021v-50.483C245.086,242.637,230.4,225.408,230.4,204.8z M76.8,307.2     h34.133c4.71,0,8.533,3.823,8.533,8.533s-3.823,8.533-8.533,8.533H76.8c-4.71,0-8.533-3.823-8.533-8.533S72.09,307.2,76.8,307.2z      M460.8,375.467H17.067v-204.8h17.067v179.2c0,4.71,3.823,8.533,8.533,8.533H460.8V375.467z M469.333,170.667H435.2     c-4.71,0-8.533-3.823-8.533-8.533c0-4.71,3.823-8.533,8.533-8.533h34.133c4.71,0,8.533,3.823,8.533,8.533     C477.867,166.844,474.044,170.667,469.333,170.667z"/>
		</g>
	</g>
</g>
<g>
</g>
<g>
</g>
<g>
</g>
<g>
</g>
<g>
</g>
<g>
</g>
<g>
</g>
<g>
</g>
<g>
</g>
<g>
</g>
<g>
</g>
<g>
</g>
<g>
</g>
<g>
</g>
<g>
</g>
</svg>
