<?xml version="1.0" encoding="iso-8859-1"?>
<!-- Generator: Adobe Illustrator 19.0.0, SVG Export Plug-In . SVG Version: 6.00 Build 0)  -->
<svg xmlns="http://www.w3.org/2000/svg" xmlns:xlink="http://www.w3.org/1999/xlink" version="1.1" id="Capa_1" x="0px" y="0px" viewBox="0 0 511.998 511.998" style="enable-background:new 0 0 511.998 511.998;" xml:space="preserve">
<g>
	<g>
		<path d="M233.854,454.163l-15.525-100.387h-49.576l16.683,107.875c2.069,13.372,14.585,22.534,27.953,20.465    C226.758,480.049,235.921,467.533,233.854,454.163z"/>
	</g>
</g>
<g>
	<g>
		<path d="M299.442,353.775l0.039,0.023L283.96,454.162c-2.283,14.768,9.111,28.244,24.24,28.244    c11.876-0.001,22.308-8.656,24.179-20.757l16.683-107.875H299.442z"/>
	</g>
</g>
<g>
	<g>
		<path d="M264.59,83.925c-25.071,0-45.395,20.324-45.395,45.395c0,8.082,2.122,15.665,5.824,22.239    c11.53-8.096,26.979-9.882,40.569-3.326c9.454,4.56,16.307,12.34,19.888,21.387c14.557-7.561,24.509-22.764,24.509-40.3    C309.984,104.25,289.66,83.925,264.59,83.925z"/>
	</g>
</g>
<g>
	<g>
		<path d="M402.733,284.51h-0.074h-29.418c12.982-2.77,20.471-16.298,16.083-28.713c-3.294-9.32-25.82-73.039-28.731-81.269    c-5.572-15.761-19.208-27.08-35.271-29.994c-4.872,19.438-18.851,35.292-37.122,42.76c-0.007,0.1-0.014,0.201-0.022,0.301    c-0.381,4.823-1.635,9.657-3.864,14.277l-11.423,23.675c4.439-1.69,9.252-2.624,14.285-2.624h39.069V208.8    c6.921,19.578,4.542,12.848,11.453,32.393h-50.521c-12.097,0-21.903,9.806-21.903,21.904c0,10.52,7.419,19.3,17.309,21.412    h-29.391c-1.8-2.851-3.255-5.941-4.298-9.218l-4.447,9.218h-20.684c0.752-1.039,1.433-2.148,2.01-3.343l42.086-87.235    c5.257-10.895,0.686-23.988-10.21-29.245c-10.898-5.257-23.99-0.684-29.245,10.211l-15.597,32.328V164.83    c-3.678-5.32-6.298-11.231-8.196-17.564c-6.304,2.59-12.033,6.554-16.69,11.705c-8.726,9.65-12.98,22.608-11.675,35.552    c0,0,7.62,75.791,8.181,81.239l0.11-0.089c0.596,3.175,1.868,6.203,3.774,8.836c-8.957,0-70.423,0-79.048,0    c-13.853,0-25.084,11.224-25.096,25.075c0,0.007-0.001,0.015-0.001,0.022c0,0.007,0.001,0.015,0.001,0.022    c0.011,13.153,10.143,23.93,23.027,24.983c0,7.401,0,153.28,0,159.198c0,10.047,8.144,18.19,18.191,18.19    c10.047,0,18.191-8.143,18.191-18.19c0-6.063,0-151.799,0-159.106H369.75c0,7.386,0,153.2,0,159.106    c0,10.047,8.144,18.19,18.191,18.19c10.047,0,18.191-8.143,18.191-18.19c0-6.325,0-152.416,0-159.341    c12.252-1.659,21.699-12.154,21.699-24.862C427.83,295.747,416.594,284.51,402.733,284.51z"/>
	</g>
</g>
<g>
	<g>
		<path d="M379.414,55.095c-6.035,0-11.225,3.557-13.63,8.681c-2.405-5.124-7.596-8.681-13.63-8.681    c-8.32,0-15.065,6.745-15.065,15.065c0,19.37,28.696,36.516,28.696,36.516s28.696-16.249,28.696-36.516    C394.479,61.84,387.734,55.095,379.414,55.095z"/>
	</g>
</g>
<g>
	<g>
		<path d="M323.2,0c-4.782,0-8.894,2.818-10.799,6.877C310.496,2.818,306.383,0,301.602,0c-6.592,0-11.936,5.344-11.936,11.936    c-0.001,15.347,22.735,28.931,22.735,28.931s22.735-12.874,22.735-28.931C335.136,5.344,329.792,0,323.2,0z"/>
	</g>
</g>
<g>
</g>
<g>
</g>
<g>
</g>
<g>
</g>
<g>
</g>
<g>
</g>
<g>
</g>
<g>
</g>
<g>
</g>
<g>
</g>
<g>
</g>
<g>
</g>
<g>
</g>
<g>
</g>
<g>
</g>
</svg>
