<?xml version="1.0" encoding="iso-8859-1"?>
<!-- Generator: Adobe Illustrator 19.0.0, SVG Export Plug-In . SVG Version: 6.00 Build 0)  -->
<svg xmlns="http://www.w3.org/2000/svg" xmlns:xlink="http://www.w3.org/1999/xlink" version="1.1" id="Capa_1" x="0px" y="0px" viewBox="0 0 512.001 512.001" style="enable-background:new 0 0 512.001 512.001;" xml:space="preserve">
<g>
	<g>
		<circle cx="384.528" cy="42.139" r="42.139"/>
	</g>
</g>
<g>
	<g>
		<path d="M417.6,230.901c-12.005,4.098-24.949,1.377-34.284-6.678c-7.176,16.28-25.638,24.826-42.952,19.19l-10.18-3.317V487.6    c0,13.476,10.925,24.4,24.4,24.4c13.475,0,24.4-10.925,24.4-24.4V292.571h10.534V487.6c0,13.476,10.925,24.4,24.4,24.4    c13.475,0,24.4-10.925,24.4-24.4c0-14.096,0-249.543,0-263.62L417.6,230.901z"/>
	</g>
</g>
<g>
	<g>
		<path d="M405.932,138.38c-2.301-13.066-1.996-27.449,1.268-40.667c-6.707,0-38.932,0-45.635,0    c3.201,12.968,3.595,27.445,1.268,40.667c-2.397,13.615-7.571,25.338-14.595,33.77l13.86,4.513    c4.582,1.492,8.647,3.839,12.078,6.804c3.828-8.634,11.103-15.711,20.747-19.003l17.195-5.87    C409.34,152.557,407.23,145.746,405.932,138.38z"/>
	</g>
</g>
<g>
	<g>
		<path d="M357.525,190.704l-54.235-17.798l26.884-33.169v22.445c5.188-4.587,9.788-12.931,12.234-23.801    c2.883-12.816,2.492-28.008-1.65-40.667h-8.139c-13.175,0-25.488,5.871-33.783,16.106c-6.353,7.838-39.606,48.867-45.851,56.572    c-8.873,10.949-4.22,27.757,9.656,32.187l82.295,26.795c10.677,3.475,22.152-2.363,25.628-13.04    C374.041,205.656,368.204,194.181,357.525,190.704z"/>
	</g>
</g>
<g>
	<g>
		<path d="M501.212,156.81c-24.088-26.743-22.676-25.175-47.172-52.371c-3.856-4.281-9.346-6.725-15.108-6.725h-10.925    c-4.137,12.641-4.538,27.833-1.65,40.667c1.167,5.19,2.821,9.811,4.803,13.715c7.885-2.692,6.198-2.115,8.47-2.891    c4.742,5.265,2.217,2.462,10.527,11.686l-50.465,17.55c-10.628,3.627-16.302,15.184-12.675,25.811    c3.629,10.63,15.183,16.3,25.811,12.675c1.468-0.501,77.683-26.512,80.019-27.324C506.339,184.858,511.03,167.937,501.212,156.81z    "/>
	</g>
</g>
<g>
	<g>
		<circle cx="109.069" cy="42.35" r="42.119"/>
	</g>
</g>
<g>
	<g>
		<path d="M237.107,192.41c-5.264-9.982-31.221-59.186-36.507-69.204c-7.981-15.128-23.564-24.891-40.669-25.023    c-91.748-0.702-49,0-105.525,0c-26.389,0-48.715,21.184-48.846,47.571v149.312c-0.056,11.225,8.997,20.37,20.221,20.426    c0.035,0,0.069,0.001,0.104,0.001c11.177-0.001,20.265-9.033,20.321-20.222V145.958c0-0.001,0-0.002,0-0.003    c0.013-2.43,1.991-4.389,4.419-4.382c2.43,0.007,4.394,1.979,4.394,4.408l0.009,341.631c0,13.47,10.919,24.389,24.389,24.389    c13.47,0,24.389-10.919,24.389-24.389V292.67h10.531v194.942c0,13.47,10.919,24.389,24.388,24.389s24.388-10.919,24.388-24.389    c0-208.431-0.442-221.546-0.442-221.546c-15.706,6.094-29.485,3.333-40.086-4.807l-15.239,7.078    c-4.48,2.081-9.798,0.136-11.878-4.343l-31.952-68.789c-2.081-4.48-0.136-9.797,4.343-11.878l10.528-4.89l-2.358-9.119    c-1.237-4.781,1.639-9.66,6.42-10.897l45.353-11.724c4.781-1.237,9.66,1.638,10.897,6.42l8.863,34.285l15.109-5.863v-41.51    c1.837,1.181-0.163-1.908,27.84,51.17c-10.725,4.162-44.835,17.398-51.259,19.89c-10.465,4.06-15.656,15.835-11.595,26.299    c4.078,10.513,15.916,15.624,26.299,11.595l72.527-28.144C237.8,216.45,242.777,203.157,237.107,192.41z"/>
	</g>
</g>
<g>
</g>
<g>
</g>
<g>
</g>
<g>
</g>
<g>
</g>
<g>
</g>
<g>
</g>
<g>
</g>
<g>
</g>
<g>
</g>
<g>
</g>
<g>
</g>
<g>
</g>
<g>
</g>
<g>
</g>
</svg>
