<?xml version="1.0" encoding="iso-8859-1"?>
<!-- Generator: Adobe Illustrator 19.0.0, SVG Export Plug-In . SVG Version: 6.00 Build 0)  -->
<svg xmlns="http://www.w3.org/2000/svg" xmlns:xlink="http://www.w3.org/1999/xlink" version="1.1" id="Capa_1" x="0px" y="0px" viewBox="0 0 512 512" style="enable-background:new 0 0 512 512;" xml:space="preserve">
<g>
	<g>
		<path d="M504.794,480.461l-43.172-107.694c-1.144-2.854-3.909-4.724-6.983-4.724h-46.58c-2.379,0-4.618,1.125-6.037,3.034    c-1.419,1.909-1.852,4.377-1.168,6.655l32.379,107.694c0.957,3.18,3.885,5.357,7.205,5.357h57.373    c2.497,0,4.832-1.239,6.232-3.308S505.724,482.779,504.794,480.461z"/>
	</g>
</g>
<g>
	<g>
		<path d="M361.299,481.782l-6.304-31.45c-15.506-2.424-27.942-15.166-29.322-31.502l-4.29-50.787h-35.31    c-2.115,0-4.131,0.889-5.556,2.451c-1.425,1.562-2.129,3.65-1.936,5.756l9.811,107.694c0.353,3.875,3.602,6.84,7.493,6.84h58.038    c2.255,0,4.39-1.011,5.819-2.755C361.171,486.286,361.742,483.993,361.299,481.782z"/>
	</g>
</g>
<g>
	<g>
		<path d="M227.45,370.493c-1.425-1.562-3.442-2.451-5.556-2.451h-46.265c-3.585,0-6.672,2.529-7.376,6.045l-21.585,107.694    c-0.443,2.211,0.128,4.504,1.558,6.247s3.565,2.755,5.819,2.755h58.038c3.891,0,7.139-2.966,7.493-6.84l9.811-107.694    C229.578,374.143,228.875,372.055,227.45,370.493z"/>
	</g>
</g>
<g>
	<g>
		<path d="M105.945,371.077c-1.42-1.909-3.658-3.034-6.037-3.034h-46.58c-3.074,0-5.839,1.87-6.983,4.724L3.172,480.461    c-0.93,2.318-0.648,4.946,0.751,7.015s3.734,3.308,6.231,3.308h57.373c3.321,0,6.248-2.177,7.205-5.357l32.379-107.694    C107.798,375.454,107.365,372.986,105.945,371.077z"/>
	</g>
</g>
<g>
	<g>
		<path d="M503.846,251.89c-8.02-4.894-18.489-2.359-23.384,5.662l-21.794,35.717l-29.118-24.862l-15.675-64.905l23.089,1.642    l-0.856,42.231c-0.158,7.828,6.059,14.303,13.887,14.462c0.098,0.002,0.195,0.003,0.294,0.003c7.696,0,14.012-6.159,14.169-13.89    l1.129-55.705c0.152-7.549-5.637-13.893-13.169-14.429c-53.018-3.769-46.599-3.326-47.669-3.365    c-4.948-6.072-13.107-9.12-21.23-7.159l-29.28,7.072c-11.278,2.724-18.213,14.075-15.489,25.352l0.295,1.221l23.058-15.311    l-26.988,31.392l-39.782-12.47c-7.505-2.349-15.491,1.824-17.843,9.327c-2.352,7.503,1.824,15.491,9.327,17.843l48.726,15.274    c5.424,1.701,11.344,0.01,15.053-4.303l33.099-38.498l-22.256,47.818c-1.767,3.797-4.591,6.757-7.949,8.729l5.226,21.637    l-20.418,54.295c-0.891,2.366-1.241,4.901-1.029,7.42l6.187,73.24c0.791,9.372,9.035,16.313,18.384,15.52    c9.363-0.79,16.311-9.022,15.52-18.384l-5.864-69.414l18.949-50.389l14.938-2.153c4.67,3.988,41.305,35.268,46.369,39.592    c7.978,6.812,20.131,4.837,25.57-4.077l32.188-52.751C514.401,267.253,511.867,256.784,503.846,251.89z"/>
	</g>
</g>
<g>
	<g>
		<circle cx="354.215" cy="130.549" r="31.293"/>
	</g>
</g>
<g>
	<g>
		<path d="M296.763,111.345h-22.075V69.019c0-26.401-52.723-47.803-117.758-47.803S39.172,42.618,39.172,69.019v42.325H17.097    C7.67,111.345,0,119.014,0,128.441v71.373c0,9.427,7.67,17.096,17.097,17.096h22.076v54.609H36.76    c-8.617,0-15.602,6.986-15.602,15.602c0,8.617,6.986,15.602,15.602,15.602h23.119v24.898c0,7.15,5.797,12.947,12.947,12.947    h24.565c7.15,0,12.947-5.797,12.947-12.947v-24.898h93.189v24.898c0,7.15,5.797,12.947,12.947,12.947h24.565    c7.15,0,12.947-5.797,12.947-12.947v-24.898h23.119c8.615,0.001,15.601-6.985,15.601-15.602c0-8.616-6.986-15.602-15.602-15.602    h-2.413v-30.021c-9.908-6.945-14.655-19.739-10.842-31.901c1.957-6.245,5.867-11.334,10.842-14.819v-68.494h22.075    c1.19,0,2.158,0.968,2.158,2.158v62.267c1.002,0.287-1.705-0.553,14.938,4.664v-66.93    C313.86,119.014,306.19,111.345,296.763,111.345z M39.173,201.971L39.173,201.971L39.173,201.971l-22.076,0    c-1.19,0-2.158-0.968-2.158-2.158v-71.373c0-1.19,0.969-2.158,2.158-2.158h22.076V201.971z M83.956,54.366    c0-5.108,4.141-9.248,9.248-9.248h127.453c5.108,0,9.248,4.14,9.248,9.248V79.36c0,5.108-4.141,9.248-9.248,9.248H93.204    c-5.108,0-9.248-4.141-9.248-9.248V54.366z M83.234,261.559c-10.084,0-18.258-8.175-18.258-18.258    c0-10.084,8.175-18.258,18.258-18.258s18.258,8.175,18.258,18.258C101.492,253.384,93.318,261.559,83.234,261.559z     M148.299,195.83h-81.75c-5.684,0-10.291-4.608-10.291-10.291v-68.385c0-5.684,4.608-10.291,10.291-10.291H148.3L148.299,195.83z     M230.626,261.559c-10.084,0-18.258-8.175-18.258-18.258c0-10.084,8.175-18.258,18.258-18.258s18.258,8.175,18.258,18.258    C248.885,253.384,240.71,261.559,230.626,261.559z M258.093,185.54c0,5.684-4.608,10.291-10.291,10.291h-82.24v-88.966h82.24    c5.684,0,10.291,4.608,10.291,10.291V185.54z"/>
	</g>
</g>
<g>
</g>
<g>
</g>
<g>
</g>
<g>
</g>
<g>
</g>
<g>
</g>
<g>
</g>
<g>
</g>
<g>
</g>
<g>
</g>
<g>
</g>
<g>
</g>
<g>
</g>
<g>
</g>
<g>
</g>
</svg>
