<?xml version="1.0" encoding="iso-8859-1"?>
<!-- Generator: Adobe Illustrator 19.0.0, SVG Export Plug-In . SVG Version: 6.00 Build 0)  -->
<svg xmlns="http://www.w3.org/2000/svg" xmlns:xlink="http://www.w3.org/1999/xlink" version="1.1" id="Capa_1" x="0px" y="0px" viewBox="0 0 512 512" style="enable-background:new 0 0 512 512;" xml:space="preserve">
<g>
	<g>
		<path d="M420.153,196.544v9.174h0.001c0,1.973-1.357,3.685-3.277,4.137l-35.377,8.32l-33.64-8.294    c-1.898-0.468-3.233-2.171-3.233-4.127v-3.9l-11.942,2.122c0,0,0.008,214.405,0.008,238.028c0,12.216,9.903,22.118,22.118,22.118    c12.216,0,22.118-9.903,22.118-22.118v-176.79h9.549v176.792c0,12.216,9.903,22.118,22.118,22.118    c12.216,0,21.917-9.903,21.917-22.118c0-139.346,0-237.99,0-244.363L420.153,196.544z"/>
	</g>
</g>
<g>
	<g>
		<circle cx="381.953" cy="38.2" r="38.2"/>
	</g>
</g>
<g>
	<g>
		<path d="M501.299,159.75l-50.755-58.642c-6.893-7.964-16.886-12.531-27.42-12.531c-7.53,0-75.703,0-86.764,0    c-13.484,0-25.884,6.774-33.171,18.121c-21.002,32.708-31.442,48.956-36.702,57.152c16.788,4.221,30.59,16.092,37.429,31.657    c10.081-1.796,24.163-4.307,43.934-7.82c10.023-1.781,16.704-11.349,14.924-21.371c-1.781-10.022-11.346-16.704-21.372-14.924    l-25.754,4.575l-0.323,0.057c10.47-16.305,17.36-27.037,17.36-27.037v10.357l6.376-1.132c1.87-0.332,3.73-0.484,5.566-0.486    c0-7.869,0-10.398,0-11.851c0-1.307,0.601-2.541,1.63-3.347c1.029-0.805,2.371-1.093,3.64-0.78    c21.487,5.297,11.663,2.875,31.602,7.791c3.429-0.806,23.438-5.513,33.427-7.862c1.264-0.298,2.594,0,3.612,0.805    c1.018,0.805,1.615,2.033,1.615,3.331c0,0.005,0,0.009,0,0.014c0,1.069,0,1.472,0,1.521v0.002c0,1.051,0,2.741,0,5.37    c1.131,0.001,2.274,0.059,3.424,0.183l6.328,0.685l12.857,14.855c-7.706-0.834-7.815-0.846-20.625-2.232    c-10.115-1.1-19.213,6.22-20.308,16.341c-1.095,10.12,6.221,19.212,16.341,20.307c9.274,1.004,57.958,6.272,67.208,7.272    C502.103,191.953,512.12,172.284,501.299,159.75z"/>
	</g>
</g>
<g>
	<g>
		<path d="M209.166,99.535c-21.337,0-38.635,17.298-38.635,38.635c0,9.889,3.72,18.906,9.83,25.739    c-4.91-0.001,50.243,0.02,57.591,0.02c6.093-6.805,9.849-15.84,9.849-25.76C247.801,116.832,230.503,99.535,209.166,99.535z"/>
	</g>
</g>
<g>
	<g>
		<path d="M88.797,98.174c-22.088,0-39.994,17.906-39.994,39.994c0,9.696,3.451,18.584,9.191,25.507c9.385,0,55.193,0,61.607,0    c5.739-6.923,9.191-15.811,9.191-25.507C128.791,116.08,110.885,98.174,88.797,98.174z"/>
	</g>
</g>
<g>
	<g>
		<path d="M132.567,178.975c-2.408,0-51.467,0-87.085,0c-21.554,0-39.176,17.265-39.283,38.567v120.078    c0,9.027,7.317,16.344,16.344,16.344c9.027,0,16.344-7.318,16.344-16.344V217.624c0-0.001,0-0.002,0-0.003    c0.01-1.825,1.495-3.297,3.32-3.291c1.825,0.005,3.3,1.486,3.3,3.311l0.007,274.744c0,10.832,8.782,19.614,19.614,19.614    s19.614-8.782,19.614-19.614V335.612h8.468v156.774c0,10.832,8.782,19.614,19.614,19.614s19.614-8.782,19.614-19.614    c0-73.488-0.338-198.711-0.355-274.826c0-1.824,1.475-3.305,3.3-3.31c1.824-0.005,3.309,1.466,3.319,3.291c0,0,0,0.001,0,0.002    v120.078c0.002,9.027,7.321,16.344,16.347,16.344c9.027,0,16.344-7.318,16.344-16.344V217.461    C171.288,196.241,153.87,178.975,132.567,178.975z"/>
	</g>
</g>
<g>
	<g>
		<path d="M252.935,178.975c-10.505,0-72.991,0-82.701,0c10.106,9.791,16.382,23.428,16.457,38.409v0.038v0.038    c0,6.708,0,113.374,0,120.161c0,13.643-8.68,25.298-20.807,29.731v125.033c0,10.832,8.782,19.614,19.614,19.614    s19.614-8.782,19.614-19.614V335.612h8.468v156.774c0,10.832,8.782,19.614,19.614,19.614c10.832,0,19.614-8.782,19.614-19.614    c0-214.286,0-265.393,0-276.802c0-1.701,1.379-3.08,3.08-3.08c1.759,0,3.185,1.426,3.185,3.185v121.933    c0,9.027,7.318,16.344,16.344,16.344c9.027,0,16.344-7.318,16.344-16.344V217.461C291.657,196.16,274.151,178.975,252.935,178.975    z"/>
	</g>
</g>
<g>
</g>
<g>
</g>
<g>
</g>
<g>
</g>
<g>
</g>
<g>
</g>
<g>
</g>
<g>
</g>
<g>
</g>
<g>
</g>
<g>
</g>
<g>
</g>
<g>
</g>
<g>
</g>
<g>
</g>
</svg>
