<?xml version="1.0" encoding="iso-8859-1"?>
<!-- Generator: Adobe Illustrator 19.0.0, SVG Export Plug-In . SVG Version: 6.00 Build 0)  -->
<svg xmlns="http://www.w3.org/2000/svg" xmlns:xlink="http://www.w3.org/1999/xlink" version="1.1" id="Capa_1" x="0px" y="0px" viewBox="0 0 512 512" style="enable-background:new 0 0 512 512;" xml:space="preserve">
<g>
	<g>
		<path d="M334.555,137.412c-18.717,0-34.113,14.227-35.961,32.457l10.062,0.703c19.944,1.393,35.097,18.29,34.524,38.091    c15.798-3.869,27.522-18.113,27.522-35.103C370.702,153.597,354.519,137.412,334.555,137.412z"/>
	</g>
</g>
<g>
	<g>
		<path d="M307.415,188.384l-66.518-4.644l-29.509-51.918l26.616,27.647l-7.247-39.605c-2.298-12.561-12.483-21.64-24.32-21.64    c-15.244,0-25.965,0-42.885,0c-11.861,0-22.016,9.053-24.32,21.64l-37.908,207.172c-1.291,7.056,3.725,13.629,10.34,13.629    c5.491,0,12.47,0,20.423,0v47.293L109.9,481.691c-3.134,13.237,5.057,26.508,18.294,29.641    c13.253,3.135,26.512-5.072,29.641-18.295l22.851-96.532c0.441-1.859,0.662-3.763,0.662-5.674v-50.166c3.121,0,6.248,0,9.365,0    l12.325,46.525l4.313,101.222c0.577,13.547,12.013,24.135,25.657,23.56c4.727-0.202,9.085-1.725,12.737-4.196    c-2.711-6.73-3.392-14.348-1.47-21.92l10.509-41.407l-2.643-62.029c-0.076-1.776-0.343-3.54-0.799-5.259l-9.668-36.496    c3.423,0,6.63,0,9.58,0c-5.428-2.862-9.86-7.657-12.154-13.865c-4.935-13.358,1.892-28.187,15.25-33.122l7.69-2.841l-9.095-49.709    c-9.087-0.634-14.125-0.987-33.819-2.362c-10.767-0.752-19.451-8.323-22.165-18.168l-19.092-69.728l34.617,60.906    c3.189,5.612,8.976,9.255,15.416,9.704c82.014,5.726,77.123,5.412,78.191,5.412c10.034,0,18.501-7.771,19.21-17.935    C326.044,198.336,318.036,189.125,307.415,188.384z"/>
	</g>
</g>
<g>
	<g>
		<circle cx="217.435" cy="42.536" r="42.536"/>
	</g>
</g>
<g>
	<g>
		<path d="M397.169,277.193v-31.238c0-5.895-4.778-10.673-10.673-10.673h-21.394c-2.741-6.535-8.779-10.926-15.656-10.926    c-3.769,0-7.093,0-10.221,0c-5.098,10.086-14.803,17.663-26.458,19.79c-4.966,0.906-8.581,0.56-10.931,0.395l-6.2,33.882    l0.688-0.254l15.314-29.26l-9.56,40.352l-43.432,16.048c-6.934,2.562-10.479,10.26-7.916,17.196    c2.562,6.937,10.263,10.477,17.195,7.917l50.164-18.535c4.204-1.554,7.353-5.109,8.386-9.471l11.213-47.332l0.851,50.19    c0.127,7.494-4.558,13.95-11.206,16.42c-6.577,2.423,0.813-0.305-42.485,15.692c-7.178,39.231-6.33,34.594-8.391,45.855    c-0.898,4.914,2.582,9.464,7.18,9.464c1.986,0,4.264,0,6.761,0l-7.904,17.969c-0.381,0.866-0.69,1.761-0.922,2.679l-19.546,77.012    c-2.323,9.155,3.215,18.461,12.37,20.785c9.136,2.323,18.457-3.2,20.785-12.37l19.196-75.635l13.389-30.439c2.8,0,5.619,0,8.434,0    c0,14.698,0,22.733,0,33.514c0,2.159,0.409,4.299,1.205,6.306l27.109,68.353c3.483,8.779,13.42,13.075,22.203,9.593    c8.781-3.483,13.076-13.424,9.593-22.204l-25.905-65.315v-30.246c5.888,0,11.055,0,15.069,0c4.496,0,8.095-4.464,7.18-9.464    c-4.532-24.765-8.673-47.397-8.673-47.397h2.513c5.375,0,9.809-3.978,10.552-9.146c0.041,0,0.08,0.006,0.121,0.006    c7.572,0,13.71-6.138,13.71-13.71v-22.089C410.879,283.331,404.741,277.193,397.169,277.193z"/>
	</g>
</g>
<g>
</g>
<g>
</g>
<g>
</g>
<g>
</g>
<g>
</g>
<g>
</g>
<g>
</g>
<g>
</g>
<g>
</g>
<g>
</g>
<g>
</g>
<g>
</g>
<g>
</g>
<g>
</g>
<g>
</g>
</svg>
