<?xml version="1.0" encoding="iso-8859-1"?>
<!-- Generator: Adobe Illustrator 19.0.0, SVG Export Plug-In . SVG Version: 6.00 Build 0)  -->
<svg xmlns="http://www.w3.org/2000/svg" xmlns:xlink="http://www.w3.org/1999/xlink" version="1.1" id="Capa_1" x="0px" y="0px" viewBox="0 0 512.001 512.001" style="enable-background:new 0 0 512.001 512.001;" xml:space="preserve">
<g>
	<g>
		<circle cx="389.011" cy="83.789" r="41.414"/>
	</g>
</g>
<g>
	<g>
		<path d="M485.36,479.555l-39-103.455l-4.211-65.994c0-5.965,0-136.898,0-142.922c0-14.322-10.024-27.977-26.854-27.977h-44.48    c-14.065,0-25.63,12.439-25.63,27.977v65.421l9.367-2.408l30.707-45.85l-20.819,59.815l-66.947,17.208    c-11.245,2.891-17.74,14.773-13.912,25.884c3.365,9.767,13.721,15.431,23.862,12.824l77.325-19.875    c6.384-1.642,11.664-6.369,13.898-12.786l22.99-66.052l-7.089,67.717c-0.807,7.712-9.123,22.313-25.819,26.604    c-6.832,1.756-40.562,10.425-47.211,12.135l-9.913,70.022c-0.158,1.113-0.236,2.236-0.236,3.361v106.809    c0,13.243,10.736,23.98,23.98,23.98c13.244,0,23.98-10.737,23.98-23.98v-105.12c1.237-8.739,8.973-63.381,10.217-72.166h4.624    c0.001,1.256-0.284-3.611,4.541,72.004c0.151,2.372,0.654,4.707,1.493,6.932l40.266,106.81    c4.674,12.403,18.517,18.648,30.897,13.98C483.774,505.78,490.033,491.947,485.36,479.555z"/>
	</g>
</g>
<g>
	<g>
		<circle cx="108.528" cy="42.315" r="42.315"/>
	</g>
</g>
<g>
	<g>
		<path d="M243.632,153.037c2.339-8.585,18.67-68.549,20.976-77.017c0.001-0.001-18.707-23.132-18.708-23.133    c-1.796-2.217-5.491-1.574-6.28,1.32l-8.945,32.841l-8.561,2.782c-3.848,1.251-6.807,4.356-7.87,8.26    c-14.428,52.973-6.702,24.609-15.803,58.024c-19.689,4.409-15.174,3.398-35.389,7.924l-42.899-41.099l38.03,21.492l-4.124-22.543    c-2.286-12.496-12.418-21.528-24.194-21.528c-15.165,0-25.831,0-42.663,0c-11.8,0-21.903,9.006-24.194,21.528L25.296,327.991    c-1.287,7.034,3.719,13.559,10.287,13.559c5.463,0,12.405,0,20.317,0v47.049l-22.074,93.249    c-3.118,13.168,5.031,26.371,18.2,29.489c13.192,3.12,26.377-5.052,29.489-18.2l22.733-96.033    c0.438-1.849,0.659-3.744,0.659-5.645v-49.909c3.105,0,6.216,0,9.317,0l12.261,46.284l4.29,100.701    c0.576,13.52,12.003,24.015,25.523,23.438c13.52-0.576,24.014-12.004,23.438-25.523l-4.404-103.36    c-0.075-1.768-0.342-3.521-0.795-5.232l-9.618-36.307c6.361,0,11.984,0,16.563,0c6.596,0,11.573-6.528,10.287-13.559    l-19.841-108.432c-8.149,1.825-6.267,1.403-13.976,3.13c-10.478,2.347-20.91-2.401-26.299-11.015l-38.035-61.039l50.324,48.212    c4.629,4.435,11.176,6.273,17.457,4.867c8.473-1.897,66.31-14.848,74.766-16.742c10.336-2.315,16.838-12.569,14.523-22.904    C249.666,159.494,247.084,155.678,243.632,153.037z"/>
	</g>
</g>
<g>
</g>
<g>
</g>
<g>
</g>
<g>
</g>
<g>
</g>
<g>
</g>
<g>
</g>
<g>
</g>
<g>
</g>
<g>
</g>
<g>
</g>
<g>
</g>
<g>
</g>
<g>
</g>
<g>
</g>
</svg>
