<?xml version="1.0" encoding="iso-8859-1"?>
<!-- Generator: Adobe Illustrator 19.0.0, SVG Export Plug-In . SVG Version: 6.00 Build 0)  -->
<svg xmlns="http://www.w3.org/2000/svg" xmlns:xlink="http://www.w3.org/1999/xlink" version="1.1" id="Capa_1" x="0px" y="0px" viewBox="0 0 512.002 512.002" style="enable-background:new 0 0 512.002 512.002;" xml:space="preserve">
<g>
	<g>
		<path d="M511.455,472.258l-44.003-109.765c-1.158-2.89-3.958-4.783-7.07-4.783h-39.241l7.479,29.465    c2.817,11.097-0.652,22.312-8.165,29.89l18.106,60.22c0.969,3.22,3.933,5.424,7.295,5.424h58.528c2.528,0,4.893-1.255,6.31-3.349    C512.111,477.266,512.396,474.605,511.455,472.258z"/>
	</g>
</g>
<g>
	<g>
		<path d="M365.302,473.595l-18.438-91.984l-9.87,24.89c-6.4,16.138-24.674,24.038-40.818,17.635    c-4.031-1.598-7.547-3.938-10.456-6.799l5.325,58.446c0.357,3.923,3.647,6.926,7.586,6.926h59.202    c2.283,0,4.445-1.023,5.892-2.789C365.171,478.155,365.751,475.833,365.302,473.595z"/>
	</g>
</g>
<g>
	<g>
		<path d="M288.631,357.71c-2.141,0-4.183,0.901-5.626,2.482c-1.443,1.581-2.155,3.696-1.961,5.828l0.813,8.933l6.839-17.243    H288.631z"/>
	</g>
</g>
<g>
	<g>
		<path d="M412.86,391.172l-17.352-68.362c-0.207-0.814-0.481-1.609-0.82-2.378l-7.015-15.951c2.217,0,4.237,0,6.001,0    c4.086,0,7.172-4.045,6.373-8.401c-1.504-8.218-2.531-13.83-3.875-21.177c-6.616,2.192-14.14,1.371-20.298-2.921    c-5.819-4.056-36.869-25.702-42.762-29.809c-5.279-3.679-7.706-10.377-5.977-16.625c2.723-9.77,9.241-33.155,11.964-42.925    l-0.96,43.17c-0.088,3.978,1.821,7.737,5.084,10.013l38.944,27.149c5.385,3.754,12.792,2.43,16.544-2.952    c3.753-5.384,2.43-12.789-2.952-16.543l-33.719-23.506l0.82-36.802l6.607,28.562l17.359,12.1l-10.143-55.436    c-1.417-7.743-7.695-13.339-14.991-13.339c-9.397,0-16.006,0-26.434,0c-6.106,0-11.466,3.898-13.898,9.699h-18.992    c-5.232,0-9.475,4.242-9.475,9.475v27.731c-6.721,0-12.171,5.449-12.171,12.171v19.608c0,6.721,5.449,12.171,12.171,12.171    c0.037,0,0.072-0.005,0.108-0.005c0.659,4.589,4.595,8.119,9.366,8.119h2.231l-7.699,42.074c-0.813,4.447,2.398,8.401,6.373,8.401    c3.563,0,8.151,0,13.378,0v26.85l-22.996,57.981c-3.091,7.794,0.721,16.619,8.515,19.711c7.791,3.091,16.618-0.72,19.711-8.516    l24.066-60.677c0.706-1.781,1.07-3.681,1.07-5.598c0-9.572,0-16.703,0-29.75c2.499,0,5,0,7.486,0l11.886,27.021l17.041,67.141    c2.063,8.125,10.321,13.044,18.451,10.981C410.007,407.56,414.922,399.299,412.86,391.172z"/>
	</g>
</g>
<g>
	<g>
		<path d="M201.078,396.813l-6.342-39.104H173.71l-6.247,12.289l-20.764,103.596c-0.448,2.238,0.13,4.56,1.577,6.326    c1.447,1.766,3.61,2.789,5.892,2.789h59.202c3.939,0,7.228-3.003,7.586-6.926l4.624-50.753    C213.14,421.152,203.306,410.549,201.078,396.813z"/>
	</g>
</g>
<g>
	<g>
		<path d="M85.256,375.045l8.813-17.335H51.621c-3.113,0-5.912,1.894-7.07,4.783L0.547,472.257    c-0.941,2.347-0.656,5.008,0.761,7.103c1.417,2.094,3.781,3.349,6.31,3.349h58.528c3.362,0,6.327-2.204,7.295-5.424l18.357-61.056    C81.224,405.657,78.115,389.096,85.256,375.045z"/>
	</g>
</g>
<g>
	<g>
		<path d="M254.837,388.094l-13.254-81.721c-0.289-1.783-0.832-3.515-1.612-5.144l-15.69-32.81l-58.336-32.379l-5.142-2.926    c-7.352-4.183-10.918-12.477-9.497-20.353l10.162-55.734l3.798,54.766c0.35,5.047,3.202,9.583,7.599,12.086l52.457,29.847    c7.249,4.125,16.473,1.595,20.601-5.659c4.126-7.251,1.592-16.474-5.658-20.601l-45.417-25.842l-3.238-46.686l11.682,35.392    l15.656,8.908l3.99-50.421c1.088-13.759-9.183-25.795-22.942-26.884l-31.629-2.502c-9.375-0.741-17.946,3.793-22.803,11.109    h-25.244c-5.232,0-9.475,4.242-9.475,9.474v37.985h-3.354c-6.721,0-12.171,5.449-12.171,12.171v31.722    c0,6.721,5.449,12.171,12.171,12.171h3.354v0.875c0,3.889,2.345,7.226,5.696,8.686c1.158,0.504,2.435,0.788,3.779,0.788h12.164    v74.219l-32.486,63.909c-4.746,9.336-1.023,20.751,8.313,25.497c9.343,4.749,20.754,1.017,25.498-8.313l34.542-67.958    c1.353-2.662,2.058-5.606,2.058-8.593v-62.228l8.209-0.109c4.086,8.546,23.191,48.5,25.965,54.3l12.819,79.032    c1.677,10.331,11.405,17.358,21.754,15.682C249.492,408.172,256.514,398.432,254.837,388.094z"/>
	</g>
</g>
<g>
	<g>
		<circle cx="189.692" cy="67.477" r="38.185"/>
	</g>
</g>
<g>
	<g>
		<circle cx="348.47" cy="109.943" r="32.088"/>
	</g>
</g>
<g>
</g>
<g>
</g>
<g>
</g>
<g>
</g>
<g>
</g>
<g>
</g>
<g>
</g>
<g>
</g>
<g>
</g>
<g>
</g>
<g>
</g>
<g>
</g>
<g>
</g>
<g>
</g>
<g>
</g>
</svg>
