<?xml version="1.0" encoding="iso-8859-1"?>
<!-- Generator: Adobe Illustrator 19.0.0, SVG Export Plug-In . SVG Version: 6.00 Build 0)  -->
<svg xmlns="http://www.w3.org/2000/svg" xmlns:xlink="http://www.w3.org/1999/xlink" version="1.1" id="Capa_1" x="0px" y="0px" viewBox="0 0 512.001 512.001" style="enable-background:new 0 0 512.001 512.001;" xml:space="preserve">
<g>
	<g>
		<path d="M162.112,174.288l41.225-3.594c5.204-0.453,9.985-3.055,13.192-7.179l44.73-57.522c6.365-8.184,4.889-19.981-3.297-26.347    c-8.19-6.368-19.983-4.889-26.349,3.295l-39.701,51.054l-39.976,3.485c-2.898-1.795-0.418-0.626-50.657-20.805    c-14.347-5.763-30.65,1.197-36.413,15.544L15.563,257.518c-2.156,5.479-2.815,11.432-1.908,17.249l12.474,80.104L0.751,449.588    c-3.126,11.668,3.798,23.659,15.464,26.786c11.671,3.125,23.661-3.802,26.786-15.466l26.614-99.327    c0.815-3.039,0.964-6.217,0.438-9.318l-11.501-67.79l4.756,1.91l45.996,72.238v96.103c0,11.86,9.222,21.96,21.075,22.38    c12.442,0.441,22.667-9.513,22.667-21.857v-103c0-0.193-0.024-0.379-0.029-0.571c-0.103-4.067-1.348-7.962-3.393-11.176    l-33.278-52.265l9.487-23.621c-15.2-4.548-22.679-18.139-23.317-25.443l-5.675-64.966l20.928,63.634    c1.943,5.903,6.72,10.547,12.851,12.236l72.322,19.92c10.012,2.756,20.338-3.133,23.088-13.116    c2.792-10.135-3.292-20.383-13.116-23.088l-62.617-17.247l-18.953-57.626l22.766,35.29L162.112,174.288z"/>
	</g>
</g>
<g>
	<g>
		<circle cx="152.133" cy="76.317" r="41.442"/>
	</g>
</g>
<g>
	<g>
		<circle cx="438.833" cy="138.53" r="36.197"/>
	</g>
</g>
<g>
	<g>
		<path d="M511.47,455.778l-19.577-77.12c-0.232-0.917-0.541-1.815-0.923-2.681l-7.915-17.994c2.5,0,4.781,0,6.77,0    c4.611,0,8.089-4.562,7.19-9.477l-4.371-23.89c-7.463,2.473-15.951,1.548-22.898-3.295c-5.338-3.721-43.163-30.088-48.24-33.628    c-6.157-4.292-8.636-11.91-6.742-18.755l13.497-48.423l-1.083,48.7c-0.099,4.488,2.054,8.728,5.735,11.294l43.932,30.626    c6.075,4.235,14.43,2.741,18.663-3.33c4.234-6.074,2.742-14.428-3.33-18.661l-38.038-26.516l0.924-41.515l7.453,32.219    l19.582,13.65l-11.443-62.535c-1.599-8.735-8.68-15.047-16.911-15.047c-10.6,0-18.055,0-29.821,0    c-6.888,0-12.934,4.397-15.679,10.941h-21.424c-5.903,0-10.688,4.785-10.688,10.688v31.283c-7.583,0-13.73,6.147-13.73,13.73    v22.12c0,7.583,6.147,13.729,13.73,13.729c0.041,0,0.08-0.006,0.122-0.006c0.744,5.176,5.183,9.16,10.567,9.16h2.517    l-8.684,47.464c-0.897,4.905,2.589,9.477,7.19,9.477c4.02,0,9.195,0,15.09,0v30.288l-25.941,65.406    c-3.487,8.793,0.813,18.748,9.607,22.236c8.789,3.487,18.747-0.813,22.235-9.607l27.148-68.449    c0.797-2.01,1.207-4.152,1.207-6.314v-33.56c2.82,0,5.642,0,8.445,0l13.407,30.483l19.225,75.74    c2.326,9.166,11.642,14.714,20.815,12.386C508.252,474.266,513.797,464.947,511.47,455.778z"/>
	</g>
</g>
<g>
</g>
<g>
</g>
<g>
</g>
<g>
</g>
<g>
</g>
<g>
</g>
<g>
</g>
<g>
</g>
<g>
</g>
<g>
</g>
<g>
</g>
<g>
</g>
<g>
</g>
<g>
</g>
<g>
</g>
</svg>
