<?xml version="1.0" encoding="iso-8859-1"?>
<!-- Generator: Adobe Illustrator 19.0.0, SVG Export Plug-In . SVG Version: 6.00 Build 0)  -->
<svg xmlns="http://www.w3.org/2000/svg" xmlns:xlink="http://www.w3.org/1999/xlink" version="1.1" id="Capa_1" x="0px" y="0px" viewBox="0 0 511.999 511.999" style="enable-background:new 0 0 511.999 511.999;" xml:space="preserve">
<g>
	<g>
		<path d="M427.397,220.916v9.062h0.002c0,1.948-1.341,3.641-3.237,4.086l-34.945,8.218l-33.229-8.192    c-1.875-0.462-3.194-2.145-3.194-4.076v-3.852l-11.795,2.096c0,0,0.008,211.784,0.008,235.118    c0,12.066,9.781,21.848,21.848,21.848c12.066,0,21.848-9.781,21.848-21.848v-174.63h9.432v174.631    c0,12.066,9.781,21.848,21.848,21.848s21.649-9.781,21.649-21.848c0-137.643,0-235.08,0-241.376L427.397,220.916z"/>
	</g>
</g>
<g>
	<g>
		<circle cx="389.667" cy="64.508" r="37.734"/>
	</g>
</g>
<g>
	<g>
		<path d="M507.552,184.572l-50.135-57.926c-6.808-7.866-16.681-12.378-27.084-12.378c-7.437,0-74.777,0-85.703,0    c-13.319,0-25.567,6.692-32.766,17.9c-40.559,63.165-41.25,64.199-41.756,65.11c-6.771,12.205,2.182,27.034,15.898,27.034    c2.314,0-2.538,0.737,69.974-12.146c9.9-1.759,16.5-11.21,14.741-21.11c-1.759-9.9-11.207-16.5-21.11-14.741l-25.44,4.52    l-0.319,0.056C334.194,164.786,341,154.185,341,154.185v10.231l6.299-1.119c1.847-0.328,3.684-0.478,5.498-0.48    c0-7.773,0-10.27,0-11.706c0-1.291,0.594-2.51,1.611-3.305s2.342-1.08,3.596-0.771c21.224,5.233,11.519,2.84,31.216,7.696    c3.387-0.797,23.152-5.444,33.019-7.766c1.248-0.294,2.562,0,3.567,0.796s1.595,2.009,1.595,3.29c0,0.005,0,0.009,0,0.014    c0,1.057,0,1.455,0,1.503c0,0,0,0.001,0,0.001c0,1.038,0,2.708,0,5.305c1.117,0.001,2.246,0.058,3.382,0.181l6.25,0.676    l12.7,14.674c-7.611-0.824-7.72-0.835-20.373-2.204c-9.991-1.087-18.978,6.145-20.06,16.142    c-1.081,9.997,6.146,18.978,16.142,20.059c9.161,0.991,57.249,6.195,66.386,7.183    C508.347,216.381,518.241,196.953,507.552,184.572z"/>
	</g>
</g>
<g>
	<g>
		<circle cx="133.66" cy="161.436" r="37.949"/>
	</g>
</g>
<g>
	<g>
		<path d="M275.981,302.201c-6.586,0-58.304,0-66.586,0c3.23-3.216,5.193-7.691,5.07-12.606c-0.224-8.864-7.139-15.96-15.764-16.692    l-14.457-37.532c-1.525-3.961-5.976-5.937-9.935-4.41c-3.961,1.525-5.936,5.974-4.41,9.935l12.445,32.309l-36.247,0.913    l-13.127-40.895l15.339,26.415l0.307-19.496c0.252-15.994-12.594-29.13-28.583-29.245l-12.305-0.088    c-23.818-0.171-43.203,19.143-43.139,42.948c0.249,90.737-0.019,85.259,0.872,89.422c2.105,9.825,9.21,18.002,19.049,21.281    H70.195H49.549L24.734,238.218c-1.273-6.484-7.424-10.882-14.016-9.934c-0.214,0.031-0.427,0.05-0.641,0.093    c-6.765,1.33-11.171,7.891-9.841,14.658L27.032,379.35c1.151,5.849,6.28,10.076,12.25,10.076h7.09    c-0.78,2.34-1.286,4.808-1.464,7.368l-5.38,77.307c-0.399,5.731,3.924,10.701,9.656,11.1c0.246,0.017,0.49,0.025,0.732,0.025    c5.416,0,9.986-4.196,10.367-9.682l5.38-77.306c0.336-4.832,4.393-8.616,9.235-8.616h31.047c4.94,0,9.002,3.865,9.247,8.799    l2.295,46.165c2.928-7.398,21.956-55.485,24.776-62.61h-0.057c2.515-6.143,5.539-13.85,5.539-13.85    c-0.426-0.427-0.893-0.813-1.376-1.175l18.006-0.052l-35.631,90.043c-4.193,10.596,0.997,22.583,11.593,26.776    c10.596,4.192,22.584-0.999,26.775-11.593l46.835-118.356c4.098-10.356-0.76-22.214-11.189-26.601c6.337,0,53.877,0,60.741,0    v132.963h-24.251c-6.894,0-12.484,5.588-12.484,12.484c0,6.894,5.589,12.484,12.484,12.484h36.734    c6.894,0,12.484-5.589,12.484-12.484v-157.93C288.465,307.789,282.875,302.201,275.981,302.201z M147.269,325.684l0.079-4.977    c-14.051,0.354-11.08,0.279-18.503,0.465c-11.983,0.302-22.038-8.81-23.188-20.554l-5.427-56.889    c0.128,0.398,17.079,53.199,17.079,53.199c2.272,7.013,8.931,12.059,16.787,11.888l41.454-1.044    c-1.319,1.979-2.09,4.354-2.09,6.911c0,4.467,2.445,8.69,6.415,10.905L147.269,325.684z"/>
	</g>
</g>
<g>
</g>
<g>
</g>
<g>
</g>
<g>
</g>
<g>
</g>
<g>
</g>
<g>
</g>
<g>
</g>
<g>
</g>
<g>
</g>
<g>
</g>
<g>
</g>
<g>
</g>
<g>
</g>
<g>
</g>
</svg>
