<?xml version="1.0" encoding="iso-8859-1"?>
<!-- Generator: Adobe Illustrator 19.0.0, SVG Export Plug-In . SVG Version: 6.00 Build 0)  -->
<svg xmlns="http://www.w3.org/2000/svg" xmlns:xlink="http://www.w3.org/1999/xlink" version="1.1" id="Capa_1" x="0px" y="0px" viewBox="0 0 511.999 511.999" style="enable-background:new 0 0 511.999 511.999;" xml:space="preserve">
<g>
	<g>
		<circle cx="127.96" cy="112.708" r="32.815"/>
	</g>
</g>
<g>
	<g>
		<path d="M108.203,390.296l-11.222-72.567H61.143l12.059,77.979c1.495,9.667,10.543,16.289,20.207,14.794    C103.074,409.007,109.697,399.961,108.203,390.296z"/>
	</g>
</g>
<g>
	<g>
		<path d="M155.615,317.73l0.029,0.016l-11.22,72.551c-1.494,9.665,5.129,18.712,14.794,20.206    c9.671,1.495,18.713-5.135,20.207-14.794l12.059-77.979H155.615z"/>
	</g>
</g>
<g>
	<g>
		<path d="M230.281,267.659h-0.054h-21.263c9.148-1.953,14.559-11.319,11.82-20.162c-3.993-12.893-16.7-53.918-20.532-66.293    c-4.673-15.087-18.424-25.224-34.219-25.224c-8.385,0-62.813,0-70.928,0c-15.794,0-29.545,10.137-34.218,25.224    c-3.834,12.38-16.542,53.41-20.533,66.293c-2.745,8.864,2.693,18.213,11.82,20.162c-11.912,0-21.425,0-34.033,0    c-10.013,0-18.13,8.112-18.141,18.122c0,0.007,0,0.013,0,0.02c0,0.007,0,0.013,0,0.02c0.01,9.506,7.333,17.295,16.646,18.056    c0,5.017,0,110.417,0,115.08c0,7.262,5.888,13.149,13.149,13.149s13.149-5.887,13.149-13.149c0-3.841,0-109.459,0-115.013h163.494    c0,9.842,0,109.459,0,115.013c0,7.262,5.888,13.149,13.149,13.149c7.262,0,13.149-5.887,13.149-13.149    c0-5.681,0-106.324,0-115.183c8.857-1.2,15.686-8.786,15.686-17.972C248.423,275.781,240.301,267.659,230.281,267.659z     M146.75,236.349v-0.001c-2.523,0-4.9,0.605-7.017,1.656c2.351,4.194,3.698,9.027,3.698,14.178c0,5.503-1.543,10.839-4.473,15.478    h-21.246c7.149-1.527,12.511-7.874,12.511-15.478c0-8.745-7.088-15.833-15.833-15.833H76.959    c4.964-16.026,3.89-12.558,8.892-28.709v15.502h28.54c5.99,0,11.556,1.815,16.18,4.923c4.624-3.108,10.189-4.923,16.18-4.923    h28.242v-16.464c3.468,11.196,5.61,18.112,9.19,29.671H146.75z"/>
	</g>
</g>
<g>
	<g>
		<path d="M371.631,390.251l-11.236-72.644H324.52l12.073,78.063c1.499,9.69,10.57,16.306,20.228,14.809    C366.497,408.983,373.127,399.926,371.631,390.251z"/>
	</g>
</g>
<g>
	<g>
		<path d="M419.094,317.607l0.028,0.017l-11.231,72.628c-1.496,9.675,5.134,18.731,14.81,20.228    c9.693,1.495,18.734-5.149,20.228-14.81L455,317.607H419.094z"/>
	</g>
</g>
<g>
	<g>
		<path d="M493.784,267.483H472.43c9.278-1.94,14.631-11.37,11.902-20.184c-2.954-9.538-17.566-56.713-20.555-66.364    c-4.677-15.1-18.437-25.246-34.244-25.251c-8.779,11.956-22.821,19.364-38.13,19.364c-15.482,0-29.25-7.479-37.881-19.014    c-13.656,1.887-25.082,11.415-29.259,24.901c-2.989,9.651-17.6,56.826-20.555,66.364c-2.734,8.83,2.639,18.248,11.902,20.184    c-11.967,0-21.518,0-34.139,0c-10.03,0-18.161,8.131-18.161,18.161c0,9.525,7.336,17.323,16.665,18.086    c0,24.166,0,92.417,0,115.212c0,7.27,5.894,13.163,13.163,13.163s13.163-5.894,13.163-13.163c0-23.334,0-91.124,0-115.136H469.97    c0,24.023,0,91.843,0,115.136c0,7.27,5.894,13.163,13.163,13.163s13.163-5.894,13.163-13.163c0-24.885,0-93.86,0-115.322    c8.864-1.203,15.703-8.781,15.703-17.976C512,275.737,504.012,267.483,493.784,267.483z M410.218,236.138L410.218,236.138    c-2.526,0-4.906,0.606-7.025,1.657c2.354,4.198,3.702,9.037,3.702,14.193c0,5.549-1.564,10.878-4.478,15.495h-21.27    c7.157-1.528,12.527-7.882,12.527-15.495c0-8.754-7.097-15.85-15.851-15.85h-37.472c4.969-16.042,3.894-12.572,8.902-28.741v15.52    h28.57c5.997,0,11.568,1.817,16.197,4.928c4.629-3.112,10.201-4.928,16.197-4.928h28.271v-16.483    c3.482,11.242,5.592,18.053,9.2,29.704H410.218z"/>
	</g>
</g>
<g>
	<g>
		<circle cx="391.4" cy="127.758" r="32.85"/>
	</g>
</g>
<g>
</g>
<g>
</g>
<g>
</g>
<g>
</g>
<g>
</g>
<g>
</g>
<g>
</g>
<g>
</g>
<g>
</g>
<g>
</g>
<g>
</g>
<g>
</g>
<g>
</g>
<g>
</g>
<g>
</g>
</svg>
