<?xml version="1.0" encoding="iso-8859-1"?>
<!-- Generator: Adobe Illustrator 19.0.0, SVG Export Plug-In . SVG Version: 6.00 Build 0)  -->
<svg xmlns="http://www.w3.org/2000/svg" xmlns:xlink="http://www.w3.org/1999/xlink" version="1.1" id="Capa_1" x="0px" y="0px" viewBox="0 0 512 512" style="enable-background:new 0 0 512 512;" xml:space="preserve">
<g>
	<g>
		<path d="M176.04,448.845l-16.953-109.62h-54.136l18.217,117.796c2.258,14.597,15.919,24.606,30.524,22.348    C168.293,477.111,178.298,463.444,176.04,448.845z"/>
	</g>
</g>
<g>
	<g>
		<path d="M247.663,339.225l0.042,0.025l-16.948,109.595c-2.258,14.6,7.747,28.266,22.348,30.524    c14.606,2.258,28.267-7.754,30.524-22.348l18.217-117.796H247.663z"/>
	</g>
</g>
<g>
	<g>
		<path d="M469.496,263.588h-13.548v-1.225c0-12.17-8.833-22.182-20.156-24.311l60.471-130.438c2.58-5.564,0.241-12.17-5.266-14.871    L390.101,43.235c-5.592-2.744-12.352-0.436-15.096,5.158c-1.286,2.62-1.45,5.492-0.699,8.093    c-4.023,1.761-7.468,4.897-9.534,9.159c-1.569,3.236-2.12,6.694-1.819,10.033c-15.516-0.924-30.803,6.677-39.215,20.5    c-0.509,0.837-0.642,1.85-0.365,2.789c0.277,0.94,0.939,1.717,1.821,2.145l70.663,34.245c0.881,0.427,1.901,0.462,2.809,0.097    c0.909-0.365,1.625-1.095,1.965-2.012c5.638-15.167,2.132-31.875-8.207-43.482c2.807-1.833,5.179-4.408,6.748-7.644    c1.34-2.765,1.933-5.692,1.896-8.569l70.085,34.389L411.132,237.61h-15.659c-12.433,0-24.754,9.517-24.754,25.979    c-2.617,0-4.221,0-5.168,0c-0.907,0-1.211,0-1.208,0c-2.853,0-11.714,0-36.093,0c13.821-2.951,21.994-17.099,17.856-30.457    c-6.032-19.475-25.226-81.448-31.017-100.143c-7.059-22.791-27.832-38.103-51.69-38.103h-6.385    c-12.813,14.442-31.286,23.055-51.135,23.055c-20.314,0-38.575-8.914-51.109-23.026c-23.229,0.622-43.292,15.757-50.204,38.073    c-5.792,18.7-24.988,80.68-31.017,100.143c-4.147,13.39,4.067,27.514,17.856,30.457c-17.994,0-32.365,0-51.412,0    c-15.136,0-27.405,12.27-27.405,27.405c0,14.375,11.069,26.156,25.147,27.305c0,7.578,0,166.796,0,173.839    c0,10.97,8.892,19.863,19.863,19.863s19.863-8.892,19.863-19.863c0-5.803,0-165.348,0-173.739h351.006    c0,14.866,0,165.348,0,173.739c0,10.97,8.892,19.863,19.863,19.863s19.863-8.892,19.863-19.863c0-5.803,0-165.348,0-173.739h1.304    c15.162,0,29.912-12.3,29.912-27.405C499.408,275.894,484.664,263.588,469.496,263.588z M234.269,216.289    c-3.811,0-7.402,0.915-10.599,2.501c3.552,6.336,5.586,13.637,5.586,21.418c0,8.32-2.332,16.372-6.757,23.381h-32.096v0    c10.799-2.306,18.902-11.894,18.902-23.381c0-13.21-10.708-23.917-23.917-23.917h-56.544c7.566-24.43,5.879-18.981,13.432-43.371    v23.419h25.219l-9.325-21.24c-2.783-6.338,0.099-13.733,6.438-16.515c6.341-2.782,13.732,0.099,16.515,6.438l14.257,32.474    c5.238,1.221,10.119,3.369,14.449,6.28c6.985-4.695,15.392-7.437,24.44-7.437h42.662v-24.871    c5.226,16.873,8.483,27.391,13.882,44.822H234.269z"/>
	</g>
</g>
<g>
	<g>
		<circle cx="205.879" cy="49.572" r="49.572"/>
	</g>
</g>
<g>
</g>
<g>
</g>
<g>
</g>
<g>
</g>
<g>
</g>
<g>
</g>
<g>
</g>
<g>
</g>
<g>
</g>
<g>
</g>
<g>
</g>
<g>
</g>
<g>
</g>
<g>
</g>
<g>
</g>
</svg>
