<?xml version="1.0" encoding="iso-8859-1"?>
<!-- Generator: Adobe Illustrator 19.0.0, SVG Export Plug-In . SVG Version: 6.00 Build 0)  -->
<svg xmlns="http://www.w3.org/2000/svg" xmlns:xlink="http://www.w3.org/1999/xlink" version="1.1" id="Capa_1" x="0px" y="0px" viewBox="0 0 512.002 512.002" style="enable-background:new 0 0 512.002 512.002;" xml:space="preserve">
<g>
	<g>
		<circle cx="134.993" cy="143.201" r="32.287"/>
	</g>
</g>
<g>
	<g>
		<path d="M115.558,416.329l-11.043-71.401h-35.26l11.866,76.727c1.469,9.498,10.357,16.026,19.882,14.556    C110.512,434.739,117.028,425.838,115.558,416.329z"/>
	</g>
</g>
<g>
	<g>
		<path d="M162.209,344.926l0.027,0.017l-11.039,71.384c-1.47,9.51,5.046,18.411,14.556,19.881    c9.531,1.47,18.413-5.064,19.882-14.556l11.866-76.727H162.209z"/>
	</g>
</g>
<g>
	<g>
		<path d="M235.673,295.662h-0.053h-20.986c9.117-1.908,14.379-11.176,11.696-19.838c-2.173-7.015-17.975-58.033-20.203-65.228    c-4.598-14.844-18.128-24.818-33.668-24.818c-23.261,0-53.575,0-78.145,0c-3.454,0-8.324,0.499-12.821,2.731l-34.912,13.584    l-15.827-67.801c-1.956-8.379-10.337-13.583-18.713-11.63c-8.379,1.956-13.585,10.334-11.63,18.713l19.911,85.29    c2.165,9.273,12.036,14.394,20.82,10.977l52.422-20.397c0,0,0,71.217,0,78.417h-66.62c-9.858,0-17.85,7.992-17.85,17.849v0.001    v0.001c0.001,9.362,7.211,17.025,16.38,17.775c0,11.931,0,94.906,0,113.239c0,7.145,5.793,12.938,12.938,12.938    c7.145,0,12.938-5.793,12.938-12.938c0-17.874,0-101.631,0-113.165h160.867c0,11.846,0,94.826,0,113.165    c0,7.145,5.793,12.938,12.938,12.938c7.145,0,12.938-5.793,12.938-12.938c0-17.864,0-101.55,0-113.347    c8.712-1.182,15.434-8.631,15.434-17.668C253.523,303.654,245.532,295.662,235.673,295.662z M153.483,264.853L153.483,264.853    c-8.604,0.001-15.579,6.976-15.579,15.58c0,7.482,5.277,13.727,12.311,15.23h-20.904c-2.784-4.41-4.402-9.629-4.402-15.23    c0-15.729,12.761-28.574,28.574-28.574h27.788v-16.2c3.416,11.029,5.511,17.792,9.043,29.194H153.483z"/>
	</g>
</g>
<g>
	<g>
		<circle cx="347.239" cy="86.824" r="32.287"/>
	</g>
</g>
<g>
	<g>
		<path d="M362.501,295.662c-9.858,0-17.85,7.992-17.85,17.85c0,9.362,7.211,17.026,16.38,17.776v113.239    c0,7.145,5.793,12.938,12.938,12.938c7.145,0,12.938-5.793,12.938-12.938V331.363h125.096v-35.701H362.501z"/>
	</g>
</g>
<g>
	<g>
		<g>
			<path d="M389.184,118.54h-6.89c-8.66,9.563-21.168,15.581-35.055,15.581s-26.395-6.018-35.055-15.581h-6.628     c-20.225,0-36.888,16.454-36.99,36.679v49.989c-0.023,4.682,1.935,9.126,5.548,12.102l32.253,26.566     c0,0-0.339,12.67-0.339,173.365c0,10.324,8.369,18.694,18.694,18.694s18.694-8.369,18.694-18.694v-77.007     c-8.969-6.412-13.775-16.424-13.775-26.722c0-11.006,5.445-20.758,13.775-26.725v-18.962h8.071v14.729     c3.446-1.23,7.152-1.905,11.015-1.905h26.37l0.007-19.072l32.977-33.325c2.905-2.936,4.525-6.905,4.505-11.035v-61.998     C426.258,134.994,409.409,118.54,389.184,118.54z M306.366,203.513l-6.52-5.547v-42.589c0.009-1.798,1.471-3.25,3.269-3.245     s3.252,1.463,3.252,3.261V203.513z M394.894,210.924l-6.016,6.361v-61.894h0c0-1.657,1.342-3.003,3-3.008     c1.658-0.004,3.008,1.333,3.017,2.992V210.924z"/>
			<polygon points="351.486,282.555 351.486,282.554 351.485,282.555    "/>
		</g>
	</g>
</g>
<g>
</g>
<g>
</g>
<g>
</g>
<g>
</g>
<g>
</g>
<g>
</g>
<g>
</g>
<g>
</g>
<g>
</g>
<g>
</g>
<g>
</g>
<g>
</g>
<g>
</g>
<g>
</g>
<g>
</g>
</svg>
