<?xml version="1.0" encoding="iso-8859-1"?>
<!-- Generator: Adobe Illustrator 19.0.0, SVG Export Plug-In . SVG Version: 6.00 Build 0)  -->
<svg xmlns="http://www.w3.org/2000/svg" xmlns:xlink="http://www.w3.org/1999/xlink" version="1.1" id="Capa_1" x="0px" y="0px" viewBox="0 0 512.002 512.002" style="enable-background:new 0 0 512.002 512.002;" xml:space="preserve">
<g>
	<g>
		<path d="M297.882,216.818v10.121c0,2.176-1.497,4.065-3.615,4.564l-39.026,9.178l-37.111-9.149    c-2.094-0.516-3.566-2.395-3.566-4.552v-4.301l-13.173,2.341c0,0,0.009,236.522,0.009,262.583c0,13.476,10.925,24.4,24.4,24.4    s24.4-10.924,24.4-24.4V292.571h10.534v195.03c0,13.476,10.925,24.4,24.4,24.4s24.178-10.924,24.178-24.4    c0.001-153.721,0.001-262.539,0.001-269.57L297.882,216.818z"/>
	</g>
</g>
<g>
	<g>
		<circle cx="255.744" cy="42.139" r="42.139"/>
	</g>
</g>
<g>
	<g>
		<path d="M387.397,176.229l-55.99-64.692c-7.604-8.785-18.629-13.823-30.247-13.823c-8.306,0-83.512,0-95.714,0    c-14.875,0-28.555,7.473-36.593,19.991c-45.296,70.544-46.068,71.698-46.634,72.717c-7.562,13.63,2.437,30.192,17.754,30.192    c2.584,0-2.834,0.823,78.148-13.564c11.056-1.964,18.427-12.519,16.463-23.576c-1.965-11.056-12.515-18.427-23.577-16.464    l-28.41,5.047l-0.356,0.063c11.55-17.987,19.15-29.825,19.15-29.825v11.426l7.034-1.25c2.063-0.366,4.115-0.534,6.139-0.536    c0-8.681,0-11.469,0-13.073c0-1.442,0.663-2.803,1.798-3.691c1.135-0.888,2.616-1.205,4.016-0.86    c23.703,5.844,12.865,3.172,34.863,8.595c3.783-0.89,25.856-6.081,36.875-8.672c1.394-0.328,2.861,0,3.984,0.888    s1.781,2.243,1.781,3.675c0,0.006,0,0.01,0,0.016c0,1.355,0,1.742,0,1.678c0,1.159,0,3.024,0,5.925    c1.249,0.001,2.508,0.065,3.777,0.203l6.981,0.755l14.184,16.387c-8.501-0.92-8.621-0.933-22.752-2.462    c-11.159-1.213-21.195,6.862-22.403,18.028c-1.207,11.165,6.863,21.194,18.028,22.402c10.231,1.107,63.937,6.919,74.141,8.023    C388.284,211.754,399.336,190.057,387.397,176.229z"/>
	</g>
</g>
<g>
</g>
<g>
</g>
<g>
</g>
<g>
</g>
<g>
</g>
<g>
</g>
<g>
</g>
<g>
</g>
<g>
</g>
<g>
</g>
<g>
</g>
<g>
</g>
<g>
</g>
<g>
</g>
<g>
</g>
</svg>
