<?xml version="1.0" encoding="iso-8859-1"?>
<!-- Generator: Adobe Illustrator 19.0.0, SVG Export Plug-In . SVG Version: 6.00 Build 0)  -->
<svg xmlns="http://www.w3.org/2000/svg" xmlns:xlink="http://www.w3.org/1999/xlink" version="1.1" id="Capa_1" x="0px" y="0px" viewBox="0 0 512 512" style="enable-background:new 0 0 512 512;" xml:space="preserve">
<g>
	<g>
		<circle cx="203.734" cy="42.137" r="42.137"/>
	</g>
</g>
<g>
	<g>
		<path d="M488.664,98.078c-1.357-1.888-3.986-2.319-5.874-0.964l-115.988,83.3l-65.456,2.313    c-6.516-18.24-11.673-32.881-15.372-43.645c-9.433-27.451-25.251-41.37-47.013-41.37c-30.54,0-40.167,0-70.45,0    c-21.762,0-37.58,13.919-47.013,41.37c-4.101,11.933-7.021,20.311-11.016,31.527l-26.249-13.361L66.042,90.464    c-0.334-1.223-1.269-2.191-2.481-2.566l-10.909-3.372l-7.577-27.819c-0.366-1.341-1.452-2.366-2.812-2.652    s-2.767,0.214-3.642,1.295L22.55,75.222l17.784,65.296c-5.506,1.38-10.414,5.027-13.192,10.483    c-5.094,10.007-1.112,22.25,8.895,27.344l76.561,38.977c10.901,5.549,24.209,0.276,28.354-11.229    c4.78-13.266,10.967-30.673,10.967-30.673s-22.433,118.027-28.858,151.23c-1.354,6.994,4.036,13.456,11.089,13.456    c4.379,0,9.634,0,15.516,0v147.492c0,13.476,10.924,24.4,24.4,24.4s24.4-10.924,24.4-24.4v-147.49c3.507,0,7.027,0,10.534,0V487.6    c0,13.476,10.924,24.4,24.4,24.4s24.4-10.924,24.4-24.4V340.108c5.883,0,11.137,0,15.516,0c7.09,0,12.443-6.47,11.089-13.456    c-12.002-62.109-28.88-151.411-28.88-151.411s7.77,21.891,12.55,35.205c2.975,8.289,10.971,13.759,19.855,13.45l81.43-2.878    c11.223-0.397,19.999-9.816,19.602-21.039c-0.128-3.618-1.201-6.975-2.96-9.86l101.964-86.372    C489.615,102.34,489.95,99.87,488.664,98.078z"/>
	</g>
</g>
<g>
</g>
<g>
</g>
<g>
</g>
<g>
</g>
<g>
</g>
<g>
</g>
<g>
</g>
<g>
</g>
<g>
</g>
<g>
</g>
<g>
</g>
<g>
</g>
<g>
</g>
<g>
</g>
<g>
</g>
</svg>
