<?xml version="1.0" encoding="iso-8859-1"?>
<!-- Generator: Adobe Illustrator 19.0.0, SVG Export Plug-In . SVG Version: 6.00 Build 0)  -->
<svg xmlns="http://www.w3.org/2000/svg" xmlns:xlink="http://www.w3.org/1999/xlink" version="1.1" id="Capa_1" x="0px" y="0px" viewBox="0 0 512 512" style="enable-background:new 0 0 512 512;" xml:space="preserve">
<g>
	<g>
		<circle cx="260.822" cy="100.952" r="42.226"/>
	</g>
</g>
<g>
	<g>
		<path d="M235.399,458.195l-14.442-93.389h-46.121l15.52,100.355c1.924,12.44,13.568,20.963,26.005,19.039    C228.799,482.276,237.323,470.634,235.399,458.195z"/>
	</g>
</g>
<g>
	<g>
		<path d="M296.416,364.806l0.037,0.021l-14.439,93.368c-1.923,12.439,6.601,24.081,19.039,26.005    c12.44,1.923,24.081-6.602,26.005-19.039l15.52-100.355H296.416z"/>
	</g>
</g>
<g>
	<g>
		<path d="M392.506,300.368c-21.611,0-24.531,0-46.633,0c9.201-1.965,16.103-10.132,16.103-19.919c0-13.936,0-60.444,0-74.316    c0-27.288-22.2-49.489-49.488-49.489c-2.905,0-78.806,0-85.594,0c-9.244-9.653-29.435-31.431-48.655-52.381l-12.962-86.888    c-1.659-11.13-12.021-18.811-23.16-17.148c-11.13,1.66-18.808,12.03-17.148,23.16l13.882,93.056    c0.6,4.017,2.385,7.762,5.128,10.756c58.313,63.623,60.019,64.428,62.653,66.31c0,10.635,0,94.512,0,106.86h-87.138    c-12.887,0-23.334,10.441-23.347,23.324c0,0.008-0.001,0.016-0.001,0.023c0,0.007,0.001,0.015,0.001,0.023    c0.012,12.235,9.436,22.259,21.421,23.238c0,6.456,0,142.101,0,148.101c0,9.346,7.577,16.922,16.922,16.922    s16.922-7.576,16.922-16.922c0-4.943,0-140.867,0-148.015h210.407c0,12.666,0,140.867,0,148.015    c0,9.346,7.577,16.922,16.922,16.922s16.922-7.576,16.922-16.922c0-7.311,0-136.832,0-148.234    c11.4-1.543,20.187-11.306,20.187-23.128C415.854,310.821,405.401,300.368,392.506,300.368z M321.223,260.074h-68.253    c-11.254,0-20.376,9.122-20.376,20.376c0,9.787,6.903,17.954,16.103,19.919h-27.342c-3.642-5.767-5.757-12.594-5.757-19.919    c0-20.546,16.661-37.373,37.373-37.373h61.591v-36.944c0-1.84,1.491-3.33,3.33-3.33c1.84,0,3.33,1.491,3.33,3.331    C321.223,230.237,321.223,235.939,321.223,260.074z"/>
	</g>
</g>
<g>
</g>
<g>
</g>
<g>
</g>
<g>
</g>
<g>
</g>
<g>
</g>
<g>
</g>
<g>
</g>
<g>
</g>
<g>
</g>
<g>
</g>
<g>
</g>
<g>
</g>
<g>
</g>
<g>
</g>
</svg>
