<?xml version="1.0" encoding="iso-8859-1"?>
<!-- Generator: Adobe Illustrator 19.0.0, SVG Export Plug-In . SVG Version: 6.00 Build 0)  -->
<svg xmlns="http://www.w3.org/2000/svg" xmlns:xlink="http://www.w3.org/1999/xlink" version="1.1" id="Capa_1" x="0px" y="0px" viewBox="0 0 512.002 512.002" style="enable-background:new 0 0 512.002 512.002;" xml:space="preserve">
<g>
	<g>
		<circle cx="164.415" cy="83.446" r="41.543"/>
	</g>
</g>
<g>
	<g>
		<path d="M248.882,485.786l-15.181-111.518c-0.225-1.651-0.627-3.273-1.201-4.838l-21.682-59.113v-49.015    c-15.139,7.308-33.231,1.025-40.64-14.004l-29.933-60.909l42.324,50.529c8.912,10.639,25.895,7.998,31.214-4.749l29.265-70.143    c3.929-9.417-0.52-20.235-9.936-24.165s-20.236,0.521-24.165,9.936l-17.565,42.1l-22.813-27.234l12.755,9.358l13.82-32.988H132.71    c-13.377,0-24.561,9.363-27.374,21.892v-3.06c0-17.276-14.005-31.282-31.281-31.282c-17.275,0-31.282,14.005-31.282,31.282v41.847    h-8.817c-6.005,0-10.873,4.868-10.873,10.873v34.795c0,6.005,4.868,10.873,10.873,10.873h8.817    c0,21.467,16.596,35.99,35.103,35.99h26.771v18.834h0.024l-2.997,71.601l-40.14,97.428c-4.859,11.793,0.762,25.291,12.555,30.15    c11.795,4.859,25.293-0.765,30.15-12.555l41.692-101.192c1.026-2.49,1.609-5.141,1.721-7.832    c3.443-82.265,3.223-76.678,3.223-77.599h11.023l26.374,71.906l14.842,109.034c1.722,12.651,13.377,21.489,25.997,19.768    C241.752,510.063,250.602,498.423,248.882,485.786z"/>
	</g>
</g>
<g>
	<g>
		<circle cx="404.235" cy="41.543" r="41.543"/>
	</g>
</g>
<g>
	<g>
		<path d="M488.704,443.881l-15.181-111.518c-0.225-1.651-0.627-3.273-1.201-4.838l-21.682-59.113V248.8    c-8.305-2.641-56.03-17.815-65.63-20.869c-11.34-3.606-18.255-14.639-17.11-26.024l6.758-67.53l9.248,65.262    c0.996,7.028,5.93,12.863,12.694,15.014l60.572,19.26c9.721,3.091,20.112-2.282,23.204-12.008    c3.092-9.724-2.284-20.113-12.008-23.205l-49.507-15.742l-7.619-53.764l15.796,39.402l23.602,7.505v-50.91    c0-15.499-12.564-28.063-28.063-28.063h-50.045c-13.377,0-24.561,9.363-27.374,21.892v-3.06c0-17.276-14.005-31.282-31.282-31.282    s-31.281,14.005-31.281,31.282v51.548h-8.217c-6.005,0-10.873,4.868-10.873,10.873v30.291c0,6.005,4.868,10.873,10.873,10.873    h8.49c2.127,17.352,16.903,30.792,34.83,30.792h26.771v18.834h0.024l-2.997,71.601l-40.14,97.428    c-4.859,11.792,0.763,25.291,12.555,30.15c11.804,4.862,25.295-0.773,30.15-12.555l41.691-101.192    c1.026-2.49,1.609-5.141,1.721-7.832c3.444-82.275,3.223-76.674,3.223-77.599h11.023l26.374,71.906l14.843,109.034    c1.722,12.651,13.377,21.489,25.997,19.768C481.574,468.158,490.425,456.518,488.704,443.881z"/>
	</g>
</g>
<g>
</g>
<g>
</g>
<g>
</g>
<g>
</g>
<g>
</g>
<g>
</g>
<g>
</g>
<g>
</g>
<g>
</g>
<g>
</g>
<g>
</g>
<g>
</g>
<g>
</g>
<g>
</g>
<g>
</g>
</svg>
