<?xml version="1.0" encoding="iso-8859-1"?>
<!-- Generator: Adobe Illustrator 19.0.0, SVG Export Plug-In . SVG Version: 6.00 Build 0)  -->
<svg xmlns="http://www.w3.org/2000/svg" xmlns:xlink="http://www.w3.org/1999/xlink" version="1.1" id="Capa_1" x="0px" y="0px" viewBox="0 0 512 512" style="enable-background:new 0 0 512 512;" xml:space="preserve">
<g>
	<g>
		<circle cx="263.074" cy="42.139" r="42.139"/>
	</g>
</g>
<g>
	<g>
		<path d="M296.152,230.9c-12.005,4.099-24.948,1.378-34.284-6.677c-7.176,16.28-25.638,24.827-42.952,19.19l-10.18-3.317V487.6    c0,13.476,10.925,24.4,24.4,24.4s24.4-10.925,24.4-24.4V292.571h10.534V487.6c0,13.476,10.925,24.4,24.4,24.4    c13.475,0,24.4-10.925,24.4-24.4c0-14.096,0-249.543,0-263.621L296.152,230.9z"/>
	</g>
</g>
<g>
	<g>
		<path d="M284.484,138.38c-2.3-13.066-1.996-27.449,1.268-40.667c-6.707,0-38.932,0-45.635,0    c3.202,12.968,3.597,27.446,1.269,40.667c-2.398,13.615-7.571,25.338-14.596,33.77l13.86,4.513    c4.583,1.492,8.647,3.839,12.078,6.804c3.828-8.634,11.103-15.711,20.747-19.003l17.195-5.87    C287.892,152.557,285.782,145.746,284.484,138.38z"/>
	</g>
</g>
<g>
	<g>
		<path d="M236.078,190.703l-54.235-17.798l26.884-33.169v22.445c5.188-4.587,9.788-12.931,12.234-23.801    c2.883-12.816,2.492-28.008-1.65-40.667h-8.139c-13.175,0-25.488,5.871-33.784,16.105c-6.353,7.838-39.606,48.867-45.851,56.572    c-8.875,10.948-4.222,27.757,9.655,32.186l82.295,26.795c10.677,3.477,22.153-2.362,25.629-13.039    C252.594,205.655,246.756,194.18,236.078,190.703z"/>
	</g>
</g>
<g>
	<g>
		<path d="M379.764,156.81c-24.087-26.743-22.675-25.175-47.172-52.371c-3.856-4.281-9.346-6.725-15.108-6.725h-10.925    c-4.137,12.641-4.538,27.833-1.65,40.667c1.167,5.19,2.822,9.811,4.803,13.715c7.885-2.692,6.197-2.115,8.471-2.891    c4.742,5.265,2.217,2.462,10.527,11.686l-50.465,17.55c-10.628,3.627-16.302,15.184-12.675,25.811    c3.629,10.63,15.183,16.3,25.811,12.675c1.468-0.501,77.682-26.512,80.019-27.324C384.892,184.858,389.583,167.937,379.764,156.81    z"/>
	</g>
</g>
<g>
</g>
<g>
</g>
<g>
</g>
<g>
</g>
<g>
</g>
<g>
</g>
<g>
</g>
<g>
</g>
<g>
</g>
<g>
</g>
<g>
</g>
<g>
</g>
<g>
</g>
<g>
</g>
<g>
</g>
</svg>
