<?xml version="1.0" encoding="iso-8859-1"?>
<!-- Generator: Adobe Illustrator 19.0.0, SVG Export Plug-In . SVG Version: 6.00 Build 0)  -->
<svg xmlns="http://www.w3.org/2000/svg" xmlns:xlink="http://www.w3.org/1999/xlink" version="1.1" id="Capa_1" x="0px" y="0px" viewBox="0 0 512.001 512.001" style="enable-background:new 0 0 512.001 512.001;" xml:space="preserve">
<g>
	<g>
		<circle cx="214.378" cy="45.245" r="45.245"/>
	</g>
</g>
<g>
	<g>
		<path d="M404.017,217.708h-57.57c6.477,9.175,8.816,21.128,5.31,32.709c-0.149,0.49-0.313,0.971-0.48,1.45h52.739    c4.173,0,7.557-3.384,7.557-7.557v-19.045C411.574,221.091,408.19,217.708,404.017,217.708z"/>
	</g>
</g>
<g>
	<g>
		<path d="M394.459,127.662h-95.893c-4.173,0-7.557,3.383-7.557,7.557v19.046c0,4.173,3.383,7.557,7.557,7.557h95.893v-0.001    c4.173,0,7.557-3.383,7.557-7.557v-19.045C402.016,131.046,398.632,127.662,394.459,127.662z"/>
	</g>
</g>
<g>
	<g>
		<path d="M394.328,178.99H308.59v0.001c-2.254,0-4.082,1.827-4.082,4.082v13.385c0,0.083,0.019,0.159,0.024,0.239l12.686,3.841    h77.11c2.254,0,4.082-1.827,4.082-4.082v-13.385C398.41,180.818,396.583,178.99,394.328,178.99z"/>
	</g>
</g>
<g>
	<g>
		<path d="M321.479,220.225l-74.185-22.464l-28.431-59.494l34.504,42.937l11.552,3.498v-48.353c0-16.88-13.684-30.564-30.564-30.564    h-54.505c-16.88,0-30.564,13.684-30.564,30.564v156.815h0.027l-3.264,77.983L102.33,477.26    c-5.291,12.844,0.831,27.546,13.675,32.838c12.854,5.294,27.549-0.837,32.837-13.675l45.408-110.212    c1.118-2.712,1.753-5.599,1.874-8.531c3.75-89.601,3.509-83.511,3.51-84.517h12.007l28.724,78.315l16.166,118.754    c1.873,13.764,14.551,23.404,28.315,21.529c13.764-1.873,23.404-14.551,21.529-28.316l-16.534-121.46    c-0.244-1.798-0.683-3.565-1.308-5.268l-23.614-64.383v-28.795c-14.264-4.319-35.232-10.669-49.523-14.996    c-8.599-2.604-14.664-9.641-16.471-17.832l-16.374-75.097l32.259,67.505c2.439,5.103,6.912,8.943,12.325,10.582l82.682,25.036    c10.629,3.223,21.867-2.787,25.089-13.424C338.127,234.678,332.115,223.445,321.479,220.225z"/>
	</g>
</g>
<g>
</g>
<g>
</g>
<g>
</g>
<g>
</g>
<g>
</g>
<g>
</g>
<g>
</g>
<g>
</g>
<g>
</g>
<g>
</g>
<g>
</g>
<g>
</g>
<g>
</g>
<g>
</g>
<g>
</g>
</svg>
