<?xml version="1.0" encoding="iso-8859-1"?>
<!-- Generator: Adobe Illustrator 19.0.0, SVG Export Plug-In . SVG Version: 6.00 Build 0)  -->
<svg xmlns="http://www.w3.org/2000/svg" xmlns:xlink="http://www.w3.org/1999/xlink" version="1.1" id="Capa_1" x="0px" y="0px" viewBox="0 0 512 512" style="enable-background:new 0 0 512 512;" xml:space="preserve">
<g>
	<g>
		<circle cx="286.525" cy="45.248" r="45.248"/>
	</g>
</g>
<g>
	<g>
		<path d="M378.52,483.451l-16.535-121.459c-0.244-1.798-0.684-3.565-1.308-5.269l-23.614-64.382v-53.388    c-16.488,7.958-36.193,1.116-44.263-15.253L260.2,157.363l46.098,55.031c4.488,5.357,11.468,8.034,18.453,6.972    c6.946-1.057,12.838-5.661,15.544-12.145l31.874-76.396c4.279-10.256-0.567-22.038-10.822-26.318    c-10.258-4.281-22.039,0.567-26.319,10.821l-19.13,45.852l-24.845-29.661l13.891,10.192l14.732-35.75l-67.68-0.179    c-14.569,0-26.75,10.198-29.814,23.843v-3.333c0-18.817-15.253-34.07-34.07-34.07c-18.816,0-34.07,15.253-34.07,34.07v56.144    h-9.893c-6.019,0-10.9,4.879-10.9,10.899v34.878c0,6.019,4.88,10.899,10.9,10.899h10.191    c2.316,18.898,18.411,33.537,37.934,33.537h29.157v20.513h0.027l-3.263,77.983l-43.718,106.112    c-5.292,12.844,0.831,27.545,13.674,32.837c12.838,5.292,27.544-0.827,32.837-13.674l45.409-110.208    c1.117-2.712,1.752-5.598,1.875-8.529c3.75-89.61,3.51-83.511,3.511-84.517h12.005l28.725,78.319l16.166,118.753    c1.88,13.814,14.605,23.404,28.315,21.53C370.755,509.892,380.394,497.215,378.52,483.451z"/>
	</g>
</g>
<g>
</g>
<g>
</g>
<g>
</g>
<g>
</g>
<g>
</g>
<g>
</g>
<g>
</g>
<g>
</g>
<g>
</g>
<g>
</g>
<g>
</g>
<g>
</g>
<g>
</g>
<g>
</g>
<g>
</g>
</svg>
