<?xml version="1.0" encoding="iso-8859-1"?>
<!-- Generator: Adobe Illustrator 19.0.0, SVG Export Plug-In . SVG Version: 6.00 Build 0)  -->
<svg xmlns="http://www.w3.org/2000/svg" xmlns:xlink="http://www.w3.org/1999/xlink" version="1.1" id="Layer_1" x="0px" y="0px" viewBox="0 0 512 512" style="enable-background:new 0 0 512 512;" xml:space="preserve">
<g>
	<g>
		<path d="M65,384v81c0,25.916,21.084,47,47,47h288c25.916,0,47-21.084,47-47v-81H65z M272,448h-32c-8.284,0-15-6.716-15-15    s6.716-15,15-15h32c8.284,0,15,6.716,15,15S280.284,448,272,448z"/>
	</g>
</g>
<g>
	<g>
		<rect x="65" y="94" width="382" height="260"/>
	</g>
</g>
<g>
	<g>
		<path d="M400,0H112C86.084,0,65,21.084,65,47v17h382V47C447,21.084,425.916,0,400,0z"/>
	</g>
</g>
<g>
</g>
<g>
</g>
<g>
</g>
<g>
</g>
<g>
</g>
<g>
</g>
<g>
</g>
<g>
</g>
<g>
</g>
<g>
</g>
<g>
</g>
<g>
</g>
<g>
</g>
<g>
</g>
<g>
</g>
</svg>
