<?xml version="1.0" encoding="iso-8859-1"?>
<!-- Generator: Adobe Illustrator 19.0.0, SVG Export Plug-In . SVG Version: 6.00 Build 0)  -->
<svg xmlns="http://www.w3.org/2000/svg" xmlns:xlink="http://www.w3.org/1999/xlink" version="1.1" id="Layer_1" x="0px" y="0px" viewBox="0 0 512 512" style="enable-background:new 0 0 512 512;" xml:space="preserve">
<g>
	<g>
		<path d="M95,111v236.787l102.394-102.393c5.857-5.858,15.355-5.858,21.213,0L288,314.787l37.394-37.394    c5.857-5.858,15.355-5.858,21.213,0L417,347.787V111H95z M336,239c-25.916,0-47-21.084-47-47s21.084-47,47-47    c25.916,0,47,21.084,47,47S361.916,239,336,239z"/>
	</g>
</g>
<g>
	<g>
		<polygon points="208,277.213 95,390.213 95,401 331.787,401   "/>
	</g>
</g>
<g>
	<g>
		<polygon points="336,309.213 309.213,336 374.213,401 417,401 417,390.213   "/>
	</g>
</g>
<g>
	<g>
		<path d="M465,16H47C21.084,16,0,37.084,0,63v386c0,25.916,21.084,47,47,47h418c25.916,0,47-21.084,47-47V63    C512,37.084,490.916,16,465,16z M447,383.995c0,0.003,0,0.007,0,0.01V416c0,8.284-6.716,15-15,15H80c-8.284,0-15-6.716-15-15    v-31.995c0-0.003,0-0.007,0-0.01V96c0-8.284,6.716-15,15-15h352c8.284,0,15,6.716,15,15V383.995z"/>
	</g>
</g>
<g>
	<g>
		<path d="M336,175c-9.374,0-17,7.626-17,17c0,9.374,7.626,17,17,17c9.374,0,17-7.626,17-17C353,182.626,345.374,175,336,175z"/>
	</g>
</g>
<g>
</g>
<g>
</g>
<g>
</g>
<g>
</g>
<g>
</g>
<g>
</g>
<g>
</g>
<g>
</g>
<g>
</g>
<g>
</g>
<g>
</g>
<g>
</g>
<g>
</g>
<g>
</g>
<g>
</g>
</svg>
