<?xml version="1.0" encoding="iso-8859-1"?>
<!-- Generator: Adobe Illustrator 19.0.0, SVG Export Plug-In . SVG Version: 6.00 Build 0)  -->
<svg xmlns="http://www.w3.org/2000/svg" xmlns:xlink="http://www.w3.org/1999/xlink" version="1.1" id="Layer_1" x="0px" y="0px" viewBox="0 0 512.001 512.001" style="enable-background:new 0 0 512.001 512.001;" xml:space="preserve">
<g>
	<g>
		<path d="M176.627,395.41c-5.858-5.858-15.357-5.858-21.216,0l-15.002,15.002c-5.859,5.858-5.859,15.357,0,21.216    c2.929,2.929,6.769,4.395,10.607,4.395c3.838,0,7.68-1.465,10.608-4.395l15.002-15.002    C182.486,410.768,182.486,401.269,176.627,395.41z"/>
	</g>
</g>
<g>
	<g>
		<path d="M266.638,395.41c-5.858-5.858-15.357-5.858-21.216,0l-15.002,15.002c-5.859,5.858-5.859,15.357,0,21.216    c2.929,2.929,6.769,4.395,10.607,4.395c3.838,0,7.68-1.465,10.608-4.395l15.002-15.002    C272.497,410.768,272.497,401.269,266.638,395.41z"/>
	</g>
</g>
<g>
	<g>
		<path d="M356.648,395.41c-5.858-5.858-15.357-5.858-21.214,0l-15.002,15.002c-5.859,5.858-5.859,15.357,0,21.216    c2.929,2.929,6.769,4.395,10.607,4.395s7.679-1.465,10.607-4.395l15.002-15.002C362.507,410.768,362.507,401.269,356.648,395.41z"/>
	</g>
</g>
<g>
	<g>
		<path d="M101.618,470.419c-5.858-5.858-15.357-5.858-21.215,0l-15.002,15.002c-5.859,5.858-5.859,15.357,0,21.216    c2.929,2.929,6.769,4.395,10.607,4.395c3.839,0,7.679-1.465,10.607-4.395l15.002-15.002    C107.477,485.777,107.477,476.278,101.618,470.419z"/>
	</g>
</g>
<g>
	<g>
		<path d="M191.629,470.419c-5.858-5.858-15.357-5.858-21.215,0l-15.002,15.002c-5.859,5.858-5.859,15.357,0,21.216    c2.929,2.929,6.769,4.395,10.607,4.395s7.679-1.465,10.607-4.395l15.002-15.002C197.488,485.777,197.488,476.278,191.629,470.419z    "/>
	</g>
</g>
<g>
	<g>
		<path d="M281.64,470.419c-5.858-5.858-15.357-5.858-21.215,0l-15.002,15.002c-5.859,5.858-5.859,15.357,0,21.216    c2.929,2.929,6.769,4.395,10.607,4.395s7.679-1.465,10.607-4.395l15.002-15.002C287.498,485.777,287.498,476.278,281.64,470.419z"/>
	</g>
</g>
<g>
	<g>
		<path d="M479.397,180.86c-8.447-8.251-18.04-14.918-28.421-19.837C448.339,72.32,375.364,0.97,286.034,0.97    c-74.197,0-138.797,49.757-158.644,120.184c-2.116-0.11-4.242-0.17-6.376-0.17C54.286,120.984,0,174.823,0,240.999    s54.286,120.014,121.014,120.014h285.034C501.149,361.013,547.977,245.985,479.397,180.86z"/>
	</g>
</g>
<g>
</g>
<g>
</g>
<g>
</g>
<g>
</g>
<g>
</g>
<g>
</g>
<g>
</g>
<g>
</g>
<g>
</g>
<g>
</g>
<g>
</g>
<g>
</g>
<g>
</g>
<g>
</g>
<g>
</g>
</svg>
