<?xml version="1.0" encoding="iso-8859-1"?>
<!-- Generator: Adobe Illustrator 19.0.0, SVG Export Plug-In . SVG Version: 6.00 Build 0)  -->
<svg xmlns="http://www.w3.org/2000/svg" xmlns:xlink="http://www.w3.org/1999/xlink" version="1.1" id="Layer_1" x="0px" y="0px" viewBox="0 0 512 512" style="enable-background:new 0 0 512 512;" xml:space="preserve">
<g>
	<g>
		<path d="M492.625,102.749C425.88,56.474,341.844,30.99,256,30.99c-85.844,0-169.879,25.484-236.635,71.765    c-20.406,14.173-25.503,42.284-11.362,62.66c14.138,20.374,42.239,25.481,62.66,11.37c107.39-74.468,263.28-74.469,370.694,0.014    c7.571,5.231,16.422,7.997,25.595,7.997c14.783,0,28.632-7.247,37.045-19.381C518.139,145.041,513.041,116.93,492.625,102.749z"/>
	</g>
</g>
<g>
	<g>
		<path d="M424.255,201.482c-46.98-32.547-106.734-50.471-168.256-50.471c-61.521,0-121.275,17.924-168.27,50.482    c-20.404,14.174-25.502,42.284-11.374,62.643c8.723,12.607,22.784,19.378,37.082,19.377c8.842,0,17.777-2.59,25.591-7.989    c66.686-46.242,167.26-46.242,233.963,0.014c7.571,5.231,16.422,7.997,25.595,7.997c14.782,0,28.632-7.247,37.044-19.382    C449.773,243.777,444.675,215.666,424.255,201.482z"/>
	</g>
</g>
<g>
	<g>
		<path d="M355.919,300.218c-27.215-18.849-62.699-29.231-99.919-29.231c-37.22,0-72.704,10.382-99.916,29.23    c-20.415,14.137-25.525,42.247-11.38,62.673c14.123,20.353,42.22,25.465,62.665,11.367c25.451-17.666,71.808-17.665,97.286,0.018    c7.571,5.231,16.422,7.997,25.595,7.997c14.782,0,28.632-7.247,37.054-19.394C381.441,342.464,376.332,314.354,355.919,300.218z"/>
	</g>
</g>
<g>
	<g>
		<path d="M256.288,390.95c-24.829,0-45.03,20.2-45.03,45.03c0,24.829,20.2,45.03,45.03,45.03s45.03-20.2,45.03-45.03    C301.318,411.15,281.117,390.95,256.288,390.95z"/>
	</g>
</g>
<g>
</g>
<g>
</g>
<g>
</g>
<g>
</g>
<g>
</g>
<g>
</g>
<g>
</g>
<g>
</g>
<g>
</g>
<g>
</g>
<g>
</g>
<g>
</g>
<g>
</g>
<g>
</g>
<g>
</g>
</svg>
