<?xml version="1.0" encoding="iso-8859-1"?>
<!-- Generator: Adobe Illustrator 19.0.0, SVG Export Plug-In . SVG Version: 6.00 Build 0)  -->
<svg xmlns="http://www.w3.org/2000/svg" xmlns:xlink="http://www.w3.org/1999/xlink" version="1.1" id="Layer_1" x="0px" y="0px" viewBox="0 0 512 512" style="enable-background:new 0 0 512 512;" xml:space="preserve">
<g>
	<g>
		<path d="M256,383c-9.374,0-17,7.626-17,17c0,9.374,7.626,17,17,17c9.374,0,17-7.626,17-17C273,390.626,265.374,383,256,383z"/>
	</g>
</g>
<g>
	<g>
		<path d="M271,191.779v34.235c19.409,2.633,37.239,10.302,52.129,21.644l24.194-24.194    C326.029,206.149,299.749,194.748,271,191.779z"/>
	</g>
</g>
<g>
	<g>
		<path d="M432,0H191v97h321V80C512,35.888,476.112,0,432,0z"/>
	</g>
</g>
<g>
	<g>
		<path d="M80,0C35.888,0,0,35.888,0,80v17h161V0H80z"/>
	</g>
</g>
<g>
	<g>
		<path d="M164.677,223.463l24.194,24.194c14.89-11.342,32.72-19.01,52.129-21.644v-34.234    C212.251,194.748,185.971,206.149,164.677,223.463z"/>
	</g>
</g>
<g>
	<g>
		<path d="M143.462,244.675c-17.314,21.296-28.723,47.576-31.691,76.325h34.239c2.633-19.411,10.303-37.242,21.645-52.132    L143.462,244.675z"/>
	</g>
</g>
<g>
	<g>
		<path d="M368.538,244.675l-24.193,24.193c11.342,14.891,19.012,32.722,21.645,52.132h34.239    C397.26,292.251,385.852,265.97,368.538,244.675z"/>
	</g>
</g>
<g>
	<g>
		<path d="M0,127v305c0,44.112,35.888,80,80,80h352c44.112,0,80-35.888,80-80V127H0z M160,415H96c-8.284,0-15-6.716-15-15    s6.716-15,15-15h64c8.284,0,15,6.716,15,15S168.284,415,160,415z M256,447c-25.916,0-47-21.084-47-47    c0-20.671,13.42-38.255,32-44.531V304c0-8.284,6.716-15,15-15s15,6.716,15,15v51.469c18.58,6.276,32,23.86,32,44.531    C303,425.916,281.916,447,256,447z M416,415h-64c-8.284,0-15-6.716-15-15s6.716-15,15-15h64c8.284,0,15,6.716,15,15    S424.284,415,416,415z M416,351h-64c-8.284,0-15-6.716-15-15c0-22.307-9.065-42.536-23.704-57.199    c-0.016-0.016-0.035-0.03-0.051-0.046s-0.03-0.035-0.046-0.051C298.535,264.065,278.307,255,256,255s-42.535,9.065-57.199,23.704    c-0.016,0.017-0.03,0.035-0.046,0.051s-0.035,0.03-0.051,0.046C184.065,293.464,175,313.693,175,336c0,8.284-6.716,15-15,15H96    c-8.284,0-15-6.716-15-15c0-47.641,19.144-90.887,50.133-122.476c0.349-0.437,0.719-0.863,1.124-1.268    c0.405-0.405,0.831-0.775,1.268-1.125C165.113,180.144,208.36,161,256,161s90.887,19.144,122.475,50.132    c0.437,0.349,0.863,0.719,1.268,1.125c0.405,0.405,0.775,0.831,1.124,1.268C411.856,245.113,431,288.359,431,336    C431,344.284,424.284,351,416,351z"/>
	</g>
</g>
<g>
</g>
<g>
</g>
<g>
</g>
<g>
</g>
<g>
</g>
<g>
</g>
<g>
</g>
<g>
</g>
<g>
</g>
<g>
</g>
<g>
</g>
<g>
</g>
<g>
</g>
<g>
</g>
<g>
</g>
</svg>
