<?xml version="1.0" encoding="iso-8859-1"?>
<!-- Generator: Adobe Illustrator 19.0.0, SVG Export Plug-In . SVG Version: 6.00 Build 0)  -->
<svg xmlns="http://www.w3.org/2000/svg" xmlns:xlink="http://www.w3.org/1999/xlink" version="1.1" id="Layer_1" x="0px" y="0px" viewBox="0 0 512 512" style="enable-background:new 0 0 512 512;" xml:space="preserve">
<g>
	<g>
		<path d="M497,482H15c-8.284,0-15,6.716-15,15s6.716,15,15,15h482c8.284,0,15-6.716,15-15S505.284,482,497,482z"/>
	</g>
</g>
<g>
	<g>
		<path d="M186.523,293.397l-80-96C103.674,193.977,99.452,192,95,192s-8.674,1.978-11.523,5.397l-80,96    c-3.726,4.471-4.53,10.694-2.061,15.965S9.18,318,15,318h33v115c0,8.284,6.716,15,15,15h64c8.284,0,15-6.716,15-15V318h33    c5.821,0,11.116-3.367,13.584-8.638C191.052,304.091,190.249,297.868,186.523,293.397z"/>
	</g>
</g>
<g>
	<g>
		<path d="M347.523,197.397l-80-96C264.674,97.977,260.452,96,256,96c-4.452,0-8.674,1.978-11.523,5.397l-80,96    c-3.726,4.471-4.53,10.694-2.061,15.965S170.18,222,176,222h33v211c0,8.284,6.716,15,15,15h64c8.284,0,15-6.715,15-15V222h33    c5.821,0,11.116-3.367,13.584-8.638C352.052,208.091,351.249,201.868,347.523,197.397z"/>
	</g>
</g>
<g>
	<g>
		<path d="M508.523,101.397l-80-96C425.674,1.977,421.452,0,417,0c-4.452,0-8.674,1.978-11.523,5.397l-80,96    c-3.726,4.471-4.53,10.694-2.061,15.965S331.18,126,337,126h33v307c0,8.284,6.716,15,15,15h64c8.284,0,15-6.716,15-15V126h33    c5.821,0,11.115-3.367,13.584-8.638C513.052,112.091,512.249,105.868,508.523,101.397z"/>
	</g>
</g>
<g>
</g>
<g>
</g>
<g>
</g>
<g>
</g>
<g>
</g>
<g>
</g>
<g>
</g>
<g>
</g>
<g>
</g>
<g>
</g>
<g>
</g>
<g>
</g>
<g>
</g>
<g>
</g>
<g>
</g>
</svg>
