<?xml version="1.0" encoding="iso-8859-1"?>
<!-- Generator: Adobe Illustrator 19.0.0, SVG Export Plug-In . SVG Version: 6.00 Build 0)  -->
<svg xmlns="http://www.w3.org/2000/svg" xmlns:xlink="http://www.w3.org/1999/xlink" version="1.1" id="Layer_1" x="0px" y="0px" viewBox="0 0 512 512" style="enable-background:new 0 0 512 512;" xml:space="preserve">
<g>
	<g>
		<path d="M152.501,281.081c-2.34-7.763-10.406-12.229-18.182-10.176c-0.278,0.069-0.553,0.144-0.818,0.224    c-7.932,2.391-12.424,10.759-10.032,18.691c1.956,6.488,7.911,10.674,14.355,10.674c1.266,0,2.551-0.161,3.827-0.498    c0.278-0.069,0.553-0.144,0.818-0.224C150.401,297.381,154.893,289.013,152.501,281.081z"/>
	</g>
</g>
<g>
	<g>
		<path d="M378.5,271.128c-0.261-0.079-0.535-0.153-0.814-0.223c-7.778-2.056-15.845,2.412-18.186,10.175    c-2.392,7.931,2.099,16.3,10.032,18.691c0.261,0.079,0.534,0.153,0.814,0.223c1.277,0.338,2.562,0.5,3.83,0.5    c6.444,0,12.399-4.186,14.356-10.675C390.924,281.888,386.433,273.519,378.5,271.128z"/>
	</g>
</g>
<g>
	<g>
		<path d="M256,126c-27.019,0-49,21.981-49,49s21.981,49,49,49s49-21.981,49-49S283.019,126,256,126z"/>
	</g>
</g>
<g>
	<g>
		<path d="M256,0C159.505,0,81,78.505,81,175c0,48.338,23.772,88.991,44.484,119.009c12.035,17.442,25.606,34.64,38.731,51.271    C203.703,395.317,241,442.579,241,497c0,8.284,6.716,15,15,15s15-6.716,15-15c0-54.421,37.297-101.683,76.784-151.72    c13.125-16.631,26.696-33.829,38.732-51.271C407.228,263.991,431,223.338,431,175C431,78.505,352.495,0,256,0z M256,254    c-43.561,0-79-35.439-79-79c0-43.561,35.439-79,79-79c43.561,0,79,35.439,79,79C335,218.561,299.561,254,256,254z"/>
	</g>
</g>
<g>
	<g>
		<path d="M472.049,313.924c-12.623-9.779-28.046-18.631-45.665-26.312c-5.017,8.37-10.176,16.188-15.175,23.434    c-12.586,18.24-26.459,35.819-39.875,52.819C335.164,409.699,301,452.991,301,497c0,4.593-0.695,9.027-1.98,13.204    c49.96-4.211,96.33-15.728,133.627-33.46C483.818,452.416,512,419.123,512,383C512,358.059,498.186,334.172,472.049,313.924z"/>
	</g>
</g>
<g>
	<g>
		<path d="M211,497c0-44.009-34.164-87.301-70.334-133.135c-13.416-17-27.289-34.579-39.874-52.818    c-5-7.246-10.159-15.065-15.177-23.435c-17.619,7.681-33.042,16.532-45.664,26.312C13.814,334.172,0,358.059,0,383    c0,36.123,28.182,69.416,79.354,93.744c37.297,17.732,83.667,29.249,133.627,33.46C211.695,506.027,211,501.593,211,497z"/>
	</g>
</g>
<g>
</g>
<g>
</g>
<g>
</g>
<g>
</g>
<g>
</g>
<g>
</g>
<g>
</g>
<g>
</g>
<g>
</g>
<g>
</g>
<g>
</g>
<g>
</g>
<g>
</g>
<g>
</g>
<g>
</g>
</svg>
