<?xml version="1.0" encoding="iso-8859-1"?>
<!-- Generator: Adobe Illustrator 19.0.0, SVG Export Plug-In . SVG Version: 6.00 Build 0)  -->
<svg xmlns="http://www.w3.org/2000/svg" xmlns:xlink="http://www.w3.org/1999/xlink" version="1.1" id="Layer_1" x="0px" y="0px" viewBox="0 0 512 512" style="enable-background:new 0 0 512 512;" xml:space="preserve">
<g>
	<g>
		<path d="M497.232,221.77L289.23,13.768C280.351,4.89,268.55,0,255.999,0c-12.551,0-24.353,4.89-33.231,13.768L14.766,221.77    c-18.321,18.321-18.321,48.132,0,66.455c8.879,8.879,20.681,13.768,33.231,13.768c5.912,0,11.653-1.098,17.005-3.173V465    c0,25.916,21.084,47,47,47c9.643,0,276.785,0,288.003,0c25.916,0,47-21.084,47-47V298.828c5.35,2.073,11.088,3.17,17,3.17    c12.559,0,24.361-4.894,33.235-13.781C515.557,269.894,515.553,240.089,497.232,221.77z M319.005,482h-30v-99.001    c0-18.196-14.804-33-33-33s-33,14.804-33,33V482h-30v-99.001c0-34.738,28.262-63.001,63.001-63.001s63.001,28.262,63.001,63.001    V482z M319.005,270.998c0,8.284-6.716,15-15,15h-96.001c-8.284,0-15-6.716-15-15v-16c0-34.738,28.262-63.001,63.001-63.001    s63.001,28.262,63.001,63.001V270.998z M476.02,267.011c-0.003,0.003-0.006,0.006-0.009,0.008    c-3.205,3.21-7.469,4.978-12.005,4.978c-4.543,0-8.81-1.768-12.023-4.987l-9.37-9.37L266.611,81.638    c-1.098-1.098-2.324-1.991-3.631-2.677c-2.177-1.144-4.576-1.716-6.976-1.716c-2.4,0-4.799,0.572-6.976,1.716    c-1.306,0.686-2.533,1.579-3.631,2.677l-35.199,35.199L69.4,257.635l-9.385,9.375c-3.213,3.213-7.48,4.982-12.019,4.982    s-8.806-1.769-12.019-4.982c-3.212-3.212-4.981-7.479-4.981-12.013s1.77-8.801,4.981-12.013L243.979,34.982    c6.627-6.627,17.41-6.627,24.037,0l208.002,208.002c3.212,3.212,4.981,7.479,4.981,12.013S479.231,263.799,476.02,267.011z"/>
	</g>
</g>
<g>
	<g>
		<path d="M256.004,221.997c-18.196,0-33,14.804-33,33v1h66.001v-1C289.004,236.801,274.2,221.997,256.004,221.997z"/>
	</g>
</g>
<g>
</g>
<g>
</g>
<g>
</g>
<g>
</g>
<g>
</g>
<g>
</g>
<g>
</g>
<g>
</g>
<g>
</g>
<g>
</g>
<g>
</g>
<g>
</g>
<g>
</g>
<g>
</g>
<g>
</g>
</svg>
