<?xml version="1.0" encoding="iso-8859-1"?>
<!-- Generator: Adobe Illustrator 19.0.0, SVG Export Plug-In . SVG Version: 6.00 Build 0)  -->
<svg xmlns="http://www.w3.org/2000/svg" xmlns:xlink="http://www.w3.org/1999/xlink" version="1.1" id="Layer_1" x="0px" y="0px" viewBox="0 0 511.999 511.999" style="enable-background:new 0 0 511.999 511.999;" xml:space="preserve">
<g>
	<g>
		<path d="M471.008,304.032c-0.1-10.609-0.203-21.581-0.203-33.032v-47.426c0-25.916-21.084-47-47-47    c-8.714,0-16.88,2.383-23.884,6.532c-8.267-13.504-23.156-22.532-40.116-22.532c-8.714,0-16.88,2.383-23.884,6.532    c-8.267-13.504-23.156-22.532-40.116-22.532c-5.994,0-11.724,1.14-17,3.195V47c0-25.916-21.084-47-47-47    c-25.916,0-47,21.084-47,47v160v70.993C163.207,265.793,141.227,258,109.226,258h-5.033c-0.003,0-0.005,0-0.008,0    c-16.751,0.005-32.545,6.479-44.476,18.233c-11.923,11.747-18.634,27.431-18.896,44.161c-0.258,16.416,12.736,30.865,28.965,32.21    c79.691,6.602,118.123,87.313,141.085,135.537c2.655,5.576,5.163,10.843,7.524,15.566c2.541,5.082,7.735,8.292,13.417,8.292h192    c5.682,0,10.876-3.21,13.416-8.292C472.229,433.69,471.69,376.473,471.008,304.032z"/>
	</g>
</g>
<g>
</g>
<g>
</g>
<g>
</g>
<g>
</g>
<g>
</g>
<g>
</g>
<g>
</g>
<g>
</g>
<g>
</g>
<g>
</g>
<g>
</g>
<g>
</g>
<g>
</g>
<g>
</g>
<g>
</g>
</svg>
