<?xml version="1.0" encoding="iso-8859-1"?>
<!-- Generator: Adobe Illustrator 19.0.0, SVG Export Plug-In . SVG Version: 6.00 Build 0)  -->
<svg xmlns="http://www.w3.org/2000/svg" xmlns:xlink="http://www.w3.org/1999/xlink" version="1.1" id="Layer_1" x="0px" y="0px" viewBox="0 0 512 512" style="enable-background:new 0 0 512 512;" xml:space="preserve">
<g>
	<g>
		<path d="M288,255c-18.196,0-33,14.804-33,33c0,18.196,14.804,33,33,33s33-14.804,33-33C321,269.804,306.196,255,288,255z"/>
	</g>
</g>
<g>
	<g>
		<path d="M465,97h-50V80c0-25.916-21.084-47-47-47H208c-25.916,0-47,21.084-47,47v17h-34V80c0-25.916-21.084-47-47-47    S33,54.084,33,80v19.13C13.9,105.102,0,122.958,0,144v17h80c25.916,0,47,21.084,47,47v65h34.89    c7.445-62.984,61.157-112,126.11-112s118.665,49.016,126.11,112H512V144C512,118.084,490.916,97,465,97z M97,97H63V80    c0-9.374,7.626-17,17-17s17,7.626,17,17V97z M385,97H191V80c0-9.374,7.626-17,17-17h160c9.374,0,17,7.626,17,17V97z M433,192    c-8.837,0-16-7.164-16-16s7.163-16,16-16c8.837,0,16,7.164,16,16S441.837,192,433,192z"/>
	</g>
</g>
<g>
	<g>
		<path d="M288,191c-53.486,0-97,43.514-97,97c0,53.486,43.514,97,97,97c53.486,0,97-43.514,97-97C385,234.514,341.486,191,288,191z     M288,351c-34.738,0-63-28.262-63-63c0-34.738,28.262-63,63-63c34.738,0,63,28.262,63,63C351,322.738,322.738,351,288,351z"/>
	</g>
</g>
<g>
	<g>
		<path d="M414.11,303c-7.445,62.984-61.157,112-126.11,112s-118.665-49.016-126.11-112H127v65c0,25.916-21.084,47-47,47H0v17    c0,25.916,21.084,47,47,47h418c25.916,0,47-21.084,47-47V303H414.11z"/>
	</g>
</g>
<g>
	<g>
		<path d="M80,191H0v194h80c9.374,0,17-7.626,17-17V208C97,198.626,89.374,191,80,191z"/>
	</g>
</g>
<g>
</g>
<g>
</g>
<g>
</g>
<g>
</g>
<g>
</g>
<g>
</g>
<g>
</g>
<g>
</g>
<g>
</g>
<g>
</g>
<g>
</g>
<g>
</g>
<g>
</g>
<g>
</g>
<g>
</g>
</svg>
