<?xml version="1.0" encoding="iso-8859-1"?>
<!-- Generator: Adobe Illustrator 19.0.0, SVG Export Plug-In . SVG Version: 6.00 Build 0)  -->
<svg xmlns="http://www.w3.org/2000/svg" xmlns:xlink="http://www.w3.org/1999/xlink" version="1.1" id="Layer_1" x="0px" y="0px" viewBox="0 0 512 512" style="enable-background:new 0 0 512 512;" xml:space="preserve">
<g>
	<g>
		<polygon points="246.552,225.339 286.661,265.448 340.14,171.86   "/>
	</g>
</g>
<g>
	<g>
		<polygon points="225.339,246.552 171.86,340.139 265.448,286.661   "/>
	</g>
</g>
<g>
	<g>
		<path d="M497,271h-64c-8.284,0-15-6.716-15-15s6.716-15,15-15h64c8.284,0,15,6.716,15,15c0-68.113-26.702-132.327-75.188-180.812    C388.326,26.703,324.113,0,256,0c8.284,0,15,6.716,15,15v64c0,8.284-6.716,15-15,15s-15-6.716-15-15V15c0-8.284,6.716-15,15-15    C187.887,0,123.673,26.702,75.188,75.188C26.702,123.673,0,187.887,0,256c0-8.284,6.716-15,15-15h64c8.284,0,15,6.716,15,15    s-6.716,15-15,15H15c-8.284,0-15-6.716-15-15c0,68.113,26.702,132.327,75.188,180.812C123.673,485.298,187.887,512,256,512    c-8.284,0-15-6.716-15-15v-64c0-8.284,6.716-15,15-15s15,6.716,15,15v64c0,8.284-6.716,15-15,15    c68.113,0,132.327-26.702,180.813-75.188C485.299,388.326,512,324.113,512,256C512,264.284,505.284,271,497,271z M393.475,138.991    l-90.51,158.392c-0.088,0.155-0.196,0.294-0.29,0.445c-0.157,0.254-0.316,0.505-0.488,0.749c-0.162,0.23-0.334,0.45-0.508,0.67    c-0.18,0.227-0.362,0.452-0.555,0.669c-0.19,0.213-0.389,0.415-0.59,0.617c-0.202,0.202-0.405,0.402-0.619,0.592    c-0.216,0.192-0.439,0.373-0.665,0.552c-0.221,0.175-0.443,0.349-0.675,0.512c-0.241,0.17-0.49,0.327-0.741,0.483    c-0.153,0.095-0.294,0.204-0.45,0.293l-158.393,90.51c-2.326,1.329-4.891,1.977-7.437,1.977c-3.883,0-7.723-1.505-10.611-4.394    c-4.783-4.783-5.773-12.176-2.417-18.049l90.51-158.392c0.089-0.156,0.198-0.296,0.292-0.448c0.156-0.252,0.313-0.501,0.484-0.744    c0.163-0.232,0.337-0.453,0.512-0.674c0.179-0.226,0.36-0.449,0.552-0.665c0.191-0.214,0.391-0.417,0.593-0.619    c0.201-0.201,0.403-0.4,0.616-0.59c0.217-0.193,0.441-0.375,0.668-0.555c0.22-0.175,0.441-0.347,0.671-0.51    c0.243-0.171,0.493-0.329,0.745-0.485c0.152-0.094,0.292-0.203,0.448-0.292l158.392-90.51c5.874-3.356,13.266-2.366,18.049,2.417    C395.841,125.726,396.831,133.118,393.475,138.991z"/>
	</g>
</g>
<g>
</g>
<g>
</g>
<g>
</g>
<g>
</g>
<g>
</g>
<g>
</g>
<g>
</g>
<g>
</g>
<g>
</g>
<g>
</g>
<g>
</g>
<g>
</g>
<g>
</g>
<g>
</g>
<g>
</g>
</svg>
