<?xml version="1.0" encoding="iso-8859-1"?>
<!-- Generator: Adobe Illustrator 19.0.0, SVG Export Plug-In . SVG Version: 6.00 Build 0)  -->
<svg xmlns="http://www.w3.org/2000/svg" xmlns:xlink="http://www.w3.org/1999/xlink" version="1.1" id="Layer_1" x="0px" y="0px" viewBox="0 0 512 512" style="enable-background:new 0 0 512 512;" xml:space="preserve">
<g>
	<g>
		<path d="M339.588,302.406c-2.49-0.674-4.973-1.406-7.588-1.406c-16.553,0-30,13.447-30,30c0,16.553,13.447,30,30,30    c2.615,0,5.098-0.732,7.588-1.406C334.9,351.068,332,341.4,332,331C332,320.6,334.9,310.932,339.588,302.406z"/>
	</g>
</g>
<g>
	<g>
		<rect y="151" width="512" height="60"/>
	</g>
</g>
<g>
	<g>
		<path d="M0,241v165c0,24.814,20.186,45,45,45h422c24.814,0,45-20.186,45-45V241H0z M75,271h92c8.291,0,15,6.709,15,15    c0,8.291-6.709,15-15,15H75c-8.291,0-15-6.709-15-15C60,277.709,66.709,271,75,271z M227,361H75c-8.291,0-15-6.709-15-15    c0-8.291,6.709-15,15-15h152c8.291,0,15,6.709,15,15C242,354.291,235.291,361,227,361z M392,391    c-10.898,0-20.991-3.135-29.81-8.262C353.079,388.07,342.708,391,332,391c-33.076,0-60-26.924-60-60s26.924-60,60-60    c10.708,0,21.079,2.93,30.19,8.232C371.009,274.135,381.102,271,392,271c33.076,0,60,26.924,60,60S425.076,391,392,391z"/>
	</g>
</g>
<g>
	<g>
		<path d="M467,61H45C20.186,61,0,81.186,0,106v15h512v-15C512,81.186,491.814,61,467,61z"/>
	</g>
</g>
<g>
	<g>
		<path d="M392,301c-16.553,0-30,13.447-30,30c0,16.553,13.447,30,30,30c16.553,0,30-13.447,30-30C422,314.447,408.553,301,392,301z    "/>
	</g>
</g>
<g>
</g>
<g>
</g>
<g>
</g>
<g>
</g>
<g>
</g>
<g>
</g>
<g>
</g>
<g>
</g>
<g>
</g>
<g>
</g>
<g>
</g>
<g>
</g>
<g>
</g>
<g>
</g>
<g>
</g>
</svg>
