<?xml version="1.0" encoding="iso-8859-1"?>
<!-- Generator: Adobe Illustrator 19.0.0, SVG Export Plug-In . SVG Version: 6.00 Build 0)  -->
<svg xmlns="http://www.w3.org/2000/svg" xmlns:xlink="http://www.w3.org/1999/xlink" version="1.1" id="Layer_1" x="0px" y="0px" viewBox="0 0 512 512" style="enable-background:new 0 0 512 512;" xml:space="preserve">
<g>
	<g>
		<path d="M256,239c-9.374,0-17,7.626-17,17c0,9.374,7.626,17,17,17c9.374,0,17-7.626,17-17C273,246.626,265.374,239,256,239z"/>
	</g>
</g>
<g>
	<g>
		<path d="M437.02,74.981C388.667,26.629,324.38,0,256,0S123.333,26.629,74.981,74.98C26.629,123.333,0,187.62,0,256    s26.629,132.667,74.98,181.019C123.333,485.371,187.62,512,256,512s132.667-26.629,181.019-74.98    C485.371,388.667,512,324.38,512,256S485.371,123.333,437.02,74.981z M48,271h-2c-8.284,0-15-6.716-15-15s6.716-15,15-15h2    c8.284,0,15,6.716,15,15S56.284,271,48,271z M241,46c0-8.284,6.716-15,15-15s15,6.716,15,15v2c0,8.284-6.716,15-15,15    s-15-6.716-15-15V46z M119.528,413.685l-1.414,1.415c-5.858,5.858-15.355,5.858-21.213,0c-5.858-5.858-5.858-15.355,0-21.213    l1.414-1.414c5.858-5.858,15.355-5.858,21.213,0C125.386,398.331,125.386,407.827,119.528,413.685z M119.528,119.528    c-5.858,5.858-15.355,5.858-21.213,0l-1.414-1.414c-5.858-5.858-5.858-15.355,0-21.213c5.858-5.858,15.355-5.858,21.213,0    l1.414,1.415C125.386,104.173,125.386,113.67,119.528,119.528z M271,466c0,8.284-6.716,15-15,15s-15-6.716-15-15v-2    c0-8.284,6.716-15,15-15s15,6.716,15,15V466z M368,271h-67.469c-6.276,18.58-23.86,32-44.531,32c-25.916,0-47-21.084-47-47    c0-20.671,13.42-38.255,32-44.531V112c0-8.284,6.716-15,15-15s15,6.716,15,15v99.469c13.866,4.684,24.848,15.665,29.531,29.531    H368c8.284,0,15,6.716,15,15S376.284,271,368,271z M415.099,415.099c-5.858,5.858-15.355,5.858-21.213,0l-1.414-1.415    c-5.858-5.857-5.858-15.355,0-21.213c5.858-5.858,15.355-5.858,21.213,0l1.414,1.414    C420.957,399.744,420.957,409.241,415.099,415.099z M415.099,118.114l-1.414,1.414c-5.858,5.858-15.355,5.858-21.213,0    c-5.858-5.858-5.858-15.355,0-21.213l1.414-1.415c5.858-5.858,15.355-5.858,21.213,0    C420.957,102.758,420.957,112.256,415.099,118.114z M466,271h-2c-8.284,0-15-6.716-15-15s6.716-15,15-15h2c8.284,0,15,6.716,15,15    S474.284,271,466,271z"/>
	</g>
</g>
<g>
</g>
<g>
</g>
<g>
</g>
<g>
</g>
<g>
</g>
<g>
</g>
<g>
</g>
<g>
</g>
<g>
</g>
<g>
</g>
<g>
</g>
<g>
</g>
<g>
</g>
<g>
</g>
<g>
</g>
</svg>
