<?xml version="1.0" encoding="iso-8859-1"?>
<!-- Generator: Adobe Illustrator 19.0.0, SVG Export Plug-In . SVG Version: 6.00 Build 0)  -->
<svg xmlns="http://www.w3.org/2000/svg" xmlns:xlink="http://www.w3.org/1999/xlink" version="1.1" id="Layer_1" x="0px" y="0px" viewBox="0 0 512 512" style="enable-background:new 0 0 512 512;" xml:space="preserve">
<g>
	<g>
		<path d="M437.312,75.688c-5.857-5.858-15.355-5.858-21.213,0c-5.858,5.858-5.858,15.356,0,21.213    C458.596,139.397,482,195.9,482,256c0,60.1-23.404,116.603-65.901,159.099c-5.857,5.858-5.857,15.355,0,21.213    c2.93,2.93,6.768,4.394,10.607,4.394c3.838,0,7.677-1.465,10.606-4.394C485.475,388.149,512,324.113,512,256    S485.475,123.851,437.312,75.688z"/>
	</g>
</g>
<g>
	<g>
		<path d="M391.993,121.007c-5.858-5.858-15.356-5.858-21.213,0c-5.858,5.858-5.858,15.355,0,21.213    C401.23,172.67,418,213.078,418,256s-16.77,83.33-47.219,113.78c-5.858,5.858-5.858,15.355,0,21.213    c2.928,2.93,6.767,4.394,10.606,4.394s7.677-1.465,10.606-4.394C428.11,354.877,448,306.936,448,256    C448,205.064,428.11,157.123,391.993,121.007z"/>
	</g>
</g>
<g>
	<g>
		<polygon points="128,142.597 128,176 128,336 128,369.403 242,470.736 242,41.264   "/>
	</g>
</g>
<g>
	<g>
		<path d="M289,33h-17v446h17c25.916,0,47-21.084,47-47V80C336,54.084,314.916,33,289,33z"/>
	</g>
</g>
<g>
	<g>
		<path d="M47,161c-25.916,0-47,21.084-47,47v96c0,25.916,21.084,47,47,47h51v-15V176v-15H47z"/>
	</g>
</g>
<g>
</g>
<g>
</g>
<g>
</g>
<g>
</g>
<g>
</g>
<g>
</g>
<g>
</g>
<g>
</g>
<g>
</g>
<g>
</g>
<g>
</g>
<g>
</g>
<g>
</g>
<g>
</g>
<g>
</g>
</svg>
