<?xml version="1.0" encoding="iso-8859-1"?>
<!-- Generator: Adobe Illustrator 19.0.0, SVG Export Plug-In . SVG Version: 6.00 Build 0)  -->
<svg xmlns="http://www.w3.org/2000/svg" xmlns:xlink="http://www.w3.org/1999/xlink" version="1.1" id="Layer_1" x="0px" y="0px" viewBox="0 0 512 512" style="enable-background:new 0 0 512 512;" xml:space="preserve">
<g>
	<g>
		<path d="M437.02,74.981C388.667,26.629,324.38,0,256,0S123.333,26.629,74.981,74.98C26.629,123.333,0,187.62,0,256    s26.629,132.667,74.98,181.019C123.333,485.371,187.62,512,256,512s132.667-26.629,181.019-74.98    C485.371,388.667,512,324.38,512,256S485.371,123.333,437.02,74.981z M252.897,347.338l10.552,21.104    c5.497,10.994,6.664,23.557,3.288,35.375l-22.255,77.894c-26.46-1.319-52.08-7.184-75.964-17.207l26.583-53.167    c9.061-18.123,5.523-39.926-8.805-54.253l-13.807-13.807c-21.342-21.342-39.007-45.851-52.504-72.847    c-9.286-18.57-29.283-28.752-49.766-25.341l-40.169,6.695c1.07-58.788,24.454-113.9,66.144-155.59    c10.639-10.64,22.154-20.086,34.379-28.276l-11.72,82.041c-0.043,0.303-0.085,0.607-0.122,0.894    c-2.42,18.452,2.833,36.938,14.793,52.053c12.957,16.375,32.368,26.987,53.254,29.116l64.969,6.623l42.93,21.465l-32.975,32.975    C247.374,307.412,243.836,329.215,252.897,347.338z M415.806,415.806c-32.23,32.23-72.483,53.518-116.254,62.018l81.249-71.093    c10.56-9.239,18.487-21.16,22.924-34.472l16.387-49.158c3.97-11.91,3.064-24.653-2.55-35.881    c-5.615-11.229-15.266-19.6-27.175-23.569l-64.633-21.544l-55.489-27.744l-3.216-39.451c1.638-3.199,4.24-5.785,7.515-7.422    l39.525-19.762c11.78-5.891,20.599-16.536,24.194-29.206l18.435-64.956c19.754,9.851,38.124,22.669,54.553,38.226l-15.255,10.17    c-17.587,11.725-25.202,33.917-18.518,53.969l19.211,57.634c4.653,13.96,15.766,25.072,29.726,29.726l55.491,18.497    C480.473,319.987,457.125,374.487,415.806,415.806z"/>
	</g>
</g>
<g>
</g>
<g>
</g>
<g>
</g>
<g>
</g>
<g>
</g>
<g>
</g>
<g>
</g>
<g>
</g>
<g>
</g>
<g>
</g>
<g>
</g>
<g>
</g>
<g>
</g>
<g>
</g>
<g>
</g>
</svg>
