<?xml version="1.0" encoding="iso-8859-1"?>
<!-- Generator: Adobe Illustrator 19.0.0, SVG Export Plug-In . SVG Version: 6.00 Build 0)  -->
<svg xmlns="http://www.w3.org/2000/svg" xmlns:xlink="http://www.w3.org/1999/xlink" version="1.1" id="Layer_1" x="0px" y="0px" viewBox="0 0 512 512" style="enable-background:new 0 0 512 512;" xml:space="preserve">
<g>
	<g>
		<path d="M323.19,288H288c-17.093,0-31-13.907-31-31v-64.415L188.81,290H224c17.093,0,31,13.907,31,31v64.415L323.19,288z"/>
	</g>
</g>
<g>
	<g>
		<path d="M384,66h-17V47c0-25.916-21.084-47-47-47H192c-25.916,0-47,21.084-47,47v19h-17c-25.916,0-47,21.084-47,47v352    c0,25.916,21.084,47,47,47h256c25.916,0,47-21.084,47-47V113C431,87.084,409.916,66,384,66z M175,47c0-9.374,7.626-17,17-17h128    c9.374,0,17,7.626,17,17v19H175V47z M364.289,281.602l-112,160c-2.86,4.086-7.488,6.399-12.29,6.399    c-1.502,0-3.021-0.226-4.508-0.695C229.246,445.338,225,439.547,225,433V321c0-0.551-0.449-1-1-1h-64    c-5.593,0-10.722-3.112-13.305-8.073s-2.191-10.947,1.016-15.529l112-160c3.754-5.364,10.553-7.672,16.798-5.704    C282.754,132.662,287,138.453,287,145v112c0,0.551,0.449,1,1,1h64c5.593,0,10.722,3.112,13.305,8.073    S367.496,277.02,364.289,281.602z"/>
	</g>
</g>
<g>
</g>
<g>
</g>
<g>
</g>
<g>
</g>
<g>
</g>
<g>
</g>
<g>
</g>
<g>
</g>
<g>
</g>
<g>
</g>
<g>
</g>
<g>
</g>
<g>
</g>
<g>
</g>
<g>
</g>
</svg>
