<?xml version="1.0" encoding="iso-8859-1"?>
<!-- Generator: Adobe Illustrator 19.0.0, SVG Export Plug-In . SVG Version: 6.00 Build 0)  -->
<svg xmlns="http://www.w3.org/2000/svg" xmlns:xlink="http://www.w3.org/1999/xlink" version="1.1" id="Layer_1" x="0px" y="0px" viewBox="0 0 512 512" style="enable-background:new 0 0 512 512;" xml:space="preserve">
<g>
	<g>
		<path d="M431,356.469V239c0-82.192-56.962-151.319-133.479-170.01C301.013,62.424,303,54.941,303,47c0-25.916-21.084-47-47-47    s-47,21.084-47,47c0,7.941,1.987,15.424,5.479,21.99C137.962,87.681,81,156.808,81,239v117.469c-18.58,6.276-32,23.86-32,44.531    v32c0,8.284,6.716,15,15,15h114.446c7.029,36.41,39.122,64,77.554,64s70.524-27.59,77.554-64H448c8.284,0,15-6.716,15-15v-32    C463,380.329,449.58,362.745,431,356.469z M256,30c9.374,0,17,7.626,17,17s-7.626,17-17,17c-9.374,0-17-7.626-17-17    S246.626,30,256,30z M433,418H320H192H79v-17c0-9.374,7.626-17,17-17h320c9.374,0,17,7.626,17,17V418z"/>
	</g>
</g>
<g>
</g>
<g>
</g>
<g>
</g>
<g>
</g>
<g>
</g>
<g>
</g>
<g>
</g>
<g>
</g>
<g>
</g>
<g>
</g>
<g>
</g>
<g>
</g>
<g>
</g>
<g>
</g>
<g>
</g>
</svg>
