<?xml version="1.0" encoding="iso-8859-1"?>
<!-- Generator: Adobe Illustrator 19.0.0, SVG Export Plug-In . SVG Version: 6.00 Build 0)  -->
<svg xmlns="http://www.w3.org/2000/svg" xmlns:xlink="http://www.w3.org/1999/xlink" version="1.1" id="Layer_1" x="0px" y="0px" viewBox="0 0 512 512" style="enable-background:new 0 0 512 512;" xml:space="preserve">
<g>
	<g>
		<path d="M432,64h-81V47c0-25.916-21.084-47-47-47h-96c-25.916,0-47,21.084-47,47v17H80c-25.916,0-47,21.084-47,47v32    c0,8.284,6.716,15,15,15h18.294l28.122,311.255C96.631,493.624,116.753,512,141.223,512h229.555    c24.469,0,44.592-18.376,46.807-42.753L445.706,158H464c8.284,0,15-6.716,15-15v-32C479,85.084,457.916,64,432,64z M191,47    c0-9.374,7.626-17,17-17h96c9.374,0,17,7.626,17,17v17H191V47z M200.996,415.94c-0.455,0.041-0.909,0.061-1.357,0.061    c-7.679,0-14.223-5.865-14.922-13.661l-14.531-162c-0.74-8.251,5.349-15.54,13.6-16.28c8.241-0.744,15.54,5.348,16.28,13.6    l14.531,162C215.336,407.911,209.248,415.2,200.996,415.94z M341.815,240.34l-14.531,162c-0.699,7.795-7.244,13.661-14.922,13.661    c-0.449,0-0.902-0.02-1.357-0.061c-8.251-0.74-14.34-8.029-13.6-16.28l14.531-162c0.74-8.251,8.035-14.34,16.28-13.6    C336.466,224.8,342.555,232.089,341.815,240.34z M449,128h-17H80H63v-17c0-9.374,7.626-17,17-17h96h160h96c9.374,0,17,7.626,17,17    V128z"/>
	</g>
</g>
<g>
</g>
<g>
</g>
<g>
</g>
<g>
</g>
<g>
</g>
<g>
</g>
<g>
</g>
<g>
</g>
<g>
</g>
<g>
</g>
<g>
</g>
<g>
</g>
<g>
</g>
<g>
</g>
<g>
</g>
</svg>
