<?xml version="1.0" encoding="iso-8859-1"?>
<!-- Generator: Adobe Illustrator 19.0.0, SVG Export Plug-In . SVG Version: 6.00 Build 0)  -->
<svg xmlns="http://www.w3.org/2000/svg" xmlns:xlink="http://www.w3.org/1999/xlink" version="1.1" id="Layer_1" x="0px" y="0px" viewBox="0 0 512 512" style="enable-background:new 0 0 512 512;" xml:space="preserve">
<g>
	<g>
		<path d="M456.134,55.865c-74.488-74.487-195.688-74.487-270.175,0c-30.014,30.014-48.797,68.069-54.32,110.05    c-4.844,36.828,1.284,74.76,17.287,108.042l-42.185,42.177c-2.814,2.814-4.395,6.63-4.396,10.609c0,3.98,1.58,7.796,4.394,10.609    l67.907,67.906c2.814,2.814,6.631,4.395,10.609,4.394c3.979-0.001,7.796-1.581,10.609-4.396l42.184-42.193    c25.851,12.43,54.501,18.91,83.269,18.91c8.266,0,16.546-0.535,24.765-1.616c41.982-5.522,80.037-24.306,110.05-54.319    C530.622,251.553,530.622,130.354,456.134,55.865z M434.917,304.823c-50.734,50.733-129.851,61.745-192.396,26.781    c-12.891-7.21-24.782-16.22-35.343-26.781c-1.32-1.32-2.617-2.662-3.887-4.022c-7.627-8.166-14.364-17.058-20.106-26.533    c-0.956-1.579-1.885-3.175-2.787-4.785c-34.966-62.548-23.953-141.666,26.779-192.398c31.398-31.397,72.627-47.091,113.87-47.091    c41.234,0,82.479,15.701,113.87,47.091C497.704,139.872,497.704,242.035,434.917,304.823z"/>
	</g>
</g>
<g>
	<g>
		<path d="M410.87,101.131c-23.956-23.957-55.856-37.15-89.823-37.15s-65.867,13.193-89.823,37.15    c-23.957,23.957-37.151,55.856-37.151,89.824c0,33.967,13.193,65.867,37.151,89.824c23.956,23.957,55.856,37.15,89.823,37.15    s65.867-13.193,89.823-37.15c23.957-23.956,37.151-55.857,37.151-89.824C448.02,156.987,434.827,125.086,410.87,101.131z"/>
	</g>
</g>
<g>
	<g>
		<path d="M86.235,359.283l-72.5,72.494c-18.314,18.328-18.314,48.151,0.008,66.488C22.908,507.422,34.943,512,46.981,512    s24.08-4.58,33.247-13.74l72.489-72.496L86.235,359.283z"/>
	</g>
</g>
<g>
</g>
<g>
</g>
<g>
</g>
<g>
</g>
<g>
</g>
<g>
</g>
<g>
</g>
<g>
</g>
<g>
</g>
<g>
</g>
<g>
</g>
<g>
</g>
<g>
</g>
<g>
</g>
<g>
</g>
</svg>
