<?xml version="1.0" encoding="iso-8859-1"?>
<!-- Generator: Adobe Illustrator 19.0.0, SVG Export Plug-In . SVG Version: 6.00 Build 0)  -->
<svg xmlns="http://www.w3.org/2000/svg" xmlns:xlink="http://www.w3.org/1999/xlink" version="1.1" id="Layer_1" x="0px" y="0px" viewBox="0 0 512 512" style="enable-background:new 0 0 512 512;" xml:space="preserve">
<g>
	<g>
		<path d="M351,0v129h17c9.374,0,17-7.626,17-17V0H351z"/>
	</g>
</g>
<g>
	<g>
		<path d="M368,255H144c-9.374,0-17,7.626-17,17v17h258v-17C385,262.626,377.374,255,368,255z"/>
	</g>
</g>
<g>
	<g>
		<rect x="287" width="34" height="129"/>
	</g>
</g>
<g>
	<g>
		<path d="M127,0v112c0,9.374,7.626,17,17,17h113V0H127z"/>
	</g>
</g>
<g>
	<g>
		<path d="M507.606,68.979L443.021,4.394C440.208,1.58,436.392,0,432.414,0H415v112c0,25.916-21.084,47-47,47h-32h-64H144    c-25.916,0-47-21.084-47-47V0H64C28.71,0,0,28.71,0,64v384c0,35.29,28.71,64,64,64h33V304v-32c0-25.916,21.084-47,47-47h224    c25.916,0,47,21.084,47,47v32v208h33c35.29,0,64-28.71,64-64V79.586C512,75.607,510.419,71.792,507.606,68.979z"/>
	</g>
</g>
<g>
	<g>
		<path d="M127,319v193h258V319H127z M336,447H176c-8.284,0-15-6.716-15-15s6.716-15,15-15h160c8.284,0,15,6.716,15,15    S344.284,447,336,447z M336,383H176c-8.284,0-15-6.716-15-15s6.716-15,15-15h160c8.284,0,15,6.716,15,15S344.284,383,336,383z"/>
	</g>
</g>
<g>
</g>
<g>
</g>
<g>
</g>
<g>
</g>
<g>
</g>
<g>
</g>
<g>
</g>
<g>
</g>
<g>
</g>
<g>
</g>
<g>
</g>
<g>
</g>
<g>
</g>
<g>
</g>
<g>
</g>
</svg>
