<?xml version="1.0" encoding="iso-8859-1"?>
<!-- Generator: Adobe Illustrator 19.0.0, SVG Export Plug-In . SVG Version: 6.00 Build 0)  -->
<svg xmlns="http://www.w3.org/2000/svg" xmlns:xlink="http://www.w3.org/1999/xlink" version="1.1" id="Layer_1" x="0px" y="0px" viewBox="0 0 512 512" style="enable-background:new 0 0 512 512;" xml:space="preserve">
<g>
	<g>
		<path d="M498.768,140.425L371.52,13.177C363.023,4.679,351.725,0,339.708,0c-12.017,0-23.315,4.68-31.813,13.178    c-17.537,17.542-17.537,46.083,0.001,63.622L318.5,87.402l-79.524,79.527c-45.448-14.61-95.795-8.903-136.543,15.879    c-24.436,14.862-26.936,49.328-6.958,69.307l72.04,72.04L4.495,486.375c-5.87,5.841-5.894,15.337-0.052,21.208    c2.93,2.945,6.78,4.418,10.63,4.418c3.825,0,7.652-1.455,10.578-4.366l163.073-162.269l71.105,71.105    c19.984,19.984,54.436,17.492,69.307-6.957c24.784-40.747,30.49-91.095,15.879-136.544l79.528-79.526l10.603,10.603    c8.77,8.771,20.288,13.155,31.81,13.155c11.519,0,23.042-4.386,31.813-13.155C516.309,186.507,516.309,157.965,498.768,140.425z     M477.562,182.838c-5.848,5.848-15.362,5.849-21.208,0.001l-21.208-21.208l-84.833-84.833l-21.208-21.207    c-5.846-5.846-5.846-15.36,0-21.208c2.832-2.832,6.597-4.392,10.603-4.392c4.006,0,7.771,1.56,10.603,4.392L477.56,161.632    C483.407,167.479,483.407,176.992,477.562,182.838z"/>
	</g>
</g>
<g>
</g>
<g>
</g>
<g>
</g>
<g>
</g>
<g>
</g>
<g>
</g>
<g>
</g>
<g>
</g>
<g>
</g>
<g>
</g>
<g>
</g>
<g>
</g>
<g>
</g>
<g>
</g>
<g>
</g>
</svg>
