<?xml version="1.0" encoding="iso-8859-1"?>
<!-- Generator: Adobe Illustrator 19.0.0, SVG Export Plug-In . SVG Version: 6.00 Build 0)  -->
<svg xmlns="http://www.w3.org/2000/svg" xmlns:xlink="http://www.w3.org/1999/xlink" version="1.1" id="Layer_1" x="0px" y="0px" viewBox="0 0 512 512" style="enable-background:new 0 0 512 512;" xml:space="preserve">
<g>
	<g>
		<path d="M384,207.218c-9.374,0-17,7.626-17,17c0,9.374,7.626,17,17,17c9.374,0,17-7.626,17-17    C401,214.844,393.374,207.218,384,207.218z"/>
	</g>
</g>
<g>
	<g>
		<path d="M256,207.218c-9.374,0-17,7.626-17,17c0,9.374,7.626,17,17,17c9.374,0,17-7.626,17-17    C273,214.844,265.374,207.218,256,207.218z"/>
	</g>
</g>
<g>
	<g>
		<path d="M436.184,65.049C387.945,23.242,323.955,0.218,256,0.218S124.055,23.242,75.816,65.049    C26.925,107.421,0,163.948,0,224.218c0,43,14.016,84.783,40.533,120.832c31.472,42.784,29.94,101.331-3.612,139.177l-0.862,0.966    c-4.58,5.135-5.079,12.727-1.21,18.417l1.091,1.604c2.855,4.199,7.548,6.568,12.408,6.568c1.726,0,3.474-0.299,5.167-0.921    c44.948-16.504,83.076-43.489,110.886-78.364c20.5,5.407,63.308,15.719,91.599,15.719c67.955,0,131.945-23.024,180.184-64.831    C485.075,341.016,512,284.489,512,224.218S485.075,107.421,436.184,65.049z M128,271.218c-25.916,0-47-21.084-47-47    c0-25.916,21.084-47,47-47s47,21.084,47,47C175,250.134,153.916,271.218,128,271.218z M256,271.218c-25.916,0-47-21.084-47-47    c0-25.916,21.084-47,47-47s47,21.084,47,47C303,250.134,281.916,271.218,256,271.218z M384,271.218c-25.916,0-47-21.084-47-47    c0-25.916,21.084-47,47-47s47,21.084,47,47C431,250.134,409.916,271.218,384,271.218z"/>
	</g>
</g>
<g>
	<g>
		<path d="M128,207.218c-9.374,0-17,7.626-17,17c0,9.374,7.626,17,17,17s17-7.626,17-17C145,214.844,137.374,207.218,128,207.218z"/>
	</g>
</g>
<g>
</g>
<g>
</g>
<g>
</g>
<g>
</g>
<g>
</g>
<g>
</g>
<g>
</g>
<g>
</g>
<g>
</g>
<g>
</g>
<g>
</g>
<g>
</g>
<g>
</g>
<g>
</g>
<g>
</g>
</svg>
