<?xml version="1.0" encoding="iso-8859-1"?>
<!-- Generator: Adobe Illustrator 19.0.0, SVG Export Plug-In . SVG Version: 6.00 Build 0)  -->
<svg xmlns="http://www.w3.org/2000/svg" xmlns:xlink="http://www.w3.org/1999/xlink" version="1.1" id="Layer_1" x="0px" y="0px" viewBox="0 0 512 512" style="enable-background:new 0 0 512 512;" xml:space="preserve">
<g>
	<g>
		<path d="M406,242H106c-24.814,0-45,20.186-45,45v180c0,24.814,20.186,45,45,45h300c24.814,0,45-20.186,45-45V287    C451,262.186,430.814,242,406,242z M271,389.246V437c0,8.291-6.709,15-15,15c-8.291,0-15-6.709-15-15v-47.754    c-17.424-6.211-30-22.705-30-42.246c0-24.814,20.186-45,45-45c24.814,0,45,20.186,45,45C301,366.541,288.424,383.035,271,389.246z    "/>
	</g>
</g>
<g>
	<g>
		<path d="M256,0C165.033,0,91,74.033,91,165v47h90v-47c0-41.367,33.633-75,75-75s75,33.633,75,75v47h90v-47    C421,74.033,346.967,0,256,0z"/>
	</g>
</g>
<g>
</g>
<g>
</g>
<g>
</g>
<g>
</g>
<g>
</g>
<g>
</g>
<g>
</g>
<g>
</g>
<g>
</g>
<g>
</g>
<g>
</g>
<g>
</g>
<g>
</g>
<g>
</g>
<g>
</g>
</svg>
