<?xml version="1.0" encoding="iso-8859-1"?>
<!-- Generator: Adobe Illustrator 19.0.0, SVG Export Plug-In . SVG Version: 6.00 Build 0)  -->
<svg xmlns="http://www.w3.org/2000/svg" xmlns:xlink="http://www.w3.org/1999/xlink" version="1.1" id="Layer_1" x="0px" y="0px" viewBox="0 0 512.001 512.001" style="enable-background:new 0 0 512.001 512.001;" xml:space="preserve">
<g>
	<g>
		<path d="M469.907,42.094c-56.188-56.125-147.531-56.125-203.656,0c-48.351,48.378-55.043,122.893-20.086,178.492l-25.578,25.578    c-55.593-34.957-130.088-28.265-178.493,20.086c-56.125,56.125-56.125,147.5,0,203.656C70.189,497.969,107.064,512,143.939,512    s73.75-14.031,101.813-42.094c48.351-48.378,55.044-122.893,20.086-178.492l25.578-25.578    c23.33,14.669,49.988,22.008,76.648,22.008c36.875,0,73.75-14.031,101.844-42.094C526.032,189.625,526.032,98.25,469.907,42.094z     M203.313,427.492c-15.8,15.8-36.891,24.508-59.375,24.508c-22.486,0-43.596-8.716-59.441-24.544    c-32.716-32.735-32.722-86.035,0.023-118.78c15.821-15.804,36.934-24.52,59.425-24.52c11.273,0,22.195,2.192,32.278,6.37    l-48.286,48.286c-12.469,12.469-12.469,32.781,0,45.25c6.031,6.031,14.063,9.344,22.625,9.344c8.562,0,16.594-3.313,22.625-9.344    l48.27-48.27C234.095,366.268,228.055,402.736,203.313,427.492z M427.481,203.324c-15.821,15.804-36.931,24.52-59.417,24.52    c-11.276,0-22.201-2.192-32.286-6.371l50.411-50.411c12.469-12.469,12.469-32.781,0-45.25c-6.031-6-14.063-9.313-22.625-9.313    s-16.594,3.313-22.625,9.313l-50.395,50.395c-12.636-30.476-6.596-66.944,18.146-91.7C324.489,68.708,345.577,60,368.056,60    c22.491,0,43.604,8.716,59.449,24.544C460.221,117.278,460.226,170.578,427.481,203.324z"/>
	</g>
</g>
<g>
</g>
<g>
</g>
<g>
</g>
<g>
</g>
<g>
</g>
<g>
</g>
<g>
</g>
<g>
</g>
<g>
</g>
<g>
</g>
<g>
</g>
<g>
</g>
<g>
</g>
<g>
</g>
<g>
</g>
</svg>
