<?xml version="1.0" encoding="iso-8859-1"?>
<!-- Generator: Adobe Illustrator 19.0.0, SVG Export Plug-In . SVG Version: 6.00 Build 0)  -->
<svg version="1.1" id="Capa_1" xmlns="http://www.w3.org/2000/svg" xmlns:xlink="http://www.w3.org/1999/xlink" x="0px" y="0px"
	 viewBox="0 0 512 512" style="enable-background:new 0 0 512 512;" xml:space="preserve">
<g>
	<g>
		<path d="M270.1,155.895V242h44.505C311.031,200.713,292.873,166.659,270.1,155.895z"/>
	</g>
</g>
<g>
	<g>
		<path d="M196.395,242H239.9v-86.105C217.127,166.662,199.97,200.714,196.395,242z"/>
	</g>
</g>
<g>
	<g>
		<path d="M196.395,272c3.574,41.287,20.732,75.339,43.505,86.105V272H196.395z"/>
	</g>
</g>
<g>
	<g>
		<path d="M270.1,272v86.105c22.773-10.765,40.93-44.819,44.505-86.105H270.1z"/>
	</g>
</g>
<g>
	<g>
		<path d="M485.961,335.151V178.847c4.592-2.151,9.058-4.733,12.847-8.522c17.549-17.549,17.549-46.084,0-63.633
			c-17.549-17.549-46.084-17.549-63.633,0c-2.291,2.291-3.461,5.151-5.153,7.766L299.899,39.064C296.959,17.075,278.282,0,255.5,0
			c-22.782,0-41.459,17.075-44.399,39.064L81.978,114.458c-1.692-2.615-2.862-5.475-5.153-7.766
			c-17.549-17.549-46.084-17.549-63.633,0c-17.549,17.549-17.549,46.084,0,63.633c3.788,3.788,8.254,6.37,12.847,8.522v156.304
			c-4.59,2.153-9.058,4.735-12.847,8.524c-17.549,17.549-17.549,46.084,0,63.633c8.774,8.774,20.288,13.154,31.816,13.154
			s23.042-4.38,31.816-13.154c0.69-0.69,0.917-1.617,1.553-2.34l134.766,76.648C219.247,499.236,235.829,512,255.5,512
			s36.253-12.764,42.356-30.385l135.766-76.648c0.635,0.723,0.862,1.65,1.553,2.34c8.774,8.774,20.288,13.154,31.816,13.154
			s23.042-4.38,31.816-13.154c17.549-17.549,17.549-46.084,0-63.633C495.019,339.886,490.551,337.305,485.961,335.151z
			 M456.162,332.656L456.162,332.656c-6.659,1.694-13.106,4.633-18.561,9.41l-59.083-32.045c5.142-11.926,8.954-24.578,10.466-38.02
			H344.52c-4.358,60.797-34.848,108.118-74.62,117.797v0.687c38.419-4.321,72.341-24.728,93.96-54.289l59.514,32.291
			c-0.449,2.822-1.181,5.533-1.093,8.383l-126.155,71.1c-5.083-10.798-14.891-19.164-26.226-23.205v-34.276
			c-4.99,0.558-9.262,1.512-14.4,1.512c-5.138,0-10.41-0.954-15.4-1.512v34.276c-11.334,4.041-20.143,12.407-25.226,23.205
			l-125.155-71.1c0.088-2.849-0.643-5.563-1.093-8.384l58.508-32.294c21.621,29.564,54.544,49.973,92.965,54.294v-0.687
			c-39.772-9.679-69.262-57.001-73.62-117.797h-44.464c1.512,13.44,5.323,26.091,10.463,38.015l-58.08,32.051
			c-5.457-4.777-11.902-9.716-18.56-11.41V179.339c7.573-1.924,15.068-3.096,20.986-9.014c0.196-0.196,0.249-0.465,0.439-0.663
			l56.452,31.121c-5.909,12.797-10.056,26.596-11.7,41.217h44.464c4.358-60.797,33.848-108.118,73.62-117.797v-0.687
			c-37.211,4.186-69.081,23.599-90.733,51.66l-57.552-31.75L217.976,69.74c5.341,8.075,12.857,14.193,22.124,17.498v36.276
			c4.99-0.558,10.262-1.512,15.4-1.512c5.138,0,9.41,0.954,14.4,1.512V87.237c9.267-3.305,17.783-9.423,23.124-17.498
			l127.162,73.686l-58.552,31.75c-21.652-28.061-54.523-47.474-91.733-51.66v0.687c39.772,9.679,70.262,57.001,74.62,117.797h44.464
			c-1.644-14.621-5.792-28.42-11.7-41.217l57.452-31.121c0.19,0.198,0.244,0.467,0.439,0.663
			c5.918,5.918,13.413,9.089,20.986,11.014V332.656z"/>
	</g>
</g>
<g>
</g>
<g>
</g>
<g>
</g>
<g>
</g>
<g>
</g>
<g>
</g>
<g>
</g>
<g>
</g>
<g>
</g>
<g>
</g>
<g>
</g>
<g>
</g>
<g>
</g>
<g>
</g>
<g>
</g>
</svg>
