<?xml version="1.0" encoding="iso-8859-1"?>
<!-- Generator: Adobe Illustrator 19.0.0, SVG Export Plug-In . SVG Version: 6.00 Build 0)  -->
<svg version="1.1" id="Capa_1" xmlns="http://www.w3.org/2000/svg" xmlns:xlink="http://www.w3.org/1999/xlink" x="0px" y="0px"
	 viewBox="0 0 512 512" style="enable-background:new 0 0 512 512;" xml:space="preserve">
<g>
	<g>
		<path d="M256,0c-82.705,0-150,67.295-150,150h90c0-33.091,26.909-60.2,60-60.2s60,27.109,60,60.2h90C406,67.295,338.705,0,256,0z"
			/>
	</g>
</g>
<g>
	<g>
		<path d="M286,302h-45v30h45C305.828,332,305.828,302,286,302z"/>
	</g>
</g>
<g>
	<g>
		<path d="M286,362h-45v30h45C305.828,392,305.828,362,286,362z"/>
	</g>
</g>
<g>
	<g>
		<path d="M376,272h75v-47c0-24.814-20.186-45-45-45c-260.256,0-33.37,0-300,0c-24.814,0-45,20.186-45,45v242
			c0,24.814,20.186,45,45,45h300c24.814,0,45-20.186,45-45v-45h-75c-19.773,0-19.854-30,0-30h75v-30h-75c-19.773,0-19.854-30,0-30
			h75v-30h-75C356.227,302,356.146,272,376,272z M286,422h-15v15c0,19.773-30,19.854-30,0v-15h-45c-19.773,0-19.854-30,0-30h15v-90
			h-15c-19.773,0-19.854-30,0-30h45v-15c0-19.773,30-19.854,30,0v15h15c38.501,0,59.664,45.761,33.296,75
			C345.664,376.239,324.501,422,286,422z"/>
	</g>
</g>
<g>
</g>
<g>
</g>
<g>
</g>
<g>
</g>
<g>
</g>
<g>
</g>
<g>
</g>
<g>
</g>
<g>
</g>
<g>
</g>
<g>
</g>
<g>
</g>
<g>
</g>
<g>
</g>
<g>
</g>
</svg>
