<?xml version="1.0" encoding="iso-8859-1"?>
<!-- Generator: Adobe Illustrator 19.0.0, SVG Export Plug-In . SVG Version: 6.00 Build 0)  -->
<svg version="1.1" id="Capa_1" xmlns="http://www.w3.org/2000/svg" xmlns:xlink="http://www.w3.org/1999/xlink" x="0px" y="0px"
	 viewBox="0 0 512.001 512.001" style="enable-background:new 0 0 512.001 512.001;" xml:space="preserve">
<g>
	<g>
		<path d="M183.763,137.319L39.585,281.503c-52.785,52.755-52.775,138.138,0,190.913c52.771,52.771,138.154,52.79,190.913,0
			L374.68,328.229L183.763,137.319z M228.321,372.795c-1.927,40.225-49.492,56.576-76.384,29.683l-10.604-10.607l-10.607,10.607
			c-13.954,13.954-35.35-7.072-21.211-21.211l10.609-10.609c-11.185-11.187-6.859-6.86-31.82-31.827
			c-13.945-13.945,7.151-35.271,21.211-21.211l10.611,10.615c3.267-3.267,45.255-45.255,63.642-63.642l-10.605-10.605
			c-13.945-13.945,7.151-35.271,21.211-21.211l31.816,31.816l10.605-10.605c13.945-13.945,35.271,7.151,21.211,21.211
			l-10.605,10.605l10.605,10.605C285.207,323.61,268.173,370.881,228.321,372.795z"/>
	</g>
</g>
<g>
	<g>
		<path d="M443.892,216.596l0.007-0.007C437.206,202.562,304.207,72.307,295.4,68.103l-0.326,0.326
			c-16.661-7.474-37.498-4.924-50.777,8.355l-39.324,39.324L395.89,307.017l39.32-39.32
			C448.46,254.45,452.414,234.462,443.892,216.596z"/>
	</g>
</g>
<g>
	<g>
		<path d="M194.374,360.058l-31.824-31.824l-21.215,21.215l31.813,31.82C187.128,395.249,208.411,374.096,194.374,360.058z"/>
	</g>
</g>
<g>
	<g>
		<path d="M236.796,317.621l-31.816-31.816l-21.218,21.218l31.823,31.824C229.491,352.753,250.856,331.716,236.796,317.621z"/>
	</g>
</g>
<g>
	<g>
		<path d="M414,13.122c-17.549-17.476-46.084-17.52-63.633,0.015l-33.007,33.007c10.167,6.508,56.132,53.78,64.816,62.464
			l63.651-63.651L414,13.122z"/>
	</g>
</g>
<g>
	<g>
		<path d="M498.859,97.995l-31.822-31.826l-63.649,63.649c9.046,9.046,56.028,54.849,62.58,64.708l32.906-32.899
			C516.378,144.079,516.378,115.544,498.859,97.995z"/>
	</g>
</g>
<g>
</g>
<g>
</g>
<g>
</g>
<g>
</g>
<g>
</g>
<g>
</g>
<g>
</g>
<g>
</g>
<g>
</g>
<g>
</g>
<g>
</g>
<g>
</g>
<g>
</g>
<g>
</g>
<g>
</g>
</svg>
