<?xml version="1.0" encoding="iso-8859-1"?>
<!-- Generator: Adobe Illustrator 19.0.0, SVG Export Plug-In . SVG Version: 6.00 Build 0)  -->
<svg version="1.1" id="Capa_1" xmlns="http://www.w3.org/2000/svg" xmlns:xlink="http://www.w3.org/1999/xlink" x="0px" y="0px"
	 viewBox="0 0 512.001 512.001" style="enable-background:new 0 0 512.001 512.001;" xml:space="preserve">
<g>
	<g>
		<path d="M511.323,461.504l-39.096-111.502c-5.01-20.054-22.969-34.072-43.651-34.072H325.422
			c-20.684,0-38.642,14.019-43.432,33.296l-26.993,65.913l-24.767-65.137c-5.01-20.054-22.969-34.072-43.651-34.072H83.425
			c-20.684,0-38.642,14.019-43.432,33.296L0.677,461.504c-2.971,9.594,4.2,19.424,14.326,19.424H255h241.997
			C507.123,480.927,514.294,471.097,511.323,461.504z"/>
	</g>
</g>
<g>
	<g>
		<path d="M352.228,185.003c-5.01-20.054-22.969-34.071-43.651-34.071H203.423c-20.684,0-38.643,14.019-43.432,33.296
			L133.209,285.93h245.575L352.228,185.003z"/>
	</g>
</g>
<g>
	<g>
		<path d="M240.001,45.933v30c-0.001,19.773,30,19.854,30,0v-30C270.001,26.16,240.001,26.079,240.001,45.933z"/>
	</g>
</g>
<g>
	<g>
		<path d="M159.538,109.257l-21.211-21.211c-13.945-13.945-35.271,7.151-21.211,21.211l21.211,21.211
			C152.273,144.414,173.598,123.318,159.538,109.257z"/>
	</g>
</g>
<g>
	<g>
		<path d="M105.003,210.931h-30c-19.774,0-19.855,30,0,30h30C124.776,240.931,124.857,210.931,105.003,210.931z"/>
	</g>
</g>
<g>
	<g>
		<path d="M436.998,210.931h-30c-19.774,0-19.855,30,0,30h30C456.771,240.931,456.852,210.931,436.998,210.931z"/>
	</g>
</g>
<g>
	<g>
		<path d="M371.673,88.047l-21.211,21.211c-14.003,14.003,7.208,35.214,21.211,21.211l21.211-21.211
			C406.829,95.313,385.733,73.987,371.673,88.047z"/>
	</g>
</g>
<g>
</g>
<g>
</g>
<g>
</g>
<g>
</g>
<g>
</g>
<g>
</g>
<g>
</g>
<g>
</g>
<g>
</g>
<g>
</g>
<g>
</g>
<g>
</g>
<g>
</g>
<g>
</g>
<g>
</g>
</svg>
