<?xml version="1.0" encoding="iso-8859-1"?>
<!-- Generator: Adobe Illustrator 19.0.0, SVG Export Plug-In . SVG Version: 6.00 Build 0)  -->
<svg version="1.1" id="Capa_1" xmlns="http://www.w3.org/2000/svg" xmlns:xlink="http://www.w3.org/1999/xlink" x="0px" y="0px"
	 viewBox="0 0 512 512" style="enable-background:new 0 0 512 512;" xml:space="preserve">
<g>
	<g>
		<path d="M151.8,225.991c0-62.086,29.471-117.36,74.823-153.098C207.792,65.381,185.814,60.991,165,60.991
			c-90.981,0-165,74.019-165,165c0,88.857,72.605,161.543,160.672,164.883l55.723,55.723c9.433,9.433,25.605,2.735,25.605-10.605
			v-45.645C186.263,354.707,151.8,292.525,151.8,225.991z"/>
	</g>
</g>
<g>
	<g>
		<path d="M377,180.991h-45v30h45C396.828,210.991,396.828,180.991,377,180.991z"/>
	</g>
</g>
<g>
	<g>
		<path d="M377,240.991h-45v30h45C396.828,270.991,396.828,240.991,377,240.991z"/>
	</g>
</g>
<g>
	<g>
		<g>
			<path d="M347,60.991c-90.295,0-165,73.642-165,165c0,63.347,37.114,120.01,90,147.012c0,22.196,0,40.22,0,62.988
				c0,13.34,16.172,20.039,25.605,10.605c41.963-41.963,48.465-48.465,49.276-49.276c-0.001,0.001,0.001-0.001,0.005-0.005
				c0.001-0.001,0.002-0.002,0.003-0.003c-0.001,0.001-0.001,0.001-0.002,0.002c0.005-0.005,0.014-0.014,0.027-0.027
				c-0.005,0.005-0.01,0.01-0.015,0.015c0.026-0.026,0.047-0.047,0.06-0.06c-0.007,0.007-0.015,0.015-0.022,0.022
				c0.256-0.256,1.509-1.509,6.39-6.39C437.213,387.699,512,316.127,512,225.991C512,135.01,437.981,60.991,347,60.991z
				 M377,300.991h-15v15c0,19.773-30,19.854-30,0v-15h-45c-19.773,0-19.854-30,0-30h15v-90h-15c-19.773,0-19.854-30,0-30h45v-15
				c0-19.773,30-19.854,30,0v15h15c38.501,0,59.664,45.761,33.296,75C436.664,255.231,415.501,300.991,377,300.991z"/>
			<polygon points="346.881,397.321 346.887,397.314 346.886,397.315 			"/>
		</g>
	</g>
</g>
<g>
</g>
<g>
</g>
<g>
</g>
<g>
</g>
<g>
</g>
<g>
</g>
<g>
</g>
<g>
</g>
<g>
</g>
<g>
</g>
<g>
</g>
<g>
</g>
<g>
</g>
<g>
</g>
<g>
</g>
</svg>
