<?xml version="1.0" encoding="iso-8859-1"?>
<!-- Generator: Adobe Illustrator 19.0.0, SVG Export Plug-In . SVG Version: 6.00 Build 0)  -->
<svg version="1.1" id="Capa_1" xmlns="http://www.w3.org/2000/svg" xmlns:xlink="http://www.w3.org/1999/xlink" x="0px" y="0px"
	 viewBox="0 0 512 512" style="enable-background:new 0 0 512 512;" xml:space="preserve">
<g>
	<g>
		<path d="M497,302h-90c-59.44,0-59.487,90,0,90h90c8.284,0,15-6.713,15-15v-60C512,308.713,505.284,302,497,302z M407,362
			c-8.284,0-15-6.716-15-15s6.716-15,15-15s15,6.716,15,15S415.284,362,407,362z"/>
	</g>
</g>
<g>
	<g>
		<path d="M29.489,98.489c-16.205,9.775-16.169,33.254-0.036,43C38.357,146.867,48.796,150,60,150V90
			C48.812,90,38.384,93.124,29.489,98.489z"/>
	</g>
</g>
<g>
	<g>
		<path d="M135,0c-24.901,0-45,20.099-45,45v105h60V0H135z"/>
	</g>
</g>
<g>
	<g>
		<path d="M317,0H210v150h152V45C362,20.099,341.901,0,317,0z"/>
	</g>
</g>
<g>
	<g>
		<path d="M392,91.5V150h58.5C444.5,120.601,421.399,97.5,392,91.5z"/>
	</g>
</g>
<g>
	<g>
		<path d="M407,272h75v-17c0-24.435-11.922-45.97-30.066-59.672c0.002-0.115,0.066-0.211,0.066-0.328v-15H60
			c-23.134,0-44.041-9.016-60-23.408V437c0,41.353,33.647,75,75,75h332c41.353,0,75-33.647,75-75v-15h-75
			C307.921,422,307.866,272,407,272z M255,422h-15v15c0,19.773-30,19.854-30,0v-15h-45c-19.773,0-19.854-30,0-30h15v-90h-15
			c-19.773,0-19.854-30,0-30h45v-15c0-19.773,30-19.854,30,0v15h15c38.501,0,59.664,45.761,33.296,75
			C314.664,376.239,293.501,422,255,422z"/>
	</g>
</g>
<g>
	<g>
		<path d="M255,362h-45v30h45C274.828,392,274.828,362,255,362z"/>
	</g>
</g>
<g>
	<g>
		<path d="M255,302h-45v30h45C274.828,332,274.828,302,255,302z"/>
	</g>
</g>
<g>
</g>
<g>
</g>
<g>
</g>
<g>
</g>
<g>
</g>
<g>
</g>
<g>
</g>
<g>
</g>
<g>
</g>
<g>
</g>
<g>
</g>
<g>
</g>
<g>
</g>
<g>
</g>
<g>
</g>
</svg>
