<?xml version="1.0" encoding="iso-8859-1"?>
<!-- Generator: Adobe Illustrator 19.0.0, SVG Export Plug-In . SVG Version: 6.00 Build 0)  -->
<svg version="1.1" id="Capa_1" xmlns="http://www.w3.org/2000/svg" xmlns:xlink="http://www.w3.org/1999/xlink" x="0px" y="0px"
	 viewBox="0 0 512 512" style="enable-background:new 0 0 512 512;" xml:space="preserve">
<g>
	<g>
		<path d="M352.728,482l10.854,21.709C366.131,508.792,371.316,512,377,512h60c8.291,0,15-6.709,15-15v-15H352.728z"/>
	</g>
</g>
<g>
	<g>
		<path d="M60,482v15c0,8.291,6.709,15,15,15h60c5.684,0,10.869-3.208,13.418-8.291L159.272,482H60z"/>
	</g>
</g>
<g>
	<g>
		<rect y="120" width="60" height="30"/>
	</g>
</g>
<g>
	<g>
		<rect y="302" width="60" height="30"/>
	</g>
</g>
<g>
	<g>
		<rect y="180" width="60" height="92"/>
	</g>
</g>
<g>
	<g>
		<path d="M225,210c-8.276,0-15,6.724-15,15s6.724,15,15,15s15-6.724,15-15S233.276,210,225,210z"/>
	</g>
</g>
<g>
	<g>
		<path d="M467,0H45C20.186,0,0,20.186,0,45v45h60V75c0-8.291,6.709-15,15-15h362c8.291,0,15,6.709,15,15v302
			c0,8.291-6.709,15-15,15H75c-8.291,0-15-6.709-15-15v-15H0v45c0,24.814,20.186,45,45,45c63.385,0,79.568,0,83.065,0
			c0.643,0,0.859,0,0.858,0c6.261,0,53.127,0,338.076,0c24.814,0,45-20.186,45-45V45C512,20.186,491.814,0,467,0z"/>
	</g>
</g>
<g>
	<g>
		<path d="M225,150c-41.353,0-75,33.647-75,75c0,41.353,33.647,75,75,75c41.353,0,75-33.647,75-75C300,183.647,266.353,150,225,150z
			 M225,270.2c-24.814,0-45.2-20.386-45.2-45.2c0-24.814,20.386-45.2,45.2-45.2c24.814,0,45.2,20.386,45.2,45.2
			C270.2,249.814,249.814,270.2,225,270.2z"/>
	</g>
</g>
<g>
	<g>
		<path d="M90,90v272h332V90H90z M225,330.2c-57.891,0-105.2-47.309-105.2-105.2S167.109,119.8,225,119.8S330.2,167.109,330.2,225
			S282.891,330.2,225,330.2z M392,285c0,19.773-30,19.854-30,0V165c0-19.773,30-19.854,30,0V285z"/>
	</g>
</g>
<g>
</g>
<g>
</g>
<g>
</g>
<g>
</g>
<g>
</g>
<g>
</g>
<g>
</g>
<g>
</g>
<g>
</g>
<g>
</g>
<g>
</g>
<g>
</g>
<g>
</g>
<g>
</g>
<g>
</g>
</svg>
