<?xml version="1.0" encoding="iso-8859-1"?>
<!-- Generator: Adobe Illustrator 19.0.0, SVG Export Plug-In . SVG Version: 6.00 Build 0)  -->
<svg version="1.1" id="Capa_1" xmlns="http://www.w3.org/2000/svg" xmlns:xlink="http://www.w3.org/1999/xlink" x="0px" y="0px"
	 viewBox="0 0 512 512" style="enable-background:new 0 0 512 512;" xml:space="preserve">
<g>
	<g>
		<path d="M344.985,154.06h-44.8v29.8h44.8C364.813,183.86,364.813,154.06,344.985,154.06z"/>
	</g>
</g>
<g>
	<g>
		<path d="M454.886,57.114C418.06,20.288,369.09,0,317,0C215.968,0,134.462,76.145,123.529,172.581
			c-0.042,0.377-0.121,0.749-0.161,1.124c-7.955,73.963,26.279,146.865,91.395,187.165l0.002-0.002
			c31.421,19.44,67.216,29.117,102.235,29.117c107.77,0,195-87.207,195-195C512,142.896,491.712,93.926,454.886,57.114z
			 M344.985,274.06h-14.8v14.8c0,19.773-30.2,19.854-30.2,0v-14.8h-45c-19.773,0-19.854-30.2,0-30.2h15v-89.8h-15
			c-19.773,0-19.854-30.2,0-30.2h45v-15c0-19.773,30.2-19.854,30.2,0v15h14.8c38.501,0,59.664,45.761,33.296,75
			C404.649,228.1,383.486,274.06,344.985,274.06z"/>
	</g>
</g>
<g>
	<g>
		<path d="M344.985,214.06h-44.8v29.8h44.8C364.813,243.86,364.813,214.06,344.985,214.06z"/>
	</g>
</g>
<g>
	<g>
		<path d="M129.297,319.056L13.192,435.205c-17.618,17.617-17.561,46.102,0,63.633c17.549,17.549,46.098,17.549,63.647,0
			l116.076-116.12C167.575,365.892,146.007,344.324,129.297,319.056z"/>
	</g>
</g>
<g>
</g>
<g>
</g>
<g>
</g>
<g>
</g>
<g>
</g>
<g>
</g>
<g>
</g>
<g>
</g>
<g>
</g>
<g>
</g>
<g>
</g>
<g>
</g>
<g>
</g>
<g>
</g>
<g>
</g>
</svg>
