<?xml version="1.0" encoding="iso-8859-1"?>
<!-- Generator: Adobe Illustrator 19.0.0, SVG Export Plug-In . SVG Version: 6.00 Build 0)  -->
<svg version="1.1" id="Capa_1" xmlns="http://www.w3.org/2000/svg" xmlns:xlink="http://www.w3.org/1999/xlink" x="0px" y="0px"
	 viewBox="0 0 511.999 511.999" style="enable-background:new 0 0 511.999 511.999;" xml:space="preserve">
<g>
	<g>
		<path d="M287.017,209.975h-44.824v29.816h44.824C306.855,239.791,306.855,209.975,287.017,209.975z"/>
	</g>
</g>
<g>
	<g>
		<path d="M287.017,270.007h-44.824v29.816h44.824C306.855,299.823,306.855,270.007,287.017,270.007z"/>
	</g>
</g>
<g>
	<g>
		<path d="M497.131,209.774c19.784,0,19.865-29.816,0-29.816h-45.025v-30.216h45.025c19.784,0,19.865-29.816,0-29.816h-45.025
			v-15.008c0-24.828-20.197-45.025-45.025-45.025h-15.008V14.868c0-19.784-29.816-19.865-29.816,0v45.025h-30.216V14.868
			c0-19.784-29.816-19.865-29.816,0v45.025h-30.216V14.868c0-19.784-29.816-19.865-29.816,0v45.025h-32.218V14.868
			c0-19.784-29.816-19.865-29.816,0v45.025h-30.216V14.868c0-19.784-29.816-19.865-29.816,0v45.025h-15.208
			c-24.828,0-44.824,20.197-44.824,45.025v15.008H14.868c-19.784,0-19.865,29.816,0,29.816h45.225v30.216H14.868
			c-19.784,0-19.865,29.816,0,29.816h45.225v30.216H14.868c-19.784,0-19.865,29.816,0,29.816h45.225v32.218H14.868
			c-19.784,0-19.865,29.816,0,29.816h45.225v30.216H14.868c-19.784,0-19.865,29.816,0,29.816h45.225v15.208
			c0,24.828,19.997,44.824,44.824,44.824h15.208v45.225c0,19.784,29.816,19.865,29.816,0v-45.225h30.216v45.225
			c0,19.784,29.816,19.865,29.816,0v-45.225h32.218v45.225c0,19.784,29.816,19.865,29.816,0v-45.225h30.216v45.225
			c0,19.784,29.816,19.865,29.816,0v-45.225h30.216v45.225c0,19.784,29.816,19.865,29.816,0v-45.225h15.008
			c24.828,0,45.025-19.997,45.025-44.824v-15.208h45.025c19.784,0,19.865-29.816,0-29.816h-45.025v-30.216h45.025
			c19.784,0,19.865-29.816,0-29.816h-45.025v-32.218h45.025c19.784,0,19.865-29.816,0-29.816h-45.025v-30.216H497.131z
			 M134.934,392.074c-8.289,0-15.008-6.72-15.008-15.008c0-8.291,6.72-15.008,15.008-15.008s15.008,6.718,15.008,15.008
			C149.942,385.354,143.222,392.074,134.934,392.074z M134.934,149.942c-8.289,0-15.008-6.72-15.008-15.008
			c0-8.291,6.72-15.008,15.008-15.008s15.008,6.718,15.008,15.008C149.942,143.222,143.222,149.942,134.934,149.942z
			 M287.017,330.04h-14.808v15.008c0,19.784-30.216,19.865-30.216,0V330.04h-45.025c-19.784,0-19.865-30.216,0-30.216h15.008
			v-89.849h-15.008c-19.784,0-19.865-30.216,0-30.216h45.025V164.95c0-19.784,30.216-19.865,30.216,0v14.808h14.808
			c38.522,0,59.697,45.986,33.314,75.241C346.713,284.255,325.539,330.04,287.017,330.04z M377.066,392.074
			c-8.289,0-15.008-6.72-15.008-15.008c0-8.291,6.72-15.008,15.008-15.008s15.008,6.718,15.008,15.008
			C392.074,385.354,385.354,392.074,377.066,392.074z M377.066,149.942c-8.289,0-15.008-6.72-15.008-15.008
			c0-8.291,6.72-15.008,15.008-15.008s15.008,6.718,15.008,15.008C392.074,143.222,385.354,149.942,377.066,149.942z"/>
	</g>
</g>
<g>
</g>
<g>
</g>
<g>
</g>
<g>
</g>
<g>
</g>
<g>
</g>
<g>
</g>
<g>
</g>
<g>
</g>
<g>
</g>
<g>
</g>
<g>
</g>
<g>
</g>
<g>
</g>
<g>
</g>
</svg>
