<?xml version="1.0" encoding="iso-8859-1"?>
<!-- Generator: Adobe Illustrator 19.0.0, SVG Export Plug-In . SVG Version: 6.00 Build 0)  -->
<svg version="1.1" id="Capa_1" xmlns="http://www.w3.org/2000/svg" xmlns:xlink="http://www.w3.org/1999/xlink" x="0px" y="0px"
	 viewBox="0 0 512 512" style="enable-background:new 0 0 512 512;" xml:space="preserve">
<g>
	<g>
		<path d="M437,269.938h-75v122h90v-123.5C447.201,269.337,442.099,269.938,437,269.938z"/>
	</g>
</g>
<g>
	<g>
		<path d="M30,179.938c0,30.002,3.327,60,45,60h362c23.871,0,45-19.131,45-45v-15H30z"/>
	</g>
</g>
<g>
	<g>
		<path d="M263.101,2.537c-5.101-3.3-11.1-3.3-16.201,0L10.8,149.938h490.4L263.101,2.537z"/>
	</g>
</g>
<g>
	<g>
		<path d="M467,421.938H45c-24.901,0-45,20.099-45,45v30c0,8.399,6.599,15,15,15h482c8.401,0,15-6.601,15-15v-30
			C512,442.037,491.901,421.938,467,421.938z"/>
	</g>
</g>
<g>
	<g>
		<rect x="210" y="269.94" width="90" height="122"/>
	</g>
</g>
<g>
	<g>
		<path d="M75,269.938c-5.099,0-10.201-0.601-15-1.5v123.5h90v-122H75z"/>
	</g>
</g>
<g>
</g>
<g>
</g>
<g>
</g>
<g>
</g>
<g>
</g>
<g>
</g>
<g>
</g>
<g>
</g>
<g>
</g>
<g>
</g>
<g>
</g>
<g>
</g>
<g>
</g>
<g>
</g>
<g>
</g>
</svg>
