<?xml version="1.0" encoding="iso-8859-1"?>
<!-- Generator: Adobe Illustrator 19.0.0, SVG Export Plug-In . SVG Version: 6.00 Build 0)  -->
<svg version="1.1" id="Capa_1" xmlns="http://www.w3.org/2000/svg" xmlns:xlink="http://www.w3.org/1999/xlink" x="0px" y="0px"
	 viewBox="0 0 512 512" style="enable-background:new 0 0 512 512;" xml:space="preserve">
<g>
	<g>
		<path d="M165.801,346.199c-12.301-12.299-16.501-30-11.1-46.5l16.5-50.099c-18.369-38.046-24.732-83.501-13.696-129.6H0v237.925
			h186.937C179.859,356.097,171.031,351.429,165.801,346.199z"/>
	</g>
</g>
<g>
	<g>
		<path d="M45,30C20.186,30,0,50.186,0,75v15h167.167c9.435-22.403,22.904-42.724,39.534-60H45z"/>
	</g>
</g>
<g>
	<g>
		<path d="M262.4,340.8c-10.771,3.547-44.252,14.966-55.053,17.325H302v-3.42C288.311,351.486,274.994,346.879,262.4,340.8z"/>
	</g>
</g>
<g>
	<g>
		<path d="M0,388.125V467c0,24.814,20.186,45,45,45h212c24.814,0,45-20.186,45-45v-78.875H0z M152,452c-8.284,0-15-6.716-15-15
			c0-8.286,6.716-15,15-15s15,6.714,15,15C167,445.284,160.284,452,152,452z"/>
	</g>
</g>
<g>
	<g>
		<path d="M347,0c-89.208,0-165,72.838-165,165c0,26.7,6.599,53.099,18.9,76.5c1.8,3.6,2.1,7.8,0.899,11.7l-18.6,55.8
			c-4.14,13.112,7.542,23.67,19.801,19.799l55.8-18.6c4.14-0.829,7.233-1.015,11.7,0.901c22.041,11.585,50.193,18.9,76.5,18.9
			c90.901,0,165-74.101,165-165C512,74.099,437.901,0,347,0z M377,240h-15v15c0,19.773-30,19.854-30,0v-15h-45
			c-19.773,0-19.854-30,0-30h15v-90h-15c-19.773,0-19.854-30,0-30h45V75c0-19.773,30-19.854,30,0v15h15
			c38.501,0,59.664,45.761,33.296,75C436.664,194.239,415.501,240,377,240z"/>
	</g>
</g>
<g>
	<g>
		<path d="M377,180h-45v30h45C396.828,210,396.828,180,377,180z"/>
	</g>
</g>
<g>
	<g>
		<path d="M377,120h-45v30h45C396.828,150,396.828,120,377,120z"/>
	</g>
</g>
<g>
</g>
<g>
</g>
<g>
</g>
<g>
</g>
<g>
</g>
<g>
</g>
<g>
</g>
<g>
</g>
<g>
</g>
<g>
</g>
<g>
</g>
<g>
</g>
<g>
</g>
<g>
</g>
<g>
</g>
</svg>
