<?xml version="1.0" encoding="iso-8859-1"?>
<!-- Generator: Adobe Illustrator 19.0.0, SVG Export Plug-In . SVG Version: 6.00 Build 0)  -->
<svg version="1.1" id="Layer_1" xmlns="http://www.w3.org/2000/svg" xmlns:xlink="http://www.w3.org/1999/xlink" x="0px" y="0px"
	 viewBox="0 0 512 512" style="enable-background:new 0 0 512 512;" xml:space="preserve">
<g>
	<g>
		<path d="M490.667,341.333v-256c0-23.531-19.136-42.667-42.667-42.667H64c-23.531,0-42.667,19.136-42.667,42.667v256
			C9.557,341.333,0,350.891,0,362.667v64c0,23.531,19.136,42.667,42.667,42.667h426.667c23.531,0,42.667-19.136,42.667-42.667v-64
			C512,350.891,502.443,341.333,490.667,341.333z M112.917,262.251l64-64c8.341-8.341,21.824-8.341,30.165,0L256,247.168
			l76.501-76.501h-33.835c-11.776,0-21.333-9.557-21.333-21.333S286.891,128,298.667,128H384c0.277,0,0.491,0.149,0.768,0.149
			c2.496,0.085,4.992,0.491,7.403,1.472c0.021,0.021,0.043,0.021,0.064,0.043c0.171,0.064,0.299,0.213,0.491,0.299
			c2.133,0.96,4.011,2.283,5.675,3.819c0.555,0.512,0.981,1.067,1.472,1.643c1.195,1.344,2.176,2.816,2.987,4.437
			c0.341,0.683,0.704,1.301,0.96,2.027c0.896,2.347,1.515,4.821,1.515,7.445v85.333c0,11.776-9.557,21.333-21.333,21.333
			s-21.333-9.557-21.333-21.333v-33.835l-91.584,91.584c-4.16,4.16-9.621,6.251-15.083,6.251s-10.923-2.091-15.083-6.251
			L192,243.499l-48.917,48.917c-8.341,8.341-21.824,8.341-30.165,0C104.576,284.075,104.576,270.592,112.917,262.251z
			 M42.667,426.667V384h140.501l15.083,15.083c3.989,4.011,9.429,6.251,15.083,6.251h85.333c5.653,0,11.093-2.24,15.083-6.251
			L328.832,384h140.501l0.021,42.667H42.667z"/>
	</g>
</g>
<g>
</g>
<g>
</g>
<g>
</g>
<g>
</g>
<g>
</g>
<g>
</g>
<g>
</g>
<g>
</g>
<g>
</g>
<g>
</g>
<g>
</g>
<g>
</g>
<g>
</g>
<g>
</g>
<g>
</g>
</svg>
