<?xml version="1.0" encoding="iso-8859-1"?>
<!-- Generator: Adobe Illustrator 19.0.0, SVG Export Plug-In . SVG Version: 6.00 Build 0)  -->
<svg version="1.1" id="Layer_1" xmlns="http://www.w3.org/2000/svg" xmlns:xlink="http://www.w3.org/1999/xlink" x="0px" y="0px"
	 viewBox="0 0 512 512" style="enable-background:new 0 0 512 512;" xml:space="preserve">
<g>
	<g>
		<path d="M490.667,341.333v-256c0-23.531-19.136-42.667-42.667-42.667H64c-23.531,0-42.667,19.136-42.667,42.667v256
			C9.557,341.333,0,350.891,0,362.667v64c0,23.531,19.136,42.667,42.667,42.667h426.667c23.531,0,42.667-19.136,42.667-42.667v-64
			C512,350.891,502.464,341.333,490.667,341.333z M321.131,149.355c6.72,0.363,12.885,3.883,16.619,9.472l85.333,128
			c6.528,9.813,3.883,23.061-5.909,29.589c-3.648,2.432-7.765,3.584-11.819,3.584c-6.891,0-13.653-3.328-17.771-9.493
			l-69.483-104.235L229.717,312.32c-3.84,4.608-9.429,7.381-15.424,7.659c-5.867,0.256-11.797-1.984-16.043-6.229L152.64,268.16
			l-28.224,42.347c-6.549,9.792-19.776,12.437-29.589,5.909c-9.792-6.528-12.437-19.776-5.909-29.589l42.667-64
			c3.541-5.312,9.301-8.768,15.637-9.387c6.464-0.683,12.672,1.621,17.195,6.144l47.488,47.488l91.712-110.059
			C307.925,151.851,314.283,148.949,321.131,149.355z M213.333,106.667h64c11.776,0,21.333,9.557,21.333,21.333
			s-9.557,21.333-21.333,21.333h-64C201.557,149.333,192,139.776,192,128S201.557,106.667,213.333,106.667z M106.667,106.667h42.667
			c11.776,0,21.333,9.557,21.333,21.333s-9.557,21.333-21.333,21.333h-42.667c-11.776,0-21.333-9.557-21.333-21.333
			S94.891,106.667,106.667,106.667z M42.667,426.667V384h140.501l15.083,15.083c3.989,4.011,9.429,6.251,15.083,6.251h85.333
			c5.653,0,11.093-2.24,15.083-6.251L328.832,384h140.501l0.021,42.667H42.667z"/>
	</g>
</g>
<g>
</g>
<g>
</g>
<g>
</g>
<g>
</g>
<g>
</g>
<g>
</g>
<g>
</g>
<g>
</g>
<g>
</g>
<g>
</g>
<g>
</g>
<g>
</g>
<g>
</g>
<g>
</g>
<g>
</g>
</svg>
