<?xml version="1.0" encoding="iso-8859-1"?>
<!-- Generator: Adobe Illustrator 19.0.0, SVG Export Plug-In . SVG Version: 6.00 Build 0)  -->
<svg version="1.1" id="Layer_1" xmlns="http://www.w3.org/2000/svg" xmlns:xlink="http://www.w3.org/1999/xlink" x="0px" y="0px"
	 viewBox="0 0 512.006 512.006" style="enable-background:new 0 0 512.006 512.006;" xml:space="preserve">
<g>
	<g>
		<g>
			<path d="M149.34,192.003c-11.776,0-21.333,9.579-21.333,21.333c0,11.755,9.557,21.333,21.333,21.333s21.333-9.579,21.333-21.333
				C170.673,201.582,161.116,192.003,149.34,192.003z"/>
			<path d="M452.465,0.003H59.548c-32.832,0-59.541,26.709-59.541,59.52V298.67h512V59.523
				C512.006,26.713,485.297,0.003,452.465,0.003z M106.673,64.003c11.776,0,21.333,9.557,21.333,21.333s-9.557,21.333-21.333,21.333
				S85.34,97.113,85.34,85.337S94.897,64.003,106.673,64.003z M405.34,277.337c-11.776,0-21.333-9.557-21.333-21.333
				s9.557-21.333,21.333-21.333s21.333,9.557,21.333,21.333S417.116,277.337,405.34,277.337z M420.422,143.086
				c-4.16,4.16-9.621,6.251-15.083,6.251c-5.461,0-10.923-2.091-15.083-6.251l-6.251-6.251v33.835
				c0,41.173-33.493,74.667-74.667,74.667c-41.173,0-74.667-33.493-74.667-74.667c0-17.643-14.357-32-32-32
				c-11.861,0-22.101,6.549-27.627,16.149c22.507,9.92,38.293,32.384,38.293,58.517c0,35.285-28.715,64-64,64
				c-35.285,0-64-28.715-64-64c0-28.693,19.093-52.757,45.163-60.843c8.171-32.363,37.312-56.491,72.171-56.491
				c41.173,0,74.667,33.493,74.667,74.667c0,17.643,14.357,32,32,32c17.643,0,32-14.357,32-32v-33.835l-6.251,6.251
				c-8.341,8.341-21.824,8.341-30.165,0c-8.341-8.341-8.341-21.824,0-30.165l42.645-42.645c1.963-1.984,4.331-3.541,6.955-4.629
				c5.205-2.155,11.093-2.155,16.299,0c2.624,1.088,4.992,2.645,6.955,4.629l42.645,42.645
				C428.764,121.262,428.764,134.745,420.422,143.086z"/>
			<path d="M0,367.129c0,32.832,26.709,59.541,59.541,59.541h105.152l-10.667,42.667h-4.693c-11.776,0-21.333,9.557-21.333,21.333
				s9.557,21.333,21.333,21.333h21.333h170.667h21.333c11.797,0,21.333-9.557,21.333-21.333s-9.536-21.333-21.333-21.333h-4.672
				l-10.667-42.667h105.131c32.832,0,59.541-26.709,59.541-59.541v-25.792H0V367.129z M208.683,426.67h94.656l10.667,42.667H198.016
				L208.683,426.67z"/>
		</g>
	</g>
</g>
<g>
</g>
<g>
</g>
<g>
</g>
<g>
</g>
<g>
</g>
<g>
</g>
<g>
</g>
<g>
</g>
<g>
</g>
<g>
</g>
<g>
</g>
<g>
</g>
<g>
</g>
<g>
</g>
<g>
</g>
</svg>
