<?xml version="1.0" encoding="iso-8859-1"?>
<!-- Generator: Adobe Illustrator 19.0.0, SVG Export Plug-In . SVG Version: 6.00 Build 0)  -->
<svg version="1.1" id="Layer_1" xmlns="http://www.w3.org/2000/svg" xmlns:xlink="http://www.w3.org/1999/xlink" x="0px" y="0px"
	 viewBox="0 0 512.006 512.006" style="enable-background:new 0 0 512.006 512.006;" xml:space="preserve">
<g>
	<g>
		<g>
			<path d="M452.465,0.003H59.548c-32.832,0-59.541,26.709-59.541,59.541V298.67h512V59.545
				C512.006,26.713,485.297,0.003,452.465,0.003z M170.673,256.003c0,11.776-9.536,21.333-21.333,21.333
				c-11.797,0-21.333-9.557-21.333-21.333V234.67c0-11.776,9.536-21.333,21.333-21.333c11.797,0,21.333,9.557,21.333,21.333V256.003
				z M192.006,149.337v-12.501l-70.251,70.251c-4.16,4.16-9.621,6.251-15.083,6.251c-5.461,0-10.923-2.091-15.083-6.251
				c-8.341-8.341-8.341-21.824,0-30.165l70.251-70.251H149.34c-11.797,0-21.333-9.557-21.333-21.333s9.536-21.333,21.333-21.333h64
				c0.277,0,0.512,0.149,0.789,0.149c2.496,0.107,4.992,0.491,7.381,1.472c0.021,0.021,0.043,0.021,0.064,0.043
				c0.192,0.085,0.341,0.235,0.533,0.32c2.112,0.96,3.989,2.261,5.632,3.797c0.555,0.512,0.981,1.067,1.472,1.643
				c1.195,1.344,2.176,2.816,3.008,4.437c0.341,0.683,0.683,1.301,0.96,2.027c0.875,2.347,1.493,4.821,1.493,7.445v64
				c0,11.776-9.536,21.333-21.333,21.333C201.542,170.67,192.006,161.113,192.006,149.337z M256.006,256.003
				c0,11.776-9.536,21.333-21.333,21.333c-11.797,0-21.333-9.557-21.333-21.333v-42.667c0-11.776,9.536-21.333,21.333-21.333
				c11.797,0,21.333,9.557,21.333,21.333V256.003z M341.34,256.003c0,11.776-9.536,21.333-21.333,21.333
				s-21.333-9.557-21.333-21.333v-128c0-11.776,9.536-21.333,21.333-21.333s21.333,9.557,21.333,21.333V256.003z M426.673,256.003
				c0,11.776-9.536,21.333-21.333,21.333c-11.797,0-21.333-9.557-21.333-21.333V85.337c0-11.776,9.536-21.333,21.333-21.333
				c11.797,0,21.333,9.557,21.333,21.333V256.003z"/>
			<path d="M0,367.129c0,32.832,26.709,59.541,59.541,59.541h105.152l-10.667,42.667h-4.693c-11.776,0-21.333,9.557-21.333,21.333
				s9.557,21.333,21.333,21.333h21.333h170.667h21.333c11.797,0,21.333-9.557,21.333-21.333s-9.536-21.333-21.333-21.333h-4.672
				l-10.667-42.667h105.131c32.832,0,59.541-26.709,59.541-59.541v-25.792H0V367.129z M208.683,426.67h94.656l10.667,42.667H198.016
				L208.683,426.67z"/>
		</g>
	</g>
</g>
<g>
</g>
<g>
</g>
<g>
</g>
<g>
</g>
<g>
</g>
<g>
</g>
<g>
</g>
<g>
</g>
<g>
</g>
<g>
</g>
<g>
</g>
<g>
</g>
<g>
</g>
<g>
</g>
<g>
</g>
</svg>
