<?xml version="1.0" encoding="iso-8859-1"?>
<!-- Generator: Adobe Illustrator 19.0.0, SVG Export Plug-In . SVG Version: 6.00 Build 0)  -->
<svg version="1.1" id="Layer_1" xmlns="http://www.w3.org/2000/svg" xmlns:xlink="http://www.w3.org/1999/xlink" x="0px" y="0px"
	 viewBox="0 0 512.006 512.006" style="enable-background:new 0 0 512.006 512.006;" xml:space="preserve">
<g>
	<g>
		<g>
			<path d="M452.465,0.003H59.548c-32.832,0-59.541,26.709-59.541,59.541V298.67h512V59.545
				C512.006,26.713,485.297,0.003,452.465,0.003z M135.942,127.107l57.195,57.195c20.715,20.736,21.525,53.909,1.792,73.941
				c-12.117,12.309-28.288,19.093-45.589,19.093c-35.285,0-64-28.715-64-64c0-11.776,9.536-21.333,21.333-21.333
				c11.797,0,21.333,9.557,21.333,21.333c0,11.755,9.557,21.333,21.333,21.333c5.76,0,11.136-2.261,15.189-6.357
				c3.179-3.243,2.432-9.835-1.557-13.845l-57.195-57.195c-10.88-10.88-16.619-25.92-15.787-41.28
				c0.789-14.869,7.808-28.672,19.243-37.867c11.307-9.109,25.557-14.123,40.107-14.123c35.285,0,64,28.715,64,64
				c0,11.776-9.536,21.333-21.333,21.333s-21.333-9.557-21.333-21.333c0-11.755-9.557-21.333-21.333-21.333
				c-6.208,0-10.688,2.56-13.355,4.693c-2.603,2.091-3.285,4.928-3.392,6.912C132.401,121.582,133.638,124.803,135.942,127.107z
				 M426.673,256.003c0,11.776-9.536,21.333-21.333,21.333c-11.797,0-21.333-9.557-21.333-21.333H341.34
				c-11.797,0-21.333-9.557-21.333-21.333s9.536-21.333,21.333-21.333h42.667v-21.333h-64c-11.797,0-21.333-9.557-21.333-21.333
				s9.536-21.333,21.333-21.333h64v-21.333h-21.333c-11.797,0-21.333-9.557-21.333-21.333s9.536-21.333,21.333-21.333h21.333
				c0-11.776,9.536-21.333,21.333-21.333c11.797,0,21.333,9.557,21.333,21.333V256.003z"/>
			<path d="M0,367.129c0,32.832,26.709,59.541,59.541,59.541h105.152l-10.667,42.667h-4.693c-11.776,0-21.333,9.557-21.333,21.333
				s9.557,21.333,21.333,21.333h21.333h170.667h21.333c11.797,0,21.333-9.557,21.333-21.333s-9.536-21.333-21.333-21.333h-4.672
				l-10.667-42.667h105.131c32.832,0,59.541-26.709,59.541-59.541v-25.792H0V367.129z M208.683,426.67h94.656l10.667,42.667H198.016
				L208.683,426.67z"/>
		</g>
	</g>
</g>
<g>
</g>
<g>
</g>
<g>
</g>
<g>
</g>
<g>
</g>
<g>
</g>
<g>
</g>
<g>
</g>
<g>
</g>
<g>
</g>
<g>
</g>
<g>
</g>
<g>
</g>
<g>
</g>
<g>
</g>
</svg>
