<?xml version="1.0" encoding="iso-8859-1"?>
<!-- Generator: Adobe Illustrator 19.0.0, SVG Export Plug-In . SVG Version: 6.00 Build 0)  -->
<svg version="1.1" id="Layer_1" xmlns="http://www.w3.org/2000/svg" xmlns:xlink="http://www.w3.org/1999/xlink" x="0px" y="0px"
	 viewBox="0 0 512 512" style="enable-background:new 0 0 512 512;" xml:space="preserve">
<g>
	<g>
		<g>
			<path d="M490.667,341.333v-256c0-23.531-19.136-42.667-42.667-42.667H64c-23.531,0-42.667,19.136-42.667,42.667v256
				C9.536,341.333,0,350.891,0,362.667v64c0,23.531,19.136,42.667,42.667,42.667h426.667c23.531,0,42.667-19.136,42.667-42.667v-64
				C512,350.891,502.464,341.333,490.667,341.333z M106.667,277.333V192c0-11.776,9.536-21.333,21.333-21.333h85.333
				c11.797,0,21.333,9.557,21.333,21.333h42.667v-64c0-11.776,9.536-21.333,21.333-21.333H384c11.797,0,21.333,9.557,21.333,21.333
				v149.333c11.797,0,21.333,9.557,21.333,21.333S417.131,320,405.333,320H384h-85.333h-85.333H128h-21.333
				c-11.797,0-21.333-9.557-21.333-21.333S94.869,277.333,106.667,277.333z M42.667,426.667V384h140.501l15.083,15.083
				c3.989,4.011,9.408,6.251,15.083,6.251h85.333c5.675,0,11.093-2.24,15.083-6.251L328.832,384h140.501l0.021,42.667H42.667z"/>
			<rect x="234.667" y="234.667" width="42.667" height="42.667"/>
			<rect x="149.333" y="213.333" width="42.667" height="64"/>
			<polygon points="362.667,149.333 320,149.333 320,213.333 320,277.333 362.667,277.333 			"/>
		</g>
	</g>
</g>
<g>
</g>
<g>
</g>
<g>
</g>
<g>
</g>
<g>
</g>
<g>
</g>
<g>
</g>
<g>
</g>
<g>
</g>
<g>
</g>
<g>
</g>
<g>
</g>
<g>
</g>
<g>
</g>
<g>
</g>
</svg>
