<?xml version="1.0" encoding="iso-8859-1"?>
<!-- Generator: Adobe Illustrator 19.0.0, SVG Export Plug-In . SVG Version: 6.00 Build 0)  -->
<svg version="1.1" id="Layer_1" xmlns="http://www.w3.org/2000/svg" xmlns:xlink="http://www.w3.org/1999/xlink" x="0px" y="0px"
	 viewBox="0 0 512.006 512.006" style="enable-background:new 0 0 512.006 512.006;" xml:space="preserve">
<g>
	<g>
		<g>
			<rect x="234.673" y="192.003" width="42.667" height="42.667"/>
			<rect x="149.34" y="170.67" width="42.667" height="64"/>
			<polygon points="320.006,170.67 320.006,234.67 362.673,234.67 362.673,106.67 320.006,106.67 			"/>
			<path d="M0,367.129c0,32.832,26.709,59.541,59.541,59.541h105.152l-10.667,42.667h-4.693c-11.776,0-21.333,9.557-21.333,21.333
				s9.557,21.333,21.333,21.333h21.333h170.667h21.333c11.797,0,21.333-9.557,21.333-21.333s-9.536-21.333-21.333-21.333h-4.672
				l-10.667-42.667h105.131c32.832,0,59.541-26.709,59.541-59.541v-25.792H0V367.129z M208.683,426.67h94.656l10.667,42.667H198.016
				L208.683,426.67z"/>
			<path d="M452.465,0.003H59.548c-32.832,0-59.541,26.709-59.541,59.541V298.67h512V59.545
				C512.006,26.713,485.297,0.003,452.465,0.003z M405.34,277.337h-21.333h-85.333H213.34h-85.333h-21.333
				c-11.797,0-21.333-9.557-21.333-21.333s9.536-21.333,21.333-21.333v-85.333c0-11.776,9.536-21.333,21.333-21.333h85.333
				c11.797,0,21.333,9.557,21.333,21.333h42.667v-64c0-11.776,9.536-21.333,21.333-21.333h85.333
				c11.797,0,21.333,9.557,21.333,21.333V234.67c11.797,0,21.333,9.557,21.333,21.333S417.137,277.337,405.34,277.337z"/>
		</g>
	</g>
</g>
<g>
</g>
<g>
</g>
<g>
</g>
<g>
</g>
<g>
</g>
<g>
</g>
<g>
</g>
<g>
</g>
<g>
</g>
<g>
</g>
<g>
</g>
<g>
</g>
<g>
</g>
<g>
</g>
<g>
</g>
</svg>
