<?xml version="1.0" encoding="iso-8859-1"?>
<!-- Generator: Adobe Illustrator 19.0.0, SVG Export Plug-In . SVG Version: 6.00 Build 0)  -->
<svg version="1.1" id="Layer_1" xmlns="http://www.w3.org/2000/svg" xmlns:xlink="http://www.w3.org/1999/xlink" x="0px" y="0px"
	 viewBox="0 0 512.009 512.009" style="enable-background:new 0 0 512.009 512.009;" xml:space="preserve">
<g>
	<g>
		<g>
			<path d="M0,367.133c0,32.832,26.709,59.541,59.541,59.541h105.152l-10.667,42.667h-4.693c-11.776,0-21.333,9.557-21.333,21.333
				s9.557,21.333,21.333,21.333h21.333h170.667h21.333c11.797,0,21.333-9.557,21.333-21.333s-9.536-21.333-21.333-21.333h-4.672
				l-10.667-42.667h105.131c32.832,0,59.541-26.709,59.541-59.541v-25.792H0V367.133z M208.683,426.674h94.656l10.667,42.667
				H198.016L208.683,426.674z"/>
			<path d="M452.467,0.001H59.55c-32.832,0-59.541,26.709-59.541,59.541v239.125h512V59.542
				C512.009,26.71,485.299,0.001,452.467,0.001z M85.342,64.001h42.667c11.797,0,21.333,9.557,21.333,21.333
				c0,11.797-9.536,21.333-21.333,21.333H85.342c-11.797,0-21.333-9.536-21.333-21.333C64.009,73.558,73.545,64.001,85.342,64.001z
				 M85.342,149.334h21.333c11.797,0,21.333,9.557,21.333,21.333c0,11.797-9.536,21.333-21.333,21.333H85.342
				c-11.797,0-21.333-9.536-21.333-21.333C64.009,158.892,73.545,149.334,85.342,149.334z M128.009,277.334H85.342
				c-11.797,0-21.333-9.536-21.333-21.333c0-11.776,9.536-21.333,21.333-21.333h42.667c11.797,0,21.333,9.557,21.333,21.333
				C149.342,267.798,139.806,277.334,128.009,277.334z M325.321,251.265c-19.563,17.045-43.541,26.069-69.312,26.069
				c-58.816,0-106.667-47.851-106.667-106.667S197.193,64.001,256.009,64.001c25.109,0,49.664,9.216,69.184,25.984
				c8.939,7.659,9.963,21.12,2.283,30.059l-43.371,50.624l43.371,50.624C335.113,230.188,334.153,243.564,325.321,251.265z
				 M410.505,251.372c-3.883,3.328-8.789,5.141-13.867,5.141c-0.555,0-1.088-0.021-1.643-0.064
				c-5.632-0.448-10.88-3.093-14.549-7.381l-55.296-64.512c-6.848-7.979-6.848-19.776,0-27.776l55.296-64.512
				c3.669-4.288,8.917-6.933,14.549-7.381c5.675-0.363,11.221,1.408,15.531,5.099c23.808,20.437,37.483,49.835,37.483,80.683
				C448.009,201.537,434.334,230.934,410.505,251.372z"/>
			<path d="M239.817,156.788l39.168-45.696c-6.549-2.624-14.229-4.416-22.976-4.416c-35.307,0-64,28.715-64,64s28.693,64,64,64
				c8.043,0,15.787-1.472,23.019-4.373l-39.211-45.739C232.969,176.564,232.969,164.788,239.817,156.788z"/>
		</g>
	</g>
</g>
<g>
</g>
<g>
</g>
<g>
</g>
<g>
</g>
<g>
</g>
<g>
</g>
<g>
</g>
<g>
</g>
<g>
</g>
<g>
</g>
<g>
</g>
<g>
</g>
<g>
</g>
<g>
</g>
<g>
</g>
</svg>
