<?xml version="1.0" encoding="iso-8859-1"?>
<!-- Generator: Adobe Illustrator 19.0.0, SVG Export Plug-In . SVG Version: 6.00 Build 0)  -->
<svg version="1.1" id="Layer_1" xmlns="http://www.w3.org/2000/svg" xmlns:xlink="http://www.w3.org/1999/xlink" x="0px" y="0px"
	 viewBox="0 0 512 512" style="enable-background:new 0 0 512 512;" xml:space="preserve">
<g>
	<g>
		<g>
			<path d="M426.667,85.333C426.667,38.272,388.395,0,341.333,0H170.667c-47.061,0-85.333,38.272-85.333,85.333
				C38.272,85.333,0,123.605,0,170.667v42.667c0,21.44,8.213,40.832,21.333,55.851v136.149h469.333V269.184
				C503.787,254.165,512,234.773,512,213.333v-42.667C512,123.605,473.728,85.333,426.667,85.333z M298.667,277.333V320h-85.333
				v-42.667v-42.667h85.333V277.333z M469.333,213.333c0,12.395-5.397,23.467-13.845,31.253c-0.128,0.128-0.299,0.171-0.427,0.299
				c-3.925,3.52-9.856,7.424-17.493,9.515c-0.64,0.192-1.237,0.448-1.877,0.597c-2.795,0.619-5.781,1.003-9.024,1.003h-85.333
				v-21.333c0-23.531-19.136-42.667-42.667-42.667h-85.333c-23.531,0-42.667,19.136-42.667,42.667V256H85.333
				c-3.243,0-6.229-0.384-9.024-1.003c-0.64-0.149-1.237-0.405-1.877-0.597c-7.637-2.091-13.568-5.995-17.493-9.515
				c-0.128-0.128-0.299-0.192-0.448-0.299c-8.448-7.808-13.824-18.88-13.824-31.253v-42.667c0-23.531,19.136-42.667,42.667-42.667
				h21.333h298.667h21.333c23.531,0,42.667,19.136,42.667,42.667V213.333z"/>
			<path d="M106.667,512h298.667c39.637,0,72.768-27.307,82.304-64H24.363C33.899,484.693,67.029,512,106.667,512z"/>
		</g>
	</g>
</g>
<g>
</g>
<g>
</g>
<g>
</g>
<g>
</g>
<g>
</g>
<g>
</g>
<g>
</g>
<g>
</g>
<g>
</g>
<g>
</g>
<g>
</g>
<g>
</g>
<g>
</g>
<g>
</g>
<g>
</g>
</svg>
