<?xml version="1.0" encoding="iso-8859-1"?>
<!-- Generator: Adobe Illustrator 19.0.0, SVG Export Plug-In . SVG Version: 6.00 Build 0)  -->
<svg version="1.1" id="Layer_1" xmlns="http://www.w3.org/2000/svg" xmlns:xlink="http://www.w3.org/1999/xlink" x="0px" y="0px"
	 viewBox="0 0 512 512" style="enable-background:new 0 0 512 512;" xml:space="preserve">
<g>
	<g>
		<g>
			<path d="M448,106.667h-21.333V85.333C426.667,38.272,388.395,0,341.333,0H170.667c-47.061,0-85.333,38.272-85.333,85.333v21.333
				H64c-35.285,0-64,28.715-64,64v256c0,35.285,28.715,64,64,64h42.667c0,11.776,9.536,21.333,21.333,21.333
				c11.797,0,21.333-9.557,21.333-21.333h213.333c0,11.776,9.536,21.333,21.333,21.333c11.797,0,21.333-9.557,21.333-21.333H448
				c35.285,0,64-28.715,64-64v-256C512,135.381,483.285,106.667,448,106.667z M128,85.333c0-23.531,19.136-42.667,42.667-42.667
				h170.667c23.531,0,42.667,19.136,42.667,42.667v21.333H128V85.333z M448,362.667c0,35.285-28.715,64-64,64H128
				c-35.285,0-64-28.715-64-64v-128c0-35.285,28.715-64,64-64h256c35.285,0,64,28.715,64,64V362.667z"/>
			<rect x="106.667" y="277.333" width="298.667" height="42.667"/>
			<path d="M384,213.333H128c-11.776,0-21.333,9.579-21.333,21.333h298.667C405.333,222.912,395.776,213.333,384,213.333z"/>
			<path d="M128,384h256c11.776,0,21.333-9.579,21.333-21.333H106.667C106.667,374.421,116.224,384,128,384z"/>
		</g>
	</g>
</g>
<g>
</g>
<g>
</g>
<g>
</g>
<g>
</g>
<g>
</g>
<g>
</g>
<g>
</g>
<g>
</g>
<g>
</g>
<g>
</g>
<g>
</g>
<g>
</g>
<g>
</g>
<g>
</g>
<g>
</g>
</svg>
