<?xml version="1.0" encoding="iso-8859-1"?>
<!-- Generator: Adobe Illustrator 19.0.0, SVG Export Plug-In . SVG Version: 6.00 Build 0)  -->
<svg version="1.1" id="Layer_1" xmlns="http://www.w3.org/2000/svg" xmlns:xlink="http://www.w3.org/1999/xlink" x="0px" y="0px"
	 viewBox="0 0 512 512" style="enable-background:new 0 0 512 512;" xml:space="preserve">
<g>
	<g>
		<path d="M469.3,405.35h-64.5c5.7-7.6,10.6-15.8,14.2-24.8c42.5-12.8,93-61.5,93-103.2c0-11.8-9.5-21.3-21.3-21.3h-64v-106.7
			c0-35.3-28.7-64-64-64c0-47.1-38.3-85.3-85.3-85.3h-128c-47.1,0-85.4,38.3-85.4,85.3c-35.3,0-64,28.7-64,64v170.7
			c0,35.3,28.7,64,64,64h42.7v-256h42.7v256h73c3.4,7.7,7.8,14.7,12.8,21.3h-64.6c-9.2,0-17.3,5.9-20.2,14.6
			c-2.9,8.7,0.1,18.3,7.4,23.8l50,37.5c26.5,19.8,59.2,30.7,92.2,30.7h39.8c33,0,65.7-10.9,92.2-30.7l50-37.5
			c7.3-5.5,10.3-15.1,7.4-23.8C486.7,411.25,478.5,405.35,469.3,405.35z M426.7,298.75h33.7c-8.1,11.5-20.9,23.4-33.7,31.7V298.75z
			 M149.3,85.35h-42.7c0-23.5,19.2-42.7,42.7-42.7h128c23.5,0,42.7,19.1,42.7,42.7h-42.7H149.3z M320,128.05v106.7h-42.7v-106.7H320
			z M384,341.35c0,3.2-0.5,6.3-0.9,9.3c-0.3,2-0.7,4.1-1.3,6.4c0,0.1,0,0.2,0,0.3c-7.2,27.5-32,47.9-61.7,47.9s-54.4-20.4-61.7-47.8
			c0-0.1,0-0.1,0-0.2c-0.6-2.5-1-4.7-1.4-6.8c-0.4-3-0.9-6-0.9-9.2v-64h42.7H384V341.35z"/>
	</g>
</g>
<g>
</g>
<g>
</g>
<g>
</g>
<g>
</g>
<g>
</g>
<g>
</g>
<g>
</g>
<g>
</g>
<g>
</g>
<g>
</g>
<g>
</g>
<g>
</g>
<g>
</g>
<g>
</g>
<g>
</g>
</svg>
