<?xml version="1.0" encoding="iso-8859-1"?>
<!-- Generator: Adobe Illustrator 19.0.0, SVG Export Plug-In . SVG Version: 6.00 Build 0)  -->
<svg version="1.1" id="Layer_1" xmlns="http://www.w3.org/2000/svg" xmlns:xlink="http://www.w3.org/1999/xlink" x="0px" y="0px"
	 viewBox="0 0 512.004 512.004" style="enable-background:new 0 0 512.004 512.004;" xml:space="preserve">
<g>
	<g>
		<g>
			<path d="M447.383,85.333h-20.715C426.669,38.293,388.397,0,341.336,0H170.669c-47.061,0-85.333,38.293-85.333,85.333H64.621
				c-35.627,0-64.619,28.992-64.619,64.619V192v64c0,11.776,9.557,21.333,21.333,21.333V384h64.021
				c35.285,0,63.979,28.693,63.979,63.979V512h213.333v-64.021c0-35.285,28.693-63.979,63.979-63.979h64.021V277.333
				c11.776,0,21.333-9.557,21.333-21.333v-64v-42.048C512.002,114.325,483.01,85.333,447.383,85.333z M42.669,149.952
				c0-12.096,9.835-21.952,21.952-21.952h20.715v21.355c0,11.755-9.557,21.312-21.312,21.312H42.669V149.952z M298.669,277.333
				h-85.333c-11.755,0-21.333-9.579-21.333-21.333c0-11.755,9.579-21.333,21.333-21.333h85.333c11.755,0,21.333,9.579,21.333,21.333
				C320.002,267.755,310.423,277.333,298.669,277.333z M469.336,234.667H359.021c-0.256-0.704-0.64-1.365-0.917-2.069
				c-0.469-1.173-1.024-2.325-1.557-3.477c-1.109-2.368-2.347-4.651-3.733-6.869c-0.64-1.045-1.259-2.091-1.984-3.093
				c-1.792-2.517-3.755-4.907-5.888-7.147c-0.448-0.469-0.832-0.981-1.28-1.451c-2.645-2.603-5.547-4.971-8.597-7.083
				c-0.853-0.597-1.792-1.088-2.667-1.643c-2.325-1.451-4.715-2.773-7.211-3.904c-1.173-0.555-2.368-1.024-3.584-1.493
				c-2.496-0.96-5.056-1.749-7.68-2.389c-1.173-0.299-2.304-0.64-3.499-0.853c-3.819-0.725-7.723-1.195-11.755-1.195h-85.333
				c-4.032,0-7.936,0.469-11.755,1.195c-1.195,0.213-2.325,0.555-3.499,0.853c-2.624,0.64-5.184,1.429-7.68,2.389
				c-1.216,0.469-2.389,0.939-3.563,1.472c-2.517,1.152-4.907,2.475-7.232,3.925c-0.875,0.555-1.813,1.045-2.667,1.643
				c-3.051,2.112-5.952,4.48-8.597,7.083c-0.448,0.469-0.832,0.981-1.28,1.451c-2.133,2.24-4.096,4.629-5.888,7.147
				c-0.704,1.003-1.344,2.048-1.984,3.093c-1.387,2.219-2.624,4.501-3.733,6.891c-0.555,1.131-1.088,2.283-1.557,3.456
				c-0.277,0.704-0.661,1.365-0.917,2.069H42.669v-21.333h21.355c35.285,0,63.979-28.693,63.979-63.979V128h256v21.355
				c0,35.285,28.693,63.979,63.979,63.979h21.355V234.667z M469.336,170.667h-21.355c-11.755,0-21.312-9.557-21.312-21.312V128
				h20.715c12.117,0,21.952,9.856,21.952,21.952V170.667z"/>
			<path d="M85.357,426.671H21.335v20.715c0,35.627,28.992,64.619,64.619,64.619h20.715v-64.021
				C106.669,436.228,97.111,426.671,85.357,426.671z"/>
			<path d="M405.336,447.983v64.021h20.715c35.627,0,64.619-28.992,64.619-64.619v-20.715h-64.021
				C414.893,426.671,405.336,436.228,405.336,447.983z"/>
		</g>
	</g>
</g>
<g>
</g>
<g>
</g>
<g>
</g>
<g>
</g>
<g>
</g>
<g>
</g>
<g>
</g>
<g>
</g>
<g>
</g>
<g>
</g>
<g>
</g>
<g>
</g>
<g>
</g>
<g>
</g>
<g>
</g>
</svg>
