<?xml version="1.0" encoding="iso-8859-1"?>
<!-- Generator: Adobe Illustrator 19.0.0, SVG Export Plug-In . SVG Version: 6.00 Build 0)  -->
<svg version="1.1" id="Layer_1" xmlns="http://www.w3.org/2000/svg" xmlns:xlink="http://www.w3.org/1999/xlink" x="0px" y="0px"
	 viewBox="0 0 512.009 512.009" style="enable-background:new 0 0 512.009 512.009;" xml:space="preserve">
<g>
	<g>
		<g>
			<path d="M490.671,64h-64V42.667c0-11.776-9.557-21.333-21.333-21.333C405.338,9.557,395.78,0,384.004,0h-85.333
				c-11.776,0-21.333,9.557-21.333,21.333c-11.776,0-21.333,9.557-21.333,21.333V64h-64c-11.776,0-21.333,9.557-21.333,21.333
				v405.333c0,11.776,9.557,21.333,21.333,21.333h298.667c11.776,0,21.333-9.557,21.333-21.333V85.333
				C512.004,73.557,502.447,64,490.671,64z M298.671,85.333V64c11.776,0,21.333-9.557,21.333-21.333h42.667
				c0,11.776,9.557,21.333,21.333,21.333v21.333V128h-85.333V85.333z M320.004,192h42.667c11.776,0,21.333,9.557,21.333,21.333
				s-9.557,21.333-21.333,21.333h-42.667c-11.776,0-21.333-9.557-21.333-21.333S308.228,192,320.004,192z M320.004,256h21.333
				c11.776,0,21.333,9.557,21.333,21.333s-9.557,21.333-21.333,21.333h-21.333c-11.776,0-21.333-9.557-21.333-21.333
				S308.228,256,320.004,256z M320.004,320h42.667c11.776,0,21.333,9.557,21.333,21.333c0,11.776-9.557,21.333-21.333,21.333
				h-42.667c-11.776,0-21.333-9.557-21.333-21.333C298.671,329.557,308.228,320,320.004,320z M448.004,405.333
				c0,11.776-9.557,21.333-21.333,21.333H256.004c-11.776,0-21.333-9.557-21.333-21.333v-256c0-11.776,9.557-21.333,21.333-21.333
				v21.333c0,11.776,9.557,21.333,21.333,21.333V384h128V170.667c11.776,0,21.333-9.557,21.333-21.333V128
				c11.776,0,21.333,9.557,21.333,21.333V405.333z"/>
			<path d="M85.963,393.459c-11.733-11.733-32.192-11.733-43.925,0l-28.501,28.501l30.656,76.629
				c3.243,8.107,11.093,13.419,19.819,13.419c8.704,0,16.555-5.312,19.797-13.419l30.827-77.035
				c-0.533-0.448-1.216-0.64-1.707-1.131L85.963,393.459z"/>
			<path d="M0.004,375.166l11.883-11.883c28.736-28.736,75.499-28.736,104.235,0l11.883,11.883V127.998h-128V375.166z"/>
			<path d="M85.338,0H42.671C19.14,0,0.004,19.136,0.004,42.667v42.667h128V42.667C128.004,19.136,108.868,0,85.338,0z"/>
		</g>
	</g>
</g>
<g>
</g>
<g>
</g>
<g>
</g>
<g>
</g>
<g>
</g>
<g>
</g>
<g>
</g>
<g>
</g>
<g>
</g>
<g>
</g>
<g>
</g>
<g>
</g>
<g>
</g>
<g>
</g>
<g>
</g>
</svg>
