<?xml version="1.0" encoding="iso-8859-1"?>
<!-- Generator: Adobe Illustrator 19.0.0, SVG Export Plug-In . SVG Version: 6.00 Build 0)  -->
<svg version="1.1" id="Layer_1" xmlns="http://www.w3.org/2000/svg" xmlns:xlink="http://www.w3.org/1999/xlink" x="0px" y="0px"
	 viewBox="0 0 512 512" style="enable-background:new 0 0 512 512;" xml:space="preserve">
<g>
	<g>
		<path d="M434.99,458.901c19.008-18.176,25.771-46.891,14.443-72.256l-78.571-175.851c0.235-2.731,0.811-5.355,0.811-8.128
			c0-22.635-8.192-43.179-21.333-59.605V64c0-35.307-28.693-64-64-64h-21.333c-35.285,0-64,28.693-64,64v79.061
			c-10.005,12.523-17.003,27.413-19.733,43.904c-1.216,1.472-2.496,2.859-3.307,4.672l-36.907,83.435l-17.707-8.021l5.611-11.2
			c5.269-10.539,0.981-23.36-9.557-28.629c-10.539-5.291-23.317-1.003-28.629,9.536L59.31,299.712
			c-5.269,10.539-1.003,23.36,9.536,28.629c3.072,1.536,6.315,2.24,9.515,2.24c7.851,0,15.36-4.309,19.115-11.776l6.784-13.568
			l19.541,8.853l-14.891,33.621c-13.419,30.357-14.208,64.149-2.24,95.147l3.179,8.235l-13.696,30.933
			c-4.736,10.773,0.128,23.381,10.901,28.139c2.816,1.237,5.739,1.835,8.597,1.835c8.192,0,16-4.736,19.541-12.715l13.696-30.933
			l8.235-3.2c30.997-11.968,55.424-35.307,68.843-65.664l44.288-100.096l62.293,139.477c10.645,23.765,34.069,37.867,58.56,37.867
			c1.621,0,3.264-0.384,4.885-0.512l10.325,23.125c3.541,7.936,11.349,12.651,19.52,12.651c2.88,0,5.845-0.597,8.683-1.856
			c10.752-4.8,15.573-17.429,10.773-28.181L434.99,458.901z M328.196,210.859c-0.021,0.107-0.085,0.171-0.107,0.277
			c-3.776,23.531-23.061,41.707-46.891,44.181c-0.149,0.021-0.277,0.149-0.427,0.171c-1.707,0.149-3.349,0.512-5.099,0.512
			c-4.309,0-8.448-0.661-12.48-1.643c-0.107-0.021-0.192-0.128-0.299-0.149c-8.128-2.005-15.317-5.888-21.397-10.965
			c-0.704-0.576-1.451-1.109-2.112-1.728c-1.301-1.195-2.453-2.517-3.627-3.84c-0.981-1.131-1.941-2.261-2.837-3.456
			c-0.896-1.216-1.728-2.475-2.539-3.755c-0.939-1.536-1.792-3.136-2.603-4.779c-0.555-1.173-1.131-2.325-1.621-3.541
			c-0.853-2.155-1.515-4.416-2.091-6.699c-0.213-0.832-0.512-1.643-0.683-2.496c-0.64-3.221-0.981-6.571-1.003-9.984
			c0.021-0.384,0.043-0.768,0.043-1.109c0.235-14.635,6.336-27.819,16.107-37.333c20.096-19.584,54.187-19.584,74.304,0
			c9.963,9.685,16.171,23.189,16.171,38.144C329.006,205.461,328.601,208.171,328.196,210.859z"/>
	</g>
</g>
<g>
</g>
<g>
</g>
<g>
</g>
<g>
</g>
<g>
</g>
<g>
</g>
<g>
</g>
<g>
</g>
<g>
</g>
<g>
</g>
<g>
</g>
<g>
</g>
<g>
</g>
<g>
</g>
<g>
</g>
</svg>
