<?xml version="1.0" encoding="iso-8859-1"?>
<!-- Generator: Adobe Illustrator 19.0.0, SVG Export Plug-In . SVG Version: 6.00 Build 0)  -->
<svg version="1.1" id="Layer_1" xmlns="http://www.w3.org/2000/svg" xmlns:xlink="http://www.w3.org/1999/xlink" x="0px" y="0px"
	 viewBox="0 0 512.1 512.1" style="enable-background:new 0 0 512.1 512.1;" xml:space="preserve">
<g>
	<g>
		<path d="M496.748,101.113c-2.517-20.309-13.995-37.995-31.531-48.512L393.26,9.444c-26.005-15.616-59.157-11.563-80.576,9.92
			L81.58,250.446c-14.464,14.464-21.333,34.411-18.837,54.72c0.811,6.592,2.88,12.757,5.504,18.667l-46.955,45.803
			c-4.864,4.757-7.189,11.563-6.229,18.304l15.125,105.856c1.152,7.979,6.699,14.635,14.336,17.195
			c2.24,0.747,4.523,1.109,6.805,1.109c5.525,0,10.944-2.155,15.019-6.165l106.645-105.643c8.704,3.968,17.941,5.973,27.157,5.973
			c17.045,0,33.92-6.613,46.656-19.349L477.91,155.833C492.353,141.348,499.244,121.422,496.748,101.113z M66.454,445.774
			l-7.616-53.163l38.208-37.269l23.488,14.101l14.315,8.576L66.454,445.774z M405.654,143.118l-128,128
			c-4.16,4.16-9.621,6.251-15.083,6.251c-5.461,0-10.923-2.091-15.083-6.251c-8.341-8.341-8.341-21.824,0-30.165l128-128
			c8.341-8.341,21.824-8.341,30.165,0C413.996,121.294,413.996,134.777,405.654,143.118z"/>
	</g>
</g>
<g>
</g>
<g>
</g>
<g>
</g>
<g>
</g>
<g>
</g>
<g>
</g>
<g>
</g>
<g>
</g>
<g>
</g>
<g>
</g>
<g>
</g>
<g>
</g>
<g>
</g>
<g>
</g>
<g>
</g>
</svg>
