<?xml version="1.0" encoding="iso-8859-1"?>
<!-- Generator: Adobe Illustrator 19.0.0, SVG Export Plug-In . SVG Version: 6.00 Build 0)  -->
<svg version="1.1" id="Layer_1" xmlns="http://www.w3.org/2000/svg" xmlns:xlink="http://www.w3.org/1999/xlink" x="0px" y="0px"
	 viewBox="0 0 511.9 511.9" style="enable-background:new 0 0 511.9 511.9;" xml:space="preserve">
<g>
	<g>
		<path d="M490.748,234.7V64c0-11.8-9.5-21.3-21.3-21.3h-64c-11.8,0-21.3,9.6-21.3,21.3v21.3h-42.7c-11.8,0-21.3,9.6-21.3,21.3v128
			h-90l-10.8-42.6h36.7c11.8,0,21.3-9.6,21.3-21.3V21.3c0-11.7-9.5-21.3-21.3-21.3h-213.3c-11.8,0-21.4,9.6-21.4,21.3v149.3
			c0,11.8,9.5,21.3,21.3,21.3h36.7l-10.7,42.7h-47.3c-11.8,0.1-21.3,9.6-21.3,21.4v64c0,11.8,9.5,21.3,21.3,21.3v149.3
			c0,11.8,9.5,21.3,21.3,21.3c11.8,0,21.3-9.6,21.3-21.3V341.3h213.3v149.3c0,11.8,9.5,21.3,21.3,21.3h170.7
			c11.8,0,21.3-9.6,21.3-21.3V341.3c11.8,0,21.3-9.6,21.3-21.3v-64C512.048,244.2,502.548,234.7,490.748,234.7z M362.748,128h21.3
			v106.7h-21.3V128z M123.348,192h52l10.7,42.7h-73.3L123.348,192z M384.048,426.7c0,11.8-9.5,21.3-21.3,21.3s-21.3-9.6-21.3-21.3
			V384c0-11.8,9.5-21.3,21.3-21.3s21.3,9.5,21.3,21.3V426.7z M469.448,298.7h-0.1h-170.6h-256v-21.3h42.7h128h128h64h64V298.7z"/>
	</g>
</g>
<g>
</g>
<g>
</g>
<g>
</g>
<g>
</g>
<g>
</g>
<g>
</g>
<g>
</g>
<g>
</g>
<g>
</g>
<g>
</g>
<g>
</g>
<g>
</g>
<g>
</g>
<g>
</g>
<g>
</g>
</svg>
