<?xml version="1.0" encoding="iso-8859-1"?>
<!-- Generator: Adobe Illustrator 19.0.0, SVG Export Plug-In . SVG Version: 6.00 Build 0)  -->
<svg version="1.1" id="Layer_1" xmlns="http://www.w3.org/2000/svg" xmlns:xlink="http://www.w3.org/1999/xlink" x="0px" y="0px"
	 viewBox="0 0 512.005 512.005" style="enable-background:new 0 0 512.005 512.005;" xml:space="preserve">
<g>
	<g>
		<path d="M448.005,213.309c-9.856,0-19.072,2.411-27.413,6.421L307.419,106.557c3.968-9.365,6.101-19.477,6.101-29.931
			c0-20.48-7.979-39.723-22.443-54.208c-29.867-29.867-78.485-29.867-108.48,0.085l-45.483,45.995
			C96.453,61.693,53.211,73.683,21.893,105L6.256,120.637c-8.341,8.341-8.341,21.845,0,30.165L162.693,307.24
			c4.16,4.181,9.621,6.251,15.083,6.251c5.461,0,10.923-2.069,15.083-6.251l15.637-15.637
			c31.317-31.317,43.307-74.539,36.501-115.221l36.16-35.755l109.269,109.269c-4.011,8.341-6.421,17.557-6.421,27.413
			c0,9.856,2.411,19.072,6.421,27.413L225.84,469.309h-97.835c-11.776,0-21.333,9.557-21.333,21.333s9.557,21.333,21.333,21.333
			h213.333c11.776,0,21.333-9.557,21.333-21.333s-9.557-21.333-21.333-21.333h-55.168l134.421-134.421
			c8.341,4.011,17.557,6.421,27.413,6.421c35.285,0,64-28.715,64-64S483.291,213.309,448.005,213.309z"/>
	</g>
</g>
<g>
</g>
<g>
</g>
<g>
</g>
<g>
</g>
<g>
</g>
<g>
</g>
<g>
</g>
<g>
</g>
<g>
</g>
<g>
</g>
<g>
</g>
<g>
</g>
<g>
</g>
<g>
</g>
<g>
</g>
</svg>
