<?xml version="1.0" encoding="iso-8859-1"?>
<!-- Generator: Adobe Illustrator 19.0.0, SVG Export Plug-In . SVG Version: 6.00 Build 0)  -->
<svg version="1.1" id="Layer_1" xmlns="http://www.w3.org/2000/svg" xmlns:xlink="http://www.w3.org/1999/xlink" x="0px" y="0px"
	 viewBox="0 0 512 512" style="enable-background:new 0 0 512 512;" xml:space="preserve">
<g>
	<g>
		<path d="M490.667,341.333v-256c0-23.531-19.136-42.667-42.667-42.667H64c-23.531,0-42.667,19.136-42.667,42.667v256
			C9.536,341.333,0,350.891,0,362.667v64c0,23.531,19.136,42.667,42.667,42.667h426.667c23.531,0,42.667-19.136,42.667-42.667v-64
			C512,350.891,502.464,341.333,490.667,341.333z M128,213.333h106.667v-42.667h-21.333c-11.797,0-21.333-9.557-21.333-21.333
			S201.536,128,213.333,128h85.333c11.797,0,21.333,9.557,21.333,21.333s-9.536,21.333-21.333,21.333h-21.333v42.667H384
			c11.797,0,21.333,9.557,21.333,21.333S395.797,256,384,256v42.667c0,11.776-9.536,21.333-21.333,21.333
			s-21.333-9.557-21.333-21.333V256h-64v42.667c0,11.776-9.536,21.333-21.333,21.333s-21.333-9.557-21.333-21.333V256h-64v42.667
			c0,11.776-9.536,21.333-21.333,21.333C137.536,320,128,310.443,128,298.667V256c-11.797,0-21.333-9.557-21.333-21.333
			S116.203,213.333,128,213.333z M42.667,426.667V384h140.501l15.083,15.083c3.989,4.011,9.408,6.251,15.083,6.251h85.333
			c5.675,0,11.093-2.24,15.083-6.251L328.832,384h140.501l0.021,42.667H42.667z"/>
	</g>
</g>
<g>
</g>
<g>
</g>
<g>
</g>
<g>
</g>
<g>
</g>
<g>
</g>
<g>
</g>
<g>
</g>
<g>
</g>
<g>
</g>
<g>
</g>
<g>
</g>
<g>
</g>
<g>
</g>
<g>
</g>
</svg>
