<?xml version="1.0" encoding="iso-8859-1"?>
<!-- Generator: Adobe Illustrator 19.0.0, SVG Export Plug-In . SVG Version: 6.00 Build 0)  -->
<svg version="1.1" id="Layer_1" xmlns="http://www.w3.org/2000/svg" xmlns:xlink="http://www.w3.org/1999/xlink" x="0px" y="0px"
	 viewBox="0 0 512 512" style="enable-background:new 0 0 512 512;" xml:space="preserve">
<g>
	<g>
		<g>
			<rect x="298.667" y="362.667" width="85.333" height="42.667"/>
			<path d="M362.667,261.931V192c0-11.776-9.536-21.333-21.333-21.333h-26.027L276.693,16.149C274.304,6.656,265.792,0,256,0
				s-18.304,6.656-20.693,16.149l-38.613,154.517h-26.027c-11.797,0-21.333,9.557-21.333,21.333v69.931
				C136.64,269.333,128,282.944,128,298.667v170.667C128,492.864,147.136,512,170.667,512h170.667
				C364.864,512,384,492.864,384,469.333V448H277.333C265.536,448,256,438.443,256,426.667v-85.333
				c0-11.776,9.536-21.333,21.333-21.333H384v-21.333C384,282.944,375.36,269.333,362.667,261.931z M320,256H192v-42.667h21.333
				h85.333H320V256z"/>
		</g>
	</g>
</g>
<g>
</g>
<g>
</g>
<g>
</g>
<g>
</g>
<g>
</g>
<g>
</g>
<g>
</g>
<g>
</g>
<g>
</g>
<g>
</g>
<g>
</g>
<g>
</g>
<g>
</g>
<g>
</g>
<g>
</g>
</svg>
