<?xml version="1.0" encoding="iso-8859-1"?>
<!-- Generator: Adobe Illustrator 19.0.0, SVG Export Plug-In . SVG Version: 6.00 Build 0)  -->
<svg version="1.1" id="Layer_1" xmlns="http://www.w3.org/2000/svg" xmlns:xlink="http://www.w3.org/1999/xlink" x="0px" y="0px"
	 viewBox="0 0 512 512" style="enable-background:new 0 0 512 512;" xml:space="preserve">
<g>
	<g>
		<g>
			<path d="M448,106.667H320V85.333c0-35.285-28.715-64-64-64s-64,28.715-64,64v21.333H64c-35.285,0-64,28.715-64,64v256
				c0,35.285,28.715,64,64,64h384c35.285,0,64-28.715,64-64v-256C512,135.381,483.285,106.667,448,106.667z M234.667,128V85.333
				C234.667,73.579,244.224,64,256,64s21.333,9.579,21.333,21.333V128v21.333h-42.667V128z M106.667,234.667H192
				c11.797,0,21.333,9.557,21.333,21.333s-9.536,21.333-21.333,21.333h-85.333c-11.797,0-21.333-9.557-21.333-21.333
				S94.869,234.667,106.667,234.667z M85.333,298.667H192c11.797,0,21.333,9.557,21.333,21.333s-9.536,21.333-21.333,21.333H85.333
				C73.536,341.333,64,331.776,64,320S73.536,298.667,85.333,298.667z M106.667,405.333H85.333C73.536,405.333,64,395.776,64,384
				s9.536-21.333,21.333-21.333h21.333c11.797,0,21.333,9.557,21.333,21.333S118.464,405.333,106.667,405.333z M213.333,405.333
				h-42.667c-11.797,0-21.333-9.557-21.333-21.333s9.536-21.333,21.333-21.333h42.667c11.797,0,21.333,9.557,21.333,21.333
				S225.131,405.333,213.333,405.333z M341.333,426.667c-58.816,0-106.667-47.851-106.667-106.667s47.851-106.667,106.667-106.667
				C400.149,213.333,448,261.184,448,320S400.149,426.667,341.333,426.667z"/>
			<path d="M341.333,256c-35.285,0-64,28.715-64,64s28.715,64,64,64c35.285,0,64-28.715,64-64S376.619,256,341.333,256z"/>
		</g>
	</g>
</g>
<g>
</g>
<g>
</g>
<g>
</g>
<g>
</g>
<g>
</g>
<g>
</g>
<g>
</g>
<g>
</g>
<g>
</g>
<g>
</g>
<g>
</g>
<g>
</g>
<g>
</g>
<g>
</g>
<g>
</g>
</svg>
