<?xml version="1.0" encoding="iso-8859-1"?>
<!-- Generator: Adobe Illustrator 19.0.0, SVG Export Plug-In . SVG Version: 6.00 Build 0)  -->
<svg version="1.1" id="Layer_1" xmlns="http://www.w3.org/2000/svg" xmlns:xlink="http://www.w3.org/1999/xlink" x="0px" y="0px"
	 viewBox="0 0 512 512" style="enable-background:new 0 0 512 512;" xml:space="preserve">
<g>
	<g>
		<g>
			<path d="M490.667,341.333v-256c0-23.531-19.136-42.667-42.667-42.667H64c-23.531,0-42.667,19.136-42.667,42.667v256
				C9.536,341.333,0,350.891,0,362.667v64c0,23.531,19.136,42.667,42.667,42.667h426.667c23.531,0,42.667-19.136,42.667-42.667v-64
				C512,350.891,502.464,341.333,490.667,341.333z M362.667,149.333h42.667c11.797,0,21.333,9.557,21.333,21.333
				S417.131,192,405.333,192h-42.667c-11.797,0-21.333-9.557-21.333-21.333S350.869,149.333,362.667,149.333z M405.333,256H384
				c-11.797,0-21.333-9.557-21.333-21.333s9.536-21.333,21.333-21.333h21.333c11.797,0,21.333,9.557,21.333,21.333
				S417.131,256,405.333,256z M426.667,298.667c0,11.776-9.536,21.333-21.333,21.333h-42.667c-11.797,0-21.333-9.557-21.333-21.333
				s9.536-21.333,21.333-21.333h42.667C417.131,277.333,426.667,286.891,426.667,298.667z M277.333,149.333h21.333
				c11.797,0,21.333,9.557,21.333,21.333S310.464,192,298.667,192h-21.333C265.536,192,256,182.443,256,170.667
				S265.536,149.333,277.333,149.333z M277.333,213.333H320c11.797,0,21.333,9.557,21.333,21.333S331.797,256,320,256h-42.667
				C265.536,256,256,246.443,256,234.667S265.536,213.333,277.333,213.333z M277.333,277.333h21.333
				c11.797,0,21.333,9.557,21.333,21.333S310.464,320,298.667,320h-21.333C265.536,320,256,310.443,256,298.667
				S265.536,277.333,277.333,277.333z M85.333,128c0-11.776,9.536-21.333,21.333-21.333h106.667
				c11.797,0,21.333,9.557,21.333,21.333v106.667c0,11.776-9.536,21.333-21.333,21.333H106.667
				c-11.797,0-21.333-9.557-21.333-21.333V128z M106.667,277.333h106.667c11.797,0,21.333,9.557,21.333,21.333
				S225.131,320,213.333,320H106.667c-11.797,0-21.333-9.557-21.333-21.333S94.869,277.333,106.667,277.333z M42.667,426.667V384
				h140.501l15.083,15.083c3.989,4.011,9.408,6.251,15.083,6.251h85.333c5.675,0,11.093-2.24,15.083-6.251L328.832,384h140.501
				l0.021,42.667H42.667z"/>
			<rect x="128" y="149.333" width="64" height="64"/>
		</g>
	</g>
</g>
<g>
</g>
<g>
</g>
<g>
</g>
<g>
</g>
<g>
</g>
<g>
</g>
<g>
</g>
<g>
</g>
<g>
</g>
<g>
</g>
<g>
</g>
<g>
</g>
<g>
</g>
<g>
</g>
<g>
</g>
</svg>
