<?xml version="1.0" encoding="iso-8859-1"?>
<!-- Generator: Adobe Illustrator 19.0.0, SVG Export Plug-In . SVG Version: 6.00 Build 0)  -->
<svg version="1.1" id="Layer_1" xmlns="http://www.w3.org/2000/svg" xmlns:xlink="http://www.w3.org/1999/xlink" x="0px" y="0px"
	 viewBox="0 0 512.245 512.245" style="enable-background:new 0 0 512.245 512.245;" xml:space="preserve">
<g>
	<g>
		<path d="M475.808,156.979l30.187-30.165c4.011-4.011,6.251-9.429,6.251-15.083c0-5.653-2.24-11.093-6.251-15.083L415.477,6.131
			c-8-8-22.165-8-30.165,0L340.064,51.4L234.464,157c-4.011,3.989-6.251,9.408-6.251,15.083c0,5.653,2.24,11.072,6.251,15.083
			L18.72,402.888c-24.96,24.96-24.96,65.579,0,90.517v0.021c12.48,12.459,28.864,18.688,45.248,18.688
			c16.384,0,32.789-6.229,45.269-18.709l215.744-215.744c4.16,4.181,9.621,6.251,15.083,6.251s10.923-2.069,15.083-6.251
			l90.496-90.517l15.104,15.104l-90.517,90.496c-8.341,8.341-8.341,21.845,0,30.165c4.16,4.181,9.621,6.251,15.083,6.251
			c5.461,0,10.923-2.069,15.083-6.251l105.6-105.579c4.16-4.181,6.251-9.643,6.251-15.083c0-5.461-2.091-10.923-6.251-15.083
			L475.808,156.979z M340.064,232.413l-60.352-60.331l75.435-75.435l30.165,30.165L415.477,157L340.064,232.413z"/>
	</g>
</g>
<g>
</g>
<g>
</g>
<g>
</g>
<g>
</g>
<g>
</g>
<g>
</g>
<g>
</g>
<g>
</g>
<g>
</g>
<g>
</g>
<g>
</g>
<g>
</g>
<g>
</g>
<g>
</g>
<g>
</g>
</svg>
