<?xml version="1.0" encoding="iso-8859-1"?>
<!-- Generator: Adobe Illustrator 19.0.0, SVG Export Plug-In . SVG Version: 6.00 Build 0)  -->
<svg version="1.1" id="Layer_1" xmlns="http://www.w3.org/2000/svg" xmlns:xlink="http://www.w3.org/1999/xlink" x="0px" y="0px"
	 viewBox="0 0 512 512" style="enable-background:new 0 0 512 512;" xml:space="preserve">
<g>
	<g>
		<path d="M405.333,170.667v-65.088C429.653,100.629,448,79.083,448,53.333C448,23.936,424.085,0,394.667,0H117.333
			C87.915,0,64,23.936,64,53.333c0,25.749,18.347,47.296,42.667,52.245v65.088c-35.285,0-64,28.715-64,64V320
			c0,35.285,28.715,64,64,64h128v26.581l-133.845,38.251c-0.427,0.107-0.725,0.427-1.152,0.576
			c-1.429,0.512-2.667,1.259-3.947,2.048c-1.109,0.683-2.219,1.28-3.179,2.133c-1.045,0.939-1.813,2.027-2.645,3.157
			c-0.811,1.088-1.643,2.091-2.24,3.307c-0.555,1.173-0.853,2.432-1.195,3.712c-0.405,1.429-0.789,2.816-0.875,4.309
			c-0.021,0.448-0.256,0.811-0.256,1.259v21.333c0,11.776,9.536,21.333,21.333,21.333c11.797,0,21.333-9.557,21.333-21.333v-5.248
			l106.667-30.464v35.712c0,11.776,9.536,21.333,21.333,21.333c11.797,0,21.333-9.557,21.333-21.333v-35.712L384,485.419v5.248
			c0,11.776,9.536,21.333,21.333,21.333c11.797,0,21.333-9.557,21.333-21.333v-21.333c0-0.448-0.235-0.811-0.256-1.259
			c-0.085-1.493-0.469-2.88-0.875-4.309c-0.341-1.28-0.619-2.539-1.195-3.712c-0.597-1.216-1.429-2.219-2.24-3.307
			c-0.832-1.109-1.6-2.219-2.645-3.157c-0.96-0.853-2.048-1.451-3.157-2.133c-1.28-0.789-2.539-1.536-3.968-2.048
			c-0.427-0.149-0.725-0.469-1.152-0.576l-133.845-38.251V384h128c35.285,0,64-28.715,64-64v-85.333
			C469.333,199.381,440.619,170.667,405.333,170.667z M117.333,42.667h277.333c5.867,0,10.667,4.779,10.667,10.667
			S400.533,64,394.667,64H384H128h-10.667c-5.867,0-10.667-4.779-10.667-10.667S111.467,42.667,117.333,42.667z M426.667,320
			c0,11.755-9.557,21.333-21.333,21.333H106.667c-11.776,0-21.333-9.579-21.333-21.333v-85.333c0-11.755,9.557-21.333,21.333-21.333
			v85.333c0,11.776,9.536,21.333,21.333,21.333h256c11.797,0,21.333-9.557,21.333-21.333v-85.333
			c11.776,0,21.333,9.579,21.333,21.333V320z"/>
	</g>
</g>
<g>
</g>
<g>
</g>
<g>
</g>
<g>
</g>
<g>
</g>
<g>
</g>
<g>
</g>
<g>
</g>
<g>
</g>
<g>
</g>
<g>
</g>
<g>
</g>
<g>
</g>
<g>
</g>
<g>
</g>
</svg>
