<?xml version="1.0" encoding="iso-8859-1"?>
<!-- Generator: Adobe Illustrator 19.0.0, SVG Export Plug-In . SVG Version: 6.00 Build 0)  -->
<svg version="1.1" id="Layer_1" xmlns="http://www.w3.org/2000/svg" xmlns:xlink="http://www.w3.org/1999/xlink" x="0px" y="0px"
	 viewBox="0 0 511.978 511.978" style="enable-background:new 0 0 511.978 511.978;" xml:space="preserve">
<g>
	<g>
		<g>
			<path d="M497.267,34.096l-19.392-19.392c-19.605-19.605-51.499-19.605-71.104,0l-24.789,24.789
				c-8.341-8.341-21.845-8.341-30.165,0l-30.165,30.165l60.331,60.352c8.341,8.32,8.341,21.824,0,30.165L249.843,292.315
				c-4.16,4.16-9.621,6.229-15.083,6.229c-5.461,0-10.923-2.069-15.083-6.229l-60.331-60.352l-48.256,48.256l8.32,49.067
				c6.379,31.787,31.488,56.917,63.893,63.403c0.981,0.171,1.941,0.448,2.88,0.768l39.275,13.76l171.605-171.627l15.083,15.083
				L246.217,416.624c-8.32,8.32-8.32,21.824,0,30.165c4.16,4.16,9.621,6.251,15.083,6.251c5.461,0,10.923-2.091,15.083-6.251
				l211.2-211.2c8.32-8.32,8.32-21.824,0-30.165c-8.341-8.32-21.845-8.32-30.165,0l-15.104,15.083l-15.083-15.083l45.269-45.248
				c8.32-8.341,8.32-21.845,0-30.165l24.789-24.789C516.873,85.616,516.873,53.701,497.267,34.096z M467.102,75.056l-24.768,24.789
				l-30.187-30.187l24.768-24.768c2.965-2.987,7.787-2.987,10.795-0.021l19.392,19.413
				C470.067,67.248,470.067,72.091,467.102,75.056z"/>
			<polygon points="336.732,145.087 291.484,99.839 189.511,201.791 234.759,247.06 			"/>
			<path d="M77.47,337.044l-3.307-19.477c-45.483,49.045-63.936,103.637-49.365,139.456L6.259,475.562
				c-8.341,8.341-8.341,21.845,0,30.165c4.16,4.181,9.621,6.251,15.083,6.251c5.461,0,10.901-2.069,15.083-6.251l18.261-18.261
				c8.021,3.285,16.917,5.035,26.581,5.035c32.597,0,72.875-18.432,110.144-52.011l-17.984-6.293
				C124.809,423.85,87.241,385.876,77.47,337.044z"/>
		</g>
	</g>
</g>
<g>
</g>
<g>
</g>
<g>
</g>
<g>
</g>
<g>
</g>
<g>
</g>
<g>
</g>
<g>
</g>
<g>
</g>
<g>
</g>
<g>
</g>
<g>
</g>
<g>
</g>
<g>
</g>
<g>
</g>
</svg>
