<?xml version="1.0" encoding="iso-8859-1"?>
<!-- Generator: Adobe Illustrator 19.0.0, SVG Export Plug-In . SVG Version: 6.00 Build 0)  -->
<svg version="1.1" id="Layer_1" xmlns="http://www.w3.org/2000/svg" xmlns:xlink="http://www.w3.org/1999/xlink" x="0px" y="0px"
	 viewBox="0 0 511.978 511.978" style="enable-background:new 0 0 511.978 511.978;" xml:space="preserve">
<g>
	<g>
		<g>
			<path d="M493.25,48.893l-30.165-30.165c-24.981-24.981-65.579-24.96-90.517,0l-30.165,30.165l120.683,120.683l30.165-30.165
				C518.21,114.451,518.21,73.853,493.25,48.893z"/>
			<path d="M297.218,94.086l60.331,60.352c8.341,8.32,8.341,21.824,0,30.165l-105.6,105.579c-4.16,4.181-9.621,6.251-15.083,6.251
				c-5.44,0-10.901-2.069-15.083-6.251l-60.331-60.331l-60.395,60.395l120.661,120.683l211.2-211.179L312.237,79.067L297.218,94.086
				z"/>
			<polygon points="312.311,169.503 267.042,124.255 191.629,199.69 236.877,244.938 			"/>
			<path d="M0.781,484.97c-2.048,7.403,0.043,15.339,5.461,20.757c4.053,4.053,9.515,6.251,15.083,6.251
				c1.899,0,3.819-0.256,5.675-0.768l113.003-31.147L31.928,371.989L0.781,484.97z"/>
			<polygon points="55.778,335.528 176.461,456.189 191.565,441.107 70.882,320.424 			"/>
		</g>
	</g>
</g>
<g>
</g>
<g>
</g>
<g>
</g>
<g>
</g>
<g>
</g>
<g>
</g>
<g>
</g>
<g>
</g>
<g>
</g>
<g>
</g>
<g>
</g>
<g>
</g>
<g>
</g>
<g>
</g>
<g>
</g>
</svg>
