<?xml version="1.0" encoding="iso-8859-1"?>
<!-- Generator: Adobe Illustrator 19.0.0, SVG Export Plug-In . SVG Version: 6.00 Build 0)  -->
<svg version="1.1" id="Layer_1" xmlns="http://www.w3.org/2000/svg" xmlns:xlink="http://www.w3.org/1999/xlink" x="0px" y="0px"
	 viewBox="0 0 512.3 512.3" style="enable-background:new 0 0 512.3 512.3;" xml:space="preserve">
<g>
	<g>
		<path d="M234.7,405.45H192c-11.8,0-21.3,9.6-21.3,21.3c0,11.7,9.5,21.4,21.3,21.4h42.7c11.8,0,21.3-9.6,21.3-21.3
			C256,415.15,246.5,405.45,234.7,405.45z"/>
	</g>
</g>
<g>
	<g>
		<path d="M320,405.45h-21.3c-11.8,0-21.3,9.6-21.3,21.3c0,11.7,9.5,21.3,21.3,21.3H320c11.8,0,21.3-9.6,21.3-21.3
			C341.3,415.05,331.8,405.45,320,405.45z"/>
	</g>
</g>
<g>
	<g>
		<path d="M384,0.15H128c-11.8,0-21.3,9.6-21.3,21.3v64v21.3v64c0,11.8,9.5,21.4,21.3,21.4h256c11.8,0,21.3-9.6,21.3-21.3v-64v-21.4
			v-64C405.3,9.75,395.8,0.15,384,0.15z M362.6,85.55H149.3v-42.7h213.3V85.55z"/>
	</g>
</g>
<g>
	<g>
		<path d="M469.3,85.45H448v85.3c0,35.3-28.7,64-64,64H128c-35.3,0-64-28.7-64-64v-85.3H42.7c-23.6,0-42.7,19.2-42.7,42.7v149.3h512
			v-149.3C512,104.65,492.9,85.45,469.3,85.45z"/>
	</g>
</g>
<g>
	<g>
		<path d="M0,320.15v85.3c0,23.6,19.2,42.7,42.7,42.7h49.5l-6.5,39.1c-1,6.2,0.7,12.5,4.8,17.3c4,4.8,10,7.6,16.3,7.6h298.7
			c6.3,0,12.2-2.8,16.3-7.6c4.1-4.8,5.8-11.1,4.8-17.3l-6.5-39.1h49.5c23.5,0,42.7-19.1,42.7-42.7v-85.3H0z M131.9,469.45l6.5-39.1
			l7.7-46.2H366l7.7,46.2l6.5,39.1H131.9z"/>
	</g>
</g>
<g>
</g>
<g>
</g>
<g>
</g>
<g>
</g>
<g>
</g>
<g>
</g>
<g>
</g>
<g>
</g>
<g>
</g>
<g>
</g>
<g>
</g>
<g>
</g>
<g>
</g>
<g>
</g>
<g>
</g>
</svg>
