<?xml version="1.0" encoding="iso-8859-1"?>
<!-- Generator: Adobe Illustrator 19.0.0, SVG Export Plug-In . SVG Version: 6.00 Build 0)  -->
<svg version="1.1" id="Layer_1" xmlns="http://www.w3.org/2000/svg" xmlns:xlink="http://www.w3.org/1999/xlink" x="0px" y="0px"
	 viewBox="0 0 512.038 512.038" style="enable-background:new 0 0 512.038 512.038;" xml:space="preserve">
<g>
	<g>
		<path d="M444.859,236.601c-0.085-0.064-0.149-0.149-0.235-0.213L132.326,77.753c-0.704-0.363-1.408-0.661-2.155-0.939
			c-37.675-14.187-79.68-6.229-109.547,20.693c-16.875,15.189-24,37.483-19.115,59.627c4.928,22.165,20.8,39.36,42.517,46.016
			l20.011,6.123v62.208c0,11.776,9.536,21.333,21.333,21.333H307.75c-5.76,13.099-9.045,27.477-9.045,42.667H85.371
			c-5.675,0-11.093,2.24-15.083,6.251l-64,64c-6.101,6.101-7.936,15.275-4.629,23.253c3.285,7.957,11.093,13.163,19.712,13.163h384
			c58.816,0,106.667-47.851,106.667-106.667C512.038,290.639,484.134,252.345,444.859,236.601z M106.705,250.148v-27.797
			l90.773,27.797H106.705z M426.705,356.815c0,11.776-9.536,21.333-21.333,21.333c-11.797,0-21.333-9.557-21.333-21.333
			c-11.797,0-21.333-9.557-21.333-21.333s9.536-21.333,21.333-21.333c0-11.776,9.536-21.333,21.333-21.333
			c11.797,0,21.333,9.557,21.333,21.333c11.797,0,21.333,9.557,21.333,21.333S438.502,356.815,426.705,356.815z"/>
	</g>
</g>
<g>
</g>
<g>
</g>
<g>
</g>
<g>
</g>
<g>
</g>
<g>
</g>
<g>
</g>
<g>
</g>
<g>
</g>
<g>
</g>
<g>
</g>
<g>
</g>
<g>
</g>
<g>
</g>
<g>
</g>
</svg>
