<?xml version="1.0" encoding="iso-8859-1"?>
<!-- Generator: Adobe Illustrator 19.0.0, SVG Export Plug-In . SVG Version: 6.00 Build 0)  -->
<svg version="1.1" id="Layer_1" xmlns="http://www.w3.org/2000/svg" xmlns:xlink="http://www.w3.org/1999/xlink" x="0px" y="0px"
	 viewBox="0 0 491.983 491.983" style="enable-background:new 0 0 491.983 491.983;" xml:space="preserve">
<g>
	<g>
		<g>
			<polygon points="266.24,254.472 266.24,286.954 307.2,286.954 307.2,254.472 286.72,233.992 			"/>
			<path d="M413.655,343.517c87.88-26.133,78.295-154.993,77.783-160.686c-0.901-10.609-9.748-18.76-20.398-18.76h-40.96
				c0-11.305-9.155-20.48-20.48-20.48H307.2v52.961l34.959,34.959c3.85,3.83,6.001,9.052,6.001,14.479v61.44
				c0,11.305-9.155,20.48-20.48,20.48h-81.92c-11.325,0-20.48-9.175-20.48-20.48v-61.44c0-5.427,2.15-10.65,6.001-14.479
				l34.959-34.959v-52.961H20.48c-11.325,0-20.48,9.175-20.48,20.48v110.141c0,45.609,19.784,86.589,51.077,115.159
				C22.897,389.434,0,412.371,0,440.552c0,28.221,22.958,51.2,51.2,51.2h327.68c28.242,0,51.2-22.979,51.2-51.2
				c0-28.18-22.897-51.118-51.077-51.18C393.216,376.388,404.992,360.905,413.655,343.517z M430.08,274.213v-69.181h20.91
				c-0.532,21.402-4.219,56.381-21.238,79.34C429.978,280.992,430.08,277.613,430.08,274.213z M81.92,253.733
				c11.325,0,20.48,9.175,20.48,20.48c0,29.614,24.084,53.699,53.678,53.699c11.325,0,20.48,9.175,20.48,20.48
				c0,11.305-9.155,20.48-20.48,20.48c-52.183,0-94.638-42.455-94.638-94.659C61.44,262.908,70.595,253.733,81.92,253.733z
				 M389.12,440.552c0,5.652-4.608,10.24-10.24,10.24H51.2c-5.632,0-10.24-4.588-10.24-10.24s4.608-10.24,10.24-10.24h104.878
				h117.924H378.88C384.512,430.312,389.12,434.899,389.12,440.552z"/>
			<path d="M98.488,47.018c-13.455,12.8-16.425,25.702-16.568,34.263c-0.205,12.677,5.222,24.699,16.097,35.738
				c3.994,4.055,9.277,6.083,14.582,6.083c5.202,0,10.383-1.946,14.377-5.878c8.069-7.946,8.151-20.91,0.205-28.979
				c-3.604-3.645-4.301-5.919-4.301-6.328c0-0.328,0.676-2.212,3.686-5.079c13.763-12.82,16.773-25.948,16.875-34.734
				c0.102-8.847-2.642-22.221-16.404-35.676c-8.069-7.905-21.074-7.741-28.959,0.328c-7.926,8.09-7.762,21.053,0.328,28.959
				c3.359,3.277,4.096,5.427,4.076,5.898C102.482,41.98,101.827,43.905,98.488,47.018z"/>
			<path d="M200.888,46.658c-13.455,12.8-16.425,25.702-16.568,34.263c-0.205,12.677,5.222,24.699,16.097,35.738
				c3.994,4.055,9.277,6.083,14.582,6.083c5.202,0,10.383-1.946,14.377-5.878c8.069-7.946,8.151-20.91,0.205-28.979
				c-3.604-3.645-4.301-5.919-4.301-6.328c0-0.328,0.676-2.212,3.686-5.079c13.763-12.82,16.773-25.948,16.875-34.734
				c0.102-8.847-2.642-22.221-16.404-35.676c-8.069-7.905-21.074-7.741-28.959,0.328c-7.926,8.09-7.762,21.053,0.328,28.959
				c3.359,3.277,4.096,5.427,4.076,5.898C204.882,41.62,204.227,43.545,200.888,46.658z"/>
			<path d="M303.167,46.678c-13.435,12.8-16.384,25.682-16.527,34.243c-0.205,12.677,5.202,24.678,16.056,35.717
				c4.014,4.076,9.298,6.103,14.602,6.103c5.181,0,10.383-1.946,14.356-5.878c8.069-7.926,8.192-20.89,0.246-28.959
				c-3.604-3.645-4.321-5.939-4.301-6.349c0-0.328,0.655-2.232,3.645-5.079c13.803-12.82,16.814-25.948,16.916-34.734
				c0.102-8.847-2.662-22.241-16.445-35.676c-8.069-7.905-21.033-7.762-28.959,0.328c-7.905,8.09-7.741,21.074,0.369,28.959
				c3.338,3.297,4.076,5.427,4.076,5.898C307.202,41.62,306.526,43.545,303.167,46.678z"/>
		</g>
	</g>
</g>
<g>
</g>
<g>
</g>
<g>
</g>
<g>
</g>
<g>
</g>
<g>
</g>
<g>
</g>
<g>
</g>
<g>
</g>
<g>
</g>
<g>
</g>
<g>
</g>
<g>
</g>
<g>
</g>
<g>
</g>
</svg>
