<?xml version="1.0" encoding="iso-8859-1"?>
<!-- Generator: Adobe Illustrator 19.0.0, SVG Export Plug-In . SVG Version: 6.00 Build 0)  -->
<svg xmlns="http://www.w3.org/2000/svg" xmlns:xlink="http://www.w3.org/1999/xlink" version="1.1" id="Layer_1" x="0px" y="0px" viewBox="0 0 512 512" style="enable-background:new 0 0 512 512;" xml:space="preserve">
<g>
	<g>
		<path d="M459.977,227.28l-89.248-103.607c-1.277-1.484-1.083-3.728,0.431-4.971l11.937-9.79c1.467-1.205,3.63-1.012,4.862,0.432    l41.887,49.092c4.086,4.788,9.883,7.246,15.718,7.246c4.74,0,9.504-1.623,13.393-4.941c8.675-7.402,9.708-20.436,2.306-29.111    l-56.499-66.219c-1.872-2.194-4.108-3.896-6.539-5.099c-7.223-4.138-16.54-3.659-23.357,1.934l-30.8,25.263    c-1.463,1.2-3.616,1.013-4.851-0.42l-11.369-13.199c-7.752-8.999-19.038-14.173-30.916-14.173h-56.594    c-1.924,0-3.486-1.561-3.486-3.486V37.168C236.853,16.64,220.212,0,199.685,0h-79.727C99.429,0,82.789,16.64,82.789,37.168v19.065    c0,1.924-1.561,3.486-3.486,3.486c-20.528,0-37.168,16.64-37.168,37.168v377.945c0,20.528,16.64,37.168,37.168,37.168h353.393    c20.528,0,37.168-16.64,37.168-37.168V253.91C469.865,244.135,466.356,234.686,459.977,227.28z M359.121,402.132    c-5.994,9.665-16.365,15.437-27.739,15.437H171.474c-11.418,0-21.808-5.804-27.794-15.525c-5.8-9.416-6.458-20.865-1.825-30.841    l80.67-200.64l0.392-0.779c5.585-11.08,16.748-17.952,29.148-17.952c0.037,0,0.072,0,0.107,0c12.445,0.04,23.61,6.99,29.14,18.14    l0.384,0.775l0.318,0.804l79.069,199.836C365.64,381.351,364.929,392.768,359.121,402.132z"/>
	</g>
</g>
<g>
	<g>
		<path d="M315.348,368.039l-57.793-146.062c-2.002-5.058-9.152-5.077-11.179-0.03l-58.726,146.06    c-1.591,3.955,1.32,8.264,5.583,8.264h116.518C314,376.271,316.912,371.988,315.348,368.039z M231.333,274.778    c0-11.404,9.245-20.649,20.649-20.649c11.404,0,20.649,9.245,20.649,20.649v29.158c0,11.404-9.245,20.649-20.649,20.649    c-11.404,0-20.649-9.245-20.649-20.649V274.778z M252.759,371.187c-11.404,0-20.649-9.245-20.649-20.649    c0-11.404,9.245-20.649,20.649-20.649c11.404,0,20.649,9.245,20.649,20.649C273.409,361.942,264.163,371.187,252.759,371.187z"/>
	</g>
</g>
<g>
</g>
<g>
</g>
<g>
</g>
<g>
</g>
<g>
</g>
<g>
</g>
<g>
</g>
<g>
</g>
<g>
</g>
<g>
</g>
<g>
</g>
<g>
</g>
<g>
</g>
<g>
</g>
<g>
</g>
</svg>
