<?xml version="1.0" encoding="iso-8859-1"?>
<!-- Generator: Adobe Illustrator 19.0.0, SVG Export Plug-In . SVG Version: 6.00 Build 0)  -->
<svg xmlns="http://www.w3.org/2000/svg" xmlns:xlink="http://www.w3.org/1999/xlink" version="1.1" id="Layer_1" x="0px" y="0px" viewBox="0 0 512 512" style="enable-background:new 0 0 512 512;" xml:space="preserve">
<g>
	<g>
		<path d="M510.672,406.127c-3.787-9.452-14.519-14.044-23.973-10.257l-38.263,15.333c-15.544,4.587-21.23,5.976-60.938-8.903    l-0.982-0.369l-2.676-0.669c-2.728-0.682-4.022-3.761-2.655-6.218c7.023-12.627,5.181-28.899-5.531-39.611l-38.989-38.989    c-1.659-1.659-1.659-4.349,0-6.007l12.62-12.62c12.96-12.96,12.96-33.973,0-46.935l-42.035-42.035    c-6.256-6.258-14.59-9.703-23.467-9.703s-17.211,3.445-23.467,9.703l-3.37,3.37c-1.659,1.659-4.349,1.659-6.007,0L119.988,81.267    c-27.419-27.419-72.034-27.419-99.454,0C7.293,94.509,0,112.17,0,130.993c0,18.825,7.293,36.486,20.535,49.726l130.95,130.95    c1.659,1.659,1.659,4.349,0,6.007l-2.553,2.553c-12.96,12.96-12.96,33.973,0,46.935l42.035,42.035    c6.257,6.258,14.592,9.703,23.467,9.703c8.877,0,17.211-3.447,23.466-9.703l9.68-9.68c1.659-1.659,4.349-1.659,6.007,0    l38.989,38.988c6.256,6.258,14.59,9.704,23.467,9.704c8.877,0,17.211-3.445,23.467-9.703l6.558-6.558    c1.085-1.085,2.66-1.46,4.148-1.087c0.009,0.003,0.016,0.004,0.025,0.006l25.306,6.327c27.407,10.223,43.135,14.101,56.392,14.1    c9.313,0,17.408-1.914,27.47-4.887l1.136-0.336l39.872-15.976C509.869,426.312,514.46,415.578,510.672,406.127z"/>
	</g>
</g>
<g>
</g>
<g>
</g>
<g>
</g>
<g>
</g>
<g>
</g>
<g>
</g>
<g>
</g>
<g>
</g>
<g>
</g>
<g>
</g>
<g>
</g>
<g>
</g>
<g>
</g>
<g>
</g>
<g>
</g>
</svg>
