<?xml version="1.0" encoding="iso-8859-1"?>
<!-- Generator: Adobe Illustrator 19.0.0, SVG Export Plug-In . SVG Version: 6.00 Build 0)  -->
<svg xmlns="http://www.w3.org/2000/svg" xmlns:xlink="http://www.w3.org/1999/xlink" version="1.1" id="Layer_1" x="0px" y="0px" viewBox="0 0 511.999 511.999" style="enable-background:new 0 0 511.999 511.999;" xml:space="preserve">
<g>
	<g>
		<path d="M381.346,161.373c-3.541-6.743-6.601-12.567-8.116-15.938c-4.768-10.598-27.465-46.614-47.618-75.565    C281.918,7.107,268.52,1.055,257.625,0.102c-14.367-1.235-31.547,8.222-68.695,58.553c-21.794,29.529-42.536,62.858-50.987,79.225    l-3.616,6.993c-29.283,56.594-59.563,115.115-59.563,185.891c0,99.933,81.301,181.235,181.235,181.235    c48.653,0,94.351-18.985,128.674-53.459c34.103-34.253,52.769-79.659,52.559-127.857    C436.956,267.239,400.78,198.37,381.346,161.373z M223.945,443.858c-54.751,0-99.294-44.543-99.294-99.294    c0-10.304,8.354-18.658,18.658-18.658c10.304,0,18.658,8.354,18.658,18.658c0,34.176,27.803,61.978,61.978,61.978    c10.304,0,18.658,8.354,18.658,18.658C242.604,435.504,234.25,443.858,223.945,443.858z M272.54,445.318    c-10.304,0-18.658-8.354-18.658-18.658c0-10.304,8.354-18.658,18.658-18.658c10.304,0,18.658,8.354,18.658,18.658    C291.198,436.964,282.844,445.318,272.54,445.318z"/>
	</g>
</g>
<g>
</g>
<g>
</g>
<g>
</g>
<g>
</g>
<g>
</g>
<g>
</g>
<g>
</g>
<g>
</g>
<g>
</g>
<g>
</g>
<g>
</g>
<g>
</g>
<g>
</g>
<g>
</g>
<g>
</g>
</svg>
