<?xml version="1.0" encoding="iso-8859-1"?>
<!-- Generator: Adobe Illustrator 19.0.0, SVG Export Plug-In . SVG Version: 6.00 Build 0)  -->
<svg xmlns="http://www.w3.org/2000/svg" xmlns:xlink="http://www.w3.org/1999/xlink" version="1.1" id="Layer_1" x="0px" y="0px" viewBox="0 0 511.999 511.999" style="enable-background:new 0 0 511.999 511.999;" xml:space="preserve">
<g>
	<g>
		<path d="M500.508,249.198L400.089,148.852c-15.285-15.274-40.149-15.269-55.426,0.01l-43.241,43.241    c-5.134,5.134-13.458,5.134-18.593,0L172.592,81.865c-5.134-5.134-5.134-13.458,0-18.593l25.373-25.373    c8.698-8.697,8.446-22.958-0.758-31.331c-8.62-7.844-22.044-7.085-30.286,1.156l-58.75,58.749    c-1.173,0.931-2.31,1.928-3.394,3.011l-32.951,32.951c-1.084,1.084-2.082,2.221-3.011,3.394L6.34,168.304    c-8.453,8.451-8.453,22.157,0,30.61c4.226,4.226,9.766,6.34,15.304,6.34s11.079-2.114,15.304-6.34l28.662-28.661    c5.134-5.134,13.458-5.134,18.593,0L194.44,280.49c5.134,5.134,5.134,13.458,0,18.593l-45.156,45.156    c-7.431,7.43-11.509,17.311-11.482,27.819c0.029,10.509,4.157,20.367,11.626,27.758l100.795,99.755    c7.371,7.294,17.279,11.336,27.565,11.336c1.007,0,2.02-0.038,3.035-0.117l183.061-14.171    c19.298-1.493,34.811-17.183,36.09-36.495l11.94-180.61C512.659,268.235,508.502,257.186,500.508,249.198z"/>
	</g>
</g>
<g>
</g>
<g>
</g>
<g>
</g>
<g>
</g>
<g>
</g>
<g>
</g>
<g>
</g>
<g>
</g>
<g>
</g>
<g>
</g>
<g>
</g>
<g>
</g>
<g>
</g>
<g>
</g>
<g>
</g>
</svg>
