<?xml version="1.0" encoding="iso-8859-1"?>
<!-- Generator: Adobe Illustrator 19.0.0, SVG Export Plug-In . SVG Version: 6.00 Build 0)  -->
<svg xmlns="http://www.w3.org/2000/svg" xmlns:xlink="http://www.w3.org/1999/xlink" version="1.1" id="Layer_1" x="0px" y="0px" viewBox="0 0 512 512" style="enable-background:new 0 0 512 512;" xml:space="preserve">
<g>
	<g>
		<path d="M368.399,120.968l17.341-14.223l44.106,51.693c4.084,4.788,9.883,7.246,15.718,7.246c4.74,0,9.504-1.623,13.393-4.941    c8.675-7.402,9.708-20.436,2.306-29.111l-56.499-66.219c-1.874-2.194-4.108-3.897-6.54-5.1    c-7.222-4.137-16.537-3.658-23.354,1.934L341.44,89.668l-25.799-29.949h-78.786v-22.55C236.855,16.673,220.181,0,199.687,0    h-79.729C99.463,0,82.79,16.673,82.79,37.168v22.55h-3.486c-20.495,0-37.168,16.673-37.168,37.168v377.945    c0,20.495,16.673,37.168,37.168,37.168h353.392c20.495,0,37.168-16.673,37.168-37.168V238.758L368.399,120.968z"/>
	</g>
</g>
<g>
</g>
<g>
</g>
<g>
</g>
<g>
</g>
<g>
</g>
<g>
</g>
<g>
</g>
<g>
</g>
<g>
</g>
<g>
</g>
<g>
</g>
<g>
</g>
<g>
</g>
<g>
</g>
<g>
</g>
</svg>
