<?xml version="1.0" encoding="iso-8859-1"?>
<!-- Generator: Adobe Illustrator 19.0.0, SVG Export Plug-In . SVG Version: 6.00 Build 0)  -->
<svg xmlns="http://www.w3.org/2000/svg" xmlns:xlink="http://www.w3.org/1999/xlink" version="1.1" id="Layer_1" x="0px" y="0px" viewBox="0 0 512 512" style="enable-background:new 0 0 512 512;" xml:space="preserve">
<g>
	<g>
		<path d="M422.796,0h-31.061c-4.887,0-8.849,3.962-8.849,8.849v94.018c0,11.236-8.634,20.904-19.857,21.432    c-11.983,0.565-21.875-8.984-21.875-20.842V8.849c0-4.887-3.962-8.849-8.849-8.849H89.204C68.46,0,51.645,16.815,51.645,37.559    v142.592c0,20.744,16.815,37.559,37.559,37.559h88.165c4.887,0,8.849,3.962,8.849,8.849v247.883    c0,20.744,16.815,37.559,37.559,37.559h56.749c20.744,0,37.559-16.815,37.559-37.559V226.557c0-4.887,3.962-8.849,8.849-8.849    h95.864c20.744,0,37.559-16.815,37.559-37.559V37.559C460.355,16.815,443.538,0,422.796,0z"/>
	</g>
</g>
<g>
</g>
<g>
</g>
<g>
</g>
<g>
</g>
<g>
</g>
<g>
</g>
<g>
</g>
<g>
</g>
<g>
</g>
<g>
</g>
<g>
</g>
<g>
</g>
<g>
</g>
<g>
</g>
<g>
</g>
</svg>
