<?xml version="1.0" encoding="iso-8859-1"?>
<!-- Generator: Adobe Illustrator 19.0.0, SVG Export Plug-In . SVG Version: 6.00 Build 0)  -->
<svg xmlns="http://www.w3.org/2000/svg" xmlns:xlink="http://www.w3.org/1999/xlink" version="1.1" id="Layer_1" x="0px" y="0px" viewBox="0 0 511.998 511.998" style="enable-background:new 0 0 511.998 511.998;" xml:space="preserve">
<g>
	<g>
		<path d="M492.985,26.738h-53.967c-3.617,0-6.981,1.054-9.831,2.849c-5.025,2.649-8.781,7.552-9.691,13.601l-52.19,347.35h-13.024    c-2.588,0-4.155-2.799-2.857-5.038c2.836-4.893,4.462-10.57,4.462-16.621v-266.67c0-18.385-14.903-33.289-33.289-33.289H63.797    c-18.385,0-33.289,14.903-33.289,33.289v29.511c0,1.896,1.537,3.434,3.434,3.434h144.919c9.958,0,18.527,7.653,18.995,17.6    c0.501,10.62-7.962,19.387-18.473,19.387H33.942c-1.896,0-3.434,1.537-3.434,3.434v21.159c0,1.896,1.537,3.434,3.434,3.434h82.002    c9.958,0,18.527,7.653,18.995,17.6c0.501,10.62-7.962,19.388-18.473,19.388H33.942c-1.896,0-3.434,1.537-3.434,3.434v128.293    c0,6.051,1.626,11.727,4.462,16.621c1.297,2.239-0.27,5.038-2.858,5.038H19.017c-9.958,0-18.527,7.653-18.995,17.6    c-0.501,10.62,7.962,19.388,18.473,19.388h21.398c1.006,0,1.603,1.113,1.049,1.953c-3.723,5.639-5.896,12.393-5.896,19.656    c-0.003,19.801,15.807,35.673,35.608,35.745c19.798,0.072,35.87-15.958,35.87-35.74c0-7.264-2.171-14.019-5.896-19.66    c-0.555-0.84,0.042-1.954,1.048-1.954h198.036c1.013,0,1.609,1.128,1.039,1.966c-3.874,5.712-6.144,12.6-6.144,20.022    c-0.001,19.763,15.59,35.53,35.354,35.74c19.915,0.211,36.125-15.87,36.125-35.737c0-7.422-2.269-14.312-6.144-20.024    c-0.57-0.838,0.026-1.966,1.039-1.966h21.307c2.974,0,5.774-0.719,8.263-1.966c5.696-2.44,10.042-7.667,11.03-14.245    l52.228-347.589h39.694c10.511,0,18.973-8.767,18.473-19.388C511.511,34.391,502.942,26.738,492.985,26.738z M106.473,351.763    c-10.213,0-18.494-8.28-18.494-18.494c0-10.213,8.279-18.494,18.494-18.494c10.213,0,18.494,8.28,18.494,18.494    C124.967,343.483,116.686,351.763,106.473,351.763z M164.42,351.763c-10.213,0-18.494-8.28-18.494-18.494    c0-10.213,8.279-18.494,18.494-18.494c10.213,0,19.727,8.28,19.727,18.494C184.146,343.483,174.633,351.763,164.42,351.763z     M224.15,351.919c-10.213,0-18.494-8.28-18.494-18.494c0-10.213,8.28-18.494,18.494-18.494c10.213,0,18.494,8.28,18.494,18.494    C242.644,343.639,234.364,351.919,224.15,351.919z M282.097,351.919c-10.213,0-18.494-8.28-18.494-18.494    c0-10.213,8.28-18.494,18.494-18.494c10.213,0,19.727,8.28,19.727,18.494C301.824,343.639,292.311,351.919,282.097,351.919z"/>
	</g>
</g>
<g>
</g>
<g>
</g>
<g>
</g>
<g>
</g>
<g>
</g>
<g>
</g>
<g>
</g>
<g>
</g>
<g>
</g>
<g>
</g>
<g>
</g>
<g>
</g>
<g>
</g>
<g>
</g>
<g>
</g>
</svg>
