<?xml version="1.0" encoding="iso-8859-1"?>
<!-- Generator: Adobe Illustrator 19.0.0, SVG Export Plug-In . SVG Version: 6.00 Build 0)  -->
<svg xmlns="http://www.w3.org/2000/svg" xmlns:xlink="http://www.w3.org/1999/xlink" version="1.1" id="Layer_1" x="0px" y="0px" viewBox="0 0 512.001 512.001" style="enable-background:new 0 0 512.001 512.001;" xml:space="preserve">
<g>
	<g>
		<path d="M164.686,24.856l-10.403-10.403c-6.129-6.129-14.292-9.505-22.988-9.505c-7.546,0-14.689,2.545-20.453,7.223    c-0.513-0.685-1.061-1.353-1.684-1.976c-7.052-7.052-18.488-7.052-25.541,0L72.926,20.887c-0.785-1.386-1.751-2.697-2.932-3.878    c-7.052-7.055-18.488-7.052-25.541,0L13.477,47.982c-5.808,5.808-7.418,14.792-3.523,22.023c1.724,3.2,4.158,5.435,6.878,6.976    L5.29,88.523c-7.053,7.052-7.053,18.488,0,25.541c0.763,0.763,1.587,1.428,2.442,2.026c-8.076,12.581-6.623,29.551,4.37,40.544    l10.403,10.403c3.729,3.729,9.776,3.729,13.505,0L164.686,38.361C168.415,34.632,168.415,28.585,164.686,24.856z"/>
	</g>
</g>
<g>
	<g>
		<g>
			<path d="M217.199,156.797c-0.182-0.276-0.365-0.549-0.562-0.814c-0.169-0.228-0.344-0.445-0.521-0.663     c-0.193-0.237-0.389-0.471-0.594-0.697c-0.199-0.219-0.402-0.43-0.609-0.638c-0.207-0.207-0.417-0.412-0.635-0.609     c-0.219-0.199-0.442-0.39-0.669-0.577c-0.228-0.188-0.459-0.371-0.697-0.548c-0.232-0.172-0.467-0.336-0.707-0.496     c-0.25-0.169-0.503-0.331-0.765-0.488c-0.246-0.147-0.494-0.285-0.744-0.42c-0.266-0.143-0.535-0.282-0.809-0.412     c-0.266-0.126-0.536-0.242-0.808-0.354c-0.271-0.112-0.542-0.223-0.82-0.323c-0.295-0.106-0.594-0.199-0.893-0.289     c-0.184-0.055-0.359-0.126-0.547-0.176c-0.09-0.024-0.181-0.035-0.272-0.058c-0.303-0.076-0.609-0.136-0.916-0.196     c-0.284-0.057-0.568-0.117-0.854-0.159c-0.281-0.042-0.563-0.065-0.846-0.094c-0.311-0.031-0.62-0.067-0.928-0.082     c-0.262-0.012-0.526-0.006-0.789-0.008c-0.324-0.001-0.648-0.008-0.968,0.007c-0.27,0.013-0.538,0.047-0.807,0.072     c-0.309,0.03-0.619,0.052-0.926,0.098c-0.291,0.043-0.582,0.107-0.873,0.165c-0.279,0.055-0.56,0.104-0.836,0.172     c-0.299,0.075-0.595,0.17-0.891,0.26c-0.265,0.081-0.531,0.154-0.791,0.247c-0.281,0.1-0.555,0.219-0.832,0.332     c-0.275,0.113-0.55,0.222-0.819,0.348c-0.248,0.117-0.491,0.25-0.737,0.379c-0.289,0.153-0.578,0.305-0.858,0.472     c-0.076,0.046-0.155,0.081-0.231,0.128c-0.156,0.096-0.296,0.208-0.448,0.309c-0.275,0.181-0.545,0.364-0.81,0.559     c-0.226,0.167-0.444,0.343-0.661,0.52c-0.238,0.194-0.474,0.391-0.702,0.598c-0.217,0.196-0.425,0.399-0.631,0.603     c-0.21,0.208-0.415,0.42-0.615,0.639c-0.197,0.218-0.388,0.439-0.573,0.666c-0.188,0.229-0.372,0.46-0.549,0.7     c-0.172,0.232-0.337,0.468-0.497,0.708c-0.167,0.249-0.33,0.501-0.485,0.76c-0.149,0.248-0.289,0.501-0.426,0.755     c-0.14,0.261-0.276,0.524-0.403,0.793c-0.13,0.275-0.249,0.553-0.366,0.834c-0.108,0.26-0.214,0.521-0.311,0.789     c-0.112,0.309-0.208,0.622-0.302,0.938c-0.052,0.173-0.119,0.338-0.166,0.515l-3.362,12.545l-15.66-27.125     c-4.987-8.638-16.031-11.6-24.671-6.61c-8.638,4.987-11.597,16.032-6.611,24.671l23.405,40.539h89.908l-30.203-48.843     C217.41,157.086,217.298,156.947,217.199,156.797z"/>
			<path d="M410.579,152.395c-9.974,0-18.061,8.086-18.061,18.061s8.086,18.061,18.061,18.061c9.974,0,19.265-8.086,19.265-18.061     S420.554,152.395,410.579,152.395z"/>
		</g>
	</g>
</g>
<g>
	<g>
		<path d="M496.176,210.711c-1.645-0.987-1.955-3.239-0.637-4.633c2.644-2.797,4.118-6.499,4.118-10.349v-50.5    c0-3.705-1.365-7.28-3.835-10.041L455.407,89.99c-2.857-3.196-6.941-5.022-11.229-5.022h-67.186    c-4.286,0-8.371,1.827-11.229,5.022l-40.41,45.19c-2.449,2.738-3.812,6.278-3.834,9.951l-0.173,29.243    c-0.016,2.634-3.2,3.942-5.063,2.079L203.731,63.901c-3.729-3.729-9.776-3.729-13.505,0L61.551,192.578    c-3.729,3.729-3.729,9.776,0,13.505h-22.74c-17.955,0-32.509,14.555-32.509,32.509v31.305c0,9.82,4.379,18.636,11.286,24.601    c3.497,3.02,5.571,7.359,5.571,11.978v91.133c0,5.274,4.276,9.549,9.549,9.549h450.478c5.274,0,9.549-4.276,9.549-9.549v-89.204    c0-4.984,2.419-9.606,6.387-12.622c7.819-5.941,12.877-15.331,12.877-25.886v-31.305    C512.001,226.765,505.647,216.398,496.176,210.711z M157.8,206.082v0.001l-23.404-40.539c-4.987-8.639-2.028-19.685,6.611-24.671    c8.64-4.99,19.685-2.028,24.671,6.61l15.66,27.123l3.362-12.545c0.047-0.176,0.114-0.342,0.166-0.515    c0.094-0.314,0.191-0.627,0.302-0.938c0.096-0.267,0.202-0.529,0.311-0.789c0.116-0.281,0.235-0.559,0.366-0.834    c0.128-0.27,0.264-0.532,0.403-0.793c0.136-0.255,0.277-0.507,0.426-0.755c0.155-0.259,0.318-0.511,0.485-0.76    c0.16-0.24,0.325-0.476,0.497-0.708c0.177-0.238,0.361-0.471,0.549-0.7c0.185-0.226,0.376-0.448,0.573-0.666    c0.2-0.219,0.406-0.431,0.615-0.639c0.206-0.205,0.414-0.407,0.631-0.603c0.229-0.207,0.464-0.403,0.702-0.598    c0.217-0.177,0.433-0.352,0.661-0.52c0.264-0.195,0.536-0.378,0.81-0.559c0.152-0.1,0.291-0.213,0.448-0.309    c0.076-0.047,0.155-0.082,0.231-0.128c0.281-0.167,0.57-0.32,0.858-0.472c0.244-0.129,0.488-0.262,0.737-0.379    c0.269-0.126,0.544-0.235,0.819-0.348c0.277-0.114,0.553-0.234,0.832-0.332c0.26-0.093,0.527-0.166,0.791-0.247    c0.297-0.09,0.592-0.187,0.891-0.26c0.276-0.069,0.556-0.117,0.836-0.172c0.291-0.058,0.58-0.123,0.873-0.165    c0.306-0.046,0.616-0.067,0.926-0.098c0.27-0.025,0.538-0.059,0.807-0.072c0.322-0.016,0.645-0.008,0.968-0.007    c0.264,0.001,0.526-0.005,0.789,0.008c0.309,0.014,0.619,0.051,0.928,0.082c0.283,0.029,0.565,0.052,0.846,0.094    c0.284,0.042,0.568,0.102,0.854,0.159c0.307,0.06,0.613,0.12,0.916,0.196c0.09,0.023,0.182,0.034,0.272,0.058    c0.187,0.051,0.362,0.12,0.547,0.176c0.3,0.09,0.598,0.183,0.893,0.289c0.278,0.1,0.549,0.211,0.82,0.323    c0.272,0.113,0.542,0.228,0.808,0.354c0.275,0.13,0.543,0.27,0.809,0.412c0.25,0.135,0.5,0.273,0.744,0.42    c0.26,0.157,0.514,0.319,0.765,0.488c0.24,0.16,0.474,0.325,0.707,0.496c0.238,0.177,0.47,0.36,0.697,0.548    c0.228,0.187,0.45,0.377,0.669,0.577c0.218,0.197,0.427,0.401,0.635,0.609s0.412,0.418,0.609,0.638    c0.205,0.226,0.401,0.461,0.594,0.697c0.177,0.218,0.354,0.436,0.521,0.663c0.196,0.265,0.38,0.538,0.562,0.814    c0.1,0.151,0.211,0.289,0.306,0.443l30.203,48.843H157.8z M410.579,188.516c-9.974,0-18.061-8.086-18.061-18.061    s8.086-18.061,18.061-18.061c9.974,0,19.265,8.086,19.265,18.061S420.554,188.516,410.579,188.516z"/>
	</g>
</g>
<g>
	<g>
		<path d="M483.187,443.279H32.708c-5.274,0-9.549,4.276-9.549,9.549v21.756c0,17.955,14.554,32.509,32.509,32.509h404.558    c17.955,0,32.509-14.555,32.509-32.509v-21.756C492.736,447.555,488.46,443.279,483.187,443.279z"/>
	</g>
</g>
<g>
</g>
<g>
</g>
<g>
</g>
<g>
</g>
<g>
</g>
<g>
</g>
<g>
</g>
<g>
</g>
<g>
</g>
<g>
</g>
<g>
</g>
<g>
</g>
<g>
</g>
<g>
</g>
<g>
</g>
</svg>
