<?xml version="1.0" encoding="iso-8859-1"?>
<!-- Generator: Adobe Illustrator 19.0.0, SVG Export Plug-In . SVG Version: 6.00 Build 0)  -->
<svg xmlns="http://www.w3.org/2000/svg" xmlns:xlink="http://www.w3.org/1999/xlink" version="1.1" id="Layer_1" x="0px" y="0px" viewBox="0 0 512 512" style="enable-background:new 0 0 512 512;" xml:space="preserve">
<g>
	<g>
		<path d="M507.154,421.869L283.256,56.133c-5.983-9.773-16.391-15.602-27.847-15.602c-0.013,0-0.026,0-0.039,0    c-11.471,0.014-21.883,5.872-27.85,15.669L4.808,421.918c-6.003,9.859-6.408,21.884-1.082,32.166    c5.216,10.072,15.032,16.542,26.318,17.312c0.742,0.048,1.491,0.074,2.245,0.074h447.43c0.756,0,1.504-0.026,2.307-0.079    c11.238-0.767,21.059-7.249,26.268-17.338C513.612,443.754,513.186,431.723,507.154,421.869z M236.578,178.196    c0-10.382,8.417-18.8,18.8-18.8s18.8,8.417,18.8,18.8v156.663c0,10.382-8.417,18.8-18.8,18.8s-18.8-8.417-18.8-18.8V178.196z     M255.703,406.494c-10.382,0-18.8-8.417-18.8-18.8s8.417-18.8,18.8-18.8c10.382,0,18.8,8.417,18.8,18.8    C274.503,398.079,266.085,406.494,255.703,406.494z"/>
	</g>
</g>
<g>
</g>
<g>
</g>
<g>
</g>
<g>
</g>
<g>
</g>
<g>
</g>
<g>
</g>
<g>
</g>
<g>
</g>
<g>
</g>
<g>
</g>
<g>
</g>
<g>
</g>
<g>
</g>
<g>
</g>
</svg>
