<?xml version="1.0" encoding="iso-8859-1"?>
<!-- Generator: Adobe Illustrator 19.0.0, SVG Export Plug-In . SVG Version: 6.00 Build 0)  -->
<svg xmlns="http://www.w3.org/2000/svg" xmlns:xlink="http://www.w3.org/1999/xlink" version="1.1" id="Layer_1" x="0px" y="0px" viewBox="0 0 512 512" style="enable-background:new 0 0 512 512;" xml:space="preserve">
<g>
	<g>
		<path d="M123.891,259.161H34.133C15.312,259.161,0,274.472,0,293.294v165.61c0,18.821,15.312,34.133,34.133,34.133h89.758    c18.821,0,34.133-15.312,34.133-34.133v-165.61C158.025,274.472,142.713,259.161,123.891,259.161z"/>
	</g>
</g>
<g>
	<g>
		<path d="M477.867,170.667h-89.758c-18.821,0-34.133,15.312-34.133,34.133v254.104c0,18.821,15.312,34.133,34.133,34.133h89.758    c18.821,0,34.133-15.312,34.133-34.133V204.8C512,185.979,496.688,170.667,477.867,170.667z"/>
	</g>
</g>
<g>
	<g>
		<path d="M331.174,63.397L177.651,216.128c-0.425,0.422-0.664,0.996-0.664,1.595v61.36c0,2.004,2.42,3.009,3.839,1.595    L334.35,127.803c0.425-0.422,0.662-0.996,0.662-1.595V64.992C335.012,62.99,332.594,61.985,331.174,63.397z"/>
	</g>
</g>
<g>
	<g>
		<path d="M331.173,300.615L177.65,453.49c-0.425,0.422-0.662,0.996-0.662,1.595v3.818c0,14.561,9.169,27.015,22.035,31.908    c0.812,0.308,1.733,0.087,2.349-0.526L334.35,357.868c0.425-0.422,0.662-0.996,0.662-1.595v-54.063    C335.012,300.206,332.593,299.2,331.173,300.615z"/>
	</g>
</g>
<g>
	<g>
		<path d="M331.173,184.489L177.65,337.365c-0.425,0.422-0.662,0.996-0.662,1.595v56.249c0,2.004,2.42,3.009,3.839,1.595    L334.35,243.929c0.425-0.422,0.662-0.996,0.662-1.595v-56.25C335.012,184.081,332.593,183.076,331.173,184.489z"/>
	</g>
</g>
<g>
	<g>
		<path d="M314.793,21.938c-4.251-1.909-8.959-2.975-13.914-2.975h-87.506c-20.096,0-36.385,16.289-36.385,36.385v102.53    c0,2.003,2.418,3.009,3.838,1.595L315.419,25.575C316.526,24.474,316.216,22.577,314.793,21.938z"/>
	</g>
</g>
<g>
	<g>
		<path d="M331.173,414.552l-74.954,74.638c-1.422,1.417-0.419,3.847,1.589,3.847h40.821c20.094,0,36.384-16.289,36.384-36.385    v-40.505C335.012,414.144,332.593,413.138,331.173,414.552z"/>
	</g>
</g>
<g>
</g>
<g>
</g>
<g>
</g>
<g>
</g>
<g>
</g>
<g>
</g>
<g>
</g>
<g>
</g>
<g>
</g>
<g>
</g>
<g>
</g>
<g>
</g>
<g>
</g>
<g>
</g>
<g>
</g>
</svg>
