<?xml version="1.0" encoding="iso-8859-1"?>
<!-- Generator: Adobe Illustrator 19.0.0, SVG Export Plug-In . SVG Version: 6.00 Build 0)  -->
<svg xmlns="http://www.w3.org/2000/svg" xmlns:xlink="http://www.w3.org/1999/xlink" version="1.1" id="Layer_1" x="0px" y="0px" viewBox="0 0 512 512" style="enable-background:new 0 0 512 512;" xml:space="preserve">
<g>
	<g>
		<path d="M453.058,63.747l0.066-0.066l-16.589-16.586C406.165,16.726,365.787,0,322.838,0H108.704    c-0.898,0-1.804,0.117-2.714,0.291C75.438,3.257,51.475,29.078,51.475,60.397v390.136c0,33.796,27.656,62.037,61.447,61.459    c32.82-0.563,59.347-27.435,59.347-60.387V303.38c0-3.804,3.083-6.887,6.887-6.887h33.87c42.95,0,83.328-16.726,113.698-47.096    l16.587-16.586l-0.066-0.066c4.648-3.848,7.578-9.696,7.466-16.228c-0.194-11.323-9.817-20.229-21.143-20.229H179.154    c-3.804,0-6.887-3.083-6.887-6.887V107.09c0-3.804,3.083-6.887,6.887-6.887H439.38c11.324,0,20.948-8.906,21.142-20.229    C460.635,73.444,457.704,67.595,453.058,63.747z"/>
	</g>
</g>
<g>
</g>
<g>
</g>
<g>
</g>
<g>
</g>
<g>
</g>
<g>
</g>
<g>
</g>
<g>
</g>
<g>
</g>
<g>
</g>
<g>
</g>
<g>
</g>
<g>
</g>
<g>
</g>
<g>
</g>
</svg>
