<?xml version="1.0" encoding="iso-8859-1"?>
<!-- Generator: Adobe Illustrator 19.0.0, SVG Export Plug-In . SVG Version: 6.00 Build 0)  -->
<svg xmlns="http://www.w3.org/2000/svg" xmlns:xlink="http://www.w3.org/1999/xlink" version="1.1" id="Layer_1" x="0px" y="0px" viewBox="0 0 512 512" style="enable-background:new 0 0 512 512;" xml:space="preserve">
<g>
	<g>
		<path d="M452.239,140.748L362.511,15.13C355.745,5.656,344.755,0,333.111,0c-2.647,0-4.793,2.146-4.793,4.793V146.42    c0,5.392,4.369,9.761,9.759,9.761h106.219C452.235,156.18,456.852,147.207,452.239,140.748z"/>
	</g>
</g>
<g>
	<g>
		<path d="M454.283,196.923H303.532c-8.813,0-15.956-7.144-15.956-15.956V156.18V15.956C287.576,7.144,280.432,0,271.619,0H77.891    C57.938,0,41.761,16.176,41.761,36.129v439.741c0,19.953,16.176,36.129,36.129,36.129h356.219    c19.953,0,36.129-16.176,36.129-36.129V212.879C470.239,204.067,463.095,196.923,454.283,196.923z M189.114,421.008    c-11.25,0-20.371-9.121-20.371-20.371s9.121-20.371,20.371-20.371c11.25,0,20.371,9.121,20.371,20.371    S200.364,421.008,189.114,421.008z M189.114,358.536c-11.25,0-20.371-9.121-20.371-20.371c0-11.25,9.121-20.371,20.371-20.371    c11.25,0,20.371,9.121,20.371,20.371C209.485,349.415,200.364,358.536,189.114,358.536z M189.114,294.706    c-11.25,0-20.371-9.121-20.371-20.371s9.121-20.371,20.371-20.371c11.25,0,20.371,9.121,20.371,20.371    S200.364,294.706,189.114,294.706z M257.019,421.008c-11.25,0-20.371-9.121-20.371-20.371s9.121-20.371,20.371-20.371    c11.25,0,20.371,9.121,20.371,20.371S268.269,421.008,257.019,421.008z M257.019,358.536c-11.25,0-20.371-9.121-20.371-20.371    c0-11.25,9.121-20.371,20.371-20.371c11.25,0,20.371,9.121,20.371,20.371C277.39,349.415,268.269,358.536,257.019,358.536z     M257.019,294.706c-11.25,0-20.371-9.121-20.371-20.371s9.121-20.371,20.371-20.371c11.25,0,20.371,9.121,20.371,20.371    S268.269,294.706,257.019,294.706z M320.849,421.008c-11.25,0-20.371-9.121-20.371-20.371s9.121-20.371,20.371-20.371    s21.729,9.121,21.729,20.371S332.099,421.008,320.849,421.008z M320.849,358.536c-11.25,0-20.371-9.121-20.371-20.371    c0-11.25,9.121-20.371,20.371-20.371s21.729,9.121,21.729,20.371C342.578,349.415,332.099,358.536,320.849,358.536z     M320.849,294.706c-11.25,0-20.371-9.121-20.371-20.371s9.121-20.371,20.371-20.371s21.729,9.121,21.729,20.371    S332.099,294.706,320.849,294.706z"/>
	</g>
</g>
<g>
</g>
<g>
</g>
<g>
</g>
<g>
</g>
<g>
</g>
<g>
</g>
<g>
</g>
<g>
</g>
<g>
</g>
<g>
</g>
<g>
</g>
<g>
</g>
<g>
</g>
<g>
</g>
<g>
</g>
</svg>
