<?xml version="1.0" encoding="iso-8859-1"?>
<!-- Generator: Adobe Illustrator 19.0.0, SVG Export Plug-In . SVG Version: 6.00 Build 0)  -->
<svg xmlns="http://www.w3.org/2000/svg" xmlns:xlink="http://www.w3.org/1999/xlink" version="1.1" id="Layer_1" x="0px" y="0px" viewBox="0 0 512 512" style="enable-background:new 0 0 512 512;" xml:space="preserve">
<g>
	<g>
		<path d="M453.447,142.439L362.512,15.13C355.744,5.656,344.755,0,333.11,0c-1.522,0-2.756,1.234-2.756,2.756V147.49    c0,4.799,3.891,8.69,8.69,8.69h107.33C453.443,156.18,457.555,148.191,453.447,142.439z"/>
	</g>
</g>
<g>
	<g>
		<rect x="219.67" y="309.645" width="69.263" height="46.175"/>
	</g>
</g>
<g>
	<g>
		<path d="M454.901,196.923H304.95c-8.472,0-15.338-6.868-15.338-15.338V156.18V15.338c0-8.47-6.868-15.338-15.338-15.338H77.89    C57.937,0,41.761,16.176,41.761,36.129v439.741C41.761,495.825,57.935,512,77.89,512h356.22c19.953,0,36.129-16.175,36.129-36.129    V212.261C470.239,203.79,463.372,196.923,454.901,196.923z M348.689,355.82c11.25,0,20.371,9.121,20.371,20.371    s-9.121,20.371-20.371,20.371h-19.013v29.878c0,11.25-9.121,20.371-20.371,20.371c-11.25,0-20.371-9.121-20.371-20.371v-29.878    H219.67v29.878c0,11.25-9.121,20.371-20.371,20.371s-20.371-9.121-20.371-20.371v-29.878h-21.729    c-11.25,0-20.371-9.121-20.371-20.371s9.121-20.371,20.371-20.371h21.729v-46.175h-21.729c-11.25,0-20.371-9.121-20.371-20.371    s9.121-20.371,20.371-20.371h21.729v-31.236c0-11.25,9.121-20.371,20.371-20.371s20.371,9.121,20.371,20.371v31.236h69.263    v-31.236c0-11.25,9.121-20.371,20.371-20.371c11.25,0,20.371,9.121,20.371,20.371v31.236h19.013    c11.25,0,20.371,9.121,20.371,20.371s-9.121,20.371-20.371,20.371h-19.013v46.175H348.689z"/>
	</g>
</g>
<g>
</g>
<g>
</g>
<g>
</g>
<g>
</g>
<g>
</g>
<g>
</g>
<g>
</g>
<g>
</g>
<g>
</g>
<g>
</g>
<g>
</g>
<g>
</g>
<g>
</g>
<g>
</g>
<g>
</g>
</svg>
