<?xml version="1.0" encoding="iso-8859-1"?>
<!-- Generator: Adobe Illustrator 19.0.0, SVG Export Plug-In . SVG Version: 6.00 Build 0)  -->
<svg xmlns="http://www.w3.org/2000/svg" xmlns:xlink="http://www.w3.org/1999/xlink" version="1.1" id="Layer_1" x="0px" y="0px" viewBox="0 0 512.001 512.001" style="enable-background:new 0 0 512.001 512.001;" xml:space="preserve">
<g>
	<g>
		<path d="M217.439,25.426l-10.939-10.939c-8.203-8.203-19.131-12.722-30.768-12.722c-10.1,0-19.661,3.407-27.374,9.668    c-0.687-0.917-1.42-1.811-2.255-2.645c-9.439-9.441-24.745-9.441-34.186,0L97.61,23.095c-1.051-1.855-2.343-3.611-3.924-5.192    c-9.439-9.44-24.745-9.44-34.186,0L18.047,59.357c-7.774,7.774-9.935,19.798-4.725,29.482c2.305,4.285,5.565,7.276,9.205,9.341    L7.08,113.626c-9.44,9.441-9.44,24.745,0,34.186c1.022,1.022,2.121,1.91,3.265,2.711c-4.466,6.941-6.87,15.029-6.87,23.5    c0,11.637,4.517,22.563,12.722,30.768l10.939,10.939c6.64,6.64,17.406,6.64,24.046,0L217.439,49.472    C224.078,42.832,224.078,32.065,217.439,25.426z"/>
	</g>
</g>
<g>
	<g>
		<path d="M499.279,307.266l-9.856-9.856c-6.64-6.64-17.406-6.64-24.046,0L299.119,463.668c-6.64,6.64-6.64,17.406,0,24.046    l9.856,9.856c8.483,8.482,19.626,12.723,30.768,12.723c11.142,0,22.285-4.242,30.768-12.723l128.768-128.768    c8.204-8.203,12.722-19.131,12.722-30.768C512.001,326.397,507.484,315.469,499.279,307.266z"/>
	</g>
</g>
<g>
	<g>
		<path d="M431.191,239.178l-155.52-155.52c-6.64-6.64-17.406-6.64-24.046,0L85.367,249.914c-6.64,6.64-6.64,17.406,0,24.046    l155.52,155.522c6.64,6.64,17.406,6.64,24.046,0l166.258-166.258C437.831,256.584,437.831,245.817,431.191,239.178z     M332.784,326.092c-3.807,2.198-7.963,3.242-12.064,3.242c-8.354,0-16.48-4.335-20.957-12.09l-20.96-36.304l-4.082,15.234    c-0.074,0.279-0.172,0.545-0.256,0.819c-1.473,6.269-5.407,11.943-11.424,15.416c-3.806,2.198-7.963,3.242-12.064,3.242    c-8.354,0-16.48-4.335-20.957-12.09l-50.139-86.845c-6.675-11.561-2.714-26.346,8.847-33.021    c11.563-6.677,26.347-2.714,33.021,8.847l20.96,36.304l4.5-16.791c0.008-0.027,0.019-0.053,0.026-0.081    c0.201-0.741,0.437-1.473,0.707-2.193c0.124-0.329,0.276-0.64,0.411-0.961c0.172-0.406,0.335-0.815,0.532-1.21    c0.176-0.358,0.379-0.696,0.57-1.043c0.192-0.343,0.372-0.693,0.58-1.028c0.205-0.329,0.432-0.638,0.651-0.956    c0.23-0.335,0.453-0.674,0.701-0.998c0.218-0.284,0.456-0.548,0.687-0.822c0.279-0.332,0.551-0.669,0.851-0.988    c0.232-0.248,0.483-0.474,0.725-0.711c0.322-0.314,0.637-0.635,0.978-0.935c0.274-0.24,0.567-0.454,0.851-0.682    c0.332-0.264,0.653-0.538,1.001-0.788c0.48-0.343,0.981-0.653,1.484-0.959c0.172-0.105,0.33-0.226,0.506-0.327    c0.155-0.089,0.316-0.156,0.471-0.242c0.54-0.297,1.083-0.587,1.644-0.841c0.377-0.172,0.764-0.308,1.146-0.458    c0.351-0.139,0.696-0.29,1.054-0.411c0.421-0.143,0.846-0.251,1.27-0.371c0.335-0.093,0.666-0.201,1.006-0.28    c0.416-0.097,0.835-0.163,1.252-0.237c0.361-0.065,0.719-0.14,1.085-0.189c0.393-0.052,0.786-0.073,1.18-0.105    c0.395-0.032,0.788-0.076,1.188-0.089c0.38-0.013,0.759,0.005,1.138,0.011c0.409,0.006,0.817,0,1.23,0.027    c0.419,0.027,0.833,0.089,1.251,0.139c0.367,0.044,0.733,0.071,1.101,0.131c0.725,0.119,1.444,0.277,2.155,0.463    c0.058,0.016,0.118,0.023,0.177,0.037c0.068,0.018,0.131,0.045,0.198,0.065c0.698,0.193,1.389,0.413,2.068,0.667    c0.359,0.135,0.701,0.3,1.051,0.45c0.374,0.161,0.753,0.311,1.118,0.49c0.385,0.189,0.749,0.406,1.12,0.614    c0.316,0.177,0.638,0.343,0.948,0.535c0.359,0.222,0.696,0.471,1.041,0.709c0.305,0.211,0.612,0.413,0.907,0.638    c0.319,0.245,0.616,0.511,0.92,0.769c0.298,0.253,0.603,0.496,0.89,0.766c0.289,0.271,0.553,0.561,0.827,0.844    c0.274,0.284,0.556,0.556,0.817,0.856c0.298,0.342,0.569,0.703,0.848,1.059c0.206,0.264,0.425,0.516,0.624,0.791    c0.467,0.651,0.904,1.325,1.305,2.018l50.134,86.836C348.308,304.633,344.347,319.416,332.784,326.092z"/>
	</g>
</g>
<g>
</g>
<g>
</g>
<g>
</g>
<g>
</g>
<g>
</g>
<g>
</g>
<g>
</g>
<g>
</g>
<g>
</g>
<g>
</g>
<g>
</g>
<g>
</g>
<g>
</g>
<g>
</g>
<g>
</g>
</svg>
