<?xml version="1.0" encoding="iso-8859-1"?>
<!-- Generator: Adobe Illustrator 19.0.0, SVG Export Plug-In . SVG Version: 6.00 Build 0)  -->
<svg xmlns="http://www.w3.org/2000/svg" xmlns:xlink="http://www.w3.org/1999/xlink" version="1.1" id="Layer_1" x="0px" y="0px" viewBox="0 0 512 512" style="enable-background:new 0 0 512 512;" xml:space="preserve">
<g>
	<g>
		<path d="M482.277,119.378c16.388,0,29.723-13.333,29.723-29.723V44.313c0-16.389-13.335-29.723-29.723-29.723H29.723    C13.335,14.591,0,27.924,0,44.313v45.344c0,16.388,13.335,29.721,29.723,29.721h6.091v80.912h-6.091    C13.335,200.29,0,213.623,0,230.013v45.344c0,16.388,13.335,29.721,29.723,29.721h6.091v87.544h-6.091    C13.335,392.622,0,405.955,0,422.344v45.344c0,16.388,13.335,29.721,29.723,29.721h452.555c16.388,0,29.723-13.333,29.723-29.722    v-45.344c0-16.388-13.335-29.721-29.723-29.721h-3.438v-87.544h3.438c16.388,0,29.723-13.333,29.723-29.723v-45.344    c0-16.388-13.335-29.721-29.723-29.721h-3.438v-80.912H482.277z M198.964,392.622h-45.098v-87.544h45.098V392.622z     M198.964,200.29h-45.098v-80.912h45.098V200.29z M360.788,392.622h-43.772v-87.544h43.772V392.622z M360.788,200.29h-43.772    v-80.912h43.772V200.29z"/>
	</g>
</g>
<g>
</g>
<g>
</g>
<g>
</g>
<g>
</g>
<g>
</g>
<g>
</g>
<g>
</g>
<g>
</g>
<g>
</g>
<g>
</g>
<g>
</g>
<g>
</g>
<g>
</g>
<g>
</g>
<g>
</g>
</svg>
