<?xml version="1.0" encoding="iso-8859-1"?>
<!-- Generator: Adobe Illustrator 19.0.0, SVG Export Plug-In . SVG Version: 6.00 Build 0)  -->
<svg xmlns="http://www.w3.org/2000/svg" xmlns:xlink="http://www.w3.org/1999/xlink" version="1.1" id="Layer_1" x="0px" y="0px" viewBox="0 0 511.999 511.999" style="enable-background:new 0 0 511.999 511.999;" xml:space="preserve">
<g>
	<g>
		<path d="M469.147,199.705h-35.352v-55.063c23.339-7.298,40.325-29.117,40.325-54.829c0-31.668-25.764-57.432-57.432-57.432    s-57.432,25.764-57.432,57.432c0,24.806,15.81,45.985,37.881,54.001v55.891h-72.095v-32.909c0-18.193-14.8-32.993-32.993-32.993    H96.535c-18.193,0-32.993,14.8-32.993,32.993v32.909H42.853C19.224,199.705,0,218.929,0,242.558v194.207    c0,23.629,19.224,42.853,42.853,42.853h426.293c23.629,0,42.853-19.224,42.853-42.853V242.558    C512,218.929,492.776,199.705,469.147,199.705z M249.279,383.699c0,21.895-17.814,39.709-39.709,39.709H100.807    c-21.895,0-39.709-17.814-39.709-39.709V296.93c0-21.895,17.814-39.709,39.709-39.709H209.57    c21.895,0,39.709,17.814,39.709,39.709V383.699z M306.711,416.076c-10.123,0-18.329-8.207-18.329-18.329    s8.207-18.329,18.329-18.329s18.329,8.207,18.329,18.329S316.834,416.076,306.711,416.076z M306.711,359.866    c-10.123,0-18.329-8.207-18.329-18.329s8.207-18.329,18.329-18.329s18.329,8.207,18.329,18.329S316.834,359.866,306.711,359.866z     M306.711,302.434c-10.123,0-18.329-8.207-18.329-18.329s8.207-18.329,18.329-18.329s18.329,8.207,18.329,18.329    S316.834,302.434,306.711,302.434z M367.809,416.076c-10.123,0-18.329-8.207-18.329-18.329s8.207-18.329,18.329-18.329    s18.329,8.207,18.329,18.329S377.932,416.076,367.809,416.076z M367.809,359.866c-10.123,0-18.329-8.207-18.329-18.329    s8.207-18.329,18.329-18.329s18.329,8.207,18.329,18.329S377.932,359.866,367.809,359.866z M367.809,302.434    c-10.123,0-18.329-8.207-18.329-18.329s8.207-18.329,18.329-18.329s18.329,8.207,18.329,18.329S377.932,302.434,367.809,302.434z     M425.241,416.076c-10.123,0-18.329-8.207-18.329-18.329s8.207-18.329,18.329-18.329s19.551,8.207,19.551,18.329    S435.364,416.076,425.241,416.076z M425.241,359.866c-10.123,0-18.329-8.207-18.329-18.329s8.207-18.329,18.329-18.329    s19.551,8.207,19.551,18.329S435.364,359.866,425.241,359.866z M425.241,302.434c-10.123,0-18.329-8.207-18.329-18.329    s8.207-18.329,18.329-18.329s19.551,8.207,19.551,18.329S435.364,302.434,425.241,302.434z"/>
	</g>
</g>
<g>
</g>
<g>
</g>
<g>
</g>
<g>
</g>
<g>
</g>
<g>
</g>
<g>
</g>
<g>
</g>
<g>
</g>
<g>
</g>
<g>
</g>
<g>
</g>
<g>
</g>
<g>
</g>
<g>
</g>
</svg>
