<?xml version="1.0" encoding="iso-8859-1"?>
<!-- Generator: Adobe Illustrator 19.0.0, SVG Export Plug-In . SVG Version: 6.00 Build 0)  -->
<svg xmlns="http://www.w3.org/2000/svg" xmlns:xlink="http://www.w3.org/1999/xlink" version="1.1" id="Layer_1" x="0px" y="0px" viewBox="0 0 512 512" style="enable-background:new 0 0 512 512;" xml:space="preserve">
<g>
	<g>
		<path d="M454.235,143.542L362.512,15.13C355.745,5.656,344.755,0,333.111,0c-1.522,0-2.756,1.234-2.756,2.756v138.173    c0,8.423,6.828,15.251,15.25,15.251h102.126C454.232,156.18,458.013,148.833,454.235,143.542z"/>
	</g>
</g>
<g>
	<g>
		<path d="M224.424,253.963c-19.844,0-35.989,16.145-35.989,35.989s16.145,35.989,35.989,35.989s35.989-16.145,35.989-35.989    S244.269,253.963,224.424,253.963z"/>
	</g>
</g>
<g>
	<g>
		<path d="M214.239,377.549c-12.731,0-23.088,10.357-23.088,23.088s10.357,23.088,23.088,23.088s23.088-10.357,23.088-23.088    S226.969,377.549,214.239,377.549z"/>
	</g>
</g>
<g>
	<g>
		<path d="M443.241,196.923H316.61c-14.91,0-26.997-12.087-26.997-26.997V156.18V0H77.891C57.936,0,41.761,16.175,41.761,36.129    v439.741c0,19.953,16.176,36.129,36.129,36.129h356.219c19.953,0,36.129-16.175,36.129-36.129v-251.95    C470.239,209.01,458.152,196.923,443.241,196.923z M312.7,423.724c-13.153,0-25.466-3.655-35.987-9.994    c-6.057,28.937-31.766,50.737-62.475,50.737c-35.196,0-63.83-28.634-63.83-63.83c0-20.905,10.103-39.496,25.681-51.146    c-17.312-14.081-28.398-35.536-28.398-59.539c0-42.31,34.422-76.732,76.732-76.732c40.592,0,73.903,31.688,76.543,71.624    c3.818-0.648,7.733-1.004,11.733-1.004c38.566,0,69.942,31.376,69.942,69.942C382.642,392.348,351.266,423.724,312.7,423.724z"/>
	</g>
</g>
<g>
	<g>
		<path d="M312.7,324.584c-16.1,0-29.199,13.099-29.199,29.199s13.099,29.199,29.199,29.199s29.199-13.099,29.199-29.199    C341.899,337.682,328.8,324.584,312.7,324.584z"/>
	</g>
</g>
<g>
</g>
<g>
</g>
<g>
</g>
<g>
</g>
<g>
</g>
<g>
</g>
<g>
</g>
<g>
</g>
<g>
</g>
<g>
</g>
<g>
</g>
<g>
</g>
<g>
</g>
<g>
</g>
<g>
</g>
</svg>
