<?xml version="1.0" encoding="iso-8859-1"?>
<!-- Generator: Adobe Illustrator 19.0.0, SVG Export Plug-In . SVG Version: 6.00 Build 0)  -->
<svg xmlns="http://www.w3.org/2000/svg" xmlns:xlink="http://www.w3.org/1999/xlink" version="1.1" id="Layer_1" x="0px" y="0px" viewBox="0 0 512 512" style="enable-background:new 0 0 512 512;" xml:space="preserve">
<g>
	<g>
		<path d="M333.802,395.369l-101.41,101.41c-5.596,5.596-1.638,15.165,6.277,15.173L292.03,512    c33.537,0,60.725-27.187,60.725-60.725v-48.055C352.755,393.329,340.796,388.376,333.802,395.369z"/>
	</g>
</g>
<g>
	<g>
		<path d="M334.049,273.28L169.271,428.156c-6.399,6.015-10.028,14.406-10.028,23.188c0,12.143,3.591,23.461,9.764,32.953    c3.831,5.891,12.156,6.698,17.126,1.729L339.22,332.94c8.668-8.666,13.536-20.422,13.536-32.679v-18.89    C352.755,271.644,341.136,266.619,334.049,273.28z"/>
	</g>
</g>
<g>
	<g>
		<path d="M440.309,120.945H270.781c-11.435,0-20.647-9.522-20.137-21.07c0.48-10.878,9.88-19.245,20.769-19.245h168.893    c9.536,0,17.267-7.731,17.267-17.267v-2.638C457.574,27.187,430.387,0,396.849,0H115.15C81.612,0,54.424,27.187,54.424,60.725    v82.814c0,33.537,27.187,60.724,60.725,60.724h47.62c-2.276,6.381-3.526,13.247-3.526,20.41v136.79    c0,7.887,9.422,11.961,15.169,6.561L345.222,207.48c1.224-1.226,2.577-2.237,4.003-3.08c0.028-0.016,0.04-0.05,0.03-0.081    c-0.007-0.019-0.015-0.038-0.021-0.056h47.617c33.537,0,60.725-27.187,60.725-60.725v-5.326    C457.576,128.676,449.844,120.945,440.309,120.945z"/>
	</g>
</g>
<g>
</g>
<g>
</g>
<g>
</g>
<g>
</g>
<g>
</g>
<g>
</g>
<g>
</g>
<g>
</g>
<g>
</g>
<g>
</g>
<g>
</g>
<g>
</g>
<g>
</g>
<g>
</g>
<g>
</g>
</svg>
