<?xml version="1.0" encoding="iso-8859-1"?>
<!-- Generator: Adobe Illustrator 19.0.0, SVG Export Plug-In . SVG Version: 6.00 Build 0)  -->
<svg version="1.1" id="Layer_1" xmlns="http://www.w3.org/2000/svg" xmlns:xlink="http://www.w3.org/1999/xlink" x="0px" y="0px"
	 viewBox="0 0 512.001 512.001" style="enable-background:new 0 0 512.001 512.001;" xml:space="preserve">
<g>
	<g>
		<path d="M329.629,339.863c-40.738,0-79.684-15.206-109.669-42.817c-2.25-2.072-4.424-4.202-6.54-6.378l-12.009,57.045h-35.462
			l19.996-94.982c-10.86-20.832-17.09-43.977-18.086-68.147c-0.252-6.122-0.152-12.204,0.267-18.23H17.075v202.424h359.131v-35.73
			C361.153,337.569,345.556,339.863,329.629,339.863z M132.319,331.016l-44.857-44.858l44.857-44.857l24.537,24.537l-20.32,20.32
			l20.321,20.321L132.319,331.016z"/>
	</g>
</g>
<g>
	<g>
		<path d="M0,403.481v11.567c0,25.512,20.756,46.268,46.268,46.268h300.744c25.512,0,46.268-20.756,46.268-46.268v-11.567H0z"/>
	</g>
</g>
<g>
	<g>
		<path d="M499.338,286.257l-28.643-28.643c-6.063,10.682-13.383,20.751-21.91,30.013c-11.579,12.571-24.797,23.059-39.443,31.321
			l28.653,28.653c8.457,8.456,19.565,12.683,30.672,12.683s22.216-4.228,30.672-12.683c8.165-8.166,12.662-19.059,12.662-30.672
			S507.503,294.422,499.338,286.257z"/>
	</g>
</g>
<g>
	<g>
		<path d="M415.856,84.328c-24.454-22.521-55.346-33.645-86.161-33.643c-34.321,0.002-68.545,13.809-93.628,41.045
			c-47.603,51.691-44.289,132.186,7.402,179.79c24.455,22.52,55.346,33.642,86.161,33.642c34.321,0,68.545-13.808,93.627-41.043
			C470.861,212.426,467.547,131.932,415.856,84.328z M385.53,241.794h-0.002H273.745l0.025-75.63l9.758-0.05l0.113-28.664
			c0.068-12.373,4.961-23.977,13.779-32.7s20.424-13.464,32.823-13.422c12.348,0.068,23.951,4.961,32.674,13.779
			s13.49,20.474,13.422,32.822l-34.701-0.19c0.017-3.078-1.187-6.001-3.391-8.229c-2.204-2.228-5.113-3.463-8.193-3.481
			c-3.074,0.014-6.001,1.187-8.229,3.391c-2.228,2.203-3.464,5.114-3.481,8.193l-0.113,28.663l67.299,0.038V241.794z"/>
	</g>
</g>
<g>
</g>
<g>
</g>
<g>
</g>
<g>
</g>
<g>
</g>
<g>
</g>
<g>
</g>
<g>
</g>
<g>
</g>
<g>
</g>
<g>
</g>
<g>
</g>
<g>
</g>
<g>
</g>
<g>
</g>
</svg>
