<?xml version="1.0" encoding="iso-8859-1"?>
<!-- Generator: Adobe Illustrator 19.0.0, SVG Export Plug-In . SVG Version: 6.00 Build 0)  -->
<svg version="1.1" id="Layer_1" xmlns="http://www.w3.org/2000/svg" xmlns:xlink="http://www.w3.org/1999/xlink" x="0px" y="0px"
	 viewBox="0 0 512 512" style="enable-background:new 0 0 512 512;" xml:space="preserve">
<g>
	<g>
		<path d="M438.356,385.753h-81.301l-145.07-96.713c0.7-2.763,1.212-5.598,1.535-8.492h84.961
			c2.428,21.863,16.061,40.389,35.018,49.689c8.37,4.106,17.773,6.42,27.707,6.42c34.806,0,63.123-28.317,63.123-63.123
			c0-34.806-28.317-63.123-63.123-63.123c-5.809,0-11.427,0.804-16.771,2.279l-34.503-44.362h44.261
			c34.806,0,63.123-28.317,63.123-63.123V63.123C417.315,28.317,388.998,0,354.192,0H157.808c-34.806,0-63.123,28.317-63.123,63.123
			v42.082c0,34.806,28.317,63.123,63.123,63.123h98.81l53.279,68.501c-0.389,0.543-0.779,1.082-1.15,1.636h-11.357h-94.139
			c-11.338-16.904-30.618-28.055-52.457-28.055c-34.806,0-63.123,28.317-63.123,63.123c0,34.806,28.317,63.123,63.123,63.123
			c14.176,0,27.275-4.699,37.825-12.619l92.572,61.715H73.644c-34.718,0-63.123,28.406-63.123,63.123
			c0,34.718,28.405,63.123,63.123,63.123h364.712c34.718,0,63.123-28.405,63.123-63.123
			C501.479,414.159,473.074,385.753,438.356,385.753z M192.877,105.206c-11.62,0-21.041-9.421-21.041-21.041
			s9.421-21.041,21.041-21.041s21.041,9.421,21.041,21.041S204.497,105.206,192.877,105.206z M298.082,84.164
			c0-11.62,9.421-21.041,21.041-21.041s21.041,9.421,21.041,21.041s-9.421,21.041-21.041,21.041S298.082,95.785,298.082,84.164z
			 M122.74,469.918c-11.62,0-21.041-9.421-21.041-21.041s9.421-21.041,21.041-21.041s21.041,9.421,21.041,21.041
			S134.36,469.918,122.74,469.918z M211.579,469.918c-11.62,0-21.041-9.421-21.041-21.041s9.421-21.041,21.041-21.041
			c11.62,0,21.041,9.421,21.041,21.041S223.2,469.918,211.579,469.918z M300.421,469.918c-11.62,0-21.041-9.421-21.041-21.041
			s9.421-21.041,21.041-21.041s21.041,9.421,21.041,21.041S312.041,469.918,300.421,469.918z M389.26,469.918
			c-11.62,0-21.041-9.421-21.041-21.041s9.421-21.041,21.041-21.041c11.62,0,21.041,9.421,21.041,21.041
			S400.881,469.918,389.26,469.918z"/>
	</g>
</g>
<g>
</g>
<g>
</g>
<g>
</g>
<g>
</g>
<g>
</g>
<g>
</g>
<g>
</g>
<g>
</g>
<g>
</g>
<g>
</g>
<g>
</g>
<g>
</g>
<g>
</g>
<g>
</g>
<g>
</g>
</svg>
