<?xml version="1.0" encoding="iso-8859-1"?>
<!-- Generator: Adobe Illustrator 19.0.0, SVG Export Plug-In . SVG Version: 6.00 Build 0)  -->
<svg version="1.1" id="Layer_1" xmlns="http://www.w3.org/2000/svg" xmlns:xlink="http://www.w3.org/1999/xlink" x="0px" y="0px"
	 viewBox="0 0 512 512" style="enable-background:new 0 0 512 512;" xml:space="preserve">
<g>
	<g>
		<path d="M212.28,341.333c-18.097,0-32.82,14.723-32.82,32.82s14.723,32.82,32.82,32.82s32.82-14.723,32.82-32.82
			S230.378,341.333,212.28,341.333z"/>
	</g>
</g>
<g>
	<g>
		<path d="M333.827,236.308c-1.754-3.037-4.584-5.209-7.971-6.116c-1.13-0.303-2.278-0.453-3.419-0.453
			c-2.274,0-4.519,0.596-6.54,1.764h-0.003c-3.037,1.754-5.209,4.584-6.115,7.971c-0.907,3.386-0.442,6.924,1.311,9.962
			c1.754,3.038,4.583,5.209,7.97,6.116c3.39,0.911,6.925,0.442,9.962-1.311C335.29,250.621,337.446,242.576,333.827,236.308z"/>
	</g>
</g>
<g>
	<g>
		<polygon points="369.182,0 367.59,0 367.59,91.897 459.487,91.897 459.487,90.305 		"/>
	</g>
</g>
<g>
	<g>
		<path d="M328.205,131.282V0H52.513v512h406.974V131.282H328.205z M284.486,374.154c0,6.099-0.768,12.02-2.198,17.68l19.424,11.215
			l-19.692,34.107l-19.47-11.242c-8.462,8.221-18.922,14.382-30.577,17.693v22.444h-39.385v-22.444
			c-11.655-3.31-22.114-9.472-30.577-17.693l-19.469,11.242l-19.692-34.107l19.423-11.214c-1.43-5.661-2.198-11.582-2.198-17.681
			s0.768-12.02,2.198-17.681l-19.423-11.214l19.692-34.107l19.469,11.242c8.462-8.22,18.922-14.382,30.577-17.693v-22.444h39.385
			V304.7c11.655,3.31,22.114,9.473,30.577,17.693l19.47-11.242l19.692,34.107l-19.424,11.215
			C283.718,362.134,284.486,368.056,284.486,374.154z M374.428,250.138l14.722,8.501l-19.692,34.107l-14.696-8.485
			c-1.896,1.478-3.908,2.851-6.047,4.087c-2.129,1.231-4.324,2.291-6.564,3.202v16.963h-39.385v-16.969
			c-4.567-1.837-8.814-4.28-12.64-7.266l-14.669,8.469l-19.692-34.107l14.671-8.469c-0.675-4.808-0.668-9.706,0.025-14.579
			l-14.694-8.485l19.692-34.107l14.688,8.479c1.909-1.482,3.925-2.853,6.055-4.082c2.131-1.231,4.326-2.292,6.565-3.202v-16.964
			h39.383V194.2c4.567,1.837,8.813,4.28,12.639,7.266l14.669-8.469l19.692,34.107l-14.7,8.487
			C375.125,240.454,375.104,245.349,374.428,250.138z"/>
	</g>
</g>
<g>
</g>
<g>
</g>
<g>
</g>
<g>
</g>
<g>
</g>
<g>
</g>
<g>
</g>
<g>
</g>
<g>
</g>
<g>
</g>
<g>
</g>
<g>
</g>
<g>
</g>
<g>
</g>
<g>
</g>
</svg>
