<?xml version="1.0" encoding="iso-8859-1"?>
<!-- Generator: Adobe Illustrator 19.0.0, SVG Export Plug-In . SVG Version: 6.00 Build 0)  -->
<svg version="1.1" id="Layer_1" xmlns="http://www.w3.org/2000/svg" xmlns:xlink="http://www.w3.org/1999/xlink" x="0px" y="0px"
	 viewBox="0 0 512 512" style="enable-background:new 0 0 512 512;" xml:space="preserve">
<g>
	<g>
		<polygon points="369.182,0 367.59,0 367.59,91.897 459.487,91.897 459.487,90.305 		"/>
	</g>
</g>
<g>
	<g>
		<path d="M328.205,131.282V0H52.513v512h406.974V131.282H328.205z M211.927,277.902c-1.536,3.742-3.889,7.139-6.995,10.099
			c-3.059,2.921-6.596,5.406-10.513,7.391c-3.893,1.968-8.121,3.488-12.565,4.517c-4.445,1.028-8.835,1.55-13.047,1.55
			c-7.425,0-14.319-1.505-20.488-4.471c-6.147-2.956-11.521-6.928-15.977-11.809c-4.453-4.872-7.947-10.48-10.384-16.669
			c-2.438-6.186-3.675-12.562-3.675-18.952c0-6.112,1.166-12.211,3.466-18.122c2.303-5.919,5.708-11.302,10.123-15.999
			c4.416-4.699,9.84-8.553,16.119-11.458c6.305-2.917,13.588-4.397,21.642-4.397c9.647,0,18.142,2.028,25.25,6.028
			c7.129,4.015,12.52,9.41,16.024,16.037l0.538,1.016l-22.855,16.261l-0.608-1.578c-0.851-2.212-1.985-4.058-3.37-5.486
			c-1.406-1.449-2.98-2.613-4.676-3.462c-1.726-0.86-3.535-1.47-5.375-1.813c-5.824-1.082-11.005-0.494-14.849,1.587
			c-2.616,1.413-4.789,3.281-6.46,5.551c-1.691,2.299-2.967,4.94-3.791,7.849c-0.836,2.945-1.259,5.908-1.259,8.809
			c0.001,3.257,0.49,6.413,1.453,9.387c0.956,2.956,2.363,5.598,4.184,7.852c1.804,2.233,4.049,4.042,6.672,5.375
			c3.982,2.026,8.955,2.53,14.224,1.402c1.799-0.385,3.559-1.037,5.237-1.94c1.655-0.891,3.167-2.057,4.49-3.466
			c1.298-1.382,2.343-3.113,3.105-5.145l0.553-1.472l24.237,14.48L211.927,277.902z M295.47,284.849
			c-2.253,4.167-5.27,7.546-8.967,10.044c-3.654,2.468-7.834,4.272-12.424,5.358c-4.546,1.076-9.17,1.621-13.744,1.621
			c-3.626,0-7.399-0.284-11.217-0.843c-3.814-0.558-7.646-1.356-11.389-2.376c-3.739-1.013-7.404-2.236-10.894-3.631
			c-3.499-1.398-6.783-3.006-9.763-4.777l-1.042-0.62l12.757-25.968l1.234,0.776c3.152,1.982,6.483,3.761,9.9,5.288
			c2.89,1.354,6.189,2.584,9.83,3.661c3.583,1.062,7.284,1.6,10.999,1.6c3.31,0,4.763-0.515,5.397-0.945
			c0.793-0.54,1.147-1.162,1.147-2.015c0.001-0.986-0.398-1.783-1.255-2.502c-1.024-0.86-2.492-1.642-4.36-2.324
			c-1.999-0.725-4.311-1.456-6.867-2.174c-2.635-0.739-5.465-1.628-8.411-2.643c-4.363-1.484-8.188-3.113-11.366-4.843
			c-3.233-1.758-5.942-3.793-8.05-6.044c-2.136-2.28-3.739-4.918-4.76-7.839c-1.01-2.883-1.522-6.229-1.522-9.946
			c0-5.597,1.04-10.61,3.092-14.903c2.051-4.292,4.884-7.922,8.422-10.791c3.505-2.844,7.566-5.031,12.067-6.5
			c4.478-1.46,9.275-2.202,14.26-2.202c3.659,0,7.272,0.356,10.739,1.059c3.428,0.696,6.796,1.591,10.009,2.66
			c3.195,1.067,6.228,2.242,9.015,3.495c2.736,1.23,5.257,2.421,7.492,3.537l1.195,0.597l-12.841,24.614l-1.195-0.717
			c-2.679-1.608-5.505-3.067-8.398-4.335c-2.425-1.079-5.183-2.106-8.205-3.051c-2.939-0.922-5.845-1.389-8.636-1.389
			c-2.165,0-3.887,0.322-5.119,0.957c-0.986,0.511-1.426,1.297-1.426,2.555c0,0.933,0.28,1.667,0.856,2.242
			c0.71,0.71,1.781,1.384,3.185,2.001c1.52,0.67,3.387,1.322,5.551,1.938c2.229,0.637,4.818,1.43,7.694,2.357
			c4.511,1.382,8.67,2.932,12.339,4.604c3.727,1.699,6.966,3.74,9.624,6.065c2.714,2.378,4.823,5.295,6.27,8.672
			c1.443,3.367,2.174,7.483,2.174,12.233C298.867,275.478,297.724,280.674,295.47,284.849z M384.655,284.849
			c-2.253,4.167-5.27,7.546-8.967,10.044c-3.654,2.468-7.834,4.272-12.424,5.358c-4.546,1.077-9.17,1.621-13.744,1.621
			c-3.626,0-7.4-0.284-11.217-0.843c-3.814-0.558-7.646-1.356-11.39-2.376c-3.738-1.012-7.403-2.234-10.894-3.631
			c-3.5-1.399-6.785-3.006-9.765-4.777l-1.042-0.62l12.755-25.968l1.234,0.776c3.152,1.982,6.483,3.761,9.901,5.288
			c2.884,1.352,6.185,2.582,9.829,3.661c3.584,1.062,7.286,1.6,11,1.6c3.31,0,4.763-0.515,5.397-0.945
			c0.793-0.54,1.147-1.162,1.147-2.015c0-0.992-0.399-1.789-1.255-2.509c-1.024-0.86-2.492-1.642-4.36-2.324
			c-2.001-0.725-4.313-1.456-6.867-2.174c-2.644-0.742-5.473-1.63-8.41-2.643c-4.364-1.483-8.191-3.114-11.368-4.843
			c-3.232-1.758-5.941-3.793-8.05-6.044c-2.136-2.28-3.738-4.918-4.759-7.839c-1.011-2.883-1.522-6.229-1.522-9.946
			c0-5.595,1.041-10.609,3.092-14.903c2.051-4.292,4.884-7.922,8.422-10.791c3.505-2.836,7.565-5.023,12.069-6.493
			c4.477-1.46,9.274-2.202,14.26-2.202c3.659,0,7.272,0.356,10.739,1.06c3.428,0.696,6.796,1.591,10.009,2.66
			c3.195,1.067,6.228,2.242,9.015,3.495c2.736,1.23,5.257,2.421,7.492,3.537l1.195,0.597l-12.841,24.614l-1.195-0.717
			c-2.679-1.608-5.505-3.067-8.398-4.335c-2.425-1.079-5.183-2.106-8.205-3.051c-2.939-0.922-5.845-1.389-8.636-1.389
			c-2.165,0-3.887,0.322-5.117,0.957c-0.987,0.511-1.427,1.298-1.427,2.555c0,0.932,0.28,1.667,0.856,2.242
			c0.71,0.71,1.781,1.385,3.185,2.001c1.519,0.669,3.386,1.322,5.551,1.938c2.229,0.637,4.818,1.43,7.694,2.357
			c4.511,1.382,8.67,2.932,12.339,4.604c3.727,1.699,6.966,3.74,9.624,6.065c2.714,2.378,4.823,5.295,6.27,8.672
			c1.443,3.367,2.174,7.483,2.174,12.233C388.053,275.478,386.909,280.674,384.655,284.849z"/>
	</g>
</g>
<g>
</g>
<g>
</g>
<g>
</g>
<g>
</g>
<g>
</g>
<g>
</g>
<g>
</g>
<g>
</g>
<g>
</g>
<g>
</g>
<g>
</g>
<g>
</g>
<g>
</g>
<g>
</g>
<g>
</g>
</svg>
