<?xml version="1.0" encoding="iso-8859-1"?>
<!-- Generator: Adobe Illustrator 19.0.0, SVG Export Plug-In . SVG Version: 6.00 Build 0)  -->
<svg version="1.1" id="Layer_1" xmlns="http://www.w3.org/2000/svg" xmlns:xlink="http://www.w3.org/1999/xlink" x="0px" y="0px"
	 viewBox="0 0 512 512" style="enable-background:new 0 0 512 512;" xml:space="preserve">
<g>
	<g>
		<path d="M256,215.579c-18.573,0-33.684,15.111-33.684,33.684s15.111,33.684,33.684,33.684s33.684-15.111,33.684-33.684
			S274.573,215.579,256,215.579z"/>
	</g>
</g>
<g>
	<g>
		<path d="M94.316,0v404.211h323.368V0H94.316z M256,47.158c11.162,0,20.211,9.049,20.211,20.211
			c0,11.162-9.049,20.211-20.211,20.211c-11.162,0-20.211-9.049-20.211-20.211C235.789,56.207,244.838,47.158,256,47.158z
			 M327.575,313.923l-19.983-11.538c-8.684,8.437-19.421,14.76-31.382,18.157v23.036h-40.421v-23.036
			c-11.962-3.397-22.698-9.72-31.382-18.157l-19.983,11.538l-20.211-35.005l19.936-11.509c-1.469-5.81-2.256-11.887-2.256-18.146
			c0-6.26,0.787-12.337,2.255-18.146l-19.936-11.509l20.211-35.005l19.983,11.537c8.684-8.437,19.42-14.76,31.382-18.157v-23.036
			h40.421v23.036c11.961,3.397,22.698,9.72,31.382,18.157l19.983-11.537l20.211,35.005l-19.936,11.509
			c1.469,5.81,2.256,11.887,2.256,18.146c0,6.26-0.787,12.336-2.255,18.146l19.936,11.509L327.575,313.923z"/>
	</g>
</g>
<g>
	<g>
		<rect x="94.316" y="444.632" width="323.368" height="67.368"/>
	</g>
</g>
<g>
</g>
<g>
</g>
<g>
</g>
<g>
</g>
<g>
</g>
<g>
</g>
<g>
</g>
<g>
</g>
<g>
</g>
<g>
</g>
<g>
</g>
<g>
</g>
<g>
</g>
<g>
</g>
<g>
</g>
</svg>
