<?xml version="1.0" encoding="iso-8859-1"?>
<!-- Generator: Adobe Illustrator 19.0.0, SVG Export Plug-In . SVG Version: 6.00 Build 0)  -->
<svg version="1.1" id="Layer_1" xmlns="http://www.w3.org/2000/svg" xmlns:xlink="http://www.w3.org/1999/xlink" x="0px" y="0px"
	 viewBox="0 0 512 512" style="enable-background:new 0 0 512 512;" xml:space="preserve">
<g>
	<g>
		<path d="M295.464,252.66c-1.192-2.092-2.628-3.111-4.387-3.111c-1.898,0-3.401,1.018-4.592,3.111
			c-1.294,2.272-1.95,5.32-1.95,9.062c0,3.741,0.655,6.771,1.946,9.005c1.191,2.064,2.695,3.068,4.597,3.068
			c1.762,0,3.199-1.004,4.392-3.066c1.291-2.238,1.946-5.268,1.946-9.005C297.414,257.984,296.757,254.935,295.464,252.66z"/>
	</g>
</g>
<g>
	<g>
		<path d="M362.741,179.387c-1.192-2.092-2.628-3.111-4.387-3.111c-1.898,0-3.401,1.018-4.592,3.111
			c-1.294,2.272-1.95,5.32-1.95,9.062c0,3.741,0.655,6.771,1.946,9.006c1.191,2.064,2.695,3.067,4.597,3.067
			c1.762,0,3.199-1.004,4.392-3.066c1.291-2.238,1.946-5.268,1.946-9.005C364.691,184.711,364.034,181.662,362.741,179.387z"/>
	</g>
</g>
<g>
	<g>
		<path d="M154.051,252.66c-1.192-2.092-2.628-3.111-4.387-3.111c-1.898,0-3.401,1.018-4.592,3.111
			c-1.294,2.272-1.95,5.32-1.95,9.062c0,3.741,0.655,6.771,1.946,9.005c1.191,2.064,2.695,3.068,4.597,3.068
			c1.762,0,3.199-1.004,4.392-3.066c1.291-2.238,1.946-5.268,1.946-9.005C156.001,257.984,155.344,254.935,154.051,252.66z"/>
	</g>
</g>
<g>
	<g>
		<path d="M154.051,179.387c-1.192-2.092-2.628-3.111-4.387-3.111c-1.898,0-3.401,1.018-4.592,3.111
			c-1.294,2.272-1.95,5.32-1.95,9.062c0,3.741,0.655,6.771,1.946,9.006c1.191,2.064,2.695,3.067,4.597,3.067
			c1.762,0,3.199-1.004,4.392-3.066c1.291-2.238,1.946-5.268,1.946-9.005C156.001,184.711,155.344,181.662,154.051,179.387z"/>
	</g>
</g>
<g>
	<g>
		<path d="M22.756,73.956v273.067h466.489V73.956H22.756z M175.822,274.55c-1.407,3.906-3.392,7.335-5.898,10.194
			c-2.517,2.871-5.538,5.137-8.978,6.733c-3.447,1.599-7.243,2.41-11.282,2.41c-4.04,0-7.836-0.81-11.282-2.41
			c-3.441-1.595-6.461-3.862-8.978-6.733c-2.508-2.859-4.492-6.29-5.898-10.194c-1.403-3.89-2.115-8.207-2.115-12.827
			s0.711-8.936,2.115-12.827c1.406-3.906,3.392-7.335,5.898-10.193c2.512-2.868,5.53-5.15,8.969-6.78
			c3.451-1.636,7.25-2.466,11.291-2.466c4.04,0,7.839,0.829,11.29,2.464c3.438,1.633,6.457,3.914,8.969,6.781
			c2.505,2.858,4.49,6.288,5.898,10.194c1.404,3.896,2.116,8.211,2.116,12.827S177.226,270.653,175.822,274.55z M175.822,201.277
			c-1.407,3.906-3.392,7.335-5.898,10.194c-2.517,2.871-5.538,5.137-8.978,6.733c-3.447,1.599-7.243,2.41-11.282,2.41
			c-4.04,0-7.836-0.81-11.282-2.41c-3.441-1.595-6.461-3.862-8.978-6.733c-2.508-2.859-4.492-6.29-5.898-10.194
			c-1.403-3.89-2.115-8.207-2.115-12.827c0-4.62,0.711-8.936,2.115-12.827c1.406-3.906,3.392-7.335,5.898-10.193
			c2.512-2.868,5.53-5.15,8.969-6.78c3.451-1.636,7.25-2.466,11.291-2.466c4.04,0,7.839,0.829,11.29,2.464
			c3.438,1.633,6.457,3.914,8.969,6.781c2.505,2.858,4.49,6.288,5.898,10.194c1.404,3.896,2.116,8.211,2.116,12.827
			S177.226,197.381,175.822,201.277z M247.059,292.864h-0.001h-49.687V273.18h14.54v-16.615c-0.352,0.255-0.732,0.506-1.14,0.754
			c-1.336,0.809-2.849,1.576-4.496,2.276c-1.649,0.702-3.343,1.272-5.034,1.695c-1.718,0.43-3.293,0.649-4.677,0.649h-1.138v-20.093
			h1.138c0.548,0,1.611-0.171,3.553-0.986c1.657-0.696,3.335-1.536,4.989-2.495c1.646-0.953,3.165-1.99,4.517-3.077
			c1.577-1.269,2.18-2.082,2.409-2.539l0.314-0.63h21.708v41.062h13.006V292.864z M247.059,219.591h-0.001h-49.687v-19.684h14.54
			v-16.615c-0.352,0.255-0.732,0.506-1.14,0.754c-1.336,0.809-2.849,1.576-4.496,2.276c-1.649,0.702-3.343,1.272-5.034,1.695
			c-1.718,0.43-3.293,0.649-4.677,0.649h-1.138v-20.093h1.138c0.548,0,1.611-0.171,3.553-0.986c1.657-0.696,3.335-1.536,4.989-2.495
			c1.646-0.953,3.165-1.99,4.517-3.077c1.577-1.269,2.18-2.082,2.409-2.539l0.314-0.63h21.708v41.062h13.006V219.591z
			 M262.702,168.573h1.138c0.548,0,1.611-0.171,3.553-0.986c1.657-0.696,3.335-1.536,4.989-2.495
			c1.646-0.953,3.165-1.99,4.517-3.077c1.577-1.269,2.18-2.082,2.409-2.539l0.314-0.63h21.708v41.062h13.006v19.684h-49.688v-19.684
			h14.54v-16.615c-0.352,0.255-0.732,0.506-1.14,0.754c-1.336,0.809-2.849,1.576-4.497,2.276c-1.649,0.702-3.343,1.272-5.034,1.695
			c-1.718,0.43-3.293,0.649-4.677,0.649h-1.138V168.573z M317.235,274.55c-1.407,3.906-3.392,7.335-5.898,10.194
			c-2.517,2.871-5.538,5.137-8.978,6.733c-3.447,1.599-7.243,2.41-11.282,2.41c-4.04,0-7.836-0.81-11.282-2.41
			c-3.441-1.595-6.461-3.862-8.978-6.733c-2.508-2.859-4.492-6.29-5.898-10.194c-1.403-3.89-2.115-8.207-2.115-12.827
			s0.711-8.936,2.115-12.827c1.406-3.906,3.392-7.335,5.898-10.193c2.512-2.868,5.53-5.15,8.969-6.78
			c3.451-1.636,7.25-2.466,11.291-2.466c4.04,0,7.839,0.829,11.29,2.464c3.438,1.633,6.457,3.914,8.969,6.781
			c2.505,2.858,4.49,6.288,5.898,10.194c1.404,3.896,2.116,8.211,2.116,12.827S318.639,270.653,317.235,274.55z M330.08,188.45
			c0-4.62,0.711-8.936,2.115-12.827c1.406-3.906,3.392-7.335,5.898-10.193c2.512-2.868,5.53-5.15,8.969-6.78
			c3.451-1.636,7.25-2.466,11.291-2.466c4.04,0,7.839,0.829,11.29,2.464c3.438,1.633,6.457,3.914,8.969,6.781
			c2.505,2.858,4.49,6.288,5.898,10.194c1.404,3.896,2.116,8.211,2.116,12.827s-0.712,8.932-2.116,12.827
			c-1.407,3.906-3.392,7.335-5.898,10.194c-2.517,2.871-5.538,5.137-8.978,6.733c-3.447,1.599-7.243,2.41-11.282,2.41
			c-4.04,0-7.836-0.81-11.282-2.41c-3.441-1.595-6.461-3.862-8.978-6.733c-2.508-2.859-4.492-6.29-5.898-10.194
			C330.792,197.386,330.08,193.071,330.08,188.45z M388.473,292.864h-0.001h-49.687V273.18h14.54v-16.615
			c-0.352,0.255-0.732,0.506-1.14,0.754c-1.336,0.809-2.849,1.576-4.497,2.276c-1.649,0.702-3.343,1.272-5.034,1.695
			c-1.718,0.43-3.293,0.649-4.677,0.649h-1.138v-20.093h1.138c0.548,0,1.611-0.171,3.553-0.986c1.657-0.696,3.335-1.536,4.989-2.495
			c1.646-0.953,3.165-1.99,4.517-3.077c1.577-1.269,2.18-2.082,2.409-2.539l0.314-0.63h21.708v41.062h13.006V292.864z"/>
	</g>
</g>
<g>
	<g>
		<path d="M0,381.156v11.378c0,25.095,20.416,45.511,45.511,45.511h420.978c25.095,0,45.511-20.416,45.511-45.511v-11.378H0z"/>
	</g>
</g>
<g>
</g>
<g>
</g>
<g>
</g>
<g>
</g>
<g>
</g>
<g>
</g>
<g>
</g>
<g>
</g>
<g>
</g>
<g>
</g>
<g>
</g>
<g>
</g>
<g>
</g>
<g>
</g>
<g>
</g>
</svg>
