<?xml version="1.0" encoding="iso-8859-1"?>
<!-- Generator: Adobe Illustrator 19.0.0, SVG Export Plug-In . SVG Version: 6.00 Build 0)  -->
<svg version="1.1" id="Layer_1" xmlns="http://www.w3.org/2000/svg" xmlns:xlink="http://www.w3.org/1999/xlink" x="0px" y="0px"
	 viewBox="0 0 512 512" style="enable-background:new 0 0 512 512;" xml:space="preserve">
<g>
	<g>
		<path d="M58.182,31.418v226.909h57.905V166.4h163.186V31.418H58.182z M168.727,101.236c-9.64,0-17.455-7.815-17.455-17.455
			c0-9.64,7.815-17.455,17.455-17.455c9.64,0,17.455,7.815,17.455,17.455C186.182,93.421,178.367,101.236,168.727,101.236z"/>
	</g>
</g>
<g>
	<g>
		<rect x="58.182" y="293.236" width="57.905" height="64"/>
	</g>
</g>
<g>
	<g>
		<rect x="150.993" y="201.309" width="326.377" height="186.182"/>
	</g>
</g>
<g>
	<g>
		<path d="M116.364,422.4v2.494v9.143c0,25.665,20.88,46.545,46.545,46.545h302.545c25.665,0,46.545-20.88,46.545-46.545v-9.143
			V422.4H116.364z"/>
	</g>
</g>
<g>
	<g>
		<path d="M308.364,73.309v34.909c28.873,0,52.364,23.49,52.364,52.364h34.909C395.636,112.46,356.486,73.309,308.364,73.309z"/>
	</g>
</g>
<g>
	<g>
		<path d="M34.909,358.4H0c0,48.122,39.151,87.273,87.273,87.273v-34.909C58.399,410.764,34.909,387.273,34.909,358.4z"/>
	</g>
</g>
<g>
</g>
<g>
</g>
<g>
</g>
<g>
</g>
<g>
</g>
<g>
</g>
<g>
</g>
<g>
</g>
<g>
</g>
<g>
</g>
<g>
</g>
<g>
</g>
<g>
</g>
<g>
</g>
<g>
</g>
</svg>
