<?xml version="1.0" encoding="iso-8859-1"?>
<!-- Generator: Adobe Illustrator 19.0.0, SVG Export Plug-In . SVG Version: 6.00 Build 0)  -->
<svg version="1.1" id="Layer_1" xmlns="http://www.w3.org/2000/svg" xmlns:xlink="http://www.w3.org/1999/xlink" x="0px" y="0px"
	 viewBox="0 0 512 512" style="enable-background:new 0 0 512 512;" xml:space="preserve">
<g>
	<g>
		<path d="M325.82,259.322c0-40.331-32.812-73.142-73.142-73.142v-39.896c-35.717,0-70.146,4.02-101.398,11.642
			c-7.619,31.252-11.64,65.68-11.64,101.396s4.02,70.145,11.64,101.396c31.252,7.62,65.68,11.642,101.398,11.642
			s70.146-4.02,101.398-11.642c7.619-31.252,11.64-65.68,11.64-101.396H325.82z M252.678,292.568
			c-18.361,0-33.246-14.885-33.246-33.246c0-18.361,14.885-33.246,33.246-33.246s33.246,14.885,33.246,33.246
			C285.924,277.683,271.039,292.568,252.678,292.568z"/>
	</g>
</g>
<g>
	<g>
		<path d="M252.678,106.388v39.896c62.329,0,113.038,50.709,113.038,113.038h39.896
			C405.612,174.995,337.006,106.388,252.678,106.388z"/>
	</g>
</g>
<g>
	<g>
		<path d="M252.677,412.255c-30.744,0-60.145-2.722-87.506-7.761c2.149,5.358,4.416,10.571,6.817,15.607
			c1.394,2.922,2.83,5.79,4.307,8.596c0.662,1.258,1.33,2.5,2.005,3.724c18.223,33.059,41.022,53.763,64.11,58.555
			c3.42,0.709,6.847,1.071,10.266,1.071s6.846-0.36,10.266-1.071c23.088-4.793,45.888-25.496,64.111-58.555
			c0.676-1.224,1.343-2.466,2.005-3.724c1.477-2.806,2.912-5.674,4.307-8.596c2.4-5.036,4.668-10.249,6.815-15.607
			C312.822,409.533,283.42,412.255,252.677,412.255z"/>
	</g>
</g>
<g>
	<g>
		<path d="M107.506,171.816c-8.47,3.395-16.562,7.101-24.203,11.123c-40.259,21.189-63.349,49.031-63.349,76.383
			c0,27.352,23.09,55.194,63.349,76.383c7.641,4.021,15.734,7.729,24.203,11.123c-5.039-27.36-7.761-56.761-7.761-87.506
			C99.745,228.577,102.467,199.177,107.506,171.816z"/>
	</g>
</g>
<g>
	<g>
		<path d="M118.833,393.167C65.188,376.542,23.173,350.063,0,317.782C22.235,413.92,98.08,489.763,194.216,512
			C161.937,488.827,135.459,446.812,118.833,393.167z"/>
	</g>
</g>
<g>
	<g>
		<path d="M0,200.862c23.173-32.281,65.188-58.758,118.833-75.384c16.626-53.646,43.103-95.662,75.384-118.833
			C98.08,28.88,22.235,104.724,0,200.862z"/>
	</g>
</g>
<g>
	<g>
		<path d="M386.523,393.168c-16.626,53.645-43.103,95.661-75.384,118.832c96.137-22.237,171.982-98.08,194.216-194.218
			C482.183,350.063,440.168,376.542,386.523,393.168z"/>
	</g>
</g>
<g>
	<g>
		<path d="M252.678,0v26.597c-3.419,0-6.846,0.36-10.266,1.07c-23.088,4.793-45.887,25.496-64.11,58.555
			c-0.676,1.223-1.343,2.466-2.005,3.724c-1.477,2.806-2.912,5.674-4.307,8.596c-2.4,5.036-4.668,10.249-6.816,15.607
			c27.359-5.039,56.76-7.761,87.505-7.761V66.493c106.326,0,192.829,86.503,192.829,192.829h-39.896
			c0,30.745-2.722,60.145-7.761,87.506c8.47-3.395,16.562-7.101,24.203-11.123c40.259-21.189,63.349-49.029,63.349-76.383H512
			C512,116.332,395.668,0,252.678,0z"/>
	</g>
</g>
<g>
</g>
<g>
</g>
<g>
</g>
<g>
</g>
<g>
</g>
<g>
</g>
<g>
</g>
<g>
</g>
<g>
</g>
<g>
</g>
<g>
</g>
<g>
</g>
<g>
</g>
<g>
</g>
<g>
</g>
</svg>
