<?xml version="1.0" encoding="iso-8859-1"?>
<!-- Generator: Adobe Illustrator 19.0.0, SVG Export Plug-In . SVG Version: 6.00 Build 0)  -->
<svg version="1.1" id="Layer_1" xmlns="http://www.w3.org/2000/svg" xmlns:xlink="http://www.w3.org/1999/xlink" x="0px" y="0px"
	 viewBox="0 0 512 512" style="enable-background:new 0 0 512 512;" xml:space="preserve">
<g>
	<g>
		<path d="M365.561,233.055c-1.705-1.514-3.392-2.282-5.015-2.282h-14.659v22.18h15.472c1.602,0.001,3.083-0.747,4.529-2.285
			c1.444-1.54,2.177-4.502,2.177-8.805C368.064,237.497,367.221,234.533,365.561,233.055z"/>
	</g>
</g>
<g>
	<g>
		<path d="M256,0C114.842,0,0,114.842,0,256s114.842,256,256,256s256-114.842,256-256S397.158,0,256,0z M185.821,260.533
			c0,8.786-0.495,16.898-1.472,24.113c-0.993,7.343-3.186,13.712-6.516,18.932c-3.363,5.27-8.323,9.413-14.743,12.315
			c-6.361,2.875-14.972,4.332-25.596,4.332c-9.959,0-18.607-2.476-25.709-7.363l-0.719-0.495l7.314-28.369l1.466,0.985
			c0.156,0.105,0.618,0.382,1.971,1.055c1.018,0.512,2.328,1.035,3.895,1.556c1.566,0.524,3.402,1.003,5.456,1.424
			c2.012,0.413,4.14,0.623,6.325,0.623c3.137,0,5.672-0.497,7.535-1.479c1.816-0.957,3.173-2.486,4.147-4.679
			c1.02-2.299,1.696-5.333,2.008-9.014c0.32-3.788,0.482-8.477,0.482-13.938v-59.854h34.157V260.533z M291.433,300.007
			c-2.63,4.867-6.153,8.811-10.466,11.725c-4.272,2.887-9.162,4.995-14.535,6.268c-5.33,1.263-10.751,1.901-16.116,1.901
			c-4.262,0-8.693-0.332-13.168-0.987c-4.481-0.656-8.981-1.595-13.378-2.791c-4.397-1.193-8.704-2.627-12.799-4.266
			c-4.105-1.641-7.96-3.528-11.456-5.606l-0.992-0.589l14.756-30.039l1.174,0.738c3.728,2.344,7.664,4.447,11.695,6.249
			c3.41,1.597,7.313,3.049,11.616,4.326c4.25,1.259,8.637,1.897,13.037,1.897c3.975,0,5.741-0.633,6.524-1.164
			c1.012-0.688,1.482-1.521,1.482-2.621c0.004-1.245-0.515-2.286-1.581-3.183c-1.233-1.034-2.992-1.972-5.226-2.786
			c-2.343-0.85-5.071-1.715-8.107-2.569c-3.114-0.873-6.442-1.918-9.892-3.106c-5.125-1.743-9.616-3.656-13.341-5.686
			c-3.781-2.055-6.947-4.432-9.406-7.062c-2.485-2.652-4.351-5.723-5.542-9.126c-1.178-3.363-1.776-7.27-1.776-11.614
			c0-6.546,1.216-12.408,3.613-17.423c2.396-5.015,5.706-9.256,9.838-12.606c4.101-3.327,8.851-5.884,14.117-7.603
			c5.24-1.712,10.859-2.579,16.702-2.579c4.282,0,8.515,0.418,12.585,1.241c4.035,0.819,7.988,1.871,11.755,3.126
			c3.759,1.253,7.32,2.634,10.588,4.104c3.231,1.454,6.195,2.853,8.813,4.161l1.136,0.568l-14.838,28.437l-1.136-0.682
			c-3.178-1.907-6.517-3.629-9.924-5.121c-2.866-1.275-6.125-2.485-9.693-3.605c-3.49-1.093-6.943-1.647-10.261-1.647
			c-2.597,0-4.672,0.391-6.165,1.16c-1.255,0.648-1.839,1.688-1.839,3.273c0,1.181,0.358,2.114,1.095,2.851
			c0.859,0.859,2.152,1.675,3.841,2.42c1.793,0.79,4.005,1.562,6.576,2.295c2.656,0.761,5.701,1.692,9.05,2.771
			c5.317,1.63,10.203,3.452,14.502,5.411c4.359,1.987,8.148,4.375,11.263,7.096c3.161,2.769,5.618,6.169,7.307,10.109
			c1.683,3.929,2.536,8.738,2.536,14.29C295.398,289.063,294.064,295.134,291.433,300.007z M399.865,257.164
			c-1.888,4.938-4.561,9.381-7.943,13.207c-3.405,3.849-7.581,6.954-12.415,9.231c-4.853,2.288-10.247,3.448-16.036,3.448h-17.583
			v35.389h-34.155v-117.76h50.925c5.788,0,11.215,1.218,16.133,3.616c4.885,2.389,9.135,5.542,12.63,9.372
			c3.493,3.824,6.275,8.264,8.272,13.197c2.001,4.945,3.013,9.992,3.013,14.998C402.706,247.079,401.75,252.227,399.865,257.164z"/>
	</g>
</g>
<g>
</g>
<g>
</g>
<g>
</g>
<g>
</g>
<g>
</g>
<g>
</g>
<g>
</g>
<g>
</g>
<g>
</g>
<g>
</g>
<g>
</g>
<g>
</g>
<g>
</g>
<g>
</g>
<g>
</g>
</svg>
