<?xml version="1.0" encoding="iso-8859-1"?>
<!-- Generator: Adobe Illustrator 19.0.0, SVG Export Plug-In . SVG Version: 6.00 Build 0)  -->
<svg version="1.1" id="Layer_1" xmlns="http://www.w3.org/2000/svg" xmlns:xlink="http://www.w3.org/1999/xlink" x="0px" y="0px"
	 viewBox="0 0 512 512" style="enable-background:new 0 0 512 512;" xml:space="preserve">
<g>
	<g>
		<path d="M73.143,0C32.812,0,0,32.812,0,73.143c0,40.331,32.812,73.143,73.143,73.143c40.331,0,73.143-32.812,73.143-73.143
			C146.286,32.812,113.474,0,73.143,0z"/>
	</g>
</g>
<g>
	<g>
		<path d="M438.857,0c-40.331,0-73.143,32.812-73.143,73.143c0,40.331,32.812,73.143,73.143,73.143
			c40.331,0,73.143-32.812,73.143-73.143C512,32.812,479.188,0,438.857,0z"/>
	</g>
</g>
<g>
	<g>
		<path d="M256,0c-40.331,0-73.143,32.812-73.143,73.143c0,40.331,32.812,73.143,73.143,73.143s73.143-32.812,73.143-73.143
			C329.143,32.812,296.331,0,256,0z"/>
	</g>
</g>
<g>
	<g>
		<path d="M438.857,365.714c-40.331,0-73.143,32.812-73.143,73.143c0,40.331,32.812,73.143,73.143,73.143
			C479.188,512,512,479.188,512,438.857C512,398.526,479.188,365.714,438.857,365.714z"/>
	</g>
</g>
<g>
	<g>
		<path d="M438.857,182.857c-40.331,0-73.143,32.812-73.143,73.143s32.812,73.143,73.143,73.143
			C479.188,329.143,512,296.331,512,256S479.188,182.857,438.857,182.857z"/>
	</g>
</g>
<g>
	<g>
		<path d="M256,182.857c-40.331,0-73.143,32.812-73.143,73.143s32.812,73.143,73.143,73.143s73.143-32.812,73.143-73.143
			S296.331,182.857,256,182.857z"/>
	</g>
</g>
<g>
</g>
<g>
</g>
<g>
</g>
<g>
</g>
<g>
</g>
<g>
</g>
<g>
</g>
<g>
</g>
<g>
</g>
<g>
</g>
<g>
</g>
<g>
</g>
<g>
</g>
<g>
</g>
<g>
</g>
</svg>
