<?xml version="1.0" encoding="iso-8859-1"?>
<!-- Generator: Adobe Illustrator 19.0.0, SVG Export Plug-In . SVG Version: 6.00 Build 0)  -->
<svg version="1.1" id="Layer_1" xmlns="http://www.w3.org/2000/svg" xmlns:xlink="http://www.w3.org/1999/xlink" x="0px" y="0px"
	 viewBox="0 0 512 512" style="enable-background:new 0 0 512 512;" xml:space="preserve">
<g>
	<g>
		<path d="M416.036,224.219c0.282-3.722,0.426-7.487,0.426-11.283c0-81.713-66.241-147.953-147.954-147.953
			c-78.235,0-142.279,60.728-147.588,137.614C54.292,203.3,0,258.012,0,324.799c0,67.221,54.998,122.218,122.218,122.218h277.804
			C461.61,447.017,512,396.625,512,335.04C512,278.886,470.109,232.05,416.036,224.219z M331.636,307.38
			c0,57.7-66.33,84.894-69.154,86.024L256,395.998l-6.483-2.594c-2.824-1.13-69.154-28.324-69.154-86.024v-87.273h151.273V307.38z"
			/>
	</g>
</g>
<g>
	<g>
		<path d="M273.455,255.018v91.718c11.691-9.125,23.273-22.43,23.273-39.354v-52.364H273.455z"/>
	</g>
</g>
<g>
	<g>
		<path d="M215.273,255.017v52.364c0,13.536,7.375,26.401,21.923,38.236c0.449,0.365,0.9,0.707,1.35,1.06v-91.66H215.273z"/>
	</g>
</g>
<g>
</g>
<g>
</g>
<g>
</g>
<g>
</g>
<g>
</g>
<g>
</g>
<g>
</g>
<g>
</g>
<g>
</g>
<g>
</g>
<g>
</g>
<g>
</g>
<g>
</g>
<g>
</g>
<g>
</g>
</svg>
