<?xml version="1.0" encoding="iso-8859-1"?>
<!-- Generator: Adobe Illustrator 19.0.0, SVG Export Plug-In . SVG Version: 6.00 Build 0)  -->
<svg version="1.1" id="Layer_1" xmlns="http://www.w3.org/2000/svg" xmlns:xlink="http://www.w3.org/1999/xlink" x="0px" y="0px"
	 viewBox="0 0 512 512" style="enable-background:new 0 0 512 512;" xml:space="preserve">
<g>
	<g>
		<path d="M215.665,239.774c-0.993-1.076-1.949-1.623-2.837-1.623h-10.895v13.228h11.405c0.861,0,1.684-0.523,2.519-1.599
			c0.89-1.15,1.342-2.836,1.342-5.015C217.198,242.557,216.682,240.877,215.665,239.774z"/>
	</g>
</g>
<g>
	<g>
		<polygon points="280.582,246.243 275.402,263.51 285.527,263.51 		"/>
	</g>
</g>
<g>
	<g>
		<path d="M146.823,248.479c-0.7-2.159-1.708-4.018-2.996-5.526c-1.277-1.494-2.875-2.681-4.75-3.524
			c-1.882-0.847-4.024-1.276-6.365-1.276h-6.818v35.449h6.818c2.404,0,4.575-0.445,6.452-1.322c1.872-0.873,3.47-2.105,4.75-3.666
			c1.294-1.578,2.288-3.47,2.954-5.63c0.677-2.194,1.02-4.617,1.02-7.21C147.889,253.12,147.531,250.666,146.823,248.479z"/>
	</g>
</g>
<g>
	<g>
		<path d="M77.218,114.434L0,256l77.218,141.566H512V114.434H77.218z M167.659,271.118c-1.781,4.578-4.356,8.552-7.649,11.811
			c-3.293,3.257-7.299,5.811-11.906,7.589c-4.594,1.775-9.773,2.675-15.392,2.675h-28.958v-0.001V218.56h28.958
			c6.101,0,11.563,0.99,16.236,2.942c4.681,1.957,8.654,4.654,11.805,8.017c3.148,3.357,5.562,7.347,7.171,11.861
			c1.6,4.485,2.411,9.328,2.411,14.396C170.336,261.394,169.435,266.557,167.659,271.118z M293.736,293.191l-4.383-14.168h-17.588
			l-4.28,14.168h-22.123h-0.595h-24.442l-12.741-22.219h-5.652v22.219h-22.141v-74.633h34.361c3.689,0,7.147,0.776,10.281,2.306
			c3.108,1.52,5.811,3.526,8.035,5.964c2.22,2.429,3.989,5.253,5.259,8.39c1.273,3.145,1.917,6.357,1.917,9.547
			c0,4.374-0.967,8.506-2.873,12.282c-1.752,3.472-4.162,6.401-7.17,8.719l15.39,26.78l25.739-73.988h19.755l25.859,74.633H293.736z
			 M374.594,238.152h-29.763v9.762h24.259v18.369h-24.259v26.909H322.69V218.56h51.904V238.152z M445.841,238.151h-20.792v55.041
			h-22.142v-55.041h-20.894v-19.593h63.828V238.151z"/>
	</g>
</g>
<g>
</g>
<g>
</g>
<g>
</g>
<g>
</g>
<g>
</g>
<g>
</g>
<g>
</g>
<g>
</g>
<g>
</g>
<g>
</g>
<g>
</g>
<g>
</g>
<g>
</g>
<g>
</g>
<g>
</g>
</svg>
