<?xml version="1.0" encoding="iso-8859-1"?>
<!-- Generator: Adobe Illustrator 19.0.0, SVG Export Plug-In . SVG Version: 6.00 Build 0)  -->
<svg version="1.1" id="Layer_1" xmlns="http://www.w3.org/2000/svg" xmlns:xlink="http://www.w3.org/1999/xlink" x="0px" y="0px"
	 viewBox="0 0 512 512" style="enable-background:new 0 0 512 512;" xml:space="preserve">
<g>
	<g>
		<path d="M256,352.781c-17.263,0-34.228-0.762-50.591-2.21c10.431,51.888,29.185,86.503,50.591,86.503s40.16-34.615,50.591-86.503
			C290.228,352.018,273.263,352.781,256,352.781z"/>
	</g>
</g>
<g>
	<g>
		<path d="M312.38,199.62c-17.745-1.903-36.694-2.937-56.38-2.937c-19.687,0-38.635,1.033-56.38,2.937
			c-1.903,17.745-2.937,36.693-2.937,56.38s1.033,38.635,2.937,56.38c17.745,1.903,36.693,2.937,56.38,2.937
			s38.635-1.033,56.38-2.937c1.903-17.745,2.937-36.693,2.937-56.38S314.284,217.365,312.38,199.62z"/>
	</g>
</g>
<g>
	<g>
		<path d="M256,74.927c-21.405,0-40.16,34.615-50.591,86.503c16.363-1.447,33.327-2.21,50.591-2.21s34.228,0.762,50.591,2.21
			C296.16,109.542,277.405,74.927,256,74.927z"/>
	</g>
</g>
<g>
	<g>
		<path d="M350.57,205.409c1.447,16.363,2.21,33.327,2.21,50.591s-0.762,34.228-2.21,50.591
			c51.888-10.431,86.503-29.185,86.503-50.591S402.458,215.84,350.57,205.409z"/>
	</g>
</g>
<g>
	<g>
		<path d="M178.454,395.701c-4.925-15.035-8.956-31.944-12.046-50.111c-18.167-3.089-35.076-7.119-50.111-12.046
			c-14.345-4.699-26.834-10.153-37.317-16.282c18.773,54.086,61.671,96.984,115.757,115.756
			C188.608,422.534,183.154,410.046,178.454,395.701z"/>
	</g>
</g>
<g>
	<g>
		<path d="M317.264,78.983c6.129,10.484,11.582,22.971,16.282,37.316c4.925,15.035,8.956,31.944,12.046,50.111
			c18.167,3.089,35.076,7.119,50.111,12.046c14.345,4.699,26.833,10.153,37.317,16.282
			C414.247,140.651,371.349,97.753,317.264,78.983z"/>
	</g>
</g>
<g>
	<g>
		<path d="M395.701,333.546c-15.035,4.925-31.944,8.956-50.111,12.046c-3.089,18.167-7.119,35.076-12.046,50.111
			c-4.699,14.345-10.153,26.833-16.282,37.316c54.086-18.772,96.984-61.67,115.756-115.754
			C422.534,323.393,410.046,328.846,395.701,333.546z"/>
	</g>
</g>
<g>
	<g>
		<path d="M161.43,205.409C109.542,215.84,74.927,234.595,74.927,256s34.615,40.16,86.503,50.591
			c-1.447-16.363-2.21-33.327-2.21-50.591S159.981,221.772,161.43,205.409z"/>
	</g>
</g>
<g>
	<g>
		<path d="M78.983,194.735c10.482-6.128,22.971-11.581,37.316-16.28c15.035-4.925,31.944-8.956,50.111-12.046
			c3.089-18.167,7.119-35.076,12.046-50.111c4.699-14.345,10.153-26.833,16.282-37.317C140.651,97.752,97.755,140.65,78.983,194.735
			z"/>
	</g>
</g>
<g>
	<g>
		<path d="M256,0v37.463c0.468,0,0.933,0.015,1.401,0.017c119.39,0.755,216.362,97.728,217.117,217.118
			c0.004,0.468,0.019,0.933,0.019,1.401c0,0.468-0.015,0.934-0.019,1.402c-0.187,30.234-6.417,59.463-18.549,86.898
			c-11.907,26.924-28.881,50.838-50.446,71.078c-40.318,37.842-92.896,58.808-148.178,59.142c-0.45,0.003-0.897,0.016-1.345,0.016
			c-0.468,0-0.933-0.015-1.401-0.017c-119.39-0.756-216.362-97.728-217.118-217.118c-0.003-0.468-0.017-0.933-0.017-1.401H0
			c0,141.158,114.84,256,256,256c65.336,0,127.543-24.613,175.161-69.305c25.247-23.696,45.12-51.701,59.07-83.241
			C504.676,326.792,512,291.985,512,256C512,114.842,397.158,0,256,0z"/>
	</g>
</g>
<g>
</g>
<g>
</g>
<g>
</g>
<g>
</g>
<g>
</g>
<g>
</g>
<g>
</g>
<g>
</g>
<g>
</g>
<g>
</g>
<g>
</g>
<g>
</g>
<g>
</g>
<g>
</g>
<g>
</g>
</svg>
