<?xml version="1.0" encoding="iso-8859-1"?>
<!-- Generator: Adobe Illustrator 19.0.0, SVG Export Plug-In . SVG Version: 6.00 Build 0)  -->
<svg version="1.1" id="Layer_1" xmlns="http://www.w3.org/2000/svg" xmlns:xlink="http://www.w3.org/1999/xlink" x="0px" y="0px"
	 viewBox="0 0 512 512" style="enable-background:new 0 0 512 512;" xml:space="preserve">
<g>
	<g>
		<path d="M401.667,321.422l-22.756-34.133h-21.093l-35.067-60.738h6.86c31.479,0,57.234-25.756,57.234-57.234
			c0-28.7-21.411-52.639-49.047-56.641c0.143-1.904,0.217-3.826,0.217-5.767c0-41.763-33.857-75.62-75.62-75.62
			c-39.987,0-72.721,31.037-75.434,70.335c-34.056,0.361-61.805,28.325-61.805,62.459c0,34.356,28.11,62.467,62.467,62.467h1.626
			l-54.775,94.871H128.6l-22.756-34.133H0v193.422h238.933V321.422h-65.046l54.774-94.871h54.676l35.067,60.738h-45.338v193.422H512
			V321.422H401.667z"/>
	</g>
</g>
<g>
</g>
<g>
</g>
<g>
</g>
<g>
</g>
<g>
</g>
<g>
</g>
<g>
</g>
<g>
</g>
<g>
</g>
<g>
</g>
<g>
</g>
<g>
</g>
<g>
</g>
<g>
</g>
<g>
</g>
</svg>
