<?xml version="1.0" encoding="iso-8859-1"?>
<!-- Generator: Adobe Illustrator 19.0.0, SVG Export Plug-In . SVG Version: 6.00 Build 0)  -->
<svg version="1.1" id="Layer_1" xmlns="http://www.w3.org/2000/svg" xmlns:xlink="http://www.w3.org/1999/xlink" x="0px" y="0px"
	 viewBox="0 0 512 512" style="enable-background:new 0 0 512 512;" xml:space="preserve">
<g>
	<g>
		<path d="M486.451,367.422C502.813,333.717,512,295.912,512,255.999s-9.187-77.718-25.549-111.422l-53.741,31.028l-18.732-32.443
			l53.685-30.996C424.85,49.361,354.847,6.509,274.732,0.687v62.081h-37.463V0.687C157.152,6.509,87.15,49.361,44.335,112.165
			l53.686,30.996L79.29,175.604l-53.743-31.028C9.186,178.282,0,216.087,0,255.999s9.186,77.718,25.548,111.422l53.742-31.028
			l18.732,32.443l-53.686,30.997c42.813,62.804,112.816,105.656,192.933,111.479v-62.081h37.463v62.081
			c80.116-5.822,150.118-48.675,192.932-111.479l-53.685-30.997l18.732-32.443L486.451,367.422z M184.766,96.707l71.069,121.833
			c0.055-0.001,0.11-0.005,0.165-0.005c20.69,0,37.463,16.774,37.463,37.463S276.69,293.463,256,293.463
			s-37.463-16.774-37.463-37.463c0-6.765,1.802-13.105,4.939-18.583l-71.069-121.834L184.766,96.707z M305.951,399.609h-99.902
			v-37.463h99.902V399.609z"/>
	</g>
</g>
<g>
</g>
<g>
</g>
<g>
</g>
<g>
</g>
<g>
</g>
<g>
</g>
<g>
</g>
<g>
</g>
<g>
</g>
<g>
</g>
<g>
</g>
<g>
</g>
<g>
</g>
<g>
</g>
<g>
</g>
</svg>
