<?xml version="1.0" encoding="iso-8859-1"?>
<!-- Generator: Adobe Illustrator 19.0.0, SVG Export Plug-In . SVG Version: 6.00 Build 0)  -->
<svg version="1.1" id="Layer_1" xmlns="http://www.w3.org/2000/svg" xmlns:xlink="http://www.w3.org/1999/xlink" x="0px" y="0px"
	 viewBox="0 0 512 512" style="enable-background:new 0 0 512 512;" xml:space="preserve">
<g>
	<g>
		<path d="M22.756,73.956v273.067h466.489V73.956H22.756z M164.434,262.827h-18.137l-9.565-24.055l-9.469,24.055h-18.141
			l-29.358-74.98h24.107l14.961,47.312l3.792-11.456l-12.163-35.856h20.777l5.498,19.417l5.585-19.417h20.783l-12.373,35.851
			l3.969,11.518l14.882-47.369h24.211L164.434,262.827z M283.935,262.827h-18.137l-9.565-24.055l-9.47,24.055h-18.14l-29.358-74.98
			h24.107l14.961,47.312l3.792-11.456l-12.163-35.856h20.777l5.498,19.417l5.585-19.417h20.783l-12.373,35.851l3.969,11.518
			l14.882-47.369h24.211L283.935,262.827z M403.434,262.827h-18.137l-9.565-24.055l-9.47,24.055h-18.14l-29.358-74.98h24.107
			l14.961,47.312l3.792-11.456l-12.163-35.856h20.777l5.498,19.417l5.585-19.417h20.783l-12.373,35.851l3.969,11.518l14.882-47.369
			h24.211L403.434,262.827z"/>
	</g>
</g>
<g>
	<g>
		<path d="M0,381.156v11.378c0,25.095,20.416,45.511,45.511,45.511h420.978c25.095,0,45.511-20.416,45.511-45.511v-11.378H0z"/>
	</g>
</g>
<g>
</g>
<g>
</g>
<g>
</g>
<g>
</g>
<g>
</g>
<g>
</g>
<g>
</g>
<g>
</g>
<g>
</g>
<g>
</g>
<g>
</g>
<g>
</g>
<g>
</g>
<g>
</g>
<g>
</g>
</svg>
