<?xml version="1.0" encoding="iso-8859-1"?>
<!-- Generator: Adobe Illustrator 19.0.0, SVG Export Plug-In . SVG Version: 6.00 Build 0)  -->
<svg version="1.1" id="Layer_1" xmlns="http://www.w3.org/2000/svg" xmlns:xlink="http://www.w3.org/1999/xlink" x="0px" y="0px"
	 viewBox="0 0 512 512" style="enable-background:new 0 0 512 512;" xml:space="preserve">
<g>
	<g>
		<path d="M364.019,228.074c-1.401-1.243-2.777-1.875-4.091-1.875h-12.196v18.327h12.885c1.287,0,2.485-0.609,3.661-1.86
			c1.164-1.239,1.78-3.765,1.78-7.303C366.059,231.73,365.372,229.278,364.019,228.074z"/>
	</g>
</g>
<g>
	<g>
		<path d="M166.488,228.074c-1.401-1.243-2.777-1.875-4.091-1.875h-12.196v18.327h12.885c1.287,0,2.485-0.609,3.661-1.86
			c1.164-1.239,1.78-3.765,1.78-7.303C168.528,231.73,167.841,229.278,166.488,228.074z"/>
	</g>
</g>
<g>
	<g>
		<polygon points="369.182,0 367.59,0 367.59,91.897 459.487,91.897 459.487,90.305 		"/>
	</g>
</g>
<g>
	<g>
		<path d="M328.205,131.282V0H52.513v512h406.974V131.282H328.205z M196.019,248.442c-1.613,4.221-3.899,8.019-6.791,11.292
			c-2.913,3.294-6.488,5.951-10.625,7.899c-4.152,1.959-8.77,2.951-13.723,2.951h-14.677v30.052h-29.507V200.139h43.494
			c4.953,0,9.601,1.041,13.81,3.096c4.177,2.043,7.811,4.739,10.802,8.015c2.984,3.266,5.363,7.063,7.071,11.282
			c1.711,4.229,2.577,8.544,2.577,12.828C198.449,239.819,197.631,244.221,196.019,248.442z M299.901,300.636h-29.506v-38.32
			h-30.182v38.32h-29.506V200.139h29.506v36.116h30.182V200.14h29.506V300.636z M393.551,248.442
			c-1.613,4.221-3.899,8.019-6.791,11.292c-2.913,3.294-6.488,5.951-10.625,7.899c-4.152,1.959-8.77,2.951-13.723,2.951h-14.677
			v30.052h-29.506V200.139h43.492c4.953,0,9.601,1.041,13.81,3.096c4.177,2.043,7.811,4.739,10.802,8.015
			c2.984,3.266,5.363,7.063,7.071,11.282c1.711,4.229,2.577,8.544,2.577,12.828C395.981,239.819,395.163,244.221,393.551,248.442z"
			/>
	</g>
</g>
<g>
</g>
<g>
</g>
<g>
</g>
<g>
</g>
<g>
</g>
<g>
</g>
<g>
</g>
<g>
</g>
<g>
</g>
<g>
</g>
<g>
</g>
<g>
</g>
<g>
</g>
<g>
</g>
<g>
</g>
</svg>
