<?xml version="1.0" encoding="iso-8859-1"?>
<!-- Generator: Adobe Illustrator 19.0.0, SVG Export Plug-In . SVG Version: 6.00 Build 0)  -->
<svg version="1.1" id="Layer_1" xmlns="http://www.w3.org/2000/svg" xmlns:xlink="http://www.w3.org/1999/xlink" x="0px" y="0px"
	 viewBox="0 0 512 512" style="enable-background:new 0 0 512 512;" xml:space="preserve">
<g>
	<g>
		<path d="M152.049,43.636c-69.345,0-117.67,29.967-117.67,56.863c0,26.896,48.325,56.863,117.669,56.863
			s117.67-29.968,117.67-56.863C269.718,73.605,221.393,43.636,152.049,43.636z"/>
	</g>
</g>
<g>
	<g>
		<path d="M308.364,61.091V96c1.135,0,2.257,0.049,3.375,0.121c27.305,1.747,48.989,24.505,48.989,52.243h34.909
			C395.636,100.241,356.486,61.091,308.364,61.091z"/>
	</g>
</g>
<g>
	<g>
		<path d="M35.079,350.213c-0.101-1.332-0.17-2.673-0.17-4.031H0c0,48.122,39.151,87.273,87.273,87.273v-34.909
			C59.757,398.545,37.147,377.208,35.079,350.213z"/>
	</g>
</g>
<g>
	<g>
		<path d="M276.829,171.636v-17.439c-6.028,5.098-12.985,9.837-20.823,14.148c-2.071,1.139-4.207,2.229-6.372,3.292H133.54v19.967
			c-32.049-2.249-61.883-10.296-85.452-23.259c-7.837-4.311-14.796-9.05-20.823-14.147v26.565v2.032
			c0,14.957,11.978,30.383,32.866,42.318c19.931,11.388,45.513,18.566,73.408,20.771v35.008
			c-43.272-2.959-80.805-16.199-106.274-35.811v37.279c0,14.957,11.978,30.383,32.866,42.317
			c19.931,11.389,45.513,18.566,73.408,20.771v29.826h361.282V171.636H276.829z"/>
	</g>
</g>
<g>
	<g>
		<path d="M116.364,410.182v11.636c0,25.665,20.88,46.545,46.545,46.545h302.545c25.665,0,46.545-20.88,46.545-46.545v-11.636
			H116.364z"/>
	</g>
</g>
<g>
</g>
<g>
</g>
<g>
</g>
<g>
</g>
<g>
</g>
<g>
</g>
<g>
</g>
<g>
</g>
<g>
</g>
<g>
</g>
<g>
</g>
<g>
</g>
<g>
</g>
<g>
</g>
<g>
</g>
</svg>
