<?xml version="1.0" encoding="iso-8859-1"?>
<!-- Generator: Adobe Illustrator 19.0.0, SVG Export Plug-In . SVG Version: 6.00 Build 0)  -->
<svg version="1.1" id="Layer_1" xmlns="http://www.w3.org/2000/svg" xmlns:xlink="http://www.w3.org/1999/xlink" x="0px" y="0px"
	 viewBox="0 0 512 512" style="enable-background:new 0 0 512 512;" xml:space="preserve">
<g>
	<g>
		<path d="M388.741,246.519v37.826l-37.926,0.198v-37.777l-226.903-0.197l0.455-114.823c0.283-51.843,42.543-93.82,94.323-93.82
			c0.172,0,0.35,0,0.522,0.001c52.015,0.283,94.103,42.831,93.819,94.846l37.926,0.206c0.398-72.927-58.609-132.58-131.537-132.977
			C219.174,0,218.932,0,218.687,0C146.094,0,86.836,58.857,86.441,131.568l-0.455,114.969l-38.578-0.148V512h341.333V284.444h37.926
			v-37.926H388.741z M237.037,416.821h-37.926v-75.851h37.926V416.821z"/>
	</g>
</g>
<g>
	<g>
		<rect x="426.667" y="132.741" width="37.926" height="37.926"/>
	</g>
</g>
<g>
	<g>
		<rect x="388.741" y="170.667" width="37.926" height="37.926"/>
	</g>
</g>
<g>
	<g>
		<rect x="350.815" y="208.593" width="37.926" height="37.926"/>
	</g>
</g>
<g>
	<g>
		<rect x="312.889" y="170.667" width="37.926" height="37.926"/>
	</g>
</g>
<g>
	<g>
		<rect x="426.667" y="284.444" width="37.926" height="37.926"/>
	</g>
</g>
<g>
</g>
<g>
</g>
<g>
</g>
<g>
</g>
<g>
</g>
<g>
</g>
<g>
</g>
<g>
</g>
<g>
</g>
<g>
</g>
<g>
</g>
<g>
</g>
<g>
</g>
<g>
</g>
<g>
</g>
</svg>
