<?xml version="1.0" encoding="iso-8859-1"?>
<!-- Generator: Adobe Illustrator 19.0.0, SVG Export Plug-In . SVG Version: 6.00 Build 0)  -->
<svg version="1.1" id="Layer_1" xmlns="http://www.w3.org/2000/svg" xmlns:xlink="http://www.w3.org/1999/xlink" x="0px" y="0px"
	 viewBox="0 0 512 512" style="enable-background:new 0 0 512 512;" xml:space="preserve">
<g>
	<g>
		<path d="M324.376,231.836c-1.291-1.151-2.772-1.711-4.524-1.711h-21.315v15.198h20.343c1.932-0.001,3.644-0.517,5.231-1.576
			c1.41-0.939,2.123-2.992,2.123-6.105C326.233,234.892,325.608,232.938,324.376,231.836z"/>
	</g>
</g>
<g>
	<g>
		<path d="M328.291,274.868c-1.278-1.596-2.87-2.373-4.868-2.373h-24.888v16.822h23.752c2.297,0,4.172-0.691,5.736-2.11
			c1.527-1.387,2.269-3.369,2.269-6.057C330.291,278.607,329.638,276.551,328.291,274.868z"/>
	</g>
</g>
<g>
	<g>
		<path d="M256,0C114.84,0,0,114.842,0,256s114.84,256,256,256c141.158,0,256-114.842,256-256S397.158,0,256,0z M182.456,318.439
			l-0.303-0.813l-43.485-116.947h36.17l21.626,72.349l21.315-72.349h36.003l-43.289,117.76H182.456z M361.517,301.663
			c-2.26,3.895-5.404,7.126-9.343,9.603c-3.894,2.445-8.475,4.275-13.619,5.437c-5.1,1.151-10.573,1.736-16.267,1.736h-57.906
			V200.678h68.135c4.188,0,8.043,0.923,11.464,2.744c3.378,1.803,6.29,4.173,8.657,7.046c2.353,2.857,4.2,6.153,5.49,9.794
			c1.286,3.638,1.939,7.41,1.939,11.213c0,5.604-1.446,11.025-4.298,16.114c-2.41,4.302-5.865,7.749-10.296,10.276
			c5.507,2.102,10.015,5.322,13.429,9.601c4.006,5.024,6.037,11.813,6.037,20.179C364.932,293.036,363.785,297.753,361.517,301.663z
			"/>
	</g>
</g>
<g>
</g>
<g>
</g>
<g>
</g>
<g>
</g>
<g>
</g>
<g>
</g>
<g>
</g>
<g>
</g>
<g>
</g>
<g>
</g>
<g>
</g>
<g>
</g>
<g>
</g>
<g>
</g>
<g>
</g>
</svg>
