<?xml version="1.0" encoding="iso-8859-1"?>
<!-- Generator: Adobe Illustrator 19.0.0, SVG Export Plug-In . SVG Version: 6.00 Build 0)  -->
<svg version="1.1" id="Layer_1" xmlns="http://www.w3.org/2000/svg" xmlns:xlink="http://www.w3.org/1999/xlink" x="0px" y="0px"
	 viewBox="0 0 512 512" style="enable-background:new 0 0 512 512;" xml:space="preserve">
<g>
	<g>
		<path d="M468.38,362.081c0.128-1.693,0.193-3.404,0.193-5.129c0-37.141-30.109-67.251-67.251-67.251
			c-10.825,0-21.047,2.57-30.106,7.115l-43.27-74.945c24.961-3.212,44.417-24.67,44.417-50.469c0-25.524-19.041-46.812-43.62-50.371
			c0.128-1.693,0.193-3.404,0.193-5.129c0-37.142-30.109-67.251-67.251-67.251c-35.562,0-64.671,27.604-67.085,62.551
			c-30.286,0.32-54.964,25.189-54.964,55.546c0,26.872,19.337,49.437,44.783,54.49l-41.453,71.799
			c-6.585-2.154-13.611-3.334-20.917-3.334c-35.562,0-64.671,27.604-67.085,62.551C24.678,352.571,0,377.441,0,407.798
			c0,30.555,24.998,55.554,55.553,55.554h126.276c26.375,0,48.223-20.335,50.665-46.099H280.1
			c4.524,26.09,27.394,46.099,54.726,46.099h126.276c27.995,0,50.899-22.905,50.899-50.899
			C512,386.929,492.959,365.64,468.38,362.081z M334.236,352.251c-21.146,0.223-39.545,12.423-48.733,30.093h-62.71
			c-7.921-10.729-19.935-18.273-33.687-20.264c0.128-1.693,0.194-3.404,0.194-5.129c0-17.195-6.464-32.877-17.082-44.769
			l51.895-89.883h63.773l56.809,98.396C338.776,329.921,335.035,340.679,334.236,352.251z"/>
	</g>
</g>
<g>
</g>
<g>
</g>
<g>
</g>
<g>
</g>
<g>
</g>
<g>
</g>
<g>
</g>
<g>
</g>
<g>
</g>
<g>
</g>
<g>
</g>
<g>
</g>
<g>
</g>
<g>
</g>
<g>
</g>
</svg>
