<?xml version="1.0" encoding="iso-8859-1"?>
<!-- Generator: Adobe Illustrator 19.0.0, SVG Export Plug-In . SVG Version: 6.00 Build 0)  -->
<svg version="1.1" id="Layer_1" xmlns="http://www.w3.org/2000/svg" xmlns:xlink="http://www.w3.org/1999/xlink" x="0px" y="0px"
	 viewBox="0 0 512 512" style="enable-background:new 0 0 512 512;" xml:space="preserve">
<g>
	<g>
		<path d="M256,196.923c-14.478,0-26.256,11.779-26.256,26.256v39.385h52.513V223.18C282.256,208.702,270.478,196.923,256,196.923z"
			/>
	</g>
</g>
<g>
	<g>
		<rect x="210.051" y="301.949" width="91.897" height="52.513"/>
	</g>
</g>
<g>
	<g>
		<polygon points="369.182,0 367.59,0 367.59,91.897 459.487,91.897 459.487,90.305 		"/>
	</g>
</g>
<g>
	<g>
		<path d="M328.205,131.282V0H52.513v512h406.974V131.282H328.205z M341.333,393.846H170.667V262.564h19.692V223.18
			c0-36.194,29.447-65.641,65.641-65.641s65.641,29.447,65.641,65.641v39.385h19.692V393.846z"/>
	</g>
</g>
<g>
</g>
<g>
</g>
<g>
</g>
<g>
</g>
<g>
</g>
<g>
</g>
<g>
</g>
<g>
</g>
<g>
</g>
<g>
</g>
<g>
</g>
<g>
</g>
<g>
</g>
<g>
</g>
<g>
</g>
</svg>
