<?xml version="1.0" encoding="iso-8859-1"?>
<!-- Generator: Adobe Illustrator 19.0.0, SVG Export Plug-In . SVG Version: 6.00 Build 0)  -->
<svg version="1.1" id="Layer_1" xmlns="http://www.w3.org/2000/svg" xmlns:xlink="http://www.w3.org/1999/xlink" x="0px" y="0px"
	 viewBox="0 0 512 512" style="enable-background:new 0 0 512 512;" xml:space="preserve">
<g>
	<g>
		<path d="M377.546,120.94c0.213-2.828,0.323-5.686,0.323-8.569C377.87,50.31,327.559,0,265.5,0
			c-59.419,0-108.059,46.121-112.093,104.517c-50.601,0.534-91.837,42.089-91.837,92.811c0,51.054,41.77,92.824,92.824,92.824
			h82.164v77.202l-39.173-39.174l-27.496,27.496l86.603,86.604l85.619-85.619l-27.496-27.496l-39.171,39.174v-78.186h89.941
			c46.776,0,85.046-38.27,85.046-85.045C450.43,162.458,418.615,126.887,377.546,120.94z"/>
	</g>
</g>
<g>
	<g>
		<polygon points="392.101,388.861 392.101,473.114 119.899,473.114 119.899,388.861 81.013,388.861 81.013,512 430.987,512 
			430.987,388.861 		"/>
	</g>
</g>
<g>
</g>
<g>
</g>
<g>
</g>
<g>
</g>
<g>
</g>
<g>
</g>
<g>
</g>
<g>
</g>
<g>
</g>
<g>
</g>
<g>
</g>
<g>
</g>
<g>
</g>
<g>
</g>
<g>
</g>
</svg>
