<?xml version="1.0" encoding="iso-8859-1"?>
<!-- Generator: Adobe Illustrator 19.0.0, SVG Export Plug-In . SVG Version: 6.00 Build 0)  -->
<svg version="1.1" id="Layer_1" xmlns="http://www.w3.org/2000/svg" xmlns:xlink="http://www.w3.org/1999/xlink" x="0px" y="0px"
	 viewBox="0 0 512 512" style="enable-background:new 0 0 512 512;" xml:space="preserve">
<g>
	<g>
		<path d="M256,0C114.842,0,0,114.84,0,256s114.842,256,256,256s256-114.84,256-256S397.158,0,256,0z M368.393,310.583h-0.003
			c0,26.924-10.695,52.744-29.733,71.781c-19.039,19.038-44.857,29.733-71.781,29.733c-47.676,0-91.834-25.09-116.238-66.047
			l-37.395-62.757c-6.846-10.176-4.123-24.104,6.054-30.95c3.796-2.555,8.115-3.778,12.394-3.778c7.188,0,14.264,3.45,18.556,9.83
			l17.985,26.733c6.555,9.742,21.761,5.101,21.761-6.638V152.525c0-11.291,8.153-21.238,19.35-22.697
			c0.995-0.13,1.978-0.192,2.95-0.192c7.606,0,14.356,3.861,18.386,9.72c1.078,1.566,3.513,1.059,3.914-0.8v-16.354
			c0-12.264,10.035-22.299,22.299-22.299c0.929,0,1.872,0.057,2.823,0.176c11.253,1.402,19.477,11.374,19.477,22.713v15.763
			l0.511,0.864c0.729,1.233,2.494,1.284,3.293,0.096l0.019-0.026c4.019-5.934,10.812-9.854,18.477-9.854
			c0.929,0,1.872,0.057,2.825,0.176c11.252,1.402,19.476,11.374,19.476,22.713v52c0.842,1.947,3.442,2.259,4.752,0.591
			c4.09-5.215,10.446-8.582,17.549-8.582c0.925,0,1.863,0.057,2.812,0.175c11.257,1.396,19.487,11.37,19.487,22.714V310.583z"/>
	</g>
</g>
<g>
</g>
<g>
</g>
<g>
</g>
<g>
</g>
<g>
</g>
<g>
</g>
<g>
</g>
<g>
</g>
<g>
</g>
<g>
</g>
<g>
</g>
<g>
</g>
<g>
</g>
<g>
</g>
<g>
</g>
</svg>
