<?xml version="1.0" encoding="iso-8859-1"?>
<!-- Generator: Adobe Illustrator 19.0.0, SVG Export Plug-In . SVG Version: 6.00 Build 0)  -->
<svg xmlns="http://www.w3.org/2000/svg" xmlns:xlink="http://www.w3.org/1999/xlink" version="1.1" id="Capa_1" x="0px" y="0px" viewBox="0 0 469.333 469.333" style="enable-background:new 0 0 469.333 469.333;" xml:space="preserve">
<g>
	<g>
		<g>
			<polygon points="122.773,92.693 84.587,54.4 54.4,84.587 92.693,122.88    "/>
			<rect x="0" y="213.333" width="64" height="42.667"/>
			<polygon points="54.4,384.747 54.4,384.747 54.4,384.747    "/>
			<polygon points="414.933,84.587 414.933,84.587 384.747,54.4 346.453,92.693 376.64,122.88    "/>
			<rect x="213.333" y="1.067" width="42.667" height="62.933"/>
			<rect x="405.333" y="213.333" width="64" height="42.667"/>
			<polygon points="346.56,376.64 346.56,376.64 384.853,414.933 415.04,384.747 376.747,346.453    "/>
			<path d="M234.667,106.667c-70.72,0-128,57.28-128,128s57.28,128,128,128s128-57.28,128-128S305.387,106.667,234.667,106.667z"/>
			<rect x="213.333" y="405.333" width="42.667" height="62.933"/>
			
				<rect x="67.295" y="353.616" transform="matrix(-0.7071 -0.7071 0.7071 -0.7071 -117.8729 712.5622)" width="42.69" height="54.155"/>
		</g>
	</g>
</g>
<g>
</g>
<g>
</g>
<g>
</g>
<g>
</g>
<g>
</g>
<g>
</g>
<g>
</g>
<g>
</g>
<g>
</g>
<g>
</g>
<g>
</g>
<g>
</g>
<g>
</g>
<g>
</g>
<g>
</g>
</svg>
