<?xml version="1.0" encoding="iso-8859-1"?>
<!-- Generator: Adobe Illustrator 19.0.0, SVG Export Plug-In . SVG Version: 6.00 Build 0)  -->
<svg xmlns="http://www.w3.org/2000/svg" xmlns:xlink="http://www.w3.org/1999/xlink" version="1.1" id="Capa_1" x="0px" y="0px" viewBox="0 0 360.64 360.64" style="enable-background:new 0 0 360.64 360.64;" xml:space="preserve">
<g>
	<g>
		<g>
			<path d="M356.053,230.773L356.053,230.773c-3.094-6.08-7.573-11.307-13.44-15.787s-13.12-8.213-21.547-11.307     c-8.533-3.093-18.133-5.76-28.8-8c-7.467-1.6-13.547-3.2-18.453-4.907c-4.907-1.6-8.853-3.413-11.733-5.333     c-2.88-1.92-4.907-4.16-6.08-6.507c-1.173-2.347-1.707-5.12-1.707-8.213s0.64-5.973,1.92-8.853c1.28-2.773,3.2-5.227,5.76-7.36     c2.56-2.133,5.76-3.84,9.707-5.12c3.84-1.28,8.427-1.92,13.653-1.92c5.333,0,10.027,0.747,14.08,2.347     c4.053,1.493,7.467,3.627,10.133,6.293c2.773,2.667,4.8,5.653,6.187,8.96c1.387,3.413,2.027,6.827,2.027,10.347h41.6     c0-8.32-1.707-16.107-5.013-23.253c-3.413-7.147-8.213-13.44-14.613-18.773c-6.4-5.333-14.187-9.493-23.36-12.48     c-9.28-3.093-19.627-4.587-31.253-4.587c-10.987,0-20.907,1.493-29.653,4.48c-8.853,2.987-16.32,7.147-22.613,12.267     c-6.187,5.12-10.987,11.093-14.293,17.92s-5.013,13.973-5.013,21.44c0,7.787,1.6,14.613,4.907,20.587     c3.2,5.973,7.787,11.093,13.653,15.467c5.867,4.373,12.8,8.107,21.013,11.2c8.107,3.093,17.173,5.653,27.093,7.68     c8.32,1.707,15.04,3.52,20.267,5.44c5.227,1.92,9.173,4.053,12.053,6.293s4.8,4.587,5.76,7.147c0.96,2.56,1.493,5.333,1.493,8.32     c0,6.72-2.88,12.16-8.533,16.32c-5.76,4.16-14.08,6.293-24.96,6.293c-4.693,0-9.28-0.533-13.653-1.6     c-4.48-1.067-8.427-2.773-11.947-5.227c-3.52-2.347-6.4-5.547-8.747-9.387c-2.24-3.84-3.627-8.64-3.947-14.4h-40.427     c0,7.68,1.707,15.147,5.013,22.507c3.307,7.36,8.32,13.973,14.933,19.733c6.613,5.867,14.827,10.56,24.533,14.08     c9.707,3.627,21.013,5.44,33.6,5.44c11.307,0,21.547-1.387,30.827-4.053c9.28-2.773,17.173-6.613,23.68-11.52     c6.613-5.013,11.627-10.88,15.147-17.707c3.52-6.827,5.333-14.4,5.333-22.613C360.64,244,359.04,236.853,356.053,230.773z"/>
			<path d="M158.4,201.12L158.4,201.12c-3.413-5.12-7.787-9.813-13.12-13.973c-5.44-4.16-11.947-7.467-19.733-10.133     c6.507-2.88,12.16-6.507,17.067-10.667c4.907-4.267,8.96-8.747,12.16-13.547c3.2-4.8,5.653-9.813,7.36-15.04     c1.6-5.227,2.453-10.347,2.453-15.467c0-11.84-2.027-22.187-5.867-31.253c-3.947-8.96-9.493-16.533-16.64-22.507     s-15.68-10.56-25.707-13.653s-21.013-4.587-33.067-4.587C71.573,50.293,60.8,52,50.88,55.52c-9.92,3.52-18.453,8.32-25.6,14.507     S12.587,83.573,8.533,92c-4.053,8.427-5.973,17.707-5.973,27.627H44.8c0-5.44,0.96-10.347,2.987-14.72S52.48,96.8,56,93.813     c3.52-3.093,7.573-5.44,12.373-7.147s9.92-2.56,15.467-2.56c13.013,0,22.613,3.307,29.013,10.027     c6.293,6.72,9.493,16,9.493,28.053c0,5.76-0.853,11.093-2.56,15.787c-1.707,4.8-4.373,8.853-8,12.16     c-3.627,3.413-8.107,5.973-13.44,7.893c-5.333,1.92-11.627,2.88-18.987,2.88H54.293v33.387H79.36     c7.147,0,13.653,0.853,19.413,2.453s10.667,4.16,14.72,7.573s7.147,7.787,9.387,13.013c2.24,5.227,3.307,11.413,3.307,18.667     c0,13.227-3.733,23.36-11.307,30.293c-7.573,6.933-17.813,10.453-30.933,10.453c-6.293,0-11.947-0.853-17.067-2.667     s-9.493-4.373-13.013-7.68c-3.627-3.307-6.4-7.253-8.32-11.947c-2.027-4.587-2.987-9.707-2.987-15.36H0     c0,11.733,2.24,22.08,6.827,30.933c4.48,8.96,10.56,16.427,18.24,22.4c7.68,5.973,16.533,10.453,26.56,13.44     s20.587,4.48,31.573,4.48c12.053,0,23.253-1.707,33.707-4.907c10.347-3.307,19.413-8.107,26.987-14.4     c7.573-6.293,13.547-14.08,17.813-23.36c4.267-9.28,6.4-19.84,6.4-31.68c0-6.293-0.747-12.373-2.347-18.24     C164.16,211.787,161.707,206.24,158.4,201.12z"/>
		</g>
	</g>
</g>
<g>
</g>
<g>
</g>
<g>
</g>
<g>
</g>
<g>
</g>
<g>
</g>
<g>
</g>
<g>
</g>
<g>
</g>
<g>
</g>
<g>
</g>
<g>
</g>
<g>
</g>
<g>
</g>
<g>
</g>
</svg>
