<?xml version="1.0" encoding="iso-8859-1"?>
<!-- Generator: Adobe Illustrator 19.0.0, SVG Export Plug-In . SVG Version: 6.00 Build 0)  -->
<svg xmlns="http://www.w3.org/2000/svg" xmlns:xlink="http://www.w3.org/1999/xlink" version="1.1" id="Capa_1" x="0px" y="0px" viewBox="0 0 426.667 426.667" style="enable-background:new 0 0 426.667 426.667;" xml:space="preserve">
<g>
	<g>
		<path d="M347.627,213.333c0-65.92,11.733-131.84,35.093-194.56c0.853-2.347,1.28-4.587,1.28-6.72C384,5.013,378.987,0,370.667,0    H56c-8.32,0.107-13.333,5.013-13.333,12.053c0,2.027,0.427,4.267,1.28,6.613c23.36,62.72,35.093,128.64,35.093,194.56    c0,65.92-11.733,131.84-35.093,194.56c-0.853,2.453-1.28,4.693-1.28,6.827c0,7.04,5.013,12.053,13.333,12.053h314.667    c8.32,0,13.333-5.12,13.333-12.16c0-2.027-0.427-4.267-1.28-6.613C359.36,345.173,347.627,279.253,347.627,213.333z M329.707,384    H96.96c16.427-55.36,24.747-112.64,24.747-170.667s-8.32-115.2-24.747-170.667h232.747    c-16.427,55.36-24.747,112.64-24.747,170.667S313.28,328.533,329.707,384z"/>
	</g>
</g>
<g>
</g>
<g>
</g>
<g>
</g>
<g>
</g>
<g>
</g>
<g>
</g>
<g>
</g>
<g>
</g>
<g>
</g>
<g>
</g>
<g>
</g>
<g>
</g>
<g>
</g>
<g>
</g>
<g>
</g>
</svg>
