<?xml version="1.0" encoding="iso-8859-1"?>
<!-- Generator: Adobe Illustrator 19.0.0, SVG Export Plug-In . SVG Version: 6.00 Build 0)  -->
<svg xmlns="http://www.w3.org/2000/svg" xmlns:xlink="http://www.w3.org/1999/xlink" version="1.1" id="Capa_1" x="0px" y="0px" viewBox="0 0 426.46 426.46" style="enable-background:new 0 0 426.46 426.46;" xml:space="preserve">
<g>
	<g>
		<path d="M414.507,42.563c-2.027,0-4.267,0.427-6.613,1.28c-62.72,23.36-128.64,35.093-194.56,35.093S81.493,67.203,18.773,43.843    c-2.347-0.853-4.587-1.28-6.72-1.28C5.013,42.563,0,47.577,0,55.897v314.667c0.107,8.32,5.013,13.333,12.053,13.333    c2.027,0,4.267-0.427,6.613-1.28c62.72-23.36,128.64-35.093,194.56-35.093c65.92,0,131.84,11.733,194.56,35.093    c2.347,0.853,4.587,1.28,6.613,1.28c7.04,0,12.16-5.013,12.053-13.333V55.897C426.667,47.577,421.547,42.563,414.507,42.563z     M384,329.603c-55.36-16.427-112.64-24.747-170.667-24.747s-115.2,8.32-170.667,24.747V96.856    c55.36,16.427,112.64,24.747,170.667,24.747s115.2-8.32,170.667-24.747V329.603z"/>
	</g>
</g>
<g>
</g>
<g>
</g>
<g>
</g>
<g>
</g>
<g>
</g>
<g>
</g>
<g>
</g>
<g>
</g>
<g>
</g>
<g>
</g>
<g>
</g>
<g>
</g>
<g>
</g>
<g>
</g>
<g>
</g>
</svg>
