<?xml version="1.0" encoding="iso-8859-1"?>
<!-- Generator: Adobe Illustrator 19.0.0, SVG Export Plug-In . SVG Version: 6.00 Build 0)  -->
<svg xmlns="http://www.w3.org/2000/svg" xmlns:xlink="http://www.w3.org/1999/xlink" version="1.1" id="Capa_1" x="0px" y="0px" viewBox="0 0 426.667 426.667" style="enable-background:new 0 0 426.667 426.667;" xml:space="preserve">
<g>
	<g>
		<path d="M341.333,42.667l42.667,64h-64l-42.667-64h-42.667l42.667,64h-64l-42.667-64H128l42.667,64h-64L64,42.667H42.667    c-23.467,0-42.453,19.2-42.453,42.667L0,341.333C0,364.8,19.2,384,42.667,384H384c23.467,0,42.667-19.2,42.667-42.667V42.667    H341.333z M197.333,282.667l-26.667,58.667L144,282.667L85.333,256L144,229.333l26.667-58.667l26.667,58.667L256,256    L197.333,282.667z M318.72,212.053L318.72,212.053L298.667,256l-20.053-43.947L234.667,192l43.947-20.053L298.667,128    l20.053,43.947L362.667,192L318.72,212.053z"/>
	</g>
</g>
<g>
</g>
<g>
</g>
<g>
</g>
<g>
</g>
<g>
</g>
<g>
</g>
<g>
</g>
<g>
</g>
<g>
</g>
<g>
</g>
<g>
</g>
<g>
</g>
<g>
</g>
<g>
</g>
<g>
</g>
</svg>
