<?xml version="1.0" encoding="iso-8859-1"?>
<!-- Generator: Adobe Illustrator 19.0.0, SVG Export Plug-In . SVG Version: 6.00 Build 0)  -->
<svg xmlns="http://www.w3.org/2000/svg" xmlns:xlink="http://www.w3.org/1999/xlink" version="1.1" id="Capa_1" x="0px" y="0px" viewBox="0 0 384 384" style="enable-background:new 0 0 384 384;" xml:space="preserve">
<g>
	<g>
		<g>
			<path d="M149.333,0h-42.667c0,7.787-0.96,15.36-2.56,22.72l34.027,34.027C145.28,39.147,149.333,20.053,149.333,0z"/>
			<path d="M234.667,0H192c0,32-8,62.187-21.867,88.747L201.387,120C222.4,84.8,234.667,43.947,234.667,0z"/>
			<path d="M264,182.613l31.253,31.253C321.813,200,352,192,384,192v-42.667C340.053,149.333,299.2,161.6,264,182.613z"/>
			<path d="M361.28,279.893c7.36-1.6,14.933-2.56,22.72-2.56v-42.667c-20.053,0-39.147,4.053-56.64,11.2L361.28,279.893z"/>
			<path d="M0,27.2l60.587,60.587c-17.28,11.84-38.08,18.88-60.587,18.88v42.667c34.347,0,65.813-11.733,90.987-31.147l30.4,30.4     C88.427,175.68,46.08,192,0,192v42.667c57.92,0,110.827-21.013,151.68-55.787l53.44,53.44     c-34.773,40.853-55.787,93.76-55.787,151.68H192c0-46.08,16.32-88.427,43.413-121.493l30.4,30.4     c-19.413,25.28-31.147,56.747-31.147,91.093h42.667c0-22.507,7.04-43.307,18.987-60.587L356.907,384L384,356.8L27.2,0L0,27.2z"/>
		</g>
	</g>
</g>
<g>
</g>
<g>
</g>
<g>
</g>
<g>
</g>
<g>
</g>
<g>
</g>
<g>
</g>
<g>
</g>
<g>
</g>
<g>
</g>
<g>
</g>
<g>
</g>
<g>
</g>
<g>
</g>
<g>
</g>
</svg>
