<?xml version="1.0" encoding="iso-8859-1"?>
<!-- Generator: Adobe Illustrator 19.0.0, SVG Export Plug-In . SVG Version: 6.00 Build 0)  -->
<svg xmlns="http://www.w3.org/2000/svg" xmlns:xlink="http://www.w3.org/1999/xlink" version="1.1" id="Capa_1" x="0px" y="0px" viewBox="0 0 384 384" style="enable-background:new 0 0 384 384;" xml:space="preserve">
<g>
	<g>
		<g>
			<path d="M234.667,0H192c0,106.027-85.973,192-192,192v42.667C129.6,234.667,234.667,129.6,234.667,0z"/>
			<path d="M149.333,0h-42.667C106.667,58.88,58.88,106.667,0,106.667v42.667C82.453,149.333,149.333,82.453,149.333,0z"/>
			<path d="M64,0H0v64C35.307,64,64,35.307,64,0z"/>
			<path d="M234.667,384h42.667c0-58.88,47.787-106.667,106.667-106.667v-42.667C301.547,234.667,234.667,301.547,234.667,384z"/>
			<path d="M149.333,384H192c0-106.027,85.973-192,192-192v-42.667C254.4,149.333,149.333,254.4,149.333,384z"/>
			<path d="M320,384h64v-64C348.693,320,320,348.693,320,384z"/>
		</g>
	</g>
</g>
<g>
</g>
<g>
</g>
<g>
</g>
<g>
</g>
<g>
</g>
<g>
</g>
<g>
</g>
<g>
</g>
<g>
</g>
<g>
</g>
<g>
</g>
<g>
</g>
<g>
</g>
<g>
</g>
<g>
</g>
</svg>
