<?xml version="1.0" encoding="iso-8859-1"?>
<!-- Generator: Adobe Illustrator 19.0.0, SVG Export Plug-In . SVG Version: 6.00 Build 0)  -->
<svg xmlns="http://www.w3.org/2000/svg" xmlns:xlink="http://www.w3.org/1999/xlink" version="1.1" id="Capa_1" x="0px" y="0px" viewBox="0 0 469.333 469.333" style="enable-background:new 0 0 469.333 469.333;" xml:space="preserve">
<g>
	<g>
		<g>
			<path d="M85.333,149.333C38.187,149.333,0,187.52,0,234.667S38.187,320,85.333,320s85.333-38.187,85.333-85.333     S132.48,149.333,85.333,149.333z"/>
			<path d="M341.333,106.667c-70.72,0-128,57.28-128,128s57.28,128,128,128s128-57.28,128-128S412.053,106.667,341.333,106.667z      M341.333,320C294.187,320,256,281.813,256,234.667s38.187-85.333,85.333-85.333s85.333,38.187,85.333,85.333     S388.48,320,341.333,320z"/>
		</g>
	</g>
</g>
<g>
</g>
<g>
</g>
<g>
</g>
<g>
</g>
<g>
</g>
<g>
</g>
<g>
</g>
<g>
</g>
<g>
</g>
<g>
</g>
<g>
</g>
<g>
</g>
<g>
</g>
<g>
</g>
<g>
</g>
</svg>
