<?xml version="1.0" encoding="iso-8859-1"?>
<!-- Generator: Adobe Illustrator 19.0.0, SVG Export Plug-In . SVG Version: 6.00 Build 0)  -->
<svg xmlns="http://www.w3.org/2000/svg" xmlns:xlink="http://www.w3.org/1999/xlink" version="1.1" id="Capa_1" x="0px" y="0px" viewBox="0 0 429.867 429.867" style="enable-background:new 0 0 429.867 429.867;" xml:space="preserve">
<g>
	<g>
		<g>
			<path d="M343.467,267.733v-42.667H368l18.133,42.667h32l-19.2-44.8c11.733-5.333,19.2-16,19.2-29.867v-21.333     c0-18.133-13.867-32-32-32h-74.667v104.533l23.467,23.467H343.467z M343.467,171.733h42.667v21.333h-42.667V171.733z"/>
			<path d="M247.467,171.733v8.533l32,32v-40.533c0-18.133-13.867-32-32-32h-40.533l32,32H247.467z"/>
			<polygon points="172.8,150.4 22.4,0 0,22.4 117.333,139.733 108.8,139.733 108.8,182.4 66.133,182.4 66.133,139.733      34.133,139.733 34.133,267.733 66.133,267.733 66.133,214.4 108.8,214.4 108.8,267.733 140.8,267.733 140.8,163.2 172.8,195.2      172.8,267.733 245.333,267.733 407.467,429.867 429.867,407.467    "/>
		</g>
	</g>
</g>
<g>
</g>
<g>
</g>
<g>
</g>
<g>
</g>
<g>
</g>
<g>
</g>
<g>
</g>
<g>
</g>
<g>
</g>
<g>
</g>
<g>
</g>
<g>
</g>
<g>
</g>
<g>
</g>
<g>
</g>
</svg>
