<?xml version="1.0" encoding="iso-8859-1"?>
<!-- Generator: Adobe Illustrator 19.0.0, SVG Export Plug-In . SVG Version: 6.00 Build 0)  -->
<svg xmlns="http://www.w3.org/2000/svg" xmlns:xlink="http://www.w3.org/1999/xlink" version="1.1" id="Capa_1" x="0px" y="0px" viewBox="0 0 426.667 426.667" style="enable-background:new 0 0 426.667 426.667;" xml:space="preserve">
<g>
	<g>
		<path d="M384,0H42.667C19.093,0,0,19.093,0,42.667V384c0,23.573,19.093,42.667,42.667,42.667H384    c23.573,0,42.667-19.093,42.667-42.667V42.667C426.667,19.093,407.573,0,384,0z M128,384H42.667v-85.333H128V384z M128,256H42.667    v-85.333H128V256z M128,128H42.667V42.667H128V128z M256,384h-85.333v-85.333H256V384z M256,256h-85.333v-85.333H256V256z     M256,128h-85.333V42.667H256V128z M384,384h-85.333v-85.333H384V384z M384,256h-85.333v-85.333H384V256z M384,128h-85.333V42.667    H384V128z"/>
	</g>
</g>
<g>
</g>
<g>
</g>
<g>
</g>
<g>
</g>
<g>
</g>
<g>
</g>
<g>
</g>
<g>
</g>
<g>
</g>
<g>
</g>
<g>
</g>
<g>
</g>
<g>
</g>
<g>
</g>
<g>
</g>
</svg>
