<?xml version="1.0" encoding="iso-8859-1"?>
<!-- Generator: Adobe Illustrator 19.0.0, SVG Export Plug-In . SVG Version: 6.00 Build 0)  -->
<svg xmlns="http://www.w3.org/2000/svg" xmlns:xlink="http://www.w3.org/1999/xlink" version="1.1" id="Capa_1" x="0px" y="0px" viewBox="0 0 424.533 424.533" style="enable-background:new 0 0 424.533 424.533;" xml:space="preserve">
<g>
	<g>
		<g>
			<path d="M347.2,47.147C315.627,21.333,276.48,4.267,233.6,0v43.093c31.147,3.947,59.52,16.213,83.2,34.56L347.2,47.147z"/>
			<path d="M190.933,43.093V0c-42.88,4.267-81.92,21.333-113.6,47.147l30.4,30.4C131.413,59.307,159.787,46.933,190.933,43.093z"/>
			<path d="M381.44,190.933h43.093c-4.267-42.88-21.333-81.92-47.147-113.6l-30.4,30.4     C365.227,131.413,377.6,159.787,381.44,190.933z"/>
			<path d="M77.653,107.733l-30.4-30.4c-25.92,31.68-42.987,70.72-47.253,113.6h43.093C47.04,159.787,59.307,131.413,77.653,107.733     z"/>
			<path d="M233.6,381.44L233.6,381.44l0,43.093c42.88-4.267,81.92-21.333,113.6-47.147l-30.4-30.4     C293.12,365.227,264.747,377.493,233.6,381.44z"/>
			<path d="M346.88,316.693l30.4,30.4c25.92-31.573,42.987-70.613,47.253-113.493H381.44     C377.6,264.64,365.227,293.12,346.88,316.693z"/>
			<path d="M276.267,212.267c0-35.307-28.693-64-64-64s-64,28.693-64,64s28.693,64,64,64S276.267,247.573,276.267,212.267z"/>
			<path d="M43.093,233.6L43.093,233.6L0,233.6c4.267,42.88,21.333,81.92,47.147,113.6l30.4-30.4     C59.307,293.12,47.04,264.64,43.093,233.6z"/>
			<path d="M77.333,377.387c31.68,25.813,70.72,42.88,113.6,47.147V381.44c-31.147-3.947-59.52-16.213-83.2-34.56L77.333,377.387z"/>
		</g>
	</g>
</g>
<g>
</g>
<g>
</g>
<g>
</g>
<g>
</g>
<g>
</g>
<g>
</g>
<g>
</g>
<g>
</g>
<g>
</g>
<g>
</g>
<g>
</g>
<g>
</g>
<g>
</g>
<g>
</g>
<g>
</g>
</svg>
