<?xml version="1.0" encoding="iso-8859-1"?>
<!-- Generator: Adobe Illustrator 19.0.0, SVG Export Plug-In . SVG Version: 6.00 Build 0)  -->
<svg xmlns="http://www.w3.org/2000/svg" xmlns:xlink="http://www.w3.org/1999/xlink" version="1.1" id="Capa_1" x="0px" y="0px" viewBox="0 0 426.667 426.667" style="enable-background:new 0 0 426.667 426.667;" xml:space="preserve">
<g>
	<g>
		<g>
			<path d="M384,0H42.667C19.093,0,0,19.093,0,42.667V384c0,23.573,19.093,42.667,42.667,42.667H384     c23.573,0,42.667-19.093,42.667-42.667V42.667C426.667,19.093,407.573,0,384,0z M64,64h128v42.667H64V64z M384,384H42.667     L384,42.667V384z"/>
			<polygon points="277.333,320 277.333,362.667 320,362.667 320,320 362.667,320 362.667,277.333 320,277.333 320,234.667      277.333,234.667 277.333,277.333 234.667,277.333 234.667,320    "/>
		</g>
	</g>
</g>
<g>
</g>
<g>
</g>
<g>
</g>
<g>
</g>
<g>
</g>
<g>
</g>
<g>
</g>
<g>
</g>
<g>
</g>
<g>
</g>
<g>
</g>
<g>
</g>
<g>
</g>
<g>
</g>
<g>
</g>
</svg>
