<?xml version="1.0" encoding="iso-8859-1"?>
<!-- Generator: Adobe Illustrator 19.0.0, SVG Export Plug-In . SVG Version: 6.00 Build 0)  -->
<svg xmlns="http://www.w3.org/2000/svg" xmlns:xlink="http://www.w3.org/1999/xlink" version="1.1" id="Capa_1" x="0px" y="0px" viewBox="0 0 512 512" style="enable-background:new 0 0 512 512;" xml:space="preserve">
<g>
	<g>
		<g>
			<rect x="298.667" y="426.667" width="106.667" height="42.667"/>
			<polygon points="106.667,426.667 106.667,469.333 213.333,469.333 213.333,512 277.333,448 213.333,384 213.333,426.667    "/>
			<path d="M362.667,0H149.333c-23.573,0-42.667,19.093-42.667,42.667v298.667c0,23.573,19.093,42.667,42.667,42.667h64h149.333     c23.573,0,42.667-19.093,42.667-42.667V42.667C405.333,19.093,386.24,0,362.667,0z M362.667,266.667     c0-35.52-71.147-53.333-106.667-53.333s-106.667,17.813-106.667,53.333v-224h213.333V266.667z"/>
			<path d="M256,170.667c23.573,0,42.667-19.093,42.667-42.667c0-23.573-19.093-42.667-42.667-42.667S213.44,104.427,213.44,128     C213.547,151.573,232.427,170.667,256,170.667z"/>
		</g>
	</g>
</g>
<g>
</g>
<g>
</g>
<g>
</g>
<g>
</g>
<g>
</g>
<g>
</g>
<g>
</g>
<g>
</g>
<g>
</g>
<g>
</g>
<g>
</g>
<g>
</g>
<g>
</g>
<g>
</g>
<g>
</g>
</svg>
