<?xml version="1.0" encoding="iso-8859-1"?>
<!-- Generator: Adobe Illustrator 19.0.0, SVG Export Plug-In . SVG Version: 6.00 Build 0)  -->
<svg xmlns="http://www.w3.org/2000/svg" xmlns:xlink="http://www.w3.org/1999/xlink" version="1.1" id="Capa_1" x="0px" y="0px" viewBox="0 0 482.773 482.773" style="enable-background:new 0 0 482.773 482.773;" xml:space="preserve">
<g>
	<g>
		<path d="M412.053,170.667V70.72h-99.947L241.387,0l-70.72,70.72H70.72v99.947L0,241.387l70.72,70.72v99.947h99.947l70.72,70.72    l70.72-70.72h99.947v-99.947l70.72-70.72L412.053,170.667z M241.387,369.387c-19.093,0-37.12-4.267-53.333-11.733    c44.053-20.267,74.667-64.64,74.667-116.267s-30.613-96-74.667-116.267c16.213-7.467,34.24-11.733,53.333-11.733    c70.72,0,128,57.28,128,128S312.107,369.387,241.387,369.387z"/>
	</g>
</g>
<g>
</g>
<g>
</g>
<g>
</g>
<g>
</g>
<g>
</g>
<g>
</g>
<g>
</g>
<g>
</g>
<g>
</g>
<g>
</g>
<g>
</g>
<g>
</g>
<g>
</g>
<g>
</g>
<g>
</g>
</svg>
