<?xml version="1.0" encoding="iso-8859-1"?>
<!-- Generator: Adobe Illustrator 19.0.0, SVG Export Plug-In . SVG Version: 6.00 Build 0)  -->
<svg xmlns="http://www.w3.org/2000/svg" xmlns:xlink="http://www.w3.org/1999/xlink" version="1.1" id="Capa_1" x="0px" y="0px" viewBox="0 0 384 384" style="enable-background:new 0 0 384 384;" xml:space="preserve">
<g>
	<g>
		<g>
			<path d="M128,213.333c11.733,0,21.333-9.6,21.333-21.333s-9.6-21.333-21.333-21.333s-21.333,9.6-21.333,21.333     S116.267,213.333,128,213.333z"/>
			<path d="M42.667,309.333c17.707,0,32-14.293,32-32c0-17.707-14.293-32-32-32s-32,14.293-32,32     C10.667,295.04,24.96,309.333,42.667,309.333z"/>
			<path d="M128,128c11.733,0,21.333-9.6,21.333-21.333s-9.6-21.333-21.333-21.333s-21.333,9.6-21.333,21.333S116.267,128,128,128z"/>
			<path d="M128,298.667c11.733,0,21.333-9.6,21.333-21.333c0-11.733-9.6-21.333-21.333-21.333s-21.333,9.6-21.333,21.333     S116.267,298.667,128,298.667z"/>
			<path d="M42.667,138.667c17.707,0,32-14.293,32-32s-14.293-32-32-32s-32,14.293-32,32S24.96,138.667,42.667,138.667z"/>
			<rect x="0" y="341.333" width="384" height="42.667"/>
			<path d="M42.667,224c17.707,0,32-14.293,32-32s-14.293-32-32-32s-32,14.293-32,32S24.96,224,42.667,224z"/>
			<path d="M213.333,298.667c11.733,0,21.333-9.6,21.333-21.333c0-11.733-9.6-21.333-21.333-21.333S192,265.6,192,277.333     S201.6,298.667,213.333,298.667z"/>
			<path d="M298.667,288c5.867,0,10.667-4.8,10.667-10.667c0-5.867-4.8-10.667-10.667-10.667S288,271.467,288,277.333     C288,283.2,292.8,288,298.667,288z"/>
			<rect x="0" y="0" width="384" height="42.667"/>
			<path d="M213.333,213.333c11.733,0,21.333-9.6,21.333-21.333s-9.6-21.333-21.333-21.333S192,180.267,192,192     S201.6,213.333,213.333,213.333z"/>
			<path d="M298.667,117.333c5.867,0,10.667-4.8,10.667-10.667c0-5.867-4.8-10.667-10.667-10.667S288,100.8,288,106.667     C288,112.533,292.8,117.333,298.667,117.333z"/>
			<path d="M213.333,128c11.733,0,21.333-9.6,21.333-21.333s-9.6-21.333-21.333-21.333S192,94.933,192,106.667     S201.6,128,213.333,128z"/>
			<path d="M298.667,202.667c5.867,0,10.667-4.8,10.667-10.667s-4.8-10.667-10.667-10.667S288,186.133,288,192     S292.8,202.667,298.667,202.667z"/>
		</g>
	</g>
</g>
<g>
</g>
<g>
</g>
<g>
</g>
<g>
</g>
<g>
</g>
<g>
</g>
<g>
</g>
<g>
</g>
<g>
</g>
<g>
</g>
<g>
</g>
<g>
</g>
<g>
</g>
<g>
</g>
<g>
</g>
</svg>
