<?xml version="1.0" encoding="iso-8859-1"?>
<!-- Generator: Adobe Illustrator 19.0.0, SVG Export Plug-In . SVG Version: 6.00 Build 0)  -->
<svg version="1.1" id="Layer_1" xmlns="http://www.w3.org/2000/svg" xmlns:xlink="http://www.w3.org/1999/xlink" x="0px" y="0px"
	 viewBox="0 0 512 512" style="enable-background:new 0 0 512 512;" xml:space="preserve">
<g>
	<g>
		<path d="M298.416,379.084c-3.527-5.26-9.774-8.847-17.141-9.84c-18.182-2.459-36.697-3.704-55.04-3.704
			c-18.343,0-36.86,1.245-55.038,3.703c-7.375,0.994-13.623,4.579-17.151,9.84c-1.344,2.005-3.422,6.056-2.221,10.659
			c2.274,8.755,11.17,15.094,21.159,15.094c1.019,0,2.046-0.068,3.052-0.2c16.544-2.239,33.448-3.376,50.195-3.376
			c16.747,0,33.651,1.137,50.246,3.383c0.955,0.125,1.982,0.193,3.004,0.193c9.986,0.001,18.881-6.339,21.15-15.075
			C301.838,385.139,299.761,381.089,298.416,379.084z"/>
	</g>
</g>
<g>
	<g>
		<path d="M449.648,291.721c1.846-11.637,2.817-23.565,2.817-35.721c0-124.945-101.288-226.233-226.233-226.233S0,131.055,0,256
			s101.288,226.233,226.233,226.233c64.333,0,122.392-26.855,163.585-69.963c-5.615-11.207-8.794-23.835-8.794-37.2
			c0-6.565-5.341-11.907-11.907-11.907h-23.814v-71.442H449.648z M294.023,97.278c41.26,21.506,78.247,52.286,106.959,89.013
			l-28.142,22.001c-25.594-32.736-58.557-60.171-95.327-79.336L294.023,97.278z M51.483,186.291
			c28.712-36.727,65.699-67.507,106.959-89.013l16.51,31.677c-36.77,19.165-69.734,46.6-95.327,79.336L51.483,186.291z
			 M103.205,216.193c0.202,0.1,20.541,10.04,39.678,10.04c19.064,0,39.441-9.921,39.641-10.021l15.974,31.949
			c-1.126,0.564-27.904,13.793-55.615,13.793c-27.711,0-54.489-13.229-55.615-13.793L103.205,216.193z M335.203,398.761
			c-6.39,24.601-29.304,41.796-55.718,41.796c-0.001,0-0.001,0-0.004,0c-2.581,0-5.187-0.17-7.74-0.51
			c-15.063-2.037-30.358-3.066-45.508-3.066c-15.15,0-30.445,1.029-45.458,3.059c-2.605,0.345-5.208,0.517-7.789,0.517
			c-26.417,0-49.332-17.195-55.727-41.815c-3.504-13.427-0.975-27.484,7.124-39.559c9.222-13.748,24.544-22.984,42.039-25.34
			c19.749-2.669,39.878-4.025,59.815-4.025c19.938,0,40.063,1.355,59.818,4.027c17.485,2.356,32.807,11.591,42.029,25.339
			C336.183,371.26,338.711,385.313,335.203,398.761z M309.58,261.953c-27.711,0-54.489-13.229-55.615-13.793l15.938-31.968
			c0.202,0.1,20.541,10.04,39.678,10.04c19.064,0,39.441-9.921,39.641-10.021l15.974,31.949
			C364.069,248.725,337.291,261.953,309.58,261.953z"/>
	</g>
</g>
<g>
	<g>
		<path d="M464.372,327.442h-83.349v1.5c20.542,5.288,35.721,23.935,35.721,46.128c0,26.305,21.324,47.628,47.628,47.628
			S512,401.375,512,375.07S490.676,327.442,464.372,327.442z"/>
	</g>
</g>
<g>
</g>
<g>
</g>
<g>
</g>
<g>
</g>
<g>
</g>
<g>
</g>
<g>
</g>
<g>
</g>
<g>
</g>
<g>
</g>
<g>
</g>
<g>
</g>
<g>
</g>
<g>
</g>
<g>
</g>
</svg>
