<?xml version="1.0" encoding="iso-8859-1"?>
<!-- Generator: Adobe Illustrator 19.0.0, SVG Export Plug-In . SVG Version: 6.00 Build 0)  -->
<svg version="1.1" id="Layer_1" xmlns="http://www.w3.org/2000/svg" xmlns:xlink="http://www.w3.org/1999/xlink" x="0px" y="0px"
	 viewBox="0 0 512 512" style="enable-background:new 0 0 512 512;" xml:space="preserve">
<g>
	<g>
		<path d="M256,0C114.615,0,0,114.615,0,256s114.615,256,256,256c141.386,0,256-114.615,256-256S397.386,0,256,0z M67.01,180.348
			c32.842-30.829,73.064-53.345,116.316-65.113l10.612,39.002c-36.898,10.039-71.222,29.259-99.263,55.582L67.01,180.348z
			 M94.316,222.316h107.789v40.421c0,22.323-10.557,40.421-23.579,40.421c-13.022,0-23.579-18.098-23.579-40.421H94.316V222.316z
			 M258.083,424.404c-8.053,0-16.199-0.691-24.391-2.096l-79.638-13.146l6.583-39.882l79.766,13.167
			c38.325,6.587,74.043-7.966,98.118-39.882l32.269,24.343C342.899,403.883,301.976,424.404,258.083,424.404z M417.684,262.737
			c0,22.323-10.557,40.421-23.579,40.421c-13.021,0-23.579-18.098-23.579-40.421h-60.632v-40.421h107.789V262.737z M417.326,209.82
			c-28.042-26.322-62.366-45.542-99.263-55.582l10.612-39.002c43.252,11.767,83.474,34.282,116.316,65.113L417.326,209.82z"/>
	</g>
</g>
<g>
</g>
<g>
</g>
<g>
</g>
<g>
</g>
<g>
</g>
<g>
</g>
<g>
</g>
<g>
</g>
<g>
</g>
<g>
</g>
<g>
</g>
<g>
</g>
<g>
</g>
<g>
</g>
<g>
</g>
</svg>
