<?xml version="1.0" encoding="iso-8859-1"?>
<!-- Generator: Adobe Illustrator 19.0.0, SVG Export Plug-In . SVG Version: 6.00 Build 0)  -->
<svg version="1.1" id="Layer_1" xmlns="http://www.w3.org/2000/svg" xmlns:xlink="http://www.w3.org/1999/xlink" x="0px" y="0px"
	 viewBox="0 0 512 512" style="enable-background:new 0 0 512 512;" xml:space="preserve">
<g>
	<g>
		<path d="M323.368,181.895c-3.715,0-6.737,3.022-6.737,6.737v40.421c0,33.434,27.198,60.632,60.632,60.632
			s60.632-27.198,60.632-60.632v-40.421c0-2.286,0.163-4.535,0.48-6.737H323.368z"/>
	</g>
</g>
<g>
	<g>
		<path d="M188.632,181.895H73.626c0.317,2.202,0.48,4.45,0.48,6.737v40.421c0,33.434,27.199,60.632,60.632,60.632
			c33.432,0,60.632-27.198,60.632-60.632v-40.421C195.368,184.917,192.346,181.895,188.632,181.895z"/>
	</g>
</g>
<g>
	<g>
		<path d="M256,0C155.787,0,69.038,57.591,27.004,141.474h161.628c16.15,0,30.425,8.165,38.93,20.578
			c8.486-4.529,18.165-7.105,28.439-7.105s19.953,2.576,28.439,7.105c8.505-12.413,22.78-20.578,38.93-20.578h161.629
			C442.964,57.591,356.213,0,256,0z"/>
	</g>
</g>
<g>
	<g>
		<path d="M485.053,141.587v40.308c-3.715,0-6.737,3.022-6.737,6.737v40.421c0,55.72-45.332,101.053-101.053,101.053
			s-101.053-45.332-101.053-101.053v-13.474c0-11.144-9.066-20.211-20.211-20.211c-11.144,0-20.211,9.066-20.211,20.211v13.474
			c0,55.72-45.332,101.053-101.053,101.053c-55.72,0-101.053-45.332-101.053-101.053v-40.421c0-3.715-3.022-6.737-6.737-6.737
			v-40.308C9.713,176.022,0,214.874,0,256c0,141.385,114.615,256,256,256c141.386,0,256-114.615,256-256
			C512,214.874,502.287,176.022,485.053,141.587z M256,437.895c-53.61,0-100.62-29.082-125.75-77.794l35.921-18.532
			c18.331,35.529,51.071,55.905,89.829,55.905c38.757,0,71.497-20.376,89.829-55.906l35.921,18.534
			C356.619,408.813,309.609,437.895,256,437.895z"/>
	</g>
</g>
<g>
</g>
<g>
</g>
<g>
</g>
<g>
</g>
<g>
</g>
<g>
</g>
<g>
</g>
<g>
</g>
<g>
</g>
<g>
</g>
<g>
</g>
<g>
</g>
<g>
</g>
<g>
</g>
<g>
</g>
</svg>
