<?xml version="1.0" encoding="iso-8859-1"?>
<!-- Generator: Adobe Illustrator 19.0.0, SVG Export Plug-In . SVG Version: 6.00 Build 0)  -->
<svg version="1.1" id="Layer_1" xmlns="http://www.w3.org/2000/svg" xmlns:xlink="http://www.w3.org/1999/xlink" x="0px" y="0px"
	 viewBox="0 0 512 512" style="enable-background:new 0 0 512 512;" xml:space="preserve">
<g>
	<g>
		<path d="M302.945,357.053h-93.89c-0.135,2.223-0.213,4.468-0.213,6.737c0,40.17,21.596,74.105,47.158,74.105
			s47.158-33.935,47.158-74.105C303.158,361.521,303.078,359.276,302.945,357.053z"/>
	</g>
</g>
<g>
	<g>
		<path d="M256,289.684c-14.279,0-27.317,10.596-36.049,26.947h72.098C283.317,300.28,270.279,289.684,256,289.684z"/>
	</g>
</g>
<g>
	<g>
		<path d="M256,0C114.615,0,0,114.615,0,256c0,83.142,39.646,157.013,101.053,203.777V235.789H80.842v-40.421h107.789v40.421
			h-47.158v249.207C175.935,502.265,214.828,512,256,512c41.172,0,80.065-9.735,114.526-27.004V235.789h-47.158v-40.421h107.789
			v40.421h-20.211v223.988C472.354,413.013,512,339.142,512,256C512,114.615,397.385,0,256,0z M81.202,182.873l-27.666-29.471
			c32.844-30.829,73.065-53.345,116.316-65.113l10.613,39.002C143.566,137.331,109.242,156.549,81.202,182.873z M343.579,363.789
			c0,29.37-8.344,57.227-23.497,78.438c-16.381,22.934-39.739,36.088-64.082,36.088s-47.701-13.154-64.082-36.088
			c-15.152-21.212-23.497-49.068-23.497-78.438s8.344-57.227,23.497-78.438c16.381-22.934,39.739-36.088,64.082-36.088
			s47.701,13.154,64.082,36.088C335.235,306.563,343.579,334.42,343.579,363.789z M430.798,182.873
			c-28.04-26.322-62.366-45.542-99.263-55.582l10.613-39.002c43.252,11.767,83.472,34.282,116.316,65.113L430.798,182.873z"/>
	</g>
</g>
<g>
</g>
<g>
</g>
<g>
</g>
<g>
</g>
<g>
</g>
<g>
</g>
<g>
</g>
<g>
</g>
<g>
</g>
<g>
</g>
<g>
</g>
<g>
</g>
<g>
</g>
<g>
</g>
<g>
</g>
</svg>
