<?xml version="1.0" encoding="iso-8859-1"?>
<!-- Generator: Adobe Illustrator 19.0.0, SVG Export Plug-In . SVG Version: 6.00 Build 0)  -->
<svg version="1.1" id="Layer_1" xmlns="http://www.w3.org/2000/svg" xmlns:xlink="http://www.w3.org/1999/xlink" x="0px" y="0px"
	 viewBox="0 0 512 512" style="enable-background:new 0 0 512 512;" xml:space="preserve">
<g>
	<g>
		<path d="M256,0C114.615,0,0,114.615,0,256s114.615,256,256,256c141.386,0,256-114.615,256-256S397.386,0,256,0z M93.956,281.686
			c32.842-30.829,73.064-53.345,116.316-65.114l10.613,39.002c-36.899,10.041-71.223,29.259-99.263,55.582L93.956,281.686z
			 M304.133,409.894c-8.422-26.121-24.618-39.367-48.133-39.367c-23.442,0-39.215,12.964-48.22,39.632l-38.298-12.932
			c7.685-22.761,19.829-40.146,36.093-51.674c14.256-10.105,31.694-15.446,50.424-15.446c41.231,0,72.796,24.56,86.603,67.385
			L304.133,409.894z M390.378,311.156c-28.043-26.322-62.367-45.542-99.265-55.582l10.613-39.002
			c43.252,11.768,83.472,34.284,116.314,65.114L390.378,311.156z"/>
	</g>
</g>
<g>
</g>
<g>
</g>
<g>
</g>
<g>
</g>
<g>
</g>
<g>
</g>
<g>
</g>
<g>
</g>
<g>
</g>
<g>
</g>
<g>
</g>
<g>
</g>
<g>
</g>
<g>
</g>
<g>
</g>
</svg>
