<?xml version="1.0" encoding="iso-8859-1"?>
<!-- Generator: Adobe Illustrator 19.0.0, SVG Export Plug-In . SVG Version: 6.00 Build 0)  -->
<svg version="1.1" id="Layer_1" xmlns="http://www.w3.org/2000/svg" xmlns:xlink="http://www.w3.org/1999/xlink" x="0px" y="0px"
	 viewBox="0 0 512 512" style="enable-background:new 0 0 512 512;" xml:space="preserve">
<g>
	<g>
		<path d="M410.947,282.947c-11.144,0-20.211,9.066-20.211,20.211c0,11.144,9.066,20.211,20.211,20.211s20.211-9.066,20.211-20.211
			C431.158,292.014,422.091,282.947,410.947,282.947z"/>
	</g>
</g>
<g>
	<g>
		<path d="M256,0C114.615,0,0,114.615,0,256s114.615,256,256,256c141.386,0,256-114.615,256-256S397.386,0,256,0z M282.947,101.053
			c55.989,0,115.88,10.974,156.303,28.638l-16.186,37.038c-35.108-15.341-90.108-25.255-140.117-25.255V101.053z M282.947,181.895
			c27.996,0,56.944,0,100.157,13.34l-11.923,38.622c-37.388-11.542-62.085-11.542-88.234-11.542V181.895z M229.053,101.053v40.421
			c-50.009,0-105.01,9.914-140.118,25.256L72.75,129.691C113.172,112.027,173.064,101.053,229.053,101.053z M229.053,181.895v40.421
			c-26.148,0-50.846,0-88.234,11.542l-11.923-38.622C172.109,181.895,201.057,181.895,229.053,181.895z M101.053,363.789
			c-33.432,0-60.632-27.199-60.632-60.632s27.199-60.632,60.632-60.632c33.432,0,60.632,27.199,60.632,60.632
			S134.485,363.789,101.053,363.789z M306.424,408.456c-14.257,10.105-31.693,15.446-50.424,15.446
			c-41.229,0-72.796-24.561-86.603-67.385l38.471-12.404c8.422,26.123,24.616,39.367,48.133,39.367
			c23.442,0,39.215-12.963,48.22-39.631l38.298,12.932C334.831,379.543,322.688,396.928,306.424,408.456z M410.947,363.789
			c-33.432,0-60.632-27.199-60.632-60.632s27.199-60.632,60.632-60.632s60.632,27.199,60.632,60.632S444.38,363.789,410.947,363.789
			z"/>
	</g>
</g>
<g>
	<g>
		<path d="M101.053,282.947c-11.144,0-20.211,9.066-20.211,20.211c0,11.144,9.066,20.211,20.211,20.211
			c11.144,0,20.211-9.066,20.211-20.211C121.263,292.014,112.197,282.947,101.053,282.947z"/>
	</g>
</g>
<g>
</g>
<g>
</g>
<g>
</g>
<g>
</g>
<g>
</g>
<g>
</g>
<g>
</g>
<g>
</g>
<g>
</g>
<g>
</g>
<g>
</g>
<g>
</g>
<g>
</g>
<g>
</g>
<g>
</g>
</svg>
