<?xml version="1.0" encoding="iso-8859-1"?>
<!-- Generator: Adobe Illustrator 19.0.0, SVG Export Plug-In . SVG Version: 6.00 Build 0)  -->
<svg version="1.1" id="Layer_1" xmlns="http://www.w3.org/2000/svg" xmlns:xlink="http://www.w3.org/1999/xlink" x="0px" y="0px"
	 viewBox="0 0 512 512" style="enable-background:new 0 0 512 512;" xml:space="preserve">
<g>
	<g>
		<path d="M256,282.947c-71.283,0-124.667-2.881-153.384-4.904c1.578,11.032,4.332,21.691,8.114,31.852h290.541
			c3.782-10.161,6.536-20.818,8.114-31.852C380.667,280.067,327.283,282.947,256,282.947z"/>
	</g>
</g>
<g>
	<g>
		<path d="M133.143,350.316c28.353,36.845,72.879,60.632,122.857,60.632c49.978,0,94.504-23.786,122.857-60.632H133.143z"/>
	</g>
</g>
<g>
	<g>
		<path d="M256,0C114.615,0,0,114.615,0,256s114.615,256,256,256s256-114.615,256-256S397.385,0,256,0z M310.06,101
			c13.886-12.152,27.554-22.422,28.129-22.853l24.253,32.337c-17.683,13.272-35.486,28.951-43.168,37.726
			c7.683,8.775,25.485,24.455,43.171,37.729l-24.255,32.334c-0.575-0.431-14.243-10.701-28.129-22.853
			c-28.187-24.665-33.85-36.349-33.85-47.21C276.211,137.349,281.874,125.665,310.06,101z M173.811,78.147
			c0.575,0.431,14.243,10.701,28.129,22.853c28.187,24.665,33.85,36.349,33.85,47.21c0,10.861-5.663,22.546-33.85,47.21
			c-13.886,12.152-27.554,22.422-28.129,22.853l-24.253-32.337c17.682-13.272,35.486-28.951,43.168-37.726
			c-7.683-8.775-25.485-24.455-43.171-37.728L173.811,78.147z M256,451.368c-107.726,0-195.368-87.642-195.368-195.368v-22.333
			l22.222,2.222c0.662,0.066,67.794,6.637,173.146,6.637s172.485-6.571,173.15-6.637l22.215-2.215L451.368,256
			C451.368,363.726,363.726,451.368,256,451.368z"/>
	</g>
</g>
<g>
</g>
<g>
</g>
<g>
</g>
<g>
</g>
<g>
</g>
<g>
</g>
<g>
</g>
<g>
</g>
<g>
</g>
<g>
</g>
<g>
</g>
<g>
</g>
<g>
</g>
<g>
</g>
<g>
</g>
</svg>
