<?xml version="1.0" encoding="iso-8859-1"?>
<!-- Generator: Adobe Illustrator 19.0.0, SVG Export Plug-In . SVG Version: 6.00 Build 0)  -->
<svg version="1.1" id="Layer_1" xmlns="http://www.w3.org/2000/svg" xmlns:xlink="http://www.w3.org/1999/xlink" x="0px" y="0px"
	 viewBox="0 0 512 512" style="enable-background:new 0 0 512 512;" xml:space="preserve">
<g>
	<g>
		<path d="M256,0C114.615,0,0,114.615,0,256s114.615,256,256,256c141.386,0,256-114.615,256-256S397.386,0,256,0z M296.421,208.842
			c24.071,0,51.821,3.036,84.836,9.282l-7.513,39.716c-30.51-5.771-55.801-8.577-77.323-8.577V208.842z M192,269.474
			c-13.021,0-23.579-18.098-23.579-40.421c0-22.323,10.558-40.421,23.579-40.421c13.022,0,23.579,18.098,23.579,40.421
			C215.579,251.376,205.022,269.474,192,269.474z M117.749,213.648l-29.666-27.455c32.687-35.319,71.742-62.615,119.401-83.449
			l16.19,37.036C181.224,158.339,146.575,182.501,117.749,213.648z M303.158,397.474c0,29.718-24.177,53.895-53.895,53.895h-13.474
			v-40.421h13.474c7.429,0,13.474-6.044,13.474-13.474c0-3.716-1.461-6.442-2.685-8.073l-9.118-12.137l9.118-12.137
			c1.225-1.632,2.685-4.356,2.685-8.073c0-7.429-6.044-13.474-13.474-13.474h-13.474v-40.421h13.474
			c29.718,0,53.895,24.177,53.895,53.895c0,7.031-1.331,13.852-3.909,20.211C301.827,383.621,303.158,390.443,303.158,397.474z
			 M414.216,382.844c-5.261,5.261-12.157,7.893-19.055,7.893h-65.056v-65.056c0-6.896,2.631-13.792,7.893-19.055
			c10.524-10.524,27.586-10.524,38.108-0.001c10.524,10.526,10.523,27.586,0,38.109c10.523-10.524,27.587-10.523,38.109,0
			C424.739,355.258,424.739,372.321,414.216,382.844z M423.064,216.263c-38.889-16.994-80.314-25.256-126.643-25.256v-40.421
			c52.013,0,98.732,9.368,142.831,28.638L423.064,216.263z"/>
	</g>
</g>
<g>
</g>
<g>
</g>
<g>
</g>
<g>
</g>
<g>
</g>
<g>
</g>
<g>
</g>
<g>
</g>
<g>
</g>
<g>
</g>
<g>
</g>
<g>
</g>
<g>
</g>
<g>
</g>
<g>
</g>
</svg>
