<?xml version="1.0" encoding="iso-8859-1"?>
<!-- Generator: Adobe Illustrator 19.0.0, SVG Export Plug-In . SVG Version: 6.00 Build 0)  -->
<svg version="1.1" id="Layer_1" xmlns="http://www.w3.org/2000/svg" xmlns:xlink="http://www.w3.org/1999/xlink" x="0px" y="0px"
	 viewBox="0 0 512 512" style="enable-background:new 0 0 512 512;" xml:space="preserve">
<g>
	<g>
		<path d="M256,0C114.615,0,0,114.615,0,256s114.615,256,256,256c141.386,0,256-114.615,256-256S397.386,0,256,0z M199.411,227.705
			c-13.272-17.683-28.952-35.486-37.726-43.168c-8.774,7.683-24.456,25.485-37.729,43.171l-32.334-24.255
			c0.431-0.575,10.702-14.243,22.853-28.129c24.664-28.187,36.349-33.85,47.21-33.85s22.547,5.663,47.21,33.85
			c12.151,13.886,22.422,27.554,22.853,28.129L199.411,227.705z M303.158,370.526c0,29.718-24.177,53.895-53.895,53.895h-13.474V384
			h13.474c7.429,0,13.474-6.044,13.474-13.474c0-3.716-1.461-6.442-2.685-8.073l-9.118-12.137l9.118-12.137
			c1.225-1.632,2.685-4.356,2.685-8.073c0-7.429-6.044-13.474-13.474-13.474h-13.474v-40.421h13.474
			c29.718,0,53.895,24.177,53.895,53.895c0,7.031-1.331,13.852-3.909,20.211C301.827,356.674,303.158,363.496,303.158,370.526z
			 M388.042,227.705c-13.272-17.683-28.951-35.486-37.726-43.168c-8.775,7.683-24.455,25.485-37.728,43.171l-32.336-24.255
			c0.431-0.575,10.701-14.243,22.853-28.129c24.665-28.187,36.349-33.85,47.21-33.85c10.86,0,22.546,5.663,47.21,33.85
			c12.152,13.886,22.422,27.554,22.853,28.129L388.042,227.705z"/>
	</g>
</g>
<g>
</g>
<g>
</g>
<g>
</g>
<g>
</g>
<g>
</g>
<g>
</g>
<g>
</g>
<g>
</g>
<g>
</g>
<g>
</g>
<g>
</g>
<g>
</g>
<g>
</g>
<g>
</g>
<g>
</g>
</svg>
