<?xml version="1.0" encoding="iso-8859-1"?>
<!-- Generator: Adobe Illustrator 19.0.0, SVG Export Plug-In . SVG Version: 6.00 Build 0)  -->
<svg version="1.1" id="Layer_1" xmlns="http://www.w3.org/2000/svg" xmlns:xlink="http://www.w3.org/1999/xlink" x="0px" y="0px"
	 viewBox="0 0 512 512" style="enable-background:new 0 0 512 512;" xml:space="preserve">
<g>
	<g>
		<path d="M256,282.947c-71.283,0-124.667-2.881-153.384-4.904c1.578,11.032,4.332,21.691,8.114,31.852h290.541
			c3.782-10.161,6.535-20.818,8.112-31.852C380.667,280.067,327.283,282.947,256,282.947z"/>
	</g>
</g>
<g>
	<g>
		<path d="M501.387,182.884c1.737,12.165-2.071,24.971-11.43,34.33c-15.784,15.787-41.379,15.786-57.163,0.001l-28.583-28.583
			l28.583-28.582c15.784-15.786,41.379-15.784,57.163,0c2.889,2.889,5.243,6.108,7.074,9.531C461.58,70.723,367.056,0,256,0
			C144.943,0,50.416,70.725,14.968,169.587c1.831-3.426,4.186-6.648,7.076-9.537c15.784-15.786,41.379-15.784,57.162,0
			l28.583,28.583l-28.583,28.58C63.422,233,37.829,232.999,22.043,217.215c-9.359-9.359-13.168-22.168-11.427-34.335
			C3.72,206.05,0,230.59,0,256c0,141.385,114.615,256,256,256s256-114.615,256-256C512,230.591,508.28,206.054,501.387,182.884z
			 M315.202,61.34c43.252,11.767,83.472,34.282,116.316,65.113l-27.665,29.471c-28.04-26.322-62.366-45.542-99.263-55.582
			L315.202,61.34z M282.947,168.421h107.789v40.421H282.947V168.421z M80.484,126.455c32.842-30.829,73.064-53.345,116.316-65.113
			l10.612,39.002c-36.898,10.039-71.222,29.259-99.263,55.582L80.484,126.455z M229.053,168.421v40.421H121.263v-40.421H229.053z
			 M256,451.368c-107.726,0-195.368-87.642-195.368-195.368v-22.333l22.222,2.222c0.662,0.066,67.794,6.637,173.146,6.637
			s172.485-6.571,173.15-6.637l22.215-2.215L451.368,256C451.368,363.726,363.726,451.368,256,451.368z"/>
	</g>
</g>
<g>
	<g>
		<path d="M133.143,350.316c28.353,36.845,72.879,60.632,122.857,60.632c49.978,0,94.504-23.786,122.857-60.632H133.143z"/>
	</g>
</g>
<g>
</g>
<g>
</g>
<g>
</g>
<g>
</g>
<g>
</g>
<g>
</g>
<g>
</g>
<g>
</g>
<g>
</g>
<g>
</g>
<g>
</g>
<g>
</g>
<g>
</g>
<g>
</g>
<g>
</g>
</svg>
