<?xml version="1.0" encoding="iso-8859-1"?>
<!-- Generator: Adobe Illustrator 19.0.0, SVG Export Plug-In . SVG Version: 6.00 Build 0)  -->
<svg version="1.1" id="Layer_1" xmlns="http://www.w3.org/2000/svg" xmlns:xlink="http://www.w3.org/1999/xlink" x="0px" y="0px"
	 viewBox="0 0 512 512" style="enable-background:new 0 0 512 512;" xml:space="preserve">
<g>
	<g>
		<path d="M256,0C114.615,0,0,114.615,0,256s114.615,256,256,256c141.386,0,256-114.615,256-256S397.386,0,256,0z M64.92,204.066
			c32.492-41.56,74.344-76.389,121.033-100.724l18.683,35.845c-41.608,21.687-78.909,52.731-107.872,89.775L64.92,204.066z
			 M98.75,287.55l18.034-36.175c0.229,0.115,23.243,11.361,44.898,11.361c21.573,0,44.63-11.226,44.857-11.341l18.076,36.154
			c-1.275,0.637-31.576,15.607-62.933,15.607C130.326,303.157,100.025,288.187,98.75,287.55z M306.424,408.456
			c-14.257,10.105-31.693,15.446-50.424,15.446c-41.229,0-72.796-24.561-86.603-67.385l38.471-12.403
			c8.422,26.121,24.616,39.367,48.133,39.367c23.442,0,39.215-12.963,48.22-39.631l38.298,12.932
			C334.831,379.543,322.688,396.928,306.424,408.456z M350.314,303.157c-31.357,0-61.658-14.971-62.933-15.607l18.035-36.176
			c0.229,0.115,23.243,11.361,44.898,11.361c21.573,0,44.63-11.226,44.857-11.341l18.076,36.154
			C411.973,288.187,381.672,303.157,350.314,303.157z M415.236,228.961c-28.963-37.046-66.264-68.089-107.872-89.775l18.683-35.845
			c46.689,24.336,88.541,59.166,121.033,100.724L415.236,228.961z"/>
	</g>
</g>
<g>
</g>
<g>
</g>
<g>
</g>
<g>
</g>
<g>
</g>
<g>
</g>
<g>
</g>
<g>
</g>
<g>
</g>
<g>
</g>
<g>
</g>
<g>
</g>
<g>
</g>
<g>
</g>
<g>
</g>
</svg>
