<?xml version="1.0" encoding="iso-8859-1"?>
<!-- Generator: Adobe Illustrator 19.0.0, SVG Export Plug-In . SVG Version: 6.00 Build 0)  -->
<svg version="1.1" id="Layer_1" xmlns="http://www.w3.org/2000/svg" xmlns:xlink="http://www.w3.org/1999/xlink" x="0px" y="0px"
	 viewBox="0 0 512 512" style="enable-background:new 0 0 512 512;" xml:space="preserve">
<g>
	<g>
		<path d="M256,0C114.615,0,0,114.615,0,256s114.615,256,256,256c141.386,0,256-114.615,256-256S397.386,0,256,0z M343.579,181.895
			c14.861,0,26.947,12.089,26.947,26.947c-0.005,14.862-12.094,26.947-26.947,26.947c-14.859,0-26.947-12.089-26.947-26.947
			S328.72,181.895,343.579,181.895z M141.474,208.842c0-14.859,12.089-26.947,26.947-26.947c14.861,0,26.947,12.089,26.947,26.947
			c-0.005,14.862-12.094,26.947-26.947,26.947C153.562,235.789,141.474,223.701,141.474,208.842z M342.859,398.487
			c-24.076-31.916-59.795-46.464-97.99-39.902l-79.892,13.188l-6.583-39.882l79.766-13.167
			c52.706-9.041,103.962,11.663,136.971,55.421L342.859,398.487z"/>
	</g>
</g>
<g>
</g>
<g>
</g>
<g>
</g>
<g>
</g>
<g>
</g>
<g>
</g>
<g>
</g>
<g>
</g>
<g>
</g>
<g>
</g>
<g>
</g>
<g>
</g>
<g>
</g>
<g>
</g>
<g>
</g>
</svg>
