<?xml version="1.0" encoding="iso-8859-1"?>
<!-- Generator: Adobe Illustrator 19.0.0, SVG Export Plug-In . SVG Version: 6.00 Build 0)  -->
<svg version="1.1" id="Layer_1" xmlns="http://www.w3.org/2000/svg" xmlns:xlink="http://www.w3.org/1999/xlink" x="0px" y="0px"
	 viewBox="0 0 512 512" style="enable-background:new 0 0 512 512;" xml:space="preserve">
<g>
	<g>
		<path d="M256,357.053c-11.144,0-20.211,9.065-20.211,20.211s9.066,20.211,20.211,20.211c11.144,0,20.211-9.065,20.211-20.211
			S267.144,357.053,256,357.053z"/>
	</g>
</g>
<g>
	<g>
		<path d="M256,0C114.615,0,0,114.615,0,256s114.615,256,256,256c141.386,0,256-114.615,256-256S397.386,0,256,0z M154.947,276.211
			c-14.859,0-26.947-12.089-26.947-26.947s12.089-26.947,26.947-26.947c14.861,0,26.947,12.089,26.947,26.947
			C181.889,264.125,169.801,276.211,154.947,276.211z M94.674,209.82L67.01,180.349c32.842-30.829,73.064-53.345,116.316-65.113
			l10.612,39.002C157.04,164.278,122.716,183.497,94.674,209.82z M256,437.895c-33.432,0-60.632-27.198-60.632-60.632
			s27.199-60.632,60.632-60.632c33.434,0,60.632,27.198,60.632,60.632S289.434,437.895,256,437.895z M357.053,276.211
			c-14.859,0-26.947-12.089-26.947-26.947s12.089-26.947,26.947-26.947c14.86,0,26.947,12.089,26.947,26.947
			C383.995,264.125,371.906,276.211,357.053,276.211z M417.324,209.82c-28.04-26.322-62.366-45.542-99.263-55.582l10.613-39.002
			c43.252,11.767,83.472,34.282,116.316,65.113L417.324,209.82z"/>
	</g>
</g>
<g>
</g>
<g>
</g>
<g>
</g>
<g>
</g>
<g>
</g>
<g>
</g>
<g>
</g>
<g>
</g>
<g>
</g>
<g>
</g>
<g>
</g>
<g>
</g>
<g>
</g>
<g>
</g>
<g>
</g>
</svg>
