<?xml version="1.0" encoding="iso-8859-1"?>
<!-- Generator: Adobe Illustrator 19.0.0, SVG Export Plug-In . SVG Version: 6.00 Build 0)  -->
<svg version="1.1" id="Layer_1" xmlns="http://www.w3.org/2000/svg" xmlns:xlink="http://www.w3.org/1999/xlink" x="0px" y="0px"
	 viewBox="0 0 512 512" style="enable-background:new 0 0 512 512;" xml:space="preserve">
<g>
	<g>
		<path d="M256,0C114.615,0,0,114.615,0,256s114.615,256,256,256c141.386,0,256-114.615,256-256S397.386,0,256,0z M196.799,115.235
			l10.612,39.002c-36.898,10.039-71.222,29.259-99.263,55.582l-27.664-29.471C113.326,149.52,153.547,127.004,196.799,115.235z
			 M208.842,222.316c-0.005,14.861-12.094,26.947-26.947,26.947c-14.859,0-26.947-12.089-26.947-26.947s12.089-26.947,26.947-26.947
			C196.756,195.368,208.842,207.457,208.842,222.316z M106.155,341.745c-15.787-15.784-15.786-41.379-0.001-57.163L134.737,256
			l28.582,28.582c15.786,15.786,15.784,41.379,0,57.165C147.534,357.53,121.94,357.53,106.155,341.745z M304.133,410.412
			c-8.422-26.124-24.616-39.369-48.133-39.369c-23.442,0-39.215,12.963-48.22,39.632l-38.298-12.932
			c7.687-22.761,19.829-40.148,36.093-51.676c14.256-10.105,31.693-15.446,50.424-15.446c41.231,0,72.796,24.561,86.603,67.385
			L304.133,410.412z M330.105,249.263c-14.859,0-26.947-12.089-26.947-26.947s12.089-26.947,26.947-26.947
			c14.861,0,26.947,12.089,26.947,26.947C357.047,237.177,344.959,249.263,330.105,249.263z M403.852,209.82
			c-28.041-26.322-62.366-45.542-99.263-55.582l10.612-39.002c43.252,11.767,83.474,34.282,116.316,65.113L403.852,209.82z"/>
	</g>
</g>
<g>
</g>
<g>
</g>
<g>
</g>
<g>
</g>
<g>
</g>
<g>
</g>
<g>
</g>
<g>
</g>
<g>
</g>
<g>
</g>
<g>
</g>
<g>
</g>
<g>
</g>
<g>
</g>
<g>
</g>
</svg>
