<?xml version="1.0" encoding="iso-8859-1"?>
<!-- Generator: Adobe Illustrator 19.0.0, SVG Export Plug-In . SVG Version: 6.00 Build 0)  -->
<svg version="1.1" id="Layer_1" xmlns="http://www.w3.org/2000/svg" xmlns:xlink="http://www.w3.org/1999/xlink" x="0px" y="0px"
	 viewBox="0 0 512 512" style="enable-background:new 0 0 512 512;" xml:space="preserve">
<g>
	<g>
		<path d="M256,0C114.615,0,0,114.615,0,256s114.615,256,256,256c141.386,0,256-114.615,256-256S397.386,0,256,0z M310.059,195.316
			c13.889-12.152,27.555-22.422,28.13-22.853l24.253,32.337c-17.683,13.272-35.486,28.951-43.168,37.726
			c7.683,8.775,25.487,24.455,43.171,37.729l-24.255,32.334c-0.575-0.431-14.242-10.701-28.13-22.853
			c-28.187-24.665-33.849-36.349-33.849-47.21S281.872,219.981,310.059,195.316z M235.789,242.526
			c0,10.861-5.662,22.546-33.849,47.21c-13.889,12.152-27.555,22.422-28.13,22.853l-24.253-32.337
			c17.683-13.272,35.486-28.951,43.168-37.726c-7.683-8.775-25.487-24.455-43.171-37.728l24.255-32.336
			c0.575,0.431,14.242,10.701,28.13,22.853C230.128,219.981,235.789,231.665,235.789,242.526z M64.838,171.644
			c41.607-21.687,78.909-52.731,107.872-89.777l31.845,24.898c-32.492,41.56-74.345,76.388-121.034,100.724L64.838,171.644z
			 M390.737,384c-6.806,0-10.012,3.161-18.16,12.939c-9.122,10.943-22.904,27.482-49.211,27.482s-40.091-16.538-49.211-27.482
			C266.006,387.16,262.799,384,255.993,384c-6.803,0-10.008,3.161-18.156,12.939c-9.12,10.943-22.901,27.482-49.209,27.482
			s-40.09-16.538-49.209-27.482C131.273,387.161,128.066,384,121.263,384v-40.421c26.307,0,40.09,16.538,49.209,27.482
			c8.148,9.778,11.354,12.939,18.157,12.939s10.008-3.161,18.156-12.939c9.119-10.943,22.9-27.482,49.207-27.482
			c26.309,0,40.092,16.538,49.213,27.482c8.149,9.778,11.354,12.939,18.16,12.939c6.806,0,10.011-3.161,18.159-12.939
			c9.122-10.945,22.905-27.482,49.214-27.482V384z M428.481,207.488c-46.689-24.336-88.542-59.164-121.034-100.724l31.845-24.898
			c28.962,37.046,66.265,68.089,107.872,89.776L428.481,207.488z"/>
	</g>
</g>
<g>
</g>
<g>
</g>
<g>
</g>
<g>
</g>
<g>
</g>
<g>
</g>
<g>
</g>
<g>
</g>
<g>
</g>
<g>
</g>
<g>
</g>
<g>
</g>
<g>
</g>
<g>
</g>
<g>
</g>
</svg>
