<?xml version="1.0" encoding="iso-8859-1"?>
<!-- Generator: Adobe Illustrator 19.0.0, SVG Export Plug-In . SVG Version: 6.00 Build 0)  -->
<svg version="1.1" id="Layer_1" xmlns="http://www.w3.org/2000/svg" xmlns:xlink="http://www.w3.org/1999/xlink" x="0px" y="0px"
	 viewBox="0 0 512 512" style="enable-background:new 0 0 512 512;" xml:space="preserve">
<g>
	<g>
		<path d="M256,0C114.615,0,0,114.615,0,256s114.615,256,256,256c141.386,0,256-114.615,256-256S397.386,0,256,0z M58.027,198.591
			c41.608-21.687,78.91-52.732,107.872-89.775l31.845,24.895c-32.49,41.56-74.344,76.389-121.033,100.725L58.027,198.591z
			 M149.555,231.746l24.255-32.336c0.575,0.431,14.243,10.701,28.129,22.853c28.187,24.665,33.85,36.349,33.85,47.21
			s-5.663,22.546-33.85,47.21c-13.886,12.152-27.554,22.422-28.129,22.853L149.558,307.2c17.682-13.272,35.486-28.951,43.168-37.726
			C185.044,260.698,167.239,245.019,149.555,231.746z M304.133,423.369C295.71,397.245,279.516,384,256,384
			c-23.442,0-39.215,12.963-48.22,39.632l-38.298-12.932c7.687-22.761,19.829-40.148,36.093-51.676
			c14.256-10.104,31.693-15.445,50.424-15.445c41.231,0,72.796,24.56,86.603,67.385L304.133,423.369z M338.19,339.537
			c-0.575-0.431-14.243-10.701-28.129-22.853c-28.187-24.665-33.85-36.349-33.85-47.21s5.663-22.546,33.85-47.21
			c13.886-12.152,27.554-22.422,28.129-22.853l24.253,32.337c-17.683,13.272-35.486,28.951-43.168,37.726
			c7.683,8.775,25.485,24.455,43.171,37.728L338.19,339.537z M435.29,234.435c-46.689-24.336-88.542-59.166-121.033-100.725
			l31.845-24.895c28.962,37.043,66.262,68.088,107.87,89.775L435.29,234.435z"/>
	</g>
</g>
<g>
</g>
<g>
</g>
<g>
</g>
<g>
</g>
<g>
</g>
<g>
</g>
<g>
</g>
<g>
</g>
<g>
</g>
<g>
</g>
<g>
</g>
<g>
</g>
<g>
</g>
<g>
</g>
<g>
</g>
</svg>
