<?xml version="1.0" encoding="iso-8859-1"?>
<!-- Generator: Adobe Illustrator 19.0.0, SVG Export Plug-In . SVG Version: 6.00 Build 0)  -->
<svg version="1.1" id="Layer_1" xmlns="http://www.w3.org/2000/svg" xmlns:xlink="http://www.w3.org/1999/xlink" x="0px" y="0px"
	 viewBox="0 0 512.001 512.001" style="enable-background:new 0 0 512.001 512.001;" xml:space="preserve">
<g>
	<g>
		<path d="M256,286.477c-23.128,0-42.667,30.703-42.667,67.048c0,36.345,19.539,67.048,42.667,67.048
			c23.128,0,42.667-30.703,42.667-67.048C298.667,317.179,279.128,286.477,256,286.477z"/>
	</g>
</g>
<g>
	<g>
		<path d="M383.772,196.727c-1.154-10.388-6.671-21.2-15.133-29.664c-9.62-9.62-22.217-15.361-33.702-15.361
			c-5.144,0-12.446,1.169-18.019,6.74c-11.681,11.681-7.734,35.367,8.62,51.721c9.62,9.62,22.217,15.361,33.702,15.361
			c5.144,0,12.446-1.169,18.019-6.74C384.278,211.762,384.353,201.951,383.772,196.727z"/>
	</g>
</g>
<g>
	<g>
		<path d="M195.082,158.442c-5.572-5.571-12.874-6.74-18.019-6.74c-11.483,0-24.082,5.742-33.701,15.361
			c-16.354,16.354-20.301,40.04-8.62,51.721c5.572,5.571,12.874,6.74,18.019,6.74c11.483,0,24.082-5.742,33.701-15.361
			C202.816,193.809,206.763,170.123,195.082,158.442z"/>
	</g>
</g>
<g>
	<g>
		<path d="M511.703,407.406c-1.625-13.004-3.251-26.006-4.876-39.01c-3.198-20.537-23.937-43.569-46.324-51.444
			c-22.387-7.876-43.126,12.75-46.324,46.08c-1.625,19.505-3.25,39.01-4.876,58.514c-3.198,33.328,19.725,51.994,51.2,41.691
			C491.977,452.933,514.9,427.942,511.703,407.406z"/>
	</g>
</g>
<g>
	<g>
		<path d="M102.698,421.547c-1.625-19.505-3.25-39.01-4.876-58.514c-3.198-33.33-23.937-53.956-46.324-46.08
			c-22.387,7.875-43.126,30.907-46.324,51.444c-1.625,13.004-3.25,26.006-4.876,39.01c-3.198,20.536,19.725,45.526,51.2,55.832
			C82.972,473.541,105.895,454.875,102.698,421.547z"/>
	</g>
</g>
<g>
	<g>
		<path d="M256,24.381C128.081,24.381,24.381,128.082,24.381,256c0,10.853,0.763,21.527,2.209,31.983
			c4.146-2.138,8.414-3.996,12.773-5.53c7.069-2.488,14.354-3.749,21.65-3.749c20.519,0,39.381,9.665,53.11,27.213
			c11.153,14.256,18.105,32.797,20.102,53.621l0.041,0.456l4.859,58.317c1.182,12.665-0.082,24.7-3.578,35.557
			c35.096,21.411,76.332,33.751,120.452,33.751c44.12,0,85.355-12.339,120.452-33.749c-3.495-10.858-4.76-22.894-3.578-35.557
			l4.901-58.773c1.998-20.824,8.949-39.365,20.102-53.621c13.73-17.548,32.591-27.213,53.11-27.213
			c7.296,0,14.581,1.26,21.653,3.749c4.358,1.532,8.625,3.391,12.771,5.53c1.446-10.458,2.209-21.131,2.209-31.984
			C487.619,128.081,383.92,24.381,256,24.381z M108.882,244.642c-26.141-26.141-22.274-72.544,8.62-103.44
			c16.569-16.57,38.278-26.073,59.56-26.073c17.041,0,32.624,6.198,43.878,17.452c26.141,26.141,22.274,72.546-8.62,103.439
			c-16.569,16.57-38.278,26.073-59.56,26.073C135.719,262.094,120.136,255.897,108.882,244.642z M313.981,424.492
			c-14.822,20.749-35.955,32.651-57.98,32.651s-43.158-11.902-57.98-32.651c-13.707-19.191-21.258-44.395-21.258-70.968
			s7.55-51.777,21.258-70.968c14.822-20.749,35.955-32.651,57.98-32.651s43.158,11.902,57.979,32.651
			c13.709,19.191,21.259,44.395,21.259,70.968S327.689,405.301,313.981,424.492z M403.12,244.642
			c-11.254,11.254-26.837,17.452-43.878,17.452c-21.283,0-42.992-9.502-59.561-26.073c-30.896-30.896-34.762-77.297-8.62-103.439
			c11.254-11.254,26.837-17.452,43.878-17.452c21.282,0,42.991,9.503,59.56,26.073c14.437,14.437,23.537,32.722,25.622,51.485
			C422.342,212.68,416.145,231.617,403.12,244.642z"/>
	</g>
</g>
<g>
</g>
<g>
</g>
<g>
</g>
<g>
</g>
<g>
</g>
<g>
</g>
<g>
</g>
<g>
</g>
<g>
</g>
<g>
</g>
<g>
</g>
<g>
</g>
<g>
</g>
<g>
</g>
<g>
</g>
</svg>
