<?xml version="1.0" encoding="iso-8859-1"?>
<!-- Generator: Adobe Illustrator 19.0.0, SVG Export Plug-In . SVG Version: 6.00 Build 0)  -->
<svg version="1.1" id="Layer_1" xmlns="http://www.w3.org/2000/svg" xmlns:xlink="http://www.w3.org/1999/xlink" x="0px" y="0px"
	 viewBox="0 0 512 512" style="enable-background:new 0 0 512 512;" xml:space="preserve">
<g>
	<g>
		<path d="M256,303.158c-25.562,0-47.158,30.852-47.158,67.368c0,36.516,21.596,67.368,47.158,67.368s47.158-30.851,47.158-67.368
			C303.158,334.009,281.562,303.158,256,303.158z"/>
	</g>
</g>
<g>
	<g>
		<path d="M256,0C114.615,0,0,114.615,0,256s114.615,256,256,256s256-114.615,256-256S397.385,0,256,0z M80.484,126.455
			c32.842-30.829,73.064-53.345,116.316-65.113l10.612,39.002c-36.898,10.039-71.222,29.259-99.263,55.582L80.484,126.455z
			 M120.447,228.236l26.13-26.131l-26.131-26.131l28.582-28.582l26.131,26.131l26.131-26.13l28.582,28.582l-26.131,26.13
			l26.131,26.131l-28.582,28.582l-26.131-26.131l-26.131,26.13L120.447,228.236z M319.656,444.776
			c-16.637,21.629-39.243,33.54-63.656,33.54s-47.019-11.911-63.656-33.54c-15.426-20.054-23.922-46.424-23.922-74.249
			s8.496-54.195,23.922-74.249c16.637-21.629,39.243-33.54,63.656-33.54s47.019,11.911,63.656,33.54
			c15.426,20.054,23.923,46.424,23.923,74.249C343.579,398.352,335.082,424.721,319.656,444.776z M391.553,228.236l-28.582,28.582
			l-26.13-26.131l-26.131,26.13l-28.582-28.582l26.131-26.13l-26.13-26.131l28.582-28.582l26.13,26.131l26.131-26.13l28.582,28.582
			l-26.131,26.13L391.553,228.236z M403.852,155.926c-28.041-26.322-62.366-45.542-99.263-55.582l10.612-39.002
			c43.252,11.767,83.474,34.282,116.316,65.113L403.852,155.926z"/>
	</g>
</g>
<g>
</g>
<g>
</g>
<g>
</g>
<g>
</g>
<g>
</g>
<g>
</g>
<g>
</g>
<g>
</g>
<g>
</g>
<g>
</g>
<g>
</g>
<g>
</g>
<g>
</g>
<g>
</g>
<g>
</g>
</svg>
