<?xml version="1.0" encoding="iso-8859-1"?>
<!-- Generator: Adobe Illustrator 19.0.0, SVG Export Plug-In . SVG Version: 6.00 Build 0)  -->
<svg version="1.1" id="Layer_1" xmlns="http://www.w3.org/2000/svg" xmlns:xlink="http://www.w3.org/1999/xlink" x="0px" y="0px"
	 viewBox="0 0 512 512" style="enable-background:new 0 0 512 512;" xml:space="preserve">
<g>
	<g>
		<path d="M255.999,287.425c-69.891,0-122.229-2.826-150.386-4.809c1.548,10.817,4.247,21.267,7.954,31.229h284.865
			c3.708-9.962,6.407-20.411,7.954-31.229C378.23,284.6,325.889,287.425,255.999,287.425z"/>
	</g>
</g>
<g>
	<g>
		<path d="M135.544,353.475c27.799,36.125,71.455,59.447,120.456,59.447s92.659-23.322,120.456-59.447H135.544z"/>
	</g>
</g>
<g>
	<g>
		<path d="M442.548,28.023L414.525,0L386.5,28.023c-15.476,15.476-15.477,40.57,0.001,56.046
			c15.476,15.476,40.57,15.476,56.046,0.001C458.024,68.594,458.025,43.5,442.548,28.023z"/>
	</g>
</g>
<g>
	<g>
		<path d="M462.868,118.847c-13.796,10.663-30.62,16.461-48.342,16.461c-0.001,0,0,0-0.001,0c-21.172,0-41.078-8.246-56.048-23.217
			c-14.97-14.966-23.215-34.87-23.215-56.045c0-10.855,2.181-21.372,6.311-31.067C314.865,15.295,286.052,10.006,256,10.006
			c-138.622,0-250.997,112.375-250.997,250.997S117.378,512,256,512c138.623,0,250.997-112.375,250.997-250.997
			C506.997,208.225,490.693,159.262,462.868,118.847z M335.262,148.715c32.779,0,59.447,26.666,59.447,59.447h-39.631
			c0-10.926-8.889-19.816-19.816-19.816c-10.926,0-19.816,8.889-19.816,19.816h-39.631
			C275.816,175.382,302.483,148.715,335.262,148.715z M176.738,148.715c32.78,0,59.447,26.666,59.447,59.447h-39.631
			c0-10.926-8.889-19.816-19.816-19.816c-10.926,0-19.816,8.889-19.816,19.816h-39.631
			C117.291,175.382,143.959,148.715,176.738,148.715z M256,452.553c-105.621,0-191.551-85.93-191.551-191.551v-21.896l21.787,2.178
			c0.65,0.065,66.469,6.507,169.764,6.507s169.114-6.443,169.767-6.507l21.781-2.172l0.003,21.888
			C447.551,366.624,361.621,452.553,256,452.553z"/>
	</g>
</g>
<g>
</g>
<g>
</g>
<g>
</g>
<g>
</g>
<g>
</g>
<g>
</g>
<g>
</g>
<g>
</g>
<g>
</g>
<g>
</g>
<g>
</g>
<g>
</g>
<g>
</g>
<g>
</g>
<g>
</g>
</svg>
