<?xml version="1.0" encoding="iso-8859-1"?>
<!-- Generator: Adobe Illustrator 19.0.0, SVG Export Plug-In . SVG Version: 6.00 Build 0)  -->
<svg version="1.1" id="Layer_1" xmlns="http://www.w3.org/2000/svg" xmlns:xlink="http://www.w3.org/1999/xlink" x="0px" y="0px"
	 viewBox="0 0 512 512" style="enable-background:new 0 0 512 512;" xml:space="preserve">
<g>
	<g>
		<path d="M498.447,173.603C464.146,72.643,368.558,0,256,0C143.444,0,47.856,72.643,13.553,173.603l100.973,100.973v-38.787
			h282.947v38.787L498.447,173.603z M206.583,193.256c-0.23-0.113-23.243-11.361-44.898-11.361
			c-21.573,0-44.629,11.226-44.857,11.339l-18.076-36.153c1.275-0.639,31.576-15.608,62.933-15.608s61.658,14.969,62.933,15.608
			L206.583,193.256z M395.214,193.256c-0.23-0.113-23.243-11.361-44.898-11.361c-21.573,0-44.629,11.226-44.857,11.339
			l-18.076-36.153c1.273-0.639,31.576-15.608,62.933-15.608s61.66,14.969,62.933,15.608L395.214,193.256z"/>
	</g>
</g>
<g>
	<g>
		<path d="M509.437,219.776L397.474,331.74v38.787h87.522C502.265,336.063,512,297.172,512,256
			C512,243.701,511.113,231.611,509.437,219.776z"/>
	</g>
</g>
<g>
	<g>
		<rect x="154.947" y="276.211" width="202.105" height="121.263"/>
	</g>
</g>
<g>
	<g>
		<path d="M2.563,219.776C0.887,231.611,0,243.701,0,256c0,41.172,9.735,80.063,27.004,114.526h87.522V331.74L2.563,219.776z"/>
	</g>
</g>
<g>
	<g>
		<path d="M397.474,410.947v26.947H114.526v-26.947H52.223C98.987,472.354,172.858,512,256,512s157.014-39.646,203.779-101.053
			H397.474z"/>
	</g>
</g>
<g>
</g>
<g>
</g>
<g>
</g>
<g>
</g>
<g>
</g>
<g>
</g>
<g>
</g>
<g>
</g>
<g>
</g>
<g>
</g>
<g>
</g>
<g>
</g>
<g>
</g>
<g>
</g>
<g>
</g>
</svg>
