<?xml version="1.0" encoding="iso-8859-1"?>
<!-- Generator: Adobe Illustrator 19.0.0, SVG Export Plug-In . SVG Version: 6.00 Build 0)  -->
<svg version="1.1" id="Layer_1" xmlns="http://www.w3.org/2000/svg" xmlns:xlink="http://www.w3.org/1999/xlink" x="0px" y="0px"
	 viewBox="0 0 512 512" style="enable-background:new 0 0 512 512;" xml:space="preserve">
<g>
	<g>
		<polygon points="286.277,110.753 272.195,76.752 185.889,76.752 185.889,116.586 224.112,116.586 178.446,162.253 
			192.528,196.253 278.834,196.253 278.834,156.419 240.611,156.419 		"/>
	</g>
</g>
<g>
	<g>
		<polygon points="399.139,84.194 385.056,50.194 298.751,50.194 298.751,90.027 336.973,90.027 291.307,135.695 305.389,169.694 
			391.695,169.694 391.695,129.861 353.472,129.861 		"/>
	</g>
</g>
<g>
	<g>
		<polygon points="512,57.639 497.918,23.638 411.612,23.638 411.612,63.472 449.835,63.472 404.168,109.139 418.251,143.139 
			504.557,143.139 504.557,103.305 466.334,103.305 		"/>
	</g>
</g>
<g>
	<g>
		<path d="M493.807,182.972h-62.278v0v26.556H318.667v26.558H165.913l-34.455-83.179l14.598-14.599V36.919h112.861V10.361h51.068
			c-18.533-4.338-37.851-6.639-57.707-6.639C112.949,3.722,0,116.671,0,256s112.949,252.278,252.278,252.278
			c139.331,0,252.278-112.949,252.278-252.278C504.557,230.603,500.788,206.091,493.807,182.972z M159.334,329.028
			c-30.901,0-60.762-14.752-62.018-15.381l17.772-35.648c0.227,0.112,22.906,11.196,44.246,11.196
			c21.259,0,43.98-11.063,44.204-11.175l17.813,35.627C220.096,314.276,190.235,329.028,159.334,329.028z M252.278,435.25
			c-14.643,0-26.556-11.913-26.556-26.556s11.913-26.556,26.556-26.556c14.645,0,26.556,11.913,26.556,26.556
			C278.829,423.34,266.916,435.25,252.278,435.25z M345.223,329.028c-30.901,0-60.762-14.752-62.018-15.381l17.772-35.648
			c0.227,0.112,22.906,11.196,44.246,11.196c21.259,0,43.981-11.063,44.204-11.175l17.814,35.627
			C405.985,314.276,376.124,329.028,345.223,329.028z"/>
	</g>
</g>
<g>
</g>
<g>
</g>
<g>
</g>
<g>
</g>
<g>
</g>
<g>
</g>
<g>
</g>
<g>
</g>
<g>
</g>
<g>
</g>
<g>
</g>
<g>
</g>
<g>
</g>
<g>
</g>
<g>
</g>
</svg>
