<?xml version="1.0" encoding="iso-8859-1"?>
<!-- Generator: Adobe Illustrator 19.0.0, SVG Export Plug-In . SVG Version: 6.00 Build 0)  -->
<svg version="1.1" id="Layer_1" xmlns="http://www.w3.org/2000/svg" xmlns:xlink="http://www.w3.org/1999/xlink" x="0px" y="0px"
	 viewBox="0 0 512 512" style="enable-background:new 0 0 512 512;" xml:space="preserve">
<g>
	<g>
		<path d="M256,0C114.615,0,0,114.615,0,256s114.615,256,256,256c141.386,0,256-114.615,256-256S397.386,0,256,0z M73.747,193.902
			L60.99,155.547c28.076-9.339,57.422-14.073,87.221-14.073c29.797,0,59.143,4.735,87.221,14.073l-12.757,38.356
			c-23.956-7.967-49.009-12.008-74.464-12.008C122.756,181.895,97.703,185.935,73.747,193.902z M154.947,262.737H94.316v-40.421
			h107.789v40.421c0,22.323-10.557,40.421-23.579,40.421C165.504,303.158,154.947,285.06,154.947,262.737z M304.133,409.894
			c-8.422-26.121-24.618-39.367-48.133-39.367c-23.442,0-39.215,12.964-48.22,39.632l-38.298-12.932
			c7.687-22.761,19.829-40.146,36.093-51.674c14.256-10.105,31.693-15.446,50.424-15.446c41.231,0,72.796,24.56,86.603,67.385
			L304.133,409.894z M417.684,262.737c0,22.323-10.557,40.421-23.579,40.421c-13.021,0-23.579-18.098-23.579-40.421h-60.632v-40.421
			h107.789V262.737z M363.789,181.895c-25.456,0-50.507,4.041-74.464,12.008l-12.758-38.356
			c28.079-9.339,57.423-14.073,87.222-14.073c29.797,0,59.143,4.735,87.219,14.073l-12.755,38.356
			C414.297,185.935,389.244,181.895,363.789,181.895z"/>
	</g>
</g>
<g>
</g>
<g>
</g>
<g>
</g>
<g>
</g>
<g>
</g>
<g>
</g>
<g>
</g>
<g>
</g>
<g>
</g>
<g>
</g>
<g>
</g>
<g>
</g>
<g>
</g>
<g>
</g>
<g>
</g>
</svg>
