<?xml version="1.0" encoding="iso-8859-1"?>
<!-- Generator: Adobe Illustrator 19.0.0, SVG Export Plug-In . SVG Version: 6.00 Build 0)  -->
<svg version="1.1" id="Layer_1" xmlns="http://www.w3.org/2000/svg" xmlns:xlink="http://www.w3.org/1999/xlink" x="0px" y="0px"
	 viewBox="0 0 512 512" style="enable-background:new 0 0 512 512;" xml:space="preserve">
<g>
	<g>
		<path d="M359.276,367.512l-5.438-9.419c-16.23,15.561-36.154,27.296-58.305,33.753l5.399,9.351
			c9.289,16.086,29.93,21.615,46.014,12.328C363.031,404.237,368.562,383.596,359.276,367.512z"/>
	</g>
</g>
<g>
	<g>
		<path d="M256,0C114.615,0,0,114.615,0,256s114.615,256,256,256s256-114.615,256-256S397.385,0,256,0z M336.842,141.474
			c33.432,0,60.632,27.199,60.632,60.632h-40.421c0-11.144-9.066-20.211-20.211-20.211c-11.144,0-20.211,9.066-20.211,20.211
			h-40.421C276.211,168.673,303.41,141.474,336.842,141.474z M175.158,141.474c33.432,0,60.632,27.199,60.632,60.632h-40.421
			c0-11.144-9.066-20.211-20.211-20.211s-20.211,9.066-20.211,20.211h-40.421C114.526,168.673,141.726,141.474,175.158,141.474z
			 M367.158,448.531c-11.639,6.719-24.366,9.914-36.927,9.914c-25.631,0-50.591-13.29-64.303-37.036l-13.851-23.99
			c-76.202-2.087-137.55-64.721-137.55-141.418h40.421c0,55.72,45.332,101.053,101.053,101.053
			c55.72,0,101.053-45.332,101.053-101.053h40.421c0,24.342-6.18,47.267-17.054,67.29l13.863,24.01
			C414.712,382.689,402.544,428.099,367.158,448.531z"/>
	</g>
</g>
<g>
</g>
<g>
</g>
<g>
</g>
<g>
</g>
<g>
</g>
<g>
</g>
<g>
</g>
<g>
</g>
<g>
</g>
<g>
</g>
<g>
</g>
<g>
</g>
<g>
</g>
<g>
</g>
<g>
</g>
</svg>
