<?xml version="1.0" encoding="iso-8859-1"?>
<!-- Generator: Adobe Illustrator 19.0.0, SVG Export Plug-In . SVG Version: 6.00 Build 0)  -->
<svg version="1.1" id="Layer_1" xmlns="http://www.w3.org/2000/svg" xmlns:xlink="http://www.w3.org/1999/xlink" x="0px" y="0px"
	 viewBox="0 0 512 512" style="enable-background:new 0 0 512 512;" xml:space="preserve">
<g>
	<g>
		<path d="M121.108,332.288c14.263,25.178,35.366,45.956,60.786,59.826v-56.816C158.601,334.409,137.442,333.274,121.108,332.288z"
			/>
	</g>
</g>
<g>
	<g>
		<path d="M256,336.842c-11.195,0-22.504-0.131-33.684-0.354v67.723c0,18.573,15.111,33.684,33.684,33.684
			s33.684-15.111,33.684-33.684v-67.723C278.504,336.711,267.195,336.842,256,336.842z"/>
	</g>
</g>
<g>
	<g>
		<path d="M330.105,335.297v56.817c25.421-13.868,46.523-34.649,60.788-59.827C374.559,333.273,353.399,334.407,330.105,335.297z"/>
	</g>
</g>
<g>
	<g>
		<path d="M256,0C114.615,0,0,114.615,0,256s114.615,256,256,256c141.386,0,256-114.615,256-256S397.386,0,256,0z M357.053,181.895
			c14.861,0,26.947,12.089,26.947,26.947c-0.005,14.862-12.094,26.947-26.947,26.947c-14.859,0-26.947-12.089-26.947-26.947
			S342.194,181.895,357.053,181.895z M154.947,181.895c14.861,0,26.947,12.089,26.947,26.947
			c-0.005,14.862-12.094,26.947-26.947,26.947c-14.859,0-26.947-12.089-26.947-26.947S140.089,181.895,154.947,181.895z
			 M320.629,440.406c-12.708,22.599-36.908,37.91-64.629,37.91c-27.722,0-51.922-15.31-64.629-37.91
			C133.97,420.285,88.829,374.161,70.073,316.109l-9.281-28.722l30.092,2.359c0.852,0.067,86.039,6.675,165.116,6.675
			c79.135,0,164.264-6.608,165.115-6.675l30.093-2.361l-9.281,28.723C423.171,374.163,378.03,420.287,320.629,440.406z"/>
	</g>
</g>
<g>
</g>
<g>
</g>
<g>
</g>
<g>
</g>
<g>
</g>
<g>
</g>
<g>
</g>
<g>
</g>
<g>
</g>
<g>
</g>
<g>
</g>
<g>
</g>
<g>
</g>
<g>
</g>
<g>
</g>
</svg>
