<?xml version="1.0" encoding="iso-8859-1"?>
<!-- Generator: Adobe Illustrator 19.0.0, SVG Export Plug-In . SVG Version: 6.00 Build 0)  -->
<svg version="1.1" id="Layer_1" xmlns="http://www.w3.org/2000/svg" xmlns:xlink="http://www.w3.org/1999/xlink" x="0px" y="0px"
	 viewBox="0 0 512 512" style="enable-background:new 0 0 512 512;" xml:space="preserve">
<g>
	<g>
		<path d="M121.108,332.288c14.263,25.178,35.366,45.956,60.786,59.826v-56.816C158.601,334.409,137.442,333.274,121.108,332.288z"
			/>
	</g>
</g>
<g>
	<g>
		<path d="M330.105,335.297v56.817c25.421-13.868,46.523-34.649,60.788-59.827C374.559,333.273,353.399,334.407,330.105,335.297z"/>
	</g>
</g>
<g>
	<g>
		<path d="M256,336.842c-11.195,0-22.504-0.131-33.684-0.354v67.723c0,18.573,15.111,33.684,33.684,33.684
			s33.684-15.111,33.684-33.684v-67.723C278.504,336.711,267.195,336.842,256,336.842z"/>
	</g>
</g>
<g>
	<g>
		<path d="M256,0C114.615,0,0,114.615,0,256s114.615,256,256,256c141.386,0,256-114.615,256-256S397.386,0,256,0z M310.06,154.895
			c13.886-12.151,27.554-22.422,28.129-22.853l24.253,32.337c-17.683,13.272-35.486,28.952-43.168,37.726
			c7.683,8.774,25.485,24.456,43.171,37.728l-24.255,32.336c-0.575-0.431-14.243-10.702-28.129-22.853
			c-28.187-24.664-33.85-36.349-33.85-47.21S281.874,179.558,310.06,154.895z M173.811,132.042
			c0.575,0.431,14.243,10.702,28.129,22.853c28.187,24.664,33.85,36.349,33.85,47.21s-5.663,22.547-33.85,47.21
			c-13.886,12.151-27.554,22.422-28.129,22.853l-24.253-32.337c17.682-13.272,35.486-28.952,43.168-37.726
			c-7.683-8.774-25.485-24.456-43.171-37.729L173.811,132.042z M320.629,440.406c-12.708,22.599-36.908,37.91-64.629,37.91
			c-27.722,0-51.922-15.31-64.629-37.91C133.97,420.285,88.829,374.161,70.073,316.109l-9.281-28.722l30.092,2.359
			c0.852,0.067,86.039,6.675,165.116,6.675c79.135,0,164.264-6.608,165.115-6.675l30.093-2.361l-9.281,28.723
			C423.171,374.163,378.03,420.287,320.629,440.406z"/>
	</g>
</g>
<g>
</g>
<g>
</g>
<g>
</g>
<g>
</g>
<g>
</g>
<g>
</g>
<g>
</g>
<g>
</g>
<g>
</g>
<g>
</g>
<g>
</g>
<g>
</g>
<g>
</g>
<g>
</g>
<g>
</g>
</svg>
