<?xml version="1.0" encoding="iso-8859-1"?>
<!-- Generator: Adobe Illustrator 19.0.0, SVG Export Plug-In . SVG Version: 6.00 Build 0)  -->
<svg version="1.1" id="Layer_1" xmlns="http://www.w3.org/2000/svg" xmlns:xlink="http://www.w3.org/1999/xlink" x="0px" y="0px"
	 viewBox="0 0 512 512" style="enable-background:new 0 0 512 512;" xml:space="preserve">
<g>
	<g>
		<path d="M336.814,370.526H175.185c-4.08,9.752-6.467,20.383-6.738,31.534c29.025-3.045,58.388-4.586,87.553-4.586
			c29.165,0,58.528,1.541,87.552,4.586C343.283,390.909,340.894,380.279,336.814,370.526z"/>
	</g>
</g>
<g>
	<g>
		<path d="M256,0C114.615,0,0,114.615,0,256s114.615,256,256,256c141.386,0,256-114.615,256-256S397.386,0,256,0z M310.059,168.369
			c13.889-12.152,27.555-22.422,28.13-22.853l24.253,32.337c-17.683,13.272-35.486,28.951-43.168,37.726
			c7.683,8.775,25.487,24.455,43.171,37.728l-24.255,32.335c-0.575-0.431-14.242-10.701-28.13-22.853
			c-28.187-24.665-33.849-36.349-33.849-47.21S281.872,193.033,310.059,168.369z M235.789,215.579
			c0,10.861-5.663,22.545-33.85,47.21c-13.886,12.152-27.554,22.422-28.129,22.853l-24.253-32.337
			c17.682-13.272,35.486-28.951,43.168-37.726c-7.683-8.775-25.485-24.455-43.171-37.728l24.255-32.335
			c0.575,0.431,14.243,10.701,28.129,22.853C230.126,193.033,235.789,204.718,235.789,215.579z M64.838,144.697
			c41.608-21.687,78.91-52.732,107.872-89.775l31.845,24.895c-32.49,41.56-74.344,76.389-121.033,100.725L64.838,144.697z
			 M381.696,428.359l-3.579,18.715l-18.891-2.471c-34.049-4.452-68.78-6.709-103.226-6.709c-34.447,0-69.177,2.257-103.225,6.707
			l-18.891,2.471l-3.579-18.715c-1.529-7.998-2.305-16.123-2.305-24.148c0-70.579,57.421-128,128-128s128,57.421,128,128
			C384,412.237,383.225,420.361,381.696,428.359z M428.481,180.541c-46.689-24.336-88.542-59.164-121.034-100.724l31.845-24.898
			c28.962,37.046,66.265,68.089,107.872,89.776L428.481,180.541z"/>
	</g>
</g>
<g>
	<g>
		<path d="M256,316.632c-17.113,0-33.081,4.954-46.584,13.474h93.168C289.082,321.586,273.113,316.632,256,316.632z"/>
	</g>
</g>
<g>
</g>
<g>
</g>
<g>
</g>
<g>
</g>
<g>
</g>
<g>
</g>
<g>
</g>
<g>
</g>
<g>
</g>
<g>
</g>
<g>
</g>
<g>
</g>
<g>
</g>
<g>
</g>
<g>
</g>
</svg>
