<?xml version="1.0" encoding="iso-8859-1"?>
<!-- Generator: Adobe Illustrator 19.0.0, SVG Export Plug-In . SVG Version: 6.00 Build 0)  -->
<svg version="1.1" id="Layer_1" xmlns="http://www.w3.org/2000/svg" xmlns:xlink="http://www.w3.org/1999/xlink" x="0px" y="0px"
	 viewBox="0 0 512 512" style="enable-background:new 0 0 512 512;" xml:space="preserve">
<g>
	<g>
		<path d="M336.814,370.526H175.185c-4.08,9.752-6.467,20.383-6.738,31.534c29.025-3.045,58.387-4.586,87.553-4.586
			c29.165,0,58.528,1.541,87.552,4.586C343.281,390.909,340.894,380.279,336.814,370.526z"/>
	</g>
</g>
<g>
	<g>
		<path d="M256,316.632c-17.113,0-33.081,4.954-46.584,13.474h93.168C289.081,321.586,273.113,316.632,256,316.632z"/>
	</g>
</g>
<g>
	<g>
		<path d="M256,0C114.615,0,0,114.615,0,256s114.615,256,256,256c141.386,0,256-114.615,256-256S397.386,0,256,0z M206.318,67.46
			l31.845,24.894c-32.49,41.56-74.344,76.389-121.033,100.725l-18.683-35.845C140.056,135.549,177.358,104.505,206.318,67.46z
			 M130.26,197.481c0.23,0.113,23.243,11.361,44.898,11.361c21.573,0,44.629-11.226,44.857-11.339l18.076,36.153
			c-1.275,0.639-31.576,15.608-62.933,15.608s-61.658-14.969-62.933-15.608L130.26,197.481z M381.695,428.359l-3.579,18.715
			l-18.891-2.471c-34.048-4.452-68.778-6.709-103.225-6.709c-34.447,0-69.177,2.257-103.225,6.707l-18.891,2.471l-3.579-18.715
			c-1.529-7.998-2.305-16.123-2.305-24.148c0-70.579,57.421-128,128-128s128,57.421,128,128
			C384,412.235,383.224,420.36,381.695,428.359z M336.842,249.263c-31.357,0-61.658-14.969-62.933-15.608l18.034-36.174
			c0.23,0.113,23.243,11.361,44.898,11.361c21.573,0,44.629-11.226,44.857-11.339l18.076,36.153
			C398.5,234.294,368.199,249.263,336.842,249.263z M394.869,193.081c-46.689-24.336-88.542-59.166-121.033-100.725l31.845-24.894
			c28.962,37.043,66.262,68.088,107.872,89.775L394.869,193.081z"/>
	</g>
</g>
<g>
</g>
<g>
</g>
<g>
</g>
<g>
</g>
<g>
</g>
<g>
</g>
<g>
</g>
<g>
</g>
<g>
</g>
<g>
</g>
<g>
</g>
<g>
</g>
<g>
</g>
<g>
</g>
<g>
</g>
</svg>
