<?xml version="1.0" encoding="iso-8859-1"?>
<!-- Generator: Adobe Illustrator 19.0.0, SVG Export Plug-In . SVG Version: 6.00 Build 0)  -->
<svg version="1.1" id="Layer_1" xmlns="http://www.w3.org/2000/svg" xmlns:xlink="http://www.w3.org/1999/xlink" x="0px" y="0px"
	 viewBox="0 0 512 512" style="enable-background:new 0 0 512 512;" xml:space="preserve">
<g>
	<g>
		<g>
			<path d="M503.467,371.2h-25.6V106.667c0-14.114-11.486-25.6-25.6-25.6H59.733c-14.114,0-25.6,11.486-25.6,25.6V371.2h-25.6
				C3.814,371.2,0,375.023,0,379.733v25.6c0,14.114,11.486,25.6,25.6,25.6h460.8c14.114,0,25.6-11.486,25.6-25.6v-25.6
				C512,375.023,508.186,371.2,503.467,371.2z M409.6,115.2h25.6c4.719,0,8.533,3.823,8.533,8.533c0,4.71-3.814,8.533-8.533,8.533
				h-25.6c-4.719,0-8.533-3.823-8.533-8.533C401.067,119.023,404.881,115.2,409.6,115.2z M443.554,168.107
				c-0.077,0.512-0.247,1.024-0.503,1.536c-0.179,0.512-0.427,1.024-0.768,1.536c-0.341,0.427-0.683,0.853-1.024,1.28
				c-1.621,1.536-3.84,2.475-6.059,2.475c-2.219,0-4.446-0.939-6.059-2.475c-0.341-0.427-0.768-0.853-1.024-1.28
				c-0.341-0.512-0.597-1.024-0.768-1.536c-0.256-0.512-0.427-1.024-0.512-1.536c-0.085-0.597-0.171-1.195-0.171-1.707
				c0-2.219,0.93-4.437,2.475-6.059c3.157-3.157,8.96-3.157,12.117,0c1.536,1.621,2.475,3.84,2.475,6.059
				C443.733,166.912,443.648,167.509,443.554,168.107z M443.733,268.8v68.267c0,4.71-3.814,8.533-8.533,8.533
				s-8.533-3.823-8.533-8.533V268.8c0-4.71,3.814-8.533,8.533-8.533S443.733,264.09,443.733,268.8z M409.6,234.667v102.4
				c0,4.71-3.814,8.533-8.533,8.533c-4.719,0-8.533-3.823-8.533-8.533v-102.4c0-4.71,3.814-8.533,8.533-8.533
				C405.786,226.133,409.6,229.956,409.6,234.667z M367.616,120.491c0.427-1.109,1.024-1.963,1.792-2.816
				c3.157-3.157,8.875-3.157,12.117,0c0.768,0.853,1.365,1.707,1.792,2.816c0.427,1.024,0.683,2.133,0.683,3.243
				c0,1.109-0.256,2.219-0.683,3.243c-0.427,1.024-1.024,1.963-1.792,2.816c-1.621,1.536-3.84,2.475-6.059,2.475
				c-2.219,0-4.446-0.939-6.059-2.475c-0.768-0.853-1.365-1.792-1.792-2.816c-0.427-1.024-0.683-2.133-0.683-3.243
				C366.933,122.624,367.189,121.515,367.616,120.491z M324.267,115.2h17.067c4.719,0,8.533,3.823,8.533,8.533
				c0,4.71-3.814,8.533-8.533,8.533h-17.067c-4.719,0-8.533-3.823-8.533-8.533C315.733,119.023,319.548,115.2,324.267,115.2z
				 M324.267,157.867h68.267c4.719,0,8.533,3.823,8.533,8.533c0,4.71-3.814,8.533-8.533,8.533h-68.267
				c-4.719,0-8.533-3.823-8.533-8.533C315.733,161.69,319.548,157.867,324.267,157.867z M375.467,294.4v42.667
				c0,4.71-3.814,8.533-8.533,8.533s-8.533-3.823-8.533-8.533V294.4c0-4.71,3.814-8.533,8.533-8.533S375.467,289.69,375.467,294.4z
				 M341.333,277.333v59.733c0,4.71-3.814,8.533-8.533,8.533c-4.719,0-8.533-3.823-8.533-8.533v-59.733
				c0-4.71,3.814-8.533,8.533-8.533C337.519,268.8,341.333,272.623,341.333,277.333z M290.133,311.467
				c0-4.71,3.814-8.533,8.533-8.533s8.533,3.823,8.533,8.533v25.6c0,4.71-3.814,8.533-8.533,8.533s-8.533-3.823-8.533-8.533V311.467
				z M158.174,124.151l0.034-0.034l3.661-0.282c0.734-0.034,1.451,0.034,2.185,0.017c0.785-0.017,1.553-0.119,2.347-0.119
				c1.126,0,2.21,0.128,3.328,0.171c1.374,0.051,2.748,0.102,4.113,0.205c2.21,0.171,4.386,0.427,6.545,0.742
				c1.058,0.154,2.116,0.29,3.157,0.478c2.381,0.427,4.71,0.947,7.023,1.536c0.879,0.23,1.766,0.435,2.645,0.683
				c2.321,0.666,4.591,1.434,6.835,2.253c0.905,0.333,1.818,0.64,2.714,0.998c2.048,0.819,4.036,1.741,6.016,2.688
				c1.075,0.521,2.167,1.007,3.226,1.562c1.621,0.853,3.183,1.801,4.753,2.748c1.331,0.794,2.68,1.553,3.977,2.415
				c1.092,0.734,2.125,1.545,3.183,2.321c1.638,1.178,3.294,2.338,4.864,3.627c0.051,0.051,0.102,0.102,0.162,0.154
				c2.355,1.946,4.659,3.977,6.844,6.161c2.091,2.082,4.019,4.301,5.897,6.554c0.137,0.162,0.299,0.316,0.435,0.478
				c1.229,1.502,2.33,3.081,3.473,4.642c0.836,1.143,1.707,2.253,2.492,3.439c0.811,1.22,1.536,2.5,2.287,3.763
				c0.99,1.638,1.988,3.277,2.884,4.975c0.529,1.015,0.99,2.057,1.485,3.089c0.973,2.014,1.911,4.036,2.739,6.118
				c0.367,0.913,0.683,1.835,1.016,2.756c0.811,2.21,1.562,4.446,2.219,6.724c0.273,0.964,0.495,1.937,0.742,2.901
				c0.555,2.202,1.058,4.42,1.459,6.682c0.222,1.195,0.384,2.389,0.555,3.593c0.282,2.005,0.521,4.019,0.683,6.067
				c0.119,1.502,0.179,3.004,0.23,4.523c0.026,1.033,0.154,2.048,0.154,3.089c0,0.777-0.102,1.527-0.119,2.304
				c-0.017,0.742,0.051,1.485,0.017,2.227l-0.154,3.524l-0.162,0.145c-2.142,25.719-14.251,48.597-32.435,64.862
				c-0.119,0.137-0.162,0.316-0.299,0.452c-0.213,0.213-0.495,0.29-0.725,0.478C213.419,310.852,190.985,320,166.4,320
				c-54.11,0-98.133-44.023-98.133-98.133C68.267,170.53,107.913,128.35,158.174,124.151z M494.933,405.333
				c0,4.702-3.823,8.533-8.533,8.533H25.6c-4.71,0-8.533-3.831-8.533-8.533v-17.067h25.6H179.2v8.533
				c0,4.71,3.814,8.533,8.533,8.533h136.533c4.719,0,8.533-3.823,8.533-8.533v-8.533h136.533h25.6V405.333z"/>
			<path d="M225.38,277.31c10.872-11.563,18.364-26.283,20.975-42.641H182.73L225.38,277.31z"/>
			<path d="M166.4,302.933c17.101,0,32.956-5.35,46.046-14.43L156.1,232.166c-1.732-1.732-2.517-4.019-2.449-6.289l-0.051-0.06
				v-83.908c-38.622,6.17-68.267,39.62-68.267,79.957C85.333,266.564,121.702,302.933,166.4,302.933z"/>
			<path d="M247.122,215.058c-0.068-0.887-0.154-1.766-0.256-2.654c-0.222-1.937-0.521-3.857-0.879-5.751
				c-0.111-0.563-0.205-1.135-0.324-1.698c-0.495-2.33-1.075-4.625-1.766-6.869c-0.043-0.137-0.077-0.273-0.12-0.41
				c-7.919-25.284-27.913-45.269-53.197-53.188c-0.12-0.034-0.247-0.068-0.367-0.102c-2.261-0.7-4.557-1.28-6.895-1.783
				c-0.572-0.119-1.152-0.213-1.724-0.324c-1.877-0.358-3.78-0.648-5.7-0.87c-0.913-0.102-1.835-0.188-2.756-0.265
				c-0.819-0.068-1.647-0.085-2.475-0.128v76.587h76.587C247.207,216.756,247.19,215.894,247.122,215.058z"/>
		</g>
	</g>
</g>
<g>
</g>
<g>
</g>
<g>
</g>
<g>
</g>
<g>
</g>
<g>
</g>
<g>
</g>
<g>
</g>
<g>
</g>
<g>
</g>
<g>
</g>
<g>
</g>
<g>
</g>
<g>
</g>
<g>
</g>
</svg>
