<?xml version="1.0" encoding="iso-8859-1"?>
<!-- Generator: Adobe Illustrator 19.0.0, SVG Export Plug-In . SVG Version: 6.00 Build 0)  -->
<svg version="1.1" id="Layer_1" xmlns="http://www.w3.org/2000/svg" xmlns:xlink="http://www.w3.org/1999/xlink" x="0px" y="0px"
	 viewBox="0 0 512.003 512.003" style="enable-background:new 0 0 512.003 512.003;" xml:space="preserve">
<g>
	<g>
		<g>
			<path d="M256.003,238.935c0,9.412,7.654,17.067,17.067,17.067c9.412,0,17.067-7.654,17.067-17.067
				c0-9.412-7.654-17.067-17.067-17.067C263.657,221.868,256.003,229.522,256.003,238.935z"/>
			<path d="M0,354.135c0,21.171,17.229,38.4,38.4,38.4h164.011l-12.8,51.2h-1.877c-23.526,0-42.667,19.14-42.667,42.667
				c0,4.71,3.823,8.533,8.533,8.533h204.8c4.719,0,8.533-3.823,8.533-8.533c0-23.526-19.14-42.667-42.667-42.667h-1.869l-12.8-51.2
				H473.6c21.18,0,38.4-17.229,38.4-38.4v-29.867H0V354.135z M219.998,392.535h72.004l12.8,51.2h-97.604L219.998,392.535z"/>
			<path d="M473.603,17.068h-435.2c-21.171,0-38.4,17.229-38.4,38.4v251.733h512V55.468
				C512.003,34.297,494.774,17.068,473.603,17.068z M249.969,99.901c-3.336-3.337-3.336-8.73,0-12.066
				c3.337-3.337,8.73-3.337,12.066,0l11.034,11.034l11.034-11.034c3.337-3.337,8.73-3.337,12.066,0c3.336,3.336,3.336,8.73,0,12.066
				l-11.034,11.034l11.034,11.034c3.336,3.337,3.336,8.73,0,12.066c-1.664,1.664-3.849,2.5-6.033,2.5
				c-2.185,0-4.369-0.836-6.033-2.5l-11.034-11.034l-11.034,11.034c-1.664,1.664-3.849,2.5-6.033,2.5
				c-2.185,0-4.369-0.836-6.033-2.5c-3.336-3.337-3.336-8.73,0-12.066l11.034-11.034L249.969,99.901z M51.203,76.801h25.6
				c4.719,0,8.533,3.823,8.533,8.533s-3.814,8.533-8.533,8.533h-25.6c-4.719,0-8.533-3.823-8.533-8.533S46.484,76.801,51.203,76.801
				z M51.203,110.935h42.667c4.719,0,8.533,3.823,8.533,8.533c0,4.71-3.814,8.533-8.533,8.533H51.203
				c-4.719,0-8.533-3.823-8.533-8.533C42.669,114.758,46.484,110.935,51.203,110.935z M51.203,145.068h25.6
				c4.719,0,8.533,3.823,8.533,8.533s-3.814,8.533-8.533,8.533h-25.6c-4.719,0-8.533-3.823-8.533-8.533
				S46.484,145.068,51.203,145.068z M51.203,179.201h42.667c4.719,0,8.533,3.823,8.533,8.533s-3.814,8.533-8.533,8.533H51.203
				c-4.719,0-8.533-3.823-8.533-8.533S46.484,179.201,51.203,179.201z M51.203,213.335h25.6c4.719,0,8.533,3.823,8.533,8.533
				c0,4.71-3.814,8.533-8.533,8.533h-25.6c-4.719,0-8.533-3.823-8.533-8.533C42.669,217.158,46.484,213.335,51.203,213.335z
				 M93.869,264.535H51.203c-4.719,0-8.533-3.823-8.533-8.533c0-4.71,3.814-8.533,8.533-8.533h42.667
				c4.719,0,8.533,3.823,8.533,8.533C102.403,260.712,98.588,264.535,93.869,264.535z M153.603,264.535h-25.6
				c-4.719,0-8.533-3.823-8.533-8.533c0-4.71,3.814-8.533,8.533-8.533h25.6c4.719,0,8.533,3.823,8.533,8.533
				C162.136,260.712,158.321,264.535,153.603,264.535z M196.269,264.535h-8.533c-4.719,0-8.533-3.823-8.533-8.533
				c0-4.71,3.814-8.533,8.533-8.533h8.533c4.719,0,8.533,3.823,8.533,8.533C204.803,260.712,200.988,264.535,196.269,264.535z
				 M196.269,230.401h-85.333c-4.719,0-8.533-3.823-8.533-8.533c0-4.71,3.814-8.533,8.533-8.533h85.333
				c4.719,0,8.533,3.823,8.533,8.533C204.803,226.578,200.988,230.401,196.269,230.401z M119.469,187.735
				c0-4.71,3.814-8.533,8.533-8.533h25.6c4.719,0,8.533,3.823,8.533,8.533s-3.814,8.533-8.533,8.533h-25.6
				C123.284,196.268,119.469,192.445,119.469,187.735z M196.269,196.268h-8.533c-4.719,0-8.533-3.823-8.533-8.533
				s3.814-8.533,8.533-8.533h8.533c4.719,0,8.533,3.823,8.533,8.533S200.988,196.268,196.269,196.268z M196.269,162.135h-85.333
				c-4.719,0-8.533-3.823-8.533-8.533s3.814-8.533,8.533-8.533h85.333c4.719,0,8.533,3.823,8.533,8.533
				S200.988,162.135,196.269,162.135z M119.469,119.468c0-4.71,3.814-8.533,8.533-8.533h25.6c4.719,0,8.533,3.823,8.533,8.533
				c0,4.71-3.814,8.533-8.533,8.533h-25.6C123.284,128.001,119.469,124.178,119.469,119.468z M196.269,128.001h-8.533
				c-4.719,0-8.533-3.823-8.533-8.533c0-4.71,3.814-8.533,8.533-8.533h8.533c4.719,0,8.533,3.823,8.533,8.533
				C204.803,124.178,200.988,128.001,196.269,128.001z M196.269,93.868h-85.333c-4.719,0-8.533-3.823-8.533-8.533
				s3.814-8.533,8.533-8.533h85.333c4.719,0,8.533,3.823,8.533,8.533S200.988,93.868,196.269,93.868z M458.302,249.968
				c3.337,3.337,3.337,8.73,0,12.066c-1.664,1.664-3.849,2.5-6.033,2.5c-2.185,0-4.369-0.836-6.033-2.5l-11.034-11.034
				l-11.034,11.034c-1.664,1.664-3.849,2.5-6.033,2.5c-2.185,0-4.369-0.836-6.033-2.5c-3.337-3.337-3.337-8.73,0-12.066
				l11.034-11.034l-11.034-11.034c-3.337-3.337-3.337-8.73,0-12.066c3.337-3.337,8.73-3.337,12.066,0l11.034,11.034l11.034-11.034
				c3.336-3.337,8.73-3.337,12.066,0c3.337,3.336,3.337,8.73,0,12.066l-11.034,11.034L458.302,249.968z M466.836,116.968
				c-1.664,1.664-3.849,2.5-6.033,2.5c-2.185,0-4.369-0.836-6.033-2.5l-11.034-11.034v22.067c0,28.237-22.963,51.2-51.2,51.2h-76.8
				c-16.393,0-30.097,11.622-33.374,27.051c14.293,4.079,24.841,17.101,24.841,32.683c0,18.825-15.309,34.133-34.133,34.133
				c-18.825,0-34.133-15.309-34.133-34.133c0-16.085,11.213-29.517,26.214-33.109c3.652-24.678,24.909-43.691,50.586-43.691h76.8
				c18.825,0,34.133-15.309,34.133-34.133v-22.067l-11.034,11.034c-1.664,1.664-3.849,2.5-6.033,2.5c-2.185,0-4.369-0.836-6.033-2.5
				c-3.337-3.336-3.337-8.73,0-12.066l25.591-25.591c0.785-0.794,1.732-1.417,2.782-1.852c2.082-0.862,4.437-0.862,6.519,0
				c1.05,0.435,1.988,1.058,2.782,1.852l25.591,25.591C470.172,108.238,470.172,113.631,466.836,116.968z"/>
		</g>
	</g>
</g>
<g>
</g>
<g>
</g>
<g>
</g>
<g>
</g>
<g>
</g>
<g>
</g>
<g>
</g>
<g>
</g>
<g>
</g>
<g>
</g>
<g>
</g>
<g>
</g>
<g>
</g>
<g>
</g>
<g>
</g>
</svg>
