<?xml version="1.0" encoding="iso-8859-1"?>
<!-- Generator: Adobe Illustrator 19.0.0, SVG Export Plug-In . SVG Version: 6.00 Build 0)  -->
<svg version="1.1" id="Layer_1" xmlns="http://www.w3.org/2000/svg" xmlns:xlink="http://www.w3.org/1999/xlink" x="0px" y="0px"
	 viewBox="0 0 512 512" style="enable-background:new 0 0 512 512;" xml:space="preserve">
<g>
	<g>
		<g>
			<path d="M503.467,371.2h-25.6V106.667c0-14.114-11.486-25.6-25.6-25.6H59.733c-14.114,0-25.6,11.486-25.6,25.6V371.2h-25.6
				C3.814,371.2,0,375.023,0,379.733v25.6c0,14.114,11.486,25.6,25.6,25.6h460.8c14.114,0,25.6-11.486,25.6-25.6v-25.6
				C512,375.023,508.186,371.2,503.467,371.2z M241.434,163.9c-3.336-3.337-3.336-8.73,0-12.066c3.337-3.337,8.73-3.337,12.066,0
				l11.034,11.034l11.034-11.034c3.336-3.337,8.73-3.337,12.066,0c3.336,3.336,3.336,8.73,0,12.066l-11.034,11.034l11.034,11.034
				c3.336,3.337,3.336,8.73,0,12.066c-1.664,1.664-3.849,2.5-6.033,2.5c-2.185,0-4.369-0.836-6.033-2.5l-11.034-11.034
				L253.5,198.033c-1.664,1.664-3.849,2.5-6.033,2.5c-2.185,0-4.369-0.836-6.033-2.5c-3.336-3.337-3.336-8.73,0-12.066
				l11.034-11.034L241.434,163.9z M256.614,269.824c3.652-24.678,24.909-43.691,50.586-43.691h59.733
				c18.825,0,34.133-15.309,34.133-34.133v-22.067l-11.034,11.034c-1.664,1.664-3.849,2.5-6.033,2.5c-2.185,0-4.369-0.836-6.033-2.5
				c-3.336-3.336-3.336-8.73,0-12.066l25.591-25.591c0.794-0.794,1.732-1.417,2.782-1.852c2.082-0.862,4.437-0.862,6.519,0
				c1.05,0.435,1.988,1.058,2.782,1.852l25.591,25.591c3.337,3.337,3.337,8.73,0,12.066c-1.664,1.664-3.849,2.5-6.033,2.5
				c-2.185,0-4.369-0.836-6.033-2.5l-11.034-11.034V192c0,28.237-22.963,51.2-51.2,51.2H307.2
				c-16.393,0-30.097,11.622-33.374,27.051c14.293,4.079,24.841,17.101,24.841,32.683c0,18.825-15.309,34.133-34.133,34.133
				c-18.825,0-34.133-15.309-34.133-34.133C230.4,286.848,241.613,273.417,256.614,269.824z M432.7,313.967
				c3.337,3.337,3.337,8.73,0,12.066c-1.664,1.664-3.849,2.5-6.033,2.5s-4.369-0.836-6.033-2.5L409.6,314.999l-11.034,11.034
				c-1.664,1.664-3.849,2.5-6.033,2.5c-2.185,0-4.369-0.836-6.033-2.5c-3.337-3.337-3.337-8.73,0-12.066l11.034-11.034L386.5,291.9
				c-3.337-3.337-3.337-8.73,0-12.066c3.336-3.337,8.73-3.337,12.066,0l11.034,11.034l11.034-11.034
				c3.337-3.337,8.73-3.337,12.066,0c3.337,3.336,3.337,8.73,0,12.066l-11.034,11.034L432.7,313.967z M136.533,140.8h59.733
				c4.719,0,8.533,3.823,8.533,8.533s-3.814,8.533-8.533,8.533h-59.733c-4.719,0-8.533-3.823-8.533-8.533
				S131.814,140.8,136.533,140.8z M196.267,294.4h-59.733c-4.719,0-8.533-3.823-8.533-8.533c0-4.71,3.814-8.533,8.533-8.533h59.733
				c4.719,0,8.533,3.823,8.533,8.533C204.8,290.577,200.986,294.4,196.267,294.4z M204.8,320c0,1.109-0.256,2.219-0.683,3.243
				c-0.427,1.024-1.024,1.963-1.792,2.816c-1.621,1.536-3.84,2.475-6.059,2.475c-0.597,0-1.109-0.085-1.707-0.171
				c-0.512-0.085-1.024-0.256-1.536-0.512c-0.512-0.171-1.024-0.427-1.544-0.768c-0.418-0.341-0.845-0.683-1.271-1.024
				c-0.768-0.853-1.365-1.792-1.792-2.816c-0.427-1.024-0.683-2.133-0.683-3.243c0-2.219,0.93-4.437,2.475-6.059l1.271-1.024
				c0.521-0.341,1.033-0.597,1.544-0.768c0.512-0.256,1.024-0.427,1.536-0.512c2.816-0.597,5.794,0.341,7.765,2.304
				C203.861,315.563,204.8,317.781,204.8,320z M170.667,320c0,4.71-3.814,8.533-8.533,8.533H153.6c-4.719,0-8.533-3.823-8.533-8.533
				s3.814-8.533,8.533-8.533h8.533C166.852,311.467,170.667,315.29,170.667,320z M145.067,251.733c0-4.71,3.814-8.533,8.533-8.533
				h8.533c4.719,0,8.533,3.823,8.533,8.533c0,4.71-3.814,8.533-8.533,8.533H153.6C148.881,260.267,145.067,256.444,145.067,251.733z
				 M204.621,253.44c-0.077,0.512-0.247,1.024-0.503,1.536c-0.179,0.512-0.427,1.024-0.768,1.536
				c-0.341,0.427-0.683,0.853-1.024,1.28c-1.621,1.536-3.84,2.475-6.059,2.475c-0.597,0-1.109-0.085-1.707-0.171
				c-0.512-0.085-1.024-0.256-1.536-0.512c-0.512-0.171-1.024-0.427-1.544-0.768c-0.418-0.341-0.845-0.683-1.271-1.024
				c-0.341-0.427-0.683-0.853-1.024-1.28c-0.341-0.512-0.597-1.024-0.768-1.536c-0.256-0.512-0.427-1.024-0.512-1.536
				c-0.085-0.597-0.171-1.109-0.171-1.707c0-1.109,0.256-2.219,0.683-3.243c0.427-1.109,1.024-1.963,1.792-2.816
				c0.427-0.341,0.853-0.768,1.271-1.024c0.521-0.341,1.033-0.597,1.544-0.768c0.512-0.256,1.024-0.427,1.536-0.512
				c2.816-0.597,5.794,0.341,7.765,2.304c0.768,0.853,1.365,1.707,1.792,2.816c0.427,1.024,0.683,2.133,0.683,3.243
				C204.8,252.331,204.715,252.843,204.621,253.44z M196.267,226.133h-59.733c-4.719,0-8.533-3.823-8.533-8.533
				s3.814-8.533,8.533-8.533h59.733c4.719,0,8.533,3.823,8.533,8.533S200.986,226.133,196.267,226.133z M145.067,183.467
				c0-4.71,3.814-8.533,8.533-8.533h8.533c4.719,0,8.533,3.823,8.533,8.533c0,4.71-3.814,8.533-8.533,8.533H153.6
				C148.881,192,145.067,188.177,145.067,183.467z M204.117,186.709c-0.427,1.109-1.024,1.963-1.792,2.816
				c-1.621,1.536-3.84,2.475-6.059,2.475c-0.597,0-1.109-0.085-1.707-0.171c-0.512-0.085-1.024-0.256-1.536-0.512
				c-0.512-0.171-1.024-0.427-1.544-0.768c-0.418-0.256-0.845-0.683-1.271-1.024c-0.768-0.853-1.365-1.707-1.792-2.816
				c-0.427-1.024-0.683-2.133-0.683-3.243c0-0.597,0.085-1.109,0.171-1.707c0.085-0.512,0.256-1.024,0.512-1.536
				c0.171-0.512,0.427-1.024,0.768-1.536c0.341-0.427,0.683-0.853,1.024-1.28l1.271-1.024c0.521-0.341,1.033-0.597,1.544-0.768
				c0.512-0.256,1.024-0.427,1.536-0.512c2.816-0.512,5.794,0.341,7.765,2.304c0.341,0.427,0.683,0.853,1.024,1.28
				c0.341,0.512,0.589,1.024,0.768,1.536c0.256,0.512,0.427,1.024,0.503,1.536c0.094,0.597,0.179,1.109,0.179,1.707
				C204.8,184.576,204.544,185.685,204.117,186.709z M76.8,140.8h25.6c4.719,0,8.533,3.823,8.533,8.533s-3.814,8.533-8.533,8.533
				H76.8c-4.719,0-8.533-3.823-8.533-8.533S72.081,140.8,76.8,140.8z M76.8,174.933h42.667c4.719,0,8.533,3.823,8.533,8.533
				c0,4.71-3.814,8.533-8.533,8.533H76.8c-4.719,0-8.533-3.823-8.533-8.533C68.267,178.756,72.081,174.933,76.8,174.933z
				 M76.8,209.067h25.6c4.719,0,8.533,3.823,8.533,8.533s-3.814,8.533-8.533,8.533H76.8c-4.719,0-8.533-3.823-8.533-8.533
				S72.081,209.067,76.8,209.067z M76.8,243.2h42.667c4.719,0,8.533,3.823,8.533,8.533c0,4.71-3.814,8.533-8.533,8.533H76.8
				c-4.719,0-8.533-3.823-8.533-8.533C68.267,247.023,72.081,243.2,76.8,243.2z M76.8,277.333h25.6c4.719,0,8.533,3.823,8.533,8.533
				c0,4.71-3.814,8.533-8.533,8.533H76.8c-4.719,0-8.533-3.823-8.533-8.533C68.267,281.156,72.081,277.333,76.8,277.333z
				 M76.8,311.467h42.667c4.719,0,8.533,3.823,8.533,8.533s-3.814,8.533-8.533,8.533H76.8c-4.719,0-8.533-3.823-8.533-8.533
				S72.081,311.467,76.8,311.467z M494.933,405.333c0,4.702-3.823,8.533-8.533,8.533H25.6c-4.71,0-8.533-3.831-8.533-8.533v-17.067
				h25.6H179.2v8.533c0,4.71,3.814,8.533,8.533,8.533h136.533c4.719,0,8.533-3.823,8.533-8.533v-8.533h136.533h25.6V405.333z"/>
			<path d="M264.533,320c9.412,0,17.067-7.654,17.067-17.067c0-9.412-7.654-17.067-17.067-17.067
				c-9.412,0-17.067,7.654-17.067,17.067C247.467,312.346,255.121,320,264.533,320z"/>
		</g>
	</g>
</g>
<g>
</g>
<g>
</g>
<g>
</g>
<g>
</g>
<g>
</g>
<g>
</g>
<g>
</g>
<g>
</g>
<g>
</g>
<g>
</g>
<g>
</g>
<g>
</g>
<g>
</g>
<g>
</g>
<g>
</g>
</svg>
