<?xml version="1.0" encoding="iso-8859-1"?>
<!-- Generator: Adobe Illustrator 19.0.0, SVG Export Plug-In . SVG Version: 6.00 Build 0)  -->
<svg version="1.1" id="Layer_1" xmlns="http://www.w3.org/2000/svg" xmlns:xlink="http://www.w3.org/1999/xlink" x="0px" y="0px"
	 viewBox="0 0 512.002 512.002" style="enable-background:new 0 0 512.002 512.002;" xml:space="preserve">
<g>
	<g>
		<g>
			<path d="M0.002,324.268v29.867c0,21.171,17.22,38.4,38.4,38.4h164.002l-12.8,51.2h-1.869c-23.526,0-42.667,19.14-42.667,42.667
				c0,4.71,3.823,8.533,8.533,8.533h204.8c4.71,0,8.533-3.823,8.533-8.533c0-23.526-19.14-42.667-42.667-42.667H322.4l-12.8-51.2
				h164.002c21.171,0,38.4-17.229,38.4-38.4v-29.867H0.002z M207.2,443.734l12.8-51.2h72.004l12.8,51.2H207.2z"/>
			<path d="M512,55.468c0-21.171-17.229-38.4-38.4-38.4H38.4c-21.171,0-38.4,17.229-38.4,38.4v251.733h512V55.468z M110.933,155.495
				c4.71,0,8.533,3.823,8.533,8.533c0,13.517,11.008,23.706,25.6,23.706c8.943,0,15.522-2.415,19.558-7.185
				c2.185-2.586,3.191-5.931,2.825-9.421c-0.393-3.755-2.321-7.236-5.308-9.549l-44.629-34.714
				c-6.63-5.163-10.931-12.911-11.802-21.257c-0.853-8.158,1.553-16.051,6.767-22.221c6.263-7.398,14.746-12.331,24.055-14.225
				v-9.429c0-4.71,3.823-8.533,8.533-8.533c4.71,0,8.533,3.823,8.533,8.533v9.395c19.447,3.968,34.133,21.205,34.133,41.805
				c0,4.71-3.823,8.533-8.533,8.533s-8.533-3.823-8.533-8.533c0-14.114-11.486-25.6-25.6-25.6c-7.543,0-14.677,3.311-19.558,9.079
				c-2.185,2.586-3.191,5.931-2.825,9.429c0.393,3.746,2.321,7.228,5.308,9.549l44.629,34.705
				c6.63,5.163,10.931,12.911,11.802,21.257c0.853,8.166-1.553,16.06-6.775,22.221c-5.845,6.912-13.961,11.034-24.047,12.518v9.242
				c0,4.71-3.823,8.533-8.533,8.533c-4.71,0-8.533-3.823-8.533-8.533v-9.335c-19.703-3.678-34.133-19.908-34.133-39.97
				C102.4,159.318,106.223,155.495,110.933,155.495z M170.667,247.468c0,0.597-0.085,1.109-0.171,1.707
				c-0.085,0.512-0.256,1.024-0.512,1.536c-0.171,0.512-0.427,1.024-0.768,1.536c-0.341,0.427-0.683,0.853-1.024,1.28
				c-0.427,0.341-0.853,0.683-1.28,1.024c-0.512,0.341-1.024,0.597-1.536,0.768c-0.512,0.256-1.024,0.427-1.536,0.512
				c-0.597,0.085-1.109,0.171-1.707,0.171c-2.219,0-4.437-0.939-6.059-2.475c-0.341-0.427-0.768-0.853-1.024-1.28
				c-0.341-0.512-0.597-1.024-0.768-1.536c-0.256-0.512-0.427-1.024-0.512-1.536c-0.085-0.597-0.171-1.109-0.171-1.707
				c0-2.219,0.939-4.437,2.475-6.059c1.963-1.963,4.949-2.901,7.765-2.304c0.512,0.085,1.024,0.256,1.536,0.512
				c0.512,0.171,1.024,0.427,1.536,0.768c0.427,0.341,0.853,0.683,1.28,1.024C169.728,243.03,170.667,245.249,170.667,247.468z
				 M110.933,238.934H128c4.71,0,8.533,3.823,8.533,8.533s-3.823,8.533-8.533,8.533h-17.067c-4.71,0-8.533-3.823-8.533-8.533
				S106.223,238.934,110.933,238.934z M179.2,290.134h-68.267c-4.71,0-8.533-3.823-8.533-8.533c0-4.71,3.823-8.533,8.533-8.533
				H179.2c4.71,0,8.533,3.823,8.533,8.533C187.733,286.311,183.91,290.134,179.2,290.134z M230.229,283.307
				c-0.085,0.512-0.256,1.024-0.512,1.536c-0.171,0.512-0.427,1.024-0.768,1.536c-0.341,0.427-0.683,0.853-1.024,1.28
				c-1.621,1.536-3.84,2.475-6.059,2.475c-2.219,0-4.437-0.939-6.059-2.475c-0.341-0.427-0.683-0.853-1.024-1.28
				c-0.341-0.512-0.597-1.024-0.768-1.536c-0.256-0.512-0.427-1.024-0.512-1.536c-0.085-0.597-0.171-1.109-0.171-1.707
				c0-1.109,0.256-2.219,0.683-3.243c0.427-1.024,1.024-1.963,1.792-2.816c3.243-3.157,8.875-3.157,12.117,0
				c0.768,0.853,1.365,1.792,1.792,2.816c0.427,1.024,0.683,2.133,0.683,3.243C230.4,282.198,230.315,282.71,230.229,283.307z
				 M221.867,256.001h-25.6c-4.71,0-8.533-3.823-8.533-8.533s3.823-8.533,8.533-8.533h25.6c4.71,0,8.533,3.823,8.533,8.533
				S226.577,256.001,221.867,256.001z M452.267,264.534c0,4.71-3.814,8.533-8.533,8.533c-4.719,0-8.533-3.823-8.533-8.533v-8.533
				h-59.733c-4.71,0-8.533-3.823-8.533-8.533s3.823-8.533,8.533-8.533H435.2v-34.133h-34.133c-4.71,0-8.533-3.823-8.533-8.533
				s3.823-8.533,8.533-8.533H435.2v-34.133H315.733c-4.71,0-8.533-3.823-8.533-8.533s3.823-8.533,8.533-8.533H435.2v-34.133h-59.733
				c-4.71,0-8.533-3.823-8.533-8.533s3.823-8.533,8.533-8.533H435.2v-8.533c0-4.71,3.814-8.533,8.533-8.533
				c4.719,0,8.533,3.823,8.533,8.533V264.534z"/>
		</g>
	</g>
</g>
<g>
</g>
<g>
</g>
<g>
</g>
<g>
</g>
<g>
</g>
<g>
</g>
<g>
</g>
<g>
</g>
<g>
</g>
<g>
</g>
<g>
</g>
<g>
</g>
<g>
</g>
<g>
</g>
<g>
</g>
</svg>
