<?xml version="1.0" encoding="iso-8859-1"?>
<!-- Generator: Adobe Illustrator 19.0.0, SVG Export Plug-In . SVG Version: 6.00 Build 0)  -->
<svg version="1.1" id="Layer_1" xmlns="http://www.w3.org/2000/svg" xmlns:xlink="http://www.w3.org/1999/xlink" x="0px" y="0px"
	 viewBox="0 0 512 512" style="enable-background:new 0 0 512 512;" xml:space="preserve">
<g>
	<g>
		<g>
			<path d="M503.467,371.2h-25.6V106.667c0-14.114-11.486-25.6-25.6-25.6H59.733c-14.114,0-25.6,11.486-25.6,25.6V371.2h-25.6
				c-4.71,0-8.533,3.823-8.533,8.533v25.6c0,14.114,11.486,25.6,25.6,25.6h460.8c14.114,0,25.6-11.486,25.6-25.6v-25.6
				C512,375.023,508.177,371.2,503.467,371.2z M204.8,115.2h76.8c4.71,0,8.533,3.823,8.533,8.533c0,4.71-3.823,8.533-8.533,8.533
				h-76.8c-4.71,0-8.533-3.823-8.533-8.533C196.267,119.023,200.09,115.2,204.8,115.2z M290.133,157.867
				c0,4.71-3.823,8.533-8.533,8.533h-8.533c-4.71,0-8.533-3.823-8.533-8.533s3.823-8.533,8.533-8.533h8.533
				C286.31,149.333,290.133,153.156,290.133,157.867z M247.467,157.867c0,4.71-3.823,8.533-8.533,8.533h-76.8
				c-4.71,0-8.533-3.823-8.533-8.533s3.823-8.533,8.533-8.533h76.8C243.644,149.333,247.467,153.156,247.467,157.867z M76.8,115.2
				h93.867c4.71,0,8.533,3.823,8.533,8.533c0,4.71-3.823,8.533-8.533,8.533H76.8c-4.71,0-8.533-3.823-8.533-8.533
				C68.267,119.023,72.09,115.2,76.8,115.2z M76.8,149.333H128c4.71,0,8.533,3.823,8.533,8.533S132.71,166.4,128,166.4H76.8
				c-4.71,0-8.533-3.823-8.533-8.533S72.09,149.333,76.8,149.333z M102.4,277.333c4.028,0,7.834,0.828,11.418,2.108l16.29-16.282
				c-1.28-3.593-2.108-7.398-2.108-11.426c0-18.825,15.309-34.133,34.133-34.133s34.133,15.309,34.133,34.133
				c0,4.028-0.828,7.834-2.108,11.426l16.29,16.282c3.584-1.28,7.39-2.108,11.418-2.108c6.315,0,12.151,1.835,17.229,4.838
				l61.679-61.679c-1.28-3.593-2.108-7.398-2.108-11.426c0-18.825,15.309-34.133,34.133-34.133
				c18.825,0,34.133,15.309,34.133,34.133c0,4.241-0.87,8.26-2.295,12.006l34.15,41.114c3.413-1.152,7.006-1.92,10.812-1.92
				c18.825,0,34.133,15.309,34.133,34.133c0,18.825-15.309,34.133-34.133,34.133c-18.825,0-34.133-15.309-34.133-34.133
				c0-8.806,3.439-16.76,8.934-22.818l-30.089-36.233c-5.888,4.83-13.321,7.851-21.513,7.851c-8.508,0-16.205-3.243-22.187-8.405
				l-59.452,59.443c2.995,5.077,4.838,10.914,4.838,17.229c0,18.825-15.309,34.133-34.133,34.133s-34.133-15.309-34.133-34.133
				c0-8.508,3.243-16.205,8.414-22.187l-11.827-11.827c-5.982,5.171-13.679,8.414-22.187,8.414c-8.508,0-16.205-3.243-22.187-8.414
				l-11.827,11.827c5.171,5.982,8.414,13.679,8.414,22.187c0,18.825-15.309,34.133-34.133,34.133
				c-18.825,0-34.133-15.309-34.133-34.133S83.575,277.333,102.4,277.333z M494.933,405.333c0,4.702-3.831,8.533-8.533,8.533H25.6
				c-4.702,0-8.533-3.831-8.533-8.533v-17.067h25.6H179.2v8.533c0,4.71,3.823,8.533,8.533,8.533h136.533
				c4.71,0,8.533-3.823,8.533-8.533v-8.533h136.533h25.6V405.333z"/>
			<path d="M221.867,328.533c9.412,0,17.067-7.654,17.067-17.067c0-9.412-7.654-17.067-17.067-17.067
				c-9.412,0-17.067,7.654-17.067,17.067C204.8,320.879,212.454,328.533,221.867,328.533z"/>
			<path d="M162.133,268.8c9.412,0,17.067-7.654,17.067-17.067c0-9.412-7.654-17.067-17.067-17.067
				c-9.412,0-17.067,7.654-17.067,17.067C145.067,261.146,152.721,268.8,162.133,268.8z"/>
			<path d="M102.4,328.533c9.412,0,17.067-7.654,17.067-17.067c0-9.412-7.654-17.067-17.067-17.067
				c-9.412,0-17.067,7.654-17.067,17.067C85.333,320.879,92.988,328.533,102.4,328.533z"/>
			<path d="M332.8,226.133c5.897,0,11.102-3.012,14.174-7.578c0.051-0.102,0.102-0.196,0.162-0.299
				c1.707-2.654,2.731-5.803,2.731-9.19c0-9.412-7.654-17.067-17.067-17.067c-9.412,0-17.067,7.654-17.067,17.067
				C315.733,218.479,323.388,226.133,332.8,226.133z"/>
			<path d="M409.6,311.467c9.412,0,17.067-7.654,17.067-17.067c0-9.412-7.654-17.067-17.067-17.067
				c-9.412,0-17.067,7.654-17.067,17.067C392.533,303.812,400.188,311.467,409.6,311.467z"/>
		</g>
	</g>
</g>
<g>
</g>
<g>
</g>
<g>
</g>
<g>
</g>
<g>
</g>
<g>
</g>
<g>
</g>
<g>
</g>
<g>
</g>
<g>
</g>
<g>
</g>
<g>
</g>
<g>
</g>
<g>
</g>
<g>
</g>
</svg>
