<?xml version="1.0" encoding="iso-8859-1"?>
<!-- Generator: Adobe Illustrator 19.0.0, SVG Export Plug-In . SVG Version: 6.00 Build 0)  -->
<svg version="1.1" id="Layer_1" xmlns="http://www.w3.org/2000/svg" xmlns:xlink="http://www.w3.org/1999/xlink" x="0px" y="0px"
	 viewBox="0 0 512 512" style="enable-background:new 0 0 512 512;" xml:space="preserve">
<g>
	<g>
		<path d="M503.467,371.2h-25.6V106.667c0-14.114-11.486-25.6-25.6-25.6H59.733c-14.114,0-25.6,11.486-25.6,25.6V371.2h-25.6
			c-4.71,0-8.533,3.823-8.533,8.533v25.6c0,14.114,11.486,25.6,25.6,25.6h460.8c14.114,0,25.6-11.486,25.6-25.6v-25.6
			C512,375.023,508.177,371.2,503.467,371.2z M215.834,279.834l68.267-68.267c3.337-3.337,8.73-3.337,12.066,0l36.634,36.634
			l64.734-64.734H358.4c-4.71,0-8.533-3.823-8.533-8.533c0-4.71,3.823-8.533,8.533-8.533h59.733c1.109,0,2.219,0.23,3.26,0.657
			c2.091,0.87,3.746,2.526,4.617,4.617c0.427,1.041,0.657,2.15,0.657,3.26v59.733c0,4.71-3.823,8.533-8.533,8.533
			s-8.533-3.823-8.533-8.533v-39.134L338.833,266.3c-1.664,1.664-3.849,2.5-6.033,2.5c-2.185,0-4.369-0.836-6.033-2.5
			l-36.634-36.634L227.9,291.9c-1.664,1.664-3.849,2.5-6.033,2.5c-2.185,0-4.369-0.836-6.033-2.5
			C212.497,288.563,212.497,283.17,215.834,279.834z M119.467,174.933H153.6c4.71,0,8.533,3.823,8.533,8.533
			c0,4.71-3.823,8.533-8.533,8.533h-34.133c-4.71,0-8.533-3.823-8.533-8.533C110.933,178.756,114.756,174.933,119.467,174.933z
			 M119.467,209.067h17.067c4.71,0,8.533,3.823,8.533,8.533s-3.823,8.533-8.533,8.533h-17.067c-4.71,0-8.533-3.823-8.533-8.533
			S114.756,209.067,119.467,209.067z M119.467,243.2H153.6c4.71,0,8.533,3.823,8.533,8.533c0,4.71-3.823,8.533-8.533,8.533h-34.133
			c-4.71,0-8.533-3.823-8.533-8.533C110.933,247.023,114.756,243.2,119.467,243.2z M119.467,277.333h17.067
			c4.71,0,8.533,3.823,8.533,8.533c0,4.71-3.823,8.533-8.533,8.533h-17.067c-4.71,0-8.533-3.823-8.533-8.533
			C110.933,281.156,114.756,277.333,119.467,277.333z M76.8,166.4c0-4.71,3.823-8.533,8.533-8.533c4.71,0,8.533,3.823,8.533,8.533
			v136.533c0,4.71-3.823,8.533-8.533,8.533c-4.71,0-8.533-3.823-8.533-8.533V166.4z M494.933,405.333
			c0,4.702-3.831,8.533-8.533,8.533H25.6c-4.702,0-8.533-3.831-8.533-8.533v-17.067h25.6H179.2v8.533
			c0,4.71,3.823,8.533,8.533,8.533h136.533c4.71,0,8.533-3.823,8.533-8.533v-8.533h136.533h25.6V405.333z"/>
	</g>
</g>
<g>
</g>
<g>
</g>
<g>
</g>
<g>
</g>
<g>
</g>
<g>
</g>
<g>
</g>
<g>
</g>
<g>
</g>
<g>
</g>
<g>
</g>
<g>
</g>
<g>
</g>
<g>
</g>
<g>
</g>
</svg>
