<?xml version="1.0" encoding="iso-8859-1"?>
<!-- Generator: Adobe Illustrator 19.0.0, SVG Export Plug-In . SVG Version: 6.00 Build 0)  -->
<svg version="1.1" id="Layer_1" xmlns="http://www.w3.org/2000/svg" xmlns:xlink="http://www.w3.org/1999/xlink" x="0px" y="0px"
	 viewBox="0 0 512.002 512.002" style="enable-background:new 0 0 512.002 512.002;" xml:space="preserve">
<g>
	<g>
		<g>
			<polygon points="162.133,136.534 162.133,273.068 196.267,273.068 196.267,162.134 196.267,102.401 162.133,102.401 			"/>
			<polygon points="264.533,162.134 264.533,273.068 298.667,273.068 298.667,128.001 264.533,128.001 			"/>
			<rect x="213.333" y="179.201" width="34.133" height="93.867"/>
			<rect x="366.933" y="102.401" width="34.133" height="170.667"/>
			<polygon points="315.733,110.934 315.733,273.068 349.867,273.068 349.867,85.334 349.867,68.268 315.733,68.268 			"/>
			<path d="M512,55.468c0-21.171-17.229-38.4-38.4-38.4H38.4c-21.171,0-38.4,17.229-38.4,38.4v251.733h512V55.468z M443.733,290.134
				h-25.6h-51.2h-17.067h-34.133h-17.067h-34.133h-17.067h-34.133h-17.067h-34.133h-17.067h-51.2h-25.6
				c-4.71,0-8.533-3.823-8.533-8.533c0-4.71,3.823-8.533,8.533-8.533h25.6V136.534h51.2v-51.2h68.267v76.8h34.133v-51.2h51.2V51.201
				h68.267v34.133h51.2v187.733h25.6c4.71,0,8.533,3.823,8.533,8.533C452.267,286.311,448.444,290.134,443.733,290.134z"/>
			<rect x="110.933" y="153.601" width="34.133" height="119.467"/>
			<path d="M0.002,324.268v29.867c0,21.171,17.22,38.4,38.4,38.4h164.002l-12.8,51.2h-1.869c-23.526,0-42.667,19.14-42.667,42.667
				c0,4.71,3.823,8.533,8.533,8.533h204.8c4.71,0,8.533-3.823,8.533-8.533c0-23.526-19.14-42.667-42.667-42.667H322.4l-12.8-51.2
				h164.002c21.171,0,38.4-17.229,38.4-38.4v-29.867H0.002z M207.2,443.734l12.8-51.2h72.004l12.8,51.2H207.2z"/>
		</g>
	</g>
</g>
<g>
</g>
<g>
</g>
<g>
</g>
<g>
</g>
<g>
</g>
<g>
</g>
<g>
</g>
<g>
</g>
<g>
</g>
<g>
</g>
<g>
</g>
<g>
</g>
<g>
</g>
<g>
</g>
<g>
</g>
</svg>
