<?xml version="1.0" encoding="iso-8859-1"?>
<!-- Generator: Adobe Illustrator 19.0.0, SVG Export Plug-In . SVG Version: 6.00 Build 0)  -->
<svg version="1.1" id="Layer_1" xmlns="http://www.w3.org/2000/svg" xmlns:xlink="http://www.w3.org/1999/xlink" x="0px" y="0px"
	 viewBox="0 0 512 512" style="enable-background:new 0 0 512 512;" xml:space="preserve">
<g>
	<g>
		<g>
			<path d="M315.733,396.8c4.719,0,8.533-3.814,8.533-8.533s-3.814-8.533-8.533-8.533c-9.412,0-17.067-7.654-17.067-17.067
				c0-4.719-3.814-8.533-8.533-8.533s-8.533,3.814-8.533,8.533C281.6,381.491,296.909,396.8,315.733,396.8z"/>
			<path d="M503.467,345.6h-25.6V81.067c0-14.114-11.486-25.6-25.6-25.6H59.733c-14.114,0-25.6,11.486-25.6,25.6V345.6h-25.6
				C3.814,345.6,0,349.414,0,354.133v25.6c0,14.114,11.486,25.6,25.6,25.6h236.928c2.475,3.081,5.231,5.922,8.201,8.533H230.4
				c-3.149,0-6.042,1.732-7.526,4.506c-1.485,2.782-1.323,6.144,0.427,8.764c12.262,18.406,32.811,29.397,54.929,29.397h109.141
				c22.118,0,42.667-10.991,54.929-29.397c1.749-2.62,1.911-5.982,0.427-8.764c-1.485-2.773-4.378-4.506-7.526-4.506h-40.329
				c2.97-2.611,5.726-5.453,8.201-8.533H486.4c14.114,0,25.6-11.486,25.6-25.6v-25.6C512,349.414,508.186,345.6,503.467,345.6z
				 M68.267,98.133c0-4.719,3.814-8.533,8.533-8.533h358.4c4.719,0,8.533,3.814,8.533,8.533v204.8h-17.067V106.667H85.333v204.8
				h162.133v17.067H76.8c-4.719,0-8.533-3.814-8.533-8.533V98.133z M435.2,320v17.067c0,2.133-0.307,4.25-0.87,6.323
				c-0.026,0.094-0.043,0.196-0.068,0.29c-0.597,2.099-1.468,4.156-2.628,6.161c-1.152,1.988-2.534,3.763-4.087,5.333
				c-0.077,0.068-0.154,0.128-0.23,0.196c-1.331,1.306-2.833,2.389-4.412,3.362c-0.358,0.222-0.683,0.478-1.05,0.683
				c-1.161,0.631-2.458,1.041-3.721,1.502V320H435.2z M145.067,217.6H179.2c4.719,0,8.533,3.814,8.533,8.533
				c0,4.719-3.814,8.533-8.533,8.533h-34.133c-4.719,0-8.533-3.814-8.533-8.533C136.533,221.414,140.348,217.6,145.067,217.6z
				 M136.533,192c0-4.719,3.814-8.533,8.533-8.533h17.067c4.719,0,8.533,3.814,8.533,8.533s-3.814,8.533-8.533,8.533h-17.067
				C140.348,200.533,136.533,196.719,136.533,192z M179.2,166.4h-34.133c-4.719,0-8.533-3.814-8.533-8.533
				c0-4.719,3.814-8.533,8.533-8.533H179.2c4.719,0,8.533,3.814,8.533,8.533C187.733,162.586,183.919,166.4,179.2,166.4z
				 M119.467,140.8v136.533c0,4.719-3.814,8.533-8.533,8.533s-8.533-3.814-8.533-8.533V140.8c0-4.719,3.814-8.533,8.533-8.533
				S119.467,136.081,119.467,140.8z M25.6,388.267c-4.71,0-8.533-3.823-8.533-8.533v-17.067h25.6H179.2v8.533
				c0,4.719,3.814,8.533,8.533,8.533h61.969c0.017,0.068,0.043,0.128,0.06,0.188c0.751,2.859,1.638,5.649,2.731,8.346H25.6z
				 M401.067,311.467v51.2c0,1.306-0.102,2.594-0.196,3.874c-0.094,1.084-0.222,2.202-0.393,3.422c-0.009,0.026,0,0.043,0,0.06
				c-0.282,1.946-0.674,3.866-1.178,5.751c-0.009,0.034-0.009,0.06-0.017,0.094c-1.519,5.692-4.011,11.093-7.339,15.898
				c-9.259,13.338-24.653,22.101-42.078,22.101h-34.133c-17.425,0-32.819-8.764-42.078-22.101c-2.219-3.2-4.036-6.596-5.453-10.163
				c-0.043-0.12-0.085-0.256-0.137-0.375c-0.674-1.732-1.254-3.507-1.732-5.316c-0.009-0.034-0.017-0.068-0.026-0.102
				c-0.495-1.894-0.887-3.84-1.178-5.82c0-0.009,0-0.009-0.009-0.026c-0.171-1.22-0.299-2.338-0.393-3.422
				c-0.094-1.28-0.196-2.568-0.196-3.874V320v-25.6h136.533V311.467z M409.6,209.067c0,4.719-3.814,8.533-8.533,8.533
				c-4.719,0-8.533-3.814-8.533-8.533v-39.134L321.766,240.7c-3.337,3.336-8.73,3.336-12.066,0l-36.634-36.634L210.833,266.3
				c-1.664,1.664-3.849,2.5-6.033,2.5c-2.185,0-4.369-0.836-6.033-2.5c-3.337-3.337-3.337-8.73,0-12.066l68.267-68.267
				c3.336-3.336,8.73-3.336,12.066,0l36.634,36.634l64.734-64.734h-39.134c-4.719,0-8.533-3.814-8.533-8.533
				s3.814-8.533,8.533-8.533H409.6V209.067z M494.933,379.733c0,4.71-3.823,8.533-8.533,8.533h-73.293
				c1.152-2.825,2.074-5.76,2.842-8.764c0.017-0.094,0.06-0.179,0.085-0.273c0.324-0.051,0.631-0.188,0.956-0.247
				c1.63-0.282,3.174-0.751,4.727-1.22c1.007-0.299,2.022-0.546,2.995-0.93c1.826-0.691,3.533-1.57,5.231-2.5
				c0.631-0.35,1.289-0.648,1.903-1.033c1.86-1.143,3.575-2.458,5.222-3.866c0.393-0.333,0.811-0.623,1.186-0.973
				c1.758-1.604,3.328-3.362,4.796-5.231c0.162-0.205,0.358-0.358,0.512-0.563h25.771h25.6V379.733z"/>
		</g>
	</g>
</g>
<g>
</g>
<g>
</g>
<g>
</g>
<g>
</g>
<g>
</g>
<g>
</g>
<g>
</g>
<g>
</g>
<g>
</g>
<g>
</g>
<g>
</g>
<g>
</g>
<g>
</g>
<g>
</g>
<g>
</g>
</svg>
