<?xml version="1.0" encoding="iso-8859-1"?>
<!-- Generator: Adobe Illustrator 19.0.0, SVG Export Plug-In . SVG Version: 6.00 Build 0)  -->
<svg version="1.1" id="Layer_1" xmlns="http://www.w3.org/2000/svg" xmlns:xlink="http://www.w3.org/1999/xlink" x="0px" y="0px"
	 viewBox="0 0 512.003 512.003" style="enable-background:new 0 0 512.003 512.003;" xml:space="preserve">
<g>
	<g>
		<g>
			<path d="M136.536,281.601c4.71,0,8.533-3.814,8.533-8.533V162.135c0-4.719-3.823-8.533-8.533-8.533h-51.2
				c-4.71,0-8.533,3.814-8.533,8.533v110.933c0,4.719,3.823,8.533,8.533,8.533H136.536z"/>
			<path d="M426.669,281.601c4.71,0,8.533-3.814,8.533-8.533V162.135c0-4.719-3.823-8.533-8.533-8.533h-51.2
				c-4.71,0-8.533,3.814-8.533,8.533v110.933c0,4.719,3.823,8.533,8.533,8.533H426.669z"/>
			<path d="M59.736,503.468h392.533c30.029,0,54.886-22.306,59.051-51.2H0.685C4.849,481.162,29.707,503.468,59.736,503.468z"/>
			<path d="M508.211,189.176c-2.372-1.596-5.376-1.886-8.004-0.794l-47.94,19.84v64.845c0,14.114-11.477,25.6-25.6,25.6h-51.2
				c-14.114,0-25.6-11.486-25.6-25.6V250.59L256,289.434l-93.867-38.844v22.477c0,14.114-11.477,25.6-25.6,25.6h-51.2
				c-14.114,0-25.6-11.486-25.6-25.6v-64.845l-47.932-19.84c-2.637-1.092-5.632-0.802-8.004,0.794
				C1.425,190.763,0,193.417,0,196.267V435.2h512V196.267C512,193.417,510.583,190.763,508.211,189.176z"/>
			<path d="M452.269,93.868h-68.267V76.801c0-4.719-3.823-8.533-8.533-8.533h-0.589c-4.224-33.621-32.93-59.733-67.678-59.733
				h-102.4c-34.748,0-63.454,26.112-67.678,59.733h-0.589c-4.71,0-8.533,3.814-8.533,8.533v17.067H59.736
				c-32.939,0-59.733,9.737-59.733,42.667v17.067c0,3.448,2.082,6.571,5.274,7.885l54.46,22.537v-21.888
				c0-14.114,11.486-25.6,25.6-25.6h51.2c14.114,0,25.6,11.486,25.6,25.6v64.256l90.607,37.495c1.041,0.435,2.15,0.648,3.26,0.648
				s2.219-0.213,3.26-0.648l90.607-37.495v-64.256c0-14.114,11.486-25.6,25.6-25.6h51.2c14.114,0,25.6,11.486,25.6,25.6v21.888
				l54.46-22.537c3.191-1.314,5.274-4.437,5.274-7.885v-17.067C512.003,103.604,485.208,93.868,452.269,93.868z M315.736,76.801
				v17.067H196.269V76.801c0-3.959-2.748-7.134-6.391-8.098c2.893-5.316,8.457-8.969,14.925-8.969h102.4
				c6.468,0,12.032,3.652,14.925,8.969C318.484,69.667,315.736,72.842,315.736,76.801z"/>
		</g>
	</g>
</g>
<g>
</g>
<g>
</g>
<g>
</g>
<g>
</g>
<g>
</g>
<g>
</g>
<g>
</g>
<g>
</g>
<g>
</g>
<g>
</g>
<g>
</g>
<g>
</g>
<g>
</g>
<g>
</g>
<g>
</g>
</svg>
