<?xml version="1.0" encoding="iso-8859-1"?>
<!-- Generator: Adobe Illustrator 19.0.0, SVG Export Plug-In . SVG Version: 6.00 Build 0)  -->
<svg version="1.1" id="Layer_1" xmlns="http://www.w3.org/2000/svg" xmlns:xlink="http://www.w3.org/1999/xlink" x="0px" y="0px"
	 viewBox="0 0 512 512" style="enable-background:new 0 0 512 512;" xml:space="preserve">
<g>
	<g>
		<g>
			<rect x="51.2" y="324.267" width="409.6" height="51.2"/>
			<rect x="51.2" y="256" width="409.6" height="51.2"/>
			<path d="M443.733,136.533H68.267c-9.412,0-17.067,7.654-17.067,17.067v17.067h409.6V153.6
				C460.8,144.188,453.146,136.533,443.733,136.533z"/>
			<rect x="51.2" y="187.733" width="409.6" height="51.2"/>
			<path d="M460.8,85.333h-17.067V68.267c0-4.719-3.823-8.533-8.533-8.533h-34.133c-4.71,0-8.533,3.814-8.533,8.533v17.067h-25.6
				V68.267c0-4.719-3.823-8.533-8.533-8.533h-0.589C353.587,26.112,324.881,0,290.133,0h-68.267
				c-34.748,0-63.454,26.112-67.678,59.733H153.6c-4.71,0-8.533,3.814-8.533,8.533v17.067h-25.6V68.267
				c0-4.719-3.823-8.533-8.533-8.533H76.8c-4.71,0-8.533,3.814-8.533,8.533v17.067H51.2c-28.237,0-51.2,22.963-51.2,51.2v290.133
				c0,28.237,22.963,51.2,51.2,51.2h10.402l3.814,15.249C68.198,504.235,78.14,512,89.6,512c11.46,0,21.402-7.765,24.183-18.884
				l3.814-15.249h276.804l3.814,15.249C400.998,504.235,410.94,512,422.4,512s21.402-7.765,24.183-18.884l3.814-15.249H460.8
				c28.237,0,51.2-22.963,51.2-51.2V136.533C512,108.297,489.037,85.333,460.8,85.333z M221.867,51.2h68.267
				c6.468,0,12.032,3.652,14.925,8.969c-3.644,0.964-6.391,4.139-6.391,8.098v17.067h-85.333V68.267
				c0-3.959-2.748-7.134-6.391-8.098C209.835,54.852,215.398,51.2,221.867,51.2z M477.867,409.6
				c0,18.825-15.309,34.133-34.133,34.133H68.267c-18.825,0-34.133-15.309-34.133-34.133v-256c0-18.825,15.309-34.133,34.133-34.133
				h375.467c18.825,0,34.133,15.309,34.133,34.133V409.6z"/>
			<path d="M51.2,409.6c0,9.412,7.654,17.067,17.067,17.067h375.467c9.412,0,17.067-7.654,17.067-17.067v-17.067H51.2V409.6z"/>
		</g>
	</g>
</g>
<g>
</g>
<g>
</g>
<g>
</g>
<g>
</g>
<g>
</g>
<g>
</g>
<g>
</g>
<g>
</g>
<g>
</g>
<g>
</g>
<g>
</g>
<g>
</g>
<g>
</g>
<g>
</g>
<g>
</g>
</svg>
