<?xml version="1.0" encoding="iso-8859-1"?>
<!-- Generator: Adobe Illustrator 19.0.0, SVG Export Plug-In . SVG Version: 6.00 Build 0)  -->
<svg version="1.1" id="Layer_1" xmlns="http://www.w3.org/2000/svg" xmlns:xlink="http://www.w3.org/1999/xlink" x="0px" y="0px"
	 viewBox="0 0 512.01 512.01" style="enable-background:new 0 0 512.01 512.01;" xml:space="preserve">
<g>
	<g>
		<path d="M486.405,102.41h-25.6h-60.169c-4.07-44.954-39.945-80.828-84.898-84.898V8.544c0-2.739-1.314-5.316-3.541-6.929
			c-2.236-1.596-5.103-2.057-7.689-1.161c-31.283,10.411-65.724,10.411-97.007,0c-2.594-0.896-5.461-0.444-7.688,1.161
			c-2.227,1.613-3.541,4.19-3.541,6.929v8.969c-44.954,4.07-80.828,39.945-84.898,84.898H51.205h-25.6
			c-14.114,0-25.6,11.486-25.6,25.6v25.6v119.467c0,9.412,7.654,17.067,17.067,17.067V460.81v25.6c0,14.114,11.486,25.6,25.6,25.6
			h25.6h375.467h25.6c14.114,0,25.6-11.486,25.6-25.6v-25.6V290.144c9.412,0,17.067-7.654,17.067-17.067V153.61v-25.6
			C512.005,113.896,500.519,102.41,486.405,102.41z M315.738,34.622c35.541,3.942,63.846,32.247,67.797,67.789h-17.203
			c-3.755-26.129-24.474-46.839-50.594-50.594V34.622z M199.813,83.739c2.227,1.596,5.086,2.039,7.688,1.161
			c31.283-10.411,65.724-10.411,97.007,0c0.879,0.299,1.792,0.444,2.697,0.444c1.766,0,3.516-0.546,4.992-1.604
			c2.227-1.613,3.541-4.19,3.541-6.929v-7.671c16.691,3.405,29.867,16.58,33.271,33.271H163
			c3.405-16.691,16.58-29.867,33.271-33.271v7.671C196.272,79.55,197.586,82.127,199.813,83.739z M196.272,34.622v17.195
			c-26.121,3.755-46.839,24.465-50.594,50.594h-17.203C132.425,66.869,160.73,38.564,196.272,34.622z M477.872,452.277h-17.067
			c-14.114,0-25.6,11.486-25.6,25.6v17.067h-358.4v-17.067c0-14.114-11.486-25.6-25.6-25.6H34.139V290.144h153.6v8.533
			c0,14.114,11.486,25.6,25.6,25.6h85.333c14.114,0,25.6-11.486,25.6-25.6v-8.533h153.6V452.277z M494.939,273.077h-8.533H324.272
			v-8.533c0-14.114-11.486-25.6-25.6-25.6h-85.333c-14.114,0-25.6,11.486-25.6,25.6v8.533H25.605h-8.533V162.144h17.067
			c14.114,0,25.6-11.486,25.6-25.6v-17.067h59.733h34.133h204.8h34.133h59.733v17.067c0,14.114,11.486,25.6,25.6,25.6h17.067
			V273.077z"/>
	</g>
</g>
<g>
</g>
<g>
</g>
<g>
</g>
<g>
</g>
<g>
</g>
<g>
</g>
<g>
</g>
<g>
</g>
<g>
</g>
<g>
</g>
<g>
</g>
<g>
</g>
<g>
</g>
<g>
</g>
<g>
</g>
</svg>
