<?xml version="1.0" encoding="iso-8859-1"?>
<!-- Generator: Adobe Illustrator 19.0.0, SVG Export Plug-In . SVG Version: 6.00 Build 0)  -->
<svg version="1.1" id="Layer_1" xmlns="http://www.w3.org/2000/svg" xmlns:xlink="http://www.w3.org/1999/xlink" x="0px" y="0px"
	 viewBox="0 0 512.01 512.01" style="enable-background:new 0 0 512.01 512.01;" xml:space="preserve">
<g transform="translate(0 -1)">
	<g>
		<g>
			<path d="M452.272,103.41h-51.635c-4.07-44.954-39.945-80.828-84.898-84.898V9.544c0-2.739-1.314-5.316-3.541-6.929
				c-2.236-1.596-5.103-2.057-7.689-1.161c-31.283,10.411-65.724,10.411-97.007,0c-2.603-0.896-5.453-0.444-7.688,1.161
				c-2.227,1.613-3.541,4.19-3.541,6.929v8.969c-44.954,4.07-80.828,39.945-84.898,84.898H59.738
				c-32.939,0-59.733,26.803-59.733,59.733v85.333c0,16.23,6.528,30.95,17.067,41.719v154.547h477.867V290.196
				c10.539-10.769,17.067-25.489,17.067-41.719v-85.333C512.005,130.214,485.211,103.41,452.272,103.41z M315.738,35.622
				c35.541,3.942,63.846,32.247,67.797,67.789h-17.203c-3.755-26.129-24.474-46.839-50.594-50.594V35.622z M199.813,84.739
				c2.227,1.596,5.086,2.039,7.688,1.161c31.283-10.411,65.724-10.411,97.007,0c0.879,0.299,1.792,0.444,2.697,0.444
				c1.766,0,3.516-0.546,4.992-1.604c2.227-1.613,3.541-4.19,3.541-6.929v-7.671c16.691,3.405,29.867,16.58,33.271,33.271H163
				c3.405-16.691,16.58-29.867,33.271-33.271v7.671C196.272,80.55,197.586,83.127,199.813,84.739z M196.272,35.622v17.195
				c-26.121,3.755-46.839,24.465-50.594,50.594h-17.203C132.425,67.869,160.73,39.564,196.272,35.622z M290.139,299.677v25.6
				c0,4.71-3.831,8.533-8.533,8.533h-51.2c-4.702,0-8.533-3.823-8.533-8.533v-25.6v-25.6c0-4.71,3.831-8.533,8.533-8.533h51.2
				c4.702,0,8.533,3.823,8.533,8.533V299.677z M494.939,248.477c0,13.474-6.4,25.37-16.188,33.195
				c-1.203,0.956-2.406,1.92-3.686,2.748c-1.024,0.648-2.125,1.178-3.209,1.741c-1.263,0.657-2.5,1.357-3.814,1.877
				c-1.365,0.546-2.799,0.913-4.224,1.314c-1.143,0.324-2.253,0.742-3.413,0.973c-2.637,0.512-5.35,0.819-8.132,0.819H307.205
				v-17.067c0-14.114-11.486-25.6-25.6-25.6h-51.2c-14.114,0-25.6,11.486-25.6,25.6v17.067H59.738c-2.782,0-5.495-0.307-8.132-0.819
				c-1.161-0.23-2.278-0.649-3.413-0.973c-1.425-0.401-2.859-0.768-4.224-1.314c-1.314-0.521-2.56-1.22-3.814-1.877
				c-1.084-0.563-2.185-1.092-3.209-1.741c-1.28-0.828-2.483-1.792-3.686-2.756c-9.788-7.825-16.188-19.712-16.188-33.186v-85.333
				c0-23.526,19.14-42.667,42.667-42.667h59.733h34.133h204.8h34.133h59.733c23.526,0,42.667,19.14,42.667,42.667V248.477z"/>
			<path d="M76.805,513.01h358.4c30.029,0,54.886-22.306,59.051-51.2H17.754C21.919,490.704,46.776,513.01,76.805,513.01z"/>
		</g>
	</g>
</g>
<g>
</g>
<g>
</g>
<g>
</g>
<g>
</g>
<g>
</g>
<g>
</g>
<g>
</g>
<g>
</g>
<g>
</g>
<g>
</g>
<g>
</g>
<g>
</g>
<g>
</g>
<g>
</g>
<g>
</g>
</svg>
