<?xml version="1.0" encoding="iso-8859-1"?>
<!-- Generator: Adobe Illustrator 19.0.0, SVG Export Plug-In . SVG Version: 6.00 Build 0)  -->
<svg version="1.1" id="Layer_1" xmlns="http://www.w3.org/2000/svg" xmlns:xlink="http://www.w3.org/1999/xlink" x="0px" y="0px"
	 viewBox="0 0 512 512" style="enable-background:new 0 0 512 512;" xml:space="preserve">
<g>
	<g>
		<g>
			<rect x="187.733" y="281.6" width="51.2" height="51.2"/>
			<rect x="68.267" y="401.067" width="51.2" height="51.2"/>
			<rect x="187.733" y="401.067" width="51.2" height="51.2"/>
			<rect x="68.267" y="162.133" width="51.2" height="51.2"/>
			<path d="M426.667,59.733c0-14.114-11.486-25.6-25.6-25.6h-34.133v-25.6c0-4.719-3.814-8.533-8.533-8.533h-34.133
				c-4.719,0-8.533,3.814-8.533,8.533v25.6h-204.8v-25.6c0-4.719-3.814-8.533-8.533-8.533H68.267c-4.719,0-8.533,3.814-8.533,8.533
				v25.6H25.6c-14.114,0-25.6,11.486-25.6,25.6V102.4h426.667V59.733z"/>
			<rect x="187.733" y="162.133" width="51.2" height="51.2"/>
			<path d="M307.2,418.133c0-61.167,49.766-110.933,110.933-110.933c2.884,0,5.709,0.213,8.533,0.435V119.467H0V486.4
				C0,500.514,11.486,512,25.6,512h333.688C328.064,492.348,307.2,457.668,307.2,418.133z M136.533,460.8
				c0,4.719-3.814,8.533-8.533,8.533H59.733c-4.719,0-8.533-3.814-8.533-8.533v-68.267c0-4.719,3.814-8.533,8.533-8.533H128
				c4.719,0,8.533,3.814,8.533,8.533V460.8z M136.533,341.333c0,4.719-3.814,8.533-8.533,8.533H59.733
				c-4.719,0-8.533-3.814-8.533-8.533v-68.267c0-4.719,3.814-8.533,8.533-8.533H128c4.719,0,8.533,3.814,8.533,8.533V341.333z
				 M136.533,221.867c0,4.719-3.814,8.533-8.533,8.533H59.733c-4.719,0-8.533-3.814-8.533-8.533V153.6
				c0-4.719,3.814-8.533,8.533-8.533H128c4.719,0,8.533,3.814,8.533,8.533V221.867z M256,460.8c0,4.719-3.814,8.533-8.533,8.533
				H179.2c-4.719,0-8.533-3.814-8.533-8.533v-68.267c0-4.719,3.814-8.533,8.533-8.533h68.267c4.719,0,8.533,3.814,8.533,8.533V460.8
				z M256,341.333c0,4.719-3.814,8.533-8.533,8.533H179.2c-4.719,0-8.533-3.814-8.533-8.533v-68.267
				c0-4.719,3.814-8.533,8.533-8.533h68.267c4.719,0,8.533,3.814,8.533,8.533V341.333z M256,221.867
				c0,4.719-3.814,8.533-8.533,8.533H179.2c-4.719,0-8.533-3.814-8.533-8.533V153.6c0-4.719,3.814-8.533,8.533-8.533h68.267
				c4.719,0,8.533,3.814,8.533,8.533V221.867z M290.133,221.867V153.6c0-4.719,3.814-8.533,8.533-8.533h68.267
				c4.719,0,8.533,3.814,8.533,8.533v68.267c0,4.719-3.814,8.533-8.533,8.533h-68.267
				C293.948,230.4,290.133,226.586,290.133,221.867z"/>
			<rect x="307.2" y="162.133" width="51.2" height="51.2"/>
			<rect x="68.267" y="281.6" width="51.2" height="51.2"/>
			<path d="M418.133,324.267c-51.755,0-93.867,42.112-93.867,93.867S366.379,512,418.133,512S512,469.888,512,418.133
				S469.888,324.267,418.133,324.267z M443.733,426.667h-25.6c-4.719,0-8.533-3.814-8.533-8.533v-51.2
				c0-4.719,3.814-8.533,8.533-8.533s8.533,3.814,8.533,8.533V409.6h17.067c4.719,0,8.533,3.814,8.533,8.533
				S448.452,426.667,443.733,426.667z"/>
		</g>
	</g>
</g>
<g>
</g>
<g>
</g>
<g>
</g>
<g>
</g>
<g>
</g>
<g>
</g>
<g>
</g>
<g>
</g>
<g>
</g>
<g>
</g>
<g>
</g>
<g>
</g>
<g>
</g>
<g>
</g>
<g>
</g>
</svg>
