<?xml version="1.0" encoding="iso-8859-1"?>
<!-- Generator: Adobe Illustrator 19.0.0, SVG Export Plug-In . SVG Version: 6.00 Build 0)  -->
<svg version="1.1" id="Layer_1" xmlns="http://www.w3.org/2000/svg" xmlns:xlink="http://www.w3.org/1999/xlink" x="0px" y="0px"
	 viewBox="0 0 512 512" style="enable-background:new 0 0 512 512;" xml:space="preserve">
<g>
	<g>
		<g>
			<path d="M256,0C114.842,0,0,114.842,0,256s114.842,256,256,256s256-114.842,256-256S397.158,0,256,0z M281.711,44.032
				c0.751-4.651,5.094-7.817,9.779-7.066c35.226,5.692,68.983,20.096,97.647,41.651c3.763,2.833,4.514,8.183,1.681,11.947
				c-1.673,2.227-4.233,3.405-6.827,3.405c-1.784,0-3.584-0.563-5.129-1.715c-26.436-19.9-57.6-33.186-90.086-38.434
				C284.117,53.069,280.96,48.683,281.711,44.032z M247.467,42.667c0-4.719,3.814-8.533,8.533-8.533s8.533,3.814,8.533,8.533v34.031
				c0,4.719-3.814,8.533-8.533,8.533s-8.533-3.814-8.533-8.533V42.667z M122.863,78.618c28.664-21.555,62.421-35.959,97.647-41.651
				c4.651-0.751,9.028,2.415,9.779,7.066c0.751,4.651-2.406,9.037-7.066,9.788c-32.486,5.248-63.65,18.534-90.086,38.434
				c-1.545,1.152-3.345,1.715-5.129,1.715c-2.594,0-5.154-1.178-6.827-3.405C118.349,86.801,119.1,81.451,122.863,78.618z
				 M99.115,99.115c3.336-3.328,8.738-3.328,12.066,0l24.073,24.073c3.328,3.328,3.328,8.73,0,12.066
				c-1.673,1.664-3.857,2.5-6.033,2.5c-2.185,0-4.369-0.836-6.033-2.5l-24.073-24.073C95.787,107.853,95.787,102.451,99.115,99.115z
				 M36.966,220.51c5.683-35.166,20.053-68.881,41.54-97.502c2.825-3.763,8.183-4.523,11.955-1.698
				c3.763,2.833,4.523,8.183,1.698,11.947c-19.84,26.419-33.101,57.523-38.34,89.967c-0.674,4.19-4.301,7.177-8.422,7.177
				c-0.444,0-0.905-0.034-1.365-0.111C39.373,229.538,36.215,225.161,36.966,220.51z M34.133,256c0-4.719,3.814-8.533,8.533-8.533
				h34.031c4.719,0,8.533,3.814,8.533,8.533s-3.814,8.533-8.533,8.533H42.667C37.948,264.533,34.133,260.719,34.133,256z
				 M90.573,390.827c-1.536,1.161-3.337,1.715-5.12,1.715c-2.594,0-5.154-1.178-6.827-3.396
				c-21.564-28.655-35.959-62.413-41.651-97.638c-0.751-4.651,2.406-9.028,7.066-9.779c4.625-0.777,9.037,2.415,9.788,7.066
				c5.248,32.495,18.534,63.65,38.434,90.078C95.095,382.643,94.345,387.994,90.573,390.827z M105.148,415.386
				c-2.185,0-4.36-0.836-6.033-2.5c-3.328-3.336-3.328-8.738,0-12.066l24.073-24.073c3.328-3.328,8.73-3.328,12.066,0
				c3.328,3.337,3.328,8.738,0,12.066l-24.073,24.073C109.517,414.549,107.332,415.386,105.148,415.386z M230.289,467.968
				c-0.674,4.19-4.301,7.177-8.414,7.177c-0.452,0-0.904-0.034-1.365-0.111c-35.166-5.683-68.881-20.053-97.502-41.54
				c-3.763-2.833-4.523-8.183-1.698-11.955c2.833-3.772,8.192-4.523,11.947-1.698c26.419,19.84,57.523,33.101,89.967,38.34
				C227.883,458.931,231.04,463.317,230.289,467.968z M264.533,469.333c0,4.719-3.814,8.533-8.533,8.533s-8.533-3.814-8.533-8.533
				v-34.031c0-4.719,3.814-8.533,8.533-8.533s8.533,3.814,8.533,8.533V469.333z M256,290.133c-18.825,0-34.133-15.309-34.133-34.133
				c0-15.863,10.923-29.107,25.6-32.922V128c0-4.719,3.814-8.533,8.533-8.533s8.533,3.814,8.533,8.533v95.078
				c11.938,3.098,21.291,12.45,24.388,24.388h60.945c4.719,0,8.533,3.814,8.533,8.533s-3.814,8.533-8.533,8.533h-60.945
				C285.107,279.211,271.863,290.133,256,290.133z M388.992,433.493c-28.621,21.487-62.336,35.857-97.502,41.54
				c-0.461,0.077-0.913,0.111-1.365,0.111c-4.113,0-7.74-2.987-8.414-7.177c-0.751-4.651,2.406-9.037,7.066-9.788
				c32.444-5.24,63.548-18.5,89.967-38.34c3.763-2.816,9.122-2.065,11.947,1.698C393.515,425.31,392.755,430.66,388.992,433.493z
				 M412.885,412.885c-1.672,1.664-3.849,2.5-6.033,2.5s-4.369-0.836-6.033-2.5l-24.073-24.073c-3.328-3.328-3.328-8.73,0-12.066
				c3.337-3.328,8.738-3.328,12.066,0l24.073,24.073C416.213,404.147,416.213,409.549,412.885,412.885z M412.885,111.181
				l-24.073,24.073c-1.664,1.664-3.849,2.5-6.033,2.5c-2.176,0-4.36-0.836-6.033-2.5c-3.328-3.337-3.328-8.738,0-12.066
				l24.073-24.073c3.328-3.328,8.73-3.328,12.066,0C416.213,102.451,416.213,107.853,412.885,111.181z M421.436,121.182
				c3.78-2.833,9.122-2.065,11.947,1.681c21.564,28.664,35.968,62.43,41.651,97.664c0.751,4.651-2.415,9.028-7.066,9.779
				c-0.461,0.077-0.922,0.111-1.365,0.111c-4.122,0-7.748-2.987-8.422-7.177c-5.24-32.503-18.534-63.667-38.434-90.103
				C416.913,129.365,417.664,124.015,421.436,121.182z M475.034,291.49c-5.683,35.166-20.053,68.881-41.54,97.502
				c-1.673,2.236-4.241,3.405-6.835,3.405c-1.783,0-3.584-0.555-5.12-1.707c-3.763-2.833-4.523-8.183-1.698-11.947
				c19.84-26.419,33.101-57.523,38.34-89.967c0.751-4.651,5.12-7.825,9.788-7.066C472.627,282.462,475.785,286.839,475.034,291.49z
				 M469.333,264.533h-34.031c-4.719,0-8.533-3.814-8.533-8.533s3.814-8.533,8.533-8.533h34.031c4.719,0,8.533,3.814,8.533,8.533
				S474.052,264.533,469.333,264.533z"/>
			<path d="M256,238.933c-9.412,0-17.067,7.654-17.067,17.067c0,9.412,7.654,17.067,17.067,17.067
				c9.412,0,17.067-7.654,17.067-17.067C273.067,246.588,265.412,238.933,256,238.933z"/>
		</g>
	</g>
</g>
<g>
</g>
<g>
</g>
<g>
</g>
<g>
</g>
<g>
</g>
<g>
</g>
<g>
</g>
<g>
</g>
<g>
</g>
<g>
</g>
<g>
</g>
<g>
</g>
<g>
</g>
<g>
</g>
<g>
</g>
</svg>
