<?xml version="1.0" encoding="iso-8859-1"?>
<!-- Generator: Adobe Illustrator 19.0.0, SVG Export Plug-In . SVG Version: 6.00 Build 0)  -->
<svg version="1.1" id="Layer_1" xmlns="http://www.w3.org/2000/svg" xmlns:xlink="http://www.w3.org/1999/xlink" x="0px" y="0px"
	 viewBox="0 0 512 512" style="enable-background:new 0 0 512 512;" xml:space="preserve">
<g>
	<g>
		<path d="M435.2,162.133h-34.133c-4.719,0-8.533,3.823-8.533,8.533V204.8c0,4.71,3.814,8.533,8.533,8.533h8.533V256
			c0,8.337-6.025,15.275-13.935,16.751c-7.45-10.718-21.521-16.751-35.26-16.751h-95.872v-17.067h53.419
			c13.022,0,25.165-5.163,34.193-14.549c9.028-9.387,13.722-21.717,13.218-34.731l-5.53-144.017C358.844,20.045,338.014,0,312.405,0
			H199.595c-25.609,0-46.438,20.045-47.428,45.636l-5.53,144.017c-0.503,13.013,4.19,25.344,13.218,34.731
			c9.028,9.387,21.171,14.549,34.193,14.549h53.419V256H153.6c-14.771,0-29.653,5.709-37.333,16.742
			C108.39,271.241,102.4,264.32,102.4,256v-42.667h8.533c4.719,0,8.533-3.823,8.533-8.533v-34.133c0-4.71-3.814-8.533-8.533-8.533
			H76.8c-4.719,0-8.533,3.823-8.533,8.533V204.8c0,4.71,3.814,8.533,8.533,8.533h8.533V256c0,15.881,10.948,29.15,25.668,32.947
			c-0.009,0.401-0.068,0.777-0.068,1.186c0,38.315,77.175,47.974,119.467,50.389v26.411h17.067V384H230.4v10.274l-104.32,24.073
			c-0.247,0.06-0.435,0.23-0.674,0.307c-0.563,0.188-1.058,0.427-1.57,0.717c-0.469,0.265-0.905,0.538-1.306,0.879
			c-0.418,0.358-0.768,0.759-1.109,1.195c-0.341,0.427-0.648,0.845-0.896,1.331c-0.247,0.469-0.418,0.956-0.572,1.476
			c-0.171,0.563-0.29,1.109-0.341,1.698c-0.026,0.247-0.145,0.461-0.145,0.717v8.969c-19.149,2.15-34.133,18.253-34.133,37.965
			c0,21.171,17.229,38.4,38.4,38.4s38.4-17.229,38.4-38.4c0-16.666-10.735-30.737-25.6-36.045v-4.096l93.867-21.666v2.807
			l-20.668,20.668c-0.222-0.009-0.435-0.068-0.666-0.068c-21.171,0-38.4,17.229-38.4,38.4s17.229,38.4,38.4,38.4
			s38.4-17.229,38.4-38.4c0-14.063-7.68-26.257-18.987-32.947l13.986-13.986h27.068l13.986,13.986
			c-11.307,6.69-18.987,18.884-18.987,32.947c0,21.171,17.229,38.4,38.4,38.4s38.4-17.229,38.4-38.4s-17.229-38.4-38.4-38.4
			c-0.23,0-0.444,0.06-0.666,0.068L281.6,414.601v-2.807l93.867,21.666v4.096c-14.865,5.308-25.6,19.379-25.6,36.045
			c0,21.171,17.229,38.4,38.4,38.4s38.4-17.229,38.4-38.4c0-19.712-14.985-35.814-34.133-37.965v-8.969
			c0-0.256-0.119-0.469-0.145-0.717c-0.051-0.589-0.171-1.135-0.341-1.69c-0.154-0.529-0.324-1.015-0.572-1.493
			c-0.247-0.478-0.555-0.896-0.896-1.323c-0.341-0.435-0.691-0.836-1.109-1.195c-0.401-0.341-0.836-0.614-1.306-0.879
			c-0.503-0.29-1.007-0.529-1.57-0.717c-0.239-0.077-0.427-0.247-0.674-0.307L281.6,394.274V384h-17.067v-17.067H281.6v-26.411
			c42.291-2.415,119.467-12.066,119.467-50.389c0-0.41-0.06-0.785-0.077-1.186c14.72-3.789,25.677-17.067,25.677-32.947v-42.667
			h8.533c4.719,0,8.533-3.823,8.533-8.533v-34.133C443.733,165.956,439.919,162.133,435.2,162.133z"/>
	</g>
</g>
<g>
</g>
<g>
</g>
<g>
</g>
<g>
</g>
<g>
</g>
<g>
</g>
<g>
</g>
<g>
</g>
<g>
</g>
<g>
</g>
<g>
</g>
<g>
</g>
<g>
</g>
<g>
</g>
<g>
</g>
</svg>
