<?xml version="1.0" encoding="iso-8859-1"?>
<!-- Generator: Adobe Illustrator 19.0.0, SVG Export Plug-In . SVG Version: 6.00 Build 0)  -->
<svg version="1.1" id="Layer_1" xmlns="http://www.w3.org/2000/svg" xmlns:xlink="http://www.w3.org/1999/xlink" x="0px" y="0px"
	 viewBox="0 0 512 512" style="enable-background:new 0 0 512 512;" xml:space="preserve">
<g>
	<g>
		<path d="M324.267,341.333V409.6h170.667v-68.267H324.267z M418.133,384h-17.067c-5.12,0-8.533-3.413-8.533-8.533
			s3.413-8.533,8.533-8.533h17.067c5.12,0,8.533,3.413,8.533,8.533S423.253,384,418.133,384z"/>
	</g>
</g>
<g>
	<g>
		<path d="M324.267,426.667v76.8c0,5.12,3.413,8.533,8.533,8.533h153.6c5.12,0,8.533-3.413,8.533-8.533v-76.8H324.267z
			 M418.133,469.333h-17.067c-5.12,0-8.533-3.413-8.533-8.533c0-5.12,3.413-8.533,8.533-8.533h17.067
			c5.12,0,8.533,3.413,8.533,8.533C426.667,465.92,423.253,469.333,418.133,469.333z"/>
	</g>
</g>
<g>
	<g>
		<path d="M290.133,0H68.267C58.88,0,51.2,7.68,51.2,17.067v102.4h256v-102.4C307.2,7.68,299.52,0,290.133,0z M79.36,45.227
			L96.427,28.16c3.413-3.413,8.533-3.413,11.947,0c3.413,3.413,3.413,8.533,0,11.947L91.307,57.173
			c-1.707,1.707-3.413,2.56-5.973,2.56s-4.267-0.853-5.973-2.56C75.947,53.76,75.947,48.64,79.36,45.227z M142.507,48.64
			L99.84,91.307c-1.707,1.707-3.413,2.56-5.973,2.56c-2.56,0-4.267-0.853-5.973-2.56c-3.413-3.413-3.413-8.533,0-11.947
			l42.667-42.667c3.413-3.413,8.533-3.413,11.947,0S145.92,45.227,142.507,48.64z"/>
	</g>
</g>
<g>
	<g>
		<path d="M502.613,204.8H460.8v-85.333c0-5.12-3.413-8.533-8.533-8.533h-25.6v-25.6c0-5.12-3.413-8.533-8.533-8.533H384
			c-5.12,0-8.533,3.413-8.533,8.533v8.533h-25.6c-5.12,0-8.533,3.413-8.533,8.533v102.4H230.4v-5.973
			c0-11.093-8.533-19.627-19.627-19.627H204.8v-8.533h85.333c9.387,0,17.067-7.68,17.067-17.067v-17.067h-256V153.6
			c0,9.387,7.68,17.067,17.067,17.067H153.6v8.533h-5.973c-11.093,0-19.627,8.533-19.627,19.627v5.973H9.387
			c-5.12,0-9.387,4.267-9.387,9.387v33.28C0,251.733,4.267,256,9.387,256h7.68v247.467c0,5.12,3.413,8.533,8.533,8.533h34.133
			c5.12,0,8.533-3.413,8.533-8.533V256h256v68.267h170.667V256h7.68c5.12,0,9.387-4.267,9.387-9.387v-33.28
			C512,209.067,507.733,204.8,502.613,204.8z M375.467,204.8H358.4v-93.867h17.067V204.8z M418.133,298.667h-17.067
			c-5.12,0-8.533-3.413-8.533-8.533s3.413-8.533,8.533-8.533h17.067c5.12,0,8.533,3.413,8.533,8.533
			S423.253,298.667,418.133,298.667z M443.733,204.8h-17.067V128h17.067V204.8z"/>
	</g>
</g>
<g>
</g>
<g>
</g>
<g>
</g>
<g>
</g>
<g>
</g>
<g>
</g>
<g>
</g>
<g>
</g>
<g>
</g>
<g>
</g>
<g>
</g>
<g>
</g>
<g>
</g>
<g>
</g>
<g>
</g>
</svg>
