<?xml version="1.0" encoding="iso-8859-1"?>
<!-- Generator: Adobe Illustrator 19.0.0, SVG Export Plug-In . SVG Version: 6.00 Build 0)  -->
<svg version="1.1" id="Layer_1" xmlns="http://www.w3.org/2000/svg" xmlns:xlink="http://www.w3.org/1999/xlink" x="0px" y="0px"
	 viewBox="0 0 512 512" style="enable-background:new 0 0 512 512;" xml:space="preserve">
<g>
	<g>
		<g>
			<path d="M503.467,204.8h-32.597l0.512-3.063l17.715-5.905c4.471-1.493,6.895-6.323,5.402-10.795
				c-1.493-4.471-6.306-6.903-10.795-5.402l-9.148,3.046l3.192-19.14c0.418-2.475-0.282-5.009-1.903-6.921
				c-1.621-1.92-4.002-3.021-6.511-3.021h-51.2c-2.509,0-4.89,1.101-6.511,3.021c-1.621,1.911-2.321,4.446-1.903,6.921l6.878,41.259
				H307.2v-5.683c0-10.982-8.934-19.917-19.917-19.917H281.6v-8.533h85.333c9.412,0,17.067-7.654,17.067-17.067v-17.067H128V153.6
				c0,9.412,7.654,17.067,17.067,17.067H230.4v8.533h-5.683c-10.982,0-19.917,8.934-19.917,19.917v5.683H102.4v-5.717
				c0-10.965-8.917-19.883-19.883-19.883H68.267v-42.667H102.4c2.56,0,4.975-1.143,6.596-3.123s2.278-4.574,1.766-7.083
				L93.696,40.994c-0.794-3.994-4.292-6.861-8.363-6.861h-51.2c-4.07,0-7.569,2.867-8.363,6.861L8.704,126.327
				c-0.512,2.509,0.145,5.103,1.766,7.083s4.036,3.123,6.596,3.123H51.2V179.2H36.949c-10.965,0-19.883,8.917-19.883,19.883v5.717
				H8.533c-4.71,0-8.533,3.823-8.533,8.533v34.133C0,252.177,3.823,256,8.533,256h8.533v247.467c0,4.71,3.823,8.533,8.533,8.533
				h153.6c4.71,0,8.533-3.823,8.533-8.533V256h136.533v247.467c0,4.71,3.823,8.533,8.533,8.533h153.6
				c4.71,0,8.533-3.823,8.533-8.533V256h8.533c4.71,0,8.533-3.823,8.533-8.533v-34.133C512,208.623,508.177,204.8,503.467,204.8z
				 M162.133,469.333c0,4.71-3.823,8.533-8.533,8.533H51.2c-4.71,0-8.533-3.823-8.533-8.533v-93.867c0-4.71,3.823-8.533,8.533-8.533
				h102.4c4.71,0,8.533,3.823,8.533,8.533V469.333z M162.133,341.333c0,4.71-3.823,8.533-8.533,8.533H51.2
				c-4.71,0-8.533-3.823-8.533-8.533v-68.267c0-4.71,3.823-8.533,8.533-8.533h102.4c4.71,0,8.533,3.823,8.533,8.533V341.333z
				 M469.333,469.333c0,4.71-3.823,8.533-8.533,8.533H358.4c-4.71,0-8.533-3.823-8.533-8.533v-93.867
				c0-4.71,3.823-8.533,8.533-8.533h102.4c4.71,0,8.533,3.823,8.533,8.533V469.333z M469.333,341.333
				c0,4.71-3.823,8.533-8.533,8.533H358.4c-4.71,0-8.533-3.823-8.533-8.533v-68.267c0-4.71,3.823-8.533,8.533-8.533h102.4
				c4.71,0,8.533,3.823,8.533,8.533V341.333z M494.933,238.933H486.4H332.8H179.2H25.6h-8.533v-17.067H25.6h68.267h119.467h85.333
				h128H460.8h34.133V238.933z"/>
			<path d="M384,17.067C384,7.654,376.346,0,366.933,0H145.067C135.654,0,128,7.654,128,17.067v102.4h256V17.067z M156.1,45.167
				L173.167,28.1c3.337-3.337,8.73-3.337,12.066,0c3.336,3.337,3.336,8.73,0,12.066l-17.067,17.067
				c-1.664,1.664-3.849,2.5-6.033,2.5c-2.185,0-4.369-0.836-6.033-2.5C152.764,53.897,152.764,48.503,156.1,45.167z M219.366,48.7
				l-42.684,42.573c-1.664,1.655-3.84,2.475-6.016,2.475c-2.193,0-4.386-0.836-6.059-2.517c-3.32-3.345-3.302-8.747,0.043-12.066
				l42.65-42.53c3.337-3.337,8.73-3.337,12.066,0C222.703,39.97,222.703,45.363,219.366,48.7z"/>
			<path d="M366.933,332.8h85.333v-51.2h-85.333V332.8z M401.067,298.667h17.067c4.71,0,8.533,3.823,8.533,8.533
				s-3.823,8.533-8.533,8.533h-17.067c-4.71,0-8.533-3.823-8.533-8.533S396.356,298.667,401.067,298.667z"/>
			<path d="M366.933,460.8h85.333V384h-85.333V460.8z M401.067,401.067h17.067c4.71,0,8.533,3.823,8.533,8.533
				s-3.823,8.533-8.533,8.533h-17.067c-4.71,0-8.533-3.823-8.533-8.533S396.356,401.067,401.067,401.067z"/>
			<path d="M59.733,332.8h85.333v-51.2H59.733V332.8z M93.867,298.667h17.067c4.71,0,8.533,3.823,8.533,8.533
				s-3.823,8.533-8.533,8.533H93.867c-4.71,0-8.533-3.823-8.533-8.533S89.156,298.667,93.867,298.667z"/>
			<path d="M59.733,460.8h85.333V384H59.733V460.8z M93.867,401.067h17.067c4.71,0,8.533,3.823,8.533,8.533
				s-3.823,8.533-8.533,8.533H93.867c-4.71,0-8.533-3.823-8.533-8.533S89.156,401.067,93.867,401.067z"/>
		</g>
	</g>
</g>
<g>
</g>
<g>
</g>
<g>
</g>
<g>
</g>
<g>
</g>
<g>
</g>
<g>
</g>
<g>
</g>
<g>
</g>
<g>
</g>
<g>
</g>
<g>
</g>
<g>
</g>
<g>
</g>
<g>
</g>
</svg>
