<?xml version="1.0" encoding="iso-8859-1"?>
<!-- Generator: Adobe Illustrator 19.0.0, SVG Export Plug-In . SVG Version: 6.00 Build 0)  -->
<svg version="1.1" id="Layer_1" xmlns="http://www.w3.org/2000/svg" xmlns:xlink="http://www.w3.org/1999/xlink" x="0px" y="0px"
	 viewBox="0 0 511.977 511.977" style="enable-background:new 0 0 511.977 511.977;" xml:space="preserve">
<g>
	<g>
		<path d="M431.922,210.263c-1.865,0-3.63,0.329-5.431,0.549L274.921,67.15c4.087-17.81-0.649-37.257-14.501-51.109
			c-21.394-21.394-56.192-21.394-77.614,0.037l-40.649,41.097c-32.238-6.875-67.209,2.112-92.215,27.109L37.015,97.221
			c-3.566,3.566-3.566,9.353,0,12.928l23.927,23.918c-8.201,23.058-2.715,49.097,14.83,66.633
			c12.233,12.233,28.626,18.697,45.257,18.697c7.223,0,14.491-1.262,21.486-3.758l23.808,23.808
			c1.783,1.783,4.123,2.679,6.464,2.679c2.331,0,4.672-0.896,6.464-2.679l12.928-12.928c24.997-24.997,33.984-59.968,27.118-92.215
			l22.455-22.217l145.07,137.792c-0.274,2.011-0.613,4.005-0.613,6.098c0,2.057,0.338,4.014,0.603,6.007l-123.73,122.487
			c-1.618-0.183-3.209-0.494-4.873-0.494c-25.207,0-45.714,20.507-45.714,45.714c0,10.331,3.575,19.758,9.371,27.429h-82.514
			c-15.122,0-27.429,12.297-27.429,27.429c0,15.122,12.306,27.429,27.429,27.429h237.714c15.122,0,27.429-12.306,27.429-27.429
			c0-15.131-12.306-27.429-27.429-27.429h-82.523c5.806-7.671,9.381-17.097,9.381-27.429c0-1.719-0.32-3.346-0.512-5.01
			l122.021-123.648c2.139,0.311,4.27,0.658,6.491,0.658c25.207,0,45.714-20.517,45.714-45.714
			C477.637,230.77,457.129,210.263,431.922,210.263z M179.25,213.591l-6.464,6.464l-116.37-116.37l6.464-6.473
			c21.632-21.632,52.416-28.617,80.018-21.065c6.574,1.801,12.855,4.434,18.743,7.762c0.549,0.311,1.088,0.64,1.627,0.96
			c2.313,1.381,4.544,2.88,6.711,4.48c0.613,0.457,1.234,0.878,1.838,1.353c2.597,2.03,5.102,4.178,7.433,6.51
			c2.341,2.341,4.489,4.846,6.519,7.442c0.466,0.594,0.896,1.225,1.344,1.838c1.6,2.158,3.109,4.389,4.48,6.702
			c0.329,0.539,0.658,1.088,0.969,1.637c3.319,5.879,5.952,12.169,7.762,18.743C207.867,161.166,200.891,191.95,179.25,213.591z
			 M296.773,405.381c-1.079-1.71-2.341-3.273-3.63-4.818c-0.238-0.293-0.43-0.622-0.677-0.905c-0.146-0.174-0.329-0.338-0.494-0.512
			c-1.015-1.125-2.085-2.194-3.209-3.209c-1.024-0.933-2.085-1.847-3.291-2.779c-0.146-0.119-0.311-0.21-0.466-0.329
			c-0.814-0.594-1.637-1.161-2.487-1.701c-0.037-0.027-0.073-0.055-0.101-0.073l111.269-110.153
			c3.401,5.202,7.799,9.673,12.974,13.12L296.773,405.381z M407.136,217.669c-5.394,3.502-9.984,8.082-13.495,13.467L254.761,99.223
			l5.659-5.605c0.027-0.018,0.037-0.046,0.064-0.064l0.777-0.777c2.313-2.304,4.389-4.8,6.235-7.47l139.648,132.352L407.136,217.669
			z"/>
	</g>
</g>
<g>
</g>
<g>
</g>
<g>
</g>
<g>
</g>
<g>
</g>
<g>
</g>
<g>
</g>
<g>
</g>
<g>
</g>
<g>
</g>
<g>
</g>
<g>
</g>
<g>
</g>
<g>
</g>
<g>
</g>
</svg>
