<?xml version="1.0" encoding="iso-8859-1"?>
<!-- Generator: Adobe Illustrator 19.0.0, SVG Export Plug-In . SVG Version: 6.00 Build 0)  -->
<svg version="1.1" id="Layer_1" xmlns="http://www.w3.org/2000/svg" xmlns:xlink="http://www.w3.org/1999/xlink" x="0px" y="0px"
	 viewBox="0 0 512 512" style="enable-background:new 0 0 512 512;" xml:space="preserve">
<g transform="translate(0 -1)">
	<g>
		<g>
			<path d="M511.343,95.9c-0.862-2.091-2.526-3.755-4.617-4.617c-1.041-0.435-2.15-0.657-3.26-0.657H319.266l-56.448-56.448
				c-0.23-0.29-0.469-0.572-0.734-0.836c-3.337-3.337-8.738-3.337-12.066,0l-57.284,57.284H8.533c-1.109,0-2.219,0.222-3.26,0.657
				C3.183,92.146,1.519,93.81,0.657,95.9C0.222,96.941,0,98.051,0,99.16v375.467c0,1.109,0.222,2.219,0.657,3.26
				c0.862,2.091,2.526,3.755,4.617,4.617c1.041,0.427,2.15,0.657,3.26,0.657h494.933c1.109,0,2.219-0.23,3.26-0.657
				c2.091-0.862,3.755-2.526,4.617-4.617c0.435-1.041,0.657-2.15,0.657-3.26V99.16C512,98.051,511.778,96.941,511.343,95.9z
				 M256,51.493l39.134,39.134h-78.268L256,51.493z M482.867,107.693l-17.067,17.067H46.199l-17.067-17.067H482.867z
				 M414.413,252.197l2.944,1.169c3.797,1.527,5.973,5.53,5.205,9.54c-0.768,4.019-4.284,6.921-8.38,6.921H309.205
				c-12.518,15.582-31.701,25.6-53.205,25.6c-21.504,0-40.687-10.018-53.205-25.6H97.818c-4.096,0-7.612-2.901-8.388-6.929
				c-0.759-4.011,1.417-8.013,5.222-9.532l3.482-1.391c12.382-4.958,16.794-16.068,16.794-24.815
				c0-8.747-4.412-19.866-16.794-24.815l-3.482-1.391c-3.806-1.519-5.982-5.521-5.222-9.54c0.777-4.019,4.292-6.921,8.388-6.921
				h104.977c12.518-15.582,31.701-25.6,53.205-25.6c21.504,0,40.687,10.018,53.205,25.6h104.977c4.096,0,7.612,2.901,8.38,6.912
				c0.768,4.019-1.408,8.021-5.205,9.549l-2.935,1.169h-0.008c-12.493,5.001-16.947,16.213-16.947,25.037
				C397.466,235.983,401.92,247.196,414.413,252.197z M307.2,372.227h93.867c4.719,0,8.533,3.814,8.533,8.533
				s-3.814,8.533-8.533,8.533H307.2c-4.719,0-8.533-3.814-8.533-8.533S302.481,372.227,307.2,372.227z M310.997,339.527l25.6-17.067
				c3.473-2.33,8.149-1.783,10.999,1.306c11.75,12.715,23.885,6.767,24.013,6.716c3.277-1.673,7.262-1.041,9.89,1.579l17.067,17.067
				c3.337,3.337,3.337,8.73,0,12.066c-1.664,1.664-3.849,2.5-6.033,2.5c-2.185,0-4.369-0.836-6.033-2.5l-13.295-13.295
				c-8.465,2.074-21.026,1.758-32.734-7.518l-20.002,13.346c-3.942,2.603-9.225,1.553-11.836-2.364
				C306.014,347.437,307.072,342.147,310.997,339.527z M264.533,355.16H179.2c-4.719,0-8.533-3.814-8.533-8.533
				c0-4.719,3.814-8.533,8.533-8.533h85.333c4.719,0,8.533,3.814,8.533,8.533C273.067,351.346,269.252,355.16,264.533,355.16z
				 M273.067,380.76c0,4.719-3.814,8.533-8.533,8.533H230.4c-4.719,0-8.533-3.814-8.533-8.533s3.814-8.533,8.533-8.533h34.133
				C269.252,372.227,273.067,376.041,273.067,380.76z M128,372.227h68.267c4.719,0,8.533,3.814,8.533,8.533
				s-3.814,8.533-8.533,8.533H128c-4.719,0-8.533-3.814-8.533-8.533S123.281,372.227,128,372.227z M119.467,346.627
				c0-4.719,3.814-8.533,8.533-8.533h17.067c4.719,0,8.533,3.814,8.533,8.533c0,4.719-3.814,8.533-8.533,8.533H128
				C123.281,355.16,119.467,351.346,119.467,346.627z M17.067,119.759l17.067,17.067v300.134l-17.067,17.067V119.759z
				 M29.133,466.093l17.067-17.067h419.601l17.067,17.067H29.133z M494.933,454.027l-17.067-17.067V136.826l17.067-17.067V454.027z"
				/>
			<path d="M319.283,201.559c0.367,0.905,0.64,1.835,0.964,2.756c0.358,0.998,0.742,1.98,1.058,2.995
				c0.358,1.195,0.631,2.415,0.93,3.627c0.23,0.93,0.503,1.852,0.691,2.799c0.282,1.408,0.461,2.842,0.649,4.267
				c0.111,0.794,0.265,1.562,0.35,2.364c0.222,2.244,0.341,4.514,0.341,6.792c0,2.278-0.119,4.548-0.341,6.793
				c-0.085,0.802-0.239,1.579-0.35,2.364c-0.188,1.425-0.367,2.859-0.649,4.267c-0.188,0.947-0.461,1.869-0.691,2.807
				c-0.299,1.212-0.572,2.424-0.93,3.618c-0.316,1.015-0.7,2.005-1.058,3.004c-0.324,0.913-0.597,1.843-0.964,2.748h69.129
				c-5.154-7.228-8.013-16.043-8.013-25.6c0-9.557,2.859-18.372,8.013-25.6H319.283z"/>
			<path d="M306.423,218.558c-0.393-2.27-0.879-4.514-1.562-6.707c-0.017-0.026-0.026-0.06-0.034-0.085
				c-0.7-2.21-1.596-4.352-2.586-6.451c-0.188-0.393-0.375-0.785-0.572-1.169c-1.058-2.099-2.253-4.147-3.61-6.11
				c-9.259-13.32-24.644-22.076-42.061-22.076c-17.417,0-32.802,8.755-42.061,22.076c-1.357,1.963-2.551,4.011-3.61,6.11
				c-0.196,0.384-0.384,0.777-0.572,1.169c-0.99,2.099-1.886,4.241-2.586,6.451c-0.009,0.026-0.017,0.06-0.034,0.085
				c-0.683,2.193-1.169,4.437-1.562,6.707c-0.085,0.555-0.171,1.101-0.247,1.655c-0.316,2.287-0.529,4.599-0.529,6.946
				c0,2.347,0.213,4.659,0.529,6.946c0.077,0.555,0.162,1.101,0.247,1.655c0.393,2.27,0.879,4.514,1.562,6.707
				c0.017,0.026,0.026,0.06,0.034,0.085c0.7,2.21,1.596,4.352,2.586,6.451c0.188,0.393,0.375,0.785,0.572,1.169
				c1.058,2.099,2.253,4.147,3.61,6.11c9.259,13.32,24.644,22.076,42.061,22.076c17.417,0,32.802-8.755,42.061-22.076
				c1.357-1.963,2.551-4.011,3.61-6.11c0.196-0.384,0.384-0.777,0.572-1.169c0.99-2.099,1.886-4.241,2.586-6.451
				c0.009-0.026,0.017-0.06,0.034-0.085c0.683-2.193,1.169-4.437,1.562-6.707c0.085-0.555,0.171-1.101,0.247-1.655
				c0.316-2.287,0.529-4.599,0.529-6.946c0-2.347-0.213-4.659-0.529-6.946C306.594,219.658,306.509,219.112,306.423,218.558z
				 M238.933,227.159c0,4.719-3.814,8.533-8.533,8.533s-8.533-3.814-8.533-8.533c0-18.825,15.309-34.133,34.133-34.133
				c4.719,0,8.533,3.814,8.533,8.533s-3.814,8.533-8.533,8.533C246.588,210.092,238.933,217.747,238.933,227.159z M256,261.292
				c-4.719,0-8.533-3.814-8.533-8.533c0-4.719,3.814-8.533,8.533-8.533c9.412,0,17.067-7.654,17.067-17.067
				c0-4.719,3.814-8.533,8.533-8.533c4.719,0,8.533,3.814,8.533,8.533C290.133,245.984,274.825,261.292,256,261.292z"/>
			<path d="M188.427,217.964c0.188-1.417,0.367-2.833,0.648-4.224c0.188-0.956,0.461-1.886,0.691-2.825
				c0.299-1.203,0.572-2.415,0.93-3.601c0.307-1.024,0.7-2.014,1.058-3.012c0.324-0.913,0.597-1.843,0.964-2.739h-68.787
				c5.18,7.211,8.055,16.026,8.055,25.6c0,9.566-2.876,18.381-8.055,25.6h68.787c-0.367-0.905-0.64-1.826-0.964-2.739
				c-0.358-1.007-0.751-1.997-1.058-3.021c-0.358-1.186-0.631-2.389-0.93-3.593c-0.23-0.947-0.503-1.869-0.691-2.833
				c-0.282-1.391-0.452-2.807-0.648-4.215c-0.111-0.811-0.265-1.596-0.35-2.415c-0.222-2.244-0.341-4.506-0.341-6.784
				c0-2.287,0.119-4.548,0.341-6.792C188.154,219.56,188.316,218.767,188.427,217.964z"/>
		</g>
	</g>
</g>
<g>
</g>
<g>
</g>
<g>
</g>
<g>
</g>
<g>
</g>
<g>
</g>
<g>
</g>
<g>
</g>
<g>
</g>
<g>
</g>
<g>
</g>
<g>
</g>
<g>
</g>
<g>
</g>
<g>
</g>
</svg>
