<?xml version="1.0" encoding="iso-8859-1"?>
<!-- Generator: Adobe Illustrator 19.0.0, SVG Export Plug-In . SVG Version: 6.00 Build 0)  -->
<svg version="1.1" id="Layer_1" xmlns="http://www.w3.org/2000/svg" xmlns:xlink="http://www.w3.org/1999/xlink" x="0px" y="0px"
	 viewBox="0 0 512 512" style="enable-background:new 0 0 512 512;" xml:space="preserve">
<g>
	<g>
		<g>
			<path d="M341.333,238.933H332.8v-68.267c0-4.719-3.814-8.533-8.533-8.533h-19.021L264.252,6.357C263.27,2.62,259.874,0,256,0
				c-3.874,0-7.27,2.62-8.252,6.357l-40.994,155.776h-19.021c-4.719,0-8.533,3.814-8.533,8.533v68.267h-8.533
				c-18.825,0-34.133,15.309-34.133,34.133v204.8c0,18.825,15.309,34.133,34.133,34.133h170.667
				c18.825,0,34.133-15.309,34.133-34.133V435.2H230.4c-4.719,0-8.533-3.814-8.533-8.533v-102.4c0-4.719,3.814-8.533,8.533-8.533
				h145.067v-42.667C375.467,254.242,360.158,238.933,341.333,238.933z M315.733,238.933H196.267V179.2h17.067h85.333h17.067
				V238.933z"/>
			<path d="M238.933,418.133h136.533v-17.067H264.533c-4.719,0-8.533-3.814-8.533-8.533c0-4.719,3.814-8.533,8.533-8.533h110.933
				v-17.067H264.533c-4.719,0-8.533-3.814-8.533-8.533s3.814-8.533,8.533-8.533h110.933V332.8H238.933V418.133z"/>
		</g>
	</g>
</g>
<g>
</g>
<g>
</g>
<g>
</g>
<g>
</g>
<g>
</g>
<g>
</g>
<g>
</g>
<g>
</g>
<g>
</g>
<g>
</g>
<g>
</g>
<g>
</g>
<g>
</g>
<g>
</g>
<g>
</g>
</svg>
