<?xml version="1.0" encoding="iso-8859-1"?>
<!-- Generator: Adobe Illustrator 19.0.0, SVG Export Plug-In . SVG Version: 6.00 Build 0)  -->
<svg version="1.1" id="Layer_1" xmlns="http://www.w3.org/2000/svg" xmlns:xlink="http://www.w3.org/1999/xlink" x="0px" y="0px"
	 viewBox="0 0 512 512" style="enable-background:new 0 0 512 512;" xml:space="preserve">
<g>
	<g>
		<g>
			<path d="M256,213.333c-18.825,0-34.133,15.309-34.133,34.133v44.015c21.658,9.532,46.609,9.532,68.267,0v-44.015
				C290.133,228.642,274.825,213.333,256,213.333z"/>
			<path d="M204.8,281.437v-33.971c0-19.285,10.726-36.096,26.513-44.826c-5.82-6.118-9.446-14.345-9.446-23.441
				c0-18.825,15.309-34.133,34.133-34.133s34.133,15.309,34.133,34.133c0,9.097-3.627,17.323-9.446,23.441
				c15.787,8.73,26.513,25.54,26.513,44.826v33.971c20.676-15.59,34.133-40.277,34.133-68.104c0-47.053-38.281-85.333-85.333-85.333
				s-85.333,38.281-85.333,85.333C170.667,241.16,184.124,265.847,204.8,281.437z"/>
			<path d="M273.067,179.2c0-9.412-7.654-17.067-17.067-17.067c-9.412,0-17.067,7.654-17.067,17.067s7.654,17.067,17.067,17.067
				C265.412,196.267,273.067,188.612,273.067,179.2z"/>
			<path d="M409.6,51.2H290.133V34.133C290.133,15.309,274.825,0,256,0s-34.133,15.309-34.133,34.133V51.2H102.4
				c-14.114,0-25.6,11.486-25.6,25.6v409.6c0,14.114,11.486,25.6,25.6,25.6h307.2c14.114,0,25.6-11.486,25.6-25.6V76.8
				C435.2,62.686,423.714,51.2,409.6,51.2z M256,17.067c6.306,0,11.819,3.43,14.771,8.533h-29.542
				C244.181,20.497,249.694,17.067,256,17.067z M238.933,59.733V42.667h34.133v17.067V76.8h-34.133V59.733z M256,110.933
				c56.465,0,102.4,45.935,102.4,102.4c0,39.62-22.656,73.984-55.663,90.999c-0.06,0.043-0.111,0.102-0.179,0.137
				c-0.333,0.162-0.666,0.273-0.998,0.435c-2.91,1.459-5.896,2.773-8.969,3.951c-0.87,0.341-1.758,0.657-2.637,0.973
				c-2.603,0.913-5.248,1.724-7.945,2.432c-1.135,0.299-2.27,0.614-3.413,0.879c-2.577,0.58-5.205,1.024-7.859,1.408
				c-1.135,0.162-2.253,0.393-3.396,0.521c-3.729,0.41-7.501,0.666-11.341,0.666c-3.84,0-7.612-0.256-11.341-0.666
				c-1.143-0.128-2.261-0.358-3.396-0.521c-2.654-0.384-5.282-0.828-7.859-1.408c-1.143-0.265-2.278-0.58-3.413-0.879
				c-2.697-0.708-5.342-1.519-7.945-2.432c-0.879-0.316-1.766-0.631-2.637-0.973c-3.072-1.178-6.059-2.492-8.969-3.951
				c-0.333-0.162-0.666-0.273-0.998-0.435c-0.068-0.034-0.12-0.094-0.179-0.137c-33.007-17.016-55.663-51.379-55.663-90.999
				C153.6,156.868,199.535,110.933,256,110.933z M332.8,358.4c0,4.719-3.823,8.533-8.533,8.533H281.6
				c-4.71,0-8.533-3.814-8.533-8.533s3.823-8.533,8.533-8.533h42.667C328.977,349.867,332.8,353.681,332.8,358.4z M256,358.4
				c0,4.719-3.823,8.533-8.533,8.533h-51.2c-4.719,0-8.533-3.814-8.533-8.533s3.814-8.533,8.533-8.533h51.2
				C252.177,349.867,256,353.681,256,358.4z M136.533,349.867h25.6c4.719,0,8.533,3.814,8.533,8.533s-3.814,8.533-8.533,8.533h-25.6
				c-4.71,0-8.533-3.814-8.533-8.533S131.823,349.867,136.533,349.867z M136.533,401.067H204.8c4.71,0,8.533,3.814,8.533,8.533
				s-3.823,8.533-8.533,8.533h-68.267c-4.71,0-8.533-3.814-8.533-8.533S131.823,401.067,136.533,401.067z M221.867,469.333h-85.333
				c-4.71,0-8.533-3.814-8.533-8.533c0-4.719,3.823-8.533,8.533-8.533h85.333c4.71,0,8.533,3.814,8.533,8.533
				C230.4,465.519,226.577,469.333,221.867,469.333z M230.4,409.6c0-4.719,3.823-8.533,8.533-8.533H307.2
				c4.71,0,8.533,3.814,8.533,8.533s-3.823,8.533-8.533,8.533h-68.267C234.223,418.133,230.4,414.319,230.4,409.6z M281.6,469.333
				H256c-4.71,0-8.533-3.814-8.533-8.533c0-4.719,3.823-8.533,8.533-8.533h25.6c4.71,0,8.533,3.814,8.533,8.533
				C290.133,465.519,286.31,469.333,281.6,469.333z M375.467,469.333h-59.733c-4.71,0-8.533-3.814-8.533-8.533
				c0-4.719,3.823-8.533,8.533-8.533h59.733c4.71,0,8.533,3.814,8.533,8.533C384,465.519,380.177,469.333,375.467,469.333z
				 M375.467,418.133h-34.133c-4.71,0-8.533-3.814-8.533-8.533s3.823-8.533,8.533-8.533h34.133c4.71,0,8.533,3.814,8.533,8.533
				S380.177,418.133,375.467,418.133z M375.467,366.933H358.4c-4.71,0-8.533-3.814-8.533-8.533s3.823-8.533,8.533-8.533h17.067
				c4.71,0,8.533,3.814,8.533,8.533S380.177,366.933,375.467,366.933z"/>
		</g>
	</g>
</g>
<g>
</g>
<g>
</g>
<g>
</g>
<g>
</g>
<g>
</g>
<g>
</g>
<g>
</g>
<g>
</g>
<g>
</g>
<g>
</g>
<g>
</g>
<g>
</g>
<g>
</g>
<g>
</g>
<g>
</g>
</svg>
