<?xml version="1.0" encoding="iso-8859-1"?>
<!-- Generator: Adobe Illustrator 19.0.0, SVG Export Plug-In . SVG Version: 6.00 Build 0)  -->
<svg version="1.1" id="Layer_1" xmlns="http://www.w3.org/2000/svg" xmlns:xlink="http://www.w3.org/1999/xlink" x="0px" y="0px"
	 viewBox="0 0 512 512" style="enable-background:new 0 0 512 512;" xml:space="preserve">
<g>
	<g>
		<rect x="93.867" y="132.267" width="102.4" height="102.4"/>
	</g>
</g>
<g>
	<g>
		<path d="M503.467,371.2h-25.6V106.667c0-14.507-11.093-25.6-25.6-25.6H59.733c-14.507,0-25.6,11.093-25.6,25.6V371.2h-25.6
			c-5.12,0-8.533,3.413-8.533,8.533v25.6c0,14.507,11.093,25.6,25.6,25.6h460.8c14.507,0,25.6-11.093,25.6-25.6v-25.6
			C512,374.613,508.587,371.2,503.467,371.2z M420.693,126.293l0.853-0.853c0.853,0,0.853-0.853,1.707-0.853
			c0.853,0,0.853,0,1.707-0.853c2.56-0.853,5.973,0,7.68,2.56c0,0.853,0.853,0.853,0.853,1.707c0,0,0.853,0.853,0.853,1.707
			c0.853,0,0.853,0,0.853,0.853s0,0.853,0,1.707s0,0.853,0,1.707s0,0.853-0.853,1.707c0,0.853,0,0.853-0.853,1.707
			c0,0-0.853,0.853-0.853,1.707c-0.853,0-0.853,0.853-1.707,0.853s-0.853,0.853-1.707,0.853s-0.853,0-1.707,0.853
			c-0.853,0-0.853,0-1.707,0c-0.853,0-0.853,0-1.707,0s-0.853,0-1.707-0.853c-0.853,0-0.853,0-1.707-0.853l-0.853-0.853
			c-0.853-2.56-1.707-4.267-1.707-6.827S418.987,128,420.693,126.293z M434.347,289.28c0,0.853,0,0.853-0.853,1.707
			c0,0-0.853,0.853-0.853,1.707c-0.853,0-0.853,0.853-1.707,0.853s-0.853,0.853-1.707,0.853s-0.853,0-1.707,0.853
			c-0.853,0-0.853,0-1.707,0c-0.853,0-0.853,0-1.707,0s-0.853,0-1.707-0.853c-0.853,0-0.853,0-1.707-0.853l-0.853-0.853
			c-0.853-2.56-1.707-4.267-1.707-6.827s0.853-4.267,2.56-5.973l0.853-0.853c0.853,0,0.853-0.853,1.707-0.853
			c0.853,0,0.853,0,1.707-0.853c2.56-0.853,5.973,0,7.68,2.56c0,0.853,0.853,0.853,0.853,1.707c0,0,0.853,0.853,0.853,1.707
			s0.853,0.853,0.853,1.707s0,0.853,0,1.707c0,0.853,0,0,0,0.853C435.2,288.427,435.2,288.427,434.347,289.28z M435.2,337.067
			c0,5.12-3.413,8.533-8.533,8.533h-128c-5.12,0-8.533-3.413-8.533-8.533s3.413-8.533,8.533-8.533h128
			C431.787,328.533,435.2,331.947,435.2,337.067z M426.667,243.2h-85.333c-5.12,0-8.533-3.413-8.533-8.533
			c0-5.12,3.413-8.533,8.533-8.533h85.333c5.12,0,8.533,3.413,8.533,8.533C435.2,239.787,431.787,243.2,426.667,243.2z M426.667,192
			h-128c-5.12,0-8.533-3.413-8.533-8.533s3.413-8.533,8.533-8.533h128c5.12,0,8.533,3.413,8.533,8.533S431.787,192,426.667,192z
			 M315.733,234.667c0,0.853,0,0.853,0,1.707s0,0.853-0.853,1.707c0,0.853,0,0.853-0.853,1.707c0,0-0.853,0.853-0.853,1.707
			c-1.707,0.853-3.413,1.707-5.973,1.707c-0.853,0-0.853,0-1.707,0s-0.853,0-1.707-0.853c-0.853,0-0.853,0-1.707-0.853l-0.853-0.853
			c-1.707-1.707-2.56-3.413-2.56-5.973c0-2.56,0.853-4.267,2.56-5.973c3.413-3.413,9.387-3.413,11.947,0
			C314.88,230.4,315.733,232.107,315.733,234.667z M256,123.733h128c5.12,0,8.533,3.413,8.533,8.533S389.12,140.8,384,140.8H256
			c-5.12,0-8.533-3.413-8.533-8.533S250.88,123.733,256,123.733z M273.067,183.467c0,2.56-0.853,4.267-2.56,5.973
			c-1.707,1.707-3.413,2.56-5.973,2.56s-4.267-0.853-5.973-2.56s-2.56-3.413-2.56-5.973s0.853-4.267,2.56-5.973s5.12-2.56,7.68-2.56
			c0.853,0,0.853,0,1.707,0.853c0.853,0,0.853,0,1.707,0.853c0.853,0,0.853,0.853,1.707,0.853
			C272.213,179.2,273.067,180.907,273.067,183.467z M256,226.133h17.067c5.12,0,8.533,3.413,8.533,8.533
			c0,5.12-3.413,8.533-8.533,8.533H256c-5.12,0-8.533-3.413-8.533-8.533C247.467,229.547,250.88,226.133,256,226.133z M256,277.333
			h128c5.12,0,8.533,3.413,8.533,8.533c0,5.12-3.413,8.533-8.533,8.533H256c-5.12,0-8.533-3.413-8.533-8.533
			C247.467,280.747,250.88,277.333,256,277.333z M264.533,337.067c0,5.12-3.413,8.533-8.533,8.533H128
			c-5.12,0-8.533-3.413-8.533-8.533s3.413-8.533,8.533-8.533h128C261.12,328.533,264.533,331.947,264.533,337.067z M221.867,285.867
			c0,2.56-0.853,4.267-2.56,5.973c-0.853,0-0.853,0.853-1.707,0.853c0,0-0.853,0.853-1.707,0.853c-0.853,0-0.853,0-1.707,0.853
			c-0.853,0-0.853,0-1.707,0c-2.56,0-4.267-0.853-5.973-2.56c-0.853-1.707-1.707-3.413-1.707-5.973c0-0.853,0-2.56,0.853-3.413
			c0-0.853,0.853-1.707,1.707-2.56c3.413-3.413,8.533-3.413,11.947,0C221.013,281.6,221.867,283.307,221.867,285.867z M76.8,115.2
			h136.533v136.533H76.8V115.2z M85.333,277.333h85.333c5.12,0,8.533,3.413,8.533,8.533c0,5.12-3.413,8.533-8.533,8.533H85.333
			c-5.12,0-8.533-3.413-8.533-8.533C76.8,280.747,80.213,277.333,85.333,277.333z M77.653,333.653c0-0.853,0.853-1.707,1.707-2.56
			c1.707-1.707,5.12-2.56,7.68-2.56c0.853,0,0.853,0,1.707,0.853c0.853,0,0.853,0,1.707,0.853c0.853,0,0.853,0.853,1.707,0.853
			c0.853,0.853,1.707,1.707,1.707,2.56c0,0.853,0.853,1.707,0.853,3.413c0,2.56-0.853,4.267-2.56,5.973
			c-0.853,0-0.853,0.853-1.707,0.853c0,0-0.853,0.853-1.707,0.853s-0.853,0-1.707,0.853c-0.853,0-0.853,0-1.707,0
			s-2.56,0-3.413-0.853s-1.707-0.853-2.56-1.707c-1.707-1.707-2.56-3.413-2.56-5.973C76.8,336.213,76.8,334.507,77.653,333.653z
			 M494.933,405.333c0,5.12-3.413,8.533-8.533,8.533H25.6c-5.12,0-8.533-3.413-8.533-8.533v-17.067h25.6H179.2v8.533
			c0,5.12,3.413,8.533,8.533,8.533h136.533c5.12,0,8.533-3.413,8.533-8.533v-8.533h136.533h25.6V405.333z"/>
	</g>
</g>
<g>
</g>
<g>
</g>
<g>
</g>
<g>
</g>
<g>
</g>
<g>
</g>
<g>
</g>
<g>
</g>
<g>
</g>
<g>
</g>
<g>
</g>
<g>
</g>
<g>
</g>
<g>
</g>
<g>
</g>
</svg>
