<?xml version="1.0" encoding="iso-8859-1"?>
<!-- Generator: Adobe Illustrator 19.0.0, SVG Export Plug-In . SVG Version: 6.00 Build 0)  -->
<svg version="1.1" id="Layer_1" xmlns="http://www.w3.org/2000/svg" xmlns:xlink="http://www.w3.org/1999/xlink" x="0px" y="0px"
	 viewBox="0 0 512 512" style="enable-background:new 0 0 512 512;" xml:space="preserve">
<g>
	<g>
		<g>
			<path d="M314.557,391.485c-0.529-2.304-1.195-4.557-2.082-6.699c-0.205-0.486-0.486-0.947-0.7-1.417
				c-0.802-1.741-1.707-3.405-2.722-5.009c-0.452-0.708-0.913-1.399-1.399-2.074c-1.152-1.604-2.398-3.132-3.755-4.557
				c-0.418-0.435-0.828-0.879-1.263-1.306c-1.493-1.434-3.106-2.739-4.796-3.951c-0.691-0.503-1.408-0.973-2.133-1.425
				c-1.562-0.99-3.191-1.877-4.89-2.662c-0.546-0.247-1.067-0.546-1.621-0.768c-2.091-0.862-4.292-1.519-6.536-2.039
				c-0.691-0.162-1.382-0.29-2.082-0.418c-2.449-0.444-4.941-0.759-7.509-0.759c-2.714,0-5.359,0.316-7.936,0.802
				c-0.614,0.111-1.212,0.282-1.826,0.427c-2.185,0.521-4.326,1.143-6.374,1.988c-0.341,0.137-0.666,0.29-0.998,0.435
				c-2.108,0.93-4.113,2.031-6.025,3.277c-0.316,0.205-0.648,0.384-0.964,0.597c-1.929,1.331-3.712,2.842-5.393,4.454
				c-0.358,0.35-0.725,0.7-1.075,1.058c-1.57,1.621-3.004,3.362-4.301,5.214c-0.35,0.495-0.666,1.007-0.99,1.51
				c-4.241,6.63-6.784,14.464-6.784,22.903c0,23.526,19.14,42.667,42.667,42.667c19.652,0,36.07-13.431,41.003-31.539
				c0.239-0.87,0.623-1.698,0.802-2.577c0.563-2.765,0.862-5.623,0.862-8.55c0-2.568-0.324-5.052-0.759-7.492
				C314.847,392.876,314.719,392.177,314.557,391.485z"/>
			<path d="M232.591,357.267c2.193-2.022,4.497-3.934,6.972-5.615c0.017-0.017,0.034-0.034,0.051-0.043
				c2.534-1.724,5.239-3.191,8.03-4.514c0.316-0.145,0.614-0.307,0.939-0.452c2.773-1.254,5.666-2.287,8.653-3.115
				c0.12-0.034,0.222-0.085,0.341-0.12l6.724-18.458l-48.119-17.519l-17.51,48.119l26.641,9.702c0.128-0.171,0.29-0.307,0.418-0.469
				c1.801-2.347,3.746-4.565,5.871-6.613C231.925,357.856,232.258,357.574,232.591,357.267z"/>
			<path d="M332.8,341.333v-42.667h-68.267v8.209l13.619,4.958c2.125,0.777,3.857,2.355,4.813,4.412
				c0.956,2.048,1.058,4.395,0.282,6.519l-6.793,18.671c0.375,0.017,0.734,0.094,1.109,0.128c1.485,0.111,2.944,0.29,4.395,0.503
				c0.623,0.094,1.237,0.171,1.852,0.282c1.894,0.35,3.755,0.785,5.581,1.306c0.171,0.051,0.341,0.085,0.512,0.137
				c6.417,1.886,12.365,4.83,17.69,8.619c0.23,0.171,0.452,0.341,0.683,0.512c1.476,1.084,2.901,2.227,4.275,3.447
				c0.35,0.307,0.691,0.623,1.041,0.939c1.246,1.152,2.432,2.364,3.584,3.618c0.324,0.367,0.666,0.717,0.99,1.092
				c1.237,1.425,2.406,2.918,3.516,4.463c0.111,0.154,0.239,0.29,0.35,0.452H332.8V341.333z"/>
			<path d="M68.267,25.6v17.067h-8.533c-4.71,0-8.533,3.814-8.533,8.533s3.823,8.533,8.533,8.533h8.533v51.2h-8.533
				c-4.71,0-8.533,3.814-8.533,8.533S55.023,128,59.733,128h8.533v51.2h-8.533c-4.71,0-8.533,3.814-8.533,8.533
				s3.823,8.533,8.533,8.533h8.533v51.2h-8.533c-4.71,0-8.533,3.814-8.533,8.533s3.823,8.533,8.533,8.533h8.533v51.2h-8.533
				c-4.71,0-8.533,3.814-8.533,8.533c0,4.719,3.823,8.533,8.533,8.533h8.533V384h-8.533c-4.71,0-8.533,3.814-8.533,8.533
				c0,4.719,3.823,8.533,8.533,8.533h8.533v51.2h-8.533c-4.71,0-8.533,3.814-8.533,8.533c0,4.719,3.823,8.533,8.533,8.533h8.533
				V486.4c0,14.114,11.486,25.6,25.6,25.6h25.6V0h-25.6C79.753,0,68.267,11.486,68.267,25.6z"/>
			<path d="M349.867,350.95v24.516c0,4.719-3.823,8.533-8.533,8.533h-11.042c0.009,0.034,0.009,0.068,0.017,0.102
				c0.717,2.415,1.246,4.898,1.655,7.433c0.094,0.563,0.188,1.118,0.256,1.681c0.341,2.577,0.58,5.188,0.58,7.851
				c0,2.381-0.179,4.71-0.452,7.014c-0.085,0.751-0.222,1.485-0.341,2.236c-0.247,1.596-0.555,3.174-0.922,4.727
				c-0.111,0.435-0.145,0.887-0.265,1.323c3.43,1.178,6.955,1.766,10.513,1.766c18.825,0,34.133-15.309,34.133-34.133
				C375.467,368.128,364.57,354.739,349.867,350.95z"/>
			<path d="M435.2,0H136.533v512H435.2c14.114,0,25.6-11.486,25.6-25.6V25.6C460.8,11.486,449.314,0,435.2,0z M290.133,153.6
				c0,4.719-3.814,8.533-8.533,8.533h-59.733c-4.71,0-8.533-3.814-8.533-8.533c0-4.719,3.823-8.533,8.533-8.533H281.6
				C286.319,145.067,290.133,148.881,290.133,153.6z M256,196.267c-4.71,0-8.533-3.814-8.533-8.533S251.29,179.2,256,179.2h85.333
				c4.71,0,8.533,3.814,8.533,8.533s-3.823,8.533-8.533,8.533H256z M264.533,221.867c0,4.719-3.823,8.533-8.533,8.533h-34.133
				c-4.71,0-8.533-3.814-8.533-8.533s3.823-8.533,8.533-8.533H256C260.71,213.333,264.533,217.148,264.533,221.867z M187.733,85.333
				h85.333c4.71,0,8.533,3.814,8.533,8.533c0,4.719-3.823,8.533-8.533,8.533h-85.333c-4.71,0-8.533-3.814-8.533-8.533
				C179.2,89.148,183.023,85.333,187.733,85.333z M170.667,145.067h17.067c4.71,0,8.533,3.814,8.533,8.533
				c0,4.719-3.823,8.533-8.533,8.533h-17.067c-4.71,0-8.533-3.814-8.533-8.533C162.133,148.881,165.956,145.067,170.667,145.067z
				 M170.667,179.2H204.8c4.719,0,8.533,3.814,8.533,8.533s-3.814,8.533-8.533,8.533h-34.133c-4.71,0-8.533-3.814-8.533-8.533
				S165.956,179.2,170.667,179.2z M162.133,221.867c0-4.719,3.823-8.533,8.533-8.533h17.067c4.71,0,8.533,3.814,8.533,8.533
				s-3.823,8.533-8.533,8.533h-17.067C165.956,230.4,162.133,226.586,162.133,221.867z M341.333,435.2
				c-5.905,0-11.674-1.135-17.254-3.217c-10.487,17.237-29.397,28.817-51.012,28.817c-32.939,0-59.733-26.803-59.733-59.733
				c0-7.27,1.374-14.2,3.755-20.651l-32.273-11.75c-4.429-1.604-6.707-6.511-5.094-10.931l23.347-64.154
				c1.604-4.429,6.519-6.699,10.931-5.094l33.468,12.177v-10.53c0-4.719,3.823-8.533,8.533-8.533h85.333
				c4.71,0,8.533,3.814,8.533,8.533v43.435c24.175,4.087,42.667,25.114,42.667,50.432C392.533,412.237,369.57,435.2,341.333,435.2z
				 M392.533,230.4H307.2c-4.71,0-8.533-3.814-8.533-8.533s3.823-8.533,8.533-8.533h85.333c4.71,0,8.533,3.814,8.533,8.533
				S397.244,230.4,392.533,230.4z M392.533,196.267h-17.067c-4.71,0-8.533-3.814-8.533-8.533s3.823-8.533,8.533-8.533h17.067
				c4.71,0,8.533,3.814,8.533,8.533S397.244,196.267,392.533,196.267z M392.533,162.133H332.8c-4.71,0-8.533-3.814-8.533-8.533
				c0-4.719,3.823-8.533,8.533-8.533h59.733c4.71,0,8.533,3.814,8.533,8.533C401.067,158.319,397.244,162.133,392.533,162.133z"/>
		</g>
	</g>
</g>
<g>
</g>
<g>
</g>
<g>
</g>
<g>
</g>
<g>
</g>
<g>
</g>
<g>
</g>
<g>
</g>
<g>
</g>
<g>
</g>
<g>
</g>
<g>
</g>
<g>
</g>
<g>
</g>
<g>
</g>
</svg>
