<?xml version="1.0" encoding="iso-8859-1"?>
<!-- Generator: Adobe Illustrator 19.0.0, SVG Export Plug-In . SVG Version: 6.00 Build 0)  -->
<svg version="1.1" id="Layer_1" xmlns="http://www.w3.org/2000/svg" xmlns:xlink="http://www.w3.org/1999/xlink" x="0px" y="0px"
	 viewBox="0 0 512 512" style="enable-background:new 0 0 512 512;" xml:space="preserve">
<g>
	<g>
		<g>
			<path d="M341.335,341.333c34.057,0,64.725-20.557,78.14-51.2H0.002v51.2H341.335z"/>
			<path d="M196.267,204.8c-9.412,0-17.067,7.654-17.067,17.067c0,9.412,7.654,17.067,17.067,17.067
				c9.412,0,17.067-7.654,17.067-17.067C213.333,212.454,205.679,204.8,196.267,204.8z"/>
			<path d="M460.8,76.8H324.147c-2.679,0-5.205,1.254-6.81,3.396c-14.694,19.541-37.052,30.737-61.338,30.737
				s-46.643-11.196-61.329-30.737c-1.613-2.142-4.139-3.396-6.818-3.396H51.2C22.963,76.8,0,99.763,0,128v25.6h341.333
				c56.465,0,102.4,45.935,102.4,102.4c0,9.284-1.323,18.671-3.951,27.921c-12.424,43.853-52.907,74.479-98.449,74.479H0V384
				c0,28.237,22.963,51.2,51.2,51.2h136.653c2.68,0,5.205-1.254,6.818-3.396c14.686-19.533,37.043-30.737,61.329-30.737
				s46.643,11.204,61.338,30.737c1.604,2.142,4.13,3.396,6.81,3.396H460.8c28.237,0,51.2-22.963,51.2-51.2V128
				C512,99.763,489.037,76.8,460.8,76.8z"/>
			<path d="M426.667,256c0-47.053-38.281-85.333-85.333-85.333H0v102.4h424.883C426.069,267.366,426.667,261.649,426.667,256z
				 M196.267,256c-18.825,0-34.133-15.309-34.133-34.133s15.309-34.133,34.133-34.133s34.133,15.309,34.133,34.133
				S215.091,256,196.267,256z"/>
		</g>
	</g>
</g>
<g>
</g>
<g>
</g>
<g>
</g>
<g>
</g>
<g>
</g>
<g>
</g>
<g>
</g>
<g>
</g>
<g>
</g>
<g>
</g>
<g>
</g>
<g>
</g>
<g>
</g>
<g>
</g>
<g>
</g>
</svg>
