<?xml version="1.0" encoding="iso-8859-1"?>
<!-- Generator: Adobe Illustrator 19.0.0, SVG Export Plug-In . SVG Version: 6.00 Build 0)  -->
<svg version="1.1" id="Layer_1" xmlns="http://www.w3.org/2000/svg" xmlns:xlink="http://www.w3.org/1999/xlink" x="0px" y="0px"
	 viewBox="0 0 512 512" style="enable-background:new 0 0 512 512;" xml:space="preserve">
<g>
	<g>
		<g>
			<path d="M418.133,302.932c-23.526,0-42.667,19.14-42.667,42.667c0,23.526,19.14,42.667,42.667,42.667
				c23.526,0,42.667-19.14,42.667-42.667C460.8,322.073,441.66,302.932,418.133,302.932z M441.233,356.633
				c3.337,3.336,3.337,8.73,0,12.066c-1.664,1.664-3.849,2.5-6.033,2.5c-2.185,0-4.369-0.836-6.033-2.5l-11.034-11.034
				L407.1,368.699c-1.664,1.664-3.849,2.5-6.033,2.5c-2.185,0-4.369-0.836-6.033-2.5c-3.337-3.337-3.337-8.73,0-12.066
				l11.034-11.034l-11.034-11.034c-3.337-3.337-3.337-8.73,0-12.066c3.336-3.336,8.73-3.336,12.066,0l11.034,11.034l11.034-11.034
				c3.337-3.336,8.73-3.336,12.066,0c3.337,3.337,3.337,8.73,0,12.066L430.2,345.599L441.233,356.633z"/>
			<path d="M454.281,258.986c0.606-0.845,1.365-1.621,1.911-2.492c2.423-3.866,3.2-8.439,2.193-12.877
				c-1.015-4.454-3.703-8.235-7.569-10.658L176.179,60.56c-3.866-2.432-8.448-3.208-12.877-2.193
				c-4.446,1.015-8.226,3.695-10.65,7.569c-0.009,0.008-0.017,0.026-0.026,0.043l-28.663-17.766
				c-3.985-2.466-9.207-1.254-11.716,2.697L21.521,194.576c-0.094,0.145-0.188,0.299-0.282,0.444c-2.5,3.985-1.306,9.25,2.68,11.759
				c3.994,2.5,9.25,1.323,11.767-2.662l0.247-0.401c10.923-17.195,27.836-29.141,47.676-33.673
				c19.977-4.599,40.567-1.084,57.958,9.83l193.749,121.634c-7.031,13.158-11.051,28.16-11.051,44.092h-230.4
				c-42.342,0-76.8-34.449-76.8-76.8c0-4.719-3.823-8.533-8.533-8.533S0,264.08,0,268.799v170.667c0,4.719,3.823,8.533,8.533,8.533
				h34.133c0,9.412,7.654,17.067,17.067,17.067H384c9.412,0,17.067-7.654,17.067-17.067c0-3.507-0.486-6.955-1.186-10.342
				c5.905,1.169,12.006,1.809,18.253,1.809c51.755,0,93.867-42.112,93.867-93.867C512,306.644,488.141,273.177,454.281,258.986z
				 M177.869,122.068c-1.86-1.169-3.541-2.517-5.094-3.968c-0.563-0.529-1.041-1.126-1.57-1.698
				c-0.905-0.964-1.792-1.946-2.569-2.995c-0.538-0.725-0.99-1.493-1.468-2.253c-0.623-1.007-1.22-2.022-1.732-3.081
				c-0.393-0.811-0.742-1.647-1.075-2.483c-0.435-1.109-0.811-2.244-1.126-3.388c-0.23-0.828-0.444-1.655-0.614-2.5
				c-0.247-1.246-0.384-2.517-0.495-3.789c-0.06-0.777-0.162-1.553-0.171-2.338c-0.017-1.425,0.111-2.85,0.265-4.275
				c0.077-0.657,0.085-1.306,0.196-1.963c0.324-1.894,0.828-3.763,1.485-5.606c0.068-0.188,0.085-0.384,0.162-0.572
				c0.785-2.108,1.801-4.173,3.046-6.153l274.637,172.407c-1.399,2.21-3.081,4.25-5.111,6.17c-3.558-0.717-7.211-1.169-10.906-1.468
				c-0.887-0.077-1.766-0.085-2.654-0.137c-1.647-0.085-3.277-0.247-4.941-0.247c-0.956,0-1.886,0.111-2.842,0.145
				c-1.229,0.034-2.466,0.102-3.695,0.188c-2.645,0.179-5.257,0.486-7.842,0.888c-0.785,0.119-1.57,0.213-2.355,0.358
				c-3.567,0.648-7.083,1.442-10.496,2.483L177.869,122.068z M59.733,447.999c0-2.347,0.239-4.634,0.691-6.852
				c0.026-0.102,0.068-0.196,0.094-0.299c0.427-2.005,1.033-3.942,1.8-5.803c0.247-0.597,0.58-1.143,0.862-1.724
				c0.623-1.306,1.28-2.586,2.065-3.797c0.427-0.657,0.922-1.271,1.399-1.894c0.759-1.015,1.545-2.005,2.406-2.927
				c0.606-0.631,1.246-1.229,1.886-1.818c0.862-0.794,1.766-1.536,2.705-2.227c0.742-0.555,1.502-1.084,2.287-1.57
				c0.973-0.606,1.997-1.143,3.029-1.647c0.828-0.41,1.647-0.819,2.509-1.161c1.195-0.469,2.441-0.819,3.695-1.152
				c0.768-0.205,1.51-0.461,2.295-0.614c2.082-0.401,4.215-0.648,6.409-0.648h256c1.382,0,2.884,0.247,4.361,0.452
				c1.101,1.024,2.261,1.963,3.405,2.927c0.393,0.333,0.768,0.683,1.169,1.016c4.514,3.695,9.335,6.963,14.456,9.754
				c0.375,0.205,0.768,0.375,1.143,0.572c1.69,0.896,3.388,1.792,5.137,2.577c2.927,5.128,4.463,10.906,4.463,16.836H59.733z
				 M418.133,405.332c-32.939,0-59.733-26.803-59.733-59.733c0-32.93,26.795-59.733,59.733-59.733
				c32.93,0,59.733,26.803,59.733,59.733C477.867,378.529,451.063,405.332,418.133,405.332z"/>
		</g>
	</g>
</g>
<g>
</g>
<g>
</g>
<g>
</g>
<g>
</g>
<g>
</g>
<g>
</g>
<g>
</g>
<g>
</g>
<g>
</g>
<g>
</g>
<g>
</g>
<g>
</g>
<g>
</g>
<g>
</g>
<g>
</g>
</svg>
