<?xml version="1.0" encoding="iso-8859-1"?>
<!-- Generator: Adobe Illustrator 19.0.0, SVG Export Plug-In . SVG Version: 6.00 Build 0)  -->
<svg version="1.1" id="Layer_1" xmlns="http://www.w3.org/2000/svg" xmlns:xlink="http://www.w3.org/1999/xlink" x="0px" y="0px"
	 viewBox="0 0 511.999 511.999" style="enable-background:new 0 0 511.999 511.999;" xml:space="preserve">
<g>
	<g>
		<g>
			<path d="M475.57,151.186l-11.068-7.049c-34.278-21.811-71.851-36.915-111.701-44.885L146.439,57.985
				c-23.689-4.745-48.171-2.765-70.81,5.717l-9.771,3.669c-18.287,6.852-35.157,16.674-50.142,29.167l-5.265,4.378
				c-7.552,6.289-11.213,15.872-9.788,25.6c1.417,9.728,7.672,17.843,16.7,21.709c14.916,6.4,30.729,9.643,46.967,9.643h23.262
				c26.24,0,52.582,2.654,78.302,7.885c0.29,0.06,0.572,0.111,0.862,0.128c15.283,1.519,29.687,8.337,40.542,19.2l10.206,10.206
				c-61.798,28.646-130.082,102.05-147.089,158.848h-2.842c-26.479,0-49.502,17.69-57.003,42.667h490.854
				c-7.501-24.977-30.524-42.667-57.003-42.667H225.398l25.6-25.6h90.334c16.265,0,29.85-11.443,33.263-26.692
				c3.627,0.7,7.27,1.331,10.94,1.86l82.586,11.802c0.401,0.051,0.811,0.077,1.212,0.077h15.471
				c14.993,0,27.196-12.194,27.196-27.187v-70.861C511.999,190.499,498.379,165.693,475.57,151.186z M341.332,311.468h-93.867
				c-2.27,0-4.437,0.896-6.033,2.5l-40.166,40.166H88.182c18.543-53.009,85.163-121.984,141.798-145.732
				c0.358,0.503,0.777,0.964,1.135,1.468c3.208,4.48,6.562,8.841,10.061,13.047c0.503,0.606,0.981,1.237,1.493,1.843
				c3.644,4.292,7.475,8.397,11.409,12.399c1.075,1.092,2.142,2.167,3.234,3.234c3.857,3.763,7.817,7.407,11.913,10.889
				c1.178,0.99,2.389,1.937,3.575,2.91c3.618,2.944,7.313,5.777,11.102,8.499c1.016,0.725,1.997,1.502,3.029,2.219
				c4.412,3.063,8.969,5.914,13.594,8.661c1.399,0.836,2.807,1.673,4.224,2.475c4.727,2.679,9.54,5.205,14.447,7.543
				c1.143,0.538,2.295,1.041,3.439,1.57c5.205,2.372,10.47,4.608,15.846,6.596c0.171,0.06,0.341,0.136,0.521,0.205
				c5.803,2.125,11.716,3.959,17.69,5.623c0.452,0.119,0.879,0.299,1.323,0.418C356.368,305.682,349.507,311.468,341.332,311.468z
				 M418.132,277.334c-32.93,0-59.733-26.803-59.733-59.733c0-32.93,26.803-59.733,59.733-59.733
				c32.93,0,59.733,26.803,59.733,59.733C477.865,250.531,451.062,277.334,418.132,277.334z"/>
			<path d="M418.132,174.934c-23.526,0-42.667,19.14-42.667,42.667c0,23.526,19.14,42.667,42.667,42.667
				c23.526,0,42.667-19.14,42.667-42.667C460.799,194.075,441.658,174.934,418.132,174.934z M441.232,228.635
				c3.337,3.337,3.337,8.73,0,12.066c-1.664,1.664-3.849,2.5-6.033,2.5c-2.185,0-4.369-0.836-6.033-2.5l-11.034-11.034
				l-11.034,11.034c-1.664,1.664-3.849,2.5-6.033,2.5c-2.185,0-4.369-0.836-6.033-2.5c-3.337-3.337-3.337-8.73,0-12.066
				l11.034-11.034l-11.034-11.034c-3.337-3.337-3.337-8.73,0-12.066c3.336-3.336,8.73-3.336,12.066,0l11.034,11.034l11.034-11.034
				c3.337-3.336,8.73-3.336,12.066,0c3.337,3.337,3.337,8.73,0,12.066l-11.034,11.034L441.232,228.635z"/>
			<path d="M505.344,413.868H6.656l-6.494,32.461c-0.495,2.509,0.154,5.103,1.766,7.083c1.63,1.971,4.045,3.123,6.605,3.123h494.933
				c2.56,0,4.975-1.152,6.596-3.123c1.621-1.98,2.27-4.574,1.766-7.083L505.344,413.868z"/>
		</g>
	</g>
</g>
<g>
</g>
<g>
</g>
<g>
</g>
<g>
</g>
<g>
</g>
<g>
</g>
<g>
</g>
<g>
</g>
<g>
</g>
<g>
</g>
<g>
</g>
<g>
</g>
<g>
</g>
<g>
</g>
<g>
</g>
</svg>
