<?xml version="1.0" encoding="iso-8859-1"?>
<!-- Generator: Adobe Illustrator 19.0.0, SVG Export Plug-In . SVG Version: 6.00 Build 0)  -->
<svg version="1.1" id="Layer_1" xmlns="http://www.w3.org/2000/svg" xmlns:xlink="http://www.w3.org/1999/xlink" x="0px" y="0px"
	 viewBox="0 0 512 512" style="enable-background:new 0 0 512 512;" xml:space="preserve">
<g>
	<g>
		<path d="M494.78,201.805c-1.613-78.601-65.929-142.071-144.913-142.071c-26.052,0-50.458,6.997-71.62,19.072
			c-0.213,0.085-0.452,0.077-0.666,0.196L57.591,196.267H8.533C3.814,196.267,0,200.081,0,204.8v136.533
			C0,402.5,49.766,452.267,110.933,452.267h290.133C462.234,452.267,512,402.5,512,341.333v-108.8
			C512,219.537,505.071,208.213,494.78,201.805z M213.333,349.867c-78.31,0-142.157-62.404-144.819-140.075l160.939-85.786
			C213.897,147.115,204.8,174.908,204.8,204.8c0,54.383,29.807,102.98,77.073,127.957
			C261.41,343.646,238.097,349.867,213.333,349.867z M475.733,196.267h-49.57C421.897,157.918,389.325,128,349.867,128
			c-42.351,0-76.8,34.449-76.8,76.8c0,37.965,27.708,69.495,63.949,75.639c-9.873,16.06-22.878,30.259-38.391,41.566
			c-46.78-20.412-76.757-65.929-76.757-117.205c0-70.588,57.412-128,128-128c67.567,0,123.068,52.625,127.659,119.509
			C476.928,196.284,476.331,196.267,475.733,196.267z"/>
	</g>
</g>
<g>
</g>
<g>
</g>
<g>
</g>
<g>
</g>
<g>
</g>
<g>
</g>
<g>
</g>
<g>
</g>
<g>
</g>
<g>
</g>
<g>
</g>
<g>
</g>
<g>
</g>
<g>
</g>
<g>
</g>
</svg>
