<?xml version="1.0" encoding="iso-8859-1"?>
<!-- Generator: Adobe Illustrator 19.0.0, SVG Export Plug-In . SVG Version: 6.00 Build 0)  -->
<svg version="1.1" id="Layer_1" xmlns="http://www.w3.org/2000/svg" xmlns:xlink="http://www.w3.org/1999/xlink" x="0px" y="0px"
	 viewBox="0 0 503.886 503.886" style="enable-background:new 0 0 503.886 503.886;" xml:space="preserve">
<g>
	<g>
		<path d="M501.085,119.97L383.577,2.462c-3.257-3.257-8.511-3.282-11.793-0.076l-90.221,87.98l-17.878-17.878
			c-1.57-1.578-3.702-2.459-5.934-2.459c-2.233,0-4.365,0.881-5.934,2.459L21.568,302.729
			c-24.123,24.123-28.177,62.422-9.644,91.069l12.045,18.617c17.181,26.565,39.382,48.758,65.972,65.972l23.158,14.982
			c10.92,7.067,23.401,10.517,35.815,10.517c17.148,0,34.178-6.572,46.886-19.288l234.068-234.051c3.273-3.282,3.273-8.595,0-11.868
			l-17.811-17.811l89.029-89.029C504.367,128.556,504.367,123.252,501.085,119.97z M311.167,321.756l-23.745,23.745
			c-1.57,1.578-3.702,2.459-5.934,2.459c-2.224,0-4.356-0.881-5.934-2.459l-5.934-5.934l-17.635,17.635
			c-1.612,1.603-3.76,2.459-5.943,2.459c-1.158,0-2.342-0.252-3.45-0.739l-60.173-27.128l-13.446,13.455
			c-0.008,0-0.008,0.008-0.017,0.017l-14.722,14.714c3.231,5.162,5.179,11.205,5.179,17.727c0,18.516-15.058,33.574-33.574,33.574
			s-33.574-15.058-33.574-33.574c0-18.516,15.058-33.574,33.574-33.574c5.892,0,11.356,1.662,16.174,4.331l10.727-10.727
			l-27.27-59.98c-1.452-3.19-0.772-6.933,1.704-9.409l19.59-19.582c-2.602-3.953-4.138-8.67-4.138-13.748
			c0-13.883,11.298-25.18,25.18-25.18s25.18,11.298,25.18,25.18s-11.298,25.18-25.18,25.18c-2.619,0-5.095-0.512-7.479-1.259
			l-17.165,17.156l22.259,48.967l89.869-89.877h-20.337c-4.642,0-8.393-3.752-8.393-8.393c0-4.633,3.752-8.393,8.393-8.393h41.967
			c4.642,0,8.393,3.76,8.393,8.393v33.406c0,4.642-3.752,8.393-8.393,8.393c-4.642,0-8.393-3.752-8.393-8.393v-14.512
			l-73.409,73.417l49.093,22.125l13.539-13.539l-5.934-5.934c-3.282-3.282-3.282-8.586,0-11.868l23.737-23.737
			c3.282-3.282,8.595-3.282,11.868,0l23.745,23.737c1.578,1.57,2.459,3.702,2.459,5.934S312.745,320.178,311.167,321.756z
			 M376.451,110.561c-2.233,0-4.365-0.89-5.934-2.459l-23.745-23.745c-3.273-3.282-3.273-8.595,0-11.868l23.745-23.737
			c3.273-3.282,8.586-3.282,11.868,0l23.745,23.737c1.57,1.57,2.459,3.702,2.459,5.934c0,2.224-0.89,4.356-2.459,5.934
			l-23.745,23.745C380.807,109.671,378.675,110.561,376.451,110.561z M453.604,131.838l-23.737,23.737
			c-1.637,1.637-3.785,2.459-5.934,2.459c-2.149,0-4.297-0.823-5.934-2.459l-23.737-23.737c-3.282-3.282-3.282-8.586,0-11.868
			l23.737-23.737c3.273-3.282,8.586-3.282,11.868,0l23.737,23.737C456.885,123.252,456.885,128.556,453.604,131.838z"/>
	</g>
</g>
<g>
</g>
<g>
</g>
<g>
</g>
<g>
</g>
<g>
</g>
<g>
</g>
<g>
</g>
<g>
</g>
<g>
</g>
<g>
</g>
<g>
</g>
<g>
</g>
<g>
</g>
<g>
</g>
<g>
</g>
</svg>
