<?xml version="1.0" encoding="iso-8859-1"?>
<!-- Generator: Adobe Illustrator 19.0.0, SVG Export Plug-In . SVG Version: 6.00 Build 0)  -->
<svg version="1.1" id="Layer_1" xmlns="http://www.w3.org/2000/svg" xmlns:xlink="http://www.w3.org/1999/xlink" x="0px" y="0px"
	 viewBox="0 0 512 512" style="enable-background:new 0 0 512 512;" xml:space="preserve">
<g>
	<g>
		<g>
			<rect x="128" y="281.599" width="17.067" height="17.067"/>
			<rect x="128" y="213.332" width="17.067" height="17.067"/>
			<rect x="196.267" y="213.332" width="17.067" height="17.067"/>
			<rect x="128" y="349.866" width="85.333" height="17.067"/>
			<rect x="196.267" y="281.599" width="17.067" height="17.067"/>
			<rect x="59.733" y="281.599" width="17.067" height="17.067"/>
			<rect x="59.733" y="213.332" width="17.067" height="17.067"/>
			<rect x="59.733" y="349.866" width="17.067" height="17.067"/>
			<rect x="59.733" y="145.066" width="17.067" height="17.067"/>
			<path d="M281.599,366.935h170.667V145.068H281.599V366.935z M300.466,250.762l59.733-76.8c3.234-4.156,10.231-4.156,13.466,0
				l59.733,76.8c2.005,2.569,2.364,6.059,0.939,8.986c-1.434,2.927-4.412,4.787-7.671,4.787h-8.533v68.267
				c0,4.71-3.814,8.533-8.533,8.533h-85.333c-4.719,0-8.533-3.823-8.533-8.533v-68.267h-8.533c-3.26,0-6.229-1.86-7.663-4.787
				C298.103,256.821,298.47,253.331,300.466,250.762z"/>
			<rect x="196.267" y="145.066" width="17.067" height="17.067"/>
			<rect x="128" y="145.066" width="17.067" height="17.067"/>
			<path d="M480.265,85.333H31.735C14.234,85.333,0,99.567,0,117.069v277.862c0,17.502,14.234,31.735,31.735,31.735h448.529
				c17.502,0,31.735-14.234,31.735-31.735V117.069C512,99.567,497.766,85.333,480.265,85.333z M110.933,136.533
				c0-4.71,3.814-8.533,8.533-8.533H153.6c4.719,0,8.533,3.823,8.533,8.533v34.133c0,4.71-3.814,8.533-8.533,8.533h-34.133
				c-4.719,0-8.533-3.823-8.533-8.533V136.533z M110.933,204.8c0-4.71,3.814-8.533,8.533-8.533H153.6
				c4.719,0,8.533,3.823,8.533,8.533v34.133c0,4.71-3.814,8.533-8.533,8.533h-34.133c-4.719,0-8.533-3.823-8.533-8.533V204.8z
				 M110.933,273.067c0-4.71,3.814-8.533,8.533-8.533H153.6c4.719,0,8.533,3.823,8.533,8.533V307.2c0,4.71-3.814,8.533-8.533,8.533
				h-34.133c-4.719,0-8.533-3.823-8.533-8.533V273.067z M93.867,375.467c0,4.71-3.814,8.533-8.533,8.533H51.2
				c-4.719,0-8.533-3.823-8.533-8.533v-34.133c0-4.71,3.814-8.533,8.533-8.533h34.133c4.719,0,8.533,3.823,8.533,8.533V375.467z
				 M93.867,307.2c0,4.71-3.814,8.533-8.533,8.533H51.2c-4.719,0-8.533-3.823-8.533-8.533v-34.133c0-4.71,3.814-8.533,8.533-8.533
				h34.133c4.719,0,8.533,3.823,8.533,8.533V307.2z M93.867,238.933c0,4.71-3.814,8.533-8.533,8.533H51.2
				c-4.719,0-8.533-3.823-8.533-8.533V204.8c0-4.71,3.814-8.533,8.533-8.533h34.133c4.719,0,8.533,3.823,8.533,8.533V238.933z
				 M93.867,170.667c0,4.71-3.814,8.533-8.533,8.533H51.2c-4.719,0-8.533-3.823-8.533-8.533v-34.133c0-4.71,3.814-8.533,8.533-8.533
				h34.133c4.719,0,8.533,3.823,8.533,8.533V170.667z M230.4,375.467c0,4.71-3.814,8.533-8.533,8.533h-102.4
				c-4.719,0-8.533-3.823-8.533-8.533v-34.133c0-4.71,3.814-8.533,8.533-8.533h102.4c4.719,0,8.533,3.823,8.533,8.533V375.467z
				 M230.4,307.2c0,4.71-3.814,8.533-8.533,8.533h-34.133c-4.719,0-8.533-3.823-8.533-8.533v-34.133c0-4.71,3.814-8.533,8.533-8.533
				h34.133c4.719,0,8.533,3.823,8.533,8.533V307.2z M230.4,238.933c0,4.71-3.814,8.533-8.533,8.533h-34.133
				c-4.719,0-8.533-3.823-8.533-8.533V204.8c0-4.71,3.814-8.533,8.533-8.533h34.133c4.719,0,8.533,3.823,8.533,8.533V238.933z
				 M230.4,170.667c0,4.71-3.814,8.533-8.533,8.533h-34.133c-4.719,0-8.533-3.823-8.533-8.533v-34.133
				c0-4.71,3.814-8.533,8.533-8.533h34.133c4.719,0,8.533,3.823,8.533,8.533V170.667z M469.333,375.467
				c0,4.71-3.814,8.533-8.533,8.533H273.067c-4.719,0-8.533-3.823-8.533-8.533V136.533c0-4.71,3.814-8.533,8.533-8.533H460.8
				c4.719,0,8.533,3.823,8.533,8.533V375.467z"/>
			<polygon points="366.933,193.1 324.651,247.466 409.216,247.466 			"/>
			<rect x="332.8" y="264.532" width="68.267" height="59.733"/>
		</g>
	</g>
</g>
<g>
</g>
<g>
</g>
<g>
</g>
<g>
</g>
<g>
</g>
<g>
</g>
<g>
</g>
<g>
</g>
<g>
</g>
<g>
</g>
<g>
</g>
<g>
</g>
<g>
</g>
<g>
</g>
<g>
</g>
</svg>
