<?xml version="1.0" encoding="iso-8859-1"?>
<!-- Generator: Adobe Illustrator 19.0.0, SVG Export Plug-In . SVG Version: 6.00 Build 0)  -->
<svg version="1.1" id="Layer_1" xmlns="http://www.w3.org/2000/svg" xmlns:xlink="http://www.w3.org/1999/xlink" x="0px" y="0px"
	 viewBox="0 0 512 512" style="enable-background:new 0 0 512 512;" xml:space="preserve">
<g>
	<g>
		<g>
			<path d="M405.783,316.634L371.65,333.7c-2.893,1.442-4.719,4.403-4.719,7.637v59.733c0,4.71,3.823,8.533,8.533,8.533
				c4.719,0,8.533-3.823,8.533-8.533v-54.46L413.42,331.9c4.215-2.108,5.922-7.236,3.814-11.452
				C415.127,316.241,410.007,314.509,405.783,316.634z"/>
			<path d="M136.533,443.733c9.412,0,17.067-7.654,17.067-17.067s-7.654-17.067-17.067-17.067c-9.412,0-17.067,7.654-17.067,17.067
				S127.121,443.733,136.533,443.733z"/>
			<path d="M59.733,42.667c-9.412,0-17.067,7.654-17.067,17.067S50.321,76.8,59.733,76.8S76.8,69.146,76.8,59.733
				S69.146,42.667,59.733,42.667z"/>
			<path d="M487.492,0H24.508C10.999,0,0,10.999,0,24.508V102.4h512V24.508C512,10.999,501.001,0,487.492,0z M59.733,93.867
				c-18.825,0-34.133-15.309-34.133-34.133S40.909,25.6,59.733,25.6s34.133,15.309,34.133,34.133S78.558,93.867,59.733,93.867z
				 M136.533,93.867c-18.825,0-34.133-15.309-34.133-34.133S117.709,25.6,136.533,25.6s34.133,15.309,34.133,34.133
				S155.358,93.867,136.533,93.867z M213.333,93.867c-18.825,0-34.133-15.309-34.133-34.133S194.509,25.6,213.333,25.6
				c18.825,0,34.133,15.309,34.133,34.133S232.158,93.867,213.333,93.867z"/>
			<path d="M0,341.333h256c4.71,0,8.533,3.823,8.533,8.533V512h153.6c1.058,0,2.074-0.213,3.021-0.572
				c0.034-0.009,0.068,0,0.094-0.017l3.217-1.254c11.059-4.292,22.494-8.738,33.075-17.05C492.655,465.502,512,423.723,512,375.467
				v-76.8v-179.2H0V341.333z M179.2,324.267h-17.067c-4.71,0-8.533-3.823-8.533-8.533c0-4.71,3.823-8.533,8.533-8.533H179.2
				c4.71,0,8.533,3.823,8.533,8.533C187.733,320.444,183.91,324.267,179.2,324.267z M213.333,187.733H93.867
				c-4.71,0-8.533-3.823-8.533-8.533s3.823-8.533,8.533-8.533h119.467c4.71,0,8.533,3.823,8.533,8.533
				S218.044,187.733,213.333,187.733z M332.8,204.8c4.71,0,8.533,3.823,8.533,8.533c0,4.71-3.823,8.533-8.533,8.533H213.333
				c-4.71,0-8.533-3.823-8.533-8.533c0-4.71,3.823-8.533,8.533-8.533H332.8z M162.133,204.8H179.2c4.71,0,8.533,3.823,8.533,8.533
				c0,4.71-3.823,8.533-8.533,8.533h-17.067c-4.71,0-8.533-3.823-8.533-8.533C153.6,208.623,157.423,204.8,162.133,204.8z
				 M213.333,273.067c4.71,0,8.533,3.823,8.533,8.533s-3.823,8.533-8.533,8.533H93.867c-4.71,0-8.533-3.823-8.533-8.533
				s3.823-8.533,8.533-8.533H213.333z M273.067,324.267h-59.733c-4.71,0-8.533-3.823-8.533-8.533c0-4.71,3.823-8.533,8.533-8.533
				h59.733c4.71,0,8.533,3.823,8.533,8.533C281.6,320.444,277.777,324.267,273.067,324.267z M281.6,290.133h-34.133
				c-4.71,0-8.533-3.823-8.533-8.533s3.823-8.533,8.533-8.533H281.6c4.71,0,8.533,3.823,8.533,8.533S286.31,290.133,281.6,290.133z
				 M281.6,256h-85.333c-4.71,0-8.533-3.823-8.533-8.533s3.823-8.533,8.533-8.533H281.6c4.71,0,8.533,3.823,8.533,8.533
				S286.31,256,281.6,256z M307.2,247.467c0-4.71,3.823-8.533,8.533-8.533h59.733c4.71,0,8.533,3.823,8.533,8.533
				S380.177,256,375.467,256h-59.733C311.023,256,307.2,252.177,307.2,247.467z M418.133,204.8c4.71,0,8.533,3.823,8.533,8.533
				c0,4.71-3.823,8.533-8.533,8.533h-51.2c-4.71,0-8.533-3.823-8.533-8.533c0-4.71,3.823-8.533,8.533-8.533H418.133z M384,179.2
				c0-4.71,3.823-8.533,8.533-8.533h8.533c4.71,0,8.533,3.823,8.533,8.533s-3.823,8.533-8.533,8.533h-8.533
				C387.823,187.733,384,183.91,384,179.2z M479.42,302.694c2.202,0.563,4.446,1.092,6.741,1.587
				c1.826,0.393,3.678,0.768,5.555,1.109c1.092,0.205,2.108,0.461,3.217,0.649v69.427c0,42.914-17.024,79.923-47.94,104.226
				c-8.585,6.741-18.364,10.539-28.706,14.558l-0.154,0.06l-0.162-0.068c-5.171-2.005-10.197-3.951-15.002-6.246
				c-1.613-0.768-3.166-1.655-4.727-2.517c-0.759-0.418-1.562-0.777-2.313-1.229c-2.287-1.365-4.514-2.867-6.656-4.557
				c-27.051-21.257-43.469-52.258-47.147-88.422c-0.529-5.163-0.794-10.436-0.794-15.804v-69.427
				c33.109-5.53,57.318-18.449,76.8-31.241c2.517,1.647,5.12,3.302,7.808,4.949c0.862,0.521,1.784,1.033,2.662,1.562
				c1.869,1.109,3.746,2.219,5.7,3.311c1.101,0.614,2.27,1.203,3.405,1.809c1.826,0.973,3.652,1.946,5.555,2.884
				c1.271,0.631,2.603,1.22,3.908,1.835c1.869,0.879,3.746,1.749,5.7,2.586c1.417,0.597,2.884,1.169,4.344,1.749
				c1.963,0.777,3.934,1.545,5.973,2.278c1.553,0.555,3.149,1.075,4.745,1.596c2.074,0.674,4.173,1.331,6.332,1.954
				C475.955,301.798,477.679,302.251,479.42,302.694z M460.8,187.733h-25.6c-4.71,0-8.533-3.823-8.533-8.533
				s3.823-8.533,8.533-8.533h25.6c4.71,0,8.533,3.823,8.533,8.533S465.51,187.733,460.8,187.733z M469.333,213.333
				c0,4.71-3.823,8.533-8.533,8.533h-8.533c-4.71,0-8.533-3.823-8.533-8.533c0-4.71,3.823-8.533,8.533-8.533h8.533
				C465.51,204.8,469.333,208.623,469.333,213.333z M366.933,136.533H460.8c4.71,0,8.533,3.823,8.533,8.533
				s-3.823,8.533-8.533,8.533h-93.867c-4.71,0-8.533-3.823-8.533-8.533S362.223,136.533,366.933,136.533z M366.933,179.2
				c0,4.71-3.823,8.533-8.533,8.533H247.467c-4.71,0-8.533-3.823-8.533-8.533s3.823-8.533,8.533-8.533H358.4
				C363.11,170.667,366.933,174.49,366.933,179.2z M315.733,136.533H332.8c4.71,0,8.533,3.823,8.533,8.533s-3.823,8.533-8.533,8.533
				h-17.067c-4.71,0-8.533-3.823-8.533-8.533S311.023,136.533,315.733,136.533z M196.267,136.533H281.6
				c4.71,0,8.533,3.823,8.533,8.533s-3.823,8.533-8.533,8.533h-85.333c-4.71,0-8.533-3.823-8.533-8.533
				S191.556,136.533,196.267,136.533z M51.2,136.533h110.933c4.71,0,8.533,3.823,8.533,8.533s-3.823,8.533-8.533,8.533H51.2
				c-4.71,0-8.533-3.823-8.533-8.533S46.49,136.533,51.2,136.533z M51.2,170.667h8.533c4.71,0,8.533,3.823,8.533,8.533
				s-3.823,8.533-8.533,8.533H51.2c-4.71,0-8.533-3.823-8.533-8.533S46.49,170.667,51.2,170.667z M51.2,204.8H128
				c4.71,0,8.533,3.823,8.533,8.533c0,4.71-3.823,8.533-8.533,8.533H51.2c-4.71,0-8.533-3.823-8.533-8.533
				C42.667,208.623,46.49,204.8,51.2,204.8z M51.2,238.933h110.933c4.71,0,8.533,3.823,8.533,8.533S166.844,256,162.133,256H51.2
				c-4.71,0-8.533-3.823-8.533-8.533S46.49,238.933,51.2,238.933z M51.2,273.067h8.533c4.71,0,8.533,3.823,8.533,8.533
				s-3.823,8.533-8.533,8.533H51.2c-4.71,0-8.533-3.823-8.533-8.533S46.49,273.067,51.2,273.067z M51.2,307.2H128
				c4.71,0,8.533,3.823,8.533,8.533c0,4.71-3.823,8.533-8.533,8.533H51.2c-4.71,0-8.533-3.823-8.533-8.533
				C42.667,311.023,46.49,307.2,51.2,307.2z"/>
			<path d="M213.333,42.667c-9.412,0-17.067,7.654-17.067,17.067S203.921,76.8,213.333,76.8c9.412,0,17.067-7.654,17.067-17.067
				S222.746,42.667,213.333,42.667z"/>
			<path d="M0,484.796C0,499.797,12.203,512,27.196,512h220.271V358.4H0V484.796z M42.667,418.133h60.945
				c3.814-14.677,17.067-25.6,32.922-25.6s29.107,10.923,32.922,25.6h52.412c4.71,0,8.533,3.823,8.533,8.533
				s-3.823,8.533-8.533,8.533h-52.412c-3.814,14.677-17.067,25.6-32.922,25.6s-29.107-10.923-32.922-25.6H42.667
				c-4.71,0-8.533-3.823-8.533-8.533S37.956,418.133,42.667,418.133z"/>
			<path d="M136.533,42.667c-9.412,0-17.067,7.654-17.067,17.067S127.121,76.8,136.533,76.8c9.412,0,17.067-7.654,17.067-17.067
				S145.946,42.667,136.533,42.667z"/>
		</g>
	</g>
</g>
<g>
</g>
<g>
</g>
<g>
</g>
<g>
</g>
<g>
</g>
<g>
</g>
<g>
</g>
<g>
</g>
<g>
</g>
<g>
</g>
<g>
</g>
<g>
</g>
<g>
</g>
<g>
</g>
<g>
</g>
</svg>
