<?xml version="1.0" encoding="iso-8859-1"?>
<!-- Generator: Adobe Illustrator 19.0.0, SVG Export Plug-In . SVG Version: 6.00 Build 0)  -->
<svg version="1.1" id="Layer_1" xmlns="http://www.w3.org/2000/svg" xmlns:xlink="http://www.w3.org/1999/xlink" x="0px" y="0px"
	 viewBox="0 0 511.997 511.997" style="enable-background:new 0 0 511.997 511.997;" xml:space="preserve">
<g>
	<g>
		<path d="M510.565,349.397l-35.968-53.948l-65.476-16.367c-1.4-28.459-6.008-52.087-11.947-71.509
			c0.222-0.145,0.469-0.213,0.683-0.384l40.329-32.256h39.68c4.71,0,8.533-3.823,8.533-8.533c0-4.719-3.823-8.533-8.533-8.533
			h-45.662l-40.883,32.708c-10.044-25.566-21.879-41.574-28.996-49.69c-1.237-1.399-2.654-2.662-4.207-3.831
			c-1.237-19.661-12.049-40.55-32.521-62.319l30.302-30.302c3.328-3.337,3.328-8.738,0-12.066c-3.336-3.337-8.738-3.337-12.066,0
			l-30.498,30.49c-32.785-28.279-87.842-14.532-106.138,0l-30.498-30.49c-3.337-3.337-8.738-3.337-12.066,0
			c-3.337,3.328-3.337,8.73,0,12.066l30.293,30.293c-20.284,21.589-31.078,42.368-32.461,62.293
			c-1.587,1.186-3.029,2.458-4.267,3.874c-7.117,8.115-18.953,24.132-29.005,49.673l-40.875-32.7H42.666
			c-4.719,0-8.533,3.814-8.533,8.533c0,4.71,3.814,8.533,8.533,8.533h39.671l40.329,32.256c0.205,0.171,0.452,0.23,0.674,0.375
			c-5.837,19.046-10.351,42.18-11.836,69.905c-0.87-0.068-1.749-0.102-2.645,0.111l-71.467,17.869L1.433,349.397
			c-2.611,3.917-1.553,9.225,2.364,11.836c1.451,0.964,3.098,1.434,4.727,1.434c2.756,0,5.461-1.34,7.108-3.806l32.299-48.452
			l63.061-15.761c0,0.811-0.051,1.562-0.051,2.381c-0.068,2.227-0.785,43.136,31.471,95.275L86.979,416.06l-18.278,54.835
			c-1.493,4.471,0.922,9.31,5.393,10.795c0.896,0.307,1.809,0.444,2.705,0.444c3.576,0,6.904-2.261,8.09-5.837l15.855-47.565
			l51.328-21.999c8.67,12.151,19.038,24.713,31.761,37.444l10.726,10.726c3.209,3.209,6.665,6.059,10.24,8.73v-109.5
			c0-32.939-26.795-59.733-59.733-59.733h-25.6v-17.067h25.6c42.342,0,76.8,34.449,76.8,76.8v119.629
			c11.912,5.427,24.917,8.371,38.4,8.371c13.483,0,26.479-2.944,38.4-8.371V354.133c0-42.351,34.449-76.8,76.8-76.8h17.067V294.4
			h-17.067c-32.939,0-59.733,26.795-59.733,59.733v109.5c3.567-2.671,7.023-5.521,10.231-8.73l10.726-10.726
			c12.629-12.629,22.938-25.105,31.573-37.171l42.889,21.444l15.949,47.846c1.195,3.576,4.523,5.837,8.098,5.837
			c0.888,0,1.801-0.137,2.697-0.444c4.471-1.485,6.886-6.323,5.393-10.795l-18.176-54.545l-47.249-23.629
			c31.94-51.396,31.812-91.972,31.727-95.539c0-0.137-0.009-0.256-0.009-0.393l54.477,13.619l32.307,48.452
			c1.647,2.466,4.343,3.806,7.108,3.806c1.621,0,3.268-0.469,4.719-1.434C512.118,358.622,513.177,353.314,510.565,349.397z
			 M341.307,140.544l-0.026,0.188c-0.41,3.345-1.041,6.4-1.655,9.463c-2.739,12.245-9.694,32.896-26.505,48.188
			c-15.454,13.15-33.382,17.357-44.706,18.637c-2.97,0.265-5.897,0.58-9.114,0.58c-3.217,0-6.153-0.316-9.122-0.589
			c-11.085-1.254-28.442-5.376-43.375-17.963c-16.947-15.309-23.586-36.309-26.086-48.495c-0.563-3.106-1.135-6.212-1.476-9.617
			l-0.034-0.316c0.085-18.577,13.099-40.602,37.675-63.71c6.409-6.016,26.573-13.431,47.334-13.431
			c14.293,0,28.868,3.516,39.415,13.423c24.661,23.185,37.7,45.286,37.734,63.13C341.358,140.1,341.324,140.399,341.307,140.544z"/>
	</g>
</g>
<g>
</g>
<g>
</g>
<g>
</g>
<g>
</g>
<g>
</g>
<g>
</g>
<g>
</g>
<g>
</g>
<g>
</g>
<g>
</g>
<g>
</g>
<g>
</g>
<g>
</g>
<g>
</g>
<g>
</g>
</svg>
