<?xml version="1.0" encoding="iso-8859-1"?>
<!-- Generator: Adobe Illustrator 19.0.0, SVG Export Plug-In . SVG Version: 6.00 Build 0)  -->
<svg version="1.1" id="Layer_1" xmlns="http://www.w3.org/2000/svg" xmlns:xlink="http://www.w3.org/1999/xlink" x="0px" y="0px"
	 viewBox="0 0 511.986 511.986" style="enable-background:new 0 0 511.986 511.986;" xml:space="preserve">
<g>
	<g>
		<g>
			<path d="M256.002,371.193c-9.412,0-17.067,7.654-17.067,17.067s7.654,17.067,17.067,17.067c9.412,0,17.067-7.654,17.067-17.067
				S265.414,371.193,256.002,371.193z"/>
			<path d="M434.995,150.982c-4.514-76.8-67.823-138.189-144.145-138.189c-46.336,0-91.204,22.733-118.997,59.802
				c-0.623-0.324-1.289-0.546-1.92-0.853c-1.698-0.819-3.413-1.604-5.171-2.304c-0.998-0.393-1.997-0.751-3.004-1.101
				c-1.698-0.597-3.422-1.126-5.18-1.596c-1.007-0.273-2.005-0.555-3.029-0.785c-1.894-0.427-3.823-0.759-5.777-1.041
				c-0.879-0.137-1.749-0.307-2.637-0.41c-2.825-0.316-5.692-0.512-8.602-0.512c-42.351,0-76.8,34.458-76.8,76.8
				c0,1.092,0.068,2.167,0.145,3.243C24.388,163.389,0,203.931,0,244.516c0,60.442,49.169,109.611,109.611,109.611h9.856v76.8
				c0,37.641,30.626,68.267,68.267,68.267h136.533c37.641,0,68.267-30.626,68.267-68.267v-76.8h13.773
				c51.985,0,96.905-37.325,104.491-86.827C518.844,214.785,485.214,164.08,434.995,150.982z M264.533,421.181v18.278
				c0,4.71-3.814,8.533-8.533,8.533s-8.533-3.823-8.533-8.533v-18.278c-14.677-3.814-25.6-17.067-25.6-32.922
				c0-18.825,15.309-34.133,34.133-34.133s34.133,15.309,34.133,34.133C290.133,404.115,279.219,417.367,264.533,421.181z
				 M307.2,302.926H204.8v-25.6c0-28.237,22.972-51.2,51.2-51.2c28.237,0,51.2,22.963,51.2,51.2V302.926z M493.926,264.714
				c-6.323,41.242-43.989,72.346-87.62,72.346h-13.773v-14.575c0-10.786-8.772-19.558-19.558-19.558H358.4v-25.6
				c0-56.465-45.935-102.4-102.4-102.4s-102.4,45.935-102.4,102.4v25.6h-14.575c-10.786,0-19.558,8.772-19.558,19.558v14.575h-9.856
				c-51.029,0-92.544-41.515-92.544-92.544c0-35.456,23.083-72.252,54.895-87.492l4.838-2.33v-5.367
				c0-1.033,0.068-2.074,0.128-3.115l0.094-1.57l-0.111-1.673c-0.051-0.717-0.111-1.442-0.111-2.176
				c0-32.939,26.803-59.733,59.733-59.733c2.637,0,5.24,0.23,7.825,0.572c0.666,0.085,1.331,0.196,1.988,0.307
				c2.278,0.375,4.531,0.862,6.733,1.502c0.299,0.085,0.606,0.145,0.905,0.23c2.432,0.751,4.804,1.69,7.134,2.739
				c0.597,0.273,1.178,0.572,1.766,0.862c2.065,1.015,4.079,2.133,6.025,3.396c16.435,10.65,27.358,29.124,27.358,50.125
				c0,4.71,3.814,8.533,8.533,8.533s8.533-3.823,8.533-8.533c0-23.492-10.624-44.527-27.298-58.624
				c24.457-32,64.742-52.309,104.815-52.309c66.091,0,120.994,52.352,126.711,118.511c-8.713-0.614-21.769-0.93-34.842,1.05
				c-4.659,0.708-7.859,5.06-7.151,9.719c0.64,4.233,4.275,7.253,8.422,7.253c0.427,0,0.862-0.026,1.297-0.094
				c18.884-2.876,38.536-0.222,39.927-0.026C470.127,174.781,500.949,218.924,493.926,264.714z"/>
		</g>
	</g>
</g>
<g>
</g>
<g>
</g>
<g>
</g>
<g>
</g>
<g>
</g>
<g>
</g>
<g>
</g>
<g>
</g>
<g>
</g>
<g>
</g>
<g>
</g>
<g>
</g>
<g>
</g>
<g>
</g>
<g>
</g>
</svg>
