<?xml version="1.0" encoding="iso-8859-1"?>
<!-- Generator: Adobe Illustrator 19.0.0, SVG Export Plug-In . SVG Version: 6.00 Build 0)  -->
<svg version="1.1" id="Layer_1" xmlns="http://www.w3.org/2000/svg" xmlns:xlink="http://www.w3.org/1999/xlink" x="0px" y="0px"
	 viewBox="0 0 503.639 503.639" style="enable-background:new 0 0 503.639 503.639;" xml:space="preserve">
<g transform="translate(1)">
	<g>
		<g>
			<path d="M500.525,345.482c-2.224-8.125-4.541-15.855-6.077-20.967c-0.823-2.753-1.41-4.675-1.561-5.305
				c-4.222-19.414,6.916-31.769,7.353-32.231c2.711-2.845,3.089-7.185,0.906-10.458l-10.593-15.889l11.86-127.639
				c0.957-8.922-1.612-17.677-7.244-24.66c-5.615-6.983-13.639-11.356-22.553-12.313l-20.371-2.191V79.737H-1v50.361h436.459v16.787
				H-1v176.262c0,15.175,10.19,27.883,24.039,32.029c0,16.913,12.615,31.543,29.772,33.389l265.787,29.83
				c6.497,9.694,14.663,18.147,24.417,24.072c0.193,0.126,0.99,0.529,1.192,0.638l7.604,3.785
				c20.707,8.729,40.935,22.05,41.631,27.337c0,4.633,3.76,8.427,8.393,8.427c4.516,0,8.2-3.542,8.385-8.016
				c0.008-0.126,0.008-0.243,0.008-0.369c0.747-5.347,20.95-18.642,42.127-27.606l7.042-3.525c0.285-0.126,1.007-0.504,1.267-0.663
				C493.248,422.651,508.583,374.917,500.525,345.482z M452.246,146.884v-16.787v-19.389l18.575,1.998
				c4.465,0.478,8.469,2.669,11.289,6.161c2.812,3.492,4.096,7.865,3.601,12.448l-10.844,116.719
				c-0.218,0.067-0.403,0.218-0.613,0.302c-0.353,0.143-0.688,0.311-1.024,0.504c-0.336,0.185-0.663,0.369-0.965,0.604
				c-0.47,0.353-0.881,0.755-1.267,1.2c-0.101,0.118-0.243,0.201-0.336,0.319c-0.277,0.361-5.758,7.302-18.415,11.021V146.884z
				 M141.689,180.458h67.148c4.642,0,8.393,3.76,8.393,8.393s-3.752,8.393-8.393,8.393h-67.148c-4.642,0-8.393-3.76-8.393-8.393
				S137.047,180.458,141.689,180.458z M217.229,222.425c0,4.633-3.752,8.393-8.393,8.393h-25.18c-4.642,0-8.393-3.76-8.393-8.393
				c0-4.633,3.752-8.393,8.393-8.393h25.18C213.478,214.032,217.229,217.792,217.229,222.425z M40.967,180.458h67.148
				c4.642,0,8.393,3.76,8.393,8.393s-3.752,8.393-8.393,8.393H40.967c-4.642,0-8.393-3.76-8.393-8.393
				S36.326,180.458,40.967,180.458z M32.574,222.425c0-4.633,3.752-8.393,8.393-8.393h109.115c4.642,0,8.393,3.76,8.393,8.393
				c0,4.633-3.752,8.393-8.393,8.393H40.967C36.326,230.819,32.574,227.059,32.574,222.425z M54.649,371.879
				c-8.074-0.873-14.21-7.361-14.924-15.159h261.548c-0.252,3.332-0.243,6.799-0.05,10.341c0.008,0.117,0.017,0.235,0.025,0.353
				c0.403,6.983,1.662,14.252,3.743,21.504c0.076,0.243,0.126,0.487,0.201,0.73c0.948,3.206,2.065,6.387,3.324,9.535
				c0.159,0.411,0.26,0.831,0.428,1.242L54.649,371.879z M267.59,306.36c-4.642,0-8.393-3.76-8.393-8.393v-75.247
				c0-4.642,3.752-8.393,8.393-8.393h134.295c4.642,0,8.393,3.752,8.393,8.393v31.962c-0.168-0.353-0.26-0.604-0.294-0.705
				c-0.898-3.601-4.121-6.043-7.865-6.186c-3.735-0.227-7.319,2.476-8.419,6.152c-0.017,0.05-0.092,0.252-0.21,0.529v-23.359
				H275.984v58.46h29.394c-0.953-1.43-1.689-2.307-1.917-2.569c0.275,0.301,6.738,7.452,8.036,19.356H267.59z M392.845,255.63
				c-0.101,0.159-0.252,0.336-0.378,0.504C392.585,255.965,392.745,255.781,392.845,255.63z M391.637,257.166
				c-0.21,0.235-0.47,0.462-0.722,0.697C391.167,257.627,391.427,257.392,391.637,257.166z M382.799,262.361
				c-0.613,0.201-1.183,0.403-1.863,0.579C381.607,262.764,382.194,262.554,382.799,262.361z M302.994,286.316
				c0.166,0.208,0.251,0.457,0.441,0.658c-0.032-0.036-0.053-0.059-0.055-0.062C303.22,286.736,303.145,286.509,302.994,286.316z
				 M451.961,428.09l-6.622,3.332c-10.878,4.591-31.82,14.411-43.503,26.339c-11.642-11.91-32.474-21.68-43.008-26.112l-7.092-3.517
				c-8.67-5.271-15.578-12.783-20.858-21.235c-0.126-0.252-0.185-0.529-0.336-0.772c-6.555-10.786-10.819-23.661-12.196-35.546
				c-0.025-0.227-0.059-0.445-0.076-0.672c-0.487-4.516-0.529-8.863-0.134-12.901c0.034-0.336,0.076-0.663,0.118-0.99
				c0.227-1.947,0.537-3.827,0.99-5.59c0.008-0.017,0-0.034,0.008-0.05c0.034-0.151,0.059-0.311,0.092-0.453
				c0.235-0.856,0.47-1.679,0.705-2.518c0.336-1.2,0.671-2.417,0.999-3.576c1.612-5.649,3.148-10.777,4.255-14.495
				c1.041-3.466,1.737-5.842,1.897-6.555c0.554-2.56,0.906-5.036,1.108-7.428c0.05-0.579,0.025-1.108,0.059-1.679
				c0.101-1.821,0.159-3.609,0.092-5.321c-0.017-0.436-0.076-0.839-0.109-1.267c-0.117-1.83-0.285-3.601-0.562-5.288
				c-0.034-0.193-0.084-0.369-0.117-0.562c-0.327-1.897-0.739-3.701-1.217-5.414c-1.796-6.337-4.423-11.432-6.673-14.907
				l8.016-12.028c7.613,5.682,20.715,12.296,40.465,12.296c17.307,0,27.564-5.095,33.574-10.542
				c6.018,5.447,16.275,10.542,33.574,10.542c1.771,0,3.441-0.084,5.053-0.21c16.93-1.016,28.479-6.908,35.42-12.087l8.016,12.028
				c-4.86,7.521-11.667,22.293-7.411,41.892c0.143,0.688,0.839,3.064,1.88,6.53c1.502,5.019,3.785,12.607,5.959,20.589
				C489.924,370.368,480.095,411.001,451.961,428.09z"/>
			<path d="M452.256,331.541l-28.596-0.034l-14.244-28.857c-2.82-5.733-12.238-5.733-15.049,0l-14.252,28.857l-28.596,0.034
				c-3.181,0-6.085,1.805-7.504,4.65c-1.41,2.837-1.108,6.236,0.797,8.78l21.361,28.471l-6.102,32.071
				c-0.596,3.114,0.621,6.295,3.139,8.226c2.51,1.939,5.926,2.283,8.763,0.898l29.914-14.487l29.914,14.487
				c1.158,0.562,2.417,0.839,3.66,0.839c1.813,0,3.618-0.588,5.103-1.737c2.518-1.93,3.735-5.112,3.139-8.226l-6.102-32.071
				l21.361-28.471c1.905-2.543,2.208-5.943,0.797-8.78C458.341,333.345,455.437,331.541,452.256,331.541z"/>
			<path d="M452.248,54.557c0-18.516-15.058-33.574-33.574-33.574H32.575c-18.516,0-33.574,15.058-33.574,33.574v8.393h453.246
				V54.557z"/>
		</g>
	</g>
</g>
<g>
</g>
<g>
</g>
<g>
</g>
<g>
</g>
<g>
</g>
<g>
</g>
<g>
</g>
<g>
</g>
<g>
</g>
<g>
</g>
<g>
</g>
<g>
</g>
<g>
</g>
<g>
</g>
<g>
</g>
</svg>
