<?xml version="1.0" encoding="iso-8859-1"?>
<!-- Generator: Adobe Illustrator 19.0.0, SVG Export Plug-In . SVG Version: 6.00 Build 0)  -->
<svg version="1.1" id="Layer_1" xmlns="http://www.w3.org/2000/svg" xmlns:xlink="http://www.w3.org/1999/xlink" x="0px" y="0px"
	 viewBox="0 0 512 512" style="enable-background:new 0 0 512 512;" xml:space="preserve">
<g>
	<g>
		<g>
			<path d="M465.068,232.772v-10.906c0-23.526-19.14-42.667-42.667-42.667c-23.526,0-42.667,19.14-42.667,42.667v10.906
				c-15.863,11.11-25.6,29.312-25.6,48.828v221.867c0,4.71,3.823,8.533,8.533,8.533h119.467c4.71,0,8.533-3.823,8.533-8.533V281.6
				C490.668,262.084,480.931,243.883,465.068,232.772z M396.801,235.486v-13.619c0-14.114,11.486-25.6,25.6-25.6
				s25.6,11.486,25.6,25.6v13.619c-0.154,0.751-0.213,1.536-0.154,2.321c0.009,0.188,0.128,0.939,0.154,1.126v51.2h-51.2
				l0.009-51.063c0.026-0.179,0.137-1.075,0.145-1.263C397.014,237.022,396.954,236.237,396.801,235.486z M405.334,426.667h34.133
				c4.71,0,8.533,3.823,8.533,8.533c0,4.71-3.823,8.533-8.533,8.533h-34.133c-4.71,0-8.533-3.823-8.533-8.533
				C396.801,430.49,400.624,426.667,405.334,426.667z M448.001,477.867h-51.2c-4.71,0-8.533-3.823-8.533-8.533
				s3.823-8.533,8.533-8.533h51.2c4.71,0,8.533,3.823,8.533,8.533S452.711,477.867,448.001,477.867z"/>
			<path d="M277.667,0H63.668C45.031,0,29.867,15.164,29.867,33.801V51.2h281.6V33.801C311.468,15.164,296.304,0,277.667,0z
				 M140.801,42.667h-8.533c-4.71,0-8.533-3.823-8.533-8.533c0-4.71,3.823-8.533,8.533-8.533h8.533c4.71,0,8.533,3.823,8.533,8.533
				C149.334,38.844,145.511,42.667,140.801,42.667z M209.068,42.667h-42.667c-4.71,0-8.533-3.823-8.533-8.533
				c0-4.71,3.823-8.533,8.533-8.533h42.667c4.71,0,8.533,3.823,8.533,8.533C217.601,38.844,213.778,42.667,209.068,42.667z"/>
			<path d="M311.466,418.136V68.269h-281.6v8.533c-4.71,0-8.533,3.814-8.533,8.533v8.533c0,4.71,3.823,8.533,8.533,8.533v8.533
				c-4.71,0-8.533,3.814-8.533,8.533v8.533c0,4.71,3.823,8.533,8.533,8.533v8.533c-4.71,0-8.533,3.814-8.533,8.533v8.533
				c0,4.71,3.823,8.533,8.533,8.533v247.467H311.466z M191.999,324.559c-0.162,4.608-3.951,8.243-8.525,8.243
				c-0.102,0-0.205,0-0.299-0.008c-4.719-0.162-8.397-4.113-8.235-8.823c3.072-88.141-11.87-110.396-12.023-110.618
				c-2.654-3.763-1.911-9.062,1.766-11.836c3.678-2.773,8.815-2.227,11.716,1.365C178.346,205.306,195.319,229.31,191.999,324.559z
				 M217.727,319.03c-0.051,4.685-3.866,8.439-8.533,8.439H209.1c-4.71-0.051-8.491-3.908-8.44-8.627l0.009-2.15
				c0-2.202-0.034-4.198-0.068-6.221c-0.034-2.176-0.068-4.378-0.068-6.869v-1.783c0.034-4.693,3.849-8.474,8.533-8.474h0.06
				c4.71,0.034,8.508,3.874,8.474,8.593v1.664c0,2.389,0.034,4.497,0.068,6.579c0.034,2.116,0.068,4.207,0.068,6.511L217.727,319.03
				z M210.022,287.328c-0.068,0.009-0.137,0.009-0.196,0.009c-4.625,0-8.422-3.695-8.525-8.337
				c-0.862-37.12-4.591-58.197-7.569-69.333c-1.476-5.538-2.722-8.491-3.379-10.069c-3.533-8.354-11.614-13.705-20.608-13.705
				c-2.961,0-5.854,0.58-8.602,1.732c-8.098,3.371-13.483,11.255-13.73,20.07c-0.077,2.935,0.418,5.82,1.485,8.567
				c4.489,11.827,11.324,40.806,8.969,108.297c-0.162,4.608-3.951,8.243-8.525,8.243c-0.102,0-0.205,0-0.307-0.008
				c-4.71-0.162-8.388-4.113-8.226-8.823c2.338-66.91-4.574-92.979-7.654-101.086c-0.051-0.128-0.29-0.768-0.333-0.905
				c-1.724-4.429-2.611-9.54-2.466-14.754c0.427-15.522,9.933-29.397,24.218-35.354c4.838-2.022,9.941-3.046,15.172-3.046
				c15.872,0,30.114,9.438,36.292,24.055c0.811,1.911,2.406,5.7,4.19,12.373c4.676,17.519,7.416,42.197,8.132,73.353
				C218.461,283.318,214.732,287.226,210.022,287.328z M156.671,138.234c4.915-1.084,9.993-1.63,15.078-1.63
				c27.145,0,51.183,16.956,62.72,44.245c3.345,7.893,5.803,16.068,7.526,24.977v0.009c4.104,21.325,3.217,45.892,1.741,86.605
				l-0.538,15.053c-0.162,4.608-3.951,8.243-8.525,8.243c-0.102,0-0.205,0-0.299-0.009c-4.719-0.162-8.397-4.113-8.235-8.823
				l0.538-15.087c1.434-39.492,2.304-63.334-1.442-82.748v-0.009c-1.493-7.723-3.61-14.771-6.485-21.564
				c-8.823-20.864-26.837-33.826-47.002-33.826c-3.857,0-7.689,0.418-11.401,1.237c-4.625,0.998-9.165-1.903-10.172-6.502
				C149.162,143.806,152.072,139.25,156.671,138.234z M100.505,207.209v-0.026c0.563-19.405,8.499-47.155,29.022-61.568
				c3.866-2.714,9.182-1.775,11.887,2.082c2.705,3.857,1.775,9.173-2.082,11.887c-14.293,10.044-21.308,31.974-21.769,48.12v0.009
				c-0.179,6.417,0.589,12.851,2.295,19.132c1.519,5.76,6.246,29.662,3.874,97.715c-0.162,4.608-3.951,8.243-8.525,8.243
				c-0.102,0-0.205,0-0.307-0.008c-4.71-0.162-8.388-4.113-8.226-8.823c2.398-68.847-2.714-90.479-3.311-92.715
				C101.239,223.405,100.274,215.299,100.505,207.209z"/>
			<path d="M29.867,478.2c0,18.637,15.164,33.8,33.801,33.8h213.999c18.637,0,33.801-15.164,33.801-33.8v-43h-281.6V478.2z
				 M170.668,443.733c11.785,0,21.333,9.549,21.333,21.333c0,11.784-9.549,21.333-21.333,21.333s-21.333-9.549-21.333-21.333
				C149.334,453.282,158.883,443.733,170.668,443.733z"/>
		</g>
	</g>
</g>
<g>
</g>
<g>
</g>
<g>
</g>
<g>
</g>
<g>
</g>
<g>
</g>
<g>
</g>
<g>
</g>
<g>
</g>
<g>
</g>
<g>
</g>
<g>
</g>
<g>
</g>
<g>
</g>
<g>
</g>
</svg>
