<?xml version="1.0" encoding="iso-8859-1"?>
<!-- Generator: Adobe Illustrator 19.0.0, SVG Export Plug-In . SVG Version: 6.00 Build 0)  -->
<svg version="1.1" id="Layer_1" xmlns="http://www.w3.org/2000/svg" xmlns:xlink="http://www.w3.org/1999/xlink" x="0px" y="0px"
	 viewBox="0 0 512 512" style="enable-background:new 0 0 512 512;" xml:space="preserve">
<g>
	<g>
		<g>
			<path d="M500.198,221.218c1.05,0.435,2.159,0.649,3.268,0.649c1.664,0,3.319-0.486,4.745-1.434c2.364-1.587,3.789-4.25,3.789-7.1
				v-42.667c0-3.456-2.082-6.571-5.265-7.885l-88.602-36.659V51.2h8.533c4.719,0,8.533-3.823,8.533-8.533V8.533
				c0-4.71-3.814-8.533-8.533-8.533H307.2c-4.719,0-8.533,3.823-8.533,8.533v34.133c0,4.71,3.814,8.533,8.533,8.533h8.533v32.546
				l-56.465-23.364c-2.099-0.862-4.437-0.862-6.536,0L5.265,162.782C2.082,164.096,0,167.211,0,170.667v42.667
				c0,2.85,1.425,5.513,3.789,7.1c2.381,1.579,5.376,1.886,8.013,0.785l13.798-5.709v185.557h170.667v-102.4
				c0-4.71,3.814-8.533,8.533-8.533h93.867c4.719,0,8.533,3.823,8.533,8.533V460.8h41.873c8.09,12.126,17.903,23.074,29.653,32.307
				c10.573,8.311,21.999,12.749,33.05,17.041l3.243,1.263c0.998,0.393,2.057,0.589,3.115,0.589c1.058,0,2.116-0.196,3.115-0.589
				l3.226-1.254c11.051-4.301,22.485-8.738,33.067-17.05C492.655,465.51,512,423.731,512,375.467v-76.8
				c0-4.292-3.191-7.919-7.45-8.465c-6.417-0.819-12.382-2.039-18.15-3.413v-71.279L500.198,221.218z M315.733,17.067h102.4v17.067
				H409.6h-85.333h-8.533V17.067z M179.2,366.933h-8.533h-102.4h-8.533c-4.719,0-8.533-3.823-8.533-8.533s3.814-8.533,8.533-8.533
				V256c0-4.71,3.814-8.533,8.533-8.533h102.4c4.719,0,8.533,3.823,8.533,8.533v93.867c4.719,0,8.533,3.823,8.533,8.533
				S183.919,366.933,179.2,366.933z M315.733,238.933H307.2H204.8h-8.533c-4.719,0-8.533-3.823-8.533-8.533
				c0-4.71,3.814-8.533,8.533-8.533v-59.733c0-4.71,3.814-8.533,8.533-8.533h102.4c4.719,0,8.533,3.823,8.533,8.533v59.733
				c4.719,0,8.533,3.823,8.533,8.533C324.267,235.11,320.452,238.933,315.733,238.933z M494.933,306.039v69.427
				c0,42.914-17.024,79.932-47.932,104.218c-8.593,6.741-18.364,10.539-28.706,14.558l-0.162,0.068l-0.179-0.077
				c-10.334-4.011-20.113-7.808-28.681-14.541c-11.46-9.011-20.992-19.78-28.476-31.94c-0.384-0.623-0.708-1.289-1.084-1.911
				c-1.784-3.021-3.43-6.135-4.958-9.318c-0.555-1.152-1.118-2.295-1.63-3.456c-1.596-3.584-3.046-7.245-4.318-11.008
				c-0.418-1.22-0.759-2.475-1.143-3.703c-0.947-3.106-1.801-6.263-2.534-9.472c-0.273-1.178-0.58-2.347-0.819-3.533
				c-0.836-4.105-1.468-8.294-1.946-12.544c-0.136-1.152-0.23-2.321-0.341-3.482c-0.401-4.548-0.691-9.156-0.691-13.858v-69.427
				c33.101-5.53,57.318-18.449,76.8-31.241c2.167,1.417,4.429,2.85,6.75,4.292c0.717,0.444,1.459,0.879,2.193,1.323
				c1.587,0.956,3.209,1.911,4.881,2.859c1.041,0.597,2.091,1.186,3.157,1.775c1.271,0.7,2.594,1.391,3.925,2.082
				C454.519,295.245,472.687,302.327,494.933,306.039z M259.268,103.049c-1.05-0.435-2.159-0.648-3.268-0.648
				s-2.219,0.213-3.268,0.648L17.067,200.568v-24.201L256,77.5l64.981,26.888c0.008,0.009,0.008,0.009,0.017,0.009l85.333,35.311
				l88.602,36.659v24.201L259.268,103.049z"/>
			<path d="M405.783,316.634L371.65,333.7c-2.893,1.442-4.719,4.403-4.719,7.637v59.733c0,4.71,3.823,8.533,8.533,8.533
				c4.719,0,8.533-3.823,8.533-8.533v-54.46L413.42,331.9c4.215-2.108,5.922-7.236,3.814-11.452
				C415.127,316.233,409.999,314.526,405.783,316.634z"/>
			<rect x="76.8" y="264.532" width="34.133" height="34.133"/>
			<rect x="76.8" y="315.732" width="34.133" height="34.133"/>
			<path d="M25.6,452.267c0,4.71,3.814,8.533,8.533,8.533h162.133v-42.667H25.6V452.267z"/>
			<rect x="128" y="264.532" width="34.133" height="34.133"/>
			<path d="M213.333,460.8h76.8V307.2h-76.8V460.8z M264.533,366.933h8.533c4.719,0,8.533,3.823,8.533,8.533
				c0,4.71-3.814,8.533-8.533,8.533h-8.533c-4.719,0-8.533-3.823-8.533-8.533C256,370.756,259.814,366.933,264.533,366.933z"/>
			<rect x="128" y="315.732" width="34.133" height="34.133"/>
			<rect x="213.333" y="204.799" width="34.133" height="17.067"/>
			<rect x="264.533" y="204.799" width="34.133" height="17.067"/>
			<rect x="213.333" y="170.666" width="34.133" height="17.067"/>
			<rect x="264.533" y="170.666" width="34.133" height="17.067"/>
		</g>
	</g>
</g>
<g>
</g>
<g>
</g>
<g>
</g>
<g>
</g>
<g>
</g>
<g>
</g>
<g>
</g>
<g>
</g>
<g>
</g>
<g>
</g>
<g>
</g>
<g>
</g>
<g>
</g>
<g>
</g>
<g>
</g>
</svg>
