<?xml version="1.0" encoding="iso-8859-1"?>
<!-- Generator: Adobe Illustrator 19.0.0, SVG Export Plug-In . SVG Version: 6.00 Build 0)  -->
<svg version="1.1" id="Layer_1" xmlns="http://www.w3.org/2000/svg" xmlns:xlink="http://www.w3.org/1999/xlink" x="0px" y="0px"
	 viewBox="0 0 512 512" style="enable-background:new 0 0 512 512;" xml:space="preserve">
<g>
	<g>
		<g>
			<path d="M409.6,460.8V324.267h-59.733H162.133H102.4V460.8H0V512h512v-51.2H409.6z M145.067,369.749
				c0-10.965,8.917-19.883,19.883-19.883h182.101c10.965,0,19.883,8.917,19.883,19.883v45.568c0,10.965-8.917,19.883-19.883,19.883
				H164.949c-10.965,0-19.883-8.917-19.883-19.883V369.749z M494.933,494.933H17.067v-17.067H102.4h307.2h85.333V494.933z"/>
			<polygon points="278.054,179.202 324.006,119.468 296.434,119.468 			"/>
			<polygon points="325.387,102.4 302.629,68.267 271.943,68.267 294.701,102.4 			"/>
			<polygon points="274.187,102.4 256.003,75.119 237.81,102.4 			"/>
			<polygon points="187.996,119.467 233.948,179.2 215.567,119.467 			"/>
			<polygon points="233.418,119.467 255.997,192.853 278.585,119.467 			"/>
			<polygon points="240.055,68.267 209.37,68.267 186.611,102.4 217.297,102.4 			"/>
			<path d="M164.949,418.133h182.101c1.553,0,2.816-1.263,2.816-2.816v-45.568c0-1.553-1.263-2.816-2.816-2.816H164.949
				c-1.553,0-2.816,1.263-2.816,2.816v45.568C162.133,416.87,163.396,418.133,164.949,418.133z M213.333,384h85.333
				c4.71,0,8.533,3.823,8.533,8.533c0,4.71-3.823,8.533-8.533,8.533h-85.333c-4.71,0-8.533-3.823-8.533-8.533
				C204.8,387.823,208.623,384,213.333,384z"/>
			<path d="M182.013,273.067c-1.553,0-2.816,1.263-2.816,2.816V307.2h153.6v-31.317c0-1.553-1.263-2.816-2.807-2.816H182.013z"/>
			<path d="M162.135,275.883c0-10.965,8.917-19.883,19.874-19.883h35.934c-8.141-9.071-13.141-21.018-13.141-34.133
				c0-4.71,3.823-8.533,8.533-8.533c4.71,0,8.533,3.823,8.533,8.533c0,18.825,15.309,34.133,34.133,34.133
				c18.816,0,34.133-15.309,34.133-34.133c0-4.71,3.823-8.533,8.533-8.533s8.533,3.823,8.533,8.533
				c0,13.116-5.001,25.062-13.15,34.133h35.934c10.965,0,19.883,8.917,19.883,19.883V307.2h59.733V0h-307.2v307.2h59.733V275.883z
				 M162.246,109.961c0.043-0.358,0.111-0.708,0.196-1.058c0.102-0.41,0.23-0.802,0.393-1.186c0.068-0.188,0.094-0.375,0.179-0.555
				c0.077-0.162,0.213-0.29,0.299-0.444c0.102-0.171,0.145-0.358,0.256-0.521l34.133-51.2c1.579-2.372,4.241-3.797,7.1-3.797h102.4
				c2.85,0,5.513,1.425,7.1,3.797l34.133,51.2c0.102,0.162,0.154,0.35,0.247,0.521c0.094,0.154,0.222,0.282,0.307,0.444
				c0.085,0.179,0.102,0.367,0.179,0.555c0.162,0.384,0.29,0.777,0.393,1.186c0.085,0.35,0.154,0.7,0.196,1.058
				c0.043,0.401,0.051,0.802,0.043,1.212c-0.009,0.367-0.034,0.725-0.094,1.084c-0.06,0.401-0.162,0.785-0.282,1.169
				c-0.111,0.358-0.23,0.708-0.384,1.05c-0.077,0.154-0.102,0.333-0.179,0.486c-0.119,0.213-0.299,0.384-0.435,0.589
				c-0.12,0.188-0.188,0.41-0.333,0.589L262.76,227.072c-1.613,2.099-4.113,3.328-6.758,3.328c-2.654,0-5.154-1.229-6.767-3.328
				l-85.333-110.933c-0.137-0.179-0.205-0.401-0.333-0.589c-0.128-0.205-0.307-0.375-0.427-0.589
				c-0.085-0.154-0.111-0.333-0.179-0.486c-0.162-0.341-0.282-0.691-0.393-1.05c-0.119-0.384-0.213-0.768-0.282-1.169
				c-0.051-0.358-0.077-0.717-0.094-1.084C162.186,110.763,162.203,110.362,162.246,109.961z"/>
		</g>
	</g>
</g>
<g>
</g>
<g>
</g>
<g>
</g>
<g>
</g>
<g>
</g>
<g>
</g>
<g>
</g>
<g>
</g>
<g>
</g>
<g>
</g>
<g>
</g>
<g>
</g>
<g>
</g>
<g>
</g>
<g>
</g>
</svg>
