<?xml version="1.0" encoding="iso-8859-1"?>
<!-- Generator: Adobe Illustrator 19.0.0, SVG Export Plug-In . SVG Version: 6.00 Build 0)  -->
<svg version="1.1" id="Layer_1" xmlns="http://www.w3.org/2000/svg" xmlns:xlink="http://www.w3.org/1999/xlink" x="0px" y="0px"
	 viewBox="0 0 512 512" style="enable-background:new 0 0 512 512;" xml:space="preserve">
<g>
	<g>
		<g>
			<path d="M136.536,308.342c0-0.631-0.512-1.143-1.152-1.143h-14.771c-0.631,0-1.143,0.512-1.143,1.143v48.913
				c0,0.632,0.512,1.143,1.143,1.143h14.771c0.64,0,1.152-0.512,1.152-1.143V308.342z"/>
			<path d="M290.133,153.598h16.299c-3.618-21.393-20.506-38.281-41.899-41.899v16.299c0,4.71-3.823,8.533-8.533,8.533
				c-4.71,0-8.533-3.823-8.533-8.533V111.7c-21.393,3.618-38.281,20.506-41.899,41.899h16.299c4.71,0,8.533,3.823,8.533,8.533
				c0,4.71-3.823,8.533-8.533,8.533h-16.299c3.618,21.393,20.506,38.281,41.899,41.899v-16.299c0-4.71,3.823-8.533,8.533-8.533
				c4.71,0,8.533,3.823,8.533,8.533v16.299c21.393-3.618,38.281-20.506,41.899-41.899h-16.299c-4.71,0-8.533-3.823-8.533-8.533
				C281.6,157.421,285.423,153.598,290.133,153.598z M256,170.665c-4.71,0-8.533-3.823-8.533-8.533c0-4.71,3.823-8.533,8.533-8.533
				c4.71,0,8.533,3.823,8.533,8.533C264.533,166.842,260.71,170.665,256,170.665z"/>
			<path d="M358.4,197.411v83.038c0,0.64,0.512,1.152,1.143,1.152h15.923v-85.333h-15.923
				C358.912,196.268,358.4,196.78,358.4,197.411z"/>
			<path d="M407.723,0H104.277C84.42,0,68.267,16.154,68.267,36.011v405.845c0,19.209,15.164,34.816,34.133,35.823v10.778
				c0,12.979,10.564,23.544,23.543,23.544h38.246c12.979,0,23.543-10.564,23.543-23.544v-10.59h136.533v10.59
				c0,12.979,10.564,23.544,23.543,23.544h38.246c12.979,0,23.543-10.564,23.543-23.544v-10.778
				c18.97-0.998,34.133-16.614,34.133-35.823V36.011C443.733,16.154,427.58,0,407.723,0z M170.667,488.457
				c0,3.567-2.901,6.477-6.477,6.477h-38.246c-3.576,0-6.477-2.91-6.477-6.477v-10.59h51.2V488.457z M392.533,488.457
				c0,3.567-2.901,6.477-6.477,6.477H347.81c-3.575,0-6.477-2.91-6.477-6.477v-10.59h51.2V488.457z M392.533,179.2v119.467v104.149
				c0,13.15-10.692,23.851-23.842,23.851H143.309c-13.15,0-23.842-10.701-23.842-23.851v-27.469
				c-9.498-0.606-17.067-8.448-17.067-18.091v-48.913c0-9.651,7.569-17.493,17.067-18.099v-102.63
				c-9.498-0.606-17.067-8.448-17.067-18.091V120.61c0-9.651,7.569-17.493,17.067-18.099V75.042
				c0-13.15,10.692-23.842,23.842-23.842h225.382c13.15,0,23.842,10.692,23.842,23.842V179.2z"/>
			<path d="M256,298.665c-9.412,0-17.067,7.654-17.067,17.067s7.654,17.067,17.067,17.067c9.412,0,17.067-7.654,17.067-17.067
				S265.412,298.665,256,298.665z"/>
			<path d="M120.613,170.665h14.771c0.64,0,1.152-0.512,1.152-1.143v-48.913c0-0.631-0.512-1.143-1.152-1.143h-14.771
				c-0.631,0-1.143,0.512-1.143,1.143v48.913C119.469,170.153,119.981,170.665,120.613,170.665z"/>
			<path d="M368.691,68.265H143.309c-3.738,0-6.775,3.038-6.775,6.775v27.392c0.461,0.034,0.887,0.154,1.331,0.213
				c0.555,0.077,1.109,0.145,1.655,0.265c0.614,0.145,1.203,0.358,1.792,0.563c0.512,0.179,1.024,0.333,1.519,0.555
				c0.572,0.256,1.109,0.58,1.655,0.896c0.444,0.265,0.905,0.503,1.331,0.802c0.529,0.367,0.998,0.802,1.485,1.229
				c0.375,0.324,0.776,0.623,1.118,0.981c0.469,0.478,0.862,1.016,1.271,1.536c0.299,0.384,0.623,0.734,0.888,1.135
				c0.384,0.572,0.674,1.203,0.998,1.826c0.205,0.41,0.452,0.794,0.631,1.22c0.29,0.717,0.486,1.476,0.691,2.236
				c0.102,0.384,0.256,0.734,0.333,1.118c0.239,1.169,0.367,2.372,0.367,3.601v48.913c0,1.229-0.128,2.432-0.367,3.601
				c-0.077,0.384-0.23,0.734-0.333,1.109c-0.205,0.759-0.401,1.527-0.691,2.244c-0.179,0.427-0.427,0.802-0.631,1.212
				c-0.316,0.623-0.614,1.254-0.998,1.835c-0.265,0.401-0.589,0.751-0.888,1.135c-0.41,0.521-0.802,1.058-1.271,1.536
				c-0.341,0.358-0.734,0.657-1.109,0.981c-0.486,0.427-0.964,0.862-1.493,1.237c-0.418,0.29-0.879,0.529-1.323,0.785
				c-0.546,0.324-1.092,0.649-1.673,0.905c-0.486,0.222-0.99,0.375-1.502,0.555c-0.597,0.205-1.186,0.418-1.801,0.563
				c-0.546,0.12-1.101,0.188-1.655,0.265c-0.444,0.06-0.87,0.179-1.331,0.213v102.468c0.461,0.034,0.887,0.154,1.331,0.213
				c0.555,0.077,1.109,0.145,1.655,0.265c0.614,0.145,1.203,0.358,1.792,0.563c0.512,0.179,1.024,0.333,1.519,0.555
				c0.572,0.256,1.109,0.58,1.655,0.896c0.444,0.265,0.905,0.503,1.331,0.802c0.529,0.367,0.998,0.802,1.485,1.229
				c0.375,0.324,0.776,0.623,1.118,0.981c0.469,0.478,0.862,1.015,1.271,1.536c0.299,0.384,0.623,0.734,0.888,1.135
				c0.384,0.572,0.674,1.203,0.998,1.826c0.205,0.41,0.452,0.794,0.631,1.22c0.29,0.717,0.486,1.476,0.691,2.236
				c0.102,0.384,0.256,0.734,0.333,1.118c0.239,1.169,0.367,2.372,0.367,3.601v48.913c0,1.229-0.128,2.432-0.367,3.601
				c-0.077,0.384-0.23,0.734-0.333,1.109c-0.205,0.76-0.401,1.527-0.691,2.244c-0.179,0.427-0.427,0.802-0.631,1.212
				c-0.316,0.623-0.614,1.254-0.998,1.835c-0.265,0.401-0.589,0.751-0.888,1.135c-0.41,0.521-0.802,1.058-1.271,1.536
				c-0.341,0.358-0.734,0.657-1.109,0.981c-0.486,0.427-0.964,0.862-1.493,1.237c-0.418,0.29-0.879,0.529-1.323,0.785
				c-0.546,0.324-1.092,0.649-1.673,0.905c-0.486,0.222-0.99,0.375-1.502,0.555c-0.597,0.205-1.186,0.418-1.801,0.563
				c-0.546,0.119-1.101,0.188-1.655,0.265c-0.444,0.06-0.87,0.179-1.331,0.213v27.392c0,3.738,3.038,6.775,6.775,6.775h225.382
				c3.738,0,6.775-3.038,6.775-6.775V298.665h-15.923c-10.035,0-18.21-8.175-18.21-18.21v-83.046c0-10.035,8.175-18.21,18.21-18.21
				h15.923V75.04C375.467,71.303,372.429,68.265,368.691,68.265z M321.05,271.213l-35.328,28.075
				c2.722,4.907,4.412,10.453,4.412,16.444c0,15.855-10.923,29.107-25.6,32.922v35.345c0,4.71-3.823,8.533-8.533,8.533
				c-4.71,0-8.533-3.823-8.533-8.533v-35.345c-14.677-3.814-25.6-17.067-25.6-32.922c0-5.99,1.69-11.537,4.412-16.444
				l-35.328-28.075c-3.686-2.935-4.292-8.303-1.365-11.998c2.935-3.678,8.294-4.301,11.998-1.365l36.454,28.988
				c5.231-3.268,11.349-5.239,17.963-5.239c6.613,0,12.732,1.971,17.963,5.239l36.454-28.988c3.695-2.935,9.054-2.313,11.998,1.365
				C325.342,262.91,324.736,268.278,321.05,271.213z M256,230.398c-37.64,0-68.267-30.626-68.267-68.267
				c0-37.641,30.626-68.267,68.267-68.267c37.641,0,68.267,30.626,68.267,68.267C324.267,199.772,293.641,230.398,256,230.398z"/>
		</g>
	</g>
</g>
<g>
</g>
<g>
</g>
<g>
</g>
<g>
</g>
<g>
</g>
<g>
</g>
<g>
</g>
<g>
</g>
<g>
</g>
<g>
</g>
<g>
</g>
<g>
</g>
<g>
</g>
<g>
</g>
<g>
</g>
</svg>
