<?xml version="1.0" encoding="iso-8859-1"?>
<!-- Generator: Adobe Illustrator 19.0.0, SVG Export Plug-In . SVG Version: 6.00 Build 0)  -->
<svg version="1.1" id="Layer_1" xmlns="http://www.w3.org/2000/svg" xmlns:xlink="http://www.w3.org/1999/xlink" x="0px" y="0px"
	 viewBox="0 0 512 512" style="enable-background:new 0 0 512 512;" xml:space="preserve">
<g>
	<g>
		<g>
			<path d="M409.6,59.733c2.185,0,4.369-0.836,6.033-2.5l25.6-25.6c3.336-3.337,3.336-8.73,0-12.066
				c-3.337-3.337-8.73-3.337-12.066,0l-25.6,25.6c-3.337,3.337-3.337,8.73,0,12.066C405.231,58.897,407.415,59.733,409.6,59.733z"/>
			<path d="M247.467,42.667c4.719,0,8.533-3.823,8.533-8.533v-25.6C256,3.823,252.186,0,247.467,0s-8.533,3.823-8.533,8.533v25.6
				C238.933,38.844,242.748,42.667,247.467,42.667z"/>
			<path d="M435.2,196.267c0,4.71,3.814,8.533,8.533,8.533h25.6c4.719,0,8.533-3.823,8.533-8.533s-3.814-8.533-8.533-8.533h-25.6
				C439.014,187.733,435.2,191.556,435.2,196.267z"/>
			<path d="M486.4,324.267h-25.6c-4.719,0-8.533,3.823-8.533,8.533c0,4.71,3.814,8.533,8.533,8.533h25.6
				c4.719,0,8.533-3.823,8.533-8.533C494.933,328.09,491.119,324.267,486.4,324.267z"/>
			<path d="M87.834,65.766c1.664,1.664,3.849,2.5,6.033,2.5c2.185,0,4.369-0.836,6.033-2.5c3.337-3.337,3.337-8.73,0-12.066
				L74.3,28.1c-3.337-3.337-8.73-3.337-12.066,0s-3.337,8.73,0,12.066L87.834,65.766z"/>
			<path d="M42.667,204.8h25.6c4.719,0,8.533-3.823,8.533-8.533s-3.814-8.533-8.533-8.533h-25.6c-4.719,0-8.533,3.823-8.533,8.533
				S37.948,204.8,42.667,204.8z"/>
			<path d="M51.2,324.267H25.6c-4.719,0-8.533,3.823-8.533,8.533c0,4.71,3.814,8.533,8.533,8.533h25.6
				c4.719,0,8.533-3.823,8.533-8.533C59.733,328.09,55.919,324.267,51.2,324.267z"/>
			<path d="M226.75,246.787l3.652,2.551v40.798h17.067v-76.8h-17.067c-4.719,0-8.533-3.823-8.533-8.533
				c0-4.719,3.814-8.533,8.533-8.533h17.067v-17.067c0-4.719,3.814-8.533,8.533-8.533c4.71,0,8.533,3.814,8.533,8.533v17.067h17.067
				c4.71,0,8.533,3.814,8.533,8.533c0,4.71-3.823,8.533-8.533,8.533h-17.067v76.8h17.067v-40.798l3.644-2.551
				c13.747-9.6,21.956-25.301,21.956-41.984c0-28.237-22.972-51.2-51.2-51.2c-28.237,0-51.2,22.963-51.2,51.2
				C204.803,221.486,213.012,237.187,226.75,246.787z"/>
			<path d="M307.2,307.2h-8.533h-85.333H204.8c-4.71,0-8.533,3.831-8.533,8.533c0,4.702,3.823,8.533,8.533,8.533h102.4
				c4.71,0,8.533-3.831,8.533-8.533C315.733,311.031,311.91,307.2,307.2,307.2z"/>
			<rect x="221.867" y="341.333" width="68.267" height="17.067"/>
			<path d="M434.594,392.866l-20.71-269.193c-2.756-35.857-33.084-63.94-69.043-63.94H167.16c-35.959,0-66.287,28.083-69.043,63.94
				l-20.71,269.193c-9.993,1.604-17.673,10.214-17.673,20.642v77.517c0,11.563,9.412,20.975,20.975,20.975h38.758v-42.667
				c0-4.71,3.814-8.533,8.533-8.533s8.533,3.823,8.533,8.533V512h25.6v-42.667c0-4.71,3.814-8.533,8.533-8.533
				c4.719,0,8.533,3.823,8.533,8.533V512h25.6v-42.667c0-4.71,3.814-8.533,8.533-8.533s8.533,3.823,8.533,8.533V512h25.6v-42.667
				c0-4.71,3.814-8.533,8.533-8.533c4.719,0,8.533,3.823,8.533,8.533V512h25.6v-42.667c0-4.71,3.814-8.533,8.533-8.533
				c4.719,0,8.533,3.823,8.533,8.533V512h25.6v-42.667c0-4.71,3.814-8.533,8.533-8.533c4.719,0,8.533,3.823,8.533,8.533V512h25.6
				v-42.667c0-4.71,3.814-8.533,8.533-8.533s8.533,3.823,8.533,8.533V512h38.758c11.563,0,20.975-9.412,20.975-20.975v-77.517
				C452.267,403.081,444.587,394.47,434.594,392.866z M307.2,341.333V358.4h8.533c4.719,0,8.533,3.823,8.533,8.533
				s-3.814,8.533-8.533,8.533H307.2v17.067h-17.067v-17.067h-68.267v17.067H204.8v-17.067h-8.533c-4.719,0-8.533-3.823-8.533-8.533
				s3.814-8.533,8.533-8.533h8.533v-17.067c-14.114,0-25.6-11.486-25.6-25.6s11.486-25.6,25.6-25.6h8.533v-32.085
				c-16.111-12.928-25.6-32.512-25.6-53.248c0-37.641,30.626-68.267,68.267-68.267s68.267,30.626,68.267,68.267
				c0,20.736-9.489,40.32-25.6,53.248v32.085h8.533c14.114,0,25.6,11.486,25.6,25.6S321.314,341.333,307.2,341.333z"/>
		</g>
	</g>
</g>
<g>
</g>
<g>
</g>
<g>
</g>
<g>
</g>
<g>
</g>
<g>
</g>
<g>
</g>
<g>
</g>
<g>
</g>
<g>
</g>
<g>
</g>
<g>
</g>
<g>
</g>
<g>
</g>
<g>
</g>
</svg>
