<?xml version="1.0" encoding="iso-8859-1"?>
<!-- Generator: Adobe Illustrator 19.0.0, SVG Export Plug-In . SVG Version: 6.00 Build 0)  -->
<svg version="1.1" id="Layer_1" xmlns="http://www.w3.org/2000/svg" xmlns:xlink="http://www.w3.org/1999/xlink" x="0px" y="0px"
	 viewBox="0 0 511.999 511.999" style="enable-background:new 0 0 511.999 511.999;" xml:space="preserve">
<g>
	<g>
		<path d="M275.545,113.701V73.559h19.547c10.795,0,19.547-8.752,19.547-19.547s-8.752-19.547-19.547-19.547h-78.188
			c-10.795,0-19.547,8.752-19.547,19.547s8.752,19.547,19.547,19.547h19.546v40.142c-91.441,9.785-162.893,87.396-162.893,181.39
			c0,100.599,81.843,182.443,182.441,182.443c100.596-0.003,182.441-81.844,182.442-182.441
			C438.439,201.098,366.985,123.485,275.545,113.701z M340.678,314.722h-84.68c-10.795,0-19.547-8.753-19.547-19.547v-84.679
			c0-10.795,8.752-19.547,19.547-19.547c10.795,0,19.547,8.752,19.547,19.547v65.131h65.133c10.795,0,19.547,8.751,19.547,19.547
			C360.225,305.969,351.473,314.722,340.678,314.722z"/>
	</g>
</g>
<g>
	<g>
		<path d="M511.62,244.249c-13.58-68.281-52.936-127.185-110.82-165.862c-8.977-5.998-21.115-3.582-27.113,5.394
			c-5.998,8.977-3.584,21.115,5.392,27.113c49.202,32.876,82.655,82.943,94.198,140.982c1.851,9.302,10.016,15.737,19.151,15.737
			c1.264,0,2.546-0.124,3.833-0.379C506.85,265.128,513.725,254.837,511.62,244.249z"/>
	</g>
</g>
<g>
	<g>
		<path d="M138.313,83.781c-5.998-8.977-18.136-11.39-27.113-5.394c-57.883,38.677-97.24,97.581-110.821,165.862
			c-2.106,10.588,4.77,20.878,15.359,22.985c1.286,0.255,2.57,0.379,3.833,0.379c9.136,0,17.301-6.436,19.151-15.737
			c11.545-58.04,44.998-108.108,94.199-140.982C141.897,104.896,144.311,92.758,138.313,83.781z"/>
	</g>
</g>
<g>
</g>
<g>
</g>
<g>
</g>
<g>
</g>
<g>
</g>
<g>
</g>
<g>
</g>
<g>
</g>
<g>
</g>
<g>
</g>
<g>
</g>
<g>
</g>
<g>
</g>
<g>
</g>
<g>
</g>
</svg>
