<?xml version="1.0" encoding="iso-8859-1"?>
<!-- Generator: Adobe Illustrator 19.0.0, SVG Export Plug-In . SVG Version: 6.00 Build 0)  -->
<svg version="1.1" id="Layer_1" xmlns="http://www.w3.org/2000/svg" xmlns:xlink="http://www.w3.org/1999/xlink" x="0px" y="0px"
	 viewBox="0 0 512 512" style="enable-background:new 0 0 512 512;" xml:space="preserve">
<g>
	<g>
		<path d="M488.727,217.212h-7.758V100.849c0-47.053-38.281-85.333-85.333-85.333s-85.333,38.281-85.333,85.333v46.545
			c0,12.853,10.42,23.273,23.273,23.273c12.853,0,23.273-10.42,23.273-23.273v-46.545c0-21.388,17.4-38.788,38.788-38.788
			s38.788,17.4,38.788,38.788v116.364h-77.576v23.273v23.273v69.818c0,12.851-10.42,23.273-23.273,23.273H147.394
			c-12.853,0-23.273-10.422-23.273-23.273v-69.818v-23.273v-23.273H54.303h-31.03C10.42,217.212,0,227.631,0,240.485
			c0,12.853,10.42,23.273,23.273,23.273h7.758v100.849c0,47.597,33.154,87.569,77.576,98.105v10.501
			c0,12.853,10.42,23.273,23.273,23.273c12.853,0,23.273-10.42,23.273-23.273v-7.758h201.697v7.758
			c0,12.853,10.42,23.273,23.273,23.273s23.273-10.42,23.273-23.273v-10.501c44.421-10.536,77.576-50.51,77.576-98.105V263.758
			h7.758c12.853,0,23.273-10.42,23.273-23.273C512,227.631,501.58,217.212,488.727,217.212z"/>
	</g>
</g>
<g>
	<g>
		<polygon points="170.667,217.212 170.667,240.485 170.667,263.758 170.667,310.303 310.303,310.303 310.303,263.758 
			310.303,240.485 310.303,217.212 		"/>
	</g>
</g>
<g>
</g>
<g>
</g>
<g>
</g>
<g>
</g>
<g>
</g>
<g>
</g>
<g>
</g>
<g>
</g>
<g>
</g>
<g>
</g>
<g>
</g>
<g>
</g>
<g>
</g>
<g>
</g>
<g>
</g>
</svg>
