<?xml version="1.0" encoding="iso-8859-1"?>
<!-- Generator: Adobe Illustrator 19.0.0, SVG Export Plug-In . SVG Version: 6.00 Build 0)  -->
<svg version="1.1" id="Layer_1" xmlns="http://www.w3.org/2000/svg" xmlns:xlink="http://www.w3.org/1999/xlink" x="0px" y="0px"
	 viewBox="0 0 512 512" style="enable-background:new 0 0 512 512;" xml:space="preserve">
<g>
	<g>
		<path d="M8.533,324.267v93.867V486.4c0,14.136,11.462,25.6,25.6,25.6c14.138,0,25.6-11.464,25.6-25.6v-42.667h392.533V486.4
			c0,14.136,11.462,25.6,25.6,25.6c14.138,0,25.6-11.464,25.6-25.6v-68.267v-93.867H8.533z"/>
	</g>
</g>
<g>
	<g>
		<path d="M483.197,171.23H435.2H76.8H28.803c-11.58,2.454-20.27,12.727-20.27,25.037v76.8h494.933v-76.8
			C503.467,183.956,494.776,173.684,483.197,171.23z"/>
	</g>
</g>
<g>
	<g>
		<path d="M409.6,0C395.462,0,384,11.462,384,25.6v8.533H128V25.6C128,11.462,116.538,0,102.4,0C88.262,0,76.8,11.462,76.8,25.6
			v34.133v60.297h358.4V59.733V25.6C435.2,11.462,423.738,0,409.6,0z"/>
	</g>
</g>
<g>
</g>
<g>
</g>
<g>
</g>
<g>
</g>
<g>
</g>
<g>
</g>
<g>
</g>
<g>
</g>
<g>
</g>
<g>
</g>
<g>
</g>
<g>
</g>
<g>
</g>
<g>
</g>
<g>
</g>
</svg>
