<?xml version="1.0" encoding="iso-8859-1"?>
<!-- Generator: Adobe Illustrator 19.0.0, SVG Export Plug-In . SVG Version: 6.00 Build 0)  -->
<svg version="1.1" id="Layer_1" xmlns="http://www.w3.org/2000/svg" xmlns:xlink="http://www.w3.org/1999/xlink" x="0px" y="0px"
	 viewBox="0 0 512 512" style="enable-background:new 0 0 512 512;" xml:space="preserve">
<g>
	<g>
		<rect x="201.697" y="232.727" width="124.121" height="139.636"/>
	</g>
</g>
<g>
	<g>
		<path d="M449.939,94.442v-71.17C449.939,10.42,439.519,0,426.667,0H116.364C77.864,0,46.545,31.32,46.545,69.818v372.364
			c0,38.498,31.319,69.818,69.818,69.818h325.818c12.853,0,23.273-10.422,23.273-23.273V116.364
			C465.455,106.235,458.972,97.642,449.939,94.442z M372.364,395.636c0,12.851-10.42,23.273-23.273,23.273H178.424
			c-12.853,0-23.273-10.422-23.273-23.273V209.455c0-12.853,10.42-23.273,23.273-23.273h170.667
			c12.853,0,23.273,10.42,23.273,23.273V395.636z M403.394,93.091h-287.03c-12.834,0-23.273-10.44-23.273-23.273
			s10.439-23.273,23.273-23.273h287.03V93.091z"/>
	</g>
</g>
<g>
</g>
<g>
</g>
<g>
</g>
<g>
</g>
<g>
</g>
<g>
</g>
<g>
</g>
<g>
</g>
<g>
</g>
<g>
</g>
<g>
</g>
<g>
</g>
<g>
</g>
<g>
</g>
<g>
</g>
</svg>
