<?xml version="1.0" encoding="iso-8859-1"?>
<!-- Generator: Adobe Illustrator 19.0.0, SVG Export Plug-In . SVG Version: 6.00 Build 0)  -->
<svg version="1.1" id="Layer_1" xmlns="http://www.w3.org/2000/svg" xmlns:xlink="http://www.w3.org/1999/xlink" x="0px" y="0px"
	 viewBox="0 0 512 512" style="enable-background:new 0 0 512 512;" xml:space="preserve">
<g>
	<g>
		<path d="M139.636,248.228V77.562H46.545V23.287c0-12.853-10.42-23.273-23.273-23.273C10.42,0.014,0,10.434,0,23.287v465.427
			c0,12.853,10.42,23.273,23.273,23.273c12.853,0,23.273-10.42,23.273-23.273v-23.273h93.091V294.774H46.545v-46.545H139.636z"/>
	</g>
</g>
<g>
	<g>
		<path d="M488.727,46.531c-12.853,0-23.273,10.42-23.273,23.273v7.758H186.182v170.667h279.273v46.545H186.182v170.667h279.273
			v23.273c0,12.853,10.42,23.273,23.273,23.273c12.853,0,23.273-10.42,23.273-23.273V69.804
			C512,56.951,501.58,46.531,488.727,46.531z"/>
	</g>
</g>
<g>
</g>
<g>
</g>
<g>
</g>
<g>
</g>
<g>
</g>
<g>
</g>
<g>
</g>
<g>
</g>
<g>
</g>
<g>
</g>
<g>
</g>
<g>
</g>
<g>
</g>
<g>
</g>
<g>
</g>
</svg>
