<?xml version="1.0" encoding="iso-8859-1"?>
<!-- Generator: Adobe Illustrator 19.0.0, SVG Export Plug-In . SVG Version: 6.00 Build 0)  -->
<svg version="1.1" id="Layer_1" xmlns="http://www.w3.org/2000/svg" xmlns:xlink="http://www.w3.org/1999/xlink" x="0px" y="0px"
	 viewBox="0 0 512 512" style="enable-background:new 0 0 512 512;" xml:space="preserve">
<g>
	<g>
		<path d="M435.2,102.4h-8.533V25.6c0-14.138-11.462-25.6-25.6-25.6H110.933c-14.138,0-25.6,11.462-25.6,25.6v76.8H76.8
			c-14.138,0-25.6,11.462-25.6,25.6s11.462,25.6,25.6,25.6h9.723h338.953h9.725c14.138,0,25.6-11.462,25.6-25.6
			S449.338,102.4,435.2,102.4z"/>
	</g>
</g>
<g>
	<g>
		<polygon points="88.962,204.8 92.211,273.067 419.789,273.067 423.038,204.8 		"/>
	</g>
</g>
<g>
	<g>
		<path d="M94.65,324.267l7.779,163.35C103.078,501.267,114.335,512,128,512h256c13.665,0,24.921-10.733,25.571-24.383l7.779-163.35
			H94.65z"/>
	</g>
</g>
<g>
</g>
<g>
</g>
<g>
</g>
<g>
</g>
<g>
</g>
<g>
</g>
<g>
</g>
<g>
</g>
<g>
</g>
<g>
</g>
<g>
</g>
<g>
</g>
<g>
</g>
<g>
</g>
<g>
</g>
</svg>
