<?xml version="1.0" encoding="iso-8859-1"?>
<!-- Generator: Adobe Illustrator 19.0.0, SVG Export Plug-In . SVG Version: 6.00 Build 0)  -->
<svg version="1.1" id="Layer_1" xmlns="http://www.w3.org/2000/svg" xmlns:xlink="http://www.w3.org/1999/xlink" x="0px" y="0px"
	 viewBox="0 0 512 512" style="enable-background:new 0 0 512 512;" xml:space="preserve">
<g>
	<g>
		<path d="M437.034,74.97C388.692,26.63,324.406,0.006,256.015,0.006c-68.395,0-132.692,26.628-181.041,74.979
			C26.707,123.25,0.098,187.413,0.016,255.686c0,0.107-0.016,0.209-0.016,0.317c0,0.107,0.016,0.209,0.016,0.317
			c0.082,68.273,26.695,132.44,74.962,180.709c48.343,48.343,112.631,74.966,181.022,74.966c68.388,0,132.676-26.622,181.019-74.963
			c48.349-48.349,74.979-112.642,74.982-181.033C512.002,187.605,485.379,123.315,437.034,74.97z M92.344,386.747
			c-24.835-30.97-40.164-67.994-44.499-107.467l94.217,0.005c2.912,14.348,8.524,28.251,16.87,40.875L92.344,386.747z
			 M305.377,305.414c-13.173,13.171-30.687,20.427-49.317,20.427c-18.645,0-36.181-7.263-49.379-20.45
			c-0.012-0.012-0.022-0.025-0.033-0.036c-0.009-0.009-0.019-0.016-0.028-0.025c-27.185-27.232-27.193-71.485,0-98.675
			c13.19-13.193,30.726-20.458,49.375-20.458c18.652,0,36.186,7.265,49.379,20.456c13.185,13.184,20.451,30.711,20.459,49.35
			c0,0.006,0,0.012,0,0.019c0,0.008,0.002,0.016,0.002,0.023C325.831,274.694,318.565,292.224,305.377,305.414z M370.056,232.744
			c-2.957-14.633-8.698-28.484-16.96-40.922l66.572-66.571c24.839,30.974,40.172,68.006,44.503,107.485L370.056,232.744z"/>
	</g>
</g>
<g>
	<g>
		<path d="M272.463,239.537c-4.346-4.329-10.334-6.811-16.462-6.811s-12.133,2.483-16.462,6.811s-6.811,10.334-6.811,16.462
			c0,6.129,2.483,12.132,6.811,16.462c4.346,4.329,10.334,6.811,16.462,6.811s12.118-2.484,16.462-6.811
			c4.329-4.346,6.811-10.334,6.811-16.462C279.275,249.87,276.792,243.881,272.463,239.537z"/>
	</g>
</g>
<g>
</g>
<g>
</g>
<g>
</g>
<g>
</g>
<g>
</g>
<g>
</g>
<g>
</g>
<g>
</g>
<g>
</g>
<g>
</g>
<g>
</g>
<g>
</g>
<g>
</g>
<g>
</g>
<g>
</g>
</svg>
