<?xml version="1.0" encoding="iso-8859-1"?>
<!-- Generator: Adobe Illustrator 19.0.0, SVG Export Plug-In . SVG Version: 6.00 Build 0)  -->
<svg version="1.1" id="Layer_1" xmlns="http://www.w3.org/2000/svg" xmlns:xlink="http://www.w3.org/1999/xlink" x="0px" y="0px"
	 viewBox="0 0 512 512" style="enable-background:new 0 0 512 512;" xml:space="preserve">
<g>
	<g>
		<path d="M256,0C157.617,0,77.576,80.041,77.576,178.424v258.583c0,41.349,33.642,74.992,74.991,74.992
			c20.038,0,38.251-7.916,51.717-20.766C217.749,504.084,235.962,512,256,512c20.038,0,38.251-7.916,51.717-20.766
			c13.467,12.85,31.68,20.766,51.718,20.766c41.349,0,74.989-33.643,74.989-74.992V178.424C434.424,80.041,354.383,0,256,0z
			 M209.454,201.697h-15.515c-12.853,0-23.273-10.42-23.273-23.273s10.42-23.273,23.273-23.273h15.515
			c12.853,0,23.273,10.42,23.273,23.273S222.307,201.697,209.454,201.697z M279.273,279.273c0,12.851-10.42,23.273-23.273,23.273
			c-12.853,0-23.273-10.422-23.273-23.273v-15.515c0-12.853,10.42-23.273,23.273-23.273c12.853,0,23.273,10.42,23.273,23.273
			V279.273z M318.061,201.697h-15.515c-12.853,0-23.273-10.42-23.273-23.273s10.42-23.273,23.273-23.273h15.515
			c12.853,0,23.273,10.42,23.273,23.273S330.913,201.697,318.061,201.697z"/>
	</g>
</g>
<g>
</g>
<g>
</g>
<g>
</g>
<g>
</g>
<g>
</g>
<g>
</g>
<g>
</g>
<g>
</g>
<g>
</g>
<g>
</g>
<g>
</g>
<g>
</g>
<g>
</g>
<g>
</g>
<g>
</g>
</svg>
