<?xml version="1.0" encoding="iso-8859-1"?>
<!-- Generator: Adobe Illustrator 19.0.0, SVG Export Plug-In . SVG Version: 6.00 Build 0)  -->
<svg version="1.1" id="Layer_1" xmlns="http://www.w3.org/2000/svg" xmlns:xlink="http://www.w3.org/1999/xlink" x="0px" y="0px"
	 viewBox="0 0 512 512" style="enable-background:new 0 0 512 512;" xml:space="preserve">
<g>
	<g>
		<path d="M364.278,419.19H348.81h-7.734H256h-85.076h-7.734h-15.468H124.52v69.607c0,12.814,10.388,23.202,23.202,23.202h216.556
			c12.814,0,23.202-10.388,23.202-23.202V419.19H364.278z"/>
	</g>
</g>
<g>
	<g>
		<path d="M256,0C153.649,0,70.381,83.269,70.381,185.619c0,56.49,25.809,109.777,69.607,144.888v42.278h7.734h15.468h23.202h46.405
			V262.961h-23.202c-12.814,0-23.202-10.389-23.202-23.202s10.388-23.202,23.202-23.202H256h46.405
			c12.814,0,23.202,10.388,23.202,23.202s-10.388,23.202-23.202,23.202h-23.202v109.825h46.405h23.202h15.468h7.734v-42.278
			c43.798-35.112,69.607-88.398,69.607-144.888C441.619,83.269,358.351,0,256,0z"/>
	</g>
</g>
<g>
</g>
<g>
</g>
<g>
</g>
<g>
</g>
<g>
</g>
<g>
</g>
<g>
</g>
<g>
</g>
<g>
</g>
<g>
</g>
<g>
</g>
<g>
</g>
<g>
</g>
<g>
</g>
<g>
</g>
</svg>
