<?xml version="1.0" encoding="iso-8859-1"?>
<!-- Generator: Adobe Illustrator 19.0.0, SVG Export Plug-In . SVG Version: 6.00 Build 0)  -->
<svg version="1.1" id="Layer_1" xmlns="http://www.w3.org/2000/svg" xmlns:xlink="http://www.w3.org/1999/xlink" x="0px" y="0px"
	 viewBox="0 0 512 512" style="enable-background:new 0 0 512 512;" xml:space="preserve">
<g>
	<g>
		<path d="M376.543,96.074c-11.163-11.16-26.004-17.306-41.795-17.304c-32.561-0.003-59.051,26.501-59.055,59.08
			c0,0.205-0.025,0.404-0.03,0.608v38.774c0,10.875-8.817,19.692-19.692,19.692c-10.875,0-19.692-8.817-19.692-19.692v-39.385
			c0-0.139,0.018-0.274,0.021-0.412c-0.105-15.624-6.233-30.299-17.294-41.36C207.841,84.913,193,78.768,177.209,78.769
			c-32.559-0.003-59.051,26.501-59.055,59.078c0.001,76.008,61.839,137.845,137.847,137.845s137.845-61.836,137.845-137.846
			c0-0.003,0-0.005,0-0.007C393.846,122.062,387.699,107.231,376.543,96.074z M191.153,151.759
			c-3.663,3.663-8.743,5.763-13.929,5.763c-5.184,0-10.253-2.101-13.916-5.763c-3.663-3.663-5.776-8.743-5.776-13.929
			c-0.001-5.184,2.114-10.265,5.776-13.928c3.663-3.663,8.73-5.765,13.916-5.765s10.266,2.102,13.929,5.765
			c3.663,3.676,5.776,8.743,5.776,13.928C196.929,143.016,194.816,148.085,191.153,151.759z M348.691,151.759
			c-3.663,3.663-8.743,5.763-13.929,5.763c-5.171,0-10.253-2.101-13.916-5.763c-3.663-3.663-5.776-8.743-5.776-13.929
			c-0.001-5.184,2.114-10.265,5.776-13.928c3.663-3.663,8.73-5.765,13.916-5.765s10.266,2.102,13.929,5.765
			c3.663,3.676,5.763,8.743,5.763,13.928C354.455,143.016,352.354,148.085,348.691,151.759z"/>
	</g>
</g>
<g>
	<g>
		<path d="M256.002,0c-38.464,0-73.293,15.842-98.324,41.337c6.313-1.277,12.839-1.952,19.523-1.952c0.005,0,0.01,0,0.016,0
			c26.305,0,51.033,10.241,69.633,28.839c3.336,3.335,6.391,6.873,9.178,10.577c17.976-23.917,46.568-39.416,78.711-39.416
			c0.005,0,0.01,0,0.016,0c6.642,0,13.181,0.656,19.548,1.932C329.276,15.834,294.456,0,256.002,0z"/>
	</g>
</g>
<g>
	<g>
		<path d="M256.002,315.077c-55.62,0-105.329-25.763-137.847-65.972v105.356c0,43.433,35.336,78.769,78.769,78.769h196.923V249.105
			C361.329,289.315,311.621,315.077,256.002,315.077z"/>
	</g>
</g>
<g>
	<g>
		<path d="M81.757,15.6c-9.51-5.278-21.497-1.842-26.772,7.669c-5.276,9.51-1.842,21.496,7.669,26.772l30.843,17.107
			c5.304-12.14,11.923-23.573,19.684-34.12L81.757,15.6z"/>
	</g>
</g>
<g>
	<g>
		<path d="M457.016,23.268c-5.275-9.511-17.26-12.944-26.772-7.669l-31.425,17.429c7.761,10.547,14.382,21.981,19.683,34.119
			l30.845-17.106C458.858,44.765,462.291,32.78,457.016,23.268z"/>
	</g>
</g>
<g>
	<g>
		<path d="M196.924,472.615c-4.437,0-8.817-0.255-13.128-0.734v20.426c0,10.874,8.817,19.692,19.692,19.692
			s19.692-8.818,19.692-19.692v-19.692H196.924z"/>
	</g>
</g>
<g>
	<g>
		<path d="M288.821,472.615v19.692c0,10.874,8.817,19.692,19.692,19.692c10.875,0,19.692-8.818,19.692-19.692v-19.692H288.821z"/>
	</g>
</g>
<g>
</g>
<g>
</g>
<g>
</g>
<g>
</g>
<g>
</g>
<g>
</g>
<g>
</g>
<g>
</g>
<g>
</g>
<g>
</g>
<g>
</g>
<g>
</g>
<g>
</g>
<g>
</g>
<g>
</g>
</svg>
