<?xml version="1.0" encoding="iso-8859-1"?>
<!-- Generator: Adobe Illustrator 19.0.0, SVG Export Plug-In . SVG Version: 6.00 Build 0)  -->
<svg version="1.1" id="Layer_1" xmlns="http://www.w3.org/2000/svg" xmlns:xlink="http://www.w3.org/1999/xlink" x="0px" y="0px"
	 viewBox="0 0 512 512" style="enable-background:new 0 0 512 512;" xml:space="preserve">
<g>
	<g>
		<path d="M488.727,31.052H358.8l-9.573,23.273l-9.574,23.273l-57.38,139.478v217.327v23.273v23.273h113.363
			c12.853,0,23.273-10.422,23.273-23.273V201.674h69.818c12.853,0,23.273-10.42,23.273-23.273V54.325
			C512,41.472,501.58,31.052,488.727,31.052z"/>
	</g>
</g>
<g>
	<g>
		<path d="M178.35,77.597l-9.576-23.273l-9.573-23.273H23.273C10.42,31.052,0,41.472,0,54.325v124.078
			c0,12.853,10.42,23.271,23.273,23.271h69.818v256.002c0,12.851,10.42,23.273,23.273,23.273h119.364v-23.273v-23.273V217.076
			L178.35,77.597z"/>
	</g>
</g>
<g>
	<g>
		<polygon points="209.531,31.052 219.103,54.325 228.679,77.597 259.001,151.305 289.322,77.597 298.896,54.325 308.469,31.052 		
			"/>
	</g>
</g>
<g>
</g>
<g>
</g>
<g>
</g>
<g>
</g>
<g>
</g>
<g>
</g>
<g>
</g>
<g>
</g>
<g>
</g>
<g>
</g>
<g>
</g>
<g>
</g>
<g>
</g>
<g>
</g>
<g>
</g>
</svg>
