<?xml version="1.0" encoding="iso-8859-1"?>
<!-- Generator: Adobe Illustrator 19.0.0, SVG Export Plug-In . SVG Version: 6.00 Build 0)  -->
<svg version="1.1" id="Layer_1" xmlns="http://www.w3.org/2000/svg" xmlns:xlink="http://www.w3.org/1999/xlink" x="0px" y="0px"
	 viewBox="0 0 512 512" style="enable-background:new 0 0 512 512;" xml:space="preserve">
<g>
	<g>
		<path d="M512,175.612V76.056c0-11.782-9.552-21.333-21.333-21.333H184.889v7.111v14.222V97.39v96.592v21.514v21.514l61.133-7.974
			c-20.443,25.555-32.688,57.937-32.688,93.131c0,82.341,66.99,149.333,149.333,149.333S512,404.507,512,322.166
			c0-49.081-23.802-92.7-60.467-119.937l41.893-5.464C504.051,195.379,512,186.327,512,175.612z M469.333,322.166
			c0,58.815-47.851,106.667-106.667,106.667C303.851,428.833,256,380.981,256,322.166c0-58.816,47.851-106.667,106.667-106.667
			S469.333,263.35,469.333,322.166z"/>
	</g>
</g>
<g>
	<g>
		<path d="M91.021,40.501c-0.627,0-1.247,0.026-1.862,0.08c-23.764,0.832-45.975,10.604-62.683,27.615
			C9.402,85.578,0,108.574,0,132.945v42.667c0,24.37,9.402,47.364,26.476,64.748c16.713,17.017,38.933,26.79,62.706,27.617
			c0.606,0.051,1.219,0.08,1.839,0.08h51.201v-21.333V225.39v-7.111V83.167v-7.111V61.834V40.501H91.021z"/>
	</g>
</g>
<g>
	<g>
		<path d="M362.667,258.166c-35.291,0-64,28.71-64,64c0,35.29,28.709,64,64,64s64-28.712,64-64
			C426.667,286.876,397.958,258.166,362.667,258.166z M362.667,343.499c-11.763,0-21.333-9.572-21.333-21.333
			c0-11.763,9.57-21.333,21.333-21.333c11.765,0,21.333,9.57,21.333,21.333C384,333.929,374.431,343.499,362.667,343.499z"/>
	</g>
</g>
<g>
</g>
<g>
</g>
<g>
</g>
<g>
</g>
<g>
</g>
<g>
</g>
<g>
</g>
<g>
</g>
<g>
</g>
<g>
</g>
<g>
</g>
<g>
</g>
<g>
</g>
<g>
</g>
<g>
</g>
</svg>
