<?xml version="1.0" encoding="iso-8859-1"?>
<!-- Generator: Adobe Illustrator 19.0.0, SVG Export Plug-In . SVG Version: 6.00 Build 0)  -->
<svg version="1.1" id="Layer_1" xmlns="http://www.w3.org/2000/svg" xmlns:xlink="http://www.w3.org/1999/xlink" x="0px" y="0px"
	 viewBox="0 0 512 512" style="enable-background:new 0 0 512 512;" xml:space="preserve">
<g>
	<g>
		<path d="M93.091,387.879v100.849c0,12.853,10.42,23.273,23.273,23.273h279.273c12.853,0,23.273-10.42,23.273-23.273V387.879
			H93.091z"/>
	</g>
</g>
<g>
	<g>
		<path d="M395.636,0H116.364c-12.853,0-23.273,10.42-23.273,23.273v318.061h325.818V23.273C418.909,10.42,408.489,0,395.636,0z
			 M302.545,263.758h-93.091c-9.413,0-17.898-5.669-21.501-14.367c-3.601-8.696-1.61-18.707,5.046-25.363l53.361-53.361h-36.906
			c-12.853,0-23.273-10.42-23.273-23.273c0-12.853,10.42-23.273,23.273-23.273h93.091c9.413,0,17.898,5.669,21.501,14.367
			c3.601,8.696,1.61,18.707-5.046,25.363l-53.361,53.361h36.906c12.853,0,23.273,10.42,23.273,23.273
			C325.818,253.338,315.398,263.758,302.545,263.758z"/>
	</g>
</g>
<g>
</g>
<g>
</g>
<g>
</g>
<g>
</g>
<g>
</g>
<g>
</g>
<g>
</g>
<g>
</g>
<g>
</g>
<g>
</g>
<g>
</g>
<g>
</g>
<g>
</g>
<g>
</g>
<g>
</g>
</svg>
