<?xml version="1.0" encoding="iso-8859-1"?>
<!-- Generator: Adobe Illustrator 19.0.0, SVG Export Plug-In . SVG Version: 6.00 Build 0)  -->
<svg xmlns="http://www.w3.org/2000/svg" xmlns:xlink="http://www.w3.org/1999/xlink" version="1.1" id="Capa_1" x="0px" y="0px" viewBox="0 0 512 512" style="enable-background:new 0 0 512 512;" xml:space="preserve">
<g>
	<g>
		<path d="M217.082,109.443c-17.414-17.414-41.3-24.203-63.969-20.888c0.527-3.61,1.068-7.222,1.068-10.936    c-0.001-20.045-7.811-38.888-21.979-53.041c-5.86-5.86-15.356-5.86-21.216,0L89.77,45.795c-29.32,29.289-29.32,76.791,0,106.081    c29.289,29.319,76.791,29.319,106.081,0l21.231-21.216C222.939,124.802,222.939,115.301,217.082,109.443z"/>
	</g>
</g>
<g>
	<g>
		<path d="M261.757,192.887c-5.597-2.359-12.044-1.04-16.352,3.253l-30.007,30.007c-5.86,5.86-5.86,15.356,0,21.216    s15.356,5.86,21.216,0l4.396-4.396v53.802c0,8.293,6.711,15.004,15.004,15.004s14.989-6.711,14.989-15.004v-90.022    C271.002,200.682,267.368,195.201,261.757,192.887z"/>
	</g>
</g>
<g>
	<g>
		<path d="M422.256,45.795l-21.217-21.216c-5.86-5.86-15.356-5.86-21.216,0c-14.169,14.154-21.978,32.996-21.978,53.04    c0,3.714,0.54,7.326,1.068,10.934c-22.677-3.315-46.567,3.489-63.969,20.89c-5.857,5.857-5.857,15.359,0,21.216l21.231,21.216    c29.289,29.319,76.791,29.319,106.081,0c14.168-14.153,21.978-32.996,21.978-53.04S436.424,59.948,422.256,45.795z"/>
	</g>
</g>
<g>
	<g>
		<path d="M466.743,367.159c-21.258,7.917-42.762,8.721-63.594,3.163c-27.121-7.268-49.758-24.645-63.795-48.952    c-2.793-4.831-4.862-9.923-6.834-15.033c-10.881,13.329-17.108,29.67-17.108,47.12c0,20.044,7.81,38.887,21.978,53.04    c29.289,29.319,76.791,29.319,106.081,0l21.216-21.216C469.635,380.335,470.147,372.914,466.743,367.159z"/>
	</g>
</g>
<g>
	<g>
		<path d="M503.193,242.527c-20.879,25.265-50.533,38.168-80.645,38.168c-24.701,0-47.726-8.815-65.974-23.595    c-6.469,40.207,18.892,74.732,54.311,84.226c40.326,10.766,81.253-13.432,91.882-53.055l8.793-28.982    C513.222,253.075,510.119,246.379,503.193,242.527z"/>
	</g>
</g>
<g>
	<g>
		<path d="M495.004,156.241l-7.766-28.982c-1.646-6.161-6.792-10.978-14.713-10.854c-3.588,21.362-13.436,41.09-29.068,56.7    c-22.81,22.844-54.939,34.805-90.793,29.138c11.161,29.348,39.242,48.445,69.885,48.445    C471.988,250.688,507.681,203.596,495.004,156.241z"/>
	</g>
</g>
<g>
	<g>
		<path d="M179.504,306.337c-13.08,33.914-39.579,55.665-70.599,63.971c-20.648,5.525-42.179,4.839-63.623-3.147    c-3.405,5.754-2.892,13.174,2.055,18.12l21.216,21.216c29.289,29.319,76.791,29.319,106.081,0    c14.168-14.153,21.978-32.996,21.978-53.04C196.613,336.007,190.385,319.666,179.504,306.337z"/>
	</g>
</g>
<g>
	<g>
		<path d="M155.453,257.109c-25.839,20.921-59.94,28.894-93.171,19.996c-21.829-5.853-40.046-18.344-53.456-34.576    c-6.914,3.841-10.048,10.559-8.39,16.76l8.821,28.982c10.634,39.64,51.565,63.82,91.882,53.055    C136.542,331.838,161.918,297.316,155.453,257.109z"/>
	</g>
</g>
<g>
	<g>
		<path d="M68.539,173.076c-15.608-15.586-25.45-35.308-29.038-56.67c-7.921-0.125-13.068,4.692-14.713,10.854l-7.766,28.982    c-10.698,39.956,13.099,81.172,53.055,91.882c37.397,10.068,75.763-10.274,89.288-45.881    C123.585,207.895,91.438,196.011,68.539,173.076z"/>
	</g>
</g>
<g>
	<g>
		<path d="M323.137,466.205l-7.724-7.722c-9.399-9.399-20.26-17.754-31.771-25.624c8.582-3.557,17.456-6.894,26.863-9.818    c0.472-0.146,0.916-0.377,1.388-0.527c-6.903-7.828-12.641-16.405-16.877-25.718c-15.238,5.071-25.683,11.216-39.002,17.859    c-13.318-6.643-23.766-12.787-39.005-17.859c-4.236,9.311-9.974,17.884-16.879,25.716c0.472,0.152,0.917,0.381,1.392,0.529    c9.406,2.925,18.28,6.262,26.863,9.818c-11.511,7.87-22.371,16.225-31.771,25.624l-7.722,7.722c-5.86,5.86-5.86,15.356,0,21.216    c5.861,5.861,15.355,5.861,21.216,0l7.722-7.722c11.859-11.859,22.368-22.335,38.185-31.533    c15.817,9.198,26.324,19.674,38.183,31.533l7.722,7.722c5.861,5.861,15.355,5.861,21.216,0    C328.997,481.56,328.997,472.065,323.137,466.205z"/>
	</g>
</g>
<g>
</g>
<g>
</g>
<g>
</g>
<g>
</g>
<g>
</g>
<g>
</g>
<g>
</g>
<g>
</g>
<g>
</g>
<g>
</g>
<g>
</g>
<g>
</g>
<g>
</g>
<g>
</g>
<g>
</g>
</svg>
