<?xml version="1.0" encoding="iso-8859-1"?>
<!-- Generator: Adobe Illustrator 19.0.0, SVG Export Plug-In . SVG Version: 6.00 Build 0)  -->
<svg xmlns="http://www.w3.org/2000/svg" xmlns:xlink="http://www.w3.org/1999/xlink" version="1.1" id="Capa_1" x="0px" y="0px" viewBox="0 0 512 512" style="enable-background:new 0 0 512 512;" xml:space="preserve">
<g>
	<g>
		<path d="M121,0C98.456,0,0,2.168,0,45s98.456,45,121,45s120-2.168,120-45C241,2.168,143.544,0,121,0z"/>
	</g>
</g>
<g>
	<g>
		<path d="M121,120C81.607,120,0,114.073,0,75v30c0,42.9,98.5,45,121,45s120-2.1,120-45V75C241,114.082,160.353,120,121,120z"/>
	</g>
</g>
<g>
	<g>
		<path d="M121,180c-39.393,0-121-5.927-121-45v30c0,42.9,98.5,45,121,45s120-2.1,120-45v-30C241,174.082,160.353,180,121,180z"/>
	</g>
</g>
<g>
	<g>
		<path d="M391,60c-22.544,0-120,2.168-120,45c0,42.832,97.456,45,120,45s121-2.168,121-45C512,62.168,413.544,60,391,60z"/>
	</g>
</g>
<g>
	<g>
		<path d="M391,180c-39.393,0-120-5.927-120-45v30c0,42.9,97.5,45,120,45s121-2.1,121-45v-30C512,174.082,430.353,180,391,180z"/>
	</g>
</g>
<g>
	<g>
		<path d="M0,301v42.87c4.823,1.252,9.791,2.13,15,2.13c27.881,0,52.163-19.193,58.87-45H0z"/>
	</g>
</g>
<g>
	<g>
		<path d="M15,467c-5.209,0-10.177,0.877-15,2.13V497c0,8.291,6.709,15,15,15h58.87C67.163,486.193,42.881,467,15,467z"/>
	</g>
</g>
<g>
	<g>
		<path d="M497,376c-44.493,0-82.292-32.523-89.484-75c-115.796,0-189.591,0-303.032,0C97.292,343.477,59.493,376,15,376    c-5.136,0-10.096-0.685-15-1.516v64.032C4.904,437.685,9.864,437,15,437c44.493,0,82.292,32.523,89.484,75h303.032    c7.192-42.477,44.991-75,89.484-75c5.136,0,10.096,0.685,15,1.516v-64.032C507.096,375.315,502.136,376,497,376z M136,421    c-8.284,0-15-6.716-15-15c0-8.286,6.716-15,15-15s15,6.714,15,15C151,414.284,144.284,421,136,421z M256,482    c-41.353,0-75-34.647-75-76c0-41.353,33.647-75,75-75c41.353,0,75,33.647,75,75C331,447.353,297.353,482,256,482z M376,421    c-8.284,0-15-6.716-15-15c0-8.286,6.716-15,15-15s15,6.714,15,15C391,414.284,384.284,421,376,421z"/>
	</g>
</g>
<g>
	<g>
		<path d="M497,467c-27.881,0-52.163,19.193-58.87,45H497c8.291,0,15-6.709,15-15v-27.87C507.177,467.878,502.209,467,497,467z"/>
	</g>
</g>
<g>
	<g>
		<path d="M497,210H391h-90c0,21.91,0,39.727,0,61c74.758,0,132.118,0,211,0v-46C512,216.709,505.291,210,497,210z"/>
	</g>
</g>
<g>
	<g>
		<path d="M256,361c-24.814,0-45,20.186-45,45c0,24.814,20.186,46,45,46c24.814,0,45-21.186,45-46C301,381.186,280.814,361,256,361z    "/>
	</g>
</g>
<g>
	<g>
		<path d="M241,210c0,21.91,0,39.727,0,61h30c0-21.273,0-39.09,0-61H241z"/>
	</g>
</g>
<g>
	<g>
		<path d="M121,210H15c-8.291,0-15,6.709-15,15v46c42.892,0,168.899,0,211,0c0-21.273,0-39.09,0-61H121z"/>
	</g>
</g>
<g>
	<g>
		<path d="M438.13,301c6.707,25.807,30.989,45,58.87,45c5.209,0,10.177-0.877,15-2.13V301H438.13z"/>
	</g>
</g>
<g>
</g>
<g>
</g>
<g>
</g>
<g>
</g>
<g>
</g>
<g>
</g>
<g>
</g>
<g>
</g>
<g>
</g>
<g>
</g>
<g>
</g>
<g>
</g>
<g>
</g>
<g>
</g>
<g>
</g>
</svg>
