<?xml version="1.0" encoding="iso-8859-1"?>
<!-- Generator: Adobe Illustrator 19.0.0, SVG Export Plug-In . SVG Version: 6.00 Build 0)  -->
<svg xmlns="http://www.w3.org/2000/svg" xmlns:xlink="http://www.w3.org/1999/xlink" version="1.1" id="Capa_1" x="0px" y="0px" viewBox="0 0 512 512" style="enable-background:new 0 0 512 512;" xml:space="preserve">
<g>
	<g>
		<path d="M60.011,393.921V208.889l-29.886-15.015l-0.114,199.733c-17.681,6.07-30,22.678-30,42.393v61c0,8.291,6.709,15,15,15h60    c8.291,0,15-6.709,15-15v-61C90.011,416.657,77.173,400.269,60.011,393.921z"/>
	</g>
</g>
<g>
	<g>
		<path d="M503.72,122.582l-241-121c-4.219-2.109-9.199-2.109-13.418,0l-241,121c-5.083,2.549-8.291,7.734-8.291,13.418    s4.208,10.869,9.291,13.418l240,120c4.219,2.109,9.199,2.109,13.418,0l241-120C514.745,143.89,514.745,128.11,503.72,122.582z"/>
	</g>
</g>
<g>
	<g>
		<path d="M276.138,296.254c-6.211,3.105-13.169,4.746-20.127,4.746s-13.916-1.641-20.127-4.746L91.011,223.817V256    c0,58.872,72.48,105,165,105s165-46.128,165-105v-32.183L276.138,296.254z"/>
	</g>
</g>
<g>
</g>
<g>
</g>
<g>
</g>
<g>
</g>
<g>
</g>
<g>
</g>
<g>
</g>
<g>
</g>
<g>
</g>
<g>
</g>
<g>
</g>
<g>
</g>
<g>
</g>
<g>
</g>
<g>
</g>
</svg>
