<?xml version="1.0" encoding="iso-8859-1"?>
<!-- Generator: Adobe Illustrator 19.0.0, SVG Export Plug-In . SVG Version: 6.00 Build 0)  -->
<svg xmlns="http://www.w3.org/2000/svg" xmlns:xlink="http://www.w3.org/1999/xlink" version="1.1" id="Capa_1" x="0px" y="0px" viewBox="0 0 512 512" style="enable-background:new 0 0 512 512;" xml:space="preserve">
<g>
	<g>
		<path d="M256,31c-8.291,0-15,6.709-15,15v30c0,8.291,6.709,15,15,15s15-6.709,15-15V46C271,37.709,264.291,31,256,31z"/>
	</g>
</g>
<g>
	<g>
		<path d="M160.536,109.325l-21.211-21.211c-5.859-5.859-15.352-5.859-21.211,0s-5.859,15.352,0,21.211l21.211,21.211    c5.859,5.859,15.352,5.859,21.211,0C166.395,124.677,166.395,115.184,160.536,109.325z"/>
	</g>
</g>
<g>
	<g>
		<path d="M106,211H76c-8.291,0-15,6.709-15,15s6.709,15,15,15h30c8.291,0,15-6.709,15-15S114.291,211,106,211z"/>
	</g>
</g>
<g>
	<g>
		<path d="M436,211h-30c-8.291,0-15,6.709-15,15s6.709,15,15,15h30c8.291,0,15-6.709,15-15S444.291,211,436,211z"/>
	</g>
</g>
<g>
	<g>
		<path d="M393.886,88.114c-5.859-5.859-15.352-5.859-21.211,0l-21.211,21.211c-5.859,5.859-5.859,15.352,0,21.211    c5.859,5.859,15.352,5.859,21.211,0l21.211-21.211C399.745,103.466,399.745,93.973,393.886,88.114z"/>
	</g>
</g>
<g>
	<g>
		<path d="M240.703,463.057l-31.522-100.523C203.297,343.77,185.909,331,166.243,331H74.756c-19.666,0-37.053,12.77-42.938,31.534    L0.296,463.057C-1.56,472.339,5.539,481,15.005,481h210.989C235.461,481,242.56,472.339,240.703,463.057z"/>
	</g>
</g>
<g>
	<g>
		<path d="M511.703,463.057l-31.522-100.523C474.297,343.77,456.909,331,437.243,331h-91.487c-19.666,0-37.053,12.77-42.938,31.534    l-31.522,100.523C269.44,472.339,276.539,481,286.005,481h210.989C506.461,481,513.56,472.339,511.703,463.057z"/>
	</g>
</g>
<g>
	<g>
		<path d="M375.703,283.057l-31.522-100.523C338.297,163.77,320.909,151,301.243,151h-90.487c-19.665,0-37.053,12.77-42.938,31.534    l-31.522,100.523C134.44,292.339,141.539,301,151.005,301h209.989C370.461,301,377.56,292.339,375.703,283.057z"/>
	</g>
</g>
<g>
</g>
<g>
</g>
<g>
</g>
<g>
</g>
<g>
</g>
<g>
</g>
<g>
</g>
<g>
</g>
<g>
</g>
<g>
</g>
<g>
</g>
<g>
</g>
<g>
</g>
<g>
</g>
<g>
</g>
</svg>
