<?xml version="1.0" encoding="iso-8859-1"?>
<!-- Generator: Adobe Illustrator 19.0.0, SVG Export Plug-In . SVG Version: 6.00 Build 0)  -->
<svg xmlns="http://www.w3.org/2000/svg" xmlns:xlink="http://www.w3.org/1999/xlink" version="1.1" id="Capa_1" x="0px" y="0px" viewBox="0 0 512 512" style="enable-background:new 0 0 512 512;" xml:space="preserve">
<g>
	<g>
		<path d="M467,61c-24.814,0-45,20.186-45,45c0,13.987,6.548,26.347,16.588,34.605L361,206.239l-76.588-65.634    C294.452,132.347,301,119.987,301,106c0-24.814-20.186-45-45-45c-24.814,0-45,20.186-45,45c0,13.987,6.548,26.347,16.588,34.605    L151,206.239l-77.588-65.634C83.452,132.347,90,119.987,90,106c0-24.814-20.186-45-45-45C20.186,61,0,81.186,0,106    c0,20.07,13.293,36.912,31.472,42.695L58.01,361h395.98l26.537-212.305C498.707,142.912,512,126.07,512,106    C512,81.186,491.814,61,467,61z M136,316c-8.284,0-15-6.716-15-15c0-8.286,6.716-15,15-15s15,6.714,15,15    C151,309.284,144.284,316,136,316z M256,331c-24.814,0-45-20.186-45-45c0-24.814,20.186-45,45-45c24.814,0,45,20.186,45,45    C301,310.814,280.814,331,256,331z M376,316c-8.284,0-15-6.716-15-15c0-8.286,6.716-15,15-15s15,6.714,15,15    C391,309.284,384.284,316,376,316z"/>
	</g>
</g>
<g>
	<g>
		<path d="M256,271c-8.276,0-15,6.724-15,15s6.724,15,15,15s15-6.724,15-15S264.276,271,256,271z"/>
	</g>
</g>
<g>
	<g>
		<path d="M452,391H60c-16.569,0-30,13.431-30,30c0,16.567,13.431,30,30,30h392c16.569,0,30-13.433,30-30    C482,404.431,468.569,391,452,391z"/>
	</g>
</g>
<g>
</g>
<g>
</g>
<g>
</g>
<g>
</g>
<g>
</g>
<g>
</g>
<g>
</g>
<g>
</g>
<g>
</g>
<g>
</g>
<g>
</g>
<g>
</g>
<g>
</g>
<g>
</g>
<g>
</g>
</svg>
