<?xml version="1.0" encoding="iso-8859-1"?>
<!-- Generator: Adobe Illustrator 19.0.0, SVG Export Plug-In . SVG Version: 6.00 Build 0)  -->
<svg xmlns="http://www.w3.org/2000/svg" xmlns:xlink="http://www.w3.org/1999/xlink" version="1.1" id="Capa_1" x="0px" y="0px" viewBox="0 0 512 512" style="enable-background:new 0 0 512 512;" xml:space="preserve">
<g>
	<g>
		<path d="M166,61c-57.891,0-105,47.109-105,105s47.109,105,105,105s105-47.109,105-105S223.891,61,166,61z"/>
	</g>
</g>
<g>
	<g>
		<path d="M346,0c-43.574,0-84.893,18.463-115.371,48.217C272.346,71.212,301,115.089,301,166c0,29.396-9.697,56.415-25.708,78.605    c31.199,21.194,55.935,51.193,70.662,86.391c0.015,0,0.031,0.004,0.031,0.004C436.981,331,512,256.981,512,166S436.981,0,346,0z     M391,238.277V256c0,8.291-6.709,15-15,15c-8.291,0-15-6.709-15-15v-17.726c-6.246-2.21-12.021-5.645-16.831-10.472    c-5.845-5.859-5.845-15.366,0.029-21.211c5.859-5.83,15.352-5.859,21.211,0.029C374.297,215.554,391,209.845,391,196    c0-8.34-6.727-15-15-15c-24.714,0-45-19.98-45-45c0-18.04,10.303-35.138,30-41.77V76c0-8.291,6.709-15,15-15    c8.291,0,15,6.709,15,15v18.234c6.215,2.093,12.068,5.186,16.831,9.965c5.845,5.859,5.845,15.366-0.029,21.211    c-5.874,5.845-15.366,5.845-21.211-0.029C377.703,116.444,361,122.155,361,136c0,8.339,6.727,15,15,15c24.714,0,45,19.98,45,45    C421,214.353,409.948,231.579,391,238.277z"/>
	</g>
</g>
<g>
	<g>
		<path d="M254.605,267.038c-11.779,10.342-25.146,18.777-40.003,24.549l-31.897,29.418l27.841,112.363    c1.289,5.112-0.22,10.518-3.94,14.238l-30,30c-5.859,5.859-15.352,5.859-21.211,0l-30-30c-3.721-3.721-5.229-9.126-3.94-14.238    l27.841-112.363l-31.897-29.418c-14.857-5.771-28.224-14.207-40.003-24.549C31.542,296.38,0,347.639,0,406v91    c0,8.291,6.709,15,15,15h301c8.291,0,15-6.709,15-15v-91C331,347.639,300.458,296.38,254.605,267.038z"/>
	</g>
</g>
<g>
</g>
<g>
</g>
<g>
</g>
<g>
</g>
<g>
</g>
<g>
</g>
<g>
</g>
<g>
</g>
<g>
</g>
<g>
</g>
<g>
</g>
<g>
</g>
<g>
</g>
<g>
</g>
<g>
</g>
</svg>
