<?xml version="1.0" encoding="iso-8859-1"?>
<!-- Generator: Adobe Illustrator 19.0.0, SVG Export Plug-In . SVG Version: 6.00 Build 0)  -->
<svg xmlns="http://www.w3.org/2000/svg" xmlns:xlink="http://www.w3.org/1999/xlink" version="1.1" id="Capa_1" x="0px" y="0px" viewBox="0 0 512 512" style="enable-background:new 0 0 512 512;" xml:space="preserve">
<g>
	<g>
		<path d="M310.553,289.801l37.117-41.891l-54.902-10.918c-4.215-0.839-7.883-3.432-10.064-7.146l-28.364-48.242l-27.333,48.846    c-2.107,3.757-5.718,6.439-9.916,7.367l-54.651,12.053l38.001,41.11c2.917,3.154,4.346,7.411,3.934,11.7l-5.393,55.682    l50.806-23.443c3.905-1.813,8.413-1.857,12.347-0.133l51.307,22.353l-6.587-55.551    C306.353,297.301,307.694,293.014,310.553,289.801z"/>
	</g>
</g>
<g>
	<g>
		<path d="M499.85,183.274l-156.247-28.471L265.744,22.396c-6.121-10.399-20.658-9.545-26.183,0.28l-75.03,134.027L11.827,188.125    c-11.365,2.507-15.696,16.469-7.824,24.975L111,327.597L96.162,480.485c-1.135,11.5,10.698,20.055,21.336,15.162L256.992,431.3    l140.805,61.371c10.678,4.621,22.376-4.05,21.012-15.604l-18.065-152.549l107.447-116.446    C515.935,199.375,511.229,185.524,499.85,183.274z M387.689,248.251l-50.068,56.508l8.885,74.941    c1.368,11.609-10.364,20.208-21.012,15.619l-69.21-30.162l-68.547,31.635c-10.578,4.865-22.478-3.577-21.336-15.162l7.279-75.132    l-51.247-55.447c-7.905-8.541-3.495-22.478,7.824-24.975l73.718-16.267l36.866-65.879c5.826-10.357,20.456-10.013,26.183-0.28    l38.266,65.069l74.057,14.734C390.75,225.706,395.419,239.57,387.689,248.251z"/>
	</g>
</g>
<g>
</g>
<g>
</g>
<g>
</g>
<g>
</g>
<g>
</g>
<g>
</g>
<g>
</g>
<g>
</g>
<g>
</g>
<g>
</g>
<g>
</g>
<g>
</g>
<g>
</g>
<g>
</g>
<g>
</g>
</svg>
