<?xml version="1.0" encoding="iso-8859-1"?>
<!-- Generator: Adobe Illustrator 19.0.0, SVG Export Plug-In . SVG Version: 6.00 Build 0)  -->
<svg xmlns="http://www.w3.org/2000/svg" xmlns:xlink="http://www.w3.org/1999/xlink" version="1.1" id="Capa_1" x="0px" y="0px" viewBox="0 0 512 512" style="enable-background:new 0 0 512 512;" xml:space="preserve">
<g>
	<g>
		<path d="M256,0c-41.353,0-75,34.647-75,76c0,41.353,33.647,75,75,75c41.353,0,75-33.647,75-75C331,34.647,297.353,0,256,0z"/>
	</g>
</g>
<g>
	<g>
		<path d="M406,271H106c-16.569,0-30,13.431-30,30c0,16.567,13.431,30,30,30h300c16.569,0,30-13.433,30-30    C436,284.431,422.569,271,406,271z"/>
	</g>
</g>
<g>
	<g>
		<path d="M113.295,361l22.91,138.461C137.406,506.697,143.661,512,151,512h210c7.339,0,13.594-5.303,14.795-12.539L398.705,361    H113.295z"/>
	</g>
</g>
<g>
	<g>
		<path d="M329.251,151c-15.525,15.165-35.795,25.219-58.251,28.497V196c0,8.291-6.709,15-15,15c-8.291,0-15-6.709-15-15v-16.503    c-22.456-3.278-42.726-13.332-58.251-28.497C163.217,170.08,151,196.608,151,226v15h210v-15    C361,196.608,348.783,170.08,329.251,151z"/>
	</g>
</g>
<g>
</g>
<g>
</g>
<g>
</g>
<g>
</g>
<g>
</g>
<g>
</g>
<g>
</g>
<g>
</g>
<g>
</g>
<g>
</g>
<g>
</g>
<g>
</g>
<g>
</g>
<g>
</g>
<g>
</g>
</svg>
