<?xml version="1.0" encoding="iso-8859-1"?>
<!-- Generator: Adobe Illustrator 19.0.0, SVG Export Plug-In . SVG Version: 6.00 Build 0)  -->
<svg xmlns="http://www.w3.org/2000/svg" xmlns:xlink="http://www.w3.org/1999/xlink" version="1.1" id="Capa_1" x="0px" y="0px" viewBox="0 0 512 512" style="enable-background:new 0 0 512 512;" xml:space="preserve">
<g>
	<g>
		<path d="M256,0C156.742,0,76,81.742,76,181s80.742,180,180,180s180-80.742,180-180S355.258,0,256,0z M256,301    c-66.167,0-120-53.833-120-120S189.833,61,256,61s120,53.833,120,120S322.167,301,256,301z"/>
	</g>
</g>
<g>
	<g>
		<path d="M256,91c-49.629,0-90,40.371-90,90c0,49.629,40.371,90,90,90c49.629,0,90-40.371,90-90C346,131.371,305.629,91,256,91z     M271,226c0,8.291-6.709,15-15,15c-8.291,0-15-6.709-15-15v-53.789l-4.395,4.395c-5.859,5.859-15.352,5.859-21.211,0    c-5.859-5.859-5.859-15.352,0-21.211l30-30c4.307-4.307,10.752-5.596,16.348-3.252c5.61,2.314,9.258,7.793,9.258,13.857V226z"/>
	</g>
</g>
<g>
	<g>
		<path d="M256,391c-15.458,0-30.485-1.793-45-4.977V512l38.291-19.146c4.219-2.109,9.199-2.109,13.418,0L301,512V386.023    C286.485,389.207,271.458,391,256,391z"/>
	</g>
</g>
<g>
	<g>
		<path d="M331,376.914v84.359l38.291,19.146C379.344,485.409,391,478.076,391,467V341.626    C373.268,356.551,352.998,368.462,331,376.914z"/>
	</g>
</g>
<g>
	<g>
		<path d="M121,341.625V467c0,11.065,11.675,18.4,21.709,13.418L181,461.272v-84.359C159.002,368.461,138.732,356.55,121,341.625z"/>
	</g>
</g>
<g>
</g>
<g>
</g>
<g>
</g>
<g>
</g>
<g>
</g>
<g>
</g>
<g>
</g>
<g>
</g>
<g>
</g>
<g>
</g>
<g>
</g>
<g>
</g>
<g>
</g>
<g>
</g>
<g>
</g>
</svg>
