<?xml version="1.0" encoding="iso-8859-1"?>
<!-- Generator: Adobe Illustrator 19.0.0, SVG Export Plug-In . SVG Version: 6.00 Build 0)  -->
<svg xmlns="http://www.w3.org/2000/svg" xmlns:xlink="http://www.w3.org/1999/xlink" version="1.1" id="Capa_1" x="0px" y="0px" viewBox="0 0 512 512" style="enable-background:new 0 0 512 512;" xml:space="preserve">
<g>
	<g>
		<path d="M285.999,106c-7.5,0-14.399,2.699-20.099,7.5c-4.2,3.9-10.501,5.099-16.201,2.699C244.6,113.8,241,108.399,241,102.4V0H15    C6.599,0,0,6.599,0,15v211c0,8.399,6.599,15,15,15h63.1c-1.199-4.801-2.1-9.901-2.1-15c0-33.001,27.001-60,60-60s60,26.999,60,60    c0,5.099-0.901,10.199-2.1,15H241v-71.4c0-6,3.6-11.4,8.699-13.801c5.7-2.401,12.001-1.199,16.201,2.701    c5.7,4.799,12.599,7.5,20.099,7.5c16.5,0,30-13.5,30-30S302.499,106,285.999,106z"/>
	</g>
</g>
<g>
	<g>
		<path d="M433.9,271c1.199,4.799,2.1,9.899,2.1,15c0,32.999-27.001,60-60,60c-32.999,0-60-27.001-60-60    c0-5.101,0.901-10.201,2.1-15H271v71.4c0,5.999-3.6,11.4-8.699,13.799c-5.7,2.401-11.7,1.201-16.201-2.699    c-5.7-4.801-12.599-7.5-20.099-7.5c-16.5,0-30,13.5-30,30s13.5,30,30,30c7.5,0,14.399-2.701,20.099-7.5    c4.501-3.9,10.501-5.101,16.201-2.701C267.4,398.2,271,403.599,271,409.6V497c0,8.399,6.599,15,15,15h211c8.401,0,15-6.601,15-15    V271H433.9z"/>
	</g>
</g>
<g>
	<g>
		<path d="M497,0H271v77.89c4.863-1.245,9.902-1.89,15-1.89c33.091,0,60,26.909,60,60s-26.909,60-60,60    c-5.098,0-10.137-0.645-15-1.89V241h71.396c12.675,0,19.741,15.352,11.221,24.961C348.71,271.483,346,278.603,346,286    c0,16.538,13.462,30,30,30c16.538,0,30-13.462,30-30c0-7.397-2.71-14.517-7.617-20.039c-8.573-9.65-1.311-24.961,11.221-24.961    H512V15C512,6.709,505.291,0,497,0z"/>
	</g>
</g>
<g>
</g>
<g>
</g>
<g>
</g>
<g>
</g>
<g>
</g>
<g>
</g>
<g>
</g>
<g>
</g>
<g>
</g>
<g>
</g>
<g>
</g>
<g>
</g>
<g>
</g>
<g>
</g>
<g>
</g>
</svg>
