<?xml version="1.0" encoding="iso-8859-1"?>
<!-- Generator: Adobe Illustrator 19.0.0, SVG Export Plug-In . SVG Version: 6.00 Build 0)  -->
<svg xmlns="http://www.w3.org/2000/svg" xmlns:xlink="http://www.w3.org/1999/xlink" version="1.1" id="Capa_1" x="0px" y="0px" viewBox="0 0 511.998 511.998" style="enable-background:new 0 0 511.998 511.998;" xml:space="preserve">
<g>
	<g>
		<path d="M421,135.999c-33.091,0-60,26.909-60,60c0,33.091,26.909,60,60,60s60-26.909,60-60S454.091,135.999,421,135.999z"/>
	</g>
</g>
<g>
	<g>
		<path d="M331,15.999c-33.091,0-60,26.909-60,60c0,33.091,26.909,60,60,60s60-26.909,60-60S364.091,15.999,331,15.999z"/>
	</g>
</g>
<g>
	<g>
		<path d="M241,135.999c-33.091,0-60,26.909-60,60s26.909,60,60,60s60-26.909,60-60S274.091,135.999,241,135.999z"/>
	</g>
</g>
<g>
	<g>
		<path d="M45,285.999H15c-8.291,0-15,6.709-15,15v180c0,8.291,6.709,15,15,15h30c24.814,0,45-20.186,45-45v-120    C90,306.185,69.814,285.999,45,285.999z M45,375.999c-8.284,0-15-6.716-15-15s6.716-15,15-15s15,6.716,15,15    S53.284,375.999,45,375.999z"/>
	</g>
</g>
<g>
	<g>
		<path d="M499.646,291.754c-12.358-9.022-29.333-7.191-39.604,3.796l-82.05,100.913c-5.506,5.92-16.401,9.536-21.943,9.536    c-32.346,0,9.536,0-86.66,0c-5.713,0-10.854,3.164-13.403,8.276c-3.734,7.487-12.827,10.391-20.112,6.724    c-7.412-3.691-10.43-12.7-6.724-20.112c7.646-15.352,23.071-24.888,40.239-24.888c30.628,0,46.078,0,76.611,0    c16.569,0,30-13.431,30-30c0-16.569-13.431-30-30-30h-45c-10.946,0-11.658-2.049-20.64-9.946    c-36.572-32.179-121.192-17.428-160.36,9.946v150c16.95,6.418,66.021,30,84.188,30H346c28.198,0,55.107-13.462,71.997-36.021    l88.012-125.991C516.019,320.688,513.201,301.647,499.646,291.754z"/>
	</g>
</g>
<g>
</g>
<g>
</g>
<g>
</g>
<g>
</g>
<g>
</g>
<g>
</g>
<g>
</g>
<g>
</g>
<g>
</g>
<g>
</g>
<g>
</g>
<g>
</g>
<g>
</g>
<g>
</g>
<g>
</g>
</svg>
