<?xml version="1.0" encoding="iso-8859-1"?>
<!-- Generator: Adobe Illustrator 19.0.0, SVG Export Plug-In . SVG Version: 6.00 Build 0)  -->
<svg xmlns="http://www.w3.org/2000/svg" xmlns:xlink="http://www.w3.org/1999/xlink" version="1.1" id="Capa_1" x="0px" y="0px" viewBox="0 0 512 512" style="enable-background:new 0 0 512 512;" xml:space="preserve">
<g>
	<g>
		<path d="M256,0c-41.353,0-75,33.647-75,75c0,41.353,33.647,75,75,75c41.353,0,75-33.647,75-75C331,33.647,297.353,0,256,0z"/>
	</g>
</g>
<g>
	<g>
		<path d="M451,424.763V376c0-24.814-20.186-45-45-45H271v-30h75c8.291,0,15-6.709,15-15v-61c0-29.392-12.217-55.92-31.749-75    c-15.526,15.165-35.777,25.225-58.251,28.484V225c0,8.291-6.709,15-15,15c-8.291,0-15-6.709-15-15v-46.516    c-22.474-3.259-42.726-13.319-58.251-28.484C163.217,169.08,151,195.608,151,225v61c0,8.291,6.709,15,15,15h75v30H106    c-24.814,0-45,20.186-45,45v48.763C43.578,430.976,31,447.47,31,467c0,24.814,20.186,45,45,45s45-20.186,45-45    c0-19.53-12.578-36.024-30-42.237V376c0-8.276,6.724-15,15-15h75v63.763c-17.422,6.213-30,22.707-30,42.237    c0,24.814,20.186,45,45,45c24.814,0,45-20.186,45-45c0-19.53-12.578-36.024-30-42.237V361h90v63.763    c-17.422,6.213-30,22.707-30,42.237c0,24.814,20.186,45,45,45c24.814,0,45-20.186,45-45c0-19.53-12.578-36.024-30-42.237V361h75    c8.276,0,15,6.724,15,15v48.763c-17.422,6.213-30,22.707-30,42.237c0,24.814,20.186,45,45,45c24.814,0,45-20.186,45-45    C481,447.47,468.422,430.976,451,424.763z"/>
	</g>
</g>
<g>
</g>
<g>
</g>
<g>
</g>
<g>
</g>
<g>
</g>
<g>
</g>
<g>
</g>
<g>
</g>
<g>
</g>
<g>
</g>
<g>
</g>
<g>
</g>
<g>
</g>
<g>
</g>
<g>
</g>
</svg>
