<?xml version="1.0" encoding="iso-8859-1"?>
<!-- Generator: Adobe Illustrator 19.0.0, SVG Export Plug-In . SVG Version: 6.00 Build 0)  -->
<svg xmlns="http://www.w3.org/2000/svg" xmlns:xlink="http://www.w3.org/1999/xlink" version="1.1" id="Capa_1" x="0px" y="0px" viewBox="0 0 512 512" style="enable-background:new 0 0 512 512;" xml:space="preserve">
<g>
	<g>
		<path d="M135.992,482h-15V30c0-16.569-13.431-30-30-30c-16.569,0-30,13.431-30,30v452h-15c-8.291,0-15,6.709-15,15    c0,8.291,6.709,15,15,15c32.694,0,58.793,0,90,0c8.291,0,15-6.709,15-15C150.992,488.709,144.283,482,135.992,482z"/>
	</g>
</g>
<g>
	<g>
		<path d="M478.472,276.68L424.024,195l54.448-81.68c6.641-9.977-0.544-23.32-12.48-23.32h-135v165c0,19.53-12.578,36.024-30,42.237    c4.715,1.681,9.716,2.763,15,2.763h150C477.929,300,485.114,286.657,478.472,276.68z"/>
	</g>
</g>
<g>
	<g>
		<path d="M255.992,30h-105v240h135c8.291,0,15-6.709,15-15V75C300.992,50.186,280.806,30,255.992,30z"/>
	</g>
</g>
<g>
</g>
<g>
</g>
<g>
</g>
<g>
</g>
<g>
</g>
<g>
</g>
<g>
</g>
<g>
</g>
<g>
</g>
<g>
</g>
<g>
</g>
<g>
</g>
<g>
</g>
<g>
</g>
<g>
</g>
</svg>
