<?xml version="1.0" encoding="iso-8859-1"?>
<!-- Generator: Adobe Illustrator 19.0.0, SVG Export Plug-In . SVG Version: 6.00 Build 0)  -->
<svg xmlns="http://www.w3.org/2000/svg" xmlns:xlink="http://www.w3.org/1999/xlink" version="1.1" id="Capa_1" x="0px" y="0px" viewBox="0 0 512 512" style="enable-background:new 0 0 512 512;" xml:space="preserve">
<g>
	<g>
		<path d="M466,212H346c-8.291,0-15,6.709-15,15v45h150v-45C481,218.709,474.291,212,466,212z"/>
	</g>
</g>
<g>
	<g>
		<path d="M331,302v45c0,36.216,25.809,66.513,60,73.482V482h-15c-8.291,0-15,6.709-15,15c0,8.291,6.709,15,15,15h60    c8.291,0,15-6.709,15-15c0-8.291-6.709-15-15-15h-15v-61.518c34.191-6.969,60-37.266,60-73.482v-45H331z"/>
	</g>
</g>
<g>
	<g>
		<path d="M151,332c-18.311,0-30,8.877-30,15s11.689,15,30,15c18.311,0,30-8.877,30-15S169.311,332,151,332z"/>
	</g>
</g>
<g>
	<g>
		<path d="M211,154.578V90H91v64.578c0,6.405-0.884,12.728-2.278,18.933L151,235.789l62.278-62.278    C211.885,167.306,211,160.983,211,154.578z"/>
	</g>
</g>
<g>
	<g>
		<path d="M207.442,362c-8.095,17.602-29.881,30-56.442,30c-26.561,0-48.347-12.398-56.442-30H31v60h240v-60H207.442z"/>
	</g>
</g>
<g>
	<g>
		<path d="M236.605,216.395c-4.006-4.006-7.573-8.408-10.703-13.087l-64.297,64.297c-2.93,2.93-6.768,4.395-10.605,4.395    s-7.676-1.465-10.605-4.395l-64.297-64.297c-3.129,4.678-6.696,9.08-10.703,13.087C43.539,238.25,31,268.514,31,299.422V332    h63.558c8.095-17.602,29.881-30,56.442-30c26.561,0,48.347,12.398,56.442,30H271v-32.578    C271,268.514,258.461,238.25,236.605,216.395z"/>
	</g>
</g>
<g>
	<g>
		<path d="M196,0h-90c-8.291,0-15,6.709-15,15v45h120V15C211,6.709,204.291,0,196,0z"/>
	</g>
</g>
<g>
	<g>
		<path d="M31,452v15c0,24.814,20.186,45,45,45h150c24.814,0,45-20.186,45-45v-15H31z"/>
	</g>
</g>
<g>
</g>
<g>
</g>
<g>
</g>
<g>
</g>
<g>
</g>
<g>
</g>
<g>
</g>
<g>
</g>
<g>
</g>
<g>
</g>
<g>
</g>
<g>
</g>
<g>
</g>
<g>
</g>
<g>
</g>
</svg>
