<?xml version="1.0" encoding="iso-8859-1"?>
<!-- Generator: Adobe Illustrator 19.0.0, SVG Export Plug-In . SVG Version: 6.00 Build 0)  -->
<svg xmlns="http://www.w3.org/2000/svg" xmlns:xlink="http://www.w3.org/1999/xlink" version="1.1" id="Capa_1" x="0px" y="0px" viewBox="0 0 512 512" style="enable-background:new 0 0 512 512;" xml:space="preserve">
<g>
	<g>
		<path d="M496.927,60.06H451.88V15.028c0-13.337-16.194-20.06-25.609-10.612l-60.042,60.042c-2.815,2.815-4.398,6.626-4.398,10.612    v55.568L220.564,270.277c-5.775,5.937-5.644,15.436,0.293,21.226c5.898,5.75,15.397,5.68,21.226-0.293l142.682-141.086h52.12    c3.987,0,7.798-1.583,10.612-4.398l60.042-60.042C516.954,76.268,510.297,60.06,496.927,60.06z"/>
	</g>
</g>
<g>
	<g>
		<path d="M346.02,227.873l-22.509,23.126c13.513,37.193,5.667,80.47-24.114,110.251c-40.973,40.973-107.638,40.959-148.595,0    c-40.971-40.971-40.971-107.625,0-148.595c29.279-29.279,71.593-37.229,108.357-24.663l22.622-23.242    c-53.853-24.959-113.481-12.065-152.204,26.679c-52.716,52.685-52.72,138.356,0,191.047c52.685,52.716,138.356,52.72,191.047,0    C359.499,343.621,372.963,283.039,346.02,227.873z"/>
	</g>
</g>
<g>
	<g>
		<path d="M299.079,276.102c-36.834,37.847-4.051,3.786-38.479,39.041c-0.018,0.018-3.607,3.621-3.639,3.654    c-17.627,17.568-46.165,17.526-63.707,0.015l-0.015-0.015c-17.532-17.561-17.532-46.131,0-63.692l2.72-2.628    c0.038-0.038,0.046-0.093,0.084-0.132l38.549-39.476c-25.182-3.203-46.956,5.402-62.564,21.01    c-29.259,29.259-29.259,76.885,0,106.144c29.259,29.274,76.885,29.245,106.144,0C295.568,322.626,302.37,298.762,299.079,276.102z    "/>
	</g>
</g>
<g>
	<g>
		<path d="M421.486,179.144h-28.033l-25.556,26.25c39.068,68.293,24.445,147.839-26.046,198.307    c-64.419,64.451-169.069,64.46-233.499,0c-64.449-64.419-64.46-169.069,0-233.499c48.947-48.971,126.3-65.083,195.053-27.781    c11.049-11.32,18.801-19.262,24.403-25.003V87.665c-84.698-43.538-191.075-30.758-261.923,40.07    c-87.777,87.791-87.777,230.641,0,318.432c87.85,87.821,230.699,87.733,318.432,0C456.62,373.852,468.334,264.617,421.486,179.144    z"/>
	</g>
</g>
<g>
</g>
<g>
</g>
<g>
</g>
<g>
</g>
<g>
</g>
<g>
</g>
<g>
</g>
<g>
</g>
<g>
</g>
<g>
</g>
<g>
</g>
<g>
</g>
<g>
</g>
<g>
</g>
<g>
</g>
</svg>
