<?xml version="1.0" encoding="iso-8859-1"?>
<!-- Generator: Adobe Illustrator 19.0.0, SVG Export Plug-In . SVG Version: 6.00 Build 0)  -->
<svg xmlns="http://www.w3.org/2000/svg" xmlns:xlink="http://www.w3.org/1999/xlink" version="1.1" id="Capa_1" x="0px" y="0px" viewBox="0 0 512 512" style="enable-background:new 0 0 512 512;" xml:space="preserve">
<g>
	<g>
		<path d="M197,221c-5.514,0-10,4.486-10,10v30c0,5.514,4.486,10,10,10c5.514,0,10-4.486,10-10v-30C207,225.486,202.514,221,197,221    z"/>
	</g>
</g>
<g>
	<g>
		<path d="M315,221c-5.514,0-10,4.486-10,10v30c0,5.514,4.486,10,10,10c5.514,0,10-4.486,10-10v-30C325,225.486,320.514,221,315,221    z"/>
	</g>
</g>
<g>
	<g>
		<path d="M256,0c-82.71,0-150,67.29-150,150v212c0,82.71,67.29,150,150,150s150-67.29,150-150V150C406,67.29,338.71,0,256,0z     M189,368h-30v-30h30V368z M157,261v-30c0-22.056,17.944-40,40-40c22.056,0,40,17.944,40,40v30c0,22.056-17.944,40-40,40    C174.944,301,157,283.056,157,261z M243.667,422h-30v-30h30V422z M243.667,368h-30v-30h30V368z M241,176v-42h-42v-30h42V62h30v42    h42v30h-42v42H241z M298.333,422h-30v-30h30V422z M298.333,368h-30v-30h30V368z M353,368h-30v-30h30V368z M355,261    c0,22.056-17.944,40-40,40c-22.056,0-40-17.944-40-40v-30c0-22.056,17.944-40,40-40c22.056,0,40,17.944,40,40V261z"/>
	</g>
</g>
<g>
</g>
<g>
</g>
<g>
</g>
<g>
</g>
<g>
</g>
<g>
</g>
<g>
</g>
<g>
</g>
<g>
</g>
<g>
</g>
<g>
</g>
<g>
</g>
<g>
</g>
<g>
</g>
<g>
</g>
</svg>
