<?xml version="1.0" encoding="iso-8859-1"?>
<!-- Generator: Adobe Illustrator 19.0.0, SVG Export Plug-In . SVG Version: 6.00 Build 0)  -->
<svg xmlns="http://www.w3.org/2000/svg" xmlns:xlink="http://www.w3.org/1999/xlink" version="1.1" id="Capa_1" x="0px" y="0px" viewBox="0 0 512 512" style="enable-background:new 0 0 512 512;" xml:space="preserve">
<g>
	<g>
		<path d="M40,298c-22.056,0-40,17.944-40,40c0,22.056,17.944,40,40,40c22.056,0,40-17.944,40-40C80,315.944,62.056,298,40,298z     M40,348c-5.514,0-10-4.486-10-10c0-5.514,4.486-10,10-10s10,4.486,10,10C50,343.514,45.514,348,40,348z"/>
	</g>
</g>
<g>
	<g>
		<path d="M40,60C17.944,60,0,77.944,0,100v180.604C11.348,272.672,25.135,268,40,268s28.652,4.672,40,12.604V100    C80,77.944,62.056,60,40,60z"/>
	</g>
</g>
<g>
	<g>
		<path d="M203,296c-5.514,0-10,4.486-10,10c0,5.514,4.486,10,10,10c5.514,0,10-4.486,10-10C213,300.486,208.514,296,203,296z"/>
	</g>
</g>
<g>
	<g>
		<path d="M202.999,266c16.753,0,31.124,10.357,37.071,25H378v-67H139v74H97.396C105.328,309.348,110,323.135,110,338    s-4.672,28.652-12.604,40H139v74h239V321h-4.915l-36.061,68h-29.953c-5.947,14.643-20.318,25-37.071,25c-22.056,0-40-17.944-40-40    c0-22.056,17.944-40,40-40c16.753,0,31.124,10.357,37.071,25h11.905l20.151-38H240.07c-5.947,14.643-20.318,25-37.071,25    c-22.056,0-40-17.944-40-40C162.999,283.944,180.943,266,202.999,266z"/>
	</g>
</g>
<g>
	<g>
		<path d="M270,364c-5.514,0-10,4.486-10,10c0,5.514,4.486,10,10,10c5.514,0,10-4.486,10-10C280,368.486,275.514,364,270,364z"/>
	</g>
</g>
<g>
	<g>
		<path d="M408,253v170h104V253H408z M459,377h-30v-30h30V377z M459,329h-30v-30h30V329z"/>
	</g>
</g>
<g>
</g>
<g>
</g>
<g>
</g>
<g>
</g>
<g>
</g>
<g>
</g>
<g>
</g>
<g>
</g>
<g>
</g>
<g>
</g>
<g>
</g>
<g>
</g>
<g>
</g>
<g>
</g>
<g>
</g>
</svg>
