<?xml version="1.0" encoding="iso-8859-1"?>
<!-- Generator: Adobe Illustrator 19.0.0, SVG Export Plug-In . SVG Version: 6.00 Build 0)  -->
<svg xmlns="http://www.w3.org/2000/svg" xmlns:xlink="http://www.w3.org/1999/xlink" version="1.1" id="Capa_1" x="0px" y="0px" viewBox="0 0 512 512" style="enable-background:new 0 0 512 512;" xml:space="preserve">
<g>
	<g>
		<path d="M372,190V0H0v512h372V322H212v160h-30V292h190v-72H272V30h30v160H372z M130,482h-30V322H30v-30h100V482z M190,265    c0,0-21.166-20.921-38.563-45H30v-30h103.656c-2.904-6.805-4.656-13.271-4.656-18.973c0-33.689,27.311-61,61-61V30h30v87.921    c18.503,10.475,31,30.326,31,53.107C251,204.716,190,265,190,265z"/>
	</g>
</g>
<g>
	<g>
		<path d="M402,0v512h110V0H402z M446,451c-8.284,0-15-6.716-15-15s6.716-15,15-15s15,6.716,15,15S454.284,451,446,451z M446,401    c-8.284,0-15-6.716-15-15s6.716-15,15-15s15,6.716,15,15S454.284,401,446,401z M446,351c-8.284,0-15-6.716-15-15s6.716-15,15-15    s15,6.716,15,15S454.284,351,446,351z M461,124h-30V48h30V124z"/>
	</g>
</g>
<g>
</g>
<g>
</g>
<g>
</g>
<g>
</g>
<g>
</g>
<g>
</g>
<g>
</g>
<g>
</g>
<g>
</g>
<g>
</g>
<g>
</g>
<g>
</g>
<g>
</g>
<g>
</g>
<g>
</g>
</svg>
