<?xml version="1.0" encoding="iso-8859-1"?>
<!-- Generator: Adobe Illustrator 19.0.0, SVG Export Plug-In . SVG Version: 6.00 Build 0)  -->
<svg xmlns="http://www.w3.org/2000/svg" xmlns:xlink="http://www.w3.org/1999/xlink" version="1.1" id="Capa_1" x="0px" y="0px" viewBox="0 0 512 512" style="enable-background:new 0 0 512 512;" xml:space="preserve">
<g>
	<g>
		<rect y="51" width="512" height="70"/>
	</g>
</g>
<g>
	<g>
		<path d="M256,227c-38.598,0-70,31.402-70,70c0,38.598,31.402,70,70,70s70-31.402,70-70C326,258.402,294.598,227,256,227z M256,317    c-11.046,0-20-8.954-20-20c0-11.046,8.954-20,20-20s20,8.954,20,20C276,308.046,267.046,317,256,317z"/>
	</g>
</g>
<g>
	<g>
		<path d="M86,151v140c0,93.738,76.262,170,170,170s170-76.262,170-170V151H86z M256,397c-55.141,0-100-44.859-100-100    s44.859-100,100-100s100,44.859,100,100S311.141,397,256,397z M350,211c-11.046,0-20-8.954-20-20s8.954-20,20-20    c11.046,0,20,8.954,20,20S361.046,211,350,211z"/>
	</g>
</g>
<g>
</g>
<g>
</g>
<g>
</g>
<g>
</g>
<g>
</g>
<g>
</g>
<g>
</g>
<g>
</g>
<g>
</g>
<g>
</g>
<g>
</g>
<g>
</g>
<g>
</g>
<g>
</g>
<g>
</g>
</svg>
