<?xml version="1.0" encoding="iso-8859-1"?>
<!-- Generator: Adobe Illustrator 19.0.0, SVG Export Plug-In . SVG Version: 6.00 Build 0)  -->
<svg xmlns="http://www.w3.org/2000/svg" xmlns:xlink="http://www.w3.org/1999/xlink" version="1.1" id="Capa_1" x="0px" y="0px" viewBox="0 0 512 512" style="enable-background:new 0 0 512 512;" xml:space="preserve">
<g>
	<g>
		<path d="M140,319c-27.57,0-50,22.43-50,50s22.43,50,50,50s50-22.43,50-50S167.57,319,140,319z"/>
	</g>
</g>
<g>
	<g>
		<path d="M467,324H206.104c6.068,8.885,10.379,19.051,12.466,30H467c8.271,0,15,6.729,15,15s-6.729,15-15,15H218.569    c-2.086,10.949-6.398,21.115-12.466,30H467c24.813,0,45-20.187,45-45S491.813,324,467,324z"/>
	</g>
</g>
<g>
	<g>
		<path d="M140,289c9.782,0,19.156,1.772,27.827,5h38.277H280V0H0v372c0,77.196,62.804,140,140,140c50.884,0,95.51-27.29,120.023-68    h-53.919h-38.277c-8.671,3.228-18.045,5-27.827,5c-44.112,0-80-35.888-80-80S95.888,289,140,289z M184,58h32v30h-32V58z M184,118    h32v30h-32V118z M184,178h32v30h-32V178z M124,58h32v30h-32V58z M124,118h32v30h-32V118z M124,178h32v30h-32V178z M124,238h32v30    h-32V238z M64,58h32v30H64V58z M64,118h32v30H64V118z M64,178h32v30H64V178z"/>
	</g>
</g>
<g>
</g>
<g>
</g>
<g>
</g>
<g>
</g>
<g>
</g>
<g>
</g>
<g>
</g>
<g>
</g>
<g>
</g>
<g>
</g>
<g>
</g>
<g>
</g>
<g>
</g>
<g>
</g>
<g>
</g>
</svg>
