<?xml version="1.0" encoding="iso-8859-1"?>
<!-- Generator: Adobe Illustrator 19.0.0, SVG Export Plug-In . SVG Version: 6.00 Build 0)  -->
<svg xmlns="http://www.w3.org/2000/svg" xmlns:xlink="http://www.w3.org/1999/xlink" version="1.1" id="Capa_1" x="0px" y="0px" viewBox="0 0 512 512" style="enable-background:new 0 0 512 512;" xml:space="preserve">
<g>
	<g>
		<path d="M31,0v90h150V0H31z M96,76H76V46h20V76z M136,76h-20V46h20V76z"/>
	</g>
</g>
<g>
	<g>
		<rect x="331" width="59" height="90"/>
	</g>
</g>
<g>
	<g>
		<rect x="420" width="61" height="90"/>
	</g>
</g>
<g>
	<g>
		<path d="M316,120v120h75v157c0,36.807-23.521,68.214-56.316,80.008C351.348,458.416,361.5,433.873,361.5,407    c0-57.897-47.103-105-105-105c-57.897,0-105,47.103-105,105c0,27.106,10.325,51.845,27.247,70.493    C145.21,466.106,121,434.337,121,397V240h75V120H16v120h75v157c0,63.411,51.589,115,115,115h50h50c63.411,0,115-51.589,115-115    V240h75V120H316z M256.5,482c-41.355,0-75-33.645-75-75c0-41.355,33.645-75,75-75c41.355,0,75,33.645,75,75    C331.5,448.355,297.855,482,256.5,482z"/>
	</g>
</g>
<g>
</g>
<g>
</g>
<g>
</g>
<g>
</g>
<g>
</g>
<g>
</g>
<g>
</g>
<g>
</g>
<g>
</g>
<g>
</g>
<g>
</g>
<g>
</g>
<g>
</g>
<g>
</g>
<g>
</g>
</svg>
