<?xml version="1.0" encoding="iso-8859-1"?>
<!-- Generator: Adobe Illustrator 19.0.0, SVG Export Plug-In . SVG Version: 6.00 Build 0)  -->
<svg xmlns="http://www.w3.org/2000/svg" xmlns:xlink="http://www.w3.org/1999/xlink" version="1.1" id="Capa_1" x="0px" y="0px" viewBox="0 0 512 512" style="enable-background:new 0 0 512 512;" xml:space="preserve">
<g>
	<g>
		<path d="M256,142c-29.224,0-53,23.775-53,53c0,29.225,23.776,53,53,53s53-23.775,53-53C309,165.775,285.224,142,256,142z M256,210    c-8.284,0-15-6.716-15-15s6.716-15,15-15s15,6.716,15,15S264.284,210,256,210z"/>
	</g>
</g>
<g>
	<g>
		<path d="M354,195c0-44.252,34.811-80.52,78.486-82.873C401.277,45.93,333.906,0,256,0S110.723,45.93,79.514,112.127    C123.189,114.48,158,150.748,158,195s-34.811,80.52-78.486,82.873C110.723,344.07,178.094,390,256,390    s145.277-45.93,176.486-112.127C388.811,275.52,354,239.252,354,195z M256,278c-45.767,0-83-37.233-83-83    c0-45.767,37.233-83,83-83c45.767,0,83,37.233,83,83C339,240.767,301.767,278,256,278z"/>
	</g>
</g>
<g>
	<g>
		<path d="M75,142c-2.305,0-4.571,0.164-6.8,0.451c-4.205,15.009-6.657,30.742-7.115,46.966C63.301,183.9,68.691,180,75,180    c8.284,0,15,6.716,15,15s-6.716,15-15,15c-6.309,0-11.699-3.9-13.915-9.417c0.458,16.224,2.91,31.957,7.115,46.966    C70.429,247.836,72.695,248,75,248c29.224,0,53-23.775,53-53C128,165.775,104.224,142,75,142z"/>
	</g>
</g>
<g>
	<g>
		<path d="M437,210c-8.284,0-15-6.716-15-15s6.716-15,15-15c6.309,0,11.699,3.9,13.915,9.417    c-0.458-16.224-2.91-31.957-7.115-46.966c-2.228-0.287-4.495-0.451-6.8-0.451c-29.224,0-53,23.775-53,53c0,29.225,23.776,53,53,53    c2.305,0,4.571-0.164,6.8-0.451c4.205-15.009,6.657-30.742,7.115-46.966C448.699,206.1,443.309,210,437,210z"/>
	</g>
</g>
<g>
	<g>
		<path d="M256,421.008c-26.564,0-51.9-5.347-75-15.008v46h150v-46C307.9,415.661,282.564,421.008,256,421.008z"/>
	</g>
</g>
<g>
	<g>
		<polygon points="331,482 181,482 136,482 136,512 376,512 376,482   "/>
	</g>
</g>
<g>
</g>
<g>
</g>
<g>
</g>
<g>
</g>
<g>
</g>
<g>
</g>
<g>
</g>
<g>
</g>
<g>
</g>
<g>
</g>
<g>
</g>
<g>
</g>
<g>
</g>
<g>
</g>
<g>
</g>
</svg>
