<?xml version="1.0" encoding="iso-8859-1"?>
<!-- Generator: Adobe Illustrator 19.0.0, SVG Export Plug-In . SVG Version: 6.00 Build 0)  -->
<svg xmlns="http://www.w3.org/2000/svg" xmlns:xlink="http://www.w3.org/1999/xlink" version="1.1" id="Capa_1" x="0px" y="0px" viewBox="0 0 512 512" style="enable-background:new 0 0 512 512;" xml:space="preserve">
<g>
	<g>
		<path d="M359,214c-40.252,0-73,32.748-73,73c0,14.711,4.389,28.409,11.904,39.883l100.978-100.979    C387.409,218.389,373.711,214,359,214z"/>
	</g>
</g>
<g>
	<g>
		<path d="M429.183,266.97c-0.021-0.072-0.041-0.145-0.062-0.217c-0.244-0.852-0.509-1.7-0.785-2.545    c-0.094-0.286-0.192-0.57-0.29-0.855c-0.23-0.674-0.466-1.347-0.716-2.015c-0.229-0.606-0.469-1.206-0.713-1.805    c-0.147-0.365-0.288-0.731-0.442-1.094c-1.694-3.968-3.74-7.749-6.08-11.322L319.117,348.096    c3.572,2.339,7.352,4.385,11.319,6.079c0.368,0.156,0.741,0.299,1.111,0.449c0.592,0.241,1.187,0.479,1.786,0.706    c0.673,0.252,1.349,0.49,2.028,0.721c0.28,0.096,0.56,0.193,0.842,0.286c0.848,0.277,1.699,0.542,2.555,0.788    c0.068,0.02,0.137,0.039,0.205,0.058c15.188,4.309,31.504,3.6,46.326-2.098c0.646-0.25,1.295-0.495,1.931-0.763    c0.228-0.095,0.453-0.201,0.68-0.298c0.885-0.383,1.765-0.775,2.631-1.192c0.08-0.038,0.159-0.079,0.24-0.118    c14.768-7.17,26.771-19.173,33.941-33.941c0.038-0.079,0.078-0.158,0.116-0.237c0.417-0.867,0.809-1.749,1.193-2.634    c0.097-0.227,0.202-0.45,0.297-0.678c0.268-0.637,0.512-1.285,0.762-1.93C432.781,298.471,433.49,282.157,429.183,266.97z"/>
	</g>
</g>
<g>
	<g>
		<rect x="50" y="75" width="130" height="32"/>
	</g>
</g>
<g>
	<g>
		<polygon points="180,238 180,222 80,222 80,238 112,238 112,268 80,268 80,284 180,284 180,268 148,268 148,238   "/>
	</g>
</g>
<g>
	<g>
		<path d="M414,137H180H50H0v300h512V137H414z M210,314H50V192h160V314z M454.561,325.422c-0.138,0.344-0.28,0.687-0.422,1.03    c-0.127,0.305-0.253,0.609-0.383,0.913c-5.01,11.803-12.314,22.857-21.924,32.467c-9.603,9.603-20.648,16.904-32.443,21.914    c-0.327,0.14-0.656,0.276-0.984,0.413c-0.319,0.132-0.638,0.264-0.958,0.392C385.561,387.35,372.585,390,359,390    c-13.58,0-26.552-2.647-38.434-7.444c-0.333-0.133-0.664-0.271-0.996-0.408c-0.316-0.131-0.632-0.262-0.947-0.397    c-11.799-5.01-22.849-12.313-32.456-21.919L276,348l0.367,0.42C263.579,331.259,256,309.998,256,287c0-56.794,46.206-103,103-103    c22.998,0,43.839,7.212,61,20l11.832,10.168c9.61,9.61,16.914,20.664,21.925,32.468c0.13,0.303,0.256,0.608,0.383,0.913    c0.142,0.343,0.284,0.686,0.422,1.03C459.354,260.457,462,273.425,462,287S459.354,313.543,454.561,325.422z"/>
	</g>
</g>
<g>
</g>
<g>
</g>
<g>
</g>
<g>
</g>
<g>
</g>
<g>
</g>
<g>
</g>
<g>
</g>
<g>
</g>
<g>
</g>
<g>
</g>
<g>
</g>
<g>
</g>
<g>
</g>
<g>
</g>
</svg>
