<?xml version="1.0" encoding="iso-8859-1"?>
<!-- Generator: Adobe Illustrator 19.0.0, SVG Export Plug-In . SVG Version: 6.00 Build 0)  -->
<svg xmlns="http://www.w3.org/2000/svg" xmlns:xlink="http://www.w3.org/1999/xlink" version="1.1" id="Capa_1" x="0px" y="0px" viewBox="0 0 512 512" style="enable-background:new 0 0 512 512;" xml:space="preserve">
<g>
	<g>
		<rect y="419" width="276" height="93"/>
	</g>
</g>
<g>
	<g>
		<path d="M317,95c-3.718,0-7.387,0.212-11,0.614v61.025l6.819-6.819l55.154,55.154l-21.213,21.213L306,185.426v28.285    l12.477,12.477L306,238.664v55.722c3.613,0.402,7.282,0.614,11,0.614c55.141,0,100-44.86,100-100S372.141,95,317,95z     M319.891,128.606l21.213-21.213L410.4,176.69l-21.213,21.213L319.891,128.606z"/>
	</g>
</g>
<g>
	<g>
		<path d="M0,71v74h276V71H0z M180,130h-64v-30h64V130z"/>
	</g>
</g>
<g>
	<g>
		<path d="M0,175v214h276V175H0z M116.801,319.4h-15.5l-28.2-34.9v34.9h-19.5v-71h15.2l28.5,36.1v-36.1h19.5V319.4z M177.7,265.4    h-29.2v11.8h23.801V293H148.5v26.4H129v-71h48.7V265.4z M237.45,310.5c-2.034,2.067-4.35,3.8-6.95,5.2    c-2.6,1.4-5.367,2.467-8.3,3.2c-2.935,0.733-5.8,1.1-8.6,1.1c-4.935,0-9.468-1.05-13.601-3.15c-4.134-2.1-7.685-4.883-10.649-8.35    c-2.968-3.466-5.285-7.4-6.95-11.8c-1.667-4.4-2.5-8.865-2.5-13.4c0-4.333,0.766-8.6,2.3-12.8c1.533-4.2,3.783-7.966,6.75-11.3    c2.966-3.333,6.565-6.033,10.8-8.1c4.233-2.066,9.05-3.1,14.45-3.1c6.333,0,11.865,1.417,16.6,4.25    c4.733,2.834,8.233,6.584,10.5,11.25l-14.9,10.6c-0.601-1.733-1.385-3.166-2.351-4.3c-0.967-1.133-2.017-2.033-3.149-2.7    c-1.135-0.666-2.335-1.133-3.601-1.4c-1.267-0.266-2.434-0.4-3.5-0.4c-2.467,0-4.584,0.55-6.35,1.65    c-1.768,1.1-3.234,2.535-4.4,4.3c-1.167,1.767-2.017,3.767-2.55,6c-0.534,2.234-0.8,4.45-0.8,6.65c0,2.467,0.315,4.834,0.95,7.1    c0.633,2.267,1.565,4.267,2.8,6c1.232,1.734,2.732,3.117,4.5,4.15c1.766,1.034,3.783,1.55,6.05,1.55c1.133,0,2.3-0.15,3.5-0.45    c1.2-0.3,2.351-0.8,3.45-1.5c1.1-0.7,2.1-1.6,3-2.7c0.9-1.1,1.615-2.45,2.15-4.05L242,303.5    C241,306.1,239.483,308.434,237.45,310.5z"/>
	</g>
</g>
<g>
	<g>
		<path d="M317,0c-44.979,0-86.439,15.32-119.465,41H306v24.474c3.627-0.309,7.294-0.474,11-0.474c71.683,0,130,58.318,130,130    s-58.317,130-130,130c-3.706,0-7.373-0.166-11-0.474v65.157c3.641,0.206,7.308,0.317,11,0.317c107.523,0,195-87.477,195-195    S424.523,0,317,0z"/>
	</g>
</g>
<g>
</g>
<g>
</g>
<g>
</g>
<g>
</g>
<g>
</g>
<g>
</g>
<g>
</g>
<g>
</g>
<g>
</g>
<g>
</g>
<g>
</g>
<g>
</g>
<g>
</g>
<g>
</g>
<g>
</g>
</svg>
