<?xml version="1.0" encoding="iso-8859-1"?>
<!-- Generator: Adobe Illustrator 19.0.0, SVG Export Plug-In . SVG Version: 6.00 Build 0)  -->
<svg xmlns="http://www.w3.org/2000/svg" xmlns:xlink="http://www.w3.org/1999/xlink" version="1.1" id="Capa_1" x="0px" y="0px" viewBox="0 0 512 512" style="enable-background:new 0 0 512 512;" xml:space="preserve">
<g>
	<g>
		<path d="M449.5,109.136c21.043,0,42.087-8.01,58.106-24.03L512,80.713V63.5h-30v4.321c-18.949,15.106-46.055,15.093-65-0.017V30.5    h-30v16.049c-29.998-12.877-66.152-7.111-90.606,17.345L292,68.287V85.5h30v-4.321c18.948-15.108,46.054-15.094,65,0.017V210.5    h-21v-45H146v45h-21V102.451c10.347,4.442,21.42,6.685,32.5,6.685c21.043,0,42.087-8.01,58.106-24.03L220,80.713V63.5h-30v4.321    c-18.949,15.106-46.055,15.093-65-0.017V30.5H95v16.049C65.002,33.672,28.848,39.438,4.394,63.894L0,68.287V85.5h30v-4.321    c18.948-15.108,46.054-15.094,65,0.017V210.5H80v-5c0-22.056-17.944-40-40-40c-22.056,0-40,17.944-40,40v40    c0,22.056,17.944,40,40,40c22.056,0,40-17.944,40-40v-5h66v45h8.007l-29.765,86.915c10.206,1.655,19.683,5.514,27.912,11.088    l26.585-77.629C173.785,295.095,171,283.12,171,270.5c0-46.869,38.131-85,85-85s85,38.131,85,85c0,12.62-2.785,24.595-7.74,35.374    l26.585,77.629c8.23-5.574,17.707-9.433,27.913-11.088L357.993,285.5H366v-45h66v5c0,22.056,17.944,40,40,40    c22.056,0,40-17.944,40-40v-40c0-22.056-17.944-40-40-40c-22.056,0-40,17.944-40,40v5h-15V102.451    C427.347,106.893,438.42,109.136,449.5,109.136z"/>
	</g>
</g>
<g>
	<g>
		<path d="M256,215.5c-30.327,0-55,24.673-55,55c0,30.327,24.673,55,55,55c30.327,0,55-24.673,55-55    C311,240.173,286.327,215.5,256,215.5z M256,295.5c-13.785,0-25-11.215-25-25c0-13.785,11.215-25,25-25c13.785,0,25,11.215,25,25    C281,284.285,269.785,295.5,256,295.5z"/>
	</g>
</g>
<g>
	<g>
		<path d="M113,401.5c-22.056,0-40,17.944-40,40c0,22.056,17.944,40,40,40c22.056,0,40-17.944,40-40    C153,419.444,135.056,401.5,113,401.5z"/>
	</g>
</g>
<g>
	<g>
		<path d="M399,401.5c-22.056,0-40,17.944-40,40c0,22.056,17.944,40,40,40c22.056,0,40-17.944,40-40    C439,419.444,421.056,401.5,399,401.5z"/>
	</g>
</g>
<g>
</g>
<g>
</g>
<g>
</g>
<g>
</g>
<g>
</g>
<g>
</g>
<g>
</g>
<g>
</g>
<g>
</g>
<g>
</g>
<g>
</g>
<g>
</g>
<g>
</g>
<g>
</g>
<g>
</g>
</svg>
