<?xml version="1.0" encoding="iso-8859-1"?>
<!-- Generator: Adobe Illustrator 19.0.0, SVG Export Plug-In . SVG Version: 6.00 Build 0)  -->
<svg xmlns="http://www.w3.org/2000/svg" xmlns:xlink="http://www.w3.org/1999/xlink" version="1.1" id="Capa_1" x="0px" y="0px" viewBox="0 0 512 512" style="enable-background:new 0 0 512 512;" xml:space="preserve">
<g>
	<g>
		<path d="M81,163v120h350V163H81z M206.001,183H305v30h-98.999V183z M107,183h72v30h-72V183z M226,263H107v-30h119V263z M327,263    h-66v-30h66V263z M407,213h-77v-30h77V213z"/>
	</g>
</g>
<g>
	<g>
		<path d="M467,88H45c-24.813,0-45,20.187-45,45v246c0,24.813,20.187,45,45,45h422c24.813,0,45-20.187,45-45V133    C512,108.187,491.813,88,467,88z M73,374c-11.046,0-20-8.954-20-20c0-11.046,8.954-20,20-20s20,8.954,20,20    C93,365.046,84.046,374,73,374z M143,374c-11.046,0-20-8.954-20-20c0-11.046,8.954-20,20-20s20,8.954,20,20    C163,365.046,154.046,374,143,374z M213,374c-11.046,0-20-8.954-20-20c0-11.046,8.954-20,20-20s20,8.954,20,20    C233,365.046,224.046,374,213,374z M283,374c-11.046,0-20-8.954-20-20c0-11.046,8.954-20,20-20c11.046,0,20,8.954,20,20    C303,365.046,294.046,374,283,374z M437,374c-11.046,0-20-8.954-20-20c0-11.046,8.954-20,20-20c11.046,0,20,8.954,20,20    C457,365.046,448.046,374,437,374z M461,313H51V133h410V313z"/>
	</g>
</g>
<g>
</g>
<g>
</g>
<g>
</g>
<g>
</g>
<g>
</g>
<g>
</g>
<g>
</g>
<g>
</g>
<g>
</g>
<g>
</g>
<g>
</g>
<g>
</g>
<g>
</g>
<g>
</g>
<g>
</g>
</svg>
