<?xml version="1.0" encoding="iso-8859-1"?>
<!-- Generator: Adobe Illustrator 19.0.0, SVG Export Plug-In . SVG Version: 6.00 Build 0)  -->
<svg xmlns="http://www.w3.org/2000/svg" xmlns:xlink="http://www.w3.org/1999/xlink" version="1.1" id="Capa_1" x="0px" y="0px" viewBox="0 0 512 512" style="enable-background:new 0 0 512 512;" xml:space="preserve">
<g>
	<g>
		<path d="M255.998,56.949c-23.363,0-45.326,9.097-61.845,25.617l21.121,21.121c10.878-10.878,25.342-16.869,40.725-16.869    s29.847,5.991,40.725,16.869l21.121-21.121C301.325,66.046,279.362,56.949,255.998,56.949z"/>
	</g>
</g>
<g>
	<g>
		<path d="M153.838,42.249l21.121,21.121c44.686-44.684,117.395-44.684,162.081,0l21.121-21.121    C301.83-14.083,210.17-14.083,153.838,42.249z"/>
	</g>
</g>
<g>
	<g>
		<path d="M396.061,203.15v-31.963c0-24.705-20.099-44.805-44.805-44.805H160.742c-24.705,0-44.805,20.099-44.805,44.805v31.963    c-29.723,33.897-46.056,77.114-46.127,122.368c-0.076,48.923,18.826,95.231,53.221,130.396    c34.404,35.173,80.285,55.078,129.191,56.048c1.275,0.025,2.544,0.038,3.816,0.038c49.054-0.001,95.197-18.817,130.296-53.226    c36.018-35.31,55.854-82.531,55.854-132.963C442.188,280.449,425.852,237.127,396.061,203.15z M255.999,424.382    c-54.352,0-98.571-44.218-98.571-98.571c0-54.352,44.218-98.571,98.571-98.571s98.571,44.218,98.571,98.571    C354.57,380.164,310.352,424.382,255.999,424.382z"/>
	</g>
</g>
<g>
</g>
<g>
</g>
<g>
</g>
<g>
</g>
<g>
</g>
<g>
</g>
<g>
</g>
<g>
</g>
<g>
</g>
<g>
</g>
<g>
</g>
<g>
</g>
<g>
</g>
<g>
</g>
<g>
</g>
</svg>
