<?xml version="1.0" encoding="iso-8859-1"?>
<!-- Generator: Adobe Illustrator 19.0.0, SVG Export Plug-In . SVG Version: 6.00 Build 0)  -->
<svg xmlns="http://www.w3.org/2000/svg" xmlns:xlink="http://www.w3.org/1999/xlink" version="1.1" id="Capa_1" x="0px" y="0px" viewBox="0 0 512 512" style="enable-background:new 0 0 512 512;" xml:space="preserve">
<g>
	<g>
		<path d="M461.915,241.231C458.849,130.299,367.659,41,256,41S53.151,130.299,50.085,241.231C22.053,243.727,0,267.33,0,296v120    c0,30.327,24.673,55,55,55h75V241H80.125C83.302,146.723,160.963,71,256,71c95.037,0,172.698,75.723,175.875,170H382v230h75    c30.327,0,55-24.673,55-55V296C512,267.33,489.947,243.727,461.915,241.231z M80,388H50V287h30V388z M462,388h-30V287h30V388z"/>
	</g>
</g>
<g>
</g>
<g>
</g>
<g>
</g>
<g>
</g>
<g>
</g>
<g>
</g>
<g>
</g>
<g>
</g>
<g>
</g>
<g>
</g>
<g>
</g>
<g>
</g>
<g>
</g>
<g>
</g>
<g>
</g>
</svg>
