<?xml version="1.0" encoding="iso-8859-1"?>
<!-- Generator: Adobe Illustrator 19.0.0, SVG Export Plug-In . SVG Version: 6.00 Build 0)  -->
<svg xmlns="http://www.w3.org/2000/svg" xmlns:xlink="http://www.w3.org/1999/xlink" version="1.1" id="Capa_1" x="0px" y="0px" viewBox="0 0 512 512" style="enable-background:new 0 0 512 512;" xml:space="preserve">
<g>
	<g>
		<path d="M467,43H45C20.187,43,0,63.187,0,88v255h58V138c0-19.299,15.701-35,35-35h326c19.299,0,35,15.701,35,35v205h58V88    C512,63.187,491.813,43,467,43z"/>
	</g>
</g>
<g>
	<g>
		<rect x="211" y="373" width="90" height="16"/>
	</g>
</g>
<g>
	<g>
		<path d="M331,373v46H181v-46H0v51c0,24.813,20.187,45,45,45h422c24.813,0,45-20.187,45-45v-51H331z"/>
	</g>
</g>
<g>
	<g>
		<path d="M419,133H93c-2.757,0-5,2.243-5,5v205h93h150h93V138C424,135.243,421.757,133,419,133z M250,296H120v-30h130V296z     M310,246H120v-30h190V246z M360,196H120v-30h240V196z"/>
	</g>
</g>
<g>
</g>
<g>
</g>
<g>
</g>
<g>
</g>
<g>
</g>
<g>
</g>
<g>
</g>
<g>
</g>
<g>
</g>
<g>
</g>
<g>
</g>
<g>
</g>
<g>
</g>
<g>
</g>
<g>
</g>
</svg>
