<?xml version="1.0" encoding="iso-8859-1"?>
<!-- Generator: Adobe Illustrator 19.0.0, SVG Export Plug-In . SVG Version: 6.00 Build 0)  -->
<svg xmlns="http://www.w3.org/2000/svg" xmlns:xlink="http://www.w3.org/1999/xlink" version="1.1" id="Capa_1" x="0px" y="0px" viewBox="0 0 512 512" style="enable-background:new 0 0 512 512;" xml:space="preserve">
<g>
	<g>
		<path d="M148,91v150h216V91H148z M285,209H176v-30h109V209z M336,155H176v-30h160V155z"/>
	</g>
</g>
<g>
	<g>
		<path d="M256,316c-32.533,0-59,26.467-59,59c0,32.533,26.467,59,59,59s59-26.467,59-59C315,342.467,288.533,316,256,316z M256,400    c-13.807,0-25-11.193-25-25s11.193-25,25-25s25,11.193,25,25S269.807,400,256,400z"/>
	</g>
</g>
<g>
	<g>
		<path d="M55,0v512h402V0H55z M256,464c-49.075,0-89-39.925-89-89s39.925-89,89-89s89,39.925,89,89S305.075,464,256,464z M394,271    H118V61h276V271z"/>
	</g>
</g>
<g>
</g>
<g>
</g>
<g>
</g>
<g>
</g>
<g>
</g>
<g>
</g>
<g>
</g>
<g>
</g>
<g>
</g>
<g>
</g>
<g>
</g>
<g>
</g>
<g>
</g>
<g>
</g>
<g>
</g>
</svg>
