<?xml version="1.0" encoding="iso-8859-1"?>
<!-- Generator: Adobe Illustrator 19.0.0, SVG Export Plug-In . SVG Version: 6.00 Build 0)  -->
<svg xmlns="http://www.w3.org/2000/svg" xmlns:xlink="http://www.w3.org/1999/xlink" version="1.1" id="Capa_1" x="0px" y="0px" viewBox="0 0 512 512" style="enable-background:new 0 0 512 512;" xml:space="preserve">
<g>
	<g>
		<rect x="136" y="84" width="240" height="290"/>
	</g>
</g>
<g>
	<g>
		<path d="M56,0v512h400V0H56z M189.106,455.394l-21.213,21.213L132.287,441l35.606-35.606l21.213,21.213L174.713,441    L189.106,455.394z M256,466c-12.15,0-22-9.85-22-22c0-12.15,9.85-22,22-22c12.15,0,22,9.85,22,22C278,456.15,268.15,466,256,466z     M380,464h-40v-40h40V464z M406,404H106V54h300V404z"/>
	</g>
</g>
<g>
</g>
<g>
</g>
<g>
</g>
<g>
</g>
<g>
</g>
<g>
</g>
<g>
</g>
<g>
</g>
<g>
</g>
<g>
</g>
<g>
</g>
<g>
</g>
<g>
</g>
<g>
</g>
<g>
</g>
</svg>
