<?xml version="1.0" encoding="iso-8859-1"?>
<!-- Generator: Adobe Illustrator 19.0.0, SVG Export Plug-In . SVG Version: 6.00 Build 0)  -->
<svg xmlns="http://www.w3.org/2000/svg" xmlns:xlink="http://www.w3.org/1999/xlink" version="1.1" id="Capa_1" x="0px" y="0px" viewBox="0 0 512 512" style="enable-background:new 0 0 512 512;" xml:space="preserve">
<g>
	<g>
		<path d="M167,85v178h178V85H167z M217,191h-27v-30h27V191z M217,139h-27v-30h27V139z M322,191h-88v-30h88V191z M322,139h-88v-30    h88V139z"/>
	</g>
</g>
<g>
	<g>
		<path d="M86,0v512h225c63.411,0,115-51.589,115-115V0H86z M228,387h-31v31h-30v-31h-31v-30h31v-31h30v31h31V387z M294,407    c-11.046,0-20-8.954-20-20c0-11.046,8.954-20,20-20c11.046,0,20,8.954,20,20C314,398.046,305.046,407,294,407z M355,377    c-11.046,0-20-8.954-20-20c0-11.046,8.954-20,20-20c11.046,0,20,8.954,20,20C375,368.046,366.046,377,355,377z M375,293H137V55    h238V293z"/>
	</g>
</g>
<g>
</g>
<g>
</g>
<g>
</g>
<g>
</g>
<g>
</g>
<g>
</g>
<g>
</g>
<g>
</g>
<g>
</g>
<g>
</g>
<g>
</g>
<g>
</g>
<g>
</g>
<g>
</g>
<g>
</g>
</svg>
