<?xml version="1.0" encoding="iso-8859-1"?>
<!-- Generator: Adobe Illustrator 19.0.0, SVG Export Plug-In . SVG Version: 6.00 Build 0)  -->
<svg xmlns="http://www.w3.org/2000/svg" xmlns:xlink="http://www.w3.org/1999/xlink" version="1.1" id="Capa_1" x="0px" y="0px" viewBox="0 0 512 512" style="enable-background:new 0 0 512 512;" xml:space="preserve">
<g>
	<g>
		<rect x="131" width="190" height="71"/>
	</g>
</g>
<g>
	<g>
		<rect x="131" y="441" width="190" height="71"/>
	</g>
</g>
<g>
	<g>
		<rect x="411" y="211" width="30" height="90"/>
	</g>
</g>
<g>
	<g>
		<path d="M336,101H116c-24.813,0-45,20.187-45,45v220c0,24.813,20.187,45,45,45h220c24.813,0,45-20.187,45-45V146    C381,121.187,360.813,101,336,101z M289.355,171.526c15.551,0,28.158,12.607,28.158,28.158c0,15.551-12.607,28.158-28.158,28.158    c-15.551,0-28.158-12.607-28.158-28.158C261.197,184.133,273.804,171.526,289.355,171.526z M226,149    c11.663,0,21.118,9.455,21.118,21.118c0,11.663-9.455,21.118-21.118,21.118c-11.663,0-21.118-9.455-21.118-21.118    C204.882,158.455,214.337,149,226,149z M162.645,171.526c15.551,0,28.158,12.607,28.158,28.158    c0,15.551-12.607,28.158-28.158,28.158s-28.158-12.607-28.158-28.158C134.487,184.133,147.094,171.526,162.645,171.526z M119,256    c0-11.663,9.455-21.118,21.118-21.118c11.663,0,21.118,9.455,21.118,21.118c0,11.663-9.455,21.118-21.118,21.118    C128.455,277.118,119,267.663,119,256z M162.645,340.474c-15.551,0-28.158-12.607-28.158-28.158    c0-15.551,12.607-28.158,28.158-28.158s28.158,12.607,28.158,28.158C190.803,327.867,178.196,340.474,162.645,340.474z M226,363    c-11.663,0-21.118-9.455-21.118-21.118s9.455-21.118,21.118-21.118c11.663,0,21.118,9.455,21.118,21.118S237.663,363,226,363z     M226,291.197c-19.439,0-35.197-15.758-35.197-35.197c0-19.439,15.758-35.197,35.197-35.197c19.439,0,35.197,15.758,35.197,35.197    C261.197,275.439,245.439,291.197,226,291.197z M289.355,340.474c-15.551,0-28.158-12.607-28.158-28.158    c0-15.551,12.607-28.158,28.158-28.158c15.551,0,28.158,12.607,28.158,28.158C317.513,327.867,304.906,340.474,289.355,340.474z     M311.882,277.118c-11.663,0-21.118-9.455-21.118-21.118s9.455-21.118,21.118-21.118S333,244.337,333,256    C333,267.663,323.545,277.118,311.882,277.118z"/>
	</g>
</g>
<g>
</g>
<g>
</g>
<g>
</g>
<g>
</g>
<g>
</g>
<g>
</g>
<g>
</g>
<g>
</g>
<g>
</g>
<g>
</g>
<g>
</g>
<g>
</g>
<g>
</g>
<g>
</g>
<g>
</g>
</svg>
