<?xml version="1.0" encoding="iso-8859-1"?>
<!-- Generator: Adobe Illustrator 19.0.0, SVG Export Plug-In . SVG Version: 6.00 Build 0)  -->
<svg xmlns="http://www.w3.org/2000/svg" xmlns:xlink="http://www.w3.org/1999/xlink" version="1.1" id="Capa_1" x="0px" y="0px" viewBox="0 0 512 512" style="enable-background:new 0 0 512 512;" xml:space="preserve">
<g>
	<g>
		<path d="M101,130v240h310V130H101z M197.894,141.394l21.213,21.213l-39,39l-21.213-21.213L197.894,141.394z M156.144,258.644    l79.5-79.5l21.213,21.213l-79.5,79.5L156.144,258.644z M215.106,317.606l-21.213-21.213l51.5-51.5l21.213,21.213L215.106,317.606z    "/>
	</g>
</g>
<g>
	<g>
		<path d="M366,0H146c-24.813,0-45,20.187-45,45v55h310V45C411,20.187,390.813,0,366,0z M290,81h-68V51h68V81z"/>
	</g>
</g>
<g>
	<g>
		<path d="M101,400v67c0,24.813,20.187,45,45,45h220c24.813,0,45-20.187,45-45v-67H101z M256,471c-17.397,0-31.5-14.103-31.5-31.5    c0-17.397,14.103-31.5,31.5-31.5c17.397,0,31.5,14.103,31.5,31.5C287.5,456.897,273.397,471,256,471z"/>
	</g>
</g>
<g>
</g>
<g>
</g>
<g>
</g>
<g>
</g>
<g>
</g>
<g>
</g>
<g>
</g>
<g>
</g>
<g>
</g>
<g>
</g>
<g>
</g>
<g>
</g>
<g>
</g>
<g>
</g>
<g>
</g>
</svg>
