<?xml version="1.0" encoding="iso-8859-1"?>
<!-- Generator: Adobe Illustrator 19.0.0, SVG Export Plug-In . SVG Version: 6.00 Build 0)  -->
<svg version="1.1" id="Layer_1" xmlns="http://www.w3.org/2000/svg" xmlns:xlink="http://www.w3.org/1999/xlink" x="0px" y="0px"
	 viewBox="0 0 512 512" style="enable-background:new 0 0 512 512;" xml:space="preserve">
<g>
	<g>
		<path d="M344.471,326.275H167.528c-9.149,0-16.566,7.417-16.566,16.566v41.475h210.076v-41.475
			C361.037,333.693,353.62,326.275,344.471,326.275z"/>
	</g>
</g>
<g>
	<g>
		<path d="M150.962,417.447v77.987c0,9.149,7.417,16.566,16.566,16.566h101.398c7.294,0,13.729-4.77,15.851-11.749l6.547-21.536
			l5.806,21.111c1.978,7.191,8.515,12.173,15.973,12.173h31.37c9.149,0,16.566-7.417,16.566-16.566v-77.986H150.962z"/>
	</g>
</g>
<g>
	<g>
		<path d="M356.422,247.082l-58.76-58.76l4.399-141.528c0.379-12.205-4.277-24.232-12.776-32.998C280.786,5.028,268.908,0,256.699,0
			h-1.398c-12.21,0-24.087,5.028-32.586,13.795s-13.156,20.794-12.776,32.998l4.399,141.528l-58.76,58.76
			c-7.699,7.699-9.981,19.173-5.815,29.228c4.166,10.058,13.892,16.557,24.78,16.557h162.915c10.886,0,20.613-6.498,24.78-16.557
			C366.403,266.254,364.12,254.78,356.422,247.082z M256,72.074c-9.149,0-16.566-7.417-16.566-16.566
			c0-9.149,7.417-16.566,16.566-16.566c9.149,0,16.566,7.417,16.566,16.566C272.566,64.657,265.149,72.074,256,72.074z"/>
	</g>
</g>
<g>
</g>
<g>
</g>
<g>
</g>
<g>
</g>
<g>
</g>
<g>
</g>
<g>
</g>
<g>
</g>
<g>
</g>
<g>
</g>
<g>
</g>
<g>
</g>
<g>
</g>
<g>
</g>
<g>
</g>
</svg>
