<?xml version="1.0" encoding="iso-8859-1"?>
<!-- Generator: Adobe Illustrator 19.0.0, SVG Export Plug-In . SVG Version: 6.00 Build 0)  -->
<svg version="1.1" id="Layer_1" xmlns="http://www.w3.org/2000/svg" xmlns:xlink="http://www.w3.org/1999/xlink" x="0px" y="0px"
	 viewBox="0 0 512 512" style="enable-background:new 0 0 512 512;" xml:space="preserve">
<g>
	<g>
		<path d="M222.848,127.373H40.343c-9.23,0-16.713,7.483-16.713,16.714v332.201c0,9.23,7.483,16.713,16.713,16.713h14.075v10.085
			c0,4.923,3.991,8.914,8.914,8.914H86.3c4.923,0,8.914-3.991,8.914-8.914v-10.085h127.634c9.23,0,16.713-7.483,16.713-16.713
			V144.087C239.562,134.856,232.079,127.373,222.848,127.373z M200.251,326.215c0,9.23-7.483,16.713-16.714,16.713
			c-9.23,0-16.713-7.483-16.713-16.713v-69.532c0-9.23,7.483-16.713,16.713-16.713c9.23,0,16.714,7.483,16.714,16.713V326.215z"/>
	</g>
</g>
<g>
	<g>
		<path d="M470.542,127.373h-180.32c-9.23,0-16.714,7.483-16.714,16.714v332.201c0,9.23,7.483,16.713,16.714,16.713H415.67v10.085
			c0,4.923,3.991,8.914,8.914,8.914h22.969c4.923,0,8.914-3.991,8.914-8.914v-10.085h14.076c9.23,0,16.714-7.483,16.714-16.713
			V144.087C487.255,134.856,479.772,127.373,470.542,127.373z M343.986,326.215c0,9.23-7.483,16.713-16.713,16.713
			s-16.713-7.483-16.713-16.713v-69.532c0-9.23,7.483-16.714,16.713-16.714s16.713,7.483,16.713,16.714V326.215z"/>
	</g>
</g>
<g>
	<g>
		<path d="M223.964,0H41.458c-9.23,0-16.713,7.483-16.713,16.713v60.992c0,9.23,7.483,16.713,16.713,16.713h182.505
			c9.23,0,16.714-7.483,16.714-16.713V16.713C240.677,7.483,233.194,0,223.964,0z"/>
	</g>
</g>
<g>
	<g>
		<path d="M471.657,0h-180.32c-9.23,0-16.714,7.483-16.714,16.713v60.992c0,9.23,7.483,16.713,16.714,16.713h180.32
			c9.23,0,16.713-7.483,16.713-16.713V16.713C488.371,7.483,480.887,0,471.657,0z"/>
	</g>
</g>
<g>
</g>
<g>
</g>
<g>
</g>
<g>
</g>
<g>
</g>
<g>
</g>
<g>
</g>
<g>
</g>
<g>
</g>
<g>
</g>
<g>
</g>
<g>
</g>
<g>
</g>
<g>
</g>
<g>
</g>
</svg>
