<?xml version="1.0" encoding="iso-8859-1"?>
<!-- Generator: Adobe Illustrator 19.0.0, SVG Export Plug-In . SVG Version: 6.00 Build 0)  -->
<svg version="1.1" id="Layer_1" xmlns="http://www.w3.org/2000/svg" xmlns:xlink="http://www.w3.org/1999/xlink" x="0px" y="0px"
	 viewBox="0 0 512 512" style="enable-background:new 0 0 512 512;" xml:space="preserve">
<g>
	<g>
		<path d="M399.063,0H112.937c-9.289,0-16.82,7.531-16.82,16.82V495.18c0,9.289,7.531,16.82,16.82,16.82h286.125
			c9.289,0,16.82-7.531,16.82-16.82V16.82C415.883,7.531,408.353,0,399.063,0z M340.774,325.977
			c-13.873,0-25.119-11.247-25.119-25.119c0-13.873,11.247-25.119,25.119-25.119c13.873,0,25.119,11.246,25.119,25.119
			C365.893,314.73,354.647,325.977,340.774,325.977z M365.893,225.741c0,10.703-8.677,19.38-19.38,19.38H165.488
			c-10.703,0-19.38-8.677-19.38-19.38V66.023c0-10.703,8.677-19.38,19.38-19.38h181.024c10.703,0,19.38,8.677,19.38,19.38V225.741z"
			/>
	</g>
</g>
<g>
</g>
<g>
</g>
<g>
</g>
<g>
</g>
<g>
</g>
<g>
</g>
<g>
</g>
<g>
</g>
<g>
</g>
<g>
</g>
<g>
</g>
<g>
</g>
<g>
</g>
<g>
</g>
<g>
</g>
</svg>
