<?xml version="1.0" encoding="iso-8859-1"?>
<!-- Generator: Adobe Illustrator 19.0.0, SVG Export Plug-In . SVG Version: 6.00 Build 0)  -->
<svg version="1.1" id="Layer_1" xmlns="http://www.w3.org/2000/svg" xmlns:xlink="http://www.w3.org/1999/xlink" x="0px" y="0px"
	 viewBox="0 0 512 512" style="enable-background:new 0 0 512 512;" xml:space="preserve">
<g>
	<g>
		<path d="M193.491,329.314H16.714C7.483,329.314,0,336.798,0,346.028v111.35c0,9.231,7.483,16.714,16.714,16.714h176.777
			c9.231,0,16.714-7.483,16.714-16.714v-111.35C210.205,336.798,202.721,329.314,193.491,329.314z"/>
	</g>
</g>
<g>
	<g>
		<path d="M495.286,102.927h-65.498c-7.306-25.908-31.139-44.959-59.354-44.959h-18.833v123.347h18.833
			c28.214,0,52.046-19.052,59.354-44.961h65.498c9.231,0,16.714-7.483,16.714-16.714C512,110.409,504.517,102.927,495.286,102.927z"
			/>
	</g>
</g>
<g>
	<g>
		<path d="M301.689,37.908H16.714C7.483,37.908,0,45.392,0,54.622v130.037c0,9.231,7.483,16.714,16.714,16.714H88.57l-25.368,94.131
			h120.433l9.055-33.597h12.336c9.231,0,16.714-7.483,16.714-16.714c0-9.231-7.483-16.714-16.714-16.714h-3.327l7.305-27.104h92.687
			c9.231,0,16.714-7.483,16.714-16.714V54.622C318.403,45.392,310.92,37.908,301.689,37.908z"/>
	</g>
</g>
<g>
</g>
<g>
</g>
<g>
</g>
<g>
</g>
<g>
</g>
<g>
</g>
<g>
</g>
<g>
</g>
<g>
</g>
<g>
</g>
<g>
</g>
<g>
</g>
<g>
</g>
<g>
</g>
<g>
</g>
</svg>
