<?xml version="1.0" encoding="iso-8859-1"?>
<!-- Generator: Adobe Illustrator 19.0.0, SVG Export Plug-In . SVG Version: 6.00 Build 0)  -->
<svg version="1.1" id="Layer_1" xmlns="http://www.w3.org/2000/svg" xmlns:xlink="http://www.w3.org/1999/xlink" x="0px" y="0px"
	 viewBox="0 0 512 512" style="enable-background:new 0 0 512 512;" xml:space="preserve">
<g>
	<g>
		<path d="M495.322,236.326c9.211,0,16.678-7.467,16.678-16.678v-53.391c0-9.211-7.467-16.678-16.678-16.678h-19.868v-39.506
			c0-2.997-0.808-5.939-2.338-8.515l-31.688-53.368c-3.004-5.061-8.455-8.164-14.34-8.164c-5.885,0-11.336,3.102-14.34,8.164
			l-31.686,53.368c-1.53,2.576-2.338,5.518-2.338,8.515v39.506h-74.357v-39.506c0-2.997-0.808-5.939-2.338-8.515l-31.687-53.368
			c-3.004-5.061-8.455-8.164-14.34-8.164s-11.336,3.102-14.34,8.164l-31.688,53.368c-1.53,2.576-2.338,5.518-2.338,8.515v39.506
			h-74.356v-39.506c0-2.997-0.808-5.939-2.338-8.515L99.253,48.189c-3.004-5.061-8.455-8.164-14.34-8.164s-11.336,3.102-14.34,8.164
			l-31.689,53.368c-1.529,2.576-2.337,5.518-2.337,8.515v39.506H16.678C7.467,149.579,0,157.046,0,166.257v53.391
			c0,9.211,7.467,16.678,16.678,16.678h19.868v72.017H16.678C7.467,308.343,0,315.81,0,325.021v53.391
			c0,9.211,7.467,16.678,16.678,16.678h19.868v60.206c0,9.211,7.467,16.678,16.678,16.678h63.374
			c9.211,0,16.678-7.467,16.678-16.678V395.09h74.356v60.206c0,9.211,7.467,16.678,16.678,16.678h63.374
			c9.211,0,16.678-7.467,16.678-16.678V395.09h74.357v60.206c0,9.211,7.467,16.678,16.678,16.678h63.374
			c9.211,0,16.678-7.467,16.678-16.678V395.09h19.868c9.211,0,16.678-7.467,16.678-16.678v-53.391
			c0-9.211-7.467-16.678-16.678-16.678h-19.868v-72.017H495.322z M207.634,308.341h-74.356v-72.017h74.356V308.341z
			 M378.722,308.343h-74.357v-72.017h74.357V308.343z"/>
	</g>
</g>
<g>
</g>
<g>
</g>
<g>
</g>
<g>
</g>
<g>
</g>
<g>
</g>
<g>
</g>
<g>
</g>
<g>
</g>
<g>
</g>
<g>
</g>
<g>
</g>
<g>
</g>
<g>
</g>
<g>
</g>
</svg>
