<?xml version="1.0" encoding="iso-8859-1"?>
<!-- Generator: Adobe Illustrator 19.0.0, SVG Export Plug-In . SVG Version: 6.00 Build 0)  -->
<svg version="1.1" id="Layer_1" xmlns="http://www.w3.org/2000/svg" xmlns:xlink="http://www.w3.org/1999/xlink" x="0px" y="0px"
	 viewBox="0 0 512.001 512.001" style="enable-background:new 0 0 512.001 512.001;" xml:space="preserve">
<g>
	<g>
		<path d="M379.488,0H132.513c-9.319,0-16.874,7.554-16.874,16.874v126.638c0,9.319,7.554,16.874,16.874,16.874h246.975
			c9.319,0,16.874-7.554,16.874-16.874V16.874C396.361,7.554,388.807,0,379.488,0z M186.006,103.39
			c0,9.319-7.554,16.873-16.874,16.873c-9.319,0-16.874-7.554-16.874-16.873V52.394c0-9.319,7.554-16.874,16.874-16.874
			c9.319,0,16.874,7.554,16.874,16.874V103.39z"/>
	</g>
</g>
<g>
	<g>
		<path d="M379.488,194.131H132.513c-9.319,0-16.874,7.554-16.874,16.874v284.123c0,9.319,7.554,16.874,16.874,16.874h246.975
			c9.319,0,16.874-7.554,16.874-16.874V211.005C396.361,201.686,388.807,194.131,379.488,194.131z M186.006,297.997
			c0,9.319-7.554,16.874-16.874,16.874c-9.319,0-16.874-7.554-16.874-16.874v-50.995c0-9.319,7.554-16.874,16.874-16.874
			c9.319,0,16.874,7.554,16.874,16.874V297.997z"/>
	</g>
</g>
<g>
</g>
<g>
</g>
<g>
</g>
<g>
</g>
<g>
</g>
<g>
</g>
<g>
</g>
<g>
</g>
<g>
</g>
<g>
</g>
<g>
</g>
<g>
</g>
<g>
</g>
<g>
</g>
<g>
</g>
</svg>
