<?xml version="1.0" encoding="iso-8859-1"?>
<!-- Generator: Adobe Illustrator 19.0.0, SVG Export Plug-In . SVG Version: 6.00 Build 0)  -->
<svg version="1.1" id="Layer_1" xmlns="http://www.w3.org/2000/svg" xmlns:xlink="http://www.w3.org/1999/xlink" x="0px" y="0px"
	 viewBox="0 0 511.999 511.999" style="enable-background:new 0 0 511.999 511.999;" xml:space="preserve">
<g>
	<g>
		<path d="M234.916,336.252h-32.061l10.56-39.184L79.638,313.502L47.352,433.304c-5.023,18.636-1.012,38.908,10.726,54.227
			c11.738,15.32,30.269,24.468,49.569,24.468c28.169,0,52.964-18.997,60.295-46.196l25.843-95.893h41.132
			c9.294,0,16.829-7.535,16.829-16.829S244.21,336.252,234.916,336.252z"/>
	</g>
</g>
<g>
	<g>
		<path d="M478.511,2.234L358.329,70.865c-87.643-13.25-159.23-23.921-215.166-32.091C72.065,28.389,8.314,83.518,8.314,155.372
			c0,70.575,61.618,125.321,131.703,117.014l215.639-25.559l122.913,69.532c11.17,6.318,25.116-1.726,25.116-14.648V16.848
			C503.686,3.941,489.712-4.163,478.511,2.234z M116.5,201.281c-25.876,0-46.928-21.052-46.928-46.928s21.052-46.928,46.928-46.928
			c25.876,0,46.928,21.052,46.928,46.928S142.376,201.281,116.5,201.281z"/>
	</g>
</g>
<g>
</g>
<g>
</g>
<g>
</g>
<g>
</g>
<g>
</g>
<g>
</g>
<g>
</g>
<g>
</g>
<g>
</g>
<g>
</g>
<g>
</g>
<g>
</g>
<g>
</g>
<g>
</g>
<g>
</g>
</svg>
