<?xml version="1.0" encoding="iso-8859-1"?>
<!-- Generator: Adobe Illustrator 19.0.0, SVG Export Plug-In . SVG Version: 6.00 Build 0)  -->
<svg version="1.1" id="Layer_1" xmlns="http://www.w3.org/2000/svg" xmlns:xlink="http://www.w3.org/1999/xlink" x="0px" y="0px"
	 viewBox="0 0 512 512" style="enable-background:new 0 0 512 512;" xml:space="preserve">
<g>
	<g>
		<path d="M333.625,16.077C324.111,5.86,310.647,0,296.685,0h-81.368c-13.962,0-27.427,5.86-36.942,16.079
			c-9.514,10.218-14.4,24.067-13.405,37.992l17.068,238.896c0.616,8.617,7.785,15.292,16.424,15.292h115.078
			c8.638,0,15.808-6.675,16.424-15.292l17.068-238.899C348.025,40.144,343.14,26.297,333.625,16.077z M256.001,271.696
			c-13.58,0-24.589-11.009-24.589-24.589c0-13.58,11.009-24.589,24.589-24.589c13.58,0,24.589,11.009,24.589,24.589
			C280.59,260.687,269.581,271.696,256.001,271.696z M256.001,179.241c-13.58,0-24.589-11.009-24.589-24.589
			c0-13.58,11.009-24.589,24.589-24.589c13.58,0,24.589,11.009,24.589,24.589C280.59,168.232,269.581,179.241,256.001,179.241z"/>
	</g>
</g>
<g>
	<g>
		<path d="M346.645,468.302l-51.808-51.808l2.344-75.403h-82.362l2.344,75.403l-51.807,51.808
			c-7.348,7.348-9.526,18.298-5.549,27.895c3.975,9.6,13.259,15.803,23.649,15.803h145.089c10.389,0,19.672-6.202,23.648-15.801
			C356.172,486.599,353.993,475.648,346.645,468.302z"/>
	</g>
</g>
<g>
</g>
<g>
</g>
<g>
</g>
<g>
</g>
<g>
</g>
<g>
</g>
<g>
</g>
<g>
</g>
<g>
</g>
<g>
</g>
<g>
</g>
<g>
</g>
<g>
</g>
<g>
</g>
<g>
</g>
</svg>
