<?xml version="1.0" encoding="iso-8859-1"?>
<!-- Generator: Adobe Illustrator 19.0.0, SVG Export Plug-In . SVG Version: 6.00 Build 0)  -->
<svg version="1.1" id="Layer_1" xmlns="http://www.w3.org/2000/svg" xmlns:xlink="http://www.w3.org/1999/xlink" x="0px" y="0px"
	 viewBox="0 0 512.001 512.001" style="enable-background:new 0 0 512.001 512.001;" xml:space="preserve">
<g>
	<g>
		<path d="M449.04,44.89h-14.203V16.32c0-9.013-7.306-16.32-16.32-16.32H167.469c-9.013,0-16.32,7.306-16.32,16.32V106.1
			c0,9.013,7.306,16.32,16.32,16.32h251.049c9.013,0,16.32-7.306,16.32-16.32V77.53h14.203c9.013,0,16.319-7.306,16.319-16.319
			C465.359,52.197,458.053,44.89,449.04,44.89z"/>
	</g>
</g>
<g>
	<g>
		<path d="M338.369,465.903l-4.54-146.076c-0.274-8.812-7.496-15.814-16.312-15.814h-8.204V278.36
			c0-5.732-3.008-11.045-7.924-13.994L95.89,141.068c-10.244-6.147-16.608-17.385-16.608-29.332
			c0-18.861,15.345-34.206,34.206-34.206h3.104V44.891h-3.104c-36.859,0-66.846,29.987-66.846,66.845
			c0,23.346,12.436,45.309,32.455,57.32l197.577,118.544v16.414h-8.204c-8.815,0-16.038,7.001-16.312,15.813l-4.539,146.075
			c-0.782,25.181,19.476,46.098,44.687,46.098h1.377C318.875,512.001,339.152,491.101,338.369,465.903z"/>
	</g>
</g>
<g>
</g>
<g>
</g>
<g>
</g>
<g>
</g>
<g>
</g>
<g>
</g>
<g>
</g>
<g>
</g>
<g>
</g>
<g>
</g>
<g>
</g>
<g>
</g>
<g>
</g>
<g>
</g>
<g>
</g>
</svg>
