<?xml version="1.0" encoding="iso-8859-1"?>
<!-- Generator: Adobe Illustrator 19.0.0, SVG Export Plug-In . SVG Version: 6.00 Build 0)  -->
<svg version="1.1" id="Layer_1" xmlns="http://www.w3.org/2000/svg" xmlns:xlink="http://www.w3.org/1999/xlink" x="0px" y="0px"
	 viewBox="0 0 512.001 512.001" style="enable-background:new 0 0 512.001 512.001;" xml:space="preserve">
<g>
	<g>
		<path d="M77.648,62.855C34.833,62.855,0,97.688,0,140.503v230.995c0,42.815,34.833,77.648,77.648,77.648
			s77.649-34.833,77.649-77.648V140.503C155.297,97.688,120.463,62.855,77.648,62.855z"/>
	</g>
</g>
<g>
	<g>
		<path d="M494.926,61.368H212.003c-9.429,0-17.074,7.644-17.074,17.074v355.117c0,9.429,7.644,17.074,17.074,17.074h282.925
			c9.429,0,17.074-7.644,17.074-17.074V78.442C512,69.013,504.357,61.368,494.926,61.368z M296.732,395.685
			c0,3.772-3.057,6.83-6.829,6.83h-30.733c-3.772,0-6.83-3.057-6.83-6.83v-30.733c0-3.772,3.057-6.829,6.83-6.829h30.733
			c3.772,0,6.829,3.057,6.829,6.829V395.685z M296.732,317.146c0,3.772-3.057,6.83-6.829,6.83h-30.733
			c-3.772,0-6.83-3.057-6.83-6.83v-30.733c0-3.772,3.057-6.829,6.83-6.829h30.733c3.772,0,6.829,3.057,6.829,6.829V317.146z
			 M375.66,395.685c0,3.772-3.057,6.83-6.83,6.83h-30.733c-3.772,0-6.829-3.057-6.829-6.83v-30.733c0-3.772,3.057-6.829,6.829-6.829
			h30.733c3.772,0,6.83,3.057,6.83,6.829V395.685z M375.66,317.146c0,3.772-3.057,6.83-6.83,6.83h-30.733
			c-3.772,0-6.829-3.057-6.829-6.83v-30.733c0-3.772,3.057-6.829,6.829-6.829h30.733c3.772,0,6.83,3.057,6.83,6.829V317.146z
			 M454.589,395.685c0,3.772-3.058,6.83-6.83,6.83h-30.733c-3.772,0-6.83-3.057-6.83-6.83v-30.733c0-3.772,3.057-6.829,6.83-6.829
			h30.733c3.771,0,6.83,3.057,6.83,6.829V395.685z M454.589,317.146c0,3.772-3.058,6.83-6.83,6.83h-30.733
			c-3.772,0-6.83-3.057-6.83-6.83v-30.733c0-3.772,3.057-6.829,6.83-6.829h30.733c3.771,0,6.83,3.057,6.83,6.829V317.146z
			 M457.045,211.752c0,9.429-7.645,17.074-17.074,17.074H266.957c-9.429,0-17.074-7.644-17.074-17.074v-73.886
			c0-9.429,7.644-17.074,17.074-17.074h173.014c9.429,0,17.074,7.644,17.074,17.074V211.752z"/>
	</g>
</g>
<g>
</g>
<g>
</g>
<g>
</g>
<g>
</g>
<g>
</g>
<g>
</g>
<g>
</g>
<g>
</g>
<g>
</g>
<g>
</g>
<g>
</g>
<g>
</g>
<g>
</g>
<g>
</g>
<g>
</g>
</svg>
