<?xml version="1.0" encoding="iso-8859-1"?>
<!-- Generator: Adobe Illustrator 19.0.0, SVG Export Plug-In . SVG Version: 6.00 Build 0)  -->
<svg version="1.1" id="Layer_1" xmlns="http://www.w3.org/2000/svg" xmlns:xlink="http://www.w3.org/1999/xlink" x="0px" y="0px"
	 viewBox="0 0 511.999 511.999" style="enable-background:new 0 0 511.999 511.999;" xml:space="preserve">
<g>
	<g>
		<path d="M182.118,0c-17.593,0-31.855,14.262-31.855,31.855v76.939h63.711V31.855C213.974,14.262,199.712,0,182.118,0z"/>
	</g>
</g>
<g>
	<g>
		<path d="M329.881,0c-17.593,0-31.855,14.262-31.855,31.855v76.939h63.71V31.855C361.736,14.262,347.474,0,329.881,0z"/>
	</g>
</g>
<g>
	<g>
		<path d="M400.235,141.847h-288.47c-9.53,0-17.256,7.726-17.256,17.256v83.729c0,29.892,12.414,58.859,34.061,79.476
			c19.715,18.775,32.931,43.924,37.216,70.811l16.628,104.339c1.336,8.376,8.559,14.541,17.041,14.541h113.088
			c8.482,0,15.706-6.164,17.041-14.541l16.628-104.339c4.285-26.887,17.502-52.036,37.216-70.811
			c21.646-20.617,34.061-49.584,34.061-79.477v-83.729C417.491,149.572,409.765,141.847,400.235,141.847z"/>
	</g>
</g>
<g>
</g>
<g>
</g>
<g>
</g>
<g>
</g>
<g>
</g>
<g>
</g>
<g>
</g>
<g>
</g>
<g>
</g>
<g>
</g>
<g>
</g>
<g>
</g>
<g>
</g>
<g>
</g>
<g>
</g>
</svg>
