<?xml version="1.0" encoding="iso-8859-1"?>
<!-- Generator: Adobe Illustrator 19.0.0, SVG Export Plug-In . SVG Version: 6.00 Build 0)  -->
<svg version="1.1" id="Layer_1" xmlns="http://www.w3.org/2000/svg" xmlns:xlink="http://www.w3.org/1999/xlink" x="0px" y="0px"
	 viewBox="0 0 512.001 512.001" style="enable-background:new 0 0 512.001 512.001;" xml:space="preserve">
<g>
	<g>
		<path d="M493.885,246.89h-47.19v-22.454c0-10.005-8.11-18.115-18.115-18.115H83.418c-10.005,0-18.115,8.11-18.115,18.115v22.454
			H18.115C8.11,246.89,0,255,0,265.003c0,10.005,8.11,18.115,18.115,18.115h47.19V385.62c0,44.249,35.999,80.249,80.249,80.249
			h220.895c44.249,0,80.249-36,80.249-80.249V283.118h47.19c10.005,0,18.115-8.11,18.115-18.115
			C512,255,503.889,246.89,493.885,246.89z"/>
	</g>
</g>
<g>
	<g>
		<path d="M446.078,148.175c-10.652-39.719-46.812-67.46-87.935-67.46h-54.373c6.248-2.857,10.599-9.147,10.599-16.467
			c0-10.005-8.11-18.115-18.115-18.115h-80.508c-10.005,0-18.115,8.11-18.115,18.115c0,7.32,4.35,13.61,10.598,16.467h-54.374
			c-41.122,0-77.282,27.741-87.935,67.46c-1.459,5.44-0.304,11.249,3.125,15.718c3.428,4.469,8.739,7.089,14.371,7.089h345.163
			c5.632,0,10.944-2.62,14.372-7.089C446.382,159.425,447.536,153.616,446.078,148.175z"/>
	</g>
</g>
<g>
</g>
<g>
</g>
<g>
</g>
<g>
</g>
<g>
</g>
<g>
</g>
<g>
</g>
<g>
</g>
<g>
</g>
<g>
</g>
<g>
</g>
<g>
</g>
<g>
</g>
<g>
</g>
<g>
</g>
</svg>
