<?xml version="1.0" encoding="iso-8859-1"?>
<!-- Generator: Adobe Illustrator 19.0.0, SVG Export Plug-In . SVG Version: 6.00 Build 0)  -->
<svg version="1.1" id="Layer_1" xmlns="http://www.w3.org/2000/svg" xmlns:xlink="http://www.w3.org/1999/xlink" x="0px" y="0px"
	 viewBox="0 0 512 512" style="enable-background:new 0 0 512 512;" xml:space="preserve">
<g>
	<g>
		<path d="M469.572,179.25l-127.933,3.977c-8.794,0.273-15.781,7.482-15.781,16.279v5.192h-64.219v-22.801
			c0-8.995-7.292-16.287-16.287-16.287H16.287C7.292,165.611,0,172.902,0,181.897v92.338c0,39.786,32.368,72.154,72.154,72.154
			h117.332c39.786,0,72.153-32.368,72.153-72.154v-36.964h64.219v5.191c0,8.798,6.987,16.006,15.781,16.279l127.933,3.977
			c23.663,0.706,42.428-18.346,42.428-41.13C512,195.647,491.749,178.6,469.572,179.25z"/>
	</g>
</g>
<g>
</g>
<g>
</g>
<g>
</g>
<g>
</g>
<g>
</g>
<g>
</g>
<g>
</g>
<g>
</g>
<g>
</g>
<g>
</g>
<g>
</g>
<g>
</g>
<g>
</g>
<g>
</g>
<g>
</g>
</svg>
