<?xml version="1.0" encoding="iso-8859-1"?>
<!-- Generator: Adobe Illustrator 19.0.0, SVG Export Plug-In . SVG Version: 6.00 Build 0)  -->
<svg version="1.1" id="Layer_1" xmlns="http://www.w3.org/2000/svg" xmlns:xlink="http://www.w3.org/1999/xlink" x="0px" y="0px"
	 viewBox="0 0 512 512" style="enable-background:new 0 0 512 512;" xml:space="preserve">
<g>
	<g>
		<path d="M494.386,141.344c-6.938,0-12.922,4.022-15.793,9.851v-14.467c0-27.135-22.076-49.211-49.211-49.211h-16.023V52.064
			c0-9.729-7.887-17.615-17.615-17.615c-9.729,0-17.615,7.887-17.615,17.615v35.453h-22.313V22.707
			c0-9.728-7.887-17.615-17.615-17.615c-9.729,0-17.615,7.887-17.615,17.615v64.811H149.981c4.461-3.196,7.376-8.41,7.376-14.315
			c0-9.729-7.887-17.615-17.615-17.615H93.945c-9.728,0-17.615,7.887-17.615,17.615c0,5.905,2.917,11.119,7.376,14.315h-8.156
			C33.892,87.517,0,121.409,0,163.068v100.599c0,25.025,20.299,45.393,45.295,45.516v26.6c0,9.728,7.887,17.615,17.615,17.615
			c9.729,0,17.615-7.887,17.615-17.615v-26.595h0.275c25.101,0,45.521-20.42,45.521-45.521v-32.995h96.68
			c36.691,0,66.541,29.851,66.541,66.541c0,36.691-29.85,66.542-66.541,66.542H17.615C7.887,363.755,0,371.642,0,381.37v76.328
			c0,27.135,22.076,49.211,49.21,49.211h380.171c27.135,0,49.211-22.076,49.211-49.211V257.112c2.871,5.83,8.856,9.851,15.793,9.851
			c9.728,0,17.615-7.887,17.615-17.615v-90.391C512,149.231,504.115,141.344,494.386,141.344z M328.696,176.285
			c0,9.728-7.887,17.615-17.615,17.615c-9.729,0-17.615-7.887-17.615-17.615v-34.653c0-9.729,7.887-17.615,17.615-17.615
			c9.728,0,17.615,7.887,17.615,17.615V176.285z M348.127,176.285v-34.653c0-9.729,7.887-17.615,17.615-17.615
			c9.728,0,17.615,7.887,17.615,17.615v34.653c0,9.728-7.887,17.615-17.615,17.615C356.014,193.899,348.127,186.012,348.127,176.285
			z M380.282,451.937c-14.529,0-26.307-11.778-26.307-26.307s11.778-26.307,26.307-26.307s26.307,11.778,26.307,26.307
			C406.588,440.159,394.81,451.937,380.282,451.937z M438.019,176.285c0,9.728-7.887,17.615-17.615,17.615
			c-9.728,0-17.615-7.887-17.615-17.615v-34.653c0-9.729,7.887-17.615,17.615-17.615c9.729,0,17.615,7.887,17.615,17.615V176.285z"
			/>
	</g>
</g>
<g>
</g>
<g>
</g>
<g>
</g>
<g>
</g>
<g>
</g>
<g>
</g>
<g>
</g>
<g>
</g>
<g>
</g>
<g>
</g>
<g>
</g>
<g>
</g>
<g>
</g>
<g>
</g>
<g>
</g>
</svg>
