<?xml version="1.0" encoding="iso-8859-1"?>
<!-- Generator: Adobe Illustrator 19.0.0, SVG Export Plug-In . SVG Version: 6.00 Build 0)  -->
<svg version="1.1" id="Layer_1" xmlns="http://www.w3.org/2000/svg" xmlns:xlink="http://www.w3.org/1999/xlink" x="0px" y="0px"
	 viewBox="0 0 511.999 511.999" style="enable-background:new 0 0 511.999 511.999;" xml:space="preserve">
<g>
	<g>
		<path d="M404.369,209.739c-30.642,0-225.652,0-252.387,0c-36.022,5.765-63.636,37.047-63.636,74.669v39.688H61.734
			c-9.798,0-17.741,7.943-17.741,17.741s7.943,17.741,17.741,17.741h26.611v97.576c0,9.798,7.943,17.741,17.741,17.741h15.967
			v19.364c0,9.798,7.943,17.741,17.741,17.741s17.741-7.943,17.741-17.741v-19.364h241.28v19.364
			c0,9.798,7.943,17.741,17.741,17.741s17.741-7.943,17.741-17.741v-19.364h15.967c9.799,0,17.741-7.943,17.741-17.741V284.408
			C468.005,246.787,440.391,215.504,404.369,209.739z"/>
	</g>
</g>
<g>
	<g>
		<path d="M420.053,75.002c-13.468-18.185-34.568-35.876-59.411-49.814C332.109,9.18,301.811,0,277.512,0
			c-30.316,0-42.736,14.068-47.442,22.454c-4.686,8.354-9.714,25.139,3.813,49.187l-57.573,102.615
			c7.407,0.001,193.814,0.001,201.393,0.001l9.361-16.685c27.803-1.028,39.444-14.323,43.961-22.375
			C436.435,125.553,442.205,104.91,420.053,75.002z"/>
	</g>
</g>
<g>
</g>
<g>
</g>
<g>
</g>
<g>
</g>
<g>
</g>
<g>
</g>
<g>
</g>
<g>
</g>
<g>
</g>
<g>
</g>
<g>
</g>
<g>
</g>
<g>
</g>
<g>
</g>
<g>
</g>
</svg>
