<?xml version="1.0" encoding="iso-8859-1"?>
<!-- Generator: Adobe Illustrator 19.0.0, SVG Export Plug-In . SVG Version: 6.00 Build 0)  -->
<svg version="1.1" id="Layer_1" xmlns="http://www.w3.org/2000/svg" xmlns:xlink="http://www.w3.org/1999/xlink" x="0px" y="0px"
	 viewBox="0 0 512 512" style="enable-background:new 0 0 512 512;" xml:space="preserve">
<g>
	<g>
		<path d="M430.938,154.607h-31.084l10.963-97.427c0.564-5.007-1.034-10.015-4.391-13.771c-3.357-3.756-8.156-5.904-13.193-5.904
			h-90.836c5.577-2.979,9.374-8.851,9.374-15.615c0-9.773-7.923-17.696-17.696-17.696H163.574c-9.773,0-17.696,7.923-17.696,17.696
			c0,6.764,3.797,12.636,9.374,15.615H17.696c-6.503,0-12.482,3.566-15.571,9.288C-0.965,52.514-0.667,59.469,2.9,64.906
			l63.463,96.743l48.369,331.02c1.271,8.692,8.725,15.137,17.51,15.137h212.056c9.008,0,16.578-6.766,17.584-15.718l10.506-93.377
			h58.404c44.778,0,81.208-36.429,81.208-81.208v-81.837C512,190.971,475.636,154.607,430.938,154.607z M353.734,247.969H114.743
			l-13.927-95.311c-0.372-2.551-1.299-4.991-2.714-7.147L50.468,72.897h322.965L353.734,247.969z M430.792,363.322H376.37
			l7.165-63.682l12.336-109.641h35.066c25.183,0,45.67,20.487,45.67,45.67v81.837h0.001
			C476.608,342.769,456.055,363.322,430.792,363.322z"/>
	</g>
</g>
<g>
</g>
<g>
</g>
<g>
</g>
<g>
</g>
<g>
</g>
<g>
</g>
<g>
</g>
<g>
</g>
<g>
</g>
<g>
</g>
<g>
</g>
<g>
</g>
<g>
</g>
<g>
</g>
<g>
</g>
</svg>
