<?xml version="1.0" encoding="iso-8859-1"?>
<!-- Generator: Adobe Illustrator 19.0.0, SVG Export Plug-In . SVG Version: 6.00 Build 0)  -->
<svg version="1.1" id="Layer_1" xmlns="http://www.w3.org/2000/svg" xmlns:xlink="http://www.w3.org/1999/xlink" x="0px" y="0px"
	 viewBox="0 0 512.001 512.001" style="enable-background:new 0 0 512.001 512.001;" xml:space="preserve">
<g>
	<g>
		<path d="M511.313,137.217c-0.606-6.495-4.91-12.056-11.046-14.269c-6.138-2.215-13-0.682-17.612,3.93l-52.063,52.063
			l-76.94-20.616l-20.614-76.939L385.1,29.322c4.612-4.612,6.145-11.476,3.93-17.612c-2.214-6.136-7.774-10.441-14.269-11.046
			c-44.151-4.115-88.385,10.932-121.116,43.663c-39.497,39.497-53.829,97.519-37.959,150.503L21.007,389.508
			c-27.973,27.973-27.973,73.489,0,101.462c28.039,28.041,73.423,28.042,101.463,0l194.675-194.675
			c51.073,15.314,109.323,3.222,150.505-37.96C499.592,226.391,515.508,182.245,511.313,137.217z"/>
	</g>
</g>
<g>
</g>
<g>
</g>
<g>
</g>
<g>
</g>
<g>
</g>
<g>
</g>
<g>
</g>
<g>
</g>
<g>
</g>
<g>
</g>
<g>
</g>
<g>
</g>
<g>
</g>
<g>
</g>
<g>
</g>
</svg>
