<?xml version="1.0" encoding="iso-8859-1"?>
<!-- Generator: Adobe Illustrator 19.0.0, SVG Export Plug-In . SVG Version: 6.00 Build 0)  -->
<svg version="1.1" id="Layer_1" xmlns="http://www.w3.org/2000/svg" xmlns:xlink="http://www.w3.org/1999/xlink" x="0px" y="0px"
	 viewBox="0 0 512.001 512.001" style="enable-background:new 0 0 512.001 512.001;" xml:space="preserve">
<g>
	<g>
		<path d="M380.609,127.82C379.466,59.001,322.752,4.138,253.932,5.28S130.251,63.137,131.393,131.956
			c1.142,68.819,57.856,123.682,126.676,122.539C326.887,253.354,381.751,196.639,380.609,127.82z M307.083,179.302
			c-13.199,13.645-30.921,21.333-49.902,21.647c-0.397,0.006-0.801,0.01-1.196,0.01c-38.647,0.004-70.401-31.107-71.045-69.892
			c-0.315-18.981,6.78-36.95,19.979-50.594c13.199-13.645,30.921-21.333,49.902-21.647c39.209-0.625,71.59,30.7,72.241,69.883
			C327.377,147.69,320.282,165.658,307.083,179.302z"/>
	</g>
</g>
<g>
	<g>
		<path d="M256.013,75.472c-0.305,0-0.61,0.002-0.916,0.007c-14.533,0.242-28.102,6.127-38.207,16.574s-15.539,24.204-15.296,38.737
			c0.499,30,25.291,54.039,55.31,53.505c14.533-0.242,28.102-6.127,38.207-16.574c10.107-10.447,15.539-24.204,15.298-38.735
			C309.916,99.291,285.601,75.472,256.013,75.472z"/>
	</g>
</g>
<g>
	<g>
		<path d="M249.234,380.044c-1.142-68.819-57.857-123.682-126.676-122.539S-1.125,315.362,0.018,384.181
			S57.874,507.862,126.694,506.72S250.376,448.863,249.234,380.044z M125.806,453.174c-0.397,0.006-0.801,0.01-1.196,0.01
			c-38.649,0.004-70.403-31.107-71.046-69.892c-0.315-18.981,6.78-36.95,19.98-50.594c13.199-13.645,30.921-21.333,49.902-21.647
			c39.215-0.62,71.59,30.7,72.241,69.883C196.339,420.117,164.989,452.524,125.806,453.174z"/>
	</g>
</g>
<g>
	<g>
		<path d="M124.639,327.697c-0.305,0-0.61,0.002-0.916,0.007c-14.533,0.242-28.102,6.127-38.208,16.574
			c-10.106,10.447-15.539,24.204-15.296,38.737c0.498,30,25.308,54.038,55.311,53.505c30-0.497,54.003-25.31,53.505-55.31
			C178.541,351.515,154.227,327.697,124.639,327.697z"/>
	</g>
</g>
<g>
	<g>
		<path d="M511.983,380.044c-1.142-68.819-57.857-123.682-126.676-122.539c-68.819,1.142-123.683,57.857-122.541,126.676
			s57.857,123.682,126.676,122.539C458.263,505.578,513.125,448.863,511.983,380.044z M438.457,431.526
			c-13.199,13.645-30.921,21.333-49.902,21.647c-0.397,0.006-0.801,0.01-1.196,0.01c-38.647,0.004-70.402-31.107-71.045-69.892
			c-0.651-39.184,30.699-71.59,69.882-72.241c39.219-0.653,71.591,30.7,72.242,69.883
			C458.752,399.914,451.657,417.883,438.457,431.526z"/>
	</g>
</g>
<g>
	<g>
		<path d="M387.388,327.697c-0.305,0-0.61,0.002-0.916,0.007c-30,0.497-54.003,25.31-53.505,55.311
			c0.497,30,25.352,54.015,55.31,53.505c14.533-0.242,28.102-6.127,38.208-16.574s15.54-24.204,15.299-38.735
			C441.291,351.515,416.977,327.697,387.388,327.697z"/>
	</g>
</g>
<g>
</g>
<g>
</g>
<g>
</g>
<g>
</g>
<g>
</g>
<g>
</g>
<g>
</g>
<g>
</g>
<g>
</g>
<g>
</g>
<g>
</g>
<g>
</g>
<g>
</g>
<g>
</g>
<g>
</g>
</svg>
