<?xml version="1.0" encoding="iso-8859-1"?>
<!-- Generator: Adobe Illustrator 19.0.0, SVG Export Plug-In . SVG Version: 6.00 Build 0)  -->
<svg version="1.1" id="Layer_1" xmlns="http://www.w3.org/2000/svg" xmlns:xlink="http://www.w3.org/1999/xlink" x="0px" y="0px"
	 viewBox="0 0 512 512" style="enable-background:new 0 0 512 512;" xml:space="preserve">
<g>
	<g>
		<path d="M326.065,416.999H291.37v-34.067l-37.173,4.776v29.29H120.372v-29.29l-37.173-4.776v34.067H48.504
			c-10.265,0-18.587,8.322-18.587,18.587c0,10.265,8.322,18.587,18.587,18.587h277.561c10.265,0,18.587-8.322,18.587-18.587
			C344.652,425.321,336.33,416.999,326.065,416.999z"/>
	</g>
</g>
<g>
	<g>
		<path d="M0.178,80.596v0.045v266.967H0c20.963,6.196,42.308,10.198,63.373,13.655V67.078
			C42.308,70.533,21.243,75.007,0.178,80.596z"/>
	</g>
</g>
<g>
	<g>
		<path d="M207.089,58.894h-40.232c-9.021,0-17.986,0.067-26.659,0.442v315.531h94.173V59.337
			C225.697,58.961,216.11,58.894,207.089,58.894z"/>
	</g>
</g>
<g>
	<g>
		<polygon points="80.721,63.193 80.721,365.146 122.851,370.513 122.851,57.828 		"/>
	</g>
</g>
<g>
	<g>
		<polygon points="251.718,57.828 251.718,370.513 293.848,365.146 293.848,63.193 		"/>
	</g>
</g>
<g>
	<g>
		<path d="M502.018,267.324v-62.43c0-16.597-8.316-31.445-21.065-40.117v-19.801v-0.582h3.717c10.265,0,18.587-8.322,18.587-18.587
			c0-10.265-8.322-18.587-18.587-18.587h-45.847c-10.265,0-18.587,8.322-18.587,18.587c0,5.393,2.311,10.235,5.98,13.63
			c3.315,3.067,7.735,4.956,12.607,4.956h4.956v12.391h-69.39v-17.348V81.198h0.178c-20.963-6.196-42.308-10.665-63.373-14.122
			v294.186c21.065-3.457,42.409-7.459,63.373-13.655h-0.178V223.696v-17.348h78.064v61.688c-5.253,3.285-8.757,9.102-8.757,15.754
			c0,7.374,4.306,13.418,10.531,16.422c2.44,1.177,5.166,1.548,8.055,1.548h31.13c2.891,0,5.616-0.37,8.055-1.548
			c6.225-3.004,10.531-9.047,10.531-16.422C512,276.632,507.948,270.431,502.018,267.324z"/>
	</g>
</g>
<g>
</g>
<g>
</g>
<g>
</g>
<g>
</g>
<g>
</g>
<g>
</g>
<g>
</g>
<g>
</g>
<g>
</g>
<g>
</g>
<g>
</g>
<g>
</g>
<g>
</g>
<g>
</g>
<g>
</g>
</svg>
