<?xml version="1.0" encoding="iso-8859-1"?>
<!-- Generator: Adobe Illustrator 19.0.0, SVG Export Plug-In . SVG Version: 6.00 Build 0)  -->
<svg version="1.1" id="Layer_1" xmlns="http://www.w3.org/2000/svg" xmlns:xlink="http://www.w3.org/1999/xlink" x="0px" y="0px"
	 viewBox="0 0 512.001 512.001" style="enable-background:new 0 0 512.001 512.001;" xml:space="preserve">
<g>
	<g>
		<path d="M419.674,183.203h-73.146v-38.604h-37.979c-14.219,32.391-44.957,55.804-81.274,59.816
			c-3.669,0.405-7.347,0.604-11.005,0.604c-24.508,0-48.413-8.969-66.928-25.389c-10.532-9.341-18.189-21.546-22.276-35.03h-69.4
			V363.44c0,32.029,2.991,63.981,9.233,95.398l9.769,35.856c1.97,9.916,10.595,17.308,20.705,17.308h209.49
			c10.109,0,18.811-7.392,20.781-17.308l9.845-35.732c0.523-2.63,0.984-5.333,1.463-7.97
			c72.638-1.131,131.374-60.622,131.374-133.524v-84.221C470.326,205.308,447.611,183.203,419.674,183.203z M145.522,393.526
			c0,7.351-5.961,13.312-13.312,13.312c-7.351,0-13.312-5.961-13.312-13.312v-34.61c0-7.351,5.961-13.312,13.312-13.312
			c7.351,0,13.312,5.961,13.312,13.312V393.526z M145.522,280.378c0,7.351-5.961,13.312-13.312,13.312
			c-7.351,0-13.312-5.961-13.312-13.312v-34.61c0-7.351,5.961-13.312,13.312-13.312c7.351,0,13.312,5.961,13.312,13.312V280.378z
			 M216.074,393.526c0,7.351-5.961,13.312-13.312,13.312c-7.351,0-13.312-5.961-13.312-13.312v-34.61
			c0-7.351,5.961-13.312,13.312-13.312c7.351,0,13.312,5.961,13.312,13.312V393.526z M216.074,280.378
			c0,7.351-5.961,13.312-13.312,13.312c-7.351,0-13.312-5.961-13.312-13.312v-34.61c0-7.351,5.961-13.312,13.312-13.312
			c7.351,0,13.312,5.961,13.312,13.312V280.378z M285.294,393.526c0,7.351-5.961,13.312-13.312,13.312
			c-7.351,0-13.312-5.961-13.312-13.312v-34.61c0-7.351,5.961-13.312,13.312-13.312c7.351,0,13.312,5.961,13.312,13.312V393.526z
			 M285.294,280.378c0,7.351-5.961,13.312-13.312,13.312c-7.351,0-13.312-5.961-13.312-13.312v-34.61
			c0-7.351,5.961-13.312,13.312-13.312c7.351,0,13.312,5.961,13.312,13.312V280.378z M430.391,317.466
			c0,48.98-38.009,89.262-85.99,93.208c1.522-15.69,2.127-31.454,2.127-47.236V223.138h73.146c5.917,0,10.717,4.19,10.717,10.109
			V317.466z"/>
	</g>
</g>
<g>
	<g>
		<path d="M299.604,38.846c-15.689,0-30.719,5.805-42.32,16.345c-2.315,2.106-5.54,2.906-8.569,2.134
			c-3.034-0.773-5.475-3.019-6.501-5.976C231.561,20.636,202.561,0,170.054,0c-34.204,0-64.466,23.005-73.591,55.945
			c-1.239,4.471-5.59,7.348-10.181,6.752c-1.774-0.23-3.509-0.347-5.154-0.347c-21.755,0.001-39.453,17.706-39.453,39.468
			c0,8.642,2.818,16.747,8.388,24.146h73.746c-0.032-0.616-0.083-1.231-0.1-1.85c-0.148-5.144,3.903-9.434,9.047-9.582
			c5.146-0.161,9.434,3.903,9.582,9.047c0.467,16.259,7.526,31.606,19.37,42.109c17.345,15.383,40.506,22.748,63.522,20.204
			c36.576-4.039,66.219-32.213,72.085-68.515c0.821-5.078,5.595-8.533,10.685-7.711c5.08,0.82,8.533,5.606,7.711,10.685
			c-0.306,1.892-0.683,3.759-1.093,5.614h43.038c3.333-8.135,4.904-15.926,4.904-24.146
			C362.56,67.095,334.318,38.846,299.604,38.846z"/>
	</g>
</g>
<g>
</g>
<g>
</g>
<g>
</g>
<g>
</g>
<g>
</g>
<g>
</g>
<g>
</g>
<g>
</g>
<g>
</g>
<g>
</g>
<g>
</g>
<g>
</g>
<g>
</g>
<g>
</g>
<g>
</g>
</svg>
