<?xml version="1.0" encoding="iso-8859-1"?>
<!-- Generator: Adobe Illustrator 19.0.0, SVG Export Plug-In . SVG Version: 6.00 Build 0)  -->
<svg version="1.1" id="Layer_1" xmlns="http://www.w3.org/2000/svg" xmlns:xlink="http://www.w3.org/1999/xlink" x="0px" y="0px"
	 viewBox="0 0 512.002 512.002" style="enable-background:new 0 0 512.002 512.002;" xml:space="preserve">
<g>
	<g>
		<path d="M446.606,166.935c-51.065,10.739-118.736,16.651-190.675,16.651s-139.505-5.914-190.57-16.651
			c-29.214-6.143-51.38-13.326-65.079-21.666v39.897c9.133,6.101,28.316,14.084,63.338,21.448
			c51.311,10.79,119.614,16.731,192.451,16.731s141.035-5.941,192.346-16.731c35.021-7.364,54.17-15.348,63.303-21.448v-39.897
			C498.021,153.609,475.82,160.792,446.606,166.935z"/>
	</g>
</g>
<g>
	<g>
		<path d="M452.768,386.634c-52.71,11.084-122.569,17.188-196.837,17.188s-144.022-6.104-196.732-17.188
			c-25.035-5.264-45.218-11.262-58.917-18.057v26.564c0,3.781,12.654,17.267,69.499,29.219
			c49.664,10.443,115.778,16.196,186.29,16.196s136.521-5.751,186.185-16.196c56.846-11.953,69.464-25.438,69.464-29.219v-26.564
			C498.021,375.372,477.802,381.371,452.768,386.634z"/>
	</g>
</g>
<g>
	<g>
		<path d="M442.362,87.641c-49.664-10.443-115.848-16.196-186.361-16.196S119.304,77.198,69.639,87.641
			C12.794,99.594,0,113.079,0,116.86c0,3.781,12.794,17.267,69.639,29.22c49.666,10.443,115.848,16.196,186.361,16.196
			s136.696-5.751,186.361-16.196c56.846-11.955,69.639-25.44,69.639-29.22C512.002,113.079,499.208,99.593,442.362,87.641z"/>
	</g>
</g>
<g>
	<g>
		<path d="M452.766,227.469c-0.183,0.038-0.228,0.075-0.411,0.113v17.765c0,5.885-4.77,10.655-10.655,10.655
			s-10.655-4.77-10.655-10.655v-13.736c-46.746,7.984-103.903,12.521-164.391,12.999v25.091c0,5.885-4.77,10.655-10.655,10.655
			s-10.655-4.77-10.655-10.655V244.61c-60.488-0.478-117.645-5.015-164.391-12.999v13.736c0,5.885-4.77,10.655-10.655,10.655
			s-10.655-4.77-10.655-10.655v-17.765c-0.183-0.038-0.228-0.075-0.411-0.113c-25.035-5.264-45.253-11.262-58.952-18.057v134.921
			c9.134,6.101,28.316,14.084,63.338,21.448c51.311,10.79,119.614,16.731,192.452,16.731s141.035-5.941,192.346-16.731
			c35.021-7.364,54.17-15.348,63.303-21.448V209.412C498.019,216.208,477.801,222.205,452.766,227.469z"/>
	</g>
</g>
<g>
</g>
<g>
</g>
<g>
</g>
<g>
</g>
<g>
</g>
<g>
</g>
<g>
</g>
<g>
</g>
<g>
</g>
<g>
</g>
<g>
</g>
<g>
</g>
<g>
</g>
<g>
</g>
<g>
</g>
</svg>
