<?xml version="1.0" encoding="iso-8859-1"?>
<!-- Generator: Adobe Illustrator 19.0.0, SVG Export Plug-In . SVG Version: 6.00 Build 0)  -->
<svg version="1.1" id="Layer_1" xmlns="http://www.w3.org/2000/svg" xmlns:xlink="http://www.w3.org/1999/xlink" x="0px" y="0px"
	 viewBox="0 0 512 512" style="enable-background:new 0 0 512 512;" xml:space="preserve">
<g>
	<g>
		<path d="M452.825,133.59h-29.105h-17.616v-0.001v-8.83h-34.046c-12.88,18.921-33.706,32.461-57.576,35.098
			c-2.915,0.322-5.836,0.588-8.744,0.588c-19.464,0-38.452-7.286-53.157-20.327c-4.923-4.366-9.052-9.052-12.296-15.358h-53.66
			v175.33h219.478V171.43h17.616h29.106c10.868,0,20.13,8.481,20.13,19.348v111.482c0,6.13-3.026,11.615-7.43,15.232
			c9.855,8.025,17.735,18.499,22.518,30.484c13.753-10.526,22.751-27.098,22.751-45.715V190.78
			C510.797,159.047,484.559,133.59,452.825,133.59z"/>
	</g>
</g>
<g>
	<g>
		<path d="M372.286,30.197c-11.825,0-23.152,4.402-31.895,12.346c-2.195,1.995-5.246,2.765-8.119,2.035
			c-2.875-0.733-5.189-2.853-6.161-5.656C318.038,15.64,296.055,0,271.411,0c-25.929,0-48.868,17.441-55.785,42.411
			c-1.174,4.24-5.298,6.967-9.653,6.399c-1.329-0.174-2.573-0.259-3.804-0.259c-16.071,0.001-29.146,13.077-29.146,29.148
			c0,6.678,2.293,13.2,6.457,25.43c0.454,1.336,0.928,2.708,1.422,3.97h52.614c-0.817-3.784-1.311-7.389-1.423-11.289
			c-0.14-4.874,3.698-8.832,8.572-8.972c4.835-0.164,8.939,3.751,9.079,8.625c0.352,12.228,5.656,23.793,14.554,31.683
			c13.175,11.684,30.757,17.291,48.245,15.358c27.779-3.068,50.293-24.458,54.75-52.03c0.778-4.813,5.322-8.088,10.125-7.303
			c4.813,0.777,8.087,5.098,7.307,9.913c-0.793,4.912-2.05,10.232-3.692,14.016h33.917c0.29-1.261,0.569-2.557,0.836-3.854
			c2.545-12.364,3.948-19.066,3.948-25.655C419.733,51.43,398.448,30.197,372.286,30.197z"/>
	</g>
</g>
<g>
	<g>
		<path d="M34.62,462.807C38.43,490.557,62.463,512,91.467,512h326.547c29.004,0,53.037-21.443,56.847-49.193H34.62z"/>
	</g>
</g>
<g>
	<g>
		<path d="M418.013,317.749H91.467c-29.004,0-53.037,22.705-56.847,50.455H474.86C471.05,340.454,447.017,317.749,418.013,317.749z"
			/>
	</g>
</g>
<g>
	<g>
		<path d="M485.256,385.863H25.483c-13.41,0-24.28,10.87-24.28,24.279v10.727c0,13.408,10.87,24.279,24.28,24.279h459.773
			c13.41,0,24.28-10.87,24.28-24.279v-10.727C509.537,396.734,498.666,385.863,485.256,385.863z"/>
	</g>
</g>
<g>
</g>
<g>
</g>
<g>
</g>
<g>
</g>
<g>
</g>
<g>
</g>
<g>
</g>
<g>
</g>
<g>
</g>
<g>
</g>
<g>
</g>
<g>
</g>
<g>
</g>
<g>
</g>
<g>
</g>
</svg>
