<?xml version="1.0" encoding="iso-8859-1"?>
<!-- Generator: Adobe Illustrator 19.0.0, SVG Export Plug-In . SVG Version: 6.00 Build 0)  -->
<svg version="1.1" id="Layer_1" xmlns="http://www.w3.org/2000/svg" xmlns:xlink="http://www.w3.org/1999/xlink" x="0px" y="0px"
	 viewBox="0 0 512 512" style="enable-background:new 0 0 512 512;" xml:space="preserve">
<g>
	<g>
		<path d="M493.177,94.789H18.824C8.428,94.789,0,103.217,0,113.613c0,10.396,8.428,18.824,18.824,18.824H47.36h20.052
			l47.789,87.007c0.941,1.71,2.487,2.044,3.326,2.044s2.386-0.373,3.327-2.083l47.788-86.968h35.243l47.788,87.007
			c0.941,1.71,2.488,2.044,3.327,2.044c0.838,0,2.386-0.373,3.327-2.083l47.788-86.969h35.243l47.788,87.007
			c0.941,1.71,2.489,2.044,3.327,2.044s2.384-0.373,3.326-2.082l47.789-86.97h20.052h28.539c10.396,0,18.823-8.428,18.823-18.824
			C512,103.217,503.572,94.789,493.177,94.789z"/>
	</g>
</g>
<g>
	<g>
		<path d="M493.177,290.554H18.824C8.428,290.554,0,298.982,0,309.377c0,10.396,8.428,18.824,18.824,18.824H47.36h20.052
			l47.789,86.98c0.941,1.71,2.487,2.03,3.326,2.03s2.386-0.351,3.327-2.062l47.788-86.948h35.243l47.788,86.98
			c0.941,1.71,2.488,2.03,3.327,2.03c0.838,0,2.386-0.351,3.327-2.062l47.788-86.948h35.243l47.788,86.98
			c0.941,1.71,2.489,2.03,3.327,2.03s2.384-0.351,3.326-2.062l47.789-86.948h20.052h28.539c10.396,0,18.823-8.428,18.823-18.823
			C512,298.982,503.572,290.554,493.177,290.554z"/>
	</g>
</g>
<g>
</g>
<g>
</g>
<g>
</g>
<g>
</g>
<g>
</g>
<g>
</g>
<g>
</g>
<g>
</g>
<g>
</g>
<g>
</g>
<g>
</g>
<g>
</g>
<g>
</g>
<g>
</g>
<g>
</g>
</svg>
