<?xml version="1.0" encoding="iso-8859-1"?>
<!-- Generator: Adobe Illustrator 19.0.0, SVG Export Plug-In . SVG Version: 6.00 Build 0)  -->
<svg version="1.1" id="Layer_1" xmlns="http://www.w3.org/2000/svg" xmlns:xlink="http://www.w3.org/1999/xlink" x="0px" y="0px"
	 viewBox="0 0 512 512" style="enable-background:new 0 0 512 512;" xml:space="preserve">
<g>
	<g>
		<path d="M398.252,125.373c-22.376,5.042-46.007,5.377-68.495,0.933l-34.145-6.532L161.979,262.952h139.93
			c0.388,0,0.776-0.185,1.161-0.132l86.346,11.909c-0.173-2.891-0.233-5.857-0.166-8.784c-7.476-4.627-13.336-11.695-16.592-20.571
			c-0.705-1.924-1.716-3.933-1.716-5.947v-0.007c-9.621-34.333,2.535-76.507,19.011-103.069
			C391.525,133.815,394.344,129.955,398.252,125.373z"/>
	</g>
</g>
<g>
	<g>
		<path d="M393.225,295.565c-0.368-1.165-0.74-2.147-1.057-3.352l-90.842-12.424H146.243l-81.366,86.887
			c16.836-1.69,34.05-5.081,51.508-9.799c84.969-22.958,195.625-35.01,299.055-32.975v-3.513
			C404.616,315.791,396.858,307.06,393.225,295.565z"/>
	</g>
</g>
<g>
	<g>
		<path d="M484.039,97.138c-2.407-5.631-5.466-6.597-8.142-6.8c-0.369-0.028-0.749-0.042-1.132-0.042
			c-21.095,0-62.474,41.667-70.699,54.926c-14.064,22.675-25.476,60.404-17.297,89.657c0,0,0,0,0,0.001
			c0.445,1.591,0.95,3.162,1.503,4.67c0.796,2.17,1.889,4.143,3.196,5.917c4.116-21.746,13.406-42.666,23.914-58.004
			c2.559-3.737,8.351-10.377,16.058-17.889c0.526-1.948,1.102-3.909,1.792-5.889c9.163-26.311,28.927-42.064,47.052-54.003
			C484.407,106.967,485.986,101.691,484.039,97.138z"/>
	</g>
</g>
<g>
	<g>
		<path d="M511.346,152.578c-2.149-5.734-5.162-6.838-7.825-7.162c-0.609-0.075-1.24-0.111-1.889-0.111
			c-21.334,0-63.646,38.956-72.359,51.674c-15.08,22.013-28.194,59.184-21.351,88.779c0,0.001,0,0.001,0,0.001
			c0.373,1.612,0.806,3.204,1.289,4.733c3.966,12.554,17.403,19.541,29.955,15.573c14.68-4.639,17.414-18.667,15.294-29.271
			c-3.446-17.238-5.77-37.853,3.109-60.046c10.348-25.867,30.808-40.706,49.456-51.811
			C511.266,162.413,513.084,157.214,511.346,152.578z"/>
	</g>
</g>
<g>
	<g>
		<path d="M455.88,342.325c-111.739-6.635-240.276,5.167-335.173,30.807C78.792,384.457,38.244,387.777,0,382.506
			c4.641,22.204,24.37,39.199,47.931,39.199H451.12c9.313,0,17.238-8.111,17.238-17.424v-61.225L455.88,342.325z"/>
	</g>
</g>
<g>
</g>
<g>
</g>
<g>
</g>
<g>
</g>
<g>
</g>
<g>
</g>
<g>
</g>
<g>
</g>
<g>
</g>
<g>
</g>
<g>
</g>
<g>
</g>
<g>
</g>
<g>
</g>
<g>
</g>
</svg>
