<?xml version="1.0" encoding="iso-8859-1"?>
<!-- Generator: Adobe Illustrator 19.0.0, SVG Export Plug-In . SVG Version: 6.00 Build 0)  -->
<svg version="1.1" id="Layer_1" xmlns="http://www.w3.org/2000/svg" xmlns:xlink="http://www.w3.org/1999/xlink" x="0px" y="0px"
	 viewBox="0 0 512 512" style="enable-background:new 0 0 512 512;" xml:space="preserve">
<g>
	<g>
		<path d="M504.417,329.234L288.192,178.333c5.635-1.314,9.838-6.223,9.838-12.257c0-7.033-5.702-12.603-12.736-12.603h-16.557
			V63.045c0-7.033-5.702-12.736-12.736-12.736c-7.034,0-12.736,5.703-12.736,12.736v90.428h-16.557
			c-7.034,0-12.736,5.703-12.736,12.736c0,6.034,4.202,10.809,9.838,12.124L7.583,329.234h31.12l187.568-131.136l-77.362,131.136
			h20.702L256,182.795l86.388,146.438h20.702l-77.362-131.136l187.569,131.136H504.417z"/>
	</g>
</g>
<g>
	<g>
		<path d="M0,347.065v28.906c0,22.882,17.493,41.881,39.483,45.14v27.844c0,7.033,5.702,12.736,12.736,12.736
			c7.034,0,12.736-5.703,12.736-12.736v-26.746h31.841v26.746c0,7.033,5.702,12.736,12.736,12.736
			c7.034,0,12.736-5.703,12.736-12.736v-26.746h33.114v26.746c0,7.033,5.702,12.736,12.736,12.736
			c7.034,0,12.736-5.703,12.736-12.736v-26.746h33.114v26.746c0,7.033,5.702,12.736,12.736,12.736
			c7.034,0,12.736-5.703,12.736-12.736v-26.746h33.114v26.746c0,7.033,5.702,12.736,12.736,12.736s12.736-5.703,12.736-12.736
			v-26.746h31.841v26.746c0,7.033,5.702,12.736,12.736,12.736c7.034,0,12.736-5.703,12.736-12.736v-26.746h33.114v26.746
			c0,7.033,5.702,12.736,12.736,12.736s12.736-5.703,12.736-12.736v-26.746h33.114v26.746c0,7.033,5.702,12.736,12.736,12.736
			c7.034,0,12.736-5.703,12.736-12.736v-27.843c21.989-3.26,39.483-22.258,39.483-45.14v-28.908H0z"/>
	</g>
</g>
<g>
</g>
<g>
</g>
<g>
</g>
<g>
</g>
<g>
</g>
<g>
</g>
<g>
</g>
<g>
</g>
<g>
</g>
<g>
</g>
<g>
</g>
<g>
</g>
<g>
</g>
<g>
</g>
<g>
</g>
</svg>
