<?xml version="1.0" encoding="iso-8859-1"?>
<!-- Generator: Adobe Illustrator 19.0.0, SVG Export Plug-In . SVG Version: 6.00 Build 0)  -->
<svg version="1.1" id="Layer_1" xmlns="http://www.w3.org/2000/svg" xmlns:xlink="http://www.w3.org/1999/xlink" x="0px" y="0px"
	 viewBox="0 0 512.001 512.001" style="enable-background:new 0 0 512.001 512.001;" xml:space="preserve">
<g>
	<g>
		<polygon points="150.488,467.508 150.488,512.001 233.066,512.001 236.653,467.508 		"/>
	</g>
</g>
<g>
	<g>
		<polygon points="275.35,467.508 278.937,512.001 361.514,512.001 361.514,467.508 		"/>
	</g>
</g>
<g>
	<g>
		<path d="M317.379,9.175c-11.924-9.149-27.505-11.633-41.675-6.65l-1.411,0.496c-11.792,4.148-24.783,4.148-36.583-0.001
			l-1.402-0.492c-14.176-4.985-29.758-2.499-41.68,6.647c-11.923,9.147-18.357,23.554-17.213,38.538l2.019,26.437
			c0.529,6.926,1.11,14.556,1.665,22.655l37.798-6.266c-0.483-6.729-0.975-13.195-1.44-19.291l-2.019-26.437
			c-0.221-2.905,1.41-4.615,2.403-5.376c0.99-0.763,3.068-1.895,5.82-0.925l1.402,0.492c19.95,7.015,41.925,7.016,61.874,0.001
			l1.411-0.496c2.751-0.966,4.823,0.167,5.815,0.927c0.992,0.76,2.623,2.471,2.403,5.376l-2.019,26.437
			c-0.465,6.096-0.958,12.564-1.436,19.292l37.798,6.266c0.554-8.099,1.136-15.729,1.665-22.655l2.019-26.437
			C335.736,32.728,329.302,18.321,317.379,9.175z"/>
	</g>
</g>
<g>
	<g>
		<path d="M339.643,245.041c-0.159-0.646-0.351-1.29-0.582-1.93c-1.77-4.901-3.256-10.232-4.521-15.868
			c-3.095-13.784-4.791-29.486-5.55-45.854l-37.907,6.284c0.788,13.668,2.226,27.019,4.545,39.57
			c1.135,6.145,2.479,12.1,4.069,17.797h-87.395c1.59-5.698,2.934-11.652,4.069-17.797c2.319-12.551,3.758-25.902,4.545-39.57
			l-37.907-6.284c-0.76,16.367-2.456,32.07-5.55,45.854c-1.262,5.635-2.748,10.967-4.518,15.868
			c-0.231,0.639-0.422,1.284-0.582,1.93h-21.87v204.67h87.6l8.918-110.598h-6.26c-4.915,0-8.899-3.984-8.899-8.899
			s3.984-8.899,8.899-8.899h29.239c4.915,0,8.899,3.984,8.899,8.899s-3.984,8.899-8.899,8.899h-4.988l8.918,110.598h87.6v-204.67
			H339.643z"/>
	</g>
</g>
<g>
	<g>
		<path d="M266.934,104.25c-7.289-1.208-14.6-1.208-21.891,0l-60.231,9.997v49.384l60.257,9.997c7.289,1.208,14.6,1.208,21.891,0
			l60.231-9.997v-49.384L266.934,104.25z M264.9,148.426h-16.526c-4.915,0-8.899-3.984-8.899-8.899s3.984-8.899,8.899-8.899H264.9
			c4.915,0,8.899,3.984,8.899,8.899S269.815,148.426,264.9,148.426z"/>
	</g>
</g>
<g>
</g>
<g>
</g>
<g>
</g>
<g>
</g>
<g>
</g>
<g>
</g>
<g>
</g>
<g>
</g>
<g>
</g>
<g>
</g>
<g>
</g>
<g>
</g>
<g>
</g>
<g>
</g>
<g>
</g>
</svg>
