<?xml version="1.0" encoding="iso-8859-1"?>
<!-- Generator: Adobe Illustrator 19.0.0, SVG Export Plug-In . SVG Version: 6.00 Build 0)  -->
<svg version="1.1" id="Layer_1" xmlns="http://www.w3.org/2000/svg" xmlns:xlink="http://www.w3.org/1999/xlink" x="0px" y="0px"
	 viewBox="0 0 512 512" style="enable-background:new 0 0 512 512;" xml:space="preserve">
<g>
	<g>
		<path d="M489.771,234.328H344.304l-26.261-41.989h101.139c12.257,0,22.384-10.564,22.384-22.822v-34.779
			c0-12.258-10.129-22.314-22.384-22.314H92.818c-12.255,0-22.384,10.056-22.384,22.314v34.781
			c0,12.257,10.129,22.821,22.384,22.821h101.139l-26.261,41.989H22.229C9.972,234.328,0,244.045,0,256.303v34.781
			c0,12.257,9.972,21.805,22.229,21.805h2.152v66.37c0,11.221,9.097,20.317,20.317,20.317s20.317-9.097,20.317-20.317v-66.37h53.52
			l-31.065,50.283c-5.916,9.536-2.981,22.166,6.553,28.081c3.335,2.07,7.037,3.109,10.692,3.109c6.797,0,13.437-3.594,17.283-9.793
			l44.357-71.68h179.288l44.357,71.706c3.847,6.2,10.487,9.714,17.283,9.714c3.656,0,7.358-0.933,10.692-3.003
			c9.534-5.915,12.469-18.626,6.553-28.161l-31.067-50.256h53.52v66.37c0,11.221,9.097,20.317,20.317,20.317
			s20.317-9.097,20.317-20.317v-66.37h2.152c12.257,0,22.229-9.548,22.229-21.806v-34.781
			C512,244.045,502.028,234.328,489.771,234.328z M215.518,234.328l26.26-41.989h28.444l26.261,41.989H215.518z"/>
	</g>
</g>
<g>
</g>
<g>
</g>
<g>
</g>
<g>
</g>
<g>
</g>
<g>
</g>
<g>
</g>
<g>
</g>
<g>
</g>
<g>
</g>
<g>
</g>
<g>
</g>
<g>
</g>
<g>
</g>
<g>
</g>
</svg>
