<?xml version="1.0" encoding="iso-8859-1"?>
<!-- Generator: Adobe Illustrator 19.0.0, SVG Export Plug-In . SVG Version: 6.00 Build 0)  -->
<svg version="1.1" id="Layer_1" xmlns="http://www.w3.org/2000/svg" xmlns:xlink="http://www.w3.org/1999/xlink" x="0px" y="0px"
	 viewBox="0 0 511.997 511.997" style="enable-background:new 0 0 511.997 511.997;" xml:space="preserve">
<g>
	<g>
		<path d="M338.197,127.095c-9.364,12.112-21.829,20.957-36.439,26.287v12.652c0,18.907-14.484,33.718-32.973,33.718
			s-32.973-14.811-32.973-33.718v-15.711c-7.977-3.723-14.002-8.551-19.354-13.297c-3.304-2.93-6.305-5.895-8.97-9.932h-86.126
			l10.359,141.498l16.721,9.495c2.651,1.503,4.41,4.202,4.724,7.232l23.039,223.175c0.206,1.994,1.876,3.503,3.881,3.503h151.83
			c2.005,0,3.673-1.505,3.88-3.5l23.038-222.823c0.305-2.953,1.984-5.588,4.53-7.114l16.905-10.147l10.364-141.317H338.197z
			 M222.453,463.708c-0.073,0.001-0.145,0.003-0.218,0.003c-5.103,0-9.297-4.078-9.414-9.207l-3.187-140.035
			c-0.118-5.202,4.002-9.514,9.204-9.632c5.188-0.129,9.514,4.003,9.632,9.204l3.187,140.035
			C231.776,459.277,227.656,463.589,222.453,463.708z M299.175,454.504c-0.117,5.129-4.311,9.207-9.414,9.207
			c-0.073,0-0.145,0-0.218-0.003c-5.202-0.118-9.323-4.43-9.204-9.632l3.187-140.035c0.12-5.202,4.482-9.34,9.632-9.204
			c5.202,0.118,9.323,4.43,9.204,9.632L299.175,454.504z"/>
	</g>
</g>
<g>
	<g>
		<path d="M341.732,34.153c-13.492,0-26.417,4.998-36.394,14.062c-2.34,2.129-5.597,2.941-8.663,2.159
			c-3.067-0.782-5.535-3.05-6.573-6.04C280.905,17.816,255.869,0,227.8,0c-29.531,0-55.659,19.863-63.538,48.302
			c-1.253,4.522-5.64,7.426-10.296,6.827c-1.528-0.199-2.957-0.296-4.373-0.296c-18.457,0-33.471,14.991-33.471,33.448
			c0,7.267,2.335,14.59,6.639,19.973h74.954c-1.834-5.383-2.997-11.014-3.352-16.598c-0.18-0.727-0.275-1.474-0.275-2.256
			c0-5.203,4.218-9.409,9.421-9.409h0.178c5.094,0,9.265,4.048,9.417,9.141c0.373,12.523,6.448,25.482,15.852,33.822
			c6.039,5.355,11.64,9.468,19.343,12.123c3.799,1.309,6.351,4.887,6.351,8.907v22.051c0,8.481,6.075,14.877,14.131,14.877
			s14.131-6.395,14.131-14.877v-19.541c0-4.255,2.852-7.982,6.959-9.094c24.873-6.733,42.945-27.125,47.163-53.216
			c0.83-5.137,5.652-8.633,10.803-7.796c5.136,0.83,8.627,5.643,7.796,10.78c-1.202,7.434-3.295,14.357-6.16,21.086h42.576
			c2.538-6.729,3.821-13.023,3.821-19.972C395.873,58.429,371.585,34.153,341.732,34.153z"/>
	</g>
</g>
<g>
</g>
<g>
</g>
<g>
</g>
<g>
</g>
<g>
</g>
<g>
</g>
<g>
</g>
<g>
</g>
<g>
</g>
<g>
</g>
<g>
</g>
<g>
</g>
<g>
</g>
<g>
</g>
<g>
</g>
</svg>
