<?xml version="1.0" encoding="iso-8859-1"?>
<!-- Generator: Adobe Illustrator 19.0.0, SVG Export Plug-In . SVG Version: 6.00 Build 0)  -->
<svg version="1.1" id="Layer_1" xmlns="http://www.w3.org/2000/svg" xmlns:xlink="http://www.w3.org/1999/xlink" x="0px" y="0px"
	 viewBox="0 0 512.001 512.001" style="enable-background:new 0 0 512.001 512.001;" xml:space="preserve">
<g>
	<g>
		<path d="M331.167,469.453h-53.895v-86.515h-42.548v86.515h-53.895c-11.749,0-21.274,9.525-21.274,21.274
			c0,11.749,9.525,21.274,21.274,21.274h150.338c11.749,0,21.274-9.525,21.274-21.274
			C352.441,478.978,342.916,469.453,331.167,469.453z"/>
	</g>
</g>
<g>
	<g>
		<path d="M403.662,266.997c-8.857-38.818-29.882-131.278-40.787-181.899H149.154c-10.907,50.623-31.941,143.048-40.811,181.883
			c-10.895,47.707,23.926,94.468,72.836,96.056c0.908,0.03,1.82,0.044,2.734,0.044h144.166c0.918,0,1.832-0.014,2.743-0.044
			C379.726,361.444,414.546,314.7,403.662,266.997z"/>
	</g>
</g>
<g>
	<g>
		<path d="M366.609,0H145.387c9.097,15.591,12.786,33.752,10.509,51.661c-0.264,2.078-1.164,6.822-2.547,13.581h205.332
			c-1.384-6.758-2.286-11.498-2.55-13.567c-2.293-17.907,1.388-36.074,10.478-51.674V0z"/>
	</g>
</g>
<g>
</g>
<g>
</g>
<g>
</g>
<g>
</g>
<g>
</g>
<g>
</g>
<g>
</g>
<g>
</g>
<g>
</g>
<g>
</g>
<g>
</g>
<g>
</g>
<g>
</g>
<g>
</g>
<g>
</g>
</svg>
