<?xml version="1.0" encoding="iso-8859-1"?>
<!-- Generator: Adobe Illustrator 19.0.0, SVG Export Plug-In . SVG Version: 6.00 Build 0)  -->
<svg version="1.1" id="Layer_1" xmlns="http://www.w3.org/2000/svg" xmlns:xlink="http://www.w3.org/1999/xlink" x="0px" y="0px"
	 viewBox="0 0 512 512" style="enable-background:new 0 0 512 512;" xml:space="preserve">
<g>
	<g>
		<path d="M465.945,108.849c-34.329-61.026-79.486-94.633-127.154-94.633c-26.491,0-52.008,10.169-75.837,30.222
			c-4.018,3.384-9.887,3.382-13.908,0.002c-23.833-20.054-49.349-30.224-75.837-30.224c-47.669,0-92.825,33.607-127.154,94.633
			C17.217,160.114,0,224.457,0,280.964c0,56.551,17.149,110.012,48.292,150.535c32.85,42.744,77.212,66.285,124.917,66.285
			c26.712,0,53.375-7.761,77.11-22.447c1.74-1.077,3.711-1.615,5.682-1.615s3.942,0.538,5.682,1.615
			c23.736,14.687,50.398,22.447,77.11,22.447c47.701,0,92.064-23.541,124.913-66.285C494.851,390.975,512,337.515,512,280.964
			C512,224.457,494.783,160.116,465.945,108.849z M207.052,429.741c-1.092,3.188-3.61,5.685-6.809,6.749
			c-8.848,2.942-17.945,4.434-27.034,4.434c-29.64,0-57.992-15.653-79.833-44.071c-23.549-30.643-36.517-71.801-36.517-115.889
			c0-46.475,14.85-101.742,38.754-144.235c23.47-41.723,51.753-65.653,77.596-65.653c14.943,0,30.452,7.798,46.101,23.176
			c2.933,2.882,3.974,7.181,2.686,11.087l-41.109,124.648c-20.255,61.422-13.085,127.752,19.667,181.985v0.002
			c1.679,2.78,3.447,5.561,5.257,8.264C207.686,423.039,208.144,426.553,207.052,429.741z M265.429,400.303
			c-1.909,3.416-5.516,5.533-9.429,5.533c-3.913,0-7.52-2.115-9.427-5.531c-29.673-53.103-35.261-115.4-15.737-175.417
			c1.447-4.45,5.593-7.46,10.269-7.46H270.9c4.678,0,8.824,3.012,10.269,7.46C300.69,284.9,295.1,347.197,265.429,400.303z
			 M418.625,396.851c-21.841,28.422-50.193,44.073-79.833,44.073c-9.092,0-18.188-1.492-27.034-4.434
			c-3.198-1.063-5.716-3.561-6.809-6.749s-0.634-6.704,1.24-9.506c1.805-2.697,3.572-5.477,5.254-8.262
			c32.754-54.234,39.925-120.566,19.672-181.985l-41.106-124.654c-1.288-3.905-0.247-8.202,2.686-11.086
			c15.645-15.378,31.152-23.174,46.097-23.174c25.843,0,54.126,23.93,77.596,65.653c23.904,42.493,38.754,97.76,38.754,144.235
			C455.142,325.05,442.174,366.208,418.625,396.851z"/>
	</g>
</g>
<g>
</g>
<g>
</g>
<g>
</g>
<g>
</g>
<g>
</g>
<g>
</g>
<g>
</g>
<g>
</g>
<g>
</g>
<g>
</g>
<g>
</g>
<g>
</g>
<g>
</g>
<g>
</g>
<g>
</g>
</svg>
