<?xml version="1.0" encoding="iso-8859-1"?>
<!-- Generator: Adobe Illustrator 19.0.0, SVG Export Plug-In . SVG Version: 6.00 Build 0)  -->
<svg version="1.1" id="Layer_1" xmlns="http://www.w3.org/2000/svg" xmlns:xlink="http://www.w3.org/1999/xlink" x="0px" y="0px"
	 viewBox="0 0 512 512" style="enable-background:new 0 0 512 512;" xml:space="preserve">
<g>
	<g>
		<path d="M298.248,49.253l-1.581-0.737c-1.757-8.057-7.805-14.906-16.295-17.237c-18.806-5.164-37.915-7.719-56.903-7.719
			c-36.574,0-72.696,9.48-105.344,28.06c-12.461,7.093-24.036,15.297-34.629,24.479c5.461,3.34,10.304,7.706,14.268,12.977
			c5.958,7.923,9.414,17.181,10.158,26.83c41.267-39.262,101.51-56.634,160.33-40.482c5.042,1.385,10.285,1.003,15.022-1.023
			l2.676,1.246c1.99,0.927,4.079,1.366,6.14,1.366c5.484,0,10.737-3.114,13.207-8.414C308.693,61.31,305.536,52.648,298.248,49.253z
			"/>
	</g>
</g>
<g>
	<g>
		<path d="M227.94,438.437c-72.507,0-135.013-43.598-162.707-105.949c-1.444-1.83-2.872-3.678-4.279-5.549
			c-20.604-27.403-35.908-57.646-45.62-89.493C6.335,241.233,0,250.139,0,260.5c0,60.885,23.71,118.127,66.762,161.178
			c43.052,43.052,100.293,66.762,161.178,66.762c13.786,0,25.001-11.215,25.001-25.001
			C252.941,449.652,241.725,438.437,227.94,438.437z"/>
	</g>
</g>
<g>
	<g>
		<path d="M435.99,222.094c-5.518-60.635-34.318-115.491-81.095-154.464c-5.131-4.275-11.614-6.301-18.269-5.69
			c-6.649,0.604-12.665,3.764-16.94,8.893c-4.275,5.131-6.295,11.62-5.691,18.27c0.606,6.651,3.764,12.668,8.894,16.943
			c75.379,62.806,85.61,175.227,22.806,250.604c-4.275,5.131-6.295,11.62-5.691,18.27c0.606,6.651,3.764,12.668,8.894,16.943
			c3.561,2.967,7.779,4.822,12.25,5.492c15.284-8.604,28.887-19.639,40.355-32.512C428.443,322.556,440.609,272.846,435.99,222.094z
			"/>
	</g>
</g>
<g>
	<g>
		<path d="M283.39,369.875c-4.978-6.62-12.236-10.905-20.437-12.067C150.176,341.836,71.416,237.091,87.389,124.312
			c1.16-8.201-0.941-16.363-5.918-22.983c-1.475-1.961-3.171-3.691-5.011-5.221l0.451-3.184c1.127-7.962-4.413-15.329-12.374-16.458
			c-7.954-1.13-15.329,4.411-16.458,12.374l-0.201,1.414c-11.262,3.357-20.143,12.985-21.896,25.362
			c-10.058,71.03,8.146,141.73,51.262,199.073s105.98,94.462,177.015,104.523c8.201,1.165,16.363-0.941,22.983-5.918
			c4.375-3.289,7.702-7.588,9.81-12.483c-0.009-0.533,0.01-1.07,0.087-1.615c0.24-1.69,0.887-3.221,1.82-4.515
			c0.122-0.606,0.262-1.206,0.349-1.823C290.469,384.657,288.368,376.495,283.39,369.875z"/>
	</g>
</g>
<g>
	<g>
		<path d="M509.254,225.023c-1.433-9.231-7.773-16.503-15.951-19.576l-0.435-2.801c-1.233-7.946-8.666-13.378-16.619-12.156
			c-7.945,1.233-13.387,8.673-12.154,16.619l0.893,5.755c0.02,0.132,0.055,0.258,0.079,0.389
			c-4.229,5.285-6.339,12.239-5.222,19.438c15.046,96.953-51.591,188.072-148.545,203.119c-6.6,1.024-12.404,4.557-16.347,9.947
			s-5.549,11.992-4.525,18.594c2.115,13.622,14.919,22.98,28.541,20.872c60.165-9.338,113.092-41.545,149.033-90.69
			C503.94,345.387,518.591,285.188,509.254,225.023z"/>
	</g>
</g>
<g>
</g>
<g>
</g>
<g>
</g>
<g>
</g>
<g>
</g>
<g>
</g>
<g>
</g>
<g>
</g>
<g>
</g>
<g>
</g>
<g>
</g>
<g>
</g>
<g>
</g>
<g>
</g>
<g>
</g>
</svg>
