<?xml version="1.0" encoding="iso-8859-1"?>
<!-- Generator: Adobe Illustrator 19.0.0, SVG Export Plug-In . SVG Version: 6.00 Build 0)  -->
<svg version="1.1" id="Layer_1" xmlns="http://www.w3.org/2000/svg" xmlns:xlink="http://www.w3.org/1999/xlink" x="0px" y="0px"
	 viewBox="0 0 512 512" style="enable-background:new 0 0 512 512;" xml:space="preserve">
<g>
	<g>
		<path d="M496.804,286.385h-4.848c-8.096-15.308-25.018-24.831-43.245-22.619l-311.32,37.66
			c-13.177,1.594-25.91-2.378-35.846-11.183c-9.936-8.806-15.407-20.966-15.407-34.243c0-13.277,5.471-25.436,15.407-34.243
			c9.936-8.806,22.671-12.771,35.846-11.183l311.318,37.66c15.772,1.92,30.566-4.959,39.515-16.767l2.018,0.966
			c2.118,1.013,4.351,1.492,6.551,1.492c5.665,0,11.103-3.184,13.713-8.636c3.624-7.566,0.425-16.639-7.142-20.264l-6.557-3.14
			c-1.647-19.948-17.106-36.668-37.754-39.167l-311.318-37.658c-37.43-4.529-75.101,7.22-103.325,32.236
			C16.186,182.308,0,218.286,0,255.999s16.186,73.69,44.41,98.705c24.248,21.492,55.454,33.19,87.507,33.19
			c5.257,0,10.542-0.316,15.817-0.954l311.32-37.66c18.303-2.215,32.519-15.605,36.663-32.508h1.086
			c8.391,0,15.193-6.803,15.193-15.193S505.195,286.385,496.804,286.385z"/>
	</g>
</g>
<g>
</g>
<g>
</g>
<g>
</g>
<g>
</g>
<g>
</g>
<g>
</g>
<g>
</g>
<g>
</g>
<g>
</g>
<g>
</g>
<g>
</g>
<g>
</g>
<g>
</g>
<g>
</g>
<g>
</g>
</svg>
