<?xml version="1.0" encoding="iso-8859-1"?>
<!-- Generator: Adobe Illustrator 19.0.0, SVG Export Plug-In . SVG Version: 6.00 Build 0)  -->
<svg version="1.1" id="Layer_1" xmlns="http://www.w3.org/2000/svg" xmlns:xlink="http://www.w3.org/1999/xlink" x="0px" y="0px"
	 viewBox="0 0 511.999 511.999" style="enable-background:new 0 0 511.999 511.999;" xml:space="preserve">
<g>
	<g>
		<path d="M433.604,41.955l0.648-0.648c5.306-5.306,5.306-13.908-0.001-19.215c-5.304-5.304-13.909-5.306-19.215,0.001l-4.056,4.057
			c-17.321-5.866-37.26-1.916-51.042,11.868l-56.202,56.201c-19.333,19.336-19.333,50.799,0.001,70.132
			c9.669,9.669,22.365,14.502,35.066,14.502c12.699,0,25.399-4.834,35.066-14.502l56.202-56.201
			C448.143,90.078,449.319,61.411,433.604,41.955z"/>
	</g>
</g>
<g>
	<g>
		<path d="M389.448,309.2v-79.481c-0.001-27.346-22.25-49.592-49.595-49.592s-49.593,22.246-49.593,49.592V309.2
			c0,23.07,15.557,42.51,36.929,48.025c-10.94,1.332-21.203,6.227-29.119,14.144l-56.271,56.201
			c-7.144,7.143-11.674,15.943-13.54,25.174c-1.866-9.231-6.378-18.032-13.522-25.174l-56.21-56.201
			c-7.917-7.917-18.108-12.813-29.049-14.144c21.371-5.515,37.139-24.956,37.139-48.025v-79.481c0-18.229-9.893-34.18-24.583-42.798
			c14.692-8.617,24.583-24.57,24.583-42.797V64.643c0-22.926-15.515-42.26-36.685-47.913v-3.143C129.931,6.084,123.846,0,116.344,0
			c-7.503,0-13.587,6.084-13.587,13.587v3.602C82.411,23.373,67.43,42.302,67.43,64.643v79.481c0,18.227,9.893,34.18,24.583,42.797
			c-14.69,8.618-24.583,24.57-24.583,42.798V309.2c0,25.279,19.083,46.187,43.561,49.202c-8.503,2.179-16.268,6.597-22.638,12.965
			c-9.368,9.368-14.51,21.821-14.51,35.067s5.167,25.699,14.534,35.066l56.205,56.202c9.667,9.669,22.366,14.295,35.067,14.295
			c12.699,0,25.401-5.196,35.067-14.707h0.001c7.143-6.794,11.639-15.945,13.504-25.176c1.866,9.231,6.36,18.382,13.504,25.176
			h0.001c9.667,9.511,22.367,14.708,35.066,14.708c12.7,0,25.399-4.731,35.067-14.4l56.201-56.151
			c19.335-19.335,19.335-50.77,0.001-70.105c-6.37-6.37-13.889-10.775-22.39-12.954C370.15,355.373,389.448,334.479,389.448,309.2z"
			/>
	</g>
</g>
<g>
</g>
<g>
</g>
<g>
</g>
<g>
</g>
<g>
</g>
<g>
</g>
<g>
</g>
<g>
</g>
<g>
</g>
<g>
</g>
<g>
</g>
<g>
</g>
<g>
</g>
<g>
</g>
<g>
</g>
</svg>
