<?xml version="1.0" encoding="iso-8859-1"?>
<!-- Generator: Adobe Illustrator 19.0.0, SVG Export Plug-In . SVG Version: 6.00 Build 0)  -->
<svg version="1.1" id="Layer_1" xmlns="http://www.w3.org/2000/svg" xmlns:xlink="http://www.w3.org/1999/xlink" x="0px" y="0px"
	 viewBox="0 0 512 512" style="enable-background:new 0 0 512 512;" xml:space="preserve">
<g>
	<g>
		<path d="M55.951,0C42.638,0,31.81,10.509,31.232,23.679c8.504-3.553,17.829-5.523,27.607-5.523c7.541,0,14.812,1.174,21.644,3.34
			C78.876,9.366,68.518,0,55.951,0z"/>
	</g>
</g>
<g>
	<g>
		<path d="M496.589,446.266c0.495,3.399,0.763,6.871,0.763,10.405c0,12.737-3.346,24.701-9.185,35.085
			c11.555-2.099,20.323-12.192,20.323-24.353C508.49,458.442,503.716,450.617,496.589,446.266z"/>
	</g>
</g>
<g>
	<g>
		<path d="M425.507,401.343c-171.672,0-311.34-139.668-311.34-311.342c0-30.508-24.82-55.329-55.329-55.329
			c-30.508,0-55.329,24.82-55.329,55.329c0,112.72,43.895,218.692,123.599,298.4C206.817,468.105,312.79,512,425.509,512
			c30.507,0,55.327-24.82,55.327-55.329S456.016,401.343,425.507,401.343z"/>
	</g>
</g>
<g>
</g>
<g>
</g>
<g>
</g>
<g>
</g>
<g>
</g>
<g>
</g>
<g>
</g>
<g>
</g>
<g>
</g>
<g>
</g>
<g>
</g>
<g>
</g>
<g>
</g>
<g>
</g>
<g>
</g>
</svg>
