<?xml version="1.0" encoding="iso-8859-1"?>
<!-- Generator: Adobe Illustrator 19.0.0, SVG Export Plug-In . SVG Version: 6.00 Build 0)  -->
<svg version="1.1" id="Layer_1" xmlns="http://www.w3.org/2000/svg" xmlns:xlink="http://www.w3.org/1999/xlink" x="0px" y="0px"
	 viewBox="0 0 512.001 512.001" style="enable-background:new 0 0 512.001 512.001;" xml:space="preserve">
<g>
	<g>
		<polygon points="0,274.08 0,350.689 99.951,274.08 		"/>
	</g>
</g>
<g>
	<g>
		<path d="M133.11,274.08L0,376.26v107.537h89.672V378.463c0-5.591,4.799-10.372,10.392-10.372h75.364l77.468-24.829
			c2.019-0.649,4.189-0.712,6.209-0.062l77.468,24.891h75.364c5.591,0,10.392,4.78,10.392,10.372v105.335h89.672V274.08H133.11z"/>
	</g>
</g>
<g>
	<g>
		<polygon points="256,363.66 186.576,385.839 186.576,488.136 193.984,488.136 318.016,488.136 325.424,488.136 325.424,385.839 		
			"/>
	</g>
</g>
<g>
	<g>
		<path d="M283.02,132.34h57.612h71.305c11.981,0,21.961-9.11,21.961-21.092V45.34c0-11.981-9.98-21.475-21.962-21.475H100.064
			c-11.983,0-21.962,9.492-21.962,21.475v65.908c0,11.981,9.98,21.092,21.962,21.092h71.305h57.61L0,218.671v35.16h512v-35.16
			L283.02,132.34z M121.492,88.95V67.255h269.017V88.95H121.492z M199.735,204.656L256,184.48l56.265,20.176H199.735z"/>
	</g>
</g>
<g>
</g>
<g>
</g>
<g>
</g>
<g>
</g>
<g>
</g>
<g>
</g>
<g>
</g>
<g>
</g>
<g>
</g>
<g>
</g>
<g>
</g>
<g>
</g>
<g>
</g>
<g>
</g>
<g>
</g>
</svg>
