<?xml version="1.0" encoding="iso-8859-1"?>
<!-- Generator: Adobe Illustrator 19.0.0, SVG Export Plug-In . SVG Version: 6.00 Build 0)  -->
<svg version="1.1" id="Layer_1" xmlns="http://www.w3.org/2000/svg" xmlns:xlink="http://www.w3.org/1999/xlink" x="0px" y="0px"
	 viewBox="0 0 512 512" style="enable-background:new 0 0 512 512;" xml:space="preserve">
<g>
	<g>
		<path d="M340.735,250.255l-8.454-8.453l-82.404,86.102c-1.684,1.762-4.008,2.614-6.445,2.614c-0.035,0-0.07,0-0.105,0
			c-2.4,0-4.704-0.766-6.404-2.466l-53.167-53.073c-1.724-1.724-2.679-4.023-2.652-6.462c0.027-2.437,1.038-4.737,2.801-6.42
			l86.288-82.391l-8.453-8.448c-24.106-24.107-62.626-25.227-88.076-3.365c7.55,35.539-3.374,72.923-29.176,98.726
			c-22.635,22.635-53.934,33.984-85.863,31.112c-0.928-0.081-1.853-0.123-2.77-0.123c-7.779,0-15.124,2.953-20.485,8.316
			C12.555,328.742,0,359.053,0,391.295c0,18.525,4.153,36.411,12.005,52.602l64.99-74.833c1.647-1.896,4.009-3.025,6.519-3.113
			c2.514-0.106,4.946,0.871,6.722,2.647l53.165,53.166c1.776,1.777,2.735,4.212,2.647,6.722c-0.088,2.51-1.215,4.872-3.112,6.519
			l-74.833,64.989C84.294,507.846,102.179,512,120.704,512c32.242,0,62.553-12.555,85.351-35.354c0.032-0.032,0.066-0.065,0.1-0.097
			c5.915-5.915,8.899-14.391,8.112-23.176c-2.863-31.932,8.477-63.228,31.114-85.863c25.799-25.803,63.183-36.723,98.722-29.178
			C365.964,312.883,364.842,274.363,340.735,250.255z"/>
	</g>
</g>
<g>
	<g>
		<path d="M508.211,43.624L468.374,3.787c-5.052-5.049-13.243-5.049-18.295,0c-2.15,2.15-3.376,4.871-3.696,7.674
			c-0.432,3.784,0.794,7.72,3.696,10.622l5.572,5.572l-20.158,19.25l-5.118-5.118c-3.301-3.3-7.939-4.429-12.169-3.417
			c-2.243,0.537-4.374,1.666-6.125,3.417c-1.605,1.605-2.696,3.528-3.281,5.565c-1.256,4.375-0.166,9.283,3.282,12.729l4.696,4.696
			l-23.716,22.649l-4.163-4.163c-4.197-4.194-10.554-4.893-15.484-2.118c-1.005,0.565-1.955,1.264-2.811,2.118
			c-0.71,0.71-1.309,1.486-1.82,2.304c-3.122,4.994-2.523,11.649,1.819,15.992l3.741,3.741L203.119,268.818l40.062,40.062
			l163.518-171.225l3.742,3.743c2.527,2.525,5.837,3.789,9.147,3.789c2.379,0,4.754-0.664,6.842-1.968
			c0.818-0.511,1.595-1.11,2.305-1.82c0.856-0.856,1.556-1.809,2.123-2.816c2.772-4.93,2.074-11.284-2.122-15.48l-4.163-4.164
			l22.649-23.716l4.697,4.697c2.526,2.525,5.837,3.789,9.147,3.789c1.207,0,2.413-0.172,3.581-0.508
			c2.038-0.585,3.961-1.675,5.567-3.281c1.752-1.752,2.881-3.882,3.418-6.127c1.009-4.232-0.12-8.869-3.421-12.169l-5.118-5.118
			l19.25-20.158l5.572,5.572c2.527,2.525,5.837,3.789,9.147,3.789c0.493,0,0.984-0.037,1.475-0.093
			c2.803-0.32,5.523-1.546,7.673-3.696C513.263,56.868,513.264,48.677,508.211,43.624z"/>
	</g>
</g>
<g>
	<g>
		<polygon points="84.298,388.274 16.423,466.43 45.569,495.575 123.724,427.701 		"/>
	</g>
</g>
<g>
</g>
<g>
</g>
<g>
</g>
<g>
</g>
<g>
</g>
<g>
</g>
<g>
</g>
<g>
</g>
<g>
</g>
<g>
</g>
<g>
</g>
<g>
</g>
<g>
</g>
<g>
</g>
<g>
</g>
</svg>
