<?xml version="1.0" encoding="iso-8859-1"?>
<!-- Generator: Adobe Illustrator 19.0.0, SVG Export Plug-In . SVG Version: 6.00 Build 0)  -->
<svg version="1.1" id="Layer_1" xmlns="http://www.w3.org/2000/svg" xmlns:xlink="http://www.w3.org/1999/xlink" x="0px" y="0px"
	 viewBox="0 0 512.001 512.001" style="enable-background:new 0 0 512.001 512.001;" xml:space="preserve">
<g>
	<g>
		<path d="M492.9,72.867L473.246,92.52c2.596,2.202,5.801,3.313,9.011,3.313c3.571,0,7.144-1.363,9.868-4.088
			C497.301,86.571,497.552,78.35,492.9,72.867z"/>
	</g>
</g>
<g>
	<g>
		<path d="M439.482,19.367c-5.45-5.448-14.286-5.448-19.736,0c-5.45,5.45-5.45,14.286,0,19.738l0.17,0.17l19.738-19.736
			L439.482,19.367z"/>
	</g>
</g>
<g>
	<g>
		<path d="M455.403,110.366l-19.654,19.654c2.594,2.202,5.799,3.313,9.01,3.313c3.571,0,7.144-1.363,9.868-4.088
			C459.801,124.07,460.054,115.849,455.403,110.366z"/>
	</g>
</g>
<g>
	<g>
		<path d="M401.984,56.865c-5.451-5.448-14.286-5.448-19.736,0c-5.45,5.45-5.451,14.286,0,19.738l0.17,0.17l19.738-19.738
			L401.984,56.865z"/>
	</g>
</g>
<g>
	<g>
		<path d="M249.389,343.464c18.53-1.757,34.986-9.334,47.588-21.936c27.316-27.316,29.271-70.506,5.881-100.063L136.57,387.752
			c10.602,16.722,8.63,39.181-5.941,53.752v0.001c-6.891,6.891-15.551,10.964-24.531,12.224l4.945,4.945
			c3.815,3.815,3.815,10.001,0,13.816c-1.908,1.906-4.409,2.861-6.908,2.861c-2.501,0-5-0.955-6.908-2.861l-58.222-58.224
			c-3.816-3.815-3.816-10.001,0-13.816c3.815-3.811,10.002-3.811,13.815,0l4.403,4.403c1.26-8.981,5.333-17.639,12.224-24.531
			c14.412-14.414,36.543-16.501,53.205-6.283l166.218-166.218c-12.944-9.713-28.607-14.962-45.157-14.949
			c-20.156,0.021-39.101,7.877-53.343,22.118c-12.581,12.583-20.159,29.028-21.918,47.56c-0.357,3.767-2.857,6.989-6.418,8.27
			c-3.559,1.283-7.539,0.391-10.216-2.285l-35.844-35.843l-81.865,81.867C12.16,336.507,0.048,365.635,0,396.579
			c-0.047,30.958,11.995,59.734,33.91,81.647c21.87,21.871,50.92,33.569,81.809,33.569c0.061,0,0.12,0,0.181,0
			c30.944,0,60.073-11.819,82.02-33.766l81.869-81.697l-36.386-36.3c-2.675-2.675-3.566-6.612-2.285-10.172
			C242.4,346.298,245.622,343.82,249.389,343.464z"/>
	</g>
</g>
<g>
	<g>
		<path d="M116.814,394.136c-4.625-4.624-10.701-6.937-16.776-6.937c-6.076,0-12.151,2.313-16.776,6.939
			c-9.25,9.25-9.25,24.301,0,33.552c9.251,9.25,24.303,9.248,33.552-0.001S126.064,403.387,116.814,394.136z"/>
	</g>
</g>
<g>
	<g>
		<path d="M505.209,6.889c-8.941-8.937-23.52-8.909-32.497,0.07c-2.673,2.672-4.759,6.58-6.199,11.614
			c-0.456,1.597-1.312,3.048-2.484,4.22L299.782,187.04c-1.277,1.277-1.223,3.365,0.133,4.561
			c5.416,4.78,15.878,15.284,20.761,21.04c1.19,1.404,3.319,1.502,4.621,0.201L489.686,48.45c1.172-1.172,2.624-2.026,4.219-2.483
			c3.168-0.907,7.715-2.759,11.385-6.429C514.269,30.56,514.233,15.913,505.209,6.889z"/>
	</g>
</g>
<g>
</g>
<g>
</g>
<g>
</g>
<g>
</g>
<g>
</g>
<g>
</g>
<g>
</g>
<g>
</g>
<g>
</g>
<g>
</g>
<g>
</g>
<g>
</g>
<g>
</g>
<g>
</g>
<g>
</g>
</svg>
