<?xml version="1.0" encoding="iso-8859-1"?>
<!-- Generator: Adobe Illustrator 19.0.0, SVG Export Plug-In . SVG Version: 6.00 Build 0)  -->
<svg version="1.1" id="Layer_1" xmlns="http://www.w3.org/2000/svg" xmlns:xlink="http://www.w3.org/1999/xlink" x="0px" y="0px"
	 viewBox="0 0 512.001 512.001" style="enable-background:new 0 0 512.001 512.001;" xml:space="preserve">
<g>
	<g>
		<path d="M238.688,472.598v21.492c0,9.891,8.019,17.91,17.91,17.91c9.891,0,17.91-8.019,17.91-17.91v-21.492H238.688z"/>
	</g>
</g>
<g>
	<g>
		<path d="M278.605,16.11l-8.383-9.824C266.819,2.297,261.84,0,256.598,0c-5.242,0-10.222,2.297-13.625,6.284l-8.383,9.826
			c-15.242,17.861-23.635,40.63-23.635,64.111c0,3.862,0.25,7.691,0.69,11.483h6.029c0.273,0,0.546,0.004,0.817,0.011
			c13.422,0.21,26.402,3.571,38.107,9.805c11.704-6.234,24.683-9.594,38.104-9.805c0.272-0.007,0.546-0.011,0.819-0.011h6.03
			c0.441-3.791,0.69-7.62,0.69-11.483C302.241,56.74,293.847,33.972,278.605,16.11z"/>
	</g>
</g>
<g>
	<g>
		<path d="M343.165,46.928c-8.242,0-14.925,6.683-14.925,14.925v46.567h-32.719c-0.153,0-0.307,0.002-0.458,0.007
			c-13.927,0.199-27.336,4.715-38.463,12.747c-11.127-8.032-24.538-12.548-38.466-12.747c-0.153-0.005-0.305-0.007-0.459-0.007
			h-33.913V61.853c0-8.242-6.683-14.925-14.925-14.925s-14.925,6.683-14.925,14.925v72.593c0,17.994,7.026,35.048,19.781,48.02
			c1.659,1.687,3.389,3.272,5.178,4.759h38.297c14.036,0,27.552,3.814,39.429,11.081c11.877-7.267,25.392-11.081,39.429-11.081
			h37.736c14.842-12.537,24.326-31.54,24.326-52.78V61.853C358.091,53.611,351.408,46.928,343.165,46.928z"/>
	</g>
</g>
<g>
	<g>
		<path d="M343.165,203.942h-47.138c-12.468,0-24.411,3.864-34.537,11.174l-4.892,3.532l-4.892-3.532
			c-10.127-7.31-22.069-11.174-34.537-11.174h-48.332c-3.621,0-6.567,2.946-6.567,6.567v11.532
			c0,23.514,13.661,43.883,33.433,53.543h21.467c10.251,0,20.22,2.043,29.479,5.97h19.898c9.26-3.927,19.229-5.97,29.479-5.97
			h20.946c19.374-9.66,32.759-30.029,32.759-53.543v-11.532C349.732,206.888,346.787,203.942,343.165,203.942z"/>
	</g>
</g>
<g>
	<g>
		<path d="M343.165,292.3h-47.138c-12.468,0-24.411,3.864-34.537,11.174l-4.892,3.532l-4.892-3.532
			c-10.127-7.31-22.069-11.174-34.537-11.174h-48.333c-3.622,0-6.567,2.946-6.567,6.567v10.769c0,15.797,6.167,30.821,17.364,42.306
			c3.679,3.773,7.745,6.983,12.09,9.612h25.446c12.161,0,23.928,2.867,34.581,8.358h9.695c10.652-5.491,22.42-8.358,34.581-8.358
			h25.071c17.12-10.498,28.634-29.834,28.634-51.917v-10.769C349.732,295.247,346.785,292.3,343.165,292.3z"/>
	</g>
</g>
<g>
	<g>
		<path d="M343.165,378.27h-47.138c-12.468,0-24.411,3.864-34.537,11.174l-4.892,3.532l-4.892-3.532
			c-10.127-7.31-22.069-11.174-34.537-11.174h-48.333c-3.622,0-6.567,2.946-6.567,6.567v11.404
			c0,32.886,26.601,59.641,59.298,59.641h70.063c32.038,0,58.103-26.755,58.103-59.641v-11.404
			C349.732,381.217,346.785,378.27,343.165,378.27z"/>
	</g>
</g>
<g>
</g>
<g>
</g>
<g>
</g>
<g>
</g>
<g>
</g>
<g>
</g>
<g>
</g>
<g>
</g>
<g>
</g>
<g>
</g>
<g>
</g>
<g>
</g>
<g>
</g>
<g>
</g>
<g>
</g>
</svg>
