<?xml version="1.0" encoding="iso-8859-1"?>
<!-- Generator: Adobe Illustrator 19.0.0, SVG Export Plug-In . SVG Version: 6.00 Build 0)  -->
<svg version="1.1" id="Layer_1" xmlns="http://www.w3.org/2000/svg" xmlns:xlink="http://www.w3.org/1999/xlink" x="0px" y="0px"
	 viewBox="0 0 511.999 511.999" style="enable-background:new 0 0 511.999 511.999;" xml:space="preserve">
<g>
	<g>
		<path d="M369.953,0.553c-3.285-1.254-7.057-0.333-9.412,2.33L255.999,121.001L151.457,2.883c-2.347-2.662-6.118-3.584-9.412-2.33
			c-3.319,1.263-5.513,4.437-5.513,7.979v376.303c0,2.116,0.785,4.147,2.21,5.726l105.728,116.864
			c0.341,0.375,0.717,0.725,1.118,1.033c3.072,2.364,6.733,3.541,10.411,3.541c3.678,0,7.339-1.178,10.411-3.541
			c0.401-0.307,0.777-0.657,1.118-1.033l105.728-116.864c1.425-1.579,2.21-3.61,2.21-5.726V8.532
			C375.466,4.991,373.273,1.816,369.953,0.553z"/>
	</g>
</g>
<g>
</g>
<g>
</g>
<g>
</g>
<g>
</g>
<g>
</g>
<g>
</g>
<g>
</g>
<g>
</g>
<g>
</g>
<g>
</g>
<g>
</g>
<g>
</g>
<g>
</g>
<g>
</g>
<g>
</g>
</svg>
