<?xml version="1.0" encoding="iso-8859-1"?>
<!-- Generator: Adobe Illustrator 19.0.0, SVG Export Plug-In . SVG Version: 6.00 Build 0)  -->
<svg version="1.1" id="Layer_1" xmlns="http://www.w3.org/2000/svg" xmlns:xlink="http://www.w3.org/1999/xlink" x="0px" y="0px"
	 viewBox="0 0 512 512" style="enable-background:new 0 0 512 512;" xml:space="preserve">
<g>
	<g>
		<g>
			<path d="M497.434,151.1c2.449,2.449,6.127,3.174,9.301,1.852c3.191-1.323,5.265-4.437,5.265-7.885V8.533
				C512,3.823,508.186,0,503.467,0H366.933c-3.447,0-6.571,2.082-7.885,5.265c-1.323,3.191-0.589,6.861,1.852,9.301l44.134,44.134
				l-79.718,79.71c-20.992-12.416-44.809-18.944-69.316-18.944s-48.324,6.528-69.316,18.944l-79.718-79.71L151.1,14.566
				c2.441-2.441,3.174-6.11,1.852-9.301C151.637,2.082,148.514,0,145.067,0H8.533C3.814,0,0,3.823,0,8.533v136.533
				c0,3.448,2.074,6.562,5.265,7.885s6.861,0.589,9.301-1.852l44.134-44.134l79.718,79.71c-12.416,21-18.953,44.817-18.953,69.325
				c0,24.508,6.537,48.324,18.953,69.325l-79.718,79.71L14.566,360.9c-2.441-2.44-6.101-3.166-9.301-1.852
				C2.074,360.371,0,363.486,0,366.933v136.533C0,508.177,3.814,512,8.533,512h136.533c3.448,0,6.571-2.082,7.885-5.265
				c1.323-3.191,0.589-6.861-1.852-9.301l-44.134-44.134l79.718-79.71c20.992,12.416,44.809,18.944,69.316,18.944
				s48.324-6.528,69.316-18.944l79.718,79.71L360.9,497.434c-2.441,2.441-3.174,6.11-1.852,9.301
				c1.314,3.183,4.437,5.265,7.885,5.265h136.533c4.719,0,8.533-3.823,8.533-8.533V366.933c0-3.447-2.074-6.562-5.265-7.885
				c-3.183-1.323-6.861-0.597-9.301,1.852l-44.134,44.134l-79.718-79.71c12.416-21.001,18.953-44.817,18.953-69.325
				c0-24.508-6.536-48.324-18.953-69.325l79.718-79.71L497.434,151.1z M256,349.867c-51.755,0-93.867-42.112-93.867-93.867
				c0-51.755,42.112-93.867,93.867-93.867c51.755,0,93.867,42.112,93.867,93.867C349.867,307.755,307.755,349.867,256,349.867z"/>
			<path d="M256,179.2c-42.351,0-76.8,34.458-76.8,76.8s34.449,76.8,76.8,76.8s76.8-34.458,76.8-76.8S298.351,179.2,256,179.2z"/>
		</g>
	</g>
</g>
<g>
</g>
<g>
</g>
<g>
</g>
<g>
</g>
<g>
</g>
<g>
</g>
<g>
</g>
<g>
</g>
<g>
</g>
<g>
</g>
<g>
</g>
<g>
</g>
<g>
</g>
<g>
</g>
<g>
</g>
</svg>
