<?xml version="1.0" encoding="iso-8859-1"?>
<!-- Generator: Adobe Illustrator 19.0.0, SVG Export Plug-In . SVG Version: 6.00 Build 0)  -->
<svg version="1.1" id="Layer_1" xmlns="http://www.w3.org/2000/svg" xmlns:xlink="http://www.w3.org/1999/xlink" x="0px" y="0px"
	 viewBox="0 0 512.188 512.188" style="enable-background:new 0 0 512.188 512.188;" xml:space="preserve">
<g>
	<g>
		<path d="M370.099,290.227c12.902,26.837,36.941,42.667,65.289,42.667c42.342,0,76.8-34.458,76.8-76.8s-34.458-76.8-76.8-76.8
			c-28.348,0-52.386,15.829-65.289,42.667h-71.245v-68.267c0-23.526,19.14-42.667,42.667-42.667h28.578
			c12.902,26.837,36.941,42.667,65.289,42.667c42.342,0,76.8-34.458,76.8-76.8s-34.458-76.8-76.8-76.8
			c-28.348,0-52.386,15.829-65.289,42.667h-28.578c-61.167,0-110.933,49.766-110.933,110.933v59.733h-76.8v-34.884
			c0-9.668-5.342-18.398-13.943-22.801c-8.593-4.386-18.807-3.618-26.641,2.039l-99.789,72.073C4.89,236.015,0,245.581,0,256.094
			c0,10.513,4.89,20.079,13.414,26.24l99.789,72.073c7.834,5.658,18.039,6.426,26.641,2.039
			c8.602-4.403,13.943-13.133,13.943-22.801v-43.418h76.8v68.267c0,61.167,49.766,110.933,110.933,110.933h28.578
			c12.902,26.837,36.941,42.667,65.289,42.667c42.342,0,76.8-34.458,76.8-76.8s-34.458-76.8-76.8-76.8
			c-28.348,0-52.386,15.829-65.289,42.667h-28.578c-23.526,0-42.667-19.14-42.667-42.667v-68.267H370.099z"/>
	</g>
</g>
<g>
</g>
<g>
</g>
<g>
</g>
<g>
</g>
<g>
</g>
<g>
</g>
<g>
</g>
<g>
</g>
<g>
</g>
<g>
</g>
<g>
</g>
<g>
</g>
<g>
</g>
<g>
</g>
<g>
</g>
</svg>
