<?xml version="1.0" encoding="iso-8859-1"?>
<!-- Generator: Adobe Illustrator 19.0.0, SVG Export Plug-In . SVG Version: 6.00 Build 0)  -->
<svg version="1.1" id="Layer_1" xmlns="http://www.w3.org/2000/svg" xmlns:xlink="http://www.w3.org/1999/xlink" x="0px" y="0px"
	 viewBox="0 0 512.003 512.003" style="enable-background:new 0 0 512.003 512.003;" xml:space="preserve">
<g>
	<g>
		<path d="M508.47,245.599c-0.316-0.41-0.657-0.785-1.041-1.135L390.556,138.736c-1.57-1.417-3.61-2.202-5.726-2.202H8.536
			c-3.55,0-6.724,2.193-7.979,5.513c-1.263,3.311-0.333,7.066,2.321,9.412l118.127,104.542L2.878,360.543
			c-2.654,2.347-3.584,6.101-2.321,9.412c1.254,3.319,4.429,5.513,7.979,5.513H384.83c2.116,0,4.156-0.785,5.726-2.202
			l116.873-105.728c0.384-0.35,0.725-0.725,1.041-1.135C513.18,260.277,513.18,251.726,508.47,245.599z"/>
	</g>
</g>
<g>
</g>
<g>
</g>
<g>
</g>
<g>
</g>
<g>
</g>
<g>
</g>
<g>
</g>
<g>
</g>
<g>
</g>
<g>
</g>
<g>
</g>
<g>
</g>
<g>
</g>
<g>
</g>
<g>
</g>
</svg>
