<?xml version="1.0" encoding="iso-8859-1"?>
<!-- Generator: Adobe Illustrator 19.0.0, SVG Export Plug-In . SVG Version: 6.00 Build 0)  -->
<svg version="1.1" id="Layer_1" xmlns="http://www.w3.org/2000/svg" xmlns:xlink="http://www.w3.org/1999/xlink" x="0px" y="0px"
	 viewBox="0 0 512.001 512.001" style="enable-background:new 0 0 512.001 512.001;" xml:space="preserve">
<g>
	<g>
		<g>
			<path d="M227.456,0H76.8C56.679,0,38.4,7.834,24.696,20.54l237.235,229.325c1.638,1.587,2.586,3.772,2.603,6.067V256
				c0,2.261-0.905,4.437-2.5,6.033L28.92,495.147C42.061,505.668,58.693,512,76.8,512h166.537l248.064-255.812L227.456,0z"/>
			<path d="M13.476,33.432C4.986,45.788,0.002,60.713,0.002,76.798v358.4c0,18.108,6.332,34.739,16.853,47.881l226.97-226.97
				L13.476,33.432z"/>
			<path d="M435.199,0.001H251.962l257.442,249.873c1.724,1.681,2.594,3.9,2.594,6.127v-179.2
				C511.999,34.458,477.55,0.001,435.199,0.001z"/>
			<path d="M267.109,512.001h168.09c42.351,0,76.8-34.458,76.8-76.8v-179.2c0,2.142-0.802,4.284-2.406,5.939L267.109,512.001z"/>
		</g>
	</g>
</g>
<g>
</g>
<g>
</g>
<g>
</g>
<g>
</g>
<g>
</g>
<g>
</g>
<g>
</g>
<g>
</g>
<g>
</g>
<g>
</g>
<g>
</g>
<g>
</g>
<g>
</g>
<g>
</g>
<g>
</g>
</svg>
