<?xml version="1.0" encoding="iso-8859-1"?>
<!-- Generator: Adobe Illustrator 19.0.0, SVG Export Plug-In . SVG Version: 6.00 Build 0)  -->
<svg version="1.1" id="Layer_1" xmlns="http://www.w3.org/2000/svg" xmlns:xlink="http://www.w3.org/1999/xlink" x="0px" y="0px"
	 viewBox="0 0 512 512" style="enable-background:new 0 0 512 512;" xml:space="preserve">
<g>
	<g>
		<path d="M373.257,121.442L267.528,4.578c-0.341-0.384-0.717-0.725-1.118-1.033c-6.135-4.727-14.686-4.727-20.821,0
			c-0.401,0.307-0.777,0.649-1.118,1.033L138.743,121.442c-1.425,1.57-2.21,3.61-2.21,5.726v376.294c0,3.55,2.193,6.724,5.513,7.979
			c3.294,1.263,7.066,0.341,9.412-2.321L256,390.993L360.542,509.12c1.647,1.86,4.002,2.876,6.391,2.876
			c1.015,0,2.039-0.179,3.021-0.555c3.32-1.254,5.513-4.429,5.513-7.979V127.168C375.467,125.052,374.682,123.012,373.257,121.442z"
			/>
	</g>
</g>
<g>
</g>
<g>
</g>
<g>
</g>
<g>
</g>
<g>
</g>
<g>
</g>
<g>
</g>
<g>
</g>
<g>
</g>
<g>
</g>
<g>
</g>
<g>
</g>
<g>
</g>
<g>
</g>
<g>
</g>
</svg>
