<?xml version="1.0" encoding="iso-8859-1"?>
<!-- Generator: Adobe Illustrator 19.0.0, SVG Export Plug-In . SVG Version: 6.00 Build 0)  -->
<svg version="1.1" id="Layer_1" xmlns="http://www.w3.org/2000/svg" xmlns:xlink="http://www.w3.org/1999/xlink" x="0px" y="0px"
	 viewBox="0 0 512.002 512.002" style="enable-background:new 0 0 512.002 512.002;" xml:space="preserve">
<g>
	<g>
		<path d="M509.501,249.969L262.034,2.502c-3.337-3.336-8.73-3.336-12.066,0L2.501,249.969c-1.604,1.596-2.5,3.772-2.5,6.033
			v247.467c0,3.447,2.082,6.562,5.265,7.885c3.191,1.314,6.852,0.589,9.301-1.852l241.434-241.434l241.434,241.434
			c1.63,1.63,3.814,2.5,6.033,2.5c1.101,0,2.21-0.213,3.268-0.648c3.191-1.323,5.265-4.437,5.265-7.885V256.002
			C512.001,253.741,511.105,251.565,509.501,249.969z"/>
	</g>
</g>
<g>
</g>
<g>
</g>
<g>
</g>
<g>
</g>
<g>
</g>
<g>
</g>
<g>
</g>
<g>
</g>
<g>
</g>
<g>
</g>
<g>
</g>
<g>
</g>
<g>
</g>
<g>
</g>
<g>
</g>
</svg>
