<?xml version="1.0" encoding="iso-8859-1"?>
<!-- Generator: Adobe Illustrator 19.0.0, SVG Export Plug-In . SVG Version: 6.00 Build 0)  -->
<svg version="1.1" id="Layer_1" xmlns="http://www.w3.org/2000/svg" xmlns:xlink="http://www.w3.org/1999/xlink" x="0px" y="0px"
	 viewBox="0 0 512.001 512.001" style="enable-background:new 0 0 512.001 512.001;" xml:space="preserve">
<g>
	<g>
		<g>
			<path d="M0,284.544V435.2c0,20.122,7.834,38.4,20.54,52.105l229.325-237.235c1.587-1.638,3.772-2.586,6.067-2.603H256
				c2.261,0,4.437,0.905,6.033,2.5l233.114,233.114C505.668,469.939,512,453.308,512,435.2V268.663L256.188,20.599L0,284.544z"/>
			<path d="M33.431,498.525c12.356,8.491,27.281,13.474,43.366,13.474h358.4c18.108,0,34.739-6.332,47.881-16.853l-226.97-226.97
				L33.431,498.525z"/>
			<path d="M256.001,0.003h-179.2c-42.342,0-76.8,34.449-76.8,76.8v183.236L249.874,2.597
				C251.555,0.873,253.774,0.003,256.001,0.003z"/>
			<path d="M435.201,0.002h-179.2c2.142,0,4.284,0.802,5.939,2.406l250.061,242.483V76.802
				C512.001,34.451,477.543,0.002,435.201,0.002z"/>
		</g>
	</g>
</g>
<g>
</g>
<g>
</g>
<g>
</g>
<g>
</g>
<g>
</g>
<g>
</g>
<g>
</g>
<g>
</g>
<g>
</g>
<g>
</g>
<g>
</g>
<g>
</g>
<g>
</g>
<g>
</g>
<g>
</g>
</svg>
