<?xml version="1.0" encoding="iso-8859-1"?>
<!-- Generator: Adobe Illustrator 19.0.0, SVG Export Plug-In . SVG Version: 6.00 Build 0)  -->
<svg version="1.1" id="Layer_1" xmlns="http://www.w3.org/2000/svg" xmlns:xlink="http://www.w3.org/1999/xlink" x="0px" y="0px"
	 viewBox="0 0 512 512" style="enable-background:new 0 0 512 512;" xml:space="preserve">
<g>
	<g>
		<rect x="347.548" y="205.913" width="97.67" height="102.957"/>
	</g>
</g>
<g>
	<g>
		<rect x="66.783" y="205.913" width="101.521" height="102.957"/>
	</g>
</g>
<g>
	<g>
		<rect x="347.548" y="342.261" width="97.67" height="102.957"/>
	</g>
</g>
<g>
	<g>
		<rect x="201.695" y="205.913" width="112.462" height="102.957"/>
	</g>
</g>
<g>
	<g>
		<polygon points="426.296,44.522 426.296,0 392.904,0 392.904,44.522 323.896,44.522 323.896,0 290.504,0 290.504,44.522 
			221.496,44.522 221.496,0 188.104,0 188.104,44.522 119.096,44.522 119.096,0 85.704,0 85.704,44.522 0,44.522 0,105.739 
			512,105.739 512,44.522 		"/>
	</g>
</g>
<g>
	<g>
		<rect x="201.695" y="342.261" width="112.462" height="102.957"/>
	</g>
</g>
<g>
	<g>
		<path d="M0,139.13V512h512V139.13H0z M478.609,478.609H33.391V172.522h445.217V478.609z"/>
	</g>
</g>
<g>
	<g>
		<rect x="66.783" y="342.261" width="101.521" height="102.957"/>
	</g>
</g>
<g>
</g>
<g>
</g>
<g>
</g>
<g>
</g>
<g>
</g>
<g>
</g>
<g>
</g>
<g>
</g>
<g>
</g>
<g>
</g>
<g>
</g>
<g>
</g>
<g>
</g>
<g>
</g>
<g>
</g>
</svg>
