<?xml version="1.0" encoding="iso-8859-1"?>
<!-- Generator: Adobe Illustrator 19.0.0, SVG Export Plug-In . SVG Version: 6.00 Build 0)  -->
<svg version="1.1" id="Layer_1" xmlns="http://www.w3.org/2000/svg" xmlns:xlink="http://www.w3.org/1999/xlink" x="0px" y="0px"
	 viewBox="0 0 512 512" style="enable-background:new 0 0 512 512;" xml:space="preserve">
<g>
	<g>
		<path d="M256,83.478c-95.128,0-172.522,77.393-172.522,172.522S160.872,428.522,256,428.522S428.522,351.128,428.522,256
			S351.128,83.478,256,83.478z M239.304,272.696V122.435h33.391v116.87h116.87v33.391H239.304z"/>
	</g>
</g>
<g>
	<g>
		<path d="M256,0C114.615,0,0,114.615,0,256s114.615,256,256,256s256-114.616,256-256S397.385,0,256,0z M256,461.913
			C142.46,461.913,50.087,369.54,50.087,256S142.46,50.087,256,50.087c113.542,0,205.913,92.373,205.913,205.913
			S369.542,461.913,256,461.913z"/>
	</g>
</g>
<g>
</g>
<g>
</g>
<g>
</g>
<g>
</g>
<g>
</g>
<g>
</g>
<g>
</g>
<g>
</g>
<g>
</g>
<g>
</g>
<g>
</g>
<g>
</g>
<g>
</g>
<g>
</g>
<g>
</g>
</svg>
