<?xml version="1.0" encoding="iso-8859-1"?>
<!-- Generator: Adobe Illustrator 19.0.0, SVG Export Plug-In . SVG Version: 6.00 Build 0)  -->
<svg version="1.1" id="Layer_1" xmlns="http://www.w3.org/2000/svg" xmlns:xlink="http://www.w3.org/1999/xlink" x="0px" y="0px"
	 viewBox="0 0 512 512" style="enable-background:new 0 0 512 512;" xml:space="preserve">
<g>
	<g>
		<path d="M495.66,332.526H392.17V199.524h31.591c14.253,0,21.662-17.046,11.963-27.47L327.878,56.137
			c-6.453-6.936-17.461-6.95-23.928,0L196.104,172.053c-9.709,10.436-2.273,27.47,11.963,27.47h31.591v37.138H136.169
			c-9.024,0-16.34,7.316-16.34,16.34v79.523H16.34c-9.024,0-16.34,7.316-16.34,16.34v95.864c0,9.024,7.316,16.34,16.34,16.34
			c7.342,0,471.385,0,479.319,0c9.024,0,16.34-7.316,16.34-16.34v-95.864C512,339.842,504.684,332.526,495.66,332.526z
			 M239.66,428.39h-87.149c0-2.275,0-156.773,0-159.047h87.149V428.39z M479.319,428.39H392.17v-63.183h87.149V428.39z"/>
	</g>
</g>
<g>
</g>
<g>
</g>
<g>
</g>
<g>
</g>
<g>
</g>
<g>
</g>
<g>
</g>
<g>
</g>
<g>
</g>
<g>
</g>
<g>
</g>
<g>
</g>
<g>
</g>
<g>
</g>
<g>
</g>
</svg>
