<?xml version="1.0" encoding="iso-8859-1"?>
<!-- Generator: Adobe Illustrator 19.0.0, SVG Export Plug-In . SVG Version: 6.00 Build 0)  -->
<svg version="1.1" id="Layer_1" xmlns="http://www.w3.org/2000/svg" xmlns:xlink="http://www.w3.org/1999/xlink" x="0px" y="0px"
	 viewBox="0 0 512 512" style="enable-background:new 0 0 512 512;" xml:space="preserve">
<g>
	<g>
		<path d="M256.048,100.071c-15.264,0-27.682,12.418-27.682,27.682c0,15.264,12.418,27.682,27.682,27.682
			c15.264,0,27.681-12.418,27.681-27.682C283.729,112.489,271.312,100.071,256.048,100.071z"/>
	</g>
</g>
<g>
	<g>
		<path d="M256.048,15.951c-61.648,0-111.801,50.153-111.801,111.801s50.153,111.802,111.801,111.802
			s111.801-50.153,111.801-111.801C367.849,66.105,317.696,15.951,256.048,15.951z M256.048,188.833
			c-33.679,0-61.08-27.401-61.08-61.08s27.401-61.08,61.08-61.08c33.679,0,61.079,27.401,61.079,61.08
			C317.127,161.432,289.728,188.833,256.048,188.833z"/>
	</g>
</g>
<g>
	<g>
		<path d="M120.435,248.897H16.699C7.477,248.897,0,256.374,0,265.596V479.35c0,9.222,7.477,16.699,16.699,16.699h103.736
			c9.222,0,16.699-7.477,16.699-16.699V265.596C137.134,256.374,129.657,248.897,120.435,248.897z"/>
	</g>
</g>
<g>
	<g>
		<path d="M501.108,321.488c-18.077-22.784-51.249-26.096-73.456-7.46l-79.113,66.383c-24.799,0-44.492,0-67.177,0l35.938-30.155
			c27.34-22.941,12.375-68.954-24.879-68.954H170.532v198.715c8.896,7.193,20.04,11.154,31.496,11.154h156.498
			c11.757,0,23.192-4.161,32.201-11.719l102.571-86.061C514.766,375.375,518.272,343.12,501.108,321.488z"/>
	</g>
</g>
<g>
</g>
<g>
</g>
<g>
</g>
<g>
</g>
<g>
</g>
<g>
</g>
<g>
</g>
<g>
</g>
<g>
</g>
<g>
</g>
<g>
</g>
<g>
</g>
<g>
</g>
<g>
</g>
<g>
</g>
</svg>
