<?xml version="1.0" encoding="iso-8859-1"?>
<!-- Generator: Adobe Illustrator 19.0.0, SVG Export Plug-In . SVG Version: 6.00 Build 0)  -->
<svg version="1.1" id="Layer_1" xmlns="http://www.w3.org/2000/svg" xmlns:xlink="http://www.w3.org/1999/xlink" x="0px" y="0px"
	 viewBox="0 0 512 512" style="enable-background:new 0 0 512 512;" xml:space="preserve">
<g>
	<g>
		<path d="M334.127,384.756c-8.157,0-14.795,6.637-14.795,14.795s6.637,14.795,14.795,14.795s14.795-6.637,14.795-14.795
			S342.284,384.756,334.127,384.756z"/>
	</g>
</g>
<g>
	<g>
		<path d="M447.283,99.79L352.384,4.891C349.253,1.759,345.006,0,340.578,0H76.522c-9.22,0-16.696,7.475-16.696,16.696v478.609
			c0,9.22,7.475,16.696,16.696,16.696h358.957c9.22,0,16.696-7.475,16.696-16.696V111.596
			C452.174,107.167,450.414,102.921,447.283,99.79z M146.383,95.754h42.88c9.22,0,16.696,7.475,16.696,16.696
			c0,9.22-7.475,16.696-16.696,16.696h-42.88c-9.22,0-16.696-7.475-16.696-16.696C129.687,103.229,137.162,95.754,146.383,95.754z
			 M189.263,416.246h-42.88c-9.22,0-16.696-7.475-16.696-16.696s7.475-16.696,16.696-16.696h42.88
			c9.22,0,16.696,7.475,16.696,16.696S198.483,416.246,189.263,416.246z M334.127,447.736c-26.569,0-48.186-21.616-48.186-48.186
			s21.616-48.186,48.186-48.186s48.186,21.616,48.186,48.186S360.696,447.736,334.127,447.736z M365.617,281.906H146.383
			c-9.22,0-16.696-7.475-16.696-16.696c0-9.22,7.475-16.696,16.696-16.696h219.235c9.22,0,16.696,7.475,16.696,16.696
			C382.314,274.431,374.839,281.906,365.617,281.906z M365.617,205.526H146.383c-9.22,0-16.696-7.475-16.696-16.696
			c0-9.22,7.475-16.696,16.696-16.696h219.235c9.22,0,16.696,7.475,16.696,16.696C382.314,198.05,374.839,205.526,365.617,205.526z"
			/>
	</g>
</g>
<g>
</g>
<g>
</g>
<g>
</g>
<g>
</g>
<g>
</g>
<g>
</g>
<g>
</g>
<g>
</g>
<g>
</g>
<g>
</g>
<g>
</g>
<g>
</g>
<g>
</g>
<g>
</g>
<g>
</g>
</svg>
