<?xml version="1.0" encoding="iso-8859-1"?>
<!-- Generator: Adobe Illustrator 19.0.0, SVG Export Plug-In . SVG Version: 6.00 Build 0)  -->
<svg version="1.1" id="Layer_1" xmlns="http://www.w3.org/2000/svg" xmlns:xlink="http://www.w3.org/1999/xlink" x="0px" y="0px"
	 viewBox="0 0 512 512" style="enable-background:new 0 0 512 512;" xml:space="preserve">
<g>
	<g>
		<path d="M474.635,227.161H226.107l-18.078-45.529c-2.525-6.36-8.675-10.535-15.517-10.535H37.365
			c-9.22,0-16.696,7.475-16.696,16.696v307.512c0,9.22,7.475,16.696,16.696,16.696h437.27c9.22,0,16.696-7.475,16.696-16.696
			V243.857C491.331,234.636,483.856,227.161,474.635,227.161z M413.418,417.391c0,9.22-7.475,16.696-16.696,16.696h-62.9
			c-9.22,0-16.696-7.475-16.696-16.696v-62.9c0-9.22,7.475-16.696,16.696-16.696h62.9c9.22,0,16.696,7.475,16.696,16.696V417.391z"
			/>
	</g>
</g>
<g>
	<g>
		<path d="M435.478,0H76.522c-9.22,0-16.696,7.475-16.696,16.696v121.01h132.686c20.656,0,38.928,12.404,46.551,31.602l9.714,24.462
			h203.398V16.696C452.174,7.475,444.699,0,435.478,0z"/>
	</g>
</g>
<g>
</g>
<g>
</g>
<g>
</g>
<g>
</g>
<g>
</g>
<g>
</g>
<g>
</g>
<g>
</g>
<g>
</g>
<g>
</g>
<g>
</g>
<g>
</g>
<g>
</g>
<g>
</g>
<g>
</g>
</svg>
