<?xml version="1.0" encoding="iso-8859-1"?>
<!-- Generator: Adobe Illustrator 19.0.0, SVG Export Plug-In . SVG Version: 6.00 Build 0)  -->
<svg version="1.1" id="Layer_1" xmlns="http://www.w3.org/2000/svg" xmlns:xlink="http://www.w3.org/1999/xlink" x="0px" y="0px"
	 viewBox="0 0 512 512" style="enable-background:new 0 0 512 512;" xml:space="preserve">
<g>
	<g>
		<path d="M429.824,478.609h-37.476c0-11.057,0-91.619,0-102.957c0-51.533-28.739-96.475-71.028-119.653
			c42.289-23.178,71.027-68.12,71.027-119.652V33.391h37.477c9.22,0,16.696-7.475,16.696-16.696S439.044,0,429.824,0
			c-7.573,0-339.92,0-347.648,0C72.956,0,65.48,7.475,65.48,16.696s7.475,16.696,16.696,16.696h37.477v102.955
			c0,51.532,28.738,96.473,71.027,119.652c-42.289,23.178-71.028,68.12-71.028,119.653c0,11.361,0,91.87,0,102.957H82.176
			c-9.22,0-16.696,7.475-16.696,16.696S72.956,512,82.176,512c16.305,0,331.415,0,347.648,0c9.22,0,16.696-7.475,16.696-16.696
			S439.044,478.609,429.824,478.609z M358.957,478.609H153.043v-66.193h205.913V478.609z"/>
	</g>
</g>
<g>
</g>
<g>
</g>
<g>
</g>
<g>
</g>
<g>
</g>
<g>
</g>
<g>
</g>
<g>
</g>
<g>
</g>
<g>
</g>
<g>
</g>
<g>
</g>
<g>
</g>
<g>
</g>
<g>
</g>
</svg>
