<?xml version="1.0" encoding="iso-8859-1"?>
<!-- Generator: Adobe Illustrator 19.0.0, SVG Export Plug-In . SVG Version: 6.00 Build 0)  -->
<svg version="1.1" id="Layer_1" xmlns="http://www.w3.org/2000/svg" xmlns:xlink="http://www.w3.org/1999/xlink" x="0px" y="0px"
	 viewBox="0 0 512 512" style="enable-background:new 0 0 512 512;" xml:space="preserve">
<g>
	<g>
		<path d="M461.913,11.965H50.087C22.469,11.965,0,34.434,0,62.052v292.174c0,27.618,22.469,50.087,50.087,50.087h129.391v62.33
			h-31.165c-9.22,0-16.696,7.475-16.696,16.696s7.475,16.696,16.696,16.696c5.508,0,198.153,0,215.374,0
			c9.22,0,16.696-7.475,16.696-16.696s-7.475-16.696-16.696-16.696h-31.165v-62.33h129.391c27.618,0,50.087-22.469,50.087-50.087
			V62.052C512,34.434,489.531,11.965,461.913,11.965z M452.174,327.791c0,9.22-7.475,16.696-16.696,16.696H76.522
			c-9.22,0-16.696-7.475-16.696-16.696V88.487c0-9.22,7.475-16.696,16.696-16.696h358.957c9.22,0,16.696,7.475,16.696,16.696
			V327.791z"/>
	</g>
</g>
<g>
	<g>
		<path d="M93.217,105.183v205.913h325.565V105.183H93.217z M286.456,260.332H138.719c-9.22,0-16.696-7.475-16.696-16.696
			c0-9.22,7.475-16.696,16.696-16.696h147.738c9.22,0,16.696,7.475,16.696,16.696C303.152,252.857,295.677,260.332,286.456,260.332z
			 M286.456,189.338H138.719c-9.22,0-16.696-7.475-16.696-16.696s7.475-16.696,16.696-16.696h147.738
			c9.22,0,16.696,7.475,16.696,16.696S295.677,189.338,286.456,189.338z M375.652,260.332h-32.006
			c-9.22,0-16.696-7.475-16.696-16.696c0-9.22,7.475-16.696,16.696-16.696h32.006c9.22,0,16.696,7.475,16.696,16.696
			C392.348,252.857,384.873,260.332,375.652,260.332z M375.652,189.338h-32.006c-9.22,0-16.696-7.475-16.696-16.696
			s7.475-16.696,16.696-16.696h32.006c9.22,0,16.696,7.475,16.696,16.696S384.873,189.338,375.652,189.338z"/>
	</g>
</g>
<g>
</g>
<g>
</g>
<g>
</g>
<g>
</g>
<g>
</g>
<g>
</g>
<g>
</g>
<g>
</g>
<g>
</g>
<g>
</g>
<g>
</g>
<g>
</g>
<g>
</g>
<g>
</g>
<g>
</g>
</svg>
