<?xml version="1.0" encoding="iso-8859-1"?>
<!-- Generator: Adobe Illustrator 19.0.0, SVG Export Plug-In . SVG Version: 6.00 Build 0)  -->
<svg version="1.1" id="Layer_1" xmlns="http://www.w3.org/2000/svg" xmlns:xlink="http://www.w3.org/1999/xlink" x="0px" y="0px"
	 viewBox="0 0 512 512" style="enable-background:new 0 0 512 512;" xml:space="preserve">
<g>
	<g>
		<path d="M186.487,376.174h-1.049v-69.244c0-8.836-7.164-16-16-16H33.049c-8.836,0-16,7.164-16,16v69.244H16
			c-8.836,0-16,7.164-16,16v42.622c0,8.836,7.164,16,16,16h170.487c8.836,0,16-7.164,16-16v-42.622
			C202.487,383.338,195.324,376.174,186.487,376.174z M153.439,376.174H49.049v-53.244h104.39V376.174z"/>
	</g>
</g>
<g>
	<g>
		<path d="M410.756,173.559H101.244c-8.836,0-16,7.164-16,16v69.372h32v-53.372h277.513v53.372h32v-69.372
			C426.756,180.723,419.593,173.559,410.756,173.559z"/>
	</g>
</g>
<g>
	<g>
		<path d="M317.189,81.281c-17.841-13.134-39-20.077-61.191-20.077c-22.188,0.001-43.344,6.942-61.182,20.071
			c-7.116,5.238-8.639,15.254-3.401,22.371c5.238,7.117,15.254,8.638,22.371,3.399c25.25-18.588,59.18-18.587,84.43,0.003
			c2.857,2.103,6.179,3.117,9.474,3.117c4.912,0,9.76-2.255,12.897-6.514C325.827,96.535,324.305,86.519,317.189,81.281z"/>
	</g>
</g>
<g>
	<g>
		<path d="M286.62,122.871c-18.317-13.498-42.93-13.494-61.244,0.001c-7.114,5.243-8.631,15.259-3.39,22.373
			c3.136,4.256,7.982,6.51,12.894,6.51c3.296,0,6.622-1.014,9.478-3.12c6.962-5.132,16.317-5.131,23.28-0.001
			c7.115,5.242,17.132,3.725,22.372-3.391C295.252,138.129,293.734,128.112,286.62,122.871z"/>
	</g>
</g>
<g>
	<g>
		<path d="M496,376.174h-1.049v-69.244c0-8.836-7.164-16-16-16h-136.39c-8.836,0-16,7.164-16,16v69.244h-1.049
			c-8.836,0-16,7.164-16,16v42.622c0,8.836,7.164,16,16,16H496c8.836,0,16-7.164,16-16v-42.622
			C512,383.338,504.836,376.174,496,376.174z M462.95,376.174H358.561v-53.244H462.95V376.174z"/>
	</g>
</g>
<g>
</g>
<g>
</g>
<g>
</g>
<g>
</g>
<g>
</g>
<g>
</g>
<g>
</g>
<g>
</g>
<g>
</g>
<g>
</g>
<g>
</g>
<g>
</g>
<g>
</g>
<g>
</g>
<g>
</g>
</svg>
