<?xml version="1.0" encoding="iso-8859-1"?>
<!-- Generator: Adobe Illustrator 19.0.0, SVG Export Plug-In . SVG Version: 6.00 Build 0)  -->
<svg version="1.1" id="Layer_1" xmlns="http://www.w3.org/2000/svg" xmlns:xlink="http://www.w3.org/1999/xlink" x="0px" y="0px"
	 viewBox="0 0 512 512" style="enable-background:new 0 0 512 512;" xml:space="preserve">
<g>
	<g>
		<path d="M148.87,89.044v333.913H363.13V89.044H148.87z M317.685,380.694h-123.37c-9.22,0-16.696-7.475-16.696-16.696
			s7.475-16.696,16.696-16.696h123.37c9.22,0,16.696,7.475,16.696,16.696S326.905,380.694,317.685,380.694z M317.685,272.696
			h-123.37c-9.22,0-16.696-7.475-16.696-16.696c0-9.22,7.475-16.696,16.696-16.696h123.37c9.22,0,16.696,7.475,16.696,16.696
			C334.38,265.22,326.905,272.696,317.685,272.696z M317.685,164.697h-123.37c-9.22,0-16.696-7.475-16.696-16.696
			s7.475-16.696,16.696-16.696h123.37c9.22,0,16.696,7.475,16.696,16.696S326.905,164.697,317.685,164.697z"/>
	</g>
</g>
<g>
	<g>
		<path d="M435.478,0H76.522c-9.22,0-16.696,7.475-16.696,16.696v478.609c0,9.22,7.475,16.696,16.696,16.696h358.957
			c9.22,0,16.696-7.475,16.696-16.696V16.696C452.174,7.475,444.699,0,435.478,0z M396.522,439.652
			c0,9.22-7.475,16.696-16.696,16.696H132.174c-9.22,0-16.696-7.475-16.696-16.696V72.348c0-9.22,7.475-16.696,16.696-16.696
			h247.652c9.22,0,16.696,7.475,16.696,16.696V439.652z"/>
	</g>
</g>
<g>
</g>
<g>
</g>
<g>
</g>
<g>
</g>
<g>
</g>
<g>
</g>
<g>
</g>
<g>
</g>
<g>
</g>
<g>
</g>
<g>
</g>
<g>
</g>
<g>
</g>
<g>
</g>
<g>
</g>
</svg>
