<?xml version="1.0" encoding="iso-8859-1"?>
<!-- Generator: Adobe Illustrator 19.0.0, SVG Export Plug-In . SVG Version: 6.00 Build 0)  -->
<svg version="1.1" id="Layer_1" xmlns="http://www.w3.org/2000/svg" xmlns:xlink="http://www.w3.org/1999/xlink" x="0px" y="0px"
	 viewBox="0 0 512.001 512.001" style="enable-background:new 0 0 512.001 512.001;" xml:space="preserve">
<g>
	<g>
		<path d="M406.485,210.965c9.024,0,16.34-7.316,16.34-16.34v-89.175c0-9.024-7.316-16.34-16.34-16.34h-95.13V16.34
			c0-9.024-7.316-16.34-16.34-16.34h-78.029c-9.024,0-16.34,7.316-16.34,16.34v72.768h-61.688c-10.669,0-10.876,3.609-46.514,51.125
			c-4.357,5.81-4.357,13.799,0,19.608l33.441,44.588c3.086,4.115,7.929,6.536,13.072,6.536h61.688c0,13.055,0,273.614,0,284.695
			c0,9.024,7.316,16.34,16.34,16.34h78.029c9.024,0,16.34-7.316,16.34-16.34V372.028h61.688c5.143,0,9.986-2.422,13.072-6.536
			l33.441-44.589c4.357-5.81,4.357-13.799,0-19.608l-33.441-44.588c-3.086-4.115-7.929-6.536-13.072-6.536h-61.688v-39.206H406.485z
			 M364.873,282.853l21.186,28.246l-21.186,28.248c-26.491,0-103.943,0-131.547,0v-56.494
			C260.982,282.853,338.489,282.853,364.873,282.853z M147.128,178.283l-21.186-28.246l21.186-28.248c9.96,0,231.28,0,243.017,0
			v56.494C386.802,178.283,152.243,178.283,147.128,178.283z"/>
	</g>
</g>
<g>
</g>
<g>
</g>
<g>
</g>
<g>
</g>
<g>
</g>
<g>
</g>
<g>
</g>
<g>
</g>
<g>
</g>
<g>
</g>
<g>
</g>
<g>
</g>
<g>
</g>
<g>
</g>
<g>
</g>
</svg>
