<?xml version="1.0" encoding="iso-8859-1"?>
<!-- Generator: Adobe Illustrator 19.0.0, SVG Export Plug-In . SVG Version: 6.00 Build 0)  -->
<svg version="1.1" id="Layer_1" xmlns="http://www.w3.org/2000/svg" xmlns:xlink="http://www.w3.org/1999/xlink" x="0px" y="0px"
	 viewBox="0 0 512 512" style="enable-background:new 0 0 512 512;" xml:space="preserve">
<g>
	<g>
		<path d="M256.004,457.414c-111.058,0-201.411-90.353-201.411-201.41c0-77.488,43.855-145.529,109.381-179.21l0.271,0.469
			c2.925,5.067,8.331,8.188,14.181,8.188s11.257-3.121,14.181-8.188l24.442-42.336c2.926-5.067,2.926-11.309,0-16.376
			c-2.925-5.067-8.331-8.188-14.181-8.188h-48.886c-5.85,0-11.257,3.121-14.181,8.188c-1.835,3.178-2.518,6.818-2.051,10.341
			C54.954,72.026,0.008,158.284,0.008,256.004C0.008,397.507,114.518,512,256.004,512c15.049,0,27.293-12.244,27.293-27.293
			S271.054,457.414,256.004,457.414z"/>
	</g>
</g>
<g>
	<g>
		<path d="M511.992,255.996C511.992,114.493,397.483,0,255.997,0c-15.049,0-27.293,12.244-27.293,27.293
			c0,15.049,12.244,27.293,27.293,27.293c111.058,0,201.411,90.353,201.411,201.41c0,77.488-43.855,145.529-109.381,179.21
			l-0.271-0.469c-2.925-5.067-8.331-8.188-14.181-8.188c-5.851,0-11.257,3.121-14.181,8.188l-24.443,42.336
			c-2.926,5.067-2.926,11.309,0,16.376c2.925,5.067,8.331,8.188,14.181,8.188h48.886c5.851,0,11.257-3.121,14.181-8.188
			c1.835-3.178,2.518-6.818,2.051-10.341C457.047,439.974,511.992,353.716,511.992,255.996z"/>
	</g>
</g>
<g>
	<g>
		<path d="M256.004,91.299c-15.049,0-27.293,12.244-27.293,27.293v126.103l-43.355,43.356c-10.668,10.667-10.667,27.932,0,38.598
			c10.668,10.667,27.93,10.667,38.598,0l51.349-51.35c5.156-5.154,7.995-12.008,7.995-19.299V118.592
			C283.297,103.543,271.054,91.299,256.004,91.299z"/>
	</g>
</g>
<g>
</g>
<g>
</g>
<g>
</g>
<g>
</g>
<g>
</g>
<g>
</g>
<g>
</g>
<g>
</g>
<g>
</g>
<g>
</g>
<g>
</g>
<g>
</g>
<g>
</g>
<g>
</g>
<g>
</g>
</svg>
