<?xml version="1.0" encoding="iso-8859-1"?>
<!-- Generator: Adobe Illustrator 19.0.0, SVG Export Plug-In . SVG Version: 6.00 Build 0)  -->
<svg version="1.1" id="Layer_1" xmlns="http://www.w3.org/2000/svg" xmlns:xlink="http://www.w3.org/1999/xlink" x="0px" y="0px"
	 viewBox="0 0 512 512" style="enable-background:new 0 0 512 512;" xml:space="preserve">
<g>
	<g>
		<path d="M478.609,208.785V50.087c0-9.22-7.475-16.696-16.696-16.696H303.215C296.323,13.959,277.766,0,256,0
			s-40.323,13.959-47.215,33.391H50.087c-9.22,0-16.696,7.475-16.696,16.696v158.698C13.959,215.677,0,234.234,0,256
			s13.959,40.323,33.391,47.215v158.698c0,9.22,7.475,16.696,16.696,16.696h158.698C215.677,498.041,234.234,512,256,512
			s40.323-13.959,47.215-33.391h158.698c9.22,0,16.696-7.475,16.696-16.696V303.215C498.041,296.323,512,277.766,512,256
			S498.041,215.677,478.609,208.785z M66.783,66.783h141.989c0.592,1.675,1.263,3.312,2.022,4.9L71.682,210.794
			c-1.588-0.759-3.224-1.43-4.9-2.022V66.783z M208.77,445.216H66.783V303.229c1.675-0.591,3.312-1.263,4.9-2.022l139.11,139.11
			C210.033,441.905,209.362,443.541,208.77,445.216z M277.595,416.707c-6.538-3.128-13.861-4.881-21.595-4.881
			c-7.736,0-15.057,1.753-21.595,4.881L95.293,277.595c3.128-6.538,4.881-13.861,4.881-21.595c0-7.736-1.753-15.057-4.881-21.595
			L234.405,95.293c6.538,3.128,13.861,4.881,21.595,4.881c7.736,0,15.057-1.753,21.595-4.881l139.11,139.11
			c-3.127,6.539-4.88,13.862-4.88,21.596c0,7.736,1.753,15.057,4.881,21.595L277.595,416.707z M445.216,445.217H303.229
			c-0.592-1.675-1.263-3.312-2.022-4.9l139.11-139.11c1.588,0.759,3.224,1.43,4.9,2.022V445.217z M445.217,208.771
			c-1.675,0.591-3.312,1.263-4.9,2.022L301.206,71.682c0.759-1.588,1.43-3.224,2.022-4.9h141.989V208.771z"/>
	</g>
</g>
<g>
</g>
<g>
</g>
<g>
</g>
<g>
</g>
<g>
</g>
<g>
</g>
<g>
</g>
<g>
</g>
<g>
</g>
<g>
</g>
<g>
</g>
<g>
</g>
<g>
</g>
<g>
</g>
<g>
</g>
</svg>
