<?xml version="1.0" encoding="iso-8859-1"?>
<!-- Generator: Adobe Illustrator 19.0.0, SVG Export Plug-In . SVG Version: 6.00 Build 0)  -->
<svg version="1.1" id="Layer_1" xmlns="http://www.w3.org/2000/svg" xmlns:xlink="http://www.w3.org/1999/xlink" x="0px" y="0px"
	 viewBox="0 0 512 512" style="enable-background:new 0 0 512 512;" xml:space="preserve">
<g>
	<g>
		<path d="M332.323,322.783c0-6.922-2.966-13.134-7.674-17.491c4.708-4.357,7.674-10.569,7.674-17.491
			c0-13.172-10.679-23.851-23.851-23.851H201.938c-13.172,0-23.851,10.679-23.851,23.851c0,6.922,2.965,13.134,7.674,17.491
			c-4.708,4.357-7.674,10.569-7.674,17.491c0,6.922,2.965,13.134,7.674,17.491c-4.708,4.357-7.674,10.569-7.674,17.491
			c0,1.635,0.165,3.229,0.479,4.77h153.277c0.313-1.541,0.479-3.136,0.479-4.77c0.002-6.922-2.964-13.134-7.672-17.491
			C329.357,335.917,332.323,329.704,332.323,322.783z"/>
	</g>
</g>
<g>
	<g>
		<path d="M472.248,2.59c-13.172,0-23.851,10.679-23.851,23.851v40.341H68.373V26.441c0-13.172-10.679-23.851-23.851-23.851
			S20.671,13.269,20.671,26.441v336.093h47.702V181.267h105.278c1.581,11.13,9.09,18.232,18.747,20.192v21.149
			c0,13.172,10.679,23.851,23.851,23.851c13.172,0,23.851-10.679,23.851-23.851v-21.555c8.881-2.455,15.664-10.246,17.157-19.787
			h191.141v181.267h47.702V26.441C496.099,13.269,485.421,2.59,472.248,2.59z M448.398,133.565H68.373v-19.081h380.025V133.565z"/>
	</g>
</g>
<g>
	<g>
		<path d="M0,386.385v50.882c0,14.716,7.95,27.554,20.671,34.426v13.865c0,13.172,10.679,23.851,23.851,23.851
			s23.851-10.679,23.851-23.851v-8.54h380.025v8.54c0,13.172,10.679,23.851,23.851,23.851s23.851-10.679,23.851-23.851v-17.106
			c9.54-7.281,15.901-18.539,15.901-31.186v-50.882H0z"/>
	</g>
</g>
<g>
</g>
<g>
</g>
<g>
</g>
<g>
</g>
<g>
</g>
<g>
</g>
<g>
</g>
<g>
</g>
<g>
</g>
<g>
</g>
<g>
</g>
<g>
</g>
<g>
</g>
<g>
</g>
<g>
</g>
</svg>
