<?xml version="1.0" encoding="iso-8859-1"?>
<!-- Generator: Adobe Illustrator 19.0.0, SVG Export Plug-In . SVG Version: 6.00 Build 0)  -->
<svg version="1.1" id="Layer_1" xmlns="http://www.w3.org/2000/svg" xmlns:xlink="http://www.w3.org/1999/xlink" x="0px" y="0px"
	 viewBox="0 0 512 512" style="enable-background:new 0 0 512 512;" xml:space="preserve">
<g>
	<g>
		<path d="M482.687,213.008H297.038c-16.189,0-29.313,13.124-29.313,29.313c0,16.189,13.124,29.313,29.313,29.313h185.649
			c16.189,0,29.313-13.124,29.313-29.313C512,226.132,498.876,213.008,482.687,213.008z"/>
	</g>
</g>
<g>
	<g>
		<path d="M482.687,125.069H297.038c-16.189,0-29.313,13.124-29.313,29.313c0,16.189,13.124,29.313,29.313,29.313h185.649
			c16.189,0,29.313-13.124,29.313-29.313C512,138.193,498.876,125.069,482.687,125.069z"/>
	</g>
</g>
<g>
	<g>
		<path d="M482.687,37.13H297.038c-16.189,0-29.313,13.124-29.313,29.313s13.124,29.313,29.313,29.313h185.649
			c16.189,0,29.313-13.124,29.313-29.313S498.876,37.13,482.687,37.13z"/>
	</g>
</g>
<g>
	<g>
		<path d="M188.58,41.038H34.198C15.311,41.038,0,56.349,0,75.237v154.382c0,18.887,15.311,34.198,34.198,34.198H188.58
			c18.887,0,34.198-15.311,34.198-34.198V75.237C222.779,56.349,207.467,41.038,188.58,41.038z"/>
	</g>
</g>
<g>
	<g>
		<path d="M468.031,316.58H34.198C15.311,316.58,0,331.891,0,350.779v89.893c0,18.887,15.311,34.198,34.198,34.198h433.832
			c18.887,0,34.198-15.311,34.198-34.198v-89.893C502.229,331.891,486.918,316.58,468.031,316.58z"/>
	</g>
</g>
<g>
</g>
<g>
</g>
<g>
</g>
<g>
</g>
<g>
</g>
<g>
</g>
<g>
</g>
<g>
</g>
<g>
</g>
<g>
</g>
<g>
</g>
<g>
</g>
<g>
</g>
<g>
</g>
<g>
</g>
</svg>
