<?xml version="1.0" encoding="iso-8859-1"?>
<!-- Generator: Adobe Illustrator 19.0.0, SVG Export Plug-In . SVG Version: 6.00 Build 0)  -->
<svg version="1.1" id="Layer_1" xmlns="http://www.w3.org/2000/svg" xmlns:xlink="http://www.w3.org/1999/xlink" x="0px" y="0px"
	 viewBox="0 0 512 512" style="enable-background:new 0 0 512 512;" xml:space="preserve">
<g>
	<g>
		<path d="M322.065,92.046c-46.24,0-83.851,37.619-83.851,83.857v168.712c0,25.224-21.148,45.745-46.372,45.745
			s-46.372-20.521-46.372-45.745V199.464h-38.114v145.151c0,46.24,38.246,83.859,84.486,83.859s84.486-37.619,84.486-83.859V175.903
			c0-25.223,20.514-45.743,45.737-45.743s45.737,20.521,45.737,45.743v134.092h38.114V175.903
			C405.916,129.664,368.305,92.046,322.065,92.046z"/>
	</g>
</g>
<g>
	<g>
		<path d="M144.198,0h-35.573C98.101,0,89.568,8.746,89.568,19.271c0,1.157,0.121,2.328,0.318,3.598h73.052
			c0.197-1.27,0.318-2.441,0.318-3.598C163.256,8.746,154.723,0,144.198,0z"/>
	</g>
</g>
<g>
	<g>
		<path d="M420.183,486.591h-71.731c-0.626,2.541-0.978,4.077-0.978,6.176c0,10.525,8.532,19.234,19.057,19.234h35.573
			c10.525,0,19.057-8.709,19.057-19.234C421.161,490.669,420.809,489.132,420.183,486.591z"/>
	</g>
</g>
<g>
	<g>
		<rect x="87.027" y="41.926" width="80.04" height="138.481"/>
	</g>
</g>
<g>
	<g>
		<rect x="344.933" y="329.052" width="80.04" height="138.481"/>
	</g>
</g>
<g>
</g>
<g>
</g>
<g>
</g>
<g>
</g>
<g>
</g>
<g>
</g>
<g>
</g>
<g>
</g>
<g>
</g>
<g>
</g>
<g>
</g>
<g>
</g>
<g>
</g>
<g>
</g>
<g>
</g>
</svg>
