<?xml version="1.0" encoding="iso-8859-1"?>
<!-- Generator: Adobe Illustrator 19.0.0, SVG Export Plug-In . SVG Version: 6.00 Build 0)  -->
<svg version="1.1" id="Layer_1" xmlns="http://www.w3.org/2000/svg" xmlns:xlink="http://www.w3.org/1999/xlink" x="0px" y="0px"
	 viewBox="0 0 511.998 511.998" style="enable-background:new 0 0 511.998 511.998;" xml:space="preserve">
<g>
	<g>
		<path d="M255.999,0C114.841,0,0,114.841,0,255.999s114.841,255.999,255.999,255.999s255.999-114.841,255.999-255.999
			S397.159,0,255.999,0z M255.999,358.988c-56.788,0-102.989-46.201-102.989-102.989S199.211,153.01,255.999,153.01
			s102.989,46.201,102.989,102.989S312.787,358.988,255.999,358.988z"/>
	</g>
</g>
<g>
	<g>
		<path d="M255.999,185.184c-39.048,0-70.817,31.769-70.817,70.817s31.769,70.817,70.817,70.817s70.817-31.769,70.817-70.817
			S295.047,185.184,255.999,185.184z"/>
	</g>
</g>
<g>
</g>
<g>
</g>
<g>
</g>
<g>
</g>
<g>
</g>
<g>
</g>
<g>
</g>
<g>
</g>
<g>
</g>
<g>
</g>
<g>
</g>
<g>
</g>
<g>
</g>
<g>
</g>
<g>
</g>
</svg>
