<?xml version="1.0" encoding="iso-8859-1"?>
<!-- Generator: Adobe Illustrator 19.0.0, SVG Export Plug-In . SVG Version: 6.00 Build 0)  -->
<svg version="1.1" id="Layer_1" xmlns="http://www.w3.org/2000/svg" xmlns:xlink="http://www.w3.org/1999/xlink" x="0px" y="0px"
	 viewBox="0 0 511.997 511.997" style="enable-background:new 0 0 511.997 511.997;" xml:space="preserve">
<g>
	<g>
		<path d="M391.703,244.013c5.851-10.442,2.131-23.646-8.308-29.497c-10.437-5.854-23.645-2.131-29.496,8.308
			c-11.44,20.412-28.692,36.385-48.987,46.321l-15.876-51.54c-10.206,4.721-21.556,7.373-33.52,7.373
			c-12.627,0-24.575-2.946-35.21-8.168l-15.853,51.462c-19.097-9.752-35.416-24.889-46.509-44.025
			c-6.001-10.353-19.258-13.877-29.614-7.88c-10.353,6.002-13.881,19.261-7.879,29.614c16.634,28.695,41.769,50.9,71.107,64.15
			l-53.544,173.813c-3.522,11.437,2.892,23.566,14.329,27.088c11.437,3.523,23.566-2.892,27.087-14.329l1.965-6.379l51.757-168.013
			c7.353,1.076,14.821,1.648,22.361,1.648c6.914,0,13.764-0.467,20.513-1.367l51.669,167.731l1.965,6.379
			c2.869,9.312,11.441,15.297,20.702,15.295c2.112,0,4.262-0.312,6.387-0.966c11.437-3.522,17.852-15.651,14.329-27.088
			l-53.298-173.024C348.525,297.49,374.74,274.277,391.703,244.013z M255.514,280.623c-3.151,0-6.281-0.149-9.391-0.413
			l8.425-27.349l8.474,27.508C260.532,280.536,258.029,280.623,255.514,280.623z"/>
	</g>
</g>
<g>
	<g>
		<path d="M255.514,0c-11.967,0-21.669,9.702-21.669,21.669v46.016c6.898-1.94,14.16-3,21.669-3c7.509,0,14.771,1.059,21.669,3
			V21.669C277.183,9.702,267.481,0,255.514,0z"/>
	</g>
</g>
<g>
	<g>
		<path d="M255.514,86.353c-32.246,0-58.48,26.234-58.48,58.478s26.234,58.478,58.48,58.478c32.246,0,58.48-26.234,58.48-58.478
			S287.76,86.353,255.514,86.353z"/>
	</g>
</g>
<g>
</g>
<g>
</g>
<g>
</g>
<g>
</g>
<g>
</g>
<g>
</g>
<g>
</g>
<g>
</g>
<g>
</g>
<g>
</g>
<g>
</g>
<g>
</g>
<g>
</g>
<g>
</g>
<g>
</g>
</svg>
