<?xml version="1.0" encoding="iso-8859-1"?>
<!-- Generator: Adobe Illustrator 19.0.0, SVG Export Plug-In . SVG Version: 6.00 Build 0)  -->
<svg version="1.1" id="Layer_1" xmlns="http://www.w3.org/2000/svg" xmlns:xlink="http://www.w3.org/1999/xlink" x="0px" y="0px"
	 viewBox="0 0 512 512" style="enable-background:new 0 0 512 512;" xml:space="preserve">
<g>
	<g>
		<path d="M427.077,57.669H27.216C11.783,57.669,0,69.999,0,85.432v214.326c0,15.433,11.783,28.217,27.216,28.217h358.25V218.413
			c0-13.67,11.718-24.791,25.388-24.791h44.988V85.432C455.842,69.999,442.512,57.669,427.077,57.669z M126.356,155.235h71.975
			c6.625,0,11.996,5.371,11.996,11.996c0,6.625-5.371,11.996-11.996,11.996h-71.975c-6.625,0-11.996-5.371-11.996-11.996
			C114.36,160.606,119.731,155.235,126.356,155.235z M327.886,235.207h-201.53c-6.625,0-11.996-5.371-11.996-11.996
			s5.371-11.996,11.996-11.996h201.53c6.625,0,11.996,5.371,11.996,11.996S334.511,235.207,327.886,235.207z"/>
	</g>
</g>
<g>
	<g>
		<path d="M318.29,406.348h-24.766h-23.218v-54.381h-84.771v54.381H160.77h-24.817c-13.25,0-23.992,10.742-23.992,23.992
			c0,13.25,10.742,23.992,23.992,23.992H318.29c13.25,0,23.992-10.742,23.992-23.992C342.281,417.09,331.539,406.348,318.29,406.348
			z"/>
	</g>
</g>
<g>
	<g>
		<path d="M511.822,418.571v-33.016H409.458v33.016c0,0.441,0.955,0.573,1.396,0.573h100.943
			C512.238,419.143,511.822,419.012,511.822,418.571z"/>
	</g>
</g>
<g>
	<g>
		<path d="M511.797,217.613H410.854c-0.441,0-1.396,0.358-1.396,0.8v143.15h102.364v-143.15
			C511.822,217.972,512.238,217.613,511.797,217.613z"/>
	</g>
</g>
<g>
</g>
<g>
</g>
<g>
</g>
<g>
</g>
<g>
</g>
<g>
</g>
<g>
</g>
<g>
</g>
<g>
</g>
<g>
</g>
<g>
</g>
<g>
</g>
<g>
</g>
<g>
</g>
<g>
</g>
</svg>
