<?xml version="1.0" encoding="iso-8859-1"?>
<!-- Generator: Adobe Illustrator 19.0.0, SVG Export Plug-In . SVG Version: 6.00 Build 0)  -->
<svg version="1.1" id="Layer_1" xmlns="http://www.w3.org/2000/svg" xmlns:xlink="http://www.w3.org/1999/xlink" x="0px" y="0px"
	 viewBox="0 0 512 512" style="enable-background:new 0 0 512 512;" xml:space="preserve">
<g>
	<g>
		<path d="M455.517,0H420.93v147.72h34.587c7.06,0,12.741-5.347,12.741-12.406V13.23C468.258,6.17,462.577,0,455.517,0z"/>
	</g>
</g>
<g>
	<g>
		<path d="M70.825,0c-7.06,0-12.741,6.17-12.741,13.23v122.084c0,7.06,5.681,12.406,12.741,12.406h33.152V0H70.825z"/>
	</g>
</g>
<g>
	<g>
		<path d="M430.396,401.569H284.683v-18.644h4.303c45.518,0,82.872-35.245,85.838-80.025c0.126-1.899,0.212-3.519,0.212-5.45
			v-20.004c5.828-5.665,10.039-13.579,10.039-22.329V147.72h14.342V2.639c-44.088,9.51-77.445,48.788-77.445,95.678v156.801
			c0,8.933,3.996,16.995,10.039,22.681v19.651c0,1.912-0.138,3.502-0.382,5.348c-2.771,21.068-20.831,37.101-42.644,37.101h-51.63
			c-21.812,0-39.873-16.033-42.644-37.101c-0.242-1.846-0.381-3.438-0.381-5.348v-19.651c6.044-5.686,10.039-13.748,10.039-22.681
			V98.317c0-47.399-34.076-87.027-78.88-95.985V147.72h15.776v107.398c0,8.75,4.211,16.664,10.039,22.329v20.004
			c0,1.93,0.088,3.551,0.212,5.45c2.966,44.779,40.32,80.024,85.838,80.024h4.302v18.644H48.045
			c-11.881,0-21.513,9.632-21.513,21.513s9.632,21.513,21.513,21.513h193.613v16.112c0,28.6,23.269,51.295,51.87,51.295h137.635
			c29.944,0,54.305-23.786,54.305-53.731v-1.051C485.468,426.85,460.761,401.569,430.396,401.569z M442.443,458.269
			c0,6.221-5.06,10.706-11.28,10.706H293.528c-4.876,0-8.845-3.392-8.845-8.269v-16.112h145.712c6.531,0,12.047,6.092,12.047,12.624
			V458.269z"/>
	</g>
</g>
<g>
</g>
<g>
</g>
<g>
</g>
<g>
</g>
<g>
</g>
<g>
</g>
<g>
</g>
<g>
</g>
<g>
</g>
<g>
</g>
<g>
</g>
<g>
</g>
<g>
</g>
<g>
</g>
<g>
</g>
</svg>
