<?xml version="1.0" encoding="iso-8859-1"?>
<!-- Generator: Adobe Illustrator 19.0.0, SVG Export Plug-In . SVG Version: 6.00 Build 0)  -->
<svg version="1.1" id="Layer_1" xmlns="http://www.w3.org/2000/svg" xmlns:xlink="http://www.w3.org/1999/xlink" x="0px" y="0px"
	 viewBox="0 0 512 512" style="enable-background:new 0 0 512 512;" xml:space="preserve">
<g>
	<g>
		<path d="M472.616,74.057H353.898c-22.221,0-41.212,17.163-41.212,39.384V134.4c0,7.574-5.224,14.629-12.8,14.629H28.935
			C13.484,149.029,0,160.686,0,176.135v232.872c0,15.451,13.484,28.935,28.935,28.935h455.958c15.451,0,27.107-13.486,27.107-28.935
			V113.441C512,91.22,494.837,74.057,472.616,74.057z M288.914,339.2H91.429c-7.576,0-13.714-6.14-13.714-13.714
			s6.138-13.714,13.714-13.714h197.486c7.576,0,13.714,6.14,13.714,13.714S296.49,339.2,288.914,339.2z M288.914,269.714H91.429
			c-7.576,0-13.714-6.14-13.714-13.714c0-7.574,6.138-13.714,13.714-13.714h197.486c7.576,0,13.714,6.14,13.714,13.714
			C302.629,263.574,296.49,269.714,288.914,269.714z"/>
	</g>
</g>
<g>
</g>
<g>
</g>
<g>
</g>
<g>
</g>
<g>
</g>
<g>
</g>
<g>
</g>
<g>
</g>
<g>
</g>
<g>
</g>
<g>
</g>
<g>
</g>
<g>
</g>
<g>
</g>
<g>
</g>
</svg>
