<?xml version="1.0" encoding="iso-8859-1"?>
<!-- Generator: Adobe Illustrator 19.0.0, SVG Export Plug-In . SVG Version: 6.00 Build 0)  -->
<svg version="1.1" id="Layer_1" xmlns="http://www.w3.org/2000/svg" xmlns:xlink="http://www.w3.org/1999/xlink" x="0px" y="0px"
	 viewBox="0 0 512 512" style="enable-background:new 0 0 512 512;" xml:space="preserve">
<g>
	<g>
		<path d="M399.621,0H112.379C68.756,0,33.391,35.364,33.391,78.988v354.025c0,43.623,35.364,78.988,78.988,78.988h287.242
			c43.623,0,78.988-35.364,78.988-78.988V78.988C478.609,35.364,443.244,0,399.621,0z M417.897,400.696h-56.664
			c-8.382,0-15.178-6.794-15.178-15.178c0-8.384,6.796-15.178,15.178-15.178h4.124l-23.961-62.735H170.107l-23.908,62.735h2.544
			c8.382,0,15.178,6.794,15.178,15.178c0,8.384-6.796,15.178-15.178,15.178H92.079c-8.382,0-15.178-6.794-15.178-15.178
			c0-8.384,6.796-15.178,15.178-15.178h21.634L223.361,82.626c2.242-5.885,7.884-9.773,14.182-9.773h36.231
			c6.294,0,11.934,3.883,14.178,9.762l109.9,287.724h20.045c8.382,0,15.178,6.794,15.178,15.178
			C433.075,393.902,426.279,400.696,417.897,400.696z"/>
	</g>
</g>
<g>
	<g>
		<polygon points="263.328,103.209 248.004,103.209 181.677,277.249 329.801,277.249 		"/>
	</g>
</g>
<g>
</g>
<g>
</g>
<g>
</g>
<g>
</g>
<g>
</g>
<g>
</g>
<g>
</g>
<g>
</g>
<g>
</g>
<g>
</g>
<g>
</g>
<g>
</g>
<g>
</g>
<g>
</g>
<g>
</g>
</svg>
