<?xml version="1.0" encoding="iso-8859-1"?>
<!-- Generator: Adobe Illustrator 19.0.0, SVG Export Plug-In . SVG Version: 6.00 Build 0)  -->
<svg version="1.1" id="Layer_1" xmlns="http://www.w3.org/2000/svg" xmlns:xlink="http://www.w3.org/1999/xlink" x="0px" y="0px"
	 viewBox="0 0 512 512" style="enable-background:new 0 0 512 512;" xml:space="preserve">
<g>
	<g>
		<path d="M497.637,75.195H14.363C6.431,75.195,0,81.626,0,89.558v332.885c0,7.932,6.431,14.363,14.363,14.363h483.274
			c7.932,0,14.363-6.431,14.363-14.363V89.558C512,81.626,505.569,75.195,497.637,75.195z M341.665,105.185
			c25.066,0,45.458,20.392,45.458,45.458c0,25.066-20.392,45.458-45.458,45.458c-25.066,0-45.458-20.392-45.458-45.458
			C296.206,125.577,316.599,105.185,341.665,105.185z M404.605,367.525H209.64H41.393L207.13,201.671
			c8.763-8.77,22.977-8.775,31.747-0.012l68.243,68.191l17.966-17.915c8.773-8.748,22.974-8.734,31.732,0.029l115.477,115.562
			H404.605z"/>
	</g>
</g>
<g>
	<g>
		<polygon points="222.999,221.699 102.584,342.178 234.986,342.178 289.199,287.837 		"/>
	</g>
</g>
<g>
	<g>
		<polygon points="340.968,272.041 270.831,342.178 343.412,342.178 411.106,342.178 		"/>
	</g>
</g>
<g>
	<g>
		<path d="M341.664,130.533c-11.09,0-20.112,9.023-20.112,20.112s9.022,20.112,20.112,20.112s20.112-9.023,20.112-20.112
			S352.754,130.533,341.664,130.533z"/>
	</g>
</g>
<g>
</g>
<g>
</g>
<g>
</g>
<g>
</g>
<g>
</g>
<g>
</g>
<g>
</g>
<g>
</g>
<g>
</g>
<g>
</g>
<g>
</g>
<g>
</g>
<g>
</g>
<g>
</g>
<g>
</g>
</svg>
