<?xml version="1.0" encoding="iso-8859-1"?>
<!-- Generator: Adobe Illustrator 19.0.0, SVG Export Plug-In . SVG Version: 6.00 Build 0)  -->
<svg version="1.1" id="Layer_1" xmlns="http://www.w3.org/2000/svg" xmlns:xlink="http://www.w3.org/1999/xlink" x="0px" y="0px"
	 viewBox="0 0 511.998 511.998" style="enable-background:new 0 0 511.998 511.998;" xml:space="preserve">
<g>
	<g>
		<path d="M504.265,313.473l-62.246-37.962L281.75,373.256c-7.942,4.844-16.848,7.265-25.752,7.265
			c-8.906,0-17.81-2.421-25.752-7.265L69.981,275.511L7.735,313.473C0.755,317.73,0,324.526,0,327.249
			c0,2.725,0.753,9.521,7.735,13.781l239.859,146.285c5.184,3.163,11.624,3.163,16.808,0L504.262,341.03
			c6.985-4.258,7.735-11.056,7.735-13.781C512,324.526,511.245,317.73,504.265,313.473z"/>
	</g>
</g>
<g>
	<g>
		<path d="M504.262,170.968L264.403,24.682c-5.184-3.163-11.624-3.163-16.808,0L7.735,170.968C0.753,175.227,0,182.023,0,184.748
			s0.755,9.521,7.735,13.779l239.859,146.285c5.184,3.163,11.624,3.163,16.808,0l239.859-146.285
			c6.983-4.258,7.735-11.054,7.735-13.779C511.998,182.023,511.245,175.227,504.262,170.968z"/>
	</g>
</g>
<g>
</g>
<g>
</g>
<g>
</g>
<g>
</g>
<g>
</g>
<g>
</g>
<g>
</g>
<g>
</g>
<g>
</g>
<g>
</g>
<g>
</g>
<g>
</g>
<g>
</g>
<g>
</g>
<g>
</g>
</svg>
