<?xml version="1.0" encoding="iso-8859-1"?>
<!-- Generator: Adobe Illustrator 19.0.0, SVG Export Plug-In . SVG Version: 6.00 Build 0)  -->
<svg version="1.1" id="Layer_1" xmlns="http://www.w3.org/2000/svg" xmlns:xlink="http://www.w3.org/1999/xlink" x="0px" y="0px"
	 viewBox="0 0 512 512" style="enable-background:new 0 0 512 512;" xml:space="preserve">
<g>
	<g>
		<path d="M253.384,210.066L9.988,453.462c-12.026,12.026-12.026,31.526,0,43.553l5.965,5.965c12.026,12.026,31.526,12.026,43.553,0
			l243.396-243.396L253.384,210.066z"/>
	</g>
</g>
<g>
	<g>
		<path d="M365.869,153.064l-5.965-5.965c-12.026-12.026-31.526-12.026-43.553,0l-47.086,47.086l49.518,49.518l47.086-47.086
			C377.895,184.59,377.895,165.09,365.869,153.064z"/>
	</g>
</g>
<g>
	<g>
		<path d="M470.341,40.691c-8.769-8.77-22.991-8.77-31.762,0l-34.767,34.767c-8.771,8.77-8.771,22.991,0,31.762
			c4.385,4.385,10.133,6.579,15.882,6.579c5.748,0,11.496-2.193,15.88-6.579l34.767-34.767
			C479.112,63.683,479.112,49.462,470.341,40.691z"/>
	</g>
</g>
<g>
	<g>
		<path d="M365.779,77.766l-9.247-58.793c-1.927-12.254-13.424-20.631-25.675-18.695c-12.254,1.927-20.623,13.423-18.696,25.675
			l9.247,58.793c1.741,11.072,11.292,18.972,22.158,18.972c1.159,0,2.336-0.09,3.517-0.277
			C359.337,101.514,367.706,90.018,365.779,77.766z"/>
	</g>
</g>
<g>
	<g>
		<path d="M492.059,154.501l-58.792-9.249c-12.26-1.951-23.75,6.444-25.677,18.695c-1.927,12.254,6.443,23.748,18.696,25.675
			l58.792,9.249c1.183,0.187,2.358,0.277,3.519,0.277c10.864,0,20.417-7.901,22.158-18.972
			C512.682,167.924,504.313,156.428,492.059,154.501z"/>
	</g>
</g>
<g>
	<g>
		<path d="M278.566,95.645l-38.131-38.131c-8.769-8.769-22.991-8.769-31.762,0c-8.771,8.77-8.771,22.991,0,31.762l38.132,38.131
			c4.385,4.385,10.134,6.579,15.88,6.579s11.496-2.193,15.88-6.579C287.337,118.637,287.337,104.416,278.566,95.645z"/>
	</g>
</g>
<g>
	<g>
		<path d="M453.518,270.596l-38.129-38.131c-8.769-8.77-22.991-8.77-31.762,0c-8.771,8.769-8.771,22.991,0,31.762l38.131,38.131
			c4.385,4.385,10.134,6.579,15.88,6.579c5.747,0,11.496-2.194,15.88-6.579C462.289,293.589,462.289,279.367,453.518,270.596z"/>
	</g>
</g>
<g>
</g>
<g>
</g>
<g>
</g>
<g>
</g>
<g>
</g>
<g>
</g>
<g>
</g>
<g>
</g>
<g>
</g>
<g>
</g>
<g>
</g>
<g>
</g>
<g>
</g>
<g>
</g>
<g>
</g>
</svg>
