<?xml version="1.0" encoding="iso-8859-1"?>
<!-- Generator: Adobe Illustrator 19.0.0, SVG Export Plug-In . SVG Version: 6.00 Build 0)  -->
<svg version="1.1" id="Layer_1" xmlns="http://www.w3.org/2000/svg" xmlns:xlink="http://www.w3.org/1999/xlink" x="0px" y="0px"
	 viewBox="0 0 512 512" style="enable-background:new 0 0 512 512;" xml:space="preserve">
<g>
	<g>
		<path d="M380.856,453.614h-62.877v-89.825H195.818v89.825H132.94c-14.882,0-26.947,12.065-26.947,26.947
			s12.065,26.947,26.947,26.947h247.916c14.882,0,26.947-12.065,26.947-26.947S395.738,453.614,380.856,453.614z"/>
	</g>
</g>
<g>
	<g>
		<path d="M480.561,4.491H31.439C14.076,4.491,0,18.567,0,35.93v269.474c0,17.363,14.076,31.439,31.439,31.439h449.123
			c17.363,0,31.439-14.076,31.439-31.439V35.93C512,18.567,497.924,4.491,480.561,4.491z M321.92,145.954
			c-0.084,0.307-0.181,0.609-0.287,0.909l0.027,0.187l-19.849,68.132v38.84c0,7.443-6.216,12.759-13.659,12.759h-62.509
			c-7.441,0-13.659-5.316-13.659-12.759v-38.84l-19.955-68.498c-1.795-6.142-2.657-12.495-2.657-18.887
			c0-18.439,7.702-36.286,21.089-48.965c13.59-12.872,31.426-19.395,50.178-18.378c33.005,1.795,60.27,27.932,63.418,60.799
			C324.859,129.644,324.145,137.954,321.92,145.954z"/>
	</g>
</g>
<g>
	<g>
		<path d="M297.238,123.821c-1.888-19.708-18.245-35.382-38.051-36.46c-11.293-0.596-22.011,3.306-30.172,11.036
			c-8.158,7.725-12.649,18.166-12.649,29.4c0,3.888,0.53,7.592,1.62,11.323l20.013,68.374h37.8l20.015-68.383
			c0.074-0.246,0.151-0.49,0.237-0.731l0.023-0.066C297.319,133.634,297.711,128.762,297.238,123.821z"/>
	</g>
</g>
<g>
	<g>
		<rect x="238.933" y="234.442" width="35.93" height="5.389"/>
	</g>
</g>
<g>
</g>
<g>
</g>
<g>
</g>
<g>
</g>
<g>
</g>
<g>
</g>
<g>
</g>
<g>
</g>
<g>
</g>
<g>
</g>
<g>
</g>
<g>
</g>
<g>
</g>
<g>
</g>
<g>
</g>
</svg>
