<?xml version="1.0" encoding="iso-8859-1"?>
<!-- Generator: Adobe Illustrator 19.0.0, SVG Export Plug-In . SVG Version: 6.00 Build 0)  -->
<svg version="1.1" id="Layer_1" xmlns="http://www.w3.org/2000/svg" xmlns:xlink="http://www.w3.org/1999/xlink" x="0px" y="0px"
	 viewBox="0 0 512 512" style="enable-background:new 0 0 512 512;" xml:space="preserve">
<g>
	<g>
		<path d="M380.856,439.242h-49.404h-27.846v-89.825h-95.214v89.825h-26.049H132.94c-14.882,0-26.947,12.065-26.947,26.947
			c0,14.882,12.065,26.947,26.947,26.947h247.916c14.882,0,26.947-12.065,26.947-26.947
			C407.804,451.307,395.738,439.242,380.856,439.242z"/>
	</g>
</g>
<g>
	<g>
		<path d="M480.561,18.863H31.439C14.076,18.863,0,32.939,0,50.302v240.73c0,17.363,14.076,31.439,31.439,31.439h449.123
			c17.363,0,31.439-14.076,31.439-31.439V50.302C512,32.939,497.924,18.863,480.561,18.863z M183.242,220.968
			c0,0.496-0.402,0.898-0.898,0.898H83.537c-0.496,0-0.898-0.402-0.898-0.898v-98.807c0-0.496,0.402-0.898,0.898-0.898h98.807
			c0.496,0,0.898,0.402,0.898,0.898V220.968z M427.565,223.663H264.084c-7.443,0-13.474-6.033-13.474-13.474
			c0-7.441,6.031-13.474,13.474-13.474h163.481c7.443,0,13.474,6.033,13.474,13.474
			C441.039,217.631,435.008,223.663,427.565,223.663z M427.565,146.414H264.084c-7.443,0-13.474-6.033-13.474-13.474
			c0-7.441,6.031-13.474,13.474-13.474h163.481c7.443,0,13.474,6.033,13.474,13.474
			C441.039,140.381,435.008,146.414,427.565,146.414z"/>
	</g>
</g>
<g>
</g>
<g>
</g>
<g>
</g>
<g>
</g>
<g>
</g>
<g>
</g>
<g>
</g>
<g>
</g>
<g>
</g>
<g>
</g>
<g>
</g>
<g>
</g>
<g>
</g>
<g>
</g>
<g>
</g>
</svg>
