<?xml version="1.0" encoding="iso-8859-1"?>
<!-- Generator: Adobe Illustrator 19.0.0, SVG Export Plug-In . SVG Version: 6.00 Build 0)  -->
<svg version="1.1" id="Layer_1" xmlns="http://www.w3.org/2000/svg" xmlns:xlink="http://www.w3.org/1999/xlink" x="0px" y="0px"
	 viewBox="0 0 512 512" style="enable-background:new 0 0 512 512;" xml:space="preserve">
<g>
	<g>
		<path d="M415.114,0H141.162C103.43,0,72.735,30.696,72.735,68.428s30.696,68.428,68.428,68.428h80.89
			c32.192,0,58.381,26.189,58.381,58.381v1.191c0,1.552,0.161,3.066,0.44,4.537c8.413-2.045,17.187-3.156,26.22-3.156
			c7.308,0,14.447,0.729,21.366,2.083c0.164-1.135,0.277-2.286,0.277-3.466v-1.191c0-58.825-47.858-106.683-106.683-106.683h-80.89
			c-11.098,0-20.126-9.028-20.126-20.126c0-11.098,9.028-20.124,20.126-20.124h273.952c13.338,0,24.151-10.813,24.151-24.151
			S428.452,0,415.114,0z"/>
	</g>
</g>
<g>
	<g>
		<path d="M307.804,221.96c-47.909,0-86.943,38.976-86.943,86.885v143.109c0,32.887,26.101,60.046,58.988,60.046h54.488
			c32.887,0,60.411-27.159,60.411-60.046V308.845C394.747,260.936,355.713,221.96,307.804,221.96z M319.074,326.843
			c0,6.67-5.407,12.075-12.075,12.075c-6.669,0-12.076-5.405-12.076-12.075v-40.252c0-6.67,5.407-12.075,12.076-12.075
			c6.669,0,12.075,5.405,12.075,12.075V326.843z"/>
	</g>
</g>
<g>
</g>
<g>
</g>
<g>
</g>
<g>
</g>
<g>
</g>
<g>
</g>
<g>
</g>
<g>
</g>
<g>
</g>
<g>
</g>
<g>
</g>
<g>
</g>
<g>
</g>
<g>
</g>
<g>
</g>
</svg>
