<?xml version="1.0" encoding="iso-8859-1"?>
<!-- Generator: Adobe Illustrator 19.0.0, SVG Export Plug-In . SVG Version: 6.00 Build 0)  -->
<svg version="1.1" id="Layer_1" xmlns="http://www.w3.org/2000/svg" xmlns:xlink="http://www.w3.org/1999/xlink" x="0px" y="0px"
	 viewBox="0 0 512.001 512.001" style="enable-background:new 0 0 512.001 512.001;" xml:space="preserve">
<g>
	<g>
		<path d="M277.979,286.673l-52.651-52.651L41.874,417.475l-20.099,54.94c-5.701-0.556-11.597,1.348-15.964,5.715
			c-7.748,7.748-7.748,20.309,0,28.059s20.309,7.748,28.059,0c4.367-4.367,6.272-10.263,5.715-15.964l54.938-20.099L277.979,286.673
			z"/>
	</g>
</g>
<g>
	<g>
		<path d="M497.939,14.065C488.871,4.994,476.814,0,463.991,0s-24.88,4.994-33.945,14.063L236.803,207.304l67.894,67.894
			L497.939,81.955c9.067-9.067,14.061-21.121,14.061-33.945S507.006,23.132,497.939,14.065z"/>
	</g>
</g>
<g>
</g>
<g>
</g>
<g>
</g>
<g>
</g>
<g>
</g>
<g>
</g>
<g>
</g>
<g>
</g>
<g>
</g>
<g>
</g>
<g>
</g>
<g>
</g>
<g>
</g>
<g>
</g>
<g>
</g>
</svg>
