<?xml version="1.0" encoding="iso-8859-1"?>
<!-- Generator: Adobe Illustrator 19.0.0, SVG Export Plug-In . SVG Version: 6.00 Build 0)  -->
<svg version="1.1" id="Layer_1" xmlns="http://www.w3.org/2000/svg" xmlns:xlink="http://www.w3.org/1999/xlink" x="0px" y="0px"
	 viewBox="0 0 512 512" style="enable-background:new 0 0 512 512;" xml:space="preserve">
<g>
	<g>
		<path d="M68.028,0v512h375.944V0H68.028z M327.608,431.441H184.392c-7.415,0-13.427-6.01-13.427-13.427
			s6.012-13.427,13.427-13.427h143.217c7.415,0,13.427,6.01,13.427,13.427S335.023,431.441,327.608,431.441z M327.608,213.035
			H184.392c-14.83,0-26.853-12.023-26.853-26.853s12.023-26.853,26.853-26.853h143.217c14.83,0,26.853,12.023,26.853,26.853
			S342.438,213.035,327.608,213.035z M354.462,123.524H157.538c-14.83,0-26.853-12.023-26.853-26.853s12.023-26.853,26.853-26.853
			h196.923c14.83,0,26.853,12.023,26.853,26.853S369.292,123.524,354.462,123.524z"/>
	</g>
</g>
<g>
</g>
<g>
</g>
<g>
</g>
<g>
</g>
<g>
</g>
<g>
</g>
<g>
</g>
<g>
</g>
<g>
</g>
<g>
</g>
<g>
</g>
<g>
</g>
<g>
</g>
<g>
</g>
<g>
</g>
</svg>
