<?xml version="1.0" encoding="iso-8859-1"?>
<!-- Generator: Adobe Illustrator 19.0.0, SVG Export Plug-In . SVG Version: 6.00 Build 0)  -->
<svg version="1.1" id="Layer_1" xmlns="http://www.w3.org/2000/svg" xmlns:xlink="http://www.w3.org/1999/xlink" x="0px" y="0px"
	 viewBox="0 0 511.998 511.998" style="enable-background:new 0 0 511.998 511.998;" xml:space="preserve">
<g>
	<g>
		<path d="M282.264,120.371c-7.024,0-13.549-6.198-13.549-13.222V0H33.059v486.57h95.841c-0.57-3.391-0.9-6.639-0.9-10.132V350.734
			c0-33.434,27.221-60.826,60.657-60.826h200.429V120.371H282.264z"/>
	</g>
</g>
<g>
	<g>
		<polygon points="294.145,2.117 294.145,94.94 387.293,94.94 		"/>
	</g>
</g>
<g>
	<g>
		<path d="M447.331,315.519c-1.183-0.12-2.384-0.181-3.599-0.181H188.639c-1.216,0-2.416,0.061-3.599,0.181
			c-17.754,1.802-31.608,16.798-31.608,35.026v126.245c0,18.23,13.855,33.224,31.608,35.026c1.183,0.12,2.384,0.181,3.599,0.181
			h255.093c1.216,0,2.416-0.061,3.599-0.181c17.754-1.802,31.608-16.798,31.608-35.026V350.545
			C478.94,332.317,465.085,317.323,447.331,315.519z M227.208,425.536h-16.136v30.508c0,7.024-5.691,12.715-12.715,12.715
			c-7.024,0-12.715-5.691-12.715-12.715v-89.581c0-7.024,5.849-12.132,12.873-12.132h28.694c20.004,0,36.277,15.599,36.277,35.603
			C263.486,409.937,247.21,425.536,227.208,425.536z M312.184,400.106h5.132c20.004,0,36.276,16.447,36.276,36.45
			c0,20.004-16.274,36.45-36.276,36.45H288.62c-7.024,0-12.715-5.691-12.715-12.715c0-7.024,5.691-12.715,12.715-12.715h28.696
			c5.98,0,10.845-5.04,10.845-11.02s-4.866-11.02-10.845-11.02h-5.132c-20.004,0-36.277-15.601-36.277-35.603
			s16.276-35.603,36.277-35.603h28.694c7.024,0,12.715,5.691,12.715,12.715c0,7.024-5.691,12.715-12.715,12.715h-28.694
			c-5.981,0-10.847,4.191-10.847,10.172C301.335,395.915,306.201,400.106,312.184,400.106z M406.553,473.007h-25.13
			c-7.024,0-12.681-5.273-12.681-12.296v-94.247c0-7.024,5.659-12.132,12.681-12.132h25.129c21.969,0,40.175,17.289,40.175,39.258
			v39.995h0.002C446.728,455.553,428.521,473.007,406.553,473.007z"/>
	</g>
</g>
<g>
	<g>
		<path d="M227.208,379.762h-16.136v20.344h16.136c5.981,0,10.847-4.191,10.847-10.172S233.19,379.762,227.208,379.762z"/>
	</g>
</g>
<g>
	<g>
		<path d="M406.553,379.762h-12.381v67.815h12.381c7.946,0,14.745-6.046,14.745-13.992v-39.995
			C421.297,385.645,414.497,379.762,406.553,379.762z"/>
	</g>
</g>
<g>
</g>
<g>
</g>
<g>
</g>
<g>
</g>
<g>
</g>
<g>
</g>
<g>
</g>
<g>
</g>
<g>
</g>
<g>
</g>
<g>
</g>
<g>
</g>
<g>
</g>
<g>
</g>
<g>
</g>
</svg>
