<?xml version="1.0" encoding="iso-8859-1"?>
<!-- Generator: Adobe Illustrator 19.0.0, SVG Export Plug-In . SVG Version: 6.00 Build 0)  -->
<svg version="1.1" id="Layer_1" xmlns="http://www.w3.org/2000/svg" xmlns:xlink="http://www.w3.org/1999/xlink" x="0px" y="0px"
	 viewBox="0 0 511.998 511.998" style="enable-background:new 0 0 511.998 511.998;" xml:space="preserve">
<g>
	<g>
		<path d="M232.905,279.217c-10.583-10.583-19.562-22.163-27.027-34.415L12.735,437.951c-16.801,16.799-17.006,44.981-0.446,61.543
			l0.193,0.089c8.057,8.059,18.853,12.357,30.485,12.357c0.092,0,0.181,0,0.272,0c11.771,0,22.748-4.505,30.912-12.67
			l193.057-193.019C254.895,298.709,243.373,289.685,232.905,279.217z"/>
	</g>
</g>
<g>
	<g>
		<path d="M468.443,43.684C440.31,15.551,402.909,0.058,363.125,0.058c-39.784,0-77.187,15.494-105.318,43.624
			c-58.073,58.073-58.073,152.564,0,210.637c28.131,28.133,65.534,43.627,105.318,43.627c39.784,0,77.187-15.494,105.318-43.627
			C526.516,196.248,526.516,101.758,468.443,43.684z M431.739,105.291c-3.439,3.437-7.946,5.155-12.451,5.155
			s-9.012-1.718-12.451-5.155c-24.105-24.109-63.325-24.109-87.427,0c-6.878,6.874-18.024,6.874-24.9,0
			c-6.876-6.878-6.876-18.024,0-24.9c37.835-37.831,99.395-37.831,137.23,0C438.615,87.266,438.615,98.412,431.739,105.291z"/>
	</g>
</g>
<g>
</g>
<g>
</g>
<g>
</g>
<g>
</g>
<g>
</g>
<g>
</g>
<g>
</g>
<g>
</g>
<g>
</g>
<g>
</g>
<g>
</g>
<g>
</g>
<g>
</g>
<g>
</g>
<g>
</g>
</svg>
