<?xml version="1.0" encoding="iso-8859-1"?>
<!-- Generator: Adobe Illustrator 19.0.0, SVG Export Plug-In . SVG Version: 6.00 Build 0)  -->
<svg version="1.1" id="Layer_1" xmlns="http://www.w3.org/2000/svg" xmlns:xlink="http://www.w3.org/1999/xlink" x="0px" y="0px"
	 viewBox="0 0 512.001 512.001" style="enable-background:new 0 0 512.001 512.001;" xml:space="preserve">
<g>
	<g>
		<path d="M269.541,269.04v242.961c24.524-2.455,48.044-11.56,68.591-27.373c57.88-44.552,91.961-114.711,91.961-187.676V269.04
			H269.541z"/>
	</g>
</g>
<g>
	<g>
		<path d="M81.908,269.042v27.913c0,72.972,34.074,143.133,91.942,187.674c20.011,15.401,42.817,24.452,66.675,27.182V269.042
			H81.908z"/>
	</g>
</g>
<g>
	<g>
		<path d="M194.83,0.866c-4.907-2.432-10.846,0.489-11.865,5.871c-5.515,29.093-31.101,51.46-61.727,51.46H81.908v181.83h158.617
			V14.149C224.844,12.344,209.384,8.079,194.83,0.866z"/>
	</g>
</g>
<g>
	<g>
		<path d="M388.829,58.196c-30.629,0-56.214-22.367-61.727-51.46c-1.019-5.381-6.958-8.302-11.865-5.871
			c-14.554,7.213-30.014,11.478-45.695,13.283v225.877h158.618V58.196H388.829z"/>
	</g>
</g>
<g>
</g>
<g>
</g>
<g>
</g>
<g>
</g>
<g>
</g>
<g>
</g>
<g>
</g>
<g>
</g>
<g>
</g>
<g>
</g>
<g>
</g>
<g>
</g>
<g>
</g>
<g>
</g>
<g>
</g>
</svg>
