<?xml version="1.0" encoding="iso-8859-1"?>
<!-- Generator: Adobe Illustrator 19.0.0, SVG Export Plug-In . SVG Version: 6.00 Build 0)  -->
<svg version="1.1" id="Layer_1" xmlns="http://www.w3.org/2000/svg" xmlns:xlink="http://www.w3.org/1999/xlink" x="0px" y="0px"
	 viewBox="0 0 512 512" style="enable-background:new 0 0 512 512;" xml:space="preserve">
<g>
	<g>
		<path d="M294.21,0H100.805C77.768,0,59.252,17.982,59.252,41.021v18.231h276.51V41.021C335.763,17.982,317.247,0,294.21,0z"/>
	</g>
</g>
<g>
	<g>
		<path d="M452.748,176.237v-9.351c0-12.645-10.319-22.554-22.964-22.554h-94.021V82.042H59.252v306.896h276.51v22.789H59.252
			v57.733c0,23.038,18.516,42.54,41.553,42.54H294.21c23.038,0,41.553-19.502,41.553-42.54v-44.059h94.021
			c12.645,0,22.964-10.705,22.964-23.35v-31.344H335.763v-13.674h116.985V189.911H335.763v-13.674H452.748z M220.297,470.979
			h-47.098c-6.293,0-11.395-5.102-11.395-11.395c0-6.293,5.102-11.395,11.395-11.395h47.098c6.293,0,11.395,5.102,11.395,11.395
			C231.691,465.877,226.59,470.979,220.297,470.979z"/>
	</g>
</g>
<g>
</g>
<g>
</g>
<g>
</g>
<g>
</g>
<g>
</g>
<g>
</g>
<g>
</g>
<g>
</g>
<g>
</g>
<g>
</g>
<g>
</g>
<g>
</g>
<g>
</g>
<g>
</g>
<g>
</g>
</svg>
