<?xml version="1.0" encoding="iso-8859-1"?>
<!-- Generator: Adobe Illustrator 19.0.0, SVG Export Plug-In . SVG Version: 6.00 Build 0)  -->
<svg version="1.1" id="Layer_1" xmlns="http://www.w3.org/2000/svg" xmlns:xlink="http://www.w3.org/1999/xlink" x="0px" y="0px"
	 viewBox="0 0 512 512" style="enable-background:new 0 0 512 512;" xml:space="preserve">
<g>
	<g>
		<path d="M24.106,338.097C10.953,338.097,0,348.533,0,361.686v47.272c0,13.153,10.953,24.475,24.106,24.475h115.37v-95.336H24.106z
			"/>
	</g>
</g>
<g>
	<g>
		<path d="M487.894,338.097H271.89v95.338h216.004c13.153,0,24.106-11.322,24.106-24.475v-47.272
			C512,348.533,501.047,338.097,487.894,338.097z"/>
	</g>
</g>
<g>
	<g>
		<rect x="165.959" y="338.097" width="79.448" height="95.338"/>
	</g>
</g>
<g>
	<g>
		<path d="M348.69,78.565h-188.91c-24.376,0-45.021,19.933-45.021,44.309v112.993c0,24.377,20.644,43.967,45.021,43.967h65.359
			c4.062,0,7.959,1.698,10.831,4.573l8.994,9.036c5.982,5.982,15.681,5.918,21.663-0.064l13.48-13.543h68.583
			c24.377,0,43.255-19.59,43.255-43.967V122.876C391.945,98.498,373.066,78.565,348.69,78.565z M302.295,181.76l-81.971,32.122
			c-3.369,1.315-6.695-1.169-6.695-4.786v-64.242h-0.002c0-3.616,3.282-6.102,6.651-4.786l82.105,32.122
			C306.743,173.891,306.654,180.06,302.295,181.76z"/>
	</g>
</g>
<g>
</g>
<g>
</g>
<g>
</g>
<g>
</g>
<g>
</g>
<g>
</g>
<g>
</g>
<g>
</g>
<g>
</g>
<g>
</g>
<g>
</g>
<g>
</g>
<g>
</g>
<g>
</g>
<g>
</g>
</svg>
