<?xml version="1.0" encoding="iso-8859-1"?>
<!-- Generator: Adobe Illustrator 19.0.0, SVG Export Plug-In . SVG Version: 6.00 Build 0)  -->
<svg xmlns="http://www.w3.org/2000/svg" xmlns:xlink="http://www.w3.org/1999/xlink" version="1.1" id="Capa_1" x="0px" y="0px" viewBox="0 0 512 512" style="enable-background:new 0 0 512 512;" xml:space="preserve">
<g>
	<g>
		<path d="M45,30C20.186,30,0,50.186,0,75v15h167.128c9.419-22.408,22.872-42.728,39.489-60H45z"/>
	</g>
</g>
<g>
	<g>
		<path d="M304.763,180h-31.24c3.267,15.879,11.631,30.352,23.745,41.133l15.645-27.092C309.394,189.916,306.62,185.206,304.763,180    z"/>
	</g>
</g>
<g>
	<g>
		<path d="M323.24,93.853l15.58,26.973c2.661-0.493,5.378-0.826,8.179-0.826c2.801,0,5.519,0.333,8.179,0.826l15.58-26.973    C355.496,88.784,338.504,88.784,323.24,93.853z"/>
	</g>
</g>
<g>
	<g>
		<path d="M347,150c-8.276,0-15,6.724-15,15s6.724,15,15,15s15-6.724,15-15S355.276,150,347,150z"/>
	</g>
</g>
<g>
	<g>
		<path d="M389.237,180c-1.857,5.206-4.631,9.915-8.15,14.041l15.645,27.092c12.114-10.781,20.479-25.254,23.745-41.133H389.237z"/>
	</g>
</g>
<g>
	<g>
		<path d="M347,0c-90.981,0-165,74.019-165,165c0,28.945,7.529,57.158,21.826,82.061l-21.05,63.193    c-1.802,5.391-0.396,11.338,3.618,15.352c4.043,4.041,10.031,5.425,15.352,3.618l63.252-21.021C289.9,322.485,318.084,330,347,330    c90.981,0,165-74.019,165-165S437.981,0,347,0z M399.529,255.938c-7.209,4.178-16.386,1.644-20.508-5.479l-23.842-41.285    c-2.66,0.493-5.377,0.826-8.179,0.826s-5.519-0.333-8.179-0.826l-23.842,41.285c-4.113,7.104-13.281,9.666-20.508,5.479    C262.112,237.202,242,202.354,242,165c0-8.291,6.709-15,15-15h47.763c1.857-5.206,4.631-9.915,8.15-14.041l-23.906-41.404    c-4.131-7.163-1.685-16.333,5.479-20.479c31.846-18.428,73.184-18.428,105.029,0c7.163,4.146,9.609,13.315,5.479,20.479    l-23.906,41.404c3.519,4.125,6.293,8.835,8.15,14.041H437c8.291,0,15,6.709,15,15C452,202.354,431.888,237.202,399.529,255.938z"/>
	</g>
</g>
<g>
	<g>
		<path d="M262.361,340.694l-51.152,16.992c-15.59,5.35-33.812,1.342-46.025-10.869c-12.144-12.144-16.304-29.795-10.854-46.069    l16.992-51.05C158.65,223.403,152,194.385,152,165c0-15.518,2.032-30.531,5.488-45H0v270h302v-35.341    C288.339,351.424,275.023,346.798,262.361,340.694z"/>
	</g>
</g>
<g>
	<g>
		<path d="M0,420v47c0,24.814,20.186,45,45,45h212c24.814,0,45-20.186,45-45v-47H0z M152,482c-8.284,0-15-6.716-15-15    c0-8.286,6.716-15,15-15s15,6.714,15,15C167,475.284,160.284,482,152,482z"/>
	</g>
</g>
<g>
</g>
<g>
</g>
<g>
</g>
<g>
</g>
<g>
</g>
<g>
</g>
<g>
</g>
<g>
</g>
<g>
</g>
<g>
</g>
<g>
</g>
<g>
</g>
<g>
</g>
<g>
</g>
<g>
</g>
</svg>
