<?xml version="1.0" encoding="iso-8859-1"?>
<!-- Generator: Adobe Illustrator 19.0.0, SVG Export Plug-In . SVG Version: 6.00 Build 0)  -->
<svg xmlns="http://www.w3.org/2000/svg" xmlns:xlink="http://www.w3.org/1999/xlink" version="1.1" id="Capa_1" x="0px" y="0px" viewBox="0 0 512.001 512.001" style="enable-background:new 0 0 512.001 512.001;" xml:space="preserve">
<g>
	<g>
		<path d="M256,0h-91.035c-8.386,0-15.172,6.786-15.172,15.172c0,24.696,12.043,46.462,30.369,60.323    c0,0.124-0.024,0.243-0.024,0.367v30.345c0,41.829,34.034,76.874,75.862,76.874s75.863-35.045,75.863-76.874V75.862    C331.863,34.034,297.829,0,256,0z M301.518,106.208c0,25.099-20.418,46.529-45.518,46.529c-25.099,0-45.517-21.43-45.517-46.529    V89.5c4.905,1,9.977,1.535,15.172,1.535h75.862V106.208z"/>
	</g>
</g>
<g>
	<g>
		<path d="M207.376,201.43c-14.865-7.778-27.704-18.939-37.452-32.489c-30.174,18.754-50.477,51.94-50.477,90.003v61.702    c0,8.386,6.786,15.172,15.172,15.172h106.207V234.881L207.376,201.43z"/>
	</g>
</g>
<g>
	<g>
		<path d="M342.075,168.941c-9.748,13.55-22.587,24.711-37.452,32.489l-33.451,33.451v100.937h106.207    c8.386,0,15.173-6.786,15.173-15.172v-61.702C392.553,220.881,372.25,187.695,342.075,168.941z"/>
	</g>
</g>
<g>
	<g>
		<path d="M328.161,424.259c-1.484-4.563-5.04-8.149-9.589-9.675l-30.923-10.416l-19.469-26.196c-5.719-7.705-18.64-7.705-24.359,0    l-19.469,26.196l-30.923,10.416c-4.549,1.526-8.105,5.112-9.587,9.675c-1.482,4.578-0.711,9.572,2.059,13.483l18.892,26.612    l0.356,32.627c0.06,4.801,2.371,9.291,6.253,12.106c3.897,2.815,8.919,3.675,13.454,2.208l31.145-9.75l31.145,9.75    c4.358,1.395,9.429,0.724,13.454-2.208c3.882-2.815,6.193-7.305,6.253-12.106l0.356-32.627l18.892-26.612    C328.872,433.831,329.643,428.838,328.161,424.259z"/>
	</g>
</g>
<g>
	<g>
		<path d="M146.091,393.914c-1.482-4.564-5.037-8.15-9.587-9.675l-30.923-10.416L86.11,347.627c-5.719-7.705-18.64-7.705-24.359,0    l-19.469,26.196L11.359,384.24c-4.549,1.526-8.105,5.112-9.587,9.675c-1.482,4.578-0.711,9.572,2.059,13.483l18.892,26.612    l0.356,32.627c0.06,4.801,2.371,9.291,6.253,12.106c3.882,2.83,8.89,3.645,13.454,2.208l31.145-9.75l31.145,9.75    c4.358,1.395,9.429,0.724,13.454-2.208c3.882-2.815,6.193-7.305,6.253-12.106l0.356-32.627l18.892-26.612    C146.802,403.486,147.573,398.493,146.091,393.914z"/>
	</g>
</g>
<g>
	<g>
		<path d="M510.229,393.914c-1.482-4.564-5.037-8.15-9.587-9.675l-30.923-10.416l-19.469-26.196c-5.719-7.705-18.64-7.705-24.359,0    l-19.469,26.196l-30.923,10.416c-4.549,1.526-8.105,5.112-9.587,9.675c-1.482,4.578-0.711,9.572,2.059,13.483l18.892,26.612    l0.356,32.627c0.06,4.801,2.371,9.291,6.253,12.106c3.882,2.83,8.89,3.645,13.454,2.208l31.145-9.75l31.145,9.75    c4.358,1.395,9.429,0.724,13.454-2.208c3.882-2.815,6.193-7.305,6.253-12.106l0.354-32.627l18.892-26.612    C510.94,403.486,511.711,398.493,510.229,393.914z"/>
	</g>
</g>
<g>
</g>
<g>
</g>
<g>
</g>
<g>
</g>
<g>
</g>
<g>
</g>
<g>
</g>
<g>
</g>
<g>
</g>
<g>
</g>
<g>
</g>
<g>
</g>
<g>
</g>
<g>
</g>
<g>
</g>
</svg>
