<?xml version="1.0" encoding="iso-8859-1"?>
<!-- Generator: Adobe Illustrator 19.0.0, SVG Export Plug-In . SVG Version: 6.00 Build 0)  -->
<svg xmlns="http://www.w3.org/2000/svg" xmlns:xlink="http://www.w3.org/1999/xlink" version="1.1" id="Capa_1" x="0px" y="0px" viewBox="0 0 512 512" style="enable-background:new 0 0 512 512;" xml:space="preserve">
<g>
	<g>
		<path d="M331,334.763V287c0-41.353-33.647-75-75-75c-41.353,0-75,33.647-75,75v47.763c-17.422,6.213-30,22.707-30,42.237v90    c0,24.814,20.186,45,45,45h120c24.814,0,45-20.186,45-45v-90C361,357.47,348.422,340.976,331,334.763z M271,437    c0,8.291-6.709,15-15,15c-8.291,0-15-6.709-15-15v-30c0-8.291,6.709-15,15-15s15,6.709,15,15V437z M301,332h-90v-45    c0-24.814,20.186-45,45-45c24.814,0,45,20.186,45,45V332z"/>
	</g>
</g>
<g>
	<g>
		<path d="M507.503,25.743L330.211,182l177.292,154.259c2.8-5.861,4.497-12.341,4.497-19.259V45    C512,38.084,510.303,31.604,507.503,25.743z"/>
	</g>
</g>
<g>
	<g>
		<path d="M4.495,25.745C1.696,31.604,0,38.084,0,45v272c0,6.916,1.696,13.396,4.495,19.255L181.789,182L4.495,25.745z"/>
	</g>
</g>
<g>
	<g>
		<path d="M467,0H45c-6.909,0-13.381,1.692-19.237,4.486l205.364,180.815C239.141,183.337,247.39,182,256,182    s16.859,1.337,24.873,3.301L486.237,4.486C480.381,1.692,473.909,0,467,0z"/>
	</g>
</g>
<g>
	<g>
		<path d="M25.761,357.514C31.617,360.308,38.09,362,45,362h76.518c3.708-18.19,15.189-33.796,29.482-44.617V287    c0-18.03,4.988-34.755,13.03-49.596L25.761,357.514z"/>
	</g>
</g>
<g>
	<g>
		<path d="M347.972,237.408C356.012,252.247,361,268.971,361,287v30.383c14.293,10.821,24.774,26.427,28.482,44.617H467    c6.909,0,13.38-1.69,19.235-4.484L347.972,237.408z"/>
	</g>
</g>
<g>
</g>
<g>
</g>
<g>
</g>
<g>
</g>
<g>
</g>
<g>
</g>
<g>
</g>
<g>
</g>
<g>
</g>
<g>
</g>
<g>
</g>
<g>
</g>
<g>
</g>
<g>
</g>
<g>
</g>
</svg>
