<?xml version="1.0" encoding="iso-8859-1"?>
<!-- Generator: Adobe Illustrator 19.0.0, SVG Export Plug-In . SVG Version: 6.00 Build 0)  -->
<svg xmlns="http://www.w3.org/2000/svg" xmlns:xlink="http://www.w3.org/1999/xlink" version="1.1" id="Capa_1" x="0px" y="0px" viewBox="0 0 512 512" style="enable-background:new 0 0 512 512;" xml:space="preserve">
<g>
	<g>
		<path d="M256,0c-8.291,0-15,6.709-15,15v31c0,8.291,6.709,15,15,15s15-6.709,15-15V15C271,6.709,264.291,0,256,0z"/>
	</g>
</g>
<g>
	<g>
		<path d="M164.008,66.669l-15.015-26.016c-4.16-7.178-13.374-9.653-20.493-5.493c-7.178,4.146-9.639,13.315-5.493,20.493    l15.015,26.016c4.178,7.212,13.363,9.611,20.493,5.493C165.693,83.016,168.154,73.847,164.008,66.669z"/>
	</g>
</g>
<g>
	<g>
		<path d="M81.669,138.022l-26.016-15.015c-7.192-4.175-16.347-1.699-20.493,5.493c-4.146,7.178-1.685,16.348,5.493,20.493    l26.016,15.015c7.13,4.118,16.315,1.719,20.493-5.493C91.308,151.337,88.847,142.167,81.669,138.022z"/>
	</g>
</g>
<g>
	<g>
		<path d="M46,241H15c-8.291,0-15,6.709-15,15s6.709,15,15,15h31c8.291,0,15-6.709,15-15C61,247.709,54.291,241,46,241z"/>
	</g>
</g>
<g>
	<g>
		<path d="M497,241h-31c-8.291,0-15,6.709-15,15s6.709,15,15,15h31c8.291,0,15-6.709,15-15C512,247.709,505.291,241,497,241z"/>
	</g>
</g>
<g>
	<g>
		<path d="M476.84,128.5c-4.175-7.192-13.345-9.668-20.493-5.493l-26.016,15.015c-7.178,4.145-9.639,13.315-5.493,20.493    c4.178,7.213,13.363,9.611,20.493,5.493l26.016-15.015C478.525,144.847,480.986,135.678,476.84,128.5z"/>
	</g>
</g>
<g>
	<g>
		<path d="M383.5,35.16c-7.178-4.16-16.362-1.684-20.493,5.493l-15.015,26.016c-4.146,7.178-1.685,16.348,5.493,20.493    c7.13,4.118,16.315,1.719,20.493-5.493l15.015-26.016C393.139,48.475,390.678,39.305,383.5,35.16z"/>
	</g>
</g>
<g>
	<g>
		<path d="M436,452H76c-24.853,0-45,20.147-45,45c0,8.284,6.716,15,15,15h420c8.284,0,15-6.716,15-15    C481,472.147,460.853,452,436,452z"/>
	</g>
</g>
<g>
	<g>
		<path d="M316,392H196c-8.276,0-15,6.724-15,15v15h150v-15C331,398.724,324.276,392,316,392z"/>
	</g>
</g>
<g>
	<g>
		<path d="M211,213.563v84.874c17.461-6.196,30-22.881,30-42.437C241,236.444,228.461,219.76,211,213.563z"/>
	</g>
</g>
<g>
	<g>
		<path d="M256,91c-90.981,0-165,74.019-165,165v166h60v-15c0-24.814,20.186-45,45-45h45v-46.383    C228.426,325.135,212.948,331,196,331c-8.291,0-15-6.709-15-15V196c0-8.291,6.709-15,15-15c24.62,0,46.318,12.085,60,30.463    C269.682,193.085,291.38,181,316,181c8.291,0,15,6.709,15,15v120c0,8.291-6.709,15-15,15c-16.948,0-32.426-5.865-45-15.383V362h45    c24.814,0,45,20.186,45,45v15h60V256C421,165.019,346.981,91,256,91z"/>
	</g>
</g>
<g>
	<g>
		<path d="M271,256c0,19.556,12.539,36.24,30,42.437v-84.874C283.539,219.759,271,236.444,271,256z"/>
	</g>
</g>
<g>
</g>
<g>
</g>
<g>
</g>
<g>
</g>
<g>
</g>
<g>
</g>
<g>
</g>
<g>
</g>
<g>
</g>
<g>
</g>
<g>
</g>
<g>
</g>
<g>
</g>
<g>
</g>
<g>
</g>
</svg>
