<?xml version="1.0" encoding="iso-8859-1"?>
<!-- Generator: Adobe Illustrator 19.0.0, SVG Export Plug-In . SVG Version: 6.00 Build 0)  -->
<svg xmlns="http://www.w3.org/2000/svg" xmlns:xlink="http://www.w3.org/1999/xlink" version="1.1" id="Capa_1" x="0px" y="0px" viewBox="0 0 512 512" style="enable-background:new 0 0 512 512;" xml:space="preserve">
<g>
	<g>
		<path d="M466,0H45C20.186,0,0,20.186,0,45v46h60V76c0-8.291,6.709-15,15-15h361c8.291,0,15,6.709,15,15v300    c0,8.291-6.709,15-15,15H75c-8.291,0-15-6.709-15-15v-15H0v45c0,24.814,20.186,46,45,46h421c24.814,0,46-21.186,46-46V45    C512,20.186,490.814,0,466,0z"/>
	</g>
</g>
<g>
	<g>
		<rect y="121" width="60" height="210"/>
	</g>
</g>
<g>
	<g>
		<path d="M90,91v270h331V91H90z M196,301h-61c-8.291,0-15-6.709-15-15c0-8.291,6.709-15,15-15h61c8.291,0,15,6.709,15,15    C211,294.291,204.291,301,196,301z M196,241h-61c-8.291,0-15-6.709-15-15s6.709-15,15-15h61c8.291,0,15,6.709,15,15    S204.291,241,196,241z M196,181h-61c-8.291,0-15-6.709-15-15s6.709-15,15-15h61c8.291,0,15,6.709,15,15S204.291,181,196,181z     M316,301c-41.353,0-75-33.647-75-75c0-41.353,33.647-75,75-75c41.353,0,75,33.647,75,75C391,267.353,357.353,301,316,301z"/>
	</g>
</g>
<g>
	<g>
		<path d="M316,181c-24.814,0-45,20.186-45,45c0,24.814,20.186,45,45,45c24.814,0,45-20.186,45-45C361,201.186,340.814,181,316,181z     M316,241c-8.284,0-15-6.716-15-15c0-8.286,6.716-15,15-15s15,6.714,15,15C331,234.284,324.284,241,316,241z"/>
	</g>
</g>
<g>
	<g>
		<path d="M60,482v15c0,8.291,6.709,15,15,15h91c8.291,0,15-6.709,15-15v-15H60z"/>
	</g>
</g>
<g>
	<g>
		<path d="M331,482v15c0,8.291,6.709,15,15,15h90c8.291,0,15-6.709,15-15v-15H331z"/>
	</g>
</g>
<g>
</g>
<g>
</g>
<g>
</g>
<g>
</g>
<g>
</g>
<g>
</g>
<g>
</g>
<g>
</g>
<g>
</g>
<g>
</g>
<g>
</g>
<g>
</g>
<g>
</g>
<g>
</g>
<g>
</g>
</svg>
