<?xml version="1.0" encoding="iso-8859-1"?>
<!-- Generator: Adobe Illustrator 19.0.0, SVG Export Plug-In . SVG Version: 6.00 Build 0)  -->
<svg xmlns="http://www.w3.org/2000/svg" xmlns:xlink="http://www.w3.org/1999/xlink" version="1.1" id="Capa_1" x="0px" y="0px" viewBox="0 0 512 512" style="enable-background:new 0 0 512 512;" xml:space="preserve">
<g>
	<g>
		<polygon points="13.883,175.095 90,241.694 90,92.635   "/>
	</g>
</g>
<g>
	<g>
		<path d="M0,202.813V467c0,6.916,1.697,13.394,4.497,19.255l160.152-139.253L0,202.813z"/>
	</g>
</g>
<g>
	<g>
		<polygon points="421,92.635 421,241.694 498.115,175.095   "/>
	</g>
</g>
<g>
	<g>
		<path d="M347.351,347.002l160.152,139.255c2.8-5.861,4.497-12.339,4.497-19.257V202.812L347.351,347.002z"/>
	</g>
</g>
<g>
	<g>
		<path d="M324.571,366.935l-58.698,51.359C263.046,420.77,259.53,422,256,422c-3.53,0-7.046-1.23-9.873-3.706l-58.698-51.359    L25.763,507.514C31.619,510.308,38.091,512,45,512h422c6.909,0,13.38-1.69,19.235-4.484L324.571,366.935z"/>
	</g>
</g>
<g>
	<g>
		<path d="M307.5,150.711l-81.79,81.79c8.923,5.268,19.195,8.5,30.289,8.5C289.091,241,316,214.091,316,181    C316,169.906,312.768,159.633,307.5,150.711z"/>
	</g>
</g>
<g>
	<g>
		<path d="M376,0H135c-8.284,0-15,6.716-15,15c0,104.282,0,44.189,0,252.944l136,119.12l135-119.122c0-24.644,0-250.975,0-252.942    C391,6.716,384.284,0,376,0z M344.299,198.697c-6.746,35.127-35.475,63.856-70.602,70.602    c-63.312,12.156-118.147-42.711-105.996-105.996c6.746-35.127,35.475-63.856,70.602-70.602    C301.615,80.545,356.45,135.412,344.299,198.697z"/>
	</g>
</g>
<g>
	<g>
		<path d="M256,121c-33.091,0-60,26.909-60,60c0,11.094,3.232,21.367,8.5,30.289l81.79-81.79C277.367,124.232,267.094,121,256,121z"/>
	</g>
</g>
<g>
</g>
<g>
</g>
<g>
</g>
<g>
</g>
<g>
</g>
<g>
</g>
<g>
</g>
<g>
</g>
<g>
</g>
<g>
</g>
<g>
</g>
<g>
</g>
<g>
</g>
<g>
</g>
<g>
</g>
</svg>
