<?xml version="1.0" encoding="iso-8859-1"?>
<!-- Generator: Adobe Illustrator 19.0.0, SVG Export Plug-In . SVG Version: 6.00 Build 0)  -->
<svg xmlns="http://www.w3.org/2000/svg" xmlns:xlink="http://www.w3.org/1999/xlink" version="1.1" id="Capa_1" x="0px" y="0px" viewBox="0 0 512 512" style="enable-background:new 0 0 512 512;" xml:space="preserve">
<g>
	<g>
		<path d="M400.097,175.536L175.536,400.097c63.823,35.845,144.214,25.474,197.139-27.422    C425.571,319.779,435.942,239.404,400.097,175.536z"/>
	</g>
</g>
<g>
	<g>
		<path d="M256,0C115.086,0,0,115.044,0,256c0,140.914,115.045,256,256,256c140.914,0,256-115.045,256-256    C512,115.086,396.955,0,256,0z M97.064,368.998c-55.371-77.813-46.523-183.325,21.05-250.884    c67.573-67.573,173.057-76.421,250.884-21.05c7.505,5.33,8.5,16.225,1.904,22.822L119.887,370.902    C113.253,377.536,102.36,376.454,97.064,368.998z M393.886,393.886c-37.881,37.881-87.7,57.319-137.856,57.319    c-39.316,0-78.838-11.938-113.027-36.27c-7.505-5.33-8.5-16.227-1.904-22.822l251.016-251.016    c6.678-6.647,17.547-5.522,22.822,1.904C470.307,220.814,461.459,326.327,393.886,393.886z"/>
	</g>
</g>
<g>
	<g>
		<path d="M139.325,139.325c-52.896,52.896-63.267,133.271-27.422,197.139l224.561-224.561    C272.537,76.033,192.227,86.447,139.325,139.325z"/>
	</g>
</g>
<g>
</g>
<g>
</g>
<g>
</g>
<g>
</g>
<g>
</g>
<g>
</g>
<g>
</g>
<g>
</g>
<g>
</g>
<g>
</g>
<g>
</g>
<g>
</g>
<g>
</g>
<g>
</g>
<g>
</g>
</svg>
