<?xml version="1.0" encoding="iso-8859-1"?>
<!-- Generator: Adobe Illustrator 19.0.0, SVG Export Plug-In . SVG Version: 6.00 Build 0)  -->
<svg xmlns="http://www.w3.org/2000/svg" xmlns:xlink="http://www.w3.org/1999/xlink" version="1.1" id="Capa_1" x="0px" y="0px" viewBox="0 0 512 512" style="enable-background:new 0 0 512 512;" xml:space="preserve">
<g>
	<g>
		<path d="M467,422c-19.53,0-36.024,12.578-42.237,30H298.237c-4.532-12.708-14.529-22.705-27.237-27.237V392h15    c8.291,0,15-6.709,15-15v-22.211c12.363-3.486,24.214-8.408,35.449-14.707l15.015,15.015c5.859,5.859,15.352,5.859,21.211,0    l42.422-42.422c5.859-5.859,5.859-15.352,0-21.211l-15.015-15.015c6.299-11.235,11.221-23.086,14.707-35.449H436    c8.291,0,15-6.709,15-15v-60c0-8.291-6.709-15-15-15h-21.211c-3.486-12.363-8.408-24.214-14.707-35.449l15.015-15.015    c5.859-5.859,5.859-15.352,0-21.211l-42.422-42.422c-5.859-5.859-15.352-5.859-21.211,0l-15.015,15.015    C325.214,45.619,313.363,40.697,301,37.211V15c0-8.291-6.709-15-15-15h-60c-8.291,0-15,6.709-15,15v22.211    c-12.363,3.486-24.214,8.408-35.449,14.707l-15.015-15.015c-5.859-5.859-15.352-5.859-21.211,0L96.903,79.325    c-5.859,5.859-5.859,15.352,0,21.211l15.015,15.015c-6.299,11.235-11.221,23.086-14.707,35.449H76c-8.291,0-15,6.709-15,15v60    c0,8.291,6.709,15,15,15h21.211c3.486,12.363,8.408,24.214,14.707,35.449l-15.015,15.015c-5.859,5.859-5.859,15.352,0,21.211    l42.422,42.422c5.859,5.859,15.352,5.859,21.211,0l15.015-15.015c11.235,6.299,23.086,11.221,35.449,14.707V377    c0,8.291,6.709,15,15,15h15v32.763c-12.708,4.532-22.705,14.529-27.237,27.237H87.237C81.024,434.578,64.53,422,45,422    c-24.814,0-45,20.186-45,45c0,24.814,20.186,45,45,45c19.53,0,36.024-12.578,42.237-30h126.526c6.213,17.422,22.707,30,42.237,30    c19.53,0,36.024-12.578,42.237-30h126.526c6.213,17.422,22.707,30,42.237,30c24.814,0,45-20.186,45-45    C512,442.186,491.814,422,467,422z M151,196c0-57.891,47.109-105,105-105s105,47.109,105,105s-47.109,105-105,105    S151,253.891,151,196z"/>
	</g>
</g>
<g>
	<g>
		<path d="M256,151c-24.814,0-45,20.186-45,45c0,24.814,20.186,45,45,45c24.814,0,45-20.186,45-45C301,171.186,280.814,151,256,151z    "/>
	</g>
</g>
<g>
</g>
<g>
</g>
<g>
</g>
<g>
</g>
<g>
</g>
<g>
</g>
<g>
</g>
<g>
</g>
<g>
</g>
<g>
</g>
<g>
</g>
<g>
</g>
<g>
</g>
<g>
</g>
<g>
</g>
</svg>
