<?xml version="1.0" encoding="iso-8859-1"?>
<!-- Generator: Adobe Illustrator 19.0.0, SVG Export Plug-In . SVG Version: 6.00 Build 0)  -->
<svg xmlns="http://www.w3.org/2000/svg" xmlns:xlink="http://www.w3.org/1999/xlink" version="1.1" id="Capa_1" x="0px" y="0px" viewBox="0 0 512 512" style="enable-background:new 0 0 512 512;" xml:space="preserve">
<g>
	<g>
		<path d="M106,0H45C20.186,0,0,20.186,0,45v61c0,8.291,6.709,15,15,15s15-6.709,15-15V45c0-8.276,6.724-15,15-15h61    c8.291,0,15-6.709,15-15S114.291,0,106,0z"/>
	</g>
</g>
<g>
	<g>
		<path d="M467,0h-61c-8.291,0-15,6.709-15,15s6.709,15,15,15h61c8.276,0,15,6.724,15,15v61c0,8.291,6.709,15,15,15    c8.291,0,15-6.709,15-15V45C512,20.186,491.814,0,467,0z"/>
	</g>
</g>
<g>
	<g>
		<path d="M106,482H45c-8.276,0-15-6.724-15-15v-60c0-8.291-6.709-15-15-15s-15,6.709-15,15v60c0,24.814,20.186,45,45,45h61    c8.291,0,15-6.709,15-15C121,488.709,114.291,482,106,482z"/>
	</g>
</g>
<g>
	<g>
		<path d="M497,392c-8.291,0-15,6.709-15,15v60c0,8.276-6.724,15-15,15h-61c-8.291,0-15,6.709-15,15c0,8.291,6.709,15,15,15h61    c24.814,0,45-20.186,45-45v-60C512,398.709,505.291,392,497,392z"/>
	</g>
</g>
<g>
	<g>
		<path d="M497,241h-76v-15c0-90.981-74.019-165-165-165c-40.43,0-79.351,14.824-109.6,41.748    c-6.182,5.508-6.738,14.985-1.23,21.182c5.493,6.182,15,6.738,21.182,1.23C191.093,103.129,222.938,91,256,91    c74.443,0,135,60.557,135,135v15h-30v-15c0-26.924-10.21-52.544-28.755-72.144c-5.684-6.021-15.19-6.24-21.211-0.586    c-6.021,5.698-6.27,15.19-0.586,21.211C323.705,188.485,331,206.781,331,226v15h-30v-15c0-24.814-20.186-45-45-45    c-24.814,0-45,20.186-45,45v15h-30v-15c0-41.353,33.647-75,75-75c3.252,0,6.431,0.205,9.58,0.615    c8.32,1.025,15.732-4.746,16.787-12.979c1.055-8.218-4.761-15.732-12.979-16.787c-4.38-0.557-8.848-0.85-13.389-0.85    c-57.891,0-105,47.109-105,105v15h-30v-15c0-19.951,4.263-39.155,12.686-57.1c3.516-7.5,0.293-16.436-7.207-19.951    c-7.573-3.56-16.45-0.278-19.951,7.207C96.229,178.114,91,201.61,91,226v15H15c-8.291,0-15,6.709-15,15s6.709,15,15,15h76v46    c0,8.291,6.709,15,15,15s15-6.709,15-15v-46h30v46c0,8.291,6.709,15,15,15s15-6.709,15-15v-46h30v46c0,8.291,6.709,15,15,15    s15-6.709,15-15v-46h30v46c0,8.291,6.709,15,15,15c8.291,0,15-6.709,15-15v-46h30v46c0,8.291,6.709,15,15,15    c8.291,0,15-6.709,15-15v-46h30v46c0,8.291,6.709,15,15,15c8.291,0,15-6.709,15-15v-46h76c8.291,0,15-6.709,15-15    C512,247.709,505.291,241,497,241z M271,241h-30v-15c0-8.276,6.724-15,15-15s15,6.724,15,15V241z"/>
	</g>
</g>
<g>
	<g>
		<path d="M106,362c-8.291,0-15,6.709-15,15v30c0,8.291,6.709,15,15,15s15-6.709,15-15v-30C121,368.709,114.291,362,106,362z"/>
	</g>
</g>
<g>
	<g>
		<path d="M166,362c-8.291,0-15,6.709-15,15v30c0,8.291,6.709,15,15,15s15-6.709,15-15v-30C181,368.709,174.291,362,166,362z"/>
	</g>
</g>
<g>
	<g>
		<path d="M226,362c-8.291,0-15,6.709-15,15v30c0,8.291,6.709,15,15,15s15-6.709,15-15v-30C241,368.709,234.291,362,226,362z"/>
	</g>
</g>
<g>
	<g>
		<path d="M286,362c-8.291,0-15,6.709-15,15v30c0,8.291,6.709,15,15,15c8.291,0,15-6.709,15-15v-30C301,368.709,294.291,362,286,362    z"/>
	</g>
</g>
<g>
	<g>
		<path d="M346,362c-8.291,0-15,6.709-15,15v30c0,8.291,6.709,15,15,15c8.291,0,15-6.709,15-15v-30C361,368.709,354.291,362,346,362    z"/>
	</g>
</g>
<g>
	<g>
		<path d="M406,362c-8.291,0-15,6.709-15,15v30c0,8.291,6.709,15,15,15c8.291,0,15-6.709,15-15v-30C421,368.709,414.291,362,406,362    z"/>
	</g>
</g>
<g>
</g>
<g>
</g>
<g>
</g>
<g>
</g>
<g>
</g>
<g>
</g>
<g>
</g>
<g>
</g>
<g>
</g>
<g>
</g>
<g>
</g>
<g>
</g>
<g>
</g>
<g>
</g>
<g>
</g>
</svg>
