<?xml version="1.0" encoding="iso-8859-1"?>
<!-- Generator: Adobe Illustrator 19.0.0, SVG Export Plug-In . SVG Version: 6.00 Build 0)  -->
<svg xmlns="http://www.w3.org/2000/svg" xmlns:xlink="http://www.w3.org/1999/xlink" version="1.1" id="Capa_1" x="0px" y="0px" viewBox="0 0 512 512" style="enable-background:new 0 0 512 512;" xml:space="preserve">
<g>
	<g>
		<path d="M90,391v15c0,8.276,6.724,15,15,15s15-6.724,15-15v-15H90z"/>
	</g>
</g>
<g>
	<g>
		<rect x="90" y="121" width="30" height="180"/>
	</g>
</g>
<g>
	<g>
		<rect x="90" y="331" width="30" height="30"/>
	</g>
</g>
<g>
	<g>
		<path d="M45,121c-24.814,0-45,20.186-45,45v150c0,24.814,20.186,45,45,45h15V121H45z"/>
	</g>
</g>
<g>
	<g>
		<rect x="392" y="331" width="30" height="30"/>
	</g>
</g>
<g>
	<g>
		<rect x="392" y="121" width="30" height="180"/>
	</g>
</g>
<g>
	<g>
		<path d="M467,391h-15v15c0,24.814-20.186,45-45,45c-24.814,0-45-20.186-45-45v-15H150v15c0,24.814-20.186,45-45,45    c-24.814,0-45-20.186-45-45v-15H45c-16.948,0-32.426-5.865-45-15.383V466c0,24.814,20.186,46,45,46h422c24.814,0,45-21.186,45-46    v-90.383C499.426,385.135,483.948,391,467,391z"/>
	</g>
</g>
<g>
	<g>
		<path d="M467,121h-15v240h15c24.814,0,45-20.186,45-45V166C512,141.186,491.814,121,467,121z"/>
	</g>
</g>
<g>
	<g>
		<path d="M392,391v15c0,8.276,6.724,15,15,15s15-6.724,15-15v-15H392z"/>
	</g>
</g>
<g>
	<g>
		<path d="M150,121v240h212V121H150z M287,271h-16v15c0,8.291-6.709,15-15,15c-8.291,0-15-6.709-15-15v-15h-16    c-8.291,0-15-6.709-15-15c0-8.291,6.709-15,15-15h16v-15c0-8.291,6.709-15,15-15s15,6.709,15,15v15h16c8.291,0,15,6.709,15,15    S295.291,271,287,271z"/>
	</g>
</g>
<g>
	<g>
		<path d="M287,0h-62c-41.422,0-75,33.578-75,75v16h60V75c0-8.284,6.716-15,15-15h62c8.284,0,15,6.716,15,15v16h60V75    C362,33.578,328.422,0,287,0z"/>
	</g>
</g>
<g>
</g>
<g>
</g>
<g>
</g>
<g>
</g>
<g>
</g>
<g>
</g>
<g>
</g>
<g>
</g>
<g>
</g>
<g>
</g>
<g>
</g>
<g>
</g>
<g>
</g>
<g>
</g>
<g>
</g>
</svg>
