<?xml version="1.0" encoding="iso-8859-1"?>
<!-- Generator: Adobe Illustrator 19.0.0, SVG Export Plug-In . SVG Version: 6.00 Build 0)  -->
<svg xmlns="http://www.w3.org/2000/svg" xmlns:xlink="http://www.w3.org/1999/xlink" version="1.1" id="Capa_1" x="0px" y="0px" viewBox="0 0 512 512" style="enable-background:new 0 0 512 512;" xml:space="preserve">
<g>
	<g>
		<path d="M376,482h-45v-30H181v30h-45c-8.291,0-15,6.709-15,15c0,8.291,6.709,15,15,15c51.685,0,187.352,0,240,0    c8.291,0,15-6.709,15-15C391,488.709,384.291,482,376,482z"/>
	</g>
</g>
<g>
	<g>
		<path d="M181,89.854v80.662c0,41.409,21.654,74.707,60,93.975V72.23C222.574,82.669,202.189,88.865,181,89.854z"/>
	</g>
</g>
<g>
	<g>
		<path d="M271,72.23v192.265c38.346-19.259,60-52.57,60-93.979V89.854C309.811,88.865,289.426,82.669,271,72.23z"/>
	</g>
</g>
<g>
	<g>
		<path d="M0,362v15c0,24.814,20.186,45,45,45h422c24.814,0,45-20.186,45-45v-15H0z"/>
	</g>
</g>
<g>
	<g>
		<path d="M467,0H45C20.186,0,0,20.186,0,45v287h512V45C512,20.186,491.814,0,467,0z M262.017,300.705    C259.512,301.804,257.761,302,256,302s-3.512-0.196-6.017-1.295C188.018,279.542,151,231.005,151,170.516V75    c0-8.291,6.709-15,15-15h8.672c20.786,0,40.928-6.094,58.242-17.637l14.766-9.844c5.396-3.598,11.975-3.109,16.641,0l14.766,9.844    C296.4,53.906,316.542,60,337.328,60H346c8.291,0,15,6.709,15,15v95.516C361,231.005,323.982,279.542,262.017,300.705z M376,302    c-8.284,0-15-6.716-15-15s6.716-15,15-15s15,6.716,15,15S384.284,302,376,302z M436,302c-8.284,0-15-6.716-15-15s6.716-15,15-15    s15,6.716,15,15S444.284,302,436,302z"/>
	</g>
</g>
<g>
</g>
<g>
</g>
<g>
</g>
<g>
</g>
<g>
</g>
<g>
</g>
<g>
</g>
<g>
</g>
<g>
</g>
<g>
</g>
<g>
</g>
<g>
</g>
<g>
</g>
<g>
</g>
<g>
</g>
</svg>
