<?xml version="1.0" encoding="iso-8859-1"?>
<!-- Generator: Adobe Illustrator 19.0.0, SVG Export Plug-In . SVG Version: 6.00 Build 0)  -->
<svg xmlns="http://www.w3.org/2000/svg" xmlns:xlink="http://www.w3.org/1999/xlink" version="1.1" id="Capa_1" x="0px" y="0px" viewBox="0 0 512 512" style="enable-background:new 0 0 512 512;" xml:space="preserve">
<g>
	<g>
		<path d="M331,314.398v-47.763c0-41.353-33.647-75-75-75c-41.353,0-75,33.647-75,75v47.763c-17.422,6.213-30,22.707-30,42.237v90    c0,24.814,20.186,45,45,45h120c24.814,0,45-20.186,45-45v-90C361,337.105,348.422,320.611,331,314.398z M271,416.635    c0,8.291-6.709,15-15,15c-8.291,0-15-6.709-15-15v-30c0-8.291,6.709-15,15-15s15,6.709,15,15V416.635z M301,311.635h-90v-45    c0-24.815,20.186-45,45-45c24.814,0,45,20.186,45,45V311.635z"/>
	</g>
</g>
<g>
	<g>
		<path d="M496.879,213.192c0.077-4.054,0.121-12.596,0.121-14.658c0-98.247-80.585-178.169-178.393-178.169    c-48.706,0-88.521,8.906-124.482,52.354c-0.048,0.057-0.055,0.132-0.101,0.189c-4.299-0.623-8.6-1.273-13.024-1.273    c-49.629,0-90,40.371-90,90c0,0.352,0,0.718,0,1.069c-50.815,7.295-91,51.123-91,103.931c0,57.891,48.109,105,106,105h15v-15    c0-24.404,11.896-45.912,30-59.617v-30.383c0-57.891,47.109-105,105-105s105,47.109,105,105v30.383    c18.104,13.705,30,35.213,30,59.617v15h15c57.891,0,106-47.109,106-105C512,247.045,506.261,228.906,496.879,213.192z"/>
	</g>
</g>
<g>
</g>
<g>
</g>
<g>
</g>
<g>
</g>
<g>
</g>
<g>
</g>
<g>
</g>
<g>
</g>
<g>
</g>
<g>
</g>
<g>
</g>
<g>
</g>
<g>
</g>
<g>
</g>
<g>
</g>
</svg>
