<?xml version="1.0" encoding="iso-8859-1"?>
<!-- Generator: Adobe Illustrator 19.0.0, SVG Export Plug-In . SVG Version: 6.00 Build 0)  -->
<svg xmlns="http://www.w3.org/2000/svg" xmlns:xlink="http://www.w3.org/1999/xlink" version="1.1" id="Capa_1" x="0px" y="0px" viewBox="0 0 512 512" style="enable-background:new 0 0 512 512;" xml:space="preserve">
<g>
	<g>
		<path d="M467,0h-75c-92.01,0-170.153,64.136-190.549,150h30.76C251.913,79.995,317.029,30,392,30h45    c28.123,0,53.575,11.263,72.444,29.333C510.978,54.805,512,50.041,512,45C512,20.186,491.814,0,467,0z"/>
	</g>
</g>
<g>
	<g>
		<path d="M407,422H15c-8.291,0-15,6.709-15,15c0,8.291,6.709,14.9,15,14.9h17.763C31.082,456.615,30,461.716,30,467    c0,24.814,20.186,45,45,45s45-20.186,45-45c0-5.284-1.082-10.385-2.763-15.1h187.526c-1.681,4.715-2.763,9.816-2.763,15.1    c0,24.814,20.186,45,45,45c24.814,0,45-20.186,45-45c0-5.284-1.082-10.285-2.763-15H407c8.291,0,15-6.709,15-15    C422,428.709,415.291,422,407,422z M75,482c-8.276,0-15-6.724-15-15s6.724-15,15-15s15,6.724,15,15S83.276,482,75,482z M347,482    c-8.276,0-15-6.724-15-15s6.724-15,15-15s15,6.724,15,15S355.276,482,347,482z"/>
	</g>
</g>
<g>
	<g>
		<path d="M150,180v60c0,16.567,13.431,30,30,30c16.569,0,31-13.433,31-30v-60C203.925,180,156.342,180,150,180z"/>
	</g>
</g>
<g>
	<g>
		<path d="M60,150c-33.091,0-60,26.909-60,60v162.107c0,5.024,2.505,9.712,6.694,12.48c4.177,2.802,9.489,3.284,14.092,1.363    L30,382.094V255c0-41.797,25.148-78.779,62.053-95.46C82.685,153.558,71.693,150,60,150z"/>
	</g>
</g>
<g>
	<g>
		<path d="M437,60h-45c-69.375,0-127.68,52.588-135.165,120H241v60c0,33.137-27.863,60-61,60c-33.137,0-60-26.863-60-60v-58.482    C85.809,188.487,60,218.784,60,255v137h60v-15c0-24.814,20.186-47,44.985-47h91.146C280.873,330,302,352.142,302,376.897V392h60    V225c0-8.276,6.724-15,15-15h6.577c6.899,0,12.876,4.673,14.546,11.353l3.647,14.575C406.78,255.981,424.739,270,445.423,270H467    c24.814,0,45-20.186,45-45v-90C512,93.647,478.353,60,437,60z M437,150c-8.284,0-15-6.716-15-15c0-8.286,6.716-15,15-15    s15,6.714,15,15C452,143.284,445.284,150,437,150z"/>
	</g>
</g>
<g>
</g>
<g>
</g>
<g>
</g>
<g>
</g>
<g>
</g>
<g>
</g>
<g>
</g>
<g>
</g>
<g>
</g>
<g>
</g>
<g>
</g>
<g>
</g>
<g>
</g>
<g>
</g>
<g>
</g>
</svg>
