<?xml version="1.0" encoding="iso-8859-1"?>
<!-- Generator: Adobe Illustrator 19.0.0, SVG Export Plug-In . SVG Version: 6.00 Build 0)  -->
<svg version="1.1" id="Layer_1" xmlns="http://www.w3.org/2000/svg" xmlns:xlink="http://www.w3.org/1999/xlink" x="0px" y="0px"
	 viewBox="0 0 512 512" style="enable-background:new 0 0 512 512;" xml:space="preserve">
<g>
	<g>
		<path d="M410.439,194.739c1.227-7.903,1.867-15.998,1.867-24.243c0-86.586-70.19-156.775-156.775-156.775
			c-86.583,0-156.775,70.19-156.775,156.775c0,8.363,0.661,16.57,1.923,24.58C41.803,217.644,0,274.688,0,341.504
			c0,86.586,70.19,156.775,156.775,156.775c37.645,0,72.185-13.273,99.212-35.387c-43.592-35.562-64.128-91.486-55.667-145.62
			c-51.954-19.541-90.786-65.867-99.665-122.158C153.727,174.702,213.12,185.078,256,220.117
			c42.627-34.831,101.575-45.288,154.407-25.356c-8.717,56.11-47.192,102.369-98.784,122.155
			c8.608,54.246-11.919,110.337-55.608,145.978c27.025,22.114,61.566,35.386,99.21,35.386c86.584,0,156.775-70.19,156.775-156.775
			C512,274.354,469.779,217.076,410.439,194.739z M103.415,364.556l19.754-42.844h27.193v91.072h-25.013v-47.973l-15.264,33.735
			h-13.34L81.48,364.811v47.973H56.468v-91.072h27.322L103.415,364.556z M292.177,150.896c-2.781,2.651-5.946,4.874-9.492,6.67
			c-3.55,1.796-7.356,3.165-11.418,4.105c-4.062,0.941-8.017,1.411-11.864,1.411c-6.761,0.003-12.94-1.345-18.538-4.038
			c-5.603-2.694-10.434-6.264-14.496-10.711c-4.062-4.445-7.205-9.492-9.426-15.136c-2.226-5.644-3.335-11.372-3.335-17.19
			c0-5.557,1.045-11.031,3.141-16.417c2.095-5.387,5.151-10.217,9.173-14.495c4.018-4.276,8.892-7.739,14.623-10.39
			c5.729-2.65,12.27-3.976,19.625-3.976c8.807,0,16.437,1.817,22.895,5.451c6.455,3.636,11.265,8.446,14.43,14.43l-19.112,13.597
			c-0.857-2.223-1.988-4.062-3.399-5.516c-1.411-1.454-2.972-2.608-4.682-3.465c-1.712-0.854-3.485-1.454-5.322-1.796
			c-1.84-0.341-3.614-0.513-5.323-0.513c-3.592,0-6.691,0.706-9.3,2.116c-2.61,1.411-4.746,3.251-6.414,5.516
			c-1.667,2.268-2.907,4.833-3.718,7.696c-0.814,2.866-1.219,5.708-1.219,8.529c0,3.165,0.469,6.203,1.411,9.109
			c0.939,2.907,2.309,5.473,4.105,7.695c1.796,2.226,3.996,3.999,6.606,5.323c2.608,1.327,5.537,1.988,8.787,1.988
			c1.71,0,3.465-0.192,5.26-0.576c1.796-0.386,3.527-1.028,5.195-1.925c1.667-0.898,3.164-2.051,4.489-3.463
			c1.325-1.411,2.373-3.143,3.143-5.196l20.394,12.187C297.028,145.252,294.953,148.245,292.177,150.896z M424.106,382.642v30.144
			h-24.885v-30.4l-30.913-60.672h27.065l16.29,39.381l16.675-39.381h27.193L424.106,382.642z"/>
	</g>
</g>
<g>
	<g>
		<polygon points="263.645,271.43 296.74,230.639 268.521,230.639 240.814,265.274 240.814,230.639 215.801,230.639 
			215.801,321.713 240.814,321.713 240.814,295.416 247.741,288.233 270.316,321.713 299.049,321.713 		"/>
	</g>
</g>
<g>
</g>
<g>
</g>
<g>
</g>
<g>
</g>
<g>
</g>
<g>
</g>
<g>
</g>
<g>
</g>
<g>
</g>
<g>
</g>
<g>
</g>
<g>
</g>
<g>
</g>
<g>
</g>
<g>
</g>
</svg>
