<?xml version="1.0" encoding="iso-8859-1"?>
<!-- Generator: Adobe Illustrator 19.0.0, SVG Export Plug-In . SVG Version: 6.00 Build 0)  -->
<svg version="1.1" id="Layer_1" xmlns="http://www.w3.org/2000/svg" xmlns:xlink="http://www.w3.org/1999/xlink" x="0px" y="0px"
	 viewBox="0 0 512 512" style="enable-background:new 0 0 512 512;" xml:space="preserve">
<g>
	<g>
		<path d="M435.892,83.027V27.676H283.676V0h-55.351v27.676H76.108v55.351h13.838v262.919H76.108v55.351h80.259L145.297,512h55.351
			l11.07-110.703h88.562L311.351,512h55.351l-11.07-110.703h80.259v-55.351h-13.838V83.027H435.892z M283.676,138.378
			c11.463,0,20.757,9.294,20.757,20.757s-9.294,20.757-20.757,20.757s-20.757-9.294-20.757-20.757S272.212,138.378,283.676,138.378z
			 M152.216,290.595l69.189-110.703l49.104,78.563l33.923-50.887l55.351,83.027H152.216z"/>
	</g>
</g>
<g>
</g>
<g>
</g>
<g>
</g>
<g>
</g>
<g>
</g>
<g>
</g>
<g>
</g>
<g>
</g>
<g>
</g>
<g>
</g>
<g>
</g>
<g>
</g>
<g>
</g>
<g>
</g>
<g>
</g>
</svg>
