<?xml version="1.0" encoding="iso-8859-1"?>
<!-- Generator: Adobe Illustrator 19.0.0, SVG Export Plug-In . SVG Version: 6.00 Build 0)  -->
<svg version="1.1" id="Layer_1" xmlns="http://www.w3.org/2000/svg" xmlns:xlink="http://www.w3.org/1999/xlink" x="0px" y="0px"
	 viewBox="0 0 512 512" style="enable-background:new 0 0 512 512;" xml:space="preserve">
<g>
	<g>
		<path d="M440.889,99.556h-99.556V85.333C341.333,38.205,303.128,0,256,0s-85.333,38.205-85.333,85.333v14.222H71.111
			L42.667,213.333h42.667V512h341.333V213.333h42.667L440.889,99.556z M199.111,455.111h-56.889V270.222h56.889V455.111z
			 M284.444,455.111h-56.889V270.222h56.889V455.111z M284.444,99.556h-56.889V85.333c0-15.71,12.736-28.444,28.444-28.444
			c15.71,0,28.444,12.735,28.444,28.444V99.556z M369.778,455.111h-56.889V270.222h56.889V455.111z"/>
	</g>
</g>
<g>
</g>
<g>
</g>
<g>
</g>
<g>
</g>
<g>
</g>
<g>
</g>
<g>
</g>
<g>
</g>
<g>
</g>
<g>
</g>
<g>
</g>
<g>
</g>
<g>
</g>
<g>
</g>
<g>
</g>
</svg>
