<?xml version="1.0" encoding="iso-8859-1"?>
<!-- Generator: Adobe Illustrator 19.0.0, SVG Export Plug-In . SVG Version: 6.00 Build 0)  -->
<svg version="1.1" id="Layer_1" xmlns="http://www.w3.org/2000/svg" xmlns:xlink="http://www.w3.org/1999/xlink" x="0px" y="0px"
	 viewBox="0 0 511.999 511.999" style="enable-background:new 0 0 511.999 511.999;" xml:space="preserve">
<g>
	<g>
		<path d="M428.103,98.289c-14.597,1.7-25.295,14.659-25.295,29.355v90.861c0,7.316-5.928,13.248-13.247,13.248h-0.237
			c-7.917,0-14.336-6.42-14.336-14.336V70.853c0-14.7-10.696-27.657-25.293-29.357c-17.273-2.008-32.072,11.594-32.072,28.486
			v147.96c0,7.627-6.18,13.812-13.808,13.812c-7.739,0-14.012-6.276-14.012-14.015V29.549c0-14.698-10.696-27.657-25.293-29.351
			c-17.273-2.014-32.072,11.589-32.072,28.483v189.075c0,7.73-6.269,13.997-13.995,13.997c-7.637,0-13.823-6.188-13.823-13.825
			V70.853c0-14.7-10.697-27.657-25.295-29.357c-17.275-2.008-32.074,11.594-32.074,28.486l0.239,223.431l-17.584-21.345
			c-15.472-18.782-43.246-21.466-62.03-5.995c-18.787,15.475-21.47,43.247-5.995,62.033l114.196,137.318l0.05,46.575h255.647
			v-57.339c16.793-7.978,28.405-25.09,28.405-44.919V231.753v-13.747v-91.231C460.177,109.882,445.378,96.28,428.103,98.289z"/>
	</g>
</g>
<g>
</g>
<g>
</g>
<g>
</g>
<g>
</g>
<g>
</g>
<g>
</g>
<g>
</g>
<g>
</g>
<g>
</g>
<g>
</g>
<g>
</g>
<g>
</g>
<g>
</g>
<g>
</g>
<g>
</g>
</svg>
