<?xml version="1.0" encoding="iso-8859-1"?>
<!-- Generator: Adobe Illustrator 19.0.0, SVG Export Plug-In . SVG Version: 6.00 Build 0)  -->
<svg version="1.1" id="Layer_1" xmlns="http://www.w3.org/2000/svg" xmlns:xlink="http://www.w3.org/1999/xlink" x="0px" y="0px"
	 viewBox="0 0 512 512" style="enable-background:new 0 0 512 512;" xml:space="preserve">
<g>
	<g>
		<path d="M256.001,0C156.766,0,76.32,80.447,76.32,179.679c0,69.87,39.882,130.424,98.123,160.145v108.742v0.001h27.186v9.061
			c0,30.028,24.344,54.372,54.372,54.372c30.028,0,54.372-24.344,54.372-54.372v-9.061h27.186v-0.001V339.825
			c58.24-29.721,98.122-90.275,98.122-160.146C435.68,80.447,355.236,0,256.001,0z M351.15,95.15
			c15.015,0,27.186,12.171,27.186,27.186c0,15.013-12.171,27.186-27.186,27.186c-15.015,0-27.186-12.172-27.186-27.186
			C323.964,107.321,336.135,95.15,351.15,95.15z M323.965,285.451c-30.029,0-54.372-24.344-54.372-54.372
			c0-30.029,24.342-54.372,54.372-54.372c30.029,0,54.372,24.342,54.372,54.372C378.336,261.108,353.993,285.451,323.965,285.451z"
			/>
	</g>
</g>
<g>
</g>
<g>
</g>
<g>
</g>
<g>
</g>
<g>
</g>
<g>
</g>
<g>
</g>
<g>
</g>
<g>
</g>
<g>
</g>
<g>
</g>
<g>
</g>
<g>
</g>
<g>
</g>
<g>
</g>
</svg>
