<?xml version="1.0" encoding="iso-8859-1"?>
<!-- Generator: Adobe Illustrator 19.0.0, SVG Export Plug-In . SVG Version: 6.00 Build 0)  -->
<svg version="1.1" id="Layer_1" xmlns="http://www.w3.org/2000/svg" xmlns:xlink="http://www.w3.org/1999/xlink" x="0px" y="0px"
	 viewBox="0 0 512 512" style="enable-background:new 0 0 512 512;" xml:space="preserve">
<g>
	<g>
		<path d="M357.016,0H154.984c-35.919,0-65.038,29.119-65.038,65.038v381.924c0,35.922,29.119,65.038,65.038,65.038h202.032
			c35.919,0,65.038-29.116,65.038-65.038V65.038C422.054,29.119,392.935,0,357.016,0z M256,484.324
			c-15.285,0-27.676-12.39-27.676-27.676c0-15.285,12.39-27.676,27.676-27.676s27.676,12.39,27.676,27.676
			C283.676,471.934,271.285,484.324,256,484.324z M380.54,401.297H131.459V69.189H380.54V401.297z"/>
	</g>
</g>
<g>
	<g>
		<polygon points="304.432,228.324 270.508,279.212 221.405,200.649 152.216,311.351 359.784,311.351 		"/>
	</g>
</g>
<g>
	<g>
		<circle cx="283.676" cy="179.892" r="20.757"/>
	</g>
</g>
<g>
</g>
<g>
</g>
<g>
</g>
<g>
</g>
<g>
</g>
<g>
</g>
<g>
</g>
<g>
</g>
<g>
</g>
<g>
</g>
<g>
</g>
<g>
</g>
<g>
</g>
<g>
</g>
<g>
</g>
</svg>
