<?xml version="1.0" encoding="iso-8859-1"?>
<!-- Generator: Adobe Illustrator 19.0.0, SVG Export Plug-In . SVG Version: 6.00 Build 0)  -->
<svg version="1.1" id="Layer_1" xmlns="http://www.w3.org/2000/svg" xmlns:xlink="http://www.w3.org/1999/xlink" x="0px" y="0px"
	 viewBox="0 0 512 512" style="enable-background:new 0 0 512 512;" xml:space="preserve">
<g>
	<g>
		<path d="M451.84,96H435.2V57.6h-51.201V19.2H128v38.4H76.8V96H60.16C26.935,96,0,122.935,0,156.16v122.88
			c0,33.225,26.935,60.16,60.16,60.16H76.8v76.799l-51.2,25.603V492.8h460.8v-51.199l-51.2-25.603V339.2h16.64
			c33.228,0,60.16-26.935,60.16-60.16V156.16C512,122.935,485.068,96,451.84,96z M383.999,416H128V224h255.999V416z M377.6,185.6
			c-10.604,0-19.2-8.596-19.2-19.2s8.596-19.2,19.2-19.2s19.2,8.596,19.2,19.2S388.203,185.6,377.6,185.6z"/>
	</g>
</g>
<g>
</g>
<g>
</g>
<g>
</g>
<g>
</g>
<g>
</g>
<g>
</g>
<g>
</g>
<g>
</g>
<g>
</g>
<g>
</g>
<g>
</g>
<g>
</g>
<g>
</g>
<g>
</g>
<g>
</g>
</svg>
