<?xml version="1.0" encoding="iso-8859-1"?>
<!-- Generator: Adobe Illustrator 19.0.0, SVG Export Plug-In . SVG Version: 6.00 Build 0)  -->
<svg version="1.1" id="Layer_1" xmlns="http://www.w3.org/2000/svg" xmlns:xlink="http://www.w3.org/1999/xlink" x="0px" y="0px"
	 viewBox="0 0 512 512" style="enable-background:new 0 0 512 512;" xml:space="preserve">
<g>
	<g>
		<path d="M446.962,96.865h-38.746V41.513H103.782v55.351H65.038C29.119,96.865,0,125.984,0,161.903v188.195
			c0,35.919,29.119,65.038,65.038,65.038h38.745V276.757h304.434v138.378h38.746c35.922,0,65.038-29.119,65.038-65.038V161.903
			C512,125.984,482.884,96.865,446.962,96.865z M124.541,207.568c-11.463,0-20.757-9.294-20.757-20.757s9.293-20.757,20.757-20.757
			s20.757,9.293,20.757,20.757S136.004,207.568,124.541,207.568z M212.18,207.568c-11.463,0-20.757-9.294-20.757-20.757
			s9.293-20.757,20.757-20.757s20.758,9.293,20.758,20.757S223.643,207.568,212.18,207.568z M299.82,207.568
			c-11.463,0-20.757-9.294-20.757-20.757s9.294-20.757,20.757-20.757s20.757,9.293,20.757,20.757S311.284,207.568,299.82,207.568z
			 M387.459,207.568c-11.463,0-20.757-9.294-20.757-20.757s9.294-20.757,20.757-20.757s20.757,9.293,20.757,20.757
			S398.923,207.568,387.459,207.568z"/>
	</g>
</g>
<g>
	<g>
		<rect x="145.297" y="318.27" width="221.405" height="152.216"/>
	</g>
</g>
<g>
</g>
<g>
</g>
<g>
</g>
<g>
</g>
<g>
</g>
<g>
</g>
<g>
</g>
<g>
</g>
<g>
</g>
<g>
</g>
<g>
</g>
<g>
</g>
<g>
</g>
<g>
</g>
<g>
</g>
</svg>
