<?xml version="1.0" encoding="iso-8859-1"?>
<!-- Generator: Adobe Illustrator 19.0.0, SVG Export Plug-In . SVG Version: 6.00 Build 0)  -->
<svg version="1.1" id="Layer_1" xmlns="http://www.w3.org/2000/svg" xmlns:xlink="http://www.w3.org/1999/xlink" x="0px" y="0px"
	 viewBox="0 0 512 512" style="enable-background:new 0 0 512 512;" xml:space="preserve">
<g>
	<g>
		<rect y="370.324" width="512" height="40.421"/>
	</g>
</g>
<g>
	<g>
		<path d="M481.496,289.481c-3.071-17.244-8.076-33.815-14.774-49.492l-35.686,18.315l-11.955-24.15l35.618-18.278
			c-9.55-16.606-21.135-31.892-34.393-45.542l-27.058,29.466l-19.886-18.185l27.071-29.48
			c-14.732-11.985-30.981-22.171-48.418-30.232l-15.173,37.039l-25.12-9.754l15.208-37.124c-18.254-5.939-37.511-9.65-57.456-10.807
			v40.017h-26.946v-40.017c-19.945,1.157-39.203,4.868-57.457,10.807l15.208,37.124l-25.12,9.754l-15.173-37.039
			c-17.435,8.061-33.686,18.249-48.418,30.232l27.071,29.48l-19.886,18.185l-27.056-29.466
			c-13.258,13.65-24.843,28.936-34.393,45.542l35.618,18.278l-11.955,24.15L45.28,239.99c-6.698,15.677-11.703,32.248-14.774,49.492
			H0v40.421h512v-40.421H481.496z M156.075,289.481c15.995-39.497,54.694-67.368,99.925-67.368c45.231,0,83.93,27.873,99.925,67.368
			H156.075z"/>
	</g>
</g>
<g>
</g>
<g>
</g>
<g>
</g>
<g>
</g>
<g>
</g>
<g>
</g>
<g>
</g>
<g>
</g>
<g>
</g>
<g>
</g>
<g>
</g>
<g>
</g>
<g>
</g>
<g>
</g>
<g>
</g>
</svg>
