<?xml version="1.0" encoding="iso-8859-1"?>
<!-- Generator: Adobe Illustrator 19.0.0, SVG Export Plug-In . SVG Version: 6.00 Build 0)  -->
<svg version="1.1" id="Layer_1" xmlns="http://www.w3.org/2000/svg" xmlns:xlink="http://www.w3.org/1999/xlink" x="0px" y="0px"
	 viewBox="0 0 512 512" style="enable-background:new 0 0 512 512;" xml:space="preserve">
<g>
	<g>
		<polygon points="7.758,124.121 7.758,372.364 193.939,248.242 		"/>
	</g>
</g>
<g>
	<g>
		<polygon points="318.061,248.242 504.242,372.364 504.242,124.121 		"/>
	</g>
</g>
<g>
	<g>
		<rect x="224.97" y="403.394" width="62.061" height="108.606"/>
	</g>
</g>
<g>
	<g>
		<rect x="224.97" y="263.758" width="62.061" height="108.606"/>
	</g>
</g>
<g>
	<g>
		<rect x="224.97" y="124.121" width="62.061" height="108.606"/>
	</g>
</g>
<g>
	<g>
		<path d="M426.667,131.879L403.394,15.515L380.01,38.9C344.851,14.389,302.113,0,256,0C177.531,0,108.798,41.618,70.63,103.976
			l51.692,34.461C149.313,92.728,199.072,62.061,256,62.061c28.917,0,55.974,7.924,79.143,21.706l-24.84,24.84L426.667,131.879z"/>
	</g>
</g>
<g>
</g>
<g>
</g>
<g>
</g>
<g>
</g>
<g>
</g>
<g>
</g>
<g>
</g>
<g>
</g>
<g>
</g>
<g>
</g>
<g>
</g>
<g>
</g>
<g>
</g>
<g>
</g>
<g>
</g>
</svg>
