<?xml version="1.0" encoding="iso-8859-1"?>
<!-- Generator: Adobe Illustrator 19.0.0, SVG Export Plug-In . SVG Version: 6.00 Build 0)  -->
<svg version="1.1" id="Layer_1" xmlns="http://www.w3.org/2000/svg" xmlns:xlink="http://www.w3.org/1999/xlink" x="0px" y="0px"
	 viewBox="0 0 512 512" style="enable-background:new 0 0 512 512;" xml:space="preserve">
<g>
	<g>
		<path d="M500.124,262.288c-4.644-6.206-8.881-13.27-29.85-24.494c-9.786-5.239-411.995-168.08-411.995-168.08L42.598,108.15
			l310.24,126.569H65.038C29.119,234.719,0,263.838,0,299.757v77.492c0,35.919,29.119,65.038,65.038,65.038h381.924
			c35.922,0,65.038-29.119,65.038-65.038v-77.492C512,285.805,507.893,272.67,500.124,262.288z M124.541,317.746
			c-11.463,0-20.757-9.294-20.757-20.757s9.293-20.757,20.757-20.757s20.757,9.294,20.757,20.757S136.004,317.746,124.541,317.746z
			 M212.181,317.746c-11.465,0-20.757-9.294-20.757-20.757s9.292-20.757,20.757-20.757c11.462,0,20.757,9.294,20.757,20.757
			S223.643,317.746,212.181,317.746z M299.82,317.746c-11.463,0-20.757-9.294-20.757-20.757s9.293-20.757,20.757-20.757
			c11.463,0,20.757,9.294,20.757,20.757S311.284,317.746,299.82,317.746z M387.459,317.746c-11.463,0-20.757-9.294-20.757-20.757
			s9.294-20.757,20.757-20.757s20.757,9.294,20.757,20.757S398.923,317.746,387.459,317.746z"/>
	</g>
</g>
<g>
</g>
<g>
</g>
<g>
</g>
<g>
</g>
<g>
</g>
<g>
</g>
<g>
</g>
<g>
</g>
<g>
</g>
<g>
</g>
<g>
</g>
<g>
</g>
<g>
</g>
<g>
</g>
<g>
</g>
</svg>
