<?xml version="1.0" encoding="iso-8859-1"?>
<!-- Generator: Adobe Illustrator 19.0.0, SVG Export Plug-In . SVG Version: 6.00 Build 0)  -->
<svg xmlns="http://www.w3.org/2000/svg" xmlns:xlink="http://www.w3.org/1999/xlink" version="1.1" id="Capa_1" x="0px" y="0px" viewBox="0 0 512 512" style="enable-background:new 0 0 512 512;" xml:space="preserve">
<g>
	<g>
		<path d="M0,391v15c0,24.814,20.186,45,45,45h422c24.814,0,45-20.186,45-45v-15H0z"/>
	</g>
</g>
<g>
	<g>
		<path d="M317,151c-8.276,0-15,6.724-15,15s6.724,15,15,15s15-6.724,15-15S325.276,151,317,151z"/>
	</g>
</g>
<g>
	<g>
		<path d="M195,271c-8.276,0-15,6.724-15,15s6.724,15,15,15s15-6.724,15-15S203.276,271,195,271z"/>
	</g>
</g>
<g>
	<g>
		<path d="M437,61H75c-24.814,0-45,20.186-45,45v255h452V106C482,81.186,461.814,61,437,61z M377,301H237.237    c-6.213,17.422-22.707,30-42.237,30c-19.53,0-36.024-12.578-42.237-30H135c-8.291,0-15-6.709-15-15c0-8.291,6.709-15,15-15h17.763    c6.213-17.422,22.707-30,42.237-30c19.53,0,36.024,12.578,42.237,30H377c8.291,0,15,6.709,15,15C392,294.291,385.291,301,377,301z     M377,181h-17.763c-6.213,17.422-22.707,30-42.237,30c-19.53,0-36.024-12.578-42.237-30H135c-8.291,0-15-6.709-15-15    s6.709-15,15-15h139.763c6.213-17.422,22.707-30,42.237-30c19.53,0,36.024,12.578,42.237,30H377c8.291,0,15,6.709,15,15    S385.291,181,377,181z"/>
	</g>
</g>
<g>
</g>
<g>
</g>
<g>
</g>
<g>
</g>
<g>
</g>
<g>
</g>
<g>
</g>
<g>
</g>
<g>
</g>
<g>
</g>
<g>
</g>
<g>
</g>
<g>
</g>
<g>
</g>
<g>
</g>
</svg>
