<?xml version="1.0" encoding="iso-8859-1"?>
<!-- Generator: Adobe Illustrator 19.0.0, SVG Export Plug-In . SVG Version: 6.00 Build 0)  -->
<svg xmlns="http://www.w3.org/2000/svg" xmlns:xlink="http://www.w3.org/1999/xlink" version="1.1" id="Capa_1" x="0px" y="0px" viewBox="0 0 512 512" style="enable-background:new 0 0 512 512;" xml:space="preserve">
<g>
	<g>
		<path d="M376,422h-75v-60h-90v60h-75c-24.814,0-45,20.186-45,45v30c0,8.291,6.709,15,15,15h300c8.291,0,15-6.709,15-15v-30    C421,442.186,400.814,422,376,422z"/>
	</g>
</g>
<g>
	<g>
		<path d="M316,90h75V75c0-41.353-33.647-75-75-75H196c-41.353,0-75,33.647-75,75v15h75c8.291,0,15,6.709,15,15s-6.709,15-15,15h-75    v30h75c8.291,0,15,6.709,15,15s-6.709,15-15,15h-75v32h75c8.291,0,15,6.709,15,15s-6.709,15-15,15h-75v15    c0,41.353,33.647,75,75,75c13.784,0,106.227,0,120,0c41.353,0,75-33.647,75-75v-15h-75c-8.291,0-15-6.709-15-15s6.709-15,15-15h75    v-32h-75c-8.291,0-15-6.709-15-15s6.709-15,15-15h75v-30h-75c-8.291,0-15-6.709-15-15S307.709,90,316,90z M271,257    c0,8.291-6.709,15-15,15c-8.291,0-15-6.709-15-15V75c0-8.291,6.709-15,15-15s15,6.709,15,15V257z"/>
	</g>
</g>
<g>
</g>
<g>
</g>
<g>
</g>
<g>
</g>
<g>
</g>
<g>
</g>
<g>
</g>
<g>
</g>
<g>
</g>
<g>
</g>
<g>
</g>
<g>
</g>
<g>
</g>
<g>
</g>
<g>
</g>
</svg>
