<?xml version="1.0" encoding="iso-8859-1"?>
<!-- Generator: Adobe Illustrator 19.0.0, SVG Export Plug-In . SVG Version: 6.00 Build 0)  -->
<svg xmlns="http://www.w3.org/2000/svg" xmlns:xlink="http://www.w3.org/1999/xlink" version="1.1" id="Capa_1" x="0px" y="0px" viewBox="0 0 512 512" style="enable-background:new 0 0 512 512;" xml:space="preserve">
<g>
	<g>
		<path d="M443.441,320.039l-60-90c-11.221-16.846-32.49-24.185-51.68-17.725L301,222.568v-25.122l30.762,10.239    c15.806,5.303,34.248,0.952,46.055-10.869l60-60c17.549-17.549,17.549-46.084,0-63.633s-46.084-17.549-63.633,0l-40.342,40.327    l-24.137-8.044C322.623,94.455,331,78.271,331,60c0-33.091-26.909-60-60-60s-60,26.909-60,60c0,13.422,4.583,25.697,12.054,35.702    L97.167,120.879c-24.185,4.837-40.205,28.388-35.288,52.939c4.761,23.833,28.037,40.356,52.954,35.303L211,189.888V285    c0,4.422,0.859,8.696,2.106,12.843c0.137,0.458,0.057,0.941,0.209,1.396L238.568,375l-25.254,77.747    c-7.852,23.54,4.907,49.072,28.433,56.924C246.361,511.224,251.151,512,256,512c19.395,0,36.562-12.363,42.686-30.776l30.015-92    c3.047-9.17,3.047-19.277-0.015-28.462l-15.764-47.292l14.709-4.9l40.928,61.392c13.882,20.798,41.863,26.187,62.402,12.48    C451.6,368.692,457.262,340.785,443.441,320.039z"/>
	</g>
</g>
<g>
</g>
<g>
</g>
<g>
</g>
<g>
</g>
<g>
</g>
<g>
</g>
<g>
</g>
<g>
</g>
<g>
</g>
<g>
</g>
<g>
</g>
<g>
</g>
<g>
</g>
<g>
</g>
<g>
</g>
</svg>
