<?xml version="1.0" encoding="iso-8859-1"?>
<!-- Generator: Adobe Illustrator 19.0.0, SVG Export Plug-In . SVG Version: 6.00 Build 0)  -->
<svg xmlns="http://www.w3.org/2000/svg" xmlns:xlink="http://www.w3.org/1999/xlink" version="1.1" id="Capa_1" x="0px" y="0px" viewBox="0 0 512.002 512.002" style="enable-background:new 0 0 512.002 512.002;" xml:space="preserve">
<g>
	<g>
		<path d="M211.012,62.333v45c0,8.277,6.724,14.6,15,14.6h60c8.276,0,15-6.324,15-14.6v-45H211.012z"/>
	</g>
</g>
<g>
	<g>
		<path d="M429.478,228.548c-4.244-8.225-7.718-16.106-11.202-24.003c-13.973-31.65-22.052-61.393-25.261-92.634    c-2.176-21.175-8.861-39.583-32-47.195c-4.375-1.439-8.961-2.382-13.773-2.382h-16.23v45c0,24.814-20.186,45-45,45h-60    c-24.814,0-45-20.186-45-45v-45h-16.216c-22.459,0-42.946,17.984-44.727,41.516c-0.002,0.02-0.007,0.037-0.009,0.057    c-0.71,9.45-1.989,18.636-3.545,27.764c-5.446,31.961-16.106,62.607-33.618,96.205c-20.83,39.99-26.968,84.96-17.725,130.077    c5.696,27.839,17.684,53.716,34.345,76.002c35.095,46.946,90.997,79.448,159.945,77.999    c50.944-0.984,96.894-21.416,130.707-53.568c40.193-38.204,60.841-90.348,60.841-141.054    C451.011,286.527,443.57,255.823,429.478,228.548z M256.012,422.331c-57.891,0-104.999-47.109-104.999-104.999    c0-57.891,47.109-105.399,104.999-105.399c57.891,0,104.999,47.509,104.999,105.399    C361.011,375.222,313.903,422.331,256.012,422.331z"/>
	</g>
</g>
<g>
	<g>
		<path d="M316.012,0H196.013c-19.935,0-36.683,13.112-42.579,31.102C157.166,30.52,160.921,30,164.797,30h182.446    c3.871,0,7.623,0.52,11.349,1.101C352.695,13.114,335.944,0,316.012,0z"/>
	</g>
</g>
<g>
</g>
<g>
</g>
<g>
</g>
<g>
</g>
<g>
</g>
<g>
</g>
<g>
</g>
<g>
</g>
<g>
</g>
<g>
</g>
<g>
</g>
<g>
</g>
<g>
</g>
<g>
</g>
<g>
</g>
</svg>
