<?xml version="1.0" encoding="iso-8859-1"?>
<!-- Generator: Adobe Illustrator 19.0.0, SVG Export Plug-In . SVG Version: 6.00 Build 0)  -->
<svg xmlns="http://www.w3.org/2000/svg" xmlns:xlink="http://www.w3.org/1999/xlink" version="1.1" id="Capa_1" x="0px" y="0px" viewBox="0 0 512 512" style="enable-background:new 0 0 512 512;" xml:space="preserve">
<g>
	<g>
		<path d="M482.004,364.765c-0.001,0-0.002,0-0.004-0.001V302H30v62.764c-0.001,0-0.002,0.001-0.004,0.001    C11.749,371.279,0,388.726,0,407v60c0,24.814,20.186,45,45,45h422c24.814,0,45-20.186,45-45v-60    C512,392.446,503.365,372.39,482.004,364.765z M317,452H195c-8.291,0-15-6.709-15-15c0-8.291,6.709-15,15-15h122    c8.291,0,15,6.709,15,15C332,445.291,325.291,452,317,452z"/>
	</g>
</g>
<g>
	<g>
		<path d="M455.849,120H56.151c-9.875,18.625-17.285,38.749-21.616,60h442.929C473.134,158.749,465.724,138.625,455.849,120z"/>
	</g>
</g>
<g>
	<g>
		<path d="M481.24,210H30.76c-0.331,4.98-0.76,9.937-0.76,15v47h452v-47C482,219.937,481.572,214.98,481.24,210z"/>
	</g>
</g>
<g>
	<g>
		<path d="M255,0C181.609,0,116.521,35.473,75.425,90h361.15C395.479,35.473,328.391,0,255,0z"/>
	</g>
</g>
<g>
</g>
<g>
</g>
<g>
</g>
<g>
</g>
<g>
</g>
<g>
</g>
<g>
</g>
<g>
</g>
<g>
</g>
<g>
</g>
<g>
</g>
<g>
</g>
<g>
</g>
<g>
</g>
<g>
</g>
</svg>
