<?xml version="1.0" encoding="iso-8859-1"?>
<!-- Generator: Adobe Illustrator 19.0.0, SVG Export Plug-In . SVG Version: 6.00 Build 0)  -->
<svg xmlns="http://www.w3.org/2000/svg" xmlns:xlink="http://www.w3.org/1999/xlink" version="1.1" id="Capa_1" x="0px" y="0px" viewBox="0 0 512 512" style="enable-background:new 0 0 512 512;" xml:space="preserve">
<g>
	<g>
		<path d="M413.282,81.328C383.326,30.396,330.152,0,271.075,0h-30.146C181.852,0,128.678,30.396,98.722,81.328    c-28.469,48.389-30.238,106.011-5.748,155.944c1.639-9.781,4.133-19.351,8.355-28.107c11.646-24.258,32.651-41.44,59.136-48.34    c28.989-7.588,61.494-1.436,86.953,16.479c4.98,3.53,12.407,3.457,17.329-0.103c22.822-16.509,51.299-23.525,78.208-19.16    c24.141,3.97,45.073,16.875,58.975,36.343c8.97,12.55,14.767,26.946,17.393,42.27C443.498,186.865,441.634,129.52,413.282,81.328z    "/>
	</g>
</g>
<g>
	<g>
		<path d="M296.607,408.817L279.791,392h-47.578l-16.616,16.816c-2.798,2.798-4.395,6.665-4.395,10.605V497    c0,8.282,6.513,14.998,14.8,15h60c8.284,0,15-6.716,15-15v-77.578C301.002,415.482,299.405,411.614,296.607,408.817z M271.002,452    h-30c-8.291,0-15-6.709-15-15c0-8.291,6.709-15,15-15h30c8.291,0,15,6.709,15,15C286.002,445.291,279.293,452,271.002,452z"/>
	</g>
</g>
<g>
	<g>
		<path d="M316.002,272c-8.276,0-14.8,6.724-14.8,15s6.524,15,14.8,15h75v-11.122V272H316.002z"/>
	</g>
</g>
<g>
	<g>
		<path d="M377.525,213.816c-9.229-12.92-23.218-21.504-39.39-24.17c-19.058-3.091-39.39,1.963-55.796,13.857    c-15.278,11.074-36.738,11.206-52.192,0.337c-18.325-12.891-41.558-17.402-62.109-11.982    c-17.813,4.644-31.904,16.113-39.683,32.314c-2.69,5.577-4.479,11.616-5.702,17.827h73.348    C215.532,242,232.026,254.578,238.239,272h35.526c6.213-17.422,22.707-30,42.237-30h73.381    C387.38,231.777,383.492,222.173,377.525,213.816z"/>
	</g>
</g>
<g>
	<g>
		<path d="M316.002,332c-19.53,0-36.024-12.578-42.237-30h-35.526c-6.213,17.422-22.707,30-42.237,30h-74.8v75    c0,32.436,22.184,64.89,59.8,73.098v-60.676c0-12.012,4.688-23.32,13.184-31.816l21.211-21.211    c0.037-0.037,0.092-0.049,0.13-0.086c-2.816-5.874-4.525-12.371-4.525-19.309c0-8.291,6.709-15,15-15c8.291,0,15,6.709,15,15    c0,8.276,6.724,15,15,15c8.276,0,15-6.724,15-15c0-8.291,6.709-15,15-15c8.291,0,15,6.709,15,15    c0,6.938-1.708,13.435-4.525,19.309c0.038,0.037,0.093,0.049,0.13,0.086l21.211,21.211c8.496,8.496,13.384,19.805,13.384,31.816    v60.676c38.183-8.331,59.8-41.18,59.8-73.098v-75H316.002z"/>
	</g>
</g>
<g>
	<g>
		<path d="M196.002,272h-74.8v18.878V302h74.8c8.276,0,15-6.724,15-15S204.278,272,196.002,272z"/>
	</g>
</g>
<g>
</g>
<g>
</g>
<g>
</g>
<g>
</g>
<g>
</g>
<g>
</g>
<g>
</g>
<g>
</g>
<g>
</g>
<g>
</g>
<g>
</g>
<g>
</g>
<g>
</g>
<g>
</g>
<g>
</g>
</svg>
