<?xml version="1.0" encoding="iso-8859-1"?>
<!-- Generator: Adobe Illustrator 19.0.0, SVG Export Plug-In . SVG Version: 6.00 Build 0)  -->
<svg xmlns="http://www.w3.org/2000/svg" xmlns:xlink="http://www.w3.org/1999/xlink" version="1.1" id="Capa_1" x="0px" y="0px" viewBox="0 0 512 512" style="enable-background:new 0 0 512 512;" xml:space="preserve">
<g>
	<g>
		<path d="M140.08,371.58c-30.845-30.83-47.848-71.75-48.207-115.307l-37.516,52.524L34.01,329.144    c-17.757,17.757-17.394,46.253,0,63.647l84.844,84.844c11.935,11.935,41.699,21.948,63.647,0l20.347-20.347l52.526-37.518    C211.822,419.407,170.905,402.406,140.08,371.58z"/>
	</g>
</g>
<g>
	<g>
		<path d="M486.034,131.573c-2.122-4.498-4.66-8.88-8.355-12.608c-0.033-0.033-0.04-0.077-0.073-0.11l-84.858-84.873    c-0.028-0.027-0.064-0.033-0.092-0.061c-3.344-3.32-7.344-5.649-11.499-7.61c-16.897-8.599-37.901-6.421-52.042,7.685    l-18.471,18.527l-52.527,37.515c43.546,0.355,84.468,17.362,115.298,48.191c31.838,31.838,47.805,73.574,48.125,115.404    l37.597-52.635l18.469-18.511C491.396,168.697,493.932,148.281,486.034,131.573z"/>
	</g>
</g>
<g>
	<g>
		<path d="M498.816,55.223l-42.422-42.437c-14.117-14.117-35.109-16.318-52.011-7.72c3.344,2.325,6.625,4.77,9.56,7.705    l84.873,84.873c3.063,3.067,5.621,6.434,8.044,9.862c3.237-6.284,5.14-13.202,5.14-20.468    C512,75.013,507.313,63.704,498.816,55.223z"/>
	</g>
</g>
<g>
	<g>
		<path d="M97.642,498.845l-84.843-84.843c-2.933-2.933-5.42-6.178-7.795-9.481c-8.525,16.89-6.301,37.822,7.78,51.903    l42.437,42.437c0,0,0,0,0,0.015C63.995,507.62,75.509,512,87.037,512c6.973,0,13.711-2.155,20.079-5.367    C103.816,504.26,100.574,501.777,97.642,498.845z"/>
	</g>
</g>
<g>
	<g>
		<path d="M361.737,338.691c1.535-2.032,6.191-6.391,14.123-21.64h0.002c26.462-50.881,18.986-114.965-23.659-157.61    c-39.875-39.852-102.028-52.8-157.634-23.712c0,0-19.336,9.778-33.279,23.712c-51.271,51.252-54.054,136.904,0,190.928    c39.958,39.935,102.102,52.739,157.601,23.73c0,0,7.495-3.37,21.669-14.163l11.644,11.644c5.859,5.859,15.351,5.86,21.211,0    c5.859-5.859,5.859-15.352,0-21.211L361.737,338.691z M309.767,223.089l-31.816,31.816l10.605,10.605    c5.859,5.859,5.859,15.352,0,21.211c-2.93,2.93-6.768,4.395-10.605,4.395c-3.837,0-7.676-1.465-10.605-4.395l-21.211-21.211    c-5.859-5.859-5.859-15.352,0-21.211l42.422-42.422c5.859-5.859,15.352-5.859,21.211,0S315.626,217.229,309.767,223.089z"/>
	</g>
</g>
<g>
</g>
<g>
</g>
<g>
</g>
<g>
</g>
<g>
</g>
<g>
</g>
<g>
</g>
<g>
</g>
<g>
</g>
<g>
</g>
<g>
</g>
<g>
</g>
<g>
</g>
<g>
</g>
<g>
</g>
</svg>
