<?xml version="1.0" encoding="iso-8859-1"?>
<!-- Generator: Adobe Illustrator 19.0.0, SVG Export Plug-In . SVG Version: 6.00 Build 0)  -->
<svg xmlns="http://www.w3.org/2000/svg" xmlns:xlink="http://www.w3.org/1999/xlink" version="1.1" id="Capa_1" x="0px" y="0px" viewBox="0 0 512 512" style="enable-background:new 0 0 512 512;" xml:space="preserve">
<g>
	<g>
		<path d="M348.831,164.433c-8.335-8.54-19.424-13.213-31.509-13.433c-0.055-0.002-0.099-0.033-0.154-0.035    c-0.061,0-0.108,0.035-0.168,0.035c-24.814,0-45,20.186-45,45v255h90V196C362,183.93,357.327,172.709,348.831,164.433z"/>
	</g>
</g>
<g>
	<g>
		<path d="M512,391v-30h-60v-15c0-23.819,19.628-45,45-45h13.652c-0.478-5.806-0.571-11.75-1.558-17.333    c-0.007-0.044,0.013-0.084,0.006-0.128c-0.007-0.04-0.02-0.077-0.028-0.117c-0.011-0.057-0.005-0.119-0.016-0.176    c-0.011-0.062-0.053-0.108-0.066-0.168C496.886,211.304,445.584,153.053,377,130.95V121c0-33.091-26.909-60-60-60    s-60,26.909-60,60v10.569C177.116,158.575,122,235.458,122,323.5V361H45c-24.814,0-45,20.186-45,45c0,24.814,20.186,45,45,45    c2.439,0,192.423,0,197,0V196c0-41.353,33.647-75,75-75c0.135,0,0.247,0.073,0.381,0.077c0.183,0.002,0.311-0.084,0.498-0.077    c20.024,0.366,38.555,8.262,52.163,22.222C384.104,156.933,392,175.771,392,196v255c14.216,0,88.725,0,105,0    c8.291,0,15-6.709,15-15v-15h-30h-30v-30H512z"/>
	</g>
</g>
<g>
</g>
<g>
</g>
<g>
</g>
<g>
</g>
<g>
</g>
<g>
</g>
<g>
</g>
<g>
</g>
<g>
</g>
<g>
</g>
<g>
</g>
<g>
</g>
<g>
</g>
<g>
</g>
<g>
</g>
</svg>
