<?xml version="1.0" encoding="iso-8859-1"?>
<!-- Generator: Adobe Illustrator 19.0.0, SVG Export Plug-In . SVG Version: 6.00 Build 0)  -->
<svg xmlns="http://www.w3.org/2000/svg" xmlns:xlink="http://www.w3.org/1999/xlink" version="1.1" id="Capa_1" x="0px" y="0px" viewBox="0 0 512 512" style="enable-background:new 0 0 512 512;" xml:space="preserve">
<g>
	<g>
		<path d="M479.24,420l-23.26-186.064c-3.867-30.967-25.942-55.884-56.235-63.457l-29.059-7.262l-47.485,59.052    c-0.84,1.117-1.426,2.386-2.323,3.464L271,287.58V512h90V285c0-8.291,6.709-15,15-15c8.291,0,15,6.709,15,15v135H479.24z"/>
	</g>
</g>
<g>
	<g>
		<path d="M310.374,163.682c-1.948-15.557-10.019-29.194-22.734-38.394c-10.605-7.676-21.636-11.353-33.135-11.543    c-11.016,0.19-22.046,3.867-31.392,10.635c-13.96,10.093-22.031,23.73-23.994,39.302c-1.761,14.073,1.959,27.733,10.062,39.155    l45.573,56.675l45.344-56.391C308.386,191.528,312.156,177.815,310.374,163.682z"/>
	</g>
</g>
<g>
	<g>
		<path d="M188.471,225.542c-0.901-1.082-1.491-2.366-2.335-3.488l-46.899-58.321l-26.997,6.746    c-30.278,7.573-52.354,32.49-56.221,63.457L32.76,420H121V285c0-8.291,6.709-15,15-15s15,6.709,15,15v227h90V290.669    L188.471,225.542z"/>
	</g>
</g>
<g>
	<g>
		<path d="M383.147,93.163C362.538,49.189,303.798,0,256,0c-48.94,0-108.867,49.878-129.756,94.468    c-0.575,1.229-0.894,2.309-1.394,3.496l45.701,56.834c4.073-21.477,15.931-40.939,33.725-53.826    c15.615-11.294,32.549-16.934,50.229-17.227c18.179,0.293,35.098,5.933,49.453,16.318c18.979,13.733,30.921,33.261,34.984,54.75    l45.985-57.188C384.312,96.124,383.881,94.732,383.147,93.163z"/>
	</g>
</g>
<g>
	<g>
		<path d="M391,450v62h75c8.291,0,15-6.709,15-15v-47H391z"/>
	</g>
</g>
<g>
	<g>
		<path d="M31,450v47c0,8.291,6.709,15,15,15h75v-62H31z"/>
	</g>
</g>
<g>
</g>
<g>
</g>
<g>
</g>
<g>
</g>
<g>
</g>
<g>
</g>
<g>
</g>
<g>
</g>
<g>
</g>
<g>
</g>
<g>
</g>
<g>
</g>
<g>
</g>
<g>
</g>
<g>
</g>
</svg>
