<?xml version="1.0" encoding="iso-8859-1"?>
<!-- Generator: Adobe Illustrator 19.0.0, SVG Export Plug-In . SVG Version: 6.00 Build 0)  -->
<svg xmlns="http://www.w3.org/2000/svg" xmlns:xlink="http://www.w3.org/1999/xlink" version="1.1" id="Capa_1" x="0px" y="0px" viewBox="0 0 512 512" style="enable-background:new 0 0 512 512;" xml:space="preserve">
<g>
	<g>
		<path d="M332.011,90c5.048,67.315,42.784,120,88.989,120c22.167,0,43.573-13,60-35.098V90H332.011z"/>
	</g>
</g>
<g>
	<g>
		<path d="M466,0h-60.381C415.43,12.938,421,28.482,421,45c0,5.099-0.531,10.113-1.52,15H481V15C481,6.709,474.291,0,466,0z"/>
	</g>
</g>
<g>
	<g>
		<rect x="241" width="30" height="60"/>
	</g>
</g>
<g>
	<g>
		<path d="M46,0c-8.291,0-15,6.709-15,15v45h180V0H46z"/>
	</g>
</g>
<g>
	<g>
		<path d="M377.802,13.213C369.291,4.688,358.012,0,346,0h-45v60h87.262c1.696-4.77,2.738-9.789,2.738-15    C391,32.988,386.312,21.709,377.802,13.213z"/>
	</g>
</g>
<g>
	<g>
		<path d="M421,240c-62.485,0-113.91-66.031-119.447-150H31v407c0,8.291,6.709,15,15,15h45v-75c0-8.291,6.709-15,15-15    s15,6.709,15,15v75h45c7.646,0,14.063-5.742,14.912-13.345C196.117,361.927,231.2,240,256,240s59.883,121.927,75.088,258.655    C331.938,506.258,338.354,512,346,512h45v-75c0-8.291,6.709-15,15-15c8.291,0,15,6.709,15,15v75h45c8.291,0,15-6.709,15-15    V217.961C463.041,232.141,442.396,240,421,240z"/>
	</g>
</g>
<g>
</g>
<g>
</g>
<g>
</g>
<g>
</g>
<g>
</g>
<g>
</g>
<g>
</g>
<g>
</g>
<g>
</g>
<g>
</g>
<g>
</g>
<g>
</g>
<g>
</g>
<g>
</g>
<g>
</g>
</svg>
