<?xml version="1.0" encoding="iso-8859-1"?>
<!-- Generator: Adobe Illustrator 19.0.0, SVG Export Plug-In . SVG Version: 6.00 Build 0)  -->
<svg xmlns="http://www.w3.org/2000/svg" xmlns:xlink="http://www.w3.org/1999/xlink" version="1.1" id="Capa_1" x="0px" y="0px" viewBox="0 0 512 512" style="enable-background:new 0 0 512 512;" xml:space="preserve">
<g>
	<g>
		<path d="M467,302H347c-24.814,0-45,20.186-45,45v75h210v-75C512,322.186,491.814,302,467,302z"/>
	</g>
</g>
<g>
	<g>
		<path d="M302,452v45c0,8.291,6.709,15,15,15h180c8.291,0,15-6.709,15-15v-45H302z"/>
	</g>
</g>
<g>
	<g>
		<path d="M180,63.518V15c0-8.291-6.709-15-15-15h-60c-8.291,0-15,6.709-15,15v48.518C71.79,67.229,56.12,77.683,45.298,92h179.403    C213.88,77.683,198.21,67.229,180,63.518z"/>
	</g>
</g>
<g>
	<g>
		<path d="M135,242h135v-30H0v210h270v-30H135c-8.291,0-15-6.709-15-15V257C120,248.709,126.709,242,135,242z"/>
	</g>
</g>
<g>
	<g>
		<rect x="150" y="272" width="120" height="90"/>
	</g>
</g>
<g>
	<g>
		<path d="M225,122c-7.91,0-172.106,0-180,0c-24.726,0-45,20.166-45,45v15h270v-15C270,142.186,249.814,122,225,122z"/>
	</g>
</g>
<g>
	<g>
		<path d="M0,452v15c0,24.814,20.186,45,45,45h180c24.814,0,45-20.186,45-45v-15H0z"/>
	</g>
</g>
<g>
</g>
<g>
</g>
<g>
</g>
<g>
</g>
<g>
</g>
<g>
</g>
<g>
</g>
<g>
</g>
<g>
</g>
<g>
</g>
<g>
</g>
<g>
</g>
<g>
</g>
<g>
</g>
<g>
</g>
</svg>
