<?xml version="1.0" encoding="iso-8859-1"?>
<!-- Generator: Adobe Illustrator 19.0.0, SVG Export Plug-In . SVG Version: 6.00 Build 0)  -->
<svg xmlns="http://www.w3.org/2000/svg" xmlns:xlink="http://www.w3.org/1999/xlink" version="1.1" id="Capa_1" x="0px" y="0px" viewBox="0 0 512 512" style="enable-background:new 0 0 512 512;" xml:space="preserve">
<g>
	<g>
		<path d="M420.905,397.467H182.509c3.95-6.741,7.076-13.947,8.175-21.796c1.08-7.719,0.665-15.773-1.475-23.763l-0.002-0.004    c-7.009-26.2-30.847-44.486-57.955-44.486c-5.231,0-10.463,0.688-15.577,2.052c-15.475,4.148-28.414,14.082-36.43,27.975    c-8.016,13.877-10.141,30.04-5.993,45.53c1.779,6.655,5.021,12.507,8.83,17.918c-3.463,2.748-5.826,6.811-5.826,11.58    c0,8.294,6.712,15.006,15.006,15.006h329.643c8.294,0,15.006-6.712,15.006-15.006    C435.911,404.179,429.199,397.467,420.905,397.467z"/>
	</g>
</g>
<g>
	<g>
		<path d="M510.441,219.098c-7.254-27.11-24.633-49.75-48.945-63.789c-24.311-14.009-52.608-17.746-79.703-10.478l-35.723,9.571    l-75.252-66.135c-4.029-3.531-9.599-4.675-14.684-2.96c-5.07,1.715-8.851,5.979-9.921,11.225l-4.939,24.164    c-4.278,20.888,0.861,41.879,12.896,58.328l-51.366,13.89l-38.363-43.262c-5.495-6.257-14.991-6.785-21.175-1.274    c-6.213,5.495-6.771,14.977-1.274,21.175l28.414,32.043l-54.572,14.621l-38.365-43.264c-5.495-6.257-14.991-6.785-21.175-1.274    c-6.213,5.495-6.771,14.977-1.274,21.175l28.414,32.044l-5.539,1.484c-27.11,7.269-49.765,24.648-63.789,48.945    c-14.022,24.312-17.745,52.609-10.476,79.69c3.106,11.62,10.551,21.336,20.97,27.359c5.966,3.443,12.533,5.127,19.207,5.614    c-5.275-22.39-2.105-45.557,9.441-65.549c12.031-20.823,31.448-35.727,54.674-41.954c47.257-12.617,97.722,16.795,110.27,63.653    l86.489-23.306c-6.213-23.208-3.015-47.457,9.014-68.308c12.046-20.838,31.448-35.742,54.645-41.954    c7.635-2.037,15.489-3.077,23.329-3.077c40.674,0,76.428,27.443,86.937,66.736l0.006-0.002    c11.606-3.106,21.321-10.551,27.329-20.97C511.965,242.853,513.562,230.72,510.441,219.098z M274.643,266.739l-28.986,7.767    c-1.305,0.352-2.608,0.513-3.897,0.513c-6.624,0-12.208-4.411-13.995-11.122c-2.14-8.001,2.126-16.236,10.127-18.376l28.986-7.767    c8.06-2.096,16.236,2.608,18.376,10.609C287.392,256.363,282.644,264.599,274.643,266.739z"/>
	</g>
</g>
<g>
	<g>
		<path d="M449.624,282.001h0.002c-7.023-26.2-30.847-44.497-57.955-44.497c-20.688,0-40.776,10.628-51.978,30.026    c-8.03,13.906-10.17,30.084-6.023,45.544c11.706,43.862,70.643,61.116,103.05,24.118    C456.086,315.078,452.254,287.263,449.624,282.001z"/>
	</g>
</g>
<g>
</g>
<g>
</g>
<g>
</g>
<g>
</g>
<g>
</g>
<g>
</g>
<g>
</g>
<g>
</g>
<g>
</g>
<g>
</g>
<g>
</g>
<g>
</g>
<g>
</g>
<g>
</g>
<g>
</g>
</svg>
