<?xml version="1.0" encoding="iso-8859-1"?>
<!-- Generator: Adobe Illustrator 19.0.0, SVG Export Plug-In . SVG Version: 6.00 Build 0)  -->
<svg xmlns="http://www.w3.org/2000/svg" xmlns:xlink="http://www.w3.org/1999/xlink" version="1.1" id="Capa_1" x="0px" y="0px" viewBox="0 0 512 512" style="enable-background:new 0 0 512 512;" xml:space="preserve">
<g>
	<g>
		<path d="M204.015,336.204l-165,132.017V497c0,8.291,6.709,15,15,15h299.8c8.291,0,15-6.709,15-15v-28.779L204.015,336.204z"/>
	</g>
</g>
<g>
	<g>
		<path d="M354.016,152h-30c-8.291,0-15,6.709-15,15c0,24.814-20.186,45-45,45h-120c-24.814,0-45-20.186-45-45    c0-8.291-6.709-15-15-15h-30c-8.291,0-15,6.709-15,15v262.784L194.64,305.281c5.479-4.365,13.272-4.365,18.75,0l155.426,124.503    V167C368.816,158.709,362.307,152,354.016,152z"/>
	</g>
</g>
<g>
	<g>
		<path d="M97.985,0h-15c-8.291,0-15,6.709-15,15v107h45V15C112.985,6.709,106.276,0,97.985,0z"/>
	</g>
</g>
<g>
	<g>
		<path d="M322.985,62h-15c-8.291,0-15,6.709-15,15v56.704c7.979-7.196,18.433-11.704,30-11.704h15V77    C337.985,68.709,331.276,62,322.985,62z"/>
	</g>
</g>
<g>
	<g>
		<path d="M247.985,62h-15c-8.291,0-15,6.709-15,15v105h45V77C262.985,68.709,256.276,62,247.985,62z"/>
	</g>
</g>
<g>
	<g>
		<path d="M172.985,62h-15c-8.291,0-15,6.709-15,15v105h45V77C187.985,68.709,181.276,62,172.985,62z"/>
	</g>
</g>
<g>
	<g>
		<path d="M457.985,62h-15c-8.291,0-15,6.709-15,15v135h45V77C472.985,68.709,466.276,62,457.985,62z"/>
	</g>
</g>
<g>
	<g>
		<path d="M427.985,242v255c0,8.291,6.709,15,15,15h15c8.291,0,15-6.709,15-15V242H427.985z"/>
	</g>
</g>
<g>
</g>
<g>
</g>
<g>
</g>
<g>
</g>
<g>
</g>
<g>
</g>
<g>
</g>
<g>
</g>
<g>
</g>
<g>
</g>
<g>
</g>
<g>
</g>
<g>
</g>
<g>
</g>
<g>
</g>
</svg>
