<?xml version="1.0" encoding="iso-8859-1"?>
<!-- Generator: Adobe Illustrator 19.0.0, SVG Export Plug-In . SVG Version: 6.00 Build 0)  -->
<svg xmlns="http://www.w3.org/2000/svg" xmlns:xlink="http://www.w3.org/1999/xlink" version="1.1" id="Capa_1" x="0px" y="0px" viewBox="0 0 512 512" style="enable-background:new 0 0 512 512;" xml:space="preserve">
<g>
	<g>
		<path d="M406.442,402.893c-8.787-8.787-23.033-8.787-31.82,0l-53.033,53.033c-8.787,8.787-8.787,23.033,0,31.82    c8.787,8.787,23.033,8.787,31.82,0l53.033-53.033C415.229,425.926,415.229,411.68,406.442,402.893z"/>
	</g>
</g>
<g>
	<g>
		<path d="M353.409,349.86c-8.787-8.787-23.033-8.787-31.82,0l-74.246,74.246c-8.787,8.787-8.787,23.033,0,31.82    c8.787,8.787,23.033,8.787,31.82,0l74.246-74.246C362.196,372.893,362.196,358.647,353.409,349.86z"/>
	</g>
</g>
<g>
	<g>
		<path d="M167.793,291.523l-26.517,26.517c-8.786,8.786-8.786,23.034,0,31.82s23.034,8.786,31.82,0l26.517-26.516L167.793,291.523z    "/>
	</g>
</g>
<g>
	<g>
		<path d="M236.736,360.466l-15.91-15.91l-47.73,47.73c-8.786,8.786-8.786,23.034,0,31.82s23.034,8.786,31.82,0l51.453-51.453    C249.211,370.129,242.451,366.181,236.736,360.466z"/>
	</g>
</g>
<g>
	<g>
		<path d="M504.587,250.516L378.423,123.319c-16.314-8.96-36.522-8.991-53.178,0.849L213.4,198.952    c-28.866,22.386-31.174,64.576-5.78,89.97l2.6,2.6l47.73,47.73c8.786,8.786,23.034,8.786,31.82,0s8.786-23.034,0-31.82    l-37.123-37.123c-5.858-5.858-5.858-15.355,0-21.213c5.858-5.858,15.355-5.858,21.213,0l21.213,21.213    c17.547,17.546,46.094,17.546,63.64,0c5.862-5.863,15.35-5.862,21.213,0c5.863,5.862,5.863,15.35,0,21.213    c-11.509,11.509-25.118,19.069-39.72,21.835c11.401,0.403,22.41,4.653,31.749,12.796c12.193,10.632,18.131,25.462,17.959,40.234    c13.651-0.159,27.35,4.899,37.742,15.291c5.715,5.715,9.663,12.475,12.186,19.634l28.655-28.655    c13.833-13.833,23.371-40.514,37.509-68.808C514.614,286.624,513.785,266.654,504.587,250.516z"/>
	</g>
</g>
<g>
	<g>
		<path d="M30.489,48.154C0.922,77.721-6.983,120.45,6.089,157.407L139.743,23.753C102.786,10.681,60.056,18.587,30.489,48.154z"/>
	</g>
</g>
<g>
	<g>
		<path d="M200.195,26.941c-5.858-5.858-15.355-5.858-21.213,0L9.276,196.646c-5.858,5.858-5.858,15.355,0,21.213    c5.858,5.858,15.355,5.858,21.213,0L200.195,48.154C206.053,42.296,206.053,32.799,200.195,26.941z"/>
	</g>
</g>
<g>
	<g>
		<path d="M203.513,157.538c7.929-22.645,7.89-47.471-0.129-70.144L69.728,221.047c22.674,8.02,47.499,8.059,70.144,0.129    l20.395,20.395c0.015-0.255-0.05-0.503-0.033-0.758c1.626-25.781,14.294-49.677,34.782-65.566l15.698-10.508L203.513,157.538z"/>
	</g>
</g>
<g>
</g>
<g>
</g>
<g>
</g>
<g>
</g>
<g>
</g>
<g>
</g>
<g>
</g>
<g>
</g>
<g>
</g>
<g>
</g>
<g>
</g>
<g>
</g>
<g>
</g>
<g>
</g>
<g>
</g>
</svg>
