<?xml version="1.0" encoding="iso-8859-1"?>
<!-- Generator: Adobe Illustrator 19.0.0, SVG Export Plug-In . SVG Version: 6.00 Build 0)  -->
<svg xmlns="http://www.w3.org/2000/svg" xmlns:xlink="http://www.w3.org/1999/xlink" version="1.1" id="Capa_1" x="0px" y="0px" viewBox="0 0 512 512" style="enable-background:new 0 0 512 512;" xml:space="preserve">
<g>
	<g>
		<polygon points="144.194,76 115.805,76 145.805,166 174.194,166   "/>
	</g>
</g>
<g>
	<g>
		<path d="M497,76h-15V61c0-8.291-6.709-15-15-15c-8.291,0-15,6.709-15,15v15H175.805l30,90H512V91C512,82.709,505.291,76,497,76z"/>
	</g>
</g>
<g>
	<g>
		<path d="M360,196v45v15h107c8.291,0,15-6.709,15-15v-45H360z"/>
	</g>
</g>
<g>
	<g>
		<path d="M0,196v24.302c0,14.81,4.336,29.033,12.524,41.147c9.712,14.385,13.447,31.714,10.488,48.809L5.039,414.628    c-1.846,12.935,2.007,26.001,10.562,35.859C24.156,460.345,36.533,466,49.585,466h59.399c22.251,0,41.396-16.611,44.546-38.628    L165.156,346H225c24.814,0,45-20.186,45-45c0-24.814,20.186-45,45-45h15v-15v-45H0z M180,316c-16.538,0-30-13.462-30-30    c0-16.538,13.462-30,30-30h0.996c-4.133,13.237-4.876,27.424-1.245,41.089c1.802,6.784,4.834,13.008,8.375,18.911H180z M240,301    c0,7.134-5.098,12.834-11.776,14.348c-9.489-5.916-16.589-15.053-19.484-25.964c-3.01-11.336-1.183-23.3,4.653-33.384H240V301z"/>
	</g>
</g>
<g>
	<g>
		<path d="M84.194,76H75c-5.01,0-9.697,2.505-12.48,6.68L6.973,166h107.221L84.194,76z"/>
	</g>
</g>
<g>
</g>
<g>
</g>
<g>
</g>
<g>
</g>
<g>
</g>
<g>
</g>
<g>
</g>
<g>
</g>
<g>
</g>
<g>
</g>
<g>
</g>
<g>
</g>
<g>
</g>
<g>
</g>
<g>
</g>
</svg>
