<?xml version="1.0" encoding="iso-8859-1"?>
<!-- Generator: Adobe Illustrator 19.0.0, SVG Export Plug-In . SVG Version: 6.00 Build 0)  -->
<svg xmlns="http://www.w3.org/2000/svg" xmlns:xlink="http://www.w3.org/1999/xlink" version="1.1" id="Capa_1" x="0px" y="0px" viewBox="0 0 512 512" style="enable-background:new 0 0 512 512;" xml:space="preserve">
<g>
	<g>
		<path d="M68.395,444.348c-0.12-0.128-0.227-0.264-0.353-0.39c-0.125-0.125-0.262-0.233-0.39-0.353l-29.509-29.514    c-2.844,5.966-4.495,12.464-4.495,19.261c0,6.835,1.513,13.431,4.376,19.413l-33.629,33.63c-5.859,5.859-5.859,15.352,0,21.211    C7.324,510.535,11.162,512,15,512s7.676-1.465,10.605-4.395l33.629-33.629c5.982,2.862,12.579,4.376,19.413,4.376    c6.795,0,13.292-1.65,19.255-4.492L68.395,444.348z"/>
	</g>
</g>
<g>
	<g>
		<path d="M497.85,213.868L298.118,14.136c-5.625-5.64-13.154-8.745-21.167-8.745c-8.042,0-15.586,3.105-21.24,8.76    c-11.704,11.704-11.704,30.732,0,42.437L455.413,256.29c5.654,5.654,13.184,8.76,21.211,8.76c8.042,0,15.586-3.12,21.226-8.745    C509.539,244.586,509.539,225.558,497.85,213.868z"/>
	</g>
</g>
<g>
	<g>
		<path d="M377,0c-14.604,0-29.11,2.73-43.114,7.482l170.64,170.64C509.266,164.143,512,149.625,512,135C512,60.557,451.443,0,377,0    z"/>
	</g>
</g>
<g>
	<g>
		<path d="M249.172,92.47C244.624,106.11,242,120.41,242,135c0,11.851,1.597,23.672,4.717,35.112    c12.48,46.23,48.94,82.69,95.127,95.156C353.328,268.403,365.149,270,377,270c14.604,0,28.916-2.628,42.537-7.165L249.172,92.47z"/>
	</g>
</g>
<g>
	<g>
		<path d="M220.425,185.718L67.939,337.947c-17.505,17.505-17.505,45.996,0,63.516l42.598,42.612    c8.76,8.745,20.259,13.11,31.758,13.11c11.514,0,23.013-4.38,31.772-13.14l152.207-152.463    C276.211,275.347,236.716,235.854,220.425,185.718z M217.684,315.527l-21.211,21.211c-2.93,2.93-6.768,4.395-10.605,4.395    c-3.837,0-7.676-1.465-10.605-4.395c-5.859-5.859-5.859-15.352,0-21.211l21.211-21.211c5.859-5.859,15.352-5.859,21.211,0    C223.544,300.175,223.543,309.668,217.684,315.527z"/>
	</g>
</g>
<g>
</g>
<g>
</g>
<g>
</g>
<g>
</g>
<g>
</g>
<g>
</g>
<g>
</g>
<g>
</g>
<g>
</g>
<g>
</g>
<g>
</g>
<g>
</g>
<g>
</g>
<g>
</g>
<g>
</g>
</svg>
