<?xml version="1.0" encoding="iso-8859-1"?>
<!-- Generator: Adobe Illustrator 19.0.0, SVG Export Plug-In . SVG Version: 6.00 Build 0)  -->
<svg xmlns="http://www.w3.org/2000/svg" xmlns:xlink="http://www.w3.org/1999/xlink" version="1.1" id="Capa_1" x="0px" y="0px" viewBox="0 0 512 512" style="enable-background:new 0 0 512 512;" xml:space="preserve">
<g>
	<g>
		<path d="M506.624,320.501c-2.109-1.772-49.183-38.979-109.227-46.992c41.118-49.131,47.153-112.192,47.402-115.049    c0.396-4.424-1.201-8.789-4.336-11.924c-3.135-3.135-7.515-4.79-11.938-4.336c-2.549,0.236-53.307,5.464-99.194,36.033    c-6.547-94.231-59.886-169.29-62.305-172.52c-5.654-7.617-18.398-7.617-24.053,0c-2.419,3.23-55.757,78.289-62.305,172.521    c-45.886-30.569-96.645-35.797-99.194-36.033c-4.336-0.454-8.789,1.201-11.938,4.336c-3.135,3.135-4.731,7.5-4.336,11.924    c0.249,2.856,6.284,65.918,47.402,115.049C52.558,281.523,7.485,318.73,5.375,320.502C1.963,323.357,0,327.562,0,332    s1.963,8.643,5.376,11.499c2.314,1.948,56.865,46.963,126.108,48.457c-11.455,24.609-14.766,45.234-14.941,46.377    c-0.732,4.717,0.82,9.478,4.175,12.861c3.34,3.369,8.057,4.922,12.817,4.277c31.608-4.627,72.805-19.805,106.465-43.336V497    c0,8.291,6.709,15,15,15s15-6.709,15-15v-84.836c33.649,23.525,74.843,38.696,106.465,43.308c0.718,0.103,1.45,0.161,2.168,0.161    c3.97,0,7.808-1.582,10.649-4.438c3.354-3.384,4.907-8.145,4.175-12.861c-0.176-1.143-3.486-21.768-14.941-46.377    c69.243-1.494,125.794-46.509,128.108-48.457c3.413-2.857,5.376-7.062,5.376-11.5S510.037,323.357,506.624,320.501z"/>
	</g>
</g>
<g>
</g>
<g>
</g>
<g>
</g>
<g>
</g>
<g>
</g>
<g>
</g>
<g>
</g>
<g>
</g>
<g>
</g>
<g>
</g>
<g>
</g>
<g>
</g>
<g>
</g>
<g>
</g>
<g>
</g>
</svg>
