<?xml version="1.0" encoding="iso-8859-1"?>
<!-- Generator: Adobe Illustrator 19.0.0, SVG Export Plug-In . SVG Version: 6.00 Build 0)  -->
<svg version="1.1" id="Layer_1" xmlns="http://www.w3.org/2000/svg" xmlns:xlink="http://www.w3.org/1999/xlink" x="0px" y="0px"
	 viewBox="0 0 512 512" style="enable-background:new 0 0 512 512;" xml:space="preserve">
<g>
	<g>
		<path d="M306.361,366.793l-141.01-133.456c-3.357-3.357-8.393-3.357-11.751,0l-6.715,6.715
			c-16.787-14.269-26.02-32.734-28.538-56.236c16.787,23.502,44.485,38.61,74.702,38.61c5.036,0,8.393-3.357,8.393-8.393
			s-3.357-8.393-8.393-8.393c-36.092,0-66.308-25.18-73.862-58.754c14.269,15.948,34.413,26.02,57.075,26.02
			c5.036,0,8.393-3.357,8.393-8.393s-3.357-8.393-8.393-8.393c-29.377,0-54.557-21.823-57.915-50.361
			c10.911,10.911,25.18,16.787,41.128,16.787c5.036,0,8.393-3.357,8.393-8.393s-3.357-8.393-8.393-8.393
			c-23.502,0-41.967-18.466-41.967-41.967c6.715,5.036,15.948,8.393,25.18,8.393c5.036,0,8.393-3.357,8.393-8.393
			s-3.357-8.393-8.393-8.393c-14.269,0-25.18-10.911-25.18-25.18c0-5.036-3.357-8.393-8.393-8.393c-5.036,0-8.393,3.357-8.393,8.393
			c0,14.269-10.911,25.18-25.18,25.18c-5.036,0-8.393,3.357-8.393,8.393s3.357,8.393,8.393,8.393c9.233,0,18.466-3.357,25.18-8.393
			c0,23.502-18.466,41.967-41.967,41.967c-5.036,0-8.393,3.357-8.393,8.393s3.357,8.393,8.393,8.393
			c15.948,0,31.056-6.715,41.128-16.787c-4.197,28.538-28.538,50.361-57.915,50.361c-5.036,0-8.393,3.357-8.393,8.393
			s3.357,8.393,8.393,8.393c22.662,0,42.807-10.072,57.075-26.02c-7.554,33.574-37.771,58.754-73.862,58.754
			c-5.036,0-8.393,3.357-8.393,8.393s3.357,8.393,8.393,8.393c31.056,0,57.915-15.108,74.702-38.61
			c-5.875,45.325-44.485,80.577-91.489,80.577c-5.036,0-8.393,3.357-8.393,8.393s3.357,8.393,8.393,8.393
			c38.61,0,73.023-20.144,92.328-51.2v52.879L12.59,365.954c-4.197,4.197-5.036,10.072-3.357,15.948
			c1.679,5.875,7.554,8.393,12.59,8.393h22.662c5.036,0,10.911-1.679,15.108-5.036l7.554-6.715V499.41
			c0,5.036,3.357,8.393,8.393,8.393h50.361v-83.934c0-5.036,3.357-8.393,8.393-8.393h50.361c5.036,0,8.393,3.357,8.393,8.393v83.934
			h50.361c5.036,0,8.393-3.357,8.393-8.393V378.544l7.554,5.875c4.197,3.357,9.233,5.036,15.108,5.036h22.662
			c5.036,0.839,10.072-2.518,12.59-7.554C312.236,376.866,310.557,370.99,306.361,366.793z M117.508,232.498
			c5.036,6.715,10.072,13.43,16.787,19.305l-16.787,15.948V232.498z M113.311,339.934l46.164-39.449l46.164,39.449H113.311z
			 M273.626,373.508c-1.679,0-2.518-0.839-4.197-1.679l-20.984-17.626l-14.269-12.59l-69.666-58.754
			c-0.839-0.839-3.357-1.679-5.036-1.679s-4.197,0.839-5.036,1.679l-71.344,60.433l-12.59,10.911l-20.984,17.626
			c-1.679,0.839-3.357,1.679-4.197,1.679H29.377l130.098-122.544l130.098,122.544H273.626z"/>
	</g>
</g>
<g>
	<g>
		<rect x="142.689" y="432.262" width="33.574" height="75.541"/>
	</g>
</g>
<g>
	<g>
		<path d="M293.771,130.098c-20.144,0-35.253,6.715-42.807,20.144c-7.554-7.554-17.626-11.751-32.734-11.751
			c-5.036,0-8.393,3.357-8.393,8.393s3.357,8.393,8.393,8.393c18.466,0,25.18,6.715,25.18,25.18c0,5.036,3.357,8.393,8.393,8.393
			c5.036,0,8.393-3.357,8.393-8.393c0-23.502,10.072-33.574,33.574-33.574c5.036,0,8.393-3.357,8.393-8.393
			S298.807,130.098,293.771,130.098z"/>
	</g>
</g>
<g>
	<g>
		<path d="M419.672,46.164c-27.698,0-50.361,22.662-50.361,50.361s22.662,50.361,50.361,50.361s50.361-22.662,50.361-50.361
			S447.37,46.164,419.672,46.164z"/>
	</g>
</g>
<g>
	<g>
		<path d="M419.672,4.197c-5.036,0-8.393,3.357-8.393,8.393v16.787c0,5.036,3.357,8.393,8.393,8.393s8.393-3.357,8.393-8.393V12.59
			C428.066,7.554,424.708,4.197,419.672,4.197z"/>
	</g>
</g>
<g>
	<g>
		<path d="M503.607,88.131H486.82c-5.036,0-8.393,3.357-8.393,8.393s3.357,8.393,8.393,8.393h16.787
			c5.036,0,8.393-3.357,8.393-8.393S508.643,88.131,503.607,88.131z"/>
	</g>
</g>
<g>
	<g>
		<path d="M352.525,88.131h-16.787c-5.036,0-8.393,3.357-8.393,8.393s3.357,8.393,8.393,8.393h16.787
			c5.036,0,8.393-3.357,8.393-8.393S357.561,88.131,352.525,88.131z"/>
	</g>
</g>
<g>
	<g>
		<path d="M485.141,31.056c-3.357-3.357-8.393-3.357-11.751,0l-11.751,11.751c-3.357,3.357-3.357,8.393,0,11.751
			c0.839,1.679,3.357,2.518,5.875,2.518c2.518,0,4.197-0.839,5.875-2.518l11.751-11.751
			C488.498,39.449,488.498,34.413,485.141,31.056z"/>
	</g>
</g>
<g>
	<g>
		<path d="M377.705,137.652c-2.518-2.518-8.393-2.518-11.751,0l-11.751,11.751c-3.357,3.357-3.357,8.393,0,11.751
			c1.679,1.679,4.197,2.518,5.875,2.518s4.197-0.839,5.875-2.518l11.751-11.751C381.062,146.046,381.062,141.01,377.705,137.652z"/>
	</g>
</g>
<g>
	<g>
		<path d="M485.141,149.403l-11.751-11.751c-3.357-3.357-8.393-3.357-11.751,0c-3.357,3.357-3.357,8.393,0,11.751l11.751,11.751
			c1.679,1.679,4.197,2.518,5.875,2.518c1.679,0,4.197-0.839,5.875-2.518C488.498,157.797,488.498,152.761,485.141,149.403z"/>
	</g>
</g>
<g>
	<g>
		<path d="M377.705,43.646l-11.751-11.751c-3.357-3.357-8.393-3.357-11.751,0s-3.357,8.393,0,11.751l11.751,11.751
			c1.679,1.679,4.197,2.518,5.875,2.518c1.679,0,4.197-0.839,5.875-2.518C381.062,52.039,381.062,47.003,377.705,43.646z"/>
	</g>
</g>
<g>
	<g>
		<path d="M503.607,457.443c5.036,0,8.393-3.357,8.393-8.393c0-5.036-3.357-8.393-8.393-8.393h-41.967
			c0-5.036-3.357-8.393-8.393-8.393c-5.036,0-8.393,3.357-8.393,8.393h-33.574v-67.987c19.305,31.056,53.718,51.2,92.328,51.2
			c5.036,0,8.393-3.357,8.393-8.393s-3.357-8.393-8.393-8.393c-47.003,0-85.613-35.253-91.489-80.577
			c16.787,23.502,43.646,38.61,74.702,38.61c5.036,0,8.393-3.357,8.393-8.393c0-5.036-3.357-8.393-8.393-8.393
			c-36.092,0-66.308-25.18-73.862-58.754c14.269,15.948,34.413,26.02,57.075,26.02c5.036,0,8.393-3.357,8.393-8.393
			c0-5.036-3.357-8.393-8.393-8.393c-29.377,0-54.557-21.823-57.915-50.361c10.911,10.911,25.18,16.787,41.128,16.787
			c5.036,0,8.393-3.357,8.393-8.393c0-5.036-3.357-8.393-8.393-8.393c-23.502,0-41.967-18.466-41.967-41.967
			c6.715,5.036,15.948,8.393,25.18,8.393c5.036,0,8.393-3.357,8.393-8.393s-3.357-8.393-8.393-8.393
			c-14.269,0-25.18-10.911-25.18-25.18c0-5.036-3.357-8.393-8.393-8.393c-5.036,0-8.393,3.357-8.393,8.393
			c0,14.269-10.911,25.18-25.18,25.18c-5.036,0-8.393,3.357-8.393,8.393s3.357,8.393,8.393,8.393c9.233,0,18.466-3.357,25.18-8.393
			c0,23.502-18.466,41.967-41.967,41.967c-5.036,0-8.393,3.357-8.393,8.393c0,5.036,3.357,8.393,8.393,8.393
			c15.948,0,31.056-6.715,41.128-16.787c-4.197,28.538-28.538,50.361-57.915,50.361c-5.036,0-8.393,3.357-8.393,8.393
			c0,5.036,3.357,8.393,8.393,8.393c22.662,0,42.807-10.072,57.075-26.02c-7.554,33.574-37.771,58.754-73.862,58.754
			c-5.036,0-8.393,3.357-8.393,8.393c0,5.036,3.357,8.393,8.393,8.393c31.056,0,57.915-15.108,74.702-38.61
			c-5.875,45.325-44.485,80.577-91.489,80.577c-5.036,0-8.393,3.357-8.393,8.393s3.357,8.393,8.393,8.393
			c38.61,0,73.023-20.144,92.328-51.2v67.987h-33.574c0-5.036-3.357-8.393-8.393-8.393c-5.036,0-8.393,3.357-8.393,8.393h-41.967
			c-5.036,0-8.393,3.357-8.393,8.393c0,5.036,3.357,8.393,8.393,8.393h41.967v16.787h-41.967c-5.036,0-8.393,3.357-8.393,8.393
			s3.357,8.393,8.393,8.393h41.967v8.393c0,5.036,3.357,8.393,8.393,8.393c5.036,0,8.393-3.357,8.393-8.393v-8.393h33.574v8.393
			c0,5.036,3.357,8.393,8.393,8.393c5.036,0,8.393-3.357,8.393-8.393v-8.393h33.574v8.393c0,5.036,3.357,8.393,8.393,8.393
			c5.036,0,8.393-3.357,8.393-8.393v-8.393h41.967c5.036,0,8.393-3.357,8.393-8.393s-3.357-8.393-8.393-8.393h-41.967v-16.787
			H503.607z M394.492,474.229h-33.574v-16.787h33.574V474.229z M444.852,474.229h-33.574v-16.787h33.574V474.229z"/>
	</g>
</g>
<g>
</g>
<g>
</g>
<g>
</g>
<g>
</g>
<g>
</g>
<g>
</g>
<g>
</g>
<g>
</g>
<g>
</g>
<g>
</g>
<g>
</g>
<g>
</g>
<g>
</g>
<g>
</g>
<g>
</g>
</svg>
