<?xml version="1.0" encoding="iso-8859-1"?>
<!-- Generator: Adobe Illustrator 19.0.0, SVG Export Plug-In . SVG Version: 6.00 Build 0)  -->
<svg version="1.1" id="Layer_1" xmlns="http://www.w3.org/2000/svg" xmlns:xlink="http://www.w3.org/1999/xlink" x="0px" y="0px"
	 viewBox="0 0 512.002 512.002" style="enable-background:new 0 0 512.002 512.002;" xml:space="preserve">
<g>
	<g>
		<g>
			<path d="M3.797,399.632c3.917,2.611,9.224,1.553,11.836-2.364l34.944-52.42l12.655-4.224c30.763-10.249,64.64-10.249,95.403,0
				l12.646,4.224l34.953,52.42c0.589,0.879,1.34,1.562,2.15,2.142c0.171,0.128,0.333,0.247,0.521,0.358
				c0.819,0.503,1.698,0.879,2.628,1.084c0.145,0.026,0.282,0.026,0.435,0.051c0.452,0.077,0.905,0.162,1.374,0.162
				c0.35,0,0.7-0.111,1.05-0.154c0.29-0.034,0.555-0.051,0.836-0.119c0.981-0.222,1.954-0.563,2.842-1.161
				c3.917-2.611,4.975-7.91,2.364-11.827l-36.574-54.861l-9.19-13.79l-7.424-11.136l16.41-45.952l34.611-19.78l13.03,26.069
				c1.451,2.893,4.42,4.71,7.637,4.71c0.145,0,0.299,0,0.444-0.009c3.396-0.179,6.357-2.347,7.543-5.53l17.613-46.959l17.604,46.959
				c1.195,3.183,4.156,5.35,7.543,5.53c3.567,0.179,6.562-1.672,8.081-4.702l13.03-26.069l34.611,19.772l9.873,27.648
				c0.009,0.009,0,0.009,0.009,0.017l37.743,105.685c1.246,3.482,4.531,5.666,8.038,5.666c0.956,0,1.92-0.162,2.867-0.503
				c4.437-1.587,6.75-6.468,5.171-10.906l-35.507-99.413l9.318-6.204l114.517,114.517c3.337,3.337,8.73,3.337,12.066,0
				c3.337-3.328,3.337-8.73,0-12.066L390.033,267.032c-2.867-2.867-7.364-3.32-10.769-1.067l-11.58,7.723l-7.262-20.335v-0.009
				l-36.651-102.613c-1.212-3.396-4.429-5.666-8.038-5.666h-102.4c-3.61,0-6.827,2.27-8.038,5.666l-49.852,139.58l-37.41-56.107
				c-3.166-4.753-11.034-4.753-14.199,0l-65.826,98.739h-0.008L1.434,387.804C-1.178,391.721-0.119,397.02,3.797,399.632z"/>
			<path d="M128,418.134c-5.76,0-11.085,1.911-15.36,5.137c-4.83-6.426-11.861-11.093-19.968-12.877
				c-3.285-10.342-12.988-17.86-24.405-17.86c-11.127,0-20.617,7.134-24.141,17.067h-9.992C15.309,409.601,0,424.91,0,443.734
				c0,4.71,3.823,8.533,8.533,8.533s8.533-3.823,8.533-8.533c0-9.412,7.654-17.067,17.067-17.067H51.2
				c4.71,0,8.533-3.823,8.533-8.533c0-4.702,3.831-8.533,8.533-8.533s8.533,3.831,8.533,8.533c0,4.71,3.823,8.533,8.533,8.533
				c9.412,0,17.067,7.654,17.067,17.067c0,4.71,3.823,8.533,8.533,8.533s8.533-3.823,8.533-8.533c0-4.702,3.831-8.533,8.533-8.533
				s8.533,3.831,8.533,8.533c0,4.71,3.823,8.533,8.533,8.533c4.71,0,8.533-3.823,8.533-8.533
				C153.6,429.62,142.114,418.134,128,418.134z"/>
			<path d="M349.867,435.201c4.71,0,8.533-3.823,8.533-8.533c0-14.114-11.486-25.6-25.6-25.6c-5.76,0-11.085,1.911-15.36,5.137
				c-4.83-6.426-11.861-11.093-19.968-12.877c-3.285-10.342-12.988-17.86-24.405-17.86c-11.529,0-21.291,7.654-24.491,18.142
				c-10.513,3.191-18.176,12.971-18.176,24.508c0,14.123,11.486,25.617,25.6,25.617c4.71,0,8.533-3.823,8.533-8.533
				s-3.823-8.533-8.533-8.533c-4.702,0-8.533-3.84-8.533-8.55c0-4.565,3.601-8.303,8.107-8.525c4.779,0.068,8.96-3.678,8.96-8.525
				c0-4.702,3.831-8.533,8.533-8.533c4.702,0,8.533,3.831,8.533,8.533c0,4.71,3.823,8.533,8.533,8.533
				c9.412,0,17.067,7.654,17.067,17.067c0,4.71,3.823,8.533,8.533,8.533s8.533-3.823,8.533-8.533c0-4.702,3.831-8.533,8.533-8.533
				c4.702,0,8.533,3.831,8.533,8.533C341.333,431.378,345.156,435.201,349.867,435.201z"/>
			<path d="M256,460.801c-5.76,0-11.085,1.911-15.36,5.137c-4.83-6.426-11.861-11.093-19.968-12.877
				c-3.285-10.342-12.988-17.86-24.405-17.86c-11.529,0-21.291,7.654-24.491,18.142c-10.513,3.191-18.176,12.971-18.176,24.508
				c0,14.123,11.486,25.617,25.6,25.617c4.71,0,8.533-3.823,8.533-8.533s-3.823-8.533-8.533-8.533c-4.702,0-8.533-3.84-8.533-8.55
				c0-4.565,3.601-8.303,8.107-8.525c4.77,0.162,8.96-3.669,8.96-8.525c0-4.702,3.831-8.533,8.533-8.533
				c4.702,0,8.533,3.831,8.533,8.533c0,4.71,3.823,8.533,8.533,8.533c9.412,0,17.067,7.654,17.067,17.067
				c0,4.71,3.823,8.533,8.533,8.533s8.533-3.823,8.533-8.533c0-4.702,3.831-8.533,8.533-8.533c4.702,0,8.533,3.831,8.533,8.533
				c0,4.71,3.823,8.533,8.533,8.533c4.71,0,8.533-3.823,8.533-8.533C281.6,472.287,270.114,460.801,256,460.801z"/>
			<path d="M443.733,460.801c-5.76,0-11.085,1.911-15.36,5.137c-4.83-6.426-11.861-11.093-19.968-12.877
				c-3.285-10.342-12.988-17.86-24.405-17.86c-11.529,0-21.291,7.654-24.491,18.142c-10.513,3.191-18.176,12.971-18.176,24.508
				c0,14.123,11.486,25.617,25.6,25.617c4.71,0,8.533-3.823,8.533-8.533s-3.823-8.533-8.533-8.533c-4.702,0-8.533-3.84-8.533-8.55
				c0-4.565,3.601-8.303,8.107-8.525c4.779,0.162,8.96-3.669,8.96-8.525c0-4.702,3.831-8.533,8.533-8.533
				c4.702,0,8.533,3.831,8.533,8.533c0,4.71,3.823,8.533,8.533,8.533c9.412,0,17.067,7.654,17.067,17.067
				c0,4.71,3.823,8.533,8.533,8.533s8.533-3.823,8.533-8.533c0-4.702,3.831-8.533,8.533-8.533c4.702,0,8.533,3.831,8.533,8.533
				c0,4.71,3.823,8.533,8.533,8.533s8.533-3.823,8.533-8.533C469.333,472.287,457.847,460.801,443.733,460.801z"/>
			<path d="M486.4,426.668c-5.76,0-11.085,1.911-15.36,5.137c-4.83-6.426-11.861-11.093-19.968-12.877
				c-3.285-10.342-12.988-17.86-24.405-17.86c-14.114,0-25.591,11.477-25.6,25.591v0.009c0,4.71,3.823,8.533,8.533,8.533
				s8.533-3.823,8.533-8.533c0-4.702,3.831-8.533,8.533-8.533s8.533,3.831,8.533,8.533c0,4.71,3.823,8.533,8.533,8.533
				c9.412,0,17.067,7.654,17.067,17.067c0,4.71,3.823,8.533,8.533,8.533s8.533-3.823,8.533-8.533c0-4.702,3.831-8.533,8.533-8.533
				s8.533,3.831,8.533,8.533c0,4.71,3.823,8.533,8.533,8.533s8.533-3.823,8.533-8.533C512,438.154,500.514,426.668,486.4,426.668z"
				/>
			<path d="M128,179.201c9.591,0,19.166-1.664,28.442-4.949c3.413-1.212,5.692-4.429,5.692-8.047c0-3.61-2.278-6.835-5.683-8.047
				c-27.221-9.634-45.517-35.473-45.517-64.29c0-28.817,18.295-54.656,45.517-64.29c3.405-1.212,5.683-4.437,5.683-8.047
				c0-3.618-2.278-6.835-5.692-8.047c-9.276-3.285-18.85-4.949-28.442-4.949c-47.053,0-85.333,38.281-85.333,85.333
				C42.667,140.921,80.947,179.201,128,179.201z"/>
			<path d="M187.733,68.268c14.114,0,25.6,11.486,25.6,25.6c0,4.71,3.823,8.533,8.533,8.533c4.71,0,8.533-3.823,8.533-8.533
				c0-14.114,11.486-25.6,25.6-25.6c4.71,0,8.533-3.823,8.533-8.533s-3.823-8.533-8.533-8.533c-14.114,0-25.6-11.486-25.6-25.6
				c0-4.71-3.823-8.533-8.533-8.533c-4.71,0-8.533,3.823-8.533,8.533c0,14.114-11.486,25.6-25.6,25.6
				c-4.71,0-8.533,3.823-8.533,8.533S183.023,68.268,187.733,68.268z"/>
			<path d="M25.6,213.334h8.533v8.533c0,4.71,3.823,8.533,8.533,8.533c4.71,0,8.533-3.823,8.533-8.533v-8.533h8.533
				c4.71,0,8.533-3.823,8.533-8.533s-3.823-8.533-8.533-8.533H51.2v-8.533c0-4.71-3.823-8.533-8.533-8.533
				c-4.71,0-8.533,3.823-8.533,8.533v8.533H25.6c-4.71,0-8.533,3.823-8.533,8.533S20.89,213.334,25.6,213.334z"/>
			<circle cx="25.6" cy="17.068" r="8.533"/>
			<circle cx="162.133" cy="196.268" r="8.533"/>
		</g>
	</g>
</g>
<g>
</g>
<g>
</g>
<g>
</g>
<g>
</g>
<g>
</g>
<g>
</g>
<g>
</g>
<g>
</g>
<g>
</g>
<g>
</g>
<g>
</g>
<g>
</g>
<g>
</g>
<g>
</g>
<g>
</g>
</svg>
