<?xml version="1.0" encoding="iso-8859-1"?>
<!-- Generator: Adobe Illustrator 19.0.0, SVG Export Plug-In . SVG Version: 6.00 Build 0)  -->
<svg version="1.1" id="Layer_1" xmlns="http://www.w3.org/2000/svg" xmlns:xlink="http://www.w3.org/1999/xlink" x="0px" y="0px"
	 viewBox="0 0 512.003 512.003" style="enable-background:new 0 0 512.003 512.003;" xml:space="preserve">
<g>
	<g>
		<path d="M503.467,460.802H358.4c-4.702,0-8.533-3.831-8.533-8.533c0-32.939-26.795-59.733-59.733-59.733h-179.2
			c-18.816,0-34.133-15.317-34.133-34.133c0-40.38,31.352-73.515,70.98-76.51L103.45,362.83c-1.451,2.645-1.391,5.862,0.145,8.448
			c1.536,2.594,4.326,4.19,7.339,4.19h332.8v51.2c0,4.71,3.823,8.533,8.533,8.533c4.719,0,8.533-3.823,8.533-8.533v-51.2h42.667
			c3.012,0,5.803-1.596,7.347-4.19c1.536-2.586,1.587-5.803,0.137-8.448l-16.614-30.344C505.242,321.657,512,306.673,512,290.135
			c0-32.939-26.795-59.733-59.733-59.733c-4.48,0-8.832,0.529-13.03,1.468l-23.902-43.639L314.684,4.43
			c-2.987-5.47-11.972-5.47-14.967,0l-24.61,44.945c-9.472-9.6-22.417-15.241-36.173-15.241c-6.554,0-12.919,1.212-18.867,3.576
			c-5.931-21.709-25.83-37.709-49.399-37.709c-19.567,0-36.881,11.008-45.483,27.622c-8.764-6.818-19.627-10.556-31.317-10.556
			c-28.228,0-51.2,22.963-51.2,51.2c0,5.905,1.05,11.631,2.97,17.067H8.533C3.823,85.335,0,89.149,0,93.868
			c0,4.71,3.823,8.533,8.533,8.533h50.91c0.119,0,0.23,0.077,0.358,0.077c0.179,0,0.35-0.068,0.521-0.077h50.611
			c4.719,0,8.533-3.823,8.533-8.533c0-4.719-3.814-8.533-8.533-8.533H64.393c-3.004-5.18-4.659-10.982-4.659-17.067
			c0-18.825,15.317-34.133,34.133-34.133c11.315,0,21.453,5.222,27.81,14.345c1.971,2.825,5.453,4.19,8.823,3.456
			c3.371-0.734,5.965-3.43,6.579-6.827c2.918-16.247,17.05-28.041,33.587-28.041c18.825,0,34.133,15.309,34.133,34.133
			c0,3.226,1.835,6.187,4.727,7.629c2.884,1.451,6.357,1.135,8.934-0.811c5.939-4.463,13.022-6.818,20.471-6.818
			c10.889,0,21.043,5.316,27.435,14.131l-5.948,10.854l-5.001,9.148H204.8c-4.71,0-8.533,3.814-8.533,8.533
			c0,4.71,3.823,8.533,8.533,8.533h41.267l-70.093,128H153.6c-32.794,0-62.66,12.501-85.333,32.862v-33.638
			c24.175-4.079,42.667-25.105,42.667-50.423c0-28.237-22.963-51.2-51.2-51.2c-28.228,0-51.2,22.963-51.2,51.2
			c0,25.318,18.492,46.345,42.667,50.423v51.977c0,0.085,0.051,0.162,0.051,0.256C35.226,303.234,25.6,329.678,25.6,358.402
			c0,47.053,38.281,85.333,85.333,85.333h179.2c4.71,0,8.533,3.823,8.533,8.533c0,32.93,26.795,59.733,59.733,59.733h145.067
			c4.719,0,8.533-3.823,8.533-8.533v-34.133C512,464.616,508.186,460.802,503.467,460.802z M460.8,349.203
			c0.171-0.026,0.333-0.068,0.504-0.094c1.493-0.23,2.97-0.495,4.429-0.828c0.828-0.196,1.655-0.41,2.475-0.64
			c1.425-0.401,2.816-0.845,4.198-1.348c0.717-0.256,1.434-0.495,2.142-0.776c2.014-0.819,3.994-1.715,5.897-2.739l0.051-0.026
			l8.576,15.65H460.8V349.203z M267.955,97.973l2.031-3.712L307.2,26.301l70.716,129.126l-39.561-33.911
			c-1.997-1.707-4.685-2.406-7.236-1.877c-2.586,0.512-4.779,2.193-5.948,4.54L307.2,160.121l-17.963-35.942
			c-1.178-2.347-3.371-4.028-5.948-4.54c-0.555-0.119-1.126-0.171-1.69-0.171c-2.014,0-3.985,0.717-5.555,2.048l-39.552,33.911
			L267.955,97.973z M168.619,279.357l109.167-54.579l21.786,43.571c2.893,5.786,12.373,5.786,15.266,0l21.786-43.571l65.621,32.811
			c-0.375,0.572-0.708,1.169-1.058,1.749c-0.171,0.282-0.35,0.555-0.512,0.836c-2.466,4.233-4.437,8.789-5.803,13.602
			c-0.137,0.452-0.239,0.904-0.35,1.357c-0.495,1.903-0.896,3.849-1.203,5.82c-0.094,0.606-0.205,1.203-0.282,1.809
			c-0.299,2.423-0.503,4.872-0.503,7.373c0,30.029,22.306,54.886,51.2,59.051v9.216H125.338L168.619,279.357z"/>
	</g>
</g>
<g>
</g>
<g>
</g>
<g>
</g>
<g>
</g>
<g>
</g>
<g>
</g>
<g>
</g>
<g>
</g>
<g>
</g>
<g>
</g>
<g>
</g>
<g>
</g>
<g>
</g>
<g>
</g>
<g>
</g>
</svg>
