<?xml version="1.0" encoding="iso-8859-1"?>
<!-- Generator: Adobe Illustrator 19.0.0, SVG Export Plug-In . SVG Version: 6.00 Build 0)  -->
<svg xmlns="http://www.w3.org/2000/svg" xmlns:xlink="http://www.w3.org/1999/xlink" version="1.1" id="Capa_1" x="0px" y="0px" viewBox="0 0 426.667 426.667" style="enable-background:new 0 0 426.667 426.667;" xml:space="preserve">
<g>
	<g>
		<path d="M384,85.333H213.333l-42.667-42.667h-128c-23.573,0-42.453,19.093-42.453,42.667L0,341.333    C0,364.907,19.093,384,42.667,384H384c23.573,0,42.667-19.093,42.667-42.667V128C426.667,104.427,407.573,85.333,384,85.333z     M277.333,149.333C300.907,149.333,320,168.427,320,192c0,23.573-19.093,42.667-42.667,42.667    c-23.573,0-42.667-19.093-42.667-42.667C234.667,168.427,253.76,149.333,277.333,149.333z M362.667,320H192v-21.333    c0-28.48,56.853-42.667,85.333-42.667s85.333,14.187,85.333,42.667V320z"/>
	</g>
</g>
<g>
</g>
<g>
</g>
<g>
</g>
<g>
</g>
<g>
</g>
<g>
</g>
<g>
</g>
<g>
</g>
<g>
</g>
<g>
</g>
<g>
</g>
<g>
</g>
<g>
</g>
<g>
</g>
<g>
</g>
</svg>
