<?xml version="1.0" encoding="iso-8859-1"?>
<!-- Generator: Adobe Illustrator 19.0.0, SVG Export Plug-In . SVG Version: 6.00 Build 0)  -->
<svg xmlns="http://www.w3.org/2000/svg" xmlns:xlink="http://www.w3.org/1999/xlink" version="1.1" id="Capa_1" x="0px" y="0px" viewBox="0 0 512 512" style="enable-background:new 0 0 512 512;" xml:space="preserve">
<g>
	<g>
		<g>
			<path d="M412.907,192.747C398.4,119.36,333.653,64,256,64c-31.467,0-60.8,9.28-85.547,24.96l31.147,31.147     c16.32-8.427,34.773-13.44,54.4-13.44c64.853,0,117.333,52.48,117.333,117.333v10.667h32c35.307,0,64,28.693,64,64     c0,24.213-13.547,45.013-33.387,55.893l30.933,30.933c27.2-19.307,45.12-50.88,45.12-86.827     C512,242.347,468.16,196.693,412.907,192.747z"/>
			<path d="M64,91.2l58.667,58.453C54.613,152.533,0,208.533,0,277.333c0,70.72,57.28,128,128,128h250.133L420.8,448l27.2-27.093     L91.2,64L64,91.2z M164.8,192l170.667,170.667H128c-47.147,0-85.333-38.187-85.333-85.333S80.853,192,128,192H164.8z"/>
		</g>
	</g>
</g>
<g>
</g>
<g>
</g>
<g>
</g>
<g>
</g>
<g>
</g>
<g>
</g>
<g>
</g>
<g>
</g>
<g>
</g>
<g>
</g>
<g>
</g>
<g>
</g>
<g>
</g>
<g>
</g>
<g>
</g>
</svg>
