<?xml version="1.0" encoding="iso-8859-1"?>
<!-- Generator: Adobe Illustrator 19.0.0, SVG Export Plug-In . SVG Version: 6.00 Build 0)  -->
<svg version="1.1" id="Layer_1" xmlns="http://www.w3.org/2000/svg" xmlns:xlink="http://www.w3.org/1999/xlink" x="0px" y="0px"
	 viewBox="0 0 512 512" style="enable-background:new 0 0 512 512;" xml:space="preserve">
<g>
	<g>
		<path d="M256,0c-34.242,0-62.469,26.206-65.701,59.615c11.739-3.374,23.846-5.866,36.247-7.405
			C231.748,41.154,242.992,33.48,256,33.48c13.007,0,24.251,7.674,29.454,18.731c12.4,1.537,24.506,4.029,36.246,7.405
			C318.469,26.206,290.241,0,256,0z"/>
	</g>
</g>
<g>
	<g>
		<path d="M382.944,305.036c-9.245,0-16.74-7.495-16.74-16.74s7.495-16.74,16.74-16.74h21.353
			c-7.804-68.874-62.662-123.68-131.558-131.406v21.201c0,9.245-7.495,16.74-16.74,16.74c-9.245,0-16.74-7.495-16.74-16.74v-21.201
			c-68.896,7.726-123.754,62.532-131.558,131.406h21.353c9.245,0,16.74,7.495,16.74,16.74s-7.495,16.74-16.74,16.74h-21.391
			c7.659,69.033,62.585,124.009,131.595,131.747v-21.543c0-9.245,7.495-16.74,16.74-16.74c9.245,0,16.74,7.495,16.74,16.74v21.543
			c69.01-7.738,123.937-62.715,131.595-131.747H382.944z M294.983,259.764l-13.787,48.289c-0.79,2.766-2.953,4.929-5.722,5.717
			l-48.212,13.707c-6.266,1.78-12.054-4.008-10.274-10.273l13.709-48.212c0.787-2.768,2.949-4.933,5.717-5.722l48.289-13.785
			C290.975,247.694,296.773,253.492,294.983,259.764z"/>
	</g>
</g>
<g>
	<g>
		<path d="M256,64.934c-123.256,0-223.532,100.276-223.532,223.534S132.744,512,256,512s223.532-100.276,223.532-223.532
			S379.256,64.934,256,64.934z M256,467.023c-98.456,0-178.555-80.099-178.555-178.555S157.544,109.913,256,109.913
			s178.555,80.099,178.555,178.555C434.555,386.924,354.456,467.023,256,467.023z"/>
	</g>
</g>
<g>
</g>
<g>
</g>
<g>
</g>
<g>
</g>
<g>
</g>
<g>
</g>
<g>
</g>
<g>
</g>
<g>
</g>
<g>
</g>
<g>
</g>
<g>
</g>
<g>
</g>
<g>
</g>
<g>
</g>
</svg>
