<?xml version="1.0" encoding="iso-8859-1"?>
<!-- Generator: Adobe Illustrator 19.0.0, SVG Export Plug-In . SVG Version: 6.00 Build 0)  -->
<svg version="1.1" id="Layer_1" xmlns="http://www.w3.org/2000/svg" xmlns:xlink="http://www.w3.org/1999/xlink" x="0px" y="0px"
	 viewBox="0 0 512 512" style="enable-background:new 0 0 512 512;" xml:space="preserve">
<g>
	<g>
		<path d="M256,0C114.84,0,0,114.84,0,256s114.84,256,256,256s256-114.84,256-256S397.16,0,256,0z M294.624,73.418
			c9.741,0,17.638,7.897,17.638,17.638c0,9.741-7.898,17.638-17.638,17.638c-9.742,0.001-17.638-7.897-17.638-17.638
			C276.987,81.314,284.884,73.418,294.624,73.418z M175.875,91.057c9.741,0,17.638,7.897,17.638,17.638
			c0,9.741-7.898,17.636-17.638,17.636c-9.742,0-17.638-7.896-17.638-17.636C158.237,98.953,166.134,91.057,175.875,91.057z
			 M73.915,263.034c-9.742,0-17.639-7.898-17.639-17.638c0-9.742,7.897-17.638,17.639-17.638c9.741,0,17.638,7.896,17.638,17.638
			C91.553,255.137,83.656,263.034,73.915,263.034z M144.077,429.408c-9.742,0-17.638-7.898-17.638-17.638
			c-0.001-9.742,7.896-17.639,17.638-17.639c9.741,0,17.636,7.898,17.636,17.639C161.714,421.511,153.817,429.408,144.077,429.408z
			 M213.49,211.814c-15.341,6.688-26.126,21.999-26.126,39.776v80.885c0,15.942-12.363,29.521-28.295,30.088
			c-16.727,0.594-30.438-12.79-30.438-29.383v-81.589c0.001-41.643,25.042-77.546,60.856-93.444
			c19.433-8.625,41.315,5.631,41.315,26.892C230.802,196.584,224.072,207.2,213.49,211.814z M259.382,447.044
			c-9.739,0.001-17.638-7.897-17.638-17.638c0-9.742,7.898-17.638,17.638-17.638c9.742,0,17.638,7.897,17.638,17.638
			S269.123,447.044,259.382,447.044z M302.71,353.851c-19.434,8.626-41.316-5.631-41.316-26.891c0-11.545,6.729-22.16,17.312-26.774
			c15.341-6.688,26.126-21.999,26.126-39.776v-80.885c0-15.942,12.363-29.521,28.294-30.088
			c16.729-0.594,30.439,12.79,30.439,29.383v81.589C363.565,302.05,338.524,337.952,302.71,353.851z M375.062,396.85
			c-9.742,0-17.639-7.898-17.639-17.638c0.001-9.742,7.897-17.639,17.639-17.639c9.741,0,17.638,7.898,17.638,17.639
			S384.803,396.85,375.062,396.85z M388.06,155.133c0-9.741,7.897-17.638,17.639-17.638c9.741,0,17.638,7.898,17.638,17.638
			c0,9.741-7.898,17.638-17.638,17.638C395.956,172.771,388.06,164.874,388.06,155.133z M429.957,291.275
			c-9.742,0-17.639-7.898-17.639-17.638c0.001-9.741,7.897-17.638,17.639-17.638c9.741,0,17.638,7.897,17.638,17.638
			S439.696,291.275,429.957,291.275z"/>
	</g>
</g>
<g>
</g>
<g>
</g>
<g>
</g>
<g>
</g>
<g>
</g>
<g>
</g>
<g>
</g>
<g>
</g>
<g>
</g>
<g>
</g>
<g>
</g>
<g>
</g>
<g>
</g>
<g>
</g>
<g>
</g>
</svg>
