<?xml version="1.0" encoding="iso-8859-1"?>
<!-- Generator: Adobe Illustrator 19.0.0, SVG Export Plug-In . SVG Version: 6.00 Build 0)  -->
<svg version="1.1" id="Layer_1" xmlns="http://www.w3.org/2000/svg" xmlns:xlink="http://www.w3.org/1999/xlink" x="0px" y="0px"
	 viewBox="0 0 512 512" style="enable-background:new 0 0 512 512;" xml:space="preserve">
<g>
	<g>
		<path d="M492.206,49.485H19.794C8.862,49.485,0,58.039,0,68.971v299.181c0,10.931,8.862,19.147,19.794,19.147h142.515v35.629
			h-7.925c-10.931,0-19.794,8.862-19.794,19.794s8.862,19.794,19.794,19.794h203.232c10.931,0,19.794-8.862,19.794-19.794
			s-8.862-19.794-19.794-19.794h-7.925v-35.629h142.515c10.93,0,19.794-8.216,19.794-19.147V68.971
			C512,58.039,503.136,49.485,492.206,49.485z M457.897,312.742c0,6.924-5.614,12.536-12.536,12.536H66.639
			c-6.924,0-12.536-5.612-12.536-12.536V122.722c0-6.924,5.612-12.536,12.536-12.536h378.722c6.923,0,12.536,5.612,12.536,12.536
			V312.742z"/>
	</g>
</g>
<g>
	<g>
		<path d="M175.506,194.821c-13.09,0-23.741,10.649-23.741,23.739c0,13.09,10.65,23.741,23.741,23.741
			c13.09,0,23.739-10.65,23.739-23.741C199.246,205.47,188.597,194.821,175.506,194.821z"/>
	</g>
</g>
<g>
	<g>
		<path d="M79.175,135.258v166.268h353.649V135.258H79.175z M175.506,267.374c-26.916,0-48.813-21.897-48.813-48.813
			c0-26.914,21.897-48.812,48.813-48.812c26.914,0,48.812,21.897,48.812,48.812C224.318,245.476,202.421,267.374,175.506,267.374z
			 M372.124,257.979h-96.33c-6.924,0-12.536-5.612-12.536-12.536s5.612-12.536,12.536-12.536h96.33
			c6.924,0,12.536,5.612,12.536,12.536S379.048,257.979,372.124,257.979z M372.124,206.516h-96.33
			c-6.924,0-12.536-5.612-12.536-12.536c0-6.924,5.612-12.536,12.536-12.536h96.33c6.924,0,12.536,5.612,12.536,12.536
			C384.66,200.903,379.048,206.516,372.124,206.516z"/>
	</g>
</g>
<g>
</g>
<g>
</g>
<g>
</g>
<g>
</g>
<g>
</g>
<g>
</g>
<g>
</g>
<g>
</g>
<g>
</g>
<g>
</g>
<g>
</g>
<g>
</g>
<g>
</g>
<g>
</g>
<g>
</g>
</svg>
