<?xml version="1.0" encoding="iso-8859-1"?>
<!-- Generator: Adobe Illustrator 19.0.0, SVG Export Plug-In . SVG Version: 6.00 Build 0)  -->
<svg version="1.1" id="Layer_1" xmlns="http://www.w3.org/2000/svg" xmlns:xlink="http://www.w3.org/1999/xlink" x="0px" y="0px"
	 viewBox="0 0 511.999 511.999" style="enable-background:new 0 0 511.999 511.999;" xml:space="preserve">
<g>
	<g>
		<path d="M318.016,293.196c-14.369-9.769-35.815-14.934-62.018-14.934s-47.647,5.165-62.017,14.934
			c-14.747,10.027-21.916,24.84-21.916,45.284c0,5.284,0.514,10.552,1.485,15.695l164.9-0.044
			c0.967-5.133,1.481-10.378,1.481-15.651C339.931,318.035,332.763,303.223,318.016,293.196z M283.259,322.438l-14.669,15.621
			c-3.211,3.419-7.692,5.358-12.383,5.358c-4.702,0-9.247-1.949-12.458-5.383l-14.669-15.682c-6.41-6.85-6.051-17.601,0.8-24.009
			c6.851-6.41,17.601-6.051,24.01,0.801l2.314,2.474l2.289-2.437c6.421-6.839,17.171-7.178,24.011-0.754
			C289.342,304.849,289.68,315.599,283.259,322.438z"/>
	</g>
</g>
<g>
	<g>
		<path d="M154.656,386.45c17.572,38.503,56.396,65.246,101.365,65.246c44.965,0,83.776-26.743,101.348-65.246H154.656z"/>
	</g>
</g>
<g>
	<g>
		<path d="M338.961,180.83c-4.34-8.671-12.471-20.041-26.565-24.964c-13.019-4.546-28.53-3.049-46.123,5.051
			c-2.973,1.754-6.428,2.439-10.073,2.439H256c-3.644,0-7.098-0.685-10.073-2.439c-17.573-8.091-33.064-9.732-46.073-5.179
			c-14.095,4.932-22.234,16.397-26.581,25.081c-7.337,14.66-9.544,33.201-5.905,49.535c2.288,10.265,7.703,23.65,20.338,33.079
			c18.963-7.774,41.884-11.891,68.275-11.891c26.345,0,49.232,4.122,68.174,11.868c12.877-9.431,18.363-22.914,20.674-33.245
			C348.469,213.887,346.275,195.444,338.961,180.83z M235.614,219.064c0,9.381-7.606,16.987-16.987,16.987
			c-9.381,0-16.987-7.606-16.987-16.987v-6.795c0-9.381,7.606-16.987,16.987-16.987c9.381,0,16.987,7.606,16.987,16.987V219.064z
			 M310.356,219.064c0,9.381-7.606,16.987-16.987,16.987c-9.381,0-16.987-7.606-16.987-16.987v-6.795
			c0-9.381,7.606-16.987,16.987-16.987c9.381,0,16.987,7.606,16.987,16.987V219.064z"/>
	</g>
</g>
<g>
	<g>
		<path d="M489.98,168.248c-23.294-23.289-57.914-28.459-85.576-15.113C376.971,96.9,319.828,60.302,256.041,60.302
			c-0.011,0-0.025,0-0.036,0c-0.011,0-0.025,0-0.036,0c-63.782,0-120.922,36.592-148.357,92.822
			c-27.678-13.386-62.308-8.311-85.582,14.962c-29.248,29.248-29.391,76.725-0.317,105.8c0.745,0.745,1.559,1.436,2.43,2.03
			l86.985,51.547l33.492,25.014h0.941c-0.623-4.53-0.941-9.5-0.941-14.346c0-24.837,8.191-45.158,23.368-60.176
			c-10.267-10.641-17.524-24.243-21.024-39.96c-4.832-21.686-1.976-45.351,7.837-64.956c9.234-18.451,24.121-32.035,41.919-38.263
			c12.772-4.472,33.061-7.196,59.384,3.405c26.336-10.609,46.629-7.89,59.404-3.428c17.808,6.219,32.697,19.802,41.928,38.245
			c9.795,19.573,12.637,43.217,7.797,64.865c-3.531,15.792-10.867,29.482-21.244,40.138c15.191,15.022,23.391,35.31,23.391,60.159
			c0,4.832-0.323,9.788-0.94,14.318h1.104l33.337-24.947l86.984-51.598c0.873-0.596,1.687-1.246,2.434-1.992
			C519.356,244.88,519.214,197.483,489.98,168.248z M110.339,259.598c-3.633,5.695-11.195,7.367-16.891,3.735l-28.221-18.001
			c-5.695-3.633-7.367-11.195-3.734-16.891c2.334-3.657,6.285-5.656,10.323-5.656c2.25,0,4.529,0.622,6.567,1.921l28.222,18.002
			C112.302,246.341,113.973,253.903,110.339,259.598z M446.342,245.332l-28.222,18.001c-2.038,1.299-4.317,1.921-6.567,1.921
			c-4.038,0-7.991-1.999-10.323-5.656c-3.633-5.695-1.961-13.258,3.734-16.891l28.221-18.002c5.695-3.632,13.258-1.96,16.891,3.735
			C453.71,234.136,452.039,241.699,446.342,245.332z"/>
	</g>
</g>
<g>
</g>
<g>
</g>
<g>
</g>
<g>
</g>
<g>
</g>
<g>
</g>
<g>
</g>
<g>
</g>
<g>
</g>
<g>
</g>
<g>
</g>
<g>
</g>
<g>
</g>
<g>
</g>
<g>
</g>
</svg>
