<?xml version="1.0" encoding="iso-8859-1"?>
<!-- Generator: Adobe Illustrator 19.0.0, SVG Export Plug-In . SVG Version: 6.00 Build 0)  -->
<svg version="1.1" id="Layer_1" xmlns="http://www.w3.org/2000/svg" xmlns:xlink="http://www.w3.org/1999/xlink" x="0px" y="0px"
	 viewBox="0 0 512 512" style="enable-background:new 0 0 512 512;" xml:space="preserve">
<g>
	<g>
		<path d="M420.2,207.26l24.23-24.143l-96.009-96.096l-31.274,31.274c-18.38-7.452-38.028-12.404-58.527-14.42V70.171
			c0-11.457-9.288-20.745-20.745-20.745c-92.843,0-177.357,47.188-226.071,126.227c-2.997,4.863-3.856,10.743-2.376,16.26
			c1.48,5.515,5.168,10.177,10.195,12.887l28.049,15.3c-14.343,28.563-22.778,60.783-22.778,94.862v47.498h424.579v-47.498
			C449.473,275.671,438.896,238.849,420.2,207.26z M217.13,103.845c-59.581,5.76-112.024,36.269-146.905,81.095l-10.631-5.73
			c38.052-50.185,94.766-81.652,157.536-87.356V103.845z"/>
	</g>
</g>
<g>
	<g>
		<path d="M471.264,382.953c-3.027-3.242-7.334-5.28-12.121-5.28H16.607c-4.787,0-9.095,2.04-12.123,5.28
			C1.714,385.92,0,389.89,0,394.269v81.705c0,9.165,7.442,16.488,16.607,16.488h442.535c9.165,0,16.607-7.323,16.607-16.488v-81.705
			C475.749,389.89,474.034,385.92,471.264,382.953z"/>
	</g>
</g>
<g>
	<g>
		<path d="M507.139,112.811l-88.409-88.412c-6.481-6.481-16.989-6.481-23.471,0l-33.683,33.683c-0.846,0.846-1.575,1.763-2.202,2.73
			c-4.163,6.43-3.433,15.106,2.202,20.741l88.409,88.411c3.24,3.242,7.488,4.861,11.735,4.861c3.138,0,6.275-0.892,9.006-2.661
			c0.967-0.625,1.884-1.354,2.73-2.2l33.683-33.683c3.113-3.112,4.861-7.334,4.861-11.735
			C512,120.145,510.252,115.924,507.139,112.811z"/>
	</g>
</g>
<g>
</g>
<g>
</g>
<g>
</g>
<g>
</g>
<g>
</g>
<g>
</g>
<g>
</g>
<g>
</g>
<g>
</g>
<g>
</g>
<g>
</g>
<g>
</g>
<g>
</g>
<g>
</g>
<g>
</g>
</svg>
