<?xml version="1.0" encoding="iso-8859-1"?>
<!-- Generator: Adobe Illustrator 19.0.0, SVG Export Plug-In . SVG Version: 6.00 Build 0)  -->
<svg version="1.1" id="Layer_1" xmlns="http://www.w3.org/2000/svg" xmlns:xlink="http://www.w3.org/1999/xlink" x="0px" y="0px"
	 viewBox="0 0 511.999 511.999" style="enable-background:new 0 0 511.999 511.999;" xml:space="preserve">
<g>
	<g>
		<path d="M486.906,25.252c-33.454-33.456-87.893-33.456-121.353,0L220.441,170.361l-17.125-17.125c-9.66-9.66-25.326-9.66-34.988,0
			c-5.603,5.601-7.935,13.221-7.039,20.52c0.648,5.288,2.98,10.409,7.039,14.467l155.606,155.606
			c4.059,4.059,9.179,6.39,14.468,7.039c1.004,0.124,2.014,0.208,3.025,0.208c6.332,0,12.664-2.416,17.493-7.247
			c9.662-9.66,9.662-25.326,0-34.988l-17.127-17.125l145.111-145.109C520.363,113.148,520.363,58.709,486.906,25.252z"/>
	</g>
</g>
<g>
	<g>
		
			<rect x="174.527" y="230.566" transform="matrix(0.7071 -0.7071 0.7071 0.7071 -152.9768 236.6416)" width="69.273" height="144.829"/>
	</g>
</g>
<g>
	<g>
		<path d="M105.481,304.261l-71.238,71.238c-11.113,11.113-17.234,25.89-17.234,41.605c0,11.852,3.483,23.165,9.957,32.778
			l-19.72,19.721c-9.662,9.662-9.662,25.326,0,34.988c4.831,4.831,11.163,7.247,17.493,7.247c6.332,0,12.664-2.416,17.495-7.247
			L61.9,484.926c9.695,6.642,21.146,10.224,33.155,10.224c15.715,0,30.492-6.121,41.607-17.234l71.238-71.238L105.481,304.261z"/>
	</g>
</g>
<g>
</g>
<g>
</g>
<g>
</g>
<g>
</g>
<g>
</g>
<g>
</g>
<g>
</g>
<g>
</g>
<g>
</g>
<g>
</g>
<g>
</g>
<g>
</g>
<g>
</g>
<g>
</g>
<g>
</g>
</svg>
