<?xml version="1.0" encoding="iso-8859-1"?>
<!-- Generator: Adobe Illustrator 19.0.0, SVG Export Plug-In . SVG Version: 6.00 Build 0)  -->
<svg version="1.1" id="Layer_1" xmlns="http://www.w3.org/2000/svg" xmlns:xlink="http://www.w3.org/1999/xlink" x="0px" y="0px"
	 viewBox="0 0 512 512" style="enable-background:new 0 0 512 512;" xml:space="preserve">
<g>
	<g>
		<path d="M316.487,417.365h-0.893l-19.446-81.211c-11.838,2.34-24.034,3.81-36.496,4.026l18.519,77.186h-44.345l18.519-77.185
			c-12.461-0.217-24.657-1.686-36.495-4.026l-19.445,81.21h-0.893c-35.557,0-64.479,29.509-64.479,65.065v10.779
			c0,10.051,8.142,18.791,18.193,18.791h213.548c10.051,0,18.193-8.74,18.193-18.791V482.43
			C380.966,446.874,352.044,417.365,316.487,417.365z"/>
	</g>
</g>
<g>
	<g>
		<path d="M274.198,33.774V18.199C274.198,8.148,266.05,0,255.999,0S237.8,8.148,237.8,18.199v15.575l-77.227,87.553h48.44
			L237.8,88.939v32.388h36.398V88.939l28.79,32.388h48.439L274.198,33.774z"/>
	</g>
</g>
<g>
	<g>
		<path d="M430.528,146.242c-2.588-6.9-9.224-11.569-17.026-11.569H98.497c-7.803,0-14.438,4.67-17.026,11.569
			c-0.746,1.989-1.173,4.006-1.173,6.254c0,19.307,3.14,37.831,8.92,55.222c23.221,69.878,89.207,120.353,166.781,120.353
			c77.575,0,143.559-50.538,166.782-120.416c5.781-17.391,8.92-35.977,8.92-55.284C431.7,150.122,431.274,148.23,430.528,146.242z"
			/>
	</g>
</g>
<g>
</g>
<g>
</g>
<g>
</g>
<g>
</g>
<g>
</g>
<g>
</g>
<g>
</g>
<g>
</g>
<g>
</g>
<g>
</g>
<g>
</g>
<g>
</g>
<g>
</g>
<g>
</g>
<g>
</g>
</svg>
