<?xml version="1.0" encoding="iso-8859-1"?>
<!-- Generator: Adobe Illustrator 19.0.0, SVG Export Plug-In . SVG Version: 6.00 Build 0)  -->
<svg version="1.1" id="Layer_1" xmlns="http://www.w3.org/2000/svg" xmlns:xlink="http://www.w3.org/1999/xlink" x="0px" y="0px"
	 viewBox="0 0 511.999 511.999" style="enable-background:new 0 0 511.999 511.999;" xml:space="preserve">
<g>
	<g>
		<path d="M511.72,148.142c-4.278-60.863-57.274-106.887-118.143-102.613c-45.155,3.174-83.013,33.352-97.073,74.914h-81.009
			c-14.06-41.562-51.919-71.74-97.075-74.914C57.548,41.265,4.559,87.281,0.279,148.144c-2.074,29.482,7.46,58.01,26.841,80.322
			c18.513,21.312,43.9,34.495,71.83,37.444l-5.589,58.555l-30.44-2.133c-11.072-0.791-20.693,7.574-21.468,18.653
			c-0.778,11.082,7.575,20.693,18.655,21.468l29.867,2.093c0.052,14.017,2.734,27.198,7.753,39.16l-27.924,10.61
			c-10.383,3.946-15.602,15.559-11.658,25.943c3.053,8.034,10.694,12.975,18.804,12.975c2.373,0,4.789-0.424,7.138-1.318
			l37.671-14.313c13.954,12.687,32.07,21.981,53.542,26.678c28.497,6.232,56.37,0.524,76.48-15.665
			c1.467-1.181,2.873-2.404,4.218-3.666c1.346,1.262,2.753,2.484,4.218,3.666c14.775,11.893,33.743,18.131,54.068,18.131
			c7.338,0,14.852-0.814,22.411-2.467c21.458-4.695,39.562-13.992,53.513-26.688l37.696,14.324c2.352,0.893,4.766,1.318,7.139,1.318
			c8.111,0,15.752-4.942,18.802-12.973c3.946-10.383-1.272-21.998-11.655-25.946l-27.961-10.624
			c5.022-11.954,7.714-25.133,7.794-39.148l29.864-2.093c11.08-0.775,19.432-10.385,18.655-21.468
			c-0.776-11.08-10.385-19.427-21.468-18.655l-30.413,2.132l-5.596-58.557c27.922-2.951,53.302-16.133,71.809-37.441
			C504.262,206.152,513.794,177.624,511.72,148.142z M206.393,293.384c-11.107,0-20.111-9.003-20.111-20.111v-10.726
			c0-11.105,9.004-20.111,20.111-20.111s20.111,9.006,20.111,20.111v10.726C226.504,284.381,217.5,293.384,206.393,293.384z
			 M265.385,406.015h-18.77c-11.107,0-20.111-9.003-20.111-20.111c0-11.105,9.004-20.111,20.111-20.111h18.77
			c11.107,0,20.111,9.006,20.111,20.111C285.495,397.012,276.491,406.015,265.385,406.015z M325.717,273.273
			c0,11.108-9.004,20.111-20.111,20.111s-20.111-9.003-20.111-20.111v-10.726c0-11.105,9.004-20.111,20.111-20.111
			s20.111,9.006,20.111,20.111V273.273z"/>
	</g>
</g>
<g>
</g>
<g>
</g>
<g>
</g>
<g>
</g>
<g>
</g>
<g>
</g>
<g>
</g>
<g>
</g>
<g>
</g>
<g>
</g>
<g>
</g>
<g>
</g>
<g>
</g>
<g>
</g>
<g>
</g>
</svg>
