<?xml version="1.0" encoding="iso-8859-1"?>
<!-- Generator: Adobe Illustrator 19.0.0, SVG Export Plug-In . SVG Version: 6.00 Build 0)  -->
<svg version="1.1" id="Layer_1" xmlns="http://www.w3.org/2000/svg" xmlns:xlink="http://www.w3.org/1999/xlink" x="0px" y="0px"
	 viewBox="0 0 512 512" style="enable-background:new 0 0 512 512;" xml:space="preserve">
<g>
	<g>
		<path d="M476.786,492.768l-7.235-127.311c-1.405-26.901-27.919-55.927-81.054-88.74c-17.032-10.518-33.859-19.605-47.029-26.338
			c19.522-14.369,32.218-37.494,32.218-63.536v-61.877h-18.502c-30.09,0-59.675-15.525-86.211-45.079
			c-0.385,0.386-0.77,0.768-1.159,1.147c-17.157,16.721-47.724,36.653-95.909,36.653h-33.593v69.156
			c0,26.043,12.697,49.168,32.218,63.538c-13.17,6.732-29.997,15.82-47.029,26.338c-53.135,32.813-79.649,61.839-81.05,88.656
			l-7.238,127.393c-0.284,4.997,1.503,9.892,4.942,13.53c3.437,3.64,8.222,5.701,13.228,5.701h139.617l-19.318-122.886
			l-24.434-10.952c-8.385-3.759-12.653-13.177-9.95-21.961l30.151-97.956c0.724-2.352,1.888-4.45,3.364-6.237
			c9.46,6.459,20.388,10.918,32.176,12.755c-0.09,1.393-0.324,2.798-0.752,4.189l-25.417,82.579l18.703,8.382
			c5.588,2.504,9.542,7.652,10.521,13.697L229.843,512h7.958V354.43c-7.064-2.501-12.133-9.221-12.133-17.141
			c0-10.051,8.148-18.199,18.199-18.199h24.265c10.051,0,18.199,8.148,18.199,18.199c0,7.92-5.069,14.639-12.133,17.141V512h8.139
			l21.8-138.392c0.979-6.044,4.933-11.192,10.521-13.697l18.703-8.383l-25.417-82.579c-0.432-1.404-0.665-2.818-0.755-4.222
			c11.767-1.862,22.675-6.336,32.114-12.807c1.509,1.804,2.693,3.932,3.429,6.321l30.151,97.956
			c2.703,8.783-1.565,18.203-9.95,21.961L338.5,389.112L319.181,512h139.435c5.006,0,9.791-2.061,13.228-5.7
			C475.283,502.661,477.07,497.767,476.786,492.768z M284.492,124.434c9.007,0,16.31,7.304,16.31,16.31s-7.303,16.31-16.31,16.31
			s-16.31-7.304-16.31-16.31S275.485,124.434,284.492,124.434z M227.333,124.434c9.007,0,16.31,7.304,16.31,16.31
			s-7.303,16.31-16.31,16.31c-9.007,0-16.31-7.304-16.31-16.31S218.324,124.434,227.333,124.434z M255.78,304.675l-24.682-38.969
			h49.447L255.78,304.675z M310.852,212.901c-17.148,7.082-35.208,4.839-47.469-5.81c-0.619-0.496-1.207-1.036-1.76-1.615
			c-2.018-2.114-4.22-2.556-5.711-2.556c-1.286,0-3.101,0.329-4.87,1.776c-0.466,0.547-0.967,1.071-1.503,1.568
			c-7.684,7.116-17.795,10.796-28.575,10.796c-6.491,0-13.225-1.335-19.816-4.057c-9.29-3.838-13.71-14.479-9.872-23.769
			c3.838-9.289,14.478-13.71,23.768-9.874c3.59,1.485,7.269,1.702,9.185,0.616c8.469-8.681,19.701-13.455,31.685-13.455
			c11.742,0,22.762,4.584,31.168,12.935c0.036,0.033,0.074,0.067,0.109,0.101c1.617,1.498,5.725,1.375,9.766-0.297
			c9.289-3.835,19.932,0.584,23.768,9.874C324.558,198.422,320.142,209.063,310.852,212.901z M395.526,437.991h-14.559
			c-10.051,0-18.199-8.148-18.199-18.199s8.148-18.199,18.199-18.199h14.559c10.051,0,18.199,8.148,18.199,18.199
			S405.577,437.991,395.526,437.991z"/>
	</g>
</g>
<g>
	<g>
		<path d="M294.825,0h-77.649c-43.485,0-78.863,35.378-78.863,78.863v14.559h33.593c32.136,0,58.706-10.014,78.973-29.764
			c2.963-2.889,5.814-6.401,8.713-10.138c2.292-2.954,5.816-4.988,9.556-4.988c0.01,0,0.021,0,0.03,0
			c3.727,0,7.248,2.005,9.548,4.939c16.787,21.413,43.679,47.23,76.459,47.23h18.502V78.863C373.687,35.378,338.309,0,294.825,0z"/>
	</g>
</g>
<g>
</g>
<g>
</g>
<g>
</g>
<g>
</g>
<g>
</g>
<g>
</g>
<g>
</g>
<g>
</g>
<g>
</g>
<g>
</g>
<g>
</g>
<g>
</g>
<g>
</g>
<g>
</g>
<g>
</g>
</svg>
