<?xml version="1.0" encoding="iso-8859-1"?>
<!-- Generator: Adobe Illustrator 19.0.0, SVG Export Plug-In . SVG Version: 6.00 Build 0)  -->
<svg version="1.1" id="Layer_1" xmlns="http://www.w3.org/2000/svg" xmlns:xlink="http://www.w3.org/1999/xlink" x="0px" y="0px"
	 viewBox="0 0 512.001 512.001" style="enable-background:new 0 0 512.001 512.001;" xml:space="preserve">
<g>
	<g>
		<path d="M468.051,492.883l-9.516-142.427c-2.85-42.76-38.653-75.956-81.506-75.956h-61.738
			c13.692-12.779,22.276-30.893,22.276-51.138V130.56H174.435v92.802c0,20.245,8.584,38.359,22.276,51.138h-61.738
			c-42.854,0-78.656,33.196-81.506,75.956L43.95,493.031c-0.331,4.97,1.412,9.742,4.814,13.378c3.403,3.637,8.16,5.59,13.139,5.59
			h138.854l-1.509-12.404c-0.001-0.013-0.001-0.008-0.002-0.022l-12.895-106.325H160.91c-4.292,0-8.257-2.293-10.397-6.014
			c-2.14-3.72-2.129-8.301,0.028-12.011l48.383-83.206c6.732,4.305,14.067,7.742,21.864,10.124l-39.028,67.117h15.219
			c6.067,0,11.177,4.529,11.909,10.551l14.209,117.168c0.001,0.014,0.001-0.007,0.002,0.007L224.925,512h19.08V333.275
			c-7.949,0-14.394-6.445-14.394-14.394c0-5.967,3.632-11.251,8.806-13.433c2.749,0.257,5.531,0.239,8.346,0.239h18.475
			c2.815,0,5.597,0.018,8.346-0.239c5.173,2.182,8.806,7.383,8.806,13.35c0,7.949-6.445,14.477-14.394,14.477V512h19.097
			l1.787-14.702c0.011-0.119,0.011-0.218,0.025-0.338l14.209-117.159c0.73-6.021,5.842-10.541,11.909-10.541h15.219l-39.028-67.117
			c7.797-2.382,15.133-5.819,21.865-10.124l48.383,83.206c2.158,3.71,2.169,8.291,0.028,12.011
			c-2.14,3.721-6.105,6.014-10.397,6.014H325.65l-12.566,103.631c-0.011,0.119-0.011,0.199-0.025,0.318l-1.799,14.803h138.838
			c4.979,0,9.736-2.028,13.139-5.664C466.639,502.699,468.382,497.852,468.051,492.883z M196.263,171.704
			c0-10.081,8.171-18.252,18.252-18.252s18.252,8.171,18.252,18.252s-8.172,18.252-18.252,18.252S196.263,181.784,196.263,171.704z
			 M276.172,250.509h-4.246c0,9.596-7.13,15.925-15.925,15.925s-15.925-6.329-15.925-15.925h-4.246
			c-8.795,0-15.925-6.799-15.925-15.593c0-8.795,7.13-15.594,15.925-15.594h40.342c8.795,0,15.924,6.799,15.924,15.594
			C292.097,243.711,284.967,250.509,276.172,250.509z M297.487,189.955c-10.081,0-18.252-8.171-18.252-18.252
			s8.172-18.252,18.252-18.252c10.079,0,18.252,8.171,18.252,18.252S307.568,189.955,297.487,189.955z M390.344,446.028H375.95
			c-7.949,0-14.394-6.445-14.394-14.394s6.445-14.394,14.394-14.394h14.394c7.949,0,14.394,6.445,14.394,14.394
			S398.293,446.028,390.344,446.028z"/>
	</g>
</g>
<g>
	<g>
		<path d="M359.931,22.75C343.242,5.972,320.185-2.145,296.663,0.487l-98.496,11.017c-21.066,2.357-39.765,12.922-52.652,29.752
			c-12.887,16.829-18.212,37.637-14.992,58.588l12.736,83.021c1.124,7.313,7.186,13.081,13.184,15.075v-84.175H355.56v84.611
			c7.197-1.489,14.089-7.945,15.054-16.174l11.253-96.07C384.62,62.63,376.621,39.527,359.931,22.75z"/>
	</g>
</g>
<g>
</g>
<g>
</g>
<g>
</g>
<g>
</g>
<g>
</g>
<g>
</g>
<g>
</g>
<g>
</g>
<g>
</g>
<g>
</g>
<g>
</g>
<g>
</g>
<g>
</g>
<g>
</g>
<g>
</g>
</svg>
