<?xml version="1.0" encoding="iso-8859-1"?>
<!-- Generator: Adobe Illustrator 19.0.0, SVG Export Plug-In . SVG Version: 6.00 Build 0)  -->
<svg version="1.1" id="Layer_1" xmlns="http://www.w3.org/2000/svg" xmlns:xlink="http://www.w3.org/1999/xlink" x="0px" y="0px"
	 viewBox="0 0 512 512" style="enable-background:new 0 0 512 512;" xml:space="preserve">
<g>
	<g>
		<path d="M183.014,258.044l79.48,80.703h191.962C424.798,255.606,345.866,199.111,256,199.111
			c-43.908,0-85.205,13.488-119.424,36.978c-0.774,0.661-1.594,1.232-2.451,1.714c-34.645,24.513-61.762,59.401-76.583,100.944
			h161.403l-58.04-58.93c-6.012-6.105-5.938-15.928,0.168-21.941C167.178,251.864,177.002,251.94,183.014,258.044z"/>
	</g>
</g>
<g>
	<g>
		<path d="M510.707,369.778h-35.213c-0.04,0-0.081,0.008-0.123,0.008c-0.061,0-0.12-0.008-0.18-0.008H1.293
			c-0.437,0-0.866-0.03-1.293-0.066v91.864c0,10.711,8.683,19.394,19.394,19.394h473.212c10.711,0,19.394-8.683,19.394-19.394
			v-91.864C511.573,369.747,511.144,369.778,510.707,369.778z M351.677,430.545h-31.03c-8.568,0-15.515-6.947-15.515-15.515
			c0-8.568,6.947-15.515,15.515-15.515h31.03c8.568,0,15.515,6.947,15.515,15.515C367.192,423.599,360.245,430.545,351.677,430.545z
			 M426.667,430.545h-14.222c-8.568,0-15.515-6.947-15.515-15.515c0-8.568,6.947-15.515,15.515-15.515h14.222
			c8.568,0,15.515,6.947,15.515,15.515C442.182,423.599,435.235,430.545,426.667,430.545z"/>
	</g>
</g>
<g>
	<g>
		<path d="M492.606,31.03h-12.929H32.323H19.394C8.683,31.03,0,39.714,0,50.424v288.389c0.427-0.036,0.856-0.066,1.293-0.066H24.86
			c14.386-46.951,42.221-87.11,78.626-116.653l-15.109-16.524c-5.782-6.324-5.342-16.137,0.981-21.92
			c6.326-5.781,16.138-5.345,21.92,0.981l17.718,19.378c31.938-19.685,68.639-32.05,107.609-35.151v-34.394
			c0-8.568,6.947-15.515,15.515-15.515s15.515,6.947,15.515,15.515v33.903c48.414,2.301,93.631,18.89,130.967,46.115l17.725-16.207
			c6.325-5.781,16.138-5.342,21.92,0.981c5.782,6.324,5.342,16.137-0.981,21.92l-14.604,13.353
			c29.467,27.987,52.017,63.554,64.476,104.217h23.568c0.437,0,0.866,0.03,1.293,0.066V50.424
			C512,39.714,503.317,31.03,492.606,31.03z"/>
	</g>
</g>
<g>
</g>
<g>
</g>
<g>
</g>
<g>
</g>
<g>
</g>
<g>
</g>
<g>
</g>
<g>
</g>
<g>
</g>
<g>
</g>
<g>
</g>
<g>
</g>
<g>
</g>
<g>
</g>
<g>
</g>
</svg>
