<?xml version="1.0" encoding="iso-8859-1"?>
<!-- Generator: Adobe Illustrator 19.0.0, SVG Export Plug-In . SVG Version: 6.00 Build 0)  -->
<svg xmlns="http://www.w3.org/2000/svg" xmlns:xlink="http://www.w3.org/1999/xlink" version="1.1" id="Capa_1" x="0px" y="0px" viewBox="0 0 512 512" style="enable-background:new 0 0 512 512;" xml:space="preserve">
<g>
	<g>
		<path d="M452,31h-15c-8.291,0-15,6.709-15,15v45H15c-8.291,0-15,6.709-15,15v360c0,8.291,6.709,15,15,15h437    c33.091,0,60-26.909,60-60V91C512,57.909,485.091,31,452,31z M392,286c0,8.291-6.709,15-15,15h-30c-8.291,0-15-6.709-15-15    c0-8.291,6.709-15,15-15h15v-30h-46c-8.291,0-15-6.709-15-15s6.709-15,15-15h46v-30H181v15c0,8.291-6.709,15-15,15    s-15-6.709-15-15v-15H90v90h61v-15c0-8.291,6.709-15,15-15s15,6.709,15,15v60c0,8.291-6.709,15-15,15s-15-6.709-15-15v-15H90v90    h61v-15c0-8.291,6.709-15,15-15s15,6.709,15,15v15h30V226c0-8.291,6.709-15,15-15h30c8.291,0,15,6.709,15,15s-6.709,15-15,15h-15    v150h121v-30h-15c-8.291,0-15-6.709-15-15c0-8.291,6.709-15,15-15h30c8.291,0,15,6.709,15,15v60c0,8.291-6.709,15-15,15H75    c-8.291,0-15-6.709-15-15V166c0-8.291,6.709-15,15-15h302c8.291,0,15,6.709,15,15V286z M482,369.057    c-8.833-5.127-19.087-8.057-30-8.057V61c16.538,0,30,13.462,30,30V369.057z"/>
	</g>
</g>
<g>
</g>
<g>
</g>
<g>
</g>
<g>
</g>
<g>
</g>
<g>
</g>
<g>
</g>
<g>
</g>
<g>
</g>
<g>
</g>
<g>
</g>
<g>
</g>
<g>
</g>
<g>
</g>
<g>
</g>
</svg>
