<?xml version="1.0" encoding="iso-8859-1"?>
<!-- Generator: Adobe Illustrator 19.0.0, SVG Export Plug-In . SVG Version: 6.00 Build 0)  -->
<svg xmlns="http://www.w3.org/2000/svg" xmlns:xlink="http://www.w3.org/1999/xlink" version="1.1" id="Capa_1" x="0px" y="0px" viewBox="0 0 512 512" style="enable-background:new 0 0 512 512;" xml:space="preserve">
<g>
	<g>
		<path d="M316,422H196c-8.276,0-15,6.724-15,15s6.724,15,15,15h120c8.276,0,15-6.724,15-15S324.276,422,316,422z"/>
	</g>
</g>
<g>
	<g>
		<path d="M497,270h-91c-5.684,0-10.869,3.208-13.418,8.291L366.728,330H145.272l-25.854-51.709    C116.869,273.208,111.684,270,106,270H15c-8.291,0-15,6.709-15,15v182c0,24.814,20.186,45,45,45h422c24.814,0,45-20.186,45-45V285    C512,276.709,505.291,270,497,270z M316,482H196c-24.814,0-45-20.186-45-45c0-24.814,20.186-45,45-45h120    c24.814,0,45,20.186,45,45C361,461.814,340.814,482,316,482z"/>
	</g>
</g>
<g>
	<g>
		<path d="M376,0H76c-8.284,0-15,6.714-15,15v225h30V75c0-24.853,20.147-45,45-45h255V15C391,6.709,384.291,0,376,0z"/>
	</g>
</g>
<g>
	<g>
		<path d="M438.402,116.426l-42.246-42.583C387.821,65.42,376.234,60.044,364.354,60h-71.641c-63.941,0.007-148.596,0.018-156.684,0    H136c-8.19,0-15,6.632-15,15v167.856c10.748,3.811,19.911,11.371,25.239,21.987L163.817,300h184.365l17.563-35.127    C373.451,249.521,388.861,240,406,240h46v-91.67C452.073,136.318,446.884,124.995,438.402,116.426z M196,90h90    c8.291,0,15,6.709,15,15s-6.709,15-15,15h-90c-8.291,0-15-6.709-15-15S187.709,90,196,90z M196,150h90c8.291,0,15,6.709,15,15    s-6.709,15-15,15h-90c-8.291,0-15-6.709-15-15S187.709,150,196,150z M346,240H196c-8.291,0-15-6.709-15-15s6.709-15,15-15h150    c8.291,0,15,6.709,15,15S354.291,240,346,240z M421.428,150H361V90.507l3.267,0.005c3.94,0.015,7.793,1.626,10.576,4.438    l42.246,42.583c2.827,2.856,4.38,6.636,4.351,10.649L421.428,150z"/>
	</g>
</g>
<g>
</g>
<g>
</g>
<g>
</g>
<g>
</g>
<g>
</g>
<g>
</g>
<g>
</g>
<g>
</g>
<g>
</g>
<g>
</g>
<g>
</g>
<g>
</g>
<g>
</g>
<g>
</g>
<g>
</g>
</svg>
