<?xml version="1.0" encoding="iso-8859-1"?>
<!-- Generator: Adobe Illustrator 19.0.0, SVG Export Plug-In . SVG Version: 6.00 Build 0)  -->
<svg xmlns="http://www.w3.org/2000/svg" xmlns:xlink="http://www.w3.org/1999/xlink" version="1.1" id="Capa_1" x="0px" y="0px" viewBox="0 0 512 512" style="enable-background:new 0 0 512 512;" xml:space="preserve">
<g>
	<g>
		<path d="M391,0H61c-8.284,0-15,6.716-15,15v420c0,8.291,6.709,15,15,15h15V75c0-24.853,20.147-45,45-45h285V15    C406,6.709,399.291,0,391,0z"/>
	</g>
</g>
<g>
	<g>
		<rect x="196" y="270" width="30" height="30"/>
	</g>
</g>
<g>
	<g>
		<rect x="196" y="150" width="30" height="30"/>
	</g>
</g>
<g>
	<g>
		<rect x="196" y="390" width="30" height="30"/>
	</g>
</g>
<g>
	<g>
		<rect x="346" y="270" width="30" height="30"/>
	</g>
</g>
<g>
	<g>
		<path d="M452.816,115.606l-42.421-42.422C401.898,64.688,390.59,60,378.578,60H121c-8.291,0-15,6.709-15,15v422    c0,8.291,6.709,15,15,15h330c8.291,0,15-6.709,15-15V147.422C466,135.41,461.312,124.102,452.816,115.606z M406,315    c0,8.291-6.709,15-15,15h-53.789L256,411.211V435c0,8.291-6.709,15-15,15h-60c-8.291,0-15-6.709-15-15v-60c0-8.291,6.709-15,15-15    h60c6.456,0,11.841,4.116,13.958,9.831L316,308.789v-8.672h-60V315c0,8.291-6.709,15-15,15h-60c-8.291,0-15-6.709-15-15v-60    c0-8.291,6.709-15,15-15h60c8.291,0,15,6.709,15,15v15h60v-8.789l-61.042-61.042C252.841,205.884,247.456,210,241,210h-60    c-8.291,0-15-6.709-15-15v-60c0-8.291,6.709-15,15-15h60c8.291,0,15,6.709,15,15v23.789L337.211,240H391c8.291,0,15,6.709,15,15    V315z M436,150h-60V90h2.578c3.94,0,7.808,1.597,10.605,4.395l42.422,42.422c2.798,2.798,4.395,6.665,4.395,10.605V150z"/>
	</g>
</g>
<g>
</g>
<g>
</g>
<g>
</g>
<g>
</g>
<g>
</g>
<g>
</g>
<g>
</g>
<g>
</g>
<g>
</g>
<g>
</g>
<g>
</g>
<g>
</g>
<g>
</g>
<g>
</g>
<g>
</g>
</svg>
