<?xml version="1.0" encoding="iso-8859-1"?>
<!-- Generator: Adobe Illustrator 19.0.0, SVG Export Plug-In . SVG Version: 6.00 Build 0)  -->
<svg xmlns="http://www.w3.org/2000/svg" xmlns:xlink="http://www.w3.org/1999/xlink" version="1.1" id="Capa_1" x="0px" y="0px" viewBox="0 0 512 512" style="enable-background:new 0 0 512 512;" xml:space="preserve">
<g>
	<g>
		<path d="M391,0H61c-8.284,0-15,6.716-15,15v420c0,8.291,6.709,15,15,15h15V75c0-24.853,20.147-45,45-45h285V15    C406,6.709,399.291,0,391,0z"/>
	</g>
</g>
<g>
	<g>
		<rect x="196" y="270" width="30" height="30"/>
	</g>
</g>
<g>
	<g>
		<rect x="196" y="390" width="30" height="30"/>
	</g>
</g>
<g>
	<g>
		<path d="M452.816,115.606l-42.422-42.422C401.898,64.688,390.59,60,378.578,60H121c-8.291,0-15,6.709-15,15v422    c0,8.291,6.709,15,15,15h330c8.291,0,15-6.709,15-15V147.422C466,135.41,461.312,124.102,452.816,115.606z M181,120h120    c8.291,0,15,6.709,15,15s-6.709,15-15,15H181c-8.291,0-15-6.709-15-15S172.709,120,181,120z M181,180h120c8.291,0,15,6.709,15,15    s-6.709,15-15,15H181c-8.291,0-15-6.709-15-15S172.709,180,181,180z M256,435c0,8.291-6.709,15-15,15h-60c-8.291,0-15-6.709-15-15    v-60c0-8.291,6.709-15,15-15h60c8.291,0,15,6.709,15,15V435z M256,315c0,8.291-6.709,15-15,15h-60c-8.291,0-15-6.709-15-15v-60    c0-8.291,6.709-15,15-15h60c8.291,0,15,6.709,15,15V315z M391,420h-90c-8.291,0-15-6.709-15-15c0-8.291,6.709-15,15-15h90    c8.291,0,15,6.709,15,15C406,413.291,399.291,420,391,420z M391,300h-90c-8.291,0-15-6.709-15-15c0-8.291,6.709-15,15-15h90    c8.291,0,15,6.709,15,15C406,293.291,399.291,300,391,300z M436,150h-60V90h2.578c3.94,0,7.808,1.597,10.605,4.395l42.422,42.422    c2.798,2.798,4.395,6.665,4.395,10.605V150z"/>
	</g>
</g>
<g>
</g>
<g>
</g>
<g>
</g>
<g>
</g>
<g>
</g>
<g>
</g>
<g>
</g>
<g>
</g>
<g>
</g>
<g>
</g>
<g>
</g>
<g>
</g>
<g>
</g>
<g>
</g>
<g>
</g>
</svg>
