<?xml version="1.0" encoding="iso-8859-1"?>
<!-- Generator: Adobe Illustrator 19.0.0, SVG Export Plug-In . SVG Version: 6.00 Build 0)  -->
<svg xmlns="http://www.w3.org/2000/svg" xmlns:xlink="http://www.w3.org/1999/xlink" version="1.1" id="Capa_1" x="0px" y="0px" viewBox="0 0 512 512" style="enable-background:new 0 0 512 512;" xml:space="preserve">
<g>
	<g>
		<path d="M376,331h-15v30h15c8.276,0,15-6.724,15-15S384.276,331,376,331z"/>
	</g>
</g>
<g>
	<g>
		<path d="M256,271c-8.276,0-15,6.724-15,15v60c0,8.276,6.724,15,15,15s15-6.724,15-15v-60C271,277.724,264.276,271,256,271z"/>
	</g>
</g>
<g>
	<g>
		<path d="M376,271h-15v30h15c8.276,0,15-6.724,15-15S384.276,271,376,271z"/>
	</g>
</g>
<g>
	<g>
		<path d="M467,181h-25.556L298.072,60.527C299.872,55.668,301,50.479,301,45c0-24.814-20.186-45-45-45c-24.814,0-45,20.186-45,45    c0,5.479,1.128,10.668,2.928,15.527L70.556,181H45c-24.814,0-45,20.186-45,45v161.455c0,17.153,9.536,32.578,26.426,40.928    l203.808,79.059c16.646,6.077,34.887,6.077,51.533,0l205.36-79.733C502.464,420.033,512,404.608,512,387.455V226    C512,201.186,491.814,181,467,181z M256,30c8.276,0,15,6.724,15,15s-6.724,15-15,15s-15-6.724-15-15S247.724,30,256,30z     M233.17,83.562C239.889,87.556,247.634,90,256,90c8.366,0,16.111-2.444,22.83-6.438L394.574,181H117.426L233.17,83.562z M181,346    c0,24.814-20.186,45-45,45c-24.814,0-45-20.186-45-45c0-8.291,6.709-15,15-15s15,6.709,15,15c0,8.276,6.724,15,15,15    s15-6.724,15-15v-75h-30.015c-8.291,0-15-6.709-15-15c0-8.291,6.709-15,15-15H166c8.291,0,15,6.709,15,15V346z M301,346    c0,24.814-20.186,45-45,45c-24.814,0-45-20.186-45-45v-60c0-24.814,20.186-45,45-45c24.814,0,45,20.186,45,45V346z M421,346    c0,24.814-20.186,45-45,45h-30c-8.291,0-15-6.709-15-15c0-43.423,0-76.577,0-120c0-8.291,6.709-15,15-15h30    c24.814,0,45,20.186,45,45c0,11.567-4.508,22.02-11.704,30C416.492,323.98,421,334.433,421,346z"/>
	</g>
</g>
<g>
</g>
<g>
</g>
<g>
</g>
<g>
</g>
<g>
</g>
<g>
</g>
<g>
</g>
<g>
</g>
<g>
</g>
<g>
</g>
<g>
</g>
<g>
</g>
<g>
</g>
<g>
</g>
<g>
</g>
</svg>
