<?xml version="1.0" encoding="iso-8859-1"?>
<!-- Generator: Adobe Illustrator 19.0.0, SVG Export Plug-In . SVG Version: 6.00 Build 0)  -->
<svg xmlns="http://www.w3.org/2000/svg" xmlns:xlink="http://www.w3.org/1999/xlink" version="1.1" id="Capa_1" x="0px" y="0px" viewBox="0 0 512 512" style="enable-background:new 0 0 512 512;" xml:space="preserve">
<g>
	<g>
		<path d="M509.188,247.269C504.617,240.883,394.661,91,255.999,91S7.382,240.883,2.812,247.27c-3.75,5.215-3.75,12.246,0,17.461    C7.382,271.117,117.338,421,255.999,421s248.617-149.883,253.188-156.27C512.938,259.515,512.938,252.484,509.188,247.269z     M255.999,361c-57.891,0-105-47.109-105-105s47.109-105,105-105s105,47.109,105,105S313.891,361,255.999,361z"/>
	</g>
</g>
<g>
	<g>
		<path d="M255.999,211c-24.814,0-45,20.186-45,45c0,24.814,20.186,45,45,45c24.814,0,45-20.186,45-45    C301,231.186,280.814,211,255.999,211z"/>
	</g>
</g>
<g>
</g>
<g>
</g>
<g>
</g>
<g>
</g>
<g>
</g>
<g>
</g>
<g>
</g>
<g>
</g>
<g>
</g>
<g>
</g>
<g>
</g>
<g>
</g>
<g>
</g>
<g>
</g>
<g>
</g>
</svg>
