<?xml version="1.0" encoding="iso-8859-1"?>
<!-- Generator: Adobe Illustrator 19.0.0, SVG Export Plug-In . SVG Version: 6.00 Build 0)  -->
<svg xmlns="http://www.w3.org/2000/svg" xmlns:xlink="http://www.w3.org/1999/xlink" version="1.1" id="Capa_1" x="0px" y="0px" viewBox="0 0 512 512" style="enable-background:new 0 0 512 512;" xml:space="preserve">
<g>
	<g>
		<path d="M407,242c-41.353,0-75,33.647-75,75c0,41.353,33.647,75,75,75c41.353,0,75-33.647,75-75C482,275.647,448.353,242,407,242z    "/>
	</g>
</g>
<g>
	<g>
		<path d="M467,0H45C20.186,0,0,20.186,0,45v120c0,24.814,20.186,46,45,46h166v45c0,12.063,13.455,19.058,23.32,12.48L320.541,211    H467c24.814,0,45-21.186,45-46V45C512,20.186,491.814,0,467,0z M316,150H75c-8.291,0-15-6.709-15-15s6.709-15,15-15h241    c8.291,0,15,6.709,15,15S324.291,150,316,150z M437,90H75c-8.291,0-15-6.709-15-15s6.709-15,15-15h362c8.291,0,15,6.709,15,15    S445.291,90,437,90z"/>
	</g>
</g>
<g>
	<g>
		<path d="M480.251,392c-18.938,18.499-44.752,30-73.251,30c-28.499,0-54.313-11.501-73.251-30C314.217,411.08,302,437.608,302,467    v30c0,8.291,6.709,15,15,15h180c8.291,0,15-6.709,15-15v-30C512,437.608,499.783,411.08,480.251,392z"/>
	</g>
</g>
<g>
	<g>
		<path d="M105,242c-41.353,0-75,33.647-75,75c0,41.353,33.647,75,75,75s75-33.647,75-75C180,275.647,146.353,242,105,242z"/>
	</g>
</g>
<g>
	<g>
		<path d="M178.251,392c-18.939,18.499-44.753,30-73.251,30c-28.498,0-54.313-11.501-73.251-30C12.217,411.08,0,437.608,0,467v30    c0,8.291,6.709,15,15,15h180c8.291,0,15-6.709,15-15v-30C210,437.608,197.783,411.08,178.251,392z"/>
	</g>
</g>
<g>
</g>
<g>
</g>
<g>
</g>
<g>
</g>
<g>
</g>
<g>
</g>
<g>
</g>
<g>
</g>
<g>
</g>
<g>
</g>
<g>
</g>
<g>
</g>
<g>
</g>
<g>
</g>
<g>
</g>
</svg>
