<?xml version="1.0" encoding="iso-8859-1"?>
<!-- Generator: Adobe Illustrator 19.0.0, SVG Export Plug-In . SVG Version: 6.00 Build 0)  -->
<svg xmlns="http://www.w3.org/2000/svg" xmlns:xlink="http://www.w3.org/1999/xlink" version="1.1" id="Capa_1" x="0px" y="0px" viewBox="0 0 512 512" style="enable-background:new 0 0 512 512;" xml:space="preserve">
<g>
	<g>
		<path d="M476.628,242.093L456.12,85.034C470.805,77.617,481,62.547,481,45c0-24.814-20.186-45-45-45    c-19.53,0-36.024,12.578-42.237,30H148.237C142.024,12.578,125.53,0,106,0C81.186,0,61,20.186,61,45    c0,15.787,8.209,29.641,20.543,37.676L40.248,271.48C17.692,273.893,0,292.813,0,316c0,24.814,20.186,45,45,45    c9.697,0,18.629-3.155,25.984-8.392l171.832,102.435C241.751,458.876,241,462.833,241,467c0,24.814,20.186,45,45,45    c24.814,0,45-20.186,45-45c0-6.927-1.703-13.412-4.51-19.279L447.721,326.49c5.867,2.807,12.352,4.51,19.279,4.51    c24.814,0,45-20.186,45-45C512,264.496,496.822,246.522,476.628,242.093z M148.237,60h245.526    c0.522,1.465,1.082,2.889,1.747,4.279L267.294,193.495C255.436,185.634,241.26,181,226,181c-8.481,0-16.503,1.725-24.113,4.332    L138.349,76.146C142.74,71.587,146.069,66.081,148.237,60z M69.457,278.324L110.752,89.52c0.205-0.022,0.41-0.038,0.615-0.062    l64.634,111.052C160.769,214.246,151,233.923,151,256c0,4.75,0.555,9.362,1.403,13.868l-67.339,26.065    C81.462,288.78,76.13,282.671,69.457,278.324z M88.187,327.944c0.108-0.39,0.26-0.76,0.359-1.154l75.147-29.132    C177.166,317.741,200.056,331,226,331c1.586,0,3.071-0.372,4.633-0.469l26.226,97.971L88.187,327.944z M305.279,426.51    c-5.819-2.783-12.25-4.468-19.113-4.493L259.574,322.7c16.952-8.575,30.132-23.247,36.683-41.27l127.993,17.92    c0.639,2.038,1.349,4.025,2.26,5.929L305.279,426.51z M425.323,269.204L300.57,251.741c-0.782-13.61-4.955-26.31-12.065-37.035    L416.721,85.49c3.063,1.465,6.257,2.672,9.651,3.417l20.508,157.059C437.172,250.871,429.429,259.056,425.323,269.204z"/>
	</g>
</g>
<g>
</g>
<g>
</g>
<g>
</g>
<g>
</g>
<g>
</g>
<g>
</g>
<g>
</g>
<g>
</g>
<g>
</g>
<g>
</g>
<g>
</g>
<g>
</g>
<g>
</g>
<g>
</g>
<g>
</g>
</svg>
