<?xml version="1.0" encoding="iso-8859-1"?>
<!-- Generator: Adobe Illustrator 19.0.0, SVG Export Plug-In . SVG Version: 6.00 Build 0)  -->
<svg xmlns="http://www.w3.org/2000/svg" xmlns:xlink="http://www.w3.org/1999/xlink" version="1.1" id="Capa_1" x="0px" y="0px" viewBox="0 0 512 512" style="enable-background:new 0 0 512 512;" xml:space="preserve">
<g>
	<g>
		<path d="M93.376,512H434.71c0-29.045-20.034-53.232-46.979-60c0.424-3.054,0.223-6.157-1.203-9l-27.712-55.409    c17.333-41.47,8.045-89.5-24.227-121.772l-34.394-34.409c43.53,10.167,84.879,11.44,108.713-36.212l8.697-17.682    c3.288-6.697,1.349-14.788-4.621-19.257l-115.157-86.37l17.233-51.449C318.429,10.425,310.956,0,300.347,0    c-70.606,0-150.076,7.47-199.47,96.788c-39.788,72.5-20.545,133.454-5.091,182.44c6.743,21.349,13.106,41.5,13.106,58.697v18.924    c0,8.576,6.939,15.515,15.515,15.515H171.1l-0.118,11.787L141.558,443c-1.426,2.842-1.627,5.945-1.203,9    C113.411,458.768,93.376,482.955,93.376,512z M248.528,155.152c-8.568,0-15.515-6.947-15.515-15.515    c0-8.571,6.947-15.515,15.515-15.515c8.569,0,15.515,6.945,15.515,15.515C264.043,148.205,257.097,155.152,248.528,155.152z     M155.15,261.167c11.405,26.63,15.231,51.7,15.843,80.167h-31.07c0-25.928-6.53-46.079-14.546-71.439    c-15.091-47.833-30.712-97.303,2.682-158.121c36.773-66.516,91.5-78.606,150.637-80.454l-10.409,31.06    c-80.91,4.619-128.364,58.876-128.364,124.424C139.922,212.939,145.058,237.985,155.15,261.167z"/>
	</g>
</g>
<g>
</g>
<g>
</g>
<g>
</g>
<g>
</g>
<g>
</g>
<g>
</g>
<g>
</g>
<g>
</g>
<g>
</g>
<g>
</g>
<g>
</g>
<g>
</g>
<g>
</g>
<g>
</g>
<g>
</g>
</svg>
