<?xml version="1.0" encoding="iso-8859-1"?>
<!-- Generator: Adobe Illustrator 19.0.0, SVG Export Plug-In . SVG Version: 6.00 Build 0)  -->
<svg xmlns="http://www.w3.org/2000/svg" xmlns:xlink="http://www.w3.org/1999/xlink" version="1.1" id="Capa_1" x="0px" y="0px" viewBox="0 0 512 512" style="enable-background:new 0 0 512 512;" xml:space="preserve">
<g>
	<g>
		<path d="M361.005,219.808V51.191l19.396,19.396c5.859,5.859,15.353,5.859,21.212,0s5.859-15.353,0-21.212L356.628,4.391    c-5.852-5.867-15.42-5.843-21.249,0l-44.984,44.984c-5.859,5.859-5.859,15.353,0,21.212s15.353,5.859,21.212,0l19.396-19.396    v149.01c-22.534-11.56-47.985-18.216-75.003-18.216c-27.018,0-52.469,6.656-75.003,18.216v-74.007l19.396,19.396    c5.859,5.859,15.353,5.859,21.212,0s5.859-15.353,0-21.212l-44.984-44.984c-5.852-5.867-15.42-5.843-21.249,0l-44.984,44.984    c-5.859,5.859-5.859,15.353,0,21.212s15.353,5.859,21.212,0l19.396-19.396v93.613c-36.625,30.291-60.003,76.057-60.003,127.185    C90.993,437.978,165.015,512,256,512s165.007-74.022,165.007-165.007C421.007,295.864,397.629,250.099,361.005,219.808z     M271.396,419.286c-0.13,0.048-0.266,0.026-0.396,0.071v17.64c0,8.291-6.709,15.001-15.001,15.001    c-8.291,0-15.001-6.709-15.001-15.001v-17.742c-9.879-3.338-19.346-9.672-27.438-19.32c-5.332-6.343-4.512-15.807,1.846-21.124    c6.357-5.332,15.851-4.512,21.124,1.846c7.954,9.434,16.935,13.258,24.596,10.444c5.903-2.153,9.873-7.822,9.873-14.107    c0.001-8.277-6.722-15.002-15-15.002c-24.815,0-45.002-20.187-45.002-45.002c0-17.687,9.998-34.919,30.001-42.087v-17.916    c0-8.291,6.709-15.001,15.001-15.001c8.291,0,15.001,6.709,15.001,15.001v17.938c7.771,2.624,15.345,6.801,22.105,13.353    c5.947,5.757,6.094,15.25,0.322,21.212c-5.742,5.947-15.265,6.079-21.212,0.322c-7.31-7.061-15.382-9.536-22.047-6.65    c-5.566,2.358-9.17,7.778-9.17,13.829c0,8.276,6.724,15.001,15.001,15.001c24.815,0,45.002,20.187,45.002,45.002    C301.001,395.848,289.106,412.841,271.396,419.286z"/>
	</g>
</g>
<g>
</g>
<g>
</g>
<g>
</g>
<g>
</g>
<g>
</g>
<g>
</g>
<g>
</g>
<g>
</g>
<g>
</g>
<g>
</g>
<g>
</g>
<g>
</g>
<g>
</g>
<g>
</g>
<g>
</g>
</svg>
