<?xml version="1.0" encoding="iso-8859-1"?>
<!-- Generator: Adobe Illustrator 19.0.0, SVG Export Plug-In . SVG Version: 6.00 Build 0)  -->
<svg xmlns="http://www.w3.org/2000/svg" xmlns:xlink="http://www.w3.org/1999/xlink" version="1.1" id="Capa_1" x="0px" y="0px" viewBox="0 0 512 512" style="enable-background:new 0 0 512 512;" xml:space="preserve">
<g>
	<g>
		<path d="M382.035,403.012C373.729,414.145,360.531,421,346,421s-27.729-6.855-36.035-17.988c-2.99,0.421-5.988,0.408-8.965,0.236    c0,25.153,0-8.447,0,100.039c0,6.463,6.824,10.663,12.581,7.784l25.71-12.854c4.219-2.109,9.199-2.109,13.418,0l25.71,12.854    c5.772,2.888,12.581-1.303,12.581-7.784c0-108.481,0-74.893,0-100.05C388.021,403.411,385.023,403.427,382.035,403.012z"/>
	</g>
</g>
<g>
	<g>
		<path d="M410.541,301.688c-8.787-2.778-13.11-12.847-8.789-21.211c3.018-5.815,1.934-12.861-2.725-17.49    c-4.644-4.688-11.719-5.786-17.505-2.739c-8.395,4.259-18.422,0.033-21.211-8.789c-3.955-12.51-24.668-12.51-28.623,0    c-2.78,8.795-12.867,13.085-21.211,8.789c-5.83-3.062-12.861-1.948-17.49,2.725c-4.673,4.644-5.757,11.689-2.739,17.505    c4.321,8.364-0.002,18.433-8.789,21.21C275.204,303.666,271,309.423,271,316c0,6.577,4.204,12.334,10.459,14.312    c8.787,2.776,13.11,12.847,8.789,21.211c-3.018,5.815-1.934,12.861,2.725,17.49c4.644,4.673,11.689,5.771,17.505,2.739    c8.317-4.272,18.406-0.09,21.211,8.789c3.955,12.51,24.668,12.51,28.623,0c2.794-8.84,12.887-13.044,21.211-8.789    c5.771,3.018,12.861,1.934,17.49-2.725c4.673-4.644,5.757-11.689,2.739-17.505c-4.321-8.364,0.002-18.435,8.789-21.211    C416.796,328.334,421,322.577,421,316C421,309.423,416.796,303.666,410.541,301.688z M346,361c-24.814,0-45-20.186-45-45    c0-24.814,20.186-45,45-45c24.814,0,45,20.186,45,45C391,340.814,370.814,361,346,361z"/>
	</g>
</g>
<g>
	<g>
		<path d="M346,301c-8.276,0-15,6.724-15,15s6.724,15,15,15s15-6.724,15-15S354.276,301,346,301z"/>
	</g>
</g>
<g>
	<g>
		<path d="M467,0H45C20.186,0,0,20.186,0,45v331c0,24.814,20.186,45,45,45h226v-31.708c-9.659-10.19-13.947-23.89-12.012-37.256    C247.855,343.729,241,330.531,241,316s6.855-27.729,17.988-36.035c-1.992-13.755,2.49-27.935,12.773-38.218    c10.254-10.269,24.36-14.78,38.203-12.759c16.611-22.266,55.459-22.266,72.07,0c13.799-2.007,27.935,2.49,38.218,12.773    c10.269,10.269,14.751,24.448,12.759,38.203C444.145,288.271,451,301.469,451,316s-6.855,27.729-17.988,36.035    c1.935,13.359-2.349,27.05-12.012,37.253V421h46c24.814,0,45-20.186,45-45V45C512,20.186,491.814,0,467,0z M155.395,95.395l30-30    c5.859-5.859,15.352-5.859,21.211,0L226,84.789l19.395-19.395c5.859-5.859,15.352-5.859,21.211,0L286,84.789l19.395-19.395    c5.859-5.859,15.352-5.859,21.211,0l30,30c5.859,5.859,5.859,15.352,0,21.211s-15.352,5.859-21.211,0L316,97.211l-19.395,19.395    c-5.859,5.859-15.352,5.859-21.211,0L256,97.211l-19.395,19.395c-5.859,5.859-15.352,5.859-21.211,0L196,97.211l-19.395,19.395    c-5.859,5.859-15.352,5.859-21.211,0C149.535,110.747,149.535,101.254,155.395,95.395z M196,361H75c-8.291,0-15-6.709-15-15    c0-8.291,6.709-15,15-15h121c8.291,0,15,6.709,15,15C211,354.291,204.291,361,196,361z M196,301H75c-8.291,0-15-6.709-15-15    c0-8.291,6.709-15,15-15h121c8.291,0,15,6.709,15,15C211,294.291,204.291,301,196,301z M196,241H75c-8.291,0-15-6.709-15-15    s6.709-15,15-15h121c8.291,0,15,6.709,15,15S204.291,241,196,241z M436,181H75c-8.291,0-15-6.709-15-15s6.709-15,15-15h361    c8.291,0,15,6.709,15,15S444.291,181,436,181z"/>
	</g>
</g>
<g>
</g>
<g>
</g>
<g>
</g>
<g>
</g>
<g>
</g>
<g>
</g>
<g>
</g>
<g>
</g>
<g>
</g>
<g>
</g>
<g>
</g>
<g>
</g>
<g>
</g>
<g>
</g>
<g>
</g>
</svg>
