<?xml version="1.0" encoding="iso-8859-1"?>
<!-- Generator: Adobe Illustrator 19.0.0, SVG Export Plug-In . SVG Version: 6.00 Build 0)  -->
<svg xmlns="http://www.w3.org/2000/svg" xmlns:xlink="http://www.w3.org/1999/xlink" version="1.1" id="Capa_1" x="0px" y="0px" viewBox="0 0 512 512" style="enable-background:new 0 0 512 512;" xml:space="preserve">
<g>
	<g>
		<path d="M256,272c-8.276,0-15,6.724-15,15s6.724,15,15,15s15-6.724,15-15S264.276,272,256,272z"/>
	</g>
</g>
<g>
	<g>
		<path d="M361,287c0-8.291,6.709-15,15-15h13.484c-2.915-25.908-12.984-51.429-28.477-70.796l-9.587,9.587    c-5.859,5.859-15.352,5.859-21.211,0c-5.859-5.859-5.859-15.352,0-21.211l9.587-9.587C320.429,164.5,296.908,154.431,271,151.516    v93.247c17.422,6.213,30,22.707,30,42.237c0,24.814-20.186,45-45,45c-6.927,0-13.412-1.703-19.279-4.51l-13.24,13.24    c-5.859,5.859-15.352,5.859-21.211,0s-5.859-15.352,0-21.211l13.24-13.24C212.703,300.412,211,293.927,211,287    c0-19.53,12.578-36.024,30-42.237v-93.247c-25.908,2.915-49.429,12.984-68.796,28.477l9.587,9.587    c5.859,5.859,5.859,15.352,0,21.211c-5.859,5.859-15.352,5.859-21.211,0l-9.587-9.587C135.5,220.571,125.431,246.092,122.516,272    H136c8.291,0,15,6.709,15,15c0,8.291-6.709,15-15,15h-13.484c2.915,25.908,12.984,49.429,28.477,68.796l9.587-9.587    c5.859-5.859,15.352-5.859,21.211,0s5.859,15.352,0,21.211l-9.587,9.587c19.367,15.493,42.889,25.562,68.796,28.477V407    c0-8.291,6.709-15,15-15s15,6.709,15,15v13.484c25.908-2.915,49.429-12.984,68.796-28.477l-9.587-9.587    c-5.859-5.859-5.859-15.352,0-21.211s15.352-5.859,21.211,0l9.587,9.587c15.493-19.367,25.562-42.889,28.477-68.796H376    C367.709,302,361,295.291,361,287z"/>
	</g>
</g>
<g>
	<g>
		<path d="M446.92,115.291l10.613,10.613c5.859,5.859,15.352,5.859,21.211,0s5.859-15.352,0-21.211l-42.437-42.437    c-5.859-5.859-15.352-5.859-21.211,0s-5.859,15.352,0,21.211l10.613,10.613l-21.793,21.793    C367.861,84.298,321.744,64.129,271,60.76V30h45c8.291,0,15-6.709,15-15s-6.709-15-15-15H196c-8.291,0-15,6.709-15,15    s6.709,15,15,15h45v30.76c-50.744,3.369-96.861,23.538-132.916,55.113L86.291,94.08l10.613-10.613    c5.859-5.859,5.859-15.352,0-21.211s-15.352-5.859-21.211,0l-42.437,42.437c-5.859,5.859-5.859,15.352,0,21.211    s15.352,5.859,21.211,0l10.613-10.613l21.793,21.793C52.2,176.678,31,230.354,31,287c0,124.072,100.928,225,225,225    s225-100.928,225-225c0-56.646-21.2-110.322-55.873-149.916L446.92,115.291z M256,452c-90.74,0-165-73.843-165-165    c0-90.981,74.019-167,165-167s165,76.019,165,167C421,377.74,347.157,452,256,452z"/>
	</g>
</g>
<g>
</g>
<g>
</g>
<g>
</g>
<g>
</g>
<g>
</g>
<g>
</g>
<g>
</g>
<g>
</g>
<g>
</g>
<g>
</g>
<g>
</g>
<g>
</g>
<g>
</g>
<g>
</g>
<g>
</g>
</svg>
