<?xml version="1.0" encoding="iso-8859-1"?>
<!-- Generator: Adobe Illustrator 19.0.0, SVG Export Plug-In . SVG Version: 6.00 Build 0)  -->
<svg version="1.1" id="Layer_1" xmlns="http://www.w3.org/2000/svg" xmlns:xlink="http://www.w3.org/1999/xlink" x="0px" y="0px"
	 viewBox="0 0 512 512" style="enable-background:new 0 0 512 512;" xml:space="preserve">
<g>
	<g>
		<g>
			<path d="M277.333,469.333c0-9.412-7.654-17.067-17.067-17.067c-9.412,0-17.067,7.654-17.067,17.067
				c0,9.412,7.654,17.067,17.067,17.067C269.679,486.4,277.333,478.746,277.333,469.333z"/>
			<path d="M371.533,0H149.001C130.364,0,115.2,15.164,115.2,33.801V51.2h290.133V33.801C405.333,15.164,390.17,0,371.533,0z
				 M226.133,34.133H217.6c-4.71,0-8.533-3.823-8.533-8.533c0-4.71,3.823-8.533,8.533-8.533h8.533c4.71,0,8.533,3.823,8.533,8.533
				C234.667,30.31,230.844,34.133,226.133,34.133z M294.4,34.133h-42.667c-4.71,0-8.533-3.823-8.533-8.533
				c0-4.71,3.823-8.533,8.533-8.533H294.4c4.71,0,8.533,3.823,8.533,8.533C302.933,30.31,299.11,34.133,294.4,34.133z"/>
			<path d="M294.4,469.333c0,18.825-15.309,34.133-34.133,34.133s-34.133-15.309-34.133-34.133c0-10.24,4.625-19.337,11.793-25.6
				H115.2V478.2c0,18.637,15.164,33.8,33.801,33.8h222.532c18.637,0,33.801-15.164,33.801-33.8v-34.466H282.607
				C289.775,449.997,294.4,459.093,294.4,469.333z"/>
			<path d="M243.482,299.274c13.338,13.329,25.865,21.419,37.257,24.055c12.186,2.842,23.142-0.785,33.399-11.042l8.346-8.337
				c1.365-1.365,1.681-3.448,0.776-5.163c-3.738-7.031-17.937-17.161-26.018-21.897c-1.707-0.973-2.901-0.998-3.14-0.947
				l-0.452,1.041c-8.243,9.882-10.334,11.307-11.127,11.844c-12.373,8.38-25.037,7.151-35.678-3.49l-37.751-37.743
				c-10.633-10.633-11.887-23.305-3.499-35.669c0.538-0.802,1.971-2.901,11.853-11.145l1.246-0.87c-0.162,0-0.247-1.152-1.203-2.807
				c-4.693-8.004-14.848-22.229-21.845-25.933c-0.649-0.341-1.357-0.512-2.057-0.512c-1.135,0-2.253,0.444-3.106,1.289l-8.337,8.346
				c-7.125,7.125-28.809,28.817,13.013,70.656L243.482,299.274z"/>
			<path d="M115.2,76.8c-4.71,0-8.533,3.823-8.533,8.533v8.533c0,4.71,3.823,8.533,8.533,8.533v8.533
				c-4.71,0-8.533,3.823-8.533,8.533V128c0,4.71,3.823,8.533,8.533,8.533v8.533c-4.71,0-8.533,3.823-8.533,8.533v8.533
				c0,4.71,3.823,8.533,8.533,8.533v256h290.133v-358.4H115.2V76.8z M320,230.4c23.526,0,42.667,19.14,42.667,42.667
				c0,4.71-3.814,8.533-8.533,8.533s-8.533-3.823-8.533-8.533c0-14.114-11.486-25.6-25.6-25.6c-4.719,0-8.533-3.823-8.533-8.533
				S315.281,230.4,320,230.4z M217.6,128c23.526,0,42.667,19.14,42.667,42.667c0,4.71-3.814,8.533-8.533,8.533
				c-4.719,0-8.533-3.823-8.533-8.533c0-14.114-11.486-25.6-25.6-25.6c-4.719,0-8.533-3.823-8.533-8.533S212.881,128,217.6,128z
				 M170.078,168.218l8.337-8.337c6.69-6.69,16.819-8.226,25.207-3.789c13.542,7.168,27.145,29.901,28.646,32.469
				c3.14,5.504,4.07,11.264,2.671,16.316c-1.101,3.968-3.533,7.211-7.057,9.429c-3.456,2.901-7.526,6.494-8.414,7.543
				c-3.593,5.333-3.251,8.738,1.69,13.679l37.751,37.743c4.932,4.941,8.346,5.274,14.029,1.434c0.7-0.64,4.284-4.693,7.185-8.149
				c2.219-3.524,5.461-5.956,9.421-7.057c5.077-1.399,10.82-0.478,16.239,2.611c2.662,1.562,25.395,15.155,32.555,28.698v0.009
				c4.429,8.38,2.91,18.509-3.789,25.199l-8.337,8.346c-11.213,11.204-24.081,16.956-37.709,16.956
				c-3.823,0-7.697-0.452-11.614-1.357c-14.549-3.371-29.85-12.996-45.474-28.621l-48.324-48.324
				C136.201,216.115,154.812,183.492,170.078,168.218z"/>
		</g>
	</g>
</g>
<g>
</g>
<g>
</g>
<g>
</g>
<g>
</g>
<g>
</g>
<g>
</g>
<g>
</g>
<g>
</g>
<g>
</g>
<g>
</g>
<g>
</g>
<g>
</g>
<g>
</g>
<g>
</g>
<g>
</g>
</svg>
