<?xml version="1.0" encoding="iso-8859-1"?>
<!-- Generator: Adobe Illustrator 19.0.0, SVG Export Plug-In . SVG Version: 6.00 Build 0)  -->
<svg version="1.1" id="Layer_1" xmlns="http://www.w3.org/2000/svg" xmlns:xlink="http://www.w3.org/1999/xlink" x="0px" y="0px"
	 viewBox="0 0 512 512" style="enable-background:new 0 0 512 512;" xml:space="preserve">
<g>
	<g>
		<g>
			<path d="M383.301,401.067h-15.667c-9.796,0-17.766,7.97-17.766,17.766V434.5c0,9.796,7.97,17.766,17.766,17.766h15.667
				c9.796,0,17.766-7.97,17.766-17.766v-15.667C401.068,409.037,393.097,401.067,383.301,401.067z M384.001,434.5
				c0,0.384-0.316,0.7-0.7,0.7h-15.667c-0.384,0-0.7-0.316-0.7-0.7v-15.667c0-0.384,0.316-0.7,0.7-0.7h15.667
				c0.384,0,0.7,0.316,0.7,0.7V434.5z"/>
			<path d="M480.563,25.6H289.007C285.321,10.931,272.128,0,256.333,0H33.809C15.164,0,0,15.164,0,33.809V51.2h76.8
				c4.71,0,8.533,3.814,8.533,8.533s-3.823,8.533-8.533,8.533H0v409.924C0,496.836,15.164,512,33.809,512h222.524
				c15.795,0,28.988-10.931,32.674-25.6h191.556c17.331,0,31.437-13.995,31.437-31.189V56.789C512,39.595,497.894,25.6,480.563,25.6
				z M170.667,460.1c0,9.796-7.97,17.766-17.766,17.766h-15.667c-9.796,0-17.766-7.97-17.766-17.766v-15.667
				c0-9.796,7.97-17.766,17.766-17.766H152.9c9.796,0,17.766,7.97,17.766,17.766V460.1z M273.067,418.133h-59.733
				c-4.71,0-8.533-3.814-8.533-8.533s3.823-8.533,8.533-8.533h59.733V418.133z M494.933,375.731h-51.2
				c-4.71,0-8.533,3.823-8.533,8.533c0,4.719,3.823,8.533,8.533,8.533h51.2v62.413c0,7.791-6.443,14.123-14.37,14.123h-190.43V409.6
				V238.933h81.801L335.3,275.567c-3.337,3.336-3.337,8.73,0,12.066c1.664,1.664,3.849,2.5,6.033,2.5c2.185,0,4.369-0.836,6.033-2.5
				l51.191-51.192c0.794-0.794,1.417-1.732,1.852-2.782c0.862-2.082,0.862-4.437,0-6.519c-0.435-1.05-1.058-1.988-1.852-2.782
				l-51.191-51.191c-3.337-3.337-8.73-3.337-12.066,0c-3.337,3.337-3.337,8.73,0,12.066l36.634,36.634h-81.801v-179.2h190.43
				c7.927,0,14.37,6.332,14.37,14.123V375.731z"/>
			<path d="M152.901,443.733h-15.667c-0.384,0-0.7,0.316-0.7,0.7V460.1c0,0.384,0.316,0.7,0.7,0.7h15.667c0.384,0,0.7-0.316,0.7-0.7
				v-15.667C153.601,444.049,153.285,443.733,152.901,443.733z"/>
		</g>
	</g>
</g>
<g>
</g>
<g>
</g>
<g>
</g>
<g>
</g>
<g>
</g>
<g>
</g>
<g>
</g>
<g>
</g>
<g>
</g>
<g>
</g>
<g>
</g>
<g>
</g>
<g>
</g>
<g>
</g>
<g>
</g>
</svg>
