<?xml version="1.0" encoding="iso-8859-1"?>
<!-- Generator: Adobe Illustrator 19.0.0, SVG Export Plug-In . SVG Version: 6.00 Build 0)  -->
<svg version="1.1" id="Layer_1" xmlns="http://www.w3.org/2000/svg" xmlns:xlink="http://www.w3.org/1999/xlink" x="0px" y="0px"
	 viewBox="0 0 512.003 512.003" style="enable-background:new 0 0 512.003 512.003;" xml:space="preserve">
<g>
	<g>
		<g>
			<path d="M452.029,69.282c-2.773-1.485-6.144-1.331-8.764,0.418l-71.774,47.855l-25.89-19.413V39.04
				c0-21.53-17.51-39.04-39.031-39.04H94.5C72.979,0,55.468,17.51,55.468,39.04V51.2h76.8c4.719,0,8.533,3.823,8.533,8.533
				c0,4.719-3.814,8.533-8.533,8.533h-76.8v332.8h290.133v-71.518l21.786,10.889c0.128,0.068,0.282,0.043,0.418,0.102
				c1.084,0.469,2.227,0.794,3.396,0.794c1.05,0,2.065-0.256,3.055-0.64c0.137-0.051,0.282-0.034,0.41-0.094l76.8-34.133
				c3.089-1.374,5.069-4.42,5.069-7.799V76.8C456.535,73.651,454.803,70.758,452.029,69.282z M362.668,318.993l-21.786-10.889
				l-29.414-14.711V93.867l51.2,38.4V318.993z M439.468,293.129l-59.733,26.539V132.574l59.733-39.825V293.129z"/>
			<path d="M192.701,460.803h15.667c0.384,0,0.7-0.316,0.7-0.7v-15.667c0-0.384-0.316-0.7-0.7-0.7h-15.667
				c-0.384,0-0.7,0.316-0.7,0.7v15.667C192.002,460.488,192.317,460.803,192.701,460.803z"/>
			<path d="M55.468,478.194c0,18.645,15.164,33.809,33.809,33.809h222.515c18.645,0,33.809-15.164,33.809-33.809v-60.058H55.468
				V478.194z M174.935,444.437c0-9.796,7.97-17.766,17.766-17.766h15.667c9.796,0,17.766,7.97,17.766,17.766v15.667
				c0,9.796-7.97,17.766-17.766,17.766h-15.667c-9.796,0-17.766-7.97-17.766-17.766V444.437z"/>
		</g>
	</g>
</g>
<g>
</g>
<g>
</g>
<g>
</g>
<g>
</g>
<g>
</g>
<g>
</g>
<g>
</g>
<g>
</g>
<g>
</g>
<g>
</g>
<g>
</g>
<g>
</g>
<g>
</g>
<g>
</g>
<g>
</g>
</svg>
