<?xml version="1.0" encoding="iso-8859-1"?>
<!-- Generator: Adobe Illustrator 19.0.0, SVG Export Plug-In . SVG Version: 6.00 Build 0)  -->
<svg version="1.1" id="Layer_1" xmlns="http://www.w3.org/2000/svg" xmlns:xlink="http://www.w3.org/1999/xlink" x="0px" y="0px"
	 viewBox="0 0 512 512" style="enable-background:new 0 0 512 512;" xml:space="preserve">
<g>
	<g>
		<g>
			<path d="M290.133,25.597h-42.667c-4.719,0-8.533,3.814-8.533,8.533s3.814,8.533,8.533,8.533h42.667
				c4.719,0,8.533-3.814,8.533-8.533S294.851,25.597,290.133,25.597z"/>
			<path d="M221.866,25.597h-8.533c-4.719,0-8.533,3.814-8.533,8.533s3.814,8.533,8.533,8.533h8.533
				c4.719,0,8.533-3.814,8.533-8.533S226.585,25.597,221.866,25.597z"/>
			<path d="M412.291,153.597c-9.284,0-17.143,8.013-20.514,15.471c-1.382,3.055-4.429,5.009-7.774,5.009
				c-3.354,0-6.391-1.954-7.782-5.009c-3.371-7.458-11.23-15.471-20.514-15.471c-13.542,0-21.692,11.281-22.758,22.426
				c-0.026,0.307-0.077,0.606-0.128,0.913v-0.009c0.008,0-0.307,2.765,0.922,7.586c2.022,7.987,6.767,15.309,13.713,21.18
				l36.548,30.635l36.565-30.652c6.921-5.845,11.665-13.158,13.696-21.163c1.263-5.001,0.879-7.782,0.879-7.817
				C433.982,164.879,425.833,153.597,412.291,153.597z"/>
			<path d="M401.067,95.138V59.733V33.809C401.067,15.164,385.903,0,367.258,0H144.742c-18.645,0-33.809,15.164-33.809,33.809
				v25.924V76.8c-4.719,0-8.533,3.814-8.533,8.533v8.533c0,4.71,3.814,8.533,8.533,8.533v8.533c-4.719,0-8.533,3.814-8.533,8.533
				V128c0,4.71,3.814,8.533,8.533,8.533v8.533c-4.719,0-8.533,3.814-8.533,8.533v8.533c0,4.71,3.814,8.533,8.533,8.533v26.871
				c-53.077,7.236-93.867,47.471-93.867,96.009c0,49.391,40.789,90.325,93.867,97.681V435.2v42.991
				c0,18.637,15.164,33.809,33.809,33.809h222.515c18.645,0,33.809-15.172,33.809-33.809V435.2V288.828
				c53.077-7.356,93.867-48.29,93.867-97.681C494.933,142.609,454.144,102.374,401.067,95.138z M128,33.809
				c0-9.233,7.509-16.742,16.742-16.742h222.515c9.233,0,16.742,7.509,16.742,16.742V51.2H128V33.809z M85.333,247.467h59.733
				c4.719,0,8.533,3.814,8.533,8.533c0,4.71-3.814,8.533-8.533,8.533H85.333c-4.719,0-8.533-3.823-8.533-8.533
				C76.8,251.281,80.614,247.467,85.333,247.467z M85.333,281.6h102.4c4.719,0,8.533,3.814,8.533,8.533
				c0,4.71-3.814,8.533-8.533,8.533h-102.4c-4.719,0-8.533-3.823-8.533-8.533C76.8,285.414,80.614,281.6,85.333,281.6z
				 M85.333,332.8c-4.719,0-8.533-3.823-8.533-8.533c0-4.719,3.814-8.533,8.533-8.533h85.333c4.719,0,8.533,3.814,8.533,8.533
				c0,4.71-3.814,8.533-8.533,8.533H85.333z M233.66,494.933h-88.917c-9.233,0-16.742-7.509-16.742-16.742v-34.458h105.66
				c-7.168,6.255-11.793,15.36-11.793,25.6S226.492,488.67,233.66,494.933z M256,486.4c-9.412,0-17.067-7.663-17.067-17.067
				c0-9.412,7.654-17.067,17.067-17.067c9.404,0,17.067,7.654,17.067,17.067C273.067,478.737,265.404,486.4,256,486.4z M384,478.191
				c0,9.233-7.509,16.742-16.742,16.742H278.34c7.168-6.263,11.793-15.36,11.793-25.6s-4.625-19.345-11.793-25.6H384V478.191z
				 M384,426.667H128v-34.133c14.413,0,28.211-2.509,42.052-7.672c12.544,6.545,26.402,10.487,40.226,13.235
				c6.229,1.246,12.527,3.345,18.953,2.859c7.253-0.538,13.807-8.081,7.1-14.558c-6.938-6.707-12.058-22.153-14.191-42.624
				c11.145-15.616,16.794-32.495,16.794-50.227c0-53.641-49.766-97.28-110.933-97.28v-128h256v25.6
				c-61.167,0-110.933,43.639-110.933,97.28c0,17.732,5.649,34.611,16.794,50.227c-2.133,20.471-7.253,35.917-14.191,42.624
				c-4.702,4.54-2.295,12.749,3.942,14.387c3.917,1.024,9.301-0.495,13.201-1.101c15.829-2.483,31.787-6.426,46.276-13.389
				c0.964-0.461,1.92-0.939,2.859-1.434c13.841,5.163,27.631,7.672,42.052,7.672V426.667z M450.808,188.706
				c-2.918,11.477-9.574,21.862-19.26,30.037l-42.069,35.26C387.9,255.334,385.946,256,384,256c-1.954,0-3.9-0.666-5.487-1.997
				l-42.044-35.251c-9.711-8.201-16.358-18.586-19.277-30.046c-1.929-7.646-1.485-12.757-1.203-14.609
				c2.193-21.444,19.209-37.564,39.714-37.564c11.494,0,21.35,5.897,28.297,13.645c6.938-7.748,16.802-13.645,28.288-13.645
				c20.514,0,37.53,16.119,39.723,37.564C452.292,175.949,452.745,181.06,450.808,188.706z"/>
		</g>
	</g>
</g>
<g>
</g>
<g>
</g>
<g>
</g>
<g>
</g>
<g>
</g>
<g>
</g>
<g>
</g>
<g>
</g>
<g>
</g>
<g>
</g>
<g>
</g>
<g>
</g>
<g>
</g>
<g>
</g>
<g>
</g>
</svg>
