<?xml version="1.0" encoding="iso-8859-1"?>
<!-- Generator: Adobe Illustrator 19.0.0, SVG Export Plug-In . SVG Version: 6.00 Build 0)  -->
<svg version="1.1" id="Layer_1" xmlns="http://www.w3.org/2000/svg" xmlns:xlink="http://www.w3.org/1999/xlink" x="0px" y="0px"
	 viewBox="0 0 511.998 511.998" style="enable-background:new 0 0 511.998 511.998;" xml:space="preserve">
<g>
	<g>
		<g>
			<path d="M418.056,97.476c-17.382-16.939-39.774-26.948-63.923-28.851V39.031C354.133,17.51,336.622,0,315.101,0h-212.07
				C81.51,0,63.999,17.51,63.999,39.031V51.2h76.8c4.719,0,8.533,3.814,8.533,8.533s-3.814,8.533-8.533,8.533h-76.8v332.8h290.133
				v-49.135l28.672-55.62c12.885-24.986,29.662-48.597,45.858-70.391c12.655-16.998,19.337-37.086,19.337-58.095
				C447.999,141.252,437.367,116.275,418.056,97.476z M414.967,215.74c-16.631,22.374-33.886,46.669-47.326,72.755l-22.042,42.752
				l-20.224-39.228c-14.515-28.151-33.212-54.443-49.596-76.877c-10.641-14.592-15.991-31.778-15.471-49.707
				c1.169-40.277,33.92-74.368,74.624-79.445c2.714-0.341,5.461-0.555,8.243-0.623c0.009,0,0.853,0.026,0.862,0.026l1.562,0.034
				c0.145,0,0.264-0.068,0.41-0.077c22.767,0.094,44.041,8.67,60.151,24.354c15.974,15.548,24.772,36.19,24.772,58.121
				C430.932,185.131,425.42,201.702,414.967,215.74z"/>
			<path d="M345.6,119.465c-23.526,0-42.667,19.14-42.667,42.667c0,23.526,19.14,42.667,42.667,42.667
				c23.526,0,42.667-19.14,42.667-42.667C388.267,138.605,369.126,119.465,345.6,119.465z"/>
			<path d="M201.233,460.798H216.9c0.384,0,0.7-0.316,0.7-0.7v-15.667c0-0.384-0.316-0.7-0.7-0.7h-15.667
				c-0.384,0-0.7,0.316-0.7,0.7v15.667C200.533,460.483,200.849,460.798,201.233,460.798z"/>
			<path d="M64,478.189c0,18.645,15.164,33.809,33.809,33.809h222.515c18.645,0,33.809-15.164,33.809-33.809v-60.058H64V478.189z
				 M183.467,444.431c0-9.796,7.97-17.766,17.766-17.766H216.9c9.796,0,17.766,7.97,17.766,17.766v15.667
				c0,9.796-7.97,17.766-17.766,17.766h-15.667c-9.796,0-17.766-7.97-17.766-17.766V444.431z"/>
		</g>
	</g>
</g>
<g>
</g>
<g>
</g>
<g>
</g>
<g>
</g>
<g>
</g>
<g>
</g>
<g>
</g>
<g>
</g>
<g>
</g>
<g>
</g>
<g>
</g>
<g>
</g>
<g>
</g>
<g>
</g>
<g>
</g>
</svg>
