<?xml version="1.0" encoding="iso-8859-1"?>
<!-- Generator: Adobe Illustrator 19.0.0, SVG Export Plug-In . SVG Version: 6.00 Build 0)  -->
<svg version="1.1" id="Layer_1" xmlns="http://www.w3.org/2000/svg" xmlns:xlink="http://www.w3.org/1999/xlink" x="0px" y="0px"
	 viewBox="0 0 512 512" style="enable-background:new 0 0 512 512;" xml:space="preserve">
<g>
	<g>
		<path d="M260.267,452.267c-9.387,0-17.067,7.68-17.067,17.067s7.68,17.067,17.067,17.067s17.067-7.68,17.067-17.067
			S269.653,452.267,260.267,452.267z"/>
	</g>
</g>
<g>
	<g>
		<path d="M371.2,0H149.333C130.56,0,115.2,15.36,115.2,34.133V51.2h290.133V34.133C405.333,15.36,389.973,0,371.2,0z
			 M226.133,34.133H217.6c-5.12,0-8.533-3.413-8.533-8.533s3.413-8.533,8.533-8.533h8.533c5.12,0,8.533,3.413,8.533,8.533
			S231.253,34.133,226.133,34.133z M294.4,34.133h-42.667c-5.12,0-8.533-3.413-8.533-8.533s3.413-8.533,8.533-8.533H294.4
			c5.12,0,8.533,3.413,8.533,8.533S299.52,34.133,294.4,34.133z"/>
	</g>
</g>
<g>
	<g>
		<path d="M282.453,443.733c7.68,5.973,11.947,15.36,11.947,25.6c0,18.773-15.36,34.133-34.133,34.133s-34.133-15.36-34.133-34.133
			c0-10.24,4.267-19.627,11.947-25.6H115.2v34.133c0,18.773,15.36,34.133,34.133,34.133H371.2c18.773,0,34.133-15.36,34.133-34.133
			v-34.133H282.453z"/>
	</g>
</g>
<g>
	<g>
		<path d="M293.547,238.933H225.28c-58.88,0-58.88,30.72-58.88,40.96v11.947c0,1.707,0.853,3.413,3.413,4.267
			c7.68,2.56,24.747-0.853,34.133-2.56c1.707-0.853,2.56-2.56,2.56-2.56c0-2.56-0.853-8.533,0-11.093
			c2.56-14.507,12.8-23.04,27.307-23.04h53.76c15.36,0,24.747,7.68,27.307,23.04c0.853,2.56,0,6.827-0.853,12.8
			c0,0,0.853,0.853,2.56,1.707c9.387,2.56,26.453,5.12,34.133,2.56c1.707-0.853,3.413-2.56,3.413-4.267v-11.947
			C353.28,269.653,353.28,238.933,293.547,238.933z"/>
	</g>
</g>
<g>
	<g>
		<path d="M115.2,68.267V76.8c-5.12,0-8.533,3.413-8.533,8.533v8.533c0,5.12,3.413,8.533,8.533,8.533v8.533
			c-5.12,0-8.533,3.413-8.533,8.533V128c0,5.12,3.413,8.533,8.533,8.533v8.533c-5.12,0-8.533,3.413-8.533,8.533v8.533
			c0,5.12,3.413,8.533,8.533,8.533v256h290.133v-358.4H115.2z M192,136.533c0-0.853,0-2.56,0.853-3.413
			c0.853-1.707,2.56-3.413,4.267-4.267c0.853-0.853,2.56-0.853,3.413-0.853h34.133c5.12,0,8.533,3.413,8.533,8.533
			s-3.413,8.533-8.533,8.533h-13.653l39.253,39.253l53.76-53.76c3.413-3.413,8.533-3.413,11.947,0s3.413,8.533,0,11.947
			L266.24,202.24c-1.707,1.707-3.413,2.56-5.973,2.56s-4.267-0.853-5.973-2.56l-45.227-45.227v13.653
			c0,5.12-3.413,8.533-8.533,8.533S192,175.787,192,170.667V136.533z M354.987,312.32c-3.413,0.853-8.533,1.707-12.8,1.707
			c-13.653,0-28.16-3.413-30.72-4.267c-5.973-1.707-11.093-5.12-13.653-9.387s-2.56-8.533-1.707-12.8
			c0.853-1.707,0.853-5.12,0.853-5.973c-0.853-5.973-4.267-8.533-11.093-8.533h-53.76c-6.827,0-9.387,2.56-11.093,8.533
			c0,0.853,0,3.413,0,5.973c0.853,4.267,0,7.68-1.707,11.947c-2.56,4.267-7.68,7.68-13.653,9.387
			c-2.56,0.853-29.013,6.827-43.52,2.56c-6.827-2.56-12.8-10.24-12.8-19.627v-11.947c0-21.333,10.24-58.027,75.947-58.027h68.267
			c66.56,0,75.947,35.84,75.947,58.027v11.947C369.493,291.84,370.347,309.76,354.987,312.32z"/>
	</g>
</g>
<g>
</g>
<g>
</g>
<g>
</g>
<g>
</g>
<g>
</g>
<g>
</g>
<g>
</g>
<g>
</g>
<g>
</g>
<g>
</g>
<g>
</g>
<g>
</g>
<g>
</g>
<g>
</g>
<g>
</g>
</svg>
