<?xml version="1.0" encoding="iso-8859-1"?>
<!-- Generator: Adobe Illustrator 19.0.0, SVG Export Plug-In . SVG Version: 6.00 Build 0)  -->
<svg version="1.1" id="Layer_1" xmlns="http://www.w3.org/2000/svg" xmlns:xlink="http://www.w3.org/1999/xlink" x="0px" y="0px"
	 viewBox="0 0 512 512" style="enable-background:new 0 0 512 512;" xml:space="preserve">
<g>
	<g>
		<g>
			<path d="M290.133,25.6h-42.667c-4.71,0-8.533,3.814-8.533,8.533s3.823,8.533,8.533,8.533h42.667c4.71,0,8.533-3.814,8.533-8.533
				S294.844,25.6,290.133,25.6z"/>
			<path d="M221.867,25.6h-8.533c-4.71,0-8.533,3.814-8.533,8.533s3.823,8.533,8.533,8.533h8.533c4.71,0,8.533-3.814,8.533-8.533
				S226.577,25.6,221.867,25.6z"/>
			<path d="M358.4,206.333c0,10.735,8.567,15.531,17.067,15.531c9.89,0,17.067-7.177,17.067-17.067v-17.067h-17.067
				C366.054,187.731,358.4,196.076,358.4,206.333z"/>
			<path d="M401.067,95.138V59.733V33.809c0-18.645-15.164-33.809-33.8-33.809H144.734c-18.637,0-33.801,15.164-33.801,33.809
				v25.924V76.8c-4.71,0-8.533,3.814-8.533,8.533v8.533c0,4.719,3.823,8.533,8.533,8.533v8.533c-4.71,0-8.533,3.814-8.533,8.533V128
				c0,4.719,3.823,8.533,8.533,8.533v8.533c-4.71,0-8.533,3.814-8.533,8.533v8.533c0,4.719,3.823,8.533,8.533,8.533v26.871
				c-53.077,7.236-93.867,47.471-93.867,96.009c0,49.391,40.789,90.325,93.867,97.69V435.2v42.991
				c0,18.645,15.164,33.809,33.801,33.809h222.532c18.637,0,33.8-15.164,33.8-33.809V435.2V288.836
				c53.077-7.364,93.867-48.299,93.867-97.69C494.933,142.609,454.144,102.374,401.067,95.138z M128,33.809
				c0-9.233,7.509-16.742,16.734-16.742h222.532c9.224,0,16.734,7.509,16.734,16.742V51.2H128V33.809z M93.867,238.933
				c14.114,0,25.6,11.486,25.6,25.6s-11.486,25.6-25.6,25.6s-25.6-11.486-25.6-25.6S79.753,238.933,93.867,238.933z M102.4,319.266
				l-19.567,19.567c-1.664,1.664-3.849,2.5-6.033,2.5s-4.369-0.836-6.033-2.5c-3.337-3.336-3.337-8.73,0-12.066l25.6-25.6
				c3.336-3.336,8.73-3.336,12.066,0l15.3,15.3L156.1,284.1c3.336-3.337,8.73-3.337,12.066,0l25.6,25.6
				c3.336,3.337,3.336,8.73,0,12.066c-1.664,1.664-3.849,2.5-6.033,2.5c-2.185,0-4.369-0.836-6.033-2.5L162.133,302.2
				l-26.692,26.692c1.69,3.217,1.297,7.236-1.408,9.941c-1.664,1.664-3.849,2.5-6.033,2.5c-2.185,0-4.369-0.836-6.033-2.5
				L102.4,319.266z M233.66,494.933h-88.926c-9.225,0-16.734-7.509-16.734-16.742v-34.458h105.66
				c-7.168,6.255-11.793,15.36-11.793,25.6C221.867,479.573,226.492,488.678,233.66,494.933z M256,486.4
				c-9.412,0-17.067-7.654-17.067-17.067c0-9.412,7.654-17.067,17.067-17.067c9.412,0,17.067,7.654,17.067,17.067
				C273.067,478.746,265.412,486.4,256,486.4z M384,478.191c0,9.233-7.509,16.742-16.734,16.742H278.34
				c7.168-6.255,11.793-15.36,11.793-25.6c0-10.24-4.625-19.345-11.793-25.6H384V478.191z M384,426.667H128v-34.133
				c14.413,0,28.211-2.509,42.044-7.663c12.868,6.707,27.119,10.684,41.31,13.44c6.093,1.178,12.433,3.337,18.722,2.577
				c7.049-0.845,12.518-8.448,6.255-14.49c-6.946-6.716-12.066-22.144-14.191-42.624c11.145-15.607,16.794-32.486,16.794-50.227
				c0-53.641-49.766-97.28-110.933-97.28v-128h256v25.6c-61.167,0-110.933,43.639-110.933,97.28c0,17.741,5.649,34.62,16.794,50.227
				c-2.125,20.48-7.245,35.908-14.191,42.624c-4.668,4.531-2.364,12.288,3.652,14.251c4.463,1.459,11.29-0.58,15.829-1.348
				c16.051-2.688,32.307-6.878,46.805-14.43c13.833,5.154,27.631,7.663,42.044,7.663V426.667z M409.6,179.2v8.533V204.8
				c0,19.14-14.993,34.133-34.133,34.133c-19.78,0-34.133-13.705-34.133-32.597c0-19.669,15.309-35.669,34.133-35.669h17.067v-25.6
				c0-4.719,3.823-8.533,8.533-8.533s8.533,3.814,8.533,8.533V179.2z"/>
			<path d="M93.867,273.067c4.702,0,8.533-3.823,8.533-8.533c0-4.71-3.831-8.533-8.533-8.533c-4.702,0-8.533,3.823-8.533,8.533
				C85.333,269.244,89.165,273.067,93.867,273.067z"/>
		</g>
	</g>
</g>
<g>
</g>
<g>
</g>
<g>
</g>
<g>
</g>
<g>
</g>
<g>
</g>
<g>
</g>
<g>
</g>
<g>
</g>
<g>
</g>
<g>
</g>
<g>
</g>
<g>
</g>
<g>
</g>
<g>
</g>
</svg>
