<?xml version="1.0" encoding="iso-8859-1"?>
<!-- Generator: Adobe Illustrator 19.0.0, SVG Export Plug-In . SVG Version: 6.00 Build 0)  -->
<svg version="1.1" id="Layer_1" xmlns="http://www.w3.org/2000/svg" xmlns:xlink="http://www.w3.org/1999/xlink" x="0px" y="0px"
	 viewBox="0 0 512.001 512.001" style="enable-background:new 0 0 512.001 512.001;" xml:space="preserve">
<g>
	<g>
		<g>
			<path d="M81.067,34.133c-14.114,0-25.6-11.486-25.6-25.6c0-4.71-3.814-8.533-8.533-8.533S38.4,3.823,38.4,8.533
				c0,14.114-11.486,25.6-25.6,25.6c-4.719,0-8.533,3.823-8.533,8.533c0,4.71,3.814,8.533,8.533,8.533
				c14.114,0,25.6,11.486,25.6,25.6c0,4.71,3.814,8.533,8.533,8.533s8.533-3.823,8.533-8.533c0-14.114,11.486-25.6,25.6-25.6
				c4.719,0,8.533-3.823,8.533-8.533C89.6,37.956,85.786,34.133,81.067,34.133z M46.934,51.226
				c-2.432-3.234-5.316-6.127-8.559-8.559c3.243-2.432,6.127-5.316,8.559-8.559c2.432,3.243,5.316,6.127,8.559,8.559
				C52.25,45.099,49.366,47.991,46.934,51.226z"/>
			<path d="M482.134,136.534H473.6v-8.533c0-4.71-3.814-8.533-8.533-8.533c-4.719,0-8.533,3.823-8.533,8.533v8.533H448
				c-4.719,0-8.533,3.823-8.533,8.533c0,4.71,3.814,8.533,8.533,8.533h8.533v8.533c0,4.71,3.814,8.533,8.533,8.533
				c4.719,0,8.533-3.823,8.533-8.533v-8.533h8.533c4.719,0,8.533-3.823,8.533-8.533
				C490.667,140.357,486.853,136.534,482.134,136.534z"/>
			<circle cx="64" cy="375.468" r="8.533"/>
			<circle cx="21.334" cy="221.868" r="8.533"/>
			<circle cx="439.467" cy="307.201" r="8.533"/>
			<circle cx="499.2" cy="486.401" r="8.533"/>
			<path d="M277.334,469.334c0-9.412-7.654-17.067-17.067-17.067c-9.412,0-17.067,7.654-17.067,17.067
				c0,9.412,7.654,17.067,17.067,17.067C269.679,486.401,277.334,478.746,277.334,469.334z"/>
			<path d="M371.533,0.001H149.001c-18.637,0-33.801,15.164-33.801,33.801v17.399h290.133V33.801
				C405.334,15.165,390.17,0.001,371.533,0.001z M226.134,34.134H217.6c-4.71,0-8.533-3.823-8.533-8.533
				c0-4.71,3.823-8.533,8.533-8.533h8.533c4.71,0,8.533,3.823,8.533,8.533C234.667,30.311,230.844,34.134,226.134,34.134z
				 M294.4,34.134h-42.667c-4.71,0-8.533-3.823-8.533-8.533c0-4.71,3.823-8.533,8.533-8.533H294.4c4.71,0,8.533,3.823,8.533,8.533
				C302.934,30.311,299.111,34.134,294.4,34.134z"/>
			<path d="M294.4,469.334c0,18.825-15.309,34.133-34.133,34.133s-34.133-15.309-34.133-34.133c0-10.24,4.625-19.337,11.793-25.6
				H115.2V478.2c0,18.637,15.164,33.8,33.801,33.8h222.532c18.637,0,33.8-15.164,33.8-33.8v-34.466H282.607
				C289.775,449.998,294.4,459.094,294.4,469.334z"/>
			<path d="M260.267,273.068c9.412,0,17.067-7.654,17.067-17.067c0-9.412-7.654-17.067-17.067-17.067
				c-9.412,0-17.067,7.654-17.067,17.067C243.2,265.413,250.855,273.068,260.267,273.068z"/>
			<path d="M197.999,283.282c4.676,10.709,3.55,22.886-2.995,32.563l-3.089,4.548l6.554,6.554l4.651-3.405
				c9.395-6.904,21.53-8.491,32.41-4.224s18.697,13.67,20.907,25.148l1.033,5.402h9.267l0.282-1.86
				c1.818-11.802,9.481-21.581,20.523-26.155c11.042-4.574,23.39-3.081,33.007,3.977l1.519,1.109l6.554-6.545l-3.089-4.548
				c-6.545-9.677-7.671-21.854-2.995-32.563s14.353-18.167,25.907-19.942l5.692-0.879v-9.259l-5.402-1.041
				c-11.477-2.202-20.873-10.018-25.148-20.89c-4.267-10.88-2.697-23.006,4.216-32.427l3.405-4.651l-6.545-6.545l-4.54,3.081
				c-9.694,6.554-21.862,7.672-32.572,3.012c-10.709-4.676-18.167-14.362-19.942-25.916l-0.87-5.692h-9.267l-1.724,8.994
				c-2.159,11.221-9.754,20.531-20.309,24.909c-10.573,4.378-22.519,3.157-31.974-3.26l-7.586-5.129l-6.545,6.545l3.405,4.642
				c6.912,9.429,8.482,21.555,4.215,32.435c-4.275,10.871-13.67,18.688-25.148,20.89l-5.402,1.041v9.259l5.692,0.879
				C183.646,265.115,193.323,272.573,197.999,283.282z M260.267,221.868c18.825,0,34.133,15.309,34.133,34.133
				c0,18.825-15.309,34.133-34.133,34.133s-34.133-15.309-34.133-34.133C226.134,237.176,241.443,221.868,260.267,221.868z"/>
			<path d="M115.2,76.803c-4.71,0-8.533,3.823-8.533,8.533v8.533c0,4.71,3.823,8.533,8.533,8.533v8.533
				c-4.71,0-8.533,3.823-8.533,8.533v8.533c0,4.71,3.823,8.533,8.533,8.533v8.533c-4.71,0-8.533,3.823-8.533,8.533v8.533
				c0,4.71,3.823,8.533,8.533,8.533v256h290.133v-358.4H115.2V76.803z M149.334,246.155c0-4.087,2.901-7.612,6.929-8.38
				l12.322-2.372c5.777-1.109,10.325-4.89,12.476-10.368c2.159-5.487,1.391-11.349-2.091-16.102l-7.748-10.547
				c-2.492-3.396-2.133-8.107,0.853-11.085l16.717-16.708c2.893-2.884,7.45-3.311,10.82-1.033l13.414,9.088
				c4.762,3.234,10.539,3.831,15.872,1.621c5.316-2.202,8.994-6.707,10.078-12.365l3.055-15.915
				c0.776-4.019,4.292-6.921,8.388-6.921h23.629c4.207,0,7.791,3.072,8.44,7.228l1.988,12.937c0.896,5.82,4.506,10.505,9.899,12.86
				c5.393,2.355,11.281,1.818,16.171-1.493l10.368-7.031c3.396-2.295,7.936-1.86,10.829,1.024l16.717,16.708
				c2.987,2.978,3.345,7.689,0.853,11.085l-7.748,10.556c-3.482,4.745-4.25,10.607-2.091,16.094
				c2.15,5.478,6.699,9.259,12.476,10.368l12.322,2.372c4.028,0.768,6.929,4.292,6.929,8.38v23.629c0,4.215-3.072,7.791-7.236,8.431
				l-12.919,1.997c-5.828,0.896-10.522,4.506-12.868,9.899c-2.355,5.393-1.818,11.29,1.493,16.162l7.031,10.394
				c2.287,3.388,1.86,7.919-1.033,10.812l-16.708,16.708c-2.987,2.987-7.689,3.32-11.085,0.845l-7.415-5.436
				c-4.787-3.499-10.897-4.25-16.384-1.971c-5.487,2.261-9.293,7.125-10.189,12.979l-1.399,9.097
				c-0.649,4.164-4.233,7.236-8.44,7.236H250.42c-4.096,0-7.612-2.91-8.388-6.929l-2.364-12.322
				c-1.109-5.777-4.89-10.325-10.377-12.476c-5.47-2.133-11.341-1.382-16.085,2.091l-10.556,7.74
				c-3.379,2.483-8.098,2.133-11.076-0.853l-16.708-16.708c-2.893-2.893-3.319-7.424-1.033-10.812l7.031-10.394
				c3.311-4.873,3.849-10.769,1.493-16.162c-2.347-5.393-7.04-9.003-12.868-9.899l-12.919-1.997
				c-4.164-0.64-7.236-4.215-7.236-8.431V246.155z"/>
		</g>
	</g>
</g>
<g>
</g>
<g>
</g>
<g>
</g>
<g>
</g>
<g>
</g>
<g>
</g>
<g>
</g>
<g>
</g>
<g>
</g>
<g>
</g>
<g>
</g>
<g>
</g>
<g>
</g>
<g>
</g>
<g>
</g>
</svg>
