<?xml version="1.0" encoding="iso-8859-1"?>
<!-- Generator: Adobe Illustrator 19.0.0, SVG Export Plug-In . SVG Version: 6.00 Build 0)  -->
<svg version="1.1" id="Layer_1" xmlns="http://www.w3.org/2000/svg" xmlns:xlink="http://www.w3.org/1999/xlink" x="0px" y="0px"
	 viewBox="0 0 512 512" style="enable-background:new 0 0 512 512;" xml:space="preserve">
<g>
	<g>
		<g>
			<path d="M298.668,25.6h-42.667c-4.719,0-8.533,3.814-8.533,8.533s3.814,8.533,8.533,8.533h42.667
				c4.719,0,8.533-3.814,8.533-8.533S303.386,25.6,298.668,25.6z"/>
			<path d="M230.401,25.6h-8.533c-4.719,0-8.533,3.814-8.533,8.533s3.814,8.533,8.533,8.533h8.533c4.719,0,8.533-3.814,8.533-8.533
				S235.12,25.6,230.401,25.6z"/>
			<path d="M477.602,93.867H409.6V59.733V33.809C409.6,15.164,394.436,0,375.791,0H153.276c-18.645,0-33.809,15.164-33.809,33.809
				v25.924V76.8c-4.719,0-8.533,3.814-8.533,8.533v8.533c0,4.719,3.814,8.533,8.533,8.533v8.533c-4.719,0-8.533,3.814-8.533,8.533
				V128c0,4.719,3.814,8.533,8.533,8.533V179.2H34.398C15.437,179.2,0,194.637,0,213.598v118.938
				c0,18.961,15.437,34.398,34.398,34.398h85.069V435.2v42.991c0,18.645,15.164,33.809,33.809,33.809h222.515
				c18.645,0,33.809-15.164,33.809-33.809V435.2V281.6h68.002c18.97,0,34.398-15.437,34.398-34.398V128.265
				C512,109.303,496.572,93.867,477.602,93.867z M136.533,33.809c0-9.233,7.509-16.742,16.742-16.742h222.515
				c9.233,0,16.742,7.509,16.742,16.742V51.2h-256V33.809z M68.267,332.8c-4.719,0-8.533-3.814-8.533-8.533v-59.733
				c0-4.719,3.814-8.533,8.533-8.533H76.8v-8.533c0-18.825,15.309-34.133,34.133-34.133s34.133,15.309,34.133,34.133V256h8.533
				c4.719,0,8.533,3.814,8.533,8.533v59.733c0,4.719-3.814,8.533-8.533,8.533H68.267z M242.193,494.933h-88.917
				c-9.233,0-16.742-7.509-16.742-16.742v-34.458h105.66c-7.168,6.263-11.793,15.36-11.793,25.6
				C230.4,479.573,235.025,488.67,242.193,494.933z M264.533,486.4c-9.404,0-17.067-7.654-17.067-17.067
				c0-9.412,7.663-17.067,17.067-17.067c9.412,0,17.067,7.654,17.067,17.067C281.6,478.746,273.946,486.4,264.533,486.4z
				 M392.533,478.191c0,9.233-7.509,16.742-16.742,16.742h-88.917c7.168-6.263,11.793-15.36,11.793-25.6
				c0-10.24-4.625-19.337-11.793-25.6h105.66V478.191z M392.533,426.667h-256v-59.733h11.025l14.916,37.299
				c1.297,3.243,4.437,5.367,7.927,5.367c3.49,0,6.622-2.125,7.927-5.367l15.121-37.828c16.128-2.833,28.416-16.947,28.416-33.869
				V213.598c0-18.961-15.428-34.398-34.398-34.398h-50.935V68.267h256v25.6h-68.002c-18.961,0-34.398,15.437-34.398,34.398v118.938
				c0,16.922,12.297,31.036,28.416,33.869l15.13,37.828c1.297,3.243,4.429,5.367,7.919,5.367c3.499,0,6.63-2.125,7.927-5.367
				l14.916-37.299h28.092V426.667z M438.084,238.933l-21.427-0.06l-0.444,0.06H365.73c-18.15,0-32.93-15.889-32.93-35.43
				c0-11.989,5.828-23.253,15.112-29.739c4.233-12.851,16.469-21.436,29.312-20.446c7.782-10.487,19.669-16.785,32.256-16.785
				c20.565,0,37.811,16.529,40.849,37.948c11.315,5.188,19.004,17.246,19.004,30.874
				C469.333,223.872,455.322,238.933,438.084,238.933z"/>
			<path d="M440.534,189.117l-6.716-1.399l-0.085-6.861c-0.171-15.027-11.059-27.255-24.252-27.255
				c-8.499,0-16.239,4.975-20.71,13.303l-3.482,6.477l-6.921-2.483c-6.485-2.287-13.252,2.569-14.72,10.001l-0.794,3.994
				l-3.593,1.903c-5.7,3.012-9.395,9.574-9.395,16.708c0,10.121,7.117,18.364,15.863,18.364l51.823-0.034l20.531,0.034
				c7.817,0,14.182-7.407,14.182-16.512C452.268,197.479,447.224,190.499,440.534,189.117z"/>
			<path d="M128.001,247.467c0-9.412-7.654-17.067-17.067-17.067c-9.412,0-17.067,7.654-17.067,17.067V256h34.133V247.467z"/>
			<rect x="76.801" y="273.067" width="68.267" height="42.667"/>
		</g>
	</g>
</g>
<g>
</g>
<g>
</g>
<g>
</g>
<g>
</g>
<g>
</g>
<g>
</g>
<g>
</g>
<g>
</g>
<g>
</g>
<g>
</g>
<g>
</g>
<g>
</g>
<g>
</g>
<g>
</g>
<g>
</g>
</svg>
