<?xml version="1.0" encoding="iso-8859-1"?>
<!-- Generator: Adobe Illustrator 19.0.0, SVG Export Plug-In . SVG Version: 6.00 Build 0)  -->
<svg version="1.1" id="Layer_1" xmlns="http://www.w3.org/2000/svg" xmlns:xlink="http://www.w3.org/1999/xlink" x="0px" y="0px"
	 viewBox="0 0 512 512" style="enable-background:new 0 0 512 512;" xml:space="preserve">
<g>
	<g>
		<g>
			<path d="M476.134,145.067H384V33.809C384,15.164,368.836,0,350.199,0H127.667C109.03,0,93.867,15.164,93.867,33.809v8.858H35.866
				c-10.368,0-18.799,8.431-18.799,18.799v56.269c0,10.368,8.431,18.799,18.799,18.799h58.001v136.533H35.866
				c-10.368,0-18.799,8.431-18.799,18.799v64.802c0,10.368,8.431,18.799,18.799,18.799h58.001v102.724
				c0,18.645,15.164,33.809,33.801,33.809h222.532C368.836,512,384,496.836,384,478.191v-60.058h-76.8
				c-4.71,0-8.533-3.814-8.533-8.533s3.823-8.533,8.533-8.533H384v-153.6h92.134c10.368,0,18.799-8.431,18.799-18.799v-64.802
				C494.933,153.498,486.502,145.067,476.134,145.067z M35.866,119.467c-0.956,0-1.732-0.777-1.732-1.732V61.466
				c0-0.956,0.777-1.732,1.732-1.732h58.001h143.334c0.956,0,1.732,0.777,1.732,1.732v56.269c0,0.956-0.777,1.732-1.732,1.732
				h-18.867l-22.067,22.067l-22.067-22.067H93.867H35.866z M174.199,358.4H93.867H35.866c-0.956,0-1.732-0.777-1.732-1.732v-64.802
				c0-0.956,0.777-1.732,1.732-1.732h58.001h143.334c0.956,0,1.732,0.777,1.732,1.732v64.802c0,0.956-0.777,1.732-1.732,1.732
				h-18.867l-22.067,22.067L174.199,358.4z M264.533,460.1c0,9.805-7.97,17.766-17.766,17.766H231.1
				c-9.796,0-17.766-7.962-17.766-17.766v-15.667c0-9.796,7.97-17.766,17.766-17.766h15.667c9.796,0,17.766,7.97,17.766,17.766
				V460.1z M477.867,228.668c0,0.956-0.777,1.732-1.732,1.732H384h-46.199l-22.067,22.067L293.666,230.4h-18.867
				c-0.956,0-1.732-0.777-1.732-1.732v-64.802c0-0.956,0.777-1.732,1.732-1.732H384h92.134c0.956,0,1.732,0.776,1.732,1.732V228.668
				z"/>
			<path d="M246.767,443.734H231.1c-0.384,0-0.7,0.316-0.7,0.7v15.667c0,0.384,0.316,0.7,0.7,0.7h15.667c0.384,0,0.7-0.316,0.7-0.7
				v-15.667C247.467,444.05,247.151,443.734,246.767,443.734z"/>
		</g>
	</g>
</g>
<g>
</g>
<g>
</g>
<g>
</g>
<g>
</g>
<g>
</g>
<g>
</g>
<g>
</g>
<g>
</g>
<g>
</g>
<g>
</g>
<g>
</g>
<g>
</g>
<g>
</g>
<g>
</g>
<g>
</g>
</svg>
