<?xml version="1.0" encoding="iso-8859-1"?>
<!-- Generator: Adobe Illustrator 19.0.0, SVG Export Plug-In . SVG Version: 6.00 Build 0)  -->
<svg version="1.1" id="Layer_1" xmlns="http://www.w3.org/2000/svg" xmlns:xlink="http://www.w3.org/1999/xlink" x="0px" y="0px"
	 viewBox="0 0 512.005 512.005" style="enable-background:new 0 0 512.005 512.005;" xml:space="preserve">
<g>
	<g>
		<g>
			<path d="M469.336,51.202c-4.719,0-8.533,3.814-8.533,8.533s3.814,8.533,8.533,8.533h8.533c4.719,0,8.533-3.814,8.533-8.533
				s-3.814-8.533-8.533-8.533H469.336z"/>
			<path d="M401.069,51.202c-4.719,0-8.533,3.814-8.533,8.533s3.814,8.533,8.533,8.533h8.533c4.719,0,8.533-3.814,8.533-8.533
				s-3.814-8.533-8.533-8.533H401.069z"/>
			<path d="M341.336,51.202h-8.533c-4.719,0-8.533,3.814-8.533,8.533s3.814,8.533,8.533,8.533h8.533
				c4.719,0,8.533-3.814,8.533-8.533S346.055,51.202,341.336,51.202z"/>
			<path d="M443.736,51.202h-8.533c-4.719,0-8.533,3.814-8.533,8.533s3.814,8.533,8.533,8.533h8.533
				c4.719,0,8.533-3.814,8.533-8.533S448.455,51.202,443.736,51.202z"/>
			<path d="M307.203,51.202h-8.533c-4.719,0-8.533,3.814-8.533,8.533s3.814,8.533,8.533,8.533h8.533
				c4.719,0,8.533-3.814,8.533-8.533S311.922,51.202,307.203,51.202z"/>
			<path d="M273.069,51.202h-8.533c-4.719,0-8.533,3.814-8.533,8.533s3.814,8.533,8.533,8.533h8.533
				c4.719,0,8.533-3.814,8.533-8.533S277.788,51.202,273.069,51.202z"/>
			<path d="M375.469,51.202h-8.533c-4.719,0-8.533,3.814-8.533,8.533s3.814,8.533,8.533,8.533h8.533
				c4.719,0,8.533-3.814,8.533-8.533S380.188,51.202,375.469,51.202z"/>
			<path d="M503.469,212.755c-4.719,0-8.533,3.814-8.533,8.533v5.197c-4.958-2.859-10.624-4.617-16.734-4.617h-17.399v290.133
				h17.399c18.637,0,33.8-15.164,33.8-33.8V259.458v-3.789v-0.478c0-0.171-0.085-0.307-0.094-0.478
				c-0.188-6.272-2.065-12.1-5.222-17.067c3.115-1.271,5.316-4.309,5.316-7.885v-8.474
				C512.003,216.569,508.188,212.755,503.469,212.755z M494.936,401.068c0,4.71-3.823,8.533-8.533,8.533s-8.533-3.823-8.533-8.533
				v-42.667c0-4.71,3.823-8.533,8.533-8.533s8.533,3.823,8.533,8.533V401.068z M494.936,332.802c0,4.71-3.823,8.533-8.533,8.533
				s-8.533-3.823-8.533-8.533v-8.533c0-4.71,3.823-8.533,8.533-8.533s8.533,3.823,8.533,8.533V332.802z"/>
			<path d="M503.469,178.835c-4.719,0-8.533,3.814-8.533,8.533v8.474c0,4.719,3.814,8.533,8.533,8.533
				c4.719,0,8.533-3.814,8.533-8.533v-8.474C512.003,182.649,508.188,178.835,503.469,178.835z"/>
			<path d="M503.469,77.094c-4.719,0-8.533,3.814-8.533,8.533v8.482c0,4.719,3.814,8.533,8.533,8.533
				c4.719,0,8.533-3.814,8.533-8.533v-8.482C512.003,80.908,508.188,77.094,503.469,77.094z"/>
			<path d="M503.469,144.927c-4.719,0-8.533,3.814-8.533,8.533v8.474c0,4.719,3.814,8.533,8.533,8.533
				c4.719,0,8.533-3.814,8.533-8.533v-8.474C512.003,148.741,508.188,144.927,503.469,144.927z"/>
			<path d="M296.794,17.068h8.482c4.719,0,8.533-3.814,8.533-8.533s-3.814-8.533-8.533-8.533h-8.482
				c-4.719,0-8.533,3.814-8.533,8.533S292.076,17.068,296.794,17.068z"/>
			<path d="M493.411,29.802c1.348,3.302,4.531,5.291,7.893,5.291c1.084,0,2.176-0.196,3.243-0.64
				c4.352-1.783,6.443-6.767,4.651-11.136c-1.391-3.388-3.268-6.554-5.589-9.404c-2.978-3.652-8.337-4.198-12.006-1.246
				c-3.661,2.978-4.207,8.354-1.237,12.006C491.628,26.226,492.652,27.95,493.411,29.802z"/>
			<path d="M262.911,17.51c0.495,0,0.998-0.043,1.502-0.137c1.161-0.196,2.355-0.307,3.584-0.307h3.362
				c4.719,0,8.533-3.814,8.533-8.533c0-4.71-3.814-8.533-8.533-8.533h-3.362c-2.219,0-4.429,0.196-6.571,0.58
				c-4.642,0.819-7.731,5.248-6.903,9.89C255.257,14.601,258.849,17.51,262.911,17.51z"/>
			<path d="M330.711,17.068h8.474c4.719,0,8.533-3.814,8.533-8.533s-3.814-8.533-8.533-8.533h-8.474
				c-4.719,0-8.533,3.814-8.533,8.533S325.992,17.068,330.711,17.068z"/>
			<path d="M398.536,17.068h8.482c4.719,0,8.533-3.814,8.533-8.533s-3.814-8.533-8.533-8.533h-8.482
				c-4.719,0-8.533,3.814-8.533,8.533S393.817,17.068,398.536,17.068z"/>
			<path d="M432.452,17.068h8.474c4.719,0,8.533-3.814,8.533-8.533s-3.814-8.533-8.533-8.533h-8.474
				c-4.719,0-8.533,3.814-8.533,8.533S427.733,17.068,432.452,17.068z"/>
			<path d="M503.469,43.185c-4.719,0-8.533,3.814-8.533,8.533v8.474c0,4.719,3.814,8.533,8.533,8.533
				c4.719,0,8.533-3.814,8.533-8.533v-8.474C512.003,46.999,508.188,43.185,503.469,43.185z"/>
			<path d="M364.628,17.068h8.474c4.719,0,8.533-3.814,8.533-8.533s-3.814-8.533-8.533-8.533h-8.474
				c-4.719,0-8.533,3.814-8.533,8.533S359.909,17.068,364.628,17.068z"/>
			<path d="M503.469,111.01c-4.719,0-8.533,3.814-8.533,8.533v8.474c0,4.719,3.814,8.533,8.533,8.533
				c4.719,0,8.533-3.814,8.533-8.533v-8.474C512.003,114.825,508.188,111.01,503.469,111.01z"/>
			<path d="M238.936,209.06c4.719,0,8.533-3.814,8.533-8.533v-8.482c0-4.719-3.814-8.533-8.533-8.533s-8.533,3.814-8.533,8.533
				v8.482C230.403,205.245,234.217,209.06,238.936,209.06z"/>
			<path d="M237.778,39.327c0.64,0.154,1.28,0.213,1.92,0.213c3.883,0,7.398-2.671,8.303-6.622c0.444-1.929,1.178-3.78,2.167-5.513
				c2.355-4.096,0.939-9.31-3.149-11.656c-4.096-2.347-9.31-0.93-11.648,3.149c-1.835,3.191-3.174,6.63-4.002,10.206
				C230.311,33.695,233.178,38.269,237.778,39.327z"/>
			<path d="M238.936,175.143c4.719,0,8.533-3.814,8.533-8.533v-8.474c0-4.719-3.814-8.533-8.533-8.533s-8.533,3.814-8.533,8.533
				v8.474C230.403,171.329,234.217,175.143,238.936,175.143z"/>
			<path d="M474.844,17.068c4.719,0,8.32-3.814,8.32-8.533s-4.036-8.533-8.755-8.533h-8.038c-4.719,0-8.533,3.814-8.533,8.533
				s3.814,8.533,8.533,8.533H474.844z"/>
			<path d="M238.936,73.402c4.719,0,8.533-3.814,8.533-8.533v-8.474c0-4.719-3.814-8.533-8.533-8.533s-8.533,3.814-8.533,8.533
				v8.474C230.403,69.588,234.217,73.402,238.936,73.402z"/>
			<path d="M238.936,141.227c4.719,0,8.533-3.814,8.533-8.533v-8.474c0-4.719-3.814-8.533-8.533-8.533s-8.533,3.814-8.533,8.533
				v8.474C230.403,137.412,234.217,141.227,238.936,141.227z"/>
			<path d="M238.936,107.319c4.719,0,8.533-3.814,8.533-8.533v-8.482c0-4.719-3.814-8.533-8.533-8.533s-8.533,3.814-8.533,8.533
				v8.482C230.403,103.504,234.217,107.319,238.936,107.319z"/>
			<path d="M158.602,85.335l-36.634,36.634c-3.336,3.337-3.336,8.73,0,12.066c1.664,1.664,3.849,2.5,6.033,2.5
				c2.185,0,4.369-0.836,6.033-2.5l51.191-51.191c0.794-0.785,1.417-1.732,1.852-2.782c0.862-2.082,0.862-4.429,0-6.519
				c-0.435-1.05-1.058-1.997-1.852-2.782l-51.191-51.191c-3.337-3.337-8.73-3.337-12.066,0c-3.336,3.336-3.336,8.73,0,12.066
				l36.634,36.634h-22.067c-61.167,0-110.933,49.766-110.933,110.933c0,4.719,3.814,8.533,8.533,8.533s8.533-3.814,8.533-8.533
				c0-51.755,42.112-93.867,93.867-93.867H158.602z"/>
			<path d="M25.603,366.935c0,9.412,7.654,17.067,17.067,17.067c9.412,0,17.067-7.654,17.067-17.067s-7.654-17.067-17.067-17.067
				C33.257,349.868,25.603,357.523,25.603,366.935z"/>
			<path d="M0.003,255.672v222.524c0,18.645,15.164,33.809,33.801,33.809h34.466V389.27c-6.263,7.168-15.36,11.802-25.6,11.802
				c-18.825,0-34.133-15.317-34.133-34.133c0-18.825,15.309-34.133,34.133-34.133c10.24,0,19.336,4.625,25.6,11.793V221.872H33.803
				C15.166,221.872,0.003,237.027,0.003,255.672z"/>
			<path d="M323.32,396.352c-1.707-0.964-2.91-1.007-3.14-0.939l-0.444,1.041c-8.243,9.882-10.342,11.307-11.136,11.844
				c-12.399,8.371-25.071,7.125-35.678-3.49l-37.751-37.751c-10.633-10.624-11.878-23.287-3.499-35.661
				c0.546-0.811,1.971-2.91,11.853-11.153l1.246-0.862c-0.162,0-0.256-1.152-1.203-2.816c-4.693-7.996-14.848-22.212-21.845-25.924
				c-0.649-0.341-1.357-0.512-2.057-0.512c-1.135,0-2.253,0.444-3.106,1.289l-8.337,8.346c-7.125,7.125-28.817,28.817,13.013,70.656
				l48.324,48.324c41.839,41.822,63.539,20.139,70.656,13.013l8.346-8.337c1.365-1.365,1.681-3.439,0.777-5.171
				C345.601,411.226,331.401,401.097,323.32,396.352z"/>
			<path d="M426.668,213.337h-8.533c-4.71,0-8.533,3.823-8.533,8.533h-8.533c0-4.71-3.823-8.533-8.533-8.533h-8.533
				c-4.71,0-8.533,3.823-8.533,8.533h-8.533c0-4.71-3.823-8.533-8.533-8.533h-8.533c-4.71,0-8.533,3.823-8.533,8.533h-95.172
				c-1.485-2.509-4.096-4.267-7.228-4.267c-3.123,0-5.743,1.758-7.228,4.267H85.335v290.133h358.4V221.87h-8.533
				C435.202,217.16,431.379,213.337,426.668,213.337z M360.629,435.485l-8.346,8.346c-7.962,7.962-20.659,16.845-37.649,16.845
				c-15.556,0-34.714-7.441-57.139-29.867l-48.324-48.324c-46.891-46.908-28.279-79.522-13.013-94.788l8.337-8.346
				c6.69-6.69,16.828-8.226,25.199-3.789c13.551,7.168,27.153,29.901,28.655,32.461c3.14,5.521,4.07,11.29,2.671,16.333
				c-1.101,3.959-3.533,7.202-7.066,9.421c-3.448,2.901-7.526,6.502-8.414,7.543c-3.584,5.333-3.243,8.738,1.698,13.67
				l37.751,37.751c4.932,4.932,8.337,5.274,14.029,1.434c0.7-0.64,4.284-4.702,7.185-8.149c2.219-3.533,5.461-5.965,9.429-7.066
				c5.052-1.408,10.803-0.478,16.23,2.62c2.654,1.553,25.387,15.155,32.555,28.698v0.009
				C368.855,418.657,367.328,428.795,360.629,435.485z"/>
		</g>
	</g>
</g>
<g>
</g>
<g>
</g>
<g>
</g>
<g>
</g>
<g>
</g>
<g>
</g>
<g>
</g>
<g>
</g>
<g>
</g>
<g>
</g>
<g>
</g>
<g>
</g>
<g>
</g>
<g>
</g>
<g>
</g>
</svg>
