<?xml version="1.0" encoding="iso-8859-1"?>
<!-- Generator: Adobe Illustrator 19.0.0, SVG Export Plug-In . SVG Version: 6.00 Build 0)  -->
<svg version="1.1" id="Layer_1" xmlns="http://www.w3.org/2000/svg" xmlns:xlink="http://www.w3.org/1999/xlink" x="0px" y="0px"
	 viewBox="0 0 512 512" style="enable-background:new 0 0 512 512;" xml:space="preserve">
<g>
	<g>
		<g>
			<path d="M298.669,25.603h-42.667c-4.71,0-8.533,3.814-8.533,8.533s3.823,8.533,8.533,8.533h42.667
				c4.71,0,8.533-3.814,8.533-8.533S303.38,25.603,298.669,25.603z"/>
			<path d="M230.403,25.603h-8.533c-4.71,0-8.533,3.814-8.533,8.533s3.823,8.533,8.533,8.533h8.533c4.71,0,8.533-3.814,8.533-8.533
				S235.113,25.603,230.403,25.603z"/>
			<path d="M477.611,93.867H409.6V59.733V33.809C409.6,15.172,394.436,0,375.799,0H153.276c-18.645,0-33.809,15.172-33.809,33.809
				v25.924V76.8c-4.71,0-8.533,3.823-8.533,8.533v8.533c0,4.719,3.823,8.533,8.533,8.533v8.533c-4.71,0-8.533,3.823-8.533,8.533V128
				c0,4.719,3.823,8.533,8.533,8.533V179.2H34.398C15.428,179.2,0,194.637,0,213.606v118.929c0,18.97,15.428,34.398,34.398,34.398
				h85.069V435.2v42.991c0,18.645,15.164,33.809,33.809,33.809h222.524c18.637,0,33.801-15.164,33.801-33.809V435.2V281.6h68.011
				c18.961,0,34.389-15.428,34.389-34.398V128.273C512,109.303,496.572,93.867,477.611,93.867z M136.533,33.809
				c0-9.233,7.509-16.742,16.742-16.742h222.524c9.225,0,16.734,7.509,16.734,16.742V51.2h-256V33.809z M127.983,325.99
				c-6.118-3.055-9.916-9.199-9.916-16.034v-9.66c0-2.065,0.751-4.062,2.108-5.615c0.529-0.614,1.143-1.391,1.792-2.321
				c2.765-3.908,4.949-8.311,6.494-13.099c0.785-2.466,2.662-4.437,5.06-5.35v-9.694c-1.783-1.613-2.568-3.294-2.568-5.709v-14.908
				c0-0.375,0.017-0.742,0.068-1.118c-0.009,0,0.299-3.857-2.517-6.938c-3.081-3.371-9.156-5.146-17.57-5.146
				c-8.499,0-14.541,1.801-17.476,5.214c-2.543,2.961-2.227,6.69-2.227,6.724c0.068,0.418,0.094,0.836,0.094,1.263v14.908
				c0,2.424-1.024,4.719-2.816,6.34l0.239,9.677c1.86,1.212,2.85,2.415,3.345,4.574c2.057,8.951,7.526,15.684,7.578,15.753
				c1.254,1.527,1.963,3.465,1.963,5.444v9.412c0,6.571-3.576,12.604-9.344,15.735c-0.478,0.265-0.981,0.478-1.502,0.64
				l-19.934,6.323c-0.862,0.273-1.732,0.392-2.586,0.392c-3.618,0-6.98-2.313-8.132-5.956c-1.425-4.489,1.067-9.284,5.555-10.709
				l18.722-5.931c0.102-0.145,0.154-0.307,0.154-0.495v-6.596c-2.313-3.337-6.093-9.557-8.371-17.365
				c-2.867-2.995-4.514-6.989-4.514-11.221v-10.308c0-3.106,0.913-6.127,2.577-8.721v-11.435
				c-0.256-2.833-0.444-11.785,6.263-19.584c6.366-7.39,16.606-11.145,30.413-11.145c13.798,0,24.073,3.738,30.532,11.102
				c6.861,7.825,6.758,16.836,6.554,19.558v11.503c1.655,2.594,2.569,5.615,2.569,8.721v10.308c0,5.504-2.722,10.445-7.1,13.406
				c-1.954,5.12-4.506,9.924-7.586,14.293c-0.265,0.367-0.521,0.717-0.768,1.05v6.682c0,0.179,0.06,0.358,0.162,0.495l20.548,5.589
				c4.54,1.229,7.228,5.922,5.99,10.462c-1.229,4.548-5.888,7.287-10.47,5.999l-21.82-5.922
				C129.007,326.434,128.478,326.238,127.983,325.99z M242.202,494.933h-88.926c-9.233,0-16.742-7.501-16.742-16.742v-34.458
				h105.668c-7.168,6.263-11.802,15.36-11.802,25.6C230.4,479.582,235.034,488.678,242.202,494.933z M264.533,486.4
				c-9.412,0-17.067-7.654-17.067-17.067c0-9.404,7.654-17.067,17.067-17.067c9.412,0,17.067,7.663,17.067,17.067
				C281.6,478.746,273.946,486.4,264.533,486.4z M392.533,478.191c0,9.242-7.509,16.742-16.734,16.742h-88.926
				c7.168-6.255,11.793-15.351,11.793-25.6c0-10.24-4.625-19.337-11.793-25.6h105.66V478.191z M392.533,426.667h-256v-59.733h11.025
				l14.925,37.299c1.297,3.243,4.437,5.367,7.927,5.367c3.482,0,6.622-2.125,7.919-5.367l15.13-37.82
				c16.119-2.833,28.407-16.947,28.407-33.877V213.606c0-18.97-15.428-34.406-34.389-34.406h-50.944V68.267h256v25.6h-68.002
				c-18.97,0-34.398,15.437-34.398,34.406v118.929c0,16.93,12.288,31.044,28.407,33.877l15.13,37.82
				c1.297,3.243,4.437,5.367,7.927,5.367c3.49,0,6.63-2.125,7.927-5.367l14.916-37.299h28.092V426.667z M460.382,218.453
				c-0.913,3.703-3.2,6.81-6.443,8.755c-5.956,3.558-12.373,3.26-14.925,2.927h-2.654l12.86,10.803
				c3.61,3.021,4.079,8.405,1.05,12.015c-3.038,3.627-8.405,4.079-12.023,1.05l-22.69-19.046c-0.939-0.623-2.185-1.527-3.465-2.534
				c-3.593-2.85-4.975-7.706-3.439-12.092c1.502-4.343,5.555-7.262,10.069-7.262h20.89c0.503,0,0.99,0.043,1.476,0.128
				c0.265,0.043,0.708,0.094,1.237,0.043c-5.658-10.368-14.327-30.66-15.642-50.543c-0.188-2.944-2.338-17.63-25.617-17.63
				c-23.057,0-25.702,16.41-26.001,19.703c-0.375,20.036-11.204,36.958-18.423,47.232c2.645,0.657,5.06,0.998,6.127,1.109
				l19.908-0.043c3.849,0,7.364,1.963,9.395,5.24c2.022,3.277,2.202,7.279,0.486,10.709c-1.178,2.389-3.115,6.298-6.716,8.516
				l-22.315,16.759c-1.536,1.152-3.337,1.707-5.12,1.707c-2.594,0-5.154-1.169-6.827-3.405c-2.833-3.763-2.074-9.114,1.698-11.947
				l13.995-10.513h-5.35c-1.732-0.128-9.847-0.981-16.657-3.908c-4.42-1.903-7.194-4.753-8.243-8.457
				c-0.7-2.458-0.888-6.306,2.185-10.684l1.527-2.159c6.349-8.892,16.956-23.765,17.289-41.003
				C358.904,151.219,368.998,128,401.067,128c31.923,0,41.83,21.103,42.65,33.57c1.289,19.55,11.264,39.799,14.993,45.952
				C460.689,210.773,461.295,214.75,460.382,218.453z"/>
		</g>
	</g>
</g>
<g>
</g>
<g>
</g>
<g>
</g>
<g>
</g>
<g>
</g>
<g>
</g>
<g>
</g>
<g>
</g>
<g>
</g>
<g>
</g>
<g>
</g>
<g>
</g>
<g>
</g>
<g>
</g>
<g>
</g>
</svg>
