<?xml version="1.0" encoding="iso-8859-1"?>
<!-- Generator: Adobe Illustrator 19.0.0, SVG Export Plug-In . SVG Version: 6.00 Build 0)  -->
<svg version="1.1" id="Layer_1" xmlns="http://www.w3.org/2000/svg" xmlns:xlink="http://www.w3.org/1999/xlink" x="0px" y="0px"
	 viewBox="0 0 512.001 512.001" style="enable-background:new 0 0 512.001 512.001;" xml:space="preserve">
<g>
	<g>
		<g>
			<path d="M81.067,34.133c-14.114,0-25.6-11.486-25.6-25.6c0-4.71-3.823-8.533-8.533-8.533C42.223,0,38.4,3.823,38.4,8.533
				c0,14.114-11.486,25.6-25.6,25.6c-4.71,0-8.533,3.823-8.533,8.533c0,4.71,3.823,8.533,8.533,8.533
				c14.114,0,25.6,11.486,25.6,25.6c0,4.71,3.823,8.533,8.533,8.533c4.71,0,8.533-3.823,8.533-8.533c0-14.114,11.486-25.6,25.6-25.6
				c4.71,0,8.533-3.823,8.533-8.533C89.6,37.956,85.777,34.133,81.067,34.133z M46.934,51.226c-2.432-3.234-5.325-6.127-8.559-8.559
				c3.234-2.432,6.127-5.316,8.559-8.559c2.432,3.243,5.325,6.127,8.559,8.559C52.259,45.099,49.366,47.991,46.934,51.226z"/>
			<path d="M482.134,136.534H473.6v-8.533c0-4.71-3.823-8.533-8.533-8.533s-8.533,3.823-8.533,8.533v8.533H448
				c-4.71,0-8.533,3.823-8.533,8.533c0,4.71,3.823,8.533,8.533,8.533h8.533v8.533c0,4.71,3.823,8.533,8.533,8.533
				s8.533-3.823,8.533-8.533v-8.533h8.533c4.71,0,8.533-3.823,8.533-8.533C490.667,140.357,486.844,136.534,482.134,136.534z"/>
			<circle cx="64" cy="375.468" r="8.533"/>
			<circle cx="21.334" cy="221.868" r="8.533"/>
			<circle cx="439.467" cy="307.201" r="8.533"/>
			<circle cx="499.2" cy="486.401" r="8.533"/>
			<path d="M277.334,469.334c0-9.412-7.654-17.067-17.067-17.067c-9.412,0-17.067,7.654-17.067,17.067
				c0,9.412,7.654,17.067,17.067,17.067C269.679,486.401,277.334,478.746,277.334,469.334z"/>
			<path d="M371.533,0.001H149.001c-18.637,0-33.801,15.164-33.801,33.801v17.399h290.133V33.801
				C405.334,15.165,390.17,0.001,371.533,0.001z M226.134,34.134H217.6c-4.71,0-8.533-3.823-8.533-8.533
				c0-4.71,3.823-8.533,8.533-8.533h8.533c4.71,0,8.533,3.823,8.533,8.533C234.667,30.311,230.844,34.134,226.134,34.134z
				 M294.4,34.134h-42.667c-4.71,0-8.533-3.823-8.533-8.533c0-4.71,3.823-8.533,8.533-8.533H294.4c4.71,0,8.533,3.823,8.533,8.533
				C302.934,30.311,299.111,34.134,294.4,34.134z"/>
			<path d="M294.4,469.334c0,18.825-15.309,34.133-34.133,34.133s-34.133-15.309-34.133-34.133c0-10.24,4.625-19.337,11.793-25.6
				H115.2V478.2c0,18.637,15.164,33.8,33.801,33.8h222.532c18.637,0,33.8-15.164,33.8-33.8v-34.466H282.607
				C289.775,449.998,294.4,459.094,294.4,469.334z"/>
			<path d="M260.27,349.871c51.755,0,93.867-42.112,93.867-93.867c0-51.763-42.112-93.867-93.867-93.867
				c-51.763,0-93.867,42.103-93.867,93.867C166.403,307.759,208.506,349.871,260.27,349.871z M220.513,228.288
				c-3.55-3.106-3.908-8.491-0.802-12.041c3.115-3.533,8.491-3.9,12.041-0.802l28.518,24.951l28.51-24.951
				c3.55-3.106,8.926-2.739,12.041,0.802c3.106,3.55,2.748,8.934-0.802,12.041l-26.795,23.45l26.795,23.441
				c3.55,3.106,3.908,8.491,0.802,12.041c-1.69,1.929-4.045,2.918-6.426,2.918c-1.988,0-3.994-0.7-5.615-2.116l-28.51-24.951
				l-28.518,24.951c-1.621,1.417-3.618,2.116-5.615,2.116c-2.372,0-4.736-0.99-6.426-2.918c-3.106-3.55-2.748-8.934,0.802-12.041
				l26.795-23.441L220.513,228.288z"/>
			<path d="M115.2,76.801c-4.71,0-8.533,3.823-8.533,8.533v8.533c0,4.71,3.823,8.533,8.533,8.533v8.533
				c-4.71,0-8.533,3.823-8.533,8.533v8.533c0,4.71,3.823,8.533,8.533,8.533v8.533c-4.71,0-8.533,3.823-8.533,8.533v8.533
				c0,4.71,3.823,8.533,8.533,8.533v256h290.133v-358.4H115.2V76.801z M260.267,145.068c61.167,0,110.933,49.766,110.933,110.933
				s-49.766,110.933-110.933,110.933s-110.933-49.766-110.933-110.933S199.1,145.068,260.267,145.068z"/>
		</g>
	</g>
</g>
<g>
</g>
<g>
</g>
<g>
</g>
<g>
</g>
<g>
</g>
<g>
</g>
<g>
</g>
<g>
</g>
<g>
</g>
<g>
</g>
<g>
</g>
<g>
</g>
<g>
</g>
<g>
</g>
<g>
</g>
</svg>
