<?xml version="1.0" encoding="iso-8859-1"?>
<!-- Generator: Adobe Illustrator 19.0.0, SVG Export Plug-In . SVG Version: 6.00 Build 0)  -->
<svg version="1.1" id="Layer_1" xmlns="http://www.w3.org/2000/svg" xmlns:xlink="http://www.w3.org/1999/xlink" x="0px" y="0px"
	 viewBox="0 0 512 512" style="enable-background:new 0 0 512 512;" xml:space="preserve">
<g>
	<g>
		<path d="M260.267,452.267c-9.387,0-17.067,7.68-17.067,17.067s7.68,17.067,17.067,17.067s17.067-7.68,17.067-17.067
			S269.653,452.267,260.267,452.267z"/>
	</g>
</g>
<g>
	<g>
		<path d="M371.2,0H149.333C130.56,0,115.2,15.36,115.2,34.133V51.2h290.133V34.133C405.333,15.36,389.973,0,371.2,0z
			 M226.133,34.133H217.6c-5.12,0-8.533-3.413-8.533-8.533s3.413-8.533,8.533-8.533h8.533c5.12,0,8.533,3.413,8.533,8.533
			S231.253,34.133,226.133,34.133z M294.4,34.133h-42.667c-5.12,0-8.533-3.413-8.533-8.533s3.413-8.533,8.533-8.533H294.4
			c5.12,0,8.533,3.413,8.533,8.533S299.52,34.133,294.4,34.133z"/>
	</g>
</g>
<g>
	<g>
		<path d="M282.453,443.733c7.68,5.973,11.947,15.36,11.947,25.6c0,18.773-15.36,34.133-34.133,34.133s-34.133-15.36-34.133-34.133
			c0-10.24,4.267-19.627,11.947-25.6H115.2v34.133c0,18.773,15.36,34.133,34.133,34.133H371.2c18.773,0,34.133-15.36,34.133-34.133
			v-34.133H282.453z"/>
	</g>
</g>
<g>
	<g>
		<path d="M295.253,238.933h-68.267c-60.587,0-60.587,30.72-60.587,40.96v11.947c0,1.707,0.853,3.413,3.413,3.413
			c7.68,2.56,24.747-0.853,34.133-2.56c1.707-0.853,1.707-11.093,2.56-13.653c2.56-14.507,12.8-23.04,27.307-23.04h53.76
			c15.36,0,24.747,7.68,27.307,23.04c0.853,2.56,0,13.653,1.707,14.507c9.387,2.56,26.453,5.12,34.133,2.56
			c1.707-0.853,3.413-2.56,3.413-4.267v-11.947C354.133,269.653,354.133,238.933,295.253,238.933z"/>
	</g>
</g>
<g>
	<g>
		<path d="M115.2,68.267V76.8c-5.12,0-8.533,3.413-8.533,8.533v8.533c0,5.12,3.413,8.533,8.533,8.533v8.533
			c-5.12,0-8.533,3.413-8.533,8.533V128c0,5.12,3.413,8.533,8.533,8.533v8.533c-5.12,0-8.533,3.413-8.533,8.533v8.533
			c0,5.12,3.413,8.533,8.533,8.533v256h290.133v-358.4H115.2z M369.493,291.84c0,9.387-5.973,17.92-15.36,20.48
			c-3.413,0.853-8.533,1.707-12.8,1.707c-13.653,0-28.16-3.413-30.72-4.267c-5.973-1.707-11.093-5.12-13.653-9.387
			s-2.56-8.533-1.707-12.8c0.853-1.707,0.853-5.12,0.853-5.973c-0.853-5.973-4.267-8.533-11.093-8.533h-53.76
			c-15.36,0-11.093,22.187-12.8,26.453c-2.56,4.267-7.68,7.68-13.653,9.387c-2.56,0.853-29.013,6.827-43.52,2.56
			c-5.973-2.56-11.947-10.24-11.947-19.627v-11.947c0-21.333,10.24-58.027,75.947-58.027h68.267c66.56,0,75.947,35.84,75.947,58.027
			V291.84z"/>
	</g>
</g>
<g>
</g>
<g>
</g>
<g>
</g>
<g>
</g>
<g>
</g>
<g>
</g>
<g>
</g>
<g>
</g>
<g>
</g>
<g>
</g>
<g>
</g>
<g>
</g>
<g>
</g>
<g>
</g>
<g>
</g>
</svg>
