<?xml version="1.0" encoding="iso-8859-1"?>
<!-- Generator: Adobe Illustrator 19.0.0, SVG Export Plug-In . SVG Version: 6.00 Build 0)  -->
<svg version="1.1" id="Layer_1" xmlns="http://www.w3.org/2000/svg" xmlns:xlink="http://www.w3.org/1999/xlink" x="0px" y="0px"
	 viewBox="0 0 512 512" style="enable-background:new 0 0 512 512;" xml:space="preserve">
<g>
	<g>
		<g>
			<path d="M448,93.867h-93.867v-25.6H64V76.8c-4.71,0-8.533,3.823-8.533,8.533v8.533c0,4.71,3.823,8.533,8.533,8.533v8.533
				c-4.71,0-8.533,3.823-8.533,8.533V128c0,4.71,3.823,8.533,8.533,8.533v8.533c-4.71,0-8.533,3.823-8.533,8.533v8.533
				c0,4.71,3.823,8.533,8.533,8.533v256h290.133V281.6H448c4.719,0,8.533-3.823,8.533-8.533V102.4
				C456.533,97.69,452.719,93.867,448,93.867z M439.467,264.533H345.6h-42.402c-3.49,0-6.63,2.125-7.927,5.359l-9.139,22.861
				l-9.139-22.861c-1.297-3.234-4.437-5.359-7.927-5.359h-17.331v-153.6H345.6h93.867V264.533z"/>
			<polygon points="345.6,177.246 404.642,136.533 290.577,136.533 			"/>
			<path d="M345.6,196.267c-1.741,0-3.473-0.529-4.958-1.587l-63.309-46.754V230.4c0,4.71,3.814,8.533,8.533,8.533h119.467
				c4.719,0,8.533-3.823,8.533-8.533v-79.454l-63.309,43.733C349.073,195.738,347.341,196.267,345.6,196.267z"/>
			<path d="M226.133,469.333c0-9.412-7.654-17.067-17.067-17.067c-9.412,0-17.067,7.654-17.067,17.067
				c0,9.412,7.654,17.067,17.067,17.067C218.479,486.4,226.133,478.746,226.133,469.333z"/>
			<path d="M354.133,33.801C354.133,15.164,338.97,0,320.333,0H97.801C79.164,0,64,15.164,64,33.801V51.2h290.133V33.801z
				 M174.933,42.667H166.4c-4.71,0-8.533-3.823-8.533-8.533c0-4.71,3.823-8.533,8.533-8.533h8.533c4.71,0,8.533,3.823,8.533,8.533
				C183.467,38.844,179.644,42.667,174.933,42.667z M243.2,42.667h-42.667c-4.71,0-8.533-3.823-8.533-8.533
				c0-4.71,3.823-8.533,8.533-8.533H243.2c4.71,0,8.533,3.823,8.533,8.533C251.733,38.844,247.91,42.667,243.2,42.667z"/>
			<path d="M243.2,469.333c0,18.825-15.309,34.133-34.133,34.133s-34.133-15.309-34.133-34.133c0-10.24,4.625-19.337,11.793-25.6H64
				V478.2c0,18.637,15.164,33.8,33.801,33.8h222.532c18.637,0,33.801-15.164,33.801-33.8v-34.466H231.407
				C238.575,449.997,243.2,459.093,243.2,469.333z"/>
		</g>
	</g>
</g>
<g>
</g>
<g>
</g>
<g>
</g>
<g>
</g>
<g>
</g>
<g>
</g>
<g>
</g>
<g>
</g>
<g>
</g>
<g>
</g>
<g>
</g>
<g>
</g>
<g>
</g>
<g>
</g>
<g>
</g>
</svg>
