<?xml version="1.0" encoding="iso-8859-1"?>
<!-- Generator: Adobe Illustrator 19.0.0, SVG Export Plug-In . SVG Version: 6.00 Build 0)  -->
<svg version="1.1" id="Layer_1" xmlns="http://www.w3.org/2000/svg" xmlns:xlink="http://www.w3.org/1999/xlink" x="0px" y="0px"
	 viewBox="0 0 511.997 511.997" style="enable-background:new 0 0 511.997 511.997;" xml:space="preserve">
<g>
	<g>
		<g>
			<path d="M379.732,25.6c-29.235,0-56.013,9.336-76.8,24.764V33.801C302.932,15.164,287.768,0,269.123,0H46.607
				C27.962,0,12.798,15.164,12.798,33.801V51.2h76.8c4.719,0,8.533,3.814,8.533,8.533c0,4.71-3.814,8.533-8.533,8.533h-76.8v332.8
				h36.429c1.263-1.741,2.85-4.122,3.686-5.385c1.126-1.69,2.039-3.021,2.44-3.507c3.14-3.891,6.477-7.62,9.882-11.307
				c7.313-7.902,16.137-16.657,28.262-20.437c1.263-0.393,2.577-0.734,3.874-1.067c1.314-0.341,2.645-0.666,3.9-1.126
				c0.572-0.213,1.126-0.461,1.655-0.776c4.736-2.953,4.292-12.971,3.934-21.026c-0.043-0.998-0.085-1.98-0.119-2.935
				c-5.615-6.084-19.055-22.084-24.602-41.284c-6.229-4.864-9.609-11.162-9.609-18.031v-21.513c0-6.562,4.113-12.032,8.533-16.358
				v-24.653c0.009-0.674,1.51-58.061,76.8-58.061s76.792,57.387,76.8,57.975v24.738c4.42,4.326,8.533,9.796,8.533,16.358v21.513
				c0,6.869-3.379,13.167-9.609,18.031c-5.769,19.934-20.019,36.412-25.208,41.933c0.034,2.022,0.307,5.18,0.435,6.562
				c0.145,1.69,0.247,3.046,0.247,3.729c0.017,7.672,0.862,10.692,3.601,12.937c0.546,0.452,0.913,0.657,1.126,0.734
				c0.691,0.299,1.459,0.393,2.21,0.555l1.007,0.205c22.537,4.881,38.426,25.737,50.253,42.197h35.669V240
				c9.907-2.935,20.693-6.852,30.31-11.998c14.72,5.504,30.336,8.286,46.49,8.286c64.759,0,119.467-49.596,119.467-108.288
				C499.198,70.579,446.727,25.6,379.732,25.6z M379.732,219.221c-15.343,0-30.114-2.867-43.904-8.525
				c-2.466-1.024-5.265-0.811-7.561,0.529c-7.74,4.557-16.683,8.064-25.335,10.863v-0.077l-10.846,3.063
				c-1.894,0.538-3.729,1.016-5.495,1.459c5.47-13.193,7.962-28.843,9.054-41.549c0.188-2.108-0.418-4.207-1.698-5.888
				c-10.871-14.336-16.614-30.984-16.614-48.154c0-2.884,0.188-5.734,0.503-8.559c0.068-0.631,0.196-1.254,0.282-1.894
				c0.324-2.338,0.7-4.659,1.229-6.938c0.077-0.316,0.162-0.623,0.239-0.93c9.813-39.919,50.97-69.956,100.147-69.956
				c57.421,0,102.4,37.478,102.4,85.333C482.132,177.442,435.241,219.221,379.732,219.221z"/>
			<path d="M419.898,113.43c-3.336-3.337-8.73-3.337-12.066,0l-32.367,32.367l-15.3-15.3c-3.336-3.337-8.73-3.337-12.066,0
				l-25.6,25.6c-3.336,3.337-3.336,8.73,0,12.066c1.664,1.664,3.849,2.5,6.033,2.5c2.185,0,4.369-0.836,6.033-2.5l19.567-19.567
				l19.567,19.567c1.664,1.664,3.849,2.5,6.033,2.5c2.185,0,4.369-0.836,6.033-2.5c2.705-2.705,3.098-6.724,1.408-9.941
				l26.692-26.692l19.567,19.567c1.664,1.664,3.849,2.5,6.033,2.5s4.369-0.836,6.033-2.5c3.337-3.337,3.337-8.73,0-12.066
				L419.898,113.43z"/>
			<path d="M345.598,119.463c14.114,0,25.6-11.486,25.6-25.6s-11.486-25.6-25.6-25.6c-14.114,0-25.6,11.486-25.6,25.6
				S331.484,119.463,345.598,119.463z M345.598,85.33c4.71,0,8.533,3.823,8.533,8.533c0,4.71-3.823,8.533-8.533,8.533
				c-4.71,0-8.533-3.823-8.533-8.533C337.065,89.153,340.888,85.33,345.598,85.33z"/>
			<path d="M111.923,371.955c-1.51,0.939-3.081,1.673-4.719,2.287l-0.009,0.009c-1.809,0.666-3.686,1.152-5.581,1.647
				c-1.007,0.256-2.022,0.512-3.021,0.828c-8.132,2.526-14.746,9.165-20.83,15.735c-2.611,2.807-5.163,5.658-7.629,8.602h175.889
				c-9.156-11.725-19.9-22.75-32.631-25.506c-2.637-0.555-4.437-0.964-6.135-1.673c-1.877-0.776-3.703-1.894-5.427-3.319
				c-9.788-8.03-9.813-19.328-9.83-26.078c-0.017-0.418-0.102-1.254-0.188-2.27c-0.811-9.19-1.092-14.575,2.756-18.33
				c0.179-0.179,18.372-18.202,23.262-38.827l0.802-3.405l2.97-1.86c1.69-1.058,4.531-3.2,4.531-5.606v-21.521
				c-0.06-0.043-0.7-1.886-5.615-6.187l-2.918-2.551v-32.265c-0.111-4.062-2.697-41.003-59.733-41.003
				c-58.607,0-59.716,39.415-59.733,41.097v32.171l-2.918,2.551c-4.915,4.301-5.555,6.144-5.641,6.468l0.026,21.24
				c0,2.406,2.842,4.548,4.531,5.606l2.97,1.86l0.794,3.405c4.898,20.625,23.091,38.647,23.27,38.827l2.56,2.509l0.009,3.593
				c0,1.749,0.094,3.669,0.179,5.692C124.407,346.842,125.167,363.712,111.923,371.955z"/>
			<path d="M52.828,418.13h-40.03v60.058c0,18.645,15.164,33.809,33.809,33.809h222.515c18.645,0,33.809-15.164,33.809-33.809
				V418.13h-23.424H52.828z M183.465,460.097c0,9.796-7.97,17.766-17.766,17.766h-15.667c-9.796,0-17.766-7.97-17.766-17.766V444.43
				c0-9.796,7.97-17.766,17.766-17.766h15.667c9.796,0,17.766,7.97,17.766,17.766V460.097z"/>
			<path d="M165.699,443.73h-15.667c-0.384,0-0.7,0.316-0.7,0.7v15.667c0,0.384,0.316,0.7,0.7,0.7h15.667c0.384,0,0.7-0.316,0.7-0.7
				V444.43C166.398,444.046,166.083,443.73,165.699,443.73z"/>
		</g>
	</g>
</g>
<g>
</g>
<g>
</g>
<g>
</g>
<g>
</g>
<g>
</g>
<g>
</g>
<g>
</g>
<g>
</g>
<g>
</g>
<g>
</g>
<g>
</g>
<g>
</g>
<g>
</g>
<g>
</g>
<g>
</g>
</svg>
