<?xml version="1.0" encoding="iso-8859-1"?>
<!-- Generator: Adobe Illustrator 19.0.0, SVG Export Plug-In . SVG Version: 6.00 Build 0)  -->
<svg version="1.1" id="Layer_1" xmlns="http://www.w3.org/2000/svg" xmlns:xlink="http://www.w3.org/1999/xlink" x="0px" y="0px"
	 viewBox="0 0 512.001 512.001" style="enable-background:new 0 0 512.001 512.001;" xml:space="preserve">
<g>
	<g>
		<g>
			<path d="M81.067,34.133c-14.114,0-25.6-11.486-25.6-25.6c0-4.71-3.814-8.533-8.533-8.533S38.4,3.823,38.4,8.533
				c0,14.114-11.486,25.6-25.6,25.6c-4.719,0-8.533,3.823-8.533,8.533c0,4.71,3.814,8.533,8.533,8.533
				c14.114,0,25.6,11.486,25.6,25.6c0,4.71,3.814,8.533,8.533,8.533s8.533-3.823,8.533-8.533c0-14.114,11.486-25.6,25.6-25.6
				c4.719,0,8.533-3.823,8.533-8.533C89.6,37.956,85.786,34.133,81.067,34.133z M46.934,51.226
				c-2.432-3.234-5.316-6.127-8.559-8.559c3.243-2.432,6.127-5.316,8.559-8.559c2.432,3.243,5.316,6.127,8.559,8.559
				C52.25,45.099,49.366,47.991,46.934,51.226z"/>
			<path d="M482.134,136.534H473.6v-8.533c0-4.71-3.814-8.533-8.533-8.533c-4.719,0-8.533,3.823-8.533,8.533v8.533H448
				c-4.719,0-8.533,3.823-8.533,8.533c0,4.71,3.814,8.533,8.533,8.533h8.533v8.533c0,4.71,3.814,8.533,8.533,8.533
				c4.719,0,8.533-3.823,8.533-8.533v-8.533h8.533c4.719,0,8.533-3.823,8.533-8.533
				C490.667,140.357,486.853,136.534,482.134,136.534z"/>
			<circle cx="64" cy="375.468" r="8.533"/>
			<circle cx="21.334" cy="221.868" r="8.533"/>
			<circle cx="439.467" cy="307.201" r="8.533"/>
			<circle cx="499.2" cy="486.401" r="8.533"/>
			<path d="M277.334,469.334c0-9.412-7.654-17.067-17.067-17.067c-9.412,0-17.067,7.654-17.067,17.067
				c0,9.412,7.654,17.067,17.067,17.067C269.679,486.401,277.334,478.746,277.334,469.334z"/>
			<path d="M405.334,33.801c0-18.637-15.164-33.801-33.8-33.801H149.001c-18.637,0-33.801,15.164-33.801,33.801v17.399h290.133
				V33.801z M226.134,34.134H217.6c-4.71,0-8.533-3.823-8.533-8.533c0-4.71,3.823-8.533,8.533-8.533h8.533
				c4.71,0,8.533,3.823,8.533,8.533C234.667,30.311,230.844,34.134,226.134,34.134z M294.4,34.134h-42.667
				c-4.71,0-8.533-3.823-8.533-8.533c0-4.71,3.823-8.533,8.533-8.533H294.4c4.71,0,8.533,3.823,8.533,8.533
				C302.934,30.311,299.111,34.134,294.4,34.134z"/>
			<path d="M294.4,469.334c0,18.825-15.309,34.133-34.133,34.133s-34.133-15.309-34.133-34.133c0-10.24,4.625-19.337,11.793-25.6
				H115.2V478.2c0,18.637,15.164,33.8,33.801,33.8h222.532c18.637,0,33.8-15.164,33.8-33.8v-34.466H282.607
				C289.775,449.998,294.4,459.094,294.4,469.334z"/>
			<path d="M261.708,315.63c34.645,0,67.447-21.35,92.698-60.237c-13.329-20.19-28.732-35.49-45.363-45.457
				c4.002,7.953,6.298,16.973,6.298,26.556c0,31.65-24.704,57.395-55.074,57.395s-55.074-25.745-55.074-57.395
				c0-7.91,1.545-15.454,4.335-22.323c-14.481,10.121-27.913,24.38-39.689,42.513C194.986,294.749,227.447,315.63,261.708,315.63z"
				/>
			<path d="M260.267,276.821c20.958,0,38.007-18.091,38.007-40.329c0-21.231-15.59-38.494-35.226-40.03
				c-0.171,0-0.333-0.017-0.495-0.017c-3.507,0-6.989,0.273-10.445,0.708c-17.041,3.977-29.85,20.079-29.85,39.339
				C222.26,258.731,239.309,276.821,260.267,276.821z"/>
			<path d="M115.201,76.798c-4.71,0-8.533,3.823-8.533,8.533v8.533c0,4.719,3.823,8.533,8.533,8.533v8.533
				c-4.71,0-8.533,3.823-8.533,8.533v8.533c0,4.719,3.823,8.533,8.533,8.533v8.533c-4.71,0-8.533,3.823-8.533,8.533v8.533
				c0,4.719,3.823,8.533,8.533,8.533v256h290.133v-358.4H115.201V76.798z M152.492,252.184l0.845-1.348
				c25.557-40.986,59.085-65.553,95.531-70.485c3.678-0.811,7.492-1.254,11.401-1.254c2.21,0,4.378,0.179,6.528,0.444
				c40.073,1.664,77.21,26.786,104.969,71.305c1.724,2.765,1.724,6.281-0.008,9.045l-0.836,1.348
				c-28.74,46.071-67.516,71.458-109.21,71.458s-80.478-25.387-109.227-71.467C150.76,258.456,150.76,254.949,152.492,252.184z"/>
		</g>
	</g>
</g>
<g>
</g>
<g>
</g>
<g>
</g>
<g>
</g>
<g>
</g>
<g>
</g>
<g>
</g>
<g>
</g>
<g>
</g>
<g>
</g>
<g>
</g>
<g>
</g>
<g>
</g>
<g>
</g>
<g>
</g>
</svg>
