<?xml version="1.0" encoding="iso-8859-1"?>
<!-- Generator: Adobe Illustrator 19.0.0, SVG Export Plug-In . SVG Version: 6.00 Build 0)  -->
<svg version="1.1" id="Layer_1" xmlns="http://www.w3.org/2000/svg" xmlns:xlink="http://www.w3.org/1999/xlink" x="0px" y="0px"
	 viewBox="0 0 511.997 511.997" style="enable-background:new 0 0 511.997 511.997;" xml:space="preserve">
<g transform="translate(1)">
	<g>
		<g>
			<path d="M425.444,77.798c-1.946-20.378-16.734-35.132-35.26-35.132c-5.581,0-10.897,1.579-15.718,4.181V33.801
				C374.466,15.164,359.302,0,340.666,0H118.142C99.496,0,84.333,15.164,84.333,33.801V51.2h76.8c4.71,0,8.533,3.814,8.533,8.533
				c0,4.71-3.823,8.533-8.533,8.533h-76.8v332.8h39.902c6.007-6.588,13.747-12.834,23.757-18.97
				c6.434-3.942,16.222-14.421,24.166-23.697H146.6c-12.57,0-24.969-10.726-27.648-23.902c-0.896-4.429-0.529-8.235,1.084-11.332
				l1.536-2.901c8.994-17.058,25.754-48.819,27.989-88.124c0.845-14.788,3.26-27.127,7.373-37.734
				c9.429-24.303,35.465-48.99,72.38-49.34c37.086,0.35,63.121,25.037,72.55,49.348c4.122,10.598,6.537,22.938,7.373,37.726
				c2.236,39.305,18.995,71.066,27.998,88.124l1.527,2.901c1.621,3.098,1.988,6.903,1.092,11.332
				c-2.679,13.175-15.087,23.902-27.657,23.902H286.65c7.953,9.276,17.732,19.755,24.158,23.697
				c10.01,6.135,17.749,12.382,23.765,18.97h39.893V148.873l33.229-29.781c8.422-7.603,14.2-17.229,16.708-27.844
				C426.067,84.224,425.692,79.522,425.444,77.798z M407.797,87.313c-1.715,7.236-5.7,13.833-11.52,19.089l-30.345,27.204
				l-7.279-6.528l-23.049-20.668c-5.828-5.265-9.822-11.861-11.537-19.098c-1.033-4.378-0.776-6.878-0.785-6.878h-0.009
				c0.06-0.282,0.094-0.563,0.119-0.845c0.879-9.873,7.45-19.857,18.287-19.857c6.912,0,13.346,4.651,16.393,11.853
				c0.375,0.87,0.896,1.638,1.502,2.313c0.179,0.205,0.401,0.358,0.597,0.538c0.478,0.444,0.964,0.845,1.527,1.161
				c0.247,0.145,0.503,0.247,0.759,0.358c0.572,0.265,1.169,0.461,1.792,0.589c0.29,0.06,0.58,0.102,0.879,0.128
				c0.273,0.034,0.529,0.128,0.802,0.128c0.358,0,0.691-0.111,1.041-0.154c0.222-0.026,0.435,0.026,0.657-0.017
				c0.128-0.026,0.23-0.111,0.358-0.137c0.623-0.154,1.195-0.41,1.766-0.691c0.247-0.128,0.512-0.205,0.751-0.358
				c0.742-0.478,1.425-1.058,1.997-1.749c0.111-0.128,0.162-0.29,0.265-0.427c0.384-0.529,0.759-1.067,1.024-1.681
				c3.055-7.202,9.489-11.853,16.393-11.853c10.846,0,17.408,9.984,18.364,20.489C408.557,80.247,408.872,82.773,407.797,87.313z"/>
			<path d="M156.91,396.646c-2.406,1.476-4.659,2.953-6.758,4.42h158.507c-2.108-1.468-4.361-2.944-6.767-4.42
				c-14.729-9.037-37.342-38.153-39.876-41.438c-1.963-2.56-2.321-6.016-0.913-8.917c1.408-2.91,4.326-4.77,7.561-4.821
				c0,0,9.762-0.136,15.881-0.136h27.656c3.985,0,9.805-4.727,10.931-10.24c0.06-0.333,0.102-0.58,0.119-0.759l-1.109-2.108
				c-9.609-18.202-27.486-52.105-29.943-95.121c-0.734-12.979-2.782-23.612-6.238-32.521c-5.487-14.14-23.586-38.135-56.644-38.451
				c-32.888,0.316-50.987,24.311-56.474,38.443c-3.456,8.917-5.495,19.55-6.238,32.529c-2.449,43.016-20.335,76.919-29.943,95.121
				l-1.101,2.108c0.017,0.179,0.051,0.435,0.12,0.759c1.118,5.513,6.938,10.24,10.923,10.24h27.665
				c6.11,0,15.881,0.136,15.881,0.136c3.226,0.051,6.153,1.911,7.552,4.821c1.408,2.901,1.05,6.357-0.913,8.917
				C194.251,358.494,171.647,387.61,156.91,396.646z"/>
			<path d="M128.008,418.13H84.334v60.058c0,18.645,15.164,33.809,33.801,33.809h222.532c18.637,0,33.801-15.164,33.801-33.809
				V418.13h-43.674H128.008z M255.001,460.097c0,9.796-7.97,17.766-17.766,17.766h-15.667c-9.796,0-17.766-7.97-17.766-17.766
				V444.43c0-9.796,7.97-17.766,17.766-17.766h15.667c9.796,0,17.766,7.97,17.766,17.766V460.097z"/>
			<path d="M237.235,443.73h-15.667c-0.384,0-0.7,0.316-0.7,0.7v15.667c0,0.384,0.316,0.7,0.7,0.7h15.667c0.384,0,0.7-0.316,0.7-0.7
				V444.43C237.934,444.046,237.619,443.73,237.235,443.73z"/>
		</g>
	</g>
</g>
<g>
</g>
<g>
</g>
<g>
</g>
<g>
</g>
<g>
</g>
<g>
</g>
<g>
</g>
<g>
</g>
<g>
</g>
<g>
</g>
<g>
</g>
<g>
</g>
<g>
</g>
<g>
</g>
<g>
</g>
</svg>
