<?xml version="1.0" encoding="iso-8859-1"?>
<!-- Generator: Adobe Illustrator 19.0.0, SVG Export Plug-In . SVG Version: 6.00 Build 0)  -->
<svg version="1.1" id="Layer_1" xmlns="http://www.w3.org/2000/svg" xmlns:xlink="http://www.w3.org/1999/xlink" x="0px" y="0px"
	 viewBox="0 0 512 512" style="enable-background:new 0 0 512 512;" xml:space="preserve">
<g>
	<g>
		<path d="M408.747,26.453C405.333,11.093,391.68,0,375.467,0H153.6c-18.773,0-34.133,15.36-34.133,34.133V51.2h76.8
			c5.12,0,8.533,3.413,8.533,8.533s-3.413,8.533-8.533,8.533h-76.8v93.867c-2.56,0-5.973,0-8.533,0
			C49.493,162.133,0,209.067,0,267.093s49.493,104.96,110.933,104.96c2.56,0,5.973,0,8.533,0v105.813
			c0,18.773,15.36,34.133,34.133,34.133h221.867c18.773,0,34.133-15.36,34.133-34.133v-59.733h-76.8
			c-5.12,0-8.533-3.413-8.533-8.533s3.413-8.533,8.533-8.533h76.8V235.52c57.173-5.973,102.4-50.347,102.4-104.96
			C512,76.8,466.773,31.573,408.747,26.453z M195.413,363.52c-11.093-3.413-40.107-16.213-40.96-16.213
			c-5.973-4.267-13.653-8.533-15.36-10.24c-2.56-3.413-7.68-4.267-11.093-2.56c-2.56,1.707-4.267,4.267-4.267,7.68
			s0.853,5.12,8.533,10.24c-1.707,0.853-7.68,1.707-8.533,2.56c-4.267,0.853-8.533,0.853-12.8,0.853
			c-52.053,0-93.867-39.253-93.867-88.747c0-48.64,41.813-87.893,93.867-87.893c4.267,0,9.387,0,13.653,0.853
			c0.853,0,1.707,0.853,1.707,0.853c39.253,7.68,69.973,35.84,76.8,70.827v0.853c0,1.707,0.853,4.267,0.853,5.973
			c0,2.56,0.853,5.12,0.853,8.533c0,17.067-5.12,34.133-16.213,48.64c-0.853,1.707-1.707,3.413-1.707,5.973
			C188.587,338.773,191.147,352.427,195.413,363.52z M290.133,459.947c0,9.387-7.68,17.92-17.92,17.92h-15.36
			c-9.387,0-17.92-7.68-17.92-17.92v-15.36c0-9.387,7.68-17.92,17.92-17.92h15.36c9.387,0,17.92,7.68,17.92,17.92V459.947z
			 M401.067,219.307c-1.707,0-2.56,0-4.267,0c-8.533,0-17.067-0.853-25.6-3.413c7.68-5.12,8.533-6.827,8.533-10.24
			c0-2.56-1.707-5.973-4.267-7.68c-3.413-2.56-8.533-1.707-11.093,1.707c-2.56,1.707-10.24,6.827-17.92,11.093
			c-11.947,7.68-27.307,11.947-39.253,15.36c0.853-2.56,1.707-5.973,3.413-8.533c2.56-9.387,4.267-20.48,5.973-33.28
			c0-1.707,0-4.267-1.707-5.973c-10.24-14.507-16.213-30.72-16.213-48.64c0-47.787,44.373-87.04,98.133-87.04
			c0.853,0,1.707,0,2.56,0h1.707c52.053,1.707,93.867,40.96,93.867,87.893S453.12,216.747,401.067,219.307z"/>
	</g>
</g>
<g>
	<g>
		<path d="M272.213,443.733h-15.36v0L256,459.947c0,0,0,0.853,0.853,0.853h15.36c0,0,0.853,0,0.853-0.853v-15.36
			C273.067,444.587,273.067,443.733,272.213,443.733z"/>
	</g>
</g>
<g>
</g>
<g>
</g>
<g>
</g>
<g>
</g>
<g>
</g>
<g>
</g>
<g>
</g>
<g>
</g>
<g>
</g>
<g>
</g>
<g>
</g>
<g>
</g>
<g>
</g>
<g>
</g>
<g>
</g>
</svg>
