<?xml version="1.0" encoding="iso-8859-1"?>
<!-- Generator: Adobe Illustrator 19.0.0, SVG Export Plug-In . SVG Version: 6.00 Build 0)  -->
<svg version="1.1" id="Layer_1" xmlns="http://www.w3.org/2000/svg" xmlns:xlink="http://www.w3.org/1999/xlink" x="0px" y="0px"
	 viewBox="0 0 512.001 512.001" style="enable-background:new 0 0 512.001 512.001;" xml:space="preserve">
<g>
	<g>
		<g>
			<path d="M81.067,34.133c-14.114,0-25.6-11.486-25.6-25.6c0-4.71-3.814-8.533-8.533-8.533S38.4,3.823,38.4,8.533
				c0,14.114-11.486,25.6-25.6,25.6c-4.719,0-8.533,3.823-8.533,8.533c0,4.71,3.814,8.533,8.533,8.533
				c14.114,0,25.6,11.486,25.6,25.6c0,4.71,3.814,8.533,8.533,8.533s8.533-3.823,8.533-8.533c0-14.114,11.486-25.6,25.6-25.6
				c4.719,0,8.533-3.823,8.533-8.533C89.6,37.956,85.786,34.133,81.067,34.133z M46.934,51.226
				c-2.432-3.234-5.316-6.127-8.559-8.559c3.243-2.432,6.127-5.316,8.559-8.559c2.432,3.243,5.316,6.127,8.559,8.559
				C52.25,45.099,49.366,47.991,46.934,51.226z"/>
			<path d="M482.134,136.534H473.6v-8.533c0-4.71-3.814-8.533-8.533-8.533c-4.719,0-8.533,3.823-8.533,8.533v8.533H448
				c-4.719,0-8.533,3.823-8.533,8.533c0,4.71,3.814,8.533,8.533,8.533h8.533v8.533c0,4.71,3.814,8.533,8.533,8.533
				c4.719,0,8.533-3.823,8.533-8.533v-8.533h8.533c4.719,0,8.533-3.823,8.533-8.533
				C490.667,140.357,486.853,136.534,482.134,136.534z"/>
			<circle cx="64" cy="375.468" r="8.533"/>
			<circle cx="21.334" cy="221.868" r="8.533"/>
			<circle cx="439.467" cy="307.201" r="8.533"/>
			<circle cx="499.2" cy="486.401" r="8.533"/>
			<path d="M277.334,469.334c0-9.412-7.654-17.067-17.067-17.067c-9.412,0-17.067,7.654-17.067,17.067
				c0,9.412,7.654,17.067,17.067,17.067C269.679,486.401,277.334,478.746,277.334,469.334z"/>
			<path d="M405.334,33.801c0-18.637-15.164-33.801-33.8-33.801H149.001c-18.637,0-33.801,15.164-33.801,33.801v17.399h290.133
				V33.801z M226.134,34.134H217.6c-4.71,0-8.533-3.823-8.533-8.533c0-4.71,3.823-8.533,8.533-8.533h8.533
				c4.71,0,8.533,3.823,8.533,8.533C234.667,30.311,230.844,34.134,226.134,34.134z M294.4,34.134h-42.667
				c-4.71,0-8.533-3.823-8.533-8.533c0-4.71,3.823-8.533,8.533-8.533H294.4c4.71,0,8.533,3.823,8.533,8.533
				C302.934,30.311,299.111,34.134,294.4,34.134z"/>
			<path d="M294.4,469.334c0,18.825-15.309,34.133-34.133,34.133s-34.133-15.309-34.133-34.133c0-10.24,4.625-19.337,11.793-25.6
				H115.2V478.2c0,18.637,15.164,33.8,33.801,33.8h222.532c18.637,0,33.8-15.164,33.8-33.8v-34.466H282.607
				C289.775,449.998,294.4,459.094,294.4,469.334z"/>
			<rect x="260.267" y="153.601" width="17.067" height="17.067"/>
			<path d="M309.192,341.334c1.254,0,2.278-1.024,2.278-2.278V211.482l-79.915,129.852H309.192z"/>
			<path d="M285.867,187.734h-34.133h-23.322c-1.263,0-2.278,1.024-2.278,2.278v127.573l79.915-129.852H285.867z"/>
			<path d="M115.204,76.802c-4.719,0-8.533,3.823-8.533,8.533v8.533c0,4.71,3.814,8.533,8.533,8.533v8.533
				c-4.719,0-8.533,3.823-8.533,8.533v8.533c0,4.71,3.814,8.533,8.533,8.533v8.533c-4.719,0-8.533,3.823-8.533,8.533v8.533
				c0,4.71,3.814,8.533,8.533,8.533v256h290.133v-358.4H115.204V76.802z M193.267,370.997l16.555-26.897
				c-0.444-1.613-0.751-3.285-0.751-5.043V190.013c0-10.667,8.67-19.345,19.337-19.345h14.797v-25.6c0-4.71,3.814-8.533,8.533-8.533
				h34.133c4.71,0,8.533,3.823,8.533,8.533v25.6h14.788c2.33,0,4.531,0.478,6.596,1.229L329.8,149.13
				c2.458-4.019,7.697-5.265,11.742-2.799c4.011,2.475,5.257,7.731,2.79,11.742l-16.546,26.897c0.435,1.613,0.751,3.285,0.751,5.043
				v149.043c0,10.667-8.678,19.345-19.345,19.345h-80.785c-2.321,0-4.523-0.478-6.596-1.237l-14.012,22.776
				c-1.604,2.62-4.403,4.062-7.27,4.062c-1.527,0-3.072-0.41-4.471-1.271C192.047,380.264,190.801,375.008,193.267,370.997z"/>
		</g>
	</g>
</g>
<g>
</g>
<g>
</g>
<g>
</g>
<g>
</g>
<g>
</g>
<g>
</g>
<g>
</g>
<g>
</g>
<g>
</g>
<g>
</g>
<g>
</g>
<g>
</g>
<g>
</g>
<g>
</g>
<g>
</g>
</svg>
