<?xml version="1.0" encoding="iso-8859-1"?>
<!-- Generator: Adobe Illustrator 19.0.0, SVG Export Plug-In . SVG Version: 6.00 Build 0)  -->
<svg version="1.1" id="Layer_1" xmlns="http://www.w3.org/2000/svg" xmlns:xlink="http://www.w3.org/1999/xlink" x="0px" y="0px"
	 viewBox="0 0 511.997 511.997" style="enable-background:new 0 0 511.997 511.997;" xml:space="preserve">
<g>
	<g>
		<g>
			<path d="M375.465,8.533c-23.996,0-46.285,6.75-64.751,18.27C307.48,11.511,293.895,0,277.656,0H55.141
				C36.495,0,21.332,15.164,21.332,33.801V51.2h76.8c4.719,0,8.533,3.814,8.533,8.533c0,4.71-3.814,8.533-8.533,8.533h-76.8v332.8
				h39.902c5.999-6.579,13.739-12.826,23.757-18.97c6.434-3.942,16.213-14.421,24.166-23.697H83.599
				c-12.578,0-24.977-10.726-27.648-23.91c-0.896-4.412-0.538-8.209,1.084-11.307l1.519-2.91
				c9.011-17.058,25.762-48.819,28.015-88.132c0.836-14.788,3.243-27.127,7.356-37.726c9.429-24.311,35.482-48.998,72.388-49.348
				c37.077,0.35,63.13,25.037,72.559,49.34c4.113,10.607,6.519,22.946,7.356,37.726c2.253,39.322,19.004,71.083,28.015,88.141
				l1.51,2.893c1.63,3.115,1.988,6.912,1.092,11.332c-2.671,13.175-15.07,23.902-27.648,23.902H223.64
				c7.962,9.276,17.741,19.755,24.166,23.697c10.018,6.144,17.758,12.39,23.757,18.97h39.902v-181.41
				c6.545-2.406,13.167-5.24,19.345-8.653c14.14,5.453,29.15,8.218,44.655,8.218c63.522,0,115.2-47.258,115.2-105.344
				S438.987,8.533,375.465,8.533z M375.465,202.155c-8.747,0-17.263-1.135-25.54-3.149c7.825-5.325,8.363-6.938,8.346-10.667
				c-0.026-2.97-1.587-5.743-4.122-7.287c-3.635-2.202-8.269-1.391-10.923,1.749c-2.483,1.852-10.641,7.134-17.519,11.426
				c-0.009,0.008-0.009,0.008-0.017,0.008c-8.55,5.24-18.748,9.165-28.186,12.117c-1.109,0.341-2.21,0.691-3.285,1.007
				c-2.321,0.683-4.574,1.306-6.724,1.86c-0.401,0.102-0.845,0.23-1.246,0.333c4.395-10.872,7.296-24.806,8.695-41.668
				c0.009-0.009,0-0.026,0-0.034l0.265-3.115l-1.869-2.569c-7.859-10.778-12.937-22.861-14.984-35.499
				c-0.674-4.207-1.024-8.482-1.024-12.792c0-11.52,2.543-22.511,7.023-32.614c0.273-0.606,0.486-1.246,0.768-1.843
				c0.734-1.536,1.596-3.012,2.415-4.497c0.649-1.178,1.237-2.372,1.946-3.516c0.606-0.99,1.297-1.911,1.946-2.876
				c1.101-1.63,2.185-3.277,3.413-4.847c0.401-0.529,0.862-1.024,1.28-1.545c1.604-1.963,3.251-3.9,5.035-5.76
				c0.213-0.222,0.444-0.427,0.657-0.649c2.039-2.074,4.181-4.087,6.46-6.025c17.579-14.899,41.19-24.107,67.191-24.107
				c54.11,0,98.133,39.595,98.133,88.277C473.598,162.551,429.575,202.155,375.465,202.155z"/>
			<path d="M93.907,396.646c-2.406,1.476-4.659,2.953-6.758,4.42h158.498c-2.099-1.468-4.352-2.944-6.758-4.42
				c-14.729-9.037-37.342-38.153-39.876-41.438c-1.963-2.56-2.321-6.016-0.913-8.917c1.408-2.91,4.335-4.77,7.561-4.821
				c0,0,9.762-0.136,15.881-0.136h27.656c3.985,0,9.805-4.719,10.923-10.232c0.068-0.341,0.102-0.589,0.119-0.768l-1.101-2.099
				c-9.609-18.202-27.486-52.104-29.943-95.13c-0.742-12.979-2.782-23.612-6.238-32.529c-5.487-14.131-23.586-38.127-56.644-38.443
				c-32.888,0.316-50.987,24.311-56.474,38.451c-3.456,8.909-5.487,19.541-6.238,32.529c-2.449,43.017-20.335,76.919-29.943,95.121
				l-1.101,2.099c0.017,0.179,0.051,0.427,0.128,0.759c1.118,5.521,6.929,10.24,10.914,10.24h27.657
				c6.118,0,15.889,0.136,15.889,0.136c3.217,0.051,6.144,1.911,7.552,4.821c1.408,2.901,1.05,6.357-0.913,8.917
				C131.249,358.494,108.644,387.61,93.907,396.646z"/>
			<path d="M174.232,443.73h-15.667c-0.384,0-0.7,0.316-0.7,0.7v15.667c0,0.384,0.316,0.7,0.7,0.7h15.667c0.384,0,0.7-0.316,0.7-0.7
				V444.43C174.932,444.046,174.616,443.73,174.232,443.73z"/>
			<path d="M64.997,418.13H21.332v60.058c0,18.645,15.164,33.809,33.809,33.809h222.515c18.645,0,33.809-15.164,33.809-33.809
				V418.13H267.8H64.997z M191.998,460.097c0,9.796-7.97,17.766-17.766,17.766h-15.667c-9.796,0-17.766-7.97-17.766-17.766V444.43
				c0-9.796,7.97-17.766,17.766-17.766h15.667c9.796,0,17.766,7.97,17.766,17.766V460.097z"/>
		</g>
	</g>
</g>
<g>
</g>
<g>
</g>
<g>
</g>
<g>
</g>
<g>
</g>
<g>
</g>
<g>
</g>
<g>
</g>
<g>
</g>
<g>
</g>
<g>
</g>
<g>
</g>
<g>
</g>
<g>
</g>
<g>
</g>
</svg>
