<?xml version="1.0" encoding="iso-8859-1"?>
<!-- Generator: Adobe Illustrator 19.0.0, SVG Export Plug-In . SVG Version: 6.00 Build 0)  -->
<svg version="1.1" id="Layer_1" xmlns="http://www.w3.org/2000/svg" xmlns:xlink="http://www.w3.org/1999/xlink" x="0px" y="0px"
	 viewBox="0 0 512 512" style="enable-background:new 0 0 512 512;" xml:space="preserve">
<g transform="translate(-1)">
	<g>
		<g>
			<path d="M466.81,51.575l5.402,1.451c0.708,0.188,1.399,0.418,2.074,0.674c1.032,0.41,2.091,0.597,3.132,0.597
				c3.405,0,6.613-2.039,7.936-5.393c1.732-4.386-0.418-9.344-4.804-11.068c-1.271-0.512-2.569-0.939-3.908-1.297l-5.402-1.451
				c-4.565-1.229-9.242,1.476-10.462,6.033S462.262,50.346,466.81,51.575z"/>
			<path d="M424.581,40.259l8.448,2.27c0.742,0.196,1.485,0.29,2.219,0.29c3.763,0,7.211-2.509,8.235-6.323
				c1.22-4.557-1.476-9.225-6.033-10.453l-8.439-2.27c-4.574-1.212-9.242,1.485-10.462,6.033
				C417.328,34.362,420.033,39.03,424.581,40.259z"/>
			<path d="M453.881,233.766c-4.54-1.212-9.233,1.476-10.453,6.025l-2.27,8.439c-1.22,4.557,1.485,9.233,6.033,10.462
				c0.742,0.196,1.485,0.29,2.219,0.29c3.763,0,7.211-2.509,8.235-6.315l2.27-8.439
				C461.134,239.663,458.429,234.995,453.881,233.766z"/>
			<path d="M442.56,275.992c-4.582-1.246-9.233,1.493-10.453,6.033l-2.261,8.448c-1.22,4.548,1.485,9.233,6.033,10.453
				c0.742,0.196,1.485,0.29,2.219,0.29c3.763,0,7.211-2.517,8.235-6.323l2.261-8.448
				C449.813,281.888,447.108,277.212,442.56,275.992z"/>
			<path d="M465.189,191.533c-4.582-1.237-9.233,1.485-10.453,6.033l-2.261,8.448c-1.22,4.548,1.485,9.233,6.033,10.453
				c0.742,0.196,1.485,0.29,2.219,0.29c3.763,0,7.211-2.517,8.235-6.323l2.261-8.448
				C472.443,197.43,469.738,192.753,465.189,191.533z"/>
			<path d="M431.244,318.225c-4.54-1.237-9.233,1.476-10.453,6.033l-2.261,8.439c-1.22,4.548,1.485,9.233,6.033,10.453
				c0.742,0.196,1.485,0.29,2.219,0.29c3.763,0,7.211-2.509,8.235-6.323l2.261-8.439
				C438.497,324.122,435.801,319.445,431.244,318.225z"/>
			<path d="M496.002,64.392h-0.026c-4.702,0-8.516,3.797-8.533,8.508c-0.009,1.766-0.247,3.541-0.708,5.265l-0.316,1.169
				c-1.22,4.548,1.485,9.233,6.033,10.453c0.742,0.196,1.485,0.29,2.219,0.29c3.772,0,7.211-2.517,8.235-6.323l0.316-1.169
				c0.845-3.149,1.271-6.391,1.289-9.634C504.526,68.24,500.712,64.409,496.002,64.392z"/>
			<path d="M419.927,360.45c-4.582-1.237-9.233,1.493-10.453,6.033l-2.261,8.448c-1.22,4.548,1.485,9.233,6.033,10.453
				c0.742,0.196,1.485,0.29,2.219,0.29c3.763,0,7.211-2.517,8.235-6.323l2.261-8.448C427.18,366.346,424.475,361.67,419.927,360.45z
				"/>
			<path d="M476.505,149.309c-4.54-1.229-9.233,1.476-10.453,6.033l-2.261,8.439c-1.22,4.548,1.485,9.233,6.033,10.453
				c0.742,0.196,1.485,0.29,2.219,0.29c3.763,0,7.211-2.509,8.235-6.323l2.261-8.44
				C483.759,155.205,481.062,150.529,476.505,149.309z"/>
			<path d="M487.822,107.075c-4.591-1.246-9.233,1.493-10.453,6.033l-2.261,8.448c-1.22,4.548,1.485,9.233,6.033,10.453
				c0.742,0.196,1.485,0.29,2.219,0.29c3.763,0,7.211-2.517,8.235-6.323l2.261-8.448
				C495.076,112.972,492.371,108.296,487.822,107.075z"/>
			<path d="M408.613,402.68c-4.548-1.212-9.225,1.485-10.445,6.033l-0.239,0.888H116.064l-0.23-0.888
				c-1.22-4.548-5.897-7.27-10.453-6.033c-4.548,1.22-7.253,5.905-6.033,10.453l2.261,8.448c1.024,3.814,4.471,6.332,8.235,6.332
				c0.708,0,1.417-0.102,2.133-0.282v46.78c0,20.719,16.862,37.589,37.589,37.589h214.946c20.727,0,37.598-16.87,37.598-37.589
				v-46.78c0.683,0.171,1.365,0.273,2.039,0.273c3.763,0,7.211-2.509,8.235-6.332l2.261-8.439
				C415.866,408.585,413.169,403.9,408.613,402.68z M248.51,486.4c-18.825,0-34.133-15.309-34.133-34.133
				c0-18.825,15.309-34.133,34.133-34.133s34.133,15.309,34.133,34.133C282.643,471.091,267.335,486.4,248.51,486.4z"/>
			<path d="M50.201,163.791l-2.261-8.448c-1.22-4.548-5.888-7.27-10.453-6.033c-4.548,1.212-7.253,5.897-6.033,10.445l2.261,8.456
				c1.024,3.806,4.471,6.323,8.243,6.323c0.725,0,1.468-0.094,2.21-0.29C48.717,173.024,51.422,168.34,50.201,163.791z"/>
			<path d="M61.518,206.017l-2.261-8.439c-1.22-4.557-5.897-7.27-10.453-6.033c-4.548,1.212-7.253,5.897-6.033,10.445l2.261,8.448
				c1.024,3.814,4.471,6.323,8.243,6.323c0.725,0,1.476-0.094,2.21-0.29C60.042,215.25,62.739,210.565,61.518,206.017z"/>
			<path d="M72.831,248.25l-2.261-8.448c-1.22-4.548-5.888-7.279-10.453-6.033c-4.548,1.212-7.253,5.897-6.033,10.445l2.261,8.457
				c1.024,3.806,4.471,6.323,8.243,6.323c0.725,0,1.468-0.094,2.21-0.29C71.346,257.483,74.051,252.798,72.831,248.25z"/>
			<path d="M84.148,290.475l-2.261-8.439c-1.22-4.557-5.897-7.262-10.453-6.033c-4.548,1.212-7.253,5.897-6.033,10.445l2.261,8.448
				c1.024,3.814,4.471,6.323,8.243,6.323c0.725,0,1.476-0.094,2.21-0.29C82.672,299.708,85.368,295.023,84.148,290.475z"/>
			<path d="M106.777,374.933l-2.261-8.439c-1.22-4.557-5.914-7.27-10.453-6.033c-4.548,1.212-7.253,5.897-6.033,10.445l2.261,8.448
				c1.024,3.814,4.471,6.323,8.243,6.323c0.725,0,1.476-0.094,2.21-0.29C105.3,384.166,107.997,379.482,106.777,374.933z"/>
			<path d="M95.464,332.709l-2.27-8.448c-1.22-4.557-5.871-7.279-10.453-6.033c-4.548,1.212-7.245,5.896-6.025,10.445l2.261,8.457
				c1.024,3.814,4.471,6.323,8.243,6.323c0.725,0,1.476-0.094,2.21-0.29C93.988,341.942,96.684,337.257,95.464,332.709z"/>
			<path d="M38.889,121.55l-2.27-8.44c-1.22-4.54-5.871-7.245-10.453-6.025c-4.548,1.22-7.245,5.897-6.025,10.453l2.261,8.448
				c1.024,3.806,4.471,6.315,8.243,6.315c0.725,0,1.476-0.094,2.21-0.29C37.413,130.783,40.109,126.106,38.889,121.55z"/>
			<path d="M27.573,79.334l-0.316-1.169c-0.461-1.724-0.7-3.499-0.7-5.265c-0.017-4.71-3.831-8.508-8.533-8.508H17.99
				c-4.71,0.017-8.516,3.849-8.499,8.559c0.009,3.243,0.444,6.485,1.289,9.634l0.307,1.169c1.024,3.814,4.471,6.323,8.243,6.323
				c0.725,0,1.468-0.094,2.21-0.29C26.088,88.567,28.793,83.882,27.573,79.334z"/>
			<path d="M36.577,54.3c1.041,0,2.099-0.188,3.132-0.597c0.666-0.265,1.365-0.486,2.074-0.674l5.402-1.451
				c4.548-1.229,7.245-5.905,6.025-10.462c-1.22-4.548-5.888-7.253-10.453-6.025l-5.402,1.451c-1.34,0.358-2.645,0.785-3.917,1.289
				c-4.378,1.724-6.528,6.69-4.804,11.068C29.964,52.261,33.172,54.3,36.577,54.3z"/>
			<path d="M78.747,42.817c0.725,0,1.476-0.094,2.219-0.29l8.448-2.27c4.548-1.22,7.245-5.897,6.025-10.445
				c-1.22-4.565-5.88-7.262-10.453-6.033l-8.448,2.261c-4.548,1.229-7.245,5.905-6.025,10.453
				C71.528,40.308,74.984,42.817,78.747,42.817z"/>
			<path d="M402.11,68.264H111.977v324.267H402.11V68.264z M282.643,298.664c0,3.149-1.741,6.042-4.514,7.526
				c-1.254,0.674-2.645,1.007-4.019,1.007c-1.655,0-3.311-0.478-4.736-1.434l-49.05-32.7h-57.148c-4.719,0-8.533-3.814-8.533-8.533
				v-68.267c0-4.71,3.814-8.533,8.533-8.533h57.148l49.05-32.7c2.611-1.749,5.982-1.911,8.755-0.427
				c2.773,1.485,4.514,4.378,4.514,7.526V298.664z M308.235,264.531c-1.911,0-3.831-0.64-5.427-1.946
				c-3.627-3.004-4.156-8.38-1.152-12.006c7.962-9.66,9.779-29.286,0.188-40.132c-3.115-3.524-2.79-8.917,0.742-12.041
				c3.533-3.115,8.926-2.782,12.049,0.742c15.949,18.031,12.979,46.763,0.188,62.276
				C313.133,263.473,310.693,264.531,308.235,264.531z M340.423,287.025c-1.69,2.048-4.13,3.106-6.588,3.106
				c-1.911,0-3.831-0.64-5.427-1.946c-3.627-3.004-4.156-8.38-1.152-12.006c18.44-22.374,22.434-66.176,0.188-91.332
				c-3.115-3.524-2.79-8.917,0.742-12.041c3.533-3.115,8.917-2.782,12.049,0.742C368.83,205.873,363.284,259.3,340.423,287.025z"/>
			<polygon points="231.439,259.966 265.573,282.725 265.573,178.072 231.439,200.83 			"/>
			<rect x="171.706" y="204.8" width="42.667" height="51.2"/>
			<path d="M402.11,37.589C402.11,16.87,385.24,0,364.512,0H149.566c-20.727,0-37.589,16.87-37.589,37.589V51.2H402.11V37.589z
				 M257.044,42.667H222.91c-4.71,0-8.533-3.814-8.533-8.533S218.2,25.6,222.91,25.6h34.133c4.71,0,8.533,3.814,8.533,8.533
				S261.754,42.667,257.044,42.667z M291.177,42.667h-8.533c-4.71,0-8.533-3.814-8.533-8.533s3.823-8.533,8.533-8.533h8.533
				c4.71,0,8.533,3.814,8.533,8.533S295.887,42.667,291.177,42.667z"/>
			<path d="M248.51,435.2c-9.412,0-17.067,7.654-17.067,17.067c0,9.412,7.654,17.067,17.067,17.067
				c9.412,0,17.067-7.654,17.067-17.067C265.577,442.854,257.922,435.2,248.51,435.2z"/>
		</g>
	</g>
</g>
<g>
</g>
<g>
</g>
<g>
</g>
<g>
</g>
<g>
</g>
<g>
</g>
<g>
</g>
<g>
</g>
<g>
</g>
<g>
</g>
<g>
</g>
<g>
</g>
<g>
</g>
<g>
</g>
<g>
</g>
</svg>
