<?xml version="1.0" encoding="iso-8859-1"?>
<!-- Generator: Adobe Illustrator 19.0.0, SVG Export Plug-In . SVG Version: 6.00 Build 0)  -->
<svg version="1.1" id="Layer_1" xmlns="http://www.w3.org/2000/svg" xmlns:xlink="http://www.w3.org/1999/xlink" x="0px" y="0px"
	 viewBox="0 0 512.001 512.001" style="enable-background:new 0 0 512.001 512.001;" xml:space="preserve">
<g transform="translate(1)">
	<g>
		<g>
			<path d="M457.12,266.863c-22.639-21.325-31.454-41.122-31.454-70.596V153.66c0.23-34.031-26.633-57.779-49.698-67.772
				c-11.392-4.941-23.458-7.765-35.635-8.695V39.031C340.333,17.51,322.823,0,301.302,0H89.231C67.71,0,50.2,17.51,50.2,39.031V51.2
				H127c4.71,0,8.533,3.814,8.533,8.533s-3.823,8.533-8.533,8.533H50.2v332.8h290.133v-51.951
				c23.697-3.883,41.984-23.569,43.298-47.684c6.724-1.263,13.798-2.731,21.333-4.403l48.93-15.846
				c2.867-0.922,5.035-3.294,5.7-6.238C460.252,272,459.313,268.928,457.12,266.863z M331.8,332.8c-2.278,0-4.506-0.247-6.665-0.657
				c-0.708-0.137-1.382-0.384-2.082-0.555c-1.408-0.367-2.807-0.742-4.147-1.263c-0.785-0.307-1.519-0.7-2.278-1.058
				c-1.169-0.555-2.321-1.135-3.413-1.818c-0.742-0.461-1.442-0.964-2.142-1.476c-1.007-0.734-1.971-1.502-2.893-2.33
				c-0.649-0.589-1.28-1.195-1.877-1.826c-0.853-0.896-1.638-1.852-2.389-2.833c-0.521-0.683-1.05-1.365-1.519-2.082
				c-0.7-1.075-1.297-2.219-1.869-3.371c-0.367-0.725-0.768-1.434-1.075-2.185c-0.555-1.348-0.956-2.773-1.331-4.198
				c-0.171-0.631-0.41-1.246-0.546-1.894c-0.017-0.102-0.009-0.205-0.034-0.307c0.068,0.009,0.136,0.009,0.205,0.026
				c5.581,0.776,11.042,1.357,16.452,1.732c0.111,0.009,0.222,0.009,0.333,0.017c4.847,0.333,9.677,0.521,14.541,0.521
				c0.589,0,1.186-0.026,1.775-0.034c0.111,0,0.222-0.009,0.333-0.009c5.453-0.051,10.991-0.307,16.683-0.768
				c0.188-0.017,0.384-0.034,0.572-0.051c5.555-0.461,11.29-1.118,17.263-1.971c0.179-0.026,0.35-0.034,0.529-0.06
				C363.45,320.478,349.071,332.8,331.8,332.8z M400.485,280.576c-9.873,2.193-18.876,3.977-27.341,5.41
				c-7.526,1.271-14.566,2.236-21.325,2.927c-0.853,0.085-1.69,0.154-2.534,0.23c-2.278,0.205-4.514,0.375-6.724,0.512
				c-1.22,0.077-2.432,0.154-3.627,0.205c-1.801,0.085-3.576,0.128-5.342,0.162c-1.357,0.034-2.722,0.085-4.062,0.085
				c-2.219,0-4.42-0.051-6.622-0.119c-2.236-0.068-4.471-0.188-6.699-0.333c-1.05-0.068-2.099-0.128-3.149-0.205
				c-1.852-0.154-3.703-0.333-5.572-0.529c-1.075-0.111-2.159-0.239-3.234-0.367c-1.843-0.222-3.686-0.452-5.555-0.717
				c-1.306-0.188-2.645-0.418-3.977-0.631c-2.039-0.324-4.104-0.666-6.195-1.05c-2.91-0.529-5.914-1.126-8.994-1.783
				c-1.459-0.307-2.944-0.631-4.437-0.964c-2.423-0.538-4.924-1.135-7.441-1.741c-1.348-0.324-2.654-0.623-4.028-0.964
				l-35.575-11.52C247.055,247.876,255,225.903,255,196.267V153.66c0.06-9.045,2.884-17.434,7.415-24.832
				c7.552-12.331,19.866-21.914,32.085-27.255c0.512-0.222,1.05-0.375,1.57-0.589c11.145-4.617,23.433-7.117,35.729-7.117
				c0.068,0,0.119-0.034,0.188-0.034c12.672,0.017,25.353,2.586,37.197,7.723c19.738,8.542,39.578,27.938,39.416,52.045v42.667
				c0,29.645,7.953,51.618,26.957,72.926L400.485,280.576z"/>
			<path d="M50.202,478.192c0,18.645,15.164,33.809,33.801,33.809h222.532c18.637,0,33.801-15.164,33.801-33.809v-60.058H50.202
				V478.192z M169.668,444.434c0-9.796,7.97-17.766,17.766-17.766h15.667c9.796,0,17.766,7.97,17.766,17.766v15.667
				c0,9.796-7.97,17.766-17.766,17.766h-15.667c-9.796,0-17.766-7.97-17.766-17.766V444.434z"/>
			<path d="M187.435,460.801h15.667c0.384,0,0.7-0.316,0.7-0.7v-15.667c0-0.384-0.316-0.7-0.7-0.7h-15.667
				c-0.384,0-0.7,0.316-0.7,0.7v15.667C186.735,460.485,187.051,460.801,187.435,460.801z"/>
		</g>
	</g>
</g>
<g>
</g>
<g>
</g>
<g>
</g>
<g>
</g>
<g>
</g>
<g>
</g>
<g>
</g>
<g>
</g>
<g>
</g>
<g>
</g>
<g>
</g>
<g>
</g>
<g>
</g>
<g>
</g>
<g>
</g>
</svg>
