<?xml version="1.0" encoding="iso-8859-1"?>
<!-- Generator: Adobe Illustrator 19.0.0, SVG Export Plug-In . SVG Version: 6.00 Build 0)  -->
<svg version="1.1" id="Layer_1" xmlns="http://www.w3.org/2000/svg" xmlns:xlink="http://www.w3.org/1999/xlink" x="0px" y="0px"
	 viewBox="0 0 512 512" style="enable-background:new 0 0 512 512;" xml:space="preserve">
<g>
	<g>
		<path d="M81.067,34.133c-14.507,0-25.6-11.093-25.6-25.6c0-5.12-3.413-8.533-8.533-8.533C41.813,0,38.4,3.413,38.4,8.533
			c0,14.507-11.093,25.6-25.6,25.6c-5.12,0-8.533,3.413-8.533,8.533S7.68,51.2,12.8,51.2c14.507,0,25.6,11.093,25.6,25.6
			c0,5.12,3.413,8.533,8.533,8.533c5.12,0,8.533-3.413,8.533-8.533c0-14.507,11.093-25.6,25.6-25.6c5.12,0,8.533-3.413,8.533-8.533
			S86.187,34.133,81.067,34.133z M46.933,51.2c-2.56-3.413-5.12-5.973-8.533-8.533c3.413-2.56,5.973-5.12,8.533-8.533
			c2.56,3.413,5.12,5.973,8.533,8.533C52.053,45.227,49.493,47.787,46.933,51.2z"/>
	</g>
</g>
<g>
	<g>
		<path d="M482.133,136.533H473.6V128c0-5.12-3.413-8.533-8.533-8.533s-8.533,3.413-8.533,8.533v8.533H448
			c-5.12,0-8.533,3.413-8.533,8.533c0,5.12,3.413,8.533,8.533,8.533h8.533v8.533c0,5.12,3.413,8.533,8.533,8.533
			s8.533-3.413,8.533-8.533V153.6h8.533c5.12,0,8.533-3.413,8.533-8.533C490.667,139.947,487.253,136.533,482.133,136.533z"/>
	</g>
</g>
<g>
	<g>
		<path d="M64,366.933c-5.12,0-8.533,3.413-8.533,8.533S58.88,384,64,384s8.533-3.413,8.533-8.533S69.12,366.933,64,366.933z"/>
	</g>
</g>
<g>
	<g>
		<path d="M21.333,213.333c-5.12,0-8.533,3.413-8.533,8.533s3.413,8.533,8.533,8.533s8.533-3.413,8.533-8.533
			S26.453,213.333,21.333,213.333z"/>
	</g>
</g>
<g>
	<g>
		<path d="M439.467,298.667c-5.12,0-8.533,3.413-8.533,8.533s3.413,8.533,8.533,8.533S448,312.32,448,307.2
			S444.587,298.667,439.467,298.667z"/>
	</g>
</g>
<g>
	<g>
		<path d="M499.2,477.867c-5.12,0-8.533,3.413-8.533,8.533s3.413,8.533,8.533,8.533s8.533-3.413,8.533-8.533
			S504.32,477.867,499.2,477.867z"/>
	</g>
</g>
<g>
	<g>
		<path d="M314.88,375.467c-2.56-0.853-4.267-0.853-5.973-1.707s-3.413-1.707-5.12-3.413c-9.387-7.68-9.387-18.773-9.387-25.6
			c0,0,0-0.853,0-2.56c-0.853-9.387-0.853-14.507,2.56-17.92c0,0,18.773-17.92,23.04-38.4l0.853-3.413l2.56-1.707
			c1.707-0.853,4.267-3.413,4.267-5.973V253.44l-7.68-9.387v-32.427c0-4.267-2.56-40.96-59.733-40.96
			c-58.88,0-59.733,39.253-59.733,40.96v32.427l-2.56,2.56c-5.12,4.267-5.973,5.973-5.973,6.827v21.333
			c0,2.56,2.56,4.267,4.267,5.973l2.56,1.707l0.853,3.413c5.12,20.48,23.04,38.4,23.04,38.4l2.56,2.56v3.413
			c0,1.707,2.56,33.28-11.093,41.813c-1.707,0.853-3.413,1.707-5.12,2.56s-3.413,0.853-5.973,1.707
			c-0.853,0-1.707,0.853-3.413,0.853c-8.533,2.56-14.507,9.387-20.48,15.36c-2.56,2.56-5.12,5.973-7.68,8.533h175.787
			C337.92,389.12,327.68,378.027,314.88,375.467z"/>
	</g>
</g>
<g>
	<g>
		<path d="M382.293,418.133H155.307H115.2v59.733c0,18.773,15.36,34.133,34.133,34.133H371.2c18.773,0,34.133-15.36,34.133-34.133
			v-59.733H382.293z M285.867,459.947c0,9.387-7.68,17.92-17.92,17.92h-15.36c-9.387,0-17.92-7.68-17.92-17.92v-15.36
			c0-9.387,7.68-17.92,17.92-17.92h15.36c9.387,0,17.92,7.68,17.92,17.92V459.947z"/>
	</g>
</g>
<g>
	<g>
		<path d="M267.947,443.733c0,0-15.36,0-15.36,0l-0.853,16.213c0,0,0,0.853,0.853,0.853h15.36c0,0,0.853,0,0.853-0.853v-15.36
			C268.8,444.587,268.8,443.733,267.947,443.733z"/>
	</g>
</g>
<g>
	<g>
		<path d="M371.2,0H149.333C130.56,0,115.2,15.36,115.2,34.133V51.2H192c5.12,0,8.533,3.413,8.533,8.533s-3.413,8.533-8.533,8.533
			h-76.8v332.8h36.693c2.56-4.267,5.12-8.533,8.533-11.947c6.827-7.68,14.507-15.36,23.04-22.187c2.56-1.707,5.973-4.267,9.387-5.12
			c3.413-1.707,7.68-1.707,11.947-2.56c8.533-2.56,5.973-15.36,5.973-22.187c0-0.853,0-1.707,0-2.56
			c-5.973-5.973-18.773-22.187-24.747-40.96c-5.973-5.12-9.387-11.093-9.387-17.92v-21.333c0-6.827,4.267-11.947,8.533-16.213
			v-24.747c0-0.853,1.707-58.027,76.8-58.027s76.8,57.173,76.8,58.027v24.747c4.267,4.267,8.533,9.387,8.533,16.213v21.333
			c0,6.827-3.413,12.8-9.387,17.92c-5.973,19.627-19.627,36.693-25.6,41.813c0,1.707-0.853,20.48,1.707,22.187
			c0.853,0.853,3.413,1.707,3.413,1.707c0.853,0,3.413,0.853,3.413,0.853c22.187,5.12,38.4,25.6,50.347,41.813h34.133V34.133
			C405.333,15.36,389.973,0,371.2,0z M371.2,136.533h-76.8v-76.8h76.8V136.533z"/>
	</g>
</g>
<g>
	<g>
		<rect x="311.467" y="76.8" width="42.667" height="42.667"/>
	</g>
</g>
<g>
</g>
<g>
</g>
<g>
</g>
<g>
</g>
<g>
</g>
<g>
</g>
<g>
</g>
<g>
</g>
<g>
</g>
<g>
</g>
<g>
</g>
<g>
</g>
<g>
</g>
<g>
</g>
<g>
</g>
</svg>
