<?xml version="1.0" encoding="iso-8859-1"?>
<!-- Generator: Adobe Illustrator 19.0.0, SVG Export Plug-In . SVG Version: 6.00 Build 0)  -->
<svg version="1.1" id="Layer_1" xmlns="http://www.w3.org/2000/svg" xmlns:xlink="http://www.w3.org/1999/xlink" x="0px" y="0px"
	 viewBox="0 0 512 512" style="enable-background:new 0 0 512 512;" xml:space="preserve">
<g>
	<g>
		<g>
			<path d="M416.478,192.691c-3.567-38.374-33.587-69.137-70.878-72.849V39.031C345.6,17.51,328.09,0,306.569,0H94.498
				C72.977,0,55.467,17.51,55.467,39.031V51.2h76.8c4.719,0,8.533,3.814,8.533,8.533s-3.814,8.533-8.533,8.533h-76.8v332.8H345.6
				V307.2h6.852c0.538,0,1.084-0.034,1.988-0.068c0.546,0.034,1.075,0.068,1.621,0.068h43.264c31.539,0,57.207-26.291,57.207-58.615
				C456.533,222.788,440.038,200.286,416.478,192.691z M399.326,290.133l-43.682-0.026l-1.63-0.068
				c-0.119,0.009-1.442,0.085-1.562,0.094h-15.386h-92.783c-24.124,0-43.75-20.309-43.75-45.269
				c0-17.289,9.856-33.323,25.105-40.849c2.347-1.152,4.028-3.311,4.582-5.871c3.473-16.35,17.732-28.22,33.894-28.22
				c3.61,0,7.219,0.589,10.718,1.766c3.84,1.289,8.073-0.316,10.112-3.84c8.269-14.387,21.666-24.695,36.907-29.03
				c1.886-0.521,3.814-0.904,5.751-1.237c0.563-0.102,1.109-0.265,1.673-0.35c2.594-0.375,5.239-0.597,7.91-0.631
				c0.017,0,0.034-0.017,0.06-0.017c0.264,0,0.521-0.051,0.776-0.051c33.596,0,61.286,28.245,61.739,62.959
				c0.051,4.053,2.944,7.501,6.903,8.269c19.012,3.678,32.802,20.855,32.802,40.823
				C439.467,271.488,421.461,290.133,399.326,290.133z"/>
			<path d="M192.701,460.8h15.667c0.384,0,0.7-0.316,0.7-0.7v-15.667c0-0.384-0.316-0.7-0.7-0.7h-15.667c-0.384,0-0.7,0.316-0.7,0.7
				V460.1C192.001,460.484,192.317,460.8,192.701,460.8z"/>
			<path d="M55.468,478.191c0,18.645,15.164,33.809,33.809,33.809h222.515c18.645,0,33.809-15.164,33.809-33.809v-60.058H55.468
				V478.191z M174.934,444.433c0-9.796,7.97-17.766,17.766-17.766h15.667c9.796,0,17.766,7.97,17.766,17.766V460.1
				c0,9.796-7.97,17.766-17.766,17.766h-15.667c-9.796,0-17.766-7.97-17.766-17.766V444.433z"/>
		</g>
	</g>
</g>
<g>
</g>
<g>
</g>
<g>
</g>
<g>
</g>
<g>
</g>
<g>
</g>
<g>
</g>
<g>
</g>
<g>
</g>
<g>
</g>
<g>
</g>
<g>
</g>
<g>
</g>
<g>
</g>
<g>
</g>
</svg>
