<?xml version="1.0" encoding="iso-8859-1"?>
<!-- Generator: Adobe Illustrator 19.0.0, SVG Export Plug-In . SVG Version: 6.00 Build 0)  -->
<svg version="1.1" id="Layer_1" xmlns="http://www.w3.org/2000/svg" xmlns:xlink="http://www.w3.org/1999/xlink" x="0px" y="0px"
	 viewBox="0 0 512.001 512.001" style="enable-background:new 0 0 512.001 512.001;" xml:space="preserve">
<g>
	<g>
		<g>
			<path d="M81.067,34.133c-14.114,0-25.6-11.486-25.6-25.6C55.467,3.814,51.644,0,46.934,0C42.223,0,38.4,3.814,38.4,8.533
				c0,14.114-11.486,25.6-25.6,25.6c-4.71,0-8.533,3.814-8.533,8.533S8.09,51.2,12.8,51.2c14.114,0,25.6,11.486,25.6,25.6
				c0,4.719,3.823,8.533,8.533,8.533c4.71,0,8.533-3.814,8.533-8.533c0-14.114,11.486-25.6,25.6-25.6
				c4.71,0,8.533-3.814,8.533-8.533S85.777,34.133,81.067,34.133z M46.934,51.226c-2.432-3.243-5.325-6.127-8.559-8.559
				c3.234-2.432,6.127-5.316,8.559-8.559c2.432,3.243,5.325,6.127,8.559,8.559C52.259,45.099,49.366,47.983,46.934,51.226z"/>
			<path d="M482.134,136.534H473.6v-8.533c0-4.719-3.823-8.533-8.533-8.533s-8.533,3.814-8.533,8.533v8.533H448
				c-4.71,0-8.533,3.814-8.533,8.533s3.823,8.533,8.533,8.533h8.533v8.533c0,4.719,3.823,8.533,8.533,8.533s8.533-3.814,8.533-8.533
				v-8.533h8.533c4.71,0,8.533-3.814,8.533-8.533S486.844,136.534,482.134,136.534z"/>
			<circle cx="64" cy="375.468" r="8.533"/>
			<circle cx="21.334" cy="221.868" r="8.533"/>
			<circle cx="439.467" cy="307.201" r="8.533"/>
			<circle cx="499.2" cy="486.401" r="8.533"/>
			<path d="M277.334,469.334c0-9.412-7.654-17.067-17.067-17.067c-9.412,0-17.067,7.654-17.067,17.067
				c0,9.412,7.654,17.067,17.067,17.067C269.679,486.401,277.334,478.746,277.334,469.334z"/>
			<path d="M371.533,0.001H149.001c-18.637,0-33.801,15.164-33.801,33.801v17.399h290.133V33.801
				C405.334,15.165,390.17,0.001,371.533,0.001z M226.134,34.134H217.6c-4.71,0-8.533-3.823-8.533-8.533
				c0-4.71,3.823-8.533,8.533-8.533h8.533c4.71,0,8.533,3.823,8.533,8.533C234.667,30.311,230.844,34.134,226.134,34.134z
				 M294.4,34.134h-42.667c-4.71,0-8.533-3.823-8.533-8.533c0-4.71,3.823-8.533,8.533-8.533H294.4c4.71,0,8.533,3.823,8.533,8.533
				C302.934,30.311,299.111,34.134,294.4,34.134z"/>
			<path d="M294.4,469.334c0,18.825-15.309,34.133-34.133,34.133s-34.133-15.309-34.133-34.133c0-10.24,4.625-19.337,11.793-25.6
				H115.2V478.2c0,18.637,15.164,33.8,33.801,33.8h222.532c18.637,0,33.8-15.164,33.8-33.8v-34.466H282.607
				C289.775,449.998,294.4,459.094,294.4,469.334z"/>
			<path d="M115.2,76.801c-4.71,0-8.533,3.823-8.533,8.533v8.533c0,4.71,3.823,8.533,8.533,8.533v8.533
				c-4.71,0-8.533,3.823-8.533,8.533v8.533c0,4.71,3.823,8.533,8.533,8.533v8.533c-4.71,0-8.533,3.823-8.533,8.533v8.533
				c0,4.71,3.823,8.533,8.533,8.533v256h290.133v-358.4H115.2V76.801z M345.6,290.134H174.934c-4.71,0-8.533-3.814-8.533-8.533
				c0-4.719,3.823-8.533,8.533-8.533H345.6c4.71,0,8.533,3.814,8.533,8.533C354.134,286.32,350.311,290.134,345.6,290.134z
				 M305.434,210.834c-3.337-3.337-3.337-8.73,0-12.066c3.337-3.337,8.73-3.337,12.066,0l11.034,11.034l11.034-11.034
				c3.336-3.337,8.73-3.337,12.066,0c3.337,3.336,3.337,8.73,0,12.066L340.6,221.868l11.034,11.034c3.337,3.337,3.337,8.73,0,12.066
				c-1.664,1.664-3.849,2.5-6.033,2.5c-2.185,0-4.369-0.836-6.033-2.5l-11.034-11.034L317.5,244.967
				c-1.664,1.664-3.849,2.5-6.033,2.5c-2.185,0-4.369-0.836-6.033-2.5c-3.337-3.337-3.337-8.73,0-12.066l11.034-11.034
				L305.434,210.834z M237.167,210.834c-3.337-3.337-3.337-8.73,0-12.066c3.337-3.337,8.73-3.337,12.066,0l11.034,11.034
				l11.034-11.034c3.337-3.337,8.73-3.337,12.066,0c3.337,3.336,3.337,8.73,0,12.066l-11.034,11.034l11.034,11.034
				c3.337,3.337,3.337,8.73,0,12.066c-1.664,1.664-3.849,2.5-6.033,2.5c-2.185,0-4.369-0.836-6.033-2.5l-11.034-11.034
				l-11.034,11.034c-1.664,1.664-3.849,2.5-6.033,2.5c-2.185,0-4.369-0.836-6.033-2.5c-3.337-3.337-3.337-8.73,0-12.066
				l11.034-11.034L237.167,210.834z M168.901,210.834c-3.337-3.337-3.337-8.73,0-12.066c3.337-3.337,8.73-3.337,12.066,0
				L192,209.801l11.034-11.034c3.337-3.337,8.73-3.337,12.066,0c3.337,3.336,3.337,8.73,0,12.066l-11.034,11.034l11.034,11.034
				c3.337,3.337,3.337,8.73,0,12.066c-1.664,1.664-3.849,2.5-6.033,2.5c-2.185,0-4.369-0.836-6.033-2.5L192,233.934l-11.034,11.034
				c-1.664,1.664-3.849,2.5-6.033,2.5c-2.185,0-4.369-0.836-6.033-2.5c-3.337-3.337-3.337-8.73,0-12.066l11.034-11.034
				L168.901,210.834z"/>
		</g>
	</g>
</g>
<g>
</g>
<g>
</g>
<g>
</g>
<g>
</g>
<g>
</g>
<g>
</g>
<g>
</g>
<g>
</g>
<g>
</g>
<g>
</g>
<g>
</g>
<g>
</g>
<g>
</g>
<g>
</g>
<g>
</g>
</svg>
