<?xml version="1.0" encoding="iso-8859-1"?>
<!-- Generator: Adobe Illustrator 19.0.0, SVG Export Plug-In . SVG Version: 6.00 Build 0)  -->
<svg version="1.1" id="Layer_1" xmlns="http://www.w3.org/2000/svg" xmlns:xlink="http://www.w3.org/1999/xlink" x="0px" y="0px"
	 viewBox="0 0 512.001 512.001" style="enable-background:new 0 0 512.001 512.001;" xml:space="preserve">
<g>
	<g>
		<g>
			<path d="M81.067,34.133c-14.114,0-25.6-11.486-25.6-25.6c0-4.71-3.823-8.533-8.533-8.533C42.223,0,38.4,3.823,38.4,8.533
				c0,14.114-11.486,25.6-25.6,25.6c-4.71,0-8.533,3.823-8.533,8.533c0,4.71,3.823,8.533,8.533,8.533
				c14.114,0,25.6,11.486,25.6,25.6c0,4.71,3.823,8.533,8.533,8.533c4.71,0,8.533-3.823,8.533-8.533c0-14.114,11.486-25.6,25.6-25.6
				c4.71,0,8.533-3.823,8.533-8.533C89.6,37.956,85.777,34.133,81.067,34.133z M46.934,51.226c-2.432-3.234-5.325-6.127-8.559-8.559
				c3.234-2.432,6.127-5.316,8.559-8.559c2.432,3.243,5.325,6.127,8.559,8.559C52.259,45.099,49.366,47.991,46.934,51.226z"/>
			<path d="M482.134,136.534H473.6v-8.533c0-4.71-3.823-8.533-8.533-8.533s-8.533,3.823-8.533,8.533v8.533H448
				c-4.71,0-8.533,3.823-8.533,8.533c0,4.71,3.823,8.533,8.533,8.533h8.533v8.533c0,4.71,3.823,8.533,8.533,8.533
				s8.533-3.823,8.533-8.533v-8.533h8.533c4.71,0,8.533-3.823,8.533-8.533C490.667,140.357,486.844,136.534,482.134,136.534z"/>
			<circle cx="64" cy="375.468" r="8.533"/>
			<circle cx="21.334" cy="221.868" r="8.533"/>
			<circle cx="439.467" cy="307.201" r="8.533"/>
			<circle cx="499.2" cy="486.401" r="8.533"/>
			<path d="M277.334,469.334c0-9.412-7.654-17.067-17.067-17.067c-9.412,0-17.067,7.654-17.067,17.067
				c0,9.412,7.654,17.067,17.067,17.067C269.679,486.401,277.334,478.746,277.334,469.334z"/>
			<path d="M371.533,0.001H149.001c-18.637,0-33.801,15.164-33.801,33.801v17.399h290.133V33.801
				C405.334,15.165,390.17,0.001,371.533,0.001z M226.134,34.134H217.6c-4.71,0-8.533-3.823-8.533-8.533
				c0-4.71,3.823-8.533,8.533-8.533h8.533c4.71,0,8.533,3.823,8.533,8.533C234.667,30.311,230.844,34.134,226.134,34.134z
				 M294.4,34.134h-42.667c-4.71,0-8.533-3.823-8.533-8.533c0-4.71,3.823-8.533,8.533-8.533H294.4c4.71,0,8.533,3.823,8.533,8.533
				C302.934,30.311,299.111,34.134,294.4,34.134z"/>
			<path d="M294.4,469.334c0,18.825-15.309,34.133-34.133,34.133s-34.133-15.309-34.133-34.133c0-10.24,4.625-19.337,11.793-25.6
				H115.2V478.2c0,18.637,15.164,33.8,33.801,33.8h222.532c18.637,0,33.8-15.164,33.8-33.8v-34.466H282.607
				C289.775,449.998,294.4,459.094,294.4,469.334z"/>
			<path d="M260.265,349.868c51.763,0,93.867-42.112,93.867-93.867c0-51.755-42.104-93.867-93.867-93.867
				c-51.755,0-93.867,42.112-93.867,93.867C166.399,307.756,208.511,349.868,260.265,349.868z M262.245,259.073l42.667-51.2
				c2.304-2.765,6.084-3.789,9.455-2.56c3.379,1.22,5.632,4.429,5.632,8.021v42.667h8.533c4.71,0,8.533,3.823,8.533,8.533
				c0,4.71-3.823,8.533-8.533,8.533h-8.533v17.067c0,4.71-3.823,8.533-8.533,8.533s-8.533-3.823-8.533-8.533v-17.067h-34.133
				c-3.311,0-6.323-1.92-7.731-4.915C259.668,265.157,260.129,261.616,262.245,259.073z M196.325,276.976l38.656-33.323
				c4.104-4.139,3.994-10.061,2.364-14.089c-0.717-1.775-3.635-7.578-10.923-7.697h-0.009c-9.694,0-17.348,7.654-17.348,17.067
				c0,4.71-3.823,8.533-8.533,8.533s-8.533-3.823-8.533-8.533c0-18.825,15.317-34.133,34.133-34.133
				c12.382,0.196,22.528,7.228,27.034,18.364c4.625,11.418,2.039,24.363-6.579,32.99l-29.491,25.446h34.637
				c4.71,0,8.533,3.823,8.533,8.533s-3.823,8.533-8.533,8.533h-47.352c-5.214,0-9.754-3.157-11.571-8.047
				C190.992,285.731,192.374,280.381,196.325,276.976z"/>
			<polygon points="302.934,236.905 287.019,256.003 302.934,256.003 			"/>
			<path d="M115.2,76.801c-4.71,0-8.533,3.823-8.533,8.533v8.533c0,4.71,3.823,8.533,8.533,8.533v8.533
				c-4.71,0-8.533,3.823-8.533,8.533v8.533c0,4.71,3.823,8.533,8.533,8.533v8.533c-4.71,0-8.533,3.823-8.533,8.533v8.533
				c0,4.71,3.823,8.533,8.533,8.533v256h290.133v-358.4H115.2V76.801z M260.267,145.068c61.167,0,110.933,49.766,110.933,110.933
				s-49.766,110.933-110.933,110.933s-110.933-49.766-110.933-110.933S199.1,145.068,260.267,145.068z"/>
		</g>
	</g>
</g>
<g>
</g>
<g>
</g>
<g>
</g>
<g>
</g>
<g>
</g>
<g>
</g>
<g>
</g>
<g>
</g>
<g>
</g>
<g>
</g>
<g>
</g>
<g>
</g>
<g>
</g>
<g>
</g>
<g>
</g>
</svg>
