<?xml version="1.0" encoding="iso-8859-1"?>
<!-- Generator: Adobe Illustrator 19.0.0, SVG Export Plug-In . SVG Version: 6.00 Build 0)  -->
<svg version="1.1" id="Layer_1" xmlns="http://www.w3.org/2000/svg" xmlns:xlink="http://www.w3.org/1999/xlink" x="0px" y="0px"
	 viewBox="0 0 512.001 512.001" style="enable-background:new 0 0 512.001 512.001;" xml:space="preserve">
<g>
	<g>
		<g>
			<path d="M81.067,34.133c-14.114,0-25.6-11.486-25.6-25.6c0-4.71-3.814-8.533-8.533-8.533S38.4,3.823,38.4,8.533
				c0,14.114-11.486,25.6-25.6,25.6c-4.719,0-8.533,3.823-8.533,8.533c0,4.71,3.814,8.533,8.533,8.533
				c14.114,0,25.6,11.486,25.6,25.6c0,4.71,3.814,8.533,8.533,8.533s8.533-3.823,8.533-8.533c0-14.114,11.486-25.6,25.6-25.6
				c4.719,0,8.533-3.823,8.533-8.533C89.6,37.956,85.786,34.133,81.067,34.133z M46.934,51.226
				c-2.432-3.234-5.316-6.127-8.559-8.559c3.243-2.432,6.127-5.316,8.559-8.559c2.432,3.243,5.316,6.127,8.559,8.559
				C52.25,45.099,49.366,47.991,46.934,51.226z"/>
			<path d="M482.134,136.534H473.6v-8.533c0-4.71-3.814-8.533-8.533-8.533c-4.719,0-8.533,3.823-8.533,8.533v8.533H448
				c-4.719,0-8.533,3.823-8.533,8.533c0,4.71,3.814,8.533,8.533,8.533h8.533v8.533c0,4.71,3.814,8.533,8.533,8.533
				c4.719,0,8.533-3.823,8.533-8.533v-8.533h8.533c4.719,0,8.533-3.823,8.533-8.533
				C490.667,140.357,486.853,136.534,482.134,136.534z"/>
			<circle cx="64" cy="375.468" r="8.533"/>
			<circle cx="21.334" cy="221.868" r="8.533"/>
			<circle cx="439.467" cy="307.201" r="8.533"/>
			<circle cx="499.2" cy="486.401" r="8.533"/>
			<path d="M243.2,469.334c0,9.412,7.654,17.067,17.067,17.067c9.412,0,17.067-7.654,17.067-17.067
				c0-9.412-7.654-17.067-17.067-17.067C250.855,452.268,243.2,459.922,243.2,469.334z"/>
			<path d="M371.533,0.001H149.001c-18.637,0-33.801,15.164-33.801,33.801v17.399h290.133V33.801
				C405.334,15.165,390.17,0.001,371.533,0.001z M226.134,34.134H217.6c-4.71,0-8.533-3.823-8.533-8.533
				c0-4.71,3.823-8.533,8.533-8.533h8.533c4.71,0,8.533,3.823,8.533,8.533C234.667,30.311,230.844,34.134,226.134,34.134z
				 M294.4,34.134h-42.667c-4.71,0-8.533-3.823-8.533-8.533c0-4.71,3.823-8.533,8.533-8.533H294.4c4.71,0,8.533,3.823,8.533,8.533
				C302.934,30.311,299.111,34.134,294.4,34.134z"/>
			<path d="M294.4,469.334c0,18.825-15.309,34.133-34.133,34.133s-34.133-15.309-34.133-34.133c0-10.24,4.625-19.337,11.793-25.6
				H115.2V478.2c0,18.637,15.164,33.8,33.801,33.8h222.532c18.637,0,33.8-15.164,33.8-33.8v-34.466H282.607
				C289.775,449.998,294.4,459.094,294.4,469.334z"/>
			<path d="M405.333,426.664v-358.4H115.2v8.533c-4.71,0-8.533,3.823-8.533,8.533v8.533c0,4.719,3.823,8.533,8.533,8.533v8.533
				c-4.71,0-8.533,3.823-8.533,8.533v8.533c0,4.719,3.823,8.533,8.533,8.533v8.533c-4.71,0-8.533,3.823-8.533,8.533v8.533
				c0,4.719,3.823,8.533,8.533,8.533v256H405.333z M149.734,231.259c0.99-3.132,3.703-5.41,6.946-5.862l66.372-9.301l29.619-57.847
				c2.918-5.709,12.271-5.709,15.189,0l29.619,57.847l66.372,9.301c3.251,0.452,5.956,2.731,6.946,5.862
				c0.99,3.132,0.102,6.554-2.287,8.806l-47.838,44.937l11.281,63.369c0.563,3.191-0.717,6.417-3.311,8.346
				c-1.502,1.118-3.294,1.681-5.094,1.681c-1.314,0-2.637-0.299-3.857-0.913l-59.426-30.114l-59.426,30.114
				c-2.884,1.451-6.349,1.161-8.951-0.768c-2.586-1.929-3.874-5.154-3.302-8.346l11.273-63.369l-47.829-44.937
				C149.632,237.813,148.744,234.391,149.734,231.259z"/>
			<path d="M217.467,283.442l-9.079,51.081l48.017-24.337c1.22-0.606,2.534-0.922,3.866-0.922c1.323,0,2.637,0.316,3.857,0.922
				l48.026,24.337l-9.088-51.081c-0.503-2.842,0.461-5.743,2.56-7.714l38.221-35.908l-53.12-7.432
				c-2.748-0.384-5.146-2.091-6.409-4.565l-24.047-46.959l-24.055,46.959c-1.263,2.475-3.652,4.181-6.409,4.565l-53.112,7.432
				l38.212,35.908C217.007,277.699,217.979,280.601,217.467,283.442z"/>
		</g>
	</g>
</g>
<g>
</g>
<g>
</g>
<g>
</g>
<g>
</g>
<g>
</g>
<g>
</g>
<g>
</g>
<g>
</g>
<g>
</g>
<g>
</g>
<g>
</g>
<g>
</g>
<g>
</g>
<g>
</g>
<g>
</g>
</svg>
