<?xml version="1.0" encoding="iso-8859-1"?>
<!-- Generator: Adobe Illustrator 19.0.0, SVG Export Plug-In . SVG Version: 6.00 Build 0)  -->
<svg version="1.1" id="Layer_1" xmlns="http://www.w3.org/2000/svg" xmlns:xlink="http://www.w3.org/1999/xlink" x="0px" y="0px"
	 viewBox="0 0 512.001 512.001" style="enable-background:new 0 0 512.001 512.001;" xml:space="preserve">
<g>
	<g>
		<g>
			<path d="M81.067,34.133c-14.114,0-25.6-11.486-25.6-25.6C55.467,3.814,51.644,0,46.934,0C42.223,0,38.4,3.814,38.4,8.533
				c0,14.114-11.486,25.6-25.6,25.6c-4.71,0-8.533,3.814-8.533,8.533S8.09,51.2,12.8,51.2c14.114,0,25.6,11.486,25.6,25.6
				c0,4.719,3.823,8.533,8.533,8.533c4.71,0,8.533-3.814,8.533-8.533c0-14.114,11.486-25.6,25.6-25.6
				c4.71,0,8.533-3.814,8.533-8.533S85.777,34.133,81.067,34.133z M46.934,51.226c-2.432-3.243-5.325-6.127-8.559-8.559
				c3.234-2.432,6.127-5.316,8.559-8.559c2.432,3.243,5.325,6.127,8.559,8.559C52.259,45.099,49.366,47.983,46.934,51.226z"/>
			<path d="M482.134,136.534H473.6v-8.533c0-4.719-3.814-8.533-8.533-8.533c-4.719,0-8.533,3.814-8.533,8.533v8.533H448
				c-4.719,0-8.533,3.814-8.533,8.533s3.814,8.533,8.533,8.533h8.533v8.533c0,4.719,3.814,8.533,8.533,8.533
				c4.719,0,8.533-3.814,8.533-8.533v-8.533h8.533c4.719,0,8.533-3.814,8.533-8.533S486.853,136.534,482.134,136.534z"/>
			<circle cx="64" cy="375.468" r="8.533"/>
			<circle cx="21.334" cy="221.868" r="8.533"/>
			<circle cx="439.467" cy="307.201" r="8.533"/>
			<circle cx="499.2" cy="486.401" r="8.533"/>
			<path d="M277.334,469.334c0-9.412-7.654-17.067-17.067-17.067c-9.412,0-17.067,7.654-17.067,17.067
				c0,9.412,7.654,17.067,17.067,17.067C269.679,486.401,277.334,478.746,277.334,469.334z"/>
			<path d="M371.533,0.001H149.001c-18.637,0-33.801,15.164-33.801,33.801v17.399h290.133V33.801
				C405.334,15.165,390.17,0.001,371.533,0.001z M226.134,34.134H217.6c-4.71,0-8.533-3.823-8.533-8.533
				c0-4.71,3.823-8.533,8.533-8.533h8.533c4.71,0,8.533,3.823,8.533,8.533C234.667,30.311,230.844,34.134,226.134,34.134z
				 M294.4,34.134h-42.667c-4.71,0-8.533-3.823-8.533-8.533c0-4.71,3.823-8.533,8.533-8.533H294.4c4.71,0,8.533,3.823,8.533,8.533
				C302.934,30.311,299.111,34.134,294.4,34.134z"/>
			<path d="M294.4,469.334c0,18.825-15.309,34.133-34.133,34.133s-34.133-15.309-34.133-34.133c0-10.24,4.625-19.337,11.793-25.6
				H115.2V478.2c0,18.637,15.164,33.8,33.801,33.8h222.532c18.637,0,33.8-15.164,33.8-33.8v-34.466H282.607
				C289.775,449.998,294.4,459.094,294.4,469.334z"/>
			<polygon points="200.534,158.876 166.4,175.943 166.4,310.462 200.534,293.396 			"/>
			<polygon points="302.934,161.01 268.8,183.768 268.8,310.462 302.934,293.396 			"/>
			<polygon points="251.734,183.768 217.6,161.01 217.6,293.396 251.734,310.462 			"/>
			<path d="M115.2,76.801c-4.71,0-8.533,3.823-8.533,8.533v8.533c0,4.71,3.823,8.533,8.533,8.533v8.533
				c-4.71,0-8.533,3.823-8.533,8.533v8.533c0,4.71,3.823,8.533,8.533,8.533v8.533c-4.71,0-8.533,3.823-8.533,8.533v8.533
				c0,4.71,3.823,8.533,8.533,8.533v256h290.133v-358.4H115.2V76.801z M149.334,170.668c0-3.234,1.826-6.187,4.719-7.637l51.2-25.6
				c0.427-0.213,0.887-0.324,1.34-0.461c0.23-0.068,0.435-0.188,0.666-0.239c1.468-0.316,2.978-0.239,4.403,0.213
				c0.196,0.068,0.367,0.179,0.555,0.256c0.452,0.188,0.913,0.35,1.34,0.606c0.043,0.034,0.077,0.068,0.12,0.102
				c0.043,0.026,0.085,0.034,0.128,0.06l46.464,30.976l46.464-30.976c0.043-0.026,0.085-0.034,0.128-0.06
				c0.043-0.034,0.077-0.068,0.12-0.102c0.427-0.256,0.879-0.427,1.331-0.606c0.196-0.077,0.367-0.188,0.563-0.256
				c1.425-0.452,2.935-0.529,4.403-0.213c0.205,0.051,0.401,0.154,0.606,0.213c0.478,0.145,0.956,0.265,1.399,0.486l51.2,25.6
				c2.893,1.451,4.719,4.403,4.719,7.637v153.6c0,2.961-1.536,5.7-4.045,7.262c-1.374,0.845-2.927,1.271-4.489,1.271
				c-1.306,0-2.611-0.299-3.814-0.896l-47.386-23.697l-47.386,23.697c-0.119,0.06-0.265,0.034-0.393,0.085
				c-1.092,0.486-2.244,0.811-3.422,0.811s-2.33-0.324-3.422-0.811c-0.128-0.051-0.273-0.026-0.393-0.085l-47.386-23.697
				l-47.386,23.697c-1.203,0.597-2.509,0.896-3.814,0.896c-1.562,0-3.115-0.427-4.489-1.271c-2.509-1.562-4.045-4.301-4.045-7.262
				V170.668z"/>
			<polygon points="354.134,175.943 320,158.876 320,293.396 354.134,310.462 			"/>
		</g>
	</g>
</g>
<g>
</g>
<g>
</g>
<g>
</g>
<g>
</g>
<g>
</g>
<g>
</g>
<g>
</g>
<g>
</g>
<g>
</g>
<g>
</g>
<g>
</g>
<g>
</g>
<g>
</g>
<g>
</g>
<g>
</g>
</svg>
