<?xml version="1.0" encoding="iso-8859-1"?>
<!-- Generator: Adobe Illustrator 19.0.0, SVG Export Plug-In . SVG Version: 6.00 Build 0)  -->
<svg version="1.1" id="Layer_1" xmlns="http://www.w3.org/2000/svg" xmlns:xlink="http://www.w3.org/1999/xlink" x="0px" y="0px"
	 viewBox="0 0 511.997 511.997" style="enable-background:new 0 0 511.997 511.997;" xml:space="preserve">
<g>
	<g>
		<g>
			<path d="M379.732,25.6c-29.235,0-56.013,9.336-76.8,24.764V33.801C302.932,15.164,287.768,0,269.131,0H46.599
				C27.962,0,12.798,15.164,12.798,33.801V51.2h76.8c4.71,0,8.533,3.814,8.533,8.533c0,4.71-3.823,8.533-8.533,8.533h-76.8v332.8
				h36.429c1.263-1.749,2.859-4.139,3.703-5.402c1.109-1.681,2.014-2.995,2.406-3.482c3.157-3.908,6.494-7.637,9.907-11.324
				c7.296-7.885,16.111-16.64,28.254-20.429c1.263-0.393,2.577-0.734,3.883-1.067c1.314-0.341,2.637-0.666,3.9-1.126
				c0.649-0.239,1.178-0.495,1.613-0.759c4.77-2.978,4.326-12.996,3.968-21.052c-0.043-0.998-0.085-1.98-0.119-2.927
				c-5.615-6.084-19.046-22.084-24.602-41.284c-6.229-4.855-9.609-11.153-9.609-18.031v-21.513c0-6.562,4.113-12.032,8.533-16.358
				v-24.653c0.009-0.674,1.502-58.061,76.8-58.061s76.792,57.387,76.8,57.975v24.738c4.42,4.326,8.533,9.796,8.533,16.358v21.513
				c0,6.878-3.379,13.175-9.609,18.031c-5.769,19.934-20.019,36.403-25.208,41.933c0.026,2.014,0.307,5.154,0.427,6.528
				c0.154,1.707,0.256,3.089,0.256,3.78c0.017,7.654,0.862,10.675,3.601,12.919c0.546,0.452,0.905,0.657,1.118,0.734
				c0.7,0.299,1.468,0.401,2.227,0.555l0.99,0.205c22.536,4.881,38.443,25.737,50.261,42.197h35.669V240
				c9.907-2.935,20.685-6.861,30.31-11.998c14.72,5.504,30.336,8.286,46.49,8.286c64.759,0,119.467-49.596,119.467-108.288
				C499.198,70.579,446.727,25.6,379.732,25.6z M379.732,219.221c-15.343,0-30.114-2.867-43.895-8.525
				c-2.458-1.024-5.265-0.811-7.569,0.529c-7.74,4.557-16.683,8.064-25.335,10.871v-0.085l-10.846,3.063
				c-1.869,0.521-3.669,0.998-5.419,1.442c4.523-10.854,7.535-24.73,8.977-41.532c0.179-2.108-0.427-4.198-1.698-5.888
				c-10.871-14.336-16.614-30.993-16.614-48.154c0-2.893,0.188-5.743,0.503-8.559c0.068-0.631,0.196-1.237,0.273-1.86
				c0.324-2.364,0.708-4.702,1.246-6.997c0.068-0.29,0.145-0.58,0.213-0.862c9.796-39.936,50.978-69.999,100.164-69.999
				c57.421,0,102.4,37.478,102.4,85.333C482.132,177.442,435.241,219.221,379.732,219.221z"/>
			<path d="M408.023,76.797c-11.494,0-21.35,5.888-28.288,13.653c-6.946-7.765-16.802-13.653-28.297-13.653
				c-20.497,0-37.521,16.128-39.714,37.555c-0.282,1.869-0.734,6.98,1.203,14.609c2.91,11.469,9.566,21.854,19.268,30.063
				l42.052,35.251c1.587,1.323,3.533,1.988,5.487,1.988c1.946,0,3.891-0.666,5.478-1.988l42.069-35.268
				c9.685-8.175,16.341-18.56,19.251-30.029c1.937-7.646,1.485-12.757,1.203-14.626C445.544,92.925,428.52,76.797,408.023,76.797z"
				/>
			<path d="M165.699,443.73h-15.667c-0.384,0-0.7,0.316-0.7,0.7v15.667c0,0.384,0.316,0.7,0.7,0.7h15.667c0.384,0,0.7-0.316,0.7-0.7
				V444.43C166.398,444.046,166.083,443.73,165.699,443.73z"/>
			<path d="M111.923,371.955c-1.417,0.888-2.961,1.63-4.71,2.287l-0.017,0.009c-1.809,0.666-3.686,1.152-5.581,1.647
				c-1.016,0.256-2.031,0.512-3.021,0.828c-8.141,2.534-14.754,9.165-20.821,15.727c-2.62,2.825-5.18,5.666-7.637,8.61h175.889
				c-9.156-11.725-19.9-22.75-32.631-25.506c-2.628-0.546-4.42-0.964-6.135-1.664c-1.886-0.785-3.703-1.903-5.427-3.328
				c-9.788-8.03-9.813-19.328-9.83-26.078c-0.017-0.435-0.094-1.28-0.188-2.304c-0.811-9.165-1.084-14.541,2.756-18.296
				c0.179-0.179,18.364-18.202,23.262-38.827l0.802-3.405l2.97-1.86c1.69-1.058,4.531-3.191,4.531-5.606v-21.521
				c-0.06-0.043-0.7-1.886-5.615-6.187l-2.918-2.551v-32.265c-0.102-4.062-2.697-41.003-59.733-41.003
				c-58.615,0-59.716,39.415-59.733,41.097v32.171l-2.918,2.551c-4.915,4.301-5.564,6.144-5.641,6.468l0.026,21.24
				c0,2.415,2.833,4.548,4.531,5.606l2.961,1.86l0.811,3.405c4.89,20.625,23.083,38.647,23.262,38.827l2.56,2.509l0.009,3.593
				c0,1.749,0.085,3.669,0.179,5.683C124.407,346.842,125.158,363.703,111.923,371.955z"/>
			<path d="M52.828,418.13h-40.03v60.058c0,18.645,15.164,33.809,33.801,33.809h222.532c18.637,0,33.801-15.164,33.801-33.809
				V418.13h-23.424H52.828z M183.465,460.097c0,9.796-7.97,17.766-17.766,17.766h-15.667c-9.796,0-17.766-7.97-17.766-17.766V444.43
				c0-9.796,7.97-17.766,17.766-17.766h15.667c9.796,0,17.766,7.97,17.766,17.766V460.097z"/>
		</g>
	</g>
</g>
<g>
</g>
<g>
</g>
<g>
</g>
<g>
</g>
<g>
</g>
<g>
</g>
<g>
</g>
<g>
</g>
<g>
</g>
<g>
</g>
<g>
</g>
<g>
</g>
<g>
</g>
<g>
</g>
<g>
</g>
</svg>
