<?xml version="1.0" encoding="iso-8859-1"?>
<!-- Generator: Adobe Illustrator 19.0.0, SVG Export Plug-In . SVG Version: 6.00 Build 0)  -->
<svg version="1.1" id="Layer_1" xmlns="http://www.w3.org/2000/svg" xmlns:xlink="http://www.w3.org/1999/xlink" x="0px" y="0px"
	 viewBox="0 0 512 512" style="enable-background:new 0 0 512 512;" xml:space="preserve">
<g>
	<g>
		<g>
			<path d="M475.506,149.309c-4.582-1.237-9.233,1.485-10.453,6.033l-2.261,8.448c-1.22,4.548,1.485,9.233,6.033,10.453
				c0.742,0.196,1.485,0.29,2.219,0.29c3.763,0,7.211-2.517,8.235-6.323l2.261-8.448
				C482.759,155.205,480.054,150.529,475.506,149.309z"/>
			<path d="M486.827,107.083c-4.531-1.212-9.224,1.476-10.453,6.024l-2.27,8.44c-1.22,4.557,1.485,9.233,6.033,10.462
				c0.742,0.196,1.485,0.29,2.219,0.29c3.763,0,7.211-2.509,8.235-6.315l2.27-8.439C494.08,112.98,491.375,108.312,486.827,107.083z
				"/>
			<path d="M452.877,233.766c-4.582-1.246-9.233,1.485-10.453,6.033l-2.261,8.448c-1.22,4.548,1.485,9.233,6.033,10.453
				c0.742,0.196,1.485,0.29,2.219,0.29c3.763,0,7.211-2.517,8.235-6.323l2.261-8.448
				C460.131,239.663,457.425,234.987,452.877,233.766z"/>
			<path d="M495.002,64.392h-0.026c-4.702,0-8.516,3.797-8.533,8.508c-0.009,1.766-0.247,3.541-0.708,5.265l-0.316,1.169
				c-1.22,4.548,1.485,9.233,6.033,10.453c0.742,0.196,1.485,0.29,2.219,0.29c3.772,0,7.211-2.517,8.235-6.323l0.316-1.169
				c0.845-3.149,1.271-6.391,1.289-9.634C503.527,68.24,499.712,64.409,495.002,64.392z"/>
			<path d="M441.56,276c-4.531-1.22-9.233,1.485-10.453,6.033l-2.261,8.439c-1.22,4.548,1.485,9.233,6.033,10.453
				c0.742,0.196,1.485,0.29,2.219,0.29c3.763,0,7.211-2.509,8.235-6.323l2.261-8.439C448.814,281.897,446.117,277.221,441.56,276z"
				/>
			<path d="M423.585,40.259l8.448,2.27c0.742,0.196,1.485,0.29,2.219,0.29c3.763,0,7.211-2.509,8.235-6.323
				c1.22-4.557-1.476-9.225-6.033-10.453l-8.439-2.27c-4.574-1.212-9.233,1.485-10.462,6.033
				C416.332,34.362,419.037,39.03,423.585,40.259z"/>
			<path d="M418.931,360.458c-4.531-1.229-9.233,1.476-10.453,6.033l-2.261,8.439c-1.22,4.548,1.485,9.233,6.033,10.453
				c0.742,0.196,1.485,0.29,2.219,0.29c3.763,0,7.211-2.509,8.235-6.323l2.261-8.439
				C426.184,366.355,423.488,361.679,418.931,360.458z"/>
			<path d="M430.252,318.225c-4.574-1.237-9.233,1.476-10.453,6.033l-2.27,8.448c-1.22,4.548,1.485,9.233,6.033,10.453
				c0.742,0.196,1.485,0.29,2.219,0.29c3.763,0,7.211-2.509,8.235-6.323l2.27-8.448C437.505,324.122,434.8,319.445,430.252,318.225z
				"/>
			<path d="M465.815,51.575l5.402,1.451c0.708,0.188,1.399,0.418,2.074,0.674c1.033,0.41,2.091,0.597,3.132,0.597
				c3.405,0,6.613-2.039,7.936-5.393c1.732-4.386-0.418-9.344-4.804-11.068c-1.271-0.512-2.569-0.939-3.917-1.297l-5.393-1.451
				c-4.54-1.212-9.225,1.485-10.462,6.025C458.561,45.678,461.266,50.346,465.815,51.575z"/>
			<path d="M464.189,191.542c-4.548-1.229-9.233,1.476-10.453,6.033l-2.261,8.439c-1.22,4.548,1.485,9.233,6.033,10.453
				c0.742,0.196,1.485,0.29,2.219,0.29c3.763,0,7.211-2.509,8.235-6.323l2.261-8.439
				C471.442,197.438,468.746,192.762,464.189,191.542z"/>
			<path d="M407.615,402.68c-4.574-1.237-9.233,1.485-10.453,6.033l-0.23,0.888H115.066l-0.239-0.888
				c-1.22-4.548-5.897-7.253-10.445-6.033c-4.557,1.22-7.253,5.905-6.033,10.453l2.261,8.439c1.024,3.823,4.471,6.332,8.235,6.332
				c0.674,0,1.365-0.102,2.048-0.273v46.78c0,20.719,16.862,37.589,37.589,37.589h214.946c20.727,0,37.598-16.87,37.598-37.589
				v-46.78c0.708,0.179,1.425,0.282,2.125,0.282c3.763,0,7.211-2.517,8.235-6.332l2.261-8.448
				C414.868,408.585,412.163,403.9,407.615,402.68z M247.427,486.4c-18.825,0-34.133-15.309-34.133-34.133
				c0-18.825,15.309-34.133,34.133-34.133s34.133,15.309,34.133,34.133C281.56,471.091,266.252,486.4,247.427,486.4z"/>
			<path d="M77.752,42.817c0.725,0,1.476-0.094,2.219-0.29l8.448-2.27c4.548-1.22,7.245-5.897,6.025-10.445
				c-1.22-4.565-5.88-7.262-10.453-6.033l-8.448,2.261c-4.548,1.229-7.245,5.905-6.025,10.453
				C70.533,40.308,73.989,42.817,77.752,42.817z"/>
			<path d="M35.581,54.3c1.041,0,2.099-0.188,3.132-0.597c0.666-0.265,1.357-0.486,2.065-0.674l5.41-1.451
				c4.548-1.229,7.245-5.905,6.025-10.453c-1.212-4.557-5.888-7.27-10.453-6.033l-5.402,1.451c-1.34,0.358-2.645,0.785-3.917,1.289
				c-4.378,1.724-6.528,6.69-4.804,11.068C28.968,52.261,32.176,54.3,35.581,54.3z"/>
			<path d="M71.835,248.233l-2.27-8.439c-1.22-4.54-5.879-7.253-10.453-6.025c-4.548,1.22-7.245,5.897-6.025,10.453l2.261,8.448
				c1.024,3.806,4.471,6.315,8.243,6.315c0.725,0,1.476-0.094,2.21-0.29C70.359,257.466,73.055,252.79,71.835,248.233z"/>
			<path d="M26.572,79.334l-0.316-1.169c-0.461-1.724-0.7-3.499-0.7-5.265c-0.017-4.71-3.831-8.508-8.533-8.508h-0.034
				c-4.71,0.017-8.516,3.849-8.499,8.559c0.009,3.243,0.444,6.485,1.289,9.634l0.307,1.169c1.024,3.814,4.471,6.323,8.243,6.323
				c0.725,0,1.468-0.094,2.21-0.29C25.088,88.567,27.793,83.882,26.572,79.334z"/>
			<path d="M60.519,206.017l-2.261-8.448c-1.22-4.548-5.888-7.27-10.453-6.033c-4.548,1.212-7.253,5.896-6.033,10.445l2.261,8.457
				c1.024,3.806,4.471,6.323,8.243,6.323c0.725,0,1.468-0.094,2.21-0.29C59.034,215.25,61.739,210.565,60.519,206.017z"/>
			<path d="M83.148,290.475l-2.261-8.448c-1.22-4.54-5.888-7.287-10.453-6.033c-4.548,1.212-7.253,5.897-6.033,10.445l2.261,8.457
				c1.024,3.806,4.471,6.323,8.243,6.323c0.725,0,1.468-0.094,2.21-0.29C81.663,299.708,84.368,295.023,83.148,290.475z"/>
			<path d="M105.781,374.933l-2.261-8.448c-1.22-4.54-5.888-7.27-10.453-6.033c-4.548,1.212-7.253,5.897-6.033,10.445l2.261,8.457
				c1.024,3.806,4.471,6.323,8.243,6.323c0.725,0,1.468-0.094,2.21-0.29C104.297,384.166,107.002,379.482,105.781,374.933z"/>
			<path d="M94.464,332.7l-2.261-8.44c-1.22-4.557-5.905-7.279-10.453-6.033c-4.548,1.212-7.253,5.896-6.033,10.445l2.261,8.448
				c1.024,3.814,4.471,6.323,8.243,6.323c0.725,0,1.476-0.094,2.21-0.29C92.988,341.933,95.685,337.248,94.464,332.7z"/>
			<path d="M37.885,121.558l-2.261-8.448c-1.22-4.54-5.879-7.287-10.453-6.033c-4.548,1.212-7.253,5.896-6.033,10.445l2.261,8.457
				c1.024,3.806,4.471,6.323,8.243,6.323c0.725,0,1.468-0.094,2.21-0.29C36.4,130.791,39.105,126.106,37.885,121.558z"/>
			<path d="M49.202,163.784l-2.261-8.439c-1.22-4.557-5.905-7.27-10.453-6.033c-4.548,1.212-7.253,5.897-6.033,10.445l2.261,8.448
				c1.024,3.814,4.471,6.323,8.243,6.323c0.725,0,1.476-0.094,2.21-0.29C47.726,173.017,50.422,168.332,49.202,163.784z"/>
			<path d="M401.023,68.267H110.889v324.267h290.133V68.267z M366.889,307.2c0,4.719-3.823,8.533-8.533,8.533h-204.8
				c-4.71,0-8.533-3.814-8.533-8.533V170.667c0-4.719,3.823-8.533,8.533-8.533h204.8c4.71,0,8.533,3.814,8.533,8.533V307.2z"/>
			<polygon points="247.423,228.408 247.423,249.46 264.967,238.93 			"/>
			<path d="M162.089,298.667h187.733V179.2H162.089V298.667z M230.356,213.333c0-3.072,1.655-5.905,4.326-7.424
				c2.68-1.519,5.965-1.468,8.602,0.111l42.667,25.6c2.569,1.536,4.139,4.309,4.139,7.313s-1.57,5.777-4.139,7.313l-42.667,25.6
				c-1.357,0.811-2.876,1.22-4.395,1.22c-1.451,0-2.901-0.367-4.207-1.109c-2.671-1.519-4.326-4.352-4.326-7.424V213.333z"/>
			<path d="M401.027,37.589C401.027,16.87,384.157,0,363.429,0H148.483c-20.727,0-37.589,16.87-37.589,37.589V51.2h290.133V37.589z
				 M255.96,42.667h-34.133c-4.71,0-8.533-3.814-8.533-8.533s3.823-8.533,8.533-8.533h34.133c4.71,0,8.533,3.814,8.533,8.533
				S260.671,42.667,255.96,42.667z M290.094,42.667h-8.533c-4.71,0-8.533-3.814-8.533-8.533s3.823-8.533,8.533-8.533h8.533
				c4.71,0,8.533,3.814,8.533,8.533S294.804,42.667,290.094,42.667z"/>
			<path d="M247.427,435.2c-9.412,0-17.067,7.654-17.067,17.067c0,9.412,7.654,17.067,17.067,17.067
				c9.412,0,17.067-7.654,17.067-17.067C264.494,442.854,256.839,435.2,247.427,435.2z"/>
		</g>
	</g>
</g>
<g>
</g>
<g>
</g>
<g>
</g>
<g>
</g>
<g>
</g>
<g>
</g>
<g>
</g>
<g>
</g>
<g>
</g>
<g>
</g>
<g>
</g>
<g>
</g>
<g>
</g>
<g>
</g>
<g>
</g>
</svg>
