<?xml version="1.0" encoding="iso-8859-1"?>
<!-- Generator: Adobe Illustrator 19.0.0, SVG Export Plug-In . SVG Version: 6.00 Build 0)  -->
<svg version="1.1" id="Layer_1" xmlns="http://www.w3.org/2000/svg" xmlns:xlink="http://www.w3.org/1999/xlink" x="0px" y="0px"
	 viewBox="0 0 512 512" style="enable-background:new 0 0 512 512;" xml:space="preserve">
<g>
	<g>
		<g>
			<path d="M290.136,25.603h-42.667c-4.71,0-8.533,3.814-8.533,8.533s3.823,8.533,8.533,8.533h42.667
				c4.71,0,8.533-3.814,8.533-8.533S294.846,25.603,290.136,25.603z"/>
			<path d="M221.869,25.603h-8.533c-4.71,0-8.533,3.814-8.533,8.533s3.823,8.533,8.533,8.533h8.533c4.71,0,8.533-3.814,8.533-8.533
				S226.58,25.603,221.869,25.603z"/>
			<path d="M401.067,95.147V59.733V33.809C401.067,15.172,385.903,0,367.266,0H144.742c-18.645,0-33.809,15.172-33.809,33.809
				v25.924V76.8c-4.71,0-8.533,3.823-8.533,8.533v8.533c0,4.719,3.823,8.533,8.533,8.533v8.533c-4.71,0-8.533,3.823-8.533,8.533V128
				c0,4.719,3.823,8.533,8.533,8.533v8.533c-4.71,0-8.533,3.823-8.533,8.533v8.533c0,4.719,3.823,8.533,8.533,8.533v26.88
				c-53.069,7.228-93.867,47.462-93.867,96.009c0,49.391,40.798,90.325,93.867,97.681V435.2v42.991
				c0,18.645,15.164,33.809,33.809,33.809h222.524c18.637,0,33.801-15.164,33.801-33.809V435.2V288.836
				c53.077-7.356,93.867-48.29,93.867-97.681C494.933,142.609,454.144,102.374,401.067,95.147z M128,33.809
				c0-9.233,7.509-16.742,16.742-16.742h222.524c9.225,0,16.734,7.509,16.734,16.742V51.2H128V33.809z M108.297,259.405
				c0.068,0.418,0.094,0.836,0.094,1.263v14.908c0,2.423-1.024,4.719-2.816,6.34l0.239,9.677c1.86,1.212,2.85,2.415,3.345,4.574
				c2.057,8.951,7.526,15.684,7.578,15.753c1.254,1.527,1.963,3.465,1.963,5.444v9.412c0,6.571-3.576,12.604-9.344,15.735
				c-0.478,0.265-0.981,0.478-1.502,0.64l-19.934,6.323c-0.862,0.273-1.732,0.393-2.586,0.393c-3.618,0-6.98-2.313-8.132-5.956
				c-1.425-4.489,1.067-9.284,5.555-10.709l18.722-5.931c0.102-0.145,0.154-0.307,0.154-0.495v-6.596
				c-2.313-3.336-6.093-9.557-8.371-17.365c-2.867-2.995-4.514-6.989-4.514-11.221v-10.308c0-3.106,0.913-6.127,2.577-8.721v-11.435
				c-0.256-2.833-0.444-11.785,6.263-19.584c6.366-7.39,16.606-11.145,30.413-11.145c13.798,0,24.073,3.738,30.532,11.102
				c6.861,7.825,6.758,16.836,6.554,19.558v11.503c1.655,2.594,2.569,5.615,2.569,8.721v10.308c0,5.504-2.722,10.445-7.1,13.406
				c-1.954,5.12-4.506,9.924-7.586,14.293c-0.265,0.367-0.521,0.717-0.768,1.05v6.682c0,0.179,0.06,0.358,0.162,0.495l20.548,5.589
				c4.54,1.229,7.228,5.922,5.99,10.462c-1.229,4.548-5.888,7.27-10.47,5.999l-21.82-5.922c-0.538-0.145-1.067-0.341-1.562-0.589
				c-6.118-3.055-9.916-9.199-9.916-16.034v-9.66c0-2.065,0.751-4.062,2.108-5.615c0.529-0.614,1.143-1.391,1.792-2.321
				c2.765-3.908,4.949-8.312,6.494-13.099c0.785-2.466,2.662-4.437,5.06-5.35v-9.694c-1.783-1.613-2.568-3.294-2.568-5.709v-14.908
				c0-0.375,0.017-0.742,0.068-1.118c-0.009,0,0.299-3.857-2.517-6.938c-3.081-3.371-9.156-5.146-17.57-5.146
				c-8.499,0-14.541,1.801-17.476,5.214C107.981,255.642,108.297,259.371,108.297,259.405z M233.668,494.933h-88.926
				c-9.233,0-16.742-7.501-16.742-16.742v-34.458h105.668c-7.168,6.263-11.802,15.36-11.802,25.6
				C221.867,479.582,226.5,488.678,233.668,494.933z M256,486.4c-9.412,0-17.067-7.654-17.067-17.067
				c0-9.404,7.654-17.067,17.067-17.067c9.412,0,17.067,7.663,17.067,17.067C273.067,478.746,265.412,486.4,256,486.4z M384,478.191
				c0,9.242-7.509,16.742-16.734,16.742H278.34c7.168-6.255,11.793-15.351,11.793-25.6c0-10.24-4.625-19.337-11.793-25.6H384
				V478.191z M384,426.667H128v-34.133c14.413,0,28.211-2.509,42.052-7.663c13.278,6.921,28.041,10.965,42.701,13.705
				c5.786,1.084,11.87,3.098,17.818,2.261c6.938-0.973,11.776-8.627,5.76-14.43c-6.938-6.716-12.058-22.153-14.191-42.624
				c11.153-15.616,16.794-32.495,16.794-50.227c0-53.641-49.758-97.289-110.933-97.289v-128h256v25.6
				c-61.167,0-110.933,43.648-110.933,97.289c0,17.732,5.649,34.611,16.802,50.227c-2.133,20.471-7.253,35.908-14.199,42.624
				c-4.838,4.676-2.099,13.073,4.352,14.481c4.198,0.905,9.873-0.725,14.012-1.391c16.427-2.68,33.092-6.904,47.923-14.626
				c13.833,5.154,27.631,7.663,42.044,7.663V426.667z M443.315,218.453c-0.913,3.703-3.2,6.81-6.443,8.755
				c-5.956,3.558-12.365,3.26-14.925,2.927h-2.654l12.86,10.803c3.61,3.021,4.079,8.405,1.05,12.015
				c-3.038,3.618-8.414,4.079-12.023,1.05l-22.69-19.046c-0.939-0.623-2.185-1.527-3.465-2.534
				c-3.593-2.85-4.975-7.706-3.439-12.092c1.502-4.343,5.555-7.262,10.069-7.262h20.89h1.715c0.265,0-13.329-30.49-14.643-50.372
				c-0.188-2.944-2.338-17.63-25.617-17.63c-23.057,0-25.702,16.41-26.001,19.703c-0.375,20.036-11.204,36.958-18.423,47.232
				c2.645,0.657,5.06,0.998,6.127,1.109l19.908-0.043c3.849,0,7.364,1.963,9.395,5.24c2.022,3.277,2.202,7.279,0.486,10.709
				c-1.178,2.389-3.115,6.298-6.716,8.516l-22.315,16.759c-1.536,1.152-3.336,1.707-5.12,1.707c-2.594,0-5.154-1.169-6.827-3.405
				c-2.833-3.763-2.074-9.114,1.698-11.947l13.995-10.513h-5.35c-1.732-0.128-9.847-0.981-16.657-3.908
				c-4.42-1.903-7.194-4.753-8.243-8.457c-0.7-2.458-0.887-6.306,2.185-10.684l1.527-2.159c6.349-8.892,16.956-23.765,17.289-41.003
				C341.837,151.219,351.932,128,384,128c31.923,0,41.83,21.103,42.65,33.57c1.289,19.55,11.264,39.799,14.993,45.952
				C443.622,210.773,444.228,214.75,443.315,218.453z"/>
		</g>
	</g>
</g>
<g>
</g>
<g>
</g>
<g>
</g>
<g>
</g>
<g>
</g>
<g>
</g>
<g>
</g>
<g>
</g>
<g>
</g>
<g>
</g>
<g>
</g>
<g>
</g>
<g>
</g>
<g>
</g>
<g>
</g>
</svg>
