<?xml version="1.0" encoding="iso-8859-1"?>
<!-- Generator: Adobe Illustrator 19.0.0, SVG Export Plug-In . SVG Version: 6.00 Build 0)  -->
<svg version="1.1" id="Layer_1" xmlns="http://www.w3.org/2000/svg" xmlns:xlink="http://www.w3.org/1999/xlink" x="0px" y="0px"
	 viewBox="0 0 511.997 511.997" style="enable-background:new 0 0 511.997 511.997;" xml:space="preserve">
<g>
	<g>
		<g>
			<path d="M379.732,25.6c-27.477,0-52.71,8.866-72.533,23.603V33.801C307.198,15.164,292.035,0,273.389,0H50.874
				C32.229,0,17.065,15.164,17.065,33.801V51.2h76.8c4.719,0,8.533,3.814,8.533,8.533c0,4.71-3.814,8.533-8.533,8.533h-76.8v332.8
				h36.429c1.263-1.741,2.85-4.122,3.686-5.385c1.126-1.69,2.039-3.021,2.44-3.507c3.14-3.891,6.477-7.62,9.882-11.307
				c7.313-7.902,16.137-16.657,28.262-20.437c1.263-0.393,2.577-0.734,3.874-1.067c1.314-0.341,2.645-0.666,3.9-1.126
				c0.572-0.213,1.126-0.461,1.655-0.776c4.736-2.953,4.292-12.971,3.934-21.026c-0.043-0.998-0.085-1.98-0.119-2.935
				c-5.615-6.084-19.055-22.084-24.602-41.284c-6.229-4.864-9.609-11.162-9.609-18.031v-21.513c0-6.562,4.113-12.032,8.533-16.358
				v-24.653c0.009-0.674,1.51-58.061,76.8-58.061s76.792,57.387,76.8,57.975v24.738c4.42,4.326,8.533,9.796,8.533,16.358v21.513
				c0,6.869-3.379,13.167-9.609,18.031c-5.769,19.934-20.019,36.412-25.208,41.933c0.034,2.022,0.307,5.18,0.435,6.562
				c0.145,1.69,0.247,3.046,0.247,3.729c0.017,7.672,0.862,10.692,3.601,12.937c0.546,0.452,0.913,0.657,1.126,0.734
				c0.691,0.299,1.459,0.393,2.21,0.555l1.007,0.205c22.537,4.881,38.426,25.737,50.253,42.197h35.669V239.633
				c9.156-2.884,19.021-6.673,27.878-11.563c14.14,5.453,29.141,8.218,44.655,8.218c63.522,0,115.2-47.258,115.2-105.344
				S443.254,25.6,379.732,25.6z M379.732,219.221c-8.747,0-17.263-1.135-25.54-3.149c7.825-5.325,8.363-6.938,8.346-10.667
				c-0.026-2.97-1.587-5.743-4.122-7.287c-3.635-2.21-8.26-1.391-10.923,1.749c-2.483,1.852-10.641,7.134-17.519,11.426
				c-0.009,0.009-0.009,0.009-0.017,0.009c-11.639,7.117-26.155,11.87-37.811,14.891c-0.529,0.137-1.109,0.307-1.63,0.435
				c4.395-10.863,7.296-24.789,8.695-41.668l0.265-3.157l-1.869-2.569c-7.859-10.778-12.937-22.861-14.984-35.499
				c-0.674-4.207-1.024-8.482-1.024-12.791c0-2.807,0.179-5.589,0.469-8.337c0.128-1.22,0.358-2.432,0.546-3.652
				c0.222-1.459,0.435-2.918,0.742-4.352c0.316-1.519,0.717-3.029,1.126-4.531c0.29-1.075,0.589-2.15,0.922-3.209
				c0.521-1.638,1.101-3.268,1.732-4.881c0.333-0.87,0.691-1.732,1.058-2.594c0.717-1.681,1.476-3.345,2.313-4.983
				c0.384-0.751,0.794-1.485,1.195-2.227c0.913-1.664,1.852-3.319,2.884-4.941c0.418-0.657,0.87-1.297,1.314-1.946
				c1.101-1.638,2.227-3.26,3.448-4.83c0.427-0.546,0.887-1.067,1.331-1.604c1.323-1.63,2.671-3.251,4.13-4.804
				c18.014-19.166,44.902-31.386,74.923-31.386c54.11,0,98.133,39.595,98.133,88.277
				C477.865,179.618,433.842,219.221,379.732,219.221z"/>
			<path d="M116.19,371.955c-1.51,0.939-3.081,1.673-4.719,2.287l-0.009,0.009c-1.809,0.666-3.686,1.152-5.581,1.647
				c-1.007,0.256-2.022,0.512-3.021,0.828c-8.132,2.526-14.746,9.165-20.83,15.735c-2.611,2.807-5.163,5.658-7.629,8.602h175.889
				c-9.156-11.725-19.9-22.75-32.631-25.506c-2.637-0.555-4.437-0.964-6.135-1.673c-1.877-0.776-3.703-1.894-5.427-3.319
				c-9.788-8.03-9.813-19.328-9.83-26.078c-0.017-0.418-0.102-1.254-0.188-2.27c-0.811-9.19-1.092-14.575,2.756-18.33
				c0.179-0.179,18.372-18.202,23.262-38.827l0.802-3.405l2.97-1.86c1.69-1.058,4.531-3.2,4.531-5.606v-21.521
				c-0.06-0.043-0.7-1.886-5.615-6.187l-2.918-2.551v-32.265c-0.111-4.062-2.697-41.003-59.733-41.003
				c-58.607,0-59.716,39.415-59.733,41.097v32.171l-2.918,2.551c-4.915,4.301-5.555,6.144-5.641,6.468l0.026,21.24
				c0,2.406,2.842,4.548,4.531,5.606l2.97,1.86l0.794,3.405c4.898,20.625,23.091,38.647,23.27,38.827l2.56,2.509l0.009,3.593
				c0,1.749,0.094,3.669,0.179,5.692C128.674,346.842,129.434,363.712,116.19,371.955z"/>
			<path d="M169.965,443.73h-15.667c-0.384,0-0.7,0.316-0.7,0.7v15.667c0,0.384,0.316,0.7,0.7,0.7h15.667c0.384,0,0.7-0.316,0.7-0.7
				V444.43C170.665,444.046,170.349,443.73,169.965,443.73z"/>
			<path d="M57.095,418.13h-40.03v60.058c0,18.645,15.164,33.809,33.809,33.809h222.515c18.645,0,33.809-15.164,33.809-33.809
				V418.13h-23.424H57.095z M187.732,460.097c0,9.796-7.97,17.766-17.766,17.766h-15.667c-9.796,0-17.766-7.97-17.766-17.766V444.43
				c0-9.796,7.97-17.766,17.766-17.766h15.667c9.796,0,17.766,7.97,17.766,17.766V460.097z"/>
		</g>
	</g>
</g>
<g>
</g>
<g>
</g>
<g>
</g>
<g>
</g>
<g>
</g>
<g>
</g>
<g>
</g>
<g>
</g>
<g>
</g>
<g>
</g>
<g>
</g>
<g>
</g>
<g>
</g>
<g>
</g>
<g>
</g>
</svg>
