<?xml version="1.0" encoding="iso-8859-1"?>
<!-- Generator: Adobe Illustrator 19.0.0, SVG Export Plug-In . SVG Version: 6.00 Build 0)  -->
<svg version="1.1" id="Layer_1" xmlns="http://www.w3.org/2000/svg" xmlns:xlink="http://www.w3.org/1999/xlink" x="0px" y="0px"
	 viewBox="0 0 512 512" style="enable-background:new 0 0 512 512;" xml:space="preserve">
<g>
	<g>
		<g>
			<path d="M298.667,25.6H256c-4.71,0-8.533,3.814-8.533,8.533s3.823,8.533,8.533,8.533h42.667c4.71,0,8.533-3.814,8.533-8.533
				S303.377,25.6,298.667,25.6z"/>
			<path d="M230.4,25.6h-8.533c-4.71,0-8.533,3.814-8.533,8.533s3.823,8.533,8.533,8.533h8.533c4.71,0,8.533-3.814,8.533-8.533
				S235.11,25.6,230.4,25.6z"/>
			<path d="M477.602,93.867H409.6V59.733V33.809C409.6,15.164,394.436,0,375.799,0H153.267c-18.637,0-33.801,15.164-33.801,33.809
				v25.924V76.8c-4.71,0-8.533,3.814-8.533,8.533v8.533c0,4.719,3.823,8.533,8.533,8.533v8.533c-4.71,0-8.533,3.814-8.533,8.533V128
				c0,4.719,3.823,8.533,8.533,8.533V179.2H34.398C15.428,179.2,0,194.637,0,213.598v118.938c0,18.961,15.428,34.398,34.398,34.398
				h85.069V435.2v42.991c0,18.645,15.164,33.809,33.809,33.809h222.524c18.637,0,33.801-15.164,33.801-33.809V435.2V281.6h68.002
				c18.961,0,34.398-15.437,34.398-34.398V128.265C512,109.303,496.563,93.867,477.602,93.867z M456.96,136.533l-55.987,40.713
				l-58.172-40.713H456.96z M136.533,33.809c0-9.233,7.509-16.742,16.734-16.742h222.532c9.224,0,16.734,7.509,16.734,16.742V51.2
				h-256V33.809z M76.8,332.8c-4.71,0-8.533-3.814-8.533-8.533v-102.4c0-4.719,3.823-8.533,8.533-8.533h42.667
				c2.261,0,4.437,0.896,6.033,2.5l25.6,25.6c1.604,1.596,2.5,3.763,2.5,6.033v76.8c0,4.719-3.823,8.533-8.533,8.533H76.8z
				 M242.193,494.933h-88.917c-9.233,0-16.742-7.509-16.742-16.742v-34.458h105.66c-7.168,6.263-11.793,15.36-11.793,25.6
				C230.4,479.573,235.025,488.67,242.193,494.933z M264.533,486.4c-9.412,0-17.067-7.654-17.067-17.067
				c0-9.412,7.654-17.067,17.067-17.067c9.412,0,17.067,7.654,17.067,17.067C281.6,478.746,273.946,486.4,264.533,486.4z
				 M392.533,478.191c0,9.233-7.509,16.742-16.734,16.742h-88.926c7.168-6.263,11.793-15.36,11.793-25.6
				c0-10.24-4.625-19.337-11.793-25.6h105.66V478.191z M392.533,426.667h-256v-59.733h11.025l14.925,37.299
				c1.289,3.243,4.437,5.367,7.919,5.367c3.49,0,6.63-2.125,7.927-5.367l15.13-37.828c16.119-2.833,28.407-16.947,28.407-33.869
				V213.598c0-18.961-15.428-34.398-34.398-34.398h-50.935V68.267h256v25.6h-68.002c-18.97,0-34.398,15.437-34.398,34.398v118.938
				c0,16.922,12.288,31.036,28.407,33.869l15.13,37.828c1.297,3.243,4.437,5.367,7.927,5.367c3.482,0,6.63-2.125,7.919-5.367
				l14.925-37.299h28.092V426.667z M469.333,230.4c0,4.719-3.814,8.533-8.533,8.533H341.333c-4.71,0-8.533-3.814-8.533-8.533
				v-80.034l63.377,44.356c1.468,1.024,3.174,1.544,4.89,1.544c1.758,0,3.524-0.538,5.018-1.63l63.249-46.003V230.4z"/>
			<polygon points="85.333,230.4 85.333,315.733 136.533,315.733 136.533,250.999 115.934,230.4 			"/>
		</g>
	</g>
</g>
<g>
</g>
<g>
</g>
<g>
</g>
<g>
</g>
<g>
</g>
<g>
</g>
<g>
</g>
<g>
</g>
<g>
</g>
<g>
</g>
<g>
</g>
<g>
</g>
<g>
</g>
<g>
</g>
<g>
</g>
</svg>
