<?xml version="1.0" encoding="iso-8859-1"?>
<!-- Generator: Adobe Illustrator 19.0.0, SVG Export Plug-In . SVG Version: 6.00 Build 0)  -->
<svg version="1.1" id="Layer_1" xmlns="http://www.w3.org/2000/svg" xmlns:xlink="http://www.w3.org/1999/xlink" x="0px" y="0px"
	 viewBox="0 0 503.607 503.607" style="enable-background:new 0 0 503.607 503.607;" xml:space="preserve">
<g>
	<g>
		<g>
			<path d="M293.77,25.179h-41.967c-4.642,0-8.393,3.752-8.393,8.393c0,4.642,3.752,8.393,8.393,8.393h41.967
				c4.642,0,8.393-3.752,8.393-8.393C302.163,28.931,298.411,25.179,293.77,25.179z"/>
			<path d="M226.622,25.179h-8.393c-4.642,0-8.393,3.752-8.393,8.393c0,4.642,3.752,8.393,8.393,8.393h8.393
				c4.642,0,8.393-3.752,8.393-8.393C235.016,28.931,231.264,25.179,226.622,25.179z"/>
			<path d="M469.781,92.328h-66.896V58.754V33.255C402.885,14.915,387.97,0,369.639,0H150.763c-18.34,0-33.255,14.915-33.255,33.255
				v25.499v16.787c-4.642,0-8.393,3.752-8.393,8.393v8.393c0,4.633,3.752,8.393,8.393,8.393v8.393c-4.642,0-8.393,3.752-8.393,8.393
				v8.393c0,4.642,3.752,8.393,8.393,8.393v41.967H33.834C15.175,176.262,0,191.438,0,210.096v116.988
				c0,18.65,15.175,33.834,33.834,33.834h83.674v67.148v42.286c0,18.331,14.915,33.255,33.255,33.255h218.876
				c18.331,0,33.246-14.924,33.246-33.255v-42.286V276.984h66.896c18.65,0,33.826-15.184,33.826-33.834V126.162
				C503.607,107.503,488.431,92.328,469.781,92.328z M134.295,33.255c0-9.082,7.386-16.468,16.468-16.468h218.876
				c9.073,0,16.46,7.386,16.46,16.468v17.106H134.295V33.255z M113.899,325.38c-1.553,1.309-3.475,1.964-5.389,1.964
				c-1.922,0-3.836-0.655-5.397-1.964l-41.363-34.665c-9.543-8.075-16.09-18.289-18.952-29.562
				c-1.897-7.521-1.461-12.548-1.183-14.37c2.157-21.093,18.894-36.948,39.063-36.948c10.92,0,20.774,3.962,27.833,10.828
				c7.051-6.866,16.904-10.828,27.824-10.828c20.169,0,36.914,15.855,39.063,36.948c0.285,1.821,0.722,6.849-1.175,14.37
				c-2.871,11.289-9.417,21.504-18.944,29.545L113.899,325.38z M238.223,486.82h-87.46c-9.082,0-16.468-7.386-16.468-16.468v-33.893
				h103.928c-7.05,6.152-11.6,15.1-11.6,25.18C226.623,471.711,231.172,480.659,238.223,486.82z M260.197,478.426
				c-9.258,0-16.787-7.537-16.787-16.787c0-9.258,7.529-16.787,16.787-16.787c9.25,0,16.787,7.529,16.787,16.787
				C276.984,470.889,269.446,478.426,260.197,478.426z M386.098,470.352c0,9.082-7.386,16.468-16.46,16.468h-87.468
				c7.05-6.161,11.6-15.108,11.6-25.18c0-10.081-4.549-19.028-11.6-25.18h103.928V470.352z M386.098,419.672H134.295v-58.754h10.853
				l14.672,36.688c1.276,3.19,4.356,5.279,7.797,5.279c3.433,0,6.513-2.09,7.789-5.279l14.882-37.208
				c15.855-2.795,27.942-16.669,27.942-33.314V210.096c0-18.659-15.175-33.834-33.826-33.834h-50.109V67.148h251.803v25.18h-66.887
				c-18.659,0-33.834,15.175-33.834,33.834V243.15c0,16.644,12.087,30.527,27.95,33.314l14.873,37.208
				c1.284,3.19,4.365,5.279,7.797,5.279s6.522-2.09,7.797-5.279l14.672-36.688h27.631V419.672z M460.204,177.228
				c-2.871,11.281-9.417,21.496-18.944,29.536l-41.38,34.682c-1.553,1.309-3.475,1.964-5.389,1.964
				c-1.922,0-3.836-0.655-5.397-1.964l-41.354-34.665c-9.552-8.074-16.099-18.289-18.952-29.57
				c-1.905-7.512-1.469-12.54-1.192-14.37c2.166-21.084,18.91-36.94,39.063-36.94c10.844,0,20.421,3.886,27.337,10.777
				c7.151-6.832,17.173-10.777,28.32-10.777c20.178,0,36.914,15.855,39.071,36.94C461.665,164.679,462.109,169.707,460.204,177.228z
				"/>
			<path d="M422.319,142.687c-9.51,0-17.475,4.541-20.791,11.86c-1.36,3.005-4.348,4.927-7.646,4.927
				c-3.29,0-6.287-1.922-7.646-4.927c-3.458-7.646-10.416-11.86-19.573-11.86c-13.312,0-21.336,11.096-22.385,22.058
				c-0.025,0.302-0.076,0.604-0.126,0.898v-0.008c0.008,0-0.294,2.711,0.915,7.453c1.981,7.865,6.648,15.066,13.48,20.841
				l35.949,30.132l35.966-30.149c6.807-5.75,11.474-12.943,13.471-20.816c1.251-4.919,0.873-7.646,0.865-7.672
				C443.655,153.783,435.639,142.687,422.319,142.687z"/>
			<path d="M158.811,249.342c-1.141-11.625-9.157-22.721-22.478-22.721c-9.266,0-16.821,4.432-20.178,11.86
				c-1.36,2.996-4.356,4.927-7.646,4.927c-3.299,0-6.287-1.93-7.646-4.927c-3.366-7.428-10.911-11.86-20.186-11.86
				c-13.32,0-21.336,11.096-22.385,22.058c-0.025,0.302-0.067,0.596-0.126,0.898v-0.008c0.017,0-0.294,2.719,0.906,7.462
				c1.989,7.856,6.656,15.058,13.497,20.833l35.941,30.132l35.966-30.149c6.815-5.75,11.474-12.943,13.471-20.816
				C159.188,252.112,158.811,249.376,158.811,249.342z"/>
		</g>
	</g>
</g>
<g>
</g>
<g>
</g>
<g>
</g>
<g>
</g>
<g>
</g>
<g>
</g>
<g>
</g>
<g>
</g>
<g>
</g>
<g>
</g>
<g>
</g>
<g>
</g>
<g>
</g>
<g>
</g>
<g>
</g>
</svg>
