<?xml version="1.0" encoding="iso-8859-1"?>
<!-- Generator: Adobe Illustrator 19.0.0, SVG Export Plug-In . SVG Version: 6.00 Build 0)  -->
<svg version="1.1" id="Layer_1" xmlns="http://www.w3.org/2000/svg" xmlns:xlink="http://www.w3.org/1999/xlink" x="0px" y="0px"
	 viewBox="0 0 512 512" style="enable-background:new 0 0 512 512;" xml:space="preserve">
<g>
	<g>
		<g>
			<path d="M454.033,164.634L419.9,130.5c-1.596-1.604-3.772-2.5-6.033-2.5h-25.6v-17.067c0-2.27-0.896-4.437-2.5-6.033
				l-34.133-34.133c-1.596-1.604-3.772-2.5-6.033-2.5V39.031C345.6,17.51,328.09,0,306.569,0H94.498
				C72.977,0,55.467,17.51,55.467,39.031V51.2h76.8c4.71,0,8.533,3.814,8.533,8.533s-3.823,8.533-8.533,8.533h-76.8v332.8H345.6
				v-51.2H448c4.71,0,8.533-3.814,8.533-8.533V170.667C456.533,168.397,455.637,166.229,454.033,164.634z M302.933,136.533v136.533
				h-51.2V85.333h85.333h5.001l29.133,29.133V128h-59.733C306.756,128,302.933,131.814,302.933,136.533z M439.467,332.8h-102.4H320
				v-51.2V145.067h59.733h30.601l29.133,29.133V332.8z"/>
			<path d="M192.7,460.8h15.667c0.384,0,0.7-0.316,0.7-0.7v-15.667c0-0.384-0.316-0.7-0.7-0.7H192.7c-0.384,0-0.7,0.316-0.7,0.7
				V460.1C192,460.484,192.316,460.8,192.7,460.8z"/>
			<path d="M55.467,478.191C55.467,496.836,70.63,512,89.267,512h222.532c18.637,0,33.801-15.164,33.801-33.809v-60.058H55.467
				V478.191z M174.933,444.433c0-9.796,7.97-17.766,17.766-17.766h15.667c9.796,0,17.766,7.97,17.766,17.766V460.1
				c0,9.796-7.97,17.766-17.766,17.766H192.7c-9.796,0-17.766-7.97-17.766-17.766V444.433z"/>
		</g>
	</g>
</g>
<g>
</g>
<g>
</g>
<g>
</g>
<g>
</g>
<g>
</g>
<g>
</g>
<g>
</g>
<g>
</g>
<g>
</g>
<g>
</g>
<g>
</g>
<g>
</g>
<g>
</g>
<g>
</g>
<g>
</g>
</svg>
