<?xml version="1.0" encoding="iso-8859-1"?>
<!-- Generator: Adobe Illustrator 19.0.0, SVG Export Plug-In . SVG Version: 6.00 Build 0)  -->
<svg version="1.1" id="Layer_1" xmlns="http://www.w3.org/2000/svg" xmlns:xlink="http://www.w3.org/1999/xlink" x="0px" y="0px"
	 viewBox="0 0 512 512" style="enable-background:new 0 0 512 512;" xml:space="preserve">
<g>
	<g>
		<g>
			<path d="M375.467,8.533c-25.651,0-49.374,7.398-68.821,19.823C304.026,12.314,290.168,0,273.391,0H50.876
				C32.23,0,17.067,15.164,17.067,33.809V51.2h76.8c4.719,0,8.533,3.814,8.533,8.533s-3.814,8.533-8.533,8.533h-76.8v332.8H56.96
				c6.008-6.571,13.747-12.826,23.765-18.97c6.434-3.942,16.213-14.413,24.166-23.697H79.334c-12.578,0-24.977-10.726-27.648-23.91
				c-0.896-4.403-0.538-8.209,1.084-11.307l1.519-2.91c9.011-17.058,25.762-48.811,28.015-88.132
				c0.836-14.78,3.243-27.127,7.356-37.726c9.429-24.303,35.482-48.998,72.388-49.348c37.077,0.35,63.13,25.045,72.559,49.34
				c4.113,10.607,6.519,22.955,7.356,37.726c2.253,39.33,19.004,71.083,28.015,88.141l1.51,2.893
				c1.63,3.115,1.988,6.921,1.092,11.332c-2.671,13.175-15.07,23.902-27.648,23.902h-25.557
				c7.962,9.284,17.741,19.755,24.166,23.697c10.018,6.144,17.758,12.399,23.765,18.97H307.2V221.542
				c7.543-2.56,15.266-5.675,22.357-9.455c12.373,4.838,28.194,9.779,45.909,9.779c64.759,0,119.467-50.799,119.467-110.933
				C494.933,53.513,442.462,8.533,375.467,8.533z M375.467,204.8c-16.623,0-31.863-5.376-43.281-10.052
				c-2.449-1.024-5.257-0.802-7.561,0.538c-5.376,3.157-11.375,5.76-17.425,8.055v-1.536l-11.204,3.703
				c-4.395,1.442-8.61,2.637-12.553,3.652c5.086-12.894,7.501-27.853,8.559-40.115c0.179-2.108-0.427-4.207-1.698-5.888
				c-10.871-14.353-16.623-31.01-16.623-48.162c0-49.297,45.662-89.395,101.786-89.395c57.421,0,102.4,37.487,102.4,85.333
				C477.867,160.93,430.02,204.8,375.467,204.8z"/>
			<polygon points="432.738,59.733 318.127,59.733 375.462,100.446 			"/>
			<path d="M375.467,119.467c-1.741,0-3.473-0.529-4.958-1.596L307.2,72.909V153.6c0,4.719,3.814,8.533,8.533,8.533H435.2
				c4.719,0,8.533-3.814,8.533-8.533V72.858l-63.309,45.013C378.94,118.938,377.207,119.467,375.467,119.467z"/>
			<path d="M169.967,443.733H154.3c-0.384,0-0.7,0.316-0.7,0.7V460.1c0,0.384,0.316,0.7,0.7,0.7h15.667c0.384,0,0.7-0.316,0.7-0.7
				v-15.667C170.667,444.049,170.351,443.733,169.967,443.733z"/>
			<path d="M89.642,396.65c-2.406,1.476-4.659,2.953-6.758,4.42h158.498c-2.099-1.468-4.352-2.944-6.758-4.42
				c-14.729-9.037-37.342-38.153-39.876-41.438c-1.963-2.56-2.321-6.016-0.913-8.917c1.408-2.91,4.335-4.77,7.561-4.821
				c0,0,9.762-0.136,15.881-0.136h27.656c3.985,0,9.805-4.719,10.923-10.232c0.068-0.341,0.102-0.589,0.12-0.768l-1.101-2.099
				c-9.609-18.202-27.486-52.104-29.943-95.13c-0.742-12.979-2.782-23.612-6.238-32.529c-5.487-14.131-23.586-38.127-56.644-38.443
				c-32.887,0.316-50.987,24.311-56.474,38.451c-3.456,8.909-5.487,19.541-6.238,32.529c-2.449,43.017-20.335,76.919-29.943,95.121
				l-1.101,2.099c0.017,0.179,0.051,0.427,0.128,0.759c1.118,5.521,6.929,10.24,10.914,10.24h27.656
				c6.118,0,15.889,0.136,15.889,0.136c3.217,0.051,6.144,1.911,7.552,4.821c1.408,2.901,1.05,6.357-0.913,8.917
				C126.984,358.497,104.379,387.613,89.642,396.65z"/>
			<path d="M60.732,418.133H17.067v60.058C17.067,496.836,32.23,512,50.876,512h222.515c18.645,0,33.809-15.164,33.809-33.809
				v-60.058h-43.665H60.732z M187.733,460.1c0,9.796-7.97,17.766-17.766,17.766H154.3c-9.796,0-17.766-7.97-17.766-17.766v-15.667
				c0-9.796,7.97-17.766,17.766-17.766h15.667c9.796,0,17.766,7.97,17.766,17.766V460.1z"/>
		</g>
	</g>
</g>
<g>
</g>
<g>
</g>
<g>
</g>
<g>
</g>
<g>
</g>
<g>
</g>
<g>
</g>
<g>
</g>
<g>
</g>
<g>
</g>
<g>
</g>
<g>
</g>
<g>
</g>
<g>
</g>
<g>
</g>
</svg>
