<?xml version="1.0" encoding="iso-8859-1"?>
<!-- Generator: Adobe Illustrator 19.0.0, SVG Export Plug-In . SVG Version: 6.00 Build 0)  -->
<svg version="1.1" id="Layer_1" xmlns="http://www.w3.org/2000/svg" xmlns:xlink="http://www.w3.org/1999/xlink" x="0px" y="0px"
	 viewBox="0 0 512 512" style="enable-background:new 0 0 512 512;" xml:space="preserve">
<g>
	<g>
		<g>
			<path d="M290.134,25.6h-42.667c-4.719,0-8.533,3.814-8.533,8.533s3.814,8.533,8.533,8.533h42.667
				c4.719,0,8.533-3.814,8.533-8.533S294.853,25.6,290.134,25.6z"/>
			<path d="M221.868,25.6h-8.533c-4.719,0-8.533,3.814-8.533,8.533s3.814,8.533,8.533,8.533h8.533c4.719,0,8.533-3.814,8.533-8.533
				S226.586,25.6,221.868,25.6z"/>
			<path d="M423.468,189.117l-6.716-1.399l-0.085-6.861c-0.171-15.027-11.059-27.255-24.252-27.255
				c-8.499,0-16.239,4.975-20.71,13.303l-3.482,6.477l-6.921-2.483c-6.468-2.278-13.252,2.569-14.72,10.001l-0.794,3.994
				l-3.593,1.903c-5.7,3.012-9.395,9.574-9.395,16.708c0,10.121,7.117,18.364,15.863,18.364l51.823-0.034l20.531,0.034
				c7.817,0,14.182-7.407,14.182-16.512C435.201,197.479,430.158,190.499,423.468,189.117z"/>
			<path d="M401.067,95.138V59.733V33.809C401.067,15.164,385.903,0,367.258,0H144.742c-18.645,0-33.809,15.164-33.809,33.809
				v25.924V76.8c-4.719,0-8.533,3.814-8.533,8.533v8.533c0,4.719,3.814,8.533,8.533,8.533v8.533c-4.719,0-8.533,3.814-8.533,8.533
				V128c0,4.719,3.814,8.533,8.533,8.533v8.533c-4.719,0-8.533,3.814-8.533,8.533v8.533c0,4.719,3.814,8.533,8.533,8.533v26.871
				c-53.077,7.236-93.867,47.471-93.867,96.009c0,49.391,40.789,90.325,93.867,97.69V435.2v42.991
				c0,18.645,15.164,33.809,33.809,33.809h222.515c18.645,0,33.809-15.164,33.809-33.809V435.2V288.836
				c53.077-7.364,93.867-48.299,93.867-97.69C494.933,142.609,454.144,102.374,401.067,95.138z M128,33.809
				c0-9.233,7.509-16.742,16.742-16.742h222.515c9.233,0,16.742,7.509,16.742,16.742V51.2H128V33.809z M85.333,349.867
				c-4.719,0-8.533-3.814-8.533-8.533V281.6c0-4.719,3.814-8.533,8.533-8.533h8.533v-8.533c0-18.825,15.309-34.133,34.133-34.133
				s34.133,15.309,34.133,34.133v8.533h8.533c4.719,0,8.533,3.814,8.533,8.533v59.733c0,4.719-3.814,8.533-8.533,8.533H85.333z
				 M233.66,494.933h-88.917c-9.233,0-16.742-7.509-16.742-16.742v-34.458h105.66c-7.168,6.255-11.793,15.36-11.793,25.6
				C221.867,479.573,226.492,488.678,233.66,494.933z M256,486.4c-9.404,0-17.067-7.654-17.067-17.067
				c0-9.412,7.663-17.067,17.067-17.067c9.412,0,17.067,7.654,17.067,17.067C273.067,478.746,265.412,486.4,256,486.4z M384,478.191
				c0,9.233-7.509,16.742-16.742,16.742H278.34c7.168-6.255,11.793-15.36,11.793-25.6c0-10.24-4.625-19.345-11.793-25.6H384V478.191
				z M384,426.667H128v-34.133c14.421,0,28.211-2.509,42.052-7.663c17.237,8.977,37.052,13.508,56.26,15.804
				c3.593,0.427,7.782,0.375,10.428-2.466c3.098-3.302,2.807-8.704-0.41-11.81c-6.938-6.707-12.058-22.144-14.191-42.624
				c11.145-15.616,16.794-32.486,16.794-50.227c0-53.641-49.766-97.28-110.933-97.28v-128h256v25.6
				c-61.167,0-110.933,43.639-110.933,97.28c0,17.741,5.649,34.611,16.794,50.227c-2.133,20.48-7.253,35.917-14.191,42.624
				c-3.046,2.935-3.277,7.629-0.862,11.025c2.227,3.115,5.538,3.814,9.131,3.456c7.228-0.734,14.438-2.022,21.538-3.558
				c12.544-2.739,25.054-6.502,36.471-12.45c13.841,5.154,27.639,7.663,42.052,7.663V426.667z M421.018,238.933l-21.427-0.06
				l-50.927,0.06c-18.15,0-32.93-15.889-32.93-35.43c0-11.989,5.828-23.253,15.113-29.739c4.232-12.851,16.521-21.487,29.312-20.446
				c7.782-10.487,19.669-16.785,32.256-16.785c20.565,0,37.811,16.529,40.849,37.948c11.315,5.188,19.004,17.246,19.004,30.874
				C452.267,223.872,438.255,238.933,421.018,238.933z"/>
			<path d="M145.068,264.533c0-9.412-7.654-17.067-17.067-17.067c-9.412,0-17.067,7.654-17.067,17.067v8.533h34.133V264.533z"/>
			<rect x="93.868" y="290.133" width="68.267" height="42.667"/>
		</g>
	</g>
</g>
<g>
</g>
<g>
</g>
<g>
</g>
<g>
</g>
<g>
</g>
<g>
</g>
<g>
</g>
<g>
</g>
<g>
</g>
<g>
</g>
<g>
</g>
<g>
</g>
<g>
</g>
<g>
</g>
<g>
</g>
</svg>
