<?xml version="1.0" encoding="iso-8859-1"?>
<!-- Generator: Adobe Illustrator 19.0.0, SVG Export Plug-In . SVG Version: 6.00 Build 0)  -->
<svg version="1.1" id="Layer_1" xmlns="http://www.w3.org/2000/svg" xmlns:xlink="http://www.w3.org/1999/xlink" x="0px" y="0px"
	 viewBox="0 0 512 512" style="enable-background:new 0 0 512 512;" xml:space="preserve">
<g>
	<g>
		<path d="M81.067,34.133c-14.507,0-25.6-11.093-25.6-25.6c0-5.12-3.413-8.533-8.533-8.533C41.813,0,38.4,3.413,38.4,8.533
			c0,14.507-11.093,25.6-25.6,25.6c-5.12,0-8.533,3.413-8.533,8.533S7.68,51.2,12.8,51.2c14.507,0,25.6,11.093,25.6,25.6
			c0,5.12,3.413,8.533,8.533,8.533c5.12,0,8.533-3.413,8.533-8.533c0-14.507,11.093-25.6,25.6-25.6c5.12,0,8.533-3.413,8.533-8.533
			S86.187,34.133,81.067,34.133z M46.933,51.2c-2.56-3.413-5.12-5.973-8.533-8.533c3.413-2.56,5.973-5.12,8.533-8.533
			c2.56,3.413,5.12,5.973,8.533,8.533C52.053,45.227,49.493,47.787,46.933,51.2z"/>
	</g>
</g>
<g>
	<g>
		<path d="M482.133,136.533H473.6V128c0-5.12-3.413-8.533-8.533-8.533s-8.533,3.413-8.533,8.533v8.533H448
			c-5.12,0-8.533,3.413-8.533,8.533c0,5.12,3.413,8.533,8.533,8.533h8.533v8.533c0,5.12,3.413,8.533,8.533,8.533
			s8.533-3.413,8.533-8.533V153.6h8.533c5.12,0,8.533-3.413,8.533-8.533C490.667,139.947,487.253,136.533,482.133,136.533z"/>
	</g>
</g>
<g>
	<g>
		<path d="M64,366.933c-5.12,0-8.533,3.413-8.533,8.533S58.88,384,64,384s8.533-3.413,8.533-8.533S69.12,366.933,64,366.933z"/>
	</g>
</g>
<g>
	<g>
		<path d="M21.333,213.333c-5.12,0-8.533,3.413-8.533,8.533s3.413,8.533,8.533,8.533s8.533-3.413,8.533-8.533
			S26.453,213.333,21.333,213.333z"/>
	</g>
</g>
<g>
	<g>
		<path d="M439.467,298.667c-5.12,0-8.533,3.413-8.533,8.533s3.413,8.533,8.533,8.533S448,312.32,448,307.2
			S444.587,298.667,439.467,298.667z"/>
	</g>
</g>
<g>
	<g>
		<path d="M499.2,477.867c-5.12,0-8.533,3.413-8.533,8.533s3.413,8.533,8.533,8.533s8.533-3.413,8.533-8.533
			S504.32,477.867,499.2,477.867z"/>
	</g>
</g>
<g>
	<g>
		<path d="M260.267,452.267c-9.387,0-17.067,7.68-17.067,17.067s7.68,17.067,17.067,17.067c9.387,0,17.067-7.68,17.067-17.067
			S269.653,452.267,260.267,452.267z"/>
	</g>
</g>
<g>
	<g>
		<path d="M371.2,0H149.333C130.56,0,115.2,15.36,115.2,34.133V51.2h290.133V34.133C405.333,15.36,389.973,0,371.2,0z
			 M226.133,34.133H217.6c-5.12,0-8.533-3.413-8.533-8.533s3.413-8.533,8.533-8.533h8.533c5.12,0,8.533,3.413,8.533,8.533
			S231.253,34.133,226.133,34.133z M294.4,34.133h-42.667c-5.12,0-8.533-3.413-8.533-8.533s3.413-8.533,8.533-8.533H294.4
			c5.12,0,8.533,3.413,8.533,8.533S299.52,34.133,294.4,34.133z"/>
	</g>
</g>
<g>
	<g>
		<path d="M282.453,443.733c7.68,5.973,11.947,15.36,11.947,25.6c0,18.773-15.36,34.133-34.133,34.133s-34.133-15.36-34.133-34.133
			c0-10.24,4.267-19.627,11.947-25.6H115.2v34.133c0,18.773,15.36,34.133,34.133,34.133H371.2c18.773,0,34.133-15.36,34.133-34.133
			v-34.133H282.453z"/>
	</g>
</g>
<g>
	<g>
		<path d="M260.267,162.133c-52.053,0-93.867,41.813-93.867,93.867s41.813,93.867,93.867,93.867s93.867-41.813,93.867-93.867
			C354.133,203.947,312.32,162.133,260.267,162.133z M308.907,226.987l-0.853,0.853c-3.413,4.267-6.827,7.68-10.24,11.947
			c-1.707,1.707-2.56,3.413-4.267,5.12c-6.827,7.68-12.8,15.36-19.627,22.187c-3.413,4.267-14.507,17.92-17.067,19.627
			c-2.56,1.707-5.973,2.56-8.533,1.707c-1.707-0.853-2.56-1.707-4.267-3.413c-5.12-5.12-9.387-9.387-14.507-14.507
			c-1.707-1.707-4.267-4.267-5.973-5.973c-1.707-1.707-3.413-3.413-5.973-5.973c-1.707-1.707-2.56-2.56-4.267-4.267
			c-0.853-0.853-1.707-1.707-2.56-2.56c-2.56-1.707-2.56-6.827,0.853-10.24s8.533-3.413,11.947,0L250.88,268.8l45.227-52.907
			c3.413-3.413,8.533-4.267,11.947-0.853S312.32,223.573,308.907,226.987z"/>
	</g>
</g>
<g>
	<g>
		<path d="M115.2,68.267V76.8c-5.12,0-8.533,3.413-8.533,8.533v8.533c0,5.12,3.413,8.533,8.533,8.533v8.533
			c-5.12,0-8.533,3.413-8.533,8.533V128c0,5.12,3.413,8.533,8.533,8.533v8.533c-5.12,0-8.533,3.413-8.533,8.533v8.533
			c0,5.12,3.413,8.533,8.533,8.533v256h290.133v-358.4H115.2z M260.267,366.933c-61.44,0-110.933-49.493-110.933-110.933
			s49.493-110.933,110.933-110.933S371.2,194.56,371.2,256S321.707,366.933,260.267,366.933z"/>
	</g>
</g>
<g>
</g>
<g>
</g>
<g>
</g>
<g>
</g>
<g>
</g>
<g>
</g>
<g>
</g>
<g>
</g>
<g>
</g>
<g>
</g>
<g>
</g>
<g>
</g>
<g>
</g>
<g>
</g>
<g>
</g>
</svg>
