<?xml version="1.0" encoding="iso-8859-1"?>
<!-- Generator: Adobe Illustrator 19.0.0, SVG Export Plug-In . SVG Version: 6.00 Build 0)  -->
<svg version="1.1" id="Layer_1" xmlns="http://www.w3.org/2000/svg" xmlns:xlink="http://www.w3.org/1999/xlink" x="0px" y="0px"
	 viewBox="0 0 512.001 512.001" style="enable-background:new 0 0 512.001 512.001;" xml:space="preserve">
<g>
	<g>
		<g>
			<path d="M81.067,34.133c-14.114,0-25.6-11.486-25.6-25.6c0-4.71-3.814-8.533-8.533-8.533S38.4,3.823,38.4,8.533
				c0,14.114-11.486,25.6-25.6,25.6c-4.719,0-8.533,3.823-8.533,8.533c0,4.71,3.814,8.533,8.533,8.533
				c14.114,0,25.6,11.486,25.6,25.6c0,4.71,3.814,8.533,8.533,8.533s8.533-3.823,8.533-8.533c0-14.114,11.486-25.6,25.6-25.6
				c4.719,0,8.533-3.823,8.533-8.533C89.6,37.956,85.786,34.133,81.067,34.133z M46.934,51.226
				c-2.432-3.234-5.316-6.127-8.559-8.559c3.243-2.432,6.127-5.316,8.559-8.559c2.432,3.243,5.316,6.127,8.559,8.559
				C52.25,45.099,49.366,47.991,46.934,51.226z"/>
			<path d="M482.134,136.534H473.6v-8.533c0-4.71-3.814-8.533-8.533-8.533c-4.719,0-8.533,3.823-8.533,8.533v8.533H448
				c-4.719,0-8.533,3.823-8.533,8.533c0,4.71,3.814,8.533,8.533,8.533h8.533v8.533c0,4.71,3.814,8.533,8.533,8.533
				c4.719,0,8.533-3.823,8.533-8.533v-8.533h8.533c4.719,0,8.533-3.823,8.533-8.533
				C490.667,140.357,486.853,136.534,482.134,136.534z"/>
			<circle cx="64" cy="375.468" r="8.533"/>
			<circle cx="21.334" cy="221.868" r="8.533"/>
			<circle cx="439.467" cy="307.201" r="8.533"/>
			<circle cx="499.2" cy="486.401" r="8.533"/>
			<path d="M277.334,469.334c0-9.412-7.654-17.067-17.067-17.067c-9.412,0-17.067,7.654-17.067,17.067
				c0,9.412,7.654,17.067,17.067,17.067C269.679,486.401,277.334,478.746,277.334,469.334z"/>
			<path d="M405.334,33.801c0-18.637-15.164-33.801-33.8-33.801H149.001c-18.637,0-33.801,15.164-33.801,33.801v17.399h290.133
				V33.801z M226.134,34.134H217.6c-4.71,0-8.533-3.823-8.533-8.533c0-4.71,3.823-8.533,8.533-8.533h8.533
				c4.71,0,8.533,3.823,8.533,8.533C234.667,30.311,230.844,34.134,226.134,34.134z M294.4,34.134h-42.667
				c-4.71,0-8.533-3.823-8.533-8.533c0-4.71,3.823-8.533,8.533-8.533H294.4c4.71,0,8.533,3.823,8.533,8.533
				C302.934,30.311,299.111,34.134,294.4,34.134z"/>
			<path d="M294.4,469.334c0,18.825-15.309,34.133-34.133,34.133s-34.133-15.309-34.133-34.133c0-10.24,4.625-19.337,11.793-25.6
				H115.2V478.2c0,18.637,15.164,33.8,33.801,33.8h222.532c18.637,0,33.8-15.164,33.8-33.8v-34.466H282.607
				C289.775,449.998,294.4,459.094,294.4,469.334z"/>
			<path d="M199.692,307.201l88.132-0.085l1.05,0.068l34.85,0.017c16.768,0,30.413-14.148,30.413-31.539
				c0-15.155-10.462-28.186-24.858-30.976l-6.818-1.323l-0.094-6.946c-0.35-26.837-21.734-48.683-47.676-48.683
				c-16.956,0-32.282,9.054-40.994,24.201l-3.49,6.067l-6.622-2.227c-2.62-0.879-5.316-1.331-8.03-1.331
				c-12.134,0-22.835,8.926-25.446,21.231l-0.87,4.045l-3.703,1.835c-11.622,5.734-19.132,17.954-19.132,31.147
				C166.404,291.721,181.337,307.201,199.692,307.201z"/>
			<path d="M115.204,76.799c-4.719,0-8.533,3.823-8.533,8.533v8.533c0,4.71,3.814,8.533,8.533,8.533v8.533
				c-4.719,0-8.533,3.823-8.533,8.533v8.533c0,4.71,3.814,8.533,8.533,8.533v8.533c-4.719,0-8.533,3.823-8.533,8.533v8.533
				c0,4.71,3.814,8.533,8.533,8.533v256h290.133v-358.4H115.204V76.799z M174.442,228.172c5.623-18.065,22.315-30.788,41.114-30.788
				c2.304,0,4.599,0.188,6.869,0.563c12.126-16.973,31.616-27.281,52.267-27.281c33.092,0,60.715,25.933,64.341,59.025
				c18.987,6.63,32.171,24.986,32.171,45.969c0,26.803-21.299,48.606-47.479,48.606l-36.053-0.06
				c-0.469,0.034-0.956,0.06-1.442,0.06h-86.537c-27.768,0-50.355-23.134-50.355-51.567
				C149.337,254.429,159.065,237.371,174.442,228.172z"/>
		</g>
	</g>
</g>
<g>
</g>
<g>
</g>
<g>
</g>
<g>
</g>
<g>
</g>
<g>
</g>
<g>
</g>
<g>
</g>
<g>
</g>
<g>
</g>
<g>
</g>
<g>
</g>
<g>
</g>
<g>
</g>
<g>
</g>
</svg>
