<?xml version="1.0" encoding="iso-8859-1"?>
<!-- Generator: Adobe Illustrator 19.0.0, SVG Export Plug-In . SVG Version: 6.00 Build 0)  -->
<svg version="1.1" id="Layer_1" xmlns="http://www.w3.org/2000/svg" xmlns:xlink="http://www.w3.org/1999/xlink" x="0px" y="0px"
	 viewBox="0 0 512.001 512.001" style="enable-background:new 0 0 512.001 512.001;" xml:space="preserve">
<g>
	<g>
		<g>
			<path d="M81.067,34.133c-14.114,0-25.6-11.486-25.6-25.6C55.467,3.814,51.644,0,46.934,0C42.223,0,38.4,3.814,38.4,8.533
				c0,14.114-11.486,25.6-25.6,25.6c-4.71,0-8.533,3.814-8.533,8.533S8.09,51.2,12.8,51.2c14.114,0,25.6,11.486,25.6,25.6
				c0,4.719,3.823,8.533,8.533,8.533c4.71,0,8.533-3.814,8.533-8.533c0-14.114,11.486-25.6,25.6-25.6
				c4.71,0,8.533-3.814,8.533-8.533S85.777,34.133,81.067,34.133z M46.934,51.226c-2.432-3.243-5.325-6.127-8.559-8.559
				c3.234-2.432,6.127-5.316,8.559-8.559c2.432,3.243,5.325,6.127,8.559,8.559C52.259,45.099,49.366,47.983,46.934,51.226z"/>
			<path d="M482.134,136.534H473.6v-8.533c0-4.719-3.823-8.533-8.533-8.533s-8.533,3.814-8.533,8.533v8.533H448
				c-4.71,0-8.533,3.814-8.533,8.533s3.823,8.533,8.533,8.533h8.533v8.533c0,4.719,3.823,8.533,8.533,8.533s8.533-3.814,8.533-8.533
				v-8.533h8.533c4.71,0,8.533-3.814,8.533-8.533S486.844,136.534,482.134,136.534z"/>
			<circle cx="64" cy="375.468" r="8.533"/>
			<circle cx="21.334" cy="221.868" r="8.533"/>
			<circle cx="439.467" cy="307.201" r="8.533"/>
			<circle cx="499.2" cy="486.401" r="8.533"/>
			<path d="M277.334,469.334c0-9.412-7.654-17.067-17.067-17.067c-9.412,0-17.067,7.654-17.067,17.067
				c0,9.412,7.654,17.067,17.067,17.067C269.679,486.401,277.334,478.746,277.334,469.334z"/>
			<path d="M371.533,0.001H149.001c-18.637,0-33.801,15.164-33.801,33.801v17.399h290.133V33.801
				C405.334,15.165,390.17,0.001,371.533,0.001z M226.134,34.134H217.6c-4.71,0-8.533-3.823-8.533-8.533
				c0-4.71,3.823-8.533,8.533-8.533h8.533c4.71,0,8.533,3.823,8.533,8.533C234.667,30.311,230.844,34.134,226.134,34.134z
				 M294.4,34.134h-42.667c-4.71,0-8.533-3.823-8.533-8.533c0-4.71,3.823-8.533,8.533-8.533H294.4c4.71,0,8.533,3.823,8.533,8.533
				C302.934,30.311,299.111,34.134,294.4,34.134z"/>
			<path d="M294.4,469.334c0,18.825-15.309,34.133-34.133,34.133s-34.133-15.309-34.133-34.133c0-10.24,4.625-19.337,11.793-25.6
				H115.2V478.2c0,18.637,15.164,33.8,33.801,33.8h222.532c18.637,0,33.8-15.164,33.8-33.8v-34.466H282.607
				C289.775,449.998,294.4,459.094,294.4,469.334z"/>
			<path d="M226.134,230.401c-4.702,0-8.533,3.823-8.533,8.533v34.133c0,4.71,3.831,8.533,8.533,8.533
				c4.702,0,8.533-3.823,8.533-8.533v-34.133C234.667,234.224,230.836,230.401,226.134,230.401z"/>
			<path d="M354.134,187.734h-25.6v8.533c0,4.719-3.823,8.533-8.533,8.533s-8.533-3.814-8.533-8.533v-8.533h-102.4v8.533
				c0,4.719-3.823,8.533-8.533,8.533S192,200.986,192,196.268v-8.533h-25.6v136.533h187.733V187.734z M251.734,273.068
				c0,14.114-11.486,25.6-25.6,25.6c-14.114,0-25.6-11.486-25.6-25.6v-34.133c0-14.114,11.486-25.6,25.6-25.6
				c14.114,0,25.6,11.486,25.6,25.6V273.068z M311.467,298.668h-34.133c-4.71,0-8.533-3.814-8.533-8.533s3.823-8.533,8.533-8.533
				h8.533v-39.134l-2.5,2.5c-1.664,1.664-3.849,2.5-6.033,2.5c-2.185,0-4.369-0.836-6.033-2.5c-3.336-3.337-3.336-8.73,0-12.066
				l17.058-17.058c0.794-0.794,1.732-1.417,2.782-1.852c2.082-0.862,4.437-0.862,6.519,0c2.091,0.862,3.755,2.526,4.617,4.617
				c0.427,1.041,0.657,2.15,0.657,3.26v59.733h8.533c4.71,0,8.533,3.814,8.533,8.533S316.178,298.668,311.467,298.668z"/>
			<path d="M115.2,76.801c-4.71,0-8.533,3.823-8.533,8.533v8.533c0,4.71,3.823,8.533,8.533,8.533v8.533
				c-4.71,0-8.533,3.823-8.533,8.533v8.533c0,4.71,3.823,8.533,8.533,8.533v8.533c-4.71,0-8.533,3.823-8.533,8.533v8.533
				c0,4.71,3.823,8.533,8.533,8.533v256h290.133v-358.4H115.2V76.801z M149.334,179.201c0-4.719,3.823-8.533,8.533-8.533H192v-8.533
				c0-4.719,3.823-8.533,8.533-8.533s8.533,3.814,8.533,8.533v8.533h102.4v-8.533c0-4.719,3.823-8.533,8.533-8.533
				s8.533,3.814,8.533,8.533v8.533h34.133c4.71,0,8.533,3.814,8.533,8.533v153.6c0,4.719-3.823,8.533-8.533,8.533h-204.8
				c-4.71,0-8.533-3.814-8.533-8.533V179.201z"/>
		</g>
	</g>
</g>
<g>
</g>
<g>
</g>
<g>
</g>
<g>
</g>
<g>
</g>
<g>
</g>
<g>
</g>
<g>
</g>
<g>
</g>
<g>
</g>
<g>
</g>
<g>
</g>
<g>
</g>
<g>
</g>
<g>
</g>
</svg>
