<?xml version="1.0" encoding="iso-8859-1"?>
<!-- Generator: Adobe Illustrator 19.0.0, SVG Export Plug-In . SVG Version: 6.00 Build 0)  -->
<svg version="1.1" id="Layer_1" xmlns="http://www.w3.org/2000/svg" xmlns:xlink="http://www.w3.org/1999/xlink" x="0px" y="0px"
	 viewBox="0 0 512.001 512.001" style="enable-background:new 0 0 512.001 512.001;" xml:space="preserve">
<g>
	<g>
		<g>
			<path d="M445.859,224.751c-3.115-3.541-8.542-3.849-12.041-0.742c-3.533,3.123-3.866,8.516-0.742,12.041
				c9.583,10.837,7.765,30.473-0.196,40.124c-2.995,3.635-2.483,9.02,1.16,12.015c1.596,1.306,3.507,1.946,5.419,1.946
				c2.466,0,4.907-1.058,6.588-3.106C458.838,271.505,461.807,242.782,445.859,224.751z"/>
			<path d="M471.459,199.151c-3.115-3.533-8.542-3.849-12.041-0.742c-3.533,3.123-3.866,8.516-0.742,12.041
				c22.246,25.148,18.253,68.958-0.196,91.324c-2.995,3.635-2.483,9.011,1.161,12.015c1.587,1.306,3.507,1.946,5.419,1.946
				c2.466,0,4.907-1.058,6.588-3.106C494.516,284.902,500.062,231.475,471.459,199.151z"/>
			<path d="M87.459,236.05c3.123-3.524,2.79-8.917-0.742-12.041c-3.507-3.098-8.909-2.79-12.041,0.742
				c-15.949,18.031-12.988,46.754-0.196,62.276c1.69,2.048,4.13,3.106,6.596,3.106c1.911,0,3.823-0.64,5.419-1.946
				c3.635-2.995,4.156-8.38,1.152-12.015C79.694,266.514,77.876,246.887,87.459,236.05z"/>
			<path d="M60.892,313.784c3.644-3.004,4.156-8.371,1.161-12.006c-18.441-22.366-22.443-66.176-0.196-91.324
				c3.123-3.524,2.79-8.917-0.742-12.049c-3.499-3.098-8.909-2.79-12.041,0.742c-28.595,32.324-23.057,85.751-0.188,113.476
				c1.681,2.048,4.122,3.115,6.588,3.115C57.385,315.738,59.305,315.09,60.892,313.784z"/>
			<path d="M81.067,34.133c-14.114,0-25.6-11.486-25.6-25.6C55.467,3.814,51.653,0,46.934,0S38.4,3.814,38.4,8.533
				c0,14.114-11.486,25.6-25.6,25.6c-4.719,0-8.533,3.814-8.533,8.533S8.082,51.2,12.8,51.2c14.114,0,25.6,11.486,25.6,25.6
				c0,4.719,3.814,8.533,8.533,8.533s8.533-3.814,8.533-8.533c0-14.114,11.486-25.6,25.6-25.6c4.719,0,8.533-3.814,8.533-8.533
				S85.786,34.133,81.067,34.133z M46.934,51.226c-2.432-3.243-5.316-6.127-8.559-8.559c3.243-2.432,6.127-5.316,8.559-8.559
				c2.432,3.243,5.316,6.127,8.559,8.559C52.25,45.099,49.366,47.983,46.934,51.226z"/>
			<path d="M448,153.601h8.533v8.533c0,4.719,3.814,8.533,8.533,8.533c4.719,0,8.533-3.814,8.533-8.533v-8.533h8.533
				c4.719,0,8.533-3.814,8.533-8.533s-3.814-8.533-8.533-8.533H473.6v-8.533c0-4.719-3.814-8.533-8.533-8.533
				c-4.719,0-8.533,3.814-8.533,8.533v8.533H448c-4.719,0-8.533,3.814-8.533,8.533S443.282,153.601,448,153.601z"/>
			<circle cx="64" cy="375.468" r="8.533"/>
			<circle cx="499.2" cy="486.401" r="8.533"/>
			<path d="M277.334,469.334c0-9.412-7.654-17.067-17.067-17.067c-9.412,0-17.067,7.654-17.067,17.067
				c0,9.412,7.654,17.067,17.067,17.067C269.679,486.401,277.334,478.746,277.334,469.334z"/>
			<path d="M371.533,0.001H149.001c-18.637,0-33.801,15.164-33.801,33.801v17.399h290.133V33.801
				C405.334,15.165,390.17,0.001,371.533,0.001z M226.134,34.134H217.6c-4.71,0-8.533-3.823-8.533-8.533
				c0-4.71,3.823-8.533,8.533-8.533h8.533c4.71,0,8.533,3.823,8.533,8.533C234.667,30.311,230.844,34.134,226.134,34.134z
				 M294.4,34.134h-42.667c-4.71,0-8.533-3.823-8.533-8.533c0-4.71,3.823-8.533,8.533-8.533H294.4c4.71,0,8.533,3.823,8.533,8.533
				C302.934,30.311,299.111,34.134,294.4,34.134z"/>
			<path d="M294.4,469.334c0,18.825-15.309,34.133-34.133,34.133s-34.133-15.309-34.133-34.133c0-10.24,4.625-19.337,11.793-25.6
				H115.2V478.2c0,18.637,15.164,33.8,33.801,33.8h222.532c18.637,0,33.8-15.164,33.8-33.8v-34.466H282.607
				C289.775,449.998,294.4,459.094,294.4,469.334z"/>
			<path d="M260.267,332.801c42.351,0,76.8-34.449,76.8-76.8c0-42.351-34.449-76.8-76.8-76.8s-76.8,34.449-76.8,76.8
				C183.467,298.352,217.916,332.801,260.267,332.801z M251.734,221.868c0-4.719,3.814-8.533,8.533-8.533
				c4.719,0,8.533,3.814,8.533,8.533v25.6h25.6c4.719,0,8.533,3.814,8.533,8.533s-3.814,8.533-8.533,8.533h-34.133
				c-4.719,0-8.533-3.814-8.533-8.533V221.868z"/>
			<path d="M115.2,76.801c-4.71,0-8.533,3.823-8.533,8.533v8.533c0,4.71,3.823,8.533,8.533,8.533v8.533
				c-4.71,0-8.533,3.823-8.533,8.533v8.533c0,4.71,3.823,8.533,8.533,8.533v8.533c-4.71,0-8.533,3.823-8.533,8.533v8.533
				c0,4.71,3.823,8.533,8.533,8.533v256h290.133v-358.4H115.2V76.801z M312.901,140.332c2.611-3.917,7.893-4.975,11.836-2.364
				l25.6,17.067c3.925,2.62,4.983,7.91,2.364,11.836c-1.638,2.466-4.352,3.797-7.108,3.797c-1.621,0-3.268-0.469-4.727-1.434
				l-25.6-17.067C311.339,149.548,310.281,144.257,312.901,140.332z M354.134,256.001c0,27.153-11.657,51.567-30.14,68.727
				l19.106,19.106c3.337,3.336,3.337,8.73,0,12.066c-1.664,1.664-3.849,2.5-6.033,2.5c-2.185,0-4.369-0.836-6.033-2.5
				l-20.659-20.659c-14.524,9.208-31.676,14.626-50.108,14.626s-35.584-5.419-50.108-14.626L189.5,355.901
				c-1.664,1.664-3.849,2.5-6.033,2.5c-2.185,0-4.369-0.836-6.033-2.5c-3.337-3.337-3.337-8.73,0-12.066l19.106-19.106
				c-18.483-17.161-30.14-41.574-30.14-68.727c0-51.755,42.112-93.867,93.867-93.867
				C312.022,162.134,354.134,204.246,354.134,256.001z M170.198,155.034l25.6-17.067c3.934-2.611,9.225-1.553,11.836,2.364
				c2.62,3.925,1.562,9.216-2.364,11.836l-25.6,17.067c-1.459,0.964-3.106,1.434-4.727,1.434c-2.756,0-5.47-1.331-7.108-3.797
				C165.214,162.945,166.272,157.654,170.198,155.034z"/>
		</g>
	</g>
</g>
<g>
</g>
<g>
</g>
<g>
</g>
<g>
</g>
<g>
</g>
<g>
</g>
<g>
</g>
<g>
</g>
<g>
</g>
<g>
</g>
<g>
</g>
<g>
</g>
<g>
</g>
<g>
</g>
<g>
</g>
</svg>
