<?xml version="1.0" encoding="iso-8859-1"?>
<!-- Generator: Adobe Illustrator 19.0.0, SVG Export Plug-In . SVG Version: 6.00 Build 0)  -->
<svg version="1.1" id="Layer_1" xmlns="http://www.w3.org/2000/svg" xmlns:xlink="http://www.w3.org/1999/xlink" x="0px" y="0px"
	 viewBox="0 0 512 512" style="enable-background:new 0 0 512 512;" xml:space="preserve">
<g>
	<g>
		<g>
			<path d="M375.467,8.533c-25.651,0-49.374,7.398-68.821,19.823C304.026,12.314,290.168,0,273.4,0H50.876
				C32.23,0,17.067,15.164,17.067,33.809V51.2h76.8c4.71,0,8.533,3.814,8.533,8.533s-3.823,8.533-8.533,8.533h-76.8v332.8H56.96
				c6.016-6.579,13.756-12.826,23.757-18.97c6.443-3.942,16.222-14.413,24.175-23.697H79.334c-12.57,0-24.969-10.726-27.648-23.902
				c-0.896-4.42-0.529-8.235,1.084-11.332l1.527-2.901c9.003-17.058,25.762-48.811,27.998-88.124
				c0.845-14.78,3.251-27.127,7.373-37.734c9.429-24.294,35.465-48.99,72.38-49.34c37.086,0.35,63.121,25.045,72.55,49.348
				c4.122,10.598,6.528,22.946,7.373,37.726c2.236,39.313,18.995,71.066,27.998,88.124l1.519,2.901
				c1.621,3.098,1.988,6.912,1.092,11.332c-2.679,13.175-15.078,23.902-27.648,23.902h-25.557
				c7.962,9.284,17.741,19.755,24.166,23.697c10.01,6.144,17.749,12.39,23.765,18.97H307.2V221.542
				c7.535-2.56,15.266-5.675,22.357-9.455c12.373,4.838,28.194,9.779,45.909,9.779c64.759,0,119.467-50.799,119.467-110.933
				C494.933,53.513,442.462,8.533,375.467,8.533z M375.467,204.8c-16.623,0-31.863-5.376-43.281-10.052
				c-2.466-1.016-5.265-0.794-7.561,0.538c-6.75,3.968-14.438,7.185-22.033,9.805l-6.596,0.418
				c-4.395,1.442-8.619,2.637-12.553,3.661c5.086-12.902,7.501-27.861,8.559-40.124c0.179-2.108-0.427-4.207-1.698-5.888
				c-10.871-14.353-16.623-31.01-16.623-48.162c0-49.297,45.662-89.395,101.786-89.395c57.421,0,102.4,37.487,102.4,85.333
				C477.867,160.93,430.02,204.8,375.467,204.8z"/>
			<path d="M404.375,60.85c-11.494,0-21.342,5.888-28.288,13.653c-6.946-7.765-16.802-13.653-28.297-13.653
				c-20.497,0-37.521,16.128-39.714,37.555c-0.282,1.852-0.734,6.963,1.203,14.618c2.91,11.469,9.566,21.854,19.277,30.054
				l42.044,35.251c1.587,1.323,3.533,1.988,5.487,1.988c1.946,0,3.891-0.666,5.478-1.988l42.078-35.277
				c9.685-8.183,16.333-18.569,19.251-30.029c1.929-7.637,1.476-12.749,1.195-14.618C441.896,76.978,424.881,60.85,404.375,60.85z"
				/>
			<path d="M89.642,396.65c-2.406,1.476-4.659,2.953-6.758,4.42H241.39c-2.108-1.468-4.361-2.944-6.767-4.42
				c-14.729-9.037-37.342-38.153-39.876-41.438c-1.963-2.56-2.321-6.016-0.913-8.917c1.408-2.91,4.326-4.77,7.561-4.821
				c0,0,9.762-0.136,15.881-0.136h27.656c3.985,0,9.805-4.727,10.931-10.24c0.06-0.333,0.102-0.58,0.119-0.759l-1.109-2.108
				c-9.609-18.202-27.486-52.105-29.943-95.121c-0.734-12.979-2.782-23.612-6.238-32.521c-5.487-14.14-23.586-38.135-56.644-38.451
				c-32.887,0.316-50.987,24.311-56.474,38.443c-3.456,8.917-5.495,19.55-6.238,32.529c-2.449,43.016-20.335,76.919-29.943,95.121
				l-1.101,2.108c0.017,0.179,0.051,0.435,0.12,0.759c1.118,5.513,6.938,10.24,10.923,10.24h27.665
				c6.11,0,15.881,0.136,15.881,0.136c3.226,0.051,6.153,1.911,7.552,4.821c1.408,2.901,1.05,6.357-0.913,8.917
				C126.984,358.497,104.379,387.613,89.642,396.65z"/>
			<path d="M169.967,443.733H154.3c-0.384,0-0.7,0.316-0.7,0.7V460.1c0,0.384,0.316,0.7,0.7,0.7h15.667c0.384,0,0.7-0.316,0.7-0.7
				v-15.667C170.667,444.049,170.351,443.733,169.967,443.733z"/>
			<path d="M60.74,418.133H17.067v60.058C17.067,496.836,32.23,512,50.867,512H273.4c18.637,0,33.801-15.164,33.801-33.809v-60.058
				h-43.674H60.74z M187.733,460.1c0,9.796-7.97,17.766-17.766,17.766H154.3c-9.796,0-17.766-7.97-17.766-17.766v-15.667
				c0-9.796,7.97-17.766,17.766-17.766h15.667c9.796,0,17.766,7.97,17.766,17.766V460.1z"/>
		</g>
	</g>
</g>
<g>
</g>
<g>
</g>
<g>
</g>
<g>
</g>
<g>
</g>
<g>
</g>
<g>
</g>
<g>
</g>
<g>
</g>
<g>
</g>
<g>
</g>
<g>
</g>
<g>
</g>
<g>
</g>
<g>
</g>
</svg>
