<?xml version="1.0" encoding="iso-8859-1"?>
<!-- Generator: Adobe Illustrator 19.0.0, SVG Export Plug-In . SVG Version: 6.00 Build 0)  -->
<svg xmlns="http://www.w3.org/2000/svg" xmlns:xlink="http://www.w3.org/1999/xlink" version="1.1" id="Layer_1" x="0px" y="0px" viewBox="0 0 512.002 512.002" style="enable-background:new 0 0 512.002 512.002;" xml:space="preserve">
<g>
	<g>
		<path d="M192,303.003c-9.374,0-17,7.626-17,17c0,9.374,7.626,17,17,17s17-7.626,17-17C209,310.629,201.374,303.003,192,303.003z"/>
	</g>
</g>
<g>
	<g>
		<path d="M464.378,11.243c-2.57-9.919-14.148-14.407-22.73-8.791C390.628,35.82,326.05,37.759,273.12,7.513l-9.678-5.53    c-4.611-2.636-10.273-2.636-14.885,0l-9.678,5.53C185.948,37.757,121.372,35.819,70.352,2.452    c-8.578-5.609-20.158-1.138-22.73,8.791C37.558,50.093,28.91,89.124,23.499,129.005h464.999    C483.075,89.03,474.393,49.893,464.378,11.243z"/>
	</g>
</g>
<g>
	<g>
		<path d="M319.999,239.004c-9.374,0-17,7.626-17,17v63.999c0,9.374,7.626,17,17,17c9.374,0,17-7.626,17-17v-63.999    C336.999,246.629,329.373,239.004,319.999,239.004z"/>
	</g>
</g>
<g>
	<g>
		<path d="M493.308,178.995c-0.345-6.534-0.823-13.199-1.426-19.991H20.114c-0.587,6.621-1.055,13.118-1.397,19.49    c-2.835,52.854,2.579,98.097,16.552,138.311c14.944,43.013,39.304,79.469,74.47,111.454    c35.771,32.534,81.822,59.587,140.785,82.707c3.514,1.378,7.424,1.383,10.951,0c58.841-23.071,104.81-50.035,140.533-82.434    c35.187-31.911,59.579-68.286,74.573-111.205C490.628,277.122,496.1,231.874,493.308,178.995z M192,273.003    c25.916,0,46.999,21.084,46.999,46.999c0,25.916-21.084,46.999-46.999,46.999s-46.999-21.084-46.999-46.999v-63.999    c0-25.916,21.084-46.999,46.999-46.999h32c8.284,0,15,6.716,15,15c0,8.284-6.716,15-15,15h-32c-9.374,0-17,7.626-17,17v20.195    C180.276,274.143,186.006,273.003,192,273.003z M366.998,320.003c0,25.916-21.084,46.999-46.999,46.999    s-46.999-21.084-46.999-46.999v-63.999c0-25.916,21.084-46.999,46.999-46.999s46.999,21.084,46.999,46.999V320.003z"/>
	</g>
</g>
<g>
</g>
<g>
</g>
<g>
</g>
<g>
</g>
<g>
</g>
<g>
</g>
<g>
</g>
<g>
</g>
<g>
</g>
<g>
</g>
<g>
</g>
<g>
</g>
<g>
</g>
<g>
</g>
<g>
</g>
</svg>
