<?xml version="1.0" encoding="iso-8859-1"?>
<!-- Generator: Adobe Illustrator 19.0.0, SVG Export Plug-In . SVG Version: 6.00 Build 0)  -->
<svg xmlns="http://www.w3.org/2000/svg" xmlns:xlink="http://www.w3.org/1999/xlink" version="1.1" id="Layer_1" x="0px" y="0px" viewBox="0 0 511.999 511.999" style="enable-background:new 0 0 511.999 511.999;" xml:space="preserve">
<g>
	<g>
		<path d="M498.181,104.262l-90.488-90.489c-18.364-18.364-48.088-18.366-66.452,0c-14.75,14.75-17.559,36.674-8.868,54.131    l-89.872,90.058c-46.293-15.164-98.145-10.799-142.303,14.841c-27.169,15.775-32.293,52.52-10.334,74.479l53.822,53.822    L24.856,419.937c-1.732,1.732-3.013,3.861-3.732,6.203L0.725,492.581c-3.554,11.581,7.429,22.393,18.945,18.672l65.642-21.198    c2.261-0.73,4.316-1.987,5.996-3.666l118.83-118.831l54.752,54.752c21.927,21.927,58.686,16.865,74.479-10.335    c25.645-44.167,30.007-96.027,14.836-142.324l89.87-90.057c17.509,8.702,39.407,5.821,54.106-8.881    C516.546,152.349,516.547,122.627,498.181,104.262z M72.657,462.625l-34.81,11.241l10.854-35.359l115.866-115.866l24.036,24.036    L72.657,462.625z"/>
	</g>
</g>
<g>
</g>
<g>
</g>
<g>
</g>
<g>
</g>
<g>
</g>
<g>
</g>
<g>
</g>
<g>
</g>
<g>
</g>
<g>
</g>
<g>
</g>
<g>
</g>
<g>
</g>
<g>
</g>
<g>
</g>
</svg>
