<?xml version="1.0" encoding="iso-8859-1"?>
<!-- Generator: Adobe Illustrator 19.0.0, SVG Export Plug-In . SVG Version: 6.00 Build 0)  -->
<svg xmlns="http://www.w3.org/2000/svg" xmlns:xlink="http://www.w3.org/1999/xlink" version="1.1" id="Layer_1" x="0px" y="0px" viewBox="0 0 512.001 512.001" style="enable-background:new 0 0 512.001 512.001;" xml:space="preserve">
<g>
	<g>
		<path d="M95.616,1.213C89.974-1.203,83.437,0.057,79.1,4.394L33.845,49.649c-4.337,4.337-5.597,10.878-3.181,16.516l29.806,69.546    L165.162,31.019L95.616,1.213z"/>
	</g>
</g>
<g>
	<g>
		<path d="M418.512,253.295l-57.276,57.276l-24.042-24.042l102.531-102.531c14.617-14.617,17.561-36.54,8.861-54.115l13.766-13.766    c18.37-18.371,18.37-48.098,0-66.468c-18.324-18.325-48.144-18.324-66.468,0L382.134,63.4c-17.48-8.695-39.399-5.858-54.131,8.876    L225.471,174.807l-24.042-24.042l57.276-57.276c7.49-7.49,5.053-20.214-4.697-24.394L194.86,43.747L73.198,165.409l25.349,59.147    c4.187,9.769,16.907,12.183,24.394,4.698l57.276-57.276l24.042,24.042l-12.021,12.021c-14.712,14.712-17.587,36.621-8.876,54.132    l-33.166,33.166c-39.248-14.175-84.944-5.566-116.35,25.839c-5.853,5.852-5.858,15.356,0,21.213l18.234,18.234v78.083    L4.394,486.394c-5.858,5.858-5.858,15.355,0,21.213c5.857,5.858,15.356,5.858,21.213,0l47.686-47.686h78.083l18.234,18.234    c5.857,5.858,15.356,5.858,21.213,0c31.406-31.406,40.014-77.101,25.84-116.349l33.167-33.166    c17.478,8.695,39.396,5.859,54.132-8.876l12.021-12.021l24.042,24.042l-57.276,57.276c-7.489,7.489-5.054,20.214,4.697,24.394    l59.142,25.346l121.606-121.803l-25.288-59.005C438.733,248.256,426.014,245.793,418.512,253.295z M417.097,70.862    c6.63-6.629,17.414-6.628,24.042,0c6.645,6.645,6.645,17.397,0,24.042l-12.021,12.021l-24.042-24.042L417.097,70.862z     M349.922,139.451c6.248-6.248,16.379-6.248,22.627,0c6.248,6.249,6.248,16.379,0,22.627c-6.249,6.249-16.379,6.249-22.627,0    C343.674,155.83,343.674,145.7,349.922,139.451z M82.079,429.921v-39.296l39.296,39.296H82.079z M201.925,334.119    c-3.316-4.525-7.016-8.855-11.102-12.941s-8.416-7.786-12.94-11.101l24.962-24.962l24.042,24.042L201.925,334.119z     M282.04,252.588c-6.249,6.248-16.379,6.248-22.627,0c-6.248-6.249-6.248-16.379,0-22.627c6.249-6.249,16.379-6.249,22.627,0    C288.288,236.21,288.288,246.34,282.04,252.588z M327.294,207.333c-6.249,6.249-16.379,6.249-22.627,0    c-6.248-6.248-6.248-16.378,0-22.627c6.248-6.248,16.379-6.248,22.627,0C333.542,190.955,333.542,201.085,327.294,207.333z"/>
	</g>
</g>
<g>
	<g>
		<path d="M510.787,416.385l-29.863-69.681l-104.65,104.819l69.562,29.812c5.643,2.418,12.182,1.152,16.516-3.181l45.255-45.255    C511.944,428.564,513.203,422.023,510.787,416.385z"/>
	</g>
</g>
<g>
</g>
<g>
</g>
<g>
</g>
<g>
</g>
<g>
</g>
<g>
</g>
<g>
</g>
<g>
</g>
<g>
</g>
<g>
</g>
<g>
</g>
<g>
</g>
<g>
</g>
<g>
</g>
<g>
</g>
</svg>
