<?xml version="1.0" encoding="iso-8859-1"?>
<!-- Generator: Adobe Illustrator 19.0.0, SVG Export Plug-In . SVG Version: 6.00 Build 0)  -->
<svg xmlns="http://www.w3.org/2000/svg" xmlns:xlink="http://www.w3.org/1999/xlink" version="1.1" id="Layer_1" x="0px" y="0px" viewBox="0 0 512 512" style="enable-background:new 0 0 512 512;" xml:space="preserve">
<g>
	<g>
		<path d="M276.188,419.066l-9.252-55.92c-43.9-6.097-84.445-26.173-116.332-58.06c-2.73-2.73-5.364-5.53-7.919-8.384    l-20.296,122.364C84.94,425.242,56.279,457.829,56.279,497c0,8.284,6.716,15.001,15.001,15.001h256.011    c8.284,0,15.001-6.716,15.001-15.001C342.292,457.83,313.634,425.245,276.188,419.066z M88.629,481.999    c6.347-19.698,24.849-33.988,46.627-34.001c0.015,0,0.03,0.002,0.045,0.002c0.018,0,0.036-0.002,0.054-0.002h127.867    c0.016,0,0.032,0.002,0.049,0.002c0.014,0,0.028-0.002,0.042-0.002c21.78,0.01,40.283,14.303,46.631,34.001H88.629z"/>
	</g>
</g>
<g>
	<g>
		<path d="M387.826,89.076c17.854,8.837,39.696,5.561,54.117-8.861c18.371-18.372,18.371-48.1,0-66.471    c-18.326-18.326-48.147-18.325-66.471,0c-14.713,14.713-17.588,36.623-8.876,54.133l-9.358,9.158H233.895l-40.863-40.664    c-5.856-5.858-15.355-5.858-21.214,0c-68.397,68.395-68.403,179.097,0,247.499c68.396,68.396,179.096,68.402,247.497,0    c5.858-5.858,5.858-15.356,0-21.214l-40.763-40.864V98.451L387.826,89.076z M263.896,106.937h63.341l-31.67,31.97L263.896,106.937    z M348.65,191.793l-31.87-31.67l31.87-31.67V191.793z"/>
	</g>
</g>
<g>
</g>
<g>
</g>
<g>
</g>
<g>
</g>
<g>
</g>
<g>
</g>
<g>
</g>
<g>
</g>
<g>
</g>
<g>
</g>
<g>
</g>
<g>
</g>
<g>
</g>
<g>
</g>
<g>
</g>
</svg>
