<?xml version="1.0" encoding="iso-8859-1"?>
<!-- Generator: Adobe Illustrator 19.0.0, SVG Export Plug-In . SVG Version: 6.00 Build 0)  -->
<svg xmlns="http://www.w3.org/2000/svg" xmlns:xlink="http://www.w3.org/1999/xlink" version="1.1" id="Layer_1" x="0px" y="0px" viewBox="0 0 512 512" style="enable-background:new 0 0 512 512;" xml:space="preserve">
<g>
	<g>
		<path d="M507.606,245.394l-96-96C402.201,139.984,386,146.646,386,160v49h-47.465c-8.45-14.781-20.755-27.085-35.535-35.535V126    h49c13.303,0,20.05-16.163,10.606-25.606l-96-96c-5.857-5.858-15.355-5.858-21.213,0l-96,96    c-9.407,9.407-2.748,25.606,10.607,25.606h49v47.465c-14.781,8.45-27.085,20.754-35.535,35.535H126v-49    c0-13.303-16.165-20.05-25.606-10.606l-96,96c-5.858,5.858-5.858,15.355,0,21.213l96,96C109.784,371.999,126,365.406,126,352v-49    h47.465c8.45,14.781,20.754,27.085,35.535,35.535V386h-49c-13.304,0-20.05,16.163-10.606,25.606l96,96    c5.857,5.858,15.356,5.858,21.213,0l96-96C372.013,402.201,365.355,386,352,386h-49v-47.465    c14.781-8.45,27.085-20.754,35.535-35.535H386v49c0,13.385,16.223,19.992,25.606,10.606l96-96    C513.465,260.749,513.465,251.252,507.606,245.394z M288,271h31.234c-5.649,23.812-24.423,42.585-48.234,48.234V288    c0-8.284-6.716-15-15-15c-8.284,0-15,6.716-15,15v31.234c-23.812-5.649-42.585-24.422-48.234-48.234h31.234    c8.284,0,15-6.716,15-15c0-8.284-6.716-15-15-15h-31.234c5.649-23.812,24.422-42.585,48.234-48.234V224c0,8.284,6.716,15,15,15    c8.284,0,15-6.716,15-15v-31.234c23.812,5.649,42.585,24.422,48.234,48.234H288c-8.284,0-15,6.716-15,15    C273,264.284,279.716,271,288,271z"/>
	</g>
</g>
<g>
</g>
<g>
</g>
<g>
</g>
<g>
</g>
<g>
</g>
<g>
</g>
<g>
</g>
<g>
</g>
<g>
</g>
<g>
</g>
<g>
</g>
<g>
</g>
<g>
</g>
<g>
</g>
<g>
</g>
</svg>
