<?xml version="1.0" encoding="iso-8859-1"?>
<!-- Generator: Adobe Illustrator 19.0.0, SVG Export Plug-In . SVG Version: 6.00 Build 0)  -->
<svg xmlns="http://www.w3.org/2000/svg" xmlns:xlink="http://www.w3.org/1999/xlink" version="1.1" id="Layer_1" x="0px" y="0px" viewBox="0 0 512.001 512.001" style="enable-background:new 0 0 512.001 512.001;" xml:space="preserve">
<g>
	<g>
		<path d="M507.607,421.394l-48-48c-5.857-5.858-15.355-5.858-21.213,0c-5.858,5.858-5.858,15.355,0,21.213L460.787,417H376    c-8.284,0-15,6.716-15,15s6.716,15,15,15h84.787l-22.394,22.394c-5.858,5.858-5.858,15.355,0,21.213    c5.857,5.858,15.356,5.858,21.213,0l48-48C513.466,436.749,513.466,427.252,507.607,421.394z"/>
	</g>
</g>
<g>
	<g>
		<path d="M136,417H51.213l22.393-22.394c5.858-5.858,5.858-15.355,0-21.213c-5.857-5.858-15.355-5.858-21.213,0l-48,48    c-5.858,5.858-5.858,15.355,0,21.213l48,48c5.857,5.858,15.356,5.858,21.213,0c5.858-5.858,5.858-15.355,0-21.213L51.213,447H136    c8.284,0,15-6.716,15-15S144.284,417,136,417z"/>
	</g>
</g>
<g>
	<g>
		<path d="M326,129H186c-44.183,0-80,35.817-80,80c0,4.488,0,115.853,0,120.5c0,12.426,10.074,22.5,22.5,22.5s22.5-10.074,22.5-22.5    c0-9.103,0-80.111,0-90.5c0-8.284,6.716-15,15-15s15,6.716,15,15c0,15.553,0,236.011,0,243c0,16.569,13.431,30,30,30    c16.569,0,30-13.431,30-30c0-23.674,0-90.13,0-114c0-8.284,6.716-15,15-15c8.284,0,15,6.716,15,15c0,23.871,0,90.326,0,114    c0,16.569,13.431,30,30,30c16.569,0,30-13.431,30-30c0-6.985,0-227.448,0-243c0-8.284,6.716-15,15-15s15,6.716,15,15    c0,10.387,0,81.389,0,90.5c0,12.426,10.074,22.5,22.5,22.5c12.426,0,22.5-10.074,22.5-22.5c0-4.654,0-116.027,0-120.5    C406,164.817,370.184,129,326,129z"/>
	</g>
</g>
<g>
	<g>
		<path d="M256.81,0c-26.469,0-48,21.531-48,48s21.531,48,48,48s48-21.531,48-48S283.279,0,256.81,0z"/>
	</g>
</g>
<g>
</g>
<g>
</g>
<g>
</g>
<g>
</g>
<g>
</g>
<g>
</g>
<g>
</g>
<g>
</g>
<g>
</g>
<g>
</g>
<g>
</g>
<g>
</g>
<g>
</g>
<g>
</g>
<g>
</g>
</svg>
