<?xml version="1.0" encoding="iso-8859-1"?>
<!-- Generator: Adobe Illustrator 19.0.0, SVG Export Plug-In . SVG Version: 6.00 Build 0)  -->
<svg xmlns="http://www.w3.org/2000/svg" xmlns:xlink="http://www.w3.org/1999/xlink" version="1.1" id="Layer_1" x="0px" y="0px" viewBox="0 0 512 512" style="enable-background:new 0 0 512 512;" xml:space="preserve">
<g>
	<g>
		<path d="M256,0C114.508,0,0,114.496,0,256c0,141.491,114.496,256,256,256c141.492,0,256-114.495,256-256    C512,114.51,397.505,0,256,0z M383,384c0,8.284-6.716,15-15,15h-64c-8.284,0-15-6.716-15-15V208c0-9.374-7.626-17-17-17h-32    c-9.374,0-17,7.626-17,17v65h17c11.971,0,19.109,13.378,12.481,23.321l-64,96c-5.933,8.899-19.032,8.894-24.962,0l-64-96    C92.879,286.359,100.051,273,112,273h17v-97c0-43.561,35.439-79,79-79h96c43.561,0,79,35.439,79,79V384z"/>
	</g>
</g>
<g>
	<g>
		<path d="M304,127h-96c-27.019,0-49,21.981-49,49v112c0,8.284-6.716,15-15,15h-3.972L176,356.958L211.972,303H208    c-8.284,0-15-6.716-15-15v-80c0-25.916,21.084-47,47-47h32c25.916,0,47,21.084,47,47v161h34V176C353,148.981,331.019,127,304,127z    "/>
	</g>
</g>
<g>
</g>
<g>
</g>
<g>
</g>
<g>
</g>
<g>
</g>
<g>
</g>
<g>
</g>
<g>
</g>
<g>
</g>
<g>
</g>
<g>
</g>
<g>
</g>
<g>
</g>
<g>
</g>
<g>
</g>
</svg>
