<?xml version="1.0" encoding="iso-8859-1"?>
<!-- Generator: Adobe Illustrator 19.0.0, SVG Export Plug-In . SVG Version: 6.00 Build 0)  -->
<svg xmlns="http://www.w3.org/2000/svg" xmlns:xlink="http://www.w3.org/1999/xlink" version="1.1" id="Layer_1" x="0px" y="0px" viewBox="0 0 512 512" style="enable-background:new 0 0 512 512;" xml:space="preserve">
<g>
	<g>
		<path d="M272.001,127.003H239v17v49.001h33.001c18.196,0,33.001-14.804,33.001-33.001    C305.002,141.808,290.198,127.003,272.001,127.003z"/>
	</g>
</g>
<g>
	<g>
		<path d="M256.001,0C158.951,0,79.996,78.955,79.996,176.005c0,53.005,23.368,102.37,64.238,135.97l98.42,191.885    c5.564,10.849,21.126,10.858,26.694,0l98.42-191.885c40.87-33.601,64.238-82.965,64.238-135.97C432.005,78.955,353.05,0,256.001,0    z M272.001,223.006H239v49.001c0,8.284-6.716,15-15,15s-15-6.716-15-15c0-4.634,0-149.26,0-160.004c0-8.284,6.716-15,15-15h48.001    c34.739,0,63.002,28.263,63.002,63.002S306.74,223.006,272.001,223.006z"/>
	</g>
</g>
<g>
</g>
<g>
</g>
<g>
</g>
<g>
</g>
<g>
</g>
<g>
</g>
<g>
</g>
<g>
</g>
<g>
</g>
<g>
</g>
<g>
</g>
<g>
</g>
<g>
</g>
<g>
</g>
<g>
</g>
</svg>
