<?xml version="1.0" encoding="iso-8859-1"?>
<!-- Generator: Adobe Illustrator 19.0.0, SVG Export Plug-In . SVG Version: 6.00 Build 0)  -->
<svg xmlns="http://www.w3.org/2000/svg" xmlns:xlink="http://www.w3.org/1999/xlink" version="1.1" id="Layer_1" x="0px" y="0px" viewBox="0 0 512 512" style="enable-background:new 0 0 512 512;" xml:space="preserve">
<g>
	<g>
		<path d="M494.998,400.956c-0.001-0.479-0.026-0.958-0.073-1.434c-0.022-0.229-0.065-0.451-0.098-0.677    c-0.037-0.258-0.067-0.517-0.118-0.773c-0.051-0.255-0.121-0.503-0.184-0.754c-0.057-0.224-0.105-0.449-0.172-0.67    c-0.074-0.245-0.166-0.482-0.252-0.722c-0.08-0.222-0.153-0.445-0.243-0.664c-0.093-0.225-0.202-0.44-0.306-0.66    c-0.106-0.224-0.205-0.451-0.323-0.67c-0.113-0.212-0.242-0.413-0.365-0.618c-0.128-0.214-0.249-0.432-0.389-0.641    c-0.153-0.229-0.323-0.444-0.488-0.664c-0.129-0.171-0.248-0.348-0.385-0.515c-0.315-0.384-0.647-0.752-0.997-1.103    l-47.997-47.998c-5.857-5.858-15.355-5.858-21.213,0c-5.858,5.858-5.858,15.355,0,21.213L443.787,386H271v-36.786    c71.827-7.521,128-68.429,128-142.214v-49h17c8.284,0,15-6.716,15-15s-6.716-15-15-15h-17v-17c0-12.495-4.91-23.857-12.891-32.284    l36.599-18.299c7.41-3.705,10.413-12.715,6.708-20.125c-3.705-7.41-12.716-10.415-20.125-6.708L367,54.729V15    c0-8.284-6.716-15-15-15s-15,6.716-15,15v39.729l-42.292-21.146c-7.409-3.705-16.419-0.701-20.125,6.708    c-3.705,7.41-0.701,16.419,6.708,20.125l36.599,18.299C309.91,87.143,305,98.505,305,111v81h-98v-33c0-52.383-42.617-95-95-95    s-95,42.617-95,95c0,15.098,0,5.756,0,48c0,8.284,6.716,15,15,15h81.786c7.005,66.896,60.319,120.209,127.214,127.214V386H108.531    c-6.276-18.58-23.86-32-44.531-32c-25.916,0-47,21.084-47,47s21.084,47,47,47c20.671,0,38.255-13.42,44.531-32H241v66h-49    c-8.284,0-15,6.716-15,15s6.716,15,15,15h128c8.284,0,15-6.716,15-15s-6.716-15-15-15h-49v-66h172.787l-22.393,22.394    c-5.858,5.858-5.858,15.355,0,21.213C424.322,462.536,428.161,464,432,464s7.678-1.464,10.606-4.394l47.997-47.998    c0.352-0.35,0.684-0.718,0.998-1.102c0.137-0.167,0.256-0.344,0.385-0.515c0.165-0.22,0.335-0.435,0.488-0.664    c0.14-0.209,0.261-0.426,0.389-0.641c0.123-0.205,0.252-0.406,0.365-0.618c0.118-0.22,0.217-0.446,0.323-0.67    c0.104-0.219,0.213-0.435,0.306-0.66c0.09-0.218,0.163-0.442,0.243-0.664c0.086-0.24,0.178-0.477,0.252-0.722    c0.067-0.221,0.116-0.446,0.172-0.67c0.063-0.25,0.133-0.499,0.184-0.754c0.051-0.256,0.081-0.515,0.118-0.773    c0.033-0.226,0.075-0.448,0.098-0.677c0.047-0.477,0.071-0.955,0.073-1.434c0-0.015,0.002-0.029,0.002-0.044    S494.998,400.971,494.998,400.956z M113,192H47v-17c0-9.389,7.611-17,17-17h32c9.389,0,17,7.611,17,17V192z M64,418    c-9.374,0-17-7.626-17-17c0-9.374,7.626-17,17-17s17,7.626,17,17C81,410.374,73.374,418,64,418z M256,256    c-21.789,0-40.302-14.295-46.652-34h93.304C296.302,241.705,277.789,256,256,256z"/>
	</g>
</g>
<g>
</g>
<g>
</g>
<g>
</g>
<g>
</g>
<g>
</g>
<g>
</g>
<g>
</g>
<g>
</g>
<g>
</g>
<g>
</g>
<g>
</g>
<g>
</g>
<g>
</g>
<g>
</g>
<g>
</g>
</svg>
