<?xml version="1.0" encoding="iso-8859-1"?>
<!-- Generator: Adobe Illustrator 19.0.0, SVG Export Plug-In . SVG Version: 6.00 Build 0)  -->
<svg xmlns="http://www.w3.org/2000/svg" xmlns:xlink="http://www.w3.org/1999/xlink" version="1.1" id="Layer_1" x="0px" y="0px" viewBox="0 0 512 512" style="enable-background:new 0 0 512 512;" xml:space="preserve">
<g>
	<g>
		<path d="M256,95c-9.374,0-17,7.626-17,17c0,9.368,7.616,16.988,16.981,16.999c0.007,0,0.013-0.001,0.019-0.001    s0.013,0.001,0.019,0.001C265.384,128.988,273,121.368,273,112C273,102.626,265.374,95,256,95z"/>
	</g>
</g>
<g>
	<g>
		<path d="M386.01,347.427c-26.758,37.927-68.934,62.438-115.01,66.846V512c83.089-4.844,155.616-51.102,198.606-116.889    L386.01,347.427z"/>
	</g>
</g>
<g>
	<g>
		<path d="M112,239c-9.374,0-17,7.626-17,17c0,9.374,7.626,17,17,17s17-7.626,17-17C129,246.626,121.374,239,112,239z"/>
	</g>
</g>
<g>
	<g>
		<path d="M484.412,142.725l-95.721,54.712c-0.076,0.045-0.145,0.099-0.223,0.143c-0.127,0.073-0.256,0.135-0.384,0.204L286.233,256    l198.278,113.077C501.453,334.979,512,296.586,512,256C512,215.335,501.416,176.872,484.412,142.725z"/>
	</g>
</g>
<g>
	<g>
		<path d="M214.421,133.878c-37.688,12.886-67.657,42.855-80.543,80.543c10.58,5.589,18.774,15.096,22.653,26.579H241v-84.469    C229.517,152.653,220.011,144.458,214.421,133.878z"/>
	</g>
</g>
<g>
	<g>
		<path d="M297.579,133.877c-5.589,10.581-15.096,18.775-26.579,22.654v73.618l88.74-50.721    C344.097,158.295,322.354,142.346,297.579,133.877z"/>
	</g>
</g>
<g>
	<g>
		<path d="M156.531,271c-3.878,11.481-12.071,20.987-22.649,26.577c15.996,46.668,58.179,80.679,107.118,86.524V271H156.531z"/>
	</g>
</g>
<g>
	<g>
		<path d="M0,241h67.469c5.434-16.089,19.349-28.296,36.407-31.283c15.396-50.442,55.4-90.446,105.842-105.842    c2.986-17.058,15.194-30.972,31.283-36.407V0C112.314,7.503,7.503,112.314,0,241z"/>
	</g>
</g>
<g>
	<g>
		<path d="M156.095,379.619c-24.739-20.027-42.988-47.174-52.209-77.334C86.823,299.301,72.904,287.092,67.469,271H0    c7.503,128.686,112.314,233.497,241,241v-97.726C210.069,411.313,180.373,399.274,156.095,379.619z"/>
	</g>
</g>
<g>
	<g>
		<path d="M271,0v67.469c16.091,5.435,28.299,19.353,31.284,36.413c33.725,10.292,63.244,31.699,83.648,60.577l83.552-47.756    C426.479,51.018,354.011,4.84,271,0z"/>
	</g>
</g>
<g>
	<g>
		<path d="M271,281.824v102.274c35.322-4.177,67.583-22.93,88.799-51.621L271,281.824z"/>
	</g>
</g>
<g>
</g>
<g>
</g>
<g>
</g>
<g>
</g>
<g>
</g>
<g>
</g>
<g>
</g>
<g>
</g>
<g>
</g>
<g>
</g>
<g>
</g>
<g>
</g>
<g>
</g>
<g>
</g>
<g>
</g>
</svg>
