<?xml version="1.0" encoding="iso-8859-1"?>
<!-- Generator: Adobe Illustrator 19.0.0, SVG Export Plug-In . SVG Version: 6.00 Build 0)  -->
<svg xmlns="http://www.w3.org/2000/svg" xmlns:xlink="http://www.w3.org/1999/xlink" version="1.1" id="Layer_1" x="0px" y="0px" viewBox="0 0 512.001 512.001" style="enable-background:new 0 0 512.001 512.001;" xml:space="preserve">
<g>
	<g>
		<path d="M435.5,448.709c0-33.345-39.799-56.477-89-61.819c0-7.755,0-171.929,0-179.89c0-8.284,6.716-15,15-15s15,6.716,15,15    v88.213l36.234-36.234c8.877-8.877,13.766-20.68,13.766-33.234c0-1.64,1.619,9.838-27.442-186.58    c-0.022-0.15-0.046-0.299-0.073-0.448C394.969,16.283,375.511,0,352.721,0H148.945c-21.764,0-40.422,14.646-45.624,35.709    L83.545,96.363c-4.189,12.846-6.512,26.159-6.953,39.637H76.5c0,22.829,0,104.476,0,127.5c0,12.426,10.074,22.5,22.5,22.5    s22.5-10.074,22.5-22.5c0-6.196,0-50.015,0-56.5c0-8.284,6.716-15,15-15s15,6.716,15,15c0,10.01,0,79.795,0,88.5    c0,12.426,10.074,22.5,22.5,22.5c12.426,0,22.5-10.074,22.5-22.5c0-10.747,0-78.643,0-88.5c0-8.284,6.716-15,15-15s15,6.716,15,15    c0,13.653,0,108.775,0,120.5c0,12.426,10.074,22.5,22.5,22.5c12.426,0,22.5-10.074,22.5-22.5c0-4.908,0-115.589,0-120.5    c0-8.284,6.716-15,15-15s15,6.716,15,15c0,7.315,0,172.194,0,179.996c-49.19,5.575-88,28.897-88,61.713    c0,0.049,0.005,0.097,0.005,0.146s-0.005,0.097-0.005,0.146c0,38.202,52.234,63,111,63c59.5,0,111-25.192,111-63    c0-0.049-0.005-0.097-0.005-0.146S435.5,448.758,435.5,448.709z M324.5,482c-44.58,0-80.741-18.118-80.992-33.146    c0.205-12.302,24.547-26.739,57.992-31.515v8.16c0,12.426,10.074,22.5,22.5,22.5c12.426,0,22.5-10.074,22.5-22.5v-8.226    c31.961,4.503,58.766,18.047,58.992,31.581C405.24,463.944,368.99,482,324.5,482z"/>
	</g>
</g>
<g>
</g>
<g>
</g>
<g>
</g>
<g>
</g>
<g>
</g>
<g>
</g>
<g>
</g>
<g>
</g>
<g>
</g>
<g>
</g>
<g>
</g>
<g>
</g>
<g>
</g>
<g>
</g>
<g>
</g>
</svg>
