<?xml version="1.0" encoding="iso-8859-1"?>
<!-- Generator: Adobe Illustrator 19.0.0, SVG Export Plug-In . SVG Version: 6.00 Build 0)  -->
<svg xmlns="http://www.w3.org/2000/svg" xmlns:xlink="http://www.w3.org/1999/xlink" version="1.1" id="Layer_1" x="0px" y="0px" viewBox="0 0 511.999 511.999" style="enable-background:new 0 0 511.999 511.999;" xml:space="preserve">
<g>
	<g>
		<path d="M511.546,493.356l-63.998-255.993c-1.669-6.677-7.669-11.362-14.552-11.362h-0.995c-0.003,0-0.007,0-0.01,0H312.087    l15.285-29.984c25.227-21.17,39.625-51.963,39.625-85.013c0-61.204-49.793-110.997-110.997-110.997    S145.002,49.799,145.002,111.003c0,33.05,14.399,63.842,39.625,85.013L199.911,226H80.009c-0.003,0-0.007,0-0.01,0h-0.995    c-6.883,0-12.883,4.685-14.552,11.362L0.455,493.356c-2.367,9.469,4.811,18.638,14.552,18.638h481.988    C506.754,511.993,513.908,502.806,511.546,493.356z M256,64.005c25.915,0,46.999,21.083,46.999,46.999    S281.915,158.002,256,158.002s-46.999-21.083-46.999-46.999S230.085,64.005,256,64.005z M215.206,256l27.43,53.812    c5.555,10.898,21.172,10.897,26.727,0L296.795,256h98.99L256,395.784L116.217,256H215.206z M87.33,269.539l67.459,67.458    L42.358,449.43L87.33,269.539z M52.218,481.994L176.002,358.21l123.784,123.784H52.218z M342.211,481.994l-64.998-64.998    L424.67,269.539l53.114,212.455H342.211z"/>
	</g>
</g>
<g>
</g>
<g>
</g>
<g>
</g>
<g>
</g>
<g>
</g>
<g>
</g>
<g>
</g>
<g>
</g>
<g>
</g>
<g>
</g>
<g>
</g>
<g>
</g>
<g>
</g>
<g>
</g>
<g>
</g>
</svg>
