<?xml version="1.0" encoding="iso-8859-1"?>
<!-- Generator: Adobe Illustrator 19.0.0, SVG Export Plug-In . SVG Version: 6.00 Build 0)  -->
<svg xmlns="http://www.w3.org/2000/svg" xmlns:xlink="http://www.w3.org/1999/xlink" version="1.1" id="Layer_1" x="0px" y="0px" viewBox="0 0 511.999 511.999" style="enable-background:new 0 0 511.999 511.999;" xml:space="preserve">
<g>
	<g>
		<path d="M502.123,241.892l-170.401-61.613c-2.971-8.217-60.41-167.072-61.614-170.401c-4.855-13.428-23.539-12.929-28.234,0.055    c-0.002,0.006-0.004,0.011-0.006,0.017L180.28,180.279c-0.004,0.001-170.4,61.613-170.401,61.613    c-13.448,4.874-12.886,23.59,0,28.214L180.28,331.72c0.003,0.009,61.591,170.338,61.594,170.347    c4.82,13.33,23.729,13.163,28.26-0.017l61.588-170.329l170.401-61.613C515.288,265.347,515.289,246.652,502.123,241.892z     M256.002,303.003c-25.918,0-47.004-21.086-47.004-47.004s21.086-47.004,47.004-47.004c25.918,0,47.004,21.086,47.004,47.004    S281.92,303.003,256.002,303.003z"/>
	</g>
</g>
<g>
	<g>
		<path d="M409.306,82.566l-68.608,34.304l14.455,39.976l39.975,14.454l34.304-68.608C435.85,89.86,422.178,76.131,409.306,82.566z"/>
	</g>
</g>
<g>
	<g>
		<path d="M102.696,82.568c-12.832-6.419-26.562,7.255-20.127,20.127l34.305,68.607l39.975-14.454l14.454-39.975L102.696,82.568z"/>
	</g>
</g>
<g>
	<g>
		<path d="M429.434,409.304l-34.305-68.607l-39.975,14.454l-14.454,39.975l68.608,34.304    C422.139,435.848,435.87,422.176,429.434,409.304z"/>
	</g>
</g>
<g>
	<g>
		<path d="M156.85,355.152l-39.975-14.454L82.57,409.305c-6.429,12.856,7.273,26.551,20.127,20.127l68.608-34.304L156.85,355.152z"/>
	</g>
</g>
<g>
</g>
<g>
</g>
<g>
</g>
<g>
</g>
<g>
</g>
<g>
</g>
<g>
</g>
<g>
</g>
<g>
</g>
<g>
</g>
<g>
</g>
<g>
</g>
<g>
</g>
<g>
</g>
<g>
</g>
</svg>
