<?xml version="1.0" encoding="iso-8859-1"?>
<!-- Generator: Adobe Illustrator 19.0.0, SVG Export Plug-In . SVG Version: 6.00 Build 0)  -->
<svg xmlns="http://www.w3.org/2000/svg" xmlns:xlink="http://www.w3.org/1999/xlink" version="1.1" id="Layer_1" x="0px" y="0px" viewBox="0 0 512 512" style="enable-background:new 0 0 512 512;" xml:space="preserve">
<g>
	<g>
		<path d="M256.019,258.045c-25.914,0-46.997,21.083-46.997,46.997s21.083,46.997,46.997,46.997s46.997-21.083,46.997-46.997    S281.934,258.045,256.019,258.045z"/>
	</g>
</g>
<g>
	<g>
		<path d="M495.093,168.304c-2.223-1.711-21.539-16.578-48.085-36.867v-82.38c0-8.284-6.716-14.999-14.999-14.999h-63.996    c-8.284,0-14.999,6.716-14.999,14.999v11.081c-28.251-21.211-54.122-40.351-70.174-51.585c-16.293-11.405-37.349-11.405-53.642,0    C178.859,43.789,17.175,167.898,15.489,169.584c-18.323,18.326-18.322,48.141,0.001,66.465    c13.169,13.167,32.549,17.085,49.54,10.826V497c0,8.284,6.716,14.999,14.999,14.999h175.989h0h175.989    c8.284,0,14.999-6.716,14.999-14.999V246.878c16.68,6.144,36.169,2.542,49.541-10.829    C517.83,214.768,511.948,181.275,495.093,168.304z M327.388,390.053l-58.007,113.76c-2.561,5.024-7.723,8.186-13.363,8.186    c-5.64,0-10.802-3.163-13.363-8.187l-58.006-113.76c-25.226-21.17-39.624-51.961-39.624-85.01    c0-61.202,49.791-110.993,110.993-110.993s110.993,49.791,110.993,110.993C367.012,338.092,352.614,368.883,327.388,390.053z     M475.337,214.835c-6.629,6.628-17.414,6.628-24.043,0c-0.471-0.47-186.171-142.389-186.171-142.389    c-5.376-4.106-12.835-4.106-18.211,0C51.487,221.74,61.811,213.769,60.743,214.835c-6.628,6.628-17.413,6.628-24.042,0.001    c-6.433-6.433-6.622-16.782-0.567-23.447c12.911-9.932,161.042-123.807,210.266-158.261c5.844-4.09,13.394-4.09,19.237,0    C314.86,67.581,462.993,181.457,475.904,191.39C481.959,198.054,481.77,208.404,475.337,214.835z"/>
	</g>
</g>
<g>
</g>
<g>
</g>
<g>
</g>
<g>
</g>
<g>
</g>
<g>
</g>
<g>
</g>
<g>
</g>
<g>
</g>
<g>
</g>
<g>
</g>
<g>
</g>
<g>
</g>
<g>
</g>
<g>
</g>
</svg>
