<?xml version="1.0" encoding="iso-8859-1"?>
<!-- Generator: Adobe Illustrator 19.0.0, SVG Export Plug-In . SVG Version: 6.00 Build 0)  -->
<svg xmlns="http://www.w3.org/2000/svg" xmlns:xlink="http://www.w3.org/1999/xlink" version="1.1" id="Layer_1" x="0px" y="0px" viewBox="0 0 512 512" style="enable-background:new 0 0 512 512;" xml:space="preserve">
<g>
	<g>
		<path d="M298.607,36.393l-32-32c-5.857-5.858-15.355-5.858-21.213,0l-32,32c-5.858,5.858-5.858,15.355,0,21.213    c5.857,5.858,15.355,5.858,21.213,0L256,36.213l21.394,21.393c5.857,5.858,15.356,5.858,21.213,0    C304.465,51.749,304.465,42.252,298.607,36.393z"/>
	</g>
</g>
<g>
	<g>
		<path d="M57.607,261.393l-21.393-21.394l21.393-21.394c5.857-5.857,5.857-15.354,0-21.212c-5.857-5.858-15.355-5.858-21.213,0    l-32,32c-5.858,5.858-5.858,15.355,0,21.213l32,32c5.857,5.858,15.356,5.858,21.213,0    C63.465,276.748,63.465,267.251,57.607,261.393z"/>
	</g>
</g>
<g>
	<g>
		<path d="M507.607,229.393l-32-32c-5.857-5.858-15.355-5.858-21.213,0c-5.858,5.858-5.858,15.355,0,21.213l21.393,21.393    l-21.393,21.394c-5.858,5.858-5.858,15.355,0,21.213c5.857,5.858,15.356,5.858,21.213,0l32-32    C513.464,244.748,513.464,235.252,507.607,229.393z"/>
	</g>
</g>
<g>
	<g>
		<path d="M298.606,454.393c-5.857-5.859-15.355-5.859-21.212,0L256,475.786l-21.394-21.393c-5.857-5.858-15.355-5.858-21.213,0    c-5.858,5.858-5.858,15.355,0,21.213l32,32c5.857,5.858,15.356,5.858,21.213,0l32-32    C304.464,469.748,304.464,460.251,298.606,454.393z"/>
	</g>
</g>
<g>
	<g>
		<path d="M308.99,106.09c2.089,3.749,4.084,7.745,5.972,11.993c11.434,25.727,18.322,82.184,19.756,122.916h79.57    C408.409,178.471,366.17,126.364,308.99,106.09z"/>
	</g>
</g>
<g>
	<g>
		<path d="M207.327,271c3.219,74.527,29.495,144,48.673,144c19.178,0,45.454-69.474,48.672-144H207.327z"/>
	</g>
</g>
<g>
	<g>
		<path d="M256,96.999c-19.178,0-45.454,69.474-48.672,144h97.345C301.454,166.473,275.179,96.999,256,96.999z"/>
	</g>
</g>
<g>
	<g>
		<path d="M197.037,393.915c-11.433-25.727-18.32-82.184-19.755-122.916h-79.57c5.879,62.53,48.117,114.637,105.297,134.909    C200.92,402.159,198.925,398.164,197.037,393.915z"/>
	</g>
</g>
<g>
	<g>
		<path d="M97.713,240.999h79.57c1.434-40.731,8.322-97.188,19.756-122.916c1.888-4.248,3.883-8.245,5.972-11.993    C145.83,126.364,103.592,178.471,97.713,240.999z"/>
	</g>
</g>
<g>
	<g>
		<path d="M334.718,271c-1.434,40.732-8.322,97.189-19.756,122.916c-1.888,4.248-3.883,8.245-5.972,11.993    c57.18-20.272,99.419-72.379,105.298-134.909H334.718z"/>
	</g>
</g>
<g>
</g>
<g>
</g>
<g>
</g>
<g>
</g>
<g>
</g>
<g>
</g>
<g>
</g>
<g>
</g>
<g>
</g>
<g>
</g>
<g>
</g>
<g>
</g>
<g>
</g>
<g>
</g>
<g>
</g>
</svg>
