<?xml version="1.0" encoding="iso-8859-1"?>
<!-- Generator: Adobe Illustrator 19.0.0, SVG Export Plug-In . SVG Version: 6.00 Build 0)  -->
<svg xmlns="http://www.w3.org/2000/svg" xmlns:xlink="http://www.w3.org/1999/xlink" version="1.1" id="Layer_1" x="0px" y="0px" viewBox="0 0 512 512" style="enable-background:new 0 0 512 512;" xml:space="preserve">
<g>
	<g>
		<path d="M269.458,240.954C236.67,271.942,186.417,312.518,158,324.696c-5.191,2.225-10.085,4.048-14.717,5.541    C167.449,342.853,194.904,350,224,350c43.109,0,82.62-15.677,113.152-41.618L269.458,240.954z"/>
	</g>
</g>
<g>
	<g>
		<path d="M377.895,91.743c-1.563,5.009-3.514,10.329-5.947,16.005c-12.087,28.203-50.753,78.905-81.349,111.921l67.684,67.418    C383.686,256.703,399,217.609,399,175C399,144.881,391.351,116.516,377.895,91.743z"/>
	</g>
</g>
<g>
	<g>
		<path d="M352.688,56.541c-4.302-4.67-8.852-9.107-13.633-13.287c-12.082-1.652-27.779,3.569-38.986,8.373    c-26.646,11.42-64.744,41.82-100.763,77.107l69.385,69.113c34.557-36.652,64.277-75.303,75.682-101.916    C352.114,77.868,353.948,64.885,352.688,56.541z"/>
	</g>
</g>
<g>
	<g>
		<path d="M178.285,150.138c-34.864,36.878-64.921,75.881-76.406,102.679c-7.501,17.502-9.452,30.231-8.421,38.595    c4.439,4.973,9.157,9.69,14.13,14.13c8.365,1.032,21.093-0.92,38.595-8.421c26.832-11.5,65.273-42.246,101.512-77.846    L178.285,150.138z"/>
	</g>
</g>
<g>
	<g>
		<path d="M90.174,62.374C64.499,92.833,49,132.138,49,175c0,29.099,7.148,56.557,19.767,80.725    c1.494-4.636,3.31-9.528,5.537-14.725c12.151-28.352,52.568-78.44,83.53-111.232L90.174,62.374z"/>
	</g>
</g>
<g>
	<g>
		<path d="M224,0c-42.855,0-82.154,15.494-112.612,41.162l67.619,67.354c32.501-31.138,80.978-72.349,109.245-84.464    c5.037-2.159,9.789-3.932,14.299-5.401C278.916,6.728,252.23,0,224,0z"/>
	</g>
</g>
<g>
	<g>
		<path d="M463,175c0-63.839-24.86-123.857-70.001-168.998c-5.858-5.858-15.356-5.858-21.213,0c-5.858,5.858-5.858,15.355,0,21.213    C411.26,66.69,433,119.174,433,175c0,115.243-93.757,209-209,209c-55.826,0-108.31-21.74-147.786-61.214    c-5.857-5.858-15.355-5.858-21.213,0c-5.857,5.858-5.857,15.355,0,21.213C100.143,389.14,160.161,414,224,414    c5.7,0,11.368-0.207,17-0.6V482h-81c-8.284,0-15,6.716-15,15s6.716,15,15,15h192c8.284,0,15-6.716,15-15s-6.716-15-15-15h-81    v-72.592C379.072,387.971,463,292.382,463,175z"/>
	</g>
</g>
<g>
</g>
<g>
</g>
<g>
</g>
<g>
</g>
<g>
</g>
<g>
</g>
<g>
</g>
<g>
</g>
<g>
</g>
<g>
</g>
<g>
</g>
<g>
</g>
<g>
</g>
<g>
</g>
<g>
</g>
</svg>
