<?xml version="1.0" encoding="iso-8859-1"?>
<!-- Generator: Adobe Illustrator 19.0.0, SVG Export Plug-In . SVG Version: 6.00 Build 0)  -->
<svg xmlns="http://www.w3.org/2000/svg" xmlns:xlink="http://www.w3.org/1999/xlink" version="1.1" id="Layer_1" x="0px" y="0px" viewBox="0 0 512 512" style="enable-background:new 0 0 512 512;" xml:space="preserve">
<g>
	<g>
		<path d="M393.292,18.608L272,79.255L150.708,18.609c-12.523-6.261-26.125,6.663-20.415,19.509l128,287.999    c5.267,11.853,22.148,11.851,27.414,0l128-288C419.394,25.324,405.865,12.321,393.292,18.608z"/>
	</g>
</g>
<g>
	<g>
		<path d="M465,177.025h-80.2l-13.333,30H417v42.787l-145,145l-177-177v-10.787h77.534l-13.333-30H47c-25.916,0-47,21.084-47,47v224    c0,25.916,21.084,47,47,47h418c25.916,0,47-21.084,47-47v-224C512,198.109,490.916,177.025,465,177.025z M95,260.238    l75.787,75.787L95,411.812V260.238z M95,465.025v-10.787l97-97l58.787,58.787l-49,49H95z M244.213,465.025L272,437.238    l27.787,27.787H244.213z M417,465.025h-74.787l-49-49L417,292.238V465.025z"/>
	</g>
</g>
<g>
</g>
<g>
</g>
<g>
</g>
<g>
</g>
<g>
</g>
<g>
</g>
<g>
</g>
<g>
</g>
<g>
</g>
<g>
</g>
<g>
</g>
<g>
</g>
<g>
</g>
<g>
</g>
<g>
</g>
</svg>
