<?xml version="1.0" encoding="iso-8859-1"?>
<!-- Generator: Adobe Illustrator 19.0.0, SVG Export Plug-In . SVG Version: 6.00 Build 0)  -->
<svg version="1.1" id="Capa_1" xmlns="http://www.w3.org/2000/svg" xmlns:xlink="http://www.w3.org/1999/xlink" x="0px" y="0px"
	 viewBox="0 0 512 512" style="enable-background:new 0 0 512 512;" xml:space="preserve">
<g>
	<g>
		<path d="M482,83.574H30c-16.568,0-30,13.431-30,30v284.853c0,16.569,13.432,30,30,30h452c16.568,0,30-13.431,30-30V113.574
			C512,97.006,498.568,83.574,482,83.574z M448.371,339.811c0,16.542-13.458,30-30,30H93.629c-16.542,0-30-13.458-30-30v-167.62
			c0-16.542,13.458-30,30-30h324.742c16.542,0,30,13.458,30,30V339.811z"/>
	</g>
</g>
<g>
	<g>
		<path d="M418.371,172.191H93.629v167.62h324.742c0.013,0,0.019-0.001,0.019-0.001L418.371,172.191z M313.471,302.329H198.529
			c-16.542,0-30-13.458-30-30v-32.656c0-16.542,13.458-30,30-30H313.47c16.542,0,30,13.458,30,30v32.656h0.001
			C343.471,288.871,330.013,302.329,313.471,302.329z"/>
	</g>
</g>
<g>
	<g>
		<path d="M313.47,239.673H198.529v32.656H313.47c0.013,0,0.019-0.001,0.019-0.001L313.47,239.673z"/>
	</g>
</g>
<g>
</g>
<g>
</g>
<g>
</g>
<g>
</g>
<g>
</g>
<g>
</g>
<g>
</g>
<g>
</g>
<g>
</g>
<g>
</g>
<g>
</g>
<g>
</g>
<g>
</g>
<g>
</g>
<g>
</g>
</svg>
