<?xml version="1.0" encoding="iso-8859-1"?>
<!-- Generator: Adobe Illustrator 19.0.0, SVG Export Plug-In . SVG Version: 6.00 Build 0)  -->
<svg version="1.1" id="Capa_1" xmlns="http://www.w3.org/2000/svg" xmlns:xlink="http://www.w3.org/1999/xlink" x="0px" y="0px"
	 viewBox="0 0 512.001 512.001" style="enable-background:new 0 0 512.001 512.001;" xml:space="preserve">
<g>
	<g>
		<path d="M170.51,183.087l34.082-33.48l-37.151-36.495c-0.174-0.171-0.35-0.339-0.529-0.504c-11.693-10.804-30.011-10.804-41.704,0
			c-0.179,0.165-0.355,0.333-0.529,0.504l-53.264,52.324v-11.794c0-8.265-6.7-14.966-14.966-14.966H41.835
			c-8.265,0-14.966,6.7-14.966,14.966v55.553L7.147,228.569c-9.41,9.244-9.545,24.366-0.301,33.776
			c8.698,8.856,22.601,9.491,32.052,1.831v113.389c0,16.531,13.401,29.931,29.931,29.931h42.127v-67.469
			c0-8.265,6.7-14.966,14.966-14.966h30.318v-18.255c-9.145-2.242-17.511-6.983-24.285-13.88
			c-9.611-9.782-14.836-22.722-14.714-36.435c0.122-13.712,5.577-26.557,15.359-36.166L170.51,183.087z"/>
	</g>
</g>
<g>
	<g>
		<path d="M297.244,138.197c-0.156-0.153-0.314-0.304-0.474-0.452c-10.48-9.683-26.898-9.683-37.378,0
			c-0.16,0.148-0.318,0.299-0.474,0.452L153.577,241.678c-8.434,8.285-8.555,21.839-0.269,30.272
			c8.284,8.434,21.838,8.555,30.272,0.269l2.592-2.546v107.301c0,16.531,13.401,29.931,29.931,29.931h36.216v-38.941
			c0-8.265,6.7-14.966,14.966-14.966h21.591c8.265,0,14.966,6.7,14.966,14.966v38.941h36.562V292.023
			c0-3.848,1.482-7.548,4.139-10.332l47.792-50.082L297.244,138.197z"/>
	</g>
</g>
<g>
	<g>
		<path d="M453.661,233.875c-2.828-3.098-6.695-4.83-10.89-4.877c-4.171-0.078-8.1,1.599-10.993,4.633h-0.001l-61.442,64.387
			v108.888h57.531v-14.608c0-8.265,6.7-14.966,14.966-14.966c8.265,0,14.966,6.7,14.966,14.966v14.608h39.237
			c8.253,0,14.966-6.713,14.966-14.966v-94.117L453.661,233.875z"/>
	</g>
</g>
<g>
</g>
<g>
</g>
<g>
</g>
<g>
</g>
<g>
</g>
<g>
</g>
<g>
</g>
<g>
</g>
<g>
</g>
<g>
</g>
<g>
</g>
<g>
</g>
<g>
</g>
<g>
</g>
<g>
</g>
</svg>
