<?xml version="1.0" encoding="iso-8859-1"?>
<!-- Generator: Adobe Illustrator 19.0.0, SVG Export Plug-In . SVG Version: 6.00 Build 0)  -->
<svg version="1.1" id="Capa_1" xmlns="http://www.w3.org/2000/svg" xmlns:xlink="http://www.w3.org/1999/xlink" x="0px" y="0px"
	 viewBox="0 0 512 512" style="enable-background:new 0 0 512 512;" xml:space="preserve">
<g>
	<g>
		<path d="M493.867,131.177c9.999,0,18.133-8.135,18.133-18.133V79.132c0-9.999-8.135-18.133-18.133-18.133h-33.912
			c-9.999,0-18.133,8.135-18.133,18.133v1.944H70.179v-1.944c0-9.999-8.135-18.133-18.133-18.133H18.133
			C8.135,60.999,0,69.134,0,79.132v33.912c0,9.999,8.135,18.133,18.133,18.133h1.943v249.645h-1.943
			C8.135,380.823,0,388.957,0,398.956v33.912c0,9.999,8.135,18.133,18.133,18.133h33.912c9.999,0,18.133-8.135,18.133-18.133v-1.944
			h371.643v1.944c0,9.999,8.135,18.133,18.133,18.133h33.912c9.999,0,18.133-8.135,18.133-18.133v-33.912
			c0-9.999-8.135-18.133-18.133-18.133h-1.943V131.177H493.867z M461.899,380.823L461.899,380.823h-1.944
			c-9.999,0-18.133,8.135-18.133,18.133v1.943H70.179v-1.943c0-9.999-8.135-18.133-18.133-18.133h-1.944V131.177h1.944
			c9.999,0,18.133-8.135,18.133-18.133V111.1h371.643v1.944c0,9.999,8.135,18.133,18.133,18.133h1.944V380.823z"/>
	</g>
</g>
<g>
	<g>
		<path d="M281.677,212.19h-51.353c-9.999,0-18.133,8.135-18.133,18.134v51.353c0,9.999,8.135,18.133,18.133,18.133h51.353
			c9.999,0,18.133-8.135,18.133-18.133v-51.353C299.81,220.325,291.675,212.19,281.677,212.19z"/>
	</g>
</g>
<g>
</g>
<g>
</g>
<g>
</g>
<g>
</g>
<g>
</g>
<g>
</g>
<g>
</g>
<g>
</g>
<g>
</g>
<g>
</g>
<g>
</g>
<g>
</g>
<g>
</g>
<g>
</g>
<g>
</g>
</svg>
