<?xml version="1.0" encoding="iso-8859-1"?>
<!-- Generator: Adobe Illustrator 19.0.0, SVG Export Plug-In . SVG Version: 6.00 Build 0)  -->
<svg version="1.1" id="Capa_1" xmlns="http://www.w3.org/2000/svg" xmlns:xlink="http://www.w3.org/1999/xlink" x="0px" y="0px"
	 viewBox="0 0 512 512" style="enable-background:new 0 0 512 512;" xml:space="preserve">
<g>
	<g>
		<path d="M99.925,129.858V497c0,8.284,6.716,15,15,15h282.15c8.284,0,15-6.716,15-15V129.858H99.925z M274.958,217.448
			c0-11.028,8.972-20,20-20h54.821c11.028,0,20,8.972,20,20v53.813c0,11.028-8.972,20-20,20h-54.821c-11.028,0-20-8.972-20-20
			V217.448z M142.221,217.448c0-11.028,8.972-20,20-20h54.821c11.028,0,20,8.972,20,20v53.813c0,11.028-8.972,20-20,20h-54.821
			c-11.028,0-20-8.972-20-20V217.448z M354.78,461.947H157.221c-8.284,0-15-6.716-15-15s6.716-15,15-15H354.78
			c8.284,0,15,6.716,15,15S363.064,461.947,354.78,461.947z M354.78,408.386H157.221c-8.284,0-15-6.716-15-15s6.716-15,15-15H354.78
			c8.284,0,15,6.716,15,15S363.064,408.386,354.78,408.386z M354.78,354.824H157.221c-8.284,0-15-6.716-15-15s6.716-15,15-15H354.78
			c8.284,0,15,6.716,15,15S363.064,354.824,354.78,354.824z"/>
	</g>
</g>
<g>
	<g>
		<path d="M397.075,0h-282.15c-8.284,0-15,6.716-15,15v84.858h312.15V15C412.075,6.716,405.359,0,397.075,0z M161.391,67.246
			h-20.862c-8.284,0-15-6.716-15-15c0-8.284,6.716-15,15-15h20.862c8.284,0,15,6.716,15,15
			C176.391,60.53,169.675,67.246,161.391,67.246z M371.472,67.246H211.54c-8.284,0-15-6.716-15-15c0-8.284,6.716-15,15-15h159.932
			c8.284,0,15,6.716,15,15C386.472,60.53,379.756,67.246,371.472,67.246z"/>
	</g>
</g>
<g>
</g>
<g>
</g>
<g>
</g>
<g>
</g>
<g>
</g>
<g>
</g>
<g>
</g>
<g>
</g>
<g>
</g>
<g>
</g>
<g>
</g>
<g>
</g>
<g>
</g>
<g>
</g>
<g>
</g>
</svg>
