<?xml version="1.0" encoding="iso-8859-1"?>
<!-- Generator: Adobe Illustrator 19.0.0, SVG Export Plug-In . SVG Version: 6.00 Build 0)  -->
<svg version="1.1" id="Capa_1" xmlns="http://www.w3.org/2000/svg" xmlns:xlink="http://www.w3.org/1999/xlink" x="0px" y="0px"
	 viewBox="0 0 512 512" style="enable-background:new 0 0 512 512;" xml:space="preserve">
<g>
	<g>
		<path d="M0,161.023V450c0,8.284,6.716,15,15,15h482c8.284,0,15-6.716,15-15V161.023H0z M204.69,216.448c0-11.028,8.972-20,20-20
			h62.619c11.028,0,20,8.972,20,20v53.813c0,11.028-8.972,20-20,20H224.69c-11.028,0-20-8.972-20-20V216.448z M57.75,216.448
			c0-11.028,8.972-20,20-20h62.619c11.028,0,20,8.972,20,20v53.813c0,11.028-8.972,20-20,20H77.75c-11.028,0-20-8.972-20-20V216.448
			z M439.25,417.386H72.75c-8.284,0-15-6.716-15-15s6.715-15,15-15h366.5c8.284,0,15,6.716,15,15S447.534,417.386,439.25,417.386z
			 M439.25,356.824H72.75c-8.284,0-15-6.716-15-15s6.715-15,15-15h366.5c8.284,0,15,6.716,15,15S447.534,356.824,439.25,356.824z
			 M454.25,270.261c0,11.028-8.972,20-20,20h-62.619c-11.028,0-20-8.972-20-20v-53.813c0-11.028,8.972-20,20-20h62.619
			c11.028,0,20,8.972,20,20V270.261z"/>
	</g>
</g>
<g>
	<g>
		<path d="M497,47H15C6.716,47,0,53.716,0,62v69.022h512V62C512,53.716,505.284,47,497,47z M58.772,105.99H48.063
			c-8.284,0-15-6.716-15-15s6.716-15,15-15h10.709c8.284,0,15,6.716,15,15S67.057,105.99,58.772,105.99z M114.688,105.99h-10.709
			c-8.284,0-15-6.716-15-15s6.716-15,15-15h10.709c8.284,0,15,6.716,15,15S122.972,105.99,114.688,105.99z M170.603,105.99h-10.709
			c-8.284,0-15-6.716-15-15s6.716-15,15-15h10.709c8.284,0,15,6.716,15,15S178.887,105.99,170.603,105.99z"/>
	</g>
</g>
<g>
</g>
<g>
</g>
<g>
</g>
<g>
</g>
<g>
</g>
<g>
</g>
<g>
</g>
<g>
</g>
<g>
</g>
<g>
</g>
<g>
</g>
<g>
</g>
<g>
</g>
<g>
</g>
<g>
</g>
</svg>
