<?xml version="1.0" encoding="iso-8859-1"?>
<!-- Generator: Adobe Illustrator 19.0.0, SVG Export Plug-In . SVG Version: 6.00 Build 0)  -->
<svg version="1.1" id="Capa_1" xmlns="http://www.w3.org/2000/svg" xmlns:xlink="http://www.w3.org/1999/xlink" x="0px" y="0px"
	 viewBox="0 0 512 512" style="enable-background:new 0 0 512 512;" xml:space="preserve">
<g>
	<g>
		<path d="M259.62,28.007H18.118C8.128,28.007,0,36.135,0,46.125v177.84c0,9.991,8.128,18.118,18.118,18.118H259.62
			c9.991,0,18.119-8.128,18.119-18.118V46.125C277.739,36.135,269.611,28.007,259.62,28.007z M233.428,201.784
			c-2.922,4.14-7.559,6.352-12.268,6.352c-2.99,0-6.008-0.891-8.636-2.747l-73.655-51.985L65.214,205.39
			c-2.628,1.855-5.647,2.747-8.636,2.747c-4.709,0-9.346-2.212-12.268-6.352c-4.777-6.768-3.163-16.127,3.605-20.904l64.941-45.835
			L47.916,89.21c-6.769-4.777-8.383-14.136-3.605-20.904c4.777-6.769,14.137-8.383,20.904-3.605l73.655,51.985L212.524,64.7
			c6.767-4.777,16.127-3.164,20.904,3.605c4.777,6.768,3.163,16.127-3.605,20.904l-64.941,45.835l64.941,45.836
			C236.592,185.657,238.206,195.016,233.428,201.784z"/>
	</g>
</g>
<g>
	<g>
		<path d="M497,28.007H319.519c-8.284,0-15,6.716-15,15s6.716,15,15,15H497c8.284,0,15-6.716,15-15S505.284,28.007,497,28.007z"/>
	</g>
</g>
<g>
	<g>
		<path d="M497,89.366H319.519c-8.284,0-15,6.716-15,15s6.716,15,15,15H497c8.284,0,15-6.716,15-15S505.284,89.366,497,89.366z"/>
	</g>
</g>
<g>
	<g>
		<path d="M497,150.725H319.519c-8.284,0-15,6.716-15,15s6.716,15,15,15H497c8.284,0,15-6.716,15-15S505.284,150.725,497,150.725z"
			/>
	</g>
</g>
<g>
	<g>
		<path d="M497,212.083H319.519c-8.284,0-15,6.716-15,15s6.716,15,15,15H497c8.284,0,15-6.716,15-15S505.284,212.083,497,212.083z"
			/>
	</g>
</g>
<g>
	<g>
		<path d="M493.882,269.917H252.38c-9.991,0-18.119,8.128-18.119,18.118v177.84c0,9.99,8.128,18.118,18.119,18.118h241.501
			c9.99,0,18.118-8.128,18.118-18.118v-177.84C512,278.045,503.872,269.917,493.882,269.917z M467.69,443.694
			c-2.921,4.14-7.559,6.352-12.268,6.352c-2.99,0-6.008-0.891-8.636-2.746l-73.655-51.985L299.476,447.3
			c-2.628,1.855-5.647,2.746-8.636,2.746c-4.709,0-9.346-2.211-12.268-6.352c-4.777-6.769-3.163-16.127,3.605-20.904l64.941-45.835
			l-64.941-45.835c-6.769-4.777-8.383-14.136-3.605-20.904c4.776-6.768,14.137-8.384,20.904-3.605l73.655,51.985l73.655-51.985
			c6.768-4.778,16.128-3.163,20.904,3.605c4.777,6.769,3.163,16.127-3.605,20.904l-64.941,45.835l64.941,45.835
			C470.854,427.567,472.468,436.926,467.69,443.694z"/>
	</g>
</g>
<g>
	<g>
		<path d="M192.481,453.993H15c-8.284,0-15,6.716-15,15s6.716,15,15,15h177.481c8.284,0,15-6.716,15-15
			S200.765,453.993,192.481,453.993z"/>
	</g>
</g>
<g>
	<g>
		<path d="M192.481,392.635H15c-8.284,0-15,6.716-15,15s6.716,15,15,15h177.481c8.284,0,15-6.716,15-15
			S200.765,392.635,192.481,392.635z"/>
	</g>
</g>
<g>
	<g>
		<path d="M192.481,331.275H15c-8.284,0-15,6.716-15,15s6.716,15,15,15h177.481c8.284,0,15-6.716,15-15
			S200.765,331.275,192.481,331.275z"/>
	</g>
</g>
<g>
	<g>
		<path d="M192.481,269.917H15c-8.284,0-15,6.716-15,15s6.716,15,15,15h177.481c8.284,0,15-6.716,15-15
			S200.765,269.917,192.481,269.917z"/>
	</g>
</g>
<g>
</g>
<g>
</g>
<g>
</g>
<g>
</g>
<g>
</g>
<g>
</g>
<g>
</g>
<g>
</g>
<g>
</g>
<g>
</g>
<g>
</g>
<g>
</g>
<g>
</g>
<g>
</g>
<g>
</g>
</svg>
