<?xml version="1.0" encoding="iso-8859-1"?>
<!-- Generator: Adobe Illustrator 19.0.0, SVG Export Plug-In . SVG Version: 6.00 Build 0)  -->
<svg version="1.1" id="Capa_1" xmlns="http://www.w3.org/2000/svg" xmlns:xlink="http://www.w3.org/1999/xlink" x="0px" y="0px"
	 viewBox="0 0 512 512" style="enable-background:new 0 0 512 512;" xml:space="preserve">
<g>
	<g>
		<path d="M497,47H15C6.716,47,0,53.716,0,62v69.022h512V62C512,53.716,505.284,47,497,47z M70.329,109.249H60.247
			c-8.284,0-15-6.716-15-15s6.716-15,15-15h10.082c8.284,0,15,6.716,15,15S78.613,109.249,70.329,109.249z M122.968,109.249h-10.082
			c-8.284,0-15-6.716-15-15s6.716-15,15-15h10.082c8.284,0,15,6.716,15,15S131.252,109.249,122.968,109.249z M175.607,109.249
			h-10.083c-8.284,0-15-6.716-15-15s6.716-15,15-15h10.083c8.284,0,15,6.716,15,15S183.891,109.249,175.607,109.249z"/>
	</g>
</g>
<g>
	<g>
		<path d="M0,161.023V450c0,8.284,6.716,15,15,15h482c8.284,0,15-6.716,15-15V161.023H0z M354.691,237.477l3.152-10.582
			c2.1-7.048,8.183-12.092,15.498-12.849c4.798-0.496,9.446,0.929,13.068,3.784l59.097-31.967c7.286-3.942,16.388-1.231,20.33,6.057
			c3.941,7.287,1.23,16.389-6.057,20.33l-59.098,31.967c0.408,4.597-0.944,9.267-3.985,13.01c-3.505,4.314-8.676,6.699-14.035,6.699
			c-1.731,0-3.481-0.249-5.202-0.762l-10.579-3.151c-4.638-1.382-8.461-4.487-10.764-8.745
			C353.817,247.012,353.31,242.114,354.691,237.477z M157.309,379.208l-3.152,10.58c-2.1,7.048-8.183,12.092-15.498,12.849
			c-0.633,0.065-1.265,0.098-1.891,0.098c-4.119,0-8.042-1.395-11.188-3.877L66.493,430.82c-2.269,1.228-4.713,1.81-7.124,1.81
			c-5.331,0-10.492-2.849-13.207-7.866c-3.94-7.288-1.229-16.389,6.058-20.331l59.098-31.967c-0.408-4.597,0.944-9.267,3.985-13.01
			c4.638-5.708,12.19-8.037,19.238-5.936l10.577,3.15c4.636,1.38,8.461,4.486,10.764,8.745
			C158.184,369.672,158.691,374.57,157.309,379.208z M155.882,251.269c-2.303,4.257-6.125,7.363-10.765,8.745l-10.58,3.152
			c-1.719,0.512-3.47,0.761-5.2,0.761c-5.359,0-10.529-2.385-14.035-6.699c-3.041-3.742-4.392-8.413-3.985-13.01L52.22,212.25
			c-7.287-3.941-9.998-13.043-6.057-20.33c3.941-7.287,13.044-9.998,20.33-6.057l59.097,31.967
			c3.623-2.857,8.271-4.283,13.069-3.784c7.315,0.757,13.398,5.801,15.498,12.849l3.152,10.581
			C158.691,242.115,158.184,247.013,155.882,251.269z M465.837,424.764c-2.714,5.018-7.876,7.866-13.207,7.866
			c-2.411,0-4.854-0.582-7.124-1.81l-59.087-31.962c-3.146,2.481-7.069,3.877-11.188,3.877c-0.626,0-1.257-0.032-1.891-0.098
			c-7.315-0.757-13.398-5.801-15.498-12.849l-3.152-10.58c-1.38-4.637-0.874-9.535,1.428-13.792
			c2.303-4.259,6.128-7.365,10.769-8.746l10.576-3.151c7.044-2.101,14.596,0.229,19.234,5.938c3.041,3.743,4.393,8.414,3.985,13.01
			l59.098,31.967C467.067,408.375,469.778,417.477,465.837,424.764z"/>
	</g>
</g>
<g>
</g>
<g>
</g>
<g>
</g>
<g>
</g>
<g>
</g>
<g>
</g>
<g>
</g>
<g>
</g>
<g>
</g>
<g>
</g>
<g>
</g>
<g>
</g>
<g>
</g>
<g>
</g>
<g>
</g>
</svg>
