<?xml version="1.0" encoding="iso-8859-1"?>
<!-- Generator: Adobe Illustrator 19.0.0, SVG Export Plug-In . SVG Version: 6.00 Build 0)  -->
<svg version="1.1" id="Capa_1" xmlns="http://www.w3.org/2000/svg" xmlns:xlink="http://www.w3.org/1999/xlink" x="0px" y="0px"
	 viewBox="0 0 512 512" style="enable-background:new 0 0 512 512;" xml:space="preserve">
<g>
	<g>
		<path d="M497,47H15C6.716,47,0,53.716,0,62v69.022h512V62C512,53.716,505.284,47,497,47z M70.329,109.249H60.247
			c-8.284,0-15-6.716-15-15s6.716-15,15-15h10.082c8.284,0,15,6.716,15,15S78.613,109.249,70.329,109.249z M122.968,109.249h-10.082
			c-8.284,0-15-6.716-15-15s6.716-15,15-15h10.082c8.284,0,15,6.716,15,15S131.252,109.249,122.968,109.249z M175.607,109.249
			h-10.083c-8.284,0-15-6.716-15-15s6.716-15,15-15h10.083c8.284,0,15,6.716,15,15S183.891,109.249,175.607,109.249z"/>
	</g>
</g>
<g>
	<g>
		<path d="M0,161.023V450c0,8.284,6.716,15,15,15h482c8.284,0,15-6.716,15-15V161.023H0z M447.683,434.699l-10.585,3.154
			c-1.719,0.512-3.47,0.761-5.199,0.761c-5.36,0-10.53-2.386-14.036-6.7c-3.041-3.743-4.392-8.413-3.984-13.009L256,333.506
			l-157.879,85.4c0.408,4.596-0.943,9.267-3.984,13.009c-3.505,4.314-8.676,6.7-14.036,6.7c-1.73,0-3.479-0.249-5.199-0.761
			l-10.582-3.152c-9.576-2.856-15.043-12.966-12.191-22.538l3.152-10.581c2.1-7.048,8.184-12.092,15.499-12.849
			c4.798-0.495,9.445,0.929,13.067,3.785l140.624-76.067L83.859,240.391c-3.146,2.481-7.069,3.877-11.188,3.877
			c-0.625,0-1.256-0.032-1.888-0.098c-7.315-0.757-13.399-5.8-15.5-12.848v-0.001L52.13,220.74
			c-2.852-9.574,2.617-19.685,12.191-22.537l10.582-3.152c7.049-2.1,14.599,0.232,19.236,5.94c3.04,3.742,4.391,8.412,3.983,13.008
			L256,299.398l157.878-85.4c-0.408-4.596,0.943-9.266,3.983-13.008c4.637-5.708,12.189-8.038,19.235-5.941l10.582,3.153
			c9.575,2.853,15.043,12.963,12.191,22.537l-3.152,10.581v0.001c-2.101,7.048-8.185,12.091-15.5,12.848
			c-0.632,0.065-1.263,0.098-1.888,0.098c-4.119,0-8.042-1.396-11.188-3.877l-140.614,76.061l140.624,76.066
			c3.622-2.855,8.269-4.28,13.068-3.784c7.315,0.757,13.398,5.801,15.499,12.849l3.152,10.581
			C462.722,421.735,457.255,431.845,447.683,434.699z"/>
	</g>
</g>
<g>
	<g>
		<path d="M68.508,215.033c0.005,0.023,0.014,0.046,0.019,0.069c0.008-0.015,0.014-0.031,0.022-0.046s0.019-0.029,0.027-0.044
			C68.554,215.02,68.53,215.025,68.508,215.033z"/>
	</g>
</g>
<g>
	<g>
		<path d="M443.424,215.012c0.008,0.015,0.018,0.029,0.027,0.044c0.008,0.015,0.014,0.031,0.022,0.046
			c0.005-0.023,0.014-0.046,0.019-0.069C443.47,215.025,443.446,215.02,443.424,215.012z"/>
	</g>
</g>
<g>
</g>
<g>
</g>
<g>
</g>
<g>
</g>
<g>
</g>
<g>
</g>
<g>
</g>
<g>
</g>
<g>
</g>
<g>
</g>
<g>
</g>
<g>
</g>
<g>
</g>
<g>
</g>
<g>
</g>
</svg>
