<?xml version="1.0" encoding="iso-8859-1"?>
<!-- Generator: Adobe Illustrator 19.0.0, SVG Export Plug-In . SVG Version: 6.00 Build 0)  -->
<svg version="1.1" id="Capa_1" xmlns="http://www.w3.org/2000/svg" xmlns:xlink="http://www.w3.org/1999/xlink" x="0px" y="0px"
	 viewBox="0 0 512 512" style="enable-background:new 0 0 512 512;" xml:space="preserve">
<g>
	<g>
		<path d="M0,161.023V435c0,16.569,13.432,30,30,30h452c16.568,0,30-13.431,30-30V161.023H0z M365.383,331.406l-4.779,14.707
			c-1.186,3.657-3.462,6.792-6.58,9.058l-13.796,10.023l-5.27,16.216c-1.187,3.659-3.464,6.796-6.584,9.062l-12.501,9.082
			c-3.108,2.262-6.794,3.46-10.649,3.46h-17.051l-13.795,10.022c-3.118,2.265-6.8,3.46-10.649,3.46h-15.455
			c-3.85,0-7.531-1.196-10.646-3.458l-13.798-10.024h-17.051c-3.855,0-7.541-1.199-10.657-3.466l-12.495-9.078
			c-3.118-2.264-5.396-5.4-6.585-9.068l-5.267-16.208l-13.795-10.023c-3.119-2.266-5.396-5.401-6.584-9.068l-4.773-14.688
			c-1.189-3.668-1.189-7.535-0.002-11.193L151.892,304l-5.271-16.214c-1.188-3.666-1.188-7.532-0.003-11.189l4.779-14.708
			c1.187-3.655,3.46-6.788,6.573-9.053l13.803-10.028l5.27-16.217c1.188-3.661,3.465-6.796,6.584-9.061l12.501-9.082
			c3.114-2.263,6.798-3.46,10.649-3.46h17.051l13.794-10.023c3.125-2.266,6.804-3.46,10.65-3.46h15.455
			c3.847,0,7.525,1.194,10.64,3.453c0.004,0.002,0.007,0.005,0.011,0.007l13.794,10.023h17.051c3.852,0,7.535,1.197,10.65,3.46
			l12.502,9.083c3.117,2.263,5.395,5.398,6.584,9.064l5.268,16.211l13.795,10.022c3.121,2.271,5.395,5.404,6.583,9.065l4.774,14.692
			c1.188,3.667,1.188,7.532,0.003,11.189L360.111,304l5.269,16.217C366.569,323.88,366.569,327.747,365.383,331.406z"/>
	</g>
</g>
<g>
	<g>
		<path d="M482,47H30C13.432,47,0,60.432,0,77v54.022h512V77C512,60.431,498.568,47,482,47z M58.772,105.99h-10.71
			c-8.284,0-15-6.716-15-15s6.716-15,15-15h10.71c8.284,0,15,6.716,15,15S67.057,105.99,58.772,105.99z M114.688,105.99h-10.709
			c-8.284,0-15-6.716-15-15s6.716-15,15-15h10.709c8.284,0,15,6.716,15,15S122.972,105.99,114.688,105.99z M170.603,105.99h-10.709
			c-8.284,0-15-6.716-15-15s6.716-15,15-15h10.709c8.284,0,15,6.716,15,15S178.887,105.99,170.603,105.99z"/>
	</g>
</g>
<g>
	<g>
		<path d="M256,244.815c-32.637,0-59.188,26.552-59.188,59.188s26.552,59.188,59.188,59.188s59.188-26.552,59.188-59.188
			S288.637,244.815,256,244.815z"/>
	</g>
</g>
<g>
</g>
<g>
</g>
<g>
</g>
<g>
</g>
<g>
</g>
<g>
</g>
<g>
</g>
<g>
</g>
<g>
</g>
<g>
</g>
<g>
</g>
<g>
</g>
<g>
</g>
<g>
</g>
<g>
</g>
</svg>
