<?xml version="1.0" encoding="iso-8859-1"?>
<!-- Generator: Adobe Illustrator 19.0.0, SVG Export Plug-In . SVG Version: 6.00 Build 0)  -->
<svg version="1.1" id="Capa_1" xmlns="http://www.w3.org/2000/svg" xmlns:xlink="http://www.w3.org/1999/xlink" x="0px" y="0px"
	 viewBox="0 0 512 512" style="enable-background:new 0 0 512 512;" xml:space="preserve">
<g>
	<g>
		<path d="M293.672,217.468h-73.955v-28.692c0-12.355,10.052-22.407,22.407-22.407c8.9,0,16.962,5.27,20.538,13.425
			c3.326,7.587,12.176,11.042,19.76,7.715c7.588-3.326,11.042-12.173,7.715-19.761c-8.356-19.062-27.203-31.379-48.013-31.379
			c-28.897,0-52.407,23.51-52.407,52.407v28.735c-9.59,0.453-17.26,8.374-17.26,18.075v96.699c0,9.991,8.128,18.119,18.118,18.119
			h103.097c9.99,0,18.118-8.128,18.118-18.119v-96.699C311.79,225.596,303.662,217.468,293.672,217.468z"/>
	</g>
</g>
<g>
	<g>
		<path d="M504.703,245.45c-5.459-5.46-12.822-7.855-19.954-7.187c-4.172-58.145-28.813-112.241-70.445-153.874
			c-45.838-45.839-106.783-71.083-171.61-71.083c-64.826,0-125.771,25.244-171.61,71.083S0,191.174,0,256
			s25.245,125.771,71.084,171.61c45.839,45.839,106.784,71.084,171.61,71.084c80.747,0,155.973-39.994,201.231-106.984
			c7.703-11.401,4.704-26.888-6.697-34.59c-11.4-7.703-26.886-4.704-34.59,6.697c-35.979,53.256-95.771,85.051-159.944,85.051
			c-106.348,0-192.868-86.52-192.868-192.868s86.52-192.868,192.868-192.868c100.337,0,183.01,77.02,192.037,175.041
			c-6.662-0.23-13.398,2.191-18.483,7.276c-9.729,9.729-9.729,25.503,0,35.232l26.611,26.611c4.865,4.865,11.24,7.297,17.616,7.297
			c6.375,0,12.751-2.433,17.617-7.296l26.612-26.611C514.432,270.953,514.432,255.179,504.703,245.45z"/>
	</g>
</g>
<g>
</g>
<g>
</g>
<g>
</g>
<g>
</g>
<g>
</g>
<g>
</g>
<g>
</g>
<g>
</g>
<g>
</g>
<g>
</g>
<g>
</g>
<g>
</g>
<g>
</g>
<g>
</g>
<g>
</g>
</svg>
