<?xml version="1.0" encoding="iso-8859-1"?>
<!-- Generator: Adobe Illustrator 19.0.0, SVG Export Plug-In . SVG Version: 6.00 Build 0)  -->
<svg version="1.1" id="Capa_1" xmlns="http://www.w3.org/2000/svg" xmlns:xlink="http://www.w3.org/1999/xlink" x="0px" y="0px"
	 viewBox="0 0 512 512" style="enable-background:new 0 0 512 512;" xml:space="preserve">
<g>
	<g>
		<path d="M386.671,126.851c-9.968,0-18.077-8.109-18.077-18.077V0H57.814c-16.53,0-29.93,13.4-29.93,29.93v452.14
			c0,16.53,13.4,29.93,29.93,29.93h396.372c16.53,0,29.93-13.4,29.93-29.93V126.851H386.671z M244.876,195.714h47.456
			c8.284,0,15,6.716,15,15s-6.716,15-15,15h-47.456c-6.144,0-11.143,4.999-11.143,11.143c0,6.144,4.999,11.143,11.143,11.143h21.313
			c22.687,0,41.143,18.457,41.143,41.143c0,22.686-18.456,41.143-41.143,41.143h-47.456c-8.284,0-15-6.716-15-15s6.716-15,15-15
			h47.456c6.145,0,11.143-4.999,11.143-11.143c0-6.144-4.998-11.143-11.143-11.143h-21.313c-22.687,0-41.143-18.457-41.143-41.143
			C203.733,214.171,222.189,195.714,244.876,195.714z M154.608,195.715h21.314c8.284,0,15,6.716,15,15s-6.716,15-15,15h-21.314
			c-20.56,0-37.285,16.726-37.285,37.285s16.726,37.285,37.285,37.285h21.314c8.284,0,15,6.716,15,15s-6.716,15-15,15h-21.314
			c-37.102,0-67.285-30.184-67.285-67.285S117.507,195.715,154.608,195.715z M405.608,459.313H102.961
			c-8.265,0-14.965-6.7-14.965-14.965s6.7-14.965,14.965-14.965h302.647c8.265,0,14.965,6.7,14.965,14.965
			C420.573,452.613,413.873,459.313,405.608,459.313z M405.608,402.044H102.961c-8.265,0-14.965-6.7-14.965-14.965
			s6.7-14.965,14.965-14.965h302.647c8.265,0,14.965,6.7,14.965,14.965C420.573,395.344,413.873,402.044,405.608,402.044z
			 M358.22,248h21.313c22.687,0,41.143,18.457,41.143,41.143c0,22.686-18.456,41.143-41.143,41.143h-47.456c-8.284,0-15-6.716-15-15
			s6.716-15,15-15h47.456c6.145,0,11.143-4.999,11.143-11.143c0-6.144-4.998-11.143-11.143-11.143H358.22
			c-22.687,0-41.143-18.457-41.143-41.143c0-22.686,18.456-41.143,41.143-41.143h47.456c8.284,0,15,6.716,15,15s-6.716,15-15,15
			H358.22c-6.144,0-11.143,4.999-11.143,11.143C347.077,243.001,352.076,248,358.22,248z"/>
	</g>
</g>
<g>
	<g>
		<polygon points="398.524,3.151 398.524,96.921 481.505,96.921 		"/>
	</g>
</g>
<g>
</g>
<g>
</g>
<g>
</g>
<g>
</g>
<g>
</g>
<g>
</g>
<g>
</g>
<g>
</g>
<g>
</g>
<g>
</g>
<g>
</g>
<g>
</g>
<g>
</g>
<g>
</g>
<g>
</g>
</svg>
