<?xml version="1.0" encoding="iso-8859-1"?>
<!-- Generator: Adobe Illustrator 19.0.0, SVG Export Plug-In . SVG Version: 6.00 Build 0)  -->
<svg version="1.1" id="Capa_1" xmlns="http://www.w3.org/2000/svg" xmlns:xlink="http://www.w3.org/1999/xlink" x="0px" y="0px"
	 viewBox="0 0 512 512" style="enable-background:new 0 0 512 512;" xml:space="preserve">
<g>
	<g>
		<path d="M332.274,337.919V277.48H0v30.443c0,16.566,13.43,29.996,29.996,29.996H191.24v65.764h-25.28
			c-8.283,0-14.998,6.715-14.998,14.998c0,8.283,6.715,14.998,14.998,14.998h137.193c8.283,0,14.998-6.715,14.998-14.998
			c0-8.283-6.715-14.998-14.998-14.998h-25.28v-65.764H332.274z"/>
	</g>
</g>
<g>
	<g>
		<path d="M439.116,23.958H29.996C13.43,23.958,0,37.387,0,53.953v193.531h332.273V205.19c0-24.81,20.184-44.994,44.994-44.994
			h91.845V53.953C469.112,37.388,455.682,23.958,439.116,23.958z M284.399,151.128L182.23,194.214
			c-2.055,0.867-4.329-0.642-4.329-2.873V105.17c0-2.231,2.274-3.74,4.329-2.873l102.169,43.086
			C286.941,146.455,286.941,150.057,284.399,151.128z"/>
	</g>
</g>
<g>
	<g>
		<path d="M362.269,459.242v13.802c0,8.27,6.728,14.998,14.998,14.998h119.735c8.27,0,14.998-6.728,14.998-14.998v-13.802H362.269z"
			/>
	</g>
</g>
<g>
	<g>
		<path d="M362.269,248.987v180.26H512v-180.26H362.269z M469.864,341.883l-48.454,25.214c-2.076,1.08-4.557-0.426-4.557-2.766
			v-50.429c0-2.34,2.482-3.846,4.557-2.766l48.454,25.214C472.102,337.516,472.102,340.717,469.864,341.883z"/>
	</g>
</g>
<g>
	<g>
		<path d="M497.002,190.192H377.267c-8.27,0-14.998,6.728-14.998,14.998v13.801H512V205.19
			C512,196.92,505.272,190.192,497.002,190.192z"/>
	</g>
</g>
<g>
</g>
<g>
</g>
<g>
</g>
<g>
</g>
<g>
</g>
<g>
</g>
<g>
</g>
<g>
</g>
<g>
</g>
<g>
</g>
<g>
</g>
<g>
</g>
<g>
</g>
<g>
</g>
<g>
</g>
</svg>
