<?xml version="1.0" encoding="iso-8859-1"?>
<!-- Generator: Adobe Illustrator 19.0.0, SVG Export Plug-In . SVG Version: 6.00 Build 0)  -->
<svg version="1.1" id="Capa_1" xmlns="http://www.w3.org/2000/svg" xmlns:xlink="http://www.w3.org/1999/xlink" x="0px" y="0px"
	 viewBox="0 0 512 512" style="enable-background:new 0 0 512 512;" xml:space="preserve">
<g>
	<g>
		<path d="M49.229,438.428V482c0,16.569,13.432,30,30,30h353.542c16.568,0,30-13.431,30-30v-43.572H49.229z M265.649,487.57h-19.297
			c-8.284,0-15-6.716-15-15s6.715-15,15-15h19.297c8.284,0,15,6.716,15,15S273.933,487.57,265.649,487.57z"/>
	</g>
</g>
<g>
	<g>
		<path d="M432.771,0H79.229c-16.568,0-30,13.431-30,30v28.571h413.542V30C462.771,13.431,449.339,0,432.771,0z"/>
	</g>
</g>
<g>
	<g>
		<path d="M49.229,88.571v319.856h413.542V88.571H49.229z M394.882,378.475H117.118c-8.284,0-15-6.716-15-15s6.716-15,15-15h277.764
			c8.284,0,15,6.716,15,15S403.166,378.475,394.882,378.475z M394.882,326.823H117.118c-8.284,0-15-6.716-15-15s6.716-15,15-15
			h277.764c8.284,0,15,6.716,15,15S403.166,326.823,394.882,326.823z M394.882,275.171H117.118c-8.284,0-15-6.716-15-15
			s6.716-15,15-15h277.764c8.284,0,15,6.716,15,15S403.166,275.171,394.882,275.171z M409.882,196.998c0,11.027-8.972,20-20,20
			H122.118c-11.028,0-20-8.972-20-20v-55.795c0-11.028,8.972-20,20-20h267.764c11.028,0,20,8.972,20,20V196.998z"/>
	</g>
</g>
<g>
</g>
<g>
</g>
<g>
</g>
<g>
</g>
<g>
</g>
<g>
</g>
<g>
</g>
<g>
</g>
<g>
</g>
<g>
</g>
<g>
</g>
<g>
</g>
<g>
</g>
<g>
</g>
<g>
</g>
</svg>
