<?xml version="1.0" encoding="iso-8859-1"?>
<!-- Generator: Adobe Illustrator 19.0.0, SVG Export Plug-In . SVG Version: 6.00 Build 0)  -->
<svg version="1.1" id="Capa_1" xmlns="http://www.w3.org/2000/svg" xmlns:xlink="http://www.w3.org/1999/xlink" x="0px" y="0px"
	 viewBox="0 0 512 512" style="enable-background:new 0 0 512 512;" xml:space="preserve">
<g>
	<g>
		<path d="M49.229,428.427V482c0,16.569,13.431,30,30,30h353.542c16.569,0,30-13.431,30-30v-53.573H49.229z M265.649,487.57h-19.297
			c-8.284,0-15-6.716-15-15s6.715-15,15-15h19.297c8.284,0,15,6.716,15,15S273.933,487.57,265.649,487.57z"/>
	</g>
</g>
<g>
	<g>
		<path d="M49.229,93.572v304.855h413.542V93.572H49.229z M235.494,356.197H104.391c-8.284,0-15-6.716-15-15s6.716-15,15-15h131.103
			c8.284,0,15,6.716,15,15S243.778,356.197,235.494,356.197z M235.494,293.282H104.391c-8.284,0-15-6.716-15-15s6.716-15,15-15
			h131.103c8.284,0,15,6.716,15,15S243.778,293.282,235.494,293.282z M235.494,230.367H104.391c-8.284,0-15-6.716-15-15
			s6.716-15,15-15h131.103c8.284,0,15,6.716,15,15S243.778,230.367,235.494,230.367z M235.494,165.802H104.391
			c-8.284,0-15-6.716-15-15s6.716-15,15-15h131.103c8.284,0,15,6.716,15,15S243.778,165.802,235.494,165.802z M422.609,347.868
			c0,11.028-8.972,20-20,20h-95.208c-11.028,0-20-8.972-20-20V144.131c0-11.028,8.972-20,20-20h95.208c11.028,0,20,8.972,20,20
			V347.868z"/>
	</g>
</g>
<g>
	<g>
		<path d="M432.771,0H79.229c-16.569,0-30,13.431-30,30v33.572h413.542V30C462.771,13.431,449.34,0,432.771,0z"/>
	</g>
</g>
<g>
</g>
<g>
</g>
<g>
</g>
<g>
</g>
<g>
</g>
<g>
</g>
<g>
</g>
<g>
</g>
<g>
</g>
<g>
</g>
<g>
</g>
<g>
</g>
<g>
</g>
<g>
</g>
<g>
</g>
</svg>
