<?xml version="1.0" encoding="iso-8859-1"?>
<!-- Generator: Adobe Illustrator 19.0.0, SVG Export Plug-In . SVG Version: 6.00 Build 0)  -->
<svg version="1.1" id="Capa_1" xmlns="http://www.w3.org/2000/svg" xmlns:xlink="http://www.w3.org/1999/xlink" x="0px" y="0px"
	 viewBox="0 0 512 512" style="enable-background:new 0 0 512 512;" xml:space="preserve">
<g>
	<g>
		<path d="M478.325,302.62l-22.33-186.519C470.752,108.708,481,93.598,481,76c0-24.814-20.186-45-45-45
			c-18.887,0-35.03,11.724-41.693,28.255L203.764,32.038C193.671,13.079,173.939,0,151,0c-33.091,0-60,26.909-60,60
			c0,16.348,6.606,31.154,17.241,41.984c-3.233,3.363-63.34,134.98-65.279,139.223C19.111,242.298,0,261.883,0,286
			c0,24.814,20.186,45,45,45c7.582,0,14.623-2.064,20.898-5.389l88.473,124.433C152.229,455.285,151,460.996,151,467
			c0,24.814,20.186,45,45,45c23.89,0,43.299-18.763,44.727-42.301l203.011-85.373C450.002,388.144,457.766,391,467,391
			c24.814,0,45-20.186,45-45C512,325.12,497.641,307.678,478.325,302.62z M71.867,250.12c1.892-4.138,59.656-128.879,61.086-133.198
			C138.684,118.746,144.67,120,151,120c31.974,0,57.938-25.192,59.67-56.741l182.591,26.124c0.639,2.027,1.342,4.003,2.249,5.896
			L301.289,189.5c-8.923-5.268-19.195-8.5-30.289-8.5c-33.091,0-60,26.909-60,60c0,1.071,0.262,2.071,0.317,3.129L86.439,268.464
			C83.313,261.103,78.181,254.861,71.867,250.12z M232.335,440.684C224.149,429.416,210.963,422,196,422
			c-7.592,0-14.641,2.069-20.922,5.402l-88.46-124.415c0.557-1.36,0.895-2.818,1.318-4.239l132.451-25.825
			C231.028,289.735,249.668,301,271,301c19.105,0,35.951-9.137,46.945-23.086l104.883,76.284c0.363,1.963,0.978,3.818,1.588,5.682
			L232.335,440.684z M429.24,321.698l-99.115-72.047C330.54,246.803,331,243.963,331,241c0-11.094-3.232-21.367-8.5-30.289
			l94.221-94.221c3.021,1.447,6.176,2.631,9.521,3.376l22.185,185.257C440.55,308.72,433.9,314.484,429.24,321.698z"/>
	</g>
</g>
<g>
</g>
<g>
</g>
<g>
</g>
<g>
</g>
<g>
</g>
<g>
</g>
<g>
</g>
<g>
</g>
<g>
</g>
<g>
</g>
<g>
</g>
<g>
</g>
<g>
</g>
<g>
</g>
<g>
</g>
</svg>
