<?xml version="1.0" encoding="iso-8859-1"?>
<!-- Generator: Adobe Illustrator 19.0.0, SVG Export Plug-In . SVG Version: 6.00 Build 0)  -->
<svg version="1.1" id="Capa_1" xmlns="http://www.w3.org/2000/svg" xmlns:xlink="http://www.w3.org/1999/xlink" x="0px" y="0px"
	 viewBox="0 0 512 512" style="enable-background:new 0 0 512 512;" xml:space="preserve">
<g>
	<g>
		<path d="M497,452H60V15c0-8.291-6.709-15-15-15S30,6.709,30,15v47H15C6.709,62,0,68.709,0,77s6.709,15,15,15h15v30H15
			c-8.291,0-15,6.709-15,15s6.709,15,15,15h15v30H15c-8.291,0-15,6.709-15,15s6.709,15,15,15h15v30H15c-8.291,0-15,6.709-15,15
			s6.709,15,15,15h15v30H15c-8.291,0-15,6.709-15,15c0,8.291,6.709,15,15,15h15v30H15c-8.291,0-15,6.709-15,15
			c0,8.291,6.709,15,15,15h15v30H15c-8.291,0-15,6.709-15,15c0,8.291,6.709,15,15,15h15v15c0,8.291,6.709,15,15,15h15v15
			c0,8.291,6.709,15,15,15s15-6.709,15-15v-15h30v15c0,8.291,6.709,15,15,15s15-6.709,15-15v-15h30v15c0,8.291,6.709,15,15,15
			s15-6.709,15-15v-15h30v15c0,8.291,6.709,15,15,15s15-6.709,15-15v-15h30v15c0,8.291,6.709,15,15,15c8.291,0,15-6.709,15-15v-15
			h30v15c0,8.291,6.709,15,15,15c8.291,0,15-6.709,15-15v-15h30v15c0,8.291,6.709,15,15,15c8.291,0,15-6.709,15-15v-15h47
			c8.291,0,15-6.709,15-15C512,458.709,505.291,452,497,452z"/>
	</g>
</g>
<g>
	<g>
		<path d="M285,212c-24.814,0-45,20.186-45,45c0,24.814,20.186,45,45,45c24.814,0,45-20.186,45-45C330,232.186,309.814,212,285,212z
			"/>
	</g>
</g>
<g>
	<g>
		<path d="M405,212c-24.814,0-45,20.186-45,45c0,24.814,20.186,45,45,45c24.814,0,45-20.186,45-45C450,232.186,429.814,212,405,212z
			"/>
	</g>
</g>
<g>
	<g>
		<path d="M165,212c-24.814,0-45,20.186-45,45c0,24.814,20.186,45,45,45c24.814,0,45-20.186,45-45C210,232.186,189.814,212,165,212z
			"/>
	</g>
</g>
<g>
	<g>
		<path d="M435,92c-24.814,0-45,20.186-45,45c0,24.814,20.186,45,45,45c24.814,0,45-20.186,45-45C480,112.186,459.814,92,435,92z"/>
	</g>
</g>
<g>
	<g>
		<path d="M315,92c-24.814,0-45,20.186-45,45c0,24.814,20.186,45,45,45c24.814,0,45-20.186,45-45C360,112.186,339.814,92,315,92z"/>
	</g>
</g>
<g>
	<g>
		<path d="M255,332c-24.814,0-45,20.186-45,45c0,24.814,20.186,45,45,45c24.814,0,45-20.186,45-45C300,352.186,279.814,332,255,332z
			"/>
	</g>
</g>
<g>
	<g>
		<path d="M135,332c-24.814,0-45,20.186-45,45c0,24.814,20.186,45,45,45c24.814,0,45-20.186,45-45C180,352.186,159.814,332,135,332z
			"/>
	</g>
</g>
<g>
</g>
<g>
</g>
<g>
</g>
<g>
</g>
<g>
</g>
<g>
</g>
<g>
</g>
<g>
</g>
<g>
</g>
<g>
</g>
<g>
</g>
<g>
</g>
<g>
</g>
<g>
</g>
<g>
</g>
</svg>
