<?xml version="1.0" encoding="iso-8859-1"?>
<!-- Generator: Adobe Illustrator 19.0.0, SVG Export Plug-In . SVG Version: 6.00 Build 0)  -->
<svg version="1.1" id="Capa_1" xmlns="http://www.w3.org/2000/svg" xmlns:xlink="http://www.w3.org/1999/xlink" x="0px" y="0px"
	 viewBox="0 0 512 512" style="enable-background:new 0 0 512 512;" xml:space="preserve">
<g>
	<g>
		<path d="M486.395,96.395L405,175.789l-79.395-79.395c-5.859-5.859-15.352-5.859-21.211,0L165,235.789l-49.395-49.395
			c-5.859-5.859-15.352-5.859-21.211,0L60,220.789c0,44.724,0,74.817,0,120l34.395-34.395c5.859-5.859,15.352-5.859,21.211,0
			L165,355.789l49.395-49.395c5.859-5.859,15.352-5.859,21.211,0L315,385.789l197-195V107C512,93.73,495.856,86.933,486.395,96.395z
			"/>
	</g>
</g>
<g>
	<g>
		<path d="M325.605,417.605C322.676,420.535,318.838,422,315,422s-7.676-1.465-10.605-4.395L225,338.211l-49.395,49.395
			c-5.859,5.859-15.352,5.859-21.211,0L105,338.211l-45,45V452h452V233.211L325.605,417.605z"/>
	</g>
</g>
<g>
	<g>
		<path d="M497,482H30V15c0-8.401-6.599-15-15-15S0,6.599,0,15v482c0,8.399,6.599,15,15,15h482c8.401,0,15-6.601,15-15
			C512,488.599,505.401,482,497,482z"/>
	</g>
</g>
<g>
</g>
<g>
</g>
<g>
</g>
<g>
</g>
<g>
</g>
<g>
</g>
<g>
</g>
<g>
</g>
<g>
</g>
<g>
</g>
<g>
</g>
<g>
</g>
<g>
</g>
<g>
</g>
<g>
</g>
</svg>
