<?xml version="1.0" encoding="iso-8859-1"?>
<!-- Generator: Adobe Illustrator 19.0.0, SVG Export Plug-In . SVG Version: 6.00 Build 0)  -->
<svg version="1.1" id="Capa_1" xmlns="http://www.w3.org/2000/svg" xmlns:xlink="http://www.w3.org/1999/xlink" x="0px" y="0px"
	 viewBox="0 0 512 512" style="enable-background:new 0 0 512 512;" xml:space="preserve">
<g>
	<g>
		<path d="M362,195H210c-32.999,0-60,26.999-60,60c0,32.999,27.001,60,60,60h152c32.999,0,60-27.001,60-60
			C422,221.999,394.999,195,362,195z"/>
	</g>
</g>
<g>
	<g>
		<path d="M452,195h-23.408C442.984,210.959,452,231.866,452,255c0,23.134-9.016,44.041-23.408,60H452c32.999,0,60-27.001,60-60
			C512,221.999,484.999,195,452,195z"/>
	</g>
</g>
<g>
	<g>
		<path d="M60,390c-33.091,0-60,27.909-60,61s26.909,61,60,61s60-27.909,60-61S93.091,390,60,390z"/>
	</g>
</g>
<g>
	<g>
		<path d="M60,195c-33.091,0-60,26.909-60,60s26.909,60,60,60s60-26.909,60-60S93.091,195,60,195z"/>
	</g>
</g>
<g>
	<g>
		<path d="M60,0C26.909,0,0,26.909,0,60s26.909,60,60,60s60-26.909,60-60S93.091,0,60,0z"/>
	</g>
</g>
<g>
	<g>
		<path d="M332,390H210c-32.999,0-60,27.999-60,61c0,32.999,27.001,61,60,61h122c32.999,0,60-28.001,60-61
			C392,417.999,364.999,390,332,390z"/>
	</g>
</g>
<g>
	<g>
		<path d="M452,390h-53.408C412.984,405.959,422,427.866,422,451c0,23.134-9.016,45.041-23.408,61H452c32.999,0,60-28.001,60-61
			C512,417.999,484.999,390,452,390z"/>
	</g>
</g>
<g>
	<g>
		<path d="M302,0h-92c-32.999,0-60,26.999-60,60c0,32.999,27.001,60,60,60h92c32.999,0,60-27.001,60-60C362,26.999,334.999,0,302,0z
			"/>
	</g>
</g>
<g>
	<g>
		<path d="M452,0h-83.408C382.984,15.959,392,36.866,392,60s-9.016,44.041-23.408,60H452c32.999,0,60-27.001,60-60
			C512,26.999,484.999,0,452,0z"/>
	</g>
</g>
<g>
</g>
<g>
</g>
<g>
</g>
<g>
</g>
<g>
</g>
<g>
</g>
<g>
</g>
<g>
</g>
<g>
</g>
<g>
</g>
<g>
</g>
<g>
</g>
<g>
</g>
<g>
</g>
<g>
</g>
</svg>
