<?xml version="1.0" encoding="iso-8859-1"?>
<!-- Generator: Adobe Illustrator 19.0.0, SVG Export Plug-In . SVG Version: 6.00 Build 0)  -->
<svg version="1.1" id="Capa_1" xmlns="http://www.w3.org/2000/svg" xmlns:xlink="http://www.w3.org/1999/xlink" x="0px" y="0px"
	 viewBox="0 0 512 512" style="enable-background:new 0 0 512 512;" xml:space="preserve">
<g>
	<g>
		<path d="M170.667,341.333c0-1.204,0.158-2.371,0.181-3.57C121.7,312.614,85.056,266.53,72.812,211.265
			C29.275,238.407,0,286.354,0,341.333c0,84.7,68.9,153.6,153.6,153.6c26.786,0,51.613-7.5,73.558-19.602
			C192.352,441.236,170.667,393.792,170.667,341.333z"/>
	</g>
</g>
<g>
	<g>
		<path d="M256,227.684c-25.127,22.66-42.694,53.193-48.602,87.956c15.365,5.17,31.518,8.627,48.602,8.627
			s33.238-3.457,48.602-8.627C298.694,280.878,281.128,250.344,256,227.684z"/>
	</g>
</g>
<g>
	<g>
		<path d="M256,358.4c-17.4,0-34.181-2.565-50.183-7.017c2.719,41.102,21.363,77.608,50.183,103.6
			c28.821-25.991,47.465-62.498,50.183-103.6C290.181,355.835,273.4,358.4,256,358.4z"/>
	</g>
</g>
<g>
	<g>
		<path d="M358.4,187.733c-26.786,0-51.613,7.5-73.558,19.602c25.55,25.027,43.94,57.267,51.946,93.4
			c36.57-22.798,62.722-60.293,70.215-104.375C391.638,191.19,375.485,187.733,358.4,187.733z"/>
	</g>
</g>
<g>
	<g>
		<path d="M153.6,187.733c-17.085,0-33.238,3.457-48.602,8.627c7.491,44.081,33.644,81.578,70.215,104.375
			c8.007-36.134,26.395-68.372,51.946-93.4C205.213,195.234,180.386,187.733,153.6,187.733z"/>
	</g>
</g>
<g>
	<g>
		<path d="M439.188,211.265c-12.244,55.264-48.888,101.348-98.035,126.498c0.023,1.2,0.181,2.367,0.181,3.57
			c0,52.458-21.685,99.903-56.492,133.998c21.945,12.101,46.773,19.602,73.558,19.602c84.7,0,153.6-68.9,153.6-153.6
			C512,286.354,482.725,238.407,439.188,211.265z"/>
	</g>
</g>
<g>
	<g>
		<path d="M256,17.067c-81.258,0-147.296,63.606-152.583,143.55c16.002-4.452,32.783-7.017,50.183-7.017
			c37.778,0,72.919,11.314,102.4,30.591c29.481-19.277,64.622-30.591,102.4-30.591c17.4,0,34.181,2.565,50.183,7.017
			C403.296,80.673,337.258,17.067,256,17.067z"/>
	</g>
</g>
<g>
</g>
<g>
</g>
<g>
</g>
<g>
</g>
<g>
</g>
<g>
</g>
<g>
</g>
<g>
</g>
<g>
</g>
<g>
</g>
<g>
</g>
<g>
</g>
<g>
</g>
<g>
</g>
<g>
</g>
</svg>
