<?xml version="1.0" encoding="iso-8859-1"?>
<!-- Generator: Adobe Illustrator 19.0.0, SVG Export Plug-In . SVG Version: 6.00 Build 0)  -->
<svg version="1.1" id="Capa_1" xmlns="http://www.w3.org/2000/svg" xmlns:xlink="http://www.w3.org/1999/xlink" x="0px" y="0px"
	 viewBox="0 0 512 512" style="enable-background:new 0 0 512 512;" xml:space="preserve">
<g>
	<g>
		<path d="M467,0H271v102.396c0,12.918-15.282,19.777-24.961,11.221C240.517,108.71,233.397,106,226,106c-16.538,0-30,13.462-30,30
			c0,16.538,13.462,30,30,30c7.397,0,14.517-2.71,20.039-7.617c9.811-8.61,24.961-1.609,24.961,11.221V241h47.139
			c-1.262-4.883-2.139-9.875-2.139-15c0-33.091,26.909-60,60-60s60,26.909,60,60c0,5.125-0.875,10.117-2.137,15H512V45
			C512,20.147,491.853,0,467,0z"/>
	</g>
</g>
<g>
	<g>
		<g>
			<path d="M113.408,266.201c-0.135,0.157-0.187,0.223-0.175,0.213c0.026-0.03,0.051-0.06,0.077-0.09
				C113.339,266.287,113.365,266.256,113.408,266.201z"/>
			<path d="M226,76c5.098,0,10.137,0.645,15,1.89V0H45C20.147,0,0,20.147,0,45v196h102.396c7.486,0,14.675,5.989,14.914,14.57
				c0.142,5.054-3.076,9.578-3.902,10.631c0.059-0.069,0.117-0.137,0.209-0.24c-0.105,0.119-0.204,0.242-0.307,0.362
				c-0.045,0.055-0.07,0.085-0.077,0.09C108.573,271.87,106,278.801,106,286c0,16.538,13.462,30,30,30s30-13.462,30-30
				c0-7.397-2.71-14.517-7.617-20.039c-8.895-10.01-0.762-24.961,11.221-24.961H241v-46.89c-4.863,1.245-9.902,1.89-15,1.89
				c-33.091,0-60-26.909-60-60S192.909,76,226,76z"/>
		</g>
	</g>
</g>
<g>
	<g>
		<path d="M286,346c-7.397,0-14.517,2.71-20.039,7.617C256.26,362.221,241,355.258,241,342.396V271h-47.137
			c1.262,4.883,2.137,9.875,2.137,15c0,33.091-26.909,60-60,60s-60-26.909-60-60c0-5.125,0.877-10.117,2.139-15H0v196
			c0,24.853,20.147,45,45,45h196V409.604c0-12.914,15.3-19.792,24.961-11.221C271.483,403.29,278.603,406,286,406
			c16.538,0,30-13.462,30-30C316,359.462,302.538,346,286,346z"/>
	</g>
</g>
<g>
	<g>
		<path d="M409.604,271c-12.974,0-19.51-15.613-11.221-24.961C403.29,240.517,406,233.397,406,226c0-16.538-13.462-30-30-30
			c-16.538,0-30,13.462-30,30c0,7.397,2.71,14.517,7.617,20.039c8.624,9.725,1.285,24.961-11.221,24.961H271v46.89
			c4.863-1.245,9.902-1.89,15-1.89c33.091,0,60,26.909,60,60s-26.909,60-60,60c-5.098,0-10.137-0.645-15-1.89V512h196
			c24.853,0,45-20.147,45-45V271H409.604z"/>
	</g>
</g>
<g>
</g>
<g>
</g>
<g>
</g>
<g>
</g>
<g>
</g>
<g>
</g>
<g>
</g>
<g>
</g>
<g>
</g>
<g>
</g>
<g>
</g>
<g>
</g>
<g>
</g>
<g>
</g>
<g>
</g>
</svg>
