<?xml version="1.0" encoding="iso-8859-1"?>
<!-- Generator: Adobe Illustrator 19.0.0, SVG Export Plug-In . SVG Version: 6.00 Build 0)  -->
<svg version="1.1" id="Capa_1" xmlns="http://www.w3.org/2000/svg" xmlns:xlink="http://www.w3.org/1999/xlink" x="0px" y="0px"
	 viewBox="0 0 512 512" style="enable-background:new 0 0 512 512;" xml:space="preserve">
<g>
	<g>
		<path d="M497,452H60V15c0-8.291-6.709-15-15-15S30,6.709,30,15v15H15C6.709,30,0,36.709,0,45s6.709,15,15,15h15v30H15
			c-8.291,0-15,6.709-15,15s6.709,15,15,15h15v30H15c-8.291,0-15,6.709-15,15s6.709,15,15,15h15v31H15c-8.291,0-15,6.709-15,15
			s6.709,15,15,15h15v30H15c-8.291,0-15,6.709-15,15c0,8.291,6.709,15,15,15h15v30H15c-8.291,0-15,6.709-15,15
			c0,8.291,6.709,15,15,15h15v30H15c-8.291,0-15,6.709-15,15c0,8.291,6.709,15,15,15h15v46c0,8.291,6.709,15,15,15h15v15
			c0,8.291,6.709,15,15,15s15-6.709,15-15v-15h30v15c0,8.291,6.709,15,15,15s15-6.709,15-15v-15h30v15c0,8.291,6.709,15,15,15
			s15-6.709,15-15v-15h30v15c0,8.291,6.709,15,15,15s15-6.709,15-15v-15h30v15c0,8.291,6.709,15,15,15c8.291,0,15-6.709,15-15v-15
			h30v15c0,8.291,6.709,15,15,15c8.291,0,15-6.709,15-15v-15h30v15c0,8.291,6.709,15,15,15c8.291,0,15-6.709,15-15v-15h47
			c8.291,0,15-6.709,15-15C512,458.709,505.291,452,497,452z"/>
	</g>
</g>
<g>
	<g>
		<path d="M135,301h-30c-8.284,0-15,6.714-15,15v105h60V316C150,307.714,143.284,301,135,301z"/>
	</g>
</g>
<g>
	<g>
		<path d="M225,120h-30c-8.291,0-15,6.709-15,15v286h60V135C240,126.709,233.291,120,225,120z"/>
	</g>
</g>
<g>
	<g>
		<path d="M345,271h-30c-8.284,0-15,6.714-15,15v135h60V286C360,277.714,353.284,271,345,271z"/>
	</g>
</g>
<g>
	<g>
		<path d="M435,30h-30c-8.291,0-15,6.709-15,15v376h60V45C450,36.709,443.291,30,435,30z"/>
	</g>
</g>
<g>
</g>
<g>
</g>
<g>
</g>
<g>
</g>
<g>
</g>
<g>
</g>
<g>
</g>
<g>
</g>
<g>
</g>
<g>
</g>
<g>
</g>
<g>
</g>
<g>
</g>
<g>
</g>
<g>
</g>
</svg>
