<?xml version="1.0" encoding="iso-8859-1"?>
<!-- Generator: Adobe Illustrator 19.0.0, SVG Export Plug-In . SVG Version: 6.00 Build 0)  -->
<svg version="1.1" id="Capa_1" xmlns="http://www.w3.org/2000/svg" xmlns:xlink="http://www.w3.org/1999/xlink" x="0px" y="0px"
	 viewBox="0 0 512 512" style="enable-background:new 0 0 512 512;" xml:space="preserve">
<g>
	<g>
		<path d="M497,468.19H15c-8.291,0-15,6.709-15,15c0,8.291,6.709,15,15,15h482c8.291,0,15-6.709,15-15
			C512,474.899,505.291,468.19,497,468.19z"/>
	</g>
</g>
<g>
	<g>
		<path d="M417.455,203.522c-2.9-12.891-20.229-28.242-41.455-28.242c-6.394,0-12.361,1.703-17.963,4.158l54.474,258.752h58.585
			L417.455,203.522z"/>
	</g>
</g>
<g>
	<g>
		<path d="M300.033,49.538C295.536,28.166,277.841,13.81,256,13.81s-39.536,14.355-44.033,35.728l-35.336,167.838
			c13.502,8.725,21.227,18.896,27.66,31.761l55.41,189.053h122.153L300.033,49.538z"/>
	</g>
</g>
<g>
	<g>
		<path d="M176.254,260.153c-7.676-15.352-23.101-24.873-40.254-24.873s-32.578,9.521-41.235,27.378L43.512,438.19h184.929
			L176.254,260.153z"/>
	</g>
</g>
<g>
</g>
<g>
</g>
<g>
</g>
<g>
</g>
<g>
</g>
<g>
</g>
<g>
</g>
<g>
</g>
<g>
</g>
<g>
</g>
<g>
</g>
<g>
</g>
<g>
</g>
<g>
</g>
<g>
</g>
</svg>
