<?xml version="1.0" encoding="iso-8859-1"?>
<!-- Generator: Adobe Illustrator 19.0.0, SVG Export Plug-In . SVG Version: 6.00 Build 0)  -->
<svg version="1.1" id="Capa_1" xmlns="http://www.w3.org/2000/svg" xmlns:xlink="http://www.w3.org/1999/xlink" x="0px" y="0px"
	 viewBox="0 0 512 512" style="enable-background:new 0 0 512 512;" xml:space="preserve">
<g>
	<g>
		<path d="M497,452H60V15c0-8.291-6.709-15-15-15S30,6.709,30,15v47H15C6.709,62,0,68.709,0,77s6.709,15,15,15h15v30H15
			c-8.291,0-15,6.709-15,15s6.709,15,15,15h15v30H15c-8.291,0-15,6.709-15,15s6.709,15,15,15h15v30H15c-8.291,0-15,6.709-15,15
			s6.709,15,15,15h15v30H15c-8.291,0-15,6.709-15,15c0,8.291,6.709,15,15,15h15v30H15c-8.291,0-15,6.709-15,15
			c0,8.291,6.709,15,15,15h15v30H15c-8.291,0-15,6.709-15,15c0,8.291,6.709,15,15,15h15v15c0,8.291,6.709,15,15,15h15v15
			c0,8.291,6.709,15,15,15s15-6.709,15-15v-15h30v15c0,8.291,6.709,15,15,15s15-6.709,15-15v-15h30v15c0,8.291,6.709,15,15,15
			s15-6.709,15-15v-15h30v15c0,8.291,6.709,15,15,15s15-6.709,15-15v-15h30v15c0,8.291,6.709,15,15,15c8.291,0,15-6.709,15-15v-15
			h30v15c0,8.291,6.709,15,15,15c8.291,0,15-6.709,15-15v-15h30v15c0,8.291,6.709,15,15,15c8.291,0,15-6.709,15-15v-15h47
			c8.291,0,15-6.709,15-15C512,458.709,505.291,452,497,452z"/>
	</g>
</g>
<g>
	<g>
		<polygon points="180,199.32 180,422 240,422 240,253.32 		"/>
	</g>
</g>
<g>
	<g>
		<polygon points="90,118.321 90,422 150,422 150,172.321 		"/>
	</g>
</g>
<g>
	<g>
		<path d="M497,242c-8.291,0-15,6.709-15,15v28.781l-127.626-100.5c-5.976-4.761-14.56-4.307-19.98,1.113L270,250.789V422h90
			V228.208L452.23,302H435c-8.291,0-15,6.709-15,15c0,8.291,6.709,15,15,15h62c8.185,0,15-7.447,15-15v-60
			C512,248.709,505.291,242,497,242z"/>
	</g>
</g>
<g>
</g>
<g>
</g>
<g>
</g>
<g>
</g>
<g>
</g>
<g>
</g>
<g>
</g>
<g>
</g>
<g>
</g>
<g>
</g>
<g>
</g>
<g>
</g>
<g>
</g>
<g>
</g>
<g>
</g>
</svg>
