<?xml version="1.0" encoding="iso-8859-1"?>
<!-- Generator: Adobe Illustrator 19.0.0, SVG Export Plug-In . SVG Version: 6.00 Build 0)  -->
<svg version="1.1" id="Capa_1" xmlns="http://www.w3.org/2000/svg" xmlns:xlink="http://www.w3.org/1999/xlink" x="0px" y="0px"
	 viewBox="0 0 512 512" style="enable-background:new 0 0 512 512;" xml:space="preserve">
<g>
	<g>
		<path d="M377.001,182h-362c-8.291,0-15,6.709-15,15v90c0,8.291,6.709,15,15,15h362c8.291,0,15-6.709,15-15v-90
			C392.001,188.709,385.292,182,377.001,182z"/>
	</g>
</g>
<g>
	<g>
		<path d="M509.482,308.679L485.033,272l24.448-36.68c3.062-4.599,3.355-10.517,0.748-15.395c-2.607-4.878-7.69-7.925-13.228-7.925
			h-75v75c0,24.814-20.186,45-45,45h120c5.537,0,10.62-3.047,13.228-7.925C512.836,319.197,512.543,313.279,509.482,308.679z"/>
	</g>
</g>
<g>
	<g>
		<path d="M377.001,0h-362c-8.291,0-15,6.709-15,15v92c0,8.291,6.709,15,15,15h362c8.291,0,15-6.709,15-15V15
			C392.001,6.709,385.292,0,377.001,0z"/>
	</g>
</g>
<g>
	<g>
		<path d="M509.482,128.679L485.033,91l24.448-37.68c3.062-4.599,3.355-10.517,0.748-15.395c-2.607-4.878-7.69-7.925-13.228-7.925
			h-75v77c0,24.814-20.186,45-45,45h120c5.537,0,10.62-3.047,13.228-7.925C512.836,139.197,512.543,133.279,509.482,128.679z"/>
	</g>
</g>
<g>
	<g>
		<path d="M377.001,362h-362c-8.291,0-15,6.709-15,15v90c0,8.291,6.709,15,15,15h362c8.291,0,15-6.709,15-15v-90
			C392.001,368.709,385.292,362,377.001,362z"/>
	</g>
</g>
<g>
	<g>
		<path d="M509.482,488.679L485.033,452l24.448-36.68c3.062-4.599,3.355-10.517,0.748-15.395c-2.607-4.878-7.69-7.925-13.228-7.925
			h-75v75c0,24.814-20.186,45-45,45h120c5.537,0,10.62-3.047,13.228-7.925C512.836,499.197,512.543,493.279,509.482,488.679z"/>
	</g>
</g>
<g>
</g>
<g>
</g>
<g>
</g>
<g>
</g>
<g>
</g>
<g>
</g>
<g>
</g>
<g>
</g>
<g>
</g>
<g>
</g>
<g>
</g>
<g>
</g>
<g>
</g>
<g>
</g>
<g>
</g>
</svg>
