<?xml version="1.0" encoding="iso-8859-1"?>
<!-- Generator: Adobe Illustrator 19.0.0, SVG Export Plug-In . SVG Version: 6.00 Build 0)  -->
<svg version="1.1" id="Capa_1" xmlns="http://www.w3.org/2000/svg" xmlns:xlink="http://www.w3.org/1999/xlink" x="0px" y="0px"
	 viewBox="0 0 512 512" style="enable-background:new 0 0 512 512;" xml:space="preserve">
<g>
	<g>
		<path d="M497,482H15c-8.291,0-15,6.709-15,15c0,8.291,6.709,15,15,15h482c8.291,0,15-6.709,15-15C512,488.709,505.291,482,497,482
			z"/>
	</g>
</g>
<g>
	<g>
		<path d="M136,241H45c-8.291,0-15,6.709-15,15v75h121v-75C151,247.709,144.291,241,136,241z"/>
	</g>
</g>
<g>
	<g>
		<rect x="30" y="361" width="121" height="91"/>
	</g>
</g>
<g>
	<g>
		<path d="M301,121h-90c-8.291,0-15,6.709-15,15v195h120V136C316,127.709,309.291,121,301,121z"/>
	</g>
</g>
<g>
	<g>
		<rect x="196" y="361" width="120" height="91"/>
	</g>
</g>
<g>
	<g>
		<path d="M467,0h-91c-8.291,0-15,6.709-15,15v136h121V15C482,6.709,475.291,0,467,0z"/>
	</g>
</g>
<g>
	<g>
		<rect x="361" y="181" width="121" height="271"/>
	</g>
</g>
<g>
</g>
<g>
</g>
<g>
</g>
<g>
</g>
<g>
</g>
<g>
</g>
<g>
</g>
<g>
</g>
<g>
</g>
<g>
</g>
<g>
</g>
<g>
</g>
<g>
</g>
<g>
</g>
<g>
</g>
</svg>
