<?xml version="1.0" encoding="iso-8859-1"?>
<!-- Generator: Adobe Illustrator 19.0.0, SVG Export Plug-In . SVG Version: 6.00 Build 0)  -->
<svg version="1.1" id="Capa_1" xmlns="http://www.w3.org/2000/svg" xmlns:xlink="http://www.w3.org/1999/xlink" x="0px" y="0px"
	 viewBox="0 0 512 512" style="enable-background:new 0 0 512 512;" xml:space="preserve">
<g>
	<g>
		<path d="M256,211c-24.814,0-45,20.186-45,45c0,24.814,20.186,45,45,45c24.814,0,45-20.186,45-45C301,231.186,280.814,211,256,211z
			"/>
	</g>
</g>
<g>
	<g>
		<path d="M476.84,128.5c-20.669-35.786-66.606-48.105-102.451-27.451l-23.339,13.475l-45.487,85.626
			c11.909,10.58,20.62,24.666,23.919,40.851h102.501l17.406-10.049C485.204,210.268,497.509,164.315,476.84,128.5z"/>
	</g>
</g>
<g>
	<g>
		<path d="M160.95,114.523l-23.339-13.475C101.796,80.38,55.814,92.685,35.16,128.5c-20.669,35.815-8.364,81.768,27.451,102.451
			L80.017,241h102.501c3.3-16.185,12.01-30.271,23.919-40.851L160.95,114.523z"/>
	</g>
</g>
<g>
	<g>
		<path d="M256,0c-41.353,0-75,34.647-75,76v12.347l51.431,96.815C239.887,182.672,247.718,181,256,181
			c8.282,0,16.113,1.672,23.569,4.162L331,88.347V76C331,34.647,297.353,0,256,0z"/>
	</g>
</g>
<g>
	<g>
		<path d="M449.389,281.049L431.983,271H329.482c-3.3,16.185-12.01,30.271-23.919,40.851l45.487,85.626l23.339,13.474
			c35.771,20.64,81.768,8.32,102.451-27.451C497.509,347.685,485.204,301.732,449.389,281.049z"/>
	</g>
</g>
<g>
	<g>
		<path d="M182.518,270.999H80.017l-17.406,10.049C26.796,301.732,14.491,347.685,35.16,383.5
			c20.669,35.83,66.636,48.164,102.451,27.451l23.339-13.475l45.487-85.626C194.528,301.27,185.817,287.184,182.518,270.999z"/>
	</g>
</g>
<g>
	<g>
		<path d="M279.569,326.838C272.113,329.328,264.282,331,256,331c-8.282,0-16.113-1.672-23.569-4.162L181,423.653V436
			c0,41.353,33.647,76,75,76c41.353,0,75-34.647,75-76v-12.347L279.569,326.838z"/>
	</g>
</g>
<g>
</g>
<g>
</g>
<g>
</g>
<g>
</g>
<g>
</g>
<g>
</g>
<g>
</g>
<g>
</g>
<g>
</g>
<g>
</g>
<g>
</g>
<g>
</g>
<g>
</g>
<g>
</g>
<g>
</g>
</svg>
