<?xml version="1.0" encoding="iso-8859-1"?>
<!-- Generator: Adobe Illustrator 19.0.0, SVG Export Plug-In . SVG Version: 6.00 Build 0)  -->
<svg version="1.1" id="Capa_1" xmlns="http://www.w3.org/2000/svg" xmlns:xlink="http://www.w3.org/1999/xlink" x="0px" y="0px"
	 viewBox="0 0 512 512" style="enable-background:new 0 0 512 512;" xml:space="preserve">
<g>
	<g>
		<path d="M466,392c24.814,0,46-20.186,46-45c0-24.814-21.186-45-46-45c-6.927,0-14.412,1.703-20.279,4.51l-30.231-30.231
			c2.807-5.867,4.51-12.352,4.51-19.279c0-24.814-20.186-45-45-45c-24.814,0-45,20.186-45,45c0,6.927,1.703,13.412,4.51,19.279
			l-60.231,60.231C268.412,333.703,261.927,332,255,332c-9.212,0-17.77,2.802-24.91,7.57l-52.335-39.24
			c1.328-4.239,2.245-8.659,2.245-13.33c0-24.814-20.186-45-45-45c-24.814,0-45,20.186-45,45c0,6.927,1.703,13.412,4.51,19.279
			L60,340.789V198.34l54.576-51.471C120.734,150.039,127.61,152,135,152c9.212,0,17.77-2.802,24.91-7.57l52.335,39.24
			C210.917,187.909,210,192.329,210,197c0,24.814,20.186,45,45,45c24.814,0,45-20.186,45-45c0-9.212-2.802-17.77-7.57-24.91
			l39.24-52.335c4.239,1.328,8.659,2.245,13.33,2.245c9.212,0,17.77-2.802,24.91-7.57l52.335,39.24
			C420.917,157.909,420,162.329,420,167c0,24.814,21.186,45,46,45c24.814,0,46-20.186,46-45c0-24.814-21.186-45-46-45
			c-9.212,0-18.77,2.802-25.91,7.57l-52.335-39.24C389.083,86.091,390,81.671,390,77c0-24.814-20.186-45-45-45
			c-24.814,0-45,20.186-45,45c0,9.212,2.802,17.77,7.57,24.91l-39.24,52.335C264.091,152.917,259.671,152,255,152
			c-9.212,0-17.77,2.802-24.91,7.57l-52.335-39.24c1.328-4.239,2.245-8.659,2.245-13.33c0-24.814-20.186-45-45-45
			c-24.814,0-45,20.186-45,45c0,6.467,1.428,12.587,3.895,18.149L60,157.109V15c0-8.291-6.709-15-15-15S30,6.709,30,15v47H15
			C6.709,62,0,68.709,0,77s6.709,15,15,15h15v30H15c-8.291,0-15,6.709-15,15s6.709,15,15,15h15v30H15c-8.291,0-15,6.709-15,15
			s6.709,15,15,15h15v30H15c-8.291,0-15,6.709-15,15s6.709,15,15,15h15v30H15c-8.291,0-15,6.709-15,15c0,8.291,6.709,15,15,15h15v30
			H15c-8.291,0-15,6.709-15,15c0,8.291,6.709,15,15,15h15v30H15c-8.291,0-15,6.709-15,15c0,8.291,6.709,15,15,15h15v15
			c0,8.291,6.709,15,15,15h15v15c0,8.291,6.709,15,15,15s15-6.709,15-15v-15h30v15c0,8.291,6.709,15,15,15s15-6.709,15-15v-15h30v15
			c0,8.291,6.709,15,15,15s15-6.709,15-15v-15h30v15c0,8.291,6.709,15,15,15s15-6.709,15-15v-15h30v15c0,8.291,6.709,15,15,15
			c8.291,0,15-6.709,15-15v-15h30v15c0,8.291,6.709,15,15,15c8.291,0,15-6.709,15-15v-15h30v15c0,8.291,6.709,15,15,15
			c8.291,0,15-6.709,15-15v-15h47c8.291,0,15-6.709,15-15c0-8.291-6.709-15-15-15H60v-68.789l55.721-55.721
			c5.867,2.807,12.352,4.51,19.279,4.51c9.212,0,17.77-2.802,24.91-7.57l52.335,39.24C210.917,367.909,210,372.329,210,377
			c0,24.814,20.186,45,45,45c24.814,0,45-20.186,45-45c0-6.927-1.703-13.412-4.51-19.279l60.231-60.231
			c5.867,2.807,12.352,4.51,19.279,4.51s13.412-1.703,19.279-4.51l30.231,30.231C421.703,333.588,420,340.073,420,347
			C420,371.814,441.186,392,466,392z"/>
	</g>
</g>
<g>
</g>
<g>
</g>
<g>
</g>
<g>
</g>
<g>
</g>
<g>
</g>
<g>
</g>
<g>
</g>
<g>
</g>
<g>
</g>
<g>
</g>
<g>
</g>
<g>
</g>
<g>
</g>
<g>
</g>
</svg>
