<?xml version="1.0" encoding="iso-8859-1"?>
<!-- Generator: Adobe Illustrator 19.0.0, SVG Export Plug-In . SVG Version: 6.00 Build 0)  -->
<svg version="1.1" id="Capa_1" xmlns="http://www.w3.org/2000/svg" xmlns:xlink="http://www.w3.org/1999/xlink" x="0px" y="0px"
	 viewBox="0 0 512 512" style="enable-background:new 0 0 512 512;" xml:space="preserve">
<g>
	<g>
		<path d="M497,452H300v-32.763c17.422-6.213,30-22.707,30-42.237V257c0-19.53-12.578-36.024-30-42.237V167c0-8.291-6.709-15-15-15
			c-8.291,0-15,6.709-15,15v47.763c-17.422,6.213-30,22.707-30,42.237v120c0,19.53,12.578,36.024,30,42.237V452H60V15
			c0-8.291-6.709-15-15-15S30,6.709,30,15v47H15C6.709,62,0,68.709,0,77s6.709,15,15,15h15v30H15c-8.291,0-15,6.709-15,15
			s6.709,15,15,15h15v30H15c-8.291,0-15,6.709-15,15s6.709,15,15,15h15v30H15c-8.291,0-15,6.709-15,15s6.709,15,15,15h15v30H15
			c-8.291,0-15,6.709-15,15c0,8.291,6.709,15,15,15h15v30H15c-8.291,0-15,6.709-15,15c0,8.291,6.709,15,15,15h15v30H15
			c-8.291,0-15,6.709-15,15c0,8.291,6.709,15,15,15h15v15c0,8.291,6.709,15,15,15h15v15c0,8.291,6.709,15,15,15s15-6.709,15-15v-15
			h30v15c0,8.291,6.709,15,15,15s15-6.709,15-15v-15h30v15c0,8.291,6.709,15,15,15s15-6.709,15-15v-15h30v15c0,8.291,6.709,15,15,15
			s15-6.709,15-15v-15h30v15c0,8.291,6.709,15,15,15c8.291,0,15-6.709,15-15v-15h30v15c0,8.291,6.709,15,15,15
			c8.291,0,15-6.709,15-15v-15h30v15c0,8.291,6.709,15,15,15c8.291,0,15-6.709,15-15v-15h47c8.291,0,15-6.709,15-15
			C512,458.709,505.291,452,497,452z"/>
	</g>
</g>
<g>
	<g>
		<path d="M150,124.763V47c0-8.291-6.709-15-15-15s-15,6.709-15,15v77.763C102.578,130.976,90,147.47,90,167v120
			c0,19.53,12.578,36.024,30,42.237V407c0,8.291,6.709,15,15,15s15-6.709,15-15v-77.763c17.422-6.213,30-22.707,30-42.237V167
			C180,147.47,167.422,130.976,150,124.763z"/>
	</g>
</g>
<g>
	<g>
		<path d="M450,124.763V47c0-8.291-6.709-15-15-15s-15,6.709-15,15v77.763c-17.422,6.213-30,22.707-30,42.237v120
			c0,19.53,12.578,36.024,30,42.237V407c0,8.291,6.709,15,15,15c8.291,0,15-6.709,15-15v-77.763c17.422-6.213,30-22.707,30-42.237
			V167C480,147.47,467.422,130.976,450,124.763z"/>
	</g>
</g>
<g>
</g>
<g>
</g>
<g>
</g>
<g>
</g>
<g>
</g>
<g>
</g>
<g>
</g>
<g>
</g>
<g>
</g>
<g>
</g>
<g>
</g>
<g>
</g>
<g>
</g>
<g>
</g>
<g>
</g>
</svg>
