<?xml version="1.0" encoding="iso-8859-1"?>
<!-- Generator: Adobe Illustrator 19.0.0, SVG Export Plug-In . SVG Version: 6.00 Build 0)  -->
<svg version="1.1" id="Capa_1" xmlns="http://www.w3.org/2000/svg" xmlns:xlink="http://www.w3.org/1999/xlink" x="0px" y="0px"
	 viewBox="0 0 512 512" style="enable-background:new 0 0 512 512;" xml:space="preserve">
<g>
	<g>
		<path d="M269.023,38.284c-5.332-9.346-20.713-9.346-26.045,0L127.297,240.725h257.406L269.023,38.284z"/>
	</g>
</g>
<g>
	<g>
		<polygon points="140.367,270.725 245.57,451.626 364.953,270.725 		"/>
	</g>
</g>
<g>
	<g>
		<path d="M510.023,458.283L401.845,270.725h-1.062L262.356,480.487l0.137,0.238H497c5.347,0,10.283-2.842,12.979-7.471
			C512.66,468.625,512.674,462.927,510.023,458.283z"/>
	</g>
</g>
<g>
	<g>
		<path d="M107.935,274.607L1.978,458.284c-2.651,4.644-2.637,10.342,0.044,14.971c2.695,4.629,7.631,7.47,12.978,7.47h211.368
			l0.764-1.157L107.935,274.607z"/>
	</g>
</g>
<g>
</g>
<g>
</g>
<g>
</g>
<g>
</g>
<g>
</g>
<g>
</g>
<g>
</g>
<g>
</g>
<g>
</g>
<g>
</g>
<g>
</g>
<g>
</g>
<g>
</g>
<g>
</g>
<g>
</g>
</svg>
