<?xml version="1.0" encoding="iso-8859-1"?>
<!-- Generator: Adobe Illustrator 19.0.0, SVG Export Plug-In . SVG Version: 6.00 Build 0)  -->
<svg version="1.1" id="Capa_1" xmlns="http://www.w3.org/2000/svg" xmlns:xlink="http://www.w3.org/1999/xlink" x="0px" y="0px"
	 viewBox="0 0 512 512" style="enable-background:new 0 0 512 512;" xml:space="preserve">
<g>
	<g>
		<path d="M497,452H60V15c0-8.291-6.709-15-15-15S30,6.709,30,15v47H15C6.709,62,0,68.709,0,77s6.709,15,15,15h15v30H15
			c-8.291,0-15,6.709-15,15s6.709,15,15,15h15v30H15c-8.291,0-15,6.709-15,15s6.709,15,15,15h15v30H15c-8.291,0-15,6.709-15,15
			s6.709,15,15,15h15v30H15c-8.291,0-15,6.709-15,15c0,8.291,6.709,15,15,15h15v30H15c-8.291,0-15,6.709-15,15
			c0,8.291,6.709,15,15,15h15v30H15c-8.291,0-15,6.709-15,15c0,8.291,6.709,15,15,15h15v15c0,8.291,6.709,15,15,15h15v15
			c0,8.291,6.709,15,15,15s15-6.709,15-15v-15h30v15c0,8.291,6.709,15,15,15s15-6.709,15-15v-15h30v15c0,8.291,6.709,15,15,15
			s15-6.709,15-15v-15h30v15c0,8.291,6.709,15,15,15s15-6.709,15-15v-15h30v15c0,8.291,6.709,15,15,15c8.291,0,15-6.709,15-15v-15
			h30v15c0,8.291,6.709,15,15,15c8.291,0,15-6.709,15-15v-15h30v15c0,8.291,6.709,15,15,15c8.291,0,15-6.709,15-15v-15h47
			c8.291,0,15-6.709,15-15C512,458.709,505.291,452,497,452z"/>
	</g>
</g>
<g>
	<g>
		<path d="M497,62h-62c-8.291,0-15,6.709-15,15s6.709,15,15,15h27.398L330,246.451V422h90V187.535l62-70.001V137
			c0,8.291,6.709,15,15,15c8.291,0,15-6.709,15-15V77C512,68.877,504.526,62,497,62z"/>
	</g>
</g>
<g>
	<g>
		<polygon points="210,189.507 210,422 300,422 300,256.998 		"/>
	</g>
</g>
<g>
	<g>
		<polygon points="90,261.781 90,422 180,422 180,189.782 		"/>
	</g>
</g>
<g>
</g>
<g>
</g>
<g>
</g>
<g>
</g>
<g>
</g>
<g>
</g>
<g>
</g>
<g>
</g>
<g>
</g>
<g>
</g>
<g>
</g>
<g>
</g>
<g>
</g>
<g>
</g>
<g>
</g>
</svg>
