<?xml version="1.0" encoding="iso-8859-1"?>
<!-- Generator: Adobe Illustrator 19.0.0, SVG Export Plug-In . SVG Version: 6.00 Build 0)  -->
<svg version="1.1" id="Layer_1" xmlns="http://www.w3.org/2000/svg" xmlns:xlink="http://www.w3.org/1999/xlink" x="0px" y="0px"
	 viewBox="0 0 330 330" style="enable-background:new 0 0 330 330;" xml:space="preserve">
<g id="XMLID_7_">
	<path id="XMLID_8_" d="M290,0H90C54.158,0,25,29.159,25,65v200c0,35.841,29.158,65,65,65h200c8.284,0,15-6.716,15-15V15
		C305,6.716,298.284,0,290,0z M188.418,225.289c-8.127,7.571-14.51,11.809-15.211,12.267c-2.493,1.63-5.351,2.444-8.207,2.444
		c-2.857,0-5.714-0.814-8.207-2.444c-2.124-1.389-52.014-34.604-52.014-87.327C104.779,117.019,131.795,90,165,90
		s60.221,27.019,60.221,60.229C225.221,183.93,205.207,209.648,188.418,225.289z"/>
	<circle id="XMLID_11_" cx="165" cy="150.073" r="15.072"/>
</g>
<g>
</g>
<g>
</g>
<g>
</g>
<g>
</g>
<g>
</g>
<g>
</g>
<g>
</g>
<g>
</g>
<g>
</g>
<g>
</g>
<g>
</g>
<g>
</g>
<g>
</g>
<g>
</g>
<g>
</g>
</svg>
