<?xml version="1.0" encoding="iso-8859-1"?>
<!-- Generator: Adobe Illustrator 19.0.0, SVG Export Plug-In . SVG Version: 6.00 Build 0)  -->
<svg version="1.1" id="Layer_1" xmlns="http://www.w3.org/2000/svg" xmlns:xlink="http://www.w3.org/1999/xlink" x="0px" y="0px"
	 viewBox="0 0 330 330" style="enable-background:new 0 0 330 330;" xml:space="preserve">
<g id="XMLID_498_">
	<path id="XMLID_500_" d="M191.894,266.893L180,278.786v-53.787c0-8.284-6.716-15-15-15c-8.284,0-15,6.716-15,15v53.787
		l-11.894-11.893c-5.857-5.858-15.355-5.858-21.213,0c-5.858,5.858-5.858,15.355,0,21.213l37.497,37.497
		c0.351,0.35,0.72,0.682,1.104,0.997c0.17,0.141,0.352,0.263,0.527,0.395c0.215,0.162,0.426,0.328,0.65,0.479
		c0.213,0.143,0.435,0.267,0.653,0.397c0.201,0.12,0.397,0.247,0.604,0.358c0.225,0.12,0.454,0.221,0.683,0.329
		c0.215,0.102,0.427,0.209,0.648,0.301c0.223,0.092,0.449,0.166,0.676,0.247c0.236,0.085,0.469,0.175,0.709,0.248
		c0.227,0.068,0.455,0.118,0.684,0.176c0.246,0.063,0.49,0.131,0.741,0.181c0.263,0.052,0.526,0.082,0.791,0.121
		c0.22,0.031,0.436,0.073,0.659,0.095c0.492,0.048,0.986,0.075,1.481,0.075c0.494,0,0.988-0.026,1.48-0.075
		c0.223-0.022,0.439-0.064,0.659-0.095c0.265-0.038,0.528-0.069,0.791-0.121c0.251-0.05,0.495-0.119,0.741-0.181
		c0.229-0.058,0.457-0.107,0.684-0.176c0.24-0.073,0.473-0.163,0.709-0.248c0.227-0.081,0.453-0.155,0.676-0.247
		c0.221-0.092,0.433-0.199,0.648-0.301c0.229-0.107,0.458-0.209,0.683-0.329c0.207-0.111,0.403-0.237,0.604-0.358
		c0.219-0.13,0.44-0.254,0.653-0.397c0.225-0.15,0.436-0.317,0.65-0.479c0.176-0.132,0.357-0.254,0.527-0.395
		c0.384-0.314,0.753-0.647,1.104-0.997l37.497-37.497c5.858-5.858,5.858-15.355,0-21.213
		C207.249,261.034,197.751,261.034,191.894,266.893z"/>
	<path id="XMLID_501_" d="M213.106,41.893L175.609,4.395c-0.351-0.35-0.72-0.682-1.104-0.997c-0.172-0.142-0.353-0.264-0.529-0.396
		c-0.214-0.161-0.424-0.327-0.648-0.477c-0.216-0.144-0.438-0.269-0.659-0.401c-0.199-0.119-0.395-0.244-0.599-0.354
		c-0.227-0.121-0.46-0.224-0.69-0.332c-0.213-0.1-0.422-0.207-0.639-0.296c-0.227-0.094-0.457-0.17-0.688-0.252
		c-0.231-0.083-0.461-0.172-0.697-0.245c-0.232-0.07-0.467-0.121-0.701-0.18c-0.24-0.06-0.479-0.128-0.723-0.177
		c-0.273-0.054-0.549-0.087-0.823-0.125c-0.21-0.03-0.415-0.07-0.628-0.09c-0.986-0.098-1.979-0.098-2.965,0
		c-0.213,0.021-0.418,0.061-0.628,0.09c-0.274,0.038-0.55,0.071-0.823,0.125c-0.244,0.049-0.482,0.116-0.723,0.177
		c-0.234,0.059-0.469,0.11-0.701,0.18c-0.236,0.072-0.466,0.161-0.697,0.245c-0.23,0.082-0.461,0.158-0.688,0.252
		c-0.217,0.09-0.426,0.196-0.639,0.296c-0.23,0.109-0.464,0.211-0.69,0.332c-0.204,0.11-0.399,0.235-0.599,0.354
		c-0.221,0.132-0.443,0.257-0.659,0.401c-0.224,0.149-0.434,0.316-0.648,0.477c-0.177,0.132-0.357,0.254-0.529,0.396
		c-0.384,0.314-0.753,0.646-1.104,0.997l-37.497,37.498c-5.858,5.858-5.858,15.355,0,21.213c5.857,5.858,15.355,5.858,21.213,0
		L150,51.212v53.787c0,8.284,6.716,15,15,15c8.284,0,15-6.716,15-15V51.212l11.894,11.894c2.929,2.929,6.767,4.394,10.606,4.394
		c3.839,0,7.678-1.464,10.606-4.394C218.965,57.248,218.965,47.75,213.106,41.893z"/>
	<path id="XMLID_502_" d="M3.398,155.493c-0.137,0.167-0.256,0.344-0.385,0.515c-0.165,0.219-0.335,0.435-0.488,0.664
		c-0.14,0.209-0.261,0.426-0.389,0.641c-0.123,0.205-0.252,0.406-0.365,0.618c-0.117,0.219-0.217,0.445-0.322,0.669
		c-0.104,0.22-0.214,0.436-0.307,0.661c-0.091,0.218-0.163,0.441-0.242,0.661c-0.087,0.241-0.18,0.478-0.254,0.724
		c-0.066,0.221-0.115,0.446-0.172,0.67c-0.064,0.251-0.134,0.499-0.184,0.754c-0.051,0.256-0.081,0.515-0.119,0.774
		c-0.032,0.226-0.074,0.448-0.098,0.677c-0.047,0.477-0.07,0.955-0.072,1.434c0,0.015-0.002,0.029-0.002,0.044
		c0,0.015,0.002,0.029,0.002,0.045c0.002,0.479,0.025,0.958,0.072,1.434c0.024,0.229,0.065,0.451,0.098,0.677
		c0.038,0.259,0.068,0.518,0.119,0.774c0.05,0.255,0.12,0.503,0.184,0.754c0.057,0.224,0.106,0.449,0.172,0.67
		c0.074,0.246,0.167,0.483,0.254,0.724c0.079,0.221,0.151,0.443,0.242,0.661c0.093,0.225,0.202,0.441,0.307,0.661
		c0.105,0.224,0.205,0.45,0.322,0.669c0.113,0.212,0.242,0.413,0.365,0.618c0.128,0.214,0.249,0.432,0.389,0.641
		c0.153,0.229,0.323,0.444,0.488,0.663c0.129,0.171,0.248,0.348,0.385,0.515c0.314,0.384,0.646,0.753,0.998,1.103l37.497,37.498
		c2.929,2.929,6.768,4.393,10.606,4.393c3.839,0,7.678-1.464,10.606-4.393c5.858-5.858,5.858-15.355,0-21.213l-11.893-11.894H105
		c8.284,0,15-6.716,15-15c0-8.284-6.716-15-15-15H51.213l11.893-11.893c5.858-5.858,5.858-15.355,0-21.213
		c-5.857-5.858-15.355-5.858-21.213,0L4.396,154.39C4.045,154.74,3.713,155.109,3.398,155.493z"/>
	<path id="XMLID_503_" d="M329.926,163.52c-0.023-0.229-0.065-0.451-0.098-0.677c-0.038-0.259-0.068-0.518-0.119-0.774
		c-0.05-0.255-0.12-0.503-0.184-0.754c-0.057-0.224-0.105-0.449-0.172-0.67c-0.074-0.245-0.166-0.482-0.253-0.722
		c-0.079-0.222-0.152-0.445-0.243-0.664c-0.093-0.225-0.202-0.44-0.306-0.66c-0.106-0.224-0.205-0.451-0.323-0.67
		c-0.113-0.212-0.242-0.413-0.365-0.618c-0.128-0.214-0.249-0.432-0.389-0.641c-0.153-0.229-0.323-0.444-0.488-0.664
		c-0.129-0.171-0.248-0.348-0.385-0.515c-0.314-0.384-0.646-0.753-0.998-1.103l-37.497-37.498c-5.857-5.858-15.355-5.858-21.213,0
		c-5.858,5.858-5.858,15.355,0,21.213l11.893,11.893H225c-8.284,0-15,6.716-15,15c0,8.284,6.716,15,15,15h53.787l-11.893,11.894
		c-5.858,5.858-5.858,15.355,0,21.213c2.929,2.929,6.767,4.393,10.606,4.393c3.839,0,7.678-1.464,10.606-4.393l37.497-37.498
		c0.352-0.35,0.684-0.719,0.998-1.103c0.137-0.167,0.256-0.344,0.385-0.515c0.165-0.219,0.335-0.435,0.488-0.663
		c0.14-0.209,0.261-0.426,0.389-0.641c0.123-0.205,0.252-0.406,0.365-0.618c0.118-0.22,0.217-0.446,0.323-0.67
		c0.104-0.219,0.213-0.435,0.306-0.66c0.091-0.219,0.164-0.442,0.243-0.664c0.087-0.24,0.179-0.477,0.253-0.722
		c0.066-0.221,0.115-0.446,0.172-0.67c0.064-0.251,0.134-0.499,0.184-0.754c0.051-0.256,0.081-0.515,0.119-0.774
		c0.032-0.226,0.074-0.448,0.098-0.677c0.047-0.476,0.07-0.955,0.072-1.434c0-0.015,0.002-0.029,0.002-0.045
		c0-0.015-0.002-0.029-0.002-0.044C329.996,164.476,329.973,163.997,329.926,163.52z"/>
</g>
<g>
</g>
<g>
</g>
<g>
</g>
<g>
</g>
<g>
</g>
<g>
</g>
<g>
</g>
<g>
</g>
<g>
</g>
<g>
</g>
<g>
</g>
<g>
</g>
<g>
</g>
<g>
</g>
<g>
</g>
</svg>
