<?xml version="1.0" encoding="iso-8859-1"?>
<!-- Generator: Adobe Illustrator 19.0.0, SVG Export Plug-In . SVG Version: 6.00 Build 0)  -->
<svg version="1.1" id="Layer_1" xmlns="http://www.w3.org/2000/svg" xmlns:xlink="http://www.w3.org/1999/xlink" x="0px" y="0px"
	 viewBox="0 0 360 360" style="enable-background:new 0 0 360 360;" xml:space="preserve">
<g id="XMLID_224_">
	<path id="XMLID_225_" d="M165,60.013c-57.897,0-105,47.103-105,105s47.103,105,105,105s105-47.102,105-105
		S222.896,60.013,165,60.013z M91.509,180.013h28.879c0.946,18.186,3.644,35.799,8.227,50.552
		C109.803,220.081,95.938,201.746,91.509,180.013z M120.388,150.013H91.509c4.43-21.733,18.294-40.068,37.106-50.552
		C124.031,114.214,121.334,131.827,120.388,150.013z M165,238.651c-4.84-6.148-12.66-26.09-14.568-58.639h29.137
		C177.66,212.562,169.84,232.503,165,238.651z M150.432,150.013c1.908-32.549,9.729-52.49,14.568-58.639
		c4.84,6.148,12.66,26.09,14.568,58.639H150.432z M201.385,230.565c4.584-14.753,7.281-32.366,8.227-50.552h28.878
		C234.061,201.746,220.197,220.081,201.385,230.565z M209.612,150.013c-0.946-18.186-3.643-35.799-8.227-50.552
		c18.813,10.483,32.677,28.818,37.105,50.552H209.612z"/>
	<path id="XMLID_233_" d="M355.606,334.381l-63.854-63.854C315.619,241.903,330,205.107,330,165.013c0-90.981-74.019-165-165-165
		S0,74.031,0,165.013s74.019,165,165,165c40.107,0,76.914-14.391,105.541-38.271l63.853,63.853
		c2.929,2.929,6.768,4.393,10.606,4.393s7.678-1.465,10.606-4.393C361.465,349.736,361.465,340.238,355.606,334.381z M165,300.013
		c-74.44,0-135-60.561-135-135c0-74.439,60.56-135,135-135s135,60.561,135,135C300,239.452,239.439,300.013,165,300.013z"/>
</g>
<g>
</g>
<g>
</g>
<g>
</g>
<g>
</g>
<g>
</g>
<g>
</g>
<g>
</g>
<g>
</g>
<g>
</g>
<g>
</g>
<g>
</g>
<g>
</g>
<g>
</g>
<g>
</g>
<g>
</g>
</svg>
