<?xml version="1.0" encoding="iso-8859-1"?>
<!-- Generator: Adobe Illustrator 19.0.0, SVG Export Plug-In . SVG Version: 6.00 Build 0)  -->
<svg version="1.1" id="Layer_1" xmlns="http://www.w3.org/2000/svg" xmlns:xlink="http://www.w3.org/1999/xlink" x="0px" y="0px"
	 viewBox="0 0 330 330" style="enable-background:new 0 0 330 330;" xml:space="preserve">
<path id="XMLID_19_" d="M315,0H34.848c-0.004,0-0.008,0-0.011,0H15C6.716,0,0,6.716,0,15v240.22c0,8.284,6.716,15,15,15h134.988V300
	H99.994c-8.284,0-15,6.716-15,15s6.716,15,15,15h130.002c8.284,0,15-6.716,15-15s-6.716-15-15-15h-50.008v-29.78H315
	c8.284,0,15-6.716,15-15V15C330,6.716,323.284,0,315,0z M218.896,30l-44.475,44.475c-0.001,0.002-0.003,0.003-0.004,0.004
	c-0.001,0.001-0.002,0.003-0.004,0.004l-29.438,29.439L71.055,30H218.896z M30,180.22V31.371l93.763,93.764L68.678,180.22H30z
	 M111.104,180.22l73.921-73.921l73.92,73.921H111.104z M300,178.851l-93.763-93.766L261.322,30H300V178.851z"/>
<g>
</g>
<g>
</g>
<g>
</g>
<g>
</g>
<g>
</g>
<g>
</g>
<g>
</g>
<g>
</g>
<g>
</g>
<g>
</g>
<g>
</g>
<g>
</g>
<g>
</g>
<g>
</g>
<g>
</g>
</svg>
