<?xml version="1.0" encoding="iso-8859-1"?>
<!-- Generator: Adobe Illustrator 19.0.0, SVG Export Plug-In . SVG Version: 6.00 Build 0)  -->
<svg version="1.1" id="Layer_1" xmlns="http://www.w3.org/2000/svg" xmlns:xlink="http://www.w3.org/1999/xlink" x="0px" y="0px"
	 viewBox="0 0 330 330" style="enable-background:new 0 0 330 330;" xml:space="preserve">
<path id="XMLID_13_" d="M255,0H75c-8.284,0-15,6.716-15,15v99.995c0,0.003,0,0.007,0,0.01v139.99c0,0.003,0,0.007,0,0.01V315
	c0,8.284,6.716,15,15,15h180c8.284,0,15-6.716,15-15v-99.994c0-0.003,0-0.007,0-0.01V75.005c0-0.003,0-0.007,0-0.01V15
	C270,6.716,263.284,0,255,0z M90,90h128.787L145,163.787l-55-55V90z M90,151.213L123.787,185L90,218.787V151.213z M240,240H111.213
	L185,166.213l55,55.001V240z M240,178.787L206.213,145L240,111.213V178.787z"/>
<g>
</g>
<g>
</g>
<g>
</g>
<g>
</g>
<g>
</g>
<g>
</g>
<g>
</g>
<g>
</g>
<g>
</g>
<g>
</g>
<g>
</g>
<g>
</g>
<g>
</g>
<g>
</g>
<g>
</g>
</svg>
