<?xml version="1.0" encoding="iso-8859-1"?>
<!-- Generator: Adobe Illustrator 19.0.0, SVG Export Plug-In . SVG Version: 6.00 Build 0)  -->
<svg version="1.1" id="Layer_1" xmlns="http://www.w3.org/2000/svg" xmlns:xlink="http://www.w3.org/1999/xlink" x="0px" y="0px"
	 viewBox="0 0 330 330" style="enable-background:new 0 0 330 330;" xml:space="preserve">
<g id="XMLID_803_">
	<path id="XMLID_804_" d="M119.844,327.556c2.493,1.63,5.35,2.444,8.207,2.444c2.856,0,5.714-0.815,8.207-2.444
		c0.518-0.338,10.696-7.035,24.917-19.268c17.701,13.592,39.834,21.686,63.825,21.686c57.897,0,105-47.103,105-105
		c0-47.088-31.158-87.035-73.94-100.31C254.248,55.614,197.523,0,128.051,0C57.443,0,0,57.452,0,128.071
		c0,49.877,20.813,100.251,60.191,145.677C89.489,307.546,118.618,326.754,119.844,327.556z M225,149.974c41.355,0,75,33.645,75,75
		s-33.645,75-75,75s-75-33.645-75-75S183.645,149.974,225,149.974z M128.053,98.053c16.542,0,30,13.458,30,30s-13.458,30-30,30
		s-30-13.458-30-30S111.511,98.053,128.053,98.053z"/>
	<path id="XMLID_808_" d="M197.701,237.706l-3.876,22.598c-0.483,2.814,0.674,5.658,2.983,7.335c2.309,1.678,5.37,1.9,7.898,0.571
		L225,257.542l20.293,10.669c1.098,0.577,2.296,0.861,3.489,0.861c0.008,0,0.015,0,0.023,0c4.142-0.001,7.498-3.358,7.498-7.5
		c0-0.629-0.077-1.24-0.223-1.824l-3.781-22.042l16.417-16.002c2.044-1.993,2.78-4.973,1.898-7.689
		c-0.882-2.715-3.23-4.694-6.055-5.104l-22.688-3.296l-10.145-20.559c-1.264-2.561-3.871-4.181-6.726-4.181
		s-5.462,1.621-6.726,4.181l-10.145,20.559l-22.688,3.296c-2.825,0.41-5.173,2.389-6.055,5.104
		c-0.883,2.715-0.146,5.696,1.897,7.689L197.701,237.706z"/>
</g>
<g>
</g>
<g>
</g>
<g>
</g>
<g>
</g>
<g>
</g>
<g>
</g>
<g>
</g>
<g>
</g>
<g>
</g>
<g>
</g>
<g>
</g>
<g>
</g>
<g>
</g>
<g>
</g>
<g>
</g>
</svg>
