<?xml version="1.0" encoding="iso-8859-1"?>
<!-- Generator: Adobe Illustrator 19.0.0, SVG Export Plug-In . SVG Version: 6.00 Build 0)  -->
<svg version="1.1" id="Layer_1" xmlns="http://www.w3.org/2000/svg" xmlns:xlink="http://www.w3.org/1999/xlink" x="0px" y="0px"
	 viewBox="0 0 330 330" style="enable-background:new 0 0 330 330;" xml:space="preserve">
<g id="XMLID_524_">
	<path id="XMLID_525_" d="M49.769,162.997C29.359,180.592,16.666,206.593,16.666,235c0,52.383,42.617,95,95,95h106.668
		c52.383,0,95-42.617,95-95c0-28.376-12.666-54.353-33.039-71.947c-14.398,36.352-38.766,65.098-60.431,85.282
		c-15.95,14.858-28.818,23.402-30.238,24.331c-7.34,4.799-15.855,7.335-24.624,7.335c-8.768,0-17.281-2.535-24.619-7.332
		c-2.805-1.832-28.105-18.74-52.676-47.669c-14.504-17.076-26.1-35.168-34.469-53.773C52.01,168.494,50.859,165.749,49.769,162.997z
		"/>
	<path id="XMLID_526_" d="M67.312,105.539c0.025,0.454,0.051,0.908,0.08,1.361c0.054,0.849,0.118,1.693,0.188,2.535
		c0.033,0.414,0.063,0.829,0.101,1.241c0.106,1.175,0.228,2.345,0.362,3.507c0.051,0.441,0.111,0.878,0.168,1.317
		c0.094,0.75,0.19,1.5,0.296,2.245c0.083,0.579,0.171,1.155,0.26,1.731c0.091,0.589,0.186,1.175,0.283,1.761
		c0.104,0.626,0.211,1.253,0.323,1.876c0.09,0.494,0.186,0.984,0.279,1.476c0.48,2.501,1.02,4.971,1.62,7.407
		c0.064,0.263,0.128,0.526,0.194,0.788c0.207,0.822,0.42,1.64,0.641,2.455c0.057,0.212,0.115,0.422,0.174,0.633
		c1.043,3.796,2.222,7.512,3.522,11.144c21.948,61.264,78.048,98.615,80.991,100.539c2.493,1.629,5.35,2.444,8.207,2.444
		c2.857,0,5.715-0.815,8.208-2.445c0.475-0.311,11.825-7.776,26.206-21.172c20.035-18.665,42.726-45.569,54.815-79.342
		c0.003-0.006,0.005-0.013,0.007-0.019c0.369-1.031,0.726-2.07,1.074-3.114c0.213-0.635,0.419-1.273,0.623-1.913
		c0.252-0.787,0.496-1.578,0.735-2.371c0.245-0.815,0.485-1.633,0.718-2.455c0.24-0.847,0.475-1.697,0.701-2.551
		c0.15-0.57,0.301-1.14,0.445-1.714c0.303-1.201,0.592-2.408,0.865-3.624c0.111-0.493,0.215-0.99,0.321-1.485
		c0.223-1.039,0.435-2.083,0.636-3.134c0.073-0.384,0.152-0.765,0.223-1.15c0.246-1.344,0.468-2.698,0.676-4.06
		c0.066-0.432,0.131-0.864,0.193-1.298c0.203-1.406,0.391-2.819,0.553-4.244c0.029-0.267,0.054-0.537,0.083-0.805
		c0.142-1.32,0.266-2.648,0.371-3.984c0.024-0.308,0.052-0.615,0.075-0.925c0.107-1.496,0.191-3.002,0.253-4.517
		c0.014-0.331,0.023-0.664,0.034-0.996c0.054-1.579,0.09-3.164,0.09-4.763c0-3.374-0.172-6.71-0.506-9.997
		C257.379,38.606,215.613,0,165.002,0c-53.984,0-97.904,43.926-97.904,97.918c0,1.278,0.022,2.548,0.057,3.813
		c0.011,0.402,0.028,0.803,0.043,1.204C67.227,103.806,67.266,104.674,67.312,105.539z M165.003,64.905
		c18.224,0,32.999,14.775,32.999,33c0,18.226-14.775,33-32.999,33c-18.225,0-33-14.774-33-33
		C132.003,79.68,146.778,64.905,165.003,64.905z"/>
</g>
<g>
</g>
<g>
</g>
<g>
</g>
<g>
</g>
<g>
</g>
<g>
</g>
<g>
</g>
<g>
</g>
<g>
</g>
<g>
</g>
<g>
</g>
<g>
</g>
<g>
</g>
<g>
</g>
<g>
</g>
</svg>
