<?xml version="1.0" encoding="iso-8859-1"?>
<!-- Generator: Adobe Illustrator 19.0.0, SVG Export Plug-In . SVG Version: 6.00 Build 0)  -->
<svg version="1.1" id="Layer_1" xmlns="http://www.w3.org/2000/svg" xmlns:xlink="http://www.w3.org/1999/xlink" x="0px" y="0px"
	 viewBox="0 0 399.783 399.783" style="enable-background:new 0 0 399.783 399.783;" xml:space="preserve">
<g id="XMLID_521_">
	<path id="XMLID_522_" d="M146.558,399.783h106.668c52.383,0,95-42.617,95-95s-42.617-95-95-95h-8.334v65
		c0,24.813-20.186,45-45.002,45c-24.812-0.003-44.998-20.19-44.998-45v-37.572c-4.693,1.665-9.744,2.571-15.002,2.572
		c-11.504-0.002-22.016-4.343-29.98-11.473c-8.262,7.416-18.826,11.471-30.02,11.471c-0.83,0-1.654-0.027-2.477-0.072
		c-16.021,17.014-25.856,39.915-25.856,65.074C51.558,357.167,94.175,399.783,146.558,399.783z"/>
	<path id="XMLID_523_" d="M259.892,179.783c8.271,0,15-6.729,15-15v-59.781c0-57.896-47.103-105-105-105.002
		C111.995,0.002,64.893,47.105,64.893,105.002v89.781c0,4.006,1.56,7.773,4.394,10.606c2.832,2.832,6.598,4.392,10.604,4.392
		c0,0,0,0,0.001,0s0.002,0,0.002,0c4.009,0,7.774-1.56,10.606-4.392c2.834-2.833,4.394-6.6,4.394-10.606v-30c0-8.284,6.716-15,15-15
		s15,6.716,15,15v30c0,8.27,6.729,14.999,15.001,15c8.268-0.001,14.998-6.73,14.998-15v-27.832v-2.168c0-8.284,6.717-15,15-15
		c8.285,0,15,6.716,15,15v2.168v27.832v15v65c0,8.27,6.73,14.999,15.002,15c8.27,0,14.998-6.729,14.998-15v-65v-105
		c0-8.284,6.716-15,15-15s15,6.716,15,15v60C244.892,173.054,251.62,179.783,259.892,179.783z"/>
</g>
<g>
</g>
<g>
</g>
<g>
</g>
<g>
</g>
<g>
</g>
<g>
</g>
<g>
</g>
<g>
</g>
<g>
</g>
<g>
</g>
<g>
</g>
<g>
</g>
<g>
</g>
<g>
</g>
<g>
</g>
</svg>
