<?xml version="1.0" encoding="iso-8859-1"?>
<!-- Generator: Adobe Illustrator 19.0.0, SVG Export Plug-In . SVG Version: 6.00 Build 0)  -->
<svg version="1.1" id="Layer_1" xmlns="http://www.w3.org/2000/svg" xmlns:xlink="http://www.w3.org/1999/xlink" x="0px" y="0px"
	 viewBox="0 0 480 480" style="enable-background:new 0 0 480 480;" xml:space="preserve">
<g id="XMLID_508_">
	<path id="XMLID_509_" d="M345,345c0-21.327-12.211-39.845-30-48.965V325c0,24.813-20.188,45-45,45h-60c-24.813,0-45-20.187-45-45
		v-28.965c-17.789,9.12-30,27.638-30,48.965c0,30.327,24.673,55,55,55h100C320.327,400,345,375.327,345,345z"/>
	<path id="XMLID_510_" d="M105,345c0-8.284-6.716-15-15-15H70c-8.284,0-15,6.716-15,15s6.716,15,15,15h20
		C98.284,360,105,353.284,105,345z"/>
	<path id="XMLID_511_" d="M410,330h-20c-8.284,0-15,6.716-15,15s6.716,15,15,15h20c8.284,0,15-6.716,15-15S418.284,330,410,330z"/>
	<path id="XMLID_512_" d="M225,445v20c0,8.284,6.716,15,15,15s15-6.716,15-15v-20c0-8.284-6.716-15-15-15S225,436.716,225,445z"/>
	<path id="XMLID_515_" d="M285,45c0-24.813-20.186-45-45-45s-45,20.187-45,45s20.186,45,45,45S285,69.813,285,45z"/>
	<path id="XMLID_516_" d="M165,195v50c0,8.284,6.716,15,15,15h15v30v35c0,8.284,6.716,15,15,15h60c8.284,0,15-6.716,15-15v-35v-30
		h15c8.284,0,15-6.716,15-15v-50c0-41.355-33.645-75-75-75S165,153.645,165,195z"/>
</g>
<g>
</g>
<g>
</g>
<g>
</g>
<g>
</g>
<g>
</g>
<g>
</g>
<g>
</g>
<g>
</g>
<g>
</g>
<g>
</g>
<g>
</g>
<g>
</g>
<g>
</g>
<g>
</g>
<g>
</g>
</svg>
