<?xml version="1.0" encoding="iso-8859-1"?>
<!-- Generator: Adobe Illustrator 19.0.0, SVG Export Plug-In . SVG Version: 6.00 Build 0)  -->
<svg version="1.1" id="Layer_1" xmlns="http://www.w3.org/2000/svg" xmlns:xlink="http://www.w3.org/1999/xlink" x="0px" y="0px"
	 viewBox="0 0 330 330" style="enable-background:new 0 0 330 330;" xml:space="preserve">
<path id="XMLID_481_" d="M254.998,70.391C213.644,70.391,180,104.04,180,145.4c0,35.908,18.221,64.795,35.643,84.208H114.338
	C132.547,209.395,150,180.794,150,145.4c0-41.36-33.645-75.009-75-75.009S0,104.04,0,145.4c0,67.33,64.065,109.981,66.793,111.764
	c2.493,1.629,5.35,2.444,8.207,2.444h180c2.856,0,5.713-0.815,8.205-2.444c0.357-0.233,8.859-5.825,19.523-15.76
	C304.293,221.316,330,188.353,330,145.4C330,104.04,296.354,70.391,254.998,70.391z M75,165.391c-11.045,0-20-8.954-20-19.999
	c0-11.046,8.955-20.001,20-20.001s20,8.955,20,20.001C95,156.437,86.045,165.391,75,165.391z M255,165.391
	c-11.045,0-20.002-8.954-20.002-19.999c0-11.046,8.957-20.001,20.002-20.001c11.043,0,19.998,8.955,19.998,20.001
	C274.998,156.437,266.043,165.391,255,165.391z"/>
<g>
</g>
<g>
</g>
<g>
</g>
<g>
</g>
<g>
</g>
<g>
</g>
<g>
</g>
<g>
</g>
<g>
</g>
<g>
</g>
<g>
</g>
<g>
</g>
<g>
</g>
<g>
</g>
<g>
</g>
</svg>
