<?xml version="1.0" encoding="iso-8859-1"?>
<!-- Generator: Adobe Illustrator 19.0.0, SVG Export Plug-In . SVG Version: 6.00 Build 0)  -->
<svg version="1.1" id="Layer_1" xmlns="http://www.w3.org/2000/svg" xmlns:xlink="http://www.w3.org/1999/xlink" x="0px" y="0px"
	 viewBox="0 0 330 330" style="enable-background:new 0 0 330 330;" xml:space="preserve">
<g id="XMLID_88_">
	<path id="XMLID_89_" d="M172.719,32.145L130,6.506v0.006v34.986v45.006l70,42V48.52l-27.249-16.354
		C172.739,32.16,172.73,32.152,172.719,32.145z"/>
	<path id="XMLID_90_" d="M0,284.998c0,4.74,2.242,9.203,6.046,12.033c2.619,1.949,5.767,2.967,8.955,2.967
		c1.443,0,2.894-0.209,4.309-0.633L100,275.158v-80l-100,30V284.998z"/>
	<polygon id="XMLID_91_" points="0,193.838 100,163.838 100,115.158 0,145.158 	"/>
	<polygon id="XMLID_92_" points="130,281.49 200,323.49 200,243.49 130,201.49 	"/>
	<path id="XMLID_93_" d="M323.954,32.98c-3.804-2.832-8.721-3.697-13.265-2.334L230,54.854v79.984l100-30V45.014
		C330,40.273,327.758,35.811,323.954,32.98z"/>
	<polygon id="XMLID_102_" points="130,166.504 200,208.504 200,163.49 130,121.49 	"/>
	<polygon id="XMLID_103_" points="230,214.838 330,184.838 330,136.158 230,166.158 	"/>
	<path id="XMLID_104_" d="M0,44.998v68.84l100-30V15.004V3.842L10.69,30.631C4.346,32.533,0,38.373,0,44.998z"/>
	<path id="XMLID_105_" d="M230,326.158l89.31-26.793c6.345-1.904,10.69-7.744,10.69-14.367v-68.84l-100,30V326.158z"/>
</g>
<g>
</g>
<g>
</g>
<g>
</g>
<g>
</g>
<g>
</g>
<g>
</g>
<g>
</g>
<g>
</g>
<g>
</g>
<g>
</g>
<g>
</g>
<g>
</g>
<g>
</g>
<g>
</g>
<g>
</g>
</svg>
