<?xml version="1.0" encoding="iso-8859-1"?>
<!-- Generator: Adobe Illustrator 19.0.0, SVG Export Plug-In . SVG Version: 6.00 Build 0)  -->
<svg version="1.1" id="Layer_1" xmlns="http://www.w3.org/2000/svg" xmlns:xlink="http://www.w3.org/1999/xlink" x="0px" y="0px"
	 viewBox="0 0 330 330" style="enable-background:new 0 0 330 330;" xml:space="preserve">
<g id="XMLID_110_">
	<path id="XMLID_138_" d="M3.396,35.512L100,132.115V3.842L10.69,30.631C7.748,31.514,5.244,33.25,3.396,35.512z"/>
	<path id="XMLID_169_" d="M323.954,32.979c-3.805-2.83-8.724-3.697-13.265-2.332L230,54.854v20.262c0,0.029,0,0.061,0,0.09v83.437
		l100,96.664V45.014C330,40.271,327.758,35.809,323.954,32.979z"/>
	<path id="XMLID_197_" d="M0,284.998c0,4.74,2.242,9.203,6.046,12.033c3.804,2.832,8.723,3.697,13.265,2.334L100,275.158v-20.262
		c0-0.031,0-0.061,0-0.092v-80.264l-100-100V284.998z"/>
	<polygon id="XMLID_221_" points="130,281.49 200,323.49 200,132.896 130,258.885 	"/>
	<path id="XMLID_222_" d="M230,326.158l89.31-26.793c3.121-0.936,5.754-2.828,7.627-5.295L230,200.367V326.158z"/>
	<polygon id="XMLID_223_" points="130,168.324 130,168.334 130,197.115 200,71.125 200,48.518 130,6.506 	"/>
</g>
<g>
</g>
<g>
</g>
<g>
</g>
<g>
</g>
<g>
</g>
<g>
</g>
<g>
</g>
<g>
</g>
<g>
</g>
<g>
</g>
<g>
</g>
<g>
</g>
<g>
</g>
<g>
</g>
<g>
</g>
</svg>
