<?xml version="1.0" encoding="iso-8859-1"?>
<!-- Generator: Adobe Illustrator 19.0.0, SVG Export Plug-In . SVG Version: 6.00 Build 0)  -->
<svg version="1.1" id="Layer_1" xmlns="http://www.w3.org/2000/svg" xmlns:xlink="http://www.w3.org/1999/xlink" x="0px" y="0px"
	 viewBox="0 0 281.672 281.672" style="enable-background:new 0 0 281.672 281.672;" xml:space="preserve">
<g id="XMLID_237_">
	<path id="XMLID_238_" d="M189.91,243.532l5.506,29.49c14.463-2.7,28.486-7.318,41.682-13.727l-13.107-26.985
		C213.207,237.548,201.74,241.324,189.91,243.532z"/>
	<path id="XMLID_239_" d="M145.1,244.371l-4.395,29.677c8.012,1.187,16.186,1.788,24.295,1.788c6.51-0.001,13.088-0.39,19.549-1.156
		l-3.535-29.791C169.127,246.298,156.932,246.124,145.1,244.371z"/>
	<path id="XMLID_240_" d="M41.844,166.302l-27.346,12.337c6.027,13.361,13.844,25.887,23.232,37.23l23.111-19.127
		C53.162,187.462,46.77,177.221,41.844,166.302z"/>
	<path id="XMLID_241_" d="M88.631,257.145c13,6.79,26.881,11.814,41.26,14.932l6.357-29.318
		c-11.758-2.549-23.105-6.655-33.729-12.204L88.631,257.145z"/>
	<path id="XMLID_242_" d="M260.459,206.294c-8.545,8.544-18.139,15.885-28.514,21.817l14.889,26.044
		c12.69-7.254,24.41-16.219,34.838-26.647L260.459,206.294z"/>
	<path id="XMLID_243_" d="M30.52,123.001l-29.883,2.643c1.295,14.646,4.551,29.051,9.676,42.813l28.113-10.471
		C34.238,146.742,31.578,134.972,30.52,123.001z"/>
	<path id="XMLID_244_" d="M30,111.187c0-11.114,1.34-22.181,3.984-32.896L4.857,71.105C1.635,84.168,0,97.654,0,111.187
		c0,1.158,0.012,2.316,0.037,3.474l29.992-0.642C30.01,113.076,30,112.131,30,111.187z"/>
	<path id="XMLID_245_" d="M69.539,206.295c-0.924-0.924-1.832-1.858-2.723-2.802l-21.801,20.609c1.082,1.145,2.195,2.29,3.311,3.405
		c9.283,9.284,19.623,17.434,30.733,24.221l15.641-25.6C85.613,220.577,77.148,213.904,69.539,206.295z"/>
	<path id="XMLID_307_" d="M50.74,38.871L25.373,22.856c-7.404,11.728-13.301,24.4-17.527,37.667l28.584,9.108
		C39.883,58.792,44.697,48.443,50.74,38.871z"/>
	<path id="XMLID_308_" d="M165,215.836c57.896,0,105-47.103,105-105c0-57.897-47.104-105-105-105c-57.898,0-105,47.103-105,105
		C60,168.732,107.102,215.835,165,215.836z M238.49,95.836h-28.879c-0.945-18.186-3.643-35.798-8.227-50.552
		C220.197,55.768,234.061,74.103,238.49,95.836z M209.611,125.836h28.879c-4.43,21.733-18.293,40.068-37.105,50.552
		C205.969,161.634,208.666,144.021,209.611,125.836z M165,37.197c4.84,6.149,12.66,26.09,14.568,58.639h-29.137
		C152.34,63.287,160.158,43.346,165,37.197z M179.568,125.836c-1.908,32.549-9.729,52.49-14.568,58.639
		c-4.842-6.149-12.66-26.09-14.568-58.639H179.568z M128.615,45.284c-4.584,14.754-7.281,32.366-8.229,50.552H91.51
		C95.938,74.103,109.803,55.768,128.615,45.284z M120.387,125.836c0.947,18.185,3.643,35.798,8.229,50.552
		c-18.813-10.484-32.678-28.818-37.106-50.552H120.387z"/>
</g>
<g>
</g>
<g>
</g>
<g>
</g>
<g>
</g>
<g>
</g>
<g>
</g>
<g>
</g>
<g>
</g>
<g>
</g>
<g>
</g>
<g>
</g>
<g>
</g>
<g>
</g>
<g>
</g>
<g>
</g>
</svg>
