<?xml version="1.0" encoding="iso-8859-1"?>
<!-- Generator: Adobe Illustrator 18.0.0, SVG Export Plug-In . SVG Version: 6.00 Build 0)  -->
<!DOCTYPE svg PUBLIC "-//W3C//DTD SVG 1.1//EN" "http://www.w3.org/Graphics/SVG/1.1/DTD/svg11.dtd">
<svg version="1.1" id="Capa_1" xmlns="http://www.w3.org/2000/svg" xmlns:xlink="http://www.w3.org/1999/xlink" x="0px" y="0px"
	 viewBox="0 0 225.791 225.791" style="enable-background:new 0 0 225.791 225.791;" xml:space="preserve">
<g>
	<path d="M102.513,141.934c-26.999,0-52.451-6.847-71.668-19.281C10.954,109.785,0,92.45,0,73.844s10.954-35.94,30.845-48.809
		C50.062,12.602,75.514,5.755,102.513,5.755s52.451,6.847,71.669,19.281c19.891,12.869,30.845,30.203,30.845,48.809
		s-10.954,35.94-30.845,48.809C154.964,135.087,129.512,141.934,102.513,141.934z"/>
	<path d="M185.932,185.694c-22.351,0-39.858-12.103-39.858-27.553s17.508-27.553,39.858-27.553s39.859,12.103,39.859,27.553
		S208.282,185.694,185.932,185.694z"/>
	<path d="M187.932,220.036c-11.736,0-20.93-6.724-20.93-15.307s9.193-15.307,20.93-15.307c11.737,0,20.931,6.724,20.931,15.307
		S199.669,220.036,187.932,220.036z"/>
</g>
<g>
</g>
<g>
</g>
<g>
</g>
<g>
</g>
<g>
</g>
<g>
</g>
<g>
</g>
<g>
</g>
<g>
</g>
<g>
</g>
<g>
</g>
<g>
</g>
<g>
</g>
<g>
</g>
<g>
</g>
</svg>
