<?xml version="1.0" encoding="iso-8859-1"?>
<!-- Generator: Adobe Illustrator 18.0.0, SVG Export Plug-In . SVG Version: 6.00 Build 0)  -->
<!DOCTYPE svg PUBLIC "-//W3C//DTD SVG 1.1//EN" "http://www.w3.org/Graphics/SVG/1.1/DTD/svg11.dtd">
<svg version="1.1" id="Capa_1" xmlns="http://www.w3.org/2000/svg" xmlns:xlink="http://www.w3.org/1999/xlink" x="0px" y="0px"
	 viewBox="0 0 225.059 225.059" style="enable-background:new 0 0 225.059 225.059;" xml:space="preserve">
<path d="M145.365,192.224c-21.322,0-41.774-8.599-56.708-23.717c-8.292,3.949-17.43,6.022-26.656,6.022
	c-9.677,0-19.295-2.29-27.902-6.632h-20.66c-2.761,0-5-2.239-5-5V143.76C2.913,134.302,0,123.536,0,112.53c0-34.187,27.813-62,62-62
	c9.227,0,18.364,2.073,26.656,6.022c14.934-15.118,35.387-23.717,56.708-23.717c43.943,0,79.694,35.75,79.694,79.694
	S189.308,192.224,145.365,192.224z"/>
<g>
</g>
<g>
</g>
<g>
</g>
<g>
</g>
<g>
</g>
<g>
</g>
<g>
</g>
<g>
</g>
<g>
</g>
<g>
</g>
<g>
</g>
<g>
</g>
<g>
</g>
<g>
</g>
<g>
</g>
</svg>
