<?xml version="1.0" encoding="iso-8859-1"?>
<!-- Generator: Adobe Illustrator 18.0.0, SVG Export Plug-In . SVG Version: 6.00 Build 0)  -->
<!DOCTYPE svg PUBLIC "-//W3C//DTD SVG 1.1//EN" "http://www.w3.org/Graphics/SVG/1.1/DTD/svg11.dtd">
<svg version="1.1" id="Capa_1" xmlns="http://www.w3.org/2000/svg" xmlns:xlink="http://www.w3.org/1999/xlink" x="0px" y="0px"
	 viewBox="0 0 200.586 200.586" style="enable-background:new 0 0 200.586 200.586;" xml:space="preserve">
<g>
	<path d="M129.588,3.074H70.997C31.787,3.074,0,34.86,0,74.071l0,0c0,39.211,31.787,70.997,70.997,70.997h28.676
		c-0.204,1.272-0.336,2.56-0.336,3.869c0,13.366,10.875,24.241,24.242,24.241h26.166c3.26,0,5.912,2.652,5.912,5.911
		s-2.652,5.912-5.912,5.912c-3.455,0-6.255,2.801-6.255,6.255c0,3.454,2.8,6.255,6.255,6.255c10.159,0,18.423-8.264,18.423-18.423
		c0-10.158-8.264-18.422-18.423-18.422h-26.166c-6.469,0-11.731-5.262-11.731-11.73c0-1.335,0.232-2.631,0.665-3.869h17.075
		c39.211,0,70.997-31.787,70.997-70.997l0,0C200.586,34.86,168.799,3.074,129.588,3.074z"/>
</g>
<g>
</g>
<g>
</g>
<g>
</g>
<g>
</g>
<g>
</g>
<g>
</g>
<g>
</g>
<g>
</g>
<g>
</g>
<g>
</g>
<g>
</g>
<g>
</g>
<g>
</g>
<g>
</g>
<g>
</g>
</svg>
