<?xml version="1.0" encoding="iso-8859-1"?>
<!-- Generator: Adobe Illustrator 18.0.0, SVG Export Plug-In . SVG Version: 6.00 Build 0)  -->
<!DOCTYPE svg PUBLIC "-//W3C//DTD SVG 1.1//EN" "http://www.w3.org/Graphics/SVG/1.1/DTD/svg11.dtd">
<svg version="1.1" id="Capa_1" xmlns="http://www.w3.org/2000/svg" xmlns:xlink="http://www.w3.org/1999/xlink" x="0px" y="0px"
	 viewBox="0 0 190.697 190.697" style="enable-background:new 0 0 190.697 190.697;" xml:space="preserve">
<path d="M166.631,103.75c15.398-10.685,24.066-24.682,24.066-39.284c0-16.227-10.264-31.286-28.901-42.402
	C143.969,11.429,120.37,5.572,95.349,5.572s-48.62,5.856-66.447,16.491C10.264,33.18,0,48.239,0,64.466
	c0,13.583,7.12,26.291,20.59,36.75c10.965,8.514,25.853,15.051,42.468,18.717c-1.268,3.125-1.906,6.357-1.906,9.667
	c0,20.288,24.715,36.798,56.604,38.087l18.278,16.181c0.929,0.822,2.112,1.256,3.315,1.256c0.558,0,1.12-0.093,1.663-0.285
	c1.713-0.604,2.963-2.091,3.266-3.881l2.807-16.603c21.561-6.132,35.305-19.544,35.305-34.756
	C182.39,119.821,176.742,110.693,166.631,103.75z"/>
<g>
</g>
<g>
</g>
<g>
</g>
<g>
</g>
<g>
</g>
<g>
</g>
<g>
</g>
<g>
</g>
<g>
</g>
<g>
</g>
<g>
</g>
<g>
</g>
<g>
</g>
<g>
</g>
<g>
</g>
</svg>
