<?xml version="1.0" encoding="iso-8859-1"?>
<!-- Generator: Adobe Illustrator 18.0.0, SVG Export Plug-In . SVG Version: 6.00 Build 0)  -->
<!DOCTYPE svg PUBLIC "-//W3C//DTD SVG 1.1//EN" "http://www.w3.org/Graphics/SVG/1.1/DTD/svg11.dtd">
<svg version="1.1" id="Capa_1" xmlns="http://www.w3.org/2000/svg" xmlns:xlink="http://www.w3.org/1999/xlink" x="0px" y="0px"
	 viewBox="0 0 210.934 210.934" style="enable-background:new 0 0 210.934 210.934;" xml:space="preserve">
<path d="M210.557,103.401c-2.331-18.983-15.874-35.04-34.205-41.045c-1.266-12.958-12.4-23.073-25.755-22.711
	c-8.156-17.276-25.824-28.636-45.125-28.636c-19.276,0-36.961,11.364-45.119,28.63c-12.753,0.215-23.23,9.958-24.605,22.401
	c-20.875,6.309-35.376,25.036-35.74,46.804c-0.226,13.489,4.855,26.209,14.306,35.818c9.452,9.611,22.08,14.904,35.559,14.904
	h74.529l38.897,38.896c0.956,0.957,2.235,1.464,3.536,1.464c0.645,0,1.294-0.125,1.912-0.38c1.869-0.774,3.087-2.597,3.087-4.62
	v-36.541C196.617,152.932,213.722,129.173,210.557,103.401z"/>
<g>
</g>
<g>
</g>
<g>
</g>
<g>
</g>
<g>
</g>
<g>
</g>
<g>
</g>
<g>
</g>
<g>
</g>
<g>
</g>
<g>
</g>
<g>
</g>
<g>
</g>
<g>
</g>
<g>
</g>
</svg>
