<?xml version="1.0" encoding="iso-8859-1"?>
<!-- Generator: Adobe Illustrator 18.0.0, SVG Export Plug-In . SVG Version: 6.00 Build 0)  -->
<!DOCTYPE svg PUBLIC "-//W3C//DTD SVG 1.1//EN" "http://www.w3.org/Graphics/SVG/1.1/DTD/svg11.dtd">
<svg version="1.1" id="Capa_1" xmlns="http://www.w3.org/2000/svg" xmlns:xlink="http://www.w3.org/1999/xlink" x="0px" y="0px"
	 viewBox="0 0 209.869 209.869" style="enable-background:new 0 0 209.869 209.869;" xml:space="preserve">
<path d="M204.869,53.899c-10.477,0-19-8.523-19-19c0-2.761-2.239-5-5-5H29c-2.761,0-5,2.239-5,5c0,10.477-8.523,19-19,19
	c-2.761,0-5,2.239-5,5v64.729c0,2.761,2.239,5,5,5c10.477,0,19,8.523,19,19c0,2.761,2.239,5,5,5h119.041l29.516,26.089
	c0.933,0.824,2.115,1.253,3.313,1.253c0.695,0,1.395-0.145,2.054-0.442c1.792-0.808,2.945-2.592,2.945-4.558v-27.342
	c0-10.477,8.523-19,19-19c2.761,0,5-2.239,5-5V58.899C209.869,56.137,207.63,53.899,204.869,53.899z"/>
<g>
</g>
<g>
</g>
<g>
</g>
<g>
</g>
<g>
</g>
<g>
</g>
<g>
</g>
<g>
</g>
<g>
</g>
<g>
</g>
<g>
</g>
<g>
</g>
<g>
</g>
<g>
</g>
<g>
</g>
</svg>
