<?xml version="1.0" encoding="iso-8859-1"?>
<!-- Generator: Adobe Illustrator 18.0.0, SVG Export Plug-In . SVG Version: 6.00 Build 0)  -->
<!DOCTYPE svg PUBLIC "-//W3C//DTD SVG 1.1//EN" "http://www.w3.org/Graphics/SVG/1.1/DTD/svg11.dtd">
<svg version="1.1" id="Capa_1" xmlns="http://www.w3.org/2000/svg" xmlns:xlink="http://www.w3.org/1999/xlink" x="0px" y="0px"
	 viewBox="0 0 209.065 209.065" style="enable-background:new 0 0 209.065 209.065;" xml:space="preserve">
<path d="M206.449,120.532c-6.442-3.888-11.848-9.234-15.767-15.564c3.982-6.291,9.442-11.582,15.923-15.405
	c1.822-1.075,2.771-3.181,2.368-5.258c-0.402-2.077-2.068-3.676-4.16-3.993c-7.439-1.126-14.48-3.997-20.523-8.346
	c1.272-7.335,4.292-14.313,8.815-20.326c1.272-1.69,1.343-3.999,0.176-5.763c-1.167-1.765-3.316-2.603-5.372-2.097
	c-7.304,1.805-14.908,1.848-22.154,0.143c-1.632-7.264-1.513-14.866,0.367-22.152c0.528-2.048-0.29-4.208-2.043-5.392
	c-1.753-1.183-4.061-1.136-5.765,0.118c-6.057,4.463-13.065,7.412-20.413,8.61c-4.288-6.086-7.087-13.156-8.139-20.606
	c-0.295-2.095-1.878-3.776-3.951-4.2c-2.072-0.425-4.188,0.503-5.281,2.315c-3.888,6.442-9.234,11.848-15.564,15.767
	C98.677,14.4,93.385,8.941,89.563,2.46c-1.075-1.822-3.181-2.771-5.257-2.368c-2.077,0.402-3.676,2.068-3.993,4.16
	c-1.127,7.44-3.998,14.48-8.347,20.522c-7.335-1.271-14.313-4.291-20.326-8.815c-1.691-1.273-3.999-1.343-5.763-0.176
	c-1.765,1.167-2.605,3.318-2.097,5.372c1.806,7.304,1.848,14.907,0.143,22.154c-7.263,1.632-14.865,1.513-22.152-0.367
	c-2.05-0.529-4.208,0.29-5.392,2.043c-1.184,1.753-1.137,4.062,0.118,5.765c4.463,6.057,7.412,13.065,8.61,20.413
	c-6.086,4.288-13.155,7.087-20.606,8.139c-2.095,0.295-3.776,1.878-4.2,3.951s0.504,4.188,2.315,5.281
	c6.442,3.888,11.848,9.234,15.767,15.564C14.4,110.389,8.941,115.68,2.46,119.503c-1.822,1.075-2.771,3.18-2.368,5.257
	c0.402,2.077,2.068,3.676,4.16,3.993c7.439,1.127,14.48,3.998,20.523,8.347c-1.272,7.335-4.292,14.313-8.815,20.326
	c-1.272,1.69-1.343,3.999-0.176,5.763c1.167,1.766,3.316,2.605,5.372,2.097c7.303-1.806,14.908-1.849,22.154-0.143
	c1.632,7.264,1.513,14.866-0.367,22.152c-0.528,2.048,0.29,4.208,2.043,5.392c1.753,1.184,4.062,1.137,5.765-0.118
	c6.057-4.463,13.065-7.412,20.413-8.61c4.288,6.086,7.087,13.156,8.139,20.606c0.295,2.095,1.878,3.776,3.951,4.2
	c2.072,0.424,4.188-0.503,5.281-2.315c3.888-6.442,9.234-11.848,15.564-15.767c6.291,3.982,11.582,9.442,15.405,15.923
	c0.911,1.543,2.56,2.46,4.306,2.46c0.315,0,0.634-0.03,0.952-0.092c2.077-0.402,3.676-2.068,3.993-4.16
	c1.127-7.44,3.998-14.48,8.347-20.523c7.336,1.271,14.313,4.291,20.326,8.815c1.689,1.272,3.998,1.343,5.763,0.176
	c1.765-1.167,2.605-3.317,2.097-5.372c-1.806-7.304-1.849-14.906-0.143-22.154c7.265-1.632,14.867-1.513,22.151,0.366
	c2.049,0.531,4.208-0.29,5.392-2.042c1.185-1.753,1.137-4.062-0.118-5.765c-4.463-6.057-7.412-13.065-8.61-20.413
	c6.086-4.288,13.155-7.087,20.606-8.139c2.095-0.295,3.776-1.878,4.2-3.951S208.26,121.625,206.449,120.532z"/>
<g>
</g>
<g>
</g>
<g>
</g>
<g>
</g>
<g>
</g>
<g>
</g>
<g>
</g>
<g>
</g>
<g>
</g>
<g>
</g>
<g>
</g>
<g>
</g>
<g>
</g>
<g>
</g>
<g>
</g>
</svg>
