<?xml version="1.0" encoding="iso-8859-1"?>
<!-- Generator: Adobe Illustrator 18.0.0, SVG Export Plug-In . SVG Version: 6.00 Build 0)  -->
<!DOCTYPE svg PUBLIC "-//W3C//DTD SVG 1.1//EN" "http://www.w3.org/Graphics/SVG/1.1/DTD/svg11.dtd">
<svg version="1.1" id="Capa_1" xmlns="http://www.w3.org/2000/svg" xmlns:xlink="http://www.w3.org/1999/xlink" x="0px" y="0px"
	 viewBox="0 0 209.065 209.065" style="enable-background:new 0 0 209.065 209.065;" xml:space="preserve">
<path d="M208.973,84.305c-0.402-2.077-2.068-3.676-4.16-3.993c-13.2-2-24.993-9.535-32.354-20.673s-9.67-24.94-6.336-37.868
	c0.528-2.049-0.29-4.208-2.043-5.392s-4.061-1.137-5.765,0.118c-10.749,7.919-24.417,10.931-37.497,8.26
	c-13.081-2.67-24.474-10.797-31.257-22.296c-1.075-1.822-3.182-2.77-5.257-2.368c-2.077,0.402-3.676,2.068-3.993,4.16
	c-2,13.2-9.535,24.993-20.673,32.354c-11.138,7.361-24.94,9.672-37.868,6.336c-2.052-0.53-4.208,0.29-5.392,2.043
	c-1.185,1.753-1.137,4.062,0.118,5.765c7.92,10.749,10.931,24.416,8.26,37.497c-2.67,13.081-10.797,24.474-22.296,31.257
	c-1.822,1.075-2.771,3.18-2.368,5.257s2.068,3.676,4.16,3.993c13.2,2,24.993,9.535,32.354,20.673s9.67,24.94,6.336,37.868
	c-0.528,2.049,0.29,4.208,2.043,5.392c1.754,1.185,4.062,1.137,5.765-0.118c10.748-7.92,24.414-10.932,37.497-8.26
	c13.081,2.67,24.474,10.797,31.257,22.296c0.911,1.543,2.56,2.46,4.306,2.46c0.315,0,0.634-0.03,0.952-0.092
	c2.077-0.402,3.676-2.068,3.993-4.16c2-13.2,9.535-24.993,20.673-32.354c11.138-7.36,24.941-9.671,37.868-6.336
	c2.05,0.526,4.208-0.291,5.392-2.043c1.185-1.753,1.137-4.062-0.118-5.765c-7.92-10.749-10.931-24.416-8.26-37.497
	c2.67-13.081,10.797-24.474,22.296-31.257C208.427,88.487,209.376,86.382,208.973,84.305z"/>
<g>
</g>
<g>
</g>
<g>
</g>
<g>
</g>
<g>
</g>
<g>
</g>
<g>
</g>
<g>
</g>
<g>
</g>
<g>
</g>
<g>
</g>
<g>
</g>
<g>
</g>
<g>
</g>
<g>
</g>
</svg>
