<?xml version="1.0" encoding="iso-8859-1"?>
<!-- Generator: Adobe Illustrator 18.0.0, SVG Export Plug-In . SVG Version: 6.00 Build 0)  -->
<!DOCTYPE svg PUBLIC "-//W3C//DTD SVG 1.1//EN" "http://www.w3.org/Graphics/SVG/1.1/DTD/svg11.dtd">
<svg version="1.1" id="Capa_1" xmlns="http://www.w3.org/2000/svg" xmlns:xlink="http://www.w3.org/1999/xlink" x="0px" y="0px"
	 viewBox="0 0 208.516 208.516" style="enable-background:new 0 0 208.516 208.516;" xml:space="preserve">
<g>
	<path d="M69.788,184.726c-0.659,0-1.328-0.107-1.983-0.332C27.248,170.526,0,132.394,0,89.507C0,53.271,29.48,23.79,65.718,23.79
		c3.222,0,6.457,0.235,9.617,0.7l88.306,12.957c0.002,0,0.004,0.001,0.006,0.001c25.58,3.785,44.869,26.166,44.869,52.06
		c0,25.926-19.315,48.311-44.931,52.07c-74.673,10.957-86.038,12.624-88.02,12.908c-0.117,0.023-0.235,0.042-0.355,0.058
		c-2.815,0.354-5.914,0.683-9.492,0.683c-1.848,0-3.7-0.08-5.553-0.239c3.435,6.929,8.165,13.515,13.943,19.365
		c1.996,2.021,2.335,5.112,0.825,7.518C73.791,183.689,71.836,184.726,69.788,184.726z"/>
</g>
<g>
</g>
<g>
</g>
<g>
</g>
<g>
</g>
<g>
</g>
<g>
</g>
<g>
</g>
<g>
</g>
<g>
</g>
<g>
</g>
<g>
</g>
<g>
</g>
<g>
</g>
<g>
</g>
<g>
</g>
</svg>
