<?xml version="1.0" encoding="iso-8859-1"?>
<!-- Generator: Adobe Illustrator 18.0.0, SVG Export Plug-In . SVG Version: 6.00 Build 0)  -->
<!DOCTYPE svg PUBLIC "-//W3C//DTD SVG 1.1//EN" "http://www.w3.org/Graphics/SVG/1.1/DTD/svg11.dtd">
<svg version="1.1" id="Capa_1" xmlns="http://www.w3.org/2000/svg" xmlns:xlink="http://www.w3.org/1999/xlink" x="0px" y="0px"
	 viewBox="0 0 207.237 207.237" style="enable-background:new 0 0 207.237 207.237;" xml:space="preserve">
<path d="M144.163,207.237c-0.001,0-0.001,0-0.002,0l-44.971-0.019c-9.568,0-17.601-4.386-22.634-12.29
	c-3.924-6.161-5.088-13.401-3.406-20.196c-7.375-3.136-13.681-8.741-17.759-15.923c-4.155-7.319-5.651-15.512-4.362-23.495
	c-18.37-7.773-32.458-24.445-37.278-44.48c-5.144-21.377,0.83-42.771,16.389-58.695C41.582,20.426,55.262,11.687,70.802,6.164
	c32.843-11.672,69.434-6.572,97.883,13.642c13.757,9.774,22.884,24.356,25.701,41.06c2.84,16.844-1.054,33.783-10.965,47.698
	c-7.586,10.649-18.373,18.74-30.686,23.097c0.188,5.696-0.959,11.359-3.383,16.587c-2.201,4.749-5.367,8.927-9.293,12.307
	c5.175,7.532,6.113,17.345,2.122,25.951c-0.763,1.645-1.682,3.19-2.751,4.627l8.107,7.416c1.522,1.393,2.033,3.578,1.285,5.5
	C148.076,205.97,146.225,207.237,144.163,207.237z"/>
<g>
</g>
<g>
</g>
<g>
</g>
<g>
</g>
<g>
</g>
<g>
</g>
<g>
</g>
<g>
</g>
<g>
</g>
<g>
</g>
<g>
</g>
<g>
</g>
<g>
</g>
<g>
</g>
<g>
</g>
</svg>
