<?xml version="1.0" encoding="iso-8859-1"?>
<!-- Generator: Adobe Illustrator 19.0.0, SVG Export Plug-In . SVG Version: 6.00 Build 0)  -->
<svg xmlns="http://www.w3.org/2000/svg" xmlns:xlink="http://www.w3.org/1999/xlink" version="1.1" id="Capa_1" x="0px" y="0px" viewBox="0 0 426.667 426.667" style="enable-background:new 0 0 426.667 426.667;" xml:space="preserve">
<g>
	<g>
		<path d="M383.787,42.667C383.787,19.093,364.907,0,341.333,0H170.667l-128,128v256c0,23.573,19.093,42.667,42.667,42.667h256.213    C365.12,426.667,384,407.573,384,384L383.787,42.667z M149.333,362.667h-42.667V320h42.667V362.667z M149.333,277.333h-42.667V192    h42.667V277.333z M234.667,362.667H192v-85.333h42.667V362.667z M234.667,234.667H192V192h42.667V234.667z M320,362.667h-42.667    V320H320V362.667z M320,277.333h-42.667V192H320V277.333z"/>
	</g>
</g>
<g>
</g>
<g>
</g>
<g>
</g>
<g>
</g>
<g>
</g>
<g>
</g>
<g>
</g>
<g>
</g>
<g>
</g>
<g>
</g>
<g>
</g>
<g>
</g>
<g>
</g>
<g>
</g>
<g>
</g>
</svg>
