<?xml version="1.0" encoding="iso-8859-1"?>
<!-- Generator: Adobe Illustrator 19.0.0, SVG Export Plug-In . SVG Version: 6.00 Build 0)  -->
<svg xmlns="http://www.w3.org/2000/svg" xmlns:xlink="http://www.w3.org/1999/xlink" version="1.1" id="Capa_1" x="0px" y="0px" viewBox="0 0 384 384" style="enable-background:new 0 0 384 384;" xml:space="preserve">
<g>
	<g>
		<g>
			<path d="M256,128H128v128h128V128z M213.333,213.333h-42.667v-42.667h42.667V213.333z"/>
			<path d="M384,170.667V128h-42.667V85.333c0-23.573-19.093-42.667-42.667-42.667H256V0h-42.667v42.667h-42.667V0H128v42.667     H85.333c-23.573,0-42.667,19.093-42.667,42.667V128H0v42.667h42.667v42.667H0V256h42.667v42.667     c0,23.573,19.093,42.667,42.667,42.667H128V384h42.667v-42.667h42.667V384H256v-42.667h42.667     c23.573,0,42.667-19.093,42.667-42.667V256H384v-42.667h-42.667v-42.667H384z M298.667,298.667H85.333V85.333h213.333V298.667z"/>
		</g>
	</g>
</g>
<g>
</g>
<g>
</g>
<g>
</g>
<g>
</g>
<g>
</g>
<g>
</g>
<g>
</g>
<g>
</g>
<g>
</g>
<g>
</g>
<g>
</g>
<g>
</g>
<g>
</g>
<g>
</g>
<g>
</g>
</svg>
