<?xml version="1.0" encoding="iso-8859-1"?>
<!-- Generator: Adobe Illustrator 19.0.0, SVG Export Plug-In . SVG Version: 6.00 Build 0)  -->
<svg xmlns="http://www.w3.org/2000/svg" xmlns:xlink="http://www.w3.org/1999/xlink" version="1.1" id="Capa_1" x="0px" y="0px" viewBox="0 0 426.667 426.667" style="enable-background:new 0 0 426.667 426.667;" xml:space="preserve">
<g>
	<g>
		<g>
			<polygon points="213.333,426.667 298.667,341.333 128,341.333    "/>
			<path d="M384,0H42.667C19.093,0,0.213,19.093,0.213,42.667L0,256c0,23.573,19.093,42.667,42.667,42.667H384     c23.573,0,42.667-19.093,42.667-42.667V42.667C426.667,19.093,407.573,0,384,0z M192,64h42.667v42.667H192V64z M192,128h42.667     v42.667H192V128z M128,64h42.667v42.667H128V64z M128,128h42.667v42.667H128V128z M106.667,170.667H64V128h42.667V170.667z      M106.667,106.667H64V64h42.667V106.667z M298.667,256H128v-42.667h170.667V256z M298.667,170.667H256V128h42.667V170.667z      M298.667,106.667H256V64h42.667V106.667z M362.667,170.667H320V128h42.667V170.667z M362.667,106.667H320V64h42.667V106.667z"/>
		</g>
	</g>
</g>
<g>
</g>
<g>
</g>
<g>
</g>
<g>
</g>
<g>
</g>
<g>
</g>
<g>
</g>
<g>
</g>
<g>
</g>
<g>
</g>
<g>
</g>
<g>
</g>
<g>
</g>
<g>
</g>
<g>
</g>
</svg>
