<?xml version="1.0" encoding="iso-8859-1"?>
<!-- Generator: Adobe Illustrator 19.0.0, SVG Export Plug-In . SVG Version: 6.00 Build 0)  -->
<svg xmlns="http://www.w3.org/2000/svg" xmlns:xlink="http://www.w3.org/1999/xlink" version="1.1" id="Capa_1" x="0px" y="0px" viewBox="0 0 469.333 469.333" style="enable-background:new 0 0 469.333 469.333;" xml:space="preserve">
<g>
	<g>
		<g>
			<path d="M448,149.333H320c-10.667,0-21.333,10.667-21.333,21.333V384c0,10.667,10.667,21.333,21.333,21.333h128     c10.667,0,21.333-10.667,21.333-21.333V170.667C469.333,160,458.667,149.333,448,149.333z M426.667,362.667h-85.333V192h85.333     V362.667z"/>
			<path d="M42.667,106.667h384V64h-384C19.2,64,0,83.2,0,106.667v256c0,23.467,19.2,42.667,42.667,42.667H128v-42.667H42.667     V106.667z"/>
			<path d="M256,272.64v-37.973h-85.333v37.973c-13.013,11.733-21.333,28.48-21.333,47.36c0,18.88,8.32,35.627,21.333,47.36v37.973     H256V367.36c13.013-11.733,21.333-28.48,21.333-47.36S269.013,284.373,256,272.64z M213.333,352c-17.707,0-32-14.293-32-32     c0-17.707,14.293-32,32-32s32,14.293,32,32C245.333,337.707,231.04,352,213.333,352z"/>
		</g>
	</g>
</g>
<g>
</g>
<g>
</g>
<g>
</g>
<g>
</g>
<g>
</g>
<g>
</g>
<g>
</g>
<g>
</g>
<g>
</g>
<g>
</g>
<g>
</g>
<g>
</g>
<g>
</g>
<g>
</g>
<g>
</g>
</svg>
