<?xml version="1.0" encoding="iso-8859-1"?>
<!-- Generator: Adobe Illustrator 19.0.0, SVG Export Plug-In . SVG Version: 6.00 Build 0)  -->
<svg xmlns="http://www.w3.org/2000/svg" xmlns:xlink="http://www.w3.org/1999/xlink" version="1.1" id="Capa_1" x="0px" y="0px" viewBox="0 0 511.996 511.996" style="enable-background:new 0 0 511.996 511.996;" xml:space="preserve">
<g>
	<g>
		<path d="M449.723,61.073H62.278C27.883,61.073,0,88.956,0,123.351v137.164c0,1.254,1.358,2.038,2.444,1.41l142.009-82.059    c0.054-0.031,0.11-0.054,0.164-0.084c0.229-0.129,0.465-0.243,0.702-0.359c0.218-0.108,0.435-0.221,0.657-0.318    c0.187-0.081,0.379-0.149,0.57-0.223c0.275-0.107,0.548-0.217,0.828-0.307c0.138-0.044,0.279-0.076,0.418-0.117    c0.33-0.096,0.661-0.192,0.994-0.264c0.123-0.027,0.248-0.041,0.372-0.065c0.349-0.067,0.699-0.132,1.049-0.173    c0.169-0.02,0.34-0.024,0.51-0.038c0.306-0.025,0.613-0.055,0.919-0.061c0.236-0.005,0.473,0.01,0.71,0.016    c0.243,0.006,0.486,0.005,0.729,0.023c0.259,0.019,0.518,0.059,0.778,0.092c0.224,0.029,0.448,0.049,0.67,0.088    c0.24,0.042,0.478,0.102,0.717,0.155c0.245,0.055,0.49,0.105,0.733,0.172c0.208,0.058,0.413,0.131,0.621,0.198    c0.271,0.088,0.544,0.175,0.81,0.279c0.055,0.021,0.11,0.035,0.165,0.057l63.297,25.454c0.64,0.257,1.372,0.084,1.829-0.432    l35.303-39.943c0.953-1.078,0.143-2.771-1.294-2.706l-5.258,0.236c-0.229,0.011-0.459,0.016-0.688,0.016    c-7.982,0-14.624-6.285-14.987-14.338c-0.373-8.284,6.039-15.301,14.323-15.673l44.473-2.002c0.183-0.009,0.361,0.004,0.543,0.002    c0.189-0.002,0.38-0.013,0.569-0.008c0.073,0.002,0.145,0.007,0.218,0.01c0.275,0.011,0.545,0.039,0.816,0.065    c0.149,0.015,0.3,0.02,0.447,0.038c0.055,0.007,0.11,0.018,0.165,0.026c0.308,0.042,0.61,0.101,0.912,0.162    c0.122,0.025,0.247,0.041,0.369,0.068c0.047,0.011,0.093,0.026,0.14,0.038c0.316,0.075,0.626,0.166,0.933,0.261    c0.109,0.034,0.222,0.059,0.33,0.095c0.048,0.016,0.094,0.038,0.143,0.054c0.301,0.104,0.595,0.222,0.887,0.345    c0.108,0.045,0.221,0.082,0.328,0.13c0.053,0.024,0.103,0.052,0.156,0.076c0.271,0.125,0.533,0.262,0.796,0.403    c0.118,0.063,0.241,0.119,0.358,0.186c0.054,0.031,0.106,0.066,0.16,0.098c0.232,0.137,0.457,0.284,0.682,0.433    c0.137,0.091,0.278,0.176,0.412,0.271c0.05,0.036,0.099,0.074,0.148,0.11c0.192,0.14,0.376,0.29,0.562,0.439    c0.157,0.126,0.317,0.25,0.469,0.382c0.025,0.021,0.052,0.039,0.076,0.061c0.023,0.02,0.042,0.043,0.064,0.063    c0.149,0.134,0.29,0.276,0.434,0.416c0.167,0.162,0.335,0.323,0.495,0.493c0.049,0.052,0.099,0.101,0.147,0.153    c0.111,0.122,0.212,0.253,0.32,0.378c0.164,0.192,0.328,0.383,0.483,0.585c0.049,0.063,0.102,0.123,0.149,0.187    c0.085,0.115,0.159,0.238,0.242,0.355c0.152,0.216,0.304,0.433,0.444,0.659c0.043,0.069,0.092,0.135,0.134,0.205    c0.071,0.117,0.128,0.243,0.196,0.362c0.133,0.234,0.264,0.469,0.385,0.712c0.034,0.069,0.075,0.135,0.109,0.205    c0.063,0.131,0.111,0.271,0.17,0.404c0.107,0.241,0.212,0.482,0.307,0.731c0.026,0.069,0.059,0.135,0.084,0.203    c0.056,0.153,0.096,0.313,0.147,0.469c0.077,0.236,0.155,0.471,0.22,0.714c0.02,0.072,0.045,0.143,0.063,0.215    c0.045,0.177,0.074,0.36,0.113,0.539c0.048,0.222,0.1,0.443,0.138,0.67c0.014,0.082,0.031,0.162,0.044,0.244    c0.029,0.193,0.042,0.39,0.064,0.586c0,0.004,0.001,0.008,0.001,0.011c0.019,0.169,0.052,0.333,0.065,0.504l3.092,39.092    c0.654,8.267-5.517,15.496-13.784,16.151c-0.402,0.032-0.804,0.048-1.2,0.048c-7.755,0-14.328-5.967-14.951-13.831    c-0.113-1.433-1.893-2.028-2.845-0.95l-43.109,48.776c-0.027,0.031-0.058,0.056-0.085,0.087c-0.67,0.746-1.405,1.416-2.198,2.006    c-0.113,0.085-0.228,0.165-0.344,0.246c-0.294,0.206-0.595,0.4-0.902,0.585c-0.109,0.065-0.214,0.136-0.324,0.198    c-0.376,0.213-0.764,0.405-1.156,0.585c-0.152,0.069-0.306,0.132-0.46,0.196c-0.299,0.125-0.603,0.24-0.91,0.345    c-0.131,0.045-0.261,0.094-0.394,0.135c-0.432,0.135-0.872,0.251-1.316,0.347c-0.083,0.018-0.166,0.03-0.249,0.047    c-0.399,0.079-0.802,0.141-1.207,0.188c-0.089,0.01-0.179,0.021-0.268,0.03c-0.477,0.046-0.957,0.078-1.44,0.078    c-0.396,0-0.796-0.024-1.194-0.056c-0.045-0.004-0.091-0.002-0.136-0.006c-0.23-0.021-0.46-0.06-0.691-0.092    c-0.233-0.032-0.466-0.057-0.699-0.1c-0.167-0.031-0.333-0.075-0.5-0.112c-0.297-0.065-0.595-0.132-0.889-0.215    c-0.135-0.039-0.268-0.086-0.402-0.129c-0.321-0.101-0.641-0.208-0.956-0.332c-0.043-0.017-0.087-0.028-0.13-0.045l-66.678-26.815    c-0.464-0.187-0.989-0.149-1.422,0.101L0.814,297.548C0.31,297.838,0,298.376,0,298.958v89.687    c0,34.395,27.883,62.278,62.278,62.278h26.169c0.9,0,1.628-0.73,1.628-1.629V331.216c0-8.084,6.213-15.041,14.288-15.421    c8.622-0.406,15.739,6.464,15.739,14.997v118.502c0,0.9,0.73,1.628,1.628,1.628h28.108c0.9,0,1.628-0.73,1.628-1.628v-177.92    c0-8.084,6.213-15.041,14.288-15.421c8.622-0.406,15.739,6.464,15.739,14.997v178.342c0,0.9,0.73,1.628,1.629,1.628h28.395    c0.9,0,1.628-0.73,1.628-1.628V287.278c0-8.084,6.213-15.041,14.288-15.421c8.622-0.406,15.739,6.464,15.739,14.997v162.44    c0,0.9,0.73,1.628,1.629,1.628h27.372c0.9,0,1.628-0.73,1.628-1.628V251.067c0-8.084,6.213-15.041,14.288-15.421    c8.622-0.406,15.739,6.464,15.739,14.997v198.65c0,0.9,0.73,1.629,1.628,1.629h25.998c0.9,0,1.628-0.73,1.628-1.629V154.979    c0-8.084,6.213-15.041,14.288-15.421c8.622-0.406,15.739,6.464,15.739,14.997v294.737c0,0.9,0.73,1.628,1.628,1.628h25.904    c0.9,0,1.628-0.73,1.628-1.628V176.413c0-8.084,6.213-15.041,14.288-15.421c8.622-0.406,15.739,6.464,15.739,14.997v273.304    c0,0.9,0.73,1.628,1.628,1.628h25.789c34.395,0,62.278-27.882,62.278-62.278V123.351C512,88.956,484.117,61.073,449.723,61.073z"/>
	</g>
</g>
<g>
</g>
<g>
</g>
<g>
</g>
<g>
</g>
<g>
</g>
<g>
</g>
<g>
</g>
<g>
</g>
<g>
</g>
<g>
</g>
<g>
</g>
<g>
</g>
<g>
</g>
<g>
</g>
<g>
</g>
</svg>
