<?xml version="1.0" encoding="iso-8859-1"?>
<!-- Generator: Adobe Illustrator 19.0.0, SVG Export Plug-In . SVG Version: 6.00 Build 0)  -->
<svg xmlns="http://www.w3.org/2000/svg" xmlns:xlink="http://www.w3.org/1999/xlink" version="1.1" id="Capa_1" x="0px" y="0px" viewBox="0 0 512 512" style="enable-background:new 0 0 512 512;" xml:space="preserve">
<g>
	<g>
		<path d="M446.673,65.014c-64.367-64.367-169.099-64.367-233.467,0c-59.05,59.05-63.918,152.069-14.623,216.732l-24.723-24.723    c-5.853-5.853-15.345-5.853-21.199,0c-5.854,5.853-5.854,15.345,0,21.2l81.195,81.194c2.927,2.927,6.764,4.391,10.599,4.391    c3.836,0,7.673-1.464,10.599-4.391c5.854-5.853,5.854-15.345,0-21.199l-25.113-25.114c29.42,22.429,64.707,33.653,99.998,33.653    c42.275,0,84.55-16.092,116.733-48.275C511.04,234.113,511.04,129.38,446.673,65.014z"/>
	</g>
</g>
<g>
	<g>
		<path d="M511.837,494.752V338.784c0-8.279-6.712-14.99-14.99-14.99c-8.279,0-14.99,6.712-14.99,14.99v143.072H338.784    c-8.279,0-14.99,6.712-14.99,14.99c0,8.279,6.712,14.99,14.99,14.99h155.963c0.688,0.097,1.385,0.164,2.1,0.164    c4.183,0,7.963-1.718,10.682-4.481c2.758-2.719,4.471-6.495,4.471-10.673C512,496.133,511.933,495.439,511.837,494.752z"/>
	</g>
</g>
<g>
	<g>
		<path d="M183.211,0.163H17.247C16.561,0.067,15.866,0,15.154,0c-4.18,0-7.957,1.714-10.675,4.473C1.717,7.192,0,10.971,0,15.153    c0,0.714,0.067,1.41,0.164,2.097v155.966c0,8.279,6.712,14.99,14.99,14.99c8.279,0,14.99-6.712,14.99-14.99V30.144h153.066    c8.279,0,14.99-6.712,14.99-14.99S191.49,0.163,183.211,0.163z"/>
	</g>
</g>
<g>
	<g>
		<path d="M190.81,358.959l-36.474-36.475c-4.246-4.245-11.13-4.245-15.375,0L29,432.446C14.706,446.741,14.706,470,29,484.295    c7.147,7.147,16.535,10.721,25.924,10.721c9.389,0,18.777-3.573,25.924-10.721L190.81,374.334    C195.056,370.088,195.056,363.204,190.81,358.959z"/>
	</g>
</g>
<g>
</g>
<g>
</g>
<g>
</g>
<g>
</g>
<g>
</g>
<g>
</g>
<g>
</g>
<g>
</g>
<g>
</g>
<g>
</g>
<g>
</g>
<g>
</g>
<g>
</g>
<g>
</g>
<g>
</g>
</svg>
