<?xml version="1.0" encoding="iso-8859-1"?>
<!-- Generator: Adobe Illustrator 19.0.0, SVG Export Plug-In . SVG Version: 6.00 Build 0)  -->
<svg xmlns="http://www.w3.org/2000/svg" xmlns:xlink="http://www.w3.org/1999/xlink" version="1.1" id="Capa_1" x="0px" y="0px" viewBox="0 0 512.001 512.001" style="enable-background:new 0 0 512.001 512.001;" xml:space="preserve">
<g>
	<g>
		<path d="M502.673,389.19V123.484c0-0.933-0.757-1.69-1.69-1.69H12.309c-0.933,0-1.69,0.757-1.69,1.69v264.864    c-6.292,3.762-10.556,10.565-10.617,18.391c-0.226,29.065,23.353,52.783,52.367,52.783h8.333c1.382,0,2.503-1.12,2.503-2.503    v-23.477c0-8.079,6.208-15.029,14.278-15.41c8.616-0.406,15.729,6.459,15.729,14.986v23.901c0,1.382,1.12,2.503,2.503,2.503h5.998    c1.382,0,2.503-1.12,2.503-2.503v-23.477c0-8.079,6.208-15.029,14.278-15.41c8.616-0.406,15.729,6.459,15.729,14.986v23.901    c0,1.382,1.12,2.503,2.503,2.503h322.908c29.014,0,52.593-23.719,52.367-52.783C511.942,399.463,508.249,393.076,502.673,389.19z     M383.309,292c-1.99,43.111-37.295,77.807-80.433,79.101c-16.857,0.505-32.629-4.062-45.938-12.259    c-0.543-0.335-1.222-0.335-1.765,0c-13.329,8.209-29.128,12.778-46.013,12.257c-43.157-1.332-78.415-36.054-80.361-79.187    c-1.535-34.051,17.561-63.895,45.818-78.088c0.523-0.263,0.869-0.775,0.918-1.359c3.555-42.542,39.29-76.081,82.735-76.081    c44.283,0,80.57,34.841,82.917,78.549c0.03,0.565,0.34,1.073,0.829,1.358C367.785,231.305,384.797,259.767,383.309,292z"/>
	</g>
</g>
<g>
	<g>
		<path d="M231.053,238.684c-5.981-2.346-12.485-3.642-19.287-3.642c-0.648,0-1.292,0.015-1.933,0.042    c-1.141,0.048-1.9,1.199-1.516,2.276c2.648,7.419,6.917,14.131,12.484,19.67c0.847,0.843,2.299,0.572,2.756-0.533    c2.229-5.395,5.011-10.503,8.274-15.26C232.453,240.328,232.079,239.086,231.053,238.684z"/>
	</g>
</g>
<g>
	<g>
		<path d="M257.521,261.294c-0.654-1.112-2.276-1.112-2.93,0c-4.627,7.868-7.289,17.024-7.289,26.793    c0,9.769,2.662,18.925,7.289,26.793c0.654,1.112,2.276,1.112,2.93,0c4.627-7.868,7.289-17.024,7.289-26.793    C264.81,278.318,262.149,269.162,257.521,261.294z"/>
	</g>
</g>
<g>
	<g>
		<path d="M306.692,235.426c-2.08-0.251-4.197-0.384-6.344-0.384c-6.804,0-13.306,1.296-19.287,3.642    c-1.025,0.402-1.399,1.643-0.776,2.552c3.843,5.605,7.015,11.701,9.404,18.175c0.404,1.094,1.78,1.444,2.675,0.695    c7.103-5.95,12.533-13.674,15.723-22.395C308.464,236.675,307.786,235.558,306.692,235.426z"/>
	</g>
</g>
<g>
	<g>
		<path d="M308.727,203.09c-6.908-21.273-26.91-36.7-50.456-36.7c-23.45,0-43.382,15.302-50.367,36.44    c-0.368,1.11,0.463,2.271,1.631,2.237c0.74-0.021,1.483-0.033,2.23-0.033c15.906,0,30.769,4.512,43.411,12.299    c0.542,0.334,1.218,0.334,1.76,0c12.642-7.787,27.504-12.299,43.41-12.299c2.24,0,4.456,0.096,6.651,0.275    C308.197,205.408,309.099,204.235,308.727,203.09z"/>
	</g>
</g>
<g>
	<g>
		<path d="M465.056,52.477H48.237c-20.776,0-37.618,16.842-37.618,37.618c0,0.935,0.756,1.691,1.69,1.691h488.675    c0.933,0,1.69-0.757,1.69-1.69C502.674,69.32,485.832,52.477,465.056,52.477z"/>
	</g>
</g>
<g>
	<g>
		<path d="M231.829,334.936c-8.348-12.169-13.544-26.654-14.395-42.285c-0.031-0.566-0.343-1.075-0.834-1.359    c-16.948-9.794-29.666-25.087-36.274-43.083c-0.402-1.095-1.782-1.447-2.675-0.696c-12.471,10.501-20.059,26.625-18.791,44.432    c1.813,25.496,21.976,46.311,47.404,48.905c8.8,0.898,17.213-0.389,24.79-3.361C232.08,337.087,232.453,335.844,231.829,334.936z"/>
	</g>
</g>
<g>
	<g>
		<path d="M337.828,250.588c-0.851-0.85-2.304-0.578-2.762,0.534c-7.545,18.325-21.512,33.566-39.645,42.61    c-0.525,0.26-0.873,0.774-0.922,1.359c-1.234,14.696-6.303,28.312-14.213,39.844c-0.623,0.909-0.25,2.154,0.776,2.556    c7.591,2.977,16.022,4.263,24.841,3.355c25.395-2.616,45.514-23.384,47.349-48.847    C354.417,275.833,348.29,261.043,337.828,250.588z"/>
	</g>
</g>
<g>
</g>
<g>
</g>
<g>
</g>
<g>
</g>
<g>
</g>
<g>
</g>
<g>
</g>
<g>
</g>
<g>
</g>
<g>
</g>
<g>
</g>
<g>
</g>
<g>
</g>
<g>
</g>
<g>
</g>
</svg>
