<?xml version="1.0" encoding="iso-8859-1"?>
<!-- Generator: Adobe Illustrator 19.0.0, SVG Export Plug-In . SVG Version: 6.00 Build 0)  -->
<svg xmlns="http://www.w3.org/2000/svg" xmlns:xlink="http://www.w3.org/1999/xlink" version="1.1" id="Capa_1" x="0px" y="0px" viewBox="0 0 512 512" style="enable-background:new 0 0 512 512;" xml:space="preserve">
<g>
	<g>
		<path d="M480.574,417.547h-8.768v-13.399c0-20.029-7.576-38.317-20.004-52.167c11.98-21.575,19.124-45.436,20.969-70.003    C495.445,275.106,512,254.019,512,229.129c0-25.456-17.319-46.93-40.787-53.292c-6.573-72.915-68.021-130.25-142.619-130.25    h-19.849c-6.561-23.167-27.884-40.195-53.124-40.195s-46.562,17.028-53.123,40.195h-19.091    c-74.551,0-135.968,57.263-142.607,130.111C17.325,182.058,0,203.535,0,228.995c0,25.6,17.514,47.182,41.187,53.406    c1.856,23.924,8.738,47.173,20.219,68.279c-13.138,13.997-21.211,32.802-21.211,53.469v13.399h-8.694    c-11.223,0-20.352,9.13-20.352,20.351v48.356c0,11.223,9.129,20.352,20.352,20.352h48.357c11.223,0,20.352-9.13,20.352-20.352    v-48.357c0-11.222-9.13-20.351-20.352-20.351h-9.618v-13.399c0-26.556,21.605-48.16,48.16-48.16h122.2v61.559h-8.955    c-11.223,0-20.352,9.13-20.352,20.351v48.356c0,11.223,9.13,20.352,20.352,20.352H280c11.223,0,20.352-9.13,20.352-20.352v-48.356    c0-11.222-9.129-20.351-20.352-20.351h-9.357v-61.559h122.958c26.555,0,48.16,21.604,48.16,48.16v13.399h-9.544    c-11.223,0-20.352,9.129-20.352,20.351v48.356c0,11.223,9.131,20.352,20.352,20.352h48.357c11.223,0,20.352-9.13,20.352-20.352    v-48.356C500.926,426.676,491.795,417.547,480.574,417.547z M240.599,175.874c-23.166,6.561-40.194,27.883-40.194,53.123    s17.028,46.563,40.194,53.124v43.826h-122.2v-0.002c-11.541,0-22.495,2.533-32.366,7.04    c-8.137-15.968-13.136-33.322-14.744-51.165c22.63-6.899,39.144-27.966,39.144-52.824c0-24.978-16.676-46.123-39.475-52.917    c6.343-56.432,54.348-100.443,112.448-100.443h19.092c5.208,18.386,19.714,32.893,38.1,38.1V175.874z M427.53,333.695    c-10.268-4.965-21.779-7.751-33.929-7.751H270.643v-43.826c23.167-6.561,40.195-27.883,40.195-53.124    c0-25.239-17.028-46.562-40.195-53.123v-62.139c18.387-5.207,32.894-19.714,38.101-38.1h19.849    c58.144,0,106.179,44.079,112.463,100.575c-22.807,6.79-39.49,27.939-39.49,52.923c0,25.535,17.426,47.069,41.008,53.355    C440.879,300.358,435.78,317.73,427.53,333.695z"/>
	</g>
</g>
<g>
</g>
<g>
</g>
<g>
</g>
<g>
</g>
<g>
</g>
<g>
</g>
<g>
</g>
<g>
</g>
<g>
</g>
<g>
</g>
<g>
</g>
<g>
</g>
<g>
</g>
<g>
</g>
<g>
</g>
</svg>
