<?xml version="1.0" encoding="iso-8859-1"?>
<!-- Generator: Adobe Illustrator 19.0.0, SVG Export Plug-In . SVG Version: 6.00 Build 0)  -->
<svg xmlns="http://www.w3.org/2000/svg" xmlns:xlink="http://www.w3.org/1999/xlink" version="1.1" id="Capa_1" x="0px" y="0px" viewBox="0 0 512.001 512.001" style="enable-background:new 0 0 512.001 512.001;" xml:space="preserve">
<g>
	<g>
		<path d="M466.745,52.478h-420.2c-19.843,0-35.928,16.086-35.928,35.928c0,1.866,1.513,3.38,3.381,3.38h485.295    c1.867,0,3.381-1.513,3.381-3.381C502.672,68.563,486.587,52.478,466.745,52.478z"/>
	</g>
</g>
<g>
	<g>
		<path d="M502.672,389.222V125.174c0-1.867-1.513-3.381-3.381-3.381H13.997c-1.867,0-3.381,1.513-3.381,3.381v263.172    c-6.29,3.763-10.553,10.565-10.614,18.39c-0.226,29.066,23.345,52.786,52.36,52.786h20.126c1.502,0,2.72-1.217,2.72-2.72v-25.259    c0-8.076,6.202-15.027,14.268-15.414c8.616-0.412,15.739,6.461,15.739,14.985v25.687c0,1.502,1.218,2.72,2.72,2.72h5.563    c1.502,0,2.72-1.217,2.72-2.72v-25.259c0-8.076,6.202-15.027,14.268-15.414c8.616-0.412,15.739,6.461,15.739,14.985v25.687    c0,1.502,1.218,2.72,2.72,2.72h310.685c28.877,0,52.372-23.495,52.372-52.372C512.001,399.75,508.309,393.195,502.672,389.222z     M460.339,315.64c0,8.286-6.718,15.004-15.004,15.004h-19.289c-8.286,0-15.004-6.718-15.004-15.004    c0-8.286,6.718-15.003,15.004-15.003h19.289C453.623,300.636,460.339,307.354,460.339,315.64z M373.593,275.123    c-0.379,0.435-0.777,0.848-1.198,1.232c-0.043,0.039-0.089,0.075-0.132,0.114c-0.429,0.381-0.874,0.741-1.34,1.067    c-0.016,0.011-0.031,0.023-0.047,0.034c-0.456,0.318-0.932,0.602-1.418,0.866c-0.071,0.039-0.14,0.08-0.212,0.118    c-0.47,0.245-0.954,0.461-1.447,0.655c-0.091,0.036-0.181,0.072-0.272,0.106c-0.495,0.184-0.999,0.341-1.511,0.473    c-0.083,0.021-0.165,0.04-0.249,0.06c-0.53,0.126-1.066,0.228-1.608,0.296c-0.049,0.006-0.099,0.01-0.149,0.015    c-0.571,0.066-1.147,0.107-1.725,0.107c-0.028,0-0.056-0.005-0.084-0.005c-0.475-0.003-0.951-0.034-1.427-0.082    c-0.119-0.012-0.237-0.023-0.355-0.038c-0.494-0.062-0.986-0.147-1.476-0.259c-0.084-0.019-0.168-0.043-0.252-0.064    c-0.493-0.122-0.982-0.266-1.465-0.44c-0.031-0.011-0.062-0.02-0.093-0.031c-0.504-0.185-1-0.406-1.489-0.648    c-0.048-0.024-0.098-0.039-0.146-0.064l-36.519-18.57c-1.747-0.888-3.849-0.694-5.404,0.499l-41.644,31.966    c-0.227,0.174-0.462,0.33-0.695,0.489c-0.078,0.053-0.147,0.113-0.226,0.164c-0.019,0.012-0.039,0.022-0.058,0.035    c-0.14,0.091-0.284,0.171-0.427,0.257c-0.196,0.118-0.391,0.237-0.589,0.345c-0.164,0.089-0.331,0.169-0.497,0.252    c-0.186,0.092-0.372,0.184-0.56,0.268c-0.168,0.075-0.338,0.144-0.508,0.212c-0.194,0.078-0.388,0.153-0.584,0.222    c-0.165,0.058-0.331,0.114-0.498,0.166c-0.209,0.066-0.418,0.125-0.628,0.182c-0.157,0.042-0.313,0.083-0.471,0.12    c-0.23,0.053-0.46,0.098-0.691,0.14c-0.141,0.026-0.282,0.054-0.424,0.076c-0.267,0.041-0.535,0.07-0.802,0.096    c-0.108,0.011-0.216,0.026-0.324,0.034c-0.379,0.029-0.758,0.046-1.137,0.046c-0.022,0-0.044-0.004-0.066-0.004    c-0.567-0.002-1.132-0.037-1.694-0.103c-0.185-0.022-0.367-0.065-0.551-0.093c-0.398-0.062-0.795-0.125-1.187-0.219    c-0.21-0.05-0.414-0.119-0.621-0.178c-0.359-0.102-0.718-0.206-1.069-0.335c-0.217-0.08-0.428-0.176-0.641-0.265    c-0.33-0.139-0.658-0.28-0.979-0.443c-0.22-0.112-0.432-0.236-0.647-0.359c-0.299-0.171-0.594-0.346-0.882-0.538    c-0.219-0.146-0.432-0.303-0.644-0.462c-0.265-0.198-0.525-0.403-0.778-0.62c-0.213-0.182-0.419-0.372-0.623-0.567    c-0.235-0.226-0.462-0.46-0.684-0.704c-0.195-0.213-0.384-0.43-0.568-0.656c-0.09-0.11-0.19-0.207-0.277-0.32    c-0.156-0.203-0.288-0.417-0.432-0.626c-0.071-0.102-0.153-0.191-0.221-0.295l-23.916-36.549c-1.815-2.776-5.758-3.1-8.003-0.658    l-78.14,84.994c-0.02,0.022-0.043,0.04-0.063,0.062c-0.246,0.264-0.512,0.514-0.78,0.763c-0.124,0.116-0.243,0.241-0.37,0.351    c-0.18,0.156-0.377,0.297-0.566,0.446c-0.229,0.18-0.453,0.368-0.69,0.534c-0.003,0.002-0.005,0.004-0.007,0.006    c-0.363,0.253-0.735,0.483-1.112,0.699c-0.146,0.084-0.295,0.159-0.443,0.237c-0.28,0.148-0.561,0.288-0.846,0.417    c-0.138,0.062-0.275,0.124-0.414,0.182c-0.397,0.165-0.798,0.316-1.204,0.445c-0.023,0.007-0.045,0.016-0.067,0.024    c-0.457,0.143-0.919,0.259-1.383,0.357c-0.08,0.017-0.161,0.03-0.242,0.045c-0.391,0.076-0.784,0.135-1.178,0.179    c-0.092,0.01-0.183,0.022-0.275,0.031c-0.463,0.043-0.926,0.072-1.389,0.072c-0.016,0-0.032-0.003-0.048-0.003    c-0.523-0.001-1.046-0.037-1.568-0.093c-0.15-0.016-0.298-0.04-0.447-0.061c-0.405-0.056-0.808-0.127-1.207-0.215    c-0.143-0.032-0.286-0.063-0.428-0.099c-0.458-0.116-0.911-0.252-1.359-0.412c-0.066-0.024-0.134-0.042-0.201-0.066    c-0.513-0.191-1.018-0.412-1.512-0.662c-0.116-0.059-0.227-0.128-0.342-0.189c-0.356-0.192-0.706-0.396-1.05-0.618    c-0.174-0.112-0.343-0.231-0.512-0.351c-0.281-0.199-0.555-0.411-0.825-0.632c-0.168-0.137-0.336-0.271-0.499-0.417    c-0.055-0.049-0.114-0.091-0.169-0.141c-0.256-0.236-0.488-0.488-0.724-0.737c-0.099-0.105-0.205-0.199-0.302-0.307    c-0.396-0.441-0.757-0.903-1.091-1.378c-0.013-0.019-0.03-0.035-0.043-0.055l-31.87-45.806    c-4.731-6.801-3.054-16.152,3.749-20.884c6.803-4.733,16.152-3.054,20.885,3.747l17.552,25.228    c1.86,2.674,5.718,2.936,7.922,0.538L213.7,212.33c0.063-0.068,0.133-0.126,0.197-0.193c0.2-0.209,0.408-0.412,0.621-0.611    c0.175-0.163,0.351-0.323,0.531-0.476c0.179-0.151,0.363-0.297,0.55-0.441c0.234-0.18,0.47-0.354,0.712-0.519    c0.075-0.051,0.143-0.11,0.219-0.16c0.088-0.058,0.181-0.102,0.27-0.157c0.267-0.167,0.537-0.326,0.812-0.474    c0.173-0.094,0.347-0.183,0.522-0.269c0.259-0.127,0.52-0.247,0.785-0.358c0.206-0.087,0.412-0.169,0.621-0.247    c0.236-0.087,0.473-0.167,0.712-0.242c0.24-0.076,0.481-0.146,0.724-0.209c0.216-0.056,0.432-0.105,0.65-0.151    c0.262-0.056,0.524-0.106,0.787-0.148c0.211-0.033,0.422-0.059,0.634-0.083c0.265-0.03,0.53-0.056,0.795-0.072    c0.222-0.013,0.444-0.019,0.666-0.022c0.25-0.004,0.5-0.005,0.749,0.004c0.245,0.008,0.488,0.026,0.732,0.046    c0.224,0.019,0.448,0.039,0.672,0.068c0.266,0.034,0.531,0.079,0.796,0.127c0.2,0.037,0.4,0.075,0.599,0.12    c0.277,0.062,0.551,0.135,0.824,0.214c0.188,0.054,0.375,0.109,0.561,0.17c0.269,0.089,0.534,0.187,0.799,0.291    c0.193,0.076,0.384,0.154,0.573,0.237c0.242,0.107,0.48,0.222,0.717,0.342c0.211,0.107,0.42,0.218,0.627,0.336    c0.204,0.116,0.405,0.238,0.604,0.364c0.233,0.147,0.462,0.301,0.688,0.462c0.167,0.119,0.332,0.242,0.495,0.369    c0.24,0.186,0.474,0.381,0.703,0.584c0.082,0.072,0.169,0.133,0.25,0.208c0.07,0.064,0.128,0.135,0.197,0.2    c0.207,0.198,0.407,0.403,0.604,0.614c0.166,0.177,0.327,0.355,0.483,0.539c0.149,0.176,0.293,0.357,0.434,0.542    c0.182,0.236,0.358,0.475,0.525,0.719c0.05,0.074,0.108,0.14,0.157,0.216l26.184,40.018c1.621,2.478,5.007,3.053,7.356,1.25    l34.508-26.488c0.079-0.06,0.163-0.109,0.243-0.167c0.248-0.182,0.5-0.356,0.757-0.522c0.177-0.115,0.356-0.226,0.536-0.332    c0.226-0.133,0.455-0.258,0.688-0.378c0.221-0.115,0.442-0.226,0.667-0.329c0.201-0.092,0.404-0.177,0.608-0.259    c0.255-0.104,0.511-0.203,0.77-0.292c0.192-0.066,0.386-0.124,0.581-0.182c0.267-0.08,0.535-0.156,0.805-0.22    c0.208-0.05,0.417-0.09,0.627-0.131c0.255-0.049,0.509-0.097,0.765-0.133c0.241-0.034,0.483-0.057,0.726-0.079    c0.225-0.02,0.45-0.041,0.676-0.051c0.276-0.013,0.552-0.013,0.829-0.01c0.196,0.002,0.392,0.003,0.588,0.013    c0.294,0.014,0.588,0.042,0.882,0.073c0.185,0.02,0.37,0.04,0.554,0.066c0.286,0.042,0.571,0.096,0.857,0.154    c0.2,0.041,0.4,0.084,0.599,0.133c0.254,0.063,0.507,0.136,0.759,0.213c0.236,0.072,0.469,0.148,0.701,0.232    c0.211,0.076,0.42,0.158,0.628,0.244c0.27,0.111,0.536,0.23,0.801,0.357c0.096,0.046,0.194,0.081,0.289,0.129l31.753,16.145    c2.313,1.176,5.141,0.423,6.563-1.748l41.063-62.719c4.425-6.76,13.427-9.174,20.388-5.072c7.431,4.38,9.62,14.02,4.95,21.154    l-51.159,78.139c-0.023,0.036-0.052,0.065-0.076,0.101c-0.322,0.485-0.668,0.946-1.037,1.383    C373.688,275.017,373.64,275.069,373.593,275.123z M445.337,372.515h-56.192c-8.286,0-15.003-6.717-15.003-15.004    c0-8.286,6.718-15.003,15.004-15.003h56.192c8.286,0,15.003,6.718,15.003,15.003S453.623,372.515,445.337,372.515z"/>
	</g>
</g>
<g>
</g>
<g>
</g>
<g>
</g>
<g>
</g>
<g>
</g>
<g>
</g>
<g>
</g>
<g>
</g>
<g>
</g>
<g>
</g>
<g>
</g>
<g>
</g>
<g>
</g>
<g>
</g>
<g>
</g>
</svg>
