<?xml version="1.0" encoding="iso-8859-1"?>
<!-- Generator: Adobe Illustrator 19.0.0, SVG Export Plug-In . SVG Version: 6.00 Build 0)  -->
<svg xmlns="http://www.w3.org/2000/svg" xmlns:xlink="http://www.w3.org/1999/xlink" version="1.1" id="Capa_1" x="0px" y="0px" viewBox="0 0 512 512" style="enable-background:new 0 0 512 512;" xml:space="preserve">
<g>
	<g>
		<path d="M139.914,107.514h-14.138c-32.437,0-58.827,26.39-58.827,58.827v118.198c0,8.295,6.725,15.02,15.02,15.02    s15.02-6.725,15.02-15.02V166.341c0-15.873,12.914-28.786,28.786-28.786h14.138c8.295,0,15.02-6.725,15.02-15.02    C154.935,114.239,148.209,107.514,139.914,107.514z"/>
	</g>
</g>
<g>
	<g>
		<path d="M385.501,107.514h-12.135c-8.295,0-15.02,6.725-15.02,15.02c0,8.295,6.725,15.02,15.02,15.02h12.135    c15.873,0,28.786,12.914,28.786,28.786v64.124h-0.008v30.041h0.008v24.033c0,8.295,6.725,15.02,15.02,15.02    c8.295,0,15.02-6.725,15.02-15.02V166.341C444.328,133.904,417.938,107.514,385.501,107.514z"/>
	</g>
</g>
<g>
	<g>
		<path d="M139.041,309.573H24.898C11.169,309.573,0,320.742,0,334.471v107.418c0,13.729,11.169,24.898,24.898,24.898h114.143    c13.729,0,24.898-11.169,24.898-24.898V334.471C163.939,320.742,152.77,309.573,139.041,309.573z"/>
	</g>
</g>
<g>
	<g>
		<path d="M255.784,310.574h-0.717c-43.344,0-78.607,35.263-78.607,78.607c0,43.344,35.263,78.607,78.607,78.607h0.717    c43.344,0,78.607-35.263,78.607-78.607C334.391,345.837,299.128,310.574,255.784,310.574z"/>
	</g>
</g>
<g>
	<g>
		<path d="M487.102,309.573H372.959c-13.729,0-24.898,11.169-24.898,24.898v107.418c0,13.729,11.169,24.898,24.898,24.898h114.143    c13.729,0,24.898-11.169,24.898-24.898V334.471C512,320.742,500.831,309.573,487.102,309.573z"/>
	</g>
</g>
<g>
	<g>
		<path d="M313.278,44.212H199.135c-13.729,0-24.898,11.169-24.898,24.898v107.418c0,13.729,11.169,24.898,24.898,24.898h114.143    c13.729,0,24.898-11.169,24.898-24.898V69.11C338.176,55.381,327.007,44.212,313.278,44.212z"/>
	</g>
</g>
<g>
	<g>
		<path d="M369.218,230.465H142.032c-8.295,0-15.02,6.725-15.02,15.02c0,8.295,6.725,15.02,15.02,15.02h99.166v24.876    c0,8.295,6.725,15.02,15.02,15.02c8.295,0,15.02-6.725,15.02-15.02v-24.876h97.979c8.295,0,15.02-6.725,15.02-15.02    C384.238,237.19,377.513,230.465,369.218,230.465z"/>
	</g>
</g>
<g>
</g>
<g>
</g>
<g>
</g>
<g>
</g>
<g>
</g>
<g>
</g>
<g>
</g>
<g>
</g>
<g>
</g>
<g>
</g>
<g>
</g>
<g>
</g>
<g>
</g>
<g>
</g>
<g>
</g>
</svg>
