<?xml version="1.0" encoding="iso-8859-1"?>
<!-- Generator: Adobe Illustrator 19.0.0, SVG Export Plug-In . SVG Version: 6.00 Build 0)  -->
<svg xmlns="http://www.w3.org/2000/svg" xmlns:xlink="http://www.w3.org/1999/xlink" version="1.1" id="Capa_1" x="0px" y="0px" viewBox="0 0 512 512" style="enable-background:new 0 0 512 512;" xml:space="preserve">
<g>
	<g>
		<path d="M426.789,66.96C360.491,2.809,252.711,6.043,190.258,73.944c-27.352,29.738-41.795,67.157-43.337,105.005l72.587-27.596    c0.06-0.02,0.12-0.04,0.17-0.06c0.31-0.11,0.62-0.21,0.94-0.3c0.17-0.05,0.34-0.11,0.51-0.15c0.29-0.07,0.58-0.13,0.87-0.19    c0.21-0.04,0.41-0.08,0.62-0.11c0.25-0.04,0.49-0.06,0.74-0.08c0.25-0.03,0.5-0.06,0.75-0.07c0.21-0.01,0.41-0.01,0.62-0.01    c0.28,0,0.56,0,0.84,0.01c0.2,0.01,0.39,0.03,0.58,0.05c0.29,0.03,0.57,0.05,0.86,0.09c0.2,0.03,0.4,0.07,0.61,0.11    c0.26,0.05,0.52,0.1,0.78,0.16c0.24,0.06,0.47,0.13,0.71,0.2c0.22,0.07,0.44,0.13,0.65,0.2c0.27,0.1,0.53,0.21,0.8,0.32    c0.17,0.07,0.35,0.13,0.52,0.21c0.28,0.13,0.55,0.27,0.81,0.42c0.16,0.08,0.32,0.15,0.47,0.24c0.25,0.15,0.5,0.31,0.74,0.48    c0.17,0.1,0.33,0.21,0.49,0.32c0.21,0.15,0.41,0.32,0.62,0.48c0.18,0.15,0.37,0.29,0.55,0.45c0.16,0.15,0.32,0.3,0.47,0.45    c0.21,0.2,0.42,0.4,0.62,0.62c0.12,0.13,0.24,0.27,0.36,0.41c0.21,0.25,0.42,0.49,0.61,0.75c0.04,0.05,0.08,0.1,0.12,0.14    l25.839,35.22c2.662,3.628,8.071,3.655,10.768,0.053l64.387-85.975c0.06-0.08,0.12-0.15,0.18-0.23c0.19-0.24,0.39-0.48,0.6-0.71    c0.14-0.16,0.28-0.32,0.43-0.47c0.158-0.166,0.323-0.325,0.489-0.482c0.229-0.202,0.603-0.531,0.832-0.733    c0.109-0.089,0.217-0.179,0.329-0.265c0.25-0.19,0.5-0.37,0.75-0.54c0.09-0.05,0.16-0.12,0.24-0.17c0.08-0.05,0.16-0.09,0.23-0.13    c0.27-0.17,0.54-0.32,0.81-0.47c0.18-0.1,0.36-0.19,0.54-0.28c0.24-0.12,0.49-0.23,0.74-0.33c0.22-0.1,0.44-0.19,0.66-0.27    c0.22-0.08,0.43-0.15,0.65-0.22c0.26-0.08,0.52-0.16,0.78-0.23c0.19-0.04,0.38-0.09,0.58-0.13c0.28-0.06,0.56-0.12,0.85-0.16    c0.19-0.03,0.38-0.05,0.58-0.07c0.28-0.04,0.56-0.07,0.83-0.08c0.22-0.02,0.44-0.02,0.66-0.02c0.25-0.01,0.5-0.01,0.76,0    c0.25,0.01,0.5,0.03,0.75,0.05c0.22,0.02,0.44,0.04,0.65,0.06c0.28,0.04,0.55,0.09,0.83,0.14c0.19,0.04,0.39,0.07,0.58,0.11    c0.28,0.07,0.55,0.14,0.83,0.22c0.19,0.06,0.38,0.11,0.57,0.18c0.26,0.08,0.51,0.18,0.76,0.28c0.21,0.08,0.43,0.16,0.64,0.26    c0.21,0.09,0.42,0.2,0.63,0.31c0.25,0.12,0.49,0.25,0.73,0.38c0.17,0.1,0.34,0.21,0.5,0.31c0.27,0.17,0.53,0.35,0.79,0.53    c0.07,0.05,0.14,0.09,0.21,0.15c0.08,0.05,0.15,0.12,0.23,0.18c0.24,0.19,0.48,0.39,0.72,0.6c0.16,0.14,0.31,0.28,0.46,0.43    c0.19,0.18,0.38,0.37,0.56,0.57c0.18,0.19,0.35,0.38,0.52,0.58c0.14,0.17,0.27,0.33,0.4,0.5c0.19,0.25,0.37,0.5,0.54,0.75    c0.06,0.08,0.12,0.16,0.18,0.24l32.371,50.03c2.73,4.218,8.958,4.044,11.448-0.32l38.91-68.215    C439.809,80.684,433.648,73.597,426.789,66.96z"/>
	</g>
</g>
<g>
	<g>
		<path d="M462.704,118.124l-47.831,83.849v0.011h-0.001l-0.14,0.23c-0.18,0.32-0.37,0.62-0.56,0.92c-0.08,0.11-0.16,0.21-0.23,0.32    c-0.18,0.26-0.37,0.51-0.57,0.75c-0.08,0.11-0.17,0.21-0.26,0.32c-0.28,0.33-0.57,0.65-0.87,0.95c-0.02,0.01-0.04,0.03-0.05,0.04    c-0.32,0.31-0.65,0.6-1,0.88c-0.06,0.05-0.11,0.1-0.17,0.15c-0.38,0.29-0.76,0.57-1.16,0.83c0,0,0,0-0.01,0.01    c-0.02,0.01-0.05,0.02-0.07,0.04c-0.26,0.17-0.53,0.33-0.8,0.48c-0.11,0.06-0.21,0.11-0.32,0.17c-0.19,0.1-0.38,0.19-0.57,0.28    c-0.16,0.08-0.31,0.14-0.47,0.21c-0.14,0.06-0.29,0.12-0.43,0.18c-0.19,0.07-0.38,0.14-0.57,0.21c-0.12,0.04-0.23,0.08-0.35,0.11    c-0.21,0.07-0.42,0.14-0.64,0.2c-0.1,0.02-0.19,0.05-0.29,0.07c-0.23,0.06-0.46,0.11-0.69,0.16c-0.09,0.02-0.18,0.03-0.28,0.05    c-0.23,0.04-0.46,0.08-0.7,0.11c-0.11,0.02-0.22,0.03-0.34,0.04c-0.21,0.02-0.42,0.05-0.63,0.06c-0.27,0.02-0.54,0.02-0.81,0.03    h-0.17c0,0,0,0-0.01,0c0,0-0.01,0-0.02,0c-1.2,0-2.401-0.14-3.591-0.44c-0.01,0-0.02,0-0.03-0.01c-0.55-0.13-1.1-0.31-1.63-0.51    c-0.06-0.02-0.13-0.04-0.19-0.07c-0.48-0.19-0.96-0.41-1.43-0.65c-0.11-0.05-0.21-0.11-0.32-0.17c-0.07-0.04-0.15-0.07-0.23-0.12    c-0.28-0.16-0.54-0.34-0.8-0.51c-0.16-0.1-0.32-0.19-0.47-0.3c-0.46-0.33-0.89-0.68-1.3-1.05c-0.12-0.1-0.23-0.22-0.34-0.32    c-0.32-0.31-0.63-0.63-0.92-0.96c-0.11-0.12-0.21-0.25-0.32-0.37c-0.31-0.38-0.6-0.78-0.87-1.18c-0.04-0.07-0.1-0.12-0.14-0.19    l-34.843-53.839c-2.535-3.916-8.195-4.11-10.99-0.375l-63.15,84.341c-0.03,0.03-0.06,0.07-0.09,0.11l-0.01,0.02    c-0.02,0.02-0.03,0.03-0.05,0.05c-0.31,0.42-0.65,0.81-1.01,1.2c-0.14,0.15-0.28,0.28-0.42,0.42c-0.24,0.24-0.49,0.47-0.74,0.69    c-0.2,0.17-0.4,0.33-0.6,0.49c-0.11,0.08-0.2,0.17-0.31,0.25c-0.16,0.12-0.32,0.21-0.48,0.32c-0.14,0.1-0.28,0.2-0.43,0.29    c-0.42,0.26-0.85,0.5-1.28,0.72c-0.1,0.05-0.2,0.09-0.3,0.14c-0.39,0.18-0.79,0.35-1.19,0.5c-0.1,0.04-0.2,0.08-0.3,0.11    c-1,0.34-2.02,0.58-3.041,0.7c-0.11,0.02-0.21,0.03-0.31,0.04c-0.51,0.05-1.02,0.09-1.54,0.09c0,0,0,0-0.01,0h-0.01    c-0.52,0-1.03-0.04-1.55-0.09c-0.11-0.01-0.21-0.03-0.31-0.04c-0.52-0.06-1.03-0.15-1.53-0.26c-0.01-0.01-0.01-0.01-0.01-0.01    c-0.52-0.12-1.03-0.27-1.54-0.45c-0.1-0.03-0.2-0.07-0.29-0.11c-0.41-0.15-0.81-0.32-1.21-0.51c-0.1-0.05-0.21-0.09-0.31-0.14    c-0.44-0.23-0.87-0.48-1.3-0.75c-0.14-0.09-0.27-0.18-0.41-0.28c-0.17-0.12-0.35-0.23-0.52-0.36c-0.1-0.07-0.2-0.16-0.3-0.24    c-0.2-0.16-0.39-0.32-0.58-0.49c-0.26-0.23-0.51-0.47-0.76-0.71c-0.13-0.14-0.27-0.27-0.4-0.42c-0.37-0.39-0.71-0.8-1.03-1.23    c-0.01-0.01-0.02-0.02-0.03-0.04l-0.01-0.01c-0.03-0.04-0.06-0.08-0.09-0.12l-33.301-45.37c-1.782-2.43-4.968-3.37-7.784-2.299    l-66.109,25.134c4.013,26.821,14.626,52.831,31.818,75.391l-24.724-24.724c-5.858-5.859-15.358-5.859-21.218,0    c-5.859,5.859-5.859,15.359,0,21.218l81.266,81.265c2.93,2.93,6.77,4.395,10.608,4.395s7.68-1.464,10.608-4.395    c5.859-5.859,5.859-15.359,0-21.218l-25.127-25.127c29.447,22.446,64.758,33.676,100.074,33.676    c42.31,0,84.629-16.104,116.837-48.321C478.547,252.785,489.86,178.868,462.704,118.124z"/>
	</g>
</g>
<g>
	<g>
		<path d="M146.921,178.949l-97.602,37.108c-7.742,2.941-11.633,11.613-8.692,19.354c2.281,5.991,7.982,9.672,14.023,9.672    c1.78,0,3.581-0.31,5.331-0.98l88.64-33.698C147.061,199.993,146.491,189.451,146.921,178.949z"/>
	</g>
</g>
<g>
	<g>
		<path d="M504.432,14.701c-7.202-4.111-16.364-1.6-20.465,5.591l-38.699,67.836c6.952,9.482,12.763,19.544,17.434,29.997    l47.321-82.959C514.135,27.964,511.624,18.802,504.432,14.701z"/>
	</g>
</g>
<g>
	<g>
		<path d="M174.479,364.461l-39.847-39.848c-3.329-3.329-8.726-3.327-12.052,0.005L10.73,436.651    c-14.306,14.307-14.306,37.587,0,51.895c7.154,7.154,16.551,10.73,25.947,10.73c9.397,0,18.793-3.577,25.947-10.73    l111.861-112.043C177.806,373.175,177.804,367.786,174.479,364.461z"/>
	</g>
</g>
<g>
</g>
<g>
</g>
<g>
</g>
<g>
</g>
<g>
</g>
<g>
</g>
<g>
</g>
<g>
</g>
<g>
</g>
<g>
</g>
<g>
</g>
<g>
</g>
<g>
</g>
<g>
</g>
<g>
</g>
</svg>
