<?xml version="1.0" encoding="iso-8859-1"?>
<!-- Generator: Adobe Illustrator 19.0.0, SVG Export Plug-In . SVG Version: 6.00 Build 0)  -->
<svg xmlns="http://www.w3.org/2000/svg" xmlns:xlink="http://www.w3.org/1999/xlink" version="1.1" id="Capa_1" x="0px" y="0px" viewBox="0 0 512 512" style="enable-background:new 0 0 512 512;" xml:space="preserve">
<g>
	<g>
		<path d="M426.872,105.128l-78.434-84.105c-3.977-4.265-11.122-1.451-11.122,4.382v84.105c0,3.548,2.877,6.425,6.425,6.425h78.433    C427.789,115.934,430.702,109.235,426.872,105.128z"/>
	</g>
</g>
<g>
	<g>
		<path d="M439.007,145.951h-116.7c-8.289,0-15.008-6.72-15.008-15.009c0-0.132,0.016-0.26,0.02-0.391    c-0.003-0.131-0.02-0.259-0.02-0.391V6.425c0-3.548-2.877-6.425-6.425-6.425H85.653c-10.54,0-19.084,8.544-19.084,19.084v473.833    c0,10.539,8.544,19.083,19.083,19.083h340.697c10.539,0,19.083-8.544,19.083-19.083V152.375    C445.431,148.827,442.555,145.951,439.007,145.951z M138.916,57.576h70.92c8.289,0,15.008,6.72,15.008,15.008    s-6.72,15.008-15.008,15.008h-70.92c-8.289,0-15.009-6.72-15.009-15.008S130.627,57.576,138.916,57.576z M138.916,106.713h123.986    c8.289,0,15.008,6.72,15.008,15.008s-6.72,15.009-15.008,15.009H138.916c-8.289,0-15.009-6.72-15.009-15.009    S130.627,106.713,138.916,106.713z M265.743,283.367v93.665c0,8.289-6.719,15.008-15.009,15.008    c-8.29,0-15.008-6.72-15.008-15.008v-93.665c0-8.289,6.72-15.009,15.008-15.009C259.023,268.358,265.743,275.078,265.743,283.367z     M213.44,233.338v143.693c0,8.289-6.72,15.008-15.008,15.008s-15.008-6.72-15.008-15.008V233.338    c0-8.289,6.72-15.008,15.008-15.008S213.44,225.049,213.44,233.338z M160.41,313.104v63.649c0,8.289-6.72,15.008-15.008,15.008    s-15.008-6.72-15.008-15.008v-63.649c0-8.289,6.72-15.009,15.008-15.009S160.41,304.816,160.41,313.104z M299.776,456.888h-160.86    c-8.289,0-15.009-6.72-15.009-15.008s6.72-15.008,15.009-15.008h160.86c8.289,0,15.008,6.72,15.008,15.008    S308.065,456.888,299.776,456.888z M317.23,377.032c0,8.289-6.72,15.008-15.008,15.008c-8.289,0-15.009-6.72-15.009-15.008    V193.538c0-8.289,6.72-15.008,15.009-15.008c8.289,0,15.008,6.72,15.008,15.008V377.032z M355.36,456.888h-9.005    c-8.289,0-15.008-6.72-15.008-15.008s6.72-15.008,15.008-15.008h9.005c8.289,0,15.008,6.72,15.008,15.008    S363.649,456.888,355.36,456.888z M370.369,377.032c0,8.289-6.72,15.008-15.008,15.008s-15.009-6.72-15.009-15.008V233.338    c0-8.289,6.72-15.008,15.009-15.008s15.008,6.72,15.008,15.008V377.032z"/>
	</g>
</g>
<g>
</g>
<g>
</g>
<g>
</g>
<g>
</g>
<g>
</g>
<g>
</g>
<g>
</g>
<g>
</g>
<g>
</g>
<g>
</g>
<g>
</g>
<g>
</g>
<g>
</g>
<g>
</g>
<g>
</g>
</svg>
