<?xml version="1.0" encoding="iso-8859-1"?>
<!-- Generator: Adobe Illustrator 19.0.0, SVG Export Plug-In . SVG Version: 6.00 Build 0)  -->
<svg xmlns="http://www.w3.org/2000/svg" xmlns:xlink="http://www.w3.org/1999/xlink" version="1.1" id="Capa_1" x="0px" y="0px" viewBox="0 0 512.003 512.003" style="enable-background:new 0 0 512.003 512.003;" xml:space="preserve">
<g>
	<g>
		<path d="M254.47,63.967c-95.522,0-173.235,77.713-173.235,173.234c0,95.522,77.713,173.235,173.235,173.235    S427.704,332.723,427.704,237.2C427.704,141.679,349.991,63.967,254.47,63.967z M290.806,297.61    c-5.507,4.509-12.314,7.674-20.402,9.517v25.587c0,8.285-6.717,15.001-15.001,15.001s-15.001-6.717-15.001-15.001v-24.237    c-9.605-0.995-18.104-3.296-25.484-6.916c-10.179-4.99-15.264-10.751-15.264-17.281c0-3.456,1.26-7.057,3.789-10.8    c2.524-3.744,5.44-5.617,8.744-5.617c2.133,0,4.806,0.963,8.015,2.889c3.204,1.926,7.43,3.893,12.677,5.905    c5.247,2.011,11.461,3.015,18.653,3.015c14.184,0,21.276-4.014,21.276-12.046c0-4.482-2.353-8.029-7.056-10.647    c-4.707-2.614-10.368-4.761-16.992-6.444c-6.625-1.679-13.298-3.686-20.017-6.022c-6.724-2.335-12.434-6.26-17.137-11.768    c-4.707-5.508-7.057-12.56-7.057-21.155c0-11.916,4.126-22.172,12.384-30.767c5.604-5.838,13.433-9.689,23.468-11.563v-24.673    c0-8.285,6.717-15.001,15.001-15.001c8.285,0,15.001,6.717,15.001,15.001v24.325c6.271,0.889,12.12,2.372,17.523,4.485    c9.311,3.649,13.968,8.064,13.968,13.248c0,3.267-1.296,7.057-3.888,11.376c-2.592,4.32-5.81,6.48-9.648,6.48    c-1.539,0-5.716-1.197-12.528-3.6c-6.818-2.398-13.203-3.6-19.152-3.6c-6.53,0-11.521,1.31-14.976,3.924s-5.184,5.508-5.184,8.686    s1.728,5.792,5.184,7.844c3.456,2.057,7.727,3.645,12.816,4.765c5.085,1.121,10.548,2.659,16.38,4.621    c5.833,1.962,11.246,4.248,16.232,6.863c4.986,2.619,9.176,6.683,12.564,12.19c3.384,5.508,5.08,12.186,5.08,20.03    C304.774,279.523,300.117,289.986,290.806,297.61z"/>
	</g>
</g>
<g>
	<g>
		<path d="M496.999,219.941c-8.285,0-15.001,6.717-15.001,15.001c0,42.22-12.105,83.156-35.008,118.384    c-16.323,25.107-37.487,46.429-62.157,62.829l1.381-5.986c1.863-8.073-3.17-16.127-11.243-17.991    c-8.076-1.865-16.127,3.17-17.991,11.244l-9.001,38.998c-0.034,0.146-0.049,0.291-0.078,0.437    c-0.043,0.213-0.095,0.423-0.128,0.638c-0.013,0.083-0.018,0.165-0.029,0.248c-0.029,0.207-0.046,0.413-0.066,0.619    c-0.019,0.199-0.047,0.397-0.059,0.597c-0.005,0.094-0.004,0.188-0.008,0.282c-0.008,0.211-0.005,0.419-0.004,0.629    c0.001,0.185-0.006,0.37,0.001,0.556c0.004,0.099,0.014,0.196,0.02,0.295c0.013,0.215,0.038,0.427,0.06,0.64    c0.018,0.176,0.029,0.351,0.054,0.527c0.014,0.096,0.032,0.191,0.048,0.287c0.036,0.223,0.083,0.442,0.129,0.662    c0.034,0.164,0.059,0.329,0.099,0.492c0.022,0.09,0.049,0.177,0.072,0.266c0.062,0.237,0.137,0.468,0.211,0.701    c0.047,0.148,0.082,0.298,0.134,0.446c0.028,0.079,0.061,0.155,0.09,0.233c0.085,0.23,0.182,0.454,0.278,0.679    c0.07,0.165,0.13,0.334,0.206,0.497c0.029,0.062,0.063,0.121,0.093,0.183c0.062,0.129,0.129,0.255,0.195,0.381    c0.102,0.196,0.204,0.392,0.314,0.582c0.053,0.092,0.11,0.182,0.166,0.274c0.057,0.094,0.113,0.189,0.173,0.282    c0.13,0.204,0.266,0.403,0.404,0.599c0.061,0.086,0.121,0.173,0.184,0.258c0.257,0.348,0.523,0.686,0.806,1.007    c0.005,0.006,0.01,0.012,0.015,0.018c0.068,0.077,0.139,0.149,0.208,0.224c0.06,0.065,0.123,0.127,0.184,0.192    c0.177,0.185,0.355,0.368,0.541,0.543c0.075,0.071,0.154,0.139,0.231,0.209c0.081,0.073,0.16,0.147,0.243,0.219    c0.172,0.149,0.347,0.291,0.525,0.431c0.105,0.083,0.209,0.167,0.317,0.248c0.056,0.042,0.109,0.088,0.166,0.129    c0.056,0.041,0.117,0.077,0.174,0.117c0.228,0.161,0.457,0.32,0.693,0.467c0.071,0.044,0.146,0.083,0.218,0.127    c0.133,0.08,0.269,0.157,0.405,0.233c0.172,0.096,0.344,0.19,0.519,0.279c0.125,0.064,0.251,0.127,0.379,0.187    c0.092,0.044,0.183,0.09,0.276,0.132c0.24,0.108,0.486,0.205,0.731,0.3c0.084,0.033,0.166,0.07,0.251,0.101    c0.065,0.024,0.132,0.044,0.197,0.067c0.116,0.041,0.235,0.077,0.353,0.115c0.24,0.078,0.482,0.152,0.726,0.218    c0.046,0.012,0.089,0.031,0.136,0.043l41.146,10.668c1.263,0.327,2.528,0.483,3.775,0.483c6.671,0,12.759-4.482,14.511-11.24    c2.079-8.021-2.736-16.207-10.756-18.287l-5.227-1.355c27.706-18.579,51.483-42.635,69.862-70.905    c26.075-40.107,39.858-86.698,39.858-134.738C512,226.657,505.283,219.941,496.999,219.941z"/>
	</g>
</g>
<g>
	<g>
		<path d="M114.609,55.403c0-0.032-0.005-0.062-0.006-0.094c0-0.03,0.003-0.058,0.003-0.088c-0.003-0.154-0.025-0.304-0.033-0.457    c-0.013-0.264-0.021-0.527-0.049-0.79c-0.007-0.066-0.014-0.131-0.022-0.196c-0.021-0.183-0.057-0.36-0.085-0.54    c-0.037-0.238-0.068-0.476-0.117-0.713c-0.016-0.077-0.031-0.153-0.048-0.229c-0.04-0.183-0.094-0.359-0.141-0.539    c-0.056-0.216-0.107-0.433-0.173-0.647c-0.025-0.08-0.049-0.16-0.075-0.24c-0.06-0.184-0.134-0.361-0.201-0.542    c-0.073-0.197-0.141-0.396-0.223-0.591c-0.033-0.078-0.065-0.155-0.099-0.232c-0.083-0.19-0.18-0.371-0.271-0.557    c-0.087-0.177-0.167-0.355-0.261-0.529c-0.038-0.07-0.075-0.14-0.114-0.209c-0.115-0.205-0.244-0.399-0.367-0.597    c-0.093-0.15-0.178-0.303-0.277-0.45c-0.039-0.058-0.078-0.114-0.118-0.171c-0.146-0.21-0.305-0.408-0.461-0.609    c-0.038-0.049-0.073-0.099-0.111-0.147c-0.064-0.08-0.117-0.166-0.182-0.245c-0.006-0.007-0.012-0.013-0.018-0.02    c-0.032-0.039-0.067-0.076-0.099-0.114c-0.174-0.205-0.361-0.398-0.545-0.594c-0.12-0.127-0.231-0.263-0.356-0.387    c-0.03-0.029-0.061-0.056-0.091-0.085c-0.198-0.192-0.408-0.37-0.616-0.552c-0.126-0.11-0.246-0.229-0.376-0.335    c-0.039-0.032-0.078-0.064-0.118-0.096c-0.214-0.171-0.44-0.325-0.663-0.484c-0.132-0.094-0.258-0.195-0.393-0.285    c-0.041-0.027-0.08-0.056-0.121-0.083c-0.236-0.154-0.484-0.289-0.728-0.429c-0.138-0.079-0.272-0.164-0.412-0.239    c-0.033-0.017-0.064-0.039-0.097-0.056c-0.26-0.136-0.531-0.252-0.8-0.373c-0.138-0.062-0.272-0.13-0.412-0.188    c-0.309-0.128-0.627-0.237-0.946-0.344c-0.144-0.048-0.284-0.103-0.43-0.147c-0.317-0.096-0.64-0.172-0.965-0.247    c-0.159-0.037-0.315-0.08-0.476-0.111c-0.308-0.06-0.622-0.101-0.937-0.142c-0.17-0.022-0.336-0.054-0.508-0.071    c-0.031-0.003-0.062-0.005-0.094-0.008c-0.254-0.023-0.512-0.027-0.77-0.037c-0.142-0.006-0.284-0.019-0.426-0.02    c-0.057-0.001-0.113-0.009-0.17-0.009c-0.003,0-0.005,0-0.008,0c-0.002,0-0.005,0-0.007,0c-0.04,0-0.081,0-0.121,0    c-0.031,0-0.061,0.005-0.092,0.005c-0.03,0-0.06-0.003-0.09-0.003L53.47,41.498c-8.283,0.174-14.856,7.03-14.683,15.313    c0.171,8.176,6.854,14.686,14.991,14.686c0.107,0,0.214-0.001,0.321-0.003l7.683-0.161C22.16,116.227,0,174.053,0,234.942    c0,8.285,6.717,15.001,15.001,15.001s15.001-6.717,15.001-15.001c0-53.82,19.706-104.915,54.915-144.468l0.033,3.778    c0.073,8.24,6.775,14.868,14.998,14.868c0.045,0,0.091,0,0.136,0c8.285-0.074,14.94-6.85,14.867-15.134L114.609,55.403z"/>
	</g>
</g>
<g>
</g>
<g>
</g>
<g>
</g>
<g>
</g>
<g>
</g>
<g>
</g>
<g>
</g>
<g>
</g>
<g>
</g>
<g>
</g>
<g>
</g>
<g>
</g>
<g>
</g>
<g>
</g>
<g>
</g>
</svg>
