<?xml version="1.0" encoding="iso-8859-1"?>
<!-- Generator: Adobe Illustrator 19.0.0, SVG Export Plug-In . SVG Version: 6.00 Build 0)  -->
<svg xmlns="http://www.w3.org/2000/svg" xmlns:xlink="http://www.w3.org/1999/xlink" version="1.1" id="Capa_1" x="0px" y="0px" viewBox="0 0 512 512" style="enable-background:new 0 0 512 512;" xml:space="preserve">
<g>
	<g>
		<path d="M357.868,0H154.132c-39.691,0-71.981,32.291-71.981,71.982V492.93c0,6.364,3.46,12.231,9.03,15.311    c5.57,3.078,12.378,2.891,17.771-0.496l67.57-42.441l70.179,44.036c2.826,1.772,6.063,2.659,9.3,2.659    c3.24,0,6.48-0.888,9.305-2.663l70.103-44.033l67.646,42.448c5.39,3.383,12.198,3.57,17.766,0.491    c5.569-3.08,9.028-8.946,9.028-15.31V71.982C429.849,32.291,397.559,0,357.868,0z M198.586,218.513    c2.841-4.214,6.123-6.32,9.84-6.32c2.401,0,5.408,1.083,9.019,3.252c3.606,2.168,8.362,4.381,14.267,6.644    c5.905,2.263,12.899,3.393,20.993,3.393c15.964,0,23.946-4.518,23.946-13.558c0-5.044-2.648-9.035-7.941-11.983    c-5.298-2.943-11.669-5.359-19.124-7.253c-7.455-1.889-14.965-4.148-22.527-6.776c-7.567-2.628-13.994-7.045-19.286-13.244    c-5.298-6.199-7.941-14.135-7.941-23.809c0-13.411,4.644-24.953,13.938-34.627c6.66-6.937,16.116-11.374,28.334-13.338V73.451    c0-8.263,6.699-14.962,14.962-14.962c8.263,0,14.962,6.699,14.962,14.962v27.105c7.794,0.955,15.01,2.725,21.64,5.321    c10.479,4.108,15.721,9.076,15.721,14.91c0,3.677-1.459,7.941-4.377,12.804c-2.917,4.862-6.539,7.293-10.859,7.293    c-1.732,0-6.432-1.348-14.099-4.052c-7.673-2.7-14.86-4.052-21.556-4.052c-7.349,0-12.965,1.474-16.855,4.416    c-3.889,2.943-5.834,6.199-5.834,9.774c0,3.576,1.945,6.519,5.834,8.828c3.889,2.314,8.696,4.103,14.424,5.363    c5.723,1.261,11.871,2.992,18.435,5.201c6.564,2.208,12.656,4.781,18.268,7.724c5.612,2.948,10.327,7.521,14.14,13.719    c3.808,6.199,5.718,13.715,5.718,22.543c0,14.965-5.242,26.742-15.72,35.321c-6.63,5.429-14.927,9.135-24.882,11.13v28.378    c0,8.263-6.699,14.962-14.962,14.962c-8.263,0-14.962-6.699-14.962-14.962v-27.095c-11.602-1.001-21.807-3.654-30.603-7.968    c-11.456-5.616-17.18-12.099-17.18-19.448C194.322,226.778,195.739,222.727,198.586,218.513z M234.724,407.33h-21.706    c-8.263,0-14.962-6.699-14.962-14.962c0-8.263,6.699-14.962,14.962-14.962h21.706c8.263,0,14.962,6.699,14.962,14.962    C249.686,400.631,242.987,407.33,234.724,407.33z M173.223,358.912c-8.263,0-14.962-6.699-14.962-14.962    s6.699-14.962,14.962-14.962h161.353c8.263,0,14.962,6.699,14.962,14.962s-6.698,14.962-14.962,14.962H173.223z M334.576,407.33    h-61.605c-8.263,0-14.962-6.699-14.962-14.962c0-8.263,6.699-14.962,14.962-14.962h61.606c8.263,0,14.962,6.699,14.962,14.962    C349.54,400.631,342.841,407.33,334.576,407.33z"/>
	</g>
</g>
<g>
</g>
<g>
</g>
<g>
</g>
<g>
</g>
<g>
</g>
<g>
</g>
<g>
</g>
<g>
</g>
<g>
</g>
<g>
</g>
<g>
</g>
<g>
</g>
<g>
</g>
<g>
</g>
<g>
</g>
</svg>
