<?xml version="1.0" encoding="iso-8859-1"?>
<!-- Generator: Adobe Illustrator 19.0.0, SVG Export Plug-In . SVG Version: 6.00 Build 0)  -->
<svg xmlns="http://www.w3.org/2000/svg" xmlns:xlink="http://www.w3.org/1999/xlink" version="1.1" id="Capa_1" x="0px" y="0px" viewBox="0 0 512 512" style="enable-background:new 0 0 512 512;" xml:space="preserve">
<g>
	<g>
		<path d="M357.868,0H154.133c-39.691,0-71.981,32.291-71.981,71.982V492.93c0,6.364,3.46,12.231,9.03,15.311    c5.571,3.079,12.379,2.889,17.77-0.496l67.57-42.441l70.176,44.035c2.826,1.773,6.065,2.66,9.302,2.66    c3.24,0,6.48-0.888,9.305-2.663l70.102-44.032l67.646,42.447l0.002,0.001c5.388,3.381,12.198,3.569,17.766,0.488    c5.568-3.079,9.027-8.946,9.027-15.309V71.982C429.85,32.291,397.559,0,357.868,0z M188.96,181.483    c0-1.411,0.037-2.815,0.101-4.211h-15.837c-8.263,0-14.962-6.699-14.962-14.962c0-8.263,6.699-14.962,14.962-14.962h22.384    c13.532-33.332,46.257-56.9,84.388-56.9c24.823,0,48.02,9.809,65.316,27.622c5.756,5.928,5.617,15.401-0.312,21.158    c-5.925,5.757-15.399,5.619-21.158-0.311c-11.612-11.959-27.183-18.544-43.847-18.544c-21.064,0-39.672,10.712-50.664,26.975    h24.348c8.263,0,14.962,6.699,14.962,14.962c0,8.263-6.699,14.962-14.962,14.962h-34.632c-0.096,1.393-0.162,2.794-0.162,4.211    c0,1.285,0.053,2.557,0.132,3.821h34.662c8.263,0,14.962,6.699,14.962,14.962c0,8.263-6.699,14.962-14.962,14.962H229.08    c10.957,16.478,29.686,27.365,50.915,27.365c15.363,0,30.047-5.722,41.347-16.11c6.083-5.594,15.548-5.196,21.141,0.888    c5.593,6.083,5.196,15.548-0.888,21.141c-16.838,15.481-38.714,24.006-61.601,24.006c-38.279,0-71.114-23.751-84.548-57.289    h-22.224c-8.263,0-14.962-6.699-14.962-14.962s6.699-14.962,14.962-14.962h15.823C188.993,184.036,188.96,182.764,188.96,181.483z     M234.724,407.33h-21.706c-8.263,0-14.962-6.699-14.962-14.962c0-8.263,6.699-14.962,14.962-14.962h21.706    c8.263,0,14.962,6.699,14.962,14.962C249.686,400.631,242.988,407.33,234.724,407.33z M334.577,407.33h-61.606    c-8.263,0-14.962-6.699-14.962-14.962c0-8.263,6.699-14.962,14.962-14.962h61.606c8.263,0,14.962,6.699,14.962,14.962    C349.539,400.631,342.84,407.33,334.577,407.33z M334.577,358.912H173.223c-8.263,0-14.962-6.699-14.962-14.962    s6.699-14.962,14.962-14.962h161.354c8.263,0,14.962,6.699,14.962,14.962S342.84,358.912,334.577,358.912z"/>
	</g>
</g>
<g>
</g>
<g>
</g>
<g>
</g>
<g>
</g>
<g>
</g>
<g>
</g>
<g>
</g>
<g>
</g>
<g>
</g>
<g>
</g>
<g>
</g>
<g>
</g>
<g>
</g>
<g>
</g>
<g>
</g>
</svg>
