<?xml version="1.0" encoding="iso-8859-1"?>
<!-- Generator: Adobe Illustrator 19.0.0, SVG Export Plug-In . SVG Version: 6.00 Build 0)  -->
<svg xmlns="http://www.w3.org/2000/svg" xmlns:xlink="http://www.w3.org/1999/xlink" version="1.1" id="Layer_1" x="0px" y="0px" viewBox="0 0 512 512" style="enable-background:new 0 0 512 512;" xml:space="preserve">
<g>
	<g>
		<path d="M494.933,229.784h-28.441v-15.38H45.508v15.38H17.067C7.641,229.784,0,237.426,0,246.851v70.837    c0,9.425,7.641,17.067,17.067,17.067h28.441v3.371c0,21.958,17.865,39.823,39.823,39.823h113.791    c20.637,0,37.679-15.492,39.644-36.044l2.444-25.681h29.58l2.445,25.689c1.964,20.544,19.006,36.036,39.643,36.036h113.791    c21.958,0,39.823-17.865,39.823-39.823v-3.371h28.441c9.425,0,17.067-7.641,17.067-17.067v-70.837    C512,237.424,504.359,229.784,494.933,229.784z"/>
	</g>
</g>
<g>
	<g>
		<path d="M426.669,134.051H85.331c-21.958,0-39.823,17.865-39.823,39.823v6.396h420.983v-6.396    C466.492,151.916,448.627,134.051,426.669,134.051z"/>
	</g>
</g>
<g>
</g>
<g>
</g>
<g>
</g>
<g>
</g>
<g>
</g>
<g>
</g>
<g>
</g>
<g>
</g>
<g>
</g>
<g>
</g>
<g>
</g>
<g>
</g>
<g>
</g>
<g>
</g>
<g>
</g>
</svg>
