<?xml version="1.0" encoding="iso-8859-1"?>
<!-- Generator: Adobe Illustrator 19.0.0, SVG Export Plug-In . SVG Version: 6.00 Build 0)  -->
<svg xmlns="http://www.w3.org/2000/svg" xmlns:xlink="http://www.w3.org/1999/xlink" version="1.1" id="Layer_1" x="0px" y="0px" viewBox="0 0 512 512" style="enable-background:new 0 0 512 512;" xml:space="preserve">
<g>
	<g>
		<path d="M464.765,487.466L274.98,97.536l35.528-72.996c4.124-8.475,0.598-18.689-7.877-22.815    c-8.475-4.126-18.689-0.598-22.815,7.877l-23.818,48.935L232.18,9.602c-4.124-8.475-14.339-12.001-22.815-7.877    c-8.475,4.124-12.001,14.339-7.877,22.815l35.528,72.996L47.232,487.466c-5.5,11.3,2.73,24.535,15.345,24.535h119.466V403.912    c0-40.779,33.176-73.955,73.955-73.955s73.955,33.176,73.955,73.955V512h119.466C461.988,512,470.286,498.808,464.765,487.466z"/>
	</g>
</g>
<g>
</g>
<g>
</g>
<g>
</g>
<g>
</g>
<g>
</g>
<g>
</g>
<g>
</g>
<g>
</g>
<g>
</g>
<g>
</g>
<g>
</g>
<g>
</g>
<g>
</g>
<g>
</g>
<g>
</g>
</svg>
