<?xml version="1.0" encoding="iso-8859-1"?>
<!-- Generator: Adobe Illustrator 19.0.0, SVG Export Plug-In . SVG Version: 6.00 Build 0)  -->
<svg xmlns="http://www.w3.org/2000/svg" xmlns:xlink="http://www.w3.org/1999/xlink" version="1.1" id="Layer_1" x="0px" y="0px" viewBox="0 0 512 512" style="enable-background:new 0 0 512 512;" xml:space="preserve">
<g>
	<g>
		<path d="M440.22,18.732C440.22,8.387,431.833,0,421.488,0h-67.596c-6.614,0-12.738,3.488-16.111,9.177l-63.05,106.31v49.587    h224.186C463.632,140.214,440.22,82.328,440.22,18.732z"/>
	</g>
</g>
<g>
	<g>
		<path d="M174.206,9.176C170.833,3.488,164.709,0,158.096,0H90.512C80.167,0,71.78,8.387,71.78,18.732    c0,63.597-23.412,121.483-58.699,146.342h224.187v-49.578L174.206,9.176z"/>
	</g>
</g>
<g>
	<g>
		<path d="M339.741,301.303H172.258c-10.345,0-18.732,8.387-18.732,18.732v89.324c0,10.345,8.387,18.732,18.732,18.732h167.484    c10.345,0,18.732-8.387,18.73-18.732v-89.324C358.472,309.69,350.086,301.303,339.741,301.303z"/>
	</g>
</g>
<g>
	<g>
		<path d="M172.258,465.554c-30.986,0-56.195-25.209-56.195-56.195v-25.932H0v81.931C0,491.077,20.923,512,46.642,512h190.626    v-46.446H172.258z"/>
	</g>
</g>
<g>
	<g>
		<path d="M0,202.537v143.426h116.063v-25.93c0-30.986,25.209-56.195,56.195-56.195h65.01v-61.301H0z"/>
	</g>
</g>
<g>
	<g>
		<path d="M274.732,202.537v61.301h65.01c30.986,0,56.195,25.209,56.195,56.195v25.93H512V202.537H274.732z"/>
	</g>
</g>
<g>
	<g>
		<path d="M395.937,383.427v25.932c0,30.986-25.209,56.195-56.195,56.195h-65.01V512h190.626C491.077,512,512,491.077,512,465.358    v-81.931H395.937z"/>
	</g>
</g>
<g>
</g>
<g>
</g>
<g>
</g>
<g>
</g>
<g>
</g>
<g>
</g>
<g>
</g>
<g>
</g>
<g>
</g>
<g>
</g>
<g>
</g>
<g>
</g>
<g>
</g>
<g>
</g>
<g>
</g>
</svg>
