<?xml version="1.0" encoding="iso-8859-1"?>
<!-- Generator: Adobe Illustrator 19.0.0, SVG Export Plug-In . SVG Version: 6.00 Build 0)  -->
<svg xmlns="http://www.w3.org/2000/svg" xmlns:xlink="http://www.w3.org/1999/xlink" version="1.1" id="Layer_1" x="0px" y="0px" viewBox="0 0 512.001 512.001" style="enable-background:new 0 0 512.001 512.001;" xml:space="preserve">
<g>
	<g>
		<path d="M460.402,287.676v41.078c0,10.344-8.386,18.73-18.729,18.73s-18.729-8.386-18.729-18.73v-3.619l-47.126,47.126    c21.977,49.794,59.416,92.308,107.549,120.151c12.384,7.161,28.108-1.697,28.108-16.212V235.504    C504.722,243.689,504.176,243.902,460.402,287.676z"/>
	</g>
</g>
<g>
	<g>
		<path d="M474.048,37.953c-50.601-50.601-132.498-50.606-183.102,0L37.953,290.946c-50.601,50.597-50.605,132.499,0,183.102    c50.601,50.601,132.498,50.606,183.102,0l252.995-252.993C524.649,170.456,524.653,88.556,474.048,37.953z M176.924,421.8    c-23.909,23.909-62.814,23.91-86.724,0c-23.966-23.964-23.969-62.755,0-86.724c23.91-23.909,62.815-23.909,86.725,0    C200.833,358.988,200.833,397.891,176.924,421.8z M421.801,176.924c-23.909,23.909-62.815,23.91-86.725,0    c-23.909-23.91-23.909-62.815,0-86.724c23.909-23.909,62.815-23.909,86.724,0C445.766,114.164,445.769,152.956,421.801,176.924z"/>
	</g>
</g>
<g>
</g>
<g>
</g>
<g>
</g>
<g>
</g>
<g>
</g>
<g>
</g>
<g>
</g>
<g>
</g>
<g>
</g>
<g>
</g>
<g>
</g>
<g>
</g>
<g>
</g>
<g>
</g>
<g>
</g>
</svg>
