<?xml version="1.0" encoding="iso-8859-1"?>
<!-- Generator: Adobe Illustrator 19.0.0, SVG Export Plug-In . SVG Version: 6.00 Build 0)  -->
<svg xmlns="http://www.w3.org/2000/svg" xmlns:xlink="http://www.w3.org/1999/xlink" version="1.1" id="Layer_1" x="0px" y="0px" viewBox="0 0 512 512" style="enable-background:new 0 0 512 512;" xml:space="preserve">
<g>
	<g>
		<path d="M320.271,258.98h-0.747v26.611c0,9.534-7.327,17.737-16.85,18.186c-10.168,0.479-18.562-7.623-18.562-17.686V258.98    h-56.225v26.611c0,9.534-7.327,17.737-16.851,18.186c-10.168,0.479-18.562-7.623-18.562-17.686V258.98h-0.738    c-9.779,0-17.706,7.928-17.706,17.706v27.36c0,9.779,7.928,17.706,17.706,17.706h128.535c9.779,0,17.706-7.928,17.706-17.706    v-27.36C337.978,266.908,330.05,258.98,320.271,258.98z"/>
	</g>
</g>
<g>
	<g>
		<rect x="227.892" y="197.438" width="56.225" height="26.123"/>
	</g>
</g>
<g>
	<g>
		<path d="M429.46,388.998v-216.75c-23.111,16.067-51.929,25.194-75.635,25.194h-34.301v26.125h36.16    c9.779,0,17.706,7.928,17.706,17.706v98.185c0,9.779-7.928,17.706-17.706,17.706h-199.36c-9.779,0-17.706-7.928-17.706-17.706    v-98.185c0-9.779,7.928-17.706,17.706-17.706h36.15v-26.126h-34.291c-23.758,0-52.577-9.164-75.635-25.194v216.751    c0,9.779,7.928,17.706,17.706,17.706h25.006c-24.324,4.852-42.712,26.36-42.712,52.088c0,29.29,23.829,53.119,53.119,53.119h2.951    V406.705h35.413v105.207h164.431V406.705h35.413v105.207h2.467c29.29,0,53.119-23.829,53.119-53.119    c0-25.728-18.389-47.238-42.712-52.088h25.006C421.533,406.705,429.46,398.777,429.46,388.998z"/>
	</g>
</g>
<g>
	<g>
		<path d="M383.718,56.158h-56.102c-7.953-32.155-37.037-56.07-71.614-56.07s-63.661,23.915-71.614,56.07h-56.101    c-25.222,0-45.741,20.519-45.741,45.741v17.924c7.419,22.175,47.775,42.206,75.635,42.206h34.291v-14.143    c0-9.779,7.928-17.706,17.706-17.706c9.779,0,17.706,7.928,17.706,17.706v14.143h56.225v-14.143    c0-9.779,7.928-17.706,17.706-17.706c9.779,0,17.706,7.928,17.706,17.706v14.143h34.301c27.856,0,68.219-20.039,75.635-42.206    v-17.923C429.459,76.676,408.94,56.158,383.718,56.158z M221.987,56.158c6.41-12.263,19.247-20.657,34.016-20.657    s27.606,8.394,34.016,20.657H221.987z"/>
	</g>
</g>
<g>
	<g>
		<path d="M0,308.072v59.421c0,25.222,20.519,45.741,45.741,45.741h1.394V308.072H0z"/>
	</g>
</g>
<g>
	<g>
		<path d="M17.706,223.567C7.928,223.567,0,231.495,0,241.274v31.386h47.135v-49.092H17.706z"/>
	</g>
</g>
<g>
	<g>
		<path d="M464.865,308.072v105.162h1.394c25.222,0,45.741-20.519,45.741-45.741v-59.421H464.865z"/>
	</g>
</g>
<g>
	<g>
		<path d="M494.294,223.567h-29.429v49.092H512v-31.386C512,231.495,504.072,223.567,494.294,223.567z"/>
	</g>
</g>
<g>
</g>
<g>
</g>
<g>
</g>
<g>
</g>
<g>
</g>
<g>
</g>
<g>
</g>
<g>
</g>
<g>
</g>
<g>
</g>
<g>
</g>
<g>
</g>
<g>
</g>
<g>
</g>
<g>
</g>
</svg>
