<?xml version="1.0" encoding="iso-8859-1"?>
<!-- Generator: Adobe Illustrator 19.0.0, SVG Export Plug-In . SVG Version: 6.00 Build 0)  -->
<svg xmlns="http://www.w3.org/2000/svg" xmlns:xlink="http://www.w3.org/1999/xlink" version="1.1" id="Layer_1" x="0px" y="0px" viewBox="0 0 512.001 512.001" style="enable-background:new 0 0 512.001 512.001;" xml:space="preserve">
<g>
	<g>
		<path d="M256,0C148.732,0,61.464,87.269,61.464,194.537c0,3.325,0.93,6.674,2.883,9.547l176.958,299.544    c6.635,11.228,22.777,11.082,29.355,0.053c0.011-0.018,0.024-0.035,0.034-0.053l176.911-299.464    c1.962-2.85,2.931-6.223,2.931-9.627C450.537,87.269,363.268,0,256,0z M100.724,198.549c23.749-14.756,59.225-13.152,80.45,4.751    l38.822,197.146L100.724,198.549z M256,406.611l-40.498-205.663c22.605-16.515,58.401-16.503,80.996,0.001L256,406.611z     M292.005,400.446L330.827,203.3c21.236-17.916,56.707-19.497,80.449-4.75L292.005,400.446z"/>
	</g>
</g>
<g>
</g>
<g>
</g>
<g>
</g>
<g>
</g>
<g>
</g>
<g>
</g>
<g>
</g>
<g>
</g>
<g>
</g>
<g>
</g>
<g>
</g>
<g>
</g>
<g>
</g>
<g>
</g>
<g>
</g>
</svg>
