<?xml version="1.0" encoding="iso-8859-1"?>
<!-- Generator: Adobe Illustrator 19.0.0, SVG Export Plug-In . SVG Version: 6.00 Build 0)  -->
<svg xmlns="http://www.w3.org/2000/svg" xmlns:xlink="http://www.w3.org/1999/xlink" version="1.1" id="Layer_1" x="0px" y="0px" viewBox="0 0 511.999 511.999" style="enable-background:new 0 0 511.999 511.999;" xml:space="preserve">
<g>
	<g>
		<path d="M493.02,267.797L284.633,99.048c-16.591-13.436-40.674-13.436-57.265,0L18.981,267.797C6.918,277.564,0,292.067,0,307.587    v61.581c0,12.249,12.553,20.503,23.782,15.69l123.613-52.912l43.456,15.352l-29.793,49.915    c-6.781,11.36,1.424,25.814,14.655,25.814h160.58c13.229,0,21.437-14.453,14.655-25.814l-29.795-49.915l43.451-15.351    l123.613,52.912c11.189,4.79,23.782-3.392,23.782-15.69v-61.581C512,292.067,505.082,277.564,493.02,267.797z M256.001,304.747    l22.846,38.273h-45.69L256.001,304.747z M218.073,301.693l-9.375,15.707l-14.968-5.287L218.073,301.693z M205.776,388.893    l7.007-11.739h86.439l7.008,11.739H205.776z M303.306,317.4l-9.375-15.705l24.34,10.418L303.306,317.4z"/>
	</g>
</g>
<g>
</g>
<g>
</g>
<g>
</g>
<g>
</g>
<g>
</g>
<g>
</g>
<g>
</g>
<g>
</g>
<g>
</g>
<g>
</g>
<g>
</g>
<g>
</g>
<g>
</g>
<g>
</g>
<g>
</g>
</svg>
