<?xml version="1.0" encoding="iso-8859-1"?>
<!-- Generator: Adobe Illustrator 19.0.0, SVG Export Plug-In . SVG Version: 6.00 Build 0)  -->
<svg xmlns="http://www.w3.org/2000/svg" xmlns:xlink="http://www.w3.org/1999/xlink" version="1.1" id="Layer_1" x="0px" y="0px" viewBox="0 0 511.999 511.999" style="enable-background:new 0 0 511.999 511.999;" xml:space="preserve">
<g>
	<g>
		<path d="M215.776,377.844c-7.88-7.88-17.712-12.598-27.933-14.171c-0.99-1.209,1.706,1.572-46.026-46.161    c-7.315-7.316-19.182-7.311-26.492,0L5.484,427.354c-7.316,7.313-7.309,19.182,0,26.492l44.769,44.769    c7.316,7.316,19.175,7.317,26.492,0l59.842-59.842c2.144,3.683,4.789,7.156,7.946,10.313    c19.689,19.691,51.552,19.689,71.242,0.001C235.467,429.396,235.464,397.531,215.776,377.844z"/>
	</g>
</g>
<g>
	<g>
		<path d="M496.202,348.446V51.427c0-0.019-0.003-0.036-0.003-0.055c-0.015-5.151-2.193-9.956-5.484-13.192l-24.797-24.796    c-7.247-7.248-18.97-7.326-26.314-0.176l-89.146,86.802L338.45,88.003c-7.314-7.315-19.176-7.315-26.492,0    c-7.316,7.314-7.316,19.176,0,26.492l11.654,11.654l-86.675,84.396l-10.515-10.515c-7.314-7.314-19.176-7.314-26.492,0    c-7.316,7.315-7.316,19.176,0,26.492l10.163,10.163l-49.318,48.022c6.744,4.738,54.376,52.58,58.616,58.617L458.736,97.518    v250.928c-21.032,13.626-21.091,44.411,0,58.078v22.133c0,8.086-6.578,14.663-14.663,14.663s-14.663-6.578-14.663-14.663v-20.892    c0-10.345-8.387-18.733-18.733-18.733c-10.345,0-18.733,8.387-18.733,18.733v20.892c0,28.745,23.385,52.128,52.128,52.128    s52.128-23.385,52.128-52.128v-22.133C517.19,392.929,517.34,362.141,496.202,348.446z"/>
	</g>
</g>
<g>
</g>
<g>
</g>
<g>
</g>
<g>
</g>
<g>
</g>
<g>
</g>
<g>
</g>
<g>
</g>
<g>
</g>
<g>
</g>
<g>
</g>
<g>
</g>
<g>
</g>
<g>
</g>
<g>
</g>
</svg>
