<?xml version="1.0" encoding="iso-8859-1"?>
<!-- Generator: Adobe Illustrator 19.0.0, SVG Export Plug-In . SVG Version: 6.00 Build 0)  -->
<svg xmlns="http://www.w3.org/2000/svg" xmlns:xlink="http://www.w3.org/1999/xlink" version="1.1" id="Layer_1" x="0px" y="0px" viewBox="0 0 512.001 512.001" style="enable-background:new 0 0 512.001 512.001;" xml:space="preserve">
<g>
	<g>
		<path d="M511.457,418.331l-51.733-201.488c-1.481-5.768-5.863-10.349-11.562-12.083l-75.55-22.992l-11.948-94.478    c-1.341-10.614-12.009-17.36-22.134-14.112l-157.842,50.525c-5.667,1.815-9.979,6.449-11.382,12.231l-19.992,82.413l53.95-12.007    c9.2-2.049,18.319,3.75,20.365,12.951c2.047,9.201-3.75,18.319-12.951,20.366c-4.784,1.065-138.902,30.902-153.744,34.205    c-5.867,1.305-10.616,5.603-12.499,11.311L0.87,417.23c-3.636,11.022,4.583,22.412,16.207,22.412c2.795,0,473.265,0,477.85,0    C506.062,439.642,514.228,429.126,511.457,418.331z M162.496,405.508l5.894-31.387c0.984-5.242,4.363-9.722,9.131-12.111    l82.067-41.089c3.645-1.825,7.822-2.286,11.78-1.296l108.835,27.209c6.399,1.599,11.302,6.743,12.596,13.209l9.09,45.465H162.496z    "/>
	</g>
</g>
<g>
</g>
<g>
</g>
<g>
</g>
<g>
</g>
<g>
</g>
<g>
</g>
<g>
</g>
<g>
</g>
<g>
</g>
<g>
</g>
<g>
</g>
<g>
</g>
<g>
</g>
<g>
</g>
<g>
</g>
</svg>
