<?xml version="1.0" encoding="iso-8859-1"?>
<!-- Generator: Adobe Illustrator 19.0.0, SVG Export Plug-In . SVG Version: 6.00 Build 0)  -->
<svg xmlns="http://www.w3.org/2000/svg" xmlns:xlink="http://www.w3.org/1999/xlink" version="1.1" id="Layer_1" x="0px" y="0px" viewBox="0 0 512.001 512.001" style="enable-background:new 0 0 512.001 512.001;" xml:space="preserve">
<g>
	<g>
		<path d="M492.301,298.69h-27.476l40.767-37.249c4.538-4.147,6.797-10.081,6.355-16.004v-84.605c0-10.874-8.816-19.69-19.69-19.69    H334.882L369.874,39.41h49.189c10.874,0,19.69-8.816,19.69-19.69c0-10.874-8.816-19.69-19.69-19.69h-63.238    c-8.406,0-15.886,5.336-18.62,13.286l-17.858,51.918H192.598L174.74,13.315c-2.734-7.95-10.214-13.286-18.62-13.286H92.881    c-10.874,0-19.69,8.816-19.69,19.69c0,10.874,8.816,19.69,19.69,19.69h49.189l34.992,101.733H19.69    c-10.874,0-19.69,8.816-19.69,19.69v86.072c0,6.038,2.734,11.443,7.029,15.054l40.199,36.73H19.69    c-10.874,0-19.69,8.816-19.69,19.69V359.1h33.661c10.874,0,19.69,8.816,19.69,19.69s-8.816,19.69-19.69,19.69H0v13.7h33.661    c10.874,0,19.69,8.816,19.69,19.69c0,10.874-8.816,19.69-19.69,19.69H0v40.721c0,10.874,8.816,19.69,19.69,19.69h120.868    c10.874,0,19.69-8.816,19.69-19.69v-40.721h-33.661c-10.874,0-19.69-8.816-19.69-19.69c0-10.874,8.816-19.69,19.69-19.69h33.661    v-13.7h-33.661c-10.874,0-19.69-8.816-19.69-19.69s8.816-19.69,19.69-19.69h33.661v-21.03h191.494v21.03h33.661    c10.874,0,19.69,8.816,19.69,19.69s-8.816,19.69-19.69,19.69h-33.661v13.7h33.661c10.874,0,19.69,8.816,19.69,19.69    c0,10.874-8.816,19.69-19.69,19.69h-33.661v40.721c0,10.874,8.816,19.69,19.69,19.69h120.868c10.874,0,19.69-8.816,19.69-19.69    v-40.721h-33.661c-10.874,0-19.69-8.816-19.69-19.69c0-10.874,8.816-19.69,19.69-19.69h33.661v-13.7h-33.661    c-10.874,0-19.69-8.816-19.69-19.69s8.817-19.689,19.691-19.689h33.661V318.38C511.991,307.506,503.175,298.69,492.301,298.69z     M135.728,283.618c-24.269,0-44.014-19.744-44.014-44.013s19.745-44.013,44.014-44.013s44.013,19.744,44.013,44.013    S159.997,283.618,135.728,283.618z M276.82,259.295h-41.696c-10.874,0-19.69-8.816-19.69-19.69c0-10.874,8.816-19.69,19.69-19.69    h41.696c10.874,0,19.69,8.816,19.69,19.69C296.511,250.479,287.695,259.295,276.82,259.295z M293.237,141.141h-74.529    l-12.565-36.529h99.659L293.237,141.141z M376.207,283.618c-24.269,0-44.013-19.744-44.013-44.013    c0-24.269,19.744-44.013,44.013-44.013c24.269,0,44.013,19.744,44.013,44.013S400.476,283.618,376.207,283.618z"/>
	</g>
</g>
<g>
</g>
<g>
</g>
<g>
</g>
<g>
</g>
<g>
</g>
<g>
</g>
<g>
</g>
<g>
</g>
<g>
</g>
<g>
</g>
<g>
</g>
<g>
</g>
<g>
</g>
<g>
</g>
<g>
</g>
</svg>
