<?xml version="1.0" encoding="iso-8859-1"?>
<!-- Generator: Adobe Illustrator 19.0.0, SVG Export Plug-In . SVG Version: 6.00 Build 0)  -->
<svg xmlns="http://www.w3.org/2000/svg" xmlns:xlink="http://www.w3.org/1999/xlink" version="1.1" id="Layer_1" x="0px" y="0px" viewBox="0 0 511.999 511.999" style="enable-background:new 0 0 511.999 511.999;" xml:space="preserve">
<g>
	<g>
		<path d="M153.768,397.653v96.485c0,9.859,7.99,17.861,17.861,17.861c9.859,0,17.861-8.002,17.861-17.861v-96.474    C177.571,399.288,165.574,399.284,153.768,397.653z"/>
	</g>
</g>
<g>
	<g>
		<path d="M457.525,255.908L373.34,82.918c-6.531-13.373-25.607-13.379-32.114,0l-59.033,121.276L187.68,10.033    c-6.479-13.346-25.592-13.408-32.114,0L56.164,214.268c-38.548,79.141,12.191,171.611,97.605,183.385v-77.588l-33.829-69.491    c-4.322-8.871-0.631-19.564,8.24-23.874c8.871-4.322,19.564-0.631,23.886,8.24l19.564,40.199l19.564-40.199    c4.31-8.871,15.003-12.562,23.874-8.24c8.871,4.31,12.562,15.003,8.24,23.874l-33.817,69.491v77.6    c28.631-3.934,53.381-16.988,72.179-35.577c16.8,27.933,45.163,47.402,77.747,52.664v-67.419l-28.375-58.287    c-4.31-8.871-0.619-19.564,8.252-23.874c8.859-4.322,19.552-0.631,23.874,8.24l14.11,28.994l14.11-28.994    c4.322-8.871,15.015-12.562,23.874-8.24c8.871,4.31,12.562,15.003,8.252,23.874l-28.375,58.287v67.419    C447.875,403.023,490.723,324.03,457.525,255.908z"/>
	</g>
</g>
<g>
	<g>
		<path d="M339.416,414.752v79.386c0,9.859,8.002,17.861,17.861,17.861c9.859,0,17.861-8.002,17.861-17.861v-79.386    C363.521,416.632,351.389,416.682,339.416,414.752z"/>
	</g>
</g>
<g>
</g>
<g>
</g>
<g>
</g>
<g>
</g>
<g>
</g>
<g>
</g>
<g>
</g>
<g>
</g>
<g>
</g>
<g>
</g>
<g>
</g>
<g>
</g>
<g>
</g>
<g>
</g>
<g>
</g>
</svg>
