<?xml version="1.0" encoding="iso-8859-1"?>
<!-- Generator: Adobe Illustrator 19.0.0, SVG Export Plug-In . SVG Version: 6.00 Build 0)  -->
<svg xmlns="http://www.w3.org/2000/svg" xmlns:xlink="http://www.w3.org/1999/xlink" version="1.1" id="Layer_1" x="0px" y="0px" viewBox="0 0 511.999 511.999" style="enable-background:new 0 0 511.999 511.999;" xml:space="preserve">
<g>
	<g>
		<path d="M505.208,166.314c-8.84-8.544-22.932-8.304-31.477,0.538l-37.959,39.277H76.227l-37.959-39.277    c-8.546-8.841-22.638-9.081-31.477-0.538c-8.84,8.544-9.081,22.637-0.538,31.477l44.522,46.069    c4.195,4.341,9.972,6.792,16.008,6.792h378.435c6.036,0,11.813-2.451,16.007-6.792l44.522-46.069    C514.29,188.95,514.048,174.858,505.208,166.314z"/>
	</g>
</g>
<g>
	<g>
		<path d="M150.878,262.895c-24.549,0-44.522,19.972-44.522,44.522c0,24.549,19.972,44.522,44.522,44.522    c24.548,0,44.522-19.972,44.522-44.522C195.399,282.868,175.427,262.895,150.878,262.895z"/>
	</g>
</g>
<g>
	<g>
		<path d="M361.123,262.895c-24.549,0-44.522,19.972-44.522,44.522c0,24.549,19.972,44.522,44.522,44.522    c24.549,0,44.522-19.972,44.522-44.522C405.644,282.868,385.672,262.895,361.123,262.895z"/>
	</g>
</g>
<g>
</g>
<g>
</g>
<g>
</g>
<g>
</g>
<g>
</g>
<g>
</g>
<g>
</g>
<g>
</g>
<g>
</g>
<g>
</g>
<g>
</g>
<g>
</g>
<g>
</g>
<g>
</g>
<g>
</g>
</svg>
