<?xml version="1.0" encoding="iso-8859-1"?>
<!-- Generator: Adobe Illustrator 19.0.0, SVG Export Plug-In . SVG Version: 6.00 Build 0)  -->
<svg xmlns="http://www.w3.org/2000/svg" xmlns:xlink="http://www.w3.org/1999/xlink" version="1.1" id="Layer_1" x="0px" y="0px" viewBox="0 0 512 512" style="enable-background:new 0 0 512 512;" xml:space="preserve">
<g>
	<g>
		<path d="M507.102,110.315l-77.879-77.891c-6.494-6.494-17.09-6.548-23.638,0l-77.891,77.891    c-24.272,24.271-27.257,61.051-10.443,88.322l38.672-38.672c6.531-6.531,17.118-6.531,23.649,0c6.52,6.531,6.52,17.118,0,23.638    l-38.683,38.683c27.177,16.729,63.962,13.909,88.333-10.443l77.879-77.891C513.633,127.422,513.633,116.846,507.102,110.315z"/>
	</g>
</g>
<g>
	<g>
		<path d="M452.034,426.721c-6.527-6.529-17.113-6.529-23.641,0l-2.785,2.785L279.641,283.534l61.248-61.248    c-9.704-5.982-17.885-14.26-23.638-23.649L256,259.891l-61.263-61.265c-5.947,9.689-14.125,17.803-23.627,23.66l61.248,61.248    L86.392,429.507l-2.785-2.785c-6.527-6.529-17.113-6.529-23.641,0s-6.529,17.113,0,23.641l29.207,29.207    c6.527,6.527,17.113,6.529,23.641,0c6.529-6.529,6.529-17.113,0-23.641l-2.784-2.783l145.969-145.969l145.97,145.968l-2.784,2.783    c-6.529,6.527-6.529,17.113,0,23.641c6.527,6.529,17.112,6.529,23.641,0l29.207-29.207    C458.562,443.833,458.562,433.249,452.034,426.721z"/>
	</g>
</g>
<g>
	<g>
		<path d="M156.076,159.965l38.661,38.661c16.962-27.65,13.485-64.394-10.431-88.311l-77.891-77.891    c-6.548-6.548-17.144-6.494-23.638,0L4.898,110.315c-6.531,6.531-6.531,17.107,0,23.638l77.879,77.891    c23.931,23.911,60.552,27.494,88.333,10.443l-38.683-38.683c-6.52-6.52-6.52-17.107,0-23.638    C138.958,153.434,149.546,153.434,156.076,159.965z"/>
	</g>
</g>
<g>
</g>
<g>
</g>
<g>
</g>
<g>
</g>
<g>
</g>
<g>
</g>
<g>
</g>
<g>
</g>
<g>
</g>
<g>
</g>
<g>
</g>
<g>
</g>
<g>
</g>
<g>
</g>
<g>
</g>
</svg>
