<?xml version="1.0" encoding="iso-8859-1"?>
<!-- Generator: Adobe Illustrator 19.0.0, SVG Export Plug-In . SVG Version: 6.00 Build 0)  -->
<svg xmlns="http://www.w3.org/2000/svg" xmlns:xlink="http://www.w3.org/1999/xlink" version="1.1" id="Layer_1" x="0px" y="0px" viewBox="0 0 512 512" style="enable-background:new 0 0 512 512;" xml:space="preserve">
<g>
	<g>
		<path d="M494.924,294.811h-37.876l-18.693-56.494h6.365c11.631,0,19.851-11.4,16.202-22.427l-18.829-56.905    c-2.312-6.987-8.842-11.705-16.202-11.705H299.234v-41.475c0-9.425-7.641-17.066-17.066-17.066h-52.336    c-9.425,0-17.066,7.641-17.066,17.066v41.476h-13.511V62.586c0-9.425-7.641-17.066-17.066-17.066h-52.336    c-9.425,0-17.066,7.641-17.066,17.066v84.695H62.586c-9.425,0-17.066,7.641-17.066,17.066v56.905    c0,9.425,7.641,17.066,17.066,17.066h50.202v56.494H62.586c-7.36,0-13.889,4.718-16.202,11.705L0.875,444.053    c-3.649,11.027,4.571,22.427,16.202,22.427h432.337c7.36,0,13.889-4.718,16.202-11.705l45.509-137.537    C514.774,306.211,506.554,294.811,494.924,294.811z M146.92,238.317h168.208v56.494H146.92V238.317z M123.134,409.089    c-15.684,0-28.443-12.76-28.443-28.443c0-15.684,12.76-28.443,28.443-28.443s28.443,12.76,28.443,28.443    C151.577,396.329,138.818,409.089,123.134,409.089z M211.711,409.089c-15.684,0-28.443-12.76-28.443-28.443    c0-15.684,12.76-28.443,28.443-28.443c15.684,0,28.443,12.76,28.443,28.443C240.154,396.329,227.395,409.089,211.711,409.089z     M300.289,409.089c-15.684,0-28.443-12.76-28.443-28.443c0-15.684,12.76-28.443,28.443-28.443s28.443,12.76,28.443,28.443    C328.732,396.329,315.973,409.089,300.289,409.089z M388.866,409.089c-15.684,0-28.443-12.76-28.443-28.443    c0-15.684,12.76-28.443,28.443-28.443s28.443,12.76,28.443,28.443C417.309,396.329,404.549,409.089,388.866,409.089z     M349.259,294.811v-56.494h53.143l18.693,56.494H349.259z"/>
	</g>
</g>
<g>
</g>
<g>
</g>
<g>
</g>
<g>
</g>
<g>
</g>
<g>
</g>
<g>
</g>
<g>
</g>
<g>
</g>
<g>
</g>
<g>
</g>
<g>
</g>
<g>
</g>
<g>
</g>
<g>
</g>
</svg>
