<?xml version="1.0" encoding="iso-8859-1"?>
<!-- Generator: Adobe Illustrator 19.0.0, SVG Export Plug-In . SVG Version: 6.00 Build 0)  -->
<svg xmlns="http://www.w3.org/2000/svg" xmlns:xlink="http://www.w3.org/1999/xlink" version="1.1" id="Layer_1" x="0px" y="0px" viewBox="0 0 512 512" style="enable-background:new 0 0 512 512;" xml:space="preserve">
<g>
	<g>
		<path d="M494.924,294.812h-37.876l-18.693-56.494h6.365c11.631,0,19.851-11.4,16.202-22.427l-18.829-56.905    c-2.312-6.987-8.842-11.705-16.202-11.705H199.255V62.586c0-9.425-7.641-17.066-17.066-17.066h-52.336    c-9.425,0-17.066,7.641-17.066,17.066v84.695H62.586c-9.425,0-17.066,7.641-17.066,17.066v56.905    c0,9.425,7.641,17.066,17.066,17.066h50.202v56.494H62.586c-7.36,0-13.889,4.718-16.202,11.705l-18.882,57.063h468.29    l15.334-46.341C514.774,306.212,506.554,294.812,494.924,294.812z M315.127,294.812H146.92v-56.494h168.208V294.812z     M349.259,294.812v-56.494h53.143l18.693,56.494H349.259z"/>
	</g>
</g>
<g>
	<g>
		<path d="M16.209,397.712L0.875,444.053c-3.649,11.027,4.571,22.427,16.202,22.427h432.337c7.36,0,13.889-4.718,16.202-11.705    l18.882-57.063H16.209z"/>
	</g>
</g>
<g>
</g>
<g>
</g>
<g>
</g>
<g>
</g>
<g>
</g>
<g>
</g>
<g>
</g>
<g>
</g>
<g>
</g>
<g>
</g>
<g>
</g>
<g>
</g>
<g>
</g>
<g>
</g>
<g>
</g>
</svg>
