<?xml version="1.0" encoding="iso-8859-1"?>
<!-- Generator: Adobe Illustrator 19.0.0, SVG Export Plug-In . SVG Version: 6.00 Build 0)  -->
<svg xmlns="http://www.w3.org/2000/svg" xmlns:xlink="http://www.w3.org/1999/xlink" version="1.1" id="Layer_1" x="0px" y="0px" viewBox="0 0 511.999 511.999" style="enable-background:new 0 0 511.999 511.999;" xml:space="preserve">
<g>
	<g>
		<path d="M347.025,477.866h-39.823v-56.89H204.801v56.89h-39.823c-9.425,0-17.067,7.641-17.067,17.067s7.641,17.067,17.067,17.067    c78.594,0,93.513,0,182.047,0c9.425,0,17.067-7.641,17.067-17.067S356.451,477.866,347.025,477.866z"/>
	</g>
</g>
<g>
	<g>
		<path d="M333.483,291.654h32.171c13.666,0,21.786-15.308,14.145-26.62l-46.314-68.567h32.171c13.664,0,21.783-15.308,14.143-26.62    L270.144,7.506c-6.764-10.014-21.528-10.003-28.286,0L132.204,169.848c-7.648,11.323,0.493,26.62,14.143,26.62h32.171    l-46.315,68.567c-7.648,11.323,0.493,26.62,14.143,26.62h32.171l-46.315,68.568c-7.648,11.323,0.493,26.62,14.143,26.62h219.31    c13.664,0,21.783-15.308,14.143-26.62L333.483,291.654z"/>
	</g>
</g>
<g>
</g>
<g>
</g>
<g>
</g>
<g>
</g>
<g>
</g>
<g>
</g>
<g>
</g>
<g>
</g>
<g>
</g>
<g>
</g>
<g>
</g>
<g>
</g>
<g>
</g>
<g>
</g>
<g>
</g>
</svg>
