<?xml version="1.0" encoding="iso-8859-1"?>
<!-- Generator: Adobe Illustrator 19.0.0, SVG Export Plug-In . SVG Version: 6.00 Build 0)  -->
<svg xmlns="http://www.w3.org/2000/svg" xmlns:xlink="http://www.w3.org/1999/xlink" version="1.1" id="Layer_1" x="0px" y="0px" viewBox="0 0 512 512" style="enable-background:new 0 0 512 512;" xml:space="preserve">
<g>
	<g>
		<path d="M367.61,412.517h-68.218c-9.419,0-17.054,7.636-17.054,17.054v65.374c0,9.419,7.636,17.054,17.054,17.054h68.218    c9.419,0,17.054-7.636,17.054-17.054v-65.374C384.664,420.153,377.029,412.517,367.61,412.517z"/>
	</g>
</g>
<g>
	<g>
		<path d="M419.043,51.882c-0.009-0.009-0.021-0.016-0.03-0.025c-0.012-0.013-0.024-0.026-0.036-0.039    C373.047,8.113,317.748,1.367,274.72,0.372C224.421-0.843,140.239-2.872,83.051,62.481    c-42.497,48.667-37.317,101.554-37.317,144.027c0,9.419,7.636,17.055,17.054,17.055h34.189v10.54    c0,21.942,17.851,39.794,39.794,39.794h155.645v104.511h82.174V273.896h0.784c21.942,0,39.794-17.851,39.794-39.794v-10.54h34.189    c9.419,0,17.054-7.636,17.054-17.055C466.41,155.15,470.031,100.838,419.043,51.882z M101.141,94.906    c39.467-58.017,108.997-61.971,172.773-60.434c18.606,0.43,35.058,2.127,49.825,5.252c-44.467,5.265-85.827,24.481-118.721,55.183    H101.141z M381.058,234.103c0,3.135-2.55,5.685-5.685,5.685H136.77c-3.135,0-5.685-2.55-5.685-5.685v-10.54h164.598    c9.419,0,17.054-7.636,17.054-17.054c0-10.544,8.578-19.124,19.124-19.124c10.551,0,19.135,8.578,19.135,19.124    c0,9.419,7.636,17.054,17.054,17.054h13.007V234.103z"/>
	</g>
</g>
<g>
</g>
<g>
</g>
<g>
</g>
<g>
</g>
<g>
</g>
<g>
</g>
<g>
</g>
<g>
</g>
<g>
</g>
<g>
</g>
<g>
</g>
<g>
</g>
<g>
</g>
<g>
</g>
<g>
</g>
</svg>
