<?xml version="1.0" encoding="iso-8859-1"?>
<!-- Generator: Adobe Illustrator 19.0.0, SVG Export Plug-In . SVG Version: 6.00 Build 0)  -->
<svg xmlns="http://www.w3.org/2000/svg" xmlns:xlink="http://www.w3.org/1999/xlink" version="1.1" id="Layer_1" x="0px" y="0px" viewBox="0 0 512.001 512.001" style="enable-background:new 0 0 512.001 512.001;" xml:space="preserve">
<g>
	<g>
		<path d="M473.794,230.687l9.725-9.725c37.931-37.931,37.931-99.65,0-137.581l-54.867-54.864    c-38.018-38.02-99.556-38.024-137.581,0l-9.724,9.724l-26.312-26.31c-7.688-7.689-20.163-7.686-27.848,0l-54.866,54.866    c-7.69,7.69-7.69,20.158,0,27.848l26.31,26.312l-83.807,83.807L88.514,178.45c-7.688-7.689-20.163-7.686-27.848,0L5.802,233.316    c-7.69,7.69-7.69,20.158,0,27.848l26.312,26.312l-15.372,15.372c-17.802,17.801-17.806,46.62,0,64.425l128.022,128.022    c17.804,17.802,46.619,17.805,64.424,0l15.372-15.372l26.312,26.312c7.688,7.689,20.163,7.686,27.848,0l54.866-54.866    c7.69-7.69,7.69-20.158,0-27.848l-26.31-26.312l83.807-83.807l26.312,26.312c7.688,7.689,20.163,7.686,27.848,0l54.866-54.866    c7.69-7.69,7.69-20.158,0-27.848L473.794,230.687z M284.751,331.969H114.763c-10.875,0-19.692-8.817-19.692-19.692    s8.817-19.692,19.692-19.692h169.989c10.875,0,19.691,8.817,19.691,19.692S295.626,331.969,284.751,331.969z M387.696,216.217    H241.624c-10.875,0-19.691-8.817-19.691-19.691s8.817-19.692,19.691-19.692h146.072c10.875,0,19.692,8.817,19.692,19.692    S398.571,216.217,387.696,216.217z"/>
	</g>
</g>
<g>
</g>
<g>
</g>
<g>
</g>
<g>
</g>
<g>
</g>
<g>
</g>
<g>
</g>
<g>
</g>
<g>
</g>
<g>
</g>
<g>
</g>
<g>
</g>
<g>
</g>
<g>
</g>
<g>
</g>
</svg>
