<?xml version="1.0" encoding="iso-8859-1"?>
<!-- Generator: Adobe Illustrator 19.0.0, SVG Export Plug-In . SVG Version: 6.00 Build 0)  -->
<svg xmlns="http://www.w3.org/2000/svg" xmlns:xlink="http://www.w3.org/1999/xlink" version="1.1" id="Layer_1" x="0px" y="0px" viewBox="0 0 512 512" style="enable-background:new 0 0 512 512;" xml:space="preserve">
<g>
	<g>
		<path d="M381.847,216.683l-25.075-50.15l5.272-10.139h8.729c0.052,0,0.088,0.001,0.104,0.001c0.058,0.053,0.13,0.166,0.142,0.175    c0,0-0.01,0.043-0.052,0.133c-5.319,11.084-0.648,24.381,10.436,29.702c11.087,5.321,24.385,0.641,29.702-10.436    c14.265-29.719-7.426-64.095-40.331-64.095h-22.243c-8.304,0-15.919,4.622-19.75,11.991l-10.512,20.215H202.475v-9.893h1.059    c12.295,0,22.261-9.966,22.261-22.261s-9.966-22.261-22.261-22.261c-0.058,0-0.109,0-0.155,0c-0.249,0-0.339,0-0.346,0    c-1.616,0-9.972,0-46.135,0c-12.295,0-22.261,9.966-22.261,22.261s9.966,22.261,22.261,22.261h1.056v26.898l-27.802,55.599    C63.965,199.857,0,250.214,0,317.905c0,57.583,46.847,104.43,104.43,104.43c49.947,0,91.808-35.248,102.035-82.174h11.88    c7.631,12.859,21.65,21.501,37.655,21.501c24.124,0,43.75-19.632,43.75-43.762c0-8.654-2.511-16.84-6.982-23.759l39.017-78.028    l10.267,20.535c-23.716,19.16-38.913,48.464-38.913,81.257c0,57.583,46.847,104.43,104.43,104.43S512,375.488,512,317.905    C512,250.179,447.999,199.865,381.847,216.683z M149.195,278.148c4.555,5.123,8.24,11.03,10.837,17.49h-19.583L149.195,278.148z     M104.43,377.814c-33.033,0-59.908-26.875-59.908-59.908c0-34.682,29.641-62.588,64.862-59.687l-24.865,49.727    c-7.385,14.768,3.365,32.217,19.91,32.217h55.607C151.18,362.203,129.601,377.814,104.43,377.814z M218.277,295.64h-11.813    c-5.152-23.631-18.326-44.296-36.517-58.992l10.268-20.536l39.007,78C219.192,294.158,218.289,295.619,218.277,295.64z     M256.002,268.121l-39.767-79.52h79.53L256.002,268.121z M407.57,377.814c-33.034,0-59.909-26.875-59.909-59.908    c0-15.244,5.732-29.168,15.143-39.755l24.854,49.71c5.5,11,18.873,15.452,29.866,9.955c10.996-5.498,15.453-18.869,9.955-29.866    l-24.867-49.732c35.176-2.895,64.865,24.958,64.865,59.688C467.478,350.938,440.603,377.814,407.57,377.814z"/>
	</g>
</g>
<g>
</g>
<g>
</g>
<g>
</g>
<g>
</g>
<g>
</g>
<g>
</g>
<g>
</g>
<g>
</g>
<g>
</g>
<g>
</g>
<g>
</g>
<g>
</g>
<g>
</g>
<g>
</g>
<g>
</g>
</svg>
