<?xml version="1.0" encoding="iso-8859-1"?>
<!-- Generator: Adobe Illustrator 19.0.0, SVG Export Plug-In . SVG Version: 6.00 Build 0)  -->
<svg xmlns="http://www.w3.org/2000/svg" xmlns:xlink="http://www.w3.org/1999/xlink" version="1.1" id="Capa_1" x="0px" y="0px" viewBox="0 0 512 512" style="enable-background:new 0 0 512 512;" xml:space="preserve">
<g>
	<g>
		<path d="M376,391c-8.276,0-15,6.724-15,15s6.724,15,15,15s15-6.724,15-15S384.276,391,376,391z"/>
	</g>
</g>
<g>
	<g>
		<path d="M256,391c-8.276,0-15,6.724-15,15s6.724,15,15,15s15-6.724,15-15S264.276,391,256,391z"/>
	</g>
</g>
<g>
	<g>
		<path d="M256,271c-19.53,0-36.024,12.578-42.237,30h84.474C292.024,283.578,275.53,271,256,271z"/>
	</g>
</g>
<g>
	<g>
		<path d="M437,0H76C34.647,0,0,33.647,0,75v361c0,41.353,34.647,76,76,76h361c41.353,0,75-34.647,75-76V75    C512,33.647,478.353,0,437,0z M136,451c-24.814,0-45-20.186-45-45c0-24.814,20.186-45,45-45c24.814,0,45,20.186,45,45    C181,430.814,160.814,451,136,451z M256,451c-24.814,0-45-20.186-45-45c0-24.814,20.186-45,45-45c24.814,0,45,20.186,45,45    C301,430.814,280.814,451,256,451z M376,451c-24.814,0-45-20.186-45-45c0-24.814,20.186-45,45-45c24.814,0,45,20.186,45,45    C421,430.814,400.814,451,376,451z M452,316c0,8.291-6.709,15-15,15H76c-8.291,0-15-6.709-15-15V75c0-8.291,6.709-15,15-15h361    c8.291,0,15,6.709,15,15V316z"/>
	</g>
</g>
<g>
	<g>
		<path d="M91,90v211h91.518c3.298-16.183,12.008-30.267,23.914-40.847l-45.251-79.384c-5.121,3.629-10.395,6.96-15.176,11.243    c-6.152,5.522-15.63,5.01-21.182-1.172c-5.522-6.167-5.01-15.645,1.172-21.182c70.809-63.455,183.481-68.575,260.01,0    c6.182,5.537,6.694,15.015,1.172,21.182c-5.625,6.262-15.123,6.608-21.182,1.172c-50.193-44.965-120.538-53.317-178.872-26.318    l45.302,79.47C239.883,242.672,247.716,241,256,241c36.216,0,66.513,25.809,73.482,60H421V90H91z"/>
	</g>
</g>
<g>
	<g>
		<path d="M136,391c-8.276,0-15,6.724-15,15s6.724,15,15,15s15-6.724,15-15S144.276,391,136,391z"/>
	</g>
</g>
<g>
</g>
<g>
</g>
<g>
</g>
<g>
</g>
<g>
</g>
<g>
</g>
<g>
</g>
<g>
</g>
<g>
</g>
<g>
</g>
<g>
</g>
<g>
</g>
<g>
</g>
<g>
</g>
<g>
</g>
</svg>
