<?xml version="1.0" encoding="iso-8859-1"?>
<!-- Generator: Adobe Illustrator 19.0.0, SVG Export Plug-In . SVG Version: 6.00 Build 0)  -->
<svg xmlns="http://www.w3.org/2000/svg" xmlns:xlink="http://www.w3.org/1999/xlink" version="1.1" id="Capa_1" x="0px" y="0px" viewBox="0 0 512 512" style="enable-background:new 0 0 512 512;" xml:space="preserve">
<g>
	<g>
		<path d="M315.195,251.141c-1.523-4.424-5.01-7.896-9.448-9.36L228.3,215.956l27.407-137.007    c1.406-7.031-2.344-14.062-8.965-16.802c-6.65-2.754-14.268-0.454-18.223,5.537l-121,180c-2.593,3.896-3.223,8.76-1.714,13.184    c1.523,4.424,5.01,7.896,9.448,9.36l77.446,25.825L165.293,433.06c-1.406,7.031,2.344,14.063,8.965,16.802    c6.627,2.743,14.24,0.427,18.223-5.537l121-180C316.074,260.429,316.704,255.565,315.195,251.141z"/>
	</g>
</g>
<g>
	<g>
		<path d="M308.297,211.005l6.942,2.314c13.154,4.336,23.774,14.839,28.315,28.052c8.304,24.293-4.413,38.553-18.468,59.634H361v-90    H308.297z"/>
	</g>
</g>
<g>
	<g>
		<path d="M377,121.005c-44.304,0-75.703,0-99.112,0l-12.001,60H377c8.291,0,15,6.709,15,15v120c0,8.291-6.709,15-15,15h-71.915    l-40.001,60c33.171,0,69.423,0,111.916,0c24.814,0,45-20.186,45-45v-180C422,141.19,401.814,121.005,377,121.005z"/>
	</g>
</g>
<g>
	<g>
		<path d="M30,316.005v-120c0-8.291,6.709-15,15-15h70.915l40.001-60c-25.069,0-58.931,0-110.916,0c-24.814,0-45,20.186-45,45v180    c0,24.814,20.186,45,45,45c37.311,0,69.023,0,98.112,0l12.001-60H45C36.709,331.005,30,324.296,30,316.005z"/>
	</g>
</g>
<g>
	<g>
		<path d="M77.446,270.639c-8.304-24.293,4.413-38.553,18.468-59.634H60v90h52.703C96.28,295.528,83.818,289.178,77.446,270.639z"/>
	</g>
</g>
<g>
	<g>
		<path d="M467,181.005h-15v150h15c24.814,0,45-20.186,45-45v-60C512,201.19,491.814,181.005,467,181.005z"/>
	</g>
</g>
<g>
</g>
<g>
</g>
<g>
</g>
<g>
</g>
<g>
</g>
<g>
</g>
<g>
</g>
<g>
</g>
<g>
</g>
<g>
</g>
<g>
</g>
<g>
</g>
<g>
</g>
<g>
</g>
<g>
</g>
</svg>
