<?xml version="1.0" encoding="iso-8859-1"?>
<!-- Generator: Adobe Illustrator 19.0.0, SVG Export Plug-In . SVG Version: 6.00 Build 0)  -->
<svg xmlns="http://www.w3.org/2000/svg" xmlns:xlink="http://www.w3.org/1999/xlink" version="1.1" id="Capa_1" x="0px" y="0px" viewBox="0 0 511.999 511.999" style="enable-background:new 0 0 511.999 511.999;" xml:space="preserve">
<g>
	<g>
		<path d="M407.014,391.019c-8.276,0-15,6.724-15,15c0,8.276,6.724,15,15,15c8.276,0,15-6.724,15-15    C422.014,397.743,415.29,391.019,407.014,391.019z"/>
	</g>
</g>
<g>
	<g>
		<path d="M482.015,332.526V76.008c0.001-41.353-33.647-76.003-75.001-76.003s-75.003,34.648-75.003,76.003v256.518    c-19.147,19.557-30.001,45.969-30.001,73.493c0,57.807,46.707,105.974,105.193,105.974c57.327,0,104.347-47.476,104.792-105.058    C512.21,379.1,501.583,352.481,482.015,332.526z M407.014,451.021c-24.815,0-45.002-20.187-45.002-45.001    c0-19.531,12.578-36.025,30.001-42.238V76.008c0-8.291,6.709-15.001,15-15.001s15,6.709,15,15.001v287.773    c17.423,6.213,30.001,22.708,30.001,42.238C452.015,430.835,431.828,451.021,407.014,451.021z"/>
	</g>
</g>
<g>
	<g>
		<path d="M287.01,166.011c-8.276,0-15,6.724-15,15c0,8.276,6.724,15,15,15c5.284,0,10.285,1.082,15.001,2.763v-32.764H287.01z"/>
	</g>
</g>
<g>
	<g>
		<path d="M287.01,286.015h-61.002c-8.276,0-15,6.724-15,15.001c0,8.276,6.724,15,15,15h76.003v-32.764    C297.295,284.933,292.294,286.015,287.01,286.015z"/>
	</g>
</g>
<g>
	<g>
		<path d="M233.296,47.283c-7.361-0.795-14.789-1.276-22.289-1.276c-31.83,0-61.912,7.324-88.97,20.053    c2.144,5.911,7.61,9.948,13.967,9.948h90.003c8.276,0,15-6.724,15-15.001C241.008,54.307,237.705,51.453,233.296,47.283z"/>
	</g>
</g>
<g>
	<g>
		<path d="M276.311,436.02h-25.884c-8.276,0-15,7.017-15,15.294c0,4.993,2.847,9.102,6.813,11.863    c13.004-2.086,26.813-5.089,39.213-9.441C279.305,448.079,277.8,441.901,276.311,436.02z"/>
	</g>
</g>
<g>
	<g>
		<path d="M271.282,54.975c0.275,2.007,0.727,3.979,0.727,6.031c0,24.815-21.187,45.002-46.002,45.002h-90.003    c-17.436,0.001-32.504-10.223-39.969-25.525c-32.041,21.06-58.854,50.671-75.485,85.528h115.454    c24.815,0,45.002,20.187,45.002,45.001s-20.187,45.002-45.002,45.002H90.003c-16.539,0-30.001,13.462-30.001,30.001    c0,16.539,13.462,30.001,30.001,30.001c33.092,0,61.002,26.91,61.002,60.002c0,29.454-21.357,53.884-49.378,58.927    c31.105,19.088,67.434,30.375,106.401,30.926c-1.582-4.623-2.602-9.474-2.602-14.557c0-24.815,20.187-45.294,45.001-45.294h21.613    c0-0.099-0.031-0.194-0.031-0.293c0-21.197,5.239-41.231,14.451-59.709h-60.453c-24.815,0-45.001-20.187-45.001-45.001    s20.187-45.002,45.001-45.002h61.002c8.276,0,15.001-6.724,15.001-15c0-8.276-6.724-15-15.001-15    c-24.815,0-46.002-20.187-46.002-45.002s21.187-45.001,46.002-45.001h15.001V76.008c0-3.122,0.652-6.063,0.921-9.117    C292.756,61.986,282.111,58.2,271.282,54.975z"/>
	</g>
</g>
<g>
	<g>
		<path d="M136.005,196.012H8.844C3.157,215.043,0,235.157,0,256.014c0,58.74,24.308,111.854,63.313,150.005h26.69    c16.539,0,31.001-13.462,31.001-30.001c0-16.539-14.462-30.001-31.001-30.001c-33.092,0-60.002-26.91-60.002-60.002    s26.91-60.002,60.002-60.002h46.002c8.276,0,15-6.724,15-15.001C151.005,202.736,144.281,196.012,136.005,196.012z"/>
	</g>
</g>
<g>
</g>
<g>
</g>
<g>
</g>
<g>
</g>
<g>
</g>
<g>
</g>
<g>
</g>
<g>
</g>
<g>
</g>
<g>
</g>
<g>
</g>
<g>
</g>
<g>
</g>
<g>
</g>
<g>
</g>
</svg>
