<?xml version="1.0" encoding="iso-8859-1"?>
<!-- Generator: Adobe Illustrator 19.0.0, SVG Export Plug-In . SVG Version: 6.00 Build 0)  -->
<svg xmlns="http://www.w3.org/2000/svg" xmlns:xlink="http://www.w3.org/1999/xlink" version="1.1" id="Capa_1" x="0px" y="0px" viewBox="0 0 512 512" style="enable-background:new 0 0 512 512;" xml:space="preserve">
<g>
	<g>
		<path d="M422,436.864c0-8.291,6.709-15,15-15h75c0-49.706-40.294-90-90-90H256h-86.472c25.199,22.013,41.472,53.99,41.472,90h75    c8.291,0,15,6.709,15,15c0,8.291-6.709,15-15,15h-79.268c-6.26,23.557-19.308,44.368-37.203,60H422    c39.13,0,72.09-25.124,84.489-60H437C428.709,451.864,422,445.155,422,436.864z M407,391.864H286c-8.291,0-15-6.709-15-15    c0-8.291,6.709-15,15-15h121c8.291,0,15,6.709,15,15C422,385.155,415.291,391.864,407,391.864z"/>
	</g>
</g>
<g>
	<g>
		<path d="M256,162.978c-21.592,33.75-45,77.509-45,93.886c0,24.814,20.186,45,45,45c24.814,0,45-20.186,45-45    C301,240.458,277.592,196.714,256,162.978z"/>
	</g>
</g>
<g>
	<g>
		<path d="M267.514,5.255c-5.684-6.826-17.344-6.826-23.027,0C231.845,20.386,121,156.166,121,225.864c0,66.724,49.204,106,135,106    c-41.353,0-75-33.647-75-75c0-35.991,52.192-114.379,62.651-129.525c5.625-8.115,19.072-8.115,24.697,0    C278.808,142.485,331,220.872,331,256.864c0,41.353-33.647,75-75,75c85.796,0,135-39.277,135-106    C391,156.167,280.155,20.386,267.514,5.255z"/>
	</g>
</g>
<g>
	<g>
		<path d="M91,391.864c-16.569,0-31,13.431-31,30c0,16.567,14.431,30,31,30c16.569,0,30-13.433,30-30    C121,405.295,107.569,391.864,91,391.864z"/>
	</g>
</g>
<g>
	<g>
		<path d="M91,331.864c-49.706,0-91,40.294-91,90s41.294,90,91,90s90-40.294,90-90S140.706,331.864,91,331.864z M91,481.864    c-33.137,0-61-26.863-61-60c0-33.139,27.863-60,61-60s60,26.862,60,60C151,455.001,124.137,481.864,91,481.864z"/>
	</g>
</g>
<g>
</g>
<g>
</g>
<g>
</g>
<g>
</g>
<g>
</g>
<g>
</g>
<g>
</g>
<g>
</g>
<g>
</g>
<g>
</g>
<g>
</g>
<g>
</g>
<g>
</g>
<g>
</g>
<g>
</g>
</svg>
