<?xml version="1.0" encoding="iso-8859-1"?>
<!-- Generator: Adobe Illustrator 19.0.0, SVG Export Plug-In . SVG Version: 6.00 Build 0)  -->
<svg xmlns="http://www.w3.org/2000/svg" xmlns:xlink="http://www.w3.org/1999/xlink" version="1.1" id="Capa_1" x="0px" y="0px" viewBox="0 0 512 512" style="enable-background:new 0 0 512 512;" xml:space="preserve">
<g>
	<g>
		<rect x="422" y="392" width="30" height="30"/>
	</g>
</g>
<g>
	<g>
		<rect x="302" y="392" width="30" height="30"/>
	</g>
</g>
<g>
	<g>
		<path d="M504.076,211.773c-4.863-2.622-10.811-2.329-15.396,0.747L377,286.978V225c0-5.537-3.047-10.62-7.925-13.228    c-4.878-2.622-10.811-2.329-15.396,0.747l-111.68,74.458V225c0-5.684-3.208-10.869-8.291-13.418    c-5.054-2.505-11.162-1.992-15.703,1.421l-122,90c-3.779,2.827-6.006,7.28-6.006,11.997c0,74.456,0,122.33,0,197    c142.447,0,260.224,0,407,0c8.291,0,15-6.709,15-15V225C512,219.463,508.954,214.38,504.076,211.773z M242.001,482h-122v-60    c0-33.091,27.909-60,61-60s61,26.909,61,60V482z M362.001,437c0,8.291-6.709,15-15,15h-60c-8.291,0-15-6.709-15-15v-60    c0-8.291,6.709-15,15-15h60c8.291,0,15,6.709,15,15V437z M482.001,437c0,8.291-6.709,15-15,15h-60c-8.291,0-15-6.709-15-15v-60    c0-8.291,6.709-15,15-15h60c8.291,0,15,6.709,15,15V437z"/>
	</g>
</g>
<g>
	<g>
		<path d="M181.001,120c0-16.569-13.431-30-30-30h-121c-16.569,0-30,13.431-30,30c0,15.343,11.685,27.517,26.548,29.303    L0.045,495.843c-0.322,4.175,1.113,8.276,3.955,11.353C6.827,510.257,10.826,512,15.001,512h45V315    c0-14.106,6.738-27.568,18.032-36.021l81.739-60.549l-5.319-69.128C169.316,147.515,181.001,135.342,181.001,120z"/>
	</g>
</g>
<g>
	<g>
		<path d="M467.001,60h-16.509c-6.973-34.189-37.266-60-73.491-60h-272C68.784,0,38.488,25.809,31.519,60h119.482    c23.04,0,46.674,14.28,56.217,36.764C221.152,129.597,253.496,150,287.001,150h180c24.814,0,45-20.186,45-45    C512,80.186,491.815,60,467.001,60z"/>
	</g>
</g>
<g>
</g>
<g>
</g>
<g>
</g>
<g>
</g>
<g>
</g>
<g>
</g>
<g>
</g>
<g>
</g>
<g>
</g>
<g>
</g>
<g>
</g>
<g>
</g>
<g>
</g>
<g>
</g>
<g>
</g>
</svg>
