<?xml version="1.0" encoding="iso-8859-1"?>
<!-- Generator: Adobe Illustrator 19.0.0, SVG Export Plug-In . SVG Version: 6.00 Build 0)  -->
<svg xmlns="http://www.w3.org/2000/svg" xmlns:xlink="http://www.w3.org/1999/xlink" version="1.1" id="Capa_1" x="0px" y="0px" viewBox="0 0 512 512" style="enable-background:new 0 0 512 512;" xml:space="preserve">
<g>
	<g>
		<path d="M491.587,64.376L431.605,4.395c-5.859-5.859-15.352-5.859-21.211,0s-5.859,15.352,0,21.211l40.701,40.701    C424.602,77.889,406,104.286,406,135v62c0,8.291,6.709,15,15,15h45v165c0,8.276-6.724,15-15,15s-15-6.724-15-15v-90    c0-24.814-20.186-45-45-45h-15V45c0-24.814-20.186-45-45-45H91C66.186,0,46,20.186,46,45v377h150v-60h-15    c-41.353,0-75-33.647-75-75v-30c0-8.291,6.709-15,15-15h30c24.62,0,46.318,12.085,60,30.463C224.682,254.085,246.38,242,271,242    h30c8.291,0,15,6.709,15,15v30c0,41.353-33.647,75-75,75h-15v60h150V272h15c8.276,0,15,6.724,15,15v90c0,24.814,20.186,45,45,45    c24.814,0,45-20.186,45-45c0-62.62,0-235.758,0-302C496,71.111,494.412,67.192,491.587,64.376z M316,197c0,8.291-6.709,15-15,15    H121c-8.291,0-15-6.709-15-15V75c0-8.291,6.709-15,15-15h180c8.291,0,15,6.709,15,15V197z"/>
	</g>
</g>
<g>
	<g>
		<path d="M376,452H46c-16.569,0-30,13.431-30,30v15c0,8.284,6.716,15,15,15h360c8.284,0,15-6.716,15-15v-15    C406,465.431,392.569,452,376,452z"/>
	</g>
</g>
<g>
	<g>
		<rect x="136" y="90" width="150" height="92"/>
	</g>
</g>
<g>
	<g>
		<path d="M151,272h-15v15c0,24.814,20.186,45,45,45h15c0-5.931,0-9.172,0-15C196,292.186,175.814,272,151,272z"/>
	</g>
</g>
<g>
	<g>
		<path d="M271,272c-24.814,0-45,20.186-45,45c0,5.834,0,9.069,0,15h15c24.814,0,45-20.186,45-45v-15H271z"/>
	</g>
</g>
<g>
</g>
<g>
</g>
<g>
</g>
<g>
</g>
<g>
</g>
<g>
</g>
<g>
</g>
<g>
</g>
<g>
</g>
<g>
</g>
<g>
</g>
<g>
</g>
<g>
</g>
<g>
</g>
<g>
</g>
</svg>
