<?xml version="1.0" encoding="iso-8859-1"?>
<!-- Generator: Adobe Illustrator 19.0.0, SVG Export Plug-In . SVG Version: 6.00 Build 0)  -->
<svg xmlns="http://www.w3.org/2000/svg" xmlns:xlink="http://www.w3.org/1999/xlink" version="1.1" id="Capa_1" x="0px" y="0px" viewBox="0 0 511.999 511.999" style="enable-background:new 0 0 511.999 511.999;" xml:space="preserve">
<g>
	<g>
		<path d="M505.198,248.778l-45.707-73.132l19.633-11.785c5.201-3.12,8.013-9.068,7.12-15.074    c-0.894-5.991-5.317-10.869-11.206-12.334l-120-30c-8.115-2.021-16.187,2.856-18.179,10.913l-30,120    c-1.479,5.874,0.747,12.07,5.61,15.688c4.893,3.589,11.455,3.926,16.655,0.806l19.277-11.572    c19.206,29.702,34.547,53.421,47.666,73.711h-86.03l43.184,43.184c17.549,17.549,17.549,46.084,0,63.633L310.037,466h82.822    c17.153,0,32.578-9.536,40.254-24.873c5.969-11.939,34.28-68.57,74.18-148.374C514.251,278.837,513.445,261.991,505.198,248.778z"/>
	</g>
</g>
<g>
	<g>
		<path d="M372.938,37.15c-8.291-13.24-22.558-21.151-38.159-21.151c-30.907,0-128.427,0-157.558,0    c-15.601,0-29.868,7.91-38.159,21.152l-48.831,78.133l-11.917-7.147c-11.424-6.854-25.519,3.576-22.266,16.494l30,120    c2.014,8.09,10.203,12.931,18.179,10.913l120-30c12.909-3.212,15.54-20.535,4.087-27.407l-22.427-13.462    c21.22-35.37,35.742-59.573,46.276-77.13l43.381,51.378l12.208-48.838c5.973-24.104,30.341-38.763,54.536-32.739l42.391,10.594    L372.938,37.15z"/>
	</g>
</g>
<g>
	<g>
		<path d="M332.01,380.394l-90-90c-9.408-9.408-25.605-2.756-25.605,10.605v15c-34.788,0-70.469,0-89.316,0l24.882-41.466    l-40.463,10.118c-23.674,6.017-48.468-8.253-54.565-32.769l-14.885-59.524l-35.257,56.42c-8.247,13.213-9.053,30.059-2.095,43.975    c1.006,2.012,15.488,30.977,74.18,148.374C86.562,456.464,101.987,466,119.14,466h97.265v15c0,13.376,16.225,19.986,25.605,10.605    l90-90C337.869,395.746,337.869,386.253,332.01,380.394z"/>
	</g>
</g>
<g>
</g>
<g>
</g>
<g>
</g>
<g>
</g>
<g>
</g>
<g>
</g>
<g>
</g>
<g>
</g>
<g>
</g>
<g>
</g>
<g>
</g>
<g>
</g>
<g>
</g>
<g>
</g>
<g>
</g>
</svg>
