<?xml version="1.0" encoding="iso-8859-1"?>
<!-- Generator: Adobe Illustrator 19.0.0, SVG Export Plug-In . SVG Version: 6.00 Build 0)  -->
<svg xmlns="http://www.w3.org/2000/svg" xmlns:xlink="http://www.w3.org/1999/xlink" version="1.1" id="Capa_1" x="0px" y="0px" viewBox="0 0 512 512" style="enable-background:new 0 0 512 512;" xml:space="preserve">
<g>
	<g>
		<path d="M271,92.516V196c0,8.291-6.709,15-15,15c-8.291,0-15-6.709-15-15V92.516c-50.75,7.357-90,50.729-90,103.484    c0,57.891,47.109,105,105,105s105-47.109,105-105C361,143.245,321.75,99.873,271,92.516z M256,271c-41.353,0-75-33.647-75-75    c0-20.024,7.808-38.862,21.987-53.027c5.859-5.83,15.366-5.845,21.226,0.015c5.845,5.874,5.845,15.366-0.015,21.226    C215.688,172.709,211,183.988,211,196c0,24.814,20.186,45,45,45c24.814,0,45-20.186,45-45c0-12.012-4.688-23.291-13.198-31.787    c-5.859-5.859-5.859-15.352-0.015-21.226c5.859-5.859,15.366-5.845,21.226-0.015C323.192,157.138,331,175.976,331,196    C331,237.353,297.353,271,256,271z"/>
	</g>
</g>
<g>
	<g>
		<path d="M346,391h-30c-8.276,0-15,6.724-15,15s6.724,15,15,15h30c8.276,0,15-6.724,15-15S354.276,391,346,391z"/>
	</g>
</g>
<g>
	<g>
		<path d="M196,391h-30c-8.276,0-15,6.724-15,15s6.724,15,15,15h30c8.276,0,15-6.724,15-15S204.276,391,196,391z"/>
	</g>
</g>
<g>
	<g>
		<path d="M376,0H136C94.647,0,61,34.647,61,76v360c0,41.353,33.647,76,75,76h240c41.353,0,75-34.647,75-76V76    C451,34.647,417.353,0,376,0z M196,451h-30c-24.814,0-45-20.186-45-45c0-24.814,20.186-45,45-45h30c24.814,0,45,20.186,45,45    C241,430.814,220.814,451,196,451z M346,451h-30c-24.814,0-45-20.186-45-45c0-24.814,20.186-45,45-45h30c24.814,0,45,20.186,45,45    C391,430.814,370.814,451,346,451z M256,331c-74.443,0-135-60.557-135-135S181.557,61,256,61s135,60.557,135,135    S330.443,331,256,331z"/>
	</g>
</g>
<g>
</g>
<g>
</g>
<g>
</g>
<g>
</g>
<g>
</g>
<g>
</g>
<g>
</g>
<g>
</g>
<g>
</g>
<g>
</g>
<g>
</g>
<g>
</g>
<g>
</g>
<g>
</g>
<g>
</g>
</svg>
