<?xml version="1.0" encoding="iso-8859-1"?>
<!-- Generator: Adobe Illustrator 19.0.0, SVG Export Plug-In . SVG Version: 6.00 Build 0)  -->
<svg xmlns="http://www.w3.org/2000/svg" xmlns:xlink="http://www.w3.org/1999/xlink" version="1.1" id="Capa_1" x="0px" y="0px" viewBox="0 0 512 512" style="enable-background:new 0 0 512 512;" xml:space="preserve">
<g>
	<g>
		<path d="M226,452H75c-16.569,0-30,13.431-30,30c0,16.567,13.431,30,30,30h151c16.569,0,30-13.433,30-30    C256,465.431,242.569,452,226,452z"/>
	</g>
</g>
<g>
	<g>
		<path d="M210.297,309.097l-0.038-0.266l-63.472-62.472c-11.715-11.715-30.71-11.715-42.426,0    c-11.717,11.717-11.717,30.71,0,42.427l-0.35-0.141l46.736,46.749c14.139,14.139-7.256,35.165-21.211,21.211l-56.353-56.367    C64.424,291.51,60,279.207,60,269.343c0-22.094,0-92.466,0-118.343c0-16.569-13.431-30-30-30c-16.569,0-30,13.431-30,30    c0,23.401,0-23.258,0,152.578c0,12.012,4.688,23.32,13.184,31.816L60,382.211V422h180.989L241,383.31    C241,355.282,230.1,328.926,210.297,309.097z"/>
	</g>
</g>
<g>
	<g>
		<path d="M437,452H286c-16.569,0-30,13.431-30,30c0,16.567,13.431,30,30,30h151c16.569,0,30-13.433,30-30    C467,465.431,453.569,452,437,452z"/>
	</g>
</g>
<g>
	<g>
		<path d="M482,121c-16.569,0-30,13.431-30,30c0,25.876,0,96.249,0,118.343c0,9.864-4.424,22.167-13.184,30.895l-56.353,56.367    c-13.954,13.954-35.35-7.072-21.211-21.211l46.736-46.749l-0.35,0.141c11.717-11.717,11.717-30.71,0-42.427    c-11.715-11.715-30.71-11.715-42.426,0l-63.472,62.472l-0.038,0.266C281.9,328.925,271,355.282,271,383.31l0.011,38.69H452    v-39.789l46.816-46.816C507.313,326.898,512,315.59,512,303.578c0-175.836,0-129.177,0-152.578C512,134.431,498.569,121,482,121z"/>
	</g>
</g>
<g>
	<g>
		<path d="M316.219,149.124c-19.605,0-34.109,7.619-45.22,17.336V120h15c41.353,0,76-33.647,76-75V15c0-8.291-6.709-15-15-15h-31    c-24.62,0-46.318,12.085-60,30.463C242.318,12.085,219.62,0,195,0h-30c-8.291,0-15,6.709-15,15v30c0,41.353,34.647,75,76,75h15    v46.103c-11.063-9.535-26.424-16.978-45.78-16.978c-34.913,0-63.237,24.606-71.957,58.813c18.512-0.731,33.314,5.784,44.74,17.212    l70.272,69.287l0.146,0.894c7.125,8.264,12.715,17.461,17.578,27.008c4.863-9.549,10.453-18.745,17.578-27.008l0.103-0.63    c10.217-10.545,59.021-58.253,70.316-69.551c11.591-11.592,26.409-18.014,45.2-17.139    C380.498,173.765,351.156,149.124,316.219,149.124z"/>
	</g>
</g>
<g>
</g>
<g>
</g>
<g>
</g>
<g>
</g>
<g>
</g>
<g>
</g>
<g>
</g>
<g>
</g>
<g>
</g>
<g>
</g>
<g>
</g>
<g>
</g>
<g>
</g>
<g>
</g>
<g>
</g>
</svg>
