<?xml version="1.0" encoding="iso-8859-1"?>
<!-- Generator: Adobe Illustrator 19.0.0, SVG Export Plug-In . SVG Version: 6.00 Build 0)  -->
<svg xmlns="http://www.w3.org/2000/svg" xmlns:xlink="http://www.w3.org/1999/xlink" version="1.1" id="Capa_1" x="0px" y="0px" viewBox="0 0 512 512" style="enable-background:new 0 0 512 512;" xml:space="preserve">
<g>
	<g>
		<path d="M323.222,1.205C315.914,0.432,308.509,0,301,0c-31.833,0-61.917,7.328-88.978,20.057C214.115,25.823,219.516,30,226,30h90    c8.276,0,15-6.724,15-15C331,8.199,327.633,5.433,323.222,1.205z"/>
	</g>
</g>
<g>
	<g>
		<path d="M474.092,90H406c-8.276,0-15,6.724-15,15s6.724,15,15,15c24.814,0,45,20.186,45,45c0,24.814-20.186,45-45,45h-60    c-8.276,0-15,6.724-15,15s6.724,15,15,15h163.563c1.489-9.886,2.437-19.882,2.437-30C512,165.383,497.91,124.052,474.092,90z"/>
	</g>
</g>
<g>
	<g>
		<path d="M346,270c-24.814,0-45-20.186-45-45c0-24.814,20.186-45,45-45h60c8.276,0,15-6.724,15-15s-6.724-15-15-15    c-24.814,0-45-20.186-45-45c0-24.814,20.186-45,45-45h41.689c-24.219-23.69-54.117-41.528-87.455-51.354    C360.54,10.757,361,12.838,361,15c0,24.814-20.186,45-45,45h-90c-17.732,0-32.953-10.397-40.281-25.334    C163.453,49.356,144.181,68.163,128.908,90H256c24.814,0,45,20.186,45,45c0,24.814-20.186,45-45,45h-45c-16.538,0-30,13.462-30,30    c0,9.639,13.14,21.621,29.912,27.246c15.377,5.143,26.107,19.239,28.914,35.927c24.531,2.937,45.245,11.069,60.353,24.351    l2.71,2.432L346,300c24.038,0,44.824,14.209,54.39,34.673l35.259-43.901c10.737-11.585,24.425-18.328,38.352-20.209V270H346z"/>
	</g>
</g>
<g>
	<g>
		<path d="M256,120H111.55C98.515,147.323,90,177.764,90,210c0,31.593,7.839,62.415,21.352,90.599    c26.338-15.809,62.928-26.127,97.2-28.044c-1.718-3.203-4.063-5.823-7.176-6.861C176.298,257.271,151,236.777,151,210    c0-33.091,26.909-60,60-60h45c8.276,0,15-6.724,15-15S264.276,120,256,120z"/>
	</g>
</g>
<g>
	<g>
		<path d="M45,300H15c-8.291,0-15,6.709-15,15v182c0,8.291,6.709,15,15,15h30c24.814,0,45-20.186,45-45V345    C90,320.186,69.814,300,45,300z M45,390c-8.284,0-15-6.716-15-15s6.716-15,15-15s15,6.716,15,15S53.284,390,45,390z"/>
	</g>
</g>
<g>
	<g>
		<path d="M499.646,305.755c-12.358-9.022-29.333-7.191-39.604,3.796l-82.05,100.913c-5.506,5.92-16.401,9.536-21.943,9.536    c-32.346,0,9.536,0-86.66,0c-5.713,0-10.854,3.164-13.403,8.276c-3.734,7.487-12.827,10.391-20.112,6.724    c-7.412-3.691-10.43-12.7-6.724-20.112C236.796,399.536,252.221,390,269.389,390c30.628,0,46.078,0,76.611,0    c16.569,0,30-13.431,30-30c0-16.569-13.431-30-30-30h-45c-10.946,0-11.658-2.049-20.64-9.946    C243.789,287.875,159.168,302.626,120,330v152c16.95,6.418,66.021,30,84.188,30H346c28.198,0,55.107-13.462,71.997-36.021    l88.012-127.991C516.019,334.689,513.201,315.648,499.646,305.755z"/>
	</g>
</g>
<g>
</g>
<g>
</g>
<g>
</g>
<g>
</g>
<g>
</g>
<g>
</g>
<g>
</g>
<g>
</g>
<g>
</g>
<g>
</g>
<g>
</g>
<g>
</g>
<g>
</g>
<g>
</g>
<g>
</g>
</svg>
