<?xml version="1.0" encoding="iso-8859-1"?>
<!-- Generator: Adobe Illustrator 19.0.0, SVG Export Plug-In . SVG Version: 6.00 Build 0)  -->
<svg xmlns="http://www.w3.org/2000/svg" xmlns:xlink="http://www.w3.org/1999/xlink" version="1.1" id="Capa_1" x="0px" y="0px" viewBox="0 0 512 512" style="enable-background:new 0 0 512 512;" xml:space="preserve">
<g>
	<g>
		<path d="M346,451h-15v-44.185c-23.791,8.381-49.008,12.995-75,12.995c-25.997,0-51.213-4.614-75-12.993V451h-15    c-24.853,0-45,21.147-45,46c0,8.284,6.716,15,15,15h240c8.284,0,15-6.716,15-15C391,472.147,370.853,451,346,451z"/>
	</g>
</g>
<g>
	<g>
		<path d="M393.701,57.299c-12.019-12.019-30.026-13.619-43.592-5.294c-6.359,3.906-60.928,68-65.843,73.618    c18.627,7.619,33.49,22.482,41.109,41.109c5.2-4.552,68.774-59.388,72.462-64.59C407.888,87.959,405.654,69.253,393.701,57.299z"/>
	</g>
</g>
<g>
	<g>
		<path d="M256,150c-24.814,0-45,20.186-45,45c0,24.814,20.186,45,45,45c24.814,0,45-20.186,45-45C301,170.186,280.814,150,256,150z    "/>
	</g>
</g>
<g>
	<g>
		<path d="M186.638,223.311c-52.095,45.736-38.569,34.213-62.937,54.188c-18.146,13.184-22.02,38.578-5.402,55.199    c16.366,15.986,42.136,12.648,54.6-4.498c20.508-25.333,10.303-13.222,54.778-63.842    C209.088,256.737,194.255,241.902,186.638,223.311z"/>
	</g>
</g>
<g>
	<g>
		<path d="M164.8,53.999l-0.3-0.3c-14.401-10.8-33.9-8.699-46.201,3.6c-13.2,13.2-13.799,33.3-2.999,47.1    c0.39,0.5,70.849,61.906,71.327,62.325c7.614-18.605,22.451-33.459,41.05-41.083C225.956,123.682,167.089,55.248,164.8,53.999z"/>
	</g>
</g>
<g>
	<g>
		<path d="M395.832,284.374c0,0-37.505-32.086-70.474-61.051c-7.621,18.589-22.456,33.422-41.047,41.039    c0.443,0.505,62.216,71.638,62.888,71.638c14.702,10.8,34.201,9,46.502-3.301C406.652,319.746,407.758,298.991,395.832,284.374z"/>
	</g>
</g>
<g>
	<g>
		<path d="M429.394,106.058c-1.857,4.645-4.07,9.19-7.075,13.429c-6.676,9.421-74.982,67.919-83.719,75.542    c27.101,23.82,53.505,46.675,76.732,66.533c6.07,5.202,11.217,14.559,14.16,22.178C443.145,257.1,451,226.994,451,195    C451,162.927,443.112,132.748,429.394,106.058z"/>
	</g>
</g>
<g>
	<g>
		<path d="M256,0c-32.06,0-62.228,7.883-88.911,21.592c6.357,2.499,13.834,5.993,18.613,10.913    c9.399,9.055,61.187,69.503,70.237,79.904c9.19-10.552,66.55-78.668,78.488-85.968c3.369-2.071,7.104-3.301,10.759-4.717    C318.441,7.927,288.17,0,256,0z"/>
	</g>
</g>
<g>
	<g>
		<path d="M91.468,122.623c-3.936-5.033-6.758-10.579-8.99-16.299C68.842,132.949,61,163.032,61,195    c0,32.076,7.888,62.26,21.61,88.949c4.702-12.019,12.557-22.806,23.448-30.721c24.474-20.2,34.891-29.705,67.233-58.099    C169.42,191.619,94.352,126.4,91.468,122.623z"/>
	</g>
</g>
<g>
	<g>
		<path d="M329.448,360.191l0.22-0.293c-13.334-11.032-62.01-68.871-73.61-82.405c-47.327,53.826-39.886,44.826-59.837,69.587    c-7.018,9.686-17.46,16.868-29.238,21.277C193.689,382.099,223.898,390,256,390c32.146,0,62.391-7.917,89.125-21.694    C339.667,366.193,334.302,363.75,329.448,360.191z"/>
	</g>
</g>
<g>
</g>
<g>
</g>
<g>
</g>
<g>
</g>
<g>
</g>
<g>
</g>
<g>
</g>
<g>
</g>
<g>
</g>
<g>
</g>
<g>
</g>
<g>
</g>
<g>
</g>
<g>
</g>
<g>
</g>
</svg>
