<?xml version="1.0" encoding="iso-8859-1"?>
<!-- Generator: Adobe Illustrator 19.0.0, SVG Export Plug-In . SVG Version: 6.00 Build 0)  -->
<svg xmlns="http://www.w3.org/2000/svg" xmlns:xlink="http://www.w3.org/1999/xlink" version="1.1" id="Capa_1" x="0px" y="0px" viewBox="0 0 512 512" style="enable-background:new 0 0 512 512;" xml:space="preserve">
<g>
	<g>
		<path d="M179.169,31.523c-4.146-7.163-13.315-9.653-20.493-5.464C98.427,60.894,61,126.625,61,196v0.22    c0,8.291,6.709,14.897,15,14.897S91,204.291,91,196c0-58.696,31.685-114.481,82.705-143.983    C180.868,47.871,183.329,38.701,179.169,31.523z"/>
	</g>
</g>
<g>
	<g>
		<path d="M353.324,26.06c-7.222-4.189-16.362-1.699-20.493,5.464c-4.16,7.178-1.699,16.348,5.464,20.493    C389.315,81.519,421,137.304,421,196.234c0,8.291,6.709,14.883,15,14.883c8.291,0,15-6.826,15-15.117    C451,126.625,413.573,60.894,353.324,26.06z"/>
	</g>
</g>
<g>
	<g>
		<path d="M175.917,105.458c-6.196-5.449-15.674-4.893-21.167,1.333c-11.997,13.608-20.977,29.136-26.719,46.172    c-2.637,7.852,1.582,16.362,9.434,19.014c8.007,2.644,16.408-1.708,19.014-9.434c4.453-13.242,11.44-25.327,20.771-35.918    C182.729,120.414,182.128,110.937,175.917,105.458z"/>
	</g>
</g>
<g>
	<g>
		<path d="M383.969,152.963c-5.742-17.036-14.722-32.563-26.719-46.172c-5.464-6.226-14.927-6.782-21.167-1.333    c-6.211,5.479-6.812,14.956-1.333,21.167c9.331,10.591,16.318,22.676,20.771,35.918c2.606,7.725,11.007,12.078,19.014,9.434    C382.387,169.326,386.605,160.815,383.969,152.963z"/>
	</g>
</g>
<g>
	<g>
		<path d="M361,452H151c-16.569,0-30,13.431-30,30v15c0,8.284,6.716,15,15,15h240c8.284,0,15-6.716,15-15v-15    C391,465.431,377.569,452,361,452z"/>
	</g>
</g>
<g>
	<g>
		<path d="M408.403,232.02L301,170.028V45c0-24.814-20.186-45-45-45c-24.814,0-45,20.186-45,45v125.028L103.598,232.02    c-21.475,12.407-28.872,39.976-16.479,61.465c12.46,21.72,40.313,28.656,61.479,16.494L256,247.958l107.417,62.021    c21.447,12.371,49.03,5.032,61.465-16.494C437.275,271.996,429.877,244.427,408.403,232.02z M256,211c-8.276,0-15-6.724-15-15    s6.724-15,15-15s15,6.724,15,15S264.276,211,256,211z"/>
	</g>
</g>
<g>
	<g>
		<polygon points="311.858,314.85 256,282.602 200.14,314.861 183.206,422 328.794,422   "/>
	</g>
</g>
<g>
</g>
<g>
</g>
<g>
</g>
<g>
</g>
<g>
</g>
<g>
</g>
<g>
</g>
<g>
</g>
<g>
</g>
<g>
</g>
<g>
</g>
<g>
</g>
<g>
</g>
<g>
</g>
<g>
</g>
</svg>
