<?xml version="1.0" encoding="iso-8859-1"?>
<!-- Generator: Adobe Illustrator 19.0.0, SVG Export Plug-In . SVG Version: 6.00 Build 0)  -->
<svg xmlns="http://www.w3.org/2000/svg" xmlns:xlink="http://www.w3.org/1999/xlink" version="1.1" id="Capa_1" x="0px" y="0px" viewBox="0 0 512 512" style="enable-background:new 0 0 512 512;" xml:space="preserve">
<g>
	<g>
		<path d="M317,0c-19.53,0-36.024,12.578-42.237,30h-35.526C233.024,12.578,215.53,0,196,0c-19.53,0-36.024,12.578-42.237,30    h-35.526C112.024,12.578,95.53,0,76,0C51.186,0,31,20.186,31,45c0,24.814,20.186,45,45,45c19.53,0,36.024-12.578,42.237-30H151v15    c0,8.291,6.709,15,15,15h16.245v30H166c-24.814,0-45,20.186-45,45v92c0,24.814,20.186,45,45,45h61c24.814,0,45-20.186,45-45v-92    c0-24.814-20.186-45-45-45h-14.755V90H227c8.291,0,15-6.709,15-15V60h32.763C280.976,77.422,297.47,90,317,90    c24.814,0,45-20.186,45-45C362,20.186,341.814,0,317,0z"/>
	</g>
</g>
<g>
	<g>
		<path d="M497,332h-15v-75c0-57.891-47.109-107-105-107h-75c0,22.223,0,95.866,0,122h45c8.276,0,15,6.724,15,15v45h-15    c-8.291,0-15,6.709-15,15c0,8.291,6.709,15,15,15c17.843,0,33.055,0,51.282,0l-30.511,64.307C363.948,434.363,362,443.021,362,452    c0,33.091,26.909,60,60,60s60-26.909,60-60c0-9.302-2.08-18.223-6.167-26.514L445.716,362c18.228,0,33.441,0,51.284,0    c8.291,0,15-6.709,15-15C512,338.709,505.291,332,497,332z"/>
	</g>
</g>
<g>
	<g>
		<path d="M15,150c-8.291,0-15,6.709-15,15v92c0,8.291,6.709,15,15,15h76c0-25.273,0-96.31,0-122H15z"/>
	</g>
</g>
<g>
</g>
<g>
</g>
<g>
</g>
<g>
</g>
<g>
</g>
<g>
</g>
<g>
</g>
<g>
</g>
<g>
</g>
<g>
</g>
<g>
</g>
<g>
</g>
<g>
</g>
<g>
</g>
<g>
</g>
</svg>
