<?xml version="1.0" encoding="iso-8859-1"?>
<!-- Generator: Adobe Illustrator 19.0.0, SVG Export Plug-In . SVG Version: 6.00 Build 0)  -->
<svg xmlns="http://www.w3.org/2000/svg" xmlns:xlink="http://www.w3.org/1999/xlink" version="1.1" id="Capa_1" x="0px" y="0px" viewBox="0 0 512 512" style="enable-background:new 0 0 512 512;" xml:space="preserve">
<g>
	<g>
		<path d="M412.177,198.899l-36.105-48.137h-30.018c-8.281,0-15.01,6.728-15.01,15.01c0,8.296-6.713,15.01-15.01,15.01h-60.04    c-8.281,0-15.01,6.728-15.01,15.01s6.728,15.01,15.01,15.01h150.099c4.123,0,7.668-2.087,10.464-4.978    C415.002,203.561,413.835,201.108,412.177,198.899z"/>
	</g>
</g>
<g>
	<g>
		<path d="M431.891,232.271c-7.487,5.289-16.34,8.552-25.796,8.552H255.996c-24.83,0-45.03-20.199-45.03-45.03    s20.199-45.03,45.03-45.03h47.594c6.2-17.472,22.896-30.02,42.465-30.02h7.501L268,5.673c-5.658-7.564-18.352-7.564-24.01,0    L99.813,198.885C77.164,229.064,64.619,264.513,61.977,301.9c16.664,5.677,34.326,1.831,49.563-12.105    c32.996-30.093,77.322-30.079,110.288,0.015c21.547,19.642,48.284,19.642,69.831,0c32.981-30.108,77.307-30.108,110.288,0    c14.631,13.345,31.781,17.585,48.112,12.651C448.391,277.872,442.361,254.213,431.891,232.271z"/>
	</g>
</g>
<g>
	<g>
		<path d="M286.015,390.921c-8.281,0-15.01,6.728-15.01,15.01s6.728,15.01,15.01,15.01s15.01-6.728,15.01-15.01    S294.296,390.921,286.015,390.921z"/>
	</g>
</g>
<g>
	<g>
		<path d="M381.718,311.987c-21.547-19.671-48.284-19.657-69.831-0.015c-32.981,30.108-77.307,30.108-110.288,0    c-21.547-19.642-48.284-19.642-69.831,0c-19.25,17.568-44.049,26.474-70.027,21.163C70.524,432.658,154.231,512,255.995,512    c101.824,0,185.568-79.441,194.264-179.049C426.502,337.224,401.807,330.304,381.718,311.987z M165.936,360.901    c-8.289,0-15.01-6.72-15.01-15.01c0-8.289,6.72-15.01,15.01-15.01s15.01,6.72,15.01,15.01    C180.946,354.18,174.225,360.901,165.936,360.901z M195.956,420.94c-8.289,0-15.01-6.72-15.01-15.01s6.72-15.01,15.01-15.01    c8.289,0,15.01,6.72,15.01,15.01S204.245,420.94,195.956,420.94z M286.015,450.96c-24.83,0-45.03-20.199-45.03-45.03    s20.199-45.03,45.03-45.03s45.03,20.199,45.03,45.03S310.845,450.96,286.015,450.96z M346.054,360.901    c-8.289,0-15.01-6.72-15.01-15.01c0-8.289,6.72-15.01,15.01-15.01c8.289,0,15.01,6.72,15.01,15.01    C361.064,354.18,354.344,360.901,346.054,360.901z"/>
	</g>
</g>
<g>
</g>
<g>
</g>
<g>
</g>
<g>
</g>
<g>
</g>
<g>
</g>
<g>
</g>
<g>
</g>
<g>
</g>
<g>
</g>
<g>
</g>
<g>
</g>
<g>
</g>
<g>
</g>
<g>
</g>
</svg>
