<?xml version="1.0" encoding="iso-8859-1"?>
<!-- Generator: Adobe Illustrator 19.0.0, SVG Export Plug-In . SVG Version: 6.00 Build 0)  -->
<svg xmlns="http://www.w3.org/2000/svg" xmlns:xlink="http://www.w3.org/1999/xlink" version="1.1" id="Layer_1" x="0px" y="0px" viewBox="0 0 512 512" style="enable-background:new 0 0 512 512;" xml:space="preserve">
<g>
	<g>
		<path d="M0,0v512h512V0H0z M228.416,228.416c-4.16,4.16-9.621,6.251-15.083,6.251c-5.461,0-10.923-2.091-15.083-6.251L128,158.165    v55.168c0,11.776-9.536,21.333-21.333,21.333s-21.333-9.557-21.333-21.333V106.667c0-2.773,0.576-5.547,1.643-8.149    c2.155-5.227,6.315-9.387,11.541-11.541c2.603-1.067,5.376-1.643,8.149-1.643h106.667c11.797,0,21.333,9.557,21.333,21.333    S225.131,128,213.333,128h-55.168l70.251,70.251C236.757,206.592,236.757,220.075,228.416,228.416z M425.024,413.482    c-2.155,5.227-6.315,9.387-11.541,11.541c-2.603,1.067-5.376,1.643-8.149,1.643H298.667c-11.797,0-21.333-9.557-21.333-21.333    S286.869,384,298.667,384h55.168l-70.251-70.251c-8.341-8.341-8.341-21.824,0-30.165s21.824-8.341,30.165,0L384,353.835v-55.168    c0-11.776,9.536-21.333,21.333-21.333s21.333,9.557,21.333,21.333v106.666h0.001C426.667,408.106,426.112,410.88,425.024,413.482z    "/>
	</g>
</g>
<g>
</g>
<g>
</g>
<g>
</g>
<g>
</g>
<g>
</g>
<g>
</g>
<g>
</g>
<g>
</g>
<g>
</g>
<g>
</g>
<g>
</g>
<g>
</g>
<g>
</g>
<g>
</g>
<g>
</g>
</svg>
