<?xml version="1.0" encoding="iso-8859-1"?>
<!-- Generator: Adobe Illustrator 19.0.0, SVG Export Plug-In . SVG Version: 6.00 Build 0)  -->
<svg xmlns="http://www.w3.org/2000/svg" xmlns:xlink="http://www.w3.org/1999/xlink" version="1.1" id="Layer_1" x="0px" y="0px" viewBox="0 0 512.008 512.008" style="enable-background:new 0 0 512.008 512.008;" xml:space="preserve">
<g>
	<g>
		<path d="M192.029,0.003c5.433,0.005,10.886,2.095,15.063,6.25c8.32,8.341,8.32,21.845,0,30.165l-27.584,27.584h204.501    c58.795,0,106.667,47.851,106.667,106.667s-47.872,106.667-106.667,106.667h-256c-35.307,0-64,28.715-64,64    c0,35.307,28.693,64,64,64H332.51l-27.584-27.584c-8.341-8.32-8.341-21.824,0-30.165c8.32-8.32,21.824-8.32,30.165,0l63.979,64    c1.984,1.963,3.541,4.331,4.629,6.933c1.067,2.603,1.643,5.376,1.643,8.149s-0.576,5.547-1.643,8.149    c-1.088,2.624-2.645,4.992-4.629,6.955l-63.979,63.979c-4.181,4.181-9.643,6.251-15.083,6.251h192v-512H192.029z"/>
	</g>
</g>
<g>
	<g>
		<path d="M192.009,0.003h0.02C192.023,0.003,192.016,0.002,192.009,0.003L192.009,0.003z"/>
	</g>
</g>
<g>
	<g>
		<path d="M384,106.674H179.499l27.584,27.584c4.16,4.16,6.251,9.621,6.251,15.083c0,5.461-2.091,10.923-6.251,15.083    c-8.341,8.341-21.824,8.341-30.165,0l-63.979-63.979c-1.984-1.984-3.541-4.331-4.629-6.955c-2.155-5.205-2.155-11.093,0-16.299    c1.088-2.624,2.645-4.971,4.629-6.955l63.979-63.979c4.16-4.16,9.621-6.251,15.083-6.251H0v512h320    c-5.461,0-10.923-2.091-15.083-6.251c-8.341-8.339-8.341-21.821,0-30.163l27.584-27.584H128    c-58.816,0-106.667-47.851-106.667-106.667c0-58.816,47.851-106.667,106.667-106.667h256c35.285,0,64-28.715,64-64    C448,135.389,419.285,106.674,384,106.674z"/>
	</g>
</g>
<g>
</g>
<g>
</g>
<g>
</g>
<g>
</g>
<g>
</g>
<g>
</g>
<g>
</g>
<g>
</g>
<g>
</g>
<g>
</g>
<g>
</g>
<g>
</g>
<g>
</g>
<g>
</g>
<g>
</g>
</svg>
