<?xml version="1.0" encoding="iso-8859-1"?>
<!-- Generator: Adobe Illustrator 19.0.0, SVG Export Plug-In . SVG Version: 6.00 Build 0)  -->
<svg xmlns="http://www.w3.org/2000/svg" xmlns:xlink="http://www.w3.org/1999/xlink" version="1.1" id="Layer_1" x="0px" y="0px" viewBox="0 0 511.755 511.755" style="enable-background:new 0 0 511.755 511.755;" xml:space="preserve">
<g>
	<g>
		<path d="M436.891,74.866c-99.819-99.819-262.208-99.819-362.027,0c-99.819,99.797-99.819,262.229,0,362.027    c49.899,49.92,115.456,74.859,181.013,74.859s131.093-24.939,181.013-74.859C536.709,337.095,536.709,174.663,436.891,74.866z     M356.293,185.628l-134.25,134.251h76.501c11.797,0,21.333,9.557,21.333,21.333s-9.536,21.333-21.333,21.333h-128    c-2.773,0-5.547-0.576-8.149-1.643c-5.227-2.155-9.387-6.315-11.541-11.541c-1.067-2.603-1.643-5.376-1.643-8.149v-128    c0-11.776,9.536-21.333,21.333-21.333s21.333,9.557,21.333,21.333v76.501l134.251-134.251c8.341-8.341,21.824-8.341,30.165,0    C364.635,163.804,364.635,177.287,356.293,185.628z"/>
	</g>
</g>
<g>
</g>
<g>
</g>
<g>
</g>
<g>
</g>
<g>
</g>
<g>
</g>
<g>
</g>
<g>
</g>
<g>
</g>
<g>
</g>
<g>
</g>
<g>
</g>
<g>
</g>
<g>
</g>
<g>
</g>
</svg>
