<?xml version="1.0" encoding="iso-8859-1"?>
<!-- Generator: Adobe Illustrator 19.0.0, SVG Export Plug-In . SVG Version: 6.00 Build 0)  -->
<svg xmlns="http://www.w3.org/2000/svg" xmlns:xlink="http://www.w3.org/1999/xlink" version="1.1" id="Layer_1" x="0px" y="0px" viewBox="0 0 512 512" style="enable-background:new 0 0 512 512;" xml:space="preserve">
<g>
	<g>
		<path d="M505.749,335.083l-64,64c-4.16,4.16-9.621,6.251-15.083,6.251c-5.462,0-10.923-2.091-15.083-6.251l-64-64    c-8.341-8.341-8.341-21.824,0-30.165s21.824-8.341,30.165,0l48.917,48.917l48.917-48.917c8.341-8.341,21.824-8.341,30.165,0    c4.16,4.16,6.251,9.621,6.251,15.083V0H0v192c0-5.461,2.091-10.923,6.251-15.083l63.979-63.979    c1.963-1.984,4.331-3.541,6.955-4.629c5.205-2.155,11.093-2.155,16.299,0c2.624,1.088,4.992,2.645,6.955,4.629l63.979,63.979    c8.341,8.341,8.341,21.824,0,30.165c-4.16,4.16-9.621,6.251-15.083,6.251c-5.461,0-10.923-2.091-15.083-6.251l-27.584-27.584V384    c0,35.285,28.715,64,64,64c35.285,0,64-28.715,64-64V106.667c0-17.877,4.501-35.541,13.035-51.136    c5.653-10.347,18.539,7.168,28.971,12.864c10.325,5.653,14.123,18.603,8.448,28.971c-5.099,9.301-7.787,19.904-7.787,30.635v256    c0,58.816-47.851,106.667-106.667,106.667C111.851,490.667,64,442.816,64,384V179.499l-27.584,27.584    c-8.341,8.341-21.824,8.341-30.165,0C2.091,202.923,0,197.461,0,192v320h512V320C512,325.461,509.909,330.923,505.749,335.083z     M448,265.173c0,11.776-9.536,21.333-21.333,21.333s-21.333-9.557-21.333-21.333v-42.667c0-11.797,9.536-21.333,21.333-21.333    S448,210.709,448,222.507V265.173z M422.806,94.741c11.691-1.685,22.464,6.443,24.128,18.112c0.682,4.95,1.066,9.984,1.066,15.147    v30.507c0,11.797-9.536,21.333-21.333,21.333s-21.333-9.536-21.333-21.333V128c0-3.115-0.213-6.165-0.64-9.131    C403.051,107.2,411.137,96.405,422.806,94.741z M336.789,64.17c-11.627,0.917-21.952-7.979-22.805-19.733    c-0.853-11.733,7.957-21.952,19.733-22.805c17.557-1.344,35.755,1.92,51.968,9.344c10.71,4.928,15.424,17.6,10.496,28.309    c-3.605,7.829-11.328,12.437-19.413,12.437c-2.965,0-5.995-0.64-8.875-1.941C358.314,65.365,348.757,63.338,336.789,64.17z"/>
	</g>
</g>
<g>
</g>
<g>
</g>
<g>
</g>
<g>
</g>
<g>
</g>
<g>
</g>
<g>
</g>
<g>
</g>
<g>
</g>
<g>
</g>
<g>
</g>
<g>
</g>
<g>
</g>
<g>
</g>
<g>
</g>
</svg>
