<?xml version="1.0" encoding="iso-8859-1"?>
<!-- Generator: Adobe Illustrator 19.0.0, SVG Export Plug-In . SVG Version: 6.00 Build 0)  -->
<svg xmlns="http://www.w3.org/2000/svg" xmlns:xlink="http://www.w3.org/1999/xlink" version="1.1" id="Layer_1" x="0px" y="0px" viewBox="0 0 512 512" style="enable-background:new 0 0 512 512;" xml:space="preserve">
<g>
	<g>
		<path d="M0,0v512h512V0H0z M416.896,149.035c10.453-5.44,23.339-1.301,28.757,9.195c7.232,13.995,12.907,28.864,16.896,44.16    c2.965,11.413-3.883,23.04-15.275,26.027c-1.813,0.469-3.605,0.683-5.397,0.683c-9.472,0-18.112-6.379-20.629-15.957    c-3.179-12.245-7.723-24.149-13.504-35.349C402.347,167.317,406.443,154.453,416.896,149.035z M316.395,72.427    c4.907-10.709,17.536-15.488,28.288-10.517c14.315,6.549,27.968,14.741,40.555,24.341c9.365,7.125,11.179,20.501,4.053,29.888    c-4.203,5.504-10.56,8.405-17.003,8.405c-4.48,0-9.024-1.408-12.885-4.373c-10.112-7.68-21.013-14.229-32.491-19.477    C316.224,95.808,311.509,83.136,316.395,72.427z M205.717,48.619c15.253-3.691,31.04-5.696,46.912-5.931    c12.331-0.768,21.483,9.216,21.675,20.992c0.171,11.776-9.216,21.483-21.013,21.675c-12.693,0.192-25.344,1.792-37.525,4.736    c-1.707,0.405-3.392,0.597-5.056,0.597c-9.621,0-18.347-6.549-20.693-16.32C187.243,62.912,194.283,51.392,205.717,48.619z     M88.32,124.096c9.749-12.373,20.885-23.701,33.131-33.664c9.152-7.424,22.571-6.037,30.016,3.051    c7.445,9.152,6.059,22.571-3.072,30.037c-9.813,7.979-18.752,17.067-26.581,26.987c-4.203,5.355-10.453,8.128-16.768,8.128    c-4.629,0-9.259-1.493-13.184-4.587C82.603,146.752,81.024,133.355,88.32,124.096z M498.027,356.032    c-3.072,1.536-6.315,2.24-9.515,2.24c-7.829,0-15.36-4.309-19.115-11.776l-11.307-22.635    C429.653,408.277,349.888,469.333,256,469.333S82.368,408.277,53.931,323.861l-11.328,22.635    c-3.733,7.467-11.264,11.776-19.093,11.776c-3.221,0-6.464-0.704-9.515-2.24c-10.56-5.269-14.827-18.091-9.557-28.629    l38.549-77.077c0.363-13.909,1.856-27.797,4.885-41.323c2.603-11.499,13.931-18.752,25.515-16.128    c11.477,2.581,18.709,13.995,16.128,25.493c-1.835,8.128-2.837,16.448-3.477,24.789l68.459,34.219    c10.56,5.291,14.827,18.091,9.557,28.629c-5.291,10.539-18.091,14.827-28.629,9.557l-46.037-23.04    C106.176,369.109,174.443,426.667,256,426.667s149.845-57.557,166.635-134.144l-46.037,23.04    c-10.56,5.269-23.339,0.981-28.629-9.557c-5.269-10.539-1.003-23.339,9.536-28.629l80.96-40.469    c0.213-0.107,0.427-0.085,0.64-0.171c1.237-0.576,2.624-0.768,3.989-1.088c1.429-0.341,2.837-0.832,4.288-0.853    c0.213-0.021,0.405-0.128,0.619-0.128c1.045,0,1.941,0.448,2.944,0.576c1.536,0.235,3.072,0.363,4.544,0.917    c1.301,0.512,2.389,1.28,3.563,2.027c1.152,0.704,2.325,1.301,3.328,2.24c1.131,1.045,1.941,2.347,2.837,3.627    c0.597,0.832,1.408,1.451,1.877,2.389l40.469,80.96C512.832,337.941,508.565,350.763,498.027,356.032z"/>
	</g>
</g>
<g>
</g>
<g>
</g>
<g>
</g>
<g>
</g>
<g>
</g>
<g>
</g>
<g>
</g>
<g>
</g>
<g>
</g>
<g>
</g>
<g>
</g>
<g>
</g>
<g>
</g>
<g>
</g>
<g>
</g>
</svg>
