<?xml version="1.0" encoding="iso-8859-1"?>
<!-- Generator: Adobe Illustrator 19.0.0, SVG Export Plug-In . SVG Version: 6.00 Build 0)  -->
<svg xmlns="http://www.w3.org/2000/svg" xmlns:xlink="http://www.w3.org/1999/xlink" version="1.1" id="Layer_1" x="0px" y="0px" viewBox="0 0 512 512" style="enable-background:new 0 0 512 512;" xml:space="preserve">
<g>
	<g>
		<path d="M505.749,249.75l-64,63.999c-1.045,1.045-2.347,1.557-3.52,2.325C412.949,392.576,340.885,448,256,448    c-103.04,0-187.136-81.643-191.573-183.595l-28.011,28.011c-8.341,8.341-21.824,8.341-30.165,0C2.091,288.256,0,282.795,0,277.333    V512h512V234.667C512,240.128,509.909,245.59,505.749,249.75z"/>
	</g>
</g>
<g>
	<g>
		<path d="M347.583,219.584c8.342-8.341,21.825-8.341,30.166,0l27.115,27.115C400.021,168.683,335.189,106.667,256,106.667    c-66.773,0-123.456,44.075-142.485,104.661l50.901,50.923c8.341,8.341,8.341,21.824,0,30.165c-4.16,4.16-9.621,6.251-15.083,6.251    c-5.461,0-10.923-2.091-15.083-6.251l-27.115-27.115c4.843,78.016,69.675,140.032,148.864,140.032    c66.773,0,123.456-44.075,142.507-104.661l-50.923-50.923C339.242,241.408,339.242,227.925,347.583,219.584z"/>
	</g>
</g>
<g>
	<g>
		<path d="M0,0v277.333c0-5.461,2.091-10.923,6.251-15.083l64-64c1.045-1.045,2.347-1.557,3.52-2.347    C99.051,119.403,171.115,64,256,64c103.04,0,187.136,81.643,191.573,183.595l28.011-28.011c8.341-8.341,21.824-8.341,30.165,0    c4.16,4.16,6.251,9.621,6.251,15.083V0H0z"/>
	</g>
</g>
<g>
</g>
<g>
</g>
<g>
</g>
<g>
</g>
<g>
</g>
<g>
</g>
<g>
</g>
<g>
</g>
<g>
</g>
<g>
</g>
<g>
</g>
<g>
</g>
<g>
</g>
<g>
</g>
<g>
</g>
</svg>
