<?xml version="1.0" encoding="iso-8859-1"?>
<!-- Generator: Adobe Illustrator 19.0.0, SVG Export Plug-In . SVG Version: 6.00 Build 0)  -->
<svg xmlns="http://www.w3.org/2000/svg" xmlns:xlink="http://www.w3.org/1999/xlink" version="1.1" id="Layer_1" x="0px" y="0px" viewBox="0 0 512 512" style="enable-background:new 0 0 512 512;" xml:space="preserve">
<g>
	<g>
		<path d="M505.749,292.416c-4.16,4.16-9.621,6.251-15.082,6.251s-10.923-2.091-15.083-6.251l-28.011-28.011    C443.136,366.357,359.04,448,256,448c-84.885,0-156.949-55.403-182.229-131.904c-1.173-0.789-2.475-1.301-3.52-2.347l-64-64    C2.091,245.589,0,240.128,0,234.667V512h512V277.333C512,282.794,509.909,288.256,505.749,292.416z"/>
	</g>
</g>
<g>
	<g>
		<path d="M377.749,292.416c-8.341,8.341-21.824,8.341-30.165,0s-8.341-21.824,0-30.165l50.901-50.923    C379.456,150.741,322.773,106.667,256,106.667c-79.189,0-144.021,62.016-148.864,140.032l27.115-27.115    c8.341-8.341,21.824-8.341,30.165,0s8.341,21.824,0,30.165l-50.923,50.923C132.544,361.259,189.227,405.333,256,405.333    c79.189,0,144.021-62.016,148.864-140.032L377.749,292.416z"/>
	</g>
</g>
<g>
	<g>
		<path d="M0,0v234.667c0-5.461,2.091-10.923,6.251-15.083c8.341-8.341,21.824-8.341,30.165,0l28.011,28.011    C68.864,145.643,152.96,64,256,64c84.885,0,156.949,55.403,182.229,131.904c1.173,0.789,2.475,1.301,3.52,2.347l64,64    c4.16,4.16,6.251,9.621,6.251,15.083V0H0z"/>
	</g>
</g>
<g>
</g>
<g>
</g>
<g>
</g>
<g>
</g>
<g>
</g>
<g>
</g>
<g>
</g>
<g>
</g>
<g>
</g>
<g>
</g>
<g>
</g>
<g>
</g>
<g>
</g>
<g>
</g>
<g>
</g>
</svg>
