<?xml version="1.0" encoding="iso-8859-1"?>
<!-- Generator: Adobe Illustrator 19.0.0, SVG Export Plug-In . SVG Version: 6.00 Build 0)  -->
<svg xmlns="http://www.w3.org/2000/svg" xmlns:xlink="http://www.w3.org/1999/xlink" version="1.1" id="Layer_1" x="0px" y="0px" viewBox="0 0 512 512" style="enable-background:new 0 0 512 512;" xml:space="preserve">
<g>
	<g>
		<path d="M0,0v234.667c0-5.461,2.091-10.901,6.251-15.083c8.341-8.32,21.845-8.32,30.165,0l28.011,28.011    c4.48-113.728,98.133-204.928,212.907-204.928c117.632,0,213.333,95.701,213.333,213.333c0,11.797-9.536,21.333-21.333,21.333    C457.557,277.333,448,267.797,448,256c0-94.101-76.565-170.667-170.667-170.667c-90.965,0-165.312,71.595-170.197,161.365    l27.115-27.115c8.341-8.32,21.845-8.32,30.165,0c8.341,8.341,8.341,21.845,0,30.165l-54.059,54.08    c-2.027,7.36-7.68,13.504-15.637,15.296c-1.579,0.341-3.179,0.512-4.715,0.512c-0.512,0-0.981-0.213-1.493-0.256    c-1.067,0.171-2.091,0.619-3.179,0.619c-5.44,0-10.901-2.069-15.083-6.251l-64-64C2.091,245.589,0,240.128,0,234.667V512h512V0H0z     M172.8,418.496c-4.224,5.184-10.347,7.872-16.555,7.872c-4.736,0-9.515-1.579-13.461-4.8    c-12.224-9.963-23.381-21.291-33.131-33.664c-7.296-9.259-5.717-22.677,3.541-29.952c9.28-7.275,22.677-5.717,29.952,3.541    c7.851,9.92,16.768,19.008,26.581,26.987C178.859,395.925,180.245,409.365,172.8,418.496z M274.304,469.312h-0.341    c-15.872-0.235-31.659-2.24-46.912-5.931c-11.435-2.773-18.475-14.293-15.701-25.771c2.752-11.435,14.336-18.432,25.749-15.701    c12.181,2.944,24.832,4.544,37.525,4.736c11.797,0.192,21.205,9.899,21.013,21.675    C295.445,459.989,285.931,469.312,274.304,469.312z M406.571,425.749c-12.587,9.6-26.24,17.792-40.555,24.341    c-2.88,1.323-5.909,1.941-8.853,1.941c-8.107,0-15.851-4.629-19.435-12.459c-4.885-10.709-0.171-23.381,10.539-28.267    c11.456-5.248,22.357-11.819,32.469-19.477c9.365-7.168,22.741-5.333,29.888,4.032    C417.749,405.227,415.936,418.624,406.571,425.749z M483.883,309.611c-3.989,15.296-9.664,30.165-16.896,44.16    c-3.797,7.36-11.243,11.563-18.987,11.563c-3.285,0-6.613-0.768-9.771-2.389c-10.453-5.397-14.549-18.261-9.152-28.736    c5.781-11.2,10.325-23.104,13.504-35.349c2.965-11.413,14.635-18.24,26.027-15.275C480,286.55,486.848,298.197,483.883,309.611z"/>
	</g>
</g>
<g>
</g>
<g>
</g>
<g>
</g>
<g>
</g>
<g>
</g>
<g>
</g>
<g>
</g>
<g>
</g>
<g>
</g>
<g>
</g>
<g>
</g>
<g>
</g>
<g>
</g>
<g>
</g>
<g>
</g>
</svg>
