<?xml version="1.0" encoding="iso-8859-1"?>
<!-- Generator: Adobe Illustrator 19.0.0, SVG Export Plug-In . SVG Version: 6.00 Build 0)  -->
<svg xmlns="http://www.w3.org/2000/svg" xmlns:xlink="http://www.w3.org/1999/xlink" version="1.1" id="Layer_1" x="0px" y="0px" viewBox="0 0 512 512" style="enable-background:new 0 0 512 512;" xml:space="preserve">
<g>
	<g>
		<path d="M0,0v234.667c0-5.461,2.091-10.901,6.251-15.083c8.341-8.32,21.845-8.32,30.165,0l28.011,28.011    C68.885,133.867,162.56,42.667,277.333,42.667c117.632,0,213.333,95.701,213.333,213.333c0,0.619-0.299,1.131-0.341,1.728    c0.043,0.576,0.32,1.067,0.299,1.664c-0.235,15.829-2.24,31.595-5.931,46.891c-2.347,9.771-11.093,16.32-20.715,16.32    c-1.664,0-3.328-0.171-5.013-0.576c-11.456-2.773-18.496-14.293-15.744-25.749c2.944-12.224,4.565-24.875,4.736-37.568    c0.021-0.512,0.277-0.917,0.299-1.408c-0.021-0.47-0.256-0.833-0.256-1.302c0-94.101-76.565-170.667-170.667-170.667    c-90.965,0-165.312,71.595-170.197,161.365l27.115-27.115c8.341-8.32,21.845-8.32,30.165,0c8.341,8.341,8.341,21.845,0,30.165    l-64,64c-4.16,4.181-9.621,6.251-15.083,6.251c-5.461,0-10.901-2.069-15.083-6.251l-64-64C2.091,245.589,0,240.128,0,234.667V512    h512V0H0z M324.331,464.149c-15.317,3.435-31.147,5.184-46.997,5.184C265.557,469.333,256,459.797,256,448    c0-11.776,9.557-21.333,21.333-21.333c12.715,0,25.387-1.387,37.632-4.16c11.435-2.539,22.912,4.629,25.493,16.128    C343.039,450.134,335.829,461.568,324.331,464.149z M442.923,390.507c-9.92,12.245-21.269,23.403-33.707,33.195    c-3.904,3.072-8.555,4.565-13.163,4.565c-6.336,0-12.587-2.795-16.789-8.149c-7.275-9.259-5.696-22.656,3.584-29.952    c9.941-7.829,19.008-16.768,26.944-26.539c7.424-9.131,20.843-10.56,30.016-3.115    C448.939,367.915,450.368,381.355,442.923,390.507z"/>
	</g>
</g>
<g>
</g>
<g>
</g>
<g>
</g>
<g>
</g>
<g>
</g>
<g>
</g>
<g>
</g>
<g>
</g>
<g>
</g>
<g>
</g>
<g>
</g>
<g>
</g>
<g>
</g>
<g>
</g>
<g>
</g>
</svg>
