<?xml version="1.0" encoding="iso-8859-1"?>
<!-- Generator: Adobe Illustrator 19.0.0, SVG Export Plug-In . SVG Version: 6.00 Build 0)  -->
<svg xmlns="http://www.w3.org/2000/svg" xmlns:xlink="http://www.w3.org/1999/xlink" version="1.1" id="Layer_1" x="0px" y="0px" viewBox="0 0 512 512" style="enable-background:new 0 0 512 512;" xml:space="preserve">
<g>
	<g>
		<path d="M405.333,0c11.776,0,21.333,9.557,21.333,21.333v85.333c0,0.768-0.363,1.429-0.448,2.197    c-0.213,1.984-0.405,3.968-1.173,5.867c-0.768,1.856-2.005,3.413-3.243,4.949c-0.469,0.619-0.683,1.365-1.237,1.92    c-0.021,0.021-0.064,0.043-0.085,0.064c-1.963,1.984-4.288,3.584-6.891,4.672c-2.603,1.088-5.376,1.621-8.171,1.643    c-0.021,0-0.043,0.021-0.085,0.021H320c-11.776,0-21.333-9.557-21.333-21.333S308.224,85.333,320,85.333h20.203    C313.685,71.488,285.035,64,256,64C150.144,64,64,150.144,64,256c0,29.376,6.464,57.579,19.179,83.797    c5.163,10.603,0.747,23.36-9.856,28.501c-3.008,1.472-6.187,2.155-9.301,2.155c-7.915,0-15.531-4.416-19.2-12.011    C29.227,326.357,21.333,291.904,21.333,256c0-129.387,105.28-234.667,234.667-234.667c45.056,0,89.237,14.123,128,40.384V21.333    C384,9.557,393.557,0,405.333,0H0v512h106.666c-11.776,0-21.333-9.557-21.333-21.333v-85.333c0-0.768,0.363-1.429,0.448-2.197    c0.213-1.984,0.405-3.968,1.173-5.867c0.768-1.856,2.005-3.413,3.243-4.949c0.469-0.619,0.683-1.365,1.237-1.92    c0.021-0.021,0.064-0.043,0.085-0.064c1.963-1.984,4.288-3.584,6.891-4.672c2.603-1.088,5.376-1.643,8.171-1.643    c0.021,0,0.043-0.021,0.085-0.021H192c11.776,0,21.333,9.557,21.333,21.333s-9.557,21.333-21.333,21.333h-20.203    C198.315,440.512,226.965,448,256,448c105.856,0,192-86.144,192-192c0-29.355-6.443-57.536-19.157-83.733    c-5.141-10.581-0.725-23.36,9.877-28.501c10.581-5.141,23.339-0.725,28.501,9.877c15.552,32.064,23.445,66.496,23.445,102.357    c0,129.387-105.28,234.667-234.667,234.667c-45.056,0-89.237-14.123-128-40.384v40.384c0,11.776-9.557,21.333-21.333,21.333h0.001    H512V0H405.333z"/>
	</g>
</g>
<g>
</g>
<g>
</g>
<g>
</g>
<g>
</g>
<g>
</g>
<g>
</g>
<g>
</g>
<g>
</g>
<g>
</g>
<g>
</g>
<g>
</g>
<g>
</g>
<g>
</g>
<g>
</g>
<g>
</g>
</svg>
