<?xml version="1.0" encoding="iso-8859-1"?>
<!-- Generator: Adobe Illustrator 19.0.0, SVG Export Plug-In . SVG Version: 6.00 Build 0)  -->
<svg xmlns="http://www.w3.org/2000/svg" xmlns:xlink="http://www.w3.org/1999/xlink" version="1.1" id="Layer_1" x="0px" y="0px" viewBox="0 0 512.001 512.001" style="enable-background:new 0 0 512.001 512.001;" xml:space="preserve">
<g>
	<g>
		<path d="M106.667,0C118.464,0,128,9.557,128,21.333V61.93c0.171-0.128,0.277-0.341,0.448-0.469    c13.12-8.789,26.901-16.277,41.003-22.251c10.859-4.608,23.36,0.427,27.989,11.285c4.608,10.859-0.491,23.381-11.328,27.989    c-4.779,2.027-9.493,4.395-14.187,6.848H192c11.797,0,21.333,9.557,21.333,21.333c0,11.797-9.536,21.333-21.333,21.333h-85.333    c-11.797,0-21.333-9.536-21.333-21.333V21.333C85.333,9.557,94.87,0,106.667,0H0v512h405.333C393.536,512,384,502.464,384,490.667    v-40.384c-38.763,26.261-82.944,40.384-128,40.384C126.592,490.667,21.333,385.408,21.333,256    c0-35.904,7.893-70.336,23.467-102.357c5.141-10.603,17.813-15.04,28.501-9.856c10.603,5.141,15.019,17.899,9.856,28.501    C70.464,198.464,64,226.624,64,256c0,105.877,86.123,192,192,192c29.013,0,57.685-7.467,84.203-21.333H320    c-11.797,0-21.333-9.536-21.333-21.333c0-11.776,9.536-21.333,21.333-21.333h85.333c0.021,0,0.043,0.021,0.064,0.021    c2.773,0.021,5.547,0.555,8.149,1.643c2.624,1.088,4.971,2.688,6.933,4.693c0.021,0.021,0.064,0.021,0.085,0.043    c0.512,0.533,0.704,1.216,1.152,1.771c1.28,1.579,2.539,3.2,3.328,5.12c0.747,1.856,0.96,3.84,1.173,5.824    c0.085,0.768,0.448,1.429,0.448,2.219v85.333c0,11.797-9.536,21.333-21.333,21.333H512V0H106.667z M323.969,52.608    c-2.24,9.92-11.029,16.64-20.779,16.64c-1.557,0-3.157-0.171-4.736-0.533c-12.395-2.795-25.195-4.373-38.037-4.672    c-11.776-0.256-21.099-10.027-20.843-21.803c0.277-11.776,9.92-22.101,21.845-20.843c15.659,0.363,31.296,2.283,46.464,5.696    C319.36,29.696,326.573,41.131,323.969,52.608z M412.373,132.224c-5.739,0-11.435-2.283-15.637-6.827    c-8.725-9.387-18.389-17.92-28.736-25.387c-9.557-6.869-11.733-20.203-4.864-29.76c6.869-9.557,20.224-11.776,29.781-4.864    c12.672,9.109,24.448,19.541,35.093,30.997c8,8.64,7.509,22.123-1.109,30.144C422.763,130.347,417.581,132.224,412.373,132.224z     M483.349,314.453c-3.904,15.168-9.344,29.973-16.171,44.011c-3.691,7.573-11.285,11.989-19.2,11.989    c-3.136,0-6.315-0.683-9.323-2.155c-10.581-5.141-14.997-17.92-9.856-28.501c5.589-11.477,10.027-23.573,13.227-35.968    c2.944-11.413,14.677-18.24,25.963-15.339C479.424,291.413,486.294,303.04,483.349,314.453z M470.123,245.589    c-1.045,0.149-2.112,0.235-3.115,0.235c-10.432,0-19.541-7.637-21.099-18.219c-1.877-12.672-5.013-25.152-9.365-37.099    c-4.053-11.072,1.664-23.317,12.715-27.349c11.029-4.032,23.339,1.664,27.371,12.736c5.333,14.656,9.195,29.952,11.499,45.483    C489.857,233.024,481.792,243.861,470.123,245.589z"/>
	</g>
</g>
<g>
</g>
<g>
</g>
<g>
</g>
<g>
</g>
<g>
</g>
<g>
</g>
<g>
</g>
<g>
</g>
<g>
</g>
<g>
</g>
<g>
</g>
<g>
</g>
<g>
</g>
<g>
</g>
<g>
</g>
</svg>
