<?xml version="1.0" encoding="iso-8859-1"?>
<!-- Generator: Adobe Illustrator 19.0.0, SVG Export Plug-In . SVG Version: 6.00 Build 0)  -->
<svg xmlns="http://www.w3.org/2000/svg" xmlns:xlink="http://www.w3.org/1999/xlink" version="1.1" id="Layer_1" x="0px" y="0px" viewBox="0 0 512 512" style="enable-background:new 0 0 512 512;" xml:space="preserve">
<g>
	<g>
		<path d="M64,128H0v256h64c70.592,0,128-57.408,128-128S134.592,128,64,128z"/>
	</g>
</g>
<g>
	<g>
		<path d="M0,0v85.333h64c64.213,0,120.213,35.691,149.333,88.235c29.12-52.544,85.12-88.235,149.333-88.235h55.168L390.25,57.749    c-8.341-8.341-8.341-21.824,0-30.165s21.824-8.341,30.165,0l63.979,63.979c1.984,1.984,3.541,4.331,4.629,6.955    c2.155,5.205,2.155,11.093,0,16.299c-1.088,2.624-2.645,4.971-4.629,6.955l-63.979,63.979c-4.16,4.16-9.621,6.251-15.083,6.251    c-5.461,0-10.923-2.091-15.083-6.251c-8.341-8.341-8.341-21.824,0-30.165L417.835,128h-55.168c-70.592,0-128,57.408-128,128    s57.408,128,128,128h55.168l-27.584-27.584c-8.341-8.341-8.341-21.824,0-30.165s21.824-8.341,30.165,0l63.979,63.979    c1.984,1.984,3.541,4.331,4.629,6.955c2.155,5.205,2.155,11.093,0,16.299c-1.088,2.624-2.645,4.971-4.629,6.955l-63.979,63.979    c-4.16,4.16,11.712,6.251,6.251,6.251s-32.256-2.091-36.416-6.251c-8.341-8.341-8.341-21.824,0-30.165l27.584-27.584h-55.168    c-64.213,0-120.213-35.691-149.333-88.235c-29.12,52.544-85.12,88.235-149.333,88.235H0V512h512V0H0z"/>
	</g>
</g>
<g>
</g>
<g>
</g>
<g>
</g>
<g>
</g>
<g>
</g>
<g>
</g>
<g>
</g>
<g>
</g>
<g>
</g>
<g>
</g>
<g>
</g>
<g>
</g>
<g>
</g>
<g>
</g>
<g>
</g>
</svg>
