<?xml version="1.0" encoding="iso-8859-1"?>
<!-- Generator: Adobe Illustrator 19.0.0, SVG Export Plug-In . SVG Version: 6.00 Build 0)  -->
<svg xmlns="http://www.w3.org/2000/svg" xmlns:xlink="http://www.w3.org/1999/xlink" version="1.1" id="Layer_1" x="0px" y="0px" viewBox="0 0 512 512" style="enable-background:new 0 0 512 512;" xml:space="preserve">
<g>
	<g>
		<path d="M256,0C114.837,0,0,114.837,0,256s114.837,256,256,256s256-114.837,256-256S397.163,0,256,0z M359.787,330.709    c-3.84,6.571-10.859,10.624-18.453,10.624H170.667c-7.616,0-14.635-4.053-18.453-10.624c-3.818-6.571-3.84-14.677-0.064-21.291    l85.333-149.333c7.573-13.291,29.44-13.291,37.035,0l85.333,149.333C363.627,316.032,363.605,324.139,359.787,330.709z"/>
	</g>
</g>
<g>
	<g>
		<polygon points="255.987,213.675 207.433,298.667 304.563,298.667   "/>
	</g>
</g>
<g>
</g>
<g>
</g>
<g>
</g>
<g>
</g>
<g>
</g>
<g>
</g>
<g>
</g>
<g>
</g>
<g>
</g>
<g>
</g>
<g>
</g>
<g>
</g>
<g>
</g>
<g>
</g>
<g>
</g>
</svg>
