<?xml version="1.0" encoding="iso-8859-1"?>
<!-- Generator: Adobe Illustrator 19.0.0, SVG Export Plug-In . SVG Version: 6.00 Build 0)  -->
<svg xmlns="http://www.w3.org/2000/svg" xmlns:xlink="http://www.w3.org/1999/xlink" version="1.1" id="Layer_1" x="0px" y="0px" viewBox="0 0 512 512" style="enable-background:new 0 0 512 512;" xml:space="preserve">
<g>
	<g>
		<path d="M510.357,13.184c-2.155-5.227-6.315-9.387-11.541-11.541C496.213,0.555,493.44,0,490.667,0h-128    c-11.797,0-21.333,9.536-21.333,21.333s9.536,21.333,21.333,21.333h76.501L238.592,243.243    c-24.939-18.688-55.765-29.909-89.259-29.909C67.008,213.333,0,280.32,0,362.667C0,444.992,67.008,512,149.333,512    s149.333-67.008,149.333-149.333c0-33.493-11.221-64.341-29.909-89.259L469.333,72.832v76.501    c0,11.797,9.536,21.333,21.333,21.333S512,161.131,512,149.333v-128C512,18.56,511.424,15.787,510.357,13.184z"/>
	</g>
</g>
<g>
</g>
<g>
</g>
<g>
</g>
<g>
</g>
<g>
</g>
<g>
</g>
<g>
</g>
<g>
</g>
<g>
</g>
<g>
</g>
<g>
</g>
<g>
</g>
<g>
</g>
<g>
</g>
<g>
</g>
</svg>
