<?xml version="1.0" encoding="iso-8859-1"?>
<!-- Generator: Adobe Illustrator 19.0.0, SVG Export Plug-In . SVG Version: 6.00 Build 0)  -->
<svg xmlns="http://www.w3.org/2000/svg" xmlns:xlink="http://www.w3.org/1999/xlink" version="1.1" id="Layer_1" x="0px" y="0px" viewBox="0 0 512 512" style="enable-background:new 0 0 512 512;" xml:space="preserve">
<g>
	<g>
		<path d="M362.667,213.333c-33.493,0-64.32,11.221-89.259,29.909L72.832,42.667h76.501c11.797,0,21.333-9.536,21.333-21.333    C170.667,9.536,161.131,0,149.333,0h-128c-2.773,0-5.547,0.555-8.149,1.643C7.957,3.797,3.797,7.957,1.643,13.184    C0.555,15.787,0,18.56,0,21.333v128c0,11.797,9.536,21.333,21.333,21.333s21.333-9.536,21.333-21.333V72.832l200.576,200.576    c-18.688,24.939-29.909,55.765-29.909,89.259c0,82.325,67.008,149.333,149.333,149.333S512,444.992,512,362.667    S444.992,213.333,362.667,213.333z"/>
	</g>
</g>
<g>
</g>
<g>
</g>
<g>
</g>
<g>
</g>
<g>
</g>
<g>
</g>
<g>
</g>
<g>
</g>
<g>
</g>
<g>
</g>
<g>
</g>
<g>
</g>
<g>
</g>
<g>
</g>
<g>
</g>
</svg>
