<?xml version="1.0" encoding="iso-8859-1"?>
<!-- Generator: Adobe Illustrator 19.0.0, SVG Export Plug-In . SVG Version: 6.00 Build 0)  -->
<svg xmlns="http://www.w3.org/2000/svg" xmlns:xlink="http://www.w3.org/1999/xlink" version="1.1" id="Layer_1" x="0px" y="0px" viewBox="0 0 511.973 511.973" style="enable-background:new 0 0 511.973 511.973;" xml:space="preserve">
<g>
	<g>
		<path d="M510.357,247.837c-1.088-2.624-2.667-4.992-4.629-6.955l-85.312-85.312c-8.341-8.32-21.824-8.32-30.165,0    c-8.341,8.341-8.341,21.845,0,30.165l48.917,48.917H254.08C243.861,174.216,191.296,127.987,128,127.987    c-70.592,0-128,57.429-128,128c0,70.592,57.408,128,128,128c63.296,0,115.861-46.229,126.08-106.667h185.088l-48.917,48.917    c-8.341,8.341-8.341,21.845,0,30.165c4.16,4.181,9.621,6.251,15.083,6.251c5.461,0,10.923-2.069,15.083-6.251l85.312-85.312    c1.963-1.963,3.541-4.331,4.629-6.955C512.512,258.931,512.512,253.064,510.357,247.837z"/>
	</g>
</g>
<g>
</g>
<g>
</g>
<g>
</g>
<g>
</g>
<g>
</g>
<g>
</g>
<g>
</g>
<g>
</g>
<g>
</g>
<g>
</g>
<g>
</g>
<g>
</g>
<g>
</g>
<g>
</g>
<g>
</g>
</svg>
