<?xml version="1.0" encoding="iso-8859-1"?>
<!-- Generator: Adobe Illustrator 19.0.0, SVG Export Plug-In . SVG Version: 6.00 Build 0)  -->
<svg xmlns="http://www.w3.org/2000/svg" xmlns:xlink="http://www.w3.org/1999/xlink" version="1.1" id="Layer_1" x="0px" y="0px" viewBox="0 0 511.973 511.973" style="enable-background:new 0 0 511.973 511.973;" xml:space="preserve">
<g>
	<g>
		<path d="M383.973,127.987c-63.296,0-115.861,46.229-126.08,106.667H72.805l48.917-48.917c8.341-8.341,8.341-21.824,0-30.165    s-21.824-8.341-30.165,0L6.245,240.883c-1.984,1.963-3.541,4.331-4.629,6.955c-2.155,5.205-2.155,11.093,0,16.299    c1.088,2.624,2.645,4.992,4.629,6.955l85.312,85.312c4.16,4.16,9.621,6.251,15.083,6.251c5.461,0,10.923-2.091,15.083-6.251    c8.341-8.341,8.341-21.824,0-30.165L72.805,277.32h185.088c10.219,60.437,62.784,106.667,126.08,106.667    c70.592,0,128-57.408,128-128S454.565,127.987,383.973,127.987z"/>
	</g>
</g>
<g>
</g>
<g>
</g>
<g>
</g>
<g>
</g>
<g>
</g>
<g>
</g>
<g>
</g>
<g>
</g>
<g>
</g>
<g>
</g>
<g>
</g>
<g>
</g>
<g>
</g>
<g>
</g>
<g>
</g>
</svg>
