<?xml version="1.0" encoding="iso-8859-1"?>
<!-- Generator: Adobe Illustrator 19.0.0, SVG Export Plug-In . SVG Version: 6.00 Build 0)  -->
<svg xmlns="http://www.w3.org/2000/svg" xmlns:xlink="http://www.w3.org/1999/xlink" version="1.1" id="Layer_1" x="0px" y="0px" viewBox="0 0 512 512" style="enable-background:new 0 0 512 512;" xml:space="preserve">
<g>
	<g>
		<path d="M0,0v512h512V0H0z M59.264,396.181c-2.859,1.323-5.909,1.941-8.875,1.941c-8.085,0-15.808-4.608-19.413-12.437    c-6.4-13.952-9.643-28.885-9.643-44.352c0.021-2.731,0.107-5.184,0.299-7.616c0.853-11.755,11.307-20.757,22.805-19.733    c11.776,0.853,20.587,11.051,19.733,22.805c-0.107,1.557-0.149,3.157-0.171,4.757c0,9.088,1.941,18.005,5.781,26.347    C74.688,378.603,69.973,391.275,59.264,396.181z M158.507,448H128c-5.163,0-10.219-0.384-15.147-1.067    c-11.669-1.664-19.776-12.459-18.133-24.128c1.685-11.669,12.501-19.776,24.128-18.112c2.987,0.427,6.037,0.64,9.152,0.64h30.507    c11.776,0,21.333,9.536,21.333,21.333S170.283,448,158.507,448z M265.173,448h-42.667c-11.797,0-21.333-9.536-21.333-21.333    s9.536-21.333,21.333-21.333h42.667c11.776,0,21.333,9.536,21.333,21.333S276.949,448,265.173,448z M384,448h-33.493    c-11.797,0-21.333-9.536-21.333-21.333s9.536-21.333,21.333-21.333H384c11.797,0,21.333,9.536,21.333,21.333S395.797,448,384,448z     M384,277.333H179.499l27.584,27.584c8.341,8.341,8.341,21.824,0,30.165c-4.16,4.16-9.621,6.251-15.083,6.251    s-10.923-2.091-15.083-6.251l-56.768-56.768c-7.979,0.981-15.787,2.965-22.805,6.805c-3.243,1.792-6.763,2.624-10.219,2.624    c-7.552,0-14.848-3.989-18.731-11.072c-5.675-10.368-1.877-23.317,8.469-28.971c12.843-7.019,27.093-11.157,41.707-12.437    l58.347-58.347c8.341-8.341,21.824-8.341,30.165,0s8.341,21.824,0,30.165l-27.584,27.584H384c35.285,0,64-28.715,64-64    c0-35.285-28.715-64-64-64H128c-11.797,0-21.333-9.536-21.333-21.333C106.667,73.536,116.203,64,128,64h256    c58.816,0,106.667,47.851,106.667,106.667S442.816,277.333,384,277.333z"/>
	</g>
</g>
<g>
</g>
<g>
</g>
<g>
</g>
<g>
</g>
<g>
</g>
<g>
</g>
<g>
</g>
<g>
</g>
<g>
</g>
<g>
</g>
<g>
</g>
<g>
</g>
<g>
</g>
<g>
</g>
<g>
</g>
</svg>
