<?xml version="1.0" encoding="iso-8859-1"?>
<!-- Generator: Adobe Illustrator 19.0.0, SVG Export Plug-In . SVG Version: 6.00 Build 0)  -->
<svg xmlns="http://www.w3.org/2000/svg" xmlns:xlink="http://www.w3.org/1999/xlink" version="1.1" id="Layer_1" x="0px" y="0px" viewBox="0 0 512 512" style="enable-background:new 0 0 512 512;" xml:space="preserve">
<g>
	<g>
		<path d="M0,0v21.333h298.667c105.877,0,192,86.123,192,192s-86.123,192-192,192H94.165l48.917,48.917    c8.341,8.341,8.341,21.824,0,30.165s-21.824,8.341-30.165,0l-85.333-85.333c-8.341-8.341-8.341-21.824,0-30.165l85.333-85.333    c8.341-8.341,21.824-8.341,30.165,0c4.16,4.16,6.251,9.621,6.251,15.083c0,5.461-2.091,10.923-6.251,15.083l-48.917,48.917    h204.501c82.325,0,149.333-67.008,149.333-149.333S380.992,64,298.667,64H0v448h512V0H0z"/>
	</g>
</g>
<g>
</g>
<g>
</g>
<g>
</g>
<g>
</g>
<g>
</g>
<g>
</g>
<g>
</g>
<g>
</g>
<g>
</g>
<g>
</g>
<g>
</g>
<g>
</g>
<g>
</g>
<g>
</g>
<g>
</g>
</svg>
