<?xml version="1.0" encoding="iso-8859-1"?>
<!-- Generator: Adobe Illustrator 19.0.0, SVG Export Plug-In . SVG Version: 6.00 Build 0)  -->
<svg xmlns="http://www.w3.org/2000/svg" xmlns:xlink="http://www.w3.org/1999/xlink" version="1.1" id="Layer_1" x="0px" y="0px" viewBox="0 0 512 512" style="enable-background:new 0 0 512 512;" xml:space="preserve">
<g>
	<g>
		<path d="M149.333,192h-42.667C83.136,192,64,211.136,64,234.667v42.667C64,300.864,83.136,320,106.667,320h42.667    c23.53,0,42.666-19.136,42.666-42.667v-42.666C192,211.136,172.864,192,149.333,192z"/>
	</g>
</g>
<g>
	<g>
		<path d="M277.333,298.666h-42.667c-23.531,0-42.667,19.136-42.667,42.667V384c0,23.531,19.136,42.667,42.667,42.667h42.667    C300.864,426.667,320,407.531,320,384v-42.667C320,317.802,300.864,298.666,277.333,298.666z"/>
	</g>
</g>
<g>
	<g>
		<path d="M405.333,384h-42.667C339.136,384,320,403.136,320,426.667v42.667c0,23.53,19.136,42.666,42.667,42.666h42.667    c23.53,0,42.666-19.136,42.666-42.667v-42.667C448,403.136,428.864,384,405.333,384z"/>
	</g>
</g>
<g>
	<g>
		<path d="M405.333,0h-42.667C339.136,0,320,19.136,320,42.667v42.667c0,23.53,19.136,42.666,42.667,42.666h42.667    C428.864,128,448,108.864,448,85.333V42.667C448,19.136,428.864,0,405.333,0z"/>
	</g>
</g>
<g>
	<g>
		<path d="M277.334,85.333h-42.667C211.136,85.333,192,104.469,192,128v42.667c0,23.53,19.136,42.666,42.667,42.666h42.667    c23.531,0,42.667-19.136,42.667-42.667V128C320.001,104.469,300.865,85.333,277.334,85.333z"/>
	</g>
</g>
<g>
</g>
<g>
</g>
<g>
</g>
<g>
</g>
<g>
</g>
<g>
</g>
<g>
</g>
<g>
</g>
<g>
</g>
<g>
</g>
<g>
</g>
<g>
</g>
<g>
</g>
<g>
</g>
<g>
</g>
</svg>
