<?xml version="1.0" encoding="iso-8859-1"?>
<!-- Generator: Adobe Illustrator 19.0.0, SVG Export Plug-In . SVG Version: 6.00 Build 0)  -->
<svg xmlns="http://www.w3.org/2000/svg" xmlns:xlink="http://www.w3.org/1999/xlink" version="1.1" id="Layer_1" x="0px" y="0px" viewBox="0 0 512.001 512.001" style="enable-background:new 0 0 512.001 512.001;" xml:space="preserve">
<g>
	<g>
		<path d="M341.333,106.667H384c0,23.531,19.136,42.667,42.667,42.667h42.667c23.531,0,42.667-19.136,42.667-42.667V64    c0-23.531-19.136-42.667-42.667-42.667h-42.667C403.136,21.333,384,40.469,384,64h-42.667    c-58.816,0-106.667,47.851-106.667,106.667v64h-64v-64c0-7.872-4.331-15.104-11.264-18.816c-6.933-3.733-15.36-3.285-21.909,1.067    l-128,85.333C3.563,242.219,0,248.875,0,256s3.563,13.781,9.493,17.749l128,85.333c3.563,2.368,7.701,3.584,11.84,3.584    c3.456,0,6.912-0.832,10.069-2.517c6.933-3.712,11.264-10.944,11.264-18.816v-64h64v64c0,58.816,47.851,106.667,106.667,106.667    H384c0,23.531,19.136,42.667,42.667,42.667h42.667c23.53,0,42.666-19.136,42.666-42.667v-42.667    c0-23.531-19.136-42.667-42.667-42.667h-42.667c-23.531,0-42.667,19.136-42.667,42.667h-42.667c-35.285,0-64-28.715-64-64v-64H384    C384,300.865,403.136,320,426.667,320h42.667c23.53,0,42.666-19.136,42.666-42.667v-42.667c0-23.53-19.136-42.666-42.667-42.666    h-42.667C403.136,192,384,211.136,384,234.667H277.333v-64C277.333,135.381,306.048,106.667,341.333,106.667z"/>
	</g>
</g>
<g>
</g>
<g>
</g>
<g>
</g>
<g>
</g>
<g>
</g>
<g>
</g>
<g>
</g>
<g>
</g>
<g>
</g>
<g>
</g>
<g>
</g>
<g>
</g>
<g>
</g>
<g>
</g>
<g>
</g>
</svg>
