<?xml version="1.0" encoding="iso-8859-1"?>
<!-- Generator: Adobe Illustrator 19.0.0, SVG Export Plug-In . SVG Version: 6.00 Build 0)  -->
<svg xmlns="http://www.w3.org/2000/svg" xmlns:xlink="http://www.w3.org/1999/xlink" version="1.1" id="Layer_1" x="0px" y="0px" viewBox="0 0 512 512" style="enable-background:new 0 0 512 512;" xml:space="preserve">
<g>
	<g>
		<path d="M448,0h-42.667c-23.531,0-42.667,19.136-42.667,42.667v42.667c0,23.531,19.136,42.667,42.667,42.667v42.667    c0,35.285-28.715,64-64,64h-64V128C300.864,128,320,108.864,320,85.333V42.667C320,19.136,300.864,0,277.333,0h-42.667    C211.136,0,192,19.136,192,42.667v42.667c0,23.53,19.136,42.666,42.667,42.666v106.667h-64c-35.285,0-64-28.715-64-64V128    c23.531,0,42.667-19.136,42.667-42.667V42.667C149.333,19.136,130.197,0,106.667,0H64C40.469,0,21.333,19.136,21.333,42.667    v42.667C21.333,108.864,40.469,128,64,128v42.667c0,58.816,47.851,106.667,106.667,106.667h64v64h-64    c-7.872,0-15.104,4.331-18.816,11.264c-3.712,6.955-3.307,15.36,1.067,21.909l85.333,128C242.219,508.437,248.875,512,256,512    s13.781-3.563,17.749-9.493l85.333-128c4.373-6.549,4.779-14.955,1.067-21.909c-3.712-6.933-10.944-11.264-18.816-11.264h-64v-64    h64c58.816,0,106.667-47.851,106.667-106.667V128c23.531,0,42.667-19.136,42.667-42.667V42.667C490.667,19.136,471.531,0,448,0z"/>
	</g>
</g>
<g>
</g>
<g>
</g>
<g>
</g>
<g>
</g>
<g>
</g>
<g>
</g>
<g>
</g>
<g>
</g>
<g>
</g>
<g>
</g>
<g>
</g>
<g>
</g>
<g>
</g>
<g>
</g>
<g>
</g>
</svg>
