<?xml version="1.0" encoding="iso-8859-1"?>
<!-- Generator: Adobe Illustrator 19.0.0, SVG Export Plug-In . SVG Version: 6.00 Build 0)  -->
<svg xmlns="http://www.w3.org/2000/svg" xmlns:xlink="http://www.w3.org/1999/xlink" version="1.1" id="Layer_1" x="0px" y="0px" viewBox="0 0 512 512" style="enable-background:new 0 0 512 512;" xml:space="preserve">
<g>
	<g>
		<path d="M0,0v512h234.667V200.832L121.749,313.749c-8.341,8.341-21.824,8.341-30.165,0s-8.341-21.824,0-30.165l149.312-149.312    c1.963-1.984,4.331-3.541,6.955-4.629c2.603-1.067,5.376-1.643,8.149-1.643s5.547,0.576,8.149,1.643    c2.624,1.088,4.992,2.645,6.955,4.629l149.312,149.312c8.341,8.341,8.341,21.824,0,30.165s-21.824,8.341-30.165,0L277.333,200.832    V512H512V0H0z M405.333,85.333H106.667c-11.797,0-21.333-9.557-21.333-21.333s9.536-21.333,21.333-21.333h298.667    c11.797,0,21.333,9.557,21.333,21.333S417.131,85.333,405.333,85.333z"/>
	</g>
</g>
<g>
</g>
<g>
</g>
<g>
</g>
<g>
</g>
<g>
</g>
<g>
</g>
<g>
</g>
<g>
</g>
<g>
</g>
<g>
</g>
<g>
</g>
<g>
</g>
<g>
</g>
<g>
</g>
<g>
</g>
</svg>
