<?xml version="1.0" encoding="iso-8859-1"?>
<!-- Generator: Adobe Illustrator 19.0.0, SVG Export Plug-In . SVG Version: 6.00 Build 0)  -->
<svg xmlns="http://www.w3.org/2000/svg" xmlns:xlink="http://www.w3.org/1999/xlink" version="1.1" id="Layer_1" x="0px" y="0px" viewBox="0 0 512 512" style="enable-background:new 0 0 512 512;" xml:space="preserve">
<g>
	<g>
		<path d="M277.333,0v311.168L390.25,198.251c8.341-8.341,21.824-8.341,30.165,0s8.341,21.824,0,30.165L271.104,377.728    c-1.963,1.984-4.331,3.541-6.955,4.629C261.547,383.424,258.773,384,256,384s-5.547-0.576-8.149-1.643    c-2.624-1.088-4.992-2.645-6.955-4.629L91.584,228.416c-8.341-8.341-8.341-21.824,0-30.165c8.341-8.341,21.824-8.341,30.165,0    l112.917,112.917V0H0v512h512V0H277.333z M405.333,469.333H106.667c-11.797,0-21.333-9.557-21.333-21.333    s9.536-21.333,21.333-21.333h298.667c11.797,0,21.333,9.557,21.333,21.333S417.131,469.333,405.333,469.333z"/>
	</g>
</g>
<g>
</g>
<g>
</g>
<g>
</g>
<g>
</g>
<g>
</g>
<g>
</g>
<g>
</g>
<g>
</g>
<g>
</g>
<g>
</g>
<g>
</g>
<g>
</g>
<g>
</g>
<g>
</g>
<g>
</g>
</svg>
