<?xml version="1.0" encoding="iso-8859-1"?>
<!-- Generator: Adobe Illustrator 19.0.0, SVG Export Plug-In . SVG Version: 6.00 Build 0)  -->
<svg xmlns="http://www.w3.org/2000/svg" xmlns:xlink="http://www.w3.org/1999/xlink" version="1.1" id="Layer_1" x="0px" y="0px" viewBox="0 0 512 512" style="enable-background:new 0 0 512 512;" xml:space="preserve">
<g>
	<g>
		<path d="M0,0v512h512V0H0z M469.333,448c0,2.773-0.576,5.547-1.643,8.149c-2.155,5.227-6.315,9.387-11.541,11.541    c-2.603,1.067-5.376,1.643-8.149,1.643H170.667c-11.797,0-21.333-9.557-21.333-21.333s9.536-21.333,21.333-21.333h225.835    L42.667,72.832c-8.341-8.341-8.341-21.824,0-30.165s21.824-8.341,30.165,0l353.835,353.835V170.667    c0-11.776,9.536-21.333,21.333-21.333s21.333,9.557,21.333,21.333V448z"/>
	</g>
</g>
<g>
</g>
<g>
</g>
<g>
</g>
<g>
</g>
<g>
</g>
<g>
</g>
<g>
</g>
<g>
</g>
<g>
</g>
<g>
</g>
<g>
</g>
<g>
</g>
<g>
</g>
<g>
</g>
<g>
</g>
</svg>
