<?xml version="1.0" encoding="iso-8859-1"?>
<!-- Generator: Adobe Illustrator 19.0.0, SVG Export Plug-In . SVG Version: 6.00 Build 0)  -->
<svg xmlns="http://www.w3.org/2000/svg" xmlns:xlink="http://www.w3.org/1999/xlink" version="1.1" id="Layer_1" x="0px" y="0px" viewBox="0 0 512 512" style="enable-background:new 0 0 512 512;" xml:space="preserve">
<g>
	<g>
		<path d="M0,0v512h512V0H0z M490.667,149.333c0,11.776-9.557,21.333-21.333,21.333S448,161.109,448,149.333V94.165L286.165,256    L448,417.835v-55.168c0-11.776,9.557-21.333,21.333-21.333s21.333,9.557,21.333,21.333v106.667c0,2.773-0.576,5.547-1.643,8.149    c-2.176,5.227-6.315,9.365-11.541,11.541c-2.603,1.067-5.376,1.643-8.149,1.643H362.667c-11.776,0-21.333-9.557-21.333-21.333    S350.891,448,362.667,448h55.168L256,286.165L94.165,448h55.168c11.776,0,21.333,9.557,21.333,21.333s-9.557,21.333-21.333,21.333    H42.667c-2.773,0-5.547-0.576-8.149-1.643c-5.227-2.176-9.365-6.315-11.541-11.541c-1.067-2.603-1.643-5.376-1.643-8.149V362.667    c0-11.776,9.557-21.333,21.333-21.333S64,350.891,64,362.667v55.168L225.835,256L64,94.165v55.168    c0,11.776-9.557,21.333-21.333,21.333s-21.333-9.557-21.333-21.333V42.667c0-2.773,0.576-5.547,1.643-8.149    c2.176-5.227,6.315-9.365,11.541-11.541c2.603-1.067,5.376-1.643,8.149-1.643h106.667c11.776,0,21.333,9.557,21.333,21.333    S161.109,64,149.333,64H94.165L256,225.835L417.835,64h-55.168c-11.776,0-21.333-9.557-21.333-21.333s9.557-21.333,21.333-21.333    h106.667c2.773,0,5.547,0.576,8.149,1.643c5.227,2.176,9.365,6.315,11.541,11.541c1.067,2.603,1.643,5.376,1.643,8.149V149.333z"/>
	</g>
</g>
<g>
</g>
<g>
</g>
<g>
</g>
<g>
</g>
<g>
</g>
<g>
</g>
<g>
</g>
<g>
</g>
<g>
</g>
<g>
</g>
<g>
</g>
<g>
</g>
<g>
</g>
<g>
</g>
<g>
</g>
</svg>
