<?xml version="1.0" encoding="iso-8859-1"?>
<!-- Generator: Adobe Illustrator 19.0.0, SVG Export Plug-In . SVG Version: 6.00 Build 0)  -->
<svg xmlns="http://www.w3.org/2000/svg" xmlns:xlink="http://www.w3.org/1999/xlink" version="1.1" id="Layer_1" x="0px" y="0px" viewBox="0 0 512.003 512.003" style="enable-background:new 0 0 512.003 512.003;" xml:space="preserve">
<g>
	<g>
		<rect x="0.001" y="405.33" width="512" height="42.667"/>
	</g>
</g>
<g>
	<g>
		<path d="M0.002,0v362.667h512V0H0.002z M399.086,185.749c-4.16,4.16-9.621,6.251-15.083,6.251c-5.461,0-10.923-2.091-15.083-6.251    l-91.584-91.584v204.501c0,11.797-9.536,21.333-21.333,21.333s-21.333-9.536-21.333-21.333V94.165l-91.584,91.584    c-8.341,8.341-21.824,8.341-30.165,0c-8.341-8.341-8.341-21.824,0-30.165L240.898,27.605c1.963-1.963,4.331-3.541,6.955-4.629    c5.205-2.155,11.093-2.155,16.299,0c2.624,1.088,4.992,2.667,6.955,4.629l127.979,127.979    C407.427,163.925,407.427,177.408,399.086,185.749z"/>
	</g>
</g>
<g>
	<g>
		<rect x="0.001" y="490.67" width="512" height="21.333"/>
	</g>
</g>
<g>
</g>
<g>
</g>
<g>
</g>
<g>
</g>
<g>
</g>
<g>
</g>
<g>
</g>
<g>
</g>
<g>
</g>
<g>
</g>
<g>
</g>
<g>
</g>
<g>
</g>
<g>
</g>
<g>
</g>
</svg>
