<?xml version="1.0" encoding="iso-8859-1"?>
<!-- Generator: Adobe Illustrator 19.0.0, SVG Export Plug-In . SVG Version: 6.00 Build 0)  -->
<svg xmlns="http://www.w3.org/2000/svg" xmlns:xlink="http://www.w3.org/1999/xlink" version="1.1" id="Layer_1" x="0px" y="0px" viewBox="0 0 511.975 511.975" style="enable-background:new 0 0 511.975 511.975;" xml:space="preserve">
<g>
	<g>
		<path d="M510.344,247.824c-1.088-2.624-2.645-4.971-4.629-6.955l-85.312-85.312c-8.341-8.341-21.824-8.341-30.165,0    s-8.341,21.845,0,30.165l48.917,48.917H341.32v-42.667c0-11.776-9.536-21.333-21.333-21.333H277.32V72.805l48.917,48.917    c4.16,4.16,9.621,6.251,15.083,6.251c5.461,0,10.923-2.091,15.083-6.251c8.341-8.32,8.341-21.824,0-30.165L271.091,6.245    c-1.963-1.984-4.331-3.541-6.955-4.629c-5.205-2.155-11.093-2.155-16.299,0c-2.624,1.088-4.992,2.645-6.955,4.629L155.57,91.557    c-8.341,8.341-8.341,21.845,0,30.165c4.16,4.16,9.621,6.251,15.083,6.251c5.461,0,10.923-2.091,15.083-6.251l48.917-48.917v97.835    h-42.667c-11.797,0-21.333,9.557-21.333,21.333v42.667H72.819l48.917-48.917c8.341-8.32,8.341-21.824,0-30.165    s-21.824-8.341-30.165,0L6.259,240.869c-1.984,1.984-3.541,4.331-4.629,6.955c-2.155,5.205-2.155,11.093,0,16.299    c1.088,2.624,2.645,4.971,4.629,6.955l85.312,85.312c4.16,4.16,9.621,6.251,15.083,6.251c5.461,0,10.923-2.091,15.083-6.251    c8.341-8.32,8.341-21.824,0-30.165L72.82,277.308h97.835v42.667c0,11.776,9.536,21.333,21.333,21.333h42.667v97.835    l-48.917-48.917c-8.341-8.341-21.824-8.341-30.165,0s-8.341,21.845,0,30.165l85.312,85.312c1.963,1.984,4.331,3.541,6.955,4.629    c2.603,1.067,5.376,1.643,8.149,1.643c2.773,0,5.547-0.555,8.149-1.643c2.624-1.088,4.992-2.645,6.955-4.629l85.312-85.312    c8.341-8.32,8.341-21.824,0-30.165s-21.824-8.341-30.165,0l-48.917,48.917v-97.835h42.667c11.797,0,21.333-9.557,21.333-21.333    v-42.667h97.835l-48.917,48.917c-8.341,8.341-8.341,21.845,0,30.165c4.16,4.16,9.621,6.251,15.083,6.251    c5.461,0,10.923-2.091,15.083-6.251l85.312-85.312c1.984-1.984,3.541-4.331,4.629-6.955    C512.499,258.917,512.499,253.029,510.344,247.824z"/>
	</g>
</g>
<g>
</g>
<g>
</g>
<g>
</g>
<g>
</g>
<g>
</g>
<g>
</g>
<g>
</g>
<g>
</g>
<g>
</g>
<g>
</g>
<g>
</g>
<g>
</g>
<g>
</g>
<g>
</g>
<g>
</g>
</svg>
