<?xml version="1.0" encoding="iso-8859-1"?>
<!-- Generator: Adobe Illustrator 19.0.0, SVG Export Plug-In . SVG Version: 6.00 Build 0)  -->
<svg xmlns="http://www.w3.org/2000/svg" xmlns:xlink="http://www.w3.org/1999/xlink" version="1.1" id="Layer_1" x="0px" y="0px" viewBox="0 0 512 512" style="enable-background:new 0 0 512 512;" xml:space="preserve">
<g>
	<g>
		<path d="M405.333,320h-55.168L512,481.835V30.165L350.165,192h55.168c11.776,0,21.333,9.557,21.333,21.333    s-9.557,21.333-21.333,21.333H298.667c-2.773,0-5.547-0.576-8.149-1.643c-5.227-2.176-9.365-6.315-11.541-11.541    c-1.067-2.603-1.643-5.376-1.643-8.149V106.667c0-11.776,9.557-21.333,21.333-21.333S320,94.891,320,106.667v55.168L481.835,0    H30.165L192,161.835v-55.168c0-11.776,9.557-21.333,21.333-21.333s21.333,9.557,21.333,21.333v106.667    c0,2.773-0.576,5.547-1.643,8.149c-2.176,5.227-6.315,9.365-11.541,11.541c-2.603,1.067-5.376,1.643-8.149,1.643H106.667    c-11.776,0-21.333-9.557-21.333-21.333S94.891,192,106.667,192h55.168L0,30.165v451.669L161.835,320h-55.168    c-11.776,0-21.333-9.557-21.333-21.333s9.557-21.333,21.333-21.333h106.667c2.773,0,5.547,0.576,8.149,1.643    c5.227,2.176,9.365,6.315,11.541,11.541c1.067,2.603,1.643,5.376,1.643,8.149v106.667c0,11.776-9.557,21.333-21.333,21.333    S192,417.109,192,405.333v-55.168L30.165,512h451.669L320,350.165v55.168c0,11.776-9.557,21.333-21.333,21.333    s-21.333-9.557-21.333-21.333V298.667c0-2.773,0.576-5.547,1.643-8.149c2.176-5.227,6.315-9.365,11.541-11.541    c2.603-1.067,5.376-1.643,8.149-1.643h106.667c11.776,0,21.333,9.557,21.333,21.333S417.109,320,405.333,320z"/>
	</g>
</g>
<g>
</g>
<g>
</g>
<g>
</g>
<g>
</g>
<g>
</g>
<g>
</g>
<g>
</g>
<g>
</g>
<g>
</g>
<g>
</g>
<g>
</g>
<g>
</g>
<g>
</g>
<g>
</g>
<g>
</g>
</svg>
