<?xml version="1.0" encoding="iso-8859-1"?>
<!-- Generator: Adobe Illustrator 19.0.0, SVG Export Plug-In . SVG Version: 6.00 Build 0)  -->
<svg xmlns="http://www.w3.org/2000/svg" xmlns:xlink="http://www.w3.org/1999/xlink" version="1.1" id="Layer_1" x="0px" y="0px" viewBox="0 0 512 512" style="enable-background:new 0 0 512 512;" xml:space="preserve">
<g>
	<g>
		<path d="M448,362.667h-55.168L512,481.835V30.165L392.832,149.333H448c11.776,0,21.333,9.557,21.333,21.333    c0,11.776-9.557,21.334-21.333,21.334H341.333c-2.773,0-5.547-0.576-8.149-1.643c-5.227-2.176-9.365-6.315-11.541-11.541    c-1.067-2.603-1.643-5.376-1.643-8.149V64c0-11.776,9.557-21.333,21.333-21.333S362.667,52.224,362.667,64v55.168L481.835,0    H30.165l119.168,119.168V64c0-11.776,9.557-21.333,21.333-21.333S192,52.224,192,64v106.667c0,2.773-0.576,5.547-1.643,8.149    c-2.176,5.227-6.315,9.365-11.541,11.541c-2.603,1.067-5.376,1.643-8.149,1.643H64c-11.776,0-21.333-9.557-21.333-21.333    S52.224,149.333,64,149.333h55.168L0,30.165v451.669l119.168-119.168H64c-11.776,0-21.333-9.557-21.333-21.333S52.224,320,64,320    h106.667c2.773,0,5.547,0.576,8.149,1.643c5.227,2.176,9.365,6.315,11.541,11.541c1.067,2.603,1.643,5.376,1.643,8.149V448    c0,11.776-9.557,21.333-21.333,21.333s-21.333-9.557-21.333-21.333v-55.168L30.165,512h451.669L362.667,392.832V448    c0,11.776-9.557,21.333-21.333,21.333S320,459.776,320,448V341.333c0-2.773,0.576-5.547,1.643-8.149    c2.176-5.227,6.315-9.365,11.541-11.541c2.603-1.067,5.376-1.643,8.149-1.643H448c11.776,0,21.333,9.557,21.333,21.333    S459.776,362.667,448,362.667z"/>
	</g>
</g>
<g>
</g>
<g>
</g>
<g>
</g>
<g>
</g>
<g>
</g>
<g>
</g>
<g>
</g>
<g>
</g>
<g>
</g>
<g>
</g>
<g>
</g>
<g>
</g>
<g>
</g>
<g>
</g>
<g>
</g>
</svg>
