<?xml version="1.0" encoding="iso-8859-1"?>
<!-- Generator: Adobe Illustrator 19.0.0, SVG Export Plug-In . SVG Version: 6.00 Build 0)  -->
<svg xmlns="http://www.w3.org/2000/svg" xmlns:xlink="http://www.w3.org/1999/xlink" version="1.1" id="Layer_1" x="0px" y="0px" viewBox="0 0 512 512" style="enable-background:new 0 0 512 512;" xml:space="preserve">
<g>
	<g>
		<path d="M0,0v512h512V0H0z M228.416,228.416c-4.16,4.16-9.621,6.251-15.083,6.251c-5.461,0-10.923-2.091-15.083-6.251L64,94.165    V192c0,11.776-9.536,21.333-21.333,21.333S21.334,203.776,21.334,192V42.667c0-2.773,0.576-5.547,1.643-8.149    c2.155-5.227,6.315-9.387,11.541-11.541c2.603-1.067,5.376-1.643,8.149-1.643H192c11.797,0,21.333,9.557,21.333,21.333    S203.797,64,192,64H94.165l134.251,134.251C236.757,206.592,236.757,220.075,228.416,228.416z M489.024,477.482    c-2.155,5.227-6.315,9.387-11.541,11.541c-2.603,1.067-5.376,1.643-8.149,1.643H320c-11.797,0-21.333-9.557-21.333-21.333    S308.203,448,320,448h97.835L283.584,313.749c-8.341-8.341-8.341-21.824,0-30.165s21.824-8.341,30.165,0L448,417.835V320    c0-11.776,9.536-21.333,21.333-21.333s21.333,9.557,21.333,21.333v149.333h0.001C490.667,472.106,490.112,474.88,489.024,477.482z    "/>
	</g>
</g>
<g>
</g>
<g>
</g>
<g>
</g>
<g>
</g>
<g>
</g>
<g>
</g>
<g>
</g>
<g>
</g>
<g>
</g>
<g>
</g>
<g>
</g>
<g>
</g>
<g>
</g>
<g>
</g>
<g>
</g>
</svg>
