<?xml version="1.0" encoding="iso-8859-1"?>
<!-- Generator: Adobe Illustrator 19.0.0, SVG Export Plug-In . SVG Version: 6.00 Build 0)  -->
<svg xmlns="http://www.w3.org/2000/svg" xmlns:xlink="http://www.w3.org/1999/xlink" version="1.1" id="Layer_1" x="0px" y="0px" viewBox="0 0 512 512" style="enable-background:new 0 0 512 512;" xml:space="preserve">
<g>
	<g>
		<path d="M0,0v512h512V0H0z M228.416,313.749L94.165,448H192c11.776,0,21.333,9.536,21.333,21.333s-9.557,21.333-21.333,21.333    H42.667c-2.773,0-5.547-0.576-8.149-1.643c-5.227-2.155-9.387-6.315-11.541-11.541c-1.067-2.603-1.643-5.376-1.643-8.149V320    c0-11.797,9.557-21.333,21.333-21.333S64,308.203,64,320v97.835l134.251-134.251c8.341-8.341,21.824-8.341,30.165,0    c4.16,4.16,6.251,9.621,6.251,15.083C234.667,304.128,232.576,309.589,228.416,313.749z M469.334,213.333    C457.558,213.333,448,203.797,448,192V94.165L313.749,228.416c-8.341,8.341-21.824,8.341-30.165,0s-8.341-21.824,0-30.165    L417.835,64H320c-11.776,0-21.333-9.536-21.333-21.333S308.224,21.334,320,21.334h149.333c2.773,0,5.547,0.555,8.149,1.643    c5.227,2.155,9.387,6.315,11.541,11.541c1.067,2.603,1.643,5.376,1.643,8.149V192h0.001    C490.667,203.797,481.11,213.333,469.334,213.333z"/>
	</g>
</g>
<g>
</g>
<g>
</g>
<g>
</g>
<g>
</g>
<g>
</g>
<g>
</g>
<g>
</g>
<g>
</g>
<g>
</g>
<g>
</g>
<g>
</g>
<g>
</g>
<g>
</g>
<g>
</g>
<g>
</g>
</svg>
