<?xml version="1.0" encoding="iso-8859-1"?>
<!-- Generator: Adobe Illustrator 19.0.0, SVG Export Plug-In . SVG Version: 6.00 Build 0)  -->
<svg xmlns="http://www.w3.org/2000/svg" xmlns:xlink="http://www.w3.org/1999/xlink" version="1.1" id="Layer_1" x="0px" y="0px" viewBox="0 0 512 512" style="enable-background:new 0 0 512 512;" xml:space="preserve">
<g>
	<g>
		<path d="M463.083,155.584l-34.539-34.539C440.235,113.429,448,100.288,448,85.333V42.667C448,19.136,428.864,0,405.333,0h-42.667    C339.136,0,320,19.136,320,42.667v42.667c0,14.955,7.765,28.096,19.456,35.712l-34.539,34.539c-8.341,8.341-8.341,21.824,0,30.165    c4.16,4.16,9.621,6.251,15.083,6.251c5.462,0,10.923-2.091,15.083-6.251l26.581-26.581C356.629,213.312,311.445,256,256,256    c-41.771,0-79.531,17.28-106.667,45.013V158.165l27.584,27.584c4.16,4.16,9.621,6.251,15.083,6.251    c5.461,0,10.923-2.091,15.083-6.251c8.341-8.341,8.341-21.824,0-30.165l-34.539-34.539C184.235,113.429,192,100.288,192,85.333    V42.667C192,19.136,172.864,0,149.333,0h-42.667C83.136,0,64,19.136,64,42.667v42.667c0,14.955,7.765,28.096,19.456,35.712    l-34.539,34.539c-8.341,8.341-8.341,21.824,0,30.165C53.077,189.909,58.539,192,64,192s10.923-2.091,15.083-6.251l27.584-27.584    V384C83.136,384,64,403.136,64,426.667v42.667C64,492.864,83.136,512,106.667,512h42.667c23.53,0,42.666-19.136,42.666-42.667    v-42.667c0-22.805-18.005-41.301-40.533-42.453c9.835-48.725,52.949-85.547,104.533-85.547    c79.509,0,144.512-62.507,148.907-140.928l28.011,28.011c4.16,4.16,9.621,6.251,15.083,6.251c5.462,0,10.923-2.091,15.083-6.251    C471.424,177.408,471.424,163.925,463.083,155.584z"/>
	</g>
</g>
<g>
</g>
<g>
</g>
<g>
</g>
<g>
</g>
<g>
</g>
<g>
</g>
<g>
</g>
<g>
</g>
<g>
</g>
<g>
</g>
<g>
</g>
<g>
</g>
<g>
</g>
<g>
</g>
<g>
</g>
</svg>
