<?xml version="1.0" encoding="iso-8859-1"?>
<!-- Generator: Adobe Illustrator 19.0.0, SVG Export Plug-In . SVG Version: 6.00 Build 0)  -->
<svg xmlns="http://www.w3.org/2000/svg" xmlns:xlink="http://www.w3.org/1999/xlink" version="1.1" id="Layer_1" x="0px" y="0px" viewBox="0 0 512.001 512.001" style="enable-background:new 0 0 512.001 512.001;" xml:space="preserve">
<g transform="translate(0 -1)">
	<g>
		<g>
			<path d="M380.496,212.708c-9.301-7.296-22.677-5.653-29.952,3.584c-7.36,9.344-16.171,17.365-26.197,23.808     c-9.899,6.379-12.757,19.584-6.379,29.483c4.053,6.336,10.923,9.792,17.941,9.792c3.968,0,7.979-1.088,11.52-3.392     c14.037-9.024,26.368-20.224,36.651-33.323C391.355,233.401,389.777,220.004,380.496,212.708z"/>
			<path d="M252.524,257.668c-16.64,1.557-32.768,5.867-47.893,12.8c-10.709,4.885-15.424,17.536-10.517,28.267     c3.584,7.829,11.307,12.459,19.413,12.459c2.965,0,5.973-0.619,8.853-1.941c10.773-4.928,22.272-8,34.133-9.109     c11.733-1.109,20.352-11.499,19.264-23.232C274.668,265.177,264.492,256.622,252.524,257.668z"/>
			<path d="M162.436,385.256c1.92-9.664,4.864-19.051,9.408-27.84c5.397-10.453,1.28-23.339-9.173-28.736     c-0.853-0.448-1.792-0.448-2.667-0.768V159.187l27.584,27.563c4.16,4.181,9.621,6.251,15.083,6.251     c5.461,0,10.923-2.069,15.083-6.251c8.341-8.32,8.341-21.824,0-30.165l-34.539-34.539c11.691-7.616,19.456-20.736,19.456-35.712     V43.667C202.67,20.136,183.534,1,160.004,1h-42.667C93.828,1,74.67,20.136,74.67,43.667v42.667     c0,14.976,7.765,28.096,19.456,35.712l-34.539,34.539c-8.341,8.341-8.341,21.845,0,30.165c4.16,4.181,9.621,6.251,15.083,6.251     c5.461,0,10.923-2.069,15.083-6.251l27.584-27.563V385c-23.509,0-42.667,19.136-42.667,42.667v42.667     c0,23.531,19.157,42.667,42.667,42.667h42.667c23.531,0,42.667-19.136,42.667-42.667v-42.667     C202.67,404.968,184.814,386.536,162.436,385.256z"/>
			<path d="M416.004,1.011h-42.667c-23.531,0-42.667,19.136-42.667,42.667v42.667c0,23.531,19.136,42.667,42.667,42.667v21.333     c0,11.776,9.536,21.333,21.333,21.333s21.333-9.557,21.333-21.333v-21.333c23.531,0,42.667-19.136,42.667-42.667V43.677     C458.67,20.147,439.534,1.011,416.004,1.011z"/>
		</g>
	</g>
</g>
<g>
</g>
<g>
</g>
<g>
</g>
<g>
</g>
<g>
</g>
<g>
</g>
<g>
</g>
<g>
</g>
<g>
</g>
<g>
</g>
<g>
</g>
<g>
</g>
<g>
</g>
<g>
</g>
<g>
</g>
</svg>
