<?xml version="1.0" encoding="iso-8859-1"?>
<!-- Generator: Adobe Illustrator 19.0.0, SVG Export Plug-In . SVG Version: 6.00 Build 0)  -->
<svg xmlns="http://www.w3.org/2000/svg" xmlns:xlink="http://www.w3.org/1999/xlink" version="1.1" id="Layer_1" x="0px" y="0px" viewBox="0 0 512 512" style="enable-background:new 0 0 512 512;" xml:space="preserve">
<g>
	<g>
		<path d="M128,213.334c-11.797-0.001-21.333,9.557-21.333,21.333v42.667c0,11.776,9.536,21.333,21.333,21.333    s21.333-9.557,21.333-21.333v-42.667C149.333,222.891,139.797,213.334,128,213.334z"/>
	</g>
</g>
<g>
	<g>
		<path d="M207.083,326.25c-8.342-8.341-21.824-8.341-30.166,0.001l-29.056,29.056c-3.029-8.107-10.688-13.973-19.861-13.973    c-9.173,0-16.832,5.867-19.84,13.973l-29.077-29.056c-8.341-8.341-21.824-8.341-30.165,0s-8.341,21.824,0,30.165l34.539,34.539    C71.764,398.571,64,411.712,64,426.667v42.667C64,492.864,83.135,512,106.667,512h42.667c23.53,0,42.666-19.136,42.666-42.667    v-42.667c0-14.955-7.765-28.096-19.456-35.712l34.539-34.539C215.424,348.074,215.424,334.591,207.083,326.25z"/>
	</g>
</g>
<g>
	<g>
		<path d="M463.083,326.251c-8.341-8.341-21.824-8.341-30.165,0l-29.056,29.056c-3.029-8.107-10.688-13.973-19.861-13.973    c-9.173,0-16.832,5.867-19.861,13.973l-29.056-29.056c-8.341-8.341-21.824-8.341-30.165,0s-8.341,21.824,0,30.165l34.539,34.539    C327.765,398.571,320,411.712,320,426.667v42.667c0,23.53,19.136,42.666,42.667,42.666h42.667    c23.53,0,42.666-19.136,42.666-42.667v-42.667c0-14.955-7.765-28.096-19.456-35.712l34.539-34.539    C471.424,348.075,471.424,334.592,463.083,326.251z"/>
	</g>
</g>
<g>
	<g>
		<path d="M245.854,212.864c-11.883-1.109-23.381-4.181-34.155-9.109c-10.752-4.949-23.36-0.171-28.267,10.517    c-4.885,10.731-0.192,23.381,10.517,28.288c15.125,6.912,31.253,11.221,47.915,12.779c0.683,0.064,1.344,0.107,2.005,0.107    c10.901,0,20.203-8.299,21.227-19.349C266.185,224.384,257.588,213.973,245.854,212.864z"/>
	</g>
</g>
<g>
	<g>
		<path d="M373.421,270.347c-10.304-13.099-22.635-24.299-36.651-33.323c-9.877-6.379-23.125-3.499-29.483,6.4    c-6.377,9.92-3.519,23.125,6.401,29.483c10.027,6.443,18.837,14.464,26.197,23.808c4.203,5.355,10.453,8.149,16.789,8.149    c4.587,0,9.237-1.493,13.163-4.565C379.096,293.003,380.695,279.606,373.421,270.347z"/>
	</g>
</g>
<g>
	<g>
		<path d="M149.333,0h-42.667C83.135,0,64,19.136,64,42.667v42.667C64,108.864,83.135,128,106.667,128v21.333    c0,9.216,5.931,16.896,14.123,19.883c0.896,1.941,1.472,4.032,2.453,5.952c3.797,7.339,11.264,11.541,18.987,11.541    c3.285,0,6.656-0.768,9.771-2.368c10.453-5.419,14.571-18.283,9.173-28.757c-4.544-8.768-7.488-18.176-9.408-27.84    C174.143,126.464,192,108.032,192,85.333V42.667C192,19.136,172.864,0,149.333,0z"/>
	</g>
</g>
<g>
</g>
<g>
</g>
<g>
</g>
<g>
</g>
<g>
</g>
<g>
</g>
<g>
</g>
<g>
</g>
<g>
</g>
<g>
</g>
<g>
</g>
<g>
</g>
<g>
</g>
<g>
</g>
<g>
</g>
</svg>
