<?xml version="1.0" encoding="iso-8859-1"?>
<!-- Generator: Adobe Illustrator 19.0.0, SVG Export Plug-In . SVG Version: 6.00 Build 0)  -->
<svg xmlns="http://www.w3.org/2000/svg" xmlns:xlink="http://www.w3.org/1999/xlink" version="1.1" id="Layer_1" x="0px" y="0px" viewBox="0 0 512.008 512.008" style="enable-background:new 0 0 512.008 512.008;" xml:space="preserve">
<g>
	<g>
		<path d="M106.669,0.005H64.003c-23.531,0-42.667,19.136-42.667,42.667v42.667c0,23.531,19.136,42.667,42.667,42.667v21.333    c0,11.776,9.536,21.333,21.333,21.333s21.333-9.557,21.333-21.333v-21.333c23.531,0,42.667-19.136,42.667-42.667V42.672    C149.336,19.141,130.2,0.005,106.669,0.005z"/>
	</g>
</g>
<g>
	<g>
		<path d="M271.086,411.588l-64.001-63.999c-8.341-8.341-21.824-8.341-30.165,0s-8.341,21.824,0,30.165l27.584,27.584h-18.603    c-11.797,0-21.333,9.557-21.333,21.333s9.536,21.333,21.333,21.333h18.603l-27.584,27.584c-8.341,8.341-8.341,21.824,0,30.165    c4.16,4.16,9.621,6.251,15.083,6.251c5.461,0,10.923-2.091,15.083-6.251l64-64C279.427,433.412,279.427,419.929,271.086,411.588z"/>
	</g>
</g>
<g>
	<g>
		<path d="M123.797,384.949c-7.297-7.809-12.524-17.43-15.169-27.755c-2.923-11.435-14.528-18.325-25.941-15.424    c-11.413,2.923-18.304,14.528-15.381,25.941c4.373,17.259,13.12,33.28,25.28,46.336c4.181,4.501,9.899,6.784,15.595,6.784    c5.227,0,10.453-1.899,14.549-5.717C131.349,407.071,131.839,393.589,123.797,384.949z"/>
	</g>
</g>
<g>
	<g>
		<path d="M85.336,213.339c-11.797,0-21.333,9.557-21.333,21.333v42.667c0,11.776,9.536,21.333,21.333,21.333    s21.333-9.557,21.333-21.333v-42.667C106.669,222.896,97.133,213.339,85.336,213.339z"/>
	</g>
</g>
<g>
	<g>
		<path d="M448.003,384.005V170.672c0-58.816-47.851-106.667-106.667-106.667h-33.835l27.584-27.584    c8.341-8.341,8.341-21.824,0-30.165s-21.824-8.341-30.165,0l-63.979,63.979c-1.984,1.984-3.541,4.331-4.629,6.955    c-2.155,5.205-2.155,11.093,0,16.299c1.088,2.624,2.645,4.971,4.629,6.955l63.979,63.979c4.16,4.16,9.621,6.251,15.083,6.251    c5.462,0,10.923-2.091,15.083-6.251c8.341-8.341,8.341-21.824,0-30.165l-27.584-27.584h33.835c35.285,0,64,28.715,64,64v213.333    c-23.531,0-42.667,19.136-42.667,42.667v42.667c0,23.531,19.136,42.667,42.667,42.667h42.667    c23.531,0,42.667-19.136,42.667-42.667v-42.667C490.669,403.141,471.533,384.005,448.003,384.005z"/>
	</g>
</g>
<g>
</g>
<g>
</g>
<g>
</g>
<g>
</g>
<g>
</g>
<g>
</g>
<g>
</g>
<g>
</g>
<g>
</g>
<g>
</g>
<g>
</g>
<g>
</g>
<g>
</g>
<g>
</g>
<g>
</g>
</svg>
