<?xml version="1.0" encoding="iso-8859-1"?>
<!-- Generator: Adobe Illustrator 19.0.0, SVG Export Plug-In . SVG Version: 6.00 Build 0)  -->
<svg xmlns="http://www.w3.org/2000/svg" xmlns:xlink="http://www.w3.org/1999/xlink" version="1.1" id="Layer_1" x="0px" y="0px" viewBox="0 0 512.005 512.005" style="enable-background:new 0 0 512.005 512.005;" xml:space="preserve">
<g>
	<g>
		<path d="M106.668,0.004H64.002c-23.531,0-42.667,19.136-42.667,42.667v42.667c0,23.531,19.136,42.667,42.667,42.667v21.333    c0,11.776,9.536,21.333,21.333,21.333s21.333-9.557,21.333-21.333v-21.333c23.531,0,42.667-19.136,42.667-42.667V42.671    C149.335,19.14,130.199,0.004,106.668,0.004z"/>
	</g>
</g>
<g>
	<g>
		<path d="M271.085,411.587l-64.001-63.999c-8.341-8.341-21.824-8.341-30.165,0s-8.341,21.824,0,30.165l27.584,27.584H185.9    c-11.797,0-21.333,9.557-21.333,21.333s9.536,21.333,21.333,21.333h18.603l-27.584,27.584c-8.341,8.341-8.341,21.824,0,30.165    c4.16,4.16,9.621,6.251,15.083,6.251c5.461,0,10.923-2.091,15.083-6.251l64-64C279.426,433.411,279.426,419.928,271.085,411.587z"/>
	</g>
</g>
<g>
	<g>
		<path d="M123.796,384.948c-7.297-7.809-12.524-17.43-15.169-27.755c-2.923-11.435-14.528-18.325-25.941-15.424    c-11.413,2.923-18.304,14.528-15.381,25.941c4.373,17.259,13.12,33.28,25.28,46.336c4.181,4.501,9.899,6.784,15.595,6.784    c5.227,0,10.453-1.899,14.549-5.717C131.348,407.07,131.838,393.588,123.796,384.948z"/>
	</g>
</g>
<g>
	<g>
		<path d="M85.335,213.338c-11.797,0-21.333,9.557-21.333,21.333v42.667c0,11.776,9.536,21.333,21.333,21.333    s21.333-9.557,21.333-21.333v-42.667C106.668,222.895,97.132,213.338,85.335,213.338z"/>
	</g>
</g>
<g>
	<g>
		<path d="M448.002,384.004v-21.333c0-11.776-9.536-21.333-21.333-21.333s-21.333,9.557-21.333,21.333v21.333    c-23.531,0-42.667,19.136-42.667,42.667v42.667c0,23.531,19.136,42.667,42.667,42.667h42.667    c23.531,0,42.667-19.136,42.667-42.667v-42.667C490.668,403.14,471.532,384.004,448.002,384.004z"/>
	</g>
</g>
<g>
	<g>
		<path d="M444.7,144.299c-4.373-17.259-13.12-33.28-25.28-46.336c-8-8.619-21.568-9.067-30.144-1.067    c-8.619,8.043-9.109,21.525-1.067,30.165c7.296,7.808,12.522,17.43,15.168,27.755c2.453,9.664,11.115,16.064,20.651,16.064    c1.749,0,3.52-0.192,5.291-0.64C440.732,167.317,447.623,155.712,444.7,144.299z"/>
	</g>
</g>
<g>
	<g>
		<path d="M426.668,213.338c-11.797,0-21.333,9.557-21.333,21.333v42.667c0,11.776,9.536,21.333,21.333,21.333    s21.333-9.557,21.333-21.333v-42.667C448.002,222.895,438.466,213.338,426.668,213.338z"/>
	</g>
</g>
<g>
	<g>
		<path d="M307.504,106.672h18.603c11.796-0.001,21.332-9.558,21.332-21.334s-9.536-21.333-21.333-21.333h-18.603l27.584-27.584    c8.341-8.341,8.341-21.824,0-30.165s-21.845-8.341-30.165,0l-64,64c-8.341,8.341-8.341,21.824,0,30.165l64,64    c4.16,4.16,9.621,6.251,15.083,6.251c5.461,0,10.923-2.091,15.083-6.251c8.341-8.341,8.341-21.824,0-30.165L307.504,106.672z"/>
	</g>
</g>
<g>
</g>
<g>
</g>
<g>
</g>
<g>
</g>
<g>
</g>
<g>
</g>
<g>
</g>
<g>
</g>
<g>
</g>
<g>
</g>
<g>
</g>
<g>
</g>
<g>
</g>
<g>
</g>
<g>
</g>
</svg>
