<?xml version="1.0" encoding="iso-8859-1"?>
<!-- Generator: Adobe Illustrator 19.0.0, SVG Export Plug-In . SVG Version: 6.00 Build 0)  -->
<svg xmlns="http://www.w3.org/2000/svg" xmlns:xlink="http://www.w3.org/1999/xlink" version="1.1" id="Layer_1" x="0px" y="0px" viewBox="0 0 512.012 512.012" style="enable-background:new 0 0 512.012 512.012;" xml:space="preserve">
<g>
	<g>
		<path d="M458.672,384.005V170.672c0-58.816-47.851-106.667-106.667-106.667H318.17l27.584-27.584    c8.341-8.341,8.341-21.824,0-30.165s-21.824-8.341-30.165,0l-64,64c-1.963,1.963-3.52,4.309-4.608,6.933    c-2.155,5.205-2.155,11.093,0,16.299c1.088,2.624,2.645,4.971,4.608,6.933l64,64c4.16,4.16,9.621,6.251,15.083,6.251    c5.461,0,10.923-2.091,15.083-6.251c8.341-8.341,8.341-21.824,0-30.165l-27.584-27.584h33.835c35.285,0,64,28.715,64,64v213.333    c-23.531,0-42.667,19.136-42.667,42.667v42.667c0,23.531,19.136,42.667,42.667,42.667h42.667    c23.531,0,42.667-19.136,42.667-42.667v-42.667C501.339,403.141,482.203,384.005,458.672,384.005z"/>
	</g>
</g>
<g>
	<g>
		<path d="M117.339,0.005H74.672c-23.531,0-42.667,19.136-42.667,42.667v42.667c0,23.53,19.136,42.666,42.667,42.666h42.667    c23.531,0,42.667-19.136,42.667-42.667V42.672C160.006,19.141,140.87,0.005,117.339,0.005z"/>
	</g>
</g>
<g>
	<g>
		<path d="M175.095,240.929l-64.001-64c-1.963-1.963-4.331-3.52-6.933-4.608c-5.227-2.155-11.093-2.155-16.299,0    c-2.624,1.088-4.992,2.645-6.955,4.608l-63.979,64c-8.341,8.32-8.341,21.824,0,30.165c4.16,4.16,9.621,6.251,15.083,6.251    c5.461,0,10.901-2.091,15.083-6.251l27.584-27.584v140.501c-23.531,0-42.667,19.136-42.667,42.667v42.667    c0,23.531,19.136,42.667,42.667,42.667h42.667c23.531,0,42.667-19.136,42.667-42.667v-42.667    c0-23.531-19.136-42.667-42.667-42.667V243.51l27.584,27.584c4.16,4.16,9.621,6.251,15.083,6.251    c5.461,0,10.901-2.091,15.083-6.251C183.415,262.753,183.415,249.249,175.095,240.929z"/>
	</g>
</g>
<g>
</g>
<g>
</g>
<g>
</g>
<g>
</g>
<g>
</g>
<g>
</g>
<g>
</g>
<g>
</g>
<g>
</g>
<g>
</g>
<g>
</g>
<g>
</g>
<g>
</g>
<g>
</g>
<g>
</g>
</svg>
