<?xml version="1.0" encoding="iso-8859-1"?>
<!-- Generator: Adobe Illustrator 19.0.0, SVG Export Plug-In . SVG Version: 6.00 Build 0)  -->
<svg xmlns="http://www.w3.org/2000/svg" xmlns:xlink="http://www.w3.org/1999/xlink" version="1.1" id="Layer_1" x="0px" y="0px" viewBox="0 0 512.001 512.001" style="enable-background:new 0 0 512.001 512.001;" xml:space="preserve">
<g>
	<g>
		<path d="M95.998,0H53.332C29.801,0,10.665,19.136,10.665,42.667v42.667c0,23.53,19.136,42.666,42.667,42.666v21.333    c0,11.776,9.536,21.333,21.333,21.333c11.797,0,21.333-9.557,21.333-21.333V128c23.531,0,42.667-19.136,42.667-42.667V42.667    C138.665,19.136,119.529,0,95.998,0z"/>
	</g>
</g>
<g>
	<g>
		<path d="M260.415,411.584l-64.001-64c-8.341-8.341-21.824-8.341-30.165,0s-8.341,21.824,0,30.165l27.584,27.584H175.23    c-11.797,0-21.333,9.557-21.333,21.333S163.433,448,175.23,448h18.603l-27.584,27.584c-8.341,8.341-8.341,21.824,0,30.165    c4.16,4.16,9.621,6.251,15.083,6.251c5.461,0,10.923-2.091,15.083-6.251l64-64C268.756,433.408,268.756,419.925,260.415,411.584z"/>
	</g>
</g>
<g>
	<g>
		<path d="M113.126,384.943c-7.297-7.808-12.524-17.429-15.169-27.755c-2.923-11.435-14.571-18.283-25.941-15.424    c-11.413,2.923-18.304,14.528-15.381,25.941c4.373,17.259,13.12,33.28,25.28,46.336c4.181,4.501,9.899,6.784,15.595,6.784    c5.227,0,10.453-1.899,14.549-5.717C120.678,407.065,121.168,393.583,113.126,384.943z"/>
	</g>
</g>
<g>
	<g>
		<path d="M74.665,213.334c-11.797,0-21.333,9.557-21.333,21.333v42.667c0,11.775,9.536,21.333,21.333,21.333    c11.797,0,21.333-9.557,21.333-21.333v-42.667C95.998,222.891,86.462,213.334,74.665,213.334z"/>
	</g>
</g>
<g>
	<g>
		<path d="M437.332,0h-42.667c-23.531,0-42.667,19.136-42.667,42.667v42.667c0,23.53,19.136,42.666,42.667,42.666h42.667    c23.531,0,42.667-19.136,42.667-42.667V42.667C479.998,19.136,460.862,0,437.332,0z"/>
	</g>
</g>
<g>
	<g>
		<path d="M495.081,240.917l-63.979-63.979c-1.963-1.984-4.331-3.541-6.955-4.629c-5.205-2.155-11.093-2.155-16.299,0    c-2.624,1.088-4.992,2.645-6.955,4.629l-63.979,63.979c-8.341,8.341-8.341,21.824,0,30.165c4.16,4.16,9.621,6.251,15.083,6.251    c5.461,0,10.923-2.091,15.083-6.251l27.584-27.584V384c-23.531,0-42.667,19.136-42.667,42.667v42.667    c0,23.531,19.136,42.667,42.667,42.667h42.667c23.531,0,42.667-19.136,42.667-42.667v-42.667    c0-23.531-19.136-42.667-42.667-42.667V243.499l27.584,27.584c4.16,4.16,9.621,6.251,15.083,6.251    c5.462,0,10.923-2.091,15.083-6.251C503.422,262.741,503.422,249.259,495.081,240.917z"/>
	</g>
</g>
<g>
</g>
<g>
</g>
<g>
</g>
<g>
</g>
<g>
</g>
<g>
</g>
<g>
</g>
<g>
</g>
<g>
</g>
<g>
</g>
<g>
</g>
<g>
</g>
<g>
</g>
<g>
</g>
<g>
</g>
</svg>
