<?xml version="1.0" encoding="iso-8859-1"?>
<!-- Generator: Adobe Illustrator 19.0.0, SVG Export Plug-In . SVG Version: 6.00 Build 0)  -->
<svg xmlns="http://www.w3.org/2000/svg" xmlns:xlink="http://www.w3.org/1999/xlink" version="1.1" id="Layer_1" x="0px" y="0px" viewBox="0 0 512.005 512.005" style="enable-background:new 0 0 512.005 512.005;" xml:space="preserve">
<g>
	<g>
		<path d="M458.671,384.004v-21.333c0-11.776-9.536-21.333-21.333-21.333s-21.333,9.557-21.333,21.333v21.333    c-23.531,0-42.667,19.136-42.667,42.667v42.667c0,23.531,19.136,42.667,42.667,42.667h42.667    c23.531,0,42.667-19.136,42.667-42.667v-42.667C501.338,403.14,482.202,384.004,458.671,384.004z"/>
	</g>
</g>
<g>
	<g>
		<path d="M455.369,144.299c-4.373-17.259-13.12-33.28-25.28-46.336c-8.021-8.619-21.547-9.067-30.144-1.067    c-8.619,8.043-9.109,21.525-1.067,30.165c7.296,7.808,12.523,17.43,15.168,27.755c2.453,9.664,11.115,16.064,20.651,16.064    c1.749,0,3.52-0.192,5.291-0.64C451.401,167.317,458.292,155.712,455.369,144.299z"/>
	</g>
</g>
<g>
	<g>
		<path d="M318.173,106.672h18.603c11.796-0.001,21.332-9.558,21.332-21.334s-9.536-21.333-21.333-21.333h-18.603l27.584-27.584    c8.341-8.341,8.341-21.824,0-30.165s-21.845-8.341-30.165,0l-64,64c-8.341,8.341-8.341,21.824,0,30.165l64,64    c4.16,4.16,9.621,6.251,15.083,6.251c5.461,0,10.923-2.091,15.083-6.251c8.341-8.341,8.341-21.824,0-30.165L318.173,106.672z"/>
	</g>
</g>
<g>
	<g>
		<path d="M437.338,213.338c-11.797,0-21.333,9.557-21.333,21.333v42.667c0,11.776,9.536,21.333,21.333,21.333    s21.333-9.557,21.333-21.333v-42.667C458.671,222.895,449.135,213.338,437.338,213.338z"/>
	</g>
</g>
<g>
	<g>
		<path d="M117.338,384.004H74.671c-23.531,0-42.667,19.136-42.667,42.667v42.667c0,23.531,19.136,42.667,42.667,42.667h42.667    c23.531,0,42.667-19.136,42.667-42.667v-42.667C160.004,403.14,140.868,384.004,117.338,384.004z"/>
	</g>
</g>
<g>
	<g>
		<path d="M175.088,240.922c-8.342-8.342-21.825-8.342-30.166,0l-27.584,27.584V128.004c23.531,0,42.667-19.136,42.667-42.667    V42.671c0-23.531-19.136-42.667-42.667-42.667H74.671c-23.531,0-42.667,19.136-42.667,42.667v42.667    c0,23.531,19.136,42.667,42.667,42.667v140.501l-27.584-27.584c-8.341-8.341-21.824-8.341-30.165,0s-8.341,21.824,0,30.165    l63.979,63.979c1.963,1.984,4.331,3.541,6.955,4.629c2.603,1.067,5.376,1.643,8.149,1.643s5.547-0.576,8.149-1.643    c2.624-1.088,4.992-2.645,6.955-4.629l63.979-63.979C183.429,262.746,183.429,249.263,175.088,240.922z"/>
	</g>
</g>
<g>
</g>
<g>
</g>
<g>
</g>
<g>
</g>
<g>
</g>
<g>
</g>
<g>
</g>
<g>
</g>
<g>
</g>
<g>
</g>
<g>
</g>
<g>
</g>
<g>
</g>
<g>
</g>
<g>
</g>
</svg>
