<?xml version="1.0" encoding="iso-8859-1"?>
<!-- Generator: Adobe Illustrator 19.0.0, SVG Export Plug-In . SVG Version: 6.00 Build 0)  -->
<svg xmlns="http://www.w3.org/2000/svg" xmlns:xlink="http://www.w3.org/1999/xlink" version="1.1" id="Layer_1" x="0px" y="0px" viewBox="0 0 512 512" style="enable-background:new 0 0 512 512;" xml:space="preserve">
<g>
	<g>
		<path d="M469.333,0h-42.667C403.136,0,384,19.136,384,42.667v42.667c0,23.53,19.136,42.666,42.667,42.666v106.667H320    C320,211.136,300.864,192,277.333,192h-42.667C211.136,192,192,211.136,192,234.667H64c-11.797,0-21.333,9.557-21.333,21.333v128    C19.136,384,0,403.136,0,426.667v42.667C0,492.864,19.136,512,42.667,512h42.667c23.53,0,42.666-19.136,42.666-42.667v-42.667    C128,403.136,108.864,384,85.333,384V277.333H192C192,300.864,211.136,320,234.667,320h42.667    c23.53,0,42.666-19.136,42.666-42.667h128c11.797,0,21.333-9.557,21.333-21.333V128C492.864,128,512,108.864,512,85.333V42.667    C512,19.136,492.864,0,469.333,0z"/>
	</g>
</g>
<g>
</g>
<g>
</g>
<g>
</g>
<g>
</g>
<g>
</g>
<g>
</g>
<g>
</g>
<g>
</g>
<g>
</g>
<g>
</g>
<g>
</g>
<g>
</g>
<g>
</g>
<g>
</g>
<g>
</g>
</svg>
