<?xml version="1.0" encoding="iso-8859-1"?>
<!-- Generator: Adobe Illustrator 19.0.0, SVG Export Plug-In . SVG Version: 6.00 Build 0)  -->
<svg xmlns="http://www.w3.org/2000/svg" xmlns:xlink="http://www.w3.org/1999/xlink" version="1.1" id="Layer_1" x="0px" y="0px" viewBox="0 0 512 512" style="enable-background:new 0 0 512 512;" xml:space="preserve">
<g>
	<g>
		<path d="M510.357,34.517c-2.155-5.227-6.315-9.387-11.541-11.541c-2.603-1.088-5.376-1.643-8.149-1.643h-64    c-11.797,0-21.333,9.557-21.333,21.333S414.869,64,426.667,64h12.501L277.333,225.835V115.499l27.989,27.989    c4.181,4.181,9.643,6.251,15.104,6.251c5.44,0,10.901-2.069,15.083-6.251c8.32-8.32,8.32-21.824,0-30.165l-64.427-64.405    c-8.341-8.341-21.824-8.341-30.165,0l-64,64c-8.341,8.32-8.341,21.824,0,30.165c4.16,4.16,9.621,6.251,15.083,6.251    c5.462,0,10.923-2.091,15.083-6.251l27.584-27.584v110.336L72.832,64h12.501c11.797,0,21.333-9.557,21.333-21.333    S97.13,21.334,85.333,21.334h-64c-2.773,0-5.547,0.576-8.149,1.643c-5.227,2.155-9.387,6.315-11.541,11.541    C0.576,37.12,0,39.893,0,42.667v64C0,118.443,9.536,128,21.333,128s21.333-9.557,21.333-21.333V94.165l192,192v76.501    c-23.531,0-42.667,19.136-42.667,42.667V448c0,23.531,19.136,42.667,42.667,42.667h42.667C300.864,490.667,320,471.531,320,448    v-42.667c0-23.531-19.136-42.667-42.667-42.667v-76.501l192-192v12.501c0,11.776,9.536,21.333,21.333,21.333    S512,118.443,512,106.667v-64C512,39.893,511.445,37.12,510.357,34.517z"/>
	</g>
</g>
<g>
</g>
<g>
</g>
<g>
</g>
<g>
</g>
<g>
</g>
<g>
</g>
<g>
</g>
<g>
</g>
<g>
</g>
<g>
</g>
<g>
</g>
<g>
</g>
<g>
</g>
<g>
</g>
<g>
</g>
</svg>
