<?xml version="1.0" encoding="iso-8859-1"?>
<!-- Generator: Adobe Illustrator 19.0.0, SVG Export Plug-In . SVG Version: 6.00 Build 0)  -->
<svg xmlns="http://www.w3.org/2000/svg" xmlns:xlink="http://www.w3.org/1999/xlink" version="1.1" id="Layer_1" x="0px" y="0px" viewBox="0 0 512.006 512.006" style="enable-background:new 0 0 512.006 512.006;" xml:space="preserve">
<g>
	<g>
		<path d="M489.038,77.188c-1.088-2.624-2.645-4.971-4.629-6.955L420.43,6.256c-8.341-8.341-21.824-8.341-30.165,0    s-8.341,21.824,0,30.165l39.104,39.104c-1.579,2.987-2.688,6.208-2.688,9.813c0,3.605,1.109,6.827,2.688,9.813l-39.104,39.104    c-8.342,8.342-8.342,21.825-0.001,30.166c4.16,4.16,9.621,6.251,15.083,6.251c5.461,0,10.923-2.091,15.083-6.251l63.979-63.979    c1.984-1.984,3.541-4.331,4.629-6.955C491.193,88.282,491.193,82.394,489.038,77.188z"/>
	</g>
</g>
<g>
	<g>
		<path d="M122.139,240.868l-64.427-63.999c-8.341-8.299-21.845-8.256-30.165,0.107c-8.299,8.341-8.256,21.867,0.107,30.165    l49.173,48.853l-49.173,48.875c-8.363,8.299-8.405,21.803-0.107,30.165c4.16,4.203,9.664,6.293,15.125,6.293    c5.44,0,10.88-2.048,15.04-6.187l64.427-64c4.011-4.011,6.293-9.451,6.293-15.147    C128.432,250.318,126.149,244.878,122.139,240.868z"/>
	</g>
</g>
<g>
	<g>
		<path d="M489.038,418.522c-1.088-2.621-2.646-4.968-4.63-6.952l-63.979-63.979c-8.341-8.341-21.824-8.341-30.165,0    c-8.341,8.32-8.341,21.824,0,30.165l39.104,39.104c-1.579,2.987-2.688,6.208-2.688,9.813s1.109,6.827,2.688,9.813l-39.104,39.104    c-8.341,8.32-8.341,21.824,0,30.165c4.16,4.16,9.621,6.251,15.083,6.251c5.461,0,10.923-2.091,15.083-6.251l63.979-63.979    c1.984-1.984,3.541-4.331,4.629-6.955C491.193,429.616,491.193,423.728,489.038,418.522z"/>
	</g>
</g>
<g>
	<g>
		<path d="M320.014,170.672c-47.061,0-85.333,38.272-85.333,85.333s38.272,85.333,85.333,85.333    c47.061,0,85.333-38.271,85.333-85.333C405.347,208.944,367.075,170.672,320.014,170.672z"/>
	</g>
</g>
<g>
	<g>
		<path d="M249.136,373.482c-10.112-7.957-19.179-17.216-26.944-27.456c-7.104-9.387-20.48-11.264-29.888-4.139    c-9.387,7.104-11.243,20.48-4.139,29.888c9.963,13.163,21.589,25.024,34.603,35.243c3.904,3.072,8.555,4.565,13.184,4.565    c6.293,0,12.565-2.795,16.768-8.149C259.994,394.175,258.395,380.756,249.136,373.482z"/>
	</g>
</g>
<g>
	<g>
		<path d="M359.888,405.339h-18.539c-7.445,0-14.933-0.555-22.293-1.664c-11.541-1.707-22.507,6.293-24.235,17.963    c-1.749,11.648,6.293,22.507,17.963,24.256c9.408,1.408,19.029,2.112,28.565,2.112h18.539c11.776,0,21.333-9.557,21.333-21.333    S371.664,405.339,359.888,405.339z"/>
	</g>
</g>
<g>
	<g>
		<path d="M359.533,64.001h-18.219c-9.728,0.021-19.456,0.747-28.928,2.176c-11.648,1.771-19.669,12.651-17.899,24.277    c1.58,10.582,10.689,18.155,21.057,18.155c1.067,0,2.133-0.064,3.221-0.235c7.403-1.109,14.997-1.685,22.571-1.707h18.197    c11.776,0,21.333-9.557,21.333-21.333S371.309,64.001,359.533,64.001z"/>
	</g>
</g>
<g>
	<g>
		<path d="M252.398,108.771c-7.296-9.237-20.736-10.816-29.952-3.52c-12.992,10.24-24.597,22.123-34.539,35.307    c-7.083,9.408-5.205,22.784,4.203,29.888c3.861,2.901,8.363,4.288,12.821,4.288c6.485,0,12.864-2.923,17.067-8.491    c7.723-10.261,16.768-19.52,26.88-27.499C258.137,131.448,259.694,118.029,252.398,108.771z"/>
	</g>
</g>
<g>
	<g>
		<path d="M193.243,275.286c-0.811-6.315-1.237-12.757-1.237-19.285c0-6.507,0.427-12.928,1.237-19.221    c1.493-11.691-6.784-22.379-18.475-23.851c-11.691-1.579-22.357,6.763-23.851,18.453c-1.045,8.128-1.579,16.427-1.579,24.619    c0,8.256,0.533,16.576,1.6,24.725c1.387,10.752,10.56,18.603,21.12,18.603c0.896,0,1.835-0.043,2.752-0.171    C186.501,297.665,194.757,286.977,193.243,275.286z"/>
	</g>
</g>
<g>
</g>
<g>
</g>
<g>
</g>
<g>
</g>
<g>
</g>
<g>
</g>
<g>
</g>
<g>
</g>
<g>
</g>
<g>
</g>
<g>
</g>
<g>
</g>
<g>
</g>
<g>
</g>
<g>
</g>
</svg>
