<?xml version="1.0" encoding="iso-8859-1"?>
<!-- Generator: Adobe Illustrator 19.0.0, SVG Export Plug-In . SVG Version: 6.00 Build 0)  -->
<svg xmlns="http://www.w3.org/2000/svg" xmlns:xlink="http://www.w3.org/1999/xlink" version="1.1" id="Layer_1" x="0px" y="0px" viewBox="0 0 512.005 512.005" style="enable-background:new 0 0 512.005 512.005;" xml:space="preserve">
<g>
	<g>
		<path d="M510.34,247.779c-1.088-2.581-2.645-4.928-4.608-6.869c0,0-0.021-0.021-0.021-0.043l-64.427-64    c-8.341-8.299-21.845-8.256-30.165,0.107c-8.299,8.363-8.256,21.867,0.085,30.165l27.712,27.541H339.46    c-2.645-9.685-11.349-16.512-22.037-15.68c-11.733,1.045-20.416,11.392-19.392,23.125c0.405,4.587,0.64,9.195,0.64,13.888    c0,4.629-0.235,9.216-0.661,13.739c-1.067,11.733,7.552,22.123,19.307,23.211c0.661,0.064,1.323,0.085,1.984,0.085    c9.6,0,17.6-6.613,20.16-15.701h99.456l-27.712,27.52c-8.341,8.299-8.384,21.824-0.085,30.165    c4.181,4.203,9.643,6.315,15.125,6.315c5.44,0,10.88-2.069,15.04-6.208l64.427-64v-0.021c1.984-1.963,3.541-4.309,4.629-6.891    c1.088-2.581,1.664-5.376,1.664-8.213C512.004,253.155,511.428,250.361,510.34,247.779z"/>
	</g>
</g>
<g>
	<g>
		<path d="M170.667,170.672c-47.061,0-85.333,38.272-85.333,85.333c0,47.061,38.272,85.333,85.333,85.333    c47.061,0,85.333-38.271,85.333-85.333C256,208.944,217.728,170.672,170.667,170.672z"/>
	</g>
</g>
<g>
	<g>
		<path d="M321.186,170.318c-5.269-10.539-11.541-20.651-18.645-30.059c-7.147-9.387-20.501-11.264-29.888-4.139    c-9.408,7.104-11.264,20.501-4.16,29.888c5.546,7.318,10.431,15.19,14.527,23.382c3.733,7.488,11.264,11.797,19.115,11.797    c3.2,0,6.443-0.704,9.515-2.24C322.167,193.678,326.455,180.878,321.186,170.318z"/>
	</g>
</g>
<g>
	<g>
		<path d="M250.457,92.777c-10.048-6.251-20.715-11.563-31.68-15.808c-10.923-4.288-23.339,1.173-27.605,12.16    s1.173,23.339,12.181,27.606c8.512,3.307,16.789,7.445,24.597,12.288c3.499,2.176,7.403,3.221,11.243,3.221    c7.125,0,14.101-3.584,18.133-10.091C263.534,112.148,260.483,98.985,250.457,92.777z"/>
	</g>
</g>
<g>
	<g>
		<path d="M311.707,312.901c-10.581-5.248-23.36-0.939-28.608,9.579c-4.075,8.171-8.96,16.064-14.507,23.424    c-7.104,9.408-5.227,22.805,4.203,29.888c3.819,2.88,8.341,4.288,12.8,4.288c6.485,0,12.885-2.923,17.067-8.512    c7.125-9.451,13.376-19.563,18.624-30.059C326.534,330.971,322.246,318.171,311.707,312.901z"/>
	</g>
</g>
<g>
	<g>
		<path d="M257.46,389.759c-6.231-10.005-19.393-13.056-29.377-6.848c-7.787,4.864-16.085,9.003-24.597,12.331    c-10.987,4.267-16.405,16.64-12.139,27.627c3.307,8.427,11.371,13.589,19.883,13.589c2.581,0,5.205-0.491,7.744-1.472    c10.987-4.267,21.632-9.6,31.659-15.851C260.617,412.927,263.689,399.764,257.46,389.759z"/>
	</g>
</g>
<g>
	<g>
		<path d="M149.333,405.339h-12.501L79.083,347.59c-8.341-8.341-21.824-8.341-30.165,0s-8.341,21.824,0,30.165l27.584,27.584H21.333    C9.536,405.339,0,414.896,0,426.672s9.536,21.333,21.333,21.333h55.168l-27.584,27.584c-8.341,8.341-8.341,21.824,0,30.165    c4.16,4.16,9.621,6.251,15.083,6.251c5.461,0,10.923-2.091,15.083-6.251l57.749-57.749h12.501    c11.797,0,21.333-9.557,21.333-21.333S161.13,405.339,149.333,405.339z"/>
	</g>
</g>
<g>
	<g>
		<path d="M149.333,64.006h-12.501l-57.75-57.75c-8.341-8.341-21.824-8.341-30.165,0s-8.341,21.824,0,30.165l27.584,27.584H21.333    C9.536,64.005,0,73.562,0,85.338s9.536,21.334,21.333,21.334h55.168l-27.584,27.584c-8.341,8.341-8.341,21.824,0,30.165    c4.16,4.16,9.621,6.251,15.083,6.251c5.461,0,10.923-2.091,15.083-6.251l57.749-57.749h12.501    c11.797,0,21.333-9.557,21.333-21.333S161.13,64.006,149.333,64.006z"/>
	</g>
</g>
<g>
</g>
<g>
</g>
<g>
</g>
<g>
</g>
<g>
</g>
<g>
</g>
<g>
</g>
<g>
</g>
<g>
</g>
<g>
</g>
<g>
</g>
<g>
</g>
<g>
</g>
<g>
</g>
<g>
</g>
</svg>
