<?xml version="1.0" encoding="iso-8859-1"?>
<!-- Generator: Adobe Illustrator 19.0.0, SVG Export Plug-In . SVG Version: 6.00 Build 0)  -->
<svg xmlns="http://www.w3.org/2000/svg" xmlns:xlink="http://www.w3.org/1999/xlink" version="1.1" id="Layer_1" x="0px" y="0px" viewBox="0 0 511.998 511.998" style="enable-background:new 0 0 511.998 511.998;" xml:space="preserve">
<g>
	<g>
		<path d="M510.336,279.764c-1.088-2.581-2.645-4.928-4.608-6.869c0,0-0.021-0.021-0.021-0.043l-64.427-64    c-8.341-8.299-21.845-8.256-30.165,0.107c-8.299,8.363-8.256,21.867,0.085,30.165l27.712,27.541H384V159.999    c0-11.797-9.557-21.333-21.333-21.333h-256c-11.797,0-21.333,9.536-21.333,21.333v106.667h-64C9.536,266.666,0,276.202,0,287.999    c0,11.776,9.536,21.333,21.333,21.333h85.333c11.776,0,21.333-9.557,21.333-21.333V181.332h213.333v106.667    c0,11.776,9.536,21.333,21.333,21.333h76.245l-27.712,27.52c-8.341,8.299-8.384,21.824-0.085,30.165    c4.181,4.203,9.643,6.315,15.125,6.315c5.44,0,10.88-2.069,15.04-6.208l64.427-64v-0.021c1.984-1.963,3.541-4.309,4.629-6.891    c1.088-2.581,1.664-5.376,1.664-8.213C512,285.14,511.424,282.346,510.336,279.764z"/>
	</g>
</g>
<g>
	<g>
		<path d="M298.662,202.657h-128c-11.797,0-21.333,9.557-21.333,21.333v128c0,11.776,9.536,21.333,21.333,21.333h128    c11.797,0,21.333-9.557,21.333-21.333v-128C319.996,212.214,310.46,202.657,298.662,202.657z"/>
	</g>
</g>
<g>
</g>
<g>
</g>
<g>
</g>
<g>
</g>
<g>
</g>
<g>
</g>
<g>
</g>
<g>
</g>
<g>
</g>
<g>
</g>
<g>
</g>
<g>
</g>
<g>
</g>
<g>
</g>
<g>
</g>
</svg>
