<?xml version="1.0" encoding="iso-8859-1"?>
<!-- Generator: Adobe Illustrator 19.0.0, SVG Export Plug-In . SVG Version: 6.00 Build 0)  -->
<svg xmlns="http://www.w3.org/2000/svg" xmlns:xlink="http://www.w3.org/1999/xlink" version="1.1" id="Layer_1" x="0px" y="0px" viewBox="0 0 512.008 512.008" style="enable-background:new 0 0 512.008 512.008;" xml:space="preserve">
<g>
	<g>
		<path d="M505.749,335.091l-63.978,63.979c-1.963,1.984-4.331,3.541-6.955,4.629c-2.603,1.067-5.376,1.643-8.149,1.643    c-2.773,0-5.547-0.576-8.149-1.643c-2.603-1.088-4.971-2.645-6.933-4.629l-64-63.979c-8.32-8.341-8.32-21.845,0-30.165    c8.341-8.341,21.845-8.341,30.165,0l27.584,27.584V128.009c0-35.307-28.693-64-64-64c-35.285,0-64,28.693-64,64v256    c0,58.795-47.851,106.667-106.667,106.667S64,442.803,64,384.009V179.507l-27.584,27.584c-8.32,8.32-21.824,8.32-30.165,0    C2.091,202.91,0,197.448,0,192.008v320h512v-192C512,325.448,509.931,330.909,505.749,335.091z"/>
	</g>
</g>
<g>
	<g>
		<path d="M0.006,0v192c0-5.461,2.091-10.923,6.251-15.083l63.979-63.979c1.984-1.984,4.331-3.541,6.955-4.629    c5.205-2.155,11.093-2.155,16.299,0c2.624,1.088,4.971,2.645,6.955,4.629l63.979,63.979c8.341,8.341,8.341,21.824,0,30.165    c-4.16,4.16-9.621,6.251-15.083,6.251c-5.461,0-10.923-2.091-15.083-6.251l-27.584-27.584V384c0,35.285,28.715,64,64,64    c35.285,0,64-28.715,64-64V128c0-58.816,47.851-106.667,106.667-106.667c58.816,0,106.667,47.851,106.667,106.667v204.501    l27.584-27.584c8.341-8.341,21.824-8.341,30.165,0c4.16,4.16,6.251,9.621,6.251,15.083V0H0.006z"/>
	</g>
</g>
<g>
</g>
<g>
</g>
<g>
</g>
<g>
</g>
<g>
</g>
<g>
</g>
<g>
</g>
<g>
</g>
<g>
</g>
<g>
</g>
<g>
</g>
<g>
</g>
<g>
</g>
<g>
</g>
<g>
</g>
</svg>
