<?xml version="1.0" encoding="iso-8859-1"?>
<!-- Generator: Adobe Illustrator 19.0.0, SVG Export Plug-In . SVG Version: 6.00 Build 0)  -->
<svg xmlns="http://www.w3.org/2000/svg" xmlns:xlink="http://www.w3.org/1999/xlink" version="1.1" id="Capa_1" x="0px" y="0px" viewBox="0 0 512 512" style="enable-background:new 0 0 512 512;" xml:space="preserve">
<g>
	<g>
		<path d="M256,91c-90.981,0-165,74.019-165,165s74.019,165,165,165s165-74.019,165-165S346.981,91,256,91z M256,121    c8.284,0,15,6.714,15,15c0,8.284-6.716,15-15,15s-15-6.716-15-15C241,127.714,247.716,121,256,121z M160.54,160.54    c5.859-5.858,15.355-5.858,21.215,0c5.858,5.858,5.858,15.355,0,21.213c-5.859,5.859-15.355,5.859-21.215,0    C154.682,175.895,154.682,166.397,160.54,160.54z M136,271c-8.284,0-15-6.716-15-15c0-8.286,6.716-15,15-15s15,6.714,15,15    C151,264.284,144.284,271,136,271z M181.754,351.458c-5.859,5.858-15.355,5.858-21.215,0c-5.858-5.858-5.858-15.355,0-21.213    c5.859-5.858,15.355-5.858,21.215,0C187.612,336.103,187.612,345.601,181.754,351.458z M256,391c-8.284,0-15-6.716-15-15    c0-8.286,6.716-15,15-15s15,6.714,15,15C271,384.284,264.284,391,256,391z M256,331c-41.353,0-75-33.647-75-75    c0-41.353,33.647-75,75-75c41.353,0,75,33.647,75,75C331,297.353,297.353,331,256,331z M351.46,351.458    c-5.859,5.858-15.355,5.858-21.215,0c-5.858-5.858-5.858-15.355,0-21.213c5.859-5.858,15.355-5.858,21.215,0    C357.318,336.103,357.318,345.601,351.46,351.458z M351.46,181.753c-5.859,5.859-15.355,5.859-21.215,0    c-5.858-5.858-5.858-15.355,0-21.213c5.859-5.858,15.355-5.858,21.215,0C357.318,166.397,357.318,175.895,351.46,181.753z     M376,271c-8.284,0-15-6.716-15-15c0-8.286,6.716-15,15-15s15,6.714,15,15C391,264.284,384.284,271,376,271z"/>
	</g>
</g>
<g>
	<g>
		<path d="M256,211c-24.814,0-45,20.186-45,45c0,24.814,20.186,45,45,45c24.814,0,45-20.186,45-45C301,231.186,280.814,211,256,211z    "/>
	</g>
</g>
<g>
	<g>
		<path d="M256,0C115.39,0,0,115.39,0,256s115.39,256,256,256s256-115.39,256-256S396.61,0,256,0z M256,451    c-107.52,0-195-87.48-195-195S148.48,61,256,61s195,87.48,195,195S363.52,451,256,451z"/>
	</g>
</g>
<g>
</g>
<g>
</g>
<g>
</g>
<g>
</g>
<g>
</g>
<g>
</g>
<g>
</g>
<g>
</g>
<g>
</g>
<g>
</g>
<g>
</g>
<g>
</g>
<g>
</g>
<g>
</g>
<g>
</g>
</svg>
