<?xml version="1.0" encoding="iso-8859-1"?>
<!-- Generator: Adobe Illustrator 19.0.0, SVG Export Plug-In . SVG Version: 6.00 Build 0)  -->
<svg xmlns="http://www.w3.org/2000/svg" xmlns:xlink="http://www.w3.org/1999/xlink" version="1.1" id="Capa_1" x="0px" y="0px" viewBox="0 0 511.999 511.999" style="enable-background:new 0 0 511.999 511.999;" xml:space="preserve">
<g>
	<g>
		<path d="M391.787,56.06c-38.172-37.045-88.914-57.688-141.778-55.96C145.788,3.234,61.005,96.053,61.005,204.551v69.212    c0,32.328,20.61,60.921,51.283,71.145l38.715,12.905v19.189c0,24.813,20.186,44.999,44.999,44.999h15v-74.998    c0-8.291,6.709-15,15-15c8.291,0,15,6.709,15,15v74.998h29.999v-74.998c0-8.291,6.709-15,15-15s15,6.709,15,15v74.998h15    c24.813,0,44.999-20.185,44.999-44.999v-19.189l38.715-12.905c30.673-10.225,51.283-38.817,51.283-71.145v-76.756    C450.995,143.821,429.96,93.119,391.787,56.06z M181.002,242.006c-33.09,0-59.998-26.908-59.998-59.998    c0-33.09,26.908-59.998,59.998-59.998S241,148.918,241,182.008C241,215.098,214.092,242.006,181.002,242.006z M296.605,297.61    c-5.859,5.859-15.352,5.859-21.211,0L256,278.216l-19.395,19.394c-5.859,5.859-15.352,5.859-21.21,0    c-5.859-5.859-5.859-15.352,0-21.21l29.999-29.999c5.86-5.859,15.352-5.859,21.211,0l29.999,29.999    C302.464,282.258,302.464,291.751,296.605,297.61z M330.998,242.006c-33.09,0-59.998-26.908-59.998-59.998    c0-33.09,26.908-59.998,59.998-59.998s59.998,26.908,59.998,59.998C390.996,215.098,364.088,242.006,330.998,242.006z"/>
	</g>
</g>
<g>
	<g>
		<path d="M390.952,379.449c-1.289,40.224-34.423,72.552-74.954,72.552H196.001c-40.531,0-73.665-32.328-74.954-72.552    c-12.673-4.221-19.958-6.288-30.043-11.078v8.632C91.004,451.444,151.559,512,226.001,512h59.999    c74.442,0,134.997-60.555,134.997-134.997v-8.632C410.911,373.161,403.625,375.228,390.952,379.449z"/>
	</g>
</g>
<g>
</g>
<g>
</g>
<g>
</g>
<g>
</g>
<g>
</g>
<g>
</g>
<g>
</g>
<g>
</g>
<g>
</g>
<g>
</g>
<g>
</g>
<g>
</g>
<g>
</g>
<g>
</g>
<g>
</g>
</svg>
