<?xml version="1.0" encoding="iso-8859-1"?>
<!-- Generator: Adobe Illustrator 19.0.0, SVG Export Plug-In . SVG Version: 6.00 Build 0)  -->
<svg xmlns="http://www.w3.org/2000/svg" xmlns:xlink="http://www.w3.org/1999/xlink" version="1.1" id="Capa_1" x="0px" y="0px" viewBox="0 0 512 512" style="enable-background:new 0 0 512 512;" xml:space="preserve">
<g>
	<g>
		<path d="M467,31H45C20.186,31,0,51.185,0,76v30c0,24.814,20.186,45,45,45h422c24.814,0,45-20.186,45-45V76    C512,51.185,491.814,31,467,31z"/>
	</g>
</g>
<g>
	<g>
		<path d="M475.335,398.529l-20.713-206.997c-0.377-3.783-1.849-7.104-3.076-10.532H301.452c-1.225,3.422-2.699,6.74-3.074,10.518    l-20.713,207.012c-4.4,44.218,30.39,82.471,74.634,82.471h48.402V481C444.958,481,479.735,442.735,475.335,398.529z"/>
	</g>
</g>
<g>
	<g>
		<path d="M234.335,398.529l-20.713-206.997c-0.377-3.783-1.849-7.104-3.076-10.532H60.452c-1.225,3.422-2.699,6.74-3.074,10.518    L36.665,398.529C32.265,442.747,67.055,481,111.299,481h48.402C203.958,481,238.735,442.735,234.335,398.529z"/>
	</g>
</g>
<g>
</g>
<g>
</g>
<g>
</g>
<g>
</g>
<g>
</g>
<g>
</g>
<g>
</g>
<g>
</g>
<g>
</g>
<g>
</g>
<g>
</g>
<g>
</g>
<g>
</g>
<g>
</g>
<g>
</g>
</svg>
