<?xml version="1.0" encoding="iso-8859-1"?>
<!-- Generator: Adobe Illustrator 19.0.0, SVG Export Plug-In . SVG Version: 6.00 Build 0)  -->
<svg xmlns="http://www.w3.org/2000/svg" xmlns:xlink="http://www.w3.org/1999/xlink" version="1.1" id="Capa_1" x="0px" y="0px" viewBox="0 0 512 512" style="enable-background:new 0 0 512 512;" xml:space="preserve">
<g>
	<g>
		<path d="M184.107,425.387l-55.604-55.604V119.998h15c10.257,0,17.482-10.065,14.224-19.746l-29.999-89.998    c-4.072-12.246-24.375-12.246-28.446,0l-29.999,89.998c-3.259,9.681,3.966,19.746,14.223,19.746h15v249.784L42.9,425.386    c-2.813,2.813-4.395,6.621-4.395,10.605v60.999c0,11.039,11.598,18.41,21.709,13.419l38.29-19.146v5.728c0,8.291,6.709,15,15,15    s15-6.709,15-15v-5.728l38.29,19.146c10.034,4.982,21.709-2.353,21.709-13.418v-60.999    C188.502,432.008,186.92,428.199,184.107,425.387z"/>
	</g>
</g>
<g>
	<g>
		<path d="M444.753,137.795l-48.98,36.735c4.144,9.593,7.548,19.384,10.258,29.375l58.4-14.599    C459.605,171.47,453.103,154.154,444.753,137.795z"/>
	</g>
</g>
<g>
	<g>
		<path d="M406.03,307.079c-2.71,9.992-6.114,19.779-10.259,29.371l48.983,36.739c8.35-16.359,14.854-33.67,19.678-51.507    L406.03,307.079z"/>
	</g>
</g>
<g>
	<g>
		<path d="M470.509,218.694l-58.761,14.691c0.85,7.223,1.749,15.459,1.749,22.611s-0.899,14.385-1.749,21.606l58.761,14.692    c1.774-11.977,2.986-24.066,2.986-36.298C473.495,243.762,472.283,230.672,470.509,218.694z"/>
	</g>
</g>
<g>
	<g>
		<path d="M233.501,0c0,30.937,21.138,58.197,52.616,67.836c39.918,12.217,73.078,42.45,95.693,79.682l47.61-35.706    C385.92,45.947,314.395,0,233.501,0z"/>
	</g>
</g>
<g>
	<g>
		<path d="M381.807,363.463c-22.615,37.228-55.775,68.461-95.691,80.676c-31.464,9.653-52.616,36.913-52.616,67.851    c80.897,0,152.426-46.949,195.923-112.815L381.807,363.463z"/>
	</g>
</g>
<g>
	<g>
		<path d="M277.343,96.516c-10.529-3.223-20.165-7.967-28.842-13.793v345.534c8.668-5.825,18.294-10.571,28.812-13.799    c0.406-0.125,0.782-0.375,1.187-0.505V97.009C278.104,96.883,277.738,96.637,277.343,96.516z"/>
	</g>
</g>
<g>
</g>
<g>
</g>
<g>
</g>
<g>
</g>
<g>
</g>
<g>
</g>
<g>
</g>
<g>
</g>
<g>
</g>
<g>
</g>
<g>
</g>
<g>
</g>
<g>
</g>
<g>
</g>
<g>
</g>
</svg>
