<?xml version="1.0" encoding="iso-8859-1"?>
<!-- Generator: Adobe Illustrator 19.0.0, SVG Export Plug-In . SVG Version: 6.00 Build 0)  -->
<svg xmlns="http://www.w3.org/2000/svg" xmlns:xlink="http://www.w3.org/1999/xlink" version="1.1" id="Capa_1" x="0px" y="0px" viewBox="0 0 512 512" style="enable-background:new 0 0 512 512;" xml:space="preserve">
<g>
	<g>
		<path d="M437,316c-29.742,0-55.274,17.538-67.392,42.698l-245.521-60.877C104.019,292.797,90,274.838,90,254.154V91    c0-24.814-20.186-45-45-45H15C6.709,46,0,52.709,0,61s6.709,15,15,15h30c8.276,0,15,6.724,15,15v163.154    c0,34.482,23.364,64.409,56.821,72.759l3.179,0.795v54.049c0,39.584,47.12,59.725,75.776,32.827l57.202-53.633l109.347,26.836    C362.278,388.876,362,389.9,362,391c0,41.353,33.647,75,75,75c41.353,0,75-33.647,75-75C512,349.647,478.353,316,437,316z     M175.269,392.699c-9.56,8.952-25.269,2.208-25.269-10.942v-46.549l68.359,17.089L175.269,392.699z"/>
	</g>
</g>
<g>
	<g>
		<path d="M467,166H135c-8.291,0-15,6.709-15,15v73.154c0,6.899,4.673,12.891,11.367,14.561l225.206,55.8l121.516-133.407    C486.845,181.483,480.011,166,467,166z"/>
	</g>
</g>
<g>
	<g>
		<path d="M357.752,70.521c-28.418-31.552-85.086-31.552-113.504,0L185.321,136h231.358L357.752,70.521z"/>
	</g>
</g>
<g>
</g>
<g>
</g>
<g>
</g>
<g>
</g>
<g>
</g>
<g>
</g>
<g>
</g>
<g>
</g>
<g>
</g>
<g>
</g>
<g>
</g>
<g>
</g>
<g>
</g>
<g>
</g>
<g>
</g>
</svg>
