<?xml version="1.0" encoding="iso-8859-1"?>
<!-- Generator: Adobe Illustrator 19.0.0, SVG Export Plug-In . SVG Version: 6.00 Build 0)  -->
<svg xmlns="http://www.w3.org/2000/svg" xmlns:xlink="http://www.w3.org/1999/xlink" version="1.1" id="Capa_1" x="0px" y="0px" viewBox="0 0 511.999 511.999" style="enable-background:new 0 0 511.999 511.999;" xml:space="preserve">
<g>
	<g>
		<path d="M507.361,94.21L417.801,4.649c-6.184-6.185-16.203-6.185-22.387,0l-22.386,22.387c-18.522,18.522-18.522,48.654,0,67.174    l44.773,44.773c18.522,18.522,48.654,18.522,67.174,0l22.386-22.387C513.545,110.413,513.545,100.393,507.361,94.21z"/>
	</g>
</g>
<g>
	<g>
		<path d="M216.307,250.93l-84.923,84.923c-20.408,20.423-31.663,47.556-31.663,76.436c28.879,0,56.012-11.239,76.436-31.663    l84.923-84.923L216.307,250.93z"/>
	</g>
</g>
<g>
	<g>
		<path d="M294.659,374.071l-33.583-33.591l-62.542,62.541c-26.207,26.207-61.75,40.931-98.813,40.931    c-17.487,0-31.663-14.177-31.663-31.663v-0.029c0-37.055,14.72-72.592,40.923-98.793l62.542-62.539l-33.586-33.578    c-6.183-6.183-16.206-6.183-22.389,0l-74.851,74.851C-17.535,350.436-8.354,429.285,37.2,474.81    c46.071,46.101,124.948,54.159,182.605-3.498l74.852-74.855C300.84,390.275,300.841,380.254,294.659,374.071z"/>
	</g>
</g>
<g>
	<g>
		
			<rect x="237.907" y="163.297" transform="matrix(0.7071 -0.7071 0.7071 0.7071 -44.9894 281.2985)" width="158.311" height="63.318"/>
	</g>
</g>
<g>
</g>
<g>
</g>
<g>
</g>
<g>
</g>
<g>
</g>
<g>
</g>
<g>
</g>
<g>
</g>
<g>
</g>
<g>
</g>
<g>
</g>
<g>
</g>
<g>
</g>
<g>
</g>
<g>
</g>
</svg>
