<?xml version="1.0" encoding="iso-8859-1"?>
<!-- Generator: Adobe Illustrator 19.0.0, SVG Export Plug-In . SVG Version: 6.00 Build 0)  -->
<svg xmlns="http://www.w3.org/2000/svg" xmlns:xlink="http://www.w3.org/1999/xlink" version="1.1" id="Capa_1" x="0px" y="0px" viewBox="0 0 512 512" style="enable-background:new 0 0 512 512;" xml:space="preserve">
<g>
	<g>
		<path d="M226,256c-8.276,0-15,6.724-15,15v45h30v-45C241,262.724,234.276,256,226,256z"/>
	</g>
</g>
<g>
	<g>
		<path d="M106,256c-8.276,0-15,6.724-15,15v45h30v-45C121,262.724,114.276,256,106,256z"/>
	</g>
</g>
<g>
	<g>
		<path d="M353.321,316l-39.342-92.593c-7.09-16.655-23.35-27.407-41.426-27.407H0v120h61v-45c0-24.814,20.186-45,45-45    c24.814,0,45,20.186,45,45v45h30v-45c0-24.814,20.186-45,45-45c24.814,0,45,20.186,45,45v45H353.321z"/>
	</g>
</g>
<g>
	<g>
		<path d="M437,256c-8.276,0-15,6.724-15,15v45h30v-45C452,262.724,445.276,256,437,256z"/>
	</g>
</g>
<g>
	<g>
		<path d="M467,166H272.553c30.132,0,57.231,17.93,69.023,45.659l41.459,95.2c1.668,3.928,5.098,6.299,8.965,7.685V271    c0-24.814,20.186-45,45-45c24.814,0,45,20.186,45,45v45h30V211C512,186.186,491.814,166,467,166z"/>
	</g>
</g>
<g>
	<g>
		<path d="M106,106c-8.276,0-15,6.724-15,15v45h30v-45C121,112.724,114.276,106,106,106z"/>
	</g>
</g>
<g>
	<g>
		<path d="M437,406c-8.276,0-15,6.724-15,15v75h30v-75C452,412.724,445.276,406,437,406z"/>
	</g>
</g>
<g>
	<g>
		<path d="M316,406c-8.276,0-15,6.724-15,15v75h30v-75C331,412.724,324.276,406,316,406z"/>
	</g>
</g>
<g>
	<g>
		<path d="M0,346v135c0,8.291,6.709,15,15,15h15v-75c0-24.814,21.186-45,46-45s45,20.186,45,45v75h30v-75c0-24.814,20.186-45,45-45    c24.814,0,45,20.186,45,45v75h30v-75c0-24.814,20.186-45,45-45c24.814,0,45,20.186,45,45v75h31v-75c0-24.814,20.186-45,45-45    c24.814,0,45,20.186,45,45v75h15c8.291,0,15-6.709,15-15V346H0z"/>
	</g>
</g>
<g>
	<g>
		<path d="M246.317,166c-6.167,0-11.646-3.706-13.931-9.419l-37.368-93.428C183.563,34.501,156.229,16,125.38,16H15    C6.709,16,0,22.709,0,31v135h61v-45c0-24.814,20.186-45,45-45c24.814,0,45,20.186,45,45v45H246.317z"/>
	</g>
</g>
<g>
	<g>
		<path d="M76,406c-8.276,0-15,6.724-15,15v75h30v-75C91,412.724,84.276,406,76,406z"/>
	</g>
</g>
<g>
	<g>
		<path d="M196,406c-8.276,0-15,6.724-15,15v75h30v-75C211,412.724,204.276,406,196,406z"/>
	</g>
</g>
<g>
</g>
<g>
</g>
<g>
</g>
<g>
</g>
<g>
</g>
<g>
</g>
<g>
</g>
<g>
</g>
<g>
</g>
<g>
</g>
<g>
</g>
<g>
</g>
<g>
</g>
<g>
</g>
<g>
</g>
</svg>
