<?xml version="1.0" encoding="iso-8859-1"?>
<!-- Generator: Adobe Illustrator 19.0.0, SVG Export Plug-In . SVG Version: 6.00 Build 0)  -->
<svg xmlns="http://www.w3.org/2000/svg" xmlns:xlink="http://www.w3.org/1999/xlink" version="1.1" id="Capa_1" x="0px" y="0px" viewBox="0 0 512 512" style="enable-background:new 0 0 512 512;" xml:space="preserve">
<g>
	<g>
		<path d="M380.515,170.941L181.839,71.599c-0.414,3.48-0.865,6.952-0.865,10.555v10.901c0,11.42-3.557,21.822-9.324,29.923    l128.957,64.476c0.011,0.005,0.022,0.009,0.031,0.015l81.542,40.769l3.365-26.088    C386.492,190.901,384.292,181.096,380.515,170.941z"/>
	</g>
</g>
<g>
	<g>
		<path d="M147.878,144.645c-15.112,15.401-23.284,36.569-21.366,59.253l4.026,29.998l122.405-36.72L147.878,144.645z"/>
	</g>
</g>
<g>
	<g>
		<path d="M155.45,347.942c-0.081-0.02-0.137-0.081-0.218-0.103l-9.042,2.713l7.526,56.094l198.018,48.692l7.676-57.251    L155.45,347.942z"/>
	</g>
</g>
<g>
	<g>
		<polygon points="292.11,216.759 134.578,264.014 142.148,320.432 365.479,253.442   "/>
	</g>
</g>
<g>
	<g>
		<polygon points="211.73,330.892 363.419,368.185 374.985,281.922   "/>
	</g>
</g>
<g>
	<g>
		<path d="M158.003,438.594l4.612,34.373C165.589,495.224,184.768,512,207.23,512h97.524c18.207,0,33.763-11.266,40.775-27.295    L158.003,438.594z"/>
	</g>
</g>
<g>
	<g>
		<path d="M331.01,93.056V76.894c0-22.036-9.64-43.872-26.431-58.157C287.786,4.45,265.487-2.616,243.494,0.886    c-23.132,3.771-42.124,20.792-52.898,41.539l145.049,72.528C332.759,108.381,331.01,100.959,331.01,93.056z"/>
	</g>
</g>
<g>
</g>
<g>
</g>
<g>
</g>
<g>
</g>
<g>
</g>
<g>
</g>
<g>
</g>
<g>
</g>
<g>
</g>
<g>
</g>
<g>
</g>
<g>
</g>
<g>
</g>
<g>
</g>
<g>
</g>
</svg>
