<?xml version="1.0" encoding="iso-8859-1"?>
<!-- Generator: Adobe Illustrator 19.0.0, SVG Export Plug-In . SVG Version: 6.00 Build 0)  -->
<svg xmlns="http://www.w3.org/2000/svg" xmlns:xlink="http://www.w3.org/1999/xlink" version="1.1" id="Capa_1" x="0px" y="0px" viewBox="0 0 512 512" style="enable-background:new 0 0 512 512;" xml:space="preserve">
<g>
	<g>
		<polygon points="183.704,271 27.296,271 2.294,422 208.706,422   "/>
	</g>
</g>
<g>
	<g>
		<path d="M0,452v45c0,8.291,6.709,15,15,15h181c8.291,0,15-6.709,15-15v-45H0z"/>
	</g>
</g>
<g>
	<g>
		<polygon points="484.704,271 328.296,271 303.294,422 509.706,422   "/>
	</g>
</g>
<g>
	<g>
		<path d="M301,452v45c0,8.291,6.709,15,15,15h181c8.291,0,15-6.709,15-15v-45H301z"/>
	</g>
</g>
<g>
	<g>
		<path d="M166,0H45C20.186,0,0,20.186,0,45c0,19.53,12.578,36.024,30,42.237V120h151V87.237C198.422,81.024,211,64.53,211,45    C211,20.186,190.814,0,166,0z"/>
	</g>
</g>
<g>
	<g>
		<path d="M467,0H346c-24.814,0-45,20.186-45,45c0,19.53,12.578,36.024,30,42.237V120h151V87.237C499.422,81.024,512,64.53,512,45    C512,20.186,491.814,0,467,0z"/>
	</g>
</g>
<g>
	<g>
		<path d="M482,150H301v91h181c16.569,0,30-13.431,30-30v-31C512,163.431,498.569,150,482,150z"/>
	</g>
</g>
<g>
	<g>
		<path d="M30,150c-16.569,0-30,13.431-30,30v31c0,16.569,13.431,30,30,30h181v-91H30z"/>
	</g>
</g>
<g>
	<g>
		<path d="M256,120c-8.284,0-15,6.716-15,15v121c0,8.284,6.716,15,15,15s15-6.716,15-15V135C271,126.716,264.284,120,256,120z"/>
	</g>
</g>
<g>
</g>
<g>
</g>
<g>
</g>
<g>
</g>
<g>
</g>
<g>
</g>
<g>
</g>
<g>
</g>
<g>
</g>
<g>
</g>
<g>
</g>
<g>
</g>
<g>
</g>
<g>
</g>
<g>
</g>
</svg>
