<?xml version="1.0" encoding="iso-8859-1"?>
<!-- Generator: Adobe Illustrator 19.0.0, SVG Export Plug-In . SVG Version: 6.00 Build 0)  -->
<svg xmlns="http://www.w3.org/2000/svg" xmlns:xlink="http://www.w3.org/1999/xlink" version="1.1" id="Capa_1" x="0px" y="0px" viewBox="0 0 512 512" style="enable-background:new 0 0 512 512;" xml:space="preserve">
<g>
	<g>
		<path d="M181,316v-7.853c-8.48-5.689-16.062-12.495-23.036-19.905L151,291.724V512h90V389.482    C206.809,382.513,181,352.216,181,316z"/>
	</g>
</g>
<g>
	<g>
		<path d="M316,421h45V291.724l-6.964-3.483c-6.974,7.41-14.556,14.217-23.036,19.906V316c0,36.216-25.809,66.513-60,73.482V512h90    v-61h-45c-8.291,0-15-6.709-15-15C301,427.709,307.709,421,316,421z"/>
	</g>
</g>
<g>
	<g>
		<path d="M256,331c-15.599,0-30.352-3.188-44.301-8.075C215.061,344.44,233.557,361,256,361s40.939-16.56,44.301-38.075    C286.352,327.812,271.599,331,256,331z"/>
	</g>
</g>
<g>
	<g>
		<path d="M89.037,322.709C53.236,340.624,31,376.601,31,416.62V467c0,24.814,20.186,45,45,45h45V306.726L89.037,322.709z"/>
	</g>
</g>
<g>
	<g>
		<path d="M422.963,322.709L391,306.726V512h45c24.814,0,45-20.186,45-45v-50.38C481,376.601,458.764,340.624,422.963,322.709z"/>
	</g>
</g>
<g>
	<g>
		<path d="M376,151H136c-24.853,0-45,20.147-45,45c0,8.284,6.716,15,15,15h46.516c7.357,50.75,50.729,90,103.484,90    s96.127-39.25,103.484-90H406c8.284,0,15-6.716,15-15C421,171.147,400.853,151,376,151z M256,271    c-36.216,0-66.513-25.909-73.482-60.1h146.964C322.513,245.091,292.216,271,256,271z"/>
	</g>
</g>
<g>
	<g>
		<path d="M256,0c-57.891,0-105,48.109-105,106v15h210v-15C361,48.109,313.891,0,256,0z"/>
	</g>
</g>
<g>
</g>
<g>
</g>
<g>
</g>
<g>
</g>
<g>
</g>
<g>
</g>
<g>
</g>
<g>
</g>
<g>
</g>
<g>
</g>
<g>
</g>
<g>
</g>
<g>
</g>
<g>
</g>
<g>
</g>
</svg>
