<?xml version="1.0" encoding="iso-8859-1"?>
<!-- Generator: Adobe Illustrator 19.0.0, SVG Export Plug-In . SVG Version: 6.00 Build 0)  -->
<svg xmlns="http://www.w3.org/2000/svg" xmlns:xlink="http://www.w3.org/1999/xlink" version="1.1" id="Capa_1" x="0px" y="0px" viewBox="0 0 512 512" style="enable-background:new 0 0 512 512;" xml:space="preserve">
<g>
	<g>
		<path d="M301,60c-16.569,0-30,13.431-30,30V60c0-16.569-13.431-30-30-30c-16.569,0-30,13.431-30,30V30c0-16.569-13.431-30-30-30    c-16.569,0-30,13.431-30,30v30c0-16.569-13.431-30-30-30c-16.569,0-30,13.431-30,30v120c0-16.569-13.431-30-30-30    c-16.569,0-30,13.431-30,30c0,52.793,0,37.625,0,90.414V271c0,0.156,0.088,0.284,0.09,0.439    c0.236,23.749,8.522,46.923,23.568,65.347L91,381.347V437c0,8.291,6.709,15,15,15h180c8.291,0,15-6.709,15-15v-59.154    l29.546-118.213C330.854,258.446,331,257.23,331,256c0-92.871,0-72.885,0-166C331,73.431,317.569,60,301,60z"/>
	</g>
</g>
<g>
	<g>
		<path d="M451,120c-16.569,0-30,13.431-30,30v-30c0-16.569-13.431-30-30-30c-16.569,0-30,13.431-30,30v136    c0,3.794-0.483,7.544-1.421,11.162L331,381.537V437c0,24.814-20.186,45-45,45h-45v15c0,8.291,6.709,15,15,15h180    c8.291,0,15-6.709,15-15v-58.154l29.546-119.213C480.854,318.446,481,317.23,481,316c0-92.871,0-72.885,0-166    C481,133.431,467.569,120,451,120z"/>
	</g>
</g>
<g>
</g>
<g>
</g>
<g>
</g>
<g>
</g>
<g>
</g>
<g>
</g>
<g>
</g>
<g>
</g>
<g>
</g>
<g>
</g>
<g>
</g>
<g>
</g>
<g>
</g>
<g>
</g>
<g>
</g>
</svg>
