<?xml version="1.0" encoding="iso-8859-1"?>
<!-- Generator: Adobe Illustrator 19.0.0, SVG Export Plug-In . SVG Version: 6.00 Build 0)  -->
<svg xmlns="http://www.w3.org/2000/svg" xmlns:xlink="http://www.w3.org/1999/xlink" version="1.1" id="Capa_1" x="0px" y="0px" viewBox="0 0 512 512" style="enable-background:new 0 0 512 512;" xml:space="preserve">
<g>
	<g>
		<path d="M368,320c-8.828,0-16,7.172-16,16c0,8.828,7.172,16,16,16c8.828,0,16-7.172,16-16C384,327.172,376.828,320,368,320z"/>
	</g>
</g>
<g>
	<g>
		<path d="M368,192c-79.406,0-144,64.594-144,144s64.594,144,144,144s144-64.594,144-144S447.406,192,368,192z M384.922,240.141    c2.954-8.359,12.094-12.672,20.422-9.734c31.547,11.187,57.062,36.703,68.25,68.25c2.954,8.329-1.406,17.469-9.734,20.422    c-8.33,2.947-17.467-1.406-20.422-9.734c-8-22.547-26.235-40.781-48.781-48.781C386.328,257.61,381.968,248.469,384.922,240.141z     M262.406,298.656c11.187-31.547,36.703-57.062,68.25-68.25c8.235-2.922,17.469,1.375,20.422,9.734    c2.954,8.329-1.406,17.469-9.734,20.422c-22.547,8-40.781,26.235-48.781,48.781c-2.955,8.329-12.092,12.682-20.422,9.734    C263.812,316.125,259.453,306.985,262.406,298.656z M351.078,431.859c-2.955,8.329-12.092,12.682-20.422,9.734    c-31.547-11.187-57.062-36.703-68.25-68.25c-2.954-8.329,1.406-17.469,9.734-20.422c8.235-2.969,17.469,1.391,20.422,9.734    c8,22.547,26.235,40.781,48.781,48.781C349.671,414.39,354.031,423.532,351.078,431.859z M320,336c0-26.468,21.532-48,48-48    s48,21.532,48,48s-21.532,48-48,48S320,362.468,320,336z M473.594,373.344c-11.187,31.547-36.703,57.062-68.25,68.25    c-8.33,2.947-17.467-1.406-20.422-9.734c-2.954-8.329,1.406-17.469,9.734-20.422c22.547-8,40.781-26.235,48.781-48.781    c2.954-8.359,12.094-12.734,20.422-9.734C472.188,355.875,476.547,365.016,473.594,373.344z"/>
	</g>
</g>
<g>
	<g>
		<path d="M176,0C91.234,0,0,20.031,0,64s91.234,64,176,64s176-20.031,176-64S260.766,0,176,0z"/>
	</g>
</g>
<g>
	<g>
		<path d="M176,160C91.234,160,0,139.969,0,96v64c0,43.969,91.234,64,176,64c19.889,0,40.098-1.149,59.436-3.405    c28.971-33.234,70.096-55.547,116.457-59.779C351.9,160.537,352,160.281,352,160V96C352,139.969,260.766,160,176,160z"/>
	</g>
</g>
<g>
	<g>
		<path d="M176,256C91.234,256,0,235.969,0,192v64c0,43.969,91.234,64,176,64c5.589,0,11.207-0.099,16.825-0.275    c2.146-23.269,8.865-45.207,19.211-64.982C200.073,255.553,187.981,256,176,256z"/>
	</g>
</g>
<g>
	<g>
		<path d="M192.797,351.726C187.187,351.901,181.58,352,176,352C91.234,352,0,331.969,0,288v64c0,43.969,91.234,64,176,64    c11.588,0,23.283-0.412,34.863-1.17C201.138,395.525,194.804,374.263,192.797,351.726z"/>
	</g>
</g>
<g>
	<g>
		<path d="M230.199,445.163C212.459,447.027,194.103,448,176,448C91.234,448,0,427.969,0,384v64c0,43.969,91.234,64,176,64    c42.468,0,86.553-5.034,119.981-15.58C270.139,484.772,247.623,467.112,230.199,445.163z"/>
	</g>
</g>
<g>
</g>
<g>
</g>
<g>
</g>
<g>
</g>
<g>
</g>
<g>
</g>
<g>
</g>
<g>
</g>
<g>
</g>
<g>
</g>
<g>
</g>
<g>
</g>
<g>
</g>
<g>
</g>
<g>
</g>
</svg>
