<?xml version="1.0" encoding="iso-8859-1"?>
<!-- Generator: Adobe Illustrator 19.0.0, SVG Export Plug-In . SVG Version: 6.00 Build 0)  -->
<svg xmlns="http://www.w3.org/2000/svg" xmlns:xlink="http://www.w3.org/1999/xlink" version="1.1" id="Capa_1" x="0px" y="0px" viewBox="0 0 512 512" style="enable-background:new 0 0 512 512;" xml:space="preserve">
<g>
	<g>
		<path d="M464.363,47.637c-5.96-5.96-15.616-5.96-21.576,0l-21.576,21.576c-5.96,5.96-5.96,15.616,0,21.576    c5.96,5.96,15.616,5.96,21.576,0l21.576-21.576C470.323,63.253,470.323,53.596,464.363,47.637z"/>
	</g>
</g>
<g>
	<g>
		<path d="M496.742,129.541h-43.167c-8.434,0-15.258,6.824-15.258,15.258s6.824,15.258,15.258,15.258h43.167    c8.434,0,15.258-6.824,15.258-15.258S505.175,129.541,496.742,129.541z"/>
	</g>
</g>
<g>
	<g>
		<path d="M367.202,0c-8.434,0-15.258,6.824-15.258,15.258v43.167c0,8.434,6.824,15.258,15.258,15.258s15.258-6.824,15.258-15.258    V15.258C382.46,6.824,375.636,0,367.202,0z"/>
	</g>
</g>
<g>
	<g>
		<path d="M442.787,198.682L313.318,69.212c-5.96-5.96-15.616-5.96-21.576,0l-53.939,53.939l151.045,151.045l53.939-53.939    C448.747,214.298,448.747,204.642,442.787,198.682z"/>
	</g>
</g>
<g>
	<g>
		<polygon points="220.351,148.851 209.56,181.228 330.772,302.439 363.149,291.65   "/>
	</g>
</g>
<g>
	<g>
		<path d="M194.651,209.47L43.593,360.517l107.891,107.89l151.047-151.059L194.651,209.47z M183.849,349.728    c-5.96,5.96-15.616,5.96-21.576,0s-5.961-15.616,0-21.576l21.591-21.591c5.96-5.96,15.616-5.96,21.576,0    c5.96,5.96,5.96,15.616,0,21.576L183.849,349.728z"/>
	</g>
</g>
<g>
	<g>
		<path d="M22.015,382.091l-8.627,8.627c-17.851,17.851-17.851,46.892,0,64.742l43.152,43.152c17.851,17.851,46.892,17.851,64.742,0    l8.627-8.627L22.015,382.091z"/>
	</g>
</g>
<g>
</g>
<g>
</g>
<g>
</g>
<g>
</g>
<g>
</g>
<g>
</g>
<g>
</g>
<g>
</g>
<g>
</g>
<g>
</g>
<g>
</g>
<g>
</g>
<g>
</g>
<g>
</g>
<g>
</g>
</svg>
