<?xml version="1.0" encoding="iso-8859-1"?>
<!-- Generator: Adobe Illustrator 19.0.0, SVG Export Plug-In . SVG Version: 6.00 Build 0)  -->
<svg xmlns="http://www.w3.org/2000/svg" xmlns:xlink="http://www.w3.org/1999/xlink" version="1.1" id="Capa_1" x="0px" y="0px" viewBox="0 0 512 512" style="enable-background:new 0 0 512 512;" xml:space="preserve">
<g>
	<g>
		<path d="M331,196c-49.629,0-90,40.371-90,90c0,49.629,40.371,90,90,90c49.629,0,90-40.371,90-90C421,236.371,380.629,196,331,196z     M331,346c-33.091,0-60-26.909-60-60s26.909-60,60-60s60,26.909,60,60S364.091,346,331,346z"/>
	</g>
</g>
<g>
	<g>
		<path d="M331,256c-16.538,0-30,13.462-30,30c0,16.538,13.462,30,30,30c16.538,0,30-13.462,30-30C361,269.462,347.538,256,331,256z    "/>
	</g>
</g>
<g>
	<g>
		<path d="M434.306,226C444.643,243.723,451,264.047,451,286s-6.357,42.277-16.694,60H512V226H434.306z"/>
	</g>
</g>
<g>
	<g>
		<path d="M467,106H151v90h101.472c21.105-18.437,48.371-30,78.528-30c30.157,0,57.424,11.563,78.528,30H512v-45    C512,126.186,491.814,106,467,106z"/>
	</g>
</g>
<g>
	<g>
		<path d="M45,106c-24.814,0-45,20.186-45,45v270c0,24.814,20.186,45,45,45h76V106H45z"/>
	</g>
</g>
<g>
	<g>
		<path d="M409.528,376c-21.104,18.437-48.371,30-78.528,30c-30.157,0-57.424-11.563-78.528-30H151v90h316c24.814,0,45-20.186,45-45    v-45H409.528z"/>
	</g>
</g>
<g>
	<g>
		<path d="M227.694,226H151v120h76.694C217.357,328.277,211,307.953,211,286S217.357,243.723,227.694,226z"/>
	</g>
</g>
<g>
	<g>
		<path d="M427.71,70.873C420.033,55.536,404.608,46,387.455,46h-172.91c-17.153,0-32.578,9.536-40.254,24.873L171.728,76h258.545    L427.71,70.873z"/>
	</g>
</g>
<g>
	<g>
		<path d="M76,46c-19.53,0-37.024,12.578-43.237,30h85.474C112.024,58.578,95.53,46,76,46z"/>
	</g>
</g>
<g>
</g>
<g>
</g>
<g>
</g>
<g>
</g>
<g>
</g>
<g>
</g>
<g>
</g>
<g>
</g>
<g>
</g>
<g>
</g>
<g>
</g>
<g>
</g>
<g>
</g>
<g>
</g>
<g>
</g>
</svg>
