<?xml version="1.0" encoding="iso-8859-1"?>
<!-- Generator: Adobe Illustrator 19.0.0, SVG Export Plug-In . SVG Version: 6.00 Build 0)  -->
<svg xmlns="http://www.w3.org/2000/svg" xmlns:xlink="http://www.w3.org/1999/xlink" version="1.1" id="Capa_1" x="0px" y="0px" viewBox="0 0 512 512" style="enable-background:new 0 0 512 512;" xml:space="preserve">
<g>
	<g>
		<path d="M436,421h-60c-24.814,0-45,21.186-45,46v30c0,8.291,6.709,15,15,15h120c8.291,0,15-6.709,15-15v-30    C481,442.186,460.814,421,436,421z"/>
	</g>
</g>
<g>
	<g>
		<path d="M136,421H76c-24.814,0-45,21.186-45,46v30c0,8.291,6.709,15,15,15h120c8.291,0,15-6.709,15-15v-30    C181,442.186,160.814,421,136,421z"/>
	</g>
</g>
<g>
	<g>
		<path d="M271,301v15c0,8.291-6.709,15-15,15c-8.291,0-15-6.709-15-15v-15h-60.667l21.688,50.874    c2.358,5.552,7.778,9.126,13.799,9.126h80.361c6.021,0,11.44-3.574,13.799-9.126L331.667,301H271z"/>
	</g>
</g>
<g>
	<g>
		<path d="M406.782,294.218C397.365,298.486,386.994,301,376,301h-11.715l-26.708,62.651C330.487,380.263,314.242,391,296.181,391    H215.82c-18.062,0-34.307-10.737-41.396-27.349L147.715,301H136c-10.994,0-21.365-2.514-30.782-6.782    C96.425,309.566,91,327.083,91,346v45h45c41.353,0,75,34.647,75,76v15h90v-15c0-41.353,33.647-76,75-76h45v-45    C421,327.083,415.575,309.566,406.782,294.218z"/>
	</g>
</g>
<g>
	<g>
		<path d="M286,120h-15v15c0,8.291-6.709,15-15,15c-8.291,0-15-6.709-15-15v-15h-15c-8.276,0-15,6.724-15,15v91    c0,24.814,20.186,45,45,45c24.814,0,45-20.186,45-45v-91C301,126.724,294.276,120,286,120z"/>
	</g>
</g>
<g>
	<g>
		<path d="M364.003,54.009C338.646,20.186,298.275,0,256,0c-42.275,0-82.646,20.186-108.003,54.009    C111.244,103.022,91,164.74,91,226c0,24.814,20.186,45,45,45h60.383C186.865,258.426,181,242.948,181,226v-91    c0-24.814,20.186-45,45-45h15V75c0-8.291,6.709-15,15-15s15,6.709,15,15v15h15c24.814,0,45,20.186,45,45v91    c0,16.948-5.865,32.426-15.383,45H376c24.814,0,45-20.186,45-45C421,164.74,400.756,103.022,364.003,54.009z"/>
	</g>
</g>
<g>
</g>
<g>
</g>
<g>
</g>
<g>
</g>
<g>
</g>
<g>
</g>
<g>
</g>
<g>
</g>
<g>
</g>
<g>
</g>
<g>
</g>
<g>
</g>
<g>
</g>
<g>
</g>
<g>
</g>
</svg>
