<?xml version="1.0" encoding="iso-8859-1"?>
<!-- Generator: Adobe Illustrator 19.0.0, SVG Export Plug-In . SVG Version: 6.00 Build 0)  -->
<svg version="1.1" id="Layer_1" xmlns="http://www.w3.org/2000/svg" xmlns:xlink="http://www.w3.org/1999/xlink" x="0px" y="0px"
	 viewBox="0 0 512 512" style="enable-background:new 0 0 512 512;" xml:space="preserve">
<g>
	<g>
		<path d="M406.974,344.701V229.744c0-76.574-57.305-140.01-131.282-149.689V0h-39.385v80.055
			c-73.977,9.679-131.282,73.115-131.282,149.689v114.957L71.139,446.359h112.967C187.435,483.106,218.4,512,256,512
			c37.601,0,68.565-28.894,71.894-65.641h112.967L406.974,344.701z M196.923,229.744h-39.385c0-54.292,44.17-98.462,98.462-98.462
			v39.385C223.425,170.667,196.923,197.169,196.923,229.744z M256,472.615c-15.85,0-29.112-11.294-32.16-26.256h64.32
			C285.11,461.321,271.85,472.615,256,472.615z"/>
	</g>
</g>
<g>
	<g>
		<rect x="466.051" y="234.719" width="39.385" height="39.385"/>
	</g>
</g>
<g>
	<g>
		<rect x="447.3" y="168.28" transform="matrix(0.7071 -0.7071 0.7071 0.7071 3.8623 385.2695)" width="39.384" height="39.384"/>
	</g>
</g>
<g>
	<g>
		
			<rect x="447.302" y="301.164" transform="matrix(0.7071 -0.7071 0.7071 0.7071 -90.1001 424.1917)" width="39.384" height="39.384"/>
	</g>
</g>
<g>
	<g>
		<rect x="6.564" y="234.719" width="39.385" height="39.385"/>
	</g>
</g>
<g>
	<g>
		
			<rect x="25.322" y="168.278" transform="matrix(0.7071 -0.7071 0.7071 0.7071 -119.7306 86.8851)" width="39.384" height="39.384"/>
	</g>
</g>
<g>
	<g>
		
			<rect x="25.31" y="301.145" transform="matrix(0.7071 -0.7071 0.7071 0.7071 -213.6848 125.7919)" width="39.384" height="39.384"/>
	</g>
</g>
<g>
</g>
<g>
</g>
<g>
</g>
<g>
</g>
<g>
</g>
<g>
</g>
<g>
</g>
<g>
</g>
<g>
</g>
<g>
</g>
<g>
</g>
<g>
</g>
<g>
</g>
<g>
</g>
<g>
</g>
</svg>
