<?xml version="1.0" encoding="iso-8859-1"?>
<!-- Generator: Adobe Illustrator 19.0.0, SVG Export Plug-In . SVG Version: 6.00 Build 0)  -->
<svg version="1.1" id="Layer_1" xmlns="http://www.w3.org/2000/svg" xmlns:xlink="http://www.w3.org/1999/xlink" x="0px" y="0px"
	 viewBox="0 0 512 512" style="enable-background:new 0 0 512 512;" xml:space="preserve">
<g>
	<g>
		<path d="M218.537,162.342c-50.172,0-93.845,28.33-115.883,69.828l28.965,26.469c13.85-34.443,47.58-58.834,86.918-58.834
			c39.338,0,73.067,24.391,86.918,58.834l28.966-26.469C312.381,190.671,268.709,162.342,218.537,162.342z"/>
	</g>
</g>
<g>
	<g>
		<path d="M218.537,237.268c-28.819,0-52.627,21.81-55.819,49.789l55.819,51.006l55.819-51.006
			C271.164,259.078,247.355,237.268,218.537,237.268z"/>
	</g>
</g>
<g>
	<g>
		<path d="M437.073,118.634V43.707H0v349.659h74.927v74.927H512V118.634H437.073z M37.463,223.349V172.6l36.839,33.663
			c29.581-48.747,83.168-81.385,144.234-81.385s114.653,32.638,144.234,81.385L399.61,172.6v50.749L254.551,355.902h-72.03
			L37.463,223.349z M474.537,430.829H112.39v-37.463h324.683V156.098h37.463V430.829z"/>
	</g>
</g>
<g>
</g>
<g>
</g>
<g>
</g>
<g>
</g>
<g>
</g>
<g>
</g>
<g>
</g>
<g>
</g>
<g>
</g>
<g>
</g>
<g>
</g>
<g>
</g>
<g>
</g>
<g>
</g>
<g>
</g>
</svg>
