<?xml version="1.0" encoding="iso-8859-1"?>
<!-- Generator: Adobe Illustrator 19.0.0, SVG Export Plug-In . SVG Version: 6.00 Build 0)  -->
<svg version="1.1" id="Layer_1" xmlns="http://www.w3.org/2000/svg" xmlns:xlink="http://www.w3.org/1999/xlink" x="0px" y="0px"
	 viewBox="0 0 512 512" style="enable-background:new 0 0 512 512;" xml:space="preserve">
<g>
	<g>
		<path d="M256,223.043c-56.125,0-104.553,33.579-126.255,81.702l32.257,26.113c12.917-39.58,50.161-68.267,93.998-68.267
			s81.08,28.687,93.998,68.267l32.257-26.113C360.553,256.622,312.125,223.043,256,223.043z"/>
	</g>
</g>
<g>
	<g>
		<path d="M256,302.138c-31.879,0-57.953,25.278-59.257,56.843L256,406.952l59.257-47.97
			C313.953,327.416,287.879,302.138,256,302.138z"/>
	</g>
</g>
<g>
	<g>
		<path d="M0,51.675v408.651h512V51.675H0z M362.258,123.378l25.566,25.566l25.566-25.566l27.962,27.964l-53.529,53.528
			l-53.528-53.528L362.258,123.378z M157.133,91.221h39.547v39.547h-39.547V91.221z M78.039,91.221h39.547v39.547H78.039V91.221z
			 M472.453,282.607L301.772,420.779h-91.543L39.547,282.607v-50.88l58.67,47.496c29.746-56.843,89.305-95.726,157.783-95.726
			s128.037,38.884,157.783,95.726l58.67-47.496V282.607z"/>
	</g>
</g>
<g>
</g>
<g>
</g>
<g>
</g>
<g>
</g>
<g>
</g>
<g>
</g>
<g>
</g>
<g>
</g>
<g>
</g>
<g>
</g>
<g>
</g>
<g>
</g>
<g>
</g>
<g>
</g>
<g>
</g>
</svg>
