<?xml version="1.0" encoding="iso-8859-1"?>
<!-- Generator: Adobe Illustrator 19.0.0, SVG Export Plug-In . SVG Version: 6.00 Build 0)  -->
<svg version="1.1" id="Layer_1" xmlns="http://www.w3.org/2000/svg" xmlns:xlink="http://www.w3.org/1999/xlink" x="0px" y="0px"
	 viewBox="0 0 512 512" style="enable-background:new 0 0 512 512;" xml:space="preserve">
<g>
	<g>
		<path d="M256,0C114.842,0,0,114.842,0,256s114.842,256,256,256s256-114.842,256-256S397.158,0,256,0z M348.516,387.755v-41.262
			h-53.914l-39.481-57.428l-39.481,57.428H93.659v-37.463h102.273L232.389,256l-36.457-53.029H93.659v-37.463h121.981l39.481,57.428
			l39.481-57.428h53.914v-41.262l99.989,59.994l-99.989,59.995v-41.263h-34.207L277.852,256l36.457,53.029h34.207v-41.263
			l99.989,59.995L348.516,387.755z"/>
	</g>
</g>
<g>
</g>
<g>
</g>
<g>
</g>
<g>
</g>
<g>
</g>
<g>
</g>
<g>
</g>
<g>
</g>
<g>
</g>
<g>
</g>
<g>
</g>
<g>
</g>
<g>
</g>
<g>
</g>
<g>
</g>
</svg>
