<?xml version="1.0" encoding="iso-8859-1"?>
<!-- Generator: Adobe Illustrator 19.0.0, SVG Export Plug-In . SVG Version: 6.00 Build 0)  -->
<svg version="1.1" id="Layer_1" xmlns="http://www.w3.org/2000/svg" xmlns:xlink="http://www.w3.org/1999/xlink" x="0px" y="0px"
	 viewBox="0 0 512.001 512.001" style="enable-background:new 0 0 512.001 512.001;" xml:space="preserve">
<g>
	<g>
		<path d="M359.496,155.512c-28.534,0-51.748,23.214-51.748,51.748c0,22.487,14.422,41.661,34.499,48.781v29.378l-68.997,15.332
			V132.513h58.473L256,0l-75.721,132.513h58.473v202.739l-68.997-15.332v-26.411h34.499V190.012H100.757v103.496h34.499v54.086
			l103.496,22.999v40.879c-20.077,7.12-34.499,26.294-34.499,48.781c0,28.534,23.214,51.748,51.748,51.748
			s51.748-23.214,51.748-51.748c0-22.487-14.422-41.661-34.499-48.781v-75.377l103.496-22.999v-57.053
			c20.076-7.122,34.498-26.295,34.498-48.782C411.244,178.726,388.03,155.512,359.496,155.512z"/>
	</g>
</g>
<g>
</g>
<g>
</g>
<g>
</g>
<g>
</g>
<g>
</g>
<g>
</g>
<g>
</g>
<g>
</g>
<g>
</g>
<g>
</g>
<g>
</g>
<g>
</g>
<g>
</g>
<g>
</g>
<g>
</g>
</svg>
