<?xml version="1.0" encoding="iso-8859-1"?>
<!-- Generator: Adobe Illustrator 19.0.0, SVG Export Plug-In . SVG Version: 6.00 Build 0)  -->
<svg xmlns="http://www.w3.org/2000/svg" xmlns:xlink="http://www.w3.org/1999/xlink" version="1.1" id="Layer_1" x="0px" y="0px" viewBox="0 0 512 512" style="enable-background:new 0 0 512 512;" xml:space="preserve">
<g>
	<g>
		<path d="M473.043,0h-66.783c-9.217,0-16.696,7.473-16.696,16.696c0,9.206-7.49,16.696-16.696,16.696s-16.696-7.49-16.696-16.696    C356.174,7.473,348.695,0,339.478,0H105.739C59.707,0,22.261,37.446,22.261,83.478c0,9.223,7.479,16.696,16.696,16.696h66.783    c27.619,0,50.087,22.468,50.087,50.087c0,9.223,7.479,16.696,16.696,16.696h16.696v144.696h50.087    c9.217,0,16.696,7.473,16.696,16.696c0,9.223-7.479,16.696-16.696,16.696h-50.087v33.391h50.087    c9.217,0,16.696,7.473,16.696,16.696s-7.479,16.696-16.696,16.696h-50.087v50.087c0,27.619,22.468,50.087,50.087,50.087h33.391    c27.619,0,50.087-22.468,50.087-50.087V166.957h16.696c9.217,0,16.696-7.473,16.696-16.696c0-9.206,7.49-16.696,16.696-16.696    s16.696,7.49,16.696,16.696c0,9.223,7.479,16.696,16.696,16.696h66.783c9.217,0,16.696-7.473,16.696-16.696V16.696    C489.739,7.473,482.261,0,473.043,0z M289.391,200.348h-66.783v-33.391h66.783V200.348z M389.565,103.25    c-5.248-1.871-10.813-3.076-16.696-3.076s-11.448,1.205-16.696,3.076V63.706c5.248,1.871,10.813,3.076,16.696,3.076    s11.448-1.205,16.696-3.076V103.25z"/>
	</g>
</g>
<g>
</g>
<g>
</g>
<g>
</g>
<g>
</g>
<g>
</g>
<g>
</g>
<g>
</g>
<g>
</g>
<g>
</g>
<g>
</g>
<g>
</g>
<g>
</g>
<g>
</g>
<g>
</g>
<g>
</g>
</svg>
