<?xml version="1.0" encoding="iso-8859-1"?>
<!-- Generator: Adobe Illustrator 19.0.0, SVG Export Plug-In . SVG Version: 6.00 Build 0)  -->
<svg xmlns="http://www.w3.org/2000/svg" xmlns:xlink="http://www.w3.org/1999/xlink" version="1.1" id="Layer_1" x="0px" y="0px" viewBox="0 0 512.001 512.001" style="enable-background:new 0 0 512.001 512.001;" xml:space="preserve">
<g>
	<g>
		<path d="M462.107,222.631h-16.848v-66.741h16.848c9.211,0,16.685-7.468,16.685-16.685c0-9.217-7.474-16.685-16.685-16.685h-33.371    c-9.211,0-16.685,7.468-16.685,16.685v83.427h-33.533V72.463c0-27.602-22.29-50.056-49.893-50.056H208.069    c-21.574,0-40.66,13.752-47.492,34.228l-55.324,165.995c-34.821,0-66.59,7.364-97.908,28.542    c-7.636,5.166-9.646,15.534-4.475,23.17c5.138,7.631,15.555,9.614,23.159,4.475C48.114,263.892,73.891,256,100.592,256    c67.944,0,124.072,51.059,132.325,116.797h-33.72c-7.981-47.268-49.097-83.427-98.605-83.427    c-55.205,0-100.112,44.912-100.112,100.112s44.907,100.112,100.112,100.112c49.508,0,90.624-36.269,98.605-83.538h33.75    c-0.547,4.364-1.224,8.822-2.196,13.092c-2.364,10.455,5.597,20.389,16.273,20.389h100.483    c7.437,28.74,33.512,50.056,64.545,50.056c31.969,0,58.729-22.6,65.215-52.656c20.164-6.466,34.734-25.171,34.734-47.456V272.685    C512,245.085,489.71,222.631,462.107,222.631z M100.592,456.225c-31.034,0-57.107-21.427-64.545-50.167h129.09    C157.7,434.798,131.625,456.225,100.592,456.225z M36.047,372.798c7.437-28.739,33.512-50.056,64.544-50.056    c31.034,0,57.107,21.316,64.545,50.056H36.047z M295.254,89.148c-9.211,0-16.685,7.468-16.685,16.685v116.797H140.426l0.447-1.344    l59.668-39.782v18.878c0,9.217,7.474,16.685,16.685,16.685c9.211,0,16.685-7.468,16.685-16.685c0-28.874,0-54.589,0-83.427    c0-9.217-7.474-16.685-16.685-16.685c-9.211,0-16.685,7.468-16.685,16.685v24.442l-42.481,28.324l34.172-102.528    c2.281-6.828,8.646-11.417,15.838-11.417h120.556c9.2,0,16.685,7.485,16.685,16.685V222.63h-33.533V105.832    C311.776,96.616,304.466,89.148,295.254,89.148z M412.051,456.225c-18.402,0-33.371-14.969-33.371-33.371    s14.969-33.371,33.371-33.371c18.402,0,33.371,14.969,33.371,33.371S430.452,456.225,412.051,456.225z M428.736,322.743H328.624    c-9.211,0-16.685-7.468-16.685-16.685s7.474-16.685,16.685-16.685h100.112c9.211,0,16.685,7.468,16.685,16.685    S437.949,322.743,428.736,322.743z"/>
	</g>
</g>
<g>
</g>
<g>
</g>
<g>
</g>
<g>
</g>
<g>
</g>
<g>
</g>
<g>
</g>
<g>
</g>
<g>
</g>
<g>
</g>
<g>
</g>
<g>
</g>
<g>
</g>
<g>
</g>
<g>
</g>
</svg>
