<?xml version="1.0" encoding="iso-8859-1"?>
<!-- Generator: Adobe Illustrator 19.0.0, SVG Export Plug-In . SVG Version: 6.00 Build 0)  -->
<svg xmlns="http://www.w3.org/2000/svg" xmlns:xlink="http://www.w3.org/1999/xlink" version="1.1" id="Layer_1" x="0px" y="0px" viewBox="0 0 512.001 512.001" style="enable-background:new 0 0 512.001 512.001;" xml:space="preserve">
<g>
	<g>
		<path d="M461.913,205.914h-27.826V89.044c0-27.619-22.468-50.087-50.087-50.087H267.413c-37.077,0-70.087,24.897-80.26,60.544    l-49.486,173.195h-37.493V55.653c0-9.223-7.479-16.696-16.696-16.696S66.783,46.43,66.783,55.653v350.609H16.696    C7.479,406.261,0,413.734,0,422.957c0,9.223,7.479,16.696,16.696,16.696h66.783c9.217,0,16.696-7.473,16.696-16.696V372.87h33.391    v33.391c0,36.826,29.956,66.783,66.783,66.783c31.053,0,57.143-21.329,64.585-50.087h115.7    c7.442,28.758,33.533,50.087,64.585,50.087c36.826,0,66.783-29.956,66.783-66.783V256.001    C512,228.381,489.532,205.914,461.913,205.914z M200.348,439.653c-18.413,0-33.391-14.978-33.391-33.391    s14.978-33.391,33.391-33.391s33.391,14.978,33.391,33.391S218.761,439.653,200.348,439.653z M400.696,215.696l-33.391,33.391    v-93.261c0-9.223-7.479-16.696-16.696-16.696s-16.696,7.473-16.696,16.696v116.87H172.396l4.02-14.071l57.323-38.213v18.893    c0,9.223,7.479,16.696,16.696,16.696c9.217,0,16.696-7.473,16.696-16.696c0-28.89,0-54.623,0-83.478    c0-9.223-7.479-16.696-16.696-16.696c-9.217,0-16.696,7.473-16.696,16.696v24.457l-43.159,28.771l28.681-100.385    c6.108-21.386,25.903-36.321,48.152-36.321H384c9.206,0,16.696,7.49,16.696,16.696V215.696z M445.217,439.653    c-18.413,0-33.391-14.978-33.391-33.391s14.978-33.391,33.391-33.391s33.391,14.978,33.391,33.391S463.63,439.653,445.217,439.653    z"/>
	</g>
</g>
<g>
</g>
<g>
</g>
<g>
</g>
<g>
</g>
<g>
</g>
<g>
</g>
<g>
</g>
<g>
</g>
<g>
</g>
<g>
</g>
<g>
</g>
<g>
</g>
<g>
</g>
<g>
</g>
<g>
</g>
</svg>
