<?xml version="1.0" encoding="iso-8859-1"?>
<!-- Generator: Adobe Illustrator 19.0.0, SVG Export Plug-In . SVG Version: 6.00 Build 0)  -->
<svg xmlns="http://www.w3.org/2000/svg" xmlns:xlink="http://www.w3.org/1999/xlink" version="1.1" id="Layer_1" x="0px" y="0px" viewBox="0 0 512 512" style="enable-background:new 0 0 512 512;" xml:space="preserve">
<g>
	<g>
		<path d="M495.304,89.043H244.87V72.348c0-9.217-7.479-16.696-16.696-16.696H94.609c-9.217,0-16.696,7.479-16.696,16.696    s7.479,16.696,16.696,16.696h116.87c0,230.731,0,153.649,0,183.652c0,9.217,7.479,16.696,16.696,16.696h267.13    c9.217,0,16.696-7.479,16.696-16.696V105.739C512,96.522,504.521,89.043,495.304,89.043z M311.652,222.609    c0,9.217-7.479,16.696-16.696,16.696c-9.217,0-16.696-7.479-16.696-16.696v-66.783c0-9.217,7.479-16.696,16.696-16.696    c9.217,0,16.696,7.479,16.696,16.696V222.609z M378.435,222.609c0,9.217-7.479,16.696-16.696,16.696s-16.696-7.479-16.696-16.696    v-66.783c0-9.217,7.479-16.696,16.696-16.696s16.696,7.479,16.696,16.696V222.609z M445.217,222.609    c0,9.217-7.479,16.696-16.696,16.696s-16.696-7.479-16.696-16.696v-66.783c0-9.217,7.479-16.696,16.696-16.696    s16.696,7.479,16.696,16.696V222.609z"/>
	</g>
</g>
<g>
	<g>
		<path d="M495.304,322.783h-0.158c-168.984,0-151.974,0-317.059,0V155.826c0-9.223-7.479-16.696-16.696-16.696H83.478    C37.446,139.13,0,176.577,0,222.609v83.478h50.087c9.217,0,16.696,7.473,16.696,16.696c0,9.223-7.479,16.696-16.696,16.696H0    v16.696c0,27.619,22.468,50.087,50.087,50.087h16.696c0,27.619,22.468,50.087,50.087,50.087c27.619,0,50.087-22.468,50.087-50.087    h50.087c0,27.619,22.468,50.087,50.087,50.087c27.619,0,50.087-22.468,50.087-50.087h44.522c0,27.619,22.468,50.087,50.087,50.087    c27.619,0,50.087-22.468,50.087-50.087c27.619,0,50.087-22.468,50.087-50.087v-16.696    C512,330.256,504.521,322.783,495.304,322.783z M33.391,272.696v-50.087c0-27.619,22.468-50.087,50.087-50.087h27.826v100.174    H33.391z M116.87,422.957c-9.206,0-16.696-7.49-16.696-16.696s7.49-16.696,16.696-16.696s16.696,7.49,16.696,16.696    S126.076,422.957,116.87,422.957z M267.13,422.957c-9.206,0-16.696-7.49-16.696-16.696s7.49-16.696,16.696-16.696    s16.696,7.49,16.696,16.696S276.336,422.957,267.13,422.957z M411.826,422.957c-9.206,0-16.696-7.49-16.696-16.696    s7.49-16.696,16.696-16.696c9.206,0,16.696,7.49,16.696,16.696S421.032,422.957,411.826,422.957z"/>
	</g>
</g>
<g>
</g>
<g>
</g>
<g>
</g>
<g>
</g>
<g>
</g>
<g>
</g>
<g>
</g>
<g>
</g>
<g>
</g>
<g>
</g>
<g>
</g>
<g>
</g>
<g>
</g>
<g>
</g>
<g>
</g>
</svg>
