<?xml version="1.0" encoding="iso-8859-1"?>
<!-- Generator: Adobe Illustrator 19.0.0, SVG Export Plug-In . SVG Version: 6.00 Build 0)  -->
<svg xmlns="http://www.w3.org/2000/svg" xmlns:xlink="http://www.w3.org/1999/xlink" version="1.1" id="Layer_1" x="0px" y="0px" viewBox="0 0 512 512" style="enable-background:new 0 0 512 512;" xml:space="preserve">
<g>
	<g>
		<path d="M495.304,80.696H211.478v183.652H512V97.391C512,88.169,504.521,80.696,495.304,80.696z M311.652,203.13    c0,9.223-7.479,16.696-16.696,16.696c-9.217,0-16.696-7.473-16.696-16.696v-66.783c0-9.223,7.479-16.696,16.696-16.696    c9.217,0,16.696,7.473,16.696,16.696V203.13z M384,203.13c0,9.223-7.479,16.696-16.696,16.696    c-9.217,0-16.696-7.473-16.696-16.696v-66.783c0-9.223,7.479-16.696,16.696-16.696c9.217,0,16.696,7.473,16.696,16.696V203.13z     M456.348,203.13c0,9.223-7.479,16.696-16.696,16.696s-16.696-7.473-16.696-16.696v-66.783c0-9.223,7.479-16.696,16.696-16.696    s16.696,7.473,16.696,16.696V203.13z"/>
	</g>
</g>
<g>
	<g>
		<path d="M495.304,297.739h-0.158c-168.984,0-151.974,0-317.059,0V130.783c0-9.223-7.479-16.696-16.696-16.696H83.478    C37.446,114.087,0,151.533,0,197.565v83.478h50.087c9.217,0,16.696,7.473,16.696,16.696c0,9.223-7.479,16.696-16.696,16.696H0    v16.696c0,27.619,22.468,50.087,50.087,50.087h16.696c0,27.619,22.468,50.087,50.087,50.087c27.619,0,50.087-22.468,50.087-50.087    h50.087c0,27.619,22.468,50.087,50.087,50.087c27.619,0,50.087-22.468,50.087-50.087h44.522c0,27.619,22.468,50.087,50.087,50.087    c27.619,0,50.087-22.468,50.087-50.087c27.619,0,50.087-22.468,50.087-50.087v-16.696    C512,305.212,504.521,297.739,495.304,297.739z M33.391,247.652v-50.087c0-27.619,22.468-50.087,50.087-50.087h27.826v100.174    H33.391z M116.87,397.913c-9.206,0-16.696-7.49-16.696-16.696c0-9.206,7.49-16.696,16.696-16.696s16.696,7.49,16.696,16.696    C133.565,390.423,126.076,397.913,116.87,397.913z M267.13,397.913c-9.206,0-16.696-7.49-16.696-16.696    c0-9.206,7.49-16.696,16.696-16.696s16.696,7.49,16.696,16.696C283.826,390.423,276.336,397.913,267.13,397.913z M411.826,397.913    c-9.206,0-16.696-7.49-16.696-16.696c0-9.206,7.49-16.696,16.696-16.696c9.206,0,16.696,7.49,16.696,16.696    C428.522,390.423,421.032,397.913,411.826,397.913z"/>
	</g>
</g>
<g>
</g>
<g>
</g>
<g>
</g>
<g>
</g>
<g>
</g>
<g>
</g>
<g>
</g>
<g>
</g>
<g>
</g>
<g>
</g>
<g>
</g>
<g>
</g>
<g>
</g>
<g>
</g>
<g>
</g>
</svg>
