<?xml version="1.0" encoding="iso-8859-1"?>
<!-- Generator: Adobe Illustrator 19.0.0, SVG Export Plug-In . SVG Version: 6.00 Build 0)  -->
<svg xmlns="http://www.w3.org/2000/svg" xmlns:xlink="http://www.w3.org/1999/xlink" version="1.1" id="Layer_1" x="0px" y="0px" viewBox="0 0 512 512" style="enable-background:new 0 0 512 512;" xml:space="preserve">
<g>
	<g>
		<path d="M461.913,200.348h-25.011c-3.495-11.381-8.054-22.38-13.641-32.903l17.695-17.701c19.533-19.527,19.533-51.299,0-70.826    l-7.869-7.869c-19.576-19.576-51.257-19.585-70.832,0L344.559,88.74c-10.527-5.587-21.527-10.146-32.907-13.641V50.087    C311.652,22.468,289.184,0,261.565,0h-11.13c-27.619,0-50.087,22.468-50.087,50.087v25.011    c-11.381,3.495-22.38,8.054-32.903,13.641l-17.701-17.695c-19.522-19.533-51.305-19.533-70.826,0l-7.875,7.875    c-19.527,19.527-19.527,51.299,0,70.826l17.695,17.701c-5.587,10.522-10.146,21.522-13.641,32.903h-25.01    C22.468,200.349,0,222.817,0,250.436v11.13c0,27.619,22.468,50.087,50.087,50.087h25.011c3.495,11.381,8.054,22.38,13.641,32.903    l-17.695,17.701c-19.527,19.527-19.527,51.299,0,70.826l7.869,7.869c19.576,19.576,51.258,19.585,70.832,0l17.695-17.695    c10.527,5.592,21.527,10.152,32.907,13.647v25.009c0,27.619,22.468,50.087,50.087,50.087h11.13    c27.619,0,50.087-22.468,50.087-50.087v-25.011c11.381-3.495,22.38-8.054,32.903-13.641l17.701,17.695    c19.522,19.533,51.305,19.533,70.826,0l7.869-7.869c19.576-19.576,19.585-51.258,0-70.832l-17.691-17.695    c5.587-10.527,10.146-21.527,13.641-32.907h25.011c27.619,0,50.087-22.468,50.087-50.087v-11.13    C512,222.816,489.532,200.348,461.913,200.348z M256,166.957c18.529,0,35.744,5.701,50.011,15.423l-28.552,28.552    c-6.529-3.124-13.751-5.019-21.459-5.019c-7.709,0-14.93,1.894-21.459,5.019l-28.552-28.552    C220.256,172.658,237.471,166.957,256,166.957z M182.38,306.011c-9.722-14.267-15.423-31.482-15.423-50.011    c0-18.529,5.701-35.744,15.423-50.011l28.552,28.552c-3.124,6.529-5.019,13.751-5.019,21.459c0,7.709,1.894,14.93,5.019,21.459    L182.38,306.011z M256,345.043c-18.529,0-35.744-5.701-50.011-15.423l28.552-28.552c6.529,3.124,13.751,5.019,21.459,5.019    c7.709,0,14.93-1.894,21.459-5.019l28.552,28.552C291.744,339.342,274.529,345.043,256,345.043z M329.62,306.011l-28.552-28.552    c3.124-6.529,5.019-13.751,5.019-21.459c0-7.709-1.894-14.93-5.019-21.459l28.552-28.552    c9.722,14.267,15.423,31.482,15.423,50.011C345.043,274.529,339.342,291.744,329.62,306.011z"/>
	</g>
</g>
<g>
</g>
<g>
</g>
<g>
</g>
<g>
</g>
<g>
</g>
<g>
</g>
<g>
</g>
<g>
</g>
<g>
</g>
<g>
</g>
<g>
</g>
<g>
</g>
<g>
</g>
<g>
</g>
<g>
</g>
</svg>
