<?xml version="1.0" encoding="iso-8859-1"?>
<!-- Generator: Adobe Illustrator 19.0.0, SVG Export Plug-In . SVG Version: 6.00 Build 0)  -->
<svg xmlns="http://www.w3.org/2000/svg" xmlns:xlink="http://www.w3.org/1999/xlink" version="1.1" id="Layer_1" x="0px" y="0px" viewBox="0 0 512 512" style="enable-background:new 0 0 512 512;" xml:space="preserve">
<g>
	<g>
		<path d="M495.304,308.098h-0.158c-168.984,0-151.974,0-317.059,0V141.142c0-9.223-7.479-16.696-16.696-16.696H83.478    C37.446,124.446,0,161.892,0,207.924v83.478h50.087c9.217,0,16.696,7.473,16.696,16.696c0,9.223-7.479,16.696-16.696,16.696H0    v16.696c0,27.619,22.468,50.087,50.087,50.087h16.696c0,27.619,22.468,50.087,50.087,50.087c27.619,0,50.087-22.468,50.087-50.087    h50.087c0,27.619,22.468,50.087,50.087,50.087c27.619,0,50.087-22.468,50.087-50.087h44.522c0,27.619,22.468,50.087,50.087,50.087    c27.619,0,50.087-22.468,50.087-50.087c27.619,0,50.087-22.468,50.087-50.087v-16.696    C512,315.571,504.521,308.098,495.304,308.098z M33.391,258.011v-50.087c0-27.619,22.468-50.087,50.087-50.087h27.826v100.174    H33.391z M116.87,408.272c-9.206,0-16.696-7.49-16.696-16.696c0-9.206,7.49-16.696,16.696-16.696s16.696,7.49,16.696,16.696    C133.565,400.783,126.076,408.272,116.87,408.272z M267.13,408.272c-9.206,0-16.696-7.49-16.696-16.696    c0-9.206,7.49-16.696,16.696-16.696s16.696,7.49,16.696,16.696C283.826,400.783,276.336,408.272,267.13,408.272z M411.826,408.272    c-9.206,0-16.696-7.49-16.696-16.696c0-9.206,7.49-16.696,16.696-16.696c9.206,0,16.696,7.49,16.696,16.696    C428.522,400.783,421.032,408.272,411.826,408.272z"/>
	</g>
</g>
<g>
	<g>
		<path d="M508.445,136.827l-33.391-58.098c-3.718-6.457-11.228-9.696-18.456-7.903l-159.25,39.082    c-70.76,17.36-97.146,90.268-65.601,148.102c3.476,6.041,7.524,11.608,12.036,16.697h149.458c0,0,46.611-48.764,73.326-76.727    l1.247-1.305l-13.924,78.031h33.917c0,0,6.833-38.292,22.595-126.62C511.103,144.155,510.188,139.86,508.445,136.827z"/>
	</g>
</g>
<g>
</g>
<g>
</g>
<g>
</g>
<g>
</g>
<g>
</g>
<g>
</g>
<g>
</g>
<g>
</g>
<g>
</g>
<g>
</g>
<g>
</g>
<g>
</g>
<g>
</g>
<g>
</g>
<g>
</g>
</svg>
