<?xml version="1.0" encoding="iso-8859-1"?>
<!-- Generator: Adobe Illustrator 19.0.0, SVG Export Plug-In . SVG Version: 6.00 Build 0)  -->
<svg xmlns="http://www.w3.org/2000/svg" xmlns:xlink="http://www.w3.org/1999/xlink" version="1.1" id="Layer_1" x="0px" y="0px" viewBox="0 0 512 512" style="enable-background:new 0 0 512 512;" xml:space="preserve">
<g>
	<g>
		<rect x="100.174" y="411.826" width="33.391" height="100.174"/>
	</g>
</g>
<g>
	<g>
		<path d="M217.043,111.304h-16.696c0-31.053-21.329-57.143-50.087-64.586V16.696C150.261,7.479,142.782,0,133.565,0    S116.87,7.479,116.87,16.696v30.023c-28.758,7.443-50.087,33.533-50.087,64.586H50.087c-9.217,0-16.696,7.479-16.696,16.696    v116.87H16.696C7.479,244.87,0,252.348,0,261.565v233.739C0,504.521,7.479,512,16.696,512h50.087V395.13    c0-9.217,7.479-16.696,16.696-16.696h66.783c9.217,0,16.696,7.479,16.696,16.696V512h50.087c9.217,0,16.696-7.479,16.696-16.696    V128C233.739,118.783,226.261,111.304,217.043,111.304z M150.261,345.043H83.478c-9.217,0-16.696-7.479-16.696-16.696    s7.479-16.696,16.696-16.696h66.783c9.217,0,16.696,7.479,16.696,16.696S159.478,345.043,150.261,345.043z M150.261,211.478    H116.87c-9.217,0-16.696-7.479-16.696-16.696c0-9.217,7.479-16.696,16.696-16.696h33.391c9.217,0,16.696,7.479,16.696,16.696    C166.957,204,159.478,211.478,150.261,211.478z"/>
	</g>
</g>
<g>
	<g>
		<path d="M495.304,44.522H283.826c-9.217,0-16.696,7.479-16.696,16.696V244.87h94.609c27.619,0,50.087,22.468,50.087,50.087V512    h83.478c9.217,0,16.696-7.479,16.696-16.696V61.217C512,52,504.521,44.522,495.304,44.522z M411.826,194.783    c0,9.217-7.479,16.696-16.696,16.696s-16.696-7.479-16.696-16.696V94.609c0-9.217,7.479-16.696,16.696-16.696    s16.696,7.479,16.696,16.696V194.783z M478.609,461.913c0,9.217-7.479,16.696-16.696,16.696s-16.696-7.479-16.696-16.696V395.13    c0-9.217,7.479-16.696,16.696-16.696s16.696,7.479,16.696,16.696V461.913z M478.609,328.348c0,9.217-7.479,16.696-16.696,16.696    s-16.696-7.479-16.696-16.696v-33.391c0-9.217,7.479-16.696,16.696-16.696s16.696,7.479,16.696,16.696V328.348z M478.609,228.174    c0,9.217-7.479,16.696-16.696,16.696s-16.696-7.479-16.696-16.696v-33.391c0-9.217,7.479-16.696,16.696-16.696    s16.696,7.479,16.696,16.696V228.174z M478.609,128c0,9.217-7.479,16.696-16.696,16.696s-16.696-7.479-16.696-16.696V94.609    c0-9.217,7.479-16.696,16.696-16.696s16.696,7.479,16.696,16.696V128z"/>
	</g>
</g>
<g>
	<g>
		<rect x="267.13" y="378.435" width="111.304" height="33.391"/>
	</g>
</g>
<g>
	<g>
		<path d="M267.13,445.217V512h94.609c9.22,0,16.696-7.475,16.696-16.696v-50.087H267.13z"/>
	</g>
</g>
<g>
	<g>
		<path d="M361.739,278.261H267.13v66.783h111.304v-50.087C378.435,285.736,370.96,278.261,361.739,278.261z"/>
	</g>
</g>
<g>
</g>
<g>
</g>
<g>
</g>
<g>
</g>
<g>
</g>
<g>
</g>
<g>
</g>
<g>
</g>
<g>
</g>
<g>
</g>
<g>
</g>
<g>
</g>
<g>
</g>
<g>
</g>
<g>
</g>
</svg>
