<?xml version="1.0" encoding="iso-8859-1"?>
<!-- Generator: Adobe Illustrator 19.0.0, SVG Export Plug-In . SVG Version: 6.00 Build 0)  -->
<svg xmlns="http://www.w3.org/2000/svg" xmlns:xlink="http://www.w3.org/1999/xlink" version="1.1" id="Layer_1" x="0px" y="0px" viewBox="0 0 512 512" style="enable-background:new 0 0 512 512;" xml:space="preserve">
<g>
	<g>
		<path d="M461.913,0H116.87C89.25,0,66.783,22.468,66.783,50.087v33.391H50.087C22.468,83.478,0,105.946,0,133.565v83.478    c0,27.619,22.468,50.087,50.087,50.087h200.348c9.206,0,16.696,7.49,16.696,16.696v8.642    c-19.391,6.914-33.391,25.273-33.391,47.01v122.435c0,27.619,22.468,50.087,50.087,50.087c27.619,0,50.087-22.468,50.087-50.087    V339.478c0-21.737-14-40.096-33.391-47.01v-8.642c0-27.619-22.468-50.087-50.087-50.087H50.087    c-9.206,0-16.696-7.49-16.696-16.696v-83.478c0-9.206,7.49-16.696,16.696-16.696h16.696v33.391    c0,27.619,22.468,50.087,50.065,50.087h228.196v16.696c0,27.619,22.468,50.087,50.087,50.087s50.087-22.468,50.087-50.087v-16.696    h16.696c27.619,0,50.087-22.468,50.087-50.087V50.087C512,22.468,489.532,0,461.913,0z M116.87,166.957    c-9.206,0-16.696-7.49-16.696-16.696v-50.087h94.609c9.206,0,16.696,7.49,16.696,16.696v33.391c0,5.882,1.205,11.448,3.076,16.696    H116.87z M345.043,166.957h-36.468c1.871-5.248,3.076-10.813,3.076-16.696V116.87c0-9.206,7.49-16.696,16.696-16.696    s16.696,7.49,16.696,16.696V166.957z M478.609,150.261c0,9.206-7.49,16.696-16.696,16.696h-16.696V116.87    c0-9.206,7.49-16.696,16.696-16.696h16.696V150.261z"/>
	</g>
</g>
<g>
</g>
<g>
</g>
<g>
</g>
<g>
</g>
<g>
</g>
<g>
</g>
<g>
</g>
<g>
</g>
<g>
</g>
<g>
</g>
<g>
</g>
<g>
</g>
<g>
</g>
<g>
</g>
<g>
</g>
</svg>
