<?xml version="1.0" encoding="iso-8859-1"?>
<!-- Generator: Adobe Illustrator 19.0.0, SVG Export Plug-In . SVG Version: 6.00 Build 0)  -->
<svg xmlns="http://www.w3.org/2000/svg" xmlns:xlink="http://www.w3.org/1999/xlink" version="1.1" id="Layer_1" x="0px" y="0px" viewBox="0 0 512 512" style="enable-background:new 0 0 512 512;" xml:space="preserve">
<g>
	<g>
		<path d="M116.87,47.304v38.956c0,33.81,27.408,61.217,61.217,61.217s61.217-27.408,61.217-61.217V47.304H116.87z"/>
	</g>
</g>
<g>
	<g>
		<path d="M272.696,47.304v38.956c0,33.81,27.408,61.217,61.217,61.217s61.217-27.408,61.217-61.217V47.304H272.696z"/>
	</g>
</g>
<g>
	<g>
		<path d="M428.522,47.304v38.956c0,33.81,27.409,61.217,61.217,61.217c7.864,0,15.354-1.535,22.261-4.236V47.304H428.522z"/>
	</g>
</g>
<g>
	<g>
		<path d="M0,47.304v95.937c6.906,2.701,14.397,4.237,22.261,4.237c33.81,0,61.217-27.408,61.217-61.217V47.304H0z"/>
	</g>
</g>
<g>
	<g>
		<path d="M333.913,256.68c-14.055,20.385-35.931,34.857-61.217,39.402v7.223c0,33.81,27.409,61.217,61.217,61.217    c33.81,0,61.217-27.408,61.217-61.217v-7.223C369.844,291.537,347.969,277.065,333.913,256.68z"/>
	</g>
</g>
<g>
	<g>
		<path d="M0,216.405c0,3.372,0,141.276,0,143.88c40.375,15.79,83.478-14.161,83.478-56.98v-7.131    C32.252,286.999,17.233,248.569,0,216.405z"/>
	</g>
</g>
<g>
	<g>
		<path d="M178.087,256.68c-14.056,20.385-35.931,34.857-61.217,39.402v7.223c0,33.81,27.409,61.217,61.217,61.217    c33.81,0,61.217-27.408,61.217-61.217v-7.223C214.018,291.537,192.142,277.065,178.087,256.68z"/>
	</g>
</g>
<g>
	<g>
		<path d="M256,139.812c-14.056,20.385-35.931,34.857-61.217,39.402v23.917c0,33.81,27.409,61.217,61.217,61.217    c33.81,0,61.217-27.408,61.217-61.217v-23.918C291.931,174.669,270.056,160.196,256,139.812z"/>
	</g>
</g>
<g>
	<g>
		<path d="M472.71,179.212c-25.286-4.545-46.828-19.016-60.883-39.402c-14.056,20.385-35.931,34.857-61.217,39.402v23.918    c0,33.81,27.409,61.217,61.217,61.217C480.247,264.348,472.71,207.712,472.71,179.212z"/>
	</g>
</g>
<g>
	<g>
		<path d="M100.174,139.812c-14.056,20.385-35.931,34.857-61.217,39.402v23.917c0,33.81,27.409,61.217,61.217,61.217    c33.81,0,61.217-27.408,61.217-61.217v-23.918C136.105,174.669,114.229,160.196,100.174,139.812z"/>
	</g>
</g>
<g>
	<g>
		<path d="M256,356.854c-14.056,20.385-35.931,34.857-61.217,39.402v7.223c0,33.81,27.409,61.217,61.217,61.217    c33.81,0,61.217-27.408,61.217-61.217v-7.223C291.931,391.711,270.055,377.239,256,356.854z"/>
	</g>
</g>
<g>
	<g>
		<path d="M411.826,356.854c-14.056,20.385-35.931,34.857-61.217,39.402v7.223c0,33.81,27.409,61.217,61.217,61.217    c33.81,0,61.217-27.408,61.217-61.217v-7.223C447.757,391.711,425.882,377.239,411.826,356.854z"/>
	</g>
</g>
<g>
	<g>
		<path d="M100.174,356.854c-14.056,20.385-35.931,34.857-61.217,39.402v7.223c0,33.81,27.409,61.217,61.217,61.217    c33.81,0,61.217-27.408,61.217-61.217v-7.223C136.105,391.711,114.229,377.239,100.174,356.854z"/>
	</g>
</g>
<g>
	<g>
		<path d="M428.522,296.173v7.131c0,43.083,43.354,72.674,83.478,56.981c0-63.15,0-96.139,0-143.881    C494.533,249.007,479.605,287.024,428.522,296.173z"/>
	</g>
</g>
<g>
</g>
<g>
</g>
<g>
</g>
<g>
</g>
<g>
</g>
<g>
</g>
<g>
</g>
<g>
</g>
<g>
</g>
<g>
</g>
<g>
</g>
<g>
</g>
<g>
</g>
<g>
</g>
<g>
</g>
</svg>
