<?xml version="1.0" encoding="iso-8859-1"?>
<!-- Generator: Adobe Illustrator 19.0.0, SVG Export Plug-In . SVG Version: 6.00 Build 0)  -->
<svg xmlns="http://www.w3.org/2000/svg" xmlns:xlink="http://www.w3.org/1999/xlink" version="1.1" id="Layer_1" x="0px" y="0px" viewBox="0 0 512 512" style="enable-background:new 0 0 512 512;" xml:space="preserve">
<g>
	<g>
		<path d="M499.252,439.354c-14.282-19.64-38.857-30.238-62.857-26.945c-13.043-23.097-39.77-37.085-66.78-33.39    c-11.63-20.597-33.629-33.988-57.965-33.988c-24.336,0-46.336,13.391-57.965,33.988c-26.977-3.695-53.737,10.293-66.78,33.39    c-24.01-3.293-48.575,7.305-62.857,26.945c-12.761,17.553-16.119,39.813-9.228,61.085c2.254,6.932,8.59,11.394,15.504,11.543    c1.824,0.04,362.276,0,362.276,0c7.043,0,13.598-4.489,15.88-11.543C515.371,479.169,512.013,456.909,499.252,439.354z"/>
	</g>
</g>
<g>
	<g>
		<path d="M495.295,77.91H333.91v236.291c20.257,4.675,38.621,15.582,52.534,31.164c25.488,2.115,49.529,14.246,66.67,33.39    c21.704,1.892,42.517,10.796,58.878,25.265V94.605C511.99,85.367,504.533,77.91,495.295,77.91z M461.905,278.251h-77.91    c-9.238,0-16.695-7.457-16.695-16.695c0-9.238,7.457-16.695,16.695-16.695h77.91c9.238,0,16.695,7.457,16.695,16.695    C478.6,270.794,471.143,278.251,461.905,278.251z M461.905,211.471h-77.91c-9.238,0-16.695-7.457-16.695-16.695    c0-9.238,7.457-16.695,16.695-16.695h77.91c9.238,0,16.695,7.457,16.695,16.695C478.6,204.014,471.143,211.471,461.905,211.471z     M461.905,144.691h-77.91c-9.238,0-16.695-7.457-16.695-16.695c0-9.238,7.457-16.695,16.695-16.695h77.91    c9.238,0,16.695,7.457,16.695,16.695C478.6,137.234,471.143,144.691,461.905,144.691z"/>
	</g>
</g>
<g>
	<g>
		<path d="M283.825,0H16.703C7.465,0,0.008,7.457,0.008,16.695v478.592c0,9.238,7.457,16.695,16.695,16.695h66.892    c-0.111-0.445-0.445-0.779-0.557-1.224c-8.57-26.49-6.233-53.981,6.01-77.688c-1.781,0.557-3.673,1.002-5.565,1.002    c-9.238,0-16.695-7.457-16.695-16.695v-33.39c0-9.238,7.457-16.695,16.695-16.695c9.238,0,16.695,7.457,16.695,16.695v31.943    c9.127-11.353,20.591-20.368,33.39-26.712v-5.231c0-9.238,7.457-16.695,16.695-16.695c7.568,0,13.913,5.12,15.916,12.02    c1.336-0.11,2.671-0.445,4.007-0.557c8.57-9.572,18.81-17.363,30.162-23.039v-71.9c0-9.238,7.457-16.695,16.695-16.695    c9.238,0,16.695,7.457,16.695,16.695v61.883c1.002-0.111,2.115-0.223,3.116-0.334c16.361-18.365,39.065-30.274,63.664-33.056    c0-185.538,0-173.295,0-295.614C300.52,7.457,293.063,0,283.825,0z M100.179,317.206c0,9.238-7.457,16.695-16.695,16.695    c-9.238,0-16.695-7.457-16.695-16.695v-33.39c0-9.238,7.457-16.695,16.695-16.695s16.695,7.457,16.695,16.695V317.206z     M100.179,217.036c0,9.238-7.457,16.695-16.695,16.695c-9.238,0-16.695-7.457-16.695-16.695v-33.39    c0-9.238,7.457-16.695,16.695-16.695s16.695,7.457,16.695,16.695V217.036z M100.179,116.865c0,9.238-7.457,16.695-16.695,16.695    c-9.238,0-16.695-7.457-16.695-16.695v-22.26c0-9.238,7.457-16.695,16.695-16.695s16.695,7.457,16.695,16.695V116.865z     M166.959,331.23c0,9.238-7.457,16.695-16.695,16.695c-9.238,0-16.695-7.457-16.695-16.695v-47.414    c0-9.238,7.457-16.695,16.695-16.695c9.238,0,16.695,7.457,16.695,16.695V331.23z M166.959,217.036    c0,9.238-7.457,16.695-16.695,16.695c-9.238,0-16.695-7.457-16.695-16.695v-33.39c0-9.238,7.457-16.695,16.695-16.695    c9.238,0,16.695,7.457,16.695,16.695V217.036z M166.959,116.865c0,9.238-7.457,16.695-16.695,16.695    c-9.238,0-16.695-7.457-16.695-16.695v-22.26c0-9.238,7.457-16.695,16.695-16.695c9.238,0,16.695,7.457,16.695,16.695V116.865z     M233.739,217.036c0,9.238-7.457,16.695-16.695,16.695c-9.238,0-16.695-7.457-16.695-16.695v-33.39    c0-9.238,7.457-16.695,16.695-16.695c9.238,0,16.695,7.457,16.695,16.695V217.036z M233.739,116.865    c0,9.238-7.457,16.695-16.695,16.695c-9.238,0-16.695-7.457-16.695-16.695v-22.26c0-9.238,7.457-16.695,16.695-16.695    c9.238,0,16.695,7.457,16.695,16.695V116.865z"/>
	</g>
</g>
<g>
</g>
<g>
</g>
<g>
</g>
<g>
</g>
<g>
</g>
<g>
</g>
<g>
</g>
<g>
</g>
<g>
</g>
<g>
</g>
<g>
</g>
<g>
</g>
<g>
</g>
<g>
</g>
<g>
</g>
</svg>
