<?xml version="1.0" encoding="iso-8859-1"?>
<!-- Generator: Adobe Illustrator 19.0.0, SVG Export Plug-In . SVG Version: 6.00 Build 0)  -->
<svg xmlns="http://www.w3.org/2000/svg" xmlns:xlink="http://www.w3.org/1999/xlink" version="1.1" id="Layer_1" x="0px" y="0px" viewBox="0 0 512 512" style="enable-background:new 0 0 512 512;" xml:space="preserve">
<g>
	<g>
		<rect x="133.565" y="233.739" width="66.783" height="278.261"/>
	</g>
</g>
<g>
	<g>
		<rect x="133.565" y="133.565" width="378.435" height="66.783"/>
	</g>
</g>
<g>
	<g>
		<path d="M233.739,233.739v66.783h261.565c9.22,0,16.696-7.475,16.696-16.696v-50.087H233.739z"/>
	</g>
</g>
<g>
	<g>
		<path d="M0,133.565v361.739C0,504.521,7.479,512,16.696,512h83.478V133.565H0z"/>
	</g>
</g>
<g>
	<g>
		<path d="M495.304,0C89.927,0,176.262,0,16.696,0C7.479,0,0,7.479,0,16.696v83.478c121.356,0,388.441,0,512,0V16.696    C512,7.479,504.521,0,495.304,0z"/>
	</g>
</g>
<g>
	<g>
		<path d="M233.739,333.913V512h83.478c9.217,0,16.696-7.479,16.696-16.696V333.913H233.739z"/>
	</g>
</g>
<g>
</g>
<g>
</g>
<g>
</g>
<g>
</g>
<g>
</g>
<g>
</g>
<g>
</g>
<g>
</g>
<g>
</g>
<g>
</g>
<g>
</g>
<g>
</g>
<g>
</g>
<g>
</g>
<g>
</g>
</svg>
