<?xml version="1.0" encoding="iso-8859-1"?>
<!-- Generator: Adobe Illustrator 19.0.0, SVG Export Plug-In . SVG Version: 6.00 Build 0)  -->
<svg xmlns="http://www.w3.org/2000/svg" xmlns:xlink="http://www.w3.org/1999/xlink" version="1.1" id="Layer_1" x="0px" y="0px" viewBox="0 0 512 512" style="enable-background:new 0 0 512 512;" xml:space="preserve">
<g>
	<g>
		<path d="M233.739,350.609v77.913c0,9.223,7.479,16.696,16.696,16.696c9.217,0,16.696-7.473,16.696-16.696v-77.913    C267.13,328.554,233.739,328.513,233.739,350.609z"/>
	</g>
</g>
<g>
	<g>
		<path d="M417.391,445.217c-9.217,0-16.696,7.473-16.696,16.696c0,9.206-7.49,16.696-16.696,16.696s-16.696-7.49-16.696-16.696    V350.609c0-22.055-33.391-22.096-33.391,0v111.304C333.913,489.532,356.381,512,384,512s50.087-22.468,50.087-50.087    C434.087,452.69,426.608,445.217,417.391,445.217z"/>
	</g>
</g>
<g>
	<g>
		<path d="M133.565,350.609v111.304c0,9.206-7.49,16.696-16.696,16.696s-16.696-7.49-16.696-16.696    c0-9.223-7.479-16.696-16.696-16.696s-16.696,7.473-16.696,16.696c0,27.619,22.468,50.087,50.087,50.087    c27.619,0,50.087-22.468,50.087-50.087V350.609C166.957,328.554,133.565,328.513,133.565,350.609z"/>
	</g>
</g>
<g>
	<g>
		<path d="M461.913,0H50.087C22.468,0,0,22.468,0,50.087v200.348c0,27.619,22.468,50.087,50.087,50.087    c146.458,0,264.675,0,411.826,0c27.619,0,50.087-22.468,50.087-50.087V50.087C512,22.468,489.532,0,461.913,0z M361.739,66.783    c9.22,0,16.696,7.475,16.696,16.696s-7.475,16.696-16.696,16.696s-16.696-7.475-16.696-16.696S352.519,66.783,361.739,66.783z     M66.783,83.478c0-9.223,7.479-16.696,16.696-16.696h211.478c9.217,0,16.696,7.473,16.696,16.696s-7.479,16.696-16.696,16.696    H83.478C74.261,100.174,66.783,92.701,66.783,83.478z M411.826,267.13H100.174v-33.391h311.652V267.13z M411.826,200.348H100.174    v-16.696c0-9.206,7.49-16.696,16.696-16.696H395.13c9.206,0,16.696,7.49,16.696,16.696V200.348z M428.522,100.174    c-9.22,0-16.696-7.475-16.696-16.696s7.475-16.696,16.696-16.696s16.696,7.475,16.696,16.696S437.742,100.174,428.522,100.174z"/>
	</g>
</g>
<g>
</g>
<g>
</g>
<g>
</g>
<g>
</g>
<g>
</g>
<g>
</g>
<g>
</g>
<g>
</g>
<g>
</g>
<g>
</g>
<g>
</g>
<g>
</g>
<g>
</g>
<g>
</g>
<g>
</g>
</svg>
