<?xml version="1.0" encoding="iso-8859-1"?>
<!-- Generator: Adobe Illustrator 19.0.0, SVG Export Plug-In . SVG Version: 6.00 Build 0)  -->
<svg xmlns="http://www.w3.org/2000/svg" xmlns:xlink="http://www.w3.org/1999/xlink" version="1.1" id="Layer_1" x="0px" y="0px" viewBox="0 0 512 512" style="enable-background:new 0 0 512 512;" xml:space="preserve">
<g>
	<g>
		<path d="M495.304,372.87c-9.217,0-16.696,7.473-16.696,16.696v16.696H367.304v-66.783h26.608    c22.153,0,40.174-18.021,40.174-40.174v-53.218c0-22.152-18.021-40.173-40.174-40.173h-26.608v-16.696    c0-64.441-52.424-116.87-116.87-116.87H116.87C52.424,72.348,0,124.777,0,189.217v133.565c0,64.441,52.424,116.87,116.87,116.87    c133.897,0,234.248,0,378.435,0c9.217,0,16.696-7.473,16.696-16.696v-33.391C512,380.343,504.521,372.87,495.304,372.87z     M367.304,239.304h26.608c3.739,0,6.783,3.043,6.783,6.783v53.218c0,3.739-3.043,6.783-6.783,6.783h-26.608V239.304z     M183.652,372.87c-64.445,0-116.87-52.429-116.87-116.87s52.424-116.87,116.87-116.87s116.87,52.429,116.87,116.87    S248.097,372.87,183.652,372.87z"/>
	</g>
</g>
<g>
	<g>
		<path d="M183.652,172.522c-46.032,0-83.478,37.446-83.478,83.478s37.446,83.478,83.478,83.478    c46.032,0,83.478-37.446,83.478-83.478S229.684,172.522,183.652,172.522z M183.652,306.087c-27.619,0-50.087-22.468-50.087-50.087    s22.468-50.087,50.087-50.087c27.619,0,50.087,22.468,50.087,50.087S211.271,306.087,183.652,306.087z"/>
	</g>
</g>
<g>
</g>
<g>
</g>
<g>
</g>
<g>
</g>
<g>
</g>
<g>
</g>
<g>
</g>
<g>
</g>
<g>
</g>
<g>
</g>
<g>
</g>
<g>
</g>
<g>
</g>
<g>
</g>
<g>
</g>
</svg>
