<?xml version="1.0" encoding="iso-8859-1"?>
<!-- Generator: Adobe Illustrator 19.0.0, SVG Export Plug-In . SVG Version: 6.00 Build 0)  -->
<svg xmlns="http://www.w3.org/2000/svg" xmlns:xlink="http://www.w3.org/1999/xlink" version="1.1" id="Layer_1" x="0px" y="0px" viewBox="0 0 512 512" style="enable-background:new 0 0 512 512;" xml:space="preserve">
<g>
	<g>
		<path d="M361.739,155.826H244.87v83.478h133.565v-66.783C378.435,163.301,370.96,155.826,361.739,155.826z"/>
	</g>
</g>
<g>
	<g>
		<rect x="144.696" y="272.696" width="133.565" height="83.478"/>
	</g>
</g>
<g>
	<g>
		<rect y="155.826" width="211.478" height="83.478"/>
	</g>
</g>
<g>
	<g>
		<rect x="211.478" y="389.565" width="166.956" height="83.478"/>
	</g>
</g>
<g>
	<g>
		<rect y="272.696" width="111.304" height="83.478"/>
	</g>
</g>
<g>
	<g>
		<path d="M294.957,38.957c-85.833,0-111.026,0-117.388,0c-1.456,0-1.928,0-1.912,0c-3.3,0-11.668,0-30.961,0v83.478h166.956V55.652    C311.652,46.43,304.174,38.957,294.957,38.957z"/>
	</g>
</g>
<g>
	<g>
		<path d="M411.826,389.565v83.478h83.478c9.217,0,16.696-7.473,16.696-16.696v-66.783H411.826z"/>
	</g>
</g>
<g>
	<g>
		<path d="M0,389.565v66.783c0,9.223,7.479,16.696,16.696,16.696h161.391v-83.478H0z"/>
	</g>
</g>
<g>
	<g>
		<path d="M16.696,38.957C7.479,38.957,0,46.43,0,55.652v66.783h111.304V38.957H16.696z"/>
	</g>
</g>
<g>
	<g>
		<path d="M495.304,272.696H311.652v83.478H512v-66.783C512,280.171,504.525,272.696,495.304,272.696z"/>
	</g>
</g>
<g>
</g>
<g>
</g>
<g>
</g>
<g>
</g>
<g>
</g>
<g>
</g>
<g>
</g>
<g>
</g>
<g>
</g>
<g>
</g>
<g>
</g>
<g>
</g>
<g>
</g>
<g>
</g>
<g>
</g>
</svg>
