<?xml version="1.0" encoding="iso-8859-1"?>
<!-- Generator: Adobe Illustrator 19.0.0, SVG Export Plug-In . SVG Version: 6.00 Build 0)  -->
<svg xmlns="http://www.w3.org/2000/svg" xmlns:xlink="http://www.w3.org/1999/xlink" version="1.1" id="Layer_1" x="0px" y="0px" viewBox="0 0 512 512" style="enable-background:new 0 0 512 512;" xml:space="preserve">
<g>
	<g>
		<path d="M478.609,261.565v-61.217h16.696c9.217,0,16.696-7.479,16.696-16.696V83.478c0-27.619-22.468-50.087-50.087-50.087    H297.262L267.609,4.696c-6.478-6.261-16.739-6.261-23.217,0l-29.654,28.695H50.087C22.468,33.391,0,55.859,0,83.478v100.174    c0,9.217,7.479,16.696,16.696,16.696h16.696v278.261H16.696C7.479,478.609,0,486.087,0,495.304C0,504.521,7.479,512,16.696,512    c64.623,0,425.721,0,478.609,0c9.217,0,16.696-7.479,16.696-16.696c0-9.217-7.479-16.696-16.696-16.696h-16.696V395.13V261.565z     M49.524,166.956c-0.493,0-0.646,0-0.63,0c-1.35,0-5.279,0-15.502,0V83.478h0c0-9.206,7.49-16.696,16.696-16.696h130.146    L76.718,166.956C57.544,166.956,51.299,166.956,49.524,166.956z M239.304,345.043h-16.696c-9.217,0-16.696,7.479-16.696,16.696    s7.479,16.696,16.696,16.696h16.696v100.174H133.565V278.261h105.739V345.043z M256,200.348    c-27.619,0-50.087-22.468-50.087-50.087c0-27.619,22.468-50.087,50.087-50.087s50.087,22.468,50.087,50.087    C306.087,177.88,283.619,200.348,256,200.348z M445.217,411.826H322.783c-9.22,0-16.696-7.475-16.696-16.696V294.956    c0-9.22,7.475-16.696,16.696-16.696h122.435V411.826z M463.109,166.956c-0.447,0-0.614,0-0.627,0c-1.77,0-8.01,0-27.2,0    L331.767,66.782h130.146c9.206,0,16.696,7.49,16.696,16.696v83.478C468.379,166.956,464.454,166.956,463.109,166.956z"/>
	</g>
</g>
<g>
	<g>
		<path d="M256,133.565c-9.206,0-16.696,7.49-16.696,16.696s7.49,16.696,16.696,16.696c9.206,0,16.696-7.49,16.696-16.696    S265.206,133.565,256,133.565z"/>
	</g>
</g>
<g>
</g>
<g>
</g>
<g>
</g>
<g>
</g>
<g>
</g>
<g>
</g>
<g>
</g>
<g>
</g>
<g>
</g>
<g>
</g>
<g>
</g>
<g>
</g>
<g>
</g>
<g>
</g>
<g>
</g>
</svg>
