<?xml version="1.0" encoding="iso-8859-1"?>
<!-- Generator: Adobe Illustrator 19.0.0, SVG Export Plug-In . SVG Version: 6.00 Build 0)  -->
<svg xmlns="http://www.w3.org/2000/svg" xmlns:xlink="http://www.w3.org/1999/xlink" version="1.1" id="Layer_1" x="0px" y="0px" viewBox="0 0 512 512" style="enable-background:new 0 0 512 512;" xml:space="preserve">
<g>
	<g>
		<path d="M389.565,200.348h-267.13c-27.619,0-50.087,22.468-50.087,50.087v77.913C72.348,429.609,154.739,512,256,512    s183.652-82.391,183.652-183.652v-77.913C439.652,222.816,417.184,200.348,389.565,200.348z M272.696,364.228v53.163    c0,9.217-7.479,16.696-16.696,16.696s-16.696-7.479-16.696-16.696v-53.163c-19.391-6.914-33.391-25.273-33.391-47.01    c0-27.619,22.468-50.087,50.087-50.087s50.087,22.468,50.087,50.087C306.087,338.954,292.087,357.314,272.696,364.228z"/>
	</g>
</g>
<g>
	<g>
		<path d="M256,300.522c-9.206,0-16.696,7.49-16.696,16.696c0,9.206,7.49,16.696,16.696,16.696s16.696-7.49,16.696-16.696    C272.696,308.011,265.206,300.522,256,300.522z"/>
	</g>
</g>
<g>
	<g>
		<path d="M256,0c-82.858,0-150.261,67.408-150.261,150.261v16.696h100.174v-16.696c0-27.619,22.468-50.087,50.087-50.087    s50.087,22.468,50.087,50.087v16.696h100.174v-16.696C406.261,67.408,338.858,0,256,0z"/>
	</g>
</g>
<g>
</g>
<g>
</g>
<g>
</g>
<g>
</g>
<g>
</g>
<g>
</g>
<g>
</g>
<g>
</g>
<g>
</g>
<g>
</g>
<g>
</g>
<g>
</g>
<g>
</g>
<g>
</g>
<g>
</g>
</svg>
