<?xml version="1.0" encoding="iso-8859-1"?>
<!-- Generator: Adobe Illustrator 19.0.0, SVG Export Plug-In . SVG Version: 6.00 Build 0)  -->
<svg xmlns="http://www.w3.org/2000/svg" xmlns:xlink="http://www.w3.org/1999/xlink" version="1.1" id="Layer_1" x="0px" y="0px" viewBox="0 0 512 512" style="enable-background:new 0 0 512 512;" xml:space="preserve">
<g>
	<g>
		<rect x="147.478" y="244.87" width="50.087" height="33.391"/>
	</g>
</g>
<g>
	<g>
		<rect x="147.478" y="311.652" width="50.087" height="33.391"/>
	</g>
</g>
<g>
	<g>
		<rect x="147.478" y="378.435" width="50.087" height="33.391"/>
	</g>
</g>
<g>
	<g>
		<rect x="230.957" y="311.652" width="50.087" height="33.391"/>
	</g>
</g>
<g>
	<g>
		<rect x="230.957" y="244.87" width="50.087" height="33.391"/>
	</g>
</g>
<g>
	<g>
		<rect x="314.435" y="244.87" width="50.087" height="33.391"/>
	</g>
</g>
<g>
	<g>
		<rect x="230.957" y="378.435" width="50.087" height="33.391"/>
	</g>
</g>
<g>
	<g>
		<path d="M414.609,0H97.391C69.772,0,47.304,22.468,47.304,50.087v411.826c0,27.619,22.468,50.087,50.087,50.087h317.217    c27.619,0,50.087-22.468,50.087-50.087V50.087C464.696,22.468,442.228,0,414.609,0z M397.913,428.522    c0,9.223-7.479,16.696-16.696,16.696c-97.011,0-169.292,0-250.435,0c-9.217,0-16.696-7.473-16.696-16.696V228.174    c0-9.223,7.479-16.696,16.696-16.696c81.041,0,153.296,0,250.435,0c9.217,0,16.696,7.473,16.696,16.696V428.522z M397.913,161.391    c0,9.223-7.479,16.696-16.696,16.696H130.783c-9.217,0-16.696-7.473-16.696-16.696V83.478c0-9.223,7.479-16.696,16.696-16.696    h250.435c9.217,0,16.696,7.473,16.696,16.696V161.391z"/>
	</g>
</g>
<g>
	<g>
		<rect x="147.478" y="100.174" width="217.043" height="44.522"/>
	</g>
</g>
<g>
	<g>
		<rect x="314.435" y="311.652" width="50.087" height="100.174"/>
	</g>
</g>
<g>
</g>
<g>
</g>
<g>
</g>
<g>
</g>
<g>
</g>
<g>
</g>
<g>
</g>
<g>
</g>
<g>
</g>
<g>
</g>
<g>
</g>
<g>
</g>
<g>
</g>
<g>
</g>
<g>
</g>
</svg>
