<?xml version="1.0" encoding="iso-8859-1"?>
<!-- Generator: Adobe Illustrator 19.0.0, SVG Export Plug-In . SVG Version: 6.00 Build 0)  -->
<svg xmlns="http://www.w3.org/2000/svg" xmlns:xlink="http://www.w3.org/1999/xlink" version="1.1" id="Layer_1" x="0px" y="0px" viewBox="0 0 511.999 511.999" style="enable-background:new 0 0 511.999 511.999;" xml:space="preserve">
<g>
	<g>
		<path d="M508.838,88.383c-1.922-13.681-18.676-19.331-28.445-9.56l-46.822,46.83h-47.227V78.433l46.84-46.84    c9.78-9.78,4.117-26.543-9.581-28.451c-30.281-4.215-61.649,5.223-84.475,28.069c-27.474,27.474-37.088,65.271-19.674,114.122    L143.165,321.616c-49.668-17.641-86.922-7.522-114.127,19.685c-22.429,22.425-32.344,53.93-28.052,84.488    c1.922,13.681,18.676,19.33,28.445,9.561l46.823-46.828h47.227v47.216l-46.842,46.834c-9.781,9.779-4.119,26.544,9.581,28.451    c30.216,4.205,61.617-5.186,84.478-28.059c27.472-27.478,37.088-65.272,19.674-114.122L366.66,192.564    c49.56,17.596,86.845,7.586,114.127-19.695C503.217,150.453,513.131,118.947,508.838,88.383z"/>
	</g>
</g>
<g>
	<g>
		<path d="M411.822,311.643c-19.463,0-31.745,5.198-43.531,9.445l-41.47-41.47l-47.2,47.197l41.486,41.477    c-4.263,11.817-9.456,24.031-9.456,43.521c-0.001,55.232,44.932,100.171,100.17,100.171s100.171-44.939,100.171-100.171    S467.059,311.643,411.822,311.643z M411.822,461.9c-27.572,0-50.086-22.339-50.086-50.086c0-27.618,22.467-50.086,50.086-50.086    c27.572,0,50.086,22.339,50.086,50.086C461.907,439.433,439.44,461.9,411.822,461.9z"/>
	</g>
</g>
<g>
	<g>
		<path d="M190.892,143.692c4.263-11.817,9.456-24.031,9.456-43.521C200.348,44.939,155.415,0,100.177,0S0.006,44.939,0.006,100.171    S44.94,200.342,100.178,200.342c19.463,0,31.745-5.198,43.531-9.445l41.471,41.485l47.204-47.203L190.892,143.692z     M100.178,150.257c-27.572,0-50.086-22.339-50.086-50.086c0-27.618,22.467-50.086,50.086-50.086    c27.572,0,50.086,22.339,50.086,50.086C150.264,127.789,127.796,150.257,100.178,150.257z"/>
	</g>
</g>
<g>
</g>
<g>
</g>
<g>
</g>
<g>
</g>
<g>
</g>
<g>
</g>
<g>
</g>
<g>
</g>
<g>
</g>
<g>
</g>
<g>
</g>
<g>
</g>
<g>
</g>
<g>
</g>
<g>
</g>
</svg>
