<?xml version="1.0" encoding="iso-8859-1"?>
<!-- Generator: Adobe Illustrator 19.0.0, SVG Export Plug-In . SVG Version: 6.00 Build 0)  -->
<svg xmlns="http://www.w3.org/2000/svg" xmlns:xlink="http://www.w3.org/1999/xlink" version="1.1" id="Layer_1" x="0px" y="0px" viewBox="0 0 512 512" style="enable-background:new 0 0 512 512;" xml:space="preserve">
<g>
	<g>
		<path d="M495.304,200.348c9.217,0,16.696-7.479,16.696-16.696v-33.391c0-27.619-22.468-50.087-50.087-50.087h-90.228    C363.555,43.609,314.772,0,256,0S148.445,43.609,140.315,100.174H50.087C22.468,100.174,0,122.642,0,150.261v33.391    c0,14.323,11.52,16.528,22.261,16.663c4.038,0.051,7.966-0.079,11.13-0.079c0,33.198,0,244.69,0,278.372H16.696    C7.479,478.609,0,486.087,0,495.304C0,504.521,7.479,512,16.696,512c274.253,0,241.263,0,478.609,0    c9.217,0,16.696-7.479,16.696-16.696c0-9.217-7.479-16.696-16.696-16.696h-16.696c0-102.363,0-176.281,0-278.261H495.304z     M139.13,367.304c0,9.217-7.479,16.696-16.696,16.696H66.783V267.13h55.652c9.217,0,16.696,7.473,16.696,16.696V367.304z     M306.087,389.565h-16.696c-9.217,0-16.696,7.479-16.696,16.696s7.479,16.696,16.696,16.696h16.696v55.652H205.913V333.913    h100.174V389.565z M208.989,300.522c6.914-19.391,25.273-33.391,47.01-33.391s40.096,14,47.011,33.391H208.989z M445.217,384    h-55.652c-9.217,0-16.696-7.479-16.696-16.696v-83.478c0-9.223,7.479-16.696,16.696-16.696h55.652V384z M33.391,166.957v-16.696    c0-9.206,7.49-16.696,16.696-16.696h105.739c9.217,0,16.696-7.479,16.696-16.696c0-46.032,37.446-83.478,83.478-83.478    s83.478,37.446,83.478,83.478c0,9.217,7.479,16.696,16.696,16.696h105.739c9.206,0,16.696,7.49,16.696,16.696v16.696    C311.343,166.957,200.649,166.957,33.391,166.957z"/>
	</g>
</g>
<g>
	<g>
		<path d="M289.391,100.174h-66.783c-9.217,0-16.696,7.479-16.696,16.696s7.479,16.696,16.696,16.696h66.783    c9.217,0,16.696-7.479,16.696-16.696S298.608,100.174,289.391,100.174z"/>
	</g>
</g>
<g>
</g>
<g>
</g>
<g>
</g>
<g>
</g>
<g>
</g>
<g>
</g>
<g>
</g>
<g>
</g>
<g>
</g>
<g>
</g>
<g>
</g>
<g>
</g>
<g>
</g>
<g>
</g>
<g>
</g>
</svg>
