<?xml version="1.0" encoding="iso-8859-1"?>
<!-- Generator: Adobe Illustrator 19.0.0, SVG Export Plug-In . SVG Version: 6.00 Build 0)  -->
<svg xmlns="http://www.w3.org/2000/svg" xmlns:xlink="http://www.w3.org/1999/xlink" version="1.1" id="Layer_1" x="0px" y="0px" viewBox="0 0 512 512" style="enable-background:new 0 0 512 512;" xml:space="preserve">
<g>
	<g>
		<path d="M256,278.261c-9.206,0-16.696,7.49-16.696,16.696c0,9.206,7.49,16.696,16.696,16.696s16.696-7.49,16.696-16.696    C272.696,285.751,265.206,278.261,256,278.261z"/>
	</g>
</g>
<g>
	<g>
		<path d="M372.87,445.217H139.13c-18.442,0-33.391,14.949-33.391,33.391v16.696c0,9.22,7.475,16.696,16.696,16.696h267.13    c9.22,0,16.696-7.475,16.696-16.696v-16.696C406.261,460.167,391.312,445.217,372.87,445.217z"/>
	</g>
</g>
<g>
	<g>
		<path d="M389.565,133.565c-9.116,0-14.692,0-17.978,0c-0.02,0-0.03,0-0.051,0c-7.357-51.072-47.765-91.483-98.84-98.841V16.696    C272.696,7.473,265.217,0,256,0s-16.696,7.473-16.696,16.696v18.029c-51.074,7.357-91.483,47.768-98.841,98.841    c-5.874,0-11.859,0-18.029,0c-9.217,0-16.696,7.473-16.696,16.696c0,9.217,7.479,16.696,16.696,16.696c60.27,0,215.236,0,267.13,0    c9.217,0,16.696-7.479,16.696-16.696C406.261,141.038,398.782,133.565,389.565,133.565z"/>
	</g>
</g>
<g>
	<g>
		<path d="M422.957,211.478c-9.217,0-16.696,7.479-16.696,16.696v16.696H372.87v-44.522H139.13v44.522h-33.391v-16.696    c0-9.217-7.479-16.696-16.696-16.696c-9.217,0-16.696,7.479-16.696,16.696v133.565c0,9.217,7.479,16.696,16.696,16.696    c9.217,0,16.696-7.479,16.696-16.696v-16.696h33.391v66.783H372.87v-66.783h33.391v16.696c0,9.217,7.479,16.696,16.696,16.696    c9.217,0,16.696-7.479,16.696-16.696V228.174C439.652,218.957,432.174,211.478,422.957,211.478z M139.13,311.652h-33.391v-33.391    h33.391V311.652z M256,345.043c-27.619,0-50.087-22.468-50.087-50.087c0-27.619,22.468-50.087,50.087-50.087    s50.087,22.468,50.087,50.087C306.087,322.576,283.619,345.043,256,345.043z M406.261,311.652H372.87v-33.391h33.391V311.652z"/>
	</g>
</g>
<g>
</g>
<g>
</g>
<g>
</g>
<g>
</g>
<g>
</g>
<g>
</g>
<g>
</g>
<g>
</g>
<g>
</g>
<g>
</g>
<g>
</g>
<g>
</g>
<g>
</g>
<g>
</g>
<g>
</g>
</svg>
