<?xml version="1.0" encoding="iso-8859-1"?>
<!-- Generator: Adobe Illustrator 19.0.0, SVG Export Plug-In . SVG Version: 6.00 Build 0)  -->
<svg xmlns="http://www.w3.org/2000/svg" xmlns:xlink="http://www.w3.org/1999/xlink" version="1.1" id="Layer_1" x="0px" y="0px" viewBox="0 0 512 512" style="enable-background:new 0 0 512 512;" xml:space="preserve">
<g>
	<g>
		<path d="M506.435,342.957v-42.435c0-67.511-54.924-122.435-122.435-122.435H280.587c-7.076-7.907-15.391-14.663-24.587-19.995    v-47.141c6.95-7.887,11.675-17.368,14.302-27.473h38.862c6.914,19.391,25.273,33.391,47.01,33.391    c27.619,0,50.087-22.468,50.087-50.087c0-27.619-22.468-50.087-50.087-50.087c-21.737,0-40.096,14-47.01,33.391h-38.666    C263.056,21.329,236.966,0,205.913,0s-57.143,21.329-64.585,50.087h-38.665c-6.914-19.391-25.274-33.391-47.01-33.391    c-27.619,0-50.087,22.468-50.087,50.087c0,27.619,22.468,50.087,50.087,50.087c21.737,0,40.096-14,47.01-33.391h38.862    c2.627,10.104,7.352,19.586,14.302,27.473v47.152c-9.185,5.31-17.489,12.065-24.587,19.984H22.261    c-9.217,0-16.696,7.473-16.696,16.696v100.174c0,9.223,7.479,16.696,16.696,16.696h108.967c19,21.326,45.772,33.391,74.685,33.391    s55.684-12.065,74.685-33.391h75.576c9.206,0,16.696,7.49,16.696,16.696v14.609c0,18.36,14.062,33.326,31.955,35.122    c-15.18,20.412-31.955,47.406-31.955,67.139c0,36.826,29.956,66.783,66.783,66.783s66.783-29.956,66.783-66.783    c0-19.733-16.776-46.727-31.955-67.139C492.373,376.282,506.435,361.316,506.435,342.957z M356.174,50.087    c9.206,0,16.696,7.49,16.696,16.696c0,9.206-7.49,16.696-16.696,16.696c-9.206,0-16.696-7.49-16.696-16.696    C339.478,57.577,346.968,50.087,356.174,50.087z M55.652,83.478c-9.206,0-16.696-7.49-16.696-16.696    c0-9.206,7.49-16.696,16.696-16.696c9.206,0,16.696,7.49,16.696,16.696C72.348,75.989,64.858,83.478,55.652,83.478z     M473.043,342.957c0,1.152-0.935,2.087-2.087,2.087h-62.609c-1.152,0-2.087-0.935-2.087-2.087v-14.609    c0-5.882-1.205-11.448-3.076-16.696h69.859V342.957z"/>
	</g>
</g>
<g>
</g>
<g>
</g>
<g>
</g>
<g>
</g>
<g>
</g>
<g>
</g>
<g>
</g>
<g>
</g>
<g>
</g>
<g>
</g>
<g>
</g>
<g>
</g>
<g>
</g>
<g>
</g>
<g>
</g>
</svg>
