<?xml version="1.0" encoding="iso-8859-1"?>
<!-- Generator: Adobe Illustrator 19.0.0, SVG Export Plug-In . SVG Version: 6.00 Build 0)  -->
<svg xmlns="http://www.w3.org/2000/svg" xmlns:xlink="http://www.w3.org/1999/xlink" version="1.1" id="Layer_1" x="0px" y="0px" viewBox="0 0 512 512" style="enable-background:new 0 0 512 512;" xml:space="preserve">
<g>
	<g>
		<path d="M289.391,100.174H155.826c-9.206,0-16.696,7.49-16.696,16.696s7.49,16.696,16.696,16.696h133.565    c9.206,0,16.696-7.49,16.696-16.696S298.597,100.174,289.391,100.174z"/>
	</g>
</g>
<g>
	<g>
		<path d="M489.739,0H22.261C13.044,0,5.565,7.473,5.565,16.696v478.609c0,9.223,7.479,16.696,16.696,16.696    c262.088,0,200.791,0,467.478,0c9.217,0,16.696-7.473,16.696-16.696V16.696C506.435,7.473,498.956,0,489.739,0z M205.913,478.609    H105.739v-244.87h100.174V478.609z M339.478,478.609H239.304v-244.87h100.174V478.609z M289.391,166.957H155.826    c-27.619,0-50.087-22.468-50.087-50.087c0-27.619,22.468-50.087,50.087-50.087h133.565c27.619,0,50.087,22.468,50.087,50.087    C339.478,144.489,317.01,166.957,289.391,166.957z M422.957,378.435c-9.22,0-16.696-7.475-16.696-16.696    s7.475-16.696,16.696-16.696c9.22,0,16.696,7.475,16.696,16.696S432.177,378.435,422.957,378.435z M422.957,311.652    c-9.22,0-16.696-7.475-16.696-16.696s7.475-16.696,16.696-16.696c9.22,0,16.696,7.475,16.696,16.696    S432.177,311.652,422.957,311.652z"/>
	</g>
</g>
<g>
</g>
<g>
</g>
<g>
</g>
<g>
</g>
<g>
</g>
<g>
</g>
<g>
</g>
<g>
</g>
<g>
</g>
<g>
</g>
<g>
</g>
<g>
</g>
<g>
</g>
<g>
</g>
<g>
</g>
</svg>
