<?xml version="1.0" encoding="iso-8859-1"?>
<!-- Generator: Adobe Illustrator 19.0.0, SVG Export Plug-In . SVG Version: 6.00 Build 0)  -->
<svg xmlns="http://www.w3.org/2000/svg" xmlns:xlink="http://www.w3.org/1999/xlink" version="1.1" id="Layer_1" x="0px" y="0px" viewBox="0 0 511.999 511.999" style="enable-background:new 0 0 511.999 511.999;" xml:space="preserve">
<g>
	<g>
		<path d="M507.094,194.049C313.479,0.435,415.549,102.494,317.942,4.898c-6.53-6.53-17.111-6.53-23.641,0    c-95.171,95.17-80.174,80.173-180.423,180.423c-19.042,19.042-19.101,49.871,0,68.959l35.114,35.119L25.787,388.76    c-32.021,25.823-34.623,73.844-5.497,102.946c29.119,29.143,77.1,26.538,102.946-5.503L222.591,363l35.114,35.114    c18.994,19.005,49.949,19.026,68.965,0l180.423-180.423C513.624,211.166,513.624,200.575,507.094,194.049z M200.398,146.082    l25.795-25.795c2.43,5.091,5.568,9.867,9.679,13.974c4.082,4.087,8.762,7.385,13.823,9.813l-25.657,25.652L200.398,146.082z     M259.513,228.838c-6.52,6.509-17.111,6.53-23.653,0c-6.509-6.52-6.509-17.127,0-23.647l70.936-70.93    c6.53-6.525,6.53-17.111,0-23.641s-17.111-6.525-23.641-0.006c-6.313,6.324-17.328,6.324-23.641,0    c-6.524-6.524-6.546-17.084,0-23.641l46.607-46.613l70.935,70.935L259.513,228.838z M365.908,311.591l-70.933-70.933    l105.723-105.723l23.532,23.532l-70.815,69.477c-6.585,6.466-6.694,17.051-0.217,23.641c6.418,6.567,17.029,6.709,23.641,0.229    l71.041-69.697l23.753,23.753L365.908,311.591z"/>
	</g>
</g>
<g>
</g>
<g>
</g>
<g>
</g>
<g>
</g>
<g>
</g>
<g>
</g>
<g>
</g>
<g>
</g>
<g>
</g>
<g>
</g>
<g>
</g>
<g>
</g>
<g>
</g>
<g>
</g>
<g>
</g>
</svg>
