<?xml version="1.0" encoding="iso-8859-1"?>
<!-- Generator: Adobe Illustrator 19.0.0, SVG Export Plug-In . SVG Version: 6.00 Build 0)  -->
<svg xmlns="http://www.w3.org/2000/svg" xmlns:xlink="http://www.w3.org/1999/xlink" version="1.1" id="Layer_1" x="0px" y="0px" viewBox="0 0 512.001 512.001" style="enable-background:new 0 0 512.001 512.001;" xml:space="preserve">
<g>
	<g>
		<path d="M492.369,19.556C466.303-6.51,423.887-6.52,397.832,19.533c-4.643,4.63-78.332,99.694-82.364,104.867    C197.261,130.028,84.485,182.977,4.847,270.677c0,0-0.008,0.004-0.01,0.007c0,0-0.004,0.009-0.009,0.013    c-6.102,6.707-5.984,14.946-1.579,21.236c0.553,0.79,0.883,1.685,1.588,2.39l212.765,212.764    c6.268,6.266,16.471,6.684,23.219,0.413c87.534-81.614,139.326-191.793,146.601-310.972    c4.928-3.841,100.583-78.012,104.978-82.453C518.444,88,518.423,45.609,492.369,19.556z M229.549,471.757L40.005,282.214    c7.819-7.993,15.952-15.624,24.358-22.924l187.865,187.865C245.012,455.605,237.462,463.817,229.549,471.757z M372.638,165.673    l-26.386-26.381l51.381-65.95l40.943,40.943L372.638,165.673z"/>
	</g>
</g>
<g>
</g>
<g>
</g>
<g>
</g>
<g>
</g>
<g>
</g>
<g>
</g>
<g>
</g>
<g>
</g>
<g>
</g>
<g>
</g>
<g>
</g>
<g>
</g>
<g>
</g>
<g>
</g>
<g>
</g>
</svg>
