<?xml version="1.0" encoding="iso-8859-1"?>
<!-- Generator: Adobe Illustrator 19.0.0, SVG Export Plug-In . SVG Version: 6.00 Build 0)  -->
<svg xmlns="http://www.w3.org/2000/svg" xmlns:xlink="http://www.w3.org/1999/xlink" version="1.1" id="Layer_1" x="0px" y="0px" viewBox="0 0 512 512" style="enable-background:new 0 0 512 512;" xml:space="preserve">
<g>
	<g>
		<path d="M484.174,311.652H306.087v11.13c0,27.619-22.468,50.087-50.087,50.087s-50.087-22.468-50.087-50.087v-11.13H27.826    c-10.024,0-19.466-2.47-27.826-6.758v118.063C0,472.054,39.946,512,89.044,512h333.913C472.054,512,512,472.054,512,422.957    V304.892C503.64,309.182,494.198,311.652,484.174,311.652z M89.044,478.609c-30.684,0-55.652-24.968-55.652-55.652v-22.261    c42.962,0,77.913,34.956,77.913,77.913H89.044z M478.609,422.957c0,30.684-24.968,55.652-55.652,55.652h-22.261    c0-42.957,34.951-77.913,77.913-77.913V422.957z"/>
	</g>
</g>
<g>
	<g>
		<path d="M456.348,100.174h-89.044V50.087C367.304,22.468,344.836,0,317.217,0H194.783c-27.619,0-50.087,22.468-50.087,50.087    v50.087H55.652C24.968,100.174,0,125.142,0,155.826v94.609c0,15.348,12.484,27.826,27.826,27.826h178.087V256    c0-9.217,7.473-16.696,16.696-16.696h66.783c9.223,0,16.696,7.479,16.696,16.696v22.261h178.087    c15.348,0,27.826-12.478,27.826-27.826v-94.609C512,125.142,487.032,100.174,456.348,100.174z M333.913,100.174H178.087V50.087    c0-9.206,7.49-16.696,16.696-16.696h122.435c9.206,0,16.696,7.49,16.696,16.696V100.174z"/>
	</g>
</g>
<g>
	<g>
		<path d="M239.304,272.696v50.087c0,9.206,7.49,16.696,16.696,16.696c9.206,0,16.696-7.49,16.696-16.696v-50.087H239.304z"/>
	</g>
</g>
<g>
</g>
<g>
</g>
<g>
</g>
<g>
</g>
<g>
</g>
<g>
</g>
<g>
</g>
<g>
</g>
<g>
</g>
<g>
</g>
<g>
</g>
<g>
</g>
<g>
</g>
<g>
</g>
<g>
</g>
</svg>
