<?xml version="1.0" encoding="iso-8859-1"?>
<!-- Generator: Adobe Illustrator 19.0.0, SVG Export Plug-In . SVG Version: 6.00 Build 0)  -->
<svg xmlns="http://www.w3.org/2000/svg" xmlns:xlink="http://www.w3.org/1999/xlink" version="1.1" id="Layer_1" x="0px" y="0px" viewBox="0 0 512 512" style="enable-background:new 0 0 512 512;" xml:space="preserve">
<g>
	<g>
		<path d="M5.565,411.826v83.478c0,9.22,7.475,16.696,16.696,16.696h111.304c9.22,0,16.696-7.475,16.696-16.696v-83.478H5.565z"/>
	</g>
</g>
<g>
	<g>
		<path d="M133.565,0H22.261C13.04,0,5.565,7.475,5.565,16.696v361.739h144.696V16.696C150.261,7.475,142.786,0,133.565,0z     M94.609,328.348c0,9.217-7.473,16.696-16.696,16.696c-9.223,0-16.696-7.479-16.696-16.696V217.043    c0-9.217,7.473-16.696,16.696-16.696c9.223,0,16.696,7.479,16.696,16.696V328.348z M94.609,166.957H61.217    c-9.223,0-16.696-7.479-16.696-16.696c0-9.217,7.473-16.696,16.696-16.696h33.391c9.223,0,16.696,7.479,16.696,16.696    C111.304,159.478,103.831,166.957,94.609,166.957z M94.609,100.174H61.217c-9.223,0-16.696-7.479-16.696-16.696    s7.473-16.696,16.696-16.696h33.391c9.223,0,16.696,7.479,16.696,16.696S103.831,100.174,94.609,100.174z"/>
	</g>
</g>
<g>
	<g>
		<path d="M183.652,411.826v83.478c0,9.22,7.475,16.696,16.696,16.696h111.304c9.22,0,16.696-7.475,16.696-16.696v-83.478H183.652z"/>
	</g>
</g>
<g>
	<g>
		<path d="M311.652,0H200.348c-9.22,0-16.696,7.475-16.696,16.696v361.739h144.696V16.696C328.348,7.475,320.873,0,311.652,0z     M272.696,328.348c0,9.217-7.473,16.696-16.696,16.696c-9.223,0-16.696-7.479-16.696-16.696V217.043    c0-9.217,7.473-16.696,16.696-16.696c9.223,0,16.696,7.479,16.696,16.696V328.348z M272.696,166.957h-33.391    c-9.223,0-16.696-7.479-16.696-16.696c0-9.217,7.473-16.696,16.696-16.696h33.391c9.223,0,16.696,7.479,16.696,16.696    C289.391,159.478,281.918,166.957,272.696,166.957z M272.696,100.174h-33.391c-9.223,0-16.696-7.479-16.696-16.696    s7.473-16.696,16.696-16.696h33.391c9.223,0,16.696,7.479,16.696,16.696S281.918,100.174,272.696,100.174z"/>
	</g>
</g>
<g>
	<g>
		<path d="M361.739,411.826v83.478c0,9.22,7.475,16.696,16.696,16.696h111.304c9.22,0,16.696-7.475,16.696-16.696v-83.478H361.739z"/>
	</g>
</g>
<g>
	<g>
		<path d="M489.739,0H378.435c-9.22,0-16.696,7.475-16.696,16.696v361.739h144.696V16.696C506.435,7.475,498.96,0,489.739,0z     M450.783,328.348c0,9.217-7.473,16.696-16.696,16.696c-9.223,0-16.696-7.479-16.696-16.696V217.043    c0-9.217,7.473-16.696,16.696-16.696c9.223,0,16.696,7.479,16.696,16.696V328.348z M450.783,166.957h-33.391    c-9.223,0-16.696-7.479-16.696-16.696c0-9.217,7.473-16.696,16.696-16.696h33.391c9.223,0,16.696,7.479,16.696,16.696    C467.478,159.478,460.005,166.957,450.783,166.957z M450.783,100.174h-33.391c-9.223,0-16.696-7.479-16.696-16.696    s7.473-16.696,16.696-16.696h33.391c9.223,0,16.696,7.479,16.696,16.696S460.005,100.174,450.783,100.174z"/>
	</g>
</g>
<g>
</g>
<g>
</g>
<g>
</g>
<g>
</g>
<g>
</g>
<g>
</g>
<g>
</g>
<g>
</g>
<g>
</g>
<g>
</g>
<g>
</g>
<g>
</g>
<g>
</g>
<g>
</g>
<g>
</g>
</svg>
