<?xml version="1.0" encoding="iso-8859-1"?>
<!-- Generator: Adobe Illustrator 19.0.0, SVG Export Plug-In . SVG Version: 6.00 Build 0)  -->
<svg xmlns="http://www.w3.org/2000/svg" xmlns:xlink="http://www.w3.org/1999/xlink" version="1.1" id="Layer_1" x="0px" y="0px" viewBox="0 0 512 512" style="enable-background:new 0 0 512 512;" xml:space="preserve">
<g>
	<g>
		<path d="M508.663,95.538l-50.087-66.783c-6.315-8.413-20.402-8.413-26.718,0l-50.087,66.783    c-2.163,2.892-3.337,6.402-3.337,10.016v50.087h-55.652v-50.087c0-3.614-1.174-7.125-3.337-10.016l-50.087-66.783    c-6.315-8.413-20.402-8.413-26.718,0l-50.087,66.783c-2.163,2.892-3.337,6.402-3.337,10.016v50.087h-55.652v-50.087    c0-3.614-1.174-7.125-3.337-10.016L80.141,28.756c-6.315-8.413-20.402-8.413-26.717,0L3.337,95.538    C1.174,98.43,0,101.94,0,105.555v367.304c0,9.223,7.473,16.696,16.696,16.696H116.87c9.223,0,16.696-7.473,16.696-16.696v-50.087    h55.652v50.087c0,9.223,7.473,16.696,16.696,16.696h100.174c9.217,0,16.696-7.473,16.696-16.696v-50.087h55.652v50.087    c0,9.223,7.473,16.696,16.696,16.696h100.174c9.217,0,16.696-7.473,16.696-16.696V105.555    C512,101.94,510.826,98.43,508.663,95.538z M189.217,389.381h-55.652v-33.391h55.652V389.381z M189.217,322.598h-55.652v-66.783    h55.652V322.598z M189.217,222.424h-55.652v-33.391h55.652V222.424z M378.435,389.381h-55.652v-33.391h55.652V389.381z     M378.435,322.598h-55.652v-66.783h55.652V322.598z M378.435,222.424h-55.652v-33.391h55.652V222.424z"/>
	</g>
</g>
<g>
</g>
<g>
</g>
<g>
</g>
<g>
</g>
<g>
</g>
<g>
</g>
<g>
</g>
<g>
</g>
<g>
</g>
<g>
</g>
<g>
</g>
<g>
</g>
<g>
</g>
<g>
</g>
<g>
</g>
</svg>
