<?xml version="1.0" encoding="iso-8859-1"?>
<!-- Generator: Adobe Illustrator 19.0.0, SVG Export Plug-In . SVG Version: 6.00 Build 0)  -->
<svg version="1.1" id="Layer_1" xmlns="http://www.w3.org/2000/svg" xmlns:xlink="http://www.w3.org/1999/xlink" x="0px" y="0px"
	 viewBox="0 0 512 512" style="enable-background:new 0 0 512 512;" xml:space="preserve">
<g>
	<g>
		<path d="M425.211,347.042l-1.248-87.582c-0.004-15.918-12.905-28.819-28.822-28.819c-5.251,0-10.17,1.412-14.408,3.865
			l-0.001-7.036c0-15.917-12.902-28.818-28.817-28.818c-5.251,0.001-10.169,1.411-14.41,3.864l0.001-12.605
			c-0.001-15.917-12.904-28.818-28.818-28.819c-5.859,0-11.303,1.76-15.85,4.764v-58.987c0-15.519-12.579-28.098-28.098-28.098
			s-28.098,12.579-28.098,28.098v166.54l-13.372-41.613c-4.723-14.782-20.535-22.935-35.317-18.212
			c-14.782,4.724-22.935,20.535-18.212,35.318l41.02,127.647c3.72,11.645,14.323,19.17,25.882,19.533v16.017h-12.488V512h187.317
			v-99.902h-12.488v-36.501C413.084,373.718,425.212,361.656,425.211,347.042z M374.009,474.537h-112.39v-24.976h112.39V474.537z"/>
	</g>
</g>
<g>
	<g>
		<polygon points="244.354,57.239 186.896,53.488 165.572,0 144.248,53.488 86.789,57.239 131.068,94.049 116.882,149.854 
			165.572,119.115 214.262,149.854 200.075,94.049 		"/>
	</g>
</g>
<g>
</g>
<g>
</g>
<g>
</g>
<g>
</g>
<g>
</g>
<g>
</g>
<g>
</g>
<g>
</g>
<g>
</g>
<g>
</g>
<g>
</g>
<g>
</g>
<g>
</g>
<g>
</g>
<g>
</g>
</svg>
