<?xml version="1.0" encoding="iso-8859-1"?>
<!-- Generator: Adobe Illustrator 19.0.0, SVG Export Plug-In . SVG Version: 6.00 Build 0)  -->
<svg version="1.1" id="Layer_1" xmlns="http://www.w3.org/2000/svg" xmlns:xlink="http://www.w3.org/1999/xlink" x="0px" y="0px"
	 viewBox="0 0 512 512" style="enable-background:new 0 0 512 512;" xml:space="preserve">
<g>
	<g>
		<path d="M404.647,49.545V0h-49.548v49.545H156.905V0h-49.548v49.545H24.774V512h462.452V49.545H404.647z M156.903,462.452h-49.548
			v-49.548h49.548V462.452z M156.903,363.355h-49.548v-49.548h49.548V363.355z M156.903,264.258h-49.548V214.71h49.548V264.258z
			 M239.484,462.452h-49.548v-49.548h49.548V462.452z M239.484,363.355h-49.548v-49.548h49.548V363.355z M239.484,264.258h-49.548
			V214.71h49.548V264.258z M322.065,462.452h-49.548v-49.548h49.548V462.452z M322.065,363.355h-49.548v-49.548h49.548V363.355z
			 M322.065,264.258h-49.548V214.71h49.548V264.258z M404.645,462.452h-49.548v-49.548h49.548V462.452z M404.645,363.355h-49.548
			v-49.548h49.548V363.355z M404.645,264.258h-49.548V214.71h49.548V264.258z M437.677,148.645H74.323V99.093h363.355V148.645z"/>
	</g>
</g>
<g>
</g>
<g>
</g>
<g>
</g>
<g>
</g>
<g>
</g>
<g>
</g>
<g>
</g>
<g>
</g>
<g>
</g>
<g>
</g>
<g>
</g>
<g>
</g>
<g>
</g>
<g>
</g>
<g>
</g>
</svg>
