<?xml version="1.0" encoding="iso-8859-1"?>
<!-- Generator: Adobe Illustrator 19.0.0, SVG Export Plug-In . SVG Version: 6.00 Build 0)  -->
<svg version="1.1" id="Layer_1" xmlns="http://www.w3.org/2000/svg" xmlns:xlink="http://www.w3.org/1999/xlink" x="0px" y="0px"
	 viewBox="0 0 512 512" style="enable-background:new 0 0 512 512;" xml:space="preserve">
<g>
	<g>
		<path d="M336,336v-80h-32l-24-48v-50.605c28.632-6.253,53.173-23.437,69.006-46.982C349.466,120.2,357.522,128,367.424,128
			c10.195,0,18.461-8.266,18.461-18.462c0-1.498-0.198-2.944-0.533-4.336c17.118-3.213,30.072-18.229,30.072-36.278
			c0-20.392-16.531-36.923-36.923-36.923c-3.65,0-7.171,0.538-10.501,1.523V0H144v33.523C140.67,32.538,137.149,32,133.501,32
			c-20.394,0-36.925,16.531-36.925,36.923c0,18.05,12.955,33.066,30.072,36.278c-0.336,1.394-0.533,2.84-0.533,4.336
			c0,10.197,8.266,18.462,18.461,18.462c9.901,0,17.958-7.8,18.418-17.589c15.834,23.547,40.374,40.731,69.006,46.984V208l-24,48
			h-32v160H16v96h480V336H336z M288,464h-64V304h64V464z"/>
	</g>
</g>
<g>
</g>
<g>
</g>
<g>
</g>
<g>
</g>
<g>
</g>
<g>
</g>
<g>
</g>
<g>
</g>
<g>
</g>
<g>
</g>
<g>
</g>
<g>
</g>
<g>
</g>
<g>
</g>
<g>
</g>
</svg>
