<?xml version="1.0" encoding="iso-8859-1"?>
<!-- Generator: Adobe Illustrator 19.0.0, SVG Export Plug-In . SVG Version: 6.00 Build 0)  -->
<svg version="1.1" id="Layer_1" xmlns="http://www.w3.org/2000/svg" xmlns:xlink="http://www.w3.org/1999/xlink" x="0px" y="0px"
	 viewBox="0 0 512 512" style="enable-background:new 0 0 512 512;" xml:space="preserve">
<g>
	<g>
		<path d="M463.999,256c0-16.283-1.875-32.126-5.413-47.333l44.717-36.328l-51.2-88.682l-53.877,20.584
			c-23.016-21.581-50.941-37.982-81.925-47.354L307.199,0h-102.4l-9.102,56.89c-30.982,9.371-58.907,25.773-81.925,47.354
			L59.897,83.659l-51.2,88.682l44.717,36.328c-3.539,15.205-5.414,31.048-5.414,47.331s1.875,32.126,5.413,47.333L8.697,339.661
			l51.2,88.68l53.875-20.584c23.018,21.581,50.942,37.982,81.925,47.354l9.102,56.89h102.4l9.102-56.891
			c30.982-9.371,58.907-25.773,81.925-47.354l53.875,20.584l51.2-88.682l-44.717-36.328
			C462.124,288.126,463.999,272.283,463.999,256z M255.999,379.805c-68.267,0-123.805-55.539-123.805-123.805
			c0-60.054,42.989-110.24,99.805-121.45V280h96v-48h-48v-97.45c56.816,11.208,99.805,61.395,99.805,121.45
			C379.804,324.266,324.266,379.805,255.999,379.805z"/>
	</g>
</g>
<g>
</g>
<g>
</g>
<g>
</g>
<g>
</g>
<g>
</g>
<g>
</g>
<g>
</g>
<g>
</g>
<g>
</g>
<g>
</g>
<g>
</g>
<g>
</g>
<g>
</g>
<g>
</g>
<g>
</g>
</svg>
