<?xml version="1.0" encoding="iso-8859-1"?>
<!-- Generator: Adobe Illustrator 19.0.0, SVG Export Plug-In . SVG Version: 6.00 Build 0)  -->
<svg version="1.1" id="Layer_1" xmlns="http://www.w3.org/2000/svg" xmlns:xlink="http://www.w3.org/1999/xlink" x="0px" y="0px"
	 viewBox="0 0 512 512" style="enable-background:new 0 0 512 512;" xml:space="preserve">
<g>
	<g>
		<path d="M69.818,0v512h372.364V0H69.818z M162.909,434.424c-21.422,0-38.788-17.366-38.788-38.788
			c0-21.422,17.366-38.788,38.788-38.788c21.422,0,38.788,17.366,38.788,38.788C201.697,417.058,184.331,434.424,162.909,434.424z
			 M209.455,310.303h-93.091V93.091h93.091V310.303z M349.091,434.424c-21.422,0-38.788-17.366-38.788-38.788
			c0-21.422,17.366-38.788,38.788-38.788c21.422,0,38.788,17.366,38.788,38.788C387.879,417.058,370.513,434.424,349.091,434.424z
			 M395.636,310.303h-93.091V93.091h93.091V310.303z"/>
	</g>
</g>
<g>
</g>
<g>
</g>
<g>
</g>
<g>
</g>
<g>
</g>
<g>
</g>
<g>
</g>
<g>
</g>
<g>
</g>
<g>
</g>
<g>
</g>
<g>
</g>
<g>
</g>
<g>
</g>
<g>
</g>
</svg>
