<?xml version="1.0" encoding="iso-8859-1"?>
<!-- Generator: Adobe Illustrator 19.0.0, SVG Export Plug-In . SVG Version: 6.00 Build 0)  -->
<svg version="1.1" id="Layer_1" xmlns="http://www.w3.org/2000/svg" xmlns:xlink="http://www.w3.org/1999/xlink" x="0px" y="0px"
	 viewBox="0 0 512 512" style="enable-background:new 0 0 512 512;" xml:space="preserve">
<g>
	<g>
		<path d="M469.333,349.867v-102.4h-51.2v0.002H281.6v-51.202h136.533V25.6H93.867v170.667H230.4v51.202H93.867v-0.002h-51.2v102.4
			H0V486.4h136.533V349.867H93.867v-51.198H230.4v51.198h-42.667V486.4h136.533V349.867H281.6v-51.198h136.533v51.198h-42.667V486.4
			H512V349.867H469.333z M145.067,142.372V76.8h62.293L145.067,142.372z M51.2,435.2v-34.133h34.133L51.2,435.2z M238.933,435.2
			v-34.133h34.133L238.933,435.2z M426.667,435.2v-34.133H460.8L426.667,435.2z"/>
	</g>
</g>
<g>
</g>
<g>
</g>
<g>
</g>
<g>
</g>
<g>
</g>
<g>
</g>
<g>
</g>
<g>
</g>
<g>
</g>
<g>
</g>
<g>
</g>
<g>
</g>
<g>
</g>
<g>
</g>
<g>
</g>
</svg>
