<?xml version="1.0" encoding="iso-8859-1"?>
<!-- Generator: Adobe Illustrator 19.0.0, SVG Export Plug-In . SVG Version: 6.00 Build 0)  -->
<svg version="1.1" id="Layer_1" xmlns="http://www.w3.org/2000/svg" xmlns:xlink="http://www.w3.org/1999/xlink" x="0px" y="0px"
	 viewBox="0 0 512 512" style="enable-background:new 0 0 512 512;" xml:space="preserve">
<g>
	<g>
		<path d="M256,0C153.175,0,69.818,83.358,69.818,186.182c0,69.23,37.79,129.634,93.865,161.713v102.817h30.276
			C194.374,484.628,221.983,512,256,512c34.015,0,61.626-27.372,62.04-61.288h31.825v-103.72
			c55.218-32.301,92.317-92.219,92.317-160.81C442.182,83.358,358.825,0,256,0z M303.32,404.167h-93.091v-31.03h93.091V404.167z
			 M350.902,186.182c0,7.43-0.856,14.657-2.472,21.596l20.402,16.575l-23.361,40.46l-24.581-9.391
			c-10.502,9.847-23.242,17.33-37.379,21.605l-4.152,25.955h-46.721l-4.152-25.955c-14.136-4.274-26.877-11.757-37.379-21.605
			l-24.581,9.391l-23.361-40.46l20.402-16.575c-1.615-6.938-2.472-14.165-2.472-21.596c0-7.43,0.856-14.657,2.472-21.596
			l-20.402-16.575l23.361-40.462l24.581,9.393c10.502-9.847,23.242-17.329,37.379-21.605l4.152-25.955h46.721l4.152,25.955
			c14.136,4.276,26.877,11.757,37.379,21.605l24.581-9.393l23.361,40.462l-20.402,16.575
			C350.043,171.525,350.902,178.752,350.902,186.182z"/>
	</g>
</g>
<g>
	<g>
		<circle cx="256" cy="186.182" r="46.545"/>
	</g>
</g>
<g>
</g>
<g>
</g>
<g>
</g>
<g>
</g>
<g>
</g>
<g>
</g>
<g>
</g>
<g>
</g>
<g>
</g>
<g>
</g>
<g>
</g>
<g>
</g>
<g>
</g>
<g>
</g>
<g>
</g>
</svg>
