<?xml version="1.0" encoding="iso-8859-1"?>
<!-- Generator: Adobe Illustrator 19.0.0, SVG Export Plug-In . SVG Version: 6.00 Build 0)  -->
<svg version="1.1" id="Layer_1" xmlns="http://www.w3.org/2000/svg" xmlns:xlink="http://www.w3.org/1999/xlink" x="0px" y="0px"
	 viewBox="0 0 512 512" style="enable-background:new 0 0 512 512;" xml:space="preserve">
<g>
	<g>
		<path d="M507.408,354.301c-9.116-15.141-28.781-20.022-43.922-10.906l-103.31,52.783c5.924-5.807,9.601-13.896,9.601-22.845
			c0-17.674-14.328-32-32-32h-97.011c-40.232,0-59.194-28.444-126.987-28.444v-14.222H0V512h113.778v-56.887
			c0.03,0.02,18.509,12.811,42.667,28.443c21.574,13.959,31.701,14.222,48.124,14.222l105.951-0.038
			c13.272,0,26.547-5.65,41.244-12.762c14.696-7.111,144.74-86.756,144.74-86.756C511.644,389.104,516.526,369.442,507.408,354.301z
			 M71.111,469.333H42.667v-128h28.444V469.333z"/>
	</g>
</g>
<g>
	<g>
		<path d="M241.778,0C178.94,0,128,50.94,128,113.778c0,42.106,22.891,78.844,56.889,98.519v65.037h14.824
			c3.386,20.179,20.925,35.556,42.065,35.556s38.679-15.379,42.065-35.556h14.824v-65.037
			c33.998-19.675,56.889-56.411,56.889-98.519C355.556,50.94,304.616,0,241.778,0z M263.111,174.123V53.433
			c24.833,8.805,42.667,32.532,42.667,60.345S287.945,165.318,263.111,174.123z"/>
	</g>
</g>
<g>
</g>
<g>
</g>
<g>
</g>
<g>
</g>
<g>
</g>
<g>
</g>
<g>
</g>
<g>
</g>
<g>
</g>
<g>
</g>
<g>
</g>
<g>
</g>
<g>
</g>
<g>
</g>
<g>
</g>
</svg>
