<?xml version="1.0" encoding="iso-8859-1"?>
<!-- Generator: Adobe Illustrator 19.0.0, SVG Export Plug-In . SVG Version: 6.00 Build 0)  -->
<svg version="1.1" id="Layer_1" xmlns="http://www.w3.org/2000/svg" xmlns:xlink="http://www.w3.org/1999/xlink" x="0px" y="0px"
	 viewBox="0 0 512 512" style="enable-background:new 0 0 512 512;" xml:space="preserve">
<g>
	<g>
		<path d="M512,400.41V216.615h-98.463l0.004-78.769h-0.004H378.8c-3.816-12.776-13.047-23.241-25.024-28.703
			c-4.353-28.312-28.881-50.066-58.392-50.066c-2.229,0-4.443,0.125-6.636,0.37c-14.811-16.695-36.327-26.627-59.005-26.627
			c-43.433,0-78.769,35.336-78.769,78.769c0,0.558,0.005,1.117,0.018,1.675c-8.478,5.912-14.785,14.583-17.776,24.581H98.463h-0.004
			v78.769H0V400.41h98.462v39.385H52.513v39.385h131.282v-39.385h-45.949V400.41h98.462V216.615h-98.463v-39.385h1.712
			c8.314,11.893,22.097,19.692,37.675,19.692h157.538c15.578,0,29.361-7.799,37.675-19.692h1.708v39.385h-98.462V400.41h98.462
			v39.385h-45.949v39.385h131.282v-39.385h-45.949V400.41H512z M196.923,256L39.385,361.026V256H196.923z M334.769,157.538H177.231
			c-3.619,0-6.564-2.945-6.564-6.564c0-3.555,2.668-5.927,5.302-6.432l20.175-3.868l-4.717-19.993
			c-0.709-3.005-1.069-6.064-1.069-9.093c0-21.717,17.668-39.385,39.385-39.385c13.873,0,26.881,7.444,33.948,19.427l8.615,14.605
			l15.722-6.35c2.342-0.947,4.817-1.426,7.356-1.426c10.858,0,19.692,8.834,19.692,19.692c0,1.073-0.094,2.183-0.282,3.3
			l-3.858,22.956h23.833c3.619,0,6.564,2.945,6.564,6.564S338.389,157.538,334.769,157.538z M315.077,361.026V256h157.539
			L315.077,361.026z"/>
	</g>
</g>
<g>
</g>
<g>
</g>
<g>
</g>
<g>
</g>
<g>
</g>
<g>
</g>
<g>
</g>
<g>
</g>
<g>
</g>
<g>
</g>
<g>
</g>
<g>
</g>
<g>
</g>
<g>
</g>
<g>
</g>
</svg>
