<?xml version="1.0" encoding="iso-8859-1"?>
<!-- Generator: Adobe Illustrator 19.0.0, SVG Export Plug-In . SVG Version: 6.00 Build 0)  -->
<svg version="1.1" id="Layer_1" xmlns="http://www.w3.org/2000/svg" xmlns:xlink="http://www.w3.org/1999/xlink" x="0px" y="0px"
	 viewBox="0 0 512 512" style="enable-background:new 0 0 512 512;" xml:space="preserve">
<g>
	<g>
		<path d="M471.636,187.733C449.5,117.753,394.247,62.5,324.267,40.364V0H187.733v40.364C117.753,62.5,62.5,117.753,40.364,187.733
			H0v136.533h40.364C62.5,394.247,117.753,449.5,187.733,471.636V512h136.533v-40.364c69.98-22.135,125.234-77.389,147.369-147.369
			H512V187.733H471.636z M51.2,273.067v-34.133h34.133L51.2,273.067z M230.4,375.467h-42.667v41.593
			c-41.651-17.72-75.073-51.142-92.793-92.793h41.593V281.6h51.2v42.667H230.4V375.467z M230.4,187.733h-42.667V230.4h-51.2v-42.667
			H94.94c17.72-41.651,51.142-75.073,92.793-92.793v41.593H230.4V187.733z M238.933,460.8v-34.133h34.133L238.933,460.8z
			 M238.933,85.333V51.2h34.133L238.933,85.333z M324.267,417.06v-41.593H281.6v-51.2h42.667V281.6h51.2v42.667h41.593
			C399.34,365.918,365.918,399.34,324.267,417.06z M375.467,187.733V230.4h-51.2v-42.667H281.6v-51.2h42.667V94.94
			c41.651,17.72,75.073,51.142,92.793,92.793H375.467z M426.667,273.067v-34.133H460.8L426.667,273.067z"/>
	</g>
</g>
<g>
</g>
<g>
</g>
<g>
</g>
<g>
</g>
<g>
</g>
<g>
</g>
<g>
</g>
<g>
</g>
<g>
</g>
<g>
</g>
<g>
</g>
<g>
</g>
<g>
</g>
<g>
</g>
<g>
</g>
</svg>
