<?xml version="1.0" encoding="iso-8859-1"?>
<!-- Generator: Adobe Illustrator 19.0.0, SVG Export Plug-In . SVG Version: 6.00 Build 0)  -->
<svg version="1.1" id="Layer_1" xmlns="http://www.w3.org/2000/svg" xmlns:xlink="http://www.w3.org/1999/xlink" x="0px" y="0px"
	 viewBox="0 0 512 512" style="enable-background:new 0 0 512 512;" xml:space="preserve">
<g>
	<g>
		<path d="M438.857,365.714c-10.136,0-19.787,2.064-28.564,5.789l-62.864-62.864V203.361l62.864-62.864
			c8.777,3.725,18.428,5.789,28.564,5.789c40.393,0,73.143-32.748,73.143-73.143C512,32.75,479.25,0,438.857,0
			c-40.395,0-73.143,32.75-73.143,73.143c0,10.136,2.064,19.787,5.789,28.564l-62.864,62.864H203.361l-62.864-62.864
			c3.725-8.777,5.789-18.428,5.789-28.564C146.286,32.75,113.536,0,73.143,0C32.748,0,0,32.75,0,73.143
			c0,40.395,32.748,73.143,73.143,73.143c10.134,0,19.787-2.064,28.562-5.791l62.866,62.866v105.278l-62.866,62.866
			c-8.775-3.727-18.428-5.791-28.562-5.791C32.748,365.714,0,398.464,0,438.857C0,479.252,32.748,512,73.143,512
			c40.393,0,73.143-32.748,73.143-73.143c0-10.136-2.064-19.785-5.791-28.562l62.866-62.866h105.278l62.866,62.866
			c-3.727,8.777-5.791,18.427-5.791,28.562c0,40.395,32.748,73.143,73.143,73.143C479.25,512,512,479.252,512,438.857
			C512,398.464,479.25,365.714,438.857,365.714z M219.429,292.571v-73.143h73.143L219.429,292.571z"/>
	</g>
</g>
<g>
</g>
<g>
</g>
<g>
</g>
<g>
</g>
<g>
</g>
<g>
</g>
<g>
</g>
<g>
</g>
<g>
</g>
<g>
</g>
<g>
</g>
<g>
</g>
<g>
</g>
<g>
</g>
<g>
</g>
</svg>
