<?xml version="1.0" encoding="iso-8859-1"?>
<!-- Generator: Adobe Illustrator 19.0.0, SVG Export Plug-In . SVG Version: 6.00 Build 0)  -->
<svg version="1.1" id="Layer_1" xmlns="http://www.w3.org/2000/svg" xmlns:xlink="http://www.w3.org/1999/xlink" x="0px" y="0px"
	 viewBox="0 0 512 512" style="enable-background:new 0 0 512 512;" xml:space="preserve">
<g>
	<g>
		<path d="M434.669,176L472,120l-48-72H312V32c0-17.674-14.326-32-32-32s-32,14.326-32,32v143.998H88l-48,56l48,56h160V454.4
			l-48,9.6v48h160v-48l-48-9.6V400h112l48-72l-32-48l32-48.002L434.669,176z M360,352h-48v-48h48V352z M360,255.998h-48v-48h48
			V255.998z M360,144h-48V96h48V144z"/>
	</g>
</g>
<g>
</g>
<g>
</g>
<g>
</g>
<g>
</g>
<g>
</g>
<g>
</g>
<g>
</g>
<g>
</g>
<g>
</g>
<g>
</g>
<g>
</g>
<g>
</g>
<g>
</g>
<g>
</g>
<g>
</g>
</svg>
