<?xml version="1.0" encoding="iso-8859-1"?>
<!-- Generator: Adobe Illustrator 19.0.0, SVG Export Plug-In . SVG Version: 6.00 Build 0)  -->
<svg version="1.1" id="Layer_1" xmlns="http://www.w3.org/2000/svg" xmlns:xlink="http://www.w3.org/1999/xlink" x="0px" y="0px"
	 viewBox="0 0 512 512" style="enable-background:new 0 0 512 512;" xml:space="preserve">
<g>
	<g>
		<path d="M500.613,358.563c-8.87-14.732-28.004-19.481-42.735-10.611l-100.518,51.356c5.763-5.65,9.342-13.521,9.342-22.228
			c0-17.196-13.94-31.135-31.135-31.135h-94.389c-39.144,0-57.594-27.676-123.555-27.676v-13.838H6.919V512h110.703v-55.35
			c0.029,0.019,18.009,12.465,41.513,27.674c20.992,13.582,30.845,13.838,46.823,13.838l103.088-0.037
			c12.913,0,25.83-5.498,40.13-12.417c14.299-6.919,140.828-84.411,140.828-84.411C504.735,392.426,509.484,373.295,500.613,358.563
			z M76.108,470.487H48.432V345.946h27.676V470.487z"/>
	</g>
</g>
<g>
	<g>
		<polygon points="408.774,110.997 297.352,103.721 256,0 214.648,103.721 103.226,110.997 189.093,182.376 161.582,290.595 
			256,230.988 350.42,290.595 322.907,182.376 		"/>
	</g>
</g>
<g>
</g>
<g>
</g>
<g>
</g>
<g>
</g>
<g>
</g>
<g>
</g>
<g>
</g>
<g>
</g>
<g>
</g>
<g>
</g>
<g>
</g>
<g>
</g>
<g>
</g>
<g>
</g>
<g>
</g>
</svg>
