<?xml version="1.0" encoding="iso-8859-1"?>
<!-- Generator: Adobe Illustrator 19.0.0, SVG Export Plug-In . SVG Version: 6.00 Build 0)  -->
<svg version="1.1" id="Layer_1" xmlns="http://www.w3.org/2000/svg" xmlns:xlink="http://www.w3.org/1999/xlink" x="0px" y="0px"
	 viewBox="0 0 512.001 512.001" style="enable-background:new 0 0 512.001 512.001;" xml:space="preserve">
<g>
	<g>
		<path d="M468.832,435.2l-77.923-77.923c46.434-75.156,37.067-175.01-28.116-240.193c-6.225-6.223-12.771-11.931-19.577-17.138
			C333.681,43.225,284.373,0,224.942,0S116.204,43.225,106.668,99.946c-6.805,5.207-13.351,10.913-19.576,17.138
			c-76.132,76.133-76.132,199.569,0,275.701c65.184,65.184,165.037,74.549,240.193,28.116l77.923,77.923
			c17.57,17.568,46.055,17.57,63.624,0C486.402,481.255,486.4,452.77,468.832,435.2z M247.436,121.884
			c15.607,2.624,30.837,7.987,44.915,16.116c-1.246,28.008-19.639,51.632-44.915,60.592V121.884z M320.378,350.37
			c-52.707,52.707-138.163,52.707-190.87,0C81.185,302.046,77.2,226.214,117.484,173.312c10.523,21.154,27.101,38.749,47.473,50.537
			v68.576h15.63c3.571,21.277,22.064,37.49,44.354,37.49c22.29,0,40.782-16.215,44.354-37.49h15.63v-62.39
			c17.091-10.821,31.069-26.113,40.29-44.228c2.635-4.005,5.034-8.174,7.183-12.495C372.686,226.214,368.701,302.046,320.378,350.37
			z"/>
	</g>
</g>
<g>
</g>
<g>
</g>
<g>
</g>
<g>
</g>
<g>
</g>
<g>
</g>
<g>
</g>
<g>
</g>
<g>
</g>
<g>
</g>
<g>
</g>
<g>
</g>
<g>
</g>
<g>
</g>
<g>
</g>
</svg>
