<?xml version="1.0" encoding="iso-8859-1"?>
<!-- Generator: Adobe Illustrator 19.0.0, SVG Export Plug-In . SVG Version: 6.00 Build 0)  -->
<svg version="1.1" id="Layer_1" xmlns="http://www.w3.org/2000/svg" xmlns:xlink="http://www.w3.org/1999/xlink" x="0px" y="0px"
	 viewBox="0 0 512 512" style="enable-background:new 0 0 512 512;" xml:space="preserve">
<g>
	<g>
		<path d="M356.573,347.43c0,0-54.856-75.324-54.856-100.572c0-25.248,20.466-45.714,45.711-45.714
			c6.999,0,13.633,1.58,19.563,4.393l44.437-59.25L276.494,45.083L283.429,0C45.716,54.858,137.144,347.43,137.144,347.43
			c-20.198,0-36.572,16.373-36.572,36.572c0,20.198,16.373,36.57,36.57,36.572V512h219.43v-91.427
			c20.198,0,36.572-16.373,36.572-36.572C393.144,363.803,376.771,347.43,356.573,347.43z M311.396,466.824H182.319v-46.252h129.077
			V466.824z"/>
	</g>
</g>
<g>
</g>
<g>
</g>
<g>
</g>
<g>
</g>
<g>
</g>
<g>
</g>
<g>
</g>
<g>
</g>
<g>
</g>
<g>
</g>
<g>
</g>
<g>
</g>
<g>
</g>
<g>
</g>
<g>
</g>
</svg>
