<?xml version="1.0" encoding="iso-8859-1"?>
<!-- Generator: Adobe Illustrator 19.0.0, SVG Export Plug-In . SVG Version: 6.00 Build 0)  -->
<svg version="1.1" id="Layer_1" xmlns="http://www.w3.org/2000/svg" xmlns:xlink="http://www.w3.org/1999/xlink" x="0px" y="0px"
	 viewBox="0 0 511.999 511.999" style="enable-background:new 0 0 511.999 511.999;" xml:space="preserve">
<g>
	<g>
		<path d="M489.119,374.056c-0.001,0-0.001,0-0.003,0l-3.068-0.001c1.947-3.367,3.068-7.272,3.068-11.443
			c0-8.618-4.771-16.117-11.81-20.019V257.14H467.5l-0.001-25.498c11.195-1.492,19.833-11.07,19.833-22.674V80.095
			c0-12.64-10.245-22.884-22.884-22.884c-4.169,0-8.073,1.121-11.439,3.068l-0.003-14.511c0-12.64-10.245-22.884-22.881-22.884
			c-4.171,0-8.076,1.121-11.442,3.068v-3.068c-0.005-12.638-10.249-22.882-22.886-22.884c-12.64,0.003-22.884,10.247-22.884,22.884
			v3.068c-3.366-1.947-7.273-3.068-11.442-3.068c-9.073,0-16.889,5.294-20.59,12.948H256v9.807h-24.359
			c-1.492-11.194-11.07-19.832-22.672-19.832L80.096,25.807c-12.64,0-22.884,10.245-22.884,22.884c0,4.17,1.121,8.075,3.068,11.44
			l-14.511,0.001c-12.64,0-22.884,10.245-22.884,22.882c0,4.17,1.121,8.075,3.068,11.442h-3.068
			C10.245,94.461,0.001,104.705,0,117.343c0.003,12.637,10.247,22.882,22.881,22.882c0.001,0,0.001,0,0.003,0l3.068,0.001
			c-1.947,3.366-3.068,7.272-3.068,11.442c0,8.619,4.77,16.117,11.81,20.019v85.451h9.807v23.219
			c-11.195,1.492-19.833,11.07-19.833,22.674v128.872c0,12.64,10.245,22.884,22.884,22.884c4.17,0,8.073-1.121,11.44-3.068
			l0.001,14.511c0,12.64,10.245,22.884,22.882,22.884c4.17,0,8.075-1.121,11.44-3.068v3.068
			c0.003,12.638,10.247,22.882,22.884,22.884c12.64-0.003,22.884-10.247,22.884-22.884v-3.068c3.367,1.947,7.273,3.068,11.443,3.068
			c8.141,0,15.271-4.264,19.328-10.668H256v-9.807h24.359c1.492,11.194,11.07,19.832,22.672,19.832l128.873,0.001
			c12.64,0,22.884-10.245,22.884-22.884c0-4.17-1.121-8.075-3.068-11.442l14.511-0.001c12.64,0,22.884-10.245,22.884-22.882
			c0-4.17-1.121-8.075-3.068-11.442h3.068c12.638-0.001,22.882-10.245,22.884-22.884
			C511.997,384.301,501.753,374.056,489.119,374.056z M143.018,216.718l-67.902,0.001v-42.167h33.513
			c-0.532,1.927-0.839,3.945-0.839,6.04c0,12.51,10.142,22.653,22.653,22.653h12.575V216.718z M173.413,438.027v-34.656
			c1.925,0.532,3.945,0.839,6.039,0.839c12.51,0,22.653-10.142,22.653-22.653v-11.434h13.472l0.001,67.903H173.413z
			 M338.587,257.141h-10.023v53.895h-22.515c-12.51,0-22.653,10.142-22.653,22.653c0,2.142,0.005,4.145,0.016,6.04h-27.414v-10.024
			h-53.893V306.05c0-12.51-10.142-22.653-22.653-22.653c-2.142,0-4.143,0.005-6.039,0.016v-26.274h10.023l0.001-53.893h22.513
			c12.51,0,22.653-10.142,22.653-22.653c0-2.144-0.005-4.145-0.016-6.04h27.415v10.026h53.892v21.373
			c0,12.51,10.142,22.653,22.653,22.653c2.142,0,4.143-0.005,6.039-0.016V257.141z M338.587,108.63
			c-1.927-0.532-3.945-0.839-6.039-0.839c-12.512,0-22.653,10.142-22.653,22.653v13.715h-13.472l-0.001-67.903h42.166V108.63z
			 M436.886,339.729h-33.514c0.534-1.927,0.839-3.946,0.839-6.04c0-12.51-10.142-22.653-22.653-22.653h-12.574v-13.474l67.902-0.001
			V339.729z"/>
	</g>
</g>
<g>
</g>
<g>
</g>
<g>
</g>
<g>
</g>
<g>
</g>
<g>
</g>
<g>
</g>
<g>
</g>
<g>
</g>
<g>
</g>
<g>
</g>
<g>
</g>
<g>
</g>
<g>
</g>
<g>
</g>
</svg>
