<?xml version="1.0" encoding="iso-8859-1"?>
<!-- Generator: Adobe Illustrator 19.0.0, SVG Export Plug-In . SVG Version: 6.00 Build 0)  -->
<svg xmlns="http://www.w3.org/2000/svg" xmlns:xlink="http://www.w3.org/1999/xlink" version="1.1" id="Capa_1" x="0px" y="0px" viewBox="0 0 512 512" style="enable-background:new 0 0 512 512;" xml:space="preserve">
<g>
	<g>
		<path d="M265,60.994c-24.814,0-45,20.186-45,45c0,24.814,20.186,45,45,45c24.814,0,45-20.186,45-45    C310,81.18,289.814,60.994,265,60.994z M265,120.994c-8.276,0-15-6.724-15-15s6.724-15,15-15s15,6.724,15,15    S273.276,120.994,265,120.994z"/>
	</g>
</g>
<g>
	<g>
		<path d="M502.332,151.975L369.524,101.28C366.999,45.618,321.276,0.994,265,0.994c-55.723,0-101.821,43.638-104.985,99.536    c-1.466,33.29,4.093,44.191,36.985,95.497v310.309l128-48.572V207.608c8.648-13.28,22.562-34.455,30-48.14v298.295l136.653,52.249    c9.952,3.764,20.347-3.646,20.347-14.019v-330C512,159.768,508.147,154.187,502.332,151.975z M325,151.636v-0.002    c-10.592,17.737-48.093,74.769-60.015,93.182c-67.843-104.632-76.309-112.777-75.015-142.778    c2.256-39.844,35.215-71.045,75.029-71.045c41.353,0,75,33.647,75,75C340,124.524,334.672,135.453,325,151.636z"/>
	</g>
</g>
<g>
	<g>
		<path d="M20.347,91.975c-4.644-1.758-9.8-1.143-13.858,1.67C2.432,96.443,0,101.057,0,105.994v330    c0,6.226,3.838,11.807,9.653,14.019l157.312,56.323V144.224L20.347,91.975z"/>
	</g>
</g>
<g>
</g>
<g>
</g>
<g>
</g>
<g>
</g>
<g>
</g>
<g>
</g>
<g>
</g>
<g>
</g>
<g>
</g>
<g>
</g>
<g>
</g>
<g>
</g>
<g>
</g>
<g>
</g>
<g>
</g>
</svg>
