<?xml version="1.0" encoding="iso-8859-1"?>
<!-- Generator: Adobe Illustrator 19.0.0, SVG Export Plug-In . SVG Version: 6.00 Build 0)  -->
<svg xmlns="http://www.w3.org/2000/svg" xmlns:xlink="http://www.w3.org/1999/xlink" version="1.1" id="Capa_1" x="0px" y="0px" viewBox="0 0 512 512" style="enable-background:new 0 0 512 512;" xml:space="preserve">
<g>
	<g>
		<path d="M510.841,220.243C508.767,215.269,502.564,211,497,211h-16c0-49.629-40.371-90-90-90H271V45c0-24.814-20.186-45-45-45h-60    c-24.814,0-45,20.186-45,45c0,24.814,20.186,45,45,45h15v31h-76C47.109,121,0,168.109,0,226v150c0,24.814,20.186,45,45,45h76v76    c0,8.291,6.709,15,15,15h90c8.291,0,15-6.709,15-15v-76c11.751,0,244.216,0,256,0c8.262,0,15-6.778,15-15V226    C512,222.95,510.841,220.243,510.841,220.243z M241,196c0,8.276-6.724,15-15,15s-15-6.724-15-15V75c0-8.291-6.709-15-15-15h-30    c-8.276,0-15-6.724-15-15s6.724-15,15-15h60c8.276,0,15,6.724,15,15V196z M391,151c33.091,0,60,26.909,60,60H331    C331,177.909,357.909,151,391,151z M331,241h128.789L376,324.789l-45-45V241z M331,391v-68.789l34.395,34.395    c5.859,5.859,15.351,5.86,21.211,0L406,337.211L459.789,391H331z M481,369.789L427.211,316L481,262.211V369.789z"/>
	</g>
</g>
<g>
</g>
<g>
</g>
<g>
</g>
<g>
</g>
<g>
</g>
<g>
</g>
<g>
</g>
<g>
</g>
<g>
</g>
<g>
</g>
<g>
</g>
<g>
</g>
<g>
</g>
<g>
</g>
<g>
</g>
</svg>
