<?xml version="1.0" encoding="iso-8859-1"?>
<!-- Generator: Adobe Illustrator 19.0.0, SVG Export Plug-In . SVG Version: 6.00 Build 0)  -->
<svg version="1.1" id="Layer_1" xmlns="http://www.w3.org/2000/svg" xmlns:xlink="http://www.w3.org/1999/xlink" x="0px" y="0px"
	 viewBox="0 0 491.52 491.52" style="enable-background:new 0 0 491.52 491.52;" xml:space="preserve">
<g>
	<g>
		<path d="M471.04,450.56h-20.48V20.48C450.56,9.175,441.405,0,430.08,0S409.6,9.175,409.6,20.48v20.48h-20.48
			c0-11.284-13.783-20.48-30.72-20.48s-30.72,9.195-30.72,20.48c0-11.284-13.783-20.48-30.72-20.48s-30.72,9.195-30.72,20.48
			c0-11.284-13.783-20.48-30.72-20.48s-30.72,9.195-30.72,20.48h-40.96c0-11.284-13.783-20.48-30.72-20.48s-30.72,9.195-30.72,20.48
			H81.92V20.48C81.92,9.175,72.765,0,61.44,0S40.96,9.175,40.96,20.48v430.08H20.48C9.155,450.56,0,459.735,0,471.04
			c0,11.305,9.155,20.48,20.48,20.48h81.92c11.325,0,20.48-9.175,20.48-20.48c0-11.305-9.155-20.48-20.48-20.48H81.92v-81.92h20.48
			c0,11.284,13.783,20.48,30.72,20.48s30.72-9.195,30.72-20.48c0,11.284,13.783,20.48,30.72,20.48s30.72-9.195,30.72-20.48h40.96
			c0,11.284,13.783,20.48,30.72,20.48s30.72-9.195,30.72-20.48c0,11.284,13.783,20.48,30.72,20.48s30.72-9.195,30.72-20.48h20.48
			v81.92h-20.48c-11.325,0-20.48,9.175-20.48,20.48c0,11.305,9.155,20.48,20.48,20.48h81.92c11.325,0,20.48-9.175,20.48-20.48
			C491.52,459.735,482.365,450.56,471.04,450.56z M409.6,327.68h-20.48c0-11.285-13.783-20.48-30.72-20.48s-30.72,9.195-30.72,20.48
			c0-11.285-13.783-20.48-30.72-20.48s-30.72,9.195-30.72,20.48h-40.96c0-11.285-13.783-20.48-30.72-20.48s-30.72,9.195-30.72,20.48
			c0-11.285-13.783-20.48-30.72-20.48s-30.72,9.195-30.72,20.48H81.92v-102.4h20.48c0,11.284,13.783,20.48,30.72,20.48
			s30.72-9.195,30.72-20.48c0,11.284,13.783,20.48,30.72,20.48s30.72-9.195,30.72-20.48c0,11.284,13.783,20.48,30.72,20.48
			s30.72-9.195,30.72-20.48c0,11.284,13.783,20.48,30.72,20.48s30.72-9.195,30.72-20.48h61.44V327.68z M409.6,184.32h-61.44
			c0-11.284-13.783-20.48-30.72-20.48s-30.72,9.195-30.72,20.48c0-11.284-13.783-20.48-30.72-20.48s-30.72,9.195-30.72,20.48
			c0-11.284-13.783-20.48-30.72-20.48s-30.72,9.195-30.72,20.48c0-11.284-13.783-20.48-30.72-20.48s-30.72,9.195-30.72,20.48H81.92
			V81.92h20.48c0,11.284,13.783,20.48,30.72,20.48s30.72-9.196,30.72-20.48h40.96c0,11.284,13.783,20.48,30.72,20.48
			s30.72-9.196,30.72-20.48c0,11.284,13.783,20.48,30.72,20.48s30.72-9.196,30.72-20.48c0,11.284,13.783,20.48,30.72,20.48
			s30.72-9.196,30.72-20.48h20.48V184.32z"/>
	</g>
</g>
<g>
</g>
<g>
</g>
<g>
</g>
<g>
</g>
<g>
</g>
<g>
</g>
<g>
</g>
<g>
</g>
<g>
</g>
<g>
</g>
<g>
</g>
<g>
</g>
<g>
</g>
<g>
</g>
<g>
</g>
</svg>
