<?xml version="1.0" encoding="iso-8859-1"?>
<!-- Generator: Adobe Illustrator 19.0.0, SVG Export Plug-In . SVG Version: 6.00 Build 0)  -->
<svg version="1.1" id="Layer_1" xmlns="http://www.w3.org/2000/svg" xmlns:xlink="http://www.w3.org/1999/xlink" x="0px" y="0px"
	 viewBox="0 0 491.576 491.576" style="enable-background:new 0 0 491.576 491.576;" xml:space="preserve">
<g>
	<g>
		<path d="M429.918,391.276l-16.4-192.4c-4-41.4-29.9-75.1-65.1-89.3c1.2-18.4,5.8-47.2,19.5-61c5.5-5.5,11.9-7.9,20.5-7.7
			c10.6,0.5,20.8-8.5,21.1-19.8c0.4-11.2-8.5-20.6-19.8-21c-19.6-0.9-37.3,6.2-50.7,19.7c-22.7,22.6-29.3,59.3-31.2,82.7h-0.7v-61.5
			c0-11.3-9.2-20.5-20.5-20.5h-81.9c-11.3,0-20.5,9.2-20.5,20.5v59.8c-1.2-23.5-6.8-58.8-28-80.9c-13.1-13.5-30.8-20.5-50.4-19.8
			c-11.3,0.4-20.2,9.8-19.8,21.1c0.3,11.3,9.9,20.5,21.1,19.8c8.5-0.2,14.4,2,19.5,7.3c13.1,13.6,16.5,42.8,16.9,61.2
			c-35.7,14.1-61.9,48.2-65.7,90.2l-16,188.6c-2.5,27.3,6.5,54.3,24.7,74.1c17.2,18.8,40.4,29.2,65.3,29.2h192.2
			c23.7,0,45.5-9.4,61.4-26.4C422.818,446.376,431.818,419.576,429.918,391.276z M225.218,61.476h41v41h-41V61.476z
			 M276.418,307.276h-61.4c-28.2,0-51.2-23-51.2-51.2s23-51.2,51.2-51.2h61.4c28.2,0,51.2,23,51.2,51.2
			S304.718,307.276,276.418,307.276z"/>
	</g>
</g>
<g>
	<g>
		<path d="M276.418,245.776h-61.4c-5.6,0-10.2,4.6-10.2,10.2s4.6,10.2,10.2,10.2h61.4c5.6,0,10.2-4.6,10.2-10.2
			C286.718,250.376,282.118,245.776,276.418,245.776z"/>
	</g>
</g>
<g>
</g>
<g>
</g>
<g>
</g>
<g>
</g>
<g>
</g>
<g>
</g>
<g>
</g>
<g>
</g>
<g>
</g>
<g>
</g>
<g>
</g>
<g>
</g>
<g>
</g>
<g>
</g>
<g>
</g>
</svg>
