<?xml version="1.0" encoding="iso-8859-1"?>
<!-- Generator: Adobe Illustrator 19.0.0, SVG Export Plug-In . SVG Version: 6.00 Build 0)  -->
<svg version="1.1" id="Layer_1" xmlns="http://www.w3.org/2000/svg" xmlns:xlink="http://www.w3.org/1999/xlink" x="0px" y="0px"
	 viewBox="0 0 491.524 491.524" style="enable-background:new 0 0 491.524 491.524;" xml:space="preserve">
<g>
	<g>
		<path d="M485.581,403.519c1.7-1.72,2.929-3.707,3.912-5.796c0.287-0.614,0.451-1.27,0.676-1.925
			c0.635-1.761,0.983-3.563,1.106-5.448c0.02-0.43,0.246-0.799,0.246-1.229V20.482c0-11.305-9.155-20.48-20.48-20.48H194.929
			c-28.447,0-51.569,23.122-51.569,51.548v133.059c-5.714,1.638-10.895,3.154-14.746,4.26c-13.23,3.85-25.477,10.097-36.332,18.555
			c-3.441,2.683-7.127,5.018-10.957,6.963c-15.688,7.946-27.423,21.463-33.137,38.093l-34.12,11.264
			C5.652,266.529,0,274.352,0,283.199v85.443c0,11.305,9.155,20.48,20.48,20.48h10.301c14.09,0,39.281,7.598,55.951,12.636
			l10.158,3.031c10.977,3.195,22.344,4.813,33.833,4.813h12.636v20.48c0,33.874,27.566,61.44,61.44,61.44h266.24
			c8.274,0,15.749-4.997,18.924-12.636c3.174-7.66,1.413-16.466-4.444-22.323c-19.292-19.292-19.292-33.649,0-52.941
			C485.54,403.581,485.56,403.54,485.581,403.519z M266.24,81.922h102.4c11.325,0,20.48,9.175,20.48,20.48
			c0,11.305-9.155,20.48-20.48,20.48h-102.4c-11.325,0-20.48-9.175-20.48-20.48C245.76,91.097,254.915,81.922,266.24,81.922z
			 M146.289,271.198c-1.925,6.574-2.929,13.681-2.929,21.176v0.02v76.247h-12.636c-7.598,0-15.114-1.065-22.385-3.195l-9.748-2.908
			c-17.838-5.366-39.281-11.837-57.631-13.804v-50.749l26.706-8.806c12.964-4.26,16.22-14.193,19.087-22.958
			c2.171-6.615,6.943-12.186,13.066-15.299c6.185-3.113,12.104-6.881,17.633-11.182c6.758-5.263,14.357-9.155,22.589-11.53
			c6.881-2.007,17.49-5.059,29.368-8.438c0.021-0.02,0.041,0,0.061-0.02c10.22-2.908,21.053-5.96,31.396-8.806
			c1.27-0.348,2.499-0.676,3.727-1.024c3.748-1.024,7.332-1.987,10.813-2.908c1.393-0.369,2.806-0.758,4.137-1.106
			c4.485-1.188,8.745-2.294,12.452-3.215c0.348-0.102,0.614,0.041,0.942,0.021c1.413-0.061,2.703,0.389,3.645,1.72
			c1.597,2.273,0.532,3.912,0.143,4.506c-3.215,4.854-8.028,8.479-13.537,10.179l-37.827,11.633
			c-3.236,1.004-6.328,2.232-9.236,3.707C161.526,241.789,151.06,254.794,146.289,271.198z M433.603,450.562H204.8
			c-11.305,0-20.48-9.195-20.48-20.48s9.175-20.48,20.48-20.48h228.803C428.974,423.18,428.974,436.984,433.603,450.562z"/>
	</g>
</g>
<g>
</g>
<g>
</g>
<g>
</g>
<g>
</g>
<g>
</g>
<g>
</g>
<g>
</g>
<g>
</g>
<g>
</g>
<g>
</g>
<g>
</g>
<g>
</g>
<g>
</g>
<g>
</g>
<g>
</g>
</svg>
