<?xml version="1.0" encoding="iso-8859-1"?>
<!-- Generator: Adobe Illustrator 19.0.0, SVG Export Plug-In . SVG Version: 6.00 Build 0)  -->
<svg version="1.1" id="Layer_1" xmlns="http://www.w3.org/2000/svg" xmlns:xlink="http://www.w3.org/1999/xlink" x="0px" y="0px"
	 viewBox="0 0 491.521 491.521" style="enable-background:new 0 0 491.521 491.521;" xml:space="preserve">
<g>
	<g>
		<g>
			<polygon points="256,129.551 153.6,158.817 153.6,198.139 256,168.873 			"/>
			<path d="M434.338,403.559c1.72-1.7,2.97-3.727,3.953-5.837c0.287-0.635,0.451-1.27,0.676-1.925
				c0.614-1.761,0.983-3.543,1.106-5.407c0.02-0.451,0.246-0.819,0.246-1.27v-286.72c0-11.305-9.175-20.48-20.48-20.48h-61.44
				v-61.44c0-6.492-3.072-12.616-8.315-16.466c-5.222-3.871-12.001-5.018-18.186-3.113l-266.24,81.92
				c-8.602,2.642-14.459,10.588-14.459,19.579v286.72v40.96c0,33.874,27.566,61.44,61.44,61.44h307.2
				c8.274,0,15.749-4.997,18.924-12.636c3.174-7.66,1.413-16.466-4.444-22.323c-9.605-9.605-14.479-18.514-14.479-26.481
				s4.874-16.876,14.479-26.481C434.318,403.6,434.338,403.58,434.338,403.559z M112.638,143.361
				c0-9.134,6.062-17.183,14.848-19.681l143.36-40.96c6.185-1.782,12.841-0.532,17.961,3.338c5.14,3.871,8.151,9.912,8.151,16.343
				v81.92c0,9.134-6.062,17.183-14.848,19.681l-143.36,40.96c-1.843,0.532-3.748,0.799-5.632,0.799
				c-4.403,0-8.745-1.413-12.329-4.137c-5.12-3.871-8.151-9.912-8.151-16.343V143.361z M382.401,450.561H112.638
				c-11.284,0-20.48-9.195-20.48-20.48s9.195-20.48,20.48-20.48h269.763C377.772,423.179,377.772,436.982,382.401,450.561z
				 M399.358,368.641H207.891L343.94,326.78c8.602-2.642,14.459-10.588,14.459-19.579v-184.32h40.96V368.641z"/>
		</g>
	</g>
</g>
<g>
</g>
<g>
</g>
<g>
</g>
<g>
</g>
<g>
</g>
<g>
</g>
<g>
</g>
<g>
</g>
<g>
</g>
<g>
</g>
<g>
</g>
<g>
</g>
<g>
</g>
<g>
</g>
<g>
</g>
</svg>
