<?xml version="1.0" encoding="iso-8859-1"?>
<!-- Generator: Adobe Illustrator 19.0.0, SVG Export Plug-In . SVG Version: 6.00 Build 0)  -->
<svg version="1.1" id="Layer_1" xmlns="http://www.w3.org/2000/svg" xmlns:xlink="http://www.w3.org/1999/xlink" x="0px" y="0px"
	 viewBox="0 0 491.52 491.52" style="enable-background:new 0 0 491.52 491.52;" xml:space="preserve">
<g>
	<g>
		<g>
			<path d="M235.569,253.301l-0.041,33.423c0,5.591,0,20.48,20.48,20.48c20.48,0,20.48-14.889,20.48-20.48l-0.061-33.423
				c-0.205-21.729-0.451-46.367,17.285-67.932c7.537-9.155,11.448-20.746,11.018-32.666c-0.922-25.907-24.31-49.889-49.07-50.299
				c-24.084,0.41-47.473,24.392-48.394,50.319c-0.43,11.899,3.482,23.491,11.018,32.645
				C236.02,206.934,235.774,231.571,235.569,253.301z"/>
			<path d="M434.338,403.558c1.72-1.7,2.97-3.727,3.953-5.837c0.287-0.635,0.451-1.27,0.676-1.925
				c0.614-1.761,0.983-3.543,1.106-5.407c0.02-0.451,0.246-0.819,0.246-1.27V20.48c0-11.305-9.175-20.48-20.48-20.48H102.746
				C74.34,0,51.198,23.122,51.198,51.548V430.08c0,33.874,27.566,61.44,61.44,61.44h307.2c8.274,0,15.749-4.997,18.924-12.636
				c3.174-7.66,1.413-16.466-4.444-22.323c-9.605-9.605-14.479-18.514-14.479-26.481s4.874-16.876,14.479-26.481
				C434.317,403.599,434.338,403.579,434.338,403.558z M166.316,151.245c1.741-47.903,42.639-89.027,89.354-89.805
				c47.37,0.778,88.289,41.902,90.01,89.805c0.778,21.914-6.431,43.295-20.337,60.15c-7.864,9.585-8.151,21.422-7.946,41.513
				l0.041,33.813c0,42.435-30.863,61.44-61.44,61.44c-30.577,0-61.44-19.005-61.44-61.44l0.061-33.813
				c0.184-20.091-0.082-31.928-7.967-41.513C172.767,194.54,165.538,173.158,166.316,151.245z M382.401,450.56H112.638
				c-11.284,0-20.48-9.195-20.48-20.48s9.195-20.48,20.48-20.48h269.763C377.772,423.178,377.772,436.982,382.401,450.56z"/>
		</g>
	</g>
</g>
<g>
</g>
<g>
</g>
<g>
</g>
<g>
</g>
<g>
</g>
<g>
</g>
<g>
</g>
<g>
</g>
<g>
</g>
<g>
</g>
<g>
</g>
<g>
</g>
<g>
</g>
<g>
</g>
<g>
</g>
</svg>
