<?xml version="1.0" encoding="iso-8859-1"?>
<!-- Generator: Adobe Illustrator 19.0.0, SVG Export Plug-In . SVG Version: 6.00 Build 0)  -->
<svg version="1.1" id="Layer_1" xmlns="http://www.w3.org/2000/svg" xmlns:xlink="http://www.w3.org/1999/xlink" x="0px" y="0px"
	 viewBox="0 0 511.969 511.969" style="enable-background:new 0 0 511.969 511.969;" xml:space="preserve">
<g>
	<g>
		<g>
			<path d="M505.109,277.96c-23.104-32.192-51.563-20.928-82.411-4.587L340.288,325c-5.888,3.115-17.899,4.672-31.211,5.419
				c-0.939-6.059-3.499-12.949-8.619-20.629c-15.829-23.573-33.899-33.643-60.523-33.643h-31.573c-14.08,0-27.712-4.437-38.4-12.459
				c-18.261-13.781-39.488-17.792-63.296-12.459v-5.909c0-11.776-9.557-21.333-21.333-21.333h-64C9.536,223.987,0,233.544,0,245.32
				v213.333c0,11.776,9.536,21.333,21.333,21.333h64c11.776,0,21.333-9.557,21.333-21.333v-0.021l63.531-0.043l4.885,0.085
				c17.109,0,34.432-1.301,51.029-3.84l104.235-13.653c4.203-0.107,8.469-0.597,12.736-1.493
				c11.947-1.813,23.253-7.424,32.853-16.299l122.667-95.531C513.493,315.528,516.352,293.619,505.109,277.96z M348.928,390.344
				c-0.576,0.448-1.131,0.917-1.643,1.408c-3.221,3.093-6.848,5.099-10.795,5.781c-0.619,0.085-1.237,0.192-1.856,0.341
				c-2.944,0.64-5.76,0.491-8.576,0.832l-105.92,13.888c-14.912,2.261-30.08,3.413-44.608,3.413l-4.885-0.085l-63.979,0.043V295.411
				c19.947-7.552,30.229-3.285,37.632,2.325c18.027,13.589,40.768,21.077,64.064,21.077h31.573c10.475,0,15.531,1.664,22.699,11.349
				c-1.963,0.256-4.309,0.448-7.04,0.512h-56.896c-32.427,0-49.365,21.461-49.365,42.667c0,11.776,9.237,22.08,21.013,22.08
				c11.797,0,21.013-8.789,21.013-20.565c0.448-0.405,2.709-1.515,7.339-1.515h56.981l6.571,0.107
				c39.659,0.704,76.971,0.427,99.371-11.541l82.325-51.563c8.981-4.736,14.955-7.317,18.88-8.704L348.928,390.344z"/>
			<rect x="170.658" y="31.982" width="170.667" height="149.333"/>
			<path d="M63.991,181.322h64V31.989h-64c-11.797,0-21.333,9.557-21.333,21.333v106.667
				C42.658,171.765,52.194,181.322,63.991,181.322z"/>
			<path d="M469.325,159.989V53.322c0-11.776-9.536-21.333-21.333-21.333h-64v149.333h64
				C459.789,181.322,469.325,171.765,469.325,159.989z"/>
		</g>
	</g>
</g>
<g>
</g>
<g>
</g>
<g>
</g>
<g>
</g>
<g>
</g>
<g>
</g>
<g>
</g>
<g>
</g>
<g>
</g>
<g>
</g>
<g>
</g>
<g>
</g>
<g>
</g>
<g>
</g>
<g>
</g>
</svg>
