<?xml version="1.0" encoding="iso-8859-1"?>
<!-- Generator: Adobe Illustrator 19.0.0, SVG Export Plug-In . SVG Version: 6.00 Build 0)  -->
<svg version="1.1" id="Layer_1" xmlns="http://www.w3.org/2000/svg" xmlns:xlink="http://www.w3.org/1999/xlink" x="0px" y="0px"
	 viewBox="0 0 491.52 491.52" style="enable-background:new 0 0 491.52 491.52;" xml:space="preserve">
<g>
	<g>
		<g>
			<rect x="163.84" y="102.394" width="163.84" height="40.96"/>
			<path d="M368.599,0H122.921C89.027,0,61.44,27.587,61.44,61.481v368.558c0,33.894,27.587,61.481,61.481,61.481h245.678
				c33.894,0,61.481-27.587,61.481-61.481V61.481C430.08,27.587,402.493,0,368.599,0z M204.8,430.08h-61.44
				c-11.325,0-20.48-9.175-20.48-20.48c0-11.305,9.155-20.48,20.48-20.48h61.44c11.325,0,20.48,9.175,20.48,20.48
				C225.28,420.905,216.125,430.08,204.8,430.08z M204.8,348.16h-61.44c-11.325,0-20.48-9.175-20.48-20.48
				c0-11.305,9.155-20.48,20.48-20.48h61.44c11.325,0,20.48,9.175,20.48,20.48C225.28,338.985,216.125,348.16,204.8,348.16z
				 M204.8,266.24h-61.44c-11.325,0-20.48-9.175-20.48-20.48c0-11.305,9.155-20.48,20.48-20.48h61.44
				c11.325,0,20.48,9.175,20.48,20.48C225.28,257.065,216.125,266.24,204.8,266.24z M348.16,430.08h-61.44
				c-11.325,0-20.48-9.175-20.48-20.48c0-11.305,9.155-20.48,20.48-20.48h61.44c11.325,0,20.48,9.175,20.48,20.48
				C368.64,420.905,359.485,430.08,348.16,430.08z M348.16,348.16h-61.44c-11.325,0-20.48-9.175-20.48-20.48
				c0-11.305,9.155-20.48,20.48-20.48h61.44c11.325,0,20.48,9.175,20.48,20.48C368.64,338.985,359.485,348.16,348.16,348.16z
				 M348.16,266.24h-61.44c-11.325,0-20.48-9.175-20.48-20.48c0-11.305,9.155-20.48,20.48-20.48h61.44
				c11.325,0,20.48,9.175,20.48,20.48C368.64,257.065,359.485,266.24,348.16,266.24z M368.64,163.84
				c0,11.305-9.155,20.48-20.48,20.48h-204.8c-11.325,0-20.48-9.175-20.48-20.48V81.92c0-11.305,9.155-20.48,20.48-20.48h204.8
				c11.325,0,20.48,9.175,20.48,20.48V163.84z"/>
		</g>
	</g>
</g>
<g>
</g>
<g>
</g>
<g>
</g>
<g>
</g>
<g>
</g>
<g>
</g>
<g>
</g>
<g>
</g>
<g>
</g>
<g>
</g>
<g>
</g>
<g>
</g>
<g>
</g>
<g>
</g>
<g>
</g>
</svg>
