<?xml version="1.0" encoding="iso-8859-1"?>
<!-- Generator: Adobe Illustrator 19.0.0, SVG Export Plug-In . SVG Version: 6.00 Build 0)  -->
<svg version="1.1" id="Layer_1" xmlns="http://www.w3.org/2000/svg" xmlns:xlink="http://www.w3.org/1999/xlink" x="0px" y="0px"
	 viewBox="0 0 491.52 491.52" style="enable-background:new 0 0 491.52 491.52;" xml:space="preserve">
<g>
	<g>
		<path d="M409.6,450.56h-23.388c-9.155-35.226-40.94-61.44-79.012-61.44h-4.506l-15.36-61.44l13.537-54.17
			c39.793-19.907,67.768-60.211,67.768-105.574l-0.021-74.015c-0.041-9.933,0.061-16.241,2.806-20.091l10.813-15.237
			c8.09-11.366,9.114-26.153,2.703-38.564C378.552,7.68,365.978,0,352.092,0H139.428c-13.885,0-26.46,7.68-32.85,20.029
			c-6.41,12.411-5.386,27.197,2.703,38.564l10.813,15.237c2.744,3.85,2.847,10.158,2.806,20.091l-0.021,74.015
			c0,45.363,27.976,85.668,67.768,105.574l13.537,54.17l-15.36,61.44h-4.506c-38.072,0-69.857,26.214-79.012,61.44H81.92
			c-11.325,0-20.48,9.175-20.48,20.48c0,11.305,9.155,20.48,20.48,20.48h40.96h245.76h40.96c11.325,0,20.48-9.175,20.48-20.48
			C430.08,459.735,420.925,450.56,409.6,450.56z M266.24,143.36h-40.96c-11.325,0-20.48-9.175-20.48-20.48
			c0-11.305,9.155-20.48,20.48-20.48h40.96c11.326,0,20.48,9.175,20.48,20.48C286.72,134.185,277.565,143.36,266.24,143.36z"/>
	</g>
</g>
<g>
</g>
<g>
</g>
<g>
</g>
<g>
</g>
<g>
</g>
<g>
</g>
<g>
</g>
<g>
</g>
<g>
</g>
<g>
</g>
<g>
</g>
<g>
</g>
<g>
</g>
<g>
</g>
<g>
</g>
</svg>
