<?xml version="1.0" encoding="iso-8859-1"?>
<!-- Generator: Adobe Illustrator 19.0.0, SVG Export Plug-In . SVG Version: 6.00 Build 0)  -->
<svg version="1.1" id="Layer_1" xmlns="http://www.w3.org/2000/svg" xmlns:xlink="http://www.w3.org/1999/xlink" x="0px" y="0px"
	 viewBox="0 0 491.52 491.52" style="enable-background:new 0 0 491.52 491.52;" xml:space="preserve">
<g>
	<g>
		<path d="M430.08,20.48h-61.44C368.64,9.175,359.485,0,348.16,0h-204.8c-11.325,0-20.48,9.175-20.48,20.48H61.44
			c-11.325,0-20.48,9.175-20.48,20.48v20.48c0,51.732,38.687,94.188,88.576,101.007c9.667,28.283,29.307,51.917,54.784,66.703
			V368.64h-0.082c-33.833,0-61.358,27.546-61.358,61.358v20.562H102.4c-11.325,0-20.48,9.175-20.48,20.48
			c0,11.325,9.155,20.48,20.48,20.48h40.96h204.8h40.96c11.325,0,20.48-9.155,20.48-20.48c0-11.305-9.155-20.48-20.48-20.48h-20.48
			v-20.562c0-33.813-27.525-61.358-61.358-61.358H307.2V229.151c25.477-14.787,45.117-38.42,54.784-66.703
			c49.889-6.82,88.576-49.275,88.576-101.007V40.96C450.56,29.655,441.405,20.48,430.08,20.48z M122.88,119.378
			C99.041,110.92,81.92,88.146,81.92,61.44h40.96V119.378z M282.419,166.625l-36.659-23.859l-36.659,23.859l13.988-43.11
			l-36.659-25.252h45.322L245.76,53.76l14.827,44.503h44.503l-36.659,25.252L282.419,166.625z M368.64,119.378V61.44h40.96
			C409.6,88.146,392.479,110.92,368.64,119.378z"/>
	</g>
</g>
<g>
</g>
<g>
</g>
<g>
</g>
<g>
</g>
<g>
</g>
<g>
</g>
<g>
</g>
<g>
</g>
<g>
</g>
<g>
</g>
<g>
</g>
<g>
</g>
<g>
</g>
<g>
</g>
<g>
</g>
</svg>
