<?xml version="1.0" encoding="iso-8859-1"?>
<!-- Generator: Adobe Illustrator 19.0.0, SVG Export Plug-In . SVG Version: 6.00 Build 0)  -->
<svg version="1.1" id="Layer_1" xmlns="http://www.w3.org/2000/svg" xmlns:xlink="http://www.w3.org/1999/xlink" x="0px" y="0px"
	 viewBox="0 0 494.106 494.106" style="enable-background:new 0 0 494.106 494.106;" xml:space="preserve">
<g>
	<g>
		<path d="M472.333,166.426h-20.48l36.844-49.152c0.532-0.676,0.655-1.495,1.065-2.232c0.717-1.229,1.352-2.417,1.782-3.727
			c0.41-1.249,0.614-2.478,0.778-3.768c0.164-1.311,0.287-2.56,0.205-3.871c-0.082-1.311-0.369-2.539-0.696-3.789
			c-0.328-1.29-0.696-2.499-1.27-3.707c-0.594-1.208-1.352-2.253-2.171-3.338c-0.533-0.696-0.778-1.536-1.413-2.171l-72.52-74.24
			c-0.021-0.02-0.061-0.02-0.082-0.061c-0.041-0.021-0.061-0.061-0.082-0.102c-21.688-21.688-59.494-21.688-81.162,0l-18.637,18.637
			c-3.85,3.85-6.001,9.052-6.001,14.479s2.15,10.65,6.001,14.479l52.183,52.203c4.014,3.994,9.257,5.98,14.479,5.98
			c5.243,0,10.486-1.987,14.479-5.98l18.678-18.657c3.871-3.891,6.84-8.315,9.38-12.902l21.709,22.241l-44.749,59.679H285.596
			l-11.243-89.969C269.11,34.35,233.126,2.586,190.692,2.586h-51.118c-42.455,0-78.438,31.764-83.661,73.851l-11.264,89.989H21.773
			c-11.325,0-20.48,9.175-20.48,20.48v245.76c0,11.305,9.155,20.48,20.48,20.48v20.48c0,11.305,9.155,20.48,20.48,20.48
			c11.305,0,20.48-9.175,20.48-20.48v-20.48h368.64v20.48c0,11.305,9.155,20.48,20.48,20.48c11.305,0,20.48-9.175,20.48-20.48
			v-20.48c11.305,0,20.48-9.175,20.48-20.48v-245.76C492.813,175.601,483.638,166.426,472.333,166.426z M85.916,166.426
			l10.629-84.91c2.703-21.647,21.197-37.97,43.029-37.97h51.118c21.811,0,40.305,16.323,43.008,37.97l10.629,84.91H85.916z"/>
	</g>
</g>
<g>
</g>
<g>
</g>
<g>
</g>
<g>
</g>
<g>
</g>
<g>
</g>
<g>
</g>
<g>
</g>
<g>
</g>
<g>
</g>
<g>
</g>
<g>
</g>
<g>
</g>
<g>
</g>
<g>
</g>
</svg>
