<?xml version="1.0" encoding="iso-8859-1"?>
<!-- Generator: Adobe Illustrator 19.0.0, SVG Export Plug-In . SVG Version: 6.00 Build 0)  -->
<svg version="1.1" id="Layer_1" xmlns="http://www.w3.org/2000/svg" xmlns:xlink="http://www.w3.org/1999/xlink" x="0px" y="0px"
	 viewBox="0 0 512 512" style="enable-background:new 0 0 512 512;" xml:space="preserve">
<g>
	<g>
		<g>
			<path d="M362.669,255.989c-23.531,0-42.667,19.136-42.667,42.667c0,12.395,5.397,23.467,13.845,31.275
				c0.128,0.107,0.299,0.171,0.427,0.277c15.957,14.357,40.832,14.357,56.789,0c0.128-0.107,0.277-0.171,0.405-0.277
				c8.469-7.808,13.867-18.88,13.867-31.275C405.335,275.125,386.178,255.989,362.669,255.989z"/>
			<path d="M490.667,64H21.333C9.536,64,0,73.557,0,85.333v341.333C0,438.443,9.536,448,21.333,448h277.333v-93.483
				c-13.12-15.019-21.333-34.411-21.333-55.851c0-47.061,38.272-85.333,85.333-85.333S448,251.605,448,298.667
				c0,21.44-8.213,40.832-21.333,55.851V448h64c11.797,0,21.333-9.557,21.333-21.333V85.333C512,73.557,502.464,64,490.667,64z
				 M192,362.667h-85.333c-11.797,0-21.333-9.557-21.333-21.333S94.869,320,106.667,320H192c11.797,0,21.333,9.557,21.333,21.333
				S203.797,362.667,192,362.667z M234.667,277.333h-128c-11.797,0-21.333-9.557-21.333-21.333s9.536-21.333,21.333-21.333h128
				c11.797,0,21.333,9.557,21.333,21.333S246.464,277.333,234.667,277.333z M277.333,192H106.667
				c-11.797,0-21.333-9.557-21.333-21.333s9.536-21.333,21.333-21.333h170.667c11.797,0,21.333,9.557,21.333,21.333
				S289.131,192,277.333,192z"/>
		</g>
	</g>
</g>
<g>
</g>
<g>
</g>
<g>
</g>
<g>
</g>
<g>
</g>
<g>
</g>
<g>
</g>
<g>
</g>
<g>
</g>
<g>
</g>
<g>
</g>
<g>
</g>
<g>
</g>
<g>
</g>
<g>
</g>
</svg>
