<?xml version="1.0" encoding="iso-8859-1"?>
<!-- Generator: Adobe Illustrator 19.0.0, SVG Export Plug-In . SVG Version: 6.00 Build 0)  -->
<svg version="1.1" id="Layer_1" xmlns="http://www.w3.org/2000/svg" xmlns:xlink="http://www.w3.org/1999/xlink" x="0px" y="0px"
	 viewBox="0 0 491.54 491.54" style="enable-background:new 0 0 491.54 491.54;" xml:space="preserve">
<g>
	<g>
		<g>
			<path d="M405.443,314.307l-8.765,8.008c-24.248,25.948-55.787,40.817-87.798,40.817h-0.635
				c-27.935-0.164-54.19-12.145-73.933-33.71c-12.575-15.258-32.215-23.654-54.579-23.839h-0.696
				c-23.306,0-45.589,9.257-58.307,24.248c-0.635,0.758-1.352,1.454-2.089,2.109l-36.127,31.805
				c5.652,53.371,37.315,100.495,85.893,125.522c2.908,1.475,6.124,2.273,9.38,2.273h134.799c3.256,0,6.472-0.799,9.38-2.273
				c53.699-27.648,87.061-82.248,87.061-142.5C409.027,335.708,407.634,324.895,405.443,314.307z"/>
			<path d="M180.07,264.622c34.529,0.287,65.577,14.111,85.176,37.97c11.407,12.411,26.604,19.476,43.233,19.579
				c19.907,0.471,41.779-10.138,59.453-28.979l22.733-20.849c-12.145-23.163-29.921-43.397-52.347-58.532
				c-7.434-5.018-11.203-15.278-11.203-30.454V163.84c11.305,0,20.48-9.155,20.48-20.48V81.92c0-5.55-2.273-10.854-6.267-14.725
				c-3.83-3.686-8.929-5.755-14.213-5.755V20.48c0-11.305-9.175-20.48-20.48-20.48h-122.88c-11.325,0-20.48,9.175-20.48,20.48v40.98
				c-10.916,0.369-19.661,9.257-19.784,20.234l-0.696,61.44c-0.061,5.468,2.048,10.752,5.919,14.643
				c3.83,3.891,9.073,6.062,14.561,6.062v19.517c0,15.176-3.789,25.436-11.223,30.454c-32.502,21.934-55.255,54.6-65.126,91.484
				l3.604-3.174C111.421,278.323,145.644,264.868,180.07,264.622z M184.207,102.4c11.1-0.246,20.029-9.318,20.029-20.48V40.96h81.92
				v41.677c0,5.55,2.253,10.875,6.246,14.725c3.83,3.707,8.929,5.755,14.234,5.755v19.763H183.982L184.207,102.4z"/>
		</g>
	</g>
</g>
<g>
</g>
<g>
</g>
<g>
</g>
<g>
</g>
<g>
</g>
<g>
</g>
<g>
</g>
<g>
</g>
<g>
</g>
<g>
</g>
<g>
</g>
<g>
</g>
<g>
</g>
<g>
</g>
<g>
</g>
</svg>
