<?xml version="1.0" encoding="iso-8859-1"?>
<!-- Generator: Adobe Illustrator 19.0.0, SVG Export Plug-In . SVG Version: 6.00 Build 0)  -->
<svg version="1.1" id="Layer_1" xmlns="http://www.w3.org/2000/svg" xmlns:xlink="http://www.w3.org/1999/xlink" x="0px" y="0px"
	 viewBox="0 0 491.52 491.52" style="enable-background:new 0 0 491.52 491.52;" xml:space="preserve">
<g>
	<g>
		<path d="M348.16,246.006V40.96h20.48c11.325,0,20.48-9.175,20.48-20.48C389.12,9.175,379.965,0,368.64,0h-40.96H163.84h-40.96
			c-11.305,0-20.48,9.175-20.48,20.48c0,11.305,9.175,20.48,20.48,20.48h20.48v207.073C118.067,273.9,102.4,309.207,102.4,348.16
			c0,79.053,64.328,143.36,143.36,143.36c79.053,0,143.36-64.307,143.36-143.36C389.12,302.121,372.019,268.861,348.16,246.006z
			 M184.32,40.96H307.2v177.766c-10.813-4.874-21.811-8.376-32.461-10.629c-0.205-0.041-0.389-0.082-0.594-0.123
			c-4.628-0.963-9.155-1.7-13.578-2.191c-0.614-0.082-1.249-0.184-1.864-0.246c-4.444-0.451-8.806-0.737-12.943-0.737
			c-5.222,0-10.363,0.328-15.442,0.881c-1.167,0.123-2.294,0.369-3.461,0.512c-3.973,0.533-7.926,1.167-11.797,2.007
			c-1.229,0.266-2.437,0.635-3.645,0.942c-3.789,0.942-7.537,1.966-11.182,3.215c-1.208,0.389-2.376,0.86-3.564,1.29
			c-3.666,1.352-7.27,2.806-10.793,4.444c-0.492,0.225-1.044,0.389-1.557,0.635V40.96z M318.587,384.573l-50.053-4.547
			L245.76,430.08l-22.753-50.053l-50.053,4.547l31.846-46.612l-31.846-35.758l50.053,4.997l22.753-40.96l22.774,40.96l50.053-4.547
			l-31.867,34.98L318.587,384.573z"/>
	</g>
</g>
<g>
</g>
<g>
</g>
<g>
</g>
<g>
</g>
<g>
</g>
<g>
</g>
<g>
</g>
<g>
</g>
<g>
</g>
<g>
</g>
<g>
</g>
<g>
</g>
<g>
</g>
<g>
</g>
<g>
</g>
</svg>
