<?xml version="1.0" encoding="iso-8859-1"?>
<!-- Generator: Adobe Illustrator 19.0.0, SVG Export Plug-In . SVG Version: 6.00 Build 0)  -->
<svg version="1.1" id="Layer_1" xmlns="http://www.w3.org/2000/svg" xmlns:xlink="http://www.w3.org/1999/xlink" x="0px" y="0px"
	 viewBox="0 0 512 512" style="enable-background:new 0 0 512 512;" xml:space="preserve">
<g>
	<g>
		<path d="M490.667,95.991H371.499l6.251-6.251C381.76,85.751,384,80.311,384,74.658V53.324c0-6.4-2.88-12.437-7.808-16.491
			c-4.928-4.053-11.413-5.653-17.707-4.416l-98.176,19.627c-56.555-27.2-131.627-26.496-185.173,2.624
			C68.267,58.402,64,65.591,64,73.399v22.592H21.333C9.536,95.991,0,105.548,0,117.324v341.333c0,11.776,9.536,21.333,21.333,21.333
			h469.333c11.797,0,21.333-9.557,21.333-21.333V117.324C512,105.548,502.464,95.991,490.667,95.991z M469.333,437.324H42.667
			V138.658H64v256c0,7.552,3.989,14.528,10.475,18.368c1.664,0.981,3.413,1.707,5.227,2.197c0.427,0.128,0.896,0.107,1.344,0.192
			c1.387,0.299,2.773,0.555,4.16,0.555c0.043,0,0.085,0.021,0.128,0.021c0.896,0,1.792-0.213,2.688-0.341
			c0.853-0.107,1.707-0.107,2.517-0.32c1.749-0.427,3.456-1.088,5.056-1.984c42.496-23.381,101.867-23.147,151.168,0.533
			c0.576,0.277,1.216,0.384,1.792,0.597c0.725,0.277,1.451,0.533,2.197,0.725c1.216,0.32,2.432,0.469,3.691,0.576
			c0.384,0.021,0.725,0.128,1.109,0.149c0.149,0,0.299,0.064,0.448,0.064s0.299-0.085,0.448-0.085
			c2.347-0.043,4.651-0.512,6.891-1.323c0.171-0.064,0.384-0.043,0.576-0.107l106.667-42.667
			c8.107-3.264,13.419-11.093,13.419-19.819v-21.333c0-5.653-2.24-11.093-6.251-15.083l-27.584-27.584l27.584-27.584
			c8.341-8.341,8.341-21.824,0-30.165l-27.584-27.584l27.584-27.584c8.341-8.341,8.341-21.824,0-30.165l-6.251-6.251h97.835V437.324
			z"/>
	</g>
</g>
<g>
</g>
<g>
</g>
<g>
</g>
<g>
</g>
<g>
</g>
<g>
</g>
<g>
</g>
<g>
</g>
<g>
</g>
<g>
</g>
<g>
</g>
<g>
</g>
<g>
</g>
<g>
</g>
<g>
</g>
</svg>
