<?xml version="1.0" encoding="iso-8859-1"?>
<!-- Generator: Adobe Illustrator 19.0.0, SVG Export Plug-In . SVG Version: 6.00 Build 0)  -->
<svg version="1.1" id="Layer_1" xmlns="http://www.w3.org/2000/svg" xmlns:xlink="http://www.w3.org/1999/xlink" x="0px" y="0px"
	 viewBox="0 0 512 512" style="enable-background:new 0 0 512 512;" xml:space="preserve">
<g>
	<g>
		<g>
			<path d="M21.333,17.589C9.557,17.589,0,27.147,0,38.923v405.333c0,11.776,9.557,21.333,21.333,21.333h159.68
				c26.069,5.44,41.131,13.163,51.733,26.432l1.92,2.389V102.923c0-1.707-0.192-3.371-0.427-5.035
				c-0.299-2.048,0.128-4.053,0.427-6.059V35.125c-16.192-10.837-34.709-17.536-51.499-17.536H21.333z M170.667,337.589h-64
				c-11.776,0-21.333-9.557-21.333-21.333s9.557-21.333,21.333-21.333h64c11.776,0,21.333,9.557,21.333,21.333
				S182.443,337.589,170.667,337.589z M170.667,252.256h-64c-11.776,0-21.333-9.557-21.333-21.333s9.557-21.333,21.333-21.333h64
				c11.776,0,21.333,9.557,21.333,21.333S182.443,252.256,170.667,252.256z M192,145.589c0,11.776-9.557,21.333-21.333,21.333h-64
				c-11.776,0-21.333-9.557-21.333-21.333s9.557-21.333,21.333-21.333h64C182.443,124.256,192,133.813,192,145.589z"/>
			<path d="M490.667,17.589H328.832c-16.789,0-35.307,6.699-51.499,17.536v57.92c0.171,1.621,0.661,3.2,0.427,4.843
				c-0.235,1.664-0.427,3.328-0.427,5.035v391.488l1.92-2.411c10.603-13.248,25.664-20.971,51.733-26.411h159.68
				c11.797,0,21.333-9.557,21.333-21.333V38.923C512,27.147,502.464,17.589,490.667,17.589z M405.333,337.589h-64
				c-11.776,0-21.333-9.557-21.333-21.333s9.557-21.333,21.333-21.333h64c11.776,0,21.333,9.557,21.333,21.333
				S417.109,337.589,405.333,337.589z M405.333,252.256h-64c-11.776,0-21.333-9.557-21.333-21.333s9.557-21.333,21.333-21.333h64
				c11.776,0,21.333,9.557,21.333,21.333S417.109,252.256,405.333,252.256z M405.333,166.923h-64
				c-11.776,0-21.333-9.557-21.333-21.333s9.557-21.333,21.333-21.333h64c11.776,0,21.333,9.557,21.333,21.333
				S417.109,166.923,405.333,166.923z"/>
		</g>
	</g>
</g>
<g>
</g>
<g>
</g>
<g>
</g>
<g>
</g>
<g>
</g>
<g>
</g>
<g>
</g>
<g>
</g>
<g>
</g>
<g>
</g>
<g>
</g>
<g>
</g>
<g>
</g>
<g>
</g>
<g>
</g>
</svg>
