<?xml version="1.0" encoding="iso-8859-1"?>
<!-- Generator: Adobe Illustrator 19.0.0, SVG Export Plug-In . SVG Version: 6.00 Build 0)  -->
<svg version="1.1" id="Layer_1" xmlns="http://www.w3.org/2000/svg" xmlns:xlink="http://www.w3.org/1999/xlink" x="0px" y="0px"
	 viewBox="0 0 512 512" style="enable-background:new 0 0 512 512;" xml:space="preserve">
<g>
	<g>
		<path d="M490.667,64.002h-128c-0.555,0-1.067,0.277-1.621,0.32c-0.875,0.064-1.707-0.085-2.56,0.107L257.792,84.546L92.821,22.68
			c-6.549-2.453-13.888-1.515-19.648,2.453C67.435,29.122,64,35.672,64,42.669v21.824l-42.411-0.491
			c-5.845-0.085-11.2,2.155-15.253,6.165S0,79.64,0,85.336v384c0,11.776,9.557,21.333,21.333,21.333H256h234.667
			c11.797,0,21.333-9.557,21.333-21.333v-384C512,73.56,502.464,64.002,490.667,64.002z M42.667,448.002V106.925L64,107.16v298.176
			c0,2.219,0.341,4.395,1.003,6.421c0.405,1.301,1.131,2.432,1.771,3.627c0.363,0.683,0.576,1.451,1.024,2.091
			c2.411,3.499,5.888,6.272,10.048,7.851l11.605,4.352l48.811,18.325H42.667z M211.093,350.872
			c-3.755,7.488-11.285,11.797-19.115,11.797c-3.2,0-6.464-0.725-9.515-2.24l-42.667-21.333
			c-10.539-5.291-14.827-18.091-9.557-28.629c5.291-10.539,18.069-14.827,28.629-9.557l42.667,21.333
			C212.075,327.533,216.363,340.333,211.093,350.872z M211.093,265.538c-3.755,7.488-11.285,11.797-19.115,11.797
			c-3.2,0-6.464-0.725-9.515-2.24l-42.667-21.333c-10.539-5.291-14.827-18.091-9.557-28.629
			c5.291-10.539,18.069-14.827,28.629-9.557l42.667,21.333C212.075,242.2,216.363,255,211.093,265.538z M211.093,180.205
			c-3.755,7.488-11.285,11.797-19.115,11.797c-3.2,0-6.464-0.725-9.515-2.24l-42.667-21.333
			c-10.539-5.291-14.827-18.091-9.557-28.629c5.291-10.517,18.069-14.827,28.629-9.557l42.667,21.333
			C212.075,156.866,216.363,169.666,211.093,180.205z M469.333,448.002H366.784l3.819-1.515c6.656-2.667,11.52-8.512,12.949-15.531
			c1.451-7.019-0.725-14.293-5.803-19.371l-27.584-27.584l27.584-27.584c8.341-8.341,8.341-21.824,0-30.165l-27.584-27.584
			l27.584-27.584c8.341-8.341,8.341-21.824,0-30.165l-27.584-27.584l27.584-27.584c8.341-8.341,8.341-21.824,0-30.165
			l-27.584-27.584l21.333-21.333h97.835V448.002z"/>
	</g>
</g>
<g>
</g>
<g>
</g>
<g>
</g>
<g>
</g>
<g>
</g>
<g>
</g>
<g>
</g>
<g>
</g>
<g>
</g>
<g>
</g>
<g>
</g>
<g>
</g>
<g>
</g>
<g>
</g>
<g>
</g>
</svg>
