<?xml version="1.0" encoding="iso-8859-1"?>
<!-- Generator: Adobe Illustrator 19.0.0, SVG Export Plug-In . SVG Version: 6.00 Build 0)  -->
<svg version="1.1" id="Layer_1" xmlns="http://www.w3.org/2000/svg" xmlns:xlink="http://www.w3.org/1999/xlink" x="0px" y="0px"
	 viewBox="0 0 491.521 491.521" style="enable-background:new 0 0 491.521 491.521;" xml:space="preserve">
<g>
	<g>
		<path d="M418.325,109.671l-8.827-91.156c-0.737-7.721-5.775-14.356-13.025-17.142c-7.27-2.785-15.421-1.27-21.156,3.973
			l-67.645,61.747c-2.089,1.925-3.748,4.219-4.895,6.799l-3.482,7.844l-35.205-70.41c-6.963-13.885-29.696-13.885-36.659,0
			l-35.205,70.41l-3.482-7.823c-1.147-2.581-2.806-4.895-4.895-6.799L116.204,5.367c-5.714-5.263-13.906-6.779-21.156-3.994
			c-7.25,2.785-12.288,9.421-13.025,17.142l-8.827,91.156c-0.328,3.523,0.246,7.066,1.679,10.301l28.652,64.348H102.4
			c-11.325,0-20.48,9.175-20.48,20.48v200.765c0,47.391,38.564,85.955,85.955,85.955h155.771c47.391,0,85.955-38.564,85.955-85.955
			V204.801c0-11.305-9.155-20.48-20.48-20.48h-1.126l28.652-64.348C418.079,116.737,418.653,113.194,418.325,109.671z
			 M184.32,184.321h-35.963l-33.874-76.083l4.362-45.015l34.243,31.252l31.232,70.185V184.321z M266.24,160.298v24.023h-40.96
			v-24.023v-53.064l20.48-40.96l20.48,40.96V160.298z M343.163,184.321H307.2V164.66l31.232-70.185l34.243-31.252l4.362,45.015
			L343.163,184.321z"/>
	</g>
</g>
<g>
</g>
<g>
</g>
<g>
</g>
<g>
</g>
<g>
</g>
<g>
</g>
<g>
</g>
<g>
</g>
<g>
</g>
<g>
</g>
<g>
</g>
<g>
</g>
<g>
</g>
<g>
</g>
<g>
</g>
</svg>
