<?xml version="1.0" encoding="iso-8859-1"?>
<!-- Generator: Adobe Illustrator 19.0.0, SVG Export Plug-In . SVG Version: 6.00 Build 0)  -->
<svg version="1.1" id="Layer_1" xmlns="http://www.w3.org/2000/svg" xmlns:xlink="http://www.w3.org/1999/xlink" x="0px" y="0px"
	 viewBox="0 0 491.525 491.525" style="enable-background:new 0 0 491.525 491.525;" xml:space="preserve">
<g>
	<g>
		<path d="M430.083,0c-11.325,0-20.48,9.175-20.48,20.48v20.48H81.923V20.48C81.923,9.175,72.768,0,61.443,0
			s-20.48,9.175-20.48,20.48v40.96v81.92v40.96c0,11.305,9.155,20.48,20.48,20.48s20.48-9.175,20.48-20.48v-20.48h20.48v307.2
			c0,8.274,4.977,15.749,12.636,18.924c7.659,3.154,16.466,1.413,22.323-4.444l46.961-46.961l46.961,46.961
			c8.008,8.008,20.951,8.008,28.959,0l46.961-46.961l46.961,46.961c3.912,3.912,9.155,6.001,14.479,6.001
			c2.642,0,5.304-0.512,7.844-1.556c7.66-3.174,12.636-10.65,12.636-18.924v-307.2h20.48v20.48c0,11.305,9.155,20.48,20.48,20.48
			s20.48-9.175,20.48-20.48v-40.96V61.44V20.48C450.563,9.175,441.408,0,430.083,0z M286.723,327.68h-81.92
			c-11.325,0-20.48-9.175-20.48-20.48c0-11.305,9.155-20.48,20.48-20.48h81.92c11.325,0,20.48,9.175,20.48,20.48
			C307.203,318.505,298.048,327.68,286.723,327.68z M286.723,245.76h-81.92c-11.325,0-20.48-9.175-20.48-20.48
			c0-11.305,9.155-20.48,20.48-20.48h81.92c11.325,0,20.48,9.175,20.48,20.48C307.203,236.585,298.048,245.76,286.723,245.76z
			 M409.603,122.88h-40.96h-245.76h-40.96V81.92h327.68V122.88z"/>
	</g>
</g>
<g>
</g>
<g>
</g>
<g>
</g>
<g>
</g>
<g>
</g>
<g>
</g>
<g>
</g>
<g>
</g>
<g>
</g>
<g>
</g>
<g>
</g>
<g>
</g>
<g>
</g>
<g>
</g>
<g>
</g>
</svg>
