<?xml version="1.0" encoding="iso-8859-1"?>
<!-- Generator: Adobe Illustrator 19.0.0, SVG Export Plug-In . SVG Version: 6.00 Build 0)  -->
<svg version="1.1" id="Layer_1" xmlns="http://www.w3.org/2000/svg" xmlns:xlink="http://www.w3.org/1999/xlink" x="0px" y="0px"
	 viewBox="0 0 512.149 512.149" style="enable-background:new 0 0 512.149 512.149;" xml:space="preserve">
<g>
	<g>
		<path d="M512.149,60.851c0-14.229-5.547-27.627-15.637-37.696c-20.779-20.757-54.592-20.757-75.349,0L262.677,181.533
			l-45.248-45.248c-3.989-4.011-9.408-6.251-15.083-6.251c-5.675,0-11.072,2.24-15.083,6.251L6.251,317.299
			C2.24,321.288,0,326.728,0,332.381c0,5.653,2.24,11.072,6.251,15.083l105.6,105.6l45.248,45.248
			c3.989,4.011,9.408,6.251,15.083,6.251s11.093-2.24,15.083-6.251l181.013-181.013c4.011-4.011,6.251-9.429,6.251-15.083
			s-2.24-11.093-6.251-15.083l-30.165-30.187L496.533,98.525C506.603,88.477,512.149,75.08,512.149,60.851z M97.045,317.021
			c-16.597,16.576-16.811,43.456-0.597,60.288l-44.949-44.928l150.848-150.848l44.715,44.715
			c-16.811-15.936-43.563-15.723-60.096,0.811L97.045,317.021z M172.181,453.064l-15.083-15.104l15.083-15.083l135.744-135.744
			l15.104,15.083L172.181,453.064z"/>
	</g>
</g>
<g>
</g>
<g>
</g>
<g>
</g>
<g>
</g>
<g>
</g>
<g>
</g>
<g>
</g>
<g>
</g>
<g>
</g>
<g>
</g>
<g>
</g>
<g>
</g>
<g>
</g>
<g>
</g>
<g>
</g>
</svg>
