<?xml version="1.0" encoding="iso-8859-1"?>
<!-- Generator: Adobe Illustrator 19.0.0, SVG Export Plug-In . SVG Version: 6.00 Build 0)  -->
<svg xmlns="http://www.w3.org/2000/svg" xmlns:xlink="http://www.w3.org/1999/xlink" version="1.1" id="Capa_1" x="0px" y="0px" viewBox="0 0 512 512" style="enable-background:new 0 0 512 512;" xml:space="preserve">
<g>
	<g>
		<path d="M497,242h-47.762C441.914,146.452,365.548,70.088,270,62.76V15c0-8.291-6.709-15-15-15c-8.291,0-15,6.709-15,15v47.76    C144.452,70.088,68.086,146.452,60.762,242H15c-8.291,0-15,6.709-15,15s6.709,15,15,15h45.762    c7.324,95.548,83.69,171.912,179.238,179.24V497c0,8.291,6.709,15,15,15s15-6.709,15-15v-45.76    c95.548-7.328,171.914-83.692,179.238-179.24H497c8.291,0,15-6.709,15-15C512,248.709,505.291,242,497,242z M240,421.24    C160.99,414.073,97.925,351.019,90.762,272h60.754c6.643,45.807,42.678,81.843,88.484,88.484V421.24z M240,330.482    c-29.348-5.98-52.504-29.139-58.484-58.482h31.245c4.534,12.708,14.531,22.705,27.239,27.237V330.482z M240,214.763    c-12.708,4.532-22.705,14.529-27.239,27.237h-31.245c5.98-29.343,29.136-52.502,58.484-58.482V214.763z M240,153.516    c-45.806,6.641-81.841,42.676-88.484,88.484H90.762C97.925,162.981,160.99,99.927,240,92.76V153.516z M270,183.518    c29.348,5.98,52.504,29.139,58.484,58.482h-31.245c-4.534-12.708-14.531-22.705-27.239-27.237V183.518z M270,299.237    c12.708-4.532,22.705-14.729,27.239-27.437h31.245c-5.98,29.343-29.136,52.702-58.484,58.682V299.237z M270,421.24v-60.756    c45.806-6.641,81.841-42.876,88.484-88.684h60.754C412.075,350.819,349.01,414.073,270,421.24z M358.484,242    c-6.643-45.807-42.678-81.843-88.484-88.484V92.76c79.01,7.167,142.075,70.221,149.238,149.24H358.484z"/>
	</g>
</g>
<g>
</g>
<g>
</g>
<g>
</g>
<g>
</g>
<g>
</g>
<g>
</g>
<g>
</g>
<g>
</g>
<g>
</g>
<g>
</g>
<g>
</g>
<g>
</g>
<g>
</g>
<g>
</g>
<g>
</g>
</svg>
