<?xml version="1.0" encoding="iso-8859-1"?>
<!-- Generator: Adobe Illustrator 19.0.0, SVG Export Plug-In . SVG Version: 6.00 Build 0)  -->
<svg xmlns="http://www.w3.org/2000/svg" xmlns:xlink="http://www.w3.org/1999/xlink" version="1.1" id="Capa_1" x="0px" y="0px" viewBox="0 0 512.001 512.001" style="enable-background:new 0 0 512.001 512.001;" xml:space="preserve">
<g>
	<g>
		<path d="M301.753,2.528c-29.485,9.818-61.989,9.833-91.533-0.015c-29.297-9.807-59.263,10.272-59.263,40.903v53.286    c46.909,20.628,131.221,43.05,210.089-8.378V43.016C361.046,12.254,330.989-7.217,301.753,2.528z"/>
	</g>
</g>
<g>
	<g>
		<path d="M383.291,109.842c-42.11,29.237-86.044,39.625-126.499,39.625c-59.124,0-110.178-21.174-137.64-35.151    c-18.417,9.624-28.221,21.564-28.221,35.532c0,22.164,24.818,37.785,60.025,47.546v40.854    c0,87.613,52.752,123.688,105.044,123.688c52.473,0,105.045-37.116,105.045-119.981v-44.562    c35.208-9.762,60.025-25.382,60.025-47.547C421.072,133.626,407.956,120.118,383.291,109.842z"/>
	</g>
</g>
<g>
	<g>
		<path d="M108.937,442.971c-11.404-8.404-18.006-21.909-18.006-36.015v-2.101l-39.799-19.953    c-12.537,20.834-20.228,45.341-20.228,70.093v42c0,8.295,6.712,15.006,15.006,15.006h155.065L108.937,442.971z"/>
	</g>
</g>
<g>
	<g>
		<path d="M186.076,372.117c-31.848-19.451-55.166-51.567-62.528-89.447c-26.052,11.398-47.983,31.428-61.048,57.548    c-3.693,7.415-0.703,16.428,6.712,20.135l0.264,0.132l-0.015,0.018l51.482,25.743v20.709c0,4.801,2.103,9.304,6.002,12.006    l116.581,87.437L186.076,372.117z"/>
	</g>
</g>
<g>
	<g>
		<path d="M459.902,385.377l-38.831,19.478v2.101c0,14.105-6.602,27.611-18.007,36.015l-92.039,69.029H466.09    c8.294,0,15.006-6.712,15.006-15.006V456.68C481.097,432.303,472.89,406.936,459.902,385.377z"/>
	</g>
</g>
<g>
	<g>
		<path d="M449.502,340.218c-13.065-26.113-34.995-46.146-61.051-57.541c-7.364,37.891-30.694,70.018-62.561,89.463l-53.446,125.011    l2.033,4.744l110.58-82.934c3.899-2.701,6.002-7.203,6.002-12.005v-20.709l50.708-25.287c-0.018-0.022-0.033-0.048-0.055-0.07    l1.077-0.536C450.205,356.646,453.194,347.633,449.502,340.218z"/>
	</g>
</g>
<g>
	<g>
		<path d="M256.001,391.949c-10.456,0-20.48-1.583-30.255-3.844l30.255,70.652l30.277-70.656    C276.496,390.367,266.465,391.949,256.001,391.949z"/>
	</g>
</g>
<g>
</g>
<g>
</g>
<g>
</g>
<g>
</g>
<g>
</g>
<g>
</g>
<g>
</g>
<g>
</g>
<g>
</g>
<g>
</g>
<g>
</g>
<g>
</g>
<g>
</g>
<g>
</g>
<g>
</g>
</svg>
