<?xml version="1.0" encoding="iso-8859-1"?>
<!-- Generator: Adobe Illustrator 19.0.0, SVG Export Plug-In . SVG Version: 6.00 Build 0)  -->
<svg xmlns="http://www.w3.org/2000/svg" xmlns:xlink="http://www.w3.org/1999/xlink" version="1.1" id="Capa_1" x="0px" y="0px" viewBox="0 0 512 512" style="enable-background:new 0 0 512 512;" xml:space="preserve">
<g>
	<g>
		<path d="M329.397,284.529l-10.607-10.622L162.398,432.311c26.357,3.524,46.853-4.421,62.898-20.483    c5.392-5.362,7.903-11.545,11.391-18.387c3.047-5.904,9.347-9.171,16.027-7.94c43.366,7.677,87.962-6.183,119.11-37.345    c10.227-10.232,18.24-21.957,24.511-34.55C371.627,311.978,347.435,302.567,329.397,284.529z"/>
	</g>
</g>
<g>
	<g>
		<path d="M499.139,157.215c-16.995-16.995-46.648-16.995-63.643,0l-31.821,31.836l-37.733-37.731    c9.925-2.611,19.368-7.55,27.126-15.319v-0.015c23.354-23.383,23.354-61.459,0-84.857c-23.442-23.427-61.562-23.367-84.886,0    c-7.765,7.759-12.71,17.189-15.321,27.107l-48.321-48.321c-28.356-28.317-75.748-28.351-104.071,0L98.042,72.343    c-17.584,17.584-17.6,46.073,0,63.643c0,0,0.018,0.015,0.026,0.022c16.867,16.843,46.146,16.96,63.185,0.348    c0.135-0.132,0.3-0.222,0.432-0.355l31.821-31.821l21.214,21.214c-61.163,61.181-8.274,8.689-56.669,57.084l-0.004,0.002    l-4.392,4.394c-85.674,0-23.85,0-108.678,0C20.189,186.872,0,206.66,0,231.464v84.871c0,25.376,20.662,45.007,44.978,45.007    c24.818,0,45.007-20.189,45.007-45.007c0-3.972,0-35.844,0-39.864c21.785,0,38.147,0,58.515,0    c-46.783,46.783-59.76,59.76-114.129,114.128c-15.018,15.031-18.282,45.345,0,63.643c17.024,17.039,46.706,16.981,63.672,0    l210.141-212.156c5.857-5.857,15.357-5.857,21.214,0l21.214,21.229c28.305,28.305,77.795,28.319,106.1-0.015l41.828-42.428    C516.119,203.285,516.647,174.73,499.139,157.215z"/>
	</g>
</g>
<g>
	<g>
		<path d="M283.336,413.323c-24.818,0-45.007,20.189-45.007,45.007c0,24.818,20.189,45.007,45.007,45.007    c24.818,0,45.007-20.189,45.007-45.007C328.342,433.512,308.153,413.323,283.336,413.323z"/>
	</g>
</g>
<g>
</g>
<g>
</g>
<g>
</g>
<g>
</g>
<g>
</g>
<g>
</g>
<g>
</g>
<g>
</g>
<g>
</g>
<g>
</g>
<g>
</g>
<g>
</g>
<g>
</g>
<g>
</g>
<g>
</g>
</svg>
