<?xml version="1.0" encoding="iso-8859-1"?>
<!-- Generator: Adobe Illustrator 19.0.0, SVG Export Plug-In . SVG Version: 6.00 Build 0)  -->
<svg xmlns="http://www.w3.org/2000/svg" xmlns:xlink="http://www.w3.org/1999/xlink" version="1.1" id="Capa_1" x="0px" y="0px" viewBox="0 0 512 512" style="enable-background:new 0 0 512 512;" xml:space="preserve">
<g>
	<g>
		<path d="M256.146,149.868c-24.814,0-45,20.186-45,45c0,24.814,20.186,45,45,45c24.814,0,45-20.186,45-45    C301.146,170.054,280.961,149.868,256.146,149.868z"/>
	</g>
</g>
<g>
	<g>
		<path d="M256.146,299.868c-36.211,0-66.533,25.811-73.506,60h147.012C322.68,325.679,292.357,299.868,256.146,299.868z"/>
	</g>
</g>
<g>
	<g>
		<path d="M466,0H46c-8.291,0-15,6.709-15,15v482c0,8.291,6.709,15,15,15h420c8.291,0,15-6.709,15-15V15C481,6.709,474.291,0,466,0z     M376.146,449.868h-240c-8.291,0-15-6.709-15-15c0-8.291,6.709-15,15-15h240c8.291,0,15,6.709,15,15    C391.146,443.159,384.438,449.868,376.146,449.868z M421,375c0,8.291-6.709,15-15,15H106c-8.291,0-15-6.709-15-15V75    c0-8.291,6.709-15,15-15h300c8.291,0,15,6.709,15,15V375z"/>
	</g>
</g>
<g>
	<g>
		<path d="M121,90v270h31.648c7.302-50.814,50.698-90.132,103.499-90.132c-41.367,0-75-33.647-75-75c0-41.353,33.633-75,75-75    s75,33.647,75,75c0,41.353-33.633,75-75,75c52.8,0,96.196,39.318,103.499,90.132H391V90H121z"/>
	</g>
</g>
<g>
</g>
<g>
</g>
<g>
</g>
<g>
</g>
<g>
</g>
<g>
</g>
<g>
</g>
<g>
</g>
<g>
</g>
<g>
</g>
<g>
</g>
<g>
</g>
<g>
</g>
<g>
</g>
<g>
</g>
</svg>
