<?xml version="1.0" encoding="iso-8859-1"?>
<!-- Generator: Adobe Illustrator 19.0.0, SVG Export Plug-In . SVG Version: 6.00 Build 0)  -->
<svg xmlns="http://www.w3.org/2000/svg" xmlns:xlink="http://www.w3.org/1999/xlink" version="1.1" id="Capa_1" x="0px" y="0px" viewBox="0 0 512 512" style="enable-background:new 0 0 512 512;" xml:space="preserve">
<g>
	<g>
		<path d="M106.028,422.017c-24.81,0-44.992,20.182-44.992,44.992c0,24.809,20.182,44.992,44.992,44.992h329.939    c8.289,0,14.997-6.708,14.997-14.997v-59.989v-14.997H106.028z"/>
	</g>
</g>
<g>
	<g>
		<path d="M105.94,0.037C81.188,0.081,61.036,20.262,61.036,45.029v362.369c12.57-9.514,28.043-15.374,44.992-15.374h14.997v-0.001    V0L105.94,0.037z"/>
	</g>
</g>
<g>
	<g>
		<path d="M333.71,120.141h-95.138c-4.511,12.771-14.645,22.706-27.417,27.232v35.12c12.771,4.525,22.906,14.66,27.417,27.432    h95.138c4.511-12.771,14.445-22.706,27.217-27.232v-35.12C348.156,143.047,338.221,132.912,333.71,120.141z M316.135,180.13    h-59.989c-8.289,0-14.997-6.908-14.997-15.197c0-8.289,6.708-14.997,14.997-14.997h59.989c8.289,0,14.997,6.708,14.997,14.997    C331.132,173.222,324.424,180.13,316.135,180.13z"/>
	</g>
</g>
<g>
	<g>
		<path d="M435.967,0.095H151.02v391.927h299.944V15.092C450.964,6.803,444.256,0.095,435.967,0.095z M346.129,362.096H226.152    c-8.289,0-14.997-6.908-14.997-15.197c0-8.289,6.708-14.997,14.997-14.997h119.978c8.289,0,14.997,6.708,14.997,14.997    C361.126,355.188,354.419,362.096,346.129,362.096z M391.121,194.927c0,8.289-6.708,14.997-14.997,14.997    c-8.26,0-14.997,6.723-14.997,14.997c0,8.289-6.708,15.197-14.997,15.197H226.152c-8.289,0-14.997-6.908-14.997-15.197    c0-8.274-6.737-14.997-14.997-14.997c-8.289,0-15.197-6.508-15.197-14.797v-59.989c0-8.289,6.908-15.197,15.197-15.197    c8.26,0,14.997-6.723,14.997-14.997c0-8.289,6.708-14.997,14.997-14.997h119.978c8.289,0,14.997,6.708,14.997,14.997    c0,8.274,6.737,14.997,14.997,14.997c8.289,0,14.997,6.708,14.997,14.997V194.927z"/>
	</g>
</g>
<g>
</g>
<g>
</g>
<g>
</g>
<g>
</g>
<g>
</g>
<g>
</g>
<g>
</g>
<g>
</g>
<g>
</g>
<g>
</g>
<g>
</g>
<g>
</g>
<g>
</g>
<g>
</g>
<g>
</g>
</svg>
