<?xml version="1.0" encoding="iso-8859-1"?>
<!-- Generator: Adobe Illustrator 19.0.0, SVG Export Plug-In . SVG Version: 6.00 Build 0)  -->
<svg xmlns="http://www.w3.org/2000/svg" xmlns:xlink="http://www.w3.org/1999/xlink" version="1.1" id="Capa_1" x="0px" y="0px" viewBox="0 0 512 512" style="enable-background:new 0 0 512 512;" xml:space="preserve">
<g>
	<g>
		<path d="M345,0H165c-24.902,0-45,20.099-45,45v30c0,24.901,20.098,45,45,45h180c24.902,0,45-20.099,45-45V45    C390,20.099,369.902,0,345,0z"/>
	</g>
</g>
<g>
	<g>
		<path d="M467,180H339.272l15-30H155.728l15,30H120v-15c0-24.814-20.186-45-45-45c-24.814,0-45,20.186-45,45v17.763    C12.578,188.976,0,205.47,0,225v45h181.75c18.937-18.499,44.751-30,73.25-30c28.499,0,54.313,11.501,73.25,30H512v-45    C512,200.186,491.814,180,467,180z"/>
	</g>
</g>
<g>
	<g>
		<path d="M349.468,300C356.023,313.693,360,328.835,360,345c0,16.165-3.977,31.307-10.532,45H512v-90H349.468z"/>
	</g>
</g>
<g>
	<g>
		<path d="M255,330c-8.262,0-15,6.724-15,15s6.738,15,15,15c8.262,0,15-6.724,15-15S263.262,330,255,330z"/>
	</g>
</g>
<g>
	<g>
		<path d="M328.25,420c-18.937,18.499-44.751,30-73.25,30c-28.499,0-54.313-11.501-73.25-30H0v47c0,24.814,20.186,45,45,45h422    c24.814,0,45-20.186,45-45v-47H328.25z"/>
	</g>
</g>
<g>
	<g>
		<path d="M160.532,300H0v90h160.532C153.977,376.307,150,361.165,150,345C150,328.835,153.977,313.693,160.532,300z"/>
	</g>
</g>
<g>
	<g>
		<path d="M255,270c-41.4,0-75,33.6-75,75c0,41.4,33.6,75,75,75c41.4,0,75-33.6,75-75C330,303.6,296.4,270,255,270z M255,390    c-24.902,0-45-20.099-45-45s20.098-45,45-45c24.902,0,45,20.099,45,45S279.902,390,255,390z"/>
	</g>
</g>
<g>
</g>
<g>
</g>
<g>
</g>
<g>
</g>
<g>
</g>
<g>
</g>
<g>
</g>
<g>
</g>
<g>
</g>
<g>
</g>
<g>
</g>
<g>
</g>
<g>
</g>
<g>
</g>
<g>
</g>
</svg>
