<?xml version="1.0" encoding="iso-8859-1"?>
<!-- Generator: Adobe Illustrator 19.0.0, SVG Export Plug-In . SVG Version: 6.00 Build 0)  -->
<svg xmlns="http://www.w3.org/2000/svg" xmlns:xlink="http://www.w3.org/1999/xlink" version="1.1" id="Capa_1" x="0px" y="0px" viewBox="0 0 512 512" style="enable-background:new 0 0 512 512;" xml:space="preserve">
<g>
	<g>
		<path d="M257,0C116.404,0,0,114.39,0,255s116.404,257,257,257s255-116.39,255-257S397.596,0,257,0z M176.25,155.537    C159.157,174.908,150,198.564,150,228.208v132.854c0,8.291-6.709,15-15,15s-15-6.709-15-15V228.208    c0-37.22,12.001-67.857,33.75-92.505c5.479-6.24,14.912-6.812,21.182-1.333C181.143,139.849,181.729,149.326,176.25,155.537z     M210,396.717c0,8.291-6.709,15-15,15s-15-6.709-15-15V285c0-8.291,6.709-15,15-15s15,6.709,15,15V396.717z M272,407    c0,8.291-6.709,15-15,15c-8.291,0-15-6.709-15-15v-62c0-8.291,6.709-15,15-15s15,6.709,15,15V407z M272,285    c0,8.291-6.709,15-15,15c-8.291,0-15-6.709-15-15v-60c0-8.291,6.709-15,15-15s15,6.709,15,15V285z M295.994,202.515    C287.967,188.628,273.025,180,257,180c-24.814,0-47,20.186-47,45c0,8.291-6.709,15-15,15s-15-6.709-15-15    c0-41.353,35.633-75,77-75c26.689,0,51.592,14.37,64.951,37.485c4.16,7.178,1.699,16.348-5.479,20.493    C309.383,212.124,300.124,209.692,295.994,202.515z M332,396.717c0,8.291-6.709,15-15,15c-8.291,0-15-6.709-15-15    c0-52.276,0-89.522,0-141.717c0-8.291,6.709-15,15-15c8.291,0,15,6.709,15,15C332,307.198,332,344.438,332,396.717z M392,361.063    c0,8.291-6.709,15-15,15c-8.291,0-15-6.709-15-15V285c0-8.291,6.709-15,15-15c8.291,0,15,6.709,15,15V361.063z M377,240    c-8.291,0-15-6.709-15-15c0-69.032-65.366-118.656-131.279-101.689c-7.91,2.036-18.201-2.783-20.252-10.796    c-2.051-8.027,2.783-16.201,10.811-18.267C305.641,72.575,392,135.921,392,225C392,233.291,385.291,240,377,240z"/>
	</g>
</g>
<g>
</g>
<g>
</g>
<g>
</g>
<g>
</g>
<g>
</g>
<g>
</g>
<g>
</g>
<g>
</g>
<g>
</g>
<g>
</g>
<g>
</g>
<g>
</g>
<g>
</g>
<g>
</g>
<g>
</g>
</svg>
