<?xml version="1.0" encoding="iso-8859-1"?>
<!-- Generator: Adobe Illustrator 19.0.0, SVG Export Plug-In . SVG Version: 6.00 Build 0)  -->
<svg xmlns="http://www.w3.org/2000/svg" xmlns:xlink="http://www.w3.org/1999/xlink" version="1.1" id="Capa_1" x="0px" y="0px" viewBox="0 0 512 512" style="enable-background:new 0 0 512 512;" xml:space="preserve">
<g>
	<g>
		<path d="M309.399,149.68c-15.533-2.11-31.681,1.905-44.401,11.415c-5.334,4.015-12.661,4.015-17.995,0    c-12.72-9.524-28.897-13.613-44.401-11.415c-5.255,8.832-12.782,16.136-21.629,21.283v85.945    c0,41.368,33.645,75.027,75.027,75.027s75.027-33.659,75.027-75.027v-85.945C322.181,165.816,314.654,158.512,309.399,149.68z"/>
	</g>
</g>
<g>
	<g>
		<path d="M443.042,209.131c16.779-29.174,6.303-65.989-22.479-82.296c0.322-2.55,0.498-5.129,0.498-7.737    c0-30.04-22.186-54.996-52.285-59.333c-22.116-33.46-58.142-55.298-97.769-59.764v124.324c16.641-5.831,35.004-6.843,52.138-2.487    c4.572,1.172,8.323,4.411,10.141,8.763c3.575,8.514,10.99,15.034,19.841,17.452c8.726,2.352,13.321,11.849,9.994,20.046    c-1.378,3.473-2.081,7.181-2.081,11.02v77.788c0,11.706-2.409,22.757-5.969,33.275c0.048-0.139,0.134-0.256,0.179-0.396    c10.027,7.518,22.336,12.137,35.801,12.137c33.088,0,60.022-29.68,60.022-62.783C451.071,228.518,448.257,218.187,443.042,209.131    z"/>
	</g>
</g>
<g>
	<g>
		<path d="M143.372,59.561c-29.513,3.736-52.431,29.014-52.431,59.539c0,2.608,0.176,5.188,0.498,7.737    c-28.781,16.307-39.258,53.12-22.479,82.296c-5.217,9.056-8.03,19.387-8.03,30.011c0,33.102,26.933,62.782,60.022,62.782    c13.465,0,25.774-4.62,35.801-12.137l0.013,0.027c-3.469-10.414-5.803-21.345-5.803-32.907v-77.788    c0-3.839-0.703-7.547-2.081-11.02c-3.327-8.197,1.267-17.694,9.994-20.046c8.851-2.418,16.266-8.939,19.841-17.452    c1.817-4.353,5.568-7.591,10.141-8.763c17.134-4.356,35.497-3.345,52.138,2.488V0C201.456,4.457,165.508,26.214,143.372,59.561z"/>
	</g>
</g>
<g>
	<g>
		<path d="M171.267,337.198l-13.229,23.337c16.94,20.39,39.211,34.979,64.795,41.743c1.444-0.062,2.909,0.201,4.364,0.577    C215.248,375.721,195.986,352.847,171.267,337.198z"/>
	</g>
</g>
<g>
	<g>
		<path d="M256,361.947c-6.11-0.001-12.017-0.797-17.844-1.805c6.97,9.934,12.967,20.581,17.826,31.922    c4.856-11.305,10.851-21.972,17.846-31.92C268.005,361.149,262.105,361.947,256,361.947z"/>
	</g>
</g>
<g>
	<g>
		<path d="M305.322,512l-26.408-76.733c-9.23,1.307-22.773,3.083-45.774-0.152L206.687,512h34.308v-45.016    c0-8.294,6.711-15.005,15.005-15.005s15.005,6.711,15.005,15.005V512H305.322z"/>
	</g>
</g>
<g>
	<g>
		<path d="M389.124,363.107c-19.519,30.804-47.679,53.414-80.962,64.93L337.048,512h129.028c8.294,0,15.005-6.711,15.005-15.005    v-10.302C481.082,431.797,441.407,369.12,389.124,363.107z"/>
	</g>
</g>
<g>
	<g>
		<path d="M122.754,362.823c-47.985,4.589-91.835,61.501-91.835,122.185v11.986c0,8.294,6.711,15.005,15.005,15.005h129.034    l28.78-83.652C170.176,416.786,142.16,393.766,122.754,362.823z"/>
	</g>
</g>
<g>
	<g>
		<path d="M340.91,337.504c-24.719,15.676-44.247,38.356-56.169,65.357c1.678-0.445,3.365-0.732,5.017-0.599    c25.307-6.828,47.057-21.829,63.93-42.212L340.91,337.504z"/>
	</g>
</g>
<g>
</g>
<g>
</g>
<g>
</g>
<g>
</g>
<g>
</g>
<g>
</g>
<g>
</g>
<g>
</g>
<g>
</g>
<g>
</g>
<g>
</g>
<g>
</g>
<g>
</g>
<g>
</g>
<g>
</g>
</svg>
