<?xml version="1.0" encoding="iso-8859-1"?>
<!-- Generator: Adobe Illustrator 19.0.0, SVG Export Plug-In . SVG Version: 6.00 Build 0)  -->
<svg xmlns="http://www.w3.org/2000/svg" xmlns:xlink="http://www.w3.org/1999/xlink" version="1.1" id="Capa_1" x="0px" y="0px" viewBox="0 0 512 512" style="enable-background:new 0 0 512 512;" xml:space="preserve">
<g>
	<g>
		<path d="M147.62,77.939c-35.3,7.882-58.417,39.354-58.417,73.013c0,34.671,24.135,66.304,59.827,73.519V77.613    C148.557,77.71,148.091,77.833,147.62,77.939z"/>
	</g>
</g>
<g>
	<g>
		<path d="M224.265,135.945h44.821V75.918h-89.841v150.069h89.841v-60.028h-44.821c-8.295,0-15.007-6.712-15.007-15.007    S215.97,135.945,224.265,135.945z"/>
	</g>
</g>
<g>
	<g>
		<path d="M164.241,256c-48.692,0-87.47-33.215-99.646-72.033L54.09,189.37c-15.307,7.503-24.911,23.111-24.911,40.218v38.968    C13.221,315.668,2.987,366.551,0.075,419.245c-1.511,25.902,19.919,46.852,45.101,46.852h68.441    c26.092,0,54.115-33.355,41.099-62.969c-10.655-24.191-15.257-48.182-15.097-72.373c10.605,9.394,24.381,15.287,39.628,15.287    c33.085,0,60.028-26.922,60.028-60.028h15.007c5.282,0,10.085-1.081,14.807-2.761V256H164.241z M179.248,316.028    c-16.568,0-30.014-13.666-30.014-30.214h60.028C209.261,302.361,195.805,316.028,179.248,316.028z"/>
	</g>
</g>
<g>
	<g>
		<path d="M496.993,75.918h-15.007V60.911c0-8.294-6.713-15.007-15.007-15.007s-14.607,6.713-14.607,15.007v15.007h-153.07v149.068    h51.174c3.101-1.101,5.693-3.141,7.263-6.293l25.872-52.734h113.382c8.294,0,15.007-6.713,15.007-15.007V90.924    C512,82.631,505.287,75.918,496.993,75.918z"/>
	</g>
</g>
<g>
	<g>
		<path d="M54.793,110.327c-9.424-9.424-25.617-2.717-25.617,10.61c0,15.058,3.725,29.361,9.981,42.402    c0.517-0.275,0.896-0.715,1.424-0.982l18.609-9.304v-2.101c0-11.528,2.277-22.655,5.859-33.311    C61.342,115.697,57.832,113.363,54.793,110.327z"/>
	</g>
</g>
<g>
</g>
<g>
</g>
<g>
</g>
<g>
</g>
<g>
</g>
<g>
</g>
<g>
</g>
<g>
</g>
<g>
</g>
<g>
</g>
<g>
</g>
<g>
</g>
<g>
</g>
<g>
</g>
<g>
</g>
</svg>
