<?xml version="1.0" encoding="iso-8859-1"?>
<!-- Generator: Adobe Illustrator 19.0.0, SVG Export Plug-In . SVG Version: 6.00 Build 0)  -->
<svg xmlns="http://www.w3.org/2000/svg" xmlns:xlink="http://www.w3.org/1999/xlink" version="1.1" id="Capa_1" x="0px" y="0px" viewBox="0 0 512 512" style="enable-background:new 0 0 512 512;" xml:space="preserve">
<g>
	<g>
		<path d="M467,46H341.141l103.564,62.139c4.541,2.71,7.295,7.588,7.295,12.861v240c0,5.273-2.754,10.151-7.295,12.861L341.141,436    H392v45c0,8.291,6.709,15,15,15h60c8.291,0,15-6.709,15-15v-47.763c17.422-6.213,30-22.707,30-42.237V91    C512,66.186,491.814,46,467,46z"/>
	</g>
</g>
<g>
	<g>
		<path d="M302,57.486v367.028l120-72.01V129.496L302,57.486z M392,271c0,24.814-20.186,45-45,45c-8.291,0-15-6.709-15-15    c0-8.291,6.709-15,15-15c8.262,0,15-6.724,15-15v-60c0-8.276-6.738-15-15-15c-8.291,0-15-6.709-15-15s6.709-15,15-15    c24.814,0,45,20.186,45,45V271z"/>
	</g>
</g>
<g>
	<g>
		<path d="M75,106h105V46H45C20.186,46,0,66.186,0,91v300c0,19.53,12.578,36.024,30,42.237V481c0,8.291,6.709,15,15,15h60    c8.291,0,15-6.709,15-15v-45h60v-60H75c-8.291,0-15-6.709-15-15V121C60,112.709,66.709,106,75,106z"/>
	</g>
</g>
<g>
	<g>
		<path d="M225,16c-8.291,0-15,6.709-15,15c0,157.225,0,262.683,0,420c0,8.291,6.709,15,15,15h47V16H225z"/>
	</g>
</g>
<g>
</g>
<g>
</g>
<g>
</g>
<g>
</g>
<g>
</g>
<g>
</g>
<g>
</g>
<g>
</g>
<g>
</g>
<g>
</g>
<g>
</g>
<g>
</g>
<g>
</g>
<g>
</g>
<g>
</g>
</svg>
