<?xml version="1.0" encoding="iso-8859-1"?>
<!-- Generator: Adobe Illustrator 19.0.0, SVG Export Plug-In . SVG Version: 6.00 Build 0)  -->
<svg xmlns="http://www.w3.org/2000/svg" xmlns:xlink="http://www.w3.org/1999/xlink" version="1.1" id="Capa_1" x="0px" y="0px" viewBox="0 0 512 512" style="enable-background:new 0 0 512 512;" xml:space="preserve">
<g>
	<g>
		<path d="M323.5,424.763V377c0-8.124-3.046-17.606-6.837-23.593l-0.015,0.005C308.705,340.615,294.641,332,278.5,332    c-19.53,0-36.024,12.578-42.237,30H98.5c-8.291,0-15,6.709-15,15c0,8.291,6.709,15,15,15h135v30h-135c-24.814,0-45,20.186-45,45    v30c0,8.291,6.709,15,15,15h270c8.291,0,15-6.709,15-15v-30C353.5,447.47,340.922,430.976,323.5,424.763z"/>
	</g>
</g>
<g>
	<g>
		<path d="M143.5,302v15c0,8.291,6.709,15,15,15h60c8.291,0,15-6.709,15-15v-15H143.5z"/>
	</g>
</g>
<g>
	<g>
		<path d="M218.5,0h-60c-8.291,0-15,6.709-15,15v15h90V15C233.5,6.709,226.791,0,218.5,0z"/>
	</g>
</g>
<g>
	<g>
		<path d="M293.5,90.899V181.5c42.599,7.2,75,46.099,75,90.5c0,24.6-10.201,47.699-27.299,64.2C349.3,348.199,353.5,362.3,353.5,377    v30c6.899,5.099,12.9,11.7,17.701,18.9c52.2-31.201,87.299-88.5,87.299-153.9C458.5,177.8,385.6,98.399,293.5,90.899z"/>
	</g>
</g>
<g>
	<g>
		<path d="M248.5,60c-25.273,0-94.31,0-120,0c-8.291,0-15,6.709-15,15v182c0,8.291,6.709,15,15,15c22.223,0,93.866,0,120,0    c8.291,0,15-6.709,15-15c0-64.991,0-111.69,0-182C263.5,66.709,256.791,60,248.5,60z"/>
	</g>
</g>
<g>
</g>
<g>
</g>
<g>
</g>
<g>
</g>
<g>
</g>
<g>
</g>
<g>
</g>
<g>
</g>
<g>
</g>
<g>
</g>
<g>
</g>
<g>
</g>
<g>
</g>
<g>
</g>
<g>
</g>
</svg>
