<?xml version="1.0" encoding="iso-8859-1"?>
<!-- Generator: Adobe Illustrator 19.0.0, SVG Export Plug-In . SVG Version: 6.00 Build 0)  -->
<svg xmlns="http://www.w3.org/2000/svg" xmlns:xlink="http://www.w3.org/1999/xlink" version="1.1" id="Capa_1" x="0px" y="0px" viewBox="0 0 512.001 512.001" style="enable-background:new 0 0 512.001 512.001;" xml:space="preserve">
<g>
	<g>
		<path d="M317.001,150c-24.617,0-45,20.057-45,45c0,24.814,20.186,45,45,45c24.814,0,45-20.186,45-45    C362.001,169.963,341.509,150,317.001,150z M317.001,210c-8.284,0-15-6.716-15-15c0-8.286,6.716-15,15-15s15,6.714,15,15    C332.001,203.284,325.285,210,317.001,210z"/>
	</g>
</g>
<g>
	<g>
		<path d="M317.001,0c-114.59,0-205.563,99.125-194.008,214.576C133.042,313.867,217.237,390,317.001,390    c107.52,0,195-87.48,195-195S424.521,0,317.001,0z M447.021,206.147c-6.182,5.508-15.674,5.024-21.182-1.128    c-0.266-0.289-14.822-15.901-37.02-30.441c1.865,6.535,3.182,13.296,3.182,20.422c0,41.353-33.633,75-75,75s-75-33.647-75-75    c0-7.161,1.329-13.953,3.212-20.517c-22.244,14.562-36.782,30.233-37.05,30.522c-5.527,6.184-14.995,6.696-21.182,1.172    c-6.152-5.522-6.68-15.015-1.143-21.182C215.045,152.363,270.631,120,317.001,120c46.614,0,102.164,32.596,131.162,64.995    C453.7,191.162,453.173,200.625,447.021,206.147z"/>
	</g>
</g>
<g>
	<g>
		<path d="M114.184,291.775l-5.982,5.984c-12.612,12.612-16.867,33.053-8.47,50.865l-0.212,0.212    c2.175,4.579,4.991,8.87,8.683,12.556l42.393,42.422c15.255,15.284,45.779,17.883,63.662,0l5.986-5.989    C173.899,375.624,136.388,338.115,114.184,291.775z"/>
	</g>
</g>
<g>
	<g>
		<path d="M129.384,425.025l-42.393-42.422c-3.609-3.609-6.779-7.537-9.538-11.697l-64.291,64.275    c-17.549,17.549-17.549,46.084,0,63.633c17.581,17.582,46.051,17.582,63.633,0l64.267-64.251    C136.906,431.805,132.985,428.634,129.384,425.025z"/>
	</g>
</g>
<g>
</g>
<g>
</g>
<g>
</g>
<g>
</g>
<g>
</g>
<g>
</g>
<g>
</g>
<g>
</g>
<g>
</g>
<g>
</g>
<g>
</g>
<g>
</g>
<g>
</g>
<g>
</g>
<g>
</g>
</svg>
