<?xml version="1.0" encoding="iso-8859-1"?>
<!-- Generator: Adobe Illustrator 19.0.0, SVG Export Plug-In . SVG Version: 6.00 Build 0)  -->
<svg xmlns="http://www.w3.org/2000/svg" xmlns:xlink="http://www.w3.org/1999/xlink" version="1.1" id="Capa_1" x="0px" y="0px" viewBox="0 0 512 512" style="enable-background:new 0 0 512 512;" xml:space="preserve">
<g>
	<g>
		<path d="M15,60C6.599,60,0,66.599,0,75s6.599,15,15,15h90.3c5.529-6.636,11.525-12.835,18.9-17.401    c0.899-4.199,2.1-8.399,3.6-12.599H15z"/>
	</g>
</g>
<g>
	<g>
		<path d="M497,60H384.2c1.5,4.2,2.701,8.401,3.6,12.599L406.7,90H497c8.401,0,15-6.599,15-15S505.401,60,497,60z"/>
	</g>
</g>
<g>
	<g>
		<path d="M91.8,150H15c-8.401,0-15,6.599-15,15s6.599,15,15,15h90.3C97.401,169.465,92.959,158.107,91.8,150z"/>
	</g>
</g>
<g>
	<g>
		<path d="M497,150h-76.8c-1.085,7.587-5.658,19.541-13.5,30H497c8.401,0,15-6.599,15-15S505.401,150,497,150z"/>
	</g>
</g>
<g>
	<g>
		<path d="M120.901,242H15c-8.401,0-15,6.599-15,15s6.599,15,15,15h112.8C124.2,262.4,122.1,252.499,120.901,242z"/>
	</g>
</g>
<g>
	<g>
		<path d="M497,242H391.099c-1.199,10.499-3.3,20.4-6.899,30H497c8.401,0,15-6.599,15-15S505.401,242,497,242z"/>
	</g>
</g>
<g>
	<g>
		<path d="M15,332c-8.401,0-15,6.599-15,15s6.599,15,15,15h13.801c7.5-11.4,16.5-21.599,26.1-30H15z"/>
	</g>
</g>
<g>
	<g>
		<path d="M497,332h-40.8c9.899,8.699,18.6,18.9,26.1,30H497c8.401,0,15-6.599,15-15S505.401,332,497,332z"/>
	</g>
</g>
<g>
	<g>
		<rect x="150" y="422" width="212" height="90"/>
	</g>
</g>
<g>
	<g>
		<path d="M277.7,272h-43.4c-13.997,27.994-8.76,17.46-24.6,49.501c28.987,14.987,67.647,12.902,92.601,0    C286.46,289.46,291.697,299.994,277.7,272z"/>
	</g>
</g>
<g>
	<g>
		<path d="M382.099,332H347c-3.9,0-7.8,1.5-10.499,4.501l1.258-1.47C314.684,352.336,284.83,362,255,362    c-29.021,0-56.904-9.111-80.735-26.951l1.342,1.344C172.908,333.392,168.9,332,165,332h-36.204h-0.916    C84.527,332,30,378.827,30,467c0,8.401,6.599,15,15,15h75c0-26.042,0-48.958,0-75c0-8.291,6.709-15,15-15    c83.258,0,124.972,0,144.381,0c11.173,0,14.958,0,15.014,0c13.849,0,39.053,0,82.605,0c8.291,0,15,6.709,15,15    c0,26.042,0,48.958,0,75h75c8.401,0,15-6.599,15-15C482,381.766,427.981,332,382.099,332z"/>
	</g>
</g>
<g>
	<g>
		<path d="M255,0c-48.975,0-95.377,36.193-103.206,90h208.411C352.426,36.529,304.195,0,255,0z"/>
	</g>
</g>
<g>
	<g>
		<path d="M377,120H135c-8.284,0-15,6.714-15,15c0,8.284,6.716,15,15,15h242c8.284,0,15-6.714,15-15    C392,126.716,385.284,120,377,120z"/>
	</g>
</g>
<g>
	<g>
		<path d="M150,180c0,41.612,0,21.363,0,47c0,14.446,1.974,19.867,5.099,30.3c0,3.348,8.477,20.852,10.501,24c0,0,0,0.3,0.3,0.3    c0.817,1.635,9.632,15.3,11.1,15.3c2.399,2.699,5.4,4.799,7.798,7.2l13.801-27.599l12.9-26.1C214.2,245.3,219.3,242,225,242h62    c5.7,0,10.8,3.3,13.5,8.401l12.9,26.1l13.801,27.599c2.399-2.401,5.4-4.501,7.798-7.2c1.386,0,10.235-13.57,11.1-15.3    c0.3,0,0.3-0.3,0.3-0.3c1.761-2.739,10.501-20.799,10.501-24c1.855-6.194,4.499-14.013,4.499-21C362,233.301,362,229.999,362,227    c0-25.689,0-5.999,0-47C312.205,180,192.418,180,150,180z"/>
	</g>
</g>
<g>
</g>
<g>
</g>
<g>
</g>
<g>
</g>
<g>
</g>
<g>
</g>
<g>
</g>
<g>
</g>
<g>
</g>
<g>
</g>
<g>
</g>
<g>
</g>
<g>
</g>
<g>
</g>
<g>
</g>
</svg>
