<?xml version="1.0" encoding="iso-8859-1"?>
<!-- Generator: Adobe Illustrator 19.0.0, SVG Export Plug-In . SVG Version: 6.00 Build 0)  -->
<svg xmlns="http://www.w3.org/2000/svg" xmlns:xlink="http://www.w3.org/1999/xlink" version="1.1" id="Capa_1" x="0px" y="0px" viewBox="0 0 512 512" style="enable-background:new 0 0 512 512;" xml:space="preserve">
<g>
	<g>
		<path d="M68.787,338.94L4.391,403.336c-7.832,7.801-4.767,21.287,5.859,24.829c22.552,7.513,39.371,14.897,61.73,14.897    c32.402,0,63.722-15.044,83.966-42.027l46.563-62.096H68.787z"/>
	</g>
</g>
<g>
	<g>
		<path d="M507.609,403.336l-64.396-64.396H309.484l46.6,62.096c20.244,26.982,51.534,42.027,83.937,42.027    c22.358,0,39.178-7.384,61.73-14.897C512.376,424.624,515.441,411.138,507.609,403.336z"/>
	</g>
</g>
<g>
	<g>
		<path d="M287,68.938c-11.567,0-22.02,4.508-30,11.704c-7.98-7.196-20.433-11.704-32-11.704c-24.814,0-45.001,20.186-45.001,45.001    c0,0.044,0.013,0.084,0.013,0.128c23.387-9.767,50.777-15.328,76.988-15.328c26.301,0,51.644,5.613,74.986,15.337    c0-0.048,0.015-0.09,0.015-0.137C332.001,89.124,311.814,68.938,287,68.938z"/>
	</g>
</g>
<g>
	<g>
		<g>
			<path d="M90.198,293.941v15h89.753c1.936-70.92,17.441-134.138,42.031-162.717c11.898-13.81,25.802-17.074,34.178-17.275     C165.566,129.404,90.198,203.239,90.198,293.941z"/>
			<path d="M256.16,128.949c0.281-0.001,0.56-0.011,0.841-0.011C256.727,128.938,256.446,128.942,256.16,128.949z"/>
		</g>
	</g>
</g>
<g>
	<g>
		<path d="M267.255,165.751c-7.618-8.79-14.921-8.804-22.538,0.043c-18.241,21.191-31.684,76.77-33.67,143.147h89.943    C299.152,241.634,285.496,186.861,267.255,165.751z"/>
	</g>
</g>
<g>
	<g>
		<g>
			<path d="M257.827,128.949c-0.28-0.007-0.555-0.01-0.826-0.01C257.277,128.938,257.551,128.947,257.827,128.949z"/>
			<path d="M257.827,128.949c8.223,0.199,20.232,3.444,32.104,17.173c24.583,28.43,40.33,91.81,42.301,162.819h89.771v-15     C422.003,203.235,348.416,129.396,257.827,128.949z"/>
		</g>
	</g>
</g>
<g>
</g>
<g>
</g>
<g>
</g>
<g>
</g>
<g>
</g>
<g>
</g>
<g>
</g>
<g>
</g>
<g>
</g>
<g>
</g>
<g>
</g>
<g>
</g>
<g>
</g>
<g>
</g>
<g>
</g>
</svg>
