<?xml version="1.0" encoding="iso-8859-1"?>
<!-- Generator: Adobe Illustrator 19.0.0, SVG Export Plug-In . SVG Version: 6.00 Build 0)  -->
<svg xmlns="http://www.w3.org/2000/svg" xmlns:xlink="http://www.w3.org/1999/xlink" version="1.1" id="Capa_1" x="0px" y="0px" viewBox="0 0 512 512" style="enable-background:new 0 0 512 512;" xml:space="preserve">
<g>
	<g>
		<path d="M120,241c-16.553,0-30,13.462-30,30c0,16.538,13.447,30,30,30s30-13.462,30-30C150,254.462,136.553,241,120,241z"/>
	</g>
</g>
<g>
	<g>
		<path d="M272,331H120c-10.975,0-21.138-3.179-30-8.348V361h212v-38.348C293.138,327.821,282.975,331,272,331z"/>
	</g>
</g>
<g>
	<g>
		<path d="M220.346,241h-48.692c5.167,8.86,8.346,19.023,8.346,30s-3.179,21.14-8.346,30h48.692c-5.167-8.86-8.346-19.023-8.346-30    S215.179,249.86,220.346,241z"/>
	</g>
</g>
<g>
	<g>
		<path d="M407,121h-15v330h15c24.901,0,45-20.101,45-45c0-105.575,0-129.983,0-240C452,141.099,431.901,121,407,121z"/>
	</g>
</g>
<g>
	<g>
		<path d="M272,241c-16.553,0-30,13.462-30,30c0,16.538,13.447,30,30,30s30-13.462,30-30C302,254.462,288.553,241,272,241z"/>
	</g>
</g>
<g>
	<g>
		<path d="M482,183.699V271h30v-45C512,206.499,499.401,189.699,482,183.699z"/>
	</g>
</g>
<g>
	<g>
		<path d="M482,301v87.299c17.401-6,30-22.8,30-42.299v-45H482z"/>
	</g>
</g>
<g>
	<g>
		<rect x="150" y="61" width="92" height="30"/>
	</g>
</g>
<g>
	<g>
		<path d="M105,61c-19.501,0-36.301,12.599-42.299,30H120V61H105z"/>
	</g>
</g>
<g>
	<g>
		<path d="M287,61h-15v30h57.299C323.301,73.599,306.501,61,287,61z"/>
	</g>
</g>
<g>
	<g>
		<path d="M45,121c-24.901,0-45,20.099-45,45v240c0,24.899,20.099,45,45,45h317V121C299.706,121,107.632,121,45,121z M332,376    c0,8.399-6.599,15-15,15H75c-8.401,0-15-6.601-15-15V271c0-33.001,27.001-60,60-60h152c32.999,0,60,26.999,60,60V376z"/>
	</g>
</g>
<g>
</g>
<g>
</g>
<g>
</g>
<g>
</g>
<g>
</g>
<g>
</g>
<g>
</g>
<g>
</g>
<g>
</g>
<g>
</g>
<g>
</g>
<g>
</g>
<g>
</g>
<g>
</g>
<g>
</g>
</svg>
