<?xml version="1.0" encoding="iso-8859-1"?>
<!-- Generator: Adobe Illustrator 19.0.0, SVG Export Plug-In . SVG Version: 6.00 Build 0)  -->
<svg xmlns="http://www.w3.org/2000/svg" xmlns:xlink="http://www.w3.org/1999/xlink" version="1.1" id="Capa_1" x="0px" y="0px" viewBox="0 0 512.001 512.001" style="enable-background:new 0 0 512.001 512.001;" xml:space="preserve">
<g>
	<g>
		<path d="M511.79,225.192c-11.896,15.605-27.924,27.771-46.504,34.72l-26.101,55.999l13.618,6.347    c7.595,3.526,16.454,0.172,19.927-7.253l38.037-81.585C512.024,230.737,512.147,227.923,511.79,225.192z"/>
	</g>
</g>
<g>
	<g>
		<path d="M77.057,301.944H15.04c-8.293,0-15.004,6.711-15.004,15.004v180.049c0,8.293,6.711,15.004,15.004,15.004h62.017    c24.821,0,45.012-20.191,45.012-45.012c0-25.28,0-94.335,0-120.032C122.069,322.136,101.879,301.944,77.057,301.944z"/>
	</g>
</g>
<g>
	<g>
		<path d="M501.652,146.401L202.511,6.896c-0.273-0.128-0.566-0.172-0.84-0.297c-38.056-17.171-81.965,0.636-98.767,36.442    c-0.024,0.053-0.064,0.095-0.088,0.148l-38.037,81.586c-17.395,37.31-1.593,82.028,36.309,99.695l32.384,15.105L243.069,152.6    c13.589-10.768,31.829-12.645,47.005-5.524l173.246,80.781c13.94-7.356,25.334-18.942,32.318-33.281    c0.181-0.37,0.45-0.676,0.624-1.051l12.659-27.195C512.407,158.827,509.185,149.903,501.652,146.401z"/>
	</g>
</g>
<g>
	<g>
		<path d="M277.385,174.256c-5.269-2.482-11.292-1.604-15.678,1.847l-97.841,77.645l181.975,84.865    c22.158,10.336,49.801-0.591,59.705-21.614c0.029-0.062,0.077-0.112,0.106-0.174l31.699-67.979L277.385,174.256z M363.951,264.265    c-3.504,7.509-12.381,10.771-19.927,7.268L316.8,258.859c-7.502-3.487-10.784-12.41-7.268-19.927    c3.517-7.546,12.425-10.784,19.927-7.268l27.224,12.674C364.185,247.825,367.467,256.748,363.951,264.265z"/>
	</g>
</g>
<g>
	<g>
		<path d="M180.734,294.725l-28.657,49.753c0,60.91,0,46.751,0,107.506h15.004c15.736,0,30.506-8.366,38.594-21.847l57.087-97.157    L180.734,294.725z"/>
	</g>
</g>
<g>
</g>
<g>
</g>
<g>
</g>
<g>
</g>
<g>
</g>
<g>
</g>
<g>
</g>
<g>
</g>
<g>
</g>
<g>
</g>
<g>
</g>
<g>
</g>
<g>
</g>
<g>
</g>
<g>
</g>
</svg>
