<?xml version="1.0" encoding="iso-8859-1"?>
<!-- Generator: Adobe Illustrator 19.0.0, SVG Export Plug-In . SVG Version: 6.00 Build 0)  -->
<svg version="1.1" id="Layer_1" xmlns="http://www.w3.org/2000/svg" xmlns:xlink="http://www.w3.org/1999/xlink" x="0px" y="0px"
	 viewBox="0 0 290 290" style="enable-background:new 0 0 290 290;" xml:space="preserve">
<g id="XMLID_482_">
	<path id="XMLID_483_" d="M210.004,145.001c0-35.841-29.16-65.001-65.002-65.001c-35.84,0-64.998,29.159-64.998,65.001
		c0,35.841,29.158,64.999,64.998,64.999C180.844,210,210.004,180.841,210.004,145.001z"/>
	<path id="XMLID_484_" d="M160,35V15c0-8.284-6.716-15-15-15s-15,6.716-15,15v20c0,8.284,6.716,15,15,15S160,43.284,160,35z"/>
	<path id="XMLID_486_" d="M130,255v20c0,8.284,6.716,15,15,15s15-6.716,15-15v-20c0-8.284-6.716-15-15-15S130,246.716,130,255z"/>
	<path id="XMLID_487_" d="M240,145c0,8.284,6.716,15,15,15h20c8.284,0,15-6.716,15-15s-6.716-15-15-15h-20
		C246.716,130,240,136.716,240,145z"/>
	<path id="XMLID_488_" d="M15,160h20c8.284,0,15-6.716,15-15s-6.716-15-15-15H15c-8.284,0-15,6.716-15,15S6.716,160,15,160z"/>
	<path id="XMLID_489_" d="M226.317,42.469l-14.143,14.142c-5.858,5.858-5.858,15.355,0,21.213c2.929,2.929,6.768,4.394,10.606,4.394
		c3.838,0,7.678-1.465,10.606-4.393l14.143-14.142c5.858-5.858,5.858-15.355,0-21.213C241.674,36.611,232.176,36.612,226.317,42.469
		z"/>
	<path id="XMLID_490_" d="M56.612,212.174L42.47,226.316c-5.858,5.858-5.858,15.355,0,21.213c2.929,2.929,6.768,4.393,10.606,4.393
		c3.838,0,7.678-1.465,10.606-4.393l14.143-14.142c5.858-5.858,5.858-15.355,0-21.213C71.969,206.317,62.471,206.317,56.612,212.174
		z"/>
	<path id="XMLID_491_" d="M226.317,247.53c2.929,2.929,6.768,4.393,10.606,4.393c3.839,0,7.678-1.464,10.607-4.393
		c5.858-5.858,5.858-15.355,0-21.213l-14.143-14.142c-5.857-5.857-15.355-5.858-21.213,0.001c-5.858,5.858-5.858,15.355,0,21.213
		L226.317,247.53z"/>
	<path id="XMLID_493_" d="M56.612,77.825c2.929,2.929,6.768,4.393,10.607,4.393c3.839,0,7.678-1.464,10.606-4.394
		c5.858-5.858,5.858-15.355,0-21.213L63.683,42.469c-5.857-5.857-15.355-5.858-21.213,0c-5.858,5.858-5.858,15.355,0,21.213
		L56.612,77.825z"/>
</g>
<g>
</g>
<g>
</g>
<g>
</g>
<g>
</g>
<g>
</g>
<g>
</g>
<g>
</g>
<g>
</g>
<g>
</g>
<g>
</g>
<g>
</g>
<g>
</g>
<g>
</g>
<g>
</g>
<g>
</g>
</svg>
