<?xml version="1.0" encoding="iso-8859-1"?>
<!-- Generator: Adobe Illustrator 19.0.0, SVG Export Plug-In . SVG Version: 6.00 Build 0)  -->
<svg version="1.1" id="Layer_1" xmlns="http://www.w3.org/2000/svg" xmlns:xlink="http://www.w3.org/1999/xlink" x="0px" y="0px"
	 viewBox="0 0 310 310" style="enable-background:new 0 0 310 310;" xml:space="preserve">
<g id="XMLID_470_">
	<path id="XMLID_472_" d="M90.004,155.001c0,35.841,29.158,64.999,64.998,64.999c35.842,0,65.002-29.159,65.002-64.999
		c0-35.841-29.16-65.001-65.002-65.001C119.162,90,90.004,119.159,90.004,155.001z"/>
	<path id="XMLID_473_" d="M170,45V15c0-8.284-6.716-15-15-15s-15,6.716-15,15v30c0,8.284,6.716,15,15,15S170,53.284,170,45z"/>
	<path id="XMLID_474_" d="M140,265v30c0,8.284,6.716,15,15,15s15-6.716,15-15v-30c0-8.284-6.716-15-15-15S140,256.716,140,265z"/>
	<path id="XMLID_475_" d="M310,155c0-8.284-6.716-15-15-15h-30c-8.284,0-15,6.716-15,15s6.716,15,15,15h30
		C303.284,170,310,163.284,310,155z"/>
	<path id="XMLID_476_" d="M0,155c0,8.284,6.716,15,15,15h30c8.284,0,15-6.716,15-15s-6.716-15-15-15H15C6.716,140,0,146.716,0,155z"
		/>
	<path id="XMLID_477_" d="M232.781,92.218c3.838,0,7.678-1.465,10.606-4.393l21.214-21.213c5.858-5.858,5.858-15.355,0-21.213
		c-5.857-5.858-15.354-5.857-21.213,0l-21.214,21.213c-5.858,5.858-5.858,15.355,0,21.213
		C225.104,90.753,228.942,92.218,232.781,92.218z"/>
	<path id="XMLID_478_" d="M56.005,268.995c3.839,0,7.678-1.464,10.606-4.393l21.214-21.214c5.858-5.858,5.858-15.355,0-21.213
		c-5.857-5.858-15.355-5.858-21.213,0l-21.214,21.214c-5.858,5.858-5.858,15.355,0,21.213
		C48.327,267.531,52.166,268.995,56.005,268.995z"/>
	<path id="XMLID_479_" d="M243.388,222.175c-5.857-5.858-15.355-5.858-21.213,0c-5.858,5.858-5.858,15.355,0,21.213l21.214,21.214
		c2.929,2.929,6.768,4.393,10.606,4.393c3.839,0,7.678-1.464,10.606-4.393c5.858-5.858,5.858-15.355,0-21.213L243.388,222.175z"/>
	<path id="XMLID_481_" d="M66.612,87.825c2.929,2.929,6.768,4.393,10.607,4.393c3.839,0,7.678-1.464,10.606-4.394
		c5.858-5.858,5.858-15.355,0-21.213L66.611,45.397c-5.857-5.857-15.355-5.858-21.213,0c-5.858,5.858-5.858,15.355,0,21.213
		L66.612,87.825z"/>
</g>
<g>
</g>
<g>
</g>
<g>
</g>
<g>
</g>
<g>
</g>
<g>
</g>
<g>
</g>
<g>
</g>
<g>
</g>
<g>
</g>
<g>
</g>
<g>
</g>
<g>
</g>
<g>
</g>
<g>
</g>
</svg>
