<?xml version="1.0" encoding="iso-8859-1"?>
<!-- Generator: Adobe Illustrator 19.0.0, SVG Export Plug-In . SVG Version: 6.00 Build 0)  -->
<svg version="1.1" id="Layer_1" xmlns="http://www.w3.org/2000/svg" xmlns:xlink="http://www.w3.org/1999/xlink" x="0px" y="0px"
	 viewBox="0 0 330 330" style="enable-background:new 0 0 330 330;" xml:space="preserve">
<g id="XMLID_444_">
	<path id="XMLID_445_" d="M315,30H207.42C201.227,12.542,184.555,0,165,0s-36.227,12.542-42.42,30H15C6.716,30,0,36.716,0,45
		s6.716,15,15,15h107.58c6.192,17.459,22.865,30,42.42,30s36.227-12.541,42.42-30H315c8.284,0,15-6.716,15-15S323.284,30,315,30z"/>
	<path id="XMLID_446_" d="M315,150h-77.58c-6.192-17.458-22.865-30-42.42-30s-36.227,12.542-42.42,30H15c-8.284,0-15,6.716-15,15
		s6.716,15,15,15h137.58c6.192,17.458,22.865,30,42.42,30s36.227-12.542,42.42-30H315c8.284,0,15-6.716,15-15S323.284,150,315,150z"
		/>
	<path id="XMLID_447_" d="M315,270H177.42c-6.192-17.458-22.865-30-42.42-30s-36.228,12.542-42.42,30H15c-8.284,0-15,6.716-15,15
		s6.716,15,15,15h77.58c6.192,17.458,22.865,30,42.42,30s36.227-12.542,42.42-30H315c8.284,0,15-6.716,15-15S323.284,270,315,270z"
		/>
</g>
<g>
</g>
<g>
</g>
<g>
</g>
<g>
</g>
<g>
</g>
<g>
</g>
<g>
</g>
<g>
</g>
<g>
</g>
<g>
</g>
<g>
</g>
<g>
</g>
<g>
</g>
<g>
</g>
<g>
</g>
</svg>
