<?xml version="1.0" encoding="iso-8859-1"?>
<!-- Generator: Adobe Illustrator 19.0.0, SVG Export Plug-In . SVG Version: 6.00 Build 0)  -->
<svg version="1.1" id="Layer_1" xmlns="http://www.w3.org/2000/svg" xmlns:xlink="http://www.w3.org/1999/xlink" x="0px" y="0px"
	 viewBox="0 0 330 330" style="enable-background:new 0 0 330 330;" xml:space="preserve">
<g id="XMLID_448_">
	<path id="XMLID_449_" d="M195,240h15v15c0,8.284,6.716,15,15,15c8.284,0,15-6.716,15-15v-15h15c8.284,0,15-6.716,15-15
		s-6.716-15-15-15h-15v-15c0-8.284-6.716-15-15-15c-8.284,0-15,6.716-15,15v15h-15c-8.284,0-15,6.716-15,15S186.716,240,195,240z"/>
	<path id="XMLID_450_" d="M329.994,14.847c-0.002-0.206-0.013-0.412-0.023-0.618c-0.008-0.165-0.015-0.332-0.028-0.496
		c-0.017-0.199-0.043-0.397-0.067-0.595c-0.021-0.171-0.041-0.343-0.068-0.512c-0.029-0.187-0.068-0.372-0.105-0.557
		c-0.035-0.18-0.069-0.359-0.111-0.537c-0.041-0.173-0.091-0.344-0.138-0.516c-0.052-0.188-0.103-0.375-0.161-0.56
		c-0.052-0.162-0.11-0.322-0.168-0.483c-0.067-0.189-0.135-0.379-0.21-0.566c-0.02-0.049-0.034-0.099-0.055-0.148
		c-0.046-0.111-0.102-0.217-0.15-0.327c-0.079-0.18-0.159-0.359-0.245-0.536c-0.08-0.163-0.166-0.322-0.252-0.482
		c-0.086-0.162-0.174-0.324-0.267-0.482c-0.096-0.165-0.197-0.325-0.299-0.485c-0.094-0.148-0.189-0.295-0.287-0.438
		c-0.109-0.16-0.224-0.315-0.339-0.47c-0.103-0.138-0.207-0.276-0.314-0.41c-0.12-0.15-0.244-0.295-0.369-0.44
		c-0.115-0.132-0.23-0.264-0.35-0.393c-0.126-0.136-0.256-0.268-0.388-0.399c-0.129-0.128-0.258-0.256-0.392-0.38
		c-0.131-0.122-0.266-0.24-0.401-0.357c-0.142-0.122-0.284-0.243-0.431-0.36c-0.139-0.111-0.279-0.218-0.422-0.324
		c-0.15-0.112-0.302-0.223-0.456-0.33c-0.149-0.102-0.302-0.2-0.455-0.298c-0.154-0.098-0.31-0.195-0.468-0.288
		c-0.166-0.097-0.334-0.188-0.503-0.278c-0.152-0.081-0.304-0.163-0.46-0.239c-0.185-0.092-0.375-0.176-0.565-0.26
		c-0.102-0.045-0.201-0.097-0.306-0.14c-0.045-0.019-0.092-0.033-0.138-0.051c-0.198-0.08-0.4-0.152-0.604-0.224
		c-0.147-0.052-0.295-0.107-0.443-0.154c-0.2-0.064-0.403-0.12-0.607-0.175c-0.155-0.043-0.31-0.087-0.466-0.125
		c-0.196-0.047-0.396-0.085-0.596-0.124c-0.165-0.032-0.329-0.067-0.495-0.094c-0.191-0.031-0.385-0.053-0.578-0.077
		c-0.176-0.021-0.352-0.044-0.527-0.059c-0.188-0.016-0.376-0.024-0.564-0.033c-0.183-0.009-0.364-0.019-0.547-0.021
		C315.116,0.006,315.059,0,315,0H15C6.716,0,0,6.716,0,15v300c0,0.052,0.005,0.102,0.006,0.153c0.002,0.206,0.013,0.411,0.023,0.617
		c0.009,0.167,0.015,0.333,0.029,0.498c0.017,0.197,0.042,0.395,0.067,0.591c0.022,0.173,0.041,0.346,0.068,0.517
		c0.029,0.184,0.067,0.367,0.104,0.551c0.036,0.182,0.071,0.363,0.114,0.543c0.04,0.171,0.089,0.34,0.136,0.51
		c0.052,0.189,0.104,0.378,0.163,0.565c0.051,0.16,0.11,0.319,0.167,0.479c0.068,0.191,0.136,0.382,0.211,0.57
		c0.02,0.049,0.034,0.098,0.054,0.146c0.046,0.111,0.101,0.216,0.149,0.325c0.08,0.181,0.16,0.361,0.247,0.538
		c0.08,0.163,0.165,0.322,0.25,0.482c0.087,0.162,0.174,0.324,0.267,0.482c0.096,0.164,0.197,0.325,0.299,0.485
		c0.094,0.148,0.189,0.295,0.287,0.439c0.109,0.159,0.224,0.314,0.339,0.469c0.103,0.138,0.207,0.276,0.314,0.411
		c0.12,0.149,0.243,0.295,0.368,0.439c0.115,0.133,0.231,0.266,0.352,0.395c0.125,0.135,0.254,0.266,0.384,0.396
		c0.13,0.13,0.261,0.259,0.396,0.384c0.129,0.12,0.262,0.236,0.395,0.352c0.144,0.125,0.29,0.248,0.439,0.368
		c0.135,0.107,0.273,0.211,0.411,0.314c0.155,0.115,0.31,0.229,0.469,0.339c0.145,0.099,0.291,0.193,0.439,0.287
		c0.16,0.102,0.32,0.203,0.485,0.299c0.158,0.093,0.32,0.18,0.482,0.267c0.159,0.086,0.318,0.171,0.482,0.251
		c0.177,0.087,0.357,0.167,0.538,0.247c0.109,0.049,0.214,0.103,0.325,0.149c0.039,0.017,0.08,0.027,0.119,0.043
		c0.415,0.167,0.835,0.32,1.265,0.451c0.048,0.015,0.097,0.025,0.144,0.039c0.376,0.11,0.757,0.204,1.143,0.285
		c0.136,0.028,0.271,0.053,0.408,0.077c0.31,0.056,0.623,0.102,0.939,0.138c0.137,0.016,0.273,0.034,0.409,0.046
		c0.415,0.036,0.832,0.059,1.253,0.061c0.019,0,0.037,0.003,0.056,0.003c0.003,0,0.006,0,0.01,0H315c8.284,0,15-6.716,15-15V15
		C330,14.949,329.995,14.898,329.994,14.847z M75,90h60c8.284,0,15,6.716,15,15s-6.716,15-15,15H75c-8.284,0-15-6.716-15-15
		S66.716,90,75,90z M300,300H51.214L300,51.214V300z"/>
</g>
<g>
</g>
<g>
</g>
<g>
</g>
<g>
</g>
<g>
</g>
<g>
</g>
<g>
</g>
<g>
</g>
<g>
</g>
<g>
</g>
<g>
</g>
<g>
</g>
<g>
</g>
<g>
</g>
<g>
</g>
</svg>
