<?xml version="1.0" encoding="iso-8859-1"?>
<!-- Generator: Adobe Illustrator 19.0.0, SVG Export Plug-In . SVG Version: 6.00 Build 0)  -->
<svg version="1.1" id="Layer_1" xmlns="http://www.w3.org/2000/svg" xmlns:xlink="http://www.w3.org/1999/xlink" x="0px" y="0px"
	 viewBox="0 0 330 330" style="enable-background:new 0 0 330 330;" xml:space="preserve">
<g id="XMLID_91_">
	<rect id="XMLID_92_" x="230" y="130.004" width="100" height="70"/>
	<rect id="XMLID_93_" x="130" width="70" height="100.004"/>
	<path id="XMLID_102_" d="M0,315c0,8.284,6.716,15,15,15h85v-99.996H0V315z"/>
	<path id="XMLID_103_" d="M315,0h-85v100.004h100V15C330,6.716,323.284,0,315,0z"/>
	<rect id="XMLID_104_" x="130" y="230.004" width="70" height="99.996"/>
	<path id="XMLID_105_" d="M230,330h85c8.284,0,15-6.716,15-15v-84.996H230V330z"/>
	<rect id="XMLID_106_" y="130.004" width="100" height="70"/>
	<path id="XMLID_107_" d="M100,0H15C6.716,0,0,6.716,0,15v85.004h100V0z"/>
	<rect id="XMLID_108_" x="130" y="130.004" width="70" height="70"/>
</g>
<g>
</g>
<g>
</g>
<g>
</g>
<g>
</g>
<g>
</g>
<g>
</g>
<g>
</g>
<g>
</g>
<g>
</g>
<g>
</g>
<g>
</g>
<g>
</g>
<g>
</g>
<g>
</g>
<g>
</g>
</svg>
