<?xml version="1.0" encoding="iso-8859-1"?>
<!-- Generator: Adobe Illustrator 19.0.0, SVG Export Plug-In . SVG Version: 6.00 Build 0)  -->
<svg version="1.1" id="Layer_1" xmlns="http://www.w3.org/2000/svg" xmlns:xlink="http://www.w3.org/1999/xlink" x="0px" y="0px"
	 viewBox="0 0 319.748 319.748" style="enable-background:new 0 0 319.748 319.748;" xml:space="preserve">
<g id="XMLID_500_">
	<path id="XMLID_501_" d="M176.68,27.393L90.458,84.874H15c-8.284,0-15,6.716-15,15v120c0,8.284,6.716,15,15,15h75.458
		l86.222,57.481c2.51,1.673,5.411,2.519,8.321,2.519c2.426,0,4.859-0.588,7.076-1.775c4.878-2.61,7.923-7.693,7.923-13.225v-240
		c0-5.532-3.045-10.615-7.923-13.225C187.2,24.038,181.282,24.325,176.68,27.393z"/>
	<path id="XMLID_502_" d="M315.354,124.518c-5.857-5.858-15.355-5.858-21.213,0l-14.143,14.142l-14.142-14.142
		c-5.857-5.858-15.356-5.858-21.213,0c-5.858,5.858-5.858,15.355,0,21.213l14.142,14.142l-14.142,14.142
		c-5.858,5.858-5.858,15.355,0,21.213c2.929,2.929,6.768,4.393,10.607,4.393c3.839,0,7.678-1.464,10.606-4.393l14.142-14.142
		l14.143,14.142c2.929,2.929,6.768,4.393,10.606,4.393c3.839,0,7.678-1.464,10.606-4.393c5.857-5.858,5.857-15.355,0-21.213
		l-14.143-14.142l14.143-14.142C321.212,139.873,321.212,130.376,315.354,124.518z"/>
</g>
<g>
</g>
<g>
</g>
<g>
</g>
<g>
</g>
<g>
</g>
<g>
</g>
<g>
</g>
<g>
</g>
<g>
</g>
<g>
</g>
<g>
</g>
<g>
</g>
<g>
</g>
<g>
</g>
<g>
</g>
</svg>
