<?xml version="1.0" encoding="iso-8859-1"?>
<!-- Generator: Adobe Illustrator 19.0.0, SVG Export Plug-In . SVG Version: 6.00 Build 0)  -->
<svg xmlns="http://www.w3.org/2000/svg" xmlns:xlink="http://www.w3.org/1999/xlink" version="1.1" id="Layer_1" x="0px" y="0px" viewBox="0 0 512 512" style="enable-background:new 0 0 512 512;" xml:space="preserve">
<g>
	<g>
		<path d="M489.739,111.304H389.565c-32.689,0-62.247,13.529-83.478,35.236V50.087c0-9.206,7.49-16.696,16.696-16.696    c9.206,0,16.696,7.49,16.696,16.696c0,9.223,7.473,16.696,16.696,16.696c9.223,0,16.696-7.473,16.696-16.696    C372.87,22.468,350.402,0,322.783,0c-28.324,0-50.087,23.629-50.087,50.087v164.468c-5.248-1.871-10.813-3.076-16.696-3.076    c-5.882,0-11.448,1.205-16.696,3.076V50.087C239.304,23.68,217.61,0,189.217,0c-27.619,0-50.087,22.468-50.087,50.087    c0,9.223,7.473,16.696,16.696,16.696c9.223,0,16.696-7.473,16.696-16.696c0-9.206,7.49-16.696,16.696-16.696    s16.696,7.49,16.696,16.696v96.453c-21.231-21.707-50.789-35.236-83.478-35.236H22.261c-9.223,0-16.696,7.473-16.696,16.696    v100.174c0,50.325,32.038,93.197,76.739,109.62c-26.414,21.446-43.347,54.133-43.347,90.727v66.783    c0,9.223,7.473,16.696,16.696,16.696h66.783c49.202,0,91.316-30.609,108.523-73.749c7.397,4.314,15.88,6.967,25.042,6.967    c9.163,0,17.645-2.652,25.042-6.967C298.249,481.391,340.363,512,389.565,512h66.783c9.223,0,16.696-7.473,16.696-16.696v-66.783    c0-36.595-16.934-69.281-43.347-90.727c44.701-16.423,76.739-59.295,76.739-109.62V128    C506.435,118.777,498.956,111.304,489.739,111.304z M205.913,361.739c0,27.619-22.468,50.087-50.087,50.087H139.13V395.13    c0-27.619,22.468-50.087,50.087-50.087h16.696V361.739z M205.913,311.652h-16.696c-46.032,0-83.478-37.446-83.478-83.478v-16.696    h16.696c46.032,0,83.478,37.446,83.478,83.478V311.652z M272.696,345.043h-33.391c0-12.083,0-21.308,0-33.391h33.391    C272.696,323.735,272.696,332.96,272.696,345.043z M372.87,411.826h-16.696c-27.619,0-50.087-22.468-50.087-50.087v-16.696h16.696    c27.619,0,50.087,22.468,50.087,50.087V411.826z M406.261,228.174c0,46.032-37.446,83.478-83.478,83.478h-16.696v-16.696    c0-46.032,37.446-83.478,83.478-83.478h16.696V228.174z"/>
	</g>
</g>
<g>
</g>
<g>
</g>
<g>
</g>
<g>
</g>
<g>
</g>
<g>
</g>
<g>
</g>
<g>
</g>
<g>
</g>
<g>
</g>
<g>
</g>
<g>
</g>
<g>
</g>
<g>
</g>
<g>
</g>
</svg>
