<?xml version="1.0" encoding="iso-8859-1"?>
<!-- Generator: Adobe Illustrator 19.0.0, SVG Export Plug-In . SVG Version: 6.00 Build 0)  -->
<svg xmlns="http://www.w3.org/2000/svg" xmlns:xlink="http://www.w3.org/1999/xlink" version="1.1" id="Layer_1" x="0px" y="0px" viewBox="0 0 512 512" style="enable-background:new 0 0 512 512;" xml:space="preserve">
<g>
	<g>
		<path d="M372.87,311.652v16.696c0,27.619,22.468,50.087,50.087,50.087h16.696v-66.783H372.87z"/>
	</g>
</g>
<g>
	<g>
		<path d="M431.359,159.962c-15.717-9.153-25.098-25.26-25.098-43.093V16.696C406.261,7.473,398.782,0,389.565,0h-66.783    c-9.217,0-16.696,7.473-16.696,16.696v33.391c0,27.619-22.468,50.087-50.087,50.087s-50.087-22.468-50.087-50.087V16.696    C205.913,7.473,198.435,0,189.217,0h-66.783c-9.217,0-16.696,7.473-16.696,16.696V116.87c0,17.837-9.381,33.946-25.098,43.093    c-5.13,2.989-8.293,8.484-8.293,14.43v103.869h367.304V174.392C439.652,168.451,436.489,162.957,431.359,159.962z"/>
	</g>
</g>
<g>
	<g>
		<path d="M422.957,411.826c-46.032,0-83.478-37.446-83.478-83.478v-16.696H172.522v16.696c0,46.032-37.446,83.478-83.478,83.478    H72.348v83.478c0,9.223,7.479,16.696,16.696,16.696h133.565c9.217,0,16.696-7.473,16.696-16.696v-66.783    c0-9.206,7.49-16.696,16.696-16.696s16.696,7.49,16.696,16.696v66.783c0,9.223,7.479,16.696,16.696,16.696h133.565    c9.217,0,16.696-7.473,16.696-16.696v-83.478H422.957z"/>
	</g>
</g>
<g>
	<g>
		<path d="M72.348,311.652v66.783h16.696c27.619,0,50.087-22.468,50.087-50.087v-16.696H72.348z"/>
	</g>
</g>
<g>
</g>
<g>
</g>
<g>
</g>
<g>
</g>
<g>
</g>
<g>
</g>
<g>
</g>
<g>
</g>
<g>
</g>
<g>
</g>
<g>
</g>
<g>
</g>
<g>
</g>
<g>
</g>
<g>
</g>
</svg>
