<?xml version="1.0" encoding="iso-8859-1"?>
<!-- Generator: Adobe Illustrator 19.0.0, SVG Export Plug-In . SVG Version: 6.00 Build 0)  -->
<svg xmlns="http://www.w3.org/2000/svg" xmlns:xlink="http://www.w3.org/1999/xlink" version="1.1" id="Layer_1" x="0px" y="0px" viewBox="0 0 512 512" style="enable-background:new 0 0 512 512;" xml:space="preserve">
<g>
	<g>
		<path d="M494.933,34.133h-46.088c0.222,3.786,0.577,7.538,0.577,11.378c0,47.724-17.461,91.387-46.214,125.156    c44.748,0,35.303,0,79.109,0C501.233,134.976,512,94.33,512,51.2C512,41.772,504.355,34.133,494.933,34.133z"/>
	</g>
</g>
<g>
	<g>
		<path d="M62.578,45.511c0-3.84,0.354-7.591,0.577-11.378H17.067C7.645,34.133,0,41.772,0,51.2    c0,43.13,10.767,83.776,29.683,119.467c17.303,0,64.139,0,79.109,0C80.039,136.899,62.578,93.235,62.578,45.511z"/>
	</g>
</g>
<g>
	<g>
		<path d="M414.712,34.133H97.288c-0.268,3.774-0.577,7.538-0.577,11.378c0,50.773,23.963,95.967,61.078,125.156h196.423    c37.114-29.189,61.077-74.382,61.077-125.156C415.289,41.671,414.981,37.907,414.712,34.133z M211.867,85.333l-24.133,24.133    c-6.666,6.666-17.467,6.666-24.133,0c-6.666-6.661-6.666-17.472,0-24.133L187.733,61.2c6.666-6.666,17.467-6.666,24.133,0    C218.533,67.862,218.533,78.673,211.867,85.333z M273.067,119.467c0,9.428-7.645,17.067-17.067,17.067    s-17.067-7.639-17.067-17.067V85.333c0-9.428,7.645-17.067,17.067-17.067s17.067,7.639,17.067,17.067V119.467z M348.4,109.467    c-6.666,6.666-17.467,6.666-24.133,0l-24.133-24.133c-6.666-6.661-6.666-17.472,0-24.133c6.666-6.666,17.467-6.666,24.133,0    L348.4,85.333C355.066,91.994,355.066,102.805,348.4,109.467z"/>
	</g>
</g>
<g>
	<g>
		<path d="M414.712,204.8H97.288c-0.268,3.774-0.577,7.538-0.577,11.378c0,87.833,71.456,159.289,159.289,159.289    s159.289-71.456,159.289-159.289C415.289,212.338,414.981,208.574,414.712,204.8z M211.867,290.133l-24.133,24.133    c-6.666,6.666-17.467,6.666-24.133,0c-6.666-6.662-6.666-17.473,0-24.133L187.733,266c6.666-6.666,17.467-6.666,24.133,0    C218.533,272.661,218.533,283.472,211.867,290.133z M273.067,324.267c0,9.428-7.645,17.067-17.067,17.067    s-17.067-7.639-17.067-17.067v-34.133c0-9.428,7.645-17.067,17.067-17.067s17.067,7.639,17.067,17.067V324.267z M348.4,314.267    c-6.666,6.666-17.467,6.666-24.133,0l-24.133-24.133c-6.666-6.661-6.666-17.472,0-24.133c6.666-6.666,17.467-6.666,24.133,0    l24.133,24.133C355.066,296.794,355.066,307.605,348.4,314.267z"/>
	</g>
</g>
<g>
	<g>
		<path d="M494.933,204.8h-46.088c0.222,3.787,0.577,7.538,0.577,11.378C449.422,322.833,362.655,409.6,256,409.6    S62.578,322.833,62.578,216.178c0-3.84,0.354-7.591,0.577-11.378H17.067C7.645,204.8,0,212.439,0,221.867    c0,141.161,114.845,256,256,256s256-114.839,256-256C512,212.439,504.355,204.8,494.933,204.8z"/>
	</g>
</g>
<g>
</g>
<g>
</g>
<g>
</g>
<g>
</g>
<g>
</g>
<g>
</g>
<g>
</g>
<g>
</g>
<g>
</g>
<g>
</g>
<g>
</g>
<g>
</g>
<g>
</g>
<g>
</g>
<g>
</g>
</svg>
