<?xml version="1.0" encoding="iso-8859-1"?>
<!-- Generator: Adobe Illustrator 19.0.0, SVG Export Plug-In . SVG Version: 6.00 Build 0)  -->
<svg xmlns="http://www.w3.org/2000/svg" xmlns:xlink="http://www.w3.org/1999/xlink" version="1.1" id="Layer_1" x="0px" y="0px" viewBox="0 0 512 512" style="enable-background:new 0 0 512 512;" xml:space="preserve">
<g>
	<g>
		<path d="M507.386,426.746c-9.018-9.483-18.792-18.349-28.901-26.698c0-187.143,0-138.531,0-327.69    c0-9.222-7.367-16.695-16.583-16.695s-16.695,7.473-16.695,16.695v16.695h-33.501V72.358c0-9.222-7.367-16.695-16.583-16.695    s-16.695,7.473-16.695,16.695v16.695h-33.501V72.358c0-9.222-7.367-16.695-16.583-16.695c-9.217,0-16.695,7.473-16.695,16.695    c0,28.995,0,54.386,0,83.474H200.24c0-29.076,0-54.491,0-83.474c0-9.222-7.367-16.695-16.583-16.695s-16.695,7.473-16.695,16.695    v16.695h-33.501V72.358c0-9.222-7.367-16.695-16.583-16.695s-16.695,7.473-16.695,16.695v16.695H66.682V72.358    c0-9.222-7.367-16.695-16.583-16.695s-16.695,7.473-16.695,16.695c0,157.478,0,187.404,0,328.93    c-10.183,8.424-19.876,17.365-28.859,26.921c-9.987,10.629-2.437,28.128,12.163,28.128c0.011,0,0.032-0.111,0.043-0.111    l478.582,0.056C507.49,456.241,518.534,438.46,507.386,426.746z M133.572,306.084c0,9.222-7.478,16.695-16.695,16.695    s-16.806-7.473-16.806-16.695v-33.39c0-9.222,7.589-16.695,16.806-16.695s16.695,7.473,16.695,16.695V306.084z M133.572,205.916    c0,9.222-7.478,16.695-16.695,16.695s-16.806-7.473-16.806-16.695v-33.39c0-9.222,7.589-16.695,16.806-16.695    s16.695,7.473,16.695,16.695V205.916z M311.65,325.209c-12.695-1.996-24.916-3.254-37.856-3.825V238.61    c0-9.222-7.478-16.695-16.695-16.695c-9.217,0-16.695,7.473-16.695,16.695v82.88c-13.224,0.702-27.127,2.214-40.164,4.392V189.221    h111.41V325.209z M411.818,306.084c0,9.222-7.478,16.695-16.695,16.695s-16.806-7.473-16.806-16.695v-33.39    c0-9.222,7.589-16.695,16.806-16.695s16.695,7.473,16.695,16.695V306.084z M411.818,205.916c0,9.222-7.478,16.695-16.695,16.695    s-16.806-7.473-16.806-16.695v-33.39c0-9.222,7.589-16.695,16.806-16.695s16.695,7.473,16.695,16.695V205.916z"/>
	</g>
</g>
<g>
</g>
<g>
</g>
<g>
</g>
<g>
</g>
<g>
</g>
<g>
</g>
<g>
</g>
<g>
</g>
<g>
</g>
<g>
</g>
<g>
</g>
<g>
</g>
<g>
</g>
<g>
</g>
<g>
</g>
</svg>
