<?xml version="1.0" encoding="iso-8859-1"?>
<!-- Generator: Adobe Illustrator 19.0.0, SVG Export Plug-In . SVG Version: 6.00 Build 0)  -->
<svg xmlns="http://www.w3.org/2000/svg" xmlns:xlink="http://www.w3.org/1999/xlink" version="1.1" id="Layer_1" x="0px" y="0px" viewBox="0 0 512 512" style="enable-background:new 0 0 512 512;" xml:space="preserve">
<g>
	<g>
		<path d="M445.217,0c-36.826,0-66.783,29.956-66.783,66.783c0,36.826,29.956,66.783,66.783,66.783    c36.826,0,66.783-29.956,66.783-66.783C512,29.956,482.044,0,445.217,0z"/>
	</g>
</g>
<g>
	<g>
		<path d="M248.619,372.555l-60.554,72.663h95.761c8.53,0,16.916-0.855,25.163-2.239L248.619,372.555z"/>
	</g>
</g>
<g>
	<g>
		<path d="M417.38,278.261H299.746l98.066,114.418c23.402-27.217,36.268-61.452,36.264-97.722    C434.076,285.734,426.597,278.261,417.38,278.261z"/>
	</g>
</g>
<g>
	<g>
		<path d="M29.37,16.962c-5.995-7.005-16.549-7.81-23.538-1.81c-7,6-7.815,16.538-1.81,23.538l29.369,34.266v222.001    c0,46.099,20.909,87.371,53.692,114.956l122.519-147.022c5.12-6.136,11.59-10.726,18.731-13.802L29.37,16.962z"/>
	</g>
</g>
<g>
	<g>
		<path d="M484.174,478.609h-56.69L260.755,284.092c-6.431-7.515-18.658-8.034-25.5,0.179L73.306,478.609h-56.61    C7.473,478.609,0,486.082,0,495.304C0,504.527,7.473,512,16.696,512h467.478c9.223,0,16.696-7.473,16.696-16.696    C500.87,486.082,493.397,478.609,484.174,478.609z M116.775,478.609L248.261,320.82l135.25,157.788H116.775z"/>
	</g>
</g>
<g>
</g>
<g>
</g>
<g>
</g>
<g>
</g>
<g>
</g>
<g>
</g>
<g>
</g>
<g>
</g>
<g>
</g>
<g>
</g>
<g>
</g>
<g>
</g>
<g>
</g>
<g>
</g>
<g>
</g>
</svg>
