<?xml version="1.0" encoding="iso-8859-1"?>
<!-- Generator: Adobe Illustrator 19.0.0, SVG Export Plug-In . SVG Version: 6.00 Build 0)  -->
<svg xmlns="http://www.w3.org/2000/svg" xmlns:xlink="http://www.w3.org/1999/xlink" version="1.1" id="Layer_1" x="0px" y="0px" viewBox="0 0 512 512" style="enable-background:new 0 0 512 512;" xml:space="preserve">
<g>
	<g>
		<path d="M495.304,372.87h-16.696v-50.087c0-46.032-37.446-83.478-83.478-83.478h-20.356l-17.578-70.331    c-9.147-36.557-41.451-62.137-78.935-63.061V72.348h50.087c9.217,0,16.696-7.473,16.696-16.696    c0-9.223-7.479-16.696-16.696-16.696H61.217c-9.217,0-16.696,7.473-16.696,16.696c0,9.223,7.479,16.696,16.696,16.696h50.087    v33.391H94.609c-27.619,0-50.087,22.468-50.087,50.087V256v116.87H16.696C7.479,372.87,0,380.343,0,389.565    c0,9.223,7.479,16.696,16.696,16.696c21.149,0,37.079,0,61.217,0c0,36.826,29.956,66.783,66.783,66.783    c36.826,0,66.783-29.956,66.783-66.783h100.174c0,36.826,29.956,66.783,66.783,66.783c36.826,0,66.783-29.956,66.783-66.783    h50.087c9.217,0,16.696-7.473,16.696-16.696C512,380.343,504.521,372.87,495.304,372.87z M144.696,439.652    c-18.413,0-33.391-14.978-33.391-33.391s14.978-33.391,33.391-33.391s33.391,14.978,33.391,33.391    S163.109,439.652,144.696,439.652z M178.087,239.304H77.913v-83.478c0-9.206,7.49-16.696,16.696-16.696h83.478V239.304z     M144.696,105.739V72.348H244.87v33.391H144.696z M211.478,239.304V139.13c21.435,0,38.872,0,64.728,0    c23.022,0,43.011,15.604,48.598,37.94l15.555,62.234H211.478z M378.435,439.652c-18.413,0-33.391-14.978-33.391-33.391    s14.978-33.391,33.391-33.391c18.413,0,33.391,14.978,33.391,33.391S396.848,439.652,378.435,439.652z"/>
	</g>
</g>
<g>
</g>
<g>
</g>
<g>
</g>
<g>
</g>
<g>
</g>
<g>
</g>
<g>
</g>
<g>
</g>
<g>
</g>
<g>
</g>
<g>
</g>
<g>
</g>
<g>
</g>
<g>
</g>
<g>
</g>
</svg>
