<?xml version="1.0" encoding="iso-8859-1"?>
<!-- Generator: Adobe Illustrator 19.0.0, SVG Export Plug-In . SVG Version: 6.00 Build 0)  -->
<svg xmlns="http://www.w3.org/2000/svg" xmlns:xlink="http://www.w3.org/1999/xlink" version="1.1" id="Layer_1" x="0px" y="0px" viewBox="0 0 512 512" style="enable-background:new 0 0 512 512;" xml:space="preserve">
<g>
	<g>
		<path d="M489.739,478.609H306.087v-45.855c56.544-8.145,100.174-56.777,100.174-115.536V166.957h50.087    c9.217,0,16.696-7.473,16.696-16.696c0-46.032-37.446-83.478-83.478-83.478h-0.158c-15.246-20.231-39.396-33.391-66.625-33.391    c-4.529,0-8.941,0.462-13.275,1.159c-2.17-5.667-3.42-11.669-3.42-17.854C306.087,7.473,298.608,0,289.391,0    s-16.696,7.473-16.696,16.696c0,10.251,2.068,20.212,5.655,29.628c-5.69,3.596-10.921,7.829-15.574,12.65    c-14.32-9.035-23.473-24.84-23.473-42.278C239.304,7.473,231.826,0,222.609,0s-16.696,7.473-16.696,16.696    c0,28.996,15.199,55.284,38.989,70.36c-3.562,9.274-5.597,19.3-5.597,29.814v83.478c-43.831,0-81.08,28.338-94.635,67.617    c-40.764,5.483-72.321,40.404-72.321,82.643v0.158c-20.231,15.246-33.391,39.395-33.391,66.625    c0,9.223,7.479,16.696,16.696,16.696c78.424,0,140.943,0,217.044,0v44.522H22.261c-9.217,0-16.696,7.473-16.696,16.696    c0,9.223,7.479,16.696,16.696,16.696h467.478c9.217,0,16.696-7.473,16.696-16.696    C506.435,486.082,498.956,478.609,489.739,478.609z M436.794,133.565h-30.533V116.87c0-4.871-0.505-9.618-1.31-14.263    C419.774,107.404,431.6,118.922,436.794,133.565z M322.62,100.174c9.217,0,16.858,7.641,16.858,16.864    c0,9.223-7.641,16.858-16.858,16.858s-16.869-7.635-16.869-16.858S313.402,100.174,322.62,100.174z M205.913,400.696h-1.818    c21.975-21.55,35.209-51.401,35.209-83.478c0-9.223-7.479-16.696-16.696-16.696s-16.696,7.473-16.696,16.696    c0,26.69-12.794,51.243-33.391,66.744v-83.439c0-36.826,29.956-66.783,66.783-66.783c36.826,0,66.783,29.956,66.783,66.783    C306.087,355.755,261.152,400.696,205.913,400.696z"/>
	</g>
</g>
<g>
</g>
<g>
</g>
<g>
</g>
<g>
</g>
<g>
</g>
<g>
</g>
<g>
</g>
<g>
</g>
<g>
</g>
<g>
</g>
<g>
</g>
<g>
</g>
<g>
</g>
<g>
</g>
<g>
</g>
</svg>
