<?xml version="1.0" encoding="iso-8859-1"?>
<!-- Generator: Adobe Illustrator 19.0.0, SVG Export Plug-In . SVG Version: 6.00 Build 0)  -->
<svg xmlns="http://www.w3.org/2000/svg" xmlns:xlink="http://www.w3.org/1999/xlink" version="1.1" id="Layer_1" x="0px" y="0px" viewBox="0 0 512 512" style="enable-background:new 0 0 512 512;" xml:space="preserve">
<g>
	<g>
		<path d="M497.171,43.8l-29.047-29.047c-11.57-11.57-27.466-16.704-43.619-14.081c-16.151,2.621-29.609,12.517-36.926,27.152    l-25.397,50.793l-76.536,76.536c-20.923-7.429-43.787-8.847-65.568-3.868c-25.59,5.851-48.683,20.25-65.021,40.544    c-8.989,11.165-20.413,18.373-33.037,20.843c-42.858,8.384-78.989,34.251-101.741,72.833    c-27.604,46.812-26.863,106.945,1.889,153.196c25.03,40.261,65.817,66.396,111.9,71.7c5.876,0.676,11.733,1.01,17.558,1.01    c39.834-0.001,77.893-15.631,106.469-44.207c21.029-21.029,35.223-47.563,41.045-76.733c2.603-13.04,9.852-24.664,20.966-33.611    c20.295-16.342,34.692-39.438,40.537-65.032c4.973-21.774,3.554-44.632-3.873-65.55l76.535-76.535l50.793-25.397    c14.635-7.317,24.532-20.778,27.153-36.929S508.741,55.369,497.171,43.8z M139.553,443.496c-3.273,3.274-7.565,4.911-11.854,4.911    c-4.291,0-8.581-1.636-11.854-4.911L68.43,396.08c-6.547-6.547-6.547-17.161,0-23.708c6.547-6.547,17.162-6.546,23.708,0    l47.416,47.416C146.1,426.335,146.1,436.949,139.553,443.496z M210.68,348.662c-6.334,6.332-14.753,9.821-23.709,9.821    c-8.956,0-17.376-3.488-23.708-9.821s-9.821-14.753-9.821-23.708c0-8.956,3.488-17.376,9.821-23.708    c6.332-6.332,14.753-9.821,23.708-9.821c8.957,0,17.376,3.488,23.709,9.821C223.752,314.319,223.752,335.59,210.68,348.662z     M244.741,290.891c-2.811-4.769-6.262-9.263-10.354-13.355c-4.054-4.054-8.54-7.517-13.347-10.363l154.919-154.917l19.757,19.756    l3.952,3.951L244.741,290.891z"/>
	</g>
</g>
<g>
	<g>
		<path d="M453.167,177.298l-6.193,6.193v211.159c0,46.219-37.602,83.822-83.822,83.822h-70.03    c-3.576,4.294-7.334,8.458-11.318,12.441c-7.837,7.837-16.255,14.875-25.148,21.087h106.496    c64.707,0,117.351-52.643,117.351-117.351V163.63L453.167,177.298z"/>
	</g>
</g>
<g>
</g>
<g>
</g>
<g>
</g>
<g>
</g>
<g>
</g>
<g>
</g>
<g>
</g>
<g>
</g>
<g>
</g>
<g>
</g>
<g>
</g>
<g>
</g>
<g>
</g>
<g>
</g>
<g>
</g>
</svg>
