<?xml version="1.0" encoding="iso-8859-1"?>
<!-- Generator: Adobe Illustrator 19.0.0, SVG Export Plug-In . SVG Version: 6.00 Build 0)  -->
<svg xmlns="http://www.w3.org/2000/svg" xmlns:xlink="http://www.w3.org/1999/xlink" version="1.1" id="Layer_1" x="0px" y="0px" viewBox="0 0 512 512" style="enable-background:new 0 0 512 512;" xml:space="preserve">
<g>
	<g>
		<path d="M422.954,178.087h-17.68c-4.804-43.215-28.043-80.86-61.614-105.095l22.271-39.601h57.021    c9.217,0,16.696-7.473,16.696-16.696C439.649,7.473,432.17,0,422.953,0h-66.783c-6.033,0-11.592,3.256-14.554,8.51l-26.966,47.943    c-18.03-7.673-37.849-11.932-58.648-11.932c-77.203,0-140.936,58.549-149.277,133.565h-17.68c-9.223,0-16.696,7.473-16.696,16.696    c0,9.223,7.473,16.696,16.696,16.696h18.449l28.437,255.962c2.822,25.402,24.223,44.56,49.783,44.56h140.576    c25.554,0,46.957-19.158,49.783-44.56l28.437-255.962h18.443c9.217,0,16.696-7.473,16.696-16.696    C439.65,185.56,432.171,178.087,422.954,178.087z M140.324,178.087c8.125-56.559,56.908-100.174,115.679-100.174    c14.855,0,29.063,2.803,42.144,7.88l-51.91,92.294H140.324z M352.362,378.435H159.638l-7.419-66.783h207.563L352.362,378.435z     M284.552,178.087l42.638-75.813c23.552,18.169,40.068,45.039,44.492,75.813H284.552z"/>
	</g>
</g>
<g>
</g>
<g>
</g>
<g>
</g>
<g>
</g>
<g>
</g>
<g>
</g>
<g>
</g>
<g>
</g>
<g>
</g>
<g>
</g>
<g>
</g>
<g>
</g>
<g>
</g>
<g>
</g>
<g>
</g>
</svg>
