<?xml version="1.0" encoding="iso-8859-1"?>
<!-- Generator: Adobe Illustrator 19.0.0, SVG Export Plug-In . SVG Version: 6.00 Build 0)  -->
<svg xmlns="http://www.w3.org/2000/svg" xmlns:xlink="http://www.w3.org/1999/xlink" version="1.1" id="Layer_1" x="0px" y="0px" viewBox="0 0 512 512" style="enable-background:new 0 0 512 512;" xml:space="preserve">
<g>
	<g>
		<path d="M207.561,35.462L171.21,143.638c-2.226,6.625-8.413,11.232-15.389,11.474L48.84,158.803    c-15.549,0.537-29.218,7.876-38.175,19.556l209.478,59.85c5.353-5.525,11.667-9.656,19.057-12.29V3.649    C224.382,8.476,212.829,19.77,207.561,35.462z"/>
	</g>
</g>
<g>
	<g>
		<path d="M463.16,158.803l-106.981-3.691c-6.976-0.241-13.163-4.848-15.389-11.468L304.439,35.456    c-5.211-15.512-17.037-26.855-31.431-31.748v222.209c7.317,2.608,14.147,6.667,19.471,12.114l208.856-59.671    C492.378,166.678,478.709,159.339,463.16,158.803z"/>
	</g>
</g>
<g>
	<g>
		<path d="M306.501,269.072c1.036,12.185-1.648,22.229-7.766,31.65L448.36,484.951c8.687-13.475,9.773-31.36,5.86-40.405    l-49.712-113.797c-3.17-7.234-0.943-15.576,5.386-20.282l81.632-60.56c13.007-9.645,20.248-18.94,20.474-34.304L306.501,269.072z"/>
	</g>
</g>
<g>
	<g>
		<path d="M206.244,269.285L0,215.601c0.225,15.365,7.467,24.659,20.474,34.304l81.62,60.56c6.341,4.705,8.567,13.047,5.397,20.282    L57.779,444.545c-3.913,9.044-2.827,26.929,5.86,40.405l150.087-184.794C207.538,290.36,205.343,280.664,206.244,269.285z"/>
	</g>
</g>
<g>
	<g>
		<path d="M271.924,321.155c-4.926,1.606-10.084,2.698-15.54,2.698c-5.68,0-11.051-1.152-16.152-2.888l-149.929,184.6    c16.663,5.691,34.853,2.446,48.692-9.318l106.202-69.615c6.003-3.928,16.07-3.625,21.609,0l106.202,69.615    c13.064,11.112,30.834,15.43,48.694,9.32L271.924,321.155z"/>
	</g>
</g>
<g>
	<g>
		<circle cx="256" cy="273.396" r="16.848"/>
	</g>
</g>
<g>
</g>
<g>
</g>
<g>
</g>
<g>
</g>
<g>
</g>
<g>
</g>
<g>
</g>
<g>
</g>
<g>
</g>
<g>
</g>
<g>
</g>
<g>
</g>
<g>
</g>
<g>
</g>
<g>
</g>
</svg>
