<?xml version="1.0" encoding="iso-8859-1"?>
<!-- Generator: Adobe Illustrator 19.0.0, SVG Export Plug-In . SVG Version: 6.00 Build 0)  -->
<svg xmlns="http://www.w3.org/2000/svg" xmlns:xlink="http://www.w3.org/1999/xlink" version="1.1" id="Layer_1" x="0px" y="0px" viewBox="0 0 512 512" style="enable-background:new 0 0 512 512;" xml:space="preserve">
<g>
	<g>
		<path d="M508.114,245.283c-9.276-11.147-23.946-32.679-49.805-40.358c8.453-19.808,6.197-37.888-3.756-53.476    c-10.974-17.201-30.514-28.875-52.265-31.243c-5.598-0.615-9.893-5.032-10.494-10.489c-2.384-21.751-14.065-41.291-31.265-52.259    c-15.573-9.938-33.603-12.221-53.468-3.747c-7.715-25.964-29.202-40.484-40.349-49.83c-6.205-5.171-15.219-5.177-21.424,0.006    c-11.147,9.318-32.659,23.858-40.363,49.804c-19.776-8.444-37.857-6.21-53.487,3.762c-17.189,10.974-28.86,30.508-31.233,52.254    c0,0.006,0,0.011,0,0.017c-0.604,5.479-4.932,9.873-10.483,10.483c-21.761,2.384-41.302,14.076-52.265,31.271    c-10.086,15.817-12.086,33.839-3.759,53.429c-25.979,7.687-40.502,29.235-49.813,40.383c-5.181,6.205-5.181,15.219,0,21.424    c9.226,11.148,24.002,32.47,49.884,40.186c-8.539,19.839-6.331,37.996,3.688,53.669c10.974,17.189,30.514,28.86,52.254,31.227    c5.598,0.614,9.893,5.032,10.494,10.489c2.384,21.757,14.065,41.291,31.254,52.259c15.547,9.9,33.59,12.238,53.479,3.747    c7.715,25.964,29.202,40.483,40.349,49.83c6.155,5.129,15.167,5.214,21.424,0c11.147-9.317,32.653-23.899,40.355-49.811    c19.74,8.43,37.846,6.236,53.495-3.76c17.189-10.974,28.86-30.508,31.233-52.27c0.604-5.48,4.932-9.873,10.483-10.483    c21.761-2.384,41.302-14.076,52.265-31.271c10.029-15.726,12.169-33.85,3.679-53.608c25.97-7.722,40.618-29.05,49.893-40.198    C513.295,260.514,513.295,251.489,508.114,245.283z M79.029,275.837c-18.277,2.517-29.25-6.218-40.753-19.848    c11.485-13.618,22.434-22.347,40.728-19.832c7.934,5.618-0.6,0.35,33.146,19.842C78.885,275.212,87.058,270.146,79.029,275.837z     M255.999,38.287c13.619,11.502,22.344,22.474,19.832,40.726c-5.634,7.966-0.28-0.717-19.832,33.13    c-19.212-33.25-14.162-25.104-19.827-33.095C233.628,60.749,242.359,49.784,255.999,38.287z M255.999,473.714    c-13.619-11.502-22.344-22.474-19.832-40.726c5.603-7.915,0.324,0.639,19.832-33.131c19.207,33.243,14.166,25.114,19.837,33.112    C278.423,451.314,269.988,461.951,255.999,473.714z M311.737,256c0,9.268-2.49,17.883-6.51,25.58l37.481,37.478    c6.531,6.526,6.531,17.114,0,23.645s-17.114,6.531-23.645,0l-37.481-37.477c-7.698,4.021-16.313,6.511-25.582,6.511    c-9.269,0-17.885-2.49-25.582-6.511l-37.481,37.477c-6.531,6.531-17.114,6.531-23.645,0c-6.531-6.531-6.531-17.118,0-23.645    l37.481-37.478c-4.02-7.698-6.51-16.312-6.51-25.58c0-9.268,2.49-17.883,6.51-25.58l-37.481-37.478    c-6.531-6.526-6.531-17.114,0-23.645c6.531-6.531,17.114-6.531,23.645,0l37.481,37.477c7.698-4.021,16.313-6.511,25.582-6.511    c9.269,0,17.885,2.49,25.582,6.511l37.481-37.477c6.531-6.531,17.114-6.531,23.645,0c6.531,6.531,6.531,17.118,0,23.645    l-37.481,37.478C309.248,238.117,311.737,246.732,311.737,256z M432.998,275.843c-7.936-5.616,0.641-0.324-33.147-19.843    c33.19-19.169,25.112-14.157,33.124-19.84c18.256-2.535,29.238,6.218,40.738,19.851    C462.23,269.631,451.236,278.337,432.998,275.843z"/>
	</g>
</g>
<g>
	<g>
		<path d="M255.999,233.705c-12.299,0-22.295,10.016-22.295,22.295c0,12.312,10.033,22.295,22.295,22.295    c12.299,0,22.295-10.017,22.295-22.295C278.294,243.702,268.28,233.705,255.999,233.705z"/>
	</g>
</g>
<g>
</g>
<g>
</g>
<g>
</g>
<g>
</g>
<g>
</g>
<g>
</g>
<g>
</g>
<g>
</g>
<g>
</g>
<g>
</g>
<g>
</g>
<g>
</g>
<g>
</g>
<g>
</g>
<g>
</g>
</svg>
