<?xml version="1.0" encoding="iso-8859-1"?>
<!-- Generator: Adobe Illustrator 19.0.0, SVG Export Plug-In . SVG Version: 6.00 Build 0)  -->
<svg xmlns="http://www.w3.org/2000/svg" xmlns:xlink="http://www.w3.org/1999/xlink" version="1.1" id="Layer_1" x="0px" y="0px" viewBox="0 0 512 512" style="enable-background:new 0 0 512 512;" xml:space="preserve">
<g>
	<g>
		<path d="M256,0c-64.445,0-116.87,52.429-116.87,116.87v33.391c0,34.598,58.695,50.087,116.87,50.087s116.87-15.489,116.87-50.087    V116.87C372.87,52.429,320.445,0,256,0z"/>
	</g>
</g>
<g>
	<g>
		<path d="M456.348,411.826h-16.696V395.13c0-9.223-7.479-16.696-16.696-16.696H289.391c-9.217,0-16.696,7.473-16.696,16.696v16.696    h-33.391V395.13c0-9.223-7.479-16.696-16.696-16.696H89.044c-9.217,0-16.696,7.473-16.696,16.696v16.696H55.652    c-9.217,0-16.696,7.473-16.696,16.696c0,9.223,7.479,16.696,16.696,16.696h16.696v16.696c0,27.619,22.468,50.087,50.087,50.087    h66.783c27.619,0,50.087-22.468,50.087-50.087v-16.696h33.391v16.696c0,27.619,22.468,50.087,50.087,50.087h66.783    c27.619,0,50.087-22.468,50.087-50.087v-16.696h16.696c9.217,0,16.696-7.473,16.696-16.696    C473.043,419.299,465.565,411.826,456.348,411.826z"/>
	</g>
</g>
<g>
	<g>
		<path d="M489.739,133.565h-83.478v16.696c0,51.489-57.577,83.478-150.261,83.478s-150.261-31.989-150.261-83.478v-16.696H22.261    c-9.217,0-16.696,7.473-16.696,16.696c0,101.266,82.391,183.652,183.652,183.652h133.565    c101.261,0,183.652-82.386,183.652-183.652C506.435,141.038,498.956,133.565,489.739,133.565z"/>
	</g>
</g>
<g>
</g>
<g>
</g>
<g>
</g>
<g>
</g>
<g>
</g>
<g>
</g>
<g>
</g>
<g>
</g>
<g>
</g>
<g>
</g>
<g>
</g>
<g>
</g>
<g>
</g>
<g>
</g>
<g>
</g>
</svg>
