<?xml version="1.0" encoding="iso-8859-1"?>
<!-- Generator: Adobe Illustrator 19.0.0, SVG Export Plug-In . SVG Version: 6.00 Build 0)  -->
<svg xmlns="http://www.w3.org/2000/svg" xmlns:xlink="http://www.w3.org/1999/xlink" version="1.1" id="Layer_1" x="0px" y="0px" viewBox="0 0 512 512" style="enable-background:new 0 0 512 512;" xml:space="preserve">
<g>
	<g>
		<path d="M256,0c-35.24,0-68.815,7.127-99.368,20.007l77.815,155.427c6.888-1.839,14.086-2.912,21.553-2.912    c7.467,0,14.665,1.073,21.553,2.912l77.815-155.427C324.815,7.127,291.24,0,256,0z"/>
	</g>
</g>
<g>
	<g>
		<path d="M172.522,256c0-26.68,12.561-50.377,32.041-65.66L126.801,35.022C50.965,79.459,0,161.753,0,256    c0,94.246,50.965,176.541,126.801,220.978l77.761-155.319C185.082,306.377,172.522,282.68,172.522,256z M108.255,335.31    c-8.498,3.519-18.284-0.51-21.805-9.049c-9.206-22.261-13.881-45.93-13.881-70.342c0-24.435,4.663-48.104,13.87-70.342    c3.522-8.516,13.272-12.587,21.805-9.049c8.521,3.527,12.576,13.293,9.044,21.81c-7.511,18.174-11.326,37.549-11.326,57.581    c0,20.011,3.815,39.386,11.337,57.581C120.831,322.021,116.776,331.783,108.255,335.31z"/>
	</g>
</g>
<g>
	<g>
		<path d="M277.553,336.567c-6.888,1.839-14.086,2.912-21.553,2.912c-7.467,0-14.665-1.073-21.553-2.912l-77.815,155.427    C187.185,504.873,220.76,512,256,512c35.24,0,68.815-7.127,99.368-20.007L277.553,336.567z"/>
	</g>
</g>
<g>
	<g>
		<path d="M385.199,35.022L307.438,190.34c19.479,15.282,32.04,38.98,32.04,65.66s-12.561,50.377-32.041,65.66l77.761,155.319    C461.035,432.541,512,350.246,512,256C512,161.753,461.035,79.459,385.199,35.022z M425.853,326.255    c-3.557,8.596-13.398,12.554-21.805,9.055c-8.521-3.516-12.587-13.283-9.066-21.805c7.522-18.206,11.337-37.582,11.337-57.587    c0-20.016-3.815-39.392-11.337-57.581c-3.533-8.517,0.522-18.283,9.043-21.81c8.555-3.533,18.283,0.533,21.805,9.049    c9.206,22.255,13.881,45.924,13.881,70.342C439.711,280.321,435.049,303.984,425.853,326.255z"/>
	</g>
</g>
<g>
</g>
<g>
</g>
<g>
</g>
<g>
</g>
<g>
</g>
<g>
</g>
<g>
</g>
<g>
</g>
<g>
</g>
<g>
</g>
<g>
</g>
<g>
</g>
<g>
</g>
<g>
</g>
<g>
</g>
</svg>
