<?xml version="1.0" encoding="iso-8859-1"?>
<!-- Generator: Adobe Illustrator 19.0.0, SVG Export Plug-In . SVG Version: 6.00 Build 0)  -->
<svg xmlns="http://www.w3.org/2000/svg" xmlns:xlink="http://www.w3.org/1999/xlink" version="1.1" id="Layer_1" x="0px" y="0px" viewBox="0 0 512 512" style="enable-background:new 0 0 512 512;" xml:space="preserve">
<g>
	<g>
		<path d="M510.128,478.221c-4.21-8.419-14.441-11.829-22.894-7.63c-17.937,8.969-30.685,11.132-56.586-1.8    c-23.916-11.947-52.443-11.93-76.292-0.006c-20.233,10.101-32.002,14.086-60.208,0.006c-23.916-11.947-52.443-11.93-76.292-0.006    c-16.634,8.304-32.59,13.816-53.01,3.599c-27.583-13.771-54.259-18.215-83.49-3.599c-11.375,5.678-27.837,16.151-56.63,1.8    c-8.42-4.204-18.673-0.767-22.883,7.659c-4.198,8.431-0.767,18.673,7.664,22.877c33.165,16.53,58.456,12.511,87.1-1.811    c20.076-10.037,36.303-4.717,52.987,3.599c29.258,14.635,55.95,10.182,83.513-3.599c14.33-7.165,31.437-7.165,45.789,0.011    c42.252,21.061,66.335,12.177,90.711-0.011c14.33-7.165,31.437-7.165,45.789,0.011c35.862,17.876,60.178,15.255,87.1,1.794    C510.927,496.899,514.337,486.652,510.128,478.221z"/>
	</g>
</g>
<g>
	<g>
		<path d="M487.232,402.34c-14.233,7.116-27.612,9.864-43.548,4.25c0-133.705,0-126.783,0-265.904l42.731,24.418    c8.202,4.699,18.624,1.788,23.283-6.348c4.676-8.181,1.833-18.602-6.354-23.278L264.47,2.25c-5.243-3-11.685-3-16.929,0    L8.666,135.478c-8.187,4.676-11.03,15.096-6.354,23.278c4.688,8.187,15.141,11.025,23.283,6.348l42.829-24.408    c0,91.25,0,161.029,0,265.896c-16.047,5.657-29.6,2.771-43.699-4.258c-8.421-4.209-18.674-0.771-22.884,7.661    c-4.198,8.431-0.767,18.673,7.664,22.877c33.165,16.53,58.456,12.511,87.1-1.811c20.076-10.037,36.303-4.717,52.987,3.599    c29.196,14.611,55.894,10.21,83.513-3.599c14.33-7.165,31.437-7.165,45.789,0.011c42.252,21.061,66.335,12.177,90.711-0.011    c14.33-7.165,31.437-7.165,45.789,0.011c35.862,17.876,60.178,15.255,87.1,1.794c8.431-4.216,11.841-14.463,7.632-22.894    C505.917,401.546,495.686,398.142,487.232,402.34z M221.873,96.688h68.25c28.226,0,51.301,22.962,51.301,51.187    s-23.075,51.187-51.301,51.187h-68.25c-28.226,0-51.187-22.962-51.187-51.187S193.646,96.688,221.873,96.688z M341.424,267.313    v45.5h-34.239v-45.5H341.424z M273.174,267.313v45.5h-34.239v-45.5H273.174z M170.686,267.313h34.239v45.5h-34.239V267.313z     M102.436,267.313h34.239v45.5h-34.239V267.313z M409.674,393.403c-18.524-3.751-38.178-1.438-55.319,7.132    c-20.233,10.101-32.002,14.086-60.208,0.006c-23.916-11.947-52.443-11.93-76.292-0.006c-16.634,8.304-32.59,13.816-53.01,3.599    c-11.375-5.68-31.858-16.919-62.41-10.736v-46.461c56.486,0,65.218,0,307.238,0V393.403z M409.674,312.813h-34.239v-45.5h34.239    V312.813z"/>
	</g>
</g>
<g>
	<g>
		<path d="M290.123,130.813h-68.25c-9.423,0-17.063,7.639-17.063,17.062s7.638,17.062,17.062,17.062h68.25    c9.423,0,17.062-7.639,17.062-17.062S299.546,130.813,290.123,130.813z"/>
	</g>
</g>
<g>
</g>
<g>
</g>
<g>
</g>
<g>
</g>
<g>
</g>
<g>
</g>
<g>
</g>
<g>
</g>
<g>
</g>
<g>
</g>
<g>
</g>
<g>
</g>
<g>
</g>
<g>
</g>
<g>
</g>
</svg>
