<?xml version="1.0" encoding="iso-8859-1"?>
<!-- Generator: Adobe Illustrator 19.0.0, SVG Export Plug-In . SVG Version: 6.00 Build 0)  -->
<svg xmlns="http://www.w3.org/2000/svg" xmlns:xlink="http://www.w3.org/1999/xlink" version="1.1" id="Layer_1" x="0px" y="0px" viewBox="0 0 512 512" style="enable-background:new 0 0 512 512;" xml:space="preserve">
<g>
	<g>
		<path d="M256,0c-84.694,0-153.6,68.906-153.6,153.6c0,28.233,22.967,51.2,51.2,51.2h34.133h136.533H358.4    c28.233,0,51.2-22.967,51.2-51.2C409.6,68.906,340.694,0,256,0z M307.2,170.667H204.8V153.6c0-28.233,22.967-51.2,51.2-51.2    c28.233,0,51.2,22.967,51.2,51.2V170.667z"/>
	</g>
</g>
<g>
	<g>
		<path d="M392.533,238.933H273.067V256c0,9.428-7.639,17.067-17.067,17.067c-9.428,0-17.067-7.639-17.067-17.067v-17.067H119.467    c-9.425,0-17.067,7.641-17.067,17.067v34.133c0,9.425,7.641,17.067,17.067,17.067h273.067c9.425,0,17.067-7.641,17.067-17.067V256    C409.6,246.575,401.959,238.933,392.533,238.933z"/>
	</g>
</g>
<g>
	<g>
		<path d="M392.533,443.733H119.467c-9.425,0-17.067,7.641-17.067,17.067v34.133c0,9.425,7.641,17.067,17.067,17.067h273.067    c9.425,0,17.067-7.641,17.067-17.067V460.8C409.6,451.375,401.959,443.733,392.533,443.733z"/>
	</g>
</g>
<g>
	<g>
		<path d="M392.533,341.333H119.467c-9.425,0-17.067,7.641-17.067,17.067v34.133c0,9.425,7.641,17.067,17.067,17.067h273.067    c9.425,0,17.067-7.641,17.067-17.067V358.4C409.6,348.975,401.959,341.333,392.533,341.333z"/>
	</g>
</g>
<g>
</g>
<g>
</g>
<g>
</g>
<g>
</g>
<g>
</g>
<g>
</g>
<g>
</g>
<g>
</g>
<g>
</g>
<g>
</g>
<g>
</g>
<g>
</g>
<g>
</g>
<g>
</g>
<g>
</g>
</svg>
