<?xml version="1.0" encoding="iso-8859-1"?>
<!-- Generator: Adobe Illustrator 19.0.0, SVG Export Plug-In . SVG Version: 6.00 Build 0)  -->
<svg xmlns="http://www.w3.org/2000/svg" xmlns:xlink="http://www.w3.org/1999/xlink" version="1.1" id="Layer_1" x="0px" y="0px" viewBox="0 0 512.001 512.001" style="enable-background:new 0 0 512.001 512.001;" xml:space="preserve">
<g>
	<g>
		<path d="M218.081,133.205C117.771,103.482,91.502,175.37,63.72,251.464c-12.368,33.872-26.388,72.258-48.11,106.908    c-21.788,34.737-20.493,75.837,3.458,109.943c22.082,31.447,58.951,49.323,92.317,42.084    c63.143-13.7,61.316-67.412,59.988-106.631c-0.805-23.735-1.566-46.153,8.941-57.9c4.634-5.199,23.354-12.438,96.613-2.524    c69.072,9.333,84.506-26.922,87.932-42.944C376.151,247.689,313.194,161.355,218.081,133.205z"/>
	</g>
</g>
<g>
	<g>
		<path d="M502.33,167.135c-9.903-11.81-25.444-16.278-42.157-14.163c4.25-15.475,2.092-31.135-7.782-42.91v-0.006    c-10.458-12.449-26.687-17.184-43.696-14.795c1.163-12.774-2.145-25.066-9.93-34.349c-10.842-12.93-29.623-19.911-51.679-13.958    c-1.692-7.044-4.835-13.629-9.582-19.29c-8.843-10.546-21.613-16.577-35.949-16.985c-12.4-0.461-24.364,3.689-34.558,11.162    c-17.659-25.699-51.717-28.252-73.291-10.129c-21.27,17.853-23.97,49.449-6.179,70.621c15.633,18.63,42.61,23.478,63.911,10.846    c0.951,1.434,1.737,2.945,2.866,4.291c9.512,11.33,23.119,17.007,37.483,17.007c2.62,0,5.214-0.33,7.798-0.707    c1.184,8.125,4.171,15.85,9.596,22.315c8.513,10.148,21.567,16.459,38.197,15.959c-2.71,14.022,0.066,27.891,9.011,38.558    c8.392,9.99,21.019,16.109,37.96,15.379c-7.194,19.601-3.7,35.993,5.593,47.069c18.168,21.663,55.023,19.275,83.408-4.558    C512.065,224.41,520.398,188.672,502.33,167.135z"/>
	</g>
</g>
<g>
</g>
<g>
</g>
<g>
</g>
<g>
</g>
<g>
</g>
<g>
</g>
<g>
</g>
<g>
</g>
<g>
</g>
<g>
</g>
<g>
</g>
<g>
</g>
<g>
</g>
<g>
</g>
<g>
</g>
</svg>
