<?xml version="1.0" encoding="iso-8859-1"?>
<!-- Generator: Adobe Illustrator 19.0.0, SVG Export Plug-In . SVG Version: 6.00 Build 0)  -->
<svg xmlns="http://www.w3.org/2000/svg" xmlns:xlink="http://www.w3.org/1999/xlink" version="1.1" id="Layer_1" x="0px" y="0px" viewBox="0 0 512 512" style="enable-background:new 0 0 512 512;" xml:space="preserve">
<g>
	<g>
		<path d="M89.044,345.043H38.957v-83.478c0-9.223-7.479-16.696-16.696-16.696s-16.696,7.473-16.696,16.696    c0,78.402,0,143.14,0,233.739c0,9.223,7.479,16.696,16.696,16.696s16.696-7.473,16.696-16.696v-50.087h66.783v50.087    c0,9.223,7.479,16.696,16.696,16.696c9.217,0,16.696-7.473,16.696-16.696V395.13C139.13,367.511,116.663,345.043,89.044,345.043z"/>
	</g>
</g>
<g>
	<g>
		<path d="M489.739,244.87c-9.217,0-16.696,7.473-16.696,16.696v83.478h-50.087c-27.619,0-50.087,22.468-50.087,50.087v100.174    c0,9.223,7.479,16.696,16.696,16.696c9.217,0,16.696-7.473,16.696-16.696v-50.087h66.783v50.087    c0,9.223,7.479,16.696,16.696,16.696s16.696-7.473,16.696-16.696c0-89.998,0-155.698,0-233.739    C506.435,252.343,498.956,244.87,489.739,244.87z"/>
	</g>
</g>
<g>
	<g>
		<path d="M356.174,311.652c-28.642,0-37.021,0-39.13,0c-0.44,0-0.614,0-0.634,0c-1.096,0-3.881,0-10.323,0v-27.826    c0-9.223-7.479-16.696-16.696-16.696s-16.696,7.473-16.696,16.696v27.826h-33.391v-27.826c0-9.223-7.479-16.696-16.696-16.696    s-16.696,7.473-16.696,16.696v27.826c-6.458,0-9.24,0-10.33,0c-0.49,0-0.642,0-0.626,0c-2.094,0-10.45,0-39.132,0    c-9.217,0-16.696,7.473-16.696,16.696c0,9.223,7.479,16.696,16.696,16.696h16.696v16.696c0,27.619,22.468,50.087,50.087,50.087    h16.696v66.783h-16.696c-9.217,0-16.696,7.473-16.696,16.696c0,9.223,7.479,16.696,16.696,16.696h66.783    c9.217,0,16.696-7.473,16.696-16.696c0-9.223-7.479-16.696-16.696-16.696h-16.696v-66.783h16.696    c27.619,0,50.087-22.468,50.087-50.087v-16.696h16.696c9.217,0,16.696-7.473,16.696-16.696    C372.87,319.125,365.391,311.652,356.174,311.652z"/>
	</g>
</g>
<g>
	<g>
		<path d="M5.565,100.174v50.087c0,27.619,22.468,50.087,50.087,50.087c12.816,0,24.521-4.837,33.391-12.782    c8.87,7.945,20.576,12.782,33.391,12.782c12.816,0,24.521-4.837,33.391-12.782c8.87,7.946,20.576,12.782,33.391,12.782    c12.816,0,24.521-4.837,33.391-12.782c8.87,7.946,20.576,12.782,33.391,12.782s24.521-4.837,33.391-12.782    c8.87,7.946,20.576,12.782,33.391,12.782c12.816,0,24.521-4.837,33.391-12.782c8.87,7.946,20.576,12.782,33.391,12.782    c12.816,0,24.521-4.837,33.391-12.782c8.87,7.946,20.576,12.782,33.391,12.782c27.619,0,50.087-22.468,50.087-50.087v-50.087    H5.565z"/>
	</g>
</g>
<g>
	<g>
		<path d="M422.957,0H89.044C48.728,0,15.004,28.724,7.248,66.783h497.504C496.996,28.724,463.272,0,422.957,0z"/>
	</g>
</g>
<g>
</g>
<g>
</g>
<g>
</g>
<g>
</g>
<g>
</g>
<g>
</g>
<g>
</g>
<g>
</g>
<g>
</g>
<g>
</g>
<g>
</g>
<g>
</g>
<g>
</g>
<g>
</g>
<g>
</g>
</svg>
