<?xml version="1.0" encoding="iso-8859-1"?>
<!-- Generator: Adobe Illustrator 19.0.0, SVG Export Plug-In . SVG Version: 6.00 Build 0)  -->
<svg xmlns="http://www.w3.org/2000/svg" xmlns:xlink="http://www.w3.org/1999/xlink" version="1.1" id="Layer_1" x="0px" y="0px" viewBox="0 0 511.999 511.999" style="enable-background:new 0 0 511.999 511.999;" xml:space="preserve">
<g>
	<g>
		<path d="M507.099,436.063l-47.294-47.299c-9.472-9.477-22.079-14.698-35.47-14.698c-7.594,0-14.852,1.845-21.509,5.022    l-28.956-28.957c38.043-42.085,68.685-96.407,91.629-150.94l-64.577-64.577l-51.5,51.499c-3.122-4.571-6.689-8.919-10.704-12.932    c-4.012-4.013-8.361-7.581-12.931-10.702l51.499-51.5l-64.566-64.565c-54.509,22.942-108.814,53.583-150.94,91.621l-28.995-28.996    c8.832-18.629,5.746-41.546-9.643-56.943L75.839,4.797c-6.271-6.271-17.376-6.271-23.647,0L4.899,52.096    c-6.532,6.532-6.532,17.115,0,23.647l47.294,47.299c14.326,14.335,36.585,19.407,56.98,9.676l28.956,28.957    c-38.043,42.085-68.685,96.407-91.629,150.94l64.577,64.577l51.5-51.499c3.122,4.571,6.689,8.919,10.704,12.932    c4.012,4.013,8.361,7.581,12.931,10.703l-51.499,51.499l64.566,64.566c54.509-22.942,108.814-53.583,150.94-91.621l28.995,28.996    c-8.832,18.628-5.747,41.545,9.632,56.937c0.011,0.006,0.011,0.006,0.011,0.006l47.305,47.299c6.529,6.529,17.118,6.529,23.647,0    l47.294-47.299C513.632,453.178,513.632,442.595,507.099,436.063z M267.816,314.989c-19.625,19.621-51.254,19.649-70.905,0    c-19.621-19.51-19.621-51.394,0-70.904l11.813-11.812l70.903,70.905L267.816,314.989z M315.086,267.72l-11.813,11.812    l-70.903-70.905l11.81-11.811c19.621-19.62,51.254-19.65,70.905,0C334.707,216.327,334.707,248.21,315.086,267.72z"/>
	</g>
</g>
<g>
	<g>
		<path d="M33.189,346.598C19.79,383.265,9.847,418.811,3.599,449.328c-3.343,16.5,1.784,33.445,13.602,45.374    c11.951,11.814,28.677,16.94,45.373,13.601c30.522-6.249,66.062-16.194,102.722-29.597L33.189,346.598z"/>
	</g>
</g>
<g>
	<g>
		<path d="M494.797,17.103C482.869,5.286,465.812,0.158,449.424,3.502c-30.522,6.249-66.062,16.194-102.721,29.597l132.107,132.108    c13.398-36.668,23.343-72.213,29.59-102.729C511.743,45.978,506.616,29.032,494.797,17.103z"/>
	</g>
</g>
<g>
</g>
<g>
</g>
<g>
</g>
<g>
</g>
<g>
</g>
<g>
</g>
<g>
</g>
<g>
</g>
<g>
</g>
<g>
</g>
<g>
</g>
<g>
</g>
<g>
</g>
<g>
</g>
<g>
</g>
</svg>
