<?xml version="1.0" encoding="iso-8859-1"?>
<!-- Generator: Adobe Illustrator 19.0.0, SVG Export Plug-In . SVG Version: 6.00 Build 0)  -->
<svg xmlns="http://www.w3.org/2000/svg" xmlns:xlink="http://www.w3.org/1999/xlink" version="1.1" id="Layer_1" x="0px" y="0px" viewBox="0 0 512 512" style="enable-background:new 0 0 512 512;" xml:space="preserve">
<g>
	<g>
		<path d="M422.975,33.367h-0.026c-3.69-4.913-7.929-9.46-12.704-13.522c-18.674-15.886-43.393-22.707-67.96-18.74    c-39.665,6.463-69.58,43.404-69.58,85.934v91.031c-73.499,0-140.979,0-217.054,0c-9.218,0-16.696,7.473-16.696,16.696v33.393    c0,95.635,73.504,174.341,166.965,182.815v67.632h-16.697c-9.218,0-16.696,7.473-16.696,16.696S180.005,512,189.223,512    c80.115,0,86.374,0,166.965,0c9.218,0,16.697-7.473,16.697-16.696s-7.479-16.696-16.697-16.696h-50.089v-67.77    c75.025-8.34,133.572-72.075,133.572-149.284V133.546h50.089c9.218,0,16.697-7.473,16.697-16.696    C506.457,70.815,469.009,33.367,422.975,33.367z M272.706,478.607h-33.393v-66.786h33.393V478.607z M289.403,311.642h-66.786    c-27.231,0-51.381-13.161-66.628-33.393H256.01c9.218,0,16.696-7.473,16.696-16.697c0-9.223-7.479-16.696-16.696-16.696H140.817    c-1.1-5.396-1.683-10.98-1.683-16.696v-16.696h150.268c27.62,0,50.089,22.469,50.089,50.089    C339.492,289.173,317.023,311.642,289.403,311.642z M356.025,100.485c-9.218,0-16.87-7.636-16.87-16.859    s7.653-16.865,16.87-16.865s16.859,7.641,16.859,16.865C372.885,92.849,365.244,100.485,356.025,100.485z M439.671,100.153V83.457    c0-4.834-0.533-9.587-1.346-14.272c14.842,4.791,26.683,16.314,31.88,30.969H439.671z"/>
	</g>
</g>
<g>
	<g>
		<path d="M37.9,341.566L8.366,385.863c-7.386,11.093,0.591,25.957,13.893,25.957h85.214    C79.224,394.046,55.418,369.993,37.9,341.566z"/>
	</g>
</g>
<g>
</g>
<g>
</g>
<g>
</g>
<g>
</g>
<g>
</g>
<g>
</g>
<g>
</g>
<g>
</g>
<g>
</g>
<g>
</g>
<g>
</g>
<g>
</g>
<g>
</g>
<g>
</g>
<g>
</g>
</svg>
