<?xml version="1.0" encoding="iso-8859-1"?>
<!-- Generator: Adobe Illustrator 19.0.0, SVG Export Plug-In . SVG Version: 6.00 Build 0)  -->
<svg xmlns="http://www.w3.org/2000/svg" xmlns:xlink="http://www.w3.org/1999/xlink" version="1.1" id="Layer_1" x="0px" y="0px" viewBox="0 0 512 512" style="enable-background:new 0 0 512 512;" xml:space="preserve">
<g>
	<g>
		<path d="M306.087,77.913V50.087C306.087,22.468,283.619,0,256,0s-50.087,22.468-50.087,50.087v27.826    c-18.442,0-33.391,14.949-33.391,33.391v33.391h166.957v-33.391C339.478,92.862,324.529,77.913,306.087,77.913z"/>
	</g>
</g>
<g>
	<g>
		<path d="M256,278.261c-9.206,0-16.696,7.49-16.696,16.696c0,9.206,7.49,16.696,16.696,16.696s16.696-7.49,16.696-16.696    C272.696,285.751,265.206,278.261,256,278.261z"/>
	</g>
</g>
<g>
	<g>
		<path d="M105.739,445.217v16.696c0,27.619,22.468,50.087,50.087,50.087h200.348c27.619,0,50.087-22.468,50.087-50.087v-16.696    H105.739z"/>
	</g>
</g>
<g>
	<g>
		<path d="M356.174,178.087H155.826c-27.662,0-50.087,22.424-50.087,50.087v183.652h300.522V228.174    C406.261,200.511,383.836,178.087,356.174,178.087z M322.783,311.652H303.01c-0.58,1.627-1.2,3.213-1.939,4.758l13.961,13.964    c6.521,6.521,6.521,17.092,0,23.609c-6.521,6.521-17.087,6.521-23.609,0l-13.96-13.962c-1.549,0.741-3.138,1.362-4.769,1.944    v19.773c0,9.223-7.479,16.696-16.696,16.696c-9.217,0-16.696-7.473-16.696-16.696v-19.772c-1.628-0.581-3.216-1.202-4.763-1.941    l-13.955,13.959c-6.521,6.521-17.087,6.521-23.609,0c-6.521-6.516-6.521-17.087,0-23.609l13.954-13.958    c-0.74-1.547-1.361-3.135-1.943-4.765h-19.77c-9.217,0-16.696-7.473-16.696-16.696s7.479-16.696,16.696-16.696h19.772    c0.581-1.629,1.202-3.218,1.943-4.765l-13.954-13.958c-6.521-6.521-6.521-17.092,0-23.609c6.521-6.521,17.087-6.521,23.609,0    l13.955,13.959c1.547-0.74,3.134-1.361,4.763-1.941v-19.774c0-9.223,7.479-16.696,16.696-16.696    c9.217,0,16.696,7.473,16.696,16.696v19.772c1.631,0.582,3.22,1.204,4.769,1.944l13.96-13.962c6.521-6.521,17.087-6.521,23.609,0    c6.521,6.516,6.521,17.087,0,23.609l-13.961,13.964c0.739,1.545,1.359,3.131,1.939,4.758h19.77    c9.217,0,16.696,7.473,16.696,16.696C339.478,304.178,332,311.652,322.783,311.652z"/>
	</g>
</g>
<g>
</g>
<g>
</g>
<g>
</g>
<g>
</g>
<g>
</g>
<g>
</g>
<g>
</g>
<g>
</g>
<g>
</g>
<g>
</g>
<g>
</g>
<g>
</g>
<g>
</g>
<g>
</g>
<g>
</g>
</svg>
