<?xml version="1.0" encoding="iso-8859-1"?>
<!-- Generator: Adobe Illustrator 19.0.0, SVG Export Plug-In . SVG Version: 6.00 Build 0)  -->
<svg xmlns="http://www.w3.org/2000/svg" xmlns:xlink="http://www.w3.org/1999/xlink" version="1.1" id="Layer_1" x="0px" y="0px" viewBox="0 0 512 512" style="enable-background:new 0 0 512 512;" xml:space="preserve">
<g>
	<g>
		<path d="M406.348,83.527C406.348,35.861,384.854,0,356.232,0h-33.411h-0.003c-4.855,0.001-8.08,1.853-11.136,4.484    C300.544,14.069,281.785,33.411,256,33.411c-28.845,0-54.125-27.62-54.348-27.842C197.704,1.62,193.448,0,189.513,0h-33.745    c-28.622,0-50.116,35.861-50.116,83.527c0,18.376,3.23,35.638,9.355,49.893c7.703,18.093,10.638,58.774,7.327,85.086    c31.176,6.958,71.965,13.695,116.961,15.087V131.973c5.346,1.114,11.026,1.671,16.705,1.671c5.68,0,11.471-0.557,16.817-1.671    v101.622c44.975-1.392,85.634-8.123,116.805-15.078c-3.278-26.191-0.343-66.974,7.372-85.096    C403.119,119.165,406.348,101.903,406.348,83.527z M256,100.232c-26.856,0-49.288-21.527-50.005-48.78    c15.206,9.195,32.47,15.369,50.005,15.369c17.536,0,34.801-6.175,50.005-15.369C305.286,78.73,282.831,100.232,256,100.232z"/>
	</g>
</g>
<g>
	<g>
		<path d="M472.168,456.614l-73.249-205.819c-36.961,8.365-87.173,16.492-142.919,16.492c-55.759,0-105.983-8.13-142.947-16.497    L39.832,456.614c-3.118,8.575,1.336,18.042,9.912,21.272c2.318,0.817,37.021,13.514,89.318,23.251v-72.364    c0-9.228,7.477-16.705,16.705-16.705s16.817,7.477,16.817,16.705v77.716c20.673,2.797,43.021,4.833,66.71,5.513v-83.228    c0-9.228,7.477-16.705,16.705-16.705s16.817,7.477,16.817,16.705V512c23.689-0.679,46.037-2.716,66.71-5.513v-77.716    c0-9.228,7.477-16.705,16.705-16.705c9.228,0,16.817,7.477,16.817,16.705v72.364c52.298-9.737,86.889-22.433,89.207-23.251    C470.831,474.656,475.286,465.189,472.168,456.614z"/>
	</g>
</g>
<g>
</g>
<g>
</g>
<g>
</g>
<g>
</g>
<g>
</g>
<g>
</g>
<g>
</g>
<g>
</g>
<g>
</g>
<g>
</g>
<g>
</g>
<g>
</g>
<g>
</g>
<g>
</g>
<g>
</g>
</svg>
