<?xml version="1.0" encoding="iso-8859-1"?>
<!-- Generator: Adobe Illustrator 19.0.0, SVG Export Plug-In . SVG Version: 6.00 Build 0)  -->
<svg xmlns="http://www.w3.org/2000/svg" xmlns:xlink="http://www.w3.org/1999/xlink" version="1.1" id="Layer_1" x="0px" y="0px" viewBox="0 0 512 512" style="enable-background:new 0 0 512 512;" xml:space="preserve">
<g>
	<g>
		<path d="M428.522,256c-5.78,0-11.423,0.593-16.875,1.717l-48.006-112.011c-4.735-11.049,3.345-23.272,15.348-23.272h49.533    c9.206,0,16.696,7.49,16.696,16.696s-7.49,16.696-16.696,16.696c-9.223,0-16.696,7.473-16.696,16.696s7.473,16.696,16.696,16.696    c28.324,0,50.087-23.629,50.087-50.087c0-27.619-22.468-50.087-50.087-50.087h-49.533c-35.88,0-60.21,36.73-46.043,69.816    l13.01,30.358H198.525l-19.319-33.391h37.838c9.223,0,16.696-7.473,16.696-16.696s-7.473-16.696-16.696-16.696H100.87    c-9.223,0-16.696,7.473-16.696,16.696c0,9.223,7.473,16.696,16.696,16.696h39.763l26.003,44.947l-47.503,63.337    c-10.83-5.145-22.889-8.11-35.655-8.11C37.446,256,0,293.446,0,339.478c0,46.032,37.446,83.478,83.478,83.478    c40.316,0,74.04-28.724,81.795-66.783h49.281c6.914,19.391,25.273,33.391,47.011,33.391c27.619,0,50.087-22.468,50.087-50.087    c0-11.384-3.965-21.77-10.387-30.191l62.358-78.845l17.359,40.505c-21.689,15.091-35.939,40.162-35.939,68.531    c0,46.032,37.446,83.478,83.478,83.478c46.032,0,83.478-37.446,83.478-83.478C512,293.446,474.554,256,428.522,256z     M83.478,389.565c-27.619,0-50.087-22.468-50.087-50.087c0-27.619,22.468-50.087,50.087-50.087c5.195,0,10.109,1.02,14.823,2.494    l-28.182,37.576c-5.533,7.375-4.033,17.842,3.342,23.375c7.358,5.518,17.832,4.045,23.375-3.342l28.305-37.74    c5.305,7.946,8.424,17.473,8.424,27.724C133.565,367.097,111.097,389.565,83.478,389.565z M214.555,322.783h-49.281    c-2.984-14.642-9.873-27.843-19.44-38.617l38.98-51.975l41.512,71.753C221.047,309.179,217.1,315.644,214.555,322.783z     M273.234,290.904c-3.762-0.905-7.634-1.513-11.669-1.513c-1.645,0-3.2,0.331-4.805,0.485l-38.918-67.268h109.407L273.234,290.904    z M428.522,389.565c-27.619,0-50.087-22.468-50.087-50.087c0-14.519,6.308-27.502,16.21-36.658l18.529,43.234    c3.661,8.529,13.498,12.386,21.924,8.772c8.478-3.636,12.403-13.451,8.772-21.924l-18.511-43.19    c1.066-0.068,2.08-0.319,3.163-0.319c27.619,0,50.087,22.468,50.087,50.087C478.609,367.098,456.141,389.565,428.522,389.565z"/>
	</g>
</g>
<g>
</g>
<g>
</g>
<g>
</g>
<g>
</g>
<g>
</g>
<g>
</g>
<g>
</g>
<g>
</g>
<g>
</g>
<g>
</g>
<g>
</g>
<g>
</g>
<g>
</g>
<g>
</g>
<g>
</g>
</svg>
