<?xml version="1.0" encoding="iso-8859-1"?>
<!-- Generator: Adobe Illustrator 19.0.0, SVG Export Plug-In . SVG Version: 6.00 Build 0)  -->
<svg xmlns="http://www.w3.org/2000/svg" xmlns:xlink="http://www.w3.org/1999/xlink" version="1.1" id="Layer_1" x="0px" y="0px" viewBox="0 0 512.001 512.001" style="enable-background:new 0 0 512.001 512.001;" xml:space="preserve">
<g>
	<g>
		<path d="M255.999,4.003c-9.428,0-17.067,7.639-17.067,17.067v68.266c0,9.429,7.639,17.067,17.067,17.067    c9.428,0,17.067-7.639,17.067-17.067V21.07C273.066,11.642,265.427,4.003,255.999,4.003z"/>
	</g>
</g>
<g>
	<g>
		<path d="M88.588,184.092L22.65,166.42c-9.078-2.472-18.456,2.962-20.9,12.066c-2.439,9.106,2.961,18.461,12.066,20.9    l65.938,17.672c9.031,2.444,18.446-2.91,20.9-12.066C103.094,195.886,97.693,186.531,88.588,184.092z"/>
	</g>
</g>
<g>
	<g>
		<path d="M510.264,178.487c-2.444-9.111-11.778-14.528-20.911-12.066l-65.938,17.672c-9.106,2.438-14.505,11.794-12.066,20.9    c2.454,9.156,11.869,14.511,20.9,12.066l65.95-17.672C507.298,196.947,512.698,187.592,510.264,178.487z"/>
	</g>
</g>
<g>
	<g>
		<path d="M155.671,101.409l-48.272-48.272c-6.666-6.666-17.467-6.666-24.133,0c-6.666,6.661-6.666,17.472,0,24.133l48.272,48.272    c6.666,6.666,17.467,6.666,24.133,0C162.338,118.882,162.338,108.071,155.671,101.409z"/>
	</g>
</g>
<g>
	<g>
		<path d="M428.737,53.137c-6.666-6.666-17.467-6.666-24.133,0l-48.272,48.272c-6.666,6.661-6.666,17.472,0,24.133    c6.666,6.666,17.467,6.666,24.133,0l48.272-48.272C435.403,70.61,435.403,59.799,428.737,53.137z"/>
	</g>
</g>
<g>
	<g>
		<path d="M510.188,337.686c-4.234-8.427-14.488-11.823-22.911-7.606c-16.46,8.256-32.602,10.166-49.367,1.8    c-27.561-13.802-54.272-18.228-83.544-3.606c-16.712,8.356-32.942,13.61-52.988,3.606c-27.593-13.818-51.284-19.736-90.744-0.006    c-14.328,7.167-31.45,7.161-45.789,0.006c-27.561-13.802-54.272-18.228-83.544-3.606c-11.519,5.759-28.109,16.084-56.578,1.806    c-8.416-4.222-18.678-0.823-22.906,7.606c-4.228,8.422-0.823,18.678,7.606,22.906c35.18,17.643,60.745,11.413,87.15-1.789    c20.099-10.053,36.009-4.899,53.005,3.606c23.9,11.95,52.427,11.944,76.327-0.006c30.152-15.077,42.447-8.88,60.205,0.006    c28.99,14.488,55.629,10.344,83.527-3.606c20.099-10.053,36.009-4.899,53.005,3.606c23.45,11.725,50.871,12.765,79.945-1.817    C511.009,356.364,514.41,346.109,510.188,337.686z"/>
	</g>
</g>
<g>
	<g>
		<path d="M510.188,405.952c-4.234-8.427-14.488-11.823-22.911-7.606c-16.46,8.256-32.602,10.166-49.367,1.8    c-27.561-13.802-54.272-18.228-83.544-3.606c-16.712,8.356-32.942,13.61-52.988,3.606c-27.593-13.818-51.284-19.736-90.744-0.006    c-14.328,7.167-31.45,7.161-45.789,0.006c-27.561-13.802-54.272-18.228-83.544-3.606c-11.519,5.759-28.109,16.084-56.578,1.806    c-8.416-4.222-18.678-0.823-22.906,7.606c-4.228,8.422-0.823,18.678,7.606,22.906c35.18,17.643,60.745,11.413,87.15-1.789    c20.099-10.053,36.009-4.899,53.005,3.606c23.9,11.95,52.427,11.944,76.327-0.006c30.152-15.077,42.447-8.88,60.205,0.006    c28.99,14.488,55.629,10.344,83.527-3.606c20.099-10.053,36.009-4.899,53.005,3.606c23.45,11.725,50.871,12.765,79.945-1.817    C511.009,424.63,514.41,414.375,510.188,405.952z"/>
	</g>
</g>
<g>
	<g>
		<path d="M510.188,474.219c-4.234-8.427-14.488-11.823-22.911-7.606c-16.46,8.256-32.602,10.166-49.367,1.8    c-27.561-13.802-54.272-18.228-83.544-3.606c-16.712,8.356-32.942,13.61-52.988,3.606c-27.593-13.818-51.284-19.736-90.744-0.006    c-14.328,7.167-31.45,7.161-45.789,0.006c-27.561-13.802-54.272-18.228-83.544-3.606c-11.519,5.759-28.109,16.084-56.578,1.806    c-8.416-4.222-18.678-0.823-22.906,7.606c-4.228,8.422-0.823,18.678,7.606,22.906c35.18,17.643,60.745,11.413,87.15-1.789    c20.099-10.053,36.009-4.899,53.005,3.606c23.9,11.95,52.427,11.944,76.327-0.006c30.152-15.077,42.447-8.88,60.205,0.006    c28.99,14.488,55.629,10.343,83.527-3.606c20.099-10.053,36.009-4.899,53.005,3.606c23.45,11.725,50.871,12.765,79.945-1.817    C511.009,492.896,514.41,482.642,510.188,474.219z"/>
	</g>
</g>
<g>
	<g>
		<path d="M256.004,140.536c-82.027,0-149.047,64.685-153.199,145.698c27.44-3.832,52.557,2.725,77.323,15.123    c4.534,2.266,10.38,2.415,15.234-0.011c47.724-23.856,82.461-19.434,121.299,0.011c7.705,3.852,14.397,0.41,22.439-3.611    c24.048-12.016,46.982-14.744,70.128-11.049C405.308,205.469,338.187,140.536,256.004,140.536z"/>
	</g>
</g>
<g>
</g>
<g>
</g>
<g>
</g>
<g>
</g>
<g>
</g>
<g>
</g>
<g>
</g>
<g>
</g>
<g>
</g>
<g>
</g>
<g>
</g>
<g>
</g>
<g>
</g>
<g>
</g>
<g>
</g>
</svg>
