<?xml version="1.0" encoding="iso-8859-1"?>
<!-- Generator: Adobe Illustrator 19.0.0, SVG Export Plug-In . SVG Version: 6.00 Build 0)  -->
<svg xmlns="http://www.w3.org/2000/svg" xmlns:xlink="http://www.w3.org/1999/xlink" version="1.1" id="Layer_1" x="0px" y="0px" viewBox="0 0 512 512" style="enable-background:new 0 0 512 512;" xml:space="preserve">
<g>
	<g>
		<path d="M344.433,35.667L276.395,4.459c-12.963-5.945-27.832-5.944-40.794,0l-68.034,31.207    c-19.902,9.129-31.379,30.604-27.908,52.224l18.573,115.686c3.83,23.855,24.144,41.169,48.306,41.169h98.928    c24.16,0,44.475-17.314,48.306-41.168l18.572-115.686C375.813,66.27,364.335,44.795,344.433,35.667z M273.844,191.482h-35.687    c-8.656,0-15.674-7.018-15.674-15.673c0-8.656,7.018-15.673,15.674-15.673h35.687c8.656,0,15.673,7.018,15.673,15.673    C289.517,184.465,282.5,191.482,273.844,191.482z M305.452,126.459c0,8.656-7.018,15.673-15.673,15.673h-67.557    c-8.656,0-15.674-7.018-15.674-15.673V84.667c0-8.656,7.018-15.673,15.674-15.673h67.557c8.656,0,15.673,7.018,15.673,15.673    V126.459z"/>
	</g>
</g>
<g>
	<g>
		<path d="M271.487,310.786h35.963v-34.739c-2.849,0.068-99.958,0.07-102.899,0v166.298c0,3.079,0.907,6.091,2.608,8.658    l35.773,53.984c6.206,9.364,19.942,9.338,26.13,0.001l35.779-53.984c1.702-2.567,2.609-5.579,2.609-8.659v-45.988h-35.963    c-8.656,0-15.673-7.018-15.673-15.673s7.018-15.673,15.673-15.673h35.963v-22.877h-35.963c-8.656,0-15.673-7.018-15.673-15.673    S262.831,310.786,271.487,310.786z"/>
	</g>
</g>
<g>
</g>
<g>
</g>
<g>
</g>
<g>
</g>
<g>
</g>
<g>
</g>
<g>
</g>
<g>
</g>
<g>
</g>
<g>
</g>
<g>
</g>
<g>
</g>
<g>
</g>
<g>
</g>
<g>
</g>
</svg>
