<?xml version="1.0" encoding="iso-8859-1"?>
<!-- Generator: Adobe Illustrator 19.0.0, SVG Export Plug-In . SVG Version: 6.00 Build 0)  -->
<svg xmlns="http://www.w3.org/2000/svg" xmlns:xlink="http://www.w3.org/1999/xlink" version="1.1" id="Layer_1" x="0px" y="0px" viewBox="0 0 511.999 511.999" style="enable-background:new 0 0 511.999 511.999;" xml:space="preserve">
<g>
	<g>
		<path d="M298.059,173.721h-48.891l-41.726-41.725c-6.12-6.121-16.043-6.121-22.163,0c-6.12,6.12-6.12,16.043,0,22.163    l19.563,19.563h-20.246l-36.322-36.322c-17.05-17.05-46.27-11.569-55.647,11.069c-5.083,12.27-3.05,26.734,8.154,37.938    c-0.39,2.017-0.292,1.011-0.292,23.583H313.73v-20.598C313.73,180.738,306.714,173.721,298.059,173.721z"/>
	</g>
</g>
<g>
	<g>
		<path d="M496.328,241.333H15.727c-8.655,0-15.671,7.016-15.671,15.671v62.602c0,7.22,4.934,13.507,11.948,15.223l12.178,2.979    L5.016,355.752c-9.731,9.11-4.85,28.841,10.71,28.841h480.601c8.655,0,15.671-7.016,15.671-15.671V257.006    C512,248.351,504.983,241.333,496.328,241.333z"/>
	</g>
</g>
<g>
	<g>
		<path d="M431.712,186.553c-4.086-39.31-52.729-55.109-72.721-30.478c-9.143,11.266-10.236,29.106,1.729,38.817    c13.567,11.01,32.859,3.741,31.212-12.081c-0.238-2.289-0.958-4.413-2.048-6.278c5.514,1.831,9.979,6.782,10.653,13.262    c0.721,6.935-0.087,13.795-2.298,20.195h32.409C432.157,202.374,432.539,194.494,431.712,186.553z"/>
	</g>
</g>
<g>
</g>
<g>
</g>
<g>
</g>
<g>
</g>
<g>
</g>
<g>
</g>
<g>
</g>
<g>
</g>
<g>
</g>
<g>
</g>
<g>
</g>
<g>
</g>
<g>
</g>
<g>
</g>
<g>
</g>
</svg>
