<?xml version="1.0" encoding="iso-8859-1"?>
<!-- Generator: Adobe Illustrator 19.0.0, SVG Export Plug-In . SVG Version: 6.00 Build 0)  -->
<svg xmlns="http://www.w3.org/2000/svg" xmlns:xlink="http://www.w3.org/1999/xlink" version="1.1" id="Layer_1" x="0px" y="0px" viewBox="0 0 512 512" style="enable-background:new 0 0 512 512;" xml:space="preserve">
<g>
	<g>
		<path d="M168.991,129.066c-22.319,0-40.479,18.16-40.479,40.49v13.814h31.347v-13.814c0-5.047,4.096-9.143,9.132-9.143    c5.047,0,9.143,4.096,9.143,9.143v13.814h31.347v-13.814C209.481,147.226,191.321,129.066,168.991,129.066z"/>
	</g>
</g>
<g>
	<g>
		<path d="M221.121,183.369h-11.64v69.966c0,8.652-7.022,15.673-15.673,15.673c-8.662,0-15.673-7.022-15.673-15.673v-69.966h-18.275    v15.673c0,8.652-7.022,15.673-15.673,15.673c-8.662,0-15.673-7.022-15.673-15.673v-15.673h-11.64    c-24.367,0-44.189,19.811-44.189,44.178v42.69L6.689,316.404C2.497,319.338,0,324.132,0,329.247v38.012    c0,8.656,7.018,15.673,15.673,15.673h72.663c0.007,0,0.014,0.001,0.02,0.001h29.134v-74.583c0-8.656,7.018-15.673,15.673-15.673    h71.662c8.656,0,15.673,7.018,15.673,15.673v74.583h29.127c8.662,0,15.673-7.022,15.673-15.673V227.547    C265.3,203.18,245.478,183.369,221.121,183.369z M72.683,351.586H31.347v-14.175l41.336-28.918V351.586z"/>
	</g>
</g>
<g>
	<g>
		<path d="M447.472,253.879H296.649v48.853h151.746c8.656,0,15.673,7.018,15.673,15.673c0,8.656-7.018,15.674-15.673,15.674H296.649    v48.854h150.824c35.581,0,64.528-28.947,64.528-64.528C512,282.826,483.053,253.879,447.472,253.879z"/>
	</g>
</g>
<g>
</g>
<g>
</g>
<g>
</g>
<g>
</g>
<g>
</g>
<g>
</g>
<g>
</g>
<g>
</g>
<g>
</g>
<g>
</g>
<g>
</g>
<g>
</g>
<g>
</g>
<g>
</g>
<g>
</g>
</svg>
