<?xml version="1.0" encoding="iso-8859-1"?>
<!-- Generator: Adobe Illustrator 19.0.0, SVG Export Plug-In . SVG Version: 6.00 Build 0)  -->
<svg xmlns="http://www.w3.org/2000/svg" xmlns:xlink="http://www.w3.org/1999/xlink" version="1.1" id="Layer_1" x="0px" y="0px" viewBox="0 0 512 512" style="enable-background:new 0 0 512 512;" xml:space="preserve">
<g>
	<g>
		<path d="M476.859,241.729h-2.541C449.573,142.23,359.766,71.313,255.995,71.313S62.417,142.23,37.672,241.729H35.13    c-19.37,0-35.13,15.76-35.13,35.133c0,19.371,15.76,35.132,35.132,35.132h441.727c19.371,0,35.132-15.76,35.132-35.132    C511.991,257.489,496.231,241.729,476.859,241.729z M371.215,239.058h-89.097c0-14.427-11.696-26.122-26.123-26.122    c-14.427,0-26.122,11.696-26.122,26.122h-89.097c-12.343,0-19.849-13.658-13.229-24.078    c28.135-44.291,76.153-70.733,128.448-70.733s100.313,26.442,128.449,70.733C391.064,225.399,383.559,239.058,371.215,239.058z"/>
	</g>
</g>
<g>
	<g>
		<path d="M433.687,383.235l-22.083-38.245c0.171-0.549,0.331-1.1,0.496-1.651h-82.264c-15.571,24.367-42.842,40.57-73.842,40.57    c-31,0-58.271-16.203-73.842-40.57H99.89c0.165,0.551,0.326,1.102,0.496,1.651l-22.081,38.245    c-6.029,10.442,1.535,23.51,13.573,23.51h44.223c3.024,3.281,6.187,6.443,9.468,9.468v44.223c0,12.055,13.082,19.594,23.51,13.573    l38.245-22.081c4.282,1.336,8.628,2.498,13.011,3.477l22.087,38.256c6.028,10.442,21.128,10.426,27.146,0l22.087-38.256    c4.383-0.979,8.729-2.141,13.011-3.477l38.245,22.081c10.442,6.028,23.51-1.535,23.51-13.573v-44.223    c3.282-3.024,6.444-6.187,9.468-9.468h44.222C432.171,406.745,439.707,393.661,433.687,383.235z"/>
	</g>
</g>
<g>
	<g>
		<path d="M389.374,10.513H185.309c-42.827,0-77.721,34.538-78.337,77.222c43.291-30.874,95.769-47.769,149.023-47.769    c53.266,0,105.755,16.901,149.052,47.788V26.186C405.047,17.53,398.03,10.513,389.374,10.513z"/>
	</g>
</g>
<g>
	<g>
		<path d="M500.74,57.802l-21.38-21.38c-11.598-11.599-28.828-14.207-42.967-7.841v85.617c10.49,10.404,20.047,21.691,28.577,33.694    l35.77-35.769C515.753,97.11,515.753,72.815,500.74,57.802z"/>
	</g>
</g>
<g>
</g>
<g>
</g>
<g>
</g>
<g>
</g>
<g>
</g>
<g>
</g>
<g>
</g>
<g>
</g>
<g>
</g>
<g>
</g>
<g>
</g>
<g>
</g>
<g>
</g>
<g>
</g>
<g>
</g>
</svg>
