<?xml version="1.0" encoding="iso-8859-1"?>
<!-- Generator: Adobe Illustrator 19.0.0, SVG Export Plug-In . SVG Version: 6.00 Build 0)  -->
<svg xmlns="http://www.w3.org/2000/svg" xmlns:xlink="http://www.w3.org/1999/xlink" version="1.1" id="Layer_1" x="0px" y="0px" viewBox="0 0 511.998 511.998" style="enable-background:new 0 0 511.998 511.998;" xml:space="preserve">
<g>
	<g>
		<path d="M162.948,142.617H36.571c-8.656,0-15.674,7.018-15.674,15.673v179.743h-5.224C7.018,338.034,0,345.051,0,353.707    c0,8.656,7.018,15.673,15.673,15.673c3.499,0,145.966,0,147.274,0c8.656,0,15.673-7.018,15.673-15.673V158.291    C178.621,149.635,171.604,142.617,162.948,142.617z M136.825,311.911c0,8.656-7.018,15.674-15.673,15.674H78.367    c-8.656,0-15.673-7.018-15.673-15.674V200.086c0-8.656,7.018-15.673,15.673-15.673h42.784c8.656,0,15.673,7.018,15.673,15.673    V311.911z"/>
	</g>
</g>
<g>
	<g>
		<path d="M458.952,142.617H209.968v79.078h222.953v77.191H209.968v58.991l5.874-7.562l10.104,13.007    c6.266,8.065,18.481,8.077,24.755,0l10.105-13.007l10.104,13.007c6.266,8.065,18.481,8.077,24.755,0l10.105-13.008l10.105,13.008    c6.265,8.066,18.48,8.077,24.755,0l10.104-13.007l10.105,13.007c6.265,8.066,18.481,8.077,24.755,0l10.105-13.007l10.104,13.007    c6.266,8.065,18.481,8.077,24.755,0l8.999-11.584c7.096,10.627,19.194,17.641,32.902,17.641c21.802,0,39.539-17.737,39.539-39.539    V195.659c0-0.002,0-0.005,0-0.007C511.991,166.408,488.198,142.617,458.952,142.617z"/>
	</g>
</g>
<g>
</g>
<g>
</g>
<g>
</g>
<g>
</g>
<g>
</g>
<g>
</g>
<g>
</g>
<g>
</g>
<g>
</g>
<g>
</g>
<g>
</g>
<g>
</g>
<g>
</g>
<g>
</g>
<g>
</g>
</svg>
