<?xml version="1.0" encoding="iso-8859-1"?>
<!-- Generator: Adobe Illustrator 19.0.0, SVG Export Plug-In . SVG Version: 6.00 Build 0)  -->
<svg xmlns="http://www.w3.org/2000/svg" xmlns:xlink="http://www.w3.org/1999/xlink" version="1.1" id="Layer_1" x="0px" y="0px" viewBox="0 0 512 512" style="enable-background:new 0 0 512 512;" xml:space="preserve">
<g>
	<g>
		<path d="M357.191,56.707h-37.46V15.673C319.731,7.018,312.714,0,304.058,0s-15.673,7.018-15.673,15.673v41.033h-64.77V15.673    C223.614,7.018,216.597,0,207.941,0s-15.673,7.018-15.673,15.673v41.033h-37.46c-22.708,0-41.182,18.474-41.182,41.183    c0,22.709,18.474,41.183,41.182,41.183h202.384c22.708,0,41.182-18.474,41.182-41.183    C398.374,75.18,379.899,56.707,357.191,56.707z"/>
	</g>
</g>
<g>
	<g>
		<path d="M150.016,170.417v52.362c0,3.08,0.908,6.093,2.61,8.66l32.68,49.301c2.903,4.38,7.809,7.013,13.063,7.013h18.523v46.019    c0,8.656,7.018,15.673,15.673,15.673h7.759v146.88c0,8.656,7.018,15.673,15.673,15.673s15.673-7.018,15.673-15.673V349.445h7.759    c8.656,0,15.673-7.018,15.673-15.673v-46.019h18.523c5.255,0,10.161-2.634,13.063-7.013l32.68-49.301    c1.702-2.567,2.61-5.58,2.61-8.66v-52.361C360.681,170.417,156.959,170.417,150.016,170.417z M271.351,244.758h-30.702    c-8.656,0-15.673-7.018-15.673-15.673s7.016-15.673,15.673-15.673h30.702c8.656,0,15.673,7.018,15.673,15.673    S280.007,244.758,271.351,244.758z"/>
	</g>
</g>
<g>
</g>
<g>
</g>
<g>
</g>
<g>
</g>
<g>
</g>
<g>
</g>
<g>
</g>
<g>
</g>
<g>
</g>
<g>
</g>
<g>
</g>
<g>
</g>
<g>
</g>
<g>
</g>
<g>
</g>
</svg>
