<?xml version="1.0" encoding="iso-8859-1"?>
<!-- Generator: Adobe Illustrator 19.0.0, SVG Export Plug-In . SVG Version: 6.00 Build 0)  -->
<svg xmlns="http://www.w3.org/2000/svg" xmlns:xlink="http://www.w3.org/1999/xlink" version="1.1" id="Layer_1" x="0px" y="0px" viewBox="0 0 512 512" style="enable-background:new 0 0 512 512;" xml:space="preserve">
<g>
	<g>
		<path d="M406.348,246.156l-35.279-35.279c-6.115-6.114-16.047-6.119-22.165,0l-30.659,30.661    c-32.821-32.807-117.304-117.293-138.024-138.012l-41.43-58.289c-1.502-2.112-3.503-3.819-5.825-4.967L65.035,6.667    C59.01,3.687,51.757,4.88,47.003,9.632L4.591,52.044c-4.753,4.753-5.947,12.009-2.964,18.034l33.614,67.929    c1.148,2.322,2.855,4.322,4.965,5.823l58.278,41.431l138.023,138.013l-30.668,30.668c-6.161,6.162-6.057,16.109,0,22.165    l35.279,35.279c6.102,6.102,16.048,6.119,22.165-0.001l143.064-143.064C412.469,262.201,412.469,252.277,406.348,246.156z"/>
	</g>
</g>
<g>
	<g>
		<path d="M481.602,367.886l-68.779-61.706L301.143,417.858l61.719,68.784c23.426,26.098,63.937,27.221,88.76,2.397l32.378-32.378    C508.805,431.858,507.785,391.387,481.602,367.886z"/>
	</g>
</g>
<g>
	<g>
		<path d="M183.674,398.272c-18.377-18.376-18.379-48.118,0-66.496l8.501-8.501l-56.583-56.579L4.591,397.697    c-6.121,6.12-6.121,16.043-0.001,22.164l78.221,78.232c6.12,6.121,16.045,6.121,22.167,0l89.258-89.258L183.674,398.272z"/>
	</g>
</g>
<g>
	<g>
		<path d="M507.409,158.678L362.624,13.893c-6.12-6.121-16.044-6.121-22.165,0L309.09,45.262c-4.166,4.167-10.911,4.167-15.077,0    c-6.116-6.116-16.045-6.121-22.165,0L249.38,67.729c-6.121,6.121-6.121,16.044,0,22.165l31.51,31.51l-19.23,19.227    c24.811,24.81,49.743,49.741,56.581,56.577c8.642-8.642,12.512-13.303,21.098-17.504c17.661-8.649,39.394-5.495,53.896,9.007    l35.279,35.279c6.577,6.577,10.78,14.636,12.638,23.109l66.257-66.257C513.53,174.723,513.53,164.799,507.409,158.678z"/>
	</g>
</g>
<g>
</g>
<g>
</g>
<g>
</g>
<g>
</g>
<g>
</g>
<g>
</g>
<g>
</g>
<g>
</g>
<g>
</g>
<g>
</g>
<g>
</g>
<g>
</g>
<g>
</g>
<g>
</g>
<g>
</g>
</svg>
