<?xml version="1.0" encoding="iso-8859-1"?>
<!-- Generator: Adobe Illustrator 19.0.0, SVG Export Plug-In . SVG Version: 6.00 Build 0)  -->
<svg xmlns="http://www.w3.org/2000/svg" xmlns:xlink="http://www.w3.org/1999/xlink" version="1.1" id="Layer_1" x="0px" y="0px" viewBox="0 0 512 512" style="enable-background:new 0 0 512 512;" xml:space="preserve">
<g>
	<g>
		<path d="M256,250.562c-35.609,0-64.579,28.97-64.579,64.579s28.97,64.58,64.579,64.58s64.579-28.97,64.579-64.579    S291.609,250.562,256,250.562z"/>
	</g>
</g>
<g>
	<g>
		<path d="M0,118.283v378.043C0,504.982,7.018,512,15.673,512h480.653c8.656,0,15.673-7.018,15.673-15.673V118.283H0z     M376.821,325.953l31.391,18.124c7.497,4.328,10.065,13.914,5.736,21.41l-35.373,61.268c-4.324,7.489-13.915,10.065-21.41,5.736    l-31.394-18.126c-5.916,4.171-12.17,7.788-18.724,10.827v36.235c0,8.656-7.018,15.673-15.673,15.673h-70.747    c-8.656,0-15.673-7.018-15.673-15.673v-36.233c-6.553-3.04-12.807-6.657-18.724-10.827l-31.394,18.126    c-7.489,4.326-17.082,1.759-21.41-5.737l-35.373-61.269c-4.329-7.496-1.761-17.082,5.737-21.41l31.391-18.124    c-0.645-7.2-0.645-14.423,0-21.624l-31.391-18.124c-7.497-4.328-10.065-13.914-5.737-21.41l35.373-61.268    c4.328-7.497,13.914-10.067,21.41-5.737l31.394,18.125c5.916-4.17,12.17-7.788,18.724-10.827v-36.234    c0-8.656,7.018-15.673,15.673-15.673h70.747c8.656,0,15.673,7.018,15.673,15.673v36.234c6.553,3.04,12.807,6.657,18.724,10.827    l31.394-18.125c7.496-4.328,17.082-1.761,21.41,5.737l35.373,61.268c4.329,7.496,1.761,17.082-5.736,21.41l-31.391,18.124    C377.465,311.529,377.464,318.753,376.821,325.953z"/>
	</g>
</g>
<g>
	<g>
		<path d="M496.327,0H15.673C7.018,0,0,7.018,0,15.673v71.263h512V15.673C512,7.018,504.982,0,496.327,0z M222.56,59.141H62.52    c-8.656,0-15.673-7.018-15.673-15.673s7.018-15.673,15.673-15.673h160.04c8.656,0,15.673,7.018,15.673,15.673    S231.216,59.141,222.56,59.141z"/>
	</g>
</g>
<g>
</g>
<g>
</g>
<g>
</g>
<g>
</g>
<g>
</g>
<g>
</g>
<g>
</g>
<g>
</g>
<g>
</g>
<g>
</g>
<g>
</g>
<g>
</g>
<g>
</g>
<g>
</g>
<g>
</g>
</svg>
