<?xml version="1.0" encoding="iso-8859-1"?>
<!-- Generator: Adobe Illustrator 19.0.0, SVG Export Plug-In . SVG Version: 6.00 Build 0)  -->
<svg xmlns="http://www.w3.org/2000/svg" xmlns:xlink="http://www.w3.org/1999/xlink" version="1.1" id="Layer_1" x="0px" y="0px" viewBox="0 0 512.001 512.001" style="enable-background:new 0 0 512.001 512.001;" xml:space="preserve">
<g>
	<g>
		<path d="M92.207,85.394v48.037c0,62.124,41.81,116.953,101.674,133.334c2.306,0.631,3.916,2.708,3.916,5.051v224.495    c0,11.429,11.905,19.058,22.304,14.2l85.061-39.723c5.516-2.576,9.042-8.113,9.042-14.2V271.816c0-2.343,1.61-4.42,3.916-5.051    c59.864-16.381,101.674-71.21,101.674-133.334V85.394H92.207z"/>
	</g>
</g>
<g>
	<g>
		<path d="M404.122,0H107.88c-8.656,0-15.673,7.018-15.673,15.673v38.375h327.587V15.673C419.795,7.018,412.777,0,404.122,0z"/>
	</g>
</g>
<g>
</g>
<g>
</g>
<g>
</g>
<g>
</g>
<g>
</g>
<g>
</g>
<g>
</g>
<g>
</g>
<g>
</g>
<g>
</g>
<g>
</g>
<g>
</g>
<g>
</g>
<g>
</g>
<g>
</g>
</svg>
