<?xml version="1.0" encoding="iso-8859-1"?>
<!-- Generator: Adobe Illustrator 19.0.0, SVG Export Plug-In . SVG Version: 6.00 Build 0)  -->
<svg xmlns="http://www.w3.org/2000/svg" xmlns:xlink="http://www.w3.org/1999/xlink" version="1.1" id="Layer_1" x="0px" y="0px" viewBox="0 0 512 512" style="enable-background:new 0 0 512 512;" xml:space="preserve">
<g>
	<g>
		<path d="M496.327,312.665H15.673C7.018,312.665,0,319.682,0,328.338v64.429c0,8.656,7.018,15.673,15.673,15.673h480.653    c8.656,0,15.673-7.018,15.673-15.673v-64.429C512,319.682,504.982,312.665,496.327,312.665z"/>
	</g>
</g>
<g>
	<g>
		<path d="M437.102,208.108h-49.513c-3.613-3.951-7.408-7.746-11.357-11.357v-49.513c0-12.057-13.085-19.593-23.51-13.573    l-42.821,24.723c-5.126-1.623-10.34-3.017-15.599-4.169l-24.73-42.835c-6.029-10.442-21.128-10.427-27.146,0l-24.73,42.835    c-5.259,1.152-10.472,2.546-15.598,4.169l-42.821-24.723c-10.442-6.029-23.51,1.535-23.51,13.573v49.512    c-3.95,3.612-7.745,7.406-11.357,11.357H74.897c-12.057,0-19.593,13.084-13.573,23.51l24.722,42.821    c-0.721,2.276-1.389,4.571-2.018,6.879h89.411c16.385-28.655,47.254-48.01,82.56-48.01c35.307,0,66.177,19.355,82.561,48.01h89.41    c-0.629-2.307-1.297-4.602-2.018-6.879l24.722-42.821C456.704,221.177,449.141,208.108,437.102,208.108z"/>
	</g>
</g>
<g>
</g>
<g>
</g>
<g>
</g>
<g>
</g>
<g>
</g>
<g>
</g>
<g>
</g>
<g>
</g>
<g>
</g>
<g>
</g>
<g>
</g>
<g>
</g>
<g>
</g>
<g>
</g>
<g>
</g>
</svg>
