<?xml version="1.0" encoding="iso-8859-1"?>
<!-- Generator: Adobe Illustrator 19.0.0, SVG Export Plug-In . SVG Version: 6.00 Build 0)  -->
<svg xmlns="http://www.w3.org/2000/svg" xmlns:xlink="http://www.w3.org/1999/xlink" version="1.1" id="Layer_1" x="0px" y="0px" viewBox="0 0 512 512" style="enable-background:new 0 0 512 512;" xml:space="preserve">
<g>
	<g>
		<path d="M496.327,103.812h-45.792c-4.152-13.963-13.697-25.626-26.213-32.56v96.468c12.517-6.934,22.061-18.598,26.213-32.56    h45.792c8.655,0,15.673-7.018,15.673-15.673C512,110.83,504.982,103.812,496.327,103.812z"/>
	</g>
</g>
<g>
	<g>
		<path d="M230.353,295.525c8.656,0,15.673-7.018,15.673-15.673v-58.411l133.724-21.143c7.616-1.204,13.225-7.77,13.225-15.481    V54.155c0-8.656-7.018-15.673-15.673-15.673H44.384C19.911,38.482,0,58.394,0,82.867c0,24.474,19.911,44.384,44.384,44.384H67.73    v253.627c0,8.656,7.018,15.673,15.673,15.673h45.41c7.469,43.643,45.566,76.966,91.306,76.966h157.182    c8.656,0,15.673-7.018,15.673-15.673s-7.018-15.673-15.673-15.673H220.12c-28.379,0-52.309-19.392-59.253-45.619h42.855    c0.003,0,0.006,0,0.009,0c26.698-0.008,44.266-20.201,44.266-44.449c0-23.366-16.364-43.405-41.784-44.657v-11.921H230.353z     M206.214,227.734l8.466-1.339v37.781h-8.466V227.734z M175.866,174.593h-32.711c-8.656,0-15.673-7.018-15.673-15.673    c0-8.656,7.018-15.674,15.673-15.674h32.711c8.656,0,15.673,7.018,15.673,15.674C191.539,167.575,184.522,174.593,175.866,174.593    z M175.866,127.25h-32.711c-8.656,0-15.673-7.018-15.673-15.673s7.018-15.673,15.673-15.673h32.711    c8.656,0,15.673,7.018,15.673,15.673S184.522,127.25,175.866,127.25z"/>
	</g>
</g>
<g>
</g>
<g>
</g>
<g>
</g>
<g>
</g>
<g>
</g>
<g>
</g>
<g>
</g>
<g>
</g>
<g>
</g>
<g>
</g>
<g>
</g>
<g>
</g>
<g>
</g>
<g>
</g>
<g>
</g>
</svg>
