<?xml version="1.0" encoding="iso-8859-1"?>
<!-- Generator: Adobe Illustrator 19.0.0, SVG Export Plug-In . SVG Version: 6.00 Build 0)  -->
<svg xmlns="http://www.w3.org/2000/svg" xmlns:xlink="http://www.w3.org/1999/xlink" version="1.1" id="Layer_1" x="0px" y="0px" viewBox="0 0 512 512" style="enable-background:new 0 0 512 512;" xml:space="preserve">
<g>
	<g>
		<rect x="83.592" y="115.419" width="130.612" height="13.931"/>
	</g>
</g>
<g>
	<g>
		<rect x="83.592" y="160.705" width="130.612" height="13.931"/>
	</g>
</g>
<g>
	<g>
		<rect x="297.785" y="160.705" width="130.612" height="13.931"/>
	</g>
</g>
<g>
	<g>
		<rect x="83.592" y="205.981" width="130.612" height="13.931"/>
	</g>
</g>
<g>
	<g>
		<rect x="297.785" y="205.981" width="130.612" height="13.931"/>
	</g>
</g>
<g>
	<g>
		<path d="M496.327,31.832H15.673C7.018,31.832,0,38.849,0,47.505v240.322c0,8.656,7.018,15.673,15.673,15.673h480.653    c8.656,0,15.673-7.018,15.673-15.673V47.505C512,38.849,504.982,31.832,496.327,31.832z M245.551,235.582    c0,8.656-7.018,15.673-15.673,15.673H67.918c-8.656,0-15.673-7.018-15.673-15.673V99.75c0-8.656,7.018-15.673,15.673-15.673    h161.959c8.656,0,15.673,7.018,15.673,15.673V235.582z M459.748,235.582c0,8.656-7.018,15.673-15.673,15.673H282.115    c-8.656,0-15.673-7.018-15.673-15.673V99.75c0-8.656,7.018-15.673,15.673-15.673h161.959c8.656,0,15.673,7.018,15.673,15.673    V235.582z"/>
	</g>
</g>
<g>
	<g>
		<rect x="297.785" y="115.419" width="130.612" height="13.931"/>
	</g>
</g>
<g>
	<g>
		<path d="M181.5,423.048v-13.883c0-20.509-16.686-37.195-37.195-37.195c-3.225,0-5.848-2.624-5.848-5.848v-29.53    c0-8.656-7.018-15.673-15.673-15.673s-15.673,7.018-15.673,15.673v29.53c0,20.509,16.686,37.195,37.195,37.195    c3.225,0,5.848,2.624,5.848,5.848v13.883c-11.698,0.576-18.659,13.341-12.802,23.484l14.902,25.811    c6.028,10.442,21.128,10.426,27.146,0l14.901-25.811C200.158,436.389,193.197,423.623,181.5,423.048z"/>
	</g>
</g>
<g>
	<g>
		<path d="M285.744,423.048v-13.883c0-20.509-16.686-37.195-37.195-37.195c-3.225,0-5.848-2.624-5.848-5.848v-29.53    c0-8.656-7.018-15.673-15.673-15.673c-8.656,0-15.673,7.018-15.673,15.673v29.53c0,20.509,16.686,37.195,37.195,37.195    c3.225,0,5.848,2.624,5.848,5.848v13.883c-11.697,0.576-18.657,13.341-12.801,23.484l14.901,25.811    c6.027,10.441,21.126,10.428,27.148,0l14.902-25.811C304.402,436.39,297.442,423.623,285.744,423.048z"/>
	</g>
</g>
<g>
	<g>
		<path d="M389.989,423.048v-13.883c0-20.509-16.686-37.195-37.196-37.195c-3.225,0-5.848-2.624-5.848-5.848v-29.53    c0-8.656-7.018-15.673-15.673-15.673s-15.673,7.018-15.673,15.673v29.53c0,20.509,16.686,37.195,37.195,37.195    c3.226,0,5.849,2.624,5.849,5.848v13.883c-11.698,0.576-18.658,13.342-12.802,23.484l14.902,25.811    c6.029,10.442,21.129,10.427,27.146,0l14.901-25.811C408.647,436.39,401.687,423.623,389.989,423.048z"/>
	</g>
</g>
<g>
</g>
<g>
</g>
<g>
</g>
<g>
</g>
<g>
</g>
<g>
</g>
<g>
</g>
<g>
</g>
<g>
</g>
<g>
</g>
<g>
</g>
<g>
</g>
<g>
</g>
<g>
</g>
<g>
</g>
</svg>
