<?xml version="1.0" encoding="iso-8859-1"?>
<!-- Generator: Adobe Illustrator 19.0.0, SVG Export Plug-In . SVG Version: 6.00 Build 0)  -->
<svg xmlns="http://www.w3.org/2000/svg" xmlns:xlink="http://www.w3.org/1999/xlink" version="1.1" id="Layer_1" x="0px" y="0px" viewBox="0 0 512 512" style="enable-background:new 0 0 512 512;" xml:space="preserve">
<g>
	<g>
		<path d="M404.476,256c0-8.656,7.018-15.673,15.673-15.673h7.539c-3.241-35.788-17.457-68.453-39.258-94.591l-5.277,5.277    c-6.12,6.121-16.045,6.121-22.165,0c-6.121-6.121-6.121-16.044,0-22.165l5.277-5.277c-26.138-21.801-58.804-36.017-94.591-39.258    v7.539c0,8.656-7.018,15.673-15.673,15.673c-8.656,0-15.673-7.018-15.673-15.673v-7.539    c-35.788,3.241-68.453,17.457-94.591,39.258l5.277,5.277c6.121,6.121,6.121,16.044,0,22.165c-6.12,6.121-16.045,6.121-22.165,0    l-5.277-5.277c-21.801,26.138-36.017,58.804-39.258,94.591h7.539c8.656,0,15.673,7.018,15.673,15.673    c0,8.656-7.018,15.673-15.673,15.673h-7.539c2.466,27.231,11.286,52.653,24.969,74.769h293.438    c13.683-22.116,22.503-47.538,24.969-74.769h-7.539C411.493,271.673,404.476,264.656,404.476,256z M340.088,194.077    l-41.663,41.663c2.943,6.139,4.595,13.009,4.595,20.26c0,25.927-21.093,47.02-47.02,47.02s-47.02-21.093-47.02-47.02    s21.093-47.02,47.02-47.02c7.251,0,14.121,1.652,20.26,4.595l41.663-41.663c6.12-6.121,16.044-6.121,22.165,0    C346.209,178.033,346.209,187.956,340.088,194.077z"/>
	</g>
</g>
<g>
	<g>
		<path d="M134.083,377.789c31.224,31.256,74.351,50.619,121.917,50.619s90.693-19.363,121.917-50.619H134.083z"/>
	</g>
</g>
<g>
	<g>
		<path d="M256,0C114.508,0,0,114.497,0,256c0,141.493,114.497,256,256,256c141.493,0,256-114.497,256-256    C512,114.507,397.503,0,256,0z M256,459.755c-112.343,0-203.755-91.439-203.755-203.755C52.245,143.729,143.57,52.245,256,52.245    c112.271,0,203.755,91.325,203.755,203.755C459.755,368.301,368.359,459.755,256,459.755z"/>
	</g>
</g>
<g>
</g>
<g>
</g>
<g>
</g>
<g>
</g>
<g>
</g>
<g>
</g>
<g>
</g>
<g>
</g>
<g>
</g>
<g>
</g>
<g>
</g>
<g>
</g>
<g>
</g>
<g>
</g>
<g>
</g>
</svg>
