<?xml version="1.0" encoding="iso-8859-1"?>
<!-- Generator: Adobe Illustrator 19.0.0, SVG Export Plug-In . SVG Version: 6.00 Build 0)  -->
<svg xmlns="http://www.w3.org/2000/svg" xmlns:xlink="http://www.w3.org/1999/xlink" version="1.1" id="Layer_1" x="0px" y="0px" viewBox="0 0 512 512" style="enable-background:new 0 0 512 512;" xml:space="preserve">
<g>
	<g>
		<path d="M496.949,74.038c-4.941-9.319-17.497-11.177-24.931-3.742l-66.034,66.033l-25.271-25.272l66.031-66.031    c7.447-7.448,5.565-19.996-3.741-24.931C394.057-5.858,331.861,1.666,290.507,43.02c-23.685,23.685-37.072,55.529-37.94,88.496    l65.685,65.679l8.493-8.493c18.376-18.376,48.12-18.378,66.498,0l35.279,35.279c7.176,7.176,11.744,16.266,13.234,26.118    c11.783-6.083,22.668-13.994,32.244-23.571c0.056-0.056,0.102-0.118,0.158-0.174C515.736,184.635,522.614,122.45,496.949,74.038z     M462.05,192.397c-11.623-11.624-4.729-4.729-33.898-33.904l49.157-49.156C484.79,137.523,479.689,168.093,462.05,192.397z"/>
	</g>
</g>
<g>
	<g>
		<path d="M406.357,246.148c-37.939-37.94-35.5-35.565-36.468-36.354c-6.114-4.985-15.226-4.673-20.976,1.075l-30.659,30.658    L180.225,103.509l-41.434-58.283c-1.501-2.112-3.502-3.817-5.823-4.966L65.04,6.65c-6.014-2.976-13.273-1.796-18.034,2.965    L4.592,52.029c-4.733,4.733-5.959,11.983-2.965,18.035l33.611,67.927c1.149,2.322,2.856,4.323,4.966,5.823l58.283,41.434    l138.029,138.017l-30.67,30.67c-6.138,6.138-6.092,16.073,0,22.166l35.279,35.279c6.173,6.174,16.118,6.049,22.166,0.001    l143.067-143.067C412.478,262.193,412.478,252.269,406.357,246.148z"/>
	</g>
</g>
<g>
	<g>
		<path d="M481.611,367.879l-68.78-61.707L301.15,417.853l61.721,68.785c23.466,26.144,63.931,27.23,88.762,2.398l32.379-32.379    C508.811,431.858,507.802,391.386,481.611,367.879z"/>
	</g>
</g>
<g>
	<g>
		<path d="M183.679,398.268c-18.376-18.378-18.38-48.117-0.001-66.497l8.504-8.504l-53.005-52.999l-109.9,117.195    c-26.197,27.947-25.544,71.571,1.585,98.699c27.069,27.069,70.74,27.809,98.702,1.594l74.107-69.495L183.679,398.268z     M102.929,440.554c-7.304,7.304-19.144,7.304-26.447,0c-7.304-7.303-7.304-19.144,0-26.447c7.304-7.304,19.144-7.304,26.447,0    C110.232,421.411,110.232,433.251,102.929,440.554z"/>
	</g>
</g>
<g>
</g>
<g>
</g>
<g>
</g>
<g>
</g>
<g>
</g>
<g>
</g>
<g>
</g>
<g>
</g>
<g>
</g>
<g>
</g>
<g>
</g>
<g>
</g>
<g>
</g>
<g>
</g>
<g>
</g>
</svg>
