<?xml version="1.0" encoding="iso-8859-1"?>
<!-- Generator: Adobe Illustrator 19.0.0, SVG Export Plug-In . SVG Version: 6.00 Build 0)  -->
<svg xmlns="http://www.w3.org/2000/svg" xmlns:xlink="http://www.w3.org/1999/xlink" version="1.1" id="Layer_1" x="0px" y="0px" viewBox="0 0 512 512" style="enable-background:new 0 0 512 512;" xml:space="preserve">
<g>
	<g>
		<path d="M419.755,165.367h-31.112v-56.122C388.642,49.007,339.636,0,279.398,0h-93.582C125.579,0,76.571,49.007,76.571,109.248    v190.873c0,58.186,47.338,105.524,105.524,105.524h190.874c8.656,0,15.673-7.018,15.673-15.674v-93.575    c0-8.656-7.018-15.673-15.673-15.673h-6.109v-24.916h6.109c8.656,0,15.673-7.018,15.673-15.673s-7.018-15.673-15.673-15.673    c-10.564,0-77.662,0-93.576,0c-8.656,0-15.673,7.018-15.673,15.673s7.018,15.673,15.673,15.673h6.109v24.916h-84.01V124.922    h62.228v56.118c0,8.656,7.018,15.673,15.673,15.673h140.361c8.656,0,15.673-7.018,15.673-15.673    C435.429,172.384,428.411,165.367,419.755,165.367z M316.85,255.808h18.663v24.916H316.85V255.808z"/>
	</g>
</g>
<g>
	<g>
		<path d="M372.969,427.475H244.926c-8.656,0-15.673,7.018-15.673,15.674c0,8.656,7.018,15.673,15.673,15.673h40.577v12.499    c0,22.431,18.248,40.679,40.679,40.679c22.431,0,40.679-18.248,40.679-40.679v-12.499h6.109c8.656,0,15.673-7.018,15.673-15.673    C388.643,434.493,381.626,427.475,372.969,427.475z M326.182,480.653c-5.146,0-9.332-4.186-9.332-9.332v-12.499h18.663v12.499    h0.001C335.514,476.467,331.328,480.653,326.182,480.653z"/>
	</g>
</g>
<g>
</g>
<g>
</g>
<g>
</g>
<g>
</g>
<g>
</g>
<g>
</g>
<g>
</g>
<g>
</g>
<g>
</g>
<g>
</g>
<g>
</g>
<g>
</g>
<g>
</g>
<g>
</g>
<g>
</g>
</svg>
