<?xml version="1.0" encoding="iso-8859-1"?>
<!-- Generator: Adobe Illustrator 19.0.0, SVG Export Plug-In . SVG Version: 6.00 Build 0)  -->
<svg version="1.1" id="Layer_1" xmlns="http://www.w3.org/2000/svg" xmlns:xlink="http://www.w3.org/1999/xlink" x="0px" y="0px"
	 viewBox="0 0 330 330" style="enable-background:new 0 0 330 330;" xml:space="preserve">
<g id="XMLID_232_">
	<path id="XMLID_233_" d="M262.611,96.346c25.204,3.891,47.73,15.998,64.756,33.485c1.73-6.368,2.632-13.022,2.632-19.831
		c0-41.355-33.645-75-75-75c-15.624,0-30.504,4.733-43.185,13.689c4.712,2.407,9.297,5.104,13.716,8.122
		C240.773,67.222,253.361,80.685,262.611,96.346z"/>
	<path id="XMLID_235_" d="M329.815,204.649c-0.057-0.895-0.121-1.789-0.205-2.677c-0.048-0.516-0.104-1.029-0.162-1.542
		c-0.092-0.809-0.195-1.613-0.309-2.415c-0.075-0.531-0.15-1.063-0.236-1.592c-0.127-0.793-0.273-1.579-0.423-2.364
		c-0.099-0.513-0.188-1.026-0.294-1.536c-0.199-0.943-0.422-1.879-0.651-2.812c-0.197-0.802-0.411-1.599-0.631-2.392
		c-0.188-0.679-0.374-1.358-0.578-2.03c-0.203-0.667-0.425-1.326-0.644-1.985c-0.175-0.526-0.35-1.053-0.533-1.573
		c-0.249-0.703-0.509-1.4-0.775-2.095c-0.172-0.447-0.35-0.893-0.527-1.336c-0.3-0.74-0.604-1.478-0.922-2.207
		c-0.142-0.327-0.294-0.649-0.441-0.974c-1.723-3.814-3.717-7.475-5.962-10.964c-0.105-0.162-0.206-0.325-0.311-0.486
		c-0.537-0.822-1.09-1.635-1.654-2.438c-0.107-0.154-0.217-0.307-0.326-0.459c-0.592-0.83-1.195-1.653-1.816-2.461
		C296.861,138.077,272.435,125,245,125h-1.668c-9.693-24.507-29.047-43.538-52.904-53.121c-1.363-0.547-2.742-1.063-4.133-1.548
		c-0.064-0.021-0.127-0.041-0.19-0.063c-1.243-0.43-2.499-0.831-3.763-1.211c-0.271-0.081-0.543-0.159-0.814-0.238
		c-1.111-0.322-2.229-0.625-3.355-0.907c-0.271-0.067-0.54-0.14-0.812-0.204c-2.747-0.665-5.534-1.211-8.358-1.63
		c-0.293-0.044-0.589-0.077-0.883-0.118c-1.09-0.152-2.186-0.285-3.287-0.399c-0.421-0.044-0.844-0.083-1.266-0.122
		c-1.037-0.093-2.078-0.167-3.122-0.227c-0.392-0.022-0.782-0.05-1.175-0.067c-1.417-0.063-2.84-0.104-4.27-0.104
		c-50.929,0-92.625,40.282-94.902,90.658C26.17,160.52,0,189.761,0,225c0,38.598,31.401,70,70,70h175c46.869,0,85-38.131,85-85
		c0-1.354-0.039-2.697-0.103-4.034C329.877,205.525,329.842,205.088,329.815,204.649z"/>
</g>
<g>
</g>
<g>
</g>
<g>
</g>
<g>
</g>
<g>
</g>
<g>
</g>
<g>
</g>
<g>
</g>
<g>
</g>
<g>
</g>
<g>
</g>
<g>
</g>
<g>
</g>
<g>
</g>
<g>
</g>
</svg>
