<?xml version="1.0" encoding="iso-8859-1"?>
<!-- Generator: Adobe Illustrator 19.0.0, SVG Export Plug-In . SVG Version: 6.00 Build 0)  -->
<svg version="1.1" id="Layer_1" xmlns="http://www.w3.org/2000/svg" xmlns:xlink="http://www.w3.org/1999/xlink" x="0px" y="0px"
	 viewBox="0 0 330.001 330.001" style="enable-background:new 0 0 330.001 330.001;" xml:space="preserve">
<g id="XMLID_22_">
	<path id="XMLID_23_" d="M259.665,47.981C247.42,19.229,219.01,0,186.975,0c-43.568,0-79.014,35.445-79.014,79.012v0.197
		c14.773-6.012,30.694-9.169,47.039-9.169c25.285,0,49.674,7.528,70.529,21.772c15.244,10.41,27.832,23.873,37.082,39.535
		c21.241,3.278,40.579,12.395,56.328,25.646C325.94,146,330,132.961,330,118.988C330,80.06,298.51,48.348,259.665,47.981z"/>
	<path id="XMLID_24_" d="M329.874,240.414c-0.067-1.252-0.164-2.494-0.285-3.731c-0.024-0.247-0.05-0.494-0.076-0.741
		c-0.131-1.227-0.283-2.445-0.466-3.656c-0.032-0.211-0.069-0.421-0.102-0.633c-0.186-1.167-0.391-2.328-0.623-3.48
		c-0.025-0.122-0.045-0.247-0.07-0.37c-0.243-1.176-0.519-2.338-0.81-3.496c-0.071-0.286-0.142-0.574-0.217-0.859
		c-0.284-1.085-0.593-2.16-0.919-3.227c-0.104-0.342-0.211-0.68-0.319-1.019c-0.331-1.036-0.677-2.067-1.046-3.086
		c-0.123-0.338-0.254-0.671-0.381-1.007c-0.305-0.811-0.623-1.613-0.952-2.411c-0.189-0.458-0.38-0.916-0.577-1.37
		c-0.344-0.795-0.703-1.583-1.07-2.365c-0.21-0.445-0.42-0.892-0.637-1.333c-0.41-0.832-0.833-1.655-1.268-2.472
		c-0.264-0.492-0.533-0.98-0.805-1.468c-0.306-0.546-0.619-1.087-0.937-1.626c-0.438-0.745-0.888-1.484-1.349-2.216
		c-0.25-0.396-0.502-0.789-0.758-1.181c-0.58-0.889-1.178-1.764-1.789-2.629c-0.211-0.297-0.42-0.594-0.633-0.889
		c-1.306-1.796-2.68-3.537-4.119-5.224c-0.106-0.126-0.217-0.25-0.324-0.376c-0.895-1.035-1.814-2.051-2.756-3.043
		c-0.099-0.104-0.197-0.207-0.297-0.311c-2.658-2.769-5.498-5.357-8.507-7.748c-14.511-11.533-32.849-18.448-52.782-18.448h-1.668
		c-14.171-35.825-48.976-59.961-88.332-59.961c-17.104,0-33.162,4.548-47.039,12.491c-2.572,1.472-5.068,3.06-7.482,4.759
		c-0.003,0.001-0.006,0.003-0.008,0.005c-2.406,1.693-4.731,3.494-6.967,5.396c-0.016,0.014-0.031,0.027-0.047,0.041
		c-2.215,1.889-4.343,3.876-6.376,5.957c-0.038,0.039-0.077,0.078-0.115,0.118c-2.004,2.058-3.916,4.206-5.729,6.438
		c-0.062,0.075-0.122,0.15-0.183,0.226c-0.563,0.699-1.118,1.404-1.662,2.119c-0.028,0.036-0.057,0.072-0.084,0.107
		c-1.143,1.506-2.241,3.047-3.295,4.62c-0.08,0.12-0.159,0.24-0.239,0.36c-0.458,0.69-0.907,1.388-1.348,2.091
		c-0.059,0.093-0.118,0.186-0.177,0.28c-0.981,1.578-1.916,3.188-2.805,4.826c-0.09,0.165-0.178,0.33-0.266,0.496
		c-0.363,0.678-0.719,1.361-1.065,2.049c-0.075,0.15-0.152,0.299-0.228,0.449c-0.416,0.838-0.823,1.681-1.216,2.532
		c-0.003,0.005-0.005,0.011-0.007,0.017c-0.375,0.812-0.734,1.632-1.086,2.456c-0.09,0.21-0.178,0.419-0.266,0.63
		c-0.277,0.665-0.549,1.334-0.811,2.007c-0.079,0.2-0.159,0.4-0.236,0.602c-0.329,0.858-0.649,1.721-0.954,2.591
		c-0.014,0.04-0.027,0.082-0.041,0.122c-0.283,0.814-0.555,1.634-0.816,2.457c-0.078,0.245-0.154,0.492-0.23,0.738
		c-0.203,0.657-0.399,1.317-0.588,1.982c-0.07,0.242-0.141,0.484-0.208,0.727c-0.243,0.88-0.478,1.763-0.696,2.652
		c-0.014,0.058-0.025,0.115-0.04,0.174c-0.202,0.829-0.392,1.664-0.571,2.502c-0.059,0.27-0.113,0.541-0.168,0.811
		c-0.137,0.664-0.267,1.33-0.389,1.998c-0.049,0.268-0.1,0.533-0.146,0.802c-0.158,0.905-0.307,1.813-0.439,2.727
		c-0.006,0.045-0.011,0.09-0.018,0.135c-0.125,0.872-0.234,1.748-0.335,2.627c-0.032,0.281-0.062,0.563-0.091,0.846
		c-0.072,0.68-0.136,1.361-0.193,2.045c-0.023,0.279-0.048,0.559-0.068,0.838c-0.07,0.935-0.131,1.871-0.174,2.814
		c-6.361,0.904-12.45,2.667-18.145,5.167c-1.898,0.833-3.753,1.748-5.559,2.74c-0.903,0.497-1.795,1.013-2.673,1.547
		c-1.757,1.068-3.463,2.213-5.114,3.428C11.271,216.333,0.001,236.875,0.001,260v0.001c0,38.598,31.401,70,70,70h175
		c46.869,0,85-38.131,85-85V245c0-1.335-0.04-2.662-0.102-3.982C329.89,240.816,329.883,240.615,329.874,240.414z"/>
</g>
<g>
</g>
<g>
</g>
<g>
</g>
<g>
</g>
<g>
</g>
<g>
</g>
<g>
</g>
<g>
</g>
<g>
</g>
<g>
</g>
<g>
</g>
<g>
</g>
<g>
</g>
<g>
</g>
<g>
</g>
</svg>
