<?xml version="1.0" encoding="iso-8859-1"?>
<!-- Generator: Adobe Illustrator 19.0.0, SVG Export Plug-In . SVG Version: 6.00 Build 0)  -->
<svg version="1.1" id="Layer_1" xmlns="http://www.w3.org/2000/svg" xmlns:xlink="http://www.w3.org/1999/xlink" x="0px" y="0px"
	 viewBox="0 0 330 330" style="enable-background:new 0 0 330 330;" xml:space="preserve">
<g id="XMLID_10_">
	<path id="XMLID_11_" d="M285.009,48.056c4.635-2.682,7.489-7.63,7.489-12.984s-2.854-10.303-7.489-12.984
		C260.03,7.638,231.497,0,202.494,0C111.518,0,37.502,74.02,37.502,165.002c0,90.98,74.016,164.998,164.992,164.998
		c29.001,0,57.534-7.638,82.515-22.087c4.635-2.681,7.489-7.63,7.489-12.984c0-5.355-2.854-10.303-7.489-12.984
		c-41.64-24.087-67.507-68.897-67.507-116.942C217.502,116.953,243.369,72.143,285.009,48.056z"/>
</g>
<g>
</g>
<g>
</g>
<g>
</g>
<g>
</g>
<g>
</g>
<g>
</g>
<g>
</g>
<g>
</g>
<g>
</g>
<g>
</g>
<g>
</g>
<g>
</g>
<g>
</g>
<g>
</g>
<g>
</g>
</svg>
