<?xml version="1.0" encoding="iso-8859-1"?>
<!-- Generator: Adobe Illustrator 19.0.0, SVG Export Plug-In . SVG Version: 6.00 Build 0)  -->
<svg version="1.1" id="Layer_1" xmlns="http://www.w3.org/2000/svg" xmlns:xlink="http://www.w3.org/1999/xlink" x="0px" y="0px"
	 viewBox="0 0 330.004 330.004" style="enable-background:new 0 0 330.004 330.004;" xml:space="preserve">
<g id="XMLID_7_">
	<path id="XMLID_8_" d="M247.507,281.946C205.867,257.859,180,213.049,180,165.004c0-48.049,25.867-92.859,67.507-116.946
		c4.635-2.682,7.489-7.63,7.489-12.984s-2.854-10.303-7.489-12.984C222.528,7.64,193.995,0.002,164.992,0.002
		C74.016,0.002,0,74.022,0,165.004c0,90.98,74.016,164.998,164.992,164.998c29.001,0,57.534-7.638,82.515-22.087
		c4.635-2.681,7.489-7.63,7.489-12.984S252.142,284.628,247.507,281.946z"/>
	<path id="XMLID_9_" d="M310.364,140.633l-25.365,8.242v-26.671c0-8.284-6.716-15-15-15c-8.284,0-15,6.716-15,15v26.671
		l-25.364-8.242c-7.886-2.565-16.342,1.752-18.901,9.63c-2.561,7.879,1.751,16.342,9.63,18.901l25.364,8.242l-15.676,21.576
		c-4.869,6.702-3.383,16.083,3.319,20.952c2.663,1.935,5.747,2.865,8.804,2.865c4.639,0,9.214-2.145,12.148-6.185l15.675-21.576
		l15.678,21.577c2.935,4.039,7.509,6.184,12.147,6.184c3.057,0,6.142-0.932,8.805-2.866c6.701-4.869,8.188-14.25,3.317-20.952
		l-15.676-21.575l25.366-8.242c7.879-2.56,12.19-11.022,9.63-18.901C326.706,142.384,318.243,138.068,310.364,140.633z"/>
</g>
<g>
</g>
<g>
</g>
<g>
</g>
<g>
</g>
<g>
</g>
<g>
</g>
<g>
</g>
<g>
</g>
<g>
</g>
<g>
</g>
<g>
</g>
<g>
</g>
<g>
</g>
<g>
</g>
<g>
</g>
</svg>
