<?xml version="1.0" encoding="iso-8859-1"?>
<!-- Generator: Adobe Illustrator 19.0.0, SVG Export Plug-In . SVG Version: 6.00 Build 0)  -->
<svg version="1.1" id="Layer_1" xmlns="http://www.w3.org/2000/svg" xmlns:xlink="http://www.w3.org/1999/xlink" x="0px" y="0px"
	 viewBox="0 0 330 330" style="enable-background:new 0 0 330 330;" xml:space="preserve">
<g id="XMLID_225_">
	<path id="XMLID_226_" d="M330,275c0-8.284-6.716-15-15-15c-8.284,0-15,6.716-15,15v20c0,8.284,6.716,15,15,15
		c8.284,0,15-6.716,15-15V275z"/>
	<path id="XMLID_227_" d="M15,310c8.284,0,15-6.716,15-15v-20c0-8.284-6.716-15-15-15s-15,6.716-15,15v20
		C0,303.284,6.716,310,15,310z"/>
	<path id="XMLID_228_" d="M255,315v-20c0-8.284-6.716-15-15-15c-8.284,0-15,6.716-15,15v20c0,8.284,6.716,15,15,15
		C248.284,330,255,323.284,255,315z"/>
	<path id="XMLID_229_" d="M75,295v20c0,8.284,6.716,15,15,15s15-6.716,15-15v-20c0-8.284-6.716-15-15-15S75,286.716,75,295z"/>
	<path id="XMLID_230_" d="M150,275v20c0,8.284,6.716,15,15,15c8.284,0,15-6.716,15-15v-20c0-8.284-6.716-15-15-15
		C156.716,260,150,266.716,150,275z"/>
	<path id="XMLID_231_" d="M70,229.96h175c46.869,0,85-38.131,85-85c0-46.869-38.131-85-85-85h-1.668C229.161,24.135,194.356,0,155,0
		c-50.928,0-92.625,40.281-94.902,90.658C26.17,95.48,0,124.721,0,159.96C0,198.559,31.402,229.96,70,229.96z"/>
</g>
<g>
</g>
<g>
</g>
<g>
</g>
<g>
</g>
<g>
</g>
<g>
</g>
<g>
</g>
<g>
</g>
<g>
</g>
<g>
</g>
<g>
</g>
<g>
</g>
<g>
</g>
<g>
</g>
<g>
</g>
</svg>
