<?xml version="1.0" encoding="iso-8859-1"?>
<!-- Generator: Adobe Illustrator 19.0.0, SVG Export Plug-In . SVG Version: 6.00 Build 0)  -->
<svg version="1.1" id="Layer_1" xmlns="http://www.w3.org/2000/svg" xmlns:xlink="http://www.w3.org/1999/xlink" x="0px" y="0px"
	 viewBox="0 0 360.039 360.039" style="enable-background:new 0 0 360.039 360.039;" xml:space="preserve">
<g id="XMLID_25_">
	<path id="XMLID_26_" d="M330.019,290.039c-8.285,0-15,6.717-15,15v20c0,8.285,6.715,15,15,15c8.283,0,15-6.715,15-15v-20
		C345.019,296.756,338.302,290.039,330.019,290.039z"/>
	<path id="XMLID_27_" d="M45.019,305.039c0-8.283-6.717-15-15-15c-8.285,0-15,6.717-15,15v20c0,8.285,6.715,15,15,15
		c8.283,0,15-6.715,15-15V305.039z"/>
	<path id="XMLID_28_" d="M270.019,345.039v-20c0-8.283-6.717-15-15-15c-8.285,0-15,6.717-15,15v20c0,8.285,6.715,15,15,15
		C263.302,360.039,270.019,353.324,270.019,345.039z"/>
	<path id="XMLID_29_" d="M105.019,360.039c8.283,0,15-6.715,15-15v-20c0-8.283-6.717-15-15-15c-8.285,0-15,6.717-15,15v20
		C90.019,353.324,96.734,360.039,105.019,360.039z"/>
	<path id="XMLID_30_" d="M195.019,325.039v-20c0-8.283-6.717-15-15-15c-8.285,0-15,6.717-15,15v20c0,8.285,6.715,15,15,15
		C188.302,340.039,195.019,333.324,195.019,325.039z"/>
	<path id="XMLID_31_" d="M240.55,21.812c15.242,10.41,27.831,23.874,37.081,39.534c25.204,3.891,47.73,15.998,64.755,33.485
		c1.73-6.368,2.633-13.022,2.633-19.831c0-41.355-33.645-75-75-75c-15.625,0-30.504,4.732-43.185,13.688
		C231.544,16.096,236.13,18.793,240.55,21.812z"/>
	<path id="XMLID_71_" d="M344.918,170.991c-0.022-0.475-0.06-0.944-0.09-1.417c-0.055-0.859-0.116-1.717-0.196-2.568
		c-0.051-0.542-0.11-1.081-0.172-1.62c-0.088-0.778-0.186-1.552-0.296-2.323c-0.079-0.559-0.158-1.116-0.247-1.671
		c-0.123-0.755-0.262-1.505-0.404-2.254c-0.104-0.546-0.199-1.096-0.314-1.639c-0.178-0.848-0.381-1.686-0.584-2.525
		c-0.231-0.952-0.48-1.898-0.744-2.837c-0.17-0.609-0.335-1.219-0.518-1.822c-0.213-0.697-0.444-1.387-0.674-2.076
		c-0.164-0.493-0.328-0.986-0.5-1.476c-0.258-0.727-0.525-1.448-0.803-2.165c-0.16-0.42-0.326-0.837-0.494-1.253
		c-0.309-0.765-0.621-1.526-0.951-2.278c-0.127-0.293-0.264-0.58-0.395-0.871c-1.267-2.811-2.686-5.538-4.239-8.178
		c-0.578-0.982-1.172-1.954-1.788-2.91c-0.088-0.137-0.175-0.275-0.264-0.411c-0.549-0.842-1.113-1.673-1.691-2.493
		c-0.092-0.132-0.186-0.262-0.279-0.393c-0.604-0.848-1.218-1.686-1.852-2.51C311.872,103.072,287.45,90,260.02,90h-1.668
		c-9.694-24.508-29.047-43.539-52.905-53.121c-1.357-0.546-2.731-1.059-4.117-1.543c-0.087-0.029-0.175-0.057-0.262-0.087
		c-1.217-0.421-2.446-0.813-3.684-1.186c-0.289-0.087-0.579-0.171-0.869-0.255c-1.088-0.315-2.183-0.61-3.284-0.888
		c-0.292-0.073-0.582-0.149-0.874-0.221c-1.352-0.326-2.711-0.63-4.082-0.897c-0.004-0.002-0.009-0.002-0.014-0.004
		c-1.396-0.271-2.803-0.508-4.218-0.719c-0.322-0.048-0.647-0.086-0.97-0.131c-1.059-0.146-2.121-0.275-3.188-0.387
		c-0.446-0.046-0.893-0.088-1.34-0.128c-1.003-0.091-2.012-0.161-3.023-0.22c-0.421-0.024-0.841-0.055-1.263-0.073
		c-1.408-0.062-2.82-0.103-4.241-0.103h-0.001c-50.928,0-92.624,40.282-94.901,90.658c-4.241,0.604-8.36,1.588-12.323,2.918
		C35.056,132.924,15.02,159.166,15.02,190c0,38.598,31.401,70,70,70h174.999h0.001c46.869,0,85-38.131,85-85
		c0-0.076-0.006-0.152-0.006-0.229C345.011,173.504,344.977,172.244,344.918,170.991z"/>
</g>
<g>
</g>
<g>
</g>
<g>
</g>
<g>
</g>
<g>
</g>
<g>
</g>
<g>
</g>
<g>
</g>
<g>
</g>
<g>
</g>
<g>
</g>
<g>
</g>
<g>
</g>
<g>
</g>
<g>
</g>
</svg>
