<?xml version="1.0" encoding="iso-8859-1"?>
<!-- Generator: Adobe Illustrator 19.0.0, SVG Export Plug-In . SVG Version: 6.00 Build 0)  -->
<svg version="1.1" id="Layer_1" xmlns="http://www.w3.org/2000/svg" xmlns:xlink="http://www.w3.org/1999/xlink" x="0px" y="0px"
	 viewBox="0 0 330 330" style="enable-background:new 0 0 330 330;" xml:space="preserve">
<g id="XMLID_91_">
	<path id="XMLID_92_" d="M278,265.999l-30,40c-4.971,6.628-3.627,16.029,3,21c2.698,2.024,5.856,3.001,8.988,3.001
		c4.56,0,9.065-2.072,12.012-6.001l30-40c4.971-6.628,3.627-16.029-3-21C292.373,258.029,282.971,259.371,278,265.999z"/>
	<path id="XMLID_93_" d="M203,265.999l-30,40c-4.971,6.628-3.627,16.029,3,21c2.698,2.024,5.856,3.001,8.988,3.001
		c4.561,0,9.065-2.072,12.012-6.001l30-40c4.971-6.628,3.627-16.029-3-21C217.373,258.029,207.971,259.371,203,265.999z"/>
	<path id="XMLID_102_" d="M53,265.999l-30,40c-4.971,6.628-3.627,16.029,3,21c2.698,2.024,5.856,3.001,8.988,3.001
		c4.561,0,9.065-2.072,12.012-6.001l30-40c4.971-6.628,3.627-16.029-3-21C67.373,258.029,57.971,259.371,53,265.999z"/>
	<path id="XMLID_103_" d="M128,265.999l-30,40c-4.971,6.628-3.627,16.029,3,21c2.698,2.024,5.856,3.001,8.988,3.001
		c4.561,0,9.065-2.072,12.012-6.001l30-40c4.971-6.628,3.627-16.029-3-21C142.373,258.029,132.971,259.371,128,265.999z"/>
	<path id="XMLID_104_" d="M70,229.96h175c46.869,0,85-38.131,85-85c0-46.869-38.131-85-85-85h-1.668
		C229.161,24.136,194.356,0.001,155,0.001c-50.929,0-92.625,40.282-94.902,90.658C26.17,95.482,0,124.722,0,159.96
		C0,198.558,31.401,229.96,70,229.96z"/>
</g>
<g>
</g>
<g>
</g>
<g>
</g>
<g>
</g>
<g>
</g>
<g>
</g>
<g>
</g>
<g>
</g>
<g>
</g>
<g>
</g>
<g>
</g>
<g>
</g>
<g>
</g>
<g>
</g>
<g>
</g>
</svg>
