<?xml version="1.0" encoding="iso-8859-1"?>
<!-- Generator: Adobe Illustrator 19.0.0, SVG Export Plug-In . SVG Version: 6.00 Build 0)  -->
<svg version="1.1" id="Layer_1" xmlns="http://www.w3.org/2000/svg" xmlns:xlink="http://www.w3.org/1999/xlink" x="0px" y="0px"
	 viewBox="0 0 330.004 330.004" style="enable-background:new 0 0 330.004 330.004;" xml:space="preserve">
<g id="XMLID_85_">
	<path id="XMLID_86_" d="M274.777,310.004c5.456,0,10.719-2.989,13.371-8.182l10.213-20c3.768-7.379,0.841-16.414-6.538-20.182
		c-7.375-3.767-16.411-0.84-20.181,6.537l-10.213,20c-3.767,7.379-0.841,16.414,6.538,20.182
		C270.152,309.475,272.482,310.004,274.777,310.004z"/>
	<path id="XMLID_87_" d="M198.183,330.003c5.457,0,10.719-2.988,13.371-8.182l10.212-20c3.768-7.378,0.84-16.413-6.538-20.181
		c-7.377-3.767-16.413-0.84-20.181,6.538l-10.212,20c-3.768,7.378-0.84,16.413,6.538,20.181
		C193.558,329.475,195.887,330.003,198.183,330.003z"/>
	<path id="XMLID_88_" d="M62.036,281.641c-7.375-3.767-16.412-0.84-20.181,6.537l-10.213,20c-3.768,7.379-0.841,16.414,6.538,20.182
		c2.185,1.115,4.514,1.645,6.81,1.645c5.456,0,10.719-2.989,13.371-8.182l10.213-20C72.342,294.443,69.415,285.408,62.036,281.641z"
		/>
	<path id="XMLID_89_" d="M121.586,310.004c5.456,0,10.719-2.989,13.371-8.182l10.213-20c3.768-7.379,0.841-16.414-6.538-20.182
		c-7.376-3.767-16.412-0.84-20.181,6.537l-10.213,20c-3.767,7.379-0.841,16.414,6.538,20.182
		C116.961,309.475,119.29,310.004,121.586,310.004z"/>
	<path id="XMLID_90_" d="M245.002,59.96h-1.668C229.163,24.135,194.358,0,155.002,0C104.073,0,62.377,40.281,60.1,90.658
		C26.172,95.48,0.002,124.721,0.002,159.96c0,38.599,31.401,70,70,70h175c46.869,0,85-38.131,85-85S291.871,59.96,245.002,59.96z"/>
</g>
<g>
</g>
<g>
</g>
<g>
</g>
<g>
</g>
<g>
</g>
<g>
</g>
<g>
</g>
<g>
</g>
<g>
</g>
<g>
</g>
<g>
</g>
<g>
</g>
<g>
</g>
<g>
</g>
<g>
</g>
</svg>
