<?xml version="1.0" encoding="iso-8859-1"?>
<!-- Generator: Adobe Illustrator 19.0.0, SVG Export Plug-In . SVG Version: 6.00 Build 0)  -->
<svg version="1.1" id="Layer_1" xmlns="http://www.w3.org/2000/svg" xmlns:xlink="http://www.w3.org/1999/xlink" x="0px" y="0px"
	 viewBox="0 0 330 330" style="enable-background:new 0 0 330 330;" xml:space="preserve">
<g id="XMLID_476_">
	<path id="XMLID_477_" d="M165,250c46.871,0,85.004-38.131,85.004-84.999C250.004,118.131,211.871,80,165,80
		c-46.867,0-84.996,38.131-84.996,85.001C80.004,211.869,118.133,250,165,250z"/>
	<path id="XMLID_478_" d="M165,50c8.283,0,15-6.716,15-15V15c0-8.284-6.717-15-15-15c-8.285,0-15,6.716-15,15v20
		C150,43.284,156.715,50,165,50z"/>
	<path id="XMLID_479_" d="M165,330c8.283,0,15-6.716,15-15v-20c0-8.284-6.717-15-15-15c-8.285,0-15,6.716-15,15v20
		C150,323.284,156.715,330,165,330z"/>
	<path id="XMLID_481_" d="M280,165c0,8.284,6.717,15,15,15h20c8.283,0,15-6.716,15-15s-6.717-15-15-15h-20
		C286.717,150,280,156.716,280,165z"/>
	<path id="XMLID_482_" d="M15,180h19.998c8.285,0,15-6.716,15-15s-6.715-15-15-15H15c-8.283,0-15,6.716-15,15S6.717,180,15,180z"/>
	<path id="XMLID_483_" d="M256.924,88.076c3.84,0,7.68-1.465,10.607-4.395l14.141-14.143c5.857-5.858,5.857-15.355-0.001-21.213
		s-15.356-5.857-21.214,0.002l-14.141,14.143c-5.857,5.857-5.856,15.356,0.002,21.213C249.248,86.612,253.086,88.076,256.924,88.076
		z"/>
	<path id="XMLID_484_" d="M69.541,281.672l14.141-14.142c5.858-5.858,5.858-15.355,0-21.213c-5.857-5.858-15.355-5.858-21.213,0
		l-14.141,14.142c-5.858,5.857-5.858,15.355,0,21.213c2.928,2.93,6.768,4.393,10.606,4.393
		C62.773,286.065,66.611,284.602,69.541,281.672z"/>
	<path id="XMLID_486_" d="M271.064,286.065c3.839,0,7.678-1.464,10.607-4.393c5.857-5.857,5.857-15.354,0-21.213l-14.141-14.142
		c-5.857-5.857-15.355-5.858-21.213-0.001c-5.858,5.857-5.859,15.355-0.001,21.214l14.141,14.142
		C263.387,284.602,267.226,286.065,271.064,286.065z"/>
	<path id="XMLID_487_" d="M62.468,83.683c2.929,2.929,6.768,4.394,10.606,4.394c3.839,0,7.678-1.465,10.607-4.393
		c5.857-5.857,5.857-15.355,0-21.214L69.541,48.328c-5.857-5.857-15.356-5.858-21.213,0c-5.858,5.857-5.859,15.354-0.001,21.213
		L62.468,83.683z"/>
</g>
<g>
</g>
<g>
</g>
<g>
</g>
<g>
</g>
<g>
</g>
<g>
</g>
<g>
</g>
<g>
</g>
<g>
</g>
<g>
</g>
<g>
</g>
<g>
</g>
<g>
</g>
<g>
</g>
<g>
</g>
</svg>
