<?xml version="1.0" encoding="iso-8859-1"?>
<!-- Generator: Adobe Illustrator 19.0.0, SVG Export Plug-In . SVG Version: 6.00 Build 0)  -->
<svg version="1.1" id="Layer_1" xmlns="http://www.w3.org/2000/svg" xmlns:xlink="http://www.w3.org/1999/xlink" x="0px" y="0px"
	 viewBox="0 0 330 330" style="enable-background:new 0 0 330 330;" xml:space="preserve">
<g id="XMLID_451_">
	<path id="XMLID_452_" d="M17.456,165.001c0,8.284,6.716,15,15,15h212.04c8.284,0,15-6.716,15-15c0-8.284-6.716-15-15-15H32.456
		C24.172,150.001,17.456,156.717,17.456,165.001z"/>
	<path id="XMLID_453_" d="M298.377,90c0-8.284-6.716-15-15-15H58.381c-8.284,0-15,6.716-15,15s6.716,15,15,15h224.996
		C291.661,105,298.377,98.284,298.377,90z"/>
	<path id="XMLID_454_" d="M275.043,239.997c0-8.284-6.716-15-15-15h-150c-8.284,0-15,6.716-15,15s6.716,15,15,15h150
		C268.327,254.997,275.043,248.281,275.043,239.997z"/>
	<path id="XMLID_455_" d="M148.481,300c-8.284,0-15,6.716-15,15s6.716,15,15,15h49.072c8.284,0,15-6.716,15-15s-6.716-15-15-15
		H148.481z"/>
	<path id="XMLID_458_" d="M15,30h300c8.284,0,15-6.716,15-15s-6.716-15-15-15H15C6.716,0,0,6.716,0,15S6.716,30,15,30z"/>
</g>
<g>
</g>
<g>
</g>
<g>
</g>
<g>
</g>
<g>
</g>
<g>
</g>
<g>
</g>
<g>
</g>
<g>
</g>
<g>
</g>
<g>
</g>
<g>
</g>
<g>
</g>
<g>
</g>
<g>
</g>
</svg>
