<?xml version="1.0" encoding="iso-8859-1"?>
<!-- Generator: Adobe Illustrator 19.0.0, SVG Export Plug-In . SVG Version: 6.00 Build 0)  -->
<svg xmlns="http://www.w3.org/2000/svg" xmlns:xlink="http://www.w3.org/1999/xlink" version="1.1" id="Capa_1" x="0px" y="0px" viewBox="0 0 511.999 511.999" style="enable-background:new 0 0 511.999 511.999;" xml:space="preserve">
<g>
	<g>
		<g>
			<path d="M364.54,478.479H210.321c-6.277,0-10.357,6.54-7.677,12.216c5.937,12.579,18.741,21.304,33.548,21.304h102.477     c14.807,0,27.612-8.725,33.548-21.304C374.897,485.019,370.816,478.479,364.54,478.479z"/>
			<path d="M476.49,245.036c-5.516-6.174-14.994-6.709-21.17-1.19c-16.365,14.622-40.04,16.919-58.912,5.712l-66.716-39.617     c12.013-21.215,19.013-44.477,21.009-68.077l29.876,1.77c1.912,0.113,3.816,0.17,5.716,0.17c38.555,0,73.904-23.12,89.156-58.904     c3.246-7.617-0.297-16.425-7.913-19.672c-7.617-3.244-16.425,0.296-19.672,7.913c-11.051,25.926-37.374,42.231-65.513,40.558     l-31.813-1.885c-3.269-34.304-17.128-67.794-41.581-95.212L298.621,5.013c-5.51-6.179-14.988-6.72-21.169-1.209     c-6.18,5.511-6.722,14.989-1.209,21.169l10.337,11.591c46.214,51.817,46.331,130.072,0.273,182.026     c-13.244,14.94-23.457,31.873-30.508,49.897l-13.993-1.386c-25.628-2.539-48.7-16.161-63.302-37.376     c-1.473-2.141-3.036-4.213-4.646-6.244l5.576-11.563c15.115-31.338,10.467-68.839-11.842-95.539     c-5.311-6.354-14.766-7.201-21.118-1.893c-6.354,5.31-7.202,14.764-1.893,21.118c14.777,17.687,17.857,42.528,7.844,63.286     l-1.307,2.711c-10.217-7.476-21.627-13.324-33.768-17.174l-66.792-20.552c-7.915-2.436-16.303,2.008-18.739,9.921     c-2.436,7.914,2.007,16.304,9.921,18.739l66.605,20.494c18.381,5.844,34.523,17.809,45.459,33.698     c19.617,28.501,50.615,46.802,85.045,50.213l8.462,0.839c-5.515,28.645-3.546,58.735,6.519,87.206l11.854,33.531h-67.116h-11.956     c-8.28,0-14.993,6.713-14.993,14.993s6.713,14.993,14.993,14.993h6.284h5.672H375.75h6.707h5.25     c8.28,0,14.993-6.713,14.993-14.993s-6.713-14.993-14.993-14.993H375.75h-77.716l-15.386-43.525     c-16.595-46.944-6.386-99.252,26.644-136.51c1.119-1.262,2.208-2.543,3.282-3.83l50.115,29.758l-0.533,1.091     c-13.131,26.921-14.561,58.419-3.925,86.426l0.752,1.977c2.276,5.986,7.972,9.668,14.016,9.668c1.77,0,3.572-0.316,5.326-0.983     c7.739-2.943,11.629-11.603,8.685-19.343l-0.75-1.972c-7.613-20.047-6.678-42.561,2.52-61.913     c10.634,4.869,21.965,7.272,33.242,7.272c19.168,0,38.17-6.931,53.276-20.427C481.474,260.689,482.007,251.21,476.49,245.036z"/>
		</g>
	</g>
</g>
<g>
</g>
<g>
</g>
<g>
</g>
<g>
</g>
<g>
</g>
<g>
</g>
<g>
</g>
<g>
</g>
<g>
</g>
<g>
</g>
<g>
</g>
<g>
</g>
<g>
</g>
<g>
</g>
<g>
</g>
</svg>
