<?xml version="1.0" encoding="iso-8859-1"?>
<!-- Generator: Adobe Illustrator 19.0.0, SVG Export Plug-In . SVG Version: 6.00 Build 0)  -->
<svg xmlns="http://www.w3.org/2000/svg" xmlns:xlink="http://www.w3.org/1999/xlink" version="1.1" id="Capa_1" x="0px" y="0px" viewBox="0 0 512.001 512.001" style="enable-background:new 0 0 512.001 512.001;" xml:space="preserve">
<g>
	<g>
		<g>
			<path d="M364.111,419.063H117.478c-14.648,0-26.566,11.918-26.566,26.567c0,35.414,28.812,64.226,64.226,64.226h171.314     c35.414,0,64.226-28.812,64.226-64.227C390.677,430.98,378.759,419.063,364.111,419.063z"/>
			<path d="M112.429,47.593c31.335,10.655,55.38,44.088,55.38,86.303c0,29.008-12.347,53.46-30.362,69.486     c-1.981,1.762-0.712,5.077,1.939,5.08c0.026,0,0.052,0,0.078,0c49.121,0,89.016-40.257,88.427-89.51     c-0.57-47.665-39.466-86.666-87.131-87.349c-9.775-0.14-19.318,1.305-28.333,4.186C106.711,37.616,106.746,45.66,112.429,47.593z     "/>
			<path d="M389.516,222.375c-30.861-4.596-58.719-17.1-75.39-32.659c-5.429-5.067-14.288-2.007-15.27,5.354     c-4.121,30.884-26.019,56.785-55.787,65.987c-0.996,0.308-1.985,0.629-2.964,0.963c-2.804,0.954-5.545,2.022-8.224,3.191     c-16.035-11.588-29.812-25.769-40.833-41.969c-2.921-4.294-8.242-6.284-13.223-4.817c-18.891,5.568-40.808,8.855-59.871,8.855     c-3.561,0-7.068-0.12-10.507-0.353c-9.051-0.613-15.463,8.629-11.694,16.882c17.601,38.538,42.501,73.398,73.512,102.682     c-1.33,8.126-1.778,16.497-1.213,24.992l0.753,11.307c0.21,3.154,2.83,5.605,5.991,5.605h120.481c2.74,0,5.149-1.816,5.901-4.451     l0.013-0.044c6.629-23.186,20.991-43.806,40.437-58.061c30.958-22.691,50.435-56.645,55.55-93.155     C397.876,227.712,394.481,223.114,389.516,222.375z"/>
			<path d="M149.13,133.896c0-41.115-33.451-74.566-74.566-74.566C33.449,59.33,0,92.781,0,133.896s33.45,74.566,74.565,74.566     S149.13,175.011,149.13,133.896z"/>
			<path d="M507.822,72.315C492.187,20.293,437.14-9.31,385.123,6.325c-1.72,0.516-3.424,1.081-5.11,1.693     c-2.563,0.928-3.038,4.367-0.828,5.964c17.203,12.441,29.473,34.873,34.548,58.136c8.917,40.883-17.087,90.093-57.16,102.136     c-0.02,0.006-0.04,0.012-0.06,0.018c-2.679,0.809-3.235,4.379-0.974,6.028c6.551,4.776,13.694,8.766,21.276,11.811     c11.688,4.694,24.17,7.058,36.674,7.057c9.549,0,19.115-1.379,28.343-4.153C493.853,179.379,523.456,124.336,507.822,72.315z"/>
			<path d="M280.38,154.147c11.209,6.029,23.467,9.09,35.845,9.09c7.336,0,14.718-1.076,21.942-3.247     c40.072-12.044,62.877-54.444,50.835-94.518c-12.044-40.073-54.446-62.878-94.518-50.835     c-19.412,5.834-35.391,18.879-44.993,36.731c-9.601,17.852-11.676,38.375-5.841,57.787     C249.485,128.567,262.528,144.546,280.38,154.147z"/>
		</g>
	</g>
</g>
<g>
</g>
<g>
</g>
<g>
</g>
<g>
</g>
<g>
</g>
<g>
</g>
<g>
</g>
<g>
</g>
<g>
</g>
<g>
</g>
<g>
</g>
<g>
</g>
<g>
</g>
<g>
</g>
<g>
</g>
</svg>
