<?xml version="1.0" encoding="iso-8859-1"?>
<!-- Generator: Adobe Illustrator 19.0.0, SVG Export Plug-In . SVG Version: 6.00 Build 0)  -->
<svg xmlns="http://www.w3.org/2000/svg" xmlns:xlink="http://www.w3.org/1999/xlink" version="1.1" id="Capa_1" x="0px" y="0px" viewBox="0 0 511.999 511.999" style="enable-background:new 0 0 511.999 511.999;" xml:space="preserve">
<g>
	<g>
		<path d="M511.891,394.158l-16.991-193.91c-0.443-4.886-2.183-9.551-5.013-13.466l-55.88-77.666    c-6.997-9.621-19.713-13.635-30.926-9.759l-90.151,32.551l-4.298-21.718c-1.76-9.093-8.222-16.801-16.878-20.125    c-8.583-3.294-18.51-1.961-25.946,3.509l-9.811,7.261l-9.847-7.288c-7.401-5.444-17.328-6.777-25.908-3.482    c-8.662,3.326-15.126,11.04-16.882,20.137l-4.295,21.706L109.11,99.425l-0.195-0.068c-11.212-3.875-23.928,0.139-30.97,9.821    L22.13,186.753c-2.85,3.94-4.59,8.607-5.038,13.544L0.109,394.116c-1.086,12.019,6.019,23.441,17.203,27.747    c3.177,1.242,6.503,1.842,9.807,1.842c8.201,0,16.264-3.689,21.556-10.369l74.73-95.252l9.136,22.316    c0.406,1.009,0.87,1.985,1.387,2.925c1.053,1.913,3.905,1.562,4.456-0.551l29.844-114.415c2.095-8.031,10.303-12.844,18.337-10.75    c8.032,2.095,12.844,10.304,10.75,18.337l-30.112,115.442c-0.537,2.058,1.642,3.721,3.515,2.714    c0.702-0.378,1.392-0.788,2.065-1.229l34.583-22.747l1.273,3.92c2.64,7.908,8.558,14.084,16.254,16.948    c7.64,2.834,16.337,2.082,23.28-2.011l7.826-4.564l7.818,4.559c6.943,4.099,15.642,4.852,23.302,2.01    c7.68-2.859,13.6-9.034,16.24-16.942l1.273-3.92l34.596,22.756c0.016,0.01,0.032,0.021,0.048,0.031    c1.823,1.19,4.152-0.555,3.603-2.661l-29.816-114.305c-2.095-8.033,2.718-16.242,10.75-18.337    c8.038-2.094,16.242,2.718,18.337,10.75l30.331,116.281c0.52,1.996,3.169,2.478,4.321,0.768c1.047-1.554,1.939-3.227,2.653-5.003    l9.136-22.32l74.776,95.309c5.266,6.647,13.331,10.324,21.511,10.324c3.283,0,6.586-0.593,9.733-1.825    C505.87,417.555,512.974,406.134,511.891,394.158z"/>
	</g>
</g>
<g>
</g>
<g>
</g>
<g>
</g>
<g>
</g>
<g>
</g>
<g>
</g>
<g>
</g>
<g>
</g>
<g>
</g>
<g>
</g>
<g>
</g>
<g>
</g>
<g>
</g>
<g>
</g>
<g>
</g>
</svg>
