<?xml version="1.0" encoding="iso-8859-1"?>
<!-- Generator: Adobe Illustrator 19.0.0, SVG Export Plug-In . SVG Version: 6.00 Build 0)  -->
<svg xmlns="http://www.w3.org/2000/svg" xmlns:xlink="http://www.w3.org/1999/xlink" version="1.1" id="Capa_1" x="0px" y="0px" viewBox="0 0 512.002 512.002" style="enable-background:new 0 0 512.002 512.002;" xml:space="preserve">
<g>
	<g>
		<path d="M421.163,404.219c-16.564,11.161-35.914,17.06-55.958,17.06c-55.356,0-100.391-45.035-100.391-100.391    c0-55.361,45.035-100.4,100.391-100.4c20.043,0,39.393,5.9,55.958,17.061l0.105,0.07c4.15,2.746,8.966,4.197,13.927,4.197h0.135    c13.83,0,25.082-11.252,25.082-25.082c0-6.573-2.604-12.908-7.183-17.577c-36.481-44.134-90.127-69.424-147.321-69.424    c-105.385,0-191.121,85.751-191.121,191.155c0,105.38,85.736,191.113,191.121,191.113c58.048,0,112.281-25.958,148.801-71.224    c7.756-9.574,7.306-23.641-1.051-32.727C445.218,398.874,431.568,397.253,421.163,404.219z"/>
	</g>
</g>
<g>
	<g>
		<path d="M445.305,314.966l-0.002-0.009c-1.127-6.281-6.262-21.189-29.564-24.482l-0.367-0.052    c-2.586-0.35-4.636-2.311-5.099-4.856c-3.859-21.444-17.727-29.084-29.417-29.084c-6.995,0-20.035,2.733-28.874,21.015    l-0.053,0.108c-1.126,2.323-3.592,3.666-6.145,3.341l-0.096-0.013c-9.716-1.329-17.997-0.028-24.6,3.871    c-5.234,3.091-9.211,7.729-11.496,13.405c-2.244,5.563-5.71,20.149,10.387,35.649l0.131,0.126c1.865,1.786,2.38,4.539,1.29,6.875    l-0.028,0.059c-7.607,15.741-4.376,26.791-0.273,33.372c4.503,7.12,11.661,11.562,20.156,12.507    c7.212,0.801,14.84-0.93,22.664-5.145l0.042-0.022c2.287-1.202,5.072-0.813,6.943,0.976l0.147,0.142    c7.855,7.476,16.159,11.268,24.714,11.268c8.079,0,15.698-3.535,20.902-9.698l0.08-0.095c6.19-7.454,8.22-17.373,6.031-29.481    l-0.008-0.044c-0.443-2.555,0.788-5.093,3.054-6.313C446.795,337.17,446.434,321.278,445.305,314.966z"/>
	</g>
</g>
<g>
	<g>
		<path d="M224.569,82.186c-3.547-7.456-9.999-14.046-19.199-19.599l-4.518-2.717c-2.237-1.346-3.345-3.959-2.756-6.502l1.19-5.142    c3.453-14.911,1.509-27.137-5.792-36.364C187.504,4.324,178.478,0,168.731,0c-9.733,0-19.169,4.06-28.874,12.431l-7.301,6.326    l-8.232-4.964c-9.307-5.6-18.809-8.223-27.485-7.606c-10.054,0.724-18.605,5.665-24.097,13.942    c-4.831,7.318-8.898,20.046-0.826,39.132l2.06,4.86c1.021,2.406,0.378,5.173-1.596,6.884l-4.014,3.479    c-20.133,17.518-17.859,34.136-14.726,42.443c2.726,7.29,12.241,23.968,41.795,21.424l5.258-0.451    c2.599-0.239,5.024,1.237,6.041,3.634l2.057,4.837c10.008,23.667,25.889,27.2,34.465,27.2c7.31,0,14.202-2.448,19.932-7.078    c7.093-5.733,12.043-14.508,14.712-26.082l2.173-9.382l9.617-0.824c10.693-0.921,19.395-3.99,25.865-9.126    c5.782-4.588,9.704-10.773,11.338-17.862C228.54,96.119,227.737,88.846,224.569,82.186z"/>
	</g>
</g>
<g>
</g>
<g>
</g>
<g>
</g>
<g>
</g>
<g>
</g>
<g>
</g>
<g>
</g>
<g>
</g>
<g>
</g>
<g>
</g>
<g>
</g>
<g>
</g>
<g>
</g>
<g>
</g>
<g>
</g>
</svg>
