<?xml version="1.0" encoding="iso-8859-1"?>
<!-- Generator: Adobe Illustrator 19.0.0, SVG Export Plug-In . SVG Version: 6.00 Build 0)  -->
<svg xmlns="http://www.w3.org/2000/svg" xmlns:xlink="http://www.w3.org/1999/xlink" version="1.1" id="Capa_1" x="0px" y="0px" viewBox="0 0 511.999 511.999" style="enable-background:new 0 0 511.999 511.999;" xml:space="preserve">
<g>
	<g>
		<path d="M199.981,46.374c-3.504-3.776-7.269-7.326-11.278-10.616C168.135,18.874,142.13,9.575,115.477,9.575    C51.803,9.575,0,61.377,0,125.051c0,24.537,7.709,47.746,21.282,66.864c5.197,7.319,16.616,4.828,18.237-4    c12.573-68.491,81.776-117.317,154.052-124.667C201.815,62.409,205.619,52.448,199.981,46.374z"/>
	</g>
</g>
<g>
	<g>
		<path d="M396.523,9.575c-26.653,0-52.659,9.298-73.226,26.182c-3.865,3.172-7.503,6.587-10.901,10.21    c-5.74,6.124-2.102,16.19,6.248,17.045c72.235,7.395,141.299,56.373,153.856,124.872c1.619,8.831,13.042,11.325,18.238,4.002    c13.56-19.111,21.261-42.31,21.261-66.835C512,61.377,460.198,9.575,396.523,9.575z"/>
	</g>
</g>
<g>
	<g>
		<path d="M323.852,222.216c-9.951,0-18.048,8.096-18.048,18.047c0,9.951,8.096,18.047,18.048,18.047    c9.952,0,18.048-8.096,18.048-18.047C341.9,230.312,333.803,222.216,323.852,222.216z"/>
	</g>
</g>
<g>
	<g>
		<path d="M296.918,89.077h-82.292c-86.472,0-156.571,70.099-156.571,156.571v60.726c0,100.079,74.741,183.026,171.337,195.961    c6.031,0.808,11.37-3.96,11.37-10.045V391.161c0-4.794-1.53-9.464-4.367-13.327l-34.331-46.758    c-0.054-0.073-0.096-0.152-0.149-0.226c-0.166-0.235-0.322-0.476-0.475-0.721c-0.113-0.18-0.226-0.359-0.329-0.542    c-0.136-0.239-0.26-0.484-0.382-0.732c-0.099-0.2-0.2-0.399-0.29-0.602c-0.103-0.234-0.195-0.473-0.286-0.714    c-0.086-0.224-0.172-0.448-0.247-0.675c-0.074-0.225-0.135-0.455-0.199-0.685c-0.069-0.249-0.137-0.498-0.193-0.75    c-0.047-0.216-0.084-0.434-0.122-0.653c-0.047-0.273-0.093-0.545-0.125-0.82c-0.024-0.208-0.039-0.418-0.055-0.628    c-0.022-0.289-0.039-0.577-0.044-0.867c-0.002-0.09-0.014-0.177-0.014-0.268c0-0.128,0.016-0.253,0.019-0.381    c0.007-0.272,0.019-0.542,0.041-0.814c0.019-0.243,0.045-0.484,0.076-0.725c0.03-0.232,0.065-0.463,0.106-0.694    c0.047-0.264,0.099-0.526,0.159-0.787c0.048-0.206,0.102-0.411,0.158-0.615c0.074-0.266,0.152-0.53,0.24-0.79    c0.068-0.203,0.143-0.403,0.22-0.602c0.095-0.246,0.193-0.49,0.301-0.73c0.096-0.214,0.2-0.425,0.306-0.635    c0.108-0.213,0.218-0.425,0.336-0.632c0.128-0.225,0.264-0.445,0.404-0.665c0.117-0.184,0.236-0.365,0.361-0.543    c0.156-0.222,0.319-0.438,0.488-0.652c0.133-0.169,0.269-0.336,0.409-0.5c0.172-0.2,0.349-0.394,0.533-0.586    c0.164-0.172,0.331-0.339,0.503-0.503c0.173-0.165,0.35-0.326,0.533-0.484c0.207-0.18,0.42-0.352,0.638-0.52    c0.1-0.077,0.19-0.163,0.292-0.238c0.072-0.053,0.149-0.095,0.222-0.146c0.236-0.167,0.479-0.325,0.727-0.479    c0.179-0.112,0.358-0.225,0.54-0.328c0.238-0.135,0.482-0.259,0.729-0.381c0.202-0.101,0.403-0.202,0.608-0.293    c0.23-0.102,0.466-0.192,0.704-0.282c0.228-0.087,0.456-0.176,0.687-0.251c0.22-0.072,0.444-0.132,0.668-0.194    c0.255-0.071,0.51-0.141,0.769-0.198c0.208-0.046,0.42-0.081,0.632-0.118c0.281-0.049,0.561-0.096,0.844-0.129    c0.2-0.023,0.403-0.038,0.606-0.053c0.297-0.022,0.593-0.04,0.89-0.045c0.087-0.001,0.171-0.013,0.259-0.013h83.219    c0.094,0,0.184,0.012,0.278,0.014c0.281,0.005,0.561,0.021,0.843,0.042c0.218,0.016,0.435,0.031,0.65,0.057    c0.267,0.031,0.532,0.076,0.799,0.122c0.226,0.039,0.451,0.076,0.674,0.125c0.245,0.054,0.488,0.121,0.732,0.188    c0.235,0.064,0.47,0.128,0.701,0.203c0.222,0.073,0.441,0.158,0.661,0.242c0.244,0.093,0.487,0.186,0.726,0.291    c0.2,0.088,0.396,0.188,0.593,0.285c0.25,0.124,0.498,0.25,0.741,0.387c0.18,0.102,0.357,0.214,0.534,0.324    c0.247,0.155,0.491,0.312,0.729,0.48c0.073,0.052,0.15,0.093,0.222,0.146c0.102,0.075,0.192,0.161,0.292,0.238    c0.217,0.168,0.43,0.34,0.638,0.52c0.183,0.158,0.359,0.319,0.533,0.484c0.172,0.164,0.339,0.331,0.503,0.503    c0.183,0.192,0.361,0.386,0.533,0.586c0.14,0.164,0.276,0.331,0.409,0.5c0.169,0.214,0.332,0.431,0.488,0.652    c0.125,0.178,0.244,0.36,0.361,0.543c0.14,0.219,0.276,0.439,0.404,0.665c0.118,0.207,0.228,0.418,0.336,0.632    c0.106,0.21,0.21,0.42,0.306,0.635c0.108,0.24,0.206,0.483,0.301,0.729c0.077,0.2,0.152,0.4,0.22,0.602    c0.088,0.26,0.166,0.523,0.24,0.79c0.057,0.204,0.11,0.409,0.158,0.615c0.06,0.26,0.113,0.521,0.159,0.787    c0.041,0.231,0.076,0.462,0.106,0.695c0.031,0.24,0.057,0.48,0.076,0.724c0.022,0.271,0.034,0.542,0.041,0.814    c0.003,0.128,0.019,0.252,0.019,0.381c0,0.091-0.012,0.178-0.014,0.268c-0.005,0.289-0.022,0.577-0.044,0.867    c-0.016,0.21-0.031,0.421-0.055,0.628c-0.032,0.274-0.078,0.547-0.125,0.82c-0.038,0.219-0.074,0.438-0.122,0.653    c-0.055,0.251-0.124,0.5-0.193,0.75c-0.063,0.23-0.125,0.46-0.199,0.685c-0.074,0.227-0.161,0.45-0.247,0.675    c-0.092,0.24-0.183,0.479-0.286,0.714c-0.09,0.203-0.191,0.402-0.29,0.602c-0.123,0.247-0.247,0.492-0.382,0.732    c-0.104,0.183-0.217,0.362-0.329,0.542c-0.153,0.244-0.308,0.485-0.475,0.721c-0.052,0.074-0.095,0.152-0.149,0.226    l-34.331,46.758c-2.837,3.865-4.367,8.533-4.367,13.327v101.129c0,6.085,5.339,10.853,11.37,10.045    c96.596-12.935,171.337-95.882,171.337-195.961v-60.725C453.49,159.176,383.391,89.077,296.918,89.077z M187.757,288.331    c-26.505,0-48.069-21.563-48.069-48.068s21.563-48.068,48.069-48.068c26.506,0,48.069,21.563,48.069,48.068    S214.261,288.331,187.757,288.331z M323.852,288.331c-26.505,0-48.069-21.563-48.069-48.068s21.563-48.068,48.069-48.068    c26.506,0,48.069,21.563,48.069,48.068S350.357,288.331,323.852,288.331z"/>
	</g>
</g>
<g>
	<g>
		<path d="M187.757,222.216c-9.951,0-18.048,8.096-18.048,18.047c0,9.951,8.096,18.047,18.048,18.047s18.048-8.096,18.048-18.047    C205.804,230.312,197.708,222.216,187.757,222.216z"/>
	</g>
</g>
<g>
</g>
<g>
</g>
<g>
</g>
<g>
</g>
<g>
</g>
<g>
</g>
<g>
</g>
<g>
</g>
<g>
</g>
<g>
</g>
<g>
</g>
<g>
</g>
<g>
</g>
<g>
</g>
<g>
</g>
</svg>
