<?xml version="1.0" encoding="iso-8859-1"?>
<!-- Generator: Adobe Illustrator 19.0.0, SVG Export Plug-In . SVG Version: 6.00 Build 0)  -->
<svg xmlns="http://www.w3.org/2000/svg" xmlns:xlink="http://www.w3.org/1999/xlink" version="1.1" id="Capa_1" x="0px" y="0px" viewBox="0 0 512.001 512.001" style="enable-background:new 0 0 512.001 512.001;" xml:space="preserve">
<g>
	<g>
		<path d="M284.291,318.69c-2.341-14.54-14.903-25.23-29.63-25.23H147.526c-14.727,0-27.289,10.691-29.63,25.23    c-6.705,41.659-10.674,78.731-10.674,93.768c0,51.762,42.111,93.872,93.872,93.872s93.872-42.111,93.872-93.872    C294.965,397.421,290.996,360.349,284.291,318.69z"/>
	</g>
</g>
<g>
	<g>
		<path d="M221.825,5.67h-41.462C80.91,5.67,0,86.58,0,186.033c0,42.295,34.411,76.706,76.707,76.706h39.658h11.818h145.821h3.653    h47.824c42.296,0,76.707-34.411,76.707-76.706C402.188,86.58,321.278,5.67,221.825,5.67z"/>
	</g>
</g>
<g>
	<g>
		<path d="M463.45,443.036c-0.653-8.948-8.124-15.868-17.095-15.868h-76.971v0.001c-8.971,0-16.443,6.92-17.095,15.867    c-0.216,2.95-0.329,5.451-0.329,7.386c0,30.828,25.081,55.908,55.909,55.908c30.827,0,55.908-25.08,55.908-55.908    C463.778,448.486,463.664,445.986,463.45,443.036z"/>
	</g>
</g>
<g>
	<g>
		<path d="M417.191,253.783h-18.647c-52.276,0-94.806,42.531-94.806,94.807c0,26.148,20.938,47.484,46.927,48.156l111.746,0.032h1.4    c26.571,0,48.189-21.617,48.189-48.188C511.999,296.312,469.468,253.783,417.191,253.783z"/>
	</g>
</g>
<g>
</g>
<g>
</g>
<g>
</g>
<g>
</g>
<g>
</g>
<g>
</g>
<g>
</g>
<g>
</g>
<g>
</g>
<g>
</g>
<g>
</g>
<g>
</g>
<g>
</g>
<g>
</g>
<g>
</g>
</svg>
