<?xml version="1.0" encoding="iso-8859-1"?>
<!-- Generator: Adobe Illustrator 19.0.0, SVG Export Plug-In . SVG Version: 6.00 Build 0)  -->
<svg xmlns="http://www.w3.org/2000/svg" xmlns:xlink="http://www.w3.org/1999/xlink" version="1.1" id="Capa_1" x="0px" y="0px" viewBox="0 0 512.002 512.002" style="enable-background:new 0 0 512.002 512.002;" xml:space="preserve">
<g>
	<g>
		<path d="M405.6,1.493c-4.794-1.658-9.937-1.089-14.172,1.298l-14.422,4.334c-27.585,8.269-49.707,29.452-59.185,56.658    c-0.459,1.328-1.708,2.207-3.106,2.207h-75.434c-2.617,0-4.964-1.568-5.952-3.995l-1.069-2.607    C222.104,34.561,201.6,15.675,176.023,7.566l-16.828-5.333c-4.354-2.477-9.638-2.956-14.571-1.119    c-6.841,2.557-11.266,8.929-11.266,16.239v222.689c0,1.575,1.687,2.552,3.068,1.794c0.036-0.02,0.072-0.039,0.108-0.059    c10.467-5.703,22.471-8.949,35.205-8.949c40.718,0,85.831,26.237,91.963,77.771l0.16,28.094    c3.176,34.376-10.567,68.672-33.877,93.271c-7.72,8.15-16.499,15.231-26.047,20.893c-0.399,0.238-0.8,0.471-1.202,0.704    c-1.864,1.076-1.037,3.935,1.113,3.835l0.09-0.004v24.647H184.79c-8.067,0-15.008,6.199-15.387,14.257    c-0.405,8.603,6.45,15.705,14.964,15.705h68.781c8.067,0,15.008-6.199,15.387-14.257c0.405-8.603-6.45-15.705-14.964-15.705    h-19.672v-28.132c29.021-5.351,56.524-16.348,81.188-32.44v60.573H295.94c-8.067,0-15.008,6.199-15.387,14.257    c-0.406,8.603,6.45,15.705,14.964,15.705h68.781c8.067,0,15.008-6.199,15.387-14.257c0.406-8.603-6.45-15.705-14.964-15.705    H345.05v-83.954c2.183-2.019,4.334-4.085,6.45-6.199c42.426-42.426,65.786-98.824,65.786-158.817v-39.809    c0,8.611-7.278,15.533-16.014,14.946c-7.961-0.535-13.87-7.461-13.95-15.439c-0.266-26.529-21.924-48.025-48.506-48.025    c-26.756,0-48.518,21.762-48.518,48.518c0,8.604-7.254,15.521-15.993,14.948c-7.973-0.523-13.891-7.457-13.972-15.447    c-0.269-26.526-21.926-48.019-48.505-48.019c-24.978,0-45.722,18.706-48.258,43.505c-0.839,8.229-8.19,14.222-16.429,13.383    c-8.229-0.839-14.222-8.2-13.373-16.429c4.105-40.139,37.662-70.42,78.06-70.42c26.077,0,49.217,12.804,63.489,32.439    c14.282-19.635,37.412-32.439,63.499-32.439c43.265,0,78.47,35.205,78.47,78.48V17.872C417.285,10.482,412.591,3.9,405.6,1.493z     M323.904,194.497c0.05-0.479,0.12-0.979,0.22-1.458c0.1-0.469,0.22-0.949,0.359-1.418c0.14-0.469,0.31-0.929,0.489-1.378    c0.19-0.449,0.399-0.899,0.629-1.328c0.23-0.43,0.479-0.849,0.749-1.258c0.28-0.409,0.569-0.809,0.879-1.178    c0.31-0.39,0.639-0.749,0.989-1.099c0.35-0.35,0.709-0.679,1.099-0.989c0.37-0.31,0.769-0.599,1.178-0.879    c0.409-0.27,0.829-0.519,1.258-0.749c0.429-0.23,0.879-0.439,1.328-0.629c0.449-0.18,0.909-0.35,1.378-0.489    s0.949-0.26,1.428-0.36c0.479-0.1,0.969-0.17,1.448-0.22c0.979-0.1,1.967-0.1,2.946,0c0.489,0.05,0.979,0.12,1.458,0.22    c0.479,0.1,0.949,0.22,1.418,0.36s0.929,0.31,1.378,0.489c0.449,0.19,0.899,0.399,1.328,0.629c0.429,0.23,0.859,0.479,1.258,0.749    c0.409,0.28,0.809,0.569,1.188,0.879c0.38,0.31,0.749,0.639,1.089,0.989c0.35,0.35,0.679,0.709,0.989,1.099    c0.31,0.37,0.609,0.769,0.879,1.178c0.27,0.409,0.519,0.829,0.749,1.258s0.439,0.879,0.629,1.328    c0.18,0.449,0.35,0.909,0.489,1.378c0.15,0.469,0.27,0.949,0.359,1.418c0.1,0.479,0.17,0.979,0.22,1.458    c0.05,0.489,0.08,0.989,0.08,1.478s-0.03,0.979-0.08,1.468s-0.12,0.979-0.22,1.458c-0.09,0.469-0.21,0.949-0.359,1.418    c-0.14,0.469-0.31,0.929-0.489,1.378c-0.19,0.449-0.399,0.899-0.629,1.328s-0.479,0.859-0.749,1.258    c-0.27,0.409-0.569,0.809-0.879,1.189c-0.31,0.38-0.639,0.749-0.989,1.089c-0.34,0.35-0.709,0.679-1.089,0.989    s-0.779,0.609-1.188,0.879c-0.399,0.27-0.829,0.519-1.258,0.749c-0.429,0.23-0.879,0.439-1.328,0.619    c-0.449,0.19-0.909,0.36-1.378,0.499c-0.469,0.14-0.939,0.26-1.418,0.36c-0.479,0.1-0.969,0.17-1.458,0.22s-0.979,0.07-1.468,0.07    c-0.489,0-0.989-0.02-1.478-0.07c-0.479-0.05-0.969-0.12-1.448-0.22c-0.479-0.1-0.959-0.22-1.428-0.36    c-0.469-0.14-0.929-0.31-1.378-0.499c-0.449-0.18-0.899-0.39-1.328-0.619c-0.429-0.23-0.849-0.479-1.258-0.749    c-0.409-0.27-0.809-0.569-1.178-0.879c-0.39-0.31-0.749-0.639-1.099-0.989c-0.35-0.34-0.679-0.709-0.989-1.089    c-0.31-0.38-0.599-0.779-0.879-1.189c-0.27-0.399-0.519-0.829-0.749-1.258s-0.439-0.879-0.629-1.328    c-0.18-0.449-0.35-0.909-0.489-1.378c-0.14-0.469-0.26-0.949-0.359-1.418c-0.1-0.479-0.17-0.969-0.22-1.458    s-0.07-0.979-0.07-1.468C323.835,195.486,323.855,194.987,323.904,194.497z M260.336,245.153c0-8.269,6.711-14.981,14.981-14.981    c8.279,0,14.981,6.711,14.981,14.981v22.501c0,8.269-6.701,14.981-14.981,14.981c-8.269,0-14.981-6.711-14.981-14.981V245.153z     M196.018,194.497c0.05-0.479,0.13-0.979,0.22-1.458c0.1-0.469,0.22-0.949,0.36-1.418c0.15-0.469,0.31-0.929,0.499-1.378    c0.19-0.449,0.399-0.899,0.629-1.328c0.23-0.429,0.479-0.849,0.749-1.258s0.559-0.809,0.869-1.178    c0.31-0.39,0.649-0.749,0.989-1.099c0.35-0.35,0.719-0.679,1.099-0.989c0.38-0.31,0.779-0.599,1.178-0.879    c0.409-0.27,0.829-0.519,1.268-0.749c0.429-0.23,0.869-0.439,1.318-0.629c0.449-0.18,0.919-0.35,1.388-0.489    c0.459-0.14,0.939-0.26,1.418-0.36s0.969-0.17,1.458-0.22c0.969-0.1,1.968-0.1,2.946,0c0.479,0.05,0.969,0.12,1.448,0.22    s0.959,0.22,1.428,0.36c0.459,0.14,0.929,0.31,1.378,0.489c0.449,0.19,0.899,0.399,1.328,0.629c0.43,0.23,0.849,0.479,1.258,0.749    c0.409,0.28,0.799,0.569,1.178,0.879c0.38,0.31,0.749,0.639,1.099,0.989c2.786,2.786,4.384,6.652,4.384,10.596    c0,3.935-1.598,7.8-4.384,10.586c-0.35,0.35-0.719,0.679-1.099,0.989s-0.779,0.609-1.178,0.879    c-0.409,0.27-0.829,0.519-1.268,0.749c-0.429,0.23-0.869,0.439-1.318,0.619c-0.449,0.19-0.919,0.36-1.378,0.499    c-0.469,0.14-0.949,0.26-1.428,0.36c-0.479,0.1-0.969,0.17-1.448,0.22c-0.489,0.05-0.989,0.07-1.478,0.07s-0.979-0.02-1.468-0.07    s-0.979-0.12-1.458-0.22c-0.479-0.1-0.959-0.22-1.418-0.36c-0.469-0.14-0.939-0.31-1.388-0.499    c-0.449-0.18-0.889-0.39-1.318-0.619c-0.439-0.23-0.859-0.479-1.268-0.749c-0.399-0.27-0.799-0.569-1.178-0.879    c-0.38-0.31-0.749-0.639-1.099-0.989c-0.34-0.34-0.679-0.709-0.989-1.089c-0.31-0.38-0.599-0.779-0.869-1.189    c-0.27-0.399-0.519-0.829-0.749-1.258c-0.23-0.429-0.439-0.879-0.629-1.328s-0.35-0.909-0.499-1.378    c-0.14-0.469-0.26-0.949-0.36-1.418c-0.09-0.479-0.17-0.969-0.22-1.458s-0.07-0.979-0.07-1.468S195.968,194.987,196.018,194.497z"/>
	</g>
</g>
<g>
	<g>
		<path d="M169.256,252.676c-12.991-0.12-25.242,3.139-35.898,8.946c-23.001,12.524-38.641,36.923-38.641,64.897v51.002    c0,1.292,1.177,2.265,2.446,2.023l20.105-3.837c0.759-0.14,1.498-0.3,2.237-0.479c4.634-1.079,8.839-2.717,12.524-4.874    c12.484-7.301,20.753-19.715,22.691-34.047c1.099-8.21,8.649-13.952,16.849-12.854c0.468,0.063,0.926,0.154,1.377,0.258    c0.129,0.03,0.256,0.066,0.383,0.099c0.329,0.085,0.652,0.18,0.97,0.286c0.131,0.043,0.262,0.087,0.391,0.134    c0.348,0.127,0.688,0.266,1.023,0.415c0.076,0.034,0.155,0.064,0.231,0.1c0.411,0.193,0.809,0.403,1.196,0.631    c0.074,0.043,0.144,0.092,0.217,0.136c0.309,0.188,0.609,0.387,0.902,0.595c0.106,0.076,0.211,0.154,0.315,0.233    c0.266,0.2,0.522,0.409,0.773,0.626c0.088,0.076,0.179,0.15,0.265,0.229c0.654,0.593,1.254,1.241,1.793,1.938    c0.072,0.093,0.14,0.19,0.21,0.284c0.196,0.266,0.383,0.537,0.562,0.816c0.068,0.107,0.137,0.213,0.203,0.322    c0.193,0.318,0.374,0.643,0.542,0.975c0.031,0.06,0.065,0.118,0.095,0.179c0.199,0.404,0.38,0.819,0.542,1.242    c0.024,0.063,0.044,0.127,0.067,0.19c0.132,0.359,0.251,0.723,0.356,1.093c0.03,0.105,0.058,0.212,0.085,0.318    c0.475,1.829,0.617,3.776,0.348,5.765c-3.176,23.54-16.759,43.914-37.262,55.909c-7.221,4.225-15.39,7.221-24.259,8.919    l-6.112,1.169l-20.388,3.886c-0.972,0.185-1.674,1.035-1.674,2.023v15.824c0,16.295,13.164,29.596,29.459,29.622    c1.256,0.002,2.512-0.018,3.768-0.06c0.419,0.04,0.839,0.06,1.268,0.06h2.317c-0.08-0.068-0.16-0.143-0.24-0.211    c61.877-3.6,111.118-55.082,111.118-117.853v-12.003C242.408,286.907,209.947,253.053,169.256,252.676z"/>
	</g>
</g>
<g>
</g>
<g>
</g>
<g>
</g>
<g>
</g>
<g>
</g>
<g>
</g>
<g>
</g>
<g>
</g>
<g>
</g>
<g>
</g>
<g>
</g>
<g>
</g>
<g>
</g>
<g>
</g>
<g>
</g>
</svg>
