<?xml version="1.0" encoding="iso-8859-1"?>
<!-- Generator: Adobe Illustrator 19.0.0, SVG Export Plug-In . SVG Version: 6.00 Build 0)  -->
<svg xmlns="http://www.w3.org/2000/svg" xmlns:xlink="http://www.w3.org/1999/xlink" version="1.1" id="Capa_1" x="0px" y="0px" viewBox="0 0 511.999 511.999" style="enable-background:new 0 0 511.999 511.999;" xml:space="preserve">
<g>
	<g>
		<path d="M416.596,65.999C374.038,23.438,317.452,0,257.265,0C197.077,0,140.491,23.438,97.932,65.997    c-42.559,42.56-65.998,99.145-65.998,159.333c0,24.574,3.957,48.698,11.624,71.597c1.685,5.031,7.75,7.075,12.114,4.06    c12.485-8.626,27.019-14.489,42.711-16.692c2.777-0.39,5.148-2.173,6.283-4.737c0.403-0.911,0.815-1.817,1.236-2.718    c0.759-1.625,0.91-3.462,0.501-5.209c-10.171-43.363-4.31-84.763,17.481-119.45c26.961-42.917,75.098-69.444,128.769-70.958    c50.83-1.419,102.194,25.511,130.87,68.645c22.842,34.359,29.503,75.513,19.838,118.869c-0.45,2.021-0.148,4.143,0.924,5.915    c7.139,11.788,12.375,24.321,15.151,37.283c0.71,3.314,3.472,5.807,6.839,6.207c8.625,1.024,16.851,3.367,24.475,6.815    c3.991,1.805,8.673,0.003,10.532-3.963c13.925-29.703,21.314-62.333,21.314-95.66C482.594,165.143,459.156,108.558,416.596,65.999    z"/>
	</g>
</g>
<g>
	<g>
		<path d="M377.474,223.452c-1.257-20.794-7.629-39.963-18.938-56.974c-11.493-17.288-27.742-31.644-46.991-41.516    c-18.605-9.542-38.682-14.292-58.047-13.748c-43.634,1.231-82.591,22.513-104.21,56.927c-9.688,15.421-15.383,32.66-17.088,51.057    c-0.663,7.149,7.557,11.529,13.108,6.977c1.839-1.508,3.72-2.976,5.643-4.402c25.113-18.636,72.364-32.686,103.719-32.686    c37.555,0,78.049,15.993,109.761,41.175c5.425,4.307,13.462,0.283,13.054-6.632C377.482,223.57,377.478,223.511,377.474,223.452z"/>
	</g>
</g>
<g>
	<g>
		<path d="M397.511,344.411c-10.888-69.701-71.169-122.369-143.223-122.369c-31.355,0-61.203,9.85-86.316,28.485    c-21.64,16.058-38.098,37.338-48.068,61.995c-50.697,4.784-90.5,47.585-90.5,99.512c0,55.121,44.844,99.965,99.965,99.965    c20.114,0,39.69-6.099,56.183-17.308c21.045,11.348,44.599,17.308,68.736,17.308c28.575,0,56.535-8.51,80.175-24.189    c15.559,15.349,36.678,24.189,58.909,24.189c46.234,0,83.847-37.613,83.847-83.847    C477.219,383.308,441.829,346.578,397.511,344.411z"/>
	</g>
</g>
<g>
</g>
<g>
</g>
<g>
</g>
<g>
</g>
<g>
</g>
<g>
</g>
<g>
</g>
<g>
</g>
<g>
</g>
<g>
</g>
<g>
</g>
<g>
</g>
<g>
</g>
<g>
</g>
<g>
</g>
</svg>
