<?xml version="1.0" encoding="iso-8859-1"?>
<!-- Generator: Adobe Illustrator 19.0.0, SVG Export Plug-In . SVG Version: 6.00 Build 0)  -->
<svg xmlns="http://www.w3.org/2000/svg" xmlns:xlink="http://www.w3.org/1999/xlink" version="1.1" id="Capa_1" x="0px" y="0px" viewBox="0 0 512 512" style="enable-background:new 0 0 512 512;" xml:space="preserve">
<g>
	<g>
		<path d="M174.617,44.96C167.076,34.417,140.64,0,117.185,0C93.19,0,66.864,34.447,59.373,45    c-20.564,28.986-32.367,61.033-32.367,87.949c0,29.546,9.262,53.822,26.776,70.205c12.693,11.873,29.226,19.274,48.4,21.775    v-56.652L81.658,138.59c-4.711-6.821-3.001-16.163,3.811-20.875c6.821-4.711,16.163-3.001,20.874,3.811l11.252,16.273    l11.252-16.273c4.711-6.821,14.053-8.522,20.864-3.811c6.821,4.711,8.522,14.053,3.811,20.875l-21.335,30.877v55.452    c19.164-2.491,35.698-9.892,48.39-21.765c17.514-16.383,26.776-40.659,26.776-70.205    C207.355,106.143,195.422,74.066,174.617,44.96z"/>
	</g>
</g>
<g>
	<g>
		<path d="M117.185,225.879c-5.161,0-10.162-0.32-15.003-0.95v59.443c0,8.282,6.711,15.003,15.003,15.003    c8.282,0,15.003-6.721,15.003-15.003v-59.453C127.347,225.558,122.346,225.879,117.185,225.879z"/>
	</g>
</g>
<g>
	<g>
		<path d="M452.257,45.1c-7.542-10.542-33.977-44.96-57.432-44.96c-23.995,0-50.321,34.447-57.812,45    c-20.564,28.986-32.367,61.033-32.367,87.949c0,29.546,9.262,53.822,26.776,70.205c12.693,11.872,29.226,19.284,48.4,21.785    v-56.672l-20.524-29.676c-4.711-6.821-3.001-16.163,3.811-20.874c6.821-4.711,16.164-3.011,20.875,3.811l11.252,16.273    l11.252-16.273c4.711-6.821,14.053-8.522,20.865-3.811c6.821,4.711,8.522,14.053,3.811,20.875l-21.335,30.877v55.462    c19.164-2.491,35.698-9.902,48.39-21.775c17.514-16.384,26.776-40.659,26.776-70.205C484.994,106.273,473.062,74.206,452.257,45.1    z"/>
	</g>
</g>
<g>
	<g>
		<path d="M394.825,226.029c-5.161,0-10.162-0.32-15.003-0.95v59.433c0,8.282,6.711,15.003,15.003,15.003    c8.282,0,15.003-6.721,15.003-15.003v-59.443C404.987,225.708,399.986,226.029,394.825,226.029z"/>
	</g>
</g>
<g>
	<g>
		<path d="M313.797,257.595c-7.542-10.552-33.967-44.97-57.432-44.97c-23.995,0-50.311,34.447-57.802,45.01    c-20.574,28.976-32.367,61.033-32.367,87.939c0,29.546,9.252,53.832,26.766,70.205c12.693,11.873,29.226,19.274,48.4,21.775    v-56.652l-20.514-29.686c-4.721-6.811-3.011-16.163,3.801-20.874c6.821-4.711,16.163-3.001,20.874,3.811l11.252,16.273    l11.252-16.273c4.711-6.811,14.063-8.522,20.875-3.811s8.522,14.063,3.811,20.874l-21.345,30.877v55.462    c19.174-2.501,35.708-9.902,48.4-21.775c17.514-16.374,26.766-40.659,26.766-70.205    C346.534,318.768,334.602,286.702,313.797,257.595z"/>
	</g>
</g>
<g>
	<g>
		<path d="M256.365,438.514c-5.151,0-10.162-0.32-15.003-0.96v59.443c0,8.282,6.721,15.003,15.003,15.003    c8.282,0,15.003-6.721,15.003-15.003v-59.443C266.527,438.194,261.516,438.514,256.365,438.514z"/>
	</g>
</g>
<g>
</g>
<g>
</g>
<g>
</g>
<g>
</g>
<g>
</g>
<g>
</g>
<g>
</g>
<g>
</g>
<g>
</g>
<g>
</g>
<g>
</g>
<g>
</g>
<g>
</g>
<g>
</g>
<g>
</g>
</svg>
