<?xml version="1.0" encoding="iso-8859-1"?>
<!-- Generator: Adobe Illustrator 19.0.0, SVG Export Plug-In . SVG Version: 6.00 Build 0)  -->
<svg xmlns="http://www.w3.org/2000/svg" xmlns:xlink="http://www.w3.org/1999/xlink" version="1.1" id="Capa_1" x="0px" y="0px" viewBox="0 0 512 512" style="enable-background:new 0 0 512 512;" xml:space="preserve">
<g>
	<g>
		<path d="M332.568,116.431h-63.673l-4.342-28.611c-3.731-24.588,9.494-48.907,32.162-59.139    c7.553-3.409,10.912-12.296,7.502-19.849c-3.409-7.552-12.295-10.908-19.848-7.502c-34.876,15.743-55.224,53.159-49.483,90.99    l3.659,24.11h-59.113c-74.281,0-134.497,60.217-134.497,134.497v5.751v0.084c0.005,4.44,3.642,8.073,8.082,8.073h405.882    c4.486,0,8.161-3.671,8.166-8.157v-5.752C467.065,176.647,406.848,116.431,332.568,116.431z"/>
	</g>
</g>
<g>
	<g>
		<path d="M445.88,310.567c-0.204-8.746-7.361-15.722-16.11-15.722H82.219c-8.761,0-15.923,6.994-16.109,15.752    c-0.079,3.734-0.12,7.532-0.12,11.392c0,57.926,45.832,105.71,84.282,135.595C188.221,487.08,236.639,512,256.001,512    c18.59,0,67.74-25.419,105.181-54.397c38.698-29.95,84.829-77.79,84.829-135.613C446.011,318.119,445.966,314.312,445.88,310.567z    "/>
	</g>
</g>
<g>
</g>
<g>
</g>
<g>
</g>
<g>
</g>
<g>
</g>
<g>
</g>
<g>
</g>
<g>
</g>
<g>
</g>
<g>
</g>
<g>
</g>
<g>
</g>
<g>
</g>
<g>
</g>
<g>
</g>
</svg>
