<?xml version="1.0" encoding="iso-8859-1"?>
<!-- Generator: Adobe Illustrator 19.0.0, SVG Export Plug-In . SVG Version: 6.00 Build 0)  -->
<svg xmlns="http://www.w3.org/2000/svg" xmlns:xlink="http://www.w3.org/1999/xlink" version="1.1" id="Capa_1" x="0px" y="0px" viewBox="0 0 512.001 512.001" style="enable-background:new 0 0 512.001 512.001;" xml:space="preserve">
<g>
	<g>
		<path d="M295.512,335.741c-2.321-7.136-8.372-12.237-15.796-13.317l-78.358-11.387l-35.041-71.003    c-3.32-6.728-10.043-10.906-17.546-10.906c-7.502,0-14.226,4.179-17.545,10.906l-35.041,71.003l-78.358,11.387    c-7.424,1.079-13.476,6.181-15.794,13.317c-2.317,7.135-0.421,14.821,4.952,20.057l56.699,55.267l-13.385,78.039    c-1.269,7.395,1.714,14.729,7.783,19.138c3.43,2.491,7.442,3.758,11.483,3.758c3.109,0,6.235-0.75,9.124-2.269l70.084-36.846    l70.082,36.845c6.642,3.492,14.537,2.923,20.608-1.488c6.069-4.409,9.052-11.743,7.783-19.136l-13.385-78.041l56.699-55.267    C295.934,350.562,297.832,342.876,295.512,335.741z"/>
	</g>
</g>
<g>
	<g>
		<path d="M388.711,4.395c-5.86-5.86-15.363-5.86-21.224,0l-37.2,37.2c-5.861,5.86-5.861,15.363,0,21.224    c2.932,2.931,6.772,4.396,10.613,4.396c3.841,0,7.682-1.466,10.612-4.396l37.2-37.2C394.572,19.759,394.572,10.256,388.711,4.395z    "/>
	</g>
</g>
<g>
	<g>
		<path d="M309.729,83.378c-5.86-5.86-15.363-5.86-21.224,0l-37.2,37.2c-5.861,5.86-5.861,15.363,0,21.224    c2.931,2.931,6.772,4.396,10.613,4.396c3.841,0,7.682-1.466,10.612-4.396l37.2-37.2C315.59,98.742,315.59,89.239,309.729,83.378z"/>
	</g>
</g>
<g>
	<g>
		<path d="M229.75,163.356c-5.86-5.86-15.363-5.86-21.224,0l-37.2,37.2c-5.861,5.86-5.861,15.363,0,21.224    c2.932,2.931,6.773,4.396,10.613,4.396c3.841,0,7.682-1.466,10.612-4.396l37.2-37.2    C235.611,178.72,235.611,169.217,229.75,163.356z"/>
	</g>
</g>
<g>
	<g>
		<path d="M446.771,180.404c-5.86-5.86-15.363-5.86-21.223,0l-37.2,37.2c-5.861,5.86-5.861,15.363,0,21.224    c2.931,2.931,6.772,4.396,10.612,4.396s7.682-1.466,10.612-4.396l37.2-37.2C452.632,195.768,452.632,186.265,446.771,180.404z"/>
	</g>
</g>
<g>
	<g>
		<path d="M366.791,260.382c-5.859-5.861-15.362-5.861-21.223,0l-37.2,37.2c-5.861,5.86-5.861,15.363,0,21.224    c2.931,2.931,6.772,4.396,10.612,4.396s7.682-1.466,10.612-4.396l37.2-37.2C372.652,275.746,372.652,266.243,366.791,260.382z"/>
	</g>
</g>
<g>
	<g>
		<path d="M430.79,80.149c-5.86-5.86-15.363-5.86-21.224,0l-37.2,37.2c-5.861,5.86-5.861,15.363,0,21.224    c2.931,2.931,6.772,4.396,10.612,4.396s7.682-1.466,10.612-4.396l37.201-37.2C436.651,95.513,436.651,86.01,430.79,80.149z"/>
	</g>
</g>
<g>
	<g>
		<path d="M354.191,156.748c-5.86-5.861-15.363-5.861-21.223,0l-37.2,37.2c-5.861,5.86-5.861,15.363,0,21.224    c2.931,2.931,6.772,4.396,10.612,4.396s7.682-1.466,10.612-4.396l37.2-37.2C360.053,172.112,360.053,162.609,354.191,156.748z"/>
	</g>
</g>
<g>
	<g>
		<path d="M274.213,236.726c-5.859-5.86-15.362-5.86-21.223,0l-37.201,37.201c-5.861,5.86-5.861,15.363,0,21.224    c2.931,2.931,6.772,4.396,10.612,4.396s7.682-1.466,10.612-4.396l37.201-37.201C280.074,252.09,280.074,242.587,274.213,236.726z"/>
	</g>
</g>
<g>
	<g>
		<path d="M506.543,4.396c-5.86-5.86-15.363-5.86-21.224,0l-37.2,37.2c-5.861,5.86-5.861,15.363,0,21.224    c2.931,2.931,6.772,4.396,10.612,4.396s7.682-1.466,10.612-4.396l37.2-37.2C512.405,19.76,512.405,10.256,506.543,4.396z"/>
	</g>
</g>
<g>
</g>
<g>
</g>
<g>
</g>
<g>
</g>
<g>
</g>
<g>
</g>
<g>
</g>
<g>
</g>
<g>
</g>
<g>
</g>
<g>
</g>
<g>
</g>
<g>
</g>
<g>
</g>
<g>
</g>
</svg>
