<?xml version="1.0" encoding="iso-8859-1"?>
<!-- Generator: Adobe Illustrator 19.0.0, SVG Export Plug-In . SVG Version: 6.00 Build 0)  -->
<svg xmlns="http://www.w3.org/2000/svg" xmlns:xlink="http://www.w3.org/1999/xlink" version="1.1" id="Capa_1" x="0px" y="0px" viewBox="0 0 511.999 511.999" style="enable-background:new 0 0 511.999 511.999;" xml:space="preserve">
<g>
	<g>
		<path d="M499.555,210.76l-102.788-17.849c-0.098-0.017-0.195-0.021-0.293-0.036c-0.284-0.044-0.57-0.077-0.858-0.104    c-0.21-0.02-0.419-0.04-0.628-0.051c-0.279-0.015-0.559-0.018-0.841-0.017c-0.217,0.001-0.434,0.001-0.65,0.011    c-0.266,0.012-0.531,0.037-0.798,0.064c-0.227,0.023-0.454,0.045-0.679,0.078c-0.25,0.037-0.498,0.086-0.748,0.135    c-0.238,0.047-0.475,0.095-0.711,0.154c-0.231,0.058-0.46,0.127-0.69,0.196c-0.248,0.075-0.494,0.152-0.738,0.239    c-0.214,0.077-0.425,0.163-0.637,0.25c-0.251,0.104-0.5,0.211-0.745,0.328c-0.095,0.045-0.193,0.079-0.288,0.127l-85.404,42.877    c-0.326-0.292-0.662-0.575-0.994-0.862c8.219-5.22,15.807-11.921,22.524-19.991c17.151-20.6,26.595-47.82,26.595-76.644    s-9.445-56.044-26.595-76.644c-0.591-0.711-1.19-1.408-1.794-2.097l26.508-33.935c5.104-6.533,3.945-15.967-2.589-21.07    c-6.532-5.104-15.966-3.944-21.07,2.589l-25.871,33.118c-13.008-7.719-27.5-11.803-42.586-11.803    c-14.681,0-28.8,3.871-41.535,11.192L189.259,8.51c-5.104-6.534-14.537-7.693-21.07-2.589c-6.533,5.104-7.692,14.537-2.588,21.07    l25.798,33.024c-0.883,0.983-1.756,1.98-2.611,3.007c-17.151,20.6-26.595,47.82-26.595,76.644    c0,28.824,9.445,56.044,26.595,76.644c6.718,8.07,14.305,14.771,22.524,19.991c-0.31,0.267-0.622,0.531-0.928,0.804    l-84.846-42.598c-0.075-0.038-0.153-0.064-0.228-0.1c-0.283-0.136-0.57-0.261-0.862-0.379c-0.175-0.071-0.349-0.143-0.525-0.207    c-0.279-0.102-0.562-0.19-0.849-0.275c-0.195-0.058-0.39-0.118-0.586-0.168c-0.264-0.067-0.532-0.121-0.802-0.174    c-0.221-0.043-0.442-0.088-0.664-0.121c-0.246-0.037-0.494-0.061-0.744-0.085c-0.248-0.024-0.496-0.049-0.745-0.061    c-0.226-0.011-0.453-0.011-0.682-0.011c-0.274-0.001-0.547,0.001-0.82,0.016c-0.21,0.011-0.421,0.031-0.633,0.051    c-0.289,0.027-0.576,0.06-0.863,0.104c-0.093,0.014-0.186,0.018-0.279,0.034l-103.79,17.849    c-8.17,1.405-13.655,9.168-12.249,17.339c1.257,7.309,7.603,12.469,14.776,12.469c0.845,0,1.701-0.072,2.562-0.219l98.922-17.012    l76.24,38.277c-1.553,3.698-2.779,7.564-3.671,11.554h-48.677c-0.128,0-0.252,0.016-0.38,0.019    c-0.317,0.008-0.633,0.02-0.952,0.048c-0.204,0.018-0.404,0.046-0.606,0.072c-0.279,0.036-0.557,0.075-0.837,0.128    c-0.242,0.045-0.478,0.101-0.717,0.158c-0.23,0.055-0.459,0.11-0.688,0.177c-0.28,0.081-0.554,0.175-0.828,0.271    c-0.184,0.065-0.367,0.128-0.549,0.201c-0.304,0.121-0.6,0.257-0.895,0.397c-0.11,0.052-0.222,0.092-0.331,0.147l-98.301,49.769    c-7.396,3.745-10.357,12.776-6.612,20.173c2.645,5.224,7.924,8.234,13.404,8.234c2.28,0,4.595-0.521,6.769-1.622l95.102-48.151    h45.095c1.835,8.211,5.136,15.871,9.622,22.692l-63.312,22.426c-0.08,0.028-0.153,0.066-0.232,0.096    c-0.254,0.095-0.503,0.201-0.753,0.31c-0.213,0.093-0.426,0.183-0.632,0.285c-0.221,0.109-0.435,0.229-0.65,0.348    c-0.219,0.121-0.438,0.24-0.649,0.371c-0.196,0.122-0.383,0.255-0.574,0.386c-0.211,0.145-0.425,0.288-0.627,0.443    c-0.188,0.144-0.366,0.3-0.547,0.453c-0.188,0.159-0.378,0.314-0.557,0.48c-0.185,0.173-0.359,0.358-0.536,0.541    c-0.159,0.164-0.321,0.325-0.472,0.496c-0.173,0.196-0.334,0.404-0.498,0.61c-0.14,0.176-0.282,0.349-0.414,0.531    c-0.148,0.205-0.284,0.419-0.422,0.633c-0.131,0.203-0.264,0.404-0.386,0.613c-0.117,0.201-0.224,0.41-0.332,0.619    c-0.124,0.238-0.246,0.477-0.358,0.722c-0.035,0.077-0.078,0.148-0.112,0.227l-42.669,98.214    c-3.303,7.604,0.183,16.446,7.787,19.749c1.948,0.847,3.977,1.247,5.974,1.247c5.796,0,11.318-3.378,13.775-9.034l40.067-92.225    l46.033-16.306c-12.16,16.024-19.549,37.049-19.549,60.047c0,50.108,35.067,90.874,78.168,90.874s78.168-40.766,78.168-90.874    c0-23.29-7.579-44.558-20.015-60.656l47.122,16.692l40.067,92.225c2.458,5.656,7.979,9.034,13.775,9.034    c1.996,0,4.026-0.4,5.974-1.247c7.604-3.303,11.09-12.146,7.787-19.749l-42.669-98.214c-0.034-0.078-0.077-0.149-0.112-0.227    c-0.111-0.245-0.234-0.483-0.358-0.722c-0.108-0.208-0.215-0.417-0.332-0.618c-0.122-0.21-0.255-0.412-0.387-0.616    c-0.138-0.213-0.273-0.427-0.42-0.63c-0.132-0.183-0.276-0.357-0.416-0.535c-0.163-0.205-0.323-0.412-0.495-0.607    c-0.152-0.173-0.316-0.335-0.477-0.501c-0.175-0.181-0.348-0.364-0.531-0.535c-0.181-0.169-0.374-0.326-0.563-0.486    c-0.179-0.151-0.355-0.305-0.54-0.447c-0.204-0.156-0.419-0.3-0.631-0.446c-0.189-0.13-0.376-0.263-0.57-0.383    c-0.212-0.132-0.433-0.251-0.653-0.373c-0.214-0.119-0.427-0.238-0.646-0.346c-0.207-0.102-0.422-0.193-0.635-0.286    c-0.248-0.108-0.496-0.214-0.75-0.309c-0.079-0.029-0.152-0.067-0.232-0.096l-63.705-22.566    c4.407-6.792,7.649-14.401,9.441-22.552h45.668l95.102,48.151c2.174,1.101,4.488,1.622,6.769,1.622    c5.479,0,10.76-3.011,13.404-8.234c3.745-7.396,0.785-16.428-6.612-20.173l-98.301-49.769c-0.11-0.056-0.223-0.095-0.333-0.148    c-0.292-0.139-0.586-0.274-0.89-0.395c-0.186-0.074-0.373-0.139-0.561-0.205c-0.268-0.095-0.537-0.187-0.813-0.267    c-0.235-0.069-0.471-0.125-0.708-0.182c-0.23-0.055-0.459-0.109-0.693-0.153c-0.288-0.054-0.575-0.095-0.865-0.132    c-0.192-0.025-0.383-0.051-0.577-0.068c-0.328-0.029-0.656-0.042-0.984-0.05c-0.12-0.003-0.236-0.018-0.357-0.018h-49.353    c-0.882-3.885-2.08-7.65-3.59-11.255l76.822-38.569l97.909,17.001c0.87,0.151,1.733,0.224,2.586,0.224    c7.163,0,13.505-5.146,14.772-12.445C513.195,219.95,507.723,212.178,499.555,210.76z"/>
	</g>
</g>
<g>
</g>
<g>
</g>
<g>
</g>
<g>
</g>
<g>
</g>
<g>
</g>
<g>
</g>
<g>
</g>
<g>
</g>
<g>
</g>
<g>
</g>
<g>
</g>
<g>
</g>
<g>
</g>
<g>
</g>
</svg>
