<?xml version="1.0" encoding="iso-8859-1"?>
<!-- Generator: Adobe Illustrator 19.0.0, SVG Export Plug-In . SVG Version: 6.00 Build 0)  -->
<svg xmlns="http://www.w3.org/2000/svg" xmlns:xlink="http://www.w3.org/1999/xlink" version="1.1" id="Capa_1" x="0px" y="0px" viewBox="0 0 512.001 512.001" style="enable-background:new 0 0 512.001 512.001;" xml:space="preserve">
<g>
	<g>
		<path d="M296.107,416.426l-6.514-29.632c-0.585-2.663-2.113-5.013-4.276-6.672c-3.356-2.572-6.567-5.381-9.61-8.417l-11.73-11.701    c-4.483-4.471-11.741-4.462-16.212,0.021l-11.296,11.325c-3.688,3.697-7.604,7.034-11.703,10.01    c-2.238,1.625-3.84,3.975-4.479,6.667l-3.219,13.572c-4.34,18.297-12.582,35.581-24.916,49.777    c-9.295,10.698-11.612,25.508-6.051,38.614c5.415,12.762,17.3,21.173,31.032,21.95c0.719,0.04,1.443,0.061,2.178,0.061    c0.015,0,0.028,0,0.043,0c23.938-0.03,46.263-10.752,61.252-29.417C295.595,463.92,301.246,439.806,296.107,416.426z"/>
	</g>
</g>
<g>
	<g>
		<path d="M412.47,204.402l-19.846-19.796l19.393-19.442c37.705-37.801,37.627-99.23-0.173-136.936    C374.044-9.476,312.615-9.4,274.908,28.4l-19.393,19.442l-19.037-18.989c-37.8-37.704-99.228-37.628-136.936,0.172    c-18.3,18.347-28.345,42.734-28.274,68.653c0.071,26.003,10.936,50.817,29.346,69.181l18.136,18.091l-19.393,19.442    c-37.705,37.801-37.627,99.23,0.173,136.936c18.871,18.824,43.625,28.229,68.38,28.229c24.835,0,49.673-9.471,68.557-28.401    l10.705-10.732c4.798-4.81,12.586-4.82,17.397-0.022l11.137,11.109c18.282,18.236,42.56,28.275,68.378,28.274    c0.041,0,0.084,0,0.125,0c25.865-0.033,50.167-10.136,68.433-28.447C450.348,303.537,450.271,242.107,412.47,204.402z     M317.113,236.267l-8.599,8.62c-6.486,6.504-15.118,10.091-24.304,10.103c-9.132,0-17.891-3.622-24.358-10.071l-2.896-2.889    c-0.041-0.041-0.109-0.041-0.15,0l-2.793,2.8c-6.452,6.468-15.212,10.103-24.348,10.103c-9.17,0-17.792-3.565-24.285-10.043    l-8.153-8.132c-6.455-6.438-10.404-15.077-10.564-24.193c-0.165-9.4,3.414-18.267,10.038-24.907l2.791-2.798    c0.041-0.041,0.041-0.109,0-0.15l-2.208-2.202c-6.454-6.438-10.403-15.077-10.563-24.192c-0.165-9.4,3.414-18.267,10.038-24.907    l8.598-8.619c6.486-6.504,15.117-10.092,24.303-10.103h0.045c9.105,0,17.838,3.611,24.285,10.041l2.674,2.667    c0.041,0.041,0.108,0.041,0.15,0l2.549-2.555c6.513-6.529,15.326-10.244,24.547-10.346h0.044c8.994-0.1,17.65,3.423,24.018,9.776    l8.422,8.401c6.454,6.438,10.403,15.078,10.563,24.192c0.165,9.4-3.414,18.266-10.038,24.906l-2.791,2.798    c-0.041,0.041-0.041,0.109,0,0.15l2.925,2.918C330.476,201.024,330.503,222.841,317.113,236.267z"/>
	</g>
</g>
<g>
	<g>
		<path d="M295.533,209.205l-13.788-13.749c-0.744-0.742-1.397-1.544-1.955-2.387c-1.677-2.532-2.517-5.456-2.52-8.38    c-0.005-3.899,1.478-7.8,4.449-10.779c0.002-0.002,0.003-0.003,0.005-0.005l13.621-13.656c0.948-0.951,1.146-2.032,1.145-2.772    c-0.001-0.74-0.201-1.822-1.151-2.769l-8.619-8.598c-0.947-0.945-2.025-1.144-2.767-1.144c-0.001,0-0.003,0-0.005,0    c-0.74,0.001-1.821,0.201-2.769,1.151l-13.628,13.662c-5.941,5.957-15.588,5.969-21.546,0.027l-13.535-13.502    c-0.947-0.945-2.026-1.145-2.767-1.145c-0.002,0-0.004,0-0.005,0c-0.74,0.001-1.821,0.202-2.769,1.151l-8.599,8.619    c-0.947,0.95-1.145,2.031-1.144,2.772c0.001,0.74,0.201,1.822,1.151,2.77l13.534,13.501l0.001,0.001    c0.143,0.142,0.266,0.297,0.402,0.443c0.218,0.235,0.444,0.466,0.645,0.712c0.056,0.068,0.101,0.141,0.155,0.21    c0.263,0.334,0.521,0.671,0.752,1.022c0.046,0.07,0.082,0.144,0.127,0.215c0.227,0.355,0.447,0.713,0.641,1.082    c0.058,0.111,0.102,0.227,0.158,0.338c0.166,0.334,0.332,0.669,0.471,1.013c0.026,0.064,0.043,0.13,0.068,0.194    c0.155,0.396,0.301,0.795,0.422,1.201c0.007,0.024,0.011,0.048,0.018,0.072c0.131,0.447,0.244,0.9,0.333,1.355    c0.022,0.112,0.03,0.226,0.049,0.339c0.063,0.369,0.125,0.737,0.161,1.11c0.025,0.259,0.026,0.52,0.038,0.78    c0.01,0.227,0.033,0.453,0.033,0.68c0,0.215-0.021,0.43-0.03,0.645c-0.011,0.272-0.012,0.544-0.038,0.815    c-0.029,0.305-0.083,0.607-0.13,0.91c-0.028,0.18-0.043,0.36-0.077,0.539c-0.155,0.806-0.391,1.598-0.676,2.375    c-0.055,0.149-0.097,0.302-0.156,0.449c-0.08,0.198-0.182,0.389-0.27,0.584c-0.117,0.257-0.224,0.517-0.355,0.768    c-0.353,0.673-0.776,1.317-1.237,1.941c-0.145,0.197-0.278,0.4-0.434,0.591c-0.069,0.085-0.151,0.162-0.222,0.246    c-0.263,0.31-0.529,0.618-0.821,0.911l-13.626,13.661c-0.948,0.951-1.146,2.031-1.145,2.772c0,0.74,0.201,1.822,1.151,2.77    l8.619,8.597c0.947,0.945,2.025,1.145,2.767,1.145c0.001,0,0.003,0,0.005,0c0.74,0,1.821-0.201,2.769-1.151l13.623-13.656    c0.002-0.002,0.003-0.003,0.005-0.005c0.382-0.383,0.781-0.74,1.193-1.075c4.435-3.606,10.424-4.337,15.499-2.206    c1.763,0.74,3.419,1.819,4.857,3.253l13.786,13.751c0.95,0.948,2.049,1.172,2.772,1.145c0.74-0.001,1.821-0.201,2.769-1.151    l8.599-8.62C297.065,213.216,297.063,210.731,295.533,209.205z"/>
	</g>
</g>
<g>
</g>
<g>
</g>
<g>
</g>
<g>
</g>
<g>
</g>
<g>
</g>
<g>
</g>
<g>
</g>
<g>
</g>
<g>
</g>
<g>
</g>
<g>
</g>
<g>
</g>
<g>
</g>
<g>
</g>
</svg>
