<?xml version="1.0" encoding="iso-8859-1"?>
<!-- Generator: Adobe Illustrator 19.0.0, SVG Export Plug-In . SVG Version: 6.00 Build 0)  -->
<svg xmlns="http://www.w3.org/2000/svg" xmlns:xlink="http://www.w3.org/1999/xlink" version="1.1" id="Capa_1" x="0px" y="0px" viewBox="0 0 512 512" style="enable-background:new 0 0 512 512;" xml:space="preserve">
<g>
	<g>
		<path d="M462.79,362.107c-8.296,0-15.022,6.726-15.022,15.022c0,23.671-19.258,42.929-42.929,42.929    c-23.672,0-42.93-19.258-42.93-42.929V258.964h19.881c21.545,0,39.074-17.527,39.074-39.073v-56.053    C420.861,73.498,347.365,0,257.024,0S93.185,73.498,93.185,163.838v56.053c0,21.545,17.528,39.073,39.074,39.073h17.832v118.166    c0,23.671-19.258,42.929-42.929,42.929c-23.671,0-42.929-19.258-42.929-42.929c0-8.296-6.726-15.022-15.022-15.022    c-8.296,0-15.022,6.726-15.022,15.022c0,40.237,32.736,72.973,72.973,72.973s72.973-32.736,72.973-72.973V258.964h31.938v153.39    c0,38.14-31.029,69.169-69.169,69.169c-8.296,0-15.022,6.726-15.022,15.022c0,8.296,6.726,15.022,15.022,15.022    c54.706,0,99.213-44.507,99.213-99.213v-153.39h27.811v153.823c0,54.706,44.507,99.213,99.213,99.213    c8.296,0,15.022-6.726,15.022-15.022s-6.726-15.022-15.022-15.022c-38.14,0-69.169-31.029-69.169-69.169V258.964h31.894v118.166    c0,40.237,32.736,72.973,72.974,72.973c40.237,0,72.973-32.736,72.973-72.973C477.812,368.833,471.086,362.107,462.79,362.107z     M203.656,184.86c-22.988,0-41.692-18.703-41.692-41.691s18.703-41.692,41.692-41.692c22.988,0,41.691,18.703,41.691,41.692    S226.644,184.86,203.656,184.86z M310.092,184.86c-22.988,0-41.692-18.702-41.692-41.691c0-22.988,18.703-41.692,41.692-41.692    c22.988,0,41.692,18.703,41.692,41.692S333.08,184.86,310.092,184.86z"/>
	</g>
</g>
<g>
	<g>
		<path d="M203.656,131.522c-6.422,0-11.648,5.226-11.648,11.648s5.226,11.648,11.648,11.648c6.422,0,11.648-5.226,11.648-11.648    S210.078,131.522,203.656,131.522z"/>
	</g>
</g>
<g>
	<g>
		<path d="M310.092,131.522c-6.422,0-11.648,5.226-11.648,11.648s5.226,11.648,11.648,11.648c6.422,0,11.648-5.226,11.648-11.648    S316.514,131.522,310.092,131.522z"/>
	</g>
</g>
<g>
</g>
<g>
</g>
<g>
</g>
<g>
</g>
<g>
</g>
<g>
</g>
<g>
</g>
<g>
</g>
<g>
</g>
<g>
</g>
<g>
</g>
<g>
</g>
<g>
</g>
<g>
</g>
<g>
</g>
</svg>
