<?xml version="1.0" encoding="iso-8859-1"?>
<!-- Generator: Adobe Illustrator 19.0.0, SVG Export Plug-In . SVG Version: 6.00 Build 0)  -->
<svg xmlns="http://www.w3.org/2000/svg" xmlns:xlink="http://www.w3.org/1999/xlink" version="1.1" id="Capa_1" x="0px" y="0px" viewBox="0 0 512.001 512.001" style="enable-background:new 0 0 512.001 512.001;" xml:space="preserve">
<g>
	<g>
		<path d="M432.396,160.775c-13.887,0-27.595,3.655-39.638,10.57l-64.13,36.825c-1.157,0.665-1.493,2.185-0.711,3.267    c7.26,10.045,11.554,22.368,11.554,35.682v110.811c0,9.786,7.248,18.059,16.949,19.346l85.984,11.303    c2.678,0.352,5.356,0.525,8.024,0.525c14.847-0.001,29.307-5.376,40.604-15.285c13.327-11.69,20.97-28.562,20.97-46.289v-87.153    C512,196.486,476.29,160.775,432.396,160.775z"/>
	</g>
</g>
<g>
	<g>
		<path d="M463.502,420.809c-0.519-6.466-5.883-11.465-12.37-11.459h-0.105c-2.668,0-5.347-0.173-8.024-0.525l-85.984-11.303    l-0.403-0.054c-9.081-1.205-17.146,5.86-17.146,15.021v18.936c0,4.81-0.561,9.491-1.62,13.982    c-2.232,9.468,2.746,19.141,11.849,22.567l34.617,13.03c6.706,2.524,13.738,3.765,20.751,3.765c11.501,0,22.942-3.342,32.76-9.846    c15.683-10.39,25.11-27.03,25.864-45.648c0.034-0.824,0.051-1.651,0.051-2.484C463.742,424.779,463.661,422.783,463.502,420.809z"/>
	</g>
</g>
<g>
	<g>
		<path d="M251.441,150.345c-2.873-15.849-7.992-31.838-15.282-47.273c-15.826-33.513-40.074-60.801-68.28-76.839    c-29.722-16.901-60.395-19.543-86.44-7.462c-7.452,3.457-11.135,12.225-7.866,19.762c3.388,7.811,12.535,11.216,20.176,7.608    c17.061-8.057,38.12-5.863,59.298,6.177c22.885,13.013,42.765,35.588,55.978,63.568c6.195,13.119,10.529,26.615,12.938,39.883    c1.447,7.964,9.138,13.087,17.104,11.656c0.131-0.023,0.262-0.047,0.393-0.07C247.487,165.955,252.895,158.363,251.441,150.345z"/>
	</g>
</g>
<g>
	<g>
		<path d="M431.835,18.771c-26.044-12.08-56.716-9.438-86.438,7.463c-28.205,16.038-52.453,43.326-68.279,76.839    c-7.286,15.428-12.402,31.406-15.277,47.246c-1.462,8.062,4.012,15.694,12.096,17.028c0.14,0.023,0.279,0.046,0.418,0.07    c7.915,1.346,15.525-3.76,16.959-11.66c2.409-13.264,6.743-26.756,12.936-39.871c13.212-27.98,33.093-50.554,55.978-63.568    c21.176-12.041,42.236-14.234,59.297-6.177c7.642,3.609,16.79,0.203,20.177-7.609C442.971,30.995,439.287,22.227,431.835,18.771z"/>
	</g>
</g>
<g>
	<g>
		<path d="M256.639,194.222c-33.682,0-61.084,27.402-61.084,61.084v184.307c0,33.682,27.402,61.084,61.084,61.084    c33.682,0,61.084-27.402,61.084-61.084V255.307C317.723,221.625,290.321,194.222,256.639,194.222z"/>
	</g>
</g>
<g>
	<g>
		<path d="M183.372,214.35l-64.13-36.825c-12.044-6.916-25.751-10.57-39.638-10.57C35.71,166.955,0,202.665,0,246.558v87.153    c0,17.727,7.644,34.599,20.969,46.288c11.297,9.908,25.756,15.284,40.604,15.285c2.668,0,5.346-0.173,8.024-0.525l85.984-11.303    c9.701-1.286,16.949-9.559,16.949-19.346V253.299c0-13.314,4.294-25.637,11.554-35.682    C184.866,216.534,184.53,215.015,183.372,214.35z"/>
	</g>
</g>
<g>
	<g>
		<path d="M174.151,451.587c-1.059-4.491-1.62-9.172-1.62-13.982v-18.936c0-9.16-8.065-16.226-17.146-15.021l-0.403,0.054    l-85.984,11.303c-2.677,0.352-5.356,0.525-8.024,0.525h-0.105c-6.487-0.006-11.851,4.993-12.37,11.459    c-0.159,1.974-0.24,3.97-0.239,5.984c0,0.832,0.017,1.659,0.051,2.484c0.754,18.617,10.181,35.257,25.864,45.648    c9.817,6.505,21.259,9.846,32.76,9.846c7.013,0,14.045-1.241,20.751-3.765l34.617-13.03    C171.406,470.727,176.384,461.055,174.151,451.587z"/>
	</g>
</g>
<g>
</g>
<g>
</g>
<g>
</g>
<g>
</g>
<g>
</g>
<g>
</g>
<g>
</g>
<g>
</g>
<g>
</g>
<g>
</g>
<g>
</g>
<g>
</g>
<g>
</g>
<g>
</g>
<g>
</g>
</svg>
