<?xml version="1.0" encoding="iso-8859-1"?>
<!-- Generator: Adobe Illustrator 19.0.0, SVG Export Plug-In . SVG Version: 6.00 Build 0)  -->
<svg version="1.1" id="Capa_1" xmlns="http://www.w3.org/2000/svg" xmlns:xlink="http://www.w3.org/1999/xlink" x="0px" y="0px"
	 viewBox="0 0 60.002 60.002" style="enable-background:new 0 0 60.002 60.002;" xml:space="preserve">
<g>
	<path d="M5.001,24.002h22v-10h-22V24.002z M7.001,16.002h18v6h-18V16.002z"/>
	<path d="M51.001,15.002c-2.206,0-4,1.794-4,4s1.794,4,4,4s4-1.794,4-4S53.207,15.002,51.001,15.002z M51.001,21.002
		c-1.103,0-2-0.897-2-2s0.897-2,2-2s2,0.897,2,2S52.103,21.002,51.001,21.002z"/>
	<path d="M32.001,16.002h-1c-0.553,0-1,0.447-1,1s0.447,1,1,1h1c0.553,0,1-0.447,1-1S32.554,16.002,32.001,16.002z"/>
	<path d="M32.001,20.002h-1c-0.553,0-1,0.447-1,1s0.447,1,1,1h1c0.553,0,1-0.447,1-1S32.554,20.002,32.001,20.002z"/>
	<path d="M37.001,16.002h-1c-0.553,0-1,0.447-1,1s0.447,1,1,1h1c0.553,0,1-0.447,1-1S37.554,16.002,37.001,16.002z"/>
	<path d="M37.001,20.002h-1c-0.553,0-1,0.447-1,1s0.447,1,1,1h1c0.553,0,1-0.447,1-1S37.554,20.002,37.001,20.002z"/>
	<path d="M54.074,10.002H16.1l40.098-8.02c0.541-0.108,0.893-0.635,0.784-1.177c-0.107-0.541-0.629-0.898-1.177-0.784L5.894,10.003
		c-3.252,0.019-5.893,2.669-5.893,5.925v44.073h11V40.6c0-1.984,1.614-3.599,3.599-3.599h8.401h13h9.401
		c1.984,0,3.599,1.614,3.599,3.599v19.401h11V15.929C60.001,12.661,57.342,10.002,54.074,10.002z M37.001,33.002h-15
		c-0.553,0-1-0.447-1-1s0.447-1,1-1h15c0.553,0,1,0.447,1,1S37.554,33.002,37.001,33.002z M58.001,26.002h-56V15.929
		c0-2.165,1.762-3.927,3.927-3.927h48.146c2.165,0,3.927,1.762,3.927,3.927V26.002z"/>
	<path d="M33.93,41.002c0.039,0,0.071-0.032,0.071-0.071v-1.929h-9v1.929c0,0.039,0.032,0.071,0.071,0.071H33.93z"/>
	<path d="M33.93,53.002c0.039,0,0.071-0.032,0.071-0.071v-1.929h-9v1.929c0,0.039,0.032,0.071,0.071,0.071H33.93z"/>
	<path d="M45.402,39.002h-9.401v1.929c0,1.143-0.929,2.071-2.071,2.071h-8.857c-1.143,0-2.071-0.929-2.071-2.071v-1.929H14.6
		c-0.882,0-1.599,0.717-1.599,1.599v8.401h10h13h11V40.6C47.001,39.719,46.284,39.002,45.402,39.002z"/>
	<path d="M36.001,52.93c0,1.143-0.929,2.071-2.071,2.071h-8.857c-1.143,0-2.071-0.929-2.071-2.071v-1.929h-10v9h34v-9h-11V52.93z"/>
</g>
<g>
</g>
<g>
</g>
<g>
</g>
<g>
</g>
<g>
</g>
<g>
</g>
<g>
</g>
<g>
</g>
<g>
</g>
<g>
</g>
<g>
</g>
<g>
</g>
<g>
</g>
<g>
</g>
<g>
</g>
</svg>
