<?xml version="1.0" encoding="iso-8859-1"?>
<!-- Generator: Adobe Illustrator 19.0.0, SVG Export Plug-In . SVG Version: 6.00 Build 0)  -->
<svg version="1.1" id="Capa_1" xmlns="http://www.w3.org/2000/svg" xmlns:xlink="http://www.w3.org/1999/xlink" x="0px" y="0px"
	 viewBox="0 0 58 58" style="enable-background:new 0 0 58 58;" xml:space="preserve">
<g>
	<rect x="13" y="32" width="32" height="6"/>
	<rect x="13" y="16" width="32" height="6"/>
	<rect x="13" y="24" width="32" height="6"/>
	<rect x="13" y="8" width="32" height="6"/>
	<path d="M50.104,0H7.896C6.299,0,5,1.299,5,2.896v52.209C5,56.701,6.299,58,7.896,58h42.209C51.701,58,53,56.701,53,55.104V2.896
		C53,1.299,51.701,0,50.104,0z M15,52c-2.206,0-4-1.794-4-4s1.794-4,4-4s4,1.794,4,4S17.206,52,15,52z M38,51h-2v-6h2V51z M41,51h-2
		v-6h2V51z M44,51h-2v-6h2V51z M47,51h-2v-6h2V51z M47,14v2v6v2v6v2v8H11v-8v-2v-6v-2v-6v-2V6h36V14z"/>
</g>
<g>
</g>
<g>
</g>
<g>
</g>
<g>
</g>
<g>
</g>
<g>
</g>
<g>
</g>
<g>
</g>
<g>
</g>
<g>
</g>
<g>
</g>
<g>
</g>
<g>
</g>
<g>
</g>
<g>
</g>
</svg>
