<?xml version="1.0" encoding="iso-8859-1"?>
<!-- Generator: Adobe Illustrator 19.0.0, SVG Export Plug-In . SVG Version: 6.00 Build 0)  -->
<svg version="1.1" id="Capa_1" xmlns="http://www.w3.org/2000/svg" xmlns:xlink="http://www.w3.org/1999/xlink" x="0px" y="0px"
	 viewBox="0 0 60 60" style="enable-background:new 0 0 60 60;" xml:space="preserve">
<g>
	<circle cx="46.5" cy="44.5" r="1.5"/>
	<circle cx="44.5" cy="36.5" r="1.5"/>
	<circle cx="38.5" cy="41.5" r="1.5"/>
	<circle cx="52.5" cy="39.5" r="1.5"/>
	<path d="M15,39v-2h-3v2c0,0.553-0.447,1-1,1H9v3h2c0.553,0,1,0.447,1,1v2h3v-2c0-0.553,0.447-1,1-1h2v-3h-2
		C15.447,40,15,39.553,15,39z"/>
	<path d="M45.021,26.001l-15.021,0V8.5C30,6.57,31.57,5,33.5,5S37,6.57,37,8.5V11c0,2.757,2.243,5,5,5s5-2.243,5-5V3h-2v8
		c0,1.654-1.346,3-3,3s-3-1.346-3-3V8.5C39,5.468,36.532,3,33.5,3S28,5.468,28,8.5v17.501l-12.698,0C7.008,26.374,0,33.697,0,41.993
		C0,49.16,5.274,56.9,13.127,57h0.044c1.209,0,2.828-0.615,4.878-1.395c1.461-0.556,3.117-1.185,4.794-1.64
		c4.332-1.174,10.001-1.174,14.313,0c1.754,0.478,3.574,1.14,5.18,1.724C44.635,56.526,45.978,57,46.876,57c0.001,0,0.001,0,0.001,0
		C54.727,56.868,60,49.134,60,41.993C60,33.545,53.301,26.372,45.021,26.001z M20,44c0,0.553-0.447,1-1,1h-2v2c0,0.553-0.447,1-1,1
		h-5c-0.553,0-1-0.447-1-1v-2H8c-0.553,0-1-0.447-1-1v-5c0-0.553,0.447-1,1-1h2v-2c0-0.553,0.447-1,1-1h5c0.553,0,1,0.447,1,1v2h2
		c0.553,0,1,0.447,1,1V44z M23,32.001c0-0.553,0.447-1,1-1h12c0.553,0,1,0.447,1,1s-0.447,1-1,1H24
		C23.447,33.001,23,32.554,23,32.001z M27.707,48.707C27.512,48.902,27.256,49,27,49s-0.512-0.098-0.707-0.293
		c-0.391-0.391-0.391-1.023,0-1.414l2-2c0.391-0.391,1.023-0.391,1.414,0s0.391,1.023,0,1.414L27.707,48.707z M33.707,46.707l-2,2
		C31.512,48.902,31.256,49,31,49s-0.512-0.098-0.707-0.293c-0.391-0.391-0.391-1.023,0-1.414l2-2c0.391-0.391,1.023-0.391,1.414,0
		S34.098,46.316,33.707,46.707z M38.5,45c-1.93,0-3.5-1.57-3.5-3.5s1.57-3.5,3.5-3.5s3.5,1.57,3.5,3.5S40.43,45,38.5,45z M41,36.5
		c0-1.93,1.57-3.5,3.5-3.5s3.5,1.57,3.5,3.5S46.43,40,44.5,40S41,38.43,41,36.5z M46.5,48c-1.93,0-3.5-1.57-3.5-3.5
		s1.57-3.5,3.5-3.5s3.5,1.57,3.5,3.5S48.43,48,46.5,48z M52.5,43c-1.93,0-3.5-1.57-3.5-3.5s1.57-3.5,3.5-3.5s3.5,1.57,3.5,3.5
		S54.43,43,52.5,43z"/>
</g>
<g>
</g>
<g>
</g>
<g>
</g>
<g>
</g>
<g>
</g>
<g>
</g>
<g>
</g>
<g>
</g>
<g>
</g>
<g>
</g>
<g>
</g>
<g>
</g>
<g>
</g>
<g>
</g>
<g>
</g>
</svg>
