<?xml version="1.0" encoding="iso-8859-1"?>
<!-- Generator: Adobe Illustrator 19.0.0, SVG Export Plug-In . SVG Version: 6.00 Build 0)  -->
<svg version="1.1" id="Capa_1" xmlns="http://www.w3.org/2000/svg" xmlns:xlink="http://www.w3.org/1999/xlink" x="0px" y="0px"
	 viewBox="0 0 60 60" style="enable-background:new 0 0 60 60;" xml:space="preserve">
<g>
	<path d="M35.283,22h-2.285v-2.285c0-0.945-0.77-1.715-1.715-1.715h-2.57c-0.945,0-1.715,0.77-1.715,1.715V22h-2.285
		c-0.945,0-1.715,0.77-1.715,1.715v2.57c0,0.945,0.77,1.715,1.715,1.715h2.285v2.285c0,0.945,0.77,1.715,1.715,1.715h2.57
		c0.945,0,1.715-0.77,1.715-1.715V28h2.285c0.945,0,1.715-0.77,1.715-1.715v-2.57C36.998,22.77,36.229,22,35.283,22z"/>
	<path d="M26.469,41h-1.941c-0.292,0-0.529,0.237-0.529,0.529v1.941c0,0.292,0.237,0.529,0.529,0.529h1.941
		c0.292,0,0.529-0.237,0.529-0.529v-1.941C26.998,41.237,26.761,41,26.469,41z"/>
	<path d="M35.469,50h-1.941c-0.292,0-0.529,0.237-0.529,0.529v1.941c0,0.292,0.237,0.529,0.529,0.529h1.941
		c0.292,0,0.529-0.237,0.529-0.529v-1.941C35.998,50.237,35.761,50,35.469,50z"/>
	<path d="M29.998,9c2.481,0,4-0.971,4-1.5s-1.519-1.5-4-1.5s-4,0.971-4,1.5S27.517,9,29.998,9z"/>
	<path d="M26.469,50h-1.941c-0.292,0-0.529,0.237-0.529,0.529v1.941c0,0.292,0.237,0.529,0.529,0.529h1.941
		c0.292,0,0.529-0.237,0.529-0.529v-1.941C26.998,50.237,26.761,50,26.469,50z"/>
	<path d="M36.662,0H23.334c-3.493,0-6.336,2.843-6.332,6.43l0.731,7.799c0.177,1.884,0.283,3.79,0.316,5.667l0.612,33.769
		c0,3.493,2.843,6.336,6.336,6.336h10c3.493,0,6.336-2.843,6.336-6.317l0.413-22.763c0.054-0.349,0.09-0.705,0.09-1.069V25.93
		l0.109-6.036c0.033-1.876,0.14-3.782,0.316-5.665l0.735-7.894C42.998,2.843,40.155,0,36.662,0z M29.998,4c3.421,0,6,1.505,6,3.5
		s-2.579,3.5-6,3.5s-6-1.505-6-3.5S26.577,4,29.998,4z M28.998,52.471c0,1.395-1.135,2.529-2.529,2.529h-1.941
		c-1.395,0-2.529-1.135-2.529-2.529v-1.941c0-1.395,1.135-2.529,2.529-2.529h1.941c1.395,0,2.529,1.135,2.529,2.529V52.471z
		 M28.998,43.471c0,1.395-1.135,2.529-2.529,2.529h-1.941c-1.395,0-2.529-1.135-2.529-2.529v-1.941c0-1.395,1.135-2.529,2.529-2.529
		h1.941c1.395,0,2.529,1.135,2.529,2.529V43.471z M37.998,52.471c0,1.395-1.135,2.529-2.529,2.529h-1.941
		c-1.395,0-2.529-1.135-2.529-2.529v-1.941c0-1.395,1.135-2.529,2.529-2.529h1.941c1.395,0,2.529,1.135,2.529,2.529V52.471z
		 M37.998,43.471c0,1.395-1.135,2.529-2.529,2.529h-1.941c-1.395,0-2.529-1.135-2.529-2.529v-1.941c0-1.395,1.135-2.529,2.529-2.529
		h1.941c1.395,0,2.529,1.135,2.529,2.529V43.471z M39.837,25.897l-0.087,4.816c-0.412,2.345-2.451,4.137-4.913,4.137h-9.565
		c-2.757,0-5-2.243-5-5v-9.566c0-2.757,2.243-5,5-5h9.565c2.757,0,5,2.243,5,5V25.897z"/>
	<path d="M35.469,41h-1.941c-0.292,0-0.529,0.237-0.529,0.529v1.941c0,0.292,0.237,0.529,0.529,0.529h1.941
		c0.292,0,0.529-0.237,0.529-0.529v-1.941C35.998,41.237,35.761,41,35.469,41z"/>
</g>
<g>
</g>
<g>
</g>
<g>
</g>
<g>
</g>
<g>
</g>
<g>
</g>
<g>
</g>
<g>
</g>
<g>
</g>
<g>
</g>
<g>
</g>
<g>
</g>
<g>
</g>
<g>
</g>
<g>
</g>
</svg>
