<?xml version="1.0" encoding="iso-8859-1"?>
<!-- Generator: Adobe Illustrator 19.0.0, SVG Export Plug-In . SVG Version: 6.00 Build 0)  -->
<svg version="1.1" id="Capa_1" xmlns="http://www.w3.org/2000/svg" xmlns:xlink="http://www.w3.org/1999/xlink" x="0px" y="0px"
	 viewBox="0 0 60 60" style="enable-background:new 0 0 60 60;" xml:space="preserve">
<g>
	<path d="M19.293,13.293l4-4c0.391-0.391,1.023-0.391,1.414,0s0.391,1.023,0,1.414l-4,4C20.512,14.902,20.256,15,20,15
		s-0.512-0.098-0.707-0.293C18.902,14.316,18.902,13.684,19.293,13.293z M22.707,17.707l-2,2C20.512,19.902,20.256,20,20,20
		s-0.512-0.098-0.707-0.293c-0.391-0.391-0.391-1.023,0-1.414l2-2c0.391-0.391,1.023-0.391,1.414,0S23.098,17.316,22.707,17.707z
		 M24.71,15.71C24.52,15.89,24.26,16,24,16c-0.26,0-0.52-0.11-0.71-0.29C23.11,15.52,23,15.26,23,15c0-0.271,0.11-0.521,0.29-0.71
		c0.37-0.37,1.05-0.37,1.42,0C24.89,14.479,25,14.74,25,15S24.89,15.52,24.71,15.71z M29.707,10.707l-3,3
		C26.512,13.902,26.256,14,26,14s-0.512-0.098-0.707-0.293c-0.391-0.391-0.391-1.023,0-1.414l3-3c0.391-0.391,1.023-0.391,1.414,0
		S30.098,10.316,29.707,10.707z"/>
	<circle cx="32.5" cy="47.867" r="1.5"/>
	<polygon points="22,39 20,39 20,43 16,43 16,45 20,45 20,49 22,49 22,45 26,45 26,43 22,43 	"/>
	<circle cx="38.5" cy="41.867" r="1.5"/>
	<path d="M46.888,0H13.112C11.396,0,10,1.396,10,3.112v53.775C10,58.604,11.396,60,13.112,60h30.474C47.123,60,50,57.123,50,53.586
		V3.112C50,1.396,48.604,0,46.888,0z M15,6c0-0.553,0.448-1,1-1h28c0.552,0,1,0.447,1,1v22.096C45,31.902,41.86,35,38,35H16
		c-0.552,0-1-0.447-1-1V6z M28,45.285C28,46.23,27.231,47,26.286,47H24v2.285C24,50.23,23.231,51,22.286,51h-2.571
		C18.769,51,18,50.23,18,49.285V47h-2.286C14.769,47,14,46.23,14,45.285v-2.57C14,41.77,14.769,41,15.714,41H18v-2.285
		C18,37.77,18.769,37,19.714,37h2.571C23.231,37,24,37.77,24,38.715V41h2.286C27.231,41,28,41.77,28,42.715V45.285z M32.5,51.367
		c-1.93,0-3.5-1.57-3.5-3.5s1.57-3.5,3.5-3.5s3.5,1.57,3.5,3.5S34.43,51.367,32.5,51.367z M35,41.867c0-1.93,1.57-3.5,3.5-3.5
		s3.5,1.57,3.5,3.5s-1.57,3.5-3.5,3.5S35,43.797,35,41.867z M38.793,56.574l-2.5-2.5l1.414-1.414l2.5,2.5L38.793,56.574z
		 M41.793,53.574l-2.5-2.5l1.414-1.414l2.5,2.5L41.793,53.574z M44.793,50.574l-2.5-2.5l1.414-1.414l2.5,2.5L44.793,50.574z"/>
</g>
<g>
</g>
<g>
</g>
<g>
</g>
<g>
</g>
<g>
</g>
<g>
</g>
<g>
</g>
<g>
</g>
<g>
</g>
<g>
</g>
<g>
</g>
<g>
</g>
<g>
</g>
<g>
</g>
<g>
</g>
</svg>
