<?xml version="1.0" encoding="iso-8859-1"?>
<!-- Generator: Adobe Illustrator 19.0.0, SVG Export Plug-In . SVG Version: 6.00 Build 0)  -->
<svg version="1.1" id="Capa_1" xmlns="http://www.w3.org/2000/svg" xmlns:xlink="http://www.w3.org/1999/xlink" x="0px" y="0px"
	 viewBox="0 0 59 59" style="enable-background:new 0 0 59 59;" xml:space="preserve">
<g>
	<rect x="42.5" y="47" width="2" height="2"/>
	<polygon points="13.5,39 10.5,39 10.5,42 7.5,42 7.5,45 10.5,45 10.5,48 13.5,48 13.5,45 16.5,45 16.5,42 13.5,42 	"/>
	<rect x="23.5" y="46" width="12" height="3"/>
	<path d="M54.516,28H20.5V13.5c0-1.93,1.57-3.5,3.5-3.5s3.5,1.57,3.5,3.5V20c0,2.757,2.243,5,5,5s5-2.243,5-5V1c0-0.553-0.448-1-1-1
		s-1,0.447-1,1v19c0,1.654-1.346,3-3,3s-3-1.346-3-3v-6.5c0-3.032-2.467-5.5-5.5-5.5s-5.5,2.468-5.5,5.5V28H4.484
		C2.288,28,0.5,29.787,0.5,31.984v23.031C0.5,57.213,2.288,59,4.484,59h50.031c2.197,0,3.984-1.787,3.984-3.984V31.984
		C58.5,29.787,56.712,28,54.516,28z M18.5,47h-3v3h-7v-3h-3v-7h3v-3h7v3h3V47z M37.5,55h-16v-2h16V55z M37.5,51h-16v-7h16V51z
		 M37.5,42h-16v-2h16V42z M37.5,38h-16v-2h16V38z M37.5,34h-16v-2h16V34z M46.5,51h-6v-6h6V51z M54.5,51h-6v-6h6V51z"/>
	<rect x="50.5" y="47" width="2" height="2"/>
</g>
<g>
</g>
<g>
</g>
<g>
</g>
<g>
</g>
<g>
</g>
<g>
</g>
<g>
</g>
<g>
</g>
<g>
</g>
<g>
</g>
<g>
</g>
<g>
</g>
<g>
</g>
<g>
</g>
<g>
</g>
</svg>
