<?xml version="1.0" encoding="iso-8859-1"?>
<!-- Generator: Adobe Illustrator 19.0.0, SVG Export Plug-In . SVG Version: 6.00 Build 0)  -->
<svg version="1.1" id="Capa_1" xmlns="http://www.w3.org/2000/svg" xmlns:xlink="http://www.w3.org/1999/xlink" x="0px" y="0px"
	 viewBox="0 0 56 56" style="enable-background:new 0 0 56 56;" xml:space="preserve">
<g>
	<path d="M44,36.5c-2.757,0-5,2.243-5,5s2.243,5,5,5s5-2.243,5-5S46.757,36.5,44,36.5z M42,42c0,0.553-0.448,1-1,1s-1-0.447-1-1v-1
		c0-0.553,0.448-1,1-1s1,0.447,1,1V42z M45,45c0,0.553-0.448,1-1,1s-1-0.447-1-1v-1c0-0.553,0.448-1,1-1s1,0.447,1,1V45z M45,39
		c0,0.553-0.448,1-1,1s-1-0.447-1-1v-1c0-0.553,0.448-1,1-1s1,0.447,1,1V39z M48,41v1c0,0.553-0.447,1-1,1s-1-0.447-1-1v-1
		c0-0.553,0.447-1,1-1S48,40.447,48,41z"/>
	<path d="M56,19c0-7.995-5.383-14.5-12-14.5h-9.5C42.495,4.5,49,11.005,49,19s-6.505,14.5-14.5,14.5h-13C13.505,33.5,7,26.995,7,19
		S13.505,4.5,21.5,4.5H12C5.383,4.5,0,11.005,0,19c0,3.403,0.982,6.53,2.612,9.006C0.93,30.568,0,33.728,0,37
		c0,7.995,5.383,14.5,12,14.5h32c6.617,0,12-6.505,12-14.5c0-3.272-0.93-6.432-2.612-8.994C55.018,25.53,56,22.403,56,19z M13,48.5
		c-3.86,0-7-3.141-7-7s3.14-7,7-7s7,3.141,7,7S16.86,48.5,13,48.5z M24.5,47.5c-1.381,0-2.5-1.119-2.5-2.5
		c0-1.381,1.119-2.5,2.5-2.5S27,43.619,27,45C27,46.381,25.881,47.5,24.5,47.5z M32.5,47.5c-1.381,0-2.5-1.119-2.5-2.5
		c0-1.381,1.119-2.5,2.5-2.5S35,43.619,35,45C35,46.381,33.881,47.5,32.5,47.5z M44,48.5c-3.86,0-7-3.141-7-7s3.14-7,7-7
		c3.859,0,7,3.141,7,7S47.859,48.5,44,48.5z"/>
	<path d="M13,36.5c-2.757,0-5,2.243-5,5s2.243,5,5,5s5-2.243,5-5S15.757,36.5,13,36.5z M17,41.5c0,0.553-0.448,1-1,1h-2v2
		c0,0.553-0.448,1-1,1s-1-0.447-1-1v-2h-2c-0.552,0-1-0.447-1-1s0.448-1,1-1h2v-2c0-0.553,0.448-1,1-1s1,0.447,1,1v2h2
		C16.552,40.5,17,40.947,17,41.5z"/>
	<path d="M20.707,21.012l-2,2c-0.195,0.195-0.451,0.293-0.707,0.293s-0.512-0.098-0.707-0.293c-0.391-0.391-0.391-1.023,0-1.414l2-2
		c0.391-0.391,1.023-0.391,1.414,0S21.098,20.621,20.707,21.012z M22.71,19.015c-0.19,0.18-0.45,0.29-0.71,0.29
		c-0.26,0-0.52-0.11-0.71-0.29c-0.18-0.19-0.29-0.45-0.29-0.71c0-0.271,0.11-0.521,0.29-0.71c0.37-0.37,1.05-0.37,1.42,0
		c0.18,0.189,0.29,0.45,0.29,0.71S22.89,18.824,22.71,19.015z M26.293,12.598c0.391-0.391,1.023-0.391,1.414,0s0.391,1.023,0,1.414
		l-3,3c-0.195,0.195-0.451,0.293-0.707,0.293s-0.512-0.098-0.707-0.293c-0.391-0.391-0.391-1.023,0-1.414L26.293,12.598z
		 M22.707,12.598c0.391,0.391,0.391,1.023,0,1.414l-4,4c-0.195,0.195-0.451,0.293-0.707,0.293s-0.512-0.098-0.707-0.293
		c-0.391-0.391-0.391-1.023,0-1.414l4-4C21.684,12.207,22.316,12.207,22.707,12.598z"/>
</g>
<g>
</g>
<g>
</g>
<g>
</g>
<g>
</g>
<g>
</g>
<g>
</g>
<g>
</g>
<g>
</g>
<g>
</g>
<g>
</g>
<g>
</g>
<g>
</g>
<g>
</g>
<g>
</g>
<g>
</g>
</svg>
