<?xml version="1.0" encoding="iso-8859-1"?>
<!-- Generator: Adobe Illustrator 19.0.0, SVG Export Plug-In . SVG Version: 6.00 Build 0)  -->
<svg version="1.1" id="Capa_1" xmlns="http://www.w3.org/2000/svg" xmlns:xlink="http://www.w3.org/1999/xlink" x="0px" y="0px"
	 viewBox="0 0 60 60" style="enable-background:new 0 0 60 60;" xml:space="preserve">
<g>
	<path d="M17,24c0.256,0,0.512-0.098,0.707-0.293l4-4c0.391-0.391,0.391-1.023,0-1.414s-1.023-0.391-1.414,0l-4,4
		c-0.391,0.391-0.391,1.023,0,1.414C16.488,23.902,16.744,24,17,24z"/>
	<path d="M18.293,25.293l-2,2c-0.391,0.391-0.391,1.023,0,1.414C16.488,28.902,16.744,29,17,29s0.512-0.098,0.707-0.293l2-2
		c0.391-0.391,0.391-1.023,0-1.414S18.684,24.902,18.293,25.293z"/>
	<path d="M20.29,23.29C20.1,23.479,20,23.74,20,24s0.1,0.52,0.29,0.71C20.479,24.89,20.74,25,21,25s0.52-0.11,0.71-0.29
		C21.89,24.52,22,24.26,22,24s-0.11-0.521-0.29-0.71C21.33,22.92,20.67,22.92,20.29,23.29z"/>
	<path d="M25.293,18.293l-3,3c-0.391,0.391-0.391,1.023,0,1.414C22.488,22.902,22.744,23,23,23s0.512-0.098,0.707-0.293l3-3
		c0.391-0.391,0.391-1.023,0-1.414S25.684,17.902,25.293,18.293z"/>
</g>
<path d="M60,30c0-3.177-0.513-6.925-1.497-10h0.055l-0.448-1.12c-0.445-1.164-0.968-2.185-1.566-2.992
	c-0.019-0.026-0.038-0.054-0.057-0.079c-0.146-0.192-0.297-0.367-0.452-0.532c-0.051-0.055-0.103-0.109-0.155-0.161
	c-0.133-0.13-0.268-0.25-0.406-0.359c-0.083-0.065-0.166-0.124-0.25-0.181c-0.119-0.08-0.238-0.157-0.36-0.22
	c-0.121-0.063-0.245-0.11-0.369-0.156c-0.096-0.035-0.19-0.078-0.289-0.103C53.974,14.037,53.739,14,53.5,14H48h-1H13h-1H6.5
	c-0.239,0-0.474,0.037-0.705,0.097c-0.098,0.025-0.192,0.068-0.288,0.103c-0.124,0.046-0.248,0.093-0.37,0.156
	c-0.122,0.063-0.241,0.14-0.359,0.219c-0.084,0.057-0.168,0.116-0.251,0.181c-0.138,0.109-0.273,0.228-0.405,0.358
	c-0.053,0.052-0.105,0.107-0.156,0.163c-0.154,0.164-0.305,0.338-0.45,0.53c-0.021,0.027-0.041,0.056-0.061,0.084
	c-0.594,0.803-1.114,1.817-1.557,2.973L1.441,20h0.055C0.513,23.075,0,26.823,0,30s0.513,6.925,1.497,10H1.441l0.455,1.136
	c0.443,1.156,0.963,2.17,1.557,2.973c0.02,0.028,0.04,0.057,0.061,0.084c0.146,0.191,0.296,0.365,0.45,0.53
	c0.052,0.056,0.104,0.111,0.156,0.163c0.132,0.13,0.267,0.249,0.405,0.358c0.083,0.066,0.167,0.124,0.251,0.181
	c0.118,0.08,0.237,0.156,0.36,0.22c0.121,0.063,0.245,0.11,0.369,0.156c0.096,0.035,0.19,0.078,0.289,0.103
	C6.026,45.963,6.261,46,6.5,46H12h1h34h1h5.5c0.239,0,0.474-0.037,0.705-0.097c0.099-0.025,0.193-0.068,0.289-0.103
	c0.124-0.046,0.248-0.093,0.369-0.156c0.123-0.063,0.242-0.14,0.36-0.22c0.084-0.057,0.168-0.115,0.25-0.181
	c0.139-0.109,0.274-0.228,0.406-0.359c0.052-0.051,0.103-0.106,0.155-0.161c0.155-0.165,0.306-0.34,0.452-0.532
	c0.019-0.026,0.038-0.053,0.057-0.079c0.598-0.807,1.12-1.828,1.566-2.992L58.559,40h-0.055C59.487,36.925,60,33.177,60,30z
	 M4.487,17.988c0.641-1.188,1.255-1.762,1.728-1.929C6.311,16.029,6.407,16,6.5,16H9l-1.5,2H4.481
	C4.483,17.996,4.485,17.992,4.487,17.988z M7,29c-0.553,0-1-0.447-1-1v-1c0-0.553,0.447-1,1-1s1,0.447,1,1v1C8,28.553,7.553,29,7,29
	z M8,32v1c0,0.553-0.447,1-1,1s-1-0.447-1-1v-1c0-0.553,0.447-1,1-1S8,31.447,8,32z M4,31c-0.553,0-1-0.447-1-1s0.447-1,1-1h1
	c0.553,0,1,0.447,1,1s-0.447,1-1,1H4z M6.5,44c-0.093,0-0.189-0.029-0.284-0.059c-0.474-0.167-1.088-0.741-1.728-1.929
	C4.485,42.008,4.483,42.004,4.481,42H7.5L9,44H6.5z M10.71,36.71C10.52,36.89,10.26,37,10,37s-0.521-0.11-0.71-0.29
	C9.109,36.52,9,36.26,9,36s0.109-0.521,0.29-0.71c0.38-0.37,1.04-0.37,1.42,0C10.899,35.479,11,35.729,11,36
	C11,36.26,10.89,36.52,10.71,36.71z M10,31H9c-0.553,0-1-0.447-1-1s0.447-1,1-1h1c0.553,0,1,0.447,1,1S10.553,31,10,31z
	 M10.71,24.71C10.52,24.89,10.26,25,10,25s-0.521-0.11-0.71-0.29C9.109,24.52,9,24.26,9,24s0.1-0.521,0.29-0.71
	c0.38-0.37,1.04-0.37,1.42,0C10.89,23.479,11,23.74,11,24S10.89,24.52,10.71,24.71z M46,44H14V16h32V44z M53.5,16
	c0.093,0,0.189,0.029,0.284,0.059c0.474,0.167,1.088,0.741,1.728,1.929c0.002,0.004,0.004,0.008,0.006,0.012H52.5L51,16H53.5z
	 M53.71,25.71C53.52,25.89,53.27,26,53,26c-0.271,0-0.521-0.11-0.71-0.29C52.109,25.52,52,25.26,52,25s0.109-0.521,0.29-0.71
	c0.38-0.37,1.04-0.37,1.42,0C53.89,24.479,54,24.74,54,25S53.89,25.52,53.71,25.71z M54,31c0,0.26-0.11,0.52-0.29,0.71
	C53.52,31.89,53.26,32,53,32s-0.521-0.101-0.71-0.29C52.109,31.52,52,31.26,52,31c0-0.271,0.109-0.53,0.29-0.71
	c0.38-0.37,1.05-0.37,1.42,0C53.89,30.479,54,30.729,54,31z M50,29c-0.26,0-0.521-0.11-0.71-0.29C49.1,28.52,49,28.26,49,28
	s0.109-0.521,0.29-0.71c0.37-0.37,1.04-0.37,1.42,0C50.89,27.479,51,27.729,51,28c0,0.26-0.11,0.52-0.29,0.71
	C50.52,28.899,50.26,29,50,29z M55.513,42.012c-0.641,1.188-1.254,1.762-1.728,1.929C53.689,43.971,53.593,44,53.5,44H51l1.5-2
	h3.019C55.517,42.004,55.515,42.008,55.513,42.012z M56.71,28.71C56.52,28.89,56.26,29,56,29s-0.521-0.11-0.71-0.29
	C55.1,28.52,55,28.27,55,28c0-0.271,0.109-0.521,0.29-0.71c0.37-0.37,1.04-0.37,1.42,0C56.89,27.479,57,27.729,57,28
	C57,28.26,56.89,28.52,56.71,28.71z"/>
<g>
</g>
<g>
</g>
<g>
</g>
<g>
</g>
<g>
</g>
<g>
</g>
<g>
</g>
<g>
</g>
<g>
</g>
<g>
</g>
<g>
</g>
<g>
</g>
<g>
</g>
<g>
</g>
<g>
</g>
</svg>
