<?xml version="1.0" encoding="iso-8859-1"?>
<!-- Generator: Adobe Illustrator 19.0.0, SVG Export Plug-In . SVG Version: 6.00 Build 0)  -->
<svg version="1.1" id="Capa_1" xmlns="http://www.w3.org/2000/svg" xmlns:xlink="http://www.w3.org/1999/xlink" x="0px" y="0px"
	 viewBox="0 0 55 55" style="enable-background:new 0 0 55 55;" xml:space="preserve">
<g>
	<path d="M24,44.5h-5c-0.553,0-1,0.447-1,1s0.447,1,1,1h5c0.553,0,1-0.447,1-1S24.553,44.5,24,44.5z"/>
	<path d="M35,44.5h-5c-0.553,0-1,0.447-1,1s0.447,1,1,1h5c0.553,0,1-0.447,1-1S35.553,44.5,35,44.5z"/>
	<path d="M27.5,39.5C36.598,39.5,44,32.098,44,23S36.598,6.5,27.5,6.5S11,13.902,11,23S18.402,39.5,27.5,39.5z M24,13.5h8
		c0.553,0,1,0.447,1,1s-0.447,1-1,1h-8c-0.553,0-1-0.447-1-1S23.447,13.5,24,13.5z"/>
	<circle cx="47" cy="36.5" r="2"/>
	<circle cx="8" cy="36.5" r="2"/>
	<path d="M53,2.5H40c-1.103,0-2,0.897-2,2H27.5C37.701,4.5,46,12.799,46,23s-8.299,18.5-18.5,18.5S9,33.201,9,23
		S17.299,4.5,27.5,4.5H17c0-1.103-0.897-2-2-2H2c-1.103,0-2,0.897-2,2v38v1v7c0,1.103,0.897,2,2,2h12c1.103,0,2-0.897,2-2h23
		c0,1.103,0.897,2,2,2h12c1.103,0,2-0.897,2-2v-7v-1v-38C55,3.397,54.103,2.5,53,2.5z M47,32.5c2.206,0,4,1.794,4,4s-1.794,4-4,4
		s-4-1.794-4-4S44.794,32.5,47,32.5z M5.5,27.5C6.328,27.5,7,28.172,7,29s-0.672,1.5-1.5,1.5S4,29.828,4,29S4.672,27.5,5.5,27.5z
		 M8,32.5c2.206,0,4,1.794,4,4s-1.794,4-4,4s-4-1.794-4-4S5.794,32.5,8,32.5z M53,50.5H41c0-1.103-0.897-2-2-2H16
		c-1.103,0-2,0.897-2,2H2v-6h12c1.103,0,2-0.897,2-2h23c0,1.103,0.897,2,2,2h12V50.5z"/>
</g>
<g>
</g>
<g>
</g>
<g>
</g>
<g>
</g>
<g>
</g>
<g>
</g>
<g>
</g>
<g>
</g>
<g>
</g>
<g>
</g>
<g>
</g>
<g>
</g>
<g>
</g>
<g>
</g>
<g>
</g>
</svg>
