<?xml version="1.0" encoding="iso-8859-1"?>
<!-- Generator: Adobe Illustrator 19.0.0, SVG Export Plug-In . SVG Version: 6.00 Build 0)  -->
<svg version="1.1" id="Capa_1" xmlns="http://www.w3.org/2000/svg" xmlns:xlink="http://www.w3.org/1999/xlink" x="0px" y="0px"
	 viewBox="0 0 59 59" style="enable-background:new 0 0 59 59;" xml:space="preserve">
<g>
	<path d="M17.793,12.293l4-4c0.391-0.391,1.023-0.391,1.414,0s0.391,1.023,0,1.414l-4,4C19.012,13.902,18.756,14,18.5,14
		s-0.512-0.098-0.707-0.293C17.402,13.316,17.402,12.684,17.793,12.293z M21.207,16.707l-2,2C19.012,18.902,18.756,19,18.5,19
		s-0.512-0.098-0.707-0.293c-0.391-0.391-0.391-1.023,0-1.414l2-2c0.391-0.391,1.023-0.391,1.414,0S21.598,16.316,21.207,16.707z
		 M23.21,14.71C23.02,14.89,22.76,15,22.5,15c-0.27,0-0.52-0.11-0.71-0.29c-0.18-0.19-0.29-0.45-0.29-0.71s0.11-0.521,0.29-0.71
		c0.36-0.37,1.05-0.37,1.42,0c0.18,0.189,0.29,0.45,0.29,0.71S23.39,14.52,23.21,14.71z M28.207,9.707l-3,3
		C25.012,12.902,24.756,13,24.5,13s-0.512-0.098-0.707-0.293c-0.391-0.391-0.391-1.023,0-1.414l3-3c0.391-0.391,1.023-0.391,1.414,0
		S28.598,9.316,28.207,9.707z"/>
	<path d="M17.793,40.293l4-4c0.391-0.391,1.023-0.391,1.414,0s0.391,1.023,0,1.414l-4,4C19.012,41.902,18.756,42,18.5,42
		s-0.512-0.098-0.707-0.293C17.402,41.316,17.402,40.684,17.793,40.293z M21.207,44.707l-2,2C19.012,46.902,18.756,47,18.5,47
		s-0.512-0.098-0.707-0.293c-0.391-0.391-0.391-1.023,0-1.414l2-2c0.391-0.391,1.023-0.391,1.414,0S21.598,44.316,21.207,44.707z
		 M23.21,42.71C23.02,42.89,22.76,43,22.5,43c-0.27,0-0.52-0.11-0.71-0.29c-0.18-0.19-0.29-0.44-0.29-0.71
		c0-0.271,0.11-0.521,0.29-0.71c0.37-0.37,1.05-0.37,1.42,0c0.18,0.189,0.29,0.45,0.29,0.71S23.39,42.52,23.21,42.71z
		 M28.207,37.707l-3,3C25.012,40.902,24.756,41,24.5,41s-0.512-0.098-0.707-0.293c-0.391-0.391-0.391-1.023,0-1.414l3-3
		c0.391-0.391,1.023-0.391,1.414,0S28.598,37.316,28.207,37.707z"/>
	<circle cx="8" cy="37.5" r="2.5"/>
	<g>
		<path d="M0.5,56.154C0.5,57.724,1.777,59,3.346,59h52.308c1.569,0,2.846-1.276,2.846-2.846V30h-58V56.154z M12.5,51h-3v3h-2v-3h-3
			v-2h3v-3h2v3h3V51z M51,45c-0.828,0-1.5-0.672-1.5-1.5S50.172,42,51,42s1.5,0.672,1.5,1.5S51.828,45,51,45z M54,39.5
			c0.828,0,1.5,0.672,1.5,1.5s-0.672,1.5-1.5,1.5s-1.5-0.672-1.5-1.5S53.172,39.5,54,39.5z M51,37c0.828,0,1.5,0.672,1.5,1.5
			S51.828,40,51,40s-1.5-0.672-1.5-1.5S50.172,37,51,37z M48,39.5c0.828,0,1.5,0.672,1.5,1.5s-0.672,1.5-1.5,1.5s-1.5-0.672-1.5-1.5
			S47.172,39.5,48,39.5z M48,52c0.828,0,1.5,0.672,1.5,1.5S48.828,55,48,55s-1.5-0.672-1.5-1.5S47.172,52,48,52z M13.5,34.576
			c0-1.421,1.156-2.576,2.576-2.576h26.848c1.42,0,2.576,1.155,2.576,2.576v17.848c0,1.421-1.156,2.576-2.576,2.576H16.076
			c-1.42,0-2.576-1.155-2.576-2.576V34.576z M8,33c2.481,0,4.5,2.019,4.5,4.5S10.481,42,8,42s-4.5-2.019-4.5-4.5S5.519,33,8,33z"/>
		<path d="M58.5,28V2.846C58.5,1.276,57.223,0,55.654,0H3.346C1.777,0,0.5,1.276,0.5,2.846V28H58.5z M52.79,14.29
			c0.38-0.37,1.06-0.37,1.42,0c0.18,0.189,0.29,0.45,0.29,0.71s-0.11,0.52-0.29,0.71C54.02,15.89,53.76,16,53.5,16
			c-0.26,0-0.52-0.11-0.71-0.29c-0.18-0.19-0.29-0.45-0.29-0.71S52.61,14.479,52.79,14.29z M49.79,11.29c0.37-0.37,1.04-0.37,1.42,0
			c0.18,0.189,0.29,0.439,0.29,0.71c0,0.26-0.11,0.52-0.29,0.71C51.02,12.89,50.76,13,50.5,13c-0.26,0-0.52-0.11-0.71-0.29
			c-0.18-0.19-0.29-0.45-0.29-0.71C49.5,11.729,49.61,11.47,49.79,11.29z M49.79,17.29c0.37-0.37,1.04-0.37,1.42,0
			c0.18,0.189,0.29,0.45,0.29,0.71s-0.11,0.52-0.29,0.71C51.02,18.89,50.76,19,50.5,19c-0.26,0-0.52-0.11-0.71-0.29
			c-0.18-0.19-0.29-0.45-0.29-0.71S49.61,17.479,49.79,17.29z M46.79,14.29c0.37-0.37,1.05-0.37,1.42,0
			c0.18,0.189,0.29,0.45,0.29,0.71s-0.11,0.52-0.29,0.71C48.02,15.89,47.76,16,47.5,16c-0.26,0-0.52-0.11-0.71-0.29
			c-0.18-0.19-0.29-0.45-0.29-0.71S46.61,14.479,46.79,14.29z M13.5,6.572c0-1.421,1.156-2.576,2.576-2.576h26.848
			c1.42,0,2.576,1.155,2.576,2.576v16.852c0,1.421-1.156,2.576-2.576,2.576H16.076c-1.42,0-2.576-1.155-2.576-2.576V6.572z
			 M10.79,14.29c0.37-0.37,1.05-0.37,1.42,0c0.18,0.189,0.29,0.45,0.29,0.71s-0.11,0.52-0.29,0.71C12.02,15.89,11.76,16,11.5,16
			c-0.26,0-0.52-0.11-0.71-0.29c-0.18-0.19-0.29-0.45-0.29-0.71S10.61,14.479,10.79,14.29z M7.79,11.29c0.38-0.37,1.05-0.37,1.42,0
			C9.39,11.479,9.5,11.729,9.5,12c0,0.26-0.11,0.52-0.29,0.71C9.02,12.89,8.76,13,8.5,13c-0.26,0-0.52-0.11-0.71-0.29
			C7.61,12.52,7.5,12.26,7.5,12C7.5,11.729,7.61,11.479,7.79,11.29z M7.79,17.29c0.38-0.37,1.05-0.37,1.42,0
			C9.39,17.479,9.5,17.74,9.5,18s-0.11,0.52-0.29,0.71C9.02,18.89,8.76,19,8.5,19c-0.26,0-0.52-0.101-0.71-0.29
			C7.61,18.52,7.5,18.26,7.5,18S7.61,17.479,7.79,17.29z M4.79,14.29c0.37-0.37,1.05-0.37,1.42,0C6.39,14.479,6.5,14.74,6.5,15
			s-0.11,0.52-0.29,0.71C6.02,15.89,5.76,16,5.5,16c-0.26,0-0.52-0.11-0.71-0.29C4.61,15.52,4.5,15.26,4.5,15
			S4.61,14.479,4.79,14.29z"/>
	</g>
</g>
<g>
</g>
<g>
</g>
<g>
</g>
<g>
</g>
<g>
</g>
<g>
</g>
<g>
</g>
<g>
</g>
<g>
</g>
<g>
</g>
<g>
</g>
<g>
</g>
<g>
</g>
<g>
</g>
<g>
</g>
</svg>
