<?xml version="1.0" encoding="iso-8859-1"?>
<!-- Generator: Adobe Illustrator 19.0.0, SVG Export Plug-In . SVG Version: 6.00 Build 0)  -->
<svg version="1.1" id="Capa_1" xmlns="http://www.w3.org/2000/svg" xmlns:xlink="http://www.w3.org/1999/xlink" x="0px" y="0px"
	 viewBox="0 0 57 57" style="enable-background:new 0 0 57 57;" xml:space="preserve">
<g>
	<path d="M56,15.5v-2.752c0-1.791-1.457-3.248-3.248-3.248h-5.504C45.457,9.5,44,10.957,44,12.748V15.5h-1v13h3v3h3v2.648
		c0,6.891-3.57,13.825-11.301,17.214C40.945,48.432,43,44.207,43,39.5c0-8.822-7.178-16-16-16s-16,7.178-16,16
		c0,3.254,0.982,6.281,2.658,8.81C10.177,44.951,8,40.249,8,35.041V23.5h3v-3h3v-13h-1V4.748C13,2.957,11.543,1.5,9.752,1.5H4.248
		C2.457,1.5,1,2.957,1,4.748V7.5H0v13h3v3h3v12.514h0.023C6.533,46.845,15.504,55.5,26.459,55.5c0.132,0,0.261-0.006,0.393-0.008
		c0.05,0,0.098,0.008,0.148,0.008c0.11,0,0.216-0.014,0.326-0.017C41.309,55.138,51,46.466,51,34.148V31.5h3v-3h3v-13H56z M3,4.748
		C3,4.06,3.56,3.5,4.248,3.5h5.504C10.44,3.5,11,4.06,11,4.748V7.5H3V4.748z M5,21.5v-1h4v1H5z M13,39.5c0-7.72,6.28-14,14-14
		s14,6.28,14,14c0,2.137-0.496,4.156-1.356,5.97C39.869,44.515,40,43.523,40,42.5c0-7.168-5.832-13-13-13s-13,5.832-13,13
		c0,1.023,0.131,2.015,0.356,2.97C13.496,43.656,13,41.637,13,39.5z M27.343,53.483c-0.164,0.004-0.328,0.008-0.494,0.01
		C20.854,53.41,16,48.514,16,42.5c0-6.065,4.935-11,11-11s11,4.935,11,11C38,48.45,33.249,53.299,27.343,53.483z M52,29.5h-1h-2h-1
		v-1h4V29.5z M54,15.5h-8v-2.752c0-0.688,0.56-1.248,1.248-1.248h5.504C53.44,11.5,54,12.06,54,12.748V15.5z"/>
</g>
<g>
</g>
<g>
</g>
<g>
</g>
<g>
</g>
<g>
</g>
<g>
</g>
<g>
</g>
<g>
</g>
<g>
</g>
<g>
</g>
<g>
</g>
<g>
</g>
<g>
</g>
<g>
</g>
<g>
</g>
</svg>
