<?xml version="1.0" encoding="iso-8859-1"?>
<!-- Generator: Adobe Illustrator 19.0.0, SVG Export Plug-In . SVG Version: 6.00 Build 0)  -->
<svg version="1.1" id="Capa_1" xmlns="http://www.w3.org/2000/svg" xmlns:xlink="http://www.w3.org/1999/xlink" x="0px" y="0px"
	 viewBox="0 0 60 60" style="enable-background:new 0 0 60 60;" xml:space="preserve">
<g>
	<path d="M58.282,46.5H50v-1h8v-39H2v39h8v1H1.718C0.771,46.5,0,47.271,0,48.218v3.564C0,52.729,0.771,53.5,1.718,53.5h56.564
		c0.947,0,1.718-0.771,1.718-1.718v-3.564C60,47.271,59.229,46.5,58.282,46.5z M4,43.5v-35h52v35h-6H10H4z M58,51.5H2v-3h8h40h8
		V51.5z"/>
	<path d="M13,40.5H8c-0.552,0-1,0.448-1,1s0.448,1,1,1h5c0.552,0,1-0.448,1-1S13.552,40.5,13,40.5z"/>
	<path d="M52,40.5c-0.552,0-1,0.448-1,1s0.448,1,1,1h1c0.552,0,1-0.448,1-1s-0.448-1-1-1H52z"/>
	<path d="M49,40.5h-1c-0.552,0-1,0.448-1,1s0.448,1,1,1h1c0.552,0,1-0.448,1-1S49.552,40.5,49,40.5z"/>
	<path d="M7,11.5v28h46v-28H7z M20.293,16.793c0.391-0.391,1.023-0.391,1.414,0s0.391,1.023,0,1.414l-3,3
		C18.512,21.402,18.256,21.5,18,21.5s-0.512-0.098-0.707-0.293c-0.391-0.391-0.391-1.023,0-1.414L20.293,16.793z M11.293,20.793l4-4
		c0.391-0.391,1.023-0.391,1.414,0s0.391,1.023,0,1.414l-4,4C12.512,22.402,12.256,22.5,12,22.5s-0.512-0.098-0.707-0.293
		C10.902,21.816,10.902,21.184,11.293,20.793z M17,22.5c0,0.26-0.11,0.52-0.29,0.71c-0.19,0.18-0.45,0.29-0.71,0.29
		c-0.26,0-0.52-0.11-0.71-0.29C15.11,23.02,15,22.77,15,22.5s0.11-0.52,0.29-0.71c0.37-0.36,1.04-0.37,1.42,0
		C16.89,21.98,17,22.24,17,22.5z M11.293,25.793l2-2c0.391-0.391,1.023-0.391,1.414,0s0.391,1.023,0,1.414l-2,2
		C12.512,27.402,12.256,27.5,12,27.5s-0.512-0.098-0.707-0.293C10.902,26.816,10.902,26.184,11.293,25.793z M21.707,23.207l-9,9
		C12.512,32.402,12.256,32.5,12,32.5s-0.512-0.098-0.707-0.293c-0.391-0.391-0.391-1.023,0-1.414l9-9
		c0.391-0.391,1.023-0.391,1.414,0S22.098,22.816,21.707,23.207z M23.71,21.21c-0.19,0.18-0.44,0.29-0.71,0.29s-0.52-0.11-0.71-0.29
		C22.11,21.02,22,20.76,22,20.5c0-0.26,0.11-0.52,0.29-0.71c0.37-0.37,1.05-0.37,1.42,0C23.89,19.98,24,20.24,24,20.5
		C24,20.76,23.89,21.02,23.71,21.21z M26.707,18.207l-1,1C25.512,19.402,25.256,19.5,25,19.5s-0.512-0.098-0.707-0.293
		c-0.391-0.391-0.391-1.023,0-1.414l1-1c0.391-0.391,1.023-0.391,1.414,0S27.098,17.816,26.707,18.207z"/>
</g>
<g>
</g>
<g>
</g>
<g>
</g>
<g>
</g>
<g>
</g>
<g>
</g>
<g>
</g>
<g>
</g>
<g>
</g>
<g>
</g>
<g>
</g>
<g>
</g>
<g>
</g>
<g>
</g>
<g>
</g>
</svg>
