<?xml version="1.0" encoding="iso-8859-1"?>
<!-- Generator: Adobe Illustrator 19.0.0, SVG Export Plug-In . SVG Version: 6.00 Build 0)  -->
<svg version="1.1" id="Capa_1" xmlns="http://www.w3.org/2000/svg" xmlns:xlink="http://www.w3.org/1999/xlink" x="0px" y="0px"
	 viewBox="0 0 60 60" style="enable-background:new 0 0 60 60;" xml:space="preserve">
<g>
	<path d="M31,3h-1c-0.553,0-1,0.448-1,1s0.447,1,1,1h1c0.553,0,1-0.448,1-1S31.553,3,31,3z"/>
	<path d="M48.102,0H11.898C9.749,0,8,1.777,8,3.961v52.077C8,58.223,9.749,60,11.898,60h36.203C50.251,60,52,58.223,52,56.039V3.961
		C52,1.777,50.251,0,48.102,0z M50,56.039C50,57.12,49.148,58,48.102,58H30H11.898C10.852,58,10,57.12,10,56.039V3.961
		C10,2.88,10.852,2,11.898,2h36.203C49.148,2,50,2.88,50,3.961V56.039z"/>
	<path d="M34,54c0-2.206-1.794-4-4-4s-4,1.794-4,4s1.794,4,4,4S34,56.206,34,54z M30,56c-1.103,0-2-0.897-2-2s0.897-2,2-2
		s2,0.897,2,2S31.103,56,30,56z"/>
	<path d="M11,6v44h19h19V6H11z M24.293,10.293c0.391-0.391,1.023-0.391,1.414,0s0.391,1.023,0,1.414l-3,3
		C22.512,14.902,22.256,15,22,15s-0.512-0.098-0.707-0.293c-0.391-0.391-0.391-1.023,0-1.414L24.293,10.293z M15.293,14.293l4-4
		c0.391-0.391,1.023-0.391,1.414,0s0.391,1.023,0,1.414l-4,4C16.512,15.902,16.256,16,16,16s-0.512-0.098-0.707-0.293
		C14.902,15.316,14.902,14.684,15.293,14.293z M21,16c0,0.27-0.11,0.52-0.29,0.71C20.52,16.89,20.26,17,20,17s-0.521-0.1-0.71-0.29
		C19.109,16.52,19,16.27,19,16c0-0.26,0.109-0.52,0.29-0.71c0.39-0.37,1.04-0.37,1.42,0C20.89,15.48,21,15.74,21,16z M15.293,19.293
		l2-2c0.391-0.391,1.023-0.391,1.414,0s0.391,1.023,0,1.414l-2,2C16.512,20.902,16.256,21,16,21s-0.512-0.098-0.707-0.293
		C14.902,20.316,14.902,19.684,15.293,19.293z M25.707,16.707l-9,9C16.512,25.902,16.256,26,16,26s-0.512-0.098-0.707-0.293
		c-0.391-0.391-0.391-1.023,0-1.414l9-9c0.391-0.391,1.023-0.391,1.414,0S26.098,16.316,25.707,16.707z M27.71,14.71
		C27.52,14.89,27.26,15,27,15c-0.271,0-0.521-0.11-0.71-0.29C26.109,14.52,26,14.26,26,14c0-0.26,0.109-0.52,0.29-0.71
		c0.37-0.37,1.04-0.37,1.42,0C27.899,13.48,28,13.74,28,14C28,14.26,27.899,14.52,27.71,14.71z M30.707,11.707l-1,1
		C29.512,12.902,29.256,13,29,13s-0.512-0.098-0.707-0.293c-0.391-0.391-0.391-1.023,0-1.414l1-1c0.391-0.391,1.023-0.391,1.414,0
		S31.098,11.316,30.707,11.707z"/>
</g>
<g>
</g>
<g>
</g>
<g>
</g>
<g>
</g>
<g>
</g>
<g>
</g>
<g>
</g>
<g>
</g>
<g>
</g>
<g>
</g>
<g>
</g>
<g>
</g>
<g>
</g>
<g>
</g>
<g>
</g>
</svg>
