<?xml version="1.0" encoding="iso-8859-1"?>
<!-- Generator: Adobe Illustrator 19.0.0, SVG Export Plug-In . SVG Version: 6.00 Build 0)  -->
<svg version="1.1" id="Capa_1" xmlns="http://www.w3.org/2000/svg" xmlns:xlink="http://www.w3.org/1999/xlink" x="0px" y="0px"
	 viewBox="0 0 60 60" style="enable-background:new 0 0 60 60;" xml:space="preserve">
<g>
	<path d="M34.5,3h-5c-0.552,0-1,0.447-1,1s0.448,1,1,1h5c0.552,0,1-0.447,1-1S35.052,3,34.5,3z"/>
	<path d="M26.5,3h-1c-0.552,0-1,0.447-1,1s0.448,1,1,1h1c0.552,0,1-0.447,1-1S27.052,3,26.5,3z"/>
	<path d="M43.539,0H17.461C15.277,0,13.5,1.777,13.5,3.962V6v3c-0.552,0-1,0.447-1,1v1c0,0.553,0.448,1,1,1v1c-0.552,0-1,0.447-1,1
		v1c0,0.553,0.448,1,1,1v1c-0.552,0-1,0.447-1,1v1c0,0.553,0.448,1,1,1v32v4.038c0,2.185,1.777,3.962,3.961,3.962h26.077
		c2.185,0,3.961-1.777,3.961-3.962V52V6V3.962C47.5,1.777,45.723,0,43.539,0z M27.882,58H17.461c-1.082,0-1.961-0.88-1.961-1.962V52
		h12.382c-0.84,0.734-1.382,1.799-1.382,3S27.042,57.266,27.882,58z M27.207,10.707l-3,3C24.012,13.902,23.756,14,23.5,14
		s-0.512-0.098-0.707-0.293c-0.391-0.391-0.391-1.023,0-1.414l3-3c0.391-0.391,1.023-0.391,1.414,0S27.598,10.316,27.207,10.707z
		 M27.79,12.29c0.37-0.37,1.05-0.37,1.42,0.01c0.18,0.18,0.29,0.43,0.29,0.7c0,0.26-0.11,0.52-0.29,0.71
		C29.02,13.89,28.76,14,28.5,14c-0.26,0-0.52-0.11-0.71-0.29c-0.18-0.19-0.29-0.45-0.29-0.71C27.5,12.729,27.61,12.479,27.79,12.29z
		 M22.207,10.707l-4,4C18.012,14.902,17.756,15,17.5,15s-0.512-0.098-0.707-0.293c-0.391-0.391-0.391-1.023,0-1.414l4-4
		c0.391-0.391,1.023-0.391,1.414,0S22.598,10.316,22.207,10.707z M22.5,15c0,0.26-0.11,0.52-0.29,0.71C22.02,15.89,21.76,16,21.5,16
		c-0.26,0-0.52-0.11-0.71-0.29c-0.18-0.19-0.29-0.45-0.29-0.71s0.11-0.521,0.29-0.71c0.38-0.37,1.05-0.37,1.42,0
		C22.39,14.479,22.5,14.729,22.5,15z M16.793,18.293l2-2c0.391-0.391,1.023-0.391,1.414,0s0.391,1.023,0,1.414l-2,2
		C18.012,19.902,17.756,20,17.5,20s-0.512-0.098-0.707-0.293C16.402,19.316,16.402,18.684,16.793,18.293z M16.793,23.293l9-9
		c0.391-0.391,1.023-0.391,1.414,0s0.391,1.023,0,1.414l-9,9C18.012,24.902,17.756,25,17.5,25s-0.512-0.098-0.707-0.293
		C16.402,24.316,16.402,23.684,16.793,23.293z M30.5,57c-1.103,0-2-0.897-2-2s0.897-2,2-2s2,0.897,2,2S31.603,57,30.5,57z
		 M32.207,10.707l-1,1C31.012,11.902,30.756,12,30.5,12s-0.512-0.098-0.707-0.293c-0.391-0.391-0.391-1.023,0-1.414l1-1
		c0.391-0.391,1.023-0.391,1.414,0S32.598,10.316,32.207,10.707z M45.5,56.038C45.5,57.12,44.62,58,43.539,58H33.118
		c0.84-0.734,1.382-1.799,1.382-3s-0.542-2.266-1.382-3H45.5V56.038z M45.5,6h-30V3.962C15.5,2.88,16.38,2,17.461,2h26.077
		C44.62,2,45.5,2.88,45.5,3.962V6z"/>
</g>
<g>
</g>
<g>
</g>
<g>
</g>
<g>
</g>
<g>
</g>
<g>
</g>
<g>
</g>
<g>
</g>
<g>
</g>
<g>
</g>
<g>
</g>
<g>
</g>
<g>
</g>
<g>
</g>
<g>
</g>
</svg>
