<?xml version="1.0" encoding="iso-8859-1"?>
<!-- Generator: Adobe Illustrator 19.0.0, SVG Export Plug-In . SVG Version: 6.00 Build 0)  -->
<svg version="1.1" id="Capa_1" xmlns="http://www.w3.org/2000/svg" xmlns:xlink="http://www.w3.org/1999/xlink" x="0px" y="0px"
	 viewBox="0 0 52.796 52.796" style="enable-background:new 0 0 52.796 52.796;" xml:space="preserve">
<g>
	<path d="M51.681,1.826C50.723,0.666,49.314,0,47.816,0c-1.335,0-2.591,0.521-3.535,1.465l-0.707,0.707
		c-0.378,0.378-0.586,0.88-0.586,1.414S43.196,4.622,43.574,5L42.16,6.414c-0.754-0.755-2.072-0.757-2.829,0L28.725,17.021
		l-2.121-2.121L9.633,31.87c-1.511,1.511-2.343,3.52-2.343,5.657c0,1.091,0.22,2.148,0.633,3.123l-7.024,7.024
		c-0.567,0.566-0.879,1.32-0.879,2.121c0,0.802,0.312,1.555,0.878,2.121s1.32,0.879,2.122,0.879c0.801,0,1.555-0.313,2.121-0.879
		l7.024-7.024c0.975,0.414,2.032,0.634,3.124,0.634c2.137,0,4.146-0.832,5.657-2.343l16.97-16.971l-2.121-2.121l10.606-10.606
		c0.378-0.378,0.586-0.88,0.586-1.414s-0.208-1.036-0.586-1.414l1.414-1.415c0.755,0.755,2.072,0.756,2.829,0l0.585-0.585
		C53.101,6.786,53.3,3.785,51.681,1.826z M32.967,28.335l-8.485-8.485l2.122-2.122l8.485,8.485L32.967,28.335z M34.382,22.678
		l-4.243-4.243l7.071-7.071l4.243,4.243L34.382,22.678z"/>
</g>
<g>
</g>
<g>
</g>
<g>
</g>
<g>
</g>
<g>
</g>
<g>
</g>
<g>
</g>
<g>
</g>
<g>
</g>
<g>
</g>
<g>
</g>
<g>
</g>
<g>
</g>
<g>
</g>
<g>
</g>
</svg>
