<?xml version="1.0" encoding="iso-8859-1"?>
<!-- Generator: Adobe Illustrator 19.0.0, SVG Export Plug-In . SVG Version: 6.00 Build 0)  -->
<svg version="1.1" id="Capa_1" xmlns="http://www.w3.org/2000/svg" xmlns:xlink="http://www.w3.org/1999/xlink" x="0px" y="0px"
	 viewBox="0 0 60 60" style="enable-background:new 0 0 60 60;" xml:space="preserve">
<g>
	<path d="M60,38.5h-2.14c-0.705-3.429-3.76-6-7.335-6H50v-1.176c0-1.558-1.267-2.824-2.824-2.824h-4.352
		C41.267,28.5,40,29.767,40,31.324V32.5h-3v-1.176c0-1.558-1.267-2.824-2.824-2.824h-4.352C28.267,28.5,27,29.767,27,31.324V32.5h-9
		v-9.677c3.51-1.397,6-4.822,6-8.823c0-5.238-4.262-9.5-9.5-9.5S5,8.762,5,14c0,4.002,2.49,7.426,6,8.823V32.5H9.475
		c-3.575,0-6.63,2.571-7.335,6H0v10h10l0.101,1c0.464,2.279,2.485,4,4.899,4h10c1.103,0,2,0.897,2,2h2c0-2.206-1.794-4-4-4H15
		c-1.654,0-3-1.346-3-3h48V38.5z M10,15.5c-0.552,0-1-0.447-1-1c0-3.309,2.691-6,6-6c0.552,0,1,0.447,1,1s-0.448,1-1,1
		c-2.206,0-4,1.794-4,4C11,15.053,10.552,15.5,10,15.5z M16,23.382V32.5h-3v-9.118c0.113,0.018,0.228,0.026,0.342,0.04
		c0.096,0.012,0.191,0.025,0.288,0.034c0.262,0.024,0.524,0.038,0.787,0.04c0.028,0,0.055,0.004,0.083,0.004
		s0.055-0.004,0.083-0.004c0.263-0.002,0.526-0.016,0.787-0.04c0.097-0.009,0.192-0.022,0.287-0.034
		C15.772,23.408,15.887,23.4,16,23.382z M4.19,38.5c0.661-2.313,2.804-4,5.284-4H11h7h9h10h3h10h0.525c2.48,0,4.624,1.688,5.284,4
		H4.19z"/>
</g>
<g>
</g>
<g>
</g>
<g>
</g>
<g>
</g>
<g>
</g>
<g>
</g>
<g>
</g>
<g>
</g>
<g>
</g>
<g>
</g>
<g>
</g>
<g>
</g>
<g>
</g>
<g>
</g>
<g>
</g>
</svg>
