<?xml version="1.0" encoding="iso-8859-1"?>
<!-- Generator: Adobe Illustrator 19.0.0, SVG Export Plug-In . SVG Version: 6.00 Build 0)  -->
<svg version="1.1" id="Capa_1" xmlns="http://www.w3.org/2000/svg" xmlns:xlink="http://www.w3.org/1999/xlink" x="0px" y="0px"
	 viewBox="0 0 60 60" style="enable-background:new 0 0 60 60;" xml:space="preserve">
<g>
	<path d="M51.857,0H8.143C5.858,0,4,1.858,4,4.143v41.715c0,2.235,1.783,4.051,4,4.128V60h44V49.986c2.217-0.077,4-1.893,4-4.128
		V4.143C56,1.858,54.142,0,51.857,0z M50,58H10v-8h40V58z M54,45.857C54,47.039,53.039,48,51.857,48H8.143
		C6.961,48,6,47.039,6,45.857V4.143C6,2.961,6.961,2,8.143,2h43.715C53.039,2,54,2.961,54,4.143V45.857z"/>
	<path d="M49,57v-6h-6h-7v6h7H49z M47,53v2h-2v-2H47z"/>
	<path d="M10,47h6v-5h-6V47z"/>
	<path d="M49,39h-9v2h-9v2h9v2h9v-2h2v-2h-2V39z"/>
	<path d="M47.128,5H12.872C10.186,5,8,7.186,8,9.872v21.256C8,33.814,10.186,36,12.872,36h34.256C49.814,36,52,33.814,52,31.128
		V9.872C52,7.186,49.814,5,47.128,5z M22.293,10.293c0.391-0.391,1.023-0.391,1.414,0s0.391,1.023,0,1.414l-3,3
		C20.512,14.902,20.256,15,20,15s-0.512-0.098-0.707-0.293c-0.391-0.391-0.391-1.023,0-1.414L22.293,10.293z M13.293,14.293l4-4
		c0.391-0.391,1.023-0.391,1.414,0s0.391,1.023,0,1.414l-4,4C14.512,15.902,14.256,16,14,16s-0.512-0.098-0.707-0.293
		C12.902,15.316,12.902,14.684,13.293,14.293z M19,16c0,0.27-0.11,0.52-0.29,0.71C18.52,16.89,18.26,17,18,17
		c-0.26,0-0.52-0.11-0.71-0.29C17.11,16.52,17,16.26,17,16c0-0.26,0.11-0.52,0.29-0.71c0.37-0.37,1.05-0.37,1.42,0
		C18.89,15.48,19,15.73,19,16z M13.293,19.293l2-2c0.391-0.391,1.023-0.391,1.414,0s0.391,1.023,0,1.414l-2,2
		C14.512,20.902,14.256,21,14,21s-0.512-0.098-0.707-0.293C12.902,20.316,12.902,19.684,13.293,19.293z M23.707,16.707l-9,9
		C14.512,25.902,14.256,26,14,26s-0.512-0.098-0.707-0.293c-0.391-0.391-0.391-1.023,0-1.414l9-9c0.391-0.391,1.023-0.391,1.414,0
		S24.098,16.316,23.707,16.707z M25.71,14.71C25.52,14.89,25.26,15,25,15c-0.26,0-0.52-0.11-0.71-0.29C24.11,14.52,24,14.26,24,14
		c0-0.26,0.11-0.52,0.29-0.71c0.38-0.37,1.05-0.37,1.42,0C25.89,13.48,26,13.74,26,14C26,14.26,25.89,14.52,25.71,14.71z
		 M28.707,11.707l-1,1C27.512,12.902,27.256,13,27,13s-0.512-0.098-0.707-0.293c-0.391-0.391-0.391-1.023,0-1.414l1-1
		c0.391-0.391,1.023-0.391,1.414,0S29.098,11.316,28.707,11.707z"/>
</g>
<g>
</g>
<g>
</g>
<g>
</g>
<g>
</g>
<g>
</g>
<g>
</g>
<g>
</g>
<g>
</g>
<g>
</g>
<g>
</g>
<g>
</g>
<g>
</g>
<g>
</g>
<g>
</g>
<g>
</g>
</svg>
