<?xml version="1.0" encoding="iso-8859-1"?>
<!-- Generator: Adobe Illustrator 19.0.0, SVG Export Plug-In . SVG Version: 6.00 Build 0)  -->
<svg version="1.1" id="Capa_1" xmlns="http://www.w3.org/2000/svg" xmlns:xlink="http://www.w3.org/1999/xlink" x="0px" y="0px"
	 viewBox="0 0 59.949 59.949" style="enable-background:new 0 0 59.949 59.949;" xml:space="preserve">
<g>
	<circle cx="29.975" cy="22.949" r="3"/>
	<path d="M38.891,15.949h4.083v-3c0-3.675-1.54-6.992-4-9.359v4.359c0,0.553-0.448,1-1,1s-1-0.447-1-1V2.012
		c-0.633-0.406-1.298-0.767-2-1.06v5.997c0,0.553-0.448,1-1,1s-1-0.447-1-1V0.313c-0.65-0.154-1.317-0.26-2-0.313v5.949
		c0,0.553-0.448,1-1,1s-1-0.447-1-1V0c-0.683,0.052-1.35,0.158-2,0.313v6.637c0,0.553-0.448,1-1,1s-1-0.447-1-1V0.952
		c-0.702,0.293-1.367,0.654-2,1.06v5.937c0,0.553-0.448,1-1,1s-1-0.447-1-1V3.59c-2.46,2.367-4,5.684-4,9.359v3h4.082
		c0.552,0,1,0.447,1,1s-0.448,1-1,1h-4.082v2h4.082c0.552,0,1,0.447,1,1s-0.448,1-1,1h-4.082v2h4.082c0.552,0,1,0.447,1,1
		s-0.448,1-1,1h-4.082v2h4.082c0.552,0,1,0.447,1,1s-0.448,1-1,1h-4.082v3c0,3.675,1.54,6.992,4,9.359V36.95c0-0.553,0.448-1,1-1
		s1,0.447,1,1v6.936c0.633,0.406,1.298,0.767,2,1.06v1.622c0,1.182,0.869,2.158,2,2.342v5.039h-5c-1.654,0-3,1.346-3,3s1.346,3,3,3
		h16c1.654,0,3-1.346,3-3s-1.346-3-3-3h-5v-5.038c1.131-0.184,2-1.16,2-2.342v-1.622c0.702-0.293,1.367-0.654,2-1.06V36.95
		c0-0.553,0.448-1,1-1s1,0.447,1,1v5.358c2.46-2.367,4-5.684,4-9.359v-3h-4.083c-0.552,0-1-0.447-1-1s0.448-1,1-1h4.083v-2h-4.083
		c-0.552,0-1-0.447-1-1s0.448-1,1-1h4.083v-2h-4.083c-0.552,0-1-0.447-1-1s0.448-1,1-1h4.083v-2h-4.083c-0.552,0-1-0.447-1-1
		S38.339,15.949,38.891,15.949z M24.975,44.941V38.95c0-0.553,0.448-1,1-1s1,0.447,1,1v6.632
		C26.287,45.419,25.616,45.211,24.975,44.941z M37.975,55.949c0.551,0,1,0.448,1,1s-0.449,1-1,1h-16c-0.551,0-1-0.448-1-1
		s0.449-1,1-1h5h6H37.975z M28.975,53.949v-5h2v5H28.975z M32.975,46.568c0,0.21-0.17,0.381-0.38,0.381h-5.239
		c-0.21,0-0.381-0.171-0.381-0.381v-0.981c0.015,0.004,0.031,0.005,0.046,0.008c-0.002,0-0.003-0.001-0.005-0.001
		c0.637,0.149,1.29,0.253,1.959,0.305V39.95c0-0.553,0.448-1,1-1s1,0.447,1,1v5.948c0.669-0.051,1.322-0.155,1.959-0.305
		c-0.002,0-0.003,0.001-0.005,0.001c0.015-0.004,0.031-0.005,0.046-0.008V46.568z M34.975,44.941c-0.641,0.27-1.312,0.478-2,0.642
		V38.95c0-0.553,0.448-1,1-1s1,0.447,1,1V44.941z M29.975,27.949c-2.757,0-5-2.243-5-5s2.243-5,5-5s5,2.243,5,5
		S32.732,27.949,29.975,27.949z"/>
	<path style="fill:none;stroke:#000000;stroke-width:0;stroke-linecap:round;stroke-linejoin:round;" d="M31.636,45.83
		c-0.068,0.009-0.134,0.023-0.202,0.031"/>
	<path style="fill:none;stroke:#000000;stroke-width:0;stroke-linecap:round;stroke-linejoin:round;" d="M28.515,45.861
		c-0.066-0.008-0.132-0.022-0.199-0.031"/>
</g>
<g>
</g>
<g>
</g>
<g>
</g>
<g>
</g>
<g>
</g>
<g>
</g>
<g>
</g>
<g>
</g>
<g>
</g>
<g>
</g>
<g>
</g>
<g>
</g>
<g>
</g>
<g>
</g>
<g>
</g>
</svg>
