<?xml version="1.0" encoding="iso-8859-1"?>
<!-- Generator: Adobe Illustrator 19.0.0, SVG Export Plug-In . SVG Version: 6.00 Build 0)  -->
<svg version="1.1" id="Capa_1" xmlns="http://www.w3.org/2000/svg" xmlns:xlink="http://www.w3.org/1999/xlink" x="0px" y="0px"
	 viewBox="0 0 60 60" style="enable-background:new 0 0 60 60;" xml:space="preserve">
<g>
	<path d="M60,43V1H0v42h26v6.129C22.424,49.368,13,50.345,13,54c0,3.955,11.12,5,17,5s17-1.045,17-5c0-3.655-9.424-4.632-13-4.871
		V43H60z M26,41H2V3h56v38H34H26z"/>
	<path d="M56,5H4v34h52V5z M18.293,10.293c0.391-0.391,1.023-0.391,1.414,0s0.391,1.023,0,1.414l-3,3C16.512,14.902,16.256,15,16,15
		s-0.512-0.098-0.707-0.293c-0.391-0.391-0.391-1.023,0-1.414L18.293,10.293z M9.293,14.293l4-4c0.391-0.391,1.023-0.391,1.414,0
		s0.391,1.023,0,1.414l-4,4C10.512,15.902,10.256,16,10,16s-0.512-0.098-0.707-0.293C8.902,15.316,8.902,14.684,9.293,14.293z
		 M15,16c0,0.26-0.11,0.52-0.29,0.71C14.52,16.89,14.27,17,14,17c-0.26,0-0.52-0.11-0.71-0.29C13.11,16.52,13,16.26,13,16
		c0-0.26,0.11-0.52,0.29-0.71c0.38-0.37,1.05-0.37,1.42,0C14.89,15.48,15,15.74,15,16z M9.293,19.293l2-2
		c0.391-0.391,1.023-0.391,1.414,0s0.391,1.023,0,1.414l-2,2C10.512,20.902,10.256,21,10,21s-0.512-0.098-0.707-0.293
		C8.902,20.316,8.902,19.684,9.293,19.293z M19.707,16.707l-9,9C10.512,25.902,10.256,26,10,26s-0.512-0.098-0.707-0.293
		c-0.391-0.391-0.391-1.023,0-1.414l9-9c0.391-0.391,1.023-0.391,1.414,0S20.098,16.316,19.707,16.707z M21.71,14.71
		C21.52,14.89,21.26,15,21,15c-0.26,0-0.52-0.11-0.71-0.29C20.11,14.52,20,14.27,20,14c0-0.26,0.11-0.52,0.29-0.71
		c0.38-0.37,1.05-0.37,1.42,0C21.89,13.48,22,13.74,22,14C22,14.27,21.89,14.52,21.71,14.71z M24.707,11.707l-1,1
		C23.512,12.902,23.256,13,23,13s-0.512-0.098-0.707-0.293c-0.391-0.391-0.391-1.023,0-1.414l1-1c0.391-0.391,1.023-0.391,1.414,0
		S25.098,11.316,24.707,11.707z"/>
</g>
<g>
</g>
<g>
</g>
<g>
</g>
<g>
</g>
<g>
</g>
<g>
</g>
<g>
</g>
<g>
</g>
<g>
</g>
<g>
</g>
<g>
</g>
<g>
</g>
<g>
</g>
<g>
</g>
<g>
</g>
</svg>
