<?xml version="1.0" encoding="iso-8859-1"?>
<!-- Generator: Adobe Illustrator 19.0.0, SVG Export Plug-In . SVG Version: 6.00 Build 0)  -->
<svg version="1.1" id="Capa_1" xmlns="http://www.w3.org/2000/svg" xmlns:xlink="http://www.w3.org/1999/xlink" x="0px" y="0px"
	 viewBox="0 0 60 60" style="enable-background:new 0 0 60 60;" xml:space="preserve">
<g>
	<g>
		<path d="M44,26.5c0-0.617,0.01-1.658,0.028-2.5H31v5c0,0.552-0.448,1-1,1s-1-0.448-1-1v-5H15.972C15.99,24.842,16,25.883,16,26.5
			c0,3.904-0.391,6.604-1.348,9.316c-1.184,3.358-1.653,6.71-1.394,9.961c0.075,0.933,0.14,1.277,0.183,1.458
			C15.222,54.632,22.186,60,30,60s14.778-5.369,16.559-12.769c0.043-0.182,0.109-0.529,0.184-1.455
			c0.259-3.251-0.211-6.602-1.395-9.96C44.391,33.104,44,30.404,44,26.5z M30,53c-2.757,0-5-2.243-5-5s2.243-5,5-5s5,2.243,5,5
			S32.757,53,30,53z"/>
		<path d="M15.875,22H28v-1h4v1h12.125c0.483-5.719,2.822-15.394,2.847-15.497c0.065-0.269,0.017-0.553-0.135-0.784
			c-0.152-0.231-0.393-0.39-0.665-0.438l-13-2.267c-0.291-0.05-0.589,0.03-0.815,0.22C32.131,3.425,32,3.705,32,4v3h-1V1
			c0-0.553-0.447-1-1-1s-1,0.447-1,1v6h-1V4c0-0.295-0.131-0.575-0.356-0.766c-0.226-0.189-0.52-0.27-0.815-0.22l-13,2.267
			c-0.272,0.048-0.513,0.206-0.665,0.438c-0.151,0.231-0.2,0.516-0.135,0.784C13.053,6.606,15.393,16.28,15.875,22z M28,9h4v1h-4V9z
			 M28,12h4v1h-4V12z M28,15h4v1h-4V15z M28,18h4v1h-4V18z"/>
		<circle cx="30" cy="48" r="3"/>
	</g>
</g>
<g>
</g>
<g>
</g>
<g>
</g>
<g>
</g>
<g>
</g>
<g>
</g>
<g>
</g>
<g>
</g>
<g>
</g>
<g>
</g>
<g>
</g>
<g>
</g>
<g>
</g>
<g>
</g>
<g>
</g>
</svg>
