<?xml version="1.0" encoding="iso-8859-1"?>
<!-- Generator: Adobe Illustrator 19.0.0, SVG Export Plug-In . SVG Version: 6.00 Build 0)  -->
<svg version="1.1" id="Capa_1" xmlns="http://www.w3.org/2000/svg" xmlns:xlink="http://www.w3.org/1999/xlink" x="0px" y="0px"
	 viewBox="0 0 60 60" style="enable-background:new 0 0 60 60;" xml:space="preserve">
<g>
	<path d="M46.546,10.264c-0.291-3.644-2.502-6.921-5.771-8.555C38.539,0.591,36.036,0,33.536,0h-7.072
		c-2.5,0-5.003,0.591-7.238,1.709c-3.268,1.634-5.479,4.911-5.771,8.554c-1.048,13.097-1.048,26.378,0,39.475l0.027,0.342
		c0.278,3.461,2.243,6.556,5.258,8.278l0.453,0.259C20.776,59.521,22.578,60,24.401,60h11.197c1.823,0,3.625-0.479,5.208-1.383
		l0.455-0.26c3.015-1.723,4.98-4.817,5.257-8.278l0.027-0.342C47.594,36.641,47.594,23.359,46.546,10.264z M33.2,51.967
		C32.381,53.24,30.992,54,29.483,54c-2.429,0-4.419-1.976-4.437-4.403c-0.009-1.035,0.409-2.045,1.179-2.841
		c0.666-0.689,1.32-1.148,1.999-1.401c0.751-0.277,1.626-0.048,2.166,0.565c0.382,0.435,0.559,1.009,0.484,1.575
		c-0.012,0.096-0.013,0.195-0.002,0.298c0.034,0.315,0.248,0.645,0.571,0.878c0.17,0.124,0.334,0.206,0.487,0.246
		c0.659,0.169,1.199,0.642,1.444,1.263C33.61,50.776,33.546,51.427,33.2,51.967z"/>
	<path d="M31.433,50.854c-0.398-0.104-0.789-0.292-1.161-0.563c-0.785-0.568-1.291-1.4-1.387-2.283
		c-0.028-0.262-0.025-0.521,0.008-0.771c-0.357,0.137-0.78,0.445-1.229,0.909c-0.402,0.417-0.621,0.927-0.617,1.436
		C27.057,50.916,28.149,52,29.483,52c0.823,0,1.582-0.415,2.031-1.109c-0.001,0-0.002,0-0.002,0
		C31.503,50.891,31.479,50.865,31.433,50.854z"/>
</g>
<g>
</g>
<g>
</g>
<g>
</g>
<g>
</g>
<g>
</g>
<g>
</g>
<g>
</g>
<g>
</g>
<g>
</g>
<g>
</g>
<g>
</g>
<g>
</g>
<g>
</g>
<g>
</g>
<g>
</g>
</svg>
