<?xml version="1.0" encoding="iso-8859-1"?>
<!-- Generator: Adobe Illustrator 19.0.0, SVG Export Plug-In . SVG Version: 6.00 Build 0)  -->
<svg version="1.1" id="Capa_1" xmlns="http://www.w3.org/2000/svg" xmlns:xlink="http://www.w3.org/1999/xlink" x="0px" y="0px"
	 viewBox="0 0 59.958 59.958" style="enable-background:new 0 0 59.958 59.958;" xml:space="preserve">
<g>
	<path d="M29.979,0c-9.649,0-17.5,7.819-17.5,17.43v25.099c0,9.611,7.851,17.43,17.5,17.43s17.5-7.819,17.5-17.43V17.43
		C47.479,7.819,39.629,0,29.979,0z M45.479,42.529c0,8.513-6.953,15.438-15.5,15.438s-15.5-6.925-15.5-15.438V17.43
		c0-8.513,6.953-15.438,15.5-15.438s15.5,6.925,15.5,15.438V42.529z"/>
	<g>
		<path d="M44.423,16.316c-0.021-0.267-0.05-0.531-0.085-0.794c0-0.003-0.001-0.006-0.001-0.01l-0.121-0.892l-0.016,0.001
			c-1.317-6.623-7.19-11.633-14.22-11.633s-12.903,5.011-14.22,11.633l-0.016-0.001l-0.121,0.892c0,0.003-0.001,0.006-0.001,0.01
			c-0.035,0.263-0.064,0.527-0.085,0.794c-0.034,0.389-0.057,0.76-0.057,1.113v13.545v11.554c0,7.963,6.505,14.442,14.5,14.442
			s14.5-6.479,14.5-14.442V30.975V17.43C44.479,17.077,44.457,16.705,44.423,16.316z M30.429,13.8c1.792,0,3.25,1.458,3.25,3.25
			s-1.458,3.25-3.25,3.25c-1.792,0-3.25-1.458-3.25-3.25S28.637,13.8,30.429,13.8z M17.479,28.938V17.5
			c0-0.208,0.021-0.411,0.031-0.617c1.925,0.663,3.369,3.13,3.369,6.017C20.88,25.834,19.425,28.299,17.479,28.938z M33.632,46.121
			c-0.816,1.272-2.205,2.032-3.715,2.032c-2.428,0-4.419-1.975-4.437-4.402c-0.008-1.036,0.411-2.045,1.178-2.84
			c0.666-0.689,1.319-1.148,1.998-1.402c0.759-0.281,1.63-0.05,2.169,0.564c0.382,0.435,0.559,1.009,0.484,1.575
			c-0.013,0.098-0.014,0.198-0.003,0.298c0.034,0.314,0.248,0.644,0.572,0.878c0.171,0.124,0.334,0.206,0.486,0.246
			c0.66,0.169,1.2,0.642,1.445,1.265C34.043,44.931,33.978,45.582,33.632,46.121z M42.479,28.938c-1.946-0.64-3.4-3.104-3.4-6.038
			c0-2.887,1.444-5.354,3.369-6.017c0.01,0.206,0.031,0.408,0.031,0.617V28.938z"/>
		<circle cx="30.429" cy="17.05" r="1.25"/>
		<path d="M31.865,45.007c-0.397-0.103-0.787-0.292-1.16-0.563c-0.786-0.568-1.292-1.401-1.388-2.283
			c-0.027-0.259-0.024-0.518,0.009-0.771c-0.358,0.138-0.782,0.446-1.229,0.91c-0.401,0.416-0.621,0.927-0.617,1.437
			c0.011,1.332,1.104,2.417,2.437,2.417c0.823,0,1.582-0.414,2.029-1.108h-0.001C31.935,45.045,31.913,45.019,31.865,45.007z"/>
	</g>
</g>
<g>
</g>
<g>
</g>
<g>
</g>
<g>
</g>
<g>
</g>
<g>
</g>
<g>
</g>
<g>
</g>
<g>
</g>
<g>
</g>
<g>
</g>
<g>
</g>
<g>
</g>
<g>
</g>
<g>
</g>
</svg>
