<?xml version="1.0" encoding="iso-8859-1"?>
<!-- Generator: Adobe Illustrator 19.0.0, SVG Export Plug-In . SVG Version: 6.00 Build 0)  -->
<svg version="1.1" id="Capa_1" xmlns="http://www.w3.org/2000/svg" xmlns:xlink="http://www.w3.org/1999/xlink" x="0px" y="0px"
	 viewBox="0 0 59.899 59.899" style="enable-background:new 0 0 59.899 59.899;" xml:space="preserve">
<g>
	<path style="fill:none;" d="M26.949,25.949c0.26,0,0.52-0.11,0.71-0.29c0.18-0.19,0.29-0.45,0.29-0.71s-0.11-0.521-0.29-0.71
		c-0.37-0.37-1.04-0.37-1.42,0c-0.18,0.189-0.29,0.45-0.29,0.71s0.11,0.52,0.29,0.71C26.429,25.839,26.689,25.949,26.949,25.949z"/>
	<path style="fill:none;" d="M34.656,27.242c-0.391-0.391-1.023-0.391-1.414,0l-4,4c-0.391,0.391-0.391,1.023,0,1.414
		c0.195,0.195,0.451,0.293,0.707,0.293s0.512-0.098,0.707-0.293l4-4C35.047,28.266,35.047,27.633,34.656,27.242z"/>
	<path style="fill:none;" d="M33.656,23.242c-0.391-0.391-1.023-0.391-1.414,0l-7,7c-0.391,0.391-0.391,1.023,0,1.414
		c0.195,0.195,0.451,0.293,0.707,0.293s0.512-0.098,0.707-0.293l7-7C34.047,24.266,34.047,23.633,33.656,23.242z"/>
	<path style="fill:none;" d="M13.949,42.186c0,0.421,0.343,0.764,0.764,0.764h2.473c0.421,0,0.764-0.343,0.764-0.764v-1.236h-4
		V42.186z"/>
	<path style="fill:none;" d="M29.949,18.949c-4.962,0-9,4.037-9,9s4.038,9,9,9s9-4.037,9-9S34.912,18.949,29.949,18.949z
		 M29.949,34.949c-3.86,0-7-3.141-7-7s3.14-7,7-7s7,3.141,7,7S33.809,34.949,29.949,34.949z"/>
	<path style="fill:none;" d="M42.949,27.949c0-7.168-5.832-13-13-13s-13,5.832-13,13s5.832,13,13,13S42.949,35.117,42.949,27.949z
		 M29.949,38.949c-6.065,0-11-4.935-11-11s4.935-11,11-11s11,4.935,11,11S36.015,38.949,29.949,38.949z"/>
	<path style="fill:none;" d="M42.949,42.186c0,0.421,0.343,0.764,0.764,0.764h2.473c0.421,0,0.764-0.343,0.764-0.764v-1.236h-4
		V42.186z"/>
	<path d="M29.949,20.949c-3.86,0-7,3.141-7,7s3.14,7,7,7s7-3.141,7-7S33.809,20.949,29.949,20.949z M26.239,24.239
		c0.38-0.37,1.05-0.37,1.42,0c0.18,0.189,0.29,0.45,0.29,0.71s-0.11,0.52-0.29,0.71c-0.19,0.18-0.45,0.29-0.71,0.29
		c-0.26,0-0.52-0.11-0.71-0.29c-0.18-0.19-0.29-0.45-0.29-0.71S26.059,24.429,26.239,24.239z M25.949,31.949
		c-0.256,0-0.512-0.098-0.707-0.293c-0.391-0.391-0.391-1.023,0-1.414l7-7c0.391-0.391,1.023-0.391,1.414,0s0.391,1.023,0,1.414
		l-7,7C26.461,31.852,26.205,31.949,25.949,31.949z M34.656,28.656l-4,4c-0.195,0.195-0.451,0.293-0.707,0.293
		s-0.512-0.098-0.707-0.293c-0.391-0.391-0.391-1.023,0-1.414l4-4c0.391-0.391,1.023-0.391,1.414,0S35.047,28.266,34.656,28.656z"/>
	<path d="M16.949,27.949c0-7.168,5.832-13,13-13h-17c-5.397,0-10.034,3.307-11.997,8h7.997c0.552,0,1,0.447,1,1s-0.448,1-1,1H0.313
		c-0.154,0.65-0.26,1.317-0.313,2h8.949c0.552,0,1,0.447,1,1s-0.448,1-1,1H0c0.052,0.683,0.158,1.35,0.313,2h8.637
		c0.552,0,1,0.447,1,1s-0.448,1-1,1H0.952c1.841,4.4,6.032,7.582,10.997,7.962v1.274c0,1.523,1.24,2.764,2.764,2.764h2.473
		c1.524,0,2.764-1.24,2.764-2.764v-1.236h10C22.781,40.949,16.949,35.117,16.949,27.949z M17.949,42.186
		c0,0.421-0.343,0.764-0.764,0.764h-2.473c-0.421,0-0.764-0.343-0.764-0.764v-1.236h4V42.186z"/>
	<path d="M29.949,16.949c-6.065,0-11,4.935-11,11s4.935,11,11,11s11-4.935,11-11S36.015,16.949,29.949,16.949z M29.949,36.949
		c-4.962,0-9-4.037-9-9s4.038-9,9-9s9,4.037,9,9S34.912,36.949,29.949,36.949z"/>
	<path d="M49.949,27.949c0-0.553,0.448-1,1-1h8.949c-0.052-0.683-0.158-1.35-0.313-2h-8.637c-0.552,0-1-0.447-1-1s0.448-1,1-1h7.997
		c-1.963-4.693-6.6-8-11.997-8h-17c7.168,0,13,5.832,13,13s-5.832,13-13,13h11v1.236c0,1.523,1.24,2.764,2.764,2.764h2.473
		c1.524,0,2.764-1.24,2.764-2.764v-1.391c4.523-0.702,8.281-3.744,9.997-7.846h-7.997c-0.552,0-1-0.447-1-1s0.448-1,1-1h8.637
		c0.154-0.65,0.26-1.317,0.313-2h-8.949C50.397,28.949,49.949,28.502,49.949,27.949z M46.949,42.186
		c0,0.421-0.343,0.764-0.764,0.764h-2.473c-0.421,0-0.764-0.343-0.764-0.764v-1.236h4V42.186z"/>
</g>
<g>
</g>
<g>
</g>
<g>
</g>
<g>
</g>
<g>
</g>
<g>
</g>
<g>
</g>
<g>
</g>
<g>
</g>
<g>
</g>
<g>
</g>
<g>
</g>
<g>
</g>
<g>
</g>
<g>
</g>
</svg>
