<?xml version="1.0" encoding="iso-8859-1"?>
<!-- Generator: Adobe Illustrator 19.0.0, SVG Export Plug-In . SVG Version: 6.00 Build 0)  -->
<svg version="1.1" id="Capa_1" xmlns="http://www.w3.org/2000/svg" xmlns:xlink="http://www.w3.org/1999/xlink" x="0px" y="0px"
	 viewBox="0 0 60 60" style="enable-background:new 0 0 60 60;" xml:space="preserve">
<g>
	<circle cx="53" cy="18" r="2"/>
	<circle cx="53" cy="38" r="2"/>
	<path d="M60,20.975v-5.949c0-2.072-1.58-3.763-3.595-3.982l-4.326-3.462C51.609,7.207,51.019,7,50.417,7H9.583
		C8.981,7,8.391,7.207,7.921,7.582l-4.326,3.462C1.58,11.262,0,12.953,0,15.025v5.949c0,2.072,1.58,3.763,3.595,3.982L7.398,28
		l-3.804,3.044C1.58,31.262,0,32.953,0,35.025v5.949c0,2.072,1.58,3.763,3.595,3.982l4.326,3.462C8.237,48.67,8.609,48.838,9,48.927
		v2.184C9,52.152,9.848,53,10.89,53h6.221c1.042,0,1.89-0.848,1.89-1.89V49h22v2.11c0,1.042,0.848,1.89,1.89,1.89h6.221
		c1.042,0,1.89-0.848,1.89-1.89v-2.184c0.391-0.088,0.763-0.257,1.079-0.509l4.326-3.462C58.42,44.738,60,43.047,60,40.975v-5.949
		c0-2.072-1.58-3.763-3.595-3.982L52.602,28l3.804-3.044C58.42,24.738,60,23.047,60,20.975z M9.17,9.145
		C9.286,9.052,9.433,9,9.583,9h40.835c0.15,0,0.296,0.052,0.413,0.145L53.149,11H6.851L9.17,9.145z M31,16c-0.552,0-1-0.448-1-1
		s0.448-1,1-1s1,0.448,1,1S31.552,16,31,16z M32,21c0,0.552-0.448,1-1,1s-1-0.448-1-1s0.448-1,1-1S32,20.448,32,21z M33,17
		c0.552,0,1,0.448,1,1s-0.448,1-1,1s-1-0.448-1-1S32.448,17,33,17z M35,20c0.552,0,1,0.448,1,1s-0.448,1-1,1s-1-0.448-1-1
		S34.448,20,35,20z M35,16c-0.552,0-1-0.448-1-1s0.448-1,1-1s1,0.448,1,1S35.552,16,35,16z M37,17c0.552,0,1,0.448,1,1s-0.448,1-1,1
		s-1-0.448-1-1S36.448,17,37,17z M39,20c0.552,0,1,0.448,1,1s-0.448,1-1,1s-1-0.448-1-1S38.448,20,39,20z M39,16
		c-0.552,0-1-0.448-1-1s0.448-1,1-1s1,0.448,1,1S39.552,16,39,16z M23,17h-3c-0.552,0-1-0.447-1-1s0.448-1,1-1h3
		c0.552,0,1,0.447,1,1S23.552,17,23,17z M24,20c0,0.553-0.448,1-1,1h-3c-0.552,0-1-0.447-1-1s0.448-1,1-1h3
		C23.552,19,24,19.447,24,20z M16,17h-3c-0.552,0-1-0.447-1-1s0.448-1,1-1h3c0.552,0,1,0.447,1,1S16.552,17,16,17z M17,20
		c0,0.553-0.448,1-1,1h-3c-0.552,0-1-0.447-1-1s0.448-1,1-1h3C16.552,19,17,19.447,17,20z M6,15h3c0.552,0,1,0.447,1,1s-0.448,1-1,1
		H6c-0.552,0-1-0.447-1-1S5.448,15,6,15z M5,20c0-0.553,0.448-1,1-1h3c0.552,0,1,0.447,1,1s-0.448,1-1,1H6C5.448,21,5,20.553,5,20z
		 M6,35h3c0.552,0,1,0.447,1,1s-0.448,1-1,1H6c-0.552,0-1-0.447-1-1S5.448,35,6,35z M5,40c0-0.553,0.448-1,1-1h3
		c0.552,0,1,0.447,1,1s-0.448,1-1,1H6C5.448,41,5,40.553,5,40z M50.83,46.855C50.714,46.948,50.567,47,50.417,47H41H19H9.583
		c-0.15,0-0.296-0.052-0.413-0.145L6.851,45h46.299L50.83,46.855z M13,39h3c0.552,0,1,0.447,1,1s-0.448,1-1,1h-3
		c-0.552,0-1-0.447-1-1S12.448,39,13,39z M12,36c0-0.553,0.448-1,1-1h3c0.552,0,1,0.447,1,1s-0.448,1-1,1h-3
		C12.448,37,12,36.553,12,36z M20,39h3c0.552,0,1,0.447,1,1s-0.448,1-1,1h-3c-0.552,0-1-0.447-1-1S19.448,39,20,39z M19,36
		c0-0.553,0.448-1,1-1h3c0.552,0,1,0.447,1,1s-0.448,1-1,1h-3C19.448,37,19,36.553,19,36z M39,40c0.552,0,1,0.448,1,1s-0.448,1-1,1
		s-1-0.448-1-1S38.448,40,39,40z M38,35c0-0.552,0.448-1,1-1s1,0.448,1,1s-0.448,1-1,1S38,35.552,38,35z M37,39
		c-0.552,0-1-0.448-1-1s0.448-1,1-1s1,0.448,1,1S37.552,39,37,39z M35,36c-0.552,0-1-0.448-1-1s0.448-1,1-1s1,0.448,1,1
		S35.552,36,35,36z M35,40c0.552,0,1,0.448,1,1s-0.448,1-1,1s-1-0.448-1-1S34.448,40,35,40z M33,39c-0.552,0-1-0.448-1-1
		s0.448-1,1-1s1,0.448,1,1S33.552,39,33,39z M31,36c-0.552,0-1-0.448-1-1s0.448-1,1-1s1,0.448,1,1S31.552,36,31,36z M31,40
		c0.552,0,1,0.448,1,1s-0.448,1-1,1s-1-0.448-1-1S30.448,40,31,40z M57,38c0,2.206-1.794,4-4,4s-4-1.794-4-4s1.794-4,4-4
		S57,35.794,57,38z M53.149,31H6.851l2.319-1.855C9.286,29.052,9.433,29,9.583,29h40.835c0.15,0,0.296,0.052,0.413,0.145L53.149,31z
		 M50.83,26.855C50.714,26.948,50.567,27,50.417,27H9.583c-0.15,0-0.296-0.052-0.413-0.145L6.851,25h46.299L50.83,26.855z M53,22
		c-2.206,0-4-1.794-4-4s1.794-4,4-4s4,1.794,4,4S55.206,22,53,22z"/>
</g>
<g>
</g>
<g>
</g>
<g>
</g>
<g>
</g>
<g>
</g>
<g>
</g>
<g>
</g>
<g>
</g>
<g>
</g>
<g>
</g>
<g>
</g>
<g>
</g>
<g>
</g>
<g>
</g>
<g>
</g>
</svg>
