<?xml version="1.0" encoding="iso-8859-1"?>
<!-- Generator: Adobe Illustrator 19.0.0, SVG Export Plug-In . SVG Version: 6.00 Build 0)  -->
<svg version="1.1" id="Capa_1" xmlns="http://www.w3.org/2000/svg" xmlns:xlink="http://www.w3.org/1999/xlink" x="0px" y="0px"
	 viewBox="0 0 60 60" style="enable-background:new 0 0 60 60;" xml:space="preserve">
<g>
	<path d="M60,29V3H0v26H60z M51,26h-4c-0.553,0-1-0.447-1-1s0.447-1,1-1h4c0.553,0,1,0.447,1,1S51.553,26,51,26z M51,23h-4
		c-0.553,0-1-0.447-1-1s0.447-1,1-1h4c0.553,0,1,0.447,1,1S51.553,23,51,23z M51,20h-4c-0.553,0-1-0.447-1-1s0.447-1,1-1h4
		c0.553,0,1,0.447,1,1S51.553,20,51,20z M55,7c0-0.553,0.447-1,1-1s1,0.447,1,1v20c0,0.553-0.447,1-1,1s-1-0.447-1-1V7z M49,7
		c2.206,0,4,1.794,4,4s-1.794,4-4,4s-4-1.794-4-4S46.794,7,49,7z M11,7h6h2h4h2h4h2h4h2h6v20h-6h-2h-4h-2h-4h-2h-4h-2h-6V7z M4,7
		c0-0.553,0.447-1,1-1s1,0.447,1,1v20c0,0.553-0.447,1-1,1s-1-0.447-1-1V7z"/>
	<rect x="13" y="35" width="4" height="16"/>
	<rect x="13" y="9" width="4" height="16"/>
	<rect x="19" y="35" width="4" height="16"/>
	<rect x="25" y="35" width="4" height="16"/>
	<rect x="19" y="9" width="4" height="16"/>
	<rect x="31" y="9" width="4" height="16"/>
	<rect x="37" y="9" width="4" height="16"/>
	<rect x="25" y="9" width="4" height="16"/>
	<circle cx="49" cy="11" r="2"/>
	<rect x="31" y="35" width="4" height="16"/>
	<path d="M0,31v26h60V31H0z M6,53c0,0.553-0.447,1-1,1s-1-0.447-1-1V33c0-0.553,0.447-1,1-1s1,0.447,1,1V53z M43,53h-6h-2h-4h-2h-4
		h-2h-4h-2h-6V33h6h2h4h2h4h2h4h2h6V53z M51,52h-4c-0.553,0-1-0.447-1-1s0.447-1,1-1h4c0.553,0,1,0.447,1,1S51.553,52,51,52z M51,49
		h-4c-0.553,0-1-0.447-1-1s0.447-1,1-1h4c0.553,0,1,0.447,1,1S51.553,49,51,49z M51,46h-4c-0.553,0-1-0.447-1-1s0.447-1,1-1h4
		c0.553,0,1,0.447,1,1S51.553,46,51,46z M49,41c-2.206,0-4-1.794-4-4s1.794-4,4-4s4,1.794,4,4S51.206,41,49,41z M57,53
		c0,0.553-0.447,1-1,1s-1-0.447-1-1V33c0-0.553,0.447-1,1-1s1,0.447,1,1V53z"/>
	<circle cx="49" cy="37" r="2"/>
	<rect x="37" y="35" width="4" height="16"/>
</g>
<g>
</g>
<g>
</g>
<g>
</g>
<g>
</g>
<g>
</g>
<g>
</g>
<g>
</g>
<g>
</g>
<g>
</g>
<g>
</g>
<g>
</g>
<g>
</g>
<g>
</g>
<g>
</g>
<g>
</g>
</svg>
