<?xml version="1.0" encoding="iso-8859-1"?>
<!-- Generator: Adobe Illustrator 19.0.0, SVG Export Plug-In . SVG Version: 6.00 Build 0)  -->
<svg version="1.1" id="Capa_1" xmlns="http://www.w3.org/2000/svg" xmlns:xlink="http://www.w3.org/1999/xlink" x="0px" y="0px"
	 viewBox="0 0 60 60" style="enable-background:new 0 0 60 60;" xml:space="preserve">
<path d="M46.106,13.978L42,7.703V0H18v7.702l-4.048,6.175l-0.059,0.101C13.309,15.146,13,16.454,13,17.761v24.479
	c0,1.307,0.309,2.615,0.894,3.783L18,52.297V60h24v-7.702l4.048-6.175l0.059-0.101C46.691,44.854,47,43.546,47,42.239V17.761
	C47,16.454,46.691,15.146,46.106,13.978z M43,39.579C43,41.466,41.466,43,39.579,43H20.421C18.534,43,17,41.466,17,39.579V18.421
	C17,16.534,18.534,15,20.421,15h19.158C41.466,15,43,16.534,43,18.421V39.579z"/>
<path d="M31.455,44h-2.91C27.693,44,27,44.693,27,45.545v2.91C27,49.307,27.693,50,28.545,50h2.91C32.307,50,33,49.307,33,48.455
	v-2.91C33,44.693,32.307,44,31.455,44z M31,48h-2v-2h2V48z"/>
<path d="M22,25c0.256,0,0.512-0.098,0.707-0.293l4-4c0.391-0.391,0.391-1.023,0-1.414s-1.023-0.391-1.414,0l-4,4
	c-0.391,0.391-0.391,1.023,0,1.414C21.488,24.902,21.744,25,22,25z"/>
<path d="M22,30c0.256,0,0.512-0.098,0.707-0.293l2-2c0.391-0.391,0.391-1.023,0-1.414s-1.023-0.391-1.414,0l-2,2
	c-0.391,0.391-0.391,1.023,0,1.414C21.488,29.902,21.744,30,22,30z"/>
<path d="M25.29,24.29C25.109,24.479,25,24.729,25,25c0,0.27,0.1,0.52,0.29,0.71C25.479,25.899,25.74,26,26,26s0.52-0.101,0.71-0.29
	C26.89,25.52,27,25.26,27,25s-0.11-0.521-0.29-0.71C26.33,23.92,25.68,23.91,25.29,24.29z"/>
<path d="M27.293,23.707C27.488,23.902,27.744,24,28,24s0.512-0.098,0.707-0.293l3-3c0.391-0.391,0.391-1.023,0-1.414
	s-1.023-0.391-1.414,0l-3,3C26.902,22.684,26.902,23.316,27.293,23.707z"/>
<path d="M30.293,24.293l-9,9c-0.391,0.391-0.391,1.023,0,1.414C21.488,34.902,21.744,35,22,35s0.512-0.098,0.707-0.293l9-9
	c0.391-0.391,0.391-1.023,0-1.414S30.684,23.902,30.293,24.293z"/>
<path d="M32.29,22.29C32.109,22.479,32,22.74,32,23s0.109,0.52,0.29,0.71C32.479,23.89,32.74,24,33,24s0.52-0.11,0.71-0.29
	C33.89,23.52,34,23.26,34,23s-0.11-0.521-0.29-0.7C33.34,21.92,32.66,21.92,32.29,22.29z"/>
<path d="M35.293,19.293l-1,1c-0.391,0.391-0.391,1.023,0,1.414C34.488,21.902,34.744,22,35,22s0.512-0.098,0.707-0.293l1-1
	c0.391-0.391,0.391-1.023,0-1.414S35.684,18.902,35.293,19.293z"/>
<g>
</g>
<g>
</g>
<g>
</g>
<g>
</g>
<g>
</g>
<g>
</g>
<g>
</g>
<g>
</g>
<g>
</g>
<g>
</g>
<g>
</g>
<g>
</g>
<g>
</g>
<g>
</g>
<g>
</g>
</svg>
