<?xml version="1.0" encoding="iso-8859-1"?>
<!-- Generator: Adobe Illustrator 19.0.0, SVG Export Plug-In . SVG Version: 6.00 Build 0)  -->
<svg version="1.1" id="Capa_1" xmlns="http://www.w3.org/2000/svg" xmlns:xlink="http://www.w3.org/1999/xlink" x="0px" y="0px"
	 viewBox="0 0 60 60" style="enable-background:new 0 0 60 60;" xml:space="preserve">
<g>
	<path d="M23.29,3.29C23.109,3.479,23,3.74,23,4s0.109,0.52,0.29,0.71C23.479,4.89,23.74,5,24,5s0.52-0.11,0.71-0.29
		C24.89,4.52,25,4.26,25,4s-0.11-0.521-0.29-0.71C24.33,2.92,23.67,2.92,23.29,3.29z"/>
	<path d="M15.29,3.29C15.109,3.479,15,3.729,15,4c0,0.27,0.109,0.52,0.29,0.71C15.479,4.89,15.729,5,16,5
		c0.26,0,0.52-0.11,0.71-0.29C16.89,4.52,17,4.26,17,4s-0.11-0.521-0.29-0.71C16.33,2.92,15.66,2.92,15.29,3.29z"/>
	<path d="M43.29,3.29C43.109,3.479,43,3.74,43,4s0.109,0.52,0.29,0.71C43.479,4.89,43.729,5,44,5c0.27,0,0.52-0.11,0.71-0.29
		C44.89,4.52,45,4.26,45,4s-0.11-0.521-0.29-0.71C44.34,2.92,43.66,2.92,43.29,3.29z"/>
	<path d="M26.29,3.29C26.109,3.479,26,3.74,26,4s0.109,0.52,0.29,0.71C26.479,4.89,26.74,5,27,5s0.52-0.11,0.71-0.29
		C27.899,4.52,28,4.26,28,4s-0.101-0.521-0.29-0.71C27.33,2.92,26.66,2.92,26.29,3.29z"/>
	<path d="M29.29,3.29C29.109,3.479,29,3.729,29,4c0,0.26,0.109,0.52,0.29,0.71C29.479,4.899,29.74,5,30,5s0.52-0.101,0.71-0.29
		C30.89,4.52,31,4.26,31,4s-0.11-0.521-0.29-0.71C30.34,2.92,29.649,2.92,29.29,3.29z"/>
	<path d="M32.29,3.29C32.109,3.479,32,3.74,32,4s0.109,0.52,0.29,0.71C32.479,4.89,32.74,5,33,5s0.52-0.11,0.71-0.29
		C33.899,4.52,34,4.26,34,4s-0.11-0.521-0.29-0.71C33.33,2.92,32.66,2.92,32.29,3.29z"/>
	<path d="M35.29,3.29C35.109,3.479,35,3.729,35,4c0,0.26,0.109,0.52,0.29,0.71C35.479,4.89,35.74,5,36,5s0.52-0.11,0.71-0.29
		C36.89,4.52,37,4.26,37,4s-0.11-0.521-0.29-0.71C36.34,2.92,35.67,2.92,35.29,3.29z"/>
	<path d="M24,57c0.26,0,0.52-0.11,0.71-0.29C24.89,56.52,25,56.26,25,56c0-0.271-0.11-0.521-0.29-0.71c-0.37-0.37-1.05-0.37-1.42,0
		C23.109,55.479,23,55.74,23,56s0.109,0.52,0.29,0.71C23.479,56.89,23.74,57,24,57z"/>
	<path d="M27,57c0.26,0,0.52-0.11,0.71-0.29C27.89,56.52,28,56.26,28,56s-0.101-0.521-0.29-0.71c-0.38-0.37-1.05-0.37-1.42,0
		C26.109,55.479,26,55.74,26,56c0,0.27,0.109,0.52,0.29,0.71C26.479,56.89,26.729,57,27,57z"/>
	<path d="M30,57c0.26,0,0.52-0.11,0.71-0.29C30.89,56.52,31,56.26,31,56s-0.11-0.521-0.29-0.71c-0.37-0.37-1.05-0.37-1.42,0
		C29.109,55.479,29,55.74,29,56s0.109,0.52,0.29,0.71C29.479,56.89,29.729,57,30,57z"/>
	<path d="M33,57c0.26,0,0.52-0.11,0.71-0.29C33.89,56.52,34,56.26,34,56s-0.101-0.521-0.29-0.71c-0.38-0.37-1.04-0.37-1.42,0
		C32.109,55.479,32,55.74,32,56s0.109,0.52,0.29,0.71C32.479,56.89,32.74,57,33,57z"/>
	<path d="M36,57c0.26,0,0.52-0.11,0.71-0.29C36.89,56.52,37,56.26,37,56s-0.11-0.521-0.29-0.7c-0.37-0.38-1.05-0.38-1.42-0.01
		C35.109,55.479,35,55.74,35,56c0,0.27,0.109,0.52,0.29,0.71C35.479,56.89,35.74,57,36,57z"/>
	<path d="M43.318,0H16.682C14.101,0,12,2.101,12,4.682V6v48v1.318C12,57.899,14.101,60,16.682,60h26.637
		C45.899,60,48,57.899,48,55.318V54V6V4.682C48,2.101,45.899,0,43.318,0z M46,55.318C46,56.797,44.797,58,43.318,58H16.682
		C15.203,58,14,56.797,14,55.318V54h32V55.318z M25.707,10.707l-3,3C22.512,13.902,22.256,14,22,14s-0.512-0.098-0.707-0.293
		c-0.391-0.391-0.391-1.023,0-1.414l3-3c0.391-0.391,1.023-0.391,1.414,0S26.098,10.316,25.707,10.707z M26.29,12.29
		c0.37-0.37,1.04-0.37,1.42,0C27.89,12.479,28,12.74,28,13s-0.101,0.52-0.29,0.71C27.52,13.89,27.26,14,27,14s-0.521-0.11-0.71-0.29
		C26.109,13.52,26,13.26,26,13C26,12.729,26.109,12.479,26.29,12.29z M20.707,10.707l-4,4C16.512,14.902,16.256,15,16,15
		s-0.512-0.098-0.707-0.293c-0.391-0.391-0.391-1.023,0-1.414l4-4c0.391-0.391,1.023-0.391,1.414,0S21.098,10.316,20.707,10.707z
		 M21,15c0,0.26-0.11,0.52-0.29,0.71C20.52,15.89,20.26,16,20,16s-0.521-0.11-0.71-0.29C19.109,15.52,19,15.26,19,15
		c0-0.271,0.109-0.521,0.29-0.71c0.37-0.37,1.04-0.37,1.42,0C20.89,14.479,21,14.74,21,15z M15.293,18.293l2-2
		c0.391-0.391,1.023-0.391,1.414,0s0.391,1.023,0,1.414l-2,2C16.512,19.902,16.256,20,16,20s-0.512-0.098-0.707-0.293
		C14.902,19.316,14.902,18.684,15.293,18.293z M15.293,23.293l9-9c0.391-0.391,1.023-0.391,1.414,0s0.391,1.023,0,1.414l-9,9
		C16.512,24.902,16.256,25,16,25s-0.512-0.098-0.707-0.293C14.902,24.316,14.902,23.684,15.293,23.293z M28.293,10.293l1-1
		c0.391-0.391,1.023-0.391,1.414,0s0.391,1.023,0,1.414l-1,1C29.512,11.902,29.256,12,29,12s-0.512-0.098-0.707-0.293
		C27.902,11.316,27.902,10.684,28.293,10.293z M46,6H14V4.682C14,3.203,15.203,2,16.682,2h26.637C44.797,2,46,3.203,46,4.682V6z"/>
</g>
<g>
</g>
<g>
</g>
<g>
</g>
<g>
</g>
<g>
</g>
<g>
</g>
<g>
</g>
<g>
</g>
<g>
</g>
<g>
</g>
<g>
</g>
<g>
</g>
<g>
</g>
<g>
</g>
<g>
</g>
</svg>
