<?xml version="1.0" encoding="iso-8859-1"?>
<!-- Generator: Adobe Illustrator 19.0.0, SVG Export Plug-In . SVG Version: 6.00 Build 0)  -->
<svg version="1.1" id="Capa_1" xmlns="http://www.w3.org/2000/svg" xmlns:xlink="http://www.w3.org/1999/xlink" x="0px" y="0px"
	 viewBox="0 0 60 60" style="enable-background:new 0 0 60 60;" xml:space="preserve">
<g>
	<path d="M53,25h-4.393c-0.973-5.021-3.742-9.401-7.607-12.46V0H15v12.54C10.136,16.389,7,22.33,7,29s3.136,12.611,8,16.46V60h26
		V45.46c3.866-3.06,6.634-7.439,7.607-12.46H53V25z M41.818,42H14.182C10.979,38.598,9,34.03,9,29c0-10.477,8.523-19,19-19
		s19,8.523,19,19C47,34.03,45.021,38.598,41.818,42z"/>
	<path d="M17,22c0.256,0,0.512-0.098,0.707-0.293l4-4c0.391-0.391,0.391-1.023,0-1.414s-1.023-0.391-1.414,0l-4,4
		c-0.391,0.391-0.391,1.023,0,1.414C16.488,21.902,16.744,22,17,22z"/>
	<path d="M17,27c0.256,0,0.512-0.098,0.707-0.293l2-2c0.391-0.391,0.391-1.023,0-1.414s-1.023-0.391-1.414,0l-2,2
		c-0.391,0.391-0.391,1.023,0,1.414C16.488,26.902,16.744,27,17,27z"/>
	<path d="M20.29,21.29C20.109,21.479,20,21.74,20,22s0.109,0.52,0.29,0.71C20.479,22.89,20.74,23,21,23s0.52-0.11,0.71-0.29
		C21.89,22.52,22,22.26,22,22s-0.11-0.521-0.29-0.71C21.34,20.92,20.66,20.92,20.29,21.29z"/>
	<path d="M22.293,20.707C22.488,20.902,22.744,21,23,21s0.512-0.098,0.707-0.293l3-3c0.391-0.391,0.391-1.023,0-1.414
		s-1.023-0.391-1.414,0l-3,3C21.902,19.684,21.902,20.316,22.293,20.707z"/>
	<path d="M25.293,21.293l-9,9c-0.391,0.391-0.391,1.023,0,1.414C16.488,31.902,16.744,32,17,32s0.512-0.098,0.707-0.293l9-9
		c0.391-0.391,0.391-1.023,0-1.414S25.684,20.902,25.293,21.293z"/>
	<path d="M27.29,19.29C27.109,19.479,27,19.74,27,20s0.109,0.52,0.29,0.71C27.479,20.89,27.74,21,28,21s0.52-0.11,0.71-0.29
		C28.89,20.52,29,20.26,29,20s-0.11-0.521-0.29-0.71C28.34,18.92,27.66,18.92,27.29,19.29z"/>
	<path d="M30.293,16.293l-1,1c-0.391,0.391-0.391,1.023,0,1.414C29.488,18.902,29.744,19,30,19s0.512-0.098,0.707-0.293l1-1
		c0.391-0.391,0.391-1.023,0-1.414S30.684,15.902,30.293,16.293z"/>
</g>
<g>
</g>
<g>
</g>
<g>
</g>
<g>
</g>
<g>
</g>
<g>
</g>
<g>
</g>
<g>
</g>
<g>
</g>
<g>
</g>
<g>
</g>
<g>
</g>
<g>
</g>
<g>
</g>
<g>
</g>
</svg>
