<?xml version="1.0" encoding="iso-8859-1"?>
<!-- Generator: Adobe Illustrator 19.0.0, SVG Export Plug-In . SVG Version: 6.00 Build 0)  -->
<svg version="1.1" id="Capa_1" xmlns="http://www.w3.org/2000/svg" xmlns:xlink="http://www.w3.org/1999/xlink" x="0px" y="0px"
	 viewBox="0 0 56 56" style="enable-background:new 0 0 56 56;" xml:space="preserve">
<g>
	<path d="M23.5,54h-4c-0.552,0-1,0.447-1,1s0.448,1,1,1h4c0.552,0,1-0.447,1-1S24.052,54,23.5,54z"/>
	<path d="M7.5,50h-4c-0.552,0-1,0.447-1,1s0.448,1,1,1h4c0.552,0,1-0.447,1-1S8.052,50,7.5,50z"/>
	<path d="M50.5,54h-4c-0.552,0-1,0.447-1,1s0.448,1,1,1h4c0.552,0,1-0.447,1-1S51.052,54,50.5,54z"/>
	<path d="M6.5,30.5c0,5.477,3.161,10.507,8,12.944V17.556C9.661,19.993,6.5,25.023,6.5,30.5z"/>
	<path d="M39.5,2V0.919C39.5,0.412,39.088,0,38.581,0H3.419C2.912,0,2.5,0.412,2.5,0.919V3h4c0.552,0,1,0.447,1,1s-0.448,1-1,1h-4v2
		h4c0.552,0,1,0.447,1,1s-0.448,1-1,1h-4v2h4c0.552,0,1,0.447,1,1s-0.448,1-1,1h-4v2h4c0.552,0,1,0.447,1,1s-0.448,1-1,1h-4v31.202
		C2.5,48.643,2.858,49,3.298,49H14.5v-3.363c-6.006-2.584-10-8.573-10-15.137s3.994-12.553,10-15.137V4.919
		C14.5,3.31,15.81,2,17.419,2H39.5z"/>
	<path d="M44.607,23.669c-0.078-0.069-0.152-0.143-0.232-0.211c-0.258-0.221-0.529-0.423-0.799-0.623
		c-0.129-0.095-0.253-0.197-0.385-0.288c-0.203-0.14-0.416-0.263-0.625-0.392c-0.199-0.122-0.393-0.251-0.598-0.364
		c-0.073-0.04-0.15-0.075-0.224-0.114c-0.049-0.026-0.1-0.048-0.149-0.074c-0.221-0.114-0.445-0.222-0.672-0.324
		c-0.184-0.082-0.368-0.163-0.556-0.237c-0.127-0.051-0.258-0.094-0.387-0.142c-0.502-0.182-1.015-0.342-1.542-0.471
		c-0.036-0.009-0.071-0.019-0.106-0.027l-0.254-0.062l-0.004-0.005C37.081,20.12,36.055,20,35,20c-0.339,0-0.672,0.028-1.005,0.051
		l-0.596,0.043C26.155,20.893,20.5,27.046,20.5,34.5C20.5,42.495,27.005,49,35,49s14.5-6.505,14.5-14.5
		c0-3.885-1.545-7.411-4.041-10.017C45.185,24.197,44.899,23.929,44.607,23.669z M35,40c-3.033,0-5.5-2.468-5.5-5.5S31.967,29,35,29
		s5.5,2.468,5.5,5.5S38.033,40,35,40z"/>
	<path d="M40.115,18.822c0.42,0.137,0.835,0.285,1.242,0.456c0.1,0.042,0.196,0.092,0.296,0.136
		c0.351,0.156,0.701,0.314,1.041,0.495c0,0,0,0,0,0c1.619-0.325,2.805-1.742,2.805-3.408c0-1.93-1.57-3.5-3.5-3.5s-3.5,1.57-3.5,3.5
		c0,0.896,0.339,1.582,0.685,2.05c0.224,0.059,0.449,0.114,0.67,0.182C39.943,18.758,40.028,18.793,40.115,18.822z"/>
	<path d="M35,31c-1.93,0-3.5,1.57-3.5,3.5S33.07,38,35,38s3.5-1.57,3.5-3.5S36.93,31,35,31z"/>
	<path d="M42,9c-4.136,0-7.5,3.364-7.5,7.5c0,0.508,0.051,1.012,0.152,1.507C34.77,18.003,34.885,18,35,18
		c0.556,0,1.107,0.03,1.652,0.084c0.038,0.004,0.075,0.01,0.113,0.014C36.603,17.58,36.5,17.045,36.5,16.5
		c0-3.032,2.467-5.5,5.5-5.5s5.5,2.468,5.5,5.5c0,2.005-1.097,3.767-2.744,4.722c0.184,0.137,0.371,0.269,0.55,0.414
		c0.276,0.221,0.537,0.458,0.798,0.696c0.092,0.084,0.19,0.158,0.281,0.245c1.938-1.402,3.115-3.667,3.115-6.076
		C49.5,12.364,46.136,9,42,9z"/>
	<path d="M52.581,4H17.419C16.912,4,16.5,4.412,16.5,4.919V7h4c0.552,0,1,0.447,1,1s-0.448,1-1,1h-4v2h4c0.552,0,1,0.447,1,1
		s-0.448,1-1,1h-4v2h4c0.552,0,1,0.447,1,1s-0.448,1-1,1h-4v2h4c0.552,0,1,0.447,1,1s-0.448,1-1,1h-4v31.202
		c0,0.44,0.358,0.798,0.798,0.798h35.404c0.44,0,0.798-0.357,0.798-0.798V4.919C53.5,4.412,53.088,4,52.581,4z M51.5,34.5
		C51.5,43.598,44.098,51,35,51s-16.5-7.402-16.5-16.5c0-8.303,6.172-15.175,14.166-16.315c-0.1-0.556-0.166-1.117-0.166-1.685
		c0-5.238,4.262-9.5,9.5-9.5s9.5,4.262,9.5,9.5c0,2.969-1.411,5.762-3.746,7.546C50.093,26.894,51.5,30.536,51.5,34.5z"/>
</g>
<g>
</g>
<g>
</g>
<g>
</g>
<g>
</g>
<g>
</g>
<g>
</g>
<g>
</g>
<g>
</g>
<g>
</g>
<g>
</g>
<g>
</g>
<g>
</g>
<g>
</g>
<g>
</g>
<g>
</g>
</svg>
