<?xml version="1.0" encoding="iso-8859-1"?>
<!-- Generator: Adobe Illustrator 19.0.0, SVG Export Plug-In . SVG Version: 6.00 Build 0)  -->
<svg version="1.1" id="Capa_1" xmlns="http://www.w3.org/2000/svg" xmlns:xlink="http://www.w3.org/1999/xlink" x="0px" y="0px"
	 viewBox="0 0 60 60" style="enable-background:new 0 0 60 60;" xml:space="preserve">
<g>
	<path d="M50,12V7h-1V4.5C49,3.122,47.879,2,46.5,2S44,3.122,44,4.5V7h-1v5H0v46h60V12H50z M46,4.5C46,4.229,46.229,4,46.5,4
		S47,4.229,47,4.5V7h-1V4.5z M58,56H2V14h42h1v22l1.5,1.764L48,36V14h1h9V56z"/>
	<path d="M47,40v2h-1v-2h-0.618l-2.047-4.094c-0.113-0.226-0.15-0.471-0.127-0.712C43.079,34.966,43,34.707,43,34.428V16H20v38h36
		V16h-6v18.428c0,0.279-0.079,0.538-0.208,0.766c0.023,0.241-0.015,0.486-0.127,0.712L47.618,40H47z"/>
	<rect x="4.118" y="18" width="13.765" height="10"/>
	<rect x="4.118" y="42" width="13.765" height="10"/>
	<rect x="4.118" y="30" width="13.765" height="10"/>
</g>
<g>
</g>
<g>
</g>
<g>
</g>
<g>
</g>
<g>
</g>
<g>
</g>
<g>
</g>
<g>
</g>
<g>
</g>
<g>
</g>
<g>
</g>
<g>
</g>
<g>
</g>
<g>
</g>
<g>
</g>
</svg>
