<?xml version="1.0" encoding="iso-8859-1"?>
<!-- Generator: Adobe Illustrator 19.0.0, SVG Export Plug-In . SVG Version: 6.00 Build 0)  -->
<svg version="1.1" id="Capa_1" xmlns="http://www.w3.org/2000/svg" xmlns:xlink="http://www.w3.org/1999/xlink" x="0px" y="0px"
	 viewBox="0 0 60 60" style="enable-background:new 0 0 60 60;" xml:space="preserve">
<g>
	<path d="M57.481,7H2.519C1.13,7,0,8.13,0,9.519v40.963C0,51.87,1.13,53,2.519,53h54.963C58.87,53,60,51.87,60,50.481V9.519
		C60,8.13,58.87,7,57.481,7z M58,14c-0.552,0-1,0.448-1,1s0.448,1,1,1v1c-0.552,0-1,0.448-1,1s0.448,1,1,1v1c-0.552,0-1,0.448-1,1
		s0.448,1,1,1v1c-0.552,0-1,0.448-1,1s0.448,1,1,1v1c-0.552,0-1,0.448-1,1s0.448,1,1,1v1c-0.552,0-1,0.448-1,1s0.448,1,1,1v1
		c-0.552,0-1,0.448-1,1s0.448,1,1,1v1c-0.552,0-1,0.448-1,1s0.448,1,1,1v1c-0.552,0-1,0.448-1,1s0.448,1,1,1v1c-0.552,0-1,0.448-1,1
		s0.448,1,1,1v1c-0.552,0-1,0.448-1,1s0.448,1,1,1v4.481C58,50.768,57.768,51,57.481,51H2.519C2.232,51,2,50.768,2,50.481V46
		c0.552,0,1-0.448,1-1s-0.448-1-1-1v-1c0.552,0,1-0.448,1-1s-0.448-1-1-1v-1c0.552,0,1-0.448,1-1s-0.448-1-1-1v-1
		c0.552,0,1-0.448,1-1s-0.448-1-1-1v-1c0.552,0,1-0.448,1-1s-0.448-1-1-1v-1c0.552,0,1-0.448,1-1s-0.448-1-1-1v-1
		c0.552,0,1-0.448,1-1s-0.448-1-1-1v-1c0.552,0,1-0.448,1-1s-0.448-1-1-1v-1c0.552,0,1-0.448,1-1s-0.448-1-1-1v-1
		c0.552,0,1-0.448,1-1s-0.448-1-1-1v-1c0.552,0,1-0.448,1-1s-0.448-1-1-1V9.519C2,9.232,2.232,9,2.519,9h54.963
		C57.768,9,58,9.232,58,9.519V14z"/>
	<path d="M6,48h48V12H6V48z M21.293,15.293l1-1c0.391-0.391,1.023-0.391,1.414,0s0.391,1.023,0,1.414l-1,1
		C22.512,16.902,22.256,17,22,17s-0.512-0.098-0.707-0.293C20.902,16.316,20.902,15.684,21.293,15.293z M20.71,17.29
		C20.89,17.48,21,17.74,21,18c0,0.26-0.11,0.52-0.29,0.71C20.52,18.89,20.26,19,20,19c-0.26,0-0.52-0.11-0.71-0.29
		C19.11,18.52,19,18.27,19,18s0.11-0.52,0.29-0.71C19.66,16.92,20.34,16.92,20.71,17.29z M17.293,14.293
		c0.391-0.391,1.023-0.391,1.414,0s0.391,1.023,0,1.414l-3,3C15.512,18.902,15.256,19,15,19s-0.512-0.098-0.707-0.293
		c-0.391-0.391-0.391-1.023,0-1.414L17.293,14.293z M8.293,18.293l4-4c0.391-0.391,1.023-0.391,1.414,0s0.391,1.023,0,1.414l-4,4
		C9.512,19.902,9.256,20,9,20s-0.512-0.098-0.707-0.293C7.902,19.316,7.902,18.684,8.293,18.293z M14,20c0,0.26-0.11,0.52-0.29,0.71
		C13.52,20.89,13.26,21,13,21c-0.26,0-0.52-0.11-0.71-0.29C12.11,20.52,12,20.26,12,20c0-0.26,0.11-0.52,0.29-0.71
		c0.38-0.37,1.04-0.37,1.42,0C13.89,19.48,14,19.74,14,20z M8.293,23.293l2-2c0.391-0.391,1.023-0.391,1.414,0s0.391,1.023,0,1.414
		l-2,2C9.512,24.902,9.256,25,9,25s-0.512-0.098-0.707-0.293C7.902,24.316,7.902,23.684,8.293,23.293z M8.293,28.293l9-9
		c0.391-0.391,1.023-0.391,1.414,0s0.391,1.023,0,1.414l-9,9C9.512,29.902,9.256,30,9,30s-0.512-0.098-0.707-0.293
		C7.902,29.316,7.902,28.684,8.293,28.293z"/>
</g>
<g>
</g>
<g>
</g>
<g>
</g>
<g>
</g>
<g>
</g>
<g>
</g>
<g>
</g>
<g>
</g>
<g>
</g>
<g>
</g>
<g>
</g>
<g>
</g>
<g>
</g>
<g>
</g>
<g>
</g>
</svg>
