<?xml version="1.0" encoding="iso-8859-1"?>
<!-- Generator: Adobe Illustrator 19.0.0, SVG Export Plug-In . SVG Version: 6.00 Build 0)  -->
<svg version="1.1" id="Capa_1" xmlns="http://www.w3.org/2000/svg" xmlns:xlink="http://www.w3.org/1999/xlink" x="0px" y="0px"
	 viewBox="0 0 60 60" style="enable-background:new 0 0 60 60;" xml:space="preserve">
<g>
	<path d="M55,31.5c-0.553,0-1,0.448-1,1v5c0,0.552,0.447,1,1,1s1-0.448,1-1v-5C56,31.948,55.553,31.5,55,31.5z"/>
	<path d="M15,50.5h37v-33h-6v17.428c0,0.279-0.222,1.252-0.335,1.478L43.618,40.5H43v2h-1v-2h-0.618l-2.047-4.094
		C39.222,36.18,39,35.207,39,34.928V17.5H15V50.5z"/>
	<path d="M55.132,10.5H46v-3h-1V5c0-1.378-1.121-2.5-2.5-2.5S40,3.622,40,5v2.5h-1v3H4.868C2.184,10.5,0,12.684,0,15.368V17.5v33
		v2.132C0,55.316,2.184,57.5,4.868,57.5h50.264c2.685,0,4.868-2.184,4.868-4.868V15.368C60,12.684,57.816,10.5,55.132,10.5z M42,5
		c0-0.271,0.229-0.5,0.5-0.5S43,4.729,43,5v2.5h-1V5z M58,52.632c0,1.582-1.287,2.868-2.868,2.868H4.868
		C3.287,55.5,2,54.213,2,52.632V50.5h11v-33H2v-2.132C2,13.787,3.287,12.5,4.868,12.5H39v5h2v-7v-1h3v1v7h2v-5h9.132
		c1.581,0,2.868,1.287,2.868,2.868V52.632z M6,25.5h3c0.553,0,1,0.448,1,1s-0.447,1-1,1H6c-0.553,0-1-0.448-1-1S5.447,25.5,6,25.5z
		 M5,22.5c0-0.552,0.447-1,1-1h3c0.553,0,1,0.448,1,1s-0.447,1-1,1H6C5.447,23.5,5,23.052,5,22.5z M7.5,29.5
		c2.481,0,4.5,2.019,4.5,4.5s-2.019,4.5-4.5,4.5S3,36.481,3,34S5.019,29.5,7.5,29.5z M9,42.5H6c-0.553,0-1-0.448-1-1s0.447-1,1-1h3
		c0.553,0,1,0.448,1,1S9.553,42.5,9,42.5z M10,45.5c0,0.552-0.447,1-1,1H6c-0.553,0-1-0.448-1-1s0.447-1,1-1h3
		C9.553,44.5,10,44.948,10,45.5z"/>
</g>
<g>
</g>
<g>
</g>
<g>
</g>
<g>
</g>
<g>
</g>
<g>
</g>
<g>
</g>
<g>
</g>
<g>
</g>
<g>
</g>
<g>
</g>
<g>
</g>
<g>
</g>
<g>
</g>
<g>
</g>
</svg>
