<?xml version="1.0" encoding="iso-8859-1"?>
<!-- Generator: Adobe Illustrator 19.0.0, SVG Export Plug-In . SVG Version: 6.00 Build 0)  -->
<svg version="1.1" id="Capa_1" xmlns="http://www.w3.org/2000/svg" xmlns:xlink="http://www.w3.org/1999/xlink" x="0px" y="0px"
	 viewBox="0 0 56.836 56.836" style="enable-background:new 0 0 56.836 56.836;" xml:space="preserve">
<path d="M56.328,12.185l-0.893-0.893l-4.95,4.95c-0.195,0.195-0.451,0.293-0.707,0.293s-0.512-0.098-0.707-0.293
	c-0.391-0.391-0.391-1.023,0-1.414l4.95-4.949l-2.122-2.122l-4.243,4.243l-1.413-1.413c0,0-0.001-0.001-0.001-0.001l-0.707,0.707
	l1.414,1.414l-3.536,3.535L42,14.827l-0.707,0.707l1.414,1.414l-2.829,2.829c-0.195,0.195-0.451,0.293-0.707,0.293
	s-0.512-0.098-0.707-0.293c-0.391-0.391-0.391-1.023,0-1.414l1.415-1.415l-1.415-1.414L42,11.999l1.414,1.414l0.708-0.707
	l-1.415-1.414l3.537-3.537l1.414,1.416l2.828-2.828l-3.536-3.535L42,7.756c-0.195,0.195-0.451,0.293-0.707,0.293
	s-0.512-0.098-0.707-0.293c-0.391-0.391-0.391-1.023,0-1.414l4.949-4.949L44.642,0.5c-0.655-0.658-1.8-0.658-2.457-0.001
	L31.393,11.292l-0.909-0.909c-1.402-1.404-3.851-1.404-5.253,0L7.705,27.909c-0.85,0.85-1.318,1.979-1.318,3.182
	c0,1.201,0.468,2.332,1.318,3.182c0.975,0.975,0.975,2.562,0,3.536l-1.228,1.227c-1.077,1.078-1.077,2.832,0,3.91l1.581,1.581
	l-7.183,7.182c-1.168,1.17-1.168,3.072,0,4.242c0.567,0.566,1.32,0.879,2.121,0.879c0.802,0,1.555-0.313,2.121-0.879l7.182-7.182
	l1.58,1.58c0.522,0.522,1.217,0.811,1.955,0.811s1.433-0.288,1.955-0.811l1.227-1.227c0.945-0.946,2.591-0.944,3.536,0
	c0.85,0.85,1.98,1.317,3.182,1.317c1.202,0,2.332-0.468,3.182-1.317l17.526-17.526c0.702-0.701,1.088-1.634,1.088-2.626
	s-0.386-1.925-1.088-2.627l-0.909-0.909l10.792-10.792C57.005,13.965,57.006,12.864,56.328,12.185z"/>
<g>
</g>
<g>
</g>
<g>
</g>
<g>
</g>
<g>
</g>
<g>
</g>
<g>
</g>
<g>
</g>
<g>
</g>
<g>
</g>
<g>
</g>
<g>
</g>
<g>
</g>
<g>
</g>
<g>
</g>
</svg>
