<?xml version="1.0" encoding="iso-8859-1"?>
<!-- Generator: Adobe Illustrator 19.0.0, SVG Export Plug-In . SVG Version: 6.00 Build 0)  -->
<svg version="1.1" id="Layer_1" xmlns="http://www.w3.org/2000/svg" xmlns:xlink="http://www.w3.org/1999/xlink" x="0px" y="0px"
	 viewBox="0 0 511.997 511.997" style="enable-background:new 0 0 511.997 511.997;" xml:space="preserve">
<g>
	<g>
		<path d="M189.457,211.075c-2.623-7.336-10.693-11.156-18.032-8.535l-46.298,16.552l-37.979-27.737l34.628,13.326l3.533-1.262
			c0.479-11.254-8.175-20.915-19.628-21.718l-35.929-2.518c-12.303-0.862-22.76,8.82-22.666,21.007l0.785,101.885H37.739
			l-15.26-118.962c-0.793-6.182-6.439-10.55-12.629-9.758c-6.182,0.793-10.55,6.448-9.757,12.63l16.521,128.812
			c0.722,5.631,5.516,9.849,11.193,9.849h41.065v47.318l-26.959,21.73c-3.348,2.698-3.874,7.599-1.177,10.946
			c2.7,3.348,7.602,3.874,10.946,1.176l17.19-13.855v7.794c0,4.299,3.486,7.785,7.785,7.785s7.785-3.486,7.785-7.785v-7.794
			l17.19,13.855c3.339,2.693,8.243,2.178,10.946-1.176c2.698-3.348,2.171-8.249-1.177-10.946l-26.96-21.73v-47.318h37.451
			c6.156,0,11.153-4.932,11.274-11.059l4.676,1.192l20.552,67.611v-97.01c-0.939-0.436-1.923-0.793-2.946-1.054l-35.279-8.992
			l0.732-10.177c-5.816,0.126-11.406-2.486-15.048-7.005l-35.345-44.012l44.013,32.143c3.728,2.723,8.613,3.484,13.069,1.892
			l53.333-19.067C188.259,226.485,192.079,218.411,189.457,211.075z"/>
	</g>
</g>
<g>
	<g>
		<path d="M241.441,318.933c-7.939,3.984-11.104,13.568-7.067,21.407c4.028,7.823,13.728,10.968,21.682,6.977l43.361-21.424v-35.625
			L241.441,318.933z"/>
	</g>
</g>
<g>
	<g>
		<path d="M97.302,104.537c-17.263-1.21-32.251,11.627-33.475,28.67c-1.225,17.044,11.776,31.841,29.038,33.051
			c17.263,1.21,32.251-11.627,33.475-28.67C127.565,120.545,114.565,105.748,97.302,104.537z"/>
	</g>
</g>
<g>
	<g>
		<path d="M327.496,258.377c-15.272,0-119.896,0-134.099,0h-24.944c-6.436,0-11.677,5.234-11.677,11.678
			c0,6.344,5.165,11.678,11.677,11.678h1.616v117.615c0,4.299,3.486,7.785,7.785,7.785s7.785-3.486,7.785-7.785V281.732h11.678
			c92.319,0,63.869,0,113.776,0v117.615c0,4.299,3.486,7.785,7.785,7.785c4.299,0,7.785-3.486,7.785-7.785V281.732h0.833
			c6.501,0,11.677-5.309,11.677-11.678C339.173,263.567,333.896,258.377,327.496,258.377z"/>
	</g>
</g>
<g>
	<g>
		<path d="M251.36,187.773c-3.757-2.086-8.499-0.731-10.584,3.03l-23.629,42.585c-23.664,0-18.503,0-42.541,0
			c-4.298,0-7.784,3.486-7.784,7.785c0,4.338,3.553,7.785,7.785,7.785h47.124c2.829,0,5.435-1.534,6.807-4.008l25.854-46.592
			C256.476,194.598,255.119,189.859,251.36,187.773z"/>
	</g>
</g>
<g>
	<g>
		<path d="M477.028,128.582c-0.027,0.159-0.017,0.201,0.044,0.077C477.058,128.632,477.042,128.608,477.028,128.582z"/>
	</g>
</g>
<g>
	<g>
		<path d="M464.465,116.609c-13.858-6.588-30.502-0.838-37.175,12.846c-6.673,13.682-0.849,30.115,13.01,36.703
			c8.125,3.863,17.205,3.478,24.674-0.254l11.799-37.762C474.079,123.294,469.896,119.191,464.465,116.609z"/>
	</g>
</g>
<g>
	<g>
		<path d="M496.297,190.864l15.12-47.702c2.072-6.54-1.578-13.597-8.308-15.677c-0.001,0-0.002,0-0.003-0.001
			c-6.598-2.037-13.766,1.559-15.873,8.204l-13.092,41.3l-46.414,13.336l15.22-8.975l-17.471-8.243
			c-8.733-4.12-18.811,0.151-22.511,9.542c-3.677,9.332-30.578,77.593-34.376,87.231l39.143,9.814l-58.71-0.628
			c-1.946,5.261-5.773,9.605-10.683,12.195c0,14.152,0,34.715,0,40.321h45.639v40.383l-26.959,21.73
			c-3.348,2.698-3.874,7.599-1.177,10.946c2.704,3.355,7.608,3.868,10.946,1.176l17.19-13.855v7.794
			c0,4.299,3.486,7.785,7.785,7.785c4.299,0,7.785-3.486,7.785-7.785v-7.794l17.188,13.855c3.35,2.698,8.249,2.172,10.947-1.176
			c2.698-3.347,2.171-8.249-1.176-10.946l-26.959-21.73v-40.383h37.147c4.44,0,8.468-2.604,10.291-6.653l53.839-119.576
			c-4.107,3.696-9.214,5.689-12.454,5.858l-15.295,0.795L429.4,309.01h-14.465c10.87-1.37,16.259-17.983,16.259-17.983
			c4.287-10.879,28.172-71.487,30.916-78.451l-25.788,1.34l51.422-14.776C491.82,197.968,495.031,194.861,496.297,190.864z"/>
	</g>
</g>
<g>
</g>
<g>
</g>
<g>
</g>
<g>
</g>
<g>
</g>
<g>
</g>
<g>
</g>
<g>
</g>
<g>
</g>
<g>
</g>
<g>
</g>
<g>
</g>
<g>
</g>
<g>
</g>
<g>
</g>
</svg>
