<?xml version="1.0" encoding="iso-8859-1"?>
<!-- Generator: Adobe Illustrator 19.0.0, SVG Export Plug-In . SVG Version: 6.00 Build 0)  -->
<svg version="1.1" id="Layer_1" xmlns="http://www.w3.org/2000/svg" xmlns:xlink="http://www.w3.org/1999/xlink" x="0px" y="0px"
	 viewBox="0 0 511.999 511.999" style="enable-background:new 0 0 511.999 511.999;" xml:space="preserve">
<g>
	<g>
		<path d="M373.77,364.164l-11.234,72.633c-1.884,12.183,6.465,23.588,18.648,25.472c12.199,1.883,23.59-6.48,25.473-18.648
			l12.288-79.457H373.77z"/>
	</g>
</g>
<g>
	<g>
		<path d="M316.877,436.797l-11.234-72.633h-45.175l12.288,79.457c1.884,12.182,13.284,20.532,25.472,18.648
			C310.412,460.385,318.761,448.981,316.877,436.797z"/>
	</g>
</g>
<g>
	<g>
		<path d="M340.928,59.911c-21.313,0-38.553,17.28-38.553,38.553c0,21.336,17.302,38.553,38.553,38.553
			c21.332,0,38.553-17.303,38.553-38.553C379.48,77.062,362.092,59.911,340.928,59.911z"/>
	</g>
</g>
<g>
	<g>
		<path d="M301.041,207.753c-2.019-4.445-7.256-6.415-11.704-4.395c-4.444,2.019-6.414,7.258-4.395,11.704l4.017,8.846
			l24.272,10.691L301.041,207.753z"/>
	</g>
</g>
<g>
	<g>
		<path d="M463.182,224.623c-5.029-7.125-32.438-45.96-37.404-52.994c-9.866-13.977-25.97-22.323-43.079-22.323
			c-40.594,0-48.699,0-89.891,0c-16.154,0-31.155,9.384-38.215,23.906c-10.237,21.048-21.93,47.591-26.974,60.185
			c-3.725,9.307,0.597,19.893,9.772,23.935l65.111,28.681c9.408,4.143,20.382-0.127,24.521-9.525
			c4.142-9.401-0.122-20.381-9.524-24.522l-48.342-21.295c5.07-11.65,11.342-25.475,17.278-37.836c0,0,2.856-1.565,5.431-1.824
			c9.541-0.962,16.155,4.045,19.741,11.944l18.089,39.841c11.909,8.94,16.557,25.191,10.297,39.404
			c-1.458,3.308-3.408,6.242-5.708,8.783h37.727c-0.879-1.017-1.705-2.095-2.471-3.241c-9.999-14.971-5.968-35.213,9.001-45.214
			l11.855-7.917v-41.974c0-0.815,0.494-1.55,1.249-1.859c0.755-0.308,1.622-0.129,2.193,0.453c1.17,1.193-0.975-1.718,27.94,39.25
			l-35.463,23.686c-8.543,5.706-10.844,17.258-5.137,25.801c5.708,8.547,17.261,10.84,25.801,5.137l51.335-34.287
			C467.018,245.005,469.204,233.157,463.182,224.623z"/>
	</g>
</g>
<g>
	<g>
		<path d="M104.915,0C83.14,0,65.486,17.653,65.486,39.428c0,16.596,10.259,30.788,24.777,36.605
			c10.151-9.874,25.81-12.686,39.16-5.729c9.088-7.223,14.92-18.364,14.92-30.874C144.344,17.653,126.691,0,104.915,0z"/>
	</g>
</g>
<g>
	<g>
		<path d="M154.831,245.067l-27.761,11.874c-17.12,7.324-36.953-0.61-44.285-17.75c-1.249-2.919-2.043-5.916-2.435-8.917
			c-9.769,1.004-19.286-2.284-26.287-8.726l0.01,239.294c0,12.608,10.22,22.83,22.828,22.83s22.828-10.221,22.828-22.83V278.367
			h9.858c0,1.472,0,180.589,0,182.476c0,12.608,10.22,22.83,22.828,22.83c12.608,0,22.828-10.221,22.828-22.83
			C155.245,266.964,154.831,245.067,154.831,245.067z"/>
	</g>
</g>
<g>
	<g>
		<path d="M120.596,82.429c-9.814-3.752-20.812,1.16-24.563,10.976l-25.389,66.407c-7.051-8.583-13.749-17.008-18.057-22.986
			c-0.377-0.524-0.43-1.214-0.136-1.788c0.294-0.575,0.884-0.937,1.529-0.937c0.001,0,0.001,0,0.002,0h13.305l14.198-38.049
			c-10.705,0-16.651,0-27.504,0c-31.929,0-50.708,32.713-37.906,54.521c8.968,15.279,42.646,54.227,46.456,58.617
			c9.413,10.846,27.018,7.722,32.138-5.675l36.902-96.523C135.325,97.179,130.41,86.181,120.596,82.429z"/>
	</g>
</g>
<g>
	<g>
		<path d="M200.841,140.821c0-0.01-0.001-0.019-0.001-0.028c-0.152-24.676-20.337-44.742-45.019-44.742h-8.537
			c0.662,5.307,0.074,10.849-1.969,16.194c-2.422,6.336-25.661,67.119-29.025,75.92l38.541-16.486v-31.308
			c0-2.208,1.79-3.998,3.998-3.998c2.143,0,4.241,1.723,3.965,4.689c0.252,39.724,0.117,18.458,0.273,43.097
			c-4.515,1.932-49.848,21.322-56.747,24.273c-9.738,4.165-14.083,15.449-10.01,24.973c4.143,9.678,15.328,14.134,24.973,10.009
			l68.37-29.244c7.042-3.012,11.59-9.953,11.542-17.612C200.958,159.434,201.056,174.754,200.841,140.821z"/>
	</g>
</g>
<g>
	<g>
		<path d="M491.838,304.704H201.035c-4.498,0-8.146,3.646-8.146,8.145v29.447c0,4.499,3.647,8.145,8.146,8.145h12.762
			c0,5.75,0,138.44,0,144.982c0,9.154,7.421,16.575,16.575,16.575c9.154,0,16.575-7.421,16.575-16.575c0-6.547,0-139.234,0-144.982
			h198.902c0,5.75,0,138.44,0,144.982c0,9.154,7.421,16.575,16.575,16.575c9.154,0,16.575-7.421,16.575-16.575
			c0-6.547,0-139.234,0-144.982h12.839c4.499,0,8.145-3.646,8.145-8.145v-29.447C499.983,308.351,496.336,304.704,491.838,304.704z"
			/>
	</g>
</g>
<g>
</g>
<g>
</g>
<g>
</g>
<g>
</g>
<g>
</g>
<g>
</g>
<g>
</g>
<g>
</g>
<g>
</g>
<g>
</g>
<g>
</g>
<g>
</g>
<g>
</g>
<g>
</g>
<g>
</g>
</svg>
