<?xml version="1.0" encoding="iso-8859-1"?>
<!-- Generator: Adobe Illustrator 19.0.0, SVG Export Plug-In . SVG Version: 6.00 Build 0)  -->
<svg version="1.1" id="Layer_1" xmlns="http://www.w3.org/2000/svg" xmlns:xlink="http://www.w3.org/1999/xlink" x="0px" y="0px"
	 viewBox="0 0 512 512" style="enable-background:new 0 0 512 512;" xml:space="preserve">
<g>
	<g>
		<path d="M162.687,321.83l-18.845-17.576c-13.175,15.616-35.984,18.878-53.023,7.599c-10.798-7.146-61.257-40.54-68.514-45.343
			c-9.06-5.996-15.188-15.263-17.269-25.687v47.102c0,5.609,1.762,11.028,5.05,15.573c9.271,12.821,29.329,40.498,43.239,59.239
			L26.2,377.597c-11.765,6.446-16.077,21.21-9.632,32.975c6.448,11.768,21.211,16.076,32.975,9.632l10.368-5.68v73.185
			c0,13.416,10.875,24.291,24.291,24.291s24.291-10.875,24.291-24.291v-99.791l-3.818-35.553l-39.1-54.676l53.329,50.298
			c0,0,4.955,30.263,4.857,31.553l34.029-18.644c6.838-3.746,11.461-10.546,12.43-18.282S168.388,327.147,162.687,321.83z"/>
	</g>
</g>
<g>
	<g>
		<circle cx="74.497" cy="51.201" r="41.519"/>
	</g>
</g>
<g>
	<g>
		<path d="M269.623,121.509c-0.56-4.804-4.908-8.241-9.712-7.683l-43.872,5.117c-0.023-0.014-0.047-0.028-0.069-0.041
			c-6.982-4.161-15.864-3.1-21.682,2.573l-43.579,42.492l-39.022-27.205l0.02-3.882c0.072-13.718-10.99-24.898-24.708-24.971
			l-56.42-0.299c-13.718-0.072-24.898,10.99-24.971,24.708l-0.501,94.637l18.713-80.382l0.163,86.365
			c0.013,6.888,3.472,13.309,9.215,17.11l68.514,45.343c9.075,6.007,21.116,3.837,27.604-4.56
			c7.389-9.563,4.977-23.196-4.906-29.738l-59.319-39.258l-0.148-78.211l17.325,65.905l28.93,19.145l0.203-37.998l24.164,18.735
			c8.394,6.508,20.315,5.841,27.906-1.589c19.78-19.359,40.601-40.438,54.639-55.07c4.602-4.797,7.911-10.852,7.762-17.326
			l36.068-4.206C266.744,130.661,270.184,126.313,269.623,121.509z"/>
	</g>
</g>
<g>
	<g>
		<path d="M330.009,0c-0.707,9.847-1.944,18.992-7.974,26.932c-5.974,7.88-15.235,12.769-24.709,16.163
			c-7.018,2.701-22.442,5.743-33.374,18.434c-11.175,12.816-10.182,27.117-7.827,32.117c2.032-7.585,7.819-16.451,16.706-22.441
			c10.991-7.38,22.007-8.533,30.484-11.656c13.29-4.825,25.191-13.448,30.393-26.459C338.19,22.12,336.386,9.019,330.009,0z"/>
	</g>
</g>
<g>
	<g>
		<circle cx="403.83" cy="51.646" r="42.229"/>
	</g>
</g>
<g>
	<g>
		<path d="M503.032,185.245l-50.018-65.464c-5.141-8.009-13.76-13.263-23.53-13.263h-50.871c-15.754,0-28.527,13.66-28.527,30.51
			v12.202l31.225-25.479l-42.125,57.628l-64.859-2.901c-10.276-0.46-19.121,7.53-19.588,17.907c0,0.001,0,0.003,0,0.004
			c-0.461,10.311,7.508,19.124,17.911,19.589c0.657,0.029,75.095,3.37,75.752,3.37c5.878,0,11.578-2.806,15.151-7.693l46.517-63.637
			l-29.924,70.664c-2.943,6.95-14.034,17.892-30.059,18.634c0,0-0.577,12.187-0.577,250.91c0,13.131,10.644,23.775,23.775,23.775
			c13.131,0,23.775-10.644,23.775-23.775V308.888h13.533v179.335c0,13.131,10.644,23.775,23.775,23.775s23.775-10.644,23.775-23.775
			V293.692c7.647-0.056,14.839-4.718,17.744-12.289l29.805-77.672C508.075,197.525,507.067,190.528,503.032,185.245z
			 M458.01,221.095V189.4l8.097,10.596L458.01,221.095z"/>
	</g>
</g>
<g>
</g>
<g>
</g>
<g>
</g>
<g>
</g>
<g>
</g>
<g>
</g>
<g>
</g>
<g>
</g>
<g>
</g>
<g>
</g>
<g>
</g>
<g>
</g>
<g>
</g>
<g>
</g>
<g>
</g>
</svg>
