<?xml version="1.0" encoding="iso-8859-1"?>
<!-- Generator: Adobe Illustrator 19.0.0, SVG Export Plug-In . SVG Version: 6.00 Build 0)  -->
<svg version="1.1" id="Layer_1" xmlns="http://www.w3.org/2000/svg" xmlns:xlink="http://www.w3.org/1999/xlink" x="0px" y="0px"
	 viewBox="0 0 512.001 512.001" style="enable-background:new 0 0 512.001 512.001;" xml:space="preserve">
<g>
	<g>
		<path d="M494.87,240.701H220.771v34.26h274.099c9.46,0,17.13-7.67,17.13-17.13C512.001,248.369,504.33,240.701,494.87,240.701z"/>
	</g>
</g>
<g>
	<g>
		<path d="M0,257.831c0,8.942,6.854,16.275,15.593,17.052v-34.104C6.854,241.556,0,248.889,0,257.831z"/>
	</g>
</g>
<g>
	<g>
		<path d="M207.186,158.852c-0.112-23.228-19.105-42.126-42.334-42.126c-62.318,0,11.629,0-95.323,0
			c-23.228,0-42.222,18.898-42.338,42.126c-0.709,141.221-0.722,131.727-0.579,133.239c0.858,9.04,8.446,16.133,17.719,16.18
			c0.03,0,0.061,0,0.092,0c9.292,0,16.935-7.095,17.798-16.18c0.125-1.314,0.041,8.046,0.75-133.059
			c0.01-1.958,1.602-3.537,3.559-3.532c1.957,0.006,3.54,1.593,3.54,3.55c0.001,45.128,0.008,292.485,0.008,300.734
			c0,11.857,9.612,21.469,21.469,21.469c11.857,0,21.469-9.612,21.469-21.469c0-8.864,0-162.918,0-171.605h9.269
			c0,8.686,0,162.74,0,171.605c0,11.857,9.612,21.469,21.469,21.469c11.857,0,21.469-9.612,21.469-21.469
			c0-8.73-0.378-159.454-0.39-300.735c0-1.812,1.466-3.282,3.277-3.286c1.812-0.004,3.285,1.457,3.295,3.27
			c0.716,142.547,0.609,131.577,0.75,133.059c0.864,9.086,8.507,16.18,17.798,16.18c0.03,0,0.061,0,0.092,0
			c9.273-0.047,16.861-7.139,17.719-16.18C207.893,290.738,207.894,299.69,207.186,158.852z"/>
	</g>
</g>
<g>
	<g>
		<path d="M117.648,30.749c-20.478,0-37.079,16.601-37.079,37.079c0,20.458,16.589,37.079,37.079,37.079
			c20.478,0,37.079-16.601,37.079-37.079C154.727,47.19,137.956,30.749,117.648,30.749z"/>
	</g>
</g>
<g>
	<g>
		<path d="M289.201,98.748l-29.641-6.053c-2.493-0.509-4.927,1.099-5.437,3.594l-8.642,42.32c-0.508,2.492,1.1,4.926,3.594,5.436
			l0.333,0.068c1.256-2.812,2.995-5.465,5.233-7.826c8.671-9.148,22.06-11.132,32.775-5.761l5.379-26.341
			C293.304,101.691,291.695,99.256,289.201,98.748z"/>
	</g>
</g>
<g>
	<g>
		<circle cx="393.947" cy="73.895" r="33.368"/>
	</g>
</g>
<g>
	<g>
		<path d="M475.127,155.816c-0.105-20.904-17.197-37.911-38.101-37.911h-16.503c-4.377,11.435-15.999,41.796-19.959,52.143
			l4.706-22.167c0.331-1.557,0.09-3.18-0.676-4.574l-6.462-11.753l5.745-10.449c0.856-1.556-0.271-3.466-2.05-3.466H386.06
			c-1.776,0-2.907,1.908-2.05,3.466l5.745,10.449l-6.486,11.796c-0.752,1.368-0.998,2.957-0.694,4.488l4.114,22.21
			c-5.353-13.729-3.369-10.124-19.752-52.143h-16.347c-19.88,0-36.301,15.385-37.954,34.874c-0.187,2.2-0.142,1.787-0.213,16.093
			l-26.437-25.059c-6.456-6.118-16.646-5.846-22.763,0.609c-6.117,6.453-5.845,16.644,0.609,22.761l53.426,50.641
			c4.658,4.416,11.495,5.643,17.399,3.122c5.904-2.521,9.745-8.308,9.778-14.726c0.084-16.734,0.168-33.351,0.252-50.243
			c0.009-1.714,1.403-3.097,3.117-3.093c1.714,0.005,3.101,1.395,3.1,3.109c-0.003,20.32-0.023,49.303-0.025,67.385
			c13.079,0,73.698,0,85.306,0v-0.113c0-7.894,0-50.577,0-67.419c0-1.861,1.509-3.37,3.37-3.369c1.861,0,3.369,1.509,3.369,3.37
			c0,0.042,0,0.086-0.001,0.13l0.338,67.402h32.202L475.127,155.816z"/>
	</g>
</g>
<g>
</g>
<g>
</g>
<g>
</g>
<g>
</g>
<g>
</g>
<g>
</g>
<g>
</g>
<g>
</g>
<g>
</g>
<g>
</g>
<g>
</g>
<g>
</g>
<g>
</g>
<g>
</g>
<g>
</g>
</svg>
