<?xml version="1.0" encoding="iso-8859-1"?>
<!-- Generator: Adobe Illustrator 19.0.0, SVG Export Plug-In . SVG Version: 6.00 Build 0)  -->
<svg xmlns="http://www.w3.org/2000/svg" xmlns:xlink="http://www.w3.org/1999/xlink" version="1.1" id="Capa_1" x="0px" y="0px" viewBox="0 0 512 512" style="enable-background:new 0 0 512 512;" xml:space="preserve">
<g>
	<g>
		<path d="M117.036,393.227h-83.95c-18.063,0-32.757,14.696-32.757,32.757v53.258C0.329,497.304,15.023,512,33.086,512h83.95    c18.063,0,32.757-14.696,32.757-32.757v-53.258C149.793,407.923,135.099,393.227,117.036,393.227z"/>
	</g>
</g>
<g>
	<g>
		<path d="M478.914,393.227h-83.951c-18.062,0-32.757,14.696-32.757,32.757v53.258c0,18.062,14.696,32.757,32.757,32.757h83.951    c18.062,0,32.757-14.696,32.757-32.757v-53.258C511.671,407.923,496.977,393.227,478.914,393.227z"/>
	</g>
</g>
<g>
	<g>
		<path d="M297.975,393.227h-83.951c-18.063,0-32.757,14.696-32.757,32.757v53.258c0,18.062,14.695,32.757,32.757,32.757h83.951    c18.062,0,32.757-14.696,32.757-32.757v-53.258C330.733,407.923,316.037,393.227,297.975,393.227z"/>
	</g>
</g>
<g>
	<g>
		<path d="M195.762,437.559h-61.023c-8.314,0-15.055,6.741-15.055,15.055c0,8.314,6.741,15.055,15.055,15.055h61.023    c8.315,0,15.055-6.741,15.055-15.055C210.817,444.299,204.076,437.559,195.762,437.559z"/>
	</g>
</g>
<g>
	<g>
		<path d="M377.261,437.559h-61.583c-8.314,0-15.055,6.741-15.055,15.055c0,8.314,6.741,15.055,15.055,15.055h61.583    c8.314,0,15.055-6.741,15.055-15.055C392.316,444.299,385.576,437.559,377.261,437.559z"/>
	</g>
</g>
<g>
	<g>
		<path d="M256.001,0c-51.107,0-92.686,41.579-92.686,92.686c0,34.701,38.506,94.868,70.809,139.231    c5.076,6.971,13.255,11.135,21.877,11.135c8.622,0,16.8-4.162,21.875-11.134c32.304-44.363,70.81-104.528,70.81-139.232    C348.686,41.579,307.108,0,256.001,0z"/>
	</g>
</g>
<g>
	<g>
		<path d="M256.224,66.312c-14.034,0-25.451,11.417-25.451,25.45s11.418,25.45,25.451,25.45s25.45-11.417,25.45-25.45    S270.257,66.312,256.224,66.312z M256.224,96.421c-2.569,0-4.66-2.091-4.66-4.66c0-2.569,2.091-4.66,4.66-4.66    c2.569,0,4.659,2.091,4.659,4.66C260.883,94.331,258.794,96.421,256.224,96.421z"/>
	</g>
</g>
<g>
	<g>
		<path d="M194.641,208.978c-2.042-3.231-4.055-6.472-6.028-9.713c-1.834-3.012-5.113-4.84-8.638-4.84h-7.091    c-62.34,0-112.876,50.536-112.876,112.876v51.653c0,6.362,5.158,11.519,11.519,11.519h7.071c6.362,0,11.519-5.158,11.519-11.519    V307.3c0-45.711,37.056-82.767,82.767-82.767h13.2C194.071,224.534,198.908,215.729,194.641,208.978z"/>
	</g>
</g>
<g>
	<g>
		<path d="M339.116,193.443l-6.172,0.094c-3.46,0.053-6.662,1.862-8.468,4.814c-2.002,3.273-4.047,6.542-6.122,9.798    c-4.343,6.811,0.614,15.716,8.691,15.592l12.181-0.188c45.589,0.059,82.658,37.165,82.658,82.767v52.635    c0,6.362,5.158,11.519,11.519,11.519h7.071c6.362,0,11.519-5.158,11.519-11.519v-52.635    C451.993,244.079,401.357,193.443,339.116,193.443z"/>
	</g>
</g>
<g>
	<g>
		<path d="M259.093,262.644c-1.203,0.166-2.424,0.25-3.653,0.25c-1.229,0-2.45-0.084-3.653-0.25    c-6.044-0.831-11.402,3.948-11.402,10.049v86.262c0,6.362,5.158,11.519,11.519,11.519h7.071c6.362,0,11.519-5.158,11.519-11.519    v-86.262C270.493,266.593,265.136,261.813,259.093,262.644z"/>
	</g>
</g>
<g>
</g>
<g>
</g>
<g>
</g>
<g>
</g>
<g>
</g>
<g>
</g>
<g>
</g>
<g>
</g>
<g>
</g>
<g>
</g>
<g>
</g>
<g>
</g>
<g>
</g>
<g>
</g>
<g>
</g>
</svg>
