<?xml version="1.0" encoding="iso-8859-1"?>
<!-- Generator: Adobe Illustrator 19.0.0, SVG Export Plug-In . SVG Version: 6.00 Build 0)  -->
<svg xmlns="http://www.w3.org/2000/svg" xmlns:xlink="http://www.w3.org/1999/xlink" version="1.1" id="Capa_1" x="0px" y="0px" viewBox="0 0 512 512" style="enable-background:new 0 0 512 512;" xml:space="preserve">
<g>
	<g>
		<path d="M506.234,251.473H331.862h-10.198v-0.765c0-1.767-1.34-3.23-3.095-3.425c-1.309-0.145-2.639-0.219-3.983-0.219H230.31    h-34.114c-19.802,0-35.854,16.052-35.854,35.854v13.352c0,1.902,1.544,3.441,3.445,3.437l157.876-0.382l29.015-0.07v29.995    l-29.015,0.07l-151.853,0.37l-9.468,0.02c0-1.813-1.408-3.288-3.214-3.433c-0.952-0.076-1.914-0.116-2.884-0.116H69.688H36.094    C16.159,326.159,0,342.32,0,362.253v9.351c0,3.184,2.582,5.766,5.766,5.766h154.576h29.995v29.995h-29.995H5.766    c-3.184,0-5.766,2.582-5.766,5.766v24.989c0,13.877,11.249,25.126,25.126,25.126h135.216v0.14h161.322h29.015h136.186    c13.858,0,25.136-11.278,25.136-25.126V257.239C512,254.054,509.418,251.473,506.234,251.473z"/>
	</g>
</g>
<g>
	<g>
		<path d="M475.906,167.817H357.757c-19.907,0-36.094,16.197-36.094,36.094v14.13c0,1.899,1.539,3.437,3.437,3.437h181.133    c3.184,0,5.766-2.582,5.766-5.766v-11.801C512,184.014,495.813,167.817,475.906,167.817z"/>
	</g>
</g>
<g>
	<g>
		<path d="M453.106,77.381c-0.012-0.243-0.037-0.486-0.061-0.73c-0.024-0.242-0.048-0.484-0.084-0.724    c-0.036-0.24-0.084-0.479-0.132-0.719c-0.048-0.242-0.097-0.483-0.157-0.722c-0.058-0.23-0.127-0.457-0.196-0.685    c-0.075-0.247-0.152-0.493-0.24-0.736c-0.077-0.212-0.162-0.423-0.249-0.633c-0.105-0.254-0.214-0.505-0.332-0.753    c-0.044-0.093-0.077-0.188-0.124-0.281c-0.055-0.11-0.123-0.21-0.18-0.318c-0.127-0.237-0.259-0.47-0.398-0.7    c-0.124-0.205-0.25-0.405-0.382-0.602c-0.136-0.203-0.278-0.401-0.423-0.596c-0.152-0.204-0.306-0.404-0.466-0.599    c-0.147-0.178-0.3-0.35-0.455-0.521c-0.173-0.19-0.346-0.378-0.528-0.558c-0.166-0.165-0.339-0.324-0.513-0.481    c-0.183-0.166-0.367-0.33-0.558-0.485c-0.191-0.156-0.388-0.305-0.588-0.452c-0.188-0.139-0.377-0.277-0.572-0.406    c-0.213-0.142-0.431-0.276-0.652-0.408c-0.198-0.118-0.397-0.234-0.6-0.343c-0.222-0.119-0.449-0.23-0.678-0.338    c-0.222-0.105-0.445-0.205-0.671-0.299c-0.217-0.09-0.437-0.174-0.66-0.254c-0.256-0.092-0.514-0.177-0.774-0.255    c-0.115-0.035-0.224-0.08-0.341-0.112L389.05,49.151c-7.989-2.189-16.237,2.518-18.426,10.505    c-2.188,7.989,2.517,16.238,10.505,18.426l15.377,4.21l-105.922,53.282c-0.085,0.043-0.161,0.095-0.245,0.139    c-0.273,0.144-0.541,0.297-0.805,0.457c-0.168,0.102-0.334,0.205-0.497,0.313c-0.239,0.159-0.472,0.326-0.703,0.5    c-0.176,0.132-0.35,0.264-0.519,0.402c-0.197,0.161-0.387,0.331-0.576,0.503c-0.187,0.17-0.371,0.341-0.547,0.518    c-0.156,0.158-0.307,0.321-0.457,0.487c-0.192,0.211-0.378,0.424-0.557,0.645c-0.125,0.154-0.245,0.313-0.364,0.473    c-0.183,0.246-0.36,0.496-0.527,0.752c-0.052,0.079-0.112,0.151-0.162,0.232l-26.564,42.286l-10.946-25.68    c-0.009-0.022-0.021-0.041-0.031-0.063c-0.125-0.288-0.271-0.57-0.416-0.853c-0.092-0.181-0.177-0.368-0.275-0.543    c-0.1-0.178-0.216-0.349-0.324-0.524c-0.165-0.268-0.328-0.538-0.508-0.792c-0.014-0.02-0.025-0.041-0.039-0.061    c-0.074-0.104-0.159-0.195-0.235-0.297c-0.213-0.284-0.428-0.565-0.659-0.83c-0.12-0.138-0.248-0.264-0.372-0.396    c-0.21-0.224-0.419-0.449-0.641-0.659c-0.171-0.162-0.351-0.31-0.528-0.462c-0.187-0.16-0.37-0.323-0.564-0.474    c-0.22-0.171-0.449-0.327-0.677-0.485c-0.165-0.114-0.327-0.232-0.496-0.339c-0.253-0.16-0.513-0.305-0.773-0.449    c-0.16-0.088-0.316-0.18-0.479-0.263c-0.266-0.135-0.538-0.254-0.81-0.372c-0.171-0.074-0.34-0.152-0.514-0.22    c-0.262-0.102-0.529-0.19-0.796-0.277c-0.195-0.064-0.389-0.131-0.586-0.187c-0.249-0.07-0.501-0.126-0.753-0.184    c-0.222-0.051-0.443-0.104-0.668-0.144c-0.237-0.043-0.475-0.071-0.713-0.103c-0.242-0.032-0.483-0.066-0.728-0.086    c-0.234-0.019-0.468-0.024-0.703-0.032c-0.247-0.009-0.494-0.02-0.742-0.016c-0.25,0.004-0.499,0.023-0.748,0.039    c-0.23,0.015-0.459,0.026-0.689,0.051c-0.286,0.032-0.57,0.082-0.855,0.13c-0.191,0.033-0.382,0.059-0.573,0.099    c-0.331,0.07-0.658,0.16-0.985,0.253c-0.146,0.041-0.292,0.075-0.437,0.121c-0.352,0.111-0.697,0.245-1.043,0.383    c-0.107,0.043-0.215,0.073-0.322,0.118c-0.021,0.009-0.04,0.021-0.061,0.03c-0.293,0.127-0.579,0.275-0.866,0.422    c-0.177,0.09-0.36,0.173-0.532,0.27c-0.18,0.101-0.354,0.219-0.531,0.329c-0.266,0.164-0.534,0.326-0.786,0.504    c-0.02,0.014-0.041,0.025-0.061,0.039L39.411,283.553c-6.74,4.814-8.302,14.181-3.486,20.921    c2.927,4.097,7.537,6.281,12.217,6.281c3.017,0,6.062-0.907,8.704-2.795l169.996-121.426l14.867,34.882    c0.013,0.031,0.029,0.059,0.042,0.09c0.058,0.135,0.126,0.266,0.188,0.399c0.125,0.268,0.255,0.532,0.395,0.789    c0.079,0.146,0.162,0.291,0.247,0.435c0.151,0.258,0.31,0.51,0.475,0.756c0.079,0.118,0.155,0.237,0.237,0.353    c0.255,0.358,0.521,0.706,0.803,1.037c0.028,0.032,0.059,0.063,0.087,0.095c0.269,0.31,0.552,0.606,0.844,0.891    c0.082,0.08,0.166,0.157,0.25,0.236c0.283,0.264,0.574,0.516,0.875,0.756c0.058,0.046,0.113,0.094,0.171,0.139    c0.373,0.288,0.758,0.558,1.154,0.809c0.018,0.011,0.034,0.025,0.052,0.036c0.093,0.059,0.189,0.108,0.283,0.164    c0.187,0.112,0.374,0.224,0.565,0.328c0.165,0.089,0.333,0.17,0.5,0.252c0.145,0.071,0.288,0.146,0.435,0.212    c0.22,0.1,0.443,0.19,0.666,0.279c0.1,0.04,0.198,0.083,0.299,0.12c0.264,0.099,0.53,0.186,0.797,0.268    c0.068,0.021,0.135,0.045,0.203,0.065c0.287,0.085,0.576,0.157,0.866,0.224c0.056,0.013,0.112,0.029,0.168,0.042    c0.287,0.063,0.576,0.113,0.865,0.159c0.066,0.01,0.131,0.025,0.198,0.034c0.263,0.038,0.527,0.063,0.791,0.087    c0.096,0.009,0.191,0.023,0.287,0.03c0.182,0.013,0.364,0.014,0.547,0.02c0.172,0.006,0.344,0.019,0.517,0.019    c0.047,0,0.094-0.007,0.141-0.007c0.367-0.004,0.734-0.024,1.099-0.055c0.138-0.012,0.277-0.023,0.415-0.039    c0.397-0.045,0.792-0.103,1.184-0.178c0.113-0.022,0.225-0.05,0.338-0.074c0.363-0.079,0.723-0.171,1.079-0.276    c0.076-0.023,0.153-0.041,0.229-0.065c0.431-0.135,0.855-0.294,1.273-0.468c0.039-0.016,0.079-0.026,0.117-0.043    c0.038-0.016,0.072-0.037,0.11-0.053c0.422-0.183,0.837-0.383,1.242-0.605c0.034-0.019,0.067-0.039,0.1-0.058    c0.372-0.208,0.734-0.434,1.088-0.674c0.061-0.041,0.123-0.08,0.182-0.122c0.354-0.247,0.697-0.511,1.03-0.791    c0.075-0.063,0.146-0.128,0.22-0.192c0.274-0.24,0.541-0.489,0.8-0.751c0.061-0.062,0.124-0.12,0.184-0.183    c0.282-0.296,0.552-0.607,0.813-0.929c0.081-0.1,0.157-0.202,0.235-0.303c0.195-0.254,0.382-0.515,0.562-0.784    c0.065-0.096,0.132-0.19,0.194-0.288c0.019-0.029,0.039-0.056,0.058-0.085l39.592-63.025l102.081-51.35l-7.005,17.828    c-3.028,7.709,0.765,16.414,8.475,19.443c1.801,0.708,3.655,1.043,5.48,1.043c5.985,0,11.641-3.608,13.963-9.517l20.867-53.106    c0.124-0.315,0.218-0.633,0.319-0.951c0.113-0.272,0.221-0.547,0.318-0.828c0.061-0.175,0.115-0.351,0.169-0.527    c0.044-0.143,0.096-0.281,0.136-0.426c0.027-0.1,0.041-0.2,0.066-0.301c0.067-0.266,0.124-0.533,0.177-0.803    c0.044-0.223,0.086-0.446,0.119-0.669c0.038-0.255,0.065-0.512,0.089-0.77c0.023-0.237,0.045-0.473,0.057-0.71    c0.012-0.246,0.012-0.492,0.011-0.739C453.118,77.866,453.118,77.623,453.106,77.381z"/>
	</g>
</g>
<g>
</g>
<g>
</g>
<g>
</g>
<g>
</g>
<g>
</g>
<g>
</g>
<g>
</g>
<g>
</g>
<g>
</g>
<g>
</g>
<g>
</g>
<g>
</g>
<g>
</g>
<g>
</g>
<g>
</g>
</svg>
