<?xml version="1.0" encoding="iso-8859-1"?>
<!-- Generator: Adobe Illustrator 19.0.0, SVG Export Plug-In . SVG Version: 6.00 Build 0)  -->
<svg xmlns="http://www.w3.org/2000/svg" xmlns:xlink="http://www.w3.org/1999/xlink" version="1.1" id="Capa_1" x="0px" y="0px" viewBox="0 0 512 512" style="enable-background:new 0 0 512 512;" xml:space="preserve">
<g>
	<g>
		<path d="M424.57,112.892c-0.244-0.252-0.493-0.499-0.747-0.744L317.178,9.347c-0.024-0.024-0.049-0.047-0.073-0.07    c-3.022-2.898-8.063-0.659-8.063,3.529v103.506c0,2.676,2.17,4.846,4.846,4.846h107.236    C425.435,121.158,427.573,115.984,424.57,112.892z"/>
	</g>
</g>
<g>
	<g>
		<polygon points="398.705,363.406 393.662,381.949 403.759,381.949   "/>
	</g>
</g>
<g>
	<g>
		<path d="M247.609,298.74H434.03V156.026c0-2.677-2.171-4.847-4.847-4.847H294.032v0.001c-8.29,0-15.011-6.721-15.011-15.01V4.847    c0-2.677-2.171-4.847-4.847-4.847H81.282C62.856,0,47.919,14.938,47.919,33.363v445.283c0,18.421,14.932,33.353,33.353,33.353    h319.405c18.421,0,33.353-14.932,33.353-33.353v-28.19H247.599c-13.385,0-24.237-10.852-24.237-24.237V322.987    C223.362,309.596,234.218,298.74,247.609,298.74z"/>
	</g>
</g>
<g>
	<g>
		<polygon points="322.412,363.406 317.358,381.949 327.455,381.949   "/>
	</g>
</g>
<g>
	<g>
		<path d="M439.844,298.74h-5.814v30.021H258.601c-2.882,0-5.218,2.262-5.218,5.052v81.57c0,2.79,2.336,5.052,5.218,5.052H434.03    v30.021h5.814c13.369,0,24.237-10.878,24.237-24.237V322.987C464.081,309.618,453.214,298.74,439.844,298.74z M298.545,384.991    c0,5.634-1.541,9.757-4.603,12.389c-3.072,2.622-7.065,3.943-11.998,3.943c-5.074,0-9.237-1.291-12.489-3.873    c-3.252-2.592-4.883-6.114-4.883-10.587c0-1.981,0.42-3.332,1.251-4.053c0.831-0.711,2.232-1.071,4.223-1.071    c3.362,0,5.134,1.091,5.324,3.252c0.09,0.971,0.19,1.731,0.31,2.282c0.11,0.56,0.36,1.261,0.731,2.111    c0.36,0.861,0.971,1.491,1.831,1.901c0.851,0.42,1.921,0.63,3.212,0.63c4.203,0,6.294-2.312,6.294-6.925v-25.248h-6.014    c-1.021,0-1.811-0.46-2.392-1.381c-0.57-0.921-0.861-2.051-0.861-3.392c0-1.241,0.28-2.332,0.831-3.252    c0.55-0.921,1.361-1.381,2.422-1.381h12.109c1.291,0,2.392,0.29,3.312,0.861c0.931,0.58,1.391,1.401,1.391,2.462V384.991z     M340.284,399.591c-1.491,0.871-3.052,1.311-4.663,1.311c-1.981,0-3.162-0.67-3.532-2.001l-2.352-8.646h-14.59l-2.352,8.646    c-0.37,1.331-1.551,2.001-3.532,2.001c-1.611,0-3.172-0.44-4.673-1.311c-1.491-0.881-2.242-1.911-2.242-3.112    c0-0.14,0.04-0.39,0.14-0.761l12.859-42.2c0.37-1.151,1.211-2.041,2.532-2.662c1.311-0.62,2.822-0.941,4.533-0.941    c1.701,0,3.212,0.32,4.523,0.941c1.321,0.62,2.161,1.511,2.532,2.662l12.929,42.2c0.09,0.37,0.14,0.62,0.14,0.761    C342.536,397.68,341.785,398.71,340.284,399.591z M365.122,400.382c-1.311,0.63-2.822,0.941-4.533,0.941    c-1.701,0-3.212-0.31-4.523-0.941c-1.321-0.62-2.162-1.511-2.532-2.662l-12.929-42.2c-0.1-0.36-0.14-0.62-0.14-0.76    c0-1.191,0.751-2.232,2.242-3.112c1.501-0.871,3.062-1.311,4.673-1.311c1.981,0,3.162,0.67,3.532,2.001l9.677,35.495l9.617-35.495    c0.37-1.331,1.551-2.001,3.532-2.001c1.611,0,3.172,0.44,4.663,1.311c1.501,0.881,2.252,1.921,2.252,3.112    c0,0.14-0.05,0.4-0.14,0.76l-12.869,42.2C367.273,398.87,366.433,399.761,365.122,400.382z M416.588,399.591    c-1.501,0.871-3.052,1.311-4.663,1.311c-1.991,0-3.162-0.67-3.532-2.001l-2.352-8.646h-14.6l-2.352,8.646    c-0.37,1.331-1.541,2.001-3.522,2.001c-1.621,0-3.172-0.44-4.673-1.311c-1.501-0.881-2.242-1.911-2.242-3.112    c0-0.14,0.04-0.39,0.13-0.761l12.869-42.2c0.37-1.151,1.211-2.041,2.522-2.662c1.321-0.62,2.832-0.941,4.533-0.941    c1.711,0,3.222,0.32,4.533,0.941c1.311,0.62,2.151,1.511,2.522,2.662l12.939,42.2c0.09,0.37,0.14,0.62,0.14,0.761    C418.839,397.68,418.089,398.71,416.588,399.591z"/>
	</g>
</g>
<g>
</g>
<g>
</g>
<g>
</g>
<g>
</g>
<g>
</g>
<g>
</g>
<g>
</g>
<g>
</g>
<g>
</g>
<g>
</g>
<g>
</g>
<g>
</g>
<g>
</g>
<g>
</g>
<g>
</g>
</svg>
