<?xml version="1.0" encoding="iso-8859-1"?>
<!-- Generator: Adobe Illustrator 19.0.0, SVG Export Plug-In . SVG Version: 6.00 Build 0)  -->
<svg xmlns="http://www.w3.org/2000/svg" xmlns:xlink="http://www.w3.org/1999/xlink" version="1.1" id="Capa_1" x="0px" y="0px" viewBox="0 0 512 512" style="enable-background:new 0 0 512 512;" xml:space="preserve">
<g>
	<g>
		<path d="M356.643,46.419H147.989c-28.938,0-52.397,23.459-52.397,52.397v7.299c0,4.032,3.268,7.3,7.3,7.3h306.147    c4.033,0.001,7.301-3.267,7.301-7.299C416.339,73.146,389.612,46.419,356.643,46.419z M177.27,94.729    c0,8.289-6.72,15.009-15.009,15.009s-15.009-6.72-15.009-15.009v-0.407c0-8.289,6.72-15.009,15.009-15.009    s15.009,6.72,15.009,15.009V94.729z M215.294,94.729c0,8.289-6.72,15.009-15.009,15.009c-8.289,0-15.009-6.72-15.009-15.009    v-0.407c0-8.289,6.72-15.009,15.009-15.009c8.289,0,15.009,6.72,15.009,15.009V94.729z M253.318,94.729    c0,8.289-6.72,15.009-15.009,15.009s-15.009-6.72-15.009-15.009v-0.407c0-8.289,6.72-15.009,15.009-15.009    s15.009,6.72,15.009,15.009V94.729z"/>
	</g>
</g>
<g>
	<g>
		<path d="M409.038,143.435H102.893c-4.033-0.001-7.301,3.267-7.301,7.3v76.801c0,28.938,23.459,52.397,52.397,52.397h215.953    c28.937,0,52.396-23.459,52.396-52.396v-76.802C416.338,146.703,413.07,143.435,409.038,143.435z"/>
	</g>
</g>
<g>
	<g>
		<path d="M156.01,333.532H20.267C9.092,333.532,0,342.623,0,353.798v90.991c0,11.175,9.092,20.266,20.267,20.266H156.01    c11.174,0,20.266-9.091,20.266-20.266v-90.991C176.276,342.623,167.184,333.532,156.01,333.532z"/>
	</g>
</g>
<g>
	<g>
		<path d="M491.733,333.665H357.13c-11.175,0-20.267,9.092-20.267,20.267v91.382c0,11.175,9.092,20.267,20.267,20.267h134.603    c11.175,0,20.267-9.092,20.267-20.267v-91.382C512,342.757,502.908,333.665,491.733,333.665z"/>
	</g>
</g>
<g>
	<g>
		<path d="M208.957,303.392h-17.345c-3.499-0.001-6.337,2.836-6.337,6.336v57.273c0,9.481-7.757,16.863-17.237,17.007    c-8.197,0.124-14.801,6.82-14.777,15.053c0.025,8.369,7.16,15.052,15.53,14.961c25.691-0.28,46.503-21.265,46.503-47.02v-57.273    C215.294,306.229,212.457,303.392,208.957,303.392z"/>
	</g>
</g>
<g>
	<g>
		<path d="M359.865,397.905c-0.724-7.783-7.545-13.378-15.36-13.575c-9.046-0.227-16.337-7.821-16.337-17.124v-57.478    c0-3.5-2.837-6.337-6.337-6.337h-17.345c-3.5,0-6.337,2.837-6.337,6.337v57.478c0,25.997,20.983,47.148,46.773,47.148    C353.687,414.354,360.697,406.841,359.865,397.905z"/>
	</g>
</g>
<g>
</g>
<g>
</g>
<g>
</g>
<g>
</g>
<g>
</g>
<g>
</g>
<g>
</g>
<g>
</g>
<g>
</g>
<g>
</g>
<g>
</g>
<g>
</g>
<g>
</g>
<g>
</g>
<g>
</g>
</svg>
