<?xml version="1.0" encoding="iso-8859-1"?>
<!-- Generator: Adobe Illustrator 19.0.0, SVG Export Plug-In . SVG Version: 6.00 Build 0)  -->
<svg xmlns="http://www.w3.org/2000/svg" xmlns:xlink="http://www.w3.org/1999/xlink" version="1.1" id="Capa_1" x="0px" y="0px" viewBox="0 0 512 512" style="enable-background:new 0 0 512 512;" xml:space="preserve">
<g>
	<g>
		<path d="M403.357,0H176.414c-27.828,0-50.387,22.559-50.387,50.387v2.704c0,5.018,4.067,9.085,9.085,9.085h208.572    c27.02,0,49,21.982,49,49l1.586,335.534c0.024,5.001,4.084,9.042,9.085,9.042c27.828,0,50.388-22.559,50.388-50.388V50.388    C453.744,22.559,431.185,0,403.357,0z"/>
	</g>
</g>
<g>
	<g>
		<path d="M164.016,244.775h-9.14c-3.774,0-6.834,3.06-6.834,6.834v101.284c0,3.774,3.06,6.834,6.834,6.834h9.14    c3.774,0,6.834-3.06,6.834-6.834V251.609C170.85,247.835,167.79,244.775,164.016,244.775z"/>
	</g>
</g>
<g>
	<g>
		<path d="M217.166,183.561h-9.435c-3.774,0-6.834,3.06-6.834,6.834v39.993v122.505c0,3.774,3.06,6.834,6.834,6.834h9.384    c3.774,0,6.834-3.06,6.834-6.834v-75.982c0-0.268,0.02-0.531,0.038-0.794c0.01-0.146,0.013-0.292,0.013-0.439v-85.284    C224,186.621,220.941,183.561,217.166,183.561z"/>
	</g>
</g>
<g>
	<g>
		<path d="M270.264,288.083h-9.384c-3.774,0-6.834,3.06-6.834,6.834v57.977c0,3.774,3.06,6.834,6.834,6.834h9.384    c3.774,0,6.834-3.06,6.834-6.834v-57.977C277.099,291.142,274.039,288.083,270.264,288.083z"/>
	</g>
</g>
<g>
	<g>
		<path d="M315.411,87.082H107.254c-27.019,0-48.999,21.982-48.999,49v326.918c0,27.019,21.981,48.999,48.999,48.999h208.156    c27.02,0,49-21.981,49-48.999V136.083C364.411,109.064,342.429,87.082,315.411,87.082z M289.108,441.549h-156.09    c-8.297,0-15.024-6.727-15.024-15.024c0-8.297,6.727-15.024,15.024-15.024h156.09c8.297,0,15.024,6.727,15.024,15.024    C304.132,434.822,297.405,441.549,289.108,441.549z M288.271,389.775h-45.447c-1.311,0-2.59-0.135-3.826-0.391    c-1.236,0.255-2.515,0.391-3.826,0.391h-45.447c-1.268,0-2.506-0.13-3.705-0.37c-1.199,0.239-2.437,0.37-3.705,0.37h-45.447    c-10.408,0-18.876-8.467-18.876-18.876V233.604c0-10.408,8.468-18.876,18.876-18.876h33.98v-42.339    c0-10.408,8.467-18.876,18.876-18.876h45.447c10.408,0,18.876,8.467,18.876,18.876v85.647h34.223    c10.408,0,18.876,8.467,18.876,18.876v93.987h0.001C307.147,381.308,298.679,389.775,288.271,389.775z"/>
	</g>
</g>
<g>
</g>
<g>
</g>
<g>
</g>
<g>
</g>
<g>
</g>
<g>
</g>
<g>
</g>
<g>
</g>
<g>
</g>
<g>
</g>
<g>
</g>
<g>
</g>
<g>
</g>
<g>
</g>
<g>
</g>
</svg>
