<?xml version="1.0" encoding="iso-8859-1"?>
<!-- Generator: Adobe Illustrator 19.0.0, SVG Export Plug-In . SVG Version: 6.00 Build 0)  -->
<svg xmlns="http://www.w3.org/2000/svg" xmlns:xlink="http://www.w3.org/1999/xlink" version="1.1" id="Capa_1" x="0px" y="0px" viewBox="0 0 512 512" style="enable-background:new 0 0 512 512;" xml:space="preserve">
<g>
	<g>
		<path d="M458.794,201.273h-74.356c-18.008,0-32.657,14.651-32.657,32.657V242h-26.56v-8.071c0-18.006-14.65-32.657-32.657-32.657    h-74.356c-18.006,0-32.656,14.651-32.656,32.657V242h-26.56v-8.071c0-18.006-14.65-32.657-32.657-32.657H51.977    c-18.008,0-32.657,14.651-32.657,32.657v46.16c0,18.006,14.65,32.657,32.657,32.657h74.356c18.007,0,32.657-14.651,32.657-32.657    v-8.071h26.56v8.071c0,18.006,14.65,32.657,32.656,32.657h74.356c18.008,0,32.657-14.651,32.657-32.657v-8.071h26.56v8.071    c0,18.006,14.65,32.657,32.657,32.657h74.356c18.007,0,32.657-14.651,32.657-32.657v-46.16    C491.451,215.923,476.802,201.273,458.794,201.273z"/>
	</g>
</g>
<g>
	<g>
		<path d="M107.013,382.597H32.657C14.65,382.597,0,397.248,0,415.254v46.16c0,18.006,14.65,32.657,32.657,32.657h74.356    c18.008,0,32.657-14.651,32.657-32.657v-46.16C139.669,397.248,125.02,382.597,107.013,382.597z"/>
	</g>
</g>
<g>
	<g>
		<path d="M479.343,382.597h-74.356c-18.008,0-32.657,14.651-32.657,32.657v46.16c0,18.006,14.649,32.657,32.657,32.657h74.356    c18.008,0,32.657-14.651,32.657-32.657v-46.16C512,397.248,497.35,382.597,479.343,382.597z"/>
	</g>
</g>
<g>
	<g>
		<path d="M331.744,58.657h-7.041v-8.071c0-18.006-14.649-32.657-32.657-32.657H217.69c-18.008,0-32.657,14.651-32.657,32.657v8.071    h-6.01c-57.923,0-104.878,46.955-104.878,104.878v4.656c0.003,4.353,3.532,7.883,7.887,7.883H96.28    c4.355,0,7.884-3.53,7.884-7.884v-4.656c0-41.344,33.517-74.861,74.861-74.861h6.01v8.071c0,18.007,14.65,32.657,32.657,32.657    h22.169v38.789c0,4.354,3.53,7.884,7.884,7.884h14.249c4.355,0,7.884-3.53,7.884-7.884v-38.789h22.17    c18.008,0,32.657-14.651,32.657-32.657v-8.071h7.041c41.344,0,74.861,33.516,74.861,74.861v4.657c0,4.355,3.53,7.884,7.884,7.884    h14.249c4.355,0,7.884-3.53,7.884-7.884v-4.656C436.622,105.612,389.667,58.657,331.744,58.657z"/>
	</g>
</g>
<g>
	<g>
		<path d="M245.96,338.43h-16.119c-3.838,0-6.949,3.111-6.949,6.949v3.085c0,34.557-23.422,63.626-55.253,72.243    c-3.932,1.065-6.621,4.693-6.621,8.766v12.184c0,5.919,5.543,10.22,11.304,8.854c46.21-10.957,80.589-52.487,80.589-102.047    v-3.085C252.909,341.541,249.798,338.43,245.96,338.43z"/>
	</g>
</g>
<g>
	<g>
		<path d="M345.105,420.832c-32.063-8.462-55.706-37.646-55.706-72.368v-3.085c0-3.838-3.111-6.949-6.949-6.949H266.33    c-3.838,0-6.949,3.111-6.949,6.949v3.085c0,49.757,34.651,91.414,81.137,102.172c5.751,1.331,11.264-2.96,11.264-8.863v-12.16    C351.782,425.518,349.064,421.877,345.105,420.832z"/>
	</g>
</g>
<g>
</g>
<g>
</g>
<g>
</g>
<g>
</g>
<g>
</g>
<g>
</g>
<g>
</g>
<g>
</g>
<g>
</g>
<g>
</g>
<g>
</g>
<g>
</g>
<g>
</g>
<g>
</g>
<g>
</g>
</svg>
