<?xml version="1.0" encoding="iso-8859-1"?>
<!-- Generator: Adobe Illustrator 19.0.0, SVG Export Plug-In . SVG Version: 6.00 Build 0)  -->
<svg xmlns="http://www.w3.org/2000/svg" xmlns:xlink="http://www.w3.org/1999/xlink" version="1.1" id="Capa_1" x="0px" y="0px" viewBox="0 0 512 512" style="enable-background:new 0 0 512 512;" xml:space="preserve">
<g>
	<g>
		<path d="M478.034,3.998H33.95C15.23,3.998,0,19.228,0,37.948s15.23,33.95,33.95,33.95h444.084c18.72,0,33.95-15.23,33.95-33.95    S496.754,3.998,478.034,3.998z"/>
	</g>
</g>
<g>
	<g>
		<path d="M478.049,320.922H33.966c-18.72,0-33.95,15.229-33.95,33.95s15.23,33.95,33.95,33.95H478.05    c18.72,0,33.95-15.23,33.95-33.95S496.769,320.922,478.049,320.922z"/>
	</g>
</g>
<g>
	<g>
		<path d="M262.673,360.385c-7.424-3.682-16.423-0.647-20.102,6.774l-59.098,119.176c-3.681,7.422-0.648,16.421,6.774,20.102    c2.141,1.062,4.414,1.565,6.652,1.565c5.52,0,10.832-3.06,13.451-8.339l59.098-119.176    C273.127,373.065,270.095,364.066,262.673,360.385z"/>
	</g>
</g>
<g>
	<g>
		<path d="M327.656,486.335l-59.098-119.176c-3.68-7.42-12.679-10.455-20.102-6.774c-7.421,3.681-10.455,12.681-6.774,20.102    l59.098,119.176c2.618,5.28,7.929,8.339,13.45,8.339c2.239,0,4.511-0.503,6.653-1.565    C328.303,502.756,331.337,493.757,327.656,486.335z"/>
	</g>
</g>
<g>
	<g>
		<path d="M480.475,84.603H31.541c-7.312,0-13.239,5.927-13.239,13.239v191.291c0,7.312,5.927,13.239,13.239,13.239h448.934    c7.312,0,13.239-5.927,13.239-13.239V97.841C493.714,90.53,487.786,84.603,480.475,84.603z M245.302,279.943    c0,8.284-6.716,15-15,15c-42.712,0-77.46-34.749-77.46-77.46c0-8.284,6.716-15,15-15h62.46c8.284,0,15,6.716,15,15V279.943z     M268.695,259.584c-8.284,0-15-6.716-15-15v-49.918h-49.918c-8.284,0-15-6.716-15-15c0-44.067,35.851-79.917,79.917-79.917    c44.067,0,79.919,35.851,79.919,79.917C348.613,223.733,312.761,259.584,268.695,259.584z"/>
	</g>
</g>
<g>
</g>
<g>
</g>
<g>
</g>
<g>
</g>
<g>
</g>
<g>
</g>
<g>
</g>
<g>
</g>
<g>
</g>
<g>
</g>
<g>
</g>
<g>
</g>
<g>
</g>
<g>
</g>
<g>
</g>
</svg>
