<?xml version="1.0" encoding="iso-8859-1"?>
<!-- Generator: Adobe Illustrator 19.0.0, SVG Export Plug-In . SVG Version: 6.00 Build 0)  -->
<svg xmlns="http://www.w3.org/2000/svg" xmlns:xlink="http://www.w3.org/1999/xlink" version="1.1" id="Capa_1" x="0px" y="0px" viewBox="0 0 512.001 512.001" style="enable-background:new 0 0 512.001 512.001;" xml:space="preserve">
<g>
	<g>
		<path d="M377.394,230.885c-3.326-3.505-8.008-5.258-14.051-5.258h-20.306V269.5h20.306c6.042,0.001,10.725-1.749,14.051-5.257    c3.323-3.504,4.985-8.702,4.985-15.591v-2.176C382.379,239.586,380.716,234.391,377.394,230.885z"/>
	</g>
</g>
<g>
	<g>
		<path d="M457.528,35.294h-2.445c-3.808,0-6.894,3.087-6.894,6.894v40.567c0,8.079-6.208,15.03-14.278,15.41    c-8.616,0.406-15.728-6.459-15.728-14.986V42.187c0-3.808-3.087-6.894-6.894-6.894s-6.894,3.087-6.894,6.894v40.567    c0,8.078-6.208,15.03-14.278,15.41c-8.616,0.406-15.728-6.459-15.728-14.986V42.187c0-3.808-3.087-6.894-6.894-6.894H54.471    C24.388,35.294,0,59.682,0,89.765v12.736c0,3.808,3.087,6.894,6.894,6.894h498.212c3.808,0,6.894-3.087,6.894-6.894V89.765    C512,59.682,487.612,35.294,457.528,35.294z M79.422,88.997c-0.05,0.49-0.12,0.98-0.22,1.46c-0.09,0.48-0.21,0.96-0.36,1.42    c-0.14,0.47-0.3,0.94-0.49,1.39c-0.19,0.45-0.4,0.89-0.63,1.32c-0.23,0.43-0.48,0.86-0.75,1.26c-0.27,0.41-0.57,0.81-0.87,1.19    c-0.32,0.38-0.65,0.75-1,1.09c-0.34,0.35-0.71,0.68-1.09,1c-0.38,0.3-0.78,0.6-1.18,0.87c-0.41,0.27-0.84,0.52-1.27,0.75    c-0.43,0.23-0.87,0.44-1.32,0.63c-0.45,0.19-0.92,0.35-1.39,0.5c-0.46,0.14-0.94,0.26-1.42,0.36c-0.48,0.09-0.97,0.17-1.46,0.22    c-0.48,0.04-0.98,0.07-1.47,0.07c-0.49,0-0.99-0.03-1.48-0.07c-0.48-0.05-0.97-0.13-1.45-0.22c-0.48-0.1-0.96-0.22-1.43-0.36    c-0.46-0.15-0.93-0.31-1.38-0.5c-0.45-0.19-0.9-0.4-1.33-0.63c-0.43-0.23-0.85-0.48-1.26-0.75c-0.41-0.27-0.8-0.57-1.18-0.87    c-0.38-0.32-0.75-0.65-1.1-1c-0.34-0.34-0.68-0.71-0.99-1.09s-0.6-0.78-0.87-1.19c-0.27-0.4-0.53-0.83-0.76-1.26    c-0.22-0.43-0.44-0.87-0.62-1.32c-0.19-0.45-0.36-0.92-0.5-1.39c-0.14-0.46-0.26-0.94-0.36-1.42c-0.09-0.48-0.17-0.97-0.22-1.46    c-0.05-0.48-0.07-0.98-0.07-1.47s0.02-0.99,0.07-1.48c0.05-0.48,0.13-0.97,0.22-1.45c0.1-0.48,0.22-0.96,0.36-1.43    c0.14-0.46,0.31-0.93,0.5-1.38c0.18-0.45,0.4-0.9,0.62-1.33c0.23-0.43,0.49-0.85,0.76-1.26c0.27-0.41,0.56-0.8,0.87-1.18    s0.65-0.75,0.99-1.1c0.35-0.34,0.72-0.68,1.1-0.99c0.38-0.31,0.77-0.6,1.18-0.87c0.41-0.27,0.83-0.52,1.26-0.75    c0.43-0.23,0.88-0.44,1.33-0.63c0.45-0.19,0.92-0.35,1.38-0.5c0.47-0.14,0.95-0.26,1.43-0.36c0.48-0.09,0.97-0.17,1.45-0.22    c0.98-0.1,1.98-0.1,2.951,0c0.49,0.05,0.98,0.13,1.46,0.22c0.48,0.1,0.96,0.22,1.42,0.36c0.47,0.15,0.94,0.31,1.39,0.5    s0.89,0.4,1.32,0.63c0.43,0.23,0.86,0.48,1.27,0.75c0.4,0.27,0.8,0.56,1.18,0.87c0.38,0.31,0.75,0.65,1.09,0.99    c0.35,0.35,0.68,0.72,1,1.1c0.3,0.38,0.6,0.77,0.87,1.18c0.27,0.41,0.52,0.83,0.75,1.26c0.23,0.43,0.44,0.88,0.63,1.33    c0.19,0.45,0.35,0.92,0.49,1.38c0.15,0.47,0.27,0.95,0.36,1.43c0.1,0.48,0.17,0.97,0.22,1.45c0.05,0.49,0.08,0.99,0.08,1.48    S79.472,88.517,79.422,88.997z M121.86,88.997c-0.05,0.49-0.12,0.98-0.22,1.46c-0.1,0.48-0.22,0.96-0.36,1.42    c-0.14,0.47-0.31,0.94-0.5,1.39c-0.18,0.45-0.39,0.89-0.62,1.32c-0.23,0.43-0.49,0.86-0.76,1.26c-0.27,0.41-0.56,0.81-0.87,1.19    s-0.64,0.75-0.99,1.09c-0.35,0.35-0.72,0.68-1.1,1c-0.37,0.3-0.77,0.6-1.18,0.87c-0.41,0.27-0.83,0.52-1.26,0.75    c-0.43,0.23-0.88,0.44-1.33,0.63c-0.45,0.19-0.91,0.35-1.38,0.5c-0.47,0.14-0.95,0.26-1.43,0.36c-0.48,0.09-0.97,0.17-1.45,0.22    c-0.49,0.04-0.99,0.07-1.48,0.07s-0.98-0.03-1.47-0.07c-0.49-0.05-0.98-0.13-1.46-0.22c-0.48-0.1-0.95-0.22-1.42-0.36    c-0.47-0.15-0.93-0.31-1.38-0.5c-0.45-0.19-0.9-0.4-1.33-0.63c-0.43-0.23-0.86-0.48-1.26-0.75c-0.41-0.27-0.81-0.57-1.19-0.87    c-0.38-0.32-0.75-0.65-1.09-1c-0.35-0.34-0.68-0.71-0.99-1.09s-0.61-0.78-0.88-1.19c-0.27-0.4-0.52-0.83-0.75-1.26    c-0.23-0.43-0.44-0.87-0.63-1.32c-0.18-0.45-0.35-0.92-0.49-1.39c-0.15-0.46-0.27-0.94-0.36-1.42c-0.1-0.48-0.17-0.97-0.22-1.46    c-0.05-0.48-0.08-0.98-0.08-1.47s0.03-0.99,0.08-1.48c0.05-0.48,0.12-0.97,0.22-1.45c0.09-0.48,0.21-0.96,0.36-1.43    c0.14-0.46,0.31-0.93,0.49-1.38c0.19-0.45,0.4-0.9,0.63-1.33c0.23-0.43,0.48-0.85,0.75-1.26c0.27-0.41,0.57-0.8,0.88-1.18    s0.64-0.75,0.99-1.1c0.34-0.34,0.71-0.68,1.09-0.99s0.78-0.6,1.19-0.87c0.4-0.27,0.83-0.52,1.26-0.75    c0.43-0.23,0.88-0.44,1.33-0.63c0.45-0.19,0.91-0.35,1.38-0.5c0.47-0.14,0.94-0.26,1.42-0.36c0.48-0.09,0.97-0.17,1.46-0.22    c0.98-0.1,1.97-0.1,2.951,0c0.48,0.05,0.97,0.13,1.45,0.22c0.48,0.1,0.96,0.22,1.43,0.36c0.47,0.15,0.93,0.31,1.38,0.5    c0.45,0.19,0.9,0.4,1.33,0.63c0.43,0.23,0.85,0.48,1.26,0.75c0.41,0.27,0.81,0.56,1.18,0.87c0.38,0.31,0.75,0.65,1.1,0.99    c0.35,0.35,0.68,0.72,0.99,1.1s0.6,0.77,0.87,1.18c0.27,0.41,0.53,0.83,0.76,1.26c0.23,0.43,0.44,0.88,0.62,1.33    c0.19,0.45,0.36,0.92,0.5,1.38c0.14,0.47,0.26,0.95,0.36,1.43c0.1,0.48,0.17,0.97,0.22,1.45c0.05,0.49,0.07,0.99,0.07,1.48    S121.91,88.517,121.86,88.997z M164.868,88.997c-0.05,0.49-0.12,0.98-0.22,1.46s-0.22,0.96-0.36,1.42    c-0.14,0.47-0.31,0.94-0.5,1.39c-0.18,0.45-0.39,0.89-0.62,1.32c-0.23,0.43-0.49,0.86-0.76,1.26c-0.27,0.41-0.56,0.81-0.87,1.19    s-0.64,0.75-0.99,1.09c-0.35,0.35-0.71,0.68-1.1,1c-0.37,0.3-0.77,0.6-1.18,0.87c-0.41,0.27-0.83,0.52-1.26,0.75    s-0.88,0.44-1.33,0.63c-0.45,0.19-0.92,0.35-1.38,0.5c-0.47,0.14-0.95,0.26-1.43,0.36c-0.48,0.09-0.97,0.17-1.45,0.22    c-0.49,0.04-0.99,0.07-1.48,0.07c-0.49,0-0.98-0.03-1.47-0.07c-0.49-0.05-0.98-0.13-1.46-0.22c-0.48-0.1-0.95-0.22-1.42-0.36    c-0.47-0.15-0.93-0.31-1.38-0.5c-0.45-0.19-0.9-0.4-1.33-0.63c-0.43-0.23-0.86-0.48-1.26-0.75c-0.41-0.27-0.81-0.57-1.19-0.87    c-0.38-0.32-0.75-0.65-1.09-1c-0.35-0.34-0.68-0.71-0.99-1.09s-0.61-0.78-0.88-1.19c-0.27-0.4-0.52-0.83-0.75-1.26    c-0.23-0.43-0.44-0.87-0.63-1.32c-0.18-0.45-0.35-0.92-0.49-1.39c-0.15-0.46-0.27-0.94-0.36-1.42c-0.1-0.48-0.17-0.97-0.22-1.46    c-0.05-0.48-0.08-0.98-0.08-1.47s0.03-0.99,0.08-1.48c0.05-0.48,0.12-0.97,0.22-1.45c0.09-0.48,0.21-0.96,0.36-1.43    c0.14-0.46,0.31-0.93,0.49-1.38c0.19-0.45,0.4-0.9,0.63-1.33c0.23-0.43,0.48-0.85,0.75-1.26c0.27-0.41,0.57-0.8,0.88-1.18    s0.64-0.75,0.99-1.1c0.34-0.34,0.71-0.68,1.09-0.99c0.38-0.31,0.78-0.6,1.19-0.87c0.4-0.27,0.83-0.52,1.26-0.75    c0.43-0.23,0.88-0.44,1.33-0.63c0.45-0.19,0.91-0.35,1.38-0.5c0.47-0.14,0.94-0.26,1.42-0.36c0.48-0.09,0.97-0.17,1.46-0.22    c0.98-0.1,1.97-0.1,2.951,0c0.48,0.05,0.97,0.13,1.45,0.22c0.48,0.1,0.96,0.22,1.43,0.36c0.46,0.15,0.93,0.31,1.38,0.5    s0.9,0.4,1.33,0.63c0.43,0.23,0.85,0.48,1.26,0.75c0.41,0.27,0.81,0.56,1.18,0.87c0.39,0.31,0.75,0.65,1.1,0.99    c0.35,0.35,0.68,0.72,0.99,1.1s0.6,0.77,0.87,1.18c0.27,0.41,0.53,0.83,0.76,1.26c0.23,0.43,0.44,0.88,0.62,1.33    c0.19,0.45,0.36,0.92,0.5,1.38c0.14,0.47,0.26,0.95,0.36,1.43s0.17,0.97,0.22,1.45c0.05,0.49,0.07,0.99,0.07,1.48    S164.918,88.517,164.868,88.997z"/>
	</g>
</g>
<g>
	<g>
		<path d="M166.73,230.885c-3.326-3.505-8.008-5.258-14.051-5.258h-20.305V269.5h20.306c6.041,0.001,10.724-1.749,14.05-5.257    c3.323-3.504,4.985-8.702,4.985-15.591v-2.176C171.715,239.586,170.053,234.391,166.73,230.885z"/>
	</g>
</g>
<g>
	<g>
		<path d="M505.106,139.402H6.894c-3.808,0-6.894,3.087-6.894,6.894v275.941c0,30.084,24.388,54.471,54.471,54.471h403.057    c30.084,0,54.471-24.388,54.471-54.471V146.295C512,142.487,508.913,139.402,505.106,139.402z M321.916,207.136    c1.632-1.45,3.776-2.176,6.437-2.176h36.441c12.446,0,22.418,3.295,29.914,9.881c7.492,6.589,11.24,16.892,11.24,30.911v1.088    c0,14.141-3.898,24.537-11.693,31.183c-7.797,6.648-18.101,9.972-30.911,9.972h-20.306v42.061c0,2.297-1.178,4.11-3.535,5.439    c-2.356,1.331-5.107,1.994-8.249,1.994c-3.265,0-6.045-0.663-8.341-1.994c-2.297-1.328-3.444-3.142-3.444-5.439V212.212h-0.001    C319.47,210.28,320.285,208.587,321.916,207.136z M213.23,206.773c2.295-1.206,5.076-1.813,8.341-1.813    c3.264,0,6.042,0.606,8.34,1.813c2.294,1.21,3.444,3.023,3.444,5.439v47.319h40.792v-47.319c0-2.416,1.147-4.23,3.445-5.439    c2.294-1.206,5.076-1.813,8.34-1.813s6.042,0.606,8.34,1.813c2.294,1.21,3.445,3.023,3.445,5.439v117.842    c0,2.297-1.179,4.11-3.536,5.439c-2.356,1.331-5.107,1.994-8.249,1.994c-3.264,0-6.045-0.663-8.34-1.994    c-2.297-1.328-3.445-3.142-3.445-5.439v-52.032h-40.792v52.032c0,2.297-1.178,4.11-3.535,5.439    c-2.356,1.331-5.107,1.994-8.249,1.994c-3.265,0-6.045-0.663-8.341-1.994c-2.297-1.328-3.444-3.142-3.444-5.439V212.212h0    C209.786,209.796,210.933,207.982,213.23,206.773z M108.806,212.212c0-1.932,0.815-3.626,2.446-5.076    c1.632-1.45,3.776-2.176,6.437-2.176h36.441c12.446,0,22.418,3.295,29.914,9.881c7.492,6.589,11.24,16.892,11.24,30.911v1.088    c0,14.141-3.898,24.537-11.693,31.183c-7.796,6.648-18.101,9.972-30.911,9.972h-20.306v42.061c0,2.297-1.178,4.11-3.535,5.439    c-2.356,1.331-5.107,1.994-8.249,1.994c-3.265,0-6.045-0.663-8.341-1.994c-2.297-1.328-3.444-3.142-3.444-5.439V212.212H108.806z     M391.059,388.572H124.708c-8.286,0-15.003-6.717-15.003-15.003c0-8.286,6.717-15.003,15.003-15.003h266.351    c8.286,0,15.003,6.717,15.003,15.003C406.062,381.855,399.345,388.572,391.059,388.572z"/>
	</g>
</g>
<g>
</g>
<g>
</g>
<g>
</g>
<g>
</g>
<g>
</g>
<g>
</g>
<g>
</g>
<g>
</g>
<g>
</g>
<g>
</g>
<g>
</g>
<g>
</g>
<g>
</g>
<g>
</g>
<g>
</g>
</svg>
