<?xml version="1.0" encoding="iso-8859-1"?>
<!-- Generator: Adobe Illustrator 19.0.0, SVG Export Plug-In . SVG Version: 6.00 Build 0)  -->
<svg xmlns="http://www.w3.org/2000/svg" xmlns:xlink="http://www.w3.org/1999/xlink" version="1.1" id="Capa_1" x="0px" y="0px" viewBox="0 0 512.001 512.001" style="enable-background:new 0 0 512.001 512.001;" xml:space="preserve">
<g>
	<g>
		<path d="M457.529,35.294h-2.446c-3.808,0-6.894,3.087-6.894,6.894v40.567c0,8.079-6.208,15.03-14.278,15.41    c-8.616,0.406-15.728-6.459-15.728-14.986V42.187c0-3.808-3.087-6.894-6.894-6.894s-6.894,3.087-6.894,6.894v40.567    c0,8.078-6.208,15.03-14.278,15.41c-8.616,0.406-15.728-6.459-15.728-14.986V42.187c0-3.808-3.087-6.894-6.894-6.894H54.472    C24.388,35.294,0,59.682,0,89.766v12.735c0,3.808,3.087,6.894,6.894,6.894h498.212c3.808,0,6.894-3.087,6.894-6.894V89.765    C512,59.682,487.612,35.294,457.529,35.294z M79.43,89.002c-0.05,0.48-0.13,0.97-0.22,1.45c-0.1,0.48-0.22,0.96-0.36,1.43    c-0.149,0.47-0.31,0.93-0.5,1.38c-0.189,0.45-0.399,0.9-0.63,1.33c-0.229,0.43-0.479,0.85-0.75,1.26    c-0.27,0.41-0.569,0.81-0.87,1.18c-0.319,0.39-0.649,0.75-1,1.1c-0.34,0.35-0.71,0.68-1.09,0.99s-0.779,0.6-1.189,0.88    c-0.4,0.27-0.83,0.52-1.261,0.75c-0.43,0.23-0.869,0.44-1.319,0.62c-0.45,0.19-0.92,0.36-1.391,0.5    c-0.46,0.14-0.939,0.26-1.42,0.36c-0.479,0.1-0.97,0.17-1.449,0.22c-0.49,0.05-0.99,0.07-1.48,0.07s-0.99-0.02-1.47-0.07    c-0.49-0.05-0.98-0.12-1.46-0.22c-0.48-0.1-0.96-0.22-1.431-0.36c-0.46-0.14-0.93-0.31-1.38-0.5c-0.45-0.18-0.899-0.39-1.33-0.62    c-0.43-0.23-0.85-0.48-1.26-0.75c-0.41-0.28-0.8-0.57-1.18-0.88c-0.38-0.31-0.75-0.64-1.101-0.99c-0.34-0.35-0.68-0.71-0.989-1.1    c-0.311-0.37-0.601-0.77-0.87-1.18c-0.271-0.41-0.53-0.83-0.76-1.26c-0.221-0.43-0.431-0.88-0.62-1.33    c-0.19-0.45-0.351-0.91-0.5-1.38c-0.141-0.47-0.261-0.95-0.36-1.43c-0.09-0.48-0.17-0.97-0.22-1.45    c-0.05-0.49-0.07-0.99-0.07-1.48s0.021-0.98,0.07-1.47c0.05-0.49,0.13-0.98,0.22-1.46c0.1-0.47,0.22-0.95,0.36-1.42    c0.149-0.47,0.31-0.93,0.5-1.38c0.189-0.45,0.399-0.9,0.62-1.33c0.229-0.43,0.489-0.86,0.76-1.26c0.27-0.41,0.56-0.81,0.87-1.19    s0.649-0.75,0.989-1.09c0.351-0.35,0.721-0.68,1.101-0.99c0.38-0.31,0.77-0.61,1.18-0.88c0.41-0.27,0.83-0.52,1.26-0.75    c0.431-0.23,0.88-0.44,1.33-0.63c0.45-0.18,0.92-0.35,1.38-0.49c0.471-0.14,0.95-0.27,1.431-0.36c0.479-0.1,0.97-0.17,1.46-0.22    c0.97-0.1,1.97-0.1,2.951,0c0.479,0.05,0.97,0.12,1.449,0.22c0.48,0.09,0.96,0.22,1.42,0.36c0.471,0.14,0.94,0.31,1.391,0.49    c0.45,0.19,0.89,0.4,1.319,0.63c0.431,0.23,0.86,0.48,1.261,0.75c0.41,0.27,0.81,0.57,1.189,0.88c0.379,0.31,0.75,0.64,1.09,0.99    c0.351,0.34,0.681,0.71,1,1.09c0.301,0.38,0.601,0.78,0.87,1.19c0.271,0.4,0.521,0.83,0.75,1.26c0.23,0.43,0.44,0.88,0.63,1.33    c0.19,0.45,0.351,0.91,0.5,1.38c0.141,0.47,0.261,0.95,0.36,1.42c0.09,0.48,0.17,0.97,0.22,1.46c0.04,0.49,0.07,0.98,0.07,1.47    S79.47,88.512,79.43,89.002z M121.858,89.002c-0.05,0.49-0.119,0.98-0.22,1.46c-0.1,0.47-0.22,0.95-0.359,1.42    c-0.141,0.47-0.311,0.93-0.5,1.38c-0.181,0.45-0.391,0.9-0.62,1.33c-0.23,0.43-0.49,0.85-0.761,1.26    c-0.27,0.41-0.56,0.81-0.869,1.19c-0.311,0.38-0.641,0.74-0.99,1.09c-0.351,0.35-0.721,0.68-1.101,0.99    c-0.37,0.31-0.77,0.6-1.18,0.88c-0.41,0.27-0.83,0.52-1.26,0.75c-0.431,0.23-0.88,0.44-1.33,0.62c-0.45,0.19-0.91,0.36-1.38,0.5    c-0.471,0.14-0.95,0.26-1.431,0.36c-0.479,0.1-0.96,0.17-1.449,0.22c-0.49,0.05-0.99,0.07-1.48,0.07s-0.979-0.02-1.47-0.07    c-0.49-0.05-0.98-0.12-1.46-0.22c-0.48-0.1-0.95-0.22-1.42-0.36c-0.471-0.14-0.931-0.31-1.38-0.5c-0.45-0.18-0.9-0.39-1.33-0.62    c-0.431-0.23-0.86-0.48-1.261-0.75c-0.409-0.28-0.81-0.57-1.189-0.88c-0.38-0.31-0.74-0.64-1.09-0.99    c-0.351-0.35-0.681-0.71-0.99-1.09c-0.31-0.38-0.61-0.78-0.88-1.19c-0.271-0.41-0.521-0.83-0.75-1.26    c-0.23-0.43-0.44-0.88-0.63-1.33c-0.181-0.45-0.351-0.91-0.49-1.38c-0.15-0.47-0.271-0.95-0.36-1.42    c-0.1-0.48-0.17-0.97-0.22-1.46c-0.05-0.49-0.08-0.99-0.08-1.48c0-0.48,0.03-0.98,0.08-1.47c0.05-0.49,0.12-0.98,0.22-1.46    c0.09-0.47,0.21-0.95,0.36-1.42c0.14-0.47,0.31-0.93,0.49-1.38c0.189-0.45,0.399-0.9,0.63-1.33c0.229-0.43,0.479-0.86,0.75-1.26    c0.27-0.41,0.57-0.81,0.88-1.19s0.64-0.75,0.99-1.09c0.35-0.35,0.71-0.68,1.09-0.99s0.78-0.61,1.189-0.88    c0.4-0.27,0.83-0.52,1.261-0.75c0.43-0.23,0.88-0.44,1.33-0.63c0.449-0.18,0.909-0.35,1.38-0.49c0.47-0.14,0.939-0.27,1.42-0.36    c0.479-0.1,0.97-0.17,1.46-0.22c0.979-0.1,1.97-0.1,2.951,0c0.489,0.05,0.97,0.12,1.449,0.22c0.48,0.09,0.96,0.22,1.431,0.36    c0.47,0.14,0.93,0.31,1.38,0.49c0.45,0.19,0.899,0.4,1.33,0.63c0.43,0.23,0.85,0.48,1.26,0.75c0.41,0.27,0.81,0.57,1.18,0.88    c0.38,0.31,0.75,0.64,1.101,0.99c0.35,0.34,0.68,0.71,0.99,1.09s0.6,0.78,0.869,1.19c0.271,0.4,0.53,0.83,0.761,1.26    c0.229,0.43,0.439,0.88,0.62,1.33c0.189,0.45,0.359,0.91,0.5,1.38c0.14,0.47,0.26,0.95,0.359,1.42c0.101,0.48,0.17,0.97,0.22,1.46    c0.051,0.49,0.08,0.99,0.08,1.47C121.938,88.012,121.909,88.512,121.858,89.002z M164.866,89.002c-0.05,0.48-0.119,0.98-0.22,1.46    c-0.09,0.47-0.22,0.95-0.359,1.42c-0.141,0.47-0.311,0.93-0.49,1.38c-0.19,0.45-0.4,0.9-0.63,1.33c-0.23,0.43-0.48,0.85-0.75,1.26    c-0.28,0.41-0.57,0.81-0.88,1.19c-0.311,0.38-0.641,0.74-0.99,1.09c-0.351,0.35-0.71,0.68-1.101,0.99    c-0.37,0.31-0.77,0.6-1.18,0.88c-0.4,0.27-0.83,0.52-1.26,0.75c-0.431,0.23-0.88,0.44-1.33,0.62c-0.45,0.19-0.91,0.36-1.38,0.5    c-0.471,0.14-0.95,0.26-1.42,0.36c-0.48,0.1-0.971,0.17-1.46,0.22c-0.49,0.05-0.99,0.07-1.471,0.07    c-0.489,0-0.989-0.02-1.479-0.07c-0.49-0.05-0.98-0.12-1.46-0.22c-0.47-0.1-0.95-0.22-1.42-0.36c-0.471-0.14-0.931-0.31-1.38-0.5    c-0.45-0.18-0.9-0.39-1.33-0.62c-0.431-0.23-0.86-0.48-1.261-0.75c-0.409-0.28-0.81-0.57-1.189-0.88    c-0.38-0.31-0.75-0.64-1.09-0.99c-0.351-0.35-0.681-0.71-0.99-1.09c-0.31-0.38-0.61-0.78-0.88-1.19    c-0.271-0.41-0.521-0.83-0.75-1.26c-0.23-0.43-0.44-0.88-0.63-1.33c-0.181-0.45-0.351-0.91-0.49-1.38    c-0.139-0.47-0.271-0.95-0.36-1.42c-0.1-0.48-0.17-0.98-0.22-1.46c-0.05-0.49-0.08-0.99-0.08-1.48s0.03-0.98,0.08-1.47    c0.05-0.49,0.12-0.98,0.22-1.46c0.09-0.47,0.221-0.95,0.36-1.42c0.14-0.47,0.31-0.93,0.49-1.38c0.189-0.45,0.399-0.9,0.63-1.33    c0.229-0.43,0.479-0.86,0.75-1.26c0.27-0.41,0.57-0.81,0.88-1.19s0.64-0.75,0.99-1.09c0.34-0.35,0.71-0.68,1.09-0.99    s0.78-0.61,1.189-0.88c0.4-0.27,0.83-0.52,1.261-0.75c0.43-0.23,0.88-0.44,1.33-0.63c0.449-0.18,0.909-0.35,1.38-0.49    c0.47-0.14,0.95-0.27,1.42-0.36c0.479-0.1,0.97-0.17,1.46-0.22c0.979-0.1,1.97-0.1,2.951,0c0.489,0.05,0.979,0.12,1.46,0.22    c0.47,0.09,0.949,0.22,1.42,0.36c0.47,0.14,0.93,0.31,1.38,0.49c0.45,0.19,0.899,0.4,1.33,0.63c0.43,0.23,0.859,0.48,1.26,0.75    c0.41,0.27,0.81,0.57,1.18,0.88c0.391,0.31,0.75,0.64,1.101,0.99c0.35,0.34,0.68,0.71,0.99,1.09c0.31,0.38,0.6,0.78,0.88,1.19    c0.27,0.4,0.52,0.83,0.75,1.26c0.229,0.43,0.439,0.88,0.63,1.33c0.18,0.45,0.35,0.91,0.49,1.38c0.14,0.47,0.27,0.95,0.359,1.42    c0.101,0.48,0.17,0.97,0.22,1.46c0.051,0.49,0.08,0.98,0.08,1.47S164.917,88.512,164.866,89.002z"/>
	</g>
</g>
<g>
	<g>
		<path d="M505.107,139.402H6.894c-3.808,0-6.894,3.087-6.894,6.894v275.94c0,30.084,24.388,54.472,54.472,54.472h403.056    c30.085,0,54.472-24.388,54.472-54.472V146.295C512,142.488,508.913,139.402,505.107,139.402z M307.799,308.208    c2.112-2.839,4.501-4.26,7.161-4.26c1.568,0,3.354,0.753,5.348,2.26c1.994,1.507,3.927,3.173,5.802,4.991    c1.872,1.821,4.561,3.485,8.067,4.992c3.505,1.507,7.371,2.26,11.604,2.26c5.801,0,10.634-1.328,14.504-3.988    c3.866-2.658,5.801-6.586,5.801-11.784c0-3.626-1.059-6.858-3.173-9.7c-2.115-2.839-4.896-5.195-8.34-7.07    c-3.445-1.872-7.224-3.686-11.331-5.439c-4.11-1.75-8.249-3.717-12.418-5.892c-4.17-2.175-7.977-4.623-11.422-7.342    c-3.445-2.72-6.227-6.345-8.34-10.878c-2.116-4.532-3.173-9.699-3.173-15.501c0-6.501,1.297-12.237,3.897-17.206    c2.599-4.969,6.073-8.833,10.425-11.591c4.352-2.76,9.003-4.785,13.96-6.073c4.955-1.286,10.212-1.932,15.773-1.932    c3.143,0,6.465,0.218,9.972,0.651c3.505,0.436,7.221,1.15,11.149,2.141c3.927,0.994,7.13,2.546,9.609,4.654    c2.475,2.11,3.717,4.592,3.717,7.447c0,2.691-0.847,5.476-2.538,8.352c-1.693,2.876-3.988,4.312-6.889,4.312    c-1.088,0-4.051-1.147-8.884-3.445c-4.836-2.294-10.215-3.445-16.136-3.445c-6.526,0-11.574,1.24-15.138,3.717    c-3.566,2.478-5.349,5.892-5.349,10.243c0,3.507,1.45,6.558,4.352,9.156c2.901,2.601,6.495,4.713,10.787,6.345    c4.289,1.632,8.943,3.689,13.96,6.164c5.014,2.479,9.668,5.167,13.96,8.068c4.289,2.901,7.886,7.101,10.787,12.6    c2.901,5.501,4.352,11.937,4.352,19.308c0,12.396-3.961,21.962-11.875,28.695c-7.917,6.736-18.342,10.102-31.274,10.102    c-11.483,0-21.333-2.356-29.552-7.07c-8.221-4.714-12.327-9.85-12.327-15.41C304.626,313.859,305.682,311.049,307.799,308.208z     M213.164,308.208c2.112-2.839,4.501-4.26,7.161-4.26c1.568,0,3.354,0.753,5.348,2.26c1.994,1.507,3.927,3.173,5.802,4.991    c1.872,1.821,4.561,3.485,8.067,4.992c3.505,1.507,7.371,2.26,11.604,2.26c5.801,0,10.634-1.328,14.504-3.988    c3.866-2.658,5.801-6.586,5.801-11.784c0-3.626-1.059-6.858-3.173-9.7c-2.115-2.839-4.896-5.195-8.34-7.07    c-3.445-1.872-7.224-3.686-11.331-5.439c-4.11-1.75-8.249-3.717-12.418-5.892s-7.977-4.623-11.422-7.342    c-3.445-2.72-6.227-6.345-8.34-10.878c-2.116-4.532-3.173-9.699-3.173-15.501c0-6.501,1.297-12.237,3.897-17.206    c2.599-4.969,6.073-8.833,10.425-11.591c4.352-2.76,9.003-4.785,13.96-6.073c4.955-1.286,10.212-1.932,15.773-1.932    c3.143,0,6.465,0.218,9.972,0.651c3.505,0.436,7.221,1.15,11.149,2.141c3.927,0.994,7.13,2.546,9.609,4.654    c2.475,2.11,3.717,4.592,3.717,7.447c0,2.691-0.847,5.476-2.538,8.352c-1.693,2.876-3.988,4.312-6.889,4.312    c-1.088,0-4.051-1.147-8.884-3.445c-4.836-2.294-10.215-3.445-16.136-3.445c-6.526,0-11.574,1.24-15.138,3.717    c-3.566,2.478-5.349,5.892-5.349,10.243c0,3.507,1.45,6.558,4.352,9.156c2.901,2.601,6.495,4.713,10.787,6.345    c4.289,1.632,8.943,3.689,13.96,6.164c5.014,2.479,9.668,5.167,13.96,8.068c4.289,2.901,7.887,7.101,10.787,12.6    c2.901,5.501,4.352,11.937,4.352,19.308c0,12.396-3.961,21.962-11.875,28.695c-7.917,6.736-18.342,10.102-31.274,10.102    c-11.483,0-21.333-2.356-29.552-7.07c-8.221-4.714-12.327-9.85-12.327-15.41C209.991,313.859,211.048,311.049,213.164,308.208z     M115.538,246.477h0.001c0-14.26,3.867-24.747,11.604-31.455c7.732-6.708,17.826-10.062,30.277-10.062    c12.69,0,23.053,3.145,31.092,9.428c8.036,6.286,12.057,14.626,12.057,25.019c0,4.473-0.907,7.523-2.721,9.156    c-1.813,1.632-4.835,2.447-9.065,2.447c-7.736,0-11.665-2.475-11.784-7.433c-0.122-1.569-0.271-2.93-0.453-4.08    c-0.182-1.147-0.666-2.656-1.45-4.532c-0.787-1.872-1.784-3.445-2.992-4.714c-1.209-1.269-3.022-2.356-5.439-3.264    c-2.419-0.906-5.258-1.359-8.522-1.359c-12.69,0-19.036,6.951-19.036,20.849v50.581c0,13.9,6.464,20.849,19.4,20.849    c3.866,0,7.098-0.604,9.699-1.813c2.597-1.207,4.47-2.93,5.62-5.167c1.146-2.235,1.932-4.23,2.356-5.983    c0.422-1.75,0.693-3.898,0.815-6.436c0.362-4.955,4.23-7.433,11.603-7.433c4.23,0,7.28,0.815,9.156,2.447    c1.872,1.631,2.811,4.686,2.811,9.156c0,10.877-4.021,19.58-12.057,26.107c-8.039,6.526-18.463,9.79-31.274,9.79    c-12.449,0-22.512-3.354-30.186-10.062c-7.677-6.708-11.513-17.191-11.513-31.455V246.477z M378.056,388.572H129.709    c-8.286,0-15.003-6.717-15.003-15.003c0-8.286,6.717-15.003,15.003-15.003h248.348c8.286,0,15.003,6.717,15.003,15.003    C393.06,381.855,386.342,388.572,378.056,388.572z"/>
	</g>
</g>
<g>
</g>
<g>
</g>
<g>
</g>
<g>
</g>
<g>
</g>
<g>
</g>
<g>
</g>
<g>
</g>
<g>
</g>
<g>
</g>
<g>
</g>
<g>
</g>
<g>
</g>
<g>
</g>
<g>
</g>
</svg>
