<?xml version="1.0" encoding="iso-8859-1"?>
<!-- Generator: Adobe Illustrator 19.0.0, SVG Export Plug-In . SVG Version: 6.00 Build 0)  -->
<svg xmlns="http://www.w3.org/2000/svg" xmlns:xlink="http://www.w3.org/1999/xlink" version="1.1" id="Capa_1" x="0px" y="0px" viewBox="0 0 512 512" style="enable-background:new 0 0 512 512;" xml:space="preserve">
<g>
	<g>
		<path d="M351.828,78.193c-45.206,0-81.982,36.775-81.982,81.981c0,45.204,36.776,81.982,81.982,81.982    s81.981-36.776,81.981-81.982S397.034,78.193,351.828,78.193z M393.691,129.476c-4.64,6.867-13.965,8.671-20.83,4.033    c-5.819-3.932-12.629-6.009-19.691-6.009c-19.431,0-35.238,15.808-35.238,35.239c0,8.285-6.717,15.002-15.002,15.002    c-8.285,0-15.002-6.717-15.002-15.002c0-35.975,29.268-65.243,65.242-65.243c13.073,0,25.69,3.855,36.488,11.151    C396.524,113.285,398.33,122.611,393.691,129.476z"/>
	</g>
</g>
<g>
	<g>
		<path d="M180.57,331.452c-18.542-18.543-48.715-18.545-67.259,0L13.93,430.833C4.947,439.815,0,451.759,0,464.462    c0,12.703,4.947,24.647,13.93,33.63C23.202,507.364,35.381,512,47.559,512c12.179,0,24.358-4.636,33.63-13.908l99.381-99.381    C199.114,380.167,199.114,349.995,180.57,331.452z"/>
	</g>
</g>
<g>
	<g>
		<path d="M351.827,0c-88.32,0-160.172,71.853-160.172,160.172c0,38.775,13.853,74.373,36.864,102.113l-36.242,36.242    c-3.321,3.322-2.892,8.746,0.803,11.646c1.479,1.16,2.903,2.421,4.266,3.783c1.621,1.621,3.097,3.331,4.433,5.116    c2.803,3.747,8.307,4.078,11.616,0.769l36.342-36.342c27.737,23.001,63.327,36.845,102.09,36.845    c88.32,0,160.172-71.853,160.172-160.172S440.147,0,351.827,0z M351.828,272.159c-61.75,0-111.986-50.237-111.986-111.986    S290.079,48.189,351.828,48.189s111.985,50.236,111.985,111.985S413.578,272.159,351.828,272.159z"/>
	</g>
</g>
<g>
</g>
<g>
</g>
<g>
</g>
<g>
</g>
<g>
</g>
<g>
</g>
<g>
</g>
<g>
</g>
<g>
</g>
<g>
</g>
<g>
</g>
<g>
</g>
<g>
</g>
<g>
</g>
<g>
</g>
</svg>
