<?xml version="1.0" encoding="iso-8859-1"?>
<!-- Generator: Adobe Illustrator 19.0.0, SVG Export Plug-In . SVG Version: 6.00 Build 0)  -->
<svg xmlns="http://www.w3.org/2000/svg" xmlns:xlink="http://www.w3.org/1999/xlink" version="1.1" id="Capa_1" x="0px" y="0px" viewBox="0 0 512 512" style="enable-background:new 0 0 512 512;" xml:space="preserve">
<g>
	<g>
		<path d="M472.639,321.168l-106.388,79.96c-1.621,1.218-2.575,3.128-2.575,5.155v16.151c0,5.377,6.194,8.393,10.427,5.076    l106.388-83.364c1.56-1.222,2.471-3.094,2.471-5.076v-12.748C482.962,321.006,476.889,317.973,472.639,321.168z"/>
	</g>
</g>
<g>
	<g>
		<path d="M472.536,388.533l-103.322,80.961c-2.542,1.991-3.238,5.568-1.59,8.343c4.922,8.29,13.961,13.86,24.283,13.86h62.827    c15.591,0,28.23-12.639,28.23-28.23v-69.86C482.962,388.232,476.768,385.216,472.536,388.533z"/>
	</g>
</g>
<g>
	<g>
		<path d="M479.6,271.484c-4.768-8.854-14.124-14.887-24.866-14.887h-62.827c-15.591,0-28.23,12.639-28.23,28.23v67.756    c0,5.317,6.072,8.349,10.323,5.155l103.801-78.016C480.358,277.8,481.117,274.299,479.6,271.484z"/>
	</g>
</g>
<g>
	<g>
		<path d="M324.191,314.703l-106.387,79.959c-1.621,1.218-2.575,3.128-2.575,5.155v16.395c0,5.377,6.194,8.393,10.427,5.076    l106.387-83.364c1.56-1.222,2.471-3.094,2.471-5.076v-12.991C334.515,314.541,328.442,311.508,324.191,314.703z"/>
	</g>
</g>
<g>
	<g>
		<path d="M324.088,382.311l-105.384,82.578c-2.103,1.648-2.988,4.429-2.192,6.978c3.584,11.477,14.305,19.831,26.946,19.831h62.827    c15.591,0,28.23-12.639,28.23-28.23v-76.081C334.515,382.01,328.321,378.994,324.088,382.311z"/>
	</g>
</g>
<g>
	<g>
		<path d="M324.191,246.911L217.804,326.87c-1.621,1.218-2.575,3.128-2.575,5.155v14.091c0,5.317,6.073,8.349,10.323,5.155    l106.387-79.959c1.621-1.218,2.575-3.128,2.575-5.155v-14.091C334.515,246.749,328.442,243.716,324.191,246.911z"/>
	</g>
</g>
<g>
	<g>
		<path d="M333.308,197.232c-3.503-11.608-14.289-20.085-27.023-20.085h-62.827c-15.591,0-28.23,12.639-28.23,28.23v72.947    c0.001,5.317,6.074,8.35,10.325,5.155l105.442-79.249C333.15,202.61,334.087,199.814,333.308,197.232z"/>
	</g>
</g>
<g>
	<g>
		<path d="M173.106,330.436l-106.388,79.96c-1.621,1.218-2.575,3.128-2.575,5.155v13.138c0,5.317,6.073,8.349,10.323,5.155    l106.387-79.959c1.621-1.218,2.575-3.128,2.575-5.155v-13.139C183.429,330.273,177.356,327.241,173.106,330.436z"/>
	</g>
</g>
<g>
	<g>
		<path d="M173.106,397.276L72.408,472.958c-3.027,2.275-3.469,6.672-0.923,9.475c5.166,5.688,12.616,9.265,20.888,9.265h62.827    c15.591,0,28.23-12.639,28.23-28.23v-61.038C183.429,397.113,177.356,394.081,173.106,397.276z"/>
	</g>
</g>
<g>
	<g>
		<path d="M176.542,281.634c-5.178-5.987-12.824-9.782-21.343-9.782H92.373c-15.591,0-28.23,12.639-28.23,28.23v61.768    c0.001,5.317,6.073,8.349,10.325,5.155l101.083-75.973C178.544,288.781,178.993,284.467,176.542,281.634z"/>
	</g>
</g>
<g>
	<g>
		<path d="M508.405,116.076c-0.18-0.387-0.383-0.755-0.592-1.119l-28.847-71.685l-0.288-0.669    c-4.285-9.317-11.947-16.396-21.573-19.933c-9.627-3.537-20.048-3.101-29.347,1.226c-18.846,8.771-27.222,31.129-18.892,50.088    l13.826,37.543l-37.481,15.082l-0.669,0.288c-9.318,4.285-16.396,11.947-19.932,21.573c-3.537,9.627-3.101,20.048,1.226,29.346    c6.472,13.906,20.34,22.112,34.783,22.112c5.21,0,10.495-1.068,15.534-3.321l72.875-29.326l0.669-0.288    c0.193-0.089,0.38-0.188,0.573-0.28c0.01-0.005,0.02-0.008,0.029-0.013c0.006-0.003,0.012-0.007,0.019-0.011    c9.008-4.336,15.855-11.859,19.313-21.269C513.167,135.796,512.733,125.374,508.405,116.076z"/>
	</g>
</g>
<g>
	<g>
		<path d="M384.94,78.905l-6.297-17.099c-0.237-0.541-0.461-1.083-0.672-1.629c-2.317-6.012-6.916-10.862-12.918-13.204    l-57.21-22.325c-0.087-0.034-0.175-0.055-0.262-0.087c-0.258-0.095-0.521-0.18-0.784-0.261c-0.225-0.069-0.449-0.138-0.676-0.196    c-0.228-0.059-0.458-0.107-0.69-0.154c-0.259-0.054-0.518-0.108-0.779-0.148c-0.206-0.032-0.413-0.052-0.621-0.075    c-0.279-0.031-0.557-0.062-0.835-0.077c-0.208-0.011-0.417-0.01-0.627-0.013c-0.27-0.003-0.541-0.008-0.81,0.003    c-0.234,0.01-0.468,0.033-0.702,0.054c-0.24,0.021-0.482,0.04-0.72,0.073c-0.261,0.036-0.521,0.087-0.781,0.137    c-0.211,0.041-0.422,0.078-0.632,0.127c-0.267,0.063-0.533,0.142-0.798,0.221c-0.202,0.06-0.405,0.117-0.605,0.186    c-0.249,0.085-0.495,0.184-0.741,0.283c-0.217,0.087-0.433,0.175-0.647,0.272c-0.215,0.099-0.428,0.208-0.641,0.318    c-0.239,0.124-0.477,0.25-0.71,0.387c-0.083,0.048-0.168,0.086-0.25,0.137L19.056,194.718l-0.169,0.105    c-9.033,5.704-15.568,15.033-17.929,25.596c-2.216,9.916-0.558,19.893,4.673,28.094c7.089,11.114,19.698,17.202,32.621,17.201    c7.35,0,14.804-1.97,21.398-6.105l249.067-152.148L333.37,117c6.085,2.354,12.916,1.985,18.65-1.129    c0.75-0.407,1.517-0.792,2.299-1.152l0.669-0.288l17.27-6.949C383.515,102.952,389.134,90.293,384.94,78.905z"/>
	</g>
</g>
<g>
</g>
<g>
</g>
<g>
</g>
<g>
</g>
<g>
</g>
<g>
</g>
<g>
</g>
<g>
</g>
<g>
</g>
<g>
</g>
<g>
</g>
<g>
</g>
<g>
</g>
<g>
</g>
<g>
</g>
</svg>
