<?xml version="1.0" encoding="iso-8859-1"?>
<!-- Generator: Adobe Illustrator 19.0.0, SVG Export Plug-In . SVG Version: 6.00 Build 0)  -->
<svg xmlns="http://www.w3.org/2000/svg" xmlns:xlink="http://www.w3.org/1999/xlink" version="1.1" id="Capa_1" x="0px" y="0px" viewBox="0 0 512.001 512.001" style="enable-background:new 0 0 512.001 512.001;" xml:space="preserve">
<g>
	<g>
		<path d="M384.618,453.719H129.81c-8.283,0-14.998,6.715-14.998,14.998s6.715,14.998,14.998,14.998h254.808    c8.283,0,14.998-6.715,14.998-14.998S392.901,453.719,384.618,453.719z"/>
	</g>
</g>
<g>
	<g>
		<path d="M221.542,104.239c-28.831,0-52.287,23.456-52.287,52.288c0,28.831,23.456,52.287,52.287,52.287    s52.288-23.456,52.288-52.287C273.83,127.695,250.374,104.239,221.542,104.239z"/>
	</g>
</g>
<g>
	<g>
		<path d="M334.628,266.848l-0.136-0.138l-52.771-54.149c-0.568,0.609-1.138,1.215-1.723,1.807l52.903,54.282    c0.118,0.112,0.387,0.328,0.844,0.328c0.517,0,0.792-0.275,0.882-0.365c0.092-0.091,0.367-0.367,0.367-0.883    C334.994,267.214,334.719,266.939,334.628,266.848z"/>
	</g>
</g>
<g>
	<g>
		<path d="M477.266,28.285H34.733C15.55,28.285,0,43.835,0,63.018v243.068c0,4.245,3.441,7.686,7.686,7.686h496.629    c4.245,0,7.686-3.441,7.686-7.686V63.018C512,43.835,496.449,28.285,477.266,28.285z M355.839,289.825    c-5.899,5.9-13.747,9.151-22.094,9.151c-8.346,0-16.191-3.25-22.094-9.152l-0.136-0.137l-56.531-58.006    c-10.226,4.569-21.537,7.13-33.442,7.13c-45.371,0-82.284-36.913-82.284-82.284c0-45.371,36.912-82.285,82.284-82.285    c45.372,0,82.285,36.913,82.285,82.285c0,10.558-2.021,20.648-5.66,29.931l57.75,59.259c5.852,5.892,9.073,13.706,9.073,22.015    C364.991,276.076,361.74,283.924,355.839,289.825z"/>
	</g>
</g>
<g>
	<g>
		<path d="M504.314,343.769H7.686c-4.245,0-7.686,3.441-7.686,7.686c0,19.183,15.55,34.733,34.733,34.733h151.773v18.174    c0,10.692,8.667,19.359,19.359,19.359h100.267c10.692,0,19.359-8.667,19.359-19.359v-18.174h151.774    c19.183,0,34.733-15.55,34.733-34.733C512,347.21,508.558,343.769,504.314,343.769z"/>
	</g>
</g>
<g>
</g>
<g>
</g>
<g>
</g>
<g>
</g>
<g>
</g>
<g>
</g>
<g>
</g>
<g>
</g>
<g>
</g>
<g>
</g>
<g>
</g>
<g>
</g>
<g>
</g>
<g>
</g>
<g>
</g>
</svg>
