<?xml version="1.0" encoding="iso-8859-1"?>
<!-- Generator: Adobe Illustrator 19.0.0, SVG Export Plug-In . SVG Version: 6.00 Build 0)  -->
<svg version="1.1" id="Capa_1" xmlns="http://www.w3.org/2000/svg" xmlns:xlink="http://www.w3.org/1999/xlink" x="0px" y="0px"
	 viewBox="0 0 60 60" style="enable-background:new 0 0 60 60;" xml:space="preserve">
<g>
	<path d="M7,3C4.794,3,3,4.794,3,7s1.794,4,4,4s4-1.794,4-4S9.206,3,7,3z M7,9C5.897,9,5,8.103,5,7s0.897-2,2-2s2,0.897,2,2
		S8.103,9,7,9z"/>
	<path d="M16,3c-2.206,0-4,1.794-4,4s1.794,4,4,4s4-1.794,4-4S18.206,3,16,3z M16,9c-1.103,0-2-0.897-2-2s0.897-2,2-2s2,0.897,2,2
		S17.103,9,16,9z"/>
	<path d="M25,3c-2.206,0-4,1.794-4,4s1.794,4,4,4s4-1.794,4-4S27.206,3,25,3z M25,9c-1.103,0-2-0.897-2-2s0.897-2,2-2s2,0.897,2,2
		S26.103,9,25,9z"/>
	<path d="M0,0v12v2v46h60V14v-2V0H0z M16,27v-8h25v8H16z M41,30v8H16v-8H41z M12,43H7c-0.553,0-1-0.447-1-1s0.447-1,1-1h5
		c0.553,0,1,0.447,1,1S12.553,43,12,43z M12,32H7c-0.553,0-1-0.447-1-1s0.447-1,1-1h5c0.553,0,1,0.447,1,1S12.553,32,12,32z M12,21
		H7c-0.553,0-1-0.447-1-1s0.447-1,1-1h5c0.553,0,1,0.447,1,1S12.553,21,12,21z M53,53H16V41h37V53z M2,12V2h56v10H2z"/>
	<rect x="18" y="32" width="21" height="4"/>
	<rect x="18" y="43" width="33" height="8"/>
	<rect x="18" y="21" width="21" height="4"/>
</g>
<g>
</g>
<g>
</g>
<g>
</g>
<g>
</g>
<g>
</g>
<g>
</g>
<g>
</g>
<g>
</g>
<g>
</g>
<g>
</g>
<g>
</g>
<g>
</g>
<g>
</g>
<g>
</g>
<g>
</g>
</svg>
