<?xml version="1.0" encoding="iso-8859-1"?>
<!-- Generator: Adobe Illustrator 19.0.0, SVG Export Plug-In . SVG Version: 6.00 Build 0)  -->
<svg version="1.1" id="Capa_1" xmlns="http://www.w3.org/2000/svg" xmlns:xlink="http://www.w3.org/1999/xlink" x="0px" y="0px"
	 viewBox="0 0 60 60" style="enable-background:new 0 0 60 60;" xml:space="preserve">
<g>
	<path d="M7,11c2.206,0,4-1.794,4-4S9.206,3,7,3S3,4.794,3,7S4.794,11,7,11z M7,5c1.103,0,2,0.897,2,2S8.103,9,7,9S5,8.103,5,7
		S5.897,5,7,5z"/>
	<path d="M16,11c2.206,0,4-1.794,4-4s-1.794-4-4-4s-4,1.794-4,4S13.794,11,16,11z M16,5c1.103,0,2,0.897,2,2s-0.897,2-2,2
		s-2-0.897-2-2S14.897,5,16,5z"/>
	<path d="M25,11c2.206,0,4-1.794,4-4s-1.794-4-4-4s-4,1.794-4,4S22.794,11,25,11z M25,5c1.103,0,2,0.897,2,2s-0.897,2-2,2
		s-2-0.897-2-2S23.897,5,25,5z"/>
	<path d="M0,0v12v2v46h60V14v-2V0H0z M14,52H8c-0.552,0-1-0.447-1-1s0.448-1,1-1h6c0.552,0,1,0.447,1,1S14.552,52,14,52z M27,52h-9
		c-0.552,0-1-0.447-1-1s0.448-1,1-1h9c0.552,0,1,0.447,1,1S27.552,52,27,52z M29,47H8c-0.552,0-1-0.447-1-1s0.448-1,1-1h21
		c0.552,0,1,0.447,1,1S29.552,47,29,47z M8,35h21c0.552,0,1,0.447,1,1s-0.448,1-1,1H8c-0.552,0-1-0.447-1-1S7.448,35,8,35z M7,23
		c0-2.757,2.243-5,5-5s5,2.243,5,5s-2.243,5-5,5S7,25.757,7,23z M28,41c0,0.553-0.448,1-1,1h-9c-0.552,0-1-0.447-1-1s0.448-1,1-1h9
		C27.552,40,28,40.447,28,41z M8,40h6c0.552,0,1,0.447,1,1s-0.448,1-1,1H8c-0.552,0-1-0.447-1-1S7.448,40,8,40z M52,52H31
		c-0.552,0-1-0.447-1-1s0.448-1,1-1h21c0.552,0,1,0.447,1,1S52.552,52,52,52z M32,46c0-0.553,0.448-1,1-1h9c0.552,0,1,0.447,1,1
		s-0.448,1-1,1h-9C32.448,47,32,46.553,32,46z M52,47h-6c-0.552,0-1-0.447-1-1s0.448-1,1-1h6c0.552,0,1,0.447,1,1S52.552,47,52,47z
		 M52,42H31c-0.552,0-1-0.447-1-1s0.448-1,1-1h21c0.552,0,1,0.447,1,1S52.552,42,52,42z M32,36c0-0.553,0.448-1,1-1h9
		c0.552,0,1,0.447,1,1s-0.448,1-1,1h-9C32.448,37,32,36.553,32,36z M52,37h-6c-0.552,0-1-0.447-1-1s0.448-1,1-1h6
		c0.552,0,1,0.447,1,1S52.552,37,52,37z M52,27h-5c-0.552,0-1-0.447-1-1s0.448-1,1-1h5c0.552,0,1,0.447,1,1S52.552,27,52,27z M52,24
		h-5c-0.552,0-1-0.447-1-1s0.448-1,1-1h5c0.552,0,1,0.447,1,1S52.552,24,52,24z M52,21h-5c-0.552,0-1-0.447-1-1s0.448-1,1-1h5
		c0.552,0,1,0.447,1,1S52.552,21,52,21z M58,12H2V2h56V12z"/>
</g>
<g>
</g>
<g>
</g>
<g>
</g>
<g>
</g>
<g>
</g>
<g>
</g>
<g>
</g>
<g>
</g>
<g>
</g>
<g>
</g>
<g>
</g>
<g>
</g>
<g>
</g>
<g>
</g>
<g>
</g>
</svg>
