<?xml version="1.0" encoding="iso-8859-1"?>
<!-- Generator: Adobe Illustrator 19.0.0, SVG Export Plug-In . SVG Version: 6.00 Build 0)  -->
<svg version="1.1" id="Capa_1" xmlns="http://www.w3.org/2000/svg" xmlns:xlink="http://www.w3.org/1999/xlink" x="0px" y="0px"
	 viewBox="0 0 60 60" style="enable-background:new 0 0 60 60;" xml:space="preserve">
<g>
	<path d="M11,7c0-2.206-1.794-4-4-4S3,4.794,3,7s1.794,4,4,4S11,9.206,11,7z M5,7c0-1.103,0.897-2,2-2s2,0.897,2,2S8.103,9,7,9
		S5,8.103,5,7z"/>
	<path d="M16,11c2.206,0,4-1.794,4-4s-1.794-4-4-4s-4,1.794-4,4S13.794,11,16,11z M16,5c1.103,0,2,0.897,2,2s-0.897,2-2,2
		s-2-0.897-2-2S14.897,5,16,5z"/>
	<path d="M25,11c2.206,0,4-1.794,4-4s-1.794-4-4-4s-4,1.794-4,4S22.794,11,25,11z M25,5c1.103,0,2,0.897,2,2s-0.897,2-2,2
		s-2-0.897-2-2S23.897,5,25,5z"/>
	<path d="M0,0v12h2V2h56v10H47v2c0,0.553-0.447,1-1,1s-1-0.447-1-1v-2h-3.308h-1.654H36.73h-1.654h-3.308h-1.653h-3.308h-1.654
		h-3.308h-1.653h-3.308H15.23h-3.308H10.27H6.962H5.308H2v2c0,0.553-0.447,1-1,1s-1-0.447-1-1v3.647c0-0.553,0.447-1,1-1
		s1,0.447,1,1v1.823c0,0.553-0.447,1-1,1s-1-0.447-1-1v3.647c0-0.553,0.447-1,1-1s1,0.447,1,1v1.823c0,0.553-0.447,1-1,1
		s-1-0.447-1-1v3.647c0-0.553,0.447-1,1-1s1,0.447,1,1v1.823c0,0.553-0.447,1-1,1s-1-0.447-1-1v3.646c0-0.553,0.447-1,1-1
		s1,0.447,1,1v1.823c0,0.553-0.447,1-1,1s-1-0.447-1-1v3.647c0-0.553,0.447-1,1-1s1,0.447,1,1v1.823c0,0.553-0.447,1-1,1
		s-1-0.447-1-1V45c0-0.553,0.447-1,1-1s1,0.447,1,1c0.553,0,1,0.447,1,1s-0.447,1-1,1H0v13h60V14v-2V0H0z M6.962,47H5.308
		c-0.553,0-1-0.447-1-1s0.447-1,1-1h1.654c0.553,0,1,0.447,1,1S7.515,47,6.962,47z M11.924,47H10.27c-0.553,0-1-0.447-1-1
		s0.447-1,1-1h1.654c0.553,0,1,0.447,1,1S12.477,47,11.924,47z M16.885,47h-1.653c-0.553,0-1-0.447-1-1s0.447-1,1-1h1.653
		c0.553,0,1,0.447,1,1S17.438,47,16.885,47z M21.847,47h-1.654c-0.553,0-1-0.447-1-1s0.447-1,1-1h1.654c0.553,0,1,0.447,1,1
		S22.399,47,21.847,47z M26.808,47h-1.653c-0.553,0-1-0.447-1-1s0.447-1,1-1h1.653c0.553,0,1,0.447,1,1S27.36,47,26.808,47z
		 M31.77,47h-1.654c-0.553,0-1-0.447-1-1s0.447-1,1-1h1.654c0.553,0,1,0.447,1,1S32.322,47,31.77,47z M36.73,47h-1.653
		c-0.553,0-1-0.447-1-1s0.447-1,1-1h1.653c0.553,0,1,0.447,1,1S37.283,47,36.73,47z M41.692,47h-1.654c-0.553,0-1-0.447-1-1
		s0.447-1,1-1h1.654c0.553,0,1,0.447,1,1S42.245,47,41.692,47z M47,47h-2c-0.553,0-1-0.447-1-1s0.447-1,1-1c0-0.553,0.447-1,1-1
		s1,0.447,1,1V47z M47,41.353c0,0.553-0.447,1-1,1s-1-0.447-1-1v-1.823c0-0.553,0.447-1,1-1s1,0.447,1,1V41.353z M47,35.882
		c0,0.553-0.447,1-1,1s-1-0.447-1-1v-1.823c0-0.553,0.447-1,1-1s1,0.447,1,1V35.882z M47,30.411c0,0.553-0.447,1-1,1s-1-0.447-1-1
		v-1.823c0-0.553,0.447-1,1-1s1,0.447,1,1V30.411z M47,24.941c0,0.553-0.447,1-1,1s-1-0.447-1-1v-1.823c0-0.553,0.447-1,1-1
		s1,0.447,1,1V24.941z M47,19.471c0,0.553-0.447,1-1,1s-1-0.447-1-1v-1.823c0-0.553,0.447-1,1-1s1,0.447,1,1V19.471z"/>
</g>
<g>
</g>
<g>
</g>
<g>
</g>
<g>
</g>
<g>
</g>
<g>
</g>
<g>
</g>
<g>
</g>
<g>
</g>
<g>
</g>
<g>
</g>
<g>
</g>
<g>
</g>
<g>
</g>
<g>
</g>
</svg>
