<?xml version="1.0" encoding="iso-8859-1"?>
<!-- Generator: Adobe Illustrator 19.0.0, SVG Export Plug-In . SVG Version: 6.00 Build 0)  -->
<svg version="1.1" id="Capa_1" xmlns="http://www.w3.org/2000/svg" xmlns:xlink="http://www.w3.org/1999/xlink" x="0px" y="0px"
	 viewBox="0 0 60 60" style="enable-background:new 0 0 60 60;" xml:space="preserve">
<g>
	<circle cx="7" cy="7" r="2"/>
	<circle cx="13" cy="7" r="2"/>
	<circle cx="19" cy="7" r="2"/>
	<path d="M0,0v12v2v5h51v-5v-2h-9.231l-1.118-4.21C40.094,6.121,38.539,5,36.78,5h-6.56c-1.759,0-3.314,1.121-3.889,2.851L25.231,12
		H2V2h56v10h-5v2v5h7v-5v-2V0H0z M28.247,8.423C28.53,7.572,29.323,7,30.22,7h6.56c0.897,0,1.69,0.572,1.956,1.363L39.7,12H27.299
		L28.247,8.423z"/>
	<path d="M46,11c0.552,0,1-0.447,1-1V9h1c0.552,0,1-0.447,1-1s-0.448-1-1-1h-1V6c0-0.553-0.448-1-1-1s-1,0.447-1,1v1h-1
		c-0.552,0-1,0.447-1,1s0.448,1,1,1h1v1C45,10.553,45.448,11,46,11z"/>
	<rect x="18" y="29" width="24" height="4"/>
	<path d="M53,30h-2v-9H0v39h60V21h-7V30z M28,42h-9c-0.552,0-1-0.447-1-1s0.448-1,1-1h9c0.552,0,1,0.447,1,1S28.552,42,28,42z
		 M32.71,41.71C32.52,41.89,32.26,42,32,42c-0.26,0-0.52-0.11-0.71-0.29C31.11,41.52,31,41.26,31,41s0.11-0.521,0.29-0.71
		c0.38-0.37,1.05-0.37,1.42,0C32.89,40.479,33,40.74,33,41S32.89,41.52,32.71,41.71z M39,42h-3c-0.552,0-1-0.447-1-1s0.448-1,1-1h3
		c0.552,0,1,0.447,1,1S39.552,42,39,42z M44,35H16v-8h28V35z"/>
</g>
<g>
</g>
<g>
</g>
<g>
</g>
<g>
</g>
<g>
</g>
<g>
</g>
<g>
</g>
<g>
</g>
<g>
</g>
<g>
</g>
<g>
</g>
<g>
</g>
<g>
</g>
<g>
</g>
<g>
</g>
</svg>
