<?xml version="1.0" encoding="iso-8859-1"?>
<!-- Generator: Adobe Illustrator 19.0.0, SVG Export Plug-In . SVG Version: 6.00 Build 0)  -->
<svg version="1.1" id="Capa_1" xmlns="http://www.w3.org/2000/svg" xmlns:xlink="http://www.w3.org/1999/xlink" x="0px" y="0px"
	 viewBox="0 0 60 60" style="enable-background:new 0 0 60 60;" xml:space="preserve">
<g>
	<path d="M7.5,3c-2.206,0-4,1.794-4,4s1.794,4,4,4s4-1.794,4-4S9.706,3,7.5,3z M7.5,9c-1.103,0-2-0.897-2-2s0.897-2,2-2s2,0.897,2,2
		S8.603,9,7.5,9z"/>
	<path d="M16.5,3c-2.206,0-4,1.794-4,4s1.794,4,4,4s4-1.794,4-4S18.706,3,16.5,3z M16.5,9c-1.103,0-2-0.897-2-2s0.897-2,2-2
		s2,0.897,2,2S17.603,9,16.5,9z"/>
	<path d="M25.5,3c-2.206,0-4,1.794-4,4s1.794,4,4,4s4-1.794,4-4S27.706,3,25.5,3z M25.5,9c-1.103,0-2-0.897-2-2s0.897-2,2-2
		s2,0.897,2,2S26.603,9,25.5,9z"/>
	<path d="M0.5,0v12v2v46h59V14v-2V0H0.5z M19.5,56h-15V44h15V56z M19.5,42h-15V30h15V42z M19.5,28h-15V16h15V28z M37.5,56h-15V44h15
		V56z M37.5,42h-15V30h15V42z M37.5,28h-15V16h15V28z M55.5,56h-15V44h15V56z M55.5,42h-15V30h15V42z M55.5,28h-15V16h15V28z
		 M2.5,12V2h55v10H2.5z"/>
	<rect x="6.5" y="18" width="11" height="8"/>
	<rect x="42.5" y="46" width="11" height="8"/>
	<rect x="24.5" y="32" width="11" height="8"/>
	<rect x="24.5" y="46" width="11" height="8"/>
	<rect x="6.5" y="32" width="11" height="8"/>
	<rect x="24.5" y="18" width="11" height="8"/>
	<rect x="42.5" y="32" width="11" height="8"/>
	<rect x="6.5" y="46" width="11" height="8"/>
	<rect x="42.5" y="18" width="11" height="8"/>
</g>
<g>
</g>
<g>
</g>
<g>
</g>
<g>
</g>
<g>
</g>
<g>
</g>
<g>
</g>
<g>
</g>
<g>
</g>
<g>
</g>
<g>
</g>
<g>
</g>
<g>
</g>
<g>
</g>
<g>
</g>
</svg>
