<?xml version="1.0" encoding="iso-8859-1"?>
<!-- Generator: Adobe Illustrator 19.0.0, SVG Export Plug-In . SVG Version: 6.00 Build 0)  -->
<svg version="1.1" id="Capa_1" xmlns="http://www.w3.org/2000/svg" xmlns:xlink="http://www.w3.org/1999/xlink" x="0px" y="0px"
	 viewBox="0 0 60 60" style="enable-background:new 0 0 60 60;" xml:space="preserve">
<g>
	<path d="M7,3C4.794,3,3,4.794,3,7s1.794,4,4,4s4-1.794,4-4S9.206,3,7,3z M7,9C5.897,9,5,8.103,5,7s0.897-2,2-2s2,0.897,2,2
		S8.103,9,7,9z"/>
	<path d="M16,3c-2.206,0-4,1.794-4,4s1.794,4,4,4s4-1.794,4-4S18.206,3,16,3z M16,9c-1.103,0-2-0.897-2-2s0.897-2,2-2s2,0.897,2,2
		S17.103,9,16,9z"/>
	<path d="M25,3c-2.206,0-4,1.794-4,4s1.794,4,4,4s4-1.794,4-4S27.206,3,25,3z M25,9c-1.103,0-2-0.897-2-2s0.897-2,2-2s2,0.897,2,2
		S26.103,9,25,9z"/>
	<path d="M0,0v12v2v46h60V14v-2V0H0z M41,53H17c-0.552,0-1-0.447-1-1s0.448-1,1-1h24c0.552,0,1,0.447,1,1S41.552,53,41,53z M22,48
		c0-0.553,0.448-1,1-1h13c0.552,0,1,0.447,1,1s-0.448,1-1,1H23C22.448,49,22,48.553,22,48z M30,44c-7.168,0-13-5.832-13-13
		s5.832-13,13-13s13,5.832,13,13S37.168,44,30,44z M2,12V2h56v10H2z"/>
	<path d="M30,20c-6.065,0-11,4.935-11,11s4.935,11,11,11s11-4.935,11-11S36.065,20,30,20z M35.707,31.707
		C35.512,31.902,35.256,32,35,32s-0.512-0.098-0.707-0.293L31,28.414V36c0,0.553-0.448,1-1,1s-1-0.447-1-1v-7.586l-3.293,3.293
		C25.512,31.902,25.256,32,25,32s-0.512-0.098-0.707-0.293c-0.391-0.391-0.391-1.023,0-1.414l4.999-4.999
		c0.092-0.093,0.203-0.166,0.326-0.217c0.244-0.101,0.52-0.101,0.764,0c0.123,0.051,0.233,0.124,0.326,0.217l4.999,4.999
		C36.098,30.684,36.098,31.316,35.707,31.707z"/>
</g>
<g>
</g>
<g>
</g>
<g>
</g>
<g>
</g>
<g>
</g>
<g>
</g>
<g>
</g>
<g>
</g>
<g>
</g>
<g>
</g>
<g>
</g>
<g>
</g>
<g>
</g>
<g>
</g>
<g>
</g>
</svg>
