<?xml version="1.0" encoding="iso-8859-1"?>
<!-- Generator: Adobe Illustrator 19.0.0, SVG Export Plug-In . SVG Version: 6.00 Build 0)  -->
<svg version="1.1" id="Capa_1" xmlns="http://www.w3.org/2000/svg" xmlns:xlink="http://www.w3.org/1999/xlink" x="0px" y="0px"
	 viewBox="0 0 60 60" style="enable-background:new 0 0 60 60;" xml:space="preserve">
<g>
	<path d="M7,3C4.794,3,3,4.794,3,7s1.794,4,4,4s4-1.794,4-4S9.206,3,7,3z M7,9C5.897,9,5,8.103,5,7s0.897-2,2-2s2,0.897,2,2
		S8.103,9,7,9z"/>
	<path d="M16,3c-2.206,0-4,1.794-4,4s1.794,4,4,4s4-1.794,4-4S18.206,3,16,3z M16,9c-1.103,0-2-0.897-2-2s0.897-2,2-2s2,0.897,2,2
		S17.103,9,16,9z"/>
	<path d="M25,3c-2.206,0-4,1.794-4,4s1.794,4,4,4s4-1.794,4-4S27.206,3,25,3z M25,9c-1.103,0-2-0.897-2-2s0.897-2,2-2s2,0.897,2,2
		S26.103,9,25,9z"/>
	<path d="M0,0v12v2v46h60V14v-2V0H0z M55,55H5V17h50V55z M2,12V2h56v10H2z"/>
	<path d="M53,19H7v34h46V19z M30,29h3c0.552,0,1,0.448,1,1s-0.448,1-1,1h-3c-0.552,0-1-0.448-1-1S29.448,29,30,29z M25.29,29.29
		c0.38-0.37,1.05-0.37,1.42,0C26.89,29.48,27,29.74,27,30c0,0.26-0.11,0.52-0.29,0.71C26.52,30.89,26.26,31,26,31
		c-0.26,0-0.52-0.11-0.71-0.29C25.11,30.52,25,30.26,25,30C25,29.74,25.11,29.48,25.29,29.29z M13,29h9c0.552,0,1,0.448,1,1
		s-0.448,1-1,1h-9c-0.552,0-1-0.448-1-1S12.448,29,13,29z M45,43H13c-0.552,0-1-0.448-1-1s0.448-1,1-1h32c0.552,0,1,0.448,1,1
		S45.552,43,45,43z M45,37H13c-0.552,0-1-0.448-1-1s0.448-1,1-1h32c0.552,0,1,0.448,1,1S45.552,37,45,37z"/>
</g>
<g>
</g>
<g>
</g>
<g>
</g>
<g>
</g>
<g>
</g>
<g>
</g>
<g>
</g>
<g>
</g>
<g>
</g>
<g>
</g>
<g>
</g>
<g>
</g>
<g>
</g>
<g>
</g>
<g>
</g>
</svg>
