<?xml version="1.0" encoding="iso-8859-1"?>
<!-- Generator: Adobe Illustrator 19.0.0, SVG Export Plug-In . SVG Version: 6.00 Build 0)  -->
<svg version="1.1" id="Capa_1" xmlns="http://www.w3.org/2000/svg" xmlns:xlink="http://www.w3.org/1999/xlink" x="0px" y="0px"
	 viewBox="0 0 60 60" style="enable-background:new 0 0 60 60;" xml:space="preserve">
<g>
	<circle cx="7" cy="7" r="2"/>
	<circle cx="13" cy="7" r="2"/>
	<circle cx="19" cy="7" r="2"/>
	<path d="M0,0v12v2v46h60V14v-2V0H0z M20,48H6v-8h14V48z M20,37H6v-8h14V37z M20,26H6v-8h14V26z M37,48H23v-8h14V48z M37,37H23v-8
		h14V37z M37,26H23v-8h14V26z M27.299,12l0.947-3.577C28.53,7.572,29.323,7,30.22,7h6.56c0.897,0,1.69,0.572,1.956,1.363L39.7,12
		H27.299z M54,48H40v-8h14V48z M54,37H40v-8h14V37z M54,26H40v-8h14V26z M58,12H41.769l-1.118-4.21C40.094,6.121,38.539,5,36.78,5
		h-6.56c-1.759,0-3.314,1.121-3.889,2.851L25.231,12H2V2h56V12z"/>
	<path d="M44,9h1v1c0,0.553,0.448,1,1,1s1-0.447,1-1V9h1c0.552,0,1-0.447,1-1s-0.448-1-1-1h-1V6c0-0.553-0.448-1-1-1s-1,0.447-1,1v1
		h-1c-0.552,0-1,0.447-1,1S43.448,9,44,9z"/>
	<rect x="8" y="20" width="10" height="4"/>
	<rect x="42" y="42" width="10" height="4"/>
	<rect x="25" y="31" width="10" height="4"/>
	<rect x="25" y="20" width="10" height="4"/>
	<rect x="8" y="31" width="10" height="4"/>
	<rect x="42" y="31" width="10" height="4"/>
	<rect x="8" y="42" width="10" height="4"/>
	<rect x="25" y="42" width="10" height="4"/>
	<rect x="42" y="20" width="10" height="4"/>
</g>
<g>
</g>
<g>
</g>
<g>
</g>
<g>
</g>
<g>
</g>
<g>
</g>
<g>
</g>
<g>
</g>
<g>
</g>
<g>
</g>
<g>
</g>
<g>
</g>
<g>
</g>
<g>
</g>
<g>
</g>
</svg>
