<?xml version="1.0" encoding="iso-8859-1"?>
<!-- Generator: Adobe Illustrator 19.0.0, SVG Export Plug-In . SVG Version: 6.00 Build 0)  -->
<svg version="1.1" id="Capa_1" xmlns="http://www.w3.org/2000/svg" xmlns:xlink="http://www.w3.org/1999/xlink" x="0px" y="0px"
	 viewBox="0 0 60 60" style="enable-background:new 0 0 60 60;" xml:space="preserve">
<g>
	<path d="M7,3C4.794,3,3,4.794,3,7s1.794,4,4,4s4-1.794,4-4S9.206,3,7,3z M7,9C5.897,9,5,8.103,5,7s0.897-2,2-2s2,0.897,2,2
		S8.103,9,7,9z"/>
	<path d="M16,3c-2.206,0-4,1.794-4,4s1.794,4,4,4s4-1.794,4-4S18.206,3,16,3z M16,9c-1.103,0-2-0.897-2-2s0.897-2,2-2s2,0.897,2,2
		S17.103,9,16,9z"/>
	<path d="M25,3c-2.206,0-4,1.794-4,4s1.794,4,4,4s4-1.794,4-4S27.206,3,25,3z M25,9c-1.103,0-2-0.897-2-2s0.897-2,2-2s2,0.897,2,2
		S26.103,9,25,9z"/>
	<path d="M0,0v12v2v46h60V14v-2V0H0z M38,21c0,0.553-0.447,1-1,1h-2c-0.553,0-1-0.447-1-1s0.447-1,1-1h2C37.553,20,38,20.447,38,21z
		 M32,21c0,0.553-0.447,1-1,1h-2c-0.553,0-1-0.447-1-1s0.447-1,1-1h2C31.553,20,32,20.447,32,21z M26,21c0,0.553-0.447,1-1,1h-2
		c-0.553,0-1-0.447-1-1s0.447-1,1-1h2C25.553,20,26,20.447,26,21z M11,50c0,0.553-0.447,1-1,1s-1-0.447-1-1v-2c0-0.553,0.447-1,1-1
		s1,0.447,1,1V50z M11,44c0,0.553-0.447,1-1,1s-1-0.447-1-1v-2c0-0.553,0.447-1,1-1s1,0.447,1,1V44z M11,38c0,0.553-0.447,1-1,1
		s-1-0.447-1-1v-2c0-0.553,0.447-1,1-1s1,0.447,1,1V38z M11,32c0,0.553-0.447,1-1,1s-1-0.447-1-1v-2c0-0.553,0.447-1,1-1
		s1,0.447,1,1V32z M11,26c0,0.553-0.447,1-1,1s-1-0.447-1-1v-2c0-0.553,0.447-1,1-1s1,0.447,1,1V26z M10,21c0-0.553,0.447-1,1-1h2
		c0.553,0,1,0.447,1,1s-0.447,1-1,1h-2C10.447,22,10,21.553,10,21z M15,52h-2c-0.553,0-1-0.447-1-1s0.447-1,1-1h2
		c0.553,0,1,0.447,1,1S15.553,52,15,52z M16,21c0-0.553,0.447-1,1-1h2c0.553,0,1,0.447,1,1s-0.447,1-1,1h-2
		C16.447,22,16,21.553,16,21z M21,52h-2c-0.553,0-1-0.447-1-1s0.447-1,1-1h2c0.553,0,1,0.447,1,1S21.553,52,21,52z M27,52h-2
		c-0.553,0-1-0.447-1-1s0.447-1,1-1h2c0.553,0,1,0.447,1,1S27.553,52,27,52z M29,44v-7h-7c-0.553,0-1-0.447-1-1s0.447-1,1-1h7v-7
		c0-0.553,0.447-1,1-1s1,0.447,1,1v7h7c0.553,0,1,0.447,1,1s-0.447,1-1,1h-7v7c0,0.553-0.447,1-1,1S29,44.553,29,44z M33,52h-2
		c-0.553,0-1-0.447-1-1s0.447-1,1-1h2c0.553,0,1,0.447,1,1S33.553,52,33,52z M39,52h-2c-0.553,0-1-0.447-1-1s0.447-1,1-1h2
		c0.553,0,1,0.447,1,1S39.553,52,39,52z M40,21c0-0.553,0.447-1,1-1h2c0.553,0,1,0.447,1,1s-0.447,1-1,1h-2
		C40.447,22,40,21.553,40,21z M45,52h-2c-0.553,0-1-0.447-1-1s0.447-1,1-1h2c0.553,0,1,0.447,1,1S45.553,52,45,52z M46,21
		c0-0.553,0.447-1,1-1h2c0.553,0,1,0.447,1,1s-0.447,1-1,1h-2C46.447,22,46,21.553,46,21z M52,49v2c0,0.553-0.447,1-1,1h-2
		c-0.553,0-1-0.447-1-1s0.447-1,1-1h1v-1v-2c0-0.553,0.447-1,1-1s1,0.447,1,1V49z M52,43c0,0.553-0.447,1-1,1s-1-0.447-1-1v-2
		c0-0.553,0.447-1,1-1s1,0.447,1,1V43z M52,37c0,0.553-0.447,1-1,1s-1-0.447-1-1v-2c0-0.553,0.447-1,1-1s1,0.447,1,1V37z M52,31
		c0,0.553-0.447,1-1,1s-1-0.447-1-1v-2c0-0.553,0.447-1,1-1s1,0.447,1,1V31z M52,25c0,0.553-0.447,1-1,1s-1-0.447-1-1v-2
		c0-0.553,0.447-1,1-1s1,0.447,1,1V25z M2,12V2h56v10H2z"/>
</g>
<g>
</g>
<g>
</g>
<g>
</g>
<g>
</g>
<g>
</g>
<g>
</g>
<g>
</g>
<g>
</g>
<g>
</g>
<g>
</g>
<g>
</g>
<g>
</g>
<g>
</g>
<g>
</g>
<g>
</g>
</svg>
