<?xml version="1.0" encoding="iso-8859-1"?>
<!-- Generator: Adobe Illustrator 19.0.0, SVG Export Plug-In . SVG Version: 6.00 Build 0)  -->
<svg version="1.1" id="Capa_1" xmlns="http://www.w3.org/2000/svg" xmlns:xlink="http://www.w3.org/1999/xlink" x="0px" y="0px"
	 viewBox="0 0 60 60" style="enable-background:new 0 0 60 60;" xml:space="preserve">
<g>
	<path d="M7,3C4.794,3,3,4.794,3,7s1.794,4,4,4s4-1.794,4-4S9.206,3,7,3z M7,9C5.897,9,5,8.103,5,7s0.897-2,2-2s2,0.897,2,2
		S8.103,9,7,9z"/>
	<path d="M16,3c-2.206,0-4,1.794-4,4s1.794,4,4,4s4-1.794,4-4S18.206,3,16,3z M16,9c-1.103,0-2-0.897-2-2s0.897-2,2-2s2,0.897,2,2
		S17.103,9,16,9z"/>
	<path d="M25,3c-2.206,0-4,1.794-4,4s1.794,4,4,4s4-1.794,4-4S27.206,3,25,3z M25,9c-1.103,0-2-0.897-2-2s0.897-2,2-2s2,0.897,2,2
		S26.103,9,25,9z"/>
	<path d="M0,0v12v2v46h60V14v-2V0H0z M19,54H5c-0.553,0-1-0.447-1-1s0.447-1,1-1h14c0.553,0,1,0.447,1,1S19.553,54,19,54z M19,51H5
		c-0.553,0-1-0.447-1-1s0.447-1,1-1h14c0.553,0,1,0.447,1,1S19.553,51,19,51z M20,28v15H4V28v-7h16V28z M37,54H23
		c-0.553,0-1-0.447-1-1s0.447-1,1-1h14c0.553,0,1,0.447,1,1S37.553,54,37,54z M37,51H23c-0.553,0-1-0.447-1-1s0.447-1,1-1h14
		c0.553,0,1,0.447,1,1S37.553,51,37,51z M38,24v23H22V24v-7h16V24z M55,54H41c-0.553,0-1-0.447-1-1s0.447-1,1-1h14
		c0.553,0,1,0.447,1,1S55.553,54,55,54z M55,51H41c-0.553,0-1-0.447-1-1s0.447-1,1-1h14c0.553,0,1,0.447,1,1S55.553,51,55,51z
		 M56,28v15H40V28v-7h16V28z M2,12V2h56v10H2z"/>
	<rect x="6" y="23" width="12" height="3"/>
	<rect x="27" y="40" width="6" height="2"/>
	<path d="M36,24H24v21h12V24z M35,44H25v-6h10V44z"/>
	<rect x="24" y="19" width="12" height="3"/>
	<rect x="9" y="36" width="6" height="2"/>
	<path d="M18,28H6v13h12V28z M17,40H7v-6h10V40z"/>
	<rect x="42" y="23" width="12" height="3"/>
	<rect x="45" y="36" width="6" height="2"/>
	<path d="M54,28H42v13h12V28z M53,40H43v-6h10V40z"/>
</g>
<g>
</g>
<g>
</g>
<g>
</g>
<g>
</g>
<g>
</g>
<g>
</g>
<g>
</g>
<g>
</g>
<g>
</g>
<g>
</g>
<g>
</g>
<g>
</g>
<g>
</g>
<g>
</g>
<g>
</g>
</svg>
