<?xml version="1.0" encoding="iso-8859-1"?>
<!-- Generator: Adobe Illustrator 19.0.0, SVG Export Plug-In . SVG Version: 6.00 Build 0)  -->
<svg version="1.1" id="Capa_1" xmlns="http://www.w3.org/2000/svg" xmlns:xlink="http://www.w3.org/1999/xlink" x="0px" y="0px"
	 viewBox="0 0 60 60" style="enable-background:new 0 0 60 60;" xml:space="preserve">
<g>
	<path d="M7,3C4.794,3,3,4.794,3,7s1.794,4,4,4s4-1.794,4-4S9.206,3,7,3z M7,9C5.897,9,5,8.103,5,7s0.897-2,2-2s2,0.897,2,2
		S8.103,9,7,9z"/>
	<path d="M16,3c-2.206,0-4,1.794-4,4s1.794,4,4,4s4-1.794,4-4S18.206,3,16,3z M16,9c-1.103,0-2-0.897-2-2s0.897-2,2-2s2,0.897,2,2
		S17.103,9,16,9z"/>
	<path d="M25,3c-2.206,0-4,1.794-4,4s1.794,4,4,4s4-1.794,4-4S27.206,3,25,3z M25,9c-1.103,0-2-0.897-2-2s0.897-2,2-2s2,0.897,2,2
		S26.103,9,25,9z"/>
	<path d="M0,0v12v2v46h60V14v-2V0H0z M55,55H5V17h50V55z M2,12V2h56v10H2z"/>
	<path d="M53,19H7v34h46V19z M25,25h10c0.552,0,1,0.448,1,1s-0.448,1-1,1H25c-0.552,0-1-0.448-1-1S24.448,25,25,25z M15.121,39.293
		c0.391,0.391,0.391,1.023,0,1.414C14.926,40.902,14.67,41,14.414,41s-0.512-0.098-0.707-0.293L9,36l4.707-4.707
		c0.391-0.391,1.023-0.391,1.414,0s0.391,1.023,0,1.414L11.828,36L15.121,39.293z M40,47H20c-0.552,0-1-0.448-1-1s0.448-1,1-1h20
		c0.552,0,1,0.448,1,1S40.552,47,40,47z M40,42H20c-0.552,0-1-0.448-1-1s0.448-1,1-1h20c0.552,0,1,0.448,1,1S40.552,42,40,42z
		 M40,37H20c-0.552,0-1-0.448-1-1s0.448-1,1-1h20c0.552,0,1,0.448,1,1S40.552,37,40,37z M40,32H20c-0.552,0-1-0.448-1-1s0.448-1,1-1
		h20c0.552,0,1,0.448,1,1S40.552,32,40,32z M46.293,40.707C46.098,40.902,45.842,41,45.586,41s-0.512-0.098-0.707-0.293
		c-0.391-0.391-0.391-1.023,0-1.414L48.172,36l-3.293-3.293c-0.391-0.391-0.391-1.023,0-1.414s1.023-0.391,1.414,0L51,36
		L46.293,40.707z"/>
</g>
<g>
</g>
<g>
</g>
<g>
</g>
<g>
</g>
<g>
</g>
<g>
</g>
<g>
</g>
<g>
</g>
<g>
</g>
<g>
</g>
<g>
</g>
<g>
</g>
<g>
</g>
<g>
</g>
<g>
</g>
</svg>
