<?xml version="1.0" encoding="iso-8859-1"?>
<!-- Generator: Adobe Illustrator 19.0.0, SVG Export Plug-In . SVG Version: 6.00 Build 0)  -->
<svg version="1.1" id="Capa_1" xmlns="http://www.w3.org/2000/svg" xmlns:xlink="http://www.w3.org/1999/xlink" x="0px" y="0px"
	 viewBox="0 0 60 60" style="enable-background:new 0 0 60 60;" xml:space="preserve">
<g>
	<path d="M7,3C4.794,3,3,4.794,3,7s1.794,4,4,4s4-1.794,4-4S9.206,3,7,3z M7,9C5.897,9,5,8.103,5,7s0.897-2,2-2s2,0.897,2,2
		S8.103,9,7,9z"/>
	<path d="M16,3c-2.206,0-4,1.794-4,4s1.794,4,4,4s4-1.794,4-4S18.206,3,16,3z M16,9c-1.103,0-2-0.897-2-2s0.897-2,2-2s2,0.897,2,2
		S17.103,9,16,9z"/>
	<path d="M25,3c-2.206,0-4,1.794-4,4s1.794,4,4,4s4-1.794,4-4S27.206,3,25,3z M25,9c-1.103,0-2-0.897-2-2s0.897-2,2-2s2,0.897,2,2
		S26.103,9,25,9z"/>
	<path d="M0,0v12v2v22h60V14v-2V0H0z M34.022,26.483l-5.397,3.148c-0.269,0.156-0.572,0.239-0.878,0.239
		c-0.964,0-1.747-0.783-1.747-1.746v-6.249c0-0.963,0.783-1.746,1.746-1.746c0.303,0,0.603,0.081,0.868,0.233l5.397,3.1
		c0.547,0.314,0.874,0.877,0.876,1.507C34.89,25.6,34.566,26.166,34.022,26.483z M2,12V2h56v10H2z"/>
	<rect x="25" y="42" width="10" height="3"/>
	<rect x="8" y="42" width="10" height="3"/>
	<rect x="42" y="42" width="10" height="3"/>
	<path d="M0,60h60V38H0V60z M40,40h14v7H40V40z M41,49h12c0.553,0,1,0.448,1,1s-0.447,1-1,1H41c-0.553,0-1-0.448-1-1
		S40.447,49,41,49z M41,53h12c0.553,0,1,0.448,1,1s-0.447,1-1,1H41c-0.553,0-1-0.448-1-1S40.447,53,41,53z M23,40h14v7H23V40z
		 M24,49h12c0.553,0,1,0.448,1,1s-0.447,1-1,1H24c-0.553,0-1-0.448-1-1S23.447,49,24,49z M24,53h12c0.553,0,1,0.448,1,1
		s-0.447,1-1,1H24c-0.553,0-1-0.448-1-1S23.447,53,24,53z M6,40h14v7H6V40z M7,49h12c0.553,0,1,0.448,1,1s-0.447,1-1,1H7
		c-0.553,0-1-0.448-1-1S6.447,49,7,49z M7,53h12c0.553,0,1,0.448,1,1s-0.447,1-1,1H7c-0.553,0-1-0.448-1-1S6.447,53,7,53z"/>
</g>
<g>
</g>
<g>
</g>
<g>
</g>
<g>
</g>
<g>
</g>
<g>
</g>
<g>
</g>
<g>
</g>
<g>
</g>
<g>
</g>
<g>
</g>
<g>
</g>
<g>
</g>
<g>
</g>
<g>
</g>
</svg>
