<?xml version="1.0" encoding="iso-8859-1"?>
<!-- Generator: Adobe Illustrator 19.0.0, SVG Export Plug-In . SVG Version: 6.00 Build 0)  -->
<svg version="1.1" id="Capa_1" xmlns="http://www.w3.org/2000/svg" xmlns:xlink="http://www.w3.org/1999/xlink" x="0px" y="0px"
	 viewBox="0 0 60 60" style="enable-background:new 0 0 60 60;" xml:space="preserve">
<g>
	<path d="M7,3C4.794,3,3,4.794,3,7s1.794,4,4,4s4-1.794,4-4S9.206,3,7,3z M7,9C5.897,9,5,8.103,5,7s0.897-2,2-2s2,0.897,2,2
		S8.103,9,7,9z"/>
	<path d="M16,3c-2.206,0-4,1.794-4,4s1.794,4,4,4s4-1.794,4-4S18.206,3,16,3z M16,9c-1.103,0-2-0.897-2-2s0.897-2,2-2s2,0.897,2,2
		S17.103,9,16,9z"/>
	<path d="M25,3c-2.206,0-4,1.794-4,4s1.794,4,4,4s4-1.794,4-4S27.206,3,25,3z M25,9c-1.103,0-2-0.897-2-2s0.897-2,2-2s2,0.897,2,2
		S26.103,9,25,9z"/>
	<path d="M0,0v12v2v46h60V14v-2V0H0z M41,52H18c-0.552,0-1-0.447-1-1s0.448-1,1-1h23c0.552,0,1,0.447,1,1S41.552,52,41,52z M22,47
		c0-0.553,0.448-1,1-1h13c0.552,0,1,0.447,1,1s-0.448,1-1,1H23C22.448,48,22,47.553,22,47z M40.255,41H19.733
		c-3.839,0-7.13-2.756-7.655-6.409c-0.455-3.167,1.139-6.243,3.922-7.718C16.069,22.521,19.631,19,24,19
		c1.616,0,3.173,0.481,4.505,1.393c0.261,0.177,0.42,0.062,0.523-0.064c1.916-2.35,4.819-3.584,7.882-3.282
		C41.447,17.5,45,21.565,45,26.302v0.996c0,0.126,0.044,0.241,0.112,0.294c1.892,1.479,2.969,3.789,2.883,6.183
		C47.853,37.759,44.38,41,40.255,41z M2,12V2h56v10H2z"/>
	<path d="M43.882,29.169C43.322,28.732,43,28.05,43,27.298v-0.996c0-3.722-2.762-6.913-6.289-7.266
		c-2.386-0.24-4.641,0.725-6.133,2.556c-0.756,0.928-2.206,1.13-3.202,0.452C26.378,21.36,25.211,21,24,21c-3.309,0-6,2.691-6,6
		c0,0.118,0.009,0.234,0.017,0.351l0.051,0.719l-0.659,0.35c-2.332,0.969-3.709,3.39-3.351,5.887C14.442,36.982,16.882,39,19.733,39
		h20.521c3.062,0,5.637-2.376,5.741-5.298C46.061,31.922,45.29,30.27,43.882,29.169z"/>
</g>
<g>
</g>
<g>
</g>
<g>
</g>
<g>
</g>
<g>
</g>
<g>
</g>
<g>
</g>
<g>
</g>
<g>
</g>
<g>
</g>
<g>
</g>
<g>
</g>
<g>
</g>
<g>
</g>
<g>
</g>
</svg>
