<?xml version="1.0" encoding="iso-8859-1"?>
<!-- Generator: Adobe Illustrator 19.0.0, SVG Export Plug-In . SVG Version: 6.00 Build 0)  -->
<svg version="1.1" id="Capa_1" xmlns="http://www.w3.org/2000/svg" xmlns:xlink="http://www.w3.org/1999/xlink" x="0px" y="0px"
	 viewBox="0 0 60 60" style="enable-background:new 0 0 60 60;" xml:space="preserve">
<g>
	<path d="M7,3C4.794,3,3,4.794,3,7s1.794,4,4,4s4-1.794,4-4S9.206,3,7,3z M7,9C5.897,9,5,8.103,5,7s0.897-2,2-2s2,0.897,2,2
		S8.103,9,7,9z"/>
	<path d="M16,3c-2.206,0-4,1.794-4,4s1.794,4,4,4s4-1.794,4-4S18.206,3,16,3z M16,9c-1.103,0-2-0.897-2-2s0.897-2,2-2s2,0.897,2,2
		S17.103,9,16,9z"/>
	<path d="M25,3c-2.206,0-4,1.794-4,4s1.794,4,4,4s4-1.794,4-4S27.206,3,25,3z M25,9c-1.103,0-2-0.897-2-2s0.897-2,2-2s2,0.897,2,2
		S26.103,9,25,9z"/>
	<path d="M0,0v12v2v46h60V14v-2V0H0z M52,51h-3h-6h-2h-4h-2h-4h-2h-4h-2h-4h-2h-6H8c-0.552,0-1-0.447-1-1s0.448-1,1-1h3V33h6v-6h8
		v10h4v-6h6v-7h8v3h6v22h3c0.552,0,1,0.447,1,1S52.552,51,52,51z M2,12V2h56v10H2z"/>
	<polygon points="19,33 19,49 23,49 23,37 23,29 19,29 	"/>
	<rect x="13" y="35" width="4" height="14"/>
	<polygon points="31,37 31,49 35,49 35,33 31,33 	"/>
	<rect x="25" y="39" width="4" height="10"/>
	<polygon points="37,31 37,49 41,49 41,27 41,26 37,26 	"/>
	<rect x="43" y="29" width="4" height="20"/>
</g>
<g>
</g>
<g>
</g>
<g>
</g>
<g>
</g>
<g>
</g>
<g>
</g>
<g>
</g>
<g>
</g>
<g>
</g>
<g>
</g>
<g>
</g>
<g>
</g>
<g>
</g>
<g>
</g>
<g>
</g>
</svg>
