<?xml version="1.0" encoding="iso-8859-1"?>
<!-- Generator: Adobe Illustrator 19.0.0, SVG Export Plug-In . SVG Version: 6.00 Build 0)  -->
<svg version="1.1" id="Capa_1" xmlns="http://www.w3.org/2000/svg" xmlns:xlink="http://www.w3.org/1999/xlink" x="0px" y="0px"
	 viewBox="0 0 60 60" style="enable-background:new 0 0 60 60;" xml:space="preserve">
<g>
	<path d="M7,3C4.794,3,3,4.794,3,7s1.794,4,4,4s4-1.794,4-4S9.206,3,7,3z M7,9C5.897,9,5,8.103,5,7s0.897-2,2-2s2,0.897,2,2
		S8.103,9,7,9z"/>
	<path d="M16,3c-2.206,0-4,1.794-4,4s1.794,4,4,4s4-1.794,4-4S18.206,3,16,3z M16,9c-1.103,0-2-0.897-2-2s0.897-2,2-2s2,0.897,2,2
		S17.103,9,16,9z"/>
	<path d="M25,3c-2.206,0-4,1.794-4,4s1.794,4,4,4s4-1.794,4-4S27.206,3,25,3z M25,9c-1.103,0-2-0.897-2-2s0.897-2,2-2s2,0.897,2,2
		S26.103,9,25,9z"/>
	<path d="M0,0v12v2v46h60V14v-2V0H0z M42,36v-3c0-0.553,0.447-1,1-1s1,0.447,1,1v3h7c0.553,0,1,0.447,1,1s-0.447,1-1,1h-7v8h7
		c0.553,0,1,0.447,1,1s-0.447,1-1,1h-7v4c0,0.553-0.447,1-1,1s-1-0.447-1-1v-4H16v3c0,0.553-0.447,1-1,1s-1-0.447-1-1v-3H9
		c-0.553,0-1-0.447-1-1s0.447-1,1-1h5v-8H9c-0.553,0-1-0.447-1-1s0.447-1,1-1h5v-8H9c-0.553,0-1-0.447-1-1s0.447-1,1-1h5v-3
		c0-0.553,0.447-1,1-1s1,0.447,1,1v3h6.912c-0.033-0.819-0.005-1.618,0.096-2.388C23.663,18.632,26.754,16,31.947,16
		c5.195,0,8.286,2.632,8.938,7.612c0.101,0.77,0.13,1.569,0.096,2.388H51c0.553,0,1,0.447,1,1s-0.447,1-1,1H40.765
		c-0.043,0.26-0.079,0.519-0.134,0.782c-0.581,2.751-1.417,5.16-2.335,7.218H42z M2,12V2h56v10H2z"/>
	<path d="M23.264,28.782c-0.056-0.263-0.091-0.522-0.134-0.782H16v8h9.599C24.681,33.942,23.844,31.533,23.264,28.782z"/>
	<path d="M32.906,44.373c-0.248,0.263-0.598,0.414-0.959,0.414c-0.359,0-0.708-0.15-0.957-0.412
		c-0.78-0.828-2.635-2.983-4.417-6.375H16v8h26v-8h-4.678C35.539,41.392,33.686,43.547,32.906,44.373z"/>
	<path d="M31.947,18c-4.161,0-6.437,1.921-6.956,5.872C24.862,24.86,24.87,25.909,25,27v0v0c0.054,0.45,0.123,0.906,0.221,1.37
		c1.577,7.476,5.236,12.341,6.727,14.077c1.491-1.737,5.149-6.603,6.727-14.077c0.335-1.589,0.412-3.103,0.229-4.498
		C38.386,19.921,36.11,18,31.947,18z M31.947,29.427c-2.569,0-4.66-2.091-4.66-4.66s2.091-4.66,4.66-4.66s4.66,2.091,4.66,4.66
		S34.517,29.427,31.947,29.427z"/>
</g>
<g>
</g>
<g>
</g>
<g>
</g>
<g>
</g>
<g>
</g>
<g>
</g>
<g>
</g>
<g>
</g>
<g>
</g>
<g>
</g>
<g>
</g>
<g>
</g>
<g>
</g>
<g>
</g>
<g>
</g>
</svg>
