<?xml version="1.0" encoding="iso-8859-1"?>
<!-- Generator: Adobe Illustrator 19.0.0, SVG Export Plug-In . SVG Version: 6.00 Build 0)  -->
<svg version="1.1" id="Capa_1" xmlns="http://www.w3.org/2000/svg" xmlns:xlink="http://www.w3.org/1999/xlink" x="0px" y="0px"
	 viewBox="0 0 60 60" style="enable-background:new 0 0 60 60;" xml:space="preserve">
<g>
	<path d="M3,7c0,2.206,1.794,4,4,4s4-1.794,4-4S9.206,3,7,3S3,4.794,3,7z M9,7c0,1.103-0.897,2-2,2S5,8.103,5,7s0.897-2,2-2
		S9,5.897,9,7z"/>
	<path d="M20,7c0-2.206-1.794-4-4-4s-4,1.794-4,4s1.794,4,4,4S20,9.206,20,7z M14,7c0-1.103,0.897-2,2-2s2,0.897,2,2s-0.897,2-2,2
		S14,8.103,14,7z"/>
	<path d="M29,7c0-2.206-1.794-4-4-4s-4,1.794-4,4s1.794,4,4,4S29,9.206,29,7z M23,7c0-1.103,0.897-2,2-2s2,0.897,2,2s-0.897,2-2,2
		S23,8.103,23,7z"/>
	<rect x="20" y="20" width="12" height="12"/>
	<rect x="40" y="40" width="12" height="12"/>
	<rect x="20" y="40" width="12" height="12"/>
	<rect x="40" y="20" width="12" height="12"/>
	<path d="M0,0v12v2v46h12V14v-2H2V2h56v10H14v2v46h46V14v-2V0H0z M5,18h4c0.552,0,1,0.447,1,1s-0.448,1-1,1H5c-0.552,0-1-0.447-1-1
		S4.448,18,5,18z M5,23h4c0.552,0,1,0.447,1,1s-0.448,1-1,1H5c-0.552,0-1-0.447-1-1S4.448,23,5,23z M5,28h4c0.552,0,1,0.447,1,1
		s-0.448,1-1,1H5c-0.552,0-1-0.447-1-1S4.448,28,5,28z M5,33h4c0.552,0,1,0.447,1,1s-0.448,1-1,1H5c-0.552,0-1-0.447-1-1
		S4.448,33,5,33z M5,38h4c0.552,0,1,0.447,1,1s-0.448,1-1,1H5c-0.552,0-1-0.447-1-1S4.448,38,5,38z M5,43h4c0.552,0,1,0.447,1,1
		s-0.448,1-1,1H5c-0.552,0-1-0.447-1-1S4.448,43,5,43z M5,48h4c0.552,0,1,0.447,1,1s-0.448,1-1,1H5c-0.552,0-1-0.447-1-1
		S4.448,48,5,48z M5,53h4c0.552,0,1,0.447,1,1s-0.448,1-1,1H5c-0.552,0-1-0.447-1-1S4.448,53,5,53z M34,54H18V38h16V54z M34,34H18
		V18h16V34z M54,54H38V38h16V54z M54,34H38V18h16V34z"/>
</g>
<g>
</g>
<g>
</g>
<g>
</g>
<g>
</g>
<g>
</g>
<g>
</g>
<g>
</g>
<g>
</g>
<g>
</g>
<g>
</g>
<g>
</g>
<g>
</g>
<g>
</g>
<g>
</g>
<g>
</g>
</svg>
