<?xml version="1.0" encoding="iso-8859-1"?>
<!-- Generator: Adobe Illustrator 19.0.0, SVG Export Plug-In . SVG Version: 6.00 Build 0)  -->
<svg version="1.1" id="Capa_1" xmlns="http://www.w3.org/2000/svg" xmlns:xlink="http://www.w3.org/1999/xlink" x="0px" y="0px"
	 viewBox="0 0 60 60" style="enable-background:new 0 0 60 60;" xml:space="preserve">
<g>
	<path d="M7,3.5c-2.206,0-4,1.794-4,4s1.794,4,4,4s4-1.794,4-4S9.206,3.5,7,3.5z M7,9.5c-1.103,0-2-0.897-2-2s0.897-2,2-2
		s2,0.897,2,2S8.103,9.5,7,9.5z"/>
	<path d="M16,3.5c-2.206,0-4,1.794-4,4s1.794,4,4,4s4-1.794,4-4S18.206,3.5,16,3.5z M16,9.5c-1.103,0-2-0.897-2-2s0.897-2,2-2
		s2,0.897,2,2S17.103,9.5,16,9.5z"/>
	<path d="M25,3.5c-2.206,0-4,1.794-4,4s1.794,4,4,4s4-1.794,4-4S27.206,3.5,25,3.5z M25,9.5c-1.103,0-2-0.897-2-2s0.897-2,2-2
		s2,0.897,2,2S26.103,9.5,25,9.5z"/>
	<path d="M0,0.5v12v2v45h60v-45v-2v-12H0z M15,54.5H5v-37h10V54.5z M55,54.5H18v-10h37V54.5z M55,40.5H18v-10h37V40.5z M55,27.5H18
		v-10h37V27.5z M2,12.5v-10h56v10H2z"/>
	<rect x="20" y="32.5" width="33" height="6"/>
	<rect x="7" y="19.5" width="6" height="33"/>
	<rect x="20" y="46.5" width="33" height="6"/>
	<rect x="20" y="19.5" width="33" height="6"/>
</g>
<g>
</g>
<g>
</g>
<g>
</g>
<g>
</g>
<g>
</g>
<g>
</g>
<g>
</g>
<g>
</g>
<g>
</g>
<g>
</g>
<g>
</g>
<g>
</g>
<g>
</g>
<g>
</g>
<g>
</g>
</svg>
