<?xml version="1.0" encoding="iso-8859-1"?>
<!-- Generator: Adobe Illustrator 19.0.0, SVG Export Plug-In . SVG Version: 6.00 Build 0)  -->
<svg version="1.1" id="Capa_1" xmlns="http://www.w3.org/2000/svg" xmlns:xlink="http://www.w3.org/1999/xlink" x="0px" y="0px"
	 viewBox="0 0 60 60" style="enable-background:new 0 0 60 60;" xml:space="preserve">
<g>
	<path d="M7,3C4.794,3,3,4.794,3,7s1.794,4,4,4s4-1.794,4-4S9.206,3,7,3z M7,9C5.897,9,5,8.103,5,7s0.897-2,2-2s2,0.897,2,2
		S8.103,9,7,9z"/>
	<path d="M16,3c-2.206,0-4,1.794-4,4s1.794,4,4,4s4-1.794,4-4S18.206,3,16,3z M16,9c-1.103,0-2-0.897-2-2s0.897-2,2-2s2,0.897,2,2
		S17.103,9,16,9z"/>
	<path d="M25,3c-2.206,0-4,1.794-4,4s1.794,4,4,4s4-1.794,4-4S27.206,3,25,3z M25,9c-1.103,0-2-0.897-2-2s0.897-2,2-2s2,0.897,2,2
		S26.103,9,25,9z"/>
	<path d="M0,0v12v2v46h60V14v-2V0H0z M15,55H5V17h10V55z M42,55H18v-8h24V55z M41,43H19c-0.552,0-1-0.448-1-1s0.448-1,1-1h22
		c0.552,0,1,0.448,1,1S41.552,43,41,43z M41,39H19c-0.552,0-1-0.448-1-1s0.448-1,1-1h22c0.552,0,1,0.448,1,1S41.552,39,41,39z
		 M18,34c0-0.552,0.448-1,1-1h9c0.552,0,1,0.448,1,1s-0.448,1-1,1h-9C18.448,35,18,34.552,18,34z M42,31H18V17h24V31z M55,55H45V17
		h10V55z M2,12V2h56v10H2z"/>
	<rect x="20" y="49" width="20" height="4"/>
	<rect x="20" y="19" width="20" height="10"/>
	<rect x="7" y="19" width="6" height="34"/>
	<rect x="47" y="19" width="6" height="34"/>
</g>
<g>
</g>
<g>
</g>
<g>
</g>
<g>
</g>
<g>
</g>
<g>
</g>
<g>
</g>
<g>
</g>
<g>
</g>
<g>
</g>
<g>
</g>
<g>
</g>
<g>
</g>
<g>
</g>
<g>
</g>
</svg>
