<?xml version="1.0" encoding="iso-8859-1"?>
<!-- Generator: Adobe Illustrator 19.0.0, SVG Export Plug-In . SVG Version: 6.00 Build 0)  -->
<svg version="1.1" id="Capa_1" xmlns="http://www.w3.org/2000/svg" xmlns:xlink="http://www.w3.org/1999/xlink" x="0px" y="0px"
	 viewBox="0 0 60 60" style="enable-background:new 0 0 60 60;" xml:space="preserve">
<g>
	<path d="M7,3C4.794,3,3,4.794,3,7s1.794,4,4,4s4-1.794,4-4S9.206,3,7,3z M7,9C5.897,9,5,8.103,5,7s0.897-2,2-2s2,0.897,2,2
		S8.103,9,7,9z"/>
	<path d="M16,3c-2.206,0-4,1.794-4,4s1.794,4,4,4s4-1.794,4-4S18.206,3,16,3z M16,9c-1.103,0-2-0.897-2-2s0.897-2,2-2s2,0.897,2,2
		S17.103,9,16,9z"/>
	<path d="M25,3c-2.206,0-4,1.794-4,4s1.794,4,4,4s4-1.794,4-4S27.206,3,25,3z M25,9c-1.103,0-2-0.897-2-2s0.897-2,2-2s2,0.897,2,2
		S26.103,9,25,9z"/>
	<path d="M0,0v12v2v46h60V14v-2V0H0z M30,23h18c0.553,0,1,0.448,1,1s-0.447,1-1,1H30c-0.553,0-1-0.448-1-1S29.447,23,30,23z M29,19
		c0-0.552,0.447-1,1-1h9c0.553,0,1,0.448,1,1s-0.447,1-1,1h-9C29.447,20,29,19.552,29,19z M25,18v20H5V18H25z M55,54H5V42h50V54z
		 M29,34c0-0.552,0.447-1,1-1h21c0.553,0,1,0.448,1,1s-0.447,1-1,1H30C29.447,35,29,34.552,29,34z M54,30H30c-0.553,0-1-0.448-1-1
		s0.447-1,1-1h24c0.553,0,1,0.448,1,1S54.553,30,54,30z M2,12V2h56v10H2z"/>
	<path d="M23,20H7v16h16V20z M19,24h-2v5.807C17,32.275,15.523,34,13.409,34C11.37,34,10,32.63,10,30.591
		C10,28.577,11.63,27,13.71,27H15v-5c0-0.552,0.447-1,1-1s1,0.448,1,1h2c0.553,0,1,0.448,1,1S19.553,24,19,24z"/>
	<path d="M12,30.591C12,31.539,12.461,32,13.409,32C14.582,32,15,30.867,15,29.807V29h-1.29C12.735,29,12,29.684,12,30.591z"/>
	<path d="M53,44H7v8h46V44z M11,50c0,0.552-0.447,1-1,1s-1-0.448-1-1v-4c0-0.552,0.447-1,1-1s1,0.448,1,1V50z M14,50
		c0,0.552-0.447,1-1,1s-1-0.448-1-1v-4c0-0.552,0.447-1,1-1s1,0.448,1,1V50z M49,49H24v1c0,0.552-0.447,1-1,1s-1-0.448-1-1v-1h-3
		c-0.553,0-1-0.448-1-1s0.447-1,1-1h3v-1c0-0.552,0.447-1,1-1s1,0.448,1,1v1h25c0.553,0,1,0.448,1,1S49.553,49,49,49z"/>
</g>
<g>
</g>
<g>
</g>
<g>
</g>
<g>
</g>
<g>
</g>
<g>
</g>
<g>
</g>
<g>
</g>
<g>
</g>
<g>
</g>
<g>
</g>
<g>
</g>
<g>
</g>
<g>
</g>
<g>
</g>
</svg>
