<?xml version="1.0" encoding="iso-8859-1"?>
<!-- Generator: Adobe Illustrator 19.0.0, SVG Export Plug-In . SVG Version: 6.00 Build 0)  -->
<svg version="1.1" id="Capa_1" xmlns="http://www.w3.org/2000/svg" xmlns:xlink="http://www.w3.org/1999/xlink" x="0px" y="0px"
	 viewBox="0 0 60 60" style="enable-background:new 0 0 60 60;" xml:space="preserve">
<g>
	<path d="M7,3C4.794,3,3,4.794,3,7s1.794,4,4,4s4-1.794,4-4S9.206,3,7,3z M7,9C5.897,9,5,8.103,5,7s0.897-2,2-2s2,0.897,2,2
		S8.103,9,7,9z"/>
	<path d="M16,3c-2.206,0-4,1.794-4,4s1.794,4,4,4s4-1.794,4-4S18.206,3,16,3z M16,9c-1.103,0-2-0.897-2-2s0.897-2,2-2s2,0.897,2,2
		S17.103,9,16,9z"/>
	<path d="M25,3c-2.206,0-4,1.794-4,4s1.794,4,4,4s4-1.794,4-4S27.206,3,25,3z M25,9c-1.103,0-2-0.897-2-2s0.897-2,2-2s2,0.897,2,2
		S26.103,9,25,9z"/>
	<path d="M0,0v12v2v46h60V14v-2V0H0z M52,49H26.91c-0.478,2.833-2.942,5-5.91,5s-5.431-2.167-5.91-5H8c-0.553,0-1-0.447-1-1
		s0.447-1,1-1h7.09c0.478-2.833,2.942-5,5.91-5s5.431,2.167,5.91,5H52c0.553,0,1,0.447,1,1S52.553,49,52,49z M52,37H35.91
		c-0.478,2.833-2.942,5-5.91,5s-5.431-2.167-5.91-5H8c-0.553,0-1-0.447-1-1s0.447-1,1-1h16.09c0.478-2.833,2.942-5,5.91-5
		s5.431,2.167,5.91,5H52c0.553,0,1,0.447,1,1S52.553,37,52,37z M52,25h-7.09c-0.478,2.833-2.942,5-5.91,5s-5.431-2.167-5.91-5H8
		c-0.553,0-1-0.447-1-1s0.447-1,1-1h25.09c0.478-2.833,2.942-5,5.91-5s5.431,2.167,5.91,5H52c0.553,0,1,0.447,1,1S52.553,25,52,25z
		 M2,12V2h56v10H2z"/>
</g>
<g>
</g>
<g>
</g>
<g>
</g>
<g>
</g>
<g>
</g>
<g>
</g>
<g>
</g>
<g>
</g>
<g>
</g>
<g>
</g>
<g>
</g>
<g>
</g>
<g>
</g>
<g>
</g>
<g>
</g>
</svg>
