<?xml version="1.0" encoding="iso-8859-1"?>
<!-- Generator: Adobe Illustrator 19.0.0, SVG Export Plug-In . SVG Version: 6.00 Build 0)  -->
<svg version="1.1" id="Capa_1" xmlns="http://www.w3.org/2000/svg" xmlns:xlink="http://www.w3.org/1999/xlink" x="0px" y="0px"
	 viewBox="0 0 60 60" style="enable-background:new 0 0 60 60;" xml:space="preserve">
<g>
	<path d="M11,7c0-2.206-1.794-4-4-4S3,4.794,3,7s1.794,4,4,4S11,9.206,11,7z M7,9C5.897,9,5,8.103,5,7s0.897-2,2-2s2,0.897,2,2
		S8.103,9,7,9z"/>
	<path d="M20,7c0-2.206-1.794-4-4-4s-4,1.794-4,4s1.794,4,4,4S20,9.206,20,7z M14,7c0-1.103,0.897-2,2-2s2,0.897,2,2s-0.897,2-2,2
		S14,8.103,14,7z"/>
	<path d="M29,7c0-2.206-1.794-4-4-4s-4,1.794-4,4s1.794,4,4,4S29,9.206,29,7z M23,7c0-1.103,0.897-2,2-2s2,0.897,2,2s-0.897,2-2,2
		S23,8.103,23,7z"/>
	<path d="M0,0v12v2v46h7V15v-1v-2H2V2h56v10H9v2v1v45h51V14v-2V0H0z M4,55H3c-0.553,0-1-0.447-1-1s0.447-1,1-1h1
		c0.553,0,1,0.447,1,1S4.553,55,4,55z M4,51H3c-0.553,0-1-0.447-1-1s0.447-1,1-1h1c0.553,0,1,0.447,1,1S4.553,51,4,51z M4,47H3
		c-0.553,0-1-0.447-1-1s0.447-1,1-1h1c0.553,0,1,0.447,1,1S4.553,47,4,47z M4,43H3c-0.553,0-1-0.447-1-1s0.447-1,1-1h1
		c0.553,0,1,0.447,1,1S4.553,43,4,43z M4,39H3c-0.553,0-1-0.447-1-1s0.447-1,1-1h1c0.553,0,1,0.447,1,1S4.553,39,4,39z M4,35H3
		c-0.553,0-1-0.447-1-1s0.447-1,1-1h1c0.553,0,1,0.447,1,1S4.553,35,4,35z M4,31H3c-0.553,0-1-0.447-1-1s0.447-1,1-1h1
		c0.553,0,1,0.447,1,1S4.553,31,4,31z M4,27H3c-0.553,0-1-0.447-1-1s0.447-1,1-1h1c0.553,0,1,0.447,1,1S4.553,27,4,27z M4,23H3
		c-0.553,0-1-0.447-1-1s0.447-1,1-1h1c0.553,0,1,0.447,1,1S4.553,23,4,23z M3,17h1c0.553,0,1,0.447,1,1s-0.447,1-1,1H3
		c-0.553,0-1-0.447-1-1S2.447,17,3,17z M44,17h2c0.553,0,1,0.447,1,1s-0.447,1-1,1h-2c-0.553,0-1-0.447-1-1S43.447,17,44,17z M30,17
		h10c0.553,0,1,0.447,1,1s-0.447,1-1,1H30c-0.553,0-1-0.447-1-1S29.447,17,30,17z M28,39h-2c-0.553,0-1-0.447-1-1s0.447-1,1-1h2
		c0.553,0,1,0.447,1,1S28.553,39,28,39z M32,45c0.553,0,1,0.447,1,1s-0.447,1-1,1H18c-0.553,0-1-0.447-1-1s0.447-1,1-1H32z M18,35
		c-0.553,0-1-0.447-1-1s0.447-1,1-1h14c0.553,0,1,0.447,1,1s-0.447,1-1,1H18z M40,31H30c-0.553,0-1-0.447-1-1s0.447-1,1-1h10
		c0.553,0,1,0.447,1,1S40.553,31,40,31z M44,33c0.553,0,1,0.447,1,1s-0.447,1-1,1h-8c-0.553,0-1-0.447-1-1s0.447-1,1-1H44z M28,27
		h-2c-0.553,0-1-0.447-1-1s0.447-1,1-1h2c0.553,0,1,0.447,1,1S28.553,27,28,27z M32,37h15c0.553,0,1,0.447,1,1s-0.447,1-1,1H32
		c-0.553,0-1-0.447-1-1S31.447,37,32,37z M46,27H32c-0.553,0-1-0.447-1-1s0.447-1,1-1h14c0.553,0,1,0.447,1,1S46.553,27,46,27z
		 M32,23H18c-0.553,0-1-0.447-1-1s0.447-1,1-1h14c0.553,0,1,0.447,1,1S32.553,23,32,23z M13,17h13c0.553,0,1,0.447,1,1s-0.447,1-1,1
		H13c-0.553,0-1-0.447-1-1S12.447,17,13,17z M13,21h1c0.553,0,1,0.447,1,1s-0.447,1-1,1h-1c-0.553,0-1-0.447-1-1S12.447,21,13,21z
		 M13,25h9c0.553,0,1,0.447,1,1s-0.447,1-1,1h-9c-0.553,0-1-0.447-1-1S12.447,25,13,25z M13,29h13c0.553,0,1,0.447,1,1s-0.447,1-1,1
		H13c-0.553,0-1-0.447-1-1S12.447,29,13,29z M13,33h1c0.553,0,1,0.447,1,1s-0.447,1-1,1h-1c-0.553,0-1-0.447-1-1S12.447,33,13,33z
		 M13,37h9c0.553,0,1,0.447,1,1s-0.447,1-1,1h-9c-0.553,0-1-0.447-1-1S12.447,37,13,37z M13,41h13c0.553,0,1,0.447,1,1s-0.447,1-1,1
		H13c-0.553,0-1-0.447-1-1S12.447,41,13,41z M13,45h1c0.553,0,1,0.447,1,1s-0.447,1-1,1h-1c-0.553,0-1-0.447-1-1S12.447,45,13,45z
		 M22,51h-9c-0.553,0-1-0.447-1-1s0.447-1,1-1h9c0.553,0,1,0.447,1,1S22.553,51,22,51z M28,51h-2c-0.553,0-1-0.447-1-1s0.447-1,1-1
		h2c0.553,0,1,0.447,1,1S28.553,51,28,51z M39,51h-7c-0.553,0-1-0.447-1-1s0.447-1,1-1h7c0.553,0,1,0.447,1,1S39.553,51,39,51z
		 M40,47h-4c-0.553,0-1-0.447-1-1s0.447-1,1-1h4c0.553,0,1,0.447,1,1S40.553,47,40,47z M40,43H30c-0.553,0-1-0.447-1-1s0.447-1,1-1
		h10c0.553,0,1,0.447,1,1S40.553,43,40,43z M44,51h-1c-0.553,0-1-0.447-1-1s0.447-1,1-1h1c0.553,0,1,0.447,1,1S44.553,51,44,51z
		 M51,43h-7c-0.553,0-1-0.447-1-1s0.447-1,1-1h7c0.553,0,1,0.447,1,1S51.553,43,51,43z M51,23H36c-0.553,0-1-0.447-1-1s0.447-1,1-1
		h15c0.553,0,1,0.447,1,1S51.553,23,51,23z"/>
</g>
<g>
</g>
<g>
</g>
<g>
</g>
<g>
</g>
<g>
</g>
<g>
</g>
<g>
</g>
<g>
</g>
<g>
</g>
<g>
</g>
<g>
</g>
<g>
</g>
<g>
</g>
<g>
</g>
<g>
</g>
</svg>
