<?xml version="1.0" encoding="iso-8859-1"?>
<!-- Generator: Adobe Illustrator 19.0.0, SVG Export Plug-In . SVG Version: 6.00 Build 0)  -->
<svg version="1.1" id="Capa_1" xmlns="http://www.w3.org/2000/svg" xmlns:xlink="http://www.w3.org/1999/xlink" x="0px" y="0px"
	 viewBox="0 0 59 59" style="enable-background:new 0 0 59 59;" xml:space="preserve">
<g>
	<path d="M20.056,23.423L9.117,34.361c-0.596,0.597-0.596,1.567,0,2.164L18.592,46h7.172l8.435-8.435L20.056,23.423z"/>
	<path d="M35.613,36.151l10.939-10.939c0.597-0.597,0.597-1.567,0-2.164L34.573,11.069c-0.579-0.577-1.586-0.575-2.163,0
		L21.47,22.009L35.613,36.151z"/>
	<path d="M0,0v59h59V0H0z M17.764,48L7.703,37.939c-1.375-1.377-1.375-3.615,0-4.992L30.996,9.655c1.332-1.331,3.659-1.332,4.991,0
		l11.979,11.979c1.376,1.376,1.377,3.616,0,4.992L36.322,38.27c-0.001,0.001-0.001,0.002-0.002,0.003s-0.002,0.001-0.003,0.002
		L26.592,48H17.764z M50,48H33c-0.553,0-1-0.447-1-1s0.447-1,1-1h17c0.553,0,1,0.447,1,1S50.553,48,50,48z"/>
</g>
<g>
</g>
<g>
</g>
<g>
</g>
<g>
</g>
<g>
</g>
<g>
</g>
<g>
</g>
<g>
</g>
<g>
</g>
<g>
</g>
<g>
</g>
<g>
</g>
<g>
</g>
<g>
</g>
<g>
</g>
</svg>
