<?xml version="1.0" encoding="iso-8859-1"?>
<!-- Generator: Adobe Illustrator 19.0.0, SVG Export Plug-In . SVG Version: 6.00 Build 0)  -->
<svg version="1.1" id="Capa_1" xmlns="http://www.w3.org/2000/svg" xmlns:xlink="http://www.w3.org/1999/xlink" x="0px" y="0px"
	 viewBox="0 0 60 60" style="enable-background:new 0 0 60 60;" xml:space="preserve">
<g>
	<path d="M0,0.5v59h60v-59H0z M13,9.5h35c0.553,0,1,0.447,1,1s-0.447,1-1,1H13c-0.553,0-1-0.447-1-1S12.447,9.5,13,9.5z M13,16.5h35
		c0.553,0,1,0.447,1,1s-0.447,1-1,1H13c-0.553,0-1-0.447-1-1S12.447,16.5,13,16.5z M13,25.5h17c0.553,0,1,0.447,1,1s-0.447,1-1,1H13
		c-0.553,0-1-0.447-1-1S12.447,25.5,13,25.5z M13,32.5h17c0.553,0,1,0.447,1,1s-0.447,1-1,1H13c-0.553,0-1-0.447-1-1
		S12.447,32.5,13,32.5z M48,50.5H13c-0.553,0-1-0.447-1-1s0.447-1,1-1h35c0.553,0,1,0.447,1,1S48.553,50.5,48,50.5z M48,43.5H13
		c-0.553,0-1-0.447-1-1s0.447-1,1-1h35c0.553,0,1,0.447,1,1S48.553,43.5,48,43.5z M53,34.5h-8v4.174L35.464,30.5L45,22.326V26.5h8
		V34.5z"/>
</g>
<g>
</g>
<g>
</g>
<g>
</g>
<g>
</g>
<g>
</g>
<g>
</g>
<g>
</g>
<g>
</g>
<g>
</g>
<g>
</g>
<g>
</g>
<g>
</g>
<g>
</g>
<g>
</g>
<g>
</g>
</svg>
