<?xml version="1.0" encoding="iso-8859-1"?>
<!-- Generator: Adobe Illustrator 19.0.0, SVG Export Plug-In . SVG Version: 6.00 Build 0)  -->
<svg version="1.1" id="Capa_1" xmlns="http://www.w3.org/2000/svg" xmlns:xlink="http://www.w3.org/1999/xlink" x="0px" y="0px"
	 viewBox="0 0 60 60" style="enable-background:new 0 0 60 60;" xml:space="preserve">
<g>
	<path d="M0,0.5v59h60v-59H0z M7,26.5h8v-4.174l9.536,8.174L15,38.674V34.5H7V26.5z M47,50.5H12c-0.553,0-1-0.447-1-1s0.447-1,1-1
		h35c0.553,0,1,0.447,1,1S47.553,50.5,47,50.5z M47,43.5H12c-0.553,0-1-0.447-1-1s0.447-1,1-1h35c0.553,0,1,0.447,1,1
		S47.553,43.5,47,43.5z M47,34.5H30c-0.553,0-1-0.447-1-1s0.447-1,1-1h17c0.553,0,1,0.447,1,1S47.553,34.5,47,34.5z M47,27.5H30
		c-0.553,0-1-0.447-1-1s0.447-1,1-1h17c0.553,0,1,0.447,1,1S47.553,27.5,47,27.5z M47,18.5H12c-0.553,0-1-0.447-1-1s0.447-1,1-1h35
		c0.553,0,1,0.447,1,1S47.553,18.5,47,18.5z M47,11.5H12c-0.553,0-1-0.447-1-1s0.447-1,1-1h35c0.553,0,1,0.447,1,1
		S47.553,11.5,47,11.5z"/>
</g>
<g>
</g>
<g>
</g>
<g>
</g>
<g>
</g>
<g>
</g>
<g>
</g>
<g>
</g>
<g>
</g>
<g>
</g>
<g>
</g>
<g>
</g>
<g>
</g>
<g>
</g>
<g>
</g>
<g>
</g>
</svg>
