<?xml version="1.0" encoding="iso-8859-1"?>
<!-- Generator: Adobe Illustrator 19.0.0, SVG Export Plug-In . SVG Version: 6.00 Build 0)  -->
<svg version="1.1" id="Capa_1" xmlns="http://www.w3.org/2000/svg" xmlns:xlink="http://www.w3.org/1999/xlink" x="0px" y="0px"
	 viewBox="0 0 60 60" style="enable-background:new 0 0 60 60;" xml:space="preserve">
<path d="M0,0.5v59h60v-59H0z M11.293,11.793l3.999-3.999c0.092-0.093,0.203-0.166,0.326-0.217c0.244-0.101,0.52-0.101,0.764,0
	c0.245,0.101,0.44,0.296,0.541,0.541C16.973,8.24,17,8.37,17,8.5v5v5c0,0.553-0.448,1-1,1s-1-0.447-1-1v-5v-2.586l-2.293,2.293
	C12.512,13.402,12.256,13.5,12,13.5s-0.512-0.098-0.707-0.293C10.902,12.816,10.902,12.184,11.293,11.793z M18.5,48
	c0,1.93-1.57,3.5-3.5,3.5h-2c-0.552,0-1-0.447-1-1s0.448-1,1-1h2c0.827,0,1.5-0.673,1.5-1.5s-0.673-1.5-1.5-1.5h-2
	c-0.552,0-1-0.447-1-1s0.448-1,1-1h2c0.827,0,1.5-0.673,1.5-1.5s-0.673-1.5-1.5-1.5h-2c-0.552,0-1-0.447-1-1s0.448-1,1-1h2
	c1.93,0,3.5,1.57,3.5,3.5c0,0.979-0.403,1.864-1.053,2.5C18.097,46.136,18.5,47.021,18.5,48z M18,33.5c0.552,0,1,0.447,1,1
	s-0.448,1-1,1h-5.007c-0.478,0-0.916-0.28-1.115-0.715s-0.127-0.949,0.185-1.312l4.542-5.299c0.505-0.589,0.456-1.308,0.242-1.783
	c-0.119-0.264-0.484-0.878-1.313-0.892c-1.137,0-2.034,0.897-2.034,2c0,0.553-0.448,1-1,1s-1-0.447-1-1c0-2.206,1.794-4,4-4
	c1.416,0.022,2.605,0.815,3.17,2.07c0.595,1.321,0.385,2.818-0.547,3.905L14.674,33.5H18z M48,46.5H26c-0.552,0-1-0.447-1-1
	s0.448-1,1-1h22c0.552,0,1,0.447,1,1S48.552,46.5,48,46.5z M48,30.5H26c-0.552,0-1-0.447-1-1s0.448-1,1-1h22c0.552,0,1,0.447,1,1
	S48.552,30.5,48,30.5z M48,14.5H26c-0.552,0-1-0.447-1-1s0.448-1,1-1h22c0.552,0,1,0.447,1,1S48.552,14.5,48,14.5z"/>
<g>
</g>
<g>
</g>
<g>
</g>
<g>
</g>
<g>
</g>
<g>
</g>
<g>
</g>
<g>
</g>
<g>
</g>
<g>
</g>
<g>
</g>
<g>
</g>
<g>
</g>
<g>
</g>
<g>
</g>
</svg>
