<?xml version="1.0" encoding="iso-8859-1"?>
<!-- Generator: Adobe Illustrator 19.0.0, SVG Export Plug-In . SVG Version: 6.00 Build 0)  -->
<svg version="1.1" id="Capa_1" xmlns="http://www.w3.org/2000/svg" xmlns:xlink="http://www.w3.org/1999/xlink" x="0px" y="0px"
	 viewBox="0 0 60 60" style="enable-background:new 0 0 60 60;" xml:space="preserve">
<path d="M0,0.5v59h60v-59H0z M15,51.5c-2.757,0-5-2.243-5-5s2.243-5,5-5s5,2.243,5,5S17.757,51.5,15,51.5z M15,35.5
	c-2.757,0-5-2.243-5-5s2.243-5,5-5s5,2.243,5,5S17.757,35.5,15,35.5z M15,19.5c-2.757,0-5-2.243-5-5s2.243-5,5-5s5,2.243,5,5
	S17.757,19.5,15,19.5z M48,47.5H25c-0.552,0-1-0.447-1-1s0.448-1,1-1h23c0.552,0,1,0.447,1,1S48.552,47.5,48,47.5z M48,31.5H25
	c-0.552,0-1-0.447-1-1s0.448-1,1-1h23c0.552,0,1,0.447,1,1S48.552,31.5,48,31.5z M48,15.5H25c-0.552,0-1-0.447-1-1s0.448-1,1-1h23
	c0.552,0,1,0.447,1,1S48.552,15.5,48,15.5z"/>
<g>
</g>
<g>
</g>
<g>
</g>
<g>
</g>
<g>
</g>
<g>
</g>
<g>
</g>
<g>
</g>
<g>
</g>
<g>
</g>
<g>
</g>
<g>
</g>
<g>
</g>
<g>
</g>
<g>
</g>
</svg>
