<?xml version="1.0" encoding="iso-8859-1"?>
<!-- Generator: Adobe Illustrator 19.0.0, SVG Export Plug-In . SVG Version: 6.00 Build 0)  -->
<svg version="1.1" id="Capa_1" xmlns="http://www.w3.org/2000/svg" xmlns:xlink="http://www.w3.org/1999/xlink" x="0px" y="0px"
	 viewBox="0 0 59 59" style="enable-background:new 0 0 59 59;" xml:space="preserve">
<g>
	<path d="M0,0v59h59V0H0z M46,12h-8v36c0,0.553-0.448,1-1,1s-1-0.447-1-1V12H26v16v20c0,0.553-0.448,1-1,1s-1-0.447-1-1V28h-3
		c-4.962,0-9-4.037-9-9s4.038-9,9-9h3h2h11h1h8c0.552,0,1,0.447,1,1S46.552,12,46,12z"/>
	<path d="M21,12c-3.86,0-7,3.141-7,7s3.14,7,7,7h3V12H21z"/>
</g>
<g>
</g>
<g>
</g>
<g>
</g>
<g>
</g>
<g>
</g>
<g>
</g>
<g>
</g>
<g>
</g>
<g>
</g>
<g>
</g>
<g>
</g>
<g>
</g>
<g>
</g>
<g>
</g>
<g>
</g>
</svg>
