<?xml version="1.0" encoding="iso-8859-1"?>
<!-- Generator: Adobe Illustrator 19.0.0, SVG Export Plug-In . SVG Version: 6.00 Build 0)  -->
<svg version="1.1" id="Capa_1" xmlns="http://www.w3.org/2000/svg" xmlns:xlink="http://www.w3.org/1999/xlink" x="0px" y="0px"
	 viewBox="0 0 59 59" style="enable-background:new 0 0 59 59;" xml:space="preserve">
<g>
	<path d="M36.5,37c2.481,0,4.5-2.019,4.5-4.5S38.981,28,36.5,28S32,30.019,32,32.5S34.019,37,36.5,37z"/>
	<path d="M0,0v59h59V0H0z M27,20c-4.813,0-8.962,2.854-10.873,6.954C17.112,26.353,18.264,26,19.5,26c3.584,0,6.5,2.916,6.5,6.5
		S23.084,39,19.5,39S13,36.084,13,32.5c0-0.135,0.012-0.267,0.02-0.4C13.017,32.066,13,32.036,13,32c0-7.72,6.28-14,14-14
		c0.553,0,1,0.447,1,1S27.553,20,27,20z M44,20c-4.813,0-8.962,2.854-10.873,6.954C34.112,26.353,35.264,26,36.5,26
		c3.584,0,6.5,2.916,6.5,6.5S40.084,39,36.5,39S30,36.084,30,32.5c0-0.135,0.012-0.267,0.02-0.4C30.017,32.066,30,32.036,30,32
		c0-7.72,6.28-14,14-14c0.553,0,1,0.447,1,1S44.553,20,44,20z"/>
	<path d="M19.5,37c2.481,0,4.5-2.019,4.5-4.5S21.981,28,19.5,28S15,30.019,15,32.5S17.019,37,19.5,37z"/>
</g>
<g>
</g>
<g>
</g>
<g>
</g>
<g>
</g>
<g>
</g>
<g>
</g>
<g>
</g>
<g>
</g>
<g>
</g>
<g>
</g>
<g>
</g>
<g>
</g>
<g>
</g>
<g>
</g>
<g>
</g>
</svg>
