<?xml version="1.0" encoding="iso-8859-1"?>
<!-- Generator: Adobe Illustrator 19.0.0, SVG Export Plug-In . SVG Version: 6.00 Build 0)  -->
<svg version="1.1" id="Capa_1" xmlns="http://www.w3.org/2000/svg" xmlns:xlink="http://www.w3.org/1999/xlink" x="0px" y="0px"
	 viewBox="0 0 60 60" style="enable-background:new 0 0 60 60;" xml:space="preserve">
<path d="M0,0.5v59h60v-59H0z M36,47.5H24c-0.552,0-1-0.447-1-1s0.448-1,1-1h5v-29H17v3c0,0.553-0.448,1-1,1s-1-0.447-1-1v-4
	c0-0.553,0.448-1,1-1h28c0.552,0,1,0.447,1,1v4c0,0.553-0.448,1-1,1s-1-0.447-1-1v-3H31v29h5c0.552,0,1,0.447,1,1
	S36.552,47.5,36,47.5z M46.707,36.793c0.391,0.391,0.391,1.023,0,1.414C46.512,38.402,46.256,38.5,46,38.5s-0.512-0.098-0.707-0.293
	L41.5,34.414l-3.793,3.793C37.512,38.402,37.256,38.5,37,38.5s-0.512-0.098-0.707-0.293c-0.391-0.391-0.391-1.023,0-1.414L40.086,33
	l-3.793-3.793c-0.391-0.391-0.391-1.023,0-1.414s1.023-0.391,1.414,0l3.793,3.793l3.793-3.793c0.391-0.391,1.023-0.391,1.414,0
	s0.391,1.023,0,1.414L42.914,33L46.707,36.793z"/>
<g>
</g>
<g>
</g>
<g>
</g>
<g>
</g>
<g>
</g>
<g>
</g>
<g>
</g>
<g>
</g>
<g>
</g>
<g>
</g>
<g>
</g>
<g>
</g>
<g>
</g>
<g>
</g>
<g>
</g>
</svg>
