<?xml version="1.0" encoding="iso-8859-1"?>
<!-- Generator: Adobe Illustrator 19.0.0, SVG Export Plug-In . SVG Version: 6.00 Build 0)  -->
<svg version="1.1" id="Capa_1" xmlns="http://www.w3.org/2000/svg" xmlns:xlink="http://www.w3.org/1999/xlink" x="0px" y="0px"
	 viewBox="0 0 59 59" style="enable-background:new 0 0 59 59;" xml:space="preserve">
<path d="M0,0v59h59V0H0z M33.937,43.637c-1.283,4.996-5.419,8.278-10.534,8.361L23.155,52c-6.065,0-11-4.935-11-11
	c0-0.553,0.447-1,1-1s1,0.447,1,1c0,4.963,4.037,9,9,9l0.219-0.002c5.087-0.082,7.827-3.746,8.626-6.859
	c0.82-3.19,0.168-7.837-4.368-10.429l-9.945-5.684c-4.538-2.593-6.624-7.563-5.313-12.663c1.283-4.996,5.419-8.278,10.534-8.361
	L23.155,6c6.065,0,11,4.935,11,11c0,0.553-0.447,1-1,1s-1-0.447-1-1c0-4.963-4.037-9-9-9l-0.219,0.002
	c-5.087,0.082-7.827,3.746-8.626,6.859c-0.82,3.19-0.168,7.837,4.368,10.429l9.945,5.684C33.162,33.566,35.248,38.537,33.937,43.637
	z M47.707,33.293c0.391,0.391,0.391,1.023,0,1.414C47.512,34.902,47.256,35,47,35s-0.512-0.098-0.707-0.293L42.5,30.914
	l-3.793,3.793C38.512,34.902,38.256,35,38,35s-0.512-0.098-0.707-0.293c-0.391-0.391-0.391-1.023,0-1.414l3.793-3.793l-3.793-3.793
	c-0.391-0.391-0.391-1.023,0-1.414s1.023-0.391,1.414,0l3.793,3.793l3.793-3.793c0.391-0.391,1.023-0.391,1.414,0
	s0.391,1.023,0,1.414L43.914,29.5L47.707,33.293z"/>
<g>
</g>
<g>
</g>
<g>
</g>
<g>
</g>
<g>
</g>
<g>
</g>
<g>
</g>
<g>
</g>
<g>
</g>
<g>
</g>
<g>
</g>
<g>
</g>
<g>
</g>
<g>
</g>
<g>
</g>
</svg>
