<?xml version="1.0" encoding="iso-8859-1"?>
<!-- Generator: Adobe Illustrator 19.0.0, SVG Export Plug-In . SVG Version: 6.00 Build 0)  -->
<svg version="1.1" id="Layer_1" xmlns="http://www.w3.org/2000/svg" xmlns:xlink="http://www.w3.org/1999/xlink" x="0px" y="0px"
	 viewBox="0 0 512 512" style="enable-background:new 0 0 512 512;" xml:space="preserve">
<g>
	<g>
		<polygon points="88.96,204.8 93.025,290.133 418.975,290.133 423.04,204.8 		"/>
	</g>
</g>
<g>
	<g>
		<path d="M97.9,392.533l4.528,95.084C103.078,501.267,114.335,512,128,512h256c13.665,0,24.921-10.733,25.571-24.383l4.529-95.084
			H97.9z"/>
	</g>
</g>
<g>
	<g>
		<path d="M435.2,102.4h-8.533V25.6c0-14.138-11.462-25.6-25.6-25.6H110.933c-14.138,0-25.6,11.462-25.6,25.6v76.8H76.8
			c-14.138,0-25.6,11.462-25.6,25.6s11.462,25.6,25.6,25.6h9.723h24.41h290.133h24.41h9.723c14.138,0,25.6-11.462,25.6-25.6
			S449.338,102.4,435.2,102.4z"/>
	</g>
</g>
<g>
</g>
<g>
</g>
<g>
</g>
<g>
</g>
<g>
</g>
<g>
</g>
<g>
</g>
<g>
</g>
<g>
</g>
<g>
</g>
<g>
</g>
<g>
</g>
<g>
</g>
<g>
</g>
<g>
</g>
</svg>
