<?xml version="1.0" encoding="iso-8859-1"?>
<!-- Generator: Adobe Illustrator 19.0.0, SVG Export Plug-In . SVG Version: 6.00 Build 0)  -->
<svg version="1.1" id="Layer_1" xmlns="http://www.w3.org/2000/svg" xmlns:xlink="http://www.w3.org/1999/xlink" x="0px" y="0px"
	 viewBox="0 0 512 512" style="enable-background:new 0 0 512 512;" xml:space="preserve">
<g>
	<g>
		<path d="M339.791,202.496h-17.148v0h-20.948H256l-0.272-0.003l-45.425,0.001l-20.948,0.001h-17.146
			c-1.278,0-2.543-0.052-3.804-0.128c0.776,47.654,39.759,86.189,87.595,86.189s86.819-38.536,87.595-86.189
			C342.336,202.444,341.069,202.496,339.791,202.496z"/>
	</g>
</g>
<g>
	<g>
		<path d="M276.948,331.816v21.146v21.244v88.915c0,2.452-0.443,4.796-1.218,6.983c-2.878,8.129-10.614,13.965-19.73,13.965
			c-9.116,0-16.85-5.836-19.73-13.965c-0.775-2.187-1.218-4.53-1.218-6.983v-88.915v-21.244v-21.146
			C156.358,342.113,95.4,409.594,95.4,491.052c0,11.567,9.378,20.948,20.948,20.948h279.304c11.569,0,20.948-9.38,20.948-20.948
			C416.6,409.596,355.642,342.114,276.948,331.816z"/>
	</g>
</g>
<g>
	<g>
		<path d="M363.514,2.412C360.439,0.792,357.09,0,353.761,0c-4.969,0-9.893,1.765-13.8,5.182l-39.932,34.942L271.904,7.314
			C267.925,2.672,262.114,0,256,0c-6.114,0-11.925,2.672-15.905,7.314L211.97,40.125L172.037,5.182
			C168.132,1.767,163.205,0,158.239,0c-3.331,0-6.677,0.792-9.753,2.412c-7.667,4.036-12.059,12.377-11.047,20.983l13.965,118.704
			c1.242,10.551,10.182,18.501,20.804,18.501h5.987l39.79-0.001h37.775c0.081,0,0.161,0.001,0.242,0.001h38.019h39.784h5.987
			c10.622,0,19.563-7.95,20.804-18.501l13.965-118.704C375.573,14.789,371.181,6.446,363.514,2.412z"/>
	</g>
</g>
<g>
</g>
<g>
</g>
<g>
</g>
<g>
</g>
<g>
</g>
<g>
</g>
<g>
</g>
<g>
</g>
<g>
</g>
<g>
</g>
<g>
</g>
<g>
</g>
<g>
</g>
<g>
</g>
<g>
</g>
</svg>
