<?xml version="1.0" encoding="iso-8859-1"?>
<!-- Generator: Adobe Illustrator 19.0.0, SVG Export Plug-In . SVG Version: 6.00 Build 0)  -->
<svg version="1.1" id="Layer_1" xmlns="http://www.w3.org/2000/svg" xmlns:xlink="http://www.w3.org/1999/xlink" x="0px" y="0px"
	 viewBox="0 0 512 512" style="enable-background:new 0 0 512 512;" xml:space="preserve">
<g>
	<g>
		<path d="M466.825,0h-79.309v21.081c0,0.001,0,0.001,0,0.001c0,7.299,1.012,14.364,2.867,21.082
			c7.404,26.808,28.55,47.955,55.36,55.36c6.717,1.855,13.784,2.867,21.082,2.867h21.082V21.082C487.907,9.438,478.468,0,466.825,0z
			"/>
	</g>
</g>
<g>
	<g>
		<path d="M121.617,301.176c-7.403-26.81-28.55-47.957-55.36-55.361c-6.718-1.855-13.782-2.869-21.082-2.869H24.093v79.312
			c0.001,11.643,9.439,21.082,21.084,21.082h79.308v-21.082C124.484,314.958,123.473,307.893,121.617,301.176z"/>
	</g>
</g>
<g>
	<g>
		<path d="M45.177,0C33.532,0,24.094,9.438,24.094,21.082v79.309h21.082c7.3,0,14.364-1.012,21.082-2.867
			c26.808-7.404,47.955-28.551,55.358-55.36c1.855-6.718,2.867-13.784,2.867-21.082c0,0,0,0,0-0.001V0H45.177z"/>
	</g>
</g>
<g>
	<g>
		<path d="M466.825,142.556c-7.19,0-14.233-0.633-21.082-1.837c-50.118-8.807-89.749-48.438-98.557-98.555
			c-1.203-6.85-1.836-13.895-1.836-21.082c0,0,0,0,0-0.001V0h-178.7v21.081c0,0.001,0,0.001,0,0.001
			c0,7.188-0.631,14.232-1.836,21.082c-8.808,50.117-48.439,89.748-98.556,98.555c-6.849,1.203-13.893,1.837-21.082,1.837H24.093
			v58.227h21.082c7.189,0,14.233,0.633,21.082,1.837c50.117,8.807,89.749,48.439,98.556,98.557
			c1.203,6.849,1.836,13.893,1.836,21.081v0.001v21.082h178.701V322.26v-0.001c0-7.188,0.631-14.232,1.836-21.081
			c8.807-50.118,48.439-89.751,98.556-98.557c6.849-1.203,13.893-1.837,21.082-1.837h21.082v-58.227H466.825z M308.4,218.352
			c-14.245,10.682-32.853,16.564-52.401,16.564s-38.158-5.883-52.401-16.564c-15.824-11.868-24.9-28.881-24.9-46.679
			c0-17.799,9.075-34.815,24.898-46.683c14.245-10.685,32.855-16.567,52.402-16.567s38.158,5.883,52.402,16.567
			c15.826,11.868,24.901,28.883,24.901,46.683C333.303,189.47,324.226,206.484,308.4,218.352z"/>
	</g>
</g>
<g>
	<g>
		<path d="M466.825,242.946c-7.3,0-14.366,1.013-21.082,2.869c-26.808,7.404-47.957,28.551-55.36,55.361
			c-1.855,6.717-2.867,13.782-2.867,21.082v21.082h79.309c11.643,0,21.082-9.439,21.082-21.082v-79.312H466.825z"/>
	</g>
</g>
<g>
	<g>
		<path d="M466.825,385.506H45.177c-11.643,0-21.082,9.438-21.082,21.082c0,11.643,9.439,21.082,21.082,21.082h421.648
			c11.643,0,21.082-9.439,21.082-21.082C487.907,394.943,478.468,385.506,466.825,385.506z"/>
	</g>
</g>
<g>
	<g>
		<path d="M466.825,469.835H45.177c-11.643,0-21.082,9.438-21.082,21.082c0,11.643,9.439,21.082,21.082,21.082h421.648
			c11.643,0,21.082-9.439,21.082-21.082C487.907,479.273,478.468,469.835,466.825,469.835z"/>
	</g>
</g>
<g>
</g>
<g>
</g>
<g>
</g>
<g>
</g>
<g>
</g>
<g>
</g>
<g>
</g>
<g>
</g>
<g>
</g>
<g>
</g>
<g>
</g>
<g>
</g>
<g>
</g>
<g>
</g>
<g>
</g>
</svg>
