<?xml version="1.0" encoding="iso-8859-1"?>
<!-- Generator: Adobe Illustrator 19.0.0, SVG Export Plug-In . SVG Version: 6.00 Build 0)  -->
<svg version="1.1" id="Layer_1" xmlns="http://www.w3.org/2000/svg" xmlns:xlink="http://www.w3.org/1999/xlink" x="0px" y="0px"
	 viewBox="0 0 512 512" style="enable-background:new 0 0 512 512;" xml:space="preserve">
<g>
	<g>
		<path d="M438.734,78.954c-3.201-3.201-7.541-4.998-12.068-4.998L85.332,73.971c-9.424,0-17.066,7.641-17.066,17.067v210.473
			h17.067H102.4H256h153.6h17.067h17.067V91.022C443.733,86.495,441.936,82.154,438.734,78.954z"/>
	</g>
</g>
<g>
	<g>
		<path d="M494.933,335.644h-51.2h-17.067H409.6H273.067v17.067v17.067v5.689c0,9.424-7.641,17.067-17.067,17.067
			s-17.067-7.642-17.067-17.067v-5.689v-17.067v-17.067H102.4H85.333H68.267h-51.2C7.641,335.644,0,343.285,0,352.711
			c0,47.052,38.281,85.333,85.333,85.333h341.333c47.053,0,85.333-38.282,85.333-85.333
			C512,343.285,504.359,335.644,494.933,335.644z"/>
	</g>
</g>
<g>
</g>
<g>
</g>
<g>
</g>
<g>
</g>
<g>
</g>
<g>
</g>
<g>
</g>
<g>
</g>
<g>
</g>
<g>
</g>
<g>
</g>
<g>
</g>
<g>
</g>
<g>
</g>
<g>
</g>
</svg>
