<?xml version="1.0" encoding="iso-8859-1"?>
<!-- Generator: Adobe Illustrator 19.0.0, SVG Export Plug-In . SVG Version: 6.00 Build 0)  -->
<svg version="1.1" id="Layer_1" xmlns="http://www.w3.org/2000/svg" xmlns:xlink="http://www.w3.org/1999/xlink" x="0px" y="0px"
	 viewBox="0 0 512 512" style="enable-background:new 0 0 512 512;" xml:space="preserve">
<g>
	<g>
		<path d="M278.114,481.358l-23.164-84.933l-122.965-20.494c-7.129-1.19-13.652-3.964-19.236-7.922
			c-1.185,0.551-2.391,1.064-3.627,1.519l31.21,124.844C142.921,504.731,152.23,512,162.909,512H256c0.008,0,0.019,0,0.031,0
			c12.854,0,23.273-10.422,23.273-23.273C279.304,486.152,278.888,483.674,278.114,481.358z"/>
	</g>
</g>
<g>
	<g>
		<path d="M488.727,0h-69.818v23.273v11.315v11.958v7.758v3.879v23.594v239.843v23.594v3.879v7.758v11.958v11.315v23.273h69.818
			c12.853,0,23.273-10.422,23.273-23.273V23.273C512,10.42,501.58,0,488.727,0z"/>
	</g>
</g>
<g>
	<g>
		<polygon points="139.636,73.376 139.636,77.576 139.636,96.97 139.636,100.849 139.636,120.564 139.636,124.121 139.636,279.273 
			139.636,282.83 139.636,302.545 139.636,306.424 139.636,325.818 139.636,330.018 241.469,346.989 372.364,368.806 
			372.364,356.849 372.364,349.091 372.364,345.212 372.364,321.618 372.364,81.776 372.364,58.182 372.364,54.303 372.364,46.545 
			372.364,34.588 		"/>
	</g>
</g>
<g>
	<g>
		<path d="M23.273,77.576C10.42,77.576,0,87.996,0,100.849v201.697c0,12.851,10.42,23.273,23.273,23.273h69.818v-19.394v-3.879
			V282.83v-3.558V124.121v-3.558v-19.715V96.97V77.576H23.273z"/>
	</g>
</g>
<g>
</g>
<g>
</g>
<g>
</g>
<g>
</g>
<g>
</g>
<g>
</g>
<g>
</g>
<g>
</g>
<g>
</g>
<g>
</g>
<g>
</g>
<g>
</g>
<g>
</g>
<g>
</g>
<g>
</g>
</svg>
