<?xml version="1.0" encoding="iso-8859-1"?>
<!-- Generator: Adobe Illustrator 19.0.0, SVG Export Plug-In . SVG Version: 6.00 Build 0)  -->
<svg version="1.1" id="Layer_1" xmlns="http://www.w3.org/2000/svg" xmlns:xlink="http://www.w3.org/1999/xlink" x="0px" y="0px"
	 viewBox="0 0 512 512" style="enable-background:new 0 0 512 512;" xml:space="preserve">
<g>
	<g>
		<path d="M434.424,409.24V302.545c0-52.195-22.53-99.222-58.37-131.879h38.976c12.853,0,23.273-10.42,23.273-23.273
			c0-12.853-10.42-23.273-23.273-23.273h-79.577l31.811-39.765c3.302-4.127,5.1-9.255,5.1-14.538C372.364,31.32,341.043,0,302.545,0
			h-93.091c-38.499,0-69.818,31.32-69.818,69.818c0,5.283,1.798,10.411,5.1,14.538l31.811,39.765H96.97
			c-12.853,0-23.273,10.42-23.273,23.273c0,12.853,10.42,23.273,23.273,23.273h38.976c-35.842,32.656-58.37,79.684-58.37,131.879
			V409.24c-24.211,18.96-38.788,48.31-38.788,79.487c0,12.851,10.42,23.273,23.273,23.273h387.879
			c12.853,0,23.273-10.422,23.273-23.273C473.212,457.55,458.634,428.2,434.424,409.24z"/>
	</g>
</g>
<g>
</g>
<g>
</g>
<g>
</g>
<g>
</g>
<g>
</g>
<g>
</g>
<g>
</g>
<g>
</g>
<g>
</g>
<g>
</g>
<g>
</g>
<g>
</g>
<g>
</g>
<g>
</g>
<g>
</g>
</svg>
