<?xml version="1.0" encoding="iso-8859-1"?>
<!-- Generator: Adobe Illustrator 19.0.0, SVG Export Plug-In . SVG Version: 6.00 Build 0)  -->
<svg version="1.1" id="Layer_1" xmlns="http://www.w3.org/2000/svg" xmlns:xlink="http://www.w3.org/1999/xlink" x="0px" y="0px"
	 viewBox="0 0 512 512" style="enable-background:new 0 0 512 512;" xml:space="preserve">
<g>
	<g>
		<path d="M489.154,187.543h-37.485c-16.795-37.341-46.992-67.535-84.325-84.33V50.502c0-8.425-4.638-16.167-12.067-20.144
			c-7.428-3.975-16.441-3.54-23.45,1.133l-85.629,57.085H167.5C75.14,88.578,0,163.719,0,256.08
			c0,53.789,25.223,103.287,68.089,134.823v70.596c0,12.615,10.229,22.846,22.846,22.846h91.383
			c12.617,0,22.846-10.23,22.846-22.846V423.58h45.691v37.919c0,12.615,10.229,22.846,22.846,22.846h91.383
			c12.617,0,22.846-10.23,22.846-22.846v-63.596c27.843-17.588,50.213-43.334,63.727-73.285h37.497
			c12.617,0,22.846-10.229,22.846-22.846v-91.384C512,197.771,501.771,187.543,489.154,187.543z M268.344,225.652H197.96
			c-12.617,0-22.846-10.23-22.846-22.846c0-12.618,10.229-22.846,22.846-22.846h70.385c12.618,0,22.846,10.227,22.846,22.846
			C291.19,215.422,280.961,225.652,268.344,225.652z"/>
	</g>
</g>
<g>
</g>
<g>
</g>
<g>
</g>
<g>
</g>
<g>
</g>
<g>
</g>
<g>
</g>
<g>
</g>
<g>
</g>
<g>
</g>
<g>
</g>
<g>
</g>
<g>
</g>
<g>
</g>
<g>
</g>
</svg>
