<?xml version="1.0" encoding="iso-8859-1"?>
<!-- Generator: Adobe Illustrator 19.0.0, SVG Export Plug-In . SVG Version: 6.00 Build 0)  -->
<svg version="1.1" id="Layer_1" xmlns="http://www.w3.org/2000/svg" xmlns:xlink="http://www.w3.org/1999/xlink" x="0px" y="0px"
	 viewBox="0 0 512 512" style="enable-background:new 0 0 512 512;" xml:space="preserve">
<g>
	<g>
		<path d="M321.829,175.543V153.6c0-36.298-29.529-65.829-65.829-65.829s-65.829,29.531-65.829,65.829v21.943
			c-12.118,0-21.943,9.823-21.943,21.943v117.029c0,12.117,9.825,21.943,21.943,21.943h131.657c12.118,0,21.943-9.826,21.943-21.943
			V197.486C343.771,185.366,333.947,175.543,321.829,175.543z M277.943,175.543h-43.886V153.6c0-12.099,9.844-21.943,21.943-21.943
			c12.099,0,21.943,9.844,21.943,21.943V175.543z"/>
	</g>
</g>
<g>
	<g>
		<path d="M409.6,0H102.4C90.282,0,80.457,9.825,80.457,21.943v380.343v87.771c0,12.117,9.825,21.943,21.943,21.943h307.2
			c12.118,0,21.943-9.826,21.943-21.943v-87.771V21.943C431.543,9.825,421.718,0,409.6,0z M387.657,380.343H124.343V43.886h263.314
			V380.343z"/>
	</g>
</g>
<g>
</g>
<g>
</g>
<g>
</g>
<g>
</g>
<g>
</g>
<g>
</g>
<g>
</g>
<g>
</g>
<g>
</g>
<g>
</g>
<g>
</g>
<g>
</g>
<g>
</g>
<g>
</g>
<g>
</g>
</svg>
