<?xml version="1.0" encoding="iso-8859-1"?>
<!-- Generator: Adobe Illustrator 19.0.0, SVG Export Plug-In . SVG Version: 6.00 Build 0)  -->
<svg version="1.1" id="Layer_1" xmlns="http://www.w3.org/2000/svg" xmlns:xlink="http://www.w3.org/1999/xlink" x="0px" y="0px"
	 viewBox="0 0 512 512" style="enable-background:new 0 0 512 512;" xml:space="preserve">
<g>
	<g>
		<path d="M488.664,317.707h-23.358h-45.999c-12.87,0-23.304-10.434-23.304-23.304s10.434-23.304,23.304-23.304h43.743h23.585
			h23.521c-6.775-51.693-29.016-98.582-61.903-135.871l-16.423,16.42l-16.597,16.592l-27.252,27.247
			c-4.55,4.549-10.513,6.823-16.476,6.823c-5.966,0-11.93-2.276-16.479-6.826c-9.099-9.101-9.098-23.857,0.003-32.958l26.135-26.13
			l16.695-16.692l16.535-16.532c-37.869-29.846-84.326-49.241-134.992-53.849l0.054,23.396l0.054,23.459l0.082,34.984
			c0.031,12.87-10.38,23.329-23.25,23.358c-0.019,0-0.037,0-0.056,0c-12.845,0-23.271-10.397-23.302-23.249l-0.082-35.141
			l-0.054-23.438l-0.054-23.386c-50.68,4.569-97.157,23.932-135.051,53.754l16.54,16.533l16.696,16.695l26.242,26.237
			c9.099,9.099,9.101,23.854,0.002,32.956c-4.55,4.552-10.516,6.828-16.479,6.828s-11.927-2.276-16.477-6.826l-27.384-27.38
			L80.29,151.513l-16.425-16.42c-32.953,37.311-55.238,84.25-62.021,136.006h23.521h23.585h43.998
			c12.87,0,23.304,10.434,23.304,23.304s-10.434,23.304-23.304,23.304H46.695h-23.36H0c2.469,48.617,18.629,95.109,47.136,135.189
			c4.372,6.146,11.447,9.797,18.991,9.797h379.738c7.54,0,14.613-3.648,18.986-9.791c28.516-40.064,44.681-86.558,47.148-135.195
			H488.664z M332.987,265.015l-37.574,47.324c0.828,3.18,1.263,6.485,1.263,9.858c0.002,10.37-4.039,20.125-11.374,27.463
			c-7.336,7.334-17.088,11.372-27.461,11.372c-21.415,0-38.841-17.42-38.846-38.834c0.005-21.424,17.431-38.846,38.846-38.846
			c0.354,0,0.705,0.017,1.058,0.026l37.584-47.344c8.003-10.08,22.662-11.764,32.742-3.761
			C339.306,240.276,340.99,254.936,332.987,265.015z"/>
	</g>
</g>
<g>
</g>
<g>
</g>
<g>
</g>
<g>
</g>
<g>
</g>
<g>
</g>
<g>
</g>
<g>
</g>
<g>
</g>
<g>
</g>
<g>
</g>
<g>
</g>
<g>
</g>
<g>
</g>
<g>
</g>
</svg>
