<?xml version="1.0" encoding="iso-8859-1"?>
<!-- Generator: Adobe Illustrator 19.0.0, SVG Export Plug-In . SVG Version: 6.00 Build 0)  -->
<svg version="1.1" id="Layer_1" xmlns="http://www.w3.org/2000/svg" xmlns:xlink="http://www.w3.org/1999/xlink" x="0px" y="0px"
	 viewBox="0 0 512.001 512.001" style="enable-background:new 0 0 512.001 512.001;" xml:space="preserve">
<g>
	<g>
		<path d="M511.377,98.64c-1.729-7.325-7.128-13.235-14.27-15.615l-51.13-17.044l-17.043-51.13
			c-2.382-7.141-8.29-12.539-15.615-14.27c-7.322-1.729-15.026,0.458-20.349,5.78l-61.435,61.432
			c-5.818,5.818-7.85,14.422-5.247,22.228l16.233,48.698l-37.461,37.461c-33.138-26.346-73.902-40.655-116.869-40.655
			c-50.28,0-97.549,19.578-133.104,55.13c-73.394,73.395-73.395,192.816,0,266.213c35.555,35.552,82.825,55.132,133.104,55.132
			c50.281,0,97.55-19.58,133.104-55.133c68.196-68.197,73.009-176.131,14.468-249.958l37.474-37.474l48.7,16.232
			c2.252,0.75,4.567,1.115,6.865,1.115c5.67,0,11.222-2.223,15.36-6.362l61.433-61.432
			C510.919,113.666,513.106,105.965,511.377,98.64z M290.58,426.153c-27.349,27.349-63.711,42.41-102.388,42.41
			s-75.039-15.06-102.388-42.41c-56.455-56.46-56.457-148.324,0-204.779c27.349-27.348,63.711-42.408,102.388-42.408
			c31.34,0,61.157,9.891,85.893,28.192l-31.237,31.237c-16.165-10.396-34.975-15.99-54.654-15.99
			c-27.074,0-52.527,10.543-71.671,29.687c-19.145,19.144-29.689,44.598-29.688,71.672c0,27.073,10.544,52.526,29.688,71.669
			c19.144,19.145,44.596,29.688,71.669,29.688s52.527-10.543,71.672-29.688c34.245-34.245,38.791-87.093,13.683-126.307
			l31.239-31.237C346.548,294.518,341.814,374.916,290.58,426.153z M172.836,339.122c4.241,4.241,9.798,6.361,15.357,6.361
			c5.557,0,11.118-2.121,15.357-6.361l37.956-37.956c8.905,21.081,4.794,46.398-12.359,63.55
			c-10.941,10.939-25.486,16.965-40.956,16.965c-15.472,0-30.015-6.025-40.953-16.965c-10.94-10.94-16.965-25.484-16.965-40.955
			c0-15.472,6.024-30.015,16.965-40.955c10.94-10.939,25.484-16.963,40.955-16.963c7.905,0,15.563,1.581,22.626,4.578
			l-37.983,37.983C164.354,316.887,164.354,330.638,172.836,339.122z"/>
	</g>
</g>
<g>
</g>
<g>
</g>
<g>
</g>
<g>
</g>
<g>
</g>
<g>
</g>
<g>
</g>
<g>
</g>
<g>
</g>
<g>
</g>
<g>
</g>
<g>
</g>
<g>
</g>
<g>
</g>
<g>
</g>
</svg>
