<?xml version="1.0" encoding="iso-8859-1"?>
<!-- Generator: Adobe Illustrator 19.0.0, SVG Export Plug-In . SVG Version: 6.00 Build 0)  -->
<svg version="1.1" id="Layer_1" xmlns="http://www.w3.org/2000/svg" xmlns:xlink="http://www.w3.org/1999/xlink" x="0px" y="0px"
	 viewBox="0 0 512 512" style="enable-background:new 0 0 512 512;" xml:space="preserve">
<g>
	<g>
		<g>
			<path d="M474.24,354.462h-15.409l-15.163-188.209c-0.207-2.087-0.591-4.106-0.916-6.154l-0.561,2.009
				c-17.221,49.91-52.844,89.452-97.575,112.118v40.852h9.846l9.846,9.846v39.385l-9.846,9.846h-39.385l-9.846-9.846v-39.385
				l9.846-9.846h9.846v-32.345c-21.652,8.143-44.879,12.652-68.923,12.652c-24.113,0-47.34-4.391-68.923-12.406v32.098h9.846
				l9.846,9.846v39.385l-9.846,9.846h-39.385l-9.846-9.846v-39.385l9.846-9.846h9.846v-40.655
				c-42.417-21.327-76.524-57.807-94.74-104.478l-0.886-2.55L53.947,354.462H37.76c-20.825,0-37.76,16.945-37.76,37.76v33.221
				c0,36.864,29.991,66.865,66.865,66.865h34.658c12.81,6.331,26.978,9.846,41.521,9.846h231.03c14.818,0,28.83-3.456,41.236-9.846
				h29.824c36.874,0,66.865-30.001,66.865-66.865v-33.221C512,371.407,495.065,354.462,474.24,354.462z M66.865,472.615
				c-26.014,0-47.173-21.159-47.173-47.173v-33.221c0-9.964,8.103-18.068,18.068-18.068h14.306l-2.412,25.295
				c-0.315,3.328-0.443,6.646-0.404,9.954c0.03,2.255,0.236,4.48,0.423,6.705c0.089,1.014,0.089,2.038,0.207,3.052
				c0.305,2.629,0.788,5.218,1.31,7.798c0.118,0.601,0.187,1.201,0.315,1.802c0.571,2.53,1.3,4.992,2.068,7.454
				c0.207,0.66,0.354,1.329,0.571,1.969c0.729,2.186,1.625,4.313,2.511,6.43c0.394,0.926,0.719,1.861,1.132,2.777
				c0.798,1.723,1.723,3.387,2.619,5.061c0.67,1.27,1.3,2.55,2.028,3.781c0.748,1.25,1.585,2.432,2.393,3.643
				c1.044,1.595,2.068,3.2,3.22,4.726c0.601,0.807,1.28,1.556,1.91,2.343c1.211,1.516,2.373,3.062,3.682,4.51
				c0.295,0.315,0.63,0.591,0.926,0.906c0.069,0.079,0.138,0.177,0.217,0.256H66.865z M354.462,452.923
				c0,5.445-4.411,9.846-9.846,9.846H167.385c-5.435,0-9.846-4.401-9.846-9.846v-39.385c0-5.445,4.411-9.846,9.846-9.846h177.231
				c5.435,0,9.846,4.401,9.846,9.846V452.923z M492.308,425.443c0,26.013-21.159,47.173-47.173,47.173h-4.194
				c5.484-6.321,9.935-13.548,13.43-21.376c0.059-0.118,0.118-0.246,0.167-0.364c0.866-1.959,1.634-3.968,2.363-5.996
				c0.542-1.447,1.073-2.885,1.536-4.362c0.236-0.748,0.433-1.526,0.64-2.294c3.2-11.097,4.539-22.971,3.663-35.318l-2.324-28.751
				h13.824c9.964,0,18.068,8.103,18.068,18.068V425.443z"/>
			<path d="M167.385,252.14v-94.602h-9.846c-5.435,0-9.846-4.401-9.846-9.846c0-5.445,4.411-9.846,9.846-9.846h39.385
				c5.435,0,9.846,4.401,9.846,9.846c0,5.445-4.411,9.846-9.846,9.846h-9.846v104.261c21.327,8.96,44.623,13.893,68.923,13.893
				c24.202,0,47.537-4.992,68.923-14.06V157.538h-9.846c-5.435,0-9.846-4.401-9.846-9.846c0-5.445,4.411-9.846,9.846-9.846h39.385
				c5.435,0,9.846,4.401,9.846,9.846c0,5.445-4.411,9.846-9.846,9.846h-9.846v94.218c36.037-20.893,64.542-54.262,78.779-95.518
				l8.3-29.647c-18.215-34.58-54.371-57.669-95.774-57.669h-1.94c-4.805-33.339-33.487-59.077-68.135-59.077h-19.692
				c-34.678,0-63.37,25.767-68.145,59.136c-43.392,0.63-80.62,26.447-97.31,64.197l10.417,29.952
				C106.151,201.649,133.346,232.537,167.385,252.14z M246.154,29.538h19.692c23.778,0,43.668,16.945,48.236,39.385H197.918
				C202.486,46.484,222.375,29.538,246.154,29.538z"/>
			<rect x="177.231" y="423.385" width="157.538" height="19.692"/>
			<rect x="324.923" y="334.769" width="19.692" height="19.692"/>
			<rect x="167.385" y="334.769" width="19.692" height="19.692"/>
		</g>
	</g>
</g>
<g>
</g>
<g>
</g>
<g>
</g>
<g>
</g>
<g>
</g>
<g>
</g>
<g>
</g>
<g>
</g>
<g>
</g>
<g>
</g>
<g>
</g>
<g>
</g>
<g>
</g>
<g>
</g>
<g>
</g>
</svg>
