<?xml version="1.0" encoding="iso-8859-1"?>
<!-- Generator: Adobe Illustrator 19.0.0, SVG Export Plug-In . SVG Version: 6.00 Build 0)  -->
<svg version="1.1" id="Layer_1" xmlns="http://www.w3.org/2000/svg" xmlns:xlink="http://www.w3.org/1999/xlink" x="0px" y="0px"
	 viewBox="0 0 497.265 497.265" style="enable-background:new 0 0 497.265 497.265;" xml:space="preserve">
<g>
	<g>
		<path d="M443.972,403.429L425.95,179.685c-2.821-27.667-16.393-51.656-36.268-68.236L424.6,31.745
			c2.067-4.71-0.084-10.203-4.785-12.26c-4.748-2.095-10.212,0.074-12.269,4.785l-33.485,76.437
			c-8.08-4.506-16.812-7.941-26.047-10.138l33.95-77.507c2.067-4.71-0.084-10.193-4.785-12.26
			c-4.738-2.104-10.212,0.084-12.269,4.785l-36.054,82.302c-1.592-0.075-3.165-0.223-4.785-0.223h-10.398V76.606
			c0-24.697-20.098-44.795-44.795-44.795H228.15c-24.706,0-44.805,20.098-44.805,44.795v11.059h-7.047
			c-2.69,0-5.343,0.168-7.987,0.372L130.656,5.55c-2.132-4.682-7.643-6.74-12.335-4.617c-4.682,2.141-6.74,7.671-4.608,12.344
			l35.486,77.75c-9.086,2.346-17.818,5.93-25.889,10.631L89.398,27.919c-2.132-4.664-7.643-6.73-12.344-4.561
			c-4.673,2.141-6.712,7.671-4.561,12.344l35.747,77.722c-18.721,16.617-31.316,40.076-33.876,66.932L53.428,400.162
			c-2.365,24.818,5.902,49.627,22.677,68.077c16.775,18.441,40.69,29.026,65.62,29.026h218.41c23.813,0,45.503-9.207,61.086-25.935
			C437.744,453.577,445.834,429.486,443.972,403.429z M201.964,76.606c0-14.429,11.748-26.177,26.187-26.177h40.727
			c14.438,0,26.177,11.748,26.177,26.177v11.059h-93.091V76.606z M313.673,348.32h-18.618v30.134
			c10.929,5.027,18.618,18.544,18.618,35.03c0,20.88-12.26,37.236-27.927,37.236c-15.658,0-27.927-16.356-27.927-37.236
			c0-16.486,7.699-30.003,18.618-35.03V348.32h-93.091c-5.139,0-9.309-4.161-9.309-9.309s4.17-9.309,9.309-9.309h130.327
			c5.148,0,9.309,4.161,9.309,9.309S318.821,348.32,313.673,348.32z M294.273,299.614c0.847,3.528-0.447,7.224-3.286,9.467
			c-1.676,1.322-3.714,2.001-5.762,2.001c-1.443,0-2.886-0.326-4.217-1.015l-32.498-16.477l-32.498,16.477
			c-3.23,1.657-7.14,1.247-9.97-0.987c-2.849-2.244-4.143-5.939-3.295-9.467l7.773-32.666l-25.33-34.09
			c-2.104-2.83-2.43-6.591-0.847-9.737c1.583-3.146,4.794-5.129,8.313-5.129h31.716l15.798-32.042
			c3.128-6.367,13.563-6.367,16.691,0l15.798,32.042h31.707c3.519,0,6.74,1.983,8.322,5.129s1.257,6.907-0.847,9.737l-25.339,34.09
			L294.273,299.614z M379.721,432.055c-0.298,0.037-0.596,0.047-0.894,0.047c-4.738,0-8.797-3.612-9.253-8.425l-18.618-195.491
			c-0.047-36.808-29.277-66.048-65.21-66.048h-74.473c-35.924,0-65.164,29.24-65.164,65.164l-18.665,196.375
			c-0.484,5.101-4.962,9.002-10.138,8.378c-5.12-0.484-8.881-5.027-8.387-10.147l18.618-195.491
			c-0.047-45.317,37.534-82.897,83.735-82.897h74.473c46.201,0,83.782,37.581,83.782,83.782l18.572,194.607
			C388.592,427.028,384.841,431.571,379.721,432.055z"/>
	</g>
</g>
<g>
</g>
<g>
</g>
<g>
</g>
<g>
</g>
<g>
</g>
<g>
</g>
<g>
</g>
<g>
</g>
<g>
</g>
<g>
</g>
<g>
</g>
<g>
</g>
<g>
</g>
<g>
</g>
<g>
</g>
</svg>
