<?xml version="1.0" encoding="iso-8859-1"?>
<!-- Generator: Adobe Illustrator 19.0.0, SVG Export Plug-In . SVG Version: 6.00 Build 0)  -->
<svg version="1.1" id="Layer_1" xmlns="http://www.w3.org/2000/svg" xmlns:xlink="http://www.w3.org/1999/xlink" x="0px" y="0px"
	 viewBox="0 0 509.075 509.075" style="enable-background:new 0 0 509.075 509.075;" xml:space="preserve">
<g>
	<g>
		<g>
			<path d="M227.778,90.708c1.242,4.096,4.997,6.732,9.074,6.732c0.91,0,1.83-0.133,2.75-0.408
				c5.006-1.517,7.841-6.808,6.324-11.823L226.1,19.777c-1.517-5.016-6.827-7.851-11.823-6.324
				c-5.016,1.517-7.841,6.808-6.324,11.823L227.778,90.708z"/>
			<path d="M345.76,130.384c2.124,0,4.257-0.711,6.021-2.162l52.783-43.473c4.039-3.328,4.617-9.301,1.289-13.35
				c-3.328-4.039-9.311-4.617-13.35-1.289l-52.774,43.473c-4.039,3.328-4.627,9.301-1.289,13.35
				C340.308,129.209,343.02,130.384,345.76,130.384z"/>
			<path d="M288.561,113.504c0.92,0.275,1.839,0.408,2.75,0.408c4.068,0,7.832-2.636,9.074-6.732l13.72-45.388
				c1.517-5.006-1.308-10.306-6.324-11.814c-5.016-1.517-10.316,1.308-11.823,6.324l-13.72,45.378
				C280.71,106.697,283.545,111.987,288.561,113.504z"/>
			<path d="M129.311,341.486c-4.447-2.75-10.297-1.375-13.047,3.082l-35.963,58.15c-2.75,4.456-1.375,10.297,3.081,13.047
				c1.546,0.967,3.271,1.422,4.978,1.422c3.176,0,6.277-1.593,8.069-4.494l35.963-58.159
				C135.142,350.085,133.767,344.245,129.311,341.486z"/>
			<path d="M77.005,255.565c4.57,0,8.6-3.319,9.349-7.983c0.825-5.167-2.693-10.031-7.86-10.856l-67.508-10.828
				c-5.167-0.844-10.041,2.693-10.866,7.86c-0.825,5.177,2.693,10.031,7.86,10.866l67.508,10.818
				C76,255.527,76.503,255.565,77.005,255.565z"/>
			<path d="M109.278,293.87c-2.171-4.76-7.794-6.855-12.563-4.674l-43.112,19.721c-4.769,2.171-6.855,7.803-4.674,12.563
				c1.593,3.48,5.035,5.537,8.619,5.537c1.327,0,2.664-0.275,3.944-0.863l43.112-19.721
				C109.364,304.261,111.459,298.629,109.278,293.87z"/>
			<path d="M506.295,264.945l-26.814-26.823c-1.071-1.062-2.37-1.858-3.802-2.323c-79.351-25.534-115.57-37.186-143.218-56.159
				c-29.516-20.252-61.886-29.762-93.478-27.42c-8.458,0.616-16.185,2.171-23.514,4.219L97.937,17.535
				C89.204,6.972,76.215,0.771,61.348,0.06C44.85-0.679,28.181,5.569,16.879,16.871C5.568,28.182-0.718,44.813,0.069,61.349
				C0.77,76.216,6.981,89.205,17.458,97.862l138.61,117.286c-0.057,0.18-0.142,0.341-0.199,0.521
				c-9.87,33.432-1.792,78.279,20.091,111.616c19.058,29.013,30.796,58.14,59.838,148.395c0.465,1.432,1.261,2.731,2.323,3.793
				l26.823,26.823c1.83,1.83,4.248,2.778,6.703,2.778c1.688,0,3.385-0.446,4.911-1.365
				c153.477-92.994,228.229-225.858,231.329-231.471C509.935,272.539,509.291,267.931,506.295,264.945z M245.838,340.398
				c-1.337,0.645-2.74,0.948-4.134,0.948c-3.518,0-6.893-1.963-8.533-5.348c-6.447-13.322-9.87-16.754-14.194-21.096
				c-4.741-4.769-10.117-10.174-18.707-25.913c-0.171-0.322-0.322-0.645-0.455-0.967c-2.124-5.224-20.215-51.655-2.475-75.596
				c3.11-4.2,9.055-5.101,13.265-1.972c4.21,3.119,5.092,9.055,1.972,13.265c-9.586,12.923,0.171,45.511,4.608,56.661
				c7.121,12.999,11.245,17.133,15.227,21.134c4.911,4.94,9.993,10.041,17.825,26.216
				C252.523,332.443,250.551,338.113,245.838,340.398z"/>
			<path d="M358.439,473.527c12.184,6.457,25.818,10.031,39.784,10.031c47.047,0,85.333-38.286,85.333-85.333
				c0-13.919-3.556-27.515-9.975-39.68C446.38,392.451,408.122,433.885,358.439,473.527z"/>
		</g>
	</g>
</g>
<g>
</g>
<g>
</g>
<g>
</g>
<g>
</g>
<g>
</g>
<g>
</g>
<g>
</g>
<g>
</g>
<g>
</g>
<g>
</g>
<g>
</g>
<g>
</g>
<g>
</g>
<g>
</g>
<g>
</g>
</svg>
