<?xml version="1.0" encoding="iso-8859-1"?>
<!-- Generator: Adobe Illustrator 19.0.0, SVG Export Plug-In . SVG Version: 6.00 Build 0)  -->
<svg version="1.1" id="Layer_1" xmlns="http://www.w3.org/2000/svg" xmlns:xlink="http://www.w3.org/1999/xlink" x="0px" y="0px"
	 viewBox="0 0 503.607 503.607" style="enable-background:new 0 0 503.607 503.607;" xml:space="preserve">
<g>
	<g>
		<g>
			<path d="M100.721,461.639c0,4.633,3.76,8.393,8.393,8.393h293.771c4.633,0,8.393-3.76,8.393-8.393s-3.76-8.393-8.393-8.393
				H109.115C104.482,453.246,100.721,457.006,100.721,461.639z"/>
			<path d="M310.996,285.377c1.788-17.811,9.04-34.707,20.849-48.313c7.923-9.124,12.288-20.807,12.288-32.894
				c0-14.689-5.993-28.999-16.434-39.273c-9.35-9.199-21.387-14.193-33.792-13.933c-25.911,0.428-49.496,24.425-50.461,51.343
				c-0.445,12.296,3.601,24.274,11.39,33.733c12.405,15.075,19.8,31.979,21.68,49.337H310.996z"/>
			<rect x="276.984" y="302.164" width="33.574" height="16.787"/>
			<path d="M293.77,352.525c9.258,0,16.787-7.529,16.787-16.787h-33.574C276.984,344.996,284.512,352.525,293.77,352.525z"/>
			<path d="M436.459,0H159.475v419.672h-16.787V0h-41.967C77.581,0,58.754,18.827,58.754,41.967v419.672
				c0,23.141,18.826,41.967,41.967,41.967h335.738c4.633,0,8.393-3.76,8.393-8.393v-67.148V8.393C444.852,3.76,441.092,0,436.459,0z
				 M329.023,112.472l25.18-33.574c2.778-3.701,8.041-4.465,11.751-1.679c3.71,2.778,4.457,8.041,1.679,11.751l-25.18,33.574
				c-1.645,2.199-4.172,3.357-6.723,3.357c-1.746,0-3.517-0.546-5.028-1.679C326.992,121.445,326.245,116.182,329.023,112.472z
				 M241.874,246.717c-10.399-12.632-15.796-28.622-15.209-45.014c1.276-35.404,32.567-66.954,66.963-67.525
				c16.82-0.361,33.255,6.379,45.837,18.751c13.631,13.404,21.454,32.08,21.454,51.242c0,16.132-5.825,31.719-16.401,43.898
				c-11.071,12.758-17.173,29.109-17.173,46.038v33.238v8.393c0,18.516-15.058,33.574-33.574,33.574s-33.574-15.058-33.574-33.574
				v-8.393v-33.188C260.197,277.68,253.86,261.271,241.874,246.717z M285.377,58.754c0-4.633,3.76-8.393,8.393-8.393
				s8.393,3.76,8.393,8.393v50.361c0,4.633-3.76,8.393-8.393,8.393s-8.393-3.76-8.393-8.393V58.754z M221.587,77.22
				c3.727-2.787,8.973-2.023,11.751,1.679l25.18,33.574c2.778,3.71,2.031,8.973-1.679,11.751c-1.511,1.133-3.282,1.679-5.028,1.679
				c-2.552,0-5.078-1.158-6.723-3.357l-25.18-33.574C217.13,85.261,217.877,79.998,221.587,77.22z M428.066,486.82H100.721
				c-13.883,0-25.18-11.298-25.18-25.18s11.298-25.18,25.18-25.18h50.361h276.984V486.82z"/>
		</g>
	</g>
</g>
<g>
</g>
<g>
</g>
<g>
</g>
<g>
</g>
<g>
</g>
<g>
</g>
<g>
</g>
<g>
</g>
<g>
</g>
<g>
</g>
<g>
</g>
<g>
</g>
<g>
</g>
<g>
</g>
<g>
</g>
</svg>
