<?xml version="1.0" encoding="iso-8859-1"?>
<!-- Generator: Adobe Illustrator 19.0.0, SVG Export Plug-In . SVG Version: 6.00 Build 0)  -->
<svg version="1.1" id="Layer_1" xmlns="http://www.w3.org/2000/svg" xmlns:xlink="http://www.w3.org/1999/xlink" x="0px" y="0px"
	 viewBox="0 0 503.607 503.607" style="enable-background:new 0 0 503.607 503.607;" xml:space="preserve">
<g>
	<g>
		<g>
			<path d="M114.103,200.957c0.352,0.294,0.965,0.613,1.771,0.436l222.367-46.004c0.982-0.21,1.695-1.074,1.695-2.082V74.073
				c0-0.839-0.428-1.36-0.781-1.645c-0.294-0.243-0.73-0.487-1.326-0.487c-0.143,0-0.294,0.017-0.453,0.05l-222.367,46.004
				c-0.982,0.21-1.695,1.074-1.695,2.082v79.234C113.314,200.151,113.742,200.671,114.103,200.957z"/>
			<path d="M390.295,50.361V25.18c0-12.162-8.796-25.18-21.898-25.18L82.356,58.804c-11.247,2.224-19.406,12.154-19.406,23.619
				v370.822v8.393c0,0.965,0.218,1.872,0.285,2.82c-0.159,1.796-0.285,3.626-0.285,5.573h0.848
				c3.903,19.129,20.858,33.574,41.12,33.574h335.738v-75.541v-16.787V50.361H390.295z M96.525,120.085
				c0-8.931,6.345-16.728,15.083-18.524l222.367-46.013c5.598-1.142,11.34,0.243,15.78,3.853c4.423,3.609,6.967,8.964,6.967,14.672
				v79.234c0,8.922-6.345,16.711-15.083,18.524l-222.359,46.004c-1.284,0.26-2.585,0.394-3.861,0.394
				c-4.314,0-8.503-1.469-11.919-4.255c-4.432-3.609-6.975-8.947-6.975-14.663V120.085z M423.869,486.82H104.918
				c-13.883,0-25.18-11.298-25.18-25.18v-8.393c0-13.883,11.298-25.18,25.18-25.18h318.951V486.82z M423.869,411.279H216.349
				l155.086-23.502c10.928-1.654,18.86-10.886,18.86-21.932V67.148h33.574V411.279z"/>
		</g>
	</g>
</g>
<g>
</g>
<g>
</g>
<g>
</g>
<g>
</g>
<g>
</g>
<g>
</g>
<g>
</g>
<g>
</g>
<g>
</g>
<g>
</g>
<g>
</g>
<g>
</g>
<g>
</g>
<g>
</g>
<g>
</g>
</svg>
