<?xml version="1.0" encoding="iso-8859-1"?>
<!-- Generator: Adobe Illustrator 19.0.0, SVG Export Plug-In . SVG Version: 6.00 Build 0)  -->
<svg version="1.1" id="Layer_1" xmlns="http://www.w3.org/2000/svg" xmlns:xlink="http://www.w3.org/1999/xlink" x="0px" y="0px"
	 viewBox="0 0 512 512" style="enable-background:new 0 0 512 512;" xml:space="preserve">
<g>
	<g>
		<g>
			<path d="M460.757,145.067H356.864L344.021,80.87c-2.449-12.245-13.295-21.137-25.788-21.137H193.766
				c-12.493,0-23.339,8.892-25.788,21.137l-12.843,64.196H51.243C22.989,145.067,0,168.055,0,196.318v204.774
				c0,28.22,22.955,51.174,51.174,51.174h409.651c28.22,0,51.174-22.955,51.174-51.174V196.318
				C512,168.055,489.011,145.067,460.757,145.067z M184.713,84.215c0.862-4.301,4.668-7.415,9.054-7.415h124.467
				c4.386,0,8.192,3.115,9.054,7.415l12.169,60.851h-16.495l-4.872-29.235c-2.125-12.723-13.03-21.965-25.933-21.965h-72.311
				c-12.902,0-23.808,9.242-25.933,21.973l-4.873,29.227h-16.495L184.713,84.215z M305.664,145.067h-99.328l4.403-26.419
				c0.751-4.471,4.574-7.714,9.105-7.714h72.311c4.531,0,8.354,3.243,9.105,7.706L305.664,145.067z M298.667,344.107
				c0,17.297-14.063,31.36-31.352,31.36h-125.03c-17.289,0-31.351-14.063-31.351-31.36V287.36c0-17.297,14.063-31.36,31.351-31.36
				h125.03c17.289,0,31.352,14.063,31.352,31.36V344.107z M358.4,375.467c0,0.273-0.128,0.495-0.154,0.759
				c-0.051,0.572-0.171,1.109-0.333,1.673c-0.179,0.563-0.375,1.084-0.657,1.587c-0.12,0.23-0.145,0.495-0.29,0.717l-17.067,25.6
				c-1.647,2.466-4.352,3.797-7.108,3.797c-1.621,0-3.268-0.469-4.727-1.434c-3.917-2.62-4.975-7.91-2.364-11.836l15.633-23.45V256
				c0-4.719,3.823-8.533,8.533-8.533s8.533,3.814,8.533,8.533V375.467z M460.8,409.6c0,4.719-3.823,8.533-8.533,8.533
				c-4.71,0-8.533-3.814-8.533-8.533V238.985c0-18.85-15.334-34.185-34.176-34.185H102.443c-18.842,0-34.176,15.334-34.176,34.185
				v162.082c0,4.719-3.823,8.533-8.533,8.533s-8.533-3.814-8.533-8.533V238.985c0-28.262,22.989-51.251,51.243-51.251h307.115
				c28.254,0,51.243,22.989,51.243,51.251V409.6z"/>
			<path d="M267.313,273.067H142.291c-7.885,0-14.293,6.409-14.293,14.293v56.747c0,7.885,6.409,14.293,14.293,14.293h125.022
				c7.876,0,14.285-6.409,14.285-14.293V287.36C281.597,279.475,275.189,273.067,267.313,273.067z"/>
		</g>
	</g>
</g>
<g>
</g>
<g>
</g>
<g>
</g>
<g>
</g>
<g>
</g>
<g>
</g>
<g>
</g>
<g>
</g>
<g>
</g>
<g>
</g>
<g>
</g>
<g>
</g>
<g>
</g>
<g>
</g>
<g>
</g>
</svg>
