<?xml version="1.0" encoding="iso-8859-1"?>
<!-- Generator: Adobe Illustrator 19.0.0, SVG Export Plug-In . SVG Version: 6.00 Build 0)  -->
<svg version="1.1" id="Layer_1" xmlns="http://www.w3.org/2000/svg" xmlns:xlink="http://www.w3.org/1999/xlink" x="0px" y="0px"
	 viewBox="0 0 503.607 503.607" style="enable-background:new 0 0 503.607 503.607;" xml:space="preserve">
<g>
	<g>
		<g>
			<rect x="226.623" y="235.016" width="33.574" height="16.787"/>
			<rect x="226.623" y="167.869" width="33.574" height="16.787"/>
			<rect x="226.623" y="302.164" width="33.574" height="16.787"/>
			<rect x="318.951" y="436.459" width="33.574" height="16.787"/>
			<rect x="318.951" y="369.311" width="33.574" height="16.787"/>
			<rect x="134.295" y="369.311" width="33.574" height="16.787"/>
			<rect x="226.623" y="369.311" width="33.574" height="16.787"/>
			<rect x="134.295" y="235.016" width="33.574" height="16.787"/>
			<rect x="134.295" y="436.459" width="117.508" height="16.787"/>
			<rect x="134.295" y="302.164" width="33.574" height="16.787"/>
			<rect x="134.295" y="167.869" width="33.574" height="16.787"/>
			<rect x="318.951" y="302.164" width="33.574" height="16.787"/>
			<rect x="318.951" y="167.869" width="33.574" height="16.787"/>
			<path d="M125.902,117.508h251.803V50.361H125.902V117.508z M318.951,75.541h16.787c4.633,0,8.393,3.752,8.393,8.393
				s-3.76,8.393-8.393,8.393h-16.787c-4.633,0-8.393-3.752-8.393-8.393S314.318,75.541,318.951,75.541z M268.59,75.541h16.787
				c4.633,0,8.393,3.752,8.393,8.393s-3.76,8.393-8.393,8.393H268.59c-4.633,0-8.393-3.752-8.393-8.393
				S263.957,75.541,268.59,75.541z M218.229,75.541h16.787c4.633,0,8.393,3.752,8.393,8.393s-3.76,8.393-8.393,8.393h-16.787
				c-4.633,0-8.393-3.752-8.393-8.393S213.596,75.541,218.229,75.541z M167.869,75.541h16.787c4.633,0,8.393,3.752,8.393,8.393
				s-3.76,8.393-8.393,8.393h-16.787c-4.633,0-8.393-3.752-8.393-8.393S163.236,75.541,167.869,75.541z"/>
			<path d="M390.992,0H112.615C92.168,0,75.541,16.627,75.541,37.074v429.459c0,20.446,16.627,37.074,37.074,37.074h278.377
				c20.446,0,37.074-16.627,37.074-37.074V37.074C428.066,16.627,411.438,0,390.992,0z M268.59,461.639
				c0,4.642-3.76,8.393-8.393,8.393H125.902c-4.633,0-8.393-3.752-8.393-8.393v-33.574c0-4.642,3.76-8.393,8.393-8.393h134.295
				c4.633,0,8.393,3.752,8.393,8.393V461.639z M125.902,218.229h50.361c4.633,0,8.393,3.752,8.393,8.393v33.574
				c0,4.642-3.76,8.393-8.393,8.393h-50.361c-4.633,0-8.393-3.752-8.393-8.393v-33.574
				C117.508,221.981,121.268,218.229,125.902,218.229z M117.508,193.049v-33.574c0-4.642,3.76-8.393,8.393-8.393h50.361
				c4.633,0,8.393,3.752,8.393,8.393v33.574c0,4.642-3.76,8.393-8.393,8.393h-50.361
				C121.268,201.443,117.508,197.691,117.508,193.049z M125.902,285.377h50.361c4.633,0,8.393,3.752,8.393,8.393v33.574
				c0,4.642-3.76,8.393-8.393,8.393h-50.361c-4.633,0-8.393-3.752-8.393-8.393V293.77
				C117.508,289.129,121.268,285.377,125.902,285.377z M125.902,352.525h50.361c4.633,0,8.393,3.752,8.393,8.393v33.574
				c0,4.642-3.76,8.393-8.393,8.393h-50.361c-4.633,0-8.393-3.752-8.393-8.393v-33.574
				C117.508,356.276,121.268,352.525,125.902,352.525z M276.984,394.492c0,4.642-3.76,8.393-8.393,8.393h-50.361
				c-4.633,0-8.393-3.752-8.393-8.393v-33.574c0-4.642,3.76-8.393,8.393-8.393h50.361c4.633,0,8.393,3.752,8.393,8.393V394.492z
				 M276.984,327.344c0,4.642-3.76,8.393-8.393,8.393h-50.361c-4.633,0-8.393-3.752-8.393-8.393V293.77
				c0-4.642,3.76-8.393,8.393-8.393h50.361c4.633,0,8.393,3.752,8.393,8.393V327.344z M276.984,260.197
				c0,4.642-3.76,8.393-8.393,8.393h-50.361c-4.633,0-8.393-3.752-8.393-8.393v-33.574c0-4.642,3.76-8.393,8.393-8.393h50.361
				c4.633,0,8.393,3.752,8.393,8.393V260.197z M276.984,193.049c0,4.642-3.76,8.393-8.393,8.393h-50.361
				c-4.633,0-8.393-3.752-8.393-8.393v-33.574c0-4.642,3.76-8.393,8.393-8.393h50.361c4.633,0,8.393,3.752,8.393,8.393V193.049z
				 M369.311,461.639c0,4.642-3.76,8.393-8.393,8.393h-50.361c-4.633,0-8.393-3.752-8.393-8.393v-33.574
				c0-4.642,3.76-8.393,8.393-8.393h50.361c4.633,0,8.393,3.752,8.393,8.393V461.639z M369.311,394.492
				c0,4.642-3.76,8.393-8.393,8.393h-50.361c-4.633,0-8.393-3.752-8.393-8.393v-33.574c0-4.642,3.76-8.393,8.393-8.393h50.361
				c4.633,0,8.393,3.752,8.393,8.393V394.492z M369.311,327.344c0,4.642-3.76,8.393-8.393,8.393h-50.361
				c-4.633,0-8.393-3.752-8.393-8.393V293.77c0-4.642,3.76-8.393,8.393-8.393h50.361c4.633,0,8.393,3.752,8.393,8.393V327.344z
				 M369.311,260.197c0,4.642-3.76,8.393-8.393,8.393h-50.361c-4.633,0-8.393-3.752-8.393-8.393v-33.574
				c0-4.642,3.76-8.393,8.393-8.393h50.361c4.633,0,8.393,3.752,8.393,8.393V260.197z M369.311,193.049
				c0,4.642-3.76,8.393-8.393,8.393h-50.361c-4.633,0-8.393-3.752-8.393-8.393v-33.574c0-4.642,3.76-8.393,8.393-8.393h50.361
				c4.633,0,8.393,3.752,8.393,8.393V193.049z M394.492,125.902c0,4.642-3.76,8.393-8.393,8.393h-268.59
				c-4.633,0-8.393-3.752-8.393-8.393V41.967c0-4.642,3.76-8.393,8.393-8.393h268.59c4.633,0,8.393,3.752,8.393,8.393V125.902z"/>
			<rect x="318.951" y="235.016" width="33.574" height="16.787"/>
		</g>
	</g>
</g>
<g>
</g>
<g>
</g>
<g>
</g>
<g>
</g>
<g>
</g>
<g>
</g>
<g>
</g>
<g>
</g>
<g>
</g>
<g>
</g>
<g>
</g>
<g>
</g>
<g>
</g>
<g>
</g>
<g>
</g>
</svg>
