<?xml version="1.0" encoding="iso-8859-1"?>
<!-- Generator: Adobe Illustrator 19.0.0, SVG Export Plug-In . SVG Version: 6.00 Build 0)  -->
<svg version="1.1" id="Layer_1" xmlns="http://www.w3.org/2000/svg" xmlns:xlink="http://www.w3.org/1999/xlink" x="0px" y="0px"
	 viewBox="0 0 503.467 503.467" style="enable-background:new 0 0 503.467 503.467;" xml:space="preserve">
<g>
	<g>
		<g>
			<path d="M209.067,162.133H294.4v-51.2h-85.333V162.133z M234.667,128H268.8c4.719,0,8.533,3.823,8.533,8.533
				s-3.814,8.533-8.533,8.533h-34.133c-4.719,0-8.533-3.823-8.533-8.533S229.948,128,234.667,128z"/>
			<path d="M456.533,486.4H422.4v-25.6c0-4.71-3.814-8.533-8.533-8.533h-52.062c-3.968-19.447-21.205-34.133-41.805-34.133h-19.217
				l-15.087-51.2h0.171c14.114,0,25.6-11.486,25.6-25.6c0-14.114-11.486-25.6-25.6-25.6h-1.297l16.896-54.579
				c36.233-18.278,61.201-55.748,61.201-99.021V88.559c0-11.486,3.524-22.494,10.197-31.846l11.332-15.855
				c5.658-7.919,6.4-18.202,1.954-26.846S372.898,0,363.187,0H140.279c-9.711,0-18.517,5.367-22.963,14.012
				s-3.703,18.927,1.954,26.846l11.332,15.855c6.673,9.353,10.197,20.361,10.197,31.846v73.574
				c0,43.273,24.969,80.742,61.201,99.021l16.896,54.579H217.6c-14.114,0-25.6,11.486-25.6,25.6c0,14.114,11.486,25.6,25.6,25.6
				h0.171l-15.087,51.2h-19.217c-20.599,0-37.837,14.686-41.805,34.133H89.6c-4.719,0-8.533,3.823-8.533,8.533v25.6H46.933
				c-4.719,0-8.533,3.823-8.533,8.533s3.814,8.533,8.533,8.533H89.6h324.267h42.667c4.719,0,8.533-3.823,8.533-8.533
				S461.252,486.4,456.533,486.4z M200.533,179.2c-4.719,0-8.533-3.823-8.533-8.533V102.4c0-4.71,3.814-8.533,8.533-8.533h102.4
				c4.719,0,8.533,3.823,8.533,8.533v68.267c0,4.71-3.814,8.533-8.533,8.533H200.533z M235.563,366.933h32.341l15.087,51.2h-62.515
				L235.563,366.933z M222.31,269.056c1.579,0.444,3.174,0.785,4.77,1.152c1.314,0.299,2.628,0.597,3.959,0.853
				c2.577,0.486,5.163,0.879,7.765,1.186c1.075,0.128,2.159,0.23,3.251,0.333c2.935,0.256,5.88,0.418,8.823,0.444
				c0.29,0,0.563,0.043,0.853,0.043s0.563-0.043,0.853-0.043c2.944-0.026,5.888-0.188,8.823-0.444
				c1.092-0.102,2.176-0.205,3.251-0.333c2.603-0.307,5.197-0.7,7.774-1.186c1.323-0.256,2.628-0.546,3.942-0.853
				c1.596-0.367,3.2-0.708,4.779-1.152l-14.447,46.677h-29.952L222.31,269.056z M405.333,486.4h-307.2v-17.067h51.2h204.8h51.2
				V486.4z"/>
		</g>
	</g>
</g>
<g>
</g>
<g>
</g>
<g>
</g>
<g>
</g>
<g>
</g>
<g>
</g>
<g>
</g>
<g>
</g>
<g>
</g>
<g>
</g>
<g>
</g>
<g>
</g>
<g>
</g>
<g>
</g>
<g>
</g>
</svg>
