<?xml version="1.0" encoding="iso-8859-1"?>
<!-- Generator: Adobe Illustrator 19.0.0, SVG Export Plug-In . SVG Version: 6.00 Build 0)  -->
<svg version="1.1" id="Layer_1" xmlns="http://www.w3.org/2000/svg" xmlns:xlink="http://www.w3.org/1999/xlink" x="0px" y="0px"
	 viewBox="0 0 512 512" style="enable-background:new 0 0 512 512;" xml:space="preserve">
<g>
	<g>
		<g>
			<path d="M466.459,270.592L351.182,155.315c0.068-4.949-0.299-9.89-0.99-14.805l0.051-46.643C350.244,42.112,308.132,0,256.377,0
				S162.51,42.112,162.51,93.867v42.069c-1.22,6.383-1.741,12.86-1.655,19.337L45.544,270.592c-2.287,2.287-3.081,5.666-2.065,8.73
				c1.024,3.072,3.695,5.299,6.895,5.751l65.212,9.31l9.318,65.229c0.452,3.2,2.68,5.862,5.751,6.878
				c0.888,0.299,1.792,0.444,2.697,0.444c2.227,0,4.412-0.87,6.033-2.5l23.125-23.125v76.826c0,51.755,42.112,93.867,93.867,93.867
				s93.867-42.112,93.867-93.867v-76.066l22.366,22.366c1.63,1.63,3.806,2.5,6.033,2.5c0.904,0,1.818-0.145,2.705-0.444
				c3.055-1.016,5.291-3.678,5.743-6.878l9.318-65.229l65.22-9.31c3.2-0.452,5.871-2.679,6.886-5.751
				C469.54,276.258,468.746,272.879,466.459,270.592z M333.177,364.467c-0.307-0.427-0.572-0.888-0.887-1.314
				c0.333,0.657,0.572,1.34,0.887,2.005v52.975c0,10.428-2.108,20.369-5.888,29.44c-8.115,12.425-19.336,22.579-32.964,29.397
				c-9.813,4.907-20.395,7.381-31.053,7.381c-7.407,0-14.848-1.203-22.076-3.61c-17.638-5.879-31.923-18.278-40.243-34.901
				c-14.14-28.297-2.637-62.831,25.668-76.979c23.484-11.759,52.13-2.193,63.881,21.291c4.753,9.506,5.521,20.301,2.15,30.379
				c-3.362,10.086-10.445,18.261-19.951,23.014c-16.529,8.26-36.736,1.545-45.005-15.002c-2.108-4.215-0.401-9.344,3.814-11.452
				c4.224-2.108,9.344-0.401,11.452,3.814c4.062,8.124,13.969,11.452,22.11,7.373c5.427-2.722,9.472-7.381,11.392-13.141
				c1.92-5.76,1.485-11.921-1.237-17.357c-7.526-15.061-25.924-21.171-40.977-13.653c-19.883,9.941-27.972,34.202-18.031,54.084
				c6.281,12.544,17.067,21.905,30.379,26.342c13.303,4.454,27.554,3.43,40.098-2.85c16.196-8.107,28.271-22.025,33.997-39.202
				s4.42-35.558-3.686-51.755c-2.108-4.215-0.393-9.336,3.823-11.443c3.375-1.68,7.296-0.888,9.81,1.651
				c-17.18-22.26-44.035-36.689-74.262-36.689c-31.744,0-59.802,15.88-76.8,40.064v-40.09l75.119-75.119
				c0.444,0.009,0.879,0.06,1.323,0.06c0.427,0,0.853-0.051,1.289-0.06l1.186,1.186l74.684,74.692V364.467z M333.177,98.261
				c-2.935-4.07-6.135-8.013-9.788-11.665c-37.146-37.154-97.596-37.154-134.741,0c-3.362,3.362-6.315,6.972-9.071,10.692v-3.422
				c0-42.351,34.458-76.8,76.8-76.8s76.8,34.449,76.8,76.8V98.261z"/>
			<path d="M330.639,360.955c0.474,0.614,0.944,1.231,1.403,1.856C331.653,362.116,331.177,361.498,330.639,360.955z"/>
		</g>
	</g>
</g>
<g>
</g>
<g>
</g>
<g>
</g>
<g>
</g>
<g>
</g>
<g>
</g>
<g>
</g>
<g>
</g>
<g>
</g>
<g>
</g>
<g>
</g>
<g>
</g>
<g>
</g>
<g>
</g>
<g>
</g>
</svg>
