<?xml version="1.0" encoding="iso-8859-1"?>
<!-- Generator: Adobe Illustrator 19.0.0, SVG Export Plug-In . SVG Version: 6.00 Build 0)  -->
<svg version="1.1" id="Layer_1" xmlns="http://www.w3.org/2000/svg" xmlns:xlink="http://www.w3.org/1999/xlink" x="0px" y="0px"
	 viewBox="0 0 512 512" style="enable-background:new 0 0 512 512;" xml:space="preserve">
<g>
	<g>
		<g>
			<path d="M384,221.864c-37.641,0-68.267,30.626-68.267,68.267c0,37.641,30.626,68.267,68.267,68.267
				c37.641,0,68.267-30.626,68.267-68.267C452.267,252.49,421.641,221.864,384,221.864z"/>
			<path d="M0,25.597v392.533h324.267v59.733c0,3.447,2.074,6.571,5.265,7.885c3.191,1.331,6.861,0.589,9.301-1.852L384,438.73
				l45.167,45.167c1.63,1.63,3.814,2.5,6.033,2.5c1.101,0,2.21-0.205,3.268-0.649c3.191-1.314,5.265-4.437,5.265-7.885v-59.733H512
				V25.597H0z M399.795,59.731h17.434c4.71,0,8.533,3.814,8.533,8.533s-3.823,8.533-8.533,8.533h-17.434
				c-4.719,0-8.533-3.814-8.533-8.533S395.076,59.731,399.795,59.731z M273.067,255.997H110.933c-4.719,0-8.533-3.814-8.533-8.533
				s3.814-8.533,8.533-8.533h162.133c4.719,0,8.533,3.814,8.533,8.533S277.786,255.997,273.067,255.997z M281.6,307.197
				c0,4.719-3.814,8.533-8.533,8.533H110.933c-4.719,0-8.533-3.814-8.533-8.533c0-4.719,3.814-8.533,8.533-8.533h162.133
				C277.786,298.664,281.6,302.478,281.6,307.197z M110.933,204.797c-4.719,0-8.533-3.814-8.533-8.533s3.814-8.533,8.533-8.533
				h187.733c4.719,0,8.533,3.814,8.533,8.533s-3.814,8.533-8.533,8.533H110.933z M110.933,153.597c-4.719,0-8.533-3.814-8.533-8.533
				s3.814-8.533,8.533-8.533h290.133c4.719,0,8.533,3.814,8.533,8.533s-3.814,8.533-8.533,8.533H110.933z M338.79,59.731h17.425
				c4.719,0,8.533,3.814,8.533,8.533s-3.814,8.533-8.533,8.533H338.79c-4.719,0-8.533-3.814-8.533-8.533
				S334.071,59.731,338.79,59.731z M277.786,59.731h17.434c4.71,0,8.533,3.814,8.533,8.533s-3.823,8.533-8.533,8.533h-17.434
				c-4.719,0-8.533-3.814-8.533-8.533S273.067,59.731,277.786,59.731z M216.781,59.731h17.425c4.719,0,8.533,3.814,8.533,8.533
				s-3.814,8.533-8.533,8.533h-17.425c-4.71,0-8.533-3.814-8.533-8.533S212.07,59.731,216.781,59.731z M155.776,59.731h17.434
				c4.719,0,8.533,3.814,8.533,8.533s-3.814,8.533-8.533,8.533h-17.434c-4.719,0-8.533-3.814-8.533-8.533
				S151.057,59.731,155.776,59.731z M94.771,59.731h17.425c4.719,0,8.533,3.814,8.533,8.533s-3.814,8.533-8.533,8.533H94.771
				c-4.71,0-8.533-3.814-8.533-8.533S90.061,59.731,94.771,59.731z M34.133,120.753c0-4.71,3.814-8.533,8.533-8.533
				s8.533,3.823,8.533,8.533v17.587c0,4.719-3.814,8.533-8.533,8.533s-8.533-3.814-8.533-8.533V120.753z M34.133,182.295
				c0-4.71,3.814-8.533,8.533-8.533s8.533,3.823,8.533,8.533v17.587c0,4.719-3.814,8.533-8.533,8.533s-8.533-3.814-8.533-8.533
				V182.295z M34.133,243.837c0-4.719,3.814-8.533,8.533-8.533s8.533,3.814,8.533,8.533v17.587c0,4.71-3.814,8.533-8.533,8.533
				s-8.533-3.823-8.533-8.533V243.837z M34.133,305.388c0-4.719,3.814-8.533,8.533-8.533s8.533,3.814,8.533,8.533v17.587
				c0,4.71-3.814,8.533-8.533,8.533s-8.533-3.823-8.533-8.533V305.388z M51.2,383.997H34.133v-17.067
				c0-4.719,3.814-8.533,8.533-8.533s8.533,3.814,8.533,8.533c4.719,0,8.533,3.814,8.533,8.533S55.919,383.997,51.2,383.997z
				 M51.2,76.797c0,4.719-3.814,8.533-8.533,8.533s-8.533-3.814-8.533-8.533V59.731H51.2c4.719,0,8.533,3.814,8.533,8.533
				S55.919,76.797,51.2,76.797z M110.933,383.997H93.867c-4.719,0-8.533-3.814-8.533-8.533s3.814-8.533,8.533-8.533h17.067
				c4.719,0,8.533,3.814,8.533,8.533S115.652,383.997,110.933,383.997z M170.667,383.997H153.6c-4.719,0-8.533-3.814-8.533-8.533
				s3.814-8.533,8.533-8.533h17.067c4.719,0,8.533,3.814,8.533,8.533S175.386,383.997,170.667,383.997z M230.4,383.997h-17.067
				c-4.719,0-8.533-3.814-8.533-8.533s3.814-8.533,8.533-8.533H230.4c4.719,0,8.533,3.814,8.533,8.533
				S235.119,383.997,230.4,383.997z M281.6,383.997h-8.533c-4.719,0-8.533-3.814-8.533-8.533s3.814-8.533,8.533-8.533h8.533
				c4.719,0,8.533,3.814,8.533,8.533S286.319,383.997,281.6,383.997z M426.667,418.131v39.134l-36.634-36.634
				c-1.664-1.664-3.849-2.5-6.033-2.5c-2.185,0-4.369,0.836-6.033,2.5l-36.634,36.634v-39.134v-34.5
				c25.796,15.002,59.537,15.002,85.333,0V418.131z M434.825,358.491c-1.937,0.085-3.823,0.742-5.325,2.091
				c-12.578,11.273-28.732,17.493-45.5,17.493s-32.922-6.221-45.5-17.493c-1.502-1.348-3.388-2.005-5.316-2.091
				c-20.898-15.565-34.517-40.363-34.517-68.361c0-47.053,38.281-85.333,85.333-85.333s85.333,38.281,85.333,85.333
				C469.333,318.128,455.714,342.926,434.825,358.491z M477.867,204.797c0,4.719-3.814,8.533-8.533,8.533s-8.533-3.814-8.533-8.533
				v-8.533c0-4.719,3.814-8.533,8.533-8.533s8.533,3.814,8.533,8.533V204.797z M477.867,146.489c0,4.719-3.814,8.533-8.533,8.533
				s-8.533-3.814-8.533-8.533v-19.908c0-4.719,3.814-8.533,8.533-8.533s8.533,3.814,8.533,8.533V146.489z M477.867,76.797
				c0,4.719-3.814,8.533-8.533,8.533s-8.533-3.814-8.533-8.533c-4.719,0-8.533-3.814-8.533-8.533s3.814-8.533,8.533-8.533h17.067
				V76.797z"/>
		</g>
	</g>
</g>
<g>
</g>
<g>
</g>
<g>
</g>
<g>
</g>
<g>
</g>
<g>
</g>
<g>
</g>
<g>
</g>
<g>
</g>
<g>
</g>
<g>
</g>
<g>
</g>
<g>
</g>
<g>
</g>
<g>
</g>
</svg>
