<?xml version="1.0" encoding="iso-8859-1"?>
<!-- Generator: Adobe Illustrator 19.0.0, SVG Export Plug-In . SVG Version: 6.00 Build 0)  -->
<svg version="1.1" id="Layer_1" xmlns="http://www.w3.org/2000/svg" xmlns:xlink="http://www.w3.org/1999/xlink" x="0px" y="0px"
	 viewBox="0 0 503.708 503.708" style="enable-background:new 0 0 503.708 503.708;" xml:space="preserve">
<g>
	<g>
		<g>
			<path d="M495.264,0.101H394.543c-4.642,0-8.393,3.76-8.393,8.393v67.148h41.967c4.642,0,8.393,3.76,8.393,8.393
				s-3.752,8.393-8.393,8.393h-41.967v25.18h58.754c4.642,0,8.393,3.76,8.393,8.393c0,4.633-3.752,8.393-8.393,8.393h-58.754v25.18
				h41.967c4.642,0,8.393,3.76,8.393,8.393c0,4.633-3.752,8.393-8.393,8.393h-41.967v25.18h58.754c4.642,0,8.393,3.76,8.393,8.393
				s-3.752,8.393-8.393,8.393h-58.754v25.18h41.967c4.642,0,8.393,3.76,8.393,8.393c0,4.633-3.752,8.393-8.393,8.393h-41.967v25.18
				h58.754c4.642,0,8.393,3.76,8.393,8.393s-3.752,8.393-8.393,8.393h-58.754v25.18h41.967c4.642,0,8.393,3.76,8.393,8.393
				s-3.752,8.393-8.393,8.393h-41.967v25.18h58.754c4.642,0,8.393,3.76,8.393,8.393c0,4.633-3.752,8.393-8.393,8.393h-58.754v25.18
				h41.967c4.642,0,8.393,3.76,8.393,8.393s-3.752,8.393-8.393,8.393h-41.967v25.18h58.754c4.642,0,8.393,3.76,8.393,8.393
				s-3.752,8.393-8.393,8.393h-58.754v25.18c0,4.633,3.752,8.393,8.393,8.393h100.721c4.642,0,8.393-3.76,8.393-8.393V8.495
				C503.658,3.861,499.906,0.101,495.264,0.101z M453.297,67.249c-9.266,0-16.787-7.512-16.787-16.787
				c0-9.275,7.521-16.787,16.787-16.787s16.787,7.512,16.787,16.787C470.084,59.737,462.563,67.249,453.297,67.249z"/>
			<path d="M154.15,223.986l6.95,13.916l2.745,5.363l128.52-128.52l-4.919-1.637c-30.275-12.943-51.72-34.396-64.411-64.008
				l-1.872-5.59L92.483,172.19l5.338,2.518C102.916,177.604,142.592,200.896,154.15,223.986z"/>
			<path d="M293.403,97.429l12.061,4.02l19.473-19.876c6.908-6.899,10.87-16.711,10.87-26.918c0-10.198-3.962-20.01-10.87-26.918
				l-16.787-16.787c-14.579-14.588-39.231-14.596-53.777-0.059l-19.918,19.515l4.247,12.724
				C249.397,68.002,267.879,86.492,293.403,97.429z"/>
			<path d="M8.444,335.839c1.469,0,2.946-0.378,4.272-1.167l72.771-43.016l-40.96-41.757l-43.31,73.275
				c-1.947,3.299-1.418,7.495,1.293,10.206C4.122,335,6.271,335.839,8.444,335.839z"/>
			<path d="M150.264,253.367l-11.13-21.873c-7.881-15.746-38.098-35.597-49.085-41.925l-7.714-3.634L53.37,234.944l47.003,47.918
				L150.264,253.367z"/>
			<path d="M360.968,436.56h-17.005c-2.182-41.867-20.597-79.494-49.043-106.739l-20.346,20.346
				c-1.637,1.637-3.785,2.459-5.934,2.459c-2.149,0-4.297-0.823-5.934-2.459c-3.282-3.282-3.282-8.586,0-11.868l19.431-19.431
				c-24.887-19.28-55.623-31.224-89.038-32.978v24.769c0,4.633-3.752,8.393-8.393,8.393s-8.393-3.76-8.393-8.393v-24.769
				c-33.414,1.754-64.151,13.698-89.038,32.978l19.431,19.431c3.282,3.282,3.282,8.586,0,11.868
				c-1.637,1.637-3.785,2.459-5.934,2.459c-2.149,0-4.297-0.823-5.934-2.459l-20.346-20.346
				c-28.437,27.245-46.861,64.873-49.043,106.739H8.444c-4.642,0-8.393,3.76-8.393,8.393v50.361c0,4.633,3.752,8.393,8.393,8.393
				h33.574v-25.18c0-4.633,3.752-8.393,8.393-8.393c4.642,0,8.393,3.76,8.393,8.393v25.18h50.361v-25.18
				c0-4.633,3.752-8.393,8.393-8.393c4.642,0,8.393,3.76,8.393,8.393v25.18h50.361v-25.18c0-4.633,3.752-8.393,8.393-8.393
				s8.393,3.76,8.393,8.393v25.18h50.361v-25.18c0-4.633,3.752-8.393,8.393-8.393c4.642,0,8.393,3.76,8.393,8.393v25.18h50.361
				v-25.18c0-4.633,3.752-8.393,8.393-8.393c4.642,0,8.393,3.76,8.393,8.393v25.18h33.574c4.642,0,8.393-3.76,8.393-8.393v-50.361
				C369.362,440.32,365.61,436.56,360.968,436.56z M92.756,436.56c4.255-46.995,43.872-83.934,91.95-83.934
				c48.086,0,87.695,36.94,91.95,83.934H92.756z"/>
		</g>
	</g>
</g>
<g>
</g>
<g>
</g>
<g>
</g>
<g>
</g>
<g>
</g>
<g>
</g>
<g>
</g>
<g>
</g>
<g>
</g>
<g>
</g>
<g>
</g>
<g>
</g>
<g>
</g>
<g>
</g>
<g>
</g>
</svg>
