<?xml version="1.0" encoding="iso-8859-1"?>
<!-- Generator: Adobe Illustrator 19.0.0, SVG Export Plug-In . SVG Version: 6.00 Build 0)  -->
<svg version="1.1" id="Layer_1" xmlns="http://www.w3.org/2000/svg" xmlns:xlink="http://www.w3.org/1999/xlink" x="0px" y="0px"
	 viewBox="0 0 503.609 503.609" style="enable-background:new 0 0 503.609 503.609;" xml:space="preserve">
<g>
	<g>
		<g>
			<path d="M486.687,285.327h-4.784l10.853-10.853c2.09-2.09,2.921-5.112,2.207-7.974l-8.393-33.574
				c-0.504-2.023-1.746-3.785-3.483-4.944l-25.18-16.787c-3.341-2.224-7.764-1.779-10.593,1.049l-25.18,25.18
				c-1.578,1.57-2.459,3.71-2.459,5.934v25.18c0,2.644,1.242,5.128,3.357,6.715l13.429,10.072h-33.439
				c-9.333,0-16.921,7.588-16.921,16.921v16.653h-86.872c-6.933-19.532-25.541-33.574-47.423-33.574
				c-15.469,0-29.327,7.025-38.568,18.037c-42.412-16.023-70.547-56.236-70.547-101.972c0-5.053,0.47-10.064,3.567-17.148
				c11.331-0.974,21.311-6.387,28.278-14.588l108.703,57.017c0.26,0.134,0.554,0.201,0.823,0.311
				c0.101,0.042,0.168,0.126,0.269,0.159l55.355,19.657l21.773,11.423c2.484,1.301,5.154,1.922,7.772,1.922
				c6.043,0,11.902-3.273,14.898-8.989l15.595-29.738c4.297-8.184,1.125-18.357-7.067-22.662l-21.781-11.424l-47.641-34.371
				c-0.159-0.109-0.361-0.118-0.52-0.227c-0.185-0.109-0.302-0.294-0.495-0.394L136.395,54.868
				c-1.972-1.032-4.281-1.242-6.396-0.579c-2.124,0.663-3.903,2.14-4.935,4.113l-3.895,7.428L91.44,50.243l7.797-14.865
				c1.032-1.981,1.242-4.289,0.571-6.421c-0.672-2.132-2.166-3.903-4.146-4.935L51.16,0.991c-1.972-1.024-4.281-1.217-6.404-0.546
				c-2.124,0.68-3.895,2.166-4.91,4.146L0.934,80.04c-1.032,1.998-1.217,4.331-0.512,6.471c0.705,2.132,2.241,3.903,4.264,4.902
				l44.418,21.915c1.192,0.596,2.459,0.873,3.71,0.873c3.022,0,5.934-1.637,7.437-4.499l7.797-14.865l29.73,15.595l-3.903,7.437
				c-1.032,1.972-1.242,4.272-0.579,6.404c0.663,2.115,2.149,3.895,4.113,4.927l4.919,2.577c-0.94,3.492-1.603,7.084-1.603,10.861
				c0,5.582,1.142,10.895,3.131,15.771c-9.443,17.433-11.524,29.587-11.524,42.983c0,68.339,44.586,129.477,109.115,151.057v67.173
				h-16.787v83.934h134.295v-83.934h-16.787v-50.361h193.049c4.633,0,8.393-3.76,8.393-8.393v-33.574v-25.046
				C503.609,292.915,496.021,285.327,486.687,285.327z M310.165,193.402l11.096-21.16l34.38,24.803l-8.318,15.855l-8.31,15.847
				l-39.953-14.185L310.165,193.402z M110.275,86.604l-4.7,8.964l-29.73-15.595l7.798-14.865l29.73,15.595L110.275,86.604z
				 M141.289,167.643c-8.712-0.487-16.409-5.372-20.597-13.069c-0.034-0.067-0.101-0.117-0.134-0.185
				c-1.88-3.525-3.047-7.487-3.047-11.751c0-3.97,1.007-7.68,2.652-11.021c0.017-0.042,0.067-0.076,0.084-0.117
				c1.511-3.022,3.559-5.615,5.968-7.747c0.403-0.352,0.806-0.697,1.234-1.024c0.588-0.453,1.183-0.906,1.813-1.309
				c1.074-0.688,2.191-1.318,3.374-1.838c0.361-0.159,0.739-0.26,1.108-0.403c1.032-0.394,2.09-0.739,3.189-0.99
				c0.42-0.101,0.848-0.201,1.276-0.277c1.46-0.269,2.946-0.453,4.482-0.453c13.883,0,25.18,11.298,25.18,25.18
				c0,2.023-0.277,4.029-0.806,6.018c-0.025,0.101-0.067,0.201-0.101,0.302c-0.546,1.956-1.318,3.895-2.367,5.783
				c-0.025,0.05-0.017,0.101-0.042,0.143c-4.314,7.672-12.448,12.934-21.865,12.934c-0.336,0-0.646-0.084-0.982-0.101
				C141.566,167.701,141.44,167.651,141.289,167.643z M285.379,360.868v58.754h-67.148v-73.199v-10.735
				c0-1.972,0.252-3.878,0.579-5.758c0.143-0.764,0.311-1.519,0.504-2.275c0.243-0.999,0.571-1.956,0.906-2.913
				c0.839-2.367,1.872-4.675,3.248-6.857c0.008-0.017,0.008-0.042,0.017-0.059c5.959-9.409,16.384-15.713,28.319-15.713
				c18.516,0,33.574,15.058,33.574,33.574V360.868z M486.822,318.901h-83.892l0.092-16.787l83.8,0.134V318.901z"/>
			<circle cx="142.691" cy="142.638" r="8.393"/>
			<circle cx="251.805" cy="335.688" r="8.393"/>
			<path d="M109.654,489.085c3.089,8.788,11.096,14.47,20.413,14.47h37.804v-79.57l-51.318,41.052
				C109.285,470.855,106.574,480.297,109.654,489.085z"/>
			<path d="M387.056,465.036l-51.318-41.052v79.57h37.804c9.317,0,17.332-5.674,20.413-14.47
				C397.035,480.295,394.333,470.852,387.056,465.036z"/>
		</g>
	</g>
</g>
<g>
</g>
<g>
</g>
<g>
</g>
<g>
</g>
<g>
</g>
<g>
</g>
<g>
</g>
<g>
</g>
<g>
</g>
<g>
</g>
<g>
</g>
<g>
</g>
<g>
</g>
<g>
</g>
<g>
</g>
</svg>
