<?xml version="1.0" encoding="iso-8859-1"?>
<!-- Generator: Adobe Illustrator 19.0.0, SVG Export Plug-In . SVG Version: 6.00 Build 0)  -->
<svg version="1.1" id="Layer_1" xmlns="http://www.w3.org/2000/svg" xmlns:xlink="http://www.w3.org/1999/xlink" x="0px" y="0px"
	 viewBox="0 0 512 512" style="enable-background:new 0 0 512 512;" xml:space="preserve">
<g>
	<g>
		<path d="M503.172,70.731H419.31l-13.241-12.359c-1.766-1.766-3.531-2.648-5.297-2.648C352.221,49.545,301.903,54.841,256,70.731
			c-67.09-23.834-146.538-23.834-213.628,0H35.31H8.828C3.531,70.731,0,75.145,0,79.559v344.276v26.483
			c0,5.297,3.531,8.828,8.828,8.828h494.345c5.297,0,8.828-3.531,8.828-8.828v-26.483V79.559
			C512,75.145,508.469,70.731,503.172,70.731z M308.966,132.524h61.793c5.297,0,8.828,3.531,8.828,8.828s-3.531,8.828-8.828,8.828
			h-61.793c-5.297,0-8.828-3.531-8.828-8.828C300.138,136.938,303.669,132.524,308.966,132.524z M308.966,176.662h52.966
			c5.297,0,8.828,3.531,8.828,8.828s-3.531,8.828-8.828,8.828h-52.966c-5.297,0-8.828-3.531-8.828-8.828
			C300.138,181.076,303.669,176.662,308.966,176.662z M308.966,220.8h70.621c5.297,0,8.828,3.531,8.828,8.828
			s-3.531,8.828-8.828,8.828h-70.621c-5.297,0-8.828-3.531-8.828-8.828C300.138,225.214,303.669,220.8,308.966,220.8z
			 M308.966,264.938h52.966c5.297,0,8.828,3.531,8.828,8.828s-3.531,8.828-8.828,8.828h-52.966c-5.297,0-8.828-3.531-8.828-8.828
			C300.138,269.352,303.669,264.938,308.966,264.938z M370.759,317.904c0,5.297-3.531,8.828-8.828,8.828h-17.655
			c-5.297,0-8.828-3.531-8.828-8.828c0-5.297,3.531-8.828,8.828-8.828h17.655C367.228,309.076,370.759,313.49,370.759,317.904z
			 M301.021,314.372c0-0.883,0.883-1.766,1.766-2.648c1.766-1.766,5.297-2.648,7.945-2.648c0.883,0,0.883,0,1.766,0.883
			c0.883,0,0.883,0.883,1.766,0.883c0,0,0.883,0.883,1.766,0.883c0.883,0.883,1.766,1.766,1.766,2.648c0,1.765,0,2.648,0,3.531
			c0,2.648-0.883,4.414-2.648,6.179c-0.883,0.883-1.766,1.766-2.648,1.766c-0.883,0.883-2.648,0.883-3.531,0.883
			c-2.648,0-4.414-0.883-6.179-2.648c-1.766-1.766-2.648-3.531-2.648-6.179C300.138,317.021,300.138,316.138,301.021,314.372z
			 M123.586,132.524h79.448c5.297,0,8.828,3.531,8.828,8.828s-3.531,8.828-8.828,8.828h-79.448c-5.297,0-8.828-3.531-8.828-8.828
			C114.759,136.938,118.29,132.524,123.586,132.524z M82.097,135.172c3.531-3.531,8.828-3.531,12.359,0
			c1.766,1.766,2.648,4.414,2.648,6.179c0,2.648-0.883,4.414-2.648,6.179c-1.766,1.766-3.531,2.648-6.179,2.648
			c-0.883,0-2.648,0-3.531-0.883s-1.766-0.883-2.648-1.766c-1.766-1.766-2.648-3.531-2.648-6.179
			C79.448,139.586,80.331,136.938,82.097,135.172z M88.276,176.662h114.759c5.297,0,8.828,3.531,8.828,8.828
			s-3.531,8.828-8.828,8.828H88.276c-5.297,0-8.828-3.531-8.828-8.828C79.448,181.076,82.979,176.662,88.276,176.662z
			 M210.979,233.159c0,0.883-0.883,1.766-1.766,2.648c-1.766,1.766-3.531,2.648-6.179,2.648s-4.414-0.883-6.179-2.648
			c-0.883-0.883-1.766-1.766-1.766-2.648c0-0.883-0.883-1.766-0.883-3.531c0-2.648,0.883-4.414,2.648-6.179
			c2.648-2.648,6.179-3.531,9.71-1.766c0.883,0.883,1.766,0.883,2.648,1.766c1.766,1.766,2.648,3.531,2.648,6.179
			C211.862,230.51,211.862,232.276,210.979,233.159z M211.862,273.766c0,5.297-3.531,8.828-8.828,8.828h-79.448
			c-5.297,0-8.828-3.531-8.828-8.828s3.531-8.828,8.828-8.828h79.448C208.331,264.938,211.862,269.352,211.862,273.766z
			 M88.276,220.8h79.448c5.297,0,8.828,3.531,8.828,8.828s-3.531,8.828-8.828,8.828H88.276c-5.297,0-8.828-3.531-8.828-8.828
			C79.448,225.214,82.979,220.8,88.276,220.8z M80.331,270.234c0-0.883,0.883-1.766,1.766-2.648c3.531-3.531,9.71-3.531,12.359,0
			c0.883,0.883,1.766,1.766,1.766,2.648s0.883,2.648,0.883,3.531c0,2.648-0.883,4.414-2.648,6.179
			c-1.766,1.766-3.531,2.648-6.179,2.648c-2.648,0-4.414-0.883-6.179-2.648c-1.766-1.766-2.648-3.531-2.648-6.179
			C79.448,272.883,79.448,272,80.331,270.234z M88.276,309.076h114.759c5.297,0,8.828,3.531,8.828,8.828
			c0,5.297-3.531,8.828-8.828,8.828H88.276c-5.297,0-8.828-3.531-8.828-8.828C79.448,313.49,82.979,309.076,88.276,309.076z
			 M47.669,414.124c3.531-1.766,7.062-2.648,10.593-4.414c0.883,0,2.648-0.883,3.531-0.883c2.648-0.883,4.414-1.766,7.062-2.648
			c1.766,0,2.648,0,4.414-0.883c1.766-0.883,4.414-0.883,7.062-1.766c1.766,0,3.531-0.883,4.414-0.883
			c1.766-0.883,4.414-0.883,6.179-1.766c1.766,0,3.531-0.883,5.297-0.883s4.414-0.883,7.062-0.883c1.766,0,3.531,0,5.297-0.883
			c2.648,0,4.414,0,7.062-0.883c1.766,0,3.531,0,5.297,0c2.648,0,4.414,0,7.062,0c1.766,0,3.531,0,4.414,0c2.648,0,5.297,0,7.945,0
			c1.766,0,2.648,0,4.414,0c3.531,0,6.179,0,9.71,0.883c0.883,0,1.766,0,2.648,0c4.414,0,8.828,0.883,12.359,1.766
			c0.883,0,1.766,0,3.531,0.883c3.531,0.883,6.179,0.883,9.71,1.766c1.766,0,3.531,0.883,4.414,0.883
			c2.648,0.883,5.297,0.883,7.945,1.766c1.766,0,3.531,0.883,5.297,0.883c2.648,0.883,5.297,0.883,7.945,1.766
			c1.766,0.883,3.531,0.883,5.297,1.766c2.648,0.883,5.297,1.766,7.945,2.648c1.766,0.883,3.531,0.883,5.297,1.766
			c0.883,0,2.648,0.883,3.531,0.883H44.138C45.021,415.007,46.786,415.007,47.669,414.124z M17.655,88.386h8.828v317.793
			c0,5.297,3.531,8.828,8.828,8.828H17.655V88.386z M494.345,441.49H17.655v-8.828h476.69V441.49z M494.345,415.007H282.483
			c4.414-1.766,8.828-2.648,13.241-4.414c0.883,0,1.766-0.883,2.648-0.883c6.179-1.766,11.476-3.531,17.655-4.414
			c1.766-0.883,4.414-0.883,6.179-0.883c3.531-0.883,7.062-1.766,11.476-2.648c2.648,0,4.414-0.883,7.062-0.883
			c3.531-0.883,6.179-0.883,9.71-1.766c2.648,0,4.414-0.883,7.062-0.883c3.531,0,6.179-0.883,9.71-0.883c1.766,0,4.414,0,6.179,0
			c3.531,0,7.062,0,9.71,0c1.766,0,3.531,0,5.297,0c5.297,0,9.71,0,15.007,0.883c2.648,0,5.297-0.883,7.062-2.648l19.421-19.421
			c3.531-3.531,3.531-8.828,0-12.359l-29.131-28.248l29.131-29.131c3.531-3.531,3.531-8.828,0-12.359l-29.131-29.131l29.131-29.131
			c3.531-3.531,3.531-8.828,0-12.359l-29.131-29.131l29.131-29.131c3.531-3.531,3.531-8.828,0-12.359l-29.131-29.131l29.131-29.131
			c0.883-0.883,1.766-1.766,1.766-2.648v-0.883c0.883-0.883,0.883-1.766,0.883-2.648h61.793V415.007z"/>
	</g>
</g>
<g>
</g>
<g>
</g>
<g>
</g>
<g>
</g>
<g>
</g>
<g>
</g>
<g>
</g>
<g>
</g>
<g>
</g>
<g>
</g>
<g>
</g>
<g>
</g>
<g>
</g>
<g>
</g>
<g>
</g>
</svg>
