<?xml version="1.0" encoding="iso-8859-1"?>
<!-- Generator: Adobe Illustrator 19.0.0, SVG Export Plug-In . SVG Version: 6.00 Build 0)  -->
<svg version="1.1" id="Layer_1" xmlns="http://www.w3.org/2000/svg" xmlns:xlink="http://www.w3.org/1999/xlink" x="0px" y="0px"
	 viewBox="0 0 512 512" style="enable-background:new 0 0 512 512;" xml:space="preserve">
<g>
	<g>
		<path d="M485.517,39.89h-15.89c-20.303-7.062-41.49-11.476-63.559-15.007v76.8h26.483c5.297,0,8.828,3.531,8.828,8.828
			c0,5.297-3.531,8.828-8.828,8.828h-26.483v70.621h26.483c5.297,0,8.828,3.531,8.828,8.828c0,5.297-3.531,8.828-8.828,8.828
			h-26.483v70.621h26.483c5.297,0,8.828,3.531,8.828,8.828s-3.531,8.828-8.828,8.828h-26.483v53.848c-1.766,0-3.531,0-5.297-0.883
			c-0.883,0-2.648,0-3.531,0s-0.883,0-1.766,0h-7.062V24.001c-17.655-1.766-35.31-1.766-52.966,0V353.27l-10.593,1.766
			c-2.648,0.883-4.414,0.883-7.062,1.766v-69.738c0,2.648-0.883,4.414-2.648,6.179s-3.531,2.648-6.179,2.648
			s-4.414-0.883-6.179-2.648s-2.648-3.531-2.648-6.179c0-0.883,0-2.648,0.883-3.531c0-0.883,0.883-1.766,1.766-2.648
			c0.883-0.883,1.766-1.766,2.648-1.766c1.766-0.883,4.414-0.883,7.062,0c0.883,0.883,1.766,0.883,2.648,1.766
			c0.883,0.883,1.766,1.766,1.766,2.648c0.883,1.766,0.883,2.648,0.883,3.531v-35.31h-8.828c-5.297,0-8.828-3.531-8.828-8.828
			c0-5.297,3.531-8.828,8.828-8.828h8.828v-26.483h-8.828c-5.297,0-8.828-3.531-8.828-8.828c0-5.297,3.531-8.828,8.828-8.828h8.828
			v-26.483h-8.828c-5.297,0-8.828-3.531-8.828-8.828c0-5.297,3.531-8.828,8.828-8.828h8.828v-26.483h-8.828
			c-5.297,0-8.828-3.531-8.828-8.828c0-5.297,3.531-8.828,8.828-8.828h8.828v-76.8c-21.186,2.648-41.49,7.945-61.793,14.124
			C188.91,16.056,109.462,16.056,42.372,39.89h-15.89H0v344.276v17.655v26.483h317.793v61.793l44.138-32.662l44.138,32.662v-61.793
			H512v-26.483v-17.655V39.89H485.517z M123.586,101.684h79.448c5.297,0,8.828,3.531,8.828,8.828c0,5.297-3.531,8.828-8.828,8.828
			h-79.448c-5.297,0-8.828-3.531-8.828-8.828C114.759,106.097,118.29,101.684,123.586,101.684z M82.097,104.332
			c3.531-3.531,8.828-3.531,12.359,0c1.766,1.766,2.648,4.414,2.648,6.179c0,0.883,0,2.648-0.883,3.531
			c0,0.883-0.883,1.766-1.766,2.648c-0.883,0.883-1.766,1.766-2.648,1.766s-2.648,0.883-3.531,0.883
			c-2.648,0-4.414-0.883-6.179-2.648c-1.766-1.766-2.648-3.531-2.648-6.179C79.448,108.746,80.331,106.097,82.097,104.332z
			 M88.276,145.821h114.759c5.297,0,8.828,3.531,8.828,8.828c0,5.297-3.531,8.828-8.828,8.828H88.276
			c-5.297,0-8.828-3.531-8.828-8.828C79.448,150.235,82.979,145.821,88.276,145.821z M210.979,202.318
			c0,0.883-0.883,1.766-1.766,2.648c-0.883,0.883-1.766,1.766-2.648,1.766s-2.648,0.883-3.531,0.883
			c-2.648,0-4.414-0.883-6.179-2.648c-0.883-0.883-1.766-1.766-1.766-2.648s-0.883-1.766-0.883-3.531
			c0-2.648,0.883-4.414,2.648-6.179c3.531-3.531,8.828-3.531,12.359,0c1.766,1.766,2.648,4.414,2.648,6.179
			C211.862,199.67,211.862,201.435,210.979,202.318z M211.862,242.925c0,5.297-3.531,8.828-8.828,8.828h-79.448
			c-5.297,0-8.828-3.531-8.828-8.828c0-5.297,3.531-8.828,8.828-8.828h79.448C208.331,234.097,211.862,238.511,211.862,242.925z
			 M88.276,189.959h79.448c5.297,0,8.828,3.531,8.828,8.828c0,5.297-3.531,8.828-8.828,8.828H88.276
			c-5.297,0-8.828-3.531-8.828-8.828C79.448,194.373,82.979,189.959,88.276,189.959z M80.331,239.394
			c0-0.883,0.883-1.766,1.766-2.648c2.648-2.648,6.179-3.531,9.71-1.766c0.883,0.883,1.766,0.883,2.648,1.766
			c0.883,0.883,1.766,1.766,1.766,2.648s0.883,2.648,0.883,3.531c0,2.648-0.883,4.414-2.648,6.179
			c-1.766,1.766-3.531,2.648-6.179,2.648c-0.883,0-2.648,0-3.531-0.883s-1.766-0.883-2.648-1.766
			c-1.766-1.766-2.648-3.531-2.648-6.179C79.448,242.042,79.448,241.159,80.331,239.394z M88.276,278.235h114.759
			c5.297,0,8.828,3.531,8.828,8.828s-3.531,8.828-8.828,8.828H88.276c-5.297,0-8.828-3.531-8.828-8.828
			C79.448,282.649,82.979,278.235,88.276,278.235z M47.669,383.284c3.531-1.766,7.062-2.648,10.593-4.414
			c0.883-0.883,2.648-0.883,3.531-1.766c2.648-0.883,4.414-1.766,7.062-2.648c1.766,0.883,3.531,0,4.414,0
			c1.766-0.883,4.414-0.883,6.179-1.766c1.766,0,3.531-0.883,5.297-0.883c1.766-0.883,4.414-0.883,6.179-0.883
			s3.531-0.883,5.297-0.883s4.414-0.883,6.179-0.883c1.766,0,3.531,0,5.297-0.883c1.766,0,4.414,0,6.179-0.883
			c1.766,0,3.531,0,5.297,0c2.648,0,4.414,0,7.062,0c1.766,0,3.531,0,5.297,0c2.648,0,4.414,0,7.062,0c1.766,0,3.531,0,5.297,0
			c2.648,0,6.179,0,8.828,0.883c0.883,0,2.648,0,3.531,0c4.414,0,7.945,0.883,12.359,1.766c0.883,0,2.648,0,3.531,0.883
			c2.648,0.883,6.179,0.883,8.828,1.766c1.766,0,3.531,0.883,5.297,0.883c2.648,0.883,5.297,0.883,7.945,1.766
			c1.766,0,3.531,0.883,5.297,0.883c2.648,0.883,5.297,0.883,7.945,1.766c1.766,0.883,3.531,0.883,5.297,1.766
			c2.648,0.883,5.297,1.766,7.945,2.648c1.766,0.883,3.531,0.883,5.297,1.766c0.883,0,2.648,0.883,3.531,0.883H45.903
			L47.669,383.284z M17.655,57.546h8.828v326.621h-8.828V57.546z M317.793,410.649H17.655v-8.828h300.138V410.649z M317.793,384.166
			h-35.31c1.766,0,2.648-0.883,4.414-0.883c1.766-0.883,3.531-0.883,5.297-1.766c8.828-2.648,17.655-4.414,25.6-7.062V384.166z
			 M388.414,384.166v17.655v26.483v26.483l-26.483-19.421l-26.483,19.421v-26.483v-26.483v-17.655v-13.241l52.966-4.414V384.166z
			 M440.497,158.18c0,0.883-0.883,1.766-1.766,2.648c-1.766,1.766-3.531,2.648-6.179,2.648c-2.648,0-4.414-0.883-6.179-2.648
			c-1.766-1.766-2.648-3.531-2.648-6.179c0-2.648,0.883-4.414,2.648-6.179c3.531-3.531,9.71-3.531,12.359,0
			c1.766,1.766,2.648,4.414,2.648,6.179C441.379,155.532,441.379,157.297,440.497,158.18z M438.731,249.104
			c-1.766,1.766-3.531,2.648-6.179,2.648c-0.883,0-2.648,0-3.531-0.883c-0.883-0.883-1.766-0.883-2.648-1.766
			c-1.766-1.766-2.648-3.531-2.648-6.179c0-0.883,0-2.648,0.883-3.531c0-0.883,0.883-1.766,1.766-2.648
			c3.531-3.531,9.71-3.531,12.359,0c0.883,0.883,1.766,1.766,1.766,2.648c0.883,1.766,0.883,2.648,0.883,3.531
			C441.379,245.573,440.497,247.339,438.731,249.104z M406.069,368.277c21.186,1.766,40.607,7.062,58.262,15.007l1.766,0.883
			h-60.028V368.277z M494.345,410.649h-88.276v-8.828h88.276V410.649z M494.345,384.166h-8.828V57.546h8.828V384.166z"/>
	</g>
</g>
<g>
</g>
<g>
</g>
<g>
</g>
<g>
</g>
<g>
</g>
<g>
</g>
<g>
</g>
<g>
</g>
<g>
</g>
<g>
</g>
<g>
</g>
<g>
</g>
<g>
</g>
<g>
</g>
<g>
</g>
</svg>
