<?xml version="1.0" encoding="iso-8859-1"?>
<!-- Generator: Adobe Illustrator 19.0.0, SVG Export Plug-In . SVG Version: 6.00 Build 0)  -->
<svg version="1.1" id="Layer_1" xmlns="http://www.w3.org/2000/svg" xmlns:xlink="http://www.w3.org/1999/xlink" x="0px" y="0px"
	 viewBox="0 0 503.607 503.607" style="enable-background:new 0 0 503.607 503.607;" xml:space="preserve">
<g>
	<g>
		<g>
			<path d="M226.623,167.869h25.18c4.633,0,8.393-3.76,8.393-8.393v-33.574c0-4.633-3.76-8.393-8.393-8.393
				c-4.633,0-8.393,3.76-8.393,8.393v25.18h-16.787c-4.633,0-8.393,3.76-8.393,8.393S221.99,167.869,226.623,167.869z"/>
			<path d="M125.902,310.557c-4.625,0-8.393,3.769-8.393,8.393v58.754h16.787v-58.754
				C134.295,314.326,130.526,310.557,125.902,310.557z"/>
			<path d="M235.016,276.984c-4.625,0-8.393,3.769-8.393,8.393v58.754h16.787v-58.754
				C243.41,280.752,239.641,276.984,235.016,276.984z"/>
			<path d="M268.59,276.984c-4.625,0-8.393,3.769-8.393,8.393v58.754h16.787v-58.754
				C276.984,280.752,273.215,276.984,268.59,276.984z"/>
			<path d="M209.836,409.344v94.258h33.574V394.588h-18.818C216.458,394.588,209.836,401.211,209.836,409.344z"/>
			<path d="M279.016,394.59h-18.818v109.014h33.574v-94.258C293.772,401.212,287.15,394.59,279.016,394.59z"/>
			<path d="M92.328,310.557c-4.625,0-8.393,3.769-8.393,8.393v58.754h16.787v-58.754C100.721,314.326,96.953,310.557,92.328,310.557
				z"/>
			<path d="M411.279,310.557c-4.633,0-8.393,3.769-8.393,8.393v58.754h16.787v-58.754
				C419.672,314.326,415.912,310.557,411.279,310.557z"/>
			<path d="M495.213,486.82h-8.393V226.623c0-4.633-3.752-8.393-8.393-8.393h-41.967V92.328V50.361h50.361
				c4.642,0,8.393-3.76,8.393-8.393V8.393c0-4.633-3.752-8.393-8.393-8.393h-58.754c-4.642,0-8.393,3.76-8.393,8.393v33.574v41.967
				H83.934V41.967V8.393C83.934,3.76,80.174,0,75.541,0H16.787c-4.633,0-8.393,3.76-8.393,8.393v33.574
				c0,4.633,3.76,8.393,8.393,8.393h50.361v41.967v125.902H25.18c-4.633,0-8.393,3.76-8.393,8.393V486.82H8.393
				C3.76,486.82,0,490.58,0,495.213s3.76,8.393,8.393,8.393H25.18h167.869v-94.258c0-17.4,14.151-31.543,31.543-31.543h26.725
				c0.168-0.017,0.311-0.101,0.487-0.101s0.319,0.084,0.487,0.101h26.725c17.391,0,31.543,14.143,31.543,31.543v94.258h167.869
				h16.787c4.642,0,8.393-3.76,8.393-8.393S499.855,486.82,495.213,486.82z M251.803,100.721c32.399,0,58.754,26.355,58.754,58.754
				s-26.355,58.754-58.754,58.754s-58.754-26.355-58.754-58.754S219.405,100.721,251.803,100.721z M151.082,386.098
				c0,4.633-3.76,8.393-8.393,8.393h-33.574H75.541c-4.633,0-8.393-3.76-8.393-8.393v-67.148c0-13.883,11.298-25.18,25.18-25.18
				c6.471,0,12.322,2.526,16.787,6.547c4.465-4.02,10.316-6.547,16.787-6.547c13.883,0,25.18,11.298,25.18,25.18V386.098z
				 M83.934,218.229V100.721h120.496c-17.156,13.858-28.168,35.034-28.168,58.754c0,23.72,11.012,44.897,28.168,58.754H83.934z
				 M293.771,352.525c0,4.633-3.76,8.393-8.393,8.393h-33.574h-33.574c-4.633,0-8.393-3.76-8.393-8.393v-67.148
				c0-13.883,11.298-25.18,25.18-25.18c6.471,0,12.322,2.526,16.787,6.547c4.465-4.02,10.316-6.547,16.787-6.547
				c13.883,0,25.18,11.298,25.18,25.18V352.525z M299.176,218.229c17.156-13.858,28.168-35.034,28.168-58.754
				c0-23.72-11.012-44.896-28.168-58.754h120.496v117.508H299.176z M436.459,386.098c0,4.633-3.752,8.393-8.393,8.393h-33.574
				h-33.574c-4.633,0-8.393-3.76-8.393-8.393v-67.148c0-13.883,11.298-25.18,25.18-25.18c6.471,0,12.322,2.526,16.787,6.547
				c4.465-4.02,10.315-6.547,16.787-6.547c13.883,0,25.18,11.298,25.18,25.18V386.098z"/>
			<path d="M377.705,310.557c-4.625,0-8.393,3.769-8.393,8.393v58.754h16.787v-58.754
				C386.098,314.326,382.33,310.557,377.705,310.557z"/>
		</g>
	</g>
</g>
<g>
</g>
<g>
</g>
<g>
</g>
<g>
</g>
<g>
</g>
<g>
</g>
<g>
</g>
<g>
</g>
<g>
</g>
<g>
</g>
<g>
</g>
<g>
</g>
<g>
</g>
<g>
</g>
<g>
</g>
</svg>
