<?xml version="1.0" encoding="iso-8859-1"?>
<!-- Generator: Adobe Illustrator 19.0.0, SVG Export Plug-In . SVG Version: 6.00 Build 0)  -->
<svg version="1.1" id="Layer_1" xmlns="http://www.w3.org/2000/svg" xmlns:xlink="http://www.w3.org/1999/xlink" x="0px" y="0px"
	 viewBox="0 0 505.25 505.25" style="enable-background:new 0 0 505.25 505.25;" xml:space="preserve">
<g>
	<g>
		<g>
			<path d="M194.323,185.896c-3.337-3.337-8.73-3.337-12.066,0l-48.265,48.273c-0.606,0.597-1.109,1.289-1.51,2.039
				c-17.271,32.606-46.814,62.131-81.058,80.99c-0.734,0.41-1.408,0.922-1.997,1.527L6.598,362.775
				c-3.166,3.243-3.226,8.397-0.154,11.733l23.108,25.045l189.21-189.218L194.323,185.896z"/>
			<path d="M290.564,282.137L98.581,474.12l27.452,28.518c1.613,1.672,3.831,2.611,6.144,2.611h0.247
				c2.406-0.068,4.668-1.152,6.238-2.978l44.041-51.354c0.41-0.478,0.768-0.998,1.058-1.562
				c17.28-32.623,46.831-62.14,81.058-80.998c0.7-0.384,1.348-0.879,1.92-1.442l48.265-48.273c3.337-3.328,3.337-8.73,0-12.066
				L290.564,282.137z"/>
			<path d="M494.156,24.063L476.441,6.629c-4.514-4.446-10.692-6.775-17.084-6.622c-6.332,0.23-12.356,3.106-16.538,7.885
				l-9.037,10.359l48.879,48.879l10.505-9.182c4.821-4.224,7.697-10.317,7.893-16.725C501.239,34.815,498.73,28.56,494.156,24.063z"
				/>
			<path d="M224.498,228.133c-0.529,0.529-0.853,1.186-1.22,1.818L41.134,412.103l45.747,49.587l34.739-34.739l-10.675-10.667
				c-1.527-1.528-2.654-3.405-3.388-5.521c-2.21-6.332-0.888-14.677,3.849-21.265l93.449-93.483
				c6.34-5.495,18.944-5.385,27.341,0.154l10.103,10.103l28.672-28.672c0.614-0.367,1.263-0.666,1.801-1.195l197.504-197.53
				L422.011,30.62L224.498,228.133z"/>
		</g>
	</g>
</g>
<g>
</g>
<g>
</g>
<g>
</g>
<g>
</g>
<g>
</g>
<g>
</g>
<g>
</g>
<g>
</g>
<g>
</g>
<g>
</g>
<g>
</g>
<g>
</g>
<g>
</g>
<g>
</g>
<g>
</g>
</svg>
