<?xml version="1.0" encoding="iso-8859-1"?>
<!-- Generator: Adobe Illustrator 19.0.0, SVG Export Plug-In . SVG Version: 6.00 Build 0)  -->
<svg version="1.1" id="Layer_1" xmlns="http://www.w3.org/2000/svg" xmlns:xlink="http://www.w3.org/1999/xlink" x="0px" y="0px"
	 viewBox="0 0 512.071 512.071" style="enable-background:new 0 0 512.071 512.071;" xml:space="preserve">
<g>
	<g>
		<path d="M503.538,315.49H269.725l212.48-49.493c2.56-0.853,4.267-1.707,5.12-4.267c0.853-1.707,1.707-4.267,0.853-6.827
			l-8.533-28.16l17.067-4.267c4.267-0.853,7.68-5.973,5.973-10.24l-8.533-33.28v-0.853c-6.827-34.987-28.16-51.2-45.227-58.027
			c-66.56-29.867-193.707,16.213-378.027,135.68C34.205,259.17,2.631,288.183,0.071,323.17
			c-0.853,18.773,5.973,37.547,19.627,52.053c14.507,16.213,35.84,25.6,57.173,25.6h426.667c5.12,0,8.533-3.413,8.533-8.533v-68.267
			C512.071,319.757,508.658,315.49,503.538,315.49z M59.805,349.623c-9.387,0-17.067-7.68-17.067-17.067s7.68-17.067,17.067-17.067
			s17.067,7.68,17.067,17.067S69.191,349.623,59.805,349.623z M145.138,315.49c-1.707,0-2.56,0-4.267,0s-2.56-0.853-4.267-0.853
			l-0.853-3.413l89.6-22.187l238.933-58.027l5.12,20.48l-273.92,64H145.138z"/>
	</g>
</g>
<g>
</g>
<g>
</g>
<g>
</g>
<g>
</g>
<g>
</g>
<g>
</g>
<g>
</g>
<g>
</g>
<g>
</g>
<g>
</g>
<g>
</g>
<g>
</g>
<g>
</g>
<g>
</g>
<g>
</g>
</svg>
