<?xml version="1.0" encoding="iso-8859-1"?>
<!-- Generator: Adobe Illustrator 19.0.0, SVG Export Plug-In . SVG Version: 6.00 Build 0)  -->
<svg version="1.1" id="Layer_1" xmlns="http://www.w3.org/2000/svg" xmlns:xlink="http://www.w3.org/1999/xlink" x="0px" y="0px"
	 viewBox="0 0 511.999 511.999" style="enable-background:new 0 0 511.999 511.999;" xml:space="preserve">
<g>
	<g>
		<path d="M267.272,315.116c-6.512-6.512-17.064-6.512-23.576,0l-35.373,35.367l-47.158-47.159l35.367-35.372
			c6.512-6.512,6.512-17.068,0-23.576c-6.512-6.512-17.074-6.512-23.576,0l-35.367,35.372l-11.791-11.79
			c-6.512-6.512-17.064-6.512-23.576,0l-39.576,39.576C27.38,342.788,24.108,397.236,51.901,436.17L4.884,483.188
			c-6.512,6.507-6.512,17.068,0,23.576c6.512,6.512,17.063,6.512,23.575,0l47.019-47.019c38.94,27.797,93.385,24.517,128.636-10.744
			l39.576-39.576c6.512-6.507,6.512-17.068,0-23.576l-11.791-11.79l35.373-35.367C273.784,332.185,273.784,321.628,267.272,315.116z
			"/>
	</g>
</g>
<g>
	<g>
		<path d="M482.293,23.971v-0.006c-8.532-14.566-24.868-23.614-42.637-23.614H282.828c-17.769,0-34.106,9.048-42.631,23.62
			c-39.614,67.7-39.614,151.824,0,219.53c8.526,14.566,24.862,23.614,42.631,23.614h156.828c17.769,0,34.106-9.048,42.637-23.62
			C521.902,175.795,521.902,91.671,482.293,23.971z M311.224,133.733c-9.21,0-16.673-7.463-16.673-16.673V83.715
			c0-9.21,7.463-16.673,16.673-16.673c9.21,0,16.673,7.463,16.673,16.673v33.346C327.896,126.27,320.434,133.733,311.224,133.733z
			 M377.915,200.424h-33.346c-9.21,0-16.673-7.463-16.673-16.673s7.463-16.673,16.673-16.673h33.346
			c9.21,0,16.673,7.463,16.673,16.673S387.125,200.424,377.915,200.424z M427.933,117.06c0,9.21-7.463,16.673-16.673,16.673
			s-16.673-7.463-16.673-16.673V83.715c0-9.21,7.463-16.673,16.673-16.673s16.673,7.463,16.673,16.673V117.06z"/>
	</g>
</g>
<g>
</g>
<g>
</g>
<g>
</g>
<g>
</g>
<g>
</g>
<g>
</g>
<g>
</g>
<g>
</g>
<g>
</g>
<g>
</g>
<g>
</g>
<g>
</g>
<g>
</g>
<g>
</g>
<g>
</g>
</svg>
