<?xml version="1.0" encoding="iso-8859-1"?>
<!-- Generator: Adobe Illustrator 19.0.0, SVG Export Plug-In . SVG Version: 6.00 Build 0)  -->
<svg version="1.1" id="Layer_1" xmlns="http://www.w3.org/2000/svg" xmlns:xlink="http://www.w3.org/1999/xlink" x="0px" y="0px"
	 viewBox="0 0 512 512" style="enable-background:new 0 0 512 512;" xml:space="preserve">
<g>
	<g>
		<path d="M300.522,0c-26.62,0-49.913,15.989-60.587,39.011c-7.076-3.642-14.901-5.62-22.891-5.62
			c-27.619,0-50.087,22.468-50.087,50.087s22.468,50.087,50.087,50.087h83.478c36.826,0,66.783-29.956,66.783-66.783
			C367.304,29.956,337.348,0,300.522,0z"/>
	</g>
</g>
<g>
	<g>
		<path d="M116.87,33.391H16.696C7.479,33.391,0,40.864,0,50.087v50.087h133.565V50.087
			C133.565,40.864,126.087,33.391,116.87,33.391z"/>
	</g>
</g>
<g>
	<g>
		<path d="M502.772,179.848c-5.652-2.826-12.435-2.223-17.489,1.576l-106.848,80.141v-66.783c0-6.327-3.576-12.103-9.228-14.935
			c-5.652-2.826-12.435-2.223-17.489,1.576L244.87,261.565v-66.783c0-6.327-3.576-12.103-9.228-14.935
			c-5.652-2.826-12.424-2.223-17.489,1.576l-84.587,63.446V133.565H0v361.739C0,504.525,7.475,512,16.696,512h478.609
			c9.22,0,16.696-7.475,16.696-16.696V194.783C512,188.456,508.424,182.679,502.772,179.848z M194.805,445.217h-33.391
			c-9.217,0-16.696-7.473-16.696-16.696c0-9.223,7.477-16.696,16.696-16.696h33.391c9.217,0,16.696,7.473,16.696,16.696
			C211.501,437.744,204.022,445.217,194.805,445.217z M194.805,378.435h-33.391c-9.217,0-16.696-7.473-16.696-16.696
			c0-9.223,7.477-16.696,16.696-16.696h33.391c9.217,0,16.696,7.473,16.696,16.696C211.501,370.962,204.022,378.435,194.805,378.435
			z M311.674,445.217h-33.391c-9.217,0-16.696-7.473-16.696-16.696c0-9.223,7.477-16.696,16.696-16.696h33.391
			c9.217,0,16.696,7.473,16.696,16.696C328.37,437.744,320.892,445.217,311.674,445.217z M311.674,378.435h-33.391
			c-9.217,0-16.696-7.473-16.696-16.696c0-9.223,7.477-16.696,16.696-16.696h33.391c9.217,0,16.696,7.473,16.696,16.696
			C328.37,370.962,320.892,378.435,311.674,378.435z M428.544,445.217h-33.391c-9.217,0-16.696-7.473-16.696-16.696
			c0-9.223,7.477-16.696,16.696-16.696h33.391c9.217,0,16.696,7.473,16.696,16.696C445.24,437.744,437.761,445.217,428.544,445.217z
			 M428.544,378.435h-33.391c-9.217,0-16.696-7.473-16.696-16.696c0-9.223,7.477-16.696,16.696-16.696h33.391
			c9.217,0,16.696,7.473,16.696,16.696C445.24,370.962,437.761,378.435,428.544,378.435z"/>
	</g>
</g>
<g>
</g>
<g>
</g>
<g>
</g>
<g>
</g>
<g>
</g>
<g>
</g>
<g>
</g>
<g>
</g>
<g>
</g>
<g>
</g>
<g>
</g>
<g>
</g>
<g>
</g>
<g>
</g>
<g>
</g>
</svg>
