<?xml version="1.0" encoding="iso-8859-1"?>
<!-- Generator: Adobe Illustrator 19.0.0, SVG Export Plug-In . SVG Version: 6.00 Build 0)  -->
<svg version="1.1" id="Layer_1" xmlns="http://www.w3.org/2000/svg" xmlns:xlink="http://www.w3.org/1999/xlink" x="0px" y="0px"
	 viewBox="0 0 512 512" style="enable-background:new 0 0 512 512;" xml:space="preserve">
<g>
	<g>
		<path d="M126.201,30.245c-6.522-6.522-17.087-6.522-23.609,0C72.38,60.457,51.902,98.396,43.375,139.973
			c-1.853,9.032,3.967,17.853,13,19.706c9.03,1.867,17.855-3.967,19.706-13c7.211-35.152,24.544-67.25,50.119-92.826
			C132.722,47.338,132.722,36.762,126.201,30.245z"/>
	</g>
</g>
<g>
	<g>
		<path d="M468.625,139.973c-8.521-41.571-29-79.511-59.217-109.728c-6.521-6.521-17.087-6.521-23.609,0
			c-6.521,6.516-6.521,17.092,0,23.609c25.581,25.581,42.908,57.679,50.119,92.826c1.851,9.033,10.676,14.867,19.706,13
			C464.657,157.832,470.479,149.005,468.625,139.973z"/>
	</g>
</g>
<g>
	<g>
		<path d="M173.803,77.141c-6.483-6.544-17.06-6.587-23.609-0.087c-18.587,18.445-32.081,41.445-39.027,66.511
			c-2.456,8.887,2.75,18.087,11.636,20.549c8.823,2.448,18.075-2.702,20.549-11.636c5.392-19.478,15.891-37.364,30.364-51.729
			C180.26,94.255,180.304,83.684,173.803,77.141z"/>
	</g>
</g>
<g>
	<g>
		<path d="M400.831,143.565c-6.94-25.06-20.434-48.06-39.022-66.511c-6.544-6.5-17.12-6.457-23.609,0.087
			c-6.495,6.544-6.457,17.114,0.087,23.609c14.467,14.369,24.968,32.255,30.358,51.729c2.475,8.933,11.727,14.083,20.55,11.636
			C398.081,161.652,403.287,152.45,400.831,143.565z"/>
	</g>
</g>
<g>
	<g>
		<path d="M396.721,207.059l-90.635-52.325V50.087C306.086,22.468,283.619,0,255.999,0s-50.087,22.468-50.087,50.087v104.647
			l-90.625,52.326c-23.982,13.847-32.176,44.446-18.332,68.424c13.804,23.907,44.511,32.152,68.419,18.326l73.93-42.683v63.602
			c-19.391,6.914-33.391,25.273-33.391,47.01v16.696h100.174V361.74c0-21.737-14-40.096-33.391-47.01v-63.6l73.935,42.686
			c23.926,13.806,54.613,5.569,68.423-18.337C428.857,251.566,420.63,220.869,396.721,207.059z M255.999,217.043
			c-18.413,0-33.391-14.978-33.391-33.391s14.978-33.391,33.391-33.391s33.391,14.978,33.391,33.391
			S274.413,217.043,255.999,217.043z"/>
	</g>
</g>
<g>
	<g>
		<path d="M389.565,478.609h-50.087v-33.391c0-18.442-14.949-33.391-33.391-33.391H205.912c-18.442,0-33.391,14.949-33.391,33.391
			v33.391h-50.087c-9.223,0-16.696,7.473-16.696,16.696c0,9.223,7.473,16.696,16.696,16.696c58.396,0,209.45,0,267.13,0
			c9.223,0,16.696-7.473,16.696-16.696C406.26,486.082,398.787,478.609,389.565,478.609z"/>
	</g>
</g>
<g>
</g>
<g>
</g>
<g>
</g>
<g>
</g>
<g>
</g>
<g>
</g>
<g>
</g>
<g>
</g>
<g>
</g>
<g>
</g>
<g>
</g>
<g>
</g>
<g>
</g>
<g>
</g>
<g>
</g>
</svg>
