<?xml version="1.0" encoding="iso-8859-1"?>
<!-- Generator: Adobe Illustrator 19.0.0, SVG Export Plug-In . SVG Version: 6.00 Build 0)  -->
<svg version="1.1" id="Layer_1" xmlns="http://www.w3.org/2000/svg" xmlns:xlink="http://www.w3.org/1999/xlink" x="0px" y="0px"
	 viewBox="0 0 512 512" style="enable-background:new 0 0 512 512;" xml:space="preserve">
<g>
	<g>
		<path d="M224.012,10.677c-25.562,0-47.904,15.358-58.112,37.348c-6.76-3.463-14.239-5.349-21.885-5.349
			c-26.467,0-47.998,21.531-47.998,47.998s21.531,47.998,47.998,47.998h80.028c0.011,0,0.031,0,0.042,0
			c35.249-0.036,63.925-28.733,63.925-63.997C288.009,39.384,259.302,10.677,224.012,10.677z"/>
	</g>
</g>
<g>
	<g>
		<path d="M448.003,74.675c-25.562,0-47.904,15.358-58.112,37.348c-6.76-3.463-14.239-5.349-21.885-5.349
			c-26.467,0-47.998,21.531-47.998,47.998s21.531,47.998,47.998,47.998h80.028c0.011,0,0.031,0,0.042,0
			C483.324,202.633,512,173.937,512,138.672C512,103.382,483.292,74.675,448.003,74.675z"/>
	</g>
</g>
<g>
	<g>
		<path d="M213.324,218.669V186.67c0-8.853-7.145-15.999-15.999-15.999H69.33c-8.854,0-15.999,7.146-15.999,15.999v31.999
			c0,5.44-0.107,10.88-0.427,15.999h160.847C213.431,229.122,213.324,223.789,213.324,218.669z"/>
	</g>
</g>
<g>
	<g>
		<path d="M437.315,282.666v-31.999c0-8.853-7.145-15.999-15.999-15.999H325.32c-8.854,0-15.999,7.146-15.999,15.999v31.999
			c0,5.546-0.213,10.88-0.854,15.999h129.703C437.528,293.546,437.315,288.213,437.315,282.666z"/>
	</g>
</g>
<g>
	<g>
		<path d="M290.624,317.492c-12-12.14-28.093-18.827-45.301-18.827c-14.5,0-28.707,5.005-39.926,14.041
			c-15.301,12.171-24.071,30.378-24.071,49.956v31.999H309.32v-31.999C309.32,345.455,302.633,329.367,290.624,317.492z"/>
	</g>
</g>
<g>
	<g>
		<path d="M475.714,469.325h-6.4v-26.666c0-32.639-7.359-56.958-15.145-79.997c-0.533-1.707-1.174-3.413-1.709-5.12
			c-3-8.95-5.922-17.749-8.396-26.879H335.812c3.545,10.115,5.508,20.877,5.508,31.999v106.662h-31.999V426.66H181.326v42.665
			h-31.999V362.663c0-29.39,13.177-56.722,36.154-74.997c9.344-7.531,20.135-13.115,31.607-16.651
			c-0.178-1.46-0.384-2.88-0.555-4.349H49.85c-1.556,10.951-3.539,21.527-5.798,31.999c-1.921,9.493-4.053,18.879-6.293,28.372
			c-8.106,34.772-16.426,70.824-16.426,115.622v26.666h-5.333C7.163,469.324,0,476.487,0,485.323s7.163,15.999,15.999,15.999
			c212.041,0,247.405,0,459.714,0c8.836,0,15.999-7.163,15.999-15.999S484.549,469.325,475.714,469.325z"/>
	</g>
</g>
<g>
</g>
<g>
</g>
<g>
</g>
<g>
</g>
<g>
</g>
<g>
</g>
<g>
</g>
<g>
</g>
<g>
</g>
<g>
</g>
<g>
</g>
<g>
</g>
<g>
</g>
<g>
</g>
<g>
</g>
</svg>
