<?xml version="1.0" encoding="iso-8859-1"?>
<!-- Generator: Adobe Illustrator 19.0.0, SVG Export Plug-In . SVG Version: 6.00 Build 0)  -->
<svg version="1.1" id="Layer_1" xmlns="http://www.w3.org/2000/svg" xmlns:xlink="http://www.w3.org/1999/xlink" x="0px" y="0px"
	 viewBox="0 0 512 512" style="enable-background:new 0 0 512 512;" xml:space="preserve">
<g>
	<g>
		<path d="M457.099,256c31.334-46.666,40.728-93.136,20.602-128c-20.098-34.818-64.966-49.926-120.968-46.167
			C331.983,31.265,296.3,0,256.001,0c-40.297,0-75.979,31.26-100.728,81.824C99.272,78.067,54.406,93.176,34.3,128
			c-20.127,34.864-10.734,81.335,20.6,128c-31.334,46.665-40.729,93.136-20.6,128c18.125,31.397,56.278,46.924,104.652,46.924
			c5.299,0,10.81-0.335,16.343-0.707C180.043,480.756,215.716,512,256.001,512c40.286,0,75.957-31.244,100.707-81.783
			c5.533,0.372,11.044,0.707,16.343,0.707c48.364,0,86.527-15.527,104.652-46.924C497.828,349.136,488.434,302.665,457.099,256z
			 M63.219,367.304c-11.483-19.892-6.614-50.02,13.108-83.201c13.961,16.165,30.405,32.068,49.122,47.234
			c3.773,23.805,9.31,46.036,16.332,66.219C103.208,398.038,74.7,387.193,63.219,367.304z M120.336,282.312
			c-9.012-8.774-17.063-17.567-24.183-26.312c7.121-8.744,15.171-17.538,24.183-26.312c-0.449,8.638-0.682,17.415-0.682,26.312
			C119.653,264.898,119.887,273.673,120.336,282.312z M125.449,180.663c-18.717,15.166-35.163,31.07-49.124,47.235
			c-19.723-33.182-24.593-63.31-13.112-83.202c11.245-19.467,38.668-30.413,76.016-30.413c0.824,0,1.734,0.1,2.568,0.11
			C134.77,134.59,129.227,156.838,125.449,180.663z M335.88,117.442c4.033,10.576,7.64,21.99,10.743,34.234
			c-7.258-4.709-14.741-9.302-22.448-13.752c-7.703-4.449-15.417-8.632-23.122-12.561
			C313.099,121.961,324.796,119.234,335.88,117.442z M217.045,272.696c-6.451,0-12.326-3.718-15.087-9.543
			c-2.76-5.831-1.919-12.733,2.163-17.723l50.087-61.217c5.842-7.141,16.358-8.19,23.494-2.353
			c7.136,5.842,8.19,16.358,2.353,23.494l-27.776,33.951h42.68c6.451,0,12.326,3.718,15.087,9.543
			c2.76,5.831,1.919,12.733-2.163,17.723l-50.087,61.217c-5.838,7.135-16.358,8.19-23.494,2.353
			c-7.136-5.842-8.19-16.358-2.353-23.494l27.776-33.951H217.045z M256.001,33.391c22.973,0,46.629,19.282,65.504,52.958
			c-20.989,4.009-42.994,10.302-65.496,18.933c-22.508-8.635-44.516-14.93-65.508-18.941
			C209.376,52.671,233.031,33.391,256.001,33.391z M176.12,117.444c11.084,1.793,22.783,4.52,34.829,7.922
			c-7.703,3.929-15.419,8.111-23.122,12.558c-7.707,4.45-15.19,9.042-22.448,13.752C168.483,139.433,172.088,128.02,176.12,117.444z
			 M165.378,360.324c7.258,4.71,14.742,9.303,22.448,13.752c7.722,4.46,15.459,8.614,23.184,12.553
			c-12.125,3.427-23.784,6.008-34.935,7.806C172.062,383.893,168.471,372.52,165.378,360.324z M256.001,478.609
			c-22.994,0-46.677-19.322-65.559-53.061c21.019-4.008,43.019-10.276,65.557-18.921c22.54,8.646,44.542,14.915,65.563,18.922
			C302.677,459.286,278.996,478.609,256.001,478.609z M335.926,394.437c-11.15-1.799-22.813-4.38-34.937-7.807
			c7.726-3.939,15.462-8.094,23.188-12.554c7.707-4.45,15.19-9.042,22.448-13.752C343.531,372.521,339.94,383.894,335.926,394.437z
			 M372.773,114.283c37.337,0,64.771,10.946,76.011,30.413c11.483,19.892,6.614,50.02-13.108,83.202
			c-13.962-16.165-30.405-32.068-49.122-47.234c-3.778-23.825-9.321-46.073-16.348-66.271
			C371.04,114.382,371.949,114.283,372.773,114.283z M391.667,229.688c9.012,8.774,17.063,17.566,24.182,26.312
			c-7.119,8.745-15.17,17.538-24.182,26.312c0.449-8.638,0.682-17.415,0.682-26.312
			C392.349,247.102,392.115,238.327,391.667,229.688z M448.789,367.304c-11.482,19.887-39.992,30.733-78.568,30.254
			c7.02-20.185,12.558-42.416,16.332-66.222c18.717-15.166,35.16-31.07,49.122-47.234c19.723,33.182,24.593,63.31,13.108,83.202
			H448.789z"/>
	</g>
</g>
<g>
</g>
<g>
</g>
<g>
</g>
<g>
</g>
<g>
</g>
<g>
</g>
<g>
</g>
<g>
</g>
<g>
</g>
<g>
</g>
<g>
</g>
<g>
</g>
<g>
</g>
<g>
</g>
<g>
</g>
</svg>
