<?xml version="1.0" encoding="iso-8859-1"?>
<!-- Generator: Adobe Illustrator 19.0.0, SVG Export Plug-In . SVG Version: 6.00 Build 0)  -->
<svg version="1.1" id="Layer_1" xmlns="http://www.w3.org/2000/svg" xmlns:xlink="http://www.w3.org/1999/xlink" x="0px" y="0px"
	 viewBox="0 0 511.999 511.999" style="enable-background:new 0 0 511.999 511.999;" xml:space="preserve">
<g>
	<g>
		<path d="M511.999,150.265c0-55.231-44.933-100.17-100.168-100.17H297.315c-7.372-19.74-27.287-33.39-49.365-33.39
			c-38.683,0-41.151,0-64.286,0c-9.217,0-16.695,7.473-16.695,16.695c0,9.222,7.478,16.695,16.695,16.695h16.674v33.39h-16.673
			c-9.217,0-16.695,7.473-16.695,16.695c0,9.222,7.478,16.695,16.695,16.695c20.57,0,3.597,0,64.519,0
			c12.103,0,24.242-3.44,33.635-11.073c7.407-6.021,12.717-13.744,15.752-22.317H411.83c36.825,0,66.78,29.955,66.78,66.78
			c0,36.825-29.955,66.78-66.78,66.78h-34.236l-4.402-17.697c-5.565-22.371-25.599-37.953-48.639-37.953h-215.03
			c-22.927,0-42.85,15.582-48.527,37.953L33.842,307.642c-0.328,1.316-0.46,2.661-0.456,4.007C14.975,311.653,0,326.628,0,345.039
			v66.78c0,18.412,14.978,33.39,33.39,33.39h16.695v16.695c0,18.412,14.978,33.39,33.39,33.39c18.412,0,33.39-14.978,33.39-33.39
			v-16.695h200.339v16.695c0,18.412,14.978,33.39,33.39,33.39c18.412,0,33.39-14.978,33.39-33.39v-16.695h16.695
			c18.412,0,33.39-14.978,33.39-33.39v-66.78c0-18.412-14.978-33.39-33.39-33.39h-0.029c-0.012-1.344-0.165-2.691-0.523-4.007
			l-14.227-57.208h25.931C467.066,250.434,511.999,205.496,511.999,150.265z M93.384,207.362c1.783-7.346,8.459-12.577,16.14-12.577
			h215.03c7.681,0,14.358,5.231,16.14,12.577l26.095,104.288H67.385L93.384,207.362z M116.887,395.124h-33.39
			c-9.217,0-16.695-7.473-16.695-16.695s7.478-16.695,16.695-16.695h33.39c9.217,0,16.695,7.473,16.695,16.695
			S126.103,395.124,116.887,395.124z M250.446,395.124h-66.78c-9.217,0-16.695-7.473-16.695-16.695s7.478-16.695,16.695-16.695
			h66.78c9.217,0,16.695,7.473,16.695,16.695S259.663,395.124,250.446,395.124z M350.616,395.124h-33.39
			c-9.218,0-16.695-7.473-16.695-16.695c0-9.222,7.478-16.695,16.695-16.695h33.39c9.217,0,16.695,7.473,16.695,16.695
			S359.832,395.124,350.616,395.124z"/>
	</g>
</g>
<g>
</g>
<g>
</g>
<g>
</g>
<g>
</g>
<g>
</g>
<g>
</g>
<g>
</g>
<g>
</g>
<g>
</g>
<g>
</g>
<g>
</g>
<g>
</g>
<g>
</g>
<g>
</g>
<g>
</g>
</svg>
