<?xml version="1.0" encoding="iso-8859-1"?>
<!-- Generator: Adobe Illustrator 19.0.0, SVG Export Plug-In . SVG Version: 6.00 Build 0)  -->
<svg version="1.1" id="Layer_1" xmlns="http://www.w3.org/2000/svg" xmlns:xlink="http://www.w3.org/1999/xlink" x="0px" y="0px"
	 viewBox="0 0 512 512" style="enable-background:new 0 0 512 512;" xml:space="preserve">
<g>
	<g>
		<path d="M105.739,306.087v155.826c0,27.662,22.423,50.087,50.087,50.087h200.348c27.664,0,50.087-22.424,50.087-50.087V306.087
			H105.739z M289.408,411.826h-66.783c-9.223,0-16.696-7.473-16.696-16.696s7.473-16.696,16.696-16.696h66.783
			c9.223,0,16.696,7.473,16.696,16.696S298.631,411.826,289.408,411.826z"/>
	</g>
</g>
<g>
	<g>
		<path d="M356.174,66.783h-33.391V16.696C322.783,7.473,315.31,0,306.087,0H205.913c-9.223,0-16.696,7.473-16.696,16.696v50.087
			h-33.391c-27.664,0-50.087,22.424-50.087,50.087v155.826h300.522V116.87C406.261,89.207,383.838,66.783,356.174,66.783z
			 M222.609,33.391h66.783v33.391h-66.783V33.391z M289.408,200.348h-16.696v16.696c0,9.223-7.473,16.696-16.696,16.696
			s-16.696-7.473-16.696-16.696v-16.696h-16.696c-9.223,0-16.696-7.473-16.696-16.696c0-9.223,7.473-16.696,16.696-16.696h16.696
			v-16.696c0-9.223,7.473-16.696,16.696-16.696s16.696,7.473,16.696,16.696v16.696h16.696c9.223,0,16.696,7.473,16.696,16.696
			C306.104,192.875,298.631,200.348,289.408,200.348z"/>
	</g>
</g>
<g>
</g>
<g>
</g>
<g>
</g>
<g>
</g>
<g>
</g>
<g>
</g>
<g>
</g>
<g>
</g>
<g>
</g>
<g>
</g>
<g>
</g>
<g>
</g>
<g>
</g>
<g>
</g>
<g>
</g>
</svg>
