<?xml version="1.0" encoding="iso-8859-1"?>
<!-- Generator: Adobe Illustrator 19.0.0, SVG Export Plug-In . SVG Version: 6.00 Build 0)  -->
<svg xmlns="http://www.w3.org/2000/svg" xmlns:xlink="http://www.w3.org/1999/xlink" version="1.1" id="Capa_1" x="0px" y="0px" viewBox="0 0 512.001 512.001" style="enable-background:new 0 0 512.001 512.001;" xml:space="preserve">
<g>
	<g>
		<path d="M284.726,443.725h-6.068V304.783c0-15.777-12.79-28.568-28.568-28.568c0,5.693,0,147.298,0,154.107    c-16.081,0-12.512,0-28.568,0v13.401h-6.068c-2.672,0-4.839,2.166-4.839,4.839v12.978c0,2.672,2.167,4.839,4.839,4.839h69.272    c2.672,0,4.839-2.166,4.839-4.839v-12.977C289.565,445.892,287.399,443.725,284.726,443.725z"/>
	</g>
</g>
<g>
	<g>
		<path d="M80.235,443.725h-6.068v-13.401c-10.231,0-17.714,0-29.505,0c0-6.808,0-148.387,0-154.084    c-15.342,0.496-27.63,13.081-27.63,28.544v138.942h-6.068c-2.672,0-4.839,2.166-4.839,4.839v12.978    c0,2.672,2.167,4.839,4.839,4.839h69.272c2.672,0,4.839-2.166,4.839-4.839v-12.978C85.073,445.892,82.907,443.725,80.235,443.725z    "/>
	</g>
</g>
<g>
	<g>
		<path d="M225.156,83.286l-64.44-77.052C157.412,2.283,152.526,0,147.376,0c-5.15,0-10.036,2.283-13.34,6.234l-64.44,77.051    c-6.13,7.329-9.489,16.581-9.489,26.135v305.456h43.168V304.783c0-24.269,19.745-44.015,44.014-44.015    c24.27,0,44.015,19.745,44.015,44.015v110.094h43.342V109.421C234.644,99.866,231.286,90.615,225.156,83.286z M147.376,202.984    c-16.245,0-29.415-13.169-29.415-29.415s13.169-29.414,29.415-29.414s29.415,13.169,29.415,29.414    C176.79,189.814,163.621,202.984,147.376,202.984z M147.376,130.625c-16.245,0-29.415-13.169-29.415-29.415    s13.169-29.414,29.415-29.414s29.415,13.169,29.415,29.414S163.621,130.625,147.376,130.625z"/>
	</g>
</g>
<g>
	<g>
		<path d="M181.925,443.725h-6.068V304.783c0-15.777-12.79-28.568-28.568-28.568c-15.777,0-28.568,12.79-28.568,28.568v138.942    h-6.068c-2.672,0-4.839,2.166-4.839,4.839v12.978c0,2.672,2.167,4.839,4.839,4.839h69.272c2.672,0,4.839-2.166,4.839-4.839    v-12.978C186.763,445.892,184.598,443.725,181.925,443.725z"/>
	</g>
</g>
<g>
	<g>
		<path d="M505.875,179.048c-0.121-23.988-19.735-43.505-43.723-43.505h-19.194l-22.187,56.902l4.477-22.551    c0.349-1.757,0.067-3.581-0.797-5.151l-7.437-13.525l6.6-12.003c0.983-1.789-0.31-3.977-2.352-3.977h-18.095    c-2.041,0-3.335,2.188-2.352,3.977l6.586,11.978l-7.422,13.5c-0.88,1.6-1.155,3.464-0.777,5.25l5.694,22.502l-23.434-56.902    h-18.503c-24.364,0-44.285,19.516-44.406,43.598v135.296c0,10.018,7.79,18.552,17.802,18.907    c10.511,0.374,19.15-8.036,19.15-18.464c0-0.095-0.002-136.286,0.002-136.38c0.219-4.699,7.37-4.37,7.37,0.336v310.464    c0,12.022,9.348,22.261,21.363,22.688c12.614,0.449,22.981-9.643,22.981-22.157V312.608h9.572v176.689    c0,12.019,9.344,22.257,21.355,22.688c12.617,0.453,22.997-9.641,22.997-22.157V179.358c0-4.914,7.319-5.314,7.759-0.419    c0.006,0.066,0.011,0.134,0.016,0.202v135.296c0,10.018,7.79,18.552,17.802,18.907c10.511,0.374,19.15-8.036,19.15-18.464    L505.875,179.048z"/>
	</g>
</g>
<g>
	<g>
		<circle cx="412.22" cy="85.044" r="38.293"/>
	</g>
</g>
<g>
</g>
<g>
</g>
<g>
</g>
<g>
</g>
<g>
</g>
<g>
</g>
<g>
</g>
<g>
</g>
<g>
</g>
<g>
</g>
<g>
</g>
<g>
</g>
<g>
</g>
<g>
</g>
<g>
</g>
</svg>
