<?xml version="1.0" encoding="iso-8859-1"?>
<!-- Generator: Adobe Illustrator 19.0.0, SVG Export Plug-In . SVG Version: 6.00 Build 0)  -->
<svg xmlns="http://www.w3.org/2000/svg" xmlns:xlink="http://www.w3.org/1999/xlink" version="1.1" id="Capa_1" x="0px" y="0px" viewBox="0 0 512 512" style="enable-background:new 0 0 512 512;" xml:space="preserve">
<g>
	<g>
		<path d="M105.333,1.595c-25.791,0-47.248,18.502-51.856,42.954h16.998C76,34.714,89.519,27.762,105.333,27.762    s29.334,6.953,34.859,16.787h16.997C152.582,20.097,131.124,1.595,105.333,1.595z"/>
	</g>
</g>
<g>
	<g>
		<path d="M2.131,242.965v53.653c0,11.15,9.039,20.188,20.188,20.188c11.149,0,20.188-9.039,20.188-20.188v-53.653H2.131z"/>
	</g>
</g>
<g>
	<g>
		<path d="M168.161,242.965v53.653c0,11.15,9.039,20.188,20.188,20.188s20.188-9.039,20.188-20.188v-53.653H168.161z"/>
	</g>
</g>
<g>
	<g>
		<path d="M51.657,275.122v212.651c0,13.38,10.846,24.226,24.226,24.226c13.38,0,24.226-10.846,24.226-24.226V294.136h10.459    v193.638c0,13.38,10.846,24.226,24.226,24.226c13.38,0,24.226-10.846,24.226-24.226c0-208.232,0-212.651,0-212.651H51.657z"/>
	</g>
</g>
<g>
	<g>
		<path d="M160.018,100.668h-16.017V90.295c6.615-7.118,11.284-16.063,13.173-25.996h-16.982    c-5.525,9.834-19.044,16.787-34.859,16.787c-15.814,0-29.334-6.953-34.858-16.787H53.493c1.89,9.934,6.558,18.878,13.173,25.996    v10.374H50.65c-26.622,0-48.388,21.324-48.52,47.535c0,0.033,0,0.067,0,0.102v74.912h40.376v-74.845c0,0,0.18-0.452,0.546-1.131    c0.995-1.846,3.116-2.78,5.149-2.267c2.032,0.513,3.456,2.344,3.456,4.44v105.96h107.362V148.371c0-2.524,2.046-4.57,4.569-4.571    c2.524,0,4.571,2.045,4.571,4.569c0,0.001,0,0.001,0,0.002v74.845h40.376v-74.912c0-0.033,0-0.067,0-0.102    C208.406,121.993,186.639,100.668,160.018,100.668z M144.256,166.748c0,1.772-1.437,3.209-3.209,3.209h-25.18    c-1.773,0-3.209-1.437-3.209-3.209v-12.344c0-1.772,1.437-3.209,3.209-3.209h25.18c1.773,0,3.209,1.437,3.209,3.209V166.748z"/>
	</g>
</g>
<g>
	<g>
		<path d="M411.352,53.743v14.952c16.508,0,29.938,13.429,29.938,29.938h14.952C456.242,73.881,436.104,53.743,411.352,53.743z"/>
	</g>
</g>
<g>
	<g>
		<path d="M411.352,27.126v14.952c31.185-0.001,56.555,25.369,56.555,56.555h14.952C482.859,59.203,450.78,27.126,411.352,27.126z"/>
	</g>
</g>
<g>
	<g>
		<path d="M502.565,249.781l-71.71-71.71c-9.74-9.74-25.502-9.74-35.242,0l-2.896,2.897l-4.245-4.244l13.056-13.056    c6.812-6.812,6.812-17.857,0-24.67l-4.534-4.534c13.904,5.565,30.391,2.72,41.651-8.541l-15.266-15.267    c6.641-6.641,6.641-17.408,0-24.05c-6.641-6.641-17.408-6.641-24.05,0L384.061,71.34c-11.261,11.261-14.105,27.747-8.541,41.651    l-4.534-4.534c-6.812-6.812-17.857-6.812-24.67,0l-13.056,13.056l-4.36-4.36l2.896-2.897c9.716-9.716,9.716-25.525,0-35.242    l-71.71-71.709c-9.739-9.74-25.502-9.741-35.242,0L200.232,31.92c-9.739,9.737-9.742,25.502-0.001,35.242l71.71,71.71    c9.74,9.74,25.502,9.74,35.242,0l2.896-2.896l4.36,4.36l-44.356,44.356c-6.812,6.812-6.812,17.857,0,24.67l30.542,30.542    c6.812,6.812,17.857,6.812,24.67,0l44.356-44.356l4.245,4.245l-2.897,2.897c-9.715,9.716-9.715,25.525,0,35.243l71.71,71.71    c9.738,9.738,25.502,9.741,35.243,0l24.614-24.615C512.302,275.287,512.305,259.521,502.565,249.781z M317.701,100.159    l-24.616,24.615c-1.945,1.945-5.1,1.947-7.048,0l-71.71-71.71c-1.944-1.945-1.947-5.1,0.001-7.048l24.615-24.615    c1.945-1.945,5.1-1.948,7.048,0l71.71,71.709C319.644,95.054,319.644,98.216,317.701,100.159z M488.467,270.927l-24.615,24.615    c-1.944,1.945-5.101,1.947-7.048,0l-71.71-71.709c-1.943-1.944-1.943-5.106,0-7.049l24.616-24.616c1.945-1.945,5.1-1.948,7.048,0    l71.71,71.71C490.412,265.823,490.415,268.978,488.467,270.927z"/>
	</g>
</g>
<g>
</g>
<g>
</g>
<g>
</g>
<g>
</g>
<g>
</g>
<g>
</g>
<g>
</g>
<g>
</g>
<g>
</g>
<g>
</g>
<g>
</g>
<g>
</g>
<g>
</g>
<g>
</g>
<g>
</g>
</svg>
