<?xml version="1.0" encoding="iso-8859-1"?>
<!-- Generator: Adobe Illustrator 19.0.0, SVG Export Plug-In . SVG Version: 6.00 Build 0)  -->
<svg xmlns="http://www.w3.org/2000/svg" xmlns:xlink="http://www.w3.org/1999/xlink" version="1.1" id="Capa_1" x="0px" y="0px" viewBox="0 0 512 512" style="enable-background:new 0 0 512 512;" xml:space="preserve">
<g>
	<g>
		<path d="M372.276,112.532l14.679-14.984c5.922-6.045,5.822-15.745-0.222-21.666c-6.044-5.923-15.745-5.822-21.666,0.222    l-14.459,14.759l-75.209-75.209c-22.397,27.32-22.905,68.709-3.805,106.317c-6.208-5.271-15.271-6.422-22.772-2.18l-11.336,6.412    l20.715,34.216l10.304-5.826c7.542-4.265,11.225-12.695,9.843-20.771c3.822,6.017,8.157,11.884,13.016,17.515l-38.776,39.581    c10.835,1.97,20.092,8.518,25.664,17.59l35.335-36.069c42.662,33.098,96.433,38.084,129.541,10.943L372.276,112.532z"/>
	</g>
</g>
<g>
	<g>
		<path d="M205.993,486.182l-8.838-115.614c-0.24-3.152-1.102-6.226-2.534-9.043l-41.518-81.661l1.328-14.767    c-4.144-1.855-7.742-4.719-10.472-8.285c-35.023,0-60.24,0-94.562,0c0,0-0.519,10.031-1.352,26.143l4.53,94.882L21.317,481.052    c-3.84,12.679,3.327,26.071,16.006,29.911c12.687,3.84,26.073-3.332,29.911-16.006l32.452-107.156    c0.789-2.607,1.129-5.33,1.005-8.05l-4.207-91.871h6.876l46.325,91.12l8.472,110.84c1.01,13.235,12.567,23.103,25.746,22.09    C197.111,510.919,207.001,499.392,205.993,486.182z"/>
	</g>
</g>
<g>
	<g>
		<path d="M181.499,209.133l-50.993-67.507l32.396,29.284l22.153,20.025l19.566-0.207l37.316-21.106l-20.715-34.216l-28.121,15.906    l-27.345-12.201c0.448-8.405-2.668-16.294-8.123-22.058v-11.37c8.934-4.559,16.589-11.35,22.177-19.618    c-19.263-0.492-35.62-7.232-42.763-16.692c-1.996,1.3-4.374,2.062-6.933,2.062c-7.031,0-12.73-5.699-12.73-12.73    c0-7.031,5.699-12.73,12.73-12.73c2.559,0,4.937,0.762,6.933,2.062c9.492-12.571,31.078-17.18,47.668-16.683    c-8.448-18.323-26.873-31.054-48.841-31.347C104.72-0.41,78.268,24.331,76.791,55.268c-0.843,17.679,6.662,33.546,19.056,43.983    v5.006c-4.278,0.667-8.448,1.9-12.398,3.675c-7.075,2.246-27.241,16.213-28.529,41.731c-0.85,16.86-0.081,1.884-4.459,86.547    h83.078l-30.729-64.919l52.865,69.985c3.78,5.004,9.687,7.942,15.95,7.942c0.071,0,0.142-0.001,0.211-0.002l44.101-0.466    l-1.687-39.964L181.499,209.133z"/>
	</g>
</g>
<g>
	<g>
		<path d="M245.729,208.455c-0.072,0-0.145,0.001-0.215,0.002l-12.577,0.133l1.687,39.964l11.312-0.12    c11.039-0.118,19.894-9.161,19.777-20.2C265.597,217.266,256.671,208.455,245.729,208.455z"/>
	</g>
</g>
<g>
	<g>
		<path d="M476.398,481.357h-59.75v-95.164c0-10.577-8.574-19.151-19.151-19.151H276.777V250.597    c-6.837,9.568-17.984,15.858-30.642,15.995v230.086c0,8.462,6.859,15.321,15.321,15.321h214.943    c8.462,0,15.321-6.859,15.321-15.321C491.719,488.216,484.86,481.357,476.398,481.357z M367.87,445.429    c-9.59,0-17.364-7.774-17.364-17.364c0-9.59,7.774-17.364,17.364-17.364c9.59,0,17.364,7.774,17.364,17.364    C385.234,437.655,377.46,445.429,367.87,445.429z"/>
	</g>
</g>
<g>
</g>
<g>
</g>
<g>
</g>
<g>
</g>
<g>
</g>
<g>
</g>
<g>
</g>
<g>
</g>
<g>
</g>
<g>
</g>
<g>
</g>
<g>
</g>
<g>
</g>
<g>
</g>
<g>
</g>
</svg>
