<?xml version="1.0" encoding="iso-8859-1"?>
<!-- Generator: Adobe Illustrator 19.0.0, SVG Export Plug-In . SVG Version: 6.00 Build 0)  -->
<svg xmlns="http://www.w3.org/2000/svg" xmlns:xlink="http://www.w3.org/1999/xlink" version="1.1" id="Capa_1" x="0px" y="0px" viewBox="0 0 512 512" style="enable-background:new 0 0 512 512;" xml:space="preserve">
<g>
	<g>
		<path d="M408.451,0c-25.872,0-47.396,18.56-52.018,43.088h17.05c5.543-9.865,19.104-16.839,34.968-16.839    s29.425,6.974,34.968,16.839h17.05C455.846,18.56,434.322,0,408.451,0z"/>
	</g>
</g>
<g>
	<g>
		<path d="M304.925,242.125v53.82h0c0,11.185,9.067,20.251,20.251,20.251c11.184,0,20.251-9.067,20.251-20.251v-53.82H304.925z"/>
	</g>
</g>
<g>
	<g>
		<path d="M471.474,242.125v53.82c0,11.185,9.067,20.251,20.251,20.251c11.184,0,20.251-9.067,20.251-20.251v-53.82H471.474z"/>
	</g>
</g>
<g>
	<g>
		<path d="M354.606,274.382v213.316c0,13.422,10.88,24.302,24.302,24.302s24.302-10.88,24.302-24.302V293.456h10.492v194.243    c0,13.422,10.88,24.302,24.302,24.302c13.422,0,24.302-10.88,24.302-24.302c0-208.882,0-213.316,0-213.316H354.606z"/>
	</g>
</g>
<g>
	<g>
		<path d="M511.975,147.067c-0.132-26.294-21.965-47.684-48.671-47.684h-16.068V88.977c6.635-7.14,11.319-16.114,13.215-26.078    h-17.034c-5.542,9.865-19.104,16.839-34.968,16.839s-29.425-6.974-34.968-16.839h-17.034c1.896,9.964,6.578,18.937,13.215,26.078    v10.406h-16.067c-26.706,0-48.54,21.391-48.671,47.684c0,0.034,0,0.068,0,0.102v75.146h40.502v-75.079c0,0,0.18-0.454,0.548-1.135    c0.997-1.852,3.126-2.789,5.166-2.274s3.467,2.351,3.467,4.454v106.29h107.698V147.235c0-2.532,2.052-4.585,4.584-4.585    c2.532-0.001,4.586,2.051,4.586,4.583c0,0.001,0,0.002,0,0.002v75.079h40.502v-75.146    C511.976,147.135,511.976,147.101,511.975,147.067z M447.494,165.669c0,1.778-1.441,3.22-3.22,3.22h-25.259    c-1.778,0-3.22-1.442-3.22-3.22v-12.382c0-1.778,1.441-3.219,3.22-3.219h25.259c1.778,0,3.22,1.441,3.22,3.219V165.669z"/>
	</g>
</g>
<g>
	<g>
		<path d="M276.697,429.4l-52.55-92.659V319.54c4.282,2.094,9.093,3.273,14.181,3.273c17.851,0,32.324-14.472,32.324-32.324v-91.217    H8.022v91.219c0,17.852,14.472,32.324,32.324,32.324c5.146,0,10.007-1.208,14.326-3.347v17.021L1.975,429.4    c-2.634,4.644-2.601,10.336,0.086,14.949c2.687,4.613,7.622,7.449,12.96,7.449H61.67v-29.997H40.771l46.784-82.488h2.11v55.803    c0,6.902,5.596,12.499,12.499,12.499h74.49c6.902,0,12.499-5.596,12.499-12.499v-55.803h1.966l46.784,82.488h-20.899v29.997    h46.649c5.338,0,10.273-2.837,12.96-7.449C279.298,439.737,279.331,434.044,276.697,429.4z M164.155,382.616h-49.492v-43.304    h49.492V382.616z M206.004,268.499L206.004,268.499H72.669v-24.998h133.335V268.499z"/>
	</g>
</g>
<g>
	<g>
		<path d="M238.327,114.343c-5.088,0-9.899,1.179-14.181,3.273v-0.91c0-9.278-3.261-18.26-9.213-25.378l-62.571-74.816    c-3.209-3.837-7.952-6.053-12.954-6.053c-5.002,0-9.745,2.217-12.954,6.053l-62.57,74.816c-5.953,7.117-9.213,16.1-9.213,25.378    v0.984c-4.319-2.139-9.18-3.348-14.326-3.348c-17.851,0-32.324,14.472-32.324,32.324v32.607H270.65v-32.606h0.001    C270.651,128.814,256.179,114.343,238.327,114.343z M139.409,139.761c-19.455,0-35.228-15.772-35.228-35.227    c0-19.456,15.772-35.228,35.228-35.228c19.455,0,35.228,15.772,35.228,35.228C174.637,123.99,158.864,139.761,139.409,139.761z"/>
	</g>
</g>
<g>
</g>
<g>
</g>
<g>
</g>
<g>
</g>
<g>
</g>
<g>
</g>
<g>
</g>
<g>
</g>
<g>
</g>
<g>
</g>
<g>
</g>
<g>
</g>
<g>
</g>
<g>
</g>
<g>
</g>
</svg>
