<?xml version="1.0" encoding="iso-8859-1"?>
<!-- Generator: Adobe Illustrator 19.0.0, SVG Export Plug-In . SVG Version: 6.00 Build 0)  -->
<svg xmlns="http://www.w3.org/2000/svg" xmlns:xlink="http://www.w3.org/1999/xlink" version="1.1" id="Capa_1" x="0px" y="0px" viewBox="0 0 512 512" style="enable-background:new 0 0 512 512;" xml:space="preserve">
<g>
	<g>
		<path d="M103.434,0.227c-25.849,0-47.354,18.544-51.972,43.05h17.035c5.538-9.856,19.087-16.825,34.937-16.825    c15.849,0,29.399,6.968,34.937,16.825h17.035C150.788,18.77,129.283,0.227,103.434,0.227z"/>
	</g>
</g>
<g>
	<g>
		<path d="M0,242.138v53.772c0,11.175,9.059,20.233,20.233,20.233c11.174,0,20.233-9.059,20.233-20.233v-53.772H0z"/>
	</g>
</g>
<g>
	<g>
		<path d="M166.401,242.138v53.772c0,11.175,9.059,20.233,20.233,20.233c11.175,0,20.233-9.058,20.233-20.233v-53.772H166.401z"/>
	</g>
</g>
<g>
	<g>
		<path d="M49.638,274.366v213.127c0,13.41,10.87,24.28,24.28,24.28s24.28-10.87,24.28-24.28v-194.07h10.483v194.07    c0,13.41,10.87,24.28,24.28,24.28c13.409,0,24.28-10.87,24.28-24.28c0-208.697,0-213.127,0-213.127H49.638z"/>
	</g>
</g>
<g>
	<g>
		<path d="M158.24,99.522h-16.053V89.125c6.63-7.134,11.309-16.099,13.203-26.055h-17.019c-5.538,9.856-19.087,16.825-34.937,16.825    c-15.849,0-29.399-6.968-34.937-16.825H51.478c1.894,9.955,6.573,18.921,13.203,26.055v10.397H48.629    c-26.682,0-48.497,21.372-48.628,47.641c0,0.034,0,0.068,0,0.102v75.08h40.466v-75.013c0,0,0.18-0.454,0.547-1.134    c0.996-1.85,3.123-2.786,5.161-2.272c2.037,0.514,3.464,2.349,3.464,4.45v106.197h107.603V147.331c0-2.53,2.05-4.581,4.58-4.581    c2.53-0.001,4.581,2.049,4.582,4.578c-0.001,0.001-0.001,0.002-0.001,0.003v75.013h40.466v-75.08c0-0.034,0-0.068,0-0.102    C206.736,120.894,184.922,99.522,158.24,99.522z M142.444,165.749c0,1.776-1.441,3.216-3.217,3.216h-25.236    c-1.776,0-3.217-1.44-3.217-3.216v-12.371c0-1.776,1.44-3.216,3.217-3.216h25.236c1.776,0,3.217,1.44,3.217,3.216V165.749z"/>
	</g>
</g>
<g>
	<g>
		<path d="M487.024,213.77v-0.002c0,7.161-5.826,12.987-12.987,12.987s-12.987-5.826-12.987-12.987h-24.976    c0,15.805,9.711,29.379,23.477,35.084v73.782l-37.561,15.188v-12.388c0-41.379-33.544-74.923-74.923-74.923    s-74.923,33.544-74.923,74.923v16.672l-59.636,24.113c-4.357,1.761-7.208,5.991-7.208,10.69v85.542    c-13.767,5.705-23.477,19.279-23.477,35.084h24.976c0-7.161,5.826-12.987,12.987-12.987s12.987,5.826,12.987,12.987h24.976    c0-15.805-9.711-29.379-23.477-35.084V388.67l37.872-15.313v84.251h35.961v19.199h-4.698c-5.957,0-10.786,4.829-10.786,10.786    v13.392c0,5.957,4.829,10.786,10.786,10.786h87.321c5.957,0,10.786-4.829,10.786-10.786v-13.392    c0-5.957-4.829-10.786-10.786-10.786h-4.698v-19.199h35.961v-88.535l59.325-23.988c4.357-1.761,7.208-5.991,7.208-10.69v-85.542    C502.289,243.149,512,229.575,512,213.77H487.024z M347.067,378.903c-23.449,0-42.459-19.009-42.459-42.459    s19.009-42.459,42.459-42.459s42.459,19.009,42.459,42.459S370.515,378.903,347.067,378.903z"/>
	</g>
</g>
<g>
</g>
<g>
</g>
<g>
</g>
<g>
</g>
<g>
</g>
<g>
</g>
<g>
</g>
<g>
</g>
<g>
</g>
<g>
</g>
<g>
</g>
<g>
</g>
<g>
</g>
<g>
</g>
<g>
</g>
</svg>
