<?xml version="1.0" encoding="iso-8859-1"?>
<!-- Generator: Adobe Illustrator 19.0.0, SVG Export Plug-In . SVG Version: 6.00 Build 0)  -->
<svg xmlns="http://www.w3.org/2000/svg" xmlns:xlink="http://www.w3.org/1999/xlink" version="1.1" id="Capa_1" x="0px" y="0px" viewBox="0 0 512 512" style="enable-background:new 0 0 512 512;" xml:space="preserve">
<g>
	<g>
		<path d="M377.605,152.592l20.58-24.687l-27.921-21.818c-4.016-3.137-9.279-4.184-14.192-2.819l-67.491,18.761    c-0.012-0.026-0.023-0.052-0.036-0.078l20.287-10.458c-2.989-1.074-6.122-1.797-9.34-2.114    c-7.099-0.699-14.174,0.581-20.497,3.581l-2.263-3.325c3.516-12.535,1.33-26.468-7.222-37.83    c-14.965-19.883-43.719-24.362-64.227-10.003c-14.46,10.124-20.945,26.91-18.274,42.9c13.711-9.946,29.297-13.82,39.205-10.465    c0.738-1.766,1.974-3.346,3.674-4.503c4.67-3.178,11.033-1.969,14.211,2.702c3.178,4.67,1.969,11.033-2.702,14.211    c-1.7,1.156-3.625,1.726-5.537,1.764c-0.469,9.513-8.288,21.383-20.861,30.418c7.45,2.967,15.604,4.018,23.599,3.008l5.139,7.552    l0.004-0.003c-0.141,0.872-0.232,1.751-0.276,2.633l-23.408,43.269l-25.702,3.634l3.554,31.94l34.668-4.901    c5.046-0.713,9.454-3.779,11.878-8.261l17.809-32.918l12.14,14.851c-2.603,7.891-7.498,20.261-15.819,33.29    c-18.169,28.449-43.472,46.653-75.207,54.107c-26.786,6.292-47.611,12.133-63.658,17.238v-97.592c0-7.268-5.892-13.16-13.16-13.16    H93.708v-53.772c0-12.228-9.912-22.141-22.141-22.141H47.02V87.911c0-12.228-9.913-22.142-22.141-22.142H0v103.712    c25.784,0,47.02,53.376,47.02,119.219c0,65.843-21.236,119.219-47.02,119.219v50.689h71.566c12.228,0,22.141-9.913,22.141-22.141    v-55.893h12.852c7.268,0,13.16-5.892,13.16-13.161V330.63c16.071-5.41,38.575-12.016,69.376-19.251    c38.096-8.948,69.602-31.72,91.112-65.855c5.273-8.368,9.334-16.452,12.428-23.584l4.307,5.268l68.527-52.751l-19.082-24.4    l-55.011,4.535l65.492-18.206L377.605,152.592z"/>
	</g>
</g>
<g>
	<g>
		<path d="M417.177,142.748l-7.162-5.596l-20.58,24.687l7.962,6.221c6.995,5.465,17.087,4.22,22.546-2.766    C425.404,158.303,424.167,148.209,417.177,142.748z"/>
	</g>
</g>
<g>
	<g>
		<path d="M179.487,201.023l-10.361,1.465c-8.783,1.242-14.898,9.369-13.655,18.152c1.244,8.795,9.382,14.897,18.151,13.655    l9.419-1.332L179.487,201.023z"/>
	</g>
</g>
<g>
	<g>
		<path d="M510.725,247.919c-3.799-9.944-14.94-14.925-24.882-11.129l-56.988,21.766l-54.141-72.279l-68.271,52.554l10.496,12.84    l-2.697,66.694c-0.181,4.47,1.199,8.863,3.903,12.427l52.301,68.945c6.432,8.479,18.521,10.142,27.004,3.707    c8.481-6.433,10.14-18.523,3.707-27.004l-48.119-63.431c2.187-56.153,2.958-82.476,2.958-82.476l2.36-1.754l48.375,64.53    c5.163,6.887,14.262,9.513,22.299,6.445l70.567-26.953C509.542,269.004,514.524,257.864,510.725,247.919z"/>
	</g>
</g>
<g>
</g>
<g>
</g>
<g>
</g>
<g>
</g>
<g>
</g>
<g>
</g>
<g>
</g>
<g>
</g>
<g>
</g>
<g>
</g>
<g>
</g>
<g>
</g>
<g>
</g>
<g>
</g>
<g>
</g>
</svg>
