<?xml version="1.0" encoding="iso-8859-1"?>
<!-- Generator: Adobe Illustrator 19.0.0, SVG Export Plug-In . SVG Version: 6.00 Build 0)  -->
<svg xmlns="http://www.w3.org/2000/svg" xmlns:xlink="http://www.w3.org/1999/xlink" version="1.1" id="Capa_1" x="0px" y="0px" viewBox="0 0 512 512" style="enable-background:new 0 0 512 512;" xml:space="preserve">
<g>
	<g>
		<circle cx="290.824" cy="43.138" r="43.138"/>
	</g>
</g>
<g>
	<g>
		<path d="M353.357,241.511v53.942h0.001c0,11.21,9.087,20.297,20.297,20.297c11.21,0,20.297-9.087,20.297-20.297v-53.942H353.357z"/>
	</g>
</g>
<g>
	<g>
		<path d="M393.952,146.235c-0.133-26.352-22.017-47.792-48.782-47.792c-11.051,0-102.7,0-113.196,0    c-14.396,0-28.262,5.254-39.044,14.793c-7.245,6.41-59.713,52.833-68.034,60.196c-6.646,5.88-8.702,15.396-5.075,23.496    l38.227,85.382c4.583,10.235,16.592,14.811,26.82,10.231c10.231-4.581,14.812-16.588,10.231-26.82l-32.132-71.769    c6.031-5.336,50.83-44.974,56.864-50.314c3.354-2.968,7.666-4.602,12.144-4.602c2.556,0,4.628,2.072,4.628,4.628V162.4    c31.365,6.383,54.357,34.051,54.357,66.58c0,8.148-1.507,16.702-4.797,25.004h58.392c0-9.256,0-82.457,0-107.53    c0-2.42,1.955-4.387,4.375-4.401c2.42-0.014,4.399,1.929,4.427,4.349c0,0.001,0,0.002,0,0.003v75.249h40.595v-75.318    C393.953,146.303,393.953,146.269,393.952,146.235z M329.636,164.88c0,1.782-1.445,3.227-3.227,3.227h-25.317    c-1.782,0-3.227-1.445-3.227-3.227v-12.41c0-1.782,1.445-3.227,3.227-3.227h25.317c1.782,0,3.227,1.445,3.227,3.227V164.88z"/>
	</g>
</g>
<g>
	<g>
		<path d="M276.767,285.616c0,8.124-6.604,14.892-14.892,14.892h-25.263v187.136c0,13.452,10.905,24.357,24.357,24.357    s24.357-10.905,24.357-24.357V292.957h10.516v194.686c0,13.452,10.905,24.357,24.357,24.357c13.452,0,24.357-10.905,24.357-24.357    V273.841h-67.787V285.616z"/>
	</g>
</g>
<g>
	<g>
		<path d="M223.045,175.912c-0.016,0-0.031-0.001-0.047-0.001c-0.016,0-0.031,0.001-0.047,0.001    c-16.392,0.014-32.336,7.649-42.602,21.506l8.829,19.719c6.168-8.839,18.991-14.918,33.819-14.918    c17.201,0,31.702,8.18,36.246,19.36h16.288C271.878,195.421,249.438,175.934,223.045,175.912z"/>
	</g>
</g>
<g>
	<g>
		<path d="M259.245,236.471c-4.543,11.18-19.045,19.36-36.245,19.36c-6.492,0-12.601-1.166-17.935-3.217l3.225,7.202    c3.565,7.963,4.095,17.15,1.03,25.799h48.052c2.488,0,4.505-2.017,4.505-4.505v-16.02c6.226-6.226,11.994-16.956,13.643-28.619    H259.245z"/>
	</g>
</g>
<g>
</g>
<g>
</g>
<g>
</g>
<g>
</g>
<g>
</g>
<g>
</g>
<g>
</g>
<g>
</g>
<g>
</g>
<g>
</g>
<g>
</g>
<g>
</g>
<g>
</g>
<g>
</g>
<g>
</g>
</svg>
