<?xml version="1.0" encoding="iso-8859-1"?>
<!-- Generator: Adobe Illustrator 19.0.0, SVG Export Plug-In . SVG Version: 6.00 Build 0)  -->
<svg xmlns="http://www.w3.org/2000/svg" xmlns:xlink="http://www.w3.org/1999/xlink" version="1.1" id="Capa_1" x="0px" y="0px" viewBox="0 0 512 512" style="enable-background:new 0 0 512 512;" xml:space="preserve">
<g>
	<g>
		<path d="M142.75,0c-25.872,0-47.396,18.56-52.017,43.088h17.05c5.542-9.865,19.103-16.839,34.967-16.839    s29.425,6.974,34.968,16.839h17.05C190.146,18.56,168.622,0,142.75,0z"/>
	</g>
</g>
<g>
	<g>
		<path d="M39.224,242.125v53.82c0,11.185,9.067,20.251,20.251,20.251c11.184,0,20.251-9.067,20.251-20.251v-53.82H39.224z"/>
	</g>
</g>
<g>
	<g>
		<path d="M205.774,242.125v53.82h0c0,11.185,9.067,20.251,20.251,20.251s20.251-9.067,20.251-20.251v-53.82H205.774z"/>
	</g>
</g>
<g>
	<g>
		<path d="M88.906,274.382v213.316c0,13.422,10.88,24.302,24.302,24.302c13.421,0,24.302-10.88,24.302-24.302V293.456h10.492    v194.243c0,13.422,10.88,24.302,24.302,24.302s24.302-10.88,24.302-24.302c0-208.882,0-213.316,0-213.316H88.906z"/>
	</g>
</g>
<g>
	<g>
		<path d="M197.605,99.383h-16.068V88.976c6.635-7.14,11.319-16.113,13.215-26.078h-17.034c-5.543,9.865-19.104,16.84-34.968,16.84    s-29.425-6.974-34.968-16.84H90.748c1.896,9.964,6.578,18.937,13.215,26.078v10.407H87.896c-26.706,0-48.54,21.391-48.672,47.684    c0,0.034,0,0.068,0,0.102v75.146h40.502v-75.079c0,0,0.18-0.454,0.548-1.135c0.997-1.852,3.126-2.789,5.166-2.274    c2.04,0.515,3.467,2.351,3.467,4.454v106.292h107.698V147.235c0-2.532,2.052-4.585,4.584-4.585    c2.532-0.001,4.585,2.051,4.586,4.583c0,0.001,0,0.002,0,0.003v75.079h40.502v-75.146c0-0.034,0-0.068,0-0.102    C246.144,120.774,224.31,99.383,197.605,99.383z M181.795,165.669c0,1.778-1.442,3.219-3.22,3.219h-25.259    c-1.778,0-3.22-1.441-3.22-3.219v-12.382c0-1.778,1.442-3.219,3.22-3.219h25.259c1.778,0,3.22,1.441,3.22,3.219V165.669z"/>
	</g>
</g>
<g>
	<g>
		<path d="M369.248,0c-25.872,0-47.396,18.56-52.018,43.088h17.05c5.543-9.865,19.104-16.839,34.968-16.839    c15.864,0,29.425,6.974,34.968,16.839h17.05C416.644,18.56,395.119,0,369.248,0z"/>
	</g>
</g>
<g>
	<g>
		<path d="M265.722,242.125v53.82h0c0,11.185,9.067,20.251,20.251,20.251c11.184,0,20.251-9.067,20.251-20.251v-53.82H265.722z"/>
	</g>
</g>
<g>
	<g>
		<path d="M432.271,242.125v53.82h0c0,11.185,9.067,20.251,20.251,20.251c11.184,0,20.251-9.067,20.251-20.251v-53.82H432.271z"/>
	</g>
</g>
<g>
	<g>
		<path d="M315.404,274.382v213.316c0,13.422,10.88,24.302,24.302,24.302c13.421,0,24.302-10.88,24.302-24.302V293.456h10.492    v194.243c0,13.422,10.88,24.302,24.302,24.302c13.422,0,24.302-10.88,24.302-24.302c0-208.882,0-213.316,0-213.316H315.404z"/>
	</g>
</g>
<g>
	<g>
		<path d="M472.773,147.067c-0.131-26.294-21.965-47.684-48.671-47.684h-16.068V88.976c6.635-7.14,11.319-16.113,13.215-26.078    h-17.034c-5.543,9.865-19.104,16.84-34.968,16.84s-29.425-6.974-34.968-16.84h-17.034c1.896,9.964,6.578,18.937,13.215,26.078    v10.407h-16.067c-26.706,0-48.54,21.391-48.671,47.684c0,0.034,0,0.068,0,0.102v75.146h40.502v-75.079c0,0,0.18-0.454,0.548-1.135    c0.997-1.852,3.126-2.789,5.166-2.274s3.467,2.351,3.467,4.454v106.292h107.698V147.235c0-2.532,2.052-4.585,4.584-4.585    c2.532-0.001,4.585,2.051,4.586,4.583c0,0.001,0,0.002,0,0.003v75.079h40.502v-75.146    C472.773,147.135,472.773,147.101,472.773,147.067z M408.292,165.669c0,1.778-1.441,3.219-3.22,3.219h-25.259    c-1.778,0-3.22-1.441-3.22-3.219v-12.382c0-1.778,1.442-3.219,3.22-3.219h25.259c1.778,0,3.22,1.441,3.22,3.219V165.669z"/>
	</g>
</g>
<g>
</g>
<g>
</g>
<g>
</g>
<g>
</g>
<g>
</g>
<g>
</g>
<g>
</g>
<g>
</g>
<g>
</g>
<g>
</g>
<g>
</g>
<g>
</g>
<g>
</g>
<g>
</g>
<g>
</g>
</svg>
