<?xml version="1.0" encoding="iso-8859-1"?>
<!-- Generator: Adobe Illustrator 19.0.0, SVG Export Plug-In . SVG Version: 6.00 Build 0)  -->
<svg xmlns="http://www.w3.org/2000/svg" xmlns:xlink="http://www.w3.org/1999/xlink" version="1.1" id="Capa_1" x="0px" y="0px" viewBox="0 0 512 512" style="enable-background:new 0 0 512 512;" xml:space="preserve">
<g>
	<g>
		<path d="M173.072,0.698c-22.444,0-41.188,15.806-45.732,36.891h15.55c5.285-8.085,16.808-13.695,30.182-13.695    c13.374,0,24.897,5.61,30.182,13.695h15.55C214.26,16.504,195.516,0.698,173.072,0.698z"/>
	</g>
</g>
<g>
	<g>
		<path d="M229.326,248.463v13.765c0,9.884,8.013,17.896,17.896,17.896c9.883,0,17.896-8.013,17.896-17.896v-13.765H229.326z"/>
	</g>
</g>
<g>
	<g>
		<path d="M222.11,88.523h-14.758v-9.195c5.6-6.026,9.626-13.527,11.438-21.858h-15.532c-5.285,8.085-16.808,13.695-30.182,13.695    c-13.374,0-24.897-5.61-30.182-13.695h-15.532c1.81,8.333,5.838,15.833,11.438,21.858v9.195H125.16    c-27.621,0-36.813,23.179-41.751,35.631c-0.241,0.608-0.235,0.626-2.066,5.963l-6.287-10.961l-30.798,18.25l25.673,44.764    c3.491,6.086,10.221,9.579,17.224,8.911c6.992-0.668,12.949-5.364,15.228-12.008l14.445-42.107    c3.164-7.923,5.018-10.868,5.941-11.946c0.319-0.373,0.771-0.608,1.259-0.655c0.028-0.003,0.055-0.005,0.084-0.008    c0.509-0.043,1.012,0.129,1.387,0.475c0.376,0.346,0.589,0.833,0.589,1.343v92.529h94.793v-87.956c0-2.332,1.89-4.222,4.222-4.223    c2.332-0.001,4.223,1.889,4.224,4.221c0,0.001,0,0.003,0,0.004v100.205h35.792V130.662    C265.004,107.427,245.71,88.523,222.11,88.523z"/>
	</g>
</g>
<g>
	<g>
		<path d="M60.919,94.509C56,85.935,45.063,82.971,36.492,87.888c-8.574,4.917-11.539,15.854-6.62,24.427l5.677,9.902l30.795-18.251    L60.919,94.509z"/>
	</g>
</g>
<g>
	<g>
		<path d="M317.008,401.43V281.35c35.826,2.048,70.828-26.494,106.671-9.855c0.873,0.405,1.892,0.337,2.704-0.182    c0.811-0.519,1.302-1.416,1.299-2.378c-0.076-24.677,0.124-49.355,0.025-74.033c-0.004-1.044-0.587-2-1.511-2.485    c-43.646-22.852-86.437,23.739-130.051,3.489c-0.872-0.405-1.889-0.337-2.7,0.18s-1.302,1.411-1.302,2.372    c0.002,30.192-0.004,198.701-0.001,199.379c-12.798-1.387-25.849-2.104-39.1-2.104c-10.869,0-21.599,0.49-32.168,1.428    c0,0,0.008-150.7,0.008-160.945h-95.183c0,0.354,0,9.306,0,183.096C74.091,439.497,30.498,471.568,0,511.302h506.08    C463.753,456.155,396.206,415.764,317.008,401.43z M177.921,403.64c-3.111,0.668-6.202,1.376-9.272,2.125V260.027h9.272V403.64z"/>
	</g>
</g>
<g>
	<g>
		<path d="M392.836,118.82c-14.541,0-28.719-0.71-42.001-2.051c10.808,10.274,25.411,16.591,41.5,16.591    c16.03,0,30.585-6.271,41.381-16.478C420.759,118.152,406.967,118.82,392.836,118.82z"/>
	</g>
</g>
<g>
	<g>
		<path d="M472.557,38.637c-10.49-2.712-22.639-4.821-35.823-6.275c-11.016-11.999-26.826-19.525-44.399-19.525    c-17.637,0-33.503,7.579-44.523,19.655c-12.747,1.447-24.508,3.511-34.697,6.145c-26.542,6.86-39.444,16.539-39.444,29.586    c0,13.048,12.902,22.727,39.444,29.586c24.49,6.331,54.328,8.585,79.721,8.585c25.403,0,55.236-2.256,79.721-8.585    C499.098,90.949,512,81.271,512,68.223C512,55.175,499.098,45.496,472.557,38.637z M485.173,72.063    c-4.614,2.31-11.853,5.251-22.16,7.61c-21.702,4.969-47.675,6.84-70.176,6.84c-22.316,0-48.348-1.843-70.176-6.84    c-11.218-2.569-18.224-5.241-22.553-7.431c-1.528-0.774-2.491-2.342-2.488-4.054c0.003-1.713,0.972-3.275,2.502-4.044    c10.072-5.061,26.781-8.433,34.947-9.804c-1.524,4.655-2.494,9.56-2.838,14.638c15.159,2.882,35.621,5.112,60.606,5.112    c24.441,0,44.563-2.133,59.619-4.923c-0.336-5.209-1.334-10.235-2.911-15.001c8.218,1.343,25.214,4.696,35.588,9.769    c1.548,0.758,2.534,2.328,2.543,4.051C487.684,69.71,486.714,71.291,485.173,72.063z"/>
	</g>
</g>
<g>
</g>
<g>
</g>
<g>
</g>
<g>
</g>
<g>
</g>
<g>
</g>
<g>
</g>
<g>
</g>
<g>
</g>
<g>
</g>
<g>
</g>
<g>
</g>
<g>
</g>
<g>
</g>
<g>
</g>
</svg>
