<?xml version="1.0" encoding="iso-8859-1"?>
<!-- Generator: Adobe Illustrator 19.0.0, SVG Export Plug-In . SVG Version: 6.00 Build 0)  -->
<svg xmlns="http://www.w3.org/2000/svg" xmlns:xlink="http://www.w3.org/1999/xlink" version="1.1" id="Capa_1" x="0px" y="0px" viewBox="0 0 512 512" style="enable-background:new 0 0 512 512;" xml:space="preserve">
<g>
	<g>
		<path d="M256,0C114.511,0,0,114.497,0,256c0,141.49,114.497,256,256,256c141.488,0,256-114.495,256-255.999    C512,114.511,397.503,0,256,0z M256,481.503C131.658,481.503,30.496,380.342,30.496,256C30.496,131.657,131.657,30.496,256,30.496    S481.504,131.657,481.504,256S380.342,481.503,256,481.503z"/>
	</g>
</g>
<g>
	<g>
		<path d="M440.908,263.817l-61.377-19.424l-22.052-25.121c0.831-3.983,0.764-8.214-0.382-12.409l-4.119-15.076    c-8.281-30.313-40.677-47.186-70.28-36.543l-71.883,25.812c-6.614,2.375-12.483,6.454-17.013,11.827l-47.042,55.78l-68.266-48.667    c-9.62-6.857-22.977-4.619-29.834,5.001s-4.619,22.977,5.001,29.834l84.363,60.141c9.09,6.482,21.634,4.877,28.803-3.668    l29.146-34.735l-4.274,64.956l-68.909,43.545c-9.987,6.311-12.967,19.522-6.656,29.509c6.314,9.991,19.526,12.965,29.508,6.655    l78.112-49.361c5.782-3.654,9.468-9.852,9.918-16.678l4.494-68.29l47.064-12.858l17.351-46.968l-11.613,77.341    c-0.84,5.592,1.025,11.252,5.023,15.25l46.723,46.723c6.879,6.881,17.988,6.961,24.966,0.239    c7.196-6.932,6.977-18.713-0.088-25.778l-40.033-40.033l11.202-74.606c1.374,34.473,1.106,27.751,1.911,47.945l15.35,17.486    c2.144,2.443,4.917,4.253,8.018,5.235l66.56,21.065c9.272,2.936,19.168-2.109,22.266-11.289    C456.057,277.188,450.435,266.832,440.908,263.817z"/>
	</g>
</g>
<g>
	<g>
		<circle cx="403.799" cy="173.49" r="39.339"/>
	</g>
</g>
<g>
</g>
<g>
</g>
<g>
</g>
<g>
</g>
<g>
</g>
<g>
</g>
<g>
</g>
<g>
</g>
<g>
</g>
<g>
</g>
<g>
</g>
<g>
</g>
<g>
</g>
<g>
</g>
<g>
</g>
</svg>
