<?xml version="1.0" encoding="iso-8859-1"?>
<!-- Generator: Adobe Illustrator 19.0.0, SVG Export Plug-In . SVG Version: 6.00 Build 0)  -->
<svg version="1.1" id="Layer_1" xmlns="http://www.w3.org/2000/svg" xmlns:xlink="http://www.w3.org/1999/xlink" x="0px" y="0px"
	 viewBox="0 0 512 512" style="enable-background:new 0 0 512 512;" xml:space="preserve">
<g>
	<g>
		<g>
			<path d="M59.733,42.667c-9.412,0-17.067,7.654-17.067,17.067S50.321,76.8,59.733,76.8S76.8,69.146,76.8,59.733
				S69.146,42.667,59.733,42.667z"/>
			<path d="M486.4,0H25.6C11.486,0,0,11.486,0,25.6v76.8h512V25.6C512,11.486,500.514,0,486.4,0z M59.733,93.867
				c-18.825,0-34.133-15.309-34.133-34.133S40.909,25.6,59.733,25.6s34.133,15.309,34.133,34.133S78.558,93.867,59.733,93.867z
				 M145.067,93.867c-18.825,0-34.133-15.309-34.133-34.133S126.242,25.6,145.067,25.6S179.2,40.909,179.2,59.733
				S163.891,93.867,145.067,93.867z M221.867,93.867c-18.825,0-34.133-15.309-34.133-34.133S203.042,25.6,221.867,25.6
				S256,40.909,256,59.733S240.691,93.867,221.867,93.867z"/>
			<path d="M221.867,42.667c-9.412,0-17.067,7.654-17.067,17.067S212.454,76.8,221.867,76.8c9.412,0,17.067-7.654,17.067-17.067
				S231.279,42.667,221.867,42.667z"/>
			<path d="M145.067,42.667c-9.412,0-17.067,7.654-17.067,17.067S135.654,76.8,145.067,76.8c9.412,0,17.067-7.654,17.067-17.067
				S154.479,42.667,145.067,42.667z"/>
			<path d="M290.133,332.8V384c0,4.702,3.823,8.533,8.533,8.533h153.6c4.71,0,8.533-3.831,8.533-8.533V230.4
				c0-4.702-3.823-8.533-8.533-8.533h-153.6c-4.71,0-8.533,3.831-8.533,8.533v51.2c0,2.261-0.896,4.429-2.5,6.033L268.066,307.2
				l19.567,19.567C289.237,328.363,290.133,330.539,290.133,332.8z M412.1,296.166c-1.604-1.604-2.5-3.772-2.5-6.033v-17.067
				c0-4.625-3.908-8.533-8.533-8.533c-4.719,0-8.533-3.823-8.533-8.533s3.814-8.533,8.533-8.533c14.114,0,25.6,11.486,25.6,25.6
				v13.534l14.566,14.566c3.337,3.337,3.337,8.73,0,12.066l-14.566,14.566v13.534c0,14.114-11.486,25.6-25.6,25.6
				c-4.719,0-8.533-3.823-8.533-8.533s3.814-8.533,8.533-8.533c4.625,0,8.533-3.908,8.533-8.533v-17.067
				c0-2.261,0.896-4.437,2.5-6.033l11.034-11.034L412.1,296.166z M309.717,301.039l14.549-14.455v-13.517
				c0-14.114,11.486-25.6,25.6-25.6c4.719,0,8.533,3.823,8.533,8.533s-3.814,8.533-8.533,8.533c-4.625,0-8.533,3.908-8.533,8.533
				v17.067c0,2.27-0.905,4.446-2.517,6.05l-11.017,10.948l11.051,11.119c1.587,1.596,2.483,3.763,2.483,6.016v17.067
				c0,4.625,3.908,8.533,8.533,8.533c4.719,0,8.533,3.823,8.533,8.533s-3.814,8.533-8.533,8.533c-14.114,0-25.6-11.486-25.6-25.6
				v-13.542l-14.583-14.686c-1.604-1.604-2.492-3.78-2.483-6.042C307.209,304.802,308.113,302.635,309.717,301.039z"/>
			<path d="M0,486.4C0,500.514,11.486,512,25.6,512h460.8c14.114,0,25.6-11.486,25.6-25.6V119.467H0V486.4z M179.2,469.333H85.333
				c-4.719,0-8.533-3.823-8.533-8.533s3.814-8.533,8.533-8.533H179.2c4.719,0,8.533,3.823,8.533,8.533
				S183.919,469.333,179.2,469.333z M76.8,358.4c0-4.71,3.814-8.533,8.533-8.533H179.2c4.719,0,8.533,3.823,8.533,8.533
				s-3.814,8.533-8.533,8.533H85.333C80.614,366.933,76.8,363.11,76.8,358.4z M249.967,301.167l23.1-23.1V230.4
				c0-14.114,11.486-25.6,25.6-25.6h153.6c14.114,0,25.6,11.486,25.6,25.6V384c0,14.114-11.486,25.6-25.6,25.6h-153.6
				c-14.114,0-25.6-11.486-25.6-25.6v-47.667l-23.1-23.1C246.63,309.897,246.63,304.503,249.967,301.167z M238.933,409.6
				c0,4.71-3.814,8.533-8.533,8.533H110.933c-4.719,0-8.533-3.823-8.533-8.533s3.814-8.533,8.533-8.533H230.4
				C235.119,401.067,238.933,404.89,238.933,409.6z M213.333,204.8c0,4.71-3.814,8.533-8.533,8.533H85.333
				c-4.719,0-8.533-3.823-8.533-8.533c0-4.71,3.814-8.533,8.533-8.533H204.8C209.519,196.267,213.333,200.09,213.333,204.8z
				 M59.733,145.067H128c4.719,0,8.533,3.823,8.533,8.533c0,4.71-3.814,8.533-8.533,8.533H59.733c-4.719,0-8.533-3.823-8.533-8.533
				C51.2,148.89,55.014,145.067,59.733,145.067z M59.733,247.467H128c4.719,0,8.533,3.823,8.533,8.533s-3.814,8.533-8.533,8.533
				H59.733c-4.719,0-8.533-3.823-8.533-8.533S55.014,247.467,59.733,247.467z M59.733,298.667H204.8
				c4.719,0,8.533,3.823,8.533,8.533s-3.814,8.533-8.533,8.533H59.733c-4.719,0-8.533-3.823-8.533-8.533
				S55.014,298.667,59.733,298.667z"/>
		</g>
	</g>
</g>
<g>
</g>
<g>
</g>
<g>
</g>
<g>
</g>
<g>
</g>
<g>
</g>
<g>
</g>
<g>
</g>
<g>
</g>
<g>
</g>
<g>
</g>
<g>
</g>
<g>
</g>
<g>
</g>
<g>
</g>
</svg>
