<?xml version="1.0" encoding="iso-8859-1"?>
<!-- Generator: Adobe Illustrator 19.0.0, SVG Export Plug-In . SVG Version: 6.00 Build 0)  -->
<svg version="1.1" id="Layer_1" xmlns="http://www.w3.org/2000/svg" xmlns:xlink="http://www.w3.org/1999/xlink" x="0px" y="0px"
	 viewBox="0 0 512 512" style="enable-background:new 0 0 512 512;" xml:space="preserve">
<g>
	<g>
		<path d="M401.067,0H110.933C49.766,0,0,49.766,0,110.933v290.133C0,462.234,49.766,512,110.933,512h290.133
			C462.234,512,512,462.234,512,401.067V110.933C512,49.766,462.234,0,401.067,0z M168.149,347.349
			c-1.664,1.664-3.849,2.5-6.033,2.5s-4.369-0.836-6.033-2.5l-84.796-84.804c-1.058-0.862-1.903-1.98-2.441-3.277
			c-1.331-3.191-0.674-6.861,1.775-9.301l85.385-85.385c3.337-3.337,8.738-3.337,12.066,0c3.336,3.328,3.336,8.73,0,12.066
			l-79.283,79.275l79.36,79.352C171.486,338.611,171.486,344.013,168.149,347.349z M256,349.867c-7.066,0-12.8-5.734-12.8-12.8
			c0-7.066,5.734-12.8,12.8-12.8c7.074,0,12.8,5.734,12.8,12.8C268.8,344.132,263.074,349.867,256,349.867z M289.195,235.255
			c-15.667,13.355-24.661,33.357-24.661,54.878v4.446c0,4.71-3.814,8.533-8.533,8.533s-8.533-3.823-8.533-8.533v-4.446
			c0-26.53,11.179-51.268,30.66-67.874c7.629-6.502,12.006-15.974,12.006-25.993c0-18.5-15.633-34.133-34.133-34.133
			c-18.825,0-34.133,15.309-34.133,34.133c0,4.71-3.814,8.533-8.533,8.533c-4.719,0-8.533-3.823-8.533-8.533
			c0-28.237,22.972-51.2,51.2-51.2c27.75,0,51.2,23.45,51.2,51.2C307.2,211.294,300.638,225.502,289.195,235.255z M441.66,262.033
			l-85.385,85.385c-1.664,1.673-3.849,2.5-6.033,2.5c-2.185,0-4.369-0.828-6.033-2.5c-3.337-3.328-3.337-8.73,0-12.066
			l79.275-79.283l-79.352-79.352c-3.328-3.328-3.328-8.73,0-12.066c3.337-3.328,8.738-3.328,12.066,0l84.821,84.813
			c1.041,0.862,1.886,1.98,2.423,3.268C444.757,255.923,444.1,259.593,441.66,262.033z"/>
	</g>
</g>
<g>
</g>
<g>
</g>
<g>
</g>
<g>
</g>
<g>
</g>
<g>
</g>
<g>
</g>
<g>
</g>
<g>
</g>
<g>
</g>
<g>
</g>
<g>
</g>
<g>
</g>
<g>
</g>
<g>
</g>
</svg>
