<?xml version="1.0" encoding="iso-8859-1"?>
<!-- Generator: Adobe Illustrator 19.0.0, SVG Export Plug-In . SVG Version: 6.00 Build 0)  -->
<svg version="1.1" id="Layer_1" xmlns="http://www.w3.org/2000/svg" xmlns:xlink="http://www.w3.org/1999/xlink" x="0px" y="0px"
	 viewBox="0 0 512 512" style="enable-background:new 0 0 512 512;" xml:space="preserve">
<g>
	<g>
		<g>
			<path d="M498.534,392.533h-3.601V102.4c0-18.825-15.309-34.133-34.133-34.133H51.2c-18.825,0-34.133,15.309-34.133,34.133
				v290.133h-3.601C6.042,392.533,0,398.575,0,405.999v24.269c0,7.424,6.042,13.466,13.466,13.466h485.069
				c7.424,0,13.466-6.042,13.466-13.466v-24.269C512,398.575,505.958,392.533,498.534,392.533z M51.2,110.933
				c0-4.71,3.823-8.533,8.533-8.533h392.533c4.71,0,8.533,3.823,8.533,8.533v256c0,4.71-3.823,8.533-8.533,8.533H59.733
				c-4.71,0-8.533-3.823-8.533-8.533V110.933z M494.933,426.667H17.067V409.6h192.068c3.968,5.265,10.223,8.533,16.998,8.533H294.4
				c6.775,0,13.03-3.268,16.998-8.533h183.535V426.667z"/>
			<path d="M443.733,119.467H68.267V358.4h375.467V119.467z M179.2,264.533c4.318,0,8.593-1.237,12.706-3.686
				c4.045-2.406,9.284-1.084,11.691,2.978c2.415,4.045,1.084,9.284-2.97,11.691c-6.784,4.036-13.995,6.084-21.427,6.084
				c-23.526,0-42.667-19.14-42.667-42.667c0-23.526,19.14-42.667,42.667-42.667c7.433,0,14.643,2.048,21.427,6.084
				c4.053,2.406,5.385,7.646,2.97,11.691c-2.406,4.053-7.654,5.385-11.691,2.978c-4.113-2.449-8.388-3.686-12.706-3.686
				c-14.114,0-25.6,11.486-25.6,25.6S165.086,264.533,179.2,264.533z M247.467,230.4H256h8.533c14.114,0,25.6,11.486,25.6,25.6
				s-11.486,25.6-25.6,25.6h-13.534c-10.061,0-19.524-3.917-26.633-11.034c-3.337-3.337-3.337-8.73,0-12.066
				c3.337-3.336,8.73-3.336,12.066,0c3.831,3.831,9.148,6.033,14.566,6.033h13.534c4.702,0,8.533-3.831,8.533-8.533
				c0-4.702-3.831-8.533-8.533-8.533H256h-8.533c-14.114,0-25.6-11.486-25.6-25.6c0-14.114,11.486-25.6,25.6-25.6h13.534
				c10.061,0,19.524,3.917,26.633,11.034c3.336,3.336,3.336,8.73,0,12.066c-3.337,3.337-8.73,3.337-12.066,0
				c-3.831-3.831-9.148-6.033-14.566-6.033h-13.534c-4.702,0-8.533,3.831-8.533,8.533C238.933,226.569,242.765,230.4,247.467,230.4z
				 M332.8,230.4h8.533h8.533c14.114,0,25.6,11.486,25.6,25.6s-11.486,25.6-25.6,25.6h-13.534c-10.061,0-19.524-3.917-26.633-11.034
				c-3.336-3.337-3.336-8.73,0-12.066c3.337-3.336,8.73-3.336,12.066,0c3.831,3.831,9.148,6.033,14.566,6.033h13.534
				c4.702,0,8.533-3.831,8.533-8.533c0-4.702-3.831-8.533-8.533-8.533h-8.533H332.8c-14.114,0-25.6-11.486-25.6-25.6
				c0-14.114,11.486-25.6,25.6-25.6h13.534c10.061,0,19.524,3.917,26.633,11.034c3.337,3.336,3.337,8.73,0,12.066
				s-8.73,3.337-12.066,0c-3.831-3.831-9.148-6.033-14.566-6.033H332.8c-4.702,0-8.533,3.831-8.533,8.533
				C324.267,226.569,328.098,230.4,332.8,230.4z"/>
		</g>
	</g>
</g>
<g>
</g>
<g>
</g>
<g>
</g>
<g>
</g>
<g>
</g>
<g>
</g>
<g>
</g>
<g>
</g>
<g>
</g>
<g>
</g>
<g>
</g>
<g>
</g>
<g>
</g>
<g>
</g>
<g>
</g>
</svg>
