<?xml version="1.0" encoding="iso-8859-1"?>
<!-- Generator: Adobe Illustrator 19.0.0, SVG Export Plug-In . SVG Version: 6.00 Build 0)  -->
<svg version="1.1" id="Layer_1" xmlns="http://www.w3.org/2000/svg" xmlns:xlink="http://www.w3.org/1999/xlink" x="0px" y="0px"
	 viewBox="0 0 512 512" style="enable-background:new 0 0 512 512;" xml:space="preserve">
<g>
	<g>
		<g>
			<path d="M498.534,392.533h-3.601V102.4c0-18.825-15.309-34.133-34.133-34.133H51.2c-18.825,0-34.133,15.309-34.133,34.133
				v290.133h-3.601C6.042,392.533,0,398.575,0,405.999v24.269c0,7.424,6.042,13.466,13.466,13.466h485.069
				c7.424,0,13.466-6.042,13.466-13.466v-24.269C512,398.575,505.958,392.533,498.534,392.533z M51.2,110.933
				c0-4.71,3.823-8.533,8.533-8.533h392.533c4.719,0,8.533,3.823,8.533,8.533v256c0,4.71-3.814,8.533-8.533,8.533H59.733
				c-4.71,0-8.533-3.823-8.533-8.533V110.933z M494.933,426.667H17.067V409.6h192.068c3.968,5.265,10.223,8.533,16.998,8.533H294.4
				c6.775,0,13.03-3.268,16.998-8.533h183.535V426.667z"/>
			<path d="M343.467,213.333H332.8v21.333h10.667c5.879,0,10.667-4.787,10.667-10.667S349.346,213.333,343.467,213.333z"/>
			<path d="M172.8,213.333h-10.667v21.333H172.8c5.879,0,10.667-4.787,10.667-10.667S178.679,213.333,172.8,213.333z"/>
			<path d="M443.733,119.467H68.267V358.4h375.467V119.467z M172.8,251.733h-10.667v21.333c0,4.71-3.823,8.533-8.533,8.533
				c-4.71,0-8.533-3.823-8.533-8.533V204.8c0-4.71,3.823-8.533,8.533-8.533h19.2c15.292,0,27.733,12.442,27.733,27.733
				S188.092,251.733,172.8,251.733z M290.133,273.067c0,4.71-3.823,8.533-8.533,8.533s-8.533-3.823-8.533-8.533v-25.6h-34.133v25.6
				c0,4.71-3.823,8.533-8.533,8.533s-8.533-3.823-8.533-8.533V204.8c0-4.71,3.823-8.533,8.533-8.533s8.533,3.823,8.533,8.533v25.6
				h34.133v-25.6c0-4.71,3.823-8.533,8.533-8.533s8.533,3.823,8.533,8.533V273.067z M343.467,251.733H332.8v21.333
				c0,4.71-3.823,8.533-8.533,8.533s-8.533-3.823-8.533-8.533V204.8c0-4.71,3.823-8.533,8.533-8.533h19.2
				c15.292,0,27.733,12.442,27.733,27.733S358.758,251.733,343.467,251.733z"/>
		</g>
	</g>
</g>
<g>
</g>
<g>
</g>
<g>
</g>
<g>
</g>
<g>
</g>
<g>
</g>
<g>
</g>
<g>
</g>
<g>
</g>
<g>
</g>
<g>
</g>
<g>
</g>
<g>
</g>
<g>
</g>
<g>
</g>
</svg>
