<?xml version="1.0" encoding="iso-8859-1"?>
<!-- Generator: Adobe Illustrator 19.0.0, SVG Export Plug-In . SVG Version: 6.00 Build 0)  -->
<svg version="1.1" id="Layer_1" xmlns="http://www.w3.org/2000/svg" xmlns:xlink="http://www.w3.org/1999/xlink" x="0px" y="0px"
	 viewBox="0 0 512 512" style="enable-background:new 0 0 512 512;" xml:space="preserve">
<g>
	<g>
		<g>
			<path d="M498.534,392.533h-3.601V102.4c0-18.825-15.309-34.133-34.133-34.133H51.2c-18.825,0-34.133,15.309-34.133,34.133
				v290.133h-3.601C6.042,392.533,0,398.575,0,405.999v24.269c0,7.424,6.042,13.466,13.466,13.466h485.069
				c7.424,0,13.466-6.042,13.466-13.466v-24.269C512,398.575,505.958,392.533,498.534,392.533z M51.2,110.933
				c0-4.71,3.823-8.533,8.533-8.533h392.533c4.71,0,8.533,3.823,8.533,8.533v256c0,4.71-3.823,8.533-8.533,8.533H59.733
				c-4.71,0-8.533-3.823-8.533-8.533V110.933z M494.933,426.667H17.067V409.6h192.068c3.968,5.265,10.223,8.533,16.998,8.533H294.4
				c6.775,0,13.03-3.268,16.998-8.533h183.535V426.667z"/>
			<path d="M443.736,119.468H68.269v238.933h375.467V119.468z M219.378,296.176c-1.664,1.673-3.849,2.5-6.033,2.5
				c-2.185,0-4.369-0.828-6.033-2.5l-50.807-50.807c-0.99-0.845-1.783-1.92-2.295-3.166c-1.323-3.191-0.64-6.861,1.801-9.301
				l51.26-51.251c3.328-3.336,8.73-3.336,12.066,0c3.328,3.328,3.328,8.73,0,12.066l-45.175,45.175l45.218,45.218
				C222.714,287.446,222.714,292.848,219.378,296.176z M272.967,189.134L255.9,291.542c-0.7,4.173-4.309,7.134-8.414,7.134
				c-0.461,0-0.939-0.034-1.408-0.12c-4.651-0.777-7.791-5.171-7.014-9.822l17.067-102.409c0.777-4.642,5.12-7.791,9.822-7.006
				C270.595,180.088,273.735,184.492,272.967,189.134z M355.817,244.959l-51.098,51.26c-1.664,1.673-3.849,2.509-6.042,2.509
				c-2.176,0-4.361-0.828-6.025-2.492c-3.337-3.328-3.345-8.73-0.017-12.066l45.09-45.235l-45.09-45.175
				c-3.328-3.345-3.319-8.747,0.017-12.075c3.336-3.336,8.747-3.311,12.066,0.009l51.098,51.209
				C359.136,236.238,359.136,241.622,355.817,244.959z"/>
		</g>
	</g>
</g>
<g>
</g>
<g>
</g>
<g>
</g>
<g>
</g>
<g>
</g>
<g>
</g>
<g>
</g>
<g>
</g>
<g>
</g>
<g>
</g>
<g>
</g>
<g>
</g>
<g>
</g>
<g>
</g>
<g>
</g>
</svg>
