<?xml version="1.0" encoding="iso-8859-1"?>
<!-- Generator: Adobe Illustrator 19.0.0, SVG Export Plug-In . SVG Version: 6.00 Build 0)  -->
<svg version="1.1" id="Layer_1" xmlns="http://www.w3.org/2000/svg" xmlns:xlink="http://www.w3.org/1999/xlink" x="0px" y="0px"
	 viewBox="0 0 512 512" style="enable-background:new 0 0 512 512;" xml:space="preserve">
<g>
	<g>
		<g>
			<path d="M110.938,426.669h290.133v-358.4H110.938V426.669z M292.732,202.345c-3.328-3.337-3.319-8.738,0.009-12.066
				c3.345-3.336,8.747-3.328,12.075,0.009l51.098,51.2c3.319,3.337,3.319,8.721,0,12.058l-51.098,51.26
				c-1.673,1.673-3.857,2.509-6.042,2.509c-2.185,0-4.361-0.828-6.025-2.483c-3.336-3.328-3.345-8.738-0.026-12.075l45.09-45.227
				L292.732,202.345z M239.151,297.33l17.067-102.417c0.777-4.634,5.137-7.782,9.822-7.006c4.651,0.777,7.791,5.171,7.014,9.822
				l-17.067,102.409c-0.691,4.173-4.309,7.125-8.405,7.125c-0.461,0-0.939-0.034-1.417-0.111
				C241.523,306.375,238.383,301.98,239.151,297.33z M156.105,241.487l51.251-51.251c3.337-3.336,8.738-3.336,12.066,0
				c3.337,3.328,3.337,8.73,0,12.066l-45.175,45.175l45.227,45.218c3.328,3.336,3.328,8.738,0,12.075
				c-1.673,1.664-3.849,2.492-6.033,2.492s-4.369-0.828-6.033-2.492l-50.807-50.816c-0.99-0.845-1.784-1.92-2.304-3.166
				C152.973,247.597,153.664,243.928,156.105,241.487z"/>
			<path d="M256,452.267c-9.412,0-17.067,7.654-17.067,17.067c0,9.412,7.654,17.067,17.067,17.067s17.067-7.654,17.067-17.067
				C273.067,459.921,265.412,452.267,256,452.267z"/>
			<path d="M410.47,0H101.53C83.191,0,68.267,15.164,68.267,33.801V478.2c0,18.637,14.925,33.8,33.263,33.8H410.47
				c18.338,0,33.263-15.164,33.263-33.8V33.801C443.733,15.164,428.809,0,410.47,0z M256,25.6h8.533c4.71,0,8.533,3.823,8.533,8.533
				c0,4.71-3.823,8.533-8.533,8.533H256c-4.71,0-8.533-3.823-8.533-8.533C247.467,29.423,251.29,25.6,256,25.6z M418.133,435.2
				c0,4.71-3.823,8.533-8.533,8.533H278.34c7.168,6.263,11.793,15.36,11.793,25.6c0,18.825-15.309,34.133-34.133,34.133
				s-34.133-15.309-34.133-34.133c0-10.24,4.625-19.337,11.793-25.6H102.4c-4.71,0-8.533-3.823-8.533-8.533V59.733
				c0-4.71,3.823-8.533,8.533-8.533h307.2c4.71,0,8.533,3.823,8.533,8.533V435.2z"/>
		</g>
	</g>
</g>
<g>
</g>
<g>
</g>
<g>
</g>
<g>
</g>
<g>
</g>
<g>
</g>
<g>
</g>
<g>
</g>
<g>
</g>
<g>
</g>
<g>
</g>
<g>
</g>
<g>
</g>
<g>
</g>
<g>
</g>
</svg>
