<?xml version="1.0" encoding="iso-8859-1"?>
<!-- Generator: Adobe Illustrator 19.0.0, SVG Export Plug-In . SVG Version: 6.00 Build 0)  -->
<svg version="1.1" id="Layer_1" xmlns="http://www.w3.org/2000/svg" xmlns:xlink="http://www.w3.org/1999/xlink" x="0px" y="0px"
	 viewBox="0 0 512 512" style="enable-background:new 0 0 512 512;" xml:space="preserve">
<g>
	<g>
		<g>
			<path d="M452.267,51.2h-153.6c-4.702,0-8.533,3.831-8.533,8.533v51.2c0,2.261-0.896,4.437-2.5,6.033l-19.567,19.567
				l19.567,19.567c1.604,1.596,2.5,3.772,2.5,6.033v51.2c0,4.702,3.831,8.533,8.533,8.533h153.6c4.71,0,8.533-3.831,8.533-8.533
				v-153.6C460.8,55.031,456.977,51.2,452.267,51.2z M375.467,204.8c-4.71,0-8.533-3.823-8.533-8.533s3.823-8.533,8.533-8.533
				s8.533,3.823,8.533,8.533S380.177,204.8,375.467,204.8z M384,162.133c0,4.71-3.823,8.533-8.533,8.533s-8.533-3.823-8.533-8.533
				V76.8c0-4.71,3.823-8.533,8.533-8.533S384,72.09,384,76.8V162.133z"/>
			<path d="M486.4,0H25.6C11.486,0,0,11.486,0,25.6v460.8C0,500.514,11.486,512,25.6,512h460.8c14.114,0,25.6-11.486,25.6-25.6V25.6
				C512,11.486,500.514,0,486.4,0z M59.733,42.667H128c4.71,0,8.533,3.823,8.533,8.533s-3.823,8.533-8.533,8.533H59.733
				c-4.71,0-8.533-3.823-8.533-8.533S55.023,42.667,59.733,42.667z M59.733,93.867H204.8c4.71,0,8.533,3.823,8.533,8.533
				c0,4.71-3.823,8.533-8.533,8.533H59.733c-4.71,0-8.533-3.823-8.533-8.533C51.2,97.69,55.023,93.867,59.733,93.867z
				 M213.333,204.8c0,4.71-3.823,8.533-8.533,8.533H85.333c-4.71,0-8.533-3.823-8.533-8.533c0-4.71,3.823-8.533,8.533-8.533H204.8
				C209.51,196.267,213.333,200.09,213.333,204.8z M59.733,145.067H128c4.71,0,8.533,3.823,8.533,8.533
				c0,4.71-3.823,8.533-8.533,8.533H59.733c-4.71,0-8.533-3.823-8.533-8.533C51.2,148.89,55.023,145.067,59.733,145.067z
				 M59.733,247.467H128c4.71,0,8.533,3.823,8.533,8.533s-3.823,8.533-8.533,8.533H59.733c-4.71,0-8.533-3.823-8.533-8.533
				S55.023,247.467,59.733,247.467z M51.2,307.2c0-4.71,3.823-8.533,8.533-8.533H204.8c4.71,0,8.533,3.823,8.533,8.533
				s-3.823,8.533-8.533,8.533H59.733C55.023,315.733,51.2,311.91,51.2,307.2z M187.733,358.4c0,4.71-3.823,8.533-8.533,8.533H85.333
				c-4.71,0-8.533-3.823-8.533-8.533s3.823-8.533,8.533-8.533H179.2C183.91,349.867,187.733,353.69,187.733,358.4z M179.2,469.333
				H85.333c-4.71,0-8.533-3.823-8.533-8.533s3.823-8.533,8.533-8.533H179.2c4.71,0,8.533,3.823,8.533,8.533
				S183.91,469.333,179.2,469.333z M230.4,418.133H110.933c-4.71,0-8.533-3.823-8.533-8.533s3.823-8.533,8.533-8.533H230.4
				c4.71,0,8.533,3.823,8.533,8.533S235.11,418.133,230.4,418.133z M477.867,452.267c0,14.114-11.486,25.6-25.6,25.6h-153.6
				c-14.114,0-25.6-11.486-25.6-25.6v-47.667l-23.1-23.1c-3.336-3.337-3.336-8.73,0-12.066l23.1-23.1v-47.667
				c0-14.114,11.486-25.6,25.6-25.6h153.6c14.114,0,25.6,11.486,25.6,25.6V452.267z M477.867,213.333
				c0,14.114-11.486,25.6-25.6,25.6h-153.6c-14.114,0-25.6-11.486-25.6-25.6v-47.667l-23.1-23.1c-3.336-3.337-3.336-8.73,0-12.066
				l23.1-23.1V59.733c0-14.114,11.486-25.6,25.6-25.6h153.6c14.114,0,25.6,11.486,25.6,25.6V213.333z"/>
			<path d="M452.269,290.131h-153.6c-4.71,0-8.533,3.831-8.533,8.533v51.2c0,2.261-0.905,4.437-2.5,6.033l-19.567,19.567
				l19.567,19.567c1.596,1.604,2.5,3.772,2.5,6.033v51.2c0,4.71,3.823,8.533,8.533,8.533h153.6c4.702,0,8.533-3.823,8.533-8.533
				v-153.6C460.803,293.962,456.971,290.131,452.269,290.131z M375.469,443.731c-4.719,0-8.533-3.814-8.533-8.533
				c0-4.71,3.814-8.533,8.533-8.533c4.71,0,8.533,3.823,8.533,8.533C384.003,439.916,380.18,443.731,375.469,443.731z
				 M395.437,369.013c-7.27,5.257-11.435,12.655-11.435,20.301v20.284c0,4.719-3.823,8.533-8.533,8.533
				c-4.719,0-8.533-3.814-8.533-8.533v-20.284c0-13.193,6.741-25.634,18.509-34.133c5.359-3.874,7.97-10.394,6.81-17.016
				c-1.178-6.707-6.912-12.442-13.619-13.619c-5.18-0.905-10.197,0.41-14.131,3.712c-3.883,3.251-6.101,8.021-6.101,13.073
				c0,4.719-3.823,8.533-8.533,8.533c-4.719,0-8.533-3.814-8.533-8.533c0-10.112,4.446-19.635,12.186-26.146
				c7.748-6.511,17.963-9.216,28.058-7.45c13.764,2.423,25.071,13.722,27.486,27.486
				C411.369,348.328,406.138,361.282,395.437,369.013z"/>
		</g>
	</g>
</g>
<g>
</g>
<g>
</g>
<g>
</g>
<g>
</g>
<g>
</g>
<g>
</g>
<g>
</g>
<g>
</g>
<g>
</g>
<g>
</g>
<g>
</g>
<g>
</g>
<g>
</g>
<g>
</g>
<g>
</g>
</svg>
