<?xml version="1.0" encoding="iso-8859-1"?>
<!-- Generator: Adobe Illustrator 19.0.0, SVG Export Plug-In . SVG Version: 6.00 Build 0)  -->
<svg version="1.1" id="Layer_1" xmlns="http://www.w3.org/2000/svg" xmlns:xlink="http://www.w3.org/1999/xlink" x="0px" y="0px"
	 viewBox="0 0 512 512" style="enable-background:new 0 0 512 512;" xml:space="preserve">
<g>
	<g>
		<g>
			<path d="M42.667,388.267c4.719,0,8.533-3.814,8.533-8.533V64c0-4.719-3.814-8.533-8.533-8.533S34.133,59.281,34.133,64v315.733
				C34.133,384.452,37.948,388.267,42.667,388.267z"/>
			<path d="M469.333,388.267c4.719,0,8.533-3.814,8.533-8.533V64c0-4.719-3.814-8.533-8.533-8.533S460.8,59.281,460.8,64v315.733
				C460.8,384.452,464.614,388.267,469.333,388.267z"/>
			<path d="M76.8,320c4.719,0,8.533-3.814,8.533-8.533V64c0-4.719-3.814-8.533-8.533-8.533S68.267,59.281,68.267,64v247.467
				C68.267,316.186,72.081,320,76.8,320z"/>
			<path d="M102.4,320c4.719,0,8.533-3.814,8.533-8.533V64c0-4.719-3.814-8.533-8.533-8.533S93.867,59.281,93.867,64v247.467
				C93.867,316.186,97.681,320,102.4,320z"/>
			<path d="M145.067,320c4.719,0,8.533-3.814,8.533-8.533V64c0-4.719-3.814-8.533-8.533-8.533s-8.533,3.814-8.533,8.533v247.467
				C136.533,316.186,140.348,320,145.067,320z"/>
			<path d="M435.2,320c4.719,0,8.533-3.814,8.533-8.533V64c0-4.719-3.814-8.533-8.533-8.533s-8.533,3.814-8.533,8.533v247.467
				C426.667,316.186,430.481,320,435.2,320z"/>
			<path d="M76.8,371.2c4.719,0,8.533-3.814,8.533-8.533v-8.533c0-4.719-3.814-8.533-8.533-8.533s-8.533,3.814-8.533,8.533v8.533
				C68.267,367.386,72.081,371.2,76.8,371.2z"/>
			<path d="M102.4,371.2c4.719,0,8.533-3.814,8.533-8.533v-8.533c0-4.719-3.814-8.533-8.533-8.533s-8.533,3.814-8.533,8.533v8.533
				C93.867,367.386,97.681,371.2,102.4,371.2z"/>
			<path d="M128,371.2c4.719,0,8.533-3.814,8.533-8.533v-8.533c0-4.719-3.814-8.533-8.533-8.533s-8.533,3.814-8.533,8.533v8.533
				C119.467,367.386,123.281,371.2,128,371.2z"/>
			<path d="M145.067,354.133v8.533c0,4.719,3.814,8.533,8.533,8.533c4.719,0,8.533-3.814,8.533-8.533v-8.533
				c0-4.719-3.814-8.533-8.533-8.533C148.881,345.6,145.067,349.414,145.067,354.133z"/>
			<path d="M401.067,362.667c0,4.719,3.814,8.533,8.533,8.533s8.533-3.814,8.533-8.533v-8.533c0-4.719-3.814-8.533-8.533-8.533
				s-8.533,3.814-8.533,8.533V362.667z"/>
			<path d="M435.2,371.2c4.719,0,8.533-3.814,8.533-8.533v-8.533c0-4.719-3.814-8.533-8.533-8.533s-8.533,3.814-8.533,8.533v8.533
				C426.667,367.386,430.481,371.2,435.2,371.2z"/>
			<path d="M512,12.8H0v426.667h386.057l53.538,53.461c4.036,4.045,9.421,6.272,15.147,6.272c5.717,0,11.093-2.227,15.13-6.263
				l10.249-10.231c4.045-4.036,6.281-9.421,6.281-15.138s-2.227-11.102-6.272-15.147l-12.971-12.954H512V12.8z M494.933,422.4
				h-44.868l-32.452-32.401c-9.037-9.028-22.588-10.624-33.374-5.06l-12.45-12.433c18.185-20.966,29.278-48.239,29.278-78.106
				c0-15.582-3.089-30.43-8.533-44.083V64c0-4.719-3.814-8.533-8.533-8.533c-4.719,0-8.533,3.814-8.533,8.533v156.74
				c-2.679-3.405-5.504-6.69-8.533-9.788V64c0-4.719-3.814-8.533-8.533-8.533s-8.533,3.814-8.533,8.533v132.497
				c-7.885-5.513-16.486-10.044-25.6-13.551V64c0-4.719-3.814-8.533-8.533-8.533S307.2,59.281,307.2,64v113.766
				c-2.799-0.614-5.658-1.058-8.533-1.468V64c0-4.719-3.814-8.533-8.533-8.533S281.6,59.281,281.6,64v110.933
				c-8.789,0-17.34,1.024-25.6,2.833V64c0-4.719-3.814-8.533-8.533-8.533s-8.533,3.814-8.533,8.533v118.946
				c-12.518,4.813-24.047,11.58-34.133,20.079V64c0-4.719-3.814-8.533-8.533-8.533s-8.533,3.814-8.533,8.533v156.74
				c-3.106,3.951-5.939,8.115-8.533,12.442V64c0-4.719-3.814-8.533-8.533-8.533s-8.533,3.814-8.533,8.533v230.4
				c0,65.877,53.589,119.467,119.467,119.467c29.875,0,57.148-11.093,78.114-29.286l12.39,12.373
				c-2.15,4.07-3.413,8.567-3.413,13.295c0,2.031,0.239,4.019,0.649,5.956c0.137,0.649,0.393,1.254,0.572,1.894
				c0.367,1.271,0.742,2.526,1.28,3.738c0.077,0.179,0.111,0.384,0.188,0.563H17.067V29.867h477.867V422.4z M290.133,217.6
				c0,4.719-3.814,8.533-8.533,8.533c-37.641,0-68.267,30.626-68.267,68.267c0,4.719-3.814,8.533-8.533,8.533
				s-8.533-3.814-8.533-8.533c0-47.053,38.281-85.333,85.333-85.333C286.319,209.067,290.133,212.881,290.133,217.6z"/>
		</g>
	</g>
</g>
<g>
</g>
<g>
</g>
<g>
</g>
<g>
</g>
<g>
</g>
<g>
</g>
<g>
</g>
<g>
</g>
<g>
</g>
<g>
</g>
<g>
</g>
<g>
</g>
<g>
</g>
<g>
</g>
<g>
</g>
</svg>
