<?xml version="1.0" encoding="iso-8859-1"?>
<!-- Generator: Adobe Illustrator 19.0.0, SVG Export Plug-In . SVG Version: 6.00 Build 0)  -->
<svg version="1.1" id="Layer_1" xmlns="http://www.w3.org/2000/svg" xmlns:xlink="http://www.w3.org/1999/xlink" x="0px" y="0px"
	 viewBox="0 0 512 512" style="enable-background:new 0 0 512 512;" xml:space="preserve">
<g>
	<g>
		<g>
			<path d="M162.133,354.133c-9.421,0-17.067,7.646-17.067,17.067c0,9.421,7.646,17.067,17.067,17.067
				c9.421,0,17.067-7.646,17.067-17.067C179.2,361.779,171.554,354.133,162.133,354.133z"/>
			<path d="M281.6,354.133c-9.421,0-17.067,7.646-17.067,17.067c0,9.421,7.646,17.067,17.067,17.067
				c9.421,0,17.067-7.646,17.067-17.067C298.667,361.779,291.021,354.133,281.6,354.133z"/>
			<path d="M503.467,362.667h-59.733v-256c0-9.412-7.654-17.067-17.067-17.067h-409.6C7.654,89.6,0,97.254,0,106.667V294.4h76.8
				c4.71,0,8.533,3.814,8.533,8.533s-3.823,8.533-8.533,8.533H0v17.067h51.2c4.71,0,8.533,3.814,8.533,8.533S55.91,345.6,51.2,345.6
				H0v17.067c0,9.412,7.654,17.067,17.067,17.067h94.635c4.087,24.175,25.114,42.667,50.432,42.667
				c25.318,0,46.345-18.492,50.432-42.667h18.603c4.087,24.175,25.114,42.667,50.432,42.667c25.318,0,46.344-18.492,50.432-42.667
				H435.2h68.267c4.719,0,8.533-3.814,8.533-8.533S508.186,362.667,503.467,362.667z M68.267,217.6c-4.71,0-8.533-3.814-8.533-8.533
				V140.8c0-4.719,3.823-8.533,8.533-8.533h102.4c4.71,0,8.533,3.814,8.533,8.533v68.267c0,4.719-3.823,8.533-8.533,8.533H68.267z
				 M162.133,405.333c-18.825,0-34.133-15.309-34.133-34.133s15.309-34.133,34.133-34.133s34.133,15.309,34.133,34.133
				S180.958,405.333,162.133,405.333z M281.6,405.333c-18.825,0-34.133-15.309-34.133-34.133s15.309-34.133,34.133-34.133
				s34.133,15.309,34.133,34.133S300.425,405.333,281.6,405.333z M384,209.067c0,4.719-3.823,8.533-8.533,8.533h-102.4
				c-4.71,0-8.533-3.814-8.533-8.533V140.8c0-4.719,3.823-8.533,8.533-8.533h102.4c4.71,0,8.533,3.814,8.533,8.533V209.067z"/>
			<rect x="76.8" y="149.333" width="85.333" height="51.2"/>
			<rect x="281.6" y="149.333" width="85.333" height="51.2"/>
		</g>
	</g>
</g>
<g>
</g>
<g>
</g>
<g>
</g>
<g>
</g>
<g>
</g>
<g>
</g>
<g>
</g>
<g>
</g>
<g>
</g>
<g>
</g>
<g>
</g>
<g>
</g>
<g>
</g>
<g>
</g>
<g>
</g>
</svg>
