<?xml version="1.0" encoding="iso-8859-1"?>
<!-- Generator: Adobe Illustrator 19.0.0, SVG Export Plug-In . SVG Version: 6.00 Build 0)  -->
<svg version="1.1" id="Layer_1" xmlns="http://www.w3.org/2000/svg" xmlns:xlink="http://www.w3.org/1999/xlink" x="0px" y="0px"
	 viewBox="0 0 511.907 511.907" style="enable-background:new 0 0 511.907 511.907;" xml:space="preserve">
<g>
	<g>
		<g>
			<path d="M255.907,341.286c-9.412,0-17.067,7.654-17.067,17.067c0,9.412,7.654,17.067,17.067,17.067
				c9.412,0,17.067-7.654,17.067-17.067C272.974,348.94,265.319,341.286,255.907,341.286z"/>
			<path d="M400.974,341.286c-9.412,0-17.067,7.654-17.067,17.067c0,9.412,7.654,17.067,17.067,17.067
				c9.412,0,17.067-7.654,17.067-17.067C418.04,348.94,410.386,341.286,400.974,341.286z"/>
			<path d="M110.84,341.286c-9.412,0-17.067,7.654-17.067,17.067c0,9.412,7.654,17.067,17.067,17.067
				c9.412,0,17.067-7.654,17.067-17.067C127.907,348.94,120.253,341.286,110.84,341.286z"/>
			<path d="M501.112,291.315l-32.478-81.203c-1.306-3.234-4.437-5.359-7.927-5.359h-8.533v-34.133c0-4.71-3.814-8.533-8.533-8.533
				h-51.2c-4.719,0-8.533,3.823-8.533,8.533v34.133h-8.533c-4.719,0-8.533,3.823-8.533,8.533v76.8h-10.001l-15.778-83.482
				c-2.722-16.282-14.259-28.971-29.244-33.792L204.272,80.985c-2.142-16.777-16.35-29.833-33.698-29.833
				c-18.825,0-34.133,15.309-34.133,34.133c0,15.855,10.914,29.107,25.6,32.922v43.878c0,4.71,3.814,8.533,8.533,8.533
				c9.412,0,17.067,7.654,17.067,17.067c0,9.412-7.654,17.067-17.067,17.067c-9.412,0-17.067-7.654-17.067-17.067
				c0-4.71-3.814-8.533-8.533-8.533s-8.533,3.823-8.533,8.533c0,18.825,15.309,34.133,34.133,34.133s34.133-15.309,34.133-34.133
				c0-15.855-10.914-29.107-25.6-32.922V129.6l75.034,87.287l-13.833,73.199h-95.334v-59.733c0-4.71-3.814-8.533-8.533-8.533h-25.6
				v34.133c0,4.71-3.814,8.533-8.533,8.533s-8.533-3.823-8.533-8.533v-34.133H76.707v34.133c0,4.71-3.814,8.533-8.533,8.533
				s-8.533-3.823-8.533-8.533v-34.133h-25.6c-4.719,0-8.533,3.823-8.533,8.533v59.733h-0.23c-8.516,0-16.401,4.25-21.094,11.358
				c-4.693,7.117-5.487,16.026-2.125,23.851l36.113,84.258H478.2l28.049-25.242c3.601-3.226,5.658-7.851,5.658-12.689v-64.469
				C511.907,299.959,507.418,293.824,501.112,291.315z M187.316,88.512c-0.119,0.589-0.316,1.143-0.486,1.707
				c-0.128,0.418-0.23,0.845-0.393,1.246c-0.29,0.734-0.649,1.434-1.041,2.116c-0.102,0.179-0.188,0.367-0.29,0.546
				c-0.486,0.777-1.032,1.519-1.638,2.21c-0.034,0.043-0.06,0.085-0.094,0.12c-2.645,2.987-6.332,5.06-10.53,5.623
				c-0.085,0.017-0.162,0.051-0.239,0.068c-0.674,0.077-1.34,0.205-2.031,0.205c-9.412,0-17.067-7.654-17.067-17.067
				s7.654-17.067,17.067-17.067c9.412,0,17.067,7.654,17.067,17.067C187.64,86.395,187.512,87.462,187.316,88.512z M110.84,392.486
				c-18.825,0-34.133-15.309-34.133-34.133c0-18.825,15.309-34.133,34.133-34.133s34.133,15.309,34.133,34.133
				C144.974,377.177,129.665,392.486,110.84,392.486z M255.907,392.486c-18.825,0-34.133-15.309-34.133-34.133
				c0-18.825,15.309-34.133,34.133-34.133c18.825,0,34.133,15.309,34.133,34.133C290.04,377.177,274.732,392.486,255.907,392.486z
				 M257.673,290.086l15.249-80.674c2.099-12.587,12.885-21.726,25.651-21.726c1.178,0,2.313,0.154,3.456,0.307
				c1.067,0.171,2.176,0.41,3.405,0.751c0.085,0.026,0.162,0.009,0.247,0.026c9.472,2.688,16.853,10.53,18.577,20.83l15.215,80.486
				H257.673z M465.17,247.419l6.827,17.067H443.64v-17.067H465.17z M400.974,392.486c-18.825,0-34.133-15.309-34.133-34.133
				c0-18.825,15.309-34.133,34.133-34.133c18.825,0,34.133,15.309,34.133,34.133C435.107,377.177,419.798,392.486,400.974,392.486z
				 M383.907,290.086v-68.267h8.533h51.2h11.29l3.413,8.533h-23.236c-4.719,0-8.533,3.823-8.533,8.533v34.133
				c0,4.71,3.814,8.533,8.533,8.533h43.716l3.413,8.533H383.907z"/>
			<path d="M42.574,440.599c0,11.11,9.045,20.156,20.156,20.156h345.489c8.44,0,16.555-3.115,22.827-8.764l28.194-25.37H42.574
				V440.599z"/>
		</g>
	</g>
</g>
<g>
</g>
<g>
</g>
<g>
</g>
<g>
</g>
<g>
</g>
<g>
</g>
<g>
</g>
<g>
</g>
<g>
</g>
<g>
</g>
<g>
</g>
<g>
</g>
<g>
</g>
<g>
</g>
<g>
</g>
</svg>
