<?xml version="1.0" encoding="iso-8859-1"?>
<!-- Generator: Adobe Illustrator 19.0.0, SVG Export Plug-In . SVG Version: 6.00 Build 0)  -->
<svg version="1.1" id="Layer_1" xmlns="http://www.w3.org/2000/svg" xmlns:xlink="http://www.w3.org/1999/xlink" x="0px" y="0px"
	 viewBox="0 0 511.901 511.901" style="enable-background:new 0 0 511.901 511.901;" xml:space="preserve">
<g>
	<g>
		<g>
			<path d="M255.901,324.216c-9.412,0-17.067,7.654-17.067,17.067c0,9.412,7.654,17.067,17.067,17.067
				c9.412,0,17.067-7.654,17.067-17.067C272.967,331.871,265.313,324.216,255.901,324.216z"/>
			<path d="M110.834,324.216c-9.412,0-17.067,7.654-17.067,17.067c0,9.412,7.654,17.067,17.067,17.067
				c9.412,0,17.067-7.654,17.067-17.067C127.901,331.871,120.246,324.216,110.834,324.216z"/>
			<path d="M400.967,324.216c-9.412,0-17.067,7.654-17.067,17.067c0,9.412,7.654,17.067,17.067,17.067
				c9.412,0,17.067-7.654,17.067-17.067C418.034,331.871,410.38,324.216,400.967,324.216z"/>
			<path d="M42.567,423.529c0,11.11,9.045,20.156,20.156,20.156h345.489c8.44,0,16.555-3.115,22.827-8.764l28.194-25.37H42.567
				V423.529z"/>
			<path d="M501.106,274.245l-32.478-81.203c-1.306-3.234-4.437-5.359-7.927-5.359h-8.533V153.55c0-4.71-3.814-8.533-8.533-8.533
				h-51.2c-4.71,0-8.533,3.823-8.533,8.533v34.133h-8.533c-4.71,0-8.533,3.823-8.533,8.533v76.8h-25.6v-59.733
				c0-4.71-3.823-8.533-8.533-8.533h-17.067v-59.733c0-4.71-3.823-8.533-8.533-8.533h-34.133V76.75c0-4.71-3.823-8.533-8.533-8.533
				h-25.6v34.133c0,4.71-3.823,8.533-8.533,8.533s-8.533-3.823-8.533-8.533V68.216h-17.067v34.133c0,4.71-3.823,8.533-8.533,8.533
				s-8.533-3.823-8.533-8.533V68.216h-25.6c-4.71,0-8.533,3.823-8.533,8.533v59.733h-51.2c-4.71,0-8.533,3.823-8.533,8.533v68.267
				c0,4.71,3.823,8.533,8.533,8.533v17.067c0,4.71-3.823,8.533-8.533,8.533c-4.71,0-8.533-3.823-8.533-8.533V204.75H68.167v34.133
				c0,4.71-3.823,8.533-8.533,8.533s-8.533-3.823-8.533-8.533V204.75h-25.6c-4.71,0-8.533,3.823-8.533,8.533v61.312
				c-5.137,1.801-9.694,5.086-12.791,9.779c-4.685,7.108-5.478,16.026-2.125,23.851l36.113,84.258h440.03l28.049-25.242
				c3.601-3.226,5.658-7.851,5.658-12.689v-64.469C511.901,282.889,507.412,276.754,501.106,274.245z M213.234,153.55h17.067v17.067
				c0,4.71,3.823,8.533,8.533,8.533s8.533-3.823,8.533-8.533V153.55h17.067v17.067c0,4.71,3.823,8.533,8.533,8.533
				c4.71,0,8.533-3.823,8.533-8.533V153.55h17.067v51.2h-8.533h-17.067h-17.067h-25.6h-17.067V153.55z M272.967,221.816v17.067
				c0,4.71-3.823,8.533-8.533,8.533c-4.71,0-8.533-3.823-8.533-8.533v-17.067H272.967z M204.701,238.883v-17.067h17.067v51.2
				h-85.333v-51.2h17.067v17.067c0,4.71,3.823,8.533,8.533,8.533c4.71,0,8.533-3.823,8.533-8.533v-17.067h17.067v17.067
				c0,4.71,3.823,8.533,8.533,8.533S204.701,243.593,204.701,238.883z M110.834,153.55h17.067v17.067
				c0,4.71,3.823,8.533,8.533,8.533s8.533-3.823,8.533-8.533V153.55h17.067v17.067c0,4.71,3.823,8.533,8.533,8.533
				s8.533-3.823,8.533-8.533V153.55h17.067v51.2h-68.267h-17.067V153.55z M110.834,375.416c-18.825,0-34.133-15.309-34.133-34.133
				c0-18.825,15.309-34.133,34.133-34.133s34.133,15.309,34.133,34.133C144.967,360.107,129.659,375.416,110.834,375.416z
				 M255.901,375.416c-18.825,0-34.133-15.309-34.133-34.133c0-18.825,15.309-34.133,34.133-34.133
				c18.825,0,34.133,15.309,34.133,34.133C290.034,360.107,274.725,375.416,255.901,375.416z M307.101,238.883
				c0,4.71-3.823,8.533-8.533,8.533s-8.533-3.823-8.533-8.533v-17.067h17.067V238.883z M465.164,230.35l6.827,17.067h-28.356V230.35
				H465.164z M400.967,375.416c-18.825,0-34.133-15.309-34.133-34.133c0-18.825,15.309-34.133,34.133-34.133
				c18.825,0,34.133,15.309,34.133,34.133C435.101,360.107,419.792,375.416,400.967,375.416z M383.901,273.016V204.75h8.533h51.2
				h11.29l3.413,8.533h-23.236c-4.719,0-8.533,3.823-8.533,8.533v34.133c0,4.71,3.814,8.533,8.533,8.533h43.716l3.413,8.533H383.901
				z"/>
		</g>
	</g>
</g>
<g>
</g>
<g>
</g>
<g>
</g>
<g>
</g>
<g>
</g>
<g>
</g>
<g>
</g>
<g>
</g>
<g>
</g>
<g>
</g>
<g>
</g>
<g>
</g>
<g>
</g>
<g>
</g>
<g>
</g>
</svg>
