<?xml version="1.0" encoding="iso-8859-1"?>
<!-- Generator: Adobe Illustrator 19.0.0, SVG Export Plug-In . SVG Version: 6.00 Build 0)  -->
<svg version="1.1" id="Layer_1" xmlns="http://www.w3.org/2000/svg" xmlns:xlink="http://www.w3.org/1999/xlink" x="0px" y="0px"
	 viewBox="0 0 512 512" style="enable-background:new 0 0 512 512;" xml:space="preserve">
<g>
	<g>
		<g>
			<path d="M503.467,332.802h-8.533v-59.733c0-4.71-3.823-8.533-8.533-8.533h-17.067v-59.733c0-4.71-3.823-8.533-8.533-8.533
				h-34.133v-59.733c0-4.71-3.823-8.533-8.533-8.533h-25.6v34.133c0,4.71-3.823,8.533-8.533,8.533s-8.533-3.823-8.533-8.533v-34.133
				H358.4v34.133c0,4.71-3.823,8.533-8.533,8.533s-8.533-3.823-8.533-8.533v-34.133h-25.6c-4.71,0-8.533,3.823-8.533,8.533v59.733
				H256c-4.71,0-8.533,3.823-8.533,8.533v59.733H179.2c-4.71,0-8.533,3.823-8.533,8.533v59.733h-34.133v-68.267
				c4.71,0,8.533-3.823,8.533-8.533v-51.2c0-4.71-3.823-8.533-8.533-8.533v-25.6c0-4.71-3.823-8.533-8.533-8.533h-8.533v-42.667
				c0-4.71-3.823-8.533-8.533-8.533v-25.6c0-4.71-3.823-8.533-8.533-8.533H85.333v-51.2c0-4.71-3.823-8.533-8.533-8.533
				s-8.533,3.823-8.533,8.533v51.2H51.2c-4.71,0-8.533,3.823-8.533,8.533v25.6c-4.71,0-8.533,3.823-8.533,8.533v42.667H25.6
				c-4.71,0-8.533,3.823-8.533,8.533v162.133H8.533c-4.71,0-8.533,3.823-8.533,8.533v68.267h493.867
				C505.25,400.096,512,385.981,512,371.031v-29.696C512,336.625,508.177,332.802,503.467,332.802z M119.467,196.268H85.333
				c-4.71,0-8.533,3.823-8.533,8.533v51.2c0,4.71,3.823,8.533,8.533,8.533h34.133v68.267H34.133v-153.6h8.533h68.267h8.533V196.268z
				 M273.067,332.802h-85.333v-51.2H204.8v17.067c0,4.71,3.823,8.533,8.533,8.533c4.71,0,8.533-3.823,8.533-8.533v-17.067h17.067
				v17.067c0,4.71,3.823,8.533,8.533,8.533s8.533-3.823,8.533-8.533v-17.067h17.067V332.802z M264.533,264.535v-51.2H281.6v17.067
				c0,4.71,3.823,8.533,8.533,8.533s8.533-3.823,8.533-8.533v-17.067h17.067v17.067c0,4.71,3.823,8.533,8.533,8.533
				s8.533-3.823,8.533-8.533v-17.067h17.067v51.2H281.6H264.533z M375.467,332.802h-85.333v-51.2H307.2v17.067
				c0,4.71,3.823,8.533,8.533,8.533s8.533-3.823,8.533-8.533v-17.067h17.067v17.067c0,4.71,3.823,8.533,8.533,8.533
				s8.533-3.823,8.533-8.533v-17.067h17.067V332.802z M366.933,264.535v-51.2H384v17.067c0,4.71,3.823,8.533,8.533,8.533
				c4.71,0,8.533-3.823,8.533-8.533v-17.067h17.067v17.067c0,4.71,3.823,8.533,8.533,8.533s8.533-3.823,8.533-8.533v-17.067h17.067
				v51.2H384H366.933z M477.867,332.802h-85.333v-51.2H409.6v17.067c0,4.71,3.823,8.533,8.533,8.533s8.533-3.823,8.533-8.533
				v-17.067h17.067v17.067c0,4.71,3.823,8.533,8.533,8.533c4.71,0,8.533-3.823,8.533-8.533v-17.067h17.067V332.802z"/>
			<path d="M0,460.756c0,18.842,15.334,34.176,34.176,34.176H435.2c4.164,0,7.723-3.012,8.414-7.125
				c1.57-9.429,4.369-18.441,8.038-27.008h-59.119c-4.71,0-8.533-3.814-8.533-8.533c0-4.71,3.823-8.533,8.533-8.533h68.13
				c3.908-6.067,8.363-11.793,13.38-17.067H0V460.756z"/>
		</g>
	</g>
</g>
<g>
</g>
<g>
</g>
<g>
</g>
<g>
</g>
<g>
</g>
<g>
</g>
<g>
</g>
<g>
</g>
<g>
</g>
<g>
</g>
<g>
</g>
<g>
</g>
<g>
</g>
<g>
</g>
<g>
</g>
</svg>
