<?xml version="1.0" encoding="iso-8859-1"?>
<!-- Generator: Adobe Illustrator 19.0.0, SVG Export Plug-In . SVG Version: 6.00 Build 0)  -->
<svg version="1.1" id="Layer_1" xmlns="http://www.w3.org/2000/svg" xmlns:xlink="http://www.w3.org/1999/xlink" x="0px" y="0px"
	 viewBox="0 0 512 512" style="enable-background:new 0 0 512 512;" xml:space="preserve">
<g>
	<g>
		<g>
			<path d="M102.4,354.133c-9.421,0-17.067,7.646-17.067,17.067c0,9.421,7.646,17.067,17.067,17.067
				c9.421,0,17.067-7.646,17.067-17.067C119.467,361.779,111.821,354.133,102.4,354.133z"/>
			<path d="M409.6,354.133c-9.421,0-17.067,7.646-17.067,17.067c0,9.421,7.646,17.067,17.067,17.067
				c9.421,0,17.067-7.646,17.067-17.067C426.667,361.779,419.021,354.133,409.6,354.133z"/>
			<path d="M51.2,234.667c4.71,0,8.533-3.823,8.533-8.533v-42.667h25.6c4.71,0,8.533-3.823,8.533-8.533
				c0-4.71-3.823-8.533-8.533-8.533h-25.6v-25.6h34.133c4.71,0,8.533-3.823,8.533-8.533s-3.823-8.533-8.533-8.533H51.2
				c-4.71,0-8.533,3.823-8.533,8.533v93.867C42.667,230.844,46.49,234.667,51.2,234.667z"/>
			<path d="M196.267,234.667h42.667c4.71,0,8.533-3.823,8.533-8.533c0-4.71-3.823-8.533-8.533-8.533H204.8v-34.133h17.067
				c4.71,0,8.533-3.823,8.533-8.533c0-4.71-3.823-8.533-8.533-8.533H204.8v-25.6h34.133c4.71,0,8.533-3.823,8.533-8.533
				s-3.823-8.533-8.533-8.533h-42.667c-4.71,0-8.533,3.823-8.533,8.533v93.867C187.733,230.844,191.556,234.667,196.267,234.667z"/>
			<path d="M264.533,234.667H307.2c4.71,0,8.533-3.823,8.533-8.533c0-4.71-3.823-8.533-8.533-8.533h-34.133v-34.133h17.067
				c4.71,0,8.533-3.823,8.533-8.533c0-4.71-3.823-8.533-8.533-8.533h-17.067v-25.6H307.2c4.71,0,8.533-3.823,8.533-8.533
				s-3.823-8.533-8.533-8.533h-42.667c-4.71,0-8.533,3.823-8.533,8.533v93.867C256,230.844,259.823,234.667,264.533,234.667z"/>
			<path d="M119.467,234.667c4.71,0,8.533-3.823,8.533-8.533V192h4.437l31.565,39.467c1.69,2.108,4.164,3.2,6.665,3.2
				c1.877,0,3.755-0.614,5.333-1.869c3.678-2.944,4.275-8.311,1.331-11.998l-25.899-32.367
				c11.341-5.555,19.234-17.109,19.234-30.566c0-18.825-15.309-34.133-34.133-34.133h-17.067c-4.71,0-8.533,3.823-8.533,8.533
				v93.867C110.933,230.844,114.756,234.667,119.467,234.667z M128,140.8h8.533c9.412,0,17.067,7.654,17.067,17.067
				c0,9.412-7.654,17.067-17.067,17.067H128V140.8z"/>
			<path d="M503.902,277.333h-91.998c-15.386,0-27.904-12.518-27.904-27.904v-40.363c0-4.71,3.823-8.533,8.533-8.533
				c4.71,0,8.533,3.823,8.533,8.533v40.363c0,5.973,4.864,10.837,10.837,10.837h55.56l-20.753-83.012
				c-2.85-11.409-13.065-19.388-24.841-19.388h-54.938v-51.2c0-9.412-7.654-17.067-17.067-17.067h-332.8
				C7.654,89.6,0,97.254,0,106.667v153.6v102.4c0,9.412,7.654,17.067,17.067,17.067h34.901C56.055,403.908,77.082,422.4,102.4,422.4
				c25.318,0,46.345-18.492,50.432-42.667h206.336c4.087,24.175,25.114,42.667,50.432,42.667c25.318,0,46.345-18.492,50.432-42.667
				h34.901c9.412,0,17.067-7.654,17.067-17.067v-71.023C512,285.67,508.834,280.414,503.902,277.333z M102.4,405.333
				c-18.825,0-34.133-15.309-34.133-34.133s15.309-34.133,34.133-34.133c18.825,0,34.133,15.309,34.133,34.133
				S121.225,405.333,102.4,405.333z M349.867,166.4v8.559c0,42.334-34.441,76.774-76.774,76.774H17.067V106.667h332.8V166.4z
				 M366.933,311.467c-4.71,0-8.533-3.823-8.533-8.533s3.823-8.533,8.533-8.533H384c4.71,0,8.533,3.823,8.533,8.533
				s-3.823,8.533-8.533,8.533H366.933z M409.6,405.333c-18.825,0-34.133-15.309-34.133-34.133s15.309-34.133,34.133-34.133
				c18.825,0,34.133,15.309,34.133,34.133S428.425,405.333,409.6,405.333z"/>
		</g>
	</g>
</g>
<g>
</g>
<g>
</g>
<g>
</g>
<g>
</g>
<g>
</g>
<g>
</g>
<g>
</g>
<g>
</g>
<g>
</g>
<g>
</g>
<g>
</g>
<g>
</g>
<g>
</g>
<g>
</g>
<g>
</g>
</svg>
