<?xml version="1.0" encoding="iso-8859-1"?>
<!-- Generator: Adobe Illustrator 19.0.0, SVG Export Plug-In . SVG Version: 6.00 Build 0)  -->
<svg version="1.1" id="Layer_1" xmlns="http://www.w3.org/2000/svg" xmlns:xlink="http://www.w3.org/1999/xlink" x="0px" y="0px"
	 viewBox="0 0 512 512" style="enable-background:new 0 0 512 512;" xml:space="preserve">
<g>
	<g>
		<g>
			<path d="M102.4,392.533c-9.421,0-17.067,7.646-17.067,17.067c0,9.421,7.646,17.067,17.067,17.067
				c9.421,0,17.067-7.646,17.067-17.067C119.467,400.179,111.821,392.533,102.4,392.533z"/>
			<path d="M409.6,392.533c-9.421,0-17.067,7.646-17.067,17.067c0,9.421,7.646,17.067,17.067,17.067
				c9.421,0,17.067-7.646,17.067-17.067C426.667,400.179,419.021,392.533,409.6,392.533z"/>
			<path d="M175.4,86.767l12.331,8.218V51.2h-34.133v43.785l12.339-8.218C168.804,84.855,172.533,84.855,175.4,86.767z"/>
			<path d="M503.902,315.733H386.304c-15.386,0-27.904-12.518-27.904-27.904v-40.363c0-4.71,3.823-8.533,8.533-8.533
				s8.533,3.823,8.533,8.533v40.363c0,5.973,4.864,10.837,10.837,10.837h81.161l-20.753-83.012
				c-2.85-11.409-13.065-19.388-24.841-19.388h-80.538v-59.733c0-4.71-3.823-8.533-8.533-8.533c-4.71,0-8.533,3.823-8.533,8.533
				V204.8v8.559c0,22.664-9.933,42.999-25.6,57.071V179.2c0-4.71-3.823-8.533-8.533-8.533H256h-17.067V59.733
				c0-4.71-3.823-8.533-8.533-8.533h-25.6v59.733c0,3.149-1.732,6.042-4.506,7.526c-1.263,0.674-2.645,1.007-4.028,1.007
				c-1.655,0-3.302-0.478-4.736-1.434l-20.864-13.909l-20.864,13.909c-2.628,1.741-5.999,1.903-8.764,0.427
				c-2.773-1.485-4.506-4.378-4.506-7.526V51.2h-25.6c-4.71,0-8.533,3.823-8.533,8.533v110.933H85.333H51.2
				c-4.71,0-8.533,3.823-8.533,8.533v110.933H8.533c-4.71,0-8.533,3.823-8.533,8.533v102.4c0,9.412,7.654,17.067,17.067,17.067
				h34.901C56.055,442.308,77.082,460.8,102.4,460.8c25.318,0,46.345-18.492,50.432-42.667h206.336
				c4.087,24.175,25.114,42.667,50.432,42.667c25.318,0,46.345-18.492,50.432-42.667h34.901c9.412,0,17.067-7.654,17.067-17.067
				v-71.023C512,324.062,508.834,318.814,503.902,315.733z M93.867,187.733h17.067H128v26.718l-12.331-8.218
				c-1.434-0.956-3.089-1.434-4.736-1.434c-1.647,0-3.302,0.478-4.736,1.434l-12.331,8.218V187.733z M102.4,443.733
				c-18.825,0-34.133-15.309-34.133-34.133c0-18.825,15.309-34.133,34.133-34.133c18.825,0,34.133,15.309,34.133,34.133
				C136.533,428.425,121.225,443.733,102.4,443.733z M162.133,290.133h-102.4v-102.4H76.8V230.4c0,3.149,1.732,6.042,4.506,7.526
				c2.765,1.476,6.135,1.314,8.764-0.427l20.864-13.909l20.864,13.909c1.434,0.956,3.081,1.434,4.736,1.434
				c1.382,0,2.765-0.333,4.028-1.007c2.773-1.485,4.506-4.378,4.506-7.526v-42.667h17.067V290.133z M213.333,187.733H230.4h17.067
				v26.718l-12.331-8.218c-1.434-0.956-3.089-1.434-4.736-1.434c-1.647,0-3.302,0.478-4.736,1.434l-12.331,8.218V187.733z
				 M281.6,282.035c-0.222,0.111-0.452,0.222-0.674,0.324c-2.202,1.075-4.454,2.039-6.741,2.893
				c-0.461,0.171-0.922,0.341-1.382,0.503c-2.227,0.785-4.48,1.442-6.758,2.014c-0.529,0.137-1.041,0.29-1.57,0.41
				c-2.261,0.521-4.557,0.896-6.852,1.203c-0.555,0.077-1.084,0.196-1.638,0.256c-2.816,0.316-5.649,0.495-8.491,0.495H179.2v-102.4
				h17.067V230.4c0,3.149,1.732,6.042,4.506,7.526c2.765,1.476,6.135,1.314,8.764-0.427L230.4,223.59l20.864,13.909
				c1.434,0.956,3.081,1.434,4.736,1.434c1.382,0,2.765-0.333,4.028-1.007c2.773-1.485,4.506-4.378,4.506-7.526v-42.667H281.6
				V282.035z M366.933,349.867c-4.71,0-8.533-3.823-8.533-8.533s3.823-8.533,8.533-8.533H384c4.71,0,8.533,3.823,8.533,8.533
				s-3.823,8.533-8.533,8.533H366.933z M409.6,443.733c-18.825,0-34.133-15.309-34.133-34.133c0-18.825,15.309-34.133,34.133-34.133
				c18.825,0,34.133,15.309,34.133,34.133C443.733,428.425,428.425,443.733,409.6,443.733z"/>
		</g>
	</g>
</g>
<g>
</g>
<g>
</g>
<g>
</g>
<g>
</g>
<g>
</g>
<g>
</g>
<g>
</g>
<g>
</g>
<g>
</g>
<g>
</g>
<g>
</g>
<g>
</g>
<g>
</g>
<g>
</g>
<g>
</g>
</svg>
