<?xml version="1.0" encoding="iso-8859-1"?>
<!-- Generator: Adobe Illustrator 19.0.0, SVG Export Plug-In . SVG Version: 6.00 Build 0)  -->
<svg version="1.1" id="Layer_1" xmlns="http://www.w3.org/2000/svg" xmlns:xlink="http://www.w3.org/1999/xlink" x="0px" y="0px"
	 viewBox="0 0 512 512" style="enable-background:new 0 0 512 512;" xml:space="preserve">
<g>
	<g>
		<g>
			<path d="M503.467,465.067h-76.8V12.8c0-0.137-0.051-0.256-0.06-0.384c-0.017-0.435-0.102-0.845-0.188-1.271
				c-0.085-0.418-0.162-0.828-0.307-1.229c-0.043-0.119-0.043-0.256-0.094-0.384c-0.102-0.256-0.29-0.452-0.418-0.691
				c-0.205-0.384-0.401-0.759-0.666-1.109c-0.247-0.333-0.529-0.623-0.819-0.913c-0.29-0.29-0.58-0.572-0.913-0.819
				c-0.35-0.265-0.725-0.461-1.109-0.666c-0.239-0.128-0.435-0.316-0.691-0.418c-0.128-0.051-0.265-0.051-0.393-0.094
				c-0.384-0.145-0.785-0.222-1.195-0.307c-0.435-0.085-0.87-0.171-1.314-0.196c-0.128,0-0.239-0.051-0.367-0.051H93.867
				c-0.137,0-0.256,0.051-0.384,0.06c-0.435,0.017-0.845,0.102-1.271,0.188c-0.418,0.085-0.828,0.162-1.229,0.307
				c-0.12,0.043-0.256,0.043-0.384,0.094c-0.256,0.102-0.452,0.29-0.691,0.418c-0.384,0.205-0.76,0.401-1.109,0.666
				c-0.333,0.247-0.623,0.529-0.913,0.819c-0.29,0.29-0.572,0.58-0.819,0.913c-0.265,0.35-0.461,0.725-0.666,1.109
				c-0.128,0.239-0.316,0.435-0.418,0.691c-0.051,0.128-0.051,0.265-0.094,0.384c-0.145,0.401-0.222,0.811-0.307,1.237
				c-0.085,0.418-0.171,0.828-0.188,1.254c-0.009,0.137-0.06,0.256-0.06,0.393v298.667c-14.114,0-25.6,11.486-25.6,25.6v128h-51.2
				C3.814,465.067,0,468.881,0,473.6v25.6c0,4.719,3.814,8.533,8.533,8.533h76.8h162.133H384h34.133h85.333
				c4.719,0,8.533-3.814,8.533-8.533v-25.6C512,468.881,508.186,465.067,503.467,465.067z M17.067,490.667v-8.533h42.667
				c0,1.647,0.188,3.251,0.486,4.813c0.094,0.486,0.256,0.956,0.375,1.434c0.196,0.768,0.341,1.553,0.597,2.287H17.067z
				 M119.467,311.467H102.4V33.399l17.067,17.067V311.467z M230.4,473.6h-17.067c-4.719,0-8.533-3.814-8.533-8.533
				c0-4.719,3.814-8.533,8.533-8.533H230.4c4.719,0,8.533,3.814,8.533,8.533C238.933,469.786,235.119,473.6,230.4,473.6z M230.4,448
				h-34.133c-4.719,0-8.533-3.814-8.533-8.533s3.814-8.533,8.533-8.533H230.4c4.719,0,8.533,3.814,8.533,8.533
				S235.119,448,230.4,448z M196.07,388.241c0.486,0.009,0.964-0.06,1.451-0.128c-0.418,0.06-0.836,0.154-1.254,0.154
				C196.198,388.267,196.13,388.241,196.07,388.241z M375.467,490.667H271.607c0.256-0.734,0.401-1.519,0.597-2.278
				c0.119-0.486,0.282-0.947,0.375-1.442c0.299-1.562,0.486-3.166,0.486-4.813V337.067c0-14.114-11.486-25.6-25.6-25.6H204.8h-8.533
				c-4.719,0-8.533,3.814-8.533,8.533v43.793l-12.331-8.226c-2.867-1.92-6.605-1.92-9.472,0l-12.331,8.226V320
				c0-4.719-3.814-8.533-8.533-8.533h-8.533v-256h238.933V490.667z M380.467,38.4H131.533l-17.067-17.067h283.068L380.467,38.4z
				 M409.6,473.6v17.067h-17.067V50.466L409.6,33.399V473.6z"/>
			<path d="M294.4,302.93h12.8v4.753c0,11.503,9.353,20.847,20.847,20.847h18.039c11.494,0,20.847-9.344,20.847-20.847v-52.164
				c0-11.503-9.353-20.855-20.847-20.855h-18.039c-11.494,0-20.847,9.353-20.847,20.855v4.745h-12.8
				c-11.768,0-21.333,9.566-21.333,21.333C273.067,293.364,282.633,302.93,294.4,302.93z M324.267,302.93h8.533
				c4.719,0,8.533-3.814,8.533-8.533v-25.6c0-4.71-3.814-8.533-8.533-8.533h-8.533v-4.745c0-2.082,1.698-3.789,3.78-3.789h18.039
				c2.082,0,3.78,1.707,3.78,3.789v52.164c0,2.082-1.698,3.78-3.78,3.78h-18.039c-2.082,0-3.78-1.698-3.78-3.78V302.93z"/>
		</g>
	</g>
</g>
<g>
</g>
<g>
</g>
<g>
</g>
<g>
</g>
<g>
</g>
<g>
</g>
<g>
</g>
<g>
</g>
<g>
</g>
<g>
</g>
<g>
</g>
<g>
</g>
<g>
</g>
<g>
</g>
<g>
</g>
</svg>
