<?xml version="1.0" encoding="iso-8859-1"?>
<!-- Generator: Adobe Illustrator 19.0.0, SVG Export Plug-In . SVG Version: 6.00 Build 0)  -->
<svg version="1.1" id="Layer_1" xmlns="http://www.w3.org/2000/svg" xmlns:xlink="http://www.w3.org/1999/xlink" x="0px" y="0px"
	 viewBox="0 0 512 512" style="enable-background:new 0 0 512 512;" xml:space="preserve">
<g>
	<g>
		<g>
			<path d="M503.467,174.933h-34.133V217.6c0,4.71-3.814,8.533-8.533,8.533h-34.133c-4.719,0-8.533-3.823-8.533-8.533v-42.667H384
				c-4.719,0-8.533,3.823-8.533,8.533v42.667h-25.6c-4.719,0-8.533,3.823-8.533,8.533v102.4h-26.138
				C309.931,133.094,266.317,12.8,196.267,12.8h-128c-4.719,0-8.533,3.823-8.533,8.533v34.133c0,4.71,3.814,8.533,8.533,8.533h8.815
				l-25.54,141.466c-5.12-3.063-11.025-4.932-17.408-4.932C15.309,200.533,0,215.842,0,234.667c0,11.648,5.879,21.922,14.805,28.083
				C5.803,270.711,0,282.214,0,295.151v33.382v51.2v50.603c0,19.149,15.582,34.731,34.731,34.731h8.798
				c3.968,19.448,21.205,34.133,41.805,34.133c20.599,0,37.837-14.686,41.805-34.133h61.457
				c3.968,19.448,21.205,34.133,41.805,34.133c20.599,0,37.837-14.686,41.805-34.133h8.798c19.149,0,34.731-15.582,34.731-34.731
				V422.4h25.6v34.133c0,4.71,3.814,8.533,8.533,8.533h119.467c23.526,0,42.667-19.14,42.667-42.667V302.933V183.467
				C512,178.756,508.186,174.933,503.467,174.933z M76.8,46.933V29.867h119.467c61.363,0,101.316,133.658,102.374,341.333h-17.058
				c-0.009-4.011-0.06-7.74-0.085-11.605c-0.026-2.671-0.034-5.419-0.06-8.047c-0.077-7.142-0.188-14.02-0.333-20.668
				c-0.017-0.828-0.017-1.715-0.034-2.534c0-0.008-0.008-0.008-0.008-0.008c0-0.009,0.008-0.017,0.008-0.017l-0.017-0.521
				c-0.009-0.367-0.017-0.708-0.026-1.067l-0.478-18.688c-0.009-0.179-0.068-0.35-0.085-0.529
				c-2.893-81.442-11.409-124.493-25.984-173.21c-16.367-54.707-38.127-87.373-58.214-87.373h-74.581H87.296H76.8z M225.186,184.414
				c-9.66-9.66-26.53-9.668-36.207,0l-30.165,30.165c-9.984,9.984-9.984,26.223,0,36.207c4.838,4.838,11.264,7.501,18.099,7.501
				c3.883,0,7.586-0.947,10.991-2.569L228.77,320h-41.037v-19.183c0-17.655-14.37-32.017-32.017-32.017h-6.596
				c-6.946,0-12.587-5.649-12.587-12.587v-32.196c0-28.894-17.903-32.017-25.6-32.017h-0.12l18.27-128h67.183
				c6.067,0,25.037,18.935,41.865,75.196c12.1,40.457,19.9,77.073,23.689,136.602l-35.388-56.713
				C235.034,209.041,234.692,193.92,225.186,184.414z M149.12,285.867h6.596c8.243,0,14.95,6.707,14.95,14.95V320H102.4v-59.733
				v-51.2h8.533c2.987,0,8.533,0,8.533,14.95v32.196C119.467,272.563,132.77,285.867,149.12,285.867z M34.133,217.6
				c6.639,0,12.348,3.849,15.164,9.404c0.026,0.043,0.026,0.094,0.043,0.137c1.237,2.483,1.86,5.018,1.86,7.526
				c0,1.152-0.119,2.27-0.341,3.362c-0.102,0.512-0.299,0.99-0.452,1.493c-0.162,0.555-0.29,1.126-0.512,1.655
				c-0.29,0.7-0.683,1.365-1.075,2.022c-0.154,0.282-0.273,0.58-0.452,0.845c-0.597,0.896-1.28,1.758-2.057,2.543v0.009
				c-3.106,3.166-7.407,5.137-12.177,5.137c-9.412,0-17.067-7.654-17.067-17.067C17.067,225.254,24.721,217.6,34.133,217.6z
				 M17.067,295.151c0-14.532,11.819-26.351,26.351-26.351H51.2h34.133V320H17.067V295.151z M17.067,337.067h76.8H179.2h65.109
				h19.857c0.102,5.555,0.179,11.264,0.239,17.161c0.026,2.816,0.034,5.734,0.051,8.602c0.026,2.739,0.034,5.555,0.043,8.371H17.067
				V337.067z M298.667,430.336c0,9.737-7.927,17.664-17.664,17.664h-8.798v-0.026c-0.034-0.154-0.102-0.29-0.137-0.444
				c-0.529-2.458-1.28-4.83-2.21-7.108c-0.333-0.819-0.785-1.57-1.169-2.364c-0.759-1.553-1.536-3.081-2.466-4.523
				c-0.546-0.853-1.161-1.63-1.766-2.432c-0.956-1.271-1.937-2.5-3.021-3.661c-0.717-0.759-1.459-1.468-2.227-2.176
				c-1.152-1.058-2.338-2.048-3.601-2.97c-0.836-0.623-1.673-1.22-2.56-1.783c-1.357-0.853-2.773-1.587-4.224-2.295
				c-0.905-0.435-1.783-0.896-2.722-1.271c-1.638-0.649-3.345-1.135-5.077-1.579c-0.845-0.222-1.656-0.512-2.517-0.683
				c-2.628-0.512-5.333-0.819-8.107-0.819c-2.773,0-5.478,0.307-8.107,0.819c-0.862,0.171-1.673,0.461-2.517,0.683
				c-1.732,0.444-3.439,0.93-5.077,1.579c-0.939,0.375-1.818,0.836-2.722,1.271c-1.451,0.708-2.867,1.442-4.224,2.295
				c-0.887,0.563-1.724,1.161-2.56,1.783c-1.263,0.922-2.449,1.911-3.601,2.97c-0.768,0.708-1.51,1.417-2.227,2.176
				c-1.084,1.161-2.065,2.389-3.021,3.661c-0.606,0.802-1.22,1.579-1.766,2.432c-0.93,1.442-1.707,2.97-2.466,4.523
				c-0.384,0.794-0.836,1.545-1.169,2.364c-0.93,2.278-1.681,4.651-2.21,7.108c-0.034,0.154-0.102,0.29-0.137,0.444V448h-61.457
				v-0.026c-0.034-0.154-0.102-0.29-0.137-0.444c-0.529-2.458-1.28-4.83-2.21-7.108c-0.333-0.819-0.785-1.57-1.169-2.364
				c-0.76-1.553-1.536-3.081-2.466-4.523c-0.546-0.853-1.161-1.63-1.766-2.432c-0.956-1.271-1.937-2.5-3.021-3.661
				c-0.717-0.759-1.459-1.468-2.227-2.176c-1.152-1.058-2.338-2.048-3.601-2.97c-0.836-0.623-1.673-1.22-2.56-1.783
				c-1.357-0.853-2.773-1.587-4.224-2.295c-0.905-0.435-1.784-0.896-2.722-1.271c-1.638-0.649-3.345-1.135-5.077-1.579
				c-0.845-0.222-1.655-0.512-2.517-0.683c-2.628-0.512-5.333-0.819-8.107-0.819c-2.773,0-5.478,0.307-8.107,0.819
				c-0.862,0.171-1.673,0.461-2.517,0.683c-1.732,0.444-3.439,0.93-5.077,1.579c-0.939,0.375-1.818,0.836-2.722,1.271
				c-1.451,0.708-2.867,1.442-4.224,2.295c-0.887,0.563-1.724,1.161-2.56,1.783c-1.263,0.922-2.449,1.911-3.601,2.97
				c-0.768,0.708-1.51,1.417-2.227,2.176c-1.084,1.161-2.065,2.389-3.021,3.661c-0.606,0.802-1.22,1.579-1.766,2.432
				c-0.93,1.442-1.707,2.97-2.466,4.523c-0.384,0.794-0.836,1.545-1.169,2.364c-0.93,2.278-1.681,4.651-2.21,7.108
				c-0.034,0.154-0.102,0.29-0.137,0.444V448h-8.798c-9.737,0-17.664-7.927-17.664-17.664v-42.069h256h25.6V430.336z M341.333,371.2
				h-25.651c-0.026-5.743-0.077-11.443-0.162-17.067h25.813V371.2z M469.333,448H358.4V243.2h17.067v59.733V422.4
				c0,4.71,3.814,8.533,8.533,8.533h109.474C489.95,440.866,480.461,448,469.333,448z M494.933,413.867h-102.4v-102.4h25.6v25.6
				c0,4.71,3.814,8.533,8.533,8.533H460.8c4.719,0,8.533-3.823,8.533-8.533v-25.6h25.6V413.867z"/>
			<rect x="435.2" y="174.933" width="17.067" height="34.133"/>
		</g>
	</g>
</g>
<g>
</g>
<g>
</g>
<g>
</g>
<g>
</g>
<g>
</g>
<g>
</g>
<g>
</g>
<g>
</g>
<g>
</g>
<g>
</g>
<g>
</g>
<g>
</g>
<g>
</g>
<g>
</g>
<g>
</g>
</svg>
