<?xml version="1.0" encoding="iso-8859-1"?>
<!-- Generator: Adobe Illustrator 19.0.0, SVG Export Plug-In . SVG Version: 6.00 Build 0)  -->
<svg version="1.1" id="Layer_1" xmlns="http://www.w3.org/2000/svg" xmlns:xlink="http://www.w3.org/1999/xlink" x="0px" y="0px"
	 viewBox="0 0 512.002 512.002" style="enable-background:new 0 0 512.002 512.002;" xml:space="preserve">
<g>
	<g>
		<g>
			<path d="M136.534,290.137h238.933V51.203H136.534V290.137z M247.468,77.418V68.27c0-4.719,3.823-8.533,8.533-8.533
				s8.533,3.814,8.533,8.533v8.96c9.626,0.922,18.261,3.43,25.6,7.373v-7.799c0-4.719,3.823-8.533,8.533-8.533
				s8.533,3.814,8.533,8.533v51.2c0,4.71-3.823,8.533-8.533,8.533s-8.533-3.823-8.533-8.533v-22.298
				c-5.888-6.093-14.729-9.967-25.6-11.281v68.326c26.01,3.413,51.2,22.076,51.2,50.586c0,28.501-25.19,47.164-51.2,50.577v9.156
				c0,4.71-3.823,8.533-8.533,8.533s-8.533-3.823-8.533-8.533v-8.986c-9.54-0.956-18.227-3.499-25.6-7.45v7.902
				c0,4.71-3.823,8.533-8.533,8.533c-4.71,0-8.533-3.823-8.533-8.533v-51.2c0-4.719,3.823-8.533,8.533-8.533
				c4.71,0,8.533,3.814,8.533,8.533v22.272c5.803,5.922,14.891,9.882,25.6,11.264v-68.292c-26.01-3.413-51.2-22.076-51.2-50.577
				C196.268,99.494,221.458,80.831,247.468,77.418z"/>
			<path d="M401.068,0H110.934c-14.114,0-25.6,11.486-25.6,25.6v477.867c0,4.719,3.823,8.533,8.533,8.533h8.533
				c2.261,0,4.437-0.896,6.033-2.5l19.567-19.567l19.567,19.567c3.336,3.337,8.73,3.337,12.066,0l19.567-19.567l19.567,19.567
				c3.337,3.337,8.73,3.337,12.066,0l19.567-19.567l19.567,19.567c3.337,3.337,8.73,3.337,12.066,0l19.567-19.567l19.567,19.567
				c3.337,3.337,8.73,3.337,12.066,0l19.567-19.567l19.567,19.567c3.337,3.337,8.73,3.337,12.066,0l19.567-19.567l19.567,19.567
				c1.596,1.604,3.763,2.5,6.033,2.5h8.533c4.719,0,8.533-3.814,8.533-8.533V25.6C426.668,11.486,415.182,0,401.068,0z
				 M273.068,375.467c4.71,0,8.533,3.814,8.533,8.533c0,4.719-3.823,8.533-8.533,8.533h-85.333c-4.71,0-8.533-3.814-8.533-8.533
				c0-4.719,3.823-8.533,8.533-8.533H273.068z M247.468,349.867c0-4.719,3.823-8.533,8.533-8.533h59.733
				c4.71,0,8.533,3.814,8.533,8.533s-3.823,8.533-8.533,8.533h-59.733C251.291,358.4,247.468,354.586,247.468,349.867z
				 M221.868,358.4h-93.867c-4.71,0-8.533-3.814-8.533-8.533s3.823-8.533,8.533-8.533h93.867c4.71,0,8.533,3.814,8.533,8.533
				S226.578,358.4,221.868,358.4z M128.001,375.467h25.6c4.71,0,8.533,3.814,8.533,8.533c0,4.719-3.823,8.533-8.533,8.533h-25.6
				c-4.71,0-8.533-3.814-8.533-8.533C119.468,379.281,123.291,375.467,128.001,375.467z M221.868,426.667h-93.867
				c-4.71,0-8.533-3.814-8.533-8.533s3.823-8.533,8.533-8.533h93.867c4.71,0,8.533,3.814,8.533,8.533
				S226.578,426.667,221.868,426.667z M315.734,426.667h-59.733c-4.71,0-8.533-3.814-8.533-8.533s3.823-8.533,8.533-8.533h59.733
				c4.71,0,8.533,3.814,8.533,8.533S320.445,426.667,315.734,426.667z M384.001,426.667h-34.133c-4.71,0-8.533-3.814-8.533-8.533
				s3.823-8.533,8.533-8.533h34.133c4.71,0,8.533,3.814,8.533,8.533S388.711,426.667,384.001,426.667z M384.001,392.533h-76.8
				c-4.71,0-8.533-3.814-8.533-8.533c0-4.719,3.823-8.533,8.533-8.533h76.8c4.71,0,8.533,3.814,8.533,8.533
				C392.534,388.719,388.711,392.533,384.001,392.533z M384.001,358.4h-34.133c-4.71,0-8.533-3.814-8.533-8.533
				s3.823-8.533,8.533-8.533h34.133c4.71,0,8.533,3.814,8.533,8.533S388.711,358.4,384.001,358.4z M392.534,298.667
				c0,4.719-3.823,8.533-8.533,8.533h-256c-4.71,0-8.533-3.814-8.533-8.533v-256c0-4.719,3.823-8.533,8.533-8.533h256
				c4.71,0,8.533,3.814,8.533,8.533V298.667z"/>
			<path d="M298.668,213.333c0-17.604-16.41-30.2-34.133-33.348v66.722C282.215,243.686,298.668,231.501,298.668,213.333z"/>
			<path d="M247.468,161.375V94.653c-17.724,3.14-34.133,15.744-34.133,33.348C213.334,146.168,229.787,158.345,247.468,161.375z"/>
		</g>
	</g>
</g>
<g>
</g>
<g>
</g>
<g>
</g>
<g>
</g>
<g>
</g>
<g>
</g>
<g>
</g>
<g>
</g>
<g>
</g>
<g>
</g>
<g>
</g>
<g>
</g>
<g>
</g>
<g>
</g>
<g>
</g>
</svg>
