<?xml version="1.0" encoding="iso-8859-1"?>
<!-- Generator: Adobe Illustrator 19.0.0, SVG Export Plug-In . SVG Version: 6.00 Build 0)  -->
<svg version="1.1" id="Layer_1" xmlns="http://www.w3.org/2000/svg" xmlns:xlink="http://www.w3.org/1999/xlink" x="0px" y="0px"
	 viewBox="0 0 512.003 512.003" style="enable-background:new 0 0 512.003 512.003;" xml:space="preserve">
<g>
	<g>
		<g>
			<polygon points="187.737,166.406 187.711,166.406 85.362,166.406 85.337,166.406 85.32,166.406 54.514,166.406 82.956,251.739 
				190.118,251.739 218.559,166.406 187.754,166.406 			"/>
			<path d="M0,366.952c0,21.163,17.22,38.383,38.383,38.383h152.371c1.22,14.95-5.265,29.713-17.263,38.161l-15.36,10.837
				c-0.981,0.683-1.809,1.51-2.483,2.424c-10.709,1.126-19.115,10.112-19.115,21.111c0,11.759,9.566,21.333,21.333,21.333h196.267
				c11.767,0,21.333-9.574,21.333-21.333c0-11-8.397-19.977-19.106-21.111c-0.657-0.905-1.476-1.715-2.432-2.398l-15.394-10.846
				c-11.998-8.448-18.492-23.211-17.28-38.178h152.363c21.171,0,38.383-17.22,38.383-38.383v-38.417H0V366.952z M347.938,473.602
				h6.195c2.321,0,4.267,1.954,4.267,4.267c0,2.313-1.946,4.267-4.267,4.267H157.867c-2.313,0-4.267-1.954-4.267-4.267
				c0-2.313,1.954-4.267,4.267-4.267h6.195H347.938z M304.145,405.352c-1.135,19.874,7.535,39.398,23.287,51.183H184.585
				c15.753-11.785,24.431-31.317,23.287-51.2L304.145,405.352z"/>
			<path d="M473.62,12.802H38.386c-21.163,0-38.383,17.22-38.383,38.391v260.275h512V51.193
				C512.003,30.022,494.783,12.802,473.62,12.802z M384.003,89.602h34.133c4.719,0,8.533,3.823,8.533,8.533
				c0,4.71-3.814,8.533-8.533,8.533h-34.133c-4.719,0-8.533-3.823-8.533-8.533C375.47,93.425,379.284,89.602,384.003,89.602z
				 M384.003,157.868c0,4.71-3.814,8.533-8.533,8.533h-51.2c-4.719,0-8.533-3.823-8.533-8.533c0-4.71,3.814-8.533,8.533-8.533h51.2
				C380.189,149.335,384.003,153.158,384.003,157.868z M264.537,89.602h85.333c4.719,0,8.533,3.823,8.533,8.533
				c0,4.71-3.814,8.533-8.533,8.533h-85.333c-4.719,0-8.533-3.823-8.533-8.533C256.003,93.425,259.818,89.602,264.537,89.602z
				 M264.537,149.335h25.6c4.719,0,8.533,3.823,8.533,8.533c0,4.71-3.814,8.533-8.533,8.533h-25.6c-4.719,0-8.533-3.823-8.533-8.533
				C256.003,153.158,259.818,149.335,264.537,149.335z M264.537,200.535h85.333c4.719,0,8.533,3.823,8.533,8.533
				s-3.814,8.533-8.533,8.533h-85.333c-4.719,0-8.533-3.823-8.533-8.533S259.818,200.535,264.537,200.535z M238.493,160.565
				l-34.133,102.4c-1.152,3.49-4.412,5.837-8.09,5.837H76.803c-3.678,0-6.938-2.347-8.09-5.837l-34.133-102.4
				c-0.879-2.603-0.435-5.461,1.161-7.68c1.613-2.236,4.19-3.55,6.929-3.55h37.043l23.381-54.562
				c1.86-4.326,6.895-6.332,11.204-4.48c4.326,1.852,6.34,6.869,4.48,11.204l-20.506,47.838H174.8l-20.506-47.838
				c-1.86-4.335,0.154-9.353,4.48-11.204c4.301-1.86,9.344,0.145,11.204,4.48l23.381,54.562h37.043c2.739,0,5.316,1.314,6.929,3.55
				C238.928,155.104,239.372,157.962,238.493,160.565z M290.137,268.802h-25.6c-4.719,0-8.533-3.823-8.533-8.533
				c0-4.71,3.814-8.533,8.533-8.533h25.6c4.719,0,8.533,3.823,8.533,8.533C298.67,264.979,294.856,268.802,290.137,268.802z
				 M375.47,268.802h-51.2c-4.719,0-8.533-3.823-8.533-8.533c0-4.71,3.814-8.533,8.533-8.533h51.2c4.719,0,8.533,3.823,8.533,8.533
				C384.003,264.979,380.189,268.802,375.47,268.802z M375.47,209.068c0-4.71,3.814-8.533,8.533-8.533h34.133
				c4.719,0,8.533,3.823,8.533,8.533s-3.814,8.533-8.533,8.533h-34.133C379.284,217.602,375.47,213.779,375.47,209.068z
				 M469.337,268.802h-59.733c-4.719,0-8.533-3.823-8.533-8.533c0-4.71,3.814-8.533,8.533-8.533h59.733
				c4.719,0,8.533,3.823,8.533,8.533C477.87,264.979,474.056,268.802,469.337,268.802z M469.337,217.602H452.27
				c-4.719,0-8.533-3.823-8.533-8.533s3.814-8.533,8.533-8.533h17.067c4.719,0,8.533,3.823,8.533,8.533
				S474.056,217.602,469.337,217.602z M469.337,166.402h-59.733c-4.719,0-8.533-3.823-8.533-8.533c0-4.71,3.814-8.533,8.533-8.533
				h59.733c4.719,0,8.533,3.823,8.533,8.533C477.87,162.579,474.056,166.402,469.337,166.402z M469.337,106.668H452.27
				c-4.719,0-8.533-3.823-8.533-8.533c0-4.71,3.814-8.533,8.533-8.533h17.067c4.719,0,8.533,3.823,8.533,8.533
				C477.87,102.845,474.056,106.668,469.337,106.668z"/>
		</g>
	</g>
</g>
<g>
</g>
<g>
</g>
<g>
</g>
<g>
</g>
<g>
</g>
<g>
</g>
<g>
</g>
<g>
</g>
<g>
</g>
<g>
</g>
<g>
</g>
<g>
</g>
<g>
</g>
<g>
</g>
<g>
</g>
</svg>
