<?xml version="1.0" encoding="iso-8859-1"?>
<!-- Generator: Adobe Illustrator 19.0.0, SVG Export Plug-In . SVG Version: 6.00 Build 0)  -->
<svg version="1.1" id="Layer_1" xmlns="http://www.w3.org/2000/svg" xmlns:xlink="http://www.w3.org/1999/xlink" x="0px" y="0px"
	 viewBox="0 0 512 512" style="enable-background:new 0 0 512 512;" xml:space="preserve">
<g>
	<g>
		<g>
			<path d="M170.664,211.936v71.194c0,45.892,20.429,89.267,54.647,116.036c9.796,7.671,20.105,13.815,30.686,18.287
				c10.581-4.471,20.898-10.615,30.703-18.287c34.21-26.769,54.63-70.144,54.63-116.036v-71.194
				c-38.716-6.05-67.046-19.524-85.333-31.078C237.711,192.412,209.38,205.886,170.664,211.936z M233.521,230.206
				c-9.242,3.627-18.867,6.775-28.723,9.404v43.52c0,18.995,4.497,37.76,13.005,54.281c2.159,4.19,0.503,9.335-3.678,11.494
				c-1.254,0.64-2.594,0.947-3.9,0.947c-3.098,0-6.084-1.69-7.603-4.625c-9.737-18.927-14.891-40.397-14.891-62.097v-50.167
				c0-3.951,2.705-7.381,6.545-8.303c11.358-2.722,22.468-6.195,33.015-10.334c4.378-1.741,9.335,0.435,11.051,4.821
				C240.074,223.533,237.907,228.482,233.521,230.206z"/>
			<path d="M261.556,78.855l45.645,39.117V8.532h-102.4v109.44l45.645-39.117C253.646,76.116,258.356,76.116,261.556,78.855z"/>
			<path d="M469.333,8.535H324.267v112.486c0,6.195-3.499,11.648-9.122,14.234c-5.632,2.594-12.041,1.69-16.742-2.338L256,96.573
				l-42.402,36.343c-2.918,2.5-6.502,3.797-10.146,3.797c-2.219,0-4.463-0.478-6.596-1.459c-5.623-2.586-9.122-8.038-9.122-14.234
				V8.535H42.667C19.14,8.535,0,27.675,0,51.201v409.6c0,23.526,19.14,42.667,42.667,42.667h426.667
				c23.526,0,42.667-19.14,42.667-42.667v-409.6C512,27.675,492.86,8.535,469.333,8.535z M358.4,283.129
				c0,51.098-22.869,99.499-61.184,129.485c-12.075,9.438-24.9,16.845-38.11,22.007c-0.998,0.384-2.048,0.58-3.106,0.58
				c-1.058,0-2.108-0.196-3.106-0.58c-13.218-5.163-26.044-12.57-38.101-22.007c-38.315-29.986-61.193-78.387-61.193-129.485
				v-78.601c0-4.292,3.2-7.919,7.458-8.465c42.897-5.444,72.704-20.659,90.163-32.461c2.884-1.963,6.673-1.963,9.557,0
				c17.459,11.802,47.266,27.017,90.163,32.461c4.258,0.546,7.458,4.173,7.458,8.465V283.129z M469.333,469.335h-42.667
				c-4.71,0-8.533-3.823-8.533-8.533c0-4.71,3.823-8.533,8.533-8.533h42.667c4.71,0,8.533,3.823,8.533,8.533
				C477.867,465.512,474.044,469.335,469.333,469.335z M469.333,435.201H409.6c-4.71,0-8.533-3.823-8.533-8.533
				s3.823-8.533,8.533-8.533h59.733c4.71,0,8.533,3.823,8.533,8.533S474.044,435.201,469.333,435.201z"/>
		</g>
	</g>
</g>
<g>
</g>
<g>
</g>
<g>
</g>
<g>
</g>
<g>
</g>
<g>
</g>
<g>
</g>
<g>
</g>
<g>
</g>
<g>
</g>
<g>
</g>
<g>
</g>
<g>
</g>
<g>
</g>
<g>
</g>
</svg>
