<?xml version="1.0" encoding="iso-8859-1"?>
<!-- Generator: Adobe Illustrator 19.0.0, SVG Export Plug-In . SVG Version: 6.00 Build 0)  -->
<svg version="1.1" id="Layer_1" xmlns="http://www.w3.org/2000/svg" xmlns:xlink="http://www.w3.org/1999/xlink" x="0px" y="0px"
	 viewBox="0 0 512 512" style="enable-background:new 0 0 512 512;" xml:space="preserve">
<g>
	<g>
		<g>
			<path d="M503.467,405.333h-8.755c5.419-7.151,8.755-15.957,8.755-25.6V234.667c0-23.526-19.14-42.667-42.667-42.667h-34.133
				c0-4.719-3.823-8.533-8.533-8.533h-51.2c-4.71,0-8.533,3.814-8.533,8.533h-8.755c5.419-7.151,8.755-15.957,8.755-25.6V46.933
				c0-23.526-19.14-42.667-42.667-42.667h-25.6v68.267c0,3.149-1.732,6.042-4.506,7.526c-1.263,0.674-2.645,1.007-4.028,1.007
				c-1.656,0-3.302-0.486-4.736-1.434L256,65.724l-20.864,13.909c-2.628,1.732-5.999,1.911-8.764,0.427
				c-2.773-1.485-4.506-4.378-4.506-7.526V4.267h-25.6c-23.526,0-42.667,19.14-42.667,42.667V140.8h-42.667
				c-4.71,0-8.533,3.814-8.533,8.533H51.2c-23.526,0-42.667,19.14-42.667,42.667v187.733c0,9.643,3.337,18.449,8.755,25.6H8.533
				c-4.71,0-8.533,3.814-8.533,8.533v51.2c0,4.719,3.823,8.533,8.533,8.533h8.533v25.6c0,4.719,3.823,8.533,8.533,8.533h68.267
				c4.71,0,8.533-3.814,8.533-8.533v-25.6h110.933v25.6c0,4.719,3.823,8.533,8.533,8.533h68.267c4.71,0,8.533-3.814,8.533-8.533
				v-25.6H409.6v25.6c0,4.719,3.823,8.533,8.533,8.533H486.4c4.71,0,8.533-3.814,8.533-8.533v-25.6h8.533
				c4.71,0,8.533-3.814,8.533-8.533v-51.2C512,409.148,508.177,405.333,503.467,405.333z M119.467,157.867h42.667h25.6v67.576
				l-28.8-23.04c-1.562-1.246-3.447-1.869-5.333-1.869c-1.886,0-3.772,0.623-5.333,1.869l-28.8,23.04V157.867z M281.6,200.533v179.2
				c0,14.114-11.486,25.6-25.6,25.6H51.2c-14.114,0-25.6-11.486-25.6-25.6V192c0-14.114,11.486-25.6,25.6-25.6h51.2v76.8
				c0,3.285,1.877,6.263,4.838,7.688c2.944,1.425,6.46,1.024,9.028-1.024l37.333-29.875l37.333,29.875
				c0.717,0.572,1.519,0.981,2.347,1.297c0.265,0.094,0.538,0.136,0.802,0.205c0.589,0.154,1.169,0.273,1.775,0.299
				c0.137,0.009,0.273,0.068,0.41,0.068s0.256-0.085,0.393-0.085c1.126-0.06,2.253-0.247,3.302-0.76
				c2.961-1.425,4.838-4.403,4.838-7.688v-76.8H256c14.114,0,25.6,11.486,25.6,25.6V200.533z M486.4,379.733
				c0,14.114-11.486,25.6-25.6,25.6H290.116c0.239-0.324,0.418-0.708,0.657-1.041c0.503-0.708,0.939-1.451,1.399-2.193
				c0.887-1.434,1.698-2.91,2.415-4.454c0.393-0.836,0.759-1.664,1.092-2.526c0.64-1.647,1.152-3.345,1.587-5.077
				c0.196-0.802,0.444-1.579,0.597-2.398c0.486-2.569,0.802-5.197,0.802-7.91V209.067h17.067H358.4v51.2
				c0,3.149,1.732,6.042,4.506,7.526c2.773,1.476,6.135,1.306,8.764-0.427l20.864-13.909l20.864,13.909
				c0.683,0.452,1.417,0.785,2.176,1.024c0.316,0.094,0.64,0.111,0.964,0.179c0.461,0.085,0.905,0.188,1.365,0.196
				c0.077,0,0.154,0.034,0.23,0.034c0.469,0,0.93-0.094,1.391-0.171c0.179-0.026,0.358-0.026,0.538-0.068
				c0.717-0.162,1.425-0.41,2.099-0.768c2.773-1.485,4.506-4.378,4.506-7.526v-51.2H460.8c14.114,0,25.6,11.486,25.6,25.6V379.733z"
				/>
			<path d="M256,371.2h-34.133c-4.71,0-8.533,3.814-8.533,8.533s3.823,8.533,8.533,8.533H256c4.71,0,8.533-3.814,8.533-8.533
				S260.71,371.2,256,371.2z"/>
			<path d="M256,337.067h-51.2c-4.71,0-8.533,3.814-8.533,8.533c0,4.719,3.823,8.533,8.533,8.533H256
				c4.71,0,8.533-3.814,8.533-8.533C264.533,340.881,260.71,337.067,256,337.067z"/>
			<path d="M460.8,379.733h-17.067c-4.71,0-8.533,3.814-8.533,8.533s3.823,8.533,8.533,8.533H460.8c4.71,0,8.533-3.814,8.533-8.533
				S465.51,379.733,460.8,379.733z"/>
			<path d="M460.8,354.133h-34.133c-4.71,0-8.533,3.814-8.533,8.533c0,4.719,3.823,8.533,8.533,8.533H460.8
				c4.71,0,8.533-3.814,8.533-8.533C469.333,357.948,465.51,354.133,460.8,354.133z"/>
		</g>
	</g>
</g>
<g>
</g>
<g>
</g>
<g>
</g>
<g>
</g>
<g>
</g>
<g>
</g>
<g>
</g>
<g>
</g>
<g>
</g>
<g>
</g>
<g>
</g>
<g>
</g>
<g>
</g>
<g>
</g>
<g>
</g>
</svg>
