<?xml version="1.0" encoding="iso-8859-1"?>
<!-- Generator: Adobe Illustrator 19.0.0, SVG Export Plug-In . SVG Version: 6.00 Build 0)  -->
<svg version="1.1" id="Layer_1" xmlns="http://www.w3.org/2000/svg" xmlns:xlink="http://www.w3.org/1999/xlink" x="0px" y="0px"
	 viewBox="0 0 511.994 511.994" style="enable-background:new 0 0 511.994 511.994;" xml:space="preserve">
<g>
	<g>
		<g>
			<path d="M477.86,42.664c-15.863,0-29.107,10.914-32.922,25.6H426.66c-4.173,0-7.731,3.021-8.414,7.134l-5.922,35.533H42.677
				c-13.466,0-25.847,6.084-33.971,16.683c-8.055,10.505-10.684,23.893-7.202,36.83L44.683,318.29
				c5,18.594,21.948,31.573,41.199,31.573h289.417h0.341h6.75c13.875,0,25.771,10.086,27.068,22.955
				c0.742,7.305-1.562,14.319-6.485,19.772c-4.881,5.385-11.793,8.474-18.978,8.474H363.94
				c-7.049-19.857-25.976-34.133-48.213-34.133s-41.165,14.276-48.213,34.133h-99.84c-7.049-19.857-25.975-34.133-48.213-34.133
				s-41.165,14.276-48.213,34.133h-37.12c-4.719,0-8.533,3.814-8.533,8.533c0,4.719,3.814,8.533,8.533,8.533H68.26
				c0,28.237,22.963,51.2,51.2,51.2s51.2-22.963,51.2-51.2h93.867c0,28.237,22.963,51.2,51.2,51.2c28.237,0,51.2-22.963,51.2-51.2
				h17.067c11.998,0,23.535-5.146,31.633-14.097c8.081-8.934,12.023-20.932,10.82-32.93c-2.074-20.369-19.584-36.565-40.619-38.17
				l42.086-211.806c0.009-0.034-0.009-0.077,0-0.12c0.009-0.051,0.043-0.094,0.051-0.145l5.931-35.533h11.042
				c3.814,14.686,17.058,25.6,32.922,25.6c18.825,0,34.133-15.309,34.133-34.133S496.685,42.664,477.86,42.664z M127.994,290.13
				h-17.067v17.067c0,4.719-3.814,8.533-8.533,8.533s-8.533-3.814-8.533-8.533V290.13H76.794c-4.719,0-8.533-3.814-8.533-8.533
				c0-4.719,3.814-8.533,8.533-8.533H93.86v-17.067c0-4.719,3.814-8.533,8.533-8.533s8.533,3.814,8.533,8.533v17.067h17.067
				c4.719,0,8.533,3.814,8.533,8.533C136.527,286.316,132.713,290.13,127.994,290.13z M127.994,187.73h-17.067v17.067
				c0,4.719-3.814,8.533-8.533,8.533s-8.533-3.814-8.533-8.533V187.73H76.794c-4.719,0-8.533-3.814-8.533-8.533
				s3.814-8.533,8.533-8.533H93.86v-17.067c0-4.719,3.814-8.533,8.533-8.533s8.533,3.814,8.533,8.533v17.067h17.067
				c4.719,0,8.533,3.814,8.533,8.533S132.713,187.73,127.994,187.73z M238.927,290.13H221.86v17.067
				c0,4.719-3.814,8.533-8.533,8.533c-4.719,0-8.533-3.814-8.533-8.533V290.13h-17.067c-4.719,0-8.533-3.814-8.533-8.533
				c0-4.719,3.814-8.533,8.533-8.533h17.067v-17.067c0-4.719,3.814-8.533,8.533-8.533c4.719,0,8.533,3.814,8.533,8.533v17.067
				h17.067c4.719,0,8.533,3.814,8.533,8.533C247.46,286.316,243.646,290.13,238.927,290.13z M238.927,187.73H221.86v17.067
				c0,4.719-3.814,8.533-8.533,8.533c-4.719,0-8.533-3.814-8.533-8.533V187.73h-17.067c-4.719,0-8.533-3.814-8.533-8.533
				s3.814-8.533,8.533-8.533h17.067v-17.067c0-4.719,3.814-8.533,8.533-8.533c4.719,0,8.533,3.814,8.533,8.533v17.067h17.067
				c4.719,0,8.533,3.814,8.533,8.533S243.646,187.73,238.927,187.73z M349.86,290.13h-17.067v17.067
				c0,4.719-3.814,8.533-8.533,8.533c-4.719,0-8.533-3.814-8.533-8.533V290.13H298.66c-4.719,0-8.533-3.814-8.533-8.533
				c0-4.719,3.814-8.533,8.533-8.533h17.067v-17.067c0-4.719,3.814-8.533,8.533-8.533c4.719,0,8.533,3.814,8.533,8.533v17.067
				h17.067c4.719,0,8.533,3.814,8.533,8.533C358.394,286.316,354.579,290.13,349.86,290.13z M349.86,187.73h-17.067v17.067
				c0,4.719-3.814,8.533-8.533,8.533c-4.719,0-8.533-3.814-8.533-8.533V187.73H298.66c-4.719,0-8.533-3.814-8.533-8.533
				s3.814-8.533,8.533-8.533h17.067v-17.067c0-4.719,3.814-8.533,8.533-8.533c4.719,0,8.533,3.814,8.533,8.533v17.067h17.067
				c4.719,0,8.533,3.814,8.533,8.533S354.579,187.73,349.86,187.73z M119.46,452.264c-18.825,0-34.133-15.309-34.133-34.133
				c0-18.825,15.309-34.133,34.133-34.133s34.133,15.309,34.133,34.133C153.594,436.955,138.285,452.264,119.46,452.264z
				 M315.727,452.264c-18.825,0-34.133-15.309-34.133-34.133c0-18.825,15.309-34.133,34.133-34.133
				c18.825,0,34.133,15.309,34.133,34.133C349.86,436.955,334.552,452.264,315.727,452.264z M477.86,93.864
				c-9.412,0-17.067-7.654-17.067-17.067s7.654-17.067,17.067-17.067s17.067,7.654,17.067,17.067S487.273,93.864,477.86,93.864z"/>
			<path d="M315.727,401.064c-9.421,0-17.067,7.646-17.067,17.067c0,9.421,7.646,17.067,17.067,17.067
				c9.421,0,17.067-7.646,17.067-17.067C332.794,408.709,325.148,401.064,315.727,401.064z"/>
			<path d="M119.46,401.064c-9.421,0-17.067,7.646-17.067,17.067c0,9.421,7.646,17.067,17.067,17.067s17.067-7.646,17.067-17.067
				C136.527,408.709,128.881,401.064,119.46,401.064z"/>
		</g>
	</g>
</g>
<g>
</g>
<g>
</g>
<g>
</g>
<g>
</g>
<g>
</g>
<g>
</g>
<g>
</g>
<g>
</g>
<g>
</g>
<g>
</g>
<g>
</g>
<g>
</g>
<g>
</g>
<g>
</g>
<g>
</g>
</svg>
