<?xml version="1.0" encoding="iso-8859-1"?>
<!-- Generator: Adobe Illustrator 19.0.0, SVG Export Plug-In . SVG Version: 6.00 Build 0)  -->
<svg version="1.1" id="Layer_1" xmlns="http://www.w3.org/2000/svg" xmlns:xlink="http://www.w3.org/1999/xlink" x="0px" y="0px"
	 viewBox="0 0 512 512" style="enable-background:new 0 0 512 512;" xml:space="preserve">
<g>
	<g>
		<g>
			<path d="M294.4,25.6h-42.667c-4.719,0-8.533,3.823-8.533,8.533c0,4.71,3.814,8.533,8.533,8.533H294.4
				c4.719,0,8.533-3.823,8.533-8.533C302.933,29.423,299.119,25.6,294.4,25.6z"/>
			<path d="M226.133,25.6H217.6c-4.719,0-8.533,3.823-8.533,8.533c0,4.71,3.814,8.533,8.533,8.533h8.533
				c4.719,0,8.533-3.823,8.533-8.533C234.667,29.423,230.852,25.6,226.133,25.6z"/>
			<polygon points="206.309,256 314.221,256 341.536,187.733 179.002,187.733 			"/>
			<path d="M371.524,0H149.009C130.364,0,115.2,15.164,115.2,33.801V51.2v25.6c-4.719,0-8.533,3.823-8.533,8.533v8.533
				c0,4.71,3.814,8.533,8.533,8.533v8.533c-4.719,0-8.533,3.823-8.533,8.533V128c0,4.71,3.814,8.533,8.533,8.533v8.533
				c-4.719,0-8.533,3.823-8.533,8.533v8.533c0,4.71,3.814,8.533,8.533,8.533v273.067V478.2c0,18.637,15.164,33.8,33.809,33.8
				h222.515c18.645,0,33.809-15.164,33.809-33.8v-34.466V51.2V33.801C405.333,15.164,390.17,0,371.524,0z M237.926,494.933h-88.917
				c-9.233,0-16.742-7.509-16.742-16.734v-34.466h105.66c-7.168,6.263-11.793,15.36-11.793,25.6
				C226.133,479.573,230.758,488.67,237.926,494.933z M297.66,170.667l-19.43-38.852c-2.108-4.215-0.393-9.335,3.823-11.452
				c4.207-2.108,9.336-0.393,11.452,3.823l23.236,46.481h37.393c2.833,0,5.478,1.408,7.066,3.746
				c1.587,2.347,1.911,5.325,0.862,7.962l-34.133,85.333c-1.306,3.234-4.437,5.359-7.927,5.359H200.533
				c-3.49,0-6.622-2.125-7.927-5.359l-34.133-85.333c-1.05-2.637-0.725-5.615,0.862-7.962c1.587-2.338,4.233-3.746,7.066-3.746
				h37.393l23.236-46.481c2.116-4.215,7.236-5.931,11.452-3.823c4.215,2.116,5.931,7.236,3.823,11.452l-19.43,38.852H297.66z
				 M166.4,324.267c-4.719,0-8.533-3.823-8.533-8.533s3.814-8.533,8.533-8.533h76.8c4.719,0,8.533,3.823,8.533,8.533
				s-3.814,8.533-8.533,8.533H166.4z M209.067,366.933c0,4.71-3.814,8.533-8.533,8.533H166.4c-4.719,0-8.533-3.823-8.533-8.533
				s3.814-8.533,8.533-8.533h34.133C205.252,358.4,209.067,362.223,209.067,366.933z M234.667,358.4h119.467
				c4.719,0,8.533,3.823,8.533,8.533s-3.814,8.533-8.533,8.533H234.667c-4.719,0-8.533-3.823-8.533-8.533
				S229.948,358.4,234.667,358.4z M354.133,324.267h-76.8c-4.719,0-8.533-3.823-8.533-8.533s3.814-8.533,8.533-8.533h76.8
				c4.719,0,8.533,3.823,8.533,8.533S358.852,324.267,354.133,324.267z M260.267,486.4c-9.412,0-17.067-7.654-17.067-17.067
				c0-9.412,7.654-17.067,17.067-17.067c9.412,0,17.067,7.654,17.067,17.067C277.333,478.746,269.679,486.4,260.267,486.4z
				 M388.267,478.2c0,9.224-7.509,16.734-16.742,16.734h-88.917c7.168-6.263,11.793-15.36,11.793-25.6
				c0-10.24-4.625-19.337-11.793-25.6h105.66V478.2z M388.267,51.2h-256V33.801c0-9.225,7.509-16.734,16.742-16.734h222.515
				c9.233,0,16.742,7.509,16.742,16.734V51.2z"/>
		</g>
	</g>
</g>
<g>
</g>
<g>
</g>
<g>
</g>
<g>
</g>
<g>
</g>
<g>
</g>
<g>
</g>
<g>
</g>
<g>
</g>
<g>
</g>
<g>
</g>
<g>
</g>
<g>
</g>
<g>
</g>
<g>
</g>
</svg>
