<?xml version="1.0" encoding="iso-8859-1"?>
<!-- Generator: Adobe Illustrator 19.0.0, SVG Export Plug-In . SVG Version: 6.00 Build 0)  -->
<svg version="1.1" id="Layer_1" xmlns="http://www.w3.org/2000/svg" xmlns:xlink="http://www.w3.org/1999/xlink" x="0px" y="0px"
	 viewBox="0 0 512 512" style="enable-background:new 0 0 512 512;" xml:space="preserve">
<g>
	<g>
		<g>
			<polygon points="309.958,247.467 337.265,179.2 174.73,179.2 202.045,247.467 			"/>
			<path d="M110.933,392.533h290.133V68.267H110.933V392.533z M196.267,366.933h-34.133c-4.719,0-8.533-3.823-8.533-8.533
				s3.814-8.533,8.533-8.533h34.133c4.719,0,8.533,3.823,8.533,8.533S200.986,366.933,196.267,366.933z M153.6,307.2
				c0-4.71,3.814-8.533,8.533-8.533h76.8c4.719,0,8.533,3.823,8.533,8.533s-3.814,8.533-8.533,8.533h-76.8
				C157.414,315.733,153.6,311.91,153.6,307.2z M349.867,366.933H230.4c-4.719,0-8.533-3.823-8.533-8.533s3.814-8.533,8.533-8.533
				h119.467c4.719,0,8.533,3.823,8.533,8.533S354.586,366.933,349.867,366.933z M349.867,315.733h-76.8
				c-4.719,0-8.533-3.823-8.533-8.533s3.814-8.533,8.533-8.533h76.8c4.719,0,8.533,3.823,8.533,8.533
				S354.586,315.733,349.867,315.733z M155.068,165.879c1.587-2.338,4.233-3.746,7.066-3.746h37.393l23.236-46.481
				c2.125-4.215,7.245-5.931,11.452-3.823c4.215,2.116,5.931,7.236,3.823,11.452l-19.43,38.852h74.786l-19.43-38.852
				c-2.108-4.215-0.393-9.335,3.823-11.452c4.216-2.108,9.327-0.393,11.452,3.823l23.236,46.481h37.393
				c2.833,0,5.478,1.408,7.066,3.746c1.587,2.347,1.911,5.325,0.862,7.962l-34.133,85.333c-1.306,3.234-4.437,5.359-7.927,5.359
				H196.267c-3.49,0-6.622-2.125-7.927-5.359l-34.133-85.333C153.156,171.204,153.481,168.226,155.068,165.879z"/>
			<path d="M256,443.733c-9.412,0-17.067,7.654-17.067,17.067c0,9.412,7.654,17.067,17.067,17.067s17.067-7.654,17.067-17.067
				C273.067,451.388,265.412,443.733,256,443.733z"/>
			<path d="M410.47,0H101.53C83.191,0,68.267,15.164,68.267,33.801V478.2c0,18.637,14.925,33.8,33.263,33.8H410.47
				c18.338,0,33.263-15.164,33.263-33.8V33.801C443.733,15.164,428.809,0,410.47,0z M256,25.6h8.533
				c4.719,0,8.533,3.823,8.533,8.533c0,4.71-3.814,8.533-8.533,8.533H256c-4.719,0-8.533-3.823-8.533-8.533
				C247.467,29.423,251.281,25.6,256,25.6z M256,494.933c-18.825,0-34.133-15.309-34.133-34.133
				c0-18.825,15.309-34.133,34.133-34.133s34.133,15.309,34.133,34.133C290.133,479.625,274.825,494.933,256,494.933z
				 M418.133,401.067c0,4.71-3.814,8.533-8.533,8.533H102.4c-4.719,0-8.533-3.823-8.533-8.533V59.733
				c0-4.71,3.814-8.533,8.533-8.533h307.2c4.719,0,8.533,3.823,8.533,8.533V401.067z"/>
		</g>
	</g>
</g>
<g>
</g>
<g>
</g>
<g>
</g>
<g>
</g>
<g>
</g>
<g>
</g>
<g>
</g>
<g>
</g>
<g>
</g>
<g>
</g>
<g>
</g>
<g>
</g>
<g>
</g>
<g>
</g>
<g>
</g>
</svg>
