<?xml version="1.0" encoding="iso-8859-1"?>
<!-- Generator: Adobe Illustrator 19.0.0, SVG Export Plug-In . SVG Version: 6.00 Build 0)  -->
<svg version="1.1" id="Layer_1" xmlns="http://www.w3.org/2000/svg" xmlns:xlink="http://www.w3.org/1999/xlink" x="0px" y="0px"
	 viewBox="0 0 503.607 503.607" style="enable-background:new 0 0 503.607 503.607;" xml:space="preserve">
<g>
	<g>
		<g>
			<path d="M245.07,310.557c-26.557,11.264-43.629,36.268-43.629,64.126v19.809h100.721v-19.809
				c0-27.858-17.064-52.862-43.629-64.126H245.07z"/>
			<path d="M302.164,209.835H201.443v19.809c0,27.858,17.072,52.862,43.629,64.126h13.463
				c26.557-11.264,43.629-36.268,43.629-64.126V209.835z"/>
			<path d="M386.098,58.754h-41.967v-8.511c0-9.199-7.529-16.669-16.787-16.669h-25.18v-8.511C302.164,11.239,290.866,0,276.984,0
				h-50.361c-13.883,0-25.18,11.239-25.18,25.063v8.511h-25.18c-9.258,0-16.787,7.47-16.787,16.669v8.511h-41.967
				c-23.141,0-41.967,18.826-41.967,41.967v360.918c0,23.141,18.826,41.967,41.967,41.967h268.59
				c23.141,0,41.967-18.826,41.967-41.967V100.721C428.066,77.581,409.239,58.754,386.098,58.754z M176.262,67.148V50.361h33.574
				c4.633,0,8.393-3.76,8.393-8.393V25.063c0-4.642,3.685-8.276,8.393-8.276h50.361c4.709,0,8.393,3.634,8.393,8.276v16.904
				c0,4.633,3.76,8.393,8.393,8.393l33.574-0.118l-0.126,58.872H176.262V67.148z M318.951,374.683v19.808h16.787
				c4.633,0,8.393,3.76,8.393,8.393s-3.76,8.393-8.393,8.393h-16.787h-8.393H193.049h-8.393h-16.787
				c-4.633,0-8.393-3.76-8.393-8.393s3.76-8.393,8.393-8.393h16.787v-19.808c0-29.671,15.494-56.639,40.515-72.519
				c-25.021-15.88-40.515-42.857-40.515-72.519v-19.808h-16.787c-4.633,0-8.393-3.76-8.393-8.393s3.76-8.393,8.393-8.393h16.787
				h8.393h117.508h8.393h16.787c4.633,0,8.393,3.76,8.393,8.393s-3.76,8.393-8.393,8.393h-16.787v19.808
				c0,29.662-15.494,56.639-40.515,72.519C303.457,318.044,318.951,345.012,318.951,374.683z"/>
		</g>
	</g>
</g>
<g>
</g>
<g>
</g>
<g>
</g>
<g>
</g>
<g>
</g>
<g>
</g>
<g>
</g>
<g>
</g>
<g>
</g>
<g>
</g>
<g>
</g>
<g>
</g>
<g>
</g>
<g>
</g>
<g>
</g>
</svg>
