<?xml version="1.0" encoding="iso-8859-1"?>
<!-- Generator: Adobe Illustrator 19.0.0, SVG Export Plug-In . SVG Version: 6.00 Build 0)  -->
<svg version="1.1" id="Layer_1" xmlns="http://www.w3.org/2000/svg" xmlns:xlink="http://www.w3.org/1999/xlink" x="0px" y="0px"
	 viewBox="0 0 503.607 503.607" style="enable-background:new 0 0 503.607 503.607;" xml:space="preserve">
<g>
	<g>
		<g>
			<path d="M167.87,235.018c9.258,0,16.787-7.529,16.787-16.787c0-9.258-7.529-16.787-16.787-16.787
				c-9.258,0-16.787,7.529-16.787,16.787C151.084,227.489,158.613,235.018,167.87,235.018z"/>
			<path d="M291.944,265.993c-4.608-7.042-15.889-7.059-20.505,0l-41.254,62.993c-1.645,2.518-4.432,3.979-7.512,3.777
				c-2.996-0.168-5.674-1.93-7.017-4.625l-20.111-40.221c-1.251-2.501-3.55-2.77-4.482-2.77c-0.923,0-3.223,0.269-4.465,2.77
				l-34.631,69.246c-1.888,3.785-0.369,6.967,0.369,8.175c0.747,1.192,2.921,3.979,7.143,3.979h184.605
				c4.44,0,6.597-3.005,7.319-4.289c0.713-1.284,2.132-4.642-0.101-8.393L291.944,265.993z"/>
			<path d="M386.098,58.754h-41.967v-8.503c0-9.199-7.529-16.678-16.787-16.678h-25.18v-8.503C302.164,11.247,290.866,0,276.984,0
				h-50.352c-13.891,0-25.189,11.247-25.189,25.071v8.503h-25.18c-9.258,0-16.787,7.479-16.787,16.678v8.503h-41.967
				c-23.141,0-41.967,18.826-41.967,41.967v360.918c0,23.141,18.826,41.967,41.967,41.967h268.59
				c23.141,0,41.967-18.826,41.967-41.967V100.721C428.066,77.581,409.239,58.754,386.098,58.754z M176.262,67.148V50.361h33.574
				c4.633,0,8.393-3.752,8.393-8.393V25.071c0-4.642,3.693-8.284,8.402-8.284h50.352c4.709,0,8.393,3.643,8.393,8.284v16.896
				c0,4.642,3.76,8.393,8.393,8.393l33.574-0.109l-0.126,58.863H176.262V67.148z M167.869,184.656
				c18.516,0,33.574,15.058,33.574,33.574c0,18.516-15.058,33.574-33.574,33.574c-18.508,0-33.574-15.058-33.574-33.574
				C134.295,199.714,149.361,184.656,167.869,184.656z M366.046,373.24c-4.516,8.049-12.733,12.859-21.966,12.859H159.475
				c-8.788,0-16.795-4.457-21.42-11.944c-4.616-7.47-5.036-16.627-1.099-24.5l34.623-69.246c3.71-7.42,11.18-12.045,19.49-12.045
				s15.78,4.616,19.498,12.045l13.572,27.17l33.255-50.78c5.38-8.226,14.462-13.136,24.291-13.136s18.919,4.91,24.299,13.136
				l59.442,90.767c0.05,0.076,0.101,0.151,0.143,0.227C370.386,355.672,370.562,365.182,366.046,373.24z"/>
		</g>
	</g>
</g>
<g>
</g>
<g>
</g>
<g>
</g>
<g>
</g>
<g>
</g>
<g>
</g>
<g>
</g>
<g>
</g>
<g>
</g>
<g>
</g>
<g>
</g>
<g>
</g>
<g>
</g>
<g>
</g>
<g>
</g>
</svg>
