<?xml version="1.0" encoding="iso-8859-1"?>
<!-- Generator: Adobe Illustrator 19.0.0, SVG Export Plug-In . SVG Version: 6.00 Build 0)  -->
<svg version="1.1" id="Layer_1" xmlns="http://www.w3.org/2000/svg" xmlns:xlink="http://www.w3.org/1999/xlink" x="0px" y="0px"
	 viewBox="0 0 503.607 503.607" style="enable-background:new 0 0 503.607 503.607;" xml:space="preserve">
<g>
	<g>
		<g>
			<path d="M193.049,268.59h-16.787v117.508h151.082V268.59h-16.787H193.049z M260.197,351.333v9.585
				c0,4.633-3.752,8.393-8.393,8.393c-4.642,0-8.393-3.76-8.393-8.393v-9.585c-14.445-3.752-25.18-16.787-25.18-32.382
				c0-18.516,15.058-33.574,33.574-33.574s33.574,15.058,33.574,33.574C285.377,334.546,274.642,347.581,260.197,351.333z"/>
			<path d="M251.803,302.164c-9.258,0-16.787,7.529-16.787,16.787c0,9.258,7.529,16.787,16.787,16.787s16.787-7.529,16.787-16.787
				C268.59,309.693,261.061,302.164,251.803,302.164z"/>
			<path d="M293.77,243.41c0-23.141-18.826-41.967-41.967-41.967s-41.967,18.826-41.967,41.967v8.393h83.934V243.41z"/>
			<path d="M386.098,58.754h-41.967v-8.511c0-9.191-7.529-16.669-16.787-16.669h-25.18v-8.511C302.164,11.239,290.866,0,276.984,0
				h-50.361c-13.883,0-25.18,11.239-25.18,25.063v8.511h-25.18c-9.258,0-16.787,7.479-16.787,16.669v8.511h-41.967
				c-23.141,0-41.967,18.826-41.967,41.967v360.918c0,23.141,18.826,41.967,41.967,41.967h268.59
				c23.141,0,41.967-18.826,41.967-41.967V100.721C428.066,77.581,409.239,58.754,386.098,58.754z M176.262,67.148V50.361h33.574
				c4.642,0,8.393-3.76,8.393-8.393V25.063c0-4.642,3.685-8.276,8.393-8.276h50.361c4.709,0,8.393,3.634,8.393,8.276v16.904
				c0,4.633,3.752,8.393,8.393,8.393l33.574-0.117l-0.126,58.872H176.262V67.148z M344.131,402.885H159.475V251.803h33.574v-8.393
				c0-32.399,26.364-58.754,58.754-58.754s58.754,26.355,58.754,58.754v8.393h33.574V402.885z"/>
		</g>
	</g>
</g>
<g>
</g>
<g>
</g>
<g>
</g>
<g>
</g>
<g>
</g>
<g>
</g>
<g>
</g>
<g>
</g>
<g>
</g>
<g>
</g>
<g>
</g>
<g>
</g>
<g>
</g>
<g>
</g>
<g>
</g>
</svg>
