<?xml version="1.0" encoding="iso-8859-1"?>
<!-- Generator: Adobe Illustrator 19.0.0, SVG Export Plug-In . SVG Version: 6.00 Build 0)  -->
<svg version="1.1" id="Layer_1" xmlns="http://www.w3.org/2000/svg" xmlns:xlink="http://www.w3.org/1999/xlink" x="0px" y="0px"
	 viewBox="0 0 503.607 503.607" style="enable-background:new 0 0 503.607 503.607;" xml:space="preserve">
<g>
	<g>
		<g>
			<path d="M212.162,486.82h-16.787c-4.642,0-8.393,3.76-8.393,8.393s3.752,8.393,8.393,8.393h16.787
				c4.642,0,8.393-3.76,8.393-8.393S216.804,486.82,212.162,486.82z"/>
			<path d="M312.884,486.82h-16.787c-4.642,0-8.393,3.76-8.393,8.393s3.752,8.393,8.393,8.393h16.787
				c4.642,0,8.393-3.76,8.393-8.393S317.525,486.82,312.884,486.82z"/>
			<path d="M262.523,486.82h-16.787c-4.642,0-8.393,3.76-8.393,8.393s3.752,8.393,8.393,8.393h16.787
				c4.642,0,8.393-3.76,8.393-8.393S267.164,486.82,262.523,486.82z"/>
			<path d="M161.802,486.82h-16.787c-4.642,0-8.393,3.76-8.393,8.393s3.752,8.393,8.393,8.393h16.787
				c4.642,0,8.393-3.76,8.393-8.393S166.443,486.82,161.802,486.82z"/>
			<path d="M363.244,486.82h-16.787c-4.642,0-8.393,3.76-8.393,8.393s3.752,8.393,8.393,8.393h16.787
				c4.642,0,8.393-3.76,8.393-8.393S367.886,486.82,363.244,486.82z"/>
			<path d="M419.671,226.685c-4.642,0-8.393,3.76-8.393,8.393v16.787c0,4.633,3.752,8.393,8.393,8.393s8.393-3.76,8.393-8.393
				v-16.787C428.064,230.445,424.312,226.685,419.671,226.685z"/>
			<path d="M404.482,478.841c-2.871,3.08-6.488,5.397-10.475,6.715c-4.398,1.452-6.799,6.203-5.338,10.601
				c1.167,3.525,4.449,5.766,7.965,5.766c0.873,0,1.754-0.143,2.636-0.428c6.656-2.191,12.708-6.068,17.492-11.205
				c3.164-3.391,2.971-8.704-0.42-11.86C412.968,475.274,407.646,475.467,404.482,478.841z"/>
			<path d="M419.671,277.046c-4.642,0-8.393,3.76-8.393,8.393v16.787c0,4.633,3.752,8.393,8.393,8.393s8.393-3.76,8.393-8.393
				v-16.787C428.064,280.806,424.312,277.046,419.671,277.046z"/>
			<path d="M419.671,125.964c-4.642,0-8.393,3.76-8.393,8.393v16.787c0,4.633,3.752,8.393,8.393,8.393s8.393-3.76,8.393-8.393
				v-16.787C428.064,129.724,424.312,125.964,419.671,125.964z"/>
			<path d="M419.671,176.324c-4.642,0-8.393,3.76-8.393,8.393v16.787c0,4.633,3.752,8.393,8.393,8.393s8.393-3.76,8.393-8.393
				v-16.787C428.064,180.085,424.312,176.324,419.671,176.324z"/>
			<path d="M419.671,377.767c-4.642,0-8.393,3.76-8.393,8.393v16.787c0,4.633,3.752,8.393,8.393,8.393s8.393-3.76,8.393-8.393
				V386.16C428.064,381.527,424.312,377.767,419.671,377.767z"/>
			<path d="M419.671,428.128c-4.642,0-8.393,3.76-8.393,8.393v16.787c0,4.633,3.752,8.393,8.393,8.393s8.393-3.76,8.393-8.393
				v-16.787C428.064,431.888,424.312,428.128,419.671,428.128z"/>
			<path d="M419.671,327.406c-4.642,0-8.393,3.76-8.393,8.393v16.787c0,4.633,3.752,8.393,8.393,8.393s8.393-3.76,8.393-8.393V335.8
				C428.064,331.167,424.312,327.406,419.671,327.406z"/>
			<path d="M426.95,104.675c0.176-0.327,0.378-0.613,0.512-0.957c0.369-0.957,0.604-1.956,0.604-2.996
				c0-2.526-0.311-5.036-0.764-7.512c-0.092-0.537-0.185-1.074-0.302-1.612c-0.52-2.333-1.217-4.625-2.132-6.841
				c-0.151-0.361-0.327-0.705-0.487-1.058c-0.453-1.016-0.881-2.048-1.418-3.03c-0.168-0.319-0.453-0.512-0.663-0.789
				c-6.589-11.407-18.306-19.322-32.038-20.707c-0.386-0.084-0.722-0.277-1.125-0.311c-0.99-0.067-1.989-0.101-3.038-0.109h-14.328
				h-27.64v-8.511c0-9.191-7.537-16.669-16.787-16.669h-25.18v-8.511C302.164,11.239,290.867,0,276.984,0h-50.361
				c-13.883,0-25.18,11.239-25.18,25.063v8.511h-25.18c-9.258,0-16.787,7.479-16.787,16.669v8.511h-32.306h-9.661
				c-2.954,0-5.842,0.327-8.62,0.906c-0.067,0.017-0.143,0.008-0.21,0.025c-0.126,0.025-0.218,0.117-0.344,0.151
				c-13.681,3.072-24.803,12.825-29.83,25.667c-0.084,0.176-0.235,0.294-0.302,0.478c-0.512,1.36-0.789,2.787-1.15,4.188
				c-0.227,0.848-0.529,1.662-0.705,2.535c-0.504,2.627-0.806,5.305-0.806,8.016v4.734v33.574v16.787v33.574v16.787v33.574v16.787
				v33.574v16.787v33.574v16.787v33.574v16.787v33.574v16.787v3.66c0,12.766,5.85,24.072,14.873,31.778
				c0.252,0.269,0.403,0.613,0.697,0.848c0.755,0.613,1.57,1.125,2.359,1.679c0.336,0.235,0.655,0.478,0.999,0.705
				c2.014,1.335,4.13,2.493,6.345,3.45c0.386,0.168,0.789,0.302,1.183,0.453c2.031,0.814,4.121,1.469,6.262,1.956
				c0.386,0.084,0.764,0.201,1.158,0.285c0.193,0.034,0.378,0.101,0.571,0.143c0.504,0.092,1.007,0.134,1.502,0.134
				c0.084,0,0.159-0.042,0.243-0.042c1.905,0.26,3.794,0.579,5.775,0.579c2.61,0,5.07-1.217,6.664-3.29l302.164-394.492
				C426.605,105.472,426.74,105.052,426.95,104.675z M113.597,486.517c-0.504-0.076-0.965-0.26-1.452-0.361
				c-1.469-0.327-2.913-0.781-4.306-1.36c-0.504-0.218-1.007-0.436-1.502-0.68c-1.486-0.739-2.904-1.603-4.214-2.619
				c-5.943-4.616-9.795-11.776-9.795-19.859v-3.66v-16.787v-33.574v-16.787v-33.574v-16.787v-33.574v-16.787v-33.574V239.75v-33.574
				V189.39v-33.574v-16.787v-33.574v-4.734c0-1.645,0.185-3.248,0.487-4.809c0.101-0.512,0.285-1.007,0.42-1.519
				c2.392-9.166,9.762-16.342,19.095-18.306c1.695-0.352,3.433-0.546,5.179-0.546h9.661h32.306v1.267v32.306
				c0,0.705,0.117,1.385,0.201,2.073c0.017,0.143-0.042,0.277-0.025,0.42c0.025,0.151,0.084,0.285,0.109,0.436
				c0.025,0.143,0.025,0.294,0.05,0.436c0.067,0.336,0.201,0.638,0.294,0.965c0.143,0.546,0.285,1.091,0.487,1.612
				c0.076,0.193,0.109,0.395,0.193,0.588c0.134,0.327,0.327,0.613,0.487,0.932c0.21,0.42,0.42,0.831,0.663,1.225
				c0.008,0.008,0.008,0.008,0.008,0.017c0.134,0.227,0.227,0.47,0.369,0.688c0.21,0.302,0.47,0.562,0.688,0.856
				c0.21,0.269,0.42,0.52,0.638,0.772c0.478,0.562,0.982,1.083,1.528,1.57c0.168,0.151,0.344,0.285,0.52,0.428
				c0.621,0.512,1.259,0.99,1.956,1.41c0.143,0.092,0.294,0.159,0.436,0.243c0.596,0.336,1.183,0.688,1.83,0.957l0.008,0.008
				c0.134,0.05,0.285,0.076,0.428,0.126c0.185,0.076,0.386,0.118,0.571,0.185c0.697,0.235,1.393,0.487,2.124,0.63
				c0.067,0.017,0.143,0.008,0.21,0.025c0.588,0.109,1.209,0.134,1.821,0.185c0.403,0.025,0.789,0.117,1.2,0.117h0.101h0.017
				l38.232-0.025h0.008h0.008l7.512-0.008l42.84-0.034h0.008l16.787-0.008l0.008-0.008l45.568-0.034c1.46,0,2.854-0.252,4.205-0.604
				c0.386-0.101,0.755-0.227,1.133-0.352c1.116-0.378,2.182-0.865,3.189-1.461c0.168-0.101,0.378-0.143,0.546-0.252
				c0.042-0.025,0.067-0.076,0.109-0.101c4.558-3.005,7.588-8.158,7.588-14.017v-25.18v-8.393h27.64h14.286h0.067
				c9.619,0.017,17.979,5.464,22.209,13.421c0.856,1.628,1.519,3.357,2.006,5.137c0.126,0.462,0.185,0.948,0.285,1.427
				c0.193,0.906,0.252,1.83,0.344,2.753L113.597,486.517z"/>
		</g>
	</g>
</g>
<g>
</g>
<g>
</g>
<g>
</g>
<g>
</g>
<g>
</g>
<g>
</g>
<g>
</g>
<g>
</g>
<g>
</g>
<g>
</g>
<g>
</g>
<g>
</g>
<g>
</g>
<g>
</g>
<g>
</g>
</svg>
