<?xml version="1.0" encoding="iso-8859-1"?>
<!-- Generator: Adobe Illustrator 19.0.0, SVG Export Plug-In . SVG Version: 6.00 Build 0)  -->
<svg version="1.1" id="Layer_1" xmlns="http://www.w3.org/2000/svg" xmlns:xlink="http://www.w3.org/1999/xlink" x="0px" y="0px"
	 viewBox="0 0 503.607 503.607" style="enable-background:new 0 0 503.607 503.607;" xml:space="preserve">
<g>
	<g>
		<g>
			<path d="M251.803,327.347c14.353,0,25.18-11.012,25.18-25.617v-82.919c0-14.445-11.054-25.76-25.18-25.76
				c-14.126,0-25.18,11.289-25.18,25.718v83.934C226.623,316.981,237.215,327.347,251.803,327.347z"/>
			<path d="M386.098,58.754h-41.967v-8.511c0-9.199-7.529-16.669-16.787-16.669h-25.18v-8.511C302.164,11.247,290.866,0,276.984,0
				h-50.361c-13.883,0-25.18,11.247-25.18,25.063v8.511h-25.18c-9.258,0-16.787,7.47-16.787,16.669v8.511h-41.967
				c-23.141,0-41.967,18.826-41.967,41.967v360.918c0,23.141,18.826,41.967,41.967,41.967h268.59
				c23.141,0,41.967-18.826,41.967-41.967V100.721C428.066,77.581,409.239,58.754,386.098,58.754z M327.344,301.727
				c0,39.743-28.882,71.428-67.148,75.507v25.65h16.787c4.642,0,8.393,3.752,8.393,8.393c0,4.633-3.752,8.393-8.393,8.393h-50.361
				c-4.642,0-8.393-3.76-8.393-8.393c0-4.642,3.752-8.393,8.393-8.393h16.787v-25.642c-38.266-4.029-67.148-35.311-67.148-74.542
				v-42.504c0-4.642,3.752-8.393,8.393-8.393c4.642,0,8.393,3.752,8.393,8.393v42.504c0,32.642,25.81,58.217,58.754,58.217
				s58.754-26.003,58.754-59.191v-41.531c0-4.642,3.752-8.393,8.393-8.393c4.642,0,8.393,3.752,8.393,8.393V301.727z
				 M209.836,302.701v-83.934c0-23.837,18.432-42.504,41.967-42.504s41.967,18.684,41.967,42.546v82.919
				c0,23.779-18.432,42.404-41.967,42.404C227.874,344.131,209.836,326.32,209.836,302.701z M327.218,109.115H176.262V67.148V50.361
				h33.574c4.642,0,8.393-3.76,8.393-8.393V25.063c0-4.642,3.685-8.276,8.393-8.276h50.361c4.709,0,8.393,3.634,8.393,8.276v16.904
				c0,4.633,3.752,8.393,8.393,8.393l33.574-0.117L327.218,109.115z"/>
		</g>
	</g>
</g>
<g>
</g>
<g>
</g>
<g>
</g>
<g>
</g>
<g>
</g>
<g>
</g>
<g>
</g>
<g>
</g>
<g>
</g>
<g>
</g>
<g>
</g>
<g>
</g>
<g>
</g>
<g>
</g>
<g>
</g>
</svg>
