<?xml version="1.0" encoding="iso-8859-1"?>
<!-- Generator: Adobe Illustrator 19.0.0, SVG Export Plug-In . SVG Version: 6.00 Build 0)  -->
<svg version="1.1" id="Layer_1" xmlns="http://www.w3.org/2000/svg" xmlns:xlink="http://www.w3.org/1999/xlink" x="0px" y="0px"
	 viewBox="0 0 503.607 503.607" style="enable-background:new 0 0 503.607 503.607;" xml:space="preserve">
<g>
	<g>
		<path d="M386.098,58.754h-41.967v-8.511c0-9.191-7.529-16.669-16.787-16.669h-25.18v-8.511C302.164,11.239,290.866,0,276.984,0
			h-50.361c-13.883,0-25.18,11.239-25.18,25.063v8.511h-25.18c-9.258,0-16.787,7.479-16.787,16.669v8.511h-41.967
			c-23.141,0-41.967,18.826-41.967,41.967v360.918c0,23.141,18.826,41.967,41.967,41.967h268.59
			c23.141,0,41.967-18.826,41.967-41.967V100.721C428.066,77.581,409.239,58.754,386.098,58.754z M176.262,67.148V50.361h33.574
			c4.633,0,8.393-3.76,8.393-8.393V25.063c0-4.642,3.685-8.276,8.393-8.276h50.361c4.709,0,8.393,3.634,8.393,8.276v16.904
			c0,4.633,3.76,8.393,8.393,8.393l33.574-0.117l-0.126,58.872H176.262V67.148z M251.803,419.672
			c-43.805,0-83.154-26.288-100.721-64.319v30.745h-16.787v-67.148h67.148v16.787h-39.793
			c11.205,38.887,48.254,67.148,90.154,67.148c50.906,0,92.328-41.422,92.328-92.328s-41.422-92.328-92.328-92.328
			c-26.767,0-52.006,11.197-69.246,30.737c-3.064,3.475-8.377,3.802-11.852,0.739c-3.475-3.072-3.802-8.377-0.739-11.852
			c20.43-23.141,50.26-36.411,81.836-36.411c60.164,0,109.115,48.951,109.115,109.115S311.967,419.672,251.803,419.672z"/>
	</g>
</g>
<g>
</g>
<g>
</g>
<g>
</g>
<g>
</g>
<g>
</g>
<g>
</g>
<g>
</g>
<g>
</g>
<g>
</g>
<g>
</g>
<g>
</g>
<g>
</g>
<g>
</g>
<g>
</g>
<g>
</g>
</svg>
