<?xml version="1.0" encoding="iso-8859-1"?>
<!-- Generator: Adobe Illustrator 19.0.0, SVG Export Plug-In . SVG Version: 6.00 Build 0)  -->
<svg version="1.1" id="Layer_1" xmlns="http://www.w3.org/2000/svg" xmlns:xlink="http://www.w3.org/1999/xlink" x="0px" y="0px"
	 viewBox="0 0 503.607 503.607" style="enable-background:new 0 0 503.607 503.607;" xml:space="preserve">
<g>
	<g>
		<path d="M352.525,411.253c23.141,0,41.967-18.826,41.967-41.967v-268.59c0-23.141-18.827-41.967-41.967-41.967h-16.787v-8.318
			c0-9.258-7.529-16.787-16.787-16.787h-16.501V25.18c0-6.74-2.627-13.069-7.395-17.819C290.304,2.61,283.992,0,277.277,0h-0.042
			l-50.562,0.076c-13.858,0.025-25.138,11.314-25.138,25.18v8.368h-16.779c-9.233,0-16.762,7.512-16.787,16.753l-0.025,8.351
			h-16.862c-23.141,0-41.967,18.827-41.967,41.967v268.59c0,23.141,18.826,41.967,41.967,41.967h92.328v25.206h-33.574
			c-13.883,0-25.18,11.298-25.18,25.18h-67.148c-4.633,0-8.393,3.752-8.393,8.393c0,4.642,3.76,8.393,8.393,8.393h67.148
			c0,13.883,11.298,25.18,25.18,25.18h83.934c13.883,0,25.18-11.298,25.18-25.18h67.148c4.633,0,8.393-3.752,8.393-8.393
			c0-4.642-3.76-8.393-8.393-8.393h-67.148c0-13.883-11.298-25.18-25.18-25.18h-33.574v-25.206H352.525z M184.756,50.411h25.172
			c4.633,0,8.393-3.752,8.393-8.393V25.256c0-4.625,3.76-8.385,8.385-8.393l50.554-0.076h0.017c2.233,0,4.339,0.865,5.926,2.451
			s2.459,3.693,2.459,5.943v16.837c0,4.642,3.76,8.393,8.393,8.393h24.895v16.711v16.795l-134.278,0.118L184.756,50.411z
			 M167.869,159.45h167.869c4.633,0,8.393,3.752,8.393,8.393c0,4.642-3.76,8.393-8.393,8.393H167.869
			c-4.633,0-8.393-3.752-8.393-8.393C159.475,163.202,163.236,159.45,167.869,159.45z M167.869,209.811h167.869
			c4.633,0,8.393,3.752,8.393,8.393c0,4.642-3.76,8.393-8.393,8.393H167.869c-4.633,0-8.393-3.752-8.393-8.393
			C159.475,213.563,163.236,209.811,167.869,209.811z M167.869,260.172h167.869c4.633,0,8.393,3.752,8.393,8.393
			c0,4.642-3.76,8.393-8.393,8.393H167.869c-4.633,0-8.393-3.752-8.393-8.393C159.475,263.923,163.236,260.172,167.869,260.172z
			 M167.869,327.319c-4.633,0-8.393-3.752-8.393-8.393s3.76-8.393,8.393-8.393h167.869c4.633,0,8.393,3.752,8.393,8.393
			s-3.76,8.393-8.393,8.393H167.869z"/>
	</g>
</g>
<g>
</g>
<g>
</g>
<g>
</g>
<g>
</g>
<g>
</g>
<g>
</g>
<g>
</g>
<g>
</g>
<g>
</g>
<g>
</g>
<g>
</g>
<g>
</g>
<g>
</g>
<g>
</g>
<g>
</g>
</svg>
