<?xml version="1.0" encoding="iso-8859-1"?>
<!-- Generator: Adobe Illustrator 19.0.0, SVG Export Plug-In . SVG Version: 6.00 Build 0)  -->
<svg version="1.1" id="Layer_1" xmlns="http://www.w3.org/2000/svg" xmlns:xlink="http://www.w3.org/1999/xlink" x="0px" y="0px"
	 viewBox="0 0 503.607 503.607" style="enable-background:new 0 0 503.607 503.607;" xml:space="preserve">
<g>
	<g>
		<g>
			<path d="M251.803,276.982c-13.883,0-25.18,11.298-25.18,25.18s11.298,25.18,25.18,25.18c13.883,0,25.18-11.298,25.18-25.18
				S265.686,276.982,251.803,276.982z"/>
			<path d="M314.083,277.838c-4.197-10.702-2.652-22.62,4.146-31.895l3.349-4.566l-6.438-6.446l-4.474,3.03
				c-9.501,6.438-21.487,7.546-32.029,2.955c-10.542-4.591-17.87-14.118-19.615-25.483l-0.856-5.598h-9.115l-1.687,8.838
				c-2.14,11.054-9.619,20.211-20.002,24.517c-10.374,4.289-22.15,3.089-31.433-3.206l-7.462-5.053l-6.438,6.446l3.349,4.566
				c6.799,9.275,8.343,21.193,4.146,31.895c-4.205,10.693-13.446,18.382-24.735,20.547l-5.313,1.024v9.107l5.598,0.865
				c11.365,1.746,20.891,9.082,25.482,19.624c4.6,10.534,3.492,22.503-2.946,32.021l-3.038,4.474l6.446,6.438l4.566-3.341
				c9.266-6.799,21.202-8.36,31.904-4.146c10.693,4.197,18.373,13.446,20.547,24.727l1.016,5.313h9.115l0.277-1.83
				c1.788-11.617,9.342-21.235,20.195-25.726s22.99-3.038,32.466,3.92l1.486,1.083l6.446-6.438l-3.038-4.474
				c-6.438-9.518-7.546-21.487-2.946-32.021c4.591-10.542,14.118-17.878,25.482-19.624l5.598-0.865v-9.107l-5.321-1.024
				C327.529,296.22,318.288,288.531,314.083,277.838z M251.803,344.129c-23.141,0-41.967-18.826-41.967-41.967
				c0-23.141,18.826-41.967,41.967-41.967s41.967,18.826,41.967,41.967C293.771,325.303,274.944,344.129,251.803,344.129z"/>
			<path d="M386.098,58.754h-41.967v-8.511c0-9.199-7.529-16.669-16.787-16.669h-25.18v-8.511C302.164,11.239,290.866,0,276.984,0
				h-50.361c-13.883,0-25.18,11.239-25.18,25.063v8.511h-25.18c-9.258,0-16.787,7.47-16.787,16.669v8.511h-41.967
				c-23.141,0-41.967,18.826-41.967,41.967v360.918c0,23.141,18.826,41.967,41.967,41.967h268.59
				c23.141,0,41.967-18.826,41.967-41.967V100.721C428.066,77.581,409.239,58.754,386.098,58.754z M176.262,67.148V50.361h33.574
				c4.642,0,8.393-3.76,8.393-8.393V25.063c0-4.642,3.685-8.276,8.393-8.276h50.361c4.709,0,8.393,3.634,8.393,8.276v16.904
				c0,4.633,3.752,8.393,8.393,8.393l33.574-0.117l-0.126,58.872H176.262V67.148z M360.918,315.719c0,4.146-3.022,7.672-7.118,8.293
				l-12.708,1.956c-5.733,0.881-10.349,4.44-12.657,9.745c-2.317,5.313-1.779,11.105,1.469,15.897l6.916,10.215
				c2.249,3.332,1.83,7.798-1.016,10.643l-16.434,16.434c-2.938,2.929-7.579,3.273-10.895,0.831l-7.294-5.338
				c-4.717-3.45-10.735-4.18-16.124-1.956c-5.389,2.233-9.132,7.008-10.022,12.775l-1.377,8.947
				c-0.638,4.096-4.163,7.118-8.301,7.118h-23.241c-4.029,0-7.487-2.862-8.251-6.815l-2.325-12.12
				c-1.091-5.682-4.801-10.156-10.198-12.271c-5.363-2.115-11.155-1.368-15.847,2.065l-10.366,7.596
				c-3.324,2.443-7.965,2.098-10.895-0.831l-16.434-16.434c-2.845-2.845-3.265-7.311-1.016-10.643l6.916-10.215
				c3.248-4.793,3.785-10.584,1.469-15.897c-2.308-5.305-6.925-8.863-12.657-9.745l-12.708-1.956
				c-4.096-0.621-7.118-4.146-7.118-8.293v-23.241c0-4.029,2.854-7.479,6.807-8.242l12.12-2.333
				c5.691-1.1,10.164-4.809,12.28-10.198c2.124-5.397,1.368-11.163-2.056-15.838l-7.613-10.374
				c-2.451-3.341-2.09-7.965,0.839-10.895l16.434-16.434c2.845-2.837,7.327-3.265,10.643-1.016l13.194,8.939
				c4.692,3.181,10.374,3.76,15.603,1.586c5.237-2.165,8.855-6.597,9.938-12.162l2.988-15.645c0.764-3.953,4.222-6.815,8.251-6.815
				h23.241c4.138,0,7.663,3.022,8.301,7.109l1.956,12.724c0.873,5.724,4.423,10.332,9.736,12.649
				c5.321,2.325,11.113,1.771,15.897-1.469l10.215-6.916c3.349-2.249,7.798-1.821,10.643,1.016l16.434,16.434
				c2.929,2.929,3.29,7.554,0.839,10.895l-7.613,10.374c-3.425,4.675-4.18,10.441-2.056,15.838
				c2.115,5.389,6.589,9.098,12.271,10.198l12.129,2.333c3.953,0.764,6.807,4.214,6.807,8.242V315.719z"/>
		</g>
	</g>
</g>
<g>
</g>
<g>
</g>
<g>
</g>
<g>
</g>
<g>
</g>
<g>
</g>
<g>
</g>
<g>
</g>
<g>
</g>
<g>
</g>
<g>
</g>
<g>
</g>
<g>
</g>
<g>
</g>
<g>
</g>
</svg>
