<?xml version="1.0" encoding="iso-8859-1"?>
<!-- Generator: Adobe Illustrator 19.0.0, SVG Export Plug-In . SVG Version: 6.00 Build 0)  -->
<svg version="1.1" id="Layer_1" xmlns="http://www.w3.org/2000/svg" xmlns:xlink="http://www.w3.org/1999/xlink" x="0px" y="0px"
	 viewBox="0 0 503.581 503.581" style="enable-background:new 0 0 503.581 503.581;" xml:space="preserve">
<g>
	<g>
		<g>
			<path d="M251.791,167.844c-41.648,0-75.541,33.884-75.541,75.541c0,17.811,6.228,34.17,16.577,47.096l106.06-106.06
				C285.96,174.072,269.602,167.844,251.791,167.844z"/>
			<path d="M310.755,196.289l-106.06,106.06c12.926,10.349,29.285,16.577,47.096,16.577c41.648,0,75.541-33.884,75.541-75.541
				C327.332,225.574,321.104,209.215,310.755,196.289z"/>
			<path d="M352.512,411.254c23.141,0,41.967-18.827,41.967-41.967v-268.59c0-23.141-18.827-41.967-41.967-41.967h-16.787v-8.318
				c0-9.258-7.529-16.787-16.787-16.787h-16.501V25.18c0-6.74-2.627-13.069-7.395-17.819C290.291,2.61,283.98,0,277.265,0h-0.042
				l-50.554,0.076c-13.866,0.008-25.147,11.306-25.147,25.18v8.368h-16.779c-9.233,0-16.762,7.512-16.787,16.753l-0.025,8.351
				h-16.862c-23.141,0-41.967,18.826-41.967,41.967v268.59c0,23.141,18.826,41.967,41.967,41.967h92.328v25.18h-33.574
				c-13.883,0-25.18,11.298-25.18,25.18h-67.148c-4.633,0-8.393,3.752-8.393,8.393c0,4.642,3.76,8.393,8.393,8.393h67.148
				c0,13.883,11.298,25.18,25.18,25.18h83.934c13.883,0,25.18-11.298,25.18-25.18h67.148c4.633,0,8.393-3.752,8.393-8.393
				c0-4.642-3.76-8.393-8.393-8.393h-67.148c0-13.883-11.298-25.18-25.18-25.18h-33.574v-25.18H352.512z M184.744,50.411h25.172
				c4.633,0,8.393-3.752,8.393-8.393V25.256c0-4.625,3.76-8.393,8.385-8.393l50.554-0.076h0.017c2.233,0,4.339,0.865,5.926,2.451
				s2.459,3.693,2.459,5.943v16.837c0,4.642,3.76,8.393,8.393,8.393h24.895v16.711v16.795L184.66,84.035L184.744,50.411z
				 M251.791,335.712c-50.906,0-92.328-41.422-92.328-92.328c0-50.906,41.422-92.328,92.328-92.328s92.328,41.422,92.328,92.328
				C344.119,294.291,302.697,335.712,251.791,335.712z"/>
		</g>
	</g>
</g>
<g>
</g>
<g>
</g>
<g>
</g>
<g>
</g>
<g>
</g>
<g>
</g>
<g>
</g>
<g>
</g>
<g>
</g>
<g>
</g>
<g>
</g>
<g>
</g>
<g>
</g>
<g>
</g>
<g>
</g>
</svg>
