<?xml version="1.0" encoding="iso-8859-1"?>
<!-- Generator: Adobe Illustrator 19.0.0, SVG Export Plug-In . SVG Version: 6.00 Build 0)  -->
<svg version="1.1" id="Layer_1" xmlns="http://www.w3.org/2000/svg" xmlns:xlink="http://www.w3.org/1999/xlink" x="0px" y="0px"
	 viewBox="0 0 503.607 503.607" style="enable-background:new 0 0 503.607 503.607;" xml:space="preserve">
<g>
	<g>
		<path d="M386.098,58.754h-41.967v-8.511c0-9.191-7.529-16.669-16.787-16.669h-25.18v-8.511C302.164,11.239,290.866,0,276.984,0
			h-50.361c-13.883,0-25.18,11.239-25.18,25.063v8.511h-25.18c-9.258,0-16.787,7.479-16.787,16.669v8.511h-41.967
			c-23.141,0-41.967,18.826-41.967,41.967v360.918c0,23.141,18.826,41.967,41.967,41.967h268.59
			c23.141,0,41.967-18.826,41.967-41.967V100.721C428.066,77.581,409.239,58.754,386.098,58.754z M176.262,67.148V50.361h33.574
			c4.633,0,8.393-3.76,8.393-8.393V25.063c0-4.642,3.685-8.276,8.393-8.276h50.361c4.709,0,8.393,3.634,8.393,8.276v16.904
			c0,4.633,3.76,8.393,8.393,8.393l33.574-0.117l-0.126,58.872H176.262V67.148z M360.75,329.015
			c-11.012,54.222-53.953,90.658-106.857,90.658c-44.779,0-84.614-26.582-102.811-65.88v32.306h-16.787v-67.148h67.148v16.787
			h-39.449c12.607,39.449,49.689,67.148,91.9,67.148c44.695,0,81.03-31.031,90.406-77.211c0.915-4.541,5.372-7.47,9.896-6.555
			C358.736,320.042,361.673,324.474,360.75,329.015z M369.311,285.377H352.55h-0.025h-0.025h-50.336V268.59h38.434
			c-14.848-35.538-48.397-58.754-86.704-58.754c-43.167,0-83.02,29.226-94.754,69.498c-1.301,4.457-5.968,7.017-10.408,5.708
			c-4.449-1.293-7.009-5.959-5.708-10.408c14-48.036,59.593-81.584,110.869-81.584c42.353,0,79.738,23.963,98.631,61.339v-36.159
			h16.787V285.377z"/>
	</g>
</g>
<g>
</g>
<g>
</g>
<g>
</g>
<g>
</g>
<g>
</g>
<g>
</g>
<g>
</g>
<g>
</g>
<g>
</g>
<g>
</g>
<g>
</g>
<g>
</g>
<g>
</g>
<g>
</g>
<g>
</g>
</svg>
