<?xml version="1.0" encoding="iso-8859-1"?>
<!-- Generator: Adobe Illustrator 19.0.0, SVG Export Plug-In . SVG Version: 6.00 Build 0)  -->
<svg version="1.1" id="Layer_1" xmlns="http://www.w3.org/2000/svg" xmlns:xlink="http://www.w3.org/1999/xlink" x="0px" y="0px"
	 viewBox="0 0 503.607 503.607" style="enable-background:new 0 0 503.607 503.607;" xml:space="preserve">
<g>
	<g>
		<path d="M386.098,58.754h-41.967v-8.511c0-9.191-7.529-16.669-16.787-16.669h-25.18v-8.511C302.164,11.247,290.866,0,276.984,0
			h-50.361c-13.883,0-25.18,11.247-25.18,25.063v8.511h-25.18c-9.258,0-16.787,7.479-16.787,16.669v8.511h-41.967
			c-23.141,0-41.967,18.826-41.967,41.967v360.918c0,23.141,18.826,41.967,41.967,41.967h268.59
			c23.141,0,41.967-18.826,41.967-41.967V100.721C428.066,77.581,409.239,58.754,386.098,58.754z M159.475,428.066
			c-9.275,0-16.787-7.512-16.787-16.787c0-9.275,7.512-16.787,16.787-16.787c9.275,0,16.787,7.512,16.787,16.787
			C176.262,420.553,168.75,428.066,159.475,428.066z M159.475,352.525c-9.275,0-16.787-7.512-16.787-16.787
			c0-9.275,7.512-16.787,16.787-16.787c9.275,0,16.787,7.512,16.787,16.787C176.262,345.012,168.75,352.525,159.475,352.525z
			 M159.475,276.984c-9.275,0-16.787-7.512-16.787-16.787c0-9.275,7.512-16.787,16.787-16.787c9.275,0,16.787,7.512,16.787,16.787
			C176.262,269.471,168.75,276.984,159.475,276.984z M159.475,201.443c-9.275,0-16.787-7.512-16.787-16.787
			c0-9.275,7.512-16.787,16.787-16.787c9.275,0,16.787,7.512,16.787,16.787C176.262,193.93,168.75,201.443,159.475,201.443z
			 M176.262,67.148V50.361h33.574c4.633,0,8.393-3.752,8.393-8.393V25.063c0-4.633,3.685-8.276,8.393-8.276h50.361
			c4.709,0,8.393,3.643,8.393,8.276v16.904c0,4.642,3.76,8.393,8.393,8.393l33.574-0.117l-0.126,58.872H176.262V67.148z
			 M344.131,419.672H201.443c-4.633,0-8.393-3.752-8.393-8.393c0-4.642,3.76-8.393,8.393-8.393h142.689
			c4.633,0,8.393,3.752,8.393,8.393C352.525,415.92,348.764,419.672,344.131,419.672z M344.131,344.131H201.443
			c-4.633,0-8.393-3.752-8.393-8.393c0-4.642,3.76-8.393,8.393-8.393h142.689c4.633,0,8.393,3.752,8.393,8.393
			C352.525,340.379,348.764,344.131,344.131,344.131z M344.131,268.59H201.443c-4.633,0-8.393-3.752-8.393-8.393
			s3.76-8.393,8.393-8.393h142.689c4.633,0,8.393,3.752,8.393,8.393S348.764,268.59,344.131,268.59z M344.131,193.049H201.443
			c-4.633,0-8.393-3.752-8.393-8.393c0-4.642,3.76-8.393,8.393-8.393h142.689c4.633,0,8.393,3.752,8.393,8.393
			C352.525,189.297,348.764,193.049,344.131,193.049z"/>
	</g>
</g>
<g>
</g>
<g>
</g>
<g>
</g>
<g>
</g>
<g>
</g>
<g>
</g>
<g>
</g>
<g>
</g>
<g>
</g>
<g>
</g>
<g>
</g>
<g>
</g>
<g>
</g>
<g>
</g>
<g>
</g>
</svg>
