<?xml version="1.0" encoding="iso-8859-1"?>
<!-- Generator: Adobe Illustrator 19.0.0, SVG Export Plug-In . SVG Version: 6.00 Build 0)  -->
<svg version="1.1" id="Layer_1" xmlns="http://www.w3.org/2000/svg" xmlns:xlink="http://www.w3.org/1999/xlink" x="0px" y="0px"
	 viewBox="0 0 503.581 503.581" style="enable-background:new 0 0 503.581 503.581;" xml:space="preserve">
<g>
	<g>
		<g>
			<path d="M251.788,167.841c-41.657,0-75.541,33.884-75.541,75.541c0,41.657,33.884,75.541,75.541,75.541
				c41.657,0,75.541-33.884,75.541-75.541C327.329,201.725,293.445,167.841,251.788,167.841z M291.296,257.71l-33.557,33.565
				c-0.781,0.781-1.712,1.393-2.745,1.821c-1.024,0.428-2.115,0.646-3.206,0.646c-1.091,0-2.174-0.218-3.206-0.646
				c-1.032-0.428-1.964-1.041-2.736-1.821L212.28,257.71c-3.273-3.273-3.273-8.586,0-11.868c3.282-3.273,8.595-3.273,11.868,0
				l19.246,19.246v-63.673c0-4.633,3.76-8.393,8.393-8.393c4.642,0,8.393,3.76,8.393,8.393v63.673l19.246-19.246
				c3.282-3.273,8.595-3.273,11.868,0C294.578,249.123,294.578,254.436,291.296,257.71z"/>
			<path d="M352.512,411.254c23.141,0,41.967-18.827,41.967-41.967v-268.59c0-23.141-18.827-41.967-41.967-41.967h-16.787v-8.318
				c0-9.258-7.529-16.787-16.787-16.787h-16.501V25.18c0-6.74-2.619-13.069-7.395-17.819C290.291,2.61,283.98,0,277.265,0h-0.042
				l-50.545,0.076c-13.874,0.008-25.147,11.306-25.147,25.18v8.368h-16.787c-9.241,0-16.77,7.512-16.787,16.753l-0.025,8.351
				h-16.862c-23.141,0-41.967,18.826-41.967,41.967v268.59c0,23.141,18.826,41.967,41.967,41.967h92.328v25.18h-33.574
				c-13.883,0-25.18,11.298-25.18,25.18h-67.148c-4.642,0-8.393,3.752-8.393,8.393c0,4.642,3.752,8.393,8.393,8.393h67.148
				c0,13.883,11.298,25.18,25.18,25.18h83.934c13.883,0,25.18-11.298,25.18-25.18h67.148c4.642,0,8.393-3.752,8.393-8.393
				c0-4.642-3.752-8.393-8.393-8.393h-67.148c0-13.883-11.298-25.18-25.18-25.18h-33.574v-25.18H352.512z M184.744,50.411h25.18
				c4.633,0,8.393-3.752,8.393-8.393V25.256c0-4.625,3.752-8.393,8.377-8.393l50.554-0.076h0.017c2.233,0,4.339,0.865,5.917,2.451
				c1.595,1.586,2.468,3.693,2.468,5.943v16.837c0,4.642,3.752,8.393,8.393,8.393h24.895v16.711v16.795L184.66,84.035
				L184.744,50.411z M251.791,335.712c-50.906,0-92.328-41.422-92.328-92.328c0-50.906,41.422-92.328,92.328-92.328
				s92.328,41.422,92.328,92.328C344.119,294.291,302.697,335.712,251.791,335.712z"/>
		</g>
	</g>
</g>
<g>
</g>
<g>
</g>
<g>
</g>
<g>
</g>
<g>
</g>
<g>
</g>
<g>
</g>
<g>
</g>
<g>
</g>
<g>
</g>
<g>
</g>
<g>
</g>
<g>
</g>
<g>
</g>
<g>
</g>
</svg>
