<?xml version="1.0" encoding="iso-8859-1"?>
<!-- Generator: Adobe Illustrator 19.0.0, SVG Export Plug-In . SVG Version: 6.00 Build 0)  -->
<svg version="1.1" id="Layer_1" xmlns="http://www.w3.org/2000/svg" xmlns:xlink="http://www.w3.org/1999/xlink" x="0px" y="0px"
	 viewBox="0 0 503.607 503.607" style="enable-background:new 0 0 503.607 503.607;" xml:space="preserve">
<g>
	<g>
		<g>
			<path d="M386.098,58.754h-41.967v-8.511c0-9.191-7.529-16.669-16.787-16.669h-25.18v-8.511C302.164,11.239,290.866,0,276.984,0
				h-50.361c-13.883,0-25.18,11.239-25.18,25.063v8.511h-25.18c-9.258,0-16.787,7.479-16.787,16.669v8.511h-41.967
				c-23.141,0-41.967,18.826-41.967,41.967v360.918c0,23.141,18.826,41.967,41.967,41.967h268.59
				c23.141,0,41.967-18.826,41.967-41.967V100.721C428.066,77.581,409.239,58.754,386.098,58.754z M176.262,67.148V50.361h33.574
				c4.633,0,8.393-3.76,8.393-8.393V25.063c0-4.642,3.685-8.276,8.393-8.276h50.361c4.709,0,8.393,3.634,8.393,8.276v16.904
				c0,4.633,3.76,8.393,8.393,8.393l33.574-0.117l-0.126,58.872H176.262V67.148z M251.803,411.279
				c-60.164,0-109.115-48.951-109.115-109.115s48.951-109.115,109.115-109.115S360.918,242,360.918,302.164
				S311.967,411.279,251.803,411.279z"/>
			<path d="M251.807,209.833c-50.915,0-92.328,41.422-92.328,92.328c0,50.915,41.413,92.328,92.328,92.328
				c50.906,0,92.328-41.413,92.328-92.328C344.134,251.254,302.713,209.833,251.807,209.833z M300.967,264.516l-50.361,83.934
				c-1.326,2.216-3.609,3.693-6.169,4.012c-0.344,0.042-0.688,0.059-1.024,0.059c-2.216,0-4.356-0.873-5.934-2.459l-33.574-33.574
				c-3.282-3.273-3.282-8.586,0-11.868c3.273-3.273,8.586-3.273,11.868,0l25.969,25.978l44.829-74.718
				c2.384-3.987,7.546-5.271,11.516-2.879C302.067,255.384,303.351,260.537,300.967,264.516z"/>
		</g>
	</g>
</g>
<g>
</g>
<g>
</g>
<g>
</g>
<g>
</g>
<g>
</g>
<g>
</g>
<g>
</g>
<g>
</g>
<g>
</g>
<g>
</g>
<g>
</g>
<g>
</g>
<g>
</g>
<g>
</g>
<g>
</g>
</svg>
