<?xml version="1.0" encoding="iso-8859-1"?>
<!-- Generator: Adobe Illustrator 19.0.0, SVG Export Plug-In . SVG Version: 6.00 Build 0)  -->
<svg version="1.1" id="Layer_1" xmlns="http://www.w3.org/2000/svg" xmlns:xlink="http://www.w3.org/1999/xlink" x="0px" y="0px"
	 viewBox="0 0 503.607 503.607" style="enable-background:new 0 0 503.607 503.607;" xml:space="preserve">
<g>
	<g>
		<g>
			<path d="M324.427,212.255c-3.231-3.223-8.486-3.215-11.7,0l-24.366,23.292l36.151,36.151l26.834-26.834
				c1.024-1.024,1.175-2.224,1.175-2.845c0-0.621-0.151-1.813-1.175-2.837L324.427,212.255z"/>
			<polygon points="188.312,331.185 226.67,369.543 312.644,283.569 276.225,247.15 			"/>
			<polygon points="171.058,386.661 210.256,376.866 180.854,347.463 			"/>
			<path d="M386.098,58.754h-41.967v-8.511c0-9.191-7.529-16.669-16.787-16.669h-25.18v-8.511C302.164,11.239,290.858,0,276.975,0
				h-50.352c-13.883,0-25.18,11.239-25.18,25.063v8.511h-25.18c-9.258,0-16.787,7.479-16.787,16.669v8.511h-41.967
				c-23.141,0-41.967,18.827-41.967,41.967v360.918c0,23.141,18.826,41.967,41.967,41.967h268.59
				c23.132,0,41.967-18.827,41.967-41.967V100.721C428.066,77.581,409.231,58.754,386.098,58.754z M176.262,67.148V50.361h33.574
				c4.633,0,8.393-3.76,8.393-8.393V25.063c0-4.642,3.685-8.276,8.393-8.276h50.352c4.709,0,8.402,3.634,8.402,8.276v16.904
				c0,4.633,3.752,8.393,8.393,8.393l33.574-0.117l-0.134,58.872H176.262V67.148z M363.209,256.739L230.962,388.986l-67.156,16.795
				l-6.748,6.748c-1.637,1.637-3.785,2.459-5.934,2.459c-2.14,0-4.289-0.823-5.934-2.459c-3.273-3.282-3.273-8.595,0-11.877
				l6.748-6.74l16.82-67.248l132.23-126.405c9.636-9.636,25.533-9.636,35.303,0.126l26.918,26.918
				c3.928,3.928,6.102,9.157,6.102,14.722C369.311,247.581,367.138,252.81,363.209,256.739z"/>
		</g>
	</g>
</g>
<g>
</g>
<g>
</g>
<g>
</g>
<g>
</g>
<g>
</g>
<g>
</g>
<g>
</g>
<g>
</g>
<g>
</g>
<g>
</g>
<g>
</g>
<g>
</g>
<g>
</g>
<g>
</g>
<g>
</g>
</svg>
