<?xml version="1.0" encoding="iso-8859-1"?>
<!-- Generator: Adobe Illustrator 19.0.0, SVG Export Plug-In . SVG Version: 6.00 Build 0)  -->
<svg version="1.1" id="Layer_1" xmlns="http://www.w3.org/2000/svg" xmlns:xlink="http://www.w3.org/1999/xlink" x="0px" y="0px"
	 viewBox="0 0 503.607 503.607" style="enable-background:new 0 0 503.607 503.607;" xml:space="preserve">
<g>
	<g>
		<g>
			<path d="M428.066,100.721c0-23.141-18.826-41.967-41.967-41.967h-41.967v-8.511c0-9.191-7.529-16.669-16.787-16.669h-25.18
				v-8.511C302.164,11.239,290.866,0,276.984,0h-50.361c-13.883,0-25.18,11.239-25.18,25.063v8.511h-25.18
				c-9.258,0-16.787,7.479-16.787,16.669v8.511h-41.967c-23.141,0-41.967,18.826-41.967,41.967v360.918
				c0,23.141,18.826,41.967,41.967,41.967h268.59c23.141,0,41.967-18.826,41.967-41.967v-63.673l-66.862-66.862
				c-16.023,13.354-36.604,21.42-59.039,21.42c-48.078,0-87.644-36.948-91.9-83.934h-17.215c-4.633,0-8.393-3.76-8.393-8.393
				s3.76-8.393,8.393-8.393h17.215c1.721-19.028,9.199-36.419,20.732-50.361h-12.766c-4.633,0-8.393-3.76-8.393-8.393
				s3.76-8.393,8.393-8.393h31.014c15.007-10.542,33.23-16.787,52.921-16.787c50.906,0,92.328,41.422,92.328,92.328
				c0,22.436-8.066,43.016-21.42,59.039l54.994,54.994V100.721z M176.262,402.885h-41.967c-4.633,0-8.393-3.76-8.393-8.393
				c0-4.633,3.76-8.393,8.393-8.393h41.967c4.633,0,8.393,3.76,8.393,8.393C184.656,399.125,180.895,402.885,176.262,402.885z
				 M344.131,386.098h25.18c4.633,0,8.393,3.76,8.393,8.393c0,4.633-3.76,8.393-8.393,8.393h-25.18c-4.633,0-8.393-3.76-8.393-8.393
				C335.738,389.859,339.498,386.098,344.131,386.098z M310.557,386.098c4.633,0,8.393,3.76,8.393,8.393
				c0,4.633-3.76,8.393-8.393,8.393H209.836c-4.633,0-8.393-3.76-8.393-8.393c0-4.633,3.76-8.393,8.393-8.393H310.557z
				 M201.443,318.951c4.633,0,8.393,3.76,8.393,8.393s-3.76,8.393-8.393,8.393h-67.148c-4.633,0-8.393-3.76-8.393-8.393
				s3.76-8.393,8.393-8.393H201.443z M125.902,260.197c0-4.633,3.76-8.393,8.393-8.393h25.18c4.633,0,8.393,3.76,8.393,8.393
				s-3.76,8.393-8.393,8.393h-25.18C129.662,268.59,125.902,264.83,125.902,260.197z M184.656,201.443h-50.361
				c-4.633,0-8.393-3.76-8.393-8.393s3.76-8.393,8.393-8.393h50.361c4.633,0,8.393,3.76,8.393,8.393
				S189.289,201.443,184.656,201.443z M327.218,109.115H176.262V67.148V50.361h33.574c4.633,0,8.393-3.76,8.393-8.393V25.063
				c0-4.642,3.685-8.276,8.393-8.276h50.361c4.709,0,8.393,3.634,8.393,8.276v16.904c0,4.633,3.76,8.393,8.393,8.393l33.574-0.117
				L327.218,109.115z"/>
			<path d="M302.164,184.656c-41.648,0-75.541,33.893-75.541,75.541s33.893,75.541,75.541,75.541s75.541-33.893,75.541-75.541
				S343.812,184.656,302.164,184.656z M302.164,218.229c-23.141,0-41.967,18.826-41.967,41.967c0,4.633-3.76,8.393-8.393,8.393
				s-8.393-3.76-8.393-8.393c0-32.399,26.355-58.754,58.754-58.754c4.633,0,8.393,3.76,8.393,8.393S306.797,218.229,302.164,218.229
				z"/>
		</g>
	</g>
</g>
<g>
</g>
<g>
</g>
<g>
</g>
<g>
</g>
<g>
</g>
<g>
</g>
<g>
</g>
<g>
</g>
<g>
</g>
<g>
</g>
<g>
</g>
<g>
</g>
<g>
</g>
<g>
</g>
<g>
</g>
</svg>
