<?xml version="1.0" encoding="iso-8859-1"?>
<!-- Generator: Adobe Illustrator 19.0.0, SVG Export Plug-In . SVG Version: 6.00 Build 0)  -->
<svg version="1.1" id="Layer_1" xmlns="http://www.w3.org/2000/svg" xmlns:xlink="http://www.w3.org/1999/xlink" x="0px" y="0px"
	 viewBox="0 0 503.607 503.607" style="enable-background:new 0 0 503.607 503.607;" xml:space="preserve">
<g>
	<g>
		<g>
			<rect x="285.377" y="218.229" width="83.934" height="83.934"/>
			<path d="M436.358,108.594c-0.05-0.764-0.201-1.494-0.453-2.216c-0.092-0.269-0.159-0.537-0.277-0.789
				c-0.403-0.865-0.915-1.679-1.603-2.384c-0.017-0.008-0.017-0.025-0.034-0.034L333.287,2.468
				c-0.017-0.017-0.034-0.025-0.042-0.034c-0.705-0.697-1.528-1.209-2.392-1.612c-0.235-0.109-0.478-0.176-0.73-0.26
				c-0.755-0.269-1.528-0.428-2.325-0.47C327.638,0.084,327.504,0,327.344,0H92.328c-13.883,0-25.18,11.298-25.18,25.18v453.246
				c0,13.883,11.298,25.18,25.18,25.18h318.951c13.883,0,25.18-11.298,25.18-25.18V109.115
				C436.459,108.93,436.367,108.779,436.358,108.594z M125.902,100.721h151.082c4.633,0,8.393,3.752,8.393,8.393
				s-3.76,8.393-8.393,8.393H125.902c-4.633,0-8.393-3.752-8.393-8.393S121.268,100.721,125.902,100.721z M125.902,251.803h109.115
				c4.633,0,8.393,3.752,8.393,8.393s-3.76,8.393-8.393,8.393H125.902c-4.633,0-8.393-3.752-8.393-8.393
				S121.268,251.803,125.902,251.803z M117.508,209.836c0-4.642,3.76-8.393,8.393-8.393h109.115c4.633,0,8.393,3.752,8.393,8.393
				s-3.76,8.393-8.393,8.393H125.902C121.268,218.229,117.508,214.478,117.508,209.836z M125.902,302.164h109.115
				c4.633,0,8.393,3.752,8.393,8.393s-3.76,8.393-8.393,8.393H125.902c-4.633,0-8.393-3.752-8.393-8.393
				S121.268,302.164,125.902,302.164z M377.705,419.672H125.902c-4.633,0-8.393-3.752-8.393-8.393c0-4.642,3.76-8.393,8.393-8.393
				h251.803c4.633,0,8.393,3.752,8.393,8.393C386.098,415.92,382.338,419.672,377.705,419.672z M377.705,369.311H125.902
				c-4.633,0-8.393-3.752-8.393-8.393c0-4.642,3.76-8.393,8.393-8.393h251.803c4.633,0,8.393,3.752,8.393,8.393
				C386.098,365.56,382.338,369.311,377.705,369.311z M386.098,310.557c0,4.642-3.76,8.393-8.393,8.393H276.984
				c-4.633,0-8.393-3.752-8.393-8.393V209.836c0-4.642,3.76-8.393,8.393-8.393h100.721c4.633,0,8.393,3.752,8.393,8.393V310.557z
				 M377.705,167.869H125.902c-4.633,0-8.393-3.752-8.393-8.393s3.76-8.393,8.393-8.393h251.803c4.633,0,8.393,3.752,8.393,8.393
				S382.338,167.869,377.705,167.869z M344.131,100.721c-4.625,0-8.393-3.76-8.393-8.393V28.655l72.066,72.066H344.131z"/>
		</g>
	</g>
</g>
<g>
</g>
<g>
</g>
<g>
</g>
<g>
</g>
<g>
</g>
<g>
</g>
<g>
</g>
<g>
</g>
<g>
</g>
<g>
</g>
<g>
</g>
<g>
</g>
<g>
</g>
<g>
</g>
<g>
</g>
</svg>
