<?xml version="1.0" encoding="iso-8859-1"?>
<!-- Generator: Adobe Illustrator 19.0.0, SVG Export Plug-In . SVG Version: 6.00 Build 0)  -->
<svg version="1.1" id="Layer_1" xmlns="http://www.w3.org/2000/svg" xmlns:xlink="http://www.w3.org/1999/xlink" x="0px" y="0px"
	 viewBox="0 0 503.607 503.607" style="enable-background:new 0 0 503.607 503.607;" xml:space="preserve">
<g>
	<g>
		<g>
			<path d="M248.626,315.238c-3.198,3.055-5.212,7.344-5.212,12.103c0,9.258,7.529,16.787,16.787,16.787
				c9.258,0,16.787-7.529,16.787-16.787c0-4.667-1.93-8.889-5.019-11.935C265.715,309.245,254.98,309.194,248.626,315.238z"/>
			<path d="M335.738,235.016c-9.258,0-16.787,7.529-16.787,16.787c0,9.258,7.529,16.787,16.787,16.787
				c9.258,0,16.787-7.529,16.787-16.787C352.525,242.545,344.996,235.016,335.738,235.016z"/>
			<path d="M201.443,251.803c-9.258,0-16.787,7.529-16.787,16.787c0,4.742,1.998,9.015,5.17,12.07
				c6.186,5.934,16.543,6.01,22.872,0.294c3.374-3.072,5.531-7.453,5.531-12.364C218.229,259.332,210.701,251.803,201.443,251.803z"
				/>
			<path d="M436.358,108.594c-0.05-0.764-0.201-1.494-0.453-2.216c-0.092-0.269-0.159-0.537-0.277-0.789
				c-0.403-0.865-0.915-1.679-1.603-2.384c-0.017-0.008-0.017-0.025-0.034-0.034L333.287,2.468
				c-0.017-0.017-0.034-0.025-0.042-0.034c-0.705-0.697-1.528-1.209-2.392-1.612c-0.235-0.109-0.478-0.176-0.73-0.26
				c-0.755-0.269-1.528-0.428-2.325-0.47C327.638,0.084,327.504,0,327.344,0H92.328c-13.883,0-25.18,11.298-25.18,25.18v453.246
				c0,13.883,11.298,25.18,25.18,25.18h318.951c13.883,0,25.18-11.298,25.18-25.18V109.115
				C436.459,108.93,436.367,108.779,436.358,108.594z M125.902,100.721h109.115c4.633,0,8.393,3.752,8.393,8.393
				s-3.76,8.393-8.393,8.393H125.902c-4.633,0-8.393-3.752-8.393-8.393S121.268,100.721,125.902,100.721z M243.41,142.689
				c0,4.642-3.76,8.393-8.393,8.393h-8.393c-4.633,0-8.393-3.752-8.393-8.393c0-4.642,3.76-8.393,8.393-8.393h8.393
				C239.65,134.295,243.41,138.047,243.41,142.689z M125.902,134.295h67.148c4.633,0,8.393,3.752,8.393,8.393
				c0,4.642-3.76,8.393-8.393,8.393h-67.148c-4.633,0-8.393-3.752-8.393-8.393C117.508,138.047,121.268,134.295,125.902,134.295z
				 M335.738,285.377c-6.194,0-11.927-1.805-16.913-4.742l-29.797,29.797c2.938,4.986,4.742,10.718,4.742,16.913
				c0,18.516-15.058,33.574-33.574,33.574s-33.574-15.058-33.574-33.574c0-6.211,1.813-11.969,4.768-16.963l-6.48-6.48l-6.396-6.387
				c-1.276,0.764-2.61,1.427-3.987,1.989c-0.092,0.042-0.193,0.059-0.277,0.101c-1.553,0.621-3.156,1.1-4.784,1.486
				c-0.94,0.227-1.888,0.403-2.854,0.554c-0.806,0.118-1.612,0.176-2.426,0.243c-0.915,0.076-1.805,0.277-2.745,0.277
				s-1.821-0.201-2.745-0.277c-0.814-0.067-1.62-0.126-2.426-0.243c-0.965-0.151-1.905-0.319-2.845-0.554
				c-1.645-0.386-3.265-0.873-4.826-1.502c-0.084-0.034-0.168-0.05-0.252-0.084c-1.368-0.571-2.694-1.226-3.97-1.981l-50.084,50.084
				v46.886h201.443c4.633,0,8.393,3.752,8.393,8.393c0,4.642-3.76,8.393-8.393,8.393H125.902c-4.633,0-8.393-3.752-8.393-8.393
				V193.049c0-4.642,3.76-8.393,8.393-8.393s8.393,3.752,8.393,8.393v130.82l38.333-38.333c-2.954-4.994-4.759-10.735-4.759-16.946
				c0-18.516,15.058-33.574,33.574-33.574s33.574,15.058,33.574,33.574c0,6.203-1.805,11.944-4.751,16.938l6.513,6.505l6.379,6.371
				c1.217-0.722,2.493-1.343,3.802-1.889c0.168-0.076,0.344-0.134,0.52-0.21c1.519-0.604,3.08-1.074,4.675-1.452
				c0.957-0.235,1.93-0.411,2.921-0.562c0.772-0.118,1.553-0.176,2.342-0.243c0.932-0.076,1.83-0.277,2.778-0.277
				s1.847,0.201,2.778,0.277c0.797,0.067,1.603,0.126,2.401,0.243c0.965,0.151,1.922,0.327,2.862,0.562
				c1.561,0.369,3.097,0.839,4.583,1.427c0.159,0.067,0.336,0.101,0.495,0.168c1.368,0.562,2.694,1.225,3.97,1.989l29.654-29.654
				c-2.963-5.003-4.776-10.76-4.776-16.98c0-18.516,15.058-33.574,33.574-33.574s33.574,15.058,33.574,33.574
				S354.254,285.377,335.738,285.377z M344.131,100.721c-4.625,0-8.393-3.76-8.393-8.393V28.655l72.066,72.066H344.131z"/>
		</g>
	</g>
</g>
<g>
</g>
<g>
</g>
<g>
</g>
<g>
</g>
<g>
</g>
<g>
</g>
<g>
</g>
<g>
</g>
<g>
</g>
<g>
</g>
<g>
</g>
<g>
</g>
<g>
</g>
<g>
</g>
<g>
</g>
</svg>
