<?xml version="1.0" encoding="iso-8859-1"?>
<!-- Generator: Adobe Illustrator 19.0.0, SVG Export Plug-In . SVG Version: 6.00 Build 0)  -->
<svg version="1.1" id="Layer_1" xmlns="http://www.w3.org/2000/svg" xmlns:xlink="http://www.w3.org/1999/xlink" x="0px" y="0px"
	 viewBox="0 0 503.607 503.607" style="enable-background:new 0 0 503.607 503.607;" xml:space="preserve">
<g>
	<g>
		<g>
			<polygon points="159.475,177.623 148.74,209.837 170.211,209.837 			"/>
			<path d="M436.358,108.594c-0.05-0.764-0.201-1.494-0.453-2.216c-0.092-0.269-0.159-0.537-0.277-0.789
				c-0.403-0.865-0.915-1.679-1.603-2.384c-0.017-0.008-0.017-0.025-0.034-0.034L333.287,2.468
				c-0.017-0.017-0.034-0.025-0.042-0.034c-0.705-0.697-1.528-1.209-2.392-1.612c-0.235-0.109-0.478-0.176-0.73-0.26
				c-0.755-0.269-1.528-0.428-2.325-0.47C327.638,0.084,327.504,0,327.344,0H92.328c-13.883,0-25.18,11.298-25.18,25.18v453.246
				c0,13.883,11.298,25.18,25.18,25.18h318.951c13.883,0,25.18-11.298,25.18-25.18V109.115
				C436.459,108.93,436.367,108.779,436.358,108.594z M117.936,249.151L151.51,148.43c1.15-3.433,4.348-5.741,7.965-5.741
				c3.618,0,6.824,2.308,7.965,5.741l33.574,100.721c1.469,4.398-0.915,9.149-5.313,10.609c-0.881,0.294-1.779,0.436-2.652,0.436
				c-3.517,0-6.79-2.224-7.965-5.741l-9.275-27.833h-32.667l-9.275,27.833c-1.469,4.398-6.203,6.774-10.618,5.305
				C118.851,258.3,116.467,253.549,117.936,249.151z M377.705,411.279H125.902c-4.633,0-8.393-3.752-8.393-8.393
				c0-4.642,3.76-8.393,8.393-8.393h251.803c4.633,0,8.393,3.752,8.393,8.393C386.098,407.527,382.338,411.279,377.705,411.279z
				 M377.705,360.918H125.902c-4.633,0-8.393-3.752-8.393-8.393c0-4.642,3.76-8.393,8.393-8.393h251.803
				c4.633,0,8.393,3.752,8.393,8.393C386.098,357.166,382.338,360.918,377.705,360.918z M377.705,310.557H125.902
				c-4.633,0-8.393-3.752-8.393-8.393c0-4.642,3.76-8.393,8.393-8.393h251.803c4.633,0,8.393,3.752,8.393,8.393
				C386.098,306.805,382.338,310.557,377.705,310.557z M377.705,260.197H226.623c-4.633,0-8.393-3.752-8.393-8.393
				c0-4.642,3.76-8.393,8.393-8.393h151.082c4.633,0,8.393,3.752,8.393,8.393C386.098,256.445,382.338,260.197,377.705,260.197z
				 M377.705,209.836H226.623c-4.633,0-8.393-3.752-8.393-8.393c0-4.642,3.76-8.393,8.393-8.393h151.082
				c4.633,0,8.393,3.752,8.393,8.393C386.098,206.084,382.338,209.836,377.705,209.836z M377.705,159.475H226.623
				c-4.633,0-8.393-3.752-8.393-8.393c0-4.642,3.76-8.393,8.393-8.393h151.082c4.633,0,8.393,3.752,8.393,8.393
				C386.098,155.724,382.338,159.475,377.705,159.475z M344.131,100.721c-4.625,0-8.393-3.76-8.393-8.393V28.655l72.066,72.066
				H344.131z"/>
		</g>
	</g>
</g>
<g>
</g>
<g>
</g>
<g>
</g>
<g>
</g>
<g>
</g>
<g>
</g>
<g>
</g>
<g>
</g>
<g>
</g>
<g>
</g>
<g>
</g>
<g>
</g>
<g>
</g>
<g>
</g>
<g>
</g>
</svg>
