<?xml version="1.0" encoding="iso-8859-1"?>
<!-- Generator: Adobe Illustrator 19.0.0, SVG Export Plug-In . SVG Version: 6.00 Build 0)  -->
<svg version="1.1" id="Layer_1" xmlns="http://www.w3.org/2000/svg" xmlns:xlink="http://www.w3.org/1999/xlink" x="0px" y="0px"
	 viewBox="0 0 503.607 503.607" style="enable-background:new 0 0 503.607 503.607;" xml:space="preserve">
<g>
	<g>
		<g>
			<rect x="218.229" y="235.016" width="67.148" height="50.361"/>
			<rect x="302.164" y="302.164" width="67.148" height="50.361"/>
			<rect x="218.229" y="302.164" width="67.148" height="50.361"/>
			<rect x="134.295" y="235.016" width="67.148" height="50.361"/>
			<rect x="134.295" y="302.164" width="67.148" height="50.361"/>
			<rect x="302.164" y="369.311" width="67.148" height="50.361"/>
			<path d="M436.358,108.611c-0.05-0.772-0.201-1.511-0.453-2.233c-0.092-0.269-0.159-0.537-0.277-0.789
				c-0.403-0.856-0.906-1.662-1.586-2.359c-0.025-0.017-0.034-0.042-0.05-0.059L333.287,2.468c-0.017-0.017-0.034-0.025-0.042-0.034
				c-0.705-0.697-1.528-1.209-2.392-1.612c-0.235-0.109-0.478-0.176-0.73-0.26c-0.755-0.269-1.528-0.428-2.325-0.47
				C327.638,0.084,327.504,0,327.344,0H92.328c-13.883,0-25.18,11.298-25.18,25.18v453.246c0,13.883,11.298,25.18,25.18,25.18
				h318.951c13.883,0,25.18-11.298,25.18-25.18V109.115C436.459,108.938,436.367,108.787,436.358,108.611z M386.098,226.623v67.148
				v67.148v67.148c0,4.642-3.76,8.393-8.393,8.393H293.77h-83.934h-83.934c-4.633,0-8.393-3.752-8.393-8.393v-67.148V293.77v-67.148
				v-67.148c0-4.642,3.76-8.393,8.393-8.393h251.803c4.633,0,8.393,3.752,8.393,8.393V226.623z M344.131,100.721
				c-4.625,0-8.393-3.76-8.393-8.393V28.655l72.066,72.066H344.131z"/>
			<rect x="302.164" y="235.016" width="67.148" height="50.361"/>
			<rect x="218.229" y="369.311" width="67.148" height="50.361"/>
			<path d="M134.295,218.229h75.541h83.934h75.541v-50.361H134.295V218.229z M159.475,184.656h184.656
				c4.633,0,8.393,3.752,8.393,8.393c0,4.642-3.76,8.393-8.393,8.393H159.475c-4.633,0-8.393-3.752-8.393-8.393
				C151.082,188.408,154.842,184.656,159.475,184.656z"/>
			<rect x="134.295" y="369.311" width="67.148" height="50.361"/>
		</g>
	</g>
</g>
<g>
</g>
<g>
</g>
<g>
</g>
<g>
</g>
<g>
</g>
<g>
</g>
<g>
</g>
<g>
</g>
<g>
</g>
<g>
</g>
<g>
</g>
<g>
</g>
<g>
</g>
<g>
</g>
<g>
</g>
</svg>
