<?xml version="1.0" encoding="iso-8859-1"?>
<!-- Generator: Adobe Illustrator 19.0.0, SVG Export Plug-In . SVG Version: 6.00 Build 0)  -->
<svg version="1.1" id="Layer_1" xmlns="http://www.w3.org/2000/svg" xmlns:xlink="http://www.w3.org/1999/xlink" x="0px" y="0px"
	 viewBox="0 0 503.611 503.611" style="enable-background:new 0 0 503.611 503.611;" xml:space="preserve">
<g>
	<g>
		<g>
			<path d="M201.446,243.41V58.754c0-0.176-0.092-0.327-0.101-0.512c-0.05-0.764-0.201-1.502-0.453-2.224
				c-0.092-0.269-0.159-0.537-0.277-0.789c-0.403-0.856-0.906-1.662-1.586-2.359c-0.025-0.017-0.034-0.042-0.05-0.059L148.634,2.468
				c-0.017-0.017-0.042-0.025-0.059-0.05c-0.697-0.68-1.494-1.175-2.342-1.578c-0.269-0.126-0.546-0.193-0.831-0.294
				c-0.705-0.243-1.435-0.395-2.191-0.436C143.036,0.092,142.876,0,142.691,0H25.183C15.925,0,8.396,7.529,8.396,16.787V243.41
				c0,9.258,7.529,16.787,16.787,16.787h159.475C193.917,260.197,201.446,252.668,201.446,243.41z"/>
			<path d="M495.114,301.656c-0.05-0.764-0.193-1.502-0.445-2.233c-0.101-0.269-0.168-0.529-0.285-0.789
				c-0.403-0.848-0.906-1.654-1.586-2.35c-0.017-0.025-0.034-0.05-0.05-0.067l-50.344-50.335c-0.017-0.017-0.042-0.034-0.059-0.05
				c-0.697-0.68-1.494-1.183-2.342-1.578c-0.269-0.126-0.546-0.201-0.823-0.294c-0.713-0.252-1.444-0.394-2.199-0.445
				c-0.176-0.008-0.336-0.101-0.52-0.101H318.952c-9.25,0-16.787,7.529-16.787,16.787v226.623c0,9.25,7.537,16.787,16.787,16.787
				h159.475c9.258,0,16.787-7.537,16.787-16.787V302.168C495.214,301.983,495.122,301.832,495.114,301.656z"/>
			<path d="M268.593,428.066H67.15V293.77c0-4.642-3.752-8.393-8.393-8.393c-4.642,0-8.393,3.752-8.393,8.393v142.689
				c0,4.642,3.752,8.393,8.393,8.393h209.836c4.642,0,8.393-3.752,8.393-8.393C276.987,431.817,273.235,428.066,268.593,428.066z"/>
			<path d="M235.019,100.721h159.475v109.115c0,4.642,3.752,8.393,8.393,8.393s8.393-3.752,8.393-8.393V92.328
				c0-4.642-3.752-8.393-8.393-8.393H235.019c-4.642,0-8.393,3.752-8.393,8.393C226.626,96.969,230.378,100.721,235.019,100.721z"/>
		</g>
	</g>
</g>
<g>
</g>
<g>
</g>
<g>
</g>
<g>
</g>
<g>
</g>
<g>
</g>
<g>
</g>
<g>
</g>
<g>
</g>
<g>
</g>
<g>
</g>
<g>
</g>
<g>
</g>
<g>
</g>
<g>
</g>
</svg>
