<?xml version="1.0" encoding="iso-8859-1"?>
<!-- Generator: Adobe Illustrator 19.0.0, SVG Export Plug-In . SVG Version: 6.00 Build 0)  -->
<svg version="1.1" id="Layer_1" xmlns="http://www.w3.org/2000/svg" xmlns:xlink="http://www.w3.org/1999/xlink" x="0px" y="0px"
	 viewBox="0 0 503.607 503.607" style="enable-background:new 0 0 503.607 503.607;" xml:space="preserve">
<g>
	<g>
		<g>
			<path d="M310.557,486.82H293.77c-4.633,0-8.393,3.752-8.393,8.393c0,4.642,3.76,8.393,8.393,8.393h16.787
				c4.633,0,8.393-3.752,8.393-8.393C318.951,490.572,315.191,486.82,310.557,486.82z"/>
			<path d="M360.918,486.82h-16.787c-4.633,0-8.393,3.752-8.393,8.393c0,4.642,3.76,8.393,8.393,8.393h16.787
				c4.633,0,8.393-3.752,8.393-8.393C369.311,490.572,365.551,486.82,360.918,486.82z"/>
			<path d="M411.279,486.82h-16.787c-4.633,0-8.393,3.752-8.393,8.393c0,4.642,3.76,8.393,8.393,8.393h16.787
				c4.642,0,8.393-3.752,8.393-8.393C419.672,490.572,415.92,486.82,411.279,486.82z"/>
			<path d="M159.475,486.82h-16.787c-4.633,0-8.393,3.752-8.393,8.393c0,4.642,3.76,8.393,8.393,8.393h16.787
				c4.633,0,8.393-3.752,8.393-8.393C167.869,490.572,164.109,486.82,159.475,486.82z"/>
			<path d="M209.836,486.82h-16.787c-4.633,0-8.393,3.752-8.393,8.393c0,4.642,3.76,8.393,8.393,8.393h16.787
				c4.633,0,8.393-3.752,8.393-8.393C218.229,490.572,214.469,486.82,209.836,486.82z"/>
			<path d="M428.066,446.049c-4.642,0-8.393,3.752-8.393,8.393v16.787c0,4.642,3.752,8.393,8.393,8.393s8.393-3.752,8.393-8.393
				v-16.787C436.459,449.801,432.707,446.049,428.066,446.049z"/>
			<path d="M260.197,486.82H243.41c-4.633,0-8.393,3.752-8.393,8.393c0,4.642,3.76,8.393,8.393,8.393h16.787
				c4.633,0,8.393-3.752,8.393-8.393C268.59,490.572,264.83,486.82,260.197,486.82z"/>
			<path d="M428.066,244.607c-4.642,0-8.393,3.752-8.393,8.393v16.787c0,4.642,3.752,8.393,8.393,8.393s8.393-3.752,8.393-8.393V253
				C436.459,248.359,432.707,244.607,428.066,244.607z"/>
			<path d="M428.066,143.885c-4.642,0-8.393,3.752-8.393,8.393v16.787c0,4.642,3.752,8.393,8.393,8.393s8.393-3.752,8.393-8.393
				v-16.787C436.459,147.637,432.707,143.885,428.066,143.885z"/>
			<path d="M436.375,108.586c-0.017-0.294-0.017-0.579-0.067-0.865c-0.034-0.243-0.109-0.462-0.176-0.705
				c-0.076-0.294-0.168-0.579-0.277-0.873c-0.067-0.168-0.076-0.344-0.151-0.512c-0.034-0.084-0.101-0.143-0.143-0.218
				c-0.109-0.227-0.252-0.428-0.378-0.638c-0.168-0.269-0.336-0.52-0.52-0.764c-0.168-0.21-0.319-0.42-0.495-0.613
				c-0.067-0.067-0.101-0.151-0.168-0.218L333.287,2.468c-0.017-0.017-0.034-0.025-0.042-0.034
				c-0.705-0.697-1.528-1.209-2.392-1.612c-0.235-0.109-0.478-0.176-0.73-0.26c-0.755-0.269-1.528-0.428-2.325-0.47
				C327.638,0.084,327.504,0,327.344,0H92.328c-13.883,0-25.18,11.298-25.18,25.18v453.246c0,13.883,11.298,25.18,25.18,25.18
				h16.787c4.633,0,8.393-3.752,8.393-8.393c0-4.113-2.971-7.546-6.883-8.259l22.729-26.137l9.929-11.407
				c0-0.008,0-0.008,0.008-0.008l22.008-25.315c0.008-0.008,0.008-0.008,0.017-0.017l11.012-12.666c0-0.008,0.008-0.008,0.008-0.008
				l65.536-75.365l0.546-0.63l22.024-25.331c0.008,0,0.008,0,0.008-0.008l5.028-5.775l28.001-32.206
				c0.008-0.008,0.017-0.008,0.017-0.017l10.357-11.91l61.49-70.715l5.254-6.043l0.008-0.008l49.765-57.227
				c1.125,0.554,2.35,0.94,3.693,0.94c4.642,0,8.393-3.76,8.393-8.393v-9.594C436.459,108.93,436.392,108.762,436.375,108.586z
				 M395.004,134.345c-0.008,0.008-0.017,0.017-0.025,0.025l-11.012,12.674c-0.008,0-0.008,0.008-0.008,0.008l-31.459,36.176
				l-1.578,1.813l-22.024,25.331h-0.008l-11.012,12.666v0.008l-22.016,25.315c-0.008,0.008-0.017,0.008-0.017,0.017l-11.012,12.674
				l-22.008,25.306c-0.008,0.008-0.025,0.008-0.025,0.017l-11.021,12.674c0,0.008-0.008,0.008-0.008,0.017l-26.372,30.326
				l-6.656,7.655c-0.008,0-0.008,0.008-0.008,0.008l-23.107,26.574l-9.929,11.423c-0.008,0-0.008,0.008-0.008,0.008l-22.016,25.315
				l-0.008,0.008l-11.021,12.674c0,0,0,0,0,0.008l-63.572,73.099c-3.013-1.267-5.137-4.264-5.137-7.739V25.18
				c0-4.633,3.769-8.393,8.393-8.393h226.623v75.541c0,13.883,11.298,25.18,25.18,25.18h65.519L395.004,134.345z"/>
			<path d="M428.066,194.246c-4.642,0-8.393,3.752-8.393,8.393v16.787c0,4.642,3.752,8.393,8.393,8.393s8.393-3.752,8.393-8.393
				V202.64C436.459,197.998,432.707,194.246,428.066,194.246z"/>
			<path d="M428.066,395.689c-4.642,0-8.393,3.752-8.393,8.393v16.787c0,4.642,3.752,8.393,8.393,8.393s8.393-3.752,8.393-8.393
				v-16.787C436.459,399.441,432.707,395.689,428.066,395.689z"/>
			<path d="M428.066,294.967c-4.642,0-8.393,3.752-8.393,8.393v16.787c0,4.642,3.752,8.393,8.393,8.393s8.393-3.752,8.393-8.393
				v-16.787C436.459,298.719,432.707,294.967,428.066,294.967z"/>
			<path d="M428.066,345.328c-4.642,0-8.393,3.752-8.393,8.393v16.787c0,4.642,3.752,8.393,8.393,8.393s8.393-3.752,8.393-8.393
				v-16.787C436.459,349.08,432.707,345.328,428.066,345.328z"/>
		</g>
	</g>
</g>
<g>
</g>
<g>
</g>
<g>
</g>
<g>
</g>
<g>
</g>
<g>
</g>
<g>
</g>
<g>
</g>
<g>
</g>
<g>
</g>
<g>
</g>
<g>
</g>
<g>
</g>
<g>
</g>
<g>
</g>
</svg>
