<?xml version="1.0" encoding="iso-8859-1"?>
<!-- Generator: Adobe Illustrator 19.0.0, SVG Export Plug-In . SVG Version: 6.00 Build 0)  -->
<svg version="1.1" id="Layer_1" xmlns="http://www.w3.org/2000/svg" xmlns:xlink="http://www.w3.org/1999/xlink" x="0px" y="0px"
	 viewBox="0 0 512 512" style="enable-background:new 0 0 512 512;" xml:space="preserve">
<g>
	<g>
		<g>
			<path d="M128,375.467c0,14.114,11.486,25.6,25.6,25.6c14.114,0,25.6-11.486,25.6-25.6s-11.486-25.6-25.6-25.6
				C139.486,349.867,128,361.353,128,375.467z"/>
			<path d="M238.933,375.467c0,14.114,11.486,25.6,25.6,25.6s25.6-11.486,25.6-25.6s-11.486-25.6-25.6-25.6
				S238.933,361.353,238.933,375.467z"/>
			<path d="M290.133,221.867c0-14.114-11.486-25.6-25.6-25.6s-25.6,11.486-25.6,25.6c0,14.114,11.486,25.6,25.6,25.6
				S290.133,235.981,290.133,221.867z"/>
			<path d="M477.867,136.533h-9.395c-3.968-19.447-21.205-34.133-41.805-34.133H294.135l-40.107-48.137
				c-1.63-1.937-4.028-3.063-6.562-3.063H59.733C40.909,51.2,25.6,66.509,25.6,85.333v52.412C10.923,141.559,0,154.803,0,170.667
				v256C0,445.491,15.309,460.8,34.133,460.8h443.733c18.825,0,34.133-15.309,34.133-34.133v-256
				C512,151.842,496.691,136.533,477.867,136.533z M375.467,418.133c-23.526,0-42.667-19.14-42.667-42.667
				c0-20.599,14.686-37.837,34.133-41.805v-34.995h-93.867v34.995c19.447,3.968,34.133,21.205,34.133,41.805
				c0,23.526-19.14,42.667-42.667,42.667c-23.526,0-42.667-19.14-42.667-42.667c0-20.599,14.686-37.837,34.133-41.805v-34.995
				h-93.867v34.995c19.447,3.968,34.133,21.205,34.133,41.805c0,23.526-19.14,42.667-42.667,42.667
				c-23.526,0-42.667-19.14-42.667-42.667c0-20.599,14.686-37.837,34.133-41.805v-43.529c0-4.719,3.814-8.533,8.533-8.533H256
				v-17.929c-19.447-3.968-34.133-21.205-34.133-41.805c0-23.526,19.14-42.667,42.667-42.667c23.526,0,42.667,19.14,42.667,42.667
				c0,20.599-14.686,37.837-34.133,41.805V281.6h102.4c4.719,0,8.533,3.814,8.533,8.533v43.529
				c19.448,3.968,34.133,21.205,34.133,41.805C418.133,398.993,398.993,418.133,375.467,418.133z M42.667,136.533v-51.2
				c0-9.412,7.654-17.067,17.067-17.067h183.731l40.107,48.137c1.63,1.937,4.028,3.063,6.562,3.063h136.533
				c11.128,0,20.617,7.134,24.141,17.067H42.667z"/>
			<path d="M375.467,349.867c-14.114,0-25.6,11.486-25.6,25.6s11.486,25.6,25.6,25.6s25.6-11.486,25.6-25.6
				S389.581,349.867,375.467,349.867z"/>
		</g>
	</g>
</g>
<g>
</g>
<g>
</g>
<g>
</g>
<g>
</g>
<g>
</g>
<g>
</g>
<g>
</g>
<g>
</g>
<g>
</g>
<g>
</g>
<g>
</g>
<g>
</g>
<g>
</g>
<g>
</g>
<g>
</g>
</svg>
