<?xml version="1.0" encoding="iso-8859-1"?>
<!-- Generator: Adobe Illustrator 19.0.0, SVG Export Plug-In . SVG Version: 6.00 Build 0)  -->
<svg version="1.1" id="Layer_1" xmlns="http://www.w3.org/2000/svg" xmlns:xlink="http://www.w3.org/1999/xlink" x="0px" y="0px"
	 viewBox="0 0 503.607 503.607" style="enable-background:new 0 0 503.607 503.607;" xml:space="preserve">
<g>
	<g>
		<g>
			<rect x="117.508" y="209.836" width="33.574" height="33.574"/>
			<path d="M352.525,419.672c9.258,0,16.787-7.529,16.787-16.787c0-9.258-7.529-16.787-16.787-16.787
				c-2.98,0-5.741,0.848-8.167,2.216c-0.042,0.017-0.059,0.059-0.092,0.076c-2.552,1.469-4.684,3.576-6.161,6.102
				c-0.025,0.042-0.067,0.076-0.101,0.126c-1.402,2.451-2.266,5.246-2.266,8.268C335.738,412.143,343.267,419.672,352.525,419.672z"
				/>
			<path d="M251.803,327.344c-9.258,0-16.787,7.529-16.787,16.787c0,1.393,0.21,2.77,0.579,4.13
				c0.025,0.126,0.076,0.235,0.109,0.353c0.394,1.335,0.94,2.644,1.687,3.928c0.025,0.042,0.025,0.101,0.05,0.143
				c2.929,4.91,8.242,8.234,14.361,8.234c6.119,0,11.432-3.324,14.361-8.234c0.025-0.042,0.025-0.101,0.05-0.143
				c0.747-1.284,1.293-2.594,1.687-3.928c0.034-0.117,0.084-0.227,0.109-0.353c0.369-1.36,0.579-2.736,0.579-4.13
				C268.59,334.873,261.061,327.344,251.803,327.344z"/>
			<path d="M243.365,241.05c0.05,0.025,0.117,0.025,0.168,0.059c1.293,0.739,2.619,1.293,3.962,1.67
				c0.067,0.017,0.134,0.042,0.201,0.067c2.719,0.73,5.498,0.73,8.217,0c0.067-0.025,0.126-0.05,0.201-0.067
				c1.335-0.386,2.661-0.932,3.962-1.67c0.05-0.034,0.109-0.034,0.168-0.059c4.969-2.921,8.343-8.259,8.343-14.428
				c0-9.25-7.529-16.787-16.787-16.787c-9.258,0-16.787,7.537-16.787,16.787C235.014,232.791,238.396,238.13,243.365,241.05z"/>
			<path d="M165.504,394.492c-1.477-2.526-3.609-4.633-6.161-6.102c-0.034-0.017-0.059-0.059-0.092-0.076
				c-2.426-1.368-5.187-2.216-8.167-2.216c-9.258,0-16.787,7.529-16.787,16.787c0,9.258,7.529,16.787,16.787,16.787
				c9.258,0,16.787-7.529,16.787-16.787c0-3.038-0.873-5.85-2.291-8.309C165.563,394.542,165.521,394.525,165.504,394.492z"/>
			<path d="M259.612,259.186c-0.68,0.159-1.351,0.311-2.048,0.428c-1.863,0.336-3.744,0.562-5.632,0.571
				c-0.042,0-0.084,0.008-0.126,0.008c-0.042,0-0.084-0.008-0.126-0.008c-1.897-0.008-3.777-0.235-5.64-0.571
				c-0.688-0.117-1.368-0.269-2.048-0.428c-0.336-0.084-0.68-0.118-1.007-0.21l-68.516,119.9c0.143,0.134,0.294,0.252,0.436,0.395
				l44.62-26.028c-0.117-0.403-0.159-0.823-0.26-1.234c-0.168-0.68-0.319-1.351-0.445-2.048c-0.353-1.914-0.588-3.853-0.588-5.833
				c0-18.516,15.058-33.574,33.574-33.574c18.508,0,33.574,15.058,33.574,33.574c0,1.981-0.243,3.92-0.596,5.833
				c-0.117,0.697-0.277,1.368-0.436,2.048c-0.101,0.411-0.151,0.831-0.269,1.234l44.62,26.028c0.143-0.143,0.302-0.26,0.436-0.395
				l-68.516-119.9C260.292,259.069,259.947,259.102,259.612,259.186z"/>
			<path d="M436.358,108.594c-0.05-0.764-0.201-1.494-0.453-2.216c-0.092-0.269-0.159-0.537-0.277-0.789
				c-0.403-0.865-0.915-1.679-1.603-2.384c-0.017-0.008-0.017-0.025-0.034-0.034L333.287,2.468
				c-0.017-0.017-0.034-0.025-0.042-0.034c-0.705-0.705-1.528-1.209-2.392-1.612c-0.235-0.109-0.478-0.176-0.722-0.26
				c-0.764-0.269-1.536-0.428-2.333-0.47C327.638,0.084,327.504,0,327.344,0H92.328c-13.883,0-25.18,11.298-25.18,25.18v453.246
				c0,13.883,11.298,25.18,25.18,25.18h318.951c13.883,0,25.18-11.298,25.18-25.18V109.115
				C436.459,108.93,436.367,108.779,436.358,108.594z M125.902,100.721h109.115c4.633,0,8.393,3.752,8.393,8.393
				s-3.76,8.393-8.393,8.393H125.902c-4.633,0-8.393-3.752-8.393-8.393S121.268,100.721,125.902,100.721z M243.41,142.689
				c0,4.642-3.76,8.393-8.393,8.393h-8.393c-4.633,0-8.393-3.752-8.393-8.393c0-4.642,3.76-8.393,8.393-8.393h8.393
				C239.65,134.295,243.41,138.047,243.41,142.689z M125.902,134.295h67.148c4.633,0,8.393,3.752,8.393,8.393
				c0,4.642-3.76,8.393-8.393,8.393h-67.148c-4.633,0-8.393-3.752-8.393-8.393C117.508,138.047,121.268,134.295,125.902,134.295z
				 M402.885,251.803c0,4.642-3.76,8.393-8.393,8.393h-50.361c-4.633,0-8.393-3.752-8.393-8.393v-16.787h-51.553
				c-1.561,6.018-4.667,11.407-8.998,15.62l68.566,119.984c2.812-0.764,5.716-1.309,8.771-1.309
				c18.516,0,33.574,15.058,33.574,33.574c0,18.516-15.058,33.574-33.574,33.574s-33.574-15.058-33.574-33.574
				c0-3.156,0.579-6.152,1.393-9.048l-44.72-26.087c-6.085,6.136-14.512,9.955-23.821,9.955c-9.308,0-17.735-3.819-23.821-9.955
				l-44.72,26.087c0.814,2.896,1.393,5.892,1.393,9.048c0,18.516-15.058,33.574-33.574,33.574s-33.574-15.058-33.574-33.574
				c0-18.516,15.058-33.574,33.574-33.574c3.055,0,5.959,0.546,8.771,1.309l68.566-119.984c-4.331-4.214-7.437-9.602-8.998-15.62
				h-51.553v16.787c0,4.642-3.76,8.393-8.393,8.393h-50.361c-4.633,0-8.393-3.752-8.393-8.393v-50.361
				c0-4.642,3.76-8.393,8.393-8.393h50.361c4.633,0,8.393,3.752,8.393,8.393v16.787h51.553c3.752-14.437,16.787-25.18,32.382-25.18
				s28.63,10.744,32.382,25.18h51.553v-16.787c0-4.642,3.76-8.393,8.393-8.393h50.361c4.633,0,8.393,3.752,8.393,8.393V251.803z
				 M344.131,100.721c-4.625,0-8.393-3.76-8.393-8.393V28.655l72.066,72.066H344.131z"/>
			<rect x="352.525" y="209.836" width="33.574" height="33.574"/>
		</g>
	</g>
</g>
<g>
</g>
<g>
</g>
<g>
</g>
<g>
</g>
<g>
</g>
<g>
</g>
<g>
</g>
<g>
</g>
<g>
</g>
<g>
</g>
<g>
</g>
<g>
</g>
<g>
</g>
<g>
</g>
<g>
</g>
</svg>
