<?xml version="1.0" encoding="iso-8859-1"?>
<!-- Generator: Adobe Illustrator 19.0.0, SVG Export Plug-In . SVG Version: 6.00 Build 0)  -->
<svg version="1.1" id="Layer_1" xmlns="http://www.w3.org/2000/svg" xmlns:xlink="http://www.w3.org/1999/xlink" x="0px" y="0px"
	 viewBox="0 0 503.607 503.607" style="enable-background:new 0 0 503.607 503.607;" xml:space="preserve">
<g>
	<g>
		<polygon points="214.033,167.869 143.528,251.803 167.869,251.803 289.574,251.803 329.023,204.8 360.079,167.869 		"/>
	</g>
</g>
<g>
	<g>
		<path d="M339.934,268.59l-39.449,47.003c-1.679,2.518-4.197,3.357-6.715,3.357H172.066l-27.698,33.574h146.046l69.666-83.934
			H339.934z"/>
	</g>
</g>
<g>
	<g>
		<path d="M339.095,218.229l-39.449,47.003c-0.839,2.518-3.357,3.357-5.875,3.357H172.066l-27.698,33.574h23.502h121.705
			l39.449-47.003l30.216-36.931H339.095z"/>
	</g>
</g>
<g>
	<g>
		<path d="M435.62,106.597v-0.839c0-0.839-0.839-1.679-1.679-2.518L333.22,2.518c-0.839-0.839-1.679-0.839-2.518-1.679h-0.839
			c-0.839,0-1.679,0-2.518-0.839c0,0,0,0-0.839,0H92.328c-14.269,0-25.18,11.751-25.18,25.18v453.246
			c0,14.269,10.911,25.18,25.18,25.18h318.951c14.269,0,25.18-10.911,25.18-25.18V109.115
			C436.459,108.275,436.459,107.436,435.62,106.597z M335.738,453.246h-41.967c-5.036,0-8.393-3.357-8.393-8.393
			c0-5.036,3.357-8.393,8.393-8.393h41.967c5.036,0,8.393,3.357,8.393,8.393C344.131,449.888,340.774,453.246,335.738,453.246z
			 M377.705,453.246h-8.393c-5.036,0-8.393-3.357-8.393-8.393c0-5.036,3.357-8.393,8.393-8.393h8.393
			c5.036,0,8.393,3.357,8.393,8.393C386.098,449.888,382.741,453.246,377.705,453.246z M377.705,419.672h-83.934
			c-5.036,0-8.393-3.357-8.393-8.393s3.357-8.393,8.393-8.393h83.934c5.036,0,8.393,3.357,8.393,8.393
			S382.741,419.672,377.705,419.672z M377.705,201.443c3.357,0,5.875,1.679,7.554,5.036s0.839,6.715-0.839,9.233l-31.056,36.092
			h24.341c3.357,0,5.875,1.679,7.554,5.036c1.679,3.357,0.839,6.715-0.839,9.233l-83.934,100.721
			c-1.679,1.679-4.197,2.518-6.715,2.518H125.902c-3.357,0-5.875-1.679-7.554-5.036c-1.679-3.357-0.839-6.715,0.839-9.233
			l31.056-36.092h-24.341c-3.357,0-5.875-1.679-7.554-5.036c-1.679-3.357-0.839-6.715,0.839-9.233l31.056-36.092h-24.341
			c-3.357,0-5.875-1.679-7.554-5.036c-1.679-3.357-0.839-6.715,0.839-9.233L203.121,153.6c1.679-1.679,4.197-3.357,6.715-3.357
			h167.869c3.357,0,5.875,1.679,7.554,5.036s0.839,6.715-0.839,9.233l-31.056,36.931H377.705z M344.131,100.721
			c-5.036,0-8.393-3.357-8.393-8.393v-63.79l72.184,72.184H344.131z"/>
	</g>
</g>
<g>
</g>
<g>
</g>
<g>
</g>
<g>
</g>
<g>
</g>
<g>
</g>
<g>
</g>
<g>
</g>
<g>
</g>
<g>
</g>
<g>
</g>
<g>
</g>
<g>
</g>
<g>
</g>
<g>
</g>
</svg>
