<?xml version="1.0" encoding="iso-8859-1"?>
<!-- Generator: Adobe Illustrator 19.0.0, SVG Export Plug-In . SVG Version: 6.00 Build 0)  -->
<svg version="1.1" id="Layer_1" xmlns="http://www.w3.org/2000/svg" xmlns:xlink="http://www.w3.org/1999/xlink" x="0px" y="0px"
	 viewBox="0 0 512 512" style="enable-background:new 0 0 512 512;" xml:space="preserve">
<g>
	<g>
		<g>
			<path d="M238.933,358.4c0,9.412,7.654,17.067,17.067,17.067c9.412,0,17.067-7.654,17.067-17.067v-17.067h-34.133V358.4z"/>
			<path d="M477.867,136.533h-9.395c-3.968-19.447-21.205-34.133-41.805-34.133H294.135l-40.107-48.137
				c-1.63-1.937-4.028-3.063-6.562-3.063H59.733C40.909,51.2,25.6,66.509,25.6,85.333v52.412C10.923,141.559,0,154.803,0,170.667
				v256C0,445.491,15.309,460.8,34.133,460.8h443.733c18.825,0,34.133-15.309,34.133-34.133v-256
				C512,151.842,496.691,136.533,477.867,136.533z M162.133,238.933h-102.4c-4.719,0-8.533-3.814-8.533-8.533
				s3.814-8.533,8.533-8.533h102.4c4.719,0,8.533,3.814,8.533,8.533S166.852,238.933,162.133,238.933z M162.133,204.8h-102.4
				c-4.719,0-8.533-3.814-8.533-8.533s3.814-8.533,8.533-8.533h102.4c4.719,0,8.533,3.814,8.533,8.533S166.852,204.8,162.133,204.8z
				 M290.133,358.4c0,18.825-15.309,34.133-34.133,34.133c-18.825,0-34.133-15.309-34.133-34.133v-34.133H256V307.2h-17.067v-17.067
				H256v-17.067h-17.067V256H256v-17.067h-17.067v-17.067H256V204.8h-17.067v-17.067H256v-17.067h17.067v17.067H256V204.8h17.067
				v17.067H256v17.067h17.067V256H256v17.067h17.067v17.067H256V307.2h17.067v17.067h17.067V358.4z M42.667,136.533v-51.2
				c0-9.412,7.654-17.067,17.067-17.067h183.731l40.107,48.137c1.63,1.937,4.028,3.063,6.562,3.063h136.533
				c11.128,0,20.617,7.134,24.141,17.067H42.667z"/>
		</g>
	</g>
</g>
<g>
</g>
<g>
</g>
<g>
</g>
<g>
</g>
<g>
</g>
<g>
</g>
<g>
</g>
<g>
</g>
<g>
</g>
<g>
</g>
<g>
</g>
<g>
</g>
<g>
</g>
<g>
</g>
<g>
</g>
</svg>
