<?xml version="1.0" encoding="iso-8859-1"?>
<!-- Generator: Adobe Illustrator 19.0.0, SVG Export Plug-In . SVG Version: 6.00 Build 0)  -->
<svg version="1.1" id="Capa_1" xmlns="http://www.w3.org/2000/svg" xmlns:xlink="http://www.w3.org/1999/xlink" x="0px" y="0px"
	 viewBox="0 0 58 58" style="enable-background:new 0 0 58 58;" xml:space="preserve">
<g>
	<path d="M29,0C13.009,0,0,13.01,0,29s13.009,29,29,29s29-13.01,29-29S44.991,0,29,0z M8.293,25.293l6.731-6.731
		c1.089-1.09,2.861-1.09,3.951,0l5.463,5.463c0.31,0.309,0.813,0.31,1.123,0l5.463-5.463c1.089-1.09,2.861-1.09,3.951,0l5.463,5.463
		c0.31,0.309,0.813,0.31,1.123,0l6.731-6.731c0.391-0.391,1.023-0.391,1.414,0s0.391,1.023,0,1.414l-6.731,6.731
		c-1.089,1.09-2.861,1.09-3.951,0l-5.463-5.463c-0.309-0.308-0.813-0.308-1.123,0l-5.463,5.463c-1.089,1.09-2.861,1.09-3.951,0
		l-5.463-5.463c-0.309-0.308-0.813-0.308-1.123,0l-6.731,6.731C9.512,26.902,9.256,27,9,27s-0.512-0.098-0.707-0.293
		C7.902,26.316,7.902,25.684,8.293,25.293z M49.707,30.707l-6.731,6.731c-1.089,1.09-2.861,1.09-3.951,0l-5.463-5.463
		c-0.309-0.308-0.813-0.309-1.123,0l-5.463,5.463c-1.089,1.09-2.861,1.09-3.951,0l-5.463-5.463c-0.309-0.308-0.813-0.309-1.123,0
		l-6.731,6.731C9.512,38.902,9.256,39,9,39s-0.512-0.098-0.707-0.293c-0.391-0.391-0.391-1.023,0-1.414l6.731-6.731
		c1.089-1.09,2.861-1.09,3.951,0l5.463,5.463c0.31,0.31,0.813,0.31,1.123,0l5.463-5.463c1.089-1.09,2.861-1.09,3.951,0l5.463,5.463
		c0.31,0.31,0.813,0.31,1.123,0l6.731-6.731c0.391-0.391,1.023-0.391,1.414,0S50.098,30.316,49.707,30.707z"/>
</g>
<g>
</g>
<g>
</g>
<g>
</g>
<g>
</g>
<g>
</g>
<g>
</g>
<g>
</g>
<g>
</g>
<g>
</g>
<g>
</g>
<g>
</g>
<g>
</g>
<g>
</g>
<g>
</g>
<g>
</g>
</svg>
