<?xml version="1.0" encoding="iso-8859-1"?>
<!-- Generator: Adobe Illustrator 19.0.0, SVG Export Plug-In . SVG Version: 6.00 Build 0)  -->
<svg version="1.1" id="Capa_1" xmlns="http://www.w3.org/2000/svg" xmlns:xlink="http://www.w3.org/1999/xlink" x="0px" y="0px"
	 viewBox="0 0 59.008 59.008" style="enable-background:new 0 0 59.008 59.008;" xml:space="preserve">
<g>
	<g>
		<path d="M29.503,5.983c3.252,0,6-1.832,6-4c0-0.334-0.067-0.669-0.202-1c-3.5-1.311-8.096-1.311-11.596,0
			c-0.135,0.331-0.202,0.666-0.202,1C23.503,4.152,26.251,5.983,29.503,5.983z"/>
		<path d="M42.27,17.007h-3.767v-3.345c0-0.001,0-0.003,0-0.005c2.552-1.592,4-3.804,4-6.15c0-2.835-2.03-5.297-5.2-6.833
			c0.128,0.43,0.2,0.867,0.2,1.309c0,3.309-3.589,6-8,6s-8-2.691-8-6c0-0.443,0.072-0.88,0.2-1.309
			c-3.171,1.536-5.2,3.998-5.2,6.833c0,2.644,1.856,5.118,5,6.713v2.787h-4.767c-7.849,0-14.233,6.385-14.233,14.233v22.578
			c0,2.641,1.972,4.908,4.489,5.163c2.97,0.296,5.511-2.048,5.511-4.974V33.811c0-1.374,1.117-2.491,2.5-2.491
			c0.666,0,1.292,0.259,1.763,0.729c0.47,0.47,0.729,1.095,0.729,1.76c-0.007,8.949,0.009,20.198,0.009,20.198
			c0,2.481,2.019,4.5,4.5,4.5s4.5-2.019,4.5-4.499c0,0,0.016-11.024,0.009-20.002c-0.001-1.411,1.056-2.615,2.355-2.683l0.137-0.003
			c0.666,0,1.291,0.259,1.762,0.729c0.47,0.47,0.729,1.095,0.729,1.76c-0.007,8.949,0.009,20.198,0.009,20.198
			c0,2.481,2.019,4.5,4.5,4.5s4.5-2.019,4.5-4.499c0,0,0.016-11.25,0.009-20.199c0-0.665,0.259-1.291,0.729-1.76
			c0.471-0.47,1.097-0.729,1.763-0.729h1.009c1.374,0,2.491,1.117,2.491,2.491v20.008c0,2.641,1.972,4.908,4.489,5.163
			c0.172,0.017,0.343,0.026,0.512,0.026c1.331,0,2.585-0.521,3.531-1.468c0.946-0.946,1.468-2.201,1.468-3.532V31.241
			C56.503,23.392,50.118,17.007,42.27,17.007z"/>
	</g>
</g>
<g>
</g>
<g>
</g>
<g>
</g>
<g>
</g>
<g>
</g>
<g>
</g>
<g>
</g>
<g>
</g>
<g>
</g>
<g>
</g>
<g>
</g>
<g>
</g>
<g>
</g>
<g>
</g>
<g>
</g>
</svg>
