<?xml version="1.0" encoding="iso-8859-1"?>
<!-- Generator: Adobe Illustrator 19.0.0, SVG Export Plug-In . SVG Version: 6.00 Build 0)  -->
<svg version="1.1" id="Capa_1" xmlns="http://www.w3.org/2000/svg" xmlns:xlink="http://www.w3.org/1999/xlink" x="0px" y="0px"
	 viewBox="0 0 58 58" style="enable-background:new 0 0 58 58;" xml:space="preserve">
<g>
	<g>
		<path d="M43.5,29C51.495,29,58,22.495,58,14.5S51.495,0,43.5,0S29,6.505,29,14.5S35.505,29,43.5,29z M40,4.613v3.419
			c-1.221,0.826-2,2.074-2,3.469c0,2.481,2.467,4.5,5.5,4.5s5.5-2.019,5.5-4.5c0-1.394-0.779-2.643-2-3.469V4.613
			c4.071,1.446,7,5.326,7,9.887C54,20.29,49.29,25,43.5,25S33,20.29,33,14.5C33,9.939,35.929,6.059,40,4.613z"/>
		<path d="M29,14.5C29,6.505,22.495,0,14.5,0S0,6.505,0,14.5S6.505,29,14.5,29S29,22.495,29,14.5z M14.5,25C8.71,25,4,20.29,4,14.5
			c0-4.561,2.929-8.441,7-9.887v3.419C9.779,8.857,9,10.106,9,11.5c0,2.481,2.467,4.5,5.5,4.5s5.5-2.019,5.5-4.5
			c0-1.394-0.779-2.643-2-3.469V4.613c4.071,1.446,7,5.326,7,9.887C25,20.29,20.29,25,14.5,25z"/>
		<path d="M43.5,29C35.505,29,29,35.505,29,43.5S35.505,58,43.5,58S58,51.495,58,43.5S51.495,29,43.5,29z M43.5,54
			C37.71,54,33,49.29,33,43.5c0-4.561,2.929-8.441,7-9.887v3.419c-1.221,0.826-2,2.074-2,3.469c0,2.481,2.467,4.5,5.5,4.5
			s5.5-2.019,5.5-4.5c0-1.394-0.779-2.643-2-3.469v-3.419c4.071,1.446,7,5.326,7,9.887C54,49.29,49.29,54,43.5,54z"/>
		<path d="M14.5,29C6.505,29,0,35.505,0,43.5S6.505,58,14.5,58S29,51.495,29,43.5S22.495,29,14.5,29z M14.5,54
			C8.71,54,4,49.29,4,43.5c0-4.561,2.929-8.441,7-9.887v3.419c-1.221,0.826-2,2.074-2,3.469c0,2.481,2.467,4.5,5.5,4.5
			s5.5-2.019,5.5-4.5c0-1.394-0.779-2.643-2-3.469v-3.419c4.071,1.446,7,5.326,7,9.887C25,49.29,20.29,54,14.5,54z"/>
	</g>
</g>
<g>
</g>
<g>
</g>
<g>
</g>
<g>
</g>
<g>
</g>
<g>
</g>
<g>
</g>
<g>
</g>
<g>
</g>
<g>
</g>
<g>
</g>
<g>
</g>
<g>
</g>
<g>
</g>
<g>
</g>
</svg>
