<?xml version="1.0" encoding="iso-8859-1"?>
<!-- Generator: Adobe Illustrator 19.0.0, SVG Export Plug-In . SVG Version: 6.00 Build 0)  -->
<svg version="1.1" id="Capa_1" xmlns="http://www.w3.org/2000/svg" xmlns:xlink="http://www.w3.org/1999/xlink" x="0px" y="0px"
	 viewBox="0 0 57.6 57.6" style="enable-background:new 0 0 57.6 57.6;" xml:space="preserve">
<g>
	<path d="M57.329,4.816c-0.36-0.626-1.007-0.999-1.729-0.999H1.999c-0.724,0-1.372,0.375-1.732,1.004
		c-0.36,0.628-0.356,1.377,0.01,2.003l14.101,23.993H8.682c-0.926,0-1.68,0.754-1.68,1.68v2.641c0,0.926,0.754,1.68,1.68,1.68h9.223
		l9.391,15.979c0.362,0.617,1.006,0.986,1.722,0.986c0.721,0,1.367-0.372,1.728-0.996l9.234-15.97h9.342
		c0.926,0,1.68-0.754,1.68-1.68v-2.641c0-0.926-0.754-1.68-1.68-1.68h-5.873L57.328,6.813C57.69,6.188,57.69,5.442,57.329,4.816z
		 M29.019,47.802l-6.532-10.985h12.811L29.019,47.802z M38.728,30.817H18.919l-13.676-23h46.632L38.728,30.817z"/>
</g>
<g>
</g>
<g>
</g>
<g>
</g>
<g>
</g>
<g>
</g>
<g>
</g>
<g>
</g>
<g>
</g>
<g>
</g>
<g>
</g>
<g>
</g>
<g>
</g>
<g>
</g>
<g>
</g>
<g>
</g>
</svg>
