<?xml version="1.0" encoding="iso-8859-1"?>
<!-- Generator: Adobe Illustrator 19.0.0, SVG Export Plug-In . SVG Version: 6.00 Build 0)  -->
<svg version="1.1" id="Capa_1" xmlns="http://www.w3.org/2000/svg" xmlns:xlink="http://www.w3.org/1999/xlink" x="0px" y="0px"
	 viewBox="0 0 60 60" style="enable-background:new 0 0 60 60;" xml:space="preserve">
<g>
	<path d="M60,1c0-0.013-0.007-0.023-0.007-0.036c-0.004-0.117-0.022-0.234-0.069-0.347c0-0.001-0.001-0.002-0.002-0.003
		c-0.004-0.009-0.011-0.016-0.015-0.025c-0.045-0.1-0.106-0.187-0.179-0.265c-0.024-0.026-0.05-0.046-0.076-0.069
		c-0.064-0.056-0.132-0.102-0.208-0.14C59.413,0.1,59.383,0.083,59.349,0.07C59.239,0.029,59.123,0,59,0H1
		C0.877,0,0.761,0.029,0.651,0.07C0.617,0.083,0.587,0.1,0.556,0.116C0.48,0.154,0.411,0.2,0.347,0.256
		C0.321,0.279,0.295,0.299,0.271,0.325C0.199,0.403,0.137,0.491,0.092,0.591C0.088,0.599,0.081,0.606,0.078,0.614
		c0,0.001-0.001,0.002-0.002,0.003C0.029,0.73,0.012,0.847,0.007,0.964C0.007,0.977,0,0.987,0,1v58c0,0.013,0.007,0.023,0.007,0.036
		c0.004,0.117,0.022,0.234,0.069,0.347c0,0.001,0.001,0.002,0.002,0.003c0.004,0.009,0.01,0.015,0.014,0.024
		c0.045,0.1,0.107,0.188,0.179,0.266c0.024,0.026,0.05,0.046,0.076,0.069c0.064,0.056,0.133,0.102,0.208,0.14
		c0.032,0.016,0.061,0.032,0.095,0.045C0.761,59.971,0.877,60,1,60h58c0.123,0,0.239-0.029,0.349-0.07
		c0.034-0.013,0.063-0.029,0.095-0.045c0.076-0.038,0.144-0.084,0.208-0.14c0.026-0.023,0.052-0.043,0.076-0.069
		c0.072-0.078,0.133-0.165,0.179-0.265c0.004-0.009,0.011-0.016,0.015-0.025c0-0.001,0.001-0.002,0.002-0.003
		c0.047-0.112,0.065-0.23,0.069-0.347C59.993,59.023,60,59.013,60,59V1z M49.343,55H10.657c-0.553,0-1-0.448-1-1s0.447-1,1-1h38.686
		c0.553,0,1,0.448,1,1S49.896,55,49.343,55z M10.657,5h38.686c0.553,0,1,0.448,1,1s-0.447,1-1,1H10.657c-0.553,0-1-0.448-1-1
		S10.104,5,10.657,5z M23,19c-0.553,0-1-0.448-1-1s0.447-1,1-1h14c0.553,0,1,0.448,1,1s-0.447,1-1,1H23z M33,24c0,0.552-0.447,1-1,1
		h-4c-0.553,0-1-0.448-1-1s0.447-1,1-1h4C32.553,23,33,23.448,33,24z M17,13c-0.553,0-1-0.448-1-1s0.447-1,1-1h26
		c0.553,0,1,0.448,1,1s-0.447,1-1,1H17z M28.586,30L2,56.586V3.414L28.586,30z M37,43H23c-0.553,0-1-0.448-1-1s0.447-1,1-1h14
		c0.553,0,1,0.448,1,1S37.553,43,37,43z M43,47c0.553,0,1,0.448,1,1s-0.447,1-1,1H17c-0.553,0-1-0.448-1-1s0.447-1,1-1H43z M32,37
		h-4c-0.553,0-1-0.448-1-1s0.447-1,1-1h4c0.553,0,1,0.448,1,1S32.553,37,32,37z M31.414,30L58,3.414v53.172L31.414,30z"/>
</g>
<g>
</g>
<g>
</g>
<g>
</g>
<g>
</g>
<g>
</g>
<g>
</g>
<g>
</g>
<g>
</g>
<g>
</g>
<g>
</g>
<g>
</g>
<g>
</g>
<g>
</g>
<g>
</g>
<g>
</g>
</svg>
