<?xml version="1.0" encoding="iso-8859-1"?>
<!-- Generator: Adobe Illustrator 19.0.0, SVG Export Plug-In . SVG Version: 6.00 Build 0)  -->
<svg version="1.1" id="Capa_1" xmlns="http://www.w3.org/2000/svg" xmlns:xlink="http://www.w3.org/1999/xlink" x="0px" y="0px"
	 viewBox="0 0 60 60" style="enable-background:new 0 0 60 60;" xml:space="preserve">
<g>
	<g>
		<path d="M30.001,23c-3.86,0-7,3.14-7,7s3.14,7,7,7s7-3.14,7-7S33.861,23,30.001,23z"/>
		<path d="M54.001,24c-1.717,0-3.311,0.723-4.451,2h-8.249c-0.141-0.397-0.302-0.784-0.483-1.16l5.835-5.835
			c0.112,0.006,0.223,0.009,0.334,0.009c1.603,0,3.104-0.619,4.227-1.742c1.133-1.133,1.757-2.64,1.757-4.243
			s-0.624-3.109-1.757-4.242s-2.64-1.757-4.242-1.757s-3.109,0.624-4.243,1.757c-1.214,1.214-1.831,2.852-1.733,4.562l-5.834,5.834
			c-0.377-0.18-0.763-0.342-1.16-0.483v-8.249c1.277-1.14,2-2.734,2-4.451c0-3.309-2.691-6-6-6s-6,2.691-6,6
			c0,1.717,0.723,3.311,2,4.451V18.7c-0.397,0.141-0.784,0.302-1.16,0.483l-5.834-5.834c0.097-1.71-0.519-3.348-1.733-4.562
			c-1.133-1.133-2.64-1.757-4.243-1.757c-1.603,0-3.111,0.624-4.244,1.757c-1.133,1.133-1.757,2.64-1.757,4.242
			s0.624,3.109,1.757,4.243c1.201,1.202,2.841,1.827,4.561,1.733l5.835,5.835c-0.18,0.377-0.342,0.763-0.483,1.16h-8.249
			c-1.14-1.277-2.734-2-4.451-2c-3.309,0-6,2.691-6,6c0,3.309,2.691,6,6,6c1.717,0,3.311-0.723,4.451-2h8.249
			c0.141,0.397,0.302,0.784,0.483,1.16l-5.835,5.835c-1.72-0.091-3.36,0.531-4.561,1.733c-1.133,1.133-1.757,2.64-1.757,4.243
			s0.624,3.109,1.757,4.242s2.64,1.757,4.242,1.757c1.602,0,3.109-0.624,4.243-1.757c1.214-1.214,1.831-2.852,1.733-4.562
			l5.834-5.834c0.377,0.18,0.763,0.342,1.16,0.483v8.249c-1.277,1.14-2,2.734-2,4.451c0,3.309,2.691,6,6,6s6-2.691,6-6
			c0-1.717-0.723-3.311-2-4.451V41.3c0.397-0.141,0.784-0.302,1.16-0.483l5.834,5.834c-0.097,1.71,0.519,3.348,1.733,4.562
			c1.133,1.133,2.64,1.757,4.243,1.757s3.109-0.624,4.242-1.757s1.757-2.64,1.757-4.242s-0.624-3.109-1.757-4.243
			c-1.2-1.202-2.839-1.824-4.561-1.733l-5.835-5.835c0.18-0.377,0.342-0.763,0.483-1.16h8.249c1.14,1.277,2.734,2,4.451,2
			c3.309,0,6-2.691,6-6S57.31,24,54.001,24z M39.909,31.282c-0.008,0.063-0.019,0.125-0.029,0.188
			c-0.064,0.419-0.149,0.839-0.268,1.256c0,0.001,0,0.002,0,0.003c-0.213,0.749-0.507,1.464-0.88,2.131
			c-0.002,0.003-0.005,0.005-0.007,0.008c-0.203,0.364-0.432,0.705-0.672,1.036c-0.061,0.083-0.122,0.166-0.185,0.247
			c-0.211,0.272-0.436,0.529-0.671,0.774c-0.088,0.092-0.178,0.182-0.27,0.27c-0.245,0.236-0.503,0.461-0.776,0.672
			c-0.081,0.063-0.164,0.124-0.247,0.185c-0.33,0.24-0.672,0.469-1.036,0.672c-0.003,0.002-0.005,0.005-0.008,0.007
			c-0.667,0.373-1.382,0.667-2.131,0.88c-0.001,0-0.002,0-0.003,0c-0.419,0.119-0.839,0.204-1.259,0.268
			c-0.059,0.009-0.118,0.019-0.178,0.027c-0.859,0.115-1.72,0.115-2.58,0c-0.06-0.008-0.118-0.018-0.178-0.027
			c-0.42-0.064-0.84-0.149-1.259-0.268c-0.001,0-0.002,0-0.003,0c-0.749-0.213-1.464-0.507-2.131-0.88
			c-0.003-0.002-0.005-0.005-0.008-0.007c-0.364-0.203-0.705-0.432-1.036-0.672c-0.083-0.061-0.166-0.122-0.247-0.185
			c-0.272-0.211-0.529-0.436-0.774-0.671c-0.092-0.088-0.182-0.178-0.27-0.27c-0.236-0.245-0.461-0.503-0.672-0.776
			c-0.063-0.081-0.124-0.164-0.185-0.247c-0.24-0.33-0.469-0.672-0.672-1.036c-0.002-0.003-0.005-0.005-0.007-0.008
			c-0.373-0.667-0.667-1.382-0.88-2.131c0-0.001,0-0.002,0-0.003c-0.119-0.417-0.203-0.837-0.268-1.256
			c-0.009-0.063-0.021-0.125-0.029-0.188c-0.055-0.427-0.089-0.856-0.089-1.281s0.034-0.854,0.092-1.282
			c0.008-0.063,0.019-0.125,0.029-0.188c0.064-0.419,0.149-0.839,0.268-1.256c0-0.001,0-0.002,0-0.003
			c0.213-0.749,0.507-1.464,0.88-2.131c0.002-0.003,0.005-0.005,0.007-0.008c0.203-0.364,0.432-0.705,0.672-1.036
			c0.061-0.083,0.122-0.166,0.185-0.247c0.211-0.272,0.436-0.529,0.671-0.774c0.088-0.092,0.178-0.182,0.27-0.27
			c0.245-0.236,0.503-0.461,0.776-0.672c0.081-0.063,0.164-0.124,0.247-0.185c0.33-0.24,0.672-0.469,1.036-0.672
			c0.003-0.002,0.005-0.005,0.008-0.007c0.667-0.373,1.382-0.667,2.131-0.88c0.001,0,0.002,0,0.003,0
			c0.419-0.119,0.839-0.204,1.259-0.268c0.059-0.009,0.118-0.019,0.178-0.027c0.859-0.115,1.72-0.115,2.58,0
			c0.06,0.008,0.118,0.018,0.178,0.027c0.42,0.064,0.84,0.149,1.259,0.268c0.002,0.001,0.004,0,0.006,0.001
			c0.748,0.213,1.462,0.507,2.128,0.879c0.003,0.002,0.005,0.005,0.008,0.007c0.364,0.203,0.705,0.432,1.036,0.672
			c0.083,0.061,0.166,0.122,0.247,0.185c0.272,0.211,0.529,0.436,0.774,0.671c0.092,0.088,0.182,0.178,0.27,0.27
			c0.236,0.245,0.461,0.503,0.672,0.776c0.063,0.081,0.124,0.164,0.185,0.247c0.24,0.33,0.469,0.672,0.672,1.036
			c0.002,0.003,0.005,0.005,0.007,0.008c0.373,0.667,0.667,1.382,0.88,2.131c0,0.001,0,0.002,0,0.003
			c0.119,0.417,0.203,0.837,0.268,1.256c0.009,0.063,0.021,0.125,0.029,0.188c0.055,0.427,0.089,0.856,0.089,1.281
			S39.967,30.854,39.909,31.282z"/>
	</g>
</g>
<g>
</g>
<g>
</g>
<g>
</g>
<g>
</g>
<g>
</g>
<g>
</g>
<g>
</g>
<g>
</g>
<g>
</g>
<g>
</g>
<g>
</g>
<g>
</g>
<g>
</g>
<g>
</g>
<g>
</g>
</svg>
