<?xml version="1.0" encoding="iso-8859-1"?>
<!-- Generator: Adobe Illustrator 19.0.0, SVG Export Plug-In . SVG Version: 6.00 Build 0)  -->
<svg version="1.1" id="Capa_1" xmlns="http://www.w3.org/2000/svg" xmlns:xlink="http://www.w3.org/1999/xlink" x="0px" y="0px"
	 viewBox="0 0 53.367 53.367" style="enable-background:new 0 0 53.367 53.367;" xml:space="preserve">
<g>
	<path d="M35.228,33.704c7.477-1.701,14.03-5.503,17.301-10.391c1.016-1.517,1.114-3.456,0.258-5.059
		c-0.86-1.61-2.466-2.571-4.295-2.571c-1.13,0-2.202,0.363-3.055,0.991c-0.314-0.292-0.634-0.576-0.96-0.852l2.306-3.599
		c0.893-1.393,0.485-3.252-0.908-4.145c-0.484-0.31-1.043-0.474-1.616-0.474c-1.028,0-1.974,0.517-2.527,1.382l-2.235,3.489
		c-0.284-0.148-0.569-0.294-0.858-0.431l0.81-5.046c0.262-1.633-0.854-3.175-2.486-3.437c-1.656-0.268-3.179,0.867-3.438,2.486
		l-0.648,4.036c-0.723-0.158-1.454-0.287-2.193-0.385V4.683c0-1.654-1.346-3-3-3s-3,1.346-3,3v4.88
		c-0.714,0.062-1.422,0.155-2.123,0.272l-0.652-4.062c-0.259-1.618-1.77-2.757-3.438-2.487c-0.792,0.127-1.486,0.555-1.956,1.204
		s-0.658,1.443-0.53,2.234l0.765,4.768c-0.736,0.304-1.457,0.643-2.164,1.013l-2.337-3.649c-0.555-0.865-1.5-1.381-2.528-1.381
		c-0.573,0-1.132,0.164-1.616,0.474C6.71,8.841,6.303,10.7,7.196,12.093l2.417,3.773c-0.281,0.239-0.558,0.483-0.831,0.734
		c-0.808-0.582-1.812-0.917-2.88-0.917H5.737c-1.76,0-3.398,0.956-4.275,2.494c-0.862,1.513-0.854,3.3,0.021,4.78
		c2.975,5.03,9.29,8.945,16.655,10.705c-7.477,1.701-14.031,5.503-17.301,10.391c-1.016,1.517-1.114,3.456-0.258,5.059
		c0.86,1.61,2.466,2.571,4.295,2.571c1.75,0,3.37-0.861,4.23-2.248c0.808-1.303,2.623-2.666,4.999-3.827
		c3.455,1.335,7.891,2.074,12.579,2.074c4.579,0,8.942-0.712,12.369-1.999c2.032,1.101,3.541,2.382,4.232,3.632
		c0.808,1.46,2.41,2.367,4.181,2.367h0.165c1.76,0,3.398-0.956,4.275-2.493c0.863-1.513,0.855-3.3-0.021-4.781
		C48.908,39.378,42.593,35.464,35.228,33.704z M26.449,11.483c0.312-0.008,0.624-0.018,0.936-0.014
		c0.475,0.006,0.946,0.033,1.416,0.065c0.248,0.017,0.499,0.021,0.745,0.046c5.402,0.528,10.439,2.776,14.459,6.484
		c-2.262,2.09-4.833,3.702-7.65,4.823c0.002-0.068,0.015-0.137,0.015-0.204c0-4.411-4.037-8-9-8s-9,3.589-9,8
		c0,0.143,0.026,0.287,0.035,0.431c-3.032-1.121-5.846-2.813-8.27-5.05C14.61,13.936,20.353,11.632,26.449,11.483z M36.36,44.467
		c-2.843,0.791-6.188,1.216-9.677,1.216c-3.547,0-6.933-0.436-9.796-1.245h0.001c0.251-0.09,0.507-0.171,0.762-0.255
		c0.169-0.055,0.335-0.113,0.506-0.166c0.201-0.062,0.404-0.117,0.607-0.175c0.227-0.065,0.452-0.13,0.682-0.19
		c0.195-0.051,0.391-0.096,0.587-0.143c0.238-0.057,0.477-0.114,0.718-0.166c0.203-0.044,0.406-0.083,0.609-0.122
		c0.237-0.046,0.476-0.09,0.716-0.131c0.207-0.035,0.413-0.068,0.619-0.098c0.245-0.036,0.491-0.068,0.737-0.099
		c0.198-0.024,0.397-0.048,0.595-0.068c0.276-0.028,0.553-0.049,0.83-0.068c0.167-0.012,0.334-0.027,0.499-0.035
		c0.443-0.023,0.886-0.038,1.328-0.038s0.882,0.014,1.319,0.036c0.229,0.012,0.458,0.031,0.688,0.049
		c0.194,0.015,0.388,0.028,0.581,0.047c0.306,0.03,0.612,0.067,0.917,0.107c0.101,0.013,0.203,0.026,0.304,0.04
		c0.36,0.052,0.72,0.109,1.078,0.175c0.031,0.006,0.062,0.011,0.093,0.017C33.284,43.456,34.872,43.899,36.36,44.467z"/>
</g>
<g>
</g>
<g>
</g>
<g>
</g>
<g>
</g>
<g>
</g>
<g>
</g>
<g>
</g>
<g>
</g>
<g>
</g>
<g>
</g>
<g>
</g>
<g>
</g>
<g>
</g>
<g>
</g>
<g>
</g>
</svg>
