<?xml version="1.0" encoding="iso-8859-1"?>
<!-- Generator: Adobe Illustrator 19.0.0, SVG Export Plug-In . SVG Version: 6.00 Build 0)  -->
<svg version="1.1" id="Capa_1" xmlns="http://www.w3.org/2000/svg" xmlns:xlink="http://www.w3.org/1999/xlink" x="0px" y="0px"
	 viewBox="0 0 59.032 59.032" style="enable-background:new 0 0 59.032 59.032;" xml:space="preserve">
<g>
	<path d="M55.878,30.177h-4.934v3c0,0.552-0.447,1-1,1s-1-0.448-1-1v-3h-4.428c-0.553,0-1-0.448-1-1s0.447-1,1-1h4.428v-3
		c0-0.552,0.447-1,1-1s1,0.448,1,1v3h4.934c0.355-0.395,0.748-0.848,1.158-1.351c1.951-2.394,2.444-5.563,1.32-8.48
		c-1.121-2.906-3.604-4.917-6.639-5.377l-0.186-0.027c-2.361-0.327-4.771,0.168-6.891,1.333c1.159-2.113,1.64-4.502,1.313-6.865
		l-0.026-0.178C45.291,3.042,41.708,0,37.408,0c-1.961,0-3.807,0.66-5.338,1.908c-0.432,0.352-0.801,0.709-1.126,1.056v5.213h3
		c0.553,0,1,0.448,1,1s-0.447,1-1,1h-3v4.428c0,0.552-0.447,1-1,1s-1-0.448-1-1v-4.428h-3c-0.553,0-1-0.448-1-1s0.447-1,1-1h3V3.26
		c-0.479-0.429-1.012-0.892-1.576-1.352C25.836,0.66,23.991,0,22.03,0c-4.301,0-7.884,3.042-8.519,7.226l-0.027,0.187
		c-0.345,2.487,0.192,5.01,1.491,7.204c-2.251-1.412-4.888-2.032-7.477-1.674L7.32,12.969c-3.04,0.461-5.523,2.472-6.645,5.378
		c-1.124,2.917-0.631,6.086,1.32,8.48c0.41,0.503,0.803,0.956,1.158,1.351h4.79v-3c0-0.552,0.447-1,1-1s1,0.448,1,1v3h4.572
		c0.553,0,1,0.448,1,1s-0.447,1-1,1H9.944v3c0,0.552-0.447,1-1,1s-1-0.448-1-1v-3h-4.79c-0.355,0.395-0.748,0.848-1.158,1.351
		c-1.951,2.394-2.444,5.563-1.32,8.48c1.121,2.906,3.604,4.917,6.639,5.377l0.184,0.026c0.481,0.066,0.974,0.1,1.461,0.1
		c0.001,0,0,0,0.001,0c2.295,0,4.532-0.731,6.458-2.066c-1.758,2.401-2.536,5.311-2.139,8.178l0.026,0.176
		c0.626,4.123,4.429,7.232,8.847,7.232c0,0,0,0,0.001,0c2.026,0,3.906-0.66,5.438-1.908c0.502-0.409,0.955-0.825,1.352-1.217v-4.732
		h-3c-0.553,0-1-0.448-1-1s0.447-1,1-1h3v-4.572c0-0.552,0.447-1,1-1s1,0.448,1,1v4.572h3c0.553,0,1,0.448,1,1s-0.447,1-1,1h-3
		v4.732c0.397,0.392,0.85,0.807,1.352,1.217c1.531,1.249,3.342,1.908,5.236,1.908c4.11,0,7.557-3.042,8.191-7.226l0.027-0.187
		c0.397-2.864-0.381-5.773-2.138-8.174c1.926,1.334,4.162,2.065,6.458,2.065c0.001,0,0.001,0,0.001,0
		c0.488,0,0.979-0.034,1.463-0.101l0.178-0.026c3.04-0.461,5.523-2.472,6.645-5.378c1.124-2.917,0.631-6.086-1.32-8.48
		C56.625,31.025,56.233,30.571,55.878,30.177z"/>
</g>
<g>
</g>
<g>
</g>
<g>
</g>
<g>
</g>
<g>
</g>
<g>
</g>
<g>
</g>
<g>
</g>
<g>
</g>
<g>
</g>
<g>
</g>
<g>
</g>
<g>
</g>
<g>
</g>
<g>
</g>
</svg>
