<?xml version="1.0" encoding="iso-8859-1"?>
<!-- Generator: Adobe Illustrator 19.0.0, SVG Export Plug-In . SVG Version: 6.00 Build 0)  -->
<svg version="1.1" id="Capa_1" xmlns="http://www.w3.org/2000/svg" xmlns:xlink="http://www.w3.org/1999/xlink" x="0px" y="0px"
	 viewBox="0 0 57.244 57.244" style="enable-background:new 0 0 57.244 57.244;" xml:space="preserve">
<g>
	<path d="M49.37,41.499c-0.808,0-1.599,0.121-2.361,0.36L33.771,28.622l13.238-13.237c0.763,0.239,1.554,0.36,2.361,0.36
		c2.103,0,4.079-0.819,5.565-2.305c1.487-1.487,2.307-3.464,2.307-5.567c0-2.104-0.819-4.081-2.307-5.567
		C53.448,0.819,51.471,0,49.368,0s-4.08,0.819-5.566,2.306c-2.093,2.092-2.823,5.14-1.945,7.927L28.619,23.47L15.382,10.232
		c0.878-2.785,0.148-5.833-1.944-7.926C11.95,0.819,9.973,0,7.87,0S3.79,0.819,2.303,2.306c-3.069,3.07-3.069,8.064,0,11.135
		c1.487,1.486,3.464,2.305,5.565,2.305c0.808,0,1.6-0.121,2.361-0.36l13.237,13.237L10.229,41.859
		c-0.762-0.239-1.554-0.36-2.361-0.36c-2.102,0-4.078,0.819-5.565,2.305c-3.069,3.07-3.069,8.064,0,11.134
		c1.487,1.487,3.465,2.306,5.567,2.306s4.08-0.819,5.567-2.306c2.093-2.092,2.821-5.14,1.944-7.927l13.238-13.236l13.237,13.237
		c-0.878,2.786-0.148,5.834,1.944,7.926c1.487,1.487,3.465,2.306,5.567,2.306s4.08-0.819,5.567-2.306s2.307-3.464,2.307-5.567
		c0-2.104-0.819-4.081-2.307-5.567C53.449,42.318,51.473,41.499,49.37,41.499z"/>
</g>
<g>
</g>
<g>
</g>
<g>
</g>
<g>
</g>
<g>
</g>
<g>
</g>
<g>
</g>
<g>
</g>
<g>
</g>
<g>
</g>
<g>
</g>
<g>
</g>
<g>
</g>
<g>
</g>
<g>
</g>
</svg>
