<?xml version="1.0" encoding="iso-8859-1"?>
<!-- Generator: Adobe Illustrator 19.0.0, SVG Export Plug-In . SVG Version: 6.00 Build 0)  -->
<svg version="1.1" id="Capa_1" xmlns="http://www.w3.org/2000/svg" xmlns:xlink="http://www.w3.org/1999/xlink" x="0px" y="0px"
	 viewBox="0 0 54 54" style="enable-background:new 0 0 54 54;" xml:space="preserve">
<g>
	<g>
		<path d="M27,0C14.042,0,3.5,12.112,3.5,27S14.042,54,27,54s23.5-12.112,23.5-27S39.958,0,27,0z M27,52
			C15.145,52,5.5,40.785,5.5,27S15.145,2,27,2s21.5,11.215,21.5,25S38.855,52,27,52z"/>
		<path d="M27,4C16.248,4,7.5,14.317,7.5,27S16.248,50,27,50s19.5-10.317,19.5-23S37.752,4,27,4z M27,37c-3.068,0-6.5-4.276-6.5-10
			s3.432-10,6.5-10s6.5,4.276,6.5,10S30.068,37,27,37z"/>
	</g>
</g>
<g>
</g>
<g>
</g>
<g>
</g>
<g>
</g>
<g>
</g>
<g>
</g>
<g>
</g>
<g>
</g>
<g>
</g>
<g>
</g>
<g>
</g>
<g>
</g>
<g>
</g>
<g>
</g>
<g>
</g>
</svg>
