<?xml version="1.0" encoding="iso-8859-1"?>
<!-- Generator: Adobe Illustrator 19.0.0, SVG Export Plug-In . SVG Version: 6.00 Build 0)  -->
<svg version="1.1" id="Capa_1" xmlns="http://www.w3.org/2000/svg" xmlns:xlink="http://www.w3.org/1999/xlink" x="0px" y="0px"
	 viewBox="0 0 60 60" style="enable-background:new 0 0 60 60;" xml:space="preserve">
<g>
	<g>
		<path d="M53.043,6.957c-5.676,1.884-10.202,6.41-12.086,12.086C46.633,17.159,51.159,12.633,53.043,6.957z"/>
		<path d="M59,0H1H0v1v58v1h1h58h1v-1V1V0H59z M55.822,4.178L55.46,5.739c-1.795,7.755-7.966,13.926-15.721,15.721l-1.562,0.362
			l0.362-1.562c1.795-7.755,7.966-13.926,15.721-15.721L55.822,4.178z M34.039,36.374c0.006,0.107,0.017,0.214,0.025,0.321
			c0.024,0.355,0.053,0.709,0.091,1.06c0.012,0.111,0.028,0.221,0.042,0.332c0.044,0.352,0.093,0.703,0.151,1.05
			c0.017,0.102,0.036,0.203,0.055,0.304c0.065,0.359,0.136,0.715,0.216,1.068c0.021,0.092,0.042,0.184,0.064,0.276
			c0.087,0.367,0.183,0.73,0.286,1.09c0.023,0.079,0.044,0.158,0.067,0.236c0.115,0.387,0.239,0.769,0.372,1.147
			c0.018,0.052,0.034,0.104,0.053,0.156c0.308,0.858,0.659,1.695,1.056,2.507c0.013,0.026,0.023,0.052,0.036,0.078H23.448
			c0.013-0.026,0.023-0.052,0.036-0.078c0.396-0.812,0.748-1.649,1.056-2.507c0.018-0.052,0.035-0.104,0.053-0.156
			c0.133-0.379,0.257-0.761,0.372-1.147c0.023-0.078,0.045-0.157,0.067-0.236c0.103-0.36,0.199-0.723,0.286-1.09
			c0.022-0.092,0.043-0.184,0.064-0.276c0.08-0.353,0.152-0.71,0.216-1.068c0.018-0.101,0.037-0.203,0.055-0.304
			c0.058-0.348,0.108-0.698,0.151-1.05c0.014-0.111,0.03-0.221,0.042-0.332c0.039-0.351,0.067-0.705,0.091-1.06
			c0.007-0.107,0.019-0.214,0.025-0.321C25.985,35.919,26,35.461,26,35v-1h-1c-0.461,0-0.919,0.015-1.374,0.039
			c-0.107,0.006-0.214,0.017-0.321,0.025c-0.355,0.024-0.709,0.053-1.06,0.091c-0.111,0.012-0.221,0.028-0.332,0.042
			c-0.352,0.044-0.703,0.093-1.05,0.151c-0.102,0.017-0.203,0.036-0.304,0.055c-0.359,0.065-0.715,0.136-1.068,0.216
			c-0.092,0.021-0.184,0.042-0.276,0.064c-0.367,0.087-0.73,0.183-1.09,0.286c-0.079,0.023-0.158,0.044-0.236,0.067
			c-0.387,0.115-0.769,0.239-1.147,0.372c-0.052,0.018-0.104,0.034-0.156,0.053c-0.858,0.308-1.695,0.659-2.507,1.056
			c-0.026,0.013-0.052,0.023-0.078,0.036V23.448c0.026,0.013,0.052,0.023,0.078,0.036c0.812,0.396,1.649,0.748,2.507,1.056
			c0.052,0.018,0.104,0.035,0.156,0.053c0.379,0.133,0.761,0.257,1.147,0.372c0.078,0.023,0.157,0.045,0.236,0.067
			c0.36,0.103,0.723,0.199,1.09,0.286c0.092,0.022,0.184,0.043,0.276,0.064c0.353,0.08,0.71,0.152,1.068,0.216
			c0.101,0.018,0.203,0.037,0.304,0.055c0.348,0.058,0.698,0.108,1.05,0.151c0.111,0.014,0.221,0.03,0.332,0.042
			c0.351,0.039,0.705,0.067,1.06,0.091c0.107,0.007,0.214,0.019,0.321,0.025C24.081,25.985,24.539,26,25,26h1v-1
			c0-0.461-0.015-0.919-0.039-1.374c-0.006-0.107-0.017-0.214-0.025-0.321c-0.024-0.355-0.053-0.709-0.091-1.06
			c-0.012-0.111-0.028-0.221-0.042-0.332c-0.044-0.352-0.093-0.703-0.151-1.05c-0.017-0.102-0.036-0.203-0.055-0.304
			c-0.065-0.359-0.136-0.715-0.216-1.068c-0.021-0.092-0.042-0.184-0.064-0.276c-0.087-0.367-0.183-0.73-0.286-1.09
			c-0.023-0.079-0.044-0.158-0.067-0.236c-0.115-0.387-0.239-0.769-0.372-1.147c-0.018-0.052-0.034-0.104-0.053-0.156
			c-0.308-0.858-0.659-1.695-1.056-2.507c-0.013-0.026-0.023-0.052-0.036-0.078h13.104c-0.013,0.026-0.023,0.052-0.036,0.078
			c-0.396,0.812-0.748,1.649-1.056,2.507c-0.018,0.052-0.035,0.104-0.053,0.156c-0.133,0.379-0.257,0.761-0.372,1.147
			c-0.023,0.078-0.045,0.157-0.067,0.236c-0.103,0.36-0.199,0.723-0.286,1.09c-0.022,0.092-0.043,0.184-0.064,0.276
			c-0.08,0.353-0.152,0.71-0.216,1.068c-0.018,0.101-0.037,0.203-0.055,0.304c-0.058,0.348-0.108,0.698-0.151,1.05
			c-0.014,0.111-0.03,0.221-0.042,0.332c-0.039,0.351-0.067,0.705-0.091,1.06c-0.007,0.107-0.019,0.214-0.025,0.321
			C34.015,24.081,34,24.539,34,25v1h1c0.461,0,0.919-0.015,1.374-0.039c0.107-0.006,0.214-0.017,0.321-0.025
			c0.355-0.024,0.709-0.053,1.06-0.091c0.111-0.012,0.221-0.028,0.332-0.042c0.352-0.044,0.703-0.093,1.05-0.151
			c0.102-0.017,0.203-0.036,0.304-0.055c0.359-0.065,0.715-0.136,1.068-0.216c0.092-0.021,0.184-0.042,0.276-0.064
			c0.367-0.087,0.73-0.183,1.09-0.286c0.079-0.023,0.158-0.044,0.236-0.067c0.387-0.115,0.769-0.239,1.147-0.372
			c0.052-0.018,0.104-0.034,0.156-0.053c0.858-0.308,1.695-0.659,2.507-1.056c0.026-0.013,0.052-0.023,0.078-0.036v13.104
			c-0.026-0.013-0.052-0.023-0.078-0.036c-0.812-0.396-1.649-0.748-2.507-1.056c-0.052-0.018-0.104-0.035-0.156-0.053
			c-0.379-0.133-0.761-0.257-1.147-0.372c-0.078-0.023-0.157-0.045-0.236-0.067c-0.36-0.103-0.723-0.199-1.09-0.286
			c-0.092-0.022-0.184-0.043-0.276-0.064c-0.353-0.08-0.71-0.152-1.068-0.216c-0.101-0.018-0.203-0.037-0.304-0.055
			c-0.348-0.058-0.698-0.108-1.05-0.151c-0.111-0.014-0.221-0.03-0.332-0.042c-0.351-0.039-0.705-0.067-1.06-0.091
			c-0.107-0.007-0.214-0.019-0.321-0.025C35.919,34.015,35.461,34,35,34h-1v1C34,35.461,34.015,35.919,34.039,36.374z M49.207,2
			c-4.81,2.056-8.849,5.577-11.553,10H22.346c-2.704-4.423-6.743-7.944-11.553-10H49.207z M5.739,4.54
			c7.755,1.795,13.926,7.966,15.721,15.721l0.362,1.562l-1.562-0.362C12.506,19.665,6.335,13.494,4.54,5.739L4.178,4.178L5.739,4.54
			z M2,10.793c2.056,4.81,5.577,8.849,10,11.553v15.308c-4.423,2.704-7.944,6.743-10,11.553V10.793z M4.178,55.822L4.54,54.26
			c1.795-7.755,7.966-13.926,15.721-15.721l1.562-0.362l-0.362,1.562C19.666,47.494,13.495,53.665,5.74,55.46L4.178,55.822z
			 M10.793,58c4.81-2.056,8.849-5.577,11.553-10h15.308c2.704,4.423,6.743,7.944,11.553,10H10.793z M54.261,55.46
			c-7.755-1.795-13.926-7.966-15.721-15.721l-0.362-1.562l1.562,0.362c7.755,1.795,13.926,7.966,15.721,15.721l0.362,1.562
			L54.261,55.46z M58,49.207c-2.056-4.81-5.577-8.849-10-11.553V22.346c4.423-2.704,7.944-6.743,10-11.553V49.207z"/>
		<path d="M6.957,53.043c5.676-1.884,10.202-6.41,12.086-12.086C13.367,42.841,8.841,47.367,6.957,53.043z"/>
		<path d="M40.957,40.957c1.884,5.676,6.41,10.202,12.086,12.086C51.159,47.367,46.633,42.841,40.957,40.957z"/>
		<path d="M19.043,19.043c-1.884-5.676-6.41-10.202-12.086-12.086C8.841,12.633,13.367,17.159,19.043,19.043z"/>
	</g>
</g>
<g>
</g>
<g>
</g>
<g>
</g>
<g>
</g>
<g>
</g>
<g>
</g>
<g>
</g>
<g>
</g>
<g>
</g>
<g>
</g>
<g>
</g>
<g>
</g>
<g>
</g>
<g>
</g>
<g>
</g>
</svg>
