<?xml version="1.0" encoding="iso-8859-1"?>
<!-- Generator: Adobe Illustrator 19.0.0, SVG Export Plug-In . SVG Version: 6.00 Build 0)  -->
<svg version="1.1" id="Capa_1" xmlns="http://www.w3.org/2000/svg" xmlns:xlink="http://www.w3.org/1999/xlink" x="0px" y="0px"
	 viewBox="0 0 60 60" style="enable-background:new 0 0 60 60;" xml:space="preserve">
<g>
	<g>
		<path d="M60,7.5H0v6h0.796l14.071,32.833L14.796,46.5H0v6h60v-6h-0.796l-14.143-33H60V7.5z M40.939,13.5L40,15.692L39.061,13.5
			H40.939z M37,16.308l1.368,3.192L37,22.692L35.632,19.5L37,16.308z M34.939,13.5L34,15.692L33.061,13.5H34.939z M32.368,19.5
			L25.5,35.525l-1.368-3.192L31,16.308L32.368,19.5z M28.939,13.5L22.5,28.525L16.061,13.5H28.939z M16.5,42.525L4.061,13.5h2.736
			l11.071,25.833L16.5,42.525z M20.796,46.5h-2.593l-0.071-0.167l1.368-3.192l1.368,3.192L20.796,46.5z M19.5,35.525L10.061,13.5
			h2.736l8.071,18.833L19.5,35.525z M22.5,42.525l-1.368-3.192l1.368-3.192l1.368,3.192L22.5,42.525z M26.796,46.5h-2.593
			l-0.071-0.167l1.368-3.192l1.368,3.192L26.796,46.5z M27.132,39.333L34,23.308l1.368,3.192L28.5,42.525L27.132,39.333z
			 M30.204,46.5l-0.071-0.167L37,30.308L43.939,46.5H30.204z M47.204,46.5l-8.571-20L40,23.308L49.939,46.5H47.204z M55.939,46.5
			h-2.736l-11.571-27L43,16.308L55.939,46.5z"/>
	</g>
</g>
<g>
</g>
<g>
</g>
<g>
</g>
<g>
</g>
<g>
</g>
<g>
</g>
<g>
</g>
<g>
</g>
<g>
</g>
<g>
</g>
<g>
</g>
<g>
</g>
<g>
</g>
<g>
</g>
<g>
</g>
</svg>
