<?xml version="1.0" encoding="iso-8859-1"?>
<!-- Generator: Adobe Illustrator 19.0.0, SVG Export Plug-In . SVG Version: 6.00 Build 0)  -->
<svg version="1.1" id="Capa_1" xmlns="http://www.w3.org/2000/svg" xmlns:xlink="http://www.w3.org/1999/xlink" x="0px" y="0px"
	 viewBox="0 0 59.88 59.88" style="enable-background:new 0 0 59.88 59.88;" xml:space="preserve">
<g>
	<g>
		<path d="M59.213,28.323L41.508,14.894c-0.549-0.49-1.442-0.491-1.994-0.004l-9.574,7.113l-9.574-7.113
			c-0.551-0.487-1.444-0.486-1.994,0.004L0.77,28.233l-0.103,0.09C0.237,28.753,0,29.326,0,29.934s0.237,1.181,0.667,1.611
			l17.705,13.429c0.275,0.246,0.627,0.38,0.999,0.38c0.37,0,0.72-0.133,0.995-0.376l9.574-7.112l9.574,7.112
			c0.275,0.243,0.625,0.376,0.995,0.376c0.372,0,0.724-0.135,0.999-0.381L59.11,31.635l0.103-0.09
			c0.43-0.43,0.667-1.002,0.667-1.611S59.643,28.753,59.213,28.323z M19.374,43.224L2.053,30.098c-0.071-0.097-0.071-0.23,0-0.327
			l17.321-13.126l8.89,6.604l-1.63,1.211l-6.379-4.018c-0.501-0.409-1.279-0.405-1.778,0.009l-12.62,8.367l-0.154,0.126
			c-0.265,0.264-0.41,0.616-0.41,0.99s0.146,0.726,0.41,0.99l12.773,8.493c0.251,0.209,0.564,0.323,0.895,0.323
			c0.326,0,0.634-0.11,0.883-0.313l6.379-4.018l1.63,1.211L19.374,43.224z M29.94,35.374l-1.492-1.109h0.001l-5.831-4.331
			l7.323-5.44l1.492,1.108l0,0l5.831,4.332l-5.831,4.332l0,0L29.94,35.374z M57.827,30.098L40.506,43.224l-8.89-6.604l1.63-1.211
			l6.379,4.017c0.249,0.203,0.558,0.313,0.883,0.313c0.331,0,0.644-0.114,0.895-0.323l12.619-8.367l0.154-0.126
			c0.265-0.264,0.41-0.616,0.41-0.99s-0.146-0.726-0.41-0.99L41.403,20.45c-0.498-0.415-1.276-0.418-1.778-0.009l-6.379,4.018
			l-1.63-1.211l8.89-6.604L57.827,29.77C57.898,29.868,57.898,30,57.827,30.098z"/>
	</g>
</g>
<g>
</g>
<g>
</g>
<g>
</g>
<g>
</g>
<g>
</g>
<g>
</g>
<g>
</g>
<g>
</g>
<g>
</g>
<g>
</g>
<g>
</g>
<g>
</g>
<g>
</g>
<g>
</g>
<g>
</g>
</svg>
