<?xml version="1.0" encoding="iso-8859-1"?>
<!-- Generator: Adobe Illustrator 19.0.0, SVG Export Plug-In . SVG Version: 6.00 Build 0)  -->
<svg version="1.1" id="Capa_1" xmlns="http://www.w3.org/2000/svg" xmlns:xlink="http://www.w3.org/1999/xlink" x="0px" y="0px"
	 viewBox="0 0 60 60" style="enable-background:new 0 0 60 60;" xml:space="preserve">
<g>
	<path d="M47.77,47c-1.404,0-2.605,0.96-2.919,2.335C44.233,52.038,41.773,54,39,54c-3.283,0-5.954-2.691-5.954-6.007l-0.04-6.108
		c10.421-1.505,18.255-10.739,17.987-21.421C50.721,9.59,42.006,0.614,31.152,0.03C19.029-0.61,9,9.039,9,21
		c0,10.409,7.839,19.411,18.006,20.886L27.046,48c0,3.309-2.712,6-6.046,6c-2.773,0-5.233-1.962-5.851-4.665
		C14.836,47.96,13.635,47,12.23,47c-0.918,0-1.773,0.412-2.346,1.131c-0.576,0.725-0.788,1.659-0.58,2.564
		C10.566,56.174,15.376,60,21,60c3.313,0,6.634-1.625,9-4.375C32.367,58.376,35.687,60,39,60c5.624,0,10.434-3.826,11.695-9.306
		c0.208-0.904-0.004-1.839-0.58-2.563C49.543,47.412,48.687,47,47.77,47z M30,38c-9.374,0-17-7.626-17-17S20.626,4,30,4
		s17,7.626,17,17S39.374,38,30,38z"/>
</g>
<g>
</g>
<g>
</g>
<g>
</g>
<g>
</g>
<g>
</g>
<g>
</g>
<g>
</g>
<g>
</g>
<g>
</g>
<g>
</g>
<g>
</g>
<g>
</g>
<g>
</g>
<g>
</g>
<g>
</g>
</svg>
