<?xml version="1.0" encoding="iso-8859-1"?>
<!-- Generator: Adobe Illustrator 19.0.0, SVG Export Plug-In . SVG Version: 6.00 Build 0)  -->
<svg version="1.1" id="Capa_1" xmlns="http://www.w3.org/2000/svg" xmlns:xlink="http://www.w3.org/1999/xlink" x="0px" y="0px"
	 viewBox="0 0 60 60" style="enable-background:new 0 0 60 60;" xml:space="preserve">
<g>
	<path d="M59,0h-5c-0.553,0-1,0.448-1,1v15h-4V1c0-0.552-0.447-1-1-1h-5c-0.553,0-1,0.448-1,1v15h-3V1c0-0.552-0.447-1-1-1h-5
		c-0.553,0-1,0.448-1,1v15h-3V1c0-0.552-0.447-1-1-1h-5c-0.553,0-1,0.448-1,1v15h-4V1c0-0.552-0.447-1-1-1h-5c-0.553,0-1,0.448-1,1
		v15H7V1c0-0.552-0.447-1-1-1H1C0.447,0,0,0.448,0,1v22v5c0,0.552,0.447,1,1,1h7v2H1c-0.553,0-1,0.448-1,1v5v22c0,0.552,0.447,1,1,1
		h5c0.553,0,1-0.448,1-1V44h4v15c0,0.552,0.447,1,1,1h5c0.553,0,1-0.448,1-1V44h3v15c0,0.552,0.447,1,1,1h5c0.553,0,1-0.448,1-1V44
		h3v15c0,0.552,0.447,1,1,1h5c0.553,0,1-0.448,1-1V44h4v15c0,0.552,0.447,1,1,1h5c0.553,0,1-0.448,1-1V44h4v15c0,0.552,0.447,1,1,1
		h5c0.553,0,1-0.448,1-1V37v-5c0-0.552-0.447-1-1-1h-7v-2h7c0.553,0,1-0.448,1-1v-5V1C60,0.448,59.553,0,59,0z M45.184,38L30,31.098
		L14.816,38H10v-0.007L27.584,30L10,22.007V22h4.816L30,28.902L45.184,22H50v0.007L32.416,30L50,37.993V38H45.184z"/>
</g>
<g>
</g>
<g>
</g>
<g>
</g>
<g>
</g>
<g>
</g>
<g>
</g>
<g>
</g>
<g>
</g>
<g>
</g>
<g>
</g>
<g>
</g>
<g>
</g>
<g>
</g>
<g>
</g>
<g>
</g>
</svg>
