<?xml version="1.0" encoding="iso-8859-1"?>
<!-- Generator: Adobe Illustrator 19.0.0, SVG Export Plug-In . SVG Version: 6.00 Build 0)  -->
<svg version="1.1" id="Capa_1" xmlns="http://www.w3.org/2000/svg" xmlns:xlink="http://www.w3.org/1999/xlink" x="0px" y="0px"
	 viewBox="0 0 52 52" style="enable-background:new 0 0 52 52;" xml:space="preserve">
<g>
	<g>
		<path d="M51.982,43.466c-0.267-4.091-3.872-7.372-8.208-7.468c-2.347-0.052-4.613-0.942-6.379-2.505
			c-0.346-0.306-0.51-0.746-0.45-1.206c0.061-0.47,0.337-0.862,0.76-1.076c8.624-4.366,14.099-13.06,14.29-22.69
			c0.086-4.345-3.066-8.069-7.176-8.479C40.041-0.439,36,3.32,36,8.001c0,2.421-0.884,4.759-2.489,6.583
			c-0.271,0.308-0.645,0.478-1.051,0.478c-0.54,0-1.006-0.287-1.25-0.767C26.844,5.671,18.15,0.196,8.52,0.005L8.348,0.004
			c-4.328,0-7.899,3.085-8.308,7.178c-0.226,2.26,0.513,4.514,2.026,6.186c1.515,1.673,3.677,2.633,5.933,2.633
			c2.421,0,4.759,0.884,6.583,2.489c0.356,0.314,0.526,0.763,0.467,1.232c-0.06,0.466-0.335,0.856-0.755,1.069
			C5.67,25.156,0.195,33.85,0.004,43.48c-0.086,4.345,3.066,8.069,7.176,8.479c4.772,0.473,8.819-3.278,8.819-7.959
			c0-2.421,0.884-4.759,2.489-6.583c0.63-0.716,1.873-0.558,2.294,0.275c4.461,8.825,13.358,14.307,23.217,14.307
			c2.204,0,4.332-0.922,5.839-2.531C51.367,47.838,52.128,45.707,51.982,43.466z M43.999,45.001
			c-10.123,0-18.398-7.964-18.947-17.952C16.12,27.544,8.999,34.946,8.999,44.001c0,0.552-0.448,1-1,1s-1-0.448-1-1
			c0-10.123,7.964-18.398,17.952-18.947C24.456,16.121,17.054,9.001,7.999,9.001c-0.552,0-1-0.448-1-1s0.448-1,1-1
			c10.123,0,18.398,7.964,18.947,17.952c8.933-0.496,16.053-7.898,16.053-16.952c0-0.552,0.448-1,1-1s1,0.448,1,1
			c0,10.123-7.964,18.398-17.952,18.947c0.496,8.933,7.898,16.053,16.952,16.053c0.552,0,1,0.448,1,1S44.552,45.001,43.999,45.001z"
			/>
	</g>
</g>
<g>
</g>
<g>
</g>
<g>
</g>
<g>
</g>
<g>
</g>
<g>
</g>
<g>
</g>
<g>
</g>
<g>
</g>
<g>
</g>
<g>
</g>
<g>
</g>
<g>
</g>
<g>
</g>
<g>
</g>
</svg>
