<?xml version="1.0" encoding="iso-8859-1"?>
<!-- Generator: Adobe Illustrator 19.0.0, SVG Export Plug-In . SVG Version: 6.00 Build 0)  -->
<svg version="1.1" id="Capa_1" xmlns="http://www.w3.org/2000/svg" xmlns:xlink="http://www.w3.org/1999/xlink" x="0px" y="0px"
	 viewBox="0 0 50.032 50.032" style="enable-background:new 0 0 50.032 50.032;" xml:space="preserve">
<g>
	<path d="M46.031,0.016h-12c-2.206,0-4,1.794-4,4s1.794,4,4,4h2.302l-3.609,3.609c-3.479-2.355-7.526-3.597-11.765-3.597
		c-5.598,0-10.86,2.18-14.818,6.138c-8.188,8.188-8.188,21.511,0,29.699c3.967,3.967,9.24,6.151,14.85,6.151
		c5.608,0,10.882-2.185,14.849-6.151c7.074-7.073,8.101-18.35,2.541-26.583l3.651-3.651v2.385c0,2.206,1.794,4,4,4s4-1.794,4-4v-12
		C50.031,1.809,48.237,0.016,46.031,0.016z M32.302,40.329c-3.018,3.018-7.035,4.68-11.313,4.68s-8.296-1.662-11.313-4.68
		c-6.238-6.238-6.238-16.389,0-22.627c3.018-3.018,7.035-4.68,11.313-4.68s8.296,1.662,11.313,4.68
		C38.541,23.94,38.541,34.091,32.302,40.329z"/>
</g>
<g>
</g>
<g>
</g>
<g>
</g>
<g>
</g>
<g>
</g>
<g>
</g>
<g>
</g>
<g>
</g>
<g>
</g>
<g>
</g>
<g>
</g>
<g>
</g>
<g>
</g>
<g>
</g>
<g>
</g>
</svg>
