<?xml version="1.0" encoding="iso-8859-1"?>
<!-- Generator: Adobe Illustrator 19.0.0, SVG Export Plug-In . SVG Version: 6.00 Build 0)  -->
<svg version="1.1" id="Capa_1" xmlns="http://www.w3.org/2000/svg" xmlns:xlink="http://www.w3.org/1999/xlink" x="0px" y="0px"
	 viewBox="0 0 60.002 60.002" style="enable-background:new 0 0 60.002 60.002;" xml:space="preserve">
<g>
	<g>
		<path d="M59.961,28.505c-0.232-1.427-1.552-2.503-3.067-2.503h-1.23c-1.783-11.5-11.103-20.461-22.662-21.796V3.109
			c0-1.516-1.076-2.835-2.503-3.067c-1.885-0.31-3.497,1.143-3.497,2.96v1.204C15.441,5.541,6.121,14.502,4.339,26.002h-1.23
			c-1.516,0-2.835,1.076-3.067,2.503c-0.143,0.879,0.103,1.768,0.674,2.439s1.404,1.058,2.286,1.058h1.087
			c0.944,12.39,10.57,22.398,22.913,23.816v1.077c0,1.516,1.076,2.835,2.503,3.067c0.168,0.027,0.335,0.04,0.497,0.04
			c1.654,0,3-1.346,3-3v-1.184C45.345,54.4,54.971,44.392,55.915,32.002h1.087c0.882,0,1.715-0.386,2.286-1.058
			S60.103,29.384,59.961,28.505z M27.001,49.769c-8.952-1.358-15.965-8.738-16.873-17.768h16.873V49.769z M27.001,26.002H10.428
			c1.67-8.239,8.271-14.522,16.573-15.769V26.002z M33.001,10.233c8.303,1.246,14.903,7.529,16.573,15.769H33.001V10.233z
			 M33.001,49.769V32.002h16.873C48.966,41.031,41.953,48.411,33.001,49.769z"/>
	</g>
</g>
<g>
</g>
<g>
</g>
<g>
</g>
<g>
</g>
<g>
</g>
<g>
</g>
<g>
</g>
<g>
</g>
<g>
</g>
<g>
</g>
<g>
</g>
<g>
</g>
<g>
</g>
<g>
</g>
<g>
</g>
</svg>
