<?xml version="1.0" encoding="iso-8859-1"?>
<!-- Generator: Adobe Illustrator 19.0.0, SVG Export Plug-In . SVG Version: 6.00 Build 0)  -->
<svg version="1.1" id="Capa_1" xmlns="http://www.w3.org/2000/svg" xmlns:xlink="http://www.w3.org/1999/xlink" x="0px" y="0px"
	 viewBox="0 0 56 56" style="enable-background:new 0 0 56 56;" xml:space="preserve">
<g>
	<path d="M42.5,49h-23V36h1c9.925,0,18-8.075,18-18s-8.075-18-18-18h-7c-0.553,0-1,0.447-1,1v54c0,0.553,0.447,1,1,1h29
		c0.553,0,1-0.447,1-1v-5C43.5,49.447,43.053,49,42.5,49z M20.5,29h-1V7h1c5.552,0,11,5.448,11,11S26.052,29,20.5,29z"/>
</g>
<g>
</g>
<g>
</g>
<g>
</g>
<g>
</g>
<g>
</g>
<g>
</g>
<g>
</g>
<g>
</g>
<g>
</g>
<g>
</g>
<g>
</g>
<g>
</g>
<g>
</g>
<g>
</g>
<g>
</g>
</svg>
