<?xml version="1.0" encoding="iso-8859-1"?>
<!-- Generator: Adobe Illustrator 19.0.0, SVG Export Plug-In . SVG Version: 6.00 Build 0)  -->
<svg version="1.1" id="Capa_1" xmlns="http://www.w3.org/2000/svg" xmlns:xlink="http://www.w3.org/1999/xlink" x="0px" y="0px"
	 viewBox="0 0 50 50" style="enable-background:new 0 0 50 50;" xml:space="preserve">
<g>
	<path d="M47.258,42.917c-8.1-0.781-14.666-6.976-16.005-14.917h8.748C41.654,28,43,26.653,43,24.999C43,23.346,41.654,22,40.001,22
		h-8.748c1.339-7.941,7.905-14.136,16.005-14.917C48.821,6.932,50,5.65,50,4.1c0-1.75-1.476-3.159-3.26-2.995
		C35.505,2.16,26.581,10.879,25.193,22h-0.387C23.419,10.879,14.495,2.16,3.26,1.105C1.485,0.96,0,2.35,0,4.1
		c0,1.55,1.179,2.832,2.742,2.982c8.1,0.781,14.666,6.976,16.005,14.917H9.999C8.346,22,7,23.347,7,25.001
		C7,26.654,8.346,28,9.999,28h8.748c-1.339,7.941-7.905,14.136-16.005,14.917C1.179,43.067,0,44.349,0,45.899
		c0,1.751,1.485,3.161,3.26,2.995C14.495,47.84,23.419,39.121,24.807,28h0.387c1.388,11.121,10.312,19.84,21.547,20.895
		c0.094,0.008,0.187,0.013,0.278,0.013c1.644,0,2.981-1.35,2.981-3.008C50,44.349,48.821,43.067,47.258,42.917z"/>
</g>
<g>
</g>
<g>
</g>
<g>
</g>
<g>
</g>
<g>
</g>
<g>
</g>
<g>
</g>
<g>
</g>
<g>
</g>
<g>
</g>
<g>
</g>
<g>
</g>
<g>
</g>
<g>
</g>
<g>
</g>
</svg>
