<?xml version="1.0" encoding="iso-8859-1"?>
<!-- Generator: Adobe Illustrator 19.0.0, SVG Export Plug-In . SVG Version: 6.00 Build 0)  -->
<svg version="1.1" id="Capa_1" xmlns="http://www.w3.org/2000/svg" xmlns:xlink="http://www.w3.org/1999/xlink" x="0px" y="0px"
	 viewBox="0 0 58 58" style="enable-background:new 0 0 58 58;" xml:space="preserve">
<g>
	<path d="M29,0C13.01,0,0,13.01,0,29s13.01,29,29,29s29-13.01,29-29S44.99,0,29,0z M44,24.899c0,0.553-0.447,1-1,1s-1-0.447-1-1
		v-7.485L30.979,28.435l4.243,4.243c0.391,0.391,0.391,1.023,0,1.414c-0.195,0.195-0.451,0.293-0.707,0.293
		s-0.512-0.098-0.707-0.293l-4.243-4.243L15.423,43.991c-0.195,0.195-0.451,0.293-0.707,0.293s-0.512-0.098-0.707-0.293
		c-0.391-0.391-0.391-1.023,0-1.414l14.142-14.142l-4.243-4.243c-0.391-0.391-0.391-1.023,0-1.414s1.023-0.391,1.414,0l4.243,4.243
		L40.586,16h-7.485c-0.553,0-1-0.447-1-1s0.447-1,1-1H44V24.899z"/>
</g>
<g>
</g>
<g>
</g>
<g>
</g>
<g>
</g>
<g>
</g>
<g>
</g>
<g>
</g>
<g>
</g>
<g>
</g>
<g>
</g>
<g>
</g>
<g>
</g>
<g>
</g>
<g>
</g>
<g>
</g>
</svg>
