<?xml version="1.0" encoding="iso-8859-1"?>
<!-- Generator: Adobe Illustrator 19.0.0, SVG Export Plug-In . SVG Version: 6.00 Build 0)  -->
<svg version="1.1" id="Capa_1" xmlns="http://www.w3.org/2000/svg" xmlns:xlink="http://www.w3.org/1999/xlink" x="0px" y="0px"
	 viewBox="0 0 52 52" style="enable-background:new 0 0 52 52;" xml:space="preserve">
<g>
	<path d="M49,23H35.656c-0.62,0-0.864-0.473-0.924-0.617s-0.222-0.651,0.217-1.09l9.436-9.436c1.17-1.17,1.17-3.072,0-4.242
		c-1.133-1.133-3.109-1.133-4.242,0l-9.436,9.436c-0.245,0.245-0.513,0.297-0.693,0.297c-0.26,0-0.519-0.103-0.71-0.28
		C29.165,16.938,29,16.707,29,16.344V3c0-1.654-1.346-3-3-3s-3,1.346-3,3v13.344c0,0.628-0.516,1.004-1.015,1.004
		c-0.18,0-0.447-0.052-0.692-0.297l-9.436-9.436c-1.133-1.133-3.109-1.133-4.242,0c-1.17,1.17-1.17,3.072,0,4.242l9.436,9.436
		c0.438,0.438,0.276,0.945,0.217,1.09S16.964,23,16.344,23H3c-1.654,0-3,1.346-3,3s1.346,3,3,3h13.344
		c0.62,0,0.864,0.473,0.924,0.617s0.222,0.651-0.217,1.09l-9.436,9.436c-1.17,1.17-1.17,3.072,0,4.242
		c1.133,1.133,3.109,1.133,4.242,0l9.436-9.436c0.245-0.245,0.513-0.297,0.693-0.297c0.498,0,1.014,0.376,1.014,1.004V49
		c0,1.654,1.346,3,3,3s3-1.346,3-3V35.656c0-0.628,0.516-1.004,1.014-1.004c0.181,0,0.448,0.052,0.693,0.297l9.436,9.436
		c1.133,1.133,3.109,1.133,4.242,0c1.17-1.17,1.17-3.072,0-4.242l-9.436-9.436c-0.438-0.438-0.276-0.945-0.217-1.09
		S35.036,29,35.656,29H49c1.654,0,3-1.346,3-3S50.654,23,49,23z"/>
</g>
<g>
</g>
<g>
</g>
<g>
</g>
<g>
</g>
<g>
</g>
<g>
</g>
<g>
</g>
<g>
</g>
<g>
</g>
<g>
</g>
<g>
</g>
<g>
</g>
<g>
</g>
<g>
</g>
<g>
</g>
</svg>
