<?xml version="1.0" encoding="iso-8859-1"?>
<!-- Generator: Adobe Illustrator 19.0.0, SVG Export Plug-In . SVG Version: 6.00 Build 0)  -->
<svg version="1.1" id="Capa_1" xmlns="http://www.w3.org/2000/svg" xmlns:xlink="http://www.w3.org/1999/xlink" x="0px" y="0px"
	 viewBox="0 0 60 60" style="enable-background:new 0 0 60 60;" xml:space="preserve">
<g>
	<path d="M59.96,29.457c-0.232-1.427-1.552-2.503-3.067-2.503H53v-3c0-1.654-1.346-3-3-3s-3,1.346-3,3v3h-5.216
		c-1.472-10.323-10.252-18-20.783-18c-0.179,0-0.357,0.003-0.536,0.007c-4.208,0.104-8.239,1.485-11.702,4
		c-0.887-0.647-2.207-2.025-1.697-4.265c0.305-1.346-0.249-2.728-1.38-3.437L5.545,5.186c-0.394-0.167-0.81-0.252-1.236-0.252
		c-1.496,0-2.752,1.011-3.056,2.457c-0.394,1.881-0.814,6.421,3.141,9.784c-2.63,3.384-4.134,7.383-4.363,11.627
		c-0.271,5.06,1.263,9.975,4.336,13.955c-4.02,3.437-3.503,8.07-3.063,9.985c0.313,1.368,1.51,2.324,2.911,2.324
		c0.466,0,0.914-0.107,1.334-0.317c1.256-0.628,1.89-2.038,1.542-3.43c-0.563-2.257,0.683-3.645,1.628-4.341
		c3.594,2.604,7.824,3.976,12.282,3.976c10.532,0,19.312-7.676,20.784-18H47v3c0,1.654,1.346,3,3,3s3-1.346,3-3v-3h4
		c0.882,0,1.715-0.386,2.286-1.058C59.858,31.225,60.103,30.336,59.96,29.457z M21,46.954c-9.374,0-17-7.626-17-17s7.626-17,17-17
		s17,7.626,17,17S30.374,46.954,21,46.954z"/>
</g>
<g>
</g>
<g>
</g>
<g>
</g>
<g>
</g>
<g>
</g>
<g>
</g>
<g>
</g>
<g>
</g>
<g>
</g>
<g>
</g>
<g>
</g>
<g>
</g>
<g>
</g>
<g>
</g>
<g>
</g>
</svg>
