<?xml version="1.0" encoding="iso-8859-1"?>
<!-- Generator: Adobe Illustrator 19.0.0, SVG Export Plug-In . SVG Version: 6.00 Build 0)  -->
<svg version="1.1" id="Capa_1" xmlns="http://www.w3.org/2000/svg" xmlns:xlink="http://www.w3.org/1999/xlink" x="0px" y="0px"
	 viewBox="0 0 55.395 55.395" style="enable-background:new 0 0 55.395 55.395;" xml:space="preserve">
<g>
	<g>
		<path d="M54.886,26.465L28.92,0.499c-0.654-0.654-1.792-0.654-2.448,0L0.505,26.466c-0.674,0.676-0.673,1.773,0.001,2.447
			l25.966,25.965c0.326,0.328,0.762,0.509,1.225,0.509s0.897-0.181,1.225-0.508l25.964-25.965c0.327-0.326,0.508-0.761,0.509-1.224
			C55.394,27.228,55.214,26.792,54.886,26.465z M49.23,28.913l-20.31,20.31c-0.328,0.327-0.763,0.507-1.225,0.507
			s-0.896-0.18-1.224-0.506l-20.31-20.31c-0.674-0.676-0.674-1.773-0.001-2.448l20.31-20.31c0.656-0.654,1.794-0.653,2.448-0.001
			l20.31,20.31C49.903,27.141,49.903,28.239,49.23,28.913z"/>
	</g>
</g>
<g>
</g>
<g>
</g>
<g>
</g>
<g>
</g>
<g>
</g>
<g>
</g>
<g>
</g>
<g>
</g>
<g>
</g>
<g>
</g>
<g>
</g>
<g>
</g>
<g>
</g>
<g>
</g>
<g>
</g>
</svg>
