<?xml version="1.0" encoding="iso-8859-1"?>
<!-- Generator: Adobe Illustrator 19.0.0, SVG Export Plug-In . SVG Version: 6.00 Build 0)  -->
<svg version="1.1" id="Capa_1" xmlns="http://www.w3.org/2000/svg" xmlns:xlink="http://www.w3.org/1999/xlink" x="0px" y="0px"
	 viewBox="0 0 60 60" style="enable-background:new 0 0 60 60;" xml:space="preserve">
<g>
	<path d="M53.09,7.946c1.408-2.449,0.635-5.58-1.76-7.13C50.503,0.282,49.488,0,48.394,0H11.606c-1.096,0-2.112,0.283-2.94,0.82
		C6.27,2.372,5.502,5.504,6.915,7.951l18.042,31.276c0.747,1.274,1.27,2.54,1.559,3.772h-3.722c-1.654,0-3,1.346-3,3s1.346,3,3,3h4
		v2h-4c-1.654,0-3,1.346-3,3s1.346,3,3,3h4.002c0.043,1.329,0.884,2.495,2.074,2.859C29.174,59.952,29.484,60,29.794,60
		c1.654,0,3-1.346,3-3h4c1.654,0,3-1.346,3-3s-1.346-3-3-3h-4v-2h4c1.654,0,3-1.346,3-3s-1.346-3-3-3h-3.726
		c0.289-1.239,0.813-2.506,1.577-3.8L53.09,7.946z M31.18,37.204C30.899,37.691,30.367,38,29.794,38
		c-0.571,0-1.104-0.308-1.39-0.802L10.38,5.953c-0.231-0.401-0.231-0.9,0-1.302S11.044,4,11.508,4h36.985
		c0.463,0,0.896,0.249,1.127,0.65c0.232,0.4,0.232,0.899,0.002,1.301L31.18,37.204z"/>
</g>
<g>
</g>
<g>
</g>
<g>
</g>
<g>
</g>
<g>
</g>
<g>
</g>
<g>
</g>
<g>
</g>
<g>
</g>
<g>
</g>
<g>
</g>
<g>
</g>
<g>
</g>
<g>
</g>
<g>
</g>
</svg>
