<?xml version="1.0" encoding="iso-8859-1"?>
<!-- Generator: Adobe Illustrator 19.0.0, SVG Export Plug-In . SVG Version: 6.00 Build 0)  -->
<svg version="1.1" id="Capa_1" xmlns="http://www.w3.org/2000/svg" xmlns:xlink="http://www.w3.org/1999/xlink" x="0px" y="0px"
	 viewBox="0 0 60 60" style="enable-background:new 0 0 60 60;" xml:space="preserve">
<g>
	<path d="M57.783,22c-0.127,0-0.256,0.011-0.333,0.025l-23.31,2.829l2.593-22.252c0.113-0.647-0.064-1.308-0.487-1.812
		C35.824,0.288,35.205,0,34.549,0H24.451c-0.656,0-1.275,0.288-1.697,0.791c-0.423,0.504-0.601,1.164-0.495,1.755l2.601,22.302
		L2.603,22.033C1.217,21.795,0,22.869,0,24.218v10.098c0,1.223,0.994,2.218,2.215,2.218c0.128,0,0.258-0.011,0.403-0.036
		l22.249-4.262l-2.601,25.162c-0.113,0.647,0.064,1.308,0.487,1.812c0.423,0.502,1.042,0.79,1.698,0.79h10.098
		c0.656,0,1.275-0.288,1.697-0.791c0.423-0.504,0.601-1.164,0.497-1.741l-2.611-25.243l23.265,4.274
		c0.131,0.023,0.261,0.034,0.389,0.034c0.585,0,1.139-0.228,1.557-0.642C59.767,35.473,60,34.913,60,34.315V24.218
		C60,22.995,59.006,22,57.783,22z"/>
</g>
<g>
</g>
<g>
</g>
<g>
</g>
<g>
</g>
<g>
</g>
<g>
</g>
<g>
</g>
<g>
</g>
<g>
</g>
<g>
</g>
<g>
</g>
<g>
</g>
<g>
</g>
<g>
</g>
<g>
</g>
</svg>
