<?xml version="1.0" encoding="iso-8859-1"?>
<!-- Generator: Adobe Illustrator 19.0.0, SVG Export Plug-In . SVG Version: 6.00 Build 0)  -->
<svg version="1.1" id="Capa_1" xmlns="http://www.w3.org/2000/svg" xmlns:xlink="http://www.w3.org/1999/xlink" x="0px" y="0px"
	 viewBox="0 0 59.487 59.487" style="enable-background:new 0 0 59.487 59.487;" xml:space="preserve">
<g>
	<g>
		<path d="M56.576,33.871c-0.194,0-0.387,0.018-0.576,0.052V23.372c0.936,0.1,1.935-0.253,2.61-0.925
			c0.565-0.563,0.877-1.31,0.877-2.106c0-0.796-0.312-1.543-0.877-2.105l-3.513-3.493c-1.129-1.122-3.091-1.123-4.221,0
			l-3.513,3.493c-0.565,0.562-0.877,1.31-0.877,2.105c0,0.797,0.312,1.545,0.877,2.106c0.677,0.674,1.681,1.027,2.636,0.924v3.501
			H37V10.848c1.247-0.939,2-2.416,2-3.978c0-2.757-2.243-5-5-5s-5,2.243-5,5c0,1.562,0.753,3.038,2,3.978v16.023H17.712
			C16.369,23.5,12.827,21.124,9,21.124c-4.962,0-9,4.037-9,9s4.038,9,9,9c4.011,0,7.572-2.586,8.762-6.253L31,32.872v15.411
			c-0.965-0.182-1.978,0.104-2.636,0.76c-0.565,0.562-0.877,1.31-0.877,2.106c0,0.796,0.312,1.544,0.877,2.105l3.513,3.493
			c0.564,0.562,1.314,0.871,2.11,0.871c0.796,0,1.546-0.31,2.11-0.871l3.404-3.385c0.87-0.865,1.18-2.134,0.79-3.23
			c-0.417-1.174-1.457-1.903-2.715-1.903c-0.194,0-0.387,0.018-0.576,0.052V32.872h13v1.053c-0.965-0.181-1.977,0.102-2.636,0.759
			c-0.565,0.562-0.877,1.311-0.877,2.106c0,0.796,0.312,1.545,0.877,2.106l3.513,3.493c1.129,1.123,3.091,1.122,4.22,0l3.404-3.385
			c0.87-0.865,1.18-2.134,0.79-3.23C58.875,34.6,57.834,33.871,56.576,33.871z M9,35.124c-2.757,0-5-2.243-5-5s2.243-5,5-5
			s5,2.243,5,5S11.757,35.124,9,35.124z"/>
	</g>
</g>
<g>
</g>
<g>
</g>
<g>
</g>
<g>
</g>
<g>
</g>
<g>
</g>
<g>
</g>
<g>
</g>
<g>
</g>
<g>
</g>
<g>
</g>
<g>
</g>
<g>
</g>
<g>
</g>
<g>
</g>
</svg>
