<?xml version="1.0" encoding="iso-8859-1"?>
<!-- Generator: Adobe Illustrator 19.0.0, SVG Export Plug-In . SVG Version: 6.00 Build 0)  -->
<svg version="1.1" id="Capa_1" xmlns="http://www.w3.org/2000/svg" xmlns:xlink="http://www.w3.org/1999/xlink" x="0px" y="0px"
	 viewBox="0 0 58 58" style="enable-background:new 0 0 58 58;" xml:space="preserve">
<g>
	<path d="M47.353,9H34.85l-0.011-3.159C34.839,2.782,32.337,0,29.278,0s-5.425,2.493-5.425,5.551V9H10.647c-1.93,0-3.5,1.57-3.5,3.5
		v1c0,1.93,1.57,3.5,3.5,3.5h5.109c-0.171,0.409-0.267,0.864-0.267,1.35v0.561c0,2.028,1.903,3.089,3.784,3.089h4.58v3h-0.08
		c-1.553,0-2.96,0.168-4.182,0.5c-2.345,0.636-3.183,2.514-2.972,4.092C16.838,31.234,18.256,33,20.853,33h3v2.981h-3.472
		c-1.551,0-2.958,0.168-4.182,0.5c-2.47,0.67-3.493,3.038-3.228,5.031C13.25,43.598,14.81,45,16.853,45h7.42l0.864,1.554
		l-0.177,0.163c-1.339,1.231-2.107,2.975-2.107,4.783c0,3.584,2.916,6.5,6.5,6.5s6.5-2.916,6.5-6.5c0-1.87-0.812-3.652-2.226-4.89
		l-0.161-0.141L34.283,45h6.576c2.516,0,4.101-2.015,4.366-4.005c0.288-2.156-0.865-3.97-2.868-4.514
		c-1.224-0.332-2.631-0.5-4.182-0.5h-3.322V33h3.333c2.479,0,3.806-1.615,4.019-3.216c0.213-1.596-0.675-3.618-3.129-4.284
		c-1.222-0.332-2.629-0.5-4.182-0.5H34.85l-0.008-3h5.011c1.953,0,3.215-1.212,3.215-3.089V18.35c0-0.481-0.115-0.936-0.314-1.35
		h4.599c1.93,0,3.5-1.57,3.5-3.5v-1C50.853,10.57,49.283,9,47.353,9z"/>
</g>
<g>
</g>
<g>
</g>
<g>
</g>
<g>
</g>
<g>
</g>
<g>
</g>
<g>
</g>
<g>
</g>
<g>
</g>
<g>
</g>
<g>
</g>
<g>
</g>
<g>
</g>
<g>
</g>
<g>
</g>
</svg>
