<?xml version="1.0" encoding="iso-8859-1"?>
<!-- Generator: Adobe Illustrator 19.0.0, SVG Export Plug-In . SVG Version: 6.00 Build 0)  -->
<svg version="1.1" id="Capa_1" xmlns="http://www.w3.org/2000/svg" xmlns:xlink="http://www.w3.org/1999/xlink" x="0px" y="0px"
	 viewBox="0 0 59.07 59.07" style="enable-background:new 0 0 59.07 59.07;" xml:space="preserve">
<g>
	<path d="M58.193,50.136l-3.537-3.537c-1.133-1.132-3.109-1.133-4.242,0.001c-0.559,0.559-0.879,1.352-0.879,2.175
		c0,0.199,0.019,0.396,0.055,0.589h-4.055v-26.71c5.019-1.354,8.5-5.88,8.5-11.103c0-5.364-3.646-9.969-8.866-11.196
		c-0.219-0.051-0.442-0.077-0.665-0.077c-1.637,0-2.969,1.353-2.969,3.016c0,1.383,0.951,2.582,2.312,2.915
		c2.72,0.669,4.5,3.278,4.141,6.071c-0.349,2.72-2.791,4.771-5.68,4.771h-1.137c-0.902,0-1.637,0.733-1.637,1.636v30.677h-7v-39.6
		c0.931,0.162,1.922-0.142,2.61-0.825c0.565-0.563,0.877-1.31,0.877-2.105c0-0.797-0.312-1.544-0.877-2.106l-3.513-3.494
		c-1.127-1.121-3.091-1.121-4.221,0L23.9,4.727c-0.565,0.562-0.877,1.31-0.877,2.105c0,0.796,0.312,1.544,0.877,2.107
		c0.69,0.687,1.696,0.99,2.636,0.824v39.6h-7V18.687c0-0.902-0.734-1.636-1.637-1.636h-1.137c-2.889,0-5.331-2.052-5.68-4.772
		c-0.359-2.792,1.421-5.401,4.141-6.069c1.361-0.334,2.313-1.533,2.313-2.916c0-1.663-1.332-3.016-2.969-3.016
		c-0.223,0-0.446,0.026-0.665,0.077c-5.22,1.228-8.866,5.832-8.866,11.196c0,5.223,3.481,9.749,8.5,11.103v26.71h-4.05
		C9.67,48.39,9.393,47.337,8.657,46.6c-1.134-1.133-3.11-1.133-4.242,0l-3.536,3.536C0.312,50.702,0,51.455,0,52.257
		c0,0.801,0.312,1.555,0.879,2.121l3.536,3.535c1.134,1.134,3.11,1.132,4.242,0c0.567-0.566,0.879-1.301,0.879-2.067
		c0-0.163-0.014-0.324-0.042-0.482h40.083c-0.027,0.158-0.042,0.319-0.042,0.482c0,0.768,0.312,1.501,0.878,2.067
		c0.567,0.566,1.32,0.879,2.121,0.879c0.802,0,1.555-0.313,2.121-0.879l3.537-3.535c0.566-0.566,0.878-1.32,0.878-2.121
		C59.071,51.455,58.759,50.702,58.193,50.136z"/>
</g>
<g>
</g>
<g>
</g>
<g>
</g>
<g>
</g>
<g>
</g>
<g>
</g>
<g>
</g>
<g>
</g>
<g>
</g>
<g>
</g>
<g>
</g>
<g>
</g>
<g>
</g>
<g>
</g>
<g>
</g>
</svg>
