<?xml version="1.0" encoding="iso-8859-1"?>
<!-- Generator: Adobe Illustrator 19.0.0, SVG Export Plug-In . SVG Version: 6.00 Build 0)  -->
<svg version="1.1" id="Capa_1" xmlns="http://www.w3.org/2000/svg" xmlns:xlink="http://www.w3.org/1999/xlink" x="0px" y="0px"
	 viewBox="0 0 58 58" style="enable-background:new 0 0 58 58;" xml:space="preserve">
<g>
	<g>
		<path d="M29,0C13.009,0,0,13.01,0,29s13.009,29,29,29s29-13.01,29-29S44.991,0,29,0z M45.261,14.965l-2.163,0.585
			c-0.689,0.187-1.604,0.409-2.572,0.477c-2.352,0.166-4.559,1.092-6.214,2.607c-0.127,0.116-0.245,0.229-0.351,0.335
			c-0.563,0.563-1.08,1.046-1.575,1.463C38.472,21.952,43,27.45,43,34c0,7.72-6.28,14-14,14s-14-6.28-14-14
			c0-6.551,4.528-12.049,10.615-13.569c-0.495-0.416-1.013-0.9-1.575-1.462c-1.735-1.721-4.042-2.752-6.533-2.938
			c-1.02-0.075-1.981-0.31-2.787-0.528l-1.981-0.537c-0.533-0.145-0.848-0.693-0.704-1.227c0.145-0.532,0.691-0.85,1.227-0.703
			l1.981,0.537c0.715,0.193,1.56,0.4,2.413,0.464c2.965,0.223,5.719,1.457,7.757,3.478C27.213,19.314,28.208,20,29,20
			s1.787-0.686,3.547-2.445c0.126-0.126,0.264-0.258,0.415-0.396c1.987-1.819,4.624-2.93,7.424-3.127
			c0.796-0.057,1.589-0.25,2.19-0.413l2.163-0.584c0.534-0.151,1.082,0.17,1.227,0.704C46.109,14.272,45.794,14.821,45.261,14.965z"
			/>
		<path d="M17,34c0,6.617,5.383,12,12,12s12-5.383,12-12s-5.383-12-12-12S17,27.383,17,34z"/>
	</g>
</g>
<g>
</g>
<g>
</g>
<g>
</g>
<g>
</g>
<g>
</g>
<g>
</g>
<g>
</g>
<g>
</g>
<g>
</g>
<g>
</g>
<g>
</g>
<g>
</g>
<g>
</g>
<g>
</g>
<g>
</g>
</svg>
