<?xml version="1.0" encoding="iso-8859-1"?>
<!-- Generator: Adobe Illustrator 19.0.0, SVG Export Plug-In . SVG Version: 6.00 Build 0)  -->
<svg version="1.1" id="Capa_1" xmlns="http://www.w3.org/2000/svg" xmlns:xlink="http://www.w3.org/1999/xlink" x="0px" y="0px"
	 viewBox="0 0 58 58" style="enable-background:new 0 0 58 58;" xml:space="preserve">
<g>
	<path d="M45.919,26.456c-2.188-3.376-6.902-6.146-10.966-6.444c-0.348-0.025-0.697-0.039-1.072-0.04l-0.2-0.002
		c-1.244,0-5.657,0.144-10.226,1.992l-1.375,0.556V7h1.5c1.93,0,3.5-1.57,3.5-3.5S25.51,0,23.58,0h-10c-1.93,0-3.5,1.57-3.5,3.5
		S11.65,7,13.58,7h1.5v47.307c0,1.893,1.385,3.508,3.144,3.675C18.345,57.994,18.464,58,18.581,58c0.083,0,0.165-0.003,0.25-0.008
		c1.822-0.12,3.249-1.656,3.249-3.497V30.497l0.402-0.299c4.237-3.152,10.04-3.313,11.146-3.313l0.226,0.003
		c0.221,0,0.439,0.008,0.657,0.023c2.913,0.214,4.528,2.066,5.231,3.151c1.279,1.972,1.567,4.462,0.771,6.661
		c-0.877,2.424-2.671,5.151-5.188,7.889c-1.515,1.646-2.445,3.561-2.691,5.535c-0.203,1.617,0.324,3.701,1.448,5.717
		c0.599,1.073,1.617,1.714,2.727,1.714c0.347,0,2.213-0.213,2.922-0.819c1.114-0.954,1.393-2.546,0.661-3.786
		c-0.745-1.263-0.682-1.761-0.661-1.926c0.04-0.322,0.238-1.448,1.086-2.371c3.265-3.548,5.12-6.34,6.204-9.337
		C48.549,35.112,48.096,29.813,45.919,26.456z"/>
</g>
<g>
</g>
<g>
</g>
<g>
</g>
<g>
</g>
<g>
</g>
<g>
</g>
<g>
</g>
<g>
</g>
<g>
</g>
<g>
</g>
<g>
</g>
<g>
</g>
<g>
</g>
<g>
</g>
<g>
</g>
</svg>
