<?xml version="1.0" encoding="iso-8859-1"?>
<!-- Generator: Adobe Illustrator 19.0.0, SVG Export Plug-In . SVG Version: 6.00 Build 0)  -->
<svg version="1.1" id="Capa_1" xmlns="http://www.w3.org/2000/svg" xmlns:xlink="http://www.w3.org/1999/xlink" x="0px" y="0px"
	 viewBox="0 0 60 60" style="enable-background:new 0 0 60 60;" xml:space="preserve">
<g>
	<g>
		<path d="M57,23c-1.461,0-2.35,1.749-2.75,4h-3.467C49.462,17.821,42.178,10.536,33,9.216V5.75c2.251-0.4,4-1.289,4-2.75
			c0-2.072-3.516-3-7-3s-7,0.928-7,3c0,1.461,1.749,2.35,4,2.75v3.466C17.822,10.536,10.538,17.821,9.217,27H5.75
			c-0.4-2.251-1.289-4-2.75-4c-2.072,0-3,3.516-3,7s0.928,7,3,7c1.461,0,2.35-1.749,2.75-4h3.467
			C10.538,42.179,17.822,49.464,27,50.784v3.466c-2.251,0.399-4,1.289-4,2.75c0,2.072,3.516,3,7,3s7-0.928,7-3
			c0-1.461-1.749-2.35-4-2.75v-3.468c9.18-1.32,16.465-8.604,17.784-17.782h3.466c0.399,2.251,1.289,4,2.75,4c2.072,0,3-3.516,3-7
			S59.072,23,57,23z M3,34.909C2.63,34.439,2,32.764,2,30s0.63-4.439,1-4.909c0.37,0.47,1,2.146,1,4.909S3.37,34.439,3,34.909z
			 M25.091,3c0.47-0.37,2.146-1,4.909-1s4.439,0.63,4.909,1C34.439,3.37,32.764,4,30,4S25.561,3.37,25.091,3z M34.909,57
			c-0.47,0.37-2.146,1-4.909,1s-4.439-0.63-4.909-1c0.47-0.37,2.146-1,4.909-1S34.439,56.63,34.909,57z M30,47
			c-9.374,0-17-7.626-17-17s7.626-17,17-17s17,7.626,17,17S39.374,47,30,47z M57,34.909c-0.37-0.47-1-2.146-1-4.909
			s0.63-4.439,1-4.909c0.37,0.47,1,2.146,1,4.909S57.37,34.439,57,34.909z"/>
	</g>
</g>
<g>
</g>
<g>
</g>
<g>
</g>
<g>
</g>
<g>
</g>
<g>
</g>
<g>
</g>
<g>
</g>
<g>
</g>
<g>
</g>
<g>
</g>
<g>
</g>
<g>
</g>
<g>
</g>
<g>
</g>
</svg>
