<?xml version="1.0" encoding="iso-8859-1"?>
<!-- Generator: Adobe Illustrator 19.0.0, SVG Export Plug-In . SVG Version: 6.00 Build 0)  -->
<svg version="1.1" id="Capa_1" xmlns="http://www.w3.org/2000/svg" xmlns:xlink="http://www.w3.org/1999/xlink" x="0px" y="0px"
	 viewBox="0 0 59.97 59.97" style="enable-background:new 0 0 59.97 59.97;" xml:space="preserve">
<g>
	<g>
		<path d="M37.985,41.971c-0.182,0-0.359,0.017-0.538,0.027c0.971-1.437,1.538-3.167,1.538-5.027c0-3.838-2.431-7.22-6-8.479V9.371
			c0.93,0.162,1.922-0.142,2.61-0.825c0.565-0.563,0.877-1.31,0.877-2.105c0-0.797-0.312-1.544-0.877-2.106l-3.513-3.494
			c-1.127-1.12-3.091-1.122-4.221,0l-3.512,3.493c-0.565,0.562-0.877,1.31-0.877,2.105c0,0.796,0.312,1.544,0.877,2.107
			c0.69,0.686,1.696,0.991,2.636,0.824v19.121c-3.569,1.259-6,4.641-6,8.479c0,1.861,0.568,3.591,1.538,5.027
			c-0.179-0.011-0.357-0.027-0.538-0.027c-4.962,0-9,4.037-9,9s4.038,9,9,9c3.483,0,6.505-1.993,8-4.896
			c1.495,2.902,4.517,4.896,8,4.896c4.962,0,9-4.037,9-9S42.947,41.971,37.985,41.971z M29.985,31.971c2.757,0,5,2.243,5,5
			s-2.243,5-5,5s-5-2.243-5-5S27.228,31.971,29.985,31.971z M30.523,45.943c-0.199,0.295-0.375,0.605-0.538,0.923
			c-0.164-0.318-0.339-0.628-0.538-0.923c0.179,0.011,0.357,0.027,0.538,0.027S30.344,45.954,30.523,45.943z M21.985,55.971
			c-2.757,0-5-2.243-5-5s2.243-5,5-5s5,2.243,5,5S24.742,55.971,21.985,55.971z M37.985,55.971c-2.757,0-5-2.243-5-5s2.243-5,5-5
			s5,2.243,5,5S40.742,55.971,37.985,55.971z"/>
	</g>
</g>
<g>
</g>
<g>
</g>
<g>
</g>
<g>
</g>
<g>
</g>
<g>
</g>
<g>
</g>
<g>
</g>
<g>
</g>
<g>
</g>
<g>
</g>
<g>
</g>
<g>
</g>
<g>
</g>
<g>
</g>
</svg>
