<?xml version="1.0" encoding="iso-8859-1"?>
<!-- Generator: Adobe Illustrator 19.0.0, SVG Export Plug-In . SVG Version: 6.00 Build 0)  -->
<svg version="1.1" id="Capa_1" xmlns="http://www.w3.org/2000/svg" xmlns:xlink="http://www.w3.org/1999/xlink" x="0px" y="0px"
	 viewBox="0 0 59.719 59.719" style="enable-background:new 0 0 59.719 59.719;" xml:space="preserve">
<g>
	<g>
		<path d="M55.056,31.216c-0.85-0.854-2.147-1.174-3.23-0.79c-0.943,0.334-1.609,1.075-1.827,2.032
			c-0.094,0.411-0.098,0.842-0.021,1.259h-4.055v-10h4.047c-0.173,0.948,0.08,1.945,0.767,2.636c1.125,1.132,3.091,1.131,4.212,0
			l3.493-3.513c1.158-1.163,1.158-3.058,0-4.221l-3.385-3.403c-0.85-0.854-2.147-1.174-3.23-0.79
			c-0.943,0.334-1.609,1.075-1.827,2.032c-0.094,0.411-0.098,0.842-0.021,1.259h-4.055V9.306c0.962,0.179,1.977-0.104,2.636-0.76
			c0.565-0.562,0.877-1.31,0.877-2.106s-0.312-1.544-0.877-2.105l-3.512-3.493c-1.131-1.123-3.093-1.123-4.221,0l-3.403,3.384
			c-0.87,0.864-1.18,2.133-0.791,3.231C37.05,8.631,38.09,9.36,39.348,9.36c0.194,0,0.387-0.018,0.576-0.052v8.409h-20V9.306
			c0.965,0.18,1.977-0.104,2.636-0.76c0.565-0.562,0.877-1.31,0.877-2.106s-0.312-1.544-0.877-2.105l-3.512-3.493
			c-1.13-1.123-3.093-1.123-4.221,0l-3.403,3.384c-0.87,0.864-1.18,2.133-0.791,3.231C11.05,8.631,12.09,9.36,13.348,9.36
			c0.194,0,0.387-0.018,0.576-0.052v8.409H9.905c0.096-0.917-0.215-1.897-0.923-2.61c-1.125-1.131-3.088-1.131-4.212,0L1.276,18.62
			c-1.157,1.164-1.157,3.057,0,4.221l3.493,3.513c1.125,1.131,3.086,1.131,4.213,0c0.714-0.72,1.027-1.71,0.927-2.636h4.013v10
			H9.905c0.096-0.917-0.215-1.897-0.923-2.61c-1.125-1.131-3.088-1.131-4.212,0l-3.494,3.513c-1.157,1.164-1.157,3.057,0,4.221
			l3.493,3.513c1.125,1.131,3.086,1.131,4.213,0c0.714-0.72,1.027-1.71,0.927-2.636h4.013v10.5c-0.935-0.098-1.935,0.253-2.61,0.925
			c-0.565,0.563-0.877,1.31-0.877,2.106c0,0.796,0.312,1.543,0.877,2.105l3.513,3.494c1.13,1.123,3.09,1.124,4.221,0l3.512-3.494
			c0.565-0.562,0.877-1.31,0.877-2.105c0-0.796-0.312-1.544-0.877-2.107c-0.678-0.674-1.685-1.021-2.636-0.924v-10.5h20v10.5
			c-0.937-0.098-1.935,0.253-2.61,0.925c-0.565,0.563-0.877,1.31-0.877,2.106c0,0.796,0.312,1.543,0.877,2.105l3.513,3.494
			c0.565,0.562,1.314,0.87,2.11,0.87s1.545-0.309,2.11-0.87l3.512-3.494c0.565-0.562,0.877-1.31,0.877-2.105
			c0.001-0.796-0.311-1.544-0.877-2.107c-0.679-0.674-1.685-1.021-2.636-0.924v-10.5h4.047c-0.173,0.948,0.08,1.945,0.767,2.636
			c1.125,1.132,3.091,1.131,4.212,0l3.493-3.513c1.158-1.163,1.158-3.058,0-4.221L55.056,31.216z M39.922,33.717h-20v-10h20V33.717z
			"/>
		<path d="M24.922,32.717c2.206,0,4-1.794,4-4s-1.794-4-4-4s-4,1.794-4,4S22.717,32.717,24.922,32.717z"/>
		<path d="M34.922,32.717c2.206,0,4-1.794,4-4s-1.794-4-4-4s-4,1.794-4,4S32.717,32.717,34.922,32.717z"/>
	</g>
</g>
<g>
</g>
<g>
</g>
<g>
</g>
<g>
</g>
<g>
</g>
<g>
</g>
<g>
</g>
<g>
</g>
<g>
</g>
<g>
</g>
<g>
</g>
<g>
</g>
<g>
</g>
<g>
</g>
<g>
</g>
</svg>
