<?xml version="1.0" encoding="iso-8859-1"?>
<!-- Generator: Adobe Illustrator 19.0.0, SVG Export Plug-In . SVG Version: 6.00 Build 0)  -->
<svg version="1.1" id="Capa_1" xmlns="http://www.w3.org/2000/svg" xmlns:xlink="http://www.w3.org/1999/xlink" x="0px" y="0px"
	 viewBox="0 0 58.239 58.239" style="enable-background:new 0 0 58.239 58.239;" xml:space="preserve">
<g>
	<g>
		<path d="M29.12,18.239c-11.028,0-20,8.972-20,20s8.972,20,20,20s20-8.972,20-20S40.148,18.239,29.12,18.239z"/>
		<path d="M53.673,21.962L30.127,0.379c-0.551-0.506-1.464-0.505-2.013-0.001L4.568,21.962c-0.591,0.541-0.936,1.28-0.971,2.081
			s0.244,1.567,0.786,2.158c1.075,1.172,3.064,1.259,4.239,0.185L29.12,7.595l20.499,18.791c0.555,0.509,1.274,0.788,2.026,0.788
			c0.839,0,1.646-0.354,2.212-0.973c0.542-0.591,0.82-1.357,0.786-2.158S54.264,22.503,53.673,21.962z"/>
	</g>
</g>
<g>
</g>
<g>
</g>
<g>
</g>
<g>
</g>
<g>
</g>
<g>
</g>
<g>
</g>
<g>
</g>
<g>
</g>
<g>
</g>
<g>
</g>
<g>
</g>
<g>
</g>
<g>
</g>
<g>
</g>
</svg>
