<?xml version="1.0" encoding="iso-8859-1"?>
<!-- Generator: Adobe Illustrator 19.0.0, SVG Export Plug-In . SVG Version: 6.00 Build 0)  -->
<svg version="1.1" id="Layer_1" xmlns="http://www.w3.org/2000/svg" xmlns:xlink="http://www.w3.org/1999/xlink" x="0px" y="0px"
	 viewBox="0 0 511.999 511.999" style="enable-background:new 0 0 511.999 511.999;" xml:space="preserve">
<g>
	<g>
		<path d="M469.688,100.676h-59.363V70.22c0-8.917-7.228-16.145-16.145-16.145h-68.163c-8.917,0-16.145,7.228-16.145,16.145v30.456
			H202.128V70.22c0-8.917-7.228-16.145-16.145-16.145H117.82c-8.917,0-16.145,7.228-16.145,16.145v30.456H42.312
			C18.944,100.676,0,119.619,0,142.988v36.36c0,8.917,7.228,16.145,16.145,16.145h11.136v246.286
			c0,8.917,7.228,16.145,16.145,16.145h425.148c8.917,0,16.145-7.228,16.145-16.145V195.492h11.136
			c8.917,0,16.145-7.228,16.145-16.145v-36.36C512,119.619,493.056,100.676,469.688,100.676z M304.2,293.324l-71.397,97.623
			c-1.624,2.222-4.577,3.011-7.093,1.898s-3.918-3.83-3.366-6.526l14.844-72.572h-36.614c-3.535,0-6.771-1.986-8.37-5.139
			c-1.599-3.152-1.293-6.935,0.794-9.789l71.397-97.623c1.624-2.222,4.577-3.011,7.093-1.898s3.918,3.83,3.366,6.526l-14.844,72.572
			h36.614c3.535,0,6.771,1.987,8.37,5.139C306.593,286.686,306.287,290.47,304.2,293.324z"/>
	</g>
</g>
<g>
</g>
<g>
</g>
<g>
</g>
<g>
</g>
<g>
</g>
<g>
</g>
<g>
</g>
<g>
</g>
<g>
</g>
<g>
</g>
<g>
</g>
<g>
</g>
<g>
</g>
<g>
</g>
<g>
</g>
</svg>
