<?xml version="1.0" encoding="iso-8859-1"?>
<!-- Generator: Adobe Illustrator 19.0.0, SVG Export Plug-In . SVG Version: 6.00 Build 0)  -->
<svg version="1.1" id="Layer_1" xmlns="http://www.w3.org/2000/svg" xmlns:xlink="http://www.w3.org/1999/xlink" x="0px" y="0px"
	 viewBox="0 0 512 512" style="enable-background:new 0 0 512 512;" xml:space="preserve">
<g>
	<g>
		<path d="M134.241,463.513l5.265,37.111c0.925,6.518,6.502,11.376,13.085,11.376c39.511,0,167.265,0,206.794,0
			c6.597,0,12.159-4.844,13.085-11.376l5.265-37.111H134.241z"/>
	</g>
</g>
<g>
	<g>
		<path d="M386.723,400.149l6.516-45.925H118.736l6.516,45.925c-8.41,1.185-14.887,8.39-14.887,17.127
			c0,8.426,6.022,15.44,13.994,16.99h263.257c7.973-1.55,13.994-8.564,13.994-16.99
			C401.612,408.539,395.134,401.333,386.723,400.149z"/>
	</g>
</g>
<g>
	<g>
		<path d="M466.673,209.746C466.167,94.001,371.85,0,255.988,0C139.815,0,45.3,94.515,45.3,210.688
			c0,9.564,7.753,17.317,17.317,17.317h38.213l8.828,62.227c-8.41,1.185-14.887,8.39-14.887,17.127
			c0,9.564,7.753,17.317,17.317,17.317h287.8c9.564,0,17.317-7.753,17.317-17.317c0-8.737-6.477-15.942-14.887-17.127l8.828-62.227
			h38.213c0.008-0.001,0.014,0,0.023,0c9.564,0,17.317-7.753,17.317-17.317C466.699,210.372,466.69,210.057,466.673,209.746z
			 M416.054,193.371v-0.001c0.505-3.763-0.628-7.562-3.117-10.433c-2.511-2.897-6.158-4.574-9.992-4.574
			c-54.743,0-239.202,0-293.914,0c-3.836,0-7.484,1.665-9.997,4.564c-2.491,2.873-3.617,6.678-3.112,10.444H80.778
			c8.727-88.98,83.974-158.737,175.209-158.737s166.482,69.757,175.209,158.737H416.054z"/>
	</g>
</g>
<g>
</g>
<g>
</g>
<g>
</g>
<g>
</g>
<g>
</g>
<g>
</g>
<g>
</g>
<g>
</g>
<g>
</g>
<g>
</g>
<g>
</g>
<g>
</g>
<g>
</g>
<g>
</g>
<g>
</g>
</svg>
