<?xml version="1.0" encoding="iso-8859-1"?>
<!-- Generator: Adobe Illustrator 19.0.0, SVG Export Plug-In . SVG Version: 6.00 Build 0)  -->
<svg version="1.1" id="Layer_1" xmlns="http://www.w3.org/2000/svg" xmlns:xlink="http://www.w3.org/1999/xlink" x="0px" y="0px"
	 viewBox="0 0 511.999 511.999" style="enable-background:new 0 0 511.999 511.999;" xml:space="preserve">
<g>
	<g>
		<path d="M421.501,52.915H387.16V35.577C387.16,15.928,371.232,0,351.583,0H160.416c-19.649,0-35.577,15.928-35.577,35.577v17.338
			H90.498c-19.65,0-35.579,15.929-35.579,35.579s15.929,35.579,35.579,35.579h34.341v17.338c0,19.649,15.928,35.577,35.577,35.577
			h48.144v176.785h-28.163c-16.375,0-29.649,13.274-29.649,29.649c0,16.375,13.274,29.649,29.649,29.649h28.163v39.602
			c0,3.134,0.999,6.184,2.852,8.711l32.71,44.597c2.774,3.784,7.185,6.018,11.877,6.018c4.691,0,9.102-2.235,11.877-6.018
			l32.71-44.597c1.853-2.526,2.852-5.578,2.852-8.711v-39.601h28.163c16.374,0,29.648-13.274,29.648-29.649
			c0-16.375-13.274-29.649-29.649-29.649h-28.163V176.988h48.144c19.649,0,35.577-15.928,35.577-35.577v-17.338h34.341
			c19.65,0,35.579-15.929,35.579-35.579S441.15,52.915,421.501,52.915z"/>
	</g>
</g>
<g>
</g>
<g>
</g>
<g>
</g>
<g>
</g>
<g>
</g>
<g>
</g>
<g>
</g>
<g>
</g>
<g>
</g>
<g>
</g>
<g>
</g>
<g>
</g>
<g>
</g>
<g>
</g>
<g>
</g>
</svg>
