<?xml version="1.0" encoding="iso-8859-1"?>
<!-- Generator: Adobe Illustrator 19.0.0, SVG Export Plug-In . SVG Version: 6.00 Build 0)  -->
<svg version="1.1" id="Layer_1" xmlns="http://www.w3.org/2000/svg" xmlns:xlink="http://www.w3.org/1999/xlink" x="0px" y="0px"
	 viewBox="0 0 512 512" style="enable-background:new 0 0 512 512;" xml:space="preserve">
<g>
	<g>
		<path d="M427.2,28.615L113.931,0.282c-20.419-1.847-40.608,5.435-55.147,19.89C44.245,34.628,36.848,54.777,38.578,75.205
			l18.846,222.599c0.903,10.669,9.827,18.87,20.536,18.87h33.607v41.122H83.293c-8.99,0-16.278,7.287-16.278,16.278v25.701
			c0,8.989,7.287,16.278,16.278,16.278h28.272v78.81c0,9.463,7.672,17.136,17.136,17.136s17.136-7.672,17.136-17.136v-78.81h249.302
			c8.99,0,16.278-7.287,16.278-16.278v-25.701c0-8.989-7.287-16.278-16.278-16.278h-55.575v-41.122h113.497
			c11.383,0,20.609-9.227,20.609-20.609V79.478C473.67,53.054,453.515,30.994,427.2,28.615z M203.625,357.798h-57.79v-41.122h57.79
			V357.798z M305.294,357.798h-67.399v-41.122h67.399V357.798z M384.118,137.76h-0.001c0,13.64-11.058,24.698-24.697,24.698H166.886
			c-28.03,0-50.752-22.723-50.752-50.752c0-14.06,5.833-27.49,16.108-37.088c10.274-9.597,24.07-14.502,38.099-13.545l190.761,13.01
			c12.958,0.884,23.017,11.652,23.017,24.64V137.76z"/>
	</g>
</g>
<g>
</g>
<g>
</g>
<g>
</g>
<g>
</g>
<g>
</g>
<g>
</g>
<g>
</g>
<g>
</g>
<g>
</g>
<g>
</g>
<g>
</g>
<g>
</g>
<g>
</g>
<g>
</g>
<g>
</g>
</svg>
