<?xml version="1.0" encoding="iso-8859-1"?>
<!-- Generator: Adobe Illustrator 19.0.0, SVG Export Plug-In . SVG Version: 6.00 Build 0)  -->
<svg version="1.1" id="Layer_1" xmlns="http://www.w3.org/2000/svg" xmlns:xlink="http://www.w3.org/1999/xlink" x="0px" y="0px"
	 viewBox="0 0 512 512" style="enable-background:new 0 0 512 512;" xml:space="preserve">
<g>
	<g>
		<path d="M360.685,0h-99.159v49.706c0,9.22-7.475,16.696-16.696,16.696c-9.22,0-16.696-7.475-16.696-16.696V0H208.1v79.758
			c0,9.22-7.475,16.696-16.696,16.696c-9.22,0-16.696-7.475-16.696-16.696V0h-23.394c-5.416,0-9.808,4.391-9.808,9.808V166.37
			h228.986v-0.001V9.808C370.493,4.392,366.102,0,360.685,0z"/>
	</g>
</g>
<g>
	<g>
		<path d="M141.508,199.76v48.44c0,15.675,12.708,28.383,28.383,28.383h53.628c-16.451,63.346-27.336,154.536-27.336,175.598
			C196.181,485.218,222.963,512,256.001,512s59.819-26.782,59.819-59.819c0-21.062-10.886-112.253-27.336-175.598h53.628
			c15.675,0,28.383-12.708,28.383-28.383v-48.44H141.508z M256.001,473.407c-11.723,0-21.226-9.503-21.226-21.226
			s9.503-21.226,21.226-21.226s21.226,9.503,21.226,21.226S267.723,473.407,256.001,473.407z"/>
	</g>
</g>
<g>
</g>
<g>
</g>
<g>
</g>
<g>
</g>
<g>
</g>
<g>
</g>
<g>
</g>
<g>
</g>
<g>
</g>
<g>
</g>
<g>
</g>
<g>
</g>
<g>
</g>
<g>
</g>
<g>
</g>
</svg>
