<?xml version="1.0" encoding="iso-8859-1"?>
<!-- Generator: Adobe Illustrator 19.0.0, SVG Export Plug-In . SVG Version: 6.00 Build 0)  -->
<svg version="1.1" id="Layer_1" xmlns="http://www.w3.org/2000/svg" xmlns:xlink="http://www.w3.org/1999/xlink" x="0px" y="0px"
	 viewBox="0 0 512 512" style="enable-background:new 0 0 512 512;" xml:space="preserve">
<g>
	<g>
		<path d="M475.371,25.553h-73.258c-20.23,0-36.629,16.399-36.629,36.629c0,17.564,12.366,32.234,28.865,35.796v223.339
			c0,41.232-33.545,74.777-74.777,74.777c-37.906,0-69.294-28.358-74.114-64.97c13.779-5.261,23.57-18.595,23.57-34.223
			c0-16.092-10.382-29.75-24.81-34.669c-6.096-64.538-60.583-115.203-126.688-115.203H72.017
			c-4.172-15.642-18.432-27.168-35.389-27.168C16.399,119.863,0,136.263,0,156.493v73.258c0,20.23,16.399,36.629,36.629,36.629
			c17.611,0,32.315-12.431,35.827-28.996h45.075c15.976,0,29.611,10.205,34.737,24.437c-15.092,4.526-26.092,18.517-26.092,35.083
			c0,17.493,12.266,32.112,28.663,35.75c5.845,85.784,77.491,153.795,164.733,153.795c91.052,0,165.129-74.077,165.129-165.129
			V97.608C500.411,93.481,512,79.187,512,62.182C512,41.952,495.601,25.553,475.371,25.553z"/>
	</g>
</g>
<g>
</g>
<g>
</g>
<g>
</g>
<g>
</g>
<g>
</g>
<g>
</g>
<g>
</g>
<g>
</g>
<g>
</g>
<g>
</g>
<g>
</g>
<g>
</g>
<g>
</g>
<g>
</g>
<g>
</g>
</svg>
