<?xml version="1.0" encoding="iso-8859-1"?>
<!-- Generator: Adobe Illustrator 19.0.0, SVG Export Plug-In . SVG Version: 6.00 Build 0)  -->
<svg version="1.1" id="Layer_1" xmlns="http://www.w3.org/2000/svg" xmlns:xlink="http://www.w3.org/1999/xlink" x="0px" y="0px"
	 viewBox="0 0 512 512" style="enable-background:new 0 0 512 512;" xml:space="preserve">
<g>
	<g>
		<polygon points="205.503,310.783 205.503,343.591 306.497,313.237 306.497,280.429 		"/>
	</g>
</g>
<g>
	<g>
		<polygon points="205.503,242.823 205.503,275.631 306.497,245.277 306.497,212.469 		"/>
	</g>
</g>
<g>
	<g>
		<path d="M205.503,446.704v8.408c0,3.35,1.192,6.59,3.362,9.142l36.387,42.777C247.933,510.184,251.863,512,256,512
			s8.067-1.816,10.748-4.968l36.387-42.777c2.17-2.552,3.362-5.793,3.362-9.142V416.35L205.503,446.704z"/>
	</g>
</g>
<g>
	<g>
		<path d="M256,182.2c-17.486,0-34.516-0.821-50.497-2.385v27.855l89.407-26.872C282.376,181.715,269.324,182.2,256,182.2z"/>
	</g>
</g>
<g>
	<g>
		<polygon points="205.503,378.744 205.503,411.553 306.497,381.199 306.497,348.39 		"/>
	</g>
</g>
<g>
	<g>
		<path d="M272.832,0v73.827c0,9.296-7.536,16.832-16.832,16.832c-9.296,0-16.832-7.536-16.832-16.832V0
			c-68.285,7.123-121.185,56.657-121.185,107.402c0,27.423,69.009,41.133,138.017,41.133s138.017-13.712,138.017-41.133
			C394.017,56.657,341.117,7.123,272.832,0z"/>
	</g>
</g>
<g>
</g>
<g>
</g>
<g>
</g>
<g>
</g>
<g>
</g>
<g>
</g>
<g>
</g>
<g>
</g>
<g>
</g>
<g>
</g>
<g>
</g>
<g>
</g>
<g>
</g>
<g>
</g>
<g>
</g>
</svg>
