<?xml version="1.0" encoding="iso-8859-1"?>
<!-- Generator: Adobe Illustrator 19.0.0, SVG Export Plug-In . SVG Version: 6.00 Build 0)  -->
<svg version="1.1" id="Layer_1" xmlns="http://www.w3.org/2000/svg" xmlns:xlink="http://www.w3.org/1999/xlink" x="0px" y="0px"
	 viewBox="0 0 511.999 511.999" style="enable-background:new 0 0 511.999 511.999;" xml:space="preserve">
<g>
	<g>
		<path d="M150.792,136.99V32.496C150.792,14.549,136.244,0,118.297,0H70.702C52.755,0,38.207,14.549,38.207,32.496V136.99
			c17.95,2.817,31.769,20.148,31.769,41.117c0,20.969-13.819,38.3-31.769,41.117v25.13c0,4.695,3.806,8.501,8.502,8.501h30.973
			v169.628h-0.183c-2.376,0-4.644,0.994-6.254,2.742s-2.415,4.09-2.219,6.458l5.98,72.511c0.363,4.409,4.048,7.803,8.474,7.803h23.1
			c4.425,0,8.109-3.394,8.474-7.803l5.98-72.511c0.195-2.368-0.61-4.71-2.219-6.458c-1.61-1.748-3.878-2.742-6.254-2.742h-1.244
			V252.856h30.974c4.695,0,8.501-3.806,8.501-8.502v-25.13c-17.95-2.819-31.769-20.148-31.769-41.117
			C119.023,157.138,132.842,139.808,150.792,136.99z"/>
	</g>
</g>
<g>
	<g>
		<path d="M442.023,178.108c0-20.97,13.819-38.3,31.768-41.117V32.496C473.791,14.549,459.242,0,441.295,0H393.7
			c-17.947,0-32.496,14.549-32.496,32.496V136.99c17.95,2.817,31.769,20.148,31.769,41.117c0,20.969-13.819,38.3-31.768,41.117
			v25.13c0,4.695,3.806,8.501,8.502,8.501h30.974v90.029h-0.184c-2.376,0-4.644,0.994-6.254,2.742
			c-1.61,1.748-2.415,4.09-2.219,6.458l5.98,72.511c0.363,4.409,4.048,7.803,8.473,7.803h23.1c4.425,0,8.109-3.394,8.474-7.803
			l5.98-72.511c0.195-2.368-0.61-4.71-2.219-6.458c-1.61-1.748-3.877-2.742-6.254-2.742h-1.243v-90.029h30.974
			c4.695,0,8.502-3.806,8.502-8.501v-25.13C455.841,216.406,442.023,199.077,442.023,178.108z"/>
	</g>
</g>
<g>
	<g>
		<path d="M312.292,136.99V32.496C312.292,14.549,297.743,0,279.796,0h-47.595c-17.947,0-32.496,14.549-32.496,32.496V136.99
			c17.95,2.817,31.769,20.148,31.769,41.117c0,20.969-13.819,38.3-31.769,41.117v25.13c0,4.695,3.806,8.501,8.501,8.501h30.974
			v133.753h-0.184c-2.377,0-4.644,0.994-6.254,2.742c-1.61,1.748-2.415,4.09-2.219,6.458l5.98,72.511
			c0.363,4.409,4.048,7.803,8.473,7.803h23.1c4.424,0,8.109-3.394,8.473-7.803l5.98-72.511c0.195-2.368-0.609-4.71-2.219-6.458
			c-1.61-1.748-3.877-2.742-6.254-2.742h-1.243V252.856h30.973c4.695,0,8.501-3.806,8.501-8.502v-25.13
			c-17.949-2.819-31.768-20.148-31.768-41.117C280.522,157.138,294.341,139.808,312.292,136.99z"/>
	</g>
</g>
<g>
</g>
<g>
</g>
<g>
</g>
<g>
</g>
<g>
</g>
<g>
</g>
<g>
</g>
<g>
</g>
<g>
</g>
<g>
</g>
<g>
</g>
<g>
</g>
<g>
</g>
<g>
</g>
<g>
</g>
</svg>
