<?xml version="1.0" encoding="iso-8859-1"?>
<!-- Generator: Adobe Illustrator 19.0.0, SVG Export Plug-In . SVG Version: 6.00 Build 0)  -->
<svg version="1.1" id="Layer_1" xmlns="http://www.w3.org/2000/svg" xmlns:xlink="http://www.w3.org/1999/xlink" x="0px" y="0px"
	 viewBox="0 0 511.999 511.999" style="enable-background:new 0 0 511.999 511.999;" xml:space="preserve">
<g>
	<g>
		<path d="M483.631,140.062h-91.348l-3.283-48.27c-2.326-34.194-30.995-60.981-65.269-60.981h-135.46
			c-34.273,0-62.943,26.785-65.269,60.979l-3.283,48.271H28.369C12.702,140.062,0,152.763,0,168.431v284.387
			c0,15.669,12.702,28.369,28.369,28.369H483.63c15.669,0,28.369-12.702,28.369-28.369V168.431
			C512,152.763,499.298,140.062,483.631,140.062z M200.261,109.066h111.477l2.108,30.997H198.153L200.261,109.066z M435.983,412.912
			H76.017c-9.261,0-16.769-7.508-16.769-16.769c0-9.261,7.508-16.769,16.769-16.769h359.965c9.261,0,16.769,7.508,16.769,16.769
			C452.751,405.405,445.243,412.912,435.983,412.912z M435.983,327.952H76.017c-9.261,0-16.769-7.508-16.769-16.769
			c0-9.261,7.508-16.769,16.769-16.769h359.965c9.261,0,16.769,7.508,16.769,16.769
			C452.751,320.444,445.243,327.952,435.983,327.952z M435.983,250.816H76.017c-9.261,0-16.769-7.508-16.769-16.769
			c0-9.261,7.508-16.769,16.769-16.769h359.965c9.261,0,16.769,7.508,16.769,16.769
			C452.751,243.308,445.243,250.816,435.983,250.816z"/>
	</g>
</g>
<g>
</g>
<g>
</g>
<g>
</g>
<g>
</g>
<g>
</g>
<g>
</g>
<g>
</g>
<g>
</g>
<g>
</g>
<g>
</g>
<g>
</g>
<g>
</g>
<g>
</g>
<g>
</g>
<g>
</g>
</svg>
