<?xml version="1.0" encoding="iso-8859-1"?>
<!-- Generator: Adobe Illustrator 19.0.0, SVG Export Plug-In . SVG Version: 6.00 Build 0)  -->
<svg version="1.1" id="Layer_1" xmlns="http://www.w3.org/2000/svg" xmlns:xlink="http://www.w3.org/1999/xlink" x="0px" y="0px"
	 viewBox="0 0 512.001 512.001" style="enable-background:new 0 0 512.001 512.001;" xml:space="preserve">
<g>
	<g>
		<path d="M362.476,261.866v-15.135c9.5,0,17.2-7.701,17.2-17.2s-7.701-17.2-17.2-17.2v-11.085
			c10.499-29.588,9.902-27.699,10.056-28.668c0.587-3.67-2.252-6.88-5.859-6.88h-64.157c-3.609,0-6.445,3.212-5.859,6.88
			c0.154,0.969-0.442-0.921,10.056,28.668v11.085c-9.5,0-17.2,7.701-17.2,17.2s7.701,17.2,17.2,17.2v15.135
			c-9.5,0-17.2,7.701-17.2,17.2s7.701,17.2,17.2,17.2v0.153h55.762v-0.153c9.5,0,17.2-7.701,17.2-17.2
			S371.975,261.866,362.476,261.866z"/>
	</g>
</g>
<g>
	<g>
		<path d="M390.241,338.23c-0.673-4.267-4.35-7.409-8.669-7.409H181.42V97.47h97.347v30.095c0,5.861,4.751,10.613,10.613,10.613
			h87.795c3.585,0,6.927-1.81,8.887-4.812c1.96-3.002,2.27-6.791,0.827-10.073l-13.074-29.726C348.806,36.707,292.561,0,230.445,0
			h-55.68c-50.789,0-91.962,41.173-91.962,91.962v226.64c0,29.529,14.127,57.276,38.005,74.647
			c23.915,17.397,54.668,22.257,82.721,13.18l180.744-58.481C388.383,346.619,390.914,342.497,390.241,338.23z"/>
	</g>
</g>
<g>
	<g>
		<path d="M411.996,442.052h-49.52v-50.895L306.714,409.2v32.852h-49.521c-9.5,0-17.2,7.701-17.2,17.2s7.701,17.2,17.2,17.2h49.521
			v29.604c0,3.282,2.661,5.944,5.944,5.944h43.875c3.282,0,5.944-2.661,5.944-5.944v-29.604h49.52c9.5,0,17.2-7.701,17.2-17.2
			S421.496,442.052,411.996,442.052z"/>
	</g>
</g>
<g>
</g>
<g>
</g>
<g>
</g>
<g>
</g>
<g>
</g>
<g>
</g>
<g>
</g>
<g>
</g>
<g>
</g>
<g>
</g>
<g>
</g>
<g>
</g>
<g>
</g>
<g>
</g>
<g>
</g>
</svg>
