<?xml version="1.0" encoding="iso-8859-1"?>
<!-- Generator: Adobe Illustrator 19.0.0, SVG Export Plug-In . SVG Version: 6.00 Build 0)  -->
<svg version="1.1" id="Layer_1" xmlns="http://www.w3.org/2000/svg" xmlns:xlink="http://www.w3.org/1999/xlink" x="0px" y="0px"
	 viewBox="0 0 512.002 512.002" style="enable-background:new 0 0 512.002 512.002;" xml:space="preserve">
<g>
	<g>
		<path d="M472.231,63.298V51.645c0-9.283-7.526-16.81-16.81-16.81c-9.283,0-16.81,7.526-16.81,16.81v11.652
			c-10.045,5.814-16.81,16.67-16.81,29.111v68.341c0,12.441,6.764,23.297,16.81,29.111v249.816
			c0,21.342-17.362,38.705-38.704,38.705H207.487c-21.342,0-38.704-17.363-38.704-38.705V386.22h49.874
			c-0.001,0.062-0.009,0.121-0.009,0.184v23.603c0,19.635,15.975,35.607,35.608,35.607H355.15c19.635,0,35.608-15.974,35.608-35.607
			V189.86c10.045-5.814,16.81-16.67,16.81-29.111V92.408c0-12.441-6.764-23.297-16.81-29.111V51.645
			c0-9.283-7.526-16.81-16.81-16.81s-16.81,7.526-16.81,16.81v11.652c-10.045,5.814-16.81,16.67-16.81,29.111v68.341
			c0,12.441,6.764,23.297,16.81,29.111v220.146c0,1.097-0.893,1.988-1.989,1.988H254.257c-1.097,0-1.989-0.892-1.989-1.988v-23.603
			c0-0.062-0.009-0.121-0.009-0.184h18.404c17.174,0,31.097-13.922,31.097-31.097V31.097C301.759,13.922,287.836,0,270.662,0H54.057
			C36.883,0,22.961,13.922,22.961,31.097v324.029c0,17.174,13.922,31.097,31.097,31.097h81.107v53.456
			c0,39.88,32.444,72.324,72.323,72.324h192.421c39.879,0,72.323-32.444,72.323-72.324V189.86
			c10.045-5.814,16.81-16.67,16.81-29.111V92.408C489.041,79.967,482.277,69.112,472.231,63.298z M66.993,139.106V68.791
			c0-10.564,8.564-19.129,19.128-19.129h152.477c10.564,0,19.129,8.564,19.129,19.129v70.316c0,10.564-8.564,19.129-19.129,19.129
			H86.122C75.558,158.236,66.993,149.672,66.993,139.106z M106.244,326.635c-30.991-30.991-30.991-81.239,0-112.231
			c30.991-30.992,81.239-30.991,112.231,0c30.992,30.991,30.991,81.239,0,112.231C187.484,357.627,137.237,357.626,106.244,326.635z
			"/>
	</g>
</g>
<g>
	<g>
		<path d="M204.972,227.908c-6.565-6.565-17.209-6.565-23.772,0l-61.45,61.45c-6.565,6.564-6.565,17.208,0,23.772
			c6.565,6.565,17.207,6.565,23.772,0l61.45-61.45C211.536,245.117,211.536,234.473,204.972,227.908z"/>
	</g>
</g>
<g>
	<g>
		<path d="M132.226,123.69h-23.252v-0.799c0-8.075,27.423-14.377,27.423-33.635c0-11.892-10.384-18.372-20.678-18.372
			c-10.116,0-20.056,6.213-20.056,17.039c0,5.591,2.663,7.189,6.213,7.189c4.526,0,7.277-2.486,7.277-5.059
			c0-4.88,3.105-6.655,6.656-6.655c4.97,0,6.745,3.461,6.745,6.3c0,11.271-27.956,19.259-27.956,33.191v8.609
			c-0.001,2.575,3.549,4.262,6.035,4.262h31.593c2.218,0,4.171-2.928,4.171-6.123C136.397,126.441,134.445,123.69,132.226,123.69z"
			/>
	</g>
</g>
<g>
	<g>
		<path d="M178.109,123.69h-23.252v-0.799c0-8.075,27.423-14.377,27.423-33.635c0-11.892-10.384-18.372-20.678-18.372
			c-10.116,0-20.056,6.213-20.056,17.039c0,5.591,2.663,7.189,6.213,7.189c4.526,0,7.277-2.486,7.277-5.059
			c0-4.88,3.105-6.655,6.656-6.655c4.97,0,6.745,3.461,6.745,6.3c0,11.271-27.956,19.259-27.956,33.191v8.609
			c0,2.575,3.55,4.262,6.035,4.262h31.593c2.218,0,4.171-2.928,4.171-6.123C182.28,126.441,180.327,123.69,178.109,123.69z"/>
	</g>
</g>
<g>
	<g>
		<path d="M209.527,70.886c-12.246,0-21.743,5.679-21.743,20.945v23.517c0,15.265,9.495,20.946,21.743,20.946
			s21.831-5.679,21.831-20.945V91.831C231.358,76.566,221.773,70.886,209.527,70.886z M217.514,115.348
			c0,6.124-3.017,8.875-7.987,8.875c-4.971,0-7.899-2.751-7.899-8.875V91.831c0-6.124,2.928-8.875,7.899-8.875
			c4.97,0,7.987,2.751,7.987,8.875V115.348z"/>
	</g>
</g>
<g>
</g>
<g>
</g>
<g>
</g>
<g>
</g>
<g>
</g>
<g>
</g>
<g>
</g>
<g>
</g>
<g>
</g>
<g>
</g>
<g>
</g>
<g>
</g>
<g>
</g>
<g>
</g>
<g>
</g>
</svg>
