<?xml version="1.0" encoding="iso-8859-1"?>
<!-- Generator: Adobe Illustrator 19.0.0, SVG Export Plug-In . SVG Version: 6.00 Build 0)  -->
<svg version="1.1" id="Layer_1" xmlns="http://www.w3.org/2000/svg" xmlns:xlink="http://www.w3.org/1999/xlink" x="0px" y="0px"
	 viewBox="0 0 512.001 512.001" style="enable-background:new 0 0 512.001 512.001;" xml:space="preserve">
<g>
	<g>
		<path d="M501.219,209.069l-7.847-84.892c-0.188-2.036-1.083-3.942-2.528-5.387L374.62,2.566c-3.421-3.421-8.967-3.421-12.388,0
			l-52.65,52.65c-3.421,3.421-3.421,8.967,0,12.388l57.294,57.294l-21.68,21.68l-57.294-57.294c-3.421-3.421-8.967-3.421-12.388,0
			l-52.65,52.65c-3.421,3.421-3.421,8.967,0,12.388l57.294,57.294L174.198,317.576l-11.715-11.715
			c-11.916-11.916-31.238-11.916-43.154,0c-3.566,3.566-4.049,9.811-2.976,16.813c3.363,21.929-7.589,43.549-27.249,53.832
			c-26.541,13.882-52.203,31.817-62.304,41.918c-21.408,21.408-21.408,56.115,0,77.521c21.408,21.408,56.115,21.408,77.523,0
			c10.1-10.1,28.036-35.763,41.918-62.304c10.274-19.644,31.919-30.61,53.832-27.249c7.001,1.074,13.246,0.591,16.813-2.976
			c11.916-11.916,11.916-31.238,0-43.154l-11.715-11.715l105.962-105.961l27.959,27.959c1.446,1.446,3.352,2.341,5.387,2.528
			l84.892,7.846c2.594,0.24,5.159-0.687,7.001-2.528l14.126-14.127c3.421-3.421,3.421-8.967,0-12.388l-74.328-74.328l21.68-21.68
			l74.328,74.328c3.421,3.421,8.967,3.421,12.388,0l14.127-14.127C500.533,214.228,501.459,211.662,501.219,209.069z"/>
	</g>
</g>
<g>
</g>
<g>
</g>
<g>
</g>
<g>
</g>
<g>
</g>
<g>
</g>
<g>
</g>
<g>
</g>
<g>
</g>
<g>
</g>
<g>
</g>
<g>
</g>
<g>
</g>
<g>
</g>
<g>
</g>
</svg>
