<?xml version="1.0" encoding="iso-8859-1"?>
<!-- Generator: Adobe Illustrator 19.0.0, SVG Export Plug-In . SVG Version: 6.00 Build 0)  -->
<svg version="1.1" id="Layer_1" xmlns="http://www.w3.org/2000/svg" xmlns:xlink="http://www.w3.org/1999/xlink" x="0px" y="0px"
	 viewBox="0 0 512.003 512.003" style="enable-background:new 0 0 512.003 512.003;" xml:space="preserve">
<g>
	<g>
		<g>
			<path d="M366.935,60.237c-38.34,4.258-68.267,36.83-68.267,76.297c0,42.351,34.458,76.8,76.8,76.8
				c7.953,0,15.633-1.22,22.852-3.473l-31.386-62.78V60.237z"/>
			<path d="M145.068,60.237V153.6H61.715c7.791,34.15,38.349,59.733,74.82,59.733c42.342,0,76.8-34.449,76.8-76.8
				C213.335,97.067,183.409,64.495,145.068,60.237z"/>
			<path d="M438.049,92.172c-0.759-1.067-1.536-2.108-2.347-3.132c-0.674-0.853-1.357-1.69-2.065-2.509
				c-0.853-0.99-1.724-1.946-2.628-2.893c-0.742-0.777-1.493-1.553-2.278-2.313c-0.93-0.896-1.903-1.766-2.884-2.62
				c-0.819-0.717-1.63-1.425-2.475-2.099c-1.024-0.819-2.082-1.596-3.149-2.364c-0.87-0.623-1.732-1.263-2.628-1.852
				c-1.118-0.734-2.27-1.408-3.422-2.082c-0.913-0.538-1.809-1.092-2.748-1.596c-1.22-0.649-2.492-1.22-3.746-1.809
				c-0.93-0.427-1.826-0.887-2.773-1.28c-1.425-0.597-2.91-1.101-4.386-1.613c-0.811-0.282-1.613-0.614-2.441-0.87
				c-2.304-0.717-4.642-1.323-7.031-1.818c-0.708-0.145-1.442-0.213-2.159-0.341c-1.621-0.282-3.234-0.563-4.89-0.742v82.808
				l29.926,59.861c0.094-0.06,0.179-0.111,0.265-0.162c2.534-1.476,4.924-3.115,7.236-4.83c0.538-0.401,1.084-0.785,1.613-1.203
				c2.108-1.655,4.104-3.413,6.007-5.257c0.964-0.947,1.877-1.946,2.79-2.944c1.178-1.263,2.338-2.551,3.422-3.891
				c0.998-1.237,1.937-2.517,2.859-3.823c0.717-1.007,1.399-2.031,2.065-3.072c0.887-1.399,1.775-2.799,2.577-4.25
				c0.666-1.212,1.237-2.466,1.835-3.703c1.058-2.193,2.005-4.429,2.859-6.724c0.589-1.613,1.178-3.217,1.655-4.873
				c0.358-1.203,0.648-2.423,0.947-3.652c0.444-1.877,0.828-3.78,1.135-5.709c0.171-1.033,0.35-2.065,0.478-3.115
				c0.358-3.021,0.597-6.067,0.597-9.165c0-2.569-0.136-5.094-0.384-7.595c-0.077-0.828-0.239-1.63-0.35-2.458
				c-0.213-1.647-0.427-3.302-0.751-4.915c-0.188-0.964-0.461-1.903-0.683-2.85c-0.341-1.442-0.683-2.884-1.109-4.292
				c-0.299-0.99-0.657-1.954-0.99-2.927c-0.461-1.314-0.913-2.637-1.442-3.925c-0.401-0.981-0.853-1.937-1.289-2.893
				c-0.563-1.229-1.135-2.458-1.758-3.644c-0.504-0.956-1.033-1.877-1.57-2.807c-0.666-1.143-1.348-2.278-2.065-3.388
				C439.287,93.939,438.672,93.051,438.049,92.172z"/>
			<path d="M512,46.918c0-21.171-17.22-38.383-38.383-38.383H38.391C17.22,8.535,0,25.747,0,46.918v268.817h512V46.918z
				 M119.467,298.669H85.333c-4.71,0-8.533-3.814-8.533-8.533c0-4.719,3.823-8.533,8.533-8.533h34.133
				c4.71,0,8.533,3.814,8.533,8.533C128,294.854,124.177,298.669,119.467,298.669z M76.8,256.002c0-4.719,3.823-8.533,8.533-8.533
				h8.533c4.71,0,8.533,3.814,8.533,8.533s-3.823,8.533-8.533,8.533h-8.533C80.623,264.535,76.8,260.721,76.8,256.002z
				 M170.667,298.669H153.6c-4.71,0-8.533-3.814-8.533-8.533c0-4.719,3.823-8.533,8.533-8.533h17.067
				c4.71,0,8.533,3.814,8.533,8.533C179.2,294.854,175.377,298.669,170.667,298.669z M170.667,264.535H128
				c-4.71,0-8.533-3.814-8.533-8.533s3.823-8.533,8.533-8.533h42.667c4.71,0,8.533,3.814,8.533,8.533
				S175.377,264.535,170.667,264.535z M136.533,230.402c-45.918,0-84.173-33.178-92.237-76.8h-0.393l-0.734-7.373
				c-0.009-0.077-0.017-0.162-0.026-0.239l-0.009-0.085c-0.307-3.081-0.469-6.204-0.469-9.37c0-51.763,42.112-93.867,93.867-93.867
				h8.533v0.427c47.77,4.335,85.333,44.561,85.333,93.44C230.4,188.29,188.297,230.402,136.533,230.402z M375.467,298.669h-34.133
				c-4.71,0-8.533-3.814-8.533-8.533c0-4.719,3.823-8.533,8.533-8.533h34.133c4.71,0,8.533,3.814,8.533,8.533
				C384,294.854,380.177,298.669,375.467,298.669z M332.8,256.002c0-4.719,3.823-8.533,8.533-8.533h8.533
				c4.71,0,8.533,3.814,8.533,8.533s-3.823,8.533-8.533,8.533h-8.533C336.623,264.535,332.8,260.721,332.8,256.002z
				 M426.667,298.669H409.6c-4.71,0-8.533-3.814-8.533-8.533c0-4.719,3.823-8.533,8.533-8.533h17.067
				c4.71,0,8.533,3.814,8.533,8.533C435.2,294.854,431.377,298.669,426.667,298.669z M426.667,264.535H384
				c-4.71,0-8.533-3.814-8.533-8.533s3.823-8.533,8.533-8.533h42.667c4.71,0,8.533,3.814,8.533,8.533
				S431.377,264.535,426.667,264.535z M468.506,148.363c-0.154,1.246-0.367,2.475-0.572,3.712c-0.452,2.705-1.024,5.367-1.707,7.996
				c-0.333,1.289-0.606,2.586-0.99,3.849c-0.998,3.268-2.167,6.46-3.507,9.557c-0.725,1.698-1.57,3.328-2.398,4.975
				c-0.819,1.63-1.664,3.234-2.577,4.813c-0.99,1.715-1.98,3.413-3.072,5.06c-1.254,1.877-2.611,3.669-3.985,5.444
				c-1.528,1.963-3.115,3.857-4.796,5.7c-1.596,1.766-3.234,3.473-4.958,5.103c-1.007,0.947-2.014,1.886-3.063,2.79
				c-6.118,5.308-12.928,9.805-20.267,13.414c-0.154,0.068-0.282,0.171-0.427,0.239l-1.758,0.853h-0.085
				c-11.861,5.427-25.003,8.533-38.878,8.533c-51.755,0-93.867-42.112-93.867-93.867c0-48.879,37.564-89.105,85.333-93.44v-0.427
				h8.533c51.763,0,93.867,42.104,93.867,93.867C469.333,140.546,469.001,144.48,468.506,148.363z"/>
			<path d="M0.003,332.8v38.417c0,21.163,17.22,38.383,38.383,38.383h152.371c1.212,14.95-5.282,29.705-17.271,38.17l-15.343,10.82
				c-0.99,0.683-1.809,1.51-2.492,2.432c-10.709,1.126-19.115,10.104-19.115,21.111c0,11.768,9.566,21.333,21.333,21.333h196.267
				c11.759,0,21.333-9.566,21.333-21.333c0-10.999-8.405-19.977-19.106-21.111c-0.666-0.905-1.476-1.724-2.44-2.398l-15.386-10.837
				c-12.023-8.474-18.517-23.262-17.297-38.187h152.371c21.171,0,38.391-17.22,38.391-38.383V332.8H0.003z M327.418,460.8H184.587
				c15.744-11.793,24.414-31.326,23.279-51.2h96.273C303.004,429.475,311.666,449.007,327.418,460.8z"/>
			<path d="M128.002,60.237c-1.647,0.179-3.268,0.461-4.89,0.751c-0.708,0.119-1.442,0.196-2.159,0.341
				c-2.381,0.495-4.727,1.101-7.031,1.809c-0.828,0.256-1.621,0.589-2.44,0.879c-1.476,0.512-2.953,1.007-4.386,1.604
				c-0.939,0.393-1.843,0.862-2.765,1.289c-1.263,0.58-2.526,1.152-3.746,1.809c-0.939,0.495-1.843,1.058-2.756,1.596
				c-1.152,0.674-2.304,1.34-3.413,2.074c-0.904,0.589-1.766,1.229-2.637,1.86c-1.067,0.768-2.125,1.536-3.149,2.355
				c-0.845,0.674-1.655,1.391-2.466,2.099c-0.981,0.853-1.954,1.724-2.893,2.628c-0.776,0.751-1.536,1.527-2.278,2.313
				c-0.896,0.939-1.775,1.903-2.628,2.884c-0.7,0.819-1.391,1.655-2.065,2.509c-0.811,1.024-1.587,2.074-2.347,3.132
				c-0.623,0.879-1.237,1.766-1.826,2.671c-0.717,1.109-1.399,2.244-2.065,3.396c-0.529,0.922-1.067,1.852-1.562,2.799
				c-0.623,1.195-1.195,2.415-1.758,3.644c-0.444,0.964-0.896,1.911-1.297,2.893c-0.521,1.289-0.981,2.611-1.434,3.934
				c-0.341,0.973-0.7,1.937-0.998,2.927c-0.427,1.399-0.759,2.842-1.109,4.284c-0.222,0.947-0.486,1.886-0.683,2.85
				c-0.316,1.621-0.529,3.268-0.751,4.924c-0.111,0.819-0.265,1.621-0.35,2.458c-0.247,2.492-0.384,5.026-0.384,7.586h68.267V60.237
				z"/>
		</g>
	</g>
</g>
<g>
</g>
<g>
</g>
<g>
</g>
<g>
</g>
<g>
</g>
<g>
</g>
<g>
</g>
<g>
</g>
<g>
</g>
<g>
</g>
<g>
</g>
<g>
</g>
<g>
</g>
<g>
</g>
<g>
</g>
</svg>
