<?xml version="1.0" encoding="iso-8859-1"?>
<!-- Generator: Adobe Illustrator 19.0.0, SVG Export Plug-In . SVG Version: 6.00 Build 0)  -->
<svg version="1.1" id="Layer_1" xmlns="http://www.w3.org/2000/svg" xmlns:xlink="http://www.w3.org/1999/xlink" x="0px" y="0px"
	 viewBox="0 0 512 512" style="enable-background:new 0 0 512 512;" xml:space="preserve">
<g transform="translate(0 -1)">
	<g>
		<g>
			<path d="M503.467,478.867h-8.533v-8.533c0-4.719-3.814-8.533-8.533-8.533s-8.533,3.814-8.533,8.533v8.533h-25.6v-8.533
				c0-4.719-3.814-8.533-8.533-8.533c-4.719,0-8.533,3.814-8.533,8.533v8.533h-25.6v-8.533c0-4.719-3.814-8.533-8.533-8.533
				c-4.71,0-8.533,3.814-8.533,8.533v8.533h-25.6v-8.533c0-4.719-3.823-8.533-8.533-8.533s-8.533,3.814-8.533,8.533v8.533h-25.6
				v-8.533c0-4.719-3.823-8.533-8.533-8.533s-8.533,3.814-8.533,8.533v8.533h-25.6v-8.533c0-4.719-3.823-8.533-8.533-8.533
				c-4.71,0-8.533,3.814-8.533,8.533v8.533h-25.6v-8.533c0-4.719-3.823-8.533-8.533-8.533s-8.533,3.814-8.533,8.533v8.533h-25.6
				v-8.533c0-4.719-3.823-8.533-8.533-8.533s-8.533,3.814-8.533,8.533v8.533h-25.6v-8.533c0-4.719-3.823-8.533-8.533-8.533
				c-4.71,0-8.533,3.814-8.533,8.533v8.533h-25.6v-8.533c0-4.719-3.823-8.533-8.533-8.533c-4.71,0-8.533,3.814-8.533,8.533v8.533
				h-25.6v-8.533c0-4.719-3.823-8.533-8.533-8.533s-8.533,3.814-8.533,8.533v8.533H34.133v-51.2h8.533
				c4.71,0,8.533-3.814,8.533-8.533s-3.823-8.533-8.533-8.533h-8.533V385h8.533c4.71,0,8.533-3.814,8.533-8.533
				s-3.823-8.533-8.533-8.533h-8.533v-25.6h8.533c4.71,0,8.533-3.814,8.533-8.533s-3.823-8.533-8.533-8.533h-8.533v-25.6h8.533
				c4.71,0,8.533-3.814,8.533-8.533c0-4.719-3.823-8.533-8.533-8.533h-8.533V257h8.533c4.71,0,8.533-3.814,8.533-8.533
				s-3.823-8.533-8.533-8.533h-8.533v-25.6h8.533c4.71,0,8.533-3.814,8.533-8.533s-3.823-8.533-8.533-8.533h-8.533v-25.6h8.533
				c4.71,0,8.533-3.814,8.533-8.533s-3.823-8.533-8.533-8.533h-8.533V129h8.533c4.71,0,8.533-3.814,8.533-8.533
				s-3.823-8.533-8.533-8.533h-8.533v-25.6h8.533c4.71,0,8.533-3.814,8.533-8.533s-3.823-8.533-8.533-8.533h-8.533v-25.6h8.533
				c4.71,0,8.533-3.814,8.533-8.533S47.377,26.6,42.667,26.6h-8.533V9.533C34.133,4.814,30.31,1,25.6,1
				c-4.71,0-8.533,3.814-8.533,8.533V26.6H8.533C3.823,26.6,0,30.414,0,35.133s3.823,8.533,8.533,8.533h8.533v25.6H8.533
				C3.823,69.267,0,73.081,0,77.8s3.823,8.533,8.533,8.533h8.533v25.6H8.533c-4.71,0-8.533,3.814-8.533,8.533S3.823,129,8.533,129
				h8.533v25.6H8.533c-4.71,0-8.533,3.814-8.533,8.533s3.823,8.533,8.533,8.533h8.533v25.6H8.533c-4.71,0-8.533,3.814-8.533,8.533
				s3.823,8.533,8.533,8.533h8.533v25.6H8.533c-4.71,0-8.533,3.814-8.533,8.533S3.823,257,8.533,257h8.533v25.6H8.533
				c-4.71,0-8.533,3.814-8.533,8.533c0,4.719,3.823,8.533,8.533,8.533h8.533v25.6H8.533c-4.71,0-8.533,3.814-8.533,8.533
				s3.823,8.533,8.533,8.533h8.533v25.6H8.533c-4.71,0-8.533,3.814-8.533,8.533S3.823,385,8.533,385h8.533v25.6H8.533
				c-4.71,0-8.533,3.814-8.533,8.533s3.823,8.533,8.533,8.533h8.533v25.6H8.533c-4.71,0-8.533,3.814-8.533,8.533
				c0,4.719,3.823,8.533,8.533,8.533h8.533V487.4c0,4.719,3.823,8.533,8.533,8.533h25.6v8.533c0,4.719,3.823,8.533,8.533,8.533
				s8.533-3.814,8.533-8.533v-8.533h25.6v8.533c0,4.719,3.823,8.533,8.533,8.533c4.71,0,8.533-3.814,8.533-8.533v-8.533h25.6v8.533
				c0,4.719,3.823,8.533,8.533,8.533c4.71,0,8.533-3.814,8.533-8.533v-8.533h25.6v8.533c0,4.719,3.823,8.533,8.533,8.533
				s8.533-3.814,8.533-8.533v-8.533h25.6v8.533c0,4.719,3.823,8.533,8.533,8.533s8.533-3.814,8.533-8.533v-8.533h25.6v8.533
				c0,4.719,3.823,8.533,8.533,8.533c4.71,0,8.533-3.814,8.533-8.533v-8.533h25.6v8.533c0,4.719,3.823,8.533,8.533,8.533
				s8.533-3.814,8.533-8.533v-8.533h25.6v8.533c0,4.719,3.823,8.533,8.533,8.533s8.533-3.814,8.533-8.533v-8.533h25.6v8.533
				c0,4.719,3.823,8.533,8.533,8.533c4.719,0,8.533-3.814,8.533-8.533v-8.533h25.6v8.533c0,4.719,3.814,8.533,8.533,8.533
				c4.719,0,8.533-3.814,8.533-8.533v-8.533h25.6v8.533c0,4.719,3.814,8.533,8.533,8.533s8.533-3.814,8.533-8.533v-8.533h8.533
				c4.719,0,8.533-3.814,8.533-8.533S508.186,478.867,503.467,478.867z"/>
			<path d="M460.8,35.133h42.667c4.719,0,8.533-3.814,8.533-8.533s-3.814-8.533-8.533-8.533H460.8c-4.719,0-8.533,3.814-8.533,8.533
				S456.081,35.133,460.8,35.133z"/>
			<path d="M418.133,35.133h8.533c4.719,0,8.533-3.814,8.533-8.533s-3.814-8.533-8.533-8.533h-8.533
				c-4.719,0-8.533,3.814-8.533,8.533S413.414,35.133,418.133,35.133z"/>
			<path d="M418.133,69.267h34.133c4.719,0,8.533-3.814,8.533-8.533s-3.814-8.533-8.533-8.533h-34.133
				c-4.719,0-8.533,3.814-8.533,8.533S413.414,69.267,418.133,69.267z"/>
			<path d="M503.467,52.2H486.4c-4.719,0-8.533,3.814-8.533,8.533s3.814,8.533,8.533,8.533h17.067c4.719,0,8.533-3.814,8.533-8.533
				S508.186,52.2,503.467,52.2z"/>
			<rect x="76.8" y="26.599" width="119.467" height="85.333"/>
			<path d="M281.6,96.467v-54.4c0-8.525-6.938-15.471-15.471-15.471h-52.796v85.333h52.796
				C274.662,111.929,281.6,104.991,281.6,96.467z"/>
			<rect x="76.8" y="137.532" width="256" height="85.333"/>
			<path d="M435.2,207.4V153c0-8.525-6.938-15.471-15.462-15.471h-69.871v85.333h69.871C428.262,222.862,435.2,215.925,435.2,207.4z
				"/>
			<rect x="76.8" y="248.466" width="68.267" height="85.333"/>
			<path d="M366.933,318.333v-54.4c0-8.525-6.938-15.471-15.462-15.471H162.133v85.333h189.338
				C359.996,333.796,366.933,326.858,366.933,318.333z"/>
			<rect x="76.8" y="359.399" width="187.733" height="85.333"/>
			<path d="M494.933,429.267v-54.4c0-8.525-6.938-15.471-15.462-15.471H281.6v85.333h197.871
				C487.996,444.729,494.933,437.792,494.933,429.267z"/>
		</g>
	</g>
</g>
<g>
</g>
<g>
</g>
<g>
</g>
<g>
</g>
<g>
</g>
<g>
</g>
<g>
</g>
<g>
</g>
<g>
</g>
<g>
</g>
<g>
</g>
<g>
</g>
<g>
</g>
<g>
</g>
<g>
</g>
</svg>
