<?xml version="1.0" encoding="iso-8859-1"?>
<!-- Generator: Adobe Illustrator 19.0.0, SVG Export Plug-In . SVG Version: 6.00 Build 0)  -->
<svg version="1.1" id="Layer_1" xmlns="http://www.w3.org/2000/svg" xmlns:xlink="http://www.w3.org/1999/xlink" x="0px" y="0px"
	 viewBox="0 0 512.001 512.001" style="enable-background:new 0 0 512.001 512.001;" xml:space="preserve">
<g>
	<g>
		<g>
			<path d="M298.667,179.2h128c1.843,0,3.644,0.597,5.12,1.707l20.48,15.36v-128h-153.6V179.2z M418.133,153.6h-17.067
				c-4.71,0-8.533-3.814-8.533-8.533s3.823-8.533,8.533-8.533h17.067c4.71,0,8.533,3.814,8.533,8.533S422.844,153.6,418.133,153.6z
				 M375.467,93.867h42.667c4.71,0,8.533,3.814,8.533,8.533s-3.823,8.533-8.533,8.533h-42.667c-4.71,0-8.533-3.814-8.533-8.533
				S370.756,93.867,375.467,93.867z M332.8,93.867h8.533c4.71,0,8.533,3.814,8.533,8.533s-3.823,8.533-8.533,8.533H332.8
				c-4.71,0-8.533-3.814-8.533-8.533S328.09,93.867,332.8,93.867z M332.8,136.534h34.133c4.71,0,8.533,3.814,8.533,8.533
				s-3.823,8.533-8.533,8.533H332.8c-4.71,0-8.533-3.814-8.533-8.533S328.09,136.534,332.8,136.534z"/>
			<path d="M59.733,264.534l20.48-15.36c1.476-1.109,3.277-1.707,5.12-1.707h128V136.534h-153.6V264.534z M179.2,221.867h-17.067
				c-4.71,0-8.533-3.814-8.533-8.533s3.823-8.533,8.533-8.533H179.2c4.71,0,8.533,3.814,8.533,8.533S183.91,221.867,179.2,221.867z
				 M136.533,162.134H179.2c4.71,0,8.533,3.814,8.533,8.533c0,4.719-3.823,8.533-8.533,8.533h-42.667
				c-4.71,0-8.533-3.814-8.533-8.533C128,165.948,131.823,162.134,136.533,162.134z M93.867,162.134h8.533
				c4.71,0,8.533,3.814,8.533,8.533c0,4.719-3.823,8.533-8.533,8.533h-8.533c-4.71,0-8.533-3.814-8.533-8.533
				C85.333,165.948,89.156,162.134,93.867,162.134z M93.867,204.8H128c4.71,0,8.533,3.814,8.533,8.533s-3.823,8.533-8.533,8.533
				H93.867c-4.71,0-8.533-3.814-8.533-8.533S89.156,204.8,93.867,204.8z"/>
			<path d="M512,46.917c0-21.163-17.22-38.383-38.391-38.383H38.391C17.22,8.534,0,25.754,0,46.917v268.817h512V46.917z
				 M170.667,68.267H204.8c4.71,0,8.533,3.814,8.533,8.533s-3.823,8.533-8.533,8.533h-34.133c-4.71,0-8.533-3.814-8.533-8.533
				S165.956,68.267,170.667,68.267z M119.467,68.267h17.067c4.71,0,8.533,3.814,8.533,8.533s-3.823,8.533-8.533,8.533h-17.067
				c-4.71,0-8.533-3.814-8.533-8.533S114.756,68.267,119.467,68.267z M51.2,68.267h34.133c4.71,0,8.533,3.814,8.533,8.533
				s-3.823,8.533-8.533,8.533H51.2c-4.71,0-8.533-3.814-8.533-8.533S46.49,68.267,51.2,68.267z M230.4,256
				c0,4.719-3.823,8.533-8.533,8.533H88.175L56.32,288.427c-1.51,1.135-3.311,1.707-5.12,1.707c-1.297,0-2.611-0.299-3.814-0.896
				c-2.893-1.451-4.719-4.403-4.719-7.637V128c0-4.719,3.823-8.533,8.533-8.533h170.667c4.71,0,8.533,3.814,8.533,8.533V256z
				 M341.333,273.067H307.2c-4.71,0-8.533-3.814-8.533-8.533S302.49,256,307.2,256h34.133c4.71,0,8.533,3.814,8.533,8.533
				S346.044,273.067,341.333,273.067z M392.533,273.067h-17.067c-4.71,0-8.533-3.814-8.533-8.533s3.823-8.533,8.533-8.533h17.067
				c4.71,0,8.533,3.814,8.533,8.533S397.244,273.067,392.533,273.067z M460.8,273.067h-34.133c-4.71,0-8.533-3.814-8.533-8.533
				s3.823-8.533,8.533-8.533H460.8c4.71,0,8.533,3.814,8.533,8.533S465.51,273.067,460.8,273.067z M469.333,213.334
				c0,3.234-1.826,6.187-4.719,7.637c-1.203,0.597-2.517,0.896-3.814,0.896c-1.809,0-3.61-0.572-5.12-1.707l-31.855-23.893H290.133
				c-4.71,0-8.533-3.814-8.533-8.533v-128c0-4.719,3.823-8.533,8.533-8.533H460.8c4.71,0,8.533,3.814,8.533,8.533V213.334z"/>
			<path d="M0.001,332.8v38.417c0,21.163,17.22,38.383,38.383,38.383h152.371c1.212,14.95-5.282,29.705-17.271,38.17l-15.343,10.82
				c-0.99,0.683-1.809,1.51-2.492,2.432c-10.709,1.126-19.115,10.104-19.115,21.111c0,11.768,9.566,21.333,21.333,21.333h196.267
				c11.759,0,21.333-9.566,21.333-21.333c0-10.999-8.405-19.977-19.106-21.111c-0.666-0.905-1.476-1.724-2.44-2.398l-15.386-10.837
				c-12.023-8.474-18.517-23.262-17.297-38.187h152.371c21.171,0,38.391-17.22,38.391-38.383V332.8H0.001z M327.416,460.8H184.585
				c15.744-11.793,24.414-31.326,23.279-51.2h96.273C303.002,429.475,311.664,449.007,327.416,460.8z"/>
		</g>
	</g>
</g>
<g>
</g>
<g>
</g>
<g>
</g>
<g>
</g>
<g>
</g>
<g>
</g>
<g>
</g>
<g>
</g>
<g>
</g>
<g>
</g>
<g>
</g>
<g>
</g>
<g>
</g>
<g>
</g>
<g>
</g>
</svg>
