<?xml version="1.0" encoding="iso-8859-1"?>
<!-- Generator: Adobe Illustrator 19.0.0, SVG Export Plug-In . SVG Version: 6.00 Build 0)  -->
<svg version="1.1" id="Layer_1" xmlns="http://www.w3.org/2000/svg" xmlns:xlink="http://www.w3.org/1999/xlink" x="0px" y="0px"
	 viewBox="0 0 509.862 509.862" style="enable-background:new 0 0 509.862 509.862;" xml:space="preserve">
<g transform="translate(0 -1)">
	<g>
		<g>
			<path d="M94.555,146.065c-9.412,0-17.067,7.654-17.067,17.067c0,9.412,7.654,17.067,17.067,17.067
				c9.412,0,17.067-7.654,17.067-17.067C111.621,153.719,103.967,146.065,94.555,146.065z"/>
			<path d="M214.021,111.932c9.412,0,17.067-7.654,17.067-17.067c0-9.412-7.654-17.067-17.067-17.067
				c-9.412,0-17.067,7.654-17.067,17.067C196.955,104.277,204.609,111.932,214.021,111.932z"/>
			<path d="M214.021,239.932c9.412,0,17.067-7.654,17.067-17.067c0-9.412-7.654-17.067-17.067-17.067
				c-9.412,0-17.067,7.654-17.067,17.067C196.955,232.277,204.609,239.932,214.021,239.932z"/>
			<path d="M361.922,301.834l-12.1,12.1l-55.859-55.859c19.405-26.726,30.993-59.469,30.993-94.942
				C324.956,73.73,252.217,1,162.822,1C73.418,1,0.689,73.73,0.689,163.133c0,89.395,72.73,162.133,162.133,162.133
				c35.473,0,68.215-11.588,94.942-30.984l55.859,55.851l-12.032,12.032l42.436,42.897l60.331-60.339L361.922,301.834z
				 M128.689,163.133c0,3.806-0.768,7.407-1.929,10.829l59.17,29.585c6.161-8.934,16.444-14.814,28.092-14.814
				c18.825,0,34.133,15.309,34.133,34.133S232.847,257,214.022,257c-18.825,0-34.133-15.309-34.133-34.133
				c0-1.067,0.213-2.065,0.316-3.106l-62.839-31.42c-6.059,5.487-14.012,8.926-22.81,8.926c-18.825,0-34.133-15.309-34.133-34.133
				S75.731,129,94.556,129c7.177,0,13.824,2.244,19.328,6.05l66.338-36.855c-0.111-1.109-0.333-2.193-0.333-3.328
				c0-18.825,15.309-34.133,34.133-34.133c18.825,0,34.133,15.309,34.133,34.133c0,18.825-15.309,34.133-34.133,34.133
				c-11.537,0-21.709-5.786-27.895-14.575l-60.971,33.877C127.349,152.808,128.689,157.792,128.689,163.133z M325.689,338.067
				l-54.477-54.485c0.845-0.768,1.596-1.647,2.423-2.423c2.5-2.347,4.915-4.77,7.262-7.262c0.768-0.819,1.621-1.544,2.372-2.381
				l54.485,54.485L325.689,338.067z"/>
			<polygon points="416.362,356.857 356.023,417.196 394.952,456.535 455.283,396.196 			"/>
			<path d="M496.73,438.09l-29.44-29.756l-60.339,60.331l29.406,29.722c8.311,8.32,19.243,12.476,30.165,12.476
				c10.931,0,21.854-4.156,30.174-12.476C513.327,481.755,513.327,454.688,496.73,438.09z"/>
		</g>
	</g>
</g>
<g>
</g>
<g>
</g>
<g>
</g>
<g>
</g>
<g>
</g>
<g>
</g>
<g>
</g>
<g>
</g>
<g>
</g>
<g>
</g>
<g>
</g>
<g>
</g>
<g>
</g>
<g>
</g>
<g>
</g>
</svg>
