<?xml version="1.0" encoding="iso-8859-1"?>
<!-- Generator: Adobe Illustrator 19.0.0, SVG Export Plug-In . SVG Version: 6.00 Build 0)  -->
<svg version="1.1" id="Layer_1" xmlns="http://www.w3.org/2000/svg" xmlns:xlink="http://www.w3.org/1999/xlink" x="0px" y="0px"
	 viewBox="0 0 512 512" style="enable-background:new 0 0 512 512;" xml:space="preserve">
<g>
	<g>
		<path d="M452.267,196.267c-16.119,0-30.737,6.434-41.489,16.845l-98.074-40.866c1.937-5.871,3.029-12.134,3.029-18.645
			c0-32.939-26.803-59.733-59.733-59.733c-20.309,0-38.255,10.206-49.058,25.737l-90.53-41.148
			c1.954-5.897,3.055-12.186,3.055-18.722C119.467,26.795,92.663,0,59.733,0C26.795,0,0,26.795,0,59.733
			c0,30.029,22.298,54.886,51.2,59.051v78.157C22.298,201.105,0,225.971,0,256s22.298,54.886,51.2,59.051v78.157
			C22.298,397.372,0,422.238,0,452.267C0,485.197,26.795,512,59.733,512c32.93,0,59.733-26.803,59.733-59.733
			c0-6.596-1.118-12.919-3.098-18.85l90.658-49.451C217.83,399.437,235.742,409.6,256,409.6c32.93,0,59.733-26.803,59.733-59.733
			c0-6.519-1.092-12.783-3.029-18.654l92.51-38.545c10.94,14.003,27.938,23.066,47.053,23.066C485.197,315.733,512,288.93,512,256
			C512,223.061,485.197,196.267,452.267,196.267z M68.267,118.784c16.742-2.415,31.266-11.75,40.516-25.062l90.53,41.156
			c-1.954,5.897-3.046,12.177-3.046,18.722c0,6.511,1.084,12.774,3.021,18.645l-98.074,40.866
			c-8.815-8.533-20.241-14.336-32.947-16.171V118.784z M108.698,418.159c-9.259-13.252-23.74-22.545-40.431-24.951v-78.157
			c15.59-2.253,29.235-10.505,38.511-22.383l92.51,38.545c-1.937,5.871-3.021,12.134-3.021,18.654
			c0,6.588,1.109,12.911,3.089,18.842L108.698,418.159z M247.467,290.807c-16.768,2.415-31.3,11.767-40.55,25.096l-91.605-38.17
			c2.645-6.75,4.156-14.063,4.156-21.734c0-10.479-2.731-20.318-7.492-28.885l94.942-39.561c9.25,13.329,23.782,22.682,40.55,25.097
			V290.807z M396.681,277.734l-91.605,38.17c-9.25-13.329-23.782-22.682-40.542-25.096v-78.157
			c16.759-2.415,31.292-11.767,40.542-25.097l94.942,39.561c-4.762,8.567-7.484,18.406-7.484,28.885
			C392.533,263.671,394.035,270.985,396.681,277.734z"/>
	</g>
</g>
<g>
</g>
<g>
</g>
<g>
</g>
<g>
</g>
<g>
</g>
<g>
</g>
<g>
</g>
<g>
</g>
<g>
</g>
<g>
</g>
<g>
</g>
<g>
</g>
<g>
</g>
<g>
</g>
<g>
</g>
</svg>
