<?xml version="1.0" encoding="iso-8859-1"?>
<!-- Generator: Adobe Illustrator 19.0.0, SVG Export Plug-In . SVG Version: 6.00 Build 0)  -->
<svg version="1.1" id="Layer_1" xmlns="http://www.w3.org/2000/svg" xmlns:xlink="http://www.w3.org/1999/xlink" x="0px" y="0px"
	 viewBox="0 0 512 512" style="enable-background:new 0 0 512 512;" xml:space="preserve">
<g>
	<g>
		<g>
			<path d="M503.467,388.267h-179.2c-4.719,0-8.533,3.814-8.533,8.533v8.533H196.267V396.8c0-4.719-3.814-8.533-8.533-8.533H8.533
				C3.814,388.267,0,392.081,0,396.8v25.6C0,436.514,11.486,448,25.6,448h460.8c14.114,0,25.6-11.486,25.6-25.6v-25.6
				C512,392.081,508.186,388.267,503.467,388.267z"/>
			<polygon points="435.2,252.267 410.129,251.738 409.651,337.071 435.2,337.071 			"/>
			<polygon points="349.867,268.8 349.867,201.071 324.796,200.533 324.301,337.067 349.867,337.067 			"/>
			<path d="M196.267,379.733v8.533h119.467v-8.533c0-4.719,3.814-8.533,8.533-8.533h170.667V89.6c0-14.114-11.486-25.6-25.6-25.6
				H42.667c-14.114,0-25.6,11.486-25.6,25.6v281.6h170.667C192.452,371.2,196.267,375.014,196.267,379.733z M213.333,285.867H179.2
				c-4.719,0-8.533-3.814-8.533-8.533s3.814-8.533,8.533-8.533h34.133c4.719,0,8.533,3.814,8.533,8.533
				S218.052,285.867,213.333,285.867z M221.867,311.467c0,4.719-3.814,8.533-8.533,8.533h-17.067c-4.719,0-8.533-3.814-8.533-8.533
				s3.814-8.533,8.533-8.533h17.067C218.052,302.933,221.867,306.748,221.867,311.467z M110.933,251.733
				c-4.719,0-8.533-3.814-8.533-8.533s3.814-8.533,8.533-8.533h110.933c4.719,0,8.533,3.814,8.533,8.533s-3.814,8.533-8.533,8.533
				H110.933z M213.333,183.467H179.2c-4.719,0-8.533-3.814-8.533-8.533s3.814-8.533,8.533-8.533h34.133
				c4.719,0,8.533,3.814,8.533,8.533S218.052,183.467,213.333,183.467z M221.867,209.067c0,4.719-3.814,8.533-8.533,8.533h-17.067
				c-4.719,0-8.533-3.814-8.533-8.533s3.814-8.533,8.533-8.533h17.067C218.052,200.533,221.867,204.348,221.867,209.067z
				 M401.067,98.133h42.667c4.719,0,8.533,3.814,8.533,8.533s-3.814,8.533-8.533,8.533h-42.667c-4.719,0-8.533-3.814-8.533-8.533
				S396.348,98.133,401.067,98.133z M452.267,140.8c0,4.719-3.814,8.533-8.533,8.533h-17.067c-4.719,0-8.533-3.814-8.533-8.533
				s3.814-8.533,8.533-8.533h17.067C448.452,132.267,452.267,136.081,452.267,140.8z M358.4,98.133h8.533
				c4.719,0,8.533,3.814,8.533,8.533s-3.814,8.533-8.533,8.533H358.4c-4.719,0-8.533-3.814-8.533-8.533S353.681,98.133,358.4,98.133
				z M358.4,132.267h34.133c4.719,0,8.533,3.814,8.533,8.533s-3.814,8.533-8.533,8.533H358.4c-4.719,0-8.533-3.814-8.533-8.533
				S353.681,132.267,358.4,132.267z M307.2,201.071c0-9.711,7.893-17.604,17.596-17.604h24.533c9.711,0,17.604,7.893,17.604,17.604
				V268.8h25.6v-16.538c0-9.702,7.893-17.596,17.604-17.596h24.533c9.702,0,17.596,7.893,17.596,17.596v101.871H409.6h-17.067h-25.6
				h-17.067H307.2V201.071z M230.4,140.8c0,4.719-3.814,8.533-8.533,8.533H110.933c-4.719,0-8.533-3.814-8.533-8.533
				s3.814-8.533,8.533-8.533h110.933C226.586,132.267,230.4,136.081,230.4,140.8z M68.267,98.133H204.8
				c4.719,0,8.533,3.814,8.533,8.533s-3.814,8.533-8.533,8.533H68.267c-4.719,0-8.533-3.814-8.533-8.533
				S63.548,98.133,68.267,98.133z M68.267,132.267H76.8c4.719,0,8.533,3.814,8.533,8.533s-3.814,8.533-8.533,8.533h-8.533
				c-4.719,0-8.533-3.814-8.533-8.533S63.548,132.267,68.267,132.267z M68.267,166.4h76.8c4.719,0,8.533,3.814,8.533,8.533
				s-3.814,8.533-8.533,8.533h-76.8c-4.719,0-8.533-3.814-8.533-8.533S63.548,166.4,68.267,166.4z M68.267,200.533h93.867
				c4.719,0,8.533,3.814,8.533,8.533s-3.814,8.533-8.533,8.533H68.267c-4.719,0-8.533-3.814-8.533-8.533
				S63.548,200.533,68.267,200.533z M68.267,234.667H76.8c4.719,0,8.533,3.814,8.533,8.533s-3.814,8.533-8.533,8.533h-8.533
				c-4.719,0-8.533-3.814-8.533-8.533S63.548,234.667,68.267,234.667z M68.267,268.8h76.8c4.719,0,8.533,3.814,8.533,8.533
				s-3.814,8.533-8.533,8.533h-76.8c-4.719,0-8.533-3.814-8.533-8.533S63.548,268.8,68.267,268.8z M68.267,302.933h93.867
				c4.719,0,8.533,3.814,8.533,8.533S166.852,320,162.133,320H68.267c-4.719,0-8.533-3.814-8.533-8.533
				S63.548,302.933,68.267,302.933z M76.8,354.133h-8.533c-4.719,0-8.533-3.814-8.533-8.533c0-4.719,3.814-8.533,8.533-8.533H76.8
				c4.719,0,8.533,3.814,8.533,8.533C85.333,350.319,81.519,354.133,76.8,354.133z M102.4,345.6c0-4.719,3.814-8.533,8.533-8.533
				h110.933c4.719,0,8.533,3.814,8.533,8.533c0,4.719-3.814,8.533-8.533,8.533H110.933C106.214,354.133,102.4,350.319,102.4,345.6z"
				/>
			<rect x="366.933" y="285.866" width="25.6" height="51.2"/>
		</g>
	</g>
</g>
<g>
</g>
<g>
</g>
<g>
</g>
<g>
</g>
<g>
</g>
<g>
</g>
<g>
</g>
<g>
</g>
<g>
</g>
<g>
</g>
<g>
</g>
<g>
</g>
<g>
</g>
<g>
</g>
<g>
</g>
</svg>
