<?xml version="1.0" encoding="iso-8859-1"?>
<!-- Generator: Adobe Illustrator 19.0.0, SVG Export Plug-In . SVG Version: 6.00 Build 0)  -->
<svg version="1.1" id="Layer_1" xmlns="http://www.w3.org/2000/svg" xmlns:xlink="http://www.w3.org/1999/xlink" x="0px" y="0px"
	 viewBox="0 0 503.607 503.607" style="enable-background:new 0 0 503.607 503.607;" xml:space="preserve">
<g>
	<g>
		<g>
			<path d="M134.295,33.574h41.967c4.642,0,8.393-3.752,8.393-8.393c0-4.642-3.752-8.393-8.393-8.393h-41.967
				c-4.642,0-8.393,3.752-8.393,8.393C125.902,29.822,129.653,33.574,134.295,33.574z"/>
			<path d="M92.328,33.574h8.393c4.642,0,8.393-3.752,8.393-8.393c0-4.642-3.752-8.393-8.393-8.393h-8.393
				c-4.642,0-8.393,3.752-8.393,8.393C83.934,29.822,87.686,33.574,92.328,33.574z"/>
			<path d="M92.328,67.148h33.574c4.642,0,8.393-3.752,8.393-8.393c0-4.642-3.752-8.393-8.393-8.393H92.328
				c-4.642,0-8.393,3.752-8.393,8.393C83.934,63.396,87.686,67.148,92.328,67.148z"/>
			<path d="M176.262,50.361h-16.787c-4.642,0-8.393,3.752-8.393,8.393c0,4.642,3.752,8.393,8.393,8.393h16.787
				c4.642,0,8.393-3.752,8.393-8.393C184.656,54.113,180.904,50.361,176.262,50.361z"/>
			<path d="M352.525,16.787h92.328c4.642,0,8.393-3.752,8.393-8.393c0-4.642-3.752-8.393-8.393-8.393h-92.328
				c-4.642,0-8.393,3.752-8.393,8.393C344.131,13.035,347.883,16.787,352.525,16.787z"/>
			<path d="M495.213,33.574H394.492c-4.642,0-8.393,3.752-8.393,8.393c0,4.642,3.752,8.393,8.393,8.393h100.721
				c4.642,0,8.393-3.752,8.393-8.393C503.607,37.326,499.855,33.574,495.213,33.574z"/>
			<path d="M352.525,50.361h8.393c4.642,0,8.393-3.752,8.393-8.393c0-4.642-3.752-8.393-8.393-8.393h-8.393
				c-4.642,0-8.393,3.752-8.393,8.393C344.131,46.609,347.883,50.361,352.525,50.361z"/>
			<path d="M478.426,16.787h16.787c4.642,0,8.393-3.752,8.393-8.393c0-4.642-3.752-8.393-8.393-8.393h-16.787
				c-4.642,0-8.393,3.752-8.393,8.393C470.033,13.035,473.785,16.787,478.426,16.787z"/>
			<path d="M352.525,83.934h58.754c4.642,0,8.393-3.752,8.393-8.393s-3.752-8.393-8.393-8.393h-58.754
				c-4.642,0-8.393,3.752-8.393,8.393S347.883,83.934,352.525,83.934z"/>
			<path d="M495.213,67.148h-50.361c-4.642,0-8.393,3.752-8.393,8.393s3.752,8.393,8.393,8.393h50.361
				c4.642,0,8.393-3.752,8.393-8.393S499.855,67.148,495.213,67.148z"/>
			<path d="M497.06,142.89c-3.827-0.856-7.747,1.049-9.426,4.6l-69.33,146.348l-49.412-71.437c0.134-1.393,0.42-2.745,0.42-4.172
				c0-23.141-18.826-41.967-41.967-41.967c-23.141,0-41.967,18.826-41.967,41.967c0,5.103,1.049,9.929,2.719,14.453l-54.876,82.239
				l-59.417-49.521c1.486-4.289,2.459-8.813,2.459-13.597c0-23.141-18.827-41.967-41.967-41.967
				c-23.141,0-41.967,18.827-41.967,41.967c0,6.329,1.511,12.28,4.037,17.668l-62.791,62.791V293.77h8.393
				c4.642,0,8.393-3.752,8.393-8.393c0-4.642-3.752-8.393-8.393-8.393h-8.393v-25.18h8.393c4.642,0,8.393-3.752,8.393-8.393
				c0-4.642-3.752-8.393-8.393-8.393h-8.393v-25.18h8.393c4.642,0,8.393-3.752,8.393-8.393c0-4.642-3.752-8.393-8.393-8.393h-8.393
				v-25.18h8.393c4.642,0,8.393-3.752,8.393-8.393c0-4.642-3.752-8.393-8.393-8.393h-8.393v-25.18h8.393
				c4.642,0,8.393-3.752,8.393-8.393c0-4.642-3.752-8.393-8.393-8.393h-8.393v-25.18h8.393c4.642,0,8.393-3.752,8.393-8.393
				s-3.752-8.393-8.393-8.393h-8.393v-25.18h8.393c4.642,0,8.393-3.752,8.393-8.393c0-4.642-3.752-8.393-8.393-8.393h-8.393V8.393
				C33.574,3.752,29.822,0,25.18,0c-4.642,0-8.393,3.752-8.393,8.393V25.18H8.393C3.752,25.18,0,28.932,0,33.574
				c0,4.642,3.752,8.393,8.393,8.393h8.393v25.18H8.393C3.752,67.148,0,70.899,0,75.541s3.752,8.393,8.393,8.393h8.393v25.18H8.393
				c-4.642,0-8.393,3.752-8.393,8.393c0,4.642,3.752,8.393,8.393,8.393h8.393v25.18H8.393c-4.642,0-8.393,3.752-8.393,8.393
				c0,4.642,3.752,8.393,8.393,8.393h8.393v25.18H8.393c-4.642,0-8.393,3.752-8.393,8.393c0,4.642,3.752,8.393,8.393,8.393h8.393
				v25.18H8.393c-4.642,0-8.393,3.752-8.393,8.393c0,4.642,3.752,8.393,8.393,8.393h8.393v25.18H8.393
				c-4.642,0-8.393,3.752-8.393,8.393c0,4.642,3.752,8.393,8.393,8.393h8.393v25.18H8.393c-4.642,0-8.393,3.752-8.393,8.393
				c0,4.642,3.752,8.393,8.393,8.393h8.393v16.787v8.393H8.393c-4.642,0-8.393,3.752-8.393,8.393c0,4.642,3.752,8.393,8.393,8.393
				h8.393v25.18H8.393c-4.642,0-8.393,3.752-8.393,8.393c0,4.642,3.752,8.393,8.393,8.393h8.393v25.18H8.393
				c-4.642,0-8.393,3.752-8.393,8.393s3.752,8.393,8.393,8.393h8.393v16.787c0,4.642,3.752,8.393,8.393,8.393h25.18v8.393
				c0,4.642,3.752,8.393,8.393,8.393c4.642,0,8.393-3.752,8.393-8.393v-8.393h25.18v8.393c0,4.642,3.752,8.393,8.393,8.393
				c4.642,0,8.393-3.752,8.393-8.393v-8.393h25.18v8.393c0,4.642,3.752,8.393,8.393,8.393c4.642,0,8.393-3.752,8.393-8.393v-8.393
				h25.18v8.393c0,4.642,3.752,8.393,8.393,8.393c4.642,0,8.393-3.752,8.393-8.393v-8.393h25.18v8.393
				c0,4.642,3.752,8.393,8.393,8.393c4.642,0,8.393-3.752,8.393-8.393v-8.393h25.18v8.393c0,4.642,3.752,8.393,8.393,8.393
				c4.642,0,8.393-3.752,8.393-8.393v-8.393h25.18v8.393c0,4.642,3.752,8.393,8.393,8.393s8.393-3.752,8.393-8.393v-8.393h25.18
				v8.393c0,4.642,3.752,8.393,8.393,8.393s8.393-3.752,8.393-8.393v-8.393h25.18v8.393c0,4.642,3.752,8.393,8.393,8.393
				c4.642,0,8.393-3.752,8.393-8.393v-8.393h25.18v8.393c0,4.642,3.752,8.393,8.393,8.393c4.642,0,8.393-3.752,8.393-8.393v-8.393
				h25.18v8.393c0,4.642,3.752,8.393,8.393,8.393s8.393-3.752,8.393-8.393v-8.393h8.393c4.642,0,8.393-3.752,8.393-8.393V151.082
				C503.607,147.154,500.887,143.754,497.06,142.89z M486.82,470.033H33.574V355.999l72.863-72.863
				c0.688,0.613,1.486,1.074,2.207,1.637c1.041,0.814,2.048,1.628,3.164,2.342s2.308,1.293,3.492,1.897
				c1.142,0.588,2.249,1.217,3.45,1.695c1.393,0.562,2.845,0.932,4.289,1.335c1.091,0.311,2.124,0.705,3.248,0.923
				c2.619,0.512,5.288,0.806,8.007,0.806c2.686,0,5.321-0.294,7.898-0.797c0.252-0.05,0.512-0.076,0.764-0.126
				c2.241-0.478,4.415-1.192,6.53-2.031c0.562-0.218,1.125-0.403,1.679-0.646c1.788-0.797,3.492-1.763,5.154-2.803
				c0.772-0.478,1.536-0.948,2.275-1.469c1.385-0.999,2.694-2.107,3.953-3.273c0.856-0.789,1.679-1.595,2.468-2.443
				c0.042-0.05,0.092-0.084,0.134-0.134l64.487,53.752c1.847,1.519,4.239,2.233,6.589,1.847c2.35-0.336,4.449-1.662,5.775-3.643
				l55.976-83.876c3.811,3.752,8.326,6.773,13.337,8.855c0.73,0.311,1.528,0.445,2.275,0.705c1.796,0.629,3.567,1.293,5.464,1.67
				c2.694,0.546,5.472,0.839,8.293,0.839c2.568,0,5.061-0.311,7.521-0.764c0.537-0.092,1.074-0.185,1.603-0.302
				c2.3-0.512,4.541-1.2,6.69-2.082c0.487-0.201,0.948-0.436,1.419-0.655c1.88-0.848,3.685-1.83,5.414-2.938
				c0.352-0.227,0.73-0.428,1.083-0.663c1.889-1.301,3.634-2.787,5.296-4.373c0.42-0.403,0.823-0.823,1.225-1.242
				c1.578-1.654,3.072-3.383,4.373-5.279l50.805,73.434c1.704,2.459,4.583,3.743,7.579,3.592c2.996-0.243,5.624-2.065,6.899-4.776
				l59.568-125.742V470.033z"/>
		</g>
	</g>
</g>
<g>
</g>
<g>
</g>
<g>
</g>
<g>
</g>
<g>
</g>
<g>
</g>
<g>
</g>
<g>
</g>
<g>
</g>
<g>
</g>
<g>
</g>
<g>
</g>
<g>
</g>
<g>
</g>
<g>
</g>
</svg>
