<?xml version="1.0" encoding="iso-8859-1"?>
<!-- Generator: Adobe Illustrator 19.0.0, SVG Export Plug-In . SVG Version: 6.00 Build 0)  -->
<svg version="1.1" id="Layer_1" xmlns="http://www.w3.org/2000/svg" xmlns:xlink="http://www.w3.org/1999/xlink" x="0px" y="0px"
	 viewBox="0 0 503.607 503.607" style="enable-background:new 0 0 503.607 503.607;" xml:space="preserve">
<g>
	<g>
		<polygon points="444.852,293.77 444.852,285.377 444.852,285.377 		"/>
	</g>
</g>
<g>
	<g>
		<path d="M503.607,308.039V26.859C503.607,12.59,491.016,0,476.747,0H26.859C12.59,0,0,12.59,0,26.859V307.2
			c0,14.269,10.911,26.02,25.18,27.698v16.787c-13.43,0-25.18,10.911-25.18,25.18v104.918c0,11.751,10.072,21.823,21.823,21.823
			h459.961c11.751,0,21.823-10.072,21.823-21.823V377.705c0-13.429-10.911-25.18-25.18-25.18v-16.787
			C492.695,334.059,503.607,322.308,503.607,308.039z M167.869,137.652v43.646c0,6.715-5.036,11.751-11.751,11.751h-26.859
			c-6.715,0-11.751-5.036-11.751-11.751v-43.646c0-6.715,5.036-11.751,11.751-11.751h26.859
			C162.833,125.902,167.869,130.938,167.869,137.652z M201.443,75.541c-5.036,0-8.393-3.357-8.393-8.393s3.357-8.393,8.393-8.393
			s8.393,3.357,8.393,8.393S206.479,75.541,201.443,75.541z M218.229,83.934c5.036,0,8.393,3.357,8.393,8.393
			s-3.357,8.393-8.393,8.393s-8.393-3.357-8.393-8.393S213.193,83.934,218.229,83.934z M196.407,125.902h26.859
			c6.715,0,11.751,5.036,11.751,11.751v43.646c0,6.715-5.036,11.751-11.751,11.751h-26.859c-6.715,0-11.751-5.036-11.751-11.751
			v-43.646C184.656,130.938,189.692,125.902,196.407,125.902z M268.59,75.541c-5.036,0-8.393-3.357-8.393-8.393
			s3.357-8.393,8.393-8.393s8.393,3.357,8.393,8.393S273.626,75.541,268.59,75.541z M285.377,83.934
			c5.036,0,8.393,3.357,8.393,8.393s-3.357,8.393-8.393,8.393c-5.036,0-8.393-3.357-8.393-8.393S280.341,83.934,285.377,83.934z
			 M263.554,125.902h26.859c6.715,0,11.751,5.036,11.751,11.751v43.646c0,6.715-5.036,11.751-11.751,11.751h-26.859
			c-6.715,0-11.751-5.036-11.751-11.751v-43.646C251.803,130.938,256.839,125.902,263.554,125.902z M335.738,75.541
			c-5.036,0-8.393-3.357-8.393-8.393s3.357-8.393,8.393-8.393c5.036,0,8.393,3.357,8.393,8.393S340.774,75.541,335.738,75.541z
			 M352.525,83.934c5.036,0,8.393,3.357,8.393,8.393s-3.357,8.393-8.393,8.393c-5.036,0-8.393-3.357-8.393-8.393
			S347.489,83.934,352.525,83.934z M330.702,125.902h26.859c6.715,0,11.751,5.036,11.751,11.751v43.646
			c0,6.715-5.036,11.751-11.751,11.751h-26.859c-6.715,0-11.751-5.036-11.751-11.751v-43.646
			C318.951,130.938,323.987,125.902,330.702,125.902z M369.311,75.541c-5.036,0-8.393-3.357-8.393-8.393s3.357-8.393,8.393-8.393
			s8.393,3.357,8.393,8.393S374.348,75.541,369.311,75.541z M386.098,83.934c5.036,0,8.393,3.357,8.393,8.393
			s-3.357,8.393-8.393,8.393c-5.036,0-8.393-3.357-8.393-8.393S381.062,83.934,386.098,83.934z M318.951,100.721
			c-5.036,0-8.393-3.357-8.393-8.393s3.357-8.393,8.393-8.393c5.036,0,8.393,3.357,8.393,8.393S323.987,100.721,318.951,100.721z
			 M302.164,75.541c-5.036,0-8.393-3.357-8.393-8.393s3.357-8.393,8.393-8.393s8.393,3.357,8.393,8.393S307.2,75.541,302.164,75.541
			z M251.803,100.721c-5.036,0-8.393-3.357-8.393-8.393s3.357-8.393,8.393-8.393c5.036,0,8.393,3.357,8.393,8.393
			S256.839,100.721,251.803,100.721z M235.016,75.541c-5.036,0-8.393-3.357-8.393-8.393s3.357-8.393,8.393-8.393
			s8.393,3.357,8.393,8.393S240.052,75.541,235.016,75.541z M184.656,100.721c-5.036,0-8.393-3.357-8.393-8.393
			s3.357-8.393,8.393-8.393s8.393,3.357,8.393,8.393S189.692,100.721,184.656,100.721z M335.738,218.229
			c9.233,0,16.787,7.554,16.787,16.787v50.361c0,9.233-7.554,16.787-16.787,16.787H167.869c-9.233,0-16.787-7.554-16.787-16.787
			v-50.361c0-9.233,7.554-16.787,16.787-16.787H335.738z M67.148,167.869c-5.036,0-8.393-3.357-8.393-8.393s3.357-8.393,8.393-8.393
			c5.036,0,8.393,3.357,8.393,8.393S72.184,167.869,67.148,167.869z M75.541,184.656c0,5.036-3.357,8.393-8.393,8.393
			c-5.036,0-8.393-3.357-8.393-8.393s3.357-8.393,8.393-8.393C72.184,176.262,75.541,179.62,75.541,184.656z M50.361,142.689
			c-5.036,0-8.393-3.357-8.393-8.393s3.357-8.393,8.393-8.393s8.393,3.357,8.393,8.393S55.397,142.689,50.361,142.689z
			 M58.754,218.229h50.361c9.233,0,16.787,7.554,16.787,16.787v50.361c0,9.233-7.554,16.787-16.787,16.787H58.754
			c-9.233,0-16.787-7.554-16.787-16.787v-50.361C41.967,225.784,49.521,218.229,58.754,218.229z M83.934,142.689
			c-5.036,0-8.393-3.357-8.393-8.393s3.357-8.393,8.393-8.393s8.393,3.357,8.393,8.393S88.971,142.689,83.934,142.689z
			 M100.721,176.262c5.036,0,8.393,3.357,8.393,8.393s-3.357,8.393-8.393,8.393s-8.393-3.357-8.393-8.393
			S95.685,176.262,100.721,176.262z M33.574,41.967c0-5.036,3.357-8.393,8.393-8.393h100.721c5.036,0,8.393,3.357,8.393,8.393
			v50.361c0,5.036-3.357,8.393-8.393,8.393H41.967c-5.036,0-8.393-3.357-8.393-8.393V41.967z M33.574,193.049
			c-5.036,0-8.393-3.357-8.393-8.393s3.357-8.393,8.393-8.393s8.393,3.357,8.393,8.393S38.61,193.049,33.574,193.049z
			 M92.328,449.888c0,6.715-5.036,11.751-11.751,11.751H53.718c-6.715,0-11.751-5.036-11.751-11.751v-43.646
			c0-6.715,5.036-11.751,11.751-11.751h26.859c6.715,0,11.751,5.036,11.751,11.751V449.888z M159.475,449.888
			c0,6.715-5.036,11.751-11.751,11.751h-26.859c-6.715,0-11.751-5.036-11.751-11.751v-43.646c0-6.715,5.036-11.751,11.751-11.751
			h26.859c6.715,0,11.751,5.036,11.751,11.751V449.888z M226.623,449.888c0,6.715-5.036,11.751-11.751,11.751h-26.859
			c-6.715,0-11.751-5.036-11.751-11.751v-43.646c0-6.715,5.036-11.751,11.751-11.751h26.859c6.715,0,11.751,5.036,11.751,11.751
			V449.888z M293.771,449.888c0,6.715-5.036,11.751-11.751,11.751h-26.859c-6.715,0-11.751-5.036-11.751-11.751v-43.646
			c0-6.715,5.036-11.751,11.751-11.751h26.859c6.715,0,11.751,5.036,11.751,11.751V449.888z M360.918,449.888
			c0,6.715-5.036,11.751-11.751,11.751h-26.859c-6.715,0-11.751-5.036-11.751-11.751v-43.646c0-6.715,5.036-11.751,11.751-11.751
			h26.859c6.715,0,11.751,5.036,11.751,11.751V449.888z M419.672,470.033c-23.502,0-41.967-18.466-41.967-41.967
			c0-23.502,18.466-41.967,41.967-41.967s41.967,18.466,41.967,41.967C461.639,451.567,443.174,470.033,419.672,470.033z
			 M461.639,352.525H41.967v-16.787h419.672V352.525z M461.639,285.377c0,9.233-7.554,16.787-16.787,16.787h-50.361
			c-9.233,0-16.787-7.554-16.787-16.787v-50.361c0-9.233,7.554-16.787,16.787-16.787h50.361c9.233,0,16.787,7.554,16.787,16.787
			V285.377z M428.066,201.443c-23.502,0-41.967-18.466-41.967-41.967c0-23.502,18.466-41.967,41.967-41.967
			s41.967,18.466,41.967,41.967C470.033,182.977,451.567,201.443,428.066,201.443z M402.885,75.541
			c-5.036,0-8.393-3.357-8.393-8.393s3.357-8.393,8.393-8.393c5.036,0,8.393,3.357,8.393,8.393S407.921,75.541,402.885,75.541z
			 M419.672,83.934c5.036,0,8.393,3.357,8.393,8.393s-3.357,8.393-8.393,8.393s-8.393-3.357-8.393-8.393
			S414.636,83.934,419.672,83.934z M436.459,75.541c-5.036,0-8.393-3.357-8.393-8.393s3.357-8.393,8.393-8.393
			c5.036,0,8.393,3.357,8.393,8.393S441.495,75.541,436.459,75.541z M453.246,83.934c5.036,0,8.393,3.357,8.393,8.393
			s-3.357,8.393-8.393,8.393c-5.036,0-8.393-3.357-8.393-8.393S448.21,83.934,453.246,83.934z M461.639,50.361H176.262
			c-5.036,0-8.393-3.357-8.393-8.393s3.357-8.393,8.393-8.393h285.377c5.036,0,8.393,3.357,8.393,8.393
			S466.675,50.361,461.639,50.361z"/>
	</g>
</g>
<g>
	<g>
		<rect x="58.754" y="235.016" width="50.361" height="50.361"/>
	</g>
</g>
<g>
	<g>
		<rect x="394.492" y="235.016" width="50.361" height="50.361"/>
	</g>
</g>
<g>
	<g>
		<rect x="201.443" y="142.689" width="16.787" height="33.574"/>
	</g>
</g>
<g>
	<g>
		<polygon points="335.738,293.77 335.738,285.377 335.738,285.377 		"/>
	</g>
</g>
<g>
	<g>
		<path d="M167.869,235.016v50.361h167.869v-50.361H167.869z M293.771,268.59h-83.934c-5.036,0-8.393-3.357-8.393-8.393
			s3.357-8.393,8.393-8.393h83.934c5.036,0,8.393,3.357,8.393,8.393S298.807,268.59,293.771,268.59z"/>
	</g>
</g>
<g>
	<g>
		<rect x="335.738" y="142.689" width="16.787" height="33.574"/>
	</g>
</g>
<g>
	<g>
		<rect x="134.295" y="142.689" width="16.787" height="33.574"/>
	</g>
</g>
<g>
	<g>
		<polygon points="109.115,293.77 109.115,285.377 109.115,285.377 		"/>
	</g>
</g>
<g>
	<g>
		<rect x="268.59" y="142.689" width="16.787" height="33.574"/>
	</g>
</g>
<g>
	<g>
		<rect x="50.361" y="50.361" width="83.934" height="33.574"/>
	</g>
</g>
<g>
	<g>
		<circle cx="428.066" cy="159.475" r="25.18"/>
	</g>
</g>
<g>
	<g>
		<rect x="260.197" y="411.279" width="16.787" height="33.574"/>
	</g>
</g>
<g>
	<g>
		<rect x="327.344" y="411.279" width="16.787" height="33.574"/>
	</g>
</g>
<g>
	<g>
		<rect x="125.902" y="411.279" width="16.787" height="33.574"/>
	</g>
</g>
<g>
	<g>
		<rect x="58.754" y="411.279" width="16.787" height="33.574"/>
	</g>
</g>
<g>
	<g>
		<rect x="193.049" y="411.279" width="16.787" height="33.574"/>
	</g>
</g>
<g>
	<g>
		<circle cx="419.672" cy="428.066" r="25.18"/>
	</g>
</g>
<g>
</g>
<g>
</g>
<g>
</g>
<g>
</g>
<g>
</g>
<g>
</g>
<g>
</g>
<g>
</g>
<g>
</g>
<g>
</g>
<g>
</g>
<g>
</g>
<g>
</g>
<g>
</g>
<g>
</g>
</svg>
