<?xml version="1.0" encoding="iso-8859-1"?>
<!-- Generator: Adobe Illustrator 19.0.0, SVG Export Plug-In . SVG Version: 6.00 Build 0)  -->
<svg version="1.1" id="Layer_1" xmlns="http://www.w3.org/2000/svg" xmlns:xlink="http://www.w3.org/1999/xlink" x="0px" y="0px"
	 viewBox="0 0 512 512" style="enable-background:new 0 0 512 512;" xml:space="preserve">
<g>
	<g>
		<path d="M94.729,392.533c3.968,19.448,21.205,34.133,41.805,34.133c22.025,0,39.996-16.845,42.223-38.298l88.849-74.035
			c6.263,15.778,21.615,26.999,39.595,26.999c18.918,0,34.807-12.459,40.388-29.534l79.616,43.426
			c2.671,20.975,20.437,37.308,42.129,37.308c23.526,0,42.667-19.14,42.667-42.667c0-23.526-19.14-42.667-42.667-42.667
			c-18.918,0-34.807,12.459-40.388,29.534l-79.616-43.426C346.658,272.333,328.892,256,307.2,256
			c-22.025,0-40.004,16.845-42.223,38.298l-88.849,74.035c-6.263-15.778-21.615-27-39.595-27c-20.599,0-37.837,14.686-41.805,34.133
			H34.133v-34.133h8.533c4.719,0,8.533-3.814,8.533-8.533s-3.814-8.533-8.533-8.533h-8.533v-25.6h8.533
			c4.719,0,8.533-3.814,8.533-8.533c0-4.719-3.814-8.533-8.533-8.533h-6.69l69.53-100.429c6.554,4.087,14.216,6.562,22.494,6.562
			c13.585,0,25.574-6.502,33.391-16.427l45.022,22.511c-0.947,3.524-1.613,7.159-1.613,10.982c0,23.526,19.14,42.667,42.667,42.667
			c23.526,0,42.667-19.14,42.667-42.667c0-9.173-2.97-17.621-7.919-24.593l54.417-101.052c6.391,3.84,13.781,6.178,21.769,6.178
			c8.405,0,16.205-2.526,22.818-6.741l55.782,71.714c0.188,0.247,0.469,0.333,0.683,0.555c-6.775,7.552-11.017,17.417-11.017,28.339
			c0,23.526,19.14,42.667,42.667,42.667c23.526,0,42.667-19.14,42.667-42.667c0-23.526-19.14-42.667-42.667-42.667
			c-6.596,0-12.774,1.63-18.355,4.318c-0.196-0.333-0.265-0.708-0.512-1.024L393.6,66.714c4.693-6.861,7.467-15.13,7.467-24.047
			C401.067,19.14,381.926,0,358.4,0c-23.526,0-42.667,19.14-42.667,42.667c0,9.173,2.97,17.621,7.919,24.593l-54.417,101.052
			c-6.391-3.84-13.781-6.178-21.769-6.178c-13.585,0-25.574,6.502-33.391,16.427l-45.022-22.511
			c0.947-3.524,1.613-7.159,1.613-10.982c0-23.526-19.14-42.667-42.667-42.667c-23.526,0-42.667,19.14-42.667,42.667
			c0,9.011,2.842,17.348,7.629,24.243L44.501,239.3c-0.606-0.137-1.186-0.367-1.835-0.367h-8.533v-25.6h8.533
			c4.719,0,8.533-3.814,8.533-8.533s-3.814-8.533-8.533-8.533h-8.533v-25.6h8.533c4.719,0,8.533-3.814,8.533-8.533
			s-3.814-8.533-8.533-8.533h-8.533V128h8.533c4.719,0,8.533-3.814,8.533-8.533s-3.814-8.533-8.533-8.533h-8.533v-25.6h8.533
			c4.719,0,8.533-3.814,8.533-8.533s-3.814-8.533-8.533-8.533h-8.533v-25.6h8.533c4.719,0,8.533-3.814,8.533-8.533
			S47.386,25.6,42.667,25.6h-8.533V8.533C34.133,3.814,30.319,0,25.6,0s-8.533,3.814-8.533,8.533V25.6H8.533
			C3.814,25.6,0,29.414,0,34.133s3.814,8.533,8.533,8.533h8.533v25.6H8.533C3.814,68.267,0,72.081,0,76.8s3.814,8.533,8.533,8.533
			h8.533v25.6H8.533c-4.719,0-8.533,3.814-8.533,8.533S3.814,128,8.533,128h8.533v25.6H8.533C3.814,153.6,0,157.414,0,162.133
			s3.814,8.533,8.533,8.533h8.533v25.6H8.533C3.814,196.267,0,200.081,0,204.8s3.814,8.533,8.533,8.533h8.533v25.6H8.533
			c-4.719,0-8.533,3.814-8.533,8.533S3.814,256,8.533,256h8.533v25.6H8.533C3.814,281.6,0,285.414,0,290.133
			c0,4.719,3.814,8.533,8.533,8.533h8.533v25.6H8.533C3.814,324.267,0,328.081,0,332.8s3.814,8.533,8.533,8.533h8.533v25.6H8.533
			c-4.719,0-8.533,3.814-8.533,8.533S3.814,384,8.533,384h8.533v25.6H8.533C3.814,409.6,0,413.414,0,418.133
			s3.814,8.533,8.533,8.533h8.533v25.6H8.533C3.814,452.267,0,456.081,0,460.8c0,4.719,3.814,8.533,8.533,8.533h8.533V486.4
			c0,4.719,3.814,8.533,8.533,8.533h25.6v8.533c0,4.719,3.814,8.533,8.533,8.533s8.533-3.814,8.533-8.533v-8.533h25.6v8.533
			c0,4.719,3.814,8.533,8.533,8.533s8.533-3.814,8.533-8.533v-8.533h25.6v8.533c0,4.719,3.814,8.533,8.533,8.533
			s8.533-3.814,8.533-8.533v-8.533h25.6v8.533c0,4.719,3.814,8.533,8.533,8.533s8.533-3.814,8.533-8.533v-8.533h25.6v8.533
			c0,4.719,3.814,8.533,8.533,8.533s8.533-3.814,8.533-8.533v-8.533h25.6v8.533c0,4.719,3.814,8.533,8.533,8.533
			s8.533-3.814,8.533-8.533v-8.533h25.6v8.533c0,4.719,3.814,8.533,8.533,8.533s8.533-3.814,8.533-8.533v-8.533h25.6v8.533
			c0,4.719,3.814,8.533,8.533,8.533s8.533-3.814,8.533-8.533v-8.533h25.6v8.533c0,4.719,3.814,8.533,8.533,8.533
			c4.719,0,8.533-3.814,8.533-8.533v-8.533h25.6v8.533c0,4.719,3.814,8.533,8.533,8.533c4.719,0,8.533-3.814,8.533-8.533v-8.533
			h25.6v8.533c0,4.719,3.814,8.533,8.533,8.533s8.533-3.814,8.533-8.533v-8.533h8.533c4.719,0,8.533-3.814,8.533-8.533
			s-3.814-8.533-8.533-8.533h-8.533v-8.533c0-4.719-3.814-8.533-8.533-8.533s-8.533,3.814-8.533,8.533v8.533h-25.6v-8.533
			c0-4.719-3.814-8.533-8.533-8.533c-4.719,0-8.533,3.814-8.533,8.533v8.533h-25.6v-8.533c0-4.719-3.814-8.533-8.533-8.533
			c-4.719,0-8.533,3.814-8.533,8.533v8.533h-25.6v-8.533c0-4.719-3.814-8.533-8.533-8.533s-8.533,3.814-8.533,8.533v8.533h-25.6
			v-8.533c0-4.719-3.814-8.533-8.533-8.533s-8.533,3.814-8.533,8.533v8.533h-25.6v-8.533c0-4.719-3.814-8.533-8.533-8.533
			s-8.533,3.814-8.533,8.533v8.533h-25.6v-8.533c0-4.719-3.814-8.533-8.533-8.533s-8.533,3.814-8.533,8.533v8.533h-25.6v-8.533
			c0-4.719-3.814-8.533-8.533-8.533s-8.533,3.814-8.533,8.533v8.533h-25.6v-8.533c0-4.719-3.814-8.533-8.533-8.533
			s-8.533,3.814-8.533,8.533v8.533h-25.6v-8.533c0-4.719-3.814-8.533-8.533-8.533s-8.533,3.814-8.533,8.533v8.533h-25.6v-8.533
			c0-4.719-3.814-8.533-8.533-8.533s-8.533,3.814-8.533,8.533v8.533H34.133v-85.333H94.729z"/>
	</g>
</g>
<g>
</g>
<g>
</g>
<g>
</g>
<g>
</g>
<g>
</g>
<g>
</g>
<g>
</g>
<g>
</g>
<g>
</g>
<g>
</g>
<g>
</g>
<g>
</g>
<g>
</g>
<g>
</g>
<g>
</g>
</svg>
