<?xml version="1.0" encoding="iso-8859-1"?>
<!-- Generator: Adobe Illustrator 19.0.0, SVG Export Plug-In . SVG Version: 6.00 Build 0)  -->
<svg version="1.1" id="Layer_1" xmlns="http://www.w3.org/2000/svg" xmlns:xlink="http://www.w3.org/1999/xlink" x="0px" y="0px"
	 viewBox="0 0 512.001 512.001" style="enable-background:new 0 0 512.001 512.001;" xml:space="preserve">
<g>
	<g>
		<g>
			<path d="M392.533,68.77v93.363H309.18c7.791,34.15,38.349,59.733,74.82,59.733c42.351,0,76.8-34.449,76.8-76.8
				C460.8,105.6,430.874,73.028,392.533,68.77z"/>
			<path d="M375.467,68.771c-1.647,0.179-3.268,0.461-4.89,0.751c-0.708,0.119-1.442,0.196-2.159,0.341
				c-2.381,0.495-4.727,1.101-7.031,1.809c-0.828,0.256-1.621,0.589-2.44,0.879c-1.476,0.512-2.953,1.007-4.386,1.604
				c-0.939,0.393-1.843,0.862-2.765,1.289c-1.263,0.58-2.526,1.152-3.746,1.809c-0.939,0.495-1.843,1.058-2.756,1.596
				c-1.152,0.674-2.304,1.34-3.413,2.074c-0.904,0.589-1.766,1.229-2.637,1.86c-1.067,0.768-2.125,1.536-3.149,2.355
				c-0.845,0.674-1.655,1.391-2.466,2.099c-0.981,0.853-1.954,1.724-2.893,2.628c-0.776,0.751-1.536,1.527-2.278,2.313
				c-0.896,0.939-1.775,1.903-2.628,2.884c-0.7,0.819-1.391,1.655-2.065,2.509c-0.811,1.024-1.587,2.074-2.347,3.132
				c-0.623,0.879-1.237,1.766-1.826,2.671c-0.717,1.109-1.399,2.244-2.065,3.396c-0.529,0.922-1.067,1.852-1.562,2.799
				c-0.623,1.195-1.195,2.415-1.758,3.644c-0.444,0.964-0.896,1.911-1.297,2.893c-0.521,1.289-0.981,2.611-1.434,3.934
				c-0.341,0.973-0.7,1.937-0.998,2.927c-0.427,1.399-0.759,2.842-1.109,4.284c-0.222,0.947-0.486,1.886-0.683,2.85
				c-0.316,1.621-0.529,3.268-0.751,4.924c-0.111,0.819-0.265,1.621-0.35,2.458c-0.247,2.492-0.384,5.026-0.384,7.586h68.267V68.771
				z"/>
			<path d="M512,46.917c0-21.163-17.22-38.383-38.383-38.383H264.533v307.2H512V46.917z M409.6,281.6H298.667
				c-4.71,0-8.533-3.814-8.533-8.533s3.823-8.533,8.533-8.533H409.6c4.719,0,8.533,3.814,8.533,8.533S414.319,281.6,409.6,281.6z
				 M460.8,281.6h-17.067c-4.719,0-8.533-3.814-8.533-8.533s3.814-8.533,8.533-8.533H460.8c4.719,0,8.533,3.814,8.533,8.533
				S465.519,281.6,460.8,281.6z M384,238.934c-45.926,0-84.181-33.178-92.237-76.8h-0.393l-0.734-7.373
				c-0.008-0.077-0.017-0.154-0.026-0.239l-0.009-0.077c-0.307-3.089-0.469-6.212-0.469-9.378c0-51.755,42.112-93.867,93.867-93.867
				h8.533v0.435c47.77,4.326,85.333,44.553,85.333,93.431C477.867,196.822,435.755,238.934,384,238.934z"/>
			<path d="M247.467,8.534H38.391C17.22,8.534,0,25.754,0,46.917v268.817h247.467V8.534z M51.2,59.734h110.933
				c4.71,0,8.533,3.814,8.533,8.533s-3.823,8.533-8.533,8.533H51.2c-4.71,0-8.533-3.814-8.533-8.533S46.49,59.734,51.2,59.734z
				 M51.2,93.867h8.533c4.71,0,8.533,3.814,8.533,8.533s-3.823,8.533-8.533,8.533H51.2c-4.71,0-8.533-3.814-8.533-8.533
				S46.49,93.867,51.2,93.867z M51.2,128H128c4.71,0,8.533,3.814,8.533,8.533s-3.823,8.533-8.533,8.533H51.2
				c-4.71,0-8.533-3.814-8.533-8.533S46.49,128,51.2,128z M51.2,162.134h110.933c4.71,0,8.533,3.814,8.533,8.533
				c0,4.719-3.823,8.533-8.533,8.533H51.2c-4.71,0-8.533-3.814-8.533-8.533C42.667,165.948,46.49,162.134,51.2,162.134z
				 M51.2,196.267h8.533c4.71,0,8.533,3.814,8.533,8.533s-3.823,8.533-8.533,8.533H51.2c-4.71,0-8.533-3.814-8.533-8.533
				S46.49,196.267,51.2,196.267z M51.2,230.4H128c4.71,0,8.533,3.814,8.533,8.533s-3.823,8.533-8.533,8.533H51.2
				c-4.71,0-8.533-3.814-8.533-8.533S46.49,230.4,51.2,230.4z M162.133,281.6H51.2c-4.71,0-8.533-3.814-8.533-8.533
				s3.823-8.533,8.533-8.533h110.933c4.71,0,8.533,3.814,8.533,8.533S166.844,281.6,162.133,281.6z M213.333,281.6h-17.067
				c-4.71,0-8.533-3.814-8.533-8.533s3.823-8.533,8.533-8.533h17.067c4.71,0,8.533,3.814,8.533,8.533S218.044,281.6,213.333,281.6z
				 M213.333,247.467h-51.2c-4.71,0-8.533-3.814-8.533-8.533s3.823-8.533,8.533-8.533h51.2c4.71,0,8.533,3.814,8.533,8.533
				S218.044,247.467,213.333,247.467z M213.333,213.334H93.867c-4.71,0-8.533-3.814-8.533-8.533s3.823-8.533,8.533-8.533h119.467
				c4.71,0,8.533,3.814,8.533,8.533S218.044,213.334,213.333,213.334z M213.333,179.2h-17.067c-4.71,0-8.533-3.814-8.533-8.533
				c0-4.719,3.823-8.533,8.533-8.533h17.067c4.71,0,8.533,3.814,8.533,8.533C221.867,175.386,218.044,179.2,213.333,179.2z
				 M213.333,145.067h-51.2c-4.71,0-8.533-3.814-8.533-8.533s3.823-8.533,8.533-8.533h51.2c4.71,0,8.533,3.814,8.533,8.533
				S218.044,145.067,213.333,145.067z M213.333,110.934H93.867c-4.71,0-8.533-3.814-8.533-8.533s3.823-8.533,8.533-8.533h119.467
				c4.71,0,8.533,3.814,8.533,8.533S218.044,110.934,213.333,110.934z M213.333,76.8h-17.067c-4.71,0-8.533-3.814-8.533-8.533
				s3.823-8.533,8.533-8.533h17.067c4.71,0,8.533,3.814,8.533,8.533S218.044,76.8,213.333,76.8z"/>
			<path d="M0.001,332.8v38.417c0,21.163,17.22,38.383,38.383,38.383h152.371c1.212,14.95-5.282,29.705-17.271,38.17l-15.343,10.82
				c-0.99,0.683-1.809,1.51-2.492,2.432c-10.709,1.126-19.115,10.104-19.115,21.111c0,11.768,9.566,21.333,21.333,21.333h196.267
				c11.759,0,21.333-9.566,21.333-21.333c0-10.999-8.405-19.977-19.106-21.111c-0.666-0.905-1.476-1.724-2.44-2.398l-15.386-10.837
				c-12.023-8.474-18.517-23.262-17.297-38.187h152.38c21.163,0,38.383-17.22,38.383-38.383V332.8H0.001z M327.416,460.8H184.585
				c15.744-11.793,24.414-31.326,23.279-51.2h96.273C303.002,429.475,311.664,449.007,327.416,460.8z"/>
		</g>
	</g>
</g>
<g>
</g>
<g>
</g>
<g>
</g>
<g>
</g>
<g>
</g>
<g>
</g>
<g>
</g>
<g>
</g>
<g>
</g>
<g>
</g>
<g>
</g>
<g>
</g>
<g>
</g>
<g>
</g>
<g>
</g>
</svg>
