<?xml version="1.0" encoding="iso-8859-1"?>
<!-- Generator: Adobe Illustrator 19.0.0, SVG Export Plug-In . SVG Version: 6.00 Build 0)  -->
<svg version="1.1" id="Layer_1" xmlns="http://www.w3.org/2000/svg" xmlns:xlink="http://www.w3.org/1999/xlink" x="0px" y="0px"
	 viewBox="0 0 512.001 512.001" style="enable-background:new 0 0 512.001 512.001;" xml:space="preserve">
<g>
	<g>
		<g>
			<path d="M281.6,77.275v82.842l29.935,59.87c23.782-13.73,38.332-38.665,38.332-66.389
				C349.867,114.13,319.949,81.533,281.6,77.275z"/>
			<path d="M230.4,170.667V94.345c-38.349,4.258-68.267,36.855-68.267,76.322c0,42.351,34.458,76.8,76.8,76.8
				c8.858,0,17.451-1.468,25.634-4.378l-33.314-68.693C230.69,173.236,230.4,171.956,230.4,170.667z"/>
			<path d="M0.001,332.8v38.417c0,21.163,17.22,38.383,38.383,38.383h152.371c1.212,14.95-5.282,29.705-17.271,38.17l-15.343,10.82
				c-0.99,0.683-1.809,1.51-2.492,2.432c-10.709,1.126-19.115,10.104-19.115,21.111c0,11.768,9.566,21.333,21.333,21.333h196.267
				c11.759,0,21.333-9.566,21.333-21.333c0-10.999-8.405-19.977-19.106-21.111c-0.666-0.905-1.476-1.724-2.44-2.398l-15.386-10.837
				c-12.023-8.474-18.517-23.262-17.297-38.187h152.371c21.171,0,38.391-17.22,38.391-38.383V332.8H0.001z M327.416,460.8H184.585
				c15.744-11.793,24.414-31.326,23.279-51.2h96.273C303.002,429.475,311.664,449.007,327.416,460.8z"/>
			<path d="M512,46.917c0-21.163-17.22-38.383-38.391-38.383H38.391C17.22,8.534,0,25.754,0,46.917v268.817h512V46.917z
				 M401.067,76.8h17.067V59.734c0-4.719,3.823-8.533,8.533-8.533s8.533,3.814,8.533,8.533V76.8h17.067
				c4.71,0,8.533,3.814,8.533,8.533s-3.823,8.533-8.533,8.533H435.2v17.067c0,4.719-3.823,8.533-8.533,8.533
				s-8.533-3.814-8.533-8.533V93.867h-17.067c-4.71,0-8.533-3.814-8.533-8.533S396.356,76.8,401.067,76.8z M384,238.934h8.533
				c4.71,0,8.533,3.814,8.533,8.533S397.244,256,392.533,256H384c-4.71,0-8.533-3.814-8.533-8.533S379.29,238.934,384,238.934z
				 M42.667,51.2H51.2c4.71,0,8.533,3.814,8.533,8.533s-3.823,8.533-8.533,8.533h-8.533c-4.71,0-8.533-3.814-8.533-8.533
				S37.956,51.2,42.667,51.2z M34.133,93.867c0-4.719,3.823-8.533,8.533-8.533H76.8c4.71,0,8.533,3.814,8.533,8.533
				S81.51,102.4,76.8,102.4H42.667C37.956,102.4,34.133,98.586,34.133,93.867z M116.966,275.567c3.336,3.336,3.336,8.73,0,12.066
				c-1.664,1.664-3.849,2.5-6.033,2.5c-2.185,0-4.369-0.836-6.033-2.5l-19.567-19.567l-19.567,19.567
				c-1.664,1.664-3.849,2.5-6.033,2.5s-4.369-0.836-6.033-2.5c-3.337-3.337-3.337-8.73,0-12.066L73.267,256L53.7,236.434
				c-3.337-3.337-3.337-8.73,0-12.066c3.337-3.337,8.73-3.337,12.066,0l19.567,19.567l19.567-19.567
				c3.337-3.337,8.73-3.337,12.066,0c3.336,3.336,3.336,8.73,0,12.066L97.399,256L116.966,275.567z M128,102.4h-17.067
				c-4.71,0-8.533-3.814-8.533-8.533s3.823-8.533,8.533-8.533H128c4.71,0,8.533,3.814,8.533,8.533S132.71,102.4,128,102.4z
				 M128,68.267H85.333c-4.71,0-8.533-3.814-8.533-8.533s3.823-8.533,8.533-8.533H128c4.71,0,8.533,3.814,8.533,8.533
				S132.71,68.267,128,68.267z M279.902,255.139c-12.834,6.238-26.615,9.395-40.969,9.395c-51.755,0-93.867-42.112-93.867-93.867
				c0-51.755,42.112-93.867,93.867-93.867c4.71,0,8.533,3.814,8.533,8.533v83.379l36.386,75.025
				C285.901,247.988,284.134,253.082,279.902,255.139z M313.779,238.08c-1.152,0.563-2.423,0.853-3.703,0.853H307.2
				c-3.234,0-6.187-1.826-7.637-4.719l-34.133-68.267c-0.589-1.178-0.896-2.492-0.896-3.814V68.267c0-4.719,3.823-8.533,8.533-8.533
				c51.755,0,93.867,42.112,93.867,93.867C366.933,189.884,346.564,222.26,313.779,238.08z M418.133,290.134H384
				c-4.71,0-8.533-3.814-8.533-8.533s3.823-8.533,8.533-8.533h34.133c4.71,0,8.533,3.814,8.533,8.533
				S422.844,290.134,418.133,290.134z M469.333,290.134h-17.067c-4.71,0-8.533-3.814-8.533-8.533s3.823-8.533,8.533-8.533h17.067
				c4.71,0,8.533,3.814,8.533,8.533S474.044,290.134,469.333,290.134z M469.333,256h-42.667c-4.71,0-8.533-3.814-8.533-8.533
				s3.823-8.533,8.533-8.533h42.667c4.71,0,8.533,3.814,8.533,8.533S474.044,256,469.333,256z"/>
		</g>
	</g>
</g>
<g>
</g>
<g>
</g>
<g>
</g>
<g>
</g>
<g>
</g>
<g>
</g>
<g>
</g>
<g>
</g>
<g>
</g>
<g>
</g>
<g>
</g>
<g>
</g>
<g>
</g>
<g>
</g>
<g>
</g>
</svg>
