<?xml version="1.0" encoding="iso-8859-1"?>
<!-- Generator: Adobe Illustrator 19.0.0, SVG Export Plug-In . SVG Version: 6.00 Build 0)  -->
<svg version="1.1" id="Layer_1" xmlns="http://www.w3.org/2000/svg" xmlns:xlink="http://www.w3.org/1999/xlink" x="0px" y="0px"
	 viewBox="0 0 503.607 503.607" style="enable-background:new 0 0 503.607 503.607;" xml:space="preserve">
<g>
	<g>
		<g>
			<path d="M134.295,41.967c-9.258,0-16.787,7.529-16.787,16.787c0,9.258,7.529,16.787,16.787,16.787
				c9.258,0,16.787-7.529,16.787-16.787C151.082,49.496,143.553,41.967,134.295,41.967z"/>
			<path d="M58.754,41.967c-9.258,0-16.787,7.529-16.787,16.787c0,9.258,7.529,16.787,16.787,16.787
				c9.258,0,16.787-7.529,16.787-16.787C75.541,49.496,68.012,41.967,58.754,41.967z"/>
			<path d="M209.836,41.967c-9.258,0-16.787,7.529-16.787,16.787c0,9.258,7.529,16.787,16.787,16.787
				c9.258,0,16.787-7.529,16.787-16.787C226.623,49.496,219.094,41.967,209.836,41.967z"/>
			<path d="M479.501,0H24.106C10.819,0,0,10.819,0,24.106v76.615h503.607V24.106C503.607,10.819,492.787,0,479.501,0z
				 M58.754,92.328c-18.516,0-33.574-15.058-33.574-33.574S40.238,25.18,58.754,25.18s33.574,15.058,33.574,33.574
				S77.27,92.328,58.754,92.328z M134.295,92.328c-18.516,0-33.574-15.058-33.574-33.574s15.058-33.574,33.574-33.574
				s33.574,15.058,33.574,33.574S152.811,92.328,134.295,92.328z M209.836,92.328c-18.516,0-33.574-15.058-33.574-33.574
				S191.32,25.18,209.836,25.18s33.574,15.058,33.574,33.574S228.352,92.328,209.836,92.328z"/>
			<path d="M218.229,402.885c0,18.516,15.058,33.574,33.574,33.574s33.574-15.058,33.574-33.574s-15.058-33.574-33.574-33.574
				S218.229,384.369,218.229,402.885z"/>
			<path d="M100.721,436.459c18.516,0,33.574-15.058,33.574-33.574s-15.058-33.574-33.574-33.574s-33.574,15.058-33.574,33.574
				S82.205,436.459,100.721,436.459z"/>
			<path d="M369.311,402.885c0,18.516,15.058,33.574,33.574,33.574s33.574-15.058,33.574-33.574s-15.058-33.574-33.574-33.574
				S369.311,384.369,369.311,402.885z"/>
			<path d="M285.377,201.443c0-18.516-15.058-33.574-33.574-33.574s-33.574,15.058-33.574,33.574s15.058,33.574,33.574,33.574
				S285.377,219.959,285.377,201.443z"/>
			<path d="M0,476.857c0,14.747,12.003,26.75,26.75,26.75h450.107c14.747,0,26.75-12.003,26.75-26.75V117.508H0V476.857z
				 M92.328,353.28v-67.903H243.41v-34.329c-23.779-4.021-41.967-24.702-41.967-49.605c0-27.774,22.587-50.361,50.361-50.361
				c27.774,0,50.361,22.587,50.361,50.361c0,24.903-18.189,45.585-41.967,49.605v34.329h151.082v67.903
				c23.779,4.02,41.967,24.702,41.967,49.605c0,27.774-22.587,50.361-50.361,50.361c-27.774,0-50.361-22.587-50.361-50.361
				c0-24.903,18.189-45.585,41.967-49.605v-51.116H260.197v51.116c23.779,4.02,41.967,24.702,41.967,49.605
				c0,27.774-22.587,50.361-50.361,50.361c-27.774,0-50.361-22.587-50.361-50.361c0-24.903,18.189-45.585,41.967-49.605v-51.116
				H109.115v51.116c23.779,4.02,41.967,24.702,41.967,49.605c0,27.774-22.587,50.361-50.361,50.361
				c-27.774,0-50.361-22.587-50.361-50.361C50.361,377.982,68.549,357.3,92.328,353.28z"/>
		</g>
	</g>
</g>
<g>
</g>
<g>
</g>
<g>
</g>
<g>
</g>
<g>
</g>
<g>
</g>
<g>
</g>
<g>
</g>
<g>
</g>
<g>
</g>
<g>
</g>
<g>
</g>
<g>
</g>
<g>
</g>
<g>
</g>
</svg>
