<?xml version="1.0" encoding="iso-8859-1"?>
<!-- Generator: Adobe Illustrator 19.0.0, SVG Export Plug-In . SVG Version: 6.00 Build 0)  -->
<svg version="1.1" id="Layer_1" xmlns="http://www.w3.org/2000/svg" xmlns:xlink="http://www.w3.org/1999/xlink" x="0px" y="0px"
	 viewBox="0 0 503.607 503.607" style="enable-background:new 0 0 503.607 503.607;" xml:space="preserve">
<g>
	<g>
		<g>
			<path d="M134.295,41.967c-9.258,0-16.787,7.529-16.787,16.787c0,9.258,7.529,16.787,16.787,16.787
				c9.258,0,16.787-7.529,16.787-16.787C151.082,49.496,143.553,41.967,134.295,41.967z"/>
			<path d="M58.754,41.967c-9.258,0-16.787,7.529-16.787,16.787c0,9.258,7.529,16.787,16.787,16.787
				c9.258,0,16.787-7.529,16.787-16.787C75.541,49.496,68.012,41.967,58.754,41.967z"/>
			<path d="M209.836,41.967c-9.258,0-16.787,7.529-16.787,16.787c0,9.258,7.529,16.787,16.787,16.787
				c9.258,0,16.787-7.529,16.787-16.787C226.623,49.496,219.094,41.967,209.836,41.967z"/>
			<path d="M479.501,0H24.106C10.819,0,0,10.819,0,24.106v76.615h503.607V24.106C503.607,10.819,492.787,0,479.501,0z
				 M58.754,92.328c-18.516,0-33.574-15.058-33.574-33.574S40.238,25.18,58.754,25.18s33.574,15.058,33.574,33.574
				S77.27,92.328,58.754,92.328z M134.295,92.328c-18.516,0-33.574-15.058-33.574-33.574s15.058-33.574,33.574-33.574
				s33.574,15.058,33.574,33.574S152.811,92.328,134.295,92.328z M209.836,92.328c-18.516,0-33.574-15.058-33.574-33.574
				S191.32,25.18,209.836,25.18s33.574,15.058,33.574,33.574S228.352,92.328,209.836,92.328z"/>
			<polygon points="167.868,188.131 167.868,218.23 197.967,218.23 			"/>
			<polygon points="402.884,188.131 402.884,218.23 432.983,218.23 			"/>
			<path d="M209.836,377.705h-41.967c-4.633,0-8.393-3.76-8.393-8.393s3.76-8.393,8.393-8.393h41.967v-58.754h-38.492l19.246,19.246
				c3.282,3.282,3.282,8.586,0,11.868c-1.637,1.637-3.785,2.459-5.934,2.459c-2.149,0-4.297-0.823-5.934-2.459l-33.574-33.574
				c-0.772-0.772-1.385-1.695-1.813-2.728c-0.848-2.048-0.848-4.365,0-6.413c0.428-1.032,1.041-1.956,1.813-2.728l33.574-33.574
				c3.282-3.282,8.586-3.282,11.868,0c3.282,3.282,3.282,8.586,0,11.868l-19.246,19.246h38.492v-50.361h-50.361
				c-4.633,0-8.393-3.76-8.393-8.393v-50.361H58.754v251.803h151.082V377.705z"/>
			<path d="M0,476.848c0,14.756,12.003,26.758,26.75,26.758h450.098c14.756,0,26.758-12.003,26.758-26.758v-359.34H0V476.848z
				 M41.967,167.869c0-4.633,3.76-8.393,8.393-8.393h109.115c0.176,0,0.336,0.092,0.52,0.101c0.739,0.05,1.461,0.193,2.166,0.436
				c0.269,0.092,0.529,0.159,0.789,0.277c0.89,0.411,1.737,0.923,2.459,1.645l58.754,58.754c0.722,0.722,1.234,1.57,1.645,2.459
				c0.117,0.26,0.185,0.52,0.277,0.789c0.243,0.705,0.386,1.419,0.428,2.157c0.017,0.185,0.109,0.344,0.109,0.529v58.754h50.361
				V167.869c0-4.633,3.76-8.393,8.393-8.393h109.115c0.176,0,0.336,0.092,0.52,0.101c0.739,0.05,1.46,0.193,2.165,0.436
				c0.269,0.092,0.529,0.159,0.789,0.277c0.89,0.411,1.737,0.923,2.459,1.645l58.754,58.754c0.722,0.722,1.234,1.57,1.645,2.459
				c0.117,0.26,0.185,0.52,0.277,0.789c0.243,0.705,0.386,1.419,0.428,2.157c0.017,0.185,0.109,0.344,0.109,0.529v209.836
				c0,4.633-3.76,8.393-8.393,8.393H285.377c-4.633,0-8.393-3.76-8.393-8.393v-58.754h-50.361v58.754
				c0,4.633-3.76,8.393-8.393,8.393H50.361c-4.633,0-8.393-3.76-8.393-8.393V167.869z"/>
			<rect x="226.623" y="302.163" width="50.361" height="58.754"/>
			<path d="M444.852,235.016h-50.361c-4.633,0-8.393-3.76-8.393-8.393v-50.361h-92.328v109.115h41.967
				c4.633,0,8.393,3.76,8.393,8.393s-3.76,8.393-8.393,8.393h-41.967v58.754h38.492l-19.246-19.246
				c-3.282-3.282-3.282-8.586,0-11.868c3.282-3.282,8.586-3.282,11.868,0l33.574,33.574c0.772,0.772,1.385,1.695,1.813,2.728
				c0.848,2.048,0.848,4.365,0,6.413c-0.428,1.032-1.041,1.956-1.813,2.728l-33.574,33.574c-1.637,1.637-3.785,2.459-5.934,2.459
				s-4.297-0.823-5.934-2.459c-3.282-3.282-3.282-8.586,0-11.868l19.246-19.246h-38.492v50.361h151.082V235.016z"/>
		</g>
	</g>
</g>
<g>
</g>
<g>
</g>
<g>
</g>
<g>
</g>
<g>
</g>
<g>
</g>
<g>
</g>
<g>
</g>
<g>
</g>
<g>
</g>
<g>
</g>
<g>
</g>
<g>
</g>
<g>
</g>
<g>
</g>
</svg>
