<?xml version="1.0" encoding="iso-8859-1"?>
<!-- Generator: Adobe Illustrator 19.0.0, SVG Export Plug-In . SVG Version: 6.00 Build 0)  -->
<svg version="1.1" id="Layer_1" xmlns="http://www.w3.org/2000/svg" xmlns:xlink="http://www.w3.org/1999/xlink" x="0px" y="0px"
	 viewBox="0 0 503.607 503.607" style="enable-background:new 0 0 503.607 503.607;" xml:space="preserve">
<g>
	<g>
		<g>
			<path d="M209.836,41.967c-9.258,0-16.787,7.529-16.787,16.787c0,9.258,7.529,16.787,16.787,16.787
				c9.258,0,16.787-7.529,16.787-16.787C226.623,49.496,219.094,41.967,209.836,41.967z"/>
			<path d="M479.501,0H24.106C10.819,0,0,10.819,0,24.106v76.615h503.607V24.106C503.607,10.819,492.787,0,479.501,0z
				 M58.754,92.328c-18.516,0-33.574-15.058-33.574-33.574S40.238,25.18,58.754,25.18s33.574,15.058,33.574,33.574
				S77.27,92.328,58.754,92.328z M134.295,92.328c-18.516,0-33.574-15.058-33.574-33.574s15.058-33.574,33.574-33.574
				s33.574,15.058,33.574,33.574S152.811,92.328,134.295,92.328z M209.836,92.328c-18.516,0-33.574-15.058-33.574-33.574
				S191.32,25.18,209.836,25.18s33.574,15.058,33.574,33.574S228.352,92.328,209.836,92.328z"/>
			<path d="M58.754,41.967c-9.258,0-16.787,7.529-16.787,16.787c0,9.258,7.529,16.787,16.787,16.787
				c9.258,0,16.787-7.529,16.787-16.787C75.541,49.496,68.012,41.967,58.754,41.967z"/>
			<path d="M134.295,41.967c-9.258,0-16.787,7.529-16.787,16.787c0,9.258,7.529,16.787,16.787,16.787
				c9.258,0,16.787-7.529,16.787-16.787C151.082,49.496,143.553,41.967,134.295,41.967z"/>
			<path d="M0,480.525c0,12.733,10.349,23.082,23.082,23.082H243.41V352.525H0V480.525z M117.508,461.639h-16.787
				c-4.642,0-8.393-3.76-8.393-8.393s3.752-8.393,8.393-8.393h16.787c4.642,0,8.393,3.76,8.393,8.393
				S122.15,461.639,117.508,461.639z M134.295,428.066h-33.574c-4.642,0-8.393-3.76-8.393-8.393s3.752-8.393,8.393-8.393h33.574
				c4.642,0,8.393,3.76,8.393,8.393S138.937,428.066,134.295,428.066z M209.836,461.639h-58.754c-4.642,0-8.393-3.76-8.393-8.393
				s3.752-8.393,8.393-8.393h58.754c4.642,0,8.393,3.76,8.393,8.393S214.478,461.639,209.836,461.639z M209.836,428.066h-41.967
				c-4.642,0-8.393-3.76-8.393-8.393s3.752-8.393,8.393-8.393h41.967c4.642,0,8.393,3.76,8.393,8.393
				S214.478,428.066,209.836,428.066z M193.049,377.705h16.787c4.642,0,8.393,3.76,8.393,8.393c0,4.633-3.752,8.393-8.393,8.393
				h-16.787c-4.642,0-8.393-3.76-8.393-8.393C184.656,381.465,188.408,377.705,193.049,377.705z M50.361,377.705h109.115
				c4.642,0,8.393,3.76,8.393,8.393c0,4.633-3.752,8.393-8.393,8.393H50.361c-4.642,0-8.393-3.76-8.393-8.393
				C41.967,381.465,45.719,377.705,50.361,377.705z M50.361,411.279h8.393c4.642,0,8.393,3.76,8.393,8.393s-3.752,8.393-8.393,8.393
				h-8.393c-4.642,0-8.393-3.76-8.393-8.393S45.719,411.279,50.361,411.279z M50.361,444.852h16.787c4.642,0,8.393,3.76,8.393,8.393
				s-3.752,8.393-8.393,8.393H50.361c-4.642,0-8.393-3.76-8.393-8.393S45.719,444.852,50.361,444.852z"/>
			<path d="M260.197,503.607h220.328c12.733,0,23.082-10.349,23.082-23.082v-128h-243.41V503.607z M402.885,461.639h-16.787
				c-4.642,0-8.393-3.76-8.393-8.393s3.752-8.393,8.393-8.393h16.787c4.642,0,8.393,3.76,8.393,8.393
				S407.527,461.639,402.885,461.639z M402.885,428.066h-33.574c-4.642,0-8.393-3.76-8.393-8.393s3.752-8.393,8.393-8.393h33.574
				c4.642,0,8.393,3.76,8.393,8.393S407.527,428.066,402.885,428.066z M453.246,461.639h-16.787c-4.642,0-8.393-3.76-8.393-8.393
				s3.752-8.393,8.393-8.393h16.787c4.642,0,8.393,3.76,8.393,8.393S457.887,461.639,453.246,461.639z M453.246,428.066h-8.393
				c-4.642,0-8.393-3.76-8.393-8.393s3.752-8.393,8.393-8.393h8.393c4.642,0,8.393,3.76,8.393,8.393
				S457.887,428.066,453.246,428.066z M344.131,377.705h109.115c4.642,0,8.393,3.76,8.393,8.393c0,4.633-3.752,8.393-8.393,8.393
				H344.131c-4.642,0-8.393-3.76-8.393-8.393C335.738,381.465,339.49,377.705,344.131,377.705z M293.771,377.705h16.787
				c4.642,0,8.393,3.76,8.393,8.393c0,4.633-3.752,8.393-8.393,8.393h-16.787c-4.642,0-8.393-3.76-8.393-8.393
				C285.377,381.465,289.129,377.705,293.771,377.705z M293.771,411.279h41.967c4.642,0,8.393,3.76,8.393,8.393
				s-3.752,8.393-8.393,8.393h-41.967c-4.642,0-8.393-3.76-8.393-8.393S289.129,411.279,293.771,411.279z M293.771,444.852h58.754
				c4.642,0,8.393,3.76,8.393,8.393s-3.752,8.393-8.393,8.393h-58.754c-4.642,0-8.393-3.76-8.393-8.393
				S289.129,444.852,293.771,444.852z"/>
			<path d="M235.016,285.377c0,9.258,7.529,16.787,16.787,16.787c9.258,0,16.787-7.529,16.787-16.787s-7.529-16.787-16.787-16.787
				C242.545,268.59,235.016,276.119,235.016,285.377z"/>
			<path d="M151.082,302.164c9.258,0,16.787-7.529,16.787-16.787s-7.529-16.787-16.787-16.787s-16.787,7.529-16.787,16.787
				S141.824,302.164,151.082,302.164z"/>
			<path d="M268.59,167.869c0-9.258-7.529-16.787-16.787-16.787c-9.258,0-16.787,7.529-16.787,16.787
				c0,9.258,7.529,16.787,16.787,16.787C261.061,184.656,268.59,177.127,268.59,167.869z"/>
			<path d="M335.738,285.377c0,9.258,7.529,16.787,16.787,16.787c9.258,0,16.787-7.529,16.787-16.787s-7.529-16.787-16.787-16.787
				C343.267,268.59,335.738,276.119,335.738,285.377z"/>
			<path d="M0,335.738h503.607V117.508H0V335.738z M142.689,252.995v-43.159H243.41v-9.585c-14.445-3.752-25.18-16.787-25.18-32.382
				c0-18.516,15.058-33.574,33.574-33.574s33.574,15.058,33.574,33.574c0,15.595-10.735,28.63-25.18,32.382v9.585h100.721v43.159
				c14.445,3.752,25.18,16.787,25.18,32.382c0,18.516-15.058,33.574-33.574,33.574s-33.574-15.058-33.574-33.574
				c0-15.595,10.735-28.63,25.18-32.382v-26.372h-83.934v26.372c14.445,3.752,25.18,16.787,25.18,32.382
				c0,18.516-15.058,33.574-33.574,33.574s-33.574-15.058-33.574-33.574c0-15.595,10.735-28.63,25.18-32.382v-26.372h-83.934v26.372
				c14.445,3.752,25.18,16.787,25.18,32.382c0,18.516-15.058,33.574-33.574,33.574s-33.574-15.058-33.574-33.574
				C117.508,269.782,128.243,256.747,142.689,252.995z"/>
		</g>
	</g>
</g>
<g>
</g>
<g>
</g>
<g>
</g>
<g>
</g>
<g>
</g>
<g>
</g>
<g>
</g>
<g>
</g>
<g>
</g>
<g>
</g>
<g>
</g>
<g>
</g>
<g>
</g>
<g>
</g>
<g>
</g>
</svg>
