<?xml version="1.0" encoding="iso-8859-1"?>
<!-- Generator: Adobe Illustrator 19.0.0, SVG Export Plug-In . SVG Version: 6.00 Build 0)  -->
<svg version="1.1" id="Layer_1" xmlns="http://www.w3.org/2000/svg" xmlns:xlink="http://www.w3.org/1999/xlink" x="0px" y="0px"
	 viewBox="0 0 503.607 503.607" style="enable-background:new 0 0 503.607 503.607;" xml:space="preserve">
<g>
	<g>
		<g>
			<path d="M51.427,444.852h98.589c0.588,0,1.066-0.478,1.066-1.066v-123.77c0-0.588-0.478-1.066-1.066-1.066H51.427
				c-0.588,0-1.066,0.478-1.066,1.066v123.77C50.361,444.374,50.839,444.852,51.427,444.852z M69.607,388.558
				c3.282-3.282,8.586-3.282,11.868,0l10.853,10.853v-55.279c0-4.633,3.752-8.393,8.393-8.393c4.642,0,8.393,3.76,8.393,8.393
				v55.279l10.853-10.853c3.282-3.282,8.586-3.282,11.868,0c3.282,3.282,3.282,8.586,0,11.868l-25.172,25.172
				c-0.781,0.781-1.704,1.393-2.736,1.821c-1.024,0.42-2.115,0.646-3.206,0.646c-1.091,0-2.182-0.227-3.206-0.646
				c-1.032-0.428-1.964-1.041-2.736-1.821l-25.172-25.172C66.325,397.144,66.325,391.839,69.607,388.558z"/>
			<path d="M452.18,318.951h-98.589c-0.588,0-1.066,0.478-1.066,1.066v123.77c0,0.588,0.478,1.066,1.066,1.066h98.589
				c0.588,0,1.066-0.478,1.066-1.066v-123.77C453.246,319.429,452.767,318.951,452.18,318.951z M434,400.426l-25.172,25.172
				c-0.781,0.781-1.704,1.393-2.736,1.821c-1.024,0.42-2.115,0.646-3.206,0.646c-1.091,0-2.182-0.227-3.206-0.646
				c-1.032-0.428-1.964-1.041-2.736-1.821l-25.172-25.172c-3.282-3.282-3.282-8.586,0-11.868c3.282-3.282,8.586-3.282,11.868,0
				l10.853,10.853v-55.279c0-4.633,3.752-8.393,8.393-8.393c4.642,0,8.393,3.76,8.393,8.393v55.279l10.853-10.853
				c3.282-3.282,8.586-3.282,11.868,0C437.282,391.839,437.282,397.144,434,400.426z"/>
			<path d="M479.501,0H24.106C10.811,0,0,10.819,0,24.106v76.615h503.607V24.106C503.607,10.819,492.796,0,479.501,0z
				 M58.754,92.328c-18.516,0-33.574-15.058-33.574-33.574S40.238,25.18,58.754,25.18s33.574,15.058,33.574,33.574
				S77.27,92.328,58.754,92.328z M134.295,92.328c-18.516,0-33.574-15.058-33.574-33.574s15.058-33.574,33.574-33.574
				s33.574,15.058,33.574,33.574S152.811,92.328,134.295,92.328z M209.836,92.328c-18.516,0-33.574-15.058-33.574-33.574
				S191.32,25.18,209.836,25.18s33.574,15.058,33.574,33.574S228.352,92.328,209.836,92.328z"/>
			<path d="M209.836,41.967c-9.258,0-16.787,7.529-16.787,16.787c0,9.258,7.529,16.787,16.787,16.787
				c9.258,0,16.787-7.529,16.787-16.787C226.623,49.496,219.094,41.967,209.836,41.967z"/>
			<path d="M134.295,41.967c-9.258,0-16.787,7.529-16.787,16.787c0,9.258,7.529,16.787,16.787,16.787
				c9.258,0,16.787-7.529,16.787-16.787C151.082,49.496,143.553,41.967,134.295,41.967z"/>
			<path d="M58.754,41.967c-9.258,0-16.787,7.529-16.787,16.787c0,9.258,7.529,16.787,16.787,16.787
				c9.258,0,16.787-7.529,16.787-16.787C75.541,49.496,68.012,41.967,58.754,41.967z"/>
			<path d="M301.098,318.951h-98.589c-0.588,0-1.066,0.478-1.066,1.066v123.77c0,0.588,0.478,1.066,1.066,1.066h98.589
				c0.588,0,1.066-0.478,1.066-1.066v-123.77C302.164,319.429,301.685,318.951,301.098,318.951z M282.918,400.426l-25.172,25.172
				c-0.781,0.781-1.704,1.393-2.736,1.821c-1.024,0.42-2.115,0.646-3.206,0.646s-2.182-0.227-3.206-0.646
				c-1.032-0.428-1.964-1.041-2.736-1.821l-25.172-25.172c-3.282-3.282-3.282-8.586,0-11.868c3.282-3.282,8.586-3.282,11.868,0
				l10.853,10.853v-55.279c0-4.633,3.752-8.393,8.393-8.393c4.642,0,8.393,3.76,8.393,8.393v55.279l10.853-10.853
				c3.282-3.282,8.586-3.282,11.868,0C286.2,391.839,286.2,397.144,282.918,400.426z"/>
			<path d="M453.246,259.131v-98.589c0-0.588-0.478-1.066-1.066-1.066H344.131v100.721H452.18
				C452.767,260.197,453.246,259.718,453.246,259.131z"/>
			<path d="M51.427,260.197h275.918V159.475H51.427c-0.588,0-1.066,0.478-1.066,1.066v98.589
				C50.361,259.718,50.839,260.197,51.427,260.197z M260.197,201.443h41.967c4.642,0,8.393,3.76,8.393,8.393
				c0,4.633-3.752,8.393-8.393,8.393h-41.967c-4.642,0-8.393-3.76-8.393-8.393C251.803,205.203,255.555,201.443,260.197,201.443z
				 M161.406,201.443h54.885c4.633,0,8.393,3.76,8.393,8.393c0,4.633-3.76,8.393-8.393,8.393h-54.885
				c-4.633,0-8.393-3.76-8.393-8.393C153.012,205.203,156.773,201.443,161.406,201.443z M75.541,201.443h41.967
				c4.642,0,8.393,3.76,8.393,8.393c0,4.633-3.752,8.393-8.393,8.393H75.541c-4.642,0-8.393-3.76-8.393-8.393
				C67.148,205.203,70.899,201.443,75.541,201.443z"/>
			<path d="M0,476.848c0,14.756,12.003,26.758,26.75,26.758h450.098c14.756,0,26.758-12.003,26.758-26.758v-359.34H0V476.848z
				 M318.951,443.786c0,9.846-8.007,17.853-17.853,17.853h-98.589c-9.846,0-17.853-8.007-17.853-17.853v-123.77
				c0-9.845,8.007-17.853,17.853-17.853h98.589c9.846,0,17.853,8.007,17.853,17.853V443.786z M470.033,443.786
				c0,9.846-8.007,17.853-17.853,17.853h-98.589c-9.845,0-17.853-8.007-17.853-17.853v-123.77c0-9.845,8.007-17.853,17.853-17.853
				h98.589c9.846,0,17.853,8.007,17.853,17.853V443.786z M33.574,160.541c0-9.845,8.007-17.853,17.853-17.853h275.918H452.18
				c9.846,0,17.853,8.007,17.853,17.853v98.589c0,9.846-8.007,17.853-17.853,17.853H327.344H51.427
				c-9.846,0-17.853-8.007-17.853-17.853V160.541z M33.574,320.017c0-9.845,8.007-17.853,17.853-17.853h98.589
				c9.846,0,17.853,8.007,17.853,17.853v123.77c0,9.846-8.007,17.853-17.853,17.853H51.427c-9.846,0-17.853-8.007-17.853-17.853
				V320.017z"/>
		</g>
	</g>
</g>
<g>
</g>
<g>
</g>
<g>
</g>
<g>
</g>
<g>
</g>
<g>
</g>
<g>
</g>
<g>
</g>
<g>
</g>
<g>
</g>
<g>
</g>
<g>
</g>
<g>
</g>
<g>
</g>
<g>
</g>
</svg>
