<?xml version="1.0" encoding="iso-8859-1"?>
<!-- Generator: Adobe Illustrator 19.0.0, SVG Export Plug-In . SVG Version: 6.00 Build 0)  -->
<svg version="1.1" id="Layer_1" xmlns="http://www.w3.org/2000/svg" xmlns:xlink="http://www.w3.org/1999/xlink" x="0px" y="0px"
	 viewBox="0 0 503.608 503.608" style="enable-background:new 0 0 503.608 503.608;" xml:space="preserve">
<g>
	<g>
		<g>
			<path d="M209.836,41.968c-9.258,0-16.787,7.529-16.787,16.787c0,9.258,7.529,16.787,16.787,16.787
				c9.258,0,16.787-7.529,16.787-16.787C226.623,49.497,219.094,41.968,209.836,41.968z"/>
			<path d="M503.607,24.107c0-13.287-10.819-24.106-24.106-24.106H24.106C10.819,0.001,0,10.82,0,24.107v76.615h503.607V24.107z
				 M58.754,92.329c-18.516,0-33.574-15.058-33.574-33.574s15.058-33.574,33.574-33.574s33.574,15.058,33.574,33.574
				S77.27,92.329,58.754,92.329z M134.295,92.329c-18.516,0-33.574-15.058-33.574-33.574s15.058-33.574,33.574-33.574
				s33.574,15.058,33.574,33.574S152.811,92.329,134.295,92.329z M209.836,92.329c-18.516,0-33.574-15.058-33.574-33.574
				s15.058-33.574,33.574-33.574s33.574,15.058,33.574,33.574S228.352,92.329,209.836,92.329z"/>
			<path d="M58.754,41.968c-9.258,0-16.787,7.529-16.787,16.787c0,9.258,7.529,16.787,16.787,16.787
				c9.258,0,16.787-7.529,16.787-16.787C75.541,49.497,68.012,41.968,58.754,41.968z"/>
			<path d="M134.295,41.968c-9.258,0-16.787,7.529-16.787,16.787c0,9.258,7.529,16.787,16.787,16.787
				c9.258,0,16.787-7.529,16.787-16.787C151.082,49.497,143.553,41.968,134.295,41.968z"/>
			<path d="M0.002,480.525c0,12.733,10.349,23.082,23.074,23.082h220.336V352.525H0.002V480.525z M78.002,438.919l41.967-41.967
				c3.282-3.282,8.586-3.282,11.868,0l41.967,41.967c3.282,3.282,3.282,8.586,0,11.868c-1.637,1.637-3.785,2.459-5.934,2.459
				c-2.149,0-4.297-0.823-5.934-2.459l-36.033-36.033L89.87,450.787c-1.637,1.637-3.785,2.459-5.934,2.459
				c-2.149,0-4.297-0.823-5.934-2.459C74.72,447.506,74.72,442.201,78.002,438.919z"/>
			<path d="M260.198,503.607h220.328c12.724,0,23.082-10.349,23.082-23.082v-128h-243.41V503.607z M329.805,396.952
				c3.282-3.282,8.586-3.282,11.868,0l36.033,36.033l36.033-36.033c3.282-3.282,8.586-3.282,11.868,0
				c3.282,3.282,3.282,8.586,0,11.868l-41.967,41.967c-1.637,1.637-3.785,2.459-5.934,2.459c-2.149,0-4.297-0.823-5.934-2.459
				l-41.967-41.967C326.523,405.538,326.523,400.234,329.805,396.952z"/>
			<path d="M260.198,143.114v91.9h-91.9c4.222,42.362,40.053,75.541,83.506,75.541c46.281,0,83.934-37.645,83.934-83.934
				C335.739,183.176,302.552,147.336,260.198,143.114z"/>
			<path d="M0.002,117.509v218.229h503.607V117.509H0.002z M377.707,268.591h8.393c4.633,0,8.393,3.76,8.393,8.393
				c0,4.633-3.76,8.393-8.393,8.393h-8.393c-4.633,0-8.393-3.76-8.393-8.393C369.313,272.351,373.073,268.591,377.707,268.591z
				 M41.969,134.296h8.393c4.633,0,8.393,3.76,8.393,8.393s-3.76,8.393-8.393,8.393h-8.393c-4.633,0-8.393-3.76-8.393-8.393
				S37.336,134.296,41.969,134.296z M75.543,184.657H41.969c-4.633,0-8.393-3.76-8.393-8.393s3.76-8.393,8.393-8.393h33.574
				c4.633,0,8.393,3.76,8.393,8.393S80.176,184.657,75.543,184.657z M125.903,184.657h-16.787c-4.633,0-8.393-3.76-8.393-8.393
				s3.76-8.393,8.393-8.393h16.787c4.633,0,8.393,3.76,8.393,8.393S130.537,184.657,125.903,184.657z M125.903,151.083H83.936
				c-4.633,0-8.393-3.76-8.393-8.393s3.76-8.393,8.393-8.393h41.967c4.633,0,8.393,3.76,8.393,8.393
				S130.537,151.083,125.903,151.083z M251.805,327.345c-52.702,0-96.004-40.717-100.293-92.328h-0.428v-8.393
				c0-55.539,45.182-100.721,100.721-100.721h8.393v0.428c51.611,4.289,92.328,47.591,92.328,100.293
				C352.526,282.163,307.344,327.345,251.805,327.345z M411.28,318.952h-33.574c-4.633,0-8.393-3.76-8.393-8.393
				s3.76-8.393,8.393-8.393h33.574c4.633,0,8.393,3.76,8.393,8.393S415.914,318.952,411.28,318.952z M461.641,318.952h-16.787
				c-4.633,0-8.393-3.76-8.393-8.393s3.76-8.393,8.393-8.393h16.787c4.633,0,8.393,3.76,8.393,8.393
				S466.274,318.952,461.641,318.952z M461.641,285.378h-41.967c-4.633,0-8.393-3.76-8.393-8.393c0-4.633,3.76-8.393,8.393-8.393
				h41.967c4.633,0,8.393,3.76,8.393,8.393C470.034,281.618,466.274,285.378,461.641,285.378z"/>
			<path d="M243.412,143.117h-0.076c-0.411,0.042-0.814,0.134-1.234,0.176c-2.233,0.26-4.449,0.588-6.631,1.016
				c-0.915,0.185-1.805,0.428-2.711,0.646c-1.654,0.378-3.299,0.781-4.91,1.259c-0.99,0.302-1.964,0.646-2.938,0.974
				c-1.486,0.504-2.963,1.032-4.415,1.62c-0.982,0.394-1.947,0.814-2.913,1.251c-1.402,0.63-2.787,1.293-4.138,1.998
				c-0.932,0.478-1.863,0.965-2.77,1.477c-1.36,0.772-2.694,1.595-4.004,2.434c-0.839,0.537-1.687,1.058-2.501,1.628
				c-1.393,0.965-2.736,1.998-4.062,3.038c-0.672,0.529-1.36,1.016-2.014,1.561c-1.905,1.595-3.76,3.265-5.523,5.019
				c-0.059,0.059-0.117,0.118-0.176,0.176c-1.754,1.763-3.425,3.618-5.019,5.523c-0.546,0.655-1.032,1.343-1.561,2.014
				c-1.041,1.326-2.073,2.669-3.038,4.062c-0.571,0.814-1.091,1.662-1.628,2.501c-0.839,1.309-1.662,2.644-2.434,4.004
				c-0.512,0.906-0.999,1.838-1.477,2.77c-0.705,1.36-1.368,2.736-1.998,4.138c-0.436,0.965-0.856,1.93-1.251,2.921
				c-0.588,1.444-1.116,2.921-1.62,4.407c-0.327,0.974-0.671,1.947-0.974,2.938c-0.478,1.612-0.881,3.257-1.259,4.91
				c-0.218,0.906-0.462,1.796-0.646,2.711c-0.428,2.182-0.755,4.398-1.016,6.631c-0.042,0.42-0.134,0.823-0.176,1.234v0.076h75.113
				V143.117z"/>
		</g>
	</g>
</g>
<g>
</g>
<g>
</g>
<g>
</g>
<g>
</g>
<g>
</g>
<g>
</g>
<g>
</g>
<g>
</g>
<g>
</g>
<g>
</g>
<g>
</g>
<g>
</g>
<g>
</g>
<g>
</g>
<g>
</g>
</svg>
