<?xml version="1.0" encoding="iso-8859-1"?>
<!-- Generator: Adobe Illustrator 19.0.0, SVG Export Plug-In . SVG Version: 6.00 Build 0)  -->
<svg version="1.1" id="Layer_1" xmlns="http://www.w3.org/2000/svg" xmlns:xlink="http://www.w3.org/1999/xlink" x="0px" y="0px"
	 viewBox="0 0 503.608 503.608" style="enable-background:new 0 0 503.608 503.608;" xml:space="preserve">
<g>
	<g>
		<g>
			<path d="M134.295,41.969c-9.258,0-16.787,7.529-16.787,16.787c0,9.258,7.529,16.787,16.787,16.787
				c9.258,0,16.787-7.529,16.787-16.787C151.082,49.498,143.553,41.969,134.295,41.969z"/>
			<path d="M58.754,41.969c-9.258,0-16.787,7.529-16.787,16.787c0,9.258,7.529,16.787,16.787,16.787
				c9.258,0,16.787-7.529,16.787-16.787C75.541,49.498,68.012,41.969,58.754,41.969z"/>
			<path d="M209.836,41.969c-9.258,0-16.787,7.529-16.787,16.787c0,9.258,7.529,16.787,16.787,16.787
				c9.258,0,16.787-7.529,16.787-16.787C226.623,49.498,219.094,41.969,209.836,41.969z"/>
			<path d="M503.607,24.108c0-13.287-10.819-24.106-24.106-24.106H24.106C10.819,0.002,0,10.821,0,24.108v76.615h503.607V24.108z
				 M58.754,92.33c-18.516,0-33.574-15.058-33.574-33.574s15.058-33.574,33.574-33.574S92.328,40.24,92.328,58.756
				S77.27,92.33,58.754,92.33z M134.295,92.33c-18.516,0-33.574-15.058-33.574-33.574s15.058-33.574,33.574-33.574
				s33.574,15.058,33.574,33.574S152.811,92.33,134.295,92.33z M209.836,92.33c-18.516,0-33.574-15.058-33.574-33.574
				s15.058-33.574,33.574-33.574S243.41,40.24,243.41,58.756S228.352,92.33,209.836,92.33z"/>
			<path d="M369.311,260.199c-13.883,0-25.18,11.298-25.18,25.18s11.298,25.18,25.18,25.18s25.18-11.298,25.18-25.18
				S383.194,260.199,369.311,260.199z"/>
			<path d="M75.541,280.133v62.162c0,1.016,0.823,1.838,1.838,1.838H90.49c1.016,0,1.838-0.823,1.838-1.838v-4.717
				c0-10.274,8.352-18.625,18.625-18.625h14.949v-41.967H78.689C76.951,276.986,75.541,278.396,75.541,280.133z"/>
			<path d="M380.139,227.59c-27.086-4.784-53.693,9.292-64.613,34.312c-4.004,9.166-12.817,15.083-22.452,15.083H142.689v41.967
				h14.949c10.274,0,18.625,8.352,18.625,18.625v13.111c0,1.016,0.823,1.838,1.838,1.838h13.111c1.016,0,1.838-0.823,1.838-1.838
				v-38.291c0-10.274,8.352-18.625,18.625-18.625h81.391c9.636,0,18.457,5.926,22.461,15.083
				c9.342,21.437,30.46,35.278,53.785,35.278c17.618,0,34.153-7.806,45.367-21.42c11.214-13.606,15.671-31.559,12.221-49.253
				C422.358,250.177,403.573,231.745,380.139,227.59z M369.311,327.346c-23.141,0-41.967-18.826-41.967-41.967
				s18.827-41.967,41.967-41.967c23.141,0,41.967,18.826,41.967,41.967S392.452,327.346,369.311,327.346z"/>
			<path d="M0.002,117.508v359.348c0,14.756,11.994,26.75,26.75,26.75H476.85c14.756,0,26.758-11.994,26.758-26.75V117.508H0.002z
				 M427.639,333.387c-14.42,17.492-35.68,27.53-58.326,27.53c-30.007,0-57.168-17.794-69.179-45.35
				c-1.351-3.089-4.062-5.011-7.067-5.011h-81.391c-1.024,0-1.838,0.823-1.838,1.838v38.299c0,10.265-8.352,18.617-18.625,18.617
				h-13.111c-10.274,0-18.625-8.351-18.625-18.617v-13.119c0-1.016-0.823-1.838-1.838-1.838h-46.684
				c-1.024,0-1.838,0.823-1.838,1.838v4.726c0,10.265-8.352,18.617-18.625,18.617H77.381c-10.274,0-18.625-8.351-18.625-18.617
				v-62.17c0-10.987,8.939-19.934,19.934-19.934h214.385c3.005,0,5.708-1.914,7.067-5.002
				c14.009-32.155,48.103-50.302,82.927-44.133c30.216,5.355,54.457,29.142,60.307,59.191
				C447.783,292.88,442.051,315.895,427.639,333.387z"/>
		</g>
	</g>
</g>
<g>
</g>
<g>
</g>
<g>
</g>
<g>
</g>
<g>
</g>
<g>
</g>
<g>
</g>
<g>
</g>
<g>
</g>
<g>
</g>
<g>
</g>
<g>
</g>
<g>
</g>
<g>
</g>
<g>
</g>
</svg>
