<?xml version="1.0" encoding="iso-8859-1"?>
<!-- Generator: Adobe Illustrator 19.0.0, SVG Export Plug-In . SVG Version: 6.00 Build 0)  -->
<svg version="1.1" id="Layer_1" xmlns="http://www.w3.org/2000/svg" xmlns:xlink="http://www.w3.org/1999/xlink" x="0px" y="0px"
	 viewBox="0 0 503.607 503.607" style="enable-background:new 0 0 503.607 503.607;" xml:space="preserve">
<g>
	<g>
		<g>
			<path d="M470.033,405.672c-3.609-34.472-32.34-61.541-66.761-61.541c-21.538,0-41.833,10.794-54.39,28.555
				c-2.451-0.42-4.927-0.638-7.411-0.638c-19.481,0-36.772,13.237-42.53,32.004c-16.006,9.485-26.154,27.203-26.154,46.189
				c0,29.419,23.376,53.365,52.107,53.365h90.431c0.529,0,1.041-0.034,1.444-0.067c0.52,0.034,1.041,0.067,1.578,0.067h36.167
				c27.069,0,49.093-22.553,49.093-50.268C503.607,431.515,489.825,412.437,470.033,405.672z"/>
			<path d="M209.836,41.967c-9.258,0-16.787,7.529-16.787,16.787c0,9.258,7.529,16.787,16.787,16.787
				c9.258,0,16.787-7.529,16.787-16.787C226.623,49.496,219.094,41.967,209.836,41.967z"/>
			<path d="M58.754,41.967c-9.258,0-16.787,7.529-16.787,16.787c0,9.258,7.529,16.787,16.787,16.787
				c9.258,0,16.787-7.529,16.787-16.787C75.541,49.496,68.012,41.967,58.754,41.967z"/>
			<path d="M134.295,41.967c-9.258,0-16.787,7.529-16.787,16.787c0,9.258,7.529,16.787,16.787,16.787
				c9.258,0,16.787-7.529,16.787-16.787C151.082,49.496,143.553,41.967,134.295,41.967z"/>
			<path d="M479.501,0H24.106C10.811,0,0,10.811,0,24.106v76.615h503.607V24.106C503.607,10.811,492.796,0,479.501,0z
				 M58.754,92.328c-18.516,0-33.574-15.058-33.574-33.574S40.238,25.18,58.754,25.18s33.574,15.058,33.574,33.574
				S77.27,92.328,58.754,92.328z M134.295,92.328c-18.516,0-33.574-15.058-33.574-33.574s15.058-33.574,33.574-33.574
				s33.574,15.058,33.574,33.574S152.811,92.328,134.295,92.328z M209.836,92.328c-18.516,0-33.574-15.058-33.574-33.574
				S191.32,25.18,209.836,25.18s33.574,15.058,33.574,33.574S228.352,92.328,209.836,92.328z"/>
			<path d="M0,474.901c0,15.83,12.876,28.706,28.706,28.706h251.585C265.451,490.731,256,471.594,256,450.241
				c0-1.511,0.151-2.988,0.269-4.482c-0.705-0.151-1.234-0.512-1.796-0.831c-0.537,0.034-1.083,0.067-1.62,0.101
				c-0.722,0.05-1.343-0.05-1.947-0.176h-41.069c-4.642,0-8.393-3.752-8.393-8.393c0-4.642,3.752-8.393,8.393-8.393h41.967
				c0.529,0,0.982,0.21,1.469,0.327c0.185-0.017,0.311-0.109,0.495-0.109c1.972-0.059,3.937-0.185,5.901-0.134
				c0.084,0,0.143,0.042,0.218,0.042c4.6-13.958,13.203-26.414,25.214-35.11c9.569-22.52,31.853-37.771,56.245-37.821
				c15.822-17.626,38.324-27.917,61.927-27.917c39.676,0,73.283,28.017,81.844,66.627c7.109,3.794,13.278,8.914,18.491,14.856
				v-291.32H0V474.901z M176.262,444.852h-16.787c-4.642,0-8.393-3.752-8.393-8.393c0-4.642,3.752-8.393,8.393-8.393h16.787
				c4.642,0,8.393,3.752,8.393,8.393C184.656,441.101,180.904,444.852,176.262,444.852z M209.836,411.279H92.328
				c-4.642,0-8.393-3.752-8.393-8.393c0-4.642,3.752-8.393,8.393-8.393h117.508c4.642,0,8.393,3.752,8.393,8.393
				C218.229,407.527,214.478,411.279,209.836,411.279z M159.475,226.623h16.787c4.642,0,8.393,3.752,8.393,8.393
				c0,4.642-3.752,8.393-8.393,8.393h-16.787c-4.642,0-8.393-3.752-8.393-8.393C151.082,230.375,154.834,226.623,159.475,226.623z
				 M92.328,209.836c-4.642,0-8.393-3.752-8.393-8.393c0-4.642,3.752-8.393,8.393-8.393h117.508c4.642,0,8.393,3.752,8.393,8.393
				c0,4.642-3.752,8.393-8.393,8.393H92.328z M209.836,293.77c4.642,0,8.393,3.752,8.393,8.393c0,4.642-3.752,8.393-8.393,8.393
				H92.328c-4.642,0-8.393-3.752-8.393-8.393c0-4.642,3.752-8.393,8.393-8.393H209.836z M159.475,327.344h16.787
				c4.642,0,8.393,3.752,8.393,8.393c0,4.642-3.752,8.393-8.393,8.393h-16.787c-4.642,0-8.393-3.752-8.393-8.393
				C151.082,331.096,154.834,327.344,159.475,327.344z M235.016,377.705h-41.967c-4.642,0-8.393-3.752-8.393-8.393
				c0-4.642,3.752-8.393,8.393-8.393h41.967c4.642,0,8.393,3.752,8.393,8.393C243.41,373.953,239.658,377.705,235.016,377.705z
				 M268.59,344.131h-58.754c-4.642,0-8.393-3.752-8.393-8.393c0-4.642,3.752-8.393,8.393-8.393h58.754
				c4.642,0,8.393,3.752,8.393,8.393C276.984,340.379,273.232,344.131,268.59,344.131z M276.984,310.557H243.41
				c-4.642,0-8.393-3.752-8.393-8.393c0-4.642,3.752-8.393,8.393-8.393h33.574c4.642,0,8.393,3.752,8.393,8.393
				C285.377,306.806,281.625,310.557,276.984,310.557z M276.984,276.984h-83.934c-4.642,0-8.393-3.752-8.393-8.393
				c0-4.642,3.752-8.393,8.393-8.393h83.934c4.642,0,8.393,3.752,8.393,8.393C285.377,273.232,281.625,276.984,276.984,276.984z
				 M327.344,243.41H209.836c-4.642,0-8.393-3.752-8.393-8.393c0-4.642,3.752-8.393,8.393-8.393h117.508
				c4.642,0,8.393,3.752,8.393,8.393C335.738,239.658,331.986,243.41,327.344,243.41z M377.705,201.443
				c0,4.642-3.752,8.393-8.393,8.393H243.41c-4.642,0-8.393-3.752-8.393-8.393c0-4.642,3.752-8.393,8.393-8.393h125.902
				C373.953,193.049,377.705,196.801,377.705,201.443z M310.557,159.475h16.787c4.642,0,8.393,3.752,8.393,8.393
				c0,4.642-3.752,8.393-8.393,8.393h-16.787c-4.642,0-8.393-3.752-8.393-8.393C302.164,163.227,305.916,159.475,310.557,159.475z
				 M193.049,159.475h83.934c4.642,0,8.393,3.752,8.393,8.393c0,4.642-3.752,8.393-8.393,8.393h-83.934
				c-4.642,0-8.393-3.752-8.393-8.393C184.656,163.227,188.408,159.475,193.049,159.475z M50.361,159.475h109.115
				c4.642,0,8.393,3.752,8.393,8.393c0,4.642-3.752,8.393-8.393,8.393H50.361c-4.642,0-8.393-3.752-8.393-8.393
				C41.967,163.227,45.719,159.475,50.361,159.475z M50.361,193.049h8.393c4.642,0,8.393,3.752,8.393,8.393
				c0,4.642-3.752,8.393-8.393,8.393h-8.393c-4.642,0-8.393-3.752-8.393-8.393C41.967,196.801,45.719,193.049,50.361,193.049z
				 M50.361,226.623h75.541c4.642,0,8.393,3.752,8.393,8.393c0,4.642-3.752,8.393-8.393,8.393H50.361
				c-4.642,0-8.393-3.752-8.393-8.393C41.967,230.375,45.719,226.623,50.361,226.623z M50.361,260.197h109.115
				c4.642,0,8.393,3.752,8.393,8.393c0,4.642-3.752,8.393-8.393,8.393H50.361c-4.642,0-8.393-3.752-8.393-8.393
				C41.967,263.949,45.719,260.197,50.361,260.197z M50.361,293.77h8.393c4.642,0,8.393,3.752,8.393,8.393
				c0,4.642-3.752,8.393-8.393,8.393h-8.393c-4.642,0-8.393-3.752-8.393-8.393C41.967,297.522,45.719,293.77,50.361,293.77z
				 M50.361,327.344h75.541c4.642,0,8.393,3.752,8.393,8.393c0,4.642-3.752,8.393-8.393,8.393H50.361
				c-4.642,0-8.393-3.752-8.393-8.393C41.967,331.096,45.719,327.344,50.361,327.344z M50.361,360.918h109.115
				c4.642,0,8.393,3.752,8.393,8.393c0,4.642-3.752,8.393-8.393,8.393H50.361c-4.642,0-8.393-3.752-8.393-8.393
				C41.967,364.67,45.719,360.918,50.361,360.918z M50.361,394.492h8.393c4.642,0,8.393,3.752,8.393,8.393
				c0,4.642-3.752,8.393-8.393,8.393h-8.393c-4.642,0-8.393-3.752-8.393-8.393C41.967,398.244,45.719,394.492,50.361,394.492z
				 M50.361,428.066h75.541c4.642,0,8.393,3.752,8.393,8.393c0,4.642-3.752,8.393-8.393,8.393H50.361
				c-4.642,0-8.393-3.752-8.393-8.393C41.967,431.817,45.719,428.066,50.361,428.066z"/>
		</g>
	</g>
</g>
<g>
</g>
<g>
</g>
<g>
</g>
<g>
</g>
<g>
</g>
<g>
</g>
<g>
</g>
<g>
</g>
<g>
</g>
<g>
</g>
<g>
</g>
<g>
</g>
<g>
</g>
<g>
</g>
<g>
</g>
</svg>
