<?xml version="1.0" encoding="iso-8859-1"?>
<!-- Generator: Adobe Illustrator 19.0.0, SVG Export Plug-In . SVG Version: 6.00 Build 0)  -->
<svg version="1.1" id="Layer_1" xmlns="http://www.w3.org/2000/svg" xmlns:xlink="http://www.w3.org/1999/xlink" x="0px" y="0px"
	 viewBox="0 0 503.609 503.609" style="enable-background:new 0 0 503.609 503.609;" xml:space="preserve">
<g>
	<g>
		<g>
			<path d="M243.412,260.198c-50.906,0-92.328,41.422-92.328,92.328c0,42.169,28.454,77.748,67.148,88.744v53.945
				c0,4.633,3.752,8.393,8.393,8.393h33.574c4.642,0,8.393-3.76,8.393-8.393V441.27c38.694-10.995,67.148-46.575,67.148-88.744
				C335.74,301.62,294.319,260.198,243.412,260.198z M243.412,318.952c-18.516,0-33.574,15.058-33.574,33.574
				c0,4.633-3.752,8.393-8.393,8.393s-8.393-3.76-8.393-8.393c0-27.774,22.587-50.361,50.361-50.361c4.642,0,8.393,3.76,8.393,8.393
				S248.054,318.952,243.412,318.952z"/>
			<path d="M209.839,41.968c-9.258,0-16.787,7.529-16.787,16.787c0,9.258,7.529,16.787,16.787,16.787
				c9.258,0,16.787-7.529,16.787-16.787C226.625,49.497,219.097,41.968,209.839,41.968z"/>
			<path d="M0.003,251.77l60.987-57.932c13.22-11.759,32.541-12.263,46.139-1.377l59.224,47.381l60.021-80.031
				c4.054-5.414,10.265-8.519,17.039-8.519s12.985,3.106,17.039,8.519l59.09,78.789l55.33-61.465
				c5.003-5.565,12.162-8.863,19.641-9.065c7.529-0.143,14.697,2.652,20.069,8.016l89.029,89.029V117.509H0.003V251.77z"/>
			<path d="M58.757,41.968c-9.258,0-16.787,7.529-16.787,16.787c0,9.258,7.529,16.787,16.787,16.787
				c9.258,0,16.787-7.529,16.787-16.787C75.544,49.497,68.015,41.968,58.757,41.968z"/>
			<path d="M134.298,41.968c-9.258,0-16.787,7.529-16.787,16.787c0,9.258,7.529,16.787,16.787,16.787
				c9.258,0,16.787-7.529,16.787-16.787C151.084,49.497,143.556,41.968,134.298,41.968z"/>
			<path d="M479.503,0.001H24.108c-13.295,0-24.106,10.819-24.106,24.106v76.615h503.607V24.107
				C503.609,10.82,492.798,0.001,479.503,0.001z M58.757,92.329c-18.516,0-33.574-15.058-33.574-33.574s15.058-33.574,33.574-33.574
				S92.33,40.239,92.33,58.755S77.273,92.329,58.757,92.329z M134.298,92.329c-18.516,0-33.574-15.058-33.574-33.574
				s15.058-33.574,33.574-33.574s33.574,15.058,33.574,33.574S152.814,92.329,134.298,92.329z M209.839,92.329
				c-18.516,0-33.574-15.058-33.574-33.574s15.058-33.574,33.574-33.574s33.574,15.058,33.574,33.574S228.354,92.329,209.839,92.329
				z"/>
			<path d="M394.945,184.858c-2.938,0.076-5.632,1.318-7.596,3.5l-62.162,69.061c-1.679,1.872-3.97,2.812-6.614,2.77
				c-2.501-0.109-4.826-1.343-6.337-3.349l-65.209-86.956c-1.183-1.57-2.77-1.805-3.618-1.805c-0.839,0-2.434,0.235-3.609,1.805
				l-65.217,86.956c-1.36,1.813-3.399,3.005-5.657,3.29c-2.241,0.302-4.524-0.352-6.303-1.771l-65.989-52.795
				c-7.193-5.766-17.408-5.489-24.299,0.63L0,274.919v76.036c0,14.747,12.003,26.75,26.758,26.75H137.35
				c-1.922-8.1-3.055-16.502-3.055-25.18c0-60.164,48.951-109.115,109.115-109.115c60.164,0,109.115,48.951,109.115,109.115
				c0,8.679-1.125,17.081-3.047,25.18h127.379c14.756,0,26.75-12.003,26.75-26.75v-62.103L402.709,187.955
				C400.627,185.882,397.841,184.656,394.945,184.858z"/>
		</g>
	</g>
</g>
<g>
</g>
<g>
</g>
<g>
</g>
<g>
</g>
<g>
</g>
<g>
</g>
<g>
</g>
<g>
</g>
<g>
</g>
<g>
</g>
<g>
</g>
<g>
</g>
<g>
</g>
<g>
</g>
<g>
</g>
</svg>
