<?xml version="1.0" encoding="iso-8859-1"?>
<!-- Generator: Adobe Illustrator 19.0.0, SVG Export Plug-In . SVG Version: 6.00 Build 0)  -->
<svg version="1.1" id="Layer_1" xmlns="http://www.w3.org/2000/svg" xmlns:xlink="http://www.w3.org/1999/xlink" x="0px" y="0px"
	 viewBox="0 0 503.607 503.607" style="enable-background:new 0 0 503.607 503.607;" xml:space="preserve">
<g>
	<g>
		<g>
			<path d="M251.802,302.16c-27.766,0-50.361,22.595-50.361,50.361c0,27.774,22.595,50.361,50.361,50.361
				c27.774,0,50.361-22.587,50.361-50.361C302.162,324.755,279.576,302.16,251.802,302.16z M283.697,340.786l-25.18,33.565
				c-0.109,0.143-0.285,0.193-0.403,0.336c-0.151,0.168-0.21,0.394-0.378,0.554c-0.453,0.462-1.024,0.705-1.544,1.032
				c-0.327,0.21-0.604,0.478-0.957,0.638c-1.1,0.495-2.249,0.789-3.433,0.789h-0.008c-0.982,0-1.947-0.21-2.887-0.562
				c-0.302-0.109-0.562-0.294-0.856-0.445c-0.428-0.218-0.881-0.369-1.284-0.672c-0.168-0.126-0.243-0.311-0.403-0.445
				c-0.151-0.134-0.344-0.185-0.495-0.327l-16.787-16.778c-3.273-3.273-3.273-8.595,0-11.868c3.282-3.282,8.595-3.273,11.868-0.008
				l9.946,9.938l19.372-25.818c2.787-3.71,8.041-4.457,11.759-1.679C285.728,331.822,286.475,337.076,283.697,340.786z"/>
			<path d="M353.591,251.87c-38.308-4.885-74.592-16.921-97.07-32.189c-2.837-1.939-6.597-1.939-9.434,0
				c-22.478,15.268-58.763,27.304-97.07,32.189c-4.188,0.537-7.327,4.104-7.327,8.326v84.027
				c0,52.039,26.129,106.211,66.577,137.997c12.515,9.837,25.281,15.242,39.474,20.807c0.982,0.386,2.023,0.579,3.064,0.579
				s2.082-0.193,3.064-0.579c14.193-5.565,26.96-10.97,39.483-20.807c40.44-31.786,66.568-85.991,66.568-138.089v-83.934
				C360.918,255.975,357.779,252.408,353.591,251.87z M251.803,419.672c-37.023,0-67.148-30.124-67.148-67.148
				s30.124-67.148,67.148-67.148c37.023,0,67.148,30.124,67.148,67.148S288.827,419.672,251.803,419.672z"/>
			<path d="M58.754,41.967c-9.258,0-16.787,7.529-16.787,16.787c0,9.258,7.529,16.787,16.787,16.787
				c9.258,0,16.787-7.529,16.787-16.787C75.541,49.496,68.012,41.967,58.754,41.967z"/>
			<path d="M134.295,41.967c-9.258,0-16.787,7.529-16.787,16.787c0,9.258,7.529,16.787,16.787,16.787
				c9.258,0,16.787-7.529,16.787-16.787C151.082,49.496,143.553,41.967,134.295,41.967z"/>
			<path d="M209.836,41.967c-9.258,0-16.787,7.529-16.787,16.787c0,9.258,7.529,16.787,16.787,16.787
				c9.258,0,16.787-7.529,16.787-16.787C226.623,49.496,219.094,41.967,209.836,41.967z"/>
			<path d="M479.501,0H24.106C10.811,0,0,10.819,0,24.106v76.615h503.607V24.106C503.607,10.819,492.796,0,479.501,0z
				 M58.754,92.328c-18.516,0-33.574-15.058-33.574-33.574S40.238,25.18,58.754,25.18s33.574,15.058,33.574,33.574
				S77.27,92.328,58.754,92.328z M134.295,92.328c-18.516,0-33.574-15.058-33.574-33.574s15.058-33.574,33.574-33.574
				s33.574,15.058,33.574,33.574S152.811,92.328,134.295,92.328z M209.836,92.328c-18.516,0-33.574-15.058-33.574-33.574
				S191.32,25.18,209.836,25.18s33.574,15.058,33.574,33.574S228.352,92.328,209.836,92.328z"/>
			<path d="M0,350.951c0,14.756,12.003,26.758,26.758,26.758h102.366c-2.098-11.121-3.223-22.352-3.223-33.49v-84.027
				c0-12.632,9.451-23.367,21.982-24.979c35.815-4.566,69.372-15.561,89.768-29.419c4.172-2.837,9.073-4.348,14.151-4.348
				c5.078,0,9.98,1.511,14.168,4.365c20.379,13.841,53.936,24.836,89.743,29.402c12.54,1.612,21.991,12.347,21.991,24.979v83.943
				c0,11.163-1.133,22.419-3.231,33.574h102.383c14.747,0,26.75-12.003,26.75-26.758V117.512H0V350.951z"/>
		</g>
	</g>
</g>
<g>
</g>
<g>
</g>
<g>
</g>
<g>
</g>
<g>
</g>
<g>
</g>
<g>
</g>
<g>
</g>
<g>
</g>
<g>
</g>
<g>
</g>
<g>
</g>
<g>
</g>
<g>
</g>
<g>
</g>
</svg>
