<?xml version="1.0" encoding="iso-8859-1"?>
<!-- Generator: Adobe Illustrator 19.0.0, SVG Export Plug-In . SVG Version: 6.00 Build 0)  -->
<svg version="1.1" id="Layer_1" xmlns="http://www.w3.org/2000/svg" xmlns:xlink="http://www.w3.org/1999/xlink" x="0px" y="0px"
	 viewBox="0 0 512 512" style="enable-background:new 0 0 512 512;" xml:space="preserve">
<g>
	<g>
		<path d="M489.242,307.2h-45.508v-42.667c0-4.719-3.814-8.533-8.533-8.533H264.533v-34.133h88.329
			c37.214,0,65.271-28.826,65.271-67.046c0-31.386-19.021-58.394-46.106-66.79C368.026,38.921,327.151,0,278.016,0
			c-29.517,0-58.104,14.114-76.331,37.274c-7.501-2.705-15.684-3.14-22.485-3.14c-28.672,0-50.304,21.436-50.304,49.852v0.256
			c-21.734,12.646-35.029,36.386-35.029,63.258c0,41.011,31.258,74.368,69.675,74.368h83.925V256H76.8
			c-4.719,0-8.533,3.814-8.533,8.533V307.2H22.758C10.206,307.2,0,317.406,0,329.958v159.283C0,501.794,10.206,512,22.758,512
			h108.083c12.553,0,22.758-10.206,22.758-22.758V329.958c0-12.553-10.206-22.758-22.758-22.758H85.333v-34.133h162.133V307.2
			h-45.508c-12.553,0-22.758,10.206-22.758,22.758v159.283c0,12.553,10.206,22.758,22.758,22.758h108.083
			c12.553,0,22.758-10.206,22.758-22.758V329.958c0-12.553-10.206-22.758-22.758-22.758h-45.508v-34.133h162.133V307.2h-45.508
			c-12.553,0-22.758,10.206-22.758,22.758v159.283c0,12.553,10.206,22.758,22.758,22.758h108.083
			C501.794,512,512,501.794,512,489.242V329.958C512,317.406,501.794,307.2,489.242,307.2z M110.933,469.333H42.667
			c-4.719,0-8.533-3.814-8.533-8.533c0-4.719,3.814-8.533,8.533-8.533h68.267c4.719,0,8.533,3.814,8.533,8.533
			C119.467,465.519,115.652,469.333,110.933,469.333z M34.133,409.6c0-4.71,3.823-8.533,8.533-8.533c4.71,0,8.533,3.823,8.533,8.533
			c0,4.71-3.823,8.533-8.533,8.533C37.956,418.133,34.133,414.31,34.133,409.6z M68.267,409.6c0-4.71,3.823-8.533,8.533-8.533
			s8.533,3.823,8.533,8.533c0,4.71-3.823,8.533-8.533,8.533S68.267,414.31,68.267,409.6z M110.933,418.133
			c-4.71,0-8.533-3.823-8.533-8.533c0-4.71,3.823-8.533,8.533-8.533s8.533,3.823,8.533,8.533
			C119.467,414.31,115.644,418.133,110.933,418.133z M110.933,349.867c4.719,0,8.533,3.814,8.533,8.533s-3.814,8.533-8.533,8.533
			H42.667c-4.719,0-8.533-3.814-8.533-8.533s3.814-8.533,8.533-8.533H110.933z M256,375.467c4.71,0,8.533,3.823,8.533,8.533
			s-3.823,8.533-8.533,8.533s-8.533-3.823-8.533-8.533S251.29,375.467,256,375.467z M238.933,349.867
			c4.71,0,8.533,3.823,8.533,8.533s-3.823,8.533-8.533,8.533s-8.533-3.823-8.533-8.533S234.223,349.867,238.933,349.867z
			 M221.867,375.467c4.71,0,8.533,3.823,8.533,8.533s-3.823,8.533-8.533,8.533c-4.71,0-8.533-3.823-8.533-8.533
			S217.156,375.467,221.867,375.467z M230.4,469.333h-8.533c-4.719,0-8.533-3.814-8.533-8.533c0-4.719,3.814-8.533,8.533-8.533
			h8.533c4.719,0,8.533,3.814,8.533,8.533C238.933,465.519,235.119,469.333,230.4,469.333z M290.133,469.333h-25.6
			c-4.719,0-8.533-3.814-8.533-8.533c0-4.719,3.814-8.533,8.533-8.533h25.6c4.719,0,8.533,3.814,8.533,8.533
			C298.667,465.519,294.852,469.333,290.133,469.333z M290.133,435.2h-68.267c-4.719,0-8.533-3.814-8.533-8.533
			s3.814-8.533,8.533-8.533h68.267c4.719,0,8.533,3.814,8.533,8.533S294.852,435.2,290.133,435.2z M290.133,375.467
			c4.71,0,8.533,3.823,8.533,8.533s-3.823,8.533-8.533,8.533S281.6,388.71,281.6,384S285.423,375.467,290.133,375.467z
			 M273.067,349.867c4.71,0,8.533,3.823,8.533,8.533s-3.823,8.533-8.533,8.533c-4.71,0-8.533-3.823-8.533-8.533
			S268.356,349.867,273.067,349.867z M163.541,204.8c-29.005,0-52.608-25.711-52.608-57.301c0-22.178,11.563-41.506,30.182-50.432
			l4.847-2.313v-5.376c0-0.691,0.051-1.408,0.111-2.44l-0.043-1.707c-0.034-0.418-0.068-0.828-0.068-1.246
			c0-19.004,13.978-32.785,33.237-32.785c19.14,0,34.133,14.993,34.133,34.133c0,4.719,3.814,8.533,8.533,8.533
			s8.533-3.814,8.533-8.533c0-14.686-5.914-27.725-15.505-36.975c14.899-19.106,39.006-31.292,63.121-31.292
			c39.014,0,71.62,30.08,76.57,68.702c-7.049-0.888-15.761-1.459-23.066-0.333c-4.659,0.708-7.859,5.052-7.151,9.711
			s5.052,7.851,9.711,7.151c9.549-1.468,24.713,1.186,29.747,2.338c0.631,0.137,1.263,0.205,1.886,0.205
			c0.503,0,0.964-0.162,1.442-0.247c19.883,6.306,33.911,26.479,33.911,50.227c0,28.484-20.727,49.98-48.205,49.98H163.541z
			 M469.333,469.333h-68.267c-4.719,0-8.533-3.814-8.533-8.533c0-4.719,3.814-8.533,8.533-8.533h68.267
			c4.719,0,8.533,3.814,8.533,8.533C477.867,465.519,474.052,469.333,469.333,469.333z M392.533,409.6
			c0-4.71,3.823-8.533,8.533-8.533s8.533,3.823,8.533,8.533c0,4.71-3.823,8.533-8.533,8.533S392.533,414.31,392.533,409.6z
			 M426.667,409.6c0-4.71,3.823-8.533,8.533-8.533s8.533,3.823,8.533,8.533c0,4.71-3.823,8.533-8.533,8.533
			S426.667,414.31,426.667,409.6z M469.333,418.133c-4.71,0-8.533-3.823-8.533-8.533c0-4.71,3.823-8.533,8.533-8.533
			s8.533,3.823,8.533,8.533C477.867,414.31,474.044,418.133,469.333,418.133z M469.333,366.933h-68.267
			c-4.719,0-8.533-3.814-8.533-8.533s3.814-8.533,8.533-8.533h68.267c4.719,0,8.533,3.814,8.533,8.533
			S474.052,366.933,469.333,366.933z"/>
	</g>
</g>
<g>
</g>
<g>
</g>
<g>
</g>
<g>
</g>
<g>
</g>
<g>
</g>
<g>
</g>
<g>
</g>
<g>
</g>
<g>
</g>
<g>
</g>
<g>
</g>
<g>
</g>
<g>
</g>
<g>
</g>
</svg>
