<?xml version="1.0" encoding="iso-8859-1"?>
<!-- Generator: Adobe Illustrator 19.0.0, SVG Export Plug-In . SVG Version: 6.00 Build 0)  -->
<svg version="1.1" id="Layer_1" xmlns="http://www.w3.org/2000/svg" xmlns:xlink="http://www.w3.org/1999/xlink" x="0px" y="0px"
	 viewBox="0 0 512.002 512.002" style="enable-background:new 0 0 512.002 512.002;" xml:space="preserve">
<g transform="translate(0 -1)">
	<g>
		<g>
			<path d="M34.134,85.471v26.462c0,4.719,3.823,8.533,8.533,8.533c4.71,0,8.533-3.814,8.533-8.533V85.471
				c16.751-3.413,29.935-16.674,33.289-33.442c0.29,0.034,0.546,0.171,0.845,0.171h34.133c4.71,0,8.533-3.814,8.533-8.533
				s-3.823-8.533-8.533-8.533H85.334c-0.299,0-0.555,0.137-0.845,0.171C80.59,15.771,63.327,1,42.668,1
				C19.141,1,0.001,20.14,0.001,43.667C0.001,64.275,14.687,81.503,34.134,85.471z"/>
			<path d="M477.697,428.513c0.034-0.29,0.171-0.546,0.171-0.845v-34.133c0-4.719-3.823-8.533-8.533-8.533s-8.533,3.814-8.533,8.533
				v34.133c0,0.299,0.136,0.555,0.171,0.845c-16.768,3.345-30.029,16.538-33.442,33.289h-26.462c-4.71,0-8.533,3.814-8.533,8.533
				c0,4.719,3.823,8.533,8.533,8.533h26.462c3.968,19.447,21.205,34.133,41.805,34.133c23.526,0,42.667-19.14,42.667-42.667
				C512.001,449.676,497.23,432.413,477.697,428.513z"/>
			<path d="M179.201,461.801h-25.6c-4.71,0-8.533,3.814-8.533,8.533c0,4.719,3.823,8.533,8.533,8.533h25.6
				c4.71,0,8.533-3.814,8.533-8.533C187.734,465.615,183.911,461.801,179.201,461.801z"/>
			<path d="M247.468,461.801h-34.133c-4.71,0-8.533,3.814-8.533,8.533c0,4.719,3.823,8.533,8.533,8.533h34.133
				c4.71,0,8.533-3.814,8.533-8.533C256.001,465.615,252.178,461.801,247.468,461.801z"/>
			<path d="M307.201,461.801h-34.133c-4.71,0-8.533,3.814-8.533,8.533c0,4.719,3.823,8.533,8.533,8.533h34.133
				c4.71,0,8.533-3.814,8.533-8.533C315.734,465.615,311.911,461.801,307.201,461.801z"/>
			<path d="M119.468,461.801H85.334c-0.299,0-0.555,0.137-0.845,0.171c-3.362-16.828-16.631-30.097-33.459-33.459
				c0.034-0.29,0.171-0.546,0.171-0.845v-34.133c0-4.719-3.823-8.533-8.533-8.533c-4.71,0-8.533,3.814-8.533,8.533v34.133
				c0,0.299,0.136,0.555,0.171,0.845c-19.533,3.9-34.304,21.163-34.304,41.822c0,23.526,19.14,42.667,42.667,42.667
				c20.659,0,37.922-14.771,41.822-34.304c0.29,0.034,0.546,0.171,0.845,0.171h34.133c4.71,0,8.533-3.814,8.533-8.533
				C128.001,465.615,124.178,461.801,119.468,461.801z"/>
			<path d="M366.934,461.801h-25.6c-4.71,0-8.533,3.814-8.533,8.533c0,4.719,3.823,8.533,8.533,8.533h25.6
				c4.71,0,8.533-3.814,8.533-8.533C375.468,465.615,371.645,461.801,366.934,461.801z"/>
			<path d="M273.068,52.201h34.133c4.71,0,8.533-3.814,8.533-8.533s-3.823-8.533-8.533-8.533h-34.133
				c-4.71,0-8.533,3.814-8.533,8.533S268.357,52.201,273.068,52.201z"/>
			<path d="M401.068,52.201h26.462c3.405,16.691,16.58,29.867,33.271,33.271v26.462c0,4.719,3.823,8.533,8.533,8.533
				s8.533-3.814,8.533-8.533V85.472c19.447-3.968,34.133-21.205,34.133-41.805c0-23.526-19.14-42.667-42.667-42.667
				c-20.599,0-37.837,14.686-41.805,34.133h-26.462c-4.71,0-8.533,3.814-8.533,8.533S396.357,52.201,401.068,52.201z"/>
			<path d="M213.334,52.201h34.133c4.71,0,8.533-3.814,8.533-8.533s-3.823-8.533-8.533-8.533h-34.133
				c-4.71,0-8.533,3.814-8.533,8.533S208.624,52.201,213.334,52.201z"/>
			<path d="M341.334,52.201h25.6c4.71,0,8.533-3.814,8.533-8.533s-3.823-8.533-8.533-8.533h-25.6c-4.71,0-8.533,3.814-8.533,8.533
				S336.624,52.201,341.334,52.201z"/>
			<path d="M153.601,52.201h25.6c4.71,0,8.533-3.814,8.533-8.533s-3.823-8.533-8.533-8.533h-25.6c-4.71,0-8.533,3.814-8.533,8.533
				S148.89,52.201,153.601,52.201z"/>
			<path d="M109.139,208.492c0,0.358,0.009,0.717,0.026,1.118c-25.361,14.379-40.9,41.847-40.9,72.994
				c0,47.044,35.831,85.333,79.872,85.333h65.195c4.719,0,8.533-3.823,8.533-8.533c0-4.719-3.814-8.533-8.533-8.533h-65.195
				c-34.628,0-62.805-30.626-62.805-68.267c0-26.436,13.807-49.476,36.028-60.126l4.847-2.321v-5.376
				c0-0.708,0.043-1.434,0.128-2.995l0.026-0.444l-0.085-1.442c-0.034-0.469-0.068-0.93-0.068-1.408
				c0-23.031,18.739-41.771,41.771-41.771c1.451,0,2.876,0.171,4.309,0.316c20.198,2.901,32.512,25.882,32.512,47.3
				c0,4.71,3.823,8.533,8.533,8.533c4.719,0,8.533-3.823,8.533-8.533c0-16.956-5.777-34.167-16.239-46.583
				c17.527-23.603,46.797-38.75,76.058-38.75c47.258,0,86.579,37.222,91.076,84.429c-6.972-0.299-15.906-0.265-24.175,0.998
				c-4.659,0.708-7.859,5.06-7.151,9.719c0.64,4.224,4.275,7.253,8.422,7.253c0.427,0,0.862-0.034,1.297-0.102
				c14.106-2.125,31.607,0.017,31.778,0.034c1.169,0.145,2.321,0.026,3.396-0.282c23.706,7.595,40.337,31.804,40.337,60.083
				c0,34.048-24.789,59.733-57.66,59.733h-87.407c-4.71,0-8.533,3.814-8.533,8.533c0,4.71,3.823,8.533,8.533,8.533h87.407
				c42.598,0,74.726-33.024,74.726-76.8c0-36.352-22.212-67.558-53.709-76.851c-4.147-57.02-51.43-102.349-108.339-102.349
				c-34.219,0-67.371,16.478-88.346,43.469c-7.876-3.78-16.512-5.751-25.361-5.751C135.532,149.655,109.139,176.049,109.139,208.492
				z"/>
			<path d="M51.201,205.801c0-4.719-3.823-8.533-8.533-8.533c-4.71,0-8.533,3.814-8.533,8.533v34.133
				c0,4.719,3.823,8.533,8.533,8.533c4.71,0,8.533-3.814,8.533-8.533V205.801z"/>
			<path d="M51.201,146.068c0-4.719-3.823-8.533-8.533-8.533c-4.71,0-8.533,3.814-8.533,8.533v25.6c0,4.719,3.823,8.533,8.533,8.533
				c4.71,0,8.533-3.814,8.533-8.533V146.068z"/>
			<path d="M42.668,325.268c-4.71,0-8.533,3.814-8.533,8.533v25.6c0,4.719,3.823,8.533,8.533,8.533c4.71,0,8.533-3.814,8.533-8.533
				v-25.6C51.201,329.082,47.378,325.268,42.668,325.268z"/>
			<path d="M51.201,265.534c0-4.719-3.823-8.533-8.533-8.533c-4.71,0-8.533,3.814-8.533,8.533v34.133
				c0,4.719,3.823,8.533,8.533,8.533c4.71,0,8.533-3.814,8.533-8.533V265.534z"/>
			<path d="M477.868,265.534c0-4.719-3.823-8.533-8.533-8.533s-8.533,3.814-8.533,8.533v34.133c0,4.719,3.823,8.533,8.533,8.533
				s8.533-3.814,8.533-8.533V265.534z"/>
			<path d="M477.868,205.801c0-4.719-3.823-8.533-8.533-8.533s-8.533,3.814-8.533,8.533v34.133c0,4.719,3.823,8.533,8.533,8.533
				s8.533-3.814,8.533-8.533V205.801z"/>
			<path d="M469.334,325.268c-4.71,0-8.533,3.814-8.533,8.533v25.6c0,4.719,3.823,8.533,8.533,8.533s8.533-3.814,8.533-8.533v-25.6
				C477.868,329.082,474.045,325.268,469.334,325.268z"/>
			<path d="M477.868,146.068c0-4.719-3.823-8.533-8.533-8.533s-8.533,3.814-8.533,8.533v25.6c0,4.719,3.823,8.533,8.533,8.533
				s8.533-3.814,8.533-8.533V146.068z"/>
		</g>
	</g>
</g>
<g>
</g>
<g>
</g>
<g>
</g>
<g>
</g>
<g>
</g>
<g>
</g>
<g>
</g>
<g>
</g>
<g>
</g>
<g>
</g>
<g>
</g>
<g>
</g>
<g>
</g>
<g>
</g>
<g>
</g>
</svg>
