<?xml version="1.0" encoding="iso-8859-1"?>
<!-- Generator: Adobe Illustrator 19.0.0, SVG Export Plug-In . SVG Version: 6.00 Build 0)  -->
<svg version="1.1" id="Layer_1" xmlns="http://www.w3.org/2000/svg" xmlns:xlink="http://www.w3.org/1999/xlink" x="0px" y="0px"
	 viewBox="0 0 512 512" style="enable-background:new 0 0 512 512;" xml:space="preserve">
<g transform="translate(0 -1)">
	<g>
		<g>
			<path d="M264.532,218.598c-75.29,0-136.533,61.252-136.533,136.533c0,75.29,61.244,136.533,136.533,136.533
				c75.281,0,136.533-61.244,136.533-136.533C401.066,279.851,339.814,218.598,264.532,218.598z M232.37,240.188
				c-12.297,14.831-22.118,30.464-29.329,46.677H166.63C182.288,264.474,205.414,247.748,232.37,240.188z M156.756,303.932h39.731
				c-4.531,13.926-7.236,28.186-7.987,42.667h-43.008C146.576,331.417,150.502,317.039,156.756,303.932z M145.492,363.665h42.991
				c0.759,14.455,3.49,28.723,8.055,42.667h-39.782C150.502,393.233,146.576,378.854,145.492,363.665z M166.63,423.398h36.506
				c7.219,16.188,17.058,31.829,29.363,46.711C205.482,462.575,182.314,445.824,166.63,423.398z M255.999,470.699
				c-14.191-14.968-25.515-30.814-33.801-47.3h33.801V470.699z M255.999,406.332H214.74c-5.129-13.935-8.081-28.211-8.943-42.667
				h50.202V406.332z M255.999,346.598h-50.202c0.853-14.481,3.763-28.757,8.849-42.667h41.353V346.598z M255.999,286.865h-33.92
				c8.294-16.555,19.669-32.418,33.92-47.334V286.865z M273.066,238.976c14.498,15.078,26.044,31.13,34.44,47.889h-34.44V238.976z
				 M273.066,303.932h41.873c5.086,13.909,7.996,28.186,8.849,42.667h-50.722V303.932z M273.066,363.665h50.722
				c-0.862,14.455-3.814,28.732-8.943,42.667h-41.779V363.665z M273.066,423.398h34.321c-8.388,16.691-19.891,32.725-34.321,47.855
				V423.398z M297.232,469.939c12.237-14.839,22.025-30.413,29.218-46.541h35.977C346.871,445.645,323.959,462.31,297.232,469.939z
				 M372.308,406.332h-39.262c4.565-13.943,7.296-28.211,8.055-42.667h42.462C382.48,378.854,378.555,393.233,372.308,406.332z
				 M383.564,346.598h-42.479c-0.751-14.481-3.456-28.74-7.987-42.667h39.211C378.555,317.039,382.48,331.417,383.564,346.598z
				 M326.544,286.865c-7.185-16.145-16.956-31.718-29.184-46.498c26.675,7.637,49.536,24.294,65.067,46.498H326.544z"/>
			<path d="M467.593,175.935h-40.892c-0.23,0-0.418-0.111-0.64-0.128c-0.205-0.017-0.401,0.068-0.614,0.034
				c-0.213-0.026-20.685-2.935-40.166-0.009c-0.435,0.068-0.87,0.102-1.289,0.102c-4.156,0-7.782-3.021-8.431-7.253
				c-0.708-4.659,2.492-9.003,7.151-9.711c20.352-3.089,40.73-0.623,44.57-0.102h7.526c-5.325-76.015-68.19-136.533-143.949-136.533
				c-46.268,0-91.076,22.665-118.886,59.639l3.217,1.997c23.441,13.559,38.144,39.049,38.144,66.364
				c0,4.719-3.823,8.533-8.533,8.533c-4.719,0-8.533-3.814-8.533-8.533c0-21.248-11.443-41.062-29.85-51.738L127.07,74.184
				c-37.897,4.685-67.337,37.009-67.337,76.151c0,1.084,0.06,2.15,0.128,3.217v0.034C24.38,172.94,0,213.473,0,254.049
				c0,60.442,49.161,109.619,109.602,109.619h1.758c-0.154-2.842-0.427-5.649-0.427-8.533c0-84.693,68.907-153.6,153.6-153.6
				c84.685,0,153.6,68.907,153.6,153.6c0,2.739-0.273,5.41-0.418,8.107C470.409,358.966,512,314.807,512,261.029
				C512,226.708,494.421,195.024,467.593,175.935z"/>
		</g>
	</g>
</g>
<g>
</g>
<g>
</g>
<g>
</g>
<g>
</g>
<g>
</g>
<g>
</g>
<g>
</g>
<g>
</g>
<g>
</g>
<g>
</g>
<g>
</g>
<g>
</g>
<g>
</g>
<g>
</g>
<g>
</g>
</svg>
