<?xml version="1.0" encoding="iso-8859-1"?>
<!-- Generator: Adobe Illustrator 19.0.0, SVG Export Plug-In . SVG Version: 6.00 Build 0)  -->
<svg version="1.1" id="Layer_1" xmlns="http://www.w3.org/2000/svg" xmlns:xlink="http://www.w3.org/1999/xlink" x="0px" y="0px"
	 viewBox="0 0 511.776 511.776" style="enable-background:new 0 0 511.776 511.776;" xml:space="preserve">
<g transform="translate(-1 -1)">
	<g>
		<g>
			<path d="M76.19,88.512c-1.672-1.672-4.011-2.697-6.323-2.492c-2.364,0.077-4.582,1.135-6.144,2.918
				c-88.064,100.949-82.79,254.285,12.006,349.082c49.647,49.63,115.328,74.726,181.146,74.726c59.87,0,119.851-20.77,167.936-62.72
				c1.783-1.553,2.85-3.78,2.918-6.135c0.085-2.372-0.811-4.651-2.492-6.332L76.19,88.512z"/>
			<path d="M449.773,88.937c-1.562-1.783-3.78-2.842-6.144-2.918c-2.347-0.179-4.659,0.819-6.323,2.492L274.848,250.959
				c-1.604,1.604-2.5,3.772-2.5,6.033c0,2.27,0.896,4.437,2.5,6.033l162.927,162.927c1.596,1.604,3.772,2.5,6.033,2.5
				c0.102,0,0.188,0,0.29-0.008c2.355-0.077,4.582-1.135,6.144-2.918C533.801,329.73,533.596,185.022,449.773,88.937z"/>
			<path d="M149.186,136.652L283.517,2.32c-11.657-1.161-23.381-1.544-35.081-1.126l-117.35,117.359L149.186,136.652z"/>
			<path d="M209.526,196.991L376.574,29.942c-8.141-4.233-16.469-7.97-24.926-11.273L191.427,178.892L209.526,196.991z"/>
			<path d="M251.763,239.23c3.337,3.337,8.738,3.337,12.066,0L426.748,76.312c1.673-1.673,2.569-3.959,2.5-6.323
				c-0.085-2.364-1.143-4.591-2.927-6.144c-10.863-9.472-22.383-17.826-34.355-25.156L221.589,209.056L251.763,239.23z"/>
			<path d="M119.016,106.482L221.988,3.51c-47.889,6.664-94.225,26.752-132.719,60.339c-0.145,0.128-0.29,0.256-0.427,0.393
				c-1.519,1.527-2.415,3.576-2.492,5.751c-0.085,2.355,0.819,4.642,2.492,6.315L119.016,106.482z"/>
			<path d="M179.356,166.822L333.767,12.412c-9.574-2.935-19.285-5.316-29.09-7.117l-143.42,143.428L179.356,166.822z"/>
		</g>
	</g>
</g>
<g>
</g>
<g>
</g>
<g>
</g>
<g>
</g>
<g>
</g>
<g>
</g>
<g>
</g>
<g>
</g>
<g>
</g>
<g>
</g>
<g>
</g>
<g>
</g>
<g>
</g>
<g>
</g>
<g>
</g>
</svg>
