<?xml version="1.0" encoding="iso-8859-1"?>
<!-- Generator: Adobe Illustrator 19.0.0, SVG Export Plug-In . SVG Version: 6.00 Build 0)  -->
<svg version="1.1" id="Layer_1" xmlns="http://www.w3.org/2000/svg" xmlns:xlink="http://www.w3.org/1999/xlink" x="0px" y="0px"
	 viewBox="0 0 512 512" style="enable-background:new 0 0 512 512;" xml:space="preserve">
<g>
	<g>
		<g>
			<path d="M511.403,226.082h-16.469H258.441l-134.153,83.396c-7.168-2.253-14.054-4.676-20.668-7.262l143.846-89.412V89.651
				C108.032,91.836,0,147.209,0,217.549v76.8c0,71.774,112.452,128,256,128s256-56.226,256-128v-68.267H511.403z M494.933,294.349
				c0,60.134-109.414,110.933-238.933,110.933S17.067,354.483,17.067,294.349v-29.961c0.128,0.171,0.282,0.324,0.41,0.486
				c1.937,2.492,4.045,4.941,6.272,7.356c0.836,0.905,1.724,1.783,2.603,2.679c1.638,1.673,3.345,3.319,5.12,4.941
				c0.99,0.905,1.954,1.818,2.987,2.705c2.543,2.193,5.197,4.352,7.996,6.46c1.143,0.87,2.364,1.698,3.541,2.543
				c1.963,1.399,3.968,2.79,6.033,4.147c1.442,0.947,2.901,1.886,4.395,2.816c2.321,1.434,4.719,2.833,7.151,4.215
				c2.057,1.161,4.156,2.304,6.298,3.43c2.432,1.28,4.898,2.543,7.441,3.772c1.792,0.862,3.618,1.707,5.461,2.543
				c0.836,0.384,1.63,0.785,2.475,1.161l0.068-0.051c6.289,2.79,12.826,5.427,19.661,7.885l-0.043,0.034
				c0.35,0.128,0.725,0.23,1.084,0.358c3.968,1.417,8.064,2.748,12.211,4.053c1.314,0.41,2.586,0.845,3.908,1.246
				c4.198,1.263,8.516,2.441,12.868,3.584c1.399,0.367,2.765,0.759,4.181,1.118c4.335,1.092,8.789,2.082,13.269,3.046
				c1.545,0.333,3.046,0.7,4.599,1.015c4.412,0.905,8.934,1.698,13.474,2.483c1.724,0.299,3.405,0.631,5.137,0.913
				c4.463,0.708,9.02,1.314,13.585,1.911c1.903,0.247,3.772,0.538,5.692,0.768c4.514,0.529,9.114,0.947,13.722,1.357
				c2.057,0.188,4.07,0.427,6.144,0.589c4.753,0.375,9.6,0.614,14.447,0.853c1.988,0.102,3.925,0.256,5.931,0.341
				c6.861,0.256,13.798,0.401,20.813,0.401c6.17,0,12.262-0.137,18.313-0.341c1.271-0.043,2.543-0.085,3.814-0.137
				c5.854-0.239,11.657-0.563,17.391-0.99c0.973-0.077,1.937-0.162,2.901-0.239c5.222-0.427,10.385-0.913,15.479-1.485
				c0.947-0.102,1.911-0.196,2.859-0.307c5.521-0.648,10.957-1.399,16.324-2.219c1.237-0.188,2.458-0.384,3.686-0.589
				c5.376-0.862,10.701-1.784,15.906-2.816c0.23-0.043,0.469-0.102,0.708-0.145c5.069-1.016,10.018-2.133,14.908-3.302
				c1.237-0.29,2.475-0.589,3.703-0.887c4.804-1.195,9.532-2.458,14.148-3.797c1.058-0.299,2.082-0.631,3.123-0.939
				c3.951-1.186,7.817-2.415,11.614-3.703c1.05-0.35,2.116-0.691,3.157-1.058c4.241-1.476,8.363-3.029,12.399-4.634
				c1.28-0.512,2.526-1.024,3.78-1.544c3.644-1.502,7.211-3.046,10.667-4.651c1.033-0.478,2.039-0.964,3.055-1.451
				c3.209-1.536,6.323-3.123,9.37-4.745c1.254-0.666,2.5-1.34,3.729-2.014c3.268-1.826,6.443-3.686,9.489-5.598
				c1.135-0.708,2.21-1.442,3.311-2.159c2.261-1.485,4.463-2.995,6.596-4.54c1.067-0.768,2.159-1.527,3.2-2.304
				c2.62-1.98,5.103-4.011,7.501-6.076c1.101-0.939,2.159-1.894,3.209-2.85c1.818-1.655,3.567-3.345,5.239-5.052
				c1.22-1.237,2.389-2.492,3.533-3.755c1.476-1.647,2.901-3.302,4.25-4.983c0.495-0.623,1.092-1.22,1.57-1.852V294.349z"/>
			<path d="M264.533,89.653v119.364h246.869C503.057,142.781,398.276,91.744,264.533,89.653z"/>
		</g>
	</g>
</g>
<g>
</g>
<g>
</g>
<g>
</g>
<g>
</g>
<g>
</g>
<g>
</g>
<g>
</g>
<g>
</g>
<g>
</g>
<g>
</g>
<g>
</g>
<g>
</g>
<g>
</g>
<g>
</g>
<g>
</g>
</svg>
