<?xml version="1.0" encoding="iso-8859-1"?>
<!-- Generator: Adobe Illustrator 19.0.0, SVG Export Plug-In . SVG Version: 6.00 Build 0)  -->
<svg version="1.1" id="Layer_1" xmlns="http://www.w3.org/2000/svg" xmlns:xlink="http://www.w3.org/1999/xlink" x="0px" y="0px"
	 viewBox="0 0 511.346 511.346" style="enable-background:new 0 0 511.346 511.346;" xml:space="preserve">
<g transform="translate(0 -1)">
	<g>
		<g>
			<path d="M272.993,1.661c-2.33-0.154-4.676,0.666-6.4,2.287c-1.732,1.604-2.714,3.866-2.714,6.229v493.636
				c0,2.364,0.981,4.625,2.714,6.229c1.579,1.485,3.669,2.304,5.82,2.304c0.196,0,0.393-0.009,0.58-0.017
				c133.658-9.122,238.353-121.267,238.353-255.334S406.65,10.774,272.993,1.661z"/>
			<path d="M237.701,1.01C110.878,9.663,8.7,112.123,0.022,239.346c-0.162,2.355,0.666,4.685,2.278,6.409
				c1.613,1.724,3.874,2.705,6.238,2.705h229.743c4.71,0,8.533-3.814,8.533-8.533V9.527c0-2.364-0.981-4.625-2.714-6.229
				C242.377,1.684,240.022,0.899,237.701,1.01z"/>
			<path d="M246.809,376.461H29.166c4.702,8.849,9.899,17.399,15.573,25.6h202.069V376.461z"/>
			<path d="M246.81,419.127H57.643c7.458,9.071,15.505,17.63,24.115,25.6H246.81V419.127z"/>
			<path d="M246.813,274.061c0-4.719-3.823-8.533-8.533-8.533H8.529c-2.364,0-4.617,0.981-6.238,2.705
				c-1.613,1.732-2.432,4.053-2.27,6.409c0.981,14.387,3.217,28.433,6.511,42.086h240.282V274.061z"/>
			<path d="M246.813,333.794H11.242c2.773,8.747,6.016,17.28,9.677,25.6h225.894V333.794z"/>
			<path d="M237.701,512.328c0.188,0.009,0.384,0.017,0.58,0.017c2.15,0,4.241-0.819,5.82-2.304
				c1.732-1.604,2.714-3.866,2.714-6.229v-42.018H102.251C140.6,490.559,187.175,508.88,237.701,512.328z"/>
		</g>
	</g>
</g>
<g>
</g>
<g>
</g>
<g>
</g>
<g>
</g>
<g>
</g>
<g>
</g>
<g>
</g>
<g>
</g>
<g>
</g>
<g>
</g>
<g>
</g>
<g>
</g>
<g>
</g>
<g>
</g>
<g>
</g>
</svg>
