<?xml version="1.0" encoding="iso-8859-1"?>
<!-- Generator: Adobe Illustrator 19.0.0, SVG Export Plug-In . SVG Version: 6.00 Build 0)  -->
<svg version="1.1" id="Layer_1" xmlns="http://www.w3.org/2000/svg" xmlns:xlink="http://www.w3.org/1999/xlink" x="0px" y="0px"
	 viewBox="0 0 511.77 511.77" style="enable-background:new 0 0 511.77 511.77;" xml:space="preserve">
<g>
	<g>
		<g>
			<path d="M509.264,497.087l-51.721-54.098c15.195-16.653,24.55-38.73,24.55-63.002c0-51.66-42.027-93.687-93.687-93.687
				c-51.66,0-93.687,42.027-93.687,93.687c0,51.66,42.027,93.687,93.687,93.687c21.14,0,40.604-7.125,56.303-18.987l52.007,54.402
				c1.71,1.779,3.983,2.681,6.274,2.681c2.161,0,4.313-0.798,5.997-2.412C512.449,506.043,512.571,500.558,509.264,497.087z
				 M388.406,456.318c-42.088,0-76.331-34.243-76.331-76.331s34.243-76.331,76.331-76.331s76.331,34.243,76.331,76.331
				S430.495,456.318,388.406,456.318z"/>
			<path d="M350.556,113.205c25.262-8.721,49.447-20.61,71.88-35.909l5.745-4.92c-41.984-41.411-98.399-68.2-160.924-72.071
				l-3.072,2.933C301.274,33.68,330.527,71.247,350.556,113.205z"/>
			<path d="M260.228,22.705v106.913c25.088-0.712,49.716-4.452,73.511-11.134C316.148,82.392,291.312,49.824,260.228,22.705z"/>
			<path d="M242.872,22.688c-31.119,27.258-55.938,59.809-73.502,95.813c23.76,6.656,48.406,10.405,73.502,11.108V22.688z"/>
			<path d="M145.484,129.112c-26.355-9.233-51.599-21.738-75.012-37.758l-7.723-6.049C25.459,127.636,2.159,182.533,0.111,242.75
				H121.62C122.678,203.178,130.801,164.761,145.484,129.112z"/>
			<path d="M121.621,260.106H0.104c1.979,57.787,23.474,110.696,58.16,152.272l6.673-5.589
				c24.264-17.304,50.384-30.746,77.659-40.63C129.787,332.662,122.602,296.9,121.621,260.106z"/>
			<path d="M242.872,480.15V364.577c-26.364,0.738-52.207,4.816-77.078,12.141C183.523,415.846,209.6,451.122,242.872,480.15z"/>
			<path d="M242.872,260.106H138.979c0.981,34.885,7.854,68.773,20.072,100.508c27.049-8.157,55.148-12.635,83.82-13.399V260.106z"
				/>
			<path d="M152.531,113.23c20.324-42.6,50.124-80.705,88.012-111.39L242.478,0C177.185,2.326,118.149,29.601,74.672,72.617
				l6.049,4.738C103.04,92.62,127.217,104.509,152.531,113.23z"/>
			<path d="M149.221,382.167c-25.956,9.312-50.757,22.016-73.676,38.348l-5.693,4.764c44.162,46.132,105.62,75.507,173.863,77.607
				l-3.176-1.874C200.473,468.556,169.553,427.753,149.221,382.167z"/>
			<path d="M381.476,242.75h121.518c-2.065-60.373-25.47-115.4-62.924-157.774l-7.446,6.378
				c-23.413,16.02-48.657,28.524-75.012,37.758C372.295,164.761,380.418,203.178,381.476,242.75z"/>
			<path d="M340.989,134.495c-26.095,7.558-53.179,11.741-80.766,12.47v95.787h103.901
				C363.057,205.021,355.143,168.426,340.989,134.495z"/>
			<path d="M242.872,146.968c-27.587-0.738-54.671-4.912-80.757-12.47c-14.188,33.948-22.077,70.543-23.135,108.249h103.893V146.968
				z"/>
			<path d="M277.363,379.986c0-61.232,49.812-111.043,111.043-111.043c44.761,0,83.326,26.685,100.881,64.929
				c8.14-23.587,12.722-48.371,13.581-73.763H260.224v232.483l15.742,9.303c0.364-0.035,0.738-0.052,1.111-0.087l1.848-0.182
				l49.412-28.386C297.713,453.445,277.363,419.081,277.363,379.986z"/>
		</g>
	</g>
</g>
<g>
</g>
<g>
</g>
<g>
</g>
<g>
</g>
<g>
</g>
<g>
</g>
<g>
</g>
<g>
</g>
<g>
</g>
<g>
</g>
<g>
</g>
<g>
</g>
<g>
</g>
<g>
</g>
<g>
</g>
</svg>
