<?xml version="1.0" encoding="iso-8859-1"?>
<!-- Generator: Adobe Illustrator 19.0.0, SVG Export Plug-In . SVG Version: 6.00 Build 0)  -->
<svg version="1.1" id="Layer_1" xmlns="http://www.w3.org/2000/svg" xmlns:xlink="http://www.w3.org/1999/xlink" x="0px" y="0px"
	 viewBox="0 0 512.001 512.001" style="enable-background:new 0 0 512.001 512.001;" xml:space="preserve">
<g>
	<g>
		<g>
			<path d="M399.187,286.263c-62.204,0-112.814,50.61-112.814,112.814s50.61,112.814,112.814,112.814
				c62.212,0,112.814-50.61,112.814-112.814S461.4,286.263,399.187,286.263z M442.143,429.753c3.393,3.393,3.393,8.878,0,12.271
				c-1.692,1.692-3.914,2.543-6.135,2.543s-4.443-0.85-6.135-2.543l-30.685-30.677l-30.677,30.677
				c-1.701,1.692-3.922,2.543-6.135,2.543c-2.222,0-4.443-0.85-6.135-2.543c-3.393-3.393-3.393-8.878,0-12.271l30.677-30.677
				L356.24,368.4c-3.393-3.393-3.393-8.886,0-12.271c3.384-3.393,8.878-3.393,12.271,0l30.677,30.677l30.685-30.677
				c3.393-3.393,8.878-3.393,12.271,0c3.393,3.384,3.393,8.878,0,12.271l-30.685,30.677L442.143,429.753z"/>
			<path d="M121.518,260.228H0c1.97,57.552,23.292,110.271,57.726,151.778l7.611-5.484c24.012-17.104,49.968-30.442,77.13-40.274
				C129.684,332.776,122.498,297.023,121.518,260.228z"/>
			<path d="M158.942,360.713c27.014-8.131,55.131-12.609,83.82-13.373v-87.109H138.87
				C139.859,295.099,146.732,328.986,158.942,360.713z"/>
			<path d="M152.443,113.315c19.899-41.698,48.935-79.039,85.695-109.377l-3.931-3.393C171.908,4.788,115.753,31.733,74.047,73.24
				l5.884,3.749C102.588,92.496,126.991,104.524,152.443,113.315z"/>
			<path d="M242.764,22.824c-31.084,27.127-55.912,59.687-73.502,95.77c23.804,6.691,48.432,10.431,73.502,11.142V22.824z"/>
			<path d="M242.767,480.279V364.697c-26.364,0.738-52.207,4.825-77.078,12.149C183.427,415.975,209.496,451.26,242.767,480.279z"/>
			<path d="M381.372,242.872H502.89c-2.057-60.182-25.322-115.035-62.56-157.358l-7.428,5.684
				c-23.604,16.158-48.961,28.733-75.394,38.01C372.182,164.857,380.314,203.283,381.372,242.872z"/>
			<path d="M260.126,147.091v95.779h103.893c-1.067-37.732-8.964-74.344-23.118-108.275
				C314.78,142.179,287.696,146.353,260.126,147.091z"/>
			<path d="M149.098,382.296c-25.956,9.311-50.749,22.016-73.659,38.339L69.365,425c43.945,46.106,105.125,75.585,173.117,77.98
				l-2.378-2.126C200.22,468.555,169.396,427.838,149.098,382.296z"/>
			<path d="M242.763,147.094c-27.579-0.738-54.662-4.912-80.757-12.479c-14.154,33.931-22.068,70.526-23.135,108.258h103.893
				V147.094z"/>
			<path d="M260.123,22.822v106.913c25.097-0.703,49.733-4.452,73.528-11.134C316.061,82.509,291.216,49.94,260.123,22.822z"/>
			<path d="M145.379,129.234c-26.355-9.233-51.591-21.738-75.012-37.758l-8.357-5.328C25.094,128.384,2.045,182.994,0.006,242.872
				h121.509C122.574,203.301,130.696,164.884,145.379,129.234z"/>
			<path d="M350.465,113.323c25.4-8.765,49.716-20.749,72.253-36.17l5.675-4.348C384.856,29.702,325.715,2.393,260.301,0.111
				l2.352,2.022C300.419,32.722,330.167,70.767,350.465,113.323z"/>
			<path d="M268.801,399.076c0-59.383,40.014-109.499,94.46-125.067c0.304-4.591,0.573-9.181,0.703-13.781H260.123v234.305
				c0,0.286-0.139,0.538-0.165,0.816l7.984,7.159c14.917-0.972,29.609-3.341,44.049-6.864
				C285.549,471.806,268.801,437.406,268.801,399.076z"/>
			<path d="M380.815,270.323c5.953-0.833,11.976-1.414,18.154-1.414c38.322,0,72.713,16.74,96.551,43.173
				c4.139-16.957,6.613-34.287,7.211-51.851H381.319C381.223,263.598,380.989,266.956,380.815,270.323z"/>
		</g>
	</g>
</g>
<g>
</g>
<g>
</g>
<g>
</g>
<g>
</g>
<g>
</g>
<g>
</g>
<g>
</g>
<g>
</g>
<g>
</g>
<g>
</g>
<g>
</g>
<g>
</g>
<g>
</g>
<g>
</g>
<g>
</g>
</svg>
