<?xml version="1.0" encoding="iso-8859-1"?>
<!-- Generator: Adobe Illustrator 19.0.0, SVG Export Plug-In . SVG Version: 6.00 Build 0)  -->
<svg version="1.1" id="Layer_1" xmlns="http://www.w3.org/2000/svg" xmlns:xlink="http://www.w3.org/1999/xlink" x="0px" y="0px"
	 viewBox="0 0 512.003 512.003" style="enable-background:new 0 0 512.003 512.003;" xml:space="preserve">
<g transform="translate(0 -1)">
	<g>
		<g>
			<path d="M416.546,408.865c-9.572,0-17.356,7.784-17.356,17.356c0,9.572,7.784,17.356,17.356,17.356
				c9.572,0,17.356-7.784,17.356-17.356C433.902,416.649,426.118,408.865,416.546,408.865z"/>
			<path d="M477.292,356.796v-8.678c0-33.488-27.249-60.746-60.746-60.746S355.8,314.63,355.8,348.118v8.678h-34.712V513h190.915
				V356.796H477.292z M425.224,459.7v9.91c0,4.799-3.888,8.678-8.678,8.678s-8.678-3.879-8.678-8.678v-9.91
				c-14.926-3.879-26.034-17.347-26.034-33.48c0-19.144,15.568-34.712,34.712-34.712s34.712,15.568,34.712,34.712
				C451.258,442.352,440.15,455.82,425.224,459.7z M459.936,356.796h-86.78v-8.678c0-23.925,19.465-43.39,43.39-43.39
				c23.925,0,43.39,19.465,43.39,43.39V356.796z"/>
			<path d="M350.452,114.209c25.262-8.721,49.456-20.61,71.88-35.909l5.745-4.92c-41.984-41.411-98.399-68.2-160.924-72.07
				l-3.072,2.933C301.161,34.684,330.423,72.251,350.452,114.209z"/>
			<path d="M260.123,23.709v106.913c25.088-0.712,49.716-4.452,73.511-11.134C316.044,83.396,291.207,50.828,260.123,23.709z"/>
			<path d="M242.767,23.692c-31.119,27.258-55.938,59.809-73.502,95.813c23.76,6.656,48.406,10.405,73.502,11.108V23.692z"/>
			<path d="M145.379,130.116c-26.355-9.233-51.591-21.738-75.012-37.758l-7.723-6.049C25.354,128.64,2.063,183.537,0.006,243.754
				h121.509C122.574,204.182,130.696,165.765,145.379,130.116z"/>
			<path d="M121.518,261.109H0c1.979,57.787,23.474,110.696,58.16,152.272l6.673-5.589c24.264-17.304,50.384-30.746,77.659-40.63
				C129.684,333.666,122.498,297.904,121.518,261.109z"/>
			<path d="M242.767,481.154V365.581c-26.364,0.738-52.207,4.816-77.078,12.14C183.418,416.85,209.496,452.126,242.767,481.154z"/>
			<path d="M242.767,261.109H138.874c0.981,34.885,7.854,68.773,20.072,100.508c27.049-8.157,55.148-12.635,83.82-13.399V261.109z"
				/>
			<path d="M152.426,114.234c20.324-42.6,50.124-80.705,88.012-111.39l1.935-1.84C177.08,3.33,118.044,30.604,74.567,73.621
				l6.049,4.738C102.935,93.624,127.112,105.513,152.426,114.234z"/>
			<path d="M149.116,383.171c-25.956,9.311-50.757,22.016-73.676,38.348l-5.693,4.764c44.162,46.132,105.619,75.507,173.863,77.607
				l-3.176-1.874C200.368,469.56,169.449,428.756,149.116,383.171z"/>
			<path d="M381.372,243.754H502.89c-2.065-60.373-25.47-115.4-62.924-157.774l-7.446,6.378
				c-23.413,16.02-48.657,28.524-75.012,37.758C372.191,165.765,380.314,204.182,381.372,243.754z"/>
			<path d="M340.884,135.499c-26.095,7.558-53.179,11.741-80.766,12.47v95.787H364.02
				C362.952,206.025,355.038,169.43,340.884,135.499z"/>
			<path d="M242.767,147.973c-27.587-0.738-54.671-4.912-80.757-12.47c-14.188,33.948-22.068,70.543-23.135,108.249h103.893V147.973
				z"/>
		</g>
	</g>
</g>
<g>
</g>
<g>
</g>
<g>
</g>
<g>
</g>
<g>
</g>
<g>
</g>
<g>
</g>
<g>
</g>
<g>
</g>
<g>
</g>
<g>
</g>
<g>
</g>
<g>
</g>
<g>
</g>
<g>
</g>
</svg>
