<?xml version="1.0" encoding="iso-8859-1"?>
<!-- Generator: Adobe Illustrator 19.0.0, SVG Export Plug-In . SVG Version: 6.00 Build 0)  -->
<svg version="1.1" id="Layer_1" xmlns="http://www.w3.org/2000/svg" xmlns:xlink="http://www.w3.org/1999/xlink" x="0px" y="0px"
	 viewBox="0 0 511.996 511.996" style="enable-background:new 0 0 511.996 511.996;" xml:space="preserve">
<g transform="translate(0 -1)">
	<g>
		<g>
			<path d="M509.236,498.182l-58.984-58.984l56.268-28.134l-153.062-56.389l56.389,153.062l28.125-56.268l58.993,58.984
				c1.692,1.692,3.914,2.543,6.135,2.543s4.443-0.85,6.135-2.543C512.629,507.06,512.629,501.576,509.236,498.182z"/>
			<path d="M350.666,114.205c25.262-8.721,49.447-20.61,71.88-35.909l5.745-4.92c-41.984-41.411-98.399-68.2-160.924-72.07
				l-3.072,2.933C301.384,34.68,330.638,72.247,350.666,114.205z"/>
			<path d="M260.338,23.705v106.913c25.088-0.712,49.716-4.452,73.511-11.134C316.259,83.392,291.423,50.824,260.338,23.705z"/>
			<path d="M242.982,23.688c-31.119,27.258-55.938,59.809-73.502,95.813c23.76,6.656,48.406,10.405,73.502,11.108V23.688z"/>
			<path d="M145.595,130.112c-26.355-9.233-51.599-21.738-75.012-37.758l-7.723-6.049C25.57,128.636,2.27,183.533,0.221,243.75
				H121.73C122.789,204.178,130.912,165.761,145.595,130.112z"/>
			<path d="M121.732,261.106H0.215c1.979,57.787,23.474,110.696,58.16,152.272l6.673-5.589
				c24.264-17.304,50.384-30.746,77.659-40.63C129.898,333.662,122.713,297.9,121.732,261.106z"/>
			<path d="M242.982,481.15V365.577c-26.364,0.738-52.207,4.816-77.078,12.14C183.634,416.846,209.711,452.122,242.982,481.15z"/>
			<path d="M242.982,261.106H139.09c0.981,34.885,7.854,68.773,20.072,100.508c27.049-8.157,55.148-12.635,83.82-13.399V261.106z"/>
			<path d="M152.641,114.23c20.324-42.6,50.124-80.705,88.012-111.39L242.588,1C177.295,3.326,118.259,30.601,74.783,73.617
				l6.049,4.738C103.151,93.62,127.328,105.509,152.641,114.23z"/>
			<path d="M149.332,383.167c-25.956,9.311-50.757,22.016-73.676,38.348l-5.693,4.764c44.162,46.132,105.62,75.507,173.863,77.607
				l-3.176-1.874C200.584,469.556,169.664,428.753,149.332,383.167z"/>
			<path d="M381.587,243.75h121.518c-2.065-60.373-25.47-115.4-62.924-157.774l-7.446,6.378
				c-23.413,16.02-48.657,28.524-75.012,37.758C372.406,165.761,380.528,204.178,381.587,243.75z"/>
			<path d="M341.1,135.495c-26.095,7.558-53.179,11.741-80.766,12.47v95.787h103.901C363.168,206.021,355.254,169.426,341.1,135.495
				z"/>
			<path d="M242.982,147.969c-27.587-0.738-54.671-4.912-80.757-12.47c-14.188,33.948-22.077,70.543-23.135,108.249h103.893V147.969
				z"/>
			<path d="M469.101,378.785c20.853-35.814,32.464-75.898,33.879-117.682H260.335v232.491l15.742,9.294
				c0.364-0.035,0.738-0.043,1.111-0.078l1.848-0.191l91.145-52.354L324.17,325.389L469.101,378.785z"/>
		</g>
	</g>
</g>
<g>
</g>
<g>
</g>
<g>
</g>
<g>
</g>
<g>
</g>
<g>
</g>
<g>
</g>
<g>
</g>
<g>
</g>
<g>
</g>
<g>
</g>
<g>
</g>
<g>
</g>
<g>
</g>
<g>
</g>
</svg>
