<?xml version="1.0" encoding="iso-8859-1"?>
<!-- Generator: Adobe Illustrator 19.0.0, SVG Export Plug-In . SVG Version: 6.00 Build 0)  -->
<svg version="1.1" id="Layer_1" xmlns="http://www.w3.org/2000/svg" xmlns:xlink="http://www.w3.org/1999/xlink" x="0px" y="0px"
	 viewBox="0 0 511.997 511.997" style="enable-background:new 0 0 511.997 511.997;" xml:space="preserve">
<g transform="translate(0 -1)">
	<g>
		<g>
			<path d="M398.967,287.369c-32.664,0-63.497,13.72-84.61,37.645c-3.167,3.601-2.829,9.086,0.764,12.253
				c3.601,3.167,9.068,2.829,12.253-0.764c17.816-20.194,43.919-31.779,71.593-31.779c52.632,0,95.458,42.826,95.458,95.458
				s-42.826,95.458-95.458,95.458c-43.32,0-81.634-29.219-93.21-69.424h41.142v-17.356h-69.424v69.424h17.356v-31.787
				c18.163,39.311,58.845,66.499,104.136,66.499c62.204,0,112.814-50.61,112.814-112.814S461.171,287.369,398.967,287.369z"/>
			<path d="M350.668,114.205c25.262-8.721,49.456-20.61,71.88-35.909l5.745-4.92c-41.984-41.411-98.399-68.2-160.924-72.07
				l-3.072,2.933C301.377,34.68,330.639,72.247,350.668,114.205z"/>
			<path d="M260.339,23.705v106.913c25.088-0.712,49.716-4.452,73.511-11.134C316.26,83.392,291.423,50.824,260.339,23.705z"/>
			<path d="M242.983,23.688c-31.119,27.258-55.938,59.809-73.502,95.813c23.76,6.656,48.406,10.405,73.502,11.108V23.688z"/>
			<path d="M145.595,130.112c-26.355-9.233-51.591-21.738-75.012-37.758l-7.723-6.049C25.57,128.636,2.279,183.533,0.222,243.75
				h121.509C122.79,204.178,130.912,165.761,145.595,130.112z"/>
			<path d="M121.734,261.106H0.216c1.979,57.787,23.474,110.696,58.16,152.272l6.673-5.589
				c24.264-17.304,50.384-30.746,77.659-40.63C129.9,333.662,122.714,297.9,121.734,261.106z"/>
			<path d="M242.983,481.15V365.577c-26.364,0.738-52.207,4.816-77.078,12.14C183.634,416.846,209.712,452.122,242.983,481.15z"/>
			<path d="M242.983,261.106H139.09c0.981,34.885,7.854,68.773,20.072,100.508c27.049-8.157,55.148-12.635,83.82-13.399V261.106z"/>
			<path d="M152.643,114.23c20.324-42.6,50.124-80.705,88.012-111.39L242.59,1C177.297,3.326,118.261,30.601,74.784,73.617
				l6.049,4.738C103.152,93.62,127.329,105.509,152.643,114.23z"/>
			<path d="M149.333,383.167c-25.956,9.311-50.757,22.016-73.676,38.348l-5.693,4.764c44.162,46.132,105.62,75.507,173.863,77.607
				l-3.176-1.874C200.585,469.556,169.666,428.753,149.333,383.167z"/>
			<path d="M381.588,243.75h121.518c-2.065-60.373-25.47-115.4-62.924-157.774l-7.446,6.378
				c-23.413,16.02-48.657,28.524-75.012,37.758C372.407,165.761,380.53,204.178,381.588,243.75z"/>
			<path d="M341.101,135.495c-26.095,7.558-53.179,11.741-80.766,12.47v95.787h103.901
				C363.169,206.021,355.255,169.426,341.101,135.495z"/>
			<path d="M242.983,147.969c-27.587-0.738-54.671-4.912-80.757-12.47c-14.188,33.948-22.068,70.543-23.135,108.249h103.893V147.969
				z"/>
		</g>
	</g>
</g>
<g>
</g>
<g>
</g>
<g>
</g>
<g>
</g>
<g>
</g>
<g>
</g>
<g>
</g>
<g>
</g>
<g>
</g>
<g>
</g>
<g>
</g>
<g>
</g>
<g>
</g>
<g>
</g>
<g>
</g>
</svg>
