<?xml version="1.0" encoding="iso-8859-1"?>
<!-- Generator: Adobe Illustrator 19.0.0, SVG Export Plug-In . SVG Version: 6.00 Build 0)  -->
<svg version="1.1" id="Layer_1" xmlns="http://www.w3.org/2000/svg" xmlns:xlink="http://www.w3.org/1999/xlink" x="0px" y="0px"
	 viewBox="0 0 511.767 511.767" style="enable-background:new 0 0 511.767 511.767;" xml:space="preserve">
<g>
	<g>
		<g>
			<path d="M476.954,410.512c-3.732-35.64-33.436-63.627-69.025-63.627c-22.268,0-43.251,11.16-56.233,29.522
				c-2.534-0.434-5.094-0.66-7.663-0.66c-20.142,0-38.018,13.685-43.971,33.089c-16.549,9.806-27.041,28.125-27.041,47.755
				c0,30.416,24.168,55.174,53.873,55.174h93.496c0.547,0,1.076-0.035,1.493-0.069c0.538,0.035,1.076,0.069,1.631,0.069h37.393
				c27.986,0,50.757-23.318,50.757-51.972C511.665,437.232,497.416,417.506,476.954,410.512z"/>
			<path d="M350.553,113.205c25.262-8.721,49.456-20.61,71.88-35.909l5.745-4.92c-41.984-41.411-98.399-68.2-160.924-72.071
				l-3.072,2.933C301.262,33.68,330.524,71.247,350.553,113.205z"/>
			<path d="M260.224,22.705v106.913c25.088-0.712,49.716-4.452,73.511-11.134C316.145,82.392,291.308,49.824,260.224,22.705z"/>
			<path d="M242.868,22.688c-31.119,27.258-55.938,59.809-73.502,95.813c23.76,6.656,48.406,10.405,73.502,11.108V22.688z"/>
			<path d="M145.48,129.112c-26.355-9.233-51.591-21.738-75.012-37.758l-7.723-6.049C25.455,127.636,2.164,182.533,0.107,242.75
				h121.509C122.675,203.178,130.797,164.761,145.48,129.112z"/>
			<path d="M121.619,260.106H0.101c1.979,57.787,23.474,110.696,58.16,152.272l6.673-5.589
				c24.264-17.304,50.384-30.746,77.659-40.63C129.785,332.662,122.599,296.9,121.619,260.106z"/>
			<path d="M242.868,480.15V364.577c-26.364,0.738-52.207,4.816-77.078,12.141C183.519,415.846,209.597,451.122,242.868,480.15z"/>
			<path d="M242.868,260.106H138.975c0.981,34.885,7.854,68.773,20.072,100.508c27.049-8.157,55.148-12.635,83.82-13.399V260.106z"
				/>
			<path d="M152.528,113.23c20.324-42.6,50.124-80.705,88.012-111.39L242.475,0C177.182,2.326,118.146,29.601,74.669,72.617
				l6.049,4.738C103.037,92.62,127.214,104.509,152.528,113.23z"/>
			<path d="M149.218,382.167c-25.956,9.312-50.757,22.016-73.676,38.348l-5.693,4.764c44.162,46.132,105.62,75.507,173.863,77.607
				l-3.176-1.874C200.47,468.556,169.551,427.753,149.218,382.167z"/>
			<path d="M381.473,242.75h121.518c-2.065-60.373-25.47-115.4-62.924-157.774l-7.446,6.378
				c-23.413,16.02-48.657,28.524-75.012,37.758C372.292,164.761,380.415,203.178,381.473,242.75z"/>
			<path d="M340.986,134.495c-26.095,7.558-53.179,11.741-80.766,12.47v95.787h103.901
				C363.054,205.021,355.14,168.426,340.986,134.495z"/>
			<path d="M242.868,146.968c-27.587-0.738-54.671-4.912-80.757-12.47c-14.188,33.948-22.068,70.543-23.135,108.249h103.893V146.968
				z"/>
			<path d="M285.75,397.495c9.902-23.283,32.933-39.051,58.151-39.103c16.358-18.224,39.632-28.863,64.026-28.863
				c27.813,0,52.701,13.338,68.634,34.339c16.08-32.161,25.071-67.315,26.312-103.762H260.228v171.138
				C265.192,417.819,274.035,405.982,285.75,397.495z"/>
		</g>
	</g>
</g>
<g>
</g>
<g>
</g>
<g>
</g>
<g>
</g>
<g>
</g>
<g>
</g>
<g>
</g>
<g>
</g>
<g>
</g>
<g>
</g>
<g>
</g>
<g>
</g>
<g>
</g>
<g>
</g>
<g>
</g>
</svg>
