<?xml version="1.0" encoding="iso-8859-1"?>
<!-- Generator: Adobe Illustrator 19.0.0, SVG Export Plug-In . SVG Version: 6.00 Build 0)  -->
<svg version="1.1" id="Layer_1" xmlns="http://www.w3.org/2000/svg" xmlns:xlink="http://www.w3.org/1999/xlink" x="0px" y="0px"
	 viewBox="0 0 511.982 511.982" style="enable-background:new 0 0 511.982 511.982;" xml:space="preserve">
<g>
	<g>
		<g>
			<path d="M504.901,494.927c-16.964-2.927-28.083-15.812-27.426-25.907c0.29-12.655-9.438-20.813-19.755-27.196l16.512-16.512
				c1.596-1.596,2.5-3.772,2.5-6.033s-0.905-4.429-2.5-6.033L452.677,391.7l18.415-18.406c4.873-4.873,7.552-11.349,7.552-18.236
				c0-6.886-2.679-13.363-7.552-18.236L141.689,7.418c-9.762-9.737-26.743-9.737-36.463,0l-97.707,97.69
				c-10.027,10.052-10.027,26.411,0.009,36.463L336.94,470.983c4.872,4.864,11.349,7.552,18.236,7.552
				c6.886,0,13.363-2.688,18.227-7.56l18.415-18.406l21.547,21.547c1.664,1.664,3.849,2.5,6.033,2.5c2.185,0,4.369-0.836,6.033-2.5
				l19.866-19.866c7.578,4.395,15.232,9.429,15.13,14.029c-1.289,19.797,17.365,39.296,41.574,43.46
				c0.486,0.094,0.973,0.128,1.459,0.128c4.07,0,7.68-2.927,8.397-7.091C512.658,500.133,509.535,495.721,504.901,494.927z
				 M122.164,202.993c-2.185,0-4.369-0.836-6.033-2.5l-72.405-72.414c-1.604-1.596-2.5-3.772-2.5-6.033s0.896-4.429,2.5-6.033
				l72.405-72.405c3.337-3.328,8.73-3.328,12.066,0l72.405,72.405c1.604,1.604,2.5,3.772,2.5,6.033s-0.896,4.437-2.5,6.033
				l-72.405,72.414C126.533,202.157,124.349,202.993,122.164,202.993z M218.702,299.54c-2.261,0-4.429-0.905-6.033-2.5
				l-72.397-72.414c-3.337-3.328-3.337-8.73,0-12.066l72.397-72.405c3.2-3.2,8.866-3.2,12.066,0l72.414,72.405
				c3.328,3.337,3.328,8.738,0,12.066l-72.414,72.414C223.139,298.635,220.972,299.54,218.702,299.54z M315.257,396.077
				c-2.185,0-4.369-0.836-6.033-2.5l-72.405-72.405c-1.604-1.604-2.5-3.772-2.5-6.033c0-2.261,0.896-4.437,2.5-6.033l72.405-72.405
				c3.328-3.337,8.73-3.337,12.066,0l72.405,72.405c1.604,1.596,2.5,3.772,2.5,6.033c0,2.261-0.896,4.429-2.5,6.033l-72.405,72.405
				C319.626,395.241,317.441,396.077,315.257,396.077z M367.344,440.434c-1.596,1.604-3.763,2.5-6.033,2.5
				c-2.261,0-4.429-0.896-6.033-2.5l-22.562-22.562c-3.337-3.337-3.337-8.738,0-12.066l73.199-73.207c3.2-3.2,8.866-3.2,12.066,0
				l22.571,22.571c3.328,3.328,3.328,8.73,0,12.066L367.344,440.434z M419.397,456.015l-15.514-15.514l36.727-36.736l15.522,15.514
				L419.397,456.015z"/>
			<path d="M158.375,218.595l60.331,60.339l60.339-60.339l-60.339-60.339L158.375,218.595z M242.846,218.595l6.033-6.033
				c3.337-3.337,8.738-3.337,12.066,0c3.336,3.337,3.336,8.73,0,12.066l-6.033,6.033c-1.664,1.664-3.849,2.5-6.033,2.5
				c-2.185,0-4.369-0.836-6.033-2.5C239.51,227.325,239.51,221.932,242.846,218.595z M230.789,242.736
				c3.328,3.337,3.328,8.738-0.009,12.066l-6.042,6.033c-1.664,1.664-3.849,2.5-6.033,2.5c-2.185,0-4.378-0.836-6.042-2.509
				c-3.328-3.328-3.328-8.738,0.009-12.066l6.042-6.033C222.05,239.399,227.452,239.399,230.789,242.736z M218.705,218.595
				c-1.664,1.664-3.849,2.5-6.033,2.5c-2.185,0-4.369-0.836-6.033-2.5l-12.066-12.075c-3.337-3.328-3.337-8.73,0-12.066
				c3.328-3.328,8.73-3.328,12.066,0l12.066,12.075C222.042,209.865,222.042,215.267,218.705,218.595z"/>
			<path d="M254.917,315.136l60.339,60.339l60.339-60.339l-60.339-60.339L254.917,315.136z M339.388,315.136l6.033-6.033
				c3.337-3.337,8.738-3.328,12.066-0.009c3.337,3.337,3.337,8.738,0,12.075l-6.033,6.042c-1.664,1.664-3.849,2.5-6.033,2.5
				c-2.185,0-4.369-0.836-6.033-2.5C336.06,323.874,336.06,318.473,339.388,315.136z M327.322,339.277
				c3.337,3.328,3.337,8.73,0,12.066l-6.033,6.033c-1.664,1.664-3.849,2.5-6.033,2.5c-2.185,0-4.369-0.836-6.033-2.5
				c-3.337-3.337-3.337-8.738,0-12.066l6.033-6.033C318.592,335.94,323.985,335.94,327.322,339.277z M315.256,315.136
				c-1.664,1.664-3.849,2.5-6.033,2.5c-2.185,0-4.369-0.836-6.033-2.5l-12.075-12.066c-3.336-3.328-3.336-8.738,0-12.066
				c3.337-3.337,8.73-3.328,12.066-0.009l12.075,12.066C318.592,306.398,318.592,311.799,315.256,315.136z"/>
			<path d="M61.825,122.049l60.339,60.339l60.339-60.339L122.164,61.71L61.825,122.049z M146.305,122.049l6.033-6.033
				c3.337-3.337,8.738-3.328,12.066-0.009c3.337,3.337,3.337,8.738,0,12.075l-6.033,6.042c-1.664,1.664-3.849,2.5-6.033,2.5
				s-4.369-0.836-6.033-2.5C142.969,130.787,142.969,125.385,146.305,122.049z M134.23,146.19c3.337,3.328,3.337,8.73,0,12.066
				l-6.033,6.033c-1.664,1.664-3.849,2.5-6.033,2.5c-2.185,0-4.369-0.836-6.033-2.5c-3.337-3.337-3.337-8.738,0-12.066l6.033-6.033
				C125.501,142.853,130.894,142.853,134.23,146.19z M122.164,122.049c-1.664,1.664-3.849,2.5-6.033,2.5
				c-2.185,0-4.369-0.836-6.033-2.5l-12.066-12.066c-3.336-3.336-3.336-8.738,0-12.066c3.328-3.337,8.73-3.337,12.066,0
				l12.066,12.066C125.501,113.319,125.501,118.712,122.164,122.049z"/>
			<polygon points="350.814,411.837 361.31,422.333 422.451,361.2 411.947,350.695 			"/>
		</g>
	</g>
</g>
<g>
</g>
<g>
</g>
<g>
</g>
<g>
</g>
<g>
</g>
<g>
</g>
<g>
</g>
<g>
</g>
<g>
</g>
<g>
</g>
<g>
</g>
<g>
</g>
<g>
</g>
<g>
</g>
<g>
</g>
</svg>
