<?xml version="1.0" encoding="iso-8859-1"?>
<!-- Generator: Adobe Illustrator 19.0.0, SVG Export Plug-In . SVG Version: 6.00 Build 0)  -->
<svg version="1.1" id="Layer_1" xmlns="http://www.w3.org/2000/svg" xmlns:xlink="http://www.w3.org/1999/xlink" x="0px" y="0px"
	 viewBox="0 0 503.607 503.607" style="enable-background:new 0 0 503.607 503.607;" xml:space="preserve">
<g>
	<g>
		<path d="M386.098,486.82H276.984v-33.574h16.787c4.197,0,7.554-3.357,8.393-6.715l4.197-26.859H268.59
			c-5.036,0-8.393-3.357-8.393-8.393s3.357-8.393,8.393-8.393h40.289l2.518-16.787H268.59c-5.036,0-8.393-3.357-8.393-8.393
			c0-5.036,3.357-8.393,8.393-8.393h46.164l2.518-16.787h1.679c9.233,0,16.787-7.554,16.787-16.787v-16.787
			c0-5.875-2.518-10.911-7.554-14.269l15.108-94.846h0.839c9.233,0,16.787-7.554,16.787-16.787v-16.787
			c0-5.875-3.357-11.751-8.393-14.269v-52.879c0-5.036-3.357-8.393-8.393-8.393V33.574c0-14.269-10.911-25.18-25.18-25.18h-16.787
			c-5.036,0-8.393,3.357-8.393,8.393v83.934h-16.787V25.18c0-14.269-10.911-25.18-25.18-25.18c-14.269,0-25.18,10.911-25.18,25.18
			v75.541h-16.787V16.787c0-5.036-3.357-8.393-8.393-8.393c-23.502,0-41.967,18.466-41.967,41.967v50.361
			c-5.036,0-8.393,3.357-8.393,8.393v52.879c-5.036,2.518-8.393,8.393-8.393,14.269v16.787c0,9.233,7.554,16.787,16.787,16.787
			h0.839l15.108,94.846c-5.036,3.357-7.554,8.393-7.554,14.269v16.787c0,9.233,7.554,16.787,16.787,16.787h1.679l2.518,16.787
			h46.164c5.036,0,8.393,3.357,8.393,8.393c0,5.036-3.357,8.393-8.393,8.393H191.37l2.518,16.787h41.128
			c5.036,0,8.393,3.357,8.393,8.393s-3.357,8.393-8.393,8.393h-37.771l4.197,26.859c0.839,4.197,4.197,6.715,8.393,6.715h16.787
			v33.574H117.508c-5.036,0-8.393,3.357-8.393,8.393c0,5.036,3.357,8.393,8.393,8.393h117.508h33.574h117.508
			c5.036,0,8.393-3.357,8.393-8.393C394.492,491.016,391.134,486.82,386.098,486.82z M310.557,25.18h8.393
			c5.036,0,8.393,3.357,8.393,8.393v67.148h-16.787V25.18z M243.41,25.18c0-5.036,3.357-8.393,8.393-8.393
			c5.036,0,8.393,3.357,8.393,8.393v75.541H243.41V25.18z M176.262,50.361c0-10.911,6.715-20.144,16.787-23.502v73.862h-16.787
			V50.361z M167.03,193.049h-7.554v-16.787h184.656v16.787h-7.554H167.03z M193.049,335.738h-8.393v-16.787h134.295v16.787h-8.393
			H193.049z M260.197,486.82H243.41v-33.574h16.787V486.82z"/>
	</g>
</g>
<g>
</g>
<g>
</g>
<g>
</g>
<g>
</g>
<g>
</g>
<g>
</g>
<g>
</g>
<g>
</g>
<g>
</g>
<g>
</g>
<g>
</g>
<g>
</g>
<g>
</g>
<g>
</g>
<g>
</g>
</svg>
