<?xml version="1.0" encoding="iso-8859-1"?>
<!-- Generator: Adobe Illustrator 19.0.0, SVG Export Plug-In . SVG Version: 6.00 Build 0)  -->
<svg version="1.1" id="Layer_1" xmlns="http://www.w3.org/2000/svg" xmlns:xlink="http://www.w3.org/1999/xlink" x="0px" y="0px"
	 viewBox="0 0 503.716 503.716" style="enable-background:new 0 0 503.716 503.716;" xml:space="preserve">
<g>
	<g>
		<g>
			<rect x="134.345" y="50.364" width="50.361" height="8.393"/>
			<path d="M428.12,0h-33.574c-4.642,0-8.393,3.752-8.393,8.393v394.601c0,27.707-22.595,50.252-50.369,50.252l-100.713,0.109
				c-27.774,0-50.361-22.545-50.361-50.252v-17.005c9.258,0,16.787-7.529,16.787-16.787v-33.574h33.574
				c9.258,0,16.787-7.529,16.787-16.787V142.689c0-9.258-7.529-16.787-16.787-16.787h-8.393V25.18
				c0-13.883-11.298-25.18-25.18-25.18h-83.934c-13.891,0-25.18,11.298-25.18,25.18v100.721h-8.393
				c-9.266,0-16.787,7.529-16.787,16.787v176.262c0,9.258,7.521,16.787,16.787,16.787h33.574v33.574
				c0,9.258,7.521,16.787,16.787,16.787v17.005c0,55.481,45.182,100.612,100.721,100.612l100.721-0.109
				c55.531,0,100.721-45.14,100.721-100.612V8.393C436.514,3.752,432.753,0,428.12,0z M125.956,75.541
				c-4.642,0-8.393-3.752-8.393-8.393v-25.18c0-4.642,3.752-8.393,8.393-8.393h67.148c4.633,0,8.393,3.752,8.393,8.393v25.18
				c0,4.642-3.76,8.393-8.393,8.393H125.956z M142.743,369.311h-8.393v-33.574h50.361l0.008,33.574h-8.402H142.743z"/>
		</g>
	</g>
</g>
<g>
</g>
<g>
</g>
<g>
</g>
<g>
</g>
<g>
</g>
<g>
</g>
<g>
</g>
<g>
</g>
<g>
</g>
<g>
</g>
<g>
</g>
<g>
</g>
<g>
</g>
<g>
</g>
<g>
</g>
</svg>
