<?xml version="1.0" encoding="iso-8859-1"?>
<!-- Generator: Adobe Illustrator 19.0.0, SVG Export Plug-In . SVG Version: 6.00 Build 0)  -->
<svg version="1.1" id="Layer_1" xmlns="http://www.w3.org/2000/svg" xmlns:xlink="http://www.w3.org/1999/xlink" x="0px" y="0px"
	 viewBox="0 0 512 512" style="enable-background:new 0 0 512 512;" xml:space="preserve">
<g>
	<g>
		<path d="M366.933,310.46v-62.993c0-4.719-3.814-8.533-8.533-8.533V128c0-4.719-3.814-8.533-8.533-8.533
			c-23.526,0-42.667,19.14-42.667,42.667v9.011c0,6.579,1.562,13.184,4.497,19.081l4.036,8.055v6.519h-31.01l9.148-15.241
			c3.14-5.214,4.796-11.375,4.796-17.801V150.34c0-11.443-5.325-21.862-13.901-27.221c-0.998-0.623-2.108-0.956-3.166-1.425V25.6
			C281.6,11.486,270.114,0,256,0c-14.114,0-25.6,11.486-25.6,25.6v96.094c-1.067,0.469-2.176,0.802-3.183,1.434
			c-8.567,5.35-13.884,15.778-13.884,27.213v21.419c0,6.426,1.655,12.587,4.796,17.792l9.148,15.249h-31.01v-6.519l4.036-8.064
			c2.935-5.888,4.497-12.493,4.497-19.072v-9.011c0-23.526-19.14-42.667-42.667-42.667c-4.719,0-8.533,3.814-8.533,8.533v110.933
			c-4.719,0-8.533,3.814-8.533,8.533v62.993c-5.248,5.999-8.533,13.756-8.533,22.34v170.667c0,4.719,3.814,8.533,8.533,8.533h51.2
			H230.4h51.2h34.133h51.2c4.719,0,8.533-3.814,8.533-8.533V332.8C375.467,324.215,372.181,316.459,366.933,310.46z M247.467,25.6
			c0-4.71,3.823-8.533,8.533-8.533c4.71,0,8.533,3.823,8.533,8.533v93.867h-17.067V25.6z M349.867,299.776
			c-0.299-0.077-0.606-0.111-0.905-0.179c-0.555-0.128-1.101-0.23-1.664-0.324c-1.963-0.358-3.951-0.606-5.965-0.606
			c-18.825,0-34.133,15.309-34.133,34.133v162.133h-17.067V332.8c0-18.825-15.309-34.133-34.133-34.133
			s-34.133,15.309-34.133,34.133v162.133H204.8V332.8c0-18.825-15.309-34.133-34.133-34.133c-2.014,0-4.002,0.247-5.965,0.606
			c-0.563,0.094-1.109,0.196-1.664,0.324c-0.299,0.068-0.606,0.102-0.905,0.179V256h187.733V299.776z"/>
	</g>
</g>
<g>
</g>
<g>
</g>
<g>
</g>
<g>
</g>
<g>
</g>
<g>
</g>
<g>
</g>
<g>
</g>
<g>
</g>
<g>
</g>
<g>
</g>
<g>
</g>
<g>
</g>
<g>
</g>
<g>
</g>
</svg>
