<?xml version="1.0" encoding="iso-8859-1"?>
<!-- Generator: Adobe Illustrator 19.0.0, SVG Export Plug-In . SVG Version: 6.00 Build 0)  -->
<svg version="1.1" id="Layer_1" xmlns="http://www.w3.org/2000/svg" xmlns:xlink="http://www.w3.org/1999/xlink" x="0px" y="0px"
	 viewBox="0 0 512 512" style="enable-background:new 0 0 512 512;" xml:space="preserve">
<g>
	<g>
		<g>
			<path d="M187.733,435.2h136.533V298.667H187.733V435.2z M273.067,401.067h25.6c4.71,0,8.533,3.823,8.533,8.533
				s-3.823,8.533-8.533,8.533h-25.6c-4.71,0-8.533-3.823-8.533-8.533S268.356,401.067,273.067,401.067z M247.467,324.267
				c0-4.71,3.823-8.533,8.533-8.533s8.533,3.823,8.533,8.533V358.4c0,4.71-3.823,8.533-8.533,8.533s-8.533-3.823-8.533-8.533
				V324.267z M213.333,401.067h25.6c4.71,0,8.533,3.823,8.533,8.533s-3.823,8.533-8.533,8.533h-25.6
				c-4.71,0-8.533-3.823-8.533-8.533S208.623,401.067,213.333,401.067z"/>
			<path d="M358.4,0H153.6c-23.526,0-42.667,19.14-42.667,42.667v426.667c0,23.526,19.14,42.667,42.667,42.667h204.8
				c23.526,0,42.667-19.14,42.667-42.667V42.667C401.067,19.14,381.926,0,358.4,0z M153.6,477.867c-4.71,0-8.533-3.823-8.533-8.533
				s3.823-8.533,8.533-8.533s8.533,3.823,8.533,8.533S158.31,477.867,153.6,477.867z M153.6,51.2c-4.71,0-8.533-3.823-8.533-8.533
				s3.823-8.533,8.533-8.533s8.533,3.823,8.533,8.533S158.31,51.2,153.6,51.2z M341.333,443.733c0,4.71-3.823,8.533-8.533,8.533
				H179.2c-4.71,0-8.533-3.823-8.533-8.533v-153.6c0-4.71,3.823-8.533,8.533-8.533h153.6c4.71,0,8.533,3.823,8.533,8.533V443.733z
				 M341.333,221.867c0,4.71-3.823,8.533-8.533,8.533H179.2c-4.71,0-8.533-3.823-8.533-8.533v-153.6c0-4.71,3.823-8.533,8.533-8.533
				h153.6c4.71,0,8.533,3.823,8.533,8.533V221.867z M358.4,477.867c-4.71,0-8.533-3.823-8.533-8.533s3.823-8.533,8.533-8.533
				c4.71,0,8.533,3.823,8.533,8.533S363.11,477.867,358.4,477.867z M358.4,51.2c-4.71,0-8.533-3.823-8.533-8.533
				s3.823-8.533,8.533-8.533c4.71,0,8.533,3.823,8.533,8.533S363.11,51.2,358.4,51.2z"/>
			<path d="M187.733,213.333h136.533V76.8H187.733V213.333z M273.067,179.2h25.6c4.71,0,8.533,3.823,8.533,8.533
				s-3.823,8.533-8.533,8.533h-25.6c-4.71,0-8.533-3.823-8.533-8.533S268.356,179.2,273.067,179.2z M247.467,102.4
				c0-4.71,3.823-8.533,8.533-8.533s8.533,3.823,8.533,8.533v34.133c0,4.71-3.823,8.533-8.533,8.533s-8.533-3.823-8.533-8.533V102.4
				z M213.333,179.2h25.6c4.71,0,8.533,3.823,8.533,8.533s-3.823,8.533-8.533,8.533h-25.6c-4.71,0-8.533-3.823-8.533-8.533
				S208.623,179.2,213.333,179.2z"/>
		</g>
	</g>
</g>
<g>
</g>
<g>
</g>
<g>
</g>
<g>
</g>
<g>
</g>
<g>
</g>
<g>
</g>
<g>
</g>
<g>
</g>
<g>
</g>
<g>
</g>
<g>
</g>
<g>
</g>
<g>
</g>
<g>
</g>
</svg>
