<?xml version="1.0" encoding="iso-8859-1"?>
<!-- Generator: Adobe Illustrator 19.0.0, SVG Export Plug-In . SVG Version: 6.00 Build 0)  -->
<svg version="1.1" id="Layer_1" xmlns="http://www.w3.org/2000/svg" xmlns:xlink="http://www.w3.org/1999/xlink" x="0px" y="0px"
	 viewBox="0 0 512 512" style="enable-background:new 0 0 512 512;" xml:space="preserve">
<g>
	<g>
		<path d="M443.733,0H409.6c-5.12,0-8.533,3.413-8.533,8.533V409.6c0,28.16-23.04,51.2-51.2,51.2h-128
			c-28.16,0-51.2-23.04-51.2-51.2c9.387,0,17.067-7.68,17.067-17.067v-17.067c5.12,0,8.533-3.413,8.533-8.533
			s-3.413-8.533-8.533-8.533v-18.773c20.48-7.68,42.667-40.96,42.667-75.093V93.867c0-5.12-3.413-8.533-8.533-8.533h-25.6V17.067
			C196.267,7.68,188.587,0,179.2,0h-68.267c-9.387,0-17.067,7.68-17.067,17.067v68.267h-25.6c-5.12,0-8.533,3.413-8.533,8.533
			v170.667c0,34.133,22.187,67.413,42.667,75.093V358.4c-5.12,0-8.533,3.413-8.533,8.533s3.413,8.533,8.533,8.533v17.067
			c0,9.387,7.68,17.067,17.067,17.067c0,56.32,46.08,102.4,102.4,102.4h128c56.32,0,102.4-46.08,102.4-102.4V8.533
			C452.267,4.267,448.853,0,443.733,0z M170.667,358.4h-51.2v-17.067h51.2V358.4z M110.933,17.067H179.2v68.267h-68.267V17.067z
			 M102.4,204.8h85.333c5.12,0,8.533,3.413,8.533,8.533c0,5.12-3.413,8.533-8.533,8.533H102.4c-5.12,0-8.533-3.413-8.533-8.533
			C93.867,208.213,97.28,204.8,102.4,204.8z M102.4,238.933h85.333c5.12,0,8.533,3.413,8.533,8.533S192.853,256,187.733,256H102.4
			c-5.12,0-8.533-3.413-8.533-8.533S97.28,238.933,102.4,238.933z M102.4,290.133c-5.12,0-8.533-3.413-8.533-8.533
			s3.413-8.533,8.533-8.533h85.333c5.12,0,8.533,3.413,8.533,8.533s-3.413,8.533-8.533,8.533H102.4z M128,392.533h-8.533v-17.067
			h51.2v17.067h-8.533H128z"/>
	</g>
</g>
<g>
</g>
<g>
</g>
<g>
</g>
<g>
</g>
<g>
</g>
<g>
</g>
<g>
</g>
<g>
</g>
<g>
</g>
<g>
</g>
<g>
</g>
<g>
</g>
<g>
</g>
<g>
</g>
<g>
</g>
</svg>
