<?xml version="1.0" encoding="iso-8859-1"?>
<!-- Generator: Adobe Illustrator 19.0.0, SVG Export Plug-In . SVG Version: 6.00 Build 0)  -->
<svg version="1.1" id="Layer_1" xmlns="http://www.w3.org/2000/svg" xmlns:xlink="http://www.w3.org/1999/xlink" x="0px" y="0px"
	 viewBox="0 0 512.003 512.003" style="enable-background:new 0 0 512.003 512.003;" xml:space="preserve">
<g>
	<g>
		<g>
			<path d="M509.502,473.583l-33.237-33.246l11.853-11.853c3.337-3.337,3.337-8.738,0-12.066l-26.249-26.257l23.782-23.782
				c2.765-2.765,3.294-7.066,1.28-10.419l-35.772-59.631c-0.358-0.597-0.794-1.143-1.289-1.638L336.574,181.393
				c-6.613-6.622-17.374-6.622-23.987,0l-5.897,5.888l-47.565-47.556c-6.434-6.443-17.681-6.46-24.132,0l-95.258,95.258
				c-3.234,3.217-5.009,7.501-5.009,12.058c-0.009,4.565,1.766,8.858,5,12.083l47.556,47.556l-5.897,5.905
				c-6.596,6.605-6.596,17.374,0.009,23.987l113.297,113.297c0.486,0.486,1.041,0.922,1.638,1.28l59.631,35.78
				c1.365,0.819,2.884,1.22,4.395,1.22c2.202,0,4.386-0.862,6.033-2.5l23.782-23.782l26.249,26.249c1.664,1.664,3.849,2.5,6.033,2.5
				s4.369-0.836,6.033-2.5l11.861-11.861l33.237,33.246c1.664,1.664,3.849,2.5,6.033,2.5c2.185,0,4.361-0.836,6.033-2.5
				l23.851-23.851c1.604-1.596,2.5-3.763,2.5-6.033C512.003,477.347,511.107,475.179,509.502,473.583z M151.794,247.057
				l95.266-95.266l47.565,47.556L247,246.972l-47.65,47.642L151.794,247.057z M235.13,339.072c-2.185,0-4.361-0.828-6.033-2.5
				c-3.328-3.328-3.328-8.73,0-12.066l95.411-95.403c3.337-3.337,8.73-3.337,12.066,0c3.337,3.328,3.337,8.73,0,12.066
				l-95.411,95.403C239.499,338.245,237.315,339.072,235.13,339.072z M258.989,362.923c-2.185,0-4.369-0.828-6.033-2.5
				c-3.337-3.328-3.337-8.73,0-12.066l95.403-95.403c3.337-3.337,8.738-3.337,12.066,0c3.337,3.328,3.337,8.73,0,12.066
				l-95.403,95.403C263.35,362.095,261.174,362.923,258.989,362.923z M288.873,384.274c-1.673,1.664-3.849,2.5-6.033,2.5
				c-2.185,0-4.369-0.836-6.033-2.5c-3.336-3.328-3.336-8.73,0-12.066l95.403-95.411c3.336-3.328,8.738-3.328,12.066,0
				c3.337,3.337,3.337,8.738,0,12.066L288.873,384.274z M306.691,410.624c-2.185,0-4.369-0.836-6.033-2.5
				c-3.337-3.337-3.337-8.73,0-12.066l95.411-95.411c3.328-3.328,8.73-3.328,12.066,0c3.328,3.337,3.328,8.738,0,12.066
				l-95.411,95.411C311.06,409.788,308.875,410.624,306.691,410.624z M336.574,431.983c-1.664,1.664-3.849,2.5-6.033,2.5
				s-4.369-0.836-6.033-2.5c-3.336-3.337-3.336-8.73,0-12.066l95.411-95.411c3.328-3.328,8.73-3.328,12.066,0
				c3.328,3.337,3.328,8.738,0,12.066L336.574,431.983z M458.166,434.304l-23.851,23.851l-11.861,11.861l-20.215-20.216
				l23.782-23.782l23.782-23.782l20.215,20.215L458.166,434.304z"/>
			<path d="M241.092,85.911l-71.407-71.415c-6.443-6.434-17.69-6.451-24.141,0l-29.67,29.679L91.366,19.667
				c-1.596-1.604-3.763-2.5-6.033-2.5c-2.261,0-4.429,0.896-6.033,2.5L67.447,31.52L38.426,2.498c-3.337-3.328-8.738-3.328-12.066,0
				L2.5,26.349C0.905,27.953,0,30.121,0,32.382c0,2.27,0.905,4.437,2.5,6.033l29.03,29.03L19.678,79.298
				c-3.337,3.337-3.337,8.738,0,12.066l24.499,24.499l-29.679,29.679c-6.656,6.647-6.656,17.485,0,24.132l71.415,71.415
				c3.328,3.328,7.697,4.992,12.066,4.992c4.378,0,8.747-1.664,12.066-4.992l131.046-131.038
				C247.757,103.388,247.757,92.567,241.092,85.911z M37.777,85.331l23.782-23.782l11.921-11.921l0.009-0.009l11.844-11.853
				l18.466,18.475L80.026,80.023l-23.782,23.774L37.777,85.331z M145.758,86.125l-59.631,59.622c-1.664,1.672-3.849,2.5-6.033,2.5
				s-4.369-0.828-6.033-2.5c-3.328-3.328-3.328-8.73,0-12.066l59.631-59.622c3.336-3.337,8.73-3.337,12.066,0
				C149.094,77.395,149.094,82.788,145.758,86.125z"/>
		</g>
	</g>
</g>
<g>
</g>
<g>
</g>
<g>
</g>
<g>
</g>
<g>
</g>
<g>
</g>
<g>
</g>
<g>
</g>
<g>
</g>
<g>
</g>
<g>
</g>
<g>
</g>
<g>
</g>
<g>
</g>
<g>
</g>
</svg>
