<?xml version="1.0" encoding="iso-8859-1"?>
<!-- Generator: Adobe Illustrator 19.0.0, SVG Export Plug-In . SVG Version: 6.00 Build 0)  -->
<svg version="1.1" id="Layer_1" xmlns="http://www.w3.org/2000/svg" xmlns:xlink="http://www.w3.org/1999/xlink" x="0px" y="0px"
	 viewBox="0 0 512 512" style="enable-background:new 0 0 512 512;" xml:space="preserve">
<g>
	<g>
		<g>
			<path d="M324.259,273.289c-4.719,0-8.533,3.823-8.533,8.533c0,23.885-7.834,34.091-14.737,43.085
				c-3.78,4.924-7.612,9.984-9.549,16.427h-2.031c-0.623-11.529,0.998-19.371,2.475-26.368c2.261-10.641,4.395-20.693-2.458-36.531
				c-1.869-4.309-6.895-6.332-11.213-4.446c-4.335,1.877-6.323,6.895-4.454,11.23c4.693,10.837,3.465,16.623,1.434,26.206
				c-1.604,7.552-3.473,16.674-2.859,29.909h-3.439c-5.001-7.765-4.745-14.242-4.378-22.818c0.461-10.786,1.033-24.218-9.865-41.284
				c-2.534-3.977-7.808-5.129-11.785-2.594c-3.977,2.526-5.137,7.808-2.603,11.776c8.004,12.535,7.629,21.274,7.194,31.377
				c-0.427,10.163-0.785,21.623,8.533,34.773v57.259c0,28.109-22.963,50.978-51.2,50.978h-25.6c-28.228,0-51.2-22.869-51.2-50.995
				l-0.034-17.271h0.043c9.412,0,17.067-7.646,17.067-17.05l0.043-34.15h33.459c8.747,0,16.896-4.326,21.803-11.563
				c4.907-7.245,5.896-16.418,2.637-24.559l-0.691-1.741c-3.985-9.933-5.999-20.403-5.999-31.121V119.467
				c0-9.412-7.654-17.067-17.067-17.067h-8.533V8.533c0-4.719-3.814-8.533-8.533-8.533H42.718C38,0,34.185,3.814,34.185,8.533V102.4
				h-8.533c-9.412,0-17.067,7.654-17.067,17.067V272.35c0,10.709-2.014,21.18-5.982,31.121l-0.708,1.758
				c-3.251,8.124-2.261,17.297,2.645,24.542c4.907,7.236,13.056,11.563,21.803,11.563h33.434l-0.043,34.125
				c0,9.412,7.654,17.075,17.058,17.075v17.289c0,56.346,45.935,102.178,102.4,102.178h25.6c56.465,0,102.4-45.935,102.4-102.4
				v-59.511c0-5.018,2.509-8.525,7.33-14.78c7.706-10.052,18.27-23.799,18.27-53.487
				C332.792,277.111,328.978,273.289,324.259,273.289z M119.519,34.133c0-4.719,3.814-8.533,8.533-8.533
				c4.719,0,8.533,3.814,8.533,8.533v34.133c0,4.719-3.814,8.533-8.533,8.533c-4.719,0-8.533-3.814-8.533-8.533V34.133z
				 M68.319,68.267V34.133c0-4.719,3.814-8.533,8.533-8.533s8.533,3.814,8.533,8.533v34.133c0,4.719-3.814,8.533-8.533,8.533
				S68.319,72.986,68.319,68.267z M85.325,375.467h-8.525l0.043-34.133h51.2l-0.034,34.133h-8.61H85.325z"/>
			<path d="M409.593,0h-42.667c-56.465,0-102.4,45.935-102.4,102.4v68.267c0,5.018-2.509,8.525-7.322,14.78
				c-7.714,10.052-18.278,23.799-18.278,53.487c0,4.719,3.814,8.533,8.533,8.533s8.533-3.814,8.533-8.533
				c0-23.885,7.834-34.082,14.746-43.085c3.823-4.975,7.697-10.095,9.617-16.649h1.954c0.623,11.546-0.99,19.422-2.475,26.47
				c-2.261,10.692-4.395,20.804,2.458,36.642c1.391,3.226,4.531,5.154,7.842,5.154c1.126,0,2.278-0.222,3.371-0.7
				c4.335-1.877,6.323-6.895,4.454-11.213c-4.702-10.871-3.464-16.708-1.425-26.368c1.596-7.586,3.473-16.751,2.859-29.986h3.413
				c5.026,7.782,4.762,14.31,4.395,22.938c-0.461,10.837-1.033,24.32,9.865,41.387c1.63,2.551,4.386,3.942,7.202,3.942
				c1.579,0,3.157-0.435,4.582-1.34c3.977-2.534,5.137-7.808,2.603-11.785c-8.004-12.535-7.629-21.308-7.194-31.479
				c0.435-10.206,0.802-21.717-8.533-34.867V102.4c0-28.237,22.963-51.2,51.2-51.2h42.667c28.237,0,51.2,22.963,51.2,51.2v401.067
				c0,4.719,3.814,8.533,8.533,8.533h34.133c4.719,0,8.533-3.814,8.533-8.533V102.4C511.993,45.935,466.058,0,409.593,0z"/>
		</g>
	</g>
</g>
<g>
</g>
<g>
</g>
<g>
</g>
<g>
</g>
<g>
</g>
<g>
</g>
<g>
</g>
<g>
</g>
<g>
</g>
<g>
</g>
<g>
</g>
<g>
</g>
<g>
</g>
<g>
</g>
<g>
</g>
</svg>
