<?xml version="1.0" encoding="iso-8859-1"?>
<!-- Generator: Adobe Illustrator 19.0.0, SVG Export Plug-In . SVG Version: 6.00 Build 0)  -->
<svg version="1.1" id="Layer_1" xmlns="http://www.w3.org/2000/svg" xmlns:xlink="http://www.w3.org/1999/xlink" x="0px" y="0px"
	 viewBox="0 0 512.026 512.026" style="enable-background:new 0 0 512.026 512.026;" xml:space="preserve">
<g transform="translate(-1)">
	<g>
		<g>
			<path d="M495.959,136.546v-128c0-4.719-3.814-8.533-8.533-8.533H316.759c-4.719,0-8.533,3.814-8.533,8.533v128
				c-9.404,0-17.067,7.654-17.067,17.067V324.28c0,9.412,7.663,17.067,17.067,17.067h51.2v34.133
				c0,9.412,7.663,17.067,17.067,17.067v17.067c0,28.237-22.963,51.2-51.2,51.2H205.826c-28.237,0-51.2-22.921-51.2-51.089v-17.178
				c9.412,0,17.067-7.654,17.067-17.067v-34.133h1.98c13.013,0,23.595-10.505,23.595-23.424v-14.643
				c0-11.58,9.566-21.001,21.333-21.001c21.18,0,38.4-17.075,38.4-38.067V133.858c0-17.34-14.217-31.445-31.693-31.445h-10.974
				v-85.35c0-9.404-7.646-17.05-17.05-17.05h-42.658v34.133c0,4.719-3.814,8.533-8.533,8.533h-25.6v8.533h25.6
				c4.719,0,8.533,3.814,8.533,8.533v25.6c0,4.719-3.814,8.533-8.533,8.533h-25.6v8.533h-17.067V85.346
				c0-4.719,3.814-8.533,8.533-8.533h25.6v-8.533h-25.6c-4.719,0-8.533-3.814-8.533-8.533v-25.6c0-4.719,3.814-8.533,8.533-8.533
				h25.6v-25.6H60.716c-9.395,0-17.05,7.646-17.05,17.05v85.35H32.701C15.217,102.413,1,116.518,1,133.858v110.353
				c0,20.992,17.229,38.067,38.4,38.067c11.767,0,21.333,9.421,21.333,21.001v14.643c0,12.919,10.581,23.424,23.595,23.424h2.031
				v34.133c0,9.412,7.663,17.067,17.067,17.067v17.178c0,56.397,45.935,102.289,102.4,102.289h119.467
				c56.465,0,102.4-45.935,102.4-102.4v-17.067c9.412,0,17.067-7.654,17.067-17.067v-34.133h51.2
				c9.412,0,17.067-7.654,17.067-17.067V153.613C513.026,144.201,505.371,136.546,495.959,136.546z M111.959,375.48h-8.533v-34.133
				h51.2l0.017,34.133h-8.55H111.959z M350.892,102.413c-4.719,0-8.533-3.814-8.533-8.533V59.746c0-4.719,3.814-8.533,8.533-8.533
				h34.133c4.719,0,8.533,3.814,8.533,8.533v34.133c0,4.719-3.814,8.533-8.533,8.533H350.892z M419.159,375.48h-34.133h-8.533
				v-34.133h51.2l0.017,34.133H419.159z M461.826,93.879c0,4.719-3.814,8.533-8.533,8.533h-34.133c-4.719,0-8.533-3.814-8.533-8.533
				V59.746c0-4.719,3.814-8.533,8.533-8.533h34.133c4.719,0,8.533,3.814,8.533,8.533V93.879z"/>
			<rect x="359.426" y="68.283" width="17.067" height="17.067"/>
			<rect x="427.692" y="68.283" width="17.067" height="17.067"/>
		</g>
	</g>
</g>
<g>
</g>
<g>
</g>
<g>
</g>
<g>
</g>
<g>
</g>
<g>
</g>
<g>
</g>
<g>
</g>
<g>
</g>
<g>
</g>
<g>
</g>
<g>
</g>
<g>
</g>
<g>
</g>
<g>
</g>
</svg>
