<?xml version="1.0" encoding="iso-8859-1"?>
<!-- Generator: Adobe Illustrator 19.0.0, SVG Export Plug-In . SVG Version: 6.00 Build 0)  -->
<svg version="1.1" id="Layer_1" xmlns="http://www.w3.org/2000/svg" xmlns:xlink="http://www.w3.org/1999/xlink" x="0px" y="0px"
	 viewBox="0 0 512.853 512.853" style="enable-background:new 0 0 512.853 512.853;" xml:space="preserve">
<g>
	<g>
		<path d="M256.427,0c-28.16,0-51.2,23.04-51.2,51.2c0,28.16,23.04,51.2,51.2,51.2c28.16,0,51.2-23.04,51.2-51.2
			C307.627,23.04,284.587,0,256.427,0z M256.427,68.267c-9.387,0-17.067-7.68-17.067-17.067s7.68-17.067,17.067-17.067
			s17.067,7.68,17.067,17.067S265.813,68.267,256.427,68.267z"/>
	</g>
</g>
<g>
	<g>
		<path d="M299.093,298.667V204.8c0,0,0,0,0-0.853s0-1.707-0.853-2.56c0,0,0,0,0-0.853s-0.853-1.707-1.707-2.56
			c-10.24-11.093-10.24-19.627,0-31.573c0,0,0-0.853,0.853-0.853l0.853-0.853v-0.853v-0.853v-0.853c0-0.853,0-0.853,0-1.707v-0.853
			c0-0.853,0-0.853,0-1.707c0,0,0,0,0-0.853v-0.853l-17.067-34.133c-2.56-0.853-5.12-2.56-7.68-2.56H239.36
			c-2.56,0-5.12,1.707-6.827,3.413l-17.067,34.133v0.853c0,0,0,0,0,0.853c0,0,0,0.853,0,1.707v0.853
			c-1.707,0.853-1.707,0.853-1.707,1.707v0.853c0,0.853,0,0.853,0,0.853v0.853l0.853,0.853c0,0,0,0.853,0.853,0.853
			c10.24,11.093,10.24,19.627,0,31.573c-0.853,0.853-0.853,1.707-1.707,2.56c0,0,0,0,0,0.853c0,0.853,0,1.707,0,2.56
			c0,0,0,0,0,0.853v93.867c-5.12,0-8.533,3.413-8.533,8.533V453.12c0,5.12,3.413,8.533,8.533,8.533v34.133
			c0,9.387,7.68,17.067,17.067,17.067h51.2c9.387,0,17.067-7.68,17.067-17.067v-34.133c5.12,0,8.533-3.413,8.533-8.533V307.2
			C307.627,302.933,304.213,298.667,299.093,298.667z M243.627,136.533h24.747l5.973,17.067h-35.84L243.627,136.533z
			 M282.027,494.933h-51.2V460.8h51.2V494.933z M282.027,298.667h-51.2v-51.2h51.2V298.667z M282.027,230.4h-51.2v-17.067h51.2
			V230.4z"/>
	</g>
</g>
<g>
</g>
<g>
</g>
<g>
</g>
<g>
</g>
<g>
</g>
<g>
</g>
<g>
</g>
<g>
</g>
<g>
</g>
<g>
</g>
<g>
</g>
<g>
</g>
<g>
</g>
<g>
</g>
<g>
</g>
</svg>
