<?xml version="1.0" encoding="iso-8859-1"?>
<!-- Generator: Adobe Illustrator 19.0.0, SVG Export Plug-In . SVG Version: 6.00 Build 0)  -->
<svg version="1.1" id="Layer_1" xmlns="http://www.w3.org/2000/svg" xmlns:xlink="http://www.w3.org/1999/xlink" x="0px" y="0px"
	 viewBox="0 0 512 512" style="enable-background:new 0 0 512 512;" xml:space="preserve">
<g>
	<g>
		<g>
			<path d="M418.133,112.503v-27.17c0-14.114-11.486-25.6-25.6-25.6c-14.123,0-25.6,11.486-25.6,25.6v25.6h-17.067v-25.6
				c0-14.114-11.486-25.6-25.6-25.6c-14.123,0-25.6,11.486-25.6,25.6v27.17c-9.916,3.541-17.067,12.919-17.067,24.03
				c0,11.426,7.578,21.018,17.937,24.303l9.199,76.049c0.648,9.89,5.743,18.372,13.022,23.253l2.705,30.746
				c0.384,4.403,4.07,7.782,8.499,7.782h16.956v167.432c0,15.633-13.542,28.834-29.585,28.834H208.085
				c-15.898,0-28.834-12.937-28.834-28.834V460.8h59.793c14.123,0,25.6-11.486,25.6-25.6V25.6c0-14.114-11.477-25.6-25.6-25.6H102.4
				C88.277,0,76.8,11.486,76.8,25.6v409.6c0,14.114,11.477,25.6,25.6,25.6h59.785v5.299c0,25.31,20.599,45.901,45.901,45.901
				h112.248c25.728,0,46.652-20.591,46.652-45.901V298.667h17.067c4.429,0,8.115-3.379,8.508-7.782l2.5-28.476
				c9.395-4.13,16.29-13.858,17.05-25.455l5.581-76.254c10.138-3.413,17.51-12.894,17.51-24.166
				C435.2,125.423,428.041,116.045,418.133,112.503z M170.718,34.133c32.939,0,59.733,26.795,59.733,59.733
				S203.657,153.6,170.718,153.6c-32.93,0-59.733-26.795-59.733-59.733S137.788,34.133,170.718,34.133z M170.718,170.667
				c32.939,0,59.733,26.795,59.733,59.733s-26.795,59.733-59.733,59.733c-32.93,0-59.733-26.795-59.733-59.733
				S137.788,170.667,170.718,170.667z M170.718,426.667c-32.93,0-59.733-26.795-59.733-59.733c0-32.939,26.803-59.733,59.733-59.733
				c32.939,0,59.733,26.795,59.733,59.733C230.451,399.872,203.657,426.667,170.718,426.667z M395.076,235.776
				c-0.418,6.468-4.736,11.511-9.856,11.648c-0.12,0.017-0.273,0.034-0.333,0.043h-49.058c-5.214,0-9.634-5.128-10.103-12.16
				l-8.849-73.173h12.467v21.333c0,16.469,13.406,29.867,29.867,29.867c16.469,0,29.867-13.397,29.867-29.867v-21.333h11.392
				L395.076,235.776z M409.6,145.067h-29.056h-42.667h-30.626H307.2c-4.71,0-8.533-3.831-8.533-8.533
				c0-4.702,3.823-8.533,8.533-8.533h34.133h34.133H409.6c4.702,0,8.533,3.831,8.533,8.533
				C418.133,141.235,414.302,145.067,409.6,145.067z"/>
			<path d="M179.256,325.129v7.672c0,4.71-3.823,8.533-8.533,8.533s-8.533-3.823-8.533-8.533v-7.672
				c-19.447,3.968-34.133,21.197-34.133,41.805c0,20.608,14.686,37.837,34.133,41.805v-7.671c0-4.71,3.823-8.533,8.533-8.533
				s8.533,3.823,8.533,8.533v7.671c19.448-3.968,34.133-21.197,34.133-41.805C213.39,346.326,198.704,329.097,179.256,325.129z
				 M153.656,375.468c-4.71,0-8.533-3.823-8.533-8.533c0-4.71,3.823-8.533,8.533-8.533s8.533,3.823,8.533,8.533
				C162.19,371.645,158.367,375.468,153.656,375.468z M187.79,375.468c-4.71,0-8.533-3.823-8.533-8.533
				c0-4.71,3.823-8.533,8.533-8.533c4.71,0,8.533,3.823,8.533,8.533C196.323,371.645,192.5,375.468,187.79,375.468z"/>
			<path d="M162.19,272.206v-7.671c0-4.71,3.823-8.533,8.533-8.533s8.533,3.823,8.533,8.533v7.671
				c19.448-3.968,34.133-21.197,34.133-41.805c0-20.608-14.686-37.837-34.133-41.805v7.671c0,4.71-3.823,8.533-8.533,8.533
				s-8.533-3.823-8.533-8.533v-7.671c-19.447,3.968-34.133,21.197-34.133,41.805C128.056,251.009,142.742,268.238,162.19,272.206z
				 M187.79,221.868c4.71,0,8.533,3.823,8.533,8.533s-3.823,8.533-8.533,8.533c-4.71,0-8.533-3.823-8.533-8.533
				S183.079,221.868,187.79,221.868z M153.656,221.868c4.71,0,8.533,3.823,8.533,8.533s-3.823,8.533-8.533,8.533
				s-8.533-3.823-8.533-8.533S148.946,221.868,153.656,221.868z"/>
			<path d="M162.19,135.672v-7.672c0-4.71,3.823-8.533,8.533-8.533s8.533,3.823,8.533,8.533v7.672
				c19.448-3.968,34.133-21.197,34.133-41.805c0-20.608-14.686-37.837-34.133-41.805v7.671c0,4.71-3.823,8.533-8.533,8.533
				s-8.533-3.823-8.533-8.533v-7.671c-19.447,3.968-34.133,21.197-34.133,41.805C128.056,114.476,142.742,131.704,162.19,135.672z
				 M187.79,85.334c4.71,0,8.533,3.823,8.533,8.533s-3.823,8.533-8.533,8.533c-4.71,0-8.533-3.823-8.533-8.533
				S183.079,85.334,187.79,85.334z M153.656,85.334c4.71,0,8.533,3.823,8.533,8.533s-3.823,8.533-8.533,8.533
				s-8.533-3.823-8.533-8.533S148.946,85.334,153.656,85.334z"/>
		</g>
	</g>
</g>
<g>
</g>
<g>
</g>
<g>
</g>
<g>
</g>
<g>
</g>
<g>
</g>
<g>
</g>
<g>
</g>
<g>
</g>
<g>
</g>
<g>
</g>
<g>
</g>
<g>
</g>
<g>
</g>
<g>
</g>
</svg>
