<?xml version="1.0" encoding="iso-8859-1"?>
<!-- Generator: Adobe Illustrator 19.0.0, SVG Export Plug-In . SVG Version: 6.00 Build 0)  -->
<svg version="1.1" id="Layer_1" xmlns="http://www.w3.org/2000/svg" xmlns:xlink="http://www.w3.org/1999/xlink" x="0px" y="0px"
	 viewBox="0 0 512 512" style="enable-background:new 0 0 512 512;" xml:space="preserve">
<g transform="translate(-1)">
	<g>
		<g>
			<path d="M353.294,238.933h-10.974v-85.35c0-9.404-7.646-17.05-17.05-17.05h-42.658v34.133c0,4.719-3.814,8.533-8.533,8.533h-25.6
				v8.533h25.6c4.719,0,8.533,3.814,8.533,8.533v25.6c0,4.719-3.814,8.533-8.533,8.533h-25.6v8.533h-17.067v-17.067
				c0-4.719,3.814-8.533,8.533-8.533h25.6V204.8h-25.6c-4.719,0-8.533-3.814-8.533-8.533v-25.6c0-4.719,3.814-8.533,8.533-8.533
				h25.6v-25.6h-76.843c-9.395,0-17.05,7.646-17.05,17.05v85.35h-10.965c-17.485,0-31.701,14.106-31.701,31.445v93.286
				c0,20.992,17.229,38.067,38.4,38.067c11.767,0,21.333,9.421,21.333,21.001v14.643c0,12.919,10.581,23.424,23.595,23.424h2.031
				v34.133c0,9.412,7.663,17.067,17.067,17.067h51.2c9.412,0,17.067-7.654,17.067-17.067V460.8h1.98
				c13.013,0,23.595-10.505,23.595-23.424v-14.643c0-11.58,9.566-21.001,21.333-21.001c21.18,0,38.4-17.075,38.4-38.067v-93.286
				C384.987,253.039,370.771,238.933,353.294,238.933z M231.413,494.933V460.8h51.2l0.017,34.133H231.413z"/>
			<path d="M299.68,59.733c-4.719,0-8.533-3.814-8.533-8.533h-25.6c0,4.719-3.814,8.533-8.533,8.533s-8.533-3.814-8.533-8.533h-25.6
				c0,4.719-3.814,8.533-8.533,8.533s-8.533-3.814-8.533-8.533h-25.6v17.067h153.6V51.2h-25.6
				C308.213,55.919,304.398,59.733,299.68,59.733z"/>
			<path d="M359.413,0h-204.8c-14.114,0-25.6,11.486-25.6,25.6v68.267c0,14.114,11.486,25.6,25.6,25.6h204.8
				c14.114,0,25.6-11.486,25.6-25.6V25.6C385.013,11.486,373.527,0,359.413,0z M350.88,76.8c0,4.719-3.814,8.533-8.533,8.533H171.68
				c-4.719,0-8.533-3.814-8.533-8.533V42.667c0-4.719,3.814-8.533,8.533-8.533h170.667c4.719,0,8.533,3.814,8.533,8.533V76.8z"/>
		</g>
	</g>
</g>
<g>
</g>
<g>
</g>
<g>
</g>
<g>
</g>
<g>
</g>
<g>
</g>
<g>
</g>
<g>
</g>
<g>
</g>
<g>
</g>
<g>
</g>
<g>
</g>
<g>
</g>
<g>
</g>
<g>
</g>
</svg>
