<?xml version="1.0" encoding="iso-8859-1"?>
<!-- Generator: Adobe Illustrator 19.0.0, SVG Export Plug-In . SVG Version: 6.00 Build 0)  -->
<svg version="1.1" id="Layer_1" xmlns="http://www.w3.org/2000/svg" xmlns:xlink="http://www.w3.org/1999/xlink" x="0px" y="0px"
	 viewBox="0 0 512 512" style="enable-background:new 0 0 512 512;" xml:space="preserve">
<g>
	<g>
		<path d="M282.453,196.267h-52.907c-9.387,0-16.213,7.68-16.213,16.213v18.773c0,9.387,7.68,16.213,16.213,16.213h52.907
			c9.387,0,16.213-7.68,16.213-16.213V212.48C298.667,203.947,290.987,196.267,282.453,196.267z"/>
	</g>
</g>
<g>
	<g>
		<path d="M435.2,102.4h-8.533V42.667c5.12,0,8.533-3.413,8.533-8.533c0-5.12-3.413-8.533-8.533-8.533v-8.533
			C426.667,7.68,418.987,0,409.6,0h-34.133v59.733c0,5.12-3.413,8.533-8.533,8.533s-8.533-3.413-8.533-8.533V0h-17.067v59.733
			c0,5.12-3.413,8.533-8.533,8.533s-8.533-3.413-8.533-8.533V0H187.733v59.733c0,5.12-3.413,8.533-8.533,8.533
			s-8.533-3.413-8.533-8.533V0H153.6v59.733c0,5.12-3.413,8.533-8.533,8.533s-8.533-3.413-8.533-8.533V0H102.4
			c-9.387,0-17.067,7.68-17.067,17.067V25.6c-5.12,0-8.533,4.267-8.533,8.533c0,4.267,3.413,8.533,8.533,8.533V102.4H76.8
			c-9.387,0-17.067,7.68-17.067,17.067v204.8c0,9.387,7.68,17.067,17.067,17.067h136.533v34.133c0,9.387,7.68,17.067,17.067,17.067
			v102.4H119.467c-5.12,0-8.533,3.413-8.533,8.533s3.413,8.533,8.533,8.533h119.467h34.133h119.467c5.12,0,8.533-3.413,8.533-8.533
			s-3.413-8.533-8.533-8.533H281.6v-102.4c9.387,0,17.067-7.68,17.067-17.067v-34.133H435.2c9.387,0,17.067-7.68,17.067-17.067
			v-204.8C452.267,110.08,444.587,102.4,435.2,102.4z M264.533,494.933h-17.067v-102.4h17.067V494.933z M435.2,324.267H290.133
			h-68.267H76.8v-204.8h17.067h324.267H435.2V324.267z"/>
	</g>
</g>
<g>
</g>
<g>
</g>
<g>
</g>
<g>
</g>
<g>
</g>
<g>
</g>
<g>
</g>
<g>
</g>
<g>
</g>
<g>
</g>
<g>
</g>
<g>
</g>
<g>
</g>
<g>
</g>
<g>
</g>
</svg>
