<?xml version="1.0" encoding="iso-8859-1"?>
<!-- Generator: Adobe Illustrator 19.0.0, SVG Export Plug-In . SVG Version: 6.00 Build 0)  -->
<svg version="1.1" id="Layer_1" xmlns="http://www.w3.org/2000/svg" xmlns:xlink="http://www.w3.org/1999/xlink" x="0px" y="0px"
	 viewBox="0 0 512 512" style="enable-background:new 0 0 512 512;" xml:space="preserve">
<g>
	<g>
		<g>
			<path d="M197.513,93.867c-12.988,32.828-12.988,69.572,0,102.4h116.975c12.988-32.828,12.988-69.572,0-102.4H197.513z
				 M230.4,136.533c0,4.719-3.823,8.533-8.533,8.533c-4.71,0-8.533-3.814-8.533-8.533v-17.067c0-4.719,3.823-8.533,8.533-8.533
				c4.71,0,8.533,3.814,8.533,8.533V136.533z M273.067,174.933c0,2.355-1.911,4.267-4.267,4.267h-25.6
				c-2.355,0-4.267-1.911-4.267-4.267v-4.267c0-9.429,7.637-17.067,17.067-17.067s17.067,7.637,17.067,17.067V174.933z
				 M298.667,136.533c0,4.719-3.823,8.533-8.533,8.533c-4.71,0-8.533-3.814-8.533-8.533v-17.067c0-4.719,3.823-8.533,8.533-8.533
				c4.71,0,8.533,3.814,8.533,8.533V136.533z"/>
			<path d="M358.4,0H153.6c-23.526,0-42.667,19.14-42.667,42.667v426.667c0,23.526,19.14,42.667,42.667,42.667h204.8
				c23.526,0,42.667-19.14,42.667-42.667V42.667C401.067,19.14,381.926,0,358.4,0z M153.6,477.867c-4.71,0-8.533-3.823-8.533-8.533
				s3.823-8.533,8.533-8.533s8.533,3.823,8.533,8.533S158.31,477.867,153.6,477.867z M153.6,51.2c-4.71,0-8.533-3.823-8.533-8.533
				s3.823-8.533,8.533-8.533s8.533,3.823,8.533,8.533S158.31,51.2,153.6,51.2z M327.97,430.114c-1.365,3.098-4.42,5.086-7.799,5.086
				H191.829c-3.379,0-6.434-1.988-7.799-5.086c-17.766-40.149-17.766-86.212,0-126.362c1.365-3.098,4.42-5.086,7.799-5.086h128.341
				c3.379,0,6.434,1.988,7.799,5.086C345.737,343.902,345.737,389.965,327.97,430.114z M327.97,208.247
				c-1.365,3.098-4.42,5.086-7.799,5.086H191.829c-3.379,0-6.434-1.988-7.799-5.086c-17.766-40.149-17.766-86.212,0-126.362
				c1.365-3.098,4.42-5.086,7.799-5.086h128.341c3.379,0,6.434,1.988,7.799,5.086C345.737,122.035,345.737,168.098,327.97,208.247z
				 M358.4,477.867c-4.71,0-8.533-3.823-8.533-8.533s3.823-8.533,8.533-8.533c4.71,0,8.533,3.823,8.533,8.533
				S363.11,477.867,358.4,477.867z M358.4,51.2c-4.71,0-8.533-3.823-8.533-8.533s3.823-8.533,8.533-8.533
				c4.71,0,8.533,3.823,8.533,8.533S363.11,51.2,358.4,51.2z"/>
			<path d="M197.513,315.733c-12.988,32.828-12.988,69.572,0,102.4h116.975c12.988-32.828,12.988-69.572,0-102.4H197.513z
				 M230.4,358.4c0,4.719-3.823,8.533-8.533,8.533c-4.71,0-8.533-3.814-8.533-8.533v-17.067c0-4.719,3.823-8.533,8.533-8.533
				c4.71,0,8.533,3.814,8.533,8.533V358.4z M273.067,396.8c0,2.355-1.911,4.267-4.267,4.267h-25.6c-2.355,0-4.267-1.911-4.267-4.267
				v-4.267c0-9.429,7.637-17.067,17.067-17.067s17.067,7.637,17.067,17.067V396.8z M298.667,358.4c0,4.719-3.823,8.533-8.533,8.533
				c-4.71,0-8.533-3.814-8.533-8.533v-17.067c0-4.719,3.823-8.533,8.533-8.533c4.71,0,8.533,3.814,8.533,8.533V358.4z"/>
		</g>
	</g>
</g>
<g>
</g>
<g>
</g>
<g>
</g>
<g>
</g>
<g>
</g>
<g>
</g>
<g>
</g>
<g>
</g>
<g>
</g>
<g>
</g>
<g>
</g>
<g>
</g>
<g>
</g>
<g>
</g>
<g>
</g>
</svg>
