<?xml version="1.0" encoding="iso-8859-1"?>
<!-- Generator: Adobe Illustrator 19.0.0, SVG Export Plug-In . SVG Version: 6.00 Build 0)  -->
<svg version="1.1" id="Layer_1" xmlns="http://www.w3.org/2000/svg" xmlns:xlink="http://www.w3.org/1999/xlink" x="0px" y="0px"
	 viewBox="0 0 503.607 503.607" style="enable-background:new 0 0 503.607 503.607;" xml:space="preserve">
<g>
	<g>
		<path d="M386.098,486.82H276.984V386.098c9.233,0,16.787-7.554,16.787-16.787v-33.574h1.679c12.59,0,23.502-10.072,23.502-22.662
			v-14.269c0-11.751,9.233-20.984,20.984-20.984c20.984,0,37.77-16.787,37.77-37.771V131.777c0-16.787-14.269-31.056-31.056-31.056
			h-10.911V16.787C335.738,7.554,328.184,0,318.951,0h-41.967v33.574c0,5.036-3.357,8.393-8.393,8.393h-25.18v8.393h25.18
			c5.036,0,8.393,3.357,8.393,8.393v25.18c0,5.036-3.357,8.393-8.393,8.393h-25.18v8.393h-16.787V83.934
			c0-5.036,3.357-8.393,8.393-8.393h25.18v-8.393h-25.18c-5.036,0-8.393-3.357-8.393-8.393v-25.18c0-5.036,3.357-8.393,8.393-8.393
			h25.18V0h-75.541c-9.233,0-16.787,7.554-16.787,16.787v83.934h-10.911c-16.787,0-31.056,14.269-31.056,31.056v108.275
			c0,20.984,16.787,37.771,37.77,37.771c11.751,0,20.984,9.233,20.984,20.984v14.269c0,12.59,10.072,22.662,23.502,22.662h1.679
			v33.574c0,9.233,7.554,16.787,16.787,16.787V486.82H117.508c-5.036,0-8.393,3.357-8.393,8.393c0,5.036,3.357,8.393,8.393,8.393
			h117.508h33.574h117.508c5.036,0,8.393-3.357,8.393-8.393C394.492,491.016,391.134,486.82,386.098,486.82z M260.197,486.82H243.41
			V386.098h16.787V486.82z M235.016,369.311h-8.393v-33.574h50.361v33.574h-8.393H235.016z"/>
	</g>
</g>
<g>
</g>
<g>
</g>
<g>
</g>
<g>
</g>
<g>
</g>
<g>
</g>
<g>
</g>
<g>
</g>
<g>
</g>
<g>
</g>
<g>
</g>
<g>
</g>
<g>
</g>
<g>
</g>
<g>
</g>
</svg>
