<?xml version="1.0" encoding="iso-8859-1"?>
<!-- Generator: Adobe Illustrator 19.0.0, SVG Export Plug-In . SVG Version: 6.00 Build 0)  -->
<svg version="1.1" id="Layer_1" xmlns="http://www.w3.org/2000/svg" xmlns:xlink="http://www.w3.org/1999/xlink" x="0px" y="0px"
	 viewBox="0 0 512 512" style="enable-background:new 0 0 512 512;" xml:space="preserve">
<g>
	<g>
		<g>
			<path d="M332.804,256h-8.533v-93.867c0-14.114-11.486-25.6-25.6-25.6h-85.333c-14.123,0-25.6,11.486-25.6,25.6V256h-8.533
				c-9.412,0-17.067,7.654-17.067,17.067v170.667c0,9.412,7.654,17.067,17.067,17.067h34.133v34.133
				c0,9.412,7.654,17.067,17.067,17.067h51.2c9.412,0,17.067-7.654,17.067-17.067V460.8h34.133c9.412,0,17.067-7.654,17.067-17.067
				V273.067C349.871,263.654,342.217,256,332.804,256z M230.404,494.933V460.8h51.2l0.009,34.133H230.404z M298.671,204.8
				c0,4.719-3.823,8.533-8.533,8.533h-68.267c-4.719,0-8.533-3.814-8.533-8.533v-25.6c0-4.719,3.814-8.533,8.533-8.533h68.267
				c4.71,0,8.533,3.814,8.533,8.533V204.8z"/>
			<path d="M298.667,51.2h-85.333c-4.702,0-8.533,3.823-8.533,8.533c0,4.71,3.831,8.533,8.533,8.533h85.333
				c4.702,0,8.533-3.823,8.533-8.533C307.2,55.023,303.369,51.2,298.667,51.2z"/>
			<path d="M332.8,0H179.2c-14.114,0-25.6,11.486-25.6,25.6v68.267c0,14.114,11.486,25.6,25.6,25.6h153.6
				c14.114,0,25.6-11.486,25.6-25.6V25.6C358.4,11.486,346.914,0,332.8,0z M298.667,85.333h-85.333c-14.114,0-25.6-11.486-25.6-25.6
				s11.486-25.6,25.6-25.6h85.333c14.114,0,25.6,11.486,25.6,25.6S312.781,85.333,298.667,85.333z"/>
		</g>
	</g>
</g>
<g>
</g>
<g>
</g>
<g>
</g>
<g>
</g>
<g>
</g>
<g>
</g>
<g>
</g>
<g>
</g>
<g>
</g>
<g>
</g>
<g>
</g>
<g>
</g>
<g>
</g>
<g>
</g>
<g>
</g>
</svg>
