<?xml version="1.0" encoding="iso-8859-1"?>
<!-- Generator: Adobe Illustrator 19.0.0, SVG Export Plug-In . SVG Version: 6.00 Build 0)  -->
<svg version="1.1" id="Layer_1" xmlns="http://www.w3.org/2000/svg" xmlns:xlink="http://www.w3.org/1999/xlink" x="0px" y="0px"
	 viewBox="0 0 503.607 503.607" style="enable-background:new 0 0 503.607 503.607;" xml:space="preserve">
<g>
	<g>
		<rect x="209.836" y="92.328" width="83.934" height="16.787"/>
	</g>
</g>
<g>
	<g>
		<path d="M289.574,50.361h-75.541c6.715,9.233,6.715,15.948,0,25.18h75.541C282.859,66.308,282.859,59.593,289.574,50.361z"/>
	</g>
</g>
<g>
	<g>
		<path d="M276.144,5.036C274.466,1.679,271.948,0,268.59,0h-33.574c-3.357,0-5.875,1.679-7.554,5.036l-14.269,28.538h77.22
			L276.144,5.036z"/>
	</g>
</g>
<g>
	<g>
		<path d="M386.098,486.82H276.984v-67.148c9.233,0,16.787-7.554,16.787-16.787v-33.574c5.036,0,8.393-3.357,8.393-8.393V201.443
			c0-5.036-3.357-8.393-8.393-8.393v-67.148h-83.934v67.148c-5.036,0-8.393,3.357-8.393,8.393v159.475
			c0,5.036,3.357,8.393,8.393,8.393v33.574c0,9.233,7.554,16.787,16.787,16.787v67.148H117.508c-5.036,0-8.393,3.357-8.393,8.393
			c0,5.036,3.357,8.393,8.393,8.393h117.508h33.574h117.508c5.036,0,8.393-3.357,8.393-8.393
			C394.492,491.016,391.134,486.82,386.098,486.82z M260.197,486.82H243.41v-67.148h16.787V486.82z M218.229,352.525V209.836h67.148
			v142.689H218.229z"/>
	</g>
</g>
<g>
</g>
<g>
</g>
<g>
</g>
<g>
</g>
<g>
</g>
<g>
</g>
<g>
</g>
<g>
</g>
<g>
</g>
<g>
</g>
<g>
</g>
<g>
</g>
<g>
</g>
<g>
</g>
<g>
</g>
</svg>
