<?xml version="1.0" encoding="iso-8859-1"?>
<!-- Generator: Adobe Illustrator 19.0.0, SVG Export Plug-In . SVG Version: 6.00 Build 0)  -->
<svg version="1.1" id="Layer_1" xmlns="http://www.w3.org/2000/svg" xmlns:xlink="http://www.w3.org/1999/xlink" x="0px" y="0px"
	 viewBox="0 0 512 512" style="enable-background:new 0 0 512 512;" xml:space="preserve">
<g>
	<g>
		<g>
			<path d="M298.667,324.267H435.2V187.733H298.667V324.267z M384,290.133h25.6c4.719,0,8.533,3.823,8.533,8.533
				s-3.814,8.533-8.533,8.533H384c-4.719,0-8.533-3.823-8.533-8.533S379.281,290.133,384,290.133z M358.4,213.333
				c0-4.71,3.814-8.533,8.533-8.533s8.533,3.823,8.533,8.533v34.133c0,4.71-3.814,8.533-8.533,8.533s-8.533-3.823-8.533-8.533
				V213.333z M324.267,290.133h25.6c4.719,0,8.533,3.823,8.533,8.533s-3.814,8.533-8.533,8.533h-25.6
				c-4.719,0-8.533-3.823-8.533-8.533S319.548,290.133,324.267,290.133z"/>
			<path d="M145.067,221.867c-18.825,0-34.133,15.309-34.133,34.133s15.309,34.133,34.133,34.133S179.2,274.825,179.2,256
				S163.891,221.867,145.067,221.867z M145.067,273.067c-9.421,0-17.067-7.646-17.067-17.067c0-9.429,7.646-17.067,17.067-17.067
				c9.421,0,17.067,7.637,17.067,17.067C162.133,265.421,154.487,273.067,145.067,273.067z"/>
			<path d="M469.333,110.933H42.667C19.14,110.933,0,130.074,0,153.6v204.8c0,23.526,19.14,42.667,42.667,42.667h426.667
				c23.526,0,42.667-19.14,42.667-42.667V153.6C512,130.074,492.86,110.933,469.333,110.933z M42.667,366.933
				c-4.71,0-8.533-3.823-8.533-8.533s3.823-8.533,8.533-8.533c4.71,0,8.533,3.823,8.533,8.533S47.377,366.933,42.667,366.933z
				 M42.667,162.133c-4.71,0-8.533-3.823-8.533-8.533c0-4.71,3.823-8.533,8.533-8.533c4.71,0,8.533,3.823,8.533,8.533
				C51.2,158.31,47.377,162.133,42.667,162.133z M145.067,307.2c-28.237,0-51.2-22.963-51.2-51.2s22.963-51.2,51.2-51.2
				c28.237,0,51.2,22.963,51.2,51.2S173.303,307.2,145.067,307.2z M452.267,332.8c0,4.71-3.814,8.533-8.533,8.533h-153.6
				c-4.719,0-8.533-3.823-8.533-8.533V179.2c0-4.71,3.814-8.533,8.533-8.533h153.6c4.719,0,8.533,3.823,8.533,8.533V332.8z
				 M469.333,366.933c-4.71,0-8.533-3.823-8.533-8.533s3.823-8.533,8.533-8.533s8.533,3.823,8.533,8.533
				S474.044,366.933,469.333,366.933z M469.333,162.133c-4.71,0-8.533-3.823-8.533-8.533c0-4.71,3.823-8.533,8.533-8.533
				s8.533,3.823,8.533,8.533C477.867,158.31,474.044,162.133,469.333,162.133z"/>
		</g>
	</g>
</g>
<g>
</g>
<g>
</g>
<g>
</g>
<g>
</g>
<g>
</g>
<g>
</g>
<g>
</g>
<g>
</g>
<g>
</g>
<g>
</g>
<g>
</g>
<g>
</g>
<g>
</g>
<g>
</g>
<g>
</g>
</svg>
