<?xml version="1.0" encoding="iso-8859-1"?>
<!-- Generator: Adobe Illustrator 19.0.0, SVG Export Plug-In . SVG Version: 6.00 Build 0)  -->
<svg version="1.1" id="Layer_1" xmlns="http://www.w3.org/2000/svg" xmlns:xlink="http://www.w3.org/1999/xlink" x="0px" y="0px"
	 viewBox="0 0 512 512" style="enable-background:new 0 0 512 512;" xml:space="preserve">
<g>
	<g>
		<path d="M151.04,118.613H71.68c-16.213,0.853-29.013,13.653-29.013,29.867v79.36c0,15.36,12.8,28.16,29.013,28.16h79.36
			c16.213,0,29.013-12.8,29.013-29.013v-79.36C180.053,131.413,167.253,118.613,151.04,118.613z"/>
	</g>
</g>
<g>
	<g>
		<rect x="358.4" y="68.267" width="17.067" height="17.067"/>
	</g>
</g>
<g>
	<g>
		<rect x="426.667" y="68.267" width="17.067" height="17.067"/>
	</g>
</g>
<g>
	<g>
		<path d="M494.933,136.533v-128c0-5.12-3.413-8.533-8.533-8.533H315.733c-5.12,0-8.533,3.413-8.533,8.533v128
			c-9.387,0-17.067,7.68-17.067,17.067v170.667c0,9.387,7.68,17.067,17.067,17.067h51.2V358.4c-5.12,0-8.533,3.413-8.533,8.533
			s3.413,8.533,8.533,8.533v17.067c0,9.387,7.68,17.067,17.067,17.067c0,28.16-23.04,51.2-51.2,51.2H187.733
			c-28.16,0-51.2-23.04-51.2-51.2c9.387,0,17.067-7.68,17.067-17.067v-17.067c5.12,0,8.533-3.413,8.533-8.533
			s-3.413-8.533-8.533-8.533v-17.067h34.133c9.387,0,17.067-7.68,17.067-17.067v-23.04l15.36-23.04
			c0.853-1.707,1.707-3.413,1.707-5.12V102.4c0-9.387-7.68-17.067-17.067-17.067h-8.533V17.067C196.267,7.68,188.587,0,179.2,0
			h-17.067v51.2h-17.067V0H76.8v51.2H59.733V0H42.667C33.28,0,25.6,7.68,25.6,17.067v68.267h-8.533C7.68,85.333,0,93.013,0,102.4
			v170.667c0,1.707,0.853,3.413,1.707,5.12l15.36,23.04v23.04c0,9.387,7.68,17.067,17.067,17.067h34.133V358.4
			c-5.12,0-8.533,3.413-8.533,8.533s3.413,8.533,8.533,8.533v17.067c0,9.387,7.68,17.067,17.067,17.067
			c0,56.32,46.08,102.4,102.4,102.4h136.533c56.32,0,102.4-46.08,102.4-102.4c9.387,0,17.067-7.68,17.067-17.067v-17.067
			c5.12,0,8.533-3.413,8.533-8.533s-3.413-8.533-8.533-8.533v-17.067h51.2c9.387,0,17.067-7.68,17.067-17.067V153.6
			C512,144.213,504.32,136.533,494.933,136.533z M136.533,358.4h-51.2v-17.067h51.2V358.4z M119.467,51.2h17.067v17.067h-17.067
			V51.2z M85.333,51.2H102.4v17.067H85.333V51.2z M76.8,324.267H34.133v-25.6c0-1.707-0.853-3.413-1.707-5.12l-15.36-23.04V102.4
			h17.067h153.6H204.8v168.107l-15.36,23.04c-0.853,1.707-1.707,3.413-1.707,5.12v25.6h-42.667H76.8z M93.867,392.533h-8.533
			v-17.067h51.2v17.067H128H93.867z M349.867,102.4c-5.12,0-8.533-3.413-8.533-8.533V59.733c0-5.12,3.413-8.533,8.533-8.533H384
			c5.12,0,8.533,3.413,8.533,8.533v34.133c0,5.12-3.413,8.533-8.533,8.533H349.867z M426.667,392.533h-8.533H384h-8.533v-17.067
			h51.2V392.533z M426.667,358.4h-51.2v-17.067h51.2V358.4z M460.8,93.867c0,5.12-3.413,8.533-8.533,8.533h-34.133
			c-5.12,0-8.533-3.413-8.533-8.533V59.733c0-5.12,3.413-8.533,8.533-8.533h34.133c5.12,0,8.533,3.413,8.533,8.533V93.867z"/>
	</g>
</g>
<g>
</g>
<g>
</g>
<g>
</g>
<g>
</g>
<g>
</g>
<g>
</g>
<g>
</g>
<g>
</g>
<g>
</g>
<g>
</g>
<g>
</g>
<g>
</g>
<g>
</g>
<g>
</g>
<g>
</g>
</svg>
