<?xml version="1.0" encoding="iso-8859-1"?>
<!-- Generator: Adobe Illustrator 19.0.0, SVG Export Plug-In . SVG Version: 6.00 Build 0)  -->
<svg version="1.1" id="Layer_1" xmlns="http://www.w3.org/2000/svg" xmlns:xlink="http://www.w3.org/1999/xlink" x="0px" y="0px"
	 viewBox="0 0 511.994 511.994" style="enable-background:new 0 0 511.994 511.994;" xml:space="preserve">
<g>
	<g>
		<g>
			<path d="M281.597,90.078V64.043c0-10.308-7.339-18.935-17.067-20.941V8.533c0-4.719-3.814-8.533-8.533-8.533
				c-4.719,0-8.533,3.814-8.533,8.533v34.569c-9.728,2.005-17.067,10.633-17.067,20.941v26.035
				C220.242,96,213.33,106.889,213.33,119.467V179.2h85.333v-59.733C298.664,106.889,291.752,96,281.597,90.078z M264.53,85.333
				h-17.067V64.043c0-2.381,1.937-4.309,4.318-4.309h8.431c2.381,0,4.318,1.929,4.318,4.309V85.333z"/>
			<path d="M213.33,392.527c0,12.578,6.912,23.467,17.067,29.389v26.035c0,10.308,7.339,18.935,17.067,20.941v34.569
				c0,4.719,3.814,8.533,8.533,8.533c4.719,0,8.533-3.814,8.533-8.533v-34.569c9.728-2.005,17.067-10.633,17.067-20.941v-26.035
				c10.155-5.922,17.067-16.811,17.067-29.389v-59.733H213.33V392.527z M247.464,426.661h17.067v21.291
				c0,2.381-1.937,4.309-4.318,4.309h-8.431c-2.381,0-4.318-1.929-4.318-4.309V426.661z"/>
			<rect x="213.33" y="196.267" width="85.333" height="119.467"/>
		</g>
	</g>
</g>
<g>
</g>
<g>
</g>
<g>
</g>
<g>
</g>
<g>
</g>
<g>
</g>
<g>
</g>
<g>
</g>
<g>
</g>
<g>
</g>
<g>
</g>
<g>
</g>
<g>
</g>
<g>
</g>
<g>
</g>
</svg>
