<?xml version="1.0" encoding="iso-8859-1"?>
<!-- Generator: Adobe Illustrator 19.0.0, SVG Export Plug-In . SVG Version: 6.00 Build 0)  -->
<svg version="1.1" id="Layer_1" xmlns="http://www.w3.org/2000/svg" xmlns:xlink="http://www.w3.org/1999/xlink" x="0px" y="0px"
	 viewBox="0 0 503.607 503.607" style="enable-background:new 0 0 503.607 503.607;" xml:space="preserve">
<g>
	<g>
		<path d="M386.098,486.82H276.984v-33.574h16.787c4.197,0,8.393-3.357,8.393-7.554l1.679-26.02H268.59
			c-5.036,0-8.393-3.357-8.393-8.393s3.357-8.393,8.393-8.393h36.931l0.839-16.787H268.59c-5.036,0-8.393-3.357-8.393-8.393
			c0-5.036,3.357-8.393,8.393-8.393h38.61l1.679-19.305c15.948-5.036,27.698-19.305,29.377-36.931l14.269-163.672
			c10.072-3.357,17.626-12.59,17.626-23.502c0-14.269-10.911-25.18-25.18-25.18V33.574c0-14.269-10.911-25.18-25.18-25.18h-16.787
			c-5.036,0-8.393,3.357-8.393,8.393v83.934h-16.787V25.18c0-14.269-10.911-25.18-25.18-25.18c-14.269,0-25.18,10.911-25.18,25.18
			v75.541h-16.787V16.787c0-5.036-3.357-8.393-8.393-8.393c-24.341,0-42.807,18.466-42.807,41.967v50.361
			c-14.269,0-25.18,10.911-25.18,25.18c0,10.911,7.554,20.144,17.626,23.502l14.269,163.672
			c1.679,17.626,13.43,31.895,29.377,36.931l1.679,19.305h37.771c5.036,0,8.393,3.357,8.393,8.393c0,5.036-3.357,8.393-8.393,8.393
			h-37.771l0.839,16.787h36.931c5.036,0,8.393,3.357,8.393,8.393s-3.357,8.393-8.393,8.393h-35.253l1.679,26.02
			c0,4.197,4.197,7.554,8.393,7.554h16.787v33.574H117.508c-5.036,0-8.393,3.357-8.393,8.393c0,5.036,3.357,8.393,8.393,8.393
			h117.508h33.574h117.508c5.036,0,8.393-3.357,8.393-8.393C394.492,491.016,391.134,486.82,386.098,486.82z M159.475,134.295
			c-5.036,0-8.393-3.357-8.393-8.393s3.357-8.393,8.393-8.393h8.393h33.574h33.574h33.574h33.574h33.574h8.393
			c5.036,0,8.393,3.357,8.393,8.393s-3.357,8.393-8.393,8.393h-41.967H201.443H159.475z M207.318,334.898v0.839
			c-0.839,0-2.518,0-3.357,0c-11.751-1.679-20.144-10.911-20.984-22.662l-14.269-161.993h24.341v50.361
			c0,32.734,26.02,58.754,58.754,58.754s58.754-26.02,58.754-58.754v-50.361h24.341l-13.43,161.154
			c-0.839,11.751-10.072,20.984-21.823,22.662c-0.839,0-2.518,0-3.357,0H207.318z M260.197,486.82H243.41v-33.574h16.787V486.82z"/>
	</g>
</g>
<g>
</g>
<g>
</g>
<g>
</g>
<g>
</g>
<g>
</g>
<g>
</g>
<g>
</g>
<g>
</g>
<g>
</g>
<g>
</g>
<g>
</g>
<g>
</g>
<g>
</g>
<g>
</g>
<g>
</g>
</svg>
