<?xml version="1.0" encoding="iso-8859-1"?>
<!-- Generator: Adobe Illustrator 19.0.0, SVG Export Plug-In . SVG Version: 6.00 Build 0)  -->
<svg version="1.1" id="Layer_1" xmlns="http://www.w3.org/2000/svg" xmlns:xlink="http://www.w3.org/1999/xlink" x="0px" y="0px"
	 viewBox="0 0 511.889 511.889" style="enable-background:new 0 0 511.889 511.889;" xml:space="preserve">
<g>
	<g>
		<g>
			<path d="M196.211,179.2c9.412,0,17.067-7.654,17.067-17.067s-7.654-17.067-17.067-17.067s-17.067,7.654-17.067,17.067
				S186.799,179.2,196.211,179.2z"/>
			<path d="M477.811,0h-34.133c-4.719,0-8.533,3.814-8.533,8.533v400.956c0,28.237-22.963,51.2-51.2,51.2H273.011
				c-28.237,0-51.2-22.963-51.2-51.2v-85.222c9.412,0,17.067-7.654,17.067-17.067v-34.133h110.933
				c9.412,0,17.067-7.654,17.067-17.067V68.267c0-9.412-7.654-17.067-17.067-17.067h-8.533V17.041
				C341.278,7.646,333.632,0,324.237,0H68.186C58.79,0,51.145,7.646,51.145,17.041V51.2h-8.533c-9.412,0-17.067,7.654-17.067,17.067
				V256c0,9.412,7.654,17.067,17.067,17.067h110.933V307.2c0,9.412,7.654,17.067,17.067,17.067v85.222
				c0,56.465,45.935,102.4,102.4,102.4h110.933c56.465,0,102.4-45.935,102.4-102.4V8.533C486.345,3.814,482.53,0,477.811,0z
				 M68.203,51.2l-0.017-34.133l256.026-0.026V51.2H68.203z M162.078,162.133c0-18.825,15.309-34.133,34.133-34.133
				s34.133,15.309,34.133,34.133s-15.309,34.133-34.133,34.133S162.078,180.958,162.078,162.133z M179.145,307.2h-8.533v-34.133
				h51.2l0.017,34.133h-8.55H179.145z"/>
		</g>
	</g>
</g>
<g>
</g>
<g>
</g>
<g>
</g>
<g>
</g>
<g>
</g>
<g>
</g>
<g>
</g>
<g>
</g>
<g>
</g>
<g>
</g>
<g>
</g>
<g>
</g>
<g>
</g>
<g>
</g>
<g>
</g>
</svg>
