<?xml version="1.0" encoding="iso-8859-1"?>
<!-- Generator: Adobe Illustrator 19.0.0, SVG Export Plug-In . SVG Version: 6.00 Build 0)  -->
<svg version="1.1" id="Layer_1" xmlns="http://www.w3.org/2000/svg" xmlns:xlink="http://www.w3.org/1999/xlink" x="0px" y="0px"
	 viewBox="0 0 511.889 511.889" style="enable-background:new 0 0 511.889 511.889;" xml:space="preserve">
<g>
	<g>
		<g>
			<path d="M247.408,179.891v-18.449c0-9.028-7.347-16.375-16.375-16.375H178.45c-9.028,0-16.375,7.347-16.375,16.375v18.449
				c0,9.028,7.347,16.375,16.375,16.375h52.582C240.061,196.267,247.408,188.919,247.408,179.891z"/>
			<path d="M494.878,0h-34.133c-4.719,0-8.533,3.814-8.533,8.533v400.956c0,28.237-22.972,51.2-51.2,51.2H281.545
				c-28.237,0-51.2-22.963-51.2-51.2V290.133c9.412,0,17.067-7.654,17.067-17.067v-34.133h136.533
				c9.412,0,17.067-7.654,17.067-17.067v-102.4c0-9.412-7.654-17.067-17.067-17.067h-8.533V42.667c4.71,0,8.533-3.814,8.533-8.533
				s-3.823-8.533-8.533-8.533v-8.533C375.411,7.654,367.757,0,358.345,0h-34.133v59.733c0,4.719-3.823,8.533-8.533,8.533
				c-4.719,0-8.533-3.814-8.533-8.533V0h-17.067v59.733c0,4.719-3.823,8.533-8.533,8.533c-4.719,0-8.533-3.814-8.533-8.533V0
				H136.478v59.733c0,4.719-3.823,8.533-8.533,8.533c-4.719,0-8.533-3.814-8.533-8.533V0h-17.067v59.733
				c0,4.719-3.823,8.533-8.533,8.533c-4.719,0-8.533-3.814-8.533-8.533V0H51.145c-9.421,0-17.067,7.654-17.067,17.067V25.6
				c-4.719,0-8.533,3.814-8.533,8.533s3.814,8.533,8.533,8.533V102.4h-8.533c-9.421,0-17.067,7.654-17.067,17.067v102.4
				c0,9.412,7.646,17.067,17.067,17.067h136.533v34.133c0,9.412,7.646,17.067,17.067,17.067v119.356
				c0,56.465,45.935,102.4,102.4,102.4h119.467c56.465,0,102.4-45.935,102.4-102.4V8.533C503.411,3.814,499.588,0,494.878,0z
				 M170.611,221.867H25.545v-102.4h17.067h324.267h17.067l0.009,102.4H238.878H170.611z M187.678,273.067h-8.533v-34.133h51.2
				l0.008,34.133h-8.542H187.678z"/>
		</g>
	</g>
</g>
<g>
</g>
<g>
</g>
<g>
</g>
<g>
</g>
<g>
</g>
<g>
</g>
<g>
</g>
<g>
</g>
<g>
</g>
<g>
</g>
<g>
</g>
<g>
</g>
<g>
</g>
<g>
</g>
<g>
</g>
</svg>
