<?xml version="1.0" encoding="iso-8859-1"?>
<!-- Generator: Adobe Illustrator 19.0.0, SVG Export Plug-In . SVG Version: 6.00 Build 0)  -->
<svg version="1.1" id="Layer_1" xmlns="http://www.w3.org/2000/svg" xmlns:xlink="http://www.w3.org/1999/xlink" x="0px" y="0px"
	 viewBox="0 0 512 512" style="enable-background:new 0 0 512 512;" xml:space="preserve">
<g>
	<g>
		<path d="M435.2,0h-34.133c-4.719,0-8.533,3.814-8.533,8.533v400.956c0,28.297-22.963,51.311-51.2,51.311H221.867
			c-28.237,0-51.2-22.963-51.2-51.311v-16.845c9.412,0,17.067-7.663,17.067-17.067v-34.244h25.6c4.719,0,8.533-3.814,8.533-8.533
			V187.733c0-4.719-3.814-8.533-8.533-8.533H204.8v-42.667c0-4.719-3.814-8.533-8.533-8.533h-8.533V59.733
			c0-4.719-3.814-8.533-8.533-8.533h-8.533V25.6c0-14.114-11.486-25.6-25.6-25.6s-25.6,11.486-25.6,25.6v25.6h-8.533
			c-4.719,0-8.533,3.814-8.533,8.533V128h-8.533c-4.719,0-8.533,3.814-8.533,8.533V179.2H76.8c-4.719,0-8.533,3.814-8.533,8.533
			V332.8c0,4.719,3.814,8.533,8.533,8.533h25.6v34.244c0,9.404,7.654,17.067,17.067,17.067V409.6c0,56.465,45.935,102.4,102.4,102.4
			h119.467c56.465,0,102.4-45.986,102.4-102.511V8.533C443.733,3.814,439.919,0,435.2,0z M136.533,25.6
			c0-4.71,3.823-8.533,8.533-8.533S153.6,20.89,153.6,25.6v25.6h-17.067V25.6z M102.4,179.2v-34.133h8.533H179.2h8.533V179.2H102.4z
			 M162.133,375.467H128c-0.188,0-0.35,0.094-0.538,0.111h-7.996v-34.244h51.2l0.017,34.244h-8.013
			C162.483,375.561,162.321,375.467,162.133,375.467z"/>
	</g>
</g>
<g>
</g>
<g>
</g>
<g>
</g>
<g>
</g>
<g>
</g>
<g>
</g>
<g>
</g>
<g>
</g>
<g>
</g>
<g>
</g>
<g>
</g>
<g>
</g>
<g>
</g>
<g>
</g>
<g>
</g>
</svg>
