<?xml version="1.0" encoding="iso-8859-1"?>
<!-- Generator: Adobe Illustrator 19.0.0, SVG Export Plug-In . SVG Version: 6.00 Build 0)  -->
<svg version="1.1" id="Layer_1" xmlns="http://www.w3.org/2000/svg" xmlns:xlink="http://www.w3.org/1999/xlink" x="0px" y="0px"
	 viewBox="0 0 503.828 503.828" style="enable-background:new 0 0 503.828 503.828;" xml:space="preserve">
<g>
	<g>
		<g>
			<rect x="134.404" y="67.151" width="16.787" height="16.787"/>
			<rect x="67.256" y="67.151" width="16.787" height="16.787"/>
			<path d="M327.457,268.699c-4.642,0-8.393,3.752-8.393,8.393c0,23.493-7.705,33.523-14.512,42.379
				c-3.752,4.893-7.571,9.929-9.451,16.376h-1.922c-0.613-11.356,0.974-19.104,2.434-26.028c2.224-10.534,4.323-20.472-2.426-36.067
				c-1.838-4.247-6.782-6.211-11.029-4.365c-4.255,1.838-6.22,6.782-4.373,11.037c4.616,10.685,3.408,16.418,1.402,25.927
				c-1.57,7.462-3.416,16.476-2.812,29.495h-3.366c-4.944-7.663-4.684-14.076-4.323-22.562c0.453-10.651,1.024-23.913-9.703-40.708
				c-2.493-3.903-7.68-5.053-11.591-2.56c-3.903,2.493-5.053,7.68-2.552,11.591c7.873,12.33,7.504,20.967,7.076,30.955
				c-0.428,10.047-0.789,21.361,8.393,34.312v56.228c0,27.774-22.595,50.361-50.361,50.361h-25.18
				c-27.774,0-50.361-22.587-50.361-50.361v-17.005c9.258,0,16.787-7.529,16.787-16.787v-33.574h50.361
				c9.258,0,16.787-7.529,16.787-16.787V151.082c0-9.258-7.529-16.787-16.787-16.787V8.393c0-4.642-3.76-8.393-8.393-8.393H25.293
				C20.652,0,16.9,3.752,16.9,8.393v125.902c-9.266,0-16.787,7.529-16.787,16.787v167.869c0,9.258,7.521,16.787,16.787,16.787H67.26
				v33.574c0,9.258,7.521,16.787,16.787,16.787v17.005c0,55.548,45.182,100.721,100.721,100.721h25.18
				c55.531,0,100.721-45.174,100.721-100.721V344.24c0-4.935,2.468-8.385,7.202-14.546c7.588-9.879,17.979-23.409,17.979-52.602
				C335.851,272.451,332.09,268.699,327.457,268.699z M117.621,58.754c0-4.642,3.752-8.393,8.393-8.393h33.574
				c4.633,0,8.393,3.752,8.393,8.393v33.574c0,4.642-3.76,8.393-8.393,8.393h-33.574c-4.642,0-8.393-3.752-8.393-8.393V58.754z
				 M58.867,100.721c-4.642,0-8.393-3.752-8.393-8.393V58.754c0-4.642,3.752-8.393,8.393-8.393h33.574
				c4.633,0,8.393,3.752,8.393,8.393v33.574c0,4.642-3.76,8.393-8.393,8.393H58.867z M92.441,369.311h-8.393v-33.574h50.361
				l0.008,33.574h-8.402H92.441z"/>
			<path d="M402.994,0.222H369.42c-55.539,0-100.721,45.182-100.721,100.721v67.03c0,4.935-2.468,8.385-7.202,14.546
				c-7.588,9.879-17.979,23.409-17.979,52.602c0,4.642,3.76,8.393,8.393,8.393s8.393-3.752,8.393-8.393
				c0-23.493,7.705-33.523,14.504-42.378c3.76-4.893,7.579-9.929,9.459-16.376h1.922c0.613,11.356-0.974,19.112-2.443,26.036
				c-2.216,10.525-4.314,20.463,2.426,36.058c1.377,3.164,4.465,5.053,7.705,5.053c1.116,0,2.249-0.218,3.332-0.688
				c4.255-1.838,6.211-6.782,4.373-11.037c-4.625-10.685-3.416-16.418-1.41-25.927c1.578-7.462,3.416-16.468,2.812-29.495h3.357
				c4.952,7.663,4.7,14.084,4.331,22.57c-0.453,10.651-1.016,23.913,9.703,40.7c1.603,2.51,4.314,3.878,7.084,3.878
				c1.544,0,3.114-0.42,4.507-1.318c3.911-2.493,5.053-7.688,2.56-11.591c-7.873-12.33-7.504-20.958-7.076-30.947
				c0.428-10.047,0.789-21.361-8.393-34.312v-64.403c0-27.774,22.587-50.361,50.361-50.361h33.574
				c27.774,0,50.361,22.587,50.361,50.361v394.492c0,4.642,3.76,8.393,8.393,8.393h33.574c4.633,0,8.393-3.752,8.393-8.393V100.943
				C503.715,45.403,458.533,0.222,402.994,0.222z"/>
		</g>
	</g>
</g>
<g>
</g>
<g>
</g>
<g>
</g>
<g>
</g>
<g>
</g>
<g>
</g>
<g>
</g>
<g>
</g>
<g>
</g>
<g>
</g>
<g>
</g>
<g>
</g>
<g>
</g>
<g>
</g>
<g>
</g>
</svg>
