<?xml version="1.0" encoding="iso-8859-1"?>
<!-- Generator: Adobe Illustrator 19.0.0, SVG Export Plug-In . SVG Version: 6.00 Build 0)  -->
<svg version="1.1" id="Layer_1" xmlns="http://www.w3.org/2000/svg" xmlns:xlink="http://www.w3.org/1999/xlink" x="0px" y="0px"
	 viewBox="0 0 512 512" style="enable-background:new 0 0 512 512;" xml:space="preserve">
<g>
	<g>
		<g>
			<rect x="68.262" y="51.203" width="51.2" height="8.533"/>
			<path d="M494.933,136.533v-128C494.933,3.814,491.11,0,486.4,0H315.733c-4.719,0-8.533,3.814-8.533,8.533v128
				c-9.412,0-17.067,7.654-17.067,17.067v170.667c0,9.412,7.654,17.067,17.067,17.067h51.2v25.6c0,9.412,7.654,17.067,17.067,17.067
				v25.489c0,28.237-22.972,51.2-51.209,51.2L170.667,460.8c-28.237,0-51.2-22.963-51.2-51.2v-25.489
				c9.412,0,17.067-7.663,17.067-17.067v-25.711h34.133c9.412,0,17.067-7.654,17.067-17.067v-179.2
				c0-9.412-7.654-17.067-17.067-17.067h-8.533V25.6c0-14.114-11.486-25.6-25.6-25.6H51.2C37.077,0,25.6,11.486,25.6,25.6V128
				h-8.533C7.654,128,0,135.654,0,145.067v179.2c0,9.412,7.654,17.067,17.067,17.067H51.2v25.711
				c0,9.404,7.654,17.067,17.067,17.067V409.6c0,56.465,45.935,102.4,102.4,102.4l153.6-0.111c56.457,0,102.4-45.935,102.4-102.4
				V384c9.412,0,17.067-7.654,17.067-17.067v-25.6h51.2c9.412,0,17.067-7.654,17.067-17.067V153.6
				C512,144.188,504.346,136.533,494.933,136.533z M59.733,76.8c-4.719,0-8.533-3.814-8.533-8.533v-25.6
				c0-4.719,3.814-8.533,8.533-8.533H128c4.71,0,8.533,3.814,8.533,8.533v25.6c0,4.719-3.823,8.533-8.533,8.533H59.733z
				 M110.933,366.933H76.8c-0.196,0-0.35,0.094-0.538,0.111h-7.996v-25.711h51.2l0.009,25.711h-8.013
				C111.275,367.027,111.121,366.933,110.933,366.933z M349.867,102.4c-4.719,0-8.533-3.814-8.533-8.533V59.733
				c0-4.719,3.814-8.533,8.533-8.533H384c4.71,0,8.533,3.814,8.533,8.533v34.133c0,4.719-3.823,8.533-8.533,8.533H349.867z
				 M418.133,366.933H384h-8.533v-25.6h51.2l0.009,25.6H418.133z M460.8,93.867c0,4.719-3.823,8.533-8.533,8.533h-34.133
				c-4.719,0-8.533-3.814-8.533-8.533V59.733c0-4.719,3.814-8.533,8.533-8.533h34.133c4.71,0,8.533,3.814,8.533,8.533V93.867z"/>
			<rect x="426.662" y="68.27" width="17.067" height="17.067"/>
			<rect x="358.396" y="68.27" width="17.067" height="17.067"/>
		</g>
	</g>
</g>
<g>
</g>
<g>
</g>
<g>
</g>
<g>
</g>
<g>
</g>
<g>
</g>
<g>
</g>
<g>
</g>
<g>
</g>
<g>
</g>
<g>
</g>
<g>
</g>
<g>
</g>
<g>
</g>
<g>
</g>
</svg>
