<?xml version="1.0" encoding="iso-8859-1"?>
<!-- Generator: Adobe Illustrator 19.0.0, SVG Export Plug-In . SVG Version: 6.00 Build 0)  -->
<svg version="1.1" id="Layer_1" xmlns="http://www.w3.org/2000/svg" xmlns:xlink="http://www.w3.org/1999/xlink" x="0px" y="0px"
	 viewBox="0 0 512 512" style="enable-background:new 0 0 512 512;" xml:space="preserve">
<g>
	<g>
		<g>
			<rect x="204.8" y="85.34" width="102.4" height="34.133"/>
			<rect x="204.8" y="187.74" width="17.067" height="17.067"/>
			<rect x="290.133" y="341.34" width="17.067" height="17.067"/>
			<rect x="290.133" y="187.74" width="17.067" height="17.067"/>
			<rect x="204.8" y="341.34" width="17.067" height="17.067"/>
			<path d="M343.603,86.873c-0.973-0.981-2.33-1.536-3.712-1.536h-15.625v42.667c0,4.719-3.823,8.533-8.533,8.533H196.267
				c-4.71,0-8.533-3.814-8.533-8.533V85.337h-15.625c-1.399,0-2.714,0.538-3.703,1.536l-81.545,81.536
				c-0.99,0.99-1.527,2.304-1.527,3.703v249.31c0,2.893,2.355,5.248,5.248,5.248h330.837c2.893,0,5.248-2.321,5.248-5.188V172.087
				c0-1.382-0.546-2.688-1.536-3.686L343.603,86.873z M349.867,332.803c0,4.719-3.823,8.533-8.533,8.533h-17.067v25.6
				c0,4.719-3.823,8.533-8.533,8.533H281.6c-4.71,0-8.533-3.814-8.533-8.533v-25.6h-34.133v25.6c0,4.719-3.823,8.533-8.533,8.533
				h-34.133c-4.71,0-8.533-3.814-8.533-8.533v-25.6h-17.067c-4.71,0-8.533-3.814-8.533-8.533V213.337
				c0-4.719,3.823-8.533,8.533-8.533h17.067v-25.6c0-4.719,3.823-8.533,8.533-8.533H230.4c4.71,0,8.533,3.814,8.533,8.533v25.6
				h34.133v-25.6c0-4.719,3.823-8.533,8.533-8.533h34.133c4.71,0,8.533,3.814,8.533,8.533v25.6h17.067
				c4.71,0,8.533,3.814,8.533,8.533V332.803z"/>
			<polygon points="281.6,221.87 230.4,221.87 196.267,221.87 179.2,221.87 179.2,324.27 196.267,324.27 230.4,324.27 281.6,324.27 
				315.733,324.27 332.8,324.27 332.8,221.87 315.733,221.87 			"/>
			<path d="M486.4,0H25.6C11.486,0,0,11.486,0,25.6v460.8C0,500.523,11.486,512,25.6,512h460.8c14.114,0,25.6-11.477,25.6-25.6V25.6
				C512,11.486,500.514,0,486.4,0z M443.733,421.478c0,12.271-10.01,22.255-22.315,22.255H90.581
				c-12.305,0-22.315-10.001-22.315-22.315v-249.31c0-5.956,2.313-11.554,6.528-15.761l81.544-81.553
				c4.216-4.207,9.813-6.528,15.77-6.528h167.782c5.879,0,11.631,2.389,15.778,6.537l81.527,81.536
				c4.215,4.215,6.536,9.805,6.536,15.744V421.478z"/>
		</g>
	</g>
</g>
<g>
</g>
<g>
</g>
<g>
</g>
<g>
</g>
<g>
</g>
<g>
</g>
<g>
</g>
<g>
</g>
<g>
</g>
<g>
</g>
<g>
</g>
<g>
</g>
<g>
</g>
<g>
</g>
<g>
</g>
</svg>
