<?xml version="1.0" encoding="iso-8859-1"?>
<!-- Generator: Adobe Illustrator 19.0.0, SVG Export Plug-In . SVG Version: 6.00 Build 0)  -->
<svg version="1.1" id="Layer_1" xmlns="http://www.w3.org/2000/svg" xmlns:xlink="http://www.w3.org/1999/xlink" x="0px" y="0px"
	 viewBox="0 0 503.607 503.607" style="enable-background:new 0 0 503.607 503.607;" xml:space="preserve">
<g>
	<g>
		<path d="M335.738,8.393C330.702,3.357,323.987,0,316.433,0H187.174c-7.554,0-14.269,3.357-19.305,8.393
			c-5.036,5.875-7.554,12.59-6.715,20.144l5.036,48.682c1.679,13.43,12.59,23.502,26.02,23.502h119.187
			c13.43,0,24.341-10.072,26.02-23.502l5.036-48.682C343.292,20.984,340.774,14.269,335.738,8.393z M310.557,50.361h-16.787v16.787
			h-16.787V50.361h-16.787v16.787H243.41V50.361h-16.787v16.787h-16.787V50.361h-16.787V33.574h16.787v16.787h16.787V33.574h16.787
			v16.787h16.787V33.574h16.787v16.787h16.787V33.574h16.787V50.361z"/>
	</g>
</g>
<g>
	<g>
		<path d="M411.279,293.771c0-5.036-3.357-8.393-8.393-8.393V268.59c5.036,0,8.393-3.357,8.393-8.393
			c0-5.036-3.357-8.393-8.393-8.393v-41.967c0-5.036-3.357-8.393-8.393-8.393h-8.393v-16.787c0-9.233-7.554-16.787-16.787-16.787
			h-16.787c-9.233,0-16.787,7.554-16.787,16.787v16.787h-8.393v-67.148c0-9.233-7.554-16.787-16.787-16.787H193.049
			c-9.233,0-16.787,7.554-16.787,16.787v67.148h-8.393v-16.787c0-9.233-7.554-16.787-16.787-16.787h-16.787
			c-9.233,0-16.787,7.554-16.787,16.787v16.787h-8.393c-5.036,0-8.393,3.357-8.393,8.393v41.967c-5.036,0-8.393,3.357-8.393,8.393
			c0,5.036,3.357,8.393,8.393,8.393v16.787c-5.036,0-8.393,3.357-8.393,8.393c0,5.036,3.357,8.393,8.393,8.393v16.787
			c-5.036,0-8.393,3.357-8.393,8.393c0,5.036,3.357,8.393,8.393,8.393v16.787c-5.036,0-8.393,3.357-8.393,8.393
			s3.357,8.393,8.393,8.393v50.361c0,5.036,3.357,8.393,8.393,8.393h16.787v41.967c0,9.233,7.554,16.787,16.787,16.787h16.787
			c9.233,0,16.787-7.554,16.787-16.787v-41.967h33.574v25.18c-5.036,0-8.393,3.357-8.393,8.393s3.357,8.393,8.393,8.393v16.787
			c0,9.233,7.554,16.787,16.787,16.787h50.361c9.233,0,16.787-7.554,16.787-16.787v-16.787c5.036,0,8.393-3.357,8.393-8.393
			s-3.357-8.393-8.393-8.393v-25.18h33.574v41.967c0,9.233,7.554,16.787,16.787,16.787h16.787c9.233,0,16.787-7.554,16.787-16.787
			v-41.967h16.787c5.036,0,8.393-3.357,8.393-8.393v-50.361c5.036,0,8.393-3.357,8.393-8.393s-3.357-8.393-8.393-8.393v-16.787
			c5.036,0,8.393-3.357,8.393-8.393c0-5.036-3.357-8.393-8.393-8.393v-16.787C407.921,302.164,411.279,298.807,411.279,293.771z
			 M276.984,486.82h-50.361v-16.787h50.361V486.82z M276.984,453.246h-50.361v-25.18h50.361V453.246z M386.098,411.279h-16.787
			h-33.574h-50.361h-67.148h-50.361h-33.574h-16.787v-41.967h268.59V411.279z M386.098,352.525h-268.59v-16.787h268.59V352.525z
			 M386.098,318.951h-268.59v-16.787h268.59V318.951z M386.098,285.377h-268.59V268.59h268.59V285.377z M386.098,251.803h-268.59
			v-33.574h8.393h33.574h25.18h134.295h25.18h33.574h8.393V251.803z"/>
	</g>
</g>
<g>
</g>
<g>
</g>
<g>
</g>
<g>
</g>
<g>
</g>
<g>
</g>
<g>
</g>
<g>
</g>
<g>
</g>
<g>
</g>
<g>
</g>
<g>
</g>
<g>
</g>
<g>
</g>
<g>
</g>
</svg>
