<?xml version="1.0" encoding="iso-8859-1"?>
<!-- Generator: Adobe Illustrator 19.0.0, SVG Export Plug-In . SVG Version: 6.00 Build 0)  -->
<svg version="1.1" id="Layer_1" xmlns="http://www.w3.org/2000/svg" xmlns:xlink="http://www.w3.org/1999/xlink" x="0px" y="0px"
	 viewBox="0 0 512 512" style="enable-background:new 0 0 512 512;" xml:space="preserve">
<g>
	<g>
		<path d="M290.133,204.8V85.333c0-5.12-3.413-8.533-8.533-8.533V25.6C281.6,11.093,270.507,0,256,0
			c-14.507,0-25.6,11.093-25.6,25.6v51.2c-5.12,0-8.533,3.413-8.533,8.533V204.8c-5.12,0-8.533,3.413-8.533,8.533v128
			c0,12.8,6.827,23.893,17.067,29.013V396.8c0,10.24,7.68,18.773,17.067,21.333v85.333c0,5.12,3.413,8.533,8.533,8.533
			c5.12,0,8.533-3.413,8.533-8.533v-85.333c9.387-1.707,17.067-10.24,17.067-21.333v-26.453
			c10.24-5.973,17.067-17.067,17.067-29.013v-128C298.667,209.067,295.253,204.8,290.133,204.8z M264.533,396.8
			c0,2.56-1.707,4.267-4.267,4.267h-8.533c-2.56,0-4.267-1.707-4.267-4.267v-21.333h17.067V396.8z M273.067,204.8h-34.133V93.867
			h34.133V204.8z"/>
	</g>
</g>
<g>
</g>
<g>
</g>
<g>
</g>
<g>
</g>
<g>
</g>
<g>
</g>
<g>
</g>
<g>
</g>
<g>
</g>
<g>
</g>
<g>
</g>
<g>
</g>
<g>
</g>
<g>
</g>
<g>
</g>
</svg>
