<?xml version="1.0" encoding="iso-8859-1"?>
<!-- Generator: Adobe Illustrator 19.0.0, SVG Export Plug-In . SVG Version: 6.00 Build 0)  -->
<svg version="1.1" id="Layer_1" xmlns="http://www.w3.org/2000/svg" xmlns:xlink="http://www.w3.org/1999/xlink" x="0px" y="0px"
	 viewBox="0 0 512 512" style="enable-background:new 0 0 512 512;" xml:space="preserve">
<g>
	<g>
		<path d="M486.4,315.733h-17.067v-102.4c0-5.12-3.413-8.533-8.533-8.533L452.267,8.533C452.267,4.267,448,0,443.733,0h-17.067
			c-4.267,0-8.533,3.413-8.533,8.533L409.6,204.8c-5.12,0-8.533,3.413-8.533,8.533v102.4H25.6c-14.507,0-25.6,11.093-25.6,25.6
			V460.8c0,14.507,11.093,25.6,25.6,25.6h17.067v17.067c0,5.12,3.413,8.533,8.533,8.533h68.267c5.12,0,8.533-3.413,8.533-8.533
			V486.4h256v17.067c0,5.12,3.413,8.533,8.533,8.533H460.8c5.12,0,8.533-3.413,8.533-8.533V486.4H486.4
			c14.507,0,25.6-11.093,25.6-25.6V341.333C512,326.827,500.907,315.733,486.4,315.733z M46.933,375.467
			c-6.827,0-12.8-5.973-12.8-12.8s5.973-12.8,12.8-12.8s12.8,5.973,12.8,12.8S53.76,375.467,46.933,375.467z M110.933,494.933h-51.2
			V486.4H76.8h17.067h17.067V494.933z M102.4,401.067c-5.12,0-8.533,3.413-8.533,8.533v59.733H76.8V409.6
			c0-14.507,11.093-25.6,25.6-25.6h307.2c14.507,0,25.6,11.093,25.6,25.6v59.733h-17.067V409.6c0-5.12-3.413-8.533-8.533-8.533
			H102.4z M136.533,443.733c0,5.12-3.413,8.533-8.533,8.533s-8.533-3.413-8.533-8.533v-17.067c0-5.12,3.413-8.533,8.533-8.533
			s8.533,3.413,8.533,8.533V443.733z M221.867,443.733c0,5.12-3.413,8.533-8.533,8.533c-5.12,0-8.533-3.413-8.533-8.533v-17.067
			c0-5.12,3.413-8.533,8.533-8.533c5.12,0,8.533,3.413,8.533,8.533V443.733z M307.2,443.733c0,5.12-3.413,8.533-8.533,8.533
			s-8.533-3.413-8.533-8.533v-17.067c0-5.12,3.413-8.533,8.533-8.533s8.533,3.413,8.533,8.533V443.733z M392.533,443.733
			c0,5.12-3.413,8.533-8.533,8.533s-8.533-3.413-8.533-8.533v-17.067c0-5.12,3.413-8.533,8.533-8.533s8.533,3.413,8.533,8.533
			V443.733z M452.267,494.933h-51.2V486.4h17.067H435.2h17.067V494.933z M452.267,315.733h-34.133v-25.6h34.133V315.733z
			 M452.267,273.067h-34.133V256h34.133V273.067z M452.267,238.933h-34.133v-17.067h34.133V238.933z"/>
	</g>
</g>
<g>
</g>
<g>
</g>
<g>
</g>
<g>
</g>
<g>
</g>
<g>
</g>
<g>
</g>
<g>
</g>
<g>
</g>
<g>
</g>
<g>
</g>
<g>
</g>
<g>
</g>
<g>
</g>
<g>
</g>
</svg>
