<?xml version="1.0" encoding="iso-8859-1"?>
<!-- Generator: Adobe Illustrator 19.0.0, SVG Export Plug-In . SVG Version: 6.00 Build 0)  -->
<svg version="1.1" id="Layer_1" xmlns="http://www.w3.org/2000/svg" xmlns:xlink="http://www.w3.org/1999/xlink" x="0px" y="0px"
	 viewBox="0 0 512 512" style="enable-background:new 0 0 512 512;" xml:space="preserve">
<g>
	<g>
		<g>
			<rect x="332.8" y="213.337" width="17.067" height="17.067"/>
			<rect x="221.867" y="273.07" width="17.067" height="17.067"/>
			<rect x="290.133" y="273.07" width="17.067" height="17.067"/>
			<rect x="358.4" y="273.07" width="17.067" height="17.067"/>
			<rect x="264.533" y="213.337" width="17.067" height="17.067"/>
			<polygon points="179.2,256 213.333,256 247.467,256 281.6,256 315.733,256 349.867,256 384,256 390.997,256 390.997,247.467 
				358.4,247.467 324.267,247.467 290.133,247.467 256,247.467 221.867,247.467 187.733,247.467 153.6,247.467 119.467,247.467 
				119.467,256 145.067,256 			"/>
			<path d="M68.267,290.133h17.067c3.004,0,5.777,1.579,7.313,4.139l23.117,38.528h280.474l23.117-38.528
				c1.536-2.56,4.309-4.139,7.313-4.139h17.067V179.2H68.267V290.133z M102.4,238.933c0-4.719,3.814-8.533,8.533-8.533v-25.6
				c0-4.719,3.814-8.533,8.533-8.533H153.6c4.719,0,8.533,3.814,8.533,8.533v25.6H179.2v-25.6c0-4.719,3.814-8.533,8.533-8.533
				h34.133c4.719,0,8.533,3.814,8.533,8.533v25.6h17.067v-25.6c0-4.719,3.814-8.533,8.533-8.533h34.133
				c4.719,0,8.533,3.814,8.533,8.533v25.6h17.067v-25.6c0-4.719,3.814-8.533,8.533-8.533H358.4c4.719,0,8.533,3.814,8.533,8.533
				v25.6h32.597c4.719,0,8.533,3.814,8.533,8.533v25.6c0,4.719-3.814,8.533-8.533,8.533h-6.997v25.6
				c0,4.719-3.814,8.533-8.533,8.533h-34.133c-4.719,0-8.533-3.814-8.533-8.533v-25.6h-17.067v25.6c0,4.719-3.814,8.533-8.533,8.533
				H281.6c-4.719,0-8.533-3.814-8.533-8.533v-25.6H256v25.6c0,4.719-3.814,8.533-8.533,8.533h-34.133
				c-4.719,0-8.533-3.814-8.533-8.533v-25.6h-17.067v25.6c0,4.719-3.814,8.533-8.533,8.533h-34.133
				c-4.719,0-8.533-3.814-8.533-8.533v-25.6h-25.6c-4.719,0-8.533-3.814-8.533-8.533V238.933z"/>
			<path d="M486.4,110.933H25.6c-14.114,0-25.6,11.486-25.6,25.6v238.933c0,14.114,11.486,25.6,25.6,25.6h460.8
				c14.114,0,25.6-11.486,25.6-25.6V136.533C512,122.419,500.514,110.933,486.4,110.933z M460.8,298.667
				c0,4.719-3.814,8.533-8.533,8.533h-20.77l-23.117,38.528c-1.536,2.56-4.309,4.139-7.313,4.139H110.933
				c-3.004,0-5.777-1.579-7.313-4.139L80.503,307.2h-20.77c-4.719,0-8.533-3.814-8.533-8.533v-128c0-4.719,3.814-8.533,8.533-8.533
				h392.533c4.719,0,8.533,3.814,8.533,8.533V298.667z"/>
			<rect x="128" y="213.337" width="17.067" height="17.067"/>
			<rect x="196.267" y="213.337" width="17.067" height="17.067"/>
			<rect x="153.6" y="273.07" width="17.067" height="17.067"/>
		</g>
	</g>
</g>
<g>
</g>
<g>
</g>
<g>
</g>
<g>
</g>
<g>
</g>
<g>
</g>
<g>
</g>
<g>
</g>
<g>
</g>
<g>
</g>
<g>
</g>
<g>
</g>
<g>
</g>
<g>
</g>
<g>
</g>
</svg>
