<?xml version="1.0" encoding="iso-8859-1"?>
<!-- Generator: Adobe Illustrator 19.0.0, SVG Export Plug-In . SVG Version: 6.00 Build 0)  -->
<svg version="1.1" id="Layer_1" xmlns="http://www.w3.org/2000/svg" xmlns:xlink="http://www.w3.org/1999/xlink" x="0px" y="0px"
	 viewBox="0 0 512 512" style="enable-background:new 0 0 512 512;" xml:space="preserve">
<g>
	<g>
		<path d="M174.933,51.2h-76.8c6.827,9.387,6.827,16.213,0,25.6h76.8C168.107,67.413,168.107,60.587,174.933,51.2z"/>
	</g>
</g>
<g>
	<g>
		<rect x="93.867" y="93.867" width="85.333" height="17.067"/>
	</g>
</g>
<g>
	<g>
		<path d="M161.28,5.12C159.573,1.707,157.013,0,153.6,0h-34.133c-3.413,0-5.973,1.707-7.68,5.12L97.28,34.133h78.507L161.28,5.12z"
			/>
	</g>
</g>
<g>
	<g>
		<path d="M418.133,0H384c-5.12,0-8.533,3.413-8.533,8.533V409.6c0,28.16-23.04,51.2-51.2,51.2H213.333
			c-25.6,0-46.08-18.773-50.347-42.667c9.387,0,16.213-7.68,16.213-17.067v-34.133c5.12,0,8.533-3.413,8.533-8.533V204.8
			c0-5.12-3.413-8.533-8.533-8.533V128H93.867v68.267c-5.12,0-8.533,3.413-8.533,8.533v153.6c0,5.12,3.413,8.533,8.533,8.533v34.133
			c0,9.387,7.68,17.067,17.067,17.067C115.2,471.04,159.573,512,213.333,512h110.933c56.32,0,102.4-46.08,102.4-102.4V8.533
			C426.667,4.267,423.253,0,418.133,0z M102.4,349.867V213.333h68.267v136.533H102.4z M162.133,401.067H153.6h-34.133h-8.533
			v-34.133h51.2V401.067z"/>
	</g>
</g>
<g>
</g>
<g>
</g>
<g>
</g>
<g>
</g>
<g>
</g>
<g>
</g>
<g>
</g>
<g>
</g>
<g>
</g>
<g>
</g>
<g>
</g>
<g>
</g>
<g>
</g>
<g>
</g>
<g>
</g>
</svg>
