<?xml version="1.0" encoding="iso-8859-1"?>
<!-- Generator: Adobe Illustrator 19.0.0, SVG Export Plug-In . SVG Version: 6.00 Build 0)  -->
<svg version="1.1" id="Layer_1" xmlns="http://www.w3.org/2000/svg" xmlns:xlink="http://www.w3.org/1999/xlink" x="0px" y="0px"
	 viewBox="0 0 503.828 503.828" style="enable-background:new 0 0 503.828 503.828;" xml:space="preserve">
<g>
	<g>
		<g>
			<path d="M302.276,277.093c-4.642,0-8.393,3.752-8.393,8.393c0,23.493-7.705,33.523-14.504,42.378
				c-3.76,4.893-7.579,9.929-9.459,16.376h-1.922c-0.613-11.356,0.974-19.112,2.434-26.036c2.216-10.525,4.314-20.463-2.417-36.05
				c-1.838-4.255-6.773-6.228-11.037-4.373c-4.264,1.838-6.211,6.774-4.373,11.029c4.616,10.693,3.408,16.426,1.402,25.936
				c-1.57,7.462-3.416,16.476-2.812,29.495h-3.366c-4.935-7.663-4.675-14.076-4.314-22.57c0.445-10.651,1.016-23.905-9.711-40.7
				c-2.484-3.911-7.68-5.053-11.583-2.56c-3.911,2.493-5.053,7.68-2.56,11.591c7.865,12.33,7.495,20.967,7.076,30.955
				c-0.428,10.047-0.781,21.37,8.393,34.304v47.843c0,27.774-22.595,50.361-50.361,50.361h-25.18
				c-27.774,0-50.361-22.587-50.361-50.361v-67.366h16.787c3.685,0,6.941-2.401,8.024-5.926l8.503-27.648h-33.314
				c-4.642,0-8.393-3.752-8.393-8.393c0-4.642,3.752-8.393,8.393-8.393h38.484l5.162-16.787h-43.646
				c-4.642,0-8.393-3.752-8.393-8.393c0-4.642,3.752-8.393,8.393-8.393h48.808l5.17-16.787h-53.978
				c-4.642,0-8.393-3.752-8.393-8.393c0-4.642,3.752-8.393,8.393-8.393h58.754v-16.787h-58.754c-4.642,0-8.393-3.752-8.393-8.393
				s3.752-8.393,8.393-8.393h58.754v-75.541c0-4.642-3.76-8.393-8.393-8.393V16.787c0-4.642-3.76-8.393-8.393-8.393h-25.18
				c0-4.642-3.76-8.393-8.393-8.393H50.473c-4.642,0-8.393,3.752-8.393,8.393h-25.18c-4.642,0-8.393,3.752-8.393,8.393v83.934
				c-4.642,0-8.393,3.752-8.393,8.393v75.541h58.754c4.633,0,8.393,3.752,8.393,8.393s-3.76,8.393-8.393,8.393H0.112v16.787h58.754
				c4.633,0,8.393,3.752,8.393,8.393c0,4.642-3.76,8.393-8.393,8.393H4.888l5.162,16.787h48.816c4.633,0,8.393,3.752,8.393,8.393
				c0,4.642-3.76,8.393-8.393,8.393H15.212l5.17,16.787h38.484c4.633,0,8.393,3.752,8.393,8.393c0,4.642-3.76,8.393-8.393,8.393
				H25.544l8.511,27.648c1.083,3.525,4.331,5.926,8.024,5.926h16.787v67.366c0,55.548,45.173,100.721,100.721,100.721h25.18
				c55.539,0,100.721-45.174,100.721-100.721v-50.47c0-4.935,2.468-8.385,7.202-14.546c7.579-9.879,17.979-23.409,17.979-52.602
				C310.669,280.845,306.909,277.093,302.276,277.093z M126.014,75.541V25.18h16.787v75.541h-16.787h-16.787V83.934h8.393
				C122.253,83.934,126.014,80.183,126.014,75.541z M58.866,16.787h50.361v50.361h-8.393c-4.642,0-8.393,3.752-8.393,8.393v25.18
				H75.653v-25.18c0-4.642-3.76-8.393-8.393-8.393h-8.393V16.787z M25.292,25.18h16.787v50.361c0,4.642,3.752,8.393,8.393,8.393
				h8.393v16.787H42.079H25.292V25.18z M84.046,159.475c-24.912,0-45.593-18.189-49.605-41.967h17.097
				c3.727,14.47,16.888,25.18,32.508,25.18c15.612,0,28.773-10.71,32.508-25.18h17.089
				C129.631,141.287,108.95,159.475,84.046,159.475z"/>
			<path d="M402.995,0.222h-58.754c-55.539,0-100.721,45.182-100.721,100.721v75.423c0,4.935-2.468,8.385-7.202,14.546
				c-7.588,9.879-17.979,23.409-17.979,52.602c0,4.642,3.752,8.393,8.393,8.393c4.642,0,8.393-3.752,8.393-8.393
				c0-23.493,7.705-33.523,14.504-42.378c3.76-4.893,7.571-9.929,9.459-16.376h1.922c0.613,11.356-0.974,19.112-2.434,26.036
				c-2.224,10.525-4.323,20.472,2.417,36.05c1.368,3.173,4.457,5.061,7.714,5.061c1.108,0,2.241-0.218,3.315-0.688
				c4.264-1.838,6.22-6.773,4.381-11.029c-4.625-10.685-3.408-16.418-1.402-25.927c1.57-7.462,3.416-16.476,2.812-29.503h3.357
				c4.944,7.663,4.684,14.084,4.323,22.578c-0.453,10.643-1.016,23.905,9.703,40.691c1.603,2.51,4.314,3.878,7.084,3.878
				c1.553,0,3.106-0.42,4.507-1.318c3.911-2.493,5.053-7.68,2.56-11.591c-7.873-12.33-7.504-20.958-7.076-30.947
				c0.428-10.047,0.789-21.361-8.393-34.312v-72.796c0-27.774,22.587-50.361,50.361-50.361h58.754
				c27.774,0,50.361,22.587,50.361,50.361v394.492c0,4.642,3.752,8.393,8.393,8.393h33.574c4.642,0,8.393-3.752,8.393-8.393V100.943
				C503.716,45.403,458.534,0.222,402.995,0.222z"/>
		</g>
	</g>
</g>
<g>
</g>
<g>
</g>
<g>
</g>
<g>
</g>
<g>
</g>
<g>
</g>
<g>
</g>
<g>
</g>
<g>
</g>
<g>
</g>
<g>
</g>
<g>
</g>
<g>
</g>
<g>
</g>
<g>
</g>
</svg>
