<?xml version="1.0" encoding="iso-8859-1"?>
<!-- Generator: Adobe Illustrator 19.0.0, SVG Export Plug-In . SVG Version: 6.00 Build 0)  -->
<svg version="1.1" id="Layer_1" xmlns="http://www.w3.org/2000/svg" xmlns:xlink="http://www.w3.org/1999/xlink" x="0px" y="0px"
	 viewBox="0 0 511.986 511.986" style="enable-background:new 0 0 511.986 511.986;" xml:space="preserve">
<g>
	<g>
		<g>
			<path d="M504.905,495.046c-16.956-2.918-28.075-15.812-27.426-25.907c0.297-12.649-9.423-20.831-19.727-27.219l16.485-16.482
				c3.337-3.336,3.337-8.738,0-12.066l-21.548-21.555l18.407-18.407c4.873-4.864,7.561-11.341,7.561-18.236
				c0-6.878-2.688-13.355-7.561-18.227L141.7,7.527c-10.069-10.035-26.419-10.035-36.471,0.008l-97.69,97.69
				c-10.052,10.052-10.052,26.411,0,36.471l329.404,329.395c4.881,4.881,11.349,7.561,18.236,7.561
				c6.895,0,13.372-2.679,18.236-7.561l18.407-18.407l21.547,21.547c1.672,1.672,3.849,2.5,6.033,2.5c2.185,0,4.369-0.828,6.033-2.5
				l19.869-19.866c7.584,4.387,15.234,9.431,15.126,14.03c-1.28,19.797,17.365,39.296,41.574,43.46
				c0.495,0.085,0.973,0.128,1.459,0.128c4.079,0,7.68-2.935,8.397-7.083C512.662,500.251,509.548,495.84,504.905,495.046z
				 M117.056,196.156c-0.947,0-1.903-0.154-2.816-0.469c-30.874-10.803-54.784-34.705-65.587-65.579
				c-1.075-3.089-0.29-6.528,2.031-8.849l70.579-70.579c2.313-2.321,5.777-3.098,8.849-2.031
				c30.874,10.803,54.775,34.714,65.579,65.587c1.075,3.089,0.29,6.537-2.031,8.849l-70.571,70.579
				C121.459,195.285,119.283,196.156,117.056,196.156z M213.594,292.711c-0.939,0-1.894-0.162-2.816-0.478
				c-30.874-10.803-54.775-34.705-65.579-65.579c-1.075-3.098-0.29-6.536,2.022-8.849l70.579-70.588
				c2.321-2.313,5.777-3.089,8.858-2.022c30.874,10.803,54.775,34.705,65.579,65.579c1.075,3.098,0.29,6.536-2.022,8.849
				l-70.588,70.588C218.005,291.832,215.821,292.711,213.594,292.711z M310.14,389.248c-0.947,0-1.903-0.154-2.816-0.469
				c-30.865-10.803-54.775-34.705-65.587-65.587c-1.075-3.089-0.29-6.528,2.022-8.849l70.588-70.579
				c2.313-2.321,5.777-3.098,8.849-2.031c30.882,10.812,54.784,34.722,65.587,65.587c1.075,3.089,0.29,6.528-2.031,8.849
				l-70.579,70.579C314.543,388.378,312.367,389.248,310.14,389.248z M367.356,440.551c-1.664,1.664-3.849,2.5-6.033,2.5
				c-2.185,0-4.369-0.836-6.033-2.5l-22.571-22.562c-3.328-3.337-3.328-8.738,0-12.066l73.199-73.208
				c3.337-3.328,8.738-3.328,12.066,0l22.571,22.571c3.337,3.337,3.337,8.73,0,12.066L367.356,440.551z M419.401,456.132
				l-15.514-15.514l36.736-36.736l15.514,15.522l-18.103,18.098c-0.016,0.015-0.031,0.032-0.047,0.047L419.401,456.132z"/>
			<path d="M129.419,66.649L66.656,129.42c9.122,21.914,26.351,39.142,48.273,48.265l62.763-62.754
				C168.561,93,151.341,75.78,129.419,66.649z M104.075,140.266c-1.673,1.673-3.857,2.5-6.033,2.5c-2.185,0-4.369-0.828-6.033-2.5
				l-6.042-6.033c-3.328-3.328-3.328-8.73,0-12.066c3.337-3.328,8.738-3.328,12.075,0l6.033,6.033
				C107.403,131.536,107.403,136.938,104.075,140.266z M122.174,85.968c3.328-3.337,8.73-3.337,12.066,0l6.033,6.033
				c3.328,3.337,3.328,8.738,0,12.066c-1.673,1.664-3.849,2.5-6.033,2.5s-4.369-0.836-6.033-2.5l-6.033-6.033
				C118.838,94.698,118.838,89.305,122.174,85.968z M128.207,152.341c-6.664-6.664-6.664-17.468,0-24.132
				c6.665-6.665,17.468-6.665,24.132,0L128.207,152.341z"/>
			<path d="M225.963,163.192L163.2,225.963c9.131,21.914,26.351,39.142,48.273,48.273l62.763-62.771
				C265.105,189.551,247.876,172.331,225.963,163.192z M200.61,236.817c-1.664,1.664-3.849,2.5-6.033,2.5
				c-2.185,0-4.361-0.836-6.033-2.5l-6.033-6.033c-3.328-3.328-3.328-8.73,0-12.066c3.337-3.337,8.738-3.337,12.066,0l6.033,6.033
				C203.947,228.088,203.947,233.489,200.61,236.817z M218.718,182.511c3.336-3.337,8.738-3.337,12.066,0l6.033,6.033
				c3.336,3.337,3.336,8.73,0,12.066c-1.664,1.664-3.849,2.5-6.033,2.5c-2.176,0-4.361-0.836-6.033-2.5l-6.033-6.033
				C215.39,191.241,215.39,185.848,218.718,182.511z M224.751,248.883c-6.665-6.665-6.665-17.468,0-24.132
				c6.665-6.664,17.468-6.664,24.132,0L224.751,248.883z"/>
			<path d="M322.506,259.735l-62.771,62.763c9.139,21.931,26.359,39.151,48.282,48.282l62.763-62.771
				C361.657,286.095,344.428,268.866,322.506,259.735z M297.154,333.361c-1.664,1.664-3.849,2.5-6.033,2.5
				c-2.185,0-4.369-0.836-6.033-2.5l-6.033-6.033c-3.337-3.337-3.337-8.738,0-12.066c3.337-3.337,8.73-3.337,12.066,0l6.033,6.033
				C300.49,324.623,300.49,330.024,297.154,333.361z M315.261,279.055c3.337-3.336,8.738-3.336,12.066,0l6.033,6.033
				c3.336,3.328,3.336,8.73,0,12.066c-1.664,1.664-3.849,2.5-6.033,2.5c-2.185,0-4.361-0.836-6.033-2.5l-6.033-6.033
				C311.933,287.784,311.933,282.383,315.261,279.055z M321.295,345.427c-6.664-6.664-6.664-17.468,0-24.132
				c6.665-6.665,17.468-6.665,24.132,0L321.295,345.427z"/>
			<polygon points="350.822,411.952 361.318,422.448 422.459,361.315 411.954,350.819 			"/>
		</g>
	</g>
</g>
<g>
</g>
<g>
</g>
<g>
</g>
<g>
</g>
<g>
</g>
<g>
</g>
<g>
</g>
<g>
</g>
<g>
</g>
<g>
</g>
<g>
</g>
<g>
</g>
<g>
</g>
<g>
</g>
<g>
</g>
</svg>
