<?xml version="1.0" encoding="iso-8859-1"?>
<!-- Generator: Adobe Illustrator 19.0.0, SVG Export Plug-In . SVG Version: 6.00 Build 0)  -->
<svg version="1.1" id="Layer_1" xmlns="http://www.w3.org/2000/svg" xmlns:xlink="http://www.w3.org/1999/xlink" x="0px" y="0px"
	 viewBox="0 0 512 512" style="enable-background:new 0 0 512 512;" xml:space="preserve">
<g>
	<g>
		<path d="M157.867,51.2h-76.8c6.827,9.387,6.827,16.213,0,25.6h76.8C151.04,67.413,151.04,60.587,157.867,51.2z"/>
	</g>
</g>
<g>
	<g>
		<rect x="76.8" y="93.867" width="85.333" height="17.067"/>
	</g>
</g>
<g>
	<g>
		<path d="M144.213,5.12c-1.707-3.413-4.267-5.12-7.68-5.12H102.4c-3.413,0-5.973,1.707-7.68,5.12L80.213,34.133h78.507
			L144.213,5.12z"/>
	</g>
</g>
<g>
	<g>
		<path d="M430.933,51.2h-76.8c6.827,9.387,6.827,16.213,0,25.6h76.8C424.107,67.413,424.107,60.587,430.933,51.2z"/>
	</g>
</g>
<g>
	<g>
		<rect x="349.867" y="93.867" width="85.333" height="17.067"/>
	</g>
</g>
<g>
	<g>
		<path d="M417.28,5.12C415.573,1.707,413.013,0,409.6,0h-34.133c-3.413,0-5.973,1.707-7.68,5.12L353.28,34.133h78.507L417.28,5.12z
			"/>
	</g>
</g>
<g>
	<g>
		<path d="M435.2,196.267V128h-85.333v68.267c-5.12,0-8.533,3.413-8.533,8.533v153.6c0,5.12,3.413,8.533,8.533,8.533V409.6
			c0,5.12,3.413,8.533,8.533,8.533h7.68c-4.267,23.893-24.747,42.667-50.347,42.667H196.267c-25.6,0-46.08-18.773-50.347-42.667
			h7.68c5.12,0,8.533-3.413,8.533-8.533v-42.667c5.12,0,8.533-3.413,8.533-8.533V204.8c0-5.12-3.413-8.533-8.533-8.533V128H76.8
			v68.267c-5.12,0-8.533,3.413-8.533,8.533v153.6c0,5.12,3.413,8.533,8.533,8.533V409.6c0,5.12,3.413,8.533,8.533,8.533h9.387
			C98.987,471.04,142.507,512,196.267,512h119.467c53.76,0,97.28-40.96,101.547-93.867h9.387c5.12,0,8.533-3.413,8.533-8.533
			v-42.667c5.12,0,8.533-3.413,8.533-8.533V204.8C443.733,200.533,440.32,196.267,435.2,196.267z M85.333,349.867V213.333H153.6
			v136.533H85.333z M315.733,494.933H196.267c-44.373,0-80.213-34.133-85.333-76.8H128c4.267,33.28,33.28,59.733,67.413,59.733
			H314.88c34.987,0,63.147-26.453,67.413-59.733h17.067C395.947,460.8,360.107,494.933,315.733,494.933z M426.667,349.867H358.4
			V213.333h68.267V349.867z"/>
	</g>
</g>
<g>
</g>
<g>
</g>
<g>
</g>
<g>
</g>
<g>
</g>
<g>
</g>
<g>
</g>
<g>
</g>
<g>
</g>
<g>
</g>
<g>
</g>
<g>
</g>
<g>
</g>
<g>
</g>
<g>
</g>
</svg>
