<?xml version="1.0" encoding="iso-8859-1"?>
<!-- Generator: Adobe Illustrator 19.0.0, SVG Export Plug-In . SVG Version: 6.00 Build 0)  -->
<svg version="1.1" id="Layer_1" xmlns="http://www.w3.org/2000/svg" xmlns:xlink="http://www.w3.org/1999/xlink" x="0px" y="0px"
	 viewBox="0 0 512 512" style="enable-background:new 0 0 512 512;" xml:space="preserve">
<g>
	<g>
		<g>
			<path d="M324.158,238.933c-9.412,0-17.067,7.654-17.067,17.067c0,9.412,7.654,17.067,17.067,17.067s17.067-7.654,17.067-17.067
				C341.225,246.588,333.571,238.933,324.158,238.933z"/>
			<path d="M93.867,298.667h119.467v-85.333H93.867V298.667z M110.933,230.4c0-4.71,3.814-8.533,8.533-8.533h68.267
				c4.719,0,8.533,3.823,8.533,8.533v42.667c0,4.71-3.814,8.533-8.533,8.533H179.2c0,4.71-3.814,8.533-8.533,8.533h-34.133
				c-4.719,0-8.533-3.823-8.533-8.533h-8.533c-4.719,0-8.533-3.823-8.533-8.533V230.4z"/>
			<path d="M409.492,238.933c-9.412,0-17.067,7.654-17.067,17.067c0,9.412,7.654,17.067,17.067,17.067
				c9.412,0,17.067-7.654,17.067-17.067C426.558,246.588,418.904,238.933,409.492,238.933z"/>
			<path d="M145.067,273.067h17.067c0-4.71,3.814-8.533,8.533-8.533h8.533v-25.6H128v25.6h8.533
				C141.252,264.533,145.067,268.356,145.067,273.067z"/>
			<path d="M469.333,110.933H42.667C19.14,110.933,0,130.074,0,153.6v204.8c0,23.526,19.14,42.667,42.667,42.667h426.667
				c23.526,0,42.667-19.14,42.667-42.667V153.6C512,130.074,492.86,110.933,469.333,110.933z M42.667,366.933
				c-4.71,0-8.533-3.823-8.533-8.533s3.823-8.533,8.533-8.533c4.71,0,8.533,3.823,8.533,8.533S47.377,366.933,42.667,366.933z
				 M42.667,162.133c-4.71,0-8.533-3.823-8.533-8.533c0-4.71,3.823-8.533,8.533-8.533c4.71,0,8.533,3.823,8.533,8.533
				C51.2,158.31,47.377,162.133,42.667,162.133z M230.4,307.2c0,4.71-3.814,8.533-8.533,8.533H85.333
				c-4.719,0-8.533-3.823-8.533-8.533V204.8c0-4.71,3.814-8.533,8.533-8.533h136.533c4.719,0,8.533,3.823,8.533,8.533V307.2z
				 M385.434,356.634c-0.512,0.094-1.024,0.145-1.544,0.145c-1.971,0-3.917-0.691-5.453-1.98c-1.954-1.621-3.081-4.028-3.081-6.554
				v-6.912h-17.067v6.912c0,2.526-1.126,4.932-3.072,6.554c-1.946,1.621-4.54,2.304-6.997,1.835
				c-48.555-8.934-83.797-51.251-83.797-100.634s35.243-91.699,83.797-100.634c2.458-0.478,5.052,0.213,6.997,1.835
				c1.946,1.621,3.072,4.028,3.072,6.554v6.912h17.067v-6.912c0-2.526,1.126-4.932,3.081-6.554c1.946-1.63,4.548-2.304,6.997-1.835
				c48.546,8.934,83.789,51.26,83.789,100.634C469.222,305.374,433.98,347.699,385.434,356.634z M469.333,366.933
				c-4.71,0-8.533-3.823-8.533-8.533s3.823-8.533,8.533-8.533s8.533,3.823,8.533,8.533S474.044,366.933,469.333,366.933z
				 M469.333,162.133c-4.71,0-8.533-3.823-8.533-8.533c0-4.71,3.823-8.533,8.533-8.533s8.533,3.823,8.533,8.533
				C477.867,158.31,474.044,162.133,469.333,162.133z"/>
			<path d="M392.425,174.643v4.557c0,4.71-3.814,8.533-8.533,8.533h-34.133c-4.719,0-8.533-3.823-8.533-8.533v-4.557
				c-35.157,11-59.733,43.716-59.733,81.357c0,37.641,24.576,70.357,59.733,81.357V332.8c0-4.71,3.814-8.533,8.533-8.533h34.133
				c4.719,0,8.533,3.823,8.533,8.533v4.557c35.157-10.999,59.733-43.716,59.733-81.357
				C452.158,218.359,427.582,185.643,392.425,174.643z M324.158,290.133c-18.825,0-34.133-15.309-34.133-34.133
				s15.309-34.133,34.133-34.133s34.133,15.309,34.133,34.133S342.983,290.133,324.158,290.133z M409.492,290.133
				c-18.825,0-34.133-15.309-34.133-34.133s15.309-34.133,34.133-34.133s34.133,15.309,34.133,34.133
				S428.316,290.133,409.492,290.133z"/>
		</g>
	</g>
</g>
<g>
</g>
<g>
</g>
<g>
</g>
<g>
</g>
<g>
</g>
<g>
</g>
<g>
</g>
<g>
</g>
<g>
</g>
<g>
</g>
<g>
</g>
<g>
</g>
<g>
</g>
<g>
</g>
<g>
</g>
</svg>
