<?xml version="1.0" encoding="iso-8859-1"?>
<!-- Generator: Adobe Illustrator 19.0.0, SVG Export Plug-In . SVG Version: 6.00 Build 0)  -->
<svg version="1.1" id="Layer_1" xmlns="http://www.w3.org/2000/svg" xmlns:xlink="http://www.w3.org/1999/xlink" x="0px" y="0px"
	 viewBox="0 0 512 512" style="enable-background:new 0 0 512 512;" xml:space="preserve">
<g>
	<g>
		<g>
			<path d="M256,298.667c-9.412,0-17.067,7.654-17.067,17.067c0,9.412,7.654,17.067,17.067,17.067
				c9.412,0,17.067-7.654,17.067-17.067C273.067,306.321,265.412,298.667,256,298.667z"/>
			<path d="M401.067,204.8h-25.6v-34.159c0-9.395-7.637-17.041-17.041-17.041H153.574c-9.395,0-17.041,7.646-17.041,17.041V204.8
				h-25.6c-9.404,0-17.067,7.654-17.067,17.067v179.2c0,9.412,7.663,17.067,17.067,17.067h102.4v34.133
				c0,9.412,7.663,17.067,17.067,17.067v25.6c0,9.412,7.663,17.067,17.067,17.067h17.067c9.412,0,17.067-7.654,17.067-17.067v-25.6
				c9.412,0,17.067-7.654,17.067-17.067v-34.133h102.4c9.412,0,17.067-7.654,17.067-17.067v-179.2
				C418.133,212.454,410.479,204.8,401.067,204.8z M273.067,452.267h-34.133H230.4v-34.133h51.2l0.017,34.133H273.067z M256,349.867
				c-18.825,0-34.133-15.309-34.133-34.133c0-18.825,15.309-34.133,34.133-34.133s34.133,15.309,34.133,34.133
				C290.133,334.558,274.825,349.867,256,349.867z M358.4,204.8H153.592l-0.017-34.133l204.826-0.026V204.8z"/>
			<path d="M349.867,42.667H162.133c-9.412,0-17.067,7.654-17.067,17.067c0,9.412,7.654,17.067,17.067,17.067h187.733
				c9.412,0,17.067-7.654,17.067-17.067C366.933,50.321,359.279,42.667,349.867,42.667z M187.733,68.267
				c-4.71,0-8.533-3.823-8.533-8.533c0-4.71,3.823-8.533,8.533-8.533s8.533,3.823,8.533,8.533
				C196.267,64.444,192.444,68.267,187.733,68.267z M221.867,68.267c-4.71,0-8.533-3.823-8.533-8.533
				c0-4.71,3.823-8.533,8.533-8.533c4.71,0,8.533,3.823,8.533,8.533C230.4,64.444,226.577,68.267,221.867,68.267z M256,68.267
				c-4.71,0-8.533-3.823-8.533-8.533c0-4.71,3.823-8.533,8.533-8.533c4.71,0,8.533,3.823,8.533,8.533
				C264.533,64.444,260.71,68.267,256,68.267z M290.133,68.267c-4.71,0-8.533-3.823-8.533-8.533c0-4.71,3.823-8.533,8.533-8.533
				c4.71,0,8.533,3.823,8.533,8.533C298.667,64.444,294.844,68.267,290.133,68.267z M324.267,68.267
				c-4.71,0-8.533-3.823-8.533-8.533c0-4.71,3.823-8.533,8.533-8.533s8.533,3.823,8.533,8.533
				C332.8,64.444,328.977,68.267,324.267,68.267z"/>
			<path d="M401.067,0H110.933c-14.114,0-25.6,11.486-25.6,25.6v68.267c0,14.114,11.486,25.6,25.6,25.6h290.133
				c14.114,0,25.6-11.486,25.6-25.6V25.6C426.667,11.486,415.181,0,401.067,0z M349.867,93.867H162.133
				C143.309,93.867,128,78.558,128,59.733c0-18.825,15.309-34.133,34.133-34.133h187.733C368.691,25.6,384,40.909,384,59.733
				C384,78.558,368.691,93.867,349.867,93.867z"/>
		</g>
	</g>
</g>
<g>
</g>
<g>
</g>
<g>
</g>
<g>
</g>
<g>
</g>
<g>
</g>
<g>
</g>
<g>
</g>
<g>
</g>
<g>
</g>
<g>
</g>
<g>
</g>
<g>
</g>
<g>
</g>
<g>
</g>
</svg>
