<?xml version="1.0" encoding="iso-8859-1"?>
<!-- Generator: Adobe Illustrator 19.0.0, SVG Export Plug-In . SVG Version: 6.00 Build 0)  -->
<svg version="1.1" id="Layer_1" xmlns="http://www.w3.org/2000/svg" xmlns:xlink="http://www.w3.org/1999/xlink" x="0px" y="0px"
	 viewBox="0 0 512 512" style="enable-background:new 0 0 512 512;" xml:space="preserve">
<g>
	<g>
		<g>
			<rect x="110.931" y="187.737" width="68.267" height="17.067"/>
			<rect x="110.931" y="256.003" width="68.267" height="17.067"/>
			<path d="M443.733,0H409.6c-4.719,0-8.533,3.814-8.533,8.533v400.956c0,28.297-22.972,51.311-51.2,51.311h-128
				c-28.237,0-51.2-22.963-51.2-51.2c9.404,0,17.067-7.654,17.067-17.067v-17.067c4.71,0,8.533-3.814,8.533-8.533
				c0-4.719-3.823-8.533-8.533-8.533v-18.799c20.258-7.834,42.667-41.114,42.667-75.068V102.4c0-9.412-7.663-17.067-17.067-17.067
				h-17.067V17.067C196.267,7.654,188.604,0,179.2,0h-68.267c-9.412,0-17.067,7.654-17.067,17.067v68.267H76.8
				c-9.412,0-17.067,7.654-17.067,17.067v162.133c0,33.954,22.409,67.234,42.667,75.068V358.4c-4.719,0-8.533,3.814-8.533,8.533
				c0,4.719,3.814,8.533,8.533,8.533v17.067c0,9.412,7.654,17.067,17.067,17.067c0,56.465,45.935,102.4,102.4,102.4h128
				c56.465,0,102.4-45.986,102.4-102.511V8.533C452.267,3.814,448.444,0,443.733,0z M93.867,179.2c0-4.719,3.814-8.533,8.533-8.533
				h85.333c4.71,0,8.533,3.814,8.533,8.533v34.133c0,4.719-3.823,8.533-8.533,8.533H102.4c-4.719,0-8.533-3.814-8.533-8.533V179.2z
				 M102.4,290.133c-4.719,0-8.533-3.814-8.533-8.533v-34.133c0-4.719,3.814-8.533,8.533-8.533h85.333
				c4.71,0,8.533,3.814,8.533,8.533V281.6c0,4.719-3.823,8.533-8.533,8.533H102.4z M170.667,341.333V358.4h-51.2v-17.067H170.667z
				 M128,392.533h-8.533v-17.067h51.208l0.009,17.067h-8.55H128z"/>
		</g>
	</g>
</g>
<g>
</g>
<g>
</g>
<g>
</g>
<g>
</g>
<g>
</g>
<g>
</g>
<g>
</g>
<g>
</g>
<g>
</g>
<g>
</g>
<g>
</g>
<g>
</g>
<g>
</g>
<g>
</g>
<g>
</g>
</svg>
