<?xml version="1.0" encoding="iso-8859-1"?>
<!-- Generator: Adobe Illustrator 19.0.0, SVG Export Plug-In . SVG Version: 6.00 Build 0)  -->
<svg version="1.1" id="Layer_1" xmlns="http://www.w3.org/2000/svg" xmlns:xlink="http://www.w3.org/1999/xlink" x="0px" y="0px"
	 viewBox="0 0 512 512" style="enable-background:new 0 0 512 512;" xml:space="preserve">
<g>
	<g>
		<g>
			<path d="M264.532,205.568v7.765c0,4.71-3.823,8.533-8.533,8.533s-8.533-3.823-8.533-8.533v-7.765
				c-24.175,4.087-42.667,25.114-42.667,50.432s18.492,46.345,42.667,50.432v-7.765c0-4.71,3.823-8.533,8.533-8.533
				s8.533,3.823,8.533,8.533v7.765c24.175-4.087,42.667-25.114,42.667-50.432S288.707,209.655,264.532,205.568z M234.699,268.8
				c-7.049,0-12.766-5.734-12.766-12.8c0-7.066,5.717-12.8,12.766-12.8s12.766,5.734,12.766,12.8
				C247.465,263.066,241.748,268.8,234.699,268.8z M277.366,268.8c-7.049,0-12.766-5.734-12.766-12.8
				c0-7.066,5.717-12.8,12.766-12.8s12.766,5.734,12.766,12.8C290.132,263.066,284.414,268.8,277.366,268.8z"/>
			<path d="M418.132,205.568v7.765c0,4.71-3.823,8.533-8.533,8.533s-8.533-3.823-8.533-8.533v-7.765
				c-24.175,4.087-42.667,25.114-42.667,50.432s18.492,46.345,42.667,50.432v-7.765c0-4.71,3.823-8.533,8.533-8.533
				s8.533,3.823,8.533,8.533v7.765c24.175-4.087,42.667-25.114,42.667-50.432S442.307,209.655,418.132,205.568z M388.299,268.8
				c-7.049,0-12.766-5.734-12.766-12.8c0-7.066,5.717-12.8,12.766-12.8c7.049,0,12.766,5.734,12.766,12.8
				C401.065,263.066,395.348,268.8,388.299,268.8z M430.966,268.8c-7.049,0-12.766-5.734-12.766-12.8
				c0-7.066,5.717-12.8,12.766-12.8c7.049,0,12.766,5.734,12.766,12.8C443.732,263.066,438.014,268.8,430.966,268.8z"/>
			<path d="M110.932,205.568v7.765c0,4.71-3.823,8.533-8.533,8.533c-4.71,0-8.533-3.823-8.533-8.533v-7.765
				C69.69,209.655,51.198,230.682,51.198,256s18.492,46.345,42.667,50.432v-7.765c0-4.71,3.823-8.533,8.533-8.533
				c4.71,0,8.533,3.823,8.533,8.533v7.765c24.175-4.087,42.667-25.114,42.667-50.432S135.107,209.655,110.932,205.568z
				 M81.099,268.8c-7.049,0-12.766-5.734-12.766-12.8c0-7.066,5.717-12.8,12.766-12.8c7.049,0,12.766,5.734,12.766,12.8
				C93.865,263.066,88.148,268.8,81.099,268.8z M123.766,268.8c-7.049,0-12.766-5.734-12.766-12.8c0-7.066,5.717-12.8,12.766-12.8
				s12.766,5.734,12.766,12.8C136.532,263.066,130.814,268.8,123.766,268.8z"/>
			<path d="M477.884,145.067H34.116C15.3,145.067,0,160.367,0,179.183v153.634c0,18.816,15.3,34.116,34.116,34.116h443.767
				c18.816,0,34.116-15.3,34.116-34.116V179.183C512,160.367,496.7,145.067,477.884,145.067z M102.4,324.267
				c-37.641,0-68.267-30.626-68.267-68.267c0-37.64,30.626-68.267,68.267-68.267c37.641,0,68.267,30.626,68.267,68.267
				C170.667,293.641,140.041,324.267,102.4,324.267z M256,324.267c-37.641,0-68.267-30.626-68.267-68.267
				c0-37.64,30.626-68.267,68.267-68.267c37.641,0,68.267,30.626,68.267,68.267C324.267,293.641,293.641,324.267,256,324.267z
				 M409.6,324.267c-37.641,0-68.267-30.626-68.267-68.267c0-37.64,30.626-68.267,68.267-68.267
				c37.641,0,68.267,30.626,68.267,68.267C477.867,293.641,447.241,324.267,409.6,324.267z"/>
		</g>
	</g>
</g>
<g>
</g>
<g>
</g>
<g>
</g>
<g>
</g>
<g>
</g>
<g>
</g>
<g>
</g>
<g>
</g>
<g>
</g>
<g>
</g>
<g>
</g>
<g>
</g>
<g>
</g>
<g>
</g>
<g>
</g>
</svg>
