<?xml version="1.0" encoding="iso-8859-1"?>
<!-- Generator: Adobe Illustrator 19.0.0, SVG Export Plug-In . SVG Version: 6.00 Build 0)  -->
<svg version="1.1" id="Layer_1" xmlns="http://www.w3.org/2000/svg" xmlns:xlink="http://www.w3.org/1999/xlink" x="0px" y="0px"
	 viewBox="0 0 512 512" style="enable-background:new 0 0 512 512;" xml:space="preserve">
<g>
	<g>
		<g>
			<path d="M76.8,286.601l29.133,29.133h300.134l29.133-29.133v-90.334H76.8V286.601z M93.867,230.4
				c0-4.719,3.823-8.533,8.533-8.533h307.2c4.719,0,8.533,3.814,8.533,8.533v34.133c0,4.719-3.814,8.533-8.533,8.533H102.4
				c-4.71,0-8.533-3.814-8.533-8.533V230.4z"/>
			<rect x="110.933" y="238.937" width="290.133" height="17.067"/>
			<path d="M486.4,110.933H25.6c-14.114,0-25.6,11.486-25.6,25.6v238.933c0,14.114,11.486,25.6,25.6,25.6h460.8
				c14.114,0,25.6-11.486,25.6-25.6V136.533C512,122.419,500.514,110.933,486.4,110.933z M452.267,290.133
				c0,2.27-0.896,4.437-2.5,6.033L415.633,330.3c-1.596,1.604-3.763,2.5-6.033,2.5H102.4c-2.261,0-4.437-0.896-6.033-2.5
				l-34.133-34.133c-1.604-1.596-2.5-3.763-2.5-6.033v-102.4c0-4.719,3.823-8.533,8.533-8.533h375.467
				c4.719,0,8.533,3.814,8.533,8.533V290.133z"/>
		</g>
	</g>
</g>
<g>
</g>
<g>
</g>
<g>
</g>
<g>
</g>
<g>
</g>
<g>
</g>
<g>
</g>
<g>
</g>
<g>
</g>
<g>
</g>
<g>
</g>
<g>
</g>
<g>
</g>
<g>
</g>
<g>
</g>
</svg>
