<?xml version="1.0" encoding="iso-8859-1"?>
<!-- Generator: Adobe Illustrator 19.0.0, SVG Export Plug-In . SVG Version: 6.00 Build 0)  -->
<svg version="1.1" id="Layer_1" xmlns="http://www.w3.org/2000/svg" xmlns:xlink="http://www.w3.org/1999/xlink" x="0px" y="0px"
	 viewBox="0 0 511.691 511.691" style="enable-background:new 0 0 511.691 511.691;" xml:space="preserve">
<g>
	<g>
		<path d="M510.293,425.232l-27.307-42.667l8.533-5.12c3.413-2.56,4.267-6.827,3.413-10.24l-34.133-84.48v-75.093v-17.067h25.6
			c5.12,0,8.533-3.413,8.533-8.533v-51.2c0-5.12-3.413-8.533-8.533-8.533h-34.133V54.032c0-5.12-3.413-8.533-8.533-8.533H409.6
			v34.133c0,5.12-3.413,8.533-8.533,8.533c-5.12,0-8.533-3.413-8.533-8.533V45.499H358.4v42.667c0,5.12-3.413,8.533-8.533,8.533
			s-8.533-3.413-8.533-8.533V45.499H307.2v34.133c0,5.12-3.413,8.533-8.533,8.533s-8.533-3.413-8.533-8.533V45.499H256v42.667
			c0,5.12-3.413,8.533-8.533,8.533s-8.533-3.413-8.533-8.533V45.499H204.8v34.133c0,5.12-3.413,8.533-8.533,8.533
			s-8.533-3.413-8.533-8.533V45.499H153.6v42.667c0,5.12-3.413,8.533-8.533,8.533c-5.12,0-8.533-3.413-8.533-8.533V45.499H102.4
			v34.133c0,5.12-3.413,8.533-8.533,8.533c-5.12,0-8.533-3.413-8.533-8.533V45.499H51.2c-5.12,0-8.533,4.267-8.533,8.533v68.267
			H8.533c-5.12,0-8.533,3.413-8.533,8.533v51.2c0,5.12,3.413,8.533,8.533,8.533h25.6v17.067c0,0,0,0,0,0.853s0,1.707,0.853,2.56
			v0.853c0,0.853,0.853,1.707,1.707,2.56s0.853,0.853,1.707,1.707l296.96,144.213l67.413,67.413c1.707,1.707,3.413,2.56,5.973,2.56
			c1.707,0,3.413-0.853,5.12-1.707l11.947-7.68l27.307,41.813c0.853,1.707,3.413,3.413,5.12,3.413c0.853,0,0.853,0,1.707,0
			c1.707,0,3.413-0.853,4.267-1.707l42.667-28.16C512,434.619,512.853,428.646,510.293,425.232z M460.8,139.366h17.067v34.133H460.8
			V139.366z M34.133,173.499H17.067v-34.133h17.067V173.499z M51.2,199.099v-17.067v-42.667h392.533v42.667v17.067H51.2z
			 M466.773,373.179l-11.947,8.533l-43.52,29.013l-55.467-55.467l52.907-32.427l40.96-24.747l28.16,69.12L466.773,373.179z"/>
	</g>
</g>
<g>
</g>
<g>
</g>
<g>
</g>
<g>
</g>
<g>
</g>
<g>
</g>
<g>
</g>
<g>
</g>
<g>
</g>
<g>
</g>
<g>
</g>
<g>
</g>
<g>
</g>
<g>
</g>
<g>
</g>
</svg>
