<?xml version="1.0" encoding="iso-8859-1"?>
<!-- Generator: Adobe Illustrator 19.0.0, SVG Export Plug-In . SVG Version: 6.00 Build 0)  -->
<svg version="1.1" id="Layer_1" xmlns="http://www.w3.org/2000/svg" xmlns:xlink="http://www.w3.org/1999/xlink" x="0px" y="0px"
	 viewBox="0 0 512 512" style="enable-background:new 0 0 512 512;" xml:space="preserve">
<g>
	<g>
		<g>
			<path d="M119.467,174.933H153.6c4.71,0,8.533-3.823,8.533-8.533v-8.533h-51.2v8.533
				C110.933,171.11,114.756,174.933,119.467,174.933z"/>
			<path d="M151.838,217.6c15.087,0,27.358,12.271,27.358,27.358v15.309h15.829c12.971-32.828,12.971-69.572,0-102.4h-15.829v8.533
				c0,14.114-11.477,25.6-25.6,25.6h-34.133c-14.114,0-25.6-11.486-25.6-25.6v-8.533H78.042c-12.979,32.828-12.979,69.572,0,102.4
				h15.821v-15.309c0-15.087,12.279-27.358,27.366-27.358H151.838z"/>
			<path d="M469.333,354.133c23.526,0,42.667-19.14,42.667-42.667v-204.8C512,83.14,492.86,64,469.333,64H42.667
				C19.14,64,0,83.14,0,106.667v204.8c0,23.526,19.14,42.667,42.667,42.667h68.267v34.133c0,32.93,26.803,59.733,59.733,59.733
				h332.8c4.719,0,8.533-3.814,8.533-8.533v-34.133c0-4.719-3.814-8.533-8.533-8.533H179.2c-9.412,0-17.067-7.654-17.067-17.067
				v-25.6H469.333z M469.333,98.133c4.71,0,8.533,3.823,8.533,8.533s-3.823,8.533-8.533,8.533s-8.533-3.823-8.533-8.533
				S464.623,98.133,469.333,98.133z M469.333,302.933c4.71,0,8.533,3.823,8.533,8.533S474.044,320,469.333,320
				s-8.533-3.823-8.533-8.533S464.623,302.933,469.333,302.933z M294.955,145.886c1.374-3.098,4.437-5.086,7.808-5.086h128.341
				c3.371,0,6.434,1.988,7.808,5.086c17.749,40.149,17.749,86.212,0,126.362c-1.374,3.098-4.437,5.086-7.808,5.086H302.763
				c-3.371,0-6.434-1.988-7.808-5.086C277.205,232.098,277.205,186.035,294.955,145.886z M42.667,320
				c-4.71,0-8.533-3.823-8.533-8.533s3.823-8.533,8.533-8.533c4.71,0,8.533,3.823,8.533,8.533S47.377,320,42.667,320z M42.667,115.2
				c-4.71,0-8.533-3.823-8.533-8.533s3.823-8.533,8.533-8.533c4.71,0,8.533,3.823,8.533,8.533S47.377,115.2,42.667,115.2z
				 M93.867,302.933v-25.6H72.363c-3.371,0-6.434-1.988-7.808-5.086c-17.749-40.149-17.749-86.212,0-126.362
				c1.374-3.098,4.437-5.086,7.808-5.086h128.341c3.371,0,6.434,1.988,7.808,5.086c17.749,40.149,17.749,86.212,0,126.362
				c-1.374,3.098-4.437,5.086-7.808,5.086H179.2v25.6c0,11.123-7.135,20.608-17.067,24.132V320c0-4.719-3.814-8.533-8.533-8.533
				h-34.133c-4.719,0-8.533,3.814-8.533,8.533v7.065C101.002,323.542,93.867,314.056,93.867,302.933z M179.2,413.867h315.733v17.067
				H170.667c-23.526,0-42.667-19.14-42.667-42.667V345.6v-17.067h17.067V345.6v34.133
				C145.067,398.558,160.375,413.867,179.2,413.867z"/>
			<path d="M425.421,260.267c12.979-32.828,12.979-69.572,0-102.4H308.446c-12.979,32.828-12.979,69.572,0,102.4H425.421z
				 M392.533,183.467c0-4.719,3.814-8.533,8.533-8.533c4.719,0,8.533,3.814,8.533,8.533v17.067c0,4.719-3.814,8.533-8.533,8.533
				c-4.719,0-8.533-3.814-8.533-8.533V183.467z M349.867,234.667c0-9.429,7.646-17.067,17.067-17.067S384,225.237,384,234.667v4.267
				c0,2.355-1.911,4.267-4.267,4.267h-25.6c-2.355,0-4.267-1.911-4.267-4.267V234.667z M324.267,183.467
				c0-4.719,3.814-8.533,8.533-8.533c4.719,0,8.533,3.814,8.533,8.533v17.067c0,4.719-3.814,8.533-8.533,8.533
				c-4.719,0-8.533-3.814-8.533-8.533V183.467z"/>
			<path d="M162.133,244.958c0-5.675-4.617-10.291-10.291-10.291h-30.618c-5.675,0-10.291,4.617-10.291,10.291v6.775h51.2V244.958z"
				/>
			<rect x="110.933" y="268.803" width="51.2" height="17.067"/>
		</g>
	</g>
</g>
<g>
</g>
<g>
</g>
<g>
</g>
<g>
</g>
<g>
</g>
<g>
</g>
<g>
</g>
<g>
</g>
<g>
</g>
<g>
</g>
<g>
</g>
<g>
</g>
<g>
</g>
<g>
</g>
<g>
</g>
</svg>
