<?xml version="1.0" encoding="iso-8859-1"?>
<!-- Generator: Adobe Illustrator 19.0.0, SVG Export Plug-In . SVG Version: 6.00 Build 0)  -->
<svg version="1.1" id="Layer_1" xmlns="http://www.w3.org/2000/svg" xmlns:xlink="http://www.w3.org/1999/xlink" x="0px" y="0px"
	 viewBox="0 0 512 512" style="enable-background:new 0 0 512 512;" xml:space="preserve">
<g>
	<g>
		<g>
			<path d="M469.333,354.133c23.526,0,42.667-19.14,42.667-42.667v-204.8C512,83.14,492.86,64,469.333,64H42.667
				C19.14,64,0,83.14,0,106.667v204.8c0,23.526,19.14,42.667,42.667,42.667h68.267v34.133c0,32.939,26.803,59.733,59.733,59.733
				h332.8c4.719,0,8.533-3.823,8.533-8.533v-34.133c0-4.71-3.814-8.533-8.533-8.533H179.2c-9.412,0-17.067-7.654-17.067-17.067
				v-25.6H469.333z M469.333,320c-4.71,0-8.533-3.823-8.533-8.533s3.823-8.533,8.533-8.533s8.533,3.823,8.533,8.533
				S474.044,320,469.333,320z M469.333,98.133c4.71,0,8.533,3.823,8.533,8.533s-3.823,8.533-8.533,8.533s-8.533-3.823-8.533-8.533
				S464.623,98.133,469.333,98.133z M348.22,108.433c2.458-0.478,5.052,0.213,6.997,1.835c1.946,1.621,3.072,4.028,3.072,6.554
				v6.912h17.067v-6.912c0-2.526,1.126-4.932,3.081-6.554c1.937-1.63,4.54-2.304,6.997-1.835
				c48.546,8.934,83.789,51.26,83.789,100.634c0,49.374-35.243,91.699-83.789,100.634c-0.512,0.094-1.024,0.145-1.544,0.145
				c-1.971,0-3.917-0.691-5.453-1.98c-1.954-1.621-3.081-4.028-3.081-6.554V294.4h-17.067v6.912c0,2.526-1.126,4.932-3.072,6.554
				c-1.954,1.621-4.548,2.304-6.997,1.835c-48.555-8.934-83.797-51.251-83.797-100.634
				C264.422,159.684,299.665,117.367,348.22,108.433z M42.667,98.133c4.71,0,8.533,3.823,8.533,8.533s-3.823,8.533-8.533,8.533
				c-4.71,0-8.533-3.823-8.533-8.533S37.956,98.133,42.667,98.133z M42.667,320c-4.71,0-8.533-3.823-8.533-8.533
				s3.823-8.533,8.533-8.533c4.71,0,8.533,3.823,8.533,8.533S47.377,320,42.667,320z M179.2,413.867h315.733v17.067H170.667
				c-23.526,0-42.667-19.14-42.667-42.667V345.6v-17.067h17.067V345.6v34.133C145.067,398.558,160.375,413.867,179.2,413.867z
				 M153.6,311.467h-34.133c-4.719,0-8.533,3.823-8.533,8.533v6.963c-9.907-3.533-17.067-12.919-17.067-24.03v-0.751
				c-36.582-16.666-59.93-52.565-59.93-93.116c0-56.516,45.978-102.502,102.494-102.502c56.516,0,102.502,45.986,102.502,102.502
				c0,40.457-23.279,76.322-59.733,93.03v0.836c0,11.11-7.159,20.497-17.067,24.03V320
				C162.133,315.29,158.319,311.467,153.6,311.467z"/>
			<path d="M341.225,290.423v-4.557c0-4.71,3.814-8.533,8.533-8.533h34.133c4.719,0,8.533,3.823,8.533,8.533v4.557
				c35.157-10.999,59.733-43.716,59.733-81.357c0-37.641-24.576-70.357-59.733-81.357v4.557c0,4.71-3.814,8.533-8.533,8.533h-34.133
				c-4.719,0-8.533-3.823-8.533-8.533v-4.557c-35.157,10.999-59.733,43.716-59.733,81.357
				C281.492,246.707,306.068,279.424,341.225,290.423z M409.492,174.933c18.825,0,34.133,15.309,34.133,34.133
				c0,18.825-15.309,34.133-34.133,34.133s-34.133-15.309-34.133-34.133C375.358,190.242,390.667,174.933,409.492,174.933z
				 M290.025,209.067c0-18.825,15.309-34.133,34.133-34.133s34.133,15.309,34.133,34.133c0,18.825-15.309,34.133-34.133,34.133
				S290.025,227.891,290.025,209.067z"/>
			<path d="M409.492,226.133c9.412,0,17.067-7.654,17.067-17.067c0-9.412-7.654-17.067-17.067-17.067
				c-9.412,0-17.067,7.654-17.067,17.067C392.425,218.479,400.079,226.133,409.492,226.133z"/>
			<path d="M341.225,209.067c0-9.412-7.654-17.067-17.067-17.067s-17.067,7.654-17.067,17.067c0,9.412,7.654,17.067,17.067,17.067
				S341.225,218.479,341.225,209.067z"/>
			<path d="M119.467,157.867H153.6c4.71,0,8.533-3.831,8.533-8.533v-21.734c-8.115-2.569-16.742-3.968-25.702-3.968
				c-8.875,0-17.442,1.374-25.498,3.891v21.811C110.933,154.035,114.756,157.867,119.467,157.867z"/>
			<rect x="110.933" y="268.803" width="51.2" height="17.067"/>
			<path d="M162.133,244.958c0-5.675-4.617-10.291-10.291-10.291h-30.618c-5.675,0-10.291,4.617-10.291,10.291v6.775h51.2V244.958z"
				/>
			<path d="M151.841,217.6c15.087,0,27.358,12.271,27.358,27.358v38.025c26.274-15.104,42.667-42.914,42.667-73.916
				c0-31.522-17.203-59.034-42.667-73.847v14.114c0,14.114-11.486,25.6-25.6,25.6h-34.133c-14.114,0-25.6-11.486-25.6-25.6V135.1
				c-25.574,14.78-42.863,42.368-42.863,73.967c0,31.104,16.461,58.957,42.863,74.027v-38.135c0-15.087,12.279-27.358,27.358-27.358
				H151.841z"/>
		</g>
	</g>
</g>
<g>
</g>
<g>
</g>
<g>
</g>
<g>
</g>
<g>
</g>
<g>
</g>
<g>
</g>
<g>
</g>
<g>
</g>
<g>
</g>
<g>
</g>
<g>
</g>
<g>
</g>
<g>
</g>
<g>
</g>
</svg>
