<?xml version="1.0" encoding="iso-8859-1"?>
<!-- Generator: Adobe Illustrator 19.0.0, SVG Export Plug-In . SVG Version: 6.00 Build 0)  -->
<svg version="1.1" id="Layer_1" xmlns="http://www.w3.org/2000/svg" xmlns:xlink="http://www.w3.org/1999/xlink" x="0px" y="0px"
	 viewBox="0 0 512 512" style="enable-background:new 0 0 512 512;" xml:space="preserve">
<g>
	<g>
		<g>
			<path d="M256,298.667c-18.825,0-34.133,15.309-34.133,34.133v17.067h68.267V332.8C290.133,313.975,274.825,298.667,256,298.667z"
				/>
			<rect x="307.2" y="170.67" width="34.133" height="68.267"/>
			<rect x="170.667" y="170.67" width="34.133" height="68.267"/>
			<path d="M395.435,128H116.565c-34.099,81.664-34.099,174.336,0,256h278.869C429.534,302.336,429.534,209.664,395.435,128z
				 M153.6,247.467v-85.333c0-4.71,3.823-8.533,8.533-8.533h51.2c4.71,0,8.533,3.823,8.533,8.533v85.333
				c0,4.71-3.823,8.533-8.533,8.533h-51.2C157.423,256,153.6,252.177,153.6,247.467z M307.2,358.4c0,4.71-3.823,8.533-8.533,8.533
				h-85.333c-4.71,0-8.533-3.823-8.533-8.533v-25.6c0-28.237,22.963-51.2,51.2-51.2s51.2,22.963,51.2,51.2V358.4z M358.4,247.467
				c0,4.71-3.823,8.533-8.533,8.533h-51.2c-4.71,0-8.533-3.823-8.533-8.533v-85.333c0-4.71,3.823-8.533,8.533-8.533h51.2
				c4.71,0,8.533,3.823,8.533,8.533V247.467z"/>
			<path d="M452.267,0H59.733C26.795,0,0,26.795,0,59.733v392.533C0,485.205,26.795,512,59.733,512h392.533
				C485.205,512,512,485.205,512,452.267V59.733C512,26.795,485.205,0,452.267,0z M59.733,42.667
				c9.429,0,17.067,7.646,17.067,17.067c0,9.421-7.637,17.067-17.067,17.067s-17.067-7.646-17.067-17.067
				C42.667,50.313,50.304,42.667,59.733,42.667z M59.733,469.333c-9.429,0-17.067-7.646-17.067-17.067S50.304,435.2,59.733,435.2
				S76.8,442.846,76.8,452.267S69.163,469.333,59.733,469.333z M401.067,401.067H110.933c-3.388,0-6.46-2.005-7.817-5.112
				c-38.912-88.943-38.912-190.967,0-279.91c1.357-3.106,4.429-5.111,7.817-5.111h290.133c3.388,0,6.46,2.005,7.817,5.111
				c38.912,88.943,38.912,190.968,0,279.91C407.526,399.061,404.454,401.067,401.067,401.067z M452.267,469.333
				c-9.429,0-17.067-7.646-17.067-17.067s7.637-17.067,17.067-17.067c9.429,0,17.067,7.646,17.067,17.067
				S461.696,469.333,452.267,469.333z M452.267,76.8c-9.429,0-17.067-7.646-17.067-17.067c0-9.421,7.637-17.067,17.067-17.067
				c9.429,0,17.067,7.646,17.067,17.067C469.333,69.154,461.696,76.8,452.267,76.8z"/>
		</g>
	</g>
</g>
<g>
</g>
<g>
</g>
<g>
</g>
<g>
</g>
<g>
</g>
<g>
</g>
<g>
</g>
<g>
</g>
<g>
</g>
<g>
</g>
<g>
</g>
<g>
</g>
<g>
</g>
<g>
</g>
<g>
</g>
</svg>
