<?xml version="1.0" encoding="iso-8859-1"?>
<!-- Generator: Adobe Illustrator 19.0.0, SVG Export Plug-In . SVG Version: 6.00 Build 0)  -->
<svg version="1.1" id="Layer_1" xmlns="http://www.w3.org/2000/svg" xmlns:xlink="http://www.w3.org/1999/xlink" x="0px" y="0px"
	 viewBox="0 0 503.607 503.607" style="enable-background:new 0 0 503.607 503.607;" xml:space="preserve">
<g>
	<g>
		<rect x="218.229" y="92.328" width="67.148" height="16.787"/>
	</g>
</g>
<g>
	<g>
		<path d="M281.18,50.361h-59.593c5.036,9.233,5.036,15.948,0,25.18h59.593C276.144,66.308,276.144,59.593,281.18,50.361z"/>
	</g>
</g>
<g>
	<g>
		<path d="M267.751,5.036C266.072,1.679,263.554,0,260.197,0H243.41c-3.357,0-5.875,1.679-7.554,5.036l-14.269,28.538h60.433
			L267.751,5.036z"/>
	</g>
</g>
<g>
	<g>
		<path d="M386.098,486.82H276.984v-36.092c5.036-2.518,8.393-8.393,8.393-14.269v-33.574h8.393c5.036,0,8.393-3.357,8.393-8.393
			V235.016c0-5.036-3.357-8.393-8.393-8.393v-25.18c0-5.036-3.357-8.393-8.393-8.393v-67.148h-67.148v67.148
			c-5.036,0-8.393,3.357-8.393,8.393v25.18c-5.036,0-8.393,3.357-8.393,8.393v159.475c0,5.036,3.357,8.393,8.393,8.393h8.393v33.574
			c0,5.875,3.357,11.751,8.393,14.269v36.092H117.508c-5.036,0-8.393,3.357-8.393,8.393c0,5.036,3.357,8.393,8.393,8.393h117.508
			h33.574h117.508c5.036,0,8.393-3.357,8.393-8.393C394.492,491.016,391.134,486.82,386.098,486.82z M226.623,226.623v-16.787
			h50.361v16.787H226.623z M260.197,486.82H243.41v-33.574h16.787V486.82z M268.59,436.459h-33.574v-33.574h33.574V436.459z"/>
	</g>
</g>
<g>
</g>
<g>
</g>
<g>
</g>
<g>
</g>
<g>
</g>
<g>
</g>
<g>
</g>
<g>
</g>
<g>
</g>
<g>
</g>
<g>
</g>
<g>
</g>
<g>
</g>
<g>
</g>
<g>
</g>
</svg>
