<?xml version="1.0" encoding="iso-8859-1"?>
<!-- Generator: Adobe Illustrator 19.0.0, SVG Export Plug-In . SVG Version: 6.00 Build 0)  -->
<svg version="1.1" id="Layer_1" xmlns="http://www.w3.org/2000/svg" xmlns:xlink="http://www.w3.org/1999/xlink" x="0px" y="0px"
	 viewBox="0 0 512 512" style="enable-background:new 0 0 512 512;" xml:space="preserve">
<g>
	<g>
		<g>
			<path d="M315.733,51.2c0,4.719-3.814,8.533-8.533,8.533s-8.533-3.814-8.533-8.533v-8.533h-8.533V51.2
				c0,4.719-3.814,8.533-8.533,8.533s-8.533-3.814-8.533-8.533v-8.533h-8.533V51.2c0,4.719-3.814,8.533-8.533,8.533
				s-8.533-3.814-8.533-8.533v-8.533h-8.533V51.2c0,4.719-3.814,8.533-8.533,8.533s-8.533-3.814-8.533-8.533v-8.533h-8.533V51.2
				c0,4.719-3.814,8.533-8.533,8.533s-8.533-3.814-8.533-8.533v-8.533h-8.533v51.2H204.8c4.719,0,8.533,3.814,8.533,8.533v8.533
				H230.4c4.719,0,8.533,3.814,8.533,8.533V128h34.133v-8.533c0-4.719,3.814-8.533,8.533-8.533h17.067V102.4
				c0-4.719,3.814-8.533,8.533-8.533h17.067v-51.2h-8.533V51.2z"/>
			<path d="M358.4,0H153.6c-4.719,0-8.533,3.814-8.533,8.533v153.6c0,4.719,3.814,8.533,8.533,8.533h204.8
				c4.719,0,8.533-3.814,8.533-8.533V8.533C366.933,3.814,363.119,0,358.4,0z M341.333,102.4c0,4.719-3.814,8.533-8.533,8.533
				h-17.067v8.533c0,4.719-3.814,8.533-8.533,8.533h-17.067v8.533c0,4.719-3.814,8.533-8.533,8.533h-51.2
				c-4.719,0-8.533-3.814-8.533-8.533V128H204.8c-4.719,0-8.533-3.814-8.533-8.533v-8.533H179.2c-4.719,0-8.533-3.814-8.533-8.533
				V34.133c0-4.719,3.814-8.533,8.533-8.533h153.6c4.719,0,8.533,3.814,8.533,8.533V102.4z"/>
			<path d="M332.8,290.133V204.8c0-4.719-3.814-8.533-8.533-8.533h-25.6c0-4.719-3.814-8.533-8.533-8.533h-68.267
				c-4.719,0-8.533,3.814-8.533,8.533h-25.6c-4.719,0-8.533,3.814-8.533,8.533v85.333c-4.719,0-8.533,3.814-8.533,8.533V358.4H230.4
				c4.719,0,8.533,3.814,8.533,8.533c0,4.719-3.814,8.533-8.533,8.533h-59.733v17.067H230.4c4.719,0,8.533,3.814,8.533,8.533
				s-3.814,8.533-8.533,8.533h-54.878l5.248,17.067h49.63c4.719,0,8.533,3.814,8.533,8.533c0,4.719-3.814,8.533-8.533,8.533h-44.373
				l5.248,17.067H230.4c4.719,0,8.533,3.814,8.533,8.533s-3.814,8.533-8.533,8.533h-33.877l8.653,28.109
				c1.101,3.584,4.412,6.025,8.158,6.025h85.333c3.746,0,7.057-2.441,8.158-6.025l8.653-28.109H281.6
				c-4.719,0-8.533-3.814-8.533-8.533s3.814-8.533,8.533-8.533h39.125l5.248-17.067H281.6c-4.719,0-8.533-3.814-8.533-8.533
				c0-4.719,3.814-8.533,8.533-8.533h49.63l5.248-17.067H281.6c-4.719,0-8.533-3.814-8.533-8.533s3.814-8.533,8.533-8.533h59.733
				v-17.067H281.6c-4.719,0-8.533-3.814-8.533-8.533c0-4.719,3.814-8.533,8.533-8.533h59.733v-59.733
				C341.333,293.948,337.519,290.133,332.8,290.133z M230.4,204.8h51.2V256h-8.533c-4.719,0-8.533,3.814-8.533,8.533v25.6h-17.067
				v-25.6c0-4.719-3.814-8.533-8.533-8.533H230.4V204.8z M196.267,213.333h17.067v51.2c0,4.719,3.814,8.533,8.533,8.533h8.533
				v17.067h-17.067h-17.067V213.333z M256,349.867c-25.318,0-46.345-18.492-50.432-42.667h17.382
				c3.789,14.711,17.178,25.6,33.05,25.6s29.261-10.889,33.05-25.6h17.382C302.345,331.375,281.318,349.867,256,349.867z
				 M315.733,290.133h-17.067H281.6v-17.067h8.533c4.719,0,8.533-3.814,8.533-8.533v-51.2h17.067V290.133z"/>
		</g>
	</g>
</g>
<g>
</g>
<g>
</g>
<g>
</g>
<g>
</g>
<g>
</g>
<g>
</g>
<g>
</g>
<g>
</g>
<g>
</g>
<g>
</g>
<g>
</g>
<g>
</g>
<g>
</g>
<g>
</g>
<g>
</g>
</svg>
