<?xml version="1.0" encoding="iso-8859-1"?>
<!-- Generator: Adobe Illustrator 19.0.0, SVG Export Plug-In . SVG Version: 6.00 Build 0)  -->
<svg version="1.1" id="Layer_1" xmlns="http://www.w3.org/2000/svg" xmlns:xlink="http://www.w3.org/1999/xlink" x="0px" y="0px"
	 viewBox="0 0 512 512" style="enable-background:new 0 0 512 512;" xml:space="preserve">
<g>
	<g>
		<path d="M295.253,238.933h-78.507c-6.827,0-11.947,5.12-11.947,11.947v70.827c0,5.973,5.12,11.093,11.947,11.093h79.36
			c6.827,0,11.947-5.12,11.947-11.947v-70.827C307.2,244.053,302.08,238.933,295.253,238.933z"/>
	</g>
</g>
<g>
	<g>
		<path d="M324.267,0H187.733c-9.387,0-17.067,7.68-17.067,17.067v30.72c0,4.267,1.707,8.533,5.12,11.947l20.48,20.48
			c3.413,3.413,7.68,5.12,11.947,5.12h116.053c9.387,0,17.067-7.68,17.067-17.067v-51.2C341.333,7.68,333.653,0,324.267,0z
			 M307.2,51.2c0,5.12-3.413,8.533-8.533,8.533c-5.12,0-8.533-3.413-8.533-8.533v-8.533H230.4V51.2c0,5.12-3.413,8.533-8.533,8.533
			s-8.533-3.413-8.533-8.533V34.133c0-5.12,3.413-8.533,8.533-8.533h76.8c5.12,0,8.533,3.413,8.533,8.533V51.2z"/>
	</g>
</g>
<g>
	<g>
		<path d="M349.867,187.733h-8.533v-68.267c0-9.387-7.68-17.067-17.067-17.067H307.2v51.2h-17.067v-51.2h-68.267v51.2H204.8v-51.2
			h-17.067c-9.387,0-17.067,7.68-17.067,17.067v68.267h-8.533c-9.387,0-17.067,7.68-17.067,17.067v162.133
			c0,1.707,0.853,3.413,1.707,5.12l15.36,23.04v23.04c0,9.387,7.68,17.067,17.067,17.067h34.133v25.6
			c-5.12,0-8.533,3.413-8.533,8.533s3.413,8.533,8.533,8.533v17.067c0,9.387,7.68,17.067,17.067,17.067h51.2
			c9.387,0,17.067-7.68,17.067-17.067v-17.067c5.12,0,8.533-3.413,8.533-8.533s-3.413-8.533-8.533-8.533v-25.6H332.8
			c9.387,0,17.067-7.68,17.067-17.067v-23.04l15.36-23.04c0.853-1.707,1.707-3.413,1.707-5.12V204.8
			C366.933,195.413,359.253,187.733,349.867,187.733z M264.533,153.6H281.6v17.067h-17.067V153.6z M230.4,153.6h17.067v17.067H230.4
			V153.6z M281.6,494.933h-51.2v-17.067h51.2V494.933z M281.6,460.8h-51.2v-25.6h51.2V460.8z M325.12,320.853h-0.853
			c0,16.213-12.8,29.013-29.013,29.013h-78.507c-16.213,0-29.013-12.8-29.013-29.013v-70.827c0-15.36,12.8-28.16,29.013-28.16h79.36
			c16.213,0,29.013,12.8,29.013,29.013V320.853z"/>
	</g>
</g>
<g>
</g>
<g>
</g>
<g>
</g>
<g>
</g>
<g>
</g>
<g>
</g>
<g>
</g>
<g>
</g>
<g>
</g>
<g>
</g>
<g>
</g>
<g>
</g>
<g>
</g>
<g>
</g>
<g>
</g>
</svg>
