<?xml version="1.0" encoding="iso-8859-1"?>
<!-- Generator: Adobe Illustrator 19.0.0, SVG Export Plug-In . SVG Version: 6.00 Build 0)  -->
<svg version="1.1" id="Layer_1" xmlns="http://www.w3.org/2000/svg" xmlns:xlink="http://www.w3.org/1999/xlink" x="0px" y="0px"
	 viewBox="0 0 512 512" style="enable-background:new 0 0 512 512;" xml:space="preserve">
<g>
	<g>
		<g>
			<path d="M435.2,140.8H298.667v136.533H435.2V140.8z M349.867,260.267h-25.6c-4.719,0-8.533-3.823-8.533-8.533
				s3.814-8.533,8.533-8.533h25.6c4.719,0,8.533,3.823,8.533,8.533S354.586,260.267,349.867,260.267z M366.933,209.067
				c-4.719,0-8.533-3.823-8.533-8.533V166.4c0-4.71,3.814-8.533,8.533-8.533s8.533,3.823,8.533,8.533v34.133
				C375.467,205.244,371.652,209.067,366.933,209.067z M409.6,260.267H384c-4.719,0-8.533-3.823-8.533-8.533
				s3.814-8.533,8.533-8.533h25.6c4.719,0,8.533,3.823,8.533,8.533S414.319,260.267,409.6,260.267z"/>
			<path d="M469.333,354.133c23.526,0,42.667-19.14,42.667-42.667v-204.8C512,83.14,492.86,64,469.333,64H42.667
				C19.14,64,0,83.14,0,106.667v204.8c0,23.526,19.14,42.667,42.667,42.667h68.267v34.133c0,32.939,26.803,59.733,59.733,59.733
				h332.8c4.719,0,8.533-3.823,8.533-8.533v-34.133c0-4.71-3.814-8.533-8.533-8.533H179.2c-9.412,0-17.067-7.654-17.067-17.067
				v-25.6H469.333z M469.333,98.133c4.71,0,8.533,3.823,8.533,8.533s-3.823,8.533-8.533,8.533s-8.533-3.823-8.533-8.533
				S464.623,98.133,469.333,98.133z M469.333,302.933c4.71,0,8.533,3.823,8.533,8.533S474.044,320,469.333,320
				s-8.533-3.823-8.533-8.533S464.623,302.933,469.333,302.933z M281.6,132.267c0-4.71,3.814-8.533,8.533-8.533h153.6
				c4.719,0,8.533,3.823,8.533,8.533v153.6c0,4.71-3.814,8.533-8.533,8.533h-153.6c-4.719,0-8.533-3.823-8.533-8.533V132.267z
				 M42.667,98.133c4.71,0,8.533,3.823,8.533,8.533s-3.823,8.533-8.533,8.533c-4.71,0-8.533-3.823-8.533-8.533
				S37.956,98.133,42.667,98.133z M42.667,320c-4.71,0-8.533-3.823-8.533-8.533s3.823-8.533,8.533-8.533
				c4.71,0,8.533,3.823,8.533,8.533S47.377,320,42.667,320z M179.2,413.867h315.733v17.067H170.667
				c-23.526,0-42.667-19.14-42.667-42.667V345.6v-17.067h17.067V345.6v34.133C145.067,398.558,160.375,413.867,179.2,413.867z
				 M153.6,311.467h-34.133c-4.719,0-8.533,3.823-8.533,8.533v6.963c-9.907-3.533-17.067-12.919-17.067-24.03V294.4H59.733
				c-4.719,0-8.533-3.823-8.533-8.533v-153.6c0-4.71,3.814-8.533,8.533-8.533h153.6c4.719,0,8.533,3.823,8.533,8.533v153.6
				c0,4.71-3.814,8.533-8.533,8.533H179.2v8.533c0,11.11-7.159,20.497-17.067,24.03V320
				C162.133,315.29,158.319,311.467,153.6,311.467z"/>
			<path d="M119.467,157.867H153.6c4.71,0,8.533-3.831,8.533-8.533V140.8h-51.2v8.533
				C110.933,154.035,114.756,157.867,119.467,157.867z"/>
			<rect x="110.933" y="268.803" width="51.2" height="17.067"/>
			<path d="M151.841,217.6c15.087,0,27.358,12.271,27.358,27.358v32.375h25.6V140.8h-25.6v8.533c0,14.114-11.486,25.6-25.6,25.6
				h-34.133c-14.114,0-25.6-11.486-25.6-25.6V140.8h-25.6v136.533h25.6v-32.375c0-15.087,12.279-27.358,27.358-27.358H151.841z"/>
			<path d="M162.133,244.958c0-5.675-4.617-10.291-10.291-10.291h-30.618c-5.675,0-10.291,4.617-10.291,10.291v6.775h51.2V244.958z"
				/>
		</g>
	</g>
</g>
<g>
</g>
<g>
</g>
<g>
</g>
<g>
</g>
<g>
</g>
<g>
</g>
<g>
</g>
<g>
</g>
<g>
</g>
<g>
</g>
<g>
</g>
<g>
</g>
<g>
</g>
<g>
</g>
<g>
</g>
</svg>
