<?xml version="1.0" encoding="iso-8859-1"?>
<!-- Generator: Adobe Illustrator 19.0.0, SVG Export Plug-In . SVG Version: 6.00 Build 0)  -->
<svg version="1.1" id="Layer_1" xmlns="http://www.w3.org/2000/svg" xmlns:xlink="http://www.w3.org/1999/xlink" x="0px" y="0px"
	 viewBox="0 0 512 512" style="enable-background:new 0 0 512 512;" xml:space="preserve">
<g>
	<g>
		<g>
			<rect x="213.329" y="68.27" width="17.067" height="17.067"/>
			<rect x="281.596" y="68.27" width="17.067" height="17.067"/>
			<path d="M392.533,494.933H281.6v-102.4c9.412,0,17.067-7.654,17.067-17.067v-34.133h51.2c9.412,0,17.067-7.654,17.067-17.067
				V153.6c0-9.412-7.654-17.067-17.067-17.067v-128c0-4.719-3.823-8.533-8.533-8.533H170.667c-4.719,0-8.533,3.814-8.533,8.533v128
				c-9.421,0-17.067,7.654-17.067,17.067v170.667c0,9.412,7.646,17.067,17.067,17.067h51.2v34.133
				c0,9.412,7.646,17.067,17.067,17.067v102.4H119.467c-4.719,0-8.533,3.814-8.533,8.533c0,4.719,3.814,8.533,8.533,8.533h119.467
				h34.133h119.467c4.71,0,8.533-3.814,8.533-8.533C401.067,498.748,397.244,494.933,392.533,494.933z M264.533,59.733
				c0-4.719,3.814-8.533,8.533-8.533H307.2c4.71,0,8.533,3.814,8.533,8.533v34.133c0,4.719-3.823,8.533-8.533,8.533h-34.133
				c-4.719,0-8.533-3.814-8.533-8.533V59.733z M204.8,102.4c-4.719,0-8.533-3.814-8.533-8.533V59.733
				c0-4.719,3.814-8.533,8.533-8.533h34.133c4.71,0,8.533,3.814,8.533,8.533v34.133c0,4.719-3.823,8.533-8.533,8.533H204.8z
				 M238.933,375.467H230.4v-34.133h51.2l0.009,34.133h-8.542H238.933z"/>
		</g>
	</g>
</g>
<g>
</g>
<g>
</g>
<g>
</g>
<g>
</g>
<g>
</g>
<g>
</g>
<g>
</g>
<g>
</g>
<g>
</g>
<g>
</g>
<g>
</g>
<g>
</g>
<g>
</g>
<g>
</g>
<g>
</g>
</svg>
