<?xml version="1.0" encoding="iso-8859-1"?>
<!-- Generator: Adobe Illustrator 19.0.0, SVG Export Plug-In . SVG Version: 6.00 Build 0)  -->
<svg version="1.1" id="Layer_1" xmlns="http://www.w3.org/2000/svg" xmlns:xlink="http://www.w3.org/1999/xlink" x="0px" y="0px"
	 viewBox="0 0 512 512" style="enable-background:new 0 0 512 512;" xml:space="preserve">
<g>
	<g>
		<path d="M443.733,0H409.6c-5.12,0-8.533,3.413-8.533,8.533V409.6c0,28.16-23.04,51.2-51.2,51.2h-128
			c-28.16,0-51.2-23.04-51.2-51.2c9.387,0,17.067-7.68,17.067-17.067v-17.067c5.12,0,8.533-3.413,8.533-8.533
			s-3.413-8.533-8.533-8.533v-17.067h34.133c5.12,0,8.533-3.413,8.533-8.533V128c0-5.12-3.413-8.533-8.533-8.533h-8.533V59.733
			c0-5.12-3.413-8.533-8.533-8.533V8.533c0-5.12-3.413-8.533-8.533-8.533h-102.4c-5.12,0-8.533,4.267-8.533,8.533V51.2
			c-5.12,0-8.533,4.267-8.533,8.533v59.733h-8.533c-5.12,0-8.533,3.413-8.533,8.533v204.8c0,5.12,3.413,8.533,8.533,8.533H102.4
			V358.4c-5.12,0-8.533,3.413-8.533,8.533s3.413,8.533,8.533,8.533v17.067c0,9.387,7.68,17.067,17.067,17.067
			c0,56.32,46.08,102.4,102.4,102.4h128c56.32,0,102.4-46.08,102.4-102.4V8.533C452.267,4.267,448.853,0,443.733,0z M170.667,358.4
			h-51.2v-17.067h51.2V358.4z M93.867,68.267h102.4v51.2h-102.4V68.267z M102.4,221.867h85.333c5.12,0,8.533,3.413,8.533,8.533
			s-3.413,8.533-8.533,8.533H102.4c-5.12,0-8.533-3.413-8.533-8.533S97.28,221.867,102.4,221.867z M102.4,256h85.333
			c5.12,0,8.533,3.413,8.533,8.533s-3.413,8.533-8.533,8.533H102.4c-5.12,0-8.533-3.413-8.533-8.533S97.28,256,102.4,256z
			 M102.4,307.2c-5.12,0-8.533-3.413-8.533-8.533s3.413-8.533,8.533-8.533h85.333c5.12,0,8.533,3.413,8.533,8.533
			s-3.413,8.533-8.533,8.533H102.4z M128,392.533h-8.533v-17.067h51.2v17.067h-8.533H128z"/>
	</g>
</g>
<g>
</g>
<g>
</g>
<g>
</g>
<g>
</g>
<g>
</g>
<g>
</g>
<g>
</g>
<g>
</g>
<g>
</g>
<g>
</g>
<g>
</g>
<g>
</g>
<g>
</g>
<g>
</g>
<g>
</g>
</svg>
