<?xml version="1.0" encoding="iso-8859-1"?>
<!-- Generator: Adobe Illustrator 19.0.0, SVG Export Plug-In . SVG Version: 6.00 Build 0)  -->
<svg version="1.1" id="Layer_1" xmlns="http://www.w3.org/2000/svg" xmlns:xlink="http://www.w3.org/1999/xlink" x="0px" y="0px"
	 viewBox="0 0 512 512" style="enable-background:new 0 0 512 512;" xml:space="preserve">
<g>
	<g>
		<rect x="221.867" y="349.867" width="68.267" height="17.067"/>
	</g>
</g>
<g>
	<g>
		<rect x="221.867" y="281.6" width="68.267" height="17.067"/>
	</g>
</g>
<g>
	<g>
		<path d="M256,0c-33.28,0-59.733,26.453-59.733,59.733c0,33.28,26.453,59.733,59.733,59.733c33.28,0,59.733-26.453,59.733-59.733
			C315.733,26.453,289.28,0,256,0z M256,76.8c-9.387,0-17.067-7.68-17.067-17.067s7.68-17.067,17.067-17.067
			s17.067,7.68,17.067,17.067S265.387,76.8,256,76.8z"/>
	</g>
</g>
<g>
	<g>
		<path d="M324.267,213.333H307.2V153.6c0-9.387-7.68-17.067-17.067-17.067h-68.267c-9.387,0-17.067,7.68-17.067,17.067v59.733
			h-17.067c-9.387,0-17.067,7.68-17.067,17.067v128c0,34.133,22.187,67.413,42.667,75.093V460.8c-5.12,0-8.533,3.413-8.533,8.533
			s3.413,8.533,8.533,8.533v17.067c0,9.387,7.68,17.067,17.067,17.067h51.2c9.387,0,17.067-7.68,17.067-17.067v-17.067
			c5.12,0,8.533-3.413,8.533-8.533s-3.413-8.533-8.533-8.533v-27.307c20.48-7.68,42.667-40.96,42.667-75.093v-128
			C341.333,221.013,333.653,213.333,324.267,213.333z M221.867,153.6h68.267v59.733h-68.267V153.6z M281.6,494.933h-51.2v-17.067
			h51.2V494.933z M281.6,460.8h-51.2v-25.6h51.2V460.8z M307.2,375.467c0,5.12-3.413,8.533-8.533,8.533h-85.333
			c-5.12,0-8.533-3.413-8.533-8.533v-34.133c0-5.12,3.413-8.533,8.533-8.533h85.333c5.12,0,8.533,3.413,8.533,8.533V375.467z
			 M307.2,307.2c0,5.12-3.413,8.533-8.533,8.533h-85.333c-5.12,0-8.533-3.413-8.533-8.533v-34.133c0-5.12,3.413-8.533,8.533-8.533
			h85.333c5.12,0,8.533,3.413,8.533,8.533V307.2z"/>
	</g>
</g>
<g>
</g>
<g>
</g>
<g>
</g>
<g>
</g>
<g>
</g>
<g>
</g>
<g>
</g>
<g>
</g>
<g>
</g>
<g>
</g>
<g>
</g>
<g>
</g>
<g>
</g>
<g>
</g>
<g>
</g>
</svg>
