<?xml version="1.0" encoding="iso-8859-1"?>
<!-- Generator: Adobe Illustrator 19.0.0, SVG Export Plug-In . SVG Version: 6.00 Build 0)  -->
<svg version="1.1" id="Layer_1" xmlns="http://www.w3.org/2000/svg" xmlns:xlink="http://www.w3.org/1999/xlink" x="0px" y="0px"
	 viewBox="0 0 512 512" style="enable-background:new 0 0 512 512;" xml:space="preserve">
<g>
	<g>
		<path d="M166.4,51.2h-60.587c5.12,9.387,5.12,16.213,0,25.6H166.4C161.28,67.413,161.28,60.587,166.4,51.2z"/>
	</g>
</g>
<g>
	<g>
		<rect x="102.4" y="93.867" width="68.267" height="17.067"/>
	</g>
</g>
<g>
	<g>
		<path d="M152.747,5.12C151.04,1.707,148.48,0,145.067,0H128c-3.413,0-5.973,1.707-7.68,5.12l-14.507,29.013h61.44L152.747,5.12z"
			/>
	</g>
</g>
<g>
	<g>
		<path d="M418.133,0H384c-5.12,0-8.533,3.413-8.533,8.533V409.6c0,28.16-23.04,51.2-51.2,51.2H213.333
			c-26.453,0-47.787-19.627-51.2-45.227c5.12-3.413,8.533-8.533,8.533-14.507v-34.133h8.533c5.12,0,8.533-3.413,8.533-8.533V238.933
			c0-5.12-3.413-8.533-8.533-8.533v-25.6c0-5.12-3.413-8.533-8.533-8.533V128H102.4v68.267c-5.12,0-8.533,3.413-8.533,8.533v25.6
			c-5.12,0-8.533,3.413-8.533,8.533V358.4c0,5.12,3.413,8.533,8.533,8.533h8.533v34.133c0,6.827,3.413,11.947,8.533,14.507
			c3.413,53.76,47.787,96.427,102.4,96.427h110.933c56.32,0,102.4-46.08,102.4-102.4V8.533C426.667,4.267,423.253,0,418.133,0z
			 M110.933,213.333h51.2V230.4h-51.2V213.333z M153.6,401.067h-34.133v-34.133H153.6V401.067z"/>
	</g>
</g>
<g>
</g>
<g>
</g>
<g>
</g>
<g>
</g>
<g>
</g>
<g>
</g>
<g>
</g>
<g>
</g>
<g>
</g>
<g>
</g>
<g>
</g>
<g>
</g>
<g>
</g>
<g>
</g>
<g>
</g>
</svg>
