<?xml version="1.0" encoding="iso-8859-1"?>
<!-- Generator: Adobe Illustrator 19.0.0, SVG Export Plug-In . SVG Version: 6.00 Build 0)  -->
<svg version="1.1" id="Layer_1" xmlns="http://www.w3.org/2000/svg" xmlns:xlink="http://www.w3.org/1999/xlink" x="0px" y="0px"
	 viewBox="0 0 512 512" style="enable-background:new 0 0 512 512;" xml:space="preserve">
<g>
	<g>
		<g>
			<path d="M476.69,0H35.31C20.71,0,8.828,11.882,8.828,26.483v300.138c0,14.601,11.882,26.483,26.483,26.483h141.241v61.793
				c0,14.601,11.882,26.483,26.483,26.483v35.31c0,19.474,15.837,35.31,35.31,35.31c19.474,0,35.31-15.837,35.31-35.31v-35.31
				c14.601,0,26.483-11.882,26.483-26.483v-61.793H476.69c14.601,0,26.483-11.882,26.483-26.483V26.483
				C503.172,11.882,491.29,0,476.69,0z M282.483,414.897c0,4.873-3.964,8.828-8.828,8.828h-8.828h-52.966h-8.828
				c-4.864,0-8.828-3.955-8.828-8.828v-61.793h88.276V414.897z M423.724,273.655c0,4.882-3.955,8.828-8.828,8.828H97.103
				c-4.873,0-8.828-3.946-8.828-8.828V79.448c0-4.882,3.955-8.828,8.828-8.828h317.793c4.873,0,8.828,3.946,8.828,8.828V273.655z"/>
			<path d="M105.931,264.828h300.138V88.276H105.931V264.828z M292.07,217.106l11.705-26.333c0,0,0-0.009,0.009-0.009l23.596-53.107
				c1.421-3.196,4.581-5.244,8.068-5.244c3.487,0,6.647,2.048,8.068,5.244l23.596,53.107l0.009,0.009l11.705,26.333
				c1.977,4.458-0.026,9.666-4.484,11.652c-1.165,0.521-2.383,0.759-3.584,0.759c-3.381,0-6.603-1.951-8.068-5.244l-9.437-21.239
				h-35.61l-9.437,21.239c-1.986,4.449-7.195,6.462-11.652,4.484C292.096,226.772,290.092,221.564,292.07,217.106z M247.172,132.414
				c9.242,0.15,17.002,4.988,21.177,12.968c4.378,8.333,3.875,18.326-1.289,26.077l-22.519,40.404h20.286
				c4.873,0,8.828,3.946,8.828,8.828s-3.955,8.828-8.828,8.828h-35.31c-3.125,0-6.029-1.651-7.609-4.352
				c-1.589-2.71-1.624-6.047-0.097-8.775l30.199-54.131c2.251-3.434,1.783-6.63,0.706-8.686c-0.68-1.28-2.277-3.452-5.394-3.505
				c-5.014,0-8.978,3.955-8.978,8.828c0,4.882-3.955,8.828-8.828,8.828c-4.873,0-8.828-3.946-8.828-8.828
				C220.69,144.296,232.572,132.414,247.172,132.414z"/>
			<polygon points="335.448,162.974 325.491,185.378 345.406,185.378 			"/>
		</g>
	</g>
</g>
<g>
</g>
<g>
</g>
<g>
</g>
<g>
</g>
<g>
</g>
<g>
</g>
<g>
</g>
<g>
</g>
<g>
</g>
<g>
</g>
<g>
</g>
<g>
</g>
<g>
</g>
<g>
</g>
<g>
</g>
</svg>
