<?xml version="1.0" encoding="iso-8859-1"?>
<!-- Generator: Adobe Illustrator 19.0.0, SVG Export Plug-In . SVG Version: 6.00 Build 0)  -->
<svg version="1.1" id="Layer_1" xmlns="http://www.w3.org/2000/svg" xmlns:xlink="http://www.w3.org/1999/xlink" x="0px" y="0px"
	 viewBox="0 0 512.001 512.001" style="enable-background:new 0 0 512.001 512.001;" xml:space="preserve">
<g>
	<g>
		<g>
			<rect x="230.4" y="341.337" width="51.2" height="17.067"/>
			<path d="M435.2,256.001h-8.533v-59.733c4.71,0,8.533-3.814,8.533-8.533s-3.823-8.533-8.533-8.533v-8.533
				c0-9.412-7.654-17.067-17.067-17.067h-34.133v59.733c0,4.719-3.823,8.533-8.533,8.533s-8.533-3.814-8.533-8.533v-59.733h-17.067
				v59.733c0,4.719-3.823,8.533-8.533,8.533s-8.533-3.814-8.533-8.533v-59.733H187.734v59.733c0,4.719-3.823,8.533-8.533,8.533
				s-8.533-3.814-8.533-8.533v-59.733H153.6v59.733c0,4.719-3.823,8.533-8.533,8.533s-8.533-3.814-8.533-8.533v-59.733H102.4
				c-9.412,0-17.067,7.654-17.067,17.067v8.533c-4.71,0-8.533,3.814-8.533,8.533s3.823,8.533,8.533,8.533v59.733H76.8
				c-9.412,0-17.067,7.654-17.067,17.067v170.667c0,9.404,7.654,17.067,17.067,17.067h136.533v34.133
				c0,9.404,7.654,17.067,17.067,17.067h51.2c9.412,0,17.067-7.663,17.067-17.067v-34.133H435.2c9.412,0,17.067-7.663,17.067-17.067
				V273.068C452.267,263.655,444.613,256.001,435.2,256.001z M230.4,494.934v-34.133h51.2l0.009,34.133H230.4z M298.667,359.092
				c0,9.028-7.347,16.375-16.375,16.375h-52.582c-9.028,0-16.375-7.347-16.375-16.375v-18.449c0-9.028,7.347-16.375,16.375-16.375
				h52.582c9.028,0,16.375,7.347,16.375,16.375V359.092z"/>
			<path d="M384,51.2H128c-4.702,0-8.533,3.823-8.533,8.533c0,4.71,3.831,8.533,8.533,8.533h256c4.702,0,8.533-3.823,8.533-8.533
				C392.534,55.023,388.702,51.2,384,51.2z"/>
			<path d="M426.667,0H85.334c-14.114,0-25.6,11.486-25.6,25.6v68.267c0,14.114,11.486,25.6,25.6,25.6h341.333
				c14.114,0,25.6-11.486,25.6-25.6V25.6C452.267,11.486,440.781,0,426.667,0z M384,85.333H128c-14.114,0-25.6-11.486-25.6-25.6
				s11.486-25.6,25.6-25.6h256c14.114,0,25.6,11.486,25.6,25.6S398.115,85.333,384,85.333z"/>
		</g>
	</g>
</g>
<g>
</g>
<g>
</g>
<g>
</g>
<g>
</g>
<g>
</g>
<g>
</g>
<g>
</g>
<g>
</g>
<g>
</g>
<g>
</g>
<g>
</g>
<g>
</g>
<g>
</g>
<g>
</g>
<g>
</g>
</svg>
