<?xml version="1.0" encoding="iso-8859-1"?>
<!-- Generator: Adobe Illustrator 19.0.0, SVG Export Plug-In . SVG Version: 6.00 Build 0)  -->
<svg version="1.1" id="Layer_1" xmlns="http://www.w3.org/2000/svg" xmlns:xlink="http://www.w3.org/1999/xlink" x="0px" y="0px"
	 viewBox="0 0 512.113 512.113" style="enable-background:new 0 0 512.113 512.113;" xml:space="preserve">
<g transform="translate(-1)">
	<g>
		<g>
			<path d="M496.046,136.59v-128c0-4.719-3.814-8.533-8.533-8.533H316.846c-4.719,0-8.533,3.814-8.533,8.533v128
				c-9.404,0-17.067,7.654-17.067,17.067v179.2c0,9.412,7.663,17.067,17.067,17.067h51.2v34.133c0,9.412,7.663,17.067,17.067,17.067
				v8.533c0,28.237-22.963,51.2-51.2,51.2H180.313c-28.237,0-51.2-22.921-51.2-51.089v-8.644c9.293,0,16.947-7.612,17.067-17.067
				v-34.133h33.382c8.755,0,16.905-4.326,21.803-11.563c4.907-7.245,5.897-16.418,2.637-24.559l-0.691-1.732
				c-3.934-9.847-5.931-20.318-5.931-31.13V119.523c0-9.412-7.68-17.067-17.126-17.067h-8.474V8.59c0-4.719-3.814-8.533-8.533-8.533
				H43.779c-4.719,0-8.533,3.814-8.533,8.533v93.867h-8.593c-9.37,0-17.007,7.654-17.007,17.067l-0.06,161.417
				c0,10.718-2.014,21.188-5.99,31.113l-0.708,1.766c-3.251,8.124-2.261,17.297,2.654,24.542
				c4.898,7.236,13.047,11.563,21.794,11.563h33.51v34.133c0,9.412,7.663,17.067,17.067,17.067v8.644
				c0,56.397,45.935,102.289,102.4,102.289h145.067c56.465,0,102.4-45.935,102.4-102.4v-8.533c9.412,0,17.067-7.654,17.067-17.067
				v-34.133h51.2c9.412,0,17.067-7.654,17.067-17.067v-179.2C513.112,144.244,505.458,136.59,496.046,136.59z M120.579,34.19
				c0-4.719,3.814-8.533,8.533-8.533s8.533,3.814,8.533,8.533v34.133c0,4.719-3.814,8.533-8.533,8.533s-8.533-3.814-8.533-8.533
				V34.19z M69.379,68.323V34.19c0-4.719,3.814-8.533,8.533-8.533s8.533,3.814,8.533,8.533v34.133c0,4.719-3.814,8.533-8.533,8.533
				S69.379,73.042,69.379,68.323z M86.446,384.056h-8.533v-34.133h51.2l0.009,34.133h-8.542H86.446z M350.979,102.456
				c-4.719,0-8.533-3.814-8.533-8.533V59.79c0-4.719,3.814-8.533,8.533-8.533h34.133c4.719,0,8.533,3.814,8.533,8.533v34.133
				c0,4.719-3.814,8.533-8.533,8.533H350.979z M419.246,384.056h-34.133h-8.533v-34.133h51.2l0.017,34.133H419.246z M461.913,93.923
				c0,4.719-3.814,8.533-8.533,8.533h-34.133c-4.719,0-8.533-3.814-8.533-8.533V59.79c0-4.719,3.814-8.533,8.533-8.533h34.133
				c4.719,0,8.533,3.814,8.533,8.533V93.923z"/>
			<rect x="427.779" y="68.326" width="17.067" height="17.067"/>
			<rect x="359.513" y="68.326" width="17.067" height="17.067"/>
		</g>
	</g>
</g>
<g>
</g>
<g>
</g>
<g>
</g>
<g>
</g>
<g>
</g>
<g>
</g>
<g>
</g>
<g>
</g>
<g>
</g>
<g>
</g>
<g>
</g>
<g>
</g>
<g>
</g>
<g>
</g>
<g>
</g>
</svg>
