<?xml version="1.0" encoding="iso-8859-1"?>
<!-- Generator: Adobe Illustrator 19.0.0, SVG Export Plug-In . SVG Version: 6.00 Build 0)  -->
<svg version="1.1" id="Layer_1" xmlns="http://www.w3.org/2000/svg" xmlns:xlink="http://www.w3.org/1999/xlink" x="0px" y="0px"
	 viewBox="0 0 512 512" style="enable-background:new 0 0 512 512;" xml:space="preserve">
<g>
	<g>
		<g>
			<path d="M187.733,230.4c-14.114,0-25.6,11.486-25.6,25.6c0,14.114,11.486,25.6,25.6,25.6s25.6-11.486,25.6-25.6
				C213.333,241.886,201.847,230.4,187.733,230.4z"/>
			<path d="M290.133,123.904v21.163c0,4.71-3.823,8.533-8.533,8.533h-51.2c-4.71,0-8.533-3.823-8.533-8.533v-21.163
				c-59.913,15.351-102.4,69.359-102.4,132.096s42.487,116.745,102.4,132.096v-21.163c0-4.71,3.823-8.533,8.533-8.533h51.2
				c4.71,0,8.533,3.823,8.533,8.533v21.163c59.913-15.352,102.4-69.359,102.4-132.096S350.046,139.255,290.133,123.904z
				 M187.733,298.667c-23.526,0-42.667-19.14-42.667-42.667c0-23.526,19.14-42.667,42.667-42.667
				c23.526,0,42.667,19.14,42.667,42.667C230.4,279.526,211.26,298.667,187.733,298.667z M256,264.533
				c-4.71,0-8.533-3.823-8.533-8.533c0-4.71,3.823-8.533,8.533-8.533s8.533,3.823,8.533,8.533
				C264.533,260.71,260.71,264.533,256,264.533z M366.933,256c0,23.526-19.14,42.667-42.667,42.667
				c-23.526,0-42.667-19.14-42.667-42.667c0-23.526,19.14-42.667,42.667-42.667C347.793,213.333,366.933,232.474,366.933,256z"/>
			<path d="M452.267,0H59.733C26.795,0,0,26.795,0,59.733v392.533C0,485.205,26.795,512,59.733,512h392.533
				C485.205,512,512,485.205,512,452.267V59.733C512,26.795,485.205,0,452.267,0z M59.733,469.333
				c-9.429,0-17.067-7.646-17.067-17.067S50.304,435.2,59.733,435.2S76.8,442.846,76.8,452.267S69.163,469.333,59.733,469.333z
				 M59.733,76.8c-9.429,0-17.067-7.646-17.067-17.067c0-9.421,7.637-17.067,17.067-17.067S76.8,50.313,76.8,59.733
				C76.8,69.154,69.163,76.8,59.733,76.8z M283.102,407.074c-0.503,0.094-0.998,0.137-1.502,0.137c-1.988,0-3.925-0.7-5.478-1.997
				c-1.937-1.621-3.055-4.011-3.055-6.537v-23.211h-34.133v23.211c0,2.526-1.118,4.915-3.055,6.537s-4.489,2.33-6.98,1.86
				C155.597,394.001,102.4,330.47,102.4,256s53.197-138.001,126.498-151.074c2.483-0.444,5.043,0.239,6.98,1.86
				s3.055,4.011,3.055,6.537v23.211h34.133v-23.211c0-2.526,1.118-4.915,3.055-6.537c1.937-1.621,4.497-2.304,6.98-1.86
				C356.403,117.999,409.6,181.53,409.6,256S356.403,394.001,283.102,407.074z M452.267,469.333
				c-9.429,0-17.067-7.646-17.067-17.067s7.637-17.067,17.067-17.067c9.429,0,17.067,7.646,17.067,17.067
				S461.696,469.333,452.267,469.333z M452.267,76.8c-9.429,0-17.067-7.646-17.067-17.067c0-9.421,7.637-17.067,17.067-17.067
				c9.429,0,17.067,7.646,17.067,17.067C469.333,69.154,461.696,76.8,452.267,76.8z"/>
			<path d="M298.667,256c0,14.114,11.486,25.6,25.6,25.6s25.6-11.486,25.6-25.6c0-14.114-11.486-25.6-25.6-25.6
				S298.667,241.886,298.667,256z"/>
		</g>
	</g>
</g>
<g>
</g>
<g>
</g>
<g>
</g>
<g>
</g>
<g>
</g>
<g>
</g>
<g>
</g>
<g>
</g>
<g>
</g>
<g>
</g>
<g>
</g>
<g>
</g>
<g>
</g>
<g>
</g>
<g>
</g>
</svg>
