<?xml version="1.0" encoding="iso-8859-1"?>
<!-- Generator: Adobe Illustrator 19.0.0, SVG Export Plug-In . SVG Version: 6.00 Build 0)  -->
<svg version="1.1" id="Layer_1" xmlns="http://www.w3.org/2000/svg" xmlns:xlink="http://www.w3.org/1999/xlink" x="0px" y="0px"
	 viewBox="0 0 502.767 502.767" style="enable-background:new 0 0 502.767 502.767;" xml:space="preserve">
<g>
	<g>
		<path d="M385.679,486.82H276.564v-33.574h16.787c4.197,0,8.393-3.357,8.393-7.554l2.518-26.02H268.17
			c-5.036,0-8.393-3.357-8.393-8.393s3.357-8.393,8.393-8.393h36.931l1.679-16.787h-38.61c-5.036,0-8.393-3.357-8.393-8.393
			c0-5.036,3.357-8.393,8.393-8.393h40.289l1.679-19.305c15.108-5.036,26.859-19.305,27.698-36.092l14.269-163.672
			c10.072-3.357,17.626-12.59,17.626-23.502c0-14.269-10.911-25.18-25.18-25.18h-16.787V25.18c0-14.269-10.911-25.18-25.18-25.18
			s-25.18,10.911-25.18,25.18v75.541h-50.361V25.18c0-14.269-10.911-25.18-25.18-25.18s-26.02,10.911-26.02,25.18v75.541h-16.787
			c-14.269,0-25.18,10.911-25.18,25.18c0,10.911,7.554,20.144,17.626,23.502l14.269,163.672
			c0.839,16.787,12.59,31.056,27.698,36.092l1.679,19.305h39.449c5.036,0,8.393,3.357,8.393,8.393s-3.357,8.393-8.393,8.393h-38.61
			l1.679,16.787h36.931c5.036,0,8.393,3.357,8.393,8.393c0,5.036-3.357,8.393-8.393,8.393h-36.092l2.518,26.02
			c0,4.197,4.197,7.554,8.393,7.554h16.787v33.574H117.088c-5.036,0-8.393,3.357-8.393,8.393c0,5.036,3.357,8.393,8.393,8.393
			h117.508h33.574h117.508c5.036,0,8.393-3.357,8.393-8.393C394.072,491.016,390.715,486.82,385.679,486.82z M159.056,134.295
			c-5.036,0-8.393-3.357-8.393-8.393s3.357-8.393,8.393-8.393h25.18h33.574h67.148h33.574h25.18c5.036,0,8.393,3.357,8.393,8.393
			s-3.357,8.393-8.393,8.393h-41.967H201.023H159.056z M206.898,335.738c-13.43,0-24.341-10.072-25.18-23.502l-13.43-161.154h24.341
			v50.361c0,32.734,26.02,58.754,58.754,58.754s58.754-26.02,58.754-58.754v-50.361h24.341l-13.43,161.154
			c-0.839,13.43-11.751,23.502-25.18,23.502H206.898z M259.777,486.82H242.99v-33.574h16.787V486.82z"/>
	</g>
</g>
<g>
</g>
<g>
</g>
<g>
</g>
<g>
</g>
<g>
</g>
<g>
</g>
<g>
</g>
<g>
</g>
<g>
</g>
<g>
</g>
<g>
</g>
<g>
</g>
<g>
</g>
<g>
</g>
<g>
</g>
</svg>
