<?xml version="1.0" encoding="iso-8859-1"?>
<!-- Generator: Adobe Illustrator 19.0.0, SVG Export Plug-In . SVG Version: 6.00 Build 0)  -->
<svg version="1.1" id="Layer_1" xmlns="http://www.w3.org/2000/svg" xmlns:xlink="http://www.w3.org/1999/xlink" x="0px" y="0px"
	 viewBox="0 0 503.716 503.716" style="enable-background:new 0 0 503.716 503.716;" xml:space="preserve">
<g>
	<g>
		<g>
			<path d="M235.068,227.303v-18.147c0-8.88-7.227-16.107-16.107-16.107h-51.72c-8.88,0-16.107,7.227-16.107,16.107v18.147
				c0,8.88,7.227,16.107,16.107,16.107h51.72C227.841,243.41,235.068,236.183,235.068,227.303z"/>
			<path d="M495.268,201.661c-4.642,0-8.393,3.76-8.393,8.393c0,23.493-7.705,33.532-14.512,42.378
				c-3.752,4.893-7.571,9.938-9.451,16.376h-1.922c-0.613-11.348,0.974-19.104,2.434-26.02c2.224-10.534,4.323-20.48-2.426-36.067
				c-1.847-4.247-6.782-6.211-11.029-4.373c-4.255,1.847-6.22,6.79-4.373,11.046c4.616,10.676,3.408,16.418,1.402,25.927
				c-1.57,7.453-3.416,16.476-2.812,29.486h-3.357c-4.952-7.655-4.692-14.067-4.331-22.562c0.453-10.66,1.024-23.921-9.703-40.708
				c-2.493-3.903-7.68-5.044-11.591-2.552c-3.903,2.484-5.053,7.688-2.552,11.583c7.873,12.33,7.504,20.967,7.076,30.963
				c-0.428,10.039-0.789,21.361,8.393,34.304v123.157c0,27.766-22.595,50.361-50.361,50.361H268.645
				c-27.774,0-50.361-22.595-50.361-50.361v-16.787c9.258,0,16.787-7.537,16.787-16.787v-33.683h134.295
				c9.258,0,16.787-7.529,16.787-16.787V117.508c0-9.258-7.529-16.787-16.787-16.787h-8.393V41.967c4.633,0,8.393-3.752,8.393-8.393
				c0-4.642-3.76-8.393-8.393-8.393v-8.393C360.973,7.529,353.444,0,344.186,0h-33.574v58.754c0,4.642-3.76,8.393-8.393,8.393
				c-4.642,0-8.393-3.752-8.393-8.393V0h-16.787v58.754c0,4.642-3.76,8.393-8.393,8.393c-4.642,0-8.393-3.752-8.393-8.393V0H125.956
				v58.754c0,4.642-3.76,8.393-8.393,8.393c-4.642,0-8.393-3.752-8.393-8.393V0H92.382v58.754c0,4.642-3.76,8.393-8.393,8.393
				c-4.642,0-8.393-3.752-8.393-8.393V0H42.022c-9.266,0-16.787,7.529-16.787,16.787v8.393c-4.642,0-8.393,3.752-8.393,8.393
				c0,4.642,3.752,8.393,8.393,8.393v58.754h-8.393c-9.266,0-16.787,7.529-16.787,16.787v201.443
				c0,9.258,7.521,16.787,16.787,16.787h134.295v33.683c0,9.25,7.521,16.787,16.787,16.787v16.787
				c0,55.539,45.182,100.721,100.721,100.721h109.115c55.531,0,100.721-45.182,100.721-100.721V277.202
				c0-4.935,2.468-8.385,7.202-14.537c7.588-9.887,17.979-23.409,17.979-52.61C503.661,205.421,499.901,201.661,495.268,201.661z
				 M159.53,318.951H16.841V117.508h16.787h318.951h16.787l0.008,201.443H226.677H159.53z M176.317,369.421h-8.393v-33.683h50.361
				l0.008,33.683h-8.402H176.317z"/>
			<path d="M419.722,184.877c4.633,0,8.393-3.752,8.393-8.393c0-23.493,7.705-33.523,14.504-42.378
				c3.76-4.893,7.579-9.929,9.459-16.376h1.922c0.613,11.356-0.974,19.103-2.443,26.028c-2.216,10.525-4.314,20.472,2.426,36.058
				c1.377,3.164,4.465,5.061,7.705,5.061c1.116,0,2.249-0.218,3.332-0.688c4.255-1.847,6.211-6.79,4.373-11.037
				c-4.625-10.685-3.416-16.426-1.41-25.927c1.578-7.462,3.416-16.476,2.812-29.495h3.366c4.944,7.655,4.692,14.076,4.323,22.562
				c-0.453,10.66-1.016,23.921,9.703,40.708c1.603,2.51,4.314,3.878,7.084,3.878c1.544,0,3.114-0.428,4.507-1.318
				c3.911-2.493,5.053-7.688,2.56-11.591c-7.873-12.33-7.504-20.958-7.076-30.963c0.428-10.03,0.789-21.361-8.393-34.296V8.615
				c0-4.642-3.76-8.393-8.393-8.393h-33.574c-4.633,0-8.393,3.752-8.393,8.393v100.721c0,4.935-2.468,8.385-7.202,14.537
				c-7.588,9.888-17.979,23.409-17.979,52.61C411.329,181.125,415.089,184.877,419.722,184.877z"/>
		</g>
	</g>
</g>
<g>
</g>
<g>
</g>
<g>
</g>
<g>
</g>
<g>
</g>
<g>
</g>
<g>
</g>
<g>
</g>
<g>
</g>
<g>
</g>
<g>
</g>
<g>
</g>
<g>
</g>
<g>
</g>
<g>
</g>
</svg>
