<?xml version="1.0" encoding="iso-8859-1"?>
<!-- Generator: Adobe Illustrator 19.0.0, SVG Export Plug-In . SVG Version: 6.00 Build 0)  -->
<svg version="1.1" id="Layer_1" xmlns="http://www.w3.org/2000/svg" xmlns:xlink="http://www.w3.org/1999/xlink" x="0px" y="0px"
	 viewBox="0 0 512 512" style="enable-background:new 0 0 512 512;" xml:space="preserve">
<g>
	<g>
		<g>
			<rect x="307.2" y="349.87" width="68.267" height="34.133"/>
			<rect x="136.533" y="349.87" width="68.267" height="34.133"/>
			<rect x="238.933" y="128.003" width="34.133" height="119.467"/>
			<path d="M452.267,0H59.733C26.795,0,0,26.795,0,59.733v392.533C0,485.205,26.795,512,59.733,512h392.533
				C485.205,512,512,485.205,512,452.267V59.733C512,26.795,485.205,0,452.267,0z M59.733,469.333
				c-9.429,0-17.067-7.646-17.067-17.067S50.304,435.2,59.733,435.2S76.8,442.846,76.8,452.267S69.163,469.333,59.733,469.333z
				 M59.733,76.8c-9.429,0-17.067-7.646-17.067-17.067c0-9.421,7.637-17.067,17.067-17.067S76.8,50.313,76.8,59.733
				C76.8,69.154,69.163,76.8,59.733,76.8z M221.867,392.533c0,4.71-3.823,8.533-8.533,8.533H128c-4.71,0-8.533-3.823-8.533-8.533
				v-51.2c0-4.71,3.823-8.533,8.533-8.533h85.333c4.71,0,8.533,3.823,8.533,8.533V392.533z M281.6,264.533h-51.2
				c-4.71,0-8.533-3.823-8.533-8.533V119.467c0-4.71,3.823-8.533,8.533-8.533h51.2c4.71,0,8.533,3.823,8.533,8.533V256
				C290.133,260.71,286.31,264.533,281.6,264.533z M392.533,392.533c0,4.71-3.823,8.533-8.533,8.533h-85.333
				c-4.71,0-8.533-3.823-8.533-8.533v-51.2c0-4.71,3.823-8.533,8.533-8.533H384c4.71,0,8.533,3.823,8.533,8.533V392.533z
				 M452.267,469.333c-9.429,0-17.067-7.646-17.067-17.067s7.637-17.067,17.067-17.067c9.429,0,17.067,7.646,17.067,17.067
				S461.696,469.333,452.267,469.333z M452.267,76.8c-9.429,0-17.067-7.646-17.067-17.067c0-9.421,7.637-17.067,17.067-17.067
				c9.429,0,17.067,7.646,17.067,17.067C469.333,69.154,461.696,76.8,452.267,76.8z"/>
		</g>
	</g>
</g>
<g>
</g>
<g>
</g>
<g>
</g>
<g>
</g>
<g>
</g>
<g>
</g>
<g>
</g>
<g>
</g>
<g>
</g>
<g>
</g>
<g>
</g>
<g>
</g>
<g>
</g>
<g>
</g>
<g>
</g>
</svg>
