<?xml version="1.0" encoding="iso-8859-1"?>
<!-- Generator: Adobe Illustrator 19.0.0, SVG Export Plug-In . SVG Version: 6.00 Build 0)  -->
<svg version="1.1" id="Layer_1" xmlns="http://www.w3.org/2000/svg" xmlns:xlink="http://www.w3.org/1999/xlink" x="0px" y="0px"
	 viewBox="0 0 512 512" style="enable-background:new 0 0 512 512;" xml:space="preserve">
<g>
	<g>
		<path d="M25.6,315.733c-14.507,0-25.6,11.093-25.6,25.6V460.8c0,14.507,11.093,25.6,25.6,25.6h17.067v17.067
			c0,5.12,3.413,8.533,8.533,8.533h68.267c5.12,0,8.533-3.413,8.533-8.533V486.4h230.4V315.733H25.6z M110.933,494.933h-51.2V486.4
			h51.2V494.933z M179.2,409.6c0,5.12-3.413,8.533-8.533,8.533H153.6v8.533c0,5.12-3.413,8.533-8.533,8.533H128v8.533
			c0,5.12-3.413,8.533-8.533,8.533H85.333c-5.12,0-8.533-3.413-8.533-8.533V435.2H59.733c-5.12,0-8.533-3.413-8.533-8.533v-8.533
			h-8.533c-5.12,0-8.533-3.413-8.533-8.533v-51.2c0-5.12,3.413-8.533,8.533-8.533h128c5.12,0,8.533,3.413,8.533,8.533V409.6z
			 M341.333,409.6c0,5.12-3.413,8.533-8.533,8.533h-17.067v8.533c0,5.12-3.413,8.533-8.533,8.533h-17.067v8.533
			c0,5.12-3.413,8.533-8.533,8.533h-34.133c-5.12,0-8.533-3.413-8.533-8.533V435.2h-17.067c-5.12,0-8.533-3.413-8.533-8.533v-8.533
			H204.8c-5.12,0-8.533-3.413-8.533-8.533v-51.2c0-5.12,3.413-8.533,8.533-8.533h128c5.12,0,8.533,3.413,8.533,8.533V409.6z"/>
	</g>
</g>
<g>
	<g>
		<path d="M315.733,366.933v8.533c0,5.12-3.413,8.533-8.533,8.533s-8.533-3.413-8.533-8.533v-8.533h-8.533v8.533
			c0,5.12-3.413,8.533-8.533,8.533s-8.533-3.413-8.533-8.533v-8.533h-8.533v8.533c0,5.12-3.413,8.533-8.533,8.533
			s-8.533-3.413-8.533-8.533v-8.533h-8.533v8.533c0,5.12-3.413,8.533-8.533,8.533s-8.533-3.413-8.533-8.533v-8.533h-8.533v34.133
			h8.533c5.12,0,8.533,4.267,8.533,8.533v8.533h17.067c5.12,0,8.533,3.413,8.533,8.533v8.533h17.067v-8.533
			c0-5.12,3.413-8.533,8.533-8.533h17.067V409.6c0-5.12,3.413-8.533,8.533-8.533h17.067v-34.133H315.733z"/>
	</g>
</g>
<g>
	<g>
		<path d="M153.6,366.933v8.533c0,5.12-3.413,8.533-8.533,8.533c-5.12,0-8.533-3.413-8.533-8.533v-8.533H128v8.533
			c0,5.12-3.413,8.533-8.533,8.533s-8.533-3.413-8.533-8.533v-8.533H102.4v8.533c0,5.12-3.413,8.533-8.533,8.533
			c-5.12,0-8.533-3.413-8.533-8.533v-8.533H76.8v8.533c0,5.12-3.413,8.533-8.533,8.533s-8.533-3.413-8.533-8.533v-8.533H51.2v34.133
			h8.533c5.12,0,8.533,4.267,8.533,8.533v8.533h17.067c5.12,0,8.533,3.413,8.533,8.533v8.533h17.067v-8.533
			c0-5.12,3.413-8.533,8.533-8.533h17.067V409.6c0-5.12,3.413-8.533,8.533-8.533h17.067v-34.133H153.6z"/>
	</g>
</g>
<g>
	<g>
		<path d="M486.4,315.733h-17.067v-102.4c0-5.12-3.413-8.533-8.533-8.533L452.267,8.533C452.267,4.267,448,0,443.733,0h-17.067
			c-4.267,0-8.533,3.413-8.533,8.533L409.6,204.8c-5.12,0-8.533,3.413-8.533,8.533v102.4h-25.6V486.4H384v17.067
			c0,5.12,3.413,8.533,8.533,8.533H460.8c5.12,0,8.533-3.413,8.533-8.533V486.4H486.4c14.507,0,25.6-11.093,25.6-25.6V341.333
			C512,326.827,500.907,315.733,486.4,315.733z M418.133,221.867h34.133v17.067h-34.133V221.867z M418.133,256h34.133v17.067
			h-34.133V256z M417.28,324.267h0.853v-34.133h34.133v34.133v15.36c0,5.12-4.267,10.24-10.24,10.24H427.52
			c-5.12,0-10.24-4.267-10.24-10.24V324.267z M452.267,494.933h-51.2V486.4h51.2V494.933z M435.2,452.267
			c-18.773,0-34.133-15.36-34.133-34.133c0-18.773,15.36-34.133,34.133-34.133c18.773,0,34.133,15.36,34.133,34.133
			C469.333,436.907,453.973,452.267,435.2,452.267z"/>
	</g>
</g>
<g>
	<g>
		<path d="M435.2,401.067c-9.387,0-17.067,7.68-17.067,17.067s7.68,17.067,17.067,17.067s17.067-7.68,17.067-17.067
			S444.587,401.067,435.2,401.067z M435.2,426.667c-5.12,0-8.533-3.413-8.533-8.533s3.413-8.533,8.533-8.533
			s8.533,3.413,8.533,8.533S440.32,426.667,435.2,426.667z"/>
	</g>
</g>
<g>
</g>
<g>
</g>
<g>
</g>
<g>
</g>
<g>
</g>
<g>
</g>
<g>
</g>
<g>
</g>
<g>
</g>
<g>
</g>
<g>
</g>
<g>
</g>
<g>
</g>
<g>
</g>
<g>
</g>
</svg>
