<?xml version="1.0" encoding="iso-8859-1"?>
<!-- Generator: Adobe Illustrator 19.0.0, SVG Export Plug-In . SVG Version: 6.00 Build 0)  -->
<svg version="1.1" id="Layer_1" xmlns="http://www.w3.org/2000/svg" xmlns:xlink="http://www.w3.org/1999/xlink" x="0px" y="0px"
	 viewBox="0 0 512 512" style="enable-background:new 0 0 512 512;" xml:space="preserve">
<g>
	<g>
		<rect x="221.867" y="256" width="68.267" height="17.067"/>
	</g>
</g>
<g>
	<g>
		<rect x="221.867" y="187.733" width="68.267" height="17.067"/>
	</g>
</g>
<g>
	<g>
		<path d="M392.533,494.933H281.6V409.6c9.387,0,17.067-7.68,17.067-17.067v-17.067c5.12,0,8.533-3.413,8.533-8.533
			s-3.413-8.533-8.533-8.533v-18.773c20.48-7.68,42.667-40.96,42.667-75.093V102.4c0-9.387-7.68-17.067-17.067-17.067H307.2V17.067
			C307.2,7.68,299.52,0,290.133,0h-68.267C212.48,0,204.8,7.68,204.8,17.067v68.267h-17.067c-9.387,0-17.067,7.68-17.067,17.067
			v162.133c0,34.133,22.187,67.413,42.667,75.093V358.4c-5.12,0-8.533,3.413-8.533,8.533s3.413,8.533,8.533,8.533v17.067
			c0,9.387,7.68,17.067,17.067,17.067v85.333H119.467c-5.12,0-8.533,3.413-8.533,8.533s3.413,8.533,8.533,8.533h119.467h34.133
			h119.467c5.12,0,8.533-3.413,8.533-8.533S397.653,494.933,392.533,494.933z M281.6,358.4h-51.2v-17.067h51.2V358.4z
			 M221.867,17.067h68.267v68.267h-68.267V17.067z M204.8,179.2c0-5.12,3.413-8.533,8.533-8.533h85.333
			c5.12,0,8.533,3.413,8.533,8.533v34.133c0,5.12-3.413,8.533-8.533,8.533h-85.333c-5.12,0-8.533-3.413-8.533-8.533V179.2z
			 M213.333,290.133c-5.12,0-8.533-3.413-8.533-8.533v-34.133c0-5.12,3.413-8.533,8.533-8.533h85.333
			c5.12,0,8.533,3.413,8.533,8.533V281.6c0,5.12-3.413,8.533-8.533,8.533H213.333z M238.933,392.533H230.4v-17.067h51.2v17.067
			h-8.533H238.933z"/>
	</g>
</g>
<g>
</g>
<g>
</g>
<g>
</g>
<g>
</g>
<g>
</g>
<g>
</g>
<g>
</g>
<g>
</g>
<g>
</g>
<g>
</g>
<g>
</g>
<g>
</g>
<g>
</g>
<g>
</g>
<g>
</g>
</svg>
