<?xml version="1.0" encoding="iso-8859-1"?>
<!-- Generator: Adobe Illustrator 19.0.0, SVG Export Plug-In . SVG Version: 6.00 Build 0)  -->
<svg version="1.1" id="Layer_1" xmlns="http://www.w3.org/2000/svg" xmlns:xlink="http://www.w3.org/1999/xlink" x="0px" y="0px"
	 viewBox="0 0 512 512" style="enable-background:new 0 0 512 512;" xml:space="preserve">
<g>
	<g>
		<g>
			<path d="M93.867,238.933c-9.412,0-17.067,7.654-17.067,17.067c0,9.412,7.654,17.067,17.067,17.067
				c9.412,0,17.067-7.654,17.067-17.067C110.933,246.588,103.279,238.933,93.867,238.933z"/>
			<path d="M409.487,238.933c-9.412,0-17.067,7.654-17.067,17.067c0,9.412,7.654,17.067,17.067,17.067
				c9.412,0,17.067-7.654,17.067-17.067C426.554,246.588,418.9,238.933,409.487,238.933z"/>
			<path d="M162.133,174.643v4.557c0,4.71-3.823,8.533-8.533,8.533h-34.133c-4.71,0-8.533-3.823-8.533-8.533v-4.557
				C75.776,185.643,51.2,218.359,51.2,256c0,37.641,24.576,70.357,59.733,81.357V332.8c0-4.71,3.823-8.533,8.533-8.533H153.6
				c4.71,0,8.533,3.823,8.533,8.533v4.557c35.157-10.999,59.733-43.716,59.733-81.357
				C221.867,218.359,197.291,185.643,162.133,174.643z M93.867,290.133c-18.825,0-34.133-15.309-34.133-34.133
				s15.309-34.133,34.133-34.133C112.691,221.867,128,237.175,128,256S112.691,290.133,93.867,290.133z M213.333,256
				c0,18.825-15.309,34.133-34.133,34.133S145.067,274.825,145.067,256s15.309-34.133,34.133-34.133S213.333,237.175,213.333,256z"
				/>
			<path d="M162.133,256c0,9.412,7.654,17.067,17.067,17.067s17.067-7.654,17.067-17.067c0-9.412-7.654-17.067-17.067-17.067
				S162.133,246.588,162.133,256z"/>
			<path d="M324.154,238.933c-9.412,0-17.067,7.654-17.067,17.067c0,9.412,7.654,17.067,17.067,17.067s17.067-7.654,17.067-17.067
				C341.221,246.588,333.566,238.933,324.154,238.933z"/>
			<path d="M392.421,174.643v4.557c0,4.71-3.823,8.533-8.533,8.533h-34.133c-4.71,0-8.533-3.823-8.533-8.533v-4.557
				c-35.157,11-59.733,43.716-59.733,81.357c0,37.641,24.576,70.357,59.733,81.357V332.8c0-4.71,3.823-8.533,8.533-8.533h34.133
				c4.71,0,8.533,3.823,8.533,8.533v4.557c35.157-10.999,59.733-43.716,59.733-81.357
				C452.154,218.359,427.578,185.643,392.421,174.643z M324.154,290.133c-18.825,0-34.133-15.309-34.133-34.133
				s15.309-34.133,34.133-34.133s34.133,15.309,34.133,34.133S342.979,290.133,324.154,290.133z M409.487,290.133
				c-18.825,0-34.133-15.309-34.133-34.133s15.309-34.133,34.133-34.133s34.133,15.309,34.133,34.133
				S428.312,290.133,409.487,290.133z"/>
			<path d="M469.333,110.933H42.667C19.14,110.933,0,130.074,0,153.6v204.8c0,23.526,19.14,42.667,42.667,42.667h426.667
				c23.526,0,42.667-19.14,42.667-42.667V153.6C512,130.074,492.86,110.933,469.333,110.933z M42.667,145.067
				c4.71,0,8.533,3.823,8.533,8.533c0,4.71-3.823,8.533-8.533,8.533c-4.71,0-8.533-3.823-8.533-8.533
				C34.133,148.89,37.956,145.067,42.667,145.067z M42.667,366.933c-4.71,0-8.533-3.823-8.533-8.533s3.823-8.533,8.533-8.533
				c4.71,0,8.533,3.823,8.533,8.533S47.377,366.933,42.667,366.933z M155.145,356.634c-0.512,0.094-1.033,0.145-1.544,0.145
				c-1.98,0-3.917-0.691-5.461-1.98c-1.946-1.621-3.072-4.028-3.072-6.554v-6.912H128v6.912c0,2.526-1.126,4.932-3.072,6.554
				c-1.946,1.621-4.497,2.287-7.006,1.835C69.367,347.699,34.133,305.382,34.133,256s35.234-91.699,83.789-100.634
				c2.517-0.469,5.06,0.213,7.006,1.835c1.946,1.621,3.072,4.028,3.072,6.554v6.912h17.067v-6.912c0-2.526,1.126-4.932,3.072-6.554
				c1.946-1.63,4.48-2.304,7.006-1.835c48.555,8.934,83.789,51.251,83.789,100.634S203.699,347.699,155.145,356.634z
				 M385.434,356.634c-0.521,0.094-1.032,0.145-1.544,0.145c-1.98,0-3.917-0.691-5.461-1.98c-1.946-1.621-3.072-4.028-3.072-6.554
				v-6.912h-17.067v6.912c0,2.526-1.126,4.932-3.072,6.554c-1.946,1.621-4.497,2.287-7.006,1.835
				c-48.555-8.934-83.789-51.251-83.789-100.634s35.234-91.699,83.789-100.634c2.517-0.469,5.06,0.213,7.006,1.835
				c1.946,1.621,3.072,4.028,3.072,6.554v6.912h17.067v-6.912c0-2.526,1.126-4.932,3.072-6.554c1.937-1.63,4.48-2.304,7.006-1.835
				c48.546,8.934,83.789,51.251,83.789,100.634S433.98,347.699,385.434,356.634z M469.333,366.933c-4.71,0-8.533-3.823-8.533-8.533
				s3.823-8.533,8.533-8.533s8.533,3.823,8.533,8.533S474.044,366.933,469.333,366.933z M469.333,162.133
				c-4.71,0-8.533-3.823-8.533-8.533c0-4.71,3.823-8.533,8.533-8.533s8.533,3.823,8.533,8.533
				C477.867,158.31,474.044,162.133,469.333,162.133z"/>
		</g>
	</g>
</g>
<g>
</g>
<g>
</g>
<g>
</g>
<g>
</g>
<g>
</g>
<g>
</g>
<g>
</g>
<g>
</g>
<g>
</g>
<g>
</g>
<g>
</g>
<g>
</g>
<g>
</g>
<g>
</g>
<g>
</g>
</svg>
