<?xml version="1.0" encoding="iso-8859-1"?>
<!-- Generator: Adobe Illustrator 19.0.0, SVG Export Plug-In . SVG Version: 6.00 Build 0)  -->
<svg version="1.1" id="Layer_1" xmlns="http://www.w3.org/2000/svg" xmlns:xlink="http://www.w3.org/1999/xlink" x="0px" y="0px"
	 viewBox="0 0 503.607 503.607" style="enable-background:new 0 0 503.607 503.607;" xml:space="preserve">
<g>
	<g>
		<path d="M428.066,226.623v-25.18c0-5.036-3.357-8.393-8.393-8.393V83.934c0-0.839,0-1.679-0.839-2.518v-0.839
			c0,0,0-0.839-0.839-0.839c-8.393-12.59-8.393-20.144,0-32.734c0,0,0-0.839,0.839-0.839v-0.839c0-0.839,0-0.839,0-1.679
			c0,0,0,0,0-0.839s0-1.679,0-2.518c0,0,0,0,0-0.839c0-0.839,0-0.839-0.839-1.679L401.207,4.197C400.367,1.679,397.849,0,394.492,0
			h-16.787c-3.357,0-5.875,1.679-7.554,5.036L353.364,38.61c0,0.839,0,0.839-0.839,1.679c0,0,0,0,0,0.839v0.839c0,0,0,0,0,0.839
			s0,0.839,0,1.679v0.839c0,0,0,0.839,0.839,0.839c8.393,12.59,8.393,20.144,0,32.734c0,0,0,0.839-0.839,0.839v0.839
			c0,1.679,0,2.518,0,3.357v109.115c-5.036,0-8.393,3.357-8.393,8.393v25.18c-5.036,0-8.393,3.357-8.393,8.393v117.508
			c0,5.036,3.357,8.393,8.393,8.393h8.393v41.967c0,4.197,3.357,7.554,7.554,8.393c-4.197,23.502-24.341,41.967-49.521,41.967
			H193.049c-25.18,0-45.325-18.466-49.521-41.967c4.197,0,7.554-4.197,7.554-8.393v-41.967h8.393c5.036,0,8.393-3.357,8.393-8.393
			V235.016c0-5.036-3.357-8.393-8.393-8.393v-25.18c0-5.036-3.357-8.393-8.393-8.393V83.934c0-0.839,0-1.679-0.839-2.518v-0.839
			c0,0,0-0.839-0.839-0.839c-8.393-12.59-8.393-20.144,0-32.734c0,0,0-0.839,0.839-0.839v-0.839c0-0.839,0-0.839,0-1.679
			c0,0,0,0,0-0.839s0-1.679,0-2.518c0,0,0,0,0-0.839c0-0.839,0-0.839-0.839-1.679L132.616,4.197C131.777,1.679,129.259,0,125.902,0
			h-16.787c-3.357,0-5.875,1.679-7.554,5.036L84.774,38.61c0,0.839,0,0.839-0.839,1.679c0,0,0,0,0,0.839v0.839c0,0,0,0,0,0.839
			s0,0.839,0,1.679v0.839c0,0,0,0.839,0.839,0.839c8.393,12.59,8.393,20.144,0,32.734c0,0,0,0.839-0.839,0.839v0.839
			c0,1.679,0,2.518,0,3.357v109.115c-5.036,0-8.393,3.357-8.393,8.393v25.18c-5.036,0-8.393,3.357-8.393,8.393v117.508
			c0,5.036,3.357,8.393,8.393,8.393h8.393v41.967c0,5.036,3.357,8.393,8.393,8.393c4.197,52.039,47.843,92.328,100.721,92.328
			h117.508c52.879,0,95.685-41.128,99.882-92.328h0.839c5.036,0,8.393-3.357,8.393-8.393v-41.967h8.393
			c5.036,0,8.393-3.357,8.393-8.393V235.016C436.459,230.82,433.102,226.623,428.066,226.623z M105.757,50.361h22.662
			c-2.518,8.393-2.518,16.787,0.839,25.18h-23.502C109.115,67.148,109.115,58.754,105.757,50.361z M100.721,125.902h33.574v67.148
			h-33.574V125.902z M134.295,394.492h-33.574v-33.574h33.574V394.492z M142.689,226.623H92.328v-16.787h50.361V226.623z
			 M374.348,50.361h22.662c-3.357,8.393-3.357,16.787,0,25.18h-22.662C377.705,67.148,377.705,58.754,374.348,50.361z
			 M369.311,125.902h33.574v67.148h-33.574V125.902z M402.885,394.492h-33.574v-33.574h33.574V394.492z M411.279,226.623h-50.361
			v-16.787h50.361V226.623z"/>
	</g>
</g>
<g>
</g>
<g>
</g>
<g>
</g>
<g>
</g>
<g>
</g>
<g>
</g>
<g>
</g>
<g>
</g>
<g>
</g>
<g>
</g>
<g>
</g>
<g>
</g>
<g>
</g>
<g>
</g>
<g>
</g>
</svg>
