<?xml version="1.0" encoding="iso-8859-1"?>
<!-- Generator: Adobe Illustrator 19.0.0, SVG Export Plug-In . SVG Version: 6.00 Build 0)  -->
<svg version="1.1" id="Layer_1" xmlns="http://www.w3.org/2000/svg" xmlns:xlink="http://www.w3.org/1999/xlink" x="0px" y="0px"
	 viewBox="0 0 503.828 503.828" style="enable-background:new 0 0 503.828 503.828;" xml:space="preserve">
<g>
	<g>
		<g>
			<path d="M293.881,277.093c-4.642,0-8.393,3.752-8.393,8.393c0,23.493-7.705,33.523-14.504,42.378
				c-3.76,4.893-7.571,9.929-9.459,16.376h-1.922c-0.613-11.356,0.974-19.112,2.434-26.036c2.224-10.525,4.323-20.463-2.417-36.05
				c-1.838-4.255-6.782-6.228-11.029-4.373c-4.264,1.838-6.22,6.774-4.381,11.029c4.625,10.693,3.408,16.426,1.402,25.936
				c-1.57,7.462-3.416,16.476-2.812,29.495h-3.357c-4.944-7.663-4.684-14.076-4.323-22.57c0.453-10.651,1.016-23.905-9.703-40.7
				c-2.493-3.911-7.688-5.053-11.591-2.56c-3.911,2.493-5.053,7.68-2.56,11.591c7.873,12.33,7.504,20.967,7.076,30.955
				c-0.428,10.047-0.781,21.37,8.393,34.304v47.843c0,27.774-22.587,50.361-50.361,50.361h-25.18
				c-27.774,0-50.361-22.587-50.361-50.361v-17.005c9.258,0,16.787-7.529,16.787-16.787v-33.574h25.18
				c4.642,0,8.393-3.752,8.393-8.393V184.656c0-4.642-3.752-8.393-8.393-8.393h-8.393v-41.967c0-4.642-3.752-8.393-8.393-8.393
				h-8.393V58.754c0-4.642-3.752-8.393-8.393-8.393h-8.393V25.18C100.832,11.298,89.535,0,75.652,0s-25.18,11.298-25.18,25.18v25.18
				h-8.393c-4.642,0-8.393,3.752-8.393,8.393v67.148h-8.393c-4.642,0-8.393,3.752-8.393,8.393v41.967H8.504
				c-4.642,0-8.393,3.752-8.393,8.393v142.689c0,4.642,3.752,8.393,8.393,8.393h25.18v33.574c0,9.258,7.529,16.787,16.787,16.787
				v17.005c0,55.548,45.182,100.721,100.721,100.721h25.18c55.539,0,100.721-45.174,100.721-100.721v-50.47
				c0-4.935,2.468-8.385,7.202-14.546c7.588-9.879,17.979-23.409,17.979-52.602C302.275,280.845,298.523,277.093,293.881,277.093z
				 M67.258,25.18c0-4.633,3.76-8.393,8.393-8.393s8.393,3.76,8.393,8.393v25.18H67.258V25.18z M33.685,176.262v-33.574h8.393
				h67.148h8.393v33.574H33.685z M50.471,369.311v-33.574h50.361l0.017,33.574H50.471z"/>
			<path d="M402.996,0.222h-67.148c-55.539,0-100.721,45.182-100.721,100.721v75.423c0,4.935-2.468,8.385-7.202,14.546
				c-7.588,9.879-17.979,23.409-17.979,52.602c0,4.642,3.752,8.393,8.393,8.393c4.642,0,8.393-3.752,8.393-8.393
				c0-23.493,7.705-33.523,14.504-42.378c3.76-4.893,7.571-9.929,9.459-16.376h1.922c0.613,11.356-0.974,19.112-2.434,26.036
				c-2.224,10.525-4.323,20.472,2.417,36.05c1.368,3.173,4.457,5.061,7.714,5.061c1.108,0,2.241-0.218,3.315-0.688
				c4.264-1.838,6.22-6.773,4.381-11.029c-4.625-10.685-3.408-16.418-1.402-25.927c1.57-7.462,3.416-16.476,2.812-29.503h3.357
				c4.944,7.663,4.684,14.084,4.323,22.578c-0.453,10.643-1.016,23.905,9.703,40.691c1.603,2.51,4.314,3.878,7.084,3.878
				c1.553,0,3.106-0.42,4.507-1.318c3.911-2.493,5.053-7.68,2.56-11.591c-7.873-12.33-7.504-20.958-7.076-30.947
				c0.428-10.047,0.789-21.361-8.393-34.312v-72.796c0-27.774,22.587-50.361,50.361-50.361h67.148
				c27.774,0,50.361,22.587,50.361,50.361v394.492c0,4.642,3.752,8.393,8.393,8.393h33.574c4.642,0,8.393-3.752,8.393-8.393V100.943
				C503.717,45.403,458.535,0.222,402.996,0.222z"/>
		</g>
	</g>
</g>
<g>
</g>
<g>
</g>
<g>
</g>
<g>
</g>
<g>
</g>
<g>
</g>
<g>
</g>
<g>
</g>
<g>
</g>
<g>
</g>
<g>
</g>
<g>
</g>
<g>
</g>
<g>
</g>
<g>
</g>
</svg>
