<?xml version="1.0" encoding="iso-8859-1"?>
<!-- Generator: Adobe Illustrator 19.0.0, SVG Export Plug-In . SVG Version: 6.00 Build 0)  -->
<svg version="1.1" id="Layer_1" xmlns="http://www.w3.org/2000/svg" xmlns:xlink="http://www.w3.org/1999/xlink" x="0px" y="0px"
	 viewBox="0 0 512 512" style="enable-background:new 0 0 512 512;" xml:space="preserve">
<g>
	<g>
		<path d="M315.733,51.2v8.533c0,5.12-3.413,8.533-8.533,8.533s-8.533-3.413-8.533-8.533V51.2h-8.533v8.533
			c0,5.12-3.413,8.533-8.533,8.533c-5.12,0-8.533-3.413-8.533-8.533V51.2h-8.533v8.533c0,5.12-3.413,8.533-8.533,8.533
			s-8.533-3.413-8.533-8.533V51.2h-8.533v8.533c0,5.12-3.413,8.533-8.533,8.533c-5.12,0-8.533-3.413-8.533-8.533V51.2h-8.533v8.533
			c0,5.12-3.413,8.533-8.533,8.533s-8.533-3.413-8.533-8.533V51.2h-8.533v25.6H192c5.973,0,11.093,2.56,14.507,7.68L217.6,102.4
			h75.947l11.947-17.92c3.413-5.12,8.533-7.68,14.507-7.68h4.267V51.2H315.733z"/>
	</g>
</g>
<g>
	<g>
		<path d="M349.867,0H162.133c-14.507,0-25.6,11.093-25.6,25.6V128c0,14.507,11.093,25.6,25.6,25.6h187.733
			c14.507,0,25.6-11.093,25.6-25.6V25.6C375.467,11.093,364.373,0,349.867,0z M341.333,76.8c0,9.387-7.68,17.067-17.067,17.067H320
			l-11.947,17.92c-3.413,5.12-8.533,7.68-14.507,7.68H217.6c-5.973,0-11.093-2.56-14.507-7.68L192,93.867h-4.267
			c-9.387,0-17.067-7.68-17.067-17.067V51.2c0-9.387,7.68-17.067,17.067-17.067h136.533c9.387,0,17.067,7.68,17.067,17.067V76.8z"/>
	</g>
</g>
<g>
	<g>
		<path d="M332.8,238.933h-25.6v-51.2c0-9.387-7.68-17.067-17.067-17.067h-68.267c-9.387,0-17.067,7.68-17.067,17.067v51.2h-25.6
			c-5.12,0-8.533,3.413-8.533,8.533V358.4c0,34.133,22.187,67.413,42.667,75.093V460.8c-5.12,0-8.533,3.413-8.533,8.533
			s3.413,8.533,8.533,8.533v17.067c0,9.387,7.68,17.067,17.067,17.067h51.2c9.387,0,17.067-7.68,17.067-17.067v-17.067
			c5.12,0,8.533-3.413,8.533-8.533s-3.413-8.533-8.533-8.533v-27.307c20.48-7.68,42.667-40.96,42.667-75.093V247.467
			C341.333,243.2,337.92,238.933,332.8,238.933z M221.867,187.733h68.267v51.2h-68.267V187.733z M281.6,494.933h-51.2v-17.067h51.2
			V494.933z M281.6,460.8h-51.2v-25.6h51.2V460.8z M298.667,384h-85.333c-5.12,0-8.533-3.413-8.533-8.533s3.413-8.533,8.533-8.533
			h85.333c5.12,0,8.533,3.413,8.533,8.533S303.787,384,298.667,384z M298.667,349.867h-85.333c-5.12,0-8.533-3.413-8.533-8.533
			c0-5.12,3.413-8.533,8.533-8.533h85.333c5.12,0,8.533,3.413,8.533,8.533C307.2,346.453,303.787,349.867,298.667,349.867z"/>
	</g>
</g>
<g>
</g>
<g>
</g>
<g>
</g>
<g>
</g>
<g>
</g>
<g>
</g>
<g>
</g>
<g>
</g>
<g>
</g>
<g>
</g>
<g>
</g>
<g>
</g>
<g>
</g>
<g>
</g>
<g>
</g>
</svg>
