<?xml version="1.0" encoding="iso-8859-1"?>
<!-- Generator: Adobe Illustrator 19.0.0, SVG Export Plug-In . SVG Version: 6.00 Build 0)  -->
<svg version="1.1" id="Layer_1" xmlns="http://www.w3.org/2000/svg" xmlns:xlink="http://www.w3.org/1999/xlink" x="0px" y="0px"
	 viewBox="0 0 512 512" style="enable-background:new 0 0 512 512;" xml:space="preserve">
<g>
	<g>
		<path d="M443.733,0H409.6c-4.71,0-8.533,3.814-8.533,8.533v400.956c0,28.237-22.963,51.2-51.208,51.2L238.933,460.8
			c-28.237,0-51.2-22.963-51.2-51.2c9.412,0,17.067-7.654,17.067-17.067v-17.067c4.71,0,8.533-3.814,8.533-8.533
			c0-4.719-3.823-8.533-8.533-8.533v-17.067h34.133c9.412,0,17.067-7.654,17.067-17.067V307.2c4.71,0,8.533-3.814,8.533-8.533
			s-3.823-8.533-8.533-8.533v-17.067c4.71,0,8.533-3.814,8.533-8.533S260.71,256,256,256V136.533
			c0-9.412-7.654-17.067-17.067-17.067H230.4V85.333c0-9.412-7.654-17.067-17.067-17.067v-51.2C213.333,7.654,205.679,0,196.267,0
			H128c-9.412,0-17.067,7.654-17.067,17.067v51.2c-9.412,0-17.067,7.654-17.067,17.067v34.133h-8.533
			c-9.412,0-17.067,7.654-17.067,17.067V256c-4.71,0-8.533,3.814-8.533,8.533s3.823,8.533,8.533,8.533v17.067
			c-4.71,0-8.533,3.814-8.533,8.533s3.823,8.533,8.533,8.533v17.067c0,9.412,7.654,17.067,17.067,17.067h34.133V358.4
			c-4.71,0-8.533,3.814-8.533,8.533c0,4.719,3.823,8.533,8.533,8.533v17.067c0,9.412,7.654,17.067,17.067,17.067
			c0,56.465,45.935,102.4,102.409,102.4l110.925-0.111c56.465,0,102.4-45.935,102.4-102.4V8.533C452.267,3.814,448.444,0,443.733,0z
			 M110.933,85.333h8.533H204.8h8.533v34.133h-102.4V85.333z M85.333,290.133v-17.067h153.609v17.067H85.333z M187.742,358.4
			h-51.209v-17.067h51.2L187.742,358.4z M145.067,392.533h-8.533v-17.067h51.209v17.067H179.2H145.067z"/>
	</g>
</g>
<g>
</g>
<g>
</g>
<g>
</g>
<g>
</g>
<g>
</g>
<g>
</g>
<g>
</g>
<g>
</g>
<g>
</g>
<g>
</g>
<g>
</g>
<g>
</g>
<g>
</g>
<g>
</g>
<g>
</g>
</svg>
