<?xml version="1.0" encoding="iso-8859-1"?>
<!-- Generator: Adobe Illustrator 19.0.0, SVG Export Plug-In . SVG Version: 6.00 Build 0)  -->
<svg version="1.1" id="Layer_1" xmlns="http://www.w3.org/2000/svg" xmlns:xlink="http://www.w3.org/1999/xlink" x="0px" y="0px"
	 viewBox="0 0 512 512" style="enable-background:new 0 0 512 512;" xml:space="preserve">
<g>
	<g>
		<g>
			<path d="M358.4,307.2h102.4V204.8H358.4V307.2z M426.667,273.067h8.533c4.71,0,8.533,3.823,8.533,8.533
				c0,4.71-3.823,8.533-8.533,8.533h-8.533c-4.71,0-8.533-3.823-8.533-8.533C418.133,276.89,421.956,273.067,426.667,273.067z
				 M401.067,230.4c0-4.71,3.823-8.533,8.533-8.533s8.533,3.823,8.533,8.533v17.067c0,4.71-3.823,8.533-8.533,8.533
				s-8.533-3.823-8.533-8.533V230.4z M384,273.067h8.533c4.71,0,8.533,3.823,8.533,8.533c0,4.71-3.823,8.533-8.533,8.533H384
				c-4.71,0-8.533-3.823-8.533-8.533C375.467,276.89,379.29,273.067,384,273.067z"/>
			<path d="M204.8,307.2h102.4V204.8H204.8V307.2z M273.067,273.067h8.533c4.71,0,8.533,3.823,8.533,8.533
				c0,4.71-3.823,8.533-8.533,8.533h-8.533c-4.71,0-8.533-3.823-8.533-8.533C264.533,276.89,268.356,273.067,273.067,273.067z
				 M247.467,230.4c0-4.71,3.823-8.533,8.533-8.533s8.533,3.823,8.533,8.533v17.067c0,4.71-3.823,8.533-8.533,8.533
				s-8.533-3.823-8.533-8.533V230.4z M230.4,273.067h8.533c4.71,0,8.533,3.823,8.533,8.533c0,4.71-3.823,8.533-8.533,8.533H230.4
				c-4.71,0-8.533-3.823-8.533-8.533C221.867,276.89,225.69,273.067,230.4,273.067z"/>
			<path d="M477.884,145.067H34.116C15.3,145.067,0,160.367,0,179.183v153.634c0,18.816,15.3,34.116,34.116,34.116h443.767
				c18.816,0,34.116-15.3,34.116-34.116V179.183C512,160.367,496.7,145.067,477.884,145.067z M170.667,315.733
				c0,4.71-3.823,8.533-8.533,8.533H42.667c-4.71,0-8.533-3.823-8.533-8.533V196.267c0-4.71,3.823-8.533,8.533-8.533h119.467
				c4.71,0,8.533,3.823,8.533,8.533V315.733z M324.267,315.733c0,4.71-3.823,8.533-8.533,8.533H196.267
				c-4.71,0-8.533-3.823-8.533-8.533V196.267c0-4.71,3.823-8.533,8.533-8.533h119.467c4.71,0,8.533,3.823,8.533,8.533V315.733z
				 M477.867,315.733c0,4.71-3.823,8.533-8.533,8.533H349.867c-4.71,0-8.533-3.823-8.533-8.533V196.267
				c0-4.71,3.823-8.533,8.533-8.533h119.467c4.71,0,8.533,3.823,8.533,8.533V315.733z"/>
			<path d="M51.2,307.2h102.4V204.8H51.2V307.2z M119.467,273.067H128c4.71,0,8.533,3.823,8.533,8.533
				c0,4.71-3.823,8.533-8.533,8.533h-8.533c-4.71,0-8.533-3.823-8.533-8.533C110.933,276.89,114.756,273.067,119.467,273.067z
				 M93.867,230.4c0-4.71,3.823-8.533,8.533-8.533c4.71,0,8.533,3.823,8.533,8.533v17.067c0,4.71-3.823,8.533-8.533,8.533
				c-4.71,0-8.533-3.823-8.533-8.533V230.4z M76.8,273.067h8.533c4.71,0,8.533,3.823,8.533,8.533c0,4.71-3.823,8.533-8.533,8.533
				H76.8c-4.71,0-8.533-3.823-8.533-8.533C68.267,276.89,72.09,273.067,76.8,273.067z"/>
		</g>
	</g>
</g>
<g>
</g>
<g>
</g>
<g>
</g>
<g>
</g>
<g>
</g>
<g>
</g>
<g>
</g>
<g>
</g>
<g>
</g>
<g>
</g>
<g>
</g>
<g>
</g>
<g>
</g>
<g>
</g>
<g>
</g>
</svg>
