<?xml version="1.0" encoding="iso-8859-1"?>
<!-- Generator: Adobe Illustrator 19.0.0, SVG Export Plug-In . SVG Version: 6.00 Build 0)  -->
<svg version="1.1" id="Layer_1" xmlns="http://www.w3.org/2000/svg" xmlns:xlink="http://www.w3.org/1999/xlink" x="0px" y="0px"
	 viewBox="0 0 512 512" style="enable-background:new 0 0 512 512;" xml:space="preserve">
<g>
	<g>
		<g>
			<path d="M204.8,460.8h102.4V358.4H204.8V460.8z M273.067,426.667h8.533c4.71,0,8.533,3.823,8.533,8.533
				c0,4.71-3.823,8.533-8.533,8.533h-8.533c-4.71,0-8.533-3.823-8.533-8.533C264.533,430.49,268.356,426.667,273.067,426.667z
				 M247.467,384c0-4.71,3.823-8.533,8.533-8.533s8.533,3.823,8.533,8.533v17.067c0,4.71-3.823,8.533-8.533,8.533
				s-8.533-3.823-8.533-8.533V384z M230.4,426.667h8.533c4.71,0,8.533,3.823,8.533,8.533c0,4.71-3.823,8.533-8.533,8.533H230.4
				c-4.71,0-8.533-3.823-8.533-8.533C221.867,430.49,225.69,426.667,230.4,426.667z"/>
			<path d="M204.8,153.6h102.4V51.2H204.8V153.6z M273.067,119.467h8.533c4.71,0,8.533,3.823,8.533,8.533
				c0,4.71-3.823,8.533-8.533,8.533h-8.533c-4.71,0-8.533-3.823-8.533-8.533C264.533,123.29,268.356,119.467,273.067,119.467z
				 M247.467,76.8c0-4.71,3.823-8.533,8.533-8.533s8.533,3.823,8.533,8.533v17.067c0,4.71-3.823,8.533-8.533,8.533
				s-8.533-3.823-8.533-8.533V76.8z M230.4,119.467h8.533c4.71,0,8.533,3.823,8.533,8.533c0,4.71-3.823,8.533-8.533,8.533H230.4
				c-4.71,0-8.533-3.823-8.533-8.533C221.867,123.29,225.69,119.467,230.4,119.467z"/>
			<path d="M204.8,307.2h102.4V204.8H204.8V307.2z M273.067,273.067h8.533c4.71,0,8.533,3.823,8.533,8.533s-3.823,8.533-8.533,8.533
				h-8.533c-4.71,0-8.533-3.823-8.533-8.533S268.356,273.067,273.067,273.067z M247.467,230.4c0-4.71,3.823-8.533,8.533-8.533
				s8.533,3.823,8.533,8.533v17.067c0,4.71-3.823,8.533-8.533,8.533s-8.533-3.823-8.533-8.533V230.4z M230.4,273.067h8.533
				c4.71,0,8.533,3.823,8.533,8.533s-3.823,8.533-8.533,8.533H230.4c-4.71,0-8.533-3.823-8.533-8.533S225.69,273.067,230.4,273.067z
				"/>
			<path d="M332.817,0H179.183c-18.816,0-34.116,15.3-34.116,34.116v443.768c0,18.816,15.3,34.116,34.116,34.116h153.634
				c18.816,0,34.116-15.3,34.116-34.116V34.116C366.933,15.3,351.633,0,332.817,0z M324.267,469.333c0,4.71-3.823,8.533-8.533,8.533
				H196.267c-4.71,0-8.533-3.823-8.533-8.533V349.867c0-4.71,3.823-8.533,8.533-8.533h119.467c4.71,0,8.533,3.823,8.533,8.533
				V469.333z M324.267,315.733c0,4.71-3.823,8.533-8.533,8.533H196.267c-4.71,0-8.533-3.823-8.533-8.533V196.267
				c0-4.71,3.823-8.533,8.533-8.533h119.467c4.71,0,8.533,3.823,8.533,8.533V315.733z M324.267,162.133
				c0,4.71-3.823,8.533-8.533,8.533H196.267c-4.71,0-8.533-3.823-8.533-8.533V42.667c0-4.71,3.823-8.533,8.533-8.533h119.467
				c4.71,0,8.533,3.823,8.533,8.533V162.133z"/>
		</g>
	</g>
</g>
<g>
</g>
<g>
</g>
<g>
</g>
<g>
</g>
<g>
</g>
<g>
</g>
<g>
</g>
<g>
</g>
<g>
</g>
<g>
</g>
<g>
</g>
<g>
</g>
<g>
</g>
<g>
</g>
<g>
</g>
</svg>
