<?xml version="1.0" encoding="iso-8859-1"?>
<!-- Generator: Adobe Illustrator 19.0.0, SVG Export Plug-In . SVG Version: 6.00 Build 0)  -->
<svg version="1.1" id="Layer_1" xmlns="http://www.w3.org/2000/svg" xmlns:xlink="http://www.w3.org/1999/xlink" x="0px" y="0px"
	 viewBox="0 0 512 512" style="enable-background:new 0 0 512 512;" xml:space="preserve">
<g>
	<g>
		<g>
			<path d="M213.333,401.067h85.333v-85.333h-85.333V401.067z M273.067,375.467h8.533c4.71,0,8.533,3.823,8.533,8.533
				c0,4.71-3.823,8.533-8.533,8.533h-8.533c-4.71,0-8.533-3.823-8.533-8.533C264.533,379.29,268.356,375.467,273.067,375.467z
				 M247.467,332.8c0-4.71,3.823-8.533,8.533-8.533c4.71,0,8.533,3.823,8.533,8.533v17.067c0,4.71-3.823,8.533-8.533,8.533
				c-4.71,0-8.533-3.823-8.533-8.533V332.8z M230.4,375.467h8.533c4.71,0,8.533,3.823,8.533,8.533c0,4.71-3.823,8.533-8.533,8.533
				H230.4c-4.71,0-8.533-3.823-8.533-8.533C221.867,379.29,225.69,375.467,230.4,375.467z"/>
			<rect x="213.333" y="452.27" width="85.333" height="17.067"/>
			<path d="M213.333,264.533h85.333V179.2h-85.333V264.533z M273.067,238.933h8.533c4.71,0,8.533,3.823,8.533,8.533
				S286.31,256,281.6,256h-8.533c-4.71,0-8.533-3.823-8.533-8.533S268.356,238.933,273.067,238.933z M247.467,196.267
				c0-4.71,3.823-8.533,8.533-8.533c4.71,0,8.533,3.823,8.533,8.533v17.067c0,4.71-3.823,8.533-8.533,8.533
				c-4.71,0-8.533-3.823-8.533-8.533V196.267z M230.4,238.933h8.533c4.71,0,8.533,3.823,8.533,8.533S243.644,256,238.933,256H230.4
				c-4.71,0-8.533-3.823-8.533-8.533S225.69,238.933,230.4,238.933z"/>
			<path d="M324.326,0H187.674c-14.114,0-25.6,11.486-25.6,25.6v460.8c0,14.114,11.486,25.6,25.6,25.6h136.653
				c14.114,0,25.6-11.486,25.6-25.6V25.6C349.926,11.486,338.441,0,324.326,0z M315.733,477.867c0,4.71-3.823,8.533-8.533,8.533
				H204.8c-4.71,0-8.533-3.823-8.533-8.533v-34.133c0-4.71,3.823-8.533,8.533-8.533h102.4c4.71,0,8.533,3.823,8.533,8.533V477.867z
				 M315.733,409.6c0,4.71-3.823,8.533-8.533,8.533H204.8c-4.71,0-8.533-3.823-8.533-8.533V307.2c0-4.71,3.823-8.533,8.533-8.533
				h102.4c4.71,0,8.533,3.823,8.533,8.533V409.6z M315.733,273.067c0,4.71-3.823,8.533-8.533,8.533H204.8
				c-4.71,0-8.533-3.823-8.533-8.533v-102.4c0-4.71,3.823-8.533,8.533-8.533h102.4c4.71,0,8.533,3.823,8.533,8.533V273.067z
				 M315.733,136.533c0,4.71-3.823,8.533-8.533,8.533H204.8c-4.71,0-8.533-3.823-8.533-8.533v-102.4c0-4.71,3.823-8.533,8.533-8.533
				h102.4c4.71,0,8.533,3.823,8.533,8.533V136.533z"/>
			<path d="M213.333,128h85.333V42.667h-85.333V128z M273.067,102.4h8.533c4.71,0,8.533,3.823,8.533,8.533s-3.823,8.533-8.533,8.533
				h-8.533c-4.71,0-8.533-3.823-8.533-8.533S268.356,102.4,273.067,102.4z M247.467,59.733c0-4.71,3.823-8.533,8.533-8.533
				c4.71,0,8.533,3.823,8.533,8.533V76.8c0,4.71-3.823,8.533-8.533,8.533c-4.71,0-8.533-3.823-8.533-8.533V59.733z M230.4,102.4
				h8.533c4.71,0,8.533,3.823,8.533,8.533s-3.823,8.533-8.533,8.533H230.4c-4.71,0-8.533-3.823-8.533-8.533
				S225.69,102.4,230.4,102.4z"/>
		</g>
	</g>
</g>
<g>
</g>
<g>
</g>
<g>
</g>
<g>
</g>
<g>
</g>
<g>
</g>
<g>
</g>
<g>
</g>
<g>
</g>
<g>
</g>
<g>
</g>
<g>
</g>
<g>
</g>
<g>
</g>
<g>
</g>
</svg>
