<?xml version="1.0" encoding="iso-8859-1"?>
<!-- Generator: Adobe Illustrator 19.0.0, SVG Export Plug-In . SVG Version: 6.00 Build 0)  -->
<svg version="1.1" id="Layer_1" xmlns="http://www.w3.org/2000/svg" xmlns:xlink="http://www.w3.org/1999/xlink" x="0px" y="0px"
	 viewBox="0 0 512 512" style="enable-background:new 0 0 512 512;" xml:space="preserve">
<g>
	<g>
		<path d="M281.6,115.2H76.8c-5.12,0-8.533,3.413-8.533,8.533v102.4c0,5.12,3.413,8.533,8.533,8.533h204.8
			c5.12,0,8.533-3.413,8.533-8.533v-102.4C290.133,119.467,286.72,115.2,281.6,115.2z"/>
	</g>
</g>
<g>
	<g>
		<path d="M486.4,158.72v-9.387c0-9.387-7.68-17.067-17.067-17.067h-17.067V115.2c0-5.12-3.413-8.533-8.533-8.533h-93.867V69.973
			c5.12-2.56,8.533-8.533,8.533-14.507V38.4c0-9.387-7.68-17.067-17.067-17.067H17.067C7.68,21.333,0,29.013,0,38.4v17.067
			c0,5.973,3.413,11.947,8.533,14.507v207.36c0,9.387,7.68,17.067,17.067,17.067h34.133v76.8c0,14.507,11.093,25.6,25.6,25.6h8.533
			v34.133c0,18.773,15.36,34.133,34.133,34.133c18.773,0,34.133-15.36,34.133-34.133V396.8h34.133v34.133
			c0,18.773,15.36,34.133,34.133,34.133c18.773,0,34.133-15.36,34.133-34.133V396.8h8.533c14.507,0,25.6-11.093,25.6-25.6v-76.8
			H332.8c9.387,0,17.067-7.68,17.067-17.067v-51.2h93.867c5.12,0,8.533-3.413,8.533-8.533v-17.067h17.067
			c9.387,0,17.067-7.68,17.067-17.067v-5.973c5.12,2.56,8.533,8.533,8.533,14.507v230.4c0,28.16-23.04,51.2-51.2,51.2
			c-20.48,0-37.547-14.507-41.813-34.133h16.213c5.12,0,8.533-3.413,8.533-8.533v-68.267c0-5.12-3.413-8.533-8.533-8.533V320
			c0-5.12-3.413-8.533-8.533-8.533h-34.133c-5.12,0-8.533,3.413-8.533,8.533v34.133c-5.12,0-8.533,3.413-8.533,8.533v68.267
			c0,5.12,3.413,8.533,8.533,8.533h17.92c4.267,29.013,29.013,51.2,58.88,51.2c37.547,0,68.267-30.72,68.267-68.267V192
			C512,175.787,500.907,162.987,486.4,158.72z M281.6,371.2c0,5.12-3.413,8.533-8.533,8.533H256h-51.2h-51.2h-51.2H85.333
			c-5.12,0-8.533-3.413-8.533-8.533v-76.8h204.8V371.2z M307.2,226.133c0,14.507-11.093,25.6-25.6,25.6H76.8
			c-14.507,0-25.6-11.093-25.6-25.6v-102.4c0-14.507,11.093-25.6,25.6-25.6h204.8c14.507,0,25.6,11.093,25.6,25.6V226.133z
			 M341.333,55.467H17.067V38.4h324.267V55.467z M469.333,166.4v17.067h-17.067v-34.133h17.067V166.4z M401.067,354.133H384v-25.6
			h17.067V354.133z"/>
	</g>
</g>
<g>
</g>
<g>
</g>
<g>
</g>
<g>
</g>
<g>
</g>
<g>
</g>
<g>
</g>
<g>
</g>
<g>
</g>
<g>
</g>
<g>
</g>
<g>
</g>
<g>
</g>
<g>
</g>
<g>
</g>
</svg>
