<?xml version="1.0" encoding="iso-8859-1"?>
<!-- Generator: Adobe Illustrator 19.0.0, SVG Export Plug-In . SVG Version: 6.00 Build 0)  -->
<svg version="1.1" id="Layer_1" xmlns="http://www.w3.org/2000/svg" xmlns:xlink="http://www.w3.org/1999/xlink" x="0px" y="0px"
	 viewBox="0 0 512 512" style="enable-background:new 0 0 512 512;" xml:space="preserve">
<g>
	<g>
		<path d="M210.773,118.613h-79.36C115.2,119.467,102.4,132.267,102.4,148.48v79.36c0,15.36,12.8,28.16,29.013,28.16h79.36
			c16.213,0,29.013-12.8,29.013-29.013v-79.36C239.787,131.413,226.987,118.613,210.773,118.613z"/>
	</g>
</g>
<g>
	<g>
		<path d="M443.733,0H409.6c-5.12,0-8.533,3.413-8.533,8.533V409.6c0,28.16-23.04,51.2-51.2,51.2h-102.4
			c-28.16,0-51.2-23.04-51.2-51.2c9.387,0,17.067-7.68,17.067-17.067v-17.067c5.12,0,8.533-3.413,8.533-8.533
			s-3.413-8.533-8.533-8.533v-17.067h34.133c9.387,0,17.067-7.68,17.067-17.067v-23.04l15.36-23.04
			c0.853-1.707,1.707-3.413,1.707-5.12V102.4c0-9.387-7.68-17.067-17.067-17.067H256V17.067C256,7.68,248.32,0,238.933,0h-17.067
			v51.2H204.8V0h-68.267v51.2h-17.067V0H102.4c-9.387,0-17.067,7.68-17.067,17.067v68.267H76.8c-9.387,0-17.067,7.68-17.067,17.067
			v170.667c0,1.707,0.853,3.413,1.707,5.12l15.36,23.04v23.04c0,9.387,7.68,17.067,17.067,17.067H128V358.4
			c-5.12,0-8.533,3.413-8.533,8.533s3.413,8.533,8.533,8.533v17.067c0,9.387,7.68,17.067,17.067,17.067
			c0,56.32,46.08,102.4,102.4,102.4h102.4c56.32,0,102.4-46.08,102.4-102.4V8.533C452.267,4.267,448.853,0,443.733,0z
			 M196.267,358.4h-51.2v-17.067h51.2V358.4z M179.2,51.2h17.067v17.067H179.2V51.2z M145.067,51.2h17.067v17.067h-17.067V51.2z
			 M136.533,324.267H93.867v-25.6c0-1.707-0.853-3.413-1.707-5.12l-15.36-23.04V102.4h17.067h153.6h17.067v168.107l-15.36,23.04
			c-0.853,1.707-1.707,3.413-1.707,5.12v25.6H204.8H136.533z M153.6,392.533h-8.533v-17.067h51.2v17.067h-8.533H153.6z"/>
	</g>
</g>
<g>
</g>
<g>
</g>
<g>
</g>
<g>
</g>
<g>
</g>
<g>
</g>
<g>
</g>
<g>
</g>
<g>
</g>
<g>
</g>
<g>
</g>
<g>
</g>
<g>
</g>
<g>
</g>
<g>
</g>
</svg>
