<?xml version="1.0" encoding="iso-8859-1"?>
<!-- Generator: Adobe Illustrator 19.0.0, SVG Export Plug-In . SVG Version: 6.00 Build 0)  -->
<svg version="1.1" id="Layer_1" xmlns="http://www.w3.org/2000/svg" xmlns:xlink="http://www.w3.org/1999/xlink" x="0px" y="0px"
	 viewBox="0 0 503.607 503.607" style="enable-background:new 0 0 503.607 503.607;" xml:space="preserve">
<g>
	<g>
		<path d="M251.803,67.148c-23.502,0-41.967,18.466-41.967,41.967s18.466,41.967,41.967,41.967s41.967-18.466,41.967-41.967
			S275.305,67.148,251.803,67.148z M251.803,125.902c-9.233,0-16.787-7.554-16.787-16.787s7.554-16.787,16.787-16.787
			c9.233,0,16.787,7.554,16.787,16.787S261.036,125.902,251.803,125.902z"/>
	</g>
</g>
<g>
	<g>
		<path d="M402.885,67.148c-23.502,0-41.967,18.466-41.967,41.967s18.466,41.967,41.967,41.967
			c23.502,0,41.967-18.466,41.967-41.967S426.387,67.148,402.885,67.148z M402.885,125.902c-9.233,0-16.787-7.554-16.787-16.787
			s7.554-16.787,16.787-16.787s16.787,7.554,16.787,16.787S412.118,125.902,402.885,125.902z"/>
	</g>
</g>
<g>
	<g>
		<path d="M100.721,67.148c-23.502,0-41.967,18.466-41.967,41.967s18.466,41.967,41.967,41.967s41.967-18.466,41.967-41.967
			S124.223,67.148,100.721,67.148z M100.721,125.902c-9.233,0-16.787-7.554-16.787-16.787s7.554-16.787,16.787-16.787
			s16.787,7.554,16.787,16.787S109.954,125.902,100.721,125.902z"/>
	</g>
</g>
<g>
	<g>
		<path d="M478.426,0H25.18C10.911,0,0,10.911,0,25.18v167.869c0,14.269,10.911,25.18,25.18,25.18h453.246
			c14.269,0,25.18-10.911,25.18-25.18V25.18C503.607,10.911,492.695,0,478.426,0z M33.574,25.18c5.036,0,8.393,3.357,8.393,8.393
			s-3.357,8.393-8.393,8.393s-8.393-3.357-8.393-8.393S28.538,25.18,33.574,25.18z M33.574,193.049
			c-5.036,0-8.393-3.357-8.393-8.393s3.357-8.393,8.393-8.393s8.393,3.357,8.393,8.393S38.61,193.049,33.574,193.049z
			 M100.721,167.869c-32.734,0-58.754-26.02-58.754-58.754c0-32.734,26.02-58.754,58.754-58.754s58.754,26.02,58.754,58.754
			C159.475,141.849,133.456,167.869,100.721,167.869z M251.803,167.869c-32.734,0-58.754-26.02-58.754-58.754
			c0-32.734,26.02-58.754,58.754-58.754s58.754,26.02,58.754,58.754C310.557,141.849,284.538,167.869,251.803,167.869z
			 M402.885,167.869c-32.734,0-58.754-26.02-58.754-58.754c0-32.734,26.02-58.754,58.754-58.754s58.754,26.02,58.754,58.754
			C461.639,141.849,435.62,167.869,402.885,167.869z M470.033,193.049c-5.036,0-8.393-3.357-8.393-8.393s3.357-8.393,8.393-8.393
			s8.393,3.357,8.393,8.393S475.069,193.049,470.033,193.049z M470.033,41.967c-5.036,0-8.393-3.357-8.393-8.393
			s3.357-8.393,8.393-8.393s8.393,3.357,8.393,8.393S475.069,41.967,470.033,41.967z"/>
	</g>
</g>
<g>
	<g>
		<path d="M444.852,394.492v-16.787c0-5.036-3.357-8.393-8.393-8.393v-33.574h-67.148v33.574c-5.036,0-8.393,3.357-8.393,8.393
			v16.787c-5.036,0-8.393,3.357-8.393,8.393v58.754c0,5.036,3.357,8.393,8.393,8.393v25.18c0,5.036,3.357,8.393,8.393,8.393h67.148
			c5.036,0,8.393-3.357,8.393-8.393v-25.18c5.036,0,8.393-3.357,8.393-8.393v-58.754
			C453.246,398.689,449.888,394.492,444.852,394.492z M428.066,486.82h-50.361v-16.787h50.361V486.82z M428.066,394.492h-50.361
			v-8.393h50.361V394.492z"/>
	</g>
</g>
<g>
	<g>
		<path d="M432.262,285.377h-59.593c5.036,10.911,5.875,22.662,0,33.574h59.593C427.226,308.039,427.226,296.289,432.262,285.377z"
			/>
	</g>
</g>
<g>
	<g>
		<path d="M418.833,240.052c-1.679-3.357-4.197-5.036-7.554-5.036h-16.787c-3.357,0-5.875,1.679-7.554,5.036l-14.269,28.538h60.433
			L418.833,240.052z"/>
	</g>
</g>
<g>
	<g>
		<path d="M267.751,240.052c-1.679-3.357-4.197-5.036-7.554-5.036H243.41c-3.357,0-5.875,1.679-7.554,5.036l-14.269,28.538h60.433
			L267.751,240.052z"/>
	</g>
</g>
<g>
	<g>
		<path d="M281.18,285.377h-59.593c5.036,10.911,5.875,22.662,0,33.574h59.593C276.144,308.039,276.144,296.289,281.18,285.377z"/>
	</g>
</g>
<g>
	<g>
		<path d="M293.771,394.492v-16.787c0-5.036-3.357-8.393-8.393-8.393v-33.574h-67.148v33.574c-5.036,0-8.393,3.357-8.393,8.393
			v16.787c-5.036,0-8.393,3.357-8.393,8.393v58.754c0,5.036,3.357,8.393,8.393,8.393v25.18c0,5.036,3.357,8.393,8.393,8.393h67.148
			c5.036,0,8.393-3.357,8.393-8.393v-25.18c5.036,0,8.393-3.357,8.393-8.393v-58.754
			C302.164,398.689,298.807,394.492,293.771,394.492z M276.984,486.82h-50.361v-16.787h50.361V486.82z M276.984,394.492h-50.361
			v-8.393h50.361V394.492z"/>
	</g>
</g>
<g>
	<g>
		<path d="M130.098,285.377H70.505c5.036,10.911,5.875,22.662,0,33.574h59.593C125.062,308.039,125.062,296.289,130.098,285.377z"/>
	</g>
</g>
<g>
	<g>
		<path d="M142.689,394.492v-16.787c0-5.036-3.357-8.393-8.393-8.393v-33.574H67.148v33.574c-5.036,0-8.393,3.357-8.393,8.393
			v16.787c-5.036,0-8.393,3.357-8.393,8.393v58.754c0,5.036,3.357,8.393,8.393,8.393v25.18c0,5.036,3.357,8.393,8.393,8.393h67.148
			c5.036,0,8.393-3.357,8.393-8.393v-25.18c5.036,0,8.393-3.357,8.393-8.393v-58.754
			C151.082,398.689,147.725,394.492,142.689,394.492z M125.902,486.82H75.541v-16.787h50.361V486.82z M125.902,394.492H75.541
			v-8.393h50.361V394.492z"/>
	</g>
</g>
<g>
	<g>
		<path d="M116.669,240.052c-1.679-3.357-4.197-5.036-7.554-5.036H92.328c-3.357,0-5.875,1.679-7.554,5.036L70.505,268.59h60.433
			L116.669,240.052z"/>
	</g>
</g>
<g>
</g>
<g>
</g>
<g>
</g>
<g>
</g>
<g>
</g>
<g>
</g>
<g>
</g>
<g>
</g>
<g>
</g>
<g>
</g>
<g>
</g>
<g>
</g>
<g>
</g>
<g>
</g>
<g>
</g>
</svg>
