<?xml version="1.0" encoding="iso-8859-1"?>
<!-- Generator: Adobe Illustrator 19.0.0, SVG Export Plug-In . SVG Version: 6.00 Build 0)  -->
<svg version="1.1" id="Layer_1" xmlns="http://www.w3.org/2000/svg" xmlns:xlink="http://www.w3.org/1999/xlink" x="0px" y="0px"
	 viewBox="0 0 512 512" style="enable-background:new 0 0 512 512;" xml:space="preserve">
<g>
	<g>
		<g>
			<rect x="230.397" y="153.603" width="51.2" height="102.4"/>
			<path d="M204.797,341.332c-9.412,0-17.067,7.654-17.067,17.067c0,9.412,7.654,17.067,17.067,17.067
				c9.412,0,17.067-7.654,17.067-17.067C221.863,348.987,214.209,341.332,204.797,341.332z"/>
			<path d="M136.53,247.466c-9.412,0-17.067,7.654-17.067,17.067c0,9.412,7.654,17.067,17.067,17.067
				c9.412,0,17.067-7.654,17.067-17.067C153.597,255.12,145.942,247.466,136.53,247.466z"/>
			<path d="M162.13,187.732c9.412,0,17.067-7.654,17.067-17.067c0-9.412-7.654-17.067-17.067-17.067
				c-9.412,0-17.067,7.654-17.067,17.067C145.063,180.078,152.718,187.732,162.13,187.732z"/>
			<path d="M307.197,341.332c-9.412,0-17.067,7.654-17.067,17.067c0,9.412,7.654,17.067,17.067,17.067s17.067-7.654,17.067-17.067
				C324.263,348.987,316.609,341.332,307.197,341.332z"/>
			<path d="M349.863,187.732c9.412,0,17.067-7.654,17.067-17.067c0-9.412-7.654-17.067-17.067-17.067
				c-9.412,0-17.067,7.654-17.067,17.067C332.797,180.078,340.451,187.732,349.863,187.732z"/>
			<path d="M375.463,247.466c-9.412,0-17.067,7.654-17.067,17.067c0,9.412,7.654,17.067,17.067,17.067
				c9.412,0,17.067-7.654,17.067-17.067C392.53,255.12,384.876,247.466,375.463,247.466z"/>
			<path d="M256,0C114.842,0,0,114.842,0,256s114.842,256,256,256s256-114.842,256-256S397.158,0,256,0z M430.797,345.216
				c-1.459,2.859-4.403,4.651-7.603,4.651H384v50.953c0,2.534-1.135,4.958-3.106,6.579c-35.029,28.937-79.386,44.868-124.894,44.868
				c-45.508,0-89.873-15.932-124.902-44.868c-1.971-1.621-3.098-4.045-3.098-6.579v-50.953H88.798c-3.2,0-6.144-1.792-7.603-4.651
				C66.953,317.363,59.733,287.351,59.733,256c0-91.759,62.362-170.351,151.663-191.113c2.56-0.58,5.205,0.017,7.245,1.63
				c2.031,1.613,3.226,4.079,3.226,6.682V102.4h68.267V73.199c0-2.603,1.186-5.069,3.226-6.682c2.031-1.613,4.685-2.219,7.236-1.63
				C389.897,85.649,452.267,164.241,452.267,256C452.267,287.351,445.039,317.363,430.797,345.216z"/>
			<path d="M307.197,84.274v26.658c0,4.719-3.814,8.533-8.533,8.533H213.33c-4.719,0-8.533-3.814-8.533-8.533V84.274
				c-75.895,22.443-128,91.58-128,171.725c0,26.889,5.82,52.702,17.297,76.8h42.436c4.719,0,8.533,3.814,8.533,8.533v55.407
				c31.471,24.823,70.707,38.46,110.933,38.46s79.462-13.636,110.933-38.46v-55.407c0-4.719,3.814-8.533,8.533-8.533H417.9
				c11.477-24.098,17.297-49.911,17.297-76.8C435.197,175.854,383.092,106.717,307.197,84.274z M349.863,136.532
				c18.825,0,34.133,15.309,34.133,34.133s-15.309,34.133-34.133,34.133c-18.825,0-34.133-15.309-34.133-34.133
				S331.039,136.532,349.863,136.532z M162.13,136.532c18.825,0,34.133,15.309,34.133,34.133s-15.309,34.133-34.133,34.133
				s-34.133-15.309-34.133-34.133S143.305,136.532,162.13,136.532z M136.53,298.666c-18.825,0-34.133-15.309-34.133-34.133
				c0-18.825,15.309-34.133,34.133-34.133s34.133,15.309,34.133,34.133C170.663,283.357,155.354,298.666,136.53,298.666z
				 M204.797,392.533c-18.825,0-34.133-15.309-34.133-34.133s15.309-34.133,34.133-34.133s34.133,15.309,34.133,34.133
				S223.621,392.533,204.797,392.533z M221.863,273.066c-4.719,0-8.533-3.814-8.533-8.533V145.066c0-4.719,3.814-8.533,8.533-8.533
				h68.267c4.719,0,8.533,3.814,8.533,8.533v119.467c0,4.719-3.814,8.533-8.533,8.533H221.863z M307.197,392.533
				c-18.825,0-34.133-15.309-34.133-34.133s15.309-34.133,34.133-34.133s34.133,15.309,34.133,34.133
				S326.021,392.533,307.197,392.533z M375.463,298.666c-18.825,0-34.133-15.309-34.133-34.133
				c0-18.825,15.309-34.133,34.133-34.133c18.825,0,34.133,15.309,34.133,34.133C409.597,283.357,394.288,298.666,375.463,298.666z"
				/>
		</g>
	</g>
</g>
<g>
</g>
<g>
</g>
<g>
</g>
<g>
</g>
<g>
</g>
<g>
</g>
<g>
</g>
<g>
</g>
<g>
</g>
<g>
</g>
<g>
</g>
<g>
</g>
<g>
</g>
<g>
</g>
<g>
</g>
</svg>
