<?xml version="1.0" encoding="iso-8859-1"?>
<!-- Generator: Adobe Illustrator 19.0.0, SVG Export Plug-In . SVG Version: 6.00 Build 0)  -->
<svg version="1.1" id="Layer_1" xmlns="http://www.w3.org/2000/svg" xmlns:xlink="http://www.w3.org/1999/xlink" x="0px" y="0px"
	 viewBox="0 0 512 512" style="enable-background:new 0 0 512 512;" xml:space="preserve">
<g>
	<g>
		<path d="M452.267,238.933c-9.387,0-17.067,7.68-17.067,17.067s7.68,17.067,17.067,17.067c9.387,0,17.067-7.68,17.067-17.067
			S461.653,238.933,452.267,238.933z"/>
	</g>
</g>
<g>
	<g>
		<path d="M59.733,238.933c-9.387,0-17.067,7.68-17.067,17.067s7.68,17.067,17.067,17.067S76.8,265.387,76.8,256
			S69.12,238.933,59.733,238.933z"/>
	</g>
</g>
<g>
	<g>
		<path d="M486.4,187.733h-76.8v-25.6c0-9.387-7.68-17.067-17.067-17.067H119.467c-9.387,0-17.067,7.68-17.067,17.067v25.6H25.6
			c-14.507,0-25.6,11.093-25.6,25.6v85.333c0,14.507,11.093,25.6,25.6,25.6h76.8v25.6c0,9.387,7.68,17.067,17.067,17.067h273.067
			c9.387,0,17.067-7.68,17.067-17.067v-25.6h76.8c14.507,0,25.6-11.093,25.6-25.6v-85.333
			C512,198.827,500.907,187.733,486.4,187.733z M59.733,290.133C40.96,290.133,25.6,274.773,25.6,256s15.36-34.133,34.133-34.133
			S93.867,237.227,93.867,256S78.507,290.133,59.733,290.133z M375.467,281.6c0,0.853,0,1.707-0.853,2.56l-8.533,25.6
			c-0.853,3.413-4.267,5.973-7.68,5.973H153.6c-3.413,0-6.827-2.56-7.68-5.973l-8.533-25.6c0-0.853-0.853-1.707-0.853-2.56v-68.267
			c0-9.387,7.68-17.067,17.067-17.067h204.8c9.387,0,17.067,7.68,17.067,17.067V281.6z M452.267,290.133
			c-18.773,0-34.133-15.36-34.133-34.133s15.36-34.133,34.133-34.133c18.773,0,34.133,15.36,34.133,34.133
			S471.04,290.133,452.267,290.133z"/>
	</g>
</g>
<g>
	<g>
		<path d="M153.6,213.333v66.56l5.973,18.773h192.853l5.973-18.773v-66.56H153.6z M204.8,264.533h-42.667v-17.067H204.8V264.533z
			 M238.933,290.133h-17.067v-17.067h17.067V290.133z M238.933,264.533h-17.067v-17.067h17.067V264.533z M238.933,238.933h-17.067
			v-17.067h17.067V238.933z M264.533,290.133h-17.067v-17.067h17.067V290.133z M264.533,264.533h-17.067v-17.067h17.067V264.533z
			 M264.533,238.933h-17.067v-17.067h17.067V238.933z M290.133,290.133h-17.067v-17.067h17.067V290.133z M290.133,264.533h-17.067
			v-17.067h17.067V264.533z M290.133,238.933h-17.067v-17.067h17.067V238.933z M315.733,290.133h-17.067v-17.067h17.067V290.133z
			 M315.733,264.533h-17.067v-17.067h17.067V264.533z M315.733,238.933h-17.067v-17.067h17.067V238.933z M341.333,290.133h-17.067
			v-17.067h17.067V290.133z M341.333,264.533h-17.067v-17.067h17.067V264.533z M341.333,238.933h-17.067v-17.067h17.067V238.933z"/>
	</g>
</g>
<g>
</g>
<g>
</g>
<g>
</g>
<g>
</g>
<g>
</g>
<g>
</g>
<g>
</g>
<g>
</g>
<g>
</g>
<g>
</g>
<g>
</g>
<g>
</g>
<g>
</g>
<g>
</g>
<g>
</g>
</svg>
