<?xml version="1.0" encoding="iso-8859-1"?>
<!-- Generator: Adobe Illustrator 19.0.0, SVG Export Plug-In . SVG Version: 6.00 Build 0)  -->
<svg version="1.1" id="Layer_1" xmlns="http://www.w3.org/2000/svg" xmlns:xlink="http://www.w3.org/1999/xlink" x="0px" y="0px"
	 viewBox="0 0 503.607 503.607" style="enable-background:new 0 0 503.607 503.607;" xml:space="preserve">
<g>
	<g>
		<g>
			<path d="M218.23,227.407V209.26c0-8.88-7.227-16.107-16.107-16.107h-51.72c-8.88,0-16.107,7.227-16.107,16.107v18.147
				c0,8.88,7.227,16.107,16.107,16.107h51.72C211.004,243.514,218.23,236.287,218.23,227.407z"/>
			<path d="M495.213,100.721h-8.393V67.148h-25.18c-4.633,0-8.393-3.76-8.393-8.393c0-4.642,3.76-8.393,8.393-8.393h25.18V16.787
				C486.82,7.529,479.291,0,470.033,0h-67.148c-9.258,0-16.787,7.529-16.787,16.787v33.574h25.18c4.633,0,8.393,3.752,8.393,8.393
				c0,4.633-3.76,8.393-8.393,8.393h-25.18v33.574h-8.393c-4.633,0-8.393,3.752-8.393,8.393v167.869c0,1.654,0.495,3.273,1.41,4.65
				l15.377,23.065v22.645c0,4.633,3.76,8.393,8.393,8.393v33.792c0,9.258,7.529,16.787,16.787,16.787v16.669
				c0,27.715-22.587,50.26-50.361,50.26H251.803c-27.774,0-50.361-22.545-50.361-50.26v-16.888c9.258,0,16.787-7.537,16.787-16.787
				v-33.574h117.508c9.258,0,16.787-7.537,16.787-16.787V117.508c0-9.258-7.529-16.787-16.787-16.787h-8.393V41.967
				c4.633,0,8.393-3.76,8.393-8.393c0-4.642-3.76-8.393-8.393-8.393v-8.393C327.344,7.529,319.815,0,310.557,0h-33.574v58.754
				c0,4.633-3.76,8.393-8.393,8.393s-8.393-3.76-8.393-8.393V0H243.41v58.754c0,4.633-3.76,8.393-8.393,8.393
				s-8.393-3.76-8.393-8.393V0H125.902v58.754c0,4.633-3.76,8.393-8.393,8.393s-8.393-3.76-8.393-8.393V0H92.328v58.754
				c0,4.633-3.76,8.393-8.393,8.393s-8.393-3.76-8.393-8.393V0H41.967C32.709,0,25.18,7.529,25.18,16.787v8.393
				c-4.633,0-8.393,3.752-8.393,8.393c0,4.633,3.76,8.393,8.393,8.393v58.754h-8.393C7.529,100.721,0,108.25,0,117.508v201.443
				c0,9.25,7.529,16.787,16.787,16.787h117.508v33.574c0,9.25,7.529,16.787,16.787,16.787v16.888
				c0,55.481,45.182,100.621,100.721,100.621h109.115c55.539,0,100.721-45.14,100.721-100.621v-16.669
				c9.258,0,16.787-7.529,16.787-16.787v-33.792c4.633,0,8.393-3.76,8.393-8.393v-22.645l15.377-23.065
				c0.915-1.377,1.41-2.996,1.41-4.65V109.115C503.607,104.473,499.846,100.721,495.213,100.721z M142.689,318.951H16.787V117.508
				h16.787h285.377h16.787l0.008,201.443h-125.91H142.689z M159.475,369.311h-8.393v-33.574h50.361l0.008,33.574h-8.402H159.475z
				 M454.345,369.53c-0.378-0.05-0.713-0.218-1.1-0.218h-33.574c-0.386,0-0.722,0.168-1.1,0.218h-7.294v-33.792h50.361l0.008,33.792
				H454.345z M486.82,274.44l-15.377,23.065c-0.915,1.377-1.41,2.997-1.41,4.658v16.787h-67.148v-16.787
				c0-1.662-0.495-3.282-1.41-4.658l-15.377-23.065V117.508h8.393h83.934h8.393V274.44z"/>
		</g>
	</g>
</g>
<g>
</g>
<g>
</g>
<g>
</g>
<g>
</g>
<g>
</g>
<g>
</g>
<g>
</g>
<g>
</g>
<g>
</g>
<g>
</g>
<g>
</g>
<g>
</g>
<g>
</g>
<g>
</g>
<g>
</g>
</svg>
