<?xml version="1.0" encoding="iso-8859-1"?>
<!-- Generator: Adobe Illustrator 19.0.0, SVG Export Plug-In . SVG Version: 6.00 Build 0)  -->
<svg version="1.1" id="Layer_1" xmlns="http://www.w3.org/2000/svg" xmlns:xlink="http://www.w3.org/1999/xlink" x="0px" y="0px"
	 viewBox="0 0 503.716 503.716" style="enable-background:new 0 0 503.716 503.716;" xml:space="preserve">
<g>
	<g>
		<g>
			<path d="M235.068,176.942v-18.147c0-8.88-7.227-16.107-16.107-16.107h-51.72c-8.88,0-16.107,7.227-16.107,16.107v18.147
				c0,8.88,7.227,16.107,16.107,16.107h51.72C227.841,193.049,235.068,185.822,235.068,176.942z"/>
			<path d="M495.268,201.661c-4.642,0-8.393,3.76-8.393,8.393c0,23.493-7.705,33.532-14.504,42.378
				c-3.76,4.893-7.579,9.938-9.459,16.376h-1.922c-0.613-11.356,0.974-19.104,2.434-26.028c2.216-10.525,4.314-20.472-2.426-36.05
				c-1.83-4.255-6.765-6.228-11.029-4.381s-6.211,6.782-4.373,11.037c4.616,10.685,3.408,16.426,1.402,25.936
				c-1.578,7.453-3.416,16.476-2.812,29.486h-3.366c-4.944-7.655-4.684-14.067-4.314-22.562c0.445-10.66,1.016-23.921-9.711-40.708
				c-2.493-3.911-7.688-5.044-11.591-2.552c-3.903,2.484-5.044,7.68-2.552,11.583c7.865,12.33,7.495,20.967,7.076,30.963
				c-0.428,10.047-0.789,21.361,8.393,34.304v123.157c0,27.766-22.595,50.361-50.361,50.361H268.645
				c-27.774,0-50.361-22.595-50.361-50.361V285.377c9.258,0,16.787-7.529,16.787-16.787v-33.574h134.295
				c9.258,0,16.787-7.529,16.787-16.787V117.508c0-9.258-7.529-16.787-16.787-16.787h-8.393V41.967c4.633,0,8.393-3.752,8.393-8.393
				c0-4.642-3.76-8.393-8.393-8.393v-8.393C360.973,7.529,353.444,0,344.186,0h-33.574v58.754c0,4.642-3.76,8.393-8.393,8.393
				c-4.642,0-8.393-3.752-8.393-8.393V0h-16.787v58.754c0,4.642-3.76,8.393-8.393,8.393c-4.642,0-8.393-3.752-8.393-8.393V0H125.956
				v58.754c0,4.642-3.76,8.393-8.393,8.393c-4.642,0-8.393-3.752-8.393-8.393V0H92.382v58.754c0,4.642-3.76,8.393-8.393,8.393
				c-4.642,0-8.393-3.752-8.393-8.393V0H42.022c-9.266,0-16.787,7.529-16.787,16.787v8.393c-4.642,0-8.393,3.752-8.393,8.393
				c0,4.642,3.752,8.393,8.393,8.393v58.754h-8.393c-9.266,0-16.787,7.529-16.787,16.787v100.721
				c0,9.258,7.521,16.787,16.787,16.787h134.295v33.574c0,9.258,7.521,16.787,16.787,16.787v117.617
				c0,55.539,45.182,100.721,100.721,100.721h109.115c55.539,0,100.721-45.182,100.721-100.721V277.202
				c0-4.935,2.459-8.385,7.202-14.537c7.579-9.887,17.979-23.409,17.979-52.61C503.661,205.421,499.901,201.661,495.268,201.661z
				 M159.53,218.229H16.841V117.508h16.787h318.951h16.787l0.008,100.721H226.677H159.53z M167.923,268.59v-33.574h50.361
				l0.008,33.574H167.923z"/>
			<path d="M419.722,184.877c4.642,0,8.393-3.752,8.393-8.393c0-23.493,7.705-33.523,14.504-42.378
				c3.76-4.893,7.571-9.929,9.459-16.376h1.922c0.613,11.356-0.974,19.103-2.434,26.036c-2.224,10.517-4.323,20.463,2.417,36.041
				c1.368,3.173,4.457,5.07,7.714,5.07c1.108,0,2.241-0.218,3.315-0.688c4.264-1.847,6.22-6.782,4.381-11.029
				c-4.625-10.693-3.408-16.434-1.402-25.936c1.57-7.462,3.416-16.476,2.812-29.495h3.357c4.944,7.655,4.684,14.076,4.323,22.562
				c-0.453,10.66-1.016,23.921,9.703,40.708c1.603,2.51,4.314,3.878,7.084,3.878c1.553,0,3.106-0.428,4.507-1.318
				c3.911-2.493,5.053-7.68,2.56-11.591c-7.873-12.33-7.504-20.958-7.076-30.963c0.428-10.039,0.789-21.361-8.393-34.296V8.615
				c0-4.642-3.752-8.393-8.393-8.393h-33.574c-4.642,0-8.393,3.752-8.393,8.393v100.721c0,4.935-2.468,8.385-7.202,14.537
				c-7.588,9.888-17.979,23.409-17.979,52.61C411.329,181.125,415.081,184.877,419.722,184.877z"/>
		</g>
	</g>
</g>
<g>
</g>
<g>
</g>
<g>
</g>
<g>
</g>
<g>
</g>
<g>
</g>
<g>
</g>
<g>
</g>
<g>
</g>
<g>
</g>
<g>
</g>
<g>
</g>
<g>
</g>
<g>
</g>
<g>
</g>
</svg>
