<?xml version="1.0" encoding="iso-8859-1"?>
<!-- Generator: Adobe Illustrator 19.0.0, SVG Export Plug-In . SVG Version: 6.00 Build 0)  -->
<svg version="1.1" id="Layer_1" xmlns="http://www.w3.org/2000/svg" xmlns:xlink="http://www.w3.org/1999/xlink" x="0px" y="0px"
	 viewBox="0 0 512 512" style="enable-background:new 0 0 512 512;" xml:space="preserve">
<g>
	<g>
		<g>
			<path d="M213.334,179.891v-18.449c0-9.028-7.347-16.375-16.375-16.375h-52.582c-9.028,0-16.375,7.347-16.375,16.375v18.449
				c0,9.028,7.347,16.375,16.375,16.375h52.582C205.987,196.267,213.334,188.919,213.334,179.891z"/>
			<path d="M503.467,102.4h-8.533V68.267H460.8c-4.719,0-8.533-3.814-8.533-8.533s3.814-8.533,8.533-8.533h34.133V17.067
				C494.933,7.654,487.279,0,477.867,0h-85.333c-9.412,0-17.067,7.654-17.067,17.067V51.2H409.6c4.719,0,8.533,3.814,8.533,8.533
				s-3.814,8.533-8.533,8.533h-34.133V102.4h-8.533c-4.71,0-8.533,3.814-8.533,8.533V281.6c0,2.27,0.905,4.437,2.5,6.033l23.1,23.1
				V332.8c0,4.719,3.823,8.533,8.533,8.533v34.133c0,9.412,7.654,17.067,17.067,17.067v17.178c0,28.169-22.963,51.089-51.2,51.089
				H247.467c-28.237,0-51.2-22.921-51.2-51.089V290.133c9.412,0,17.067-7.654,17.067-17.067v-34.133h110.933
				c9.412,0,17.067-7.654,17.067-17.067v-102.4c0-9.412-7.654-17.067-17.067-17.067h-8.533V42.667c4.71,0,8.533-3.814,8.533-8.533
				s-3.823-8.533-8.533-8.533v-8.533C315.733,7.654,308.079,0,298.667,0h-25.6v59.733c0,4.719-3.823,8.533-8.533,8.533
				c-4.71,0-8.533-3.814-8.533-8.533V0h-17.067v59.733c0,4.719-3.823,8.533-8.533,8.533s-8.533-3.814-8.533-8.533V0h-102.4v59.733
				c0,4.719-3.823,8.533-8.533,8.533s-8.533-3.814-8.533-8.533V0H85.333v59.733c0,4.719-3.823,8.533-8.533,8.533
				s-8.533-3.814-8.533-8.533V0h-25.6C33.254,0,25.6,7.654,25.6,17.067V25.6c-4.71,0-8.533,3.814-8.533,8.533
				s3.823,8.533,8.533,8.533V102.4h-8.533C7.654,102.4,0,110.054,0,119.467v102.4c0,9.412,7.654,17.067,17.067,17.067H128v34.133
				c0,9.412,7.654,17.067,17.067,17.067v119.578c0,56.397,45.935,102.289,102.4,102.289H358.4c56.465,0,102.4-45.892,102.4-102.289
				v-17.178c9.412,0,17.067-7.654,17.067-17.067v-34.133c4.719,0,8.533-3.814,8.533-8.533v-22.067l23.1-23.1
				c1.604-1.596,2.5-3.763,2.5-6.033V110.933C512,106.214,508.186,102.4,503.467,102.4z M136.533,221.867H17.067v-102.4h17.067
				H307.2h17.067l0.017,102.4H204.8H136.533z M153.6,273.067h-8.533v-34.133h51.209l0.009,34.133h-8.55H153.6z M452.267,375.467
				h-34.133H409.6v-34.133h51.2l0.017,34.133H452.267z"/>
		</g>
	</g>
</g>
<g>
</g>
<g>
</g>
<g>
</g>
<g>
</g>
<g>
</g>
<g>
</g>
<g>
</g>
<g>
</g>
<g>
</g>
<g>
</g>
<g>
</g>
<g>
</g>
<g>
</g>
<g>
</g>
<g>
</g>
</svg>
