<?xml version="1.0" encoding="iso-8859-1"?>
<!-- Generator: Adobe Illustrator 19.0.0, SVG Export Plug-In . SVG Version: 6.00 Build 0)  -->
<svg version="1.1" id="Layer_1" xmlns="http://www.w3.org/2000/svg" xmlns:xlink="http://www.w3.org/1999/xlink" x="0px" y="0px"
	 viewBox="0 0 503.621 503.621" style="enable-background:new 0 0 503.621 503.621;" xml:space="preserve">
<g>
	<g>
		<g>
			<path d="M486.827,100.735c0-83.204-52.467-100.679-96.147-100.679h-0.025c-2.006-0.076-49.009-1.746-84.757,23.384
				c-8.998,5.708-37.3,25.054-37.3,42.135v70.32c0,17.198,28.689,36.688,37.124,42.009c31.047,21.932,70.698,23.56,81.685,23.56
				c1.67,0,2.686-0.034,2.896-0.042c4.138,0,8.352-0.227,12.59-0.571v229.687c0,6.068,2.359,11.776,6.656,16.065
				c2.845,2.845,6.345,4.751,10.131,5.775v42.849c0,4.633,3.752,8.393,8.393,8.393h33.574c4.642,0,8.393-3.76,8.393-8.393v-42.849
				c3.785-1.024,7.286-2.929,10.131-5.775c4.289-4.289,6.656-9.988,6.656-16.065v-321.41c0-0.495-0.201-0.932-0.285-1.402
				C486.634,105.385,486.827,103.186,486.827,100.735z M394.499,109.129c-4.642,0-8.393-3.76-8.393-8.393s3.752-8.393,8.393-8.393
				h33.574c4.642,0,8.393,3.76,8.393,8.393s-3.752,8.393-8.393,8.393H394.499z M470.04,430.539c0,1.586-0.613,3.072-1.737,4.197
				c-1.125,1.116-2.619,1.737-4.197,1.737h-2.459h-33.574h-2.459c-1.578,0-3.072-0.621-4.197-1.737
				c-1.125-1.125-1.737-2.61-1.737-4.197V198.343c19.288-4.272,37.611-13.774,50.252-32.264c0.034-0.05,0.076-0.092,0.109-0.143
				V430.539z"/>
			<path d="M197.723,23.435c-35.748-25.13-82.801-23.451-84.404-23.393c-44.032,0-96.525,17.467-96.525,100.688
				c0,2.451,0.193,4.658,0.285,6.992c-0.084,0.47-0.285,0.906-0.285,1.402v321.402c0,6.077,2.359,11.784,6.656,16.082
				c2.803,2.795,6.345,4.709,10.131,5.749v42.865c0,4.633,3.752,8.393,8.393,8.393h33.574c4.642,0,8.393-3.76,8.393-8.393v-42.849
				c3.785-1.024,7.286-2.929,10.131-5.775c4.297-4.289,6.656-9.997,6.656-16.065v-229.67c4.113,0.327,8.2,0.546,12.212,0.546h0.025
				c0.269,0.008,1.343,0.05,3.097,0.05c11.34,0,50.822-1.654,81.475-23.317c8.796-5.565,37.485-25.054,37.485-42.253V65.57
				C235.023,48.49,206.721,29.143,197.723,23.435z M83.941,430.534c0,1.586-0.613,3.072-1.737,4.197
				c-1.125,1.116-2.619,1.737-4.197,1.737h-2.459H41.974h-2.459c-1.561,0-3.089-0.638-4.197-1.746
				c-1.125-1.116-1.737-2.61-1.737-4.197V165.939c12.657,18.625,31.056,28.168,50.361,32.432V430.534z M117.515,109.124H83.941
				c-4.642,0-8.393-3.76-8.393-8.393s3.752-8.393,8.393-8.393h33.574c4.642,0,8.393,3.76,8.393,8.393
				S122.157,109.124,117.515,109.124z"/>
		</g>
	</g>
</g>
<g>
</g>
<g>
</g>
<g>
</g>
<g>
</g>
<g>
</g>
<g>
</g>
<g>
</g>
<g>
</g>
<g>
</g>
<g>
</g>
<g>
</g>
<g>
</g>
<g>
</g>
<g>
</g>
<g>
</g>
</svg>
