<?xml version="1.0" encoding="iso-8859-1"?>
<!-- Generator: Adobe Illustrator 19.0.0, SVG Export Plug-In . SVG Version: 6.00 Build 0)  -->
<svg version="1.1" id="Layer_1" xmlns="http://www.w3.org/2000/svg" xmlns:xlink="http://www.w3.org/1999/xlink" x="0px" y="0px"
	 viewBox="0 0 512 512" style="enable-background:new 0 0 512 512;" xml:space="preserve">
<g>
	<g>
		<g>
			<path d="M256,145.067c-9.412,0-17.067,7.654-17.067,17.067S246.588,179.2,256,179.2c9.412,0,17.067-7.654,17.067-17.067
				S265.412,145.067,256,145.067z"/>
			<path d="M409.6,51.2h-8.533V17.041C401.067,7.646,393.429,0,384.026,0H127.974c-9.395,0-17.041,7.646-17.041,17.041V51.2H102.4
				c-9.404,0-17.067,7.654-17.067,17.067V256c0,9.412,7.663,17.067,17.067,17.067h110.933V307.2c0,9.412,7.663,17.067,17.067,17.067
				v170.667H119.467c-4.719,0-8.533,3.814-8.533,8.533c0,4.719,3.814,8.533,8.533,8.533h119.467h34.133h119.467
				c4.719,0,8.533-3.814,8.533-8.533c0-4.719-3.814-8.533-8.533-8.533H281.6V324.267c9.412,0,17.067-7.654,17.067-17.067v-34.133
				H409.6c9.412,0,17.067-7.654,17.067-17.067V68.267C426.667,58.854,419.012,51.2,409.6,51.2z M273.067,307.2h-34.133H230.4
				v-34.133h51.2l0.017,34.133H273.067z M256,196.267c-18.825,0-34.133-15.309-34.133-34.133S237.175,128,256,128
				s34.133,15.309,34.133,34.133S274.825,196.267,256,196.267z M384,51.2H127.991l-0.017-34.133L384,17.041V51.2z"/>
		</g>
	</g>
</g>
<g>
</g>
<g>
</g>
<g>
</g>
<g>
</g>
<g>
</g>
<g>
</g>
<g>
</g>
<g>
</g>
<g>
</g>
<g>
</g>
<g>
</g>
<g>
</g>
<g>
</g>
<g>
</g>
<g>
</g>
</svg>
