<?xml version="1.0" encoding="iso-8859-1"?>
<!-- Generator: Adobe Illustrator 19.0.0, SVG Export Plug-In . SVG Version: 6.00 Build 0)  -->
<svg version="1.1" id="Layer_1" xmlns="http://www.w3.org/2000/svg" xmlns:xlink="http://www.w3.org/1999/xlink" x="0px" y="0px"
	 viewBox="0 0 503.607 503.607" style="enable-background:new 0 0 503.607 503.607;" xml:space="preserve">
<g>
	<g>
		<path d="M411.279,176.262c0-5.036-3.357-8.393-8.393-8.393v-16.787c5.036,0,8.393-3.357,8.393-8.393s-3.357-8.393-8.393-8.393
			V92.328c0-5.036-3.357-8.393-8.393-8.393h-8.393V67.148c0-9.233-7.554-16.787-16.787-16.787h-16.787
			c-9.233,0-16.787,7.554-16.787,16.787v16.787h-8.393V16.787C327.344,7.554,319.79,0,310.557,0H193.049
			c-9.233,0-16.787,7.554-16.787,16.787v67.148h-8.393V67.148c0-9.233-7.554-16.787-16.787-16.787h-16.787
			c-9.233,0-16.787,7.554-16.787,16.787v16.787h-8.393c-5.036,0-8.393,3.357-8.393,8.393v41.967c-5.036,0-8.393,3.357-8.393,8.393
			s3.357,8.393,8.393,8.393v16.787c-5.036,0-8.393,3.357-8.393,8.393c0,5.036,3.357,8.393,8.393,8.393v16.787
			c-5.036,0-8.393,3.357-8.393,8.393s3.357,8.393,8.393,8.393v16.787c-5.036,0-8.393,3.357-8.393,8.393s3.357,8.393,8.393,8.393
			v16.787c-5.036,0-8.393,3.357-8.393,8.393c0,5.036,3.357,8.393,8.393,8.393v41.967c0,5.036,3.357,8.393,8.393,8.393h16.787v41.967
			c0,9.233,7.554,16.787,16.787,16.787h16.787c9.233,0,16.787-7.554,16.787-16.787v-41.967h33.574v16.787
			c-5.036,0-8.393,3.357-8.393,8.393s3.357,8.393,8.393,8.393v16.787c0,9.233,7.554,16.787,16.787,16.787v83.934H117.508
			c-5.036,0-8.393,3.357-8.393,8.393c0,5.036,3.357,8.393,8.393,8.393h117.508h33.574h117.508c5.036,0,8.393-3.357,8.393-8.393
			c0-5.036-3.357-8.393-8.393-8.393H276.984v-83.934c9.233,0,16.787-7.554,16.787-16.787v-16.787c5.036,0,8.393-3.357,8.393-8.393
			s-3.357-8.393-8.393-8.393v-16.787h33.574v41.967c0,9.233,7.554,16.787,16.787,16.787h16.787c9.233,0,16.787-7.554,16.787-16.787
			v-41.967h16.787c5.036,0,8.393-3.357,8.393-8.393v-41.967c5.036,0,8.393-3.357,8.393-8.393c0-5.036-3.357-8.393-8.393-8.393
			v-16.787c5.036,0,8.393-3.357,8.393-8.393s-3.357-8.393-8.393-8.393v-16.787c5.036,0,8.393-3.357,8.393-8.393
			s-3.357-8.393-8.393-8.393v-16.787C407.921,184.656,411.279,181.298,411.279,176.262z M276.984,386.098h-8.393h-33.574h-8.393
			v-16.787h50.361V386.098z M276.984,352.525h-50.361v-16.787h50.361V352.525z M386.098,318.951h-16.787h-33.574h-50.361h-67.148
			h-50.361h-33.574h-16.787v-33.574h268.59V318.951z M386.098,268.59h-268.59v-16.787h268.59V268.59z M386.098,235.016h-268.59
			v-16.787h268.59V235.016z M386.098,201.443h-268.59v-16.787h268.59V201.443z M386.098,167.869h-268.59v-16.787h268.59V167.869z
			 M386.098,134.295h-268.59v-33.574h8.393h33.574h25.18h134.295h25.18h33.574h8.393V134.295z"/>
	</g>
</g>
<g>
</g>
<g>
</g>
<g>
</g>
<g>
</g>
<g>
</g>
<g>
</g>
<g>
</g>
<g>
</g>
<g>
</g>
<g>
</g>
<g>
</g>
<g>
</g>
<g>
</g>
<g>
</g>
<g>
</g>
</svg>
