<?xml version="1.0" encoding="iso-8859-1"?>
<!-- Generator: Adobe Illustrator 19.0.0, SVG Export Plug-In . SVG Version: 6.00 Build 0)  -->
<svg version="1.1" id="Layer_1" xmlns="http://www.w3.org/2000/svg" xmlns:xlink="http://www.w3.org/1999/xlink" x="0px" y="0px"
	 viewBox="0 0 512 512" style="enable-background:new 0 0 512 512;" xml:space="preserve">
<g>
	<g>
		<path d="M486.4,238.933h-25.6v-17.067c0-9.387-7.68-17.067-17.067-17.067h-3.413c-20.48-42.667-22.187-91.307-22.187-145.067
			C418.133,26.453,391.68,0,358.4,0c-23.893,0-42.667,18.773-42.667,42.667c0,23.893-18.773,42.667-42.667,42.667
			c-14.507,0-25.6-11.093-25.6-25.6C247.467,26.453,221.013,0,187.733,0c-20.48,0-37.547,14.507-41.813,34.133H102.4
			c-5.12,0-8.533,4.267-8.533,8.533v76.8H25.6c-5.12,0-8.533,3.413-8.533,8.533v273.067c0,5.12,3.413,8.533,8.533,8.533h17.067
			v42.667c0,5.12,3.413,8.533,8.533,8.533v17.067C51.2,496.64,66.56,512,85.333,512s34.133-15.36,34.133-34.133V460.8
			c5.12,0,8.533-3.413,8.533-8.533V409.6h51.2v42.667c0,5.12,3.413,8.533,8.533,8.533v17.067c0,18.773,15.36,34.133,34.133,34.133
			C240.64,512,256,496.64,256,477.867V460.8c5.12,0,8.533-3.413,8.533-8.533V409.6H281.6c5.12,0,8.533-3.413,8.533-8.533V128
			c0-5.12-3.413-8.533-8.533-8.533h-68.267v-76.8c0-5.12-3.413-8.533-8.533-8.533h-40.96c3.413-10.24,12.8-17.067,23.893-17.067
			c23.893,0,42.667,18.773,42.667,42.667s18.773,42.667,42.667,42.667c33.28,0,59.733-26.453,59.733-59.733
			c0-14.507,11.093-25.6,25.6-25.6c23.893,0,42.667,18.773,42.667,42.667c0,53.76,1.707,101.547,21.333,145.92
			c-6.827,1.707-12.8,8.533-12.8,16.213v17.067H384c-5.12,0-8.533,3.413-8.533,8.533v102.4c0,5.12,3.413,8.533,8.533,8.533h8.533
			v42.667c0,14.507,11.093,25.6,25.6,25.6h34.133c14.507,0,25.6-11.093,25.6-25.6V358.4h8.533c5.12,0,8.533-3.413,8.533-8.533
			v-102.4C494.933,243.2,491.52,238.933,486.4,238.933z M110.933,443.733h-51.2V409.6h51.2V443.733z M247.467,409.6v34.133h-51.2
			V409.6H247.467z M196.267,51.2v68.267h-85.333V51.2H196.267z M443.733,401.067h-17.067c-5.12,0-8.533-3.413-8.533-8.533
			c0-5.12,3.413-8.533,8.533-8.533h17.067c5.12,0,8.533,3.413,8.533,8.533C452.267,397.653,448.853,401.067,443.733,401.067z
			 M477.867,341.333h-8.533h-68.267h-8.533V256h25.6h34.133h25.6V341.333z"/>
	</g>
</g>
<g>
</g>
<g>
</g>
<g>
</g>
<g>
</g>
<g>
</g>
<g>
</g>
<g>
</g>
<g>
</g>
<g>
</g>
<g>
</g>
<g>
</g>
<g>
</g>
<g>
</g>
<g>
</g>
<g>
</g>
</svg>
