<?xml version="1.0" encoding="iso-8859-1"?>
<!-- Generator: Adobe Illustrator 19.0.0, SVG Export Plug-In . SVG Version: 6.00 Build 0)  -->
<svg version="1.1" id="Layer_1" xmlns="http://www.w3.org/2000/svg" xmlns:xlink="http://www.w3.org/1999/xlink" x="0px" y="0px"
	 viewBox="0 0 512 512" style="enable-background:new 0 0 512 512;" xml:space="preserve">
<g>
	<g>
		<path d="M403.976,63.224c-3.601-3.602-8.484-5.624-13.577-5.624l-371.2,0.023C8.595,57.624,0,66.218,0,76.823V358.4
			c0,10.604,8.596,19.2,19.2,19.2h121.6V416h-19.2c-10.604,0-19.2,8.596-19.2,19.2s8.596,19.2,19.2,19.2H160h73.702
			c-2.131-6.01-3.302-12.47-3.302-19.2c0-6.468,0.402-12.876,1.165-19.2c1.604-13.265,4.85-26.152,9.585-38.4
			c2.551-6.598,5.53-13.013,8.922-19.2c3.661-6.683,7.802-13.097,12.384-19.2c5.238-6.976,11.048-13.548,17.403-19.622
			c-7.247-15.712-11.058-32.936-11.058-50.778c0-60.517,44.44-110.845,102.4-120.079c6.257-0.996,12.668-1.521,19.2-1.521
			c6.532,0,12.943,0.525,19.2,1.521V76.8C409.6,71.707,407.578,66.824,403.976,63.224z"/>
	</g>
</g>
<g>
	<g>
		<path d="M448.415,328.355c15.52-15.122,25.185-36.225,25.185-59.555c0-39.268-27.352-72.245-64-80.938
			c-6.167-1.464-12.591-2.262-19.2-2.262c-6.609,0-13.033,0.797-19.2,2.262c-36.648,8.694-64,41.672-64,80.938
			c0,23.329,9.665,44.433,25.185,59.555c-5.814,3.171-11.338,6.803-16.532,10.845c-3.905,3.04-7.612,6.318-11.119,9.802
			c-3.002,2.984-5.85,6.117-8.53,9.398c-2.944,3.603-5.682,7.378-8.203,11.306c-1.647,2.566-3.197,5.202-4.653,7.894
			c-6.362,11.775-10.834,24.709-13.015,38.4c-0.997,6.258-1.532,12.667-1.532,19.2c0,10.604,8.596,19.2,19.2,19.2h204.8
			c10.604,0,19.2-8.596,19.2-19.2C512,389.146,486.263,348.988,448.415,328.355z"/>
	</g>
</g>
<g>
</g>
<g>
</g>
<g>
</g>
<g>
</g>
<g>
</g>
<g>
</g>
<g>
</g>
<g>
</g>
<g>
</g>
<g>
</g>
<g>
</g>
<g>
</g>
<g>
</g>
<g>
</g>
<g>
</g>
</svg>
