<?xml version="1.0" encoding="iso-8859-1"?>
<!-- Generator: Adobe Illustrator 19.0.0, SVG Export Plug-In . SVG Version: 6.00 Build 0)  -->
<svg version="1.1" id="Layer_1" xmlns="http://www.w3.org/2000/svg" xmlns:xlink="http://www.w3.org/1999/xlink" x="0px" y="0px"
	 viewBox="0 0 512 512" style="enable-background:new 0 0 512 512;" xml:space="preserve">
<g>
	<g>
		<path d="M213.143,236.575h-3.741v8.238h3.741c5.061,0,5.061-1.32,5.061-4.213C218.205,237.754,218.205,236.575,213.143,236.575z"
			/>
	</g>
</g>
<g>
	<g>
		<path d="M146.452,236.575h-4.213V275.8h4.213c2.839,0,4.402,0,4.402-5.343v-28.634
			C150.854,236.575,149.383,236.575,146.452,236.575z"/>
	</g>
</g>
<g>
	<g>
		<path d="M493.864,116.954H90.682c-6.372,0-12.274,3.343-15.551,8.805L2.585,246.668c-3.447,5.744-3.447,12.919,0,18.664
			l72.546,120.91c3.278,5.463,9.181,8.805,15.551,8.805h403.181c10.016,0,18.136-8.12,18.136-18.136V135.091
			C512,125.073,503.88,116.954,493.864,116.954z M175.206,270.459c0,18.026-11.017,29.225-28.753,29.225h-16.67
			c-6.559,0-11.895-5.124-11.895-11.422v-64.238c0-6.353,5.224-11.329,11.895-11.329h16.67c17.736,0,28.753,11.162,28.753,29.132
			V270.459z M230.1,299.872c-4.813,0-8.652-2.797-11.41-8.31l-9.287-18.089v14.692c0,6.459-5.349,11.518-12.176,11.518
			c-6.829,0-12.178-5.06-12.178-11.518v-64.143c0-6.039,4.654-10.902,10.825-11.31c0.198-0.015,0.398-0.021,0.597-0.021h16.672
			c18.417,0,29.412,10.327,29.412,27.624c0,10.124-4.006,18.106-11.11,22.842l9.717,18.681c1.027,1.71,1.583,3.719,1.583,5.763
			C242.746,294.252,236.954,299.872,230.1,299.872z M296.318,299.684c-5.073,0-9.374-3.06-10.956-7.796
			c-0.03-0.092-0.06-0.184-0.088-0.278l-2.399-8.032h-12.579l-2.363,7.91c-1.36,4.914-5.815,8.195-11.174,8.195
			c-6.975,0-12.648-5.251-12.648-11.705c0-0.527,0-1.939,0.577-3.589l19.605-63.695c1.636-5.221,6.474-8.566,12.341-8.566
			c5.818,0,10.673,3.281,12.369,8.36c0.024,0.073,0.047,0.145,0.07,0.219l19.591,63.955c0.121,0.393,0.214,0.792,0.279,1.195
			c0.11,0.527,0.213,1.212,0.213,2.028C309.156,294.941,302.517,299.684,296.318,299.684z M418.962,236.669h-6.66v51.495
			c0,6.459-5.349,11.518-12.178,11.518s-12.178-5.06-12.178-11.518v-51.495h-6.754c-4.995,0-9.132-3.208-10.719-7.803
			c-1.625,4.549-5.726,7.709-10.664,7.709h-20.885v7.767h5.812c6.354,0,11.33,5.224,11.33,11.894c0,6.511-4.977,11.612-11.33,11.612
			h-5.812v20.413c0,6.406-5.349,11.422-12.176,11.422c-6.943,0-12.178-4.911-12.178-11.422v-64.145
			c0-6.406,5.224-11.422,11.895-11.422h33.344c4.989,0,9.123,3.15,10.713,7.664c1.621-4.521,5.726-7.664,10.67-7.664h37.77
			c6.407,0,11.425,5.224,11.425,11.894C430.386,231.362,425.369,236.669,418.962,236.669z"/>
	</g>
</g>
<g>
</g>
<g>
</g>
<g>
</g>
<g>
</g>
<g>
</g>
<g>
</g>
<g>
</g>
<g>
</g>
<g>
</g>
<g>
</g>
<g>
</g>
<g>
</g>
<g>
</g>
<g>
</g>
<g>
</g>
</svg>
