<?xml version="1.0" encoding="iso-8859-1"?>
<!-- Generator: Adobe Illustrator 19.0.0, SVG Export Plug-In . SVG Version: 6.00 Build 0)  -->
<svg version="1.1" id="Layer_1" xmlns="http://www.w3.org/2000/svg" xmlns:xlink="http://www.w3.org/1999/xlink" x="0px" y="0px"
	 viewBox="0 0 512 512" style="enable-background:new 0 0 512 512;" xml:space="preserve">
<g>
	<g>
		<path d="M395.636,186.182c12.853,0,23.273-10.42,23.273-23.273V69.818c0-12.853-10.42-23.273-23.273-23.273H23.273
			C10.42,46.545,0,56.965,0,69.818v372.364c0,12.853,10.42,23.273,23.273,23.273h372.364c12.853,0,23.273-10.42,23.273-23.273
			v-93.091c0-12.853-10.42-23.273-23.273-23.273c-12.853,0-23.273,10.42-23.273,23.273v69.818H46.545V93.091h325.818v69.818
			C372.364,175.762,382.784,186.182,395.636,186.182z"/>
	</g>
</g>
<g>
	<g>
		<path d="M488.727,232.726L248.7,232.727l59.007-59.009c9.089-9.087,9.089-23.823,0-32.912c-9.087-9.087-23.823-9.087-32.912,0
			l-98.737,98.738c-9.089,9.087-9.089,23.824,0,32.912l98.737,98.738c4.544,4.546,10.501,6.817,16.455,6.817
			s11.913-2.273,16.455-6.817c9.089-9.087,9.089-23.823,0-32.912l-59.006-59.01l240.027-0.002c12.853,0,23.273-10.42,23.273-23.273
			C512,243.146,501.58,232.726,488.727,232.726z"/>
	</g>
</g>
<g>
</g>
<g>
</g>
<g>
</g>
<g>
</g>
<g>
</g>
<g>
</g>
<g>
</g>
<g>
</g>
<g>
</g>
<g>
</g>
<g>
</g>
<g>
</g>
<g>
</g>
<g>
</g>
<g>
</g>
</svg>
