<?xml version="1.0" encoding="iso-8859-1"?>
<!-- Generator: Adobe Illustrator 19.0.0, SVG Export Plug-In . SVG Version: 6.00 Build 0)  -->
<svg version="1.1" id="Layer_1" xmlns="http://www.w3.org/2000/svg" xmlns:xlink="http://www.w3.org/1999/xlink" x="0px" y="0px"
	 viewBox="0 0 512 512" style="enable-background:new 0 0 512 512;" xml:space="preserve">
<g>
	<g>
		<path d="M442.182,0c-38.498,0-69.818,31.32-69.818,69.818s31.322,69.818,69.818,69.818c38.498,0,69.818-31.32,69.818-69.818
			S480.68,0,442.182,0z"/>
	</g>
</g>
<g>
	<g>
		<path d="M442.182,186.182c-38.498,0-69.818,31.319-69.818,69.818s31.322,69.818,69.818,69.818S512,294.499,512,256
			S480.68,186.182,442.182,186.182z"/>
	</g>
</g>
<g>
	<g>
		<path d="M442.182,372.364c-38.498,0-69.818,31.319-69.818,69.818S403.686,512,442.182,512S512,480.681,512,442.182
			S480.68,372.364,442.182,372.364z"/>
	</g>
</g>
<g>
	<g>
		<path d="M256,0c-38.498,0-69.818,31.32-69.818,69.818s31.32,69.818,69.818,69.818s69.818-31.32,69.818-69.818S294.498,0,256,0z"/>
	</g>
</g>
<g>
	<g>
		<path d="M256,186.182c-38.498,0-69.818,31.319-69.818,69.818s31.32,69.818,69.818,69.818s69.818-31.319,69.818-69.818
			S294.498,186.182,256,186.182z"/>
	</g>
</g>
<g>
	<g>
		<path d="M69.818,0C31.32,0,0,31.32,0,69.818s31.32,69.818,69.818,69.818s69.818-31.32,69.818-69.818S108.316,0,69.818,0z"/>
	</g>
</g>
<g>
</g>
<g>
</g>
<g>
</g>
<g>
</g>
<g>
</g>
<g>
</g>
<g>
</g>
<g>
</g>
<g>
</g>
<g>
</g>
<g>
</g>
<g>
</g>
<g>
</g>
<g>
</g>
<g>
</g>
</svg>
