<?xml version="1.0" encoding="iso-8859-1"?>
<!-- Generator: Adobe Illustrator 19.0.0, SVG Export Plug-In . SVG Version: 6.00 Build 0)  -->
<svg version="1.1" id="Layer_1" xmlns="http://www.w3.org/2000/svg" xmlns:xlink="http://www.w3.org/1999/xlink" x="0px" y="0px"
	 viewBox="0 0 512 512" style="enable-background:new 0 0 512 512;" xml:space="preserve">
<g>
	<g>
		<path d="M23.273,0C10.42,0,0,10.42,0,23.273v116.364h23.273h23.273h15.515v-23.273c0-12.853,10.42-23.273,23.273-23.273
			c12.853,0,23.273,10.42,23.273,23.273v23.273h46.545V46.545V23.273V0H23.273z"/>
	</g>
</g>
<g>
	<g>
		<path d="M488.727,186.182h-23.273H201.697v139.636h263.758h23.273H512V186.182H488.727z M294.788,279.273h-31.03
			c-12.853,0-23.273-10.42-23.273-23.273c0-12.853,10.42-23.273,23.273-23.273h31.03c12.853,0,23.273,10.42,23.273,23.273
			C318.061,268.853,307.641,279.273,294.788,279.273z M403.394,279.273h-31.03c-12.853,0-23.273-10.42-23.273-23.273
			c0-12.853,10.42-23.273,23.273-23.273h31.03c12.853,0,23.273,10.42,23.273,23.273
			C426.667,268.853,416.247,279.273,403.394,279.273z"/>
	</g>
</g>
<g>
	<g>
		<path d="M488.727,372.364h-23.273H201.697v93.091v23.273V512h287.03C501.58,512,512,501.58,512,488.727V372.364H488.727z
			 M294.788,449.939h-31.03c-12.853,0-23.273-10.42-23.273-23.273c0-12.853,10.42-23.273,23.273-23.273h31.03
			c12.853,0,23.273,10.42,23.273,23.273C318.061,439.519,307.641,449.939,294.788,449.939z M403.394,449.939h-31.03
			c-12.853,0-23.273-10.42-23.273-23.273c0-12.853,10.42-23.273,23.273-23.273h31.03c12.853,0,23.273,10.42,23.273,23.273
			C426.667,439.519,416.247,449.939,403.394,449.939z"/>
	</g>
</g>
<g>
	<g>
		<path d="M46.545,372.364H23.273H0v116.364C0,501.58,10.42,512,23.273,512h38.788v-23.273v-23.273v-7.758
			c0-12.853,10.42-23.273,23.273-23.273c12.853,0,23.273,10.42,23.273,23.273v7.758v23.273V512h46.545v-23.273v-23.273v-93.091
			H46.545z"/>
	</g>
</g>
<g>
	<g>
		<path d="M85.333,186.182H46.545H23.273H0v139.636h23.273h23.273h15.515V287.03c0-12.853,10.42-23.273,23.273-23.273
			c12.853,0,23.273,10.42,23.273,23.273v38.788h46.545V186.182H85.333z"/>
	</g>
</g>
<g>
	<g>
		<path d="M488.727,0h-287.03v23.273v23.273v93.091h263.758h23.273H512V23.273C512,10.42,501.58,0,488.727,0z M294.788,108.606
			h-31.03c-12.853,0-23.273-10.42-23.273-23.273c0-12.853,10.42-23.273,23.273-23.273h31.03c12.853,0,23.273,10.42,23.273,23.273
			C318.061,98.186,307.641,108.606,294.788,108.606z M403.394,108.606h-31.03c-12.853,0-23.273-10.42-23.273-23.273
			c0-12.853,10.42-23.273,23.273-23.273h31.03c12.853,0,23.273,10.42,23.273,23.273C426.667,98.186,416.247,108.606,403.394,108.606
			z"/>
	</g>
</g>
<g>
</g>
<g>
</g>
<g>
</g>
<g>
</g>
<g>
</g>
<g>
</g>
<g>
</g>
<g>
</g>
<g>
</g>
<g>
</g>
<g>
</g>
<g>
</g>
<g>
</g>
<g>
</g>
<g>
</g>
</svg>
