<?xml version="1.0" encoding="iso-8859-1"?>
<!-- Generator: Adobe Illustrator 19.0.0, SVG Export Plug-In . SVG Version: 6.00 Build 0)  -->
<svg version="1.1" id="Layer_1" xmlns="http://www.w3.org/2000/svg" xmlns:xlink="http://www.w3.org/1999/xlink" x="0px" y="0px"
	 viewBox="0 0 512 512" style="enable-background:new 0 0 512 512;" xml:space="preserve">
<g>
	<g>
		<path d="M261.565,395.13H244.87v-33.391h3.853c-1.298-0.952-2.583-1.921-3.853-2.908c-5.502-4.281-10.739-8.884-15.682-13.787
			c-5.282-5.239-10.227-10.815-14.801-16.696c-22.737-29.226-36.3-65.927-36.3-105.739c0-39.809,13.559-76.506,36.293-105.731
			c4.573-5.879,9.518-11.458,14.799-16.697c6.083-6.033,12.614-11.615,19.534-16.696L16.695,83.498C7.474,83.499,0,90.972,0,100.193
			v244.849c0,9.22,7.475,16.696,16.696,16.696h105.739v33.391h-16.696c-9.22,0-16.696,7.475-16.696,16.696
			c0,9.22,7.475,16.696,16.696,16.696h33.391h89.043h33.391c9.22,0,16.696-7.475,16.696-16.696
			C278.261,402.605,270.786,395.13,261.565,395.13z M89.718,244.195c6.52,6.519,6.52,17.091,0,23.611
			c-3.259,3.259-7.532,4.89-11.805,4.89c-4.273,0-8.546-1.631-11.805-4.891l-32.717-32.716l-0.674-0.674
			c-6.52-6.519-6.52-17.091,0-23.611l0.674-0.676l32.717-32.716c6.519-6.52,17.091-6.52,23.611,0c6.52,6.519,6.52,17.091,0,23.611
			l-21.586,21.585L89.718,244.195z M161.164,191.962l-11.13,66.783c-1.361,8.166-8.435,13.953-16.449,13.953
			c-0.912,0-1.835-0.075-2.765-0.229c-9.096-1.516-15.24-10.118-13.724-19.213l11.13-66.783
			c1.515-9.097,10.119-15.251,19.213-13.724C156.536,174.264,162.68,182.866,161.164,191.962z"/>
	</g>
</g>
<g>
	<g>
		<path d="M507.109,365.238l-27.833-27.834l-11.821-11.82l-11.82-11.821c21.235-24.432,34.107-56.318,34.107-91.154
			c0-76.718-62.414-139.13-139.133-139.13c0,0,0,0-0.001,0c-23.884,0-46.38,6.053-66.04,16.7
			c-8.692,4.707-16.826,10.318-24.282,16.697c-29.853,25.536-48.808,63.46-48.808,105.732c0,42.276,18.957,80.201,48.813,105.739
			c7.456,6.379,15.591,11.99,24.283,16.696c19.657,10.646,42.152,16.696,66.034,16.696c29.863,0,57.555-9.459,80.246-25.534
			l11.948,11.949l11.923,11.923l28.773,28.772c3.26,3.26,7.533,4.891,11.805,4.891s8.546-1.631,11.805-4.891
			C513.631,382.329,513.631,371.757,507.109,365.238z M350.609,328.347c-58.305,0-105.739-47.435-105.739-105.739
			s47.435-105.739,105.739-105.739c58.306,0,105.741,47.435,105.741,105.739S408.914,328.347,350.609,328.347z"/>
	</g>
</g>
<g>
	<g>
		<path d="M352.897,150.319c-0.762-0.024-1.52-0.059-2.288-0.059s-1.526,0.035-2.288,0.059c-23.49,1.193-42.233,20.68-42.233,44.462
			v27.827v55.652c0,0.461,0.032,0.914,0.07,1.366c0.696,8.58,7.866,15.33,16.626,15.33h27.826h27.826
			c8.759,0,15.929-6.75,16.627-15.329c0.037-0.451,0.07-0.905,0.07-1.366v-55.652v-27.827
			C395.13,171,376.387,151.513,352.897,150.319z M361.739,205.913h-11.13h-11.13v-11.132c0-6.137,4.993-11.129,11.13-11.129
			s11.13,4.992,11.13,11.129V205.913z"/>
	</g>
</g>
<g>
</g>
<g>
</g>
<g>
</g>
<g>
</g>
<g>
</g>
<g>
</g>
<g>
</g>
<g>
</g>
<g>
</g>
<g>
</g>
<g>
</g>
<g>
</g>
<g>
</g>
<g>
</g>
<g>
</g>
</svg>
