<?xml version="1.0" encoding="iso-8859-1"?>
<!-- Generator: Adobe Illustrator 19.0.0, SVG Export Plug-In . SVG Version: 6.00 Build 0)  -->
<svg version="1.1" id="Layer_1" xmlns="http://www.w3.org/2000/svg" xmlns:xlink="http://www.w3.org/1999/xlink" x="0px" y="0px"
	 viewBox="0 0 512 512" style="enable-background:new 0 0 512 512;" xml:space="preserve">
<g>
	<g>
		<path d="M505.183,22.332c-4.364-4.366-10.283-6.817-16.457-6.817L23.271,15.543C10.418,15.545,0,25.961,0,38.816v341.305
			c0,12.853,10.42,23.273,23.273,23.273h147.394v46.545h-23.273c-12.853,0-23.273,10.42-23.273,23.273
			c0,12.853,10.42,23.273,23.273,23.273h46.545h124.121h46.545c12.853,0,23.273-10.42,23.273-23.273
			c0-12.853-10.42-23.273-23.273-23.273h-23.273v-46.545h147.394c12.853,0,23.273-10.42,23.273-23.273V38.788
			C512,32.614,509.549,26.695,505.183,22.332z M187.124,179.364l-30.09,30.09l30.089,30.09c9.089,9.087,9.089,23.824,0,32.912
			c-4.543,4.543-10.499,6.816-16.455,6.816c-5.956,0-11.913-2.273-16.455-6.817l-46.545-46.545c-9.089-9.087-9.089-23.823,0-32.912
			l46.545-46.545c9.087-9.087,23.823-9.087,32.912,0C196.212,155.539,196.212,170.276,187.124,179.364z M286.714,166.735
			l-15.515,93.091c-1.898,11.383-11.757,19.45-22.928,19.45c-1.269,0-2.557-0.102-3.852-0.32
			c-12.679-2.113-21.243-14.103-19.13-26.782l15.515-93.091c2.113-12.679,14.102-21.256,26.782-19.13
			C280.263,142.066,288.827,154.056,286.714,166.735z M404.334,225.91l-46.545,46.545c-4.543,4.544-10.499,6.817-16.455,6.817
			c-5.956,0-11.912-2.273-16.455-6.817c-9.089-9.087-9.089-23.823,0-32.912l30.089-30.089l-30.089-30.09
			c-9.089-9.087-9.089-23.824,0-32.912c9.087-9.087,23.823-9.087,32.912,0l46.545,46.545
			C413.424,202.086,413.424,216.823,404.334,225.91z"/>
	</g>
</g>
<g>
</g>
<g>
</g>
<g>
</g>
<g>
</g>
<g>
</g>
<g>
</g>
<g>
</g>
<g>
</g>
<g>
</g>
<g>
</g>
<g>
</g>
<g>
</g>
<g>
</g>
<g>
</g>
<g>
</g>
</svg>
