<?xml version="1.0" encoding="iso-8859-1"?>
<!-- Generator: Adobe Illustrator 19.0.0, SVG Export Plug-In . SVG Version: 6.00 Build 0)  -->
<svg version="1.1" id="Layer_1" xmlns="http://www.w3.org/2000/svg" xmlns:xlink="http://www.w3.org/1999/xlink" x="0px" y="0px"
	 viewBox="0 0 512 512" style="enable-background:new 0 0 512 512;" xml:space="preserve">
<g>
	<g>
		<polygon points="85.333,64 85.333,85.333 85.333,106.667 128,106.667 128,85.333 128,64 		"/>
	</g>
</g>
<g>
	<g>
		<path d="M448,192c-7.478,0-14.656-1.3-21.333-3.667c-19.063-6.761-34.005-22.306-39.916-41.751
			c-19.446-5.911-34.99-20.853-41.751-39.916c-2.367-6.677-3.667-13.855-3.667-21.333c0-7.478,1.3-14.656,3.667-21.333h-89v21.333
			v21.333V128c0,11.782-9.552,21.333-21.333,21.333h-85.333H64H42.667H21.333H0v320c0,11.782,9.552,21.333,21.333,21.333H448
			c11.782,0,21.333-9.552,21.333-21.333v-281C462.656,190.7,455.478,192,448,192z M149.333,277.333H320
			c11.782,0,21.333,9.552,21.333,21.333S331.782,320,320,320H149.333C137.552,320,128,310.448,128,298.667
			S137.552,277.333,149.333,277.333z M348.444,405.333H120.889c-11.782,0-21.333-9.552-21.333-21.333s9.552-21.333,21.333-21.333
			h227.556c11.782,0,21.333,9.552,21.333,21.333S360.226,405.333,348.444,405.333z"/>
	</g>
</g>
<g>
	<g>
		<polygon points="170.667,64 170.667,85.333 170.667,106.667 213.333,106.667 213.333,85.333 213.333,64 		"/>
	</g>
</g>
<g>
	<g>
		<path d="M21.333,64C9.552,64,0,73.552,0,85.333v21.333h21.333h21.333V85.333V64H21.333z"/>
	</g>
</g>
<g>
	<g>
		<path d="M490.667,64h-21.333V42.667c0-11.782-9.552-21.333-21.333-21.333s-21.333,9.552-21.333,21.333V64h-21.333
			C393.552,64,384,73.552,384,85.333s9.552,21.333,21.333,21.333h21.333V128c0,11.782,9.552,21.333,21.333,21.333
			s21.333-9.552,21.333-21.333v-21.333h21.333c11.782,0,21.333-9.552,21.333-21.333S502.448,64,490.667,64z"/>
	</g>
</g>
<g>
</g>
<g>
</g>
<g>
</g>
<g>
</g>
<g>
</g>
<g>
</g>
<g>
</g>
<g>
</g>
<g>
</g>
<g>
</g>
<g>
</g>
<g>
</g>
<g>
</g>
<g>
</g>
<g>
</g>
</svg>
