<?xml version="1.0" encoding="iso-8859-1"?>
<!-- Generator: Adobe Illustrator 19.0.0, SVG Export Plug-In . SVG Version: 6.00 Build 0)  -->
<svg version="1.1" id="Layer_1" xmlns="http://www.w3.org/2000/svg" xmlns:xlink="http://www.w3.org/1999/xlink" x="0px" y="0px"
	 viewBox="0 0 512 512" style="enable-background:new 0 0 512 512;" xml:space="preserve">
<g>
	<g>
		<path d="M384.862,6.248C380.861,2.247,375.434,0,369.776,0L42.665,0.03C30.884,0.031,21.333,9.58,21.333,21.363v348.415h21.333H64
			h142.222v-64.226l-51.962-39.713c-5.281-4.036-8.38-10.303-8.38-16.95s3.098-12.914,8.38-16.95l51.962-39.714v-85.558
			c0-11.782,9.552-21.333,21.333-21.333h120.889h21.333h21.333v-64C391.111,15.674,388.863,10.249,384.862,6.248z"/>
	</g>
</g>
<g>
	<g>
		<path d="M369.778,412.444h-21.333H227.556H64H42.667H21.333v78.222c0,11.782,9.552,21.333,21.333,21.333h327.111
			c11.782,0,21.333-9.552,21.333-21.333v-78.222H369.778z"/>
	</g>
</g>
<g>
	<g>
		<path d="M369.778,128H248.889v74.771c0,6.647-3.099,12.914-8.38,16.95l-38.164,29.168l38.164,29.167
			c5.281,4.036,8.38,10.303,8.38,16.95v74.772h120.86h0.028h0.028h120.86V128H369.778z M438.292,288.73h-12.965
			c-1.033,4.085-2.515,7.99-4.375,11.674l7.027,7.027c5.554,5.554,5.552,14.558,0,20.113c-2.778,2.776-6.417,4.166-10.057,4.166
			c-3.641,0-7.279-1.39-10.057-4.167l-5.683-5.683c-9.18,6.3-20.284,9.997-32.235,9.997c-0.057,0-0.112-0.004-0.169-0.004
			c-11.974-0.034-23.086-3.779-32.263-10.133l-5.825,5.825c-2.778,2.776-6.417,4.166-10.057,4.166s-7.279-1.39-10.057-4.166
			c-5.552-5.554-5.552-14.559,0-20.115l7.252-7.252c-1.808-3.617-3.248-7.447-4.26-11.449h-13.305
			c-7.854,0-14.222-6.367-14.222-14.222c0-7.854,6.369-14.222,14.222-14.222h11.564v-9.421l-11.679-11.678
			c-5.552-5.554-5.554-14.558,0-20.113c5.069-5.07,13.006-5.495,18.578-1.313c5.268-9.7,13.261-17.712,22.945-23.009l-4.553-4.553
			c-5.554-5.554-5.552-14.559,0-20.113c5.555-5.552,14.561-5.551,20.115,0.001l10.055,10.055h1.488h1.987l10.055-10.057
			c5.554-5.552,14.559-5.552,20.115,0c5.552,5.554,5.552,14.559,0,20.115l-4.553,4.553c9.656,5.281,17.631,13.262,22.901,22.925
			c5.565-4.093,13.429-3.641,18.465,1.394c5.554,5.554,5.552,14.558,0,20.113l-11.679,11.678v9.421h11.226
			c7.854,0,14.222,6.369,14.222,14.222C452.514,282.361,446.145,288.73,438.292,288.73z"/>
	</g>
</g>
<g>
</g>
<g>
</g>
<g>
</g>
<g>
</g>
<g>
</g>
<g>
</g>
<g>
</g>
<g>
</g>
<g>
</g>
<g>
</g>
<g>
</g>
<g>
</g>
<g>
</g>
<g>
</g>
<g>
</g>
</svg>
