<?xml version="1.0" encoding="iso-8859-1"?>
<!-- Generator: Adobe Illustrator 19.0.0, SVG Export Plug-In . SVG Version: 6.00 Build 0)  -->
<svg version="1.1" id="Layer_1" xmlns="http://www.w3.org/2000/svg" xmlns:xlink="http://www.w3.org/1999/xlink" x="0px" y="0px"
	 viewBox="0 0 512 512" style="enable-background:new 0 0 512 512;" xml:space="preserve">
<g>
	<g>
		<path d="M246.36,314.019c-4.397-4.399-10.242-6.819-16.457-6.819c-6.217,0-12.06,2.42-16.457,6.816
			c-4.397,4.397-6.816,10.24-6.816,16.455c0,6.217,2.422,12.061,6.816,16.457c4.397,4.395,10.243,6.816,16.457,6.816
			c6.215,0,12.06-2.42,16.457-6.816c4.394-4.395,6.816-10.24,6.816-16.454C253.176,324.257,250.754,318.414,246.36,314.019z"/>
	</g>
</g>
<g>
	<g>
		<path d="M488.727,74.473H269.964V41.891c0-12.853-10.42-23.273-23.273-23.273H23.273C10.42,18.618,0,29.038,0,41.891v428.218
			c0,12.853,10.42,23.273,23.273,23.273h465.455c12.853,0,23.273-10.42,23.273-23.273V97.745
			C512,84.893,501.58,74.473,488.727,74.473z M345.097,248.187l-52.17,52.176c4.444,9.283,6.794,19.515,6.794,30.11
			c0,18.649-7.263,36.181-20.452,49.369c-13.188,13.185-30.72,20.447-49.366,20.447c-18.648,0-36.178-7.263-49.366-20.447
			c-13.189-13.188-20.452-30.722-20.452-49.371c0-18.649,7.264-36.183,20.452-49.369c13.183-13.185,30.717-20.447,49.366-20.447
			c10.597,0,20.831,2.352,30.113,6.796l35.711-35.716l-11.022-11.023c-9.089-9.087-9.089-23.825,0-32.912
			c9.087-9.087,23.823-9.087,32.912,0l27.479,27.479C354.185,224.363,354.185,239.098,345.097,248.187z"/>
	</g>
</g>
<g>
</g>
<g>
</g>
<g>
</g>
<g>
</g>
<g>
</g>
<g>
</g>
<g>
</g>
<g>
</g>
<g>
</g>
<g>
</g>
<g>
</g>
<g>
</g>
<g>
</g>
<g>
</g>
<g>
</g>
</svg>
