<?xml version="1.0" encoding="iso-8859-1"?>
<!-- Generator: Adobe Illustrator 19.0.0, SVG Export Plug-In . SVG Version: 6.00 Build 0)  -->
<svg version="1.1" id="Layer_1" xmlns="http://www.w3.org/2000/svg" xmlns:xlink="http://www.w3.org/1999/xlink" x="0px" y="0px"
	 viewBox="0 0 512 512" style="enable-background:new 0 0 512 512;" xml:space="preserve">
<g>
	<g>
		<polygon points="310.303,13.633 310.303,46.545 310.303,79.458 310.303,155.147 385.995,155.147 418.909,155.147 451.821,155.147 
					"/>
	</g>
</g>
<g>
	<g>
		<path d="M442.182,201.692h-23.273H287.03c-12.853,0-23.273-10.42-23.273-23.273V46.545V23.273V0H69.818
			C56.965,0,46.545,10.42,46.545,23.273v465.455c0,12.853,10.42,23.273,23.273,23.273h372.364c12.853,0,23.273-10.42,23.273-23.273
			V201.692H442.182z M178.125,364.57c5.852,0,5.897-0.352,6.631-6.246c1.032-8.184,7.444-13.674,15.959-13.674
			c7.758,0,16.049,4.496,16.049,17.118c0,17.009-13.594,34.228-39.576,34.228c-24.247,0-39.309-15.421-39.309-40.243v-41.443
			c0-24.742,15.217-40.113,39.713-40.113c25.716,0,39.173,17.085,39.173,33.963c0,12.522-8.291,16.983-16.049,16.983
			c-8.811,0-15.397-5.803-16.016-14.113c-0.008-0.112-0.016-0.222-0.02-0.332c-0.13-2.835-0.233-5.073-7.087-5.073
			c-5.525,0-7.612,0.748-7.612,8.684v41.443C169.979,363.849,172.091,364.57,178.125,364.57z M280.933,350.611h-5.742v6.011
			c0,8.322-6.814,14.842-15.512,14.842c-8.699,0-15.515-6.519-15.515-14.842v-6.011h-6.009c-8.324,0-14.845-6.757-14.845-15.382
			c0-8.772,6.521-15.646,14.845-15.646h6.009v-5.741c0-8.19,7.104-15.11,15.515-15.11c8.554,0,15.512,6.779,15.512,15.11v5.741
			h5.742c8.333,0,15.112,7.018,15.112,15.646C296.046,343.712,289.266,350.611,280.933,350.611z M359.01,350.611h-5.742v6.011
			c0,8.322-6.814,14.842-15.512,14.842c-8.699,0-15.515-6.519-15.515-14.842v-6.011h-6.009c-8.325,0-14.848-6.757-14.848-15.382
			c0-8.772,6.523-15.646,14.848-15.646h6.009v-5.741c0-8.19,7.104-15.11,15.515-15.11c8.554,0,15.512,6.779,15.512,15.11v5.741
			h5.742c8.333,0,15.112,7.018,15.112,15.646C374.122,343.712,367.343,350.611,359.01,350.611z"/>
	</g>
</g>
<g>
</g>
<g>
</g>
<g>
</g>
<g>
</g>
<g>
</g>
<g>
</g>
<g>
</g>
<g>
</g>
<g>
</g>
<g>
</g>
<g>
</g>
<g>
</g>
<g>
</g>
<g>
</g>
<g>
</g>
</svg>
