<?xml version="1.0" encoding="iso-8859-1"?>
<!-- Generator: Adobe Illustrator 19.0.0, SVG Export Plug-In . SVG Version: 6.00 Build 0)  -->
<svg version="1.1" id="Layer_1" xmlns="http://www.w3.org/2000/svg" xmlns:xlink="http://www.w3.org/1999/xlink" x="0px" y="0px"
	 viewBox="0 0 512 512" style="enable-background:new 0 0 512 512;" xml:space="preserve">
<g>
	<g>
		<path d="M341.247,162.915l38.012-38.011l18.963-18.963l18.963-18.963v-1.645c0-10.473-8.49-18.963-18.963-18.963H18.963
			C8.49,66.37,0,74.861,0,85.333v341.333c0,10.473,8.49,18.963,18.963,18.963h379.259c10.473,0,18.963-8.49,18.963-18.963V301.519
			l-18.963,18.963l-18.963,18.963l-19.225,19.225c-7.162,7.163-16.685,11.108-26.817,11.108h-36.131H279.58H120.099
			c-10.473,0-18.963-8.49-18.963-18.963s8.49-18.963,18.963-18.963h121.555v-37.926H132.741c-10.473,0-18.963-8.49-18.963-18.963
			c0-10.473,8.49-18.963,18.963-18.963h116.1c1.177-1.619,2.482-3.16,3.924-4.603l71.337-71.337
			c-0.571,0.052-1.147,0.087-1.731,0.087c-10.473,0-18.963-8.49-18.963-18.963c0-10.473,8.49-18.974,18.963-18.974
			s18.963,8.479,18.963,18.952v0.023C341.335,161.769,341.299,162.344,341.247,162.915z M189.63,161.185
			c0,10.473-8.49,18.963-18.963,18.963s-18.963-8.49-18.963-18.963s8.49-18.974,18.963-18.974s18.963,8.479,18.963,18.952V161.185z
			 M265.482,161.185c0,10.473-8.49,18.963-18.963,18.963c-10.473,0-18.963-8.49-18.963-18.963s8.49-18.974,18.963-18.974
			c10.473,0,18.963,8.479,18.963,18.952V161.185z"/>
	</g>
</g>
<g>
	<g>
		<polygon points="458.365,99.432 417.185,140.613 398.222,159.576 379.259,178.539 297.008,260.788 279.58,278.216 279.58,293.926 
			279.58,331.852 297.086,331.852 333.217,331.852 379.259,285.81 398.222,266.846 417.185,247.883 512,153.067 		"/>
	</g>
</g>
<g>
	<g>
		<polygon points="333.217,331.852 333.217,350.815 333.218,331.852 		"/>
	</g>
</g>
<g>
</g>
<g>
</g>
<g>
</g>
<g>
</g>
<g>
</g>
<g>
</g>
<g>
</g>
<g>
</g>
<g>
</g>
<g>
</g>
<g>
</g>
<g>
</g>
<g>
</g>
<g>
</g>
<g>
</g>
</svg>
