<?xml version="1.0" encoding="iso-8859-1"?>
<!-- Generator: Adobe Illustrator 19.0.0, SVG Export Plug-In . SVG Version: 6.00 Build 0)  -->
<svg version="1.1" id="Layer_1" xmlns="http://www.w3.org/2000/svg" xmlns:xlink="http://www.w3.org/1999/xlink" x="0px" y="0px"
	 viewBox="0 0 512 512" style="enable-background:new 0 0 512 512;" xml:space="preserve">
<g>
	<g>
		<path d="M261.565,395.13H244.87v-33.391h3.853c-1.298-0.952-2.583-1.921-3.853-2.908c-5.502-4.281-10.739-8.884-15.682-13.787
			c-5.282-5.239-10.227-10.815-14.801-16.696c-22.737-29.226-36.3-65.927-36.3-105.739c0-39.809,13.56-76.506,36.293-105.73
			c4.573-5.88,9.519-11.459,14.8-16.698c6.083-6.033,12.614-11.615,19.534-16.696L16.695,83.498C7.475,83.499,0,90.972,0,100.193
			v244.849c0,9.22,7.475,16.696,16.696,16.696h105.739v33.391h-16.696c-9.22,0-16.696,7.475-16.696,16.696
			c0,9.22,7.475,16.696,16.696,16.696h33.391h89.043h33.391c9.22,0,16.696-7.475,16.696-16.696
			C278.261,402.605,270.786,395.13,261.565,395.13z"/>
	</g>
</g>
<g>
	<g>
		<path d="M420.748,240.361c-1.121-8.131-8.08-14.399-16.52-14.399h-2.721l7.012-7.011c6.519-6.52,6.52-17.091,0.001-23.612
			c-4.403-4.402-10.648-5.82-16.253-4.277c-3.118-4.525-6.949-8.52-11.34-11.812c5.268-6.555,4.866-16.163-1.218-22.246
			c-0.426-0.426-0.872-0.82-1.33-1.192c-3.296-2.662-7.367-3.87-11.379-3.654c-3.966,0.214-7.871,1.818-10.902,4.846l-5.296,5.296
			l-0.195-0.195l-5.1-5.1c-3.112-3.112-7.147-4.722-11.223-4.863c-3.73-0.13-7.485,0.983-10.61,3.339
			c-0.617,0.465-1.218,0.961-1.78,1.521c-6.084,6.083-6.487,15.692-1.218,22.248c-4.4,3.298-8.238,7.303-11.359,11.837
			c-5.629-1.589-11.927-0.178-16.357,4.252c-6.519,6.52-6.519,17.091,0.001,23.612l7.012,7.011h-2.987
			c-8.438,0-15.395,6.266-16.519,14.395c-0.105,0.755-0.177,1.518-0.177,2.301c0,5.053,2.255,9.573,5.803,12.635
			c2.924,2.524,6.726,4.06,10.892,4.06h6.285c0.255,0.731,0.528,1.454,0.816,2.169l-2.965,2.965
			c-1.945,1.944-3.296,4.252-4.08,6.702c-1.847,5.767-0.495,12.334,4.08,16.908c3.26,3.26,7.533,4.891,11.805,4.891
			c3.595,0,7.184-1.17,10.175-3.478c0.564-0.435,1.114-0.896,1.631-1.412l1.434-1.434c7.235,4.072,15.567,6.413,24.439,6.436
			c0.045,0,0.088,0.003,0.132,0.003c8.852,0,17.171-2.308,24.404-6.341l1.336,1.336c0.518,0.516,1.067,0.977,1.632,1.414
			c2.991,2.307,6.579,3.477,10.175,3.477c4.273,0,8.546-1.631,11.805-4.89c4.576-4.576,5.926-11.143,4.08-16.908
			c-0.785-2.45-2.135-4.758-4.079-6.703l-2.776-2.775c0.316-0.778,0.612-1.564,0.89-2.36h6.02c4.168,0,7.971-1.538,10.897-4.064
			c3.546-3.061,5.799-7.58,5.799-12.632C420.924,241.876,420.852,241.114,420.748,240.361z"/>
	</g>
</g>
<g>
	<g>
		<path d="M507.109,365.238l-27.833-27.834l-11.821-11.82l-11.819-11.821c21.235-24.432,34.106-56.318,34.106-91.154
			c0-76.718-62.414-139.13-139.133-139.13h-0.001c-23.884,0-46.38,6.053-66.04,16.7c-8.693,4.707-16.826,10.318-24.283,16.697
			c-29.852,25.536-48.807,63.461-48.807,105.732c0,42.276,18.957,80.201,48.811,105.739c7.457,6.379,15.591,11.99,24.284,16.696
			c19.659,10.646,42.152,16.696,66.034,16.696c29.862,0,57.555-9.459,80.246-25.534l11.948,11.949l11.923,11.923l28.773,28.772
			c3.26,3.26,7.533,4.891,11.805,4.891s8.546-1.631,11.805-4.891C513.631,382.329,513.631,371.757,507.109,365.238z
			 M350.609,328.347c-58.306,0-105.739-47.435-105.739-105.739s47.433-105.739,105.739-105.739S456.35,164.304,456.35,222.608
			S408.914,328.347,350.609,328.347z"/>
	</g>
</g>
<g>
</g>
<g>
</g>
<g>
</g>
<g>
</g>
<g>
</g>
<g>
</g>
<g>
</g>
<g>
</g>
<g>
</g>
<g>
</g>
<g>
</g>
<g>
</g>
<g>
</g>
<g>
</g>
<g>
</g>
</svg>
