<?xml version="1.0" encoding="iso-8859-1"?>
<!-- Generator: Adobe Illustrator 19.0.0, SVG Export Plug-In . SVG Version: 6.00 Build 0)  -->
<svg version="1.1" id="Layer_1" xmlns="http://www.w3.org/2000/svg" xmlns:xlink="http://www.w3.org/1999/xlink" x="0px" y="0px"
	 viewBox="0 0 512 512" style="enable-background:new 0 0 512 512;" xml:space="preserve">
<g>
	<g>
		<path d="M375.775,212.87h-14.566v34.217h14.566c8.533,0,14.216-2.746,14.216-16.146v-2.101
			C389.992,215.542,384.552,212.87,375.775,212.87z"/>
	</g>
</g>
<g>
	<g>
		<path d="M505.751,6.249C501.75,2.247,496.324,0,490.665,0L21.332,0.03C9.55,0.031,0,9.58,0,21.363v469.303
			C0,502.448,9.552,512,21.333,512h469.333c11.782,0,21.333-9.552,21.333-21.333V21.333C512,15.674,509.753,10.249,505.751,6.249z
			 M136.569,331.325c-27.942,0-47.458-17.068-47.458-41.508c0-10.099,6.386-16.624,16.269-16.624
			c9.634,0,16.627,6.403,16.627,15.223c0,8.997,7.731,10.886,14.217,10.886c8.532,0,14.214-2.746,14.214-16.142v-70.292h-14.042
			c-8.577,0-15.047-6.996-15.047-16.272c0-8.832,6.609-15.75,15.047-15.75h30.842c9.176,0,16.097,6.47,16.097,15.047v87.268h0.001
			C183.336,313.32,165.852,331.325,136.569,331.325z M254.514,331.503c-26.667,0-46.592-15.623-46.592-29.594
			c0-8.095,6.81-17.151,15.922-17.151c6.081,0,9.728,3.93,12.39,6.798c3.533,3.809,7.188,7.745,17.576,7.745
			c13.571,0,15.441-6.495,15.441-13.515c0-10.655-5.481-13.663-21.144-19.55c-15.629-5.872-37.033-13.914-37.033-43.183
			c0-26.25,18.321-42.559,47.814-42.559c13.872,0,40.108,4.464,40.108,21.356c0,8.282-6.329,17.151-15.75,17.151
			c-3.638,0-6.494-1.469-9.016-2.765c-3.372-1.734-7.568-3.891-15.515-3.891c-14.744,0-14.744,6.524-14.744,9.66
			c0,6.084,2.825,8.272,17.785,13.769c16.085,5.909,40.393,14.841,40.393,48.964C302.15,313.583,283.897,331.503,254.514,331.503z
			 M422.891,230.416h-0.001c0,30.052-17.613,47.991-47.114,47.991h-14.566v36.644c0,8.538-7.225,15.225-16.447,15.225
			c-9.378,0-16.449-6.545-16.449-15.225V195.722c0-7.972,6.427-14.36,14.949-14.855c0.206-0.013,0.414-0.018,0.62-0.018h32.247
			c29.281,0,46.761,17.874,46.761,47.815V230.416z"/>
	</g>
</g>
<g>
</g>
<g>
</g>
<g>
</g>
<g>
</g>
<g>
</g>
<g>
</g>
<g>
</g>
<g>
</g>
<g>
</g>
<g>
</g>
<g>
</g>
<g>
</g>
<g>
</g>
<g>
</g>
<g>
</g>
</svg>
