<?xml version="1.0" encoding="iso-8859-1"?>
<!-- Generator: Adobe Illustrator 19.0.0, SVG Export Plug-In . SVG Version: 6.00 Build 0)  -->
<svg version="1.1" id="Layer_1" xmlns="http://www.w3.org/2000/svg" xmlns:xlink="http://www.w3.org/1999/xlink" x="0px" y="0px"
	 viewBox="0 0 511.999 511.999" style="enable-background:new 0 0 511.999 511.999;" xml:space="preserve">
<g>
	<g>
		<path d="M428.534,238.144c-28.383-68.445-83.966-123.853-152.494-152.009c-11.297-4.644-24.226,0.754-28.87,12.053
			c-4.643,11.301,0.755,24.226,12.055,28.869c57.721,23.717,104.536,70.385,128.444,128.035
			c3.532,8.514,11.764,13.653,20.442,13.653c2.823,0,5.694-0.544,8.465-1.693C427.86,262.373,433.215,249.43,428.534,238.144z"/>
	</g>
</g>
<g>
	<g>
		<path d="M510.305,204.275C473.004,114.317,399.969,41.454,309.927,4.367c-11.3-4.656-24.227,0.731-28.879,12.028
			c-4.653,11.297,0.732,24.227,12.028,28.879c79.248,32.643,143.53,96.771,176.362,175.946c3.529,8.515,11.763,13.655,20.442,13.655
			c2.823,0,5.694-0.544,8.465-1.693C509.631,228.502,514.986,215.559,510.305,204.275z"/>
	</g>
</g>
<g>
	<g>
		<path d="M35.406,241.704c14.401,8.24,36.564,14.888,62.656,19.237c2.771-15.375,6.315-29.669,10.576-42.451
			c5.238-15.714,11.108-27.763,17.237-36.975C89.443,191.208,57.836,212.722,35.406,241.704z"/>
	</g>
</g>
<g>
	<g>
		<path d="M108.637,472.33c-4.261-12.78-7.804-27.077-10.576-42.448c-26.093,4.349-48.254,10.997-62.654,19.238
			c22.43,28.979,54.037,50.493,90.467,60.187C119.745,500.094,113.876,488.045,108.637,472.33z"/>
	</g>
</g>
<g>
	<g>
		<path d="M326.083,279.915c-0.002,0.001-0.003,0.003-0.003,0.003c-19.395,11.177-47.085,19.749-79.396,25.006
			c1.025,13.154,1.568,26.705,1.568,40.485c0,13.779-0.541,27.33-1.568,40.481c32.305,5.256,59.994,13.826,79.393,24.999
			c0.003,0.002,0.006,0.003,0.009,0.006c8.443-20.15,13.112-42.273,13.112-65.486C339.198,322.193,334.528,300.067,326.083,279.915z
			"/>
	</g>
</g>
<g>
	<g>
		<path d="M190.555,238.725c-8.39-28.147-17.506-38.44-20.955-40.54c-3.451,2.102-12.567,12.393-20.958,40.54
			c-2.489,8.352-4.646,17.445-6.474,27.077c8.999,0.529,18.175,0.813,27.426,0.813c9.254,0,18.433-0.283,27.434-0.813
			C195.2,256.17,193.044,247.077,190.555,238.725z"/>
	</g>
</g>
<g>
	<g>
		<path d="M213.325,181.513c6.129,9.213,11.997,21.262,17.236,36.977c4.261,12.782,7.803,27.077,10.574,42.448
			c26.095-4.351,48.257-10.999,62.654-19.241C281.358,212.719,249.752,191.208,213.325,181.513z"/>
	</g>
</g>
<g>
	<g>
		<path d="M241.137,429.88c-2.773,15.372-6.315,29.668-10.576,42.448c-5.238,15.715-11.107,27.765-17.236,36.978
			c36.431-9.694,68.038-31.208,90.468-60.19C289.391,440.876,267.228,434.231,241.137,429.88z"/>
	</g>
</g>
<g>
	<g>
		<path d="M92.511,304.926c-32.308-5.256-59.997-13.826-79.394-24.999c-0.002,0-0.003-0.003-0.004-0.003
			C4.669,300.073,0,322.196,0,345.41c0,23.214,4.669,45.337,13.114,65.489v-0.002C32.511,399.72,60.2,391.15,92.509,385.892
			c-1.023-13.152-1.566-26.704-1.566-40.482C90.943,331.63,91.486,318.078,92.511,304.926z"/>
	</g>
</g>
<g>
	<g>
		<path d="M202.695,309.81c-10.789,0.686-21.852,1.047-33.101,1.047c-11.247,0-22.307-0.36-33.094-1.047
			c-0.863,11.57-1.314,23.5-1.314,35.601c0,12.1,0.45,24.028,1.314,35.598c10.788-0.687,21.852-1.047,33.1-1.047
			c11.247,0,22.309,0.36,33.095,1.047c0.863-11.57,1.314-23.497,1.314-35.598C204.009,333.309,203.559,321.38,202.695,309.81z"/>
	</g>
</g>
<g>
	<g>
		<path d="M169.6,424.204c-9.253,0-18.432,0.282-27.432,0.813c1.827,9.632,3.985,18.725,6.474,27.078
			c8.39,28.149,17.507,38.44,20.958,40.541c3.451-2.102,12.567-12.393,20.955-40.541c2.489-8.353,4.646-17.446,6.473-27.078
			C188.029,424.487,178.851,424.204,169.6,424.204z"/>
	</g>
</g>
<g>
</g>
<g>
</g>
<g>
</g>
<g>
</g>
<g>
</g>
<g>
</g>
<g>
</g>
<g>
</g>
<g>
</g>
<g>
</g>
<g>
</g>
<g>
</g>
<g>
</g>
<g>
</g>
<g>
</g>
</svg>
