<?xml version="1.0" encoding="iso-8859-1"?>
<!-- Generator: Adobe Illustrator 19.0.0, SVG Export Plug-In . SVG Version: 6.00 Build 0)  -->
<svg version="1.1" id="Layer_1" xmlns="http://www.w3.org/2000/svg" xmlns:xlink="http://www.w3.org/1999/xlink" x="0px" y="0px"
	 viewBox="0 0 512.001 512.001" style="enable-background:new 0 0 512.001 512.001;" xml:space="preserve">
<g>
	<g>
		<path d="M458.644,332.55c-3.388-6.7-7.902-12.667-13.259-17.699c1.532-9.826,2.317-19.808,2.317-29.804
			c0-64.894-33.191-125.536-87.266-160.749c-1.909-28.655-24.669-51.697-53.21-54.014c-10.693-21.146-32.555-35.029-57.034-35.029
			c-31.95,0-58.5,23.566-63.18,54.229c-16.163,4.709-28.924,17.476-33.629,33.641c-25.608,16.264-47.153,38.463-62.596,64.639
			C73.46,217.132,64.3,250.772,64.3,285.046c0,7.293,0.416,14.593,1.236,21.825c-15.758,9.635-27.045,25.894-29.943,44.879
			C15.053,357.732,0,376.729,0,399.175c0,27.231,22.153,49.383,49.385,49.383h101.681c1.521,0,3.027-0.077,4.52-0.193
			c30.163,18.586,64.735,28.382,100.418,28.382c35.515,0,69.988-9.744,100.071-28.189h97.829c32.035,0,58.098-26.063,58.098-58.099
			C512,360.02,488.47,334.972,458.644,332.55z M412.276,298.419c-3.48-0.586-7.044-0.897-10.666-0.897
			c-31.95,0-58.5,23.566-63.18,54.229c-20.54,5.982-35.594,24.979-35.594,47.425c0,11.975,4.286,22.965,11.402,31.523
			c-18.395,7.357-38.108,11.195-58.239,11.195c-21.433,0-42.372-4.319-61.746-12.622c9.262-10.296,14.909-23.905,14.909-38.811
			c0-30.439-23.53-55.486-53.354-57.909c-10.566-20.891-32.031-34.684-56.152-35.014c-0.326-4.151-0.502-8.321-0.502-12.491
			c0-48.038,22.261-93.261,59.289-122.784c8.643,14.382,24.393,24.029,42.359,24.029h101.681c20.213,0,38.043-10.384,48.453-26.091
			c38.609,29.452,61.911,75.66,61.911,124.846C412.848,289.515,412.65,293.978,412.276,298.419z"/>
	</g>
</g>
<g>
</g>
<g>
</g>
<g>
</g>
<g>
</g>
<g>
</g>
<g>
</g>
<g>
</g>
<g>
</g>
<g>
</g>
<g>
</g>
<g>
</g>
<g>
</g>
<g>
</g>
<g>
</g>
<g>
</g>
</svg>
