<?xml version="1.0" encoding="iso-8859-1"?>
<!-- Generator: Adobe Illustrator 19.0.0, SVG Export Plug-In . SVG Version: 6.00 Build 0)  -->
<svg version="1.1" id="Layer_1" xmlns="http://www.w3.org/2000/svg" xmlns:xlink="http://www.w3.org/1999/xlink" x="0px" y="0px"
	 viewBox="0 0 512 512" style="enable-background:new 0 0 512 512;" xml:space="preserve">
<g>
	<g>
		<path d="M505.183,22.332c-4.364-4.366-10.285-6.817-16.457-6.817L23.271,15.543C10.418,15.545,0,25.961,0,38.816v341.305
			c0,12.853,10.42,23.273,23.273,23.273h147.394v46.545h-23.273c-12.853,0-23.273,10.42-23.273,23.273
			c0,12.853,10.42,23.273,23.273,23.273h46.545h124.121h46.545c12.853,0,23.273-10.42,23.273-23.273
			c0-12.853-10.42-23.273-23.273-23.273h-23.273v-46.545h147.394c12.853,0,23.273-10.42,23.273-23.273V38.788
			C512,32.614,509.549,26.695,505.183,22.332z M139.636,287.03c0,12.853-10.42,23.273-23.273,23.273s-23.273-10.42-23.273-23.273
			v-77.548c0-12.853,10.42-23.273,23.273-23.273s23.273,10.42,23.273,23.273V287.03z M232.727,287.03
			c0,12.853-10.42,23.273-23.273,23.273c-12.853,0-23.273-10.42-23.273-23.273V147.422c0-12.853,10.42-23.273,23.273-23.273
			c12.853,0,23.273,10.42,23.273,23.273V287.03z M325.818,287.03c0,12.853-10.42,23.273-23.273,23.273
			c-12.853,0-23.273-10.42-23.273-23.273v-93.063c0-12.853,10.42-23.273,23.273-23.273c12.853,0,23.273,10.42,23.273,23.273V287.03z
			 M418.909,287.03c0,12.853-10.42,23.273-23.273,23.273c-12.853,0-23.273-10.42-23.273-23.273V131.907
			c0-12.853,10.42-23.273,23.273-23.273c12.853,0,23.273,10.42,23.273,23.273V287.03z"/>
	</g>
</g>
<g>
</g>
<g>
</g>
<g>
</g>
<g>
</g>
<g>
</g>
<g>
</g>
<g>
</g>
<g>
</g>
<g>
</g>
<g>
</g>
<g>
</g>
<g>
</g>
<g>
</g>
<g>
</g>
<g>
</g>
</svg>
