<?xml version="1.0" encoding="iso-8859-1"?>
<!-- Generator: Adobe Illustrator 19.0.0, SVG Export Plug-In . SVG Version: 6.00 Build 0)  -->
<svg version="1.1" id="Layer_1" xmlns="http://www.w3.org/2000/svg" xmlns:xlink="http://www.w3.org/1999/xlink" x="0px" y="0px"
	 viewBox="0 0 512 512" style="enable-background:new 0 0 512 512;" xml:space="preserve">
<g>
	<g>
		<polygon points="284.444,12.497 284.444,42.667 284.444,72.835 284.444,142.218 353.83,142.218 384,142.218 414.17,142.218 		"/>
	</g>
</g>
<g>
	<g>
		<path d="M405.333,184.885H384H263.111c-11.782,0-21.333-9.552-21.333-21.333V42.667V21.333V0H64
			C52.218,0,42.667,9.552,42.667,21.333V448c0,11.782,9.552,21.333,21.333,21.333h234.667V448v-21.333v-21.333v-35.556H149.333
			c-11.782,0-21.333-9.552-21.333-21.333s9.552-21.333,21.333-21.333h155.45c12.363-34.863,42.355-61.453,79.216-68.964
			c6.895-1.407,14.029-2.148,21.333-2.148c7.305,0,14.438,0.741,21.333,2.148v-73.263H405.333z M277.333,284.444h-128
			c-11.782,0-21.333-9.552-21.333-21.333c0-11.782,9.552-21.333,21.333-21.333h128c11.782,0,21.333,9.552,21.333,21.333
			C298.667,274.893,289.115,284.444,277.333,284.444z"/>
	</g>
</g>
<g>
	<g>
		<path d="M426.667,302.336c-6.677-2.368-13.855-3.669-21.333-3.669c-7.478,0-14.656,1.301-21.333,3.669
			c-24.831,8.806-42.667,32.519-42.667,60.329v42.668v21.333V448v21.333v21.333c0,11.782,9.552,21.333,21.333,21.333H448
			c11.782,0,21.333-9.552,21.333-21.333v-85.333v-42.668C469.333,334.855,451.497,311.144,426.667,302.336z M426.667,384H384
			v-21.335c0-9.089,5.724-16.848,13.75-19.914c2.359-0.903,4.909-1.418,7.583-1.418c11.765,0,21.333,9.57,21.333,21.332V384z"/>
	</g>
</g>
<g>
</g>
<g>
</g>
<g>
</g>
<g>
</g>
<g>
</g>
<g>
</g>
<g>
</g>
<g>
</g>
<g>
</g>
<g>
</g>
<g>
</g>
<g>
</g>
<g>
</g>
<g>
</g>
<g>
</g>
</svg>
