<?xml version="1.0" encoding="iso-8859-1"?>
<!-- Generator: Adobe Illustrator 19.0.0, SVG Export Plug-In . SVG Version: 6.00 Build 0)  -->
<svg version="1.1" id="Layer_1" xmlns="http://www.w3.org/2000/svg" xmlns:xlink="http://www.w3.org/1999/xlink" x="0px" y="0px"
	 viewBox="0 0 512 512" style="enable-background:new 0 0 512 512;" xml:space="preserve">
<g>
	<g>
		<path d="M135.47,270.922c-41.298,0-82.783-5.777-112.884-18.03v38.692c6.227,7.351,40.659,22.435,100.523,24.3
			c3.523-2.119,7.149-4.095,10.887-5.882c4.001-13.88,9.893-27.118,17.499-39.375C146.165,270.822,140.816,270.922,135.47,270.922z"
			/>
	</g>
</g>
<g>
	<g>
		<path d="M135.471,180.616c-41.296,0-82.783-5.777-112.884-18.03v38.692c0.5,0.59,1.204,1.234,2.065,1.913
			c10.593,8.346,48.406,22.577,110.819,22.577c27.192,0,49.71-2.705,67.351-6.443c10.972-6.805,22.702-12.213,34.937-16.133
			c3.493-1.12,7.027-2.116,10.596-2.989v-37.616C218.255,174.839,176.767,180.616,135.471,180.616z"/>
	</g>
</g>
<g>
	<g>
		<path d="M135.471,90.307c-41.296,0-82.783-5.777-112.884-18.03v38.692c0.5,0.592,1.204,1.236,2.065,1.915
			c10.593,8.346,48.406,22.577,110.819,22.577s100.226-14.231,110.819-22.577c0.861-0.679,1.565-1.323,2.065-1.913V72.277
			C218.255,84.531,176.767,90.307,135.471,90.307z"/>
	</g>
</g>
<g>
	<g>
		<path d="M135.471,0C73.071,0,35.236,14.231,24.636,22.577c10.601,8.346,48.435,22.577,110.836,22.577
			s100.235-14.231,110.836-22.577C235.706,14.231,197.872,0,135.471,0z"/>
	</g>
</g>
<g>
	<g>
		<path d="M389.589,308.615c-16.72-38.406-53.686-64.728-96.079-67.533c-2.491-0.164-4.998-0.262-7.526-0.262
			c-5.105,0-10.125,0.363-15.051,1.022c-0.567,0.075-1.136,0.143-1.702,0.227c-7.202,1.075-14.181,2.837-20.875,5.206
			c-9.94,3.522-19.238,8.394-27.687,14.398c-18.024,12.81-32.148,30.759-40.205,51.701c-2.864,7.449-4.94,15.284-6.174,23.394
			c-0.369,2.431-0.691,4.877-0.903,7.356c-13.633,2.703-26.09,8.697-36.531,17.1c-19.315,15.546-31.704,39.365-31.704,66.031
			c0,46.729,38.018,84.746,84.749,84.746h197.812c56.079,0,101.701-45.625,101.701-101.701
			C489.416,354.847,444.804,309.617,389.589,308.615z"/>
	</g>
</g>
<g>
</g>
<g>
</g>
<g>
</g>
<g>
</g>
<g>
</g>
<g>
</g>
<g>
</g>
<g>
</g>
<g>
</g>
<g>
</g>
<g>
</g>
<g>
</g>
<g>
</g>
<g>
</g>
<g>
</g>
</svg>
