<?xml version="1.0" encoding="iso-8859-1"?>
<!-- Generator: Adobe Illustrator 19.0.0, SVG Export Plug-In . SVG Version: 6.00 Build 0)  -->
<svg version="1.1" id="Layer_1" xmlns="http://www.w3.org/2000/svg" xmlns:xlink="http://www.w3.org/1999/xlink" x="0px" y="0px"
	 viewBox="0 0 512 512" style="enable-background:new 0 0 512 512;" xml:space="preserve">
<g>
	<g>
		<path d="M226.838,269.747c-11.371,0-20.622,9.251-20.622,20.622c0,11.371,9.251,20.622,20.622,20.622
			c11.371,0,20.622-9.251,20.622-20.622C247.459,278.998,238.208,269.747,226.838,269.747z"/>
	</g>
</g>
<g>
	<g>
		<path d="M433.054,49.783H20.622C9.233,49.783,0,59.016,0,70.405v371.189c0,11.389,9.233,20.622,20.622,20.622h345.563
			l-6.039-6.039c-4.372-4.372-8.007-9.283-10.848-14.582c-3.426-6.394-5.682-13.357-6.677-20.622
			c-0.386-2.809-0.594-5.657-0.594-8.541c0-16.526,6.435-32.061,18.117-43.743c11.686-11.686,27.222-18.122,43.748-18.122
			c2.884,0,5.733,0.22,8.542,0.605c6.335,0.87,12.446,2.681,18.143,5.41l2.479-2.479l14.577-14.578
			c1.914-1.912,3.937-3.669,6.045-5.296V70.405C453.675,59.016,444.442,49.783,433.054,49.783z M268.081,132.257
			c11.389,0,20.622,9.221,20.622,20.609v0.025c0,11.389-9.233,20.622-20.622,20.622c-11.389,0-20.622-9.233-20.622-20.622
			S256.692,132.257,268.081,132.257z M185.594,132.257c11.389,0,20.622,9.221,20.622,20.609v0.025
			c0,11.389-9.233,20.622-20.622,20.622s-20.622-9.233-20.622-20.622S174.206,132.257,185.594,132.257z M295.576,310.99h-10.421
			c-0.733,2.062-1.562,4.079-2.499,6.035l7.367,7.367c8.053,8.052,8.053,21.11,0.001,29.163c-4.027,4.027-9.304,6.041-14.581,6.041
			c-5.279,0-10.556-2.013-14.582-6.041l-7.367-7.367c-1.955,0.939-3.972,1.767-6.034,2.498v10.421
			c0,11.389-9.233,20.622-20.622,20.622c-11.389,0-20.622-9.233-20.622-20.622v-10.421c-2.062-0.731-4.078-1.56-6.034-2.498
			l-7.369,7.369c-4.027,4.025-9.306,6.039-14.582,6.039c-5.279,0-10.556-2.014-14.582-6.041c-8.052-8.053-8.052-21.11,0.001-29.164
			l7.367-7.367c-0.939-1.955-1.767-3.972-2.498-6.034h-10.422c-11.389,0-20.622-9.233-20.622-20.622
			c0-11.389,9.233-20.622,20.622-20.622h10.421c0.731-2.062,1.562-4.079,2.498-6.035l-7.367-7.367
			c-8.053-8.052-8.053-21.11,0-29.163c8.052-8.052,21.11-8.052,29.163,0l7.367,7.369c1.956-0.939,3.973-1.768,6.035-2.499V221.63
			c0-11.389,9.233-20.622,20.622-20.622s20.622,9.233,20.622,20.622v10.421c2.062,0.731,4.079,1.56,6.034,2.498l7.367-7.367
			c8.053-8.052,21.11-8.055,29.163,0c8.053,8.052,8.053,21.108,0.001,29.163l-7.369,7.369c0.939,1.955,1.768,3.972,2.499,6.034
			h10.421c11.387,0,20.622,9.233,20.622,20.622C316.198,301.757,306.964,310.99,295.576,310.99z M371.189,152.891
			c0,11.389-9.233,20.622-20.622,20.622s-20.622-9.233-20.622-20.622s9.233-20.634,20.622-20.634s20.622,9.221,20.622,20.609
			V152.891z"/>
	</g>
</g>
<g>
	<g>
		<path d="M505.959,368.685c-4.025-4.027-9.305-6.041-14.58-6.041c-5.279,0-10.555,2.014-14.582,6.041l-23.122,23.124
			l-20.622,20.622l-14.582-14.581c-1.798-1.798-3.854-3.173-6.039-4.167c-2.71-1.233-5.621-1.872-8.542-1.872
			c-5.279,0-10.556,2.014-14.582,6.041c-6.254,6.255-7.629,15.52-4.167,23.122c0.997,2.186,2.37,4.243,4.167,6.041l14.582,14.581
			l14.579,14.581c4.028,4.027,9.305,6.041,14.582,6.041c0.003,0,0.008,0,0.012,0c0.682-0.001,1.356-0.037,2.021-0.102
			c0.312-0.03,0.617-0.089,0.927-0.135c0.357-0.051,0.716-0.094,1.067-0.164c0.351-0.069,0.697-0.166,1.045-0.256
			c0.305-0.077,0.613-0.143,0.911-0.234c0.34-0.102,0.672-0.231,1.008-0.352c0.3-0.109,0.602-0.206,0.895-0.327
			c0.315-0.132,0.619-0.286,0.928-0.433c0.301-0.142,0.606-0.276,0.9-0.432c0.297-0.159,0.584-0.344,0.876-0.518
			c0.286-0.172,0.577-0.334,0.854-0.518c0.326-0.219,0.639-0.465,0.955-0.704c0.22-0.166,0.451-0.322,0.664-0.496
			c0.522-0.428,1.03-0.884,1.516-1.371l0.011-0.011l58.315-58.315C514.014,389.796,514.014,376.739,505.959,368.685z"/>
	</g>
</g>
<g>
</g>
<g>
</g>
<g>
</g>
<g>
</g>
<g>
</g>
<g>
</g>
<g>
</g>
<g>
</g>
<g>
</g>
<g>
</g>
<g>
</g>
<g>
</g>
<g>
</g>
<g>
</g>
<g>
</g>
</svg>
