<?xml version="1.0" encoding="iso-8859-1"?>
<!-- Generator: Adobe Illustrator 19.0.0, SVG Export Plug-In . SVG Version: 6.00 Build 0)  -->
<svg version="1.1" id="Layer_1" xmlns="http://www.w3.org/2000/svg" xmlns:xlink="http://www.w3.org/1999/xlink" x="0px" y="0px"
	 viewBox="0 0 512 512" style="enable-background:new 0 0 512 512;" xml:space="preserve">
<g>
	<g>
		<path d="M256.001,25.598c-5.711,0-20.291,13.541-33.872,51.198h67.738C276.29,39.139,261.711,25.598,256.001,25.598z"/>
	</g>
</g>
<g>
	<g>
		<path d="M73.206,76.797h95.039c9.091-30.041,20.391-53.914,33.48-71.013C151.959,16.529,107.582,41.735,73.206,76.797z"/>
	</g>
</g>
<g>
	<g>
		<path d="M310.273,5.782c13.088,17.099,24.387,40.974,33.475,71.015h95.046C404.418,41.737,360.041,16.527,310.273,5.782z"/>
	</g>
</g>
<g>
	<g>
		<path d="M477.742,127.997H324.268H187.727H34.256C12.474,165.655,0,209.369,0,256.003c0,46.628,12.474,90.341,34.253,127.995
			h153.474h136.541h153.478C499.529,346.344,512,302.631,512,256.003C512,209.369,499.526,165.655,477.742,127.997z
			 M180.235,289.097c9.998,9.996,9.998,26.206,0,36.204c-4.999,4.999-11.551,7.497-18.101,7.497c-6.552,0-13.104-2.5-18.101-7.497
			l-51.2-51.2c-9.998-9.996-9.998-26.206,0-36.204l51.2-51.2c9.996-9.996,26.206-9.996,36.204,0c9.998,9.996,9.998,26.206,0,36.204
			l-33.099,33.097L180.235,289.097z M289.786,209.006l-17.067,102.4c-2.087,12.522-12.933,21.395-25.221,21.395
			c-1.396,0-2.813-0.113-4.238-0.352c-13.947-2.324-23.368-15.514-21.043-29.461l17.067-102.4
			c2.323-13.947,15.512-23.383,29.461-21.043C282.69,181.872,292.111,195.059,289.786,209.006z M419.169,274.1l-51.2,51.2
			c-4.999,4.999-11.551,7.497-18.101,7.497c-6.55,0-13.104-2.5-18.101-7.497c-9.998-9.996-9.998-26.206,0-36.204l33.099-33.099
			L331.767,222.9c-9.998-9.996-9.998-26.206,0-36.204c9.996-9.996,26.206-9.996,36.204,0l51.2,51.2
			C429.168,247.892,429.168,264.102,419.169,274.1z"/>
	</g>
</g>
<g>
	<g>
		<path d="M343.751,435.2c-9.091,30.044-20.39,53.917-33.478,71.018c49.77-10.745,94.149-35.954,128.526-71.018H343.751z"/>
	</g>
</g>
<g>
	<g>
		<path d="M222.129,435.198c13.582,37.661,28.162,51.202,33.872,51.202s20.287-13.537,33.869-51.202H222.129z"/>
	</g>
</g>
<g>
	<g>
		<path d="M168.249,435.198H73.203c34.378,35.064,78.754,60.273,128.526,71.016C188.638,489.115,177.339,465.242,168.249,435.198z"
			/>
	</g>
</g>
<g>
</g>
<g>
</g>
<g>
</g>
<g>
</g>
<g>
</g>
<g>
</g>
<g>
</g>
<g>
</g>
<g>
</g>
<g>
</g>
<g>
</g>
<g>
</g>
<g>
</g>
<g>
</g>
<g>
</g>
</svg>
