<?xml version="1.0" encoding="iso-8859-1"?>
<!-- Generator: Adobe Illustrator 19.0.0, SVG Export Plug-In . SVG Version: 6.00 Build 0)  -->
<svg version="1.1" id="Layer_1" xmlns="http://www.w3.org/2000/svg" xmlns:xlink="http://www.w3.org/1999/xlink" x="0px" y="0px"
	 viewBox="0 0 512 512" style="enable-background:new 0 0 512 512;" xml:space="preserve">
<g>
	<g>
		<path d="M256,0C145.828,0,56.195,89.631,56.195,199.805c0,74.05,41.278,142.055,106.146,176.53v23.275h18.732h18.732h112.39
			h18.732h18.732v-23.275c64.868-34.476,106.146-102.481,106.146-176.53C455.805,89.631,366.174,0,256,0z M200.562,224.024
			c7.315,7.314,7.315,19.175,0,26.49c-3.656,3.656-8.451,5.486-13.245,5.486s-9.588-1.829-13.245-5.487l-37.463-37.463
			c-7.315-7.314-7.315-19.175,0-26.49l37.463-37.463c7.314-7.314,19.175-7.314,26.49,0c7.315,7.314,7.315,19.175,0,26.49
			l-24.219,24.219L200.562,224.024z M280.721,165.421l-12.488,74.927c-1.527,9.162-9.463,15.655-18.454,15.655
			c-1.021,0-2.058-0.082-3.101-0.257c-10.205-1.701-17.098-11.351-15.397-21.556l12.488-74.927
			c1.701-10.205,11.35-17.107,21.556-15.397C275.528,145.565,282.422,155.216,280.721,165.421z M375.391,213.049l-37.463,37.463
			c-3.656,3.658-8.451,5.487-13.245,5.487s-9.588-1.829-13.245-5.487c-7.315-7.314-7.315-19.175,0-26.49l24.218-24.218
			l-24.218-24.219c-7.315-7.314-7.315-19.175,0-26.49c7.314-7.314,19.175-7.314,26.49,0l37.463,37.463
			C382.708,193.874,382.708,205.735,375.391,213.049z"/>
	</g>
</g>
<g>
	<g>
		<path d="M330.927,437.073h-18.732h-112.39h-18.732h-18.732v43.707c0,10.345,8.387,18.732,18.732,18.732h32.308
			c2.574,7.27,9.491,12.488,17.643,12.488h49.951c8.152,0,15.068-5.217,17.643-12.488h32.308c10.345,0,18.732-8.387,18.732-18.732
			v-43.707H330.927z"/>
	</g>
</g>
<g>
</g>
<g>
</g>
<g>
</g>
<g>
</g>
<g>
</g>
<g>
</g>
<g>
</g>
<g>
</g>
<g>
</g>
<g>
</g>
<g>
</g>
<g>
</g>
<g>
</g>
<g>
</g>
<g>
</g>
</svg>
