<?xml version="1.0" encoding="iso-8859-1"?>
<!-- Generator: Adobe Illustrator 19.0.0, SVG Export Plug-In . SVG Version: 6.00 Build 0)  -->
<svg version="1.1" id="Layer_1" xmlns="http://www.w3.org/2000/svg" xmlns:xlink="http://www.w3.org/1999/xlink" x="0px" y="0px"
	 viewBox="0 0 512 512" style="enable-background:new 0 0 512 512;" xml:space="preserve">
<g>
	<g>
		<path d="M459.21,21.866H21.867C9.791,21.866,0,31.657,0,43.733v393.608c0,12.076,9.791,21.867,21.867,21.867h341.455
			c1.058-7.702,3.439-15.088,7.072-21.867c0.001,0,0.001-0.001,0.001-0.001c-3.633-6.779-6.015-14.166-7.073-21.866
			c-0.408-2.978-0.639-5.999-0.639-9.057c0-17.524,6.826-33.999,19.212-46.383c12.39-12.394,28.866-19.218,46.388-19.218
			c3.06,0,6.081,0.229,9.059,0.639c7.702,1.058,15.087,3.439,21.866,7.073c0.001,0,0.001,0,0.001,0
			c6.779-3.634,14.166-6.015,21.867-7.073V43.733C481.077,31.657,471.286,21.866,459.21,21.866z M284.273,109.322
			c12.076,0,21.867,9.778,21.867,21.854v0.026c0,12.076-9.791,21.867-21.867,21.867s-21.867-9.791-21.867-21.867
			S272.196,109.322,284.273,109.322z M196.804,109.322c12.076,0,21.867,9.778,21.867,21.854v0.026
			c0,12.076-9.791,21.867-21.867,21.867s-21.867-9.791-21.867-21.867S184.728,109.322,196.804,109.322z M153.07,240.538h174.937
			c12.076,0,21.867,9.791,21.867,21.867c0,12.076-9.791,21.867-21.867,21.867H153.07c-12.076,0-21.867-9.791-21.867-21.867
			C131.203,250.328,140.993,240.538,153.07,240.538z M342.585,371.74H138.492c-12.077,0-21.867-9.791-21.867-21.867
			s9.791-21.867,21.867-21.867h204.093c12.077,0,21.867,9.791,21.867,21.867S354.662,371.74,342.585,371.74z M393.608,131.202
			c0,12.076-9.791,21.867-21.867,21.867s-21.867-9.791-21.867-21.867s9.791-21.88,21.867-21.88s21.867,9.778,21.867,21.854V131.202z
			"/>
	</g>
</g>
<g>
	<g>
		<path d="M490.134,437.342l15.461-15.462c8.538-8.538,8.538-22.385,0-30.924c-4.27-4.271-9.866-6.407-15.463-6.407
			c-3.096,0-6.184,0.678-9.056,1.986c-2.318,1.055-4.497,2.513-6.406,4.419l-15.461,15.461l-0.001,0.001l-15.46-15.46
			c-1.908-1.908-4.088-3.365-6.404-4.419c-2.872-1.308-5.961-1.986-9.059-1.986c-5.595,0-11.192,2.134-15.46,6.404
			c-6.634,6.633-8.091,16.457-4.419,24.519c1.055,2.318,2.512,4.497,4.419,6.406l15.46,15.46l-0.003,0.001l-15.46,15.461
			c-1.907,1.908-3.365,4.088-4.419,6.406c-3.669,8.062-2.213,17.889,4.42,24.519c4.268,4.27,9.866,6.404,15.46,6.404
			c5.598,0,11.193-2.136,15.463-6.404l15.463-15.461l15.461,15.463c4.27,4.27,9.866,6.404,15.463,6.404
			c5.595,0,11.192-2.134,15.46-6.404c8.538-8.538,8.538-22.385,0-30.924L490.134,437.342z"/>
	</g>
</g>
<g>
</g>
<g>
</g>
<g>
</g>
<g>
</g>
<g>
</g>
<g>
</g>
<g>
</g>
<g>
</g>
<g>
</g>
<g>
</g>
<g>
</g>
<g>
</g>
<g>
</g>
<g>
</g>
<g>
</g>
</svg>
