<?xml version="1.0" encoding="iso-8859-1"?>
<!-- Generator: Adobe Illustrator 19.0.0, SVG Export Plug-In . SVG Version: 6.00 Build 0)  -->
<svg version="1.1" id="Layer_1" xmlns="http://www.w3.org/2000/svg" xmlns:xlink="http://www.w3.org/1999/xlink" x="0px" y="0px"
	 viewBox="0 0 512 512" style="enable-background:new 0 0 512 512;" xml:space="preserve">
<g>
	<g>
		<path d="M391.724,172.031c-21.26-59.375-77.766-99.759-141.887-99.759c-82.565,0-149.838,66.72-150.721,149.079
			C43.592,226.563,0,273.436,0,330.299c0,60.339,49.09,109.429,109.432,109.429h268.362c74.001,0,134.206-60.205,134.206-134.208
			C512,236.221,459.208,179.02,391.724,172.031z M322.099,297.294c0,37.507-50.433,61.987-60.542,66.513
			c-2.416,1.081-5.005,1.623-7.594,1.623c-2.589,0-5.178-0.541-7.594-1.623c-10.109-4.527-60.542-29.006-60.542-66.513v-82.59
			c0-10.263,8.32-18.583,18.583-18.583h99.107c10.263,0,18.583,8.32,18.583,18.583V297.294z"/>
	</g>
</g>
<g>
</g>
<g>
</g>
<g>
</g>
<g>
</g>
<g>
</g>
<g>
</g>
<g>
</g>
<g>
</g>
<g>
</g>
<g>
</g>
<g>
</g>
<g>
</g>
<g>
</g>
<g>
</g>
<g>
</g>
</svg>
