<?xml version="1.0" encoding="iso-8859-1"?>
<!-- Generator: Adobe Illustrator 19.0.0, SVG Export Plug-In . SVG Version: 6.00 Build 0)  -->
<svg version="1.1" id="Layer_1" xmlns="http://www.w3.org/2000/svg" xmlns:xlink="http://www.w3.org/1999/xlink" x="0px" y="0px"
	 viewBox="0 0 512 512" style="enable-background:new 0 0 512 512;" xml:space="preserve">
<g>
	<g>
		<path d="M195.011,213.308h-14.564v34.217h14.564c8.535,0,14.219-2.746,14.219-16.145v-2.101
			C209.23,215.98,203.79,213.308,195.011,213.308z"/>
	</g>
</g>
<g>
	<g>
		<path d="M505.751,6.249C501.75,2.247,496.324,0,490.665,0L21.332,0.03C9.55,0.031,0,9.58,0,21.363v469.303
			C0,502.448,9.552,512,21.333,512h469.333c11.782,0,21.333-9.552,21.333-21.333V21.333C512,15.674,509.753,10.249,505.751,6.249z
			 M242.133,230.854h-0.003c0,30.052-17.616,47.991-47.12,47.991h-14.564v36.644c0,8.538-7.225,15.225-16.449,15.225
			c-9.377,0-16.447-6.545-16.447-15.225V196.16c0-7.972,6.428-14.359,14.952-14.855c0.208-0.013,0.414-0.018,0.622-0.018h32.245
			c29.282,0,46.764,17.874,46.764,47.815V230.854z M362.887,204.208c-0.11,0.259-0.229,0.511-0.358,0.758l-35.583,67.907v42.615
			c0,8.681-7.071,15.225-16.447,15.225c-9.226,0-16.452-6.687-16.452-15.225v-42.964l-35.166-67.436
			c-1.872-3.389-2.158-6.601-2.158-8.23c0-9.62,8.809-15.572,16.973-15.572c3.51,0,10.01,1.222,14.1,9.399l22.729,45.084
			l22.876-45.134c2.962-5.924,8.1-9.35,14.07-9.35c8.164,0,16.976,5.953,16.976,15.572
			C364.447,198.242,364.244,201.037,362.887,204.208z"/>
	</g>
</g>
<g>
</g>
<g>
</g>
<g>
</g>
<g>
</g>
<g>
</g>
<g>
</g>
<g>
</g>
<g>
</g>
<g>
</g>
<g>
</g>
<g>
</g>
<g>
</g>
<g>
</g>
<g>
</g>
<g>
</g>
</svg>
