<?xml version="1.0" encoding="iso-8859-1"?>
<!-- Generator: Adobe Illustrator 19.0.0, SVG Export Plug-In . SVG Version: 6.00 Build 0)  -->
<svg version="1.1" id="Layer_1" xmlns="http://www.w3.org/2000/svg" xmlns:xlink="http://www.w3.org/1999/xlink" x="0px" y="0px"
	 viewBox="0 0 511.999 511.999" style="enable-background:new 0 0 511.999 511.999;" xml:space="preserve">
<g>
	<g>
		<path d="M491.431,375.233h-21.314h-15.394H57.276H41.882H20.568H0c8.998,37.931,43.131,66.241,83.772,66.241h344.454
			c40.643,0,74.774-28.31,83.772-66.241H491.431z"/>
	</g>
</g>
<g>
	<g>
		<path d="M454.723,70.524H57.276c-10.975,0-19.872,8.897-19.872,19.872v245.092h19.872h19.872H434.85h19.872h19.872V90.397
			C474.595,79.422,465.697,70.524,454.723,70.524z M183.134,249.375c0,10.975-8.898,19.872-19.872,19.872
			c-10.975,0-19.872-8.898-19.872-19.872v-52.993c0-10.975,8.898-19.872,19.872-19.872c10.975,0,19.872,8.898,19.872,19.872V249.375
			z M289.12,236.127c0,18.263-14.858,33.121-33.121,33.121s-33.121-14.858-33.121-33.121v-26.496
			c0-18.263,14.858-33.121,33.121-33.121s33.121,14.858,33.121,33.121V236.127z M368.609,249.375
			c0,10.975-8.898,19.872-19.872,19.872c-10.975,0-19.872-8.898-19.872-19.872v-52.993c0-10.975,8.897-19.872,19.872-19.872
			c10.975,0,19.872,8.898,19.872,19.872V249.375z"/>
	</g>
</g>
<g>
</g>
<g>
</g>
<g>
</g>
<g>
</g>
<g>
</g>
<g>
</g>
<g>
</g>
<g>
</g>
<g>
</g>
<g>
</g>
<g>
</g>
<g>
</g>
<g>
</g>
<g>
</g>
<g>
</g>
</svg>
