<?xml version="1.0" encoding="iso-8859-1"?>
<!-- Generator: Adobe Illustrator 19.0.0, SVG Export Plug-In . SVG Version: 6.00 Build 0)  -->
<svg version="1.1" id="Layer_1" xmlns="http://www.w3.org/2000/svg" xmlns:xlink="http://www.w3.org/1999/xlink" x="0px" y="0px"
	 viewBox="0 0 512 512" style="enable-background:new 0 0 512 512;" xml:space="preserve">
<g>
	<g>
		<path d="M488.727,0H23.273C10.42,0,0,10.42,0,23.273v465.455C0,501.58,10.42,512,23.273,512h465.455
			C501.58,512,512,501.58,512,488.727V23.273C512,10.42,501.58,0,488.727,0z M372.364,356.849H139.636
			c-12.853,0-23.273-10.42-23.273-23.273c0-12.853,10.42-23.273,23.273-23.273h232.727c12.853,0,23.273,10.42,23.273,23.273
			C395.636,346.429,385.216,356.849,372.364,356.849z"/>
	</g>
</g>
<g>
</g>
<g>
</g>
<g>
</g>
<g>
</g>
<g>
</g>
<g>
</g>
<g>
</g>
<g>
</g>
<g>
</g>
<g>
</g>
<g>
</g>
<g>
</g>
<g>
</g>
<g>
</g>
<g>
</g>
</svg>
