<?xml version="1.0" encoding="iso-8859-1"?>
<!-- Generator: Adobe Illustrator 19.0.0, SVG Export Plug-In . SVG Version: 6.00 Build 0)  -->
<svg version="1.1" id="Layer_1" xmlns="http://www.w3.org/2000/svg" xmlns:xlink="http://www.w3.org/1999/xlink" x="0px" y="0px"
	 viewBox="0 0 512.001 512.001" style="enable-background:new 0 0 512.001 512.001;" xml:space="preserve">
<g>
	<g>
		<path d="M17.869,170.251c-7.97,2.204-14.166,8.476-16.274,16.47c-2.107,7.994,0.192,16.506,6.036,22.353l27.231,27.228
			c2.37-4.93,5.355-9.659,8.97-14.079l4.415-5.395l32.65-39.907l25.495-31.158L17.869,170.251z"/>
	</g>
</g>
<g>
	<g>
		<path d="M335.496,431.51l-39.914,32.654l-5.397,4.416c-4.346,3.555-9.096,6.538-14.114,8.931l27.273,27.27
			c4.415,4.415,10.349,6.806,16.43,6.806c1.973,0,3.964-0.251,5.922-0.768c7.994-2.107,14.266-8.304,16.47-16.272l24.488-88.531
			L335.496,431.51z"/>
	</g>
</g>
<g>
	<g>
		<path d="M510.133,23.529c-0.936-11.323-9.923-20.315-21.247-21.247c-1.281-0.104-23.168-1.868-53.597-1.868
			c-12.696,0-26.877,0.307-41.672,1.169c-71.151,4.15-120.093,19.118-145.466,44.489c-0.548,0.548-1.066,1.12-1.555,1.718
			L183.995,124.3l-25.492,31.158l-25.495,31.159L96.056,231.78l-14.787,18.072l-1.47,1.798c-0.064,0.077-0.115,0.161-0.178,0.239
			c-0.342,0.429-0.666,0.866-0.973,1.31c-0.074,0.108-0.153,0.214-0.226,0.324c-0.342,0.513-0.657,1.038-0.951,1.571
			c-0.101,0.183-0.197,0.369-0.293,0.556c-0.204,0.39-0.395,0.787-0.573,1.187c-0.088,0.195-0.18,0.387-0.263,0.584
			c-0.209,0.499-0.403,1.005-0.578,1.523l-0.071,0.214l-0.037,0.112L71.162,272.6l10.185,10.183l0.008,0.009l8.146,8.146
			l18.339,18.339l31.22,31.218l16.429-16.427l16.43-16.429l72.251-72.251c9.072-9.074,23.785-9.074,32.859,0
			c9.074,9.072,9.074,23.785,0,32.859l-72.251,72.251l-16.43,16.429l-16.427,16.427l47.909,47.91l9.793,9.793l8.546,8.544
			l5.53-1.863c0.784,0.081,1.572,0.125,2.359,0.125c5.197,0,10.409-1.735,14.708-5.253l1.798-1.472l18.072-14.787l45.17-36.956
			l31.158-25.492l31.158-25.495l76.506-62.595c0.596-0.49,1.171-1.007,1.715-1.555c25.372-25.372,40.342-74.314,44.492-145.466
			C513.761,68.541,510.282,25.344,510.133,23.529z M367.176,176.216c-17.109,0-30.98-13.871-30.98-30.983
			c0-17.107,13.871-30.977,30.98-30.977c17.112,0,30.98,13.868,30.98,30.98C398.155,162.345,384.287,176.216,367.176,176.216z"/>
	</g>
</g>
<g>
	<g>
		<path d="M170.669,437.833l-18.334-18.339l-24.754-24.754l-36.31-36.31l-18.339-18.339l-18.339-18.339v0.002L1.218,480.108
			c-2.819,8.366-0.655,17.607,5.587,23.85c4.429,4.429,10.367,6.806,16.432,6.806c2.482,0,4.989-0.398,7.418-1.218l158.353-53.377
			L170.669,437.833z"/>
	</g>
</g>
<g>
</g>
<g>
</g>
<g>
</g>
<g>
</g>
<g>
</g>
<g>
</g>
<g>
</g>
<g>
</g>
<g>
</g>
<g>
</g>
<g>
</g>
<g>
</g>
<g>
</g>
<g>
</g>
<g>
</g>
</svg>
