<?xml version="1.0" encoding="iso-8859-1"?>
<!-- Generator: Adobe Illustrator 19.0.0, SVG Export Plug-In . SVG Version: 6.00 Build 0)  -->
<svg version="1.1" id="Layer_1" xmlns="http://www.w3.org/2000/svg" xmlns:xlink="http://www.w3.org/1999/xlink" x="0px" y="0px"
	 viewBox="0 0 512 512" style="enable-background:new 0 0 512 512;" xml:space="preserve">
<g>
	<g>
		<path d="M138.315,165.808c12.987,7.43,32.971,13.424,56.501,17.345c2.499-13.863,5.694-26.753,9.536-38.278
			c4.724-14.171,10.017-25.036,15.544-33.344C187.044,120.273,158.543,139.673,138.315,165.808z"/>
	</g>
</g>
<g>
	<g>
		<path d="M189.811,222.82c-29.133-4.74-54.103-12.469-71.593-22.545c-0.001-0.001-0.003-0.001-0.004-0.001
			c-7.614,18.169-11.824,38.118-11.824,59.051c0,20.933,4.212,40.883,11.825,59.053c17.49-10.078,42.46-17.807,71.596-22.547
			c-0.923-11.86-1.414-24.08-1.414-36.505C188.397,246.902,188.886,234.68,189.811,222.82z"/>
	</g>
</g>
<g>
	<g>
		<path d="M204.353,373.774c-3.842-11.525-7.038-24.415-9.536-38.278c-23.529,3.922-43.515,9.917-56.498,17.348
			c20.226,26.133,48.728,45.532,81.578,54.273C214.37,398.81,209.076,387.945,204.353,373.774z"/>
	</g>
</g>
<g>
	<g>
		<path d="M259.325,330.377c-8.344,0-16.621,0.254-24.737,0.732c1.648,8.685,3.593,16.887,5.838,24.418
			c7.566,25.38,15.787,34.663,18.899,36.558c3.112-1.895,11.33-11.175,18.896-36.557c2.245-7.531,4.189-15.732,5.837-24.419
			C275.943,330.631,267.668,330.377,259.325,330.377z"/>
	</g>
</g>
<g>
	<g>
		<path d="M298.753,111.532c5.527,8.308,10.818,19.173,15.543,33.344c3.841,11.525,7.036,24.415,9.534,38.278
			c23.531-3.924,43.515-9.919,56.497-17.352C360.101,139.671,331.604,120.273,298.753,111.532z"/>
	</g>
</g>
<g>
	<g>
		<path d="M289.169,227.222c-9.729,0.618-19.706,0.944-29.849,0.944c-10.142,0-20.116-0.326-29.844-0.944
			c-0.778,10.433-1.185,21.19-1.185,32.103c0,10.912,0.407,21.669,1.185,32.1c9.729-0.618,19.705-0.944,29.849-0.944
			c10.142,0,20.117,0.326,29.844,0.944c0.778-10.431,1.185-21.189,1.185-32.1C290.354,248.412,289.947,237.655,289.169,227.222z"/>
	</g>
</g>
<g>
	<g>
		<path d="M278.221,163.121c-7.566-25.382-15.784-34.662-18.896-36.557c-3.112,1.895-11.334,11.177-18.899,36.558
			c-2.245,7.532-4.189,15.732-5.838,24.418c8.115,0.477,16.388,0.731,24.732,0.731s16.621-0.254,24.738-0.731
			C282.412,178.854,280.466,170.652,278.221,163.121z"/>
	</g>
</g>
<g>
	<g>
		<path d="M400.432,200.266c-0.001,0.001-0.001,0.003-0.003,0.003c-17.489,10.08-42.459,17.81-71.593,22.551
			c0.923,11.86,1.414,24.081,1.414,36.508c0,12.425-0.489,24.645-1.414,36.504c29.133,4.74,54.099,12.466,71.592,22.543
			c0.003,0.001,0.005,0.004,0.008,0.004c7.614-18.169,11.824-38.117,11.824-59.05C412.26,238.391,408.047,218.439,400.432,200.266z"
			/>
	</g>
</g>
<g>
	<g>
		<path d="M323.832,335.496c-2.499,13.863-5.693,26.753-9.535,38.278c-4.725,14.171-10.015,25.036-15.543,33.344
			c32.852-8.741,61.353-28.141,81.579-54.274C367.344,345.412,347.36,339.418,323.832,335.496z"/>
	</g>
</g>
<g>
	<g>
		<path d="M277.59,7.316c-4.77-4.519-11.191-7.314-18.264-7.314c-14.667,0-26.599,11.93-26.599,26.596s11.932,26.597,26.599,26.597
			c6.361,0,12.203-2.249,16.784-5.99c109.511,8.587,195.994,100.441,195.994,212.119c0,117.328-95.453,212.779-212.779,212.779
			c-111.68,0-203.532-86.483-212.119-195.994c3.737-4.581,5.988-10.424,5.988-16.784c0-14.666-11.932-26.597-26.597-26.597
			S0,244.658,0,259.324c0,7.075,2.794,13.495,7.314,18.264c9.393,130.834,118.828,234.41,252.011,234.41
			C398.65,511.999,512,398.65,512,259.324C512,126.142,408.421,16.707,277.59,7.316z"/>
	</g>
</g>
<g>
</g>
<g>
</g>
<g>
</g>
<g>
</g>
<g>
</g>
<g>
</g>
<g>
</g>
<g>
</g>
<g>
</g>
<g>
</g>
<g>
</g>
<g>
</g>
<g>
</g>
<g>
</g>
<g>
</g>
</svg>
