<?xml version="1.0" encoding="iso-8859-1"?>
<!-- Generator: Adobe Illustrator 19.0.0, SVG Export Plug-In . SVG Version: 6.00 Build 0)  -->
<svg version="1.1" id="Layer_1" xmlns="http://www.w3.org/2000/svg" xmlns:xlink="http://www.w3.org/1999/xlink" x="0px" y="0px"
	 viewBox="0 0 512 512" style="enable-background:new 0 0 512 512;" xml:space="preserve">
<g>
	<g>
		<path d="M383.009,174.605h-6.757c-20.624-56.688-74.746-95.193-136.125-95.193c-79.355,0-144.013,64.127-144.863,143.286
			C41.898,227.706,0,272.757,0,327.411c0,57.994,47.184,105.177,105.179,105.177h277.83c71.125,0,128.991-57.866,128.991-128.992
			C512,232.469,454.134,174.605,383.009,174.605z M215.047,330.656c6.975,6.974,6.975,18.283,0,25.258
			c-3.488,3.488-8.059,5.232-12.629,5.232c-4.57,0-9.142-1.744-12.629-5.232l-35.721-35.721c-6.975-6.974-6.975-18.283,0-25.258
			l35.721-35.721c6.974-6.974,18.283-6.974,25.258,0c6.975,6.974,6.975,18.283,0,25.258l-23.092,23.092L215.047,330.656z
			 M291.478,274.78l-11.907,71.442c-1.456,8.736-9.023,14.927-17.596,14.927c-0.974,0-1.962-0.079-2.956-0.245
			c-9.73-1.622-16.303-10.823-14.681-20.554l11.907-71.442c1.622-9.73,10.822-16.309,20.554-14.681
			C286.527,255.848,293.1,265.05,291.478,274.78z M381.745,320.193l-35.721,35.721c-3.488,3.488-8.057,5.232-12.629,5.232
			c-4.571,0-9.142-1.744-12.628-5.232c-6.975-6.974-6.975-18.283,0-25.258l23.091-23.092l-23.091-23.092
			c-6.975-6.974-6.975-18.283,0-25.258c6.974-6.974,18.283-6.974,25.258,0l35.721,35.721
			C388.721,301.91,388.721,313.22,381.745,320.193z"/>
	</g>
</g>
<g>
</g>
<g>
</g>
<g>
</g>
<g>
</g>
<g>
</g>
<g>
</g>
<g>
</g>
<g>
</g>
<g>
</g>
<g>
</g>
<g>
</g>
<g>
</g>
<g>
</g>
<g>
</g>
<g>
</g>
</svg>
