<?xml version="1.0" encoding="iso-8859-1"?>
<!-- Generator: Adobe Illustrator 19.0.0, SVG Export Plug-In . SVG Version: 6.00 Build 0)  -->
<svg version="1.1" id="Layer_1" xmlns="http://www.w3.org/2000/svg" xmlns:xlink="http://www.w3.org/1999/xlink" x="0px" y="0px"
	 viewBox="0 0 512 512" style="enable-background:new 0 0 512 512;" xml:space="preserve">
<g>
	<g>
		<path d="M402.286,190.171H277.943v-47.66c25.54-9.058,43.886-33.448,43.886-62.054c0-36.298-29.532-65.829-65.829-65.829
			s-65.829,29.531-65.829,65.829c0,28.606,18.346,52.996,43.886,62.054v47.66H109.714c-12.118,0-21.943,9.825-21.943,21.943v65.829
			v21.943v21.943v43.886v21.943V409.6v65.829c0,12.118,9.825,21.943,21.943,21.943h292.571c12.118,0,21.943-9.825,21.943-21.943
			V409.6v-21.943v-21.943v-43.886v-21.943v-21.943v-65.829C424.229,199.996,414.404,190.171,402.286,190.171z M204.8,277.943
			c16.131,0,29.257,13.125,29.257,29.257s-13.126,29.257-29.257,29.257s-29.257-13.125-29.257-29.257S188.669,277.943,204.8,277.943
			z M314.514,409.6H197.486c-12.118,0-21.943-9.825-21.943-21.943c0-12.118,9.825-21.943,21.943-21.943h117.029
			c12.118,0,21.943,9.825,21.943,21.943C336.457,399.775,326.633,409.6,314.514,409.6z M307.2,336.457
			c-16.131,0-29.257-13.125-29.257-29.257s13.126-29.257,29.257-29.257c16.131,0,29.257,13.125,29.257,29.257
			S323.331,336.457,307.2,336.457z"/>
	</g>
</g>
<g>
	<g>
		<path d="M21.943,277.943C9.825,277.943,0,287.767,0,299.886v87.771C0,399.775,9.825,409.6,21.943,409.6h21.943v-21.943v-21.943
			v-43.886v-21.943v-21.943H21.943z"/>
	</g>
</g>
<g>
	<g>
		<path d="M490.057,277.943h-21.943v21.943v21.943v43.886v21.943V409.6h21.943c12.118,0,21.943-9.825,21.943-21.943v-87.771
			C512,287.767,502.175,277.943,490.057,277.943z"/>
	</g>
</g>
<g>
</g>
<g>
</g>
<g>
</g>
<g>
</g>
<g>
</g>
<g>
</g>
<g>
</g>
<g>
</g>
<g>
</g>
<g>
</g>
<g>
</g>
<g>
</g>
<g>
</g>
<g>
</g>
<g>
</g>
</svg>
