<?xml version="1.0" encoding="iso-8859-1"?>
<!-- Generator: Adobe Illustrator 16.0.0, SVG Export Plug-In . SVG Version: 6.00 Build 0)  -->
<!DOCTYPE svg PUBLIC "-//W3C//DTD SVG 1.1//EN" "http://www.w3.org/Graphics/SVG/1.1/DTD/svg11.dtd">
<svg version="1.1" id="Capa_1" xmlns="http://www.w3.org/2000/svg" xmlns:xlink="http://www.w3.org/1999/xlink" x="0px" y="0px"
	 width="552.389px" height="552.389px" viewBox="0 0 552.389 552.389" style="enable-background:new 0 0 552.389 552.389;"
	 xml:space="preserve">
<g>
	<path d="M371.692,130.476c21.373-17.8,28.727-54.666-4.314-60.96c-11.443-2.178-16.326,15.318-4.829,17.51
		c11.88,2.27,11.343,10.9,6.177,20.203c-3.487,6.295-10.22,12.983-17.638,14.671c-16.396-5.881-33.674-9.9-51.596-11.777
		c16.485-17.54,30.399-39.972,31.02-64.218c0.769-30.354-32.532-46.801-59.092-45.867c-21.873,0.774-40.48,18.702-42.762,40.285
		c-2.426,22.922,15.259,37.874,37.448,34.912c11.435-1.524,11.579-19.7,0-18.157c-13.565,1.812-22.121-4.17-18.775-18.489
		c3.62-15.459,19.236-22.286,33.856-19.89c54.107,8.854,23.229,62.045-1.323,85.425c-1.566,1.49-2.397,3.147-2.675,4.793
		c-0.334,0-0.659-0.023-0.993-0.023c-122.462,0-221.746,99.274-221.746,221.742c0,122.471,99.283,221.754,221.746,221.754
		c122.462,0,221.745-99.271,221.745-221.742C497.94,242.379,446.351,166.163,371.692,130.476z M149.089,288.09
		c0-30.083,24.385-54.471,54.474-54.471c30.089,0,54.474,24.388,54.474,54.471c0,30.091-24.385,54.473-54.474,54.473
		C173.475,342.563,149.089,318.181,149.089,288.09z M279.437,493.376c-41.78,0-75.655-26.415-75.655-59.013
		c0-32.592,33.875-40.855,75.655-40.855c41.783,0,75.657,8.264,75.657,40.855C355.094,466.961,321.22,493.376,279.437,493.376z
		 M359.114,342.563c-30.092,0-54.474-24.382-54.474-54.473c0-30.083,24.382-54.471,54.474-54.471
		c30.086,0,54.474,24.388,54.474,54.471C413.587,318.181,389.2,342.563,359.114,342.563z"/>
</g>
<g>
</g>
<g>
</g>
<g>
</g>
<g>
</g>
<g>
</g>
<g>
</g>
<g>
</g>
<g>
</g>
<g>
</g>
<g>
</g>
<g>
</g>
<g>
</g>
<g>
</g>
<g>
</g>
<g>
</g>
</svg>
