<?xml version="1.0" encoding="iso-8859-1"?>
<!-- Generator: Adobe Illustrator 16.0.0, SVG Export Plug-In . SVG Version: 6.00 Build 0)  -->
<!DOCTYPE svg PUBLIC "-//W3C//DTD SVG 1.1//EN" "http://www.w3.org/Graphics/SVG/1.1/DTD/svg11.dtd">
<svg version="1.1" id="Capa_1" xmlns="http://www.w3.org/2000/svg" xmlns:xlink="http://www.w3.org/1999/xlink" x="0px" y="0px"
	 width="90.709px" height="90.709px" viewBox="0 0 90.709 90.709" style="enable-background:new 0 0 90.709 90.709;"
	 xml:space="preserve">
<g>
	<path d="M35.286,40.063c2.98,1.823,6.443,2.854,10.043,2.854v45.39c-5.563-0.121-11.831-0.772-18.725-2.218V63.17
		c0-0.898-0.729-1.628-1.628-1.628s-1.628,0.729-1.628,1.628v22.193c-0.002,0-0.004,0-0.006,0v0.009
		c0,2.532-2.053,4.587-4.586,4.587c-2.533,0-4.587-2.055-4.587-4.587v-2.868v-2.708V63.518c0-4.427,1.247-8.562,3.391-12.095
		l0.508,0.765c0.889,1.34,2.381,2.139,3.99,2.139c0.942,0,1.856-0.276,2.643-0.801l8.623-5.727c1.065-0.708,1.791-1.787,2.044-3.04
		c0.252-1.253,0.002-2.529-0.706-3.594l-0.521-0.784c0.446-0.066,0.889-0.144,1.343-0.185
		C35.416,40.154,35.352,40.108,35.286,40.063z M18.535,51.876l-0.948-1.427l0.188-0.277c3.564-5.272,8.933-8.857,15.117-10.094
		l0.329-0.066l0.972,1.463c0.624,0.941,0.845,2.067,0.622,3.173c-0.222,1.104-0.863,2.058-1.803,2.683l-8.622,5.728
		c-0.696,0.463-1.502,0.705-2.333,0.705C20.636,53.764,19.319,53.059,18.535,51.876z M18.792,50.457l0.576,0.865
		c0.599,0.902,1.604,1.441,2.689,1.441c0.633,0,1.249-0.187,1.779-0.539l8.622-5.728c0.718-0.478,1.207-1.204,1.376-2.048
		c0.17-0.843,0.002-1.703-0.474-2.421l-0.6-0.902C27.082,42.348,22.143,45.647,18.792,50.457z M58.142,40.159
		c6.182,1.332,11.5,4.99,14.979,10.302l0.181,0.275l-1.145,1.721c-0.784,1.182-2.1,1.887-3.521,1.887
		c-0.83,0-1.637-0.242-2.332-0.705l-8.623-5.729c-0.939-0.624-1.58-1.577-1.803-2.683c-0.223-1.104-0.002-2.23,0.622-3.171
		l1.308-1.97L58.142,40.159z M58.263,41.21l-0.93,1.398c-0.477,0.718-0.645,1.578-0.475,2.421c0.17,0.844,0.658,1.571,1.377,2.047
		l8.623,5.729c0.529,0.354,1.146,0.539,1.779,0.539c1.084,0,2.088-0.539,2.688-1.439l0.777-1.17
		C68.83,45.887,63.937,42.52,58.263,41.21z M28.148,16.183h-4.044c0-6.462,4.929-12.043,12.067-14.663v6.189
		c0,0.833,0.675,1.509,1.51,1.509c0.833,0,1.508-0.676,1.508-1.509V0.625C40.546,0.312,41.96,0.1,43.418,0v9.721
		c0,1.258,1.02,2.277,2.277,2.277c1.258,0,2.279-1.02,2.279-2.277V0.057c1.457,0.139,2.868,0.389,4.219,0.74v6.912
		c0,0.833,0.676,1.509,1.51,1.509c0.833,0,1.509-0.676,1.509-1.509v-5.92c6.763,2.72,11.378,8.144,11.378,14.395h-4.045
		c0.695,1.934,1.094,4.009,1.094,6.181c0,3.282-0.871,6.354-2.387,9.013c-0.059,0.106-0.125,0.208-0.186,0.312
		c-0.104,0.173-0.207,0.347-0.314,0.517c-3.232,5.119-8.919,8.533-15.423,8.533c-7.283,0-13.552-4.274-16.484-10.44h0.026
		c-1.161-2.397-1.814-5.087-1.814-7.934C27.055,20.192,27.453,18.117,28.148,16.183z M46.167,19.981
		c0,2.039,1.652,3.691,3.691,3.691h7.138c2.039,0,3.69-1.652,3.69-3.691v-3.69c0-0.037-0.01-0.071-0.011-0.107H46.177
		c-0.001,0.036-0.01,0.07-0.01,0.107V19.981z M30.003,19.981c0,2.039,1.653,3.691,3.692,3.691h7.137
		c2.039,0,3.691-1.652,3.691-3.691v-3.69c0-0.037-0.009-0.071-0.011-0.107H30.014c-0.001,0.036-0.01,0.07-0.01,0.107L30.003,19.981
		L30.003,19.981z M76.526,79.548v-16.03c0-4.299-1.185-8.316-3.213-11.783l-0.688,1.033c-0.889,1.34-2.38,2.139-3.988,2.139
		c-0.943,0-1.857-0.276-2.644-0.801l-8.623-5.728c-1.065-0.707-1.791-1.787-2.044-3.039c-0.252-1.254-0.002-2.529,0.706-3.595
		l0.874-1.314c-0.559-0.092-1.121-0.182-1.692-0.233c0.048-0.03,0.093-0.062,0.138-0.094c-2.97,1.813-6.414,2.814-10.023,2.814
		h1.789V88.34c0.082,0,0.169,0.006,0.251,0.006c6.342,0,11.692-0.67,15.964-1.527V63.795c0-0.898,0.729-1.628,1.628-1.628
		s1.628,0.729,1.628,1.628v15.889v6.049v0.347c0.012-0.003,0.021-0.007,0.034-0.009c0.177,2.588,2.31,4.639,4.942,4.639
		c2.748,0,4.975-2.229,4.975-4.977v-6.049C76.54,79.639,76.528,79.596,76.526,79.548z"/>
</g>
<g>
</g>
<g>
</g>
<g>
</g>
<g>
</g>
<g>
</g>
<g>
</g>
<g>
</g>
<g>
</g>
<g>
</g>
<g>
</g>
<g>
</g>
<g>
</g>
<g>
</g>
<g>
</g>
<g>
</g>
</svg>
