<?xml version="1.0" encoding="iso-8859-1"?>
<!-- Generator: Adobe Illustrator 18.1.1, SVG Export Plug-In . SVG Version: 6.00 Build 0)  -->
<svg version="1.1" id="Capa_1" xmlns="http://www.w3.org/2000/svg" xmlns:xlink="http://www.w3.org/1999/xlink" x="0px" y="0px"
	 viewBox="0 0 51.804 51.804" style="enable-background:new 0 0 51.804 51.804;" xml:space="preserve">
<g>
	<path style="fill:#010002;" d="M29.254,10.556l-0.006-0.004c-2.071-1.147-4.715-1.141-6.791,0.034
		c-6.597,1.989-10.837,8.211-10.661,12.789c0.069,1.786,0.857,4.266,4.227,5.952c0.279,0.14,0.578,0.21,0.887,0.21
		c0.757,0,1.438-0.421,1.777-1.099c0.87-1.741,0.17-2.416-0.325-2.663c-1.329-0.666-1.996-1.5-2.036-2.552
		c-0.069-1.789,1.024-4.132,2.666-5.826l1.043,10.358c-0.043,0.127-0.082,0.248-0.121,0.371c-0.027,0.026-0.05,0.053-0.064,0.08
		c-0.519,0.975-0.573,3.656-0.573,3.656s0.051,0.033,0.123,0.08c-0.003,0.05-0.015,0.098-0.015,0.148l1.124,17.34
		c0,1.309,1.065,2.373,2.376,2.373c1.308,0,2.374-1.064,2.374-2.387l-0.468-14.441c0.457,0.186,0.849,0.305,1.119,0.309
		c0.289,0.004,0.716-0.119,1.215-0.318l-0.468,14.465c0,1.31,1.064,2.373,2.374,2.373c1.311,0,2.376-1.063,2.375-2.35l1.127-17.39
		c0-0.031-0.009-0.062-0.01-0.093c0.005-0.002,0.021-0.014,0.021-0.014s0.447-2.308-0.938-3.518
		c-0.08-0.061-0.168-0.116-0.261-0.171c-0.171-1.772,0.353-6.126,1.364-10.978c1.698,1.708,2.836,4.103,2.766,5.929
		c-0.04,1.052-0.705,1.886-2.035,2.552c-0.495,0.247-1.195,0.922-0.326,2.663c0.34,0.678,1.021,1.099,1.777,1.099
		c0.311,0,0.609-0.07,0.888-0.21c3.37-1.687,4.158-4.166,4.228-5.952C40.185,18.759,35.909,12.516,29.254,10.556z M22.886,51.011
		c-0.872,0-1.581-0.709-1.582-1.607l-1.1-16.947c0.958,0.603,2.487,1.527,3.782,2.156l0.48,14.818
		C24.466,50.302,23.757,51.011,22.886,51.011z M31.71,32.488l-1.096,16.943c0,0.871-0.709,1.58-1.582,1.58
		c-0.871,0-1.581-0.709-1.581-1.568l0.48-14.834C29.245,33.982,30.783,33.062,31.71,32.488z M35.426,28.615
		c-0.168,0.084-0.346,0.126-0.533,0.126c-0.455,0-0.863-0.252-1.066-0.657c-0.293-0.59-0.537-1.345-0.029-1.6
		c1.613-0.806,2.422-1.862,2.474-3.231c0.088-2.27-1.382-5.172-3.574-7.058l-0.671-0.576l0.016,0.883
		c0,0.03,0.002,0.061,0.004,0.092v0.016c-0.236,1.113-1.662,7.959-1.48,11.312c-2.615-0.922-7.601-0.74-9.73-0.187l-1.12-11.119
		l0.024-0.964l-0.677,0.588c-2.162,1.878-3.613,4.762-3.526,7.014c0.052,1.369,0.861,2.425,2.474,3.231
		c0.508,0.255,0.263,1.01-0.03,1.599c-0.203,0.406-0.611,0.658-1.067,0.658c-0.185,0-0.364-0.042-0.531-0.126
		c-3.022-1.512-3.729-3.7-3.79-5.271c-0.161-4.203,3.964-10.17,10.139-12.012l0.084-0.036c1.845-1.06,4.204-1.073,6.05-0.05
		l0.191-0.347l-0.153,0.368l0.089,0.039c6.228,1.815,10.386,7.801,10.224,12.039C39.154,24.914,38.448,27.103,35.426,28.615z
		 M29.559,21.262l0.012,0.398c-0.062,0.001-0.124,0.002-0.186,0.002c-1.25,0-2.204-0.379-2.834-1.128
		c-0.284-0.337-0.475-0.72-0.606-1.111c-0.131,0.39-0.322,0.774-0.606,1.111c-0.631,0.749-1.584,1.128-2.835,1.128
		c-0.062,0-0.123-0.001-0.186-0.002l0.012-0.398c1.204,0.042,2.124-0.294,2.704-0.983c0.431-0.511,0.628-1.157,0.709-1.758
		c-0.081-0.637-0.041-1.213,0.001-1.551c-0.019-0.144-0.035-0.23-0.036-0.234l0.072-0.014c0.006-0.032,0.011-0.057,0.012-0.064
		l0.152,0.031l0.153-0.031c0.002,0.007,0.006,0.032,0.012,0.064l0.072,0.014c-0.001,0.004-0.018,0.09-0.036,0.234
		c0.042,0.339,0.081,0.914,0.001,1.553c0.082,0.6,0.278,1.246,0.709,1.756C27.435,20.968,28.338,21.305,29.559,21.262z
		 M24.781,15.222l-2.541-1.191l0.169-0.36l2.541,1.191L24.781,15.222z M29.479,13.639L29.647,14l-2.542,1.188l-0.168-0.361
		L29.479,13.639z M26.185,23.595h1.422v0.397h-1.422v1.416h-0.398v-1.416H24.38v-0.397h1.407v-1.414h0.398V23.595z M21.483,1.73
		c0.332-0.331,2.056,0.456,2.056,0.456S22.039,1.4,22.291,0c3.055,2.434,4.527,2.186,4.527,2.186h1.372
		c2.218,0,2.208,1.797,2.208,4.014v1.004h-0.301l-0.976-2.772h-5.872L22.61,7.204h-0.478C22.133,7.204,22.233,3.002,21.483,1.73z"/>
</g>
<g>
</g>
<g>
</g>
<g>
</g>
<g>
</g>
<g>
</g>
<g>
</g>
<g>
</g>
<g>
</g>
<g>
</g>
<g>
</g>
<g>
</g>
<g>
</g>
<g>
</g>
<g>
</g>
<g>
</g>
</svg>
