<?xml version="1.0" encoding="iso-8859-1"?>
<!-- Generator: Adobe Illustrator 16.0.0, SVG Export Plug-In . SVG Version: 6.00 Build 0)  -->
<!DOCTYPE svg PUBLIC "-//W3C//DTD SVG 1.1//EN" "http://www.w3.org/Graphics/SVG/1.1/DTD/svg11.dtd">
<svg version="1.1" id="Capa_1" xmlns="http://www.w3.org/2000/svg" xmlns:xlink="http://www.w3.org/1999/xlink" x="0px" y="0px"
	 width="500.193px" height="500.193px" viewBox="0 0 500.193 500.193" style="enable-background:new 0 0 500.193 500.193;"
	 xml:space="preserve">
<g>
	<path d="M282.961,265.523l-17.732,37.853h-21.063l-18.309-37.853c0-3.617,2.941-6.549,6.573-6.549h43.982
		C280.018,258.975,282.961,261.906,282.961,265.523z M263.255,307.324h-17.721c-0.686,0-1.265,0.532-1.304,1.218l-8.532,130.61
		c-0.012,0.289,0.06,0.562,0.198,0.786l17.073,26.911c0.236,0.385,0.645,0.609,1.088,0.609c0,0,0.012,0,0.023,0
		c0.438,0,0.827-0.201,1.088-0.585l18.37-26.888c0.166-0.249,0.261-0.545,0.225-0.846l-9.186-130.599
		C264.52,307.856,263.952,307.324,263.255,307.324z M419.57,365.244v103.208l-0.709-0.012l-6.644,3.381
		c-3.357,1.69-57.583,28.372-151.139,28.372c-47.892,0-106.098-6.987-173.085-27.911l-7.104-2.223l-0.266-1.607V365.244
		c0-70.185,57.113-127.279,127.292-127.279h84.35C362.461,237.965,419.57,295.065,419.57,365.244z M406.011,365.244
		c0-62.707-51.021-113.723-113.746-113.723h-84.35c-62.722,0-113.732,51.016-113.732,113.723v89.648l-0.039,3.15
		c192.032,59.982,310.472,1.07,311.654,0.461l0.206-3.623v-89.637H406.011z M148.503,113.661
		c-9.017-12.318-13.781-26.826-13.781-42.097C134.722,32.102,166.832,0,206.29,0h87.618c39.467,0,71.568,32.107,71.568,71.564
		c0,12.232-3.175,24.297-9.215,35.004c-0.012,12.256-2.441,22.6-7.022,30.842c-2.949,52.254-46.134,93.769-99.142,93.769
		c-54.896,0-99.418-44.511-99.418-99.419c0-1.679,0.139-3.312,0.248-4.953C149.744,122.752,148.89,118.39,148.503,113.661z
		 M148.281,71.564c0,12.936,4.217,25.192,12.2,35.45l1.292,1.664l0.118,2.095c1.386,23.593,13.645,35.559,36.458,35.559h107.605
		c24.376,0,36.741-13.394,36.741-39.815c0-0.635-0.012-1.064-0.036-1.386l-0.094-2.057l1.052-1.773
		c5.438-9.02,8.299-19.302,8.299-29.743c0-31.974-26.02-58.008-58.009-58.008H206.29C174.312,13.557,148.281,39.591,148.281,71.564z
		 M325.672,116.155l3.937-12.982c-71.691-21.716-150.254-6.476-153.553-5.805l2.651,13.284
		C179.487,110.514,257.226,95.406,325.672,116.155z M109.808,353.251v77.963c6.786,30.5,58.753,31.635,58.753,31.635V281.176
		C117.72,298.352,109.808,353.251,109.808,353.251z M328.994,281.176v181.667c0,0,51.968-1.141,58.753-31.641v-77.951
		C387.747,353.251,379.839,298.352,328.994,281.176z"/>
</g>
<g>
</g>
<g>
</g>
<g>
</g>
<g>
</g>
<g>
</g>
<g>
</g>
<g>
</g>
<g>
</g>
<g>
</g>
<g>
</g>
<g>
</g>
<g>
</g>
<g>
</g>
<g>
</g>
<g>
</g>
</svg>
