<?xml version="1.0" encoding="iso-8859-1"?>
<!-- Generator: Adobe Illustrator 16.0.0, SVG Export Plug-In . SVG Version: 6.00 Build 0)  -->
<!DOCTYPE svg PUBLIC "-//W3C//DTD SVG 1.1//EN" "http://www.w3.org/Graphics/SVG/1.1/DTD/svg11.dtd">
<svg version="1.1" id="Capa_1" xmlns="http://www.w3.org/2000/svg" xmlns:xlink="http://www.w3.org/1999/xlink" x="0px" y="0px"
	 width="94.404px" height="94.404px" viewBox="0 0 94.404 94.404" style="enable-background:new 0 0 94.404 94.404;"
	 xml:space="preserve">
<g>
	<path d="M78.217,68.195V86.08l-0.029,0.488c0,0.141-0.024,0.265-0.034,0.397v3.08c0,2.407-1.951,4.358-4.359,4.358
		c-2.406,0-4.356-1.951-4.356-4.358v-0.479c-0.063-0.055-0.137-0.104-0.194-0.162l-3.102-24.438h-0.621v26.318
		c-4.316,0.894-9.787,1.604-16.309,1.604c-5.414,0-11.555-0.492-18.344-1.77V64.968h-1.24c0,0-2.48,18.894-2.48,24.379
		c0,0.851-0.342,1.425-0.896,1.779c-0.482,1.882-2.175,3.278-4.207,3.278c-2.407,0-4.357-1.951-4.357-4.357v-1.458
		c-0.615-0.69-0.985-1.448-0.952-2.213c0.2-4.653-0.049-0.293-0.049-0.293l-0.5-17.886c0-12.533,9.953-22.783,22.371-23.271
		c-0.006,0.09-0.021,0.179-0.021,0.271c0,3.59,4.515,6.5,10.083,6.5c5.56,0,10.067-2.901,10.083-6.482
		C69.754,47.025,78.217,56.639,78.217,68.195z M23.951,28.5v-8.074c0-0.829,0.672-1.5,1.5-1.5h1.39C27.964,8.203,37.078,0,48.201,0
		c11.123,0,20.237,8.203,21.36,18.926h1.39c0.828,0,1.5,0.671,1.5,1.5V28.5c0,0.829-0.672,1.5-1.5,1.5h-3.597
		c-1.465,9.433-9.461,16.401-19.153,16.401S30.515,39.433,29.049,30h-3.598C24.623,30,23.951,29.329,23.951,28.5z M31.541,30
		c1.434,8.033,8.338,13.92,16.66,13.92c8.324,0,15.229-5.887,16.662-13.92H31.541z"/>
</g>
<g>
</g>
<g>
</g>
<g>
</g>
<g>
</g>
<g>
</g>
<g>
</g>
<g>
</g>
<g>
</g>
<g>
</g>
<g>
</g>
<g>
</g>
<g>
</g>
<g>
</g>
<g>
</g>
<g>
</g>
</svg>
