<?xml version="1.0" encoding="iso-8859-1"?>
<!-- Generator: Adobe Illustrator 18.1.1, SVG Export Plug-In . SVG Version: 6.00 Build 0)  -->
<svg version="1.1" id="Capa_1" xmlns="http://www.w3.org/2000/svg" xmlns:xlink="http://www.w3.org/1999/xlink" x="0px" y="0px"
	 viewBox="0 0 55.467 55.467" style="enable-background:new 0 0 55.467 55.467;" xml:space="preserve">
<g>
	<g>
		<ellipse style="fill:#010002;" cx="27.407" cy="27.574" rx="10.33" ry="13.919"/>
		<path style="fill:#010002;" d="M30.57,21.436c4.953,1.823,8.389,5.863,8.778,11.199c0.324,4.391,7.19,4.461,6.865,0.049
			c-0.633-8.608-5.806-14.916-13.831-17.869c-1.757-0.648-3.752,0.717-4.215,2.404C27.64,19.141,28.82,20.791,30.57,21.436z"/>
		<path style="fill:#010002;" d="M23.103,14.411c-7.999,2.946-13.216,9.223-13.849,17.824c-0.326,4.427,6.542,4.434,6.866,0.05
			c0.392-5.342,3.783-9.412,8.759-11.245c1.756-0.646,2.945-2.271,2.428-4.204C26.854,15.155,24.861,13.765,23.103,14.411z"/>
		<path style="fill:#010002;" d="M29.12,35.412c0.019,5.207,0.604,10.625-0.458,15.765c-0.895,4.32,5.725,6.146,6.62,1.811
			c1.196-5.774,0.726-11.676,0.704-17.524C35.971,31.029,29.106,30.989,29.12,35.412z"/>
		<path style="fill:#010002;" d="M19.434,35.412c-0.021,5.856-0.499,11.775,0.698,17.559c0.898,4.34,7.523,2.537,6.63-1.779
			c-1.062-5.128-0.48-10.529-0.462-15.729C26.314,31.027,19.45,30.989,19.434,35.412z"/>
		<path style="fill:#010002;" d="M34.216,3.037C34.216,1.36,32.931,0,31.346,0c-0.654,0-1.255,0.233-1.736,0.623
			C28.804,0.228,27.902,0,26.944,0c-1.077,0-2.086,0.284-2.964,0.775C23.474,0.294,22.805,0,22.07,0c-1.585,0-2.87,1.36-2.87,3.037
			c0,1.229,0.691,2.285,1.684,2.762C20.88,5.891,20.87,5.981,20.87,6.073c0,3.354,2.72,6.074,6.074,6.074s6.072-2.72,6.072-6.074
			c0-0.185-0.01-0.368-0.025-0.548C33.731,4.975,34.216,4.067,34.216,3.037z"/>
	</g>
</g>
<g>
</g>
<g>
</g>
<g>
</g>
<g>
</g>
<g>
</g>
<g>
</g>
<g>
</g>
<g>
</g>
<g>
</g>
<g>
</g>
<g>
</g>
<g>
</g>
<g>
</g>
<g>
</g>
<g>
</g>
</svg>
