<?xml version="1.0" encoding="iso-8859-1"?>
<!-- Generator: Adobe Illustrator 18.1.1, SVG Export Plug-In . SVG Version: 6.00 Build 0)  -->
<svg version="1.1" id="Capa_1" xmlns="http://www.w3.org/2000/svg" xmlns:xlink="http://www.w3.org/1999/xlink" x="0px" y="0px"
	 viewBox="0 0 60.277 60.277" style="enable-background:new 0 0 60.277 60.277;" xml:space="preserve">
<g>
	<path style="fill:#010002;" d="M45.48,18.756c-0.978,3.234-2.377,6.363-3.786,9.429c-0.768,1.666-2.96,1.525-4.146,0.534
		c-1.589-1.329-3.278-2.707-4.88-4.18c-2.344,3.42-4.689,6.841-7.035,10.26c-0.921,1.345-2.247,2.294-3.705,2.645
		c0,6.441,0,12.883,0,19.322c0,4.681-7.258,4.681-7.258,0c0-7.771,0-15.543,0-23.314c0-0.724,0.174-1.335,0.468-1.835
		c0.035-0.851,0.276-1.689,0.781-2.426c3.52-5.132,7.04-10.265,10.558-15.396c1.729-2.52,4.863-3.67,7.662-2.053
		c2.493,1.44,3.784,5.139,2.054,7.662c-0.178,0.258-0.354,0.517-0.533,0.775c0.887,0.848,1.825,1.659,2.763,2.444
		c0.739-1.727,1.425-3.478,1.967-5.271C41.373,14.104,46.47,15.489,45.48,18.756z M36.329,10.37c2.864,0,5.185-2.321,5.185-5.185
		S39.193,0,36.329,0s-5.185,2.321-5.185,5.185S33.465,10.37,36.329,10.37z"/>
</g>
<g>
</g>
<g>
</g>
<g>
</g>
<g>
</g>
<g>
</g>
<g>
</g>
<g>
</g>
<g>
</g>
<g>
</g>
<g>
</g>
<g>
</g>
<g>
</g>
<g>
</g>
<g>
</g>
<g>
</g>
</svg>
