<?xml version="1.0" encoding="iso-8859-1"?>
<!-- Generator: Adobe Illustrator 16.0.0, SVG Export Plug-In . SVG Version: 6.00 Build 0)  -->
<!DOCTYPE svg PUBLIC "-//W3C//DTD SVG 1.1//EN" "http://www.w3.org/Graphics/SVG/1.1/DTD/svg11.dtd">
<svg version="1.1" id="Capa_1" xmlns="http://www.w3.org/2000/svg" xmlns:xlink="http://www.w3.org/1999/xlink" x="0px" y="0px"
	 width="94.745px" height="94.744px" viewBox="0 0 94.745 94.744" style="enable-background:new 0 0 94.745 94.744;"
	 xml:space="preserve">
<g>
	<path d="M26.936,24.573h2.312c-1.229,1.3-1.987,3.049-1.987,4.975c0,2.671,1.454,5.004,3.609,6.265
		c2.877,9.253,13.498,12.303,16.502,12.303c1.964,0,13.303-3.04,16.43-12.258c2.196-1.249,3.684-3.606,3.684-6.31
		c0-1.926-0.758-3.675-1.986-4.975h2.311c1.246,0,2.256-1.01,2.256-2.257c0-1.246-1.01-2.256-2.256-2.256h-5.11V8.333
		C62.699,3.731,58.967,0,54.364,0H40.379c-4.602,0-8.333,3.731-8.333,8.333V20.06h-5.11c-1.246,0-2.256,1.01-2.256,2.256
		C24.681,23.563,25.689,24.573,26.936,24.573z M34.518,25.003h6.352c2.506,0,4.545,2.039,4.545,4.545
		c0,2.506-2.039,4.544-4.545,4.544h-6.352c-2.506,0-4.544-2.039-4.544-4.544C29.974,27.043,32.013,25.003,34.518,25.003z
		 M60.227,34.093h-6.353c-2.506,0-4.545-2.039-4.545-4.544c0-2.505,2.039-4.545,4.545-4.545h6.353c2.506,0,4.543,2.039,4.543,4.545
		C64.77,32.055,62.733,34.093,60.227,34.093z M47.373,26.344c-0.322-0.652-0.737-1.248-1.232-1.771h2.465
		C48.109,25.096,47.695,25.692,47.373,26.344z M76.748,71.354v17.889l-0.123-0.001l-1.153,0.585
		c-0.58,0.294-9.979,4.918-26.195,4.918c-8.302,0-18.391-1.212-30-4.838l-1.233-0.385l-0.046-0.279V71.354
		c0-12.164,9.898-22.063,22.063-22.063h0.337c-0.309,0.276-0.586,0.613-0.825,0.987h-1.974c0,0,0.568,0.287,1.44,1.006
		c-0.469,1.062-0.708,2.193-0.708,2.913c0,2.12,1.725,3.844,3.845,3.844h2.014c2.274,4.474,4.263,11.29,4.263,21.481
		c0,0,0.795-12.817,3.783-21.481h0.335c2.12,0,3.845-1.724,3.845-3.844c0-0.658-0.201-1.661-0.594-2.64
		c0.863-0.813,1.822-1.279,2.888-1.279h-3.535c-0.239-0.374-0.517-0.709-0.825-0.987h0.336C66.85,49.29,76.748,59.189,76.748,71.354
		z M45.887,50.064l-1.743-0.774H50.6l-2.131,0.947C47.644,49.909,46.731,49.852,45.887,50.064z M42.176,50.238l3.636,1.615
		c0.342-0.142,0.716-0.223,1.109-0.223c0.545,0,1.048,0.159,1.483,0.42c0.033-0.001,0.061-0.005,0.096-0.005l4.07-1.809
		c1.374,0,2.487,2.923,2.487,4.296s-1.113,2.486-2.487,2.486H48.5c-0.035,0-0.063-0.002-0.096-0.004
		c-0.436,0.262-0.938,0.42-1.483,0.42c-0.541,0-1.042-0.157-1.476-0.416h-3.27c-1.374,0-2.487-1.113-2.487-2.486
		S40.802,50.238,42.176,50.238z"/>
</g>
<g>
</g>
<g>
</g>
<g>
</g>
<g>
</g>
<g>
</g>
<g>
</g>
<g>
</g>
<g>
</g>
<g>
</g>
<g>
</g>
<g>
</g>
<g>
</g>
<g>
</g>
<g>
</g>
<g>
</g>
</svg>
