<?xml version="1.0" encoding="iso-8859-1"?>
<!-- Generator: Adobe Illustrator 16.0.0, SVG Export Plug-In . SVG Version: 6.00 Build 0)  -->
<!DOCTYPE svg PUBLIC "-//W3C//DTD SVG 1.1//EN" "http://www.w3.org/Graphics/SVG/1.1/DTD/svg11.dtd">
<svg version="1.1" id="Capa_1" xmlns="http://www.w3.org/2000/svg" xmlns:xlink="http://www.w3.org/1999/xlink" x="0px" y="0px"
	 width="567.834px" height="567.835px" viewBox="0 0 567.834 567.835" style="enable-background:new 0 0 567.834 567.835;"
	 xml:space="preserve">
<g>
	<path d="M209.519,253.885v-146.17h-0.479c18.988-19.526,45.498-31.694,74.883-31.694c29.38,0,55.89,12.173,74.881,31.694h-0.485
		v146.176c-18.949,19.222-45.265,31.161-74.396,31.161C254.792,285.052,228.468,273.106,209.519,253.885z M328.257,292.175h-88.683
		c-73.781,0-133.811,60.029-133.811,133.813v108.475l0.278,1.69l7.483,2.341c70.403,21.987,131.588,29.341,181.939,29.341
		c98.354,0,155.358-28.053,158.881-29.826l6.987-3.546h0.738V425.988C462.071,352.204,402.042,292.175,328.257,292.175z
		 M198.823,249.115V123.57c-4.46,0-8.813,0.479-13.019,1.356v-4.17c0-55.81,45.407-101.225,101.231-101.225
		c55.815,0,101.228,45.416,101.228,101.225v5.828c-6.07-1.954-12.543-3.021-19.257-3.021v125.55
		c34.672,0,62.777-28.103,62.777-62.778c0-20.023-9.392-37.834-23.991-49.328v-16.246C407.792,54.178,353.62,0,287.036,0
		c-66.591,0-120.757,54.178-120.757,120.763v11.893c-18.128,11.018-30.233,30.937-30.233,53.688
		C136.051,221.012,164.154,249.115,198.823,249.115z"/>
</g>
<g>
</g>
<g>
</g>
<g>
</g>
<g>
</g>
<g>
</g>
<g>
</g>
<g>
</g>
<g>
</g>
<g>
</g>
<g>
</g>
<g>
</g>
<g>
</g>
<g>
</g>
<g>
</g>
<g>
</g>
</svg>
