<?xml version="1.0" encoding="iso-8859-1"?>
<!-- Generator: Adobe Illustrator 16.0.0, SVG Export Plug-In . SVG Version: 6.00 Build 0)  -->
<!DOCTYPE svg PUBLIC "-//W3C//DTD SVG 1.1//EN" "http://www.w3.org/Graphics/SVG/1.1/DTD/svg11.dtd">
<svg version="1.1" id="Capa_1" xmlns="http://www.w3.org/2000/svg" xmlns:xlink="http://www.w3.org/1999/xlink" x="0px" y="0px"
	 width="94.816px" height="94.815px" viewBox="0 0 94.816 94.815" style="enable-background:new 0 0 94.816 94.815;"
	 xml:space="preserve">
<g>
	<path d="M82.636,66.764v21.453h-0.145l-1.381,0.699c-0.699,0.354-11.974,5.899-31.42,5.899c-9.958,0-22.057-1.453-35.979-5.804
		l-1.479-0.461l-0.054-0.336V66.764c0-12.116,8.191-22.348,19.324-25.471c4.294,3.647,9.843,5.86,15.904,5.86
		c6.063,0,11.611-2.213,15.905-5.86C74.447,44.417,82.636,54.647,82.636,66.764z M22.634,21.65v-6.293
		c0-2.501,2.033-4.534,4.532-4.534h1.029C32.078,4.348,39.141,0,47.238,0C55.336,0,62.4,4.349,66.283,10.823h1.367
		c2.498,0,4.531,2.033,4.531,4.534v6.293c0,1.983-1.286,3.653-3.062,4.269c-1.767,10.504-10.875,18.516-21.881,18.516
		c-11.048,0-20.187-8.076-21.898-18.642C23.749,25.088,22.634,23.5,22.634,21.65z M42.594,13.464H27.166
		c-1.044,0-1.893,0.85-1.893,1.894v6.293c0,1.044,0.849,1.894,1.893,1.894h15.428c1.045,0,1.895-0.85,1.895-1.894v-4.467h5.838
		v4.467c0,1.044,0.851,1.894,1.895,1.894h15.43c1.043,0,1.892-0.85,1.892-1.894v-6.293c0-1.044-0.849-1.894-1.892-1.894H52.22
		c-0.971,0-1.773,0.735-1.868,1.711l-0.116,1.193h-5.657l-0.116-1.193C44.368,14.199,43.564,13.464,42.594,13.464z"/>
</g>
<g>
</g>
<g>
</g>
<g>
</g>
<g>
</g>
<g>
</g>
<g>
</g>
<g>
</g>
<g>
</g>
<g>
</g>
<g>
</g>
<g>
</g>
<g>
</g>
<g>
</g>
<g>
</g>
<g>
</g>
</svg>
