<?xml version="1.0" encoding="iso-8859-1"?>
<!-- Generator: Adobe Illustrator 18.1.1, SVG Export Plug-In . SVG Version: 6.00 Build 0)  -->
<svg version="1.1" id="Capa_1" xmlns="http://www.w3.org/2000/svg" xmlns:xlink="http://www.w3.org/1999/xlink" x="0px" y="0px"
	 viewBox="0 0 60.67 60.67" style="enable-background:new 0 0 60.67 60.67;" xml:space="preserve">
<g>
	<g>
		<path style="fill:#010002;" d="M18.224,36.897c-1.873,0-1.889,2.901-0.022,2.901C20.075,39.799,20.092,36.897,18.224,36.897z"/>
		<path style="fill:#010002;" d="M30.757,40.57c0.206,0,0.373-0.167,0.373-0.374c0-0.206-0.373-0.587-0.373-0.587
			s-0.376,0.381-0.376,0.587C30.381,40.403,30.55,40.57,30.757,40.57z"/>
		<path style="fill:#010002;" d="M28.523,42.104c0,0.206,0.167,0.373,0.372,0.373c0.207,0,0.375-0.167,0.375-0.373
			s-0.375-0.588-0.375-0.588S28.523,41.897,28.523,42.104z"/>
		<path style="fill:#010002;" d="M28.441,40.192c0.253,0,0.454-0.203,0.454-0.454s-0.454-0.714-0.454-0.714
			s-0.454,0.463-0.454,0.714S28.191,40.192,28.441,40.192z"/>
		<path style="fill:#010002;" d="M60.333,53.759L32.652,4.315c-0.471-0.838-1.355-1.357-2.316-1.357s-1.847,0.519-2.316,1.357
			L0.339,53.759c-0.46,0.821-0.451,1.825,0.025,2.639c0.478,0.813,1.349,1.313,2.29,1.313h55.363c0.941,0,1.813-0.5,2.288-1.313
			C60.782,55.584,60.792,54.58,60.333,53.759z M31.462,34.518c-0.743,1.026-1.455,2.617-1.455,2.617s1.699-2.651,6.045-0.712v-0.002
			c1.546,0.772,2.224,2.384,2.224,2.384s2.639,5.313,0.384,8.657c-1.83,2.891-6.617,3.203-8.591,3.203
			c-0.67,0-1.097-0.036-1.097-0.036c-0.036-0.002-0.07-0.004-0.104-0.004h-7.01c0.006-0.617,0.018-1.23,0.062-1.845
			c0.611-0.646,1.146-1.347,1.574-2.112c0.201,0.182,0.394,0.373,0.574,0.58c0.117,0.133,0.269,0.212,0.433,0.252
			c0.158,0.071,0.347,0.093,0.562,0.04c0.941-0.23,1.837-0.6,2.739-0.952c0.442-0.172,0.743-0.576,0.608-1.068
			c-0.115-0.423-0.628-0.782-1.07-0.608c-0.692,0.269-1.382,0.549-2.09,0.769c-0.249-0.264-0.518-0.512-0.802-0.743
			c-0.042-0.12-0.102-0.24-0.188-0.362c-0.603-0.866-1.207-1.731-1.809-2.595c0.666,0.101,1.336,0.18,2.01,0.234
			c1.116,0.094,1.109-1.647,0-1.739c-1.195-0.099-2.37-0.285-3.54-0.549c-0.055-0.012-0.109-0.02-0.161-0.021
			c-1.024-0.472-2.164,0.28-2.124,1.497c-0.094,0.394-0.212,0.78-0.371,1.15c-0.564-0.091-1.127-0.181-1.69-0.272
			c-0.466-0.079-0.936,0.113-1.07,0.605c-0.116,0.422,0.138,0.993,0.606,1.071c0.796,0.131,1.59,0.256,2.385,0.388
			c0.43,0.069,0.856-0.092,1.027-0.501c0.058-0.054,0.109-0.115,0.145-0.191c0.06-0.12,0.115-0.243,0.167-0.366
			c0.641,0.918,1.283,1.837,1.924,2.756c0.017,0.024,0.036,0.048,0.054,0.071c-0.354,0.569-0.782,1.095-1.256,1.575
			c-0.078,0.081-0.136,0.167-0.176,0.253c-0.091,0.126-0.157,0.275-0.174,0.46c-0.068,0.741-0.085,1.481-0.09,2.225H8.176
			l22.16-39.581l10.432,18.63c-1.375-1.137-2.849-1.714-4.41-1.714l-0.001,0.012c-6.101,0.107-9.05,7.022-9.25,7.396
			c-0.317,0.594-1.343,3.485-1.343,3.485S29.368,34.595,31.462,34.518z"/>
	</g>
</g>
<g>
</g>
<g>
</g>
<g>
</g>
<g>
</g>
<g>
</g>
<g>
</g>
<g>
</g>
<g>
</g>
<g>
</g>
<g>
</g>
<g>
</g>
<g>
</g>
<g>
</g>
<g>
</g>
<g>
</g>
</svg>
