<?xml version="1.0" encoding="iso-8859-1"?>
<!-- Generator: Adobe Illustrator 19.0.0, SVG Export Plug-In . SVG Version: 6.00 Build 0)  -->
<svg xmlns="http://www.w3.org/2000/svg" xmlns:xlink="http://www.w3.org/1999/xlink" version="1.1" id="Capa_1" x="0px" y="0px" viewBox="0 0 512 512" style="enable-background:new 0 0 512 512;" xml:space="preserve">
<g>
	<g>
		<path d="M308.601,5.397c72.501,55.847,134.789,159.769,134.12,259.457c4.643-8.105,8.874-16.746,12.651-25.945    c8.638-21.034,31.255-32.092,52.956-26.45C490.701,108.996,410.63,26.596,308.601,5.397z"/>
	</g>
</g>
<g>
	<g>
		<path d="M483.124,250.303c-30.927,75.326-87.49,115.99-150.417,124.247c-49.995,6.56-100.65-7.935-136.985-37.974    c46.301-5.832,53.174-33.697,103.299-19.913c27.537,7.579,48.296-25.301,29.632-46.907c-43.08-49.884-83.385-43.412-115.77-38.212    c-20.924,3.36-38.478,6.163-57.033-3.479l69.745-39.59c4.694-2.665,7.595-7.647,7.595-13.045v-22.359    c0-5.827-3.375-11.127-8.656-13.592l-60.864-28.412V15.001c0-6.214-3.831-11.784-9.634-14.007    c-5.803-2.224-12.375-0.638-16.527,3.985l-66.767,74.35c-10.073,10.558-19.143,21.845-27.167,33.733    c-10.73-17.326-8.24-39.203,4.782-53.706l13.32-14.833L26.16,4.978C22.007,0.356,15.437-1.229,9.633,0.994    C3.831,3.217,0,8.788,0,15.001v241C0,397.503,114.509,512,256,512c141.503,0,256-114.509,256-255.999    C512,239.71,489.359,235.119,483.124,250.303z"/>
	</g>
</g>
<g>
	<g>
		<path d="M240.03,0.496c-15.975,0.969-31.648,3.415-46.958,7.285c0.802,4.86,0.598-0.137,0.598,84.182l43.554,20.332    c15.773,7.363,25.966,23.369,25.966,40.776c0,22.937,1.411,32.321-6.355,45.366c35.838,2.684,66.849,19.668,94.522,51.711    c28.541,33.039,12.318,83.638-28.299,95.288c30.476-2.824,59.887-14.89,84.339-36.526    C438.452,181.365,328.109,31.382,240.03,0.496z"/>
	</g>
</g>
<g>
</g>
<g>
</g>
<g>
</g>
<g>
</g>
<g>
</g>
<g>
</g>
<g>
</g>
<g>
</g>
<g>
</g>
<g>
</g>
<g>
</g>
<g>
</g>
<g>
</g>
<g>
</g>
<g>
</g>
</svg>
