<?xml version="1.0" encoding="iso-8859-1"?>
<!-- Generator: Adobe Illustrator 19.0.0, SVG Export Plug-In . SVG Version: 6.00 Build 0)  -->
<svg xmlns="http://www.w3.org/2000/svg" xmlns:xlink="http://www.w3.org/1999/xlink" version="1.1" id="Capa_1" x="0px" y="0px" viewBox="0 0 512 512" style="enable-background:new 0 0 512 512;" xml:space="preserve">
<g>
	<g>
		<path d="M298.341,290.958L212.167,185.44c-8.908-10.907-26.618-4.55-26.618,9.488V301.14c0,8.272,6.713,15,14.999,15    c0.151,0,0.304-0.002,0.455-0.007c28.239-0.855,57.008-1.088,85.51-0.688C299.198,315.66,306.402,300.828,298.341,290.958z"/>
	</g>
</g>
<g>
	<g>
		<path d="M474.955,345.981c-86.26-10.675-181.312-14.764-274.877-11.826c-8.097,0.254-14.529,6.892-14.529,14.993v12.423    c0,8.284,6.716,15,15,15h8.993v17.987h-65.974v-17.987h8.993c8.284,0,15-6.716,15-15v-10.312c0-8.625-7.257-15.459-15.858-14.976    c-39.225,2.249-77.697,5.769-114.349,10.462c-10.18,1.303-16.074,12.241-11.574,21.458C67.506,453.692,155.087,512,256,512    c101.233,0,189.026-58.675,230.615-144.598C491.087,358.164,485.146,347.241,474.955,345.981z"/>
	</g>
</g>
<g>
	<g>
		<path d="M256,0C114.382,0,0,114.406,0,256c0,21.346,2.633,42.591,7.825,63.146c1.871,7.411,9.01,12.215,16.557,11.19    c41.163-5.577,84.57-9.665,129.018-12.151c7.946-0.444,14.162-7.018,14.162-14.977V150.429c0-8.284-6.716-15-15-15h-8.993v-17.987    h49.878L300.03,247.537c8.907,10.869,26.558,4.539,26.604-9.457l0.288-87.603c0.013-3.987-1.562-7.815-4.376-10.639    c-2.814-2.824-6.638-4.411-10.624-4.411h-9.463V117.44h65.974v17.987h-8.524c-8.269,0-14.978,6.691-15,14.959l-0.416,152.438    c-0.021,7.996,6.231,14.603,14.216,15.021c44.443,2.327,87.907,6.255,129.185,11.676c7.563,0.998,14.664-3.845,16.508-11.244    C509.442,298.046,512,277.093,512,256C512,114.382,397.593,0,256,0z"/>
	</g>
</g>
<g>
</g>
<g>
</g>
<g>
</g>
<g>
</g>
<g>
</g>
<g>
</g>
<g>
</g>
<g>
</g>
<g>
</g>
<g>
</g>
<g>
</g>
<g>
</g>
<g>
</g>
<g>
</g>
<g>
</g>
</svg>
