<?xml version="1.0" encoding="iso-8859-1"?>
<!-- Generator: Adobe Illustrator 19.0.0, SVG Export Plug-In . SVG Version: 6.00 Build 0)  -->
<svg version="1.1" id="Layer_1" xmlns="http://www.w3.org/2000/svg" xmlns:xlink="http://www.w3.org/1999/xlink" x="0px" y="0px"
	 viewBox="0 0 512 512" style="enable-background:new 0 0 512 512;" xml:space="preserve">
<g>
	<g>
		<g>
			<path d="M221.867,443.733c-4.702,0-8.533,3.831-8.533,8.533c0,4.702,3.831,8.533,8.533,8.533c4.702,0,8.533-3.831,8.533-8.533
				C230.4,447.565,226.569,443.733,221.867,443.733z"/>
			<path d="M290.133,443.733c-4.702,0-8.533,3.831-8.533,8.533c0,4.702,3.831,8.533,8.533,8.533c4.702,0,8.533-3.831,8.533-8.533
				C298.667,447.565,294.835,443.733,290.133,443.733z"/>
			<path d="M153.6,443.733c-4.702,0-8.533,3.831-8.533,8.533c0,4.702,3.831,8.533,8.533,8.533c4.702,0,8.533-3.831,8.533-8.533
				C162.133,447.565,158.302,443.733,153.6,443.733z"/>
			<path d="M358.4,443.733c-4.702,0-8.533,3.831-8.533,8.533c0,4.702,3.831,8.533,8.533,8.533c4.702,0,8.533-3.831,8.533-8.533
				C366.933,447.565,363.102,443.733,358.4,443.733z"/>
			<path d="M85.333,443.733c-4.702,0-8.533,3.831-8.533,8.533c0,4.702,3.831,8.533,8.533,8.533c4.702,0,8.533-3.831,8.533-8.533
				C93.867,447.565,90.035,443.733,85.333,443.733z"/>
			<path d="M494.933,392.849v-30.353c0-10.266-7.356-18.833-17.067-20.745V8.533c0-4.71-3.823-8.533-8.533-8.533H298.667v42.667
				h25.6c3.678,0,6.929,2.347,8.098,5.837l15.121,45.363h2.381C368.691,93.867,384,109.175,384,128s-15.309,34.133-34.133,34.133
				H162.133C143.309,162.133,128,146.825,128,128s15.309-34.133,34.133-34.133h2.381l15.121-45.363
				c1.161-3.49,4.42-5.837,8.098-5.837h25.6V0H42.667c-4.71,0-8.533,3.823-8.533,8.533v333.218
				c-9.711,1.911-17.067,10.479-17.067,20.745v30.353C7.424,394.377,0,402.68,0,412.74v79.044C0,502.938,9.062,512,20.207,512
				h471.578c11.145,0,20.215-9.062,20.215-20.207V412.74C512,402.68,504.576,394.377,494.933,392.849z M162.133,196.267h187.733
				c18.825,0,34.133,15.309,34.133,34.133s-15.309,34.133-34.133,34.133h-2.381l-15.121,45.363c-1.169,3.49-4.42,5.837-8.098,5.837
				h-25.6v25.6H281.6v-25.6h-51.2v25.6h-17.067v-25.6h-25.6c-3.678,0-6.938-2.347-8.098-5.837l-15.121-45.363h-2.381
				c-18.825,0-34.133-15.309-34.133-34.133S143.309,196.267,162.133,196.267z M85.333,477.867c-14.114,0-25.6-11.486-25.6-25.6
				c0-14.114,11.486-25.6,25.6-25.6s25.6,11.486,25.6,25.6C110.933,466.381,99.447,477.867,85.333,477.867z M153.6,477.867
				c-14.114,0-25.6-11.486-25.6-25.6c0-14.114,11.486-25.6,25.6-25.6c14.114,0,25.6,11.486,25.6,25.6
				C179.2,466.381,167.714,477.867,153.6,477.867z M221.867,477.867c-14.114,0-25.6-11.486-25.6-25.6
				c0-14.114,11.486-25.6,25.6-25.6s25.6,11.486,25.6,25.6C247.467,466.381,235.981,477.867,221.867,477.867z M290.133,477.867
				c-14.114,0-25.6-11.486-25.6-25.6c0-14.114,11.486-25.6,25.6-25.6s25.6,11.486,25.6,25.6
				C315.733,466.381,304.247,477.867,290.133,477.867z M358.4,477.867c-14.114,0-25.6-11.486-25.6-25.6
				c0-14.114,11.486-25.6,25.6-25.6s25.6,11.486,25.6,25.6C384,466.381,372.514,477.867,358.4,477.867z M426.667,477.867
				c-14.114,0-25.6-11.486-25.6-25.6c0-14.114,11.486-25.6,25.6-25.6s25.6,11.486,25.6,25.6
				C452.267,466.381,440.781,477.867,426.667,477.867z M477.867,392.533H34.133v-30.037c0-2.261,1.835-4.096,4.096-4.096h4.437
				h179.2h68.267h179.2h4.437c2.261,0,4.096,1.835,4.096,4.096V392.533z"/>
			<path d="M426.667,443.733c-4.702,0-8.533,3.831-8.533,8.533c0,4.702,3.831,8.533,8.533,8.533c4.702,0,8.533-3.831,8.533-8.533
				C435.2,447.565,431.369,443.733,426.667,443.733z"/>
			<path d="M162.133,110.933c-9.412,0-17.067,7.654-17.067,17.067c0,9.412,7.654,17.067,17.067,17.067h187.733
				c9.412,0,17.067-7.654,17.067-17.067c0-9.412-7.654-17.067-17.067-17.067h-8.533H170.667H162.133z"/>
			<rect x="230.399" width="51.2" height="42.667"/>
			<polygon points="182.504,93.867 329.499,93.867 318.116,59.733 290.135,59.733 221.868,59.733 193.879,59.733 			"/>
			<path d="M162.133,247.467h8.533h170.667h8.533c9.412,0,17.067-7.654,17.067-17.067c0-9.412-7.654-17.067-17.067-17.067H162.133
				c-9.412,0-17.067,7.654-17.067,17.067C145.067,239.812,152.721,247.467,162.133,247.467z"/>
			<polygon points="193.883,298.667 221.864,298.667 290.131,298.667 318.12,298.667 329.495,264.533 182.508,264.533 			"/>
		</g>
	</g>
</g>
<g>
</g>
<g>
</g>
<g>
</g>
<g>
</g>
<g>
</g>
<g>
</g>
<g>
</g>
<g>
</g>
<g>
</g>
<g>
</g>
<g>
</g>
<g>
</g>
<g>
</g>
<g>
</g>
<g>
</g>
</svg>
