<?xml version="1.0" encoding="iso-8859-1"?>
<!-- Generator: Adobe Illustrator 19.0.0, SVG Export Plug-In . SVG Version: 6.00 Build 0)  -->
<svg version="1.1" id="Layer_1" xmlns="http://www.w3.org/2000/svg" xmlns:xlink="http://www.w3.org/1999/xlink" x="0px" y="0px"
	 viewBox="0 0 512 512" style="enable-background:new 0 0 512 512;" xml:space="preserve">
<g>
	<g>
		<path d="M338.773,426.667h-14.507v-31.573c0-11.093-8.533-19.627-19.627-19.627h-5.973V343.04c0-10.24-8.533-18.773-18.773-18.773
			h-48.64c-9.387,0-17.92,8.533-17.92,18.773v32.427h-5.973c-11.093,0-19.627,8.533-19.627,19.627v31.573h-14.507
			c-11.093,0-19.627,8.533-19.627,19.627V512h204.8v-65.707C358.4,435.2,349.867,426.667,338.773,426.667z"/>
	</g>
</g>
<g>
	<g>
		<path d="M458.24,0h-28.16c-11.947,0-20.48,8.533-20.48,19.627v23.04H307.2V8.533c0-5.12-3.413-8.533-8.533-8.533h-85.333
			c-5.12,0-8.533,3.413-8.533,8.533v34.133H102.4v-23.04C102.4,8.533,93.867,0,82.773,0H53.76C42.667,0,34.133,8.533,34.133,19.627
			V512H102.4V102.4h102.4v34.133c0,5.12,3.413,8.533,8.533,8.533H230.4v17.067c0,11.093,6.827,20.48,17.067,23.893V204.8
			c0,5.12,3.413,8.533,8.533,8.533c5.12,0,8.533-3.413,8.533-8.533v-18.773c10.24-3.413,17.067-12.8,17.067-23.893v-17.067h17.067
			c5.12,0,8.533-3.413,8.533-8.533V102.4h102.4V512h68.267V19.627C477.867,8.533,469.333,0,458.24,0z M204.8,85.333H102.4v-25.6
			h102.4V85.333z M264.533,162.133c0,5.12-3.413,8.533-8.533,8.533c-5.12,0-8.533-3.413-8.533-8.533v-17.067h17.067V162.133z
			 M409.6,85.333H307.2v-25.6h102.4V85.333z"/>
	</g>
</g>
<g>
</g>
<g>
</g>
<g>
</g>
<g>
</g>
<g>
</g>
<g>
</g>
<g>
</g>
<g>
</g>
<g>
</g>
<g>
</g>
<g>
</g>
<g>
</g>
<g>
</g>
<g>
</g>
<g>
</g>
</svg>
