<?xml version="1.0" encoding="iso-8859-1"?>
<!-- Generator: Adobe Illustrator 19.0.0, SVG Export Plug-In . SVG Version: 6.00 Build 0)  -->
<svg version="1.1" id="Layer_1" xmlns="http://www.w3.org/2000/svg" xmlns:xlink="http://www.w3.org/1999/xlink" x="0px" y="0px"
	 viewBox="0 0 512 512" style="enable-background:new 0 0 512 512;" xml:space="preserve">
<g>
	<g>
		<rect x="204.8" y="349.867" width="17.067" height="25.6"/>
	</g>
</g>
<g>
	<g>
		<rect x="290.133" y="349.867" width="17.067" height="25.6"/>
	</g>
</g>
<g>
	<g>
		<rect x="290.133" y="426.667" width="17.067" height="25.6"/>
	</g>
</g>
<g>
	<g>
		<rect x="204.8" y="426.667" width="17.067" height="25.6"/>
	</g>
</g>
<g>
	<g>
		<rect x="59.733" y="349.867" width="85.333" height="51.2"/>
	</g>
</g>
<g>
	<g>
		<rect x="366.933" y="349.867" width="85.333" height="51.2"/>
	</g>
</g>
<g>
	<g>
		<path d="M503.467,290.133H460.8V8.533c0-5.12-3.413-8.533-8.533-8.533H59.733C54.613,0,51.2,3.413,51.2,8.533v281.6H8.533
			c-5.12,0-8.533,3.413-8.533,8.533v204.8C0,508.587,3.413,512,8.533,512h494.933c5.12,0,8.533-3.413,8.533-8.533v-204.8
			C512,293.547,508.587,290.133,503.467,290.133z M102.4,51.2h85.333v59.733c0,0.853,0,1.707,0,2.56l17.067,51.2
			c0.853,3.413,4.267,5.973,7.68,5.973h8.533v25.6c0,5.12,3.413,8.533,8.533,8.533h51.2c5.12,0,8.533-3.413,8.533-8.533v-25.6h8.533
			c3.413,0,6.827-2.56,7.68-5.973l17.067-51.2c0-0.853,0-1.707,0-2.56V51.2h85.333v238.933H307.2v-25.6
			c0-5.12-3.413-8.533-8.533-8.533h-85.333c-5.12,0-8.533,3.413-8.533,8.533v25.6H102.4V51.2z M290.133,273.067v17.067h-68.267
			v-17.067H290.133z M59.733,460.8c0,5.12-3.413,8.533-8.533,8.533s-8.533-3.413-8.533-8.533v-17.067
			c0-5.12,3.413-8.533,8.533-8.533s8.533,3.413,8.533,8.533V460.8z M93.867,460.8c0,5.12-3.413,8.533-8.533,8.533
			c-5.12,0-8.533-3.413-8.533-8.533v-17.067c0-5.12,3.413-8.533,8.533-8.533c5.12,0,8.533,3.413,8.533,8.533V460.8z M128,460.8
			c0,5.12-3.413,8.533-8.533,8.533s-8.533-3.413-8.533-8.533v-17.067c0-5.12,3.413-8.533,8.533-8.533s8.533,3.413,8.533,8.533V460.8
			z M162.133,460.8c0,5.12-3.413,8.533-8.533,8.533c-5.12,0-8.533-3.413-8.533-8.533v-17.067c0-5.12,3.413-8.533,8.533-8.533
			c5.12,0,8.533,3.413,8.533,8.533V460.8z M162.133,409.6c0,5.12-3.413,8.533-8.533,8.533H51.2c-5.12,0-8.533-3.413-8.533-8.533
			v-68.267c0-5.12,3.413-8.533,8.533-8.533h102.4c5.12,0,8.533,3.413,8.533,8.533V409.6z M238.933,460.8
			c0,5.12-3.413,8.533-8.533,8.533h-34.133c-5.12,0-8.533-3.413-8.533-8.533v-42.667c0-5.12,3.413-8.533,8.533-8.533H230.4
			c5.12,0,8.533,3.413,8.533,8.533V460.8z M238.933,384c0,5.12-3.413,8.533-8.533,8.533h-34.133c-5.12,0-8.533-3.413-8.533-8.533
			v-42.667c0-5.12,3.413-8.533,8.533-8.533H230.4c5.12,0,8.533,3.413,8.533,8.533V384z M324.267,460.8
			c0,5.12-3.413,8.533-8.533,8.533H281.6c-5.12,0-8.533-3.413-8.533-8.533v-42.667c0-5.12,3.413-8.533,8.533-8.533h34.133
			c5.12,0,8.533,3.413,8.533,8.533V460.8z M324.267,384c0,5.12-3.413,8.533-8.533,8.533H281.6c-5.12,0-8.533-3.413-8.533-8.533
			v-42.667c0-5.12,3.413-8.533,8.533-8.533h34.133c5.12,0,8.533,3.413,8.533,8.533V384z M366.933,460.8
			c0,5.12-3.413,8.533-8.533,8.533s-8.533-3.413-8.533-8.533v-17.067c0-5.12,3.413-8.533,8.533-8.533s8.533,3.413,8.533,8.533V460.8
			z M401.067,460.8c0,5.12-3.413,8.533-8.533,8.533c-5.12,0-8.533-3.413-8.533-8.533v-17.067c0-5.12,3.413-8.533,8.533-8.533
			c5.12,0,8.533,3.413,8.533,8.533V460.8z M435.2,460.8c0,5.12-3.413,8.533-8.533,8.533s-8.533-3.413-8.533-8.533v-17.067
			c0-5.12,3.413-8.533,8.533-8.533s8.533,3.413,8.533,8.533V460.8z M469.333,460.8c0,5.12-3.413,8.533-8.533,8.533
			c-5.12,0-8.533-3.413-8.533-8.533v-17.067c0-5.12,3.413-8.533,8.533-8.533c5.12,0,8.533,3.413,8.533,8.533V460.8z M469.333,409.6
			c0,5.12-3.413,8.533-8.533,8.533H358.4c-5.12,0-8.533-3.413-8.533-8.533v-68.267c0-5.12,3.413-8.533,8.533-8.533h102.4
			c5.12,0,8.533,3.413,8.533,8.533V409.6z"/>
	</g>
</g>
<g>
</g>
<g>
</g>
<g>
</g>
<g>
</g>
<g>
</g>
<g>
</g>
<g>
</g>
<g>
</g>
<g>
</g>
<g>
</g>
<g>
</g>
<g>
</g>
<g>
</g>
<g>
</g>
<g>
</g>
</svg>
