<?xml version="1.0" encoding="iso-8859-1"?>
<!-- Generator: Adobe Illustrator 19.0.0, SVG Export Plug-In . SVG Version: 6.00 Build 0)  -->
<svg version="1.1" id="Layer_1" xmlns="http://www.w3.org/2000/svg" xmlns:xlink="http://www.w3.org/1999/xlink" x="0px" y="0px"
	 viewBox="0 0 512 512" style="enable-background:new 0 0 512 512;" xml:space="preserve">
<g>
	<g>
		<g>
			<path d="M179.2,153.6c15.113,0,28.672-6.622,38.059-17.067h111.616c7.578,8.431,17.877,14.328,29.525,16.299v35.763
				c-19.447,3.968-34.133,21.205-34.133,41.805c0,10.206,1.297,23.074,11.418,32c1.63,1.425,3.644,2.133,5.641,2.133
				c2.372,0,4.719-0.973,6.409-2.884c3.115-3.541,2.782-8.934-0.751-12.049c-4.019-3.541-5.649-9.097-5.649-19.2
				c0-14.114,11.486-25.6,25.6-25.6s25.6,11.486,25.6,25.6c0,10.103-1.638,15.659-5.649,19.2c-3.533,3.123-3.866,8.516-0.751,12.049
				c3.123,3.524,8.516,3.866,12.049,0.751c10.12-8.934,11.418-21.794,11.418-32c0-20.599-14.686-37.837-34.133-41.805v-35.763
				c24.175-4.087,42.667-25.114,42.667-50.432c0-28.237-22.963-51.2-51.2-51.2c-15.113,0-28.672,6.622-38.059,17.067H230.4V8.533
				c0-4.71-3.823-8.533-8.533-8.533h-85.333C131.823,0,128,3.823,128,8.533v85.333c0,0.768,0.247,1.459,0.435,2.167
				c-0.256,2.091-0.435,4.207-0.435,6.366C128,130.637,150.963,153.6,179.2,153.6z M229.555,111.428
				c0.051-0.307,0.094-0.623,0.145-0.93c0.418-2.645,0.7-5.333,0.7-8.098c0-2.159-0.179-4.275-0.435-6.366
				c0.188-0.708,0.435-1.399,0.435-2.167v-8.533h88.32c-0.922,2.594-1.647,5.265-2.142,8.03c-0.051,0.316-0.094,0.631-0.145,0.947
				c-0.418,2.645-0.7,5.333-0.7,8.09c0,2.756,0.282,5.444,0.7,8.09c0.051,0.316,0.094,0.631,0.145,0.947
				c0.495,2.765,1.22,5.436,2.142,8.03h-91.307C228.335,116.873,229.06,114.193,229.555,111.428z M145.067,17.067h68.267V64.29
				c-0.111-0.102-0.239-0.171-0.35-0.265c-2.099-1.843-4.343-3.516-6.716-5.009c-0.23-0.137-0.461-0.273-0.691-0.418
				c-2.423-1.468-4.966-2.748-7.637-3.797c-0.222-0.085-0.444-0.162-0.666-0.247c-2.697-1.024-5.487-1.852-8.38-2.406
				c-0.205-0.034-0.41-0.06-0.614-0.094c-2.953-0.529-5.982-0.853-9.079-0.853s-6.127,0.324-9.079,0.853
				c-0.205,0.034-0.41,0.06-0.614,0.094c-2.893,0.555-5.683,1.382-8.38,2.406c-0.222,0.085-0.444,0.162-0.666,0.247
				c-2.671,1.05-5.214,2.33-7.637,3.797c-0.23,0.145-0.461,0.282-0.691,0.418c-2.372,1.493-4.617,3.166-6.716,5.009
				c-0.111,0.094-0.239,0.162-0.35,0.265V17.067z"/>
			<path d="M494.933,435.422V331.759c0-13.542-11.017-24.559-24.559-24.559h-87.415c-13.542,0-24.559,11.017-24.559,24.559v94.908
				h-34.133v-94.908c0-13.542-11.017-24.559-24.559-24.559h-87.415c-13.542,0-24.559,11.017-24.559,24.559v94.908H153.6v-94.908
				c0-13.542-11.016-24.559-24.559-24.559H41.626c-13.542,0-24.559,11.017-24.559,24.559v103.663C6.767,443.213,0,455.45,0,469.333
				C0,492.86,19.14,512,42.667,512h426.667C492.86,512,512,492.86,512,469.333C512,455.45,505.233,443.213,494.933,435.422z
				 M51.2,477.867c-4.71,0-8.533-3.823-8.533-8.533S46.49,460.8,51.2,460.8s8.533,3.823,8.533,8.533S55.91,477.867,51.2,477.867z
				 M85.333,477.867c-4.71,0-8.533-3.823-8.533-8.533s3.823-8.533,8.533-8.533c4.71,0,8.533,3.823,8.533,8.533
				S90.044,477.867,85.333,477.867z M119.467,477.867c-4.71,0-8.533-3.823-8.533-8.533s3.823-8.533,8.533-8.533
				s8.533,3.823,8.533,8.533S124.177,477.867,119.467,477.867z M153.6,477.867c-4.71,0-8.533-3.823-8.533-8.533
				s3.823-8.533,8.533-8.533c4.71,0,8.533,3.823,8.533,8.533S158.31,477.867,153.6,477.867z M187.733,477.867
				c-4.71,0-8.533-3.823-8.533-8.533s3.823-8.533,8.533-8.533s8.533,3.823,8.533,8.533S192.444,477.867,187.733,477.867z
				 M221.867,477.867c-4.71,0-8.533-3.823-8.533-8.533s3.823-8.533,8.533-8.533c4.71,0,8.533,3.823,8.533,8.533
				S226.577,477.867,221.867,477.867z M256,477.867c-4.71,0-8.533-3.823-8.533-8.533S251.29,460.8,256,460.8
				s8.533,3.823,8.533,8.533S260.71,477.867,256,477.867z M290.133,477.867c-4.71,0-8.533-3.823-8.533-8.533
				s3.823-8.533,8.533-8.533s8.533,3.823,8.533,8.533S294.844,477.867,290.133,477.867z M324.267,477.867
				c-4.71,0-8.533-3.823-8.533-8.533s3.823-8.533,8.533-8.533c4.71,0,8.533,3.823,8.533,8.533S328.977,477.867,324.267,477.867z
				 M358.4,477.867c-4.71,0-8.533-3.823-8.533-8.533s3.823-8.533,8.533-8.533s8.533,3.823,8.533,8.533S363.11,477.867,358.4,477.867
				z M392.533,477.867c-4.71,0-8.533-3.823-8.533-8.533s3.823-8.533,8.533-8.533c4.71,0,8.533,3.823,8.533,8.533
				S397.244,477.867,392.533,477.867z M426.667,477.867c-4.71,0-8.533-3.823-8.533-8.533s3.823-8.533,8.533-8.533
				s8.533,3.823,8.533,8.533S431.377,477.867,426.667,477.867z M460.8,477.867c-4.71,0-8.533-3.823-8.533-8.533
				s3.823-8.533,8.533-8.533c4.71,0,8.533,3.823,8.533,8.533S465.51,477.867,460.8,477.867z"/>
		</g>
	</g>
</g>
<g>
</g>
<g>
</g>
<g>
</g>
<g>
</g>
<g>
</g>
<g>
</g>
<g>
</g>
<g>
</g>
<g>
</g>
<g>
</g>
<g>
</g>
<g>
</g>
<g>
</g>
<g>
</g>
<g>
</g>
</svg>
