<?xml version="1.0" encoding="iso-8859-1"?>
<!-- Generator: Adobe Illustrator 19.0.0, SVG Export Plug-In . SVG Version: 6.00 Build 0)  -->
<svg version="1.1" id="Layer_1" xmlns="http://www.w3.org/2000/svg" xmlns:xlink="http://www.w3.org/1999/xlink" x="0px" y="0px"
	 viewBox="0 0 512 512" style="enable-background:new 0 0 512 512;" xml:space="preserve">
<g>
	<g>
		<path d="M221.867,362.667c-5.12,0-8.533,3.413-8.533,8.533s3.413,8.533,8.533,8.533s8.533-3.413,8.533-8.533
			S226.987,362.667,221.867,362.667z"/>
	</g>
</g>
<g>
	<g>
		<path d="M85.333,362.667c-5.12,0-8.533,3.413-8.533,8.533s3.413,8.533,8.533,8.533c5.12,0,8.533-3.413,8.533-8.533
			S90.453,362.667,85.333,362.667z"/>
	</g>
</g>
<g>
	<g>
		<path d="M290.133,362.667c-5.12,0-8.533,3.413-8.533,8.533s3.413,8.533,8.533,8.533s8.533-3.413,8.533-8.533
			S295.253,362.667,290.133,362.667z"/>
	</g>
</g>
<g>
	<g>
		<path d="M358.4,362.667c-5.12,0-8.533,3.413-8.533,8.533s3.413,8.533,8.533,8.533s8.533-3.413,8.533-8.533
			S363.52,362.667,358.4,362.667z"/>
	</g>
</g>
<g>
	<g>
		<path d="M153.6,362.667c-5.12,0-8.533,3.413-8.533,8.533s3.413,8.533,8.533,8.533c5.12,0,8.533-3.413,8.533-8.533
			S158.72,362.667,153.6,362.667z"/>
	</g>
</g>
<g>
	<g>
		<path d="M426.667,362.667c-5.12,0-8.533,3.413-8.533,8.533s3.413,8.533,8.533,8.533s8.533-3.413,8.533-8.533
			S431.787,362.667,426.667,362.667z"/>
	</g>
</g>
<g>
	<g>
		<path d="M491.52,430.933c11.093,0,20.48-9.387,20.48-20.48v-79.36c0-10.24-7.68-18.773-17.067-19.627v-30.72
			c0-11.947-9.387-21.333-21.333-21.333h-38.4v-42.667c0-5.12-3.413-8.533-8.533-8.533H238.933c-5.12,0-8.533,3.413-8.533,8.533
			v42.667h-128V199.68H128c5.12,0,8.533-3.413,8.533-8.533v-8.533h25.6c5.12,0,8.533-3.413,8.533-8.533v-8.533h17.067
			c11.093,0,20.48-6.827,23.893-17.067h27.307c5.12,0,8.533-3.413,8.533-8.533s-3.413-8.533-8.533-8.533h-27.307
			c-3.413-10.24-12.8-17.067-23.893-17.067h-17.067v-8.533c0-5.12-3.413-8.533-8.533-8.533h-25.6V89.6
			c0-5.12-3.413-8.533-8.533-8.533h-25.6v-48.64c0-11.093-8.533-19.627-19.627-19.627H53.76c-11.093,0-19.627,8.533-19.627,19.627
			v48.64h-25.6C3.413,81.067,0,84.48,0,89.6V192c0,5.12,3.413,8.533,8.533,8.533h25.6v59.733
			c-9.387,1.707-17.067,10.24-17.067,20.48v30.72C7.68,313.173,0,321.707,0,331.093v79.36c0,11.093,9.387,20.48,20.48,20.48h5.12
			v51.2H8.533c-5.12,0-8.533,3.413-8.533,8.533s3.413,8.533,8.533,8.533h25.6h51.2h341.333h51.2h25.6
			c5.12,0,8.533-3.413,8.533-8.533s-3.413-8.533-8.533-8.533H486.4v-51.2H491.52z M358.4,345.6c14.507,0,25.6,11.093,25.6,25.6
			s-11.093,25.6-25.6,25.6s-25.6-11.093-25.6-25.6S343.893,345.6,358.4,345.6z M290.133,345.6c14.507,0,25.6,11.093,25.6,25.6
			s-11.093,25.6-25.6,25.6c-14.507,0-25.6-11.093-25.6-25.6S275.627,345.6,290.133,345.6z M221.867,345.6
			c14.507,0,25.6,11.093,25.6,25.6s-11.093,25.6-25.6,25.6c-14.507,0-25.6-11.093-25.6-25.6S207.36,345.6,221.867,345.6z
			 M153.6,345.6c14.507,0,25.6,11.093,25.6,25.6s-11.093,25.6-25.6,25.6c-14.507,0-25.6-11.093-25.6-25.6S139.093,345.6,153.6,345.6
			z M51.2,32.427c0-1.707,0.853-2.56,2.56-2.56h28.16c2.56,0,3.413,0.853,3.413,2.56v48.64H51.2V32.427z M51.2,200.533h34.133
			v59.733H51.2V200.533z M76.8,482.133H42.667v-51.2H76.8V482.133z M59.733,371.2c0-14.507,11.093-25.6,25.6-25.6
			c14.507,0,25.6,11.093,25.6,25.6s-11.093,25.6-25.6,25.6C70.827,396.8,59.733,385.707,59.733,371.2z M418.133,482.133H93.867
			v-51.2h324.267V482.133z M401.067,371.2c0-14.507,11.093-25.6,25.6-25.6s25.6,11.093,25.6,25.6s-11.093,25.6-25.6,25.6
			S401.067,385.707,401.067,371.2z M469.333,482.133H435.2v-51.2h34.133V482.133z"/>
	</g>
</g>
<g>
</g>
<g>
</g>
<g>
</g>
<g>
</g>
<g>
</g>
<g>
</g>
<g>
</g>
<g>
</g>
<g>
</g>
<g>
</g>
<g>
</g>
<g>
</g>
<g>
</g>
<g>
</g>
<g>
</g>
</svg>
