<?xml version="1.0" encoding="iso-8859-1"?>
<!-- Generator: Adobe Illustrator 19.0.0, SVG Export Plug-In . SVG Version: 6.00 Build 0)  -->
<svg version="1.1" id="Layer_1" xmlns="http://www.w3.org/2000/svg" xmlns:xlink="http://www.w3.org/1999/xlink" x="0px" y="0px"
	 viewBox="0 0 512 512" style="enable-background:new 0 0 512 512;" xml:space="preserve">
<g>
	<g>
		<path d="M503.467,119.467c5.12,0,8.533-3.413,8.533-8.533V76.8c0-5.12-3.413-8.533-8.533-8.533h-17.92
			C481.28,29.867,448.853,0,409.6,0h-34.133h-281.6c-5.12,0-8.533,3.413-8.533,8.533v59.733H76.8c-5.12,0-8.533,3.413-8.533,8.533
			v34.133c0,5.12,3.413,8.533,8.533,8.533h68.267c5.12,0,8.533-3.413,8.533-8.533V76.8c0-5.12-3.413-8.533-8.533-8.533h-8.533V51.2
			h166.4c-1.707,5.12-3.413,11.093-4.267,17.067H281.6c-5.12,0-8.533,3.413-8.533,8.533v34.133c0,5.12,3.413,8.533,8.533,8.533
			h17.067v281.6H281.6c-5.12,0-8.533,3.413-8.533,8.533v34.133c0,5.12,3.413,8.533,8.533,8.533h17.92
			C303.787,485.547,332.8,512,366.933,512h51.2c34.987,0,63.147-26.453,67.413-59.733h17.92c5.12,0,8.533-3.413,8.533-8.533V409.6
			c0-5.12-3.413-8.533-8.533-8.533H486.4v-281.6H503.467z M128,34.133c-5.12,0-8.533,3.413-8.533,8.533v25.6H102.4v-51.2h225.28
			c-2.56,2.56-5.12,5.12-7.68,7.68l-0.853,0.853c-2.56,2.56-5.12,5.973-6.827,8.533H128z M494.933,418.133V435.2h-17.067H307.2
			h-17.067v-17.067H307.2h170.667H494.933z M409.6,315.733h34.133c5.12,0,8.533,3.413,8.533,8.533V358.4
			c0,5.12-3.413,8.533-8.533,8.533H409.6c-5.12,0-8.533-3.413-8.533-8.533v-34.133C401.067,319.147,404.48,315.733,409.6,315.733z
			 M401.067,290.133v-25.6c0-5.12,3.413-8.533,8.533-8.533s8.533,3.413,8.533,8.533v25.6c0,5.12-3.413,8.533-8.533,8.533
			S401.067,295.253,401.067,290.133z M443.733,298.667c-5.12,0-8.533-3.413-8.533-8.533v-25.6c0-5.12,3.413-8.533,8.533-8.533
			s8.533,3.413,8.533,8.533v25.6C452.267,295.253,448.853,298.667,443.733,298.667z M443.733,238.933h-102.4
			c-5.12,0-8.533-3.413-8.533-8.533v-68.267c0-5.12,3.413-8.533,8.533-8.533h102.4c5.12,0,8.533,3.413,8.533,8.533V230.4
			C452.267,235.52,448.853,238.933,443.733,238.933z M384,264.533v25.6c0,5.12-3.413,8.533-8.533,8.533s-8.533-3.413-8.533-8.533
			v-25.6c0-5.12,3.413-8.533,8.533-8.533S384,259.413,384,264.533z M341.333,256c5.12,0,8.533,3.413,8.533,8.533v25.6
			c0,5.12-3.413,8.533-8.533,8.533c-5.12,0-8.533-3.413-8.533-8.533v-25.6C332.8,259.413,336.213,256,341.333,256z M341.333,315.733
			h34.133c5.12,0,8.533,3.413,8.533,8.533V358.4c0,5.12-3.413,8.533-8.533,8.533h-34.133c-5.12,0-8.533-3.413-8.533-8.533v-34.133
			C332.8,319.147,336.213,315.733,341.333,315.733z M477.867,102.4H307.2h-17.067V85.333H307.2h170.667h17.067V102.4H477.867z"/>
	</g>
</g>
<g>
	<g>
		<rect x="418.133" y="332.8" width="17.067" height="17.067"/>
	</g>
</g>
<g>
	<g>
		<rect x="349.867" y="332.8" width="17.067" height="17.067"/>
	</g>
</g>
<g>
	<g>
		<rect x="349.867" y="170.667" width="85.333" height="51.2"/>
	</g>
</g>
<g>
	<g>
		<path d="M213.333,136.533H8.533c-5.12,0-8.533,3.413-8.533,8.533V179.2c0,0.853,0,1.707,0.853,2.56v0.853c0,0,0,0.853,0.853,0.853
			l66.56,100.693v40.107H34.133c-5.12,0-8.533,3.413-8.533,8.533V384v119.467c0,5.12,3.413,8.533,8.533,8.533h51.2
			c5.12,0,8.533-3.413,8.533-8.533V392.533H128v110.933c0,5.12,3.413,8.533,8.533,8.533h51.2c5.12,0,8.533-3.413,8.533-8.533V384
			v-51.2c0-5.12-3.413-8.533-8.533-8.533H153.6V284.16l66.56-99.84c0,0,0-0.853,0.853-0.853v-0.853c0-0.853,0.853-1.707,0.853-2.56
			V145.92C221.867,139.947,218.453,136.533,213.333,136.533z M136.533,324.267h-51.2v-34.133h51.2V324.267z M204.8,170.667H17.067
			V153.6H204.8V170.667z"/>
	</g>
</g>
<g>
</g>
<g>
</g>
<g>
</g>
<g>
</g>
<g>
</g>
<g>
</g>
<g>
</g>
<g>
</g>
<g>
</g>
<g>
</g>
<g>
</g>
<g>
</g>
<g>
</g>
<g>
</g>
<g>
</g>
</svg>
