<?xml version="1.0" encoding="iso-8859-1"?>
<!-- Generator: Adobe Illustrator 19.0.0, SVG Export Plug-In . SVG Version: 6.00 Build 0)  -->
<svg version="1.1" id="Layer_1" xmlns="http://www.w3.org/2000/svg" xmlns:xlink="http://www.w3.org/1999/xlink" x="0px" y="0px"
	 viewBox="0 0 512 512" style="enable-background:new 0 0 512 512;" xml:space="preserve">
<g>
	<g>
		<g>
			<path d="M72.533,76.8c4.719,0,8.533-3.814,8.533-8.533c0-9.412,7.654-17.067,17.067-17.067h34.133
				c14.114,0,25.6-11.486,25.6-25.6S146.381,0,132.267,0H98.133C93.414,0,89.6,3.814,89.6,8.533s3.814,8.533,8.533,8.533h34.133
				c4.71,0,8.533,3.823,8.533,8.533c0,4.71-3.823,8.533-8.533,8.533H98.133C79.309,34.133,64,49.442,64,68.267
				C64,72.986,67.814,76.8,72.533,76.8z"/>
			<path d="M260.267,76.8c4.719,0,8.533-3.814,8.533-8.533c0-9.412,7.654-17.067,17.067-17.067H320c14.114,0,25.6-11.486,25.6-25.6
				S334.114,0,320,0h-34.133c-4.719,0-8.533,3.814-8.533,8.533s3.814,8.533,8.533,8.533H320c4.71,0,8.533,3.823,8.533,8.533
				c0,4.71-3.823,8.533-8.533,8.533h-34.133c-18.825,0-34.133,15.309-34.133,34.133C251.733,72.986,255.548,76.8,260.267,76.8z"/>
			<path d="M482.133,0h-25.6C451.814,0,448,3.814,448,8.533s3.814,8.533,8.533,8.533h25.6c4.71,0,8.533,3.823,8.533,8.533
				c0,4.71-3.823,8.533-8.533,8.533h-25.6c-18.825,0-34.133,15.309-34.133,34.133c0,4.719,3.814,8.533,8.533,8.533
				s8.533-3.814,8.533-8.533c0-9.412,7.654-17.067,17.067-17.067h25.6c14.114,0,25.6-11.486,25.6-25.6S496.247,0,482.133,0z"/>
			<path d="M494.072,196.975c-3.081-1.34-6.733-0.742-9.216,1.579l-19.789,18.372v-71.859h8.533c4.719,0,8.533-3.814,8.533-8.533
				V102.4c0-4.719-3.814-8.533-8.533-8.533h-85.333c-4.719,0-8.533,3.814-8.533,8.533v34.133c0,4.719,3.814,8.533,8.533,8.533h8.533
				V280.32l-17.067,15.846V204.8c0-3.388-2.005-6.468-5.129-7.825c-3.089-1.34-6.724-0.742-9.216,1.579l-62.455,57.993V145.067
				h8.533c4.719,0,8.533-3.814,8.533-8.533V102.4c0-4.719-3.814-8.533-8.533-8.533h-102.4c-4.719,0-8.533,3.814-8.533,8.533v34.133
				c0,4.719,3.814,8.533,8.533,8.533h8.533v79.787l-76.8,71.313V204.8c0-3.2-1.783-6.127-4.625-7.595
				c-2.859-1.468-6.263-1.212-8.866,0.657l-20.642,14.737v-67.533h8.533c4.719,0,8.533-3.814,8.533-8.533V102.4
				c0-4.719-3.814-8.533-8.533-8.533H29.867c-4.719,0-8.533,3.814-8.533,8.533v34.133c0,4.719,3.814,8.533,8.533,8.533H38.4v116.301
				L7.842,283.196c-2.244,1.596-3.575,4.181-3.575,6.938v213.333c0,4.719,3.814,8.533,8.533,8.533h477.867
				c4.719,0,8.533-3.814,8.533-8.533V204.8C499.2,201.412,497.195,198.332,494.072,196.975z M55.467,145.067H89.6v79.727
				l-34.133,24.371V145.067z M89.6,460.8H55.467c-4.719,0-8.533-3.814-8.533-8.533c0-4.719,3.814-8.533,8.533-8.533H89.6
				c4.719,0,8.533,3.814,8.533,8.533C98.133,456.986,94.319,460.8,89.6,460.8z M89.6,426.667H55.467
				c-4.719,0-8.533-3.814-8.533-8.533s3.814-8.533,8.533-8.533H89.6c4.719,0,8.533,3.814,8.533,8.533S94.319,426.667,89.6,426.667z
				 M89.6,392.533H55.467c-4.719,0-8.533-3.814-8.533-8.533c0-4.719,3.814-8.533,8.533-8.533H89.6c4.719,0,8.533,3.814,8.533,8.533
				C98.133,388.719,94.319,392.533,89.6,392.533z M89.6,358.4H55.467c-4.719,0-8.533-3.814-8.533-8.533s3.814-8.533,8.533-8.533
				H89.6c4.719,0,8.533,3.814,8.533,8.533S94.319,358.4,89.6,358.4z M209.067,460.8h-34.133c-4.719,0-8.533-3.814-8.533-8.533
				c0-4.719,3.814-8.533,8.533-8.533h34.133c4.719,0,8.533,3.814,8.533,8.533C217.6,456.986,213.786,460.8,209.067,460.8z
				 M209.067,426.667h-34.133c-4.719,0-8.533-3.814-8.533-8.533s3.814-8.533,8.533-8.533h34.133c4.719,0,8.533,3.814,8.533,8.533
				S213.786,426.667,209.067,426.667z M209.067,392.533h-34.133c-4.719,0-8.533-3.814-8.533-8.533c0-4.719,3.814-8.533,8.533-8.533
				h34.133c4.719,0,8.533,3.814,8.533,8.533C217.6,388.719,213.786,392.533,209.067,392.533z M209.067,358.4h-34.133
				c-4.719,0-8.533-3.814-8.533-8.533s3.814-8.533,8.533-8.533h34.133c4.719,0,8.533,3.814,8.533,8.533S213.786,358.4,209.067,358.4
				z M255.138,196.975c-0.973-0.427-1.997-0.589-3.029-0.631c-0.128,0-0.247-0.077-0.375-0.077c-0.188,0-0.358,0.094-0.546,0.102
				c-0.666,0.043-1.306,0.171-1.946,0.367c-0.29,0.085-0.58,0.154-0.862,0.273c-0.887,0.384-1.724,0.862-2.458,1.544l-11.255,10.453
				v-63.94h51.2v127.326l-25.6,23.774V204.8C260.267,201.412,258.261,198.332,255.138,196.975z M328.533,460.8H294.4
				c-4.719,0-8.533-3.814-8.533-8.533c0-4.719,3.814-8.533,8.533-8.533h34.133c4.719,0,8.533,3.814,8.533,8.533
				C337.067,456.986,333.252,460.8,328.533,460.8z M328.533,426.667H294.4c-4.719,0-8.533-3.814-8.533-8.533
				s3.814-8.533,8.533-8.533h34.133c4.719,0,8.533,3.814,8.533,8.533S333.252,426.667,328.533,426.667z M328.533,392.533H294.4
				c-4.719,0-8.533-3.814-8.533-8.533c0-4.719,3.814-8.533,8.533-8.533h34.133c4.719,0,8.533,3.814,8.533,8.533
				C337.067,388.719,333.252,392.533,328.533,392.533z M328.533,358.4H294.4c-4.719,0-8.533-3.814-8.533-8.533
				s3.814-8.533,8.533-8.533h34.133c4.719,0,8.533,3.814,8.533,8.533S333.252,358.4,328.533,358.4z M413.867,145.067H448v87.706
				l-6.007,5.581l-28.126,26.121V145.067z M448,460.8h-34.133c-4.719,0-8.533-3.814-8.533-8.533c0-4.719,3.814-8.533,8.533-8.533
				H448c4.719,0,8.533,3.814,8.533,8.533C456.533,456.986,452.719,460.8,448,460.8z M448,426.667h-34.133
				c-4.719,0-8.533-3.814-8.533-8.533s3.814-8.533,8.533-8.533H448c4.719,0,8.533,3.814,8.533,8.533S452.719,426.667,448,426.667z
				 M448,392.533h-34.133c-4.719,0-8.533-3.814-8.533-8.533c0-4.719,3.814-8.533,8.533-8.533H448c4.719,0,8.533,3.814,8.533,8.533
				C456.533,388.719,452.719,392.533,448,392.533z M448,358.4h-34.133c-4.719,0-8.533-3.814-8.533-8.533s3.814-8.533,8.533-8.533
				H448c4.719,0,8.533,3.814,8.533,8.533S452.719,358.4,448,358.4z"/>
		</g>
	</g>
</g>
<g>
</g>
<g>
</g>
<g>
</g>
<g>
</g>
<g>
</g>
<g>
</g>
<g>
</g>
<g>
</g>
<g>
</g>
<g>
</g>
<g>
</g>
<g>
</g>
<g>
</g>
<g>
</g>
<g>
</g>
</svg>
