<?xml version="1.0" encoding="iso-8859-1"?>
<!-- Generator: Adobe Illustrator 19.0.0, SVG Export Plug-In . SVG Version: 6.00 Build 0)  -->
<svg version="1.1" id="Layer_1" xmlns="http://www.w3.org/2000/svg" xmlns:xlink="http://www.w3.org/1999/xlink" x="0px" y="0px"
	 viewBox="0 0 512 512" style="enable-background:new 0 0 512 512;" xml:space="preserve">
<g>
	<g>
		<rect x="366.933" y="401.067" width="17.067" height="17.067"/>
	</g>
</g>
<g>
	<g>
		<rect x="136.533" y="401.067" width="17.067" height="17.067"/>
	</g>
</g>
<g>
	<g>
		<rect x="213.333" y="401.067" width="17.067" height="17.067"/>
	</g>
</g>
<g>
	<g>
		<rect x="290.133" y="401.067" width="17.067" height="17.067"/>
	</g>
</g>
<g>
	<g>
		<rect x="443.733" y="401.067" width="17.067" height="17.067"/>
	</g>
</g>
<g>
	<g>
		<rect x="59.733" y="401.067" width="17.067" height="17.067"/>
	</g>
</g>
<g>
	<g>
		<path d="M503.467,341.333h-25.6v-51.2c14.507,0,25.6-11.093,25.6-25.6c0-14.507-11.093-25.6-25.6-25.6V179.2
			c14.507,0,25.6-11.093,25.6-25.6c0-14.507-11.093-25.6-25.6-25.6v-10.24c0-36.693-29.867-66.56-66.56-66.56h-11.093
			C395.947,22.187,371.2,0,341.333,0H170.667c-29.867,0-54.613,22.187-58.88,51.2h-11.093c-36.693,0-66.56,29.867-66.56,66.56V128
			c-14.507,0-25.6,11.093-25.6,25.6c0,14.507,11.093,25.6,25.6,25.6v59.733c-14.507,0-25.6,11.093-25.6,25.6
			c0,14.507,11.093,25.6,25.6,25.6v51.2h-25.6c-5.12,0-8.533,3.413-8.533,8.533v153.6C0,508.587,3.413,512,8.533,512h494.933
			c5.12,0,8.533-3.413,8.533-8.533v-153.6C512,344.747,508.587,341.333,503.467,341.333z M486.4,264.533
			c0,5.12-3.413,8.533-8.533,8.533H307.2c-5.12,0-8.533-3.413-8.533-8.533S302.08,256,307.2,256h170.667
			C482.987,256,486.4,259.413,486.4,264.533z M477.867,145.067c5.12,0,8.533,3.413,8.533,8.533c0,5.12-3.413,8.533-8.533,8.533
			H307.2c-5.12,0-8.533-3.413-8.533-8.533c0-5.12,3.413-8.533,8.533-8.533H477.867z M170.667,17.067h170.667
			c20.48,0,37.547,14.507,41.813,34.133h-9.387c-36.693,0-66.56,29.867-66.56,66.56V128c-14.507,0-25.6,11.093-25.6,25.6
			c0,14.507,11.093,25.6,25.6,25.6v59.733c-14.507,0-25.6,11.093-25.6,25.6c0,14.507,11.093,25.6,25.6,25.6v51.2H204.8v-51.2
			c14.507,0,25.6-11.093,25.6-25.6c0-14.507-11.093-25.6-25.6-25.6V179.2c14.507,0,25.6-11.093,25.6-25.6
			c0-14.507-11.093-25.6-25.6-25.6v-10.24c0-36.693-29.867-66.56-66.56-66.56h-9.387C133.12,31.573,150.187,17.067,170.667,17.067z
			 M25.6,153.6c0-5.12,3.413-8.533,8.533-8.533H204.8c5.12,0,8.533,3.413,8.533,8.533c0,5.12-3.413,8.533-8.533,8.533H34.133
			C29.013,162.133,25.6,158.72,25.6,153.6z M25.6,264.533c0-5.12,3.413-8.533,8.533-8.533H204.8c5.12,0,8.533,3.413,8.533,8.533
			s-3.413,8.533-8.533,8.533H34.133C29.013,273.067,25.6,269.653,25.6,264.533z M85.333,469.333H51.2
			c-5.12,0-8.533-3.413-8.533-8.533c0-5.12,3.413-8.533,8.533-8.533h34.133c5.12,0,8.533,3.413,8.533,8.533
			C93.867,465.92,90.453,469.333,85.333,469.333z M93.867,426.667c0,5.12-3.413,8.533-8.533,8.533H51.2
			c-5.12,0-8.533-3.413-8.533-8.533v-34.133c0-5.12,3.413-8.533,8.533-8.533h34.133c5.12,0,8.533,3.413,8.533,8.533V426.667z
			 M162.133,469.333H128c-5.12,0-8.533-3.413-8.533-8.533c0-5.12,3.413-8.533,8.533-8.533h34.133c5.12,0,8.533,3.413,8.533,8.533
			C170.667,465.92,167.253,469.333,162.133,469.333z M170.667,426.667c0,5.12-3.413,8.533-8.533,8.533H128
			c-5.12,0-8.533-3.413-8.533-8.533v-34.133c0-5.12,3.413-8.533,8.533-8.533h34.133c5.12,0,8.533,3.413,8.533,8.533V426.667z
			 M187.733,341.333H51.2v-51.2h136.533V341.333z M238.933,469.333H204.8c-5.12,0-8.533-3.413-8.533-8.533
			c0-5.12,3.413-8.533,8.533-8.533h34.133c5.12,0,8.533,3.413,8.533,8.533C247.467,465.92,244.053,469.333,238.933,469.333z
			 M247.467,426.667c0,5.12-3.413,8.533-8.533,8.533H204.8c-5.12,0-8.533-3.413-8.533-8.533v-34.133c0-5.12,3.413-8.533,8.533-8.533
			h34.133c5.12,0,8.533,3.413,8.533,8.533V426.667z M315.733,469.333H281.6c-5.12,0-8.533-3.413-8.533-8.533
			c0-5.12,3.413-8.533,8.533-8.533h34.133c5.12,0,8.533,3.413,8.533,8.533C324.267,465.92,320.853,469.333,315.733,469.333z
			 M324.267,426.667c0,5.12-3.413,8.533-8.533,8.533H281.6c-5.12,0-8.533-3.413-8.533-8.533v-34.133c0-5.12,3.413-8.533,8.533-8.533
			h34.133c5.12,0,8.533,3.413,8.533,8.533V426.667z M324.267,290.133H460.8v51.2H324.267V290.133z M392.533,469.333H358.4
			c-5.12,0-8.533-3.413-8.533-8.533c0-5.12,3.413-8.533,8.533-8.533h34.133c5.12,0,8.533,3.413,8.533,8.533
			C401.067,465.92,397.653,469.333,392.533,469.333z M401.067,426.667c0,5.12-3.413,8.533-8.533,8.533H358.4
			c-5.12,0-8.533-3.413-8.533-8.533v-34.133c0-5.12,3.413-8.533,8.533-8.533h34.133c5.12,0,8.533,3.413,8.533,8.533V426.667z
			 M469.333,469.333H435.2c-5.12,0-8.533-3.413-8.533-8.533c0-5.12,3.413-8.533,8.533-8.533h34.133c5.12,0,8.533,3.413,8.533,8.533
			C477.867,465.92,474.453,469.333,469.333,469.333z M477.867,426.667c0,5.12-3.413,8.533-8.533,8.533H435.2
			c-5.12,0-8.533-3.413-8.533-8.533v-34.133c0-5.12,3.413-8.533,8.533-8.533h34.133c5.12,0,8.533,3.413,8.533,8.533V426.667z"/>
	</g>
</g>
<g>
</g>
<g>
</g>
<g>
</g>
<g>
</g>
<g>
</g>
<g>
</g>
<g>
</g>
<g>
</g>
<g>
</g>
<g>
</g>
<g>
</g>
<g>
</g>
<g>
</g>
<g>
</g>
<g>
</g>
</svg>
