<?xml version="1.0" encoding="iso-8859-1"?>
<!-- Generator: Adobe Illustrator 19.0.0, SVG Export Plug-In . SVG Version: 6.00 Build 0)  -->
<svg version="1.1" id="Layer_1" xmlns="http://www.w3.org/2000/svg" xmlns:xlink="http://www.w3.org/1999/xlink" x="0px" y="0px"
	 viewBox="0 0 512.003 512.003" style="enable-background:new 0 0 512.003 512.003;" xml:space="preserve">
<g>
	<g>
		<g>
			<path d="M102.4,136.536c0-25.131-18.202-46.037-42.112-50.347c3.789-29.312,28.86-52.053,59.179-52.053
				c30.327,0,55.398,22.741,59.187,52.053c-23.91,4.309-42.121,25.216-42.121,50.347v34.133h102.4v-34.133
				c0-25.131-18.202-46.037-42.112-50.347c3.789-29.312,28.86-52.053,59.179-52.053c30.327,0,55.398,22.741,59.187,52.053
				c-23.91,4.309-42.12,25.216-42.12,50.347v34.133h102.4v-34.133c0-25.131-18.202-46.037-42.112-50.347
				c3.789-29.312,28.86-52.053,59.179-52.053c30.328,0,55.398,22.741,59.187,52.053c-23.91,4.309-42.121,25.216-42.121,50.347
				v34.133H512v-34.133c0-25.464-18.688-46.575-43.059-50.492c-3.934-38.682-36.693-68.975-76.408-68.975
				c-29.722,0-55.501,17.007-68.267,41.771C311.509,34.076,285.73,17.069,256,17.069c-29.722,0-55.501,17.007-68.267,41.771
				c-12.757-24.764-38.536-41.771-68.267-41.771c-39.706,0-72.465,30.293-76.399,68.975C18.697,89.961,0,111.072,0,136.536v34.133
				h102.4V136.536z"/>
			<rect x="409.603" y="187.734" width="102.4" height="34.133"/>
			<path d="M409.603,238.934v170.667H375.47V238.934h-102.4v170.667h-34.133V238.934h-102.4v170.667h-34.133V238.934H0.003v170.667
				v17.067v46.788c0,11.844,9.634,21.478,21.487,21.478h469.026c11.853,0,21.487-9.634,21.487-21.478v-46.788v-17.067V238.934
				H409.603z M452.27,375.468c0-4.71,3.814-8.533,8.533-8.533c4.719,0,8.533,3.823,8.533,8.533v34.133H452.27V375.468z
				 M315.737,375.468c0-4.71,3.814-8.533,8.533-8.533c4.719,0,8.533,3.823,8.533,8.533v34.133h-17.067V375.468z M179.203,375.468
				c0-4.71,3.814-8.533,8.533-8.533s8.533,3.823,8.533,8.533v34.133h-17.067V375.468z M42.67,375.468
				c0-4.71,3.814-8.533,8.533-8.533s8.533,3.823,8.533,8.533v34.133H42.67V375.468z M494.937,473.456c0,2.432-1.98,4.412-4.42,4.412
				H21.49c-2.441,0-4.42-1.98-4.42-4.412v-46.788h34.133h51.2h34.133h51.2h51.2h34.133h51.2h51.2h34.133h51.2h34.133V473.456z"/>
			<rect x="273.069" y="187.734" width="102.4" height="34.133"/>
			<rect x="136.536" y="187.734" width="102.4" height="34.133"/>
			<rect x="0.003" y="187.734" width="102.4" height="34.133"/>
		</g>
	</g>
</g>
<g>
</g>
<g>
</g>
<g>
</g>
<g>
</g>
<g>
</g>
<g>
</g>
<g>
</g>
<g>
</g>
<g>
</g>
<g>
</g>
<g>
</g>
<g>
</g>
<g>
</g>
<g>
</g>
<g>
</g>
</svg>
