<?xml version="1.0" encoding="iso-8859-1"?>
<!-- Generator: Adobe Illustrator 19.0.0, SVG Export Plug-In . SVG Version: 6.00 Build 0)  -->
<svg version="1.1" id="Layer_1" xmlns="http://www.w3.org/2000/svg" xmlns:xlink="http://www.w3.org/1999/xlink" x="0px" y="0px"
	 viewBox="0 0 512.427 512.427" style="enable-background:new 0 0 512.427 512.427;" xml:space="preserve">
<g>
	<g>
		<path d="M503.467,392.747h-21.333l-40.96-54.613c11.947-5.12,19.627-17.067,19.627-30.72c0-16.213-11.093-29.013-25.6-33.28
			v-9.387h8.533c5.12,0,8.533-3.413,8.533-8.533v-10.24c0-16.213-5.973-32.427-17.067-44.373v-13.653h68.267
			c2.56,0,5.973-1.707,7.68-4.267s1.707-5.973,0-8.533l-29.013-57.173l-13.653-28.16c-1.707-2.56-4.267-4.267-7.68-4.267H219.307
			l-26.453-79.36c-0.853-3.413-4.267-5.973-7.68-5.973h-28.16c-3.413,0-6.827,2.56-7.68,5.973l-27.307,79.36H102.4v-8.533
			c0-5.12-3.413-8.533-8.533-8.533H51.2c-5.12,0-8.533,3.413-8.533,8.533v25.6H8.533c-5.12,0-8.533,3.413-8.533,8.533v17.067
			c0,23.893,18.773,42.667,42.667,42.667v25.6c0,5.12,3.413,8.533,8.533,8.533h42.667c5.12,0,8.533-3.413,8.533-8.533v-8.533h17.067
			v307.2h-51.2c-5.12,0-8.533,3.413-8.533,8.533s3.413,8.533,8.533,8.533H128h85.333h102.4c5.12,0,8.533-3.413,8.533-8.533
			s-3.413-8.533-8.533-8.533h-93.867v-307.2h196.267V201.6c-11.093,11.947-17.067,28.16-17.067,44.373v10.24
			c0,5.12,3.413,8.533,8.533,8.533h8.533v17.067c0,5.12,3.413,8.533,8.533,8.533c9.387,0,17.067,7.68,17.067,17.067
			s-7.68,17.067-17.067,17.067c-2.56,0-5.12,0.853-6.827,3.413l-48.64,64.853h-21.333c-5.12,0-8.533,3.413-8.533,8.533v68.267
			c0,5.12,3.413,8.533,8.533,8.533h153.6c5.12,0,8.533-3.413,8.533-8.533V401.28C512,396.16,508.587,392.747,503.467,392.747z
			 M119.467,170.88H102.4v-68.267h17.067V170.88z M162.987,17.28H179.2l24.747,73.387l-33.28,23.04l-32.427-23.04L162.987,17.28z
			 M170.667,381.653l-29.013-23.04l29.013-23.04l29.013,23.04L170.667,381.653z M171.52,402.987l29.013,23.893l-29.867,27.307
			l-29.013-27.307L171.52,402.987z M141.653,290.347l29.013-23.04l29.013,23.04l-29.013,23.04L141.653,290.347z M141.653,222.08
			l29.013-23.04l29.013,23.04l-29.013,23.04L141.653,222.08z M142.507,153.813l28.16-19.627l28.16,19.627l-28.16,23.04
			L142.507,153.813z M136.533,110.293l19.627,13.653L136.533,137.6V110.293z M136.533,179.413v-7.68l20.48,16.213l-20.48,16.213
			V179.413z M136.533,240l20.48,16.213l-20.48,16.213V240z M136.533,308.267l20.48,16.213l-20.48,16.213V308.267z M136.533,376.533
			l20.48,16.213l-20.48,16.213V376.533z M136.533,445.653l21.333,19.627l-21.333,19.627V445.653z M150.187,495.147l20.48-18.773
			l20.48,18.773H150.187z M204.8,484.907l-21.333-19.627l21.333-19.627V484.907z M204.8,408.96l-20.48-16.213l20.48-16.213V408.96z
			 M204.8,340.693l-20.48-16.213l20.48-16.213V340.693z M204.8,272.427l-20.48-16.213L204.8,240V272.427z M204.8,179.413v24.747
			l-20.48-16.213l20.48-16.213V179.413z M204.8,137.6l-19.627-13.653l19.627-13.653V137.6z M472.747,137.6l17.067,33.28H445.44
			L472.747,137.6z M408.747,102.613l-16.213,20.48l-16.213-20.48H408.747z M340.48,102.613l-16.213,20.48l-16.213-20.48H340.48z
			 M272.213,102.613L256,123.093l-16.213-20.48H272.213z M221.867,107.733l23.04,29.013l-23.04,29.013V107.733z M239.787,170.88
			L256,150.4l16.213,20.48H239.787z M267.093,136.747l23.04-29.013l23.04,29.013l-23.04,29.013L267.093,136.747z M308.053,170.88
			l16.213-20.48l16.213,20.48H308.053z M335.36,136.747l23.04-29.013l23.04,29.013L358.4,165.76L335.36,136.747z M376.32,170.88
			l16.213-20.48l16.213,20.48H376.32z M403.627,136.747l27.307-34.133h24.747l9.387,17.92l-38.4,45.227L403.627,136.747z
			 M418.133,247.68v-1.707c0-10.24,2.56-19.627,8.533-28.16c5.12,8.533,8.533,17.92,8.533,28.16v1.707H418.133z M392.533,392.747
			l34.133-45.227l34.133,45.227H392.533z"/>
	</g>
</g>
<g>
</g>
<g>
</g>
<g>
</g>
<g>
</g>
<g>
</g>
<g>
</g>
<g>
</g>
<g>
</g>
<g>
</g>
<g>
</g>
<g>
</g>
<g>
</g>
<g>
</g>
<g>
</g>
<g>
</g>
</svg>
