<?xml version="1.0" encoding="iso-8859-1"?>
<!-- Generator: Adobe Illustrator 19.0.0, SVG Export Plug-In . SVG Version: 6.00 Build 0)  -->
<svg version="1.1" id="Layer_1" xmlns="http://www.w3.org/2000/svg" xmlns:xlink="http://www.w3.org/1999/xlink" x="0px" y="0px"
	 viewBox="0 0 512 512" style="enable-background:new 0 0 512 512;" xml:space="preserve">
<g>
	<g>
		<g>
			<rect x="136.532" y="371.2" width="17.067" height="17.067"/>
			<rect x="290.133" y="371.2" width="17.067" height="17.067"/>
			<rect x="366.932" y="371.2" width="17.067" height="17.067"/>
			<rect x="59.732" y="371.2" width="17.067" height="17.067"/>
			<rect x="443.732" y="371.2" width="17.067" height="17.067"/>
			<path d="M503.467,311.467h-17.502c-4.309-77.875-66.765-140.331-144.64-144.631c0.008-0.145,0.008-0.29,0.008-0.435
				c0-5.939,0.034-11.605,0.102-17.067H170.564c0.068,5.598,0.111,11.401,0.111,17.502C92.8,171.136,30.345,233.592,26.035,311.467
				H8.533C3.823,311.467,0,315.281,0,320v153.6c0,4.719,3.823,8.533,8.533,8.533h494.933c4.71,0,8.533-3.814,8.533-8.533V320
				C512,315.281,508.177,311.467,503.467,311.467z M85.333,439.467H51.2c-4.71,0-8.533-3.814-8.533-8.533S46.49,422.4,51.2,422.4
				h34.133c4.71,0,8.533,3.814,8.533,8.533S90.044,439.467,85.333,439.467z M93.867,396.8c0,4.719-3.823,8.533-8.533,8.533H51.2
				c-4.71,0-8.533-3.814-8.533-8.533v-34.133c0-4.719,3.823-8.533,8.533-8.533h34.133c4.71,0,8.533,3.814,8.533,8.533V396.8z
				 M162.133,439.467H128c-4.71,0-8.533-3.814-8.533-8.533S123.29,422.4,128,422.4h34.133c4.71,0,8.533,3.814,8.533,8.533
				S166.844,439.467,162.133,439.467z M170.667,396.8c0,4.719-3.823,8.533-8.533,8.533H128c-4.71,0-8.533-3.814-8.533-8.533v-34.133
				c0-4.719,3.823-8.533,8.533-8.533h34.133c4.71,0,8.533,3.814,8.533,8.533V396.8z M238.933,439.467H204.8
				c-4.71,0-8.533-3.814-8.533-8.533s3.823-8.533,8.533-8.533h34.133c4.71,0,8.533,3.814,8.533,8.533
				S243.644,439.467,238.933,439.467z M247.467,396.8c0,4.719-3.823,8.533-8.533,8.533H204.8c-4.71,0-8.533-3.814-8.533-8.533
				v-34.133c0-4.719,3.823-8.533,8.533-8.533h34.133c4.71,0,8.533,3.814,8.533,8.533V396.8z M315.733,439.467H281.6
				c-4.71,0-8.533-3.814-8.533-8.533s3.823-8.533,8.533-8.533h34.133c4.71,0,8.533,3.814,8.533,8.533
				S320.444,439.467,315.733,439.467z M324.267,396.8c0,4.719-3.823,8.533-8.533,8.533H281.6c-4.71,0-8.533-3.814-8.533-8.533
				v-34.133c0-4.719,3.823-8.533,8.533-8.533h34.133c4.71,0,8.533,3.814,8.533,8.533V396.8z M392.533,439.467H358.4
				c-4.71,0-8.533-3.814-8.533-8.533s3.823-8.533,8.533-8.533h34.133c4.71,0,8.533,3.814,8.533,8.533
				S397.244,439.467,392.533,439.467z M401.067,396.8c0,4.719-3.823,8.533-8.533,8.533H358.4c-4.71,0-8.533-3.814-8.533-8.533
				v-34.133c0-4.719,3.823-8.533,8.533-8.533h34.133c4.71,0,8.533,3.814,8.533,8.533V396.8z M370.722,298.206
				c-17.468-18.441-24.764-52.019-27.725-80.606H169.02c-2.953,28.57-10.249,62.123-27.725,80.597
				c-8.448,8.926-18.381,13.269-30.362,13.269H43.102c4.267-68.548,59.221-123.426,127.795-127.582
				c-0.051,4.847-0.196,10.436-0.529,16.649h171.281c-0.341-6.212-0.486-11.802-0.538-16.649
				c68.565,4.156,123.52,59.042,127.787,127.582h-67.831C389.094,311.467,379.162,307.132,370.722,298.206z M469.333,439.467H435.2
				c-4.71,0-8.533-3.814-8.533-8.533s3.823-8.533,8.533-8.533h34.133c4.71,0,8.533,3.814,8.533,8.533
				S474.044,439.467,469.333,439.467z M477.867,396.8c0,4.719-3.823,8.533-8.533,8.533H435.2c-4.71,0-8.533-3.814-8.533-8.533
				v-34.133c0-4.719,3.823-8.533,8.533-8.533h34.133c4.71,0,8.533,3.814,8.533,8.533V396.8z"/>
			<rect x="213.333" y="371.2" width="17.067" height="17.067"/>
			<path d="M170.238,132.267h171.52c1.673-65.707,7.782-91.52,7.851-91.802c0.64-2.551,0.068-5.248-1.553-7.313
				c-1.613-2.074-4.096-3.285-6.724-3.285H170.665c-2.62,0-5.094,1.22-6.707,3.277c-1.621,2.065-2.202,4.762-1.579,7.305
				C162.456,40.747,168.549,66.483,170.238,132.267z"/>
		</g>
	</g>
</g>
<g>
</g>
<g>
</g>
<g>
</g>
<g>
</g>
<g>
</g>
<g>
</g>
<g>
</g>
<g>
</g>
<g>
</g>
<g>
</g>
<g>
</g>
<g>
</g>
<g>
</g>
<g>
</g>
<g>
</g>
</svg>
