<?xml version="1.0" encoding="iso-8859-1"?>
<!-- Generator: Adobe Illustrator 19.0.0, SVG Export Plug-In . SVG Version: 6.00 Build 0)  -->
<svg version="1.1" id="Layer_1" xmlns="http://www.w3.org/2000/svg" xmlns:xlink="http://www.w3.org/1999/xlink" x="0px" y="0px"
	 viewBox="0 0 512 512" style="enable-background:new 0 0 512 512;" xml:space="preserve">
<g>
	<g>
		<g>
			<path d="M503.467,494.933h-8.533V409.6H17.067v85.333H8.533c-4.71,0-8.533,3.814-8.533,8.533C0,508.186,3.823,512,8.533,512H25.6
				h460.8h17.067c4.71,0,8.533-3.814,8.533-8.533C512,498.748,508.177,494.933,503.467,494.933z M76.8,469.333
				c0,4.719-3.823,8.533-8.533,8.533s-8.533-3.814-8.533-8.533V435.2c0-4.719,3.823-8.533,8.533-8.533s8.533,3.814,8.533,8.533
				V469.333z M110.933,469.333c0,4.719-3.823,8.533-8.533,8.533c-4.71,0-8.533-3.814-8.533-8.533V435.2
				c0-4.719,3.823-8.533,8.533-8.533c4.71,0,8.533,3.814,8.533,8.533V469.333z M145.067,469.333c0,4.719-3.823,8.533-8.533,8.533
				S128,474.052,128,469.333V435.2c0-4.719,3.823-8.533,8.533-8.533s8.533,3.814,8.533,8.533V469.333z M179.2,469.333
				c0,4.719-3.823,8.533-8.533,8.533c-4.71,0-8.533-3.814-8.533-8.533V435.2c0-4.719,3.823-8.533,8.533-8.533
				c4.71,0,8.533,3.814,8.533,8.533V469.333z M213.333,469.333c0,4.719-3.823,8.533-8.533,8.533s-8.533-3.814-8.533-8.533V435.2
				c0-4.719,3.823-8.533,8.533-8.533s8.533,3.814,8.533,8.533V469.333z M247.467,469.333c0,4.719-3.823,8.533-8.533,8.533
				s-8.533-3.814-8.533-8.533V435.2c0-4.719,3.823-8.533,8.533-8.533s8.533,3.814,8.533,8.533V469.333z M281.6,469.333
				c0,4.719-3.823,8.533-8.533,8.533c-4.71,0-8.533-3.814-8.533-8.533V435.2c0-4.719,3.823-8.533,8.533-8.533
				c4.71,0,8.533,3.814,8.533,8.533V469.333z M315.733,469.333c0,4.719-3.823,8.533-8.533,8.533s-8.533-3.814-8.533-8.533V435.2
				c0-4.719,3.823-8.533,8.533-8.533s8.533,3.814,8.533,8.533V469.333z M349.867,469.333c0,4.719-3.823,8.533-8.533,8.533
				c-4.71,0-8.533-3.814-8.533-8.533V435.2c0-4.719,3.823-8.533,8.533-8.533c4.71,0,8.533,3.814,8.533,8.533V469.333z M384,469.333
				c0,4.719-3.823,8.533-8.533,8.533c-4.71,0-8.533-3.814-8.533-8.533V435.2c0-4.719,3.823-8.533,8.533-8.533
				c4.71,0,8.533,3.814,8.533,8.533V469.333z M418.133,469.333c0,4.719-3.823,8.533-8.533,8.533s-8.533-3.814-8.533-8.533V435.2
				c0-4.719,3.823-8.533,8.533-8.533s8.533,3.814,8.533,8.533V469.333z M452.267,469.333c0,4.719-3.823,8.533-8.533,8.533
				c-4.71,0-8.533-3.814-8.533-8.533V435.2c0-4.719,3.823-8.533,8.533-8.533c4.71,0,8.533,3.814,8.533,8.533V469.333z"/>
			<path d="M51.2,139.008v151.125H25.6c-4.71,0-8.533,3.814-8.533,8.533v93.867h477.867v-93.867v-102.4
				c0-4.719-3.823-8.533-8.533-8.533h-25.6v-42.667h8.533c4.71,0,8.533-3.814,8.533-8.533V102.4c0-4.719-3.823-8.533-8.533-8.533
				h-102.4c-4.71,0-8.533,3.814-8.533,8.533v34.133c0,4.719,3.823,8.533,8.533,8.533h8.533v42.667h-25.6
				c-4.71,0-8.533,3.814-8.533,8.533v93.867h-42.667V139.008c0-10.778-8.764-19.541-19.541-19.541h-63.317
				c-10.778,0-19.541,8.764-19.541,19.541v151.125H153.6V139.008c0-10.778-8.764-19.541-19.541-19.541H70.741
				C59.964,119.467,51.2,128.23,51.2,139.008z M435.2,332.8c0-4.719,3.823-8.533,8.533-8.533c4.71,0,8.533,3.814,8.533,8.533v34.133
				c0,4.719-3.823,8.533-8.533,8.533c-4.71,0-8.533-3.814-8.533-8.533V332.8z M401.067,332.8c0-4.719,3.823-8.533,8.533-8.533
				s8.533,3.814,8.533,8.533v34.133c0,4.719-3.823,8.533-8.533,8.533s-8.533-3.814-8.533-8.533V332.8z M366.933,332.8
				c0-4.719,3.823-8.533,8.533-8.533c4.71,0,8.533,3.814,8.533,8.533v34.133c0,4.719-3.823,8.533-8.533,8.533
				c-4.71,0-8.533-3.814-8.533-8.533V332.8z M332.8,332.8c0-4.719,3.823-8.533,8.533-8.533c4.71,0,8.533,3.814,8.533,8.533v34.133
				c0,4.719-3.823,8.533-8.533,8.533c-4.71,0-8.533-3.814-8.533-8.533V332.8z M298.667,332.8c0-4.719,3.823-8.533,8.533-8.533
				s8.533,3.814,8.533,8.533v34.133c0,4.719-3.823,8.533-8.533,8.533s-8.533-3.814-8.533-8.533V332.8z M264.533,332.8
				c0-4.719,3.823-8.533,8.533-8.533c4.71,0,8.533,3.814,8.533,8.533v34.133c0,4.719-3.823,8.533-8.533,8.533
				c-4.71,0-8.533-3.814-8.533-8.533V332.8z M230.4,332.8c0-4.719,3.823-8.533,8.533-8.533s8.533,3.814,8.533,8.533v34.133
				c0,4.719-3.823,8.533-8.533,8.533s-8.533-3.814-8.533-8.533V332.8z M196.267,332.8c0-4.719,3.823-8.533,8.533-8.533
				s8.533,3.814,8.533,8.533v34.133c0,4.719-3.823,8.533-8.533,8.533s-8.533-3.814-8.533-8.533V332.8z M162.133,332.8
				c0-4.719,3.823-8.533,8.533-8.533c4.71,0,8.533,3.814,8.533,8.533v34.133c0,4.719-3.823,8.533-8.533,8.533
				c-4.71,0-8.533-3.814-8.533-8.533V332.8z M128,332.8c0-4.719,3.823-8.533,8.533-8.533s8.533,3.814,8.533,8.533v34.133
				c0,4.719-3.823,8.533-8.533,8.533S128,371.652,128,366.933V332.8z M93.867,332.8c0-4.719,3.823-8.533,8.533-8.533
				c4.71,0,8.533,3.814,8.533,8.533v34.133c0,4.719-3.823,8.533-8.533,8.533c-4.71,0-8.533-3.814-8.533-8.533V332.8z M76.8,332.8
				v34.133c0,4.719-3.823,8.533-8.533,8.533s-8.533-3.814-8.533-8.533V332.8c0-4.719,3.823-8.533,8.533-8.533
				S76.8,328.081,76.8,332.8z"/>
			<path d="M25.6,51.2h68.267c9.412,0,17.067,7.654,17.067,17.067c0,4.719,3.823,8.533,8.533,8.533S128,72.986,128,68.267
				c0-18.825-15.309-34.133-34.133-34.133H25.6c-4.702,0-8.533-3.823-8.533-8.533c0-4.71,3.831-8.533,8.533-8.533h34.133
				c4.71,0,8.533-3.814,8.533-8.533S64.444,0,59.733,0H25.6C11.486,0,0,11.486,0,25.6S11.486,51.2,25.6,51.2z"/>
			<path d="M187.733,51.2H256c9.412,0,17.067,7.654,17.067,17.067c0,4.719,3.823,8.533,8.533,8.533s8.533-3.814,8.533-8.533
				c0-18.825-15.309-34.133-34.133-34.133h-68.267c-4.702,0-8.533-3.823-8.533-8.533c0-4.71,3.831-8.533,8.533-8.533h34.133
				c4.71,0,8.533-3.814,8.533-8.533S226.577,0,221.867,0h-34.133c-14.114,0-25.6,11.486-25.6,25.6S173.619,51.2,187.733,51.2z"/>
			<path d="M375.467,51.2h42.667c9.412,0,17.067,7.654,17.067,17.067c0,4.719,3.823,8.533,8.533,8.533
				c4.71,0,8.533-3.814,8.533-8.533c0-18.825-15.309-34.133-34.133-34.133h-42.667c-4.702,0-8.533-3.823-8.533-8.533
				c0-4.71,3.831-8.533,8.533-8.533H409.6c4.71,0,8.533-3.814,8.533-8.533S414.31,0,409.6,0h-34.133
				c-14.114,0-25.6,11.486-25.6,25.6S361.353,51.2,375.467,51.2z"/>
		</g>
	</g>
</g>
<g>
</g>
<g>
</g>
<g>
</g>
<g>
</g>
<g>
</g>
<g>
</g>
<g>
</g>
<g>
</g>
<g>
</g>
<g>
</g>
<g>
</g>
<g>
</g>
<g>
</g>
<g>
</g>
<g>
</g>
</svg>
