<?xml version="1.0" encoding="iso-8859-1"?>
<!-- Generator: Adobe Illustrator 19.0.0, SVG Export Plug-In . SVG Version: 6.00 Build 0)  -->
<svg version="1.1" id="Layer_1" xmlns="http://www.w3.org/2000/svg" xmlns:xlink="http://www.w3.org/1999/xlink" x="0px" y="0px"
	 viewBox="0 0 512 512" style="enable-background:new 0 0 512 512;" xml:space="preserve">
<g>
	<g>
		<path d="M196.267,324.267h-51.2c-5.12,0-8.533,3.413-8.533,8.533c0,5.12,3.413,8.533,8.533,8.533h51.2
			c5.12,0,8.533-3.413,8.533-8.533C204.8,327.68,201.387,324.267,196.267,324.267z"/>
	</g>
</g>
<g>
	<g>
		<path d="M213.333,358.4H128c-5.12,0-8.533,3.413-8.533,8.533s3.413,8.533,8.533,8.533h85.333c5.12,0,8.533-3.413,8.533-8.533
			S218.453,358.4,213.333,358.4z"/>
	</g>
</g>
<g>
	<g>
		<path d="M455.68,145.067h-3.413V85.333c10.24-7.68,17.067-19.627,17.067-34.133c0-23.893-18.773-42.667-42.667-42.667
			c-13.653,0-26.453,6.827-34.133,17.067H219.307C208.213,10.24,190.293,0,170.667,0c-33.28,0-59.733,26.453-59.733,59.733V222.72
			C91.307,226.987,76.8,244.053,76.8,264.533v128h-8.533c-5.12,0-8.533,3.413-8.533,8.533v25.6H51.2
			c-5.12,0-8.533,3.413-8.533,8.533v25.6h-8.533c-5.12,0-8.533,3.413-8.533,8.533v34.133c0,5.12,3.413,8.533,8.533,8.533H307.2
			c5.12,0,8.533-3.413,8.533-8.533v-34.133c0-5.12-3.413-8.533-8.533-8.533h-8.533v-25.6c0-5.12-3.413-8.533-8.533-8.533H281.6
			v-25.6c0-5.12-3.413-8.533-8.533-8.533h-8.533v-128c0-20.48-14.507-37.547-34.133-41.813V76.8h162.133
			c2.56,3.413,5.12,5.973,8.533,8.533v59.733h-3.413c-17.067,0-30.72,13.653-30.72,30.72v63.147c0,5.12,3.413,8.533,8.533,8.533
			H409.6c5.12,0,8.533-3.413,8.533-8.533v-42.667H435.2v42.667c0,5.12,3.413,8.533,8.533,8.533h34.133
			c5.12,0,8.533-3.413,8.533-8.533v-63.147C486.4,158.72,472.747,145.067,455.68,145.067z M162.133,51.2
			c0-5.12,3.413-8.533,8.533-8.533S179.2,46.08,179.2,51.2V256c0,5.12-3.413,8.533-8.533,8.533s-8.533-3.413-8.533-8.533V51.2z
			 M273.067,443.733h8.533V460.8H59.733v-17.067h8.533H273.067z M247.467,264.533v128h-153.6v-128
			c0-11.093,6.827-20.48,17.067-23.893v6.827c0,1.707,0,4.267,0,5.973v0.853c0,1.707,0.853,3.413,0.853,5.12v0.853
			c0,1.707,0.853,3.413,1.707,5.12v0.853c0.853,1.707,0.853,3.413,1.707,5.12v0.853c0.853,1.707,1.707,3.413,2.56,4.267
			c0,0,0,0.853,0.853,0.853c0.853,1.707,1.707,2.56,2.56,4.267l0.853,0.853c0.853,1.707,1.707,2.56,3.413,4.267l0.853,0.853
			c0.853,1.707,2.56,2.56,3.413,3.413c0,0,0,0,0.853,0.853c1.707,1.707,3.413,2.56,4.267,3.413c6.827,5.12,14.507,8.533,23.04,9.387
			h0.853c1.707,0,3.413,0.853,5.12,0.853c0.853,0,1.707,0,2.56,0s1.707,0,2.56,0h0.853c0.853,0,1.707,0,2.56,0s2.56,0,3.413,0h0.853
			c0.853,0,1.707,0,2.56,0s1.707,0,2.56,0c0.853,0,1.707-0.853,3.413-0.853c0.853,0,1.707-0.853,2.56-0.853
			c0.853,0,0.853,0,1.707-0.853c23.04-8.533,40.107-30.72,40.107-56.32v-1.707v-5.12C240.64,244.053,247.467,253.44,247.467,264.533
			z M384.853,59.733H230.4c0-2.56,0-5.12-0.853-7.68c0-0.853,0-0.853,0-1.707c0-2.56-0.853-5.12-1.707-7.68h157.013
			C384,45.227,384,48.64,384,51.2S384,57.173,384.853,59.733z M435.2,145.067h-17.067v-51.2H435.2V145.067z"/>
	</g>
</g>
<g>
</g>
<g>
</g>
<g>
</g>
<g>
</g>
<g>
</g>
<g>
</g>
<g>
</g>
<g>
</g>
<g>
</g>
<g>
</g>
<g>
</g>
<g>
</g>
<g>
</g>
<g>
</g>
<g>
</g>
</svg>
