<?xml version="1.0" encoding="iso-8859-1"?>
<!-- Generator: Adobe Illustrator 19.0.0, SVG Export Plug-In . SVG Version: 6.00 Build 0)  -->
<svg version="1.1" id="Layer_1" xmlns="http://www.w3.org/2000/svg" xmlns:xlink="http://www.w3.org/1999/xlink" x="0px" y="0px"
	 viewBox="0 0 512 512" style="enable-background:new 0 0 512 512;" xml:space="preserve">
<g>
	<g>
		<g>
			<path d="M93.867,315.733H59.733c-4.71,0-8.533,3.814-8.533,8.533v51.2c0,4.719,3.823,8.533,8.533,8.533h34.133
				c4.71,0,8.533-3.814,8.533-8.533v-51.2C102.4,319.548,98.577,315.733,93.867,315.733z"/>
			<path d="M93.867,409.6H59.733c-4.71,0-8.533,3.814-8.533,8.533v51.2c0,4.719,3.823,8.533,8.533,8.533h34.133
				c4.71,0,8.533-3.814,8.533-8.533v-51.2C102.4,413.414,98.577,409.6,93.867,409.6z"/>
			<path d="M76.8,76.8c4.71,0,8.533-3.814,8.533-8.533c0-9.412,7.654-17.067,17.067-17.067H128c14.114,0,25.6-11.486,25.6-25.6
				S142.114,0,128,0h-25.6c-4.71,0-8.533,3.814-8.533,8.533s3.823,8.533,8.533,8.533H128c4.702,0,8.533,3.823,8.533,8.533
				c0,4.71-3.831,8.533-8.533,8.533h-25.6c-18.825,0-34.133,15.309-34.133,34.133C68.267,72.986,72.09,76.8,76.8,76.8z"/>
			<path d="M499.635,231.808c-2.398-1.579-5.436-1.852-8.064-0.717L384,277.197v-38.263c0-2.867-1.442-5.538-3.84-7.125
				c-2.381-1.587-5.419-1.86-8.055-0.717l-107.571,46.106v-38.263c0-2.867-1.442-5.538-3.84-7.125
				c-2.381-1.587-5.419-1.86-8.055-0.717L134.784,281.6h-23.851V145.067h8.533c4.71,0,8.533-3.814,8.533-8.533V102.4
				c0-4.719-3.823-8.533-8.533-8.533H34.133c-4.71,0-8.533,3.814-8.533,8.533v34.133c0,4.719,3.823,8.533,8.533,8.533h8.533V281.6
				h-25.6c-4.71,0-8.533,3.814-8.533,8.533v213.333c0,4.719,3.823,8.533,8.533,8.533h119.467H256h119.467h119.467
				c4.719,0,8.533-3.814,8.533-8.533V238.933C503.467,236.066,502.025,233.395,499.635,231.808z M128,494.933H25.6V298.667h25.6
				h51.2H128V494.933z M213.333,469.333H179.2c-4.71,0-8.533-3.814-8.533-8.533c0-4.719,3.823-8.533,8.533-8.533h34.133
				c4.71,0,8.533,3.814,8.533,8.533C221.867,465.519,218.044,469.333,213.333,469.333z M213.333,435.2H179.2
				c-4.71,0-8.533-3.814-8.533-8.533s3.823-8.533,8.533-8.533h34.133c4.71,0,8.533,3.814,8.533,8.533S218.044,435.2,213.333,435.2z
				 M213.333,401.067H179.2c-4.71,0-8.533-3.814-8.533-8.533c0-4.719,3.823-8.533,8.533-8.533h34.133
				c4.71,0,8.533,3.814,8.533,8.533C221.867,397.252,218.044,401.067,213.333,401.067z M213.333,366.933H179.2
				c-4.71,0-8.533-3.814-8.533-8.533s3.823-8.533,8.533-8.533h34.133c4.71,0,8.533,3.814,8.533,8.533
				S218.044,366.933,213.333,366.933z M213.333,332.8H179.2c-4.71,0-8.533-3.814-8.533-8.533c0-4.719,3.823-8.533,8.533-8.533
				h34.133c4.71,0,8.533,3.814,8.533,8.533C221.867,328.986,218.044,332.8,213.333,332.8z M332.8,469.333h-34.133
				c-4.71,0-8.533-3.814-8.533-8.533c0-4.719,3.823-8.533,8.533-8.533H332.8c4.71,0,8.533,3.814,8.533,8.533
				C341.333,465.519,337.51,469.333,332.8,469.333z M332.8,435.2h-34.133c-4.71,0-8.533-3.814-8.533-8.533s3.823-8.533,8.533-8.533
				H332.8c4.71,0,8.533,3.814,8.533,8.533S337.51,435.2,332.8,435.2z M332.8,401.067h-34.133c-4.71,0-8.533-3.814-8.533-8.533
				c0-4.719,3.823-8.533,8.533-8.533H332.8c4.71,0,8.533,3.814,8.533,8.533C341.333,397.252,337.51,401.067,332.8,401.067z
				 M332.8,366.933h-34.133c-4.71,0-8.533-3.814-8.533-8.533s3.823-8.533,8.533-8.533H332.8c4.71,0,8.533,3.814,8.533,8.533
				S337.51,366.933,332.8,366.933z M332.8,332.8h-34.133c-4.71,0-8.533-3.814-8.533-8.533c0-4.719,3.823-8.533,8.533-8.533H332.8
				c4.71,0,8.533,3.814,8.533,8.533C341.333,328.986,337.51,332.8,332.8,332.8z M452.267,469.333h-34.133
				c-4.719,0-8.533-3.814-8.533-8.533c0-4.719,3.814-8.533,8.533-8.533h34.133c4.719,0,8.533,3.814,8.533,8.533
				C460.8,465.519,456.986,469.333,452.267,469.333z M452.267,435.2h-34.133c-4.719,0-8.533-3.814-8.533-8.533
				s3.814-8.533,8.533-8.533h34.133c4.719,0,8.533,3.814,8.533,8.533S456.986,435.2,452.267,435.2z M452.267,401.067h-34.133
				c-4.719,0-8.533-3.814-8.533-8.533c0-4.719,3.814-8.533,8.533-8.533h34.133c4.719,0,8.533,3.814,8.533,8.533
				C460.8,397.252,456.986,401.067,452.267,401.067z M452.267,366.933h-34.133c-4.719,0-8.533-3.814-8.533-8.533
				s3.814-8.533,8.533-8.533h34.133c4.719,0,8.533,3.814,8.533,8.533S456.986,366.933,452.267,366.933z M452.267,332.8h-34.133
				c-4.719,0-8.533-3.814-8.533-8.533c0-4.719,3.814-8.533,8.533-8.533h34.133c4.719,0,8.533,3.814,8.533,8.533
				C460.8,328.986,456.986,332.8,452.267,332.8z"/>
		</g>
	</g>
</g>
<g>
</g>
<g>
</g>
<g>
</g>
<g>
</g>
<g>
</g>
<g>
</g>
<g>
</g>
<g>
</g>
<g>
</g>
<g>
</g>
<g>
</g>
<g>
</g>
<g>
</g>
<g>
</g>
<g>
</g>
</svg>
