<?xml version="1.0" encoding="iso-8859-1"?>
<!-- Generator: Adobe Illustrator 19.0.0, SVG Export Plug-In . SVG Version: 6.00 Build 0)  -->
<svg version="1.1" id="Layer_1" xmlns="http://www.w3.org/2000/svg" xmlns:xlink="http://www.w3.org/1999/xlink" x="0px" y="0px"
	 viewBox="0 0 512 512" style="enable-background:new 0 0 512 512;" xml:space="preserve">
<g>
	<g>
		<rect x="358.4" y="153.6" width="51.2" height="34.133"/>
	</g>
</g>
<g>
	<g>
		<rect x="110.933" y="68.267" width="85.333" height="51.2"/>
	</g>
</g>
<g>
	<g>
		<path d="M290.133,324.267c-5.12,0-8.533,3.413-8.533,8.533c0,5.12,3.413,8.533,8.533,8.533s8.533-3.413,8.533-8.533
			C298.667,327.68,295.253,324.267,290.133,324.267z"/>
	</g>
</g>
<g>
	<g>
		<path d="M358.4,324.267c-5.12,0-8.533,3.413-8.533,8.533c0,5.12,3.413,8.533,8.533,8.533s8.533-3.413,8.533-8.533
			C366.933,327.68,363.52,324.267,358.4,324.267z"/>
	</g>
</g>
<g>
	<g>
		<path d="M221.867,324.267c-5.12,0-8.533,3.413-8.533,8.533c0,5.12,3.413,8.533,8.533,8.533s8.533-3.413,8.533-8.533
			C230.4,327.68,226.987,324.267,221.867,324.267z"/>
	</g>
</g>
<g>
	<g>
		<path d="M85.333,324.267c-5.12,0-8.533,3.413-8.533,8.533c0,5.12,3.413,8.533,8.533,8.533c5.12,0,8.533-3.413,8.533-8.533
			C93.867,327.68,90.453,324.267,85.333,324.267z"/>
	</g>
</g>
<g>
	<g>
		<path d="M153.6,324.267c-5.12,0-8.533,3.413-8.533,8.533c0,5.12,3.413,8.533,8.533,8.533c5.12,0,8.533-3.413,8.533-8.533
			C162.133,327.68,158.72,324.267,153.6,324.267z"/>
	</g>
</g>
<g>
	<g>
		<path d="M426.667,324.267c-5.12,0-8.533,3.413-8.533,8.533c0,5.12,3.413,8.533,8.533,8.533s8.533-3.413,8.533-8.533
			C435.2,327.68,431.787,324.267,426.667,324.267z"/>
	</g>
</g>
<g>
	<g>
		<path d="M491.52,392.533c11.093,0,20.48-9.387,20.48-20.48v-79.36c0-10.24-7.68-18.773-17.067-19.627v-30.72
			c0-11.947-9.387-21.333-21.333-21.333h-4.267V59.733c0-14.507-11.093-25.6-25.6-25.6h-179.2V25.6c0-14.507-11.093-25.6-25.6-25.6
			H68.267c-14.507,0-25.6,11.093-25.6,25.6v196.267H38.4c-11.947,0-21.333,9.387-21.333,21.333v29.867
			C7.68,274.773,0,283.307,0,292.693v79.36c0,11.093,9.387,20.48,20.48,20.48h5.12v102.4H8.533c-5.12,0-8.533,3.413-8.533,8.533
			S3.413,512,8.533,512h25.6h51.2h341.333h51.2h25.6c5.12,0,8.533-3.413,8.533-8.533s-3.413-8.533-8.533-8.533H486.4v-102.4H491.52z
			 M341.333,145.067c0-5.12,3.413-8.533,8.533-8.533h68.267c5.12,0,8.533,3.413,8.533,8.533v51.2c0,5.12-3.413,8.533-8.533,8.533
			h-68.267c-5.12,0-8.533-3.413-8.533-8.533V145.067z M93.867,59.733c0-5.12,3.413-8.533,8.533-8.533h102.4
			c5.12,0,8.533,3.413,8.533,8.533V128c0,5.12-3.413,8.533-8.533,8.533H102.4c-5.12,0-8.533-3.413-8.533-8.533V59.733z
			 M76.8,494.933H42.667v-102.4H76.8V494.933z M59.733,332.8c0-14.507,11.093-25.6,25.6-25.6c14.507,0,25.6,11.093,25.6,25.6
			c0,14.507-11.093,25.6-25.6,25.6C70.827,358.4,59.733,347.307,59.733,332.8z M418.133,494.933H93.867v-102.4h324.267V494.933z
			 M128,332.8c0-14.507,11.093-25.6,25.6-25.6c14.507,0,25.6,11.093,25.6,25.6c0,14.507-11.093,25.6-25.6,25.6
			C139.093,358.4,128,347.307,128,332.8z M196.267,332.8c0-14.507,11.093-25.6,25.6-25.6c14.507,0,25.6,11.093,25.6,25.6
			c0,14.507-11.093,25.6-25.6,25.6C207.36,358.4,196.267,347.307,196.267,332.8z M264.533,332.8c0-14.507,11.093-25.6,25.6-25.6
			c14.507,0,25.6,11.093,25.6,25.6c0,14.507-11.093,25.6-25.6,25.6C275.627,358.4,264.533,347.307,264.533,332.8z M332.8,332.8
			c0-14.507,11.093-25.6,25.6-25.6s25.6,11.093,25.6,25.6c0,14.507-11.093,25.6-25.6,25.6S332.8,347.307,332.8,332.8z
			 M401.067,332.8c0-14.507,11.093-25.6,25.6-25.6s25.6,11.093,25.6,25.6c0,14.507-11.093,25.6-25.6,25.6
			S401.067,347.307,401.067,332.8z M469.333,494.933H435.2v-102.4h34.133V494.933z M477.867,273.067H34.133V243.2
			c0-2.56,1.707-4.267,4.267-4.267h12.8H256h204.8h12.8c2.56,0,4.267,1.707,4.267,4.267V273.067z"/>
	</g>
</g>
<g>
</g>
<g>
</g>
<g>
</g>
<g>
</g>
<g>
</g>
<g>
</g>
<g>
</g>
<g>
</g>
<g>
</g>
<g>
</g>
<g>
</g>
<g>
</g>
<g>
</g>
<g>
</g>
<g>
</g>
</svg>
