<?xml version="1.0" encoding="iso-8859-1"?>
<!-- Generator: Adobe Illustrator 19.0.0, SVG Export Plug-In . SVG Version: 6.00 Build 0)  -->
<svg version="1.1" id="Layer_1" xmlns="http://www.w3.org/2000/svg" xmlns:xlink="http://www.w3.org/1999/xlink" x="0px" y="0px"
	 viewBox="0 0 512 512" style="enable-background:new 0 0 512 512;" xml:space="preserve">
<g>
	<g>
		<rect x="375.467" y="217.6" width="17.067" height="17.067"/>
	</g>
</g>
<g>
	<g>
		<rect x="443.733" y="217.6" width="17.067" height="17.067"/>
	</g>
</g>
<g>
	<g>
		<rect x="375.467" y="55.467" width="85.333" height="51.2"/>
	</g>
</g>
<g>
	<g>
		<path d="M358.4,320c-5.12,0-8.533,3.413-8.533,8.533s3.413,8.533,8.533,8.533s8.533-3.413,8.533-8.533S363.52,320,358.4,320z"/>
	</g>
</g>
<g>
	<g>
		<path d="M290.133,320c-5.12,0-8.533,3.413-8.533,8.533s3.413,8.533,8.533,8.533s8.533-3.413,8.533-8.533S295.253,320,290.133,320z
			"/>
	</g>
</g>
<g>
	<g>
		<path d="M221.867,320c-5.12,0-8.533,3.413-8.533,8.533s3.413,8.533,8.533,8.533s8.533-3.413,8.533-8.533S226.987,320,221.867,320z
			"/>
	</g>
</g>
<g>
	<g>
		<path d="M153.6,320c-5.12,0-8.533,3.413-8.533,8.533s3.413,8.533,8.533,8.533c5.12,0,8.533-3.413,8.533-8.533
			S158.72,320,153.6,320z"/>
	</g>
</g>
<g>
	<g>
		<path d="M426.667,320c-5.12,0-8.533,3.413-8.533,8.533s3.413,8.533,8.533,8.533s8.533-3.413,8.533-8.533S431.787,320,426.667,320z
			"/>
	</g>
</g>
<g>
	<g>
		<path d="M85.333,320c-5.12,0-8.533,3.413-8.533,8.533s3.413,8.533,8.533,8.533c5.12,0,8.533-3.413,8.533-8.533
			S90.453,320,85.333,320z"/>
	</g>
</g>
<g>
	<g>
		<path d="M503.467,4.267H332.8c-5.12,0-8.533,3.413-8.533,8.533v256H256v-25.6c0-5.12-3.413-8.533-8.533-8.533H230.4v-25.6
			c0-5.12-3.413-8.533-8.533-8.533h-51.2v-17.067h93.867c5.12,0,8.533-3.413,8.533-8.533v-102.4c0-5.12-3.413-8.533-8.533-8.533
			h-204.8c-5.12,0-8.533,3.413-8.533,8.533v102.4c0,5.12,3.413,8.533,8.533,8.533H153.6v17.067h-51.2
			c-5.12,0-8.533,3.413-8.533,8.533v25.6H76.8c-5.12,0-8.533,3.413-8.533,8.533v25.6H8.533c-5.12,0-8.533,3.413-8.533,8.533v102.4
			c0,5.12,3.413,8.533,8.533,8.533H25.6v102.4H8.533C3.413,490.667,0,494.08,0,499.2s3.413,8.533,8.533,8.533h25.6h51.2h341.333
			h51.2h25.6c5.12,0,8.533-3.413,8.533-8.533s-3.413-8.533-8.533-8.533H486.4v-102.4h17.067c5.12,0,8.533-3.413,8.533-8.533v-102.4
			V12.8C512,7.68,508.587,4.267,503.467,4.267z M358.4,149.333c0-5.12,3.413-8.533,8.533-8.533s8.533,3.413,8.533,8.533v25.6
			c0,5.12-3.413,8.533-8.533,8.533s-8.533-3.413-8.533-8.533V149.333z M358.4,209.067c0-5.12,3.413-8.533,8.533-8.533h34.133
			c5.12,0,8.533,3.413,8.533,8.533V243.2c0,5.12-3.413,8.533-8.533,8.533h-34.133c-5.12,0-8.533-3.413-8.533-8.533V209.067z
			 M392.533,174.933v-25.6c0-5.12,3.413-8.533,8.533-8.533c5.12,0,8.533,3.413,8.533,8.533v25.6c0,5.12-3.413,8.533-8.533,8.533
			C395.947,183.467,392.533,180.053,392.533,174.933z M358.4,302.933c14.507,0,25.6,11.093,25.6,25.6s-11.093,25.6-25.6,25.6
			s-25.6-11.093-25.6-25.6S343.893,302.933,358.4,302.933z M290.133,302.933c14.507,0,25.6,11.093,25.6,25.6s-11.093,25.6-25.6,25.6
			c-14.507,0-25.6-11.093-25.6-25.6S275.627,302.933,290.133,302.933z M247.467,328.533c0,14.507-11.093,25.6-25.6,25.6
			c-14.507,0-25.6-11.093-25.6-25.6s11.093-25.6,25.6-25.6C236.373,302.933,247.467,314.027,247.467,328.533z M85.333,251.733H102.4
			h119.467h17.067V268.8h-153.6V251.733z M179.2,328.533c0,14.507-11.093,25.6-25.6,25.6c-14.507,0-25.6-11.093-25.6-25.6
			s11.093-25.6,25.6-25.6C168.107,302.933,179.2,314.027,179.2,328.533z M76.8,490.667H42.667v-102.4H76.8V490.667z M59.733,328.533
			c0-14.507,11.093-25.6,25.6-25.6c14.507,0,25.6,11.093,25.6,25.6s-11.093,25.6-25.6,25.6
			C70.827,354.133,59.733,343.04,59.733,328.533z M418.133,490.667H93.867v-102.4h324.267V490.667z M401.067,328.533
			c0-14.507,11.093-25.6,25.6-25.6s25.6,11.093,25.6,25.6s-11.093,25.6-25.6,25.6S401.067,343.04,401.067,328.533z M469.333,490.667
			H435.2v-102.4h34.133V490.667z M477.867,243.2c0,5.12-3.413,8.533-8.533,8.533H435.2c-5.12,0-8.533-3.413-8.533-8.533v-34.133
			c0-5.12,3.413-8.533,8.533-8.533h34.133c5.12,0,8.533,3.413,8.533,8.533V243.2z M426.667,174.933v-25.6
			c0-5.12,3.413-8.533,8.533-8.533s8.533,3.413,8.533,8.533v25.6c0,5.12-3.413,8.533-8.533,8.533S426.667,180.053,426.667,174.933z
			 M477.867,174.933c0,5.12-3.413,8.533-8.533,8.533s-8.533-3.413-8.533-8.533v-25.6c0-5.12,3.413-8.533,8.533-8.533
			s8.533,3.413,8.533,8.533V174.933z M477.867,115.2c0,5.12-3.413,8.533-8.533,8.533h-102.4c-5.12,0-8.533-3.413-8.533-8.533V46.933
			c0-5.12,3.413-8.533,8.533-8.533h102.4c5.12,0,8.533,3.413,8.533,8.533V115.2z"/>
	</g>
</g>
<g>
</g>
<g>
</g>
<g>
</g>
<g>
</g>
<g>
</g>
<g>
</g>
<g>
</g>
<g>
</g>
<g>
</g>
<g>
</g>
<g>
</g>
<g>
</g>
<g>
</g>
<g>
</g>
<g>
</g>
</svg>
