<?xml version="1.0" encoding="iso-8859-1"?>
<!-- Generator: Adobe Illustrator 19.0.0, SVG Export Plug-In . SVG Version: 6.00 Build 0)  -->
<svg version="1.1" id="Layer_1" xmlns="http://www.w3.org/2000/svg" xmlns:xlink="http://www.w3.org/1999/xlink" x="0px" y="0px"
	 viewBox="0 0 512 512" style="enable-background:new 0 0 512 512;" xml:space="preserve">
<g>
	<g>
		<rect x="34.133" y="418.133" width="68.267" height="93.867"/>
	</g>
</g>
<g>
	<g>
		<rect x="409.6" y="418.133" width="68.267" height="93.867"/>
	</g>
</g>
<g>
	<g>
		<path d="M503.467,42.667h-25.6v-23.04C477.867,8.533,469.333,0,458.24,0h-28.16c-11.947,0-20.48,8.533-20.48,19.627v23.04H102.4
			v-23.04C102.4,8.533,93.867,0,82.773,0H53.76C42.667,0,34.133,8.533,34.133,19.627v23.04h-25.6C3.413,42.667,0,46.08,0,51.2
			v42.667c0,5.12,3.413,8.533,8.533,8.533h25.6v298.667H102.4V136.533h119.467c-5.12,6.827-8.533,16.213-8.533,25.6
			c0,13.653,6.827,26.453,17.067,34.133V256c0,5.12,3.413,8.533,8.533,8.533h8.533v69.12c-38.4,4.267-68.267,36.693-68.267,75.947
			c0,21.333,5.12,34.987,19.627,48.64c1.707,1.707,3.413,2.56,5.973,2.56s4.267-0.853,5.973-2.56c3.413-3.413,3.413-8.533,0-11.947
			c-11.093-11.093-14.507-19.627-14.507-36.693c0-33.28,26.453-59.733,59.733-59.733c33.28,0,59.733,26.453,59.733,59.733
			c0,16.213-3.413,25.6-14.507,36.693c-3.413,3.413-3.413,8.533,0,11.947c3.413,3.413,8.533,3.413,11.947,0
			c13.653-14.507,19.627-28.16,19.627-48.64c0-39.253-29.867-71.68-68.267-75.947v-69.12h8.533c5.12,0,8.533-3.413,8.533-8.533
			v-59.733c10.24-7.68,17.067-19.627,17.067-34.133c0-9.387-3.413-18.773-8.533-25.6H409.6v264.533h68.267V102.4h25.6
			c5.12,0,8.533-3.413,8.533-8.533V51.2C512,46.08,508.587,42.667,503.467,42.667z M34.133,85.333H17.067v-25.6h17.067V85.333z
			 M409.6,85.333H102.4v-25.6h307.2V85.333z M494.933,85.333h-17.067v-25.6h17.067V85.333z"/>
	</g>
</g>
<g>
</g>
<g>
</g>
<g>
</g>
<g>
</g>
<g>
</g>
<g>
</g>
<g>
</g>
<g>
</g>
<g>
</g>
<g>
</g>
<g>
</g>
<g>
</g>
<g>
</g>
<g>
</g>
<g>
</g>
</svg>
