<?xml version="1.0" encoding="iso-8859-1"?>
<!-- Generator: Adobe Illustrator 19.0.0, SVG Export Plug-In . SVG Version: 6.00 Build 0)  -->
<svg version="1.1" id="Layer_1" xmlns="http://www.w3.org/2000/svg" xmlns:xlink="http://www.w3.org/1999/xlink" x="0px" y="0px"
	 viewBox="0 0 512 512" style="enable-background:new 0 0 512 512;" xml:space="preserve">
<g>
	<g>
		<path d="M488.841,89.709h-23.159h-53.971H144.154c-39.805,0-75.363,18.462-98.616,47.253l-14.32-5.316
			c-7.105-2.637-15.056-1.63-21.283,2.699C3.712,138.675,0,145.775,0,153.359v207.768h488.841v-225.1
			c12.79,0,23.159-10.369,23.159-23.159C512,100.078,501.631,89.709,488.841,89.709z M114.559,162.584
			c8.785-4.846,18.873-7.613,29.595-7.613c26.338,0,48.853,16.653,57.59,39.978L114.559,162.584z M353.827,187.578
			c-13.444,30.801-48.657,45.765-80.165,34.068l-2.873-1.067c0.045-1.376,0.105-2.747,0.105-4.133
			c0-30.506-10.837-58.525-28.859-80.421h134.298L353.827,187.578z"/>
	</g>
</g>
<g>
	<g>
		<path d="M0,382.742v16.39c0,12.79,10.369,23.159,23.159,23.159h442.524c12.79,0,23.159-10.369,23.159-23.159v-16.39H0z"/>
	</g>
</g>
<g>
</g>
<g>
</g>
<g>
</g>
<g>
</g>
<g>
</g>
<g>
</g>
<g>
</g>
<g>
</g>
<g>
</g>
<g>
</g>
<g>
</g>
<g>
</g>
<g>
</g>
<g>
</g>
<g>
</g>
</svg>
