<?xml version="1.0" encoding="iso-8859-1"?>
<!-- Generator: Adobe Illustrator 19.0.0, SVG Export Plug-In . SVG Version: 6.00 Build 0)  -->
<svg version="1.1" id="Layer_1" xmlns="http://www.w3.org/2000/svg" xmlns:xlink="http://www.w3.org/1999/xlink" x="0px" y="0px"
	 viewBox="0 0 511.999 511.999" style="enable-background:new 0 0 511.999 511.999;" xml:space="preserve">
<g>
	<g>
		<path d="M492.767,112.463l-24.663-99.69c-1.455-5.887-5.97-10.533-11.81-12.158c-5.845-1.625-12.108,0.021-16.394,4.308
			L353.38,91.444l-1.929-1.929c-9.377-9.378-24.583-9.378-33.961,0L90.883,316.122l48.866,48.866l209.625-209.627l26.038,26.038
			L165.787,391.024l48.865,48.866l226.606-226.606c9.378-9.378,9.378-24.583,0-33.961l-1.929-1.929l49.007-49.007
			C492.502,124.222,494.183,118.18,492.767,112.463z"/>
	</g>
</g>
<g>
	<g>
		<path d="M139.749,417.062l-24.267,24.267c-3.596,3.596-8.306,5.392-13.019,5.392s-9.423-1.798-13.019-5.392
			c-7.19-7.19-7.19-18.846,0-26.038l24.267-24.267l-48.866-48.866l-24.267,24.267c-14.082,14.082-21.839,32.805-21.839,52.72
			c0,19.914,7.757,38.638,21.839,52.72l18.329,18.331c14.535,14.535,33.628,21.803,52.72,21.803
			c19.093,0,38.186-7.268,52.721-21.803l24.267-24.267L139.749,417.062z"/>
	</g>
</g>
<g>
</g>
<g>
</g>
<g>
</g>
<g>
</g>
<g>
</g>
<g>
</g>
<g>
</g>
<g>
</g>
<g>
</g>
<g>
</g>
<g>
</g>
<g>
</g>
<g>
</g>
<g>
</g>
<g>
</g>
</svg>
