<?xml version="1.0" encoding="iso-8859-1"?>
<!-- Generator: Adobe Illustrator 19.0.0, SVG Export Plug-In . SVG Version: 6.00 Build 0)  -->
<svg version="1.1" id="Layer_1" xmlns="http://www.w3.org/2000/svg" xmlns:xlink="http://www.w3.org/1999/xlink" x="0px" y="0px"
	 viewBox="0 0 512.001 512.001" style="enable-background:new 0 0 512.001 512.001;" xml:space="preserve">
<g>
	<g>
		<path d="M365.338,85.68c-0.646-23.072-10.116-44.638-26.662-60.729C322.129,8.862,300.306,0,277.226,0h-42.449
			c-23.08,0-44.903,8.862-61.45,24.951c-16.547,16.091-26.016,37.658-26.662,60.73l-5.249,187.625h229.172L365.338,85.68z"/>
	</g>
</g>
<g>
	<g>
		<path d="M442.374,227.241H395.62c-11.028,0-19.969,8.941-19.969,19.969c0,5.828,2.512,11.057,6.495,14.708v11.39v17.306H129.855
			v-17.306v-11.39c3.983-3.65,6.495-8.879,6.495-14.708c0-11.028-8.941-19.969-19.969-19.969H69.627
			c-11.028,0-19.969,8.941-19.969,19.969s8.941,19.969,19.969,19.969h20.291v33.975c0,38.666,31.457,70.124,70.124,70.124h75.99
			v81.449h-38.225c-11.028,0-19.969,8.941-19.969,19.969v19.338c0,11.028,8.941,19.969,19.969,19.969
			c10.818,0,19.625-8.601,19.958-19.338h18.299c0.336,10.734,9.122,19.338,19.937,19.338s19.601-8.604,19.937-19.338h18.299
			c0.333,10.735,9.14,19.338,19.958,19.338c11.028,0,19.969-8.941,19.969-19.969v-19.338c0-11.028-8.941-19.969-19.969-19.969
			h-38.225v-81.449h75.99c38.667,0,70.124-31.457,70.124-70.124v-33.975h20.291c11.028,0,19.969-8.941,19.969-19.969
			S453.402,227.241,442.374,227.241z"/>
	</g>
</g>
<g>
</g>
<g>
</g>
<g>
</g>
<g>
</g>
<g>
</g>
<g>
</g>
<g>
</g>
<g>
</g>
<g>
</g>
<g>
</g>
<g>
</g>
<g>
</g>
<g>
</g>
<g>
</g>
<g>
</g>
</svg>
