<?xml version="1.0" encoding="iso-8859-1"?>
<!-- Generator: Adobe Illustrator 19.0.0, SVG Export Plug-In . SVG Version: 6.00 Build 0)  -->
<svg version="1.1" id="Layer_1" xmlns="http://www.w3.org/2000/svg" xmlns:xlink="http://www.w3.org/1999/xlink" x="0px" y="0px"
	 viewBox="0 0 511.998 511.998" style="enable-background:new 0 0 511.998 511.998;" xml:space="preserve">
<g>
	<g>
		<path d="M490.066,153.993H238.529c24.318,21.164,39.734,52.303,39.734,86.997c0,35.327-15.978,66.98-41.071,88.155h176.248v19.02
			c0,12.114,9.821,21.934,21.934,21.934c12.114,0,21.934-9.821,21.934-21.934v-19.02h32.755c12.113,0,21.934-9.821,21.934-21.934
			V175.927C512,163.814,502.179,153.993,490.066,153.993z M388.068,246.808c0,9.69-7.857,17.547-17.547,17.547
			c-9.69,0-17.547-7.857-17.547-17.547v-17.335c0-9.69,7.857-17.547,17.547-17.547c9.691,0,17.547,7.855,17.547,17.547V246.808z
			 M443.08,246.808c0,9.69-7.857,17.547-17.547,17.547c-9.691,0-17.547-7.857-17.547-17.547v-17.335
			c0-9.69,7.857-17.547,17.547-17.547c9.69,0,17.547,7.855,17.547,17.547V246.808z"/>
	</g>
</g>
<g>
	<g>
		<path d="M47.568,240.99c0-34.693,15.417-65.833,39.736-86.997h-65.37C9.821,153.993,0,163.814,0,175.927V307.21
			c0,12.114,9.821,21.934,21.934,21.934h32.755v19.02c0,12.114,9.821,21.934,21.934,21.934c12.113,0,21.934-9.821,21.934-21.934
			v-11.496C67.82,315.926,47.568,280.78,47.568,240.99z"/>
	</g>
</g>
<g>
	<g>
		<path d="M162.917,141.9c-54.639,0-99.091,44.45-99.091,99.09s44.452,99.09,99.091,99.09c54.639,0,99.09-44.452,99.09-99.09
			S217.556,141.9,162.917,141.9z M162.917,296.211c-30.45,0-55.223-24.772-55.223-55.221c0-30.449,24.772-55.221,55.223-55.221
			s55.221,24.772,55.221,55.221S193.367,296.211,162.917,296.211z"/>
	</g>
</g>
<g>
</g>
<g>
</g>
<g>
</g>
<g>
</g>
<g>
</g>
<g>
</g>
<g>
</g>
<g>
</g>
<g>
</g>
<g>
</g>
<g>
</g>
<g>
</g>
<g>
</g>
<g>
</g>
<g>
</g>
</svg>
