<?xml version="1.0" encoding="iso-8859-1"?>
<!-- Generator: Adobe Illustrator 19.0.0, SVG Export Plug-In . SVG Version: 6.00 Build 0)  -->
<svg version="1.1" id="Layer_1" xmlns="http://www.w3.org/2000/svg" xmlns:xlink="http://www.w3.org/1999/xlink" x="0px" y="0px"
	 viewBox="0 0 511.998 511.998" style="enable-background:new 0 0 511.998 511.998;" xml:space="preserve">
<g>
	<g>
		<path d="M317.603,27.29C301.87,9.947,279.416,0,255.999,0c-23.417,0-45.87,9.947-61.604,27.29
			c-15.734,17.343-23.453,40.656-21.178,63.961l22.745,233.113h120.075l22.745-233.113C341.057,67.946,333.335,44.633,317.603,27.29
			z"/>
	</g>
</g>
<g>
	<g>
		<path d="M419.086,345.913h-79.964H172.877H92.912c-13.647,0-24.71,11.064-24.71,24.71v104.578c0,13.647,11.064,24.71,24.71,24.71
			h40.894c4.311,7.229,12.185,12.087,21.214,12.087h201.958c9.029,0,16.903-4.858,21.215-12.087h40.894
			c13.647,0,24.71-11.064,24.71-24.71V370.623C443.797,356.977,432.735,345.913,419.086,345.913z"/>
	</g>
</g>
<g>
</g>
<g>
</g>
<g>
</g>
<g>
</g>
<g>
</g>
<g>
</g>
<g>
</g>
<g>
</g>
<g>
</g>
<g>
</g>
<g>
</g>
<g>
</g>
<g>
</g>
<g>
</g>
<g>
</g>
</svg>
