<?xml version="1.0" encoding="iso-8859-1"?>
<!-- Generator: Adobe Illustrator 19.0.0, SVG Export Plug-In . SVG Version: 6.00 Build 0)  -->
<svg version="1.1" id="Layer_1" xmlns="http://www.w3.org/2000/svg" xmlns:xlink="http://www.w3.org/1999/xlink" x="0px" y="0px"
	 viewBox="0 0 512 512" style="enable-background:new 0 0 512 512;" xml:space="preserve">
<g>
	<g>
		<path d="M76.909,145.11v343.925c0,12.682,10.282,22.964,22.964,22.964h312.253c12.682,0,22.964-10.282,22.964-22.964V145.11
			H76.909z M200.119,400.2c0,8.878-7.197,16.075-16.075,16.075c-8.878,0-16.075-7.197-16.075-16.075V233.558
			c0-8.878,7.197-16.075,16.075-16.075c8.878,0,16.075,7.197,16.075,16.075V400.2z M272.074,400.2
			c0,8.878-7.197,16.075-16.075,16.075c-8.878,0-16.075-7.197-16.075-16.075V233.558c0-8.878,7.197-16.075,16.075-16.075
			c8.878,0,16.075,7.197,16.075,16.075V400.2z M344.029,400.2c0,8.878-7.197,16.075-16.075,16.075
			c-8.878,0-16.075-7.197-16.075-16.075V233.558c0-8.878,7.197-16.075,16.075-16.075c8.878,0,16.075,7.197,16.075,16.075V400.2z"/>
	</g>
</g>
<g>
	<g>
		<path d="M437.885,81.874h-71.646v-58.91C366.239,10.282,355.957,0,343.275,0H168.725c-12.682,0-22.964,10.282-22.964,22.964v58.91
			H74.115c-12.682,0-22.964,10.282-22.964,22.964c0,10.118,6.552,18.688,15.637,21.749c2.304,0.776,4.763,1.216,7.327,1.216h363.77
			c2.566,0,5.023-0.439,7.327-1.216c9.085-3.06,15.637-11.632,15.637-21.749C460.849,92.156,450.567,81.874,437.885,81.874z"/>
	</g>
</g>
<g>
</g>
<g>
</g>
<g>
</g>
<g>
</g>
<g>
</g>
<g>
</g>
<g>
</g>
<g>
</g>
<g>
</g>
<g>
</g>
<g>
</g>
<g>
</g>
<g>
</g>
<g>
</g>
<g>
</g>
</svg>
