<?xml version="1.0" encoding="iso-8859-1"?>
<!-- Generator: Adobe Illustrator 19.0.0, SVG Export Plug-In . SVG Version: 6.00 Build 0)  -->
<svg xmlns="http://www.w3.org/2000/svg" xmlns:xlink="http://www.w3.org/1999/xlink" version="1.1" id="Capa_1" x="0px" y="0px" viewBox="0 0 512 512" style="enable-background:new 0 0 512 512;" xml:space="preserve">
<g>
	<g>
		<path d="M311.06,219.738l-21.626,21.626c-2.366,2.366-1.177,6.411,2.093,7.121l16.723,3.629c2.138,0.464,4.292-0.78,4.935-2.871    c2.09-6.803,3.323-12.94,4.048-17.636c0.46-2.985,0.797-5.837,1.032-8.547C318.603,219.145,313.839,216.959,311.06,219.738z"/>
	</g>
</g>
<g>
	<g>
		<path d="M285.671,192.152c-7.999,0.711-16.798,2.188-25.664,4.798c-2.124,0.625-3.402,2.794-2.933,4.958l3.602,16.595    c0.71,3.27,4.755,4.458,7.121,2.093l21.239-21.239C291.831,196.561,289.609,191.802,285.671,192.152z"/>
	</g>
</g>
<g>
	<g>
		<path d="M291.055,279.067l-30.056-6.524c-1.405-0.305-2.869,0.125-3.886,1.143l-39.532,39.532    c-2.757,2.757-0.632,7.483,3.257,7.211c2.919-0.204,6.019-0.552,9.281-1.076c13.39-2.151,38.956-8.863,59.727-29.634    c1.216-1.216,2.38-2.459,3.493-3.725C295.468,283.573,294.205,279.752,291.055,279.067z"/>
	</g>
</g>
<g>
	<g>
		<path d="M236.619,249.031l-6.534-30.096c-0.692-3.185-4.55-4.396-6.983-2.228c-1.097,0.979-2.174,1.992-3.226,3.045    c-20.373,20.373-27.052,45.856-29.221,59.234c-0.533,3.289-0.893,6.422-1.109,9.379c-0.286,3.896,4.447,6.036,7.21,3.273    l38.72-38.72C236.493,251.9,236.924,250.436,236.619,249.031z"/>
	</g>
</g>
<g>
	<g>
		<path d="M404.639,0H112.977c-12.301,0-22.273,9.972-22.273,22.273v13.822c0,6.071,4.922,10.992,10.992,10.992H415.92    c6.071,0,10.992-4.922,10.992-10.992V22.273C426.912,9.972,416.94,0,404.639,0z"/>
	</g>
</g>
<g>
	<g>
		<path d="M429.356,84.771c-1.437-4.58-5.689-7.698-10.489-7.698H97.696c-4.631,0-8.772,2.909-10.343,7.265    c-25.78,71.435-36.493,124.548-35.673,176.186c0.823,51.732,13.28,100.526,33.323,160.796c1.494,4.493,5.7,7.533,10.436,7.533    h320.964c4.58,0,8.686-2.846,10.297-7.134c23.233-61.842,33.679-113.559,33.664-165.867    C460.349,206.307,451.026,153.859,429.356,84.771z M277.97,112.506h27.846c8.28,0,14.993,6.713,14.993,14.993    c0,8.28-6.713,14.993-14.993,14.993H277.97c-8.28,0-14.993-6.713-14.993-14.993C262.977,119.219,269.69,112.506,277.97,112.506z     M337.861,171.734c11.297,11.296,12.231,39.505,9.601,60.229c-2.312,18.2-10.114,52.66-36.414,78.959    c-26.944,26.945-59.655,35.455-76.754,38.129c-6.857,1.073-13.624,1.61-20.079,1.61c-5.234,0-10.262-0.354-14.968-1.063    c-12.127-1.827-21.342-5.818-27.387-11.865c-13.088-13.088-14.282-40.647-11.037-62.072c2.619-17.283,11.017-50.283,37.85-77.116    c19.357-19.357,47.638-32.1,79.634-35.883c15.194-1.797,27.066-1.121,34.348-0.24    C330.741,164.614,336.099,169.973,337.861,171.734z M208.048,112.996h27.846c8.28,0,14.993,6.713,14.993,14.993    s-6.713,14.993-14.993,14.993h-27.846c-8.28,0-14.993-6.713-14.993-14.993S199.767,112.996,208.048,112.996z M137.221,112.996    h27.846c8.28,0,14.993,6.713,14.993,14.993s-6.713,14.993-14.993,14.993h-27.846c-8.28,0-14.993-6.713-14.993-14.993    S128.94,112.996,137.221,112.996z M165.067,400.916h-27.846c-8.28,0-14.993-6.713-14.993-14.993    c0-8.28,6.713-14.993,14.993-14.993h27.846c8.28,0,14.993,6.713,14.993,14.993C180.06,394.203,173.347,400.916,165.067,400.916z     M235.894,400.916h-27.846c-8.28,0-14.993-6.713-14.993-14.993c0-8.28,6.713-14.993,14.993-14.993h27.846    c8.28,0,14.993,6.713,14.993,14.993C250.887,394.203,244.174,400.916,235.894,400.916z M305.816,400.425H277.97    c-8.28,0-14.993-6.713-14.993-14.993c0-8.28,6.713-14.993,14.993-14.993h27.846c8.28,0,14.993,6.713,14.993,14.993    C320.809,393.712,314.097,400.425,305.816,400.425z M376.644,400.425h-27.846c-8.28,0-14.993-6.713-14.993-14.993    c0-8.28,6.713-14.993,14.993-14.993h27.846c8.28,0,14.993,6.713,14.993,14.993C391.637,393.712,384.924,400.425,376.644,400.425z     M376.644,142.492h-27.846c-8.28,0-14.993-6.713-14.993-14.993c0-8.28,6.713-14.993,14.993-14.993h27.846    c8.28,0,14.993,6.713,14.993,14.993C391.637,135.779,384.924,142.492,376.644,142.492z"/>
	</g>
</g>
<g>
	<g>
		<path d="M412.845,458.838H98.621c-6.071,0-10.992,4.922-10.992,10.992v19.897h-0.001c0,12.301,9.972,22.273,22.273,22.273h291.662    c12.301,0,22.273-9.972,22.273-22.273V469.83C423.837,463.759,418.915,458.838,412.845,458.838z"/>
	</g>
</g>
<g>
</g>
<g>
</g>
<g>
</g>
<g>
</g>
<g>
</g>
<g>
</g>
<g>
</g>
<g>
</g>
<g>
</g>
<g>
</g>
<g>
</g>
<g>
</g>
<g>
</g>
<g>
</g>
<g>
</g>
</svg>
