<?xml version="1.0" encoding="iso-8859-1"?>
<!-- Generator: Adobe Illustrator 19.0.0, SVG Export Plug-In . SVG Version: 6.00 Build 0)  -->
<svg xmlns="http://www.w3.org/2000/svg" xmlns:xlink="http://www.w3.org/1999/xlink" version="1.1" id="Capa_1" x="0px" y="0px" viewBox="0 0 511.999 511.999" style="enable-background:new 0 0 511.999 511.999;" xml:space="preserve">
<g>
	<g>
		<path d="M511.492,42.606c-0.492-11.745-5.485-22.557-13.724-29.771C489.185,4.473,477.86-0.088,465.84,0.001    c-12.119,0.089-23.655,5.241-32.226,13.811c-3.785,3.785-3.785,9.92,0,13.705l50.335,50.335c3.785,3.785,9.92,3.785,13.705,0    l0.548-0.548C507.195,68.308,512.04,55.662,511.492,42.606z"/>
	</g>
</g>
<g>
	<g>
		<path d="M422.49,139.314l-50.337-50.338c-3.785-3.785-9.92-3.785-13.705,0l-51.436,51.436c-9.574,9.573-9.574,25.15,0,34.726    l4.043,4.043l-64.089,64.089c-42.807-25.178-116.842-1.652-177.51,59.015C2.341,369.4-19.326,452.88,20.13,492.335    c13.312,13.312,31.626,19.665,52.643,19.665c41.273,0,92.937-24.521,137.408-68.991c61.26-61.26,84.646-136.148,58.257-178.753    l63.846-63.846l4.044,4.044c4.844,4.844,11.354,7.414,18.239,7.177c6.358-0.219,12.351-3.04,16.849-7.538l51.074-51.073    C426.274,149.234,426.274,143.099,422.49,139.314z M34.85,411.736c8.623-29.508,28.452-60.84,55.834-88.223    c27.383-27.383,58.715-47.212,88.223-55.833c10.026-2.929,19.4-4.376,27.812-4.376c2.914,0,5.705,0.184,8.374,0.53    c-40.834,15.209-71.136,33.84-112.814,75.519c-33.914,33.914-57.658,63.96-71.135,89.925    C31.835,423.719,33.064,417.85,34.85,411.736z M49.728,462.765c6.839-24.869,32.99-61.396,73.779-102.185    c36.472-36.472,62.096-52.919,93.957-65.595c-12.727,31.926-29.252,57.644-65.579,93.971    C110.961,429.88,74.543,455.961,49.728,462.765z M244.785,333.558c-8.622,29.508-28.451,60.839-55.834,88.223    c-27.383,27.383-58.715,47.212-88.223,55.833c-6.119,1.788-11.992,3.016-17.555,3.709c25.969-13.473,56.017-37.215,89.938-71.136    c41.904-41.904,60.212-71.433,75.53-112.768C249.976,307.78,248.724,320.08,244.785,333.558z"/>
	</g>
</g>
<g>
	<g>
		<path d="M462.721,99.078l-50.335-50.335c-3.785-3.785-9.92-3.785-13.705,0l-5.301,5.301c-3.785,3.785-3.785,9.92,0,13.704    l50.335,50.335c3.785,3.785,9.92,3.785,13.704,0l5.301-5.301C466.505,108.998,466.505,102.863,462.721,99.078z"/>
	</g>
</g>
<g>
</g>
<g>
</g>
<g>
</g>
<g>
</g>
<g>
</g>
<g>
</g>
<g>
</g>
<g>
</g>
<g>
</g>
<g>
</g>
<g>
</g>
<g>
</g>
<g>
</g>
<g>
</g>
<g>
</g>
</svg>
