<?xml version="1.0" encoding="iso-8859-1"?>
<!-- Generator: Adobe Illustrator 19.0.0, SVG Export Plug-In . SVG Version: 6.00 Build 0)  -->
<svg xmlns="http://www.w3.org/2000/svg" xmlns:xlink="http://www.w3.org/1999/xlink" version="1.1" id="Capa_1" x="0px" y="0px" viewBox="0 0 512 512" style="enable-background:new 0 0 512 512;" xml:space="preserve">
<g>
	<g>
		<path d="M367.343,243.285c-5.952,0-10.793,4.841-10.793,10.793c0,5.952,4.841,10.793,10.793,10.793    c5.952,0,10.793-4.842,10.793-10.793C378.136,248.126,373.295,243.285,367.343,243.285z"/>
	</g>
</g>
<g>
	<g>
		<path d="M266.872,316.305c-5.952,0-10.793,4.841-10.793,10.793s4.841,10.793,10.793,10.793s10.793-4.841,10.793-10.793    S272.824,316.305,266.872,316.305z"/>
	</g>
</g>
<g>
	<g>
		<path d="M388.042,390.023c-5.952,0-10.793,4.841-10.793,10.793s4.841,10.793,10.793,10.793s10.793-4.841,10.793-10.793    S393.994,390.023,388.042,390.023z"/>
	</g>
</g>
<g>
	<g>
		<path d="M339.66,157.68c-95.028,0-172.339,77.311-172.339,172.339c0,95.029,77.311,172.34,172.339,172.34S512,425.049,512,330.02    C512,234.992,434.689,157.68,339.66,157.68z M267.529,255.647c0.04-0.48,0.12-0.97,0.22-1.45c0.09-0.48,0.21-0.96,0.36-1.43    c0.14-0.46,0.3-0.93,0.49-1.38s0.4-0.9,0.63-1.33c0.23-0.43,0.48-0.85,0.75-1.26c0.27-0.41,0.57-0.8,0.88-1.18    c0.31-0.38,0.64-0.75,0.99-1.1c0.34-0.34,0.71-0.68,1.09-0.99c0.38-0.31,0.78-0.6,1.19-0.87c0.4-0.27,0.83-0.53,1.26-0.76    c0.43-0.22,0.87-0.44,1.32-0.62c0.46-0.19,0.92-0.36,1.39-0.5c0.46-0.14,0.94-0.26,1.42-0.36c0.48-0.1,0.97-0.17,1.46-0.22    c0.98-0.1,1.971-0.1,2.951,0c0.48,0.05,0.97,0.12,1.45,0.22c0.48,0.1,0.96,0.22,1.43,0.36c0.46,0.14,0.93,0.31,1.38,0.5    c0.45,0.18,0.9,0.4,1.33,0.62c0.43,0.23,0.85,0.49,1.26,0.76c0.41,0.27,0.81,0.56,1.18,0.87c0.38,0.31,0.75,0.65,1.1,0.99    c0.34,0.35,0.68,0.72,0.99,1.1c0.31,0.38,0.6,0.77,0.87,1.18c0.27,0.41,0.53,0.83,0.76,1.26c0.22,0.43,0.44,0.88,0.62,1.33    c0.19,0.45,0.36,0.92,0.5,1.38c0.14,0.47,0.26,0.95,0.36,1.43c0.09,0.48,0.17,0.97,0.22,1.45c0.05,0.49,0.07,0.99,0.07,1.48    s-0.02,0.98-0.07,1.47c-0.05,0.49-0.13,0.98-0.22,1.46c-0.1,0.48-0.22,0.96-0.36,1.42c-0.14,0.47-0.31,0.94-0.5,1.39    c-0.18,0.45-0.4,0.89-0.62,1.32c-0.23,0.43-0.49,0.86-0.76,1.27c-0.27,0.4-0.56,0.8-0.87,1.18c-0.31,0.38-0.65,0.75-0.99,1.1    c-0.35,0.34-0.72,0.68-1.1,0.99c-0.37,0.3-0.77,0.6-1.18,0.87s-0.83,0.52-1.26,0.75c-0.43,0.23-0.88,0.44-1.33,0.63    c-0.45,0.19-0.92,0.35-1.38,0.49c-0.47,0.15-0.95,0.27-1.43,0.36c-0.48,0.1-0.97,0.17-1.45,0.22c-0.49,0.05-0.99,0.08-1.48,0.08    c-0.49,0-0.98-0.03-1.47-0.08c-0.49-0.05-0.98-0.12-1.46-0.22c-0.48-0.09-0.96-0.21-1.42-0.36c-0.47-0.14-0.93-0.3-1.39-0.49    c-0.45-0.19-0.89-0.4-1.32-0.63c-0.43-0.23-0.86-0.48-1.26-0.75c-0.41-0.27-0.81-0.57-1.19-0.87c-0.38-0.31-0.75-0.65-1.09-0.99    c-0.35-0.35-0.68-0.72-0.99-1.1c-0.31-0.38-0.61-0.78-0.88-1.18c-0.27-0.41-0.52-0.84-0.75-1.27c-0.23-0.43-0.44-0.87-0.63-1.32    s-0.35-0.92-0.49-1.39c-0.15-0.46-0.27-0.94-0.36-1.42c-0.1-0.48-0.18-0.97-0.22-1.46c-0.05-0.49-0.08-0.98-0.08-1.47    S267.479,256.138,267.529,255.647z M266.872,367.899c-22.498,0-40.801-18.303-40.801-40.801s18.303-40.801,40.801-40.801    c22.498,0,40.801,18.303,40.801,40.801S289.371,367.899,266.872,367.899z M326.395,419.644c-0.05,0.49-0.12,0.98-0.22,1.46    s-0.22,0.96-0.36,1.42c-0.14,0.47-0.31,0.94-0.5,1.39c-0.18,0.45-0.4,0.89-0.62,1.32c-0.23,0.43-0.49,0.86-0.76,1.26    c-0.27,0.41-0.56,0.81-0.87,1.19c-0.31,0.38-0.65,0.75-0.99,1.1c-0.35,0.34-0.72,0.67-1.1,0.99c-0.37,0.3-0.77,0.6-1.18,0.87    c-0.41,0.27-0.83,0.52-1.26,0.75c-0.43,0.23-0.88,0.44-1.33,0.63c-0.45,0.19-0.92,0.35-1.38,0.5c-0.47,0.14-0.95,0.26-1.43,0.36    c-0.48,0.09-0.97,0.17-1.45,0.22c-0.49,0.04-0.99,0.07-1.48,0.07c-0.49,0-0.98-0.03-1.47-0.07c-0.49-0.05-0.98-0.13-1.46-0.22    c-0.48-0.1-0.96-0.22-1.42-0.36c-0.47-0.15-0.93-0.31-1.39-0.5c-0.45-0.19-0.89-0.4-1.32-0.63c-0.43-0.23-0.86-0.48-1.26-0.75    c-0.41-0.27-0.81-0.57-1.19-0.87c-0.38-0.32-0.75-0.65-1.1-0.99c-0.34-0.35-0.67-0.72-0.99-1.1c-0.3-0.38-0.6-0.78-0.87-1.19    c-0.27-0.4-0.52-0.83-0.75-1.26c-0.23-0.43-0.44-0.87-0.63-1.32c-0.18-0.45-0.35-0.92-0.49-1.39c-0.15-0.46-0.27-0.94-0.36-1.42    c-0.1-0.48-0.17-0.97-0.22-1.46c-0.05-0.49-0.08-0.98-0.08-1.47c0-0.49,0.03-0.99,0.08-1.48c0.05-0.48,0.12-0.97,0.22-1.45    c0.09-0.48,0.21-0.96,0.36-1.43c0.14-0.46,0.31-0.93,0.49-1.38c0.19-0.45,0.4-0.9,0.63-1.33c0.23-0.43,0.48-0.85,0.75-1.26    s0.57-0.8,0.87-1.18c0.32-0.38,0.65-0.75,0.99-1.1c0.35-0.34,0.72-0.68,1.1-0.99c0.38-0.31,0.78-0.6,1.19-0.87    c0.4-0.27,0.83-0.53,1.26-0.76c0.43-0.22,0.87-0.44,1.32-0.62c0.46-0.19,0.92-0.35,1.39-0.5c0.46-0.14,0.94-0.26,1.42-0.36    c0.48-0.09,0.97-0.17,1.46-0.22c0.98-0.1,1.971-0.1,2.951,0c0.48,0.05,0.97,0.13,1.45,0.22c0.48,0.1,0.96,0.22,1.43,0.36    c0.46,0.15,0.93,0.31,1.38,0.5c0.45,0.18,0.9,0.4,1.33,0.62c0.43,0.23,0.85,0.49,1.26,0.76c0.41,0.27,0.81,0.56,1.18,0.87    c0.38,0.31,0.75,0.65,1.1,0.99c0.34,0.35,0.68,0.72,0.99,1.1c0.31,0.38,0.6,0.77,0.87,1.18c0.27,0.41,0.53,0.83,0.76,1.26    c0.22,0.43,0.44,0.88,0.62,1.33c0.19,0.45,0.36,0.92,0.5,1.38c0.14,0.47,0.26,0.95,0.36,1.43c0.1,0.48,0.17,0.97,0.22,1.45    c0.05,0.49,0.07,0.99,0.07,1.48C326.465,418.662,326.444,419.152,326.395,419.644z M326.542,254.078    c0-22.498,18.303-40.801,40.801-40.801c22.498,0,40.801,18.303,40.801,40.801c0,22.498-18.303,40.801-40.801,40.801    C344.845,294.879,326.542,276.575,326.542,254.078z M378.479,336.15c0,0.49-0.02,0.98-0.07,1.47c-0.05,0.49-0.12,0.98-0.22,1.46    s-0.22,0.96-0.36,1.42c-0.14,0.47-0.31,0.93-0.5,1.39c-0.18,0.45-0.39,0.89-0.62,1.32s-0.49,0.86-0.76,1.27    c-0.27,0.4-0.56,0.8-0.87,1.18c-0.31,0.38-0.65,0.75-0.99,1.1c-0.35,0.34-0.72,0.67-1.1,0.99c-0.38,0.3-0.77,0.6-1.18,0.87    c-0.41,0.27-0.83,0.52-1.26,0.75c-0.43,0.23-0.88,0.44-1.33,0.63c-0.45,0.19-0.92,0.35-1.38,0.49c-0.47,0.15-0.95,0.27-1.43,0.36    c-0.48,0.1-0.97,0.17-1.45,0.22c-0.49,0.05-0.99,0.08-1.48,0.08c-0.49,0-0.98-0.03-1.47-0.08s-0.98-0.12-1.46-0.22    c-0.48-0.09-0.96-0.21-1.42-0.36c-0.47-0.14-0.93-0.3-1.39-0.49c-0.45-0.19-0.89-0.4-1.32-0.63s-0.86-0.48-1.26-0.75    c-0.41-0.27-0.81-0.57-1.19-0.87c-0.38-0.32-0.75-0.65-1.09-0.99c-0.35-0.35-0.68-0.72-1-1.1c-0.3-0.38-0.6-0.78-0.87-1.18    c-0.27-0.41-0.52-0.84-0.75-1.27c-0.23-0.43-0.44-0.87-0.63-1.32c-0.19-0.46-0.35-0.92-0.49-1.39c-0.15-0.46-0.27-0.94-0.36-1.42    c-0.1-0.48-0.18-0.97-0.22-1.46c-0.05-0.49-0.08-0.98-0.08-1.47s0.03-0.99,0.08-1.48c0.04-0.48,0.12-0.97,0.22-1.45    c0.09-0.48,0.21-0.96,0.36-1.43c0.14-0.46,0.3-0.93,0.49-1.38c0.19-0.45,0.4-0.9,0.63-1.33c0.23-0.43,0.48-0.85,0.75-1.26    c0.27-0.41,0.57-0.81,0.87-1.18c0.32-0.38,0.65-0.75,1-1.1c0.34-0.34,0.71-0.68,1.09-0.99c0.38-0.31,0.78-0.6,1.19-0.87    c0.4-0.27,0.83-0.53,1.26-0.76c0.43-0.22,0.87-0.44,1.32-0.62c0.46-0.19,0.92-0.35,1.39-0.5c0.46-0.14,0.94-0.26,1.42-0.36    c0.48-0.09,0.97-0.17,1.46-0.22c0.98-0.09,1.971-0.1,2.951,0c0.48,0.05,0.97,0.13,1.45,0.22c0.48,0.1,0.96,0.22,1.43,0.36    c0.46,0.15,0.93,0.31,1.38,0.5c0.45,0.18,0.9,0.4,1.33,0.62c0.43,0.23,0.85,0.49,1.26,0.76c0.41,0.27,0.8,0.56,1.18,0.87    s0.75,0.65,1.1,0.99c0.34,0.35,0.68,0.72,0.99,1.1c0.31,0.37,0.6,0.77,0.87,1.18c0.27,0.41,0.53,0.83,0.76,1.26    c0.23,0.43,0.44,0.88,0.62,1.33c0.19,0.45,0.36,0.92,0.5,1.38c0.14,0.47,0.26,0.95,0.36,1.43c0.1,0.48,0.17,0.97,0.22,1.45    C378.458,335.159,378.479,335.659,378.479,336.15z M388.042,441.618c-22.498,0-40.801-18.303-40.801-40.801    c0-22.498,18.303-40.801,40.801-40.801s40.801,18.303,40.801,40.801C428.843,423.315,410.54,441.618,388.042,441.618z     M466.212,331.079c-0.1,0.48-0.22,0.96-0.36,1.42c-0.14,0.47-0.31,0.93-0.5,1.39c-0.18,0.45-0.39,0.89-0.62,1.32    c-0.23,0.43-0.49,0.86-0.76,1.26c-0.27,0.41-0.56,0.81-0.87,1.19c-0.31,0.38-0.65,0.75-0.99,1.09c-0.35,0.35-0.72,0.68-1.1,1    c-0.37,0.3-0.77,0.6-1.18,0.87c-0.41,0.27-0.83,0.52-1.26,0.75c-0.43,0.23-0.88,0.44-1.33,0.63c-0.45,0.19-0.92,0.35-1.38,0.49    c-0.47,0.15-0.95,0.27-1.43,0.36c-0.48,0.1-0.97,0.17-1.45,0.22c-0.49,0.05-0.99,0.08-1.48,0.08c-0.49,0-0.98-0.03-1.47-0.08    s-0.98-0.12-1.46-0.22c-0.48-0.09-0.96-0.21-1.42-0.36c-0.47-0.14-0.93-0.3-1.39-0.49c-0.45-0.19-0.89-0.4-1.32-0.63    c-0.43-0.23-0.86-0.48-1.26-0.75c-0.41-0.27-0.81-0.57-1.19-0.87c-0.38-0.32-0.75-0.65-1.1-1c-0.34-0.34-0.67-0.71-0.99-1.09    c-0.3-0.38-0.6-0.78-0.87-1.19c-0.27-0.4-0.52-0.83-0.75-1.26c-0.23-0.43-0.44-0.87-0.63-1.32c-0.19-0.46-0.35-0.92-0.49-1.39    c-0.15-0.46-0.27-0.94-0.36-1.42c-0.1-0.48-0.18-0.97-0.22-1.46c-0.05-0.48-0.08-0.98-0.08-1.47s0.03-0.99,0.08-1.48    c0.04-0.48,0.12-0.97,0.22-1.45c0.09-0.48,0.21-0.96,0.36-1.43c0.14-0.46,0.3-0.93,0.49-1.38s0.4-0.9,0.63-1.33    c0.23-0.43,0.48-0.85,0.75-1.26c0.27-0.41,0.57-0.8,0.87-1.18c0.32-0.38,0.65-0.75,0.99-1.1c0.35-0.34,0.72-0.68,1.1-0.99    c0.38-0.31,0.78-0.6,1.19-0.87c0.4-0.27,0.83-0.53,1.26-0.75c0.43-0.23,0.87-0.44,1.32-0.63c0.46-0.19,0.92-0.35,1.39-0.5    c0.46-0.14,0.94-0.26,1.42-0.36c0.48-0.09,0.97-0.17,1.46-0.22c0.98-0.1,1.971-0.1,2.951,0c0.48,0.05,0.97,0.13,1.45,0.22    c0.48,0.1,0.96,0.22,1.43,0.36c0.46,0.15,0.93,0.31,1.38,0.5s0.9,0.4,1.33,0.63c0.43,0.22,0.85,0.48,1.26,0.75    c0.41,0.27,0.81,0.56,1.18,0.87c0.38,0.31,0.75,0.65,1.1,0.99c0.34,0.35,0.68,0.72,0.99,1.1c0.31,0.38,0.6,0.77,0.87,1.18    c0.27,0.41,0.53,0.83,0.76,1.26c0.23,0.43,0.44,0.88,0.62,1.33c0.19,0.45,0.36,0.92,0.5,1.38c0.14,0.47,0.26,0.95,0.36,1.43    c0.1,0.48,0.17,0.97,0.22,1.45c0.05,0.49,0.07,0.99,0.07,1.48s-0.02,0.99-0.07,1.47    C466.382,330.108,466.313,330.599,466.212,331.079z"/>
	</g>
</g>
<g>
	<g>
		<path d="M99.552,168.264c-5.952,0-10.793,4.841-10.793,10.793s4.841,10.793,10.793,10.793s10.793-4.841,10.793-10.793    S105.504,168.264,99.552,168.264z"/>
	</g>
</g>
<g>
	<g>
		<path d="M200.023,95.244c-5.952,0-10.793,4.841-10.793,10.793c0,5.952,4.841,10.793,10.793,10.793    c5.952,0,10.793-4.842,10.793-10.793C210.816,100.086,205.975,95.244,200.023,95.244z"/>
	</g>
</g>
<g>
	<g>
		<path d="M330.079,112.475C303.058,51.266,241.505,9.014,170.776,9.647C76.555,10.488,0.001,87.753,0,181.977    c-0.001,77.233,51.066,142.762,121.206,164.598c9.595,2.987,19.226-4.561,18.631-14.592c-0.359-6.055-0.544-12.347-0.544-18.889    c0-9.515,0.838-18.928,2.419-28.172c-0.167-0.028-0.334-0.045-0.499-0.076c-0.48-0.1-0.96-0.22-1.43-0.36    c-0.46-0.15-0.93-0.31-1.38-0.5c-0.45-0.19-0.9-0.4-1.33-0.63c-0.43-0.23-0.85-0.48-1.26-0.75c-0.41-0.27-0.81-0.56-1.18-0.87    c-0.38-0.31-0.75-0.65-1.1-0.99c-0.34-0.35-0.68-0.72-0.99-1.1c-0.31-0.38-0.6-0.78-0.87-1.19c-0.27-0.4-0.53-0.83-0.76-1.26    c-0.23-0.43-0.44-0.87-0.62-1.32c-0.19-0.46-0.36-0.92-0.5-1.39c-0.14-0.46-0.26-0.94-0.36-1.42c-0.1-0.48-0.17-0.97-0.22-1.46    c-0.05-0.49-0.07-0.98-0.07-1.47s0.02-0.99,0.07-1.48c0.05-0.48,0.12-0.97,0.22-1.45c0.1-0.48,0.22-0.96,0.36-1.43    c0.14-0.46,0.31-0.93,0.5-1.38c0.18-0.45,0.39-0.9,0.62-1.33c0.23-0.43,0.49-0.85,0.76-1.26c0.27-0.41,0.56-0.8,0.87-1.18    c0.31-0.38,0.65-0.75,0.99-1.1c0.35-0.34,0.72-0.68,1.1-0.99c0.37-0.31,0.77-0.6,1.18-0.87s0.83-0.53,1.26-0.76    c0.43-0.22,0.88-0.44,1.33-0.62c0.45-0.19,0.92-0.36,1.38-0.5c0.47-0.14,0.95-0.26,1.43-0.36c0.48-0.09,0.97-0.17,1.45-0.22    c0.98-0.1,1.971-0.1,2.951,0c0.49,0.05,0.98,0.13,1.46,0.22c0.48,0.1,0.96,0.22,1.42,0.36c0.255,0.076,0.504,0.179,0.755,0.271    c7.701-21.756,19.569-41.955,34.555-59.444c-0.038-0.056-0.083-0.108-0.12-0.164c-0.27-0.41-0.53-0.84-0.76-1.27    c-0.22-0.43-0.44-0.87-0.62-1.32c-0.19-0.46-0.36-0.92-0.5-1.39c-0.14-0.46-0.26-0.94-0.36-1.42c-0.09-0.48-0.17-0.97-0.22-1.46    c-0.05-0.49-0.07-0.98-0.07-1.47c0-0.49,0.02-0.99,0.07-1.48c0.05-0.48,0.13-0.97,0.22-1.45c0.1-0.48,0.22-0.96,0.36-1.43    c0.14-0.46,0.31-0.93,0.5-1.38c0.18-0.45,0.4-0.9,0.62-1.33c0.23-0.43,0.49-0.85,0.76-1.26c0.27-0.41,0.56-0.8,0.87-1.18    c0.31-0.38,0.65-0.75,0.99-1.1c0.35-0.34,0.72-0.68,1.1-0.99c0.37-0.31,0.77-0.6,1.18-0.87s0.83-0.53,1.26-0.76    c0.43-0.22,0.88-0.44,1.33-0.62c0.45-0.19,0.92-0.36,1.38-0.5c0.47-0.14,0.95-0.26,1.43-0.36c0.48-0.09,0.97-0.17,1.45-0.22    c0.98-0.1,1.971-0.1,2.951,0c0.49,0.05,0.98,0.13,1.46,0.22c0.48,0.1,0.96,0.22,1.42,0.36c0.47,0.14,0.93,0.31,1.39,0.5    c0.45,0.18,0.89,0.4,1.32,0.62c0.43,0.23,0.86,0.49,1.26,0.76c0.056,0.037,0.107,0.081,0.163,0.119    c30.941-26.528,70.236-43.003,111.991-43.003c0.073,0,0.147,0,0.22,0C327.318,132.758,334.304,122.047,330.079,112.475z     M100.203,107.607c0.05-0.48,0.12-0.97,0.22-1.45c0.1-0.48,0.22-0.96,0.36-1.43c0.14-0.46,0.31-0.93,0.5-1.38    c0.18-0.45,0.39-0.9,0.62-1.33c0.23-0.43,0.49-0.85,0.76-1.26s0.56-0.8,0.87-1.18c0.31-0.38,0.64-0.75,0.99-1.1    c0.35-0.34,0.72-0.68,1.1-0.99c0.37-0.31,0.77-0.6,1.18-0.87c0.41-0.27,0.83-0.53,1.26-0.76c0.43-0.22,0.88-0.44,1.33-0.62    c0.45-0.19,0.92-0.36,1.38-0.5c0.47-0.14,0.95-0.26,1.43-0.36c0.48-0.09,0.97-0.17,1.45-0.22c0.98-0.1,1.971-0.1,2.951,0    c0.49,0.05,0.98,0.13,1.46,0.22c0.48,0.1,0.96,0.22,1.42,0.36c0.47,0.14,0.93,0.31,1.39,0.5c0.45,0.18,0.89,0.4,1.32,0.62    c0.43,0.23,0.86,0.49,1.26,0.76c0.41,0.27,0.81,0.56,1.19,0.87c0.38,0.31,0.75,0.65,1.1,0.99c0.34,0.35,0.67,0.72,0.99,1.1    c0.3,0.38,0.6,0.77,0.87,1.18s0.52,0.83,0.75,1.26c0.23,0.43,0.44,0.88,0.63,1.33s0.35,0.92,0.49,1.38    c0.15,0.47,0.27,0.95,0.36,1.43c0.1,0.48,0.17,0.97,0.22,1.45c0.05,0.49,0.08,0.99,0.08,1.48c0,0.49-0.03,0.98-0.08,1.47    c-0.05,0.49-0.12,0.98-0.22,1.46c-0.09,0.48-0.21,0.96-0.36,1.42c-0.14,0.47-0.3,0.93-0.49,1.39c-0.19,0.45-0.4,0.89-0.63,1.32    c-0.23,0.43-0.48,0.86-0.75,1.27c-0.27,0.4-0.57,0.8-0.87,1.18c-0.32,0.38-0.65,0.75-0.99,1.09c-0.35,0.35-0.72,0.68-1.1,1    c-0.38,0.3-0.78,0.6-1.19,0.87c-0.4,0.27-0.83,0.52-1.26,0.75c-0.43,0.23-0.87,0.44-1.32,0.63c-0.46,0.19-0.92,0.35-1.39,0.5    c-0.46,0.14-0.94,0.26-1.42,0.36c-0.48,0.09-0.97,0.17-1.46,0.22c-0.49,0.04-0.98,0.07-1.47,0.07s-0.99-0.03-1.48-0.07    c-0.48-0.05-0.97-0.13-1.45-0.22c-0.48-0.1-0.96-0.22-1.43-0.36c-0.46-0.15-0.93-0.31-1.38-0.5s-0.9-0.4-1.33-0.63    c-0.43-0.23-0.85-0.48-1.26-0.75c-0.41-0.27-0.81-0.57-1.18-0.87c-0.38-0.32-0.75-0.65-1.1-1c-0.35-0.34-0.68-0.71-0.99-1.09    c-0.31-0.38-0.6-0.78-0.87-1.18c-0.27-0.41-0.53-0.84-0.76-1.27s-0.44-0.87-0.62-1.32c-0.19-0.46-0.36-0.92-0.5-1.39    c-0.14-0.46-0.26-0.94-0.36-1.42c-0.1-0.48-0.17-0.97-0.22-1.46c-0.05-0.49-0.07-0.98-0.07-1.47    C100.132,108.597,100.153,108.097,100.203,107.607z M99.552,219.859c-22.498,0-40.801-18.303-40.801-40.801    s18.303-40.801,40.801-40.801c22.498,0,40.801,18.303,40.801,40.801S122.051,219.859,99.552,219.859z M200.023,146.838    c-22.498,0-40.801-18.304-40.801-40.801c0-22.498,18.303-40.801,40.801-40.801s40.801,18.303,40.801,40.801    C240.824,128.535,222.521,146.838,200.023,146.838z"/>
	</g>
</g>
<g>
</g>
<g>
</g>
<g>
</g>
<g>
</g>
<g>
</g>
<g>
</g>
<g>
</g>
<g>
</g>
<g>
</g>
<g>
</g>
<g>
</g>
<g>
</g>
<g>
</g>
<g>
</g>
<g>
</g>
</svg>
