<?xml version="1.0" encoding="iso-8859-1"?>
<!-- Generator: Adobe Illustrator 19.0.0, SVG Export Plug-In . SVG Version: 6.00 Build 0)  -->
<svg xmlns="http://www.w3.org/2000/svg" xmlns:xlink="http://www.w3.org/1999/xlink" version="1.1" id="Capa_1" x="0px" y="0px" viewBox="0 0 512 512" style="enable-background:new 0 0 512 512;" xml:space="preserve">
<g>
	<g>
		<path d="M430.265,205.071c-4.343-4.521-10.427-7.115-16.696-7.115H283.576l-34.107-34.525    c-14.655-15.184-36.357-21.032-56.661-15.266l-30.271,8.596c-7.334,2.084-15.252,0.959-21.718-3.084    c-21.409-13.386-49.502-10.979-68.318,5.853l-41.57,38.424h-7.786c-6.269,0-12.353,2.594-16.696,7.117    c-4.344,4.525-6.687,10.715-6.431,16.98c2.309,56.449,26.045,109.154,66.837,148.406c40.909,39.364,94.713,61.043,151.501,61.043    s110.592-21.679,151.501-61.043c40.793-39.252,64.53-91.958,66.838-148.406C436.953,215.785,434.609,209.596,430.265,205.071z"/>
	</g>
</g>
<g>
	<g>
		<path d="M502.573,35.697c-13.076-13.53-35.134-13.246-48.44,0.059L328.103,161.787c-5.957,5.957-1.74,16.143,6.685,16.145    l54.901,0.014c11.119,0.003,21.784-4.413,29.646-12.275l82.831-82.831C515.141,69.866,515.276,48.84,502.573,35.697z"/>
	</g>
</g>
<g>
	<g>
		<path d="M347.139,434.339c-2.423-8.144-11.756-11.96-19.129-7.736c-32.699,18.735-69.871,28.735-108.424,28.735    c-39.333,0-77.231-10.41-110.407-29.886c-7.126-4.183-16.321-0.769-19.015,7.043c-1.577,4.574-2.435,9.482-2.435,14.584v12.035    c0,15.035,12.188,27.223,27.223,27.223h206.811c15.034,0,27.223-12.188,27.223-27.223v-12.035    C348.986,442.655,348.34,438.379,347.139,434.339z"/>
	</g>
</g>
<g>
</g>
<g>
</g>
<g>
</g>
<g>
</g>
<g>
</g>
<g>
</g>
<g>
</g>
<g>
</g>
<g>
</g>
<g>
</g>
<g>
</g>
<g>
</g>
<g>
</g>
<g>
</g>
<g>
</g>
</svg>
