<?xml version="1.0" encoding="iso-8859-1"?>
<!-- Generator: Adobe Illustrator 19.0.0, SVG Export Plug-In . SVG Version: 6.00 Build 0)  -->
<svg xmlns="http://www.w3.org/2000/svg" xmlns:xlink="http://www.w3.org/1999/xlink" version="1.1" id="Capa_1" x="0px" y="0px" viewBox="0 0 512 512" style="enable-background:new 0 0 512 512;" xml:space="preserve">
<g>
	<g>
		<path d="M512,252.533c0-74.54-60.641-135.172-135.171-135.172h-26.766l16.697-59.668c3.229-11.543-2.557-23.617-13.458-28.089    c-3.771-1.554-7.922-2.086-11.974-1.564l-0.371,0.05L20.102,85.932C12.23,87.106,5.561,92.09,2.201,99.33    c-3.42,7.381-2.828,15.865,1.584,22.704l0.722,1.123l20.847,22.343c2.477,2.655,5.944,4.162,9.574,4.162h279.714h13.387    c6.594,0,11.428,6.202,9.819,12.596v7.364c0,5.592-4.533,10.126-10.126,10.126h-19.488H56.793    c-7.231,0-13.094,5.862-13.094,13.094v9.655l-15.103,37.42C8.83,288.884,4.117,341.653,14.115,392.126    c5.155,26.054,14.24,51.495,27.187,75.483c5.516,10.209,16.146,16.547,27.748,16.547h243.668c11.633,0,22.283-6.368,27.798-16.637    l0.04-0.08c12.164-22.664,20.879-46.662,26.094-71.241c10.8-50.854,6.639-104.264-12.866-153.774l-15.935-40.462v-5.879h39.742    c29.674,2.898,56.63,15.734,54.263,87.136c-0.281,8.303,6.228,15.253,14.531,15.534c0.17,0,0.341,0.01,0.511,0.01    c0.17,0,0.331-0.02,0.501-0.03c0.16,0.01,0.331,0.03,0.491,0.03h49.068c8.303,0,15.042-6.739,15.042-15.042    c0-0.18-0.02-0.361-0.03-0.531c0.01-0.18,0.03-0.361,0.03-0.542V252.533z M338.481,383.572l-5.937-2.667    c-24.489-11.482-52.779-11.974-77.659-1.344c-16.637,7.1-35.641,6.919-52.137-0.501l-2.918-1.314    c-24.128-10.861-51.927-11.131-76.265-0.752l-23.256,9.928c-8.103,3.45-16.667,5.205-25.472,5.205H44.872    c-10.449-46.551-6.689-95.59,11.623-140.948l12.753-31.609h243.209l13.338,33.876C342.291,295.323,346.423,340.35,338.481,383.572    z"/>
	</g>
</g>
<g>
	<g>
		<path d="M122.097,239.646H99.474c-8.307,0-15.042,6.735-15.042,15.042c0,8.308,6.735,15.042,15.042,15.042h22.623    c8.307,0,15.042-6.735,15.042-15.042S130.404,239.646,122.097,239.646z"/>
	</g>
</g>
<g>
	<g>
		<path d="M144.72,281.354H99.474c-8.307,0-15.042,6.735-15.042,15.042s6.735,15.042,15.042,15.042h45.246    c8.307,0,15.042-6.735,15.042-15.042S153.028,281.354,144.72,281.354z"/>
	</g>
</g>
<g>
	<g>
		<path d="M122.097,322.574H99.474c-8.307,0-15.042,6.735-15.042,15.042s6.735,15.042,15.042,15.042h22.623    c8.307,0,15.042-6.735,15.042-15.042S130.404,322.574,122.097,322.574z"/>
	</g>
</g>
<g>
</g>
<g>
</g>
<g>
</g>
<g>
</g>
<g>
</g>
<g>
</g>
<g>
</g>
<g>
</g>
<g>
</g>
<g>
</g>
<g>
</g>
<g>
</g>
<g>
</g>
<g>
</g>
<g>
</g>
</svg>
