<?xml version="1.0" encoding="iso-8859-1"?>
<!-- Generator: Adobe Illustrator 19.0.0, SVG Export Plug-In . SVG Version: 6.00 Build 0)  -->
<svg xmlns="http://www.w3.org/2000/svg" xmlns:xlink="http://www.w3.org/1999/xlink" version="1.1" id="Capa_1" x="0px" y="0px" viewBox="0 0 512 512" style="enable-background:new 0 0 512 512;" xml:space="preserve">
<g>
	<g>
		<path d="M347.661,182.754l-33.563-33.563c-8.614-8.614-22.579-8.614-31.194,0L23.241,408.853    c-9.772,9.771-15.142,22.772-15.116,36.595c0.027,13.919,5.914,27.19,15.757,37.031l19.645,19.646    c6.584,6.584,15.23,9.876,23.879,9.875c9.066-0.001,18.135-3.618,24.821-10.855c7.25-7.846,10.173-18.767,8.346-29.292    l-1.618-9.326l6.892,1.079c12.972,2.031,26.256-2.299,35.54-11.583c9.405-9.405,13.709-22.851,11.515-35.968l-0.641-3.831    l4.162,0.739c12.776,2.267,25.876-1.852,35.05-11.026c8.736-8.735,12.949-21.258,11.27-33.497l-1.054-7.684l8.302,1.181    c11.774,1.673,23.829-2.347,32.241-10.758c8.335-8.335,12.371-20.284,10.797-31.966l-1.081-8.02l3.729,0.532    c14.255,2.031,28.826-2.545,38.868-12.865c9.417-9.678,13.867-22.874,12.218-36.305l-0.594-4.839l4.959,0.61    c13.557,1.667,26.872-2.914,36.532-12.572C365.029,228.384,365.029,200.123,347.661,182.754z"/>
	</g>
</g>
<g>
	<g>
		<path d="M488.743,37.153L458.454,6.863c-9.151-9.151-24.041-9.151-33.193-0.001l-85.495,85.495    c-8.614,8.614-8.614,22.579,0,31.194l32.983,32.983c0.326,0.326,0.645,0.655,0.958,0.988c6.862,7.295,17.862,8.877,26.618,4.013    l76.345-42.404c14.076-7.818,24.077-21.56,26.566-37.467C505.816,65.184,500.505,48.914,488.743,37.153z M465.622,75.419    c-0.05,0.481-0.12,0.971-0.22,1.452c-0.09,0.481-0.21,0.961-0.361,1.432c-0.14,0.461-0.31,0.931-0.491,1.382    c-0.19,0.451-0.401,0.901-0.631,1.332c-0.23,0.431-0.481,0.851-0.751,1.262c-0.27,0.411-0.571,0.811-0.881,1.182    c-0.31,0.381-0.641,0.751-0.991,1.102c-0.341,0.351-0.711,0.681-1.092,0.992c-0.381,0.31-0.781,0.601-1.192,0.871    c-0.401,0.27-0.831,0.531-1.262,0.761s-0.881,0.441-1.332,0.621c-0.451,0.19-0.911,0.361-1.382,0.501s-0.951,0.26-1.422,0.361    c-0.481,0.1-0.971,0.17-1.462,0.22c-0.491,0.05-0.982,0.07-1.472,0.07s-0.992-0.02-1.482-0.07c-0.481-0.05-0.971-0.12-1.452-0.22    s-0.961-0.22-1.432-0.361c-0.461-0.14-0.931-0.31-1.382-0.501c-0.451-0.18-0.901-0.391-1.332-0.621s-0.851-0.491-1.262-0.761    c-0.411-0.27-0.811-0.561-1.182-0.871c-0.381-0.31-0.751-0.641-1.102-0.992c-0.351-0.351-0.681-0.721-0.992-1.102    c-0.31-0.371-0.601-0.771-0.871-1.182c-0.27-0.411-0.531-0.831-0.761-1.262s-0.441-0.881-0.621-1.332    c-0.19-0.451-0.361-0.921-0.501-1.382c-0.14-0.471-0.26-0.951-0.361-1.432c-0.1-0.481-0.17-0.971-0.22-1.452    c-0.05-0.491-0.07-0.992-0.07-1.482c0-0.491,0.02-0.982,0.07-1.472c0.05-0.491,0.12-0.982,0.22-1.462    c0.1-0.481,0.22-0.951,0.361-1.422c0.14-0.471,0.31-0.931,0.501-1.382c0.18-0.451,0.391-0.901,0.621-1.332    c0.23-0.431,0.491-0.861,0.761-1.262c0.27-0.411,0.561-0.811,0.871-1.192c0.31-0.381,0.641-0.751,0.992-1.092    c0.351-0.351,0.721-0.681,1.102-0.992c0.371-0.31,0.771-0.611,1.182-0.881c0.411-0.27,0.831-0.521,1.262-0.751    s0.881-0.441,1.332-0.631c0.451-0.18,0.921-0.351,1.382-0.491c0.471-0.15,0.951-0.27,1.432-0.361c0.481-0.1,0.971-0.17,1.452-0.22    c0.982-0.1,1.973-0.1,2.955,0c0.491,0.05,0.982,0.12,1.462,0.22c0.471,0.09,0.951,0.21,1.422,0.361    c0.471,0.14,0.931,0.31,1.382,0.491c0.451,0.19,0.901,0.401,1.332,0.631c0.431,0.23,0.861,0.481,1.262,0.751    c0.411,0.27,0.811,0.571,1.192,0.881c0.381,0.31,0.751,0.641,1.092,0.992c0.351,0.341,0.681,0.711,0.991,1.092    c0.31,0.381,0.611,0.781,0.881,1.192c0.27,0.401,0.521,0.831,0.751,1.262c0.23,0.431,0.441,0.881,0.631,1.332    c0.18,0.451,0.351,0.911,0.491,1.382c0.15,0.471,0.27,0.941,0.361,1.422c0.1,0.481,0.17,0.971,0.22,1.462    c0.05,0.491,0.08,0.982,0.08,1.472C465.701,74.427,465.671,74.928,465.622,75.419z"/>
	</g>
</g>
<g>
</g>
<g>
</g>
<g>
</g>
<g>
</g>
<g>
</g>
<g>
</g>
<g>
</g>
<g>
</g>
<g>
</g>
<g>
</g>
<g>
</g>
<g>
</g>
<g>
</g>
<g>
</g>
<g>
</g>
</svg>
