<?xml version="1.0" encoding="iso-8859-1"?>
<!-- Generator: Adobe Illustrator 19.0.0, SVG Export Plug-In . SVG Version: 6.00 Build 0)  -->
<svg xmlns="http://www.w3.org/2000/svg" xmlns:xlink="http://www.w3.org/1999/xlink" version="1.1" id="Capa_1" x="0px" y="0px" viewBox="0 0 512 512" style="enable-background:new 0 0 512 512;" xml:space="preserve">
<g>
	<g>
		<path d="M362.537,58.772C334.397,20.873,296.561,0,256,0s-78.396,20.873-106.537,58.773    c-27.146,36.561-42.096,84.932-42.096,136.204c0,0.017,0,0.033,0,0.05c0.001,2.715,2.23,4.907,4.946,4.907h287.374    c2.715,0,4.945-2.189,4.947-4.905c0-0.018,0-0.035,0-0.053C404.633,143.705,389.683,95.334,362.537,58.772z"/>
	</g>
</g>
<g>
	<g>
		<path d="M409.686,314.421h-307.18c-3.057,0-5.402,2.75-4.886,5.763c1.017,5.935,2.36,11.802,4.023,17.57    c0.614,2.133,2.547,3.617,4.768,3.617h299.499c2.233,0,4.174-1.5,4.777-3.65c1.617-5.768,2.92-11.634,3.892-17.571    C415.071,317.146,412.73,314.421,409.686,314.421z"/>
	</g>
</g>
<g>
	<g>
		<path d="M388.47,371.393H124.215c-3.883,0-6.26,4.274-4.204,7.569c7.112,11.4,15.655,21.951,25.491,31.332l35.925,34.263    c0.761,0.726,0.92,1.88,0.383,2.784l-19.148,32.288c-4.9,8.263-3.788,19.095,3.39,26.205c4.098,4.059,9.744,6.167,15.513,6.167    h148.653c6.286,0,12.397-2.531,16.541-7.256c6.34-7.228,7.025-17.536,2.173-25.417l-19.415-31.538    c-0.567-0.922-0.4-2.116,0.397-2.846l34.215-31.351c11.183-10.247,20.765-21.945,28.569-34.67    C394.717,375.628,392.331,371.393,388.47,371.393z"/>
	</g>
</g>
<g>
	<g>
		<path d="M413.422,237.192c-3.057-4.029-7.903-6.435-12.961-6.435H111.539c-5.06,0-9.905,2.407-12.964,6.438    c-2.393,3.155-3.533,7.097-3.26,10.997L95.3,279.45c-0.001,2.732,2.214,4.948,4.946,4.948h311.507    c2.732,0,4.947-2.216,4.946-4.948l-0.013-31.26C416.957,244.289,415.816,240.346,413.422,237.192z"/>
	</g>
</g>
<g>
</g>
<g>
</g>
<g>
</g>
<g>
</g>
<g>
</g>
<g>
</g>
<g>
</g>
<g>
</g>
<g>
</g>
<g>
</g>
<g>
</g>
<g>
</g>
<g>
</g>
<g>
</g>
<g>
</g>
</svg>
