<?xml version="1.0" encoding="iso-8859-1"?>
<!-- Generator: Adobe Illustrator 19.0.0, SVG Export Plug-In . SVG Version: 6.00 Build 0)  -->
<svg xmlns="http://www.w3.org/2000/svg" xmlns:xlink="http://www.w3.org/1999/xlink" version="1.1" id="Capa_1" x="0px" y="0px" viewBox="0 0 512.001 512.001" style="enable-background:new 0 0 512.001 512.001;" xml:space="preserve">
<g>
	<g>
		<path d="M331.975,0h-152.48c-8.297,0-15.023,6.726-15.023,15.023V47.46c0,3.734,3.028,6.761,6.761,6.761h169.003    c3.735,0,6.761-3.028,6.761-6.761V15.023C346.998,6.726,340.271,0,331.975,0z"/>
	</g>
</g>
<g>
	<g>
		<path d="M255.55,230.176c-22.158,0-40.184,18.027-40.184,40.184s18.027,40.184,40.184,40.184s40.184-18.027,40.184-40.184    S277.708,230.176,255.55,230.176z"/>
	</g>
</g>
<g>
	<g>
		<path d="M369.054,124.42c-0.007-0.019-0.011-0.037-0.018-0.056l-12.135-31.871c-1.886-4.954-6.635-8.227-11.935-8.227h-178.34    c-5.318,0-10.079,3.295-11.952,8.273l-12.292,32.658c-0.782,2.078-1.06,4.219-0.918,6.298c-0.027,0.471-0.044,0.944-0.044,1.423    v269.141c0,8.401,6.81,15.212,15.212,15.212h198.737c8.401,0,15.212-6.81,15.212-15.212V132.918    C370.581,129.932,370.04,127.069,369.054,124.42z M255.55,340.591c-38.725,0-70.23-31.505-70.23-70.23s31.505-70.23,70.23-70.23    s70.23,31.505,70.23,70.23S294.275,340.591,255.55,340.591z"/>
	</g>
</g>
<g>
	<g>
		<path d="M355.368,447.317H156.632c-8.401,0-15.212,6.81-15.212,15.212v14.405c0,19.367,15.7,35.067,35.067,35.067h159.027    c19.368,0,35.068-15.7,35.068-35.068v-14.404C370.581,454.128,363.77,447.317,355.368,447.317z"/>
	</g>
</g>
<g>
</g>
<g>
</g>
<g>
</g>
<g>
</g>
<g>
</g>
<g>
</g>
<g>
</g>
<g>
</g>
<g>
</g>
<g>
</g>
<g>
</g>
<g>
</g>
<g>
</g>
<g>
</g>
<g>
</g>
</svg>
