<?xml version="1.0" encoding="iso-8859-1"?>
<!-- Generator: Adobe Illustrator 19.0.0, SVG Export Plug-In . SVG Version: 6.00 Build 0)  -->
<svg xmlns="http://www.w3.org/2000/svg" xmlns:xlink="http://www.w3.org/1999/xlink" version="1.1" id="Capa_1" x="0px" y="0px" viewBox="0 0 512 512" style="enable-background:new 0 0 512 512;" xml:space="preserve">
<g>
	<g>
		<path d="M330.299,74.299c-100.19,0-181.701,81.51-181.701,181.701s81.51,181.701,181.701,181.701S512,356.191,512,256    S430.489,74.299,330.299,74.299z M439.597,311.38c-21.015,41.404-62.896,67.125-109.298,67.125    c-67.55,0-122.506-54.955-122.506-122.506c0-67.55,54.955-122.505,122.506-122.505c13.709,0,27.178,2.252,40.031,6.694    c7.835,2.708,11.991,11.254,9.283,19.088c-2.709,7.835-11.257,11.989-19.088,9.283c-9.693-3.35-19.862-5.048-30.226-5.048    c-50.998,0-92.488,41.489-92.488,92.487c0,50.998,41.489,92.488,92.488,92.488c35.037,0,66.66-19.425,82.531-50.694    c3.752-7.391,12.786-10.341,20.177-6.59C440.399,294.955,443.35,303.988,439.597,311.38z"/>
	</g>
</g>
<g>
	<g>
		<path d="M112.069,74.299c-8.289,0-15.009,6.72-15.009,15.009v57.476H78.547V89.308c0-8.289-6.72-15.009-15.009-15.009    c-8.289,0-15.009,6.72-15.009,15.009v57.476H30.018V89.308c0-8.289-6.72-15.009-15.009-15.009S0,81.019,0,89.308v57.476v15.009    v27.669c0,29.555,20.802,54.329,48.53,60.488v172.742c0,8.289,6.72,15.009,15.009,15.009s15.009-6.72,15.009-15.009V249.949    c27.728-6.159,48.531-30.932,48.531-60.488v-27.669v-15.009V89.308C127.078,81.018,120.359,74.299,112.069,74.299z"/>
	</g>
</g>
<g>
</g>
<g>
</g>
<g>
</g>
<g>
</g>
<g>
</g>
<g>
</g>
<g>
</g>
<g>
</g>
<g>
</g>
<g>
</g>
<g>
</g>
<g>
</g>
<g>
</g>
<g>
</g>
<g>
</g>
</svg>
