<?xml version="1.0" encoding="iso-8859-1"?>
<!-- Generator: Adobe Illustrator 19.0.0, SVG Export Plug-In . SVG Version: 6.00 Build 0)  -->
<svg version="1.1" id="Layer_1" xmlns="http://www.w3.org/2000/svg" xmlns:xlink="http://www.w3.org/1999/xlink" x="0px" y="0px"
	 viewBox="0 0 420 420" style="enable-background:new 0 0 420 420;" xml:space="preserve">
<g>
	<polygon points="245,115 245,0 60,0 60,265 360,265 360,115 	"/>
	<path d="M232.5,354.645c1.261-1.5,1.891-3.69,1.891-6.57c0-1.499-0.195-2.79-0.585-3.87c-0.392-1.08-0.916-1.979-1.575-2.7
		c-0.661-0.72-1.41-1.244-2.25-1.574c-0.841-0.33-1.681-0.496-2.521-0.496h-11.52v17.461H228
		C229.74,356.895,231.24,356.145,232.5,354.645z"/>
	<polygon points="275,15 275,85 345,85 	"/>
	<path d="M60,420h300V295H60V420z M285.644,364.874c-2.011-1.38-5.175-2.069-9.495-2.069h-2.699v-10.351h2.97
		c3.359,0,5.985-0.688,7.875-2.07c1.89-1.38,2.835-3.209,2.835-5.489c0-1.98-0.69-3.479-2.07-4.5c-1.381-1.02-3.21-1.53-5.489-1.53
		c-2.461,0-4.696,0.585-6.705,1.755c-2.012,1.17-3.706,2.835-5.085,4.995l-9.091-10.44c0.96-1.26,2.22-2.43,3.78-3.51
		c1.56-1.08,3.33-1.994,5.311-2.745c1.979-0.749,4.108-1.335,6.39-1.755c2.279-0.419,4.619-0.63,7.02-0.63
		c3.18,0,6.09,0.376,8.73,1.125c2.64,0.751,4.89,1.831,6.75,3.239c1.859,1.411,3.299,3.092,4.32,5.041
		c1.02,1.95,1.529,4.125,1.529,6.524c0,1.8-0.285,3.511-0.854,5.13c-0.571,1.62-1.365,3.092-2.385,4.41
		c-1.021,1.32-2.236,2.416-3.646,3.285c-1.41,0.871-2.956,1.455-4.635,1.755c1.859,0.36,3.569,1.005,5.13,1.935
		c1.56,0.932,2.895,2.102,4.005,3.511c1.109,1.41,1.965,3.03,2.565,4.86c0.599,1.83,0.899,3.795,0.899,5.895
		c0,2.82-0.57,5.355-1.71,7.605c-1.141,2.25-2.775,4.169-4.904,5.76c-2.131,1.589-4.696,2.819-7.695,3.689
		c-3.001,0.869-6.36,1.305-10.08,1.305c-9.121,0-16.261-2.67-21.42-8.01l7.74-10.26c1.619,1.681,3.465,2.956,5.534,3.825
		c2.07,0.87,4.546,1.305,7.426,1.305c6.779,0,10.17-2.489,10.17-7.47C288.659,368.294,287.653,366.255,285.644,364.874z
		 M201.181,326.475h27.27c3.061,0,5.864,0.629,8.415,1.89c2.55,1.26,4.739,2.911,6.57,4.95c1.829,2.04,3.27,4.351,4.32,6.93
		c1.049,2.58,1.574,5.19,1.574,7.83c0,2.82-0.494,5.521-1.484,8.1c-0.99,2.58-2.371,4.891-4.141,6.93
		c-1.77,2.041-3.915,3.661-6.435,4.86c-2.521,1.201-5.311,1.8-8.37,1.8h-12.96v20.61h-14.76V326.475z M119.282,326.475h16.02
		l16.561,33.39l16.649-33.39h15.93v63.899h-14.76v-38.25l-13.859,27.81h-7.92l-13.86-27.81v38.25h-14.76V326.475z"/>
</g>
<g>
</g>
<g>
</g>
<g>
</g>
<g>
</g>
<g>
</g>
<g>
</g>
<g>
</g>
<g>
</g>
<g>
</g>
<g>
</g>
<g>
</g>
<g>
</g>
<g>
</g>
<g>
</g>
<g>
</g>
</svg>
