<?xml version="1.0" encoding="iso-8859-1"?>
<!-- Generator: Adobe Illustrator 19.0.0, SVG Export Plug-In . SVG Version: 6.00 Build 0)  -->
<svg version="1.1" id="Layer_1" xmlns="http://www.w3.org/2000/svg" xmlns:xlink="http://www.w3.org/1999/xlink" x="0px" y="0px"
	 viewBox="0 0 420 420" style="enable-background:new 0 0 420 420;" xml:space="preserve">
<g>
	<path d="M155.012,354.645c1.26-1.5,1.89-3.69,1.89-6.57c0-1.499-0.195-2.79-0.585-3.87c-0.391-1.08-0.916-1.979-1.575-2.7
		c-0.661-0.72-1.41-1.244-2.25-1.574c-0.841-0.33-1.68-0.496-2.52-0.496h-11.52v17.461h12.06
		C152.251,356.895,153.752,356.145,155.012,354.645z"/>
	<polygon points="245,115 245,0 60,0 60,265 360,265 360,115 	"/>
	<polygon points="275,15 275,85 345,85 	"/>
	<path d="M275.16,375.975c2.1-0.959,3.854-2.295,5.264-4.006c1.41-1.71,2.49-3.719,3.24-6.029c0.75-2.31,1.125-4.845,1.125-7.605
		c0-2.819-0.375-5.385-1.125-7.695c-0.75-2.309-1.844-4.305-3.285-5.984c-1.439-1.68-3.209-2.971-5.309-3.87
		c-2.102-0.9-4.471-1.351-7.111-1.351h-9.09v37.98h9.09C270.66,377.414,273.059,376.935,275.16,375.975z"/>
	<path d="M60,420h300V295H60V420z M244.109,326.475h23.85c5.279,0,9.9,0.84,13.861,2.52c3.959,1.68,7.273,3.96,9.945,6.84
		c2.668,2.88,4.68,6.255,6.029,10.125s2.025,7.996,2.025,12.375c0,4.859-0.752,9.256-2.25,13.186
		c-1.502,3.93-3.646,7.289-6.436,10.08c-2.789,2.789-6.15,4.949-10.08,6.479s-8.295,2.295-13.096,2.295h-23.85V326.475z
		 M213.96,370.034c-0.78-0.779-1.86-1.485-3.24-2.115c-1.381-0.63-3.015-1.215-4.905-1.755c-1.89-0.54-3.946-1.139-6.165-1.8
		c-2.94-0.9-5.49-1.875-7.65-2.925c-2.16-1.049-3.946-2.265-5.355-3.646c-1.41-1.38-2.461-2.97-3.15-4.771
		c-0.69-1.799-1.035-3.898-1.035-6.299c0-3.36,0.63-6.33,1.89-8.91c1.26-2.58,2.97-4.755,5.13-6.525
		c2.16-1.77,4.665-3.105,7.515-4.005c2.849-0.9,5.864-1.351,9.045-1.351c2.219,0,4.41,0.211,6.57,0.631
		c2.16,0.42,4.23,0.96,6.21,1.619c1.98,0.661,3.825,1.411,5.535,2.25c1.71,0.842,3.285,1.681,4.725,2.521l-6.48,12.239
		c-0.18-0.238-0.81-0.688-1.89-1.35c-1.08-0.659-2.43-1.35-4.05-2.07c-1.62-0.719-3.391-1.35-5.31-1.89
		c-1.921-0.54-3.84-0.81-5.76-0.81c-5.281,0-7.92,1.771-7.92,5.31c0,1.08,0.284,1.98,0.855,2.7c0.57,0.721,1.409,1.365,2.52,1.936
		c1.11,0.57,2.505,1.095,4.185,1.574c1.679,0.481,3.63,1.021,5.85,1.62c3.06,0.841,5.819,1.755,8.28,2.745
		c2.459,0.99,4.545,2.221,6.255,3.689c1.71,1.472,3.029,3.256,3.96,5.355c0.93,2.102,1.395,4.621,1.395,7.561
		c0,3.6-0.675,6.646-2.025,9.135c-1.35,2.49-3.136,4.5-5.355,6.029c-2.221,1.53-4.77,2.642-7.65,3.33
		c-2.88,0.689-5.85,1.035-8.91,1.035c-2.34,0-4.741-0.18-7.2-0.539c-2.461-0.361-4.86-0.885-7.2-1.576
		c-2.34-0.688-4.605-1.514-6.795-2.475c-2.191-0.959-4.216-2.07-6.075-3.33l6.48-12.869c0.239,0.301,1.02,0.869,2.34,1.709
		c1.319,0.842,2.955,1.681,4.905,2.521c1.949,0.841,4.125,1.591,6.525,2.25c2.399,0.661,4.829,0.989,7.29,0.989
		c5.22,0,7.83-1.588,7.83-4.77C215.131,371.805,214.74,370.814,213.96,370.034z M123.692,326.475h27.27
		c3.06,0,5.864,0.629,8.415,1.89c2.549,1.26,4.739,2.911,6.57,4.95c1.83,2.04,3.27,4.351,4.32,6.93
		c1.049,2.58,1.575,5.19,1.575,7.83c0,2.82-0.495,5.521-1.485,8.1c-0.99,2.58-2.371,4.891-4.14,6.93
		c-1.771,2.041-3.915,3.661-6.435,4.86c-2.52,1.201-5.31,1.8-8.37,1.8h-12.96v20.61h-14.76V326.475z"/>
</g>
<g>
</g>
<g>
</g>
<g>
</g>
<g>
</g>
<g>
</g>
<g>
</g>
<g>
</g>
<g>
</g>
<g>
</g>
<g>
</g>
<g>
</g>
<g>
</g>
<g>
</g>
<g>
</g>
<g>
</g>
</svg>
