<?xml version="1.0" encoding="iso-8859-1"?>
<!-- Generator: Adobe Illustrator 19.0.0, SVG Export Plug-In . SVG Version: 6.00 Build 0)  -->
<svg version="1.1" id="Layer_1" xmlns="http://www.w3.org/2000/svg" xmlns:xlink="http://www.w3.org/1999/xlink" x="0px" y="0px"
	 viewBox="0 0 420 420" style="enable-background:new 0 0 420 420;" xml:space="preserve">
<g>
	<polygon points="275,15 275,85 345,85 	"/>
	<path d="M232.635,375.974c2.1-0.959,3.854-2.295,5.266-4.005c1.409-1.71,2.488-3.72,3.24-6.03c0.75-2.309,1.125-4.844,1.125-7.605
		c0-2.819-0.375-5.384-1.125-7.695c-0.752-2.309-1.846-4.305-3.285-5.985c-1.44-1.679-3.211-2.97-5.311-3.87
		c-2.101-0.9-4.471-1.35-7.109-1.35h-9.091v37.98h9.091C228.135,377.414,230.534,376.935,232.635,375.974z"/>
	<polygon points="245,115 245,0 60,0 60,265 360,265 360,115 	"/>
	<path d="M301.574,375.974c2.1-0.959,3.854-2.295,5.265-4.005c1.409-1.71,2.489-3.72,3.24-6.03c0.75-2.309,1.125-4.844,1.125-7.605
		c0-2.819-0.375-5.384-1.125-7.695c-0.751-2.309-1.845-4.305-3.285-5.985c-1.439-1.679-3.21-2.97-5.31-3.87
		c-2.101-0.9-4.471-1.35-7.11-1.35h-9.09v37.98h9.09C297.074,377.414,299.474,376.935,301.574,375.974z"/>
	<path d="M60,420h300V295H60V420z M270.524,326.474h23.85c5.279,0,9.9,0.841,13.86,2.52c3.96,1.68,7.274,3.96,9.945,6.84
		c2.669,2.88,4.68,6.255,6.029,10.125c1.351,3.87,2.025,7.996,2.025,12.375c0,4.86-0.751,9.256-2.25,13.185
		c-1.501,3.931-3.646,7.29-6.436,10.08c-2.789,2.79-6.15,4.95-10.079,6.48c-3.931,1.53-8.296,2.295-13.096,2.295h-23.85V326.474z
		 M201.585,326.474h23.851c5.278,0,9.899,0.841,13.859,2.52c3.961,1.68,7.275,3.96,9.945,6.84s4.68,6.255,6.029,10.125
		c1.352,3.87,2.025,7.996,2.025,12.375c0,4.86-0.75,9.256-2.25,13.185c-1.5,3.931-3.645,7.29-6.436,10.08
		c-2.789,2.79-6.15,4.95-10.079,6.48c-3.931,1.53-8.296,2.295-13.095,2.295h-23.851V326.474z M128.776,326.474h11.52l29.79,37.53
		v-37.53h14.76v63.9h-11.88l-29.43-36.54v36.54h-14.76V326.474z M97.277,326.474h14.76v63.9h-14.76V326.474z"/>
</g>
<g>
</g>
<g>
</g>
<g>
</g>
<g>
</g>
<g>
</g>
<g>
</g>
<g>
</g>
<g>
</g>
<g>
</g>
<g>
</g>
<g>
</g>
<g>
</g>
<g>
</g>
<g>
</g>
<g>
</g>
</svg>
