<?xml version="1.0" encoding="iso-8859-1"?>
<!-- Generator: Adobe Illustrator 19.0.0, SVG Export Plug-In . SVG Version: 6.00 Build 0)  -->
<svg version="1.1" id="Layer_1" xmlns="http://www.w3.org/2000/svg" xmlns:xlink="http://www.w3.org/1999/xlink" x="0px" y="0px"
	 viewBox="0 0 420 420" style="enable-background:new 0 0 420 420;" xml:space="preserve">
<g>
	<path d="M155.102,375.974c2.1-0.959,3.854-2.295,5.265-4.005c1.409-1.71,2.489-3.72,3.24-6.03c0.75-2.309,1.125-4.844,1.125-7.605
		c0-2.819-0.375-5.384-1.125-7.695c-0.751-2.309-1.845-4.305-3.285-5.985c-1.44-1.679-3.21-2.97-5.31-3.87
		c-2.101-0.9-4.471-1.35-7.11-1.35h-9.09v37.98h9.09C150.602,377.414,153,376.935,155.102,375.974z"/>
	<polygon points="275,15 275,85 345,85 	"/>
	<polygon points="245,115 245,0 60,0 60,265 360,265 360,115 	"/>
	<path d="M60,420h300V295H60V420z M282.54,370.034c-0.781-0.779-1.86-1.485-3.24-2.115c-1.381-0.63-3.015-1.215-4.905-1.755
		c-1.89-0.54-3.945-1.139-6.165-1.8c-2.94-0.9-5.49-1.875-7.649-2.925c-2.16-1.049-3.946-2.264-5.355-3.645
		c-1.41-1.379-2.461-2.97-3.149-4.77c-0.691-1.8-1.035-3.899-1.035-6.3c0-3.36,0.63-6.33,1.89-8.91
		c1.26-2.579,2.97-4.754,5.13-6.525c2.16-1.769,4.665-3.105,7.516-4.005c2.849-0.9,5.863-1.35,9.045-1.35
		c2.219,0,4.409,0.211,6.569,0.63c2.16,0.42,4.23,0.96,6.21,1.62c1.98,0.661,3.825,1.411,5.535,2.25
		c1.71,0.841,3.285,1.68,4.726,2.52l-6.48,12.24c-0.18-0.239-0.81-0.689-1.89-1.35c-1.08-0.66-2.431-1.35-4.051-2.07
		c-1.619-0.72-3.39-1.35-5.31-1.89c-1.921-0.54-3.841-0.81-5.76-0.81c-5.28,0-7.92,1.771-7.92,5.31c0,1.08,0.284,1.98,0.854,2.7
		c0.569,0.72,1.409,1.366,2.521,1.935c1.109,0.571,2.504,1.095,4.185,1.575c1.68,0.481,3.63,1.021,5.851,1.62
		c3.06,0.841,5.818,1.755,8.279,2.745c2.46,0.99,4.545,2.221,6.255,3.69c1.71,1.471,3.029,3.255,3.96,5.355
		c0.93,2.101,1.396,4.621,1.396,7.56c0,3.6-0.675,6.646-2.025,9.135c-1.35,2.49-3.136,4.5-5.354,6.03
		c-2.221,1.53-4.771,2.641-7.65,3.33s-5.85,1.035-8.91,1.035c-2.34,0-4.74-0.18-7.199-0.54c-2.461-0.36-4.86-0.885-7.2-1.575
		c-2.34-0.689-4.605-1.515-6.795-2.475c-2.191-0.959-4.216-2.07-6.075-3.33l6.479-12.87c0.239,0.301,1.02,0.87,2.341,1.71
		c1.318,0.841,2.954,1.68,4.904,2.52c1.949,0.841,4.125,1.59,6.525,2.25c2.399,0.661,4.829,0.99,7.29,0.99
		c5.22,0,7.83-1.589,7.83-4.77C283.71,371.805,283.318,370.814,282.54,370.034z M222.69,370.034c-0.78-0.779-1.86-1.485-3.24-2.115
		c-1.381-0.63-3.015-1.215-4.905-1.755c-1.89-0.54-3.946-1.139-6.165-1.8c-2.94-0.9-5.49-1.875-7.65-2.925
		c-2.16-1.049-3.946-2.264-5.355-3.645c-1.41-1.379-2.461-2.97-3.15-4.77c-0.69-1.8-1.035-3.899-1.035-6.3
		c0-3.36,0.63-6.33,1.89-8.91c1.26-2.579,2.97-4.754,5.13-6.525c2.16-1.769,4.665-3.105,7.515-4.005
		c2.849-0.9,5.864-1.35,9.045-1.35c2.219,0,4.41,0.211,6.57,0.63c2.16,0.42,4.23,0.96,6.21,1.62c1.98,0.661,3.825,1.411,5.535,2.25
		c1.71,0.841,3.285,1.68,4.725,2.52l-6.48,12.24c-0.18-0.239-0.81-0.689-1.89-1.35c-1.08-0.66-2.43-1.35-4.05-2.07
		c-1.62-0.72-3.391-1.35-5.31-1.89c-1.921-0.54-3.84-0.81-5.76-0.81c-5.281,0-7.92,1.771-7.92,5.31c0,1.08,0.284,1.98,0.855,2.7
		c0.57,0.72,1.409,1.366,2.52,1.935c1.11,0.571,2.505,1.095,4.185,1.575c1.679,0.481,3.63,1.021,5.85,1.62
		c3.06,0.841,5.819,1.755,8.28,2.745c2.459,0.99,4.545,2.221,6.255,3.69c1.71,1.471,3.029,3.255,3.96,5.355
		c0.93,2.101,1.395,4.621,1.395,7.56c0,3.6-0.675,6.646-2.025,9.135c-1.35,2.49-3.136,4.5-5.355,6.03
		c-2.221,1.53-4.77,2.641-7.65,3.33c-2.88,0.689-5.85,1.035-8.91,1.035c-2.34,0-4.741-0.18-7.2-0.54
		c-2.461-0.36-4.86-0.885-7.2-1.575c-2.34-0.689-4.605-1.515-6.795-2.475c-2.191-0.959-4.216-2.07-6.075-3.33l6.48-12.87
		c0.239,0.301,1.02,0.87,2.34,1.71c1.319,0.841,2.955,1.68,4.905,2.52c1.949,0.841,4.125,1.59,6.525,2.25
		c2.399,0.661,4.829,0.99,7.29,0.99c5.22,0,7.83-1.589,7.83-4.77C223.861,371.805,223.47,370.814,222.69,370.034z M124.052,326.474
		h23.85c5.279,0,9.9,0.841,13.86,2.52c3.96,1.68,7.274,3.96,9.945,6.84c2.669,2.88,4.68,6.255,6.03,10.125
		c1.35,3.87,2.025,7.996,2.025,12.375c0,4.86-0.751,9.256-2.25,13.185c-1.5,3.931-3.645,7.29-6.435,10.08s-6.151,4.95-10.08,6.48
		c-3.93,1.53-8.295,2.295-13.095,2.295h-23.85V326.474z"/>
</g>
<g>
</g>
<g>
</g>
<g>
</g>
<g>
</g>
<g>
</g>
<g>
</g>
<g>
</g>
<g>
</g>
<g>
</g>
<g>
</g>
<g>
</g>
<g>
</g>
<g>
</g>
<g>
</g>
<g>
</g>
</svg>
