<?xml version="1.0" encoding="iso-8859-1"?>
<!-- Generator: Adobe Illustrator 19.0.0, SVG Export Plug-In . SVG Version: 6.00 Build 0)  -->
<svg version="1.1" id="Layer_1" xmlns="http://www.w3.org/2000/svg" xmlns:xlink="http://www.w3.org/1999/xlink" x="0px" y="0px"
	 viewBox="0 0 420 420" style="enable-background:new 0 0 420 420;" xml:space="preserve">
<g>
	<path d="M60,420h300V295H60V420z M281.279,370.034c-0.781-0.779-1.86-1.485-3.24-2.115c-1.381-0.63-3.015-1.215-4.905-1.755
		c-1.89-0.54-3.945-1.139-6.165-1.8c-2.94-0.9-5.49-1.875-7.649-2.925c-2.16-1.049-3.946-2.264-5.355-3.645
		c-1.41-1.379-2.461-2.97-3.149-4.77c-0.691-1.8-1.035-3.899-1.035-6.3c0-3.36,0.63-6.33,1.89-8.91
		c1.26-2.579,2.97-4.754,5.13-6.525c2.16-1.769,4.665-3.105,7.516-4.005c2.849-0.9,5.863-1.35,9.045-1.35
		c2.219,0,4.409,0.211,6.569,0.63c2.16,0.42,4.23,0.96,6.21,1.62c1.98,0.661,3.825,1.411,5.535,2.25
		c1.71,0.841,3.285,1.68,4.726,2.52l-6.48,12.24c-0.18-0.239-0.81-0.689-1.89-1.35c-1.08-0.66-2.431-1.35-4.051-2.07
		c-1.619-0.72-3.39-1.35-5.31-1.89c-1.921-0.54-3.841-0.81-5.76-0.81c-5.28,0-7.92,1.771-7.92,5.31c0,1.08,0.284,1.98,0.854,2.7
		c0.569,0.72,1.409,1.366,2.521,1.935c1.109,0.571,2.504,1.095,4.185,1.575c1.68,0.481,3.63,1.021,5.851,1.62
		c3.06,0.841,5.818,1.755,8.279,2.745c2.46,0.99,4.545,2.221,6.255,3.69c1.71,1.471,3.029,3.255,3.96,5.355
		c0.93,2.101,1.396,4.621,1.396,7.56c0,3.6-0.675,6.646-2.025,9.135c-1.35,2.49-3.136,4.5-5.354,6.03
		c-2.221,1.53-4.771,2.641-7.65,3.33s-5.85,1.035-8.91,1.035c-2.34,0-4.74-0.18-7.199-0.54c-2.461-0.36-4.86-0.885-7.2-1.575
		c-2.34-0.689-4.605-1.515-6.795-2.475c-2.191-0.959-4.216-2.07-6.075-3.33l6.479-12.87c0.239,0.301,1.02,0.87,2.341,1.71
		c1.318,0.841,2.954,1.68,4.904,2.52c1.949,0.841,4.125,1.59,6.525,2.25c2.399,0.661,4.829,0.99,7.29,0.99
		c5.22,0,7.83-1.589,7.83-4.77C282.449,371.805,282.058,370.814,281.279,370.034z M221.43,370.034
		c-0.78-0.779-1.86-1.485-3.239-2.115c-1.381-0.63-3.016-1.215-4.905-1.755s-3.946-1.139-6.165-1.8c-2.94-0.9-5.49-1.875-7.65-2.925
		c-2.159-1.049-3.945-2.264-5.354-3.645c-1.41-1.379-2.461-2.97-3.15-4.77c-0.69-1.8-1.035-3.899-1.035-6.3
		c0-3.36,0.631-6.33,1.891-8.91c1.26-2.579,2.97-4.754,5.13-6.525c2.16-1.769,4.664-3.105,7.515-4.005
		c2.85-0.9,5.864-1.35,9.045-1.35c2.22,0,4.41,0.211,6.57,0.63c2.16,0.42,4.23,0.96,6.21,1.62c1.98,0.661,3.825,1.411,5.535,2.25
		c1.71,0.841,3.285,1.68,4.725,2.52l-6.479,12.24c-0.181-0.239-0.811-0.689-1.891-1.35c-1.079-0.66-2.43-1.35-4.05-2.07
		c-1.62-0.72-3.391-1.35-5.31-1.89c-1.921-0.54-3.841-0.81-5.76-0.81c-5.281,0-7.921,1.771-7.921,5.31c0,1.08,0.284,1.98,0.855,2.7
		c0.569,0.72,1.409,1.366,2.52,1.935c1.11,0.571,2.505,1.095,4.186,1.575c1.679,0.481,3.63,1.021,5.85,1.62
		c3.061,0.841,5.819,1.755,8.28,2.745c2.46,0.99,4.545,2.221,6.255,3.69c1.71,1.471,3.029,3.255,3.96,5.355
		c0.93,2.101,1.396,4.621,1.396,7.56c0,3.6-0.676,6.646-2.025,9.135c-1.35,2.49-3.136,4.5-5.354,6.03
		c-2.221,1.53-4.771,2.641-7.65,3.33s-5.85,1.035-8.91,1.035c-2.34,0-4.74-0.18-7.2-0.54c-2.461-0.36-4.859-0.885-7.199-1.575
		c-2.341-0.689-4.605-1.515-6.796-2.475c-2.19-0.959-4.216-2.07-6.074-3.33l6.479-12.87c0.239,0.301,1.02,0.87,2.34,1.71
		c1.319,0.841,2.955,1.68,4.905,2.52c1.949,0.841,4.125,1.59,6.525,2.25c2.398,0.661,4.829,0.99,7.29,0.99
		c5.22,0,7.83-1.589,7.83-4.77C222.601,371.805,222.209,370.814,221.43,370.034z M123.781,346.409
		c1.439-3.81,3.539-7.214,6.3-10.215c2.759-3,6.12-5.429,10.08-7.29c3.96-1.859,8.46-2.79,13.5-2.79
		c5.999,0,11.205,1.291,15.615,3.87c4.41,2.581,7.694,5.94,9.854,10.08l-11.34,7.92c-0.72-1.679-1.636-3.074-2.745-4.185
		c-1.11-1.109-2.325-2.009-3.645-2.7c-1.32-0.689-2.671-1.17-4.05-1.44c-1.381-0.27-2.731-0.405-4.051-0.405
		c-2.82,0-5.28,0.571-7.38,1.71c-2.101,1.141-3.84,2.61-5.22,4.41c-1.381,1.8-2.4,3.84-3.06,6.12c-0.661,2.281-0.99,4.59-0.99,6.93
		c0,2.52,0.39,4.95,1.17,7.29c0.779,2.34,1.904,4.41,3.375,6.21c1.47,1.8,3.24,3.226,5.31,4.275c2.07,1.05,4.395,1.575,6.976,1.575
		c1.318,0,2.685-0.165,4.095-0.495c1.409-0.329,2.759-0.839,4.05-1.53c1.29-0.689,2.476-1.589,3.556-2.7
		c1.079-1.109,1.948-2.475,2.609-4.095l12.061,7.11c-0.961,2.34-2.386,4.441-4.275,6.3c-1.89,1.86-4.065,3.42-6.525,4.68
		c-2.461,1.26-5.07,2.221-7.83,2.88c-2.76,0.66-5.46,0.99-8.1,0.99c-4.621,0-8.865-0.945-12.735-2.835
		c-3.869-1.89-7.199-4.395-9.989-7.515c-2.79-3.119-4.95-6.66-6.48-10.62s-2.295-7.979-2.295-12.06
		C121.621,354.045,122.341,350.22,123.781,346.409z"/>
	<polygon points="245,115 245,0 60,0 60,265 360,265 360,115 	"/>
	<polygon points="275,15 275,85 345,85 	"/>
</g>
<g>
</g>
<g>
</g>
<g>
</g>
<g>
</g>
<g>
</g>
<g>
</g>
<g>
</g>
<g>
</g>
<g>
</g>
<g>
</g>
<g>
</g>
<g>
</g>
<g>
</g>
<g>
</g>
<g>
</g>
</svg>
