<?xml version="1.0" encoding="iso-8859-1"?>
<!-- Generator: Adobe Illustrator 19.0.0, SVG Export Plug-In . SVG Version: 6.00 Build 0)  -->
<svg version="1.1" id="Layer_1" xmlns="http://www.w3.org/2000/svg" xmlns:xlink="http://www.w3.org/1999/xlink" x="0px" y="0px"
	 viewBox="0 0 420 420" style="enable-background:new 0 0 420 420;" xml:space="preserve">
<g>
	<polygon points="275,15 275,85 345,85 	"/>
	<polygon points="245,115 245,0 60,0 60,265 360,265 360,115 	"/>
	<path d="M60,420h300V295H60V420z M242.444,326.474h43.38v12.96h-28.62v13.77h23.58v11.97h-23.58v25.2h-14.76V326.474z
		 M210.945,326.474h14.76v63.9h-14.76V326.474z M139.396,345.554c1.62-3.9,3.854-7.29,6.705-10.17
		c2.849-2.88,6.224-5.159,10.125-6.84c3.9-1.679,8.1-2.52,12.6-2.52c5.94,0,11.129,1.246,15.57,3.735
		c4.439,2.491,7.77,5.895,9.99,10.215l-10.98,8.28c-1.44-2.88-3.525-5.114-6.255-6.705c-2.731-1.589-5.686-2.385-8.865-2.385
		c-2.461,0-4.695,0.495-6.705,1.485c-2.011,0.99-3.735,2.371-5.175,4.14c-1.44,1.771-2.551,3.825-3.33,6.165
		c-0.78,2.34-1.17,4.86-1.17,7.56c0,2.76,0.419,5.31,1.26,7.65c0.839,2.34,2.009,4.365,3.51,6.075
		c1.499,1.71,3.285,3.046,5.355,4.005c2.07,0.96,4.365,1.44,6.885,1.44c5.76,0,10.949-2.669,15.57-8.01v-1.98h-12.42v-10.71h24.66
		v33.39h-12.24v-6.3c-4.86,4.5-10.471,6.75-16.83,6.75c-4.2,0-8.161-0.795-11.88-2.385c-3.721-1.589-6.975-3.825-9.765-6.705
		c-2.79-2.88-4.995-6.345-6.615-10.395c-1.62-4.05-2.43-8.505-2.43-13.365C136.966,353.595,137.776,349.455,139.396,345.554z"/>
</g>
<g>
</g>
<g>
</g>
<g>
</g>
<g>
</g>
<g>
</g>
<g>
</g>
<g>
</g>
<g>
</g>
<g>
</g>
<g>
</g>
<g>
</g>
<g>
</g>
<g>
</g>
<g>
</g>
<g>
</g>
</svg>
