<?xml version="1.0" encoding="iso-8859-1"?>
<!-- Generator: Adobe Illustrator 19.0.0, SVG Export Plug-In . SVG Version: 6.00 Build 0)  -->
<svg version="1.1" id="Layer_1" xmlns="http://www.w3.org/2000/svg" xmlns:xlink="http://www.w3.org/1999/xlink" x="0px" y="0px"
	 viewBox="0 0 420 420" style="enable-background:new 0 0 420 420;" xml:space="preserve">
<g>
	<path d="M208.604,371.834c1.409,1.8,3.164,3.24,5.265,4.32c2.1,1.08,4.5,1.619,7.2,1.619c2.819,0,5.278-0.568,7.38-1.709
		c2.1-1.14,3.839-2.625,5.22-4.455c1.38-1.83,2.414-3.9,3.104-6.211c0.689-2.309,1.035-4.664,1.035-7.064
		c0-2.459-0.359-4.845-1.08-7.154c-0.72-2.31-1.8-4.35-3.239-6.121c-1.44-1.769-3.195-3.18-5.266-4.229
		c-2.069-1.05-4.455-1.575-7.154-1.575c-2.821,0-5.266,0.556-7.335,1.665c-2.07,1.11-3.811,2.565-5.22,4.365
		c-1.411,1.8-2.461,3.856-3.15,6.165c-0.69,2.311-1.035,4.666-1.035,7.064c0,2.461,0.36,4.846,1.08,7.155
		C206.129,367.979,207.194,370.034,208.604,371.834z"/>
	<path d="M60,420h300V295H60V420z M272.819,326.475l15.03,45.359l14.85-45.359h15.57l-24.21,63.899h-12.42l-24.479-63.899H272.819z
		 M191.684,346.184c1.589-3.898,3.81-7.334,6.66-10.305c2.849-2.97,6.224-5.34,10.125-7.109c3.899-1.77,8.159-2.655,12.78-2.655
		c4.739,0,9.059,0.931,12.96,2.79c3.899,1.86,7.229,4.32,9.99,7.38c2.759,3.06,4.89,6.54,6.39,10.44
		c1.499,3.9,2.25,7.86,2.25,11.879c0,4.201-0.796,8.251-2.385,12.15c-1.591,3.9-3.796,7.335-6.615,10.305
		c-2.821,2.971-6.181,5.355-10.08,7.155c-3.9,1.8-8.16,2.7-12.78,2.7c-4.74,0-9.061-0.93-12.959-2.79
		c-3.901-1.858-7.231-4.305-9.99-7.335c-2.761-3.029-4.905-6.494-6.435-10.395c-1.53-3.9-2.295-7.92-2.295-12.061
		C189.299,354.135,190.094,350.085,191.684,346.184z M111.09,326.475h16.02l16.56,33.39l16.65-33.39h15.93v63.899h-14.76v-38.25
		l-13.86,27.81h-7.92l-13.86-27.81v38.25h-14.76V326.475z"/>
	<polygon points="275,15 275,85 345,85 	"/>
	<polygon points="245,115 245,0 60,0 60,265 360,265 360,115 	"/>
</g>
<g>
</g>
<g>
</g>
<g>
</g>
<g>
</g>
<g>
</g>
<g>
</g>
<g>
</g>
<g>
</g>
<g>
</g>
<g>
</g>
<g>
</g>
<g>
</g>
<g>
</g>
<g>
</g>
<g>
</g>
</svg>
