<?xml version="1.0" encoding="iso-8859-1"?>
<!-- Generator: Adobe Illustrator 19.0.0, SVG Export Plug-In . SVG Version: 6.00 Build 0)  -->
<svg xmlns="http://www.w3.org/2000/svg" xmlns:xlink="http://www.w3.org/1999/xlink" version="1.1" id="Capa_1" x="0px" y="0px" viewBox="0 0 503.607 503.607" style="enable-background:new 0 0 503.607 503.607;" xml:space="preserve">
<g>
	<g>
		<g>
			<path d="M135.621,296.733l-1.326,0.26v14.915l1.721,0.269c15.033,2.308,27.631,12.011,33.716,25.944     c6.068,13.933,4.608,29.772-3.911,42.353l-0.764,1.125l10.643,10.635c12.061-7.546,26.859-8.813,40.163-3.299     c13.32,5.523,22.872,16.862,26.07,30.737h19.75c3.19-13.858,12.733-25.214,26.062-30.737c13.312-5.515,28.101-4.247,40.163,3.299     l10.643-10.635l-0.764-1.125c-8.519-12.582-9.98-28.42-3.911-42.353c6.085-13.933,18.684-23.636,33.708-25.944l1.729-0.269     v-14.915l-1.326-0.26c-14.932-2.871-27.17-13.027-32.718-27.178c-5.556-14.151-3.508-29.923,5.489-42.185l1.032-1.402     l-10.551-10.551l-1.125,0.755c-12.59,8.528-28.412,9.997-42.353,3.911c-13.933-6.077-23.628-18.675-25.944-33.7l-0.26-1.729     h-19.498l-0.269,1.737c-2.317,15.016-12.011,27.614-25.944,33.691c-13.941,6.085-29.772,4.616-42.345-3.903l-1.133-0.764     l-10.551,10.551l1.032,1.402c8.998,12.263,11.046,28.034,5.489,42.185C162.791,283.707,150.553,293.863,135.621,296.733z      M251.803,251.803c27.774,0,50.361,22.587,50.361,50.361c0,27.774-22.587,50.361-50.361,50.361s-50.361-22.587-50.361-50.361     C201.443,274.39,224.029,251.803,251.803,251.803z"/>
			<path d="M479.501,0H24.106C10.811,0,0,10.819,0,24.106v76.615h503.607V24.106C503.607,10.819,492.796,0,479.501,0z      M58.754,92.328c-18.516,0-33.574-15.058-33.574-33.574S40.238,25.18,58.754,25.18c18.516,0,33.574,15.058,33.574,33.574     S77.27,92.328,58.754,92.328z M134.295,92.328c-18.516,0-33.574-15.058-33.574-33.574s15.058-33.574,33.574-33.574     s33.574,15.058,33.574,33.574S152.811,92.328,134.295,92.328z M209.836,92.328c-18.516,0-33.574-15.058-33.574-33.574     S191.32,25.18,209.836,25.18s33.574,15.058,33.574,33.574S228.352,92.328,209.836,92.328z"/>
			<path d="M58.754,41.967c-9.258,0-16.787,7.529-16.787,16.787c0,9.258,7.529,16.787,16.787,16.787     c9.258,0,16.787-7.529,16.787-16.787C75.541,49.496,68.012,41.967,58.754,41.967z"/>
			<path d="M209.836,41.967c-9.258,0-16.787,7.529-16.787,16.787c0,9.258,7.529,16.787,16.787,16.787     c9.258,0,16.787-7.529,16.787-16.787C226.623,49.496,219.094,41.967,209.836,41.967z"/>
			<path d="M0,476.848c0,14.756,12.003,26.758,26.75,26.758h450.107c14.747,0,26.75-12.003,26.75-26.758v-359.34H0V476.848z      M134.295,461.639h-16.787c-4.642,0-8.393-3.76-8.393-8.393s3.752-8.393,8.393-8.393h16.787c4.642,0,8.393,3.76,8.393,8.393     S138.937,461.639,134.295,461.639z M134.295,428.066h-33.574c-4.642,0-8.393-3.76-8.393-8.393c0-4.633,3.752-8.393,8.393-8.393     h33.574c4.642,0,8.393,3.76,8.393,8.393C142.689,424.305,138.937,428.066,134.295,428.066z M109.115,184.656     c0-4.633,3.752-8.393,8.393-8.393h16.787c4.642,0,8.393,3.76,8.393,8.393s-3.752,8.393-8.393,8.393h-16.787     C112.867,193.049,109.115,189.289,109.115,184.656z M411.279,461.639h-41.967c-4.642,0-8.393-3.76-8.393-8.393     s3.752-8.393,8.393-8.393h41.967c4.642,0,8.393,3.76,8.393,8.393S415.92,461.639,411.279,461.639z M360.918,419.672     c0-4.633,3.752-8.393,8.393-8.393h16.787c4.642,0,8.393,3.76,8.393,8.393c0,4.633-3.752,8.393-8.393,8.393h-16.787     C364.67,428.066,360.918,424.305,360.918,419.672z M453.246,461.639h-16.787c-4.642,0-8.393-3.76-8.393-8.393     s3.752-8.393,8.393-8.393h16.787c4.642,0,8.393,3.76,8.393,8.393S457.887,461.639,453.246,461.639z M453.246,428.066h-33.574     c-4.642,0-8.393-3.76-8.393-8.393c0-4.633,3.752-8.393,8.393-8.393h33.574c4.642,0,8.393,3.76,8.393,8.393     C461.639,424.305,457.887,428.066,453.246,428.066z M453.246,193.049h-16.787c-4.642,0-8.393-3.76-8.393-8.393     s3.752-8.393,8.393-8.393h16.787c4.642,0,8.393,3.76,8.393,8.393S457.887,193.049,453.246,193.049z M419.672,142.689h33.574     c4.642,0,8.393,3.76,8.393,8.393s-3.752,8.393-8.393,8.393h-33.574c-4.642,0-8.393-3.76-8.393-8.393     S415.031,142.689,419.672,142.689z M369.311,142.689h16.787c4.642,0,8.393,3.76,8.393,8.393s-3.752,8.393-8.393,8.393h-16.787     c-4.642,0-8.393-3.76-8.393-8.393S364.67,142.689,369.311,142.689z M369.311,176.262h41.967c4.642,0,8.393,3.76,8.393,8.393     s-3.752,8.393-8.393,8.393h-41.967c-4.642,0-8.393-3.76-8.393-8.393S364.67,176.262,369.311,176.262z M147.599,216.45     l15.175-15.175c4.348-4.365,11.23-5.019,16.35-1.561l3.794,2.568c7.781,5.271,17.576,6.178,26.213,2.417     c8.628-3.769,14.63-11.566,16.065-20.866l0.781-5.028c0.965-6.329,6.329-10.937,12.75-10.937h26.154     c6.396,0,11.768,4.591,12.758,10.92l0.772,5.044c1.435,9.3,7.437,17.097,16.065,20.866c8.612,3.769,18.424,2.862,26.221-2.417     l3.769-2.56c5.145-3.475,12.019-2.812,16.376,1.561l15.167,15.167c4.541,4.541,5.086,11.583,1.284,16.762l-2.996,4.088     c-5.573,7.596-6.841,17.358-3.399,26.12c3.441,8.763,11.012,15.049,20.253,16.829l4.474,0.865     c6.077,1.167,10.475,6.497,10.475,12.674v21.454c0,6.413-4.6,11.776-10.945,12.758l-5.019,0.764     c-9.3,1.435-17.097,7.445-20.866,16.073c-3.769,8.628-2.862,18.432,2.417,26.221l2.56,3.777     c3.458,5.128,2.803,12.003-1.553,16.367l-15.175,15.167c-4.507,4.532-11.566,5.095-16.753,1.284     c-7.764-5.691-17.71-6.891-26.59-3.206c-8.897,3.685-15.075,11.558-16.535,21.068c-0.99,6.354-6.362,10.945-12.758,10.945     h-26.154c-6.421,0-11.784-4.608-12.75-10.953c-1.469-9.501-7.646-17.383-16.535-21.059c-8.897-3.685-18.835-2.484-26.59,3.206     c-5.195,3.794-12.238,3.257-16.77-1.293l-15.167-15.159c-4.356-4.381-5.003-11.256-1.553-16.359l2.56-3.785     c5.279-7.789,6.186-17.593,2.417-26.221c-3.769-8.628-11.566-14.638-20.874-16.073l-5.003-0.764     c-6.354-0.982-10.953-6.345-10.953-12.758v-21.454c0-6.169,4.398-11.507,10.467-12.674l4.482-0.865     c9.241-1.779,16.812-8.066,20.253-16.829c3.441-8.763,2.174-18.524-3.399-26.12l-2.996-4.088     C142.521,228.016,143.075,220.974,147.599,216.45z M100.721,142.689h33.574c4.642,0,8.393,3.76,8.393,8.393     s-3.752,8.393-8.393,8.393h-33.574c-4.642,0-8.393-3.76-8.393-8.393S96.08,142.689,100.721,142.689z M50.361,142.689h16.787     c4.642,0,8.393,3.76,8.393,8.393s-3.752,8.393-8.393,8.393H50.361c-4.642,0-8.393-3.76-8.393-8.393     S45.719,142.689,50.361,142.689z M50.361,176.262h41.967c4.642,0,8.393,3.76,8.393,8.393s-3.752,8.393-8.393,8.393H50.361     c-4.642,0-8.393-3.76-8.393-8.393S45.719,176.262,50.361,176.262z M50.361,411.279h16.787c4.642,0,8.393,3.76,8.393,8.393     c0,4.633-3.752,8.393-8.393,8.393H50.361c-4.642,0-8.393-3.76-8.393-8.393C41.967,415.039,45.719,411.279,50.361,411.279z      M50.361,444.852h41.967c4.642,0,8.393,3.76,8.393,8.393s-3.752,8.393-8.393,8.393H50.361c-4.642,0-8.393-3.76-8.393-8.393     S45.719,444.852,50.361,444.852z"/>
			<path d="M251.803,335.738c18.516,0,33.574-15.058,33.574-33.574s-15.058-33.574-33.574-33.574s-33.574,15.058-33.574,33.574     S233.287,335.738,251.803,335.738z"/>
			<path d="M134.295,41.967c-9.258,0-16.787,7.529-16.787,16.787c0,9.258,7.529,16.787,16.787,16.787     c9.258,0,16.787-7.529,16.787-16.787C151.082,49.496,143.553,41.967,134.295,41.967z"/>
		</g>
	</g>
</g>
<g>
</g>
<g>
</g>
<g>
</g>
<g>
</g>
<g>
</g>
<g>
</g>
<g>
</g>
<g>
</g>
<g>
</g>
<g>
</g>
<g>
</g>
<g>
</g>
<g>
</g>
<g>
</g>
<g>
</g>
</svg>
