<?xml version="1.0" encoding="iso-8859-1"?>
<!-- Generator: Adobe Illustrator 19.0.0, SVG Export Plug-In . SVG Version: 6.00 Build 0)  -->
<svg xmlns="http://www.w3.org/2000/svg" xmlns:xlink="http://www.w3.org/1999/xlink" version="1.1" id="Capa_1" x="0px" y="0px" viewBox="0 0 503.607 503.607" style="enable-background:new 0 0 503.607 503.607;" xml:space="preserve">
<g>
	<g>
		<g>
			<path d="M479.501,0H24.106C10.811,0,0,10.819,0,24.106v76.615h503.607V24.106C503.607,10.819,492.796,0,479.501,0z      M58.754,92.328c-18.516,0-33.574-15.058-33.574-33.574S40.238,25.18,58.754,25.18c18.516,0,33.574,15.058,33.574,33.574     S77.27,92.328,58.754,92.328z M134.295,92.328c-18.516,0-33.574-15.058-33.574-33.574s15.058-33.574,33.574-33.574     s33.574,15.058,33.574,33.574S152.811,92.328,134.295,92.328z M209.836,92.328c-18.516,0-33.574-15.058-33.574-33.574     S191.32,25.18,209.836,25.18s33.574,15.058,33.574,33.574S228.352,92.328,209.836,92.328z"/>
			<path d="M251.803,352.525c-9.258,0-16.787,7.529-16.787,16.787v8.393h33.574v-8.393     C268.59,360.053,261.061,352.525,251.803,352.525z"/>
			<path d="M260.639,260.197h-17.668c-2.636,16.636-16.535,30.594-33.137,33.255v84.253h8.393v-8.393     c0-18.516,15.058-33.574,33.574-33.574s33.574,15.058,33.574,33.574v8.393h8.393v-84.253     C277.174,290.791,263.266,276.833,260.639,260.197z"/>
			<path d="M209.836,41.967c-9.258,0-16.787,7.529-16.787,16.787c0,9.258,7.529,16.787,16.787,16.787     c9.258,0,16.787-7.529,16.787-16.787C226.623,49.496,219.094,41.967,209.836,41.967z"/>
			<path d="M134.295,41.967c-9.258,0-16.787,7.529-16.787,16.787c0,9.258,7.529,16.787,16.787,16.787     c9.258,0,16.787-7.529,16.787-16.787C151.082,49.496,143.553,41.967,134.295,41.967z"/>
			<path d="M58.754,41.967c-9.258,0-16.787,7.529-16.787,16.787c0,9.258,7.529,16.787,16.787,16.787     c9.258,0,16.787-7.529,16.787-16.787C75.541,49.496,68.012,41.967,58.754,41.967z"/>
			<path d="M121.294,419.672h261.019c2.09,0,3.785-1.695,3.785-3.785V188.441c0-2.09-1.695-3.785-3.785-3.785H121.294     c-2.09,0-3.785,1.695-3.785,3.785v227.445C117.508,417.977,119.204,419.672,121.294,419.672z M151.082,377.705h8.393V218.23     c0-4.633,3.752-8.393,8.393-8.393h167.869c4.642,0,8.393,3.76,8.393,8.393v159.475h8.393c4.642,0,8.393,3.76,8.393,8.393     s-3.752,8.393-8.393,8.393h-16.787h-33.574h-25.18h-50.361h-25.18h-33.574h-16.787c-4.642,0-8.393-3.76-8.393-8.393     S146.44,377.705,151.082,377.705z"/>
			<path d="M0,476.857c0,14.747,12.003,26.75,26.75,26.75h450.107c14.747,0,26.75-12.003,26.75-26.75V117.508H0V476.857z      M436.459,218.23c0-4.633,3.752-8.393,8.393-8.393c4.642,0,8.393,3.76,8.393,8.393v167.869c0,4.633-3.752,8.393-8.393,8.393     c-4.642,0-8.393-3.76-8.393-8.393V218.23z M100.721,188.441c0-11.34,9.233-20.572,20.572-20.572h261.019     c11.34,0,20.572,9.233,20.572,20.572v227.445c0,11.34-9.233,20.572-20.572,20.572H121.294c-11.34,0-20.572-9.233-20.572-20.572     V188.441z M50.361,218.23c0-4.633,3.752-8.393,8.393-8.393c4.642,0,8.393,3.76,8.393,8.393v167.869     c0,4.633-3.752,8.393-8.393,8.393c-4.642,0-8.393-3.76-8.393-8.393V218.23z"/>
			<path d="M193.049,285.377c0-2.359,0.99-4.616,2.736-6.203c1.754-1.595,4.096-2.367,6.438-2.157     c12.095,1.074,24.4-10.013,24.4-22.478c0-0.697-0.05-1.376-0.109-2.048c-0.185-2.342,0.613-4.65,2.199-6.379     c1.586-1.721,3.827-2.703,6.169-2.703h33.842c2.342,0,4.583,0.982,6.169,2.703c1.586,1.729,2.384,4.037,2.199,6.379     c-0.059,0.672-0.109,1.351-0.109,2.048c0,12.464,12.246,23.56,24.4,22.478c2.35-0.21,4.684,0.562,6.438,2.157     c1.746,1.586,2.736,3.844,2.736,6.203v92.328h16.787V226.623H176.262v151.082h16.787V285.377z"/>
		</g>
	</g>
</g>
<g>
</g>
<g>
</g>
<g>
</g>
<g>
</g>
<g>
</g>
<g>
</g>
<g>
</g>
<g>
</g>
<g>
</g>
<g>
</g>
<g>
</g>
<g>
</g>
<g>
</g>
<g>
</g>
<g>
</g>
</svg>
