<?xml version="1.0" encoding="iso-8859-1"?>
<!-- Generator: Adobe Illustrator 19.0.0, SVG Export Plug-In . SVG Version: 6.00 Build 0)  -->
<svg xmlns="http://www.w3.org/2000/svg" xmlns:xlink="http://www.w3.org/1999/xlink" version="1.1" id="Capa_1" x="0px" y="0px" viewBox="0 0 512.002 512.002" style="enable-background:new 0 0 512.002 512.002;" xml:space="preserve">
<g>
	<g>
		<g>
			<path d="M426.668,324.84v-60.169h-128.87c-3.396,16.691-16.572,29.867-33.263,33.271v128.862h60.169     c-1.058,0,5.35,23.825,6.17,25.907c3.337,8.397,7.893,16.29,13.474,23.381c42.487,53.965,128.401,43.861,158.251-17.468     c6.11-12.535,9.404-26.402,9.404-40.354C512.002,369.393,474.43,329.167,426.668,324.84z M467.492,477.024     c-0.043-0.017-0.077-0.051-0.111-0.068l-24.61-12.169l-0.444-0.657v-6.537c0.239-0.316,0.486-0.657,0.742-1.007     c3.089-4.326,5.641-9.071,7.595-14.131c4.395-2.944,7.125-7.876,7.125-13.346v-10.197c0-3.089-0.913-6.101-2.577-8.687v-11.273     c0.239-2.842,0.427-12.51-6.784-20.753c-6.46-7.381-16.589-11.127-30.097-11.127c-13.5,0-23.62,3.738-30.08,11.119     c-7.228,8.252-7.031,17.92-6.793,20.762v11.281c-1.664,2.586-2.577,5.598-2.577,8.678v10.197c0,4.224,1.647,8.201,4.523,11.179     c2.236,7.569,5.931,13.636,8.252,16.981l-0.299,7.262l-22.793,12.305c-16.631-14.106-27.23-35.106-27.23-58.564     c0-42.351,34.449-76.8,76.8-76.8s76.8,34.449,76.8,76.8C494.935,441.832,484.251,462.927,467.492,477.024z"/>
			<path d="M38.4,169.343c13.406,10.001,29.517,16.546,46.95,18.099c-0.085,20.053-0.017,40.107-0.017,60.16h128.87     c3.396-16.691,16.572-29.867,33.263-33.271V85.469h-60.169c-4.335-47.77-44.553-85.333-93.431-85.333     C42.112,0.136,0,42.248,0,94.002C0,124.27,15.155,152.003,38.4,169.343z M93.867,17.202c42.351,0,76.8,34.458,76.8,76.8     c0,23.56-10.684,44.655-27.443,58.752c-0.043-0.017-0.077-0.051-0.111-0.068l-24.61-12.169l-0.444-0.649v-6.545     c0.239-0.316,0.495-0.657,0.742-0.998c3.089-4.335,5.641-9.071,7.603-14.14c4.386-2.944,7.117-7.868,7.117-13.346V94.651     c0-3.098-0.913-6.11-2.577-8.687V74.683c0.239-2.842,0.435-12.51-6.784-20.753c-6.46-7.381-16.589-11.127-30.097-11.127     c-13.5,0-23.62,3.738-30.08,11.127c-7.228,8.243-7.031,17.911-6.793,20.753v11.29c-1.664,2.577-2.577,5.589-2.577,8.678v10.189     c0,4.224,1.647,8.201,4.531,11.179c2.227,7.569,5.922,13.636,8.243,16.981l-0.299,7.262l-22.793,12.305     c-16.631-14.106-27.23-35.106-27.23-58.564C17.067,51.66,51.516,17.202,93.867,17.202z"/>
			<path d="M281.6,256.136c0-14.114-11.486-25.6-25.6-25.6c-14.114,0-25.6,11.486-25.6,25.6c0,14.114,11.486,25.6,25.6,25.6     C270.114,281.736,281.6,270.25,281.6,256.136z"/>
			<path d="M297.796,247.602h128.87c0,0,0-60.151,0.179-60.177c0.819-0.077,1.621-0.188,2.432-0.282     c2.167-0.256,4.318-0.58,6.46-0.99c0.734-0.137,1.468-0.273,2.193-0.427C480.205,176.614,512,137.71,512,94.002     c0-51.755-42.112-93.867-93.867-93.867c-48.879,0-89.097,37.564-93.431,85.333h-60.169v128.862     C281.225,217.736,294.4,230.911,297.796,247.602z M418.133,17.202c42.351,0,76.8,34.458,76.8,76.8     c0,23.56-10.684,44.655-27.443,58.752c-0.043-0.017-0.077-0.051-0.111-0.068l-24.61-12.169l-0.444-0.649v-6.545     c0.239-0.316,0.495-0.657,0.742-0.998c3.089-4.335,5.641-9.071,7.603-14.14c4.386-2.944,7.117-7.868,7.117-13.346V94.651     c0-3.098-0.913-6.11-2.577-8.687V74.683c0.239-2.842,0.435-12.51-6.784-20.753c-6.46-7.381-16.589-11.127-30.097-11.127     c-13.5,0-23.62,3.738-30.08,11.127c-7.228,8.243-7.031,17.911-6.793,20.753v11.29c-1.664,2.577-2.577,5.589-2.577,8.678v10.189     c0,4.224,1.647,8.201,4.531,11.179c2.227,7.569,5.922,13.636,8.243,16.981l-0.299,7.262l-22.793,12.305     c-16.631-14.106-27.23-35.106-27.23-58.564C341.333,51.66,375.782,17.202,418.133,17.202z"/>
			<path d="M214.197,264.672H85.335v60.169c-47.77,4.326-85.333,44.553-85.333,93.432c0,60.988,62.618,107.503,121.011,89.788     c35.823-10.854,62.916-43.981,66.287-81.254h60.169V297.943C230.777,294.538,217.602,281.363,214.197,264.672z M143.225,477.024     c-0.043-0.017-0.077-0.051-0.111-0.068l-24.61-12.169l-0.444-0.657v-6.537c0.239-0.316,0.486-0.657,0.742-1.007     c3.089-4.326,5.641-9.071,7.595-14.131c4.395-2.944,7.125-7.876,7.125-13.346v-10.197c0-3.089-0.913-6.101-2.577-8.687v-11.273     c0.239-2.842,0.427-12.51-6.784-20.753c-6.46-7.381-16.589-11.127-30.097-11.127c-13.5,0-23.62,3.738-30.08,11.119     c-7.228,8.252-7.031,17.92-6.793,20.762v11.281c-1.664,2.586-2.577,5.598-2.577,8.678v10.197c0,4.224,1.647,8.201,4.523,11.179     c2.236,7.569,5.931,13.636,8.252,16.981l-0.299,7.262l-22.792,12.305c-16.631-14.106-27.23-35.106-27.23-58.564     c0-42.351,34.449-76.8,76.8-76.8c42.351,0,76.8,34.449,76.8,76.8C170.668,441.832,159.985,462.927,143.225,477.024z"/>
		</g>
	</g>
</g>
<g>
</g>
<g>
</g>
<g>
</g>
<g>
</g>
<g>
</g>
<g>
</g>
<g>
</g>
<g>
</g>
<g>
</g>
<g>
</g>
<g>
</g>
<g>
</g>
<g>
</g>
<g>
</g>
<g>
</g>
</svg>
