<?xml version="1.0" encoding="iso-8859-1"?>
<!-- Generator: Adobe Illustrator 19.0.0, SVG Export Plug-In . SVG Version: 6.00 Build 0)  -->
<svg xmlns="http://www.w3.org/2000/svg" xmlns:xlink="http://www.w3.org/1999/xlink" version="1.1" id="Capa_1" x="0px" y="0px" viewBox="0 0 503.607 503.607" style="enable-background:new 0 0 503.607 503.607;" xml:space="preserve">
<g>
	<g>
		<g>
			<path d="M50.361,16.787h41.967c4.642,0,8.393-3.76,8.393-8.393S96.969,0,92.328,0H50.361c-4.642,0-8.393,3.76-8.393,8.393     S45.719,16.787,50.361,16.787z"/>
			<path d="M8.393,16.787h8.393c4.642,0,8.393-3.76,8.393-8.393S21.428,0,16.787,0H8.393C3.752,0,0,3.76,0,8.393     S3.752,16.787,8.393,16.787z"/>
			<path d="M8.393,50.361h33.574c4.642,0,8.393-3.76,8.393-8.393s-3.752-8.393-8.393-8.393H8.393C3.752,33.574,0,37.334,0,41.967     S3.752,50.361,8.393,50.361z"/>
			<path d="M92.328,33.574H75.541c-4.642,0-8.393,3.76-8.393,8.393s3.752,8.393,8.393,8.393h16.787c4.642,0,8.393-3.76,8.393-8.393     S96.969,33.574,92.328,33.574z"/>
			<path d="M495.213,453.246h-41.967c-4.642,0-8.393,3.76-8.393,8.393s3.752,8.393,8.393,8.393h41.967     c4.642,0,8.393-3.76,8.393-8.393S499.855,453.246,495.213,453.246z"/>
			<path d="M411.279,470.033h8.393c4.642,0,8.393-3.76,8.393-8.393s-3.752-8.393-8.393-8.393h-8.393     c-4.642,0-8.393,3.76-8.393,8.393S406.637,470.033,411.279,470.033z"/>
			<path d="M444.852,486.82h-33.574c-4.642,0-8.393,3.76-8.393,8.393s3.752,8.393,8.393,8.393h33.574     c4.642,0,8.393-3.76,8.393-8.393S449.494,486.82,444.852,486.82z"/>
			<path d="M495.213,486.82h-16.787c-4.642,0-8.393,3.76-8.393,8.393s3.752,8.393,8.393,8.393h16.787     c4.642,0,8.393-3.76,8.393-8.393S499.855,486.82,495.213,486.82z"/>
			<path d="M377.705,58.754h16.787v16.787c0,4.633,3.752,8.393,8.393,8.393c4.642,0,8.393-3.76,8.393-8.393V58.754h16.787     c4.642,0,8.393-3.76,8.393-8.393s-3.752-8.393-8.393-8.393h-16.787V25.18c0-4.633-3.752-8.393-8.393-8.393     c-4.642,0-8.393,3.76-8.393,8.393v16.787h-16.787c-4.642,0-8.393,3.76-8.393,8.393S373.063,58.754,377.705,58.754z"/>
			<path d="M131.836,438.918c-3.282-3.282-8.586-3.282-11.868,0l-19.246,19.246l-19.246-19.246c-3.282-3.282-8.586-3.282-11.868,0     c-3.282,3.282-3.282,8.586,0,11.868l19.246,19.246l-19.246,19.246c-3.282,3.282-3.282,8.586,0,11.868     c1.637,1.637,3.785,2.459,5.934,2.459s4.297-0.823,5.934-2.459l19.246-19.246l19.246,19.246c1.637,1.637,3.785,2.459,5.934,2.459     c2.149,0,4.297-0.823,5.934-2.459c3.282-3.282,3.282-8.586,0-11.868l-19.246-19.246l19.246-19.246     C135.118,447.505,135.118,442.2,131.836,438.918z"/>
			<path d="M428.066,201.441h67.148c4.642,0,8.393-3.76,8.393-8.393V125.9c0-4.633-3.752-8.393-8.393-8.393h-67.148     c-4.642,0-8.393,3.76-8.393,8.393v25.18h-33.574c-1.964,0-3.869,0.688-5.38,1.947l-46.139,38.45l-74.383-37.191V100.72h25.18     c4.642,0,8.393-3.76,8.393-8.393V25.179c0-4.633-3.752-8.393-8.393-8.393h-67.148c-4.642,0-8.393,3.76-8.393,8.393v67.148     c0,4.633,3.752,8.393,8.393,8.393h25.18v53.567l-74.383,37.191l-46.139-38.45c-1.511-1.259-3.416-1.947-5.38-1.947H83.934V125.9     c0-4.633-3.752-8.393-8.393-8.393H8.393c-4.642,0-8.393,3.76-8.393,8.393v67.148c0,4.633,3.752,8.393,8.393,8.393h67.148     c4.642,0,8.393-3.76,8.393-8.393v-25.18h30.535l45.006,37.51v84.455l-45.006,37.51H83.934v-25.18     c0-4.633-3.752-8.393-8.393-8.393H8.393c-4.642,0-8.393,3.76-8.393,8.393v67.148c0,4.633,3.752,8.393,8.393,8.393h67.148     c4.642,0,8.393-3.76,8.393-8.393v-25.18h33.574c1.964,0,3.869-0.688,5.38-1.947l46.139-38.45l74.383,37.191v61.96h-25.18     c-4.642,0-8.393,3.76-8.393,8.393v67.148c0,4.633,3.752,8.393,8.393,8.393h67.148c4.642,0,8.393-3.76,8.393-8.393v-67.148     c0-4.633-3.752-8.393-8.393-8.393h-25.18v-61.96l74.383-37.191l46.139,38.45c1.511,1.259,3.416,1.947,5.38,1.947h33.574v25.18     c0,4.633,3.752,8.393,8.393,8.393h67.148c4.642,0,8.393-3.76,8.393-8.393v-67.148c0-4.633-3.752-8.393-8.393-8.393h-67.148     c-4.642,0-8.393,3.76-8.393,8.393v25.18h-30.535l-45.006-37.51v-84.455l45.006-37.51h30.535v25.18     C419.672,197.681,423.424,201.441,428.066,201.441z M243.41,322.155l-67.148-33.574v-74.744l33.574,13.43l33.574,13.43V322.155z      M327.344,288.582l-67.148,33.574v-81.458l33.574-13.43l33.574-13.43V288.582z"/>
		</g>
	</g>
</g>
<g>
</g>
<g>
</g>
<g>
</g>
<g>
</g>
<g>
</g>
<g>
</g>
<g>
</g>
<g>
</g>
<g>
</g>
<g>
</g>
<g>
</g>
<g>
</g>
<g>
</g>
<g>
</g>
<g>
</g>
</svg>
