<?xml version="1.0" encoding="iso-8859-1"?>
<!-- Generator: Adobe Illustrator 19.0.0, SVG Export Plug-In . SVG Version: 6.00 Build 0)  -->
<svg xmlns="http://www.w3.org/2000/svg" xmlns:xlink="http://www.w3.org/1999/xlink" version="1.1" id="Capa_1" x="0px" y="0px" viewBox="0 0 503.607 503.607" style="enable-background:new 0 0 503.607 503.607;" xml:space="preserve">
<g>
	<g>
		<path d="M240.892,2.518C239.213,0.839,236.695,0,234.177,0C109.115,8.393,8.393,109.115,0,234.177    c0,2.518,0.839,4.197,2.518,6.715c1.679,1.679,3.357,2.518,5.875,2.518h226.623c5.036,0,8.393-3.357,8.393-8.393V8.393    C243.41,5.875,242.57,4.197,240.892,2.518z"/>
	</g>
</g>
<g>
	<g>
		<path d="M495.213,285.377h-31.056c23.502-16.787,39.449-44.485,39.449-75.541c0-21.823-7.554-42.807-20.984-57.915    C444.852,64.63,363.436,6.715,269.43,0c-2.518,0-4.197,0.839-6.715,2.518c-1.679,1.679-2.518,3.357-2.518,5.875v251.803H9.233    c-2.518,0-4.197,0.839-5.875,2.518c-1.679,1.679-2.518,4.197-2.518,6.715c3.357,54.557,24.341,104.918,60.433,146.885    c3.357,3.357,6.715,7.554,11.751,11.751l12.59,11.751c5.036,4.197,8.393,8.393,12.59,10.911    c44.485,34.413,98.203,52.879,153.6,52.879c6.715,0,24.341,0,25.18,0h201.443c5.036,0,8.393-3.357,8.393-8.393v-41.967h8.393    c5.036,0,8.393-3.357,8.393-8.393v-50.361c0-5.036-3.357-8.393-8.393-8.393h-25.18v-33.574h25.18c5.036,0,8.393-3.357,8.393-8.393    v-50.361C503.607,288.734,500.249,285.377,495.213,285.377z M419.672,352.525h33.574v33.574h-33.574V352.525z M402.885,335.738    v-33.574h8.393h25.18v33.574H402.885z M268.59,444.852v41.128c-57.915,4.197-114.151-13.43-159.475-47.843    c-3.357-2.518-6.715-5.875-11.751-10.072l-12.59-11.751c-4.197-4.197-7.554-7.554-10.911-10.911    c-31.895-36.931-50.361-80.577-55.397-128.42H268.59c5.036,0,8.393-3.357,8.393-8.393V17.626c0,0,29.377,5.036,31.895,5.875    c10.911,2.518,20.984,5.875,31.056,10.072c20.144,8.393,38.61,19.305,56.236,32.734c10.911,8.393,20.144,17.626,29.377,27.698    c4.197,5.036,9.233,10.072,12.59,15.948c4.197,5.036,9.233,10.911,11.751,16.787c-5.875-1.679-12.59-4.197-18.466-5.875    c-42.807-9.233-87.292,12.59-104.918,52.879c-1.679,3.357-2.518,5.875-3.357,9.233c-12.59,38.61,3.357,78.898,35.253,103.239    c-20.984,0-41.967,0-62.951,0h-1.679c-5.036,0-8.393,3.357-8.393,8.393v41.967h-25.18c-5.036,0-8.393,3.357-8.393,8.393v50.361    c0,5.036,3.357,8.393,8.393,8.393h25.18v33.574h-8.393C272.787,436.459,268.59,439.816,268.59,444.852z M302.164,352.525v33.574    h-8.393h-25.18v-33.574h25.18H302.164z M318.951,486.82h-33.574v-33.574h8.393h25.18V486.82z M318.951,352.525h33.574v33.574    h-33.574V352.525z M369.311,486.82h-33.574v-33.574h33.574V486.82z M386.098,436.459h-33.574v-33.574h33.574V436.459z     M386.098,335.738h-33.574v-33.574h33.574V335.738z M377.705,235.016c0-5.036,3.357-8.393,8.393-8.393    c5.036,0,8.393,3.357,8.393,8.393c0,9.233,7.554,16.787,16.787,16.787s16.787-7.554,16.787-16.787s-7.554-16.787-16.787-16.787    c-18.466,0-33.574-15.108-33.574-33.574s15.108-33.574,33.574-33.574s33.574,15.108,33.574,33.574    c0,5.036-3.357,8.393-8.393,8.393c-5.036,0-8.393-3.357-8.393-8.393c0-9.233-7.554-16.787-16.787-16.787    s-16.787,7.554-16.787,16.787s7.554,16.787,16.787,16.787c18.466,0,33.574,15.108,33.574,33.574s-15.108,33.574-33.574,33.574    S377.705,253.482,377.705,235.016z M402.885,402.885h33.574v33.574h-33.574V402.885z M470.033,486.82h-33.574v-33.574h33.574    V486.82z"/>
	</g>
</g>
<g>
</g>
<g>
</g>
<g>
</g>
<g>
</g>
<g>
</g>
<g>
</g>
<g>
</g>
<g>
</g>
<g>
</g>
<g>
</g>
<g>
</g>
<g>
</g>
<g>
</g>
<g>
</g>
<g>
</g>
</svg>
