<?xml version="1.0" encoding="iso-8859-1"?>
<!-- Generator: Adobe Illustrator 19.0.0, SVG Export Plug-In . SVG Version: 6.00 Build 0)  -->
<svg xmlns="http://www.w3.org/2000/svg" xmlns:xlink="http://www.w3.org/1999/xlink" version="1.1" id="Capa_1" x="0px" y="0px" viewBox="0 0 503.607 503.607" style="enable-background:new 0 0 503.607 503.607;" xml:space="preserve">
<g>
	<g>
		<g>
			<path d="M459.382,371.208c-6.354-20.522-25.516-35.471-48.103-35.471c-24.912,0-45.61,18.197-49.605,41.992     c-0.243,0-0.52-0.025-0.755-0.025c-23.141,0-41.967,18.826-41.967,41.967c0,13.883-13.178,25.18-29.377,25.18     s-29.377-11.298-29.377-25.18c0-4.633-3.76-8.393-8.393-8.393s-8.393,3.76-8.393,8.393c0,13.883-13.178,25.18-29.377,25.18     s-29.377-11.298-29.377-25.18c0-20.48-14.772-37.527-34.212-41.187c-3.685-24.156-24.542-42.748-49.723-42.748     c-21.982,0-40.675,14.177-47.524,33.859C23.401,372.408,0,397.547,0,428.065v67.148c0,4.633,3.76,8.393,8.393,8.393h486.82     c4.642,0,8.393-3.76,8.393-8.393v-67.148C503.607,400.694,484.763,377.704,459.382,371.208z M108.695,397.144     c-8.293-13.346-21.815-23.023-37.645-26.423c5.598-10.752,16.728-18.197,29.671-18.197c15.99,0,29.352,11.256,32.709,26.246     C122.267,381.255,114.067,388.129,108.695,397.144z M395.709,395.901c-4.625-7.89-10.97-12.447-17.467-15.049     c2.535-16.015,16.325-28.328,33.037-28.328c12.489,0,23.275,6.933,29.066,17.081     C421.695,371.032,405.437,381.087,395.709,395.901z"/>
			<path d="M209.836,377.704v25.18c0,4.633,3.76,8.393,8.393,8.393s8.393-3.76,8.393-8.393v-25.18c0-4.633-3.76-8.393-8.393-8.393     S209.836,373.071,209.836,377.704z"/>
			<path d="M276.984,377.704v25.18c0,4.633,3.76,8.393,8.393,8.393s8.393-3.76,8.393-8.393v-25.18c0-4.633-3.76-8.393-8.393-8.393     S276.984,373.071,276.984,377.704z"/>
			<path d="M243.41,377.704v8.393c0,4.633,3.76,8.393,8.393,8.393s8.393-3.76,8.393-8.393v-8.393c0-4.633-3.76-8.393-8.393-8.393     S243.41,373.071,243.41,377.704z"/>
			<path d="M118.28,317.014c2.484,1.293,5.179,1.93,7.865,1.93c3.424,0,6.841-1.041,9.762-3.089l45.56-31.887     c1.032,1.645,1.914,3.341,3.005,4.969c1.066,1.595,2.048,3.215,3.022,4.835h128.638c1.007-1.687,2.031-3.374,3.148-5.036     c1.041-1.561,1.88-3.181,2.871-4.759l45.551,31.878c2.921,2.048,6.337,3.089,9.762,3.089c2.686,0,5.38-0.638,7.865-1.93     c5.657-2.946,9.166-8.729,9.166-15.108v-33.775c0-59.484-31.769-88.786-42.446-96.969c-3.047-53.466-29.05-105.699-76.305-145.24     L257.2,10.36c-3.122-2.619-7.672-2.619-10.794,0l-18.533,15.553c-47.238,39.525-73.241,91.74-76.271,145.223     c-10.651,8.15-42.488,37.452-42.488,96.995v33.775C109.115,308.285,112.623,314.068,118.28,317.014z M345.096,232.777     c1.788-6.329,3.257-12.75,4.398-19.229c1.049-5.985,0.638-13.471,2.619-19.087c7.898,5.75,13.564,18.751,17.131,27.53     c5.934,14.613,8.461,30.418,8.461,46.139l-0.378,33.968l-46.743-32.709C336.653,257.723,341.521,245.426,345.096,232.777z      M251.803,83.937c18.516,0,33.574,15.058,33.574,33.574c0,18.508-15.058,33.574-33.574,33.574s-33.574-15.066-33.574-33.574     C218.229,98.994,233.287,83.937,251.803,83.937z M251.803,184.658c18.516,0,33.574,15.058,33.574,33.574     c0,18.508-15.058,33.574-33.574,33.574s-33.574-15.066-33.574-33.574C218.229,199.716,233.287,184.658,251.803,184.658z      M125.902,268.131c0-15.721,2.535-31.526,8.461-46.139c3.567-8.788,9.233-21.781,17.131-27.53     c1.754,4.986,1.402,11.617,2.283,16.946c0.99,6.035,2.275,12.028,3.836,17.945c3.643,13.832,8.813,27.279,15.402,39.986     l-47.112,32.567V268.131z"/>
			<path d="M380.164,115.049c1.637,1.637,3.785,2.459,5.934,2.459c2.149,0,4.297-0.823,5.934-2.459l10.853-10.853l10.853,10.853     c1.637,1.637,3.785,2.459,5.934,2.459c2.149,0,4.297-0.823,5.934-2.459c3.282-3.282,3.282-8.586,0-11.868l-10.853-10.853     l10.853-10.853c3.282-3.282,3.282-8.587,0-11.868c-3.282-3.282-8.586-3.282-11.868,0l-10.853,10.853l-10.853-10.853     c-3.282-3.282-8.586-3.282-11.868,0c-3.282,3.282-3.282,8.586,0,11.868l10.853,10.853l-10.853,10.853     C376.882,106.462,376.882,111.767,380.164,115.049z"/>
			<path d="M478.426,167.868c4.642,0,8.393-3.76,8.393-8.393s-3.752-8.393-8.393-8.393c-4.642,0-8.393,3.76-8.393,8.393     S473.785,167.868,478.426,167.868z"/>
			<circle cx="67.148" cy="268.59" r="8.393"/>
			<path d="M8.393,50.361c13.883,0,25.18,11.298,25.18,25.18c0,4.633,3.76,8.393,8.393,8.393s8.393-3.76,8.393-8.393     c0-13.883,11.298-25.18,25.18-25.18c4.633,0,8.393-3.76,8.393-8.393s-3.76-8.393-8.393-8.393c-13.883,0-25.18-11.298-25.18-25.18     C50.361,3.761,46.6,0,41.967,0s-8.393,3.76-8.393,8.393c0,13.883-11.298,25.18-25.18,25.18C3.76,33.574,0,37.334,0,41.968     S3.76,50.361,8.393,50.361z M41.967,33.549c2.392,3.181,5.238,6.026,8.419,8.419c-3.181,2.392-6.026,5.229-8.419,8.419     c-2.392-3.19-5.237-6.026-8.419-8.419C36.73,39.576,39.575,36.73,41.967,33.549z"/>
			<path d="M251.803,235.016c9.258,0,16.787-7.529,16.787-16.787c0-9.258-7.529-16.787-16.787-16.787     c-9.258,0-16.787,7.529-16.787,16.787C235.016,227.487,242.545,235.016,251.803,235.016z"/>
			<path d="M251.803,134.295c9.258,0,16.787-7.529,16.787-16.787c0-9.258-7.529-16.787-16.787-16.787     c-9.258,0-16.787,7.529-16.787,16.787C235.016,126.766,242.545,134.295,251.803,134.295z"/>
			<path d="M302.164,352.524v-9.325c0-11.264,2.006-22.15,5.892-32.642H195.576c3.861,10.45,5.867,21.353,5.867,32.634v9.333     c0,4.633,3.76,8.393,8.393,8.393h83.934C298.404,360.918,302.164,357.157,302.164,352.524z"/>
		</g>
	</g>
</g>
<g>
</g>
<g>
</g>
<g>
</g>
<g>
</g>
<g>
</g>
<g>
</g>
<g>
</g>
<g>
</g>
<g>
</g>
<g>
</g>
<g>
</g>
<g>
</g>
<g>
</g>
<g>
</g>
<g>
</g>
</svg>
