<?xml version="1.0" encoding="iso-8859-1"?>
<!-- Generator: Adobe Illustrator 19.0.0, SVG Export Plug-In . SVG Version: 6.00 Build 0)  -->
<svg xmlns="http://www.w3.org/2000/svg" xmlns:xlink="http://www.w3.org/1999/xlink" version="1.1" id="Capa_1" x="0px" y="0px" viewBox="0 0 503.786 503.786" style="enable-background:new 0 0 503.786 503.786;" xml:space="preserve">
<g>
	<g>
		<g>
			<path d="M499.452,273.313c-14.848-21.059-29.704-21.554-67.366-1.737l-72.377,44.25c-6.53,3.475-17.03,5.456-28.924,6.564     c-8.872,0.823-16.988,4.541-25.012,8.419c-1.091,0.529-2.317,0.823-3.609,0.823h-83.934c-25.18,0-25.18,12.632-25.18,16.787     c0,4.633-3.76,8.393-8.393,8.393s-8.393-3.76-8.393-8.393c0-21.026,15.687-33.574,41.967-33.574h83.934h8.393     c0.52-6.371-4.751-11.381-10.03-19.263c-13.144-19.624-35.697-31.333-60.315-31.333h-32.743     c-17.777,0-34.866-5.498-48.094-15.469c-30.124-22.704-77.497,1.83-100.621,16.527v-9.216c0-4.633-3.76-8.394-8.393-8.394H8.393     c-4.633,0-8.393,3.76-8.393,8.394v201.443c0,4.633,3.76,8.393,8.393,8.393h41.967c4.633,0,8.393-3.76,8.393-8.393v-16.787     h109.115c17.181,0,34.338-1.293,51.326-3.878l108.813-16.544c3.953-0.05,7.974-0.52,11.541-1.326     c10.022-1.41,19.607-6.194,27.715-13.849l127.228-99.076l0.201-0.159C504.605,298.023,506.754,283.671,499.452,273.313z      M41.967,281.27v151.082v16.787h-25.18V264.483h25.18V281.27z"/>
			<path d="M193.049,222.516h113.018l31.081,46.626c1.561,2.333,4.18,3.735,6.983,3.735s5.422-1.402,6.983-3.735l31.081-46.626     h113.018c4.633,0,8.393-3.76,8.393-8.393V46.254c0-4.633-3.76-8.393-8.393-8.393H193.049c-4.633,0-8.393,3.76-8.393,8.393     v167.869C184.656,218.756,188.416,222.516,193.049,222.516z M470.033,180.549c0,4.633-3.76,8.393-8.393,8.393h-33.574     c-4.633,0-8.393-3.76-8.393-8.393s3.76-8.393,8.393-8.393h33.574C466.272,172.155,470.033,175.916,470.033,180.549z      M301.367,96.648c2.736-0.269,5.397,0.831,7.168,2.896l43.772,51.066l46.416-58.032l-19.372,3.869     c-4.566,0.915-8.973-2.04-9.871-6.58c-0.915-4.541,2.031-8.964,6.581-9.871l41.967-8.393c0.109-0.025,0.227,0.017,0.336,0.008     c0.848-0.143,1.679-0.076,2.535,0.05c0.311,0.05,0.621,0,0.923,0.076c1.091,0.294,2.149,0.781,3.097,1.536     c0.008,0.017,0.017,0.034,0.025,0.042c0.017,0.008,0.034,0.008,0.05,0.025c0.151,0.126,0.218,0.327,0.361,0.462     c0.722,0.68,1.351,1.427,1.779,2.275c0.159,0.327,0.201,0.688,0.319,1.032c0.26,0.755,0.478,1.502,0.52,2.308     c0.008,0.143,0.092,0.269,0.092,0.411v41.967c0,4.633-3.76,8.393-8.393,8.393s-8.393-3.76-8.393-8.393v-18.037l-52.199,65.251     c-1.561,1.947-3.911,3.106-6.413,3.148c-2.468,0.126-4.885-1.032-6.513-2.929l-42.614-49.714l-27.665,48.413     c-1.544,2.711-4.381,4.23-7.294,4.23c-1.41,0-2.845-0.353-4.155-1.108c-4.029-2.3-5.422-7.428-3.122-11.449l33.574-58.754     C296.23,98.478,298.655,96.908,301.367,96.648z M226.623,71.434h33.574c4.633,0,8.393,3.76,8.393,8.393s-3.76,8.393-8.393,8.393     h-33.574c-4.633,0-8.393-3.76-8.393-8.393S221.99,71.434,226.623,71.434z"/>
		</g>
	</g>
</g>
<g>
</g>
<g>
</g>
<g>
</g>
<g>
</g>
<g>
</g>
<g>
</g>
<g>
</g>
<g>
</g>
<g>
</g>
<g>
</g>
<g>
</g>
<g>
</g>
<g>
</g>
<g>
</g>
<g>
</g>
</svg>
