<?xml version="1.0" encoding="iso-8859-1"?>
<!-- Generator: Adobe Illustrator 19.0.0, SVG Export Plug-In . SVG Version: 6.00 Build 0)  -->
<svg xmlns="http://www.w3.org/2000/svg" xmlns:xlink="http://www.w3.org/1999/xlink" version="1.1" id="Capa_1" x="0px" y="0px" viewBox="0 0 511.999 511.999" style="enable-background:new 0 0 511.999 511.999;" xml:space="preserve">
<g>
	<g>
		<g>
			<path d="M511.342,252.721c-0.435-1.041-1.058-1.988-1.843-2.773l-25.6-25.6c-3.337-3.328-8.73-3.328-12.066,0     c-3.337,3.337-3.337,8.738,0,12.075l11.034,11.034H443.52c-2.048-45.338-20.224-86.545-48.947-117.982l32.094-32.085v13.534     c0,4.71,3.823,8.533,8.533,8.533c4.71,0,8.533-3.823,8.533-8.533V76.789c0-1.118-0.222-2.219-0.657-3.268     c-0.87-2.082-2.534-3.746-4.617-4.608c-1.041-0.435-2.15-0.657-3.26-0.657h-34.133c-4.71,0-8.533,3.814-8.533,8.533     c0,4.71,3.823,8.533,8.533,8.533H414.6l-32.094,32.085c-31.428-28.715-72.636-46.899-117.973-48.939V29.122l11.034,11.034     c1.664,1.664,3.849,2.5,6.033,2.5s4.369-0.836,6.033-2.5c3.337-3.337,3.337-8.738,0-12.075l-25.6-25.591     c-0.785-0.785-1.732-1.417-2.773-1.843c-2.082-0.862-4.437-0.862-6.519,0c-1.041,0.427-1.988,1.058-2.782,1.843l-25.591,25.591     c-3.337,3.337-3.337,8.738,0,12.075c1.664,1.664,3.849,2.5,6.033,2.5c2.185,0,4.369-0.836,6.033-2.5l11.034-11.034v39.347     c-45.338,2.039-86.545,20.224-117.973,48.939L97.399,85.323h13.534c4.71,0,8.533-3.823,8.533-8.533     c0-4.719-3.823-8.533-8.533-8.533H76.8c-1.109,0-2.219,0.222-3.26,0.657c-2.082,0.862-3.746,2.526-4.617,4.608     c-0.427,1.05-0.657,2.15-0.657,3.268v34.133c0,4.71,3.823,8.533,8.533,8.533c4.71,0,8.533-3.823,8.533-8.533V97.389     l32.094,32.085c-28.723,31.437-46.899,72.644-48.947,117.982H29.132l11.034-11.034c3.336-3.337,3.336-8.738,0-12.075     c-3.337-3.328-8.73-3.328-12.066,0l-25.6,25.6c-0.785,0.785-1.408,1.732-1.843,2.773c-0.862,2.091-0.862,4.437,0,6.528     c0.435,1.041,1.058,1.988,1.843,2.773l25.6,25.6c1.664,1.664,3.849,2.5,6.033,2.5c2.185,0,4.369-0.836,6.033-2.5     c3.336-3.336,3.336-8.738,0-12.075l-11.034-11.025H68.48c2.048,45.329,20.224,86.537,48.947,117.973l-32.094,32.085v-13.525     c0-4.719-3.823-8.533-8.533-8.533c-4.71,0-8.533,3.814-8.533,8.533v34.133c0,1.109,0.23,2.21,0.657,3.26     c0.87,2.082,2.534,3.746,4.617,4.608c1.041,0.435,2.15,0.666,3.26,0.666h34.133c4.71,0,8.533-3.823,8.533-8.533     c0-4.719-3.823-8.533-8.533-8.533H97.399l32.094-32.094c31.428,28.715,72.636,46.899,117.973,48.939v39.347l-11.034-11.034     c-3.337-3.328-8.73-3.328-12.066,0c-3.337,3.337-3.337,8.738,0,12.075l4.676,4.676l9.865,9.865l8.823,8.823     c1.894,1.886,3.686,3.908,6.409,4.548c1.673,0.384,3.456,0.196,5.035-0.461c2.27-0.93,3.806-2.799,5.495-4.489l3.968-3.968     l9.958-9.967l7.791-7.782l1.246-1.246c3.337-3.336,3.337-8.738,0-12.075c-3.336-3.328-8.73-3.328-12.066,0l-11.034,11.034     v-39.347c45.338-2.039,86.545-20.224,117.973-48.939l32.094,32.094h-13.534c-4.71,0-8.533,3.814-8.533,8.533     c0,4.71,3.823,8.533,8.533,8.533H435.2c1.109,0,2.219-0.23,3.26-0.666c2.082-0.862,3.746-2.526,4.617-4.608     c0.435-1.05,0.657-2.15,0.657-3.26v-34.133c0-4.719-3.823-8.533-8.533-8.533c-4.71,0-8.533,3.814-8.533,8.533v13.525     l-32.094-32.085c28.723-31.437,46.899-72.644,48.947-117.973h39.347l-11.034,11.025c-3.337,3.337-3.337,8.738,0,12.075     c1.664,1.664,3.849,2.5,6.033,2.5s4.369-0.836,6.033-2.5l25.6-25.6c0.785-0.785,1.408-1.732,1.843-2.773     C512.204,257.158,512.204,254.812,511.342,252.721z M277.495,112.254c0.964-4.617,5.513-7.561,10.103-6.596     c5.982,1.254,11.947,2.893,17.724,4.855c4.463,1.51,6.844,6.357,5.333,10.82c-1.212,3.558-4.531,5.794-8.081,5.794     c-0.905,0-1.835-0.154-2.748-0.461c-5.128-1.741-10.419-3.191-15.744-4.309C279.475,121.385,276.522,116.862,277.495,112.254z      M223.786,105.786c5.956-1.271,12.066-2.202,18.159-2.756c4.693-0.367,8.841,3.029,9.267,7.723     c0.427,4.693-3.038,8.849-7.731,9.276c-5.41,0.495-10.829,1.314-16.119,2.449c-0.606,0.128-1.212,0.188-1.801,0.188     c-3.934,0-7.475-2.739-8.337-6.75C216.234,111.307,219.178,106.775,223.786,105.786z M122.897,179.377     c3.055-5.282,6.451-10.436,10.112-15.317c2.825-3.772,8.183-4.54,11.947-1.715c3.772,2.825,4.54,8.175,1.707,11.947     c-3.243,4.343-6.272,8.926-8.986,13.619c-1.579,2.739-4.446,4.267-7.398,4.267c-1.451,0-2.918-0.367-4.258-1.143     C121.941,188.678,120.541,183.456,122.897,179.377z M103.219,240.109c0.623-6.067,1.63-12.16,2.978-18.116     c1.041-4.599,5.641-7.501,10.206-6.443c4.599,1.041,7.475,5.606,6.434,10.206c-1.203,5.299-2.091,10.718-2.645,16.102     c-0.452,4.386-4.156,7.654-8.482,7.654c-0.29,0-0.589-0.009-0.879-0.043C106.137,248.983,102.732,244.794,103.219,240.109z      M120.704,309.033c-0.879,0.29-1.775,0.427-2.654,0.427c-3.584,0-6.929-2.287-8.107-5.888     c-1.894-5.803-3.456-11.784-4.642-17.775c-0.913-4.625,2.099-9.114,6.716-10.027c4.651-0.956,9.114,2.099,10.027,6.716     c1.05,5.325,2.441,10.633,4.122,15.787C127.633,302.743,125.184,307.565,120.704,309.033z M154.001,359.396     c-1.63,1.476-3.669,2.193-5.709,2.193c-2.338,0-4.659-0.947-6.34-2.816c-4.079-4.514-7.936-9.344-11.469-14.327     c-2.714-3.849-1.801-9.173,2.048-11.896c3.849-2.714,9.173-1.8,11.896,2.048c3.132,4.429,6.562,8.721,10.197,12.749     C157.781,350.837,157.499,356.239,154.001,359.396z M163.686,143.827c-2.782-3.797-1.946-9.139,1.86-11.921     c4.932-3.601,10.121-6.946,15.428-9.924c4.104-2.313,9.31-0.853,11.614,3.26c2.313,4.113,0.853,9.31-3.26,11.622     c-4.71,2.654-9.327,5.615-13.713,8.823c-1.519,1.109-3.285,1.647-5.026,1.647C167.953,147.334,165.358,146.123,163.686,143.827z      M204.834,392.002c-1.417,3.174-4.531,5.06-7.791,5.06c-1.161,0-2.347-0.239-3.473-0.742c-5.564-2.483-11.051-5.342-16.299-8.482     c-4.036-2.423-5.35-7.663-2.927-11.708c2.423-4.036,7.654-5.35,11.708-2.935c4.659,2.799,9.523,5.333,14.473,7.544     C204.825,382.658,206.754,387.701,204.834,392.002z M256.597,409.589H256c-6.101,0-12.262-0.367-18.313-1.084     c-4.676-0.563-8.021-4.804-7.467-9.489c0.555-4.676,4.796-7.953,9.481-7.467c5.385,0.64,10.871,0.973,16.299,0.973     c4.71,0,8.832,3.814,8.832,8.533C264.832,405.766,261.307,409.589,256.597,409.589z M264.533,331.919v9.404     c0,4.71-3.823,8.533-8.533,8.533c-4.71,0-8.533-3.823-8.533-8.533v-9.404c-19.447-3.959-34.133-21.197-34.133-41.796     c0-4.719,3.823-8.533,8.533-8.533s8.533,3.814,8.533,8.533c0,11.102,7.151,20.489,17.067,24.021v-50.492     c-19.447-3.959-34.133-21.197-34.133-41.796c0-20.608,14.686-37.845,34.133-41.805v-9.395c0-4.719,3.823-8.533,8.533-8.533     c4.71,0,8.533,3.814,8.533,8.533v9.395c19.448,3.959,34.133,21.197,34.133,41.805c0,4.71-3.823,8.533-8.533,8.533     s-8.533-3.823-8.533-8.533c0-11.11-7.151-20.497-17.067-24.03v50.492c19.448,3.959,34.133,21.197,34.133,41.805     C298.666,310.722,283.98,327.96,264.533,331.919z M319.01,396.064c-5.555,2.5-11.332,4.702-17.161,6.528     c-0.853,0.265-1.715,0.401-2.56,0.401c-3.635,0-6.997-2.338-8.141-5.99c-1.408-4.489,1.092-9.284,5.589-10.692     c5.188-1.621,10.317-3.576,15.249-5.811c4.301-1.92,9.353-0.026,11.29,4.267C325.213,389.067,323.302,394.118,319.01,396.064z      M334.037,133.451c2.782-3.823,8.115-4.659,11.921-1.903c4.949,3.593,9.728,7.501,14.191,11.631     c3.465,3.2,3.678,8.602,0.478,12.058c-1.69,1.826-3.977,2.748-6.272,2.748c-2.074,0-4.147-0.751-5.786-2.27     c-3.977-3.678-8.226-7.159-12.629-10.351C332.125,142.598,331.272,137.257,334.037,133.451z M370.457,358.321     c-4.062,4.523-8.439,8.875-13.013,12.911c-1.621,1.434-3.644,2.142-5.641,2.142c-2.364,0-4.719-0.973-6.4-2.893     c-3.123-3.533-2.79-8.917,0.742-12.041c4.079-3.601,7.979-7.475,11.597-11.503c3.14-3.516,8.533-3.814,12.049-0.666     C373.307,349.412,373.597,354.814,370.457,358.321z M377.122,175.776c4.07-2.372,9.301-0.998,11.665,3.072     c3.072,5.265,5.862,10.769,8.286,16.367c1.869,4.326-0.12,9.353-4.446,11.221c-1.109,0.478-2.253,0.708-3.388,0.708     c-3.294,0-6.443-1.929-7.834-5.154c-2.15-4.975-4.625-9.865-7.356-14.549C371.677,183.371,373.051,178.14,377.122,175.776z      M402.252,302.965c-1.877,5.811-4.122,11.571-6.682,17.118c-1.442,3.123-4.523,4.958-7.748,4.958     c-1.195,0-2.415-0.247-3.575-0.785c-4.275-1.971-6.144-7.04-4.173-11.324c2.278-4.924,4.267-10.035,5.931-15.198     c1.442-4.489,6.246-6.955,10.743-5.504C401.228,293.673,403.694,298.477,402.252,302.965z M409.591,257.764     c-0.034,4.693-3.849,8.474-8.533,8.474h-0.06c-4.719-0.034-8.508-3.883-8.474-8.602l0.009-1.647     c0-4.898-0.265-9.839-0.785-14.694c-0.503-4.685,2.893-8.892,7.569-9.395c4.736-0.478,8.9,2.893,9.395,7.569     c0.589,5.461,0.887,11.016,0.887,16.521L409.591,257.764z"/>
			<path d="M230.4,221.852c0,11.11,7.151,20.489,17.067,24.021v-48.051C237.551,201.363,230.4,210.741,230.4,221.852z"/>
			<path d="M264.533,266.089v48.06c9.916-3.541,17.067-12.919,17.067-24.03C281.6,279.009,274.449,269.631,264.533,266.089z"/>
		</g>
	</g>
</g>
<g>
</g>
<g>
</g>
<g>
</g>
<g>
</g>
<g>
</g>
<g>
</g>
<g>
</g>
<g>
</g>
<g>
</g>
<g>
</g>
<g>
</g>
<g>
</g>
<g>
</g>
<g>
</g>
<g>
</g>
</svg>
