<?xml version="1.0" encoding="iso-8859-1"?>
<!-- Generator: Adobe Illustrator 19.0.0, SVG Export Plug-In . SVG Version: 6.00 Build 0)  -->
<svg xmlns="http://www.w3.org/2000/svg" xmlns:xlink="http://www.w3.org/1999/xlink" version="1.1" id="Capa_1" x="0px" y="0px" viewBox="0 0 512.002 512.002" style="enable-background:new 0 0 512.002 512.002;" xml:space="preserve">
<g>
	<g>
		<g>
			<path d="M511.344,466.076c-0.435-1.05-1.058-1.988-1.852-2.782l-34.125-34.125c-3.337-3.337-8.73-3.337-12.066,0     c-3.337,3.336-3.337,8.73,0,12.066l19.567,19.567H341.275c80.137-33.493,136.593-112.666,136.593-204.8     c0-122.334-99.524-221.867-221.867-221.867H29.134l19.567-19.567c3.336-3.337,3.336-8.73,0-12.066     c-3.337-3.336-8.73-3.336-12.066,0L2.51,36.627c-0.794,0.794-1.417,1.732-1.852,2.782c-0.853,2.082-0.853,4.437,0,6.519     c0.435,1.05,1.058,1.988,1.852,2.782l34.125,34.125c1.664,1.664,3.849,2.5,6.033,2.5s4.369-0.836,6.033-2.5     c3.336-3.337,3.336-8.73,0-12.066L29.134,51.202h141.594C90.591,84.695,34.134,163.868,34.134,256.002     c0,122.334,99.524,221.867,221.867,221.867h226.867l-19.567,19.567c-3.337,3.336-3.337,8.73,0,12.066     c1.664,1.664,3.849,2.5,6.033,2.5s4.369-0.836,6.033-2.5l34.125-34.125c0.794-0.794,1.417-1.732,1.852-2.782     C512.197,470.513,512.197,468.158,511.344,466.076z M68.268,256.002c0-103.518,84.216-187.733,187.733-187.733     s187.733,84.215,187.733,187.733s-84.215,187.733-187.733,187.733S68.268,359.52,68.268,256.002z"/>
			<path d="M230.401,221.87c0,11.11,7.159,20.489,17.067,24.021V197.84C237.561,201.381,230.401,210.759,230.401,221.87z"/>
			<path d="M255.997,85.333C161.891,85.333,85.33,161.894,85.33,256s76.561,170.667,170.667,170.667     c94.114,0,170.667-76.561,170.667-170.667S350.111,85.333,255.997,85.333z M277.492,112.273     c0.964-4.617,5.521-7.586,10.112-6.596c5.982,1.254,11.947,2.884,17.724,4.847c4.454,1.519,6.844,6.366,5.333,10.829     c-1.212,3.55-4.531,5.794-8.09,5.794c-0.905,0-1.826-0.154-2.748-0.461c-5.12-1.741-10.411-3.191-15.744-4.309     C279.472,121.403,276.528,116.881,277.492,112.273z M223.783,105.804c5.965-1.28,12.075-2.21,18.159-2.765     c4.753-0.358,8.849,3.038,9.276,7.731c0.427,4.693-3.038,8.841-7.723,9.276c-5.41,0.486-10.837,1.306-16.128,2.449     c-0.606,0.128-1.212,0.188-1.8,0.188c-3.942,0-7.475-2.748-8.329-6.75C216.24,111.325,219.175,106.786,223.783,105.804z      M122.894,179.396c3.055-5.282,6.46-10.436,10.103-15.326c2.833-3.763,8.166-4.548,11.955-1.707     c3.772,2.825,4.54,8.175,1.715,11.947c-3.26,4.335-6.281,8.917-8.994,13.619c-1.579,2.739-4.446,4.267-7.398,4.267     c-1.451,0-2.918-0.367-4.258-1.152C121.938,188.697,120.53,183.475,122.894,179.396z M103.207,240.119     c0.631-6.11,1.647-12.211,2.995-18.125c1.041-4.599,5.581-7.492,10.214-6.426c4.591,1.05,7.467,5.623,6.417,10.214     c-1.195,5.257-2.082,10.667-2.645,16.094c-0.452,4.386-4.164,7.654-8.482,7.654c-0.29,0-0.58-0.009-0.879-0.043     C106.134,249.002,102.73,244.812,103.207,240.119z M120.709,309.051c-0.888,0.282-1.775,0.418-2.654,0.418     c-3.584,0-6.929-2.287-8.107-5.888c-1.903-5.837-3.465-11.819-4.634-17.792c-0.896-4.625,2.116-9.105,6.741-10.01     c4.617-0.93,9.114,2.116,10.01,6.741c1.033,5.282,2.406,10.59,4.105,15.761C127.638,302.762,125.189,307.584,120.709,309.051z      M154.006,359.415c-1.63,1.468-3.669,2.193-5.717,2.193c-2.33,0-4.651-0.947-6.332-2.816c-4.087-4.531-7.936-9.353-11.46-14.327     c-2.722-3.849-1.801-9.173,2.048-11.895c3.866-2.705,9.182-1.809,11.887,2.048c3.132,4.429,6.562,8.713,10.197,12.74     C157.787,350.856,157.505,356.258,154.006,359.415z M163.692,143.846c-2.773-3.806-1.946-9.139,1.86-11.921     c4.932-3.601,10.112-6.946,15.42-9.924c4.113-2.313,9.318-0.845,11.631,3.26c2.304,4.105,0.845,9.31-3.26,11.614     c-4.727,2.654-9.344,5.623-13.722,8.832c-1.519,1.109-3.285,1.638-5.026,1.638C167.958,147.345,165.364,146.133,163.692,143.846z      M204.839,392.021c-1.417,3.174-4.531,5.06-7.799,5.06c-1.152,0-2.338-0.239-3.473-0.742c-5.538-2.475-11.017-5.333-16.282-8.482     c-4.045-2.424-5.359-7.663-2.944-11.708c2.423-4.045,7.672-5.35,11.708-2.935c4.685,2.799,9.557,5.342,14.481,7.535     C204.831,382.677,206.768,387.72,204.839,392.021z M256.594,409.6h-0.597c-6.093,0-12.262-0.367-18.313-1.084     c-4.685-0.555-8.021-4.804-7.467-9.481s4.77-8.013,9.481-7.467c5.385,0.64,10.871,0.964,16.299,0.964     c4.719,0,8.841,3.823,8.841,8.533C264.837,405.785,261.313,409.6,256.594,409.6z M264.53,331.938v9.395     c0,4.719-3.814,8.533-8.533,8.533c-4.71,0-8.533-3.814-8.533-8.533v-9.395c-19.447-3.968-34.133-21.197-34.133-41.805     c0-4.71,3.823-8.533,8.533-8.533c4.719,0,8.533,3.823,8.533,8.533c0,11.11,7.159,20.497,17.067,24.03v-50.492     c-19.447-3.968-34.133-21.197-34.133-41.805c0-20.599,14.686-37.837,34.133-41.805v-9.395c0-4.71,3.823-8.533,8.533-8.533     c4.719,0,8.533,3.823,8.533,8.533v9.395c19.456,3.968,34.133,21.205,34.133,41.805c0,4.719-3.814,8.533-8.533,8.533     c-4.71,0-8.533-3.814-8.533-8.533c0-11.102-7.151-20.489-17.067-24.03v50.492c19.456,3.968,34.133,21.205,34.133,41.805     C298.663,310.741,283.986,327.97,264.53,331.938z M319.007,396.074c-5.538,2.509-11.315,4.71-17.143,6.536     c-0.853,0.265-1.724,0.393-2.56,0.393c-3.635,0-7.006-2.338-8.141-5.982c-1.408-4.497,1.092-9.284,5.581-10.692     c5.188-1.63,10.317-3.584,15.249-5.811c4.292-1.946,9.353-0.026,11.281,4.267C325.219,389.077,323.308,394.137,319.007,396.074z      M334.043,133.461c2.748-3.814,8.081-4.668,11.913-1.894c4.941,3.575,9.711,7.484,14.199,11.631     c3.456,3.2,3.669,8.602,0.469,12.058c-1.681,1.826-3.977,2.739-6.263,2.739c-2.074,0-4.147-0.742-5.794-2.261     c-3.994-3.686-8.235-7.177-12.621-10.351C332.123,142.617,331.278,137.284,334.043,133.461z M370.463,358.331     c-4.087,4.557-8.465,8.909-13.03,12.928c-1.621,1.434-3.635,2.133-5.641,2.133c-2.355,0-4.719-0.981-6.4-2.893     c-3.115-3.541-2.773-8.934,0.759-12.049c4.062-3.576,7.962-7.441,11.588-11.503c3.149-3.507,8.559-3.789,12.049-0.666     C373.305,349.431,373.603,354.824,370.463,358.331z M374.038,187.46c-2.364-4.07-0.99-9.301,3.081-11.674     c4.07-2.364,9.301-0.99,11.674,3.081c3.098,5.316,5.879,10.829,8.277,16.384c1.86,4.326-0.145,9.344-4.471,11.213     c-1.101,0.469-2.236,0.7-3.371,0.7c-3.302,0-6.451-1.937-7.842-5.163C379.269,197.077,376.803,192.179,374.038,187.46z      M402.258,302.984c-1.877,5.803-4.113,11.563-6.673,17.118c-1.442,3.123-4.523,4.958-7.757,4.958     c-1.195,0-2.415-0.247-3.558-0.785c-4.284-1.971-6.161-7.031-4.19-11.315c2.278-4.941,4.267-10.052,5.931-15.215     c1.451-4.48,6.263-6.955,10.743-5.504C401.234,293.683,403.7,298.496,402.258,302.984z M401.063,266.248h-0.128     c-4.719-0.068-8.474-3.942-8.405-8.653V256c0-4.89-0.265-9.839-0.777-14.686c-0.503-4.685,2.884-8.892,7.569-9.395     c4.83-0.469,8.892,2.893,9.395,7.569c0.58,5.453,0.879,11.016,0.879,16.512v1.843     C409.529,262.51,405.714,266.248,401.063,266.248z"/>
			<path d="M264.534,266.106v48.06c9.907-3.541,17.067-12.919,17.067-24.03S274.442,269.647,264.534,266.106z"/>
		</g>
	</g>
</g>
<g>
</g>
<g>
</g>
<g>
</g>
<g>
</g>
<g>
</g>
<g>
</g>
<g>
</g>
<g>
</g>
<g>
</g>
<g>
</g>
<g>
</g>
<g>
</g>
<g>
</g>
<g>
</g>
<g>
</g>
</svg>
