<?xml version="1.0" encoding="iso-8859-1"?>
<!-- Generator: Adobe Illustrator 19.0.0, SVG Export Plug-In . SVG Version: 6.00 Build 0)  -->
<svg xmlns="http://www.w3.org/2000/svg" xmlns:xlink="http://www.w3.org/1999/xlink" version="1.1" id="Capa_1" x="0px" y="0px" viewBox="0 0 512 512" style="enable-background:new 0 0 512 512;" xml:space="preserve">
<g>
	<g>
		<g>
			<rect x="315.737" y="204.798" width="76.8" height="17.067"/>
			<rect x="315.737" y="281.598" width="76.8" height="17.067"/>
			<rect x="119.47" y="127.998" width="76.8" height="17.067"/>
			<rect x="119.47" y="435.198" width="76.8" height="17.067"/>
			<rect x="119.47" y="358.398" width="76.8" height="17.067"/>
			<path d="M443.733,0H68.267c-4.71,0-8.533,3.823-8.533,8.533v494.933c0,4.71,3.823,8.533,8.533,8.533h375.467     c4.719,0,8.533-3.823,8.533-8.533V8.533C452.267,3.823,448.452,0,443.733,0z M281.6,110.933h34.133     c4.71,0,8.533,3.823,8.533,8.533S320.444,128,315.733,128H281.6c-4.71,0-8.533-3.823-8.533-8.533S276.89,110.933,281.6,110.933z      M264.533,145.067h102.4c4.71,0,8.533,3.823,8.533,8.533c0,4.71-3.823,8.533-8.533,8.533h-102.4c-4.71,0-8.533-3.823-8.533-8.533     C256,148.89,259.823,145.067,264.533,145.067z M315.733,358.4H281.6c-4.71,0-8.533-3.823-8.533-8.533     c0-4.71,3.823-8.533,8.533-8.533h34.133c4.71,0,8.533,3.823,8.533,8.533C324.267,354.577,320.444,358.4,315.733,358.4z      M366.933,375.467c4.71,0,8.533,3.823,8.533,8.533c0,4.71-3.823,8.533-8.533,8.533h-102.4c-4.71,0-8.533-3.823-8.533-8.533     c0-4.71,3.823-8.533,8.533-8.533H366.933z M256,76.8c0,4.71-3.823,8.533-8.533,8.533h-102.4c-4.71,0-8.533-3.823-8.533-8.533     s3.823-8.533,8.533-8.533h102.4C252.177,68.267,256,72.09,256,76.8z M247.467,221.867c4.71,0,8.533,3.823,8.533,8.533     s-3.823,8.533-8.533,8.533h-102.4c-4.71,0-8.533-3.823-8.533-8.533s3.823-8.533,8.533-8.533H247.467z M187.733,196.267     c0-4.71,3.823-8.533,8.533-8.533H230.4c4.71,0,8.533,3.823,8.533,8.533s-3.823,8.533-8.533,8.533h-34.133     C191.556,204.8,187.733,200.977,187.733,196.267z M196.267,34.133H230.4c4.71,0,8.533,3.823,8.533,8.533     c0,4.71-3.823,8.533-8.533,8.533h-34.133c-4.71,0-8.533-3.823-8.533-8.533C187.733,37.956,191.556,34.133,196.267,34.133z      M110.933,34.133h51.2c4.71,0,8.533,3.823,8.533,8.533c0,4.71-3.823,8.533-8.533,8.533h-51.2c-4.71,0-8.533-3.823-8.533-8.533     C102.4,37.956,106.223,34.133,110.933,34.133z M102.4,119.467c0-4.71,3.823-8.533,8.533-8.533H204.8     c4.71,0,8.533,3.823,8.533,8.533V153.6c0,4.71-3.823,8.533-8.533,8.533h-93.867c-4.71,0-8.533-3.823-8.533-8.533V119.467z      M110.933,187.733h51.2c4.71,0,8.533,3.823,8.533,8.533s-3.823,8.533-8.533,8.533h-51.2c-4.71,0-8.533-3.823-8.533-8.533     S106.223,187.733,110.933,187.733z M110.933,264.533h153.6c4.71,0,8.533,3.823,8.533,8.533c0,4.71-3.823,8.533-8.533,8.533     h-153.6c-4.71,0-8.533-3.823-8.533-8.533C102.4,268.356,106.223,264.533,110.933,264.533z M213.333,460.8     c0,4.71-3.823,8.533-8.533,8.533h-93.867c-4.71,0-8.533-3.823-8.533-8.533v-34.133c0-4.71,3.823-8.533,8.533-8.533H204.8     c4.71,0,8.533,3.823,8.533,8.533V460.8z M213.333,384c0,4.71-3.823,8.533-8.533,8.533h-93.867c-4.71,0-8.533-3.823-8.533-8.533     v-34.133c0-4.71,3.823-8.533,8.533-8.533H204.8c4.71,0,8.533,3.823,8.533,8.533V384z M221.867,315.733H110.933     c-4.71,0-8.533-3.823-8.533-8.533s3.823-8.533,8.533-8.533h110.933c4.71,0,8.533,3.823,8.533,8.533     S226.577,315.733,221.867,315.733z M401.067,469.333H290.133c-4.71,0-8.533-3.823-8.533-8.533c0-4.71,3.823-8.533,8.533-8.533     h110.933c4.719,0,8.533,3.823,8.533,8.533C409.6,465.51,405.786,469.333,401.067,469.333z M401.067,435.2h-153.6     c-4.71,0-8.533-3.823-8.533-8.533s3.823-8.533,8.533-8.533h153.6c4.719,0,8.533,3.823,8.533,8.533S405.786,435.2,401.067,435.2z      M401.067,358.4h-51.2c-4.71,0-8.533-3.823-8.533-8.533c0-4.71,3.823-8.533,8.533-8.533h51.2c4.719,0,8.533,3.823,8.533,8.533     C409.6,354.577,405.786,358.4,401.067,358.4z M409.6,307.2c0,4.71-3.814,8.533-8.533,8.533H307.2     c-4.71,0-8.533-3.823-8.533-8.533v-34.133c0-4.71,3.823-8.533,8.533-8.533h93.867c4.719,0,8.533,3.823,8.533,8.533V307.2z      M409.6,230.4c0,4.71-3.814,8.533-8.533,8.533H307.2c-4.71,0-8.533-3.823-8.533-8.533v-34.133c0-4.71,3.823-8.533,8.533-8.533     h93.867c4.719,0,8.533,3.823,8.533,8.533V230.4z M401.067,128h-51.2c-4.71,0-8.533-3.823-8.533-8.533s3.823-8.533,8.533-8.533     h51.2c4.719,0,8.533,3.823,8.533,8.533S405.786,128,401.067,128z M409.6,76.8c0,4.71-3.814,8.533-8.533,8.533H307.2     c-4.71,0-8.533-3.823-8.533-8.533V42.667c0-4.71,3.823-8.533,8.533-8.533h93.867c4.719,0,8.533,3.823,8.533,8.533V76.8z"/>
			<rect x="315.737" y="51.198" width="76.8" height="17.067"/>
		</g>
	</g>
</g>
<g>
</g>
<g>
</g>
<g>
</g>
<g>
</g>
<g>
</g>
<g>
</g>
<g>
</g>
<g>
</g>
<g>
</g>
<g>
</g>
<g>
</g>
<g>
</g>
<g>
</g>
<g>
</g>
<g>
</g>
</svg>
