<?xml version="1.0" encoding="iso-8859-1"?>
<!-- Generator: Adobe Illustrator 19.0.0, SVG Export Plug-In . SVG Version: 6.00 Build 0)  -->
<svg xmlns="http://www.w3.org/2000/svg" xmlns:xlink="http://www.w3.org/1999/xlink" version="1.1" id="Capa_1" x="0px" y="0px" viewBox="0 0 512 512" style="enable-background:new 0 0 512 512;" xml:space="preserve">
<g>
	<g>
		<g>
			<rect x="119.47" y="59.732" width="34.133" height="17.067"/>
			<rect x="238.937" y="127.998" width="59.733" height="17.067"/>
			<rect x="119.47" y="358.398" width="76.8" height="17.067"/>
			<rect x="119.47" y="435.198" width="76.8" height="17.067"/>
			<polygon points="349.867,5 349.867,102.399 447.266,102.399    "/>
			<path d="M341.333,119.467c-4.71,0-8.533-3.823-8.533-8.533V0H68.267c-4.71,0-8.533,3.823-8.533,8.533v494.933     c0,4.71,3.823,8.533,8.533,8.533h375.467c4.71,0,8.533-3.823,8.533-8.533v-384H341.333z M204.8,42.667h102.4     c4.71,0,8.533,3.823,8.533,8.533s-3.823,8.533-8.533,8.533H204.8c-4.71,0-8.533-3.823-8.533-8.533S200.09,42.667,204.8,42.667z      M315.733,358.4H281.6c-4.71,0-8.533-3.823-8.533-8.533c0-4.71,3.823-8.533,8.533-8.533h34.133c4.71,0,8.533,3.823,8.533,8.533     C324.267,354.577,320.444,358.4,315.733,358.4z M366.933,375.467c4.71,0,8.533,3.823,8.533,8.533c0,4.71-3.823,8.533-8.533,8.533     h-102.4c-4.71,0-8.533-3.823-8.533-8.533c0-4.71,3.823-8.533,8.533-8.533H366.933z M230.4,162.133     c-4.71,0-8.533-3.823-8.533-8.533v-34.133c0-4.71,3.823-8.533,8.533-8.533h76.8c4.71,0,8.533,3.823,8.533,8.533V153.6     c0,4.71-3.823,8.533-8.533,8.533H230.4z M196.267,187.733H230.4c4.71,0,8.533,3.823,8.533,8.533s-3.823,8.533-8.533,8.533     h-34.133c-4.71,0-8.533-3.823-8.533-8.533S191.556,187.733,196.267,187.733z M128,162.133c-4.71,0-8.533-3.823-8.533-8.533     c0-4.71,3.823-8.533,8.533-8.533h59.733c4.71,0,8.533,3.823,8.533,8.533c0,4.71-3.823,8.533-8.533,8.533H128z M247.467,221.867     c4.71,0,8.533,3.823,8.533,8.533s-3.823,8.533-8.533,8.533h-102.4c-4.71,0-8.533-3.823-8.533-8.533s3.823-8.533,8.533-8.533     H247.467z M204.8,76.8h85.333c4.71,0,8.533,3.823,8.533,8.533c0,4.71-3.823,8.533-8.533,8.533H204.8     c-4.71,0-8.533-3.823-8.533-8.533C196.267,80.623,200.09,76.8,204.8,76.8z M102.4,51.2c0-4.71,3.823-8.533,8.533-8.533h51.2     c4.71,0,8.533,3.823,8.533,8.533v34.133c0,4.71-3.823,8.533-8.533,8.533h-51.2c-4.71,0-8.533-3.823-8.533-8.533V51.2z      M110.933,110.933h76.8c4.71,0,8.533,3.823,8.533,8.533S192.444,128,187.733,128h-76.8c-4.71,0-8.533-3.823-8.533-8.533     S106.223,110.933,110.933,110.933z M110.933,187.733h51.2c4.71,0,8.533,3.823,8.533,8.533s-3.823,8.533-8.533,8.533h-51.2     c-4.71,0-8.533-3.823-8.533-8.533S106.223,187.733,110.933,187.733z M110.933,264.533h153.6c4.71,0,8.533,3.823,8.533,8.533     c0,4.71-3.823,8.533-8.533,8.533h-153.6c-4.71,0-8.533-3.823-8.533-8.533C102.4,268.356,106.223,264.533,110.933,264.533z      M213.333,460.8c0,4.71-3.823,8.533-8.533,8.533h-93.867c-4.71,0-8.533-3.823-8.533-8.533v-34.133     c0-4.71,3.823-8.533,8.533-8.533H204.8c4.71,0,8.533,3.823,8.533,8.533V460.8z M213.333,384c0,4.71-3.823,8.533-8.533,8.533     h-93.867c-4.71,0-8.533-3.823-8.533-8.533v-34.133c0-4.71,3.823-8.533,8.533-8.533H204.8c4.71,0,8.533,3.823,8.533,8.533V384z      M221.867,315.733H110.933c-4.71,0-8.533-3.823-8.533-8.533s3.823-8.533,8.533-8.533h110.933c4.71,0,8.533,3.823,8.533,8.533     S226.577,315.733,221.867,315.733z M401.067,469.333H290.133c-4.71,0-8.533-3.823-8.533-8.533c0-4.71,3.823-8.533,8.533-8.533     h110.933c4.71,0,8.533,3.823,8.533,8.533C409.6,465.51,405.777,469.333,401.067,469.333z M401.067,435.2h-153.6     c-4.71,0-8.533-3.823-8.533-8.533s3.823-8.533,8.533-8.533h153.6c4.71,0,8.533,3.823,8.533,8.533S405.777,435.2,401.067,435.2z      M401.067,358.4h-51.2c-4.71,0-8.533-3.823-8.533-8.533c0-4.71,3.823-8.533,8.533-8.533h51.2c4.71,0,8.533,3.823,8.533,8.533     C409.6,354.577,405.777,358.4,401.067,358.4z M409.6,307.2c0,4.71-3.823,8.533-8.533,8.533H307.2     c-4.71,0-8.533-3.823-8.533-8.533v-34.133c0-4.71,3.823-8.533,8.533-8.533h93.867c4.71,0,8.533,3.823,8.533,8.533V307.2z      M409.6,230.4c0,4.71-3.823,8.533-8.533,8.533H307.2c-4.71,0-8.533-3.823-8.533-8.533v-34.133c0-4.71,3.823-8.533,8.533-8.533     h93.867c4.71,0,8.533,3.823,8.533,8.533V230.4z"/>
			<rect x="315.737" y="204.798" width="76.8" height="17.067"/>
			<rect x="315.737" y="281.598" width="76.8" height="17.067"/>
		</g>
	</g>
</g>
<g>
</g>
<g>
</g>
<g>
</g>
<g>
</g>
<g>
</g>
<g>
</g>
<g>
</g>
<g>
</g>
<g>
</g>
<g>
</g>
<g>
</g>
<g>
</g>
<g>
</g>
<g>
</g>
<g>
</g>
</svg>
