<?xml version="1.0" encoding="iso-8859-1"?>
<!-- Generator: Adobe Illustrator 19.0.0, SVG Export Plug-In . SVG Version: 6.00 Build 0)  -->
<svg xmlns="http://www.w3.org/2000/svg" xmlns:xlink="http://www.w3.org/1999/xlink" version="1.1" id="Capa_1" x="0px" y="0px" viewBox="0 0 512 512" style="enable-background:new 0 0 512 512;" xml:space="preserve">
<g>
	<g>
		<g>
			<path d="M247.467,332.802H281.6c4.71,0,8.533-3.823,8.533-8.533c0-4.71-3.823-8.533-8.533-8.533h-34.133     c-4.71,0-8.533,3.823-8.533,8.533C238.933,328.979,242.756,332.802,247.467,332.802z"/>
			<path d="M324.267,332.802h128c4.71,0,8.533-3.823,8.533-8.533c0-4.71-3.823-8.533-8.533-8.533h-128     c-4.71,0-8.533,3.823-8.533,8.533C315.733,328.979,319.556,332.802,324.267,332.802z"/>
			<polygon points="341.333,195.148 341.333,231.526 368.614,213.333    "/>
			<path d="M473.685,128H315.733V59.733V33.809C315.733,15.164,300.57,0,281.933,0H59.401C40.764,0,25.6,15.164,25.6,33.809v25.924     V76.8c-4.71,0-8.533,3.823-8.533,8.533v8.533c0,4.719,3.823,8.533,8.533,8.533v8.533c-4.71,0-8.533,3.823-8.533,8.533V128     c0,4.719,3.823,8.533,8.533,8.533v8.533c-4.71,0-8.533,3.823-8.533,8.533v8.533c0,4.719,3.823,8.533,8.533,8.533V435.2v43     c0,18.637,15.164,33.8,33.801,33.8h222.532c18.637,0,33.801-15.164,33.801-33.8v-43v-68.267h157.952     c11.716,0,21.248-9.532,21.248-21.248v-55.552V149.248C494.933,137.532,485.402,128,473.685,128z M435.2,162.133h17.067     c4.71,0,8.533,3.823,8.533,8.533c0,4.719-3.823,8.533-8.533,8.533H435.2c-4.71,0-8.533-3.814-8.533-8.533     C426.667,165.956,430.49,162.133,435.2,162.133z M435.2,247.467h17.067c4.71,0,8.533,3.823,8.533,8.533s-3.823,8.533-8.533,8.533     H435.2c-4.71,0-8.533-3.823-8.533-8.533S430.49,247.467,435.2,247.467z M324.267,179.2c0-3.14,1.732-6.033,4.506-7.526     c2.765-1.485,6.135-1.323,8.764,0.427l51.2,34.133c2.372,1.587,3.797,4.25,3.797,7.1c0,2.859-1.425,5.521-3.797,7.1l-51.2,34.133     c-1.434,0.956-3.081,1.434-4.736,1.434c-1.382,0-2.765-0.333-4.028-1.007c-2.773-1.485-4.506-4.378-4.506-7.526V179.2z      M162.133,25.6H204.8c4.71,0,8.533,3.823,8.533,8.533c0,4.719-3.823,8.533-8.533,8.533h-42.667c-4.71,0-8.533-3.814-8.533-8.533     C153.6,29.423,157.423,25.6,162.133,25.6z M128,25.6h8.533c4.71,0,8.533,3.823,8.533,8.533c0,4.719-3.823,8.533-8.533,8.533H128     c-4.71,0-8.533-3.814-8.533-8.533C119.467,29.423,123.29,25.6,128,25.6z M170.667,503.467c-18.825,0-34.133-15.309-34.133-34.133     c0-18.816,15.309-34.133,34.133-34.133s34.133,15.317,34.133,34.133C204.8,488.158,189.491,503.467,170.667,503.467z      M298.667,426.667h-256v-358.4h256V128h-72.619c-11.716,0-21.248,9.532-21.248,21.248v140.885v55.552     c0,11.716,9.532,21.248,21.248,21.248h72.619V426.667z M264.533,179.2h-17.067c-4.71,0-8.533-3.814-8.533-8.533     c0-4.71,3.823-8.533,8.533-8.533h17.067c4.71,0,8.533,3.823,8.533,8.533C273.067,175.386,269.244,179.2,264.533,179.2z      M273.067,256c0,4.71-3.823,8.533-8.533,8.533h-17.067c-4.71,0-8.533-3.823-8.533-8.533s3.823-8.533,8.533-8.533h17.067     C269.244,247.467,273.067,251.29,273.067,256z M477.867,345.685c0,2.313-1.877,4.181-4.181,4.181H307.2h-81.152     c-2.304,0-4.181-1.869-4.181-4.181v-47.019h256V345.685z"/>
			<path d="M170.667,452.268c-9.412,0-17.067,7.654-17.067,17.067c0,9.412,7.654,17.067,17.067,17.067     c9.412,0,17.067-7.654,17.067-17.067C187.733,459.923,180.079,452.268,170.667,452.268z"/>
		</g>
	</g>
</g>
<g>
</g>
<g>
</g>
<g>
</g>
<g>
</g>
<g>
</g>
<g>
</g>
<g>
</g>
<g>
</g>
<g>
</g>
<g>
</g>
<g>
</g>
<g>
</g>
<g>
</g>
<g>
</g>
<g>
</g>
</svg>
