<?xml version="1.0" encoding="iso-8859-1"?>
<!-- Generator: Adobe Illustrator 19.0.0, SVG Export Plug-In . SVG Version: 6.00 Build 0)  -->
<svg xmlns="http://www.w3.org/2000/svg" xmlns:xlink="http://www.w3.org/1999/xlink" version="1.1" id="Capa_1" x="0px" y="0px" viewBox="0 0 503.607 503.607" style="enable-background:new 0 0 503.607 503.607;" xml:space="preserve">
<g>
	<g>
		<g>
			<path d="M92.328,293.77c-13.883,0-25.18,11.298-25.18,25.18v8.393h50.361v-8.393C117.508,305.068,106.211,293.77,92.328,293.77z"/>
			<path d="M495.213,33.574H260.197V8.393c0-4.633-3.752-8.393-8.393-8.393c-4.642,0-8.393,3.76-8.393,8.393v25.18H8.393     C3.752,33.574,0,37.334,0,41.967v335.738c0,4.633,3.752,8.393,8.393,8.393h223.148L128.361,489.279     c-3.282,3.282-3.282,8.586,0,11.868c1.637,1.637,3.785,2.459,5.934,2.459s4.297-0.823,5.934-2.459L243.41,397.967v80.459     c0,4.633,3.752,8.393,8.393,8.393c4.642,0,8.393-3.76,8.393-8.393v-80.459l103.181,103.181c1.637,1.637,3.785,2.459,5.934,2.459     c2.149,0,4.297-0.823,5.934-2.459c3.282-3.282,3.282-8.586,0-11.868L272.065,386.098h223.148c4.642,0,8.393-3.76,8.393-8.393     V41.967C503.607,37.334,499.855,33.574,495.213,33.574z M444.852,226.623c0,18.516-15.058,33.574-33.574,33.574     s-33.574-15.058-33.574-33.574s15.058-33.574,33.574-33.574S444.852,208.107,444.852,226.623z M83.934,125.902     c0-4.633,3.752-8.393,8.393-8.393H243.41V75.541c0-4.633,3.752-8.393,8.393-8.393c4.642,0,8.393,3.76,8.393,8.393v41.967h151.082     c4.642,0,8.393,3.76,8.393,8.393v41.967c0,4.633-3.752,8.393-8.393,8.393c-4.642,0-8.393-3.76-8.393-8.393v-33.574H260.197     v33.574c0,4.633-3.752,8.393-8.393,8.393c-4.642,0-8.393-3.76-8.393-8.393v-33.574H100.721v33.574     c0,4.633-3.752,8.393-8.393,8.393c-4.642,0-8.393-3.76-8.393-8.393V125.902z M285.377,226.623     c0,18.516-15.058,33.574-33.574,33.574s-33.574-15.058-33.574-33.574s15.058-33.574,33.574-33.574     S285.377,208.107,285.377,226.623z M92.328,193.049c18.516,0,33.574,15.058,33.574,33.574s-15.058,33.574-33.574,33.574     s-33.574-15.058-33.574-33.574S73.812,193.049,92.328,193.049z M134.295,335.738c0,4.633-3.752,8.393-8.393,8.393H58.754     c-4.642,0-8.393-3.76-8.393-8.393v-16.787c0-23.141,18.827-41.967,41.967-41.967c23.141,0,41.967,18.826,41.967,41.967V335.738z      M293.77,335.738c0,4.633-3.752,8.393-8.393,8.393h-67.148c-4.642,0-8.393-3.76-8.393-8.393v-16.787     c0-23.141,18.827-41.967,41.967-41.967c23.141,0,41.967,18.826,41.967,41.967V335.738z M453.246,335.738     c0,4.633-3.752,8.393-8.393,8.393h-67.148c-4.642,0-8.393-3.76-8.393-8.393v-16.787c0-23.141,18.826-41.967,41.967-41.967     c23.141,0,41.967,18.826,41.967,41.967V335.738z"/>
			<path d="M92.328,243.41c9.258,0,16.787-7.529,16.787-16.787s-7.529-16.787-16.787-16.787c-9.258,0-16.787,7.529-16.787,16.787     S83.07,243.41,92.328,243.41z"/>
			<path d="M394.492,226.623c0,9.258,7.529,16.787,16.787,16.787s16.787-7.529,16.787-16.787s-7.529-16.787-16.787-16.787     S394.492,217.365,394.492,226.623z"/>
			<path d="M235.016,226.623c0,9.258,7.529,16.787,16.787,16.787c9.258,0,16.787-7.529,16.787-16.787s-7.529-16.787-16.787-16.787     C242.545,209.836,235.016,217.365,235.016,226.623z"/>
			<path d="M251.803,293.77c-13.883,0-25.18,11.298-25.18,25.18v8.393h50.361v-8.393C276.984,305.068,265.686,293.77,251.803,293.77     z"/>
			<path d="M411.279,293.77c-13.883,0-25.18,11.298-25.18,25.18v8.393h50.361v-8.393C436.459,305.068,425.161,293.77,411.279,293.77     z"/>
		</g>
	</g>
</g>
<g>
</g>
<g>
</g>
<g>
</g>
<g>
</g>
<g>
</g>
<g>
</g>
<g>
</g>
<g>
</g>
<g>
</g>
<g>
</g>
<g>
</g>
<g>
</g>
<g>
</g>
<g>
</g>
<g>
</g>
</svg>
