<?xml version="1.0" encoding="iso-8859-1"?>
<!-- Generator: Adobe Illustrator 19.0.0, SVG Export Plug-In . SVG Version: 6.00 Build 0)  -->
<svg xmlns="http://www.w3.org/2000/svg" xmlns:xlink="http://www.w3.org/1999/xlink" version="1.1" id="Capa_1" x="0px" y="0px" viewBox="0 0 512 512" style="enable-background:new 0 0 512 512;" xml:space="preserve">
<g>
	<g>
		<g>
			<path d="M460.8,59.733c4.719,0,8.533-3.823,8.533-8.533V8.533c0-4.71-3.814-8.533-8.533-8.533H51.2     c-4.719,0-8.533,3.823-8.533,8.533V51.2c0,4.71,3.814,8.533,8.533,8.533h8.533v187.733H51.2c-4.719,0-8.533,3.823-8.533,8.533     v42.667c0,4.71,3.814,8.533,8.533,8.533h8.533v196.267c0,4.71,3.814,8.533,8.533,8.533h375.467c4.719,0,8.533-3.823,8.533-8.533     V307.2h8.533c4.719,0,8.533-3.823,8.533-8.533V256c0-4.71-3.814-8.533-8.533-8.533h-8.533V59.733H460.8z M349.867,452.267     c0,4.71-3.814,8.533-8.533,8.533H170.667c-4.719,0-8.533-3.823-8.533-8.533v-102.4c0-4.71,3.814-8.533,8.533-8.533h170.667     c4.719,0,8.533,3.823,8.533,8.533V452.267z M452.267,290.133h-8.533H68.267h-8.533v-25.6h8.533h375.467h8.533V290.133z      M162.133,204.8V102.4c0-4.71,3.814-8.533,8.533-8.533h170.667c4.719,0,8.533,3.823,8.533,8.533v102.4     c0,4.71-3.814,8.533-8.533,8.533H170.667C165.948,213.333,162.133,209.51,162.133,204.8z M443.733,42.667H68.267h-8.533v-25.6     h392.533v25.6H443.733z"/>
			<path d="M179.2,443.733h153.6V358.4H179.2V443.733z M298.667,426.667H281.6c-4.719,0-8.533-3.823-8.533-8.533     s3.814-8.533,8.533-8.533h17.067c4.719,0,8.533,3.823,8.533,8.533S303.386,426.667,298.667,426.667z M264.533,375.467h34.133     c4.719,0,8.533,3.823,8.533,8.533c0,4.71-3.814,8.533-8.533,8.533h-34.133c-4.719,0-8.533-3.823-8.533-8.533     C256,379.29,259.814,375.467,264.533,375.467z M213.333,375.467H230.4c4.719,0,8.533,3.823,8.533,8.533     c0,4.71-3.814,8.533-8.533,8.533h-17.067c-4.719,0-8.533-3.823-8.533-8.533C204.8,379.29,208.614,375.467,213.333,375.467z      M213.333,409.6H256c4.719,0,8.533,3.823,8.533,8.533s-3.814,8.533-8.533,8.533h-42.667c-4.719,0-8.533-3.823-8.533-8.533     S208.614,409.6,213.333,409.6z"/>
			<path d="M332.8,110.933H179.2v85.333h153.6V110.933z M213.333,128H230.4c4.719,0,8.533,3.823,8.533,8.533     s-3.814,8.533-8.533,8.533h-17.067c-4.719,0-8.533-3.823-8.533-8.533S208.614,128,213.333,128z M256,179.2h-42.667     c-4.719,0-8.533-3.823-8.533-8.533s3.814-8.533,8.533-8.533H256c4.719,0,8.533,3.823,8.533,8.533S260.719,179.2,256,179.2z      M298.667,179.2H281.6c-4.719,0-8.533-3.823-8.533-8.533s3.814-8.533,8.533-8.533h17.067c4.719,0,8.533,3.823,8.533,8.533     S303.386,179.2,298.667,179.2z M298.667,145.067h-34.133c-4.719,0-8.533-3.823-8.533-8.533s3.814-8.533,8.533-8.533h34.133     c4.719,0,8.533,3.823,8.533,8.533S303.386,145.067,298.667,145.067z"/>
		</g>
	</g>
</g>
<g>
</g>
<g>
</g>
<g>
</g>
<g>
</g>
<g>
</g>
<g>
</g>
<g>
</g>
<g>
</g>
<g>
</g>
<g>
</g>
<g>
</g>
<g>
</g>
<g>
</g>
<g>
</g>
<g>
</g>
</svg>
