<?xml version="1.0" encoding="iso-8859-1"?>
<!-- Generator: Adobe Illustrator 19.0.0, SVG Export Plug-In . SVG Version: 6.00 Build 0)  -->
<svg xmlns="http://www.w3.org/2000/svg" xmlns:xlink="http://www.w3.org/1999/xlink" version="1.1" id="Capa_1" x="0px" y="0px" viewBox="0 0 503.612 503.612" style="enable-background:new 0 0 503.612 503.612;" xml:space="preserve">
<g>
	<g>
		<g>
			<path d="M25.185,184.66c4.633,0,8.393-3.76,8.393-8.393v-33.742c0-27.673,22.52-50.193,50.193-50.193h21.873l-10.853,10.853     c-3.282,3.282-3.282,8.587,0,11.868c1.637,1.637,3.785,2.459,5.934,2.459c2.149,0,4.297-0.823,5.934-2.459l25.18-25.172     c0.772-0.781,1.385-1.712,1.813-2.736c0.848-2.048,0.848-4.365,0-6.413c-0.428-1.024-1.041-1.956-1.813-2.736l-25.18-25.172     c-3.282-3.282-8.586-3.282-11.868,0c-3.282,3.282-3.282,8.586,0,11.868l10.853,10.853H83.771c-36.931,0-66.98,30.049-66.98,66.98     v33.742C16.791,180.9,20.551,184.66,25.185,184.66z"/>
			<path d="M371.776,89.875l25.18,25.18c1.637,1.637,3.785,2.459,5.934,2.459s4.297-0.823,5.934-2.459     c3.282-3.282,3.282-8.595,0-11.868l-10.853-10.853h21.865c27.682,0,50.201,22.511,50.201,50.193v33.742     c0,4.633,3.752,8.393,8.393,8.393c4.642,0,8.393-3.76,8.393-8.393v-33.742c0-36.931-30.049-66.98-66.988-66.98h-21.865     l10.853-10.853c3.282-3.282,3.282-8.595,0-11.868c-3.282-3.282-8.595-3.282-11.868,0l-25.18,25.172     c-0.772,0.772-1.385,1.704-1.813,2.728c-0.848,2.056-0.848,4.365,0,6.421C370.391,88.171,371.004,89.103,371.776,89.875z"/>
			<path d="M0.004,436.463h201.443V285.381H0.004V436.463z M100.725,302.168c32.399,0,58.754,26.355,58.754,58.754     c0,32.399-26.355,58.754-58.754,58.754s-58.754-26.355-58.754-58.754C41.971,328.524,68.327,302.168,100.725,302.168z"/>
			<path d="M100.725,402.889c23.141,0,41.967-18.826,41.967-41.967c0-23.141-18.826-41.967-41.967-41.967     c-23.141,0-41.967,18.827-41.967,41.967C58.757,384.063,77.584,402.889,100.725,402.889z M78.004,350.069     c-2.401-2.401-3.122-6.01-1.821-9.149c1.301-3.131,4.365-5.179,7.756-5.179h33.574c4.633,0,8.393,3.76,8.393,8.393     s-3.76,8.393-8.393,8.393H104.2l19.246,19.246c2.401,2.401,3.122,6.01,1.821,9.149c-1.301,3.131-4.365,5.179-7.756,5.179H83.938     c-4.633,0-8.393-3.76-8.393-8.393s3.76-8.393,8.393-8.393H97.25L78.004,350.069z"/>
			<path d="M0.004,470.361c0,18.34,14.915,33.246,33.246,33.246H168.2c18.331,0,33.246-14.907,33.246-33.246v-17.114H0.004V470.361z     "/>
			<path d="M201.443,243.087c0-18.331-14.907-33.246-33.246-33.246H33.255C14.915,209.84,0,224.755,0,243.087v25.508h201.443     V243.087z"/>
			<path d="M302.168,436.463h201.443V285.381H302.168V436.463z M402.889,302.168c32.39,0,58.754,26.355,58.754,58.754     c0,32.399-26.364,58.754-58.754,58.754c-32.399,0-58.754-26.355-58.754-58.754C344.135,328.524,370.491,302.168,402.889,302.168z     "/>
			<path d="M302.168,470.361c0,18.34,14.915,33.246,33.246,33.246h134.941c18.34,0,33.255-14.907,33.255-33.246v-17.114H302.168     V470.361z"/>
			<path d="M402.889,402.889c23.141,0,41.967-18.826,41.967-41.967c0-23.141-18.826-41.967-41.967-41.967     c-23.141,0-41.967,18.827-41.967,41.967C360.922,384.063,379.749,402.889,402.889,402.889z M402.889,335.742h8.393     c4.642,0,8.393,3.76,8.393,8.393s-3.752,8.393-8.393,8.393h-8.393c-4.633,0-8.393,3.769-8.393,8.393     c0,4.625,3.76,8.393,8.393,8.393h8.393c4.642,0,8.393,3.76,8.393,8.393s-3.752,8.393-8.393,8.393h-8.393     c-13.883,0-25.18-11.298-25.18-25.18C377.709,347.039,389.007,335.742,402.889,335.742z"/>
			<path d="M470.357,209.84H335.415c-18.331,0-33.246,14.915-33.246,33.246v25.508h201.443v-25.508     C503.612,224.755,488.696,209.84,470.357,209.84z"/>
			<path d="M344.135,92.332c0-50.906-41.422-92.328-92.328-92.328S159.48,41.426,159.48,92.332     c0,50.906,41.422,92.328,92.328,92.328S344.135,143.238,344.135,92.332z M251.807,83.939c18.516,0,33.574,15.058,33.574,33.574     s-15.058,33.574-33.574,33.574s-33.574-15.058-33.574-33.574c0-4.633,3.76-8.393,8.393-8.393s8.393,3.76,8.393,8.393     c0,9.258,7.529,16.787,16.787,16.787c9.258,0,16.787-7.529,16.787-16.787c0-9.258-7.529-16.787-16.787-16.787     c-18.516,0-33.574-15.058-33.574-33.574s15.058-33.574,33.574-33.574s33.574,15.058,33.574,33.574     c0,4.633-3.76,8.393-8.393,8.393s-8.393-3.76-8.393-8.393c0-9.258-7.529-16.787-16.787-16.787     c-9.258,0-16.787,7.529-16.787,16.787S242.55,83.939,251.807,83.939z"/>
		</g>
	</g>
</g>
<g>
</g>
<g>
</g>
<g>
</g>
<g>
</g>
<g>
</g>
<g>
</g>
<g>
</g>
<g>
</g>
<g>
</g>
<g>
</g>
<g>
</g>
<g>
</g>
<g>
</g>
<g>
</g>
<g>
</g>
</svg>
