<?xml version="1.0" encoding="iso-8859-1"?>
<!-- Generator: Adobe Illustrator 19.0.0, SVG Export Plug-In . SVG Version: 6.00 Build 0)  -->
<svg xmlns="http://www.w3.org/2000/svg" xmlns:xlink="http://www.w3.org/1999/xlink" version="1.1" id="Capa_1" x="0px" y="0px" viewBox="0 0 512 512" style="enable-background:new 0 0 512 512;" xml:space="preserve">
<g>
	<g>
		<g>
			<path d="M132.267,443.733h76.8V384v-68.267V256h-76.8V443.733z M157.867,273.067h25.6c4.71,0,8.533,3.823,8.533,8.533     c0,4.71-3.823,8.533-8.533,8.533h-25.6c-4.71,0-8.533-3.823-8.533-8.533C149.333,276.89,153.156,273.067,157.867,273.067z      M157.867,341.333h25.6c4.71,0,8.533,3.823,8.533,8.533c0,4.71-3.823,8.533-8.533,8.533h-25.6c-4.71,0-8.533-3.823-8.533-8.533     C149.333,345.156,153.156,341.333,157.867,341.333z M157.867,409.6h25.6c4.71,0,8.533,3.823,8.533,8.533     s-3.823,8.533-8.533,8.533h-25.6c-4.71,0-8.533-3.823-8.533-8.533S153.156,409.6,157.867,409.6z"/>
			<path d="M226.133,375.467h153.6v-51.2h-153.6V375.467z M328.533,341.333h25.6c4.71,0,8.533,3.823,8.533,8.533     c0,4.71-3.823,8.533-8.533,8.533h-25.6c-4.71,0-8.533-3.823-8.533-8.533C320,345.156,323.823,341.333,328.533,341.333z      M260.267,341.333h25.6c4.71,0,8.533,3.823,8.533,8.533c0,4.71-3.823,8.533-8.533,8.533h-25.6c-4.71,0-8.533-3.823-8.533-8.533     C251.733,345.156,255.556,341.333,260.267,341.333z"/>
			<path d="M226.133,307.2h153.6V256h-153.6V307.2z M328.533,273.067h25.6c4.71,0,8.533,3.823,8.533,8.533     c0,4.71-3.823,8.533-8.533,8.533h-25.6c-4.71,0-8.533-3.823-8.533-8.533C320,276.89,323.823,273.067,328.533,273.067z      M260.267,273.067h25.6c4.71,0,8.533,3.823,8.533,8.533c0,4.71-3.823,8.533-8.533,8.533h-25.6c-4.71,0-8.533-3.823-8.533-8.533     C251.733,276.89,255.556,273.067,260.267,273.067z"/>
			<rect x="132.27" y="187.732" width="76.8" height="51.2"/>
			<rect x="226.137" y="187.732" width="153.6" height="51.2"/>
			<polygon points="345.6,5 345.6,102.399 442.999,102.399    "/>
			<path d="M337.067,119.467c-4.71,0-8.533-3.823-8.533-8.533V0h-256C67.823,0,64,3.823,64,8.533v494.933     c0,4.71,3.823,8.533,8.533,8.533h366.933c4.71,0,8.533-3.823,8.533-8.533v-384H337.067z M174.933,68.267h85.333     c4.71,0,8.533,3.823,8.533,8.533s-3.823,8.533-8.533,8.533h-85.333c-4.71,0-8.533-3.823-8.533-8.533     S170.223,68.267,174.933,68.267z M268.8,110.933c0,4.71-3.823,8.533-8.533,8.533H243.2c-4.71,0-8.533-3.823-8.533-8.533     s3.823-8.533,8.533-8.533h17.067C264.977,102.4,268.8,106.223,268.8,110.933z M123.733,68.267H140.8     c4.71,0,8.533,3.823,8.533,8.533s-3.823,8.533-8.533,8.533h-17.067c-4.71,0-8.533-3.823-8.533-8.533     S119.023,68.267,123.733,68.267z M123.733,102.4h85.333c4.71,0,8.533,3.823,8.533,8.533s-3.823,8.533-8.533,8.533h-85.333     c-4.71,0-8.533-3.823-8.533-8.533S119.023,102.4,123.733,102.4z M396.8,247.467v68.267V384v68.267     c0,4.71-3.823,8.533-8.533,8.533H217.6h-93.867c-4.71,0-8.533-3.823-8.533-8.533v-204.8V179.2c0-4.71,3.823-8.533,8.533-8.533     H217.6h170.667c4.71,0,8.533,3.823,8.533,8.533V247.467z"/>
			<path d="M226.133,443.733h153.6v-51.2h-153.6V443.733z M328.533,409.6h25.6c4.71,0,8.533,3.823,8.533,8.533     s-3.823,8.533-8.533,8.533h-25.6c-4.71,0-8.533-3.823-8.533-8.533S323.823,409.6,328.533,409.6z M260.267,409.6h25.6     c4.71,0,8.533,3.823,8.533,8.533s-3.823,8.533-8.533,8.533h-25.6c-4.71,0-8.533-3.823-8.533-8.533S255.556,409.6,260.267,409.6z"/>
		</g>
	</g>
</g>
<g>
</g>
<g>
</g>
<g>
</g>
<g>
</g>
<g>
</g>
<g>
</g>
<g>
</g>
<g>
</g>
<g>
</g>
<g>
</g>
<g>
</g>
<g>
</g>
<g>
</g>
<g>
</g>
<g>
</g>
</svg>
