<?xml version="1.0" encoding="iso-8859-1"?>
<!-- Generator: Adobe Illustrator 19.0.0, SVG Export Plug-In . SVG Version: 6.00 Build 0)  -->
<svg xmlns="http://www.w3.org/2000/svg" xmlns:xlink="http://www.w3.org/1999/xlink" version="1.1" id="Capa_1" x="0px" y="0px" viewBox="0 0 503.607 503.607" style="enable-background:new 0 0 503.607 503.607;" xml:space="preserve">
<g>
	<g>
		<g>
			<path d="M500.937,220.448l-39.298-36.579v-66.3c0-4.633-3.752-8.393-8.393-8.393h-71.831L273.148,8.379     c-11.969-11.146-30.72-11.138-42.689,0L122.192,109.176H50.361c-4.642,0-8.393,3.76-8.393,8.393v66.3L2.669,220.448     C0.965,222.034,0,224.259,0,226.592v0.881v266.634v1.083c0,4.633,3.752,8.393,8.393,8.393h1.083h481.884h2.77h1.083     c4.642,0,8.393-3.76,8.393-8.393v-1.083V227.473v-0.881C503.607,224.259,502.641,222.034,500.937,220.448z M461.639,206.8     l19.38,18.046l-19.38,10.685V206.8z M241.899,20.667c5.556-5.17,14.252-5.17,19.809,0l95.073,88.509H146.826L241.899,20.667z      M75.541,209.897c0-2.359,0.99-4.608,2.736-6.203c1.737-1.595,4.02-2.392,6.429-2.149c0.537,0.034,1.15,0.008,1.754-0.008     l1.67-0.034c20.824,0,37.771-16.938,37.771-37.77c0-1.15-0.067-2.283-0.176-3.408c-0.227-2.35,0.562-4.692,2.149-6.438     c1.595-1.746,3.844-2.745,6.211-2.745h57.503c17.643-10.584,38.19-16.787,60.215-16.787c22.024,0,42.572,6.203,60.215,16.787     h57.504c2.367,0,4.616,0.999,6.211,2.745c1.586,1.746,2.375,4.088,2.149,6.438c-0.109,1.125-0.176,2.258-0.176,3.408     c0,20.833,16.946,37.77,37.77,37.77l1.67,0.034c0.604,0.017,1.209,0.042,1.754,0.008c2.417-0.252,4.692,0.554,6.429,2.149     c1.746,1.595,2.736,3.844,2.736,6.203v44.141l-16.787,9.258v-45.165c-26.75-2.048-48.153-23.451-50.201-50.201H333.95     c0.134,0.126,0.227,0.26,0.361,0.386c1.452,1.427,2.787,2.971,4.155,4.474c1.293,1.41,2.636,2.77,3.853,4.239     c0.52,0.613,0.957,1.284,1.46,1.914c13.69,17.173,22.385,37.871,24.794,60.089c0.034,0.294,0.101,0.562,0.134,0.848     c0.403,3.953,0.604,7.957,0.604,11.986c0,3.022-0.143,6.026-0.378,9.015c-0.084,1.108-0.227,2.191-0.344,3.282     c-0.193,1.863-0.411,3.718-0.697,5.573c-0.21,1.351-0.47,2.694-0.722,4.037c-0.294,1.544-0.613,3.08-0.965,4.6     c-0.353,1.486-0.713,2.954-1.125,4.423c-0.369,1.343-0.772,2.669-1.192,3.995c-0.327,1.049-0.579,2.115-0.94,3.156l-24.92,13.732     c0.101-0.168,0.21-0.344,0.311-0.52c11.188-18.826,16.023-41.237,13.471-63.001c-2.543-21.655-12.372-42.294-27.472-58.007     c-5.54-5.708-11.759-10.853-18.675-15.242c-15.595-9.929-34.044-15.763-53.861-15.763c-19.817,0-38.266,5.833-53.861,15.763     c-25.189,15.998-42.437,43.151-46.063,72.788c-2.711,22.05,2.174,44.964,13.639,63.992c-1.905-3.148-11.407-6.32-14.638-8.108     c-3.416-1.88-6.815-3.752-10.223-5.632c-0.361-1.041-0.613-2.107-0.94-3.156c-0.42-1.326-0.823-2.652-1.192-3.995     c-0.411-1.469-0.772-2.938-1.125-4.423c-0.353-1.519-0.672-3.055-0.965-4.6c-0.252-1.343-0.512-2.686-0.722-4.037     c-0.285-1.855-0.504-3.71-0.697-5.573c-0.118-1.091-0.26-2.174-0.344-3.282c-0.235-2.988-0.378-5.993-0.378-9.015     c0-4.029,0.201-8.032,0.604-11.986c0.034-0.285,0.101-0.554,0.134-0.848c2.409-22.217,11.104-42.916,24.794-60.089     c0.504-0.63,0.94-1.301,1.461-1.914c1.217-1.469,2.56-2.829,3.853-4.239c1.368-1.502,2.703-3.047,4.155-4.474     c0.134-0.126,0.227-0.26,0.361-0.386h-27.128c-2.048,26.75-23.451,48.153-50.201,50.201v45.165l-16.787-9.258V209.897z      M290.648,300.463l20.077,18.272l-15.528,8.561l-15.847-14.412c-8.184-7.445-12.036-17.802-10.29-27.707     c0.235-1.435,0.613-2.896,1.1-4.339c0.932-2.812,3.156-5.305,8.553-11.155c2.157-2.35,5.666-6.161,6.782-7.772     c0.764-2.199,2.443-4.012,4.633-4.944c6.06-2.56,7.269-5.481,7.646-7.462c1.889-9.829-11.516-26.909-18.298-33.641     c-23.376-20.253-51.242-12.632-61.616-8.687c0.646,5.783,3.962,15.293,6.471,17.316c2.652,0.94,4.281,2.963,4.969,5.691     c0.68,2.719-0.403,5.431-2.3,7.512c-5.657,6.211-8.771,14.219-8.771,22.562c0,5.044,3.466,8.377,8.377,12.531     c2.913,2.468,5.666,4.801,6.866,8.293c0.982,2.845,1.494,5.825,1.544,8.855c0.134,8.209-3.693,16.468-10.492,22.662     l-16.124,14.697l-15.528-8.57l20.337-18.533c3.24-2.954,5.078-6.597,5.019-9.988c-0.017-0.957-0.143-1.897-0.369-2.795     c-0.554-0.546-1.301-1.133-2.115-1.813c-5.002-4.247-14.302-12.129-14.302-25.34c0-9.812,2.862-19.313,8.184-27.447     c-6.849-9.854-9.963-26.431-7.848-33.666c0.646-2.199,2.166-4.046,4.205-5.095c1.897-0.974,46.76-23.569,84.891,9.51     c3.181,3.114,27.463,27.824,23.384,49.093c-1.074,5.624-4.541,13.161-14.705,18.424c-1.62,2.417-4.281,5.397-8.494,9.971     c-1.721,1.872-4.222,4.591-5.212,5.859c-0.101,0.378-0.193,0.755-0.26,1.133C284.857,292.229,286.796,296.971,290.648,300.463z      M41.967,206.8v28.731l-19.38-10.685L41.967,206.8z M16.787,486.797V240.81l336.241,185.403l109.87,60.584H16.787z      M486.82,480.813l-34.774-19.171l-182.859-100.83L486.82,240.81V480.813z"/>
			<path d="M167.869,377.681H50.361c-4.642,0-8.393,3.76-8.393,8.393v67.148c0,4.633,3.752,8.393,8.393,8.393h117.508     c4.642,0,8.393-3.76,8.393-8.393v-67.148C176.262,381.442,172.51,377.681,167.869,377.681z"/>
		</g>
	</g>
</g>
<g>
</g>
<g>
</g>
<g>
</g>
<g>
</g>
<g>
</g>
<g>
</g>
<g>
</g>
<g>
</g>
<g>
</g>
<g>
</g>
<g>
</g>
<g>
</g>
<g>
</g>
<g>
</g>
<g>
</g>
</svg>
