<?xml version="1.0" encoding="iso-8859-1"?>
<!-- Generator: Adobe Illustrator 19.0.0, SVG Export Plug-In . SVG Version: 6.00 Build 0)  -->
<svg xmlns="http://www.w3.org/2000/svg" xmlns:xlink="http://www.w3.org/1999/xlink" version="1.1" id="Capa_1" x="0px" y="0px" viewBox="0 0 512 512" style="enable-background:new 0 0 512 512;" xml:space="preserve">
<g>
	<g>
		<g>
			<path d="M390.348,203.495c-8.09-20.599-5.103-43.546,7.987-61.397l3.917-5.342l-21.862-21.862l-4.873,3.294     c-18.313,12.407-41.353,14.549-61.645,5.692c-20.284-8.858-34.406-27.187-37.769-49.067l-1.007-6.545h-38.195l-1.007,6.554     c-3.362,21.871-17.485,40.201-37.769,49.058c-20.292,8.849-43.332,6.707-61.653-5.692l-4.864-3.294l-21.862,21.862l3.917,5.342     c13.09,17.852,16.077,40.798,7.987,61.397c-8.081,20.599-25.882,35.396-47.616,39.569l-5.769,1.109v30.925l6.554,1.007     c21.871,3.362,40.209,17.485,49.058,37.769c8.849,20.284,6.724,43.332-5.692,61.653l-3.294,4.864l21.871,21.871     c18.082-12.732,40.96-15.283,61.466-6.793c20.497,8.491,34.876,26.479,38.656,48.265h38.229     c3.78-21.786,18.159-39.765,38.656-48.265c20.506-8.482,43.375-5.939,61.466,6.793l21.871-21.871l-3.294-4.873     c-12.416-18.313-14.541-41.361-5.692-61.645c8.849-20.284,27.187-34.406,49.058-37.769l6.554-1.007v-30.925l-5.769-1.109     C416.23,238.892,398.429,224.095,390.348,203.495z M179.199,238.934c-4.71,0-8.533-3.823-8.533-8.533     c0-23.526,19.14-42.667,42.667-42.667h81.801l-11.034-11.034c-3.337-3.336-3.337-8.73,0-12.066s8.73-3.337,12.066,0l25.6,25.591     c0.785,0.794,1.408,1.741,1.843,2.782c0.862,2.082,0.862,4.437,0,6.519c-0.435,1.041-1.058,1.988-1.843,2.782l-25.6,25.591     c-1.664,1.664-3.849,2.5-6.033,2.5s-4.369-0.836-6.033-2.5c-3.337-3.336-3.337-8.73,0-12.066l11.034-11.034h-81.801     c-14.114,0-25.6,11.486-25.6,25.6C187.732,235.111,183.91,238.934,179.199,238.934z M298.666,324.268h-81.801l11.034,11.034     c3.336,3.337,3.336,8.73,0,12.066c-1.664,1.664-3.849,2.5-6.033,2.5c-2.185,0-4.369-0.836-6.033-2.5l-25.6-25.591     c-0.785-0.794-1.408-1.741-1.843-2.782c-0.862-2.082-0.862-4.437,0-6.519c0.435-1.041,1.058-1.988,1.843-2.782l25.6-25.591     c3.337-3.337,8.73-3.337,12.066,0c3.336,3.337,3.336,8.73,0,12.066l-11.034,11.034h81.801c14.114,0,25.6-11.486,25.6-25.6     c0-4.71,3.823-8.533,8.533-8.533c4.71,0,8.533,3.823,8.533,8.533C341.333,305.127,322.192,324.268,298.666,324.268z"/>
			<path d="M256,0C114.842,0,0,114.842,0,256s114.842,256,256,256s256-114.842,256-256S397.158,0,256,0z M447.599,291.772     l-7.825,1.203c-16.051,2.475-29.517,12.834-36.011,27.725c-6.494,14.891-4.932,31.804,4.181,45.252l3.985,5.888     c4.181,6.17,3.388,14.473-1.877,19.738l-23.654,23.654c-5.47,5.47-13.986,6.11-20.215,1.545     c-13.397-9.822-30.541-11.904-45.875-5.538c-15.343,6.357-26.01,19.951-28.536,36.361c-1.178,7.654-7.654,13.201-15.386,13.201     h-40.772c-7.74,0-14.208-5.547-15.386-13.201c-2.526-16.41-13.193-30.003-28.535-36.361c-15.334-6.366-32.486-4.284-45.875,5.538     c-6.246,4.582-14.737,3.925-20.215-1.545l-23.654-23.654c-5.274-5.265-6.059-13.568-1.877-19.738l3.985-5.888     c9.114-13.449,10.675-30.362,4.181-45.252c-6.494-14.891-19.959-25.25-36.011-27.725l-7.825-1.203     c-7.654-1.178-13.201-7.646-13.201-15.386v-33.451c0-7.45,5.308-13.875,12.629-15.283l6.989-1.34     c15.949-3.072,29.013-13.935,34.944-29.056c5.939-15.121,3.746-31.966-5.862-45.065l-4.676-6.374     c-4.574-6.246-3.917-14.746,1.544-20.216l23.654-23.654c5.265-5.274,13.568-6.076,19.746-1.869l5.88,3.977     c13.457,9.114,30.37,10.675,45.252,4.181c14.891-6.502,25.25-19.959,27.725-36.019l1.203-7.825     c1.178-7.646,7.646-13.193,15.386-13.193h40.772c7.731,0,14.208,5.547,15.386,13.193l1.203,7.825     c2.466,16.06,12.834,29.517,27.716,36.019c14.891,6.485,31.812,4.932,45.261-4.181l5.888-3.985     c6.17-4.181,14.473-3.388,19.746,1.886l23.646,23.637c5.461,5.478,6.11,13.978,1.544,20.215l-4.685,6.383     c-9.6,13.099-11.793,29.943-5.862,45.065c5.939,15.121,19.004,25.984,34.961,29.056l6.972,1.34     c7.322,1.408,12.638,7.834,12.638,15.283v33.451C460.8,284.126,455.245,290.594,447.599,291.772z"/>
		</g>
	</g>
</g>
<g>
</g>
<g>
</g>
<g>
</g>
<g>
</g>
<g>
</g>
<g>
</g>
<g>
</g>
<g>
</g>
<g>
</g>
<g>
</g>
<g>
</g>
<g>
</g>
<g>
</g>
<g>
</g>
<g>
</g>
</svg>
