<?xml version="1.0" encoding="iso-8859-1"?>
<!-- Generator: Adobe Illustrator 19.0.0, SVG Export Plug-In . SVG Version: 6.00 Build 0)  -->
<svg xmlns="http://www.w3.org/2000/svg" xmlns:xlink="http://www.w3.org/1999/xlink" version="1.1" id="Capa_1" x="0px" y="0px" viewBox="0 0 503.607 503.607" style="enable-background:new 0 0 503.607 503.607;" xml:space="preserve">
<g>
	<g>
		<g>
			<path d="M268.59,394.492h16.787c4.633,0,8.393-3.76,8.393-8.393s-3.76-8.393-8.393-8.393H268.59c-4.633,0-8.393,3.76-8.393,8.393     S263.957,394.492,268.59,394.492z"/>
			<path d="M402.885,411.279h-16.787c-4.633,0-8.393,3.76-8.393,8.393c0,4.633,3.76,8.393,8.393,8.393h16.787     c4.633,0,8.393-3.76,8.393-8.393C411.279,415.039,407.518,411.279,402.885,411.279z"/>
			<path d="M402.885,377.705h-83.934c-4.633,0-8.393,3.76-8.393,8.393s3.76,8.393,8.393,8.393h83.934     c4.633,0,8.393-3.76,8.393-8.393S407.518,377.705,402.885,377.705z"/>
			<path d="M352.525,411.279H268.59c-4.633,0-8.393,3.76-8.393,8.393c0,4.633,3.76,8.393,8.393,8.393h83.934     c4.633,0,8.393-3.76,8.393-8.393C360.918,415.039,357.158,411.279,352.525,411.279z"/>
			<path d="M268.59,327.344h16.787c4.633,0,8.393-3.76,8.393-8.393c0-4.633-3.76-8.393-8.393-8.393H268.59     c-4.633,0-8.393,3.76-8.393,8.393C260.197,323.584,263.957,327.344,268.59,327.344z"/>
			<path d="M402.885,344.131h-16.787c-4.633,0-8.393,3.76-8.393,8.393s3.76,8.393,8.393,8.393h16.787     c4.633,0,8.393-3.76,8.393-8.393S407.518,344.131,402.885,344.131z"/>
			<path d="M402.885,310.557h-83.934c-4.633,0-8.393,3.76-8.393,8.393c0,4.633,3.76,8.393,8.393,8.393h83.934     c4.633,0,8.393-3.76,8.393-8.393C411.279,314.318,407.518,310.557,402.885,310.557z"/>
			<path d="M268.59,360.918h83.934c4.633,0,8.393-3.76,8.393-8.393s-3.76-8.393-8.393-8.393H268.59c-4.633,0-8.393,3.76-8.393,8.393     S263.957,360.918,268.59,360.918z"/>
			<path d="M218.229,302.164H100.721c-4.633,0-8.393,3.76-8.393,8.393v75.298c9.434-8.083,18.86-16.166,28.294-24.249     c3.962-3.399,8.905-9.426,14.546-8.872c4.247,0.411,6.933,4.121,9.736,6.925l6.178,6.178l27.64-27.64     c3.282-3.282,8.586-3.282,11.868,0l36.033,36.033v-63.673C226.623,305.924,222.863,302.164,218.229,302.164z"/>
			<path d="M162.95,377.705l10.853,10.853c3.282,3.282,3.282,8.586,0,11.868c-1.637,1.637-3.785,2.459-5.934,2.459     c-2.149,0-4.297-0.823-5.934-2.459l-28.093-28.093l-41.514,35.588v20.144c0,4.633,3.76,8.393,8.393,8.393h117.508     c4.633,0,8.393-3.76,8.393-8.393v-30.099l-41.967-41.967L162.95,377.705z"/>
			<path d="M134.295,41.967c-9.258,0-16.787,7.529-16.787,16.787c0,9.258,7.529,16.787,16.787,16.787     c9.258,0,16.787-7.529,16.787-16.787C151.082,49.496,143.553,41.967,134.295,41.967z"/>
			<path d="M209.836,41.967c-9.258,0-16.787,7.529-16.787,16.787c0,9.258,7.529,16.787,16.787,16.787     c9.258,0,16.787-7.529,16.787-16.787C226.623,49.496,219.094,41.967,209.836,41.967z"/>
			<path d="M58.754,41.967c-9.258,0-16.787,7.529-16.787,16.787c0,9.258,7.529,16.787,16.787,16.787     c9.258,0,16.787-7.529,16.787-16.787C75.541,49.496,68.012,41.967,58.754,41.967z"/>
			<path d="M0,411.279c0,4.633,3.76,8.393,8.393,8.393h33.574v75.541c0,4.633,3.76,8.393,8.393,8.393h402.885     c4.633,0,8.393-3.76,8.393-8.393v-75.541h33.574c4.633,0,8.393-3.76,8.393-8.393v-293.77H0V411.279z M58.754,411.279V260.197     h386.098v151.082v75.541H58.754V411.279z"/>
			<path d="M495.213,0H8.393C3.76,0,0,3.76,0,8.393v92.328h503.607V8.393C503.607,3.76,499.846,0,495.213,0z M58.754,92.328     c-18.516,0-33.574-15.058-33.574-33.574S40.238,25.18,58.754,25.18c18.516,0,33.574,15.058,33.574,33.574     S77.27,92.328,58.754,92.328z M134.295,92.328c-18.516,0-33.574-15.058-33.574-33.574s15.058-33.574,33.574-33.574     s33.574,15.058,33.574,33.574S152.811,92.328,134.295,92.328z M209.836,92.328c-18.516,0-33.574-15.058-33.574-33.574     S191.32,25.18,209.836,25.18s33.574,15.058,33.574,33.574S228.352,92.328,209.836,92.328z"/>
		</g>
	</g>
</g>
<g>
</g>
<g>
</g>
<g>
</g>
<g>
</g>
<g>
</g>
<g>
</g>
<g>
</g>
<g>
</g>
<g>
</g>
<g>
</g>
<g>
</g>
<g>
</g>
<g>
</g>
<g>
</g>
<g>
</g>
</svg>
