<?xml version="1.0" encoding="iso-8859-1"?>
<!-- Generator: Adobe Illustrator 19.0.0, SVG Export Plug-In . SVG Version: 6.00 Build 0)  -->
<svg xmlns="http://www.w3.org/2000/svg" xmlns:xlink="http://www.w3.org/1999/xlink" version="1.1" id="Capa_1" x="0px" y="0px" viewBox="0 0 512 512" style="enable-background:new 0 0 512 512;" xml:space="preserve">
<g>
	<g>
		<g>
			<path d="M294.4,469.333c0,18.825-15.309,34.133-34.133,34.133s-34.133-15.309-34.133-34.133c0-10.24,4.625-19.336,11.793-25.6     H115.2v34.466c0,18.637,15.164,33.801,33.801,33.801h222.532c18.637,0,33.801-15.164,33.801-33.801v-34.466H282.607     C289.775,449.997,294.4,459.093,294.4,469.333z"/>
			<path d="M337.067,151.604l-72.405,43.443c-1.357,0.819-2.876,1.22-4.395,1.22s-3.038-0.401-4.395-1.22l-72.405-43.443v95.863     h153.6V151.604z"/>
			<polygon points="314.791,145.067 205.744,145.067 260.263,177.783    "/>
			<path d="M371.533,0H149.001C130.364,0,115.2,15.164,115.2,33.801V51.2h290.133V33.801C405.333,15.164,390.17,0,371.533,0z      M226.133,42.667H217.6c-4.71,0-8.533-3.823-8.533-8.533c0-4.71,3.823-8.533,8.533-8.533h8.533c4.71,0,8.533,3.823,8.533,8.533     C234.667,38.844,230.844,42.667,226.133,42.667z M294.4,42.667h-42.667c-4.71,0-8.533-3.823-8.533-8.533     c0-4.71,3.823-8.533,8.533-8.533H294.4c4.71,0,8.533,3.823,8.533,8.533C302.933,38.844,299.11,42.667,294.4,42.667z"/>
			<path d="M277.333,469.333c0-9.412-7.654-17.067-17.067-17.067c-9.412,0-17.067,7.654-17.067,17.067     c0,9.412,7.654,17.067,17.067,17.067C269.679,486.4,277.333,478.746,277.333,469.333z"/>
			<path d="M115.2,76.8c-4.71,0-8.533,3.823-8.533,8.533v8.533c0,4.71,3.823,8.533,8.533,8.533v8.533     c-4.71,0-8.533,3.823-8.533,8.533V128c0,4.71,3.823,8.533,8.533,8.533v8.533c-4.71,0-8.533,3.823-8.533,8.533v8.533     c0,4.71,3.823,8.533,8.533,8.533v256h290.133v-358.4H115.2V76.8z M345.6,349.867h-51.2c-4.71,0-8.533-3.823-8.533-8.533     c0-4.71,3.823-8.533,8.533-8.533h51.2c4.71,0,8.533,3.823,8.533,8.533C354.133,346.044,350.31,349.867,345.6,349.867z      M345.6,315.733H226.133c-4.71,0-8.533-3.823-8.533-8.533s3.823-8.533,8.533-8.533H345.6c4.71,0,8.533,3.823,8.533,8.533     S350.31,315.733,345.6,315.733z M166.4,248.687v-18.671v-25.122v-26.692v-23.373v-15.155c0-1.058,0-2.108,0.085-3.132     c0.171-2.065,0.691-4.019,2.253-5.7c3.362-3.627,8.969-2.842,13.5-2.842h15.13h20.992h24.661h26.121h25.361h22.426h17.263h9.899     c3.055,0,5.956,0.742,8.004,3.183c2.475,2.953,2.039,6.758,2.039,10.342v7.347v21.538v26.47v26.359v21.197v10.999V256     c0,4.71-3.823,8.533-8.533,8.533H174.933c-4.71,0-8.533-3.823-8.533-8.533V248.687z M174.933,298.667H192     c4.71,0,8.533,3.823,8.533,8.533s-3.823,8.533-8.533,8.533h-17.067c-4.71,0-8.533-3.823-8.533-8.533     S170.223,298.667,174.933,298.667z M174.933,332.8h85.333c4.71,0,8.533,3.823,8.533,8.533c0,4.71-3.823,8.533-8.533,8.533     h-85.333c-4.71,0-8.533-3.823-8.533-8.533C166.4,336.623,170.223,332.8,174.933,332.8z"/>
		</g>
	</g>
</g>
<g>
</g>
<g>
</g>
<g>
</g>
<g>
</g>
<g>
</g>
<g>
</g>
<g>
</g>
<g>
</g>
<g>
</g>
<g>
</g>
<g>
</g>
<g>
</g>
<g>
</g>
<g>
</g>
<g>
</g>
</svg>
