<?xml version="1.0" encoding="iso-8859-1"?>
<!-- Generator: Adobe Illustrator 19.0.0, SVG Export Plug-In . SVG Version: 6.00 Build 0)  -->
<svg xmlns="http://www.w3.org/2000/svg" xmlns:xlink="http://www.w3.org/1999/xlink" version="1.1" id="Layer_1" x="0px" y="0px" viewBox="0 0 512.065 512.065" style="enable-background:new 0 0 512.065 512.065;" xml:space="preserve">
<g>
	<g>
		<g>
			<path d="M476.854,90.234C476,64.028,464.643,40.032,444.862,22.65c-37.018-32.495-94.216-29.713-130.27,6.332     c-23.578,23.578-39.1,53.393-44.894,86.229l-9.242,52.403l-150.05,151.236c-14.592,14.592-27.068,31.121-37.069,49.135     l-11.52,20.727c-4.284,7.714-2.918,17.451,3.319,23.671c3.806,3.806,8.917,5.786,14.063,5.786c3.294,0,6.605-0.802,9.6-2.475     l20.736-11.511c18.022-10.01,34.551-22.485,49.135-37.06l0.026-0.026l150.05-151.236l52.361-9.242     c32.828-5.786,62.643-21.308,86.238-44.894l2.065-2.065C467.689,141.383,477.69,116.082,476.854,90.234z M437.345,147.595     l-2.065,2.065c-21.103,21.094-47.778,34.978-77.133,40.158l-50.662,8.943l-14.959-14.967l-14.959-14.959l8.934-50.654     c5.188-29.372,19.072-56.038,40.158-77.133c29.713-29.688,76.672-32.154,106.94-5.572c16.196,14.225,25.506,33.877,26.197,55.313     C460.487,112.242,452.517,132.423,437.345,147.595z"/>
			<path d="M73.844,439.224c-3.337-3.337-8.73-3.337-12.066,0l-17.067,17.067c-12.732,12.74-12.732,33.468,0,46.199     c6.17,6.17,14.379,9.574,23.1,9.574c8.721,0,16.93-3.405,23.1-9.574c12.732-12.732,12.732-33.459,0-46.199L73.844,439.224z"/>
		</g>
	</g>
</g>
<g>
</g>
<g>
</g>
<g>
</g>
<g>
</g>
<g>
</g>
<g>
</g>
<g>
</g>
<g>
</g>
<g>
</g>
<g>
</g>
<g>
</g>
<g>
</g>
<g>
</g>
<g>
</g>
<g>
</g>
</svg>
