<?xml version="1.0" encoding="iso-8859-1"?>
<!-- Generator: Adobe Illustrator 19.0.0, SVG Export Plug-In . SVG Version: 6.00 Build 0)  -->
<svg xmlns="http://www.w3.org/2000/svg" xmlns:xlink="http://www.w3.org/1999/xlink" version="1.1" id="Layer_1" x="0px" y="0px" viewBox="0 0 512 512" style="enable-background:new 0 0 512 512;" xml:space="preserve">
<g>
	<g>
		<path d="M469.333,43.435v-0.768c0-4.71-3.814-8.533-8.533-8.533h-34.133c-4.719,0-8.533,3.823-8.533,8.533v8.738l-119.467,2.867    V51.2c0-4.71-3.814-8.533-8.533-8.533h-68.267c-4.719,0-8.533,3.823-8.533,8.533v5.47L102.4,59.511V51.2    c0-4.71-3.814-8.533-8.533-8.533H59.733c-4.719,0-8.533,3.823-8.533,8.533v8.533H8.533C3.814,59.733,0,63.556,0,68.267v51.2    C0,124.177,3.814,128,8.533,128H51.2v8.533c0,4.71,3.814,8.533,8.533,8.533h34.133c4.719,0,8.533-3.823,8.533-8.533v-8.311    l110.933,2.842v5.47c0,4.71,3.814,8.533,8.533,8.533h1.22c-0.717,2.739-1.22,5.572-1.22,8.533c0,8.576,3.294,16.333,8.533,22.34    v51.84L72.286,460.8H59.733c-4.719,0-8.533,3.823-8.533,8.533s3.814,8.533,8.533,8.533h34.133c4.719,0,8.533-3.823,8.533-8.533    s-3.814-8.533-8.533-8.533h-0.964l150.545-221.867h4.019V460.8h-8.533c-4.719,0-8.533,3.823-8.533,8.533s3.814,8.533,8.533,8.533    h34.133c4.719,0,8.533-3.823,8.533-8.533s-3.814-8.533-8.533-8.533h-8.533V238.933h4.019L419.098,460.8h-0.964    c-4.719,0-8.533,3.823-8.533,8.533s3.814,8.533,8.533,8.533h34.133c4.719,0,8.533-3.823,8.533-8.533s-3.814-8.533-8.533-8.533    h-12.552L281.6,227.78v-51.84c5.239-6.008,8.533-13.764,8.533-22.34c0-2.961-0.503-5.794-1.22-8.533h1.22    c4.719,0,8.533-3.823,8.533-8.533v-3.072l119.467,2.867v8.738c0,4.71,3.814,8.533,8.533,8.533H460.8    c4.719,0,8.533-3.823,8.533-8.533v-0.768C493.508,140.211,512,119.185,512,93.867C512,68.548,493.508,47.522,469.333,43.435z     M85.333,68.267v51.2V128H68.267v-8.533v-51.2v-8.533h17.067V68.267z M264.533,221.867h-17.067v-35.234    c0.299,0.077,0.614,0.102,0.913,0.179c0.563,0.119,1.118,0.222,1.681,0.324c1.86,0.333,3.755,0.555,5.666,0.572    c0.094,0,0.179,0.026,0.273,0.026s0.179-0.026,0.273-0.026c1.911-0.017,3.806-0.239,5.666-0.572    c0.563-0.102,1.118-0.205,1.681-0.324c0.299-0.077,0.614-0.102,0.913-0.179V221.867z M267.529,166.11    c-0.051,0.043-0.12,0.06-0.171,0.111c-6.383,5.734-16.333,5.734-22.716,0c-0.051-0.051-0.119-0.068-0.171-0.12    c-3.379-3.115-5.538-7.543-5.538-12.501c0-4.352,1.681-8.286,4.386-11.307c0.017-0.017,0.043-0.026,0.06-0.043    c6.647-7.373,18.594-7.373,25.242,0c0.017,0.017,0.043,0.026,0.06,0.043c2.705,3.021,4.386,6.955,4.386,11.307    C273.067,158.558,270.908,162.987,267.529,166.11z M281.6,63.019v61.696V128h-3.157c-0.247-0.213-0.546-0.358-0.794-0.572    c-1.314-1.084-2.679-2.091-4.147-2.978c-0.051-0.026-0.102-0.051-0.162-0.085c-5.094-3.038-10.982-4.898-17.34-4.898    c-6.357,0-12.245,1.86-17.34,4.898c-0.06,0.034-0.111,0.06-0.162,0.085c-1.468,0.888-2.833,1.894-4.147,2.978    c-0.247,0.213-0.546,0.358-0.794,0.572H230.4v-5.248V64.981v-5.248h51.2V63.019z M452.267,136.533H435.2V128V59.733V51.2h17.067    V136.533z"/>
	</g>
</g>
<g>
</g>
<g>
</g>
<g>
</g>
<g>
</g>
<g>
</g>
<g>
</g>
<g>
</g>
<g>
</g>
<g>
</g>
<g>
</g>
<g>
</g>
<g>
</g>
<g>
</g>
<g>
</g>
<g>
</g>
</svg>
