<?xml version="1.0" encoding="iso-8859-1"?>
<!-- Generator: Adobe Illustrator 19.0.0, SVG Export Plug-In . SVG Version: 6.00 Build 0)  -->
<svg xmlns="http://www.w3.org/2000/svg" xmlns:xlink="http://www.w3.org/1999/xlink" version="1.1" id="Layer_1" x="0px" y="0px" viewBox="0 0 511.965 511.965" style="enable-background:new 0 0 511.965 511.965;" xml:space="preserve">
<g>
	<g>
		<path d="M511.282,60.697c-4.173-23.151-26.342-38.588-49.544-34.44c-0.009,0.008-0.017,0.017-0.034,0.017h-0.017L340.547,48.844    c-4.608,0.853-7.654,5.274-6.835,9.89l-58.786,10.573l-11.196,2.005L123.75,96.486c-4.642,0.828-7.723,5.265-6.895,9.907    L7.022,126.139c-2.227,0.401-4.207,1.673-5.495,3.524c-1.297,1.86-1.792,4.156-1.391,6.383l6.042,33.596    c0.742,4.13,4.335,7.023,8.388,7.023c0.503,0,1.007-0.043,1.519-0.128l109.833-19.746c0.401,2.227,1.664,4.198,3.524,5.495    c1.442,0.998,3.14,1.519,4.873,1.519c0.503,0,1.007-0.043,1.51-0.128l100.779-18.116h0.009l10.829-1.946l-0.009,36.77    c-14.686,3.814-25.609,17.067-25.609,32.93c0,6.963,2.116,13.44,5.717,18.842L88.934,469.316H76.757    c-4.719,0-8.533,3.814-8.533,8.533c0,4.71,3.814,8.533,8.533,8.533h34.133c4.719,0,8.533-3.823,8.533-8.533    c0-4.719-3.814-8.533-8.533-8.533h-2.202l131.908-225.69c2.159,1.101,4.437,1.988,6.827,2.611v223.078h-8.533    c-4.719,0-8.533,3.814-8.533,8.533c0,4.71,3.814,8.533,8.533,8.533h34.133c4.719,0,8.533-3.823,8.533-8.533    c0-4.719-3.814-8.533-8.533-8.533h-8.533V246.237c2.389-0.623,4.668-1.51,6.827-2.611l131.908,225.69h-2.202    c-4.719,0-8.533,3.814-8.533,8.533c0,4.71,3.814,8.533,8.533,8.533h34.133c4.719,0,8.533-3.823,8.533-8.533    c0-4.719-3.814-8.533-8.533-8.533h-12.177L284.373,232.157c3.601-5.402,5.717-11.878,5.717-18.842    c0-15.855-10.914-29.107-25.591-32.922l0.009-39.851l22.494-4.045l58.786-10.573c0.401,2.236,1.69,4.224,3.55,5.513    c1.434,0.99,3.14,1.51,4.855,1.51c0.512,0,1.041-0.043,1.562-0.145l121.062-22.562h0.017h0.017l0.043-0.009    c0.008,0,0.017-0.009,0.034-0.009c11.17-2.039,20.907-8.286,27.392-17.613C510.822,83.251,513.296,71.918,511.282,60.697z     M141.209,145.365l-6.042-33.596l83.985-15.095l6.042,33.596L141.209,145.365z M273.023,213.316    c0,9.412-7.654,17.067-17.067,17.067c-9.404,0-17.067-7.654-17.067-17.067c0-9.395,7.629-17.024,16.998-17.058    c0.034,0,0.051,0.009,0.077,0.009c0.026,0,0.043-0.009,0.068-0.009C265.411,196.292,273.023,203.929,273.023,213.316z     M292.385,118.195l-6.042-33.604l50.389-9.054l3.763,20.932l2.278,12.663L292.385,118.195z M388.061,92.322    c-4.634,0.836-9.079-2.253-9.916-6.895c-0.828-4.634,2.253-9.071,6.895-9.907c4.634-0.828,9.079,2.253,9.907,6.895    C395.784,87.048,392.703,91.485,388.061,92.322z M433.791,83.14c-4.642,0.828-9.079-2.253-9.907-6.886    c-0.845-4.642,2.244-9.079,6.878-9.916c4.642-0.836,9.079,2.253,9.916,6.895C441.505,77.866,438.425,82.303,433.791,83.14z     M490.307,82.867c-2.219,3.191-5.069,5.777-8.354,7.646L473.42,42.99c10.385,1.707,19.098,9.788,21.06,20.727    C495.692,70.451,494.207,77.252,490.307,82.867z"/>
	</g>
</g>
<g>
</g>
<g>
</g>
<g>
</g>
<g>
</g>
<g>
</g>
<g>
</g>
<g>
</g>
<g>
</g>
<g>
</g>
<g>
</g>
<g>
</g>
<g>
</g>
<g>
</g>
<g>
</g>
<g>
</g>
</svg>
