<?xml version="1.0" encoding="iso-8859-1"?>
<!-- Generator: Adobe Illustrator 19.0.0, SVG Export Plug-In . SVG Version: 6.00 Build 0)  -->
<svg xmlns="http://www.w3.org/2000/svg" xmlns:xlink="http://www.w3.org/1999/xlink" version="1.1" id="Layer_1" x="0px" y="0px" viewBox="0 0 512.154 512.154" style="enable-background:new 0 0 512.154 512.154;" xml:space="preserve">
<g>
	<g>
		<g>
			<path d="M503.543,25.6H469.41V8.533c0-4.71-3.814-8.533-8.533-8.533H315.81c-25.233,0-47.266,13.798-59.085,34.219     C241.126,11.025,205.457,0,179.277,0h-128c-4.719,0-8.533,3.823-8.533,8.533V25.6H8.61c-4.719,0-8.533,3.823-8.533,8.533v418.133     c0,4.71,3.814,8.533,8.533,8.533h169.805c25.131,5.222,47.846,19.217,64.043,39.467l6.955,8.687     c0.085,0.111,0.239,0.154,0.333,0.265c0.563,0.64,1.246,1.126,1.971,1.57c0.29,0.179,0.538,0.427,0.845,0.563     c1.075,0.495,2.253,0.802,3.516,0.802c1.263,0,2.441-0.307,3.516-0.802c0.307-0.137,0.546-0.384,0.836-0.563     c0.734-0.444,1.417-0.93,1.98-1.57c0.094-0.111,0.247-0.154,0.333-0.265l6.955-8.687c16.196-20.25,38.912-34.244,64.043-39.467     h169.805c4.719,0,8.533-3.823,8.533-8.533V34.133C512.077,29.423,508.262,25.6,503.543,25.6z M162.21,76.8h51.2     c4.719,0,8.533,3.823,8.533,8.533s-3.814,8.533-8.533,8.533h-51.2c-4.719,0-8.533-3.823-8.533-8.533S157.491,76.8,162.21,76.8z      M213.41,136.533h-17.067c-4.719,0-8.533-3.823-8.533-8.533c0-4.71,3.814-8.533,8.533-8.533h17.067     c4.719,0,8.533,3.823,8.533,8.533C221.943,132.71,218.129,136.533,213.41,136.533z M221.943,170.667     c0,4.71-3.814,8.533-8.533,8.533h-51.2c-4.719,0-8.533-3.823-8.533-8.533s3.814-8.533,8.533-8.533h51.2     C218.129,162.133,221.943,165.956,221.943,170.667z M93.944,76.8h34.133c4.719,0,8.533,3.823,8.533,8.533     s-3.814,8.533-8.533,8.533H93.944c-4.719,0-8.533-3.823-8.533-8.533S89.225,76.8,93.944,76.8z M93.944,119.467h68.267     c4.719,0,8.533,3.823,8.533,8.533c0,4.71-3.814,8.533-8.533,8.533H93.944c-4.719,0-8.533-3.823-8.533-8.533     C85.41,123.29,89.225,119.467,93.944,119.467z M93.944,162.133h34.133c4.719,0,8.533,3.823,8.533,8.533s-3.814,8.533-8.533,8.533     H93.944c-4.719,0-8.533-3.823-8.533-8.533S89.225,162.133,93.944,162.133z M93.944,204.8H213.41c4.719,0,8.533,3.823,8.533,8.533     s-3.814,8.533-8.533,8.533H93.944c-4.719,0-8.533-3.823-8.533-8.533S89.225,204.8,93.944,204.8z M196.343,298.667     c-4.719,0-8.533-3.823-8.533-8.533c0-4.71,3.814-8.533,8.533-8.533h17.067c4.719,0,8.533,3.823,8.533,8.533     c0,4.71-3.814,8.533-8.533,8.533H196.343z M213.41,332.8c0,4.71-3.814,8.533-8.533,8.533s-8.533-3.823-8.533-8.533     s3.814-8.533,8.533-8.533S213.41,328.09,213.41,332.8z M213.41,256h-51.2c-4.719,0-8.533-3.823-8.533-8.533     c0-4.71,3.814-8.533,8.533-8.533h51.2c4.719,0,8.533,3.823,8.533,8.533C221.943,252.177,218.129,256,213.41,256z M93.944,238.933     h34.133c4.719,0,8.533,3.823,8.533,8.533c0,4.71-3.814,8.533-8.533,8.533H93.944c-4.719,0-8.533-3.823-8.533-8.533     C85.41,242.756,89.225,238.933,93.944,238.933z M93.944,281.6h68.267c4.719,0,8.533,3.823,8.533,8.533     c0,4.71-3.814,8.533-8.533,8.533H93.944c-4.719,0-8.533-3.823-8.533-8.533C85.41,285.423,89.225,281.6,93.944,281.6z      M93.944,324.267h68.267c4.719,0,8.533,3.823,8.533,8.533s-3.814,8.533-8.533,8.533H93.944c-4.719,0-8.533-3.823-8.533-8.533     S89.225,324.267,93.944,324.267z M247.543,480.324c-18.031-18.551-41.25-31.36-66.594-36.42     c-0.546-0.119-1.118-0.171-1.673-0.171H17.143V42.667h25.6V409.6c0,4.71,3.814,8.533,8.533,8.533h127.147     c3.226,0.649,6.4,1.306,9.515,2.005c21.811,4.898,40.823,11.648,54.519,28.766l5.086,6.357V480.324z M426.743,298.667     c0,4.71-3.814,8.533-8.533,8.533h-68.267c-4.719,0-8.533-3.823-8.533-8.533c0-4.71,3.814-8.533,8.533-8.533h68.267     C422.929,290.133,426.743,293.956,426.743,298.667z M298.752,77.261c-0.247-4.702,3.362-8.721,8.055-8.977     c4.574-0.205,8.73,3.345,8.986,8.047c0.017,0.213,0.503,7.356,2.611,17.536h80.145c2.108-10.18,2.594-17.323,2.611-17.536     c0.256-4.702,4.301-8.277,8.986-8.047c4.693,0.256,8.303,4.275,8.055,8.977c-0.154,2.773-3.994,62.984-44.066,93.406     c40.073,30.421,43.913,90.633,44.066,93.406c0.247,4.702-3.362,8.721-8.055,8.977c-0.162,0.009-0.316,0.017-0.478,0.017     c-4.489,0-8.26-3.524-8.508-8.064c-0.017-0.213-0.503-7.356-2.611-17.536h-80.145c-2.108,10.18-2.594,17.323-2.611,17.536     c-0.247,4.54-4.019,8.064-8.508,8.064c-0.162,0-0.316-0.009-0.478-0.017c-4.693-0.256-8.303-4.275-8.055-8.977     c0.154-2.773,3.994-62.985,44.066-93.406C302.746,140.245,298.906,80.034,298.752,77.261z M298.743,290.133h17.067     c4.719,0,8.533,3.823,8.533,8.533c0,4.71-3.814,8.533-8.533,8.533h-17.067c-4.719,0-8.533-3.823-8.533-8.533     C290.21,293.956,294.025,290.133,298.743,290.133z M298.743,332.8h68.267c4.719,0,8.533,3.823,8.533,8.533     s-3.814,8.533-8.533,8.533h-68.267c-4.719,0-8.533-3.823-8.533-8.533S294.025,332.8,298.743,332.8z M495.01,443.733H332.877     c-0.555,0-1.126,0.051-1.672,0.171c-25.344,5.06-48.563,17.869-66.594,36.42v-25.062l5.086-6.357     c13.696-17.118,32.708-23.868,54.519-28.766c3.115-0.7,6.289-1.357,9.515-2.005h127.147c4.719,0,8.533-3.823,8.533-8.533V42.667     h25.6V443.733z"/>
			<path d="M358.477,180.634c-6.929,4.258-12.766,9.6-17.638,15.633h35.277C371.243,190.234,365.406,184.892,358.477,180.634z"/>
			<path d="M358.477,160.7c6.929-4.258,12.766-9.6,17.638-15.633h-35.277C345.711,151.1,351.548,156.442,358.477,160.7z"/>
			<path d="M394.018,110.933h-71.083c1.835,5.564,4.156,11.349,7.023,17.067h57.037     C389.862,122.283,392.184,116.497,394.018,110.933z"/>
			<path d="M322.936,230.4h71.083c-1.835-5.564-4.156-11.349-7.023-17.067h-57.037C327.091,219.051,324.77,224.836,322.936,230.4z"/>
		</g>
	</g>
</g>
<g>
</g>
<g>
</g>
<g>
</g>
<g>
</g>
<g>
</g>
<g>
</g>
<g>
</g>
<g>
</g>
<g>
</g>
<g>
</g>
<g>
</g>
<g>
</g>
<g>
</g>
<g>
</g>
<g>
</g>
</svg>
