<?xml version="1.0" encoding="iso-8859-1"?>
<!-- Generator: Adobe Illustrator 19.0.0, SVG Export Plug-In . SVG Version: 6.00 Build 0)  -->
<svg xmlns="http://www.w3.org/2000/svg" xmlns:xlink="http://www.w3.org/1999/xlink" version="1.1" id="Layer_1" x="0px" y="0px" viewBox="0 0 503.607 503.607" style="enable-background:new 0 0 503.607 503.607;" xml:space="preserve">
<g>
	<g>
		<g>
			<path d="M142.689,176.262c4.642,0,8.393-3.76,8.393-8.393s-3.752-8.393-8.393-8.393c-4.642,0-8.393,3.76-8.393,8.393     S138.047,176.262,142.689,176.262z"/>
			<path d="M125.902,151.082c4.642,0,8.393-3.76,8.393-8.393s-3.752-8.393-8.393-8.393c-4.642,0-8.393,3.76-8.393,8.393     S121.26,151.082,125.902,151.082z"/>
			<path d="M327.344,184.656h-16.787H25.18H8.393c-4.642,0-8.393,3.76-8.393,8.393s3.752,8.393,8.393,8.393h8.393v268.59     c0,18.516,15.058,33.574,33.574,33.574h235.016c18.516,0,33.574-15.058,33.574-33.574v-268.59h8.393     c4.642,0,8.393-3.76,8.393-8.393S331.986,184.656,327.344,184.656z M268.59,394.492c0,4.633-3.752,8.393-8.393,8.393H75.541     c-4.642,0-8.393-3.76-8.393-8.393V276.984c0-4.633,3.752-8.393,8.393-8.393h184.656c4.642,0,8.393,3.76,8.393,8.393V394.492z"/>
			<path d="M453.246,0h-25.18v41.967c0,4.633-3.752,8.393-8.393,8.393s-8.393-3.76-8.393-8.393V0h-16.787v25.18     c0,4.633-3.752,8.393-8.393,8.393c-4.642,0-8.393-3.76-8.393-8.393V0h-16.787v41.967c0,4.633-3.752,8.393-8.393,8.393     s-8.393-3.76-8.393-8.393V0h-16.787v25.18c0,4.633-3.752,8.393-8.393,8.393s-8.393-3.76-8.393-8.393V0h-16.787v41.967     c0,4.633-3.752,8.393-8.393,8.393c-4.642,0-8.393-3.76-8.393-8.393V0h-16.787v25.18c0,4.633-3.752,8.393-8.393,8.393     c-4.642,0-8.393-3.76-8.393-8.393V0h-92.328c-4.642,0-8.393,3.76-8.393,8.393v109.115c0,2.82,1.419,5.456,3.769,7.008     c1.393,0.915,3.013,1.385,4.625,1.385c1.125,0,2.249-0.227,3.307-0.68l57.168-24.5h241.689c27.774,0,50.361-22.587,50.361-50.361     C503.607,22.587,481.02,0,453.246,0z"/>
			<path d="M83.934,386.098h167.869V285.377H83.934V386.098z M142.689,310.557h50.361c4.642,0,8.393,3.76,8.393,8.393     c0,4.633-3.752,8.393-8.393,8.393h-50.361c-4.642,0-8.393-3.76-8.393-8.393C134.295,314.318,138.047,310.557,142.689,310.557z      M125.902,344.131h83.934c4.642,0,8.393,3.76,8.393,8.393s-3.752,8.393-8.393,8.393h-83.934c-4.642,0-8.393-3.76-8.393-8.393     S121.26,344.131,125.902,344.131z"/>
		</g>
	</g>
</g>
<g>
</g>
<g>
</g>
<g>
</g>
<g>
</g>
<g>
</g>
<g>
</g>
<g>
</g>
<g>
</g>
<g>
</g>
<g>
</g>
<g>
</g>
<g>
</g>
<g>
</g>
<g>
</g>
<g>
</g>
</svg>
