<?xml version="1.0" encoding="iso-8859-1"?>
<!-- Generator: Adobe Illustrator 19.0.0, SVG Export Plug-In . SVG Version: 6.00 Build 0)  -->
<svg xmlns="http://www.w3.org/2000/svg" xmlns:xlink="http://www.w3.org/1999/xlink" version="1.1" id="Layer_1" x="0px" y="0px" viewBox="0 0 503.607 503.607" style="enable-background:new 0 0 503.607 503.607;" xml:space="preserve">
<g>
	<g>
		<g>
			<path d="M125.902,444.852H83.934c-4.642,0-8.393,3.76-8.393,8.393s3.752,8.393,8.393,8.393h41.967     c4.642,0,8.393-3.76,8.393-8.393S130.543,444.852,125.902,444.852z"/>
			<path d="M369.311,444.852H159.475c-4.642,0-8.393,3.76-8.393,8.393s3.752,8.393,8.393,8.393h209.836     c4.642,0,8.393-3.76,8.393-8.393S373.953,444.852,369.311,444.852z"/>
			<path d="M217.681,244.499c21.462,9.594,46.785,9.594,68.247,0l-25.306-44.275c-5.733,1.62-11.902,1.62-17.635,0L217.681,244.499z     "/>
			<path d="M202.377,100.146c-19.137,14.009-31.593,35.63-34.052,59.132l50.99,0.126c1.494-5.8,4.549-11.054,8.838-15.276     L202.377,100.146z"/>
			<path d="M335.311,159.475c-2.409-23.502-14.814-45.148-33.926-59.216l-25.877,43.923c4.289,4.23,7.319,9.493,8.813,15.293     H335.311z"/>
			<path d="M425.573,0h-5.901v402.885h-16.787V0H100.721v402.885h-8.393c-2.871,0-5.657,0.294-8.393,0.755V0h-9.216     C56.664,0,41.967,14.689,41.967,32.751v420.495c0,27.774,22.587,50.361,50.361,50.361h348.999     c11.197,0,20.312-9.115,20.312-20.312v-72.016V36.067C461.639,16.183,445.457,0,425.573,0z M251.803,33.574     c74.047,0,134.295,60.248,134.295,134.295S325.85,302.164,251.803,302.164s-134.295-60.248-134.295-134.295     S177.756,33.574,251.803,33.574z M318.951,344.131c0,4.633-3.752,8.393-8.393,8.393H193.049c-4.642,0-8.393-3.76-8.393-8.393     c0-4.633,3.752-8.393,8.393-8.393h117.508C315.199,335.738,318.951,339.498,318.951,344.131z M444.852,483.294     c0,1.939-1.578,3.525-3.525,3.525H92.328c-18.516,0-33.574-15.066-33.574-33.574c0-18.516,15.058-33.574,33.574-33.574h318.951     h33.574V483.294z"/>
			<path d="M251.803,285.378c64.797,0,117.508-52.711,117.508-117.508S316.601,50.362,251.803,50.362     S134.295,103.072,134.295,167.87S187.006,285.378,251.803,285.378z M257.309,141.993l34.094-57.856     c1.133-1.922,2.971-3.307,5.128-3.869c2.182-0.554,4.449-0.227,6.371,0.906c30.603,18.079,49.622,51.301,49.622,86.696     c0,4.633-3.752,8.393-8.393,8.393h-67.148c-4.642,0-8.393-3.76-8.393-8.393c0-5.926-3.114-11.306-8.318-14.386     C256.285,151.125,254.959,145.988,257.309,141.993z M260.071,182.348c1.947-1.1,4.23-1.402,6.379-0.806     c2.149,0.588,3.979,1.998,5.086,3.928l33.33,58.343c2.3,4.021,0.906,9.149-3.114,11.449     c-15.217,8.721-32.491,13.329-49.949,13.329s-34.732-4.608-49.949-13.329c-4.02-2.3-5.414-7.428-3.114-11.449l33.33-58.343     c1.108-1.931,2.938-3.341,5.086-3.928c2.14-0.596,4.432-0.294,6.379,0.806C248.857,185.412,254.749,185.412,260.071,182.348z      M153.533,173.577c-1.57-1.578-2.451-3.718-2.442-5.943c0.084-35.404,19.171-68.583,49.815-86.587     c1.914-1.125,4.197-1.444,6.362-0.881c2.157,0.554,4.004,1.956,5.128,3.878l33.968,57.94c2.342,4.004,1.007,9.14-2.996,11.482     c-5.212,3.064-8.335,8.435-8.343,14.361c0,2.224-0.89,4.356-2.468,5.926c-1.57,1.57-3.702,2.451-5.926,2.451h-0.017     l-67.148-0.159C157.234,176.045,155.102,175.155,153.533,173.577z"/>
		</g>
	</g>
</g>
<g>
</g>
<g>
</g>
<g>
</g>
<g>
</g>
<g>
</g>
<g>
</g>
<g>
</g>
<g>
</g>
<g>
</g>
<g>
</g>
<g>
</g>
<g>
</g>
<g>
</g>
<g>
</g>
<g>
</g>
</svg>
