<?xml version="1.0" encoding="iso-8859-1"?>
<!-- Generator: Adobe Illustrator 19.0.0, SVG Export Plug-In . SVG Version: 6.00 Build 0)  -->
<svg xmlns="http://www.w3.org/2000/svg" xmlns:xlink="http://www.w3.org/1999/xlink" version="1.1" id="Layer_1" x="0px" y="0px" viewBox="0 0 512 512" style="enable-background:new 0 0 512 512;" xml:space="preserve">
<g>
	<g>
		<g>
			<path d="M486.4,17.067H25.6c-14.114,0-25.6,11.486-25.6,25.6v17.067c0,11.11,7.151,20.489,17.067,24.021v317.312     c0,4.71,3.823,8.533,8.533,8.533h221.867v18.278c-14.677,3.814-25.6,17.067-25.6,32.922c0,18.825,15.309,34.133,34.133,34.133     c18.825,0,34.133-15.309,34.133-34.133c0-15.855-10.923-29.107-25.6-32.922V409.6H486.4c4.71,0,8.533-3.823,8.533-8.533V83.763     C504.849,80.222,512,70.844,512,59.733V42.667C512,28.553,500.514,17.067,486.4,17.067z M273.067,460.8     c0,9.412-7.654,17.067-17.067,17.067c-9.412,0-17.067-7.654-17.067-17.067c0-9.412,7.654-17.067,17.067-17.067     C265.412,443.733,273.067,451.388,273.067,460.8z M291.959,271.002c10.547,28.996,8.619,52.693-5.419,66.739     c-8.073,8.064-19.337,12.134-32.956,12.134c-10.078,0-21.444-2.227-33.783-6.716c-10.479-3.806-21.274-9.148-32.068-15.71     c-10.795,6.562-21.589,11.904-32.068,15.71c-12.331,4.489-23.706,6.716-33.784,6.716c-13.619,0-24.883-4.07-32.956-12.134     c-14.037-14.046-15.966-37.743-5.419-66.739c3.806-10.479,9.148-21.274,15.71-32.068c-6.562-10.795-11.904-21.589-15.71-32.068     c-10.547-28.996-8.619-52.693,5.419-66.739c14.029-14.046,37.734-15.983,66.739-5.419c10.479,3.806,21.274,9.148,32.068,15.71     c10.795-6.562,21.589-11.904,32.068-15.71c28.996-10.547,52.693-8.619,66.739,5.419c14.037,14.046,15.966,37.743,5.419,66.739     c-3.806,10.479-9.148,21.274-15.71,32.068C282.812,249.728,288.154,260.523,291.959,271.002z M443.733,341.333     c0,4.71-3.823,8.533-8.533,8.533s-8.533-3.823-8.533-8.533V332.8H384c-4.71,0-8.533-3.823-8.533-8.533     c0-4.71,3.823-8.533,8.533-8.533h42.667v-17.067h-25.6c-4.71,0-8.533-3.823-8.533-8.533s3.823-8.533,8.533-8.533h25.6v-17.067     H384c-4.71,0-8.533-3.823-8.533-8.533c0-4.71,3.823-8.533,8.533-8.533h42.667V230.4h-25.6c-4.71,0-8.533-3.823-8.533-8.533     s3.823-8.533,8.533-8.533h25.6v-17.067H384c-4.71,0-8.533-3.823-8.533-8.533S379.29,179.2,384,179.2h42.667v-17.067h-25.6     c-4.71,0-8.533-3.823-8.533-8.533s3.823-8.533,8.533-8.533h25.6V128c0-4.71,3.823-8.533,8.533-8.533s8.533,3.823,8.533,8.533     V341.333z M494.933,59.733c0,4.702-3.831,8.533-8.533,8.533H25.6c-4.702,0-8.533-3.831-8.533-8.533V42.667     c0-4.702,3.831-8.533,8.533-8.533h460.8c4.702,0,8.533,3.831,8.533,8.533V59.733z"/>
			<path d="M256.017,238.933c-8.619-12.706-19.089-25.327-31.027-37.257c-11.93-11.938-24.55-22.409-37.257-31.027     c-12.706,8.619-25.327,19.089-37.257,31.027c-11.938,11.93-22.409,24.55-31.027,37.257c8.619,12.706,19.089,25.327,31.027,37.257     c11.93,11.938,24.55,22.409,37.257,31.027c12.706-8.619,25.327-19.089,37.257-31.027     C236.928,264.26,247.398,251.639,256.017,238.933z M187.733,273.067c-18.825,0-34.133-15.309-34.133-34.133     s15.309-34.133,34.133-34.133s34.133,15.309,34.133,34.133S206.558,273.067,187.733,273.067z"/>
			<path d="M265.671,254.741c-8.311,11.486-17.886,22.793-28.612,33.519c-10.726,10.726-22.033,20.301-33.519,28.612     c7.467,4.122,14.874,7.629,22.101,10.249c22.067,8.03,39.885,7.501,48.828-1.451c8.96-8.951,9.489-26.752,1.459-48.836     C273.3,269.615,269.792,262.208,265.671,254.741z"/>
			<path d="M109.796,223.125c8.311-11.486,17.886-22.793,28.612-33.519c10.726-10.726,22.033-20.301,33.519-28.612     c-7.467-4.122-14.874-7.629-22.101-10.249c-10.385-3.78-19.84-5.666-27.861-5.666c-9.011,0-16.23,2.381-20.966,7.117     c-8.96,8.951-9.489,26.752-1.459,48.836C102.167,208.252,105.674,215.659,109.796,223.125z"/>
			<path d="M187.733,221.867c-9.412,0-17.067,7.654-17.067,17.067c0,9.412,7.654,17.067,17.067,17.067s17.067-7.654,17.067-17.067     C204.8,229.521,197.146,221.867,187.733,221.867z"/>
			<path d="M109.796,254.741c-4.122,7.467-7.629,14.874-10.257,22.093c-8.03,22.084-7.501,39.885,1.459,48.836     c8.951,8.951,26.752,9.481,48.828,1.451c7.228-2.62,14.635-6.127,22.101-10.249c-11.486-8.311-22.793-17.886-33.519-28.612     C127.682,277.534,118.107,266.227,109.796,254.741z"/>
			<path d="M253.5,145.079c-8.021,0-17.468,1.886-27.861,5.666c-7.219,2.62-14.626,6.127-22.093,10.249     c11.477,8.311,22.784,17.886,33.51,28.612c10.735,10.726,20.301,22.033,28.612,33.519c4.13-7.467,7.629-14.874,10.257-22.093     c8.03-22.084,7.501-39.885-1.451-48.836C269.73,147.46,262.519,145.079,253.5,145.079z"/>
		</g>
	</g>
</g>
<g>
</g>
<g>
</g>
<g>
</g>
<g>
</g>
<g>
</g>
<g>
</g>
<g>
</g>
<g>
</g>
<g>
</g>
<g>
</g>
<g>
</g>
<g>
</g>
<g>
</g>
<g>
</g>
<g>
</g>
</svg>
