<?xml version="1.0" encoding="iso-8859-1"?>
<!-- Generator: Adobe Illustrator 19.0.0, SVG Export Plug-In . SVG Version: 6.00 Build 0)  -->
<svg xmlns="http://www.w3.org/2000/svg" xmlns:xlink="http://www.w3.org/1999/xlink" version="1.1" id="Layer_1" x="0px" y="0px" viewBox="0 0 503.322 503.322" style="enable-background:new 0 0 503.322 503.322;" xml:space="preserve">
<g>
	<g>
		<g>
			<path d="M251.661,234.305c9.572,0,17.356-7.784,17.356-17.356c0-9.572-7.784-17.356-17.356-17.356s-17.356,7.784-17.356,17.356     C234.305,226.521,242.089,234.305,251.661,234.305z"/>
			<path d="M181.396,216.949c7.897,13.65,18.267,27.136,30.694,39.572c12.436,12.427,25.921,22.797,39.572,30.694     c13.65-7.897,27.136-18.267,39.572-30.694c12.427-12.435,22.797-25.921,30.694-39.572c-7.897-13.65-18.267-27.136-30.694-39.572     c-12.436-12.427-25.921-22.797-39.572-30.694c-13.65,7.897-27.136,18.267-39.572,30.694     C199.663,189.813,189.292,203.299,181.396,216.949z M251.661,182.237c19.144,0,34.712,15.568,34.712,34.712     c0,19.144-15.568,34.712-34.712,34.712c-19.144,0-34.712-15.568-34.712-34.712C216.949,197.806,232.517,182.237,251.661,182.237z     "/>
			<path d="M330.951,235.257c-7.697,11.628-16.879,22.962-27.448,33.532s-21.912,19.751-33.532,27.448     c3.714,1.501,7.411,2.872,11.064,3.948c21.287,6.257,38.417,4.27,48.276-5.589c9.858-9.858,11.845-26.997,5.589-48.267     C333.823,242.668,332.452,238.971,330.951,235.257z"/>
			<path d="M222.28,300.187c3.662-1.076,7.359-2.447,11.073-3.948c-11.628-7.697-22.962-16.879-33.532-27.448     s-19.751-21.912-27.448-33.532c-1.501,3.714-2.872,7.411-3.948,11.064c-6.257,21.278-4.27,38.417,5.589,48.276     S201.01,306.444,222.28,300.187z"/>
			<path d="M172.373,198.639c7.697-11.62,16.879-22.962,27.448-33.532s21.903-19.751,33.532-27.448     c-3.714-1.501-7.411-2.872-11.073-3.948c-8.14-2.395-15.681-3.584-22.433-3.584c-10.891,0-19.751,3.089-25.834,9.173     c-9.858,9.858-11.845,26.997-5.589,48.276C169.501,191.229,170.872,194.925,172.373,198.639z"/>
			<path d="M425.22,0h-95.458v34.712h69.424c9.572,0,17.356,7.784,17.356,17.356v399.186c0,9.572-7.784,17.356-17.356,17.356     H104.136c-9.572,0-17.356-7.784-17.356-17.356V52.068c0-9.572,7.784-17.356,17.356-17.356h69.424V0H78.102     C63.748,0,52.068,11.681,52.068,26.034v451.254c0,14.353,11.681,26.034,26.034,26.034H425.22     c14.353,0,26.034-11.681,26.034-26.034V26.034C451.254,11.681,439.574,0,425.22,0z"/>
			<path d="M104.133,52.065v399.186h295.051V52.065H329.76c0,9.572-7.784,17.356-17.356,17.356H190.913     c-9.572,0-17.356-7.784-17.356-17.356H104.133z M312.404,399.184H190.913c-4.79,0-8.678-3.879-8.678-8.678     c0-4.79,3.888-8.678,8.678-8.678h121.492c4.799,0,8.678,3.888,8.678,8.678C321.082,395.305,317.203,399.184,312.404,399.184z      M199.591,355.794c0-4.79,3.888-8.678,8.678-8.678h86.78c4.799,0,8.678,3.888,8.678,8.678c0,4.79-3.879,8.678-8.678,8.678h-86.78     C203.478,364.472,199.591,360.584,199.591,355.794z M227.178,117.063c8.088,2.378,16.297,5.788,24.481,9.928     c8.192-4.139,16.393-7.55,24.489-9.928c27.631-8.131,50.879-4.591,65.432,9.962c14.562,14.562,18.102,37.793,9.971,65.441     c-2.378,8.088-5.788,16.297-9.928,24.481c4.139,8.192,7.55,16.393,9.928,24.489c8.131,27.639,4.591,50.879-9.971,65.432     c-9.433,9.433-22.519,14.241-38.088,14.241c-8.444,0-17.625-1.415-27.344-4.27c-8.097-2.378-16.297-5.788-24.489-9.928     c-8.183,4.139-16.393,7.55-24.481,9.928c-9.719,2.855-18.909,4.27-27.353,4.27c-15.568,0.009-28.655-4.808-38.088-14.241     c-14.553-14.553-18.094-37.793-9.962-65.432c2.378-8.097,5.788-16.297,9.928-24.489c-4.139-8.183-7.55-16.393-9.928-24.481     c-8.131-27.648-4.591-50.879,9.962-65.441C176.29,112.473,199.539,108.932,227.178,117.063z"/>
			<path d="M330.949,198.639c1.501-3.714,2.872-7.411,3.948-11.064c6.257-21.278,4.27-38.417-5.589-48.276     c-6.083-6.083-14.943-9.173-25.834-9.173c-6.751,0-14.293,1.189-22.433,3.584c-3.662,1.076-7.359,2.447-11.073,3.948     c11.628,7.697,22.962,16.879,33.532,27.448C314.07,175.678,323.252,187.02,330.949,198.639z"/>
			<path d="M312.407,43.39c0-0.017,0.009-0.035,0.009-0.052L312.407,0H190.915v43.39v8.678h121.492V43.39z"/>
		</g>
	</g>
</g>
<g>
</g>
<g>
</g>
<g>
</g>
<g>
</g>
<g>
</g>
<g>
</g>
<g>
</g>
<g>
</g>
<g>
</g>
<g>
</g>
<g>
</g>
<g>
</g>
<g>
</g>
<g>
</g>
<g>
</g>
</svg>
