<?xml version="1.0" encoding="iso-8859-1"?>
<!-- Generator: Adobe Illustrator 19.0.0, SVG Export Plug-In . SVG Version: 6.00 Build 0)  -->
<svg xmlns="http://www.w3.org/2000/svg" xmlns:xlink="http://www.w3.org/1999/xlink" version="1.1" id="Layer_1" x="0px" y="0px" viewBox="0 0 512 512" style="enable-background:new 0 0 512 512;" xml:space="preserve">
<g>
	<g>
		<g>
			<path d="M256.002,315.778c32.93,0,59.733-26.795,59.733-59.733s-26.803-59.733-59.733-59.733     c-32.93,0-59.733,26.795-59.733,59.733S223.072,315.778,256.002,315.778z"/>
			<path d="M441.66,208.785c32.393,12.672,53.274,28.826,53.274,47.258c0,15.215-16.265,27.93-29.909,35.908     c-4.062,2.372-5.427,7.603-3.055,11.674c2.381,4.062,7.595,5.427,11.674,3.055C505.344,288.137,512,268.911,512,256.043     c0-25.054-23.714-45.79-60.629-61.355c52.659-78.541,78.063-150.204,47.121-181.137c-38.903-38.886-142.14,11.264-242.509,92.672     C175.582,40.636,98.995,0.034,50.773,0.043c-16,0.026-28.595,4.548-37.427,13.44C2.133,24.764-7.706,48.384,9.011,96.896     c1.536,4.463,6.374,6.818,10.846,5.282c4.454-1.527,6.818-6.391,5.282-10.846c-10.803-31.369-10.692-54.741,0.307-65.818     c5.521-5.564,14.054-8.388,25.353-8.405h0.111c43.213,0,115.627,38.903,191.565,100.275     c-18.082,15.215-35.977,31.343-53.274,48.085c-41.318,4.062-80.393,11.861-112.205,22.946     c-11.008-16.205-20.898-32.094-29.261-47.377c-2.27-4.139-7.441-5.649-11.58-3.396c-4.139,2.261-5.658,7.45-3.388,11.588     c8.047,14.711,17.382,29.935,27.819,45.474C23.706,210.27,0,230.997,0,256.043c0,25.054,23.714,45.79,60.638,61.363     c-52.659,78.541-78.071,150.195-47.13,181.137c9.208,9.199,21.999,13.414,37.53,13.414c50.099,0,128.452-44.032,205.133-106.231     c76.595,62.182,154.923,106.214,204.954,106.214c15.471,0,28.237-4.198,37.402-13.372     c38.852-38.861-11.392-142.097-92.809-242.381C418.552,240.367,430.601,224.486,441.66,208.785z M394.889,243.081     c-16.623-19.755-34.355-39.27-52.762-58.044c30.447,4.079,59.204,10.214,83.388,18.022     C416.222,216.038,405.999,229.402,394.889,243.081z M460.245,16.93c11.469,0,20.369,2.876,26.18,8.687     c21.214,21.214,3.268,83.558-50.799,163.021c-32.06-11.247-71.561-19.132-113.323-23.219     c-17.707-17.161-35.533-33.306-53.265-48.29C350.106,51.226,420.608,16.93,460.245,16.93z M255.616,128.256     c13.227,11.068,26.487,22.784,39.689,35.072c-13.056-0.742-26.197-1.152-39.305-1.152c-13.269,0-26.581,0.418-39.791,1.186     C229.538,150.886,242.697,139.17,255.616,128.256z M189.278,189.321c2.509-2.509,4.992-4.847,7.492-7.305     c19.644-1.801,39.629-2.773,59.23-2.773c19.465,0,39.322,0.956,58.846,2.739c2.773,2.714,5.555,5.35,8.311,8.115     c22.443,22.443,42.718,44.587,60.877,66.091c-18.278,21.658-38.699,43.972-61.303,66.586c-2.586,2.577-5.163,5.086-7.74,7.612     c-19.081,1.63-38.844,2.458-58.991,2.458c-19.49,0-39.347-0.956-58.897-2.739c-2.347-2.304-4.676-4.574-7.023-6.921     c-22.17-22.153-42.94-44.843-61.935-67.482C146.372,234.104,166.733,211.857,189.278,189.321z M170.069,327.074     c-30.524-4.079-59.349-10.223-83.584-18.039c9.301-12.971,19.507-26.342,30.626-40.013     C133.564,288.503,151.322,307.951,170.069,327.074z M169.489,185.088c-18.185,18.577-35.695,37.88-52.122,57.404     c-10.769-13.303-20.915-26.547-30.276-39.62C111.053,195.183,139.435,189.141,169.489,185.088z M17.067,256.043     c0-18.441,20.915-34.603,53.333-47.283c10.974,15.548,22.972,31.309,35.874,47.155c-12.834,15.812-24.875,31.693-35.934,47.394     C37.948,290.628,17.067,274.475,17.067,256.043z M25.574,486.477c-21.214-21.222-3.268-83.567,50.799-163.021     c32.06,11.247,71.569,19.132,113.348,23.211c17.34,16.802,35.243,32.956,53.376,48.205     C138.487,479.949,51.447,512.35,25.574,486.477z M216.491,348.749c13.116,0.751,26.334,1.161,39.509,1.161     c13.449,0,26.735-0.367,39.782-1.084c-13.389,12.527-26.615,24.26-39.612,35.226C243.149,373.06,229.914,361.31,216.491,348.749z      M486.46,486.502c-25.805,25.788-112.734-6.613-217.225-91.631c18.108-15.215,35.985-31.334,53.308-48.094     c30.097-2.85,58.539-7.586,84.096-14.208c4.565-1.178,7.305-5.837,6.118-10.402c-1.169-4.557-5.845-7.279-10.394-6.118     c-18.637,4.83-38.929,8.593-60.262,11.366c18.423-18.807,36.164-38.34,52.787-58.121     C479.881,373.777,512.265,460.689,486.46,486.502z"/>
		</g>
	</g>
</g>
<g>
</g>
<g>
</g>
<g>
</g>
<g>
</g>
<g>
</g>
<g>
</g>
<g>
</g>
<g>
</g>
<g>
</g>
<g>
</g>
<g>
</g>
<g>
</g>
<g>
</g>
<g>
</g>
<g>
</g>
</svg>
