<?xml version="1.0" encoding="iso-8859-1"?>
<!-- Generator: Adobe Illustrator 19.0.0, SVG Export Plug-In . SVG Version: 6.00 Build 0)  -->
<svg version="1.1" id="Layer_1" xmlns="http://www.w3.org/2000/svg" xmlns:xlink="http://www.w3.org/1999/xlink" x="0px" y="0px"
	 viewBox="0 0 280 280" style="enable-background:new 0 0 280 280;" xml:space="preserve">
<g id="XMLID_235_">
	<path id="XMLID_236_" d="M140,280c77.196,0,140-62.803,140-140C280,62.804,217.196,0,140,0S0,62.804,0,140
		C0,217.197,62.804,280,140,280z M169.648,95.854c1.767-3.551,5.162-5.693,9.063-5.693c4.656,0,9.844,3.795,9.844,9.242
		c0,1.262-0.256,2.477-0.804,3.82c-0.062,0.151-0.13,0.3-0.203,0.445l-10.633,20.993c1.461-0.741,3.175-1.157,5.038-1.157
		c5.679,0,9.961,3.865,9.961,8.992v17.156h0.594c5.131,0,9,4.175,9,9.711c0,5.516-3.953,9.836-9,9.836h-0.594v11.516
		c0,5.117-4.375,9.125-9.961,9.125c-5.679,0-9.961-3.923-9.961-9.125v-11.516h-24.461c-5.197,0-9.117-3.967-9.117-9.227
		c0-1.842,0.408-3.494,1.215-4.914L169.648,95.854z M78.492,169.082c0-12.899,11.367-21.087,22.361-29.005
		c9.344-6.729,18.17-13.087,18.17-20.644c0-1.006-0.285-9.828-10.188-9.828c-8.516,0-8.516,6.133-8.516,8.148
		c0,4.539-3.811,9.234-10.188,9.234c-4.642,0-9.602-2.867-9.602-10.914c0-14.773,12.272-25.914,28.547-25.914
		c17.027,0,29.867,12.48,29.867,29.031c0,17.547-14.576,27.832-26.287,36.096c-6.888,4.859-14.01,9.886-14.01,13.795v1.445h32.258
		c4.893,0,8.875,4.304,8.875,9.594c0,5.359-3.982,9.719-8.875,9.719H88.211c-4.693,0-9.719-3.666-9.719-9.125V169.082z"/>
	<polygon id="XMLID_240_" points="171.992,134.381 164.257,149.652 171.992,149.652 	"/>
</g>
<g>
</g>
<g>
</g>
<g>
</g>
<g>
</g>
<g>
</g>
<g>
</g>
<g>
</g>
<g>
</g>
<g>
</g>
<g>
</g>
<g>
</g>
<g>
</g>
<g>
</g>
<g>
</g>
<g>
</g>
</svg>
