<?xml version="1.0" encoding="iso-8859-1"?>
<!-- Generator: Adobe Illustrator 19.0.0, SVG Export Plug-In . SVG Version: 6.00 Build 0)  -->
<svg version="1.1" id="Layer_1" xmlns="http://www.w3.org/2000/svg" xmlns:xlink="http://www.w3.org/1999/xlink" x="0px" y="0px"
	 viewBox="0 0 330 330" style="enable-background:new 0 0 330 330;" xml:space="preserve">
<g id="XMLID_102_">
	<path id="XMLID_103_" d="M271.904,8.578c-6.308-5.369-15.775-4.609-21.145,1.698s-4.609,15.775,1.698,21.146
		C282.671,57.143,300,94.629,300,134.268c0,8.284,6.716,15,15,15s15-6.716,15-15C330,85.821,308.825,40.01,271.904,8.578z"/>
	<path id="XMLID_104_" d="M58.096,8.58C21.175,40.011,0,85.822,0,134.268c0,8.284,6.716,15,15,15s15-6.716,15-15
		C30,94.63,47.329,57.144,77.543,31.424c6.308-5.371,7.068-14.838,1.698-21.146C73.87,3.969,64.404,3.209,58.096,8.58z"/>
	<path id="XMLID_105_" d="M165,5.001c-8.284,0-15,6.716-15,15v10.343c-50.816,7.301-90,51.119-90,103.924v130.733h-5
		c-8.284,0-15,6.716-15,15c0,8.284,6.716,15,15,15h67.58C128.773,312.459,145.445,325,165,325s36.227-12.541,42.42-29.999H275
		c8.284,0,15-6.716,15-15c0-8.284-6.716-15-15-15h-5V134.268c0-52.805-39.184-96.623-90-103.924V20.001
		C180,11.717,173.284,5.001,165,5.001z"/>
</g>
<g>
</g>
<g>
</g>
<g>
</g>
<g>
</g>
<g>
</g>
<g>
</g>
<g>
</g>
<g>
</g>
<g>
</g>
<g>
</g>
<g>
</g>
<g>
</g>
<g>
</g>
<g>
</g>
<g>
</g>
</svg>
