<?xml version="1.0" encoding="iso-8859-1"?>
<!-- Generator: Adobe Illustrator 19.0.0, SVG Export Plug-In . SVG Version: 6.00 Build 0)  -->
<svg version="1.1" id="Layer_1" xmlns="http://www.w3.org/2000/svg" xmlns:xlink="http://www.w3.org/1999/xlink" x="0px" y="0px"
	 viewBox="0 0 330 330" style="enable-background:new 0 0 330 330;" xml:space="preserve">
<g id="XMLID_91_">
	<path id="XMLID_92_" d="M60,134.267V265h-5c-8.284,0-15,6.716-15,15c0,8.284,6.716,15,15,15h67.58c6.191,17.459,22.865,30,42.42,30
		s36.229-12.541,42.42-30h23.941L60.489,124.128C60.168,127.465,60,130.847,60,134.267z"/>
	<path id="XMLID_93_" d="M69.479,90.691L273.787,295l30.607,30.607C307.323,328.535,311.161,330,315,330
		c3.839,0,7.678-1.465,10.606-4.393c5.858-5.858,5.858-15.355,0-21.213L270,248.787V134.267c0-52.804-39.184-96.622-90-103.923V20
		c0-8.284-6.716-15-15-15s-15,6.716-15,15v10.344c-25.283,3.633-47.685,16.307-63.815,34.628L25.607,4.394
		c-5.857-5.858-15.355-5.858-21.213,0c-5.858,5.857-5.858,15.355,0,21.213L69.479,90.691z"/>
</g>
<g>
</g>
<g>
</g>
<g>
</g>
<g>
</g>
<g>
</g>
<g>
</g>
<g>
</g>
<g>
</g>
<g>
</g>
<g>
</g>
<g>
</g>
<g>
</g>
<g>
</g>
<g>
</g>
<g>
</g>
</svg>
