<?xml version="1.0" encoding="iso-8859-1"?>
<!-- Generator: Adobe Illustrator 19.0.0, SVG Export Plug-In . SVG Version: 6.00 Build 0)  -->
<svg version="1.1" id="Layer_1" xmlns="http://www.w3.org/2000/svg" xmlns:xlink="http://www.w3.org/1999/xlink" x="0px" y="0px"
	 viewBox="0 0 330 330" style="enable-background:new 0 0 330 330;" xml:space="preserve">
<g id="XMLID_12_">
	<path id="XMLID_13_" d="M315,30h-85V15c0-8.284-6.716-15-15-15s-15,6.716-15,15v15h-70V15c0-8.284-6.716-15-15-15s-15,6.716-15,15
		v15H15C6.716,30,0,36.716,0,45v45h330V45C330,36.716,323.284,30,315,30z"/>
	<path id="XMLID_14_" d="M0,315c0,8.284,6.716,15,15,15h300c8.284,0,15-6.716,15-15V120H0V315z M109.394,199.394
		c5.857-5.858,15.355-5.858,21.213,0L150,218.787l49.394-49.393c5.857-5.858,15.355-5.858,21.213,0
		c5.858,5.858,5.858,15.354,0,21.213l-60,60C157.678,253.535,153.839,255,150,255s-7.678-1.465-10.606-4.394l-30-30
		C103.535,214.748,103.535,205.252,109.394,199.394z"/>
</g>
<g>
</g>
<g>
</g>
<g>
</g>
<g>
</g>
<g>
</g>
<g>
</g>
<g>
</g>
<g>
</g>
<g>
</g>
<g>
</g>
<g>
</g>
<g>
</g>
<g>
</g>
<g>
</g>
<g>
</g>
</svg>
