<?xml version="1.0" encoding="iso-8859-1"?>
<!-- Generator: Adobe Illustrator 19.0.0, SVG Export Plug-In . SVG Version: 6.00 Build 0)  -->
<svg version="1.1" id="Layer_1" xmlns="http://www.w3.org/2000/svg" xmlns:xlink="http://www.w3.org/1999/xlink" x="0px" y="0px"
	 viewBox="0 0 330 330" style="enable-background:new 0 0 330 330;" xml:space="preserve">
<g id="XMLID_7_">
	<path id="XMLID_8_" d="M0,315c0,8.284,6.716,15,15,15h300c8.285,0,15-6.716,15-15V120H0V315z M109.394,175.606
		c-5.858-5.857-5.858-15.354,0-21.213c5.857-5.858,15.355-5.858,21.213,0L165,188.787l34.394-34.393
		c5.857-5.858,15.355-5.858,21.213,0c5.857,5.858,5.857,15.355,0,21.213L186.213,210l34.395,34.394
		c5.857,5.857,5.857,15.354,0,21.213C217.678,268.535,213.84,270,210,270c-3.838,0-7.678-1.465-10.606-4.394L165,231.213
		l-34.394,34.394C127.678,268.535,123.838,270,120,270c-3.84,0-7.678-1.465-10.606-4.394c-5.858-5.858-5.858-15.355,0-21.213
		L143.787,210L109.394,175.606z"/>
	<path id="XMLID_11_" d="M315,30h-85V15c0-8.284-6.715-15-15-15c-8.283,0-15,6.716-15,15v15h-70V15c0-8.284-6.716-15-15-15
		s-15,6.716-15,15v15H15C6.716,30,0,36.716,0,45v45h330V45C330,36.716,323.285,30,315,30z"/>
</g>
<g>
</g>
<g>
</g>
<g>
</g>
<g>
</g>
<g>
</g>
<g>
</g>
<g>
</g>
<g>
</g>
<g>
</g>
<g>
</g>
<g>
</g>
<g>
</g>
<g>
</g>
<g>
</g>
<g>
</g>
</svg>
