<?xml version="1.0" encoding="iso-8859-1"?>
<!-- Generator: Adobe Illustrator 19.0.0, SVG Export Plug-In . SVG Version: 6.00 Build 0)  -->
<svg version="1.1" id="Layer_1" xmlns="http://www.w3.org/2000/svg" xmlns:xlink="http://www.w3.org/1999/xlink" x="0px" y="0px"
	 viewBox="0 0 330 330" style="enable-background:new 0 0 330 330;" xml:space="preserve">
<g id="XMLID_221_">
	<path id="XMLID_222_" d="M60,263.432V300H35c-8.284,0-15,6.716-15,15s6.716,15,15,15h40h180h40c8.284,0,15-6.716,15-15
		s-6.716-15-15-15h-25v-36.568c0-38.457-17.363-74.45-46.467-98.434c26.543-21.872,43.314-53.736,46.061-88.349
		c0.021-0.195,0.027-0.396,0.041-0.593c0.234-3.144,0.365-6.308,0.365-9.49V30h25c8.284,0,15-6.716,15-15s-6.716-15-15-15h-40H75H35
		c-8.284,0-15,6.716-15,15s6.716,15,15,15h25v36.566c0,3.249,0.135,6.479,0.379,9.686c0.01,0.116,0.012,0.234,0.024,0.35
		c2.735,34.631,19.509,66.515,46.063,88.396C77.363,188.981,60,224.975,60,263.432z M90,60V30h150v30H90z"/>
</g>
<g>
</g>
<g>
</g>
<g>
</g>
<g>
</g>
<g>
</g>
<g>
</g>
<g>
</g>
<g>
</g>
<g>
</g>
<g>
</g>
<g>
</g>
<g>
</g>
<g>
</g>
<g>
</g>
<g>
</g>
</svg>
