<?xml version="1.0" encoding="iso-8859-1"?>
<!-- Generator: Adobe Illustrator 19.0.0, SVG Export Plug-In . SVG Version: 6.00 Build 0)  -->
<svg version="1.1" id="Layer_1" xmlns="http://www.w3.org/2000/svg" xmlns:xlink="http://www.w3.org/1999/xlink" x="0px" y="0px"
	 viewBox="0 0 330.035 330.035" style="enable-background:new 0 0 330.035 330.035;" xml:space="preserve">
<g id="XMLID_225_">
	<path id="XMLID_226_" d="M317.957,79.211l-85.363-16.979c-5.086-1.48-10.801-0.219-14.811,3.791
		c-1.02,1.019-1.852,2.154-2.516,3.356c-0.029,0.054-0.064,0.104-0.094,0.157c-0.158,0.295-0.295,0.596-0.432,0.898
		c-0.074,0.162-0.156,0.318-0.225,0.484c-0.078,0.191-0.141,0.389-0.211,0.582c-0.268,0.726-0.498,1.473-0.652,2.256l-17.24,86.668
		c-1.617,8.125,3.66,16.023,11.785,17.639c0.988,0.196,1.973,0.291,2.941,0.291c7.012,0,13.277-4.939,14.697-12.076l10.742-54.005
		c8.76,15.987,13.42,34.007,13.42,52.743c0,60.654-49.346,110-110,110s-110-49.346-110-110s49.346-110,110-110
		c8.285,0,15-6.716,15-15s-6.715-15-15-15c-77.195,0-140,62.804-140,140s62.805,140,140,140c77.197,0,140-62.804,140-140
		c0-23.425-5.717-45.971-16.486-66.048l48.592,9.665c8.125,1.616,16.022-3.661,17.639-11.785
		C331.359,88.725,326.084,80.827,317.957,79.211z"/>
	<path id="XMLID_227_" d="M83.363,162.7c-10.992,7.918-22.361,16.106-22.361,29.005v11.633c0,5.459,5.025,9.125,9.719,9.125h42.695
		c4.895,0,8.875-4.359,8.875-9.719c0-5.29-3.98-9.594-8.875-9.594H81.158v-1.445c0-3.909,7.123-8.936,14.01-13.795
		c11.713-8.264,26.287-18.549,26.287-36.096c0-16.551-12.84-29.031-29.867-29.031c-16.273,0-28.547,11.141-28.547,25.914
		c0,8.047,4.961,10.914,9.602,10.914c6.377,0,10.188-4.695,10.188-9.234c0-2.016,0-8.148,8.516-8.148
		c9.902,0,10.188,8.822,10.188,9.828C101.533,149.613,92.707,155.971,83.363,162.7z"/>
	<path id="XMLID_228_" d="M152.158,118.477l-30.02,59.205c-0.807,1.42-1.215,3.072-1.215,4.914c0,5.26,3.92,9.227,9.117,9.227
		h24.461v11.516c0,5.202,4.283,9.125,9.961,9.125c5.586,0,9.961-4.008,9.961-9.125v-11.516h0.594c5.047,0,9-4.32,9-9.836
		c0-5.536-3.869-9.711-9-9.711h-0.594v-17.156c0-5.127-4.281-8.992-9.961-8.992c-1.863,0-3.576,0.416-5.037,1.157l10.633-20.993
		c0.072-0.146,0.141-0.294,0.203-0.445c0.547-1.344,0.803-2.559,0.803-3.82c0-5.447-5.188-9.242-9.844-9.242
		C157.32,112.783,153.926,114.926,152.158,118.477z M154.502,172.275h-7.734l7.734-15.271V172.275z"/>
</g>
<g>
</g>
<g>
</g>
<g>
</g>
<g>
</g>
<g>
</g>
<g>
</g>
<g>
</g>
<g>
</g>
<g>
</g>
<g>
</g>
<g>
</g>
<g>
</g>
<g>
</g>
<g>
</g>
<g>
</g>
</svg>
