<?xml version="1.0" encoding="iso-8859-1"?>
<!-- Generator: Adobe Illustrator 19.0.0, SVG Export Plug-In . SVG Version: 6.00 Build 0)  -->
<svg version="1.1" id="Layer_1" xmlns="http://www.w3.org/2000/svg" xmlns:xlink="http://www.w3.org/1999/xlink" x="0px" y="0px"
	 viewBox="0 0 330.036 330.036" style="enable-background:new 0 0 330.036 330.036;" xml:space="preserve">
<g id="XMLID_231_">
	<path id="XMLID_232_" d="M317.96,79.211l-85.363-16.979c-5.086-1.48-10.801-0.219-14.813,3.791
		c-1.029,1.029-1.867,2.176-2.535,3.39c-0.021,0.04-0.047,0.078-0.07,0.118c-0.164,0.308-0.309,0.623-0.449,0.938
		c-0.068,0.15-0.145,0.294-0.207,0.446c-0.086,0.206-0.152,0.419-0.229,0.628c-0.26,0.714-0.486,1.447-0.639,2.215l-17.24,86.668
		c-1.615,8.125,3.66,16.023,11.785,17.639c0.988,0.196,1.973,0.291,2.943,0.291c7.01,0,13.275-4.939,14.695-12.076l10.742-54.004
		c8.76,15.986,13.42,34.005,13.42,52.742c0,60.654-49.346,110-110.001,110c-60.654,0-110-49.346-110-110s49.346-110,110-110
		c8.284,0,15-6.716,15-15s-6.716-15-15-15c-77.196,0-140,62.804-140,140s62.804,140,140,140c77.196,0,140-62.804,140-140
		c0-23.426-5.717-45.971-16.484-66.048l48.592,9.665c8.125,1.616,16.021-3.661,17.637-11.785
		C331.362,88.725,326.085,80.828,317.96,79.211z"/>
	<path id="XMLID_233_" d="M140.002,85.133c-8.284,0-15,6.715-15,15v49.98H75.02c-8.284,0-15,6.717-15,15c0,8.285,6.716,15,15,15
		h64.982c8.284,0,15-6.715,15-15v-64.98C155.002,91.848,148.286,85.133,140.002,85.133z"/>
</g>
<g>
</g>
<g>
</g>
<g>
</g>
<g>
</g>
<g>
</g>
<g>
</g>
<g>
</g>
<g>
</g>
<g>
</g>
<g>
</g>
<g>
</g>
<g>
</g>
<g>
</g>
<g>
</g>
<g>
</g>
</svg>
