<?xml version="1.0" encoding="iso-8859-1"?>
<!-- Generator: Adobe Illustrator 19.0.0, SVG Export Plug-In . SVG Version: 6.00 Build 0)  -->
<svg xmlns="http://www.w3.org/2000/svg" xmlns:xlink="http://www.w3.org/1999/xlink" version="1.1" id="Layer_1" x="0px" y="0px" viewBox="0 0 512 512" style="enable-background:new 0 0 512 512;" xml:space="preserve">
<g>
	<g>
		<path d="M256,0C115.39,0,0,115.39,0,256s115.39,256,256,256s256-115.39,256-256S396.61,0,256,0z M271,30.76    C383.092,38.203,473.797,128.908,481.24,241h-30C443.912,145.452,366.548,68.088,271,60.76V30.76z M271,90.76    c79.021,7.165,143.075,71.219,150.24,150.24h-30.756C383.473,178.675,333.325,128.527,271,121.516V90.76z M421.24,271L421.24,271    c-7.165,79.021-71.219,143.075-150.24,150.24v-30.756c62.325-7.011,112.473-57.158,119.484-119.484H421.24z M241,30.76v30    C145.452,68.088,68.088,145.452,60.76,241h-30C38.203,128.908,128.908,38.203,241,30.76z M241,90.76v30.756    C178.675,128.527,128.527,178.675,121.516,241H90.76C97.925,161.979,161.979,97.925,241,90.76z M241,481.24    C128.908,473.797,38.203,383.092,30.76,271h30c7.328,95.548,84.692,172.912,180.24,180.24V481.24z M241,421.24    C161.979,414.075,97.925,350.021,90.76,271h30.756c7.011,62.325,57.158,112.473,119.484,119.484V421.24z M241,256v-61    c0-8.291,6.709-15,15-15s15,6.709,15,15v46h46c8.291,0,15,6.709,15,15s-6.709,15-15,15h-61C247.709,271,241,264.291,241,256z     M271,481.24v-30c95.548-7.328,172.912-84.692,180.24-180.24h30C473.797,383.092,383.092,473.797,271,481.24z"/>
	</g>
</g>
<g>
</g>
<g>
</g>
<g>
</g>
<g>
</g>
<g>
</g>
<g>
</g>
<g>
</g>
<g>
</g>
<g>
</g>
<g>
</g>
<g>
</g>
<g>
</g>
<g>
</g>
<g>
</g>
<g>
</g>
</svg>
