<?xml version="1.0" encoding="iso-8859-1"?>
<!-- Generator: Adobe Illustrator 19.0.0, SVG Export Plug-In . SVG Version: 6.00 Build 0)  -->
<svg xmlns="http://www.w3.org/2000/svg" xmlns:xlink="http://www.w3.org/1999/xlink" version="1.1" id="Layer_1" x="0px" y="0px" viewBox="0 0 511.999 511.999" style="enable-background:new 0 0 511.999 511.999;" xml:space="preserve">
<g>
	<g>
		<path d="M465.999,118.732c-24.814,0-45,20.186-45,45c0,24.814,20.186,45,45,45c24.814,0,46-20.186,46-45    C511.999,138.918,490.814,118.732,465.999,118.732z"/>
	</g>
</g>
<g>
	<g>
		<path d="M360.999,0.25v58.482h58.482C413.501,29.39,390.342,6.23,360.999,0.25z"/>
	</g>
</g>
<g>
	<g>
		<path d="M345.999,88.732c-8.291,0-15-6.709-15-15V0.25c-34.191,6.969-60,37.266-60,73.482c0,41.353,33.647,75,75,75    c36.217,0,66.513-25.808,73.482-60H345.999z"/>
	</g>
</g>
<g>
	<g>
		<path d="M382.21,370.521l-71.602-71.602l74.385-102.185c14.736-19.638,0.659-48.003-23.994-48.003h-15h-67.925l-53.672-26.851    c-14.711-7.355-32.765-1.538-40.239,13.433c-7.397,14.795-1.377,32.856,13.418,40.254l60,30c4.131,2.065,8.789,3.164,13.433,3.164    h30l-54.009,75.012c-8.906,11.851-7.705,28.711,2.783,39.199l76.89,76.89c-2.804,8.411-21.868,65.204-24.304,73.729    l-78.602-14.291l63.867-42.578c0.939-0.626,1.67-1.458,2.521-2.173l2.195-6.586l-51.357-51.357v19.102l-76.641,51.094    c-6.65,4.438-11.177,11.206-12.759,19.072c-0.02,0.103,0.02,0.201,0,0.304L17.68,421.981c-8.159-1.494-15.952,3.911-17.432,12.07    c-1.494,8.145,3.911,15.952,12.07,17.432c177.518,32.277,118.168,21.304,302.382,54.796l28.618,5.204    c10.8,2.09,21.384-8.468,16.229-20.519l29.914-89.74C393.079,390.355,390.311,378.593,382.21,370.521z"/>
	</g>
</g>
<g>
</g>
<g>
</g>
<g>
</g>
<g>
</g>
<g>
</g>
<g>
</g>
<g>
</g>
<g>
</g>
<g>
</g>
<g>
</g>
<g>
</g>
<g>
</g>
<g>
</g>
<g>
</g>
<g>
</g>
</svg>
