<?xml version="1.0" encoding="iso-8859-1"?>
<!-- Generator: Adobe Illustrator 19.0.0, SVG Export Plug-In . SVG Version: 6.00 Build 0)  -->
<svg xmlns="http://www.w3.org/2000/svg" xmlns:xlink="http://www.w3.org/1999/xlink" version="1.1" id="Layer_1" x="0px" y="0px" viewBox="0 0 512 512" style="enable-background:new 0 0 512 512;" xml:space="preserve">
<g>
	<g>
		<path d="M506.509,325.914L418.316,407l88.193,81.086C509.898,481.767,512,474.659,512,467V347    C512,339.341,509.898,332.233,506.509,325.914z"/>
	</g>
</g>
<g>
	<g>
		<path d="M467,302H256c-6.114,0-11.937,1.247-17.256,3.466L362,416.932l122.256-111.465C478.937,303.247,473.114,302,467,302z"/>
	</g>
</g>
<g>
	<g>
		<path d="M395.75,427.06l-23.789,21.147c-5.623,5.013-14.207,5.096-19.922,0L328.25,427.06l-89.64,81.434    C243.964,510.746,249.837,512,256,512h211c6.163,0,12.036-1.254,17.39-3.506L395.75,427.06z"/>
	</g>
</g>
<g>
	<g>
		<path d="M216.491,325.914C213.102,332.233,211,339.341,211,347v120c0,7.659,2.102,14.767,5.491,21.086L304.684,407    L216.491,325.914z"/>
	</g>
</g>
<g>
	<g>
		<path d="M226,90c-74.443,0-136,62.557-136,137c0,58.588,38.734,108.071,91,126.707V347c0-41.353,33.647-75,75-75h98.167    c5.063-14.308,7.833-29.418,7.833-45C362,152.557,300.443,90,226,90z M317,242h-91c-8.291,0-15-6.709-15-15v-92    c0-8.291,6.709-15,15-15s15,6.709,15,15v77h76c8.291,0,15,6.709,15,15S325.291,242,317,242z"/>
	</g>
</g>
<g>
	<g>
		<path d="M226,0C101.928,0,0,102.928,0,227c0,108.664,78.421,199.561,181,220.464v-61.86C111.85,365.95,60,302.366,60,227    c0-90.981,75.019-167,166-167s166,76.019,166,167c0,15.471-2.518,30.485-6.627,45h61.924c2.992-14.696,4.702-29.694,4.702-45    C452,102.928,350.072,0,226,0z"/>
	</g>
</g>
<g>
</g>
<g>
</g>
<g>
</g>
<g>
</g>
<g>
</g>
<g>
</g>
<g>
</g>
<g>
</g>
<g>
</g>
<g>
</g>
<g>
</g>
<g>
</g>
<g>
</g>
<g>
</g>
<g>
</g>
</svg>
