<?xml version="1.0" encoding="iso-8859-1"?>
<!-- Generator: Adobe Illustrator 19.0.0, SVG Export Plug-In . SVG Version: 6.00 Build 0)  -->
<svg xmlns="http://www.w3.org/2000/svg" xmlns:xlink="http://www.w3.org/1999/xlink" version="1.1" id="Layer_1" x="0px" y="0px" viewBox="0 0 512 512" style="enable-background:new 0 0 512 512;" xml:space="preserve">
<g>
	<g>
		<path d="M256,166c-49.629,0-90,40.371-90,90c0,49.629,40.371,90,90,90c49.629,0,90-40.371,90-90C346,206.371,305.629,166,256,166z     M271,256c0,5.88-4.807,12.691-10.884,14.429l-43.271,12.363c-8.297,2.294-16.339-2.615-18.545-10.313    c-2.271-7.954,2.344-16.259,10.312-18.544L241,244.68V211c0-8.291,6.709-15,15-15s15,6.709,15,15V256z"/>
	</g>
</g>
<g>
	<g>
		<path d="M256,76c-8.291,0-15,6.709-15,15v46.516c4.968-0.63,9.864-1.516,15-1.516c66.167,0,120,53.833,120,120    s-53.833,120-120,120c-59.951,0-109.33-44.33-118.163-101.849l-44.625,12.757c-7.991,2.287-12.574,10.635-10.298,18.56    C104.901,382.328,176.078,436,256,436c99.258,0,180-80.742,180-180S355.258,76,256,76z"/>
	</g>
</g>
<g>
	<g>
		<path d="M256,0c-8.291,0-15,6.709-15,15v31c0,8.291,6.709,15,15,15s15-6.709,15-15V15C271,6.709,264.291,0,256,0z"/>
	</g>
</g>
<g>
	<g>
		<path d="M256,451c-8.291,0-15,6.709-15,15v31c0,8.291,6.709,15,15,15s15-6.709,15-15v-31C271,457.709,264.291,451,256,451z"/>
	</g>
</g>
<g>
	<g>
		<path d="M497,241h-30c-8.291,0-16,6.709-16,15s7.709,15,16,15h30c8.291,0,15-6.709,15-15C512,247.709,505.291,241,497,241z"/>
	</g>
</g>
<g>
	<g>
		<path d="M46,241H15c-8.291,0-15,6.709-15,15s6.709,15,15,15h31c8.291,0,15-6.709,15-15C61,247.709,54.291,241,46,241z"/>
	</g>
</g>
<g>
	<g>
		<path d="M436.308,415.097l-21.211-21.211c-5.859-5.859-15.352-5.859-21.211,0s-5.859,15.352,0,21.211l21.211,21.211    c5.859,5.859,15.352,5.859,21.211,0S442.167,420.956,436.308,415.097z"/>
	</g>
</g>
<g>
	<g>
		<path d="M118.114,96.903L96.903,75.692c-5.859-5.859-15.352-5.859-21.211,0s-5.859,15.352,0,21.211l21.211,21.211    c5.859,5.859,15.352,5.859,21.211,0S123.973,102.762,118.114,96.903z"/>
	</g>
</g>
<g>
	<g>
		<path d="M118.114,393.886c-5.859-5.859-15.352-5.859-21.211,0l-21.211,21.211c-5.859,5.859-5.859,15.351,0,21.211    c5.859,5.859,15.352,5.859,21.211,0l21.211-21.211C123.973,409.238,123.973,399.745,118.114,393.886z"/>
	</g>
</g>
<g>
	<g>
		<path d="M436.308,75.692c-5.859-5.859-15.352-5.859-21.211,0l-21.211,21.211c-5.859,5.859-5.859,15.352,0,21.211    s15.352,5.859,21.211,0l21.211-21.211C442.167,91.044,442.167,81.552,436.308,75.692z"/>
	</g>
</g>
<g>
</g>
<g>
</g>
<g>
</g>
<g>
</g>
<g>
</g>
<g>
</g>
<g>
</g>
<g>
</g>
<g>
</g>
<g>
</g>
<g>
</g>
<g>
</g>
<g>
</g>
<g>
</g>
<g>
</g>
</svg>
