<?xml version="1.0" encoding="iso-8859-1"?>
<!-- Generator: Adobe Illustrator 19.0.0, SVG Export Plug-In . SVG Version: 6.00 Build 0)  -->
<svg xmlns="http://www.w3.org/2000/svg" xmlns:xlink="http://www.w3.org/1999/xlink" version="1.1" id="Layer_1" x="0px" y="0px" viewBox="0 0 512 512" style="enable-background:new 0 0 512 512;" xml:space="preserve">
<g>
	<g>
		<path d="M484.941,27.939c-35.233-35.208-95.651-34.684-136.178-9.267c65.994,25.903,118.54,78.448,144.444,144.443    C518.615,122.595,520.16,63.17,484.941,27.939z"/>
	</g>
</g>
<g>
	<g>
		<path d="M241.004,285.871v-14.996h-34.005c-11.571,0-18.741-12.564-12.99-22.494c5.756-9.912-1.434-22.494-12.99-22.494    c-11.556,0-18.745,12.582-12.99,22.494c5.752,9.93-1.419,22.494-12.99,22.494h-32.49c7.009,62.309,56.144,111.444,118.453,118.453    v-13.481c-24.809,0-44.988-20.18-44.988-44.988C196.015,306.052,216.196,285.871,241.004,285.871z"/>
	</g>
</g>
<g>
	<g>
		<path d="M263.498,167.909c-9.826,5.651-22.494-1.894-22.494-12.99v-32.49c-62.309,7.009-111.444,56.144-118.453,118.453h13.481    c0-24.808,20.18-44.988,44.988-44.988c24.808,0,44.988,20.181,44.988,44.988h14.996v-34.005c0-11.06,12.668-18.661,22.494-12.99    c9.461,5.507,22.509-2.079,22.494-12.99C286.007,169.988,272.943,162.475,263.498,167.909z"/>
	</g>
</g>
<g>
	<g>
		<path d="M270.996,122.429v13.481c24.808,0,44.988,20.181,44.988,44.988c0,24.808-20.181,44.988-44.988,44.988v14.996h34.005    c11.258,0,18.577,12.88,12.99,22.494c-5.755,9.912,1.434,22.494,12.99,22.494s18.745-12.582,12.99-22.494    c-5.578-9.599,1.74-22.494,12.99-22.494h32.49C382.44,178.574,333.306,129.439,270.996,122.429z"/>
	</g>
</g>
<g>
	<g>
		<path d="M256,30.937c-124.04,0-224.942,100.902-224.942,224.942S131.96,480.821,256,480.821s224.942-100.902,224.942-224.942    S380.04,30.937,256,30.937z M256,420.836c-90.958,0-164.957-74-164.957-164.957S165.041,90.921,256,90.921    c90.958,0,164.957,74,164.957,164.957S346.957,420.836,256,420.836z"/>
	</g>
</g>
<g>
	<g>
		<path d="M375.969,270.875c0,24.809-20.181,44.988-44.988,44.988c-24.808,0-44.988-20.181-44.988-44.988h-14.996v34.005    c0,5.36-2.855,10.31-7.498,12.99c-4.657,2.665-10.368,2.665-14.996,0c-9.373-5.434-22.479,2.079-22.494,12.99    c0,10.91,13.107,18.481,22.494,12.99c4.628-2.665,10.339-2.665,14.996,0c4.643,2.68,7.498,7.63,7.498,12.99v32.49    c62.309-7.009,111.444-56.143,118.453-118.453H375.969z"/>
	</g>
</g>
<g>
	<g>
		<path d="M27.059,26.938C-8.16,62.169-6.615,122.594,18.793,163.114C44.695,97.122,97.243,44.575,163.235,18.672    C122.718-6.736,62.303-8.28,27.059,26.938z"/>
	</g>
</g>
<g>
	<g>
		<path d="M452.109,492.818l-17.39-55.428c-20.849,20.531-45.276,37.338-72.147,49.772l70.382,24.035    C444.254,515.034,455.457,504.488,452.109,492.818z"/>
	</g>
</g>
<g>
	<g>
		<path d="M77.28,437.39l-17.39,55.428c-3.348,11.67,7.855,22.216,19.155,18.379l70.382-24.035    C122.556,474.728,98.129,457.921,77.28,437.39z"/>
	</g>
</g>
<g>
</g>
<g>
</g>
<g>
</g>
<g>
</g>
<g>
</g>
<g>
</g>
<g>
</g>
<g>
</g>
<g>
</g>
<g>
</g>
<g>
</g>
<g>
</g>
<g>
</g>
<g>
</g>
<g>
</g>
</svg>
