<?xml version="1.0" encoding="iso-8859-1"?>
<!-- Generator: Adobe Illustrator 19.0.0, SVG Export Plug-In . SVG Version: 6.00 Build 0)  -->
<svg xmlns="http://www.w3.org/2000/svg" xmlns:xlink="http://www.w3.org/1999/xlink" version="1.1" id="Layer_1" x="0px" y="0px" viewBox="0 0 512 512" style="enable-background:new 0 0 512 512;" xml:space="preserve">
<g>
	<g>
		<path d="M256,286c-57.891,0-105,47.109-105,105s47.109,105,105,105s105-47.109,105-105S313.891,286,256,286z M316,406h-60    c-8.291,0-15-6.709-15-15v-60c0-8.291,6.709-15,15-15s15,6.709,15,15v45h45c8.291,0,15,6.709,15,15    C331,399.291,324.291,406,316,406z"/>
	</g>
</g>
<g>
	<g>
		<path d="M91,76c-33.091,0-60,26.909-60,60s26.909,60,60,60s60-26.909,60-60S124.091,76,91,76z"/>
	</g>
</g>
<g>
	<g>
		<path d="M421,76c-33.091,0-60,26.909-60,60s26.909,60,60,60s60-26.909,60-60S454.091,76,421,76z"/>
	</g>
</g>
<g>
	<g>
		<path d="M256,16c-41.353,0-75,33.647-75,75c0,41.353,33.647,75,75,75c41.353,0,75-33.647,75-75C331,49.647,297.353,16,256,16z"/>
	</g>
</g>
<g>
	<g>
		<path d="M421,196c-11.483,0-22.52,2.767-32.97,6.925C409.001,230.812,421,264.91,421,301v60c0,5.284-1.082,10.285-2.763,15H497    c8.291,0,15-6.709,15-15v-75C512,236.371,470.629,196,421,196z"/>
	</g>
</g>
<g>
	<g>
		<path d="M91,301c0-36.097,12.028-70.177,33.001-98.062C113.542,198.77,102.495,196,91,196c-49.629,0-91,40.371-91,90v75    c0,8.291,6.709,15,15,15h78.763C92.082,371.285,91,366.284,91,361V301z"/>
	</g>
</g>
<g>
	<g>
		<path d="M256,166c-70.919,0-135,58.748-135,135v60c0,2.781,0.959,5.24,2.276,7.473C134.076,304.772,189.271,256,256,256    s121.924,48.772,132.724,112.473C390.041,366.24,391,363.781,391,361v-60C391,225.299,327.49,166,256,166z M256,243.959    l-28.931-43.396C236.322,197.888,245.898,196,256,196s19.678,1.888,28.931,4.563L256,243.959z"/>
	</g>
</g>
<g>
</g>
<g>
</g>
<g>
</g>
<g>
</g>
<g>
</g>
<g>
</g>
<g>
</g>
<g>
</g>
<g>
</g>
<g>
</g>
<g>
</g>
<g>
</g>
<g>
</g>
<g>
</g>
<g>
</g>
</svg>
