<?xml version="1.0" encoding="iso-8859-1"?>
<!-- Generator: Adobe Illustrator 19.0.0, SVG Export Plug-In . SVG Version: 6.00 Build 0)  -->
<svg xmlns="http://www.w3.org/2000/svg" xmlns:xlink="http://www.w3.org/1999/xlink" version="1.1" id="Layer_1" x="0px" y="0px" viewBox="0 0 512 512" style="enable-background:new 0 0 512 512;" xml:space="preserve">
<g>
	<g>
		<path d="M497,458.5H361.835l27.627-110.508c4.263-12.803-0.601-26.968-11.821-34.453l-67.969-45.308l48.164-96.313    C367.777,152.07,353.108,128.5,331,128.5h-19.607L201.566,84.569c-7.646-3.091-16.421,0.659-19.497,8.364    c-3.076,7.69,0.674,16.421,8.364,19.497l44.028,17.611c-2.318,0.533-4.761,0.564-6.879,1.622l-55.743,27.872l-23.813-48.82    c-3.618-7.441-12.524-10.532-20.054-6.899L20.116,156.42c-7.412,3.615-10.543,12.581-6.899,20.054l65.757,134.81    c3.615,7.434,12.629,10.534,20.054,6.899l107.856-52.603c7.412-3.615,10.543-12.581,6.899-20.054l-15.635-32.056l49.927-24.97    h34.38l-38.291,76.582c-6.753,13.491-2.358,30,10.195,38.379l70.928,47.285l-22.749,98.276c-1.046,3.138-1.179,6.324-1.181,9.478    H15c-8.291,0-15,6.709-15,15c0,8.291,6.709,15,15,15h482c8.291,0,15-6.709,15-15C512,465.209,505.291,458.5,497,458.5z"/>
	</g>
</g>
<g>
	<g>
		<path d="M237.719,328.422c-6.879-4.59-12.404-10.466-16.708-17.032l-3.287,6.573L104.36,373.539    c-13.708,9.129-17.562,27.724-8.32,41.602c8.818,13.217,26.947,17.855,41.586,8.32l120.015-60    c4.321-2.886,7.852-6.885,10.195-11.543l1.282-2.565L237.719,328.422z"/>
	</g>
</g>
<g>
	<g>
		<path d="M451,188.5h-47.578l-14.709-14.709c-1.046,3.92-2.19,7.833-4.056,11.559l-23.079,46.15l8.21,8.21    c5.67,5.67,13.199,8.79,21.212,8.79h60c16.538,0,30-13.462,30-30C481,201.962,467.538,188.5,451,188.5z"/>
	</g>
</g>
<g>
	<g>
		<path d="M391,23.5c-24.814,0-45,20.186-45,45c0,24.814,20.186,45,45,45c24.814,0,45-20.186,45-45S415.814,23.5,391,23.5z"/>
	</g>
</g>
<g>
</g>
<g>
</g>
<g>
</g>
<g>
</g>
<g>
</g>
<g>
</g>
<g>
</g>
<g>
</g>
<g>
</g>
<g>
</g>
<g>
</g>
<g>
</g>
<g>
</g>
<g>
</g>
<g>
</g>
</svg>
