<?xml version="1.0" encoding="iso-8859-1"?>
<!-- Generator: Adobe Illustrator 19.0.0, SVG Export Plug-In . SVG Version: 6.00 Build 0)  -->
<svg xmlns="http://www.w3.org/2000/svg" xmlns:xlink="http://www.w3.org/1999/xlink" version="1.1" id="Layer_1" x="0px" y="0px" viewBox="0 0 512 512" style="enable-background:new 0 0 512 512;" xml:space="preserve">
<g>
	<g>
		<path d="M0,362v15c0,24.814,20.186,45,45,45h136v30h150v-30h136c24.814,0,45-20.186,45-45v-15H0z"/>
	</g>
</g>
<g>
	<g>
		<path d="M256,92c-49.629,0-90,40.371-90,90c0,49.629,40.371,90,90,90c49.629,0,90-40.371,90-90C346,132.371,305.629,92,256,92z     M301,197h-45c-8.291,0-15-6.709-15-15v-45c0-8.291,6.709-15,15-15s15,6.709,15,15v30h30c8.291,0,15,6.709,15,15    S309.291,197,301,197z"/>
	</g>
</g>
<g>
	<g>
		<path d="M467,0H45C20.186,0,0,20.186,0,45v287h512V45C512,20.186,491.814,0,467,0z M256,302c-66.167,0-120-53.833-120-120    S189.833,62,256,62s120,53.833,120,120S322.167,302,256,302z"/>
	</g>
</g>
<g>
	<g>
		<path d="M376,482H136c-8.291,0-15,6.709-15,15c0,8.291,6.709,15,15,15h240c8.291,0,15-6.709,15-15    C391,488.709,384.291,482,376,482z"/>
	</g>
</g>
<g>
</g>
<g>
</g>
<g>
</g>
<g>
</g>
<g>
</g>
<g>
</g>
<g>
</g>
<g>
</g>
<g>
</g>
<g>
</g>
<g>
</g>
<g>
</g>
<g>
</g>
<g>
</g>
<g>
</g>
</svg>
