<?xml version="1.0" encoding="iso-8859-1"?>
<!-- Generator: Adobe Illustrator 19.0.0, SVG Export Plug-In . SVG Version: 6.00 Build 0)  -->
<svg xmlns="http://www.w3.org/2000/svg" xmlns:xlink="http://www.w3.org/1999/xlink" version="1.1" id="Layer_1" x="0px" y="0px" viewBox="0 0 512 512" style="enable-background:new 0 0 512 512;" xml:space="preserve">
<g>
	<g>
		<path d="M377,0c-74.559,0-135,60.441-135,135s60.441,135,135,135s135-60.441,135-135S451.559,0,377,0z M437,150h-60    c-8.291,0-15-6.709-15-15V75c0-8.291,6.709-15,15-15c8.291,0,15,6.709,15,15v45h45c8.291,0,15,6.709,15,15S445.291,150,437,150z"/>
	</g>
</g>
<g>
	<g>
		<path d="M497,390h-90c-8.291,0-15,6.709-15,15v77h-30V315c0-8.291-6.709-15-15-15h-90c-8.291,0-15,6.709-15,15v167h-30V165    c0-8.291-6.709-15-15-15h-92c-8.291,0-15,6.709-15,15v317H60V51.211l4.395,4.395c5.859,5.859,15.352,5.859,21.211,0    s5.859-15.352,0-21.211L55.624,4.413c-5.852-5.867-15.419-5.843-21.248,0L4.395,34.395c-5.859,5.859-5.859,15.352,0,21.211    s15.352,5.859,21.211,0L30,51.211V497c0,8.291,6.709,15,15,15c96.279,0,355.802,0,452,0c8.291,0,15-6.709,15-15v-92    C512,396.709,505.291,390,497,390z"/>
	</g>
</g>
<g>
</g>
<g>
</g>
<g>
</g>
<g>
</g>
<g>
</g>
<g>
</g>
<g>
</g>
<g>
</g>
<g>
</g>
<g>
</g>
<g>
</g>
<g>
</g>
<g>
</g>
<g>
</g>
<g>
</g>
</svg>
