<?xml version="1.0" encoding="iso-8859-1"?>
<!-- Generator: Adobe Illustrator 19.0.0, SVG Export Plug-In . SVG Version: 6.00 Build 0)  -->
<svg xmlns="http://www.w3.org/2000/svg" xmlns:xlink="http://www.w3.org/1999/xlink" version="1.1" id="Layer_1" x="0px" y="0px" viewBox="0 0 512 512" style="enable-background:new 0 0 512 512;" xml:space="preserve">
<g>
	<g>
		<path d="M256,141.149c-74.443,0-136,60.557-136,135s61.557,135,136,135s136-60.557,136-135S330.443,141.149,256,141.149z     M317,291.149h-61c-8.291,0-15-6.709-15-15v-60c0-8.291,6.709-15,15-15s15,6.709,15,15v45h46c8.291,0,15,6.709,15,15    C332,284.44,325.291,291.149,317,291.149z"/>
	</g>
</g>
<g>
	<g>
		<path d="M332,111.149c-10.734,0-21.044,2.512-30.908,6.161c55.552,15.447,99.3,59.195,114.747,114.747    c3.649-9.864,6.161-20.175,6.161-30.908C422,151.52,381.629,111.149,332,111.149z"/>
	</g>
</g>
<g>
	<g>
		<path d="M180,111.149c-49.629,0-90,40.371-90,90c0,10.734,2.512,21.044,6.161,30.908c15.447-55.552,59.197-99.3,114.749-114.747    C201.046,113.661,190.734,111.149,180,111.149z"/>
	</g>
</g>
<g>
	<g>
		<path d="M286,51.149h-61c-19.589,0-36.119,12.658-42.286,30.163c26.517,0.61,52.896,10.074,73.292,26.393    c20.401-16.322,46.769-25.783,73.28-26.393C323.119,63.807,305.589,51.149,286,51.149z"/>
	</g>
</g>
<g>
	<g>
		<path d="M497,261.149c-8.291,0-15,6.709-15,15c0,60.103-23.408,116.602-65.903,159.097c-5.859,5.859-5.859,15.352,0,21.211    s15.352,5.859,21.211,0C485.472,408.292,512,344.264,512,276.149C512,267.858,505.291,261.149,497,261.149z"/>
	</g>
</g>
<g>
	<g>
		<path d="M95.903,435.246C53.408,392.75,30,336.251,30,276.149c0-8.291-6.709-15-15-15s-15,6.709-15,15    c0,68.115,26.528,132.144,74.692,180.308c5.86,5.859,15.352,5.859,21.211,0S101.762,441.105,95.903,435.246z"/>
	</g>
</g>
<g>
	<g>
		<path d="M437,261.149c-8.291,0-15,6.709-15,15c0,44.004-17.183,85.415-48.384,116.616c-5.859,5.859-5.859,15.352,0,21.211    s15.352,5.859,21.211,0c36.87-36.87,57.173-85.81,57.173-137.827C452,267.858,445.291,261.149,437,261.149z"/>
	</g>
</g>
<g>
	<g>
		<path d="M138.384,392.765C107.183,361.564,90,320.153,90,276.149c0-8.291-6.709-15-15-15s-15,6.709-15,15    c0,52.017,20.303,100.957,57.173,137.827c5.859,5.859,15.351,5.859,21.211,0C144.243,408.117,144.243,398.624,138.384,392.765z"/>
	</g>
</g>
<g>
</g>
<g>
</g>
<g>
</g>
<g>
</g>
<g>
</g>
<g>
</g>
<g>
</g>
<g>
</g>
<g>
</g>
<g>
</g>
<g>
</g>
<g>
</g>
<g>
</g>
<g>
</g>
<g>
</g>
</svg>
