<?xml version="1.0" encoding="iso-8859-1"?>
<!-- Generator: Adobe Illustrator 19.0.0, SVG Export Plug-In . SVG Version: 6.00 Build 0)  -->
<svg xmlns="http://www.w3.org/2000/svg" xmlns:xlink="http://www.w3.org/1999/xlink" version="1.1" id="Layer_1" x="0px" y="0px" viewBox="0 0 512 512" style="enable-background:new 0 0 512 512;" xml:space="preserve">
<g>
	<g>
		<path d="M451,362H61c-16.569,0-30,13.431-30,30c0,16.567,13.431,30,30,30h390c16.569,0,30-13.433,30-30    C481,375.431,467.569,362,451,362z"/>
	</g>
</g>
<g>
	<g>
		<path d="M391,240.439V195c0-58.588-37.734-108.071-90-126.707V45c0-24.814-20.186-45-45-45c-24.814,0-45,20.186-45,45v23.293    C158.734,86.929,121,136.412,121,195v45.439c0,33.263-8.714,64.021-27.145,91.561h324.291    C399.714,304.461,391,273.702,391,240.439z M271,61.516C266.01,60.954,261.136,60,256,60s-10.01,0.954-15,1.516V45    c0-8.276,6.724-15,15-15s15,6.724,15,15V61.516z"/>
	</g>
</g>
<g>
	<g>
		<path d="M182.518,452c6.969,34.191,37.266,60,73.482,60s66.513-25.809,73.482-60H182.518z"/>
	</g>
</g>
<g>
</g>
<g>
</g>
<g>
</g>
<g>
</g>
<g>
</g>
<g>
</g>
<g>
</g>
<g>
</g>
<g>
</g>
<g>
</g>
<g>
</g>
<g>
</g>
<g>
</g>
<g>
</g>
<g>
</g>
</svg>
