<?xml version="1.0" encoding="iso-8859-1"?>
<!-- Generator: Adobe Illustrator 19.0.0, SVG Export Plug-In . SVG Version: 6.00 Build 0)  -->
<svg xmlns="http://www.w3.org/2000/svg" xmlns:xlink="http://www.w3.org/1999/xlink" version="1.1" id="Layer_1" x="0px" y="0px" viewBox="0 0 512 512" style="enable-background:new 0 0 512 512;" xml:space="preserve">
<g>
	<g>
		<path d="M271.03,213.934v88.657h88.657C353.033,256.694,316.927,220.588,271.03,213.934z"/>
	</g>
</g>
<g>
	<g>
		<path d="M256.001,332.65c-8.307,0-15.029-6.722-15.029-15.029V213.934c-50.849,7.371-90.176,50.828-90.176,103.687    c0,58.004,47.201,105.205,105.206,105.205c52.858,0,96.315-39.327,103.687-90.176H256.001z"/>
	</g>
</g>
<g>
	<g>
		<path d="M423.936,164.245c6.39,5.388,15.893,4.453,21.164-1.85l38.644-46.057c5.342-6.355,4.506-15.837-1.85-21.164    l-46.057-38.644c-6.508-5.475-15.954-4.361-21.179,1.85l-38.63,46.057c-5.327,6.355-4.491,15.837,1.864,21.164l11.502,9.654    l-19.857,23.674c-28.204-20.24-61.932-33.123-98.509-35.928V92.18h45.088c8.307,0,15.029-6.722,15.029-15.029V15.029    C331.144,6.722,324.422,0,316.115,0H195.88c-8.307,0-15.029,6.722-15.029,15.029v62.121c0,8.307,6.722,15.029,15.029,15.029    h45.088V123c-36.577,2.805-70.305,15.688-98.509,35.928l-19.857-23.674l11.501-9.654c6.355-5.327,7.192-14.809,1.864-21.164    L97.341,58.379c-5.082-6.04-14.484-7.484-21.179-1.85L30.105,95.174c-6.355,5.327-7.192,14.809-1.85,21.164L66.9,162.395    c5.271,6.302,14.774,7.238,21.164,1.85l11.51-9.661l19.805,23.612c-36.206,35.483-58.761,84.848-58.761,139.424    c0,107.73,87.651,194.38,195.382,194.38s195.382-86.649,195.382-194.38c0-54.577-22.555-103.941-58.762-139.425l19.805-23.612    L423.936,164.245z M256.001,452.885c-74.589,0-135.264-60.675-135.264-135.264s60.675-135.264,135.264-135.264    s135.264,60.676,135.264,135.264S330.589,452.885,256.001,452.885z"/>
	</g>
</g>
<g>
</g>
<g>
</g>
<g>
</g>
<g>
</g>
<g>
</g>
<g>
</g>
<g>
</g>
<g>
</g>
<g>
</g>
<g>
</g>
<g>
</g>
<g>
</g>
<g>
</g>
<g>
</g>
<g>
</g>
</svg>
