<?xml version="1.0" encoding="iso-8859-1"?>
<!-- Generator: Adobe Illustrator 19.0.0, SVG Export Plug-In . SVG Version: 6.00 Build 0)  -->
<svg xmlns="http://www.w3.org/2000/svg" xmlns:xlink="http://www.w3.org/1999/xlink" version="1.1" id="Layer_1" x="0px" y="0px" viewBox="0 0 512 512" style="enable-background:new 0 0 512 512;" xml:space="preserve">
<g>
	<g>
		<path d="M256,151c-57.891,0-105,47.109-105,105s47.109,105,105,105s105-47.109,105-105S313.891,151,256,151z M316,271h-60    c-8.291,0-15-6.709-15-15v-60c0-8.291,6.709-15,15-15s15,6.709,15,15v45h45c8.291,0,15,6.709,15,15S324.291,271,316,271z"/>
	</g>
</g>
<g>
	<g>
		<path d="M499.461,211.205l-56.254-9.214c-4.028-13.945-9.609-27.378-16.685-40.122l32.593-45.645    c4.263-5.962,3.589-14.136-1.597-19.321l-42.422-42.422c-5.2-5.186-13.389-5.859-19.321-1.597L350.13,85.477    c-12.744-7.075-26.177-12.656-40.122-16.685l-9.214-56.254C299.594,5.303,293.339,0,286,0h-60    c-7.339,0-13.594,5.303-14.795,12.539l-9.214,56.254c-13.945,4.028-27.378,9.609-40.122,16.685l-45.645-32.593    c-5.977-4.263-14.136-3.589-19.321,1.597L54.481,96.903c-5.186,5.186-5.859,13.359-1.597,19.321l32.593,45.645    c-7.075,12.744-12.656,26.177-16.685,40.122l-56.254,9.214C5.303,212.406,0,218.661,0,226v60c0,7.339,5.303,13.594,12.539,14.795    l56.254,9.214c4.028,13.945,9.609,27.378,16.685,40.122l-32.593,45.645c-4.263,5.962-3.589,14.136,1.597,19.321l42.422,42.422    c5.186,5.171,13.345,5.845,19.321,1.597l45.645-32.593c12.744,7.075,26.177,12.656,40.122,16.685l9.214,56.254    C212.406,506.697,218.661,512,226,512h60c7.339,0,13.594-5.303,14.795-12.539l9.214-56.254    c13.945-4.028,27.378-9.609,40.122-16.685l45.645,32.593c5.933,4.248,14.121,3.574,19.321-1.597l42.422-42.422    c5.186-5.186,5.859-13.359,1.597-19.321l-32.593-45.645c7.075-12.744,12.656-26.177,16.685-40.122l56.254-9.214    C506.697,299.594,512,293.339,512,286v-60C512,218.661,506.697,212.406,499.461,211.205z M256,391c-74.443,0-135-60.557-135-135    s60.557-135,135-135s135,60.557,135,135S330.443,391,256,391z"/>
	</g>
</g>
<g>
</g>
<g>
</g>
<g>
</g>
<g>
</g>
<g>
</g>
<g>
</g>
<g>
</g>
<g>
</g>
<g>
</g>
<g>
</g>
<g>
</g>
<g>
</g>
<g>
</g>
<g>
</g>
<g>
</g>
</svg>
