<?xml version="1.0" encoding="iso-8859-1"?>
<!-- Generator: Adobe Illustrator 19.0.0, SVG Export Plug-In . SVG Version: 6.00 Build 0)  -->
<svg xmlns="http://www.w3.org/2000/svg" xmlns:xlink="http://www.w3.org/1999/xlink" version="1.1" id="Layer_1" x="0px" y="0px" viewBox="0 0 512 512" style="enable-background:new 0 0 512 512;" xml:space="preserve">
<g>
	<g>
		<path d="M165.998,391.999v15c0,24.814,20.186,45.001,45.001,45.001H301c24.814,0,45.001-20.185,45.001-45.001v-15H165.998z"/>
	</g>
</g>
<g>
	<g>
		<path d="M256,89.995c-49.63,0-90.001,40.372-90.001,90.001S206.37,269.997,256,269.997s90.001-40.372,90.001-90.001    S305.629,89.995,256,89.995z M301,194.996H256c-8.291,0-15-6.709-15-15v-45.001c0-8.291,6.709-15,15-15c8.291,0,15,6.709,15,15v30    h30c8.291,0,15,6.709,15,15C316,188.287,309.291,194.996,301,194.996z"/>
	</g>
</g>
<g>
	<g>
		<path d="M256.95,0.002C157.511-0.507,77.079,78.487,76.001,178.13c-0.577,53.14,21.905,103.319,63.234,138.597    c13.156,11.23,21.823,28.517,25.14,45.272h183.247c3.318-16.754,11.984-34.042,25.14-45.272    c41.092-35.072,63.55-84.876,63.244-137.672C435.438,81.148,357.335,0.517,256.95,0.002z M256,299.998    c-66.168,0-120.002-53.834-120.002-120.002S189.832,59.994,256,59.994s120.002,53.834,120.002,120.002    S322.168,299.998,256,299.998z"/>
	</g>
</g>
<g>
	<g>
		<path d="M204.343,482c10.406,17.848,29.542,30,51.657,30s41.251-12.153,51.657-30H204.343z"/>
	</g>
</g>
<g>
</g>
<g>
</g>
<g>
</g>
<g>
</g>
<g>
</g>
<g>
</g>
<g>
</g>
<g>
</g>
<g>
</g>
<g>
</g>
<g>
</g>
<g>
</g>
<g>
</g>
<g>
</g>
<g>
</g>
</svg>
