<?xml version="1.0" encoding="iso-8859-1"?>
<!-- Generator: Adobe Illustrator 19.0.0, SVG Export Plug-In . SVG Version: 6.00 Build 0)  -->
<svg xmlns="http://www.w3.org/2000/svg" xmlns:xlink="http://www.w3.org/1999/xlink" version="1.1" id="Layer_1" x="0px" y="0px" viewBox="0 0 512 512" style="enable-background:new 0 0 512 512;" xml:space="preserve">
<g>
	<g>
		<path d="M391,0H121C96.186,0,76,20.186,76,45v422c0,24.814,20.186,45,45,45h270c24.814,0,45-20.186,45-45V45    C436,20.186,415.814,0,391,0z M406,421H106V91h300V421z"/>
	</g>
</g>
<g>
	<g>
		<path d="M256,121c-66.167,0-120,53.833-120,120s53.833,120,120,120s120-53.833,120-120S322.167,121,256,121z M301,256h-45    c-8.291,0-15-6.709-15-15v-45c0-8.291,6.709-15,15-15s15,6.709,15,15v30h30c8.291,0,15,6.709,15,15S309.291,256,301,256z"/>
	</g>
</g>
<g>
</g>
<g>
</g>
<g>
</g>
<g>
</g>
<g>
</g>
<g>
</g>
<g>
</g>
<g>
</g>
<g>
</g>
<g>
</g>
<g>
</g>
<g>
</g>
<g>
</g>
<g>
</g>
<g>
</g>
</svg>
