<?xml version="1.0" encoding="iso-8859-1"?>
<!-- Generator: Adobe Illustrator 19.0.0, SVG Export Plug-In . SVG Version: 6.00 Build 0)  -->
<svg xmlns="http://www.w3.org/2000/svg" xmlns:xlink="http://www.w3.org/1999/xlink" version="1.1" id="Layer_1" x="0px" y="0px" viewBox="0 0 512 512" style="enable-background:new 0 0 512 512;" xml:space="preserve">
<g>
	<g>
		<path d="M256,31c-41.353,0-75,33.647-75,75c0,41.353,33.647,75,75,75c41.353,0,75-33.647,75-75C331,64.647,297.353,31,256,31z     M286,121h-30c-8.291,0-15-6.709-15-15V76c0-8.291,6.709-15,15-15s15,6.709,15,15v15h15c8.291,0,15,6.709,15,15    S294.291,121,286,121z"/>
	</g>
</g>
<g>
	<g>
		<path d="M497,211c-8.291,0-15,6.709-15,15c0,19.893-13.061,36.617-30.991,42.545c-5.872-56.488-42.673-104.903-95.688-130.031    c-6.4,19.464-18.197,36.277-33.812,48.875c1.78,2.466,3.045,5.334,3.045,8.611c0,8.291-6.709,15-15,15H196    c-8.291,0-15-6.709-15-15c0-4.786,2.38-8.859,5.865-11.603c-16.776-14.811-29.075-34.568-33.732-57.296    c-8.079,2.249-16.08,4.924-23.886,8.43c-40.078-23.716-91.688-16.934-124.853,16.26c-5.859,5.859-5.859,15.352,0,21.211    l41.884,44.487c-3.955,8.408-7.09,16.714-9.434,25.078C16.249,247.973,0,266.752,0,289.018V316    c0,23.877,14.169,34.688,25.243,39.551c15.938,6.987,29.956,17.871,40.562,31.479c14.81,18.984,33.75,34.614,55.195,45.615V466    c0,8.291,6.709,15,15,15h60c8.291,0,15-6.709,15-15v-15h60v15c0,8.291,6.709,15,15,15h60c8.291,0,15-6.709,15-15v-33.076    c51.288-26.149,85.432-76.804,90.143-133.354C485.745,292.925,512,262.509,512,226C512,217.709,505.291,211,497,211z M136,271    c-8.284,0-15-6.716-15-15c0-8.286,6.716-15,15-15s15,6.714,15,15C151,264.284,144.284,271,136,271z"/>
	</g>
</g>
<g>
</g>
<g>
</g>
<g>
</g>
<g>
</g>
<g>
</g>
<g>
</g>
<g>
</g>
<g>
</g>
<g>
</g>
<g>
</g>
<g>
</g>
<g>
</g>
<g>
</g>
<g>
</g>
<g>
</g>
</svg>
