<?xml version="1.0" encoding="iso-8859-1"?>
<!-- Generator: Adobe Illustrator 19.0.0, SVG Export Plug-In . SVG Version: 6.00 Build 0)  -->
<svg xmlns="http://www.w3.org/2000/svg" xmlns:xlink="http://www.w3.org/1999/xlink" version="1.1" id="Layer_1" x="0px" y="0px" viewBox="0 0 512 512" style="enable-background:new 0 0 512 512;" xml:space="preserve">
<g>
	<g>
		<path d="M375,151h122c8.291,0,15-6.709,15-15V15c0-8.291-6.709-15-15-15H375c-8.291,0-15,6.709-15,15v46h-60    c-8.291,0-15,6.709-15,15v165h-46.516C231.006,181.967,181.031,136,120,136C53.833,136,0,189.833,0,256s53.833,120,120,120    c61.031,0,111.006-45.967,118.484-105H285v165c0,8.291,6.709,15,15,15h60v46c0,8.291,6.709,15,15,15h122c8.291,0,15-6.709,15-15    V376c0-8.291-6.709-15-15-15H375c-8.291,0-15,6.709-15,15v45h-45V271h45v45c0,8.291,6.709,15,15,15h122c8.291,0,15-6.709,15-15    V196c0-8.291-6.709-15-15-15H375c-8.291,0-15,6.709-15,15v45h-45V91h45v45C360,144.291,366.709,151,375,151z M165,271h-45    c-8.291,0-15-6.709-15-15v-45c0-8.291,6.709-15,15-15s15,6.709,15,15v30h30c8.291,0,15,6.709,15,15S173.291,271,165,271z"/>
	</g>
</g>
<g>
</g>
<g>
</g>
<g>
</g>
<g>
</g>
<g>
</g>
<g>
</g>
<g>
</g>
<g>
</g>
<g>
</g>
<g>
</g>
<g>
</g>
<g>
</g>
<g>
</g>
<g>
</g>
<g>
</g>
</svg>
