<?xml version="1.0" encoding="iso-8859-1"?>
<!-- Generator: Adobe Illustrator 19.0.0, SVG Export Plug-In . SVG Version: 6.00 Build 0)  -->
<svg xmlns="http://www.w3.org/2000/svg" xmlns:xlink="http://www.w3.org/1999/xlink" version="1.1" id="Capa_1" x="0px" y="0px" viewBox="0 0 512.001 512.001" style="enable-background:new 0 0 512.001 512.001;" xml:space="preserve">
<g>
	<g>
		<path d="M375.187,5.117C371.994,1.865,367.553,0,362.997,0h-214.54c-4.555,0-8.998,1.865-12.189,5.117    c-3.187,3.246-4.965,7.714-4.88,12.257c0.613,32.721,13.819,63.385,37.185,86.343c23.398,22.988,54.349,35.649,87.154,35.649    c32.805,0,63.756-12.66,87.154-35.649c23.366-22.958,36.572-53.622,37.185-86.343C380.15,12.83,378.373,8.363,375.187,5.117z"/>
	</g>
</g>
<g>
	<g>
		<path d="M343.146,278.484H168.855c-16.256,0-29.435,13.178-29.435,29.435v195.234c0,4.887,3.961,8.849,8.849,8.849h215.462    c4.887,0,8.849-3.961,8.849-8.849V307.917C372.581,291.662,359.402,278.484,343.146,278.484z M237.139,338.695l17.747-10.757    c0.985-0.626,2.286-0.94,3.899-0.94c2.33,0,4.458,0.628,6.386,1.883c1.927,1.256,2.891,2.823,2.891,4.706v85.51    c0,2.064-1.031,3.653-3.092,4.773c-2.064,1.122-4.527,1.682-7.396,1.682s-5.334-0.559-7.396-1.682    c-2.063-1.119-3.092-2.71-3.092-4.773v-68.435l-3.899,2.42c-1.075,0.719-2.197,1.075-3.36,1.075c-1.883,0-3.452-0.851-4.706-2.555    c-1.256-1.702-1.883-3.63-1.883-5.781C233.24,342.594,234.538,340.219,237.139,338.695z M275.721,468.648h-39.44    c-8.287,0-15.005-6.718-15.005-15.005c0-8.287,6.718-15.005,15.005-15.005h39.44c8.287,0,15.005,6.718,15.005,15.005    C290.726,461.93,284.008,468.648,275.721,468.648z"/>
	</g>
</g>
<g>
	<g>
		<path d="M290.697,153.524c-10.526,2.851-21.49,5.325-32.673,5.325c-12.161,0-24.067-1.743-35.428-5.105    c-4.219-1.248-8.445,1.947-8.445,6.347v41.45c0,3.651,2.96,6.612,6.612,6.612h71.734c3.652,0,6.612-2.96,6.612-6.612v-41.656    C299.11,155.498,294.931,152.377,290.697,153.524z"/>
	</g>
</g>
<g>
	<g>
		<path d="M482.274,338.504h-77.654c-4.887,0-8.849,3.961-8.849,8.849v155.799c0,4.887,3.961,8.849,8.849,8.849h77.654    c16.256,0,29.435-13.178,29.435-29.435V367.938C511.708,351.682,498.53,338.504,482.274,338.504z"/>
	</g>
</g>
<g>
	<g>
		<path d="M107.186,388.521H29.728c-16.256,0-29.435,13.178-29.435,29.435v64.611c0,16.256,13.178,29.435,29.435,29.435h77.458    c4.887,0,8.849-3.961,8.849-8.849V397.37C116.033,392.482,112.072,388.521,107.186,388.521z"/>
	</g>
</g>
<g>
	<g>
		<path d="M316.87,224.226H196.392c-14.244,0-25.792,11.547-25.792,25.792v0.001c0,4.887,3.961,8.849,8.849,8.849h154.364    c4.887-0.001,8.849-3.963,8.849-8.85C342.662,235.773,331.114,224.226,316.87,224.226z"/>
	</g>
</g>
<g>
</g>
<g>
</g>
<g>
</g>
<g>
</g>
<g>
</g>
<g>
</g>
<g>
</g>
<g>
</g>
<g>
</g>
<g>
</g>
<g>
</g>
<g>
</g>
<g>
</g>
<g>
</g>
<g>
</g>
</svg>
