<?xml version="1.0" encoding="iso-8859-1"?>
<!-- Generator: Adobe Illustrator 19.0.0, SVG Export Plug-In . SVG Version: 6.00 Build 0)  -->
<svg xmlns="http://www.w3.org/2000/svg" xmlns:xlink="http://www.w3.org/1999/xlink" version="1.1" id="Capa_1" x="0px" y="0px" viewBox="0 0 512.001 512.001" style="enable-background:new 0 0 512.001 512.001;" xml:space="preserve">
<g>
	<g>
		<path d="M101.4,0C72.864,0,49.648,23.216,49.648,51.752c0,28.536,23.216,51.753,51.752,51.753    c28.536,0,51.752-23.217,51.752-51.753C153.151,23.216,129.936,0,101.4,0z"/>
	</g>
</g>
<g>
	<g>
		<path d="M355.798,226.964l-0.012-0.002c-5.3-0.773-9.872-4.096-12.237-8.891l-0.004-0.009c-0.952-1.929-3.703-1.929-4.654,0    l-0.005,0.011c-2.366,4.794-6.938,8.117-12.23,8.889l-0.019,0.003c-2.129,0.309-2.979,2.925-1.439,4.426l0.006,0.006    c3.831,3.735,5.58,9.118,4.676,14.392l-0.001,0.007c-0.364,2.12,1.862,3.736,3.765,2.736l0.011-0.006    c4.731-2.492,10.393-2.492,15.136,0.006c1.904,1.001,4.128-0.616,3.765-2.736l-0.002-0.013    c-0.905-5.267,0.841-10.646,4.671-14.382l0.011-0.011C358.776,229.889,357.927,227.273,355.798,226.964z"/>
	</g>
</g>
<g>
	<g>
		<path d="M122.284,120.16c-6.389,2.233-13.455,3.404-20.884,3.404s-14.495-1.171-20.885-3.404    c-6.306-2.204-12.902,2.428-12.902,9.108v348.273c0,18.904,15.47,34.777,34.371,34.455c18.361-0.313,33.202-15.346,33.202-33.781    V129.268C135.186,122.588,128.59,117.956,122.284,120.16z"/>
	</g>
</g>
<g>
	<g>
		<path d="M441.48,111.745l-40.626-3.344c-34.823-2.868-69.313,1.19-102.518,12.058c-42.348,13.857-87.506,15.185-130.592,3.836    c-6.627-1.746-13.112,3.253-13.112,10.106v216.088c0,4.758,3.216,8.917,7.821,10.114l1.007,0.262    c21.565,5.605,43.607,8.402,65.637,8.401c26.431-0.001,52.842-4.027,78.34-12.059l6.648-2.094    c29.058-9.152,59.179-12.439,89.523-9.778l34.02,2.985c6.333,0.564,12.656-1.588,17.346-5.883    c4.689-4.296,7.379-10.406,7.379-16.767V134.406C462.353,122.664,453.185,112.71,441.48,111.745z M401.875,229.767l-18.536,18.067    l4.376,25.521c1.054,6.143-1.425,12.234-6.469,15.897c-5.044,3.664-11.603,4.132-17.12,1.229l-22.911-12.044l-22.919,12.049    c-2.397,1.262-4.993,1.886-7.576,1.886c-3.354,0-6.686-1.051-9.536-3.12c-5.044-3.662-7.523-9.755-6.468-15.899l4.376-25.518    l-18.541-18.074c-4.459-4.343-6.038-10.727-4.113-16.655c1.925-5.929,6.952-10.17,13.121-11.064l25.624-3.724l11.458-23.22    c2.756-5.587,8.341-9.06,14.574-9.06c6.232,0,11.815,3.471,14.574,9.06l11.458,23.22l25.623,3.724    c6.168,0.896,11.195,5.135,13.121,11.063S406.341,225.417,401.875,229.767z"/>
	</g>
</g>
<g>
</g>
<g>
</g>
<g>
</g>
<g>
</g>
<g>
</g>
<g>
</g>
<g>
</g>
<g>
</g>
<g>
</g>
<g>
</g>
<g>
</g>
<g>
</g>
<g>
</g>
<g>
</g>
<g>
</g>
</svg>
