<?xml version="1.0" encoding="iso-8859-1"?>
<!-- Generator: Adobe Illustrator 19.0.0, SVG Export Plug-In . SVG Version: 6.00 Build 0)  -->
<svg xmlns="http://www.w3.org/2000/svg" xmlns:xlink="http://www.w3.org/1999/xlink" version="1.1" id="Capa_1" x="0px" y="0px" viewBox="0 0 512 512" style="enable-background:new 0 0 512 512;" xml:space="preserve">
<g>
	<g>
		<path d="M287.758,235.471l-8.979-1.305c-5.521-0.802-10.294-4.268-12.765-9.273l-4.016-8.138c-2.441-4.946-9.493-4.946-11.934,0    l-4.015,8.136c-2.472,5.006-7.244,8.472-12.767,9.275l-8.979,1.305c-5.458,0.793-7.637,7.501-3.687,11.35l6.498,6.334    c3.994,3.892,5.819,9.499,4.878,15l-1.535,8.95c-0.932,5.436,4.773,9.582,9.655,7.015l8.031-4.222    c4.944-2.597,10.839-2.596,15.777-0.002l8.036,4.225c4.881,2.567,10.588-1.579,9.655-7.015l-1.534-8.943    c-0.939-5.516,0.886-11.12,4.879-15.01l6.496-6.331C295.395,242.971,293.217,236.264,287.758,235.471z"/>
	</g>
</g>
<g>
	<g>
		<path d="M372.684,90.809h-27.296L267.519,5.315c-0.412-0.485-0.847-0.956-1.33-1.395c-2.71-2.467-6.074-3.761-9.47-3.915    c-0.234-0.011-0.47,0-0.705-0.001c-0.235,0-0.47-0.01-0.705,0.001c-3.396,0.154-6.759,1.447-9.469,3.915    c-0.482,0.44-0.916,0.91-1.329,1.394l-77.869,85.494h-27.267c-3.675,0-6.654,2.979-6.654,6.654v268.467    c0,2.68,1.607,5.098,4.079,6.136l116.654,48.976c1.648,0.692,3.504,0.692,5.152,0l116.652-48.976    c2.471-1.037,4.079-3.456,4.079-6.136V97.463C379.337,93.788,376.358,90.809,372.684,90.809z M256.015,37.497l48.556,53.311    h-97.113L256.015,37.497z M341.349,240.319l-30.361,29.593l7.167,41.782c1.097,6.411-1.488,12.763-6.746,16.584    c-2.971,2.159-6.449,3.256-9.95,3.256c-2.695,0-5.4-0.65-7.903-1.964l-37.526-19.729l-37.522,19.728    c-5.758,3.025-12.598,2.53-17.856-1.29c-5.259-3.82-7.844-10.173-6.747-16.579l7.167-41.786l-30.358-29.591    c-4.655-4.538-6.3-11.198-4.29-17.381c2.01-6.183,7.254-10.605,13.689-11.54l41.951-6.096l18.761-38.015    c2.874-5.828,8.701-9.451,15.204-9.451c6.502,0,12.328,3.621,15.204,9.451l18.761,38.015l41.953,6.096    c6.432,0.934,11.676,5.356,13.686,11.538C347.642,229.121,346.003,235.781,341.349,240.319z"/>
	</g>
</g>
<g>
	<g>
		<path d="M437.96,90.808h-21.794c-3.675,0-6.654,2.979-6.654,6.654v274.99c0,10.908-6.499,20.684-16.556,24.907l-126.47,53.097    c-3.323,1.395-6.89,2.093-10.457,2.093c-3.567,0-7.133-0.698-10.457-2.093L119.103,397.36    c-10.058-4.223-16.556-13.998-16.556-24.907V97.463c0-3.675-2.979-6.654-6.654-6.654H74.039    c-16.748,0-30.324,13.577-30.324,30.324v283.245c0,10.756,6.372,20.478,16.235,24.77l185.272,80.615    C248.646,511.255,252.323,512,256,512c3.675,0,7.354-0.745,10.778-2.235l185.273-80.616c9.859-4.29,16.235-14.018,16.235-24.77    V121.134C468.286,104.385,454.709,90.808,437.96,90.808z"/>
	</g>
</g>
<g>
</g>
<g>
</g>
<g>
</g>
<g>
</g>
<g>
</g>
<g>
</g>
<g>
</g>
<g>
</g>
<g>
</g>
<g>
</g>
<g>
</g>
<g>
</g>
<g>
</g>
<g>
</g>
<g>
</g>
</svg>
