<?xml version="1.0" encoding="iso-8859-1"?>
<!-- Generator: Adobe Illustrator 19.0.0, SVG Export Plug-In . SVG Version: 6.00 Build 0)  -->
<svg xmlns="http://www.w3.org/2000/svg" xmlns:xlink="http://www.w3.org/1999/xlink" version="1.1" id="Capa_1" x="0px" y="0px" viewBox="0 0 512 512" style="enable-background:new 0 0 512 512;" xml:space="preserve">
<g>
	<g>
		<path d="M164.921,309.77c-18.357-12.318-33.976-28.41-45.734-47.161c-1.306-2.084-4.425-1.781-5.27,0.53l-66.939,183.18    c-2.48,6.785-0.398,14.427,5.178,19.019c5.578,4.591,13.477,5.167,19.659,1.43l41.063-24.816c3.551-2.146,6.282-5.419,7.757-9.297    l45.411-119.392C166.536,311.977,166.063,310.536,164.921,309.77z"/>
	</g>
</g>
<g>
	<g>
		<path d="M251.973,336.242h-0.042c-19.517,0-38.208-3.597-55.455-10.151c-1.528-0.581-3.237,0.165-3.818,1.693l-43.765,115.064    c-1.535,4.035-1.617,8.477-0.232,12.565l15.238,45c2.315,6.843,8.723,11.5,15.947,11.587c0.069,0.001,0.138,0.001,0.206,0.001    c7.141,0,13.561-4.479,16.017-11.2l58.682-160.586C255.456,338.285,254.027,336.242,251.973,336.242z"/>
	</g>
</g>
<g>
	<g>
		<path d="M465.021,446.318l-63.583-173.996c-0.811-2.22-3.76-2.614-5.152-0.703c-12.614,17.329-28.695,31.977-47.212,42.925    c-1.239,0.733-1.782,2.24-1.27,3.584l43.56,114.525c1.475,3.878,4.206,7.151,7.757,9.297l41.063,24.816    c6.183,3.737,14.083,3.162,19.66-1.431C465.419,460.745,467.5,453.103,465.021,446.318z"/>
	</g>
</g>
<g>
	<g>
		<path d="M363.106,442.847l-42.644-112.119c-0.558-1.467-2.163-2.224-3.66-1.749c-14.891,4.715-30.737,7.262-47.166,7.262    c-2.609,0-3.611,0.111-4.757,0.142c-1.97,0.053-3.321,2.009-2.695,3.878L315.929,500.8c2.456,6.721,8.875,11.2,16.017,11.2    c0.067,0,0.135,0,0.202-0.001c7.222-0.085,13.631-4.739,15.951-11.582l15.239-45.005    C364.723,451.323,364.641,446.881,363.106,442.847z"/>
	</g>
</g>
<g>
	<g>
		<path d="M258.819,0c-86.327,0-156.56,70.232-156.56,156.56c0,86.326,70.232,156.559,156.56,156.559s156.56-70.232,156.56-156.559    C415.379,70.232,345.147,0,258.819,0z M278.509,244.523h-39.472c-8.293,0-15.017-6.724-15.017-15.017    c0-8.293,6.724-15.017,15.017-15.017h39.472c8.293,0,15.017,6.724,15.017,15.017C293.526,237.799,286.802,244.523,278.509,244.523    z M288.936,185.205c-7.905,6.27-18.341,9.405-31.308,9.405c-13.48,0-23.649-3.305-30.504-9.917    c-6.855-6.609-10.281-14.077-10.281-22.398c0-3.761,0.917-6.326,2.752-7.695c1.833-1.368,5.159-2.051,9.972-2.051    c5.397,0,9.04,0.657,10.934,1.966c1.894,1.311,2.842,3.62,2.842,6.925c0,6.611,5.044,9.917,15.132,9.917    c5.781,0,9.834-1.168,12.159-3.505c2.325-2.335,3.486-6.297,3.486-11.883v-3.249c0-5.356-1.39-8.976-4.168-10.857    c-2.778-1.881-6.829-2.821-12.156-2.821c-5.076,0-7.614-3.42-7.614-10.26s2.544-10.259,7.633-10.259    c1.921,0,3.532-0.139,4.833-0.422c1.298-0.28,2.655-0.844,4.069-1.689c1.414-0.845,2.487-2.306,3.222-4.389    c0.735-2.081,1.103-4.753,1.103-8.017c0-8.103-4.189-12.156-12.567-12.156c-4.304,0-7.475,0.644-9.511,1.932    c-2.038,1.287-3.056,3.497-3.056,6.628s-0.919,5.508-2.752,7.13c-1.835,1.625-5.103,2.434-9.802,2.434    c-5.971,0-9.789-0.711-11.453-2.137c-1.664-1.424-2.495-4.301-2.495-8.635c0-7.977,3.169-15.073,9.511-21.287    c6.34-6.212,16.192-9.319,29.558-9.319c25.476,0,38.214,10.398,38.214,31.188c0,6.444-1.178,12.206-3.532,17.291    c-2.357,5.087-5.599,8.589-9.735,10.51c11.578,4.333,17.371,12.711,17.371,25.133v3.249h0.002    C300.796,169.191,296.841,178.937,288.936,185.205z"/>
	</g>
</g>
<g>
</g>
<g>
</g>
<g>
</g>
<g>
</g>
<g>
</g>
<g>
</g>
<g>
</g>
<g>
</g>
<g>
</g>
<g>
</g>
<g>
</g>
<g>
</g>
<g>
</g>
<g>
</g>
<g>
</g>
</svg>
