<?xml version="1.0" encoding="iso-8859-1"?>
<!-- Generator: Adobe Illustrator 19.0.0, SVG Export Plug-In . SVG Version: 6.00 Build 0)  -->
<svg xmlns="http://www.w3.org/2000/svg" xmlns:xlink="http://www.w3.org/1999/xlink" version="1.1" id="Capa_1" x="0px" y="0px" viewBox="0 0 512 512" style="enable-background:new 0 0 512 512;" xml:space="preserve">
<g>
	<g>
		<path d="M258.819,0c-86.326,0-156.56,70.232-156.56,156.56c0,86.326,70.232,156.559,156.56,156.559s156.56-70.232,156.56-156.559    C415.379,70.232,345.147,0,258.819,0z M234.924,82.998l22.57-13.678c1.252-0.796,2.905-1.196,4.958-1.196    c2.963,0,5.669,0.799,8.121,2.394c2.45,1.598,3.676,3.591,3.676,5.985v108.744c0,2.624-1.313,4.646-3.932,6.07    c-2.624,1.427-5.758,2.137-9.405,2.137c-3.65,0-6.783-0.711-9.405-2.137c-2.623-1.424-3.932-3.446-3.932-6.07v-87.03l-4.959,3.077    c-1.368,0.914-2.794,1.368-4.275,1.368c-2.394,0-4.39-1.082-5.985-3.249c-1.598-2.164-2.395-4.616-2.395-7.352    C229.965,87.955,231.617,84.937,234.924,82.998z M278.555,244.391h-39.471c-8.293,0-15.017-6.724-15.017-15.017    s6.724-15.017,15.017-15.017h39.471c8.293,0,15.017,6.724,15.017,15.017S286.848,244.391,278.555,244.391z"/>
	</g>
</g>
<g>
	<g>
		<path d="M164.921,309.77c-18.357-12.318-33.976-28.41-45.734-47.161c-1.306-2.084-4.425-1.781-5.27,0.53l-66.939,183.18    c-2.48,6.785-0.398,14.427,5.178,19.019c5.578,4.591,13.477,5.167,19.659,1.43l41.063-24.816c3.551-2.146,6.282-5.419,7.757-9.297    l45.411-119.392C166.536,311.977,166.063,310.536,164.921,309.77z"/>
	</g>
</g>
<g>
	<g>
		<path d="M251.973,336.242h-0.042c-19.517,0-38.208-3.597-55.455-10.151c-1.528-0.581-3.237,0.165-3.818,1.693l-43.765,115.064    c-1.535,4.035-1.617,8.477-0.232,12.565l15.238,45c2.315,6.843,8.723,11.5,15.947,11.587c0.069,0.001,0.138,0.001,0.206,0.001    c7.141,0,13.561-4.479,16.017-11.2l58.682-160.586C255.456,338.285,254.027,336.242,251.973,336.242z"/>
	</g>
</g>
<g>
	<g>
		<path d="M465.021,446.318l-63.583-173.996c-0.811-2.22-3.76-2.614-5.152-0.703c-12.614,17.329-28.695,31.977-47.212,42.925    c-1.239,0.733-1.782,2.24-1.27,3.584l43.56,114.525c1.475,3.878,4.206,7.151,7.757,9.297l41.063,24.816    c6.183,3.737,14.083,3.162,19.66-1.431C465.419,460.745,467.5,453.103,465.021,446.318z"/>
	</g>
</g>
<g>
	<g>
		<path d="M363.106,442.847l-42.644-112.119c-0.558-1.467-2.163-2.224-3.66-1.749c-14.891,4.714-30.737,7.262-47.166,7.262    c-2.609,0-3.611,0.111-4.757,0.142c-1.97,0.053-3.321,2.009-2.695,3.878L315.929,500.8c2.456,6.721,8.875,11.2,16.017,11.2    c0.067,0,0.135,0,0.202-0.001c7.222-0.085,13.631-4.739,15.951-11.582l15.239-45.005    C364.723,451.323,364.641,446.881,363.106,442.847z"/>
	</g>
</g>
<g>
</g>
<g>
</g>
<g>
</g>
<g>
</g>
<g>
</g>
<g>
</g>
<g>
</g>
<g>
</g>
<g>
</g>
<g>
</g>
<g>
</g>
<g>
</g>
<g>
</g>
<g>
</g>
<g>
</g>
</svg>
