<?xml version="1.0" encoding="iso-8859-1"?>
<!-- Generator: Adobe Illustrator 19.0.0, SVG Export Plug-In . SVG Version: 6.00 Build 0)  -->
<svg xmlns="http://www.w3.org/2000/svg" xmlns:xlink="http://www.w3.org/1999/xlink" version="1.1" id="Capa_1" x="0px" y="0px" viewBox="0 0 512 512" style="enable-background:new 0 0 512 512;" xml:space="preserve">
<g>
	<g>
		<path d="M256,53.451c-86.239,0-156.401,70.161-156.401,156.402c0,86.239,70.162,156.401,156.401,156.401    s156.402-70.162,156.402-156.401C412.401,123.613,342.239,53.451,256,53.451z M236.283,107.286h39.431    c8.285,0,15.002,6.717,15.002,15.002c0,8.285-6.717,15.002-15.002,15.002h-39.431c-8.285,0-15.002-6.717-15.002-15.002    C221.281,114.003,227.998,107.286,236.283,107.286z M271.946,175.394v67.658c0,8.285-6.717,15.002-15.002,15.002    c-8.285,0-15.002-6.717-15.002-15.002v-67.658c0-8.285,6.717-15.002,15.002-15.002    C265.23,160.392,271.946,167.108,271.946,175.394z M209.444,258.054c-8.285,0-15.002-6.717-15.002-15.002v-67.658    c0-8.285,6.717-15.002,15.002-15.002c8.285,0,15.002,6.717,15.002,15.002v67.658C224.446,251.337,217.73,258.054,209.444,258.054z     M275.715,311.161h-39.431c-8.285,0-15.002-6.717-15.002-15.002c0-8.285,6.717-15.002,15.002-15.002h39.431    c8.285,0,15.002,6.717,15.002,15.002C290.717,304.444,284,311.161,275.715,311.161z M319.022,243.682    c0,8.285-6.717,15.002-15.002,15.002c-8.285,0-15.002-6.717-15.002-15.002v-67.659c0-8.285,6.717-15.002,15.002-15.002    c8.285,0,15.002,6.717,15.002,15.002V243.682z"/>
	</g>
</g>
<g>
	<g>
		<path d="M236.039,393.55c-36.628-3.903-69.304-18.258-93.432-40.85c-3.554-3.329-9.36-0.828-9.36,4.042V494.32    c0,5.942,2.83,11.636,7.807,14.883c2.864,1.868,6.14,2.797,9.411,2.797c3.143,0,6.282-0.858,9.048-2.565l78.847-48.685    c1.639-1.012,2.637-2.801,2.637-4.729v-56.955C240.997,396.23,238.859,393.85,236.039,393.55z"/>
	</g>
</g>
<g>
	<g>
		<path d="M369.818,353.294c-24.293,22.459-57.104,36.648-93.827,40.357c-2.834,0.286-4.99,2.672-4.99,5.52v56.605    c0,1.927,0.998,3.716,2.637,4.729l79.242,48.929c6.267,3.871,14.454,3.378,20.257-1.575c3.918-3.344,6.011-8.36,6.011-13.512    V357.364C379.148,352.514,373.38,350.001,369.818,353.294z"/>
	</g>
</g>
<g>
	<g>
		<path d="M235.44,0h-76.426c-14.34,0-25.964,11.624-25.964,25.964v40.473c0,4.821,5.709,7.346,9.284,4.112    c24.21-21.89,56.968-35.497,93.661-39.119c2.839-0.28,5.003-2.668,5.003-5.522V5.558C240.998,2.488,238.509,0,235.44,0z"/>
	</g>
</g>
<g>
	<g>
		<path d="M352.985,0h-76.427C273.489,0,271,2.488,271,5.558v20.351c0,2.853,2.163,5.242,5.003,5.522    c36.693,3.621,69.451,17.229,93.661,39.119c3.577,3.233,9.285,0.708,9.285-4.112V25.964C378.949,11.624,367.325,0,352.985,0z"/>
	</g>
</g>
<g>
</g>
<g>
</g>
<g>
</g>
<g>
</g>
<g>
</g>
<g>
</g>
<g>
</g>
<g>
</g>
<g>
</g>
<g>
</g>
<g>
</g>
<g>
</g>
<g>
</g>
<g>
</g>
<g>
</g>
</svg>
