<?xml version="1.0" encoding="iso-8859-1"?>
<!-- Generator: Adobe Illustrator 19.0.0, SVG Export Plug-In . SVG Version: 6.00 Build 0)  -->
<svg xmlns="http://www.w3.org/2000/svg" xmlns:xlink="http://www.w3.org/1999/xlink" version="1.1" id="Capa_1" x="0px" y="0px" viewBox="0 0 512 512" style="enable-background:new 0 0 512 512;" xml:space="preserve">
<g>
	<g>
		<path d="M236.543,173.28L180.265,13.302c-0.262-0.746-0.57-1.486-0.927-2.218c-3.085-6.323-9.144-10.441-16.209-11.017    c-7.108-0.577-14.075,2.663-18.186,8.464l-7.458,10.526c-10.434,14.725-23.056,29.291-39.723,45.839    C83.789,78.772,78.98,99.737,85.532,118.359l37.264,104.685c2.36,6.631,10.77,8.767,15.913,3.958    c23.439-21.92,54.74-36.221,89.842-40.773C234.729,185.43,238.61,179.157,236.543,173.28z"/>
	</g>
</g>
<g>
	<g>
		<path d="M414.232,64.895c-16.665-16.546-29.287-31.113-39.723-45.839l-7.46-10.526c-4.111-5.8-11.082-9.044-18.186-8.463    c-7.065,0.576-13.125,4.694-16.218,11.035c-0.341,0.702-0.647,1.432-0.916,2.193l-56.525,160.685    c-2.036,5.786,1.693,11.994,7.758,12.917c35.244,5.363,66.353,20.246,89.074,42.891c5.066,5.049,13.679,3.041,16.077-3.697    l38.367-107.786C433.013,99.735,428.205,78.77,414.232,64.895z"/>
	</g>
</g>
<g>
	<g>
		<path d="M301.959,0.002l-91.735,0.003c-6.713,0-11.412,6.634-9.184,12.967l25.768,73.247c1.371,3.897,5.052,6.506,9.184,6.506    h40.2c4.132,0,7.814-2.607,9.184-6.506l25.768-73.25C313.372,6.636,308.673,0.002,301.959,0.002z"/>
	</g>
</g>
<g>
	<g>
		<path d="M271.405,329.636c-5.083-0.767-10.248-1.177-15.311-1.177c-5.323,0-10.757,0.455-16.091,1.301    c-0.986,0.156-1.632,1.108-1.445,2.089c3.581,18.829,3.566,38.058-0.041,56.885c-0.188,0.981,0.457,1.935,1.444,2.091    c5.348,0.85,10.796,1.307,16.133,1.307c4.997,0,10.095-0.398,15.114-1.145c0.993-0.148,1.647-1.101,1.461-2.088    c-3.568-18.927-3.5-38.252,0.191-57.165C273.053,330.746,272.4,329.786,271.405,329.636z"/>
	</g>
</g>
<g>
	<g>
		<path d="M304.218,340.869c-1.072-0.669-2.502-0.026-2.695,1.222c-1.882,12.102-1.929,24.369-0.141,36.48    c0.185,1.253,1.616,1.906,2.693,1.238c8.573-5.309,14.127-12.019,14.127-19.513C318.202,352.843,312.709,346.164,304.218,340.869z    "/>
	</g>
</g>
<g>
	<g>
		<path d="M209.916,342.579c-0.185-1.267-1.642-1.919-2.717-1.223c-8.052,5.215-13.214,11.713-13.214,18.94    c0,7.216,5.148,13.708,13.184,18.919c1.074,0.697,2.53,0.047,2.717-1.219C211.626,366.24,211.636,354.336,209.916,342.579z"/>
	</g>
</g>
<g>
	<g>
		<path d="M255.224,209.59c-83.375,0-151.206,67.83-151.206,151.205S171.848,512,255.224,512s151.205-67.83,151.205-151.205    S338.6,209.59,255.224,209.59z M297.439,415.798c-0.497,0.218-1.009,0.415-1.538,0.581c-0.5,0.157-1.003,0.277-1.506,0.38    c-11.608,3.475-24.558,5.399-38.3,5.399c-51.664,0-92.134-27.173-92.134-61.863s40.47-61.863,92.134-61.863    s92.135,27.173,92.135,61.863C348.228,384.942,327.796,405.79,297.439,415.798z"/>
	</g>
</g>
<g>
</g>
<g>
</g>
<g>
</g>
<g>
</g>
<g>
</g>
<g>
</g>
<g>
</g>
<g>
</g>
<g>
</g>
<g>
</g>
<g>
</g>
<g>
</g>
<g>
</g>
<g>
</g>
<g>
</g>
</svg>
