<?xml version="1.0" encoding="iso-8859-1"?>
<!-- Generator: Adobe Illustrator 19.0.0, SVG Export Plug-In . SVG Version: 6.00 Build 0)  -->
<svg xmlns="http://www.w3.org/2000/svg" xmlns:xlink="http://www.w3.org/1999/xlink" version="1.1" id="Capa_1" x="0px" y="0px" viewBox="0 0 512.001 512.001" style="enable-background:new 0 0 512.001 512.001;" xml:space="preserve">
<g>
	<g>
		<path d="M315.878,0H196.121c-24.172,0-43.838,19.666-43.838,43.838v10.47c0.001,15.014,12.216,27.229,27.23,27.229h19.706h113.565    h19.706c15.014,0,27.229-12.215,27.229-27.229v-10.47C359.717,19.666,340.051,0,315.878,0z"/>
	</g>
</g>
<g>
	<g>
		<path d="M323.213,113.696H188.787c-2.529,0-4.579,2.05-4.579,4.579v10.402c0,2.529,2.05,4.579,4.579,4.579h134.426    c2.529,0,4.579-2.05,4.579-4.579v-10.402C327.792,115.746,325.742,113.696,323.213,113.696z"/>
	</g>
</g>
<g>
	<g>
		<path d="M276.035,374.183l-3.059-0.444c-5.329-0.773-9.94-4.121-12.323-8.956l-1.367-2.769c-1.344-2.724-5.228-2.724-6.572,0    l-1.368,2.772c-2.384,4.833-6.992,8.18-12.328,8.954l-3.054,0.443c-3.006,0.437-4.206,4.131-2.031,6.251l2.213,2.157    c3.855,3.754,5.617,9.169,4.708,14.479l-0.523,3.053c-0.513,2.994,2.629,5.276,5.317,3.862l2.736-1.438    c4.768-2.508,10.464-2.508,15.234,0.001l2.734,1.437c2.689,1.413,5.831-0.87,5.317-3.863l-0.522-3.047    c-0.91-5.316,0.853-10.731,4.711-14.489l2.209-2.153C280.241,378.313,279.041,374.619,276.035,374.183z"/>
	</g>
</g>
<g>
	<g>
		<path d="M270.945,254.615v-7.102h44.934c24.172,0,43.838-19.666,43.838-43.838v-10.47c0-15.014-12.215-27.229-27.229-27.229    H179.512c-15.014,0-27.229,12.215-27.229,27.229v10.47c0,24.173,19.666,43.838,43.838,43.838h44.804v7.117    c-64.124,7.491-114.053,62.141-114.053,128.243c0,71.201,57.927,129.128,129.128,129.128s129.128-57.927,129.128-129.128    C385.128,316.726,335.132,262.046,270.945,254.615z M324.151,377.434l-20.823,20.298c-0.864,0.842-1.258,2.054-1.054,3.243    l4.915,28.66c1.06,6.188-1.436,12.32-6.512,16.007c-2.868,2.083-6.225,3.142-9.603,3.142c-2.601,0-5.213-0.626-7.629-1.896    l-25.739-13.532c-1.068-0.561-2.343-0.561-3.41,0l-25.738,13.531c-5.556,2.919-12.156,2.443-17.234-1.245    c-5.076-3.687-7.571-9.819-6.513-16.003l4.916-28.663c0.204-1.189-0.19-2.402-1.054-3.244l-20.82-20.297    c-4.494-4.382-6.08-10.81-4.142-16.777c1.939-5.967,7.001-10.235,13.209-11.137l28.778-4.182c1.194-0.173,2.225-0.924,2.759-2.004    l12.868-26.075c3.45-6.99,11.288-10.689,19.31-8.491c4.402,1.206,7.994,4.395,10.036,8.477l0.007,0.013l12.868,26.075    c0.533,1.082,1.566,1.831,2.759,2.004l28.776,4.181c6.21,0.904,11.272,5.17,13.211,11.138    C330.229,366.626,328.643,373.054,324.151,377.434z"/>
	</g>
</g>
<g>
</g>
<g>
</g>
<g>
</g>
<g>
</g>
<g>
</g>
<g>
</g>
<g>
</g>
<g>
</g>
<g>
</g>
<g>
</g>
<g>
</g>
<g>
</g>
<g>
</g>
<g>
</g>
<g>
</g>
</svg>
