<?xml version="1.0" encoding="iso-8859-1"?>
<!-- Generator: Adobe Illustrator 19.0.0, SVG Export Plug-In . SVG Version: 6.00 Build 0)  -->
<svg xmlns="http://www.w3.org/2000/svg" xmlns:xlink="http://www.w3.org/1999/xlink" version="1.1" id="Capa_1" x="0px" y="0px" viewBox="0 0 512 512" style="enable-background:new 0 0 512 512;" xml:space="preserve">
<g>
	<g>
		<path d="M236.543,173.28L180.265,13.302c-0.262-0.746-0.57-1.486-0.927-2.218c-3.085-6.323-9.144-10.441-16.209-11.017    c-7.108-0.577-14.075,2.663-18.186,8.464l-7.458,10.526c-10.434,14.725-23.056,29.291-39.723,45.838    C83.789,78.771,78.98,99.736,85.532,118.358l37.264,104.685c2.36,6.632,10.77,8.768,15.913,3.959    c23.439-21.92,54.74-36.221,89.842-40.773C234.729,185.43,238.61,179.157,236.543,173.28z"/>
	</g>
</g>
<g>
	<g>
		<path d="M414.232,64.895c-16.665-16.546-29.287-31.113-39.723-45.839l-7.46-10.526c-4.111-5.8-11.082-9.044-18.186-8.463    c-7.065,0.576-13.125,4.694-16.218,11.035c-0.341,0.702-0.647,1.432-0.916,2.193l-56.525,160.685    c-2.036,5.786,1.693,11.994,7.758,12.917c35.244,5.363,66.353,20.246,89.074,42.891c5.066,5.049,13.679,3.041,16.077-3.697    l38.367-107.786C433.013,99.735,428.205,78.77,414.232,64.895z"/>
	</g>
</g>
<g>
	<g>
		<path d="M301.959,0.002l-91.735,0.003c-6.713,0-11.412,6.634-9.184,12.967l25.768,73.247c1.371,3.897,5.052,6.506,9.184,6.506    h40.2c4.132,0,7.814-2.607,9.184-6.506l25.768-73.25C313.372,6.636,308.673,0.002,301.959,0.002z"/>
	</g>
</g>
<g>
	<g>
		<path d="M255.224,209.59c-83.375,0-151.206,67.83-151.206,151.205S171.848,512,255.224,512s151.205-67.83,151.205-151.205    S338.6,209.59,255.224,209.59z M236.842,262.641h39.461c8.291,0,15.013,6.722,15.013,15.013c0,8.291-6.722,15.013-15.013,15.013    h-39.461c-8.291,0-15.013-6.722-15.013-15.013C221.829,269.363,228.55,262.641,236.842,262.641z M271.763,332.871v53.505    c0,8.291-6.722,15.013-15.013,15.013c-8.291,0-15.013-6.722-15.013-15.013v-53.505c0-8.291,6.722-15.013,15.013-15.013    C265.041,317.858,271.763,324.58,271.763,332.871z M209.531,402.561c-8.291,0-15.013-6.722-15.013-15.013v-53.506    c0-8.291,6.722-15.013,15.013-15.013c8.291,0,15.013,6.722,15.013,15.013v53.505C224.544,395.839,217.822,402.561,209.531,402.561    z M276.302,458.948h-39.461c-8.291,0-15.013-6.722-15.013-15.013s6.722-15.013,15.013-15.013h39.461    c8.291,0,15.013,6.722,15.013,15.013S284.595,458.948,276.302,458.948z M318.327,387.548c0,8.291-6.722,15.013-15.013,15.013    c-8.291,0-15.013-6.722-15.013-15.013v-53.506c0-8.291,6.722-15.013,15.013-15.013c8.291,0,15.013,6.722,15.013,15.013V387.548z"/>
	</g>
</g>
<g>
</g>
<g>
</g>
<g>
</g>
<g>
</g>
<g>
</g>
<g>
</g>
<g>
</g>
<g>
</g>
<g>
</g>
<g>
</g>
<g>
</g>
<g>
</g>
<g>
</g>
<g>
</g>
<g>
</g>
</svg>
