<?xml version="1.0" encoding="iso-8859-1"?>
<!-- Generator: Adobe Illustrator 19.0.0, SVG Export Plug-In . SVG Version: 6.00 Build 0)  -->
<svg version="1.1" id="Capa_1" xmlns="http://www.w3.org/2000/svg" xmlns:xlink="http://www.w3.org/1999/xlink" x="0px" y="0px"
	 viewBox="0 0 512 512" style="enable-background:new 0 0 512 512;" xml:space="preserve">
<g>
	<g>
		<path d="M467,0H287c-8.284,0-15,6.716-15,15v30c0,8.284,6.716,15,15,15h180c8.284,0,15-6.716,15-15V15C482,6.716,475.284,0,467,0z
			"/>
	</g>
</g>
<g>
	<g>
		<path d="M197,30h-32c-8.284,0-15,6.716-15,15v135h62V45C212,36.716,205.284,30,197,30z"/>
	</g>
</g>
<g>
	<g>
		<path d="M485.164,159.419C482.352,136.948,463.162,120,440.516,120H422V90h-90v30h-90v60h15c8.291,0,15,6.709,15,15
			s-6.709,15-15,15c-32.783,0-119.635,0-152,0c-8.291,0-15-6.709-15-15s6.709-15,15-15h15v-60H71.484
			c-22.646,0-41.836,16.948-44.648,39.419L1.758,360h508.484L485.164,159.419z M146.865,330H105c-8.291,0-15-6.709-15-15
			c0-8.291,6.709-15,15-15h41.865c8.291,0,15,6.709,15,15C161.865,323.291,155.156,330,146.865,330z M146.865,270H105
			c-8.291,0-15-6.709-15-15c0-8.291,6.709-15,15-15h41.865c8.291,0,15,6.709,15,15S155.156,270,146.865,270z M257,330h-41.719
			c-8.291,0-15-6.709-15-15c0-8.291,6.709-15,15-15H257c8.291,0,15,6.709,15,15C272,323.291,265.291,330,257,330z M257,270h-43.74
			c-8.291,0-15-6.709-15-15c0-8.291,6.709-15,15-15H257c8.291,0,15,6.709,15,15S265.291,270,257,270z M407,330h-90
			c-8.291,0-15-6.709-15-15c0-8.291,6.709-15,15-15h90c8.291,0,15,6.709,15,15C422,323.291,415.291,330,407,330z M422,255
			c0,8.291-6.709,15-15,15h-90c-8.291,0-15-6.709-15-15v-60c0-8.291,6.709-15,15-15h90c8.291,0,15,6.709,15,15V255z"/>
	</g>
</g>
<g>
	<g>
		<path d="M0,390v77c0,24.814,20.186,45,45,45h422c24.814,0,45-20.186,45-45v-77H0z M287,450h-60c-8.291,0-15-6.709-15-15
			c0-8.291,6.709-15,15-15h60c8.291,0,15,6.709,15,15C302,443.291,295.291,450,287,450z"/>
	</g>
</g>
<g>
	<g>
		<rect x="332" y="210" width="60" height="30"/>
	</g>
</g>
<g>
</g>
<g>
</g>
<g>
</g>
<g>
</g>
<g>
</g>
<g>
</g>
<g>
</g>
<g>
</g>
<g>
</g>
<g>
</g>
<g>
</g>
<g>
</g>
<g>
</g>
<g>
</g>
<g>
</g>
</svg>
