<?xml version="1.0" encoding="iso-8859-1"?>
<!-- Generator: Adobe Illustrator 19.0.0, SVG Export Plug-In . SVG Version: 6.00 Build 0)  -->
<svg version="1.1" id="Capa_1" xmlns="http://www.w3.org/2000/svg" xmlns:xlink="http://www.w3.org/1999/xlink" x="0px" y="0px"
	 viewBox="0 0 512 512" style="enable-background:new 0 0 512 512;" xml:space="preserve">
<g>
	<g>
		<path d="M257,90c-90.967,0-167,74.019-167,165s76.033,167,167,167s165-76.019,165-167S347.967,90,257,90z M272,209.999V210
			c8.291,0,15,6.709,15,15s-6.709,15-15,15h-75.755c-1.657,11.856-1.657,20.144,0,32H272c8.291,0,15,6.709,15,15
			c0,8.291-6.709,15-15,15h-66.556c3.409,6.995,7.328,13.671,12.319,19.497c28.184,32.9,78.289,32.915,106.473-0.015
			c5.479-6.299,14.912-7.002,21.152-1.611c6.299,5.391,7.031,14.854,1.641,21.152C327.137,364.227,300.477,377,272,377
			s-57.137-12.773-77.029-35.977c-9.756-11.389-17.263-24.641-22.339-39.023H150c-8.291,0-15-6.709-15-15c0-8.291,6.709-15,15-15
			h16.267c-1.708-15.576-1.708-16.424,0-32H150c-8.291,0-15-6.709-15-15s6.709-15,15-15h22.632
			c5.076-14.379,12.583-27.627,22.339-39.009c39.785-46.436,112.273-46.421,152.059-0.015c5.391,6.299,4.658,15.762-1.641,21.152
			c-6.24,5.405-15.674,4.702-21.152-1.611c-28.184-32.93-78.289-32.93-106.473,0c-4.988,5.821-8.906,12.491-12.316,19.482H272z"/>
	</g>
</g>
<g>
	<g>
		<path d="M257,0C116.404,0,0,114.39,0,255s116.404,257,257,257s255-116.39,255-257S397.596,0,257,0z M257,452.2
			c-107.52,0-197.2-89.68-197.2-197.2S149.48,59.8,257,59.8S452.2,147.48,452.2,255S364.52,452.2,257,452.2z"/>
	</g>
</g>
<g>
</g>
<g>
</g>
<g>
</g>
<g>
</g>
<g>
</g>
<g>
</g>
<g>
</g>
<g>
</g>
<g>
</g>
<g>
</g>
<g>
</g>
<g>
</g>
<g>
</g>
<g>
</g>
<g>
</g>
</svg>
