<?xml version="1.0" encoding="iso-8859-1"?>
<!-- Generator: Adobe Illustrator 19.0.0, SVG Export Plug-In . SVG Version: 6.00 Build 0)  -->
<svg version="1.1" id="Capa_1" xmlns="http://www.w3.org/2000/svg" xmlns:xlink="http://www.w3.org/1999/xlink" x="0px" y="0px"
	 viewBox="0 0 512 512" style="enable-background:new 0 0 512 512;" xml:space="preserve">
<g>
	<g>
		<path d="M272,13.129c-17.578-17.49-48.113-17.505-65.633,0.015L174.532,44.98l31.835,31.796c16.904,16.934,48.612,16.992,65.633,0
			l31.824-31.822L272,13.129z"/>
	</g>
</g>
<g>
	<g>
		<path d="M407,88.993h-16.721L452,150.721v-16.728C452,109.179,431.814,88.993,407,88.993z"/>
	</g>
</g>
<g>
	<g>
		<path d="M392,284.37v-15.377H90v153h302v-15.377c-18.105-13.704-30-38.217-30-62.623C362,319.587,373.895,298.074,392,284.37z"/>
	</g>
</g>
<g>
	<g>
		<path d="M437,298.993c-24.814,0-45,20.185-45,45c0,24.814,20.186,48,45,48h75v-93H437z M436.854,362.285
			c-8.291,0-15.146-6.855-15.146-15.146c0-8.291,6.855-18.146,15.146-18.146c8.291,0,15.146,9.855,15.146,18.146
			S445.145,362.285,436.854,362.285z"/>
	</g>
</g>
<g>
	<g>
		<path d="M325.031,66.174l-31.82,31.827c-29.343,29.282-78.727,29.297-108.055,0L153.31,66.205l-82.764,82.773l337.304,0.015
			L325.031,66.174z"/>
	</g>
</g>
<g>
	<g>
		<path d="M437,268.993h75v-45c0-24.815-20.186-45-45-45c-174.499,0-248.946,0-407,0c-13.594,0-25.518-9.185-29.004-22.339
			c-1.377-5.171,0.117-10.664,3.896-14.443l53.21-53.218H60c-33.076,0-60,26.909-60,60v318c0,24.814,20.186,45,45,45h422
			c24.814,0,45-20.186,45-45v-45h-75c-5.138,0-10.151-0.529-15-1.518v16.518c0,8.291-6.709,15-15,15H75c-8.291,0-15-6.709-15-15
			v-183c0-8.291,6.709-15,15-15h332c8.291,0,15,6.709,15,15v16.518C426.849,269.522,431.862,268.993,437,268.993z"/>
	</g>
</g>
<g>
</g>
<g>
</g>
<g>
</g>
<g>
</g>
<g>
</g>
<g>
</g>
<g>
</g>
<g>
</g>
<g>
</g>
<g>
</g>
<g>
</g>
<g>
</g>
<g>
</g>
<g>
</g>
<g>
</g>
</svg>
