<?xml version="1.0" encoding="iso-8859-1"?>
<!-- Generator: Adobe Illustrator 19.0.0, SVG Export Plug-In . SVG Version: 6.00 Build 0)  -->
<svg version="1.1" id="Capa_1" xmlns="http://www.w3.org/2000/svg" xmlns:xlink="http://www.w3.org/1999/xlink" x="0px" y="0px"
	 viewBox="0 0 512.001 512.001" style="enable-background:new 0 0 512.001 512.001;" xml:space="preserve">
<g>
	<g>
		<path d="M256,209.882c-24.824,0-45.018-20.194-45.018-45.018c0-18.127,10.785-34.393,27.462-41.471
			c0.828-0.35,1.711-0.331,2.55-0.63v-17.922c0-8.294,6.712-15.006,15.006-15.006c-57.892,0-105.012,46.792-105.012,105.041
			c0,51.678,37.668,99.877,98.523,103.427c-5.001-2.433-8.517-7.452-8.517-13.392v-17.748c-9.892-3.337-19.366-9.67-27.462-19.313
			c-5.334-6.345-4.514-15.812,1.847-21.146c6.33-5.334,15.797-4.528,21.131,1.832c16.298,19.467,34.495,11.174,34.495-3.648
			C271.006,216.609,264.265,209.882,256,209.882z"/>
	</g>
</g>
<g>
	<g>
		<path d="M256,89.835c8.294,0,15.006,6.712,15.006,15.006v17.982c7.763,2.621,15.336,6.776,22.099,13.304
			c5.949,5.773,6.125,15.27,0.352,21.219c-5.773,5.979-15.27,6.125-21.219,0.352c-15.257-14.798-31.242-6.517-31.242,7.166
			c0,8.279,6.741,15.006,15.006,15.006c24.824,0,45.018,20.194,45.018,45.018c0,18.845-11.9,35.859-29.602,42.307
			c-0.135,0.049-0.275,0.026-0.41,0.073v17.644c0,5.94-3.517,10.959-8.517,13.392c60.614-3.535,98.523-51.545,98.523-103.427
			C361.012,136.737,314.013,89.835,256,89.835z"/>
	</g>
</g>
<g>
	<g>
		<path d="M256,0C148.438,0,60.924,87.314,60.924,194.876c0,43.45,13.98,84.554,40.27,118.728l142.79,192.388
			c2.843,3.78,7.298,6.008,12.017,6.008c4.719,0,9.174-2.228,12.017-6.008l145.575-196.14
			c24.531-33.543,37.486-73.315,37.486-114.977C451.076,87.314,363.562,0,256,0z M256,329.929
			c-73.685,0-135.024-59.451-135.024-135.053c0-75.621,61.349-135.053,135.024-135.053c73.685,0,135.024,59.451,135.024,135.053
			C391.024,270.497,329.675,329.929,256,329.929z"/>
	</g>
</g>
<g>
</g>
<g>
</g>
<g>
</g>
<g>
</g>
<g>
</g>
<g>
</g>
<g>
</g>
<g>
</g>
<g>
</g>
<g>
</g>
<g>
</g>
<g>
</g>
<g>
</g>
<g>
</g>
<g>
</g>
</svg>
