<?xml version="1.0" encoding="iso-8859-1"?>
<!-- Generator: Adobe Illustrator 19.0.0, SVG Export Plug-In . SVG Version: 6.00 Build 0)  -->
<svg version="1.1" id="Capa_1" xmlns="http://www.w3.org/2000/svg" xmlns:xlink="http://www.w3.org/1999/xlink" x="0px" y="0px"
	 viewBox="0 0 512.001 512.001" style="enable-background:new 0 0 512.001 512.001;" xml:space="preserve">
<g>
	<g>
		<path d="M510.102,427.713c-5.691-24.101-23.496-43.821-46.575-52.688l-88.517,88.511c8.866,23.073,28.619,40.882,52.738,46.575
			c5.391,1.26,10.752,1.89,16.025,1.89c17.783,0,34.658-7.031,47.93-20.303C508.93,474.471,515.639,451.15,510.102,427.713z"/>
	</g>
</g>
<g>
	<g>
		<path d="M384.179,316.771c-8.61,13.317-18.567,25.889-30.051,37.372c-11.484,11.477-24.053,21.434-37.368,30.042
			c16.3,18.697,32.973,36.602,43.036,50.249l76.633-76.626C422.766,347.743,402.863,333.062,384.179,316.771z"/>
	</g>
</g>
<g>
	<g>
		<path d="M269.285,120.808c-19.835-19.834-46.202-30.762-74.239-30.762c8.291,0,15,6.709,15,15v17.972
			c7.756,2.619,15.33,6.773,22.09,13.303c5.947,5.771,6.123,15.264,0.352,21.211c-5.771,5.977-15.264,6.123-21.211,0.352
			c-15.189-14.762-31.23-6.528-31.23,7.163c0,8.276,6.738,15,15,15c24.814,0,45,20.186,45,45c0,18.838-11.895,35.845-29.59,42.29
			c-0.135,0.049-0.275,0.025-0.41,0.073v17.637c0,8.284-6.716,15-15,15c28.037,0,54.404-10.928,74.238-30.762
			C310.27,228.39,310.329,161.761,269.285,120.808z"/>
	</g>
</g>
<g>
	<g>
		<path d="M154.441,226.862c6.357-5.347,15.791-4.526,21.123,1.831c16.321,19.495,34.482,11.144,34.482-3.647
			c0-8.276-6.738-15-15-15c-24.814,0-45-20.186-45-45c0-18.12,10.581-34.38,27.251-41.455c0.828-0.35,1.71-0.33,2.549-0.628v-17.917
			c0-8.291,6.909-15,15.2-15c-28.037,0-54.404,10.928-74.238,30.762c-40.985,40.895-41.044,107.524,0,148.477
			c19.834,19.834,46.201,30.762,74.238,30.762c-8.284-0.001-15.2-6.717-15.2-15.001v-17.741
			c-9.888-3.336-19.158-9.666-27.251-19.305C147.263,241.657,148.083,232.194,154.441,226.862z"/>
	</g>
</g>
<g>
	<g>
		<path d="M332.917,57.161c-76.221-76.222-199.535-76.207-275.742,0c-76.259,76.259-76.207,199.565,0,275.771
			c76.221,76.221,199.535,76.207,275.742,0C409.176,256.673,409.124,133.367,332.917,57.161z M290.495,290.51
			c-52.771,52.74-138.094,52.774-190.898,0c-52.737-52.677-52.745-138.244,0-190.928c52.771-52.74,138.094-52.774,190.898,0
			C343.232,152.259,343.239,237.826,290.495,290.51z"/>
	</g>
</g>
<g>
</g>
<g>
</g>
<g>
</g>
<g>
</g>
<g>
</g>
<g>
</g>
<g>
</g>
<g>
</g>
<g>
</g>
<g>
</g>
<g>
</g>
<g>
</g>
<g>
</g>
<g>
</g>
<g>
</g>
</svg>
