<?xml version="1.0" encoding="iso-8859-1"?>
<!-- Generator: Adobe Illustrator 19.0.0, SVG Export Plug-In . SVG Version: 6.00 Build 0)  -->
<svg version="1.1" id="Capa_1" xmlns="http://www.w3.org/2000/svg" xmlns:xlink="http://www.w3.org/1999/xlink" x="0px" y="0px"
	 viewBox="0 0 512 512" style="enable-background:new 0 0 512 512;" xml:space="preserve">
<g>
	<g>
		<path d="M481,182c-25.031,0-45,20.297-45,45v15h60v-60H481z"/>
	</g>
</g>
<g>
	<g>
		<rect x="436" y="272" width="60" height="30"/>
	</g>
</g>
<g>
	<g>
		<path d="M436,392v88.098c34.138-7.009,60-36.923,60-73.098v-15H436z"/>
	</g>
</g>
<g>
	<g>
		<path d="M61,0C36.186,0,16,20.186,16,45v422c0,24.814,20.186,45,45,45h15V0H61z"/>
	</g>
</g>
<g>
	<g>
		<path d="M320.541,306.012l-21.211,21.213c-5.859,5.859-15.352,5.859-21.211,0l-77.344-77.344c-5.859-5.859-5.859-15.352,0-21.211
			l21.211-21.226l-21.211-21.211l-21.211,21.211c-17.549,17.549-17.549,46.099,0,63.647l77.344,77.358
			c17.021,17.036,46.67,16.978,63.633,0l21.211-21.226L320.541,306.012z"/>
	</g>
</g>
<g>
	<g>
		<rect x="436" y="332" width="60" height="30"/>
	</g>
</g>
<g>
	<g>
		<path d="M451,0H106v512c110.796,0,190.772,0,300,0v-2.726c0-102.089,0-165.725,0-282.274c0-41.146,33.208-75,75-75h15V45
			C496,20.186,475.814,0,451,0z M373.568,337.83l-31.816,31.831c-29.253,29.283-76.652,29.373-106.055,0l-77.344-77.358
			c-29.238-29.238-29.238-76.831,0-106.069l31.816-31.816c5.859-5.859,15.352-5.859,21.211,0l42.422,42.422
			c5.859,5.859,5.859,15.352,0,21.211l-21.211,21.226l56.133,56.133l21.211-21.211c5.859-5.859,15.352-5.859,21.211,0l42.422,42.422
			C379.428,322.479,379.428,331.971,373.568,337.83z"/>
	</g>
</g>
<g>
</g>
<g>
</g>
<g>
</g>
<g>
</g>
<g>
</g>
<g>
</g>
<g>
</g>
<g>
</g>
<g>
</g>
<g>
</g>
<g>
</g>
<g>
</g>
<g>
</g>
<g>
</g>
<g>
</g>
</svg>
