<?xml version="1.0" encoding="iso-8859-1"?>
<!-- Generator: Adobe Illustrator 19.0.0, SVG Export Plug-In . SVG Version: 6.00 Build 0)  -->
<svg version="1.1" id="Capa_1" xmlns="http://www.w3.org/2000/svg" xmlns:xlink="http://www.w3.org/1999/xlink" x="0px" y="0px"
	 viewBox="0 0 512 512" style="enable-background:new 0 0 512 512;" xml:space="preserve">
<g>
	<g>
		<path d="M453.816,117.593L351.395,15.171c-1.348-1.346-2.893-2.439-4.395-3.594v110.411h110.427
			C456.27,120.494,455.175,118.952,453.816,117.593z"/>
	</g>
</g>
<g>
	<g>
		<path d="M316,420c-23.134,0-44.04-9.016-60-23.408c0,49.39,0,63.788,0,100.384c0,11.906,13.248,19.146,23.306,12.486
			c4.615-3.076,32.098-21.391,36.694-24.454c41.588,27.713-26.385-17.599,36.694,24.452c9.973,6.603,23.306-0.475,23.306-12.484
			c0-37.848,0-50.083,0-100.384C360.041,410.984,339.134,420,316,420z"/>
	</g>
</g>
<g>
	<g>
		<path d="M316,270c-33.076,0-60,26.909-60,60s26.924,60,60,60s60-26.909,60-60S349.076,270,316,270z"/>
	</g>
</g>
<g>
	<g>
		<path d="M331,150c-8.291,0-15-6.709-15-15V0H91C66.186,0,46,20.186,46,45v390c0,24.814,20.186,45,45,45h135V330
			c0-49.629,40.371-90,90-90c49.629,0,90,40.371,90,90v150h15.234C445.932,480,466,459.873,466,435.117V150H331z M181,390h-60
			c-8.291,0-15-6.709-15-15c0-8.291,6.709-15,15-15h60c8.291,0,15,6.709,15,15C196,383.291,189.291,390,181,390z M181,330h-60
			c-8.291,0-15-6.709-15-15c0-8.291,6.709-15,15-15h60c8.291,0,15,6.709,15,15C196,323.291,189.291,330,181,330z M166.41,237.29
			c-0.135,0.049-0.275,0.026-0.41,0.073V255c0,8.291-6.709,15-15,15s-15-6.709-15-15v-17.741
			c-9.888-3.336-19.358-9.666-27.451-19.305c-5.332-6.343-4.512-15.806,1.846-21.138c6.328-5.347,15.791-4.526,21.123,1.831
			c7.91,9.463,16.963,13.286,24.609,10.444C162.045,206.953,166,201.284,166,195c0-8.276-6.738-15-15-15c-24.814,0-45-20.186-45-45
			c0-18.12,10.781-34.38,27.451-41.455c0.828-0.35,1.71-0.33,2.549-0.628V75c0-8.291,6.709-15,15-15s15,6.709,15,15v17.974
			c7.764,2.617,15.337,6.771,22.09,13.301c5.947,5.771,6.123,15.264,0.352,21.211c-5.742,5.977-15.264,6.123-21.211,0.352
			c-7.324-7.075-15.41-9.521-22.061-6.665C139.604,123.53,136,128.95,136,135c0,8.276,6.738,15,15,15c24.814,0,45,20.186,45,45
			C196,213.838,184.105,230.845,166.41,237.29z M241,60h30c8.291,0,15,6.709,15,15s-6.709,15-15,15h-30c-8.291,0-15-6.709-15-15
			S232.709,60,241,60z M241,120h30c8.291,0,15,6.709,15,15s-6.709,15-15,15h-30c-8.291,0-15-6.709-15-15S232.709,120,241,120z
			 M391,210H241c-8.291,0-15-6.709-15-15s6.709-15,15-15h150c8.291,0,15,6.709,15,15S399.291,210,391,210z"/>
	</g>
</g>
<g>
</g>
<g>
</g>
<g>
</g>
<g>
</g>
<g>
</g>
<g>
</g>
<g>
</g>
<g>
</g>
<g>
</g>
<g>
</g>
<g>
</g>
<g>
</g>
<g>
</g>
<g>
</g>
<g>
</g>
</svg>
