<?xml version="1.0" encoding="iso-8859-1"?>
<!-- Generator: Adobe Illustrator 19.0.0, SVG Export Plug-In . SVG Version: 6.00 Build 0)  -->
<svg version="1.1" id="Capa_1" xmlns="http://www.w3.org/2000/svg" xmlns:xlink="http://www.w3.org/1999/xlink" x="0px" y="0px"
	 viewBox="0 0 512 512" style="enable-background:new 0 0 512 512;" xml:space="preserve">
<g>
	<g>
		<path d="M0,150v15c0,24.814,20.186,45,45,45h15v154.763C42.578,370.976,30,387.47,30,407v15h452v-15
			c0-19.53-12.576-36.024-30-42.237V210h15c24.814,0,45-20.186,45-45v-15H0z M210,362h-60V210h60V362z M362,362h-60V210h60V362z"/>
	</g>
</g>
<g>
	<g>
		<path d="M263.709,1.582c-4.219-2.109-11.199-2.109-15.418,0L11.455,120h489.09L263.709,1.582z"/>
	</g>
</g>
<g>
	<g>
		<path d="M0,452v45c0,8.284,6.716,15,15,15h482c8.284,0,15-6.716,15-15v-45H0z"/>
	</g>
</g>
<g>
</g>
<g>
</g>
<g>
</g>
<g>
</g>
<g>
</g>
<g>
</g>
<g>
</g>
<g>
</g>
<g>
</g>
<g>
</g>
<g>
</g>
<g>
</g>
<g>
</g>
<g>
</g>
<g>
</g>
</svg>
