<?xml version="1.0" encoding="iso-8859-1"?>
<!-- Generator: Adobe Illustrator 19.0.0, SVG Export Plug-In . SVG Version: 6.00 Build 0)  -->
<svg version="1.1" id="Capa_1" xmlns="http://www.w3.org/2000/svg" xmlns:xlink="http://www.w3.org/1999/xlink" x="0px" y="0px"
	 viewBox="0 0 512.001 512.001" style="enable-background:new 0 0 512.001 512.001;" xml:space="preserve">
<g>
	<g>
		<path d="M467,0H45C20.186,0,0,20.186,0,45v60c0,24.814,20.186,45,45,45h45V90H75c-8.291,0-15-6.709-15-15s6.709-15,15-15
			c120.358,0,242.462,0,362,0c8.291,0,15,6.709,15,15s-6.709,15-15,15h-15v60h45c24.814,0,45-20.186,45-45V45
			C512,20.186,491.815,0,467,0z"/>
	</g>
</g>
<g>
	<g>
		<path d="M377,120h15V90H120v30h15c8.291,0,15,6.709,15,15s-6.709,15-15,15h-15v353.211l4.395,4.395
			c5.859,5.859,15.352,5.859,21.211,0L165,488.211l19.395,19.395c5.859,5.859,15.352,5.859,21.211,0L225,488.211l19.395,19.395
			c5.859,5.859,17.352,5.859,23.211,0L287,488.211l19.395,19.395c5.859,5.859,15.352,5.859,21.211,0L347,488.211l19.395,19.395
			c2.93,2.93,6.768,4.395,10.605,4.395c3.837,0,7.676-1.465,10.605-4.395l4.395-4.395V150h-15c-8.291,0-15-6.709-15-15
			S368.71,120,377,120z M210.411,357.29c-0.135,0.049-0.275,0.026-0.41,0.073V375c0,8.291-6.709,15-15,15s-15-6.709-15-15v-17.741
			c-9.888-3.336-19.358-9.666-27.451-19.305c-5.332-6.343-4.512-15.806,1.846-21.138c6.357-5.361,15.791-4.541,21.123,1.831
			c7.91,9.448,16.963,13.33,24.609,10.444C215.739,323.45,211.735,300,195,300c-24.814,0-45-20.186-45-45
			c0-18.12,10.781-34.38,27.451-41.455c0.828-0.352,1.71-0.331,2.549-0.63V195c0-8.291,6.709-15,15-15s15,6.709,15,15v17.961
			c7.756,2.618,15.33,6.779,22.09,13.314c5.947,5.771,6.123,15.264,0.352,21.211c-5.771,5.977-15.264,6.123-21.211,0.352
			C196.042,233.106,180,241.323,180,255c0,8.276,6.738,15,15,15c24.814,0,45,20.186,45,45
			C240,333.838,228.105,350.845,210.411,357.29z M225,150h-30c-8.291,0-15-6.709-15-15s6.709-15,15-15h30c8.291,0,15,6.709,15,15
			S233.292,150,225,150z M287,120h30c8.291,0,15,6.709,15,15s-6.709,15-15,15h-30c-8.291,0-15-6.709-15-15S278.71,120,287,120z
			 M347,360h-60c-8.291,0-15-6.709-15-15c0-8.291,6.709-15,15-15h60c8.291,0,15,6.709,15,15C362,353.291,355.292,360,347,360z
			 M347,300h-60c-8.291,0-15-6.709-15-15c0-8.291,6.709-15,15-15h60c8.291,0,15,6.709,15,15C362,293.291,355.292,300,347,300z
			 M347,240h-60c-8.291,0-15-6.709-15-15s6.709-15,15-15h60c8.291,0,15,6.709,15,15S355.292,240,347,240z"/>
	</g>
</g>
<g>
</g>
<g>
</g>
<g>
</g>
<g>
</g>
<g>
</g>
<g>
</g>
<g>
</g>
<g>
</g>
<g>
</g>
<g>
</g>
<g>
</g>
<g>
</g>
<g>
</g>
<g>
</g>
<g>
</g>
</svg>
