<?xml version="1.0" encoding="iso-8859-1"?>
<!-- Generator: Adobe Illustrator 19.0.0, SVG Export Plug-In . SVG Version: 6.00 Build 0)  -->
<svg version="1.1" id="Capa_1" xmlns="http://www.w3.org/2000/svg" xmlns:xlink="http://www.w3.org/1999/xlink" x="0px" y="0px"
	 viewBox="0 0 511.999 511.999" style="enable-background:new 0 0 511.999 511.999;" xml:space="preserve">
<g>
	<g>
		<path d="M506.543,192.56C450.442,146.228,361.587,91.005,257,91.005S61.558,146.228,5.457,192.56
			c-6.387,5.273-7.295,14.736-2.021,21.122c5.272,6.372,14.765,7.222,21.121,2.021C76.88,172.491,161.319,121.004,257,121.004
			s178.12,51.488,230.442,94.699c6.361,5.257,15.852,4.372,21.122-2.021C513.837,207.295,512.929,197.832,506.543,192.56z"/>
	</g>
</g>
<g>
	<g>
		<path d="M257,300.997c-24.813,0-46.999-20.185-46.999-44.999c0-17.948,10.276-35.064,29.999-42.084V196c0-8.291,8.709-15,17-15
			c-57.889,0-106.997,47.108-106.997,104.997c0,57.889,49.108,104.997,106.997,104.997c-8.291,0.001-17-6.708-17-14.999v-17.74
			c-9.888-3.336-19.357-9.666-27.45-19.304c-5.332-6.343-4.512-15.806,1.846-21.137c6.328-5.347,15.791-4.526,21.122,1.831
			c7.91,9.463,19.05,13.286,26.608,10.444c5.918-2.139,9.873-7.808,9.873-14.092C271.999,307.721,265.261,300.997,257,300.997z"/>
	</g>
</g>
<g>
	<g>
		<g>
			<path d="M253.404,151.051c1.198-0.018,2.394-0.049,3.596-0.049C255.798,151.003,254.599,151.02,253.404,151.051z"/>
			<path d="M120.004,285.999c0-73.239,60.552-133.036,133.4-134.947C117.413,153.109,8.375,270.927,3.845,275.994
				c-5.127,5.698-5.127,14.312,0,20.009c4.53,5.067,113.568,122.885,249.559,124.943
				C180.555,419.034,120.004,359.239,120.004,285.999z"/>
			<path d="M253.404,420.946c1.195,0.031,2.394,0.049,3.596,0.049C255.797,420.995,254.602,420.964,253.404,420.946z"/>
		</g>
	</g>
</g>
<g>
	<g>
		<g>
			<path d="M260.594,420.946c-1.198,0.018-2.392,0.049-3.594,0.049C258.202,420.995,259.399,420.978,260.594,420.946z"/>
			<path d="M508.154,275.994c-4.53-5.067-111.604-122.885-247.561-124.943c72.786,1.912,131.402,61.708,131.402,134.948
				S333.38,419.035,260.594,420.946c135.957-2.057,243.031-119.876,247.561-124.943
				C513.281,290.306,513.281,281.693,508.154,275.994z"/>
			<path d="M260.594,151.051c-1.194-0.031-2.392-0.049-3.594-0.049C258.202,151.003,259.396,151.033,260.594,151.051z"/>
		</g>
	</g>
</g>
<g>
	<g>
		<path d="M257,181.002c8.291,0,15,6.709,15,15v17.974c7.76,2.62,15.33,6.773,22.089,13.299c5.947,5.771,6.123,15.264,0.352,21.21
			c-5.771,5.977-15.264,6.123-21.21,0.352c-27.465-26.638-46.229,22.162-16.23,22.162c24.813,0,44.999,20.185,44.999,44.999
			c0,18.837-11.895,35.844-29.589,42.289c-0.135,0.049-0.275,0.026-0.41,0.073v17.636c0,8.291-6.709,15-15,15
			c57.889,0,104.997-47.108,104.997-104.997C361.998,228.11,314.889,181.002,257,181.002z"/>
	</g>
</g>
<g>
</g>
<g>
</g>
<g>
</g>
<g>
</g>
<g>
</g>
<g>
</g>
<g>
</g>
<g>
</g>
<g>
</g>
<g>
</g>
<g>
</g>
<g>
</g>
<g>
</g>
<g>
</g>
<g>
</g>
</svg>
