<?xml version="1.0" encoding="iso-8859-1"?>
<!-- Generator: Adobe Illustrator 19.0.0, SVG Export Plug-In . SVG Version: 6.00 Build 0)  -->
<svg version="1.1" id="Capa_1" xmlns="http://www.w3.org/2000/svg" xmlns:xlink="http://www.w3.org/1999/xlink" x="0px" y="0px"
	 viewBox="0 0 512 512" style="enable-background:new 0 0 512 512;" xml:space="preserve">
<g>
	<g>
		<path d="M195,180c-8.262,0-15,6.724-15,15s6.738,15,15,15c8.262,0,15-6.724,15-15S203.262,180,195,180z"/>
	</g>
</g>
<g>
	<g>
		<path d="M317,302c-8.262,0-15,6.724-15,15s6.738,15,15,15c8.262,0,15-6.724,15-15S325.262,302,317,302z"/>
	</g>
</g>
<g>
	<g>
		<path d="M257,0C116.404,0,0,114.39,0,255s116.404,257,257,257s255-116.39,255-257S397.596,0,257,0z M257,452.2
			c-107.52,0-197.2-89.68-197.2-197.2S149.48,59.8,257,59.8S452.2,147.48,452.2,255S364.52,452.2,257,452.2z"/>
	</g>
</g>
<g>
	<g>
		<path d="M257,90c-90.967,0-167,74.019-167,165s76.033,167,167,167s165-76.019,165-167S347.967,90,257,90z M150,195
			c0-24.814,20.186-45,45-45c24.814,0,45,20.186,45,45c0,24.814-20.186,45-45,45C170.186,240,150,219.814,150,195z M207.48,355.32
			c-4.645,6.944-13.969,8.715-20.801,4.16c-6.885-4.6-8.76-13.901-4.16-20.801l122-182c4.629-6.914,13.945-8.73,20.801-4.16
			c6.885,4.6,8.76,13.901,4.16,20.801L207.48,355.32z M317,362c-24.814,0-45-20.186-45-45c0-24.814,20.186-45,45-45
			c24.814,0,45,20.186,45,45C362,341.814,341.814,362,317,362z"/>
	</g>
</g>
<g>
</g>
<g>
</g>
<g>
</g>
<g>
</g>
<g>
</g>
<g>
</g>
<g>
</g>
<g>
</g>
<g>
</g>
<g>
</g>
<g>
</g>
<g>
</g>
<g>
</g>
<g>
</g>
<g>
</g>
</svg>
