<?xml version="1.0" encoding="iso-8859-1"?>
<!-- Generator: Adobe Illustrator 19.0.0, SVG Export Plug-In . SVG Version: 6.00 Build 0)  -->
<svg version="1.1" id="Capa_1" xmlns="http://www.w3.org/2000/svg" xmlns:xlink="http://www.w3.org/1999/xlink" x="0px" y="0px"
	 viewBox="0 0 512 512" style="enable-background:new 0 0 512 512;" xml:space="preserve">
<g>
	<g>
		<path d="M506.053,197.718L450.799,67.537c-0.004-0.009-0.015-0.011-0.015-0.011c-2.296-5.374-7.599-9.13-13.784-9.13
			c-0.059,0-0.117,0-0.176,0c-19.57,0.249-38.291,8.042-54.17,22.544c-21.504,19.629-50.252,19.644-71.814-0.015
			c-3.516-3.199-7.449-5.385-11.243-7.934c-1.6-17.748-13.4-32.452-29.597-38.229V15c0-8.291-6.709-15-15-15
			c-8.291,0-15,6.709-15,15v19.763c-16.494,5.881-28.447,21.019-29.692,39.194c-3.252,2.289-6.658,4.248-9.653,6.984
			c-21.504,19.629-48.281,19.629-69.785,0c-17.465-15.917-61.238-34.835-69.803-13.019c-0.022,0.059-0.077,0.099-0.099,0.157
			L5.947,197.732C1.992,207.02,0,216.863,0,227c0,41.353,33.633,75,75,75s75-33.647,75-75c0-10.137-1.992-19.98-5.947-29.282
			L100.822,95.864c25.161,15.26,30.073,29.784,64.911,29.784c18.779,0,37.489-7.233,53.69-21.412
			c5.24,6.826,12.323,12.059,20.577,15.002V152h-15c-8.291,0-15,6.709-15,15s6.709,15,15,15h15v180h-75c-24.814,0-45,20.186-45,45
			v15h270v-15c0-24.814-20.186-45-45-45h-75V182h15c8.291,0,15-6.709,15-15s-6.709-15-15-15h-15v-32.763
			c8.555-3.051,15.894-8.54,21.178-15.731c16.355,14.724,37.446,22.141,56.554,22.141c32.071,0,40.03-13.448,62.97-28.658
			l-42.755,100.743C363.992,207.02,362,216.863,362,227c0,41.353,33.633,75,75,75s75-33.647,75-75
			C512,216.863,510.008,207.02,506.053,197.718z M117.25,212H32.754c2.259-6.404,39.592-93.945,42.246-100.195
			C77.671,118.093,114.977,205.557,117.25,212z M255,92c-8.262,0-15-6.724-15-15s6.738-15,15-15c8.262,0,15,6.724,15,15
			S263.262,92,255,92z M394.754,212c2.345-6.605,39.507-93.758,42.246-100.21c2.671,6.29,39.977,93.766,42.25,100.21H394.754z"/>
	</g>
</g>
<g>
	<g>
		<path d="M435,452H75c-8.284,0-15,6.716-15,15v15c0,16.569,13.432,30,30,30h330c16.569,0,30-13.431,30-30v-15
			C450,458.716,443.284,452,435,452z"/>
	</g>
</g>
<g>
</g>
<g>
</g>
<g>
</g>
<g>
</g>
<g>
</g>
<g>
</g>
<g>
</g>
<g>
</g>
<g>
</g>
<g>
</g>
<g>
</g>
<g>
</g>
<g>
</g>
<g>
</g>
<g>
</g>
</svg>
