<?xml version="1.0" encoding="iso-8859-1"?>
<!-- Generator: Adobe Illustrator 19.0.0, SVG Export Plug-In . SVG Version: 6.00 Build 0)  -->
<svg version="1.1" id="Capa_1" xmlns="http://www.w3.org/2000/svg" xmlns:xlink="http://www.w3.org/1999/xlink" x="0px" y="0px"
	 viewBox="0 0 512 512" style="enable-background:new 0 0 512 512;" xml:space="preserve">
<g>
	<g>
		<path d="M466.88,391.931c-24.801,0-44.977-20.176-44.977-44.977v-44.977H301.964v44.977c0,24.801-20.176,44.977-44.977,44.977
			H212.01v29.985h44.977c24.801,0,44.977,20.176,44.977,44.977v44.977h119.939v-44.977c0-24.801,20.176-44.977,44.977-44.977h44.977
			v-29.985H466.88z M361.934,451.9c-24.801,0-44.977-20.176-44.977-44.977s20.176-44.977,44.977-44.977
			c24.801,0,44.977,20.176,44.977,44.977S386.736,451.9,361.934,451.9z"/>
	</g>
</g>
<g>
	<g>
		<path d="M466.88,301.977h-14.992v44.977c0,8.272,6.735,14.992,14.992,14.992h44.977v-14.992
			C511.857,322.151,491.683,301.977,466.88,301.977z"/>
	</g>
</g>
<g>
	<g>
		<path d="M361.934,391.931c-8.258,0-14.992,6.721-14.992,14.992s6.735,14.992,14.992,14.992c8.258,0,14.992-6.721,14.992-14.992
			S370.192,391.931,361.934,391.931z"/>
	</g>
</g>
<g>
	<g>
		<path d="M256.987,301.977c-24.801,0-44.977,20.175-44.977,44.977v14.992h44.977c8.258,0,14.992-6.721,14.992-14.992v-44.977
			H256.987z"/>
	</g>
</g>
<g>
	<g>
		<path d="M256.987,451.9H212.01v14.992c0,24.801,20.176,44.977,44.977,44.977h14.992v-44.977
			C271.98,458.62,265.245,451.9,256.987,451.9z"/>
	</g>
</g>
<g>
	<g>
		<path d="M466.88,451.9c-8.257,0-14.992,6.72-14.992,14.992v44.977h14.992c24.801,0,44.977-20.176,44.977-44.977V451.9H466.88z"/>
	</g>
</g>
<g>
	<g>
		<path d="M254.988,90.085c-24.801,0-44.977-20.176-44.977-44.977V0.131H90.072v44.977c0,24.801-20.176,44.977-44.977,44.977H0.118
			v29.985h44.977c24.801,0,44.977,20.176,44.977,44.977v44.977h119.939v-44.977c0-24.802,20.176-44.977,44.977-44.977h44.977V90.085
			H254.988z M150.042,150.054c-24.801,0-44.977-20.176-44.977-44.977c0-24.801,20.176-44.977,44.977-44.977
			s44.977,20.176,44.977,44.977C195.019,129.878,174.844,150.054,150.042,150.054z"/>
	</g>
</g>
<g>
	<g>
		<path d="M150.042,90.085c-8.258,0-14.992,6.721-14.992,14.992s6.735,14.992,14.992,14.992c8.258,0,14.992-6.721,14.992-14.992
			S158.3,90.085,150.042,90.085z"/>
	</g>
</g>
<g>
	<g>
		<path d="M254.988,0.131h-14.992v44.977c0,8.272,6.736,14.992,14.992,14.992h44.977V45.108
			C299.965,20.306,279.79,0.131,254.988,0.131z"/>
	</g>
</g>
<g>
	<g>
		<path d="M45.095,0.131c-24.801,0-44.977,20.176-44.977,44.977V60.1h44.977c8.258,0,14.992-6.721,14.992-14.992V0.131H45.095z"/>
	</g>
</g>
<g>
	<g>
		<path d="M254.988,150.054c-8.258,0-14.992,6.721-14.992,14.992v44.977h14.992c24.802,0,44.977-20.176,44.977-44.977v-14.992
			H254.988z"/>
	</g>
</g>
<g>
	<g>
		<path d="M45.095,150.054H0.118v14.992c0,24.801,20.176,44.977,44.977,44.977h14.992v-44.977
			C60.088,156.775,53.353,150.054,45.095,150.054z"/>
	</g>
</g>
<g>
	<g>
		<path d="M138.048,391.931H93.071v-59.969h24.861c7.418,0,11.115-8.999,5.892-14.224l-54.841-54.842
			c-1.563-1.563-3.684-2.442-5.895-2.441c-2.211,0.001-4.331,0.881-5.893,2.445L2.448,317.737
			c-5.245,5.245-1.496,14.224,5.892,14.224h24.761v59.969c0,33.12,26.849,59.969,59.969,59.969h44.977
			c8.28,0,14.992-6.713,14.992-14.992v-29.985C153.04,398.642,146.329,391.931,138.048,391.931z"/>
	</g>
</g>
<g>
	<g>
		<path d="M503.736,182.038h-24.861v-59.969c0-33.12-26.849-59.969-59.969-59.969h-44.977c-8.28,0-14.992,6.713-14.992,14.992
			v29.985c0,8.28,6.713,14.992,14.992,14.992h44.977v59.969h-24.861c-7.418,0-11.115,8.999-5.892,14.224l54.846,54.846
			c3.254,3.254,8.53,3.254,11.784,0l54.746-54.846C514.773,191.016,511.124,182.038,503.736,182.038z"/>
	</g>
</g>
<g>
</g>
<g>
</g>
<g>
</g>
<g>
</g>
<g>
</g>
<g>
</g>
<g>
</g>
<g>
</g>
<g>
</g>
<g>
</g>
<g>
</g>
<g>
</g>
<g>
</g>
<g>
</g>
<g>
</g>
</svg>
