<?xml version="1.0" encoding="iso-8859-1"?>
<!-- Generator: Adobe Illustrator 19.0.0, SVG Export Plug-In . SVG Version: 6.00 Build 0)  -->
<svg version="1.1" id="Capa_1" xmlns="http://www.w3.org/2000/svg" xmlns:xlink="http://www.w3.org/1999/xlink" x="0px" y="0px"
	 viewBox="0 0 511.999 511.999" style="enable-background:new 0 0 511.999 511.999;" xml:space="preserve">
<g>
	<g>
		<path d="M510.359,238.426c-1.553-8.159-9.609-13.359-17.578-11.895c-8.115,1.567-13.447,9.434-11.895,17.578
			c0.732,3.809,1.313,7.793,1.313,11.895c0,25.853-18.804,46.302-35.258,44.299c1.822-9.608,3.058-19.349,3.058-29.299
			c0-69.937-48.556-133.561-121.738-162.806c-4.166,20.956-15.729,39.212-31.736,52.266c2.873,0.936,5.945,1.366,8.747,2.45
			c7.705,2.988,11.572,11.675,8.584,19.395c-3.007,7.726-11.688,11.564-19.424,8.584c-33.428-12.935-73.857-13.11-107.285-0.498
			c-7.793,2.944-16.377-0.981-19.336-8.73c-2.93-7.749,0.967-16.406,8.73-19.336c2.091-0.789,4.396-1.062,6.528-1.769
			c-15.844-13.017-27.211-31.3-31.315-52.187c-7.017,2.803-14.196,5.306-20.828,8.765l-11.25-5.61
			c-28.447-14.194-62.783-8.672-85.283,13.872c-5.508,5.508-5.889,14.341-0.85,20.288l40.43,47.798
			c-9.902,14.517-17.314,30.425-22.148,47.52H45c-24.814,0-45,20.186-45,45v30c0,24.814,20.186,45,45,45
			c0-0.029,10.049-0.015,18.018,0.044c10.225,19.995,24.721,37.808,42.094,52.178l0.088,52.778c0,8.291,6.509,15,14.8,15h60
			c8.291,0,15-6.709,15-15v-20.42c26.631,7.017,63.252,7.046,90,0v20.42c0,8.291,6.709,15,15,15h60c8.291,0,14.8-6.709,14.8-15
			l0.117-57.173c29.78-21.403,51.761-48.865,63.924-79.556c3.682,0.861,7.374,1.729,11.158,1.729c33.076,0,62-33.647,62-75
			C512,249.941,511.443,244.051,510.359,238.426z M119.854,271.298c-8.291,0-15.146-6.855-15.146-15.146
			c0-8.291,6.855-15.146,15.146-15.146S135,247.861,135,256.152C135,264.443,128.145,271.298,119.854,271.298z"/>
	</g>
</g>
<g>
	<g>
		<path d="M241,30.993c-33.076,0-60,26.909-60,60s26.924,60,60,60s60-26.909,60-60S274.076,30.993,241,30.993z M256,105.993
			c0,8.291-6.709,15-15,15s-15-6.709-15-15v-30c0-8.291,6.709-15,15-15s15,6.709,15,15V105.993z"/>
	</g>
</g>
<g>
</g>
<g>
</g>
<g>
</g>
<g>
</g>
<g>
</g>
<g>
</g>
<g>
</g>
<g>
</g>
<g>
</g>
<g>
</g>
<g>
</g>
<g>
</g>
<g>
</g>
<g>
</g>
<g>
</g>
</svg>
