<?xml version="1.0" encoding="iso-8859-1"?>
<!-- Generator: Adobe Illustrator 19.0.0, SVG Export Plug-In . SVG Version: 6.00 Build 0)  -->
<svg version="1.1" id="Capa_1" xmlns="http://www.w3.org/2000/svg" xmlns:xlink="http://www.w3.org/1999/xlink" x="0px" y="0px"
	 viewBox="0 0 512 512" style="enable-background:new 0 0 512 512;" xml:space="preserve">
<g>
	<g>
		<path d="M257,180c-8.291,0-15-6.709-15-15V91.518c-34.199,6.969-62,37.266-62,73.482c0,41.353,35.633,75,77,75
			c36.229,0,66.515-25.809,73.484-60H257z"/>
	</g>
</g>
<g>
	<g>
		<path d="M272,91.518V150h58.484C324.504,120.657,301.348,97.498,272,91.518z"/>
	</g>
</g>
<g>
	<g>
		<path d="M0,332v15c0,24.814,20.186,45,45,45h135v30h152v-30h135c24.814,0,45-20.186,45-45v-15H0z"/>
	</g>
</g>
<g>
	<g>
		<path d="M467,0H45C20.186,0,0,20.186,0,45v257h512V45C512,20.186,491.814,0,467,0z M257,270c-57.891,0-107-47.109-107-105
			S199.109,60,257,60s105,47.109,105,105S314.891,270,257,270z"/>
	</g>
</g>
<g>
	<g>
		<path d="M420.418,490.291L401.265,452H110.728l-19.146,38.291C86.573,500.34,93.964,512,105,512h302
			C418.036,512,425.427,500.34,420.418,490.291z"/>
	</g>
</g>
<g>
</g>
<g>
</g>
<g>
</g>
<g>
</g>
<g>
</g>
<g>
</g>
<g>
</g>
<g>
</g>
<g>
</g>
<g>
</g>
<g>
</g>
<g>
</g>
<g>
</g>
<g>
</g>
<g>
</g>
</svg>
