<?xml version="1.0" encoding="iso-8859-1"?>
<!-- Generator: Adobe Illustrator 19.0.0, SVG Export Plug-In . SVG Version: 6.00 Build 0)  -->
<svg version="1.1" id="Capa_1" xmlns="http://www.w3.org/2000/svg" xmlns:xlink="http://www.w3.org/1999/xlink" x="0px" y="0px"
	 viewBox="0 0 512 512" style="enable-background:new 0 0 512 512;" xml:space="preserve">
<g>
	<g>
		<path d="M452,363.518V347c0-24.814-20.186-45-45-45H270v-33.465C341.588,260.591,389.971,201.46,389.971,135
			C389.971,59.409,328.646,0,255,0c-73.656,0-134.971,59.428-134.971,135c0,66.463,48.386,125.592,119.971,133.535V302H105
			c-24.814,0-45,20.186-45,45v16.518C25.801,370.487,0,400.784,0,437c0,41.353,33.633,75,75,75s75-33.647,75-75
			c0-36.216-25.801-66.513-60-73.482V347c0-8.276,6.738-15,15-15h135v31.518c-34.199,6.969-60,37.266-60,73.482
			c0,41.353,33.633,75,75,75s75-33.647,75-75c0-36.216-25.801-66.513-60-73.482V332h137c8.262,0,15,6.724,15,15v16.518
			c-34.199,6.969-60,37.266-60,73.482c0,41.353,33.633,75,75,75s75-33.647,75-75C512,400.784,486.199,370.487,452,363.518z M255,240
			c-8.291,0-15-6.709-15-15v-17.741c-9.888-3.336-19.36-9.666-27.451-19.305c-5.332-6.343-4.512-15.806,1.846-21.138
			c6.357-5.347,15.791-4.512,21.123,1.831C251.892,188.133,270,179.747,270,165c0-8.276-6.738-15-15-15c-24.814,0-45-20.186-45-45
			c0-17.95,10.276-35.065,30-42.085V45c0-8.291,6.709-15,15-15s15,6.709,15,15v17.959c7.766,2.618,15.339,6.779,22.09,13.315
			c5.947,5.771,6.123,15.264,0.352,21.211c-5.771,5.962-15.264,6.123-21.211,0.352c-7.324-7.09-15.469-9.492-22.061-6.665
			C234.219,97.507,238.695,120,255,120c24.814,0,45,20.186,45,45c0,18.838-11.895,35.845-29.59,42.29
			c-0.135,0.049-0.275,0.026-0.41,0.073V225C270,233.291,263.291,240,255,240z"/>
	</g>
</g>
<g>
</g>
<g>
</g>
<g>
</g>
<g>
</g>
<g>
</g>
<g>
</g>
<g>
</g>
<g>
</g>
<g>
</g>
<g>
</g>
<g>
</g>
<g>
</g>
<g>
</g>
<g>
</g>
<g>
</g>
</svg>
