<?xml version="1.0" encoding="iso-8859-1"?>
<!-- Generator: Adobe Illustrator 19.0.0, SVG Export Plug-In . SVG Version: 6.00 Build 0)  -->
<svg version="1.1" id="Capa_1" xmlns="http://www.w3.org/2000/svg" xmlns:xlink="http://www.w3.org/1999/xlink" x="0px" y="0px"
	 viewBox="0 0 512.002 512.002" style="enable-background:new 0 0 512.002 512.002;" xml:space="preserve">
<g>
	<g>
		<path d="M503.733,152.191l-35.522-17.754L450.442,98.9c-5.098-10.166-21.768-10.166-26.836,0l-17.754,35.537l-35.537,17.754
			c-11.025,5.496-11.025,21.34,0,26.836l35.537,17.754l17.754,35.537c2.534,5.083,7.734,8.291,13.418,8.291
			c5.683,0,10.869-3.208,13.418-8.291l17.769-35.537l35.522-17.754C514.758,173.499,514.758,157.719,503.733,152.191z"/>
	</g>
</g>
<g>
	<g>
		<path d="M321.687,60.916l-35.522-17.754L268.396,7.625c-5.098-10.166-21.768-10.166-26.836,0l-17.754,35.537l-35.537,17.754
			c-11.025,5.496-11.025,21.34,0,26.836l35.537,17.754l17.754,35.537c2.534,5.083,7.734,8.291,13.418,8.291
			c5.684,0,10.87-3.208,13.418-8.291l17.769-35.537l35.522-17.754C332.712,82.224,332.712,66.444,321.687,60.916z"/>
	</g>
</g>
<g>
	<g>
		<path d="M141.687,152.191l-35.522-17.754L88.396,98.9c-5.098-10.166-21.768-10.166-26.836,0l-17.754,35.537L8.269,152.191
			c-11.025,5.496-11.025,21.34,0,26.836l35.538,17.754l17.753,35.537c2.534,5.083,7.734,8.291,13.418,8.291
			c5.684,0,10.87-3.208,13.418-8.291l17.769-35.537l35.522-17.754C152.712,173.499,152.712,157.719,141.687,152.191z"/>
	</g>
</g>
<g>
	<g>
		<path d="M231.65,491.432l-44.216-110.578c-4.553-11.387-15.579-18.853-27.842-18.853H80.193c-12.273,0-23.309,7.472-27.867,18.867
			L8.104,491.43c-3.941,9.853,3.315,20.571,13.927,20.571h195.691C228.333,512.001,235.59,501.285,231.65,491.432z"/>
	</g>
</g>
<g>
	<g>
		<path d="M501.65,491.432l-44.216-110.578c-4.553-11.387-15.579-18.853-27.842-18.853h-79.399
			c-12.273,0-23.309,7.472-27.867,18.867L278.104,491.43c-3.941,9.853,3.315,20.571,13.927,20.571h195.691
			C498.333,512.001,505.59,501.285,501.65,491.432z"/>
	</g>
</g>
<g>
	<g>
		<path d="M366.65,311.432l-44.204-110.547c-4.56-11.405-15.605-18.884-27.888-18.884h-79.365c-12.273,0-23.309,7.472-27.867,18.867
			L143.104,311.43c-3.941,9.853,3.315,20.571,13.927,20.571h195.691C363.333,332.001,370.59,321.285,366.65,311.432z"/>
	</g>
</g>
<g>
</g>
<g>
</g>
<g>
</g>
<g>
</g>
<g>
</g>
<g>
</g>
<g>
</g>
<g>
</g>
<g>
</g>
<g>
</g>
<g>
</g>
<g>
</g>
<g>
</g>
<g>
</g>
<g>
</g>
</svg>
