<?xml version="1.0" encoding="iso-8859-1"?>
<!-- Generator: Adobe Illustrator 19.0.0, SVG Export Plug-In . SVG Version: 6.00 Build 0)  -->
<svg version="1.1" id="Capa_1" xmlns="http://www.w3.org/2000/svg" xmlns:xlink="http://www.w3.org/1999/xlink" x="0px" y="0px"
	 viewBox="0 0 512 512" style="enable-background:new 0 0 512 512;" xml:space="preserve">
<g>
	<g>
		<path d="M255,90.05c-90.967,0-165,73.919-165,164.9s74.033,167,165,167s167-76.019,167-167S345.967,90.05,255,90.05z
			 M327.605,357.555c-26.638,26.667-55.011,19.034-86.932,2.754c-25.283-12.876-36.182-16.567-49.98-2.842
			c-0.029,0.029-0.059,0.059-0.088,0.088c-5.859,5.859-15.352,5.859-21.211,0c-5.859-5.859-5.859-15.352,0-21.211
			c22.471-22.471,25.607-42.869,22.835-64.295H165c-8.291,0-15-8.809-15-17.1c0-8.291,6.709-15,15-15h21.123
			c-5.607-23.117-10.904-46.957,0.381-71.089C211.331,115.833,317,124.736,317,194.95c0,8.291-6.709,15-15,15
			c-8.291,0-15-6.709-15-15c0-36.711-61.063-39.663-73.309-13.374c-7.207,15.366-2.871,33.076,2.109,53.599
			c0.379,1.558,0.76,3.182,1.143,4.775H287c8.291,0,15,6.709,15,15c0,8.291-6.709,17.1-15,17.1h-64.563
			c1.531,15.033,0.764,30.861-5.786,47.346c13.828,2.021,26.689,8.599,37.676,14.194c25.43,12.964,38.27,16.567,52.068,2.754
			c5.859-5.859,15.352-5.859,21.211,0S333.465,351.696,327.605,357.555z"/>
	</g>
</g>
<g>
	<g>
		<path d="M255,0.05C114.404,0.05,0,114.34,0,254.95s114.404,257,255,257s257-116.39,257-257S395.596,0.05,255,0.05z M255,452.15
			c-107.52,0-195.2-89.68-195.2-197.2S147.48,59.75,255,59.75s197.2,87.68,197.2,195.2S362.52,452.15,255,452.15z"/>
	</g>
</g>
<g>
</g>
<g>
</g>
<g>
</g>
<g>
</g>
<g>
</g>
<g>
</g>
<g>
</g>
<g>
</g>
<g>
</g>
<g>
</g>
<g>
</g>
<g>
</g>
<g>
</g>
<g>
</g>
<g>
</g>
</svg>
