<?xml version="1.0" encoding="iso-8859-1"?>
<!-- Generator: Adobe Illustrator 19.0.0, SVG Export Plug-In . SVG Version: 6.00 Build 0)  -->
<svg version="1.1" id="Capa_1" xmlns="http://www.w3.org/2000/svg" xmlns:xlink="http://www.w3.org/1999/xlink" x="0px" y="0px"
	 viewBox="0 0 512 512" style="enable-background:new 0 0 512 512;" xml:space="preserve">
<g>
	<g>
		<path d="M417.364,423.631l-28.678-85.977c-11.946-35.894-37.551-64.57-70.62-80.912c33.171-16.514,58.828-46.952,70.62-82.381
			l28.678-85.994C436.659,83.297,451,67.865,451,47c0-24.814-20.186-47-45-47H106C81.186,0,61,20.186,61,45
			c0,20.865,14.341,38.297,33.636,43.367l28.678,85.994c11.843,35.541,37.522,65.838,70.686,82.341
			c-33.098,16.328-58.707,45-70.686,80.938l-28.678,85.994C75.341,428.703,61,446.135,61,467c0,24.814,20.186,45,45,45h300
			c24.814,0,45-20.186,45-45C451,446.133,436.659,428.702,417.364,423.631z M146.829,150l-20.028-60h258.398l-20.024,60H146.829z
			 M333.556,422c-12.132-36.347-39.232-90-77.556-90c-38.249,0-65.414,53.525-77.556,90h-51.643l24.99-74.868
			c11.096-33.382,37.386-58.414,70.51-69.146l23.972,20.425c5.659,4.804,13.816,4.732,19.365,0.088l24.375-20.411
			c32.981,10.801,59.15,35.786,70.195,69.044L385.199,422H333.556z"/>
	</g>
</g>
<g>
</g>
<g>
</g>
<g>
</g>
<g>
</g>
<g>
</g>
<g>
</g>
<g>
</g>
<g>
</g>
<g>
</g>
<g>
</g>
<g>
</g>
<g>
</g>
<g>
</g>
<g>
</g>
<g>
</g>
</svg>
