<?xml version="1.0" encoding="iso-8859-1"?>
<!-- Generator: Adobe Illustrator 19.0.0, SVG Export Plug-In . SVG Version: 6.00 Build 0)  -->
<svg version="1.1" id="Capa_1" xmlns="http://www.w3.org/2000/svg" xmlns:xlink="http://www.w3.org/1999/xlink" x="0px" y="0px"
	 viewBox="0 0 512 512" style="enable-background:new 0 0 512 512;" xml:space="preserve">
<g>
	<g>
		<path d="M376,122c-57.891,0-105,47.109-105,105s47.109,105,105,105s105-47.109,105-105S433.891,122,376,122z M436,242h-60
			c-8.291,0-15-6.709-15-15v-60c0-8.291,6.709-15,15-15c8.291,0,15,6.709,15,15v45h45c8.291,0,15,6.709,15,15S444.291,242,436,242z"
			/>
	</g>
</g>
<g>
	<g>
		<path d="M361,93.516v-3.391H31V362h330v-1.516C293.685,352.911,241,296.307,241,227S293.685,101.089,361,93.516z M211.41,299.29
			c-0.135,0.049-0.275,0.026-0.41,0.073V317c0,8.291-6.709,15-15,15s-15-6.709-15-15v-17.741
			c-9.888-3.336-19.36-9.666-27.451-19.305c-5.332-6.343-4.512-15.806,1.846-21.138c6.357-5.347,15.82-4.512,21.123,1.831
			c7.91,9.463,17.051,13.286,24.609,10.444C216.738,265.45,212.735,242,196,242c-24.814,0-45-20.186-45-45
			c0-17.686,10.064-34.992,30-42.087V137c0-8.291,6.709-15,15-15s15,6.709,15,15v17.964c7.76,2.62,15.33,6.777,22.09,13.31
			c5.947,5.771,6.123,15.264,0.352,21.211c-5.742,5.962-15.264,6.123-21.211,0.352c-7.324-7.075-15.41-9.492-22.061-6.665
			C175.219,189.507,179.695,212,196,212c24.814,0,45,20.186,45,45C241,275.838,229.105,292.845,211.41,299.29z"/>
	</g>
</g>
<g>
	<g>
		<path d="M316,0H76C51.186,0,31,20.986,31,45.8v13.125h330V45.8C361,20.986,340.814,0,316,0z"/>
	</g>
</g>
<g>
	<g>
		<path d="M31,392v75c0,24.814,20.186,45,45,45h240c24.814,0,45-20.186,45-45v-75H31z M226,452h-60c-8.291,0-15-6.709-15-15
			c0-8.291,6.709-15,15-15h60c8.291,0,15,6.709,15,15C241,445.291,234.291,452,226,452z"/>
	</g>
</g>
<g>
</g>
<g>
</g>
<g>
</g>
<g>
</g>
<g>
</g>
<g>
</g>
<g>
</g>
<g>
</g>
<g>
</g>
<g>
</g>
<g>
</g>
<g>
</g>
<g>
</g>
<g>
</g>
<g>
</g>
</svg>
