<?xml version="1.0" encoding="iso-8859-1"?>
<!-- Generator: Adobe Illustrator 19.0.0, SVG Export Plug-In . SVG Version: 6.00 Build 0)  -->
<svg version="1.1" id="Capa_1" xmlns="http://www.w3.org/2000/svg" xmlns:xlink="http://www.w3.org/1999/xlink" x="0px" y="0px"
	 viewBox="0 0 512 512" style="enable-background:new 0 0 512 512;" xml:space="preserve">
<g>
	<g>
		<path d="M225,272c-24.814,0-45,20.186-45,45v15h45c8.262,0,15-6.724,15-15v-45H225z"/>
	</g>
</g>
<g>
	<g>
		<path d="M345,362c-16.553,0-30,13.462-30,30c0,16.538,13.447,30,30,30c16.553,0,30-13.462,30-30C375,375.462,361.553,362,345,362z
			"/>
	</g>
</g>
<g>
	<g>
		<path d="M467,362c-25.133,0-45-20.398-45-45v-45h-46.989H270v45c0,24.814-20.186,45-45,45h-45c0,33.458,0,35.54,0,60h45
			c24.814,0,45,20.186,45,45v45h152v-45c0-24.814,20.186-45,45-45h45v-60H467z M345,452c-33.076,0-60-26.909-60-60s26.924-60,60-60
			s60,26.909,60,60S378.076,452,345,452z"/>
	</g>
</g>
<g>
	<g>
		<path d="M467,272h-15v45c0,8.201,6.622,15,15,15h45v-15C512,292.186,491.814,272,467,272z"/>
	</g>
</g>
<g>
	<g>
		<path d="M225,452h-45v15c0,24.814,20.186,45,45,45h15v-45C240,458.724,233.262,452,225,452z"/>
	</g>
</g>
<g>
	<g>
		<path d="M467,452c-8.262,0-15,6.724-15,15v45h15c24.814,0,45-20.186,45-45v-15H467z"/>
	</g>
</g>
<g>
	<g>
		<path d="M138.488,89.84H180V33.42C164.529,41.303,149.661,61.693,138.488,89.84z"/>
	</g>
</g>
<g>
	<g>
		<path d="M374.956,122h-82.771c4.07,18.629,6.588,38.804,7.419,60h89.636C387.621,160.903,382.78,140.702,374.956,122z"/>
	</g>
</g>
<g>
	<g>
		<path d="M261.042,122H210v60h59.244C268.286,160.119,265.481,139.981,261.042,122z"/>
	</g>
</g>
<g>
	<g>
		<path d="M151.516,302h-13.028c3.481,8.767,7.408,16.388,11.512,23.427C150,316.429,149.733,310.745,151.516,302z"/>
	</g>
</g>
<g>
	<g>
		<path d="M120.756,212c0.958,21.881,3.763,42.019,8.201,60h36.422c4.188-5.532,9.088-10.435,14.621-14.623V212H120.756z"/>
	</g>
</g>
<g>
	<g>
		<path d="M128.958,122c-4.439,17.981-7.244,38.119-8.202,60H180v-60H128.958z"/>
	</g>
</g>
<g>
	<g>
		<path d="M210,33.42v56.42h41.512C240.339,61.693,225.471,41.303,210,33.42z"/>
	</g>
</g>
<g>
	<g>
		<path d="M210,0v1.364c31.399,8.027,57.905,41.403,73.845,88.476h75.209C326.898,39.777,272.578,4.799,210,0z"/>
	</g>
</g>
<g>
	<g>
		<path d="M299.011,212c-0.414,10.172-1.545,20.09-2.655,30h88.158c2.333-9.838,3.69-19.883,4.537-30H299.011z"/>
	</g>
</g>
<g>
	<g>
		<path d="M106.155,302H31.617c26.927,41.547,68.782,72.583,118.383,84.359v-12.997C131.907,357.692,116.68,333.082,106.155,302z"/>
	</g>
</g>
<g>
	<g>
		<path d="M210,212v31.518c4.849-0.989,9.862-1.518,15-1.518h41.31c1.205-9.853,2.26-19.814,2.708-30H210z"/>
	</g>
</g>
<g>
	<g>
		<path d="M14.286,122C6.462,140.702,1.619,160.903,0,182h90.396c0.831-21.196,3.35-41.371,7.421-60H14.286z"/>
	</g>
</g>
<g>
	<g>
		<path d="M30.187,89.84h75.209C122.095,42.767,148.601,9.391,180,1.364V0C117.422,4.799,63.102,39.777,30.187,89.84z"/>
	</g>
</g>
<g>
	<g>
		<path d="M90.396,212H0.542c1.642,21.158,6.497,41.285,14.394,60h82.881C93.746,253.371,91.227,233.196,90.396,212z"/>
	</g>
</g>
<g>
</g>
<g>
</g>
<g>
</g>
<g>
</g>
<g>
</g>
<g>
</g>
<g>
</g>
<g>
</g>
<g>
</g>
<g>
</g>
<g>
</g>
<g>
</g>
<g>
</g>
<g>
</g>
<g>
</g>
</svg>
