<?xml version="1.0" encoding="iso-8859-1"?>
<!-- Generator: Adobe Illustrator 19.0.0, SVG Export Plug-In . SVG Version: 6.00 Build 0)  -->
<svg version="1.1" id="Capa_1" xmlns="http://www.w3.org/2000/svg" xmlns:xlink="http://www.w3.org/1999/xlink" x="0px" y="0px"
	 viewBox="0 0 512 512" style="enable-background:new 0 0 512 512;" xml:space="preserve">
<g>
	<g>
		<path d="M0,273.105V467c0,24.814,20.186,45,45,45h195V273.105H0z M205.606,426.395c5.859,5.859,5.859,15.352,0,21.211
			c-5.86,5.86-15.351,5.86-21.211,0L135,398.211l-49.395,49.395c-5.86,5.86-15.351,5.86-21.211,0
			c-5.859-5.859-5.859-15.352,0-21.211L113.789,377l-49.394-51.395c-5.859-5.859-5.859-15.352,0-21.211s15.352-5.859,21.211,0
			L135,353.789l49.395-49.395c5.859-5.859,15.352-5.859,21.211,0s5.859,15.352,0,21.211L156.211,377L205.606,426.395z"/>
	</g>
</g>
<g>
	<g>
		<path d="M467,0H270v242.505h242V45C512,20.186,491.814,0,467,0z M437,150H315c-8.291,0-15-6.709-15-15s6.709-15,15-15h122
			c8.291,0,15,6.709,15,15S445.291,150,437,150z"/>
	</g>
</g>
<g>
	<g>
		<path d="M45,0C20.186,0,0,20.186,0,45v197.505h240V0H45z M195,150h-45v45c0,8.291-6.709,15-15,15s-15-6.709-15-15v-45H75
			c-8.291,0-15-6.709-15-15s6.709-15,15-15h45V75c0-8.291,6.709-15,15-15s15,6.709,15,15v45h45c8.291,0,15,6.709,15,15
			S203.291,150,195,150z"/>
	</g>
</g>
<g>
	<g>
		<path d="M270,273.105V512h197c24.814,0,45-20.186,45-45V273.105H270z M437,422H315c-8.291,0-15-6.709-15-15
			c0-8.291,6.709-15,15-15h122c8.291,0,15,6.709,15,15C452,415.291,445.291,422,437,422z M437,360H315c-8.291,0-15-6.709-15-15
			c0-8.291,6.709-15,15-15h122c8.291,0,15,6.709,15,15C452,353.291,445.291,360,437,360z"/>
	</g>
</g>
<g>
</g>
<g>
</g>
<g>
</g>
<g>
</g>
<g>
</g>
<g>
</g>
<g>
</g>
<g>
</g>
<g>
</g>
<g>
</g>
<g>
</g>
<g>
</g>
<g>
</g>
<g>
</g>
<g>
</g>
</svg>
