<?xml version="1.0" encoding="iso-8859-1"?>
<!-- Generator: Adobe Illustrator 18.0.0, SVG Export Plug-In . SVG Version: 6.00 Build 0)  -->
<!DOCTYPE svg PUBLIC "-//W3C//DTD SVG 1.1//EN" "http://www.w3.org/Graphics/SVG/1.1/DTD/svg11.dtd">
<svg version="1.1" id="Capa_1" xmlns="http://www.w3.org/2000/svg" xmlns:xlink="http://www.w3.org/1999/xlink" x="0px" y="0px"
	 viewBox="0 0 463.75 463.75" style="enable-background:new 0 0 463.75 463.75;" xml:space="preserve">
<g>
	<path d="M462.823,66.698c-0.298-0.957-0.684-1.871-1.112-2.762c-0.438-0.913-0.92-1.802-1.483-2.634
		c-0.707-1.047-1.514-2.02-2.396-2.918c-0.042-0.043-0.079-0.091-0.121-0.133c-1.399-1.399-2.999-2.598-4.751-3.551
		c-2.921-1.587-6.269-2.489-9.828-2.489H119.368c-4.448,0-8.567,1.409-11.936,3.804c-2.021,1.437-3.772,3.23-5.161,5.286
		c-1.112,1.645-1.992,3.46-2.594,5.397c-0.602,1.937-0.927,3.996-0.927,6.131v72.723h30V113.69h305v42.348h-58.572
		C387.219,165.299,395,179.84,395,196.171v62.027v30h48.132c10.676,0,19.456-8.113,20.512-18.51c0.07-0.693,0.106-1.397,0.106-2.108
		V72.829C463.75,70.694,463.426,68.635,462.823,66.698z"/>
	<path d="M344.382,175.552H20.618C9.231,175.552,0,184.783,0,196.171v194.75c0,11.387,9.231,20.618,20.618,20.618h323.764
		c11.387,0,20.618-9.231,20.618-20.618v-194.75C365,184.783,355.769,175.552,344.382,175.552z M210.75,219.031h88
		c8.284,0,15,6.716,15,15c0,8.284-6.716,15-15,15h-88c-8.284,0-15-6.716-15-15C195.75,225.747,202.466,219.031,210.75,219.031z
		 M299.5,364.541h-234c-8.284,0-15-6.716-15-15c0-8.284,6.716-15,15-15h234c8.284,0,15,6.716,15,15
		C314.5,357.825,307.784,364.541,299.5,364.541z"/>
</g>
<g>
</g>
<g>
</g>
<g>
</g>
<g>
</g>
<g>
</g>
<g>
</g>
<g>
</g>
<g>
</g>
<g>
</g>
<g>
</g>
<g>
</g>
<g>
</g>
<g>
</g>
<g>
</g>
<g>
</g>
</svg>
