<?xml version="1.0" encoding="iso-8859-1"?>
<!-- Generator: Adobe Illustrator 18.0.0, SVG Export Plug-In . SVG Version: 6.00 Build 0)  -->
<!DOCTYPE svg PUBLIC "-//W3C//DTD SVG 1.1//EN" "http://www.w3.org/Graphics/SVG/1.1/DTD/svg11.dtd">
<svg version="1.1" id="Capa_1" xmlns="http://www.w3.org/2000/svg" xmlns:xlink="http://www.w3.org/1999/xlink" x="0px" y="0px"
	 viewBox="0 0 454.708 454.708" style="enable-background:new 0 0 454.708 454.708;" xml:space="preserve">
<path d="M393.403,0H61.305C50.52,0,41.776,8.743,41.776,19.529v415.65c0,10.786,8.743,19.529,19.529,19.529h235.039
	c0.003,0,0.006,0.001,0.01,0.001c5.318,0,10.356-2.263,13.813-5.72l97.046-97.045c3.683-3.683,5.719-8.766,5.719-13.808V19.529
	C412.932,8.743,404.188,0,393.403,0z M128.679,89.809h201.145c8.089,0,14.646,6.558,14.646,14.646
	c0,8.089-6.558,14.646-14.646,14.646H128.679c-8.089,0-14.647-6.558-14.647-14.646C114.032,96.367,120.59,89.809,128.679,89.809z
	 M128.679,168.412h201.145c8.089,0,14.646,6.558,14.646,14.647c0,8.089-6.558,14.646-14.646,14.646H128.679
	c-8.089,0-14.647-6.558-14.647-14.646C114.032,174.97,120.59,168.412,128.679,168.412z M128.679,276.308
	c-8.089,0-14.647-6.557-14.647-14.646c0-8.089,6.557-14.647,14.647-14.647h201.145c8.089,0,14.646,6.558,14.646,14.647
	c0,8.089-6.558,14.646-14.646,14.646H128.679z M300.249,403.67v-61.644h61.645L300.249,403.67z"/>
<g>
</g>
<g>
</g>
<g>
</g>
<g>
</g>
<g>
</g>
<g>
</g>
<g>
</g>
<g>
</g>
<g>
</g>
<g>
</g>
<g>
</g>
<g>
</g>
<g>
</g>
<g>
</g>
<g>
</g>
</svg>
