<?xml version="1.0" encoding="iso-8859-1"?>
<!-- Generator: Adobe Illustrator 18.0.0, SVG Export Plug-In . SVG Version: 6.00 Build 0)  -->
<!DOCTYPE svg PUBLIC "-//W3C//DTD SVG 1.1//EN" "http://www.w3.org/Graphics/SVG/1.1/DTD/svg11.dtd">
<svg version="1.1" id="Capa_1" xmlns="http://www.w3.org/2000/svg" xmlns:xlink="http://www.w3.org/1999/xlink" x="0px" y="0px"
	 viewBox="0 0 454.729 454.729" style="enable-background:new 0 0 454.729 454.729;" xml:space="preserve">
<path d="M307.976,227.365c58.696-45.978,96.603-134.949,96.603-206.991C404.579,9.121,395.458,0,384.206,0H70.523
	C59.271,0,50.15,9.121,50.15,20.373c0,71.931,37.826,160.95,96.603,206.991C88.007,273.381,50.15,362.385,50.15,434.355
	c0,11.252,9.121,20.373,20.373,20.373h313.683c11.252,0,20.373-9.121,20.373-20.373
	C404.579,362.424,366.753,273.406,307.976,227.365z M170.065,413.982c18.59-19.319,32.561-24.308,40.108-27.611V190.688
	l-7.856-3.438c-34.047-15.972-67.149-62.07-75.115-104.164c-0.855-4.516,0.363-9.183,3.298-12.721
	c2.934-3.538,7.29-5.588,11.887-5.588h169.958c4.6,0,8.962,2.044,11.898,5.584c2.936,3.54,4.141,8.205,3.286,12.725
	c-7.966,42.095-41.068,88.192-75.115,104.164l-7.856,3.438l0.002,195.682c8.632,3.778,22.016,8.809,40.109,27.612H170.065z"/>
<g>
</g>
<g>
</g>
<g>
</g>
<g>
</g>
<g>
</g>
<g>
</g>
<g>
</g>
<g>
</g>
<g>
</g>
<g>
</g>
<g>
</g>
<g>
</g>
<g>
</g>
<g>
</g>
<g>
</g>
</svg>
