<?xml version="1.0" encoding="iso-8859-1"?>
<!-- Generator: Adobe Illustrator 18.0.0, SVG Export Plug-In . SVG Version: 6.00 Build 0)  -->
<!DOCTYPE svg PUBLIC "-//W3C//DTD SVG 1.1//EN" "http://www.w3.org/Graphics/SVG/1.1/DTD/svg11.dtd">
<svg version="1.1" id="Capa_1" xmlns="http://www.w3.org/2000/svg" xmlns:xlink="http://www.w3.org/1999/xlink" x="0px" y="0px"
	 viewBox="0 0 459.837 459.837" style="enable-background:new 0 0 459.837 459.837;" xml:space="preserve">
<g>
	<path d="M101.094,72.286c9.674-9.41,24.57-12.043,37.23-5.447c8.639-6.867,14.185-17.459,14.185-29.353
		C152.509,16.783,135.726,0,115.024,0C94.321,0,77.538,16.783,77.538,37.485C77.538,53.264,87.292,66.756,101.094,72.286z"/>
	<path d="M162.48,232.99l-26.392,11.289c-16.276,6.963-35.133-0.579-42.103-16.875c-1.187-2.775-1.943-5.625-2.315-8.479
		c-9.289,0.956-18.336-2.171-24.992-8.295l0.009,227.502c0,11.987,9.717,21.704,21.704,21.704c11.987,0,21.704-9.717,21.704-21.704
		V269.335c0-2.588,2.098-4.686,4.686-4.686c2.588,0,4.685,2.098,4.685,4.686v168.798c0,11.987,9.717,21.704,21.704,21.704
		c11.987,0,21.704-9.717,21.704-21.704C162.873,253.659,162.48,232.99,162.48,232.99z"/>
	<path d="M91.535,204.839c6.259-1.105,11.479-5.415,13.748-11.352l35.083-91.767c3.567-9.33-1.105-19.786-10.435-23.354
		c-9.332-3.567-19.787,1.104-23.353,10.436l-24.137,63.135c-6.704-8.16-13.071-16.17-17.167-21.854
		c-0.358-0.498-0.408-1.154-0.129-1.7c0.279-0.546,0.84-0.89,1.453-0.891c0.001,0,0.001,0,0.001,0h12.651L92.75,91.318
		c-10.178,0-15.831,0-26.149,0c-25.984,0-46.674,24.13-37.382,49.006c3.72,9.962,38.527,50.509,45.511,58.558
		C78.885,203.671,85.254,205.944,91.535,204.839z"/>
	<path d="M206.223,133.882c0-0.009-0.001-0.018-0.001-0.027c-0.145-23.459-19.334-42.536-42.8-42.536h-8.116
		c0.63,5.046,0.07,10.315-1.873,15.396c-3.271,8.557-24.297,63.552-27.595,72.179l36.642-15.674v-29.308
		c0-2.091,1.695-3.786,3.786-3.786c2.091,0,3.786,1.695,3.786,3.786c0,0.066-0.001,0.132-0.002,0.199
		c0.092,14.501,0.165,26.023,0.26,40.973c-6.344,2.714-48.499,20.747-53.95,23.078c-9.319,3.985-13.366,14.742-9.516,23.742
		c3.928,9.183,14.555,13.446,23.743,9.516l64.999-27.804c6.695-2.863,11.02-9.462,10.973-16.743
		C206.345,153.135,206.437,167.626,206.223,133.882z"/>
	<path d="M336.317,10.916c-53.287,0-96.563,39.997-96.563,89.424c0,12.955,3.003,26.02,9.265,38.253
		c11.554,22.57,22.397,23.374,34.199,46.583c6.544,12.874,9.89,27.063,9.89,41.267v2.662c-4.993,2.435-8.442,7.546-8.442,13.475
		c0,7.68,5.859,15,15.754,15c-6.215,1.833-10.754,7.573-10.754,14.381c0,8.284,6.716,15,15,15h10.585
		c1.907,9.902,10.608,17.385,21.066,17.385c10.458,0,19.159-7.483,21.066-17.385h10.585c8.284,0,15-6.716,15-15
		c0-6.808-4.54-12.548-10.754-14.381c9.959,0,15.754-7.386,15.754-15c0-5.929-3.449-11.04-8.442-13.475v-2.662
		c0-13.436,2.973-26.562,8.548-38.503c8.716-18.67,18.12-24.768,25.751-34.26c11.971-14.89,19.056-33.348,19.056-53.339
		C432.88,51.083,389.781,10.916,336.317,10.916z M349.816,113.642v70.409h-27v-70.409c0-7.456,6.044-13.5,13.5-13.5
		C343.773,100.142,349.816,106.186,349.816,113.642z"/>
</g>
<g>
</g>
<g>
</g>
<g>
</g>
<g>
</g>
<g>
</g>
<g>
</g>
<g>
</g>
<g>
</g>
<g>
</g>
<g>
</g>
<g>
</g>
<g>
</g>
<g>
</g>
<g>
</g>
<g>
</g>
</svg>
