<?xml version="1.0" encoding="iso-8859-1"?>
<!-- Generator: Adobe Illustrator 18.0.0, SVG Export Plug-In . SVG Version: 6.00 Build 0)  -->
<!DOCTYPE svg PUBLIC "-//W3C//DTD SVG 1.1//EN" "http://www.w3.org/Graphics/SVG/1.1/DTD/svg11.dtd">
<svg version="1.1" id="Capa_1" xmlns="http://www.w3.org/2000/svg" xmlns:xlink="http://www.w3.org/1999/xlink" x="0px" y="0px"
	 viewBox="0 0 460.169 460.169" style="enable-background:new 0 0 460.169 460.169;" xml:space="preserve">
<g>
	<path d="M364.095,81.231h-52.323v25.538c0,19.92-16.206,36.125-36.125,36.125h-91.125c-19.919,0-36.125-16.206-36.125-36.125
		V81.231H96.074c-10.382,0-18.798,8.416-18.798,18.798v341.343c0,10.382,8.416,18.798,18.798,18.798h268.021
		c10.382,0,18.798-8.416,18.798-18.798V100.028C382.893,89.646,374.477,81.231,364.095,81.231z M203.534,371.866
		c0,10.382-8.416,18.798-18.798,18.798H143.7c-10.382,0-18.798-8.416-18.798-18.798v-41.036c0-10.382,8.416-18.798,18.798-18.798
		h41.036c10.382,0,18.798,8.416,18.798,18.798V371.866z M203.534,251.902c0,10.382-8.416,18.798-18.798,18.798H143.7
		c-10.382,0-18.798-8.416-18.798-18.798v-41.036c0-10.382,8.416-18.798,18.798-18.798h41.036c10.382,0,18.798,8.416,18.798,18.798
		V251.902z M322.335,365.977h-66.495c-8.08,0-14.63-6.55-14.63-14.63c0-8.08,6.55-14.63,14.63-14.63h66.495
		c8.08,0,14.63,6.55,14.63,14.63C336.965,359.427,330.415,365.977,322.335,365.977z M322.335,246.013h-66.495
		c-8.08,0-14.63-6.55-14.63-14.63c0-8.08,6.55-14.63,14.63-14.63h66.495c8.08,0,14.63,6.55,14.63,14.63
		C336.965,239.463,330.415,246.013,322.335,246.013z"/>
	<path d="M184.522,123.387h91.125c9.178,0,16.619-7.44,16.619-16.619V60.715c0-9.178-7.44-16.619-16.619-16.619h-5.355
		c0.112-1.225,0.178-2.463,0.178-3.716C270.47,18.156,252.389,0,230.086,0c-22.289,0-40.372,18.149-40.372,40.379
		c0,1.253,0.066,2.492,0.178,3.716h-5.37c-9.178,0-16.619,7.441-16.619,16.619v46.054
		C167.903,115.947,175.344,123.387,184.522,123.387z M230.086,29.259c6.134,0,11.125,4.988,11.125,11.12
		c0,6.131-4.991,11.119-11.125,11.119c-6.128,0-11.113-4.988-11.113-11.119C218.973,34.247,223.958,29.259,230.086,29.259z"/>
</g>
<g>
</g>
<g>
</g>
<g>
</g>
<g>
</g>
<g>
</g>
<g>
</g>
<g>
</g>
<g>
</g>
<g>
</g>
<g>
</g>
<g>
</g>
<g>
</g>
<g>
</g>
<g>
</g>
<g>
</g>
</svg>
