<?xml version="1.0" encoding="iso-8859-1"?>
<!-- Generator: Adobe Illustrator 18.0.0, SVG Export Plug-In . SVG Version: 6.00 Build 0)  -->
<!DOCTYPE svg PUBLIC "-//W3C//DTD SVG 1.1//EN" "http://www.w3.org/Graphics/SVG/1.1/DTD/svg11.dtd">
<svg version="1.1" id="Capa_1" xmlns="http://www.w3.org/2000/svg" xmlns:xlink="http://www.w3.org/1999/xlink" x="0px" y="0px"
	 viewBox="0 0 461.268 461.268" style="enable-background:new 0 0 461.268 461.268;" xml:space="preserve">
<g>
	<path d="M266.131,73.063c-13.507,0-26.68,1.44-39.417,4.101c-4.158,0.873-7.778,3.46-9.944,7.124
		c-2.166,3.649-2.733,8.055-1.513,12.127l50.885,170.763L96.366,212.963c-4.056-1.294-8.476-0.843-12.183,1.279
		c-3.694,2.108-6.354,5.671-7.285,9.83c-3.17,13.87-4.855,28.294-4.855,43.095c0,107.215,86.903,194.103,194.088,194.103
		c107.2,0,194.103-86.888,194.103-194.103C460.233,159.981,373.331,73.063,266.131,73.063z"/>
	<path d="M159.036,10.406C157.152,4.074,151.345,0,145.073,0c-1.374,0-2.771,0.196-4.153,0.606
		C74.736,20.293,22.7,71.311,1.734,137.06c-2.457,7.662,1.775,15.847,9.436,18.304l211.396,67.537L159.036,10.406z"/>
</g>
<g>
</g>
<g>
</g>
<g>
</g>
<g>
</g>
<g>
</g>
<g>
</g>
<g>
</g>
<g>
</g>
<g>
</g>
<g>
</g>
<g>
</g>
<g>
</g>
<g>
</g>
<g>
</g>
<g>
</g>
</svg>
