<?xml version="1.0" encoding="iso-8859-1"?>
<!-- Generator: Adobe Illustrator 18.0.0, SVG Export Plug-In . SVG Version: 6.00 Build 0)  -->
<!DOCTYPE svg PUBLIC "-//W3C//DTD SVG 1.1//EN" "http://www.w3.org/Graphics/SVG/1.1/DTD/svg11.dtd">
<svg version="1.1" id="Capa_1" xmlns="http://www.w3.org/2000/svg" xmlns:xlink="http://www.w3.org/1999/xlink" x="0px" y="0px"
	 viewBox="0 0 450.403 450.403" style="enable-background:new 0 0 450.403 450.403;" xml:space="preserve">
<g>
	<path d="M117.495,204.53h88.707v-87.08c-29.031,0.756-56.385,3.223-81.691,7.06C120.747,149.33,118.301,176.12,117.495,204.53z"/>
	<path d="M124.51,325.893c25.306,3.837,52.66,6.304,81.691,7.06V244.53h-88.742C118.225,273.439,120.688,300.682,124.51,325.893z"/>
	<path d="M83.065,132.393c-28.061,6.497-52.711,14.75-73.27,24.113c-4.921,15.491-8.17,31.571-9.652,48.023h77.342
		C78.161,179.833,80.041,155.66,83.065,132.393z"/>
	<path d="M77.451,244.53H0.028c1.424,16.92,4.712,33.454,9.767,49.366c20.558,9.363,45.209,17.616,73.27,24.113
		C79.986,294.322,78.094,269.693,77.451,244.53z"/>
	<path d="M372.918,204.53h77.343c-1.482-16.452-4.731-32.532-9.652-48.023c-20.558-9.363-45.209-17.616-73.27-24.114
		C370.363,155.66,372.242,179.833,372.918,204.53z"/>
	<path d="M132.394,83.064c23.791-3.092,48.53-4.987,73.808-5.622V0c-17.034,1.409-33.679,4.708-49.695,9.795
		C147.144,30.353,138.891,55.004,132.394,83.064z"/>
	<path d="M325.893,124.51c-24.724-3.749-51.403-6.191-79.691-7.007v87.027h86.707C332.102,176.12,329.656,149.33,325.893,124.51z"/>
	<path d="M293.896,9.795c-15.388-4.888-31.357-8.128-47.695-9.624v77.322c24.583,0.683,48.645,2.56,71.808,5.571
		C311.512,55.004,303.26,30.353,293.896,9.795z"/>
	<path d="M104.498,34.039c-13.991,8.873-27.103,19.357-39.103,31.357C53.396,77.396,42.912,90.507,34.04,104.498
		c17.565-5.668,36.316-10.51,55.992-14.466C93.988,70.354,98.83,51.604,104.498,34.039z"/>
	<path d="M416.364,104.498c-8.872-13.991-19.356-27.102-31.356-39.102c-12-12-25.112-22.484-39.103-31.357
		c5.668,17.565,10.51,36.315,14.466,55.993C380.048,93.988,398.798,98.829,416.364,104.498z"/>
	<path d="M34.039,345.904c8.872,13.991,19.356,27.103,31.356,39.103s25.112,22.484,39.103,31.357
		c-5.668-17.566-10.51-36.316-14.466-55.994C70.355,356.415,51.604,351.573,34.039,345.904z"/>
	<path d="M345.905,416.364c13.991-8.873,27.103-19.357,39.103-31.357c12-12,22.484-25.112,31.357-39.103
		c-17.565,5.669-36.316,10.51-55.993,14.466C356.415,380.048,351.573,398.798,345.905,416.364z"/>
	<path d="M156.507,440.608c16.015,5.087,32.66,8.386,49.695,9.795v-77.443c-25.278-0.635-50.017-2.53-73.808-5.623
		C138.891,395.399,147.144,420.05,156.507,440.608z"/>
	<path d="M372.953,244.53c-0.643,25.164-2.535,49.792-5.614,73.48c28.061-6.497,52.711-14.75,73.27-24.113
		c5.055-15.912,8.343-32.446,9.767-49.366H372.953z"/>
	<path d="M246.202,450.232c16.338-1.496,32.307-4.735,47.695-9.624c9.364-20.559,17.616-45.209,24.114-73.271
		c-23.163,3.011-47.225,4.888-71.808,5.571V450.232z"/>
	<path d="M246.202,332.899c28.288-0.815,54.967-3.258,79.691-7.006c3.822-25.21,6.285-52.454,7.051-81.363h-86.742V332.899z"/>
</g>
<g>
</g>
<g>
</g>
<g>
</g>
<g>
</g>
<g>
</g>
<g>
</g>
<g>
</g>
<g>
</g>
<g>
</g>
<g>
</g>
<g>
</g>
<g>
</g>
<g>
</g>
<g>
</g>
<g>
</g>
</svg>
