<?xml version="1.0" encoding="iso-8859-1"?>
<!-- Generator: Adobe Illustrator 19.0.0, SVG Export Plug-In . SVG Version: 6.00 Build 0)  -->
<svg version="1.1" id="Layer_1" xmlns="http://www.w3.org/2000/svg" xmlns:xlink="http://www.w3.org/1999/xlink" x="0px" y="0px"
	 viewBox="0 0 330 330" style="enable-background:new 0 0 330 330;" xml:space="preserve">
<path id="XMLID_106_" d="M240,225h-60V105h60c6.067,0,11.536-3.655,13.858-9.26c2.321-5.605,1.038-12.057-3.252-16.347l-75-75
	c-5.857-5.858-15.355-5.858-21.213,0l-75,75c-4.29,4.29-5.573,10.742-3.252,16.347C78.464,101.345,83.933,105,90,105h60v120H90
	c-6.067,0-11.536,3.655-13.858,9.26c-2.321,5.605-1.038,12.057,3.252,16.347l75,75C157.322,328.536,161.161,330,165,330
	c3.839,0,7.678-1.464,10.606-4.394l75-75c4.29-4.29,5.573-10.742,3.252-16.347C251.536,228.655,246.068,225,240,225z"/>
<g>
</g>
<g>
</g>
<g>
</g>
<g>
</g>
<g>
</g>
<g>
</g>
<g>
</g>
<g>
</g>
<g>
</g>
<g>
</g>
<g>
</g>
<g>
</g>
<g>
</g>
<g>
</g>
<g>
</g>
</svg>
