<?xml version="1.0" encoding="iso-8859-1"?>
<!-- Generator: Adobe Illustrator 19.0.0, SVG Export Plug-In . SVG Version: 6.00 Build 0)  -->
<svg version="1.1" id="Layer_1" xmlns="http://www.w3.org/2000/svg" xmlns:xlink="http://www.w3.org/1999/xlink" x="0px" y="0px"
	 viewBox="0 0 330.002 330.002" style="enable-background:new 0 0 330.002 330.002;" xml:space="preserve">
<g id="XMLID_12_">
	<path id="XMLID_13_" d="M326.714,155.627l-120-149.996c-3.979-4.974-10.667-6.893-16.678-4.784
		c-6.012,2.108-10.035,7.784-10.035,14.154v300c0,6.371,4.023,12.046,10.035,14.154c1.627,0.571,3.303,0.847,4.962,0.847
		c4.471,0,8.813-2.003,11.716-5.631l120-150.004C331.097,168.889,331.097,161.105,326.714,155.627z"/>
	<path id="XMLID_15_" d="M139.966,0.847c-6.011-2.109-12.698-0.19-16.678,4.784l-120,150.004c-4.383,5.478-4.383,13.263,0,18.741
		l120,149.996c2.902,3.628,7.245,5.63,11.716,5.63c1.658,0,3.336-0.276,4.962-0.847c6.012-2.108,10.035-7.784,10.035-14.154v-300
		C150.001,8.63,145.978,2.955,139.966,0.847z"/>
</g>
<g>
</g>
<g>
</g>
<g>
</g>
<g>
</g>
<g>
</g>
<g>
</g>
<g>
</g>
<g>
</g>
<g>
</g>
<g>
</g>
<g>
</g>
<g>
</g>
<g>
</g>
<g>
</g>
<g>
</g>
</svg>
