<?xml version="1.0" encoding="iso-8859-1"?>
<!-- Generator: Adobe Illustrator 19.0.0, SVG Export Plug-In . SVG Version: 6.00 Build 0)  -->
<svg version="1.1" id="Layer_1" xmlns="http://www.w3.org/2000/svg" xmlns:xlink="http://www.w3.org/1999/xlink" x="0px" y="0px"
	 viewBox="0 0 329.934 329.934" style="enable-background:new 0 0 329.934 329.934;" xml:space="preserve">
<path id="XMLID_10_" d="M329.645,72.646c-1.184-5.951-5.835-10.602-11.785-11.786l-86.666-17.238
	c-8.122-1.611-16.021,3.661-17.639,11.785l-17.24,86.669c-1.184,5.95,1.334,12.028,6.379,15.398
	c2.522,1.685,5.428,2.528,8.334,2.528c2.905,0,5.811-0.843,8.333-2.528l30.105-20.116c2.7,31.957-8.661,63.957-31.806,87.1
	c-21.441,21.441-49.596,32.16-77.76,32.157c-28.156-0.002-56.322-10.722-77.758-32.157c-42.877-42.876-42.877-112.642,0-155.518
	c5.857-5.858,5.857-15.355,0-21.213c-5.857-5.858-15.355-5.858-21.213,0c-54.574,54.573-54.574,143.371,0,197.944
	c27.289,27.29,63.124,40.934,98.971,40.93c35.839-0.003,71.689-13.647,98.973-40.929c33.308-33.307,47.443-81.021,38.206-126.765
	l46.188-30.862C328.311,84.674,330.829,78.597,329.645,72.646z"/>
<g>
</g>
<g>
</g>
<g>
</g>
<g>
</g>
<g>
</g>
<g>
</g>
<g>
</g>
<g>
</g>
<g>
</g>
<g>
</g>
<g>
</g>
<g>
</g>
<g>
</g>
<g>
</g>
<g>
</g>
</svg>
