<?xml version="1.0" encoding="iso-8859-1"?>
<!-- Generator: Adobe Illustrator 19.0.0, SVG Export Plug-In . SVG Version: 6.00 Build 0)  -->
<svg version="1.1" id="Layer_1" xmlns="http://www.w3.org/2000/svg" xmlns:xlink="http://www.w3.org/1999/xlink" x="0px" y="0px"
	 viewBox="0 0 330 330" style="enable-background:new 0 0 330 330;" xml:space="preserve">
<path id="XMLID_108_" d="M315,0H15C6.716,0,0,6.717,0,15v300c0,8.283,6.716,15,15,15h300c8.285,0,15-6.717,15-15V15
	C330,6.717,323.285,0,315,0z M109.14,249.14c-3.72,3.729-8.87,5.86-14.14,5.86c-5.26,0-10.42-2.131-14.141-5.86
	C77.13,245.42,75,240.26,75,235s2.13-10.42,5.859-14.141C84.58,217.13,89.74,215,95,215c5.26,0,10.42,2.13,14.14,5.859
	C112.869,224.58,115,229.74,115,235S112.869,245.42,109.14,249.14z M109.14,179.14c-3.72,3.72-8.87,5.86-14.14,5.86
	c-5.26,0-10.42-2.141-14.141-5.86C77.14,175.42,75,170.27,75,165s2.14-10.42,5.859-14.141C84.58,147.14,89.73,145,95,145
	c5.269,0,10.42,2.14,14.14,5.859C112.869,154.58,115,159.74,115,165S112.869,175.42,109.14,179.14z M109.14,109.14
	c-3.72,3.729-8.88,5.86-14.14,5.86c-5.26,0-10.42-2.131-14.141-5.86C77.14,105.42,75,100.27,75,95s2.14-10.42,5.859-14.141
	C84.58,77.14,89.73,75,95,75c5.26,0,10.42,2.14,14.14,5.859C112.869,84.58,115,89.74,115,95S112.869,105.42,109.14,109.14z
	 M249.14,249.14c-3.72,3.729-8.87,5.86-14.14,5.86c-5.26,0-10.42-2.131-14.141-5.86C217.14,245.42,215,240.27,215,235
	s2.14-10.42,5.859-14.141C224.58,217.13,229.74,215,235,215c5.26,0,10.42,2.13,14.14,5.859c3.73,3.721,5.86,8.871,5.86,14.141
	C255,240.26,252.869,245.42,249.14,249.14z M249.14,179.14c-3.72,3.72-8.87,5.86-14.14,5.86c-5.26,0-10.42-2.141-14.141-5.86
	C217.14,175.42,215,170.27,215,165s2.14-10.42,5.859-14.141C224.58,147.14,229.73,145,235,145c5.269,0,10.42,2.14,14.14,5.859
	c3.73,3.721,5.86,8.871,5.86,14.141S252.869,175.42,249.14,179.14z M249.14,109.14c-3.72,3.729-8.88,5.86-14.14,5.86
	c-5.26,0-10.42-2.131-14.141-5.86C217.14,105.42,215,100.27,215,95s2.14-10.42,5.859-14.141C224.58,77.14,229.73,75,235,75
	c5.26,0,10.42,2.14,14.14,5.859C252.869,84.58,255,89.74,255,95S252.869,105.42,249.14,109.14z"/>
<g>
</g>
<g>
</g>
<g>
</g>
<g>
</g>
<g>
</g>
<g>
</g>
<g>
</g>
<g>
</g>
<g>
</g>
<g>
</g>
<g>
</g>
<g>
</g>
<g>
</g>
<g>
</g>
<g>
</g>
</svg>
