<?xml version="1.0" encoding="iso-8859-1"?>
<!-- Generator: Adobe Illustrator 19.0.0, SVG Export Plug-In . SVG Version: 6.00 Build 0)  -->
<svg version="1.1" id="Layer_1" xmlns="http://www.w3.org/2000/svg" xmlns:xlink="http://www.w3.org/1999/xlink" x="0px" y="0px"
	 viewBox="0 0 330 330" style="enable-background:new 0 0 330 330;" xml:space="preserve">
<path id="XMLID_223_" d="M315,0H15C6.716,0,0,6.717,0,15v300c0,8.283,6.716,15,15,15h300c8.284,0,15-6.717,15-15V15
	C330,6.717,323.284,0,315,0z M109.14,249.14c-3.72,3.729-8.88,5.86-14.14,5.86s-10.42-2.131-14.141-5.86
	C77.14,245.42,75,240.27,75,235s2.14-10.42,5.859-14.141C84.58,217.13,89.74,215,95,215s10.42,2.13,14.14,5.859
	c3.72,3.721,5.86,8.871,5.86,14.141S112.859,245.42,109.14,249.14z M109.14,109.14c-3.72,3.729-8.88,5.86-14.14,5.86
	s-10.42-2.131-14.141-5.86C77.14,105.42,75,100.27,75,95s2.14-10.42,5.859-14.141C84.58,77.13,89.74,75,95,75
	s10.42,2.13,14.14,5.859C112.859,84.58,115,89.73,115,95S112.859,105.42,109.14,109.14z M179.14,179.14
	c-3.72,3.72-8.88,5.86-14.14,5.86c-5.27,0-10.42-2.141-14.141-5.86C147.13,175.42,145,170.27,145,165s2.13-10.42,5.859-14.141
	C154.58,147.14,159.73,145,165,145c5.27,0,10.42,2.14,14.14,5.859c3.72,3.721,5.86,8.871,5.86,14.141S182.859,175.42,179.14,179.14z
	 M249.14,249.14c-3.72,3.729-8.88,5.86-14.14,5.86s-10.42-2.131-14.141-5.86C217.14,245.42,215,240.27,215,235
	c0-5.26,2.14-10.42,5.859-14.141C224.58,217.13,229.73,215,235,215c5.27,0,10.42,2.13,14.14,5.859
	c3.72,3.721,5.86,8.881,5.86,14.141S252.859,245.42,249.14,249.14z M249.14,109.14c-3.72,3.729-8.88,5.86-14.14,5.86
	s-10.42-2.131-14.141-5.86C217.14,105.42,215,100.27,215,95s2.14-10.42,5.859-14.141C224.58,77.13,229.74,75,235,75
	s10.42,2.13,14.14,5.859C252.859,84.58,255,89.74,255,95S252.859,105.42,249.14,109.14z"/>
<g>
</g>
<g>
</g>
<g>
</g>
<g>
</g>
<g>
</g>
<g>
</g>
<g>
</g>
<g>
</g>
<g>
</g>
<g>
</g>
<g>
</g>
<g>
</g>
<g>
</g>
<g>
</g>
<g>
</g>
</svg>
