<?xml version="1.0" encoding="iso-8859-1"?>
<!-- Generator: Adobe Illustrator 19.0.0, SVG Export Plug-In . SVG Version: 6.00 Build 0)  -->
<svg version="1.1" id="Layer_1" xmlns="http://www.w3.org/2000/svg" xmlns:xlink="http://www.w3.org/1999/xlink" x="0px" y="0px"
	 viewBox="0 0 330 330" style="enable-background:new 0 0 330 330;" xml:space="preserve">
<path id="XMLID_107_" d="M65,242.857c-3.578,0-7.127-0.447-10.547-1.327c-4.49-1.157-9.265-0.171-12.93,2.671
	c-3.664,2.842-5.81,7.219-5.81,11.855V315c0,8.284,6.716,15,15,15h228.572c8.284,0,15-6.716,15-15v-58.943
	c0-4.637-2.146-9.014-5.81-11.855c-3.666-2.841-8.439-3.828-12.93-2.671c-3.42,0.88-6.969,1.327-10.547,1.327
	c-23.237,0-42.143-18.906-42.143-42.144S241.763,158.57,265,158.57c3.576,0,7.125,0.447,10.549,1.328
	c4.49,1.154,9.264,0.168,12.928-2.673c3.665-2.841,5.81-7.218,5.81-11.855V86.429c0-8.284-6.716-15-15-15h-42.146
	C236.756,31.977,204.543,0,165.001,0s-71.757,31.977-72.14,71.429H50.714c-8.284,0-15,6.716-15,15v58.942
	c0,4.637,2.145,9.014,5.81,11.855c3.666,2.842,8.438,3.827,12.928,2.673c3.424-0.881,6.973-1.328,10.549-1.328
	c23.237,0,42.143,18.906,42.143,42.144S88.237,242.857,65,242.857z"/>
<g>
</g>
<g>
</g>
<g>
</g>
<g>
</g>
<g>
</g>
<g>
</g>
<g>
</g>
<g>
</g>
<g>
</g>
<g>
</g>
<g>
</g>
<g>
</g>
<g>
</g>
<g>
</g>
<g>
</g>
</svg>
