<?xml version="1.0" encoding="iso-8859-1"?>
<!-- Generator: Adobe Illustrator 19.0.0, SVG Export Plug-In . SVG Version: 6.00 Build 0)  -->
<svg version="1.1" id="Layer_1" xmlns="http://www.w3.org/2000/svg" xmlns:xlink="http://www.w3.org/1999/xlink" x="0px" y="0px"
	 viewBox="0 0 330.001 330.001" style="enable-background:new 0 0 330.001 330.001;" xml:space="preserve">
<path id="XMLID_464_" d="M73.883,209.669L57.51,305.124c-0.965,5.628,1.348,11.315,5.967,14.671
	c4.62,3.356,10.741,3.799,15.797,1.142L165,275.869l85.727,45.067c2.194,1.154,4.591,1.723,6.978,1.723c0.018,0,0.036,0,0.053,0
	c8.27-0.017,14.97-6.727,14.97-15c0-1.152-0.13-2.274-0.376-3.352l-16.233-94.639l69.354-67.603
	c4.088-3.985,5.56-9.946,3.795-15.376c-1.764-5.43-6.458-9.388-12.108-10.209l-95.845-13.928l-42.861-86.849
	c-2.527-5.12-7.741-8.362-13.451-8.362c-5.71,0-10.924,3.242-13.451,8.362l-42.861,86.849L12.843,116.48
	c-5.65,0.821-10.345,4.779-12.108,10.209c-1.765,5.43-0.293,11.391,3.795,15.376L73.883,209.669z"/>
<g>
</g>
<g>
</g>
<g>
</g>
<g>
</g>
<g>
</g>
<g>
</g>
<g>
</g>
<g>
</g>
<g>
</g>
<g>
</g>
<g>
</g>
<g>
</g>
<g>
</g>
<g>
</g>
<g>
</g>
</svg>
