<?xml version="1.0" encoding="iso-8859-1"?>
<!-- Generator: Adobe Illustrator 19.0.0, SVG Export Plug-In . SVG Version: 6.00 Build 0)  -->
<svg version="1.1" id="Layer_1" xmlns="http://www.w3.org/2000/svg" xmlns:xlink="http://www.w3.org/1999/xlink" x="0px" y="0px"
	 viewBox="0 0 330 330" style="enable-background:new 0 0 330 330;" xml:space="preserve">
<path id="XMLID_2_" d="M165,0C74.019,0,0,74.019,0,165s74.019,165,165,165s165-74.019,165-165S255.981,0,165,0z M81,133
	c0-5.271,2.13-10.42,5.859-14.141C90.58,115.14,95.729,113,101,113c5.26,0,10.42,2.14,14.14,5.859C118.87,122.58,121,127.74,121,133
	c0,5.26-2.13,10.42-5.86,14.14c-3.72,3.72-8.88,5.86-14.14,5.86s-10.42-2.141-14.141-5.86C83.13,143.42,81,138.26,81,133z
	 M215.912,230.912H114.088c-8.284,0-15-6.716-15-15c0-8.284,6.716-15,15-15h101.824c8.284,0,15,6.716,15,15
	C230.912,224.196,224.196,230.912,215.912,230.912z M243.14,147.14c-3.72,3.72-8.88,5.86-14.14,5.86s-10.42-2.141-14.141-5.86
	C211.14,143.42,209,138.27,209,133c0-5.271,2.14-10.42,5.859-14.141C218.58,115.14,223.73,113,229,113
	c5.27,0,10.42,2.14,14.14,5.859c3.72,3.721,5.86,8.881,5.86,14.141C249,138.26,246.859,143.42,243.14,147.14z"/>
<g>
</g>
<g>
</g>
<g>
</g>
<g>
</g>
<g>
</g>
<g>
</g>
<g>
</g>
<g>
</g>
<g>
</g>
<g>
</g>
<g>
</g>
<g>
</g>
<g>
</g>
<g>
</g>
<g>
</g>
</svg>
