<?xml version="1.0" encoding="iso-8859-1"?>
<!-- Generator: Adobe Illustrator 19.0.0, SVG Export Plug-In . SVG Version: 6.00 Build 0)  -->
<svg xmlns="http://www.w3.org/2000/svg" xmlns:xlink="http://www.w3.org/1999/xlink" version="1.1" id="Layer_1" x="0px" y="0px" viewBox="0 0 512 512" style="enable-background:new 0 0 512 512;" xml:space="preserve">
<g>
	<g>
		<path d="M343.056,235.701l-150,30C186.054,267.107,181,273.26,181,280.408v119.936c-8.86-5.167-19.023-8.344-30-8.344    c-33.091,0-60,26.909-60,60s26.909,60,60,60s60-26.909,60-60v-98.11l120-24v40.453c-8.86-5.167-19.023-8.344-30-8.344    c-33.091,0-60,26.909-60,60s26.909,60,60,60s60-26.909,60-60V250.408C361,241.277,352.784,233.883,343.056,235.701z"/>
	</g>
</g>
<g>
	<g>
		<path d="M416.107,120.718c-13.916-40.4-54.668-68.013-100.327-59.238C294.745,23.745,254.901,0,211,0    C140.345,0,88.502,60.782,91.015,121.069C41.3,128.218,0,173.548,0,226c0,57.891,48.109,105,106,105h45v-51.592    c0-21.357,15.205-39.917,36.152-44.121l152.93-30.586C372.424,203.172,391,225.189,391,249.408V331h15    c57.891,0,106-47.109,106-105C512,171.933,469.911,126.27,416.107,120.718z"/>
	</g>
</g>
<g>
</g>
<g>
</g>
<g>
</g>
<g>
</g>
<g>
</g>
<g>
</g>
<g>
</g>
<g>
</g>
<g>
</g>
<g>
</g>
<g>
</g>
<g>
</g>
<g>
</g>
<g>
</g>
<g>
</g>
</svg>
