<?xml version="1.0" encoding="iso-8859-1"?>
<!-- Generator: Adobe Illustrator 19.0.0, SVG Export Plug-In . SVG Version: 6.00 Build 0)  -->
<svg xmlns="http://www.w3.org/2000/svg" xmlns:xlink="http://www.w3.org/1999/xlink" version="1.1" id="Layer_1" x="0px" y="0px" viewBox="0 0 512 512" style="enable-background:new 0 0 512 512;" xml:space="preserve">
<g>
	<g>
		<path d="M391,181c-29.487,0-57.451,10.605-79.38,30H271v-15c0-8.276,6.724-15,15-15c24.814,0,45-20.186,45-45    c0-24.814-20.186-46-45-46h-30c-8.276,0-15-6.724-15-15s6.724-15,15-15c24.814,0,45-20.186,45-45c0-8.291-6.709-15-15-15    c-8.291,0-15,6.709-15,15c0,8.276-6.724,15-15,15c-24.814,0-45,20.186-45,45c0,24.814,20.186,45,45,45h30c8.276,0,15,7.724,15,16    s-6.724,15-15,15c-24.814,0-45,20.186-45,45v15h-40.62c-21.929-19.395-49.893-30-79.38-30C54.833,181,0,234.833,0,301    s54.833,121,121,121c16.282,0,32.369-3.488,47.243-9.855C175.915,418.219,185.477,422,196,422c19.53,0,36.024-12.578,42.237-30    h35.526c6.213,17.422,22.707,30,42.237,30c10.523,0,20.085-3.781,27.757-9.855C358.631,418.512,374.718,422,391,422    c66.167,0,121-54.833,121-121S457.167,181,391,181z M136,301h-15v15c0,8.291-6.709,15-15,15s-15-6.709-15-15v-15H76    c-8.291,0-15-6.709-15-15c0-8.291,6.709-15,15-15h15v-15c0-8.291,6.709-15,15-15s15,6.709,15,15v15h15c8.291,0,15,6.709,15,15    C151,294.291,144.291,301,136,301z M196,392c-8.276,0-15-6.724-15-15s6.724-15,15-15s15,6.724,15,15S204.276,392,196,392z     M226,301h-30c-8.291,0-15-6.709-15-15c0-8.291,6.709-15,15-15h30c8.291,0,15,6.709,15,15C241,294.291,234.291,301,226,301z     M316,392c-8.276,0-15-6.724-15-15s6.724-15,15-15s15,6.724,15,15S324.276,392,316,392z M316,301h-30c-8.291,0-15-6.709-15-15    c0-8.291,6.709-15,15-15h30c8.291,0,15,6.709,15,15C331,294.291,324.291,301,316,301z M406,241c8.284,0,15,6.714,15,15    c0,8.284-6.716,15-15,15s-15-6.716-15-15C391,247.714,397.716,241,406,241z M376,301c-8.284,0-15-6.716-15-15    c0-8.286,6.716-15,15-15s15,6.714,15,15C391,294.284,384.284,301,376,301z M406,331c-8.284,0-15-6.716-15-15    c0-8.286,6.716-15,15-15s15,6.714,15,15C421,324.284,414.284,331,406,331z M436,301c-8.284,0-15-6.716-15-15    c0-8.286,6.716-15,15-15s15,6.714,15,15C451,294.284,444.284,301,436,301z"/>
	</g>
</g>
<g>
	<g>
		<path d="M391,452c-14.956,0-29.736-2.271-44.136-6.768c-7.952,3.668-16.512,5.495-25.276,6.163l0.886,4.427    C328.979,488.372,357.807,512,391,512s62.021-23.628,68.525-56.177l4.757-23.756C442.517,444.386,417.744,452,391,452z"/>
	</g>
</g>
<g>
	<g>
		<path d="M165.135,445.232C150.736,449.729,135.956,452,121,452c-26.768,0-51.559-7.626-73.339-19.966l4.755,23.789    C58.935,488.372,87.763,512,120.956,512s62.021-23.628,68.525-56.177l0.888-4.433    C181.622,450.718,173.075,448.894,165.135,445.232z"/>
	</g>
</g>
<g>
</g>
<g>
</g>
<g>
</g>
<g>
</g>
<g>
</g>
<g>
</g>
<g>
</g>
<g>
</g>
<g>
</g>
<g>
</g>
<g>
</g>
<g>
</g>
<g>
</g>
<g>
</g>
<g>
</g>
</svg>
