<?xml version="1.0" encoding="iso-8859-1"?>
<!-- Generator: Adobe Illustrator 19.0.0, SVG Export Plug-In . SVG Version: 6.00 Build 0)  -->
<svg xmlns="http://www.w3.org/2000/svg" xmlns:xlink="http://www.w3.org/1999/xlink" version="1.1" id="Layer_1" x="0px" y="0px" viewBox="0 0 512 512" style="enable-background:new 0 0 512 512;" xml:space="preserve">
<g>
	<g>
		<polygon points="166,326.005 106,406 226,406   "/>
	</g>
</g>
<g>
	<g>
		<path d="M91,166v210.009l63.003-84.003c5.654-7.559,18.34-7.559,23.994,0l20.312,27.083l45.972-57.464    c5.713-7.119,17.725-7.119,23.438,0l74.458,93.076l21.343-32.021c5.566-8.35,19.395-8.35,24.961,0L421,371.459V166H91z M346,286    c-24.814,0-45-20.186-45-45c0-24.814,20.186-45,45-45c24.814,0,45,20.186,45,45C391,265.814,370.814,286,346,286z"/>
	</g>
</g>
<g>
	<g>
		<path d="M346,226c-8.276,0-15,6.724-15,15s6.724,15,15,15s15-6.724,15-15S354.276,226,346,226z"/>
	</g>
</g>
<g>
	<g>
		<polygon points="256,295.009 216.907,343.887 263.493,406 344.784,406   "/>
	</g>
</g>
<g>
	<g>
		<polygon points="376,358.041 361.835,379.281 383.207,406 407.978,406   "/>
	</g>
</g>
<g>
	<g>
		<path d="M467,76H45C20.186,76,0,96.186,0,121v330c0,24.814,20.186,45,45,45h422c24.814,0,45-20.186,45-45V121    C512,96.186,491.814,76,467,76z M451,421c0,8.062-7.509,15-15,15c-111.812,0-248.177,0-360,0c-7.028,0-15-6.341-15-15V151    c0-8.291,6.709-15,15-15h360c8.291,0,15,6.709,15,15V421z"/>
	</g>
</g>
<g>
	<g>
		<path d="M256,16c-19.53,0-36.024,12.578-42.237,30h84.474C292.024,28.578,275.53,16,256,16z"/>
	</g>
</g>
<g>
</g>
<g>
</g>
<g>
</g>
<g>
</g>
<g>
</g>
<g>
</g>
<g>
</g>
<g>
</g>
<g>
</g>
<g>
</g>
<g>
</g>
<g>
</g>
<g>
</g>
<g>
</g>
<g>
</g>
</svg>
