<?xml version="1.0" encoding="iso-8859-1"?>
<!-- Generator: Adobe Illustrator 19.0.0, SVG Export Plug-In . SVG Version: 6.00 Build 0)  -->
<svg xmlns="http://www.w3.org/2000/svg" xmlns:xlink="http://www.w3.org/1999/xlink" version="1.1" id="Layer_1" x="0px" y="0px" viewBox="0 0 512 512" style="enable-background:new 0 0 512 512;" xml:space="preserve">
<g>
	<g>
		<path d="M492.248,181.772l-88.669,29.223h-42.582v-15c0-18.318-11.038-34.051-26.778-41.066    c16.507-16.324,26.778-38.936,26.778-63.932C360.997,41.37,320.627,0,271,0c-49.628,0-89.998,41.37-89.998,90.998    c0,23.133,9.016,44.04,23.407,59.999h-38.79c9.518-12.574,15.383-28.051,15.383-44.999c0-41.352-33.646-75.998-74.998-75.998    c-41.352,0-75.998,34.646-75.998,75.998c0,20.204,8.117,38.49,21.154,51.99c-12.66,7.971-21.153,21.973-21.153,38.008v17.763    c-17.422,6.213-29.999,22.706-29.999,42.236v29.999c0,19.53,12.578,36.023,29.999,42.236v17.763    c0,24.813,20.185,44.999,44.999,44.999h91.005l-72.002,97.004c-4.98,6.621-3.633,16.025,3.003,20.991    c6.636,4.98,16.04,3.662,20.991-3.003l63.002-84.99v75.996c0,8.291,6.709,15,15,15c8.291,0,15-6.709,15-15v-75.996l63.002,84.99    c4.951,6.626,14.347,7.986,20.99,3.003c6.636-4.966,7.983-14.37,3.003-20.99l-72.002-97.004h90.005    c24.813,0,44.999-20.186,44.999-44.999v-15h42.582l88.669,29.223c9.578,3.252,19.746-3.933,19.746-14.224V195.995    C511.994,185.676,501.802,178.495,492.248,181.772z M151.002,285.993c0,8.276-6.724,15-15,15H45.005c-8.276,0-15-6.724-15-15    v-29.999c0-8.276,6.724-15,15-15h90.998c8.276,0,15,6.724,15,15V285.993z M106.003,150.996c-24.813,0-45.999-20.186-45.999-44.999    s21.186-45.999,45.999-45.999c24.813,0,44.999,21.185,44.999,45.999S130.818,150.996,106.003,150.996z M225.855,271.287    c-8.291,0-15.146-6.855-15.146-15.146s6.855-15.147,15.146-15.147c8.291,0,15.146,6.855,15.146,15.146    C241,264.431,234.145,271.287,225.855,271.287z M285.853,271.287c-8.291,0-15.146-6.855-15.146-15.146s6.855-15.147,15.146-15.147    s15.146,6.855,15.146,15.146C300.999,264.431,294.144,271.287,285.853,271.287z M271,150.996    c-33.09,0-59.999-26.908-59.999-59.999S237.909,29.999,271,29.999s59.999,27.908,59.999,60.999S304.09,150.996,271,150.996z     M390.997,300.993h-29.999v-59.999h29.999V300.993z"/>
	</g>
</g>
<g>
</g>
<g>
</g>
<g>
</g>
<g>
</g>
<g>
</g>
<g>
</g>
<g>
</g>
<g>
</g>
<g>
</g>
<g>
</g>
<g>
</g>
<g>
</g>
<g>
</g>
<g>
</g>
<g>
</g>
</svg>
