<?xml version="1.0" encoding="iso-8859-1"?>
<!-- Generator: Adobe Illustrator 19.0.0, SVG Export Plug-In . SVG Version: 6.00 Build 0)  -->
<svg xmlns="http://www.w3.org/2000/svg" xmlns:xlink="http://www.w3.org/1999/xlink" version="1.1" id="Layer_1" x="0px" y="0px" viewBox="0 0 512 512" style="enable-background:new 0 0 512 512;" xml:space="preserve">
<g>
	<g>
		<path d="M426.786,151c-19.512,0-36.87-13.682-43.198-34.058C362.011,47.597,298.671,0,226,0h-60C75.019,0,0,75.019,0,166v75h181    v-15c0-8.291,6.709-15,15-15h120c8.291,0,15,6.709,15,15v15h181v-5.786C512,188.778,473.222,151,426.786,151z"/>
	</g>
</g>
<g>
	<g>
		<path d="M211,241c0,21.711,0,38.289,0,60h30v-60H211z"/>
	</g>
</g>
<g>
	<g>
		<rect x="331" y="271" width="181" height="30"/>
	</g>
</g>
<g>
	<g>
		<path d="M271,241v60h30c0-21.711,0-38.289,0-60H271z"/>
	</g>
</g>
<g>
	<g>
		<path d="M0,331v136c0,24.814,21.186,45,46,45c85.177,0,321.521,0,421,0c24.814,0,45-20.186,45-45V331    C333.783,331,188.979,331,0,331z M421,482H91v-91h30v46c0,8.291,6.709,15,15,15s15-6.709,15-15v-46h30v46c0,8.291,6.709,15,15,15    s15-6.709,15-15v-46h30v46c0,8.291,6.709,15,15,15s15-6.709,15-15v-46h30v46c0,8.291,6.709,15,15,15c8.291,0,15-6.709,15-15v-46    h30v46c0,8.291,6.709,15,15,15c8.291,0,15-6.709,15-15v-46h30V482z"/>
	</g>
</g>
<g>
	<g>
		<rect y="271" width="181" height="30"/>
	</g>
</g>
<g>
</g>
<g>
</g>
<g>
</g>
<g>
</g>
<g>
</g>
<g>
</g>
<g>
</g>
<g>
</g>
<g>
</g>
<g>
</g>
<g>
</g>
<g>
</g>
<g>
</g>
<g>
</g>
<g>
</g>
</svg>
