<?xml version="1.0" encoding="iso-8859-1"?>
<!-- Generator: Adobe Illustrator 19.0.0, SVG Export Plug-In . SVG Version: 6.00 Build 0)  -->
<svg xmlns="http://www.w3.org/2000/svg" xmlns:xlink="http://www.w3.org/1999/xlink" version="1.1" id="Layer_1" x="0px" y="0px" viewBox="0 0 512 512" style="enable-background:new 0 0 512 512;" xml:space="preserve">
<g>
	<g>
		<path d="M469.423,106.223l10.598-10.598c17.544-17.545,17.617-46.031-0.001-63.647c-16.992-17.007-46.67-16.978-63.633,0    l-10.609,10.604L395.297,32.1c-17.699-17.701-46.199-17.701-63.9,0L320.92,42.577c90.533,90.535,69.091,69.093,148.499,148.5    l10.479-10.479c17.701-17.699,17.701-46.199,0-63.898L469.423,106.223z"/>
	</g>
</g>
<g>
	<g>
		<path d="M511.991,318.202L390.921,439.27l31.824,31.824c5.859,5.859,15.352,5.859,21.211,0l63.647-63.647    c2.813-2.813,4.395-6.621,4.395-10.605L511.991,318.202z"/>
	</g>
</g>
<g>
	<g>
		<path d="M115.156,0c-3.984,0-7.793,1.582-10.605,4.395L40.903,68.042c-5.859,5.859-5.859,15.352,0,21.211l31.824,31.824    L193.796,0.007L115.156,0z"/>
	</g>
</g>
<g>
	<g>
		<path d="M299.708,63.788l-42.435,42.435L236.07,85.014l59.394-59.394c9.448-9.448,2.701-25.605-10.605-25.605l-48.644-0.004    L93.938,142.288l31.824,31.824c5.859,5.859,15.352,5.859,21.211,0l67.886-67.886l21.204,21.209L204.197,159.3    c-6.918,6.918-11.21,15.829-12.601,25.263c0.692-0.011,1.355-0.198,2.047-0.198c30.914,0,60.383,10.743,83.697,28.991    l85.968-85.966L299.708,63.788z"/>
	</g>
</g>
<g>
	<g>
		<path d="M511.983,227.139c0-13.275-16.157-20.085-25.605-10.605l-59.394,59.394l-21.211-21.204l42.435-42.435l-63.6-63.6    l-85.897,85.897c19.043,23.806,29.932,52.819,29.932,83.769c0,0.637-0.174,1.24-0.183,1.875    c9.137-1.566,17.651-5.845,24.238-12.429l31.864-31.866l21.211,21.204l-67.886,67.886c-5.859,5.859-5.859,15.352,0,21.211    l31.824,31.824l142.277-142.277L511.983,227.139z"/>
	</g>
</g>
<g>
	<g>
		<path d="M267.88,244.116c-39.638-39.668-108.822-39.668-148.49,0c-5.859,5.859-5.859,15.352,0,21.211l16.613,16.831v72.407    l-20.438,20.662c-5.859,5.859-5.859,15.352,0,21.211s15.351,5.86,21.211,0L157.432,376h72.407l16.831,16.607    c2.93,2.93,6.768,4.395,10.605,4.395c3.838,0,7.676-1.465,10.605-4.395c19.834-19.834,30.762-46.201,30.762-74.253    S287.714,263.935,267.88,244.116z M166.003,346v-33.842L199.839,346H166.003z"/>
	</g>
</g>
<g>
	<g>
		<path d="M104.958,482c-20.054,0-38.892-7.793-53.027-21.929c-14.135-14.136-21.929-32.974-21.929-53.027c0-8.291-6.709-15-15-15    s-15,6.709-15,15c0,28.066,10.913,54.434,30.718,74.238S76.892,512,104.958,512c8.291,0,15-6.709,15-15    C119.958,488.709,113.25,482,104.958,482z"/>
	</g>
</g>
<g>
	<g>
		<path d="M104.958,422.044c-3.998,0-7.763-1.567-10.605-4.395c-2.827-2.842-4.395-6.606-4.395-10.605c0-8.291-6.709-15-15-15    s-15,6.709-15,15c0,12.012,4.688,23.32,13.184,31.816c8.496,8.496,19.805,13.184,31.816,13.184c8.291,0,15-6.709,15-15    C119.958,428.753,113.249,422.044,104.958,422.044z"/>
	</g>
</g>
<g>
</g>
<g>
</g>
<g>
</g>
<g>
</g>
<g>
</g>
<g>
</g>
<g>
</g>
<g>
</g>
<g>
</g>
<g>
</g>
<g>
</g>
<g>
</g>
<g>
</g>
<g>
</g>
<g>
</g>
</svg>
