<?xml version="1.0" encoding="iso-8859-1"?>
<!-- Generator: Adobe Illustrator 19.0.0, SVG Export Plug-In . SVG Version: 6.00 Build 0)  -->
<svg xmlns="http://www.w3.org/2000/svg" xmlns:xlink="http://www.w3.org/1999/xlink" version="1.1" id="Layer_1" x="0px" y="0px" viewBox="0 0 512 512" style="enable-background:new 0 0 512 512;" xml:space="preserve">
<g>
	<g>
		<path d="M494.29,9.153c-3.237-7.66-12.1-11.175-19.658-7.967C467,4.408,463.44,13.212,466.663,20.844    C476.844,44.882,482,70.399,482,96.664s-5.156,51.782-15.337,75.82c-3.223,7.632,0.337,16.436,7.969,19.658    c7.603,3.215,16.436-0.331,19.658-7.969c11.748-27.759,17.71-57.202,17.71-87.51C512,66.355,506.038,36.912,494.29,9.153z"/>
	</g>
</g>
<g>
	<g>
		<path d="M439.007,32.489c-3.237-7.646-12.114-11.191-19.658-7.968c-7.632,3.237-11.191,12.041-7.969,19.658    C418.426,60.819,422,78.471,422,96.664s-3.574,35.845-10.62,52.485c-3.223,7.617,0.337,16.421,7.969,19.658    c7.579,3.206,16.403-0.3,19.658-7.969C447.635,140.492,452,118.9,452,96.664S447.635,52.836,439.007,32.489z"/>
	</g>
</g>
<g>
	<g>
		<path d="M383.724,55.811c-3.252-7.632-12.085-11.133-19.673-7.954c-7.632,3.237-11.191,12.056-7.954,19.673    C360.022,76.742,362,86.557,362,96.664s-1.978,19.922-5.903,29.136c-3.238,7.617,0.322,16.435,7.954,19.673    c7.575,3.204,16.41-0.287,19.673-7.954C389.217,124.57,392,110.83,392,96.665C392,82.5,389.217,68.76,383.724,55.811z"/>
	</g>
</g>
<g>
	<g>
		<path d="M30,96.652c0-26.264,5.156-51.782,15.337-75.82C48.56,13.2,45,4.396,37.368,1.173C29.824-2.005,20.933,1.481,17.71,9.142    C5.962,36.901,0,66.344,0,96.652c0,30.308,5.962,59.751,17.71,87.51c3.223,7.637,12.056,11.184,19.658,7.969    c7.632-3.223,11.191-12.026,7.969-19.658C35.156,148.434,30,122.916,30,96.652z"/>
	</g>
</g>
<g>
	<g>
		<path d="M90,96.652c0-18.193,3.574-35.845,10.62-52.485c3.223-7.617-0.337-16.421-7.969-19.658    c-7.573-3.193-16.406,0.308-19.658,7.969C64.365,52.824,60,74.415,60,96.652s4.365,43.828,12.993,64.175    c3.256,7.668,12.079,11.175,19.658,7.969c7.632-3.237,11.191-12.041,7.969-19.658C93.574,132.496,90,114.845,90,96.652z"/>
	</g>
</g>
<g>
	<g>
		<path d="M155.902,125.788c-3.926-9.214-5.903-19.028-5.903-29.136c0-10.122,1.978-19.922,5.889-29.121    c3.253-7.632-0.307-16.436-7.924-19.673c-7.632-3.281-16.436,0.308-19.673,7.925C122.783,68.717,120,82.472,120,96.652    c0,14.165,2.783,27.905,8.276,40.854c2.432,5.713,7.983,9.141,13.813,9.141C152.841,146.647,160.09,135.642,155.902,125.788z"/>
	</g>
</g>
<g>
	<g>
		<path d="M406,421h-19.843c-87.372-218.443-32.551-81.394-109.995-274.99C290.825,138.585,301,123.531,301,106    c0-24.814-20.186-45-45-45c-24.814,0-45,20.186-45,45c0,17.531,10.175,32.585,24.838,40.01    c-44.02,110.039-19.31,48.263-109.995,274.99H106c-24.814,0-45,21.186-45,46v30c0,8.291,6.709,15,15,15h360    c8.291,0,15-6.709,15-15v-30C451,442.186,430.814,421,406,421z M218.291,270.658c0.586,0.07,1.099,0.342,1.703,0.342h72.012    c0.604,0,1.117-0.273,1.703-0.342l10.66,26.651L256,331.85l-48.369-34.541L218.291,270.658z M196.161,325.976l34.028,24.316    l-61.245,43.74L196.161,325.976z M182.802,421L256,368.72L329.198,421H182.802z M281.811,350.292l34.028-24.316l27.217,68.056    L281.811,350.292z"/>
	</g>
</g>
<g>
</g>
<g>
</g>
<g>
</g>
<g>
</g>
<g>
</g>
<g>
</g>
<g>
</g>
<g>
</g>
<g>
</g>
<g>
</g>
<g>
</g>
<g>
</g>
<g>
</g>
<g>
</g>
<g>
</g>
</svg>
