<?xml version="1.0" encoding="iso-8859-1"?>
<!-- Generator: Adobe Illustrator 19.0.0, SVG Export Plug-In . SVG Version: 6.00 Build 0)  -->
<svg xmlns="http://www.w3.org/2000/svg" xmlns:xlink="http://www.w3.org/1999/xlink" version="1.1" id="Layer_1" x="0px" y="0px" viewBox="0 0 512 512" style="enable-background:new 0 0 512 512;" xml:space="preserve">
<g>
	<g>
		<path d="M498.808,140.443l-10.613-10.613l10.613-10.613c17.549-17.549,17.549-46.084,0-63.633l-42.422-42.422    c-17.549-17.549-46.084-17.549-63.633,0l-10.605,10.605l-10.605-10.605c-16.978-16.978-46.641-17.007-63.647,0L297.29,23.768    l190.913,190.913l10.605-10.605C516.426,186.458,516.368,157.974,498.808,140.443z"/>
	</g>
</g>
<g>
	<g>
		<path d="M276.079,44.979L172.133,148.924l190.913,190.913l103.945-103.945L276.079,44.979z M352.44,201.951    c5.859,5.859,5.859,15.352,0,21.211c-5.859,5.859-15.352,5.859-21.211,0l-10.605-10.605l-10.605,10.605    c-5.859,5.859-15.352,5.859-21.211,0c-5.859-5.859-5.859-15.352,0-21.211l10.605-10.605l-10.605-10.605    c-5.859-5.859-5.859-15.352,0-21.211s15.352-5.859,21.211,0l10.605,10.605l10.605-10.605c5.859-5.859,15.352-5.859,21.211,0    s5.859,15.352,0,21.211l-10.605,10.605L352.44,201.951z"/>
	</g>
</g>
<g>
	<g>
		<path d="M23.767,297.321l-10.605,10.605c-17.549,17.549-17.549,46.099,0,63.647l127.266,127.266    c17.549,17.549,46.099,17.549,63.647,0l10.605-10.605L23.767,297.321z"/>
	</g>
</g>
<g>
	<g>
		<path d="M150.922,170.135L44.978,276.11l190.913,190.913l105.944-105.975L150.922,170.135z M225.161,308.021l-44.421,44.451    c-5.859,5.859-15.352,5.859-21.211,0c-5.859-5.859-5.86-15.351,0-21.211l44.421-44.451c5.859-5.859,15.352-5.859,21.211,0    S231.02,302.162,225.161,308.021z"/>
	</g>
</g>
<g>
</g>
<g>
</g>
<g>
</g>
<g>
</g>
<g>
</g>
<g>
</g>
<g>
</g>
<g>
</g>
<g>
</g>
<g>
</g>
<g>
</g>
<g>
</g>
<g>
</g>
<g>
</g>
<g>
</g>
</svg>
