<?xml version="1.0" encoding="iso-8859-1"?>
<!-- Generator: Adobe Illustrator 19.0.0, SVG Export Plug-In . SVG Version: 6.00 Build 0)  -->
<svg xmlns="http://www.w3.org/2000/svg" xmlns:xlink="http://www.w3.org/1999/xlink" version="1.1" id="Layer_1" x="0px" y="0px" viewBox="0 0 512 512" style="enable-background:new 0 0 512 512;" xml:space="preserve">
<g>
	<g>
		<path d="M226,121c-74.443,0-135,60.557-135,135s60.557,135,135,135s135-60.557,135-135S300.443,121,226,121z M226,361    c-57.891,0-105-47.109-105-105c0-8.291,6.709-15,15-15s15,6.709,15,15c0,41.353,33.647,75,75,75c8.291,0,15,6.709,15,15    C241,354.291,234.291,361,226,361z M226,301c-24.814,0-45-20.186-45-45c0-24.814,20.186-45,45-45c24.814,0,45,20.186,45,45    C271,280.814,250.814,301,226,301z M316,271c-8.291,0-15-6.709-15-15c0-41.353-33.647-75-75-75c-8.291,0-15-6.709-15-15    s6.709-15,15-15c57.891,0,105,47.109,105,105C331,264.291,324.291,271,316,271z"/>
	</g>
</g>
<g>
	<g>
		<path d="M45,31C20.186,31,0,51.186,0,76v360c0,24.814,20.186,45,45,45h376V31H45z M226,421c-90.981,0-165-74.019-165-165    S135.019,91,226,91s165,74.019,165,165S316.981,421,226,421z"/>
	</g>
</g>
<g>
	<g>
		<path d="M467,31h-16v450h16c24.814,0,45-20.186,45-45V76C512,51.186,491.814,31,467,31z"/>
	</g>
</g>
<g>
	<g>
		<path d="M226,241c-8.276,0-15,6.724-15,15s6.724,15,15,15s15-6.724,15-15S234.276,241,226,241z"/>
	</g>
</g>
<g>
</g>
<g>
</g>
<g>
</g>
<g>
</g>
<g>
</g>
<g>
</g>
<g>
</g>
<g>
</g>
<g>
</g>
<g>
</g>
<g>
</g>
<g>
</g>
<g>
</g>
<g>
</g>
<g>
</g>
</svg>
