<?xml version="1.0" encoding="iso-8859-1"?>
<!-- Generator: Adobe Illustrator 19.0.0, SVG Export Plug-In . SVG Version: 6.00 Build 0)  -->
<svg xmlns="http://www.w3.org/2000/svg" xmlns:xlink="http://www.w3.org/1999/xlink" version="1.1" id="Layer_1" x="0px" y="0px" viewBox="0 0 512 512" style="enable-background:new 0 0 512 512;" xml:space="preserve">
<g>
	<g>
		<rect x="180.853" y="332.65" width="30.059" height="30.059"/>
	</g>
</g>
<g>
	<g>
		<rect x="240.971" y="332.65" width="30.059" height="30.059"/>
	</g>
</g>
<g>
	<g>
		<path d="M316.117,272.532H195.883c-8.292,0-15.029,6.737-15.029,15.029v15.029c131.591,0,21.162,0,150.294,0v-15.029    C331.147,279.269,324.41,272.532,316.117,272.532z"/>
	</g>
</g>
<g>
	<g>
		<rect x="301.088" y="332.65" width="30.059" height="30.059"/>
	</g>
</g>
<g>
	<g>
		<path d="M446.978,94.58L356.802,4.404C353.984,1.585,350.168,0,346.176,0h-240.47C80.844,0,60.618,20.226,60.618,45.088v90.176    c0,3.992,1.585,7.808,4.404,10.626l25.655,25.656v48.673l-25.655,25.655c-2.818,2.819-4.404,6.635-4.404,10.627v210.411    c0,24.863,20.225,45.088,45.088,45.088h300.587c24.863,0,45.088-20.226,45.088-45.088V105.206    C451.382,101.214,449.797,97.397,446.978,94.58z M301.088,75.147c0-8.307,6.722-15.029,15.029-15.029    c8.307,0,15.029,6.722,15.029,15.029v30.059c0,8.307-6.722,15.029-15.029,15.029c-8.307,0-15.029-6.722-15.029-15.029V75.147z     M240.971,75.147c0-8.307,6.722-15.029,15.029-15.029c8.307,0,15.029,6.722,15.029,15.029v30.059    c0,8.307-6.722,15.029-15.029,15.029c-8.307,0-15.029-6.722-15.029-15.029V75.147z M180.853,75.147    c0-8.307,6.722-15.029,15.029-15.029c8.307,0,15.029,6.722,15.029,15.029v30.059c0,8.307-6.722,15.029-15.029,15.029    c-8.307,0-15.029-6.722-15.029-15.029V75.147z M120.736,75.147c0-8.307,6.722-15.029,15.029-15.029    c8.307,0,15.029,6.722,15.029,15.029v30.059c0,8.307-6.722,15.029-15.029,15.029c-8.307,0-15.029-6.722-15.029-15.029V75.147z     M376.235,362.708c8.307,0,15.029,6.722,15.029,15.029c0,8.307-6.722,15.029-15.029,15.029h-15.029v15.029    c0,24.863-20.226,45.088-45.088,45.088H195.883c-24.863,0-45.088-20.225-45.088-45.088v-15.029h-15.029    c-8.307,0-15.029-6.722-15.029-15.029c0-8.307,6.722-15.029,15.029-15.029h15.029V332.65h-15.029    c-8.307,0-15.029-6.722-15.029-15.029c0-8.307,6.722-15.029,15.029-15.029h15.029v-15.029c0-24.863,20.226-45.088,45.088-45.088    h120.235c24.863,0,45.088,20.226,45.088,45.088v15.029h15.029c8.307,0,15.029,6.722,15.029,15.029    c0,8.307-6.722,15.029-15.029,15.029h-15.029v30.059H376.235z"/>
	</g>
</g>
<g>
	<g>
		<path d="M180.853,392.767v15.029c0,8.292,6.737,15.029,15.029,15.029h120.235c8.292,0,15.029-6.737,15.029-15.029v-15.029    C200.764,392.767,314.429,392.767,180.853,392.767z"/>
	</g>
</g>
<g>
</g>
<g>
</g>
<g>
</g>
<g>
</g>
<g>
</g>
<g>
</g>
<g>
</g>
<g>
</g>
<g>
</g>
<g>
</g>
<g>
</g>
<g>
</g>
<g>
</g>
<g>
</g>
<g>
</g>
</svg>
