<?xml version="1.0" encoding="iso-8859-1"?>
<!-- Generator: Adobe Illustrator 19.0.0, SVG Export Plug-In . SVG Version: 6.00 Build 0)  -->
<svg xmlns="http://www.w3.org/2000/svg" xmlns:xlink="http://www.w3.org/1999/xlink" version="1.1" id="Layer_1" x="0px" y="0px" viewBox="0 0 512 512" style="enable-background:new 0 0 512 512;" xml:space="preserve">
<g>
	<g>
		<path d="M454.827,118.173c-5.859-5.86-15.351-5.86-21.211,0c-5.859,5.859-5.859,15.352,0,21.211    C464.817,170.585,482,211.996,482,256c0,44.004-17.183,85.415-48.384,116.616c-5.859,5.859-5.859,15.352,0,21.211    s15.352,5.859,21.211,0C491.697,356.957,512,308.017,512,256C512,203.983,491.697,155.043,454.827,118.173z"/>
	</g>
</g>
<g>
	<g>
		<path d="M412.42,160.58c-5.859-5.859-15.352-5.859-21.211,0c-5.859,5.845-5.859,15.352,0,21.211    C411.058,201.654,422,228.021,422,256s-10.942,54.346-30.791,74.209c-5.859,5.859-5.859,15.366,0,21.211    c5.859,5.859,15.352,5.859,21.211,0C437.952,325.873,452,291.991,452,256C452,220.009,437.952,186.127,412.42,160.58z"/>
	</g>
</g>
<g>
	<g>
		<path d="M370.013,202.973c-5.859-5.83-15.366-5.845-21.226,0.015c-5.845,5.874-5.845,15.366,0.015,21.226    C357.313,232.709,362,243.988,362,256c0,12.012-4.688,23.291-13.198,31.787c-5.86,5.859-5.86,15.352-0.015,21.226    c5.859,5.859,15.352,5.859,21.226,0.015C384.192,294.862,392,276.024,392,256S384.192,217.138,370.013,202.973z"/>
	</g>
</g>
<g>
	<g>
		<path d="M257,0H45C20.186,0,0,20.186,0,45v422c0,24.814,20.186,45,45,45h212c24.814,0,45-20.186,45-45V45    C302,20.186,281.814,0,257,0z M197,452h-92c-8.291,0-15-6.709-15-15c0-8.291,6.709-15,15-15h92c8.291,0,15,6.709,15,15    C212,445.291,205.291,452,197,452z M272,361H30V121h242V361z"/>
	</g>
</g>
<g>
</g>
<g>
</g>
<g>
</g>
<g>
</g>
<g>
</g>
<g>
</g>
<g>
</g>
<g>
</g>
<g>
</g>
<g>
</g>
<g>
</g>
<g>
</g>
<g>
</g>
<g>
</g>
<g>
</g>
</svg>
