<?xml version="1.0" encoding="iso-8859-1"?>
<!-- Generator: Adobe Illustrator 19.0.0, SVG Export Plug-In . SVG Version: 6.00 Build 0)  -->
<svg xmlns="http://www.w3.org/2000/svg" xmlns:xlink="http://www.w3.org/1999/xlink" version="1.1" id="Layer_1" x="0px" y="0px" viewBox="0 0 512 512" style="enable-background:new 0 0 512 512;" xml:space="preserve">
<g>
	<g>
		<polygon points="241,224.022 241,287.978 288.959,256   "/>
	</g>
</g>
<g>
	<g>
		<path d="M497,0C393.241,0,110.479,0,15,0C6.709,0,0,6.709,0,15c0,101.656,0,374.697,0,482c0,8.291,6.709,15,15,15    c103.759,0,386.521,0,482,0c8.291,0,15-6.709,15-15c0-468.062,0-14.751,0-482C512,6.709,505.291,0,497,0z M60,482H30v-31h30V482z     M60,421H30v-30h30V421z M60,361H30v-30h30V361z M60,301H30v-30h30V301z M60,241H30v-30h30V241z M60,181H30v-30h30V181z M60,121    H30V91h30V121z M60,61H30V30h30V61z M256,391c-74.443,0-135-60.557-135-135s60.557-135,135-135s135,60.557,135,135    S330.443,391,256,391z M482,482h-30v-31h30V482z M482,421h-30v-30h30V421z M482,361h-30v-30h30V361z M482,301h-30v-30h30V301z     M482,241h-30v-30h30V241z M482,181h-30v-30h30V181z M482,121h-30V91h30V121z M482,61h-30V30h30V61z"/>
	</g>
</g>
<g>
	<g>
		<path d="M256,151c-57.891,0-105,47.109-105,105s47.109,105,105,105s105-47.109,105-105S313.891,151,256,151z M324.32,268.48    l-90,60C224.389,335.102,211,327.984,211,316V196c0-12.003,13.411-19.076,23.32-12.48l90,60    C333.219,249.45,333.219,262.548,324.32,268.48z"/>
	</g>
</g>
<g>
</g>
<g>
</g>
<g>
</g>
<g>
</g>
<g>
</g>
<g>
</g>
<g>
</g>
<g>
</g>
<g>
</g>
<g>
</g>
<g>
</g>
<g>
</g>
<g>
</g>
<g>
</g>
<g>
</g>
</svg>
