<?xml version="1.0" encoding="iso-8859-1"?>
<!-- Generator: Adobe Illustrator 19.0.0, SVG Export Plug-In . SVG Version: 6.00 Build 0)  -->
<svg xmlns="http://www.w3.org/2000/svg" xmlns:xlink="http://www.w3.org/1999/xlink" version="1.1" id="Layer_1" x="0px" y="0px" viewBox="0 0 512 512" style="enable-background:new 0 0 512 512;" xml:space="preserve">
<g>
	<g>
		<path d="M301,424.763c0-104.7,0-174.749,0-277.526c17.422-6.213,31-22.707,31-42.237c0-24.814-21.186-45-46-45H46    C21.186,60,0,80.186,0,105c0,19.53,13.578,36.024,31,42.237v277.526C13.578,430.976,0,447.47,0,467c0,24.814,21.186,45,46,45h240    c24.814,0,46-20.186,46-45C332,447.47,318.422,430.976,301,424.763z M91,422H61v-30h30V422z M91,180H61v-30h30V180z M151,422h-30    v-30h30V422z M151,180h-30v-30h30V180z M211,422h-30v-30h30V422z M211,180h-30v-30h30V180z M271,422h-30v-30h30V422z M271,180h-30    v-30h30V180z"/>
	</g>
</g>
<g>
	<g>
		<path d="M467,120c-29.094,0-77.699,0-106.793,0c-3.717,17.866-13.674,33.845-28.207,44.78c0,88.92,0,102.906,0,242.439    c14.533,10.935,24.492,26.913,28.207,44.78H407c24.814,0,45-20.186,45-45c0-5.971,0-8.355,0-9.274c0-0.375,0-0.582,0-0.569    c0-1.767,0-9.071,0-35.156h15c24.814,0,45-20.186,45-45c0-66.683,0-85.278,0-152C512,140.186,491.814,120,467,120z M422,407    c0,8.276-6.724,15-15,15h-15v-30h30V407z M422,180h-30v-30h30V180z M482,180h-30v-30h15c8.276,0,15,6.724,15,15V180z"/>
	</g>
</g>
<g>
	<g>
		<path d="M196,0h-60c-19.53,0-36.024,12.578-42.237,30h144.474C232.024,12.578,215.53,0,196,0z"/>
	</g>
</g>
<g>
</g>
<g>
</g>
<g>
</g>
<g>
</g>
<g>
</g>
<g>
</g>
<g>
</g>
<g>
</g>
<g>
</g>
<g>
</g>
<g>
</g>
<g>
</g>
<g>
</g>
<g>
</g>
<g>
</g>
</svg>
