<?xml version="1.0" encoding="iso-8859-1"?>
<!-- Generator: Adobe Illustrator 19.0.0, SVG Export Plug-In . SVG Version: 6.00 Build 0)  -->
<svg xmlns="http://www.w3.org/2000/svg" xmlns:xlink="http://www.w3.org/1999/xlink" version="1.1" id="Layer_1" x="0px" y="0px" viewBox="0 0 512 512" style="enable-background:new 0 0 512 512;" xml:space="preserve">
<g>
	<g>
		<path d="M436,181h-45v-45C391,66.735,338.282,7.581,271,0v390.482C338.282,382.9,391,325.263,391,256v-45h30v45    c0,90.981-74.019,166-165,166S91,346.981,91,256v-45h30v45c0,69.263,52.718,126.9,120,134.482V0c-67.282,7.581-120,66.735-120,136    v45H76c-8.291,0-15,6.709-15,15v60c0,102.457,79.484,187.531,180,195.24V482h-45c-8.291,0-15,6.709-15,15c0,8.291,6.709,15,15,15    h120c8.291,0,15-6.709,15-15c0-8.291-6.709-15-15-15h-45v-30.76c100.516-7.709,180-92.783,180-195.24v-60    C451,187.709,444.291,181,436,181z M361,256c0,5.099-0.3,10.199-1.199,15H316c-8.401,0-15-6.601-15-15c0-8.401,6.599-15,15-15h45    V256z M361,211h-45c-8.401,0-15-6.601-15-15c0-8.401,6.599-15,15-15h45V211z M361,151h-45c-8.401,0-15-6.601-15-15    c0-8.401,6.599-15,15-15h43.801c0.899,4.799,1.199,9.899,1.199,15V151z M151,136c0-5.101,0.3-10.201,1.199-15H196    c8.401,0,15,6.599,15,15c0,8.399-6.599,15-15,15h-45V136z M151,181h45c8.401,0,15,6.599,15,15c0,8.399-6.599,15-15,15h-45V181z     M151,241h45c8.401,0,15,6.599,15,15c0,8.399-6.599,15-15,15h-43.801c-0.899-4.801-1.199-9.901-1.199-15V241z"/>
	</g>
</g>
<g>
</g>
<g>
</g>
<g>
</g>
<g>
</g>
<g>
</g>
<g>
</g>
<g>
</g>
<g>
</g>
<g>
</g>
<g>
</g>
<g>
</g>
<g>
</g>
<g>
</g>
<g>
</g>
<g>
</g>
</svg>
