<?xml version="1.0" encoding="iso-8859-1"?>
<!-- Generator: Adobe Illustrator 19.0.0, SVG Export Plug-In . SVG Version: 6.00 Build 0)  -->
<svg xmlns="http://www.w3.org/2000/svg" xmlns:xlink="http://www.w3.org/1999/xlink" version="1.1" id="Layer_1" x="0px" y="0px" viewBox="0 0 512 512" style="enable-background:new 0 0 512 512;" xml:space="preserve">
<g>
	<g>
		<path d="M400.003,329.516L182.297,111.812c-25.269-25.237-68.868-12.374-75.952,22.983l-32.532,155.12l-39.21,39.21    c-12.817,12.817-17.437,32.754-8.677,51.114l-12.534,12.534c-17.618,17.617-17.56,46.102,0,63.633l42.422,42.451    c17.549,17.52,46.113,17.534,63.633-0.015l12.545-12.545c18.285,8.721,38.232,4.189,51.103-8.681l39.21-39.21l154.7-32.952    C412.2,398.434,425.394,354.908,400.003,329.516z M161.884,456.405c-5.669,5.669-15.513,5.698-21.211,0l-84.858-84.844    c-5.913-5.943-5.82-15.422-0.001-21.21L87.63,318.52L193.7,424.589L161.884,456.405z"/>
	</g>
</g>
<g>
	<g>
		<path d="M445.999,65.801C403.562,23.364,347.063,0,286.902,0c-8.291,0-15,6.709-15,15s6.709,15,15,15    c52.148,0,101.118,20.244,137.886,57.012c36.768,36.768,57.012,85.737,57.012,137.886c0,8.291,6.709,15,15,15    c8.291,0,15-6.709,15-15C511.8,164.737,488.436,108.238,445.999,65.801z"/>
	</g>
</g>
<g>
	<g>
		<path d="M403.577,108.237C372.464,77.109,331.038,59.97,286.902,59.97c-8.291,0-15,6.709-15,15c0,8.291,6.709,15,15,15    c36.108,0,70.02,14.019,95.464,39.478c25.444,25.444,39.463,59.341,39.463,95.449c0,8.291,6.709,15,15,15c8.291,0,15-6.709,15-15    C451.829,180.776,434.69,139.35,403.577,108.237z"/>
	</g>
</g>
<g>
	<g>
		<path d="M361.155,150.659c-19.834-19.834-46.201-30.762-74.253-30.762c-8.291,0-15,6.709-15,15c0,8.291,6.709,15,15,15    c20.039,0,38.877,7.808,53.042,21.973c14.165,14.165,21.958,33.003,21.958,53.027c0,8.291,6.709,15,15,15c8.291,0,15-6.709,15-15    C391.902,196.86,380.989,170.507,361.155,150.659z"/>
	</g>
</g>
<g>
</g>
<g>
</g>
<g>
</g>
<g>
</g>
<g>
</g>
<g>
</g>
<g>
</g>
<g>
</g>
<g>
</g>
<g>
</g>
<g>
</g>
<g>
</g>
<g>
</g>
<g>
</g>
<g>
</g>
</svg>
