<?xml version="1.0" encoding="iso-8859-1"?>
<!-- Generator: Adobe Illustrator 19.0.0, SVG Export Plug-In . SVG Version: 6.00 Build 0)  -->
<svg xmlns="http://www.w3.org/2000/svg" xmlns:xlink="http://www.w3.org/1999/xlink" version="1.1" id="Layer_1" x="0px" y="0px" viewBox="0 0 512 512" style="enable-background:new 0 0 512 512;" xml:space="preserve">
<g>
	<g>
		<path d="M467,0H45C20.186,0,0,20.186,0,45v317h512V45C512,20.186,491.814,0,467,0z M121,268.237V317c0,8.291-6.709,15-15,15    s-15-6.709-15-15v-48.763C73.578,262.024,61,245.53,61,226c0-19.53,12.578-36.024,30-42.237V75c0-8.291,6.709-15,15-15    s15,6.709,15,15v108.763c17.422,6.213,30,22.707,30,42.237C151,245.53,138.422,262.024,121,268.237z M271,208.237V317    c0,8.291-6.709,15-15,15c-8.291,0-15-6.709-15-15V208.237c-17.422-6.213-30-22.707-30-42.237c0-19.53,12.578-36.024,30-42.237V75    c0-8.291,6.709-15,15-15s15,6.709,15,15v48.763c17.422,6.213,30,22.707,30,42.237C301,185.53,288.422,202.024,271,208.237z     M421,268.237V317c0,8.291-6.709,15-15,15c-8.291,0-15-6.709-15-15v-48.763c-17.422-6.213-30-22.707-30-42.237    c0-19.53,12.578-36.024,30-42.237V75c0-8.291,6.709-15,15-15c8.291,0,15,6.709,15,15v108.763c17.422,6.213,30,22.707,30,42.237    C451,245.53,438.422,262.024,421,268.237z"/>
	</g>
</g>
<g>
	<g>
		<path d="M106,211c-8.276,0-15,6.724-15,15s6.724,15,15,15s15-6.724,15-15S114.276,211,106,211z"/>
	</g>
</g>
<g>
	<g>
		<path d="M256,151c-8.276,0-15,6.724-15,15s6.724,15,15,15s15-6.724,15-15S264.276,151,256,151z"/>
	</g>
</g>
<g>
	<g>
		<path d="M256,422h256v-30H0v75c0,24.814,20.186,45,45,45h422c24.814,0,45-20.186,45-45v-15H256c-8.291,0-15-6.709-15-15    C241,428.709,247.709,422,256,422z M76,452c-8.284,0-15-6.716-15-15c0-8.286,6.716-15,15-15s15,6.714,15,15    C91,445.284,84.284,452,76,452z M136,452c-8.284,0-15-6.716-15-15c0-8.286,6.716-15,15-15s15,6.714,15,15    C151,445.284,144.284,452,136,452z M196,452c-8.284,0-15-6.716-15-15c0-8.286,6.716-15,15-15s15,6.714,15,15    C211,445.284,204.284,452,196,452z"/>
	</g>
</g>
<g>
	<g>
		<path d="M406,211c-8.276,0-15,6.724-15,15s6.724,15,15,15s15-6.724,15-15S414.276,211,406,211z"/>
	</g>
</g>
<g>
</g>
<g>
</g>
<g>
</g>
<g>
</g>
<g>
</g>
<g>
</g>
<g>
</g>
<g>
</g>
<g>
</g>
<g>
</g>
<g>
</g>
<g>
</g>
<g>
</g>
<g>
</g>
<g>
</g>
</svg>
