<?xml version="1.0" encoding="iso-8859-1"?>
<!-- Generator: Adobe Illustrator 19.0.0, SVG Export Plug-In . SVG Version: 6.00 Build 0)  -->
<svg xmlns="http://www.w3.org/2000/svg" xmlns:xlink="http://www.w3.org/1999/xlink" version="1.1" id="Layer_1" x="0px" y="0px" viewBox="0 0 512 512" style="enable-background:new 0 0 512 512;" xml:space="preserve">
<g>
	<g>
		<path d="M128.725,211.727C107.379,215.232,91,233.667,91,255.991c0,22.324,16.379,40.759,37.725,44.264    C123.791,286.07,121,271.134,121,255.991S123.791,225.912,128.725,211.727z"/>
	</g>
</g>
<g>
	<g>
		<path d="M159.176,217.618c-4.861,12.239-8.176,25.087-8.176,38.373c0,13.286,3.314,26.135,8.176,38.373    c13.02-7.893,21.824-22.066,21.824-38.373S172.196,225.511,159.176,217.618z"/>
	</g>
</g>
<g>
	<g>
		<path d="M217.658,159.223c7.901,12.99,22.059,21.768,38.342,21.768c16.283,0,30.441-8.778,38.342-21.768    C269.812,149.643,242.188,149.643,217.658,159.223z"/>
	</g>
</g>
<g>
	<g>
		<path d="M256,390.991c-15.143,0-30.079-2.79-44.264-7.725c3.505,21.346,21.94,37.725,44.264,37.725    c22.324,0,40.759-16.379,44.264-37.725C286.079,388.201,271.143,390.991,256,390.991z"/>
	</g>
</g>
<g>
	<g>
		<path d="M256,90.991c-22.357,0-40.811,16.43-44.275,37.824c28.462-9.708,60.088-9.708,88.55,0    C296.811,107.421,278.357,90.991,256,90.991z"/>
	</g>
</g>
<g>
	<g>
		<path d="M256,330.991c-16.283,0-30.441,8.778-38.342,21.768c24.53,9.58,52.154,9.58,76.684,0    C286.441,339.769,272.283,330.991,256,330.991z"/>
	</g>
</g>
<g>
	<g>
		<path d="M383.275,211.727c4.935,14.185,7.725,29.121,7.725,44.264s-2.791,30.079-7.725,44.264    C404.621,296.75,421,278.315,421,255.991C421,233.667,404.621,215.232,383.275,211.727z"/>
	</g>
</g>
<g>
	<g>
		<path d="M352.824,217.618C339.804,225.511,331,239.684,331,255.991c0,16.307,8.804,30.48,21.824,38.373    c4.861-12.239,8.176-25.087,8.176-38.373C361,242.705,357.686,229.856,352.824,217.618z"/>
	</g>
</g>
<g>
	<g>
		<path d="M497,481.99c-15.674,0-30.971-7.954-39.262-21.284c-8.569-13.799-8.95-30.908-1.025-46.963l0.002-0.011    C490.598,370.44,512,316.105,512,256.991C512,116.381,396.61,0.009,256,0.009S0,116.381,0,256.991s115.39,255,256,255    c63.717,0,121.901-23.65,166.646-62.423c1.602,9.39,4.396,18.571,9.619,26.973c13.799,22.192,38.617,35.449,64.735,35.449    c8.291,0,15-6.709,15-15C512,488.699,505.291,481.99,497,481.99z M256,60.991c41.353,0,75,33.647,75,75c0,38.491-31.707,75-75,75    c-35.876,0-75-28.504-75-75C181,94.639,214.647,60.991,256,60.991z M270.999,256.138c0,8.291-6.855,15.146-15.146,15.146    c-8.291,0-15.146-6.855-15.146-15.146c0-8.291,6.855-15.146,15.146-15.146C264.144,240.992,270.999,247.847,270.999,256.138z     M61,255.991c0-41.353,33.647-75,75-75c38.549,0,75,31.769,75,75c0,41.353-33.647,75-75,75C94.647,330.991,61,297.344,61,255.991z     M256,450.991c-41.353,0-75-33.647-75-75c0-38.491,31.707-75,75-75c42.9,0,75,36.092,75,75    C331,417.344,297.353,450.991,256,450.991z M376,330.991c-41.353,0-75-33.647-75-75c0-43.134,36.343-75,75-75    c41.353,0,75,33.648,75,75C451,297.344,417.353,330.991,376,330.991z"/>
	</g>
</g>
<g>
</g>
<g>
</g>
<g>
</g>
<g>
</g>
<g>
</g>
<g>
</g>
<g>
</g>
<g>
</g>
<g>
</g>
<g>
</g>
<g>
</g>
<g>
</g>
<g>
</g>
<g>
</g>
<g>
</g>
</svg>
