<?xml version="1.0" encoding="iso-8859-1"?>
<!-- Generator: Adobe Illustrator 19.0.0, SVG Export Plug-In . SVG Version: 6.00 Build 0)  -->
<svg xmlns="http://www.w3.org/2000/svg" xmlns:xlink="http://www.w3.org/1999/xlink" version="1.1" id="Layer_1" x="0px" y="0px" viewBox="0 0 511.999 511.999" style="enable-background:new 0 0 511.999 511.999;" xml:space="preserve">
<g>
	<g>
		<path d="M296.451,279.32l-36.161,36.149c-17.531,17.56-46.014,17.617-63.633,0c-17.618-17.618-17.545-46.102,0-63.647    l35.748-35.748c-10.41-18.71-16.727-39.13-19.254-60.112c-3.105,2.25-6.028,4.761-8.496,7.778L49.643,352.42    c-11.984,14.648-12.781,34.347-3.959,50.116l-12.213,12.213c-13.79,13.79-16.34,34.186-8.459,50.881L4.394,486.248    c-5.859,5.859-5.859,15.352,0,21.211c5.859,5.86,15.351,5.86,21.21,0l20.618-20.618c19.273,9.087,38.391,4.031,50.881-8.459    l12.327-12.327c6.758,3.768,13.967,6.365,21.511,6.365c10.049,0,20.127-3.369,28.491-10.21L348.4,307.456    c3.118-2.551,5.689-5.594,7.985-8.826C335.106,296.12,314.935,289.597,296.451,279.32z M75.893,457.171    c-5.684,5.654-15.527,5.654-21.211,0c-5.863-5.893-5.863-15.318,0-21.211l10.605-10.605l21.211,21.211L75.893,457.171z"/>
	</g>
</g>
<g>
	<g>
		<path d="M472.736,39.39C431.627-1.705,369.427-11.171,318.012,14.044c-17.569-12.429-41.715-11.565-57.414,4.135    c-15.59,15.59-16.518,39.472-4.409,57.001c-26.091,51.669-16.758,114.608,24.697,156.077    c41.468,41.455,104.409,50.751,156.077,24.694c20.641,14.246,42.724,9.838,56.984-4.422c15.71-15.71,16.555-39.851,4.136-57.411    C523.334,142.701,513.833,80.499,472.736,39.39z M472.736,230.317c-5.859,5.889-15.366,5.859-21.226,0L281.809,60.615    c-5.845-5.859-5.845-15.366,0-21.226c5.872-5.872,15.377-5.848,21.226,0l169.702,169.702    C478.581,214.951,478.581,224.458,472.736,230.317z"/>
	</g>
</g>
<g>
	<g>
		<path d="M259.675,252.466c-5.224-5.226-4.001-5.261-9.99-11.25l-31.817,31.831c-5.819,5.817-5.903,15.276,0,21.211    c5.684,5.669,15.542,5.669,21.196,0l31.846-31.816C265.28,256.81,259.81,252.6,259.675,252.466z"/>
	</g>
</g>
<g>
</g>
<g>
</g>
<g>
</g>
<g>
</g>
<g>
</g>
<g>
</g>
<g>
</g>
<g>
</g>
<g>
</g>
<g>
</g>
<g>
</g>
<g>
</g>
<g>
</g>
<g>
</g>
<g>
</g>
</svg>
