<?xml version="1.0" encoding="iso-8859-1"?>
<!-- Generator: Adobe Illustrator 19.0.0, SVG Export Plug-In . SVG Version: 6.00 Build 0)  -->
<svg xmlns="http://www.w3.org/2000/svg" xmlns:xlink="http://www.w3.org/1999/xlink" version="1.1" id="Layer_1" x="0px" y="0px" viewBox="0 0 512 512" style="enable-background:new 0 0 512 512;" xml:space="preserve">
<g>
	<g>
		<path d="M106,91c-8.276,0-15,6.724-15,15s6.724,15,15,15c157.148,0,285,127.852,285,285c0,8.276,6.724,15,15,15s15-6.724,15-15    C421,232.313,279.687,91,106,91z"/>
	</g>
</g>
<g>
	<g>
		<path d="M121,361c-16.538,0-30,13.462-30,30c0,16.538,13.462,30,30,30s30-13.462,30-30C151,374.462,137.538,361,121,361z"/>
	</g>
</g>
<g>
	<g>
		<path d="M106,211c-8.276,0-15,6.724-15,15s6.724,15,15,15c90.981,0,165,74.019,165,165c0,8.276,6.724,15,15,15s15-6.724,15-15    C301,298.48,213.52,211,106,211z"/>
	</g>
</g>
<g>
	<g>
		<path d="M467,0H45C20.186,0,0,20.186,0,45v422c0,24.814,20.186,45,45,45h422c24.814,0,45-19.186,45-44V45    C512,20.186,491.814,0,467,0z M121,451c-33.091,0-60-26.909-60-60s26.909-60,60-60s60,26.909,60,60S154.091,451,121,451z M286,451    c-24.814,0-45-20.186-45-45c0-74.443-60.557-135-135-135c-24.814,0-45-20.186-45-45c0-24.814,20.186-45,45-45    c124.072,0,225,100.928,225,225C331,430.814,310.814,451,286,451z M406,451c-24.814,0-45-20.186-45-45    c0-140.61-114.39-255-255-255c-24.814,0-45-20.186-45-45c0-24.814,20.186-45,45-45c190.239,0,345,154.761,345,345    C451,430.814,430.814,451,406,451z"/>
	</g>
</g>
<g>
</g>
<g>
</g>
<g>
</g>
<g>
</g>
<g>
</g>
<g>
</g>
<g>
</g>
<g>
</g>
<g>
</g>
<g>
</g>
<g>
</g>
<g>
</g>
<g>
</g>
<g>
</g>
<g>
</g>
</svg>
