<?xml version="1.0" encoding="iso-8859-1"?>
<!-- Generator: Adobe Illustrator 19.0.0, SVG Export Plug-In . SVG Version: 6.00 Build 0)  -->
<svg xmlns="http://www.w3.org/2000/svg" xmlns:xlink="http://www.w3.org/1999/xlink" version="1.1" id="Layer_1" x="0px" y="0px" viewBox="0 0 512 512" style="enable-background:new 0 0 512 512;" xml:space="preserve">
<g>
	<g>
		<path d="M467,122h-15v-15c0-19.53-12.578-37.024-30-43.237V15c0-8.291-6.709-15-15-15c-8.291,0-15,6.709-15,15v48.763    C374.578,69.976,362,87.47,362,107v15H181c0,19.556-12.539,36.24-30,42.437v125.127c17.461,6.196,30,22.881,30,42.437v75    C181,431.814,160.814,452,136,452H45c-5.284,0-10.285-1.082-15-2.763V467c0,24.814,20.186,45,45,45h392c24.814,0,45-20.186,45-45    V167C512,142.186,491.814,122,467,122z M256,452h-30c-8.291,0-15-6.709-15-15c0-8.291,6.709-15,15-15h30c8.291,0,15,6.709,15,15    C271,445.291,264.291,452,256,452z M256,392h-30c-8.291,0-15-6.709-15-15c0-8.291,6.709-15,15-15h30c8.291,0,15,6.709,15,15    C271,385.291,264.291,392,256,392z M256,332h-30c-8.291,0-15-6.709-15-15c0-8.291,6.709-15,15-15h30c8.291,0,15,6.709,15,15    C271,325.291,264.291,332,256,332z M347,452h-31c-8.291,0-15-6.709-15-15c0-8.291,6.709-15,15-15h31c8.291,0,15,6.709,15,15    C362,445.291,355.291,452,347,452z M347,392h-31c-8.291,0-15-6.709-15-15c0-8.291,6.709-15,15-15h31c8.291,0,15,6.709,15,15    C362,385.291,355.291,392,347,392z M347,332h-31c-8.291,0-15-6.709-15-15c0-8.291,6.709-15,15-15h31c8.291,0,15,6.709,15,15    C362,325.291,355.291,332,347,332z M437,452h-30c-8.291,0-15-6.709-15-15c0-8.291,6.709-15,15-15h30c8.291,0,15,6.709,15,15    C452,445.291,445.291,452,437,452z M437,392h-30c-8.291,0-15-6.709-15-15c0-8.291,6.709-15,15-15h30c8.291,0,15,6.709,15,15    C452,385.291,445.291,392,437,392z M437,332h-30c-8.291,0-15-6.709-15-15c0-8.291,6.709-15,15-15h30c8.291,0,15,6.709,15,15    C452,325.291,445.291,332,437,332z M452,257c0,8.291-6.709,15-15,15H226c-8.291,0-15-6.709-15-15v-60c0-8.291,6.709-15,15-15h211    c8.291,0,15,6.709,15,15V257z"/>
	</g>
</g>
<g>
	<g>
		<path d="M136,137c8.276,0,15-6.724,15-15V46c0-8.276-6.724-15-15-15H15C6.724,31,0,37.724,0,46v76c0,8.276,6.724,15,15,15    c8.291,0,15,6.709,15,15v150c0,8.291-6.709,15-15,15c-8.276,0-15,6.724-15,15v75c0,8.276,6.724,15,15,15h121    c8.276,0,15-6.724,15-15v-75c0-8.276-6.724-15-15-15c-8.291,0-15-6.709-15-15V152C121,143.709,127.709,137,136,137z"/>
	</g>
</g>
<g>
</g>
<g>
</g>
<g>
</g>
<g>
</g>
<g>
</g>
<g>
</g>
<g>
</g>
<g>
</g>
<g>
</g>
<g>
</g>
<g>
</g>
<g>
</g>
<g>
</g>
<g>
</g>
<g>
</g>
</svg>
