<?xml version="1.0" encoding="iso-8859-1"?>
<!-- Generator: Adobe Illustrator 19.0.0, SVG Export Plug-In . SVG Version: 6.00 Build 0)  -->
<svg xmlns="http://www.w3.org/2000/svg" xmlns:xlink="http://www.w3.org/1999/xlink" version="1.1" id="Layer_1" x="0px" y="0px" viewBox="0 0 512 512" style="enable-background:new 0 0 512 512;" xml:space="preserve">
<g>
	<g>
		<path d="M496.5,241h-45v-32.763c17.422-6.213,30-22.707,30-42.237v-15h-30c-23.134,0-44.041-9.016-60-23.408V166    c0,19.53,12.578,36.024,30,42.237v41.107c-17.847,10.406-30,29.542-30,51.656c0,33.091,26.909,60,60,60h45c8.291,0,15-6.709,15-15    v-90C511.5,247.709,504.791,241,496.5,241z"/>
	</g>
</g>
<g>
	<g>
		<path d="M496.5,0h-45c-33.091,0-60,26.909-60,60s26.909,61,60,61h45c8.291,0,15-6.709,15-15V15C511.5,6.709,504.791,0,496.5,0z"/>
	</g>
</g>
<g>
	<g>
		<path d="M451.5,391c-23.134,0-44.041-9.016-60-23.408V406c0,19.53,12.578,36.024,30,42.237V451c0,16.538-13.462,31-30,31    c-16.538,0-30-14.462-30-31c0-7.84,0-367.141,0-375c0-41.353-33.647-76-75-76c-41.353,0-75,34.647-75,76v15h-166    c-24.814,0-45,20.186-45,45v330c0,24.814,20.186,46,45,46h211c24.814,0,45-21.186,45-46V136c0-24.814-20.186-45-45-45h-15V76    c0-24.814,20.186-46,45-46c24.814,0,45,21.186,45,46c0,7.861,0,367.16,0,375c0,33.091,26.909,61,60,61s60-27.909,60-61v-2.763    c17.422-6.213,30-22.707,30-42.237v-15H451.5z M151.5,451c-49.629,0-91-40.371-91-90c0-49.629,41.371-90,91-90    c49.629,0,90,40.371,90,90C241.5,410.629,201.129,451,151.5,451z M241.5,226c0,8.291-6.709,15-15,15h-151c-8.291,0-15-6.709-15-15    v-60c0-8.291,6.709-15,15-15h151c8.291,0,15,6.709,15,15V226z"/>
	</g>
</g>
<g>
	<g>
		<path d="M151.5,301c-33.091,0-61,26.909-61,60s27.909,60,61,60s60-26.909,60-60S184.591,301,151.5,301z M151.5,391    c-16.538,0-31-13.462-31-30c0-16.538,14.462-30,31-30c16.538,0,30,13.462,30,30C181.5,377.538,168.038,391,151.5,391z"/>
	</g>
</g>
<g>
	<g>
		<rect x="90.5" y="181" width="121" height="30"/>
	</g>
</g>
<g>
</g>
<g>
</g>
<g>
</g>
<g>
</g>
<g>
</g>
<g>
</g>
<g>
</g>
<g>
</g>
<g>
</g>
<g>
</g>
<g>
</g>
<g>
</g>
<g>
</g>
<g>
</g>
<g>
</g>
</svg>
