<?xml version="1.0" encoding="iso-8859-1"?>
<!-- Generator: Adobe Illustrator 19.0.0, SVG Export Plug-In . SVG Version: 6.00 Build 0)  -->
<svg xmlns="http://www.w3.org/2000/svg" xmlns:xlink="http://www.w3.org/1999/xlink" version="1.1" id="Layer_1" x="0px" y="0px" viewBox="0 0 512 512" style="enable-background:new 0 0 512 512;" xml:space="preserve">
<g>
	<g>
		<path d="M391.993,362.008c-16.537,0-29.998,13.461-29.998,29.998s13.461,29.998,29.998,29.998s29.998-13.461,29.998-29.998    S408.531,362.008,391.993,362.008z"/>
	</g>
</g>
<g>
	<g>
		<rect x="90.005" y="242.018" width="241.987" height="29.998"/>
	</g>
</g>
<g>
	<g>
		<rect x="361.991" y="242.018" width="59.997" height="29.998"/>
	</g>
</g>
<g>
	<g>
		<path d="M120.008,362.008c-16.537,0-29.998,13.461-29.998,29.998s13.461,29.998,29.998,29.998    c16.537,0,29.998-13.461,29.998-29.998S136.545,362.008,120.008,362.008z"/>
	</g>
</g>
<g>
	<g>
		<path d="M466.99,151.019h-44.998v-44.998c0-8.291-6.709-14.999-14.999-14.999h-59.997h-59.997    c-8.291,0-14.999,6.709-14.999,14.999v44.998H90.009v-49.582c0-7.368,5.273-13.593,12.523-14.794l336.919-56.822    c8.174-1.362,13.695-9.097,12.333-17.255c-1.348-8.174-9.067-13.798-17.255-12.333L97.611,57.054    C75.83,60.672,60.01,79.333,60.01,101.437v49.582H45.011c-24.813,0-44.998,21.185-44.998,45.998v269.986    C0.014,491.816,20.198,512,45.012,512H466.99c24.813,0,44.998-20.185,44.998-44.998V197.017    C511.987,172.204,491.802,151.019,466.99,151.019z M361.995,121.021h29.998v29.998h-29.998V121.021z M301.998,121.021h29.998    v29.998h-29.998V121.021z M120.008,452.004c-33.089,0-59.997-26.908-59.997-59.997c0-33.089,26.908-59.997,59.997-59.997    c33.089,0,59.997,26.908,59.997,59.997C180.005,425.096,153.097,452.004,120.008,452.004z M286.999,452.004h-61.997    c-8.291,0-14.999-6.709-14.999-14.999c0-8.291,6.709-14.999,14.999-14.999h61.997c8.291,0,14.999,6.709,14.999,14.999    C301.998,445.295,295.29,452.004,286.999,452.004z M286.999,392.007h-61.997c-8.291,0-14.999-6.709-14.999-14.999    s6.709-14.999,14.999-14.999h61.997c8.291,0,14.999,6.709,14.999,14.999S295.29,392.007,286.999,392.007z M391.993,452.004    c-33.089,0-59.997-26.908-59.997-59.997c0-33.089,26.908-59.997,59.997-59.997c33.089,0,59.997,26.908,59.997,59.997    C451.99,425.096,425.082,452.004,391.993,452.004z M451.99,287.012c0,8.291-6.709,14.999-14.999,14.999    c-131.465,0-234.382,0-361.981,0c-8.291,0-14.999-6.709-14.999-14.999v-59.997c0-8.291,6.709-14.999,14.999-14.999    c127.579,0,230.522,0,361.981,0c8.291,0,14.999,6.709,14.999,14.999V287.012z"/>
	</g>
</g>
<g>
</g>
<g>
</g>
<g>
</g>
<g>
</g>
<g>
</g>
<g>
</g>
<g>
</g>
<g>
</g>
<g>
</g>
<g>
</g>
<g>
</g>
<g>
</g>
<g>
</g>
<g>
</g>
<g>
</g>
</svg>
