<?xml version="1.0" encoding="iso-8859-1"?>
<!-- Generator: Adobe Illustrator 19.0.0, SVG Export Plug-In . SVG Version: 6.00 Build 0)  -->
<svg xmlns="http://www.w3.org/2000/svg" xmlns:xlink="http://www.w3.org/1999/xlink" version="1.1" id="Layer_1" x="0px" y="0px" viewBox="0 0 512 512" style="enable-background:new 0 0 512 512;" xml:space="preserve">
<g>
	<g>
		<path d="M286,241c-8.276,0-15,6.724-15,15s6.724,15,15,15s15-6.724,15-15S294.276,241,286,241z"/>
	</g>
</g>
<g>
	<g>
		<path d="M350.708,138.26l-34.755,84.406c1.192,1.071,2.311,2.19,3.382,3.382l84.406-34.755    C391.392,168.921,373.079,150.608,350.708,138.26z"/>
	</g>
</g>
<g>
	<g>
		<path d="M286,121c-74.443,0-135,60.557-135,135c0,12.907,2.399,25.15,5.797,36.98l84.426-34.766    c-1.311-26.822,20.169-48.302,46.991-46.991l34.766-84.426C311.15,123.399,298.907,121,286,121z"/>
	</g>
</g>
<g>
	<g>
		<path d="M46,31C21.186,31,0,51.186,0,76v360c0,24.814,21.186,45,46,45h15V31H46z"/>
	</g>
</g>
<g>
	<g>
		<path d="M466,31H91v450h375c24.814,0,46-20.186,46-45V76C512,51.186,490.814,31,466,31z M286,421c-91.062,0-165-74.31-165-165    c0-90.981,74.019-165,165-165c91.141,0,165,74.366,165,165C451,346.981,376.981,421,286,421z"/>
	</g>
</g>
<g>
	<g>
		<path d="M415.203,219.02l-84.426,34.766c1.311,26.822-20.169,48.302-46.991,46.991l-34.766,84.426    C260.85,388.601,273.093,391,286,391c74.443,0,135-60.557,135-135C421,243.093,418.601,230.85,415.203,219.02z"/>
	</g>
</g>
<g>
	<g>
		<path d="M252.666,285.952l-84.406,34.755c12.349,22.372,30.661,40.684,53.033,53.033l34.755-84.406    C254.856,288.263,253.737,287.144,252.666,285.952z"/>
	</g>
</g>
<g>
</g>
<g>
</g>
<g>
</g>
<g>
</g>
<g>
</g>
<g>
</g>
<g>
</g>
<g>
</g>
<g>
</g>
<g>
</g>
<g>
</g>
<g>
</g>
<g>
</g>
<g>
</g>
<g>
</g>
</svg>
