<?xml version="1.0" encoding="iso-8859-1"?>
<!-- Generator: Adobe Illustrator 19.0.0, SVG Export Plug-In . SVG Version: 6.00 Build 0)  -->
<svg version="1.1" id="Layer_1" xmlns="http://www.w3.org/2000/svg" xmlns:xlink="http://www.w3.org/1999/xlink" x="0px" y="0px"
	 viewBox="0 0 512 512" style="enable-background:new 0 0 512 512;" xml:space="preserve">
<g>
	<g>
		<g>
			<path d="M434.823,0H77.177C49.828,0,27.578,22.25,27.578,49.599v412.802c0,27.349,22.25,49.599,49.599,49.599h357.646
				c27.349,0,49.599-22.25,49.599-49.599V49.599C484.422,22.25,462.173,0,434.823,0z M427.738,434.059
				c0,11.739-9.517,21.257-21.257,21.257H105.519c-11.739,0-21.257-9.517-21.257-21.257V77.941c0-11.739,9.517-21.257,21.257-21.257
				h300.962c11.739,0,21.257,9.517,21.257,21.257V434.059z"/>
			<path d="M399.395,302.41H289.108v-0.222c0-11.739-9.517-21.257-21.257-21.257h-23.704c-11.739,0-21.257,9.517-21.257,21.257
				c0-11.739-9.517-21.257-21.257-21.257H177.93c-11.739,0-21.257,9.517-21.257,21.257v0.222h-44.068
				c-3.913,0-7.086,3.173-7.086,7.086v28.342c0,3.913,3.173,7.086,7.086,7.086h44.07v0.221c0,11.739,9.517,21.257,21.257,21.257
				h23.704c11.739,0,21.257-9.517,21.257-21.257c0,11.739,9.517,21.257,21.257,21.257h23.704c11.739,0,21.257-9.517,21.257-21.257
				v-0.221h110.287c3.913,0,7.086-3.173,7.086-7.086v-28.342C406.481,305.583,403.309,302.41,399.395,302.41z"/>
			<path d="M399.395,167.075h-44.069v-0.222c0-11.739-9.517-21.257-21.257-21.257h-23.704c-11.739,0-21.257,9.517-21.257,21.257
				c0-11.739-9.517-21.257-21.257-21.257h-23.704c-11.739,0-21.257,9.517-21.257,21.257v0.222H112.605
				c-3.913,0-7.086,3.173-7.086,7.086v28.342c0,3.913,3.173,7.086,7.086,7.086h110.287v0.221c0,11.739,9.517,21.257,21.257,21.257
				h23.704c11.739,0,21.257-9.517,21.257-21.257c0,11.739,9.517,21.257,21.257,21.257h23.704c11.739,0,21.257-9.517,21.257-21.257
				v-0.221h44.07c3.913,0,7.086-3.173,7.086-7.086v-28.342C406.481,170.248,403.309,167.075,399.395,167.075z"/>
		</g>
	</g>
</g>
<g>
</g>
<g>
</g>
<g>
</g>
<g>
</g>
<g>
</g>
<g>
</g>
<g>
</g>
<g>
</g>
<g>
</g>
<g>
</g>
<g>
</g>
<g>
</g>
<g>
</g>
<g>
</g>
<g>
</g>
</svg>
