<?xml version="1.0" encoding="iso-8859-1"?>
<!-- Generator: Adobe Illustrator 19.0.0, SVG Export Plug-In . SVG Version: 6.00 Build 0)  -->
<svg version="1.1" id="Layer_1" xmlns="http://www.w3.org/2000/svg" xmlns:xlink="http://www.w3.org/1999/xlink" x="0px" y="0px"
	 viewBox="0 0 512 512" style="enable-background:new 0 0 512 512;" xml:space="preserve">
<g>
	<g>
		<g>
			<path d="M399.313,60.515h-64.686c-21.059-80.707-136.204-80.666-157.252,0h-64.687c-30.895,0-56.029,25.134-56.029,56.029
				v286.625c0,30.895,25.134,56.029,56.029,56.029h286.625c30.895,0,56.029-25.134,56.029-56.029V116.544
				C455.342,85.649,430.207,60.515,399.313,60.515z M384.285,367.641c0,11.322-9.179,20.501-20.501,20.501h-215.57
				c-11.322,0-20.501-9.179-20.501-20.501V152.072c0-11.322,9.179-20.501,20.501-20.501h215.57c11.322,0,20.501,9.179,20.501,20.501
				V367.641z"/>
			<path d="M255.995,186.774c-11.322,0-20.501,9.179-20.501,20.501v44.089l-21.705,21.705c-8.006,8.006-8.006,20.986,0,28.992
				c4.003,4.003,9.25,6.004,14.496,6.004c5.247,0,10.494-2.001,14.496-6.004l27.709-27.709c3.845-3.845,6.005-9.059,6.005-14.497
				v-52.582C276.495,195.952,267.317,186.774,255.995,186.774z"/>
			<path d="M202.471,470.998h-89.783c-11.322,0-20.501,9.179-20.501,20.501S101.366,512,112.688,512h89.783
				c11.322,0,20.501-9.179,20.501-20.501S213.793,470.998,202.471,470.998z"/>
			<path d="M399.313,470.998h-89.783c-11.322,0-20.501,9.179-20.501,20.501S298.207,512,309.529,512h89.783
				c11.322,0,20.501-9.179,20.501-20.501S410.634,470.998,399.313,470.998z"/>
		</g>
	</g>
</g>
<g>
</g>
<g>
</g>
<g>
</g>
<g>
</g>
<g>
</g>
<g>
</g>
<g>
</g>
<g>
</g>
<g>
</g>
<g>
</g>
<g>
</g>
<g>
</g>
<g>
</g>
<g>
</g>
<g>
</g>
</svg>
