<?xml version="1.0" encoding="iso-8859-1"?>
<!-- Generator: Adobe Illustrator 19.0.0, SVG Export Plug-In . SVG Version: 6.00 Build 0)  -->
<svg version="1.1" id="Layer_1" xmlns="http://www.w3.org/2000/svg" xmlns:xlink="http://www.w3.org/1999/xlink" x="0px" y="0px"
	 viewBox="0 0 512 512" style="enable-background:new 0 0 512 512;" xml:space="preserve">
<g>
	<g>
		<g>
			<path d="M119.892,278.286h272.216c3.786,0,6.856-3.07,6.856-6.856V188.7c0-72.188-52.956-132.896-122.398-143.038V20.567
				C276.566,9.208,267.357,0,255.999,0c-11.358,0-20.567,9.208-20.567,20.567v25.078c-69.122,10.002-122.398,69.636-122.398,141.482
				v84.303C113.036,275.217,116.105,278.286,119.892,278.286z"/>
			<path d="M424.136,358.892l-18.912-55.398c-0.947-2.775-3.555-4.641-6.488-4.641H113.262c-2.933,0-5.541,1.865-6.488,4.641
				l-18.912,55.398c-4.396,12.872,4.708,27.211,19.939,27.211h127.631v14.733c-21.57,8.294-36.925,29.218-36.925,53.673
				c0,31.701,25.791,57.491,57.492,57.491c31.701,0,57.492-25.791,57.492-57.491c0-24.455-15.355-45.38-36.925-53.673v-14.733
				h127.631C419.379,386.103,428.546,371.808,424.136,358.892z"/>
		</g>
	</g>
</g>
<g>
</g>
<g>
</g>
<g>
</g>
<g>
</g>
<g>
</g>
<g>
</g>
<g>
</g>
<g>
</g>
<g>
</g>
<g>
</g>
<g>
</g>
<g>
</g>
<g>
</g>
<g>
</g>
<g>
</g>
</svg>
