<?xml version="1.0" encoding="iso-8859-1"?>
<!-- Generator: Adobe Illustrator 19.0.0, SVG Export Plug-In . SVG Version: 6.00 Build 0)  -->
<svg version="1.1" id="Layer_1" xmlns="http://www.w3.org/2000/svg" xmlns:xlink="http://www.w3.org/1999/xlink" x="0px" y="0px"
	 viewBox="0 0 512 512" style="enable-background:new 0 0 512 512;" xml:space="preserve">
<g>
	<g>
		<g>
			<path d="M145.063,41.133h66.951c11.358,0,20.567-9.208,20.567-20.567S223.373,0,212.015,0h-66.951
				c-11.358,0-20.567,9.208-20.567,20.567S133.705,41.133,145.063,41.133z"/>
			<path d="M299.985,41.133h66.951c11.358,0,20.567-9.208,20.567-20.567S378.295,0,366.937,0h-66.951
				c-11.358,0-20.567,9.208-20.567,20.567S288.627,41.133,299.985,41.133z"/>
			<path d="M488.516,273.065h-33.883V78.592c0-11.358-9.208-20.567-20.567-20.567H77.934c-11.358,0-20.567,9.208-20.567,20.567
				v194.473H23.484c-11.358,0-20.567,9.208-20.567,20.567s9.208,20.567,20.567,20.567c1.441,0,456.6,0,465.031,0
				c11.358,0,20.567-9.208,20.567-20.567S499.874,273.065,488.516,273.065z M328.552,167.38h-63.215l-34.507,67.406
				c-7.46,14.576-28.206,15.027-36.247,0.687l-29.076-51.862c-13.287-23.701,22.571-43.851,35.879-20.116l10.312,18.393
				l22.754-44.447c3.517-6.872,10.588-11.195,18.307-11.195h75.792C355.729,126.246,355.758,167.38,328.552,167.38z"/>
			<path d="M424.95,340.832c-0.403-3.457-3.33-6.063-6.81-6.063h-94.559c-4.101,0-7.283,3.576-6.809,7.648l8.031,68.957H187.199
				l8.031-68.957c0.474-4.074-2.709-7.648-6.81-7.648H93.861c-3.48,0-6.407,2.606-6.809,6.063L69.846,488.577
				c-0.454,3.895,0.025,7.889,1.678,11.446C75,507.503,82.36,512,90.219,512h66.951c10.438,0,19.222-7.819,20.428-18.188
				l4.81-41.303H329.59l4.81,41.303c1.208,10.367,9.99,18.188,20.428,18.188h66.469c3.923,0,7.833-0.936,11.176-2.99
				c7.028-4.318,10.645-12.148,9.735-19.955L424.95,340.832z"/>
		</g>
	</g>
</g>
<g>
</g>
<g>
</g>
<g>
</g>
<g>
</g>
<g>
</g>
<g>
</g>
<g>
</g>
<g>
</g>
<g>
</g>
<g>
</g>
<g>
</g>
<g>
</g>
<g>
</g>
<g>
</g>
<g>
</g>
</svg>
