<?xml version="1.0" encoding="iso-8859-1"?>
<!-- Generator: Adobe Illustrator 19.0.0, SVG Export Plug-In . SVG Version: 6.00 Build 0)  -->
<svg version="1.1" id="Layer_1" xmlns="http://www.w3.org/2000/svg" xmlns:xlink="http://www.w3.org/1999/xlink" x="0px" y="0px"
	 viewBox="0 0 512 512" style="enable-background:new 0 0 512 512;" xml:space="preserve">
<g>
	<g>
		<g>
			<path d="M422.162,339.038c3.914,0,7.086-3.173,7.086-7.086V201.5c0-9.87-11.178-6.201-21.257-6.201
				c-42.443,0-80.141-24.554-97.799-61.742c-1.169-2.463-3.653-4.029-6.38-4.029h-95.627c-2.727,0-5.211,1.566-6.38,4.029
				c-17.659,37.188-55.357,61.742-97.799,61.742c-10.066,0-21.257-3.672-21.257,6.201v130.453c0,3.913,3.173,7.086,7.086,7.086
				H422.162z M309.704,226.774c0-11.739,9.517-21.257,21.257-21.257s21.257,9.517,21.257,21.257v63.079
				c0,11.739-9.517,21.257-21.257,21.257s-21.257-9.517-21.257-21.257V226.774z M234.742,226.774
				c0-11.739,9.517-21.257,21.257-21.257c11.739,0,21.257,9.517,21.257,21.257v63.079c0,11.739-9.517,21.257-21.257,21.257
				c-11.739,0-21.257-9.517-21.257-21.257V226.774z M159.78,226.774c0-11.739,9.517-21.257,21.257-21.257
				s21.257,9.517,21.257,21.257v63.079c0,11.739-9.517,21.257-21.257,21.257s-21.257-9.517-21.257-21.257V226.774z"/>
			<path d="M441.14,360.295H70.858c-17.98,0-32.608,14.629-32.608,32.609s14.628,32.608,32.608,32.608H82.75v65.231
				c0,11.739,9.517,21.257,21.257,21.257h303.986c11.739,0,21.257-9.517,21.257-21.257v-65.231h11.892
				c17.98,0,32.608-14.628,32.608-32.608C473.748,374.922,459.121,360.295,441.14,360.295z"/>
			<path d="M407.991,0H105.325C57.572,0,17.726,37.922,17.003,85.669c-0.737,48.6,38.577,88.373,87.004,88.373
				c27.627,0,52.279-12.948,68.23-33.088c3.656-4.617,0.282-11.426-5.608-11.426h-8.673c-5.82,0-10.895-4.484-11.069-10.301
				c-0.18-6.018,4.645-10.956,10.624-10.956c205.571,0,207.177-3.894,207.602,10.301c0.181,6.018-4.645,10.956-10.623,10.956h-9.116
				c-5.953,0-9.227,6.876-5.523,11.537c16.793,21.135,43.181,34.317,72.521,32.87c44.429-2.191,80.426-38.269,82.534-82.703
				C497.272,41.343,457.369,0,407.991,0z"/>
		</g>
	</g>
</g>
<g>
</g>
<g>
</g>
<g>
</g>
<g>
</g>
<g>
</g>
<g>
</g>
<g>
</g>
<g>
</g>
<g>
</g>
<g>
</g>
<g>
</g>
<g>
</g>
<g>
</g>
<g>
</g>
<g>
</g>
</svg>
