<?xml version="1.0" encoding="iso-8859-1"?>
<!-- Generator: Adobe Illustrator 19.0.0, SVG Export Plug-In . SVG Version: 6.00 Build 0)  -->
<svg version="1.1" id="Layer_1" xmlns="http://www.w3.org/2000/svg" xmlns:xlink="http://www.w3.org/1999/xlink" x="0px" y="0px"
	 viewBox="0 0 512 512" style="enable-background:new 0 0 512 512;" xml:space="preserve">
<g>
	<g>
		<g>
			<path d="M311.929,0.274c-32.628,0-77.871-6.18-104.647,40.114c-2.736,4.73,0.681,10.654,6.146,10.654h37.458
				c1.441,0,2.855-0.427,4.028-1.262c12.231-8.716,19.885-6.953,57.016-6.953c53.216,0,96.356,43.14,96.356,96.356v104.163
				c0,11.457,8.804,21.315,20.248,21.852c12.218,0.576,22.305-9.16,22.305-21.252V139.185
				C450.838,62.466,388.647,0.274,311.929,0.274z"/>
			<path d="M294.391,72.319h-58.837c-3.918,0-7.092,3.176-7.092,7.092v146.806c0,3.916,3.174,7.092,7.092,7.092h131.839
				c3.916,0,7.092-3.176,7.092-7.092v-73.805C374.484,108.178,338.625,72.319,294.391,72.319z"/>
			<path d="M68.255,233.31h131.838c3.916,0,7.092-3.176,7.092-7.092V79.411c0-3.916-3.176-7.092-7.092-7.092h-58.839
				c-44.233,0-80.093,35.859-80.093,80.092v73.806C61.163,230.134,64.337,233.31,68.255,233.31z"/>
			<path d="M367.392,254.586H68.255c-3.916,0-7.092,3.174-7.092,7.092v91.939c0,86.448,69.3,157.886,155.747,158.381
				c86.802,0.498,157.575-69.971,157.575-156.659v-93.661C374.484,257.762,371.309,254.586,367.392,254.586z"/>
		</g>
	</g>
</g>
<g>
</g>
<g>
</g>
<g>
</g>
<g>
</g>
<g>
</g>
<g>
</g>
<g>
</g>
<g>
</g>
<g>
</g>
<g>
</g>
<g>
</g>
<g>
</g>
<g>
</g>
<g>
</g>
<g>
</g>
</svg>
