<?xml version="1.0" encoding="iso-8859-1"?>
<!-- Generator: Adobe Illustrator 19.0.0, SVG Export Plug-In . SVG Version: 6.00 Build 0)  -->
<svg version="1.1" id="Layer_1" xmlns="http://www.w3.org/2000/svg" xmlns:xlink="http://www.w3.org/1999/xlink" x="0px" y="0px"
	 viewBox="0 0 512.001 512.001" style="enable-background:new 0 0 512.001 512.001;" xml:space="preserve">
<g>
	<g>
		<path d="M413.922,239.869c-8.031-8.032-21.053-8.032-29.085,0l-20.157,20.157c-8.702-10.573-18.836-20.036-30.214-28.046
			c0-5.353,0-178.95,0-190.846h20.564c11.358,0,20.567-9.208,20.567-20.567S366.389,0,355.03,0c-7.995,0-207.943,0-217.996,0
			c-11.358,0-20.567,9.208-20.567,20.567s9.208,20.567,20.567,20.567h20.564c0,11.893,0,185.491,0,190.846
			c-40.703,28.655-65.543,75.914-65.543,126.045c0,84.903,69.074,153.977,153.977,153.977S400.01,442.928,400.01,358.024
			c0-21.625-4.632-42.71-13.156-62.003l27.066-27.066C421.954,260.922,421.954,247.901,413.922,239.869z M197.076,385.33
			c-9.814,0-17.771-7.957-17.771-17.771s7.957-17.771,17.771-17.771s17.771,7.957,17.771,17.771S206.89,385.33,197.076,385.33z
			 M198.735,154.298V41.135h94.6v113.163H198.735z M285.7,394.622c-14.946,0-27.063-12.117-27.063-27.063
			s12.117-27.063,27.063-27.063s27.063,12.117,27.063,27.063S300.647,394.622,285.7,394.622z"/>
	</g>
</g>
<g>
</g>
<g>
</g>
<g>
</g>
<g>
</g>
<g>
</g>
<g>
</g>
<g>
</g>
<g>
</g>
<g>
</g>
<g>
</g>
<g>
</g>
<g>
</g>
<g>
</g>
<g>
</g>
<g>
</g>
</svg>
