<?xml version="1.0" encoding="iso-8859-1"?>
<!-- Generator: Adobe Illustrator 19.0.0, SVG Export Plug-In . SVG Version: 6.00 Build 0)  -->
<svg version="1.1" id="Layer_1" xmlns="http://www.w3.org/2000/svg" xmlns:xlink="http://www.w3.org/1999/xlink" x="0px" y="0px"
	 viewBox="0 0 512 512" style="enable-background:new 0 0 512 512;" xml:space="preserve">
<g>
	<g>
		<path d="M510.149,252.887l-36.913-106.932c-2.326-6.737-8.669-11.258-15.796-11.258h-26.131c-9.229,0-16.711,7.482-16.711,16.711
			s7.482,16.711,16.711,16.711h14.22l33.027,95.675h-7.07c-15.803-90.431-137.876-110.032-181.012-28.332
			c-20.345-15.609-48.563-15.639-68.947,0c-43.218-81.857-165.236-61.941-181.012,28.332h-7.071l33.026-95.675h14.22
			c9.229,0,16.711-7.482,16.711-16.711s-7.482-16.711-16.711-16.711H54.56c-7.128,0-13.47,4.521-15.797,11.258L1.851,252.887
			c-7.482,21.677,8.656,44.328,31.593,44.328h7.07c7.941,45.439,47.675,80.089,95.353,80.089c53.375,0,96.8-43.424,96.8-96.8v-0.001
			c0.001-30.834,46.664-30.835,46.666,0v0.001c0,53.375,43.424,96.8,96.8,96.8c47.678,0,87.411-34.649,95.353-80.089h7.07
			C501.486,297.215,517.633,274.569,510.149,252.887z M171.393,297.215c-9.229,0-16.711-7.482-16.711-16.711
			c0-10.374-8.44-18.815-18.814-18.815c-9.229,0-16.711-7.482-16.711-16.711s7.482-16.711,16.711-16.711
			c28.804,0,52.237,23.433,52.237,52.237C188.104,289.732,180.622,297.215,171.393,297.215z M411.659,297.215
			c-9.229,0-16.711-7.482-16.711-16.711c0-10.374-8.44-18.815-18.815-18.815c-9.229,0-16.711-7.482-16.711-16.711
			s7.482-16.711,16.711-16.711c28.803,0,52.237,23.433,52.237,52.237C428.37,289.732,420.888,297.215,411.659,297.215z"/>
	</g>
</g>
<g>
</g>
<g>
</g>
<g>
</g>
<g>
</g>
<g>
</g>
<g>
</g>
<g>
</g>
<g>
</g>
<g>
</g>
<g>
</g>
<g>
</g>
<g>
</g>
<g>
</g>
<g>
</g>
<g>
</g>
</svg>
