<?xml version="1.0" encoding="iso-8859-1"?>
<!-- Generator: Adobe Illustrator 19.0.0, SVG Export Plug-In . SVG Version: 6.00 Build 0)  -->
<svg version="1.1" id="Layer_1" xmlns="http://www.w3.org/2000/svg" xmlns:xlink="http://www.w3.org/1999/xlink" x="0px" y="0px"
	 viewBox="0 0 512 512" style="enable-background:new 0 0 512 512;" xml:space="preserve">
<g>
	<g>
		<g>
			<path d="M357.261,380.375c3.75,0,6.789-3.04,6.789-6.789v-42.092c0.001-5.253-5.756-8.55-10.232-5.803
				c-59.278,36.358-134.98,37.447-195.499,0.124c-4.531-2.794-10.369,0.39-10.369,5.713v42.058c0,3.749,3.04,6.789,6.789,6.789
				H357.261z"/>
			<path d="M357.262,400.741H154.739c-7.977,0-6.789,8.627-6.789,14.311c0,24.051,17.964,43.972,41.177,47.086
				c0.001,0.004,0.003,0.008,0.004,0.012H322.87c0.001-0.004,0.003-0.008,0.004-0.012c23.214-3.112,41.178-23.034,41.178-47.086
				C364.051,409.989,365.422,400.741,357.262,400.741z"/>
			<path d="M297.763,482.515h-83.526c-6.206,0-9.204,7.69-4.57,11.818c26.446,23.554,66.216,23.558,92.665,0
				C306.967,490.205,303.969,482.515,297.763,482.515z"/>
			<path d="M256.001,0C164.184,0,89.486,74.691,89.486,166.502c0,92.842,74.935,166.516,167.074,166.516
				c89.401-0.349,165.954-72.243,165.954-166.516C422.515,74.691,347.818,0,256.001,0z M320.353,146.217l-46.715,80.913
				c-7.836,13.571-27.452,13.548-35.274,0l-46.716-80.913c-13.457-23.305,21.804-43.701,35.274-20.366l29.078,50.363l29.078-50.363
				C298.53,102.546,333.829,122.88,320.353,146.217z"/>
		</g>
	</g>
</g>
<g>
</g>
<g>
</g>
<g>
</g>
<g>
</g>
<g>
</g>
<g>
</g>
<g>
</g>
<g>
</g>
<g>
</g>
<g>
</g>
<g>
</g>
<g>
</g>
<g>
</g>
<g>
</g>
<g>
</g>
</svg>
