<?xml version="1.0" encoding="iso-8859-1"?>
<!-- Generator: Adobe Illustrator 19.0.0, SVG Export Plug-In . SVG Version: 6.00 Build 0)  -->
<svg version="1.1" id="Layer_1" xmlns="http://www.w3.org/2000/svg" xmlns:xlink="http://www.w3.org/1999/xlink" x="0px" y="0px"
	 viewBox="0 0 512 512" style="enable-background:new 0 0 512 512;" xml:space="preserve">
<g>
	<g>
		<g>
			<path d="M493.945,41.522h-40.388c-2.151,0-4.133,1.171-5.17,3.056l-70.216,127.608c-11.123,20.214-42.476,3.758-30.781-17.494
				l57.46-104.426c2.164-3.932-0.681-8.744-5.17-8.744h-56.677c-6.455,0-12.396,3.513-15.508,9.168l-66.325,120.546
				c-2.242,4.075-8.096,4.075-10.338,0L184.503,50.69c-3.112-5.655-9.054-9.168-15.508-9.168h-56.677
				c-4.488,0-7.333,4.812-5.17,8.744l57.457,104.423c11.706,21.275-19.663,37.701-30.779,17.498L63.612,44.578
				c-1.037-1.886-3.017-3.056-5.17-3.056H18.055c-14.199,0-22.202,14.687-15.848,26.235l114.907,208.826
				c2.268,4.122,8.213,4.06,10.388-0.111c54.144-103.881,202.892-103.789,256.992,0.004c2.175,4.173,8.12,4.233,10.388,0.111
				l114.91-208.829C516.145,56.212,508.149,41.522,493.945,41.522z"/>
			<path d="M266.872,216.639c-7.113-0.63-14.631-0.63-21.665-0.007c-64.908,5.455-116.355,59.965-116.355,126.686
				c0,70.117,57.038,127.161,127.149,127.161S383.15,413.434,383.15,343.317C383.149,276.176,331.234,222.048,266.872,216.639z
				 M311.959,343.384l-17.485,17.043l4.128,24.066c2.039,11.89-10.483,20.773-20.991,15.25L256,388.38l-21.612,11.363
				c-10.591,5.567-23.014-3.449-20.991-15.25l4.128-24.066l-17.485-17.043c-8.568-8.352-3.83-22.954,8.017-24.676l24.164-3.511
				l10.806-21.896c5.296-10.73,20.647-10.736,25.946,0l10.807,21.896l24.164,3.511C315.784,320.43,320.532,335.027,311.959,343.384z
				"/>
		</g>
	</g>
</g>
<g>
</g>
<g>
</g>
<g>
</g>
<g>
</g>
<g>
</g>
<g>
</g>
<g>
</g>
<g>
</g>
<g>
</g>
<g>
</g>
<g>
</g>
<g>
</g>
<g>
</g>
<g>
</g>
<g>
</g>
</svg>
