<?xml version="1.0" encoding="iso-8859-1"?>
<!-- Generator: Adobe Illustrator 19.0.0, SVG Export Plug-In . SVG Version: 6.00 Build 0)  -->
<svg version="1.1" id="Layer_1" xmlns="http://www.w3.org/2000/svg" xmlns:xlink="http://www.w3.org/1999/xlink" x="0px" y="0px"
	 viewBox="0 0 512 512" style="enable-background:new 0 0 512 512;" xml:space="preserve">
<g>
	<g>
		<g>
			<path d="M493.359,346.869h-13.374V84.557c0-10.295-8.346-18.641-18.641-18.641H50.656c-10.295,0-18.641,8.346-18.641,18.641
				v262.312H18.641C8.346,346.869,0,355.215,0,365.51v61.933c0,10.295,8.346,18.641,18.641,18.641h474.719
				c10.295,0,18.641-8.346,18.641-18.641V365.51C512,355.214,503.654,346.869,493.359,346.869z M442.705,169.238
				c-9.508-2.74-19.722-2.654-29.277,0.377l-37.408-45.508c-1.181-1.435-2.942-2.268-4.799-2.268h-32.174
				c-5.249,0-8.134,6.104-4.801,10.159l50.361,61.267c-21.625,39.236,15.237,85.052,58.098,72.652v80.951H69.296v-243.67h373.408
				V169.238z"/>
			<path d="M192.621,307.052c12.002,0,23.031-4.229,31.689-11.266c8.658,7.038,19.687,11.266,31.689,11.266
				c55.208,0,69.838-76.571,18.641-97.066v-81.934c0-3.431-2.781-6.214-6.214-6.214h-24.854c-3.432,0-6.214,2.782-6.214,6.214
				v81.934c-4.747,1.9-9.14,4.496-13.049,7.672c-3.908-3.176-8.301-5.772-13.049-7.672v-81.934c0-3.431-2.781-6.214-6.214-6.214
				h-24.854c-3.432,0-6.214,2.782-6.214,6.214v81.934C122.679,230.522,137.491,307.052,192.621,307.052z"/>
		</g>
	</g>
</g>
<g>
</g>
<g>
</g>
<g>
</g>
<g>
</g>
<g>
</g>
<g>
</g>
<g>
</g>
<g>
</g>
<g>
</g>
<g>
</g>
<g>
</g>
<g>
</g>
<g>
</g>
<g>
</g>
<g>
</g>
</svg>
