<?xml version="1.0" encoding="iso-8859-1"?>
<!-- Generator: Adobe Illustrator 19.0.0, SVG Export Plug-In . SVG Version: 6.00 Build 0)  -->
<svg version="1.1" id="Layer_1" xmlns="http://www.w3.org/2000/svg" xmlns:xlink="http://www.w3.org/1999/xlink" x="0px" y="0px"
	 viewBox="0 0 512 512" style="enable-background:new 0 0 512 512;" xml:space="preserve">
<g>
	<g>
		<g>
			<path d="M207.019,313.475l-0.11,0.11c-38.807,38.807-14.888,114.52,9.31,153.138l22.363,35.65
				c8.053,12.837,26.793,12.834,34.845,0l22.363-35.65c6.466-5.748,57.641-105.18,9.155-153.295
				C277.96,286.612,234.051,286.611,207.019,313.475z"/>
			<path d="M256.006,0c-44.281,0-79.186,37.927-75.521,82.052l11.38,136.958c0.295,3.554,3.266,6.288,6.832,6.288h114.615
				c3.566,0,6.538-2.734,6.832-6.288l11.38-136.958c0.003-0.029,0.004-0.058,0.007-0.085C335.123,36.472,299.086,0,256.006,0z"/>
			<path d="M207.589,286.834c29.549-18.9,67.666-18.672,96.83-0.016c4.351,2.782,10.094-0.052,10.522-5.199l2.354-28.332
				c0.332-3.997-2.822-7.423-6.832-7.423H201.545c-4.011,0-7.164,3.427-6.832,7.423l2.356,28.347
				C197.498,286.779,203.24,289.616,207.589,286.834z"/>
		</g>
	</g>
</g>
<g>
</g>
<g>
</g>
<g>
</g>
<g>
</g>
<g>
</g>
<g>
</g>
<g>
</g>
<g>
</g>
<g>
</g>
<g>
</g>
<g>
</g>
<g>
</g>
<g>
</g>
<g>
</g>
<g>
</g>
</svg>
