<?xml version="1.0" encoding="iso-8859-1"?>
<!-- Generator: Adobe Illustrator 19.0.0, SVG Export Plug-In . SVG Version: 6.00 Build 0)  -->
<svg version="1.1" id="Layer_1" xmlns="http://www.w3.org/2000/svg" xmlns:xlink="http://www.w3.org/1999/xlink" x="0px" y="0px"
	 viewBox="0 0 511.999 511.999" style="enable-background:new 0 0 511.999 511.999;" xml:space="preserve">
<g>
	<g>
		<path d="M209.82,0h-54.683C83.606,0,46.181,57.012,46.181,113.332c0,56.31,37.425,113.313,108.954,113.313h16.632
			c16.186,0,29.355,13.168,29.355,29.355c0,16.187-13.168,29.355-29.355,29.355h-16.632c-71.531,0-108.954,57.014-108.954,113.332
			c0,56.31,37.425,113.313,108.954,113.313h54.683c141.159,0,255.999-114.841,255.999-256.001C465.819,114.841,350.979,0,209.82,0z
			 M171.278,119.664c0-33.452,27.215-60.667,60.667-60.667s60.667,27.214,60.667,60.667s-27.216,60.667-60.667,60.667
			S171.278,153.117,171.278,119.664z M231.945,453.002c-33.452,0-60.667-27.216-60.667-60.667c0-33.452,27.215-60.667,60.667-60.667
			s60.667,27.215,60.667,60.667C292.613,425.787,265.397,453.002,231.945,453.002z M325.806,328.996
			c-40.251,0-72.996-32.745-72.996-72.996c0-40.251,32.745-72.996,72.996-72.996c40.25,0,72.996,32.746,72.996,72.996
			C398.802,296.25,366.057,328.996,325.806,328.996z"/>
	</g>
</g>
<g>
</g>
<g>
</g>
<g>
</g>
<g>
</g>
<g>
</g>
<g>
</g>
<g>
</g>
<g>
</g>
<g>
</g>
<g>
</g>
<g>
</g>
<g>
</g>
<g>
</g>
<g>
</g>
<g>
</g>
</svg>
