<?xml version="1.0" encoding="iso-8859-1"?>
<!-- Generator: Adobe Illustrator 19.0.0, SVG Export Plug-In . SVG Version: 6.00 Build 0)  -->
<svg version="1.1" id="Layer_1" xmlns="http://www.w3.org/2000/svg" xmlns:xlink="http://www.w3.org/1999/xlink" x="0px" y="0px"
	 viewBox="0 0 512.002 512.002" style="enable-background:new 0 0 512.002 512.002;" xml:space="preserve">
<g>
	<g>
		<g>
			<path d="M317.143,444.752c-0.775-3.101-3.562-5.284-6.759-5.284H201.616c-3.197,0-5.985,2.182-6.759,5.283
				c-7.876,31.546-12.131,48.723-14.469,58.702c-1.024,4.372,2.294,8.547,6.784,8.547h137.654c4.489,0,7.807-4.174,6.784-8.544
				C329.291,493.545,325.046,476.404,317.143,444.752z"/>
			<path d="M189.856,352.876c-17.271-6.304-33.919-15.116-49.648-26.949c-2.971-2.236-7.162-1.776-9.547,1.077L37.381,438.586
				c-24.366,29.146-3.791,73.415,35.301,73.415h78.805c3.29,0,6.124-2.306,6.812-5.524c3.059-14.314,13.917-57.282,35.927-145.371
				C195.09,357.65,193.203,354.097,189.856,352.876z"/>
			<path d="M297.659,366.797c-0.887-3.55-4.37-5.81-7.973-5.168c-21.566,3.844-44.191,4.132-67.372,0
				c-3.603-0.642-7.085,1.619-7.973,5.168c-3.908,15.641-7.404,29.622-10.523,42.097l-0.256,1.023
				c-1.099,4.397,2.226,8.655,6.756,8.655h91.36c4.529,0,7.858-4.247,6.761-8.641c-0.116-0.467-0.234-0.933-0.351-1.404
				C304.995,396.148,301.529,382.288,297.659,366.797z"/>
			<path d="M474.622,438.586l-93.281-111.583c-2.385-2.852-6.575-3.311-9.547-1.077c-15.087,11.349-31.622,20.37-49.649,26.949
				c-3.348,1.222-5.234,4.774-4.37,8.232c21.979,87.96,32.931,131.32,35.928,145.396c0.684,3.21,3.527,5.497,6.808,5.497h78.809
				C478.459,512,498.966,467.703,474.622,438.586z"/>
			<path d="M101.086,110.267c2.691-0.501-5.292-0.35,115.908-0.35c11.54,0,20.896,9.356,20.896,20.896v20.626
				c0,1.994,1.616,3.608,3.608,3.608h29.004c1.992,0,3.608-1.616,3.608-3.608v-20.626c0-11.54,9.356-20.896,20.896-20.896
				c120.981,0,113.202-0.156,115.91,0.35c2.797,0.521,5.019-2.296,3.948-4.933C357.801-35.119,154.222-35.103,97.14,105.332
				C96.067,107.969,98.289,110.786,101.086,110.267z"/>
			<path d="M410.567,247.156c1.191-2.432-0.66-5.184-3.368-5.174c-0.025,0-0.05,0-0.077,0H295.007
				c-11.54,0-20.896-9.356-20.896-20.896v-20.637c0-1.993-1.616-3.608-3.608-3.608h-29.004c-1.992,0-3.608,1.615-3.608,3.608v20.637
				c0,11.54-9.356,20.896-20.896,20.896H104.879c-0.025,0-0.05,0-0.077,0c-2.708-0.01-4.56,2.742-3.368,5.174
				C164.328,375.641,347.639,375.717,410.567,247.156z"/>
			<path d="M400.157,221.085c3.846,0,6.965-3.119,6.965-6.965v-76.341c0-3.846-3.119-6.965-6.965-6.965h-98.184
				c-3.846,0-6.965,3.119-6.965,6.965v76.341c0,3.846,3.119,6.965,6.965,6.965H400.157z"/>
			<path d="M210.029,221.085c3.846,0,6.965-3.119,6.965-6.965v-76.341c0-3.846-3.119-6.965-6.965-6.965h-98.184
				c-3.846,0-6.965,3.119-6.965,6.965v76.341c0,3.846,3.119,6.965,6.965,6.965H210.029z"/>
		</g>
	</g>
</g>
<g>
</g>
<g>
</g>
<g>
</g>
<g>
</g>
<g>
</g>
<g>
</g>
<g>
</g>
<g>
</g>
<g>
</g>
<g>
</g>
<g>
</g>
<g>
</g>
<g>
</g>
<g>
</g>
<g>
</g>
</svg>
