<?xml version="1.0" encoding="iso-8859-1"?>
<!-- Generator: Adobe Illustrator 19.0.0, SVG Export Plug-In . SVG Version: 6.00 Build 0)  -->
<svg version="1.1" id="Layer_1" xmlns="http://www.w3.org/2000/svg" xmlns:xlink="http://www.w3.org/1999/xlink" x="0px" y="0px"
	 viewBox="0 0 512 512" style="enable-background:new 0 0 512 512;" xml:space="preserve">
<g>
	<g>
		<g>
			<path d="M469.333,0H42.667C30.869,0,21.333,9.557,21.333,21.333v128v341.333c0,11.776,9.536,21.333,21.333,21.333H128V277.333
				c0-11.776,9.536-21.333,21.333-21.333h213.333c11.797,0,21.333,9.557,21.333,21.333V512h85.333
				c11.797,0,21.333-9.557,21.333-21.333V149.333v-128C490.667,9.557,481.131,0,469.333,0z M448,149.333
				c0,11.755-9.557,21.333-21.333,21.333s-21.333-9.579-21.333-21.333v-42.667c0-11.776-9.536-21.333-21.333-21.333
				c-11.797,0-21.333,9.557-21.333,21.333v42.667c0,11.755-9.557,21.333-21.333,21.333S320,161.088,320,149.333v-42.667
				c0-11.776-9.536-21.333-21.333-21.333c-11.797,0-21.333,9.557-21.333,21.333v42.667c0,11.755-9.557,21.333-21.333,21.333
				s-21.333-9.579-21.333-21.333v-42.667c0-11.776-9.536-21.333-21.333-21.333c-11.797,0-21.333,9.557-21.333,21.333v42.667
				c0,11.755-9.557,21.333-21.333,21.333s-21.333-9.579-21.333-21.333v-42.667c0-11.776-9.536-21.333-21.333-21.333
				c-11.797,0-21.333,9.557-21.333,21.333v42.667c0,11.755-9.557,21.333-21.333,21.333S64,161.088,64,149.333V42.667h384V149.333z"
				/>
			<rect x="277.34" y="298.667" width="64" height="213.333"/>
			<rect x="170.673" y="298.667" width="64" height="213.333"/>
		</g>
	</g>
</g>
<g>
</g>
<g>
</g>
<g>
</g>
<g>
</g>
<g>
</g>
<g>
</g>
<g>
</g>
<g>
</g>
<g>
</g>
<g>
</g>
<g>
</g>
<g>
</g>
<g>
</g>
<g>
</g>
<g>
</g>
</svg>
