<?xml version="1.0" encoding="iso-8859-1"?>
<!-- Generator: Adobe Illustrator 19.0.0, SVG Export Plug-In . SVG Version: 6.00 Build 0)  -->
<svg version="1.1" id="Layer_1" xmlns="http://www.w3.org/2000/svg" xmlns:xlink="http://www.w3.org/1999/xlink" x="0px" y="0px"
	 viewBox="0 0 511.998 511.998" style="enable-background:new 0 0 511.998 511.998;" xml:space="preserve">
<g>
	<g>
		<path d="M405.335,383.996h-63.999v-63.999c0-11.776-9.557-21.333-21.333-21.333h-42.666V92.375l116.051-21.76l-50.708,135.229
			c-2.453,6.549-1.536,13.888,2.432,19.648c4.011,5.739,10.56,9.173,17.557,9.173h127.997c6.997,0,13.525-3.435,17.536-9.173
			c3.968-5.76,4.885-13.099,2.432-19.648L446.635,35.182c-0.384-1.045-1.045-1.899-1.6-2.837c-0.363-0.683-0.661-1.387-1.131-2.005
			c-1.387-1.963-3.029-3.712-4.971-5.099c-0.299-0.192-0.64-0.32-0.939-0.512c-1.813-1.152-3.797-2.005-5.931-2.56
			c-0.789-0.213-1.621-0.256-2.453-0.384c-0.981-0.128-1.941-0.448-2.944-0.448c-0.875,0-1.664,0.277-2.496,0.384
			c-0.491,0.064-0.96-0.107-1.451-0.021L277.338,48.963V21.337c0-11.776-9.557-21.333-21.333-21.333
			c-11.797,0-21.333,9.557-21.333,21.333v35.626L81.396,85.699c-0.363,0.064-0.619,0.32-0.96,0.384
			c-2.133,0.512-4.139,1.323-5.995,2.432c-0.341,0.213-0.725,0.299-1.045,0.512c-2.048,1.387-3.776,3.157-5.248,5.163
			c-0.427,0.597-0.683,1.28-1.067,1.92c-0.576,1.003-1.301,1.941-1.728,3.072L1.355,269.845c-2.453,6.549-1.536,13.888,2.432,19.648
			c4.011,5.739,10.56,9.173,17.557,9.173h127.997c6.997,0,13.525-3.435,17.536-9.173c3.968-5.76,4.885-13.099,2.432-19.648
			l-55.082-146.877l120.445-22.591v198.289h-42.666c-11.797,0-21.333,9.557-21.333,21.333v63.999h-63.999
			c-58.815,0-106.665,47.85-106.665,106.665c0,11.776,9.536,21.333,21.333,21.333h469.323c11.776,0,21.333-9.557,21.333-21.333
			C512,431.845,464.129,383.996,405.335,383.996z M298.672,383.996H213.34V341.33h85.331V383.996z"/>
	</g>
</g>
<g>
</g>
<g>
</g>
<g>
</g>
<g>
</g>
<g>
</g>
<g>
</g>
<g>
</g>
<g>
</g>
<g>
</g>
<g>
</g>
<g>
</g>
<g>
</g>
<g>
</g>
<g>
</g>
<g>
</g>
</svg>
