<?xml version="1.0" encoding="iso-8859-1"?>
<!-- Generator: Adobe Illustrator 19.0.0, SVG Export Plug-In . SVG Version: 6.00 Build 0)  -->
<svg version="1.1" id="Layer_1" xmlns="http://www.w3.org/2000/svg" xmlns:xlink="http://www.w3.org/1999/xlink" x="0px" y="0px"
	 viewBox="0 0 512 512" style="enable-background:new 0 0 512 512;" xml:space="preserve">
<g>
	<g>
		<path d="M21.333,0C9.536,0,0,9.557,0,21.333v469.333C0,502.443,9.536,512,21.333,512h128V0H21.333z M64,106.667h21.333V256H64
			V106.667z M74.667,405.333c-17.664,0-32-14.336-32-32c0-17.664,14.336-32,32-32c17.664,0,32,14.336,32,32
			C106.667,390.997,92.33,405.333,74.667,405.333z"/>
	</g>
</g>
<g>
	<g>
		<path d="M490.667,0h-128v512h128c11.797,0,21.333-9.557,21.333-21.333V21.333C512,9.557,502.464,0,490.667,0z M426.667,106.667
			H448V256h-21.333V106.667z M437.333,405.333c-17.664,0-32-14.336-32-32c0-17.664,14.336-32,32-32c17.664,0,32,14.336,32,32
			C469.333,390.997,454.997,405.333,437.333,405.333z"/>
	</g>
</g>
<g>
	<g>
		<path d="M192,0v512h128V0H192z M234.667,106.667h42.667V256h-42.667V106.667z M256,405.333c-17.664,0-32-14.336-32-32
			c0-17.664,14.336-32,32-32s32,14.336,32,32C288,390.997,273.664,405.333,256,405.333z"/>
	</g>
</g>
<g>
</g>
<g>
</g>
<g>
</g>
<g>
</g>
<g>
</g>
<g>
</g>
<g>
</g>
<g>
</g>
<g>
</g>
<g>
</g>
<g>
</g>
<g>
</g>
<g>
</g>
<g>
</g>
<g>
</g>
</svg>
