<?xml version="1.0" encoding="iso-8859-1"?>
<!-- Generator: Adobe Illustrator 19.0.0, SVG Export Plug-In . SVG Version: 6.00 Build 0)  -->
<svg version="1.1" id="Layer_1" xmlns="http://www.w3.org/2000/svg" xmlns:xlink="http://www.w3.org/1999/xlink" x="0px" y="0px"
	 viewBox="0 0 491.52 491.52" style="enable-background:new 0 0 491.52 491.52;" xml:space="preserve">
<g>
	<g>
		<path d="M491.377,19.558c-0.041-1.044-0.246-2.028-0.451-3.052c-0.205-1.004-0.389-1.987-0.737-2.929
			c-0.102-0.307-0.102-0.635-0.225-0.942c-0.266-0.614-0.696-1.085-1.004-1.659c-0.492-0.922-0.963-1.823-1.597-2.662
			c-0.594-0.799-1.27-1.475-1.966-2.191c-0.696-0.696-1.393-1.372-2.191-1.966c-0.84-0.614-1.741-1.106-2.662-1.597
			c-0.573-0.307-1.044-0.737-1.659-1.003c-0.307-0.123-0.635-0.123-0.942-0.225c-0.942-0.348-1.925-0.533-2.929-0.737
			c-1.024-0.205-2.007-0.41-3.052-0.451C471.654,0.123,471.368,0,471.04,0H20.48c-0.328,0-0.635,0.123-0.963,0.143
			c-1.003,0.041-1.966,0.246-2.949,0.451c-1.024,0.184-2.028,0.389-3.011,0.737c-0.287,0.102-0.614,0.102-0.922,0.225
			c-0.614,0.266-1.085,0.696-1.659,1.003c-0.922,0.492-1.823,0.983-2.662,1.597C7.516,4.751,6.82,5.427,6.123,6.124
			C5.427,6.84,4.751,7.516,4.157,8.315c-0.635,0.84-1.106,1.741-1.597,2.662c-0.307,0.573-0.758,1.044-1.004,1.659
			c-0.123,0.307-0.123,0.635-0.225,0.942c-0.348,0.942-0.532,1.925-0.737,2.929c-0.205,1.024-0.41,2.007-0.451,3.031
			C0.123,19.866,0,20.152,0,20.48v450.56c0,0.328,0.123,0.614,0.143,0.942c0.041,1.024,0.246,2.007,0.451,3.031
			c0.205,1.004,0.389,1.987,0.737,2.929c0.102,0.307,0.102,0.635,0.225,0.942c0.246,0.614,0.696,1.085,1.004,1.659
			c0.492,0.922,0.963,1.823,1.597,2.662c0.594,0.799,1.27,1.475,1.966,2.191c0.696,0.696,1.393,1.372,2.191,1.966
			c0.84,0.614,1.741,1.106,2.662,1.597c0.573,0.307,1.044,0.737,1.659,1.003c0.246,0.102,0.512,0.061,0.758,0.143
			c2.253,0.84,4.608,1.413,7.086,1.413h450.56c2.478,0,4.833-0.573,7.086-1.413c0.246-0.082,0.512-0.041,0.758-0.143
			c0.614-0.266,1.085-0.696,1.659-1.003c0.922-0.492,1.823-0.983,2.662-1.597c0.799-0.594,1.495-1.27,2.191-1.966
			c0.696-0.717,1.372-1.393,1.966-2.191c0.635-0.84,1.106-1.741,1.597-2.662c0.307-0.573,0.737-1.044,1.004-1.659
			c0.123-0.307,0.123-0.635,0.225-0.942c0.348-0.942,0.532-1.925,0.737-2.929c0.205-1.024,0.41-2.007,0.451-3.052
			c0.021-0.307,0.143-0.594,0.143-0.922V20.48C491.52,20.152,491.397,19.866,491.377,19.558z M421.601,40.96l-40.96,40.96H110.879
			l-40.96-40.96H421.601z M122.88,358.707v-50.34l245.76-175.555v50.34L122.88,358.707z M368.64,255.283v49.234l-96.195,64.123
			h-73.851L368.64,255.283z M122.88,255.795v-51.917l104.141-80.998h66.744L122.88,255.795z M40.96,69.919l40.96,40.96v269.763
			l-40.96,40.96V69.919z M69.919,450.56l40.96-40.96h269.763l40.96,40.96H69.919z M450.56,421.601l-40.96-40.96V110.879l40.96-40.96
			V421.601z"/>
	</g>
</g>
<g>
</g>
<g>
</g>
<g>
</g>
<g>
</g>
<g>
</g>
<g>
</g>
<g>
</g>
<g>
</g>
<g>
</g>
<g>
</g>
<g>
</g>
<g>
</g>
<g>
</g>
<g>
</g>
<g>
</g>
</svg>
