<?xml version="1.0" encoding="iso-8859-1"?>
<!-- Generator: Adobe Illustrator 19.0.0, SVG Export Plug-In . SVG Version: 6.00 Build 0)  -->
<svg version="1.1" id="Layer_1" xmlns="http://www.w3.org/2000/svg" xmlns:xlink="http://www.w3.org/1999/xlink" x="0px" y="0px"
	 viewBox="0 0 491.52 491.52" style="enable-background:new 0 0 491.52 491.52;" xml:space="preserve">
<g>
	<g>
		<path d="M471.04,81.92H409.6V20.48C409.6,9.175,400.445,0,389.12,0H307.2c-11.325,0-20.48,9.175-20.48,20.48v61.44H20.48
			C9.155,81.92,0,91.095,0,102.4v286.72c0,11.305,9.155,20.48,20.48,20.48h266.24v20.48c0,5.427,2.15,10.65,6.001,14.479
			l40.96,40.96c3.994,3.994,9.236,6.001,14.479,6.001s10.486-2.007,14.479-6.001l40.96-40.96c3.85-3.83,6.001-9.052,6.001-14.479
			V409.6h61.44c11.325,0,20.48-9.175,20.48-20.48V102.4C491.52,91.095,482.365,81.92,471.04,81.92z M163.84,225.28
			c33.874,0,61.44,27.566,61.44,61.44s-27.566,61.44-61.44,61.44h-40.96c-11.325,0-20.48-9.175-20.48-20.48
			c0-11.305,9.155-20.48,20.48-20.48h40.96c11.305,0,20.48-9.195,20.48-20.48s-9.175-20.48-20.48-20.48
			c-33.874,0-61.44-27.566-61.44-61.44c0-33.874,27.566-61.44,61.44-61.44h40.96c11.325,0,20.48,9.175,20.48,20.48
			c0,11.305-9.155,20.48-20.48,20.48h-40.96c-11.305,0-20.48,9.196-20.48,20.48S152.535,225.28,163.84,225.28z M368.64,102.4v286.72
			v32.481l-20.48,20.48l-20.48-20.48V389.12V102.4V40.96h40.96V102.4z"/>
	</g>
</g>
<g>
</g>
<g>
</g>
<g>
</g>
<g>
</g>
<g>
</g>
<g>
</g>
<g>
</g>
<g>
</g>
<g>
</g>
<g>
</g>
<g>
</g>
<g>
</g>
<g>
</g>
<g>
</g>
<g>
</g>
</svg>
