<?xml version="1.0" encoding="iso-8859-1"?>
<!-- Generator: Adobe Illustrator 19.0.0, SVG Export Plug-In . SVG Version: 6.00 Build 0)  -->
<svg version="1.1" id="Layer_1" xmlns="http://www.w3.org/2000/svg" xmlns:xlink="http://www.w3.org/1999/xlink" x="0px" y="0px"
	 viewBox="0 0 491.52 491.52" style="enable-background:new 0 0 491.52 491.52;" xml:space="preserve">
<g>
	<g>
		<path d="M245.76,61.44C105.656,61.44,0,114.278,0,184.32V307.2c0,70.042,105.656,122.88,245.76,122.88
			s245.76-52.838,245.76-122.88V184.32C491.52,114.278,385.864,61.44,245.76,61.44z M61.44,340.48
			c-13.066-10.732-20.48-22.18-20.48-33.28v-53.105c0.164,0.123,0.369,0.225,0.512,0.328c4.813,3.584,10.035,6.984,15.565,10.26
			c1.434,0.84,2.929,1.659,4.403,2.478V340.48z M143.36,377.119c-15.032-3.768-28.754-8.253-40.96-13.292v-78.438
			c0.451,0.164,0.963,0.287,1.413,0.43c7.352,2.519,14.95,4.895,22.917,7.004c0.184,0.041,0.369,0.082,0.553,0.123
			c5.202,1.372,10.629,2.581,16.077,3.768V377.119z M225.28,388.649c-14.213-0.614-27.894-1.864-40.96-3.666v-81.388
			c1.126,0.143,2.335,0.184,3.461,0.307c6.451,0.737,13.005,1.311,19.661,1.782c2.949,0.225,5.857,0.492,8.868,0.655
			c2.97,0.143,5.96,0.266,8.97,0.369V388.649z M307.2,384.983c-13.066,1.802-26.747,3.052-40.96,3.666v-81.94
			c3.011-0.102,6.001-0.225,8.97-0.369c3.011-0.164,5.919-0.43,8.868-0.655c6.656-0.471,13.21-1.044,19.661-1.782
			c1.126-0.123,2.335-0.164,3.461-0.307V384.983z M389.12,363.827c-12.206,5.038-25.928,9.523-40.96,13.292v-80.404
			c5.448-1.188,10.875-2.396,16.077-3.768c0.184-0.041,0.369-0.082,0.553-0.123c7.967-2.109,15.565-4.485,22.917-7.004
			c0.451-0.143,0.963-0.266,1.413-0.43V363.827z M450.56,307.2c0,11.1-7.414,22.548-20.48,33.28v-73.318
			c1.475-0.819,2.97-1.638,4.403-2.478c5.53-3.277,10.752-6.677,15.565-10.26c0.143-0.102,0.348-0.205,0.512-0.328V307.2z"/>
	</g>
</g>
<g>
</g>
<g>
</g>
<g>
</g>
<g>
</g>
<g>
</g>
<g>
</g>
<g>
</g>
<g>
</g>
<g>
</g>
<g>
</g>
<g>
</g>
<g>
</g>
<g>
</g>
<g>
</g>
<g>
</g>
</svg>
