<?xml version="1.0" encoding="iso-8859-1"?>
<!-- Generator: Adobe Illustrator 19.0.0, SVG Export Plug-In . SVG Version: 6.00 Build 0)  -->
<svg version="1.1" id="Layer_1" xmlns="http://www.w3.org/2000/svg" xmlns:xlink="http://www.w3.org/1999/xlink" x="0px" y="0px"
	 viewBox="0 0 494.876 494.876" style="enable-background:new 0 0 494.876 494.876;" xml:space="preserve">
<g>
	<g>
		<path d="M445.988,117.576L381.433,53c-38.272-38.293-91.52-56.661-149.995-51.84C174.329,5.896,118.948,32.434,75.492,75.89
			C32.036,119.346,5.497,174.728,0.761,231.837c-4.843,58.453,13.547,111.701,51.84,149.995c0.043,0.043,0.085,0.085,0.128,0.128
			l64.981,64.917c36.928,31.979,84.48,47.595,133.397,47.595c61.035,0,124.203-24.341,171.413-71.552
			C508.793,336.648,519.545,196.786,445.988,117.576z M248.91,85.746h0.469c20.139,0,48.917,4.779,71.723,27.584
			c7.275,7.317,13.248,15.829,17.707,25.301c5.035,10.645,0.448,23.36-10.219,28.373c-2.923,1.387-6.016,2.048-9.067,2.048
			c-8,0-15.68-4.523-19.307-12.267c-2.368-4.992-5.504-9.472-9.301-13.291c-12.459-12.48-29.461-15.083-41.536-15.083
			c-11.776,0-21.568-9.557-21.568-21.333S237.134,85.746,248.91,85.746z M337.572,239.645
			c-8.725,21.504-22.336,41.877-39.381,58.923c-6.251,6.251-12.971,12.096-19.968,17.365c-3.84,2.88-8.341,4.288-12.8,4.288
			c-6.485,0-12.885-2.944-17.067-8.512c-7.104-9.429-5.205-22.805,4.224-29.888c5.419-4.053,10.603-8.576,15.445-13.419
			c13.035-13.035,23.403-28.523,29.995-44.8c4.437-10.901,16.853-16.171,27.797-11.733
			C336.74,216.285,341.988,228.722,337.572,239.645z M96.654,194.674c8.725-21.333,22.272-41.536,39.189-58.432
			c6.4-6.421,13.291-12.373,20.437-17.707c9.429-7.04,22.805-5.056,29.845,4.373c7.04,9.429,5.099,22.805-4.352,29.845
			c-5.504,4.096-10.816,8.704-15.765,13.653c-12.949,12.949-23.275,28.288-29.867,44.416c-3.371,8.256-11.349,13.269-19.755,13.269
			c-2.688,0-5.419-0.512-8.064-1.579C97.422,218.056,92.196,205.597,96.654,194.674z M112.932,321.48
			c-7.424-7.403-13.483-16.107-17.984-25.856c-4.949-10.688-0.299-23.36,10.389-28.309c10.688-4.907,23.381-0.277,28.331,10.389
			c2.389,5.163,5.547,9.728,9.429,13.611c12.48,12.48,29.483,15.104,41.536,15.104c11.776,0,21.824,9.536,21.824,21.333
			c0,11.776-9.088,21.333-20.864,21.333h-0.96C164.516,349.085,135.737,344.285,112.932,321.48z M392.356,392.754
			c-60.629,60.629-152.448,75.883-218.325,41.429c1.109,0.043,2.283-0.107,3.392-0.064c2.304,0.085,4.587,0.32,6.912,0.32
			c6.016,0,12.096-0.277,18.24-0.789c57.109-4.736,112.491-31.275,155.947-74.731c43.456-43.456,69.995-98.837,74.731-155.947
			c0.768-9.003,0.768-17.835,0.427-26.56c-0.043-1.024,0.107-2.112,0.043-3.157C468.388,237.64,452.622,332.488,392.356,392.754z"/>
	</g>
</g>
<g>
</g>
<g>
</g>
<g>
</g>
<g>
</g>
<g>
</g>
<g>
</g>
<g>
</g>
<g>
</g>
<g>
</g>
<g>
</g>
<g>
</g>
<g>
</g>
<g>
</g>
<g>
</g>
<g>
</g>
</svg>
