<?xml version="1.0" encoding="iso-8859-1"?>
<!-- Generator: Adobe Illustrator 19.0.0, SVG Export Plug-In . SVG Version: 6.00 Build 0)  -->
<svg version="1.1" id="Layer_1" xmlns="http://www.w3.org/2000/svg" xmlns:xlink="http://www.w3.org/1999/xlink" x="0px" y="0px"
	 viewBox="0 0 512.005 512.005" style="enable-background:new 0 0 512.005 512.005;" xml:space="preserve">
<g>
	<g>
		<g>
			<path d="M341.333,21.336c0-11.797-9.536-21.333-21.333-21.333H21.333C9.536,0.003,0,9.539,0,21.336v85.333
				c0,11.797,9.536,21.333,21.333,21.333h21.333v333.333c0,27.947,22.72,50.667,50.667,50.667H248
				c27.947,0,50.667-22.72,50.667-50.667V128.003H320c11.797,0,21.333-9.536,21.333-21.333V21.336z M298.667,85.336h-21.333H64
				H42.667V42.669h256V85.336z"/>
			<path d="M505.749,368.92c-8.341-8.341-21.824-8.341-30.165,0L448,396.504V149.336c0-11.797-9.536-21.333-21.333-21.333
				c-11.797,0-21.333,9.536-21.333,21.333v247.168l-27.584-27.584c-8.341-8.341-21.824-8.341-30.165,0
				c-8.341,8.341-8.341,21.824,0,30.165l63.979,63.979c1.963,1.984,4.331,3.541,6.955,4.629c2.603,1.088,5.376,1.643,8.149,1.643
				s5.547-0.555,8.149-1.643c2.624-1.088,4.992-2.645,6.955-4.629l63.979-63.979C514.091,390.744,514.091,377.261,505.749,368.92z"
				/>
		</g>
	</g>
</g>
<g>
</g>
<g>
</g>
<g>
</g>
<g>
</g>
<g>
</g>
<g>
</g>
<g>
</g>
<g>
</g>
<g>
</g>
<g>
</g>
<g>
</g>
<g>
</g>
<g>
</g>
<g>
</g>
<g>
</g>
</svg>
