<?xml version="1.0" encoding="iso-8859-1"?>
<!-- Generator: Adobe Illustrator 19.0.0, SVG Export Plug-In . SVG Version: 6.00 Build 0)  -->
<svg version="1.1" id="Layer_1" xmlns="http://www.w3.org/2000/svg" xmlns:xlink="http://www.w3.org/1999/xlink" x="0px" y="0px"
	 viewBox="0 0 512 512" style="enable-background:new 0 0 512 512;" xml:space="preserve">
<g>
	<g>
		<path d="M490.667,42.667H21.333C9.536,42.667,0,52.224,0,64v384c0,11.776,9.536,21.333,21.333,21.333h469.333
			c11.797,0,21.333-9.557,21.333-21.333V64C512,52.224,502.464,42.667,490.667,42.667z M170.667,384H85.333v-85.333h85.333V384z
			 M192,192h-64c-11.797,0-21.333-9.557-21.333-21.333s9.536-21.333,21.333-21.333h64c11.798,0,21.333,9.557,21.333,21.333
			C213.333,182.443,203.797,192,192,192z M298.667,384h-85.333v-85.333h85.333V384z M426.667,384h-85.333v-85.333h85.333V384z
			 M384,213.333c-12.821,0-24.171-5.76-32-14.72c-7.829,8.96-19.179,14.72-32,14.72c-23.573,0-42.667-19.094-42.667-42.667
			S296.427,128,320,128c12.821,0,24.171,5.76,32,14.72c7.829-8.96,19.178-14.72,32-14.72c23.573,0,42.667,19.094,42.667,42.667
			S407.573,213.333,384,213.333z"/>
	</g>
</g>
<g>
</g>
<g>
</g>
<g>
</g>
<g>
</g>
<g>
</g>
<g>
</g>
<g>
</g>
<g>
</g>
<g>
</g>
<g>
</g>
<g>
</g>
<g>
</g>
<g>
</g>
<g>
</g>
<g>
</g>
</svg>
