<?xml version="1.0" encoding="iso-8859-1"?>
<!-- Generator: Adobe Illustrator 19.0.0, SVG Export Plug-In . SVG Version: 6.00 Build 0)  -->
<svg version="1.1" id="Layer_1" xmlns="http://www.w3.org/2000/svg" xmlns:xlink="http://www.w3.org/1999/xlink" x="0px" y="0px"
	 viewBox="0 0 512 512" style="enable-background:new 0 0 512 512;" xml:space="preserve">
<g>
	<g>
		<g>
			<path d="M399.04,265.899L344.939,320h-28.587c2.347-6.677,3.648-13.845,3.648-21.333c0-35.285-28.715-64-64-64H152.789
				L128,226.411V192c0-11.776-9.536-21.333-21.333-21.333H21.333C9.536,170.667,0,180.224,0,192v298.667
				C0,502.443,9.536,512,21.333,512h85.333c11.797,0,21.333-9.557,21.333-21.333v-21.333h127.061
				c60.501,0,119.467-17.173,170.517-49.664c1.323-0.832,2.517-1.813,3.627-2.901l60.331-60.352
				c24.939-24.96,24.939-65.557,0-90.517C465.451,241.792,423.125,241.792,399.04,265.899z M85.333,241.771V448v21.333H42.667v-256
				h42.667V241.771z"/>
			<path d="M256,192c35.285,0,64-28.715,64-64s-28.715-64-64-64s-64,28.715-64,64S220.715,192,256,192z"/>
			<path d="M448,128c35.285,0,64-28.715,64-64S483.285,0,448,0c-35.285,0-64,28.715-64,64S412.715,128,448,128z"/>
		</g>
	</g>
</g>
<g>
</g>
<g>
</g>
<g>
</g>
<g>
</g>
<g>
</g>
<g>
</g>
<g>
</g>
<g>
</g>
<g>
</g>
<g>
</g>
<g>
</g>
<g>
</g>
<g>
</g>
<g>
</g>
<g>
</g>
</svg>
