<?xml version="1.0" encoding="iso-8859-1"?>
<!-- Generator: Adobe Illustrator 19.0.0, SVG Export Plug-In . SVG Version: 6.00 Build 0)  -->
<svg version="1.1" id="Layer_1" xmlns="http://www.w3.org/2000/svg" xmlns:xlink="http://www.w3.org/1999/xlink" x="0px" y="0px"
	 viewBox="0 0 491.52 491.52" style="enable-background:new 0 0 491.52 491.52;" xml:space="preserve">
<g>
	<g>
		<g>
			<path d="M81.92,0v20.48v72.069l59.658,47.739c11.08-10.732,26.112-17.408,42.742-17.408c33.935,0,61.44,27.505,61.44,61.44
				c0,12.698-3.85,24.494-10.465,34.284l41.452,35.533c9.011-5.181,19.313-8.376,30.454-8.376c7.803,0,15.196,1.597,22.057,4.26
				l61.686-71.967c-1.106-4.588-1.823-9.298-1.823-14.213c0-33.935,27.505-61.44,61.44-61.44c15.811,0,30.065,6.144,40.96,15.954V0
				H81.92z"/>
			<path d="M414.556,213.422l-54.292,63.324c5.181,9.011,8.376,19.313,8.376,30.454c0,33.935-27.505,61.44-61.44,61.44
				c-33.935,0-61.44-27.505-61.44-61.44c0-7.803,1.597-15.196,4.26-22.057l-48.988-41.984c-5.345,1.536-10.875,2.601-16.712,2.601
				c-33.935,0-61.44-27.505-61.44-61.44c0-2.068,0.41-4.035,0.614-6.042l-41.574-33.26V409.6h389.12h20.48V209.326
				c-10.895,9.81-25.149,15.954-40.96,15.954C437.064,225.28,424.694,220.795,414.556,213.422z"/>
			<polygon points="0,450.56 0,491.52 40.96,491.52 40.96,471.04 40.96,450.56 20.48,450.56 			"/>
			<polygon points="0,409.6 20.48,409.6 40.96,409.6 40.96,20.48 40.96,0 0,0 			"/>
			<polygon points="81.92,450.56 81.92,471.04 81.92,491.52 491.52,491.52 491.52,450.56 471.04,450.56 			"/>
		</g>
	</g>
</g>
<g>
</g>
<g>
</g>
<g>
</g>
<g>
</g>
<g>
</g>
<g>
</g>
<g>
</g>
<g>
</g>
<g>
</g>
<g>
</g>
<g>
</g>
<g>
</g>
<g>
</g>
<g>
</g>
<g>
</g>
</svg>
