<?xml version="1.0" encoding="iso-8859-1"?>
<!-- Generator: Adobe Illustrator 19.0.0, SVG Export Plug-In . SVG Version: 6.00 Build 0)  -->
<svg version="1.1" id="Layer_1" xmlns="http://www.w3.org/2000/svg" xmlns:xlink="http://www.w3.org/1999/xlink" x="0px" y="0px"
	 viewBox="0 0 491.522 491.522" style="enable-background:new 0 0 491.522 491.522;" xml:space="preserve">
<g>
	<g>
		<g>
			<polygon points="40.961,327.682 40.961,0.002 0.001,0.002 0.001,409.602 40.961,409.602 			"/>
			<path d="M450.561,214.772l-64.553,103.281c-3.932,6.287-10.547,9.789-18.35,9.605c-7.393-0.348-14.008-4.669-17.347-11.305
				l-43.11-86.241l-43.11,86.241c-2.949,5.898-8.54,10.015-15.053,11.059c-6.533,1.024-13.107-1.085-17.756-5.734l-67.441-67.441
				l-81.92,81.92v73.441h368.64V214.772z"/>
			<path d="M81.921,0v278.241l67.441-67.441c8.008-8.008,20.951-8.008,28.959,0l61.829,61.829l48.722-97.464
				c6.963-13.885,29.696-13.885,36.659,0l45.097,90.214l83.046-132.874c4.833-7.741,14.316-11.305,22.999-8.827
				c8.786,2.519,14.848,10.547,14.848,19.681V0H81.921z"/>
			<polygon points="81.921,450.562 81.921,491.522 491.521,491.522 491.521,450.562 471.041,450.562 			"/>
			<rect x="0.007" y="450.562" width="40.96" height="40.96"/>
		</g>
	</g>
</g>
<g>
</g>
<g>
</g>
<g>
</g>
<g>
</g>
<g>
</g>
<g>
</g>
<g>
</g>
<g>
</g>
<g>
</g>
<g>
</g>
<g>
</g>
<g>
</g>
<g>
</g>
<g>
</g>
<g>
</g>
</svg>
