<?xml version="1.0" encoding="iso-8859-1"?>
<!-- Generator: Adobe Illustrator 19.0.0, SVG Export Plug-In . SVG Version: 6.00 Build 0)  -->
<svg version="1.1" id="Layer_1" xmlns="http://www.w3.org/2000/svg" xmlns:xlink="http://www.w3.org/1999/xlink" x="0px" y="0px"
	 viewBox="0 0 491.52 491.52" style="enable-background:new 0 0 491.52 491.52;" xml:space="preserve">
<g>
	<g>
		<path d="M471.04,20.48H327.68V307.2h-40.96V20.48H204.8V307.2h-40.96V20.48H20.48C9.155,20.48,0,29.655,0,40.96v286.72
			c0,11.305,9.155,20.48,20.48,20.48h20.48v40.96c0,11.305,9.155,20.48,20.48,20.48h20.48v40.96c0,11.305,9.155,20.48,20.48,20.48
			h286.72c11.325,0,20.48-9.175,20.48-20.48V409.6h20.48c11.325,0,20.48-9.175,20.48-20.48v-40.96h20.48
			c11.325,0,20.48-9.175,20.48-20.48V40.96C491.52,29.655,482.365,20.48,471.04,20.48z M102.4,81.92
			c11.305,0,20.48,9.175,20.48,20.48c0,11.305-9.175,20.48-20.48,20.48c-11.305,0-20.48-9.175-20.48-20.48
			C81.92,91.095,91.095,81.92,102.4,81.92z M102.4,245.76c11.305,0,20.48,9.175,20.48,20.48c0,11.305-9.175,20.48-20.48,20.48
			c-11.305,0-20.48-9.175-20.48-20.48C81.92,254.935,91.095,245.76,102.4,245.76z M409.6,368.64h-20.48H102.4H81.92v-20.48h81.92
			h163.84h81.92V368.64z M389.12,286.72c-11.305,0-20.48-9.175-20.48-20.48c0-11.305,9.175-20.48,20.48-20.48
			c11.305,0,20.48,9.175,20.48,20.48C409.6,277.545,400.425,286.72,389.12,286.72z M389.12,122.88
			c-11.305,0-20.48-9.175-20.48-20.48c0-11.305,9.175-20.48,20.48-20.48c11.305,0,20.48,9.175,20.48,20.48
			C409.6,113.705,400.425,122.88,389.12,122.88z"/>
	</g>
</g>
<g>
</g>
<g>
</g>
<g>
</g>
<g>
</g>
<g>
</g>
<g>
</g>
<g>
</g>
<g>
</g>
<g>
</g>
<g>
</g>
<g>
</g>
<g>
</g>
<g>
</g>
<g>
</g>
<g>
</g>
</svg>
