<?xml version="1.0" encoding="iso-8859-1"?>
<!-- Generator: Adobe Illustrator 19.0.0, SVG Export Plug-In . SVG Version: 6.00 Build 0)  -->
<svg version="1.1" id="Layer_1" xmlns="http://www.w3.org/2000/svg" xmlns:xlink="http://www.w3.org/1999/xlink" x="0px" y="0px"
	 viewBox="0 0 491.52 491.52" style="enable-background:new 0 0 491.52 491.52;" xml:space="preserve">
<g>
	<g>
		<g>
			<polygon points="368.64,348.16 409.6,348.16 409.6,266.24 266.24,266.24 266.24,348.16 307.2,348.16 307.2,471.04 184.32,471.04 
				184.32,348.16 225.28,348.16 225.28,266.24 81.92,266.24 81.92,348.16 122.88,348.16 122.88,471.04 0,471.04 0,491.52 
				491.52,491.52 491.52,471.04 368.64,471.04 			"/>
			<path d="M0,0v348.16h40.96V225.28h184.32v-85.688c-23.818-8.458-40.96-30.966-40.96-57.672c0-33.935,27.505-61.44,61.44-61.44
				c33.935,0,61.44,27.505,61.44,61.44c0,26.706-17.142,49.213-40.96,57.672v85.688h184.32v122.88h40.96V0H0z"/>
		</g>
	</g>
</g>
<g>
</g>
<g>
</g>
<g>
</g>
<g>
</g>
<g>
</g>
<g>
</g>
<g>
</g>
<g>
</g>
<g>
</g>
<g>
</g>
<g>
</g>
<g>
</g>
<g>
</g>
<g>
</g>
<g>
</g>
</svg>
