<?xml version="1.0" encoding="iso-8859-1"?>
<!-- Generator: Adobe Illustrator 19.0.0, SVG Export Plug-In . SVG Version: 6.00 Build 0)  -->
<svg version="1.1" id="Layer_1" xmlns="http://www.w3.org/2000/svg" xmlns:xlink="http://www.w3.org/1999/xlink" x="0px" y="0px"
	 viewBox="0 0 491.526 491.526" style="enable-background:new 0 0 491.526 491.526;" xml:space="preserve">
<g>
	<g>
		<g>
			<path d="M348.16,389.123v-81.92c0-11.325,9.175-20.48,20.48-20.48h122.88v-40.96v-40.96v-81.92v-40.96V43.339
				c0-23.9-19.456-43.336-43.356-43.336h-36.168c-23.9,0-43.356,19.436-43.356,43.336v38.584v40.96v81.92H307.2v-81.92v-40.96
				V43.339c0-23.9-19.456-43.336-43.356-43.336h-36.168c-23.9,0-43.356,19.436-43.356,43.336v38.584v40.96v81.92h-61.44v-81.92
				v-40.96V43.339c0-23.9-19.456-43.336-43.356-43.336H43.356C19.456,0.003,0,19.439,0,43.339v38.584v40.96v81.92v40.96v40.96
				h143.36c11.305,0,20.48,9.155,20.48,20.48s-9.175,20.48-20.48,20.48H0v40.96h81.92c11.305,0,20.48,9.155,20.48,20.48
				s-9.175,20.48-20.48,20.48H0v81.92h491.52v-81.92H368.64C357.335,409.603,348.16,400.448,348.16,389.123z M409.6,43.339
				c0-1.311,1.065-2.376,2.396-2.376h36.168c1.331,0,2.396,1.065,2.396,2.376v38.584H409.6V43.339z M81.92,81.923H40.96V43.339
				c0-1.311,1.065-2.376,2.396-2.376h36.168c1.331,0,2.396,1.065,2.396,2.376V81.923z M266.24,81.923h-40.96V43.339
				c0-1.311,1.065-2.376,2.396-2.376h36.168c1.331,0,2.396,1.065,2.396,2.376V81.923z"/>
			<rect x="389.126" y="327.683" width="102.4" height="40.96"/>
		</g>
	</g>
</g>
<g>
</g>
<g>
</g>
<g>
</g>
<g>
</g>
<g>
</g>
<g>
</g>
<g>
</g>
<g>
</g>
<g>
</g>
<g>
</g>
<g>
</g>
<g>
</g>
<g>
</g>
<g>
</g>
<g>
</g>
</svg>
