<?xml version="1.0" encoding="iso-8859-1"?>
<!-- Generator: Adobe Illustrator 19.0.0, SVG Export Plug-In . SVG Version: 6.00 Build 0)  -->
<svg version="1.1" id="Layer_1" xmlns="http://www.w3.org/2000/svg" xmlns:xlink="http://www.w3.org/1999/xlink" x="0px" y="0px"
	 viewBox="0 0 512.006 512.006" style="enable-background:new 0 0 512.006 512.006;" xml:space="preserve">
<g>
	<g>
		<g>
			<path d="M149.34,255.467c0,58.816,47.851,106.667,106.667,106.667c58.816,0,106.667-47.851,106.667-106.667
				S314.822,148.8,256.006,148.8C197.19,148.8,149.34,196.651,149.34,255.467z"/>
			<path d="M106.667,255.471c0-75.2,55.936-137.429,128.341-147.691c-0.043-0.576-0.341-1.067-0.341-1.643V0.538
				C103.467,11.439,0,121.519,0,255.471c0,57.451,19.264,110.379,51.349,153.152L128,331.972
				C114.56,309.572,106.667,283.439,106.667,255.471z"/>
			<path d="M277.34,0.555v105.579c0,0.576-0.277,1.088-0.341,1.664c72.405,10.261,128.341,72.469,128.341,147.669
				c0,29.397-8.661,56.768-23.381,79.893c3.968,0.811,7.808,2.368,10.88,5.44l67.819,67.819
				c32.085-42.773,51.349-95.68,51.349-153.152C512.006,121.515,408.54,11.456,277.34,0.555z"/>
			<path d="M358.129,364.12c-26.731,25.152-62.613,40.683-102.123,40.683c-38.933,0-74.304-15.104-100.907-39.595l-75.392,75.392
				c45.952,43.797,107.968,70.869,176.299,70.869s130.347-27.072,176.299-70.869l-69.632-69.632
				C360.646,368.941,359.174,366.594,358.129,364.12z"/>
		</g>
	</g>
</g>
<g>
</g>
<g>
</g>
<g>
</g>
<g>
</g>
<g>
</g>
<g>
</g>
<g>
</g>
<g>
</g>
<g>
</g>
<g>
</g>
<g>
</g>
<g>
</g>
<g>
</g>
<g>
</g>
<g>
</g>
</svg>
