<?xml version="1.0" encoding="iso-8859-1"?>
<!-- Generator: Adobe Illustrator 19.0.0, SVG Export Plug-In . SVG Version: 6.00 Build 0)  -->
<svg version="1.1" id="Layer_1" xmlns="http://www.w3.org/2000/svg" xmlns:xlink="http://www.w3.org/1999/xlink" x="0px" y="0px"
	 viewBox="0 0 511.994 511.994" style="enable-background:new 0 0 511.994 511.994;" xml:space="preserve">
<g>
	<g>
		<g>
			<path d="M352.335,337.792c-7.765-7.765-20.181-8.363-28.629-1.387c-38.037,31.253-97.365,31.253-135.403,0
				c-8.448-6.976-20.864-6.379-28.629,1.387l-75.435,75.435c-4.16,4.139-6.4,9.792-6.251,15.659
				c0.149,5.845,2.709,11.371,7.061,15.296c47.168,42.432,107.883,65.792,170.944,65.792s123.797-23.36,170.965-65.792
				c4.352-3.925,6.891-9.451,7.061-15.296c0.149-5.867-2.112-11.52-6.251-15.659L352.335,337.792z"/>
			<path d="M151.147,273.052c-1.237-6.784-1.813-13.035-1.813-19.093c0-45.013,28.587-85.376,71.125-100.437
				c8.512-3.029,14.208-11.072,14.208-20.117V23.367c0-6.336-2.816-12.352-7.68-16.405s-11.371-5.739-17.515-4.587
				C88.107,24.711,0,130.524,0,253.959c0,40.469,9.365,79.424,27.883,115.797c3.093,6.08,8.939,10.325,15.68,11.392
				c1.109,0.171,2.24,0.256,3.328,0.256c5.611,0,11.072-2.219,15.083-6.251l83.264-83.243
				C150.165,286.961,152.384,279.921,151.147,273.052z"/>
			<path d="M302.522,2.385c-6.144-1.173-12.651,0.512-17.493,4.587c-4.885,4.053-7.701,10.069-7.701,16.384v110.059
				c0,9.024,5.696,17.088,14.208,20.096c42.539,15.083,71.125,55.445,71.125,100.459c0,6.059-0.576,12.309-1.813,19.093
				c-1.216,6.869,0.981,13.909,5.931,18.837l83.243,83.264c4.032,4.032,9.472,6.251,15.083,6.251c1.109,0,2.24-0.085,3.328-0.277
				c6.763-1.067,12.587-5.312,15.701-11.392c18.496-36.352,27.861-75.307,27.861-115.776
				C511.994,130.513,423.887,24.721,302.522,2.385z"/>
		</g>
	</g>
</g>
<g>
</g>
<g>
</g>
<g>
</g>
<g>
</g>
<g>
</g>
<g>
</g>
<g>
</g>
<g>
</g>
<g>
</g>
<g>
</g>
<g>
</g>
<g>
</g>
<g>
</g>
<g>
</g>
<g>
</g>
</svg>
