<?xml version="1.0" encoding="iso-8859-1"?>
<!-- Generator: Adobe Illustrator 19.0.0, SVG Export Plug-In . SVG Version: 6.00 Build 0)  -->
<svg version="1.1" id="Layer_1" xmlns="http://www.w3.org/2000/svg" xmlns:xlink="http://www.w3.org/1999/xlink" x="0px" y="0px"
	 viewBox="0 0 512.007 512.007" style="enable-background:new 0 0 512.007 512.007;" xml:space="preserve">
<g>
	<g>
		<g>
			<path d="M489.746,244.873H267.137c-12.31,0-22.261,9.973-22.261,22.261v222.609c0,12.288,9.951,22.261,22.261,22.261
				c135.012,0,244.87-109.857,244.87-244.87C512.007,254.846,502.056,244.873,489.746,244.873z"/>
			<path d="M435.222,191.981c4.23-5.298,5.832-12.221,4.319-18.833C416.345,71.216,327.168,0.003,222.609,0.003
				C99.885,0.003,0,99.866,0,222.612c0,104.559,71.19,193.759,173.167,216.932c1.625,0.356,3.272,0.557,4.92,0.557
				c5.009,0,9.928-1.692,13.891-4.875c5.298-4.23,8.37-10.618,8.37-17.386V200.351h217.489
				C424.582,200.351,431.015,197.257,435.222,191.981z"/>
		</g>
	</g>
</g>
<g>
</g>
<g>
</g>
<g>
</g>
<g>
</g>
<g>
</g>
<g>
</g>
<g>
</g>
<g>
</g>
<g>
</g>
<g>
</g>
<g>
</g>
<g>
</g>
<g>
</g>
<g>
</g>
<g>
</g>
</svg>
