<?xml version="1.0" encoding="iso-8859-1"?>
<!-- Generator: Adobe Illustrator 19.0.0, SVG Export Plug-In . SVG Version: 6.00 Build 0)  -->
<svg version="1.1" id="Layer_1" xmlns="http://www.w3.org/2000/svg" xmlns:xlink="http://www.w3.org/1999/xlink" x="0px" y="0px"
	 viewBox="0 0 510.815 510.815" style="enable-background:new 0 0 510.815 510.815;" xml:space="preserve">
<g>
	<g>
		<g>
			<path d="M236.474,266.73c-0.861-1.396-1.676-2.723-2.211-4.282s-0.745-3.095-0.954-4.701c-0.14-1.001-0.582-1.885-0.582-2.932
				V0.001C102.447,11.824,0,121.531,0,254.814c0,141.172,114.828,256,256,256c52.061,0,100.515-15.709,140.963-42.519
				L237.824,269.36C237.172,268.545,236.986,267.591,236.474,266.73z"/>
			<path d="M304.41,278.099l128.815,161.024c43.194-41.542,71.866-97.978,77.591-161.024H304.41z"/>
			<path d="M279.268,0.013v231.54h231.54C499.707,108.952,401.869,11.114,279.268,0.013z"/>
		</g>
	</g>
</g>
<g>
</g>
<g>
</g>
<g>
</g>
<g>
</g>
<g>
</g>
<g>
</g>
<g>
</g>
<g>
</g>
<g>
</g>
<g>
</g>
<g>
</g>
<g>
</g>
<g>
</g>
<g>
</g>
<g>
</g>
</svg>
