<?xml version="1.0" encoding="iso-8859-1"?>
<!-- Generator: Adobe Illustrator 19.0.0, SVG Export Plug-In . SVG Version: 6.00 Build 0)  -->
<svg version="1.1" id="Layer_1" xmlns="http://www.w3.org/2000/svg" xmlns:xlink="http://www.w3.org/1999/xlink" x="0px" y="0px"
	 viewBox="0 0 511.998 511.998" style="enable-background:new 0 0 511.998 511.998;" xml:space="preserve">
<g>
	<g>
		<g>
			<path d="M267.134,244.87V22.261C267.134,9.973,257.183,0,244.873,0C109.861,0,0.003,109.857,0.003,244.87
				c0,12.288,9.951,22.261,22.261,22.261h222.609C257.183,267.13,267.134,257.158,267.134,244.87z"/>
			<path d="M338.849,72.479c-6.545-1.469-13.535,0.089-18.833,4.296c-5.276,4.23-8.37,10.641-8.37,17.408V311.65H94.18
				c-6.767,0-13.178,3.094-17.386,8.37c-4.252,5.298-5.832,12.221-4.341,18.833c23.196,101.933,112.395,173.145,216.932,173.145
				c122.746,0,222.609-99.862,222.609-222.609C511.994,184.83,440.804,95.63,338.849,72.479z"/>
		</g>
	</g>
</g>
<g>
</g>
<g>
</g>
<g>
</g>
<g>
</g>
<g>
</g>
<g>
</g>
<g>
</g>
<g>
</g>
<g>
</g>
<g>
</g>
<g>
</g>
<g>
</g>
<g>
</g>
<g>
</g>
<g>
</g>
</svg>
