<?xml version="1.0" encoding="iso-8859-1"?>
<!-- Generator: Adobe Illustrator 19.0.0, SVG Export Plug-In . SVG Version: 6.00 Build 0)  -->
<svg version="1.1" id="Layer_1" xmlns="http://www.w3.org/2000/svg" xmlns:xlink="http://www.w3.org/1999/xlink" x="0px" y="0px"
	 viewBox="0 0 512.011 512.011" style="enable-background:new 0 0 512.011 512.011;" xml:space="preserve">
<g>
	<g>
		<g>
			<path d="M267.142,0.006c-12.31,0-22.261,9.973-22.261,22.261v222.609c0,12.288,9.951,22.261,22.261,22.261H489.75
				c12.31,0,22.261-9.973,22.261-22.261C512.011,109.863,402.154,0.006,267.142,0.006z"/>
			<path d="M417.837,311.658H200.348V94.169c0-6.767-3.072-13.156-8.37-17.386c-5.298-4.23-12.266-5.81-18.81-4.319
				C71.213,95.638,0,184.838,0,289.397c0,122.746,99.885,222.609,222.609,222.609c104.559,0,193.759-71.213,216.954-173.145
				c1.491-6.612-0.089-13.535-4.341-18.833C431.015,314.752,424.604,311.658,417.837,311.658z"/>
		</g>
	</g>
</g>
<g>
</g>
<g>
</g>
<g>
</g>
<g>
</g>
<g>
</g>
<g>
</g>
<g>
</g>
<g>
</g>
<g>
</g>
<g>
</g>
<g>
</g>
<g>
</g>
<g>
</g>
<g>
</g>
<g>
</g>
</svg>
