<?xml version="1.0" encoding="iso-8859-1"?>
<!-- Generator: Adobe Illustrator 19.0.0, SVG Export Plug-In . SVG Version: 6.00 Build 0)  -->
<svg version="1.1" id="Layer_1" xmlns="http://www.w3.org/2000/svg" xmlns:xlink="http://www.w3.org/1999/xlink" x="0px" y="0px"
	 viewBox="0 0 491.837 491.837" style="enable-background:new 0 0 491.837 491.837;" xml:space="preserve">
<g>
	<g>
		<path d="M445.501,198.123c50.729-56.75,46.367-173.425,46.162-178.36c-0.246-5.632-2.806-10.936-7.066-14.623
			c-4.26-3.666-9.81-5.448-15.483-4.874c-3.994,0.41-87.429,9.912-113.582,73.134c-4.649-2.97-9.564-5.53-14.5-8.131
			c-14.95-38.031-51.835-65.106-95.109-65.106s-80.179,27.075-95.13,65.106c-4.915,2.601-9.851,5.161-14.5,8.131
			C110.141,10.178,26.705,0.676,22.732,0.266C17.038-0.328,11.509,1.454,7.229,5.14c-4.26,3.686-6.82,8.991-7.045,14.623
			c-0.225,4.936-4.588,121.61,46.141,178.36c0.246,0.266,0.594,0.41,0.86,0.655c-3.686,15.319-6.062,31.027-6.062,47.145
			c0,31.785,7.496,61.788,20.48,88.678v136.602c0,11.305,9.155,20.48,20.48,20.48h122.88c11.305,0,20.48-9.175,20.48-20.48v-21.524
			c6.738,0.676,13.558,1.044,20.48,1.044c6.902,0,13.742-0.369,20.48-1.044v21.524c0,11.305,9.155,20.48,20.48,20.48h122.88
			c11.305,0,20.48-9.175,20.48-20.48V334.602c12.984-26.89,20.48-56.893,20.48-88.678c0-16.118-2.396-31.826-6.083-47.145
			C444.907,198.533,445.255,198.39,445.501,198.123z M391.31,321.106c-8.131,15.688-18.596,29.737-30.884,41.779
			c-1.249,1.229-2.581,2.335-3.871,3.523c-2.847,2.601-5.734,5.181-8.745,7.578c-1.556,1.249-3.174,2.396-4.772,3.584
			c-3.011,2.212-6.062,4.362-9.216,6.39c-1.556,0.983-3.133,1.925-4.731,2.867c-3.502,2.068-7.086,4.014-10.752,5.837
			c-1.311,0.635-2.621,1.29-3.953,1.905c-4.26,1.966-8.622,3.748-13.087,5.345c-0.84,0.307-1.659,0.635-2.499,0.922
			c-5.345,1.823-10.813,3.4-16.384,4.669c-11.755,2.703-23.941,4.26-36.495,4.26c-12.698,0-25.006-1.597-36.864-4.342
			c-5.427-1.249-10.732-2.785-15.933-4.547c-0.942-0.328-1.843-0.696-2.765-1.024c-4.383-1.577-8.663-3.338-12.841-5.263
			c-1.393-0.635-2.744-1.29-4.116-1.966c-3.625-1.802-7.148-3.727-10.629-5.775c-1.597-0.942-3.215-1.905-4.792-2.908
			c-3.133-2.007-6.164-4.157-9.155-6.349c-1.618-1.188-3.236-2.355-4.813-3.604c-3.011-2.396-5.898-4.956-8.724-7.578
			c-1.29-1.188-2.642-2.294-3.891-3.523c-3.932-3.871-7.741-7.905-11.284-12.186c0,0-0.02,0-0.02-0.021
			c-7.496-9.011-14.07-18.924-19.579-29.573c-11.715-22.548-18.432-48.067-18.432-75.182c0-17.715,3.072-34.98,8.54-51.343
			c4.403-13.271,10.465-25.846,17.961-37.478c1.229-1.884,2.621-3.625,3.932-5.468c2.54-3.604,5.161-7.168,8.008-10.568
			c1.823-2.171,3.768-4.239,5.693-6.328c2.744-2.949,5.571-5.837,8.54-8.581c3.215-2.99,6.39-6.001,9.83-8.724
			c0.164,1.044,0.553,2.007,0.737,3.031c0.491,2.744,1.229,5.366,1.925,8.028c0.963,3.604,1.987,7.168,3.318,10.609
			c0.983,2.581,2.109,5.038,3.297,7.496c1.577,3.297,3.277,6.472,5.202,9.544c1.434,2.314,2.908,4.547,4.526,6.738
			c2.15,2.929,4.444,5.673,6.902,8.356c1.802,1.987,3.584,3.932,5.55,5.755c1.905,1.802,3.871,3.502,5.919,5.14
			c-13.394,8.028-25.17,18.493-34.488,31.191c-6.677,9.114-4.71,21.934,4.403,28.631c9.155,6.697,21.934,4.71,28.631-4.403
			c15.462-21.074,42.824-33.587,71.373-32.358c25.6,1.004,46.94,12.308,58.552,31.048c3.871,6.246,10.568,9.687,17.428,9.687
			c3.666,0,7.393-1.004,10.752-3.072c9.626-5.96,12.595-18.596,6.635-28.201c-8.479-13.681-20.337-24.883-34.263-33.341
			c1.659-1.372,3.236-2.847,4.813-4.321c1.946-1.823,3.727-3.768,5.53-5.755c2.458-2.683,4.751-5.427,6.902-8.356
			c1.618-2.191,3.113-4.424,4.547-6.738c1.905-3.072,3.604-6.246,5.181-9.544c1.188-2.458,2.314-4.915,3.318-7.496
			c1.331-3.441,2.335-7.004,3.297-10.609c0.696-2.662,1.434-5.284,1.925-8.028c0.184-1.024,0.573-1.987,0.737-3.031
			c3.441,2.724,6.615,5.734,9.83,8.704c2.97,2.785,5.837,5.673,8.602,8.663c1.884,2.048,3.809,4.076,5.591,6.205
			c2.908,3.482,5.612,7.148,8.212,10.854c1.229,1.741,2.56,3.4,3.727,5.181c7.516,11.653,13.599,24.269,18.022,37.581
			c5.468,16.343,8.54,33.587,8.54,51.302C409.763,273.039,403.025,298.557,391.31,321.106z"/>
	</g>
</g>
<g>
</g>
<g>
</g>
<g>
</g>
<g>
</g>
<g>
</g>
<g>
</g>
<g>
</g>
<g>
</g>
<g>
</g>
<g>
</g>
<g>
</g>
<g>
</g>
<g>
</g>
<g>
</g>
<g>
</g>
</svg>
