<?xml version="1.0" encoding="iso-8859-1"?>
<!-- Generator: Adobe Illustrator 19.0.0, SVG Export Plug-In . SVG Version: 6.00 Build 0)  -->
<svg version="1.1" id="Layer_1" xmlns="http://www.w3.org/2000/svg" xmlns:xlink="http://www.w3.org/1999/xlink" x="0px" y="0px"
	 viewBox="0 0 512.001 512.001" style="enable-background:new 0 0 512.001 512.001;" xml:space="preserve">
<g>
	<g>
		<path d="M465.024,64.001H384V39.937c0-22.017-17.899-39.936-39.937-39.936H39.936C17.899,0.001,0,17.92,0,39.937v432.149
			c0,22.016,17.899,39.915,39.936,39.915h304.128c22.037,0,39.936-17.899,39.936-39.915V362.667h81.024
			c25.899,0,46.976-21.077,46.976-46.976V110.977C512,85.078,490.923,64.001,465.024,64.001z M128,426.667H85.333v-42.667H128
			V426.667z M128,341.334H85.333v-42.667H128V341.334z M128,256.001H85.333v-42.667H128V256.001z M170.667,426.667v-42.667h42.667
			v42.667H170.667z M213.333,256.001h-42.667v-42.667h42.667V256.001z M213.333,298.667v42.667h-42.667v-42.667H213.333z
			 M298.667,426.667H256v-128h42.667V426.667z M298.667,256.001H256v-42.667h42.667V256.001z M298.667,170.667H85.333V85.334
			h213.333V170.667z M469.333,315.691c0,2.368-1.942,4.309-4.309,4.309H384V106.667h81.024c2.368,0,4.309,1.942,4.309,4.309V315.691
			z"/>
	</g>
</g>
<g>
</g>
<g>
</g>
<g>
</g>
<g>
</g>
<g>
</g>
<g>
</g>
<g>
</g>
<g>
</g>
<g>
</g>
<g>
</g>
<g>
</g>
<g>
</g>
<g>
</g>
<g>
</g>
<g>
</g>
</svg>
