<?xml version="1.0" encoding="iso-8859-1"?>
<!-- Generator: Adobe Illustrator 19.0.0, SVG Export Plug-In . SVG Version: 6.00 Build 0)  -->
<svg version="1.1" id="Layer_1" xmlns="http://www.w3.org/2000/svg" xmlns:xlink="http://www.w3.org/1999/xlink" x="0px" y="0px"
	 viewBox="0 0 512 512" style="enable-background:new 0 0 512 512;" xml:space="preserve">
<g>
	<g>
		<path d="M490.667,0H21.333C9.536,0,0,9.557,0,21.333s9.536,21.333,21.333,21.333V384h213.333v48.576
			c-12.693,7.403-21.333,21.013-21.333,36.757C213.333,492.907,232.427,512,256,512c23.573,0,42.667-19.093,42.667-42.667
			c0-15.744-8.64-29.355-21.333-36.757V384h213.333V42.667c11.797,0,21.333-9.557,21.333-21.333S502.464,0,490.667,0z M341.333,320
			c-23.573,0-42.667-19.093-42.667-42.667c0-15.744,8.64-29.355,21.333-36.757v-27.243H192v27.243
			c12.693,7.403,21.333,21.013,21.333,36.757c0,23.573-19.093,42.667-42.667,42.667C147.093,320,128,300.907,128,277.333
			c0-15.744,8.64-29.355,21.333-36.757v-69.909h85.333v-27.243c-12.693-7.403-21.333-21.013-21.333-36.757
			C213.333,83.093,232.427,64,256,64c23.573,0,42.667,19.093,42.667,42.667c0,15.744-8.64,29.355-21.333,36.757v27.243h85.333
			v69.909C375.36,247.979,384,261.589,384,277.333C384,300.907,364.885,320,341.333,320z"/>
	</g>
</g>
<g>
</g>
<g>
</g>
<g>
</g>
<g>
</g>
<g>
</g>
<g>
</g>
<g>
</g>
<g>
</g>
<g>
</g>
<g>
</g>
<g>
</g>
<g>
</g>
<g>
</g>
<g>
</g>
<g>
</g>
</svg>
