<?xml version="1.0" encoding="iso-8859-1"?>
<!-- Generator: Adobe Illustrator 19.0.0, SVG Export Plug-In . SVG Version: 6.00 Build 0)  -->
<svg version="1.1" id="Layer_1" xmlns="http://www.w3.org/2000/svg" xmlns:xlink="http://www.w3.org/1999/xlink" x="0px" y="0px"
	 viewBox="0 0 512 512" style="enable-background:new 0 0 512 512;" xml:space="preserve">
<g>
	<g>
		<path d="M490.667,0H21.333v384h183.168l-91.584,91.584c-8.341,8.341-8.341,21.824,0,30.165c4.16,4.16,9.621,6.251,15.083,6.251
			c5.461,0,10.901-2.091,15.083-6.251l91.584-91.584v76.501c0,11.776,9.536,21.333,21.333,21.333
			c11.776,0,21.333-9.557,21.333-21.333v-76.501l91.584,91.584c4.16,4.16,9.621,6.251,15.083,6.251
			c5.461,0,10.901-2.091,15.083-6.251c8.32-8.341,8.32-21.824,0-30.165L307.499,384h183.168V0z M249.749,164.416
			c-4.181,4.16-9.621,6.251-15.083,6.251c-5.461,0-10.923-2.091-15.083-6.251c-8.341-8.341-8.341-21.824,0-30.165l6.251-6.251
			h-76.501C137.536,128,128,118.443,128,106.667s9.536-21.333,21.333-21.333h76.501l-6.251-6.251
			c-8.341-8.341-8.341-21.824,0-30.165c8.32-8.341,21.824-8.341,30.165,0l42.645,42.645c1.984,1.984,3.541,4.331,4.629,6.955
			c2.155,5.205,2.155,11.093,0,16.299c-1.088,2.624-2.645,4.971-4.629,6.955L249.749,164.416z"/>
	</g>
</g>
<g>
</g>
<g>
</g>
<g>
</g>
<g>
</g>
<g>
</g>
<g>
</g>
<g>
</g>
<g>
</g>
<g>
</g>
<g>
</g>
<g>
</g>
<g>
</g>
<g>
</g>
<g>
</g>
<g>
</g>
</svg>
