<?xml version="1.0" encoding="iso-8859-1"?>
<!-- Generator: Adobe Illustrator 19.0.0, SVG Export Plug-In . SVG Version: 6.00 Build 0)  -->
<svg version="1.1" id="Layer_1" xmlns="http://www.w3.org/2000/svg" xmlns:xlink="http://www.w3.org/1999/xlink" x="0px" y="0px"
	 viewBox="0 0 512 512" style="enable-background:new 0 0 512 512;" xml:space="preserve">
<g>
	<g>
		<path d="M490.667,0H21.333v384h183.168l-91.584,91.584c-8.341,8.341-8.341,21.824,0,30.165c4.16,4.16,9.621,6.251,15.083,6.251
			c5.461,0,10.923-2.091,15.083-6.251l91.584-91.584v76.501c0,11.776,9.557,21.333,21.333,21.333s21.333-9.557,21.333-21.333
			v-76.501l91.584,91.584c4.16,4.16,9.621,6.251,15.083,6.251c5.461,0,10.923-2.091,15.083-6.251c8.341-8.341,8.341-21.824,0-30.165
			L307.499,384h183.168V0z M256,277.333c-47.125,0-85.333-38.208-85.333-85.333s38.208-85.333,85.333-85.333V192h85.333
			C341.333,239.125,303.125,277.333,256,277.333z M277.333,170.667V85.333c47.125,0,85.333,38.208,85.333,85.333H277.333z"/>
	</g>
</g>
<g>
</g>
<g>
</g>
<g>
</g>
<g>
</g>
<g>
</g>
<g>
</g>
<g>
</g>
<g>
</g>
<g>
</g>
<g>
</g>
<g>
</g>
<g>
</g>
<g>
</g>
<g>
</g>
<g>
</g>
</svg>
