<?xml version="1.0" encoding="iso-8859-1"?>
<!-- Generator: Adobe Illustrator 19.0.0, SVG Export Plug-In . SVG Version: 6.00 Build 0)  -->
<svg version="1.1" id="Layer_1" xmlns="http://www.w3.org/2000/svg" xmlns:xlink="http://www.w3.org/1999/xlink" x="0px" y="0px"
	 viewBox="0 0 512 512" style="enable-background:new 0 0 512 512;" xml:space="preserve">
<g>
	<g>
		<path d="M490.667,0H21.333v384h183.168l-91.584,91.584c-8.341,8.341-8.341,21.824,0,30.165c4.16,4.16,9.621,6.251,15.083,6.251
			c5.461,0,10.923-2.091,15.083-6.251l91.584-91.584v76.501c0,11.776,9.536,21.333,21.333,21.333
			c11.797,0,21.333-9.557,21.333-21.333v-76.501l91.584,91.584c4.16,4.16,9.621,6.251,15.083,6.251
			c5.461,0,10.923-2.091,15.083-6.251c8.341-8.341,8.341-21.824,0-30.165L307.499,384h183.168V0z M192,85.333
			c23.573,0,42.667,19.093,42.667,42.667H192V85.333z M170.667,85.333v64h64c0,35.349-28.651,64-64,64c-35.349,0-64-28.651-64-64
			C106.667,113.984,135.317,85.333,170.667,85.333z M234.667,298.667H128c-11.797,0-21.333-9.557-21.333-21.333S116.203,256,128,256
			h106.667c11.797,0,21.333,9.557,21.333,21.333S246.464,298.667,234.667,298.667z M405.333,277.333
			c0,11.776-9.536,21.333-21.333,21.333c-11.797,0-21.333-9.557-21.333-21.333V256H320c-11.797,0-21.333-9.557-21.333-21.333
			s9.536-21.333,21.333-21.333h42.667v-42.667H320c-11.797,0-21.333-9.557-21.333-21.333S308.203,128,320,128h42.667v-21.333
			c0-11.776,9.536-21.333,21.333-21.333c11.797,0,21.333,9.557,21.333,21.333V277.333z"/>
	</g>
</g>
<g>
</g>
<g>
</g>
<g>
</g>
<g>
</g>
<g>
</g>
<g>
</g>
<g>
</g>
<g>
</g>
<g>
</g>
<g>
</g>
<g>
</g>
<g>
</g>
<g>
</g>
<g>
</g>
<g>
</g>
</svg>
