<?xml version="1.0" encoding="iso-8859-1"?>
<!-- Generator: Adobe Illustrator 19.0.0, SVG Export Plug-In . SVG Version: 6.00 Build 0)  -->
<svg version="1.1" id="Layer_1" xmlns="http://www.w3.org/2000/svg" xmlns:xlink="http://www.w3.org/1999/xlink" x="0px" y="0px"
	 viewBox="0 0 512 512" style="enable-background:new 0 0 512 512;" xml:space="preserve">
<g>
	<g>
		<path d="M490.667,0H21.333C9.557,0,0,9.557,0,21.333s9.557,21.333,21.333,21.333v320h213.333v25.259
			C209.899,396.757,192,420.224,192,448c0,35.285,28.715,64,64,64s64-28.715,64-64c0-27.776-17.899-51.243-42.667-60.075v-25.259
			h213.333v-320c11.776,0,21.333-9.557,21.333-21.333S502.443,0,490.667,0z M256,469.333c-11.755,0-21.333-9.579-21.333-21.333
			c0-11.755,9.579-21.333,21.333-21.333c11.755,0,21.333,9.579,21.333,21.333C277.333,459.755,267.755,469.333,256,469.333z
			 M384,277.333H128c-11.776,0-21.333-9.557-21.333-21.333s9.557-21.333,21.333-21.333h21.333V128H192v106.667h42.667v-64h42.667v64
			H320v-128h42.667v128H384c11.776,0,21.333,9.557,21.333,21.333S395.776,277.333,384,277.333z"/>
	</g>
</g>
<g>
</g>
<g>
</g>
<g>
</g>
<g>
</g>
<g>
</g>
<g>
</g>
<g>
</g>
<g>
</g>
<g>
</g>
<g>
</g>
<g>
</g>
<g>
</g>
<g>
</g>
<g>
</g>
<g>
</g>
</svg>
