<?xml version="1.0" encoding="iso-8859-1"?>
<!-- Generator: Adobe Illustrator 19.0.0, SVG Export Plug-In . SVG Version: 6.00 Build 0)  -->
<svg version="1.1" id="Layer_1" xmlns="http://www.w3.org/2000/svg" xmlns:xlink="http://www.w3.org/1999/xlink" x="0px" y="0px"
	 viewBox="0 0 512 512" style="enable-background:new 0 0 512 512;" xml:space="preserve">
<g>
	<g>
		<path d="M490.667,0H21.333v384h183.168l-91.584,91.584c-8.341,8.341-8.341,21.824,0,30.165c4.16,4.16,9.621,6.251,15.083,6.251
			c5.461,0,10.923-2.091,15.083-6.251l91.584-91.584v76.501c0,11.776,9.536,21.333,21.333,21.333
			c11.797,0,21.333-9.557,21.333-21.333v-76.501l91.584,91.584c4.16,4.16,9.621,6.251,15.083,6.251
			c5.461,0,10.923-2.091,15.083-6.251c8.341-8.341,8.341-21.824,0-30.165L307.499,384h183.168V0z M170.667,170.667
			c35.285,0,64,28.715,64,64s-28.715,64-64,64H128c-11.797,0-21.333-9.557-21.333-21.333S116.203,256,128,256h42.667
			c11.776,0,21.333-9.579,21.333-21.333c0-11.755-9.557-21.333-21.333-21.333c-35.285,0-64-28.715-64-64c0-35.285,28.715-64,64-64
			h42.667c11.797,0,21.333,9.557,21.333,21.333S225.131,128,213.333,128h-42.667c-11.776,0-21.333,9.579-21.333,21.333
			C149.333,161.088,158.891,170.667,170.667,170.667z M405.333,277.333c0,11.776-9.536,21.333-21.333,21.333
			c-11.797,0-21.333-9.557-21.333-21.333V256H320c-11.797,0-21.333-9.557-21.333-21.333s9.536-21.333,21.333-21.333h42.667v-42.667
			H320c-11.797,0-21.333-9.557-21.333-21.333S308.203,128,320,128h42.667v-21.333c0-11.776,9.536-21.333,21.333-21.333
			c11.797,0,21.333,9.557,21.333,21.333V277.333z"/>
	</g>
</g>
<g>
</g>
<g>
</g>
<g>
</g>
<g>
</g>
<g>
</g>
<g>
</g>
<g>
</g>
<g>
</g>
<g>
</g>
<g>
</g>
<g>
</g>
<g>
</g>
<g>
</g>
<g>
</g>
<g>
</g>
</svg>
