<?xml version="1.0" encoding="iso-8859-1"?>
<!-- Generator: Adobe Illustrator 19.0.0, SVG Export Plug-In . SVG Version: 6.00 Build 0)  -->
<svg version="1.1" id="Layer_1" xmlns="http://www.w3.org/2000/svg" xmlns:xlink="http://www.w3.org/1999/xlink" x="0px" y="0px"
	 viewBox="0 0 512 512" style="enable-background:new 0 0 512 512;" xml:space="preserve">
<g>
	<g>
		<path d="M490.667,0H21.333v384h183.168l-91.584,91.584c-8.341,8.341-8.341,21.824,0,30.165c4.16,4.16,9.621,6.251,15.083,6.251
			c5.461,0,10.923-2.091,15.083-6.251l91.584-91.584v76.501c0,11.776,9.536,21.333,21.333,21.333
			c11.797,0,21.333-9.557,21.333-21.333v-76.501l91.584,91.584c4.16,4.16,9.621,6.251,15.083,6.251
			c5.461,0,10.923-2.091,15.083-6.251c8.341-8.341,8.341-21.824,0-30.165L307.499,384h183.168V0z M362.667,277.333
			c-23.573,0-42.667-19.093-42.667-42.667c0-3.797,0.661-7.403,1.579-10.923l-54.656-54.656c-3.52,0.917-7.125,1.579-10.923,1.579
			c-3.797,0-7.403-0.661-10.923-1.579l-54.656,54.656c0.917,3.52,1.579,7.125,1.579,10.923c0,23.573-19.093,42.667-42.667,42.667
			c-23.573,0-42.667-19.093-42.667-42.667c0-23.573,19.093-42.667,42.667-42.667c3.797,0,7.403,0.661,10.923,1.579l54.656-54.656
			c-0.917-3.52-1.579-7.125-1.579-10.923c0-23.573,19.093-42.667,42.667-42.667c23.573,0,42.667,19.093,42.667,42.667
			c0,3.797-0.661,7.403-1.579,10.923l54.656,54.656c3.52-0.917,7.125-1.579,10.923-1.579c23.573,0,42.667,19.093,42.667,42.667
			C405.333,258.24,386.24,277.333,362.667,277.333z"/>
	</g>
</g>
<g>
</g>
<g>
</g>
<g>
</g>
<g>
</g>
<g>
</g>
<g>
</g>
<g>
</g>
<g>
</g>
<g>
</g>
<g>
</g>
<g>
</g>
<g>
</g>
<g>
</g>
<g>
</g>
<g>
</g>
</svg>
