<?xml version="1.0" encoding="iso-8859-1"?>
<!-- Generator: Adobe Illustrator 19.0.0, SVG Export Plug-In . SVG Version: 6.00 Build 0)  -->
<svg version="1.1" id="Layer_1" xmlns="http://www.w3.org/2000/svg" xmlns:xlink="http://www.w3.org/1999/xlink" x="0px" y="0px"
	 viewBox="0 0 512.011 512.011" style="enable-background:new 0 0 512.011 512.011;" xml:space="preserve">
<g>
	<g>
		<g>
			<path d="M505.755,6.259c-8.341-8.341-21.824-8.341-30.165,0l-41.92,41.92l-204.16,29.163c-4.565,0.661-8.789,2.773-12.075,6.037
				l-40.512,40.533c-4.011,3.989-6.251,9.408-6.251,15.083v74.347c0,11.797,9.536,21.333,21.333,21.333h42.667v42.667
				c0,11.797,9.536,21.333,21.333,21.333h42.667v74.347c0,8.64,5.184,16.427,13.163,19.712c2.645,1.109,5.419,1.621,8.171,1.621
				c5.547,0,11.008-2.155,15.083-6.251l93.547-93.525c3.264-3.285,5.376-7.509,6.037-12.075l29.163-204.16l41.92-41.92
				C514.096,28.083,514.096,14.6,505.755,6.259z"/>
			<path d="M234.672,341.341h-42.667v-42.667c0-11.797-9.536-21.333-21.333-21.333h-42.667v-53.013
				c0-8.64-5.184-16.427-13.163-19.712c-7.979-3.307-17.152-1.493-23.253,4.629L6.256,294.579c-8.341,8.32-8.341,21.824,0,30.165
				l181.013,181.013c4.181,4.16,9.621,6.251,15.083,6.251c5.461,0,10.923-2.091,15.083-6.251l32.32-32.32
				c4.011-3.989,6.251-9.408,6.251-15.083v-95.68C256.005,350.877,246.469,341.341,234.672,341.341z"/>
		</g>
	</g>
</g>
<g>
</g>
<g>
</g>
<g>
</g>
<g>
</g>
<g>
</g>
<g>
</g>
<g>
</g>
<g>
</g>
<g>
</g>
<g>
</g>
<g>
</g>
<g>
</g>
<g>
</g>
<g>
</g>
<g>
</g>
</svg>
