<?xml version="1.0" encoding="iso-8859-1"?>
<!-- Generator: Adobe Illustrator 19.0.0, SVG Export Plug-In . SVG Version: 6.00 Build 0)  -->
<svg version="1.1" id="Layer_1" xmlns="http://www.w3.org/2000/svg" xmlns:xlink="http://www.w3.org/1999/xlink" x="0px" y="0px"
	 viewBox="0 0 512.011 512.011" style="enable-background:new 0 0 512.011 512.011;" xml:space="preserve">
<g>
	<g>
		<path d="M505.755,6.259c-8.341-8.341-21.824-8.341-30.165,0l-41.92,41.92l-204.16,29.163c-4.565,0.661-8.811,2.773-12.075,6.037
			L6.256,294.579c-8.341,8.32-8.341,21.824,0,30.165l181.013,181.013c4.181,4.16,9.621,6.251,15.083,6.251
			c5.461,0,10.923-2.091,15.083-6.251l211.2-211.179c3.264-3.285,5.376-7.509,6.016-12.075l29.163-204.139l41.941-41.941
			C514.096,28.083,514.096,14.6,505.755,6.259z"/>
	</g>
</g>
<g>
</g>
<g>
</g>
<g>
</g>
<g>
</g>
<g>
</g>
<g>
</g>
<g>
</g>
<g>
</g>
<g>
</g>
<g>
</g>
<g>
</g>
<g>
</g>
<g>
</g>
<g>
</g>
<g>
</g>
</svg>
