<?xml version="1.0" encoding="iso-8859-1"?>
<!-- Generator: Adobe Illustrator 19.0.0, SVG Export Plug-In . SVG Version: 6.00 Build 0)  -->
<svg version="1.1" id="Layer_1" xmlns="http://www.w3.org/2000/svg" xmlns:xlink="http://www.w3.org/1999/xlink" x="0px" y="0px"
	 viewBox="0 0 512.013 512.013" style="enable-background:new 0 0 512.013 512.013;" xml:space="preserve">
<g>
	<g>
		<g>
			<path d="M505.757,6.264c-8.341-8.341-21.824-8.341-30.165,0l-41.92,41.92l-204.16,29.163c-4.565,0.661-8.789,2.773-12.075,6.037
				L110.962,189.88l211.179,211.179l106.496-106.475c3.264-3.285,5.376-7.509,6.037-12.075l29.163-204.16l41.92-41.92
				C514.098,28.088,514.098,14.605,505.757,6.264z M234.674,234.68c-5.461,0-10.923-2.091-15.083-6.251
				c-8.341-8.341-8.341-21.824,0-30.165l42.667-42.667c8.341-8.341,21.824-8.341,30.165,0c8.341,8.341,8.341,21.824,0,30.165
				l-42.667,42.667C245.597,232.589,240.135,234.68,234.674,234.68z M356.424,249.763l-42.667,42.667
				c-4.16,4.16-9.621,6.251-15.083,6.251s-10.923-2.091-15.083-6.251c-8.341-8.341-8.341-21.824,0-30.165l42.667-42.667
				c8.341-8.341,21.824-8.341,30.165,0C364.765,227.939,364.765,241.421,356.424,249.763z"/>
			<path d="M6.256,294.575c-8.341,8.341-8.341,21.824,0,30.165l181.013,181.013c4.181,4.181,9.643,6.251,15.083,6.251
				c5.461,0,10.923-2.069,15.083-6.251l74.539-74.517l-211.179-211.2L6.256,294.575z"/>
		</g>
	</g>
</g>
<g>
</g>
<g>
</g>
<g>
</g>
<g>
</g>
<g>
</g>
<g>
</g>
<g>
</g>
<g>
</g>
<g>
</g>
<g>
</g>
<g>
</g>
<g>
</g>
<g>
</g>
<g>
</g>
<g>
</g>
</svg>
