<?xml version="1.0" encoding="iso-8859-1"?>
<!-- Generator: Adobe Illustrator 19.0.0, SVG Export Plug-In . SVG Version: 6.00 Build 0)  -->
<svg version="1.1" id="Layer_1" xmlns="http://www.w3.org/2000/svg" xmlns:xlink="http://www.w3.org/1999/xlink" x="0px" y="0px"
	 viewBox="0 0 491.52 491.52" style="enable-background:new 0 0 491.52 491.52;" xml:space="preserve">
<g>
	<g>
		<path d="M471.04,122.88c-11.305,0-20.48-9.175-20.48-20.48V64.205l-89.293,74.404c-3.83,3.195-8.479,4.751-13.107,4.751
			c-5.857,0-11.674-2.519-15.729-7.373c-7.25-8.683-6.062-21.606,2.621-28.836l79.421-66.191H389.12
			c-11.305,0-20.48-9.175-20.48-20.48C368.64,9.175,377.815,0,389.12,0H0v491.52h20.48V327.68h81.92v163.84h40.96V266.24h81.92
			v225.28h40.96V204.8h81.92v286.72h40.96V163.84h81.92v327.68h20.48V102.4C491.52,113.705,482.345,122.88,471.04,122.88z"/>
	</g>
</g>
<g>
</g>
<g>
</g>
<g>
</g>
<g>
</g>
<g>
</g>
<g>
</g>
<g>
</g>
<g>
</g>
<g>
</g>
<g>
</g>
<g>
</g>
<g>
</g>
<g>
</g>
<g>
</g>
<g>
</g>
</svg>
