<?xml version="1.0" encoding="iso-8859-1"?>
<!-- Generator: Adobe Illustrator 19.0.0, SVG Export Plug-In . SVG Version: 6.00 Build 0)  -->
<svg version="1.1" id="Layer_1" xmlns="http://www.w3.org/2000/svg" xmlns:xlink="http://www.w3.org/1999/xlink" x="0px" y="0px"
	 viewBox="0 0 491.52 491.52" style="enable-background:new 0 0 491.52 491.52;" xml:space="preserve">
<g>
	<g>
		<path d="M471.04,0H20.48C9.175,0,0,9.175,0,20.48v348.16c0,6.083,2.703,11.837,7.373,15.729l122.88,102.4
			c8.131,6.799,20.091,6.226,27.587-1.249l87.921-87.921l87.921,87.921c3.973,3.973,9.216,6.001,14.479,6.001
			c4.649,0,9.298-1.577,13.107-4.751l122.88-102.4c4.669-3.891,7.373-9.646,7.373-15.729V20.48C491.52,9.175,482.345,0,471.04,0z
			 M163.84,184.32c33.874,0,61.44,27.566,61.44,61.44s-27.566,61.44-61.44,61.44h-40.96c-11.305,0-20.48-9.175-20.48-20.48
			c0-11.305,9.175-20.48,20.48-20.48h40.96c11.284,0,20.48-9.195,20.48-20.48c0-11.284-9.195-20.48-20.48-20.48
			c-33.874,0-61.44-27.566-61.44-61.44s27.566-61.44,61.44-61.44h40.96c11.305,0,20.48,9.175,20.48,20.48
			c0,11.305-9.175,20.48-20.48,20.48h-40.96c-11.284,0-20.48,9.196-20.48,20.48S152.555,184.32,163.84,184.32z M389.12,286.72
			c0,11.305-9.175,20.48-20.48,20.48c-11.305,0-20.48-9.175-20.48-20.48v-20.48H307.2c-11.305,0-20.48-9.175-20.48-20.48
			c0-11.305,9.175-20.48,20.48-20.48h40.96v-40.96H307.2c-11.305,0-20.48-9.175-20.48-20.48c0-11.305,9.175-20.48,20.48-20.48h40.96
			v-20.48c0-11.305,9.175-20.48,20.48-20.48c11.305,0,20.48,9.175,20.48,20.48V286.72z"/>
	</g>
</g>
<g>
</g>
<g>
</g>
<g>
</g>
<g>
</g>
<g>
</g>
<g>
</g>
<g>
</g>
<g>
</g>
<g>
</g>
<g>
</g>
<g>
</g>
<g>
</g>
<g>
</g>
<g>
</g>
<g>
</g>
</svg>
