<?xml version="1.0" encoding="iso-8859-1"?>
<!-- Generator: Adobe Illustrator 19.0.0, SVG Export Plug-In . SVG Version: 6.00 Build 0)  -->
<svg version="1.1" id="Layer_1" xmlns="http://www.w3.org/2000/svg" xmlns:xlink="http://www.w3.org/1999/xlink" x="0px" y="0px"
	 viewBox="0 0 491.844 491.844" style="enable-background:new 0 0 491.844 491.844;" xml:space="preserve">
<g>
	<g>
		<path d="M389.444,0.162c-35.676,0-67.072,14.725-85.402,36.905l2.867-11.448c1.884-7.475-0.614-15.34-6.41-20.398
			c-5.755-5.059-13.885-6.431-21.053-3.604l-94.802,37.929L89.842,1.616C82.715-1.21,74.564,0.162,68.788,5.22
			c-5.796,5.059-8.294,12.923-6.41,20.398l34.611,138.383h175.309l14.746-58.941v79.421v20.48H78.68l-43.868,51.2
			c-35.983,41.964-44.81,99.594-23.019,150.385l31.15,72.724c3.215,7.537,10.629,12.411,18.821,12.411h245.76
			c8.192,0,15.606-4.874,18.821-12.411l0.041-0.123c17.51,7.987,39.444,12.534,63.058,12.534c58.388,0,102.4-26.419,102.4-61.44
			v-81.92v-81.92v-81.92v-102.4C491.843,36.903,445.907,0.162,389.444,0.162z M450.884,430.242c0,5.1-21.791,20.48-61.44,20.48
			c-19.681,0-35.963-3.973-46.94-9.155l9.933-23.204l4.936-11.489c1.147,0.205,2.376,0.287,3.543,0.492
			c1.454,0.225,2.908,0.389,4.383,0.594c7.885,1.085,15.933,1.802,24.146,1.802c6.697,0,13.128-0.43,19.395-1.106
			c1.987-0.205,3.85-0.532,5.796-0.819c4.239-0.594,8.356-1.311,12.349-2.191c2.048-0.471,4.035-0.963,6.021-1.495
			c3.789-1.003,7.414-2.171,10.916-3.461c1.679-0.614,3.4-1.167,4.997-1.823c0.635-0.266,1.352-0.451,1.966-0.717V430.242z
			 M450.884,348.322c0,5.099-21.791,20.48-61.44,20.48c-7.168,0-14.172-0.573-20.849-1.597c-0.143-0.021-0.266-0.082-0.41-0.102
			c1.679-13.599,1.311-27.259-0.881-40.632c0.737,0.082,1.536,0.041,2.273,0.143c6.513,0.717,13.107,1.229,19.866,1.229
			c6.697,0,13.128-0.43,19.395-1.106c1.987-0.205,3.85-0.532,5.796-0.819c4.239-0.594,8.356-1.311,12.349-2.191
			c2.048-0.471,4.035-0.963,6.021-1.495c3.789-1.004,7.414-2.171,10.916-3.461c1.679-0.614,3.4-1.167,4.997-1.823
			c0.635-0.266,1.352-0.451,1.966-0.717V348.322z M450.884,266.402c0,5.1-21.791,20.48-61.44,20.48
			c-6.042,0-11.96-0.533-17.736-1.311c-1.065-0.143-2.15-0.246-3.215-0.43c-5.489-0.881-10.732-2.089-15.647-3.625
			c-0.43-0.123-0.84-0.307-1.27-0.451c-0.696-1.249-1.516-2.417-2.232-3.666c-1.413-2.396-2.785-4.772-4.342-7.107
			c-3.174-4.813-6.554-9.462-10.26-13.804c-0.082-0.102-0.143-0.225-0.246-0.328l-6.492-7.578V234.31
			c0.614,0.266,1.331,0.451,1.966,0.717c1.597,0.655,3.318,1.208,4.997,1.823c3.502,1.29,7.127,2.458,10.916,3.461
			c1.987,0.532,3.973,1.024,6.021,1.495c3.994,0.881,8.11,1.597,12.349,2.191c1.946,0.287,3.809,0.614,5.796,0.819
			c6.267,0.676,12.698,1.106,19.395,1.106c6.697,0,13.128-0.43,19.395-1.106c1.987-0.205,3.85-0.533,5.796-0.819
			c4.239-0.594,8.356-1.311,12.349-2.191c2.048-0.471,4.035-0.963,6.021-1.495c3.789-1.004,7.414-2.171,10.916-3.461
			c1.679-0.614,3.4-1.167,4.997-1.823c0.635-0.266,1.352-0.451,1.966-0.717V266.402z M450.884,184.482
			c0,5.099-21.791,20.48-61.44,20.48s-61.44-15.38-61.44-20.48v-36.905c0.799,0.492,1.72,0.819,2.519,1.29
			c1.679,0.942,3.441,1.761,5.202,2.642c3.461,1.72,7.025,3.277,10.752,4.669c1.987,0.758,3.973,1.454,6.021,2.089
			c3.953,1.229,8.049,2.212,12.206,3.031c1.925,0.389,3.789,0.881,5.755,1.167c6.164,0.942,12.472,1.536,18.985,1.536
			c6.513,0,12.82-0.594,18.985-1.536c1.966-0.287,3.83-0.778,5.755-1.167c4.157-0.819,8.253-1.802,12.206-3.031
			c2.048-0.635,4.035-1.331,6.021-2.089c3.727-1.393,7.291-2.949,10.752-4.669c1.761-0.881,3.523-1.7,5.202-2.642
			c0.799-0.471,1.72-0.799,2.519-1.29V184.482z M389.444,123.042c-33.3,0-61.44-18.76-61.44-40.96c0-22.2,28.14-40.96,61.44-40.96
			c33.3,0,61.44,18.76,61.44,40.96C450.884,104.282,422.744,123.042,389.444,123.042z"/>
	</g>
</g>
<g>
</g>
<g>
</g>
<g>
</g>
<g>
</g>
<g>
</g>
<g>
</g>
<g>
</g>
<g>
</g>
<g>
</g>
<g>
</g>
<g>
</g>
<g>
</g>
<g>
</g>
<g>
</g>
<g>
</g>
</svg>
