<?xml version="1.0" encoding="iso-8859-1"?>
<!-- Generator: Adobe Illustrator 19.0.0, SVG Export Plug-In . SVG Version: 6.00 Build 0)  -->
<svg version="1.1" id="Layer_1" xmlns="http://www.w3.org/2000/svg" xmlns:xlink="http://www.w3.org/1999/xlink" x="0px" y="0px"
	 viewBox="0 0 491.521 491.521" style="enable-background:new 0 0 491.521 491.521;" xml:space="preserve">
<g>
	<g>
		<path d="M478.249,62.731l-163.84-61.44c-6.349-2.335-13.394-1.475-18.862,2.355c-5.53,3.83-8.827,10.117-8.827,16.835v20.48
			h-61.44c-11.325,0-20.48,9.175-20.48,20.48H20.48C9.155,61.441,0,70.616,0,81.921v143.36h204.8v40.96H0v143.36
			c0,11.305,9.155,20.48,20.48,20.48h20.48v40.96c0,11.305,9.155,20.48,20.48,20.48h81.92c11.325,0,20.48-9.175,20.48-20.48v-40.96
			h40.96c0,11.305,9.155,20.48,20.48,20.48h61.44v20.48c0,6.717,3.297,13.005,8.827,16.835c3.461,2.396,7.537,3.645,11.653,3.645
			c2.417,0,4.854-0.43,7.209-1.29l163.84-61.44c7.967-3.011,13.271-10.65,13.271-19.19V81.921
			C491.52,73.38,486.216,65.741,478.249,62.731z M286.72,409.601h-40.96v-163.84V81.921h40.96V409.601z M409.6,327.681
			c0,11.305-9.155,20.48-20.48,20.48c-11.325,0-20.48-9.175-20.48-20.48v-143.36c0-11.305,9.155-20.48,20.48-20.48
			c11.325,0,20.48,9.175,20.48,20.48V327.681z"/>
	</g>
</g>
<g>
</g>
<g>
</g>
<g>
</g>
<g>
</g>
<g>
</g>
<g>
</g>
<g>
</g>
<g>
</g>
<g>
</g>
<g>
</g>
<g>
</g>
<g>
</g>
<g>
</g>
<g>
</g>
<g>
</g>
</svg>
