<?xml version="1.0" encoding="iso-8859-1"?>
<!-- Generator: Adobe Illustrator 19.0.0, SVG Export Plug-In . SVG Version: 6.00 Build 0)  -->
<svg version="1.1" id="Layer_1" xmlns="http://www.w3.org/2000/svg" xmlns:xlink="http://www.w3.org/1999/xlink" x="0px" y="0px"
	 viewBox="0 0 512 512" style="enable-background:new 0 0 512 512;" xml:space="preserve">
<g>
	<g>
		<path d="M341.327,170.667c-23.53,0-42.667,19.136-42.667,42.667c0,23.53,19.136,42.667,42.667,42.667
			c23.53,0,42.667-19.136,42.667-42.667S364.857,170.667,341.327,170.667z"/>
	</g>
</g>
<g>
	<g>
		<path d="M490.667,21.333H21.333C9.536,21.333,0,30.891,0,42.667V384c0,11.776,9.536,21.333,21.333,21.333h21.333v64
			c0,11.776,9.536,21.333,21.333,21.333h128c11.776,0,21.333-9.557,21.333-21.333v-64h85.333v64
			c0,11.776,9.536,21.333,21.333,21.333h128c11.776,0,21.333-9.557,21.333-21.333v-64h21.333c11.776,0,21.333-9.557,21.333-21.333
			V42.667C512,30.891,502.443,21.333,490.667,21.333z M85.333,128H128v170.667H85.333V128z M170.667,448H85.333v-42.667h85.333V448z
			 M170.667,298.667V128h42.667v170.667H170.667z M426.667,448h-85.333v-42.667h85.333V448z M341.333,298.667
			c-47.062,0-85.333-38.272-85.333-85.333S294.272,128,341.333,128s85.333,38.272,85.333,85.333S388.395,298.667,341.333,298.667z"
			/>
	</g>
</g>
<g>
</g>
<g>
</g>
<g>
</g>
<g>
</g>
<g>
</g>
<g>
</g>
<g>
</g>
<g>
</g>
<g>
</g>
<g>
</g>
<g>
</g>
<g>
</g>
<g>
</g>
<g>
</g>
<g>
</g>
</svg>
