<?xml version="1.0" encoding="iso-8859-1"?>
<!-- Generator: Adobe Illustrator 19.0.0, SVG Export Plug-In . SVG Version: 6.00 Build 0)  -->
<svg version="1.1" id="Layer_1" xmlns="http://www.w3.org/2000/svg" xmlns:xlink="http://www.w3.org/1999/xlink" x="0px" y="0px"
	 viewBox="0 0 512 512" style="enable-background:new 0 0 512 512;" xml:space="preserve">
<g>
	<g>
		<path d="M447.976,21.333c0.003-2.363-0.373-4.748-1.182-7.061C443.785,5.739,435.721,0,426.655,0H85.321
			c-9.045,0-17.109,5.739-20.117,14.272c-0.815,2.313-1.195,4.698-1.195,7.061h-0.004v170.541c0,0.042-0.006,0.083-0.006,0.126
			v298.667c0,11.797,9.536,21.333,21.333,21.333h341.333c11.797,0,21.333-9.536,21.333-21.333V192h0.006V21.333H447.976z
			 M106.672,65.733l51.183,40.934L106.672,147.6V65.733z M405.338,147.621l-51.196-40.954l51.196-40.954V147.621z M365.855,42.667
			l-59.2,47.339c-5.056,4.053-8,10.176-8,16.661c0,6.485,2.944,12.608,8,16.661l59.2,47.339H146.143l59.179-47.339
			c5.077-4.053,8-10.176,8-16.661c0-6.485-2.923-12.608-8-16.661l-59.179-47.339H365.855z M362.665,320
			c0,58.816-47.851,106.667-106.667,106.667c-58.816,0-106.667-47.851-106.667-106.667v-42.667c0-11.797,9.536-21.333,21.333-21.333
			c11.797,0,21.333,9.536,21.333,21.333V320c0,35.285,28.715,64,64,64s64-28.715,64-64v-42.667c0-11.797,9.536-21.333,21.333-21.333
			c11.797,0,21.333,9.536,21.333,21.333V320z"/>
	</g>
</g>
<g>
</g>
<g>
</g>
<g>
</g>
<g>
</g>
<g>
</g>
<g>
</g>
<g>
</g>
<g>
</g>
<g>
</g>
<g>
</g>
<g>
</g>
<g>
</g>
<g>
</g>
<g>
</g>
<g>
</g>
</svg>
