<?xml version="1.0" encoding="iso-8859-1"?>
<!-- Generator: Adobe Illustrator 19.0.0, SVG Export Plug-In . SVG Version: 6.00 Build 0)  -->
<svg version="1.1" id="Layer_1" xmlns="http://www.w3.org/2000/svg" xmlns:xlink="http://www.w3.org/1999/xlink" x="0px" y="0px"
	 viewBox="0 0 512 512" style="enable-background:new 0 0 512 512;" xml:space="preserve">
<g>
	<g>
		<g>
			<path d="M487.083,94.827L448,36.203V21.333C448,9.557,438.443,0,426.667,0H85.333C73.536,0,64,9.557,64,21.333v14.869
				L24.917,94.827c-2.347,3.499-3.584,7.637-3.584,11.84v42.667c0,18.837,8.32,35.627,21.333,47.36v293.973
				C42.667,502.443,52.203,512,64,512h170.667V298.667c0-11.776,9.536-21.333,21.333-21.333h106.667
				c11.776,0,21.333,9.557,21.333,21.333V512h64c11.776,0,21.333-9.557,21.333-21.333V196.693
				c12.992-11.733,21.333-28.523,21.333-47.36v-42.667C490.667,102.464,489.408,98.325,487.083,94.827z M448,149.333
				c0,8.107-4.715,14.955-11.413,18.56c-1.195,0.64-2.411,1.088-3.627,1.493c-1.472,0.469-3.008,0.811-4.608,0.939
				c-0.725,0.064-1.472,0.256-2.197,0.235c-2.325-0.043-4.523-0.576-6.613-1.344c-0.853-0.299-1.685-0.704-2.517-1.131
				c-1.365-0.704-2.624-1.579-3.819-2.581c-0.875-0.725-1.707-1.493-2.475-2.347c-1.195-1.365-2.219-2.859-3.029-4.501
				c-0.363-0.704-0.661-1.429-0.917-2.155c-0.832-2.261-1.451-4.629-1.451-7.168v-42.667c0-11.776-9.557-21.333-21.333-21.333
				c-11.797,0-21.333,9.557-21.333,21.333v42.667c0,11.755-9.579,21.333-21.333,21.333c-11.776,0-21.333-9.579-21.333-21.333
				v-42.667c0-11.776-9.557-21.333-21.333-21.333c-11.797,0-21.333,9.557-21.333,21.333v42.667c0,11.755-9.579,21.333-21.333,21.333
				c-11.776,0-21.333-9.579-21.333-21.333v-42.667c0-11.776-9.557-21.333-21.333-21.333c-11.797,0-21.333,9.557-21.333,21.333
				v42.667c0,11.755-9.579,21.333-21.333,21.333c-11.776,0-21.333-9.579-21.333-21.333v-42.667c0-11.776-9.557-21.333-21.333-21.333
				c-11.797,0-21.333,9.557-21.333,21.333v42.667c0,2.539-0.64,4.885-1.451,7.147c-0.277,0.747-0.576,1.472-0.939,2.176
				c-0.789,1.621-1.813,3.072-2.965,4.416c-0.789,0.917-1.664,1.707-2.603,2.475c-1.152,0.96-2.389,1.835-3.733,2.539
				c-0.832,0.427-1.664,0.832-2.539,1.152c-2.112,0.747-4.309,1.28-6.635,1.323c-0.704,0.021-1.408-0.171-2.133-0.235
				c-1.621-0.128-3.157-0.469-4.672-0.939c-1.195-0.405-2.411-0.853-3.605-1.493C68.715,164.288,64,157.44,64,149.333v-36.203
				l39.083-58.624c2.325-3.499,3.584-7.637,3.584-11.84h298.667c0,4.203,1.237,8.341,3.584,11.84L448,113.131V149.333z"/>
			<rect x="277.333" y="320" width="64" height="192"/>
		</g>
	</g>
</g>
<g>
</g>
<g>
</g>
<g>
</g>
<g>
</g>
<g>
</g>
<g>
</g>
<g>
</g>
<g>
</g>
<g>
</g>
<g>
</g>
<g>
</g>
<g>
</g>
<g>
</g>
<g>
</g>
<g>
</g>
</svg>
