<?xml version="1.0" encoding="iso-8859-1"?>
<!-- Generator: Adobe Illustrator 19.0.0, SVG Export Plug-In . SVG Version: 6.00 Build 0)  -->
<svg version="1.1" id="Layer_1" xmlns="http://www.w3.org/2000/svg" xmlns:xlink="http://www.w3.org/1999/xlink" x="0px" y="0px"
	 viewBox="0 0 491.52 491.52" style="enable-background:new 0 0 491.52 491.52;" xml:space="preserve">
<g>
	<g>
		<path d="M471.04,358.4c11.305,0,20.48-9.155,20.48-20.48V112.64c0-11.325-9.175-20.48-20.48-20.48H102.4V30.72
			c0-11.325-9.175-20.48-20.48-20.48H20.48C9.175,10.24,0,19.395,0,30.72S9.175,51.2,20.48,51.2h40.96v61.44v20.48v204.8v102.4
			c0,11.325,9.175,20.48,20.48,20.48h87.593c7.107,12.186,20.173,20.48,35.287,20.48c15.114,0,28.18-8.294,35.287-20.48h175.186
			c7.107,12.186,20.173,20.48,35.287,20.48c22.63,0,40.96-18.33,40.96-40.96s-18.33-40.96-40.96-40.96
			c-15.114,0-28.18,8.294-35.287,20.48H240.087c-7.107-12.186-20.173-20.48-35.287-20.48c-15.114,0-28.18,8.294-35.287,20.48H102.4
			V358.4H471.04z M210.801,221.041c8.008-8.008,20.951-8.008,28.959,0l26.481,26.481V153.6c0-11.325,9.155-20.48,20.48-20.48
			c11.326,0,20.48,9.155,20.48,20.48v93.921l26.481-26.481c8.008-8.008,20.951-8.008,28.959,0c8.008,8.008,8.008,20.951,0,28.959
			l-61.419,61.42c-1.884,1.905-4.157,3.4-6.677,4.444c-2.499,1.044-5.161,1.577-7.823,1.577c-2.662,0-5.325-0.532-7.823-1.577
			c-2.519-1.044-4.792-2.539-6.677-4.444l-61.42-61.42C202.793,241.992,202.793,229.048,210.801,221.041z"/>
	</g>
</g>
<g>
</g>
<g>
</g>
<g>
</g>
<g>
</g>
<g>
</g>
<g>
</g>
<g>
</g>
<g>
</g>
<g>
</g>
<g>
</g>
<g>
</g>
<g>
</g>
<g>
</g>
<g>
</g>
<g>
</g>
</svg>
