<?xml version="1.0" encoding="iso-8859-1"?>
<!-- Generator: Adobe Illustrator 19.0.0, SVG Export Plug-In . SVG Version: 6.00 Build 0)  -->
<svg version="1.1" id="Layer_1" xmlns="http://www.w3.org/2000/svg" xmlns:xlink="http://www.w3.org/1999/xlink" x="0px" y="0px"
	 viewBox="0 0 491.526 491.526" style="enable-background:new 0 0 491.526 491.526;" xml:space="preserve">
<g>
	<g>
		<g>
			<path d="M40.96,92.163v40.96v20.48h450.56v-61.44c0-11.325-9.155-20.48-20.48-20.48H81.92v-40.96
				c0-11.325-9.155-20.48-20.48-20.48H20.48C9.155,10.243,0,19.398,0,30.723s9.155,20.48,20.48,20.48h20.48V92.163z"/>
			<rect x="40.966" y="194.563" width="450.56" height="40.96"/>
			<path d="M40.96,337.923v102.4c0,11.325,9.155,20.48,20.48,20.48h108.073c7.107,12.186,20.173,20.48,35.287,20.48
				c15.114,0,28.18-8.294,35.287-20.48h175.186c7.107,12.186,20.173,20.48,35.287,20.48c22.63,0,40.96-18.33,40.96-40.96
				s-18.33-40.96-40.96-40.96c-15.114,0-28.18,8.294-35.287,20.48H240.087c-7.107-12.186-20.173-20.48-35.287-20.48
				c-15.114,0-28.18,8.294-35.287,20.48H81.92v-61.44h389.12c11.325,0,20.48-9.155,20.48-20.48v-61.44H40.96V337.923z"/>
		</g>
	</g>
</g>
<g>
</g>
<g>
</g>
<g>
</g>
<g>
</g>
<g>
</g>
<g>
</g>
<g>
</g>
<g>
</g>
<g>
</g>
<g>
</g>
<g>
</g>
<g>
</g>
<g>
</g>
<g>
</g>
<g>
</g>
</svg>
