<?xml version="1.0" encoding="iso-8859-1"?>
<!-- Generator: Adobe Illustrator 19.0.0, SVG Export Plug-In . SVG Version: 6.00 Build 0)  -->
<svg version="1.1" id="Layer_1" xmlns="http://www.w3.org/2000/svg" xmlns:xlink="http://www.w3.org/1999/xlink" x="0px" y="0px"
	 viewBox="0 0 512 512" style="enable-background:new 0 0 512 512;" xml:space="preserve">
<g>
	<g>
		<path d="M469.333,0H42.667C30.869,0,21.333,9.557,21.333,21.333v128v341.333c0,11.776,9.536,21.333,21.333,21.333h106.667V209.515
			c6.699,2.389,13.824,3.819,21.333,3.819c7.829,0,15.275-1.493,22.229-4.075c-0.32,0.107-0.576,0.299-0.896,0.427V512h128V209.685
			c-0.32-0.128-0.576-0.32-0.896-0.427c6.955,2.581,14.4,4.075,22.229,4.075c7.509,0,14.635-1.429,21.333-3.819V512h106.667
			c11.797,0,21.333-9.557,21.333-21.333V149.333v-128C490.667,9.557,481.131,0,469.333,0z M448,149.333
			c0,11.755-9.557,21.333-21.333,21.333s-21.333-9.579-21.333-21.333v-42.667c0-11.776-9.536-21.333-21.333-21.333
			c-11.797,0-21.333,9.557-21.333,21.333v42.667c0,11.755-9.557,21.333-21.333,21.333S320,161.088,320,149.333v-42.667
			c0-11.776-9.536-21.333-21.333-21.333c-11.797,0-21.333,9.557-21.333,21.333v42.667c0,11.755-9.557,21.333-21.333,21.333
			s-21.333-9.579-21.333-21.333v-42.667c0-11.776-9.536-21.333-21.333-21.333c-11.797,0-21.333,9.557-21.333,21.333v42.667
			c0,11.755-9.557,21.333-21.333,21.333s-21.333-9.579-21.333-21.333v-42.667c0-11.776-9.536-21.333-21.333-21.333
			c-11.797,0-21.333,9.557-21.333,21.333v42.667c0,11.755-9.557,21.333-21.333,21.333S64,161.088,64,149.333V42.667h384V149.333z"/>
	</g>
</g>
<g>
</g>
<g>
</g>
<g>
</g>
<g>
</g>
<g>
</g>
<g>
</g>
<g>
</g>
<g>
</g>
<g>
</g>
<g>
</g>
<g>
</g>
<g>
</g>
<g>
</g>
<g>
</g>
<g>
</g>
</svg>
