<?xml version="1.0" encoding="iso-8859-1"?>
<!-- Generator: Adobe Illustrator 19.0.0, SVG Export Plug-In . SVG Version: 6.00 Build 0)  -->
<svg version="1.1" id="Layer_1" xmlns="http://www.w3.org/2000/svg" xmlns:xlink="http://www.w3.org/1999/xlink" x="0px" y="0px"
	 viewBox="0 0 491.52 491.52" style="enable-background:new 0 0 491.52 491.52;" xml:space="preserve">
<g>
	<g>
		<path d="M81.92,348.16h81.92h240.312c48.189,0,87.368-39.178,87.368-87.368V81.92c0-11.325-9.155-20.48-20.48-20.48H96.666
			L80.855,14.008C78.07,5.632,70.267,0,61.44,0H20.48C9.155,0,0,9.155,0,20.48s9.155,20.48,20.48,20.48h26.194l56.791,170.312
			l31.969,95.928H81.92C36.741,307.2,0,343.941,0,389.12c0,45.179,36.741,81.92,81.92,81.92h87.593
			c7.107,12.186,20.173,20.48,35.287,20.48c15.114,0,28.18-8.294,35.287-20.48h175.186c7.107,12.186,20.173,20.48,35.287,20.48
			c22.63,0,40.96-18.33,40.96-40.96s-18.33-40.96-40.96-40.96c-15.114,0-28.18,8.294-35.287,20.48H240.087
			c-7.107-12.186-20.173-20.48-35.287-20.48c-15.114,0-28.18,8.294-35.287,20.48H81.92c-22.589,0-40.96-18.371-40.96-40.96
			C40.96,366.531,59.331,348.16,81.92,348.16z"/>
	</g>
</g>
<g>
</g>
<g>
</g>
<g>
</g>
<g>
</g>
<g>
</g>
<g>
</g>
<g>
</g>
<g>
</g>
<g>
</g>
<g>
</g>
<g>
</g>
<g>
</g>
<g>
</g>
<g>
</g>
<g>
</g>
</svg>
