<?xml version="1.0" encoding="iso-8859-1"?>
<!-- Generator: Adobe Illustrator 19.0.0, SVG Export Plug-In . SVG Version: 6.00 Build 0)  -->
<svg version="1.1" id="Layer_1" xmlns="http://www.w3.org/2000/svg" xmlns:xlink="http://www.w3.org/1999/xlink" x="0px" y="0px"
	 viewBox="0 0 512 512" style="enable-background:new 0 0 512 512;" xml:space="preserve">
<g>
	<g>
		<path d="M490.667,170.667H466.07L447.701,60.501c-1.706-10.282-10.602-17.834-21.034-17.834H358.72
			C349.889,17.899,326.443,0,298.667,0h-85.333c-27.776,0-51.243,17.899-60.075,42.667H85.333c-10.453,0-19.349,7.552-21.056,17.834
			L45.93,170.667H21.333C9.536,170.667,0,180.203,0,192v85.333c0,11.797,9.536,21.333,21.333,21.333h21.333V456.64
			c0,30.528,24.832,55.36,55.339,55.36h315.968c30.528,0,55.36-24.832,55.36-55.36V298.667h21.333
			c11.776,0,21.333-9.536,21.333-21.333V192C512,180.203,502.443,170.667,490.667,170.667z M103.381,85.333h49.877
			C162.091,110.101,185.557,128,213.333,128h85.333c27.776,0,51.221-17.899,60.053-42.667h49.877l14.208,85.333H89.173
			L103.381,85.333z M469.333,256H42.667v-42.667h426.667V256z"/>
	</g>
</g>
<g>
</g>
<g>
</g>
<g>
</g>
<g>
</g>
<g>
</g>
<g>
</g>
<g>
</g>
<g>
</g>
<g>
</g>
<g>
</g>
<g>
</g>
<g>
</g>
<g>
</g>
<g>
</g>
<g>
</g>
</svg>
