<?xml version="1.0" encoding="iso-8859-1"?>
<!-- Generator: Adobe Illustrator 19.0.0, SVG Export Plug-In . SVG Version: 6.00 Build 0)  -->
<svg version="1.1" id="Layer_1" xmlns="http://www.w3.org/2000/svg" xmlns:xlink="http://www.w3.org/1999/xlink" x="0px" y="0px"
	 viewBox="0 0 491.525 491.525" style="enable-background:new 0 0 491.525 491.525;" xml:space="preserve">
<g>
	<g>
		<g>
			<path d="M190.321,116.884c3.994,3.994,9.237,6.001,14.479,6.001c5.243,0,10.486-2.007,14.479-6.001l26.481-26.481l26.481,26.481
				c3.994,3.994,9.236,6.001,14.479,6.001c5.243,0,10.486-2.007,14.479-6.001c8.008-8.008,8.008-20.951,0-28.959l-26.481-26.481
				L301.2,34.964c8.008-8.008,8.008-20.951,0-28.959s-20.951-8.008-28.959,0l-26.481,26.481L219.28,6.006
				c-8.008-8.008-20.951-8.008-28.959,0c-8.008,8.008-8.008,20.951,0,28.959l26.481,26.481l-26.481,26.481
				C182.313,95.933,182.313,108.877,190.321,116.884z"/>
			<path d="M491.441,20.485c0-2.273-0.287-4.547-1.085-6.779c-2.867-8.192-10.609-13.701-19.313-13.701h-102.4
				c-11.325,0-20.48,9.155-20.48,20.48s9.155,20.48,20.48,20.48h44.012L355.843,86.41c-4.854,3.891-7.68,9.769-7.68,15.995
				c0,6.226,2.826,12.104,7.68,15.995l56.812,45.445H78.871l56.812-45.445c4.854-3.891,7.68-9.769,7.68-15.995
				c0-6.226-2.826-12.104-7.68-15.995L78.871,40.965h44.012c11.325,0,20.48-9.155,20.48-20.48s-9.155-20.48-20.48-20.48h-102.4
				c-8.704,0-16.445,5.509-19.313,13.701c-0.799,2.232-1.085,4.506-1.085,6.779H0.003v163.84v286.72
				c0,11.325,9.155,20.48,20.48,20.48h450.56c11.325,0,20.48-9.155,20.48-20.48v-286.72V20.485H491.441z M40.963,63.104
				l49.132,39.301l-49.132,39.301V63.104z M348.163,307.205c0,56.463-45.937,102.4-102.4,102.4c-56.463,0-102.4-45.937-102.4-102.4
				v-40.96c0-11.325,9.155-20.48,20.48-20.48s20.48,9.155,20.48,20.48v40.96c0,33.874,27.566,61.44,61.44,61.44
				c33.874,0,61.44-27.566,61.44-61.44v-40.96c0-11.325,9.155-20.48,20.48-20.48s20.48,9.155,20.48,20.48V307.205z M450.563,141.706
				l-49.132-39.301l49.132-39.301V141.706z"/>
		</g>
	</g>
</g>
<g>
</g>
<g>
</g>
<g>
</g>
<g>
</g>
<g>
</g>
<g>
</g>
<g>
</g>
<g>
</g>
<g>
</g>
<g>
</g>
<g>
</g>
<g>
</g>
<g>
</g>
<g>
</g>
<g>
</g>
</svg>
