<?xml version="1.0" encoding="iso-8859-1"?>
<!-- Generator: Adobe Illustrator 19.0.0, SVG Export Plug-In . SVG Version: 6.00 Build 0)  -->
<svg version="1.1" id="Layer_1" xmlns="http://www.w3.org/2000/svg" xmlns:xlink="http://www.w3.org/1999/xlink" x="0px" y="0px"
	 viewBox="0 0 491.53 491.53" style="enable-background:new 0 0 491.53 491.53;" xml:space="preserve">
<g>
	<g>
		<path d="M491.501,20.485c0.003-2.268-0.358-4.559-1.135-6.779c-2.888-8.192-10.629-13.701-19.333-13.701H20.473
			c-8.684,0-16.425,5.509-19.313,13.701c-0.783,2.22-1.147,4.511-1.147,6.779H0.01v163.719c0,0.041-0.006,0.08-0.006,0.121v286.72
			c0,11.325,9.155,20.48,20.48,20.48h450.56c11.325,0,20.48-9.155,20.48-20.48v-286.72h0.006V20.485H491.501z M40.97,63.109
			l49.136,39.296L40.97,141.701V63.109z M450.57,141.721l-49.148-39.316l49.148-39.316V141.721z M412.665,40.965L355.833,86.41
			c-4.854,3.891-7.68,9.769-7.68,15.995c0,6.226,2.826,12.104,7.68,15.995l56.832,45.445H78.862l56.812-45.445
			c4.874-3.891,7.68-9.769,7.68-15.995c0-6.226-2.806-12.104-7.68-15.995L78.862,40.965H412.665z M348.164,307.205
			c0,56.463-45.937,102.4-102.4,102.4c-56.463,0-102.4-45.937-102.4-102.4v-40.96c0-11.325,9.155-20.48,20.48-20.48
			s20.48,9.155,20.48,20.48v40.96c0,33.874,27.566,61.44,61.44,61.44c33.874,0,61.44-27.566,61.44-61.44v-40.96
			c0-11.325,9.155-20.48,20.48-20.48s20.48,9.155,20.48,20.48V307.205z"/>
	</g>
</g>
<g>
</g>
<g>
</g>
<g>
</g>
<g>
</g>
<g>
</g>
<g>
</g>
<g>
</g>
<g>
</g>
<g>
</g>
<g>
</g>
<g>
</g>
<g>
</g>
<g>
</g>
<g>
</g>
<g>
</g>
</svg>
