<?xml version="1.0" encoding="iso-8859-1"?>
<!-- Generator: Adobe Illustrator 19.0.0, SVG Export Plug-In . SVG Version: 6.00 Build 0)  -->
<svg version="1.1" id="Layer_1" xmlns="http://www.w3.org/2000/svg" xmlns:xlink="http://www.w3.org/1999/xlink" x="0px" y="0px"
	 viewBox="0 0 512 512" style="enable-background:new 0 0 512 512;" xml:space="preserve">
<g>
	<g>
		<path d="M487.083,94.827L448,36.203V21.333C448,9.557,438.464,0,426.667,0H85.333C73.536,0,64,9.557,64,21.333v14.869
			L24.917,94.827c-2.325,3.499-3.584,7.637-3.584,11.84v42.667c0,18.837,8.341,35.627,21.333,47.36v293.973
			C42.667,502.443,52.203,512,64,512h85.333V209.515c6.699,2.389,13.824,3.819,21.333,3.819c7.829,0,15.275-1.493,22.229-4.075
			c-0.32,0.107-0.576,0.299-0.896,0.427V512h128V209.685c-0.32-0.128-0.576-0.32-0.896-0.427c6.955,2.581,14.4,4.075,22.229,4.075
			c7.509,0,14.635-1.429,21.333-3.819V512H448c11.797,0,21.333-9.557,21.333-21.333V196.693
			c12.992-11.733,21.333-28.523,21.333-47.36v-42.667C490.667,102.464,489.408,98.325,487.083,94.827z M448,149.333
			c0,8.107-4.715,14.955-11.413,18.56c-1.195,0.64-2.411,1.109-3.627,1.493c-1.472,0.469-2.987,0.789-4.587,0.939
			c-0.725,0.064-1.472,0.256-2.197,0.235c-2.347-0.043-4.544-0.576-6.656-1.344c-0.832-0.299-1.643-0.683-2.453-1.109
			c-1.429-0.725-2.731-1.643-3.947-2.667c-0.811-0.661-1.579-1.344-2.283-2.133c-1.259-1.429-2.325-2.987-3.157-4.693
			c-0.341-0.683-0.619-1.387-0.896-2.091c-0.811-2.261-1.451-4.629-1.451-7.189v-42.667c0-11.776-9.536-21.333-21.333-21.333
			c-11.797,0-21.333,9.557-21.333,21.333v42.667c0,11.755-9.557,21.333-21.333,21.333S320,161.088,320,149.333v-42.667
			c0-11.776-9.536-21.333-21.333-21.333c-11.797,0-21.333,9.557-21.333,21.333v42.667c0,11.755-9.557,21.333-21.333,21.333
			s-21.333-9.579-21.333-21.333v-42.667c0-11.776-9.536-21.333-21.333-21.333c-11.797,0-21.333,9.557-21.333,21.333v42.667
			c0,11.755-9.557,21.333-21.333,21.333s-21.333-9.579-21.333-21.333v-42.667c0-11.776-9.536-21.333-21.333-21.333
			c-11.797,0-21.333,9.557-21.333,21.333v42.667c0,2.539-0.64,4.885-1.451,7.147c-0.277,0.747-0.576,1.472-0.917,2.176
			c-0.811,1.621-1.835,3.115-3.029,4.48c-0.768,0.875-1.6,1.643-2.496,2.389c-1.195,0.981-2.432,1.856-3.819,2.56
			c-0.811,0.427-1.643,0.832-2.496,1.131c-2.112,0.768-4.309,1.301-6.656,1.344c-0.683,0.021-1.408-0.171-2.133-0.235
			c-1.621-0.128-3.157-0.469-4.651-0.939c-1.216-0.405-2.411-0.853-3.605-1.493C68.715,164.288,64,157.44,64,149.333v-36.203
			l39.083-58.624c2.325-3.499,3.584-7.637,3.584-11.84h298.667c0,4.203,1.259,8.341,3.584,11.84L448,113.131V149.333z"/>
	</g>
</g>
<g>
</g>
<g>
</g>
<g>
</g>
<g>
</g>
<g>
</g>
<g>
</g>
<g>
</g>
<g>
</g>
<g>
</g>
<g>
</g>
<g>
</g>
<g>
</g>
<g>
</g>
<g>
</g>
<g>
</g>
</svg>
