<?xml version="1.0" encoding="iso-8859-1"?>
<!-- Generator: Adobe Illustrator 19.0.0, SVG Export Plug-In . SVG Version: 6.00 Build 0)  -->
<svg version="1.1" id="Layer_1" xmlns="http://www.w3.org/2000/svg" xmlns:xlink="http://www.w3.org/1999/xlink" x="0px" y="0px"
	 viewBox="0 0 491.52 491.52" style="enable-background:new 0 0 491.52 491.52;" xml:space="preserve">
<g>
	<g>
		<path d="M491.438,20.48c0-2.273-0.307-4.547-1.085-6.779C487.485,5.509,479.744,0,471.04,0h-102.4
			c-11.325,0-20.48,9.155-20.48,20.48s9.155,20.48,20.48,20.48h44.012L355.84,86.405c-4.854,3.891-7.68,9.769-7.68,15.995
			c0,6.226,2.826,12.104,7.68,15.995l56.812,45.445H266.24V69.919l6.001,6.001c3.994,3.994,9.237,6.001,14.479,6.001
			s10.486-2.007,14.479-6.001c8.008-8.008,8.008-20.951,0-28.959l-40.94-40.94c-1.884-1.905-4.157-3.4-6.677-4.444
			c-4.997-2.068-10.65-2.068-15.647,0c-2.519,1.044-4.792,2.54-6.677,4.444l-40.94,40.94c-8.008,8.008-8.008,20.951,0,28.959
			c3.994,3.994,9.237,6.001,14.479,6.001s10.486-2.007,14.479-6.001l6.001-6.001v93.921H78.868l56.812-45.445
			c4.854-3.891,7.68-9.769,7.68-15.995c0-6.226-2.826-12.104-7.68-15.995L78.868,40.96h44.012c11.325,0,20.48-9.155,20.48-20.48
			S134.205,0,122.88,0H20.48C11.776,0,4.035,5.509,1.167,13.701c-0.799,2.232-1.085,4.506-1.085,6.779H0v163.84v286.72
			c0,11.325,9.155,20.48,20.48,20.48h450.56c11.325,0,20.48-9.155,20.48-20.48V184.32V20.48H491.438z M40.96,63.099L90.092,102.4
			L40.96,141.701V63.099z M348.16,307.2c0,56.463-45.937,102.4-102.4,102.4c-56.463,0-102.4-45.937-102.4-102.4v-40.96
			c0-11.325,9.155-20.48,20.48-20.48s20.48,9.155,20.48,20.48v40.96c0,33.874,27.566,61.44,61.44,61.44
			c33.874,0,61.44-27.566,61.44-61.44v-40.96c0-11.325,9.155-20.48,20.48-20.48s20.48,9.155,20.48,20.48V307.2z M450.56,141.701
			L401.428,102.4l49.132-39.301V141.701z"/>
	</g>
</g>
<g>
</g>
<g>
</g>
<g>
</g>
<g>
</g>
<g>
</g>
<g>
</g>
<g>
</g>
<g>
</g>
<g>
</g>
<g>
</g>
<g>
</g>
<g>
</g>
<g>
</g>
<g>
</g>
<g>
</g>
</svg>
