<?xml version="1.0" encoding="iso-8859-1"?>
<!-- Generator: Adobe Illustrator 19.0.0, SVG Export Plug-In . SVG Version: 6.00 Build 0)  -->
<svg version="1.1" id="Layer_1" xmlns="http://www.w3.org/2000/svg" xmlns:xlink="http://www.w3.org/1999/xlink" x="0px" y="0px"
	 viewBox="0 0 511.999 511.999" style="enable-background:new 0 0 511.999 511.999;" xml:space="preserve">
<g>
	<g>
		<path d="M490.653,170.687H302.994L421.366,35.399c7.765-8.853,6.869-22.335-2.005-30.099c-8.853-7.765-22.335-6.869-30.099,2.027
			L256,159.636L122.717,7.325c-7.765-8.917-21.226-9.813-30.099-2.027c-8.874,7.765-9.77,21.247-2.005,30.099l118.372,135.288
			H21.346c-11.796,0-21.332,9.536-21.332,21.332v85.328c0,11.796,9.536,21.332,21.332,21.332h21.332v157.964
			c0,30.526,24.831,55.357,55.335,55.357h315.95c30.526,0,55.357-24.831,55.357-55.357V298.679h21.332
			c11.775,0,21.332-9.536,21.332-21.332v-85.328C511.985,180.223,502.428,170.687,490.653,170.687z M362.66,405.34H149.339
			c-11.796,0-21.332-9.536-21.332-21.332s9.536-21.332,21.332-21.332H362.66c11.775,0,21.332,9.536,21.332,21.332
			S374.436,405.34,362.66,405.34z M469.321,256.015H42.679v-42.664h426.642V256.015z"/>
	</g>
</g>
<g>
</g>
<g>
</g>
<g>
</g>
<g>
</g>
<g>
</g>
<g>
</g>
<g>
</g>
<g>
</g>
<g>
</g>
<g>
</g>
<g>
</g>
<g>
</g>
<g>
</g>
<g>
</g>
<g>
</g>
</svg>
