<?xml version="1.0" encoding="iso-8859-1"?>
<!-- Generator: Adobe Illustrator 19.0.0, SVG Export Plug-In . SVG Version: 6.00 Build 0)  -->
<svg version="1.1" id="Layer_1" xmlns="http://www.w3.org/2000/svg" xmlns:xlink="http://www.w3.org/1999/xlink" x="0px" y="0px"
	 viewBox="0 0 512 512" style="enable-background:new 0 0 512 512;" xml:space="preserve">
<g>
	<g>
		<g>
			<path d="M487.083,94.827L448,36.203V21.333C448,9.557,438.464,0,426.667,0H85.333C73.536,0,64,9.557,64,21.333v14.869
				L24.917,94.827c-2.325,3.499-3.584,7.637-3.584,11.84v42.667c0,18.837,8.341,35.627,21.333,47.36v293.973
				C42.667,502.443,52.203,512,64,512h384c11.797,0,21.333-9.557,21.333-21.333V196.693c12.992-11.733,21.333-28.523,21.333-47.36
				v-42.667C490.667,102.464,489.408,98.325,487.083,94.827z M384,405.333c0,11.776-9.536,21.333-21.333,21.333H149.333
				c-11.797,0-21.333-9.557-21.333-21.333v-128c0-11.776,9.536-21.333,21.333-21.333h213.333c11.797,0,21.333,9.557,21.333,21.333
				V405.333z M448,149.333c0,8.107-4.715,14.955-11.413,18.56c-1.195,0.64-2.411,1.109-3.627,1.493
				c-1.472,0.469-2.987,0.789-4.587,0.939c-0.725,0.064-1.472,0.256-2.197,0.235c-2.347-0.043-4.544-0.576-6.635-1.344
				c-0.853-0.299-1.685-0.704-2.496-1.109c-1.387-0.725-2.667-1.621-3.883-2.624c-0.832-0.704-1.643-1.429-2.389-2.283
				c-1.216-1.387-2.261-2.901-3.072-4.565c-0.363-0.683-0.64-1.408-0.917-2.133c-0.811-2.261-1.451-4.629-1.451-7.168v-42.667
				c0-11.776-9.536-21.333-21.333-21.333c-11.797,0-21.333,9.557-21.333,21.333v42.667c0,11.755-9.557,21.333-21.333,21.333
				S320,161.088,320,149.333v-42.667c0-11.776-9.536-21.333-21.333-21.333c-11.797,0-21.333,9.557-21.333,21.333v42.667
				c0,11.755-9.557,21.333-21.333,21.333s-21.333-9.579-21.333-21.333v-42.667c0-11.776-9.536-21.333-21.333-21.333
				c-11.797,0-21.333,9.557-21.333,21.333v42.667c0,11.755-9.557,21.333-21.333,21.333s-21.333-9.579-21.333-21.333v-42.667
				c0-11.776-9.536-21.333-21.333-21.333c-11.797,0-21.333,9.557-21.333,21.333v42.667c0,2.539-0.64,4.885-1.451,7.147
				c-0.277,0.747-0.576,1.472-0.917,2.176c-0.811,1.621-1.835,3.115-3.029,4.48c-0.768,0.875-1.6,1.643-2.496,2.389
				c-1.195,0.981-2.432,1.856-3.819,2.56c-0.811,0.427-1.643,0.832-2.496,1.131c-2.112,0.768-4.309,1.301-6.656,1.344
				c-0.683,0.021-1.408-0.171-2.133-0.235c-1.621-0.128-3.157-0.469-4.651-0.939c-1.216-0.405-2.411-0.853-3.605-1.493
				C68.715,164.288,64,157.44,64,149.333v-36.203l39.083-58.624c2.325-3.499,3.584-7.637,3.584-11.84h298.667
				c0,4.203,1.259,8.341,3.584,11.84L448,113.131V149.333z"/>
			<rect x="170.673" y="298.667" width="170.667" height="85.333"/>
		</g>
	</g>
</g>
<g>
</g>
<g>
</g>
<g>
</g>
<g>
</g>
<g>
</g>
<g>
</g>
<g>
</g>
<g>
</g>
<g>
</g>
<g>
</g>
<g>
</g>
<g>
</g>
<g>
</g>
<g>
</g>
<g>
</g>
</svg>
