<?xml version="1.0" encoding="iso-8859-1"?>
<!-- Generator: Adobe Illustrator 19.0.0, SVG Export Plug-In . SVG Version: 6.00 Build 0)  -->
<svg version="1.1" id="Layer_1" xmlns="http://www.w3.org/2000/svg" xmlns:xlink="http://www.w3.org/1999/xlink" x="0px" y="0px"
	 viewBox="0 0 491.52 491.52" style="enable-background:new 0 0 491.52 491.52;" xml:space="preserve">
<g>
	<g>
		<path d="M453.571,286.72H308.654l13.844-203.305c1.782-21.422-5.53-42.762-20.07-58.552C287.887,9.052,267.243,0,245.76,0
			c-21.483,0-42.127,9.052-56.668,24.863c-14.541,15.79-21.852,37.13-20.111,58.245l13.885,203.612H37.949
			C17.019,286.72,0,303.739,0,324.669v46.981C0,392.581,17.019,409.6,37.949,409.6h3.011v38.175
			c0,24.125,19.62,43.745,43.745,43.745h322.109c24.125,0,43.745-19.62,43.745-43.745V409.6h3.01
			c20.931,0,37.949-17.019,37.949-37.949v-46.981C491.52,303.739,474.501,286.72,453.571,286.72z M450.56,368.64H40.96v-40.96
			h144.691h120.218H450.56V368.64z"/>
	</g>
</g>
<g>
</g>
<g>
</g>
<g>
</g>
<g>
</g>
<g>
</g>
<g>
</g>
<g>
</g>
<g>
</g>
<g>
</g>
<g>
</g>
<g>
</g>
<g>
</g>
<g>
</g>
<g>
</g>
<g>
</g>
</svg>
