<?xml version="1.0" encoding="iso-8859-1"?>
<!-- Generator: Adobe Illustrator 19.0.0, SVG Export Plug-In . SVG Version: 6.00 Build 0)  -->
<svg version="1.1" id="Layer_1" xmlns="http://www.w3.org/2000/svg" xmlns:xlink="http://www.w3.org/1999/xlink" x="0px" y="0px"
	 viewBox="0 0 512 512" style="enable-background:new 0 0 512 512;" xml:space="preserve">
<g>
	<g>
		<path d="M448,384c-7.509,0-14.635,1.536-21.333,3.925V234.667c0-35.285,28.715-64,64-64c11.797,0,21.333-9.557,21.333-21.333
			S502.464,128,490.667,128c-51.499,0-94.592,36.715-104.512,85.333H234.667V128h24.981c8.811,24.832,32.533,42.667,60.352,42.667
			c35.285,0,64-28.715,64-64C384,58.347,307.883,0,213.333,0S42.667,58.347,42.667,106.667c0,35.285,28.715,64,64,64
			c27.819,0,51.541-17.835,60.352-42.667H192v85.333H21.333C9.536,213.333,0,222.891,0,234.667v170.667
			C0,464.149,47.851,512,106.667,512c51.499,0,94.592-36.715,104.512-85.333h176.747C385.536,433.365,384,440.491,384,448
			c0,35.285,28.715,64,64,64c35.285,0,64-28.715,64-64C512,412.715,483.285,384,448,384z M384,384H211.179v-0.064
			c-0.085-0.384-0.256-0.725-0.341-1.109c-1.323-6.144-3.2-12.075-5.525-17.771c-0.832-2.048-1.963-3.925-2.923-5.909
			c-1.899-3.883-3.84-7.701-6.165-11.307c-1.365-2.133-2.923-4.075-4.416-6.08c-2.389-3.179-4.843-6.251-7.552-9.152
			c-1.792-1.899-3.648-3.669-5.568-5.44c-2.859-2.645-5.845-5.12-9.003-7.424c-2.091-1.557-4.181-3.051-6.4-4.459
			c-3.392-2.133-6.933-3.968-10.56-5.739c-2.261-1.088-4.459-2.24-6.805-3.179c-4.096-1.621-8.363-2.837-12.693-3.947
			c-2.112-0.555-4.139-1.28-6.293-1.707c-6.571-1.28-13.312-2.048-20.267-2.048c-6.784,0-13.355,0.789-19.776,2.005
			c-2.048,0.384-3.989,1.003-5.995,1.493c-4.331,1.088-8.576,2.368-12.693,3.968c-2.155,0.832-4.224,1.749-6.315,2.731
			c-3.861,1.792-7.552,3.819-11.136,6.037c-1.856,1.152-3.712,2.24-5.483,3.499c-0.832,0.597-1.792,1.045-2.603,1.643V256H384V384z
			 M448,469.333c-11.776,0-21.333-9.579-21.333-21.333c0-11.755,9.557-21.333,21.333-21.333s21.333,9.579,21.333,21.333
			C469.333,459.755,459.776,469.333,448,469.333z"/>
	</g>
</g>
<g>
</g>
<g>
</g>
<g>
</g>
<g>
</g>
<g>
</g>
<g>
</g>
<g>
</g>
<g>
</g>
<g>
</g>
<g>
</g>
<g>
</g>
<g>
</g>
<g>
</g>
<g>
</g>
<g>
</g>
</svg>
