<?xml version="1.0" encoding="iso-8859-1"?>
<!-- Generator: Adobe Illustrator 19.0.0, SVG Export Plug-In . SVG Version: 6.00 Build 0)  -->
<svg version="1.1" id="Layer_1" xmlns="http://www.w3.org/2000/svg" xmlns:xlink="http://www.w3.org/1999/xlink" x="0px" y="0px"
	 viewBox="0 0 491.52 491.52" style="enable-background:new 0 0 491.52 491.52;" xml:space="preserve">
<g>
	<g>
		<path d="M471.04,102.4h-81.92V20.48C389.12,9.155,379.965,0,368.64,0H122.88c-11.325,0-20.48,9.155-20.48,20.48v81.92H20.48
			C9.155,102.4,0,111.555,0,122.88v307.2c0,11.325,9.155,20.48,20.48,20.48h61.44v20.48c0,11.325,9.155,20.48,20.48,20.48
			s20.48-9.155,20.48-20.48v-20.48h40.96v-307.2h40.96v307.2h81.92v-307.2h40.96v307.2h40.96v20.48
			c0,11.325,9.155,20.48,20.48,20.48c11.325,0,20.48-9.155,20.48-20.48v-20.48h61.44c11.325,0,20.48-9.155,20.48-20.48v-307.2
			C491.52,111.555,482.365,102.4,471.04,102.4z M348.16,102.4h-20.48h-40.96H204.8h-40.96h-20.48V40.96h204.8V102.4z"/>
	</g>
</g>
<g>
</g>
<g>
</g>
<g>
</g>
<g>
</g>
<g>
</g>
<g>
</g>
<g>
</g>
<g>
</g>
<g>
</g>
<g>
</g>
<g>
</g>
<g>
</g>
<g>
</g>
<g>
</g>
<g>
</g>
</svg>
