<?xml version="1.0" encoding="iso-8859-1"?>
<!-- Generator: Adobe Illustrator 19.0.0, SVG Export Plug-In . SVG Version: 6.00 Build 0)  -->
<svg version="1.1" id="Layer_1" xmlns="http://www.w3.org/2000/svg" xmlns:xlink="http://www.w3.org/1999/xlink" x="0px" y="0px"
	 viewBox="0 0 512 512" style="enable-background:new 0 0 512 512;" xml:space="preserve">
<g>
	<g>
		<g>
			<path d="M255.997,0C172.967,0,123.901,24.171,85.33,56.555V21.333C85.33,9.557,75.773,0,63.997,0S42.663,9.557,42.663,21.333
				v85.333c0,11.776,9.557,21.333,21.333,21.333h85.333c11.776,0,21.333-9.557,21.333-21.333s-9.557-21.333-21.333-21.333h-31.808
				c32.213-25.643,71.637-42.667,138.475-42.667c117.632,0,213.333,95.701,213.333,213.333s-95.701,213.333-213.333,213.333
				c-9.771,0-19.541-0.661-29.056-1.963c-11.563-1.643-22.443,6.571-24.021,18.261c-1.6,11.669,6.571,22.421,18.24,24.021
				c11.435,1.557,23.147,2.347,34.837,2.347c141.163,0,256-114.837,256-256S397.159,0,255.997,0z"/>
			<path d="M167.997,450.406c-13.973-6.336-27.307-14.229-39.637-23.445c-9.451-7.04-22.805-5.12-29.867,4.331
				c-7.061,9.429-5.12,22.784,4.309,29.845c14.805,11.051,30.805,20.523,47.573,28.117c2.859,1.301,5.845,1.92,8.789,1.92
				c8.128,0,15.893-4.672,19.456-12.523C183.485,467.9,178.727,455.27,167.997,450.406z"/>
			<path d="M61.59,343.949c-4.864-10.731-17.536-15.467-28.245-10.645c-10.731,4.864-15.488,17.515-10.624,28.245
				c7.573,16.747,17.045,32.768,28.117,47.573c4.181,5.611,10.603,8.576,17.109,8.576c4.437,0,8.917-1.387,12.757-4.267
				c9.429-7.04,11.371-20.416,4.309-29.845C75.798,371.234,67.905,357.901,61.59,343.949z"/>
			<path d="M26.371,309.084c11.669-1.6,19.84-12.352,18.24-24.021c-1.301-9.515-1.941-19.307-1.941-29.056
				c0-11.797-9.557-21.333-21.333-21.333c-11.797,0-21.333,9.536-21.333,21.333c0,11.691,0.789,23.403,2.347,34.837
				c1.451,10.688,10.603,18.432,21.099,18.432C24.43,309.276,25.39,309.212,26.371,309.084z"/>
			<path d="M255.995,405.333c82.347,0,149.333-66.987,149.333-149.333s-66.987-149.333-149.333-149.333S106.661,173.653,106.661,256
				S173.648,405.333,255.995,405.333z M198.245,283.584l36.416-36.416v-33.835c0-11.776,9.557-21.333,21.333-21.333
				c11.776,0,21.333,9.557,21.333,21.333V256c0,2.773-0.576,5.547-1.643,8.149c-1.088,2.624-2.645,4.971-4.608,6.933l-42.667,42.667
				c-4.16,4.16-9.621,6.251-15.083,6.251c-5.461,0-10.923-2.091-15.083-6.251C189.904,305.408,189.904,291.925,198.245,283.584z"/>
		</g>
	</g>
</g>
<g>
</g>
<g>
</g>
<g>
</g>
<g>
</g>
<g>
</g>
<g>
</g>
<g>
</g>
<g>
</g>
<g>
</g>
<g>
</g>
<g>
</g>
<g>
</g>
<g>
</g>
<g>
</g>
<g>
</g>
</svg>
