<?xml version="1.0" encoding="iso-8859-1"?>
<!-- Generator: Adobe Illustrator 19.0.0, SVG Export Plug-In . SVG Version: 6.00 Build 0)  -->
<svg version="1.1" id="Layer_1" xmlns="http://www.w3.org/2000/svg" xmlns:xlink="http://www.w3.org/1999/xlink" x="0px" y="0px"
	 viewBox="0 0 491.52 491.52" style="enable-background:new 0 0 491.52 491.52;" xml:space="preserve">
<g>
	<g>
		<path d="M471.04,184.32h-0.532c13.005-17.162,21.012-38.298,21.012-61.44c0-56.463-45.957-102.4-102.4-102.4
			c-56.463,0-102.4,45.937-102.4,102.4c0,23.142,8.008,44.278,20.992,61.44H307.2c-11.325,0-20.48,9.155-20.48,20.48v122.88h-20.48
			V20.48C266.24,9.155,257.065,0,245.76,0h-81.92c-11.325,0-20.48,9.155-20.48,20.48v307.2H102.4V143.36v-20.48V40.96
			c0-11.325-9.175-20.48-20.48-20.48H20.48C9.155,20.48,0,29.635,0,40.96s9.155,20.48,20.48,20.48h40.96v61.44v20.48v204.8v102.4
			c0,11.325,9.155,20.48,20.48,20.48h87.593c7.107,12.186,20.152,20.48,35.287,20.48c15.114,0,28.18-8.294,35.267-20.48h175.206
			c7.107,12.186,20.152,20.48,35.287,20.48c22.61,0,40.96-18.33,40.96-40.96s-18.35-40.96-40.96-40.96
			c-15.135,0-28.18,8.294-35.287,20.48H240.067c-7.086-12.186-20.152-20.48-35.267-20.48c-15.135,0-28.181,8.294-35.287,20.48H102.4
			v-61.44h61.44h81.92h61.44h163.84c11.305,0,20.48-9.155,20.48-20.48V204.8C491.52,193.475,482.345,184.32,471.04,184.32z"/>
	</g>
</g>
<g>
</g>
<g>
</g>
<g>
</g>
<g>
</g>
<g>
</g>
<g>
</g>
<g>
</g>
<g>
</g>
<g>
</g>
<g>
</g>
<g>
</g>
<g>
</g>
<g>
</g>
<g>
</g>
<g>
</g>
</svg>
