<?xml version="1.0" encoding="iso-8859-1"?>
<!-- Generator: Adobe Illustrator 19.0.0, SVG Export Plug-In . SVG Version: 6.00 Build 0)  -->
<svg version="1.1" id="Layer_1" xmlns="http://www.w3.org/2000/svg" xmlns:xlink="http://www.w3.org/1999/xlink" x="0px" y="0px"
	 viewBox="0 0 491.52 491.52" style="enable-background:new 0 0 491.52 491.52;" xml:space="preserve">
<g>
	<g>
		<path d="M471.04,10.24h-81.92H163.84c-11.325,0-20.48,9.155-20.48,20.48v81.92v204.8H102.4V133.12v-20.48V30.72
			c0-11.325-9.155-20.48-20.48-20.48H20.48C9.155,10.24,0,19.395,0,30.72S9.155,51.2,20.48,51.2h40.96v61.44v20.48v204.8v102.4
			c0,11.325,9.155,20.48,20.48,20.48h87.593c7.107,12.186,20.173,20.48,35.287,20.48c15.114,0,28.18-8.294,35.287-20.48h175.186
			c7.107,12.186,20.173,20.48,35.287,20.48c22.61,0,40.96-18.33,40.96-40.96s-18.35-40.96-40.96-40.96
			c-15.114,0-28.18,8.294-35.287,20.48H240.087c-7.107-12.186-20.173-20.48-35.287-20.48c-15.114,0-28.18,8.294-35.287,20.48H102.4
			V358.4h61.44h81.92h225.28c11.325,0,20.48-9.155,20.48-20.48V256V30.72C491.52,19.395,482.365,10.24,471.04,10.24z M225.28,256
			v61.44h-40.96V133.12h40.96V256z M450.56,235.52H409.6V112.64V51.2h40.96V235.52z"/>
	</g>
</g>
<g>
</g>
<g>
</g>
<g>
</g>
<g>
</g>
<g>
</g>
<g>
</g>
<g>
</g>
<g>
</g>
<g>
</g>
<g>
</g>
<g>
</g>
<g>
</g>
<g>
</g>
<g>
</g>
<g>
</g>
</svg>
