<?xml version="1.0" encoding="iso-8859-1"?>
<!-- Generator: Adobe Illustrator 19.0.0, SVG Export Plug-In . SVG Version: 6.00 Build 0)  -->
<svg version="1.1" id="Layer_1" xmlns="http://www.w3.org/2000/svg" xmlns:xlink="http://www.w3.org/1999/xlink" x="0px" y="0px"
	 viewBox="0 0 512 512" style="enable-background:new 0 0 512 512;" xml:space="preserve">
<g>
	<g>
		<g>
			<path d="M490.667,0H21.333C9.536,0,0,9.557,0,21.333s9.536,21.333,21.333,21.333V384h213.333v48.576
				c-12.693,7.403-21.333,21.013-21.333,36.757C213.333,492.907,232.427,512,256,512c23.573,0,42.667-19.093,42.667-42.667
				c0-15.744-8.64-29.355-21.333-36.757V384h213.333V42.667c11.797,0,21.333-9.557,21.333-21.333S502.464,0,490.667,0z M256,298.667
				c-58.816,0-106.667-47.851-106.667-106.667S197.184,85.333,256,85.333S362.667,133.184,362.667,192S314.816,298.667,256,298.667z
				"/>
			<path d="M256,128c-35.285,0-64,28.715-64,64s28.715,64,64,64s64-28.715,64-64S291.285,128,256,128z M234.667,234.667v-85.333
				l64,42.667L234.667,234.667z"/>
		</g>
	</g>
</g>
<g>
</g>
<g>
</g>
<g>
</g>
<g>
</g>
<g>
</g>
<g>
</g>
<g>
</g>
<g>
</g>
<g>
</g>
<g>
</g>
<g>
</g>
<g>
</g>
<g>
</g>
<g>
</g>
<g>
</g>
</svg>
