<?xml version="1.0" encoding="iso-8859-1"?>
<!-- Generator: Adobe Illustrator 19.0.0, SVG Export Plug-In . SVG Version: 6.00 Build 0)  -->
<svg version="1.1" id="Layer_1" xmlns="http://www.w3.org/2000/svg" xmlns:xlink="http://www.w3.org/1999/xlink" x="0px" y="0px"
	 viewBox="0 0 491.52 491.52" style="enable-background:new 0 0 491.52 491.52;" xml:space="preserve">
<g>
	<g>
		<g>
			<path d="M307.2,245.76c0-45.179-36.741-81.92-81.92-81.92H20.48C9.155,163.84,0,173.015,0,184.32V307.2
				c0,11.305,9.155,20.48,20.48,20.48h204.8C270.459,327.68,307.2,290.939,307.2,245.76z"/>
			<path d="M471.04,40.96H409.6v409.6h61.44c11.325,0,20.48-9.175,20.48-20.48V61.44C491.52,50.135,482.365,40.96,471.04,40.96z"/>
			<path d="M81.92,61.44v61.44h143.36c67.768,0,122.88,55.112,122.88,122.88s-55.112,122.88-122.88,122.88H81.92v61.44
				c0,11.305,9.155,20.48,20.48,20.48h266.24V40.96H102.4C91.075,40.96,81.92,50.135,81.92,61.44z"/>
		</g>
	</g>
</g>
<g>
</g>
<g>
</g>
<g>
</g>
<g>
</g>
<g>
</g>
<g>
</g>
<g>
</g>
<g>
</g>
<g>
</g>
<g>
</g>
<g>
</g>
<g>
</g>
<g>
</g>
<g>
</g>
<g>
</g>
</svg>
