<?xml version="1.0" encoding="iso-8859-1"?>
<!-- Generator: Adobe Illustrator 19.0.0, SVG Export Plug-In . SVG Version: 6.00 Build 0)  -->
<svg version="1.1" id="Layer_1" xmlns="http://www.w3.org/2000/svg" xmlns:xlink="http://www.w3.org/1999/xlink" x="0px" y="0px"
	 viewBox="0 0 512.001 512.001" style="enable-background:new 0 0 512.001 512.001;" xml:space="preserve">
<g>
	<g>
		<g>
			<path d="M342.325,32.349c0-11.963-9.699-21.662-21.662-21.662H191.335c-11.963,0-21.662,9.699-21.662,21.662v45.317h172.652
				V32.349z"/>
			<path d="M490.338,170.465H342.325V120.99H279.25c0.979,13.754-9.899,25.006-23.25,25.006c-13.308,0-24.228-11.206-23.25-25.006
				h-63.076v49.476h-27.877l-24.54-90.307c-2.563-9.433-11.127-15.981-20.904-15.981h-74.69C9.699,64.178,0,73.876,0,85.84V298.4
				c0,11.963,9.699,21.662,21.662,21.662h39.612c0-0.003,0-0.006,0-0.009c0-41.662,33.894-75.557,75.557-75.557
				c41.67,0,75.573,33.895,75.573,75.557c0,0.003,0,0.006,0,0.009c12.227,0,265.707,0,277.936,0
				c11.963,0,21.662-9.699,21.662-21.662V192.127C512,180.164,502.301,170.465,490.338,170.465z"/>
			<path d="M136.831,395.626c-25.552,0-48.166-12.765-61.846-32.24h-8.208v116.266c0,11.963,9.699,21.662,21.662,21.662h335.124
				c11.963,0,21.662-9.699,21.662-21.662V363.386H198.69C185.007,382.861,162.387,395.626,136.831,395.626z M256,395.529
				c20.338,0,36.824,16.486,36.824,36.824S276.338,469.177,256,469.177c-20.338,0-36.824-16.486-36.824-36.824
				C219.176,412.015,235.664,395.529,256,395.529z"/>
			<path d="M169.675,320.058c0-18.104-14.732-32.832-32.839-32.832c-18.104,0-32.832,14.729-32.832,32.832
				c0,18.108,14.729,32.839,32.832,32.839C154.942,352.897,169.675,338.166,169.675,320.058z"/>
		</g>
	</g>
</g>
<g>
</g>
<g>
</g>
<g>
</g>
<g>
</g>
<g>
</g>
<g>
</g>
<g>
</g>
<g>
</g>
<g>
</g>
<g>
</g>
<g>
</g>
<g>
</g>
<g>
</g>
<g>
</g>
<g>
</g>
</svg>
