<?xml version="1.0" encoding="iso-8859-1"?>
<!-- Generator: Adobe Illustrator 19.0.0, SVG Export Plug-In . SVG Version: 6.00 Build 0)  -->
<svg version="1.1" id="Layer_1" xmlns="http://www.w3.org/2000/svg" xmlns:xlink="http://www.w3.org/1999/xlink" x="0px" y="0px"
	 viewBox="0 0 512 512" style="enable-background:new 0 0 512 512;" xml:space="preserve">
<g>
	<g>
		<g>
			<path d="M486.053,457.994V180.669c11.524-0.495,20.724-9.969,20.724-21.615c0-11.646-9.199-21.121-20.724-21.615V98.973
				c11.524-0.495,20.724-9.968,20.724-21.615c0-11.963-9.699-21.662-21.662-21.662c-9.549,0-88.446,0-97.798,0v125.02h55.412
				v277.277c-17.879,0-25.946,9.903-25.946,21.662c0,11.963,9.699,21.662,21.662,21.662h51.893c11.963,0,21.662-9.699,21.662-21.662
				C512,468.175,504.267,457.994,486.053,457.994z"/>
			<path d="M322.331,10.682h-132.66c-11.963,0-21.662,9.699-21.662,21.662c0,24.971,0,147.032,0,164.373
				c0,11.963,9.699,21.662,21.662,21.662h44.663v41.953H220.94c-11.963,0-21.662,9.699-21.662,21.662s9.699,21.662,21.662,21.662
				h13.395v51.99c0,11.963,9.699,21.662,21.662,21.662c11.945,0,21.662,9.718,21.662,21.662s-9.718,21.662-21.662,21.662
				s-21.662-9.718-21.662-21.662c0-11.963-9.699-21.662-21.662-21.662s-21.662,9.699-21.662,21.662
				c0,35.834,29.153,64.987,64.987,64.987s64.987-29.153,64.987-64.987c0-28.24-18.111-52.319-43.325-61.261v-34.053h13.405
				c11.963,0,21.662-9.699,21.662-21.662s-9.699-21.662-21.662-21.662h-13.405V218.38h44.673c11.963,0,21.662-9.699,21.662-21.662
				c0-17.34,0-139.417,0-164.374C343.993,20.379,334.294,10.682,322.331,10.682z"/>
			<path d="M5.224,77.357c0,11.647,9.199,21.121,20.724,21.615v38.466c-11.524,0.495-20.724,9.969-20.724,21.615
				s9.199,21.119,20.724,21.615v277.325C8.068,457.992,0,467.895,0,479.655c0,11.963,9.699,21.662,21.662,21.662h51.893
				c11.963,0,21.662-9.699,21.662-21.662c0-11.48-7.733-21.662-25.946-21.662V180.715h55.412V55.695c-9.354,0-88.246,0-97.798,0
				C14.922,55.694,5.224,65.393,5.224,77.357z"/>
		</g>
	</g>
</g>
<g>
</g>
<g>
</g>
<g>
</g>
<g>
</g>
<g>
</g>
<g>
</g>
<g>
</g>
<g>
</g>
<g>
</g>
<g>
</g>
<g>
</g>
<g>
</g>
<g>
</g>
<g>
</g>
<g>
</g>
</svg>
