<?xml version="1.0" encoding="iso-8859-1"?>
<!-- Generator: Adobe Illustrator 19.0.0, SVG Export Plug-In . SVG Version: 6.00 Build 0)  -->
<svg version="1.1" id="Layer_1" xmlns="http://www.w3.org/2000/svg" xmlns:xlink="http://www.w3.org/1999/xlink" x="0px" y="0px"
	 viewBox="0 0 512 512" style="enable-background:new 0 0 512 512;" xml:space="preserve">
<g>
	<g>
		<g>
			<path d="M347.823,177.438V22.606C347.823,10.121,337.702,0,325.217,0H186.781c-12.484,0-22.606,10.121-22.606,22.606v154.833
				H15.929v311.956C15.929,501.879,26.05,512,38.534,512h120.563c12.484,0,22.606-10.121,22.606-22.606V298.001h51.687v29.508
				h-13.978c-12.484,0-22.606,10.121-22.606,22.606s10.121,22.606,22.606,22.606h73.177c12.484,0,22.606-10.121,22.606-22.606
				s-10.121-22.606-22.606-22.606h-13.987v-29.508h51.696v191.393c0,12.484,10.121,22.606,22.606,22.606h120.563
				c12.484,0,22.606-10.121,22.606-22.606V177.438H347.823z M255.999,140.019c-13.318,0-24.113-10.795-24.113-24.113
				c0-13.316,10.795-24.113,24.113-24.113c13.318,0,24.113,10.796,24.113,24.113C280.112,129.224,269.317,140.019,255.999,140.019z"
				/>
			<path d="M292.587,391.558H219.41c-12.484,0-22.606,10.121-22.606,22.606v75.231c0,12.484,10.121,22.606,22.606,22.606h73.177
				c12.484,0,22.606-10.121,22.606-22.606v-75.231C315.193,401.679,305.073,391.558,292.587,391.558z"/>
			<path d="M496.07,69.58c0-12.484-10.121-22.606-22.605-22.606h-80.43v85.253H496.07V69.58z"/>
			<path d="M118.965,46.974h-80.43c-12.484,0-22.606,10.121-22.606,22.606v62.647h103.036V46.974z"/>
		</g>
	</g>
</g>
<g>
</g>
<g>
</g>
<g>
</g>
<g>
</g>
<g>
</g>
<g>
</g>
<g>
</g>
<g>
</g>
<g>
</g>
<g>
</g>
<g>
</g>
<g>
</g>
<g>
</g>
<g>
</g>
<g>
</g>
</svg>
