<?xml version="1.0" encoding="iso-8859-1"?>
<!-- Generator: Adobe Illustrator 19.0.0, SVG Export Plug-In . SVG Version: 6.00 Build 0)  -->
<svg version="1.1" id="Layer_1" xmlns="http://www.w3.org/2000/svg" xmlns:xlink="http://www.w3.org/1999/xlink" x="0px" y="0px"
	 viewBox="0 0 512 512" style="enable-background:new 0 0 512 512;" xml:space="preserve">
<g>
	<g>
		<g>
			<path d="M445.073,323.063h-13.116c-4.253-7.677-10.604-14.026-18.28-18.28v-71.179l37.974-45.122
				c3.429-4.075,5.309-9.231,5.309-14.556V22.606C456.961,10.121,446.84,0,434.355,0h-86.57c-12.484,0-22.606,10.121-22.606,22.606
				v151.32c0,5.326,1.881,10.481,5.309,14.556l37.976,45.122v71.179c-7.677,4.253-14.027,10.604-18.28,18.28h-13.117
				c-12.484,0-22.606,10.121-22.606,22.606s10.121,22.606,22.606,22.606h108.005c12.484,0,22.606-10.121,22.606-22.606
				S457.558,323.063,445.073,323.063z"/>
			<path d="M44.323,489.394c0,12.484,10.121,22.606,22.606,22.606h196.157c12.484,0,22.606-10.121,22.606-22.606v-31.703H44.323
				V489.394z"/>
			<path d="M142.402,76.71v42.37h143.289V54.104H165.008C152.523,54.104,142.402,64.225,142.402,76.71z"/>
			<path d="M50.378,240.603c-3.891,4.184-6.055,9.684-6.055,15.397v156.48h241.368c0-2.366,0-245.805,0-248.188h-164.32
				L50.378,240.603z"/>
		</g>
	</g>
</g>
<g>
</g>
<g>
</g>
<g>
</g>
<g>
</g>
<g>
</g>
<g>
</g>
<g>
</g>
<g>
</g>
<g>
</g>
<g>
</g>
<g>
</g>
<g>
</g>
<g>
</g>
<g>
</g>
<g>
</g>
</svg>
