<?xml version="1.0" encoding="iso-8859-1"?>
<!-- Generator: Adobe Illustrator 19.0.0, SVG Export Plug-In . SVG Version: 6.00 Build 0)  -->
<svg version="1.1" id="Layer_1" xmlns="http://www.w3.org/2000/svg" xmlns:xlink="http://www.w3.org/1999/xlink" x="0px" y="0px"
	 viewBox="0 0 512 512" style="enable-background:new 0 0 512 512;" xml:space="preserve">
<g>
	<g>
		<path d="M493.639,48.062h-26.187c-10.14,0-18.361,8.221-18.361,18.362v76.425h-15.105V66.424c0-10.14-8.221-18.362-18.362-18.362
			h-60.458c-10.14,0-18.361,8.221-18.361,18.362v40.236H139.655V66.424c0-10.14-8.221-18.362-18.362-18.362
			c-19.435,0-84.427,0-102.932,0C8.221,48.062,0,56.283,0,66.424v189.572c0,10.14,8.221,18.361,18.362,18.361h24.113v171.218
			c0,10.14,8.221,18.362,18.362,18.362h60.457c10.14,0,18.362-8.221,18.362-18.362v-51.253h197.148v51.253
			c0,10.14,8.221,18.362,18.361,18.362h60.458c10.14,0,18.362-8.221,18.362-18.362V179.572h33.467
			c10.14,0,18.362-8.221,18.362-18.361V84.785h7.826c10.14,0,18.361-8.221,18.361-18.361S503.779,48.062,493.639,48.062z
			 M336.803,357.6H139.655v-22.785h197.148V357.6z M336.803,237.635H139.655v-26.926h197.148V237.635z M336.803,173.985H139.655
			v-30.602h197.148V173.985z"/>
	</g>
</g>
<g>
</g>
<g>
</g>
<g>
</g>
<g>
</g>
<g>
</g>
<g>
</g>
<g>
</g>
<g>
</g>
<g>
</g>
<g>
</g>
<g>
</g>
<g>
</g>
<g>
</g>
<g>
</g>
<g>
</g>
</svg>
