<?xml version="1.0" encoding="iso-8859-1"?>
<!-- Generator: Adobe Illustrator 19.0.0, SVG Export Plug-In . SVG Version: 6.00 Build 0)  -->
<svg version="1.1" id="Layer_1" xmlns="http://www.w3.org/2000/svg" xmlns:xlink="http://www.w3.org/1999/xlink" x="0px" y="0px"
	 viewBox="0 0 512 512" style="enable-background:new 0 0 512 512;" xml:space="preserve">
<g>
	<g>
		<g>
			<path d="M417.611,238.97c51.593,0,93.568-41.974,93.568-93.568V58.93c0-11.925-9.668-21.592-21.593-21.592h-98.94V21.593
				C390.646,9.668,380.978,0,369.053,0s-21.593,9.668-21.593,21.593v15.745H164.544V21.593C164.544,9.668,154.876,0,142.951,0
				s-21.593,9.668-21.593,21.593v15.745H22.42c-11.925,0-21.593,9.668-21.593,21.592v86.472c0,51.593,41.974,93.568,93.568,93.568
				h26.963v102.708H22.414c-11.925,0-21.593,9.668-21.593,21.593c0,9.362,0.001,104.875,0.001,127.137
				c0,11.925,9.668,21.593,21.593,21.593c11.71,0,227.385-0.001,237.014-0.001c0-80.736,0.33-187.352,0.33-202.387
				c0-19.223-23.308-28.817-36.86-15.269l-47.335,47.335h-11.019V238.97h182.917v50.093c-15.624,0-23.583,10.74-23.583,21.593v9.43
				c20.549,0,166.969,0,187.299,0v-9.43c0-11.925-9.668-21.593-21.592-21.593h-98.94V238.97H417.611z M234.41,195.784h-69.866
				v-28.84h69.866V195.784z M347.461,195.784h-69.866v-28.84h69.866V195.784z"/>
			<path d="M281.022,511.999h208.563c11.925,0,21.593-9.668,21.593-21.592c0-18.113,0-130.986,0-148.728
				c-15.676,0-223.147,0-230.156,0V511.999z"/>
		</g>
	</g>
</g>
<g>
</g>
<g>
</g>
<g>
</g>
<g>
</g>
<g>
</g>
<g>
</g>
<g>
</g>
<g>
</g>
<g>
</g>
<g>
</g>
<g>
</g>
<g>
</g>
<g>
</g>
<g>
</g>
<g>
</g>
</svg>
