<?xml version="1.0" encoding="iso-8859-1"?>
<!-- Generator: Adobe Illustrator 19.0.0, SVG Export Plug-In . SVG Version: 6.00 Build 0)  -->
<svg version="1.1" id="Layer_1" xmlns="http://www.w3.org/2000/svg" xmlns:xlink="http://www.w3.org/1999/xlink" x="0px" y="0px"
	 viewBox="0 0 512 512" style="enable-background:new 0 0 512 512;" xml:space="preserve">
<g>
	<g>
		<g>
			<path d="M145.087,37.382c0-11.694-9.48-21.174-21.174-21.174H30.039c-11.694,0-21.174,9.48-21.174,21.174v39.342h136.222V37.382z
				"/>
			<path d="M324.11,37.382c0-11.694-9.48-21.174-21.174-21.174h-93.873c-11.694,0-21.174,9.48-21.174,21.174v39.342H324.11V37.382z"
				/>
			<path d="M503.135,37.382c0-11.694-9.48-21.174-21.174-21.174h-93.873c-11.694,0-21.174,9.48-21.174,21.174v39.342h136.222V37.382
				z"/>
			<path d="M512,212.24v-93.167H358.048v93.167c0,7.098,3.505,13.364,8.865,17.206v139.123h-42.802V229.445
				c5.36-3.842,8.865-10.109,8.865-17.206v-93.167H179.025v93.167c0,7.098,3.505,13.364,8.865,17.206v139.123h-42.803V229.445
				c5.36-3.842,8.865-10.109,8.865-17.206v-93.167H0v93.167c0,7.098,3.505,13.364,8.865,17.206v143.092
				C3.505,376.379,0,382.645,0,389.743v84.875c0,11.694,9.48,21.174,21.174,21.174h469.651c11.694,0,21.174-9.48,21.174-21.174
				v-84.875c0-7.099-3.505-13.365-8.865-17.208V229.446C508.495,225.603,512,219.337,512,212.24z M55.758,410.961
				c0-0.017,0.003-0.032,0.003-0.049h42.432c0,0.017,0.003,0.032,0.003,0.049C98.194,439,55.758,439.03,55.758,410.961z
				 M102.738,368.563H51.214V233.414h4.588v22.582c0,11.694,9.48,21.174,21.174,21.174c11.694,0,21.174-9.48,21.174-21.174v-22.582
				h4.588V368.563z M234.781,410.961c0-0.017,0.003-0.032,0.003-0.049h42.432C277.216,439.045,234.781,439.008,234.781,410.961z
				 M281.763,368.563h-51.524V233.414h4.588v22.582c0,11.694,9.48,21.174,21.174,21.174c11.694,0,21.174-9.48,21.174-21.174v-22.582
				h4.588V368.563z M413.807,410.912h42.432C456.241,439.021,413.807,439.056,413.807,410.912z M460.786,368.563h-51.524V233.414
				h4.588v22.582c0,11.694,9.48,21.174,21.174,21.174c11.694,0,21.174-9.48,21.174-21.174v-22.582h4.588V368.563z"/>
		</g>
	</g>
</g>
<g>
</g>
<g>
</g>
<g>
</g>
<g>
</g>
<g>
</g>
<g>
</g>
<g>
</g>
<g>
</g>
<g>
</g>
<g>
</g>
<g>
</g>
<g>
</g>
<g>
</g>
<g>
</g>
<g>
</g>
</svg>
