<?xml version="1.0" encoding="iso-8859-1"?>
<!-- Generator: Adobe Illustrator 19.0.0, SVG Export Plug-In . SVG Version: 6.00 Build 0)  -->
<svg version="1.1" id="Layer_1" xmlns="http://www.w3.org/2000/svg" xmlns:xlink="http://www.w3.org/1999/xlink" x="0px" y="0px"
	 viewBox="0 0 512 512" style="enable-background:new 0 0 512 512;" xml:space="preserve">
<g>
	<g>
		<g>
			<path d="M419.321,214.506v-88.316c14.117-7.823,23.678-22.866,23.678-40.149c0-25.337-20.539-45.876-45.876-45.876
				c-17.357,0-32.46,9.641-40.253,23.859H221.567C219.118,28.223,189.389,0,152.935,0c-37.937,0-68.8,30.863-68.8,68.8v123.415
				c-26.297,20.847-41.673,52.309-41.673,86.432v31.274h220.962v-31.274c0-35.091-16.231-66.18-41.673-86.429v-83.798h135.328
				c4.176,7.457,10.37,13.627,17.847,17.77v88.316c-37.914,9.868-65.986,44.391-65.986,85.351c0,48.624,39.559,88.185,88.185,88.185
				c48.626,0,88.185-39.559,88.185-88.185C485.307,258.896,457.235,224.373,419.321,214.506z M152.942,230.777
				c-6.278,0-11.365-5.088-11.365-11.365s5.089-11.365,11.365-11.365s11.365,5.088,11.365,11.365S159.22,230.777,152.942,230.777z
				 M152.942,97.588c-6.278,0-11.365-5.088-11.365-11.365s5.089-11.365,11.365-11.365s11.365,5.088,11.365,11.365
				S159.22,97.588,152.942,97.588z M397.122,332.363c-17.954,0-32.508-14.555-32.508-32.507c0-17.954,14.555-32.508,32.508-32.508
				c17.954,0,32.507,14.555,32.507,32.508C429.631,317.81,415.076,332.363,397.122,332.363z"/>
			<rect x="42.462" y="354.313" width="220.961" height="53.468"/>
			<path d="M270.027,452.182H35.858l-8.423,31.962C23.728,498.211,34.352,512,48.901,512h208.083
				c14.546,0,25.173-13.787,21.466-27.854L270.027,452.182z"/>
		</g>
	</g>
</g>
<g>
</g>
<g>
</g>
<g>
</g>
<g>
</g>
<g>
</g>
<g>
</g>
<g>
</g>
<g>
</g>
<g>
</g>
<g>
</g>
<g>
</g>
<g>
</g>
<g>
</g>
<g>
</g>
<g>
</g>
</svg>
