<?xml version="1.0" encoding="iso-8859-1"?>
<!-- Generator: Adobe Illustrator 19.0.0, SVG Export Plug-In . SVG Version: 6.00 Build 0)  -->
<svg version="1.1" id="Layer_1" xmlns="http://www.w3.org/2000/svg" xmlns:xlink="http://www.w3.org/1999/xlink" x="0px" y="0px"
	 viewBox="0 0 512 512" style="enable-background:new 0 0 512 512;" xml:space="preserve">
<g>
	<g>
		<g>
			<path d="M430.306,337.395H81.694C36.647,337.395,0,374.044,0,419.089c0,45.047,36.647,81.694,81.694,81.694h348.612
				c45.047,0,81.694-36.647,81.694-81.694C512,374.044,475.353,337.395,430.306,337.395z M104.127,433.728
				c-8.084,0-14.638-6.554-14.638-14.638c0-8.085,6.554-14.638,14.638-14.638c8.085,0,14.638,6.554,14.638,14.638
				C118.765,427.175,112.211,433.728,104.127,433.728z M180.063,433.728c-8.085,0-14.638-6.554-14.638-14.638
				c0-8.085,6.554-14.638,14.638-14.638c8.084,0,14.638,6.554,14.638,14.638C194.701,427.175,188.147,433.728,180.063,433.728z
				 M256.001,433.728c-8.085,0-14.638-6.554-14.638-14.638c0-8.085,6.554-14.638,14.638-14.638s14.638,6.554,14.638,14.638
				C270.639,427.175,264.085,433.728,256.001,433.728z M331.937,433.728c-8.084,0-14.638-6.554-14.638-14.638
				c0-8.085,6.554-14.638,14.638-14.638c8.085,0,14.638,6.554,14.638,14.638C346.575,427.175,340.022,433.728,331.937,433.728z
				 M407.873,433.728c-8.085,0-14.638-6.554-14.638-14.638c0-8.085,6.554-14.638,14.638-14.638c8.084,0,14.638,6.554,14.638,14.638
				C422.511,427.175,415.958,433.728,407.873,433.728z"/>
			<path d="M396.463,32.88L396.463,32.88c0-11.964-9.699-21.663-21.663-21.663h-57.535v130.389c0,11.964-9.699,21.663-21.663,21.663
				h-79.196c-11.964,0-21.663-9.699-21.663-21.663V11.217H137.21c-11.964,0-21.663,9.699-21.663,21.663v261.191h280.916V32.88z"/>
		</g>
	</g>
</g>
<g>
</g>
<g>
</g>
<g>
</g>
<g>
</g>
<g>
</g>
<g>
</g>
<g>
</g>
<g>
</g>
<g>
</g>
<g>
</g>
<g>
</g>
<g>
</g>
<g>
</g>
<g>
</g>
<g>
</g>
</svg>
