<?xml version="1.0" encoding="iso-8859-1"?>
<!-- Generator: Adobe Illustrator 19.0.0, SVG Export Plug-In . SVG Version: 6.00 Build 0)  -->
<svg version="1.1" id="Layer_1" xmlns="http://www.w3.org/2000/svg" xmlns:xlink="http://www.w3.org/1999/xlink" x="0px" y="0px"
	 viewBox="0 0 512 512" style="enable-background:new 0 0 512 512;" xml:space="preserve">
<g>
	<g>
		<g>
			<path d="M321.71,319.115h123.089c11.963,0,21.662-9.699,21.662-21.662c0-11.963-9.699-21.662-21.662-21.662H321.708
				c-11.963,0-21.662,9.699-21.662,21.662C300.047,309.416,309.745,319.115,321.71,319.115z"/>
			<path d="M490.338,338.669H228.129v-59.49h6.21c11.963,0,21.662-9.699,21.662-21.662v-12.181h12.275
				c11.963,0,21.662-9.699,21.662-21.662s-9.699-21.662-21.662-21.662h-12.275v-12.181c0-11.963-9.699-21.662-21.662-21.662h-6.21
				V32.344c0-11.963-9.699-21.662-21.662-21.662H89.331c-11.963,0-21.662,9.699-21.662,21.662v135.823h-6.21
				c-11.963,0-21.662,9.699-21.662,21.662v67.688c0,11.963,9.699,21.662,21.662,21.662h6.21v59.49H21.662
				C9.699,338.669,0,348.368,0,360.331v119.325c0,11.963,9.699,21.662,21.662,21.662h468.675c11.963,0,21.662-9.699,21.662-21.662
				V360.331C512,348.368,502.301,338.669,490.338,338.669z M169.554,338.668h-43.325v-59.49h43.325V338.668z M169.554,168.167
				h-43.325v-59.47h43.325V168.167z M294.278,436.415c-9.069,0-16.423-7.352-16.423-16.423s7.352-16.423,16.423-16.423
				s16.423,7.352,16.423,16.423S303.349,436.415,294.278,436.415z M349.14,436.415c-9.069,0-16.423-7.352-16.423-16.423
				s7.352-16.423,16.423-16.423s16.423,7.352,16.423,16.423S358.209,436.415,349.14,436.415z"/>
		</g>
	</g>
</g>
<g>
</g>
<g>
</g>
<g>
</g>
<g>
</g>
<g>
</g>
<g>
</g>
<g>
</g>
<g>
</g>
<g>
</g>
<g>
</g>
<g>
</g>
<g>
</g>
<g>
</g>
<g>
</g>
<g>
</g>
</svg>
