<?xml version="1.0" encoding="iso-8859-1"?>
<!-- Generator: Adobe Illustrator 19.0.0, SVG Export Plug-In . SVG Version: 6.00 Build 0)  -->
<svg version="1.1" id="Layer_1" xmlns="http://www.w3.org/2000/svg" xmlns:xlink="http://www.w3.org/1999/xlink" x="0px" y="0px"
	 viewBox="0 0 512 512" style="enable-background:new 0 0 512 512;" xml:space="preserve">
<g>
	<g>
		<g>
			<path d="M237.92,54.01h148.745c11.963,0,21.662-9.699,21.662-21.662s-9.699-21.662-21.662-21.662H237.92
				c-11.963,0-21.662,9.699-21.662,21.662S225.956,54.01,237.92,54.01z"/>
			<path d="M490.338,76.293h-84.994c-3.762-6.412-10.708-10.73-18.68-10.73H237.92c-7.972,0-14.918,4.318-18.678,10.73h-63.319
				c0-22.697,0-41.107,0-43.945c0-11.963-9.699-21.662-21.662-21.662H21.662C9.699,10.687,0,20.385,0,32.348
				c0,8.496,0,136.899,0,142.246h155.922c0-2.488,0-26.976,0-54.978h60.336c0,15.475,0,26.494,0,41.259
				c0,4.452,1.372,8.796,3.928,12.44l10.418,14.85c-8.354,3.005-14.34,10.977-14.34,20.367c0,11.963,9.699,21.662,21.662,21.662
				c16.827,0,132.901,0,148.745,0c11.963,0,21.662-9.699,21.662-21.662c0-9.391-5.987-17.364-14.344-20.368l10.414-14.851
				c2.555-3.644,3.925-7.986,3.925-12.437c0-14.743,0-25.51,0-41.259h60.35v238.916h-60.35v-5.054
				c0-11.963-9.699-21.662-21.662-21.662H237.919c-11.963,0-21.662,9.699-21.662,21.662v5.054h-60.336V217.918H0v261.733
				c0,11.963,9.699,21.662,21.662,21.662H134.26c11.963,0,21.662-9.699,21.662-21.662v-77.795h60.336v5.054
				c0,11.963,9.699,21.662,21.662,21.662h148.745c11.963,0,21.662-9.699,21.662-21.662v-5.054h60.35v77.795
				c0,11.963,9.699,21.662,21.662,21.662S512,491.615,512,479.652V97.955C512,85.992,502.301,76.293,490.338,76.293z
				 M99.626,101.399c0,11.963-9.699,21.662-21.662,21.662s-21.662-9.699-21.662-21.662V83.882c0-11.963,9.699-21.662,21.662-21.662
				s21.662,9.699,21.662,21.662V101.399z"/>
		</g>
	</g>
</g>
<g>
</g>
<g>
</g>
<g>
</g>
<g>
</g>
<g>
</g>
<g>
</g>
<g>
</g>
<g>
</g>
<g>
</g>
<g>
</g>
<g>
</g>
<g>
</g>
<g>
</g>
<g>
</g>
<g>
</g>
</svg>
