<?xml version="1.0" encoding="iso-8859-1"?>
<!-- Generator: Adobe Illustrator 19.0.0, SVG Export Plug-In . SVG Version: 6.00 Build 0)  -->
<svg version="1.1" id="Layer_1" xmlns="http://www.w3.org/2000/svg" xmlns:xlink="http://www.w3.org/1999/xlink" x="0px" y="0px"
	 viewBox="0 0 512 512" style="enable-background:new 0 0 512 512;" xml:space="preserve">
<g>
	<g>
		<g>
			<path d="M256,340.484c11.828,0,21.417-9.589,21.417-21.417v-36.23h14.393c11.828,0,21.417-9.589,21.417-21.417v-28.786H198.774
				v28.786c0,11.828,9.589,21.417,21.417,21.417h14.392v36.23C234.583,330.895,244.172,340.484,256,340.484z"/>
			<path d="M304.183,356.048c-11.085,0-85.657,0-96.367,0c-11.828,0-21.417,9.589-21.417,21.417c0,8.592,5.071,15.983,12.375,19.394
				v52.225c0,11.828,9.589,21.417,21.417,21.417h71.618c11.828,0,21.417-9.589,21.417-21.417v-52.225
				c7.303-3.411,12.375-10.801,12.375-19.394C325.6,365.637,316.011,356.048,304.183,356.048z"/>
			<path d="M0,450.212c0,11.828,9.589,21.417,21.417,21.417h114.221c11.828,0,21.417-9.589,21.417-21.417v-36.937H0V450.212z"/>
			<path d="M490.583,40.371H376.362c-11.828,0-21.417,9.588-21.417,21.417v21.728h-41.72V61.788
				c0-11.828-9.589-21.417-21.417-21.417s-21.417,9.589-21.417,21.417v21.728h-28.784V61.788c0-11.828-9.589-21.417-21.417-21.417
				s-21.417,9.589-21.417,21.417v21.728h-41.72V61.788c0-11.829-9.589-21.417-21.417-21.417H21.417C9.589,40.371,0,49.959,0,61.788
				v308.654h157.055V189.8c5.318,0,192.855,0,197.891,0v180.64H512V61.788C512,49.959,502.411,40.371,490.583,40.371z"/>
			<path d="M354.945,450.212c0,11.828,9.589,21.417,21.417,21.417h114.221c11.828,0,21.417-9.589,21.417-21.417v-36.937H354.945
				V450.212z"/>
		</g>
	</g>
</g>
<g>
</g>
<g>
</g>
<g>
</g>
<g>
</g>
<g>
</g>
<g>
</g>
<g>
</g>
<g>
</g>
<g>
</g>
<g>
</g>
<g>
</g>
<g>
</g>
<g>
</g>
<g>
</g>
<g>
</g>
</svg>
