<?xml version="1.0" encoding="iso-8859-1"?>
<!-- Generator: Adobe Illustrator 19.0.0, SVG Export Plug-In . SVG Version: 6.00 Build 0)  -->
<svg version="1.1" id="Layer_1" xmlns="http://www.w3.org/2000/svg" xmlns:xlink="http://www.w3.org/1999/xlink" x="0px" y="0px"
	 viewBox="0 0 512 512" style="enable-background:new 0 0 512 512;" xml:space="preserve">
<g>
	<g>
		<g>
			<path d="M490.337,10.673h-76.225c-11.964,0-21.663,9.699-21.663,21.663v33.029H119.551V32.336
				c0-11.964-9.699-21.663-21.663-21.663H21.663C9.699,10.673,0,20.372,0,32.336v121.617c0,11.964,9.698,21.663,21.663,21.663
				h468.674c11.964,0,21.663-9.698,21.663-21.663V32.336C512,20.372,502.301,10.673,490.337,10.673z M392.449,132.289H119.551
				v-23.598h272.897V132.289z"/>
			<path d="M490.337,193.047H21.663C9.699,193.047,0,202.745,0,214.71v107.969c0,11.964,9.699,21.663,21.663,21.663
				c21.888,0,450.166,0,468.674,0c11.964,0,21.663-9.699,21.663-21.663V214.71C512,202.746,502.301,193.047,490.337,193.047z
				 M392.449,287.426H119.551v-37.448h272.897V287.426z"/>
			<path d="M490.337,361.774c-18.845,0-446.962,0-468.674,0C9.909,361.774,0,371.334,0,383.437v96.227
				c0,11.964,9.699,21.663,21.663,21.663h76.225c11.964,0,21.663-9.699,21.663-21.663V405.1h16.218v74.564
				c0,11.964,9.699,21.663,21.663,21.663s21.663-9.699,21.663-21.663V405.1h153.649v74.564c0,11.964,9.699,21.663,21.663,21.663
				s21.663-9.699,21.663-21.663V405.1h16.377v74.564c0,11.964,9.699,21.663,21.663,21.663h76.224
				c11.964,0,21.663-9.699,21.663-21.663v-96.227C512,371.334,502.087,361.774,490.337,361.774z"/>
		</g>
	</g>
</g>
<g>
</g>
<g>
</g>
<g>
</g>
<g>
</g>
<g>
</g>
<g>
</g>
<g>
</g>
<g>
</g>
<g>
</g>
<g>
</g>
<g>
</g>
<g>
</g>
<g>
</g>
<g>
</g>
<g>
</g>
</svg>
