<?xml version="1.0" encoding="iso-8859-1"?>
<!-- Generator: Adobe Illustrator 19.0.0, SVG Export Plug-In . SVG Version: 6.00 Build 0)  -->
<svg version="1.1" id="Layer_1" xmlns="http://www.w3.org/2000/svg" xmlns:xlink="http://www.w3.org/1999/xlink" x="0px" y="0px"
	 viewBox="0 0 512 512" style="enable-background:new 0 0 512 512;" xml:space="preserve">
<g>
	<g>
		<g>
			<path d="M411.48,421.36V242.525c0-13.275-10.762-24.036-24.036-24.036H71.306c-13.275,0-24.036,10.762-24.036,24.036V421.36
				c-17.987,0-26.874,11.715-26.874,24.036v42.567c0,13.275,10.762,24.036,24.036,24.036c13.275,0,24.036-10.762,24.036-24.036
				v-18.531c17.975,0,306.336,0,321.814,0v18.531c0,13.275,10.762,24.036,24.036,24.036c13.275,0,24.037-10.762,24.037-24.036
				v-42.567C438.354,433.149,429.591,421.36,411.48,421.36z M250.406,367.997h-42.064c-13.275,0-24.036-10.762-24.036-24.036
				c0-13.275,10.762-24.037,24.036-24.037h42.064c13.275,0,24.037,10.762,24.037,24.037
				C274.443,357.235,263.681,367.997,250.406,367.997z"/>
			<path d="M172.403,194.452h113.943C262.391,148.097,196.316,148.178,172.403,194.452z"/>
			<path d="M367.562,41.33h119.889C466.564-13.704,388.504-13.849,367.562,41.33z"/>
			<path d="M363.407,65.366c0,9.286,0,18.947,0,43.029h-14.276c-2.718-10.294-12.066-17.893-23.214-17.893
				c-13.275,0-24.036,10.762-24.036,24.036v35.787c0,13.275,10.762,24.036,24.036,24.036c11.148,0,20.497-7.6,23.214-17.894h14.276
				v37.984h24.036c26.549,0,48.073,21.522,48.073,48.073v73.391c0,15.489,12.557,28.044,28.044,28.044
				c15.489,0,28.044-12.555,28.044-28.044c0-15.207,0-241.695,0-250.55H363.407z"/>
		</g>
	</g>
</g>
<g>
</g>
<g>
</g>
<g>
</g>
<g>
</g>
<g>
</g>
<g>
</g>
<g>
</g>
<g>
</g>
<g>
</g>
<g>
</g>
<g>
</g>
<g>
</g>
<g>
</g>
<g>
</g>
<g>
</g>
</svg>
