<?xml version="1.0" encoding="iso-8859-1"?>
<!-- Generator: Adobe Illustrator 19.0.0, SVG Export Plug-In . SVG Version: 6.00 Build 0)  -->
<svg version="1.1" id="Layer_1" xmlns="http://www.w3.org/2000/svg" xmlns:xlink="http://www.w3.org/1999/xlink" x="0px" y="0px"
	 viewBox="0 0 512 512" style="enable-background:new 0 0 512 512;" xml:space="preserve">
<g>
	<g>
		<path d="M461.801,0H50.199C37.715,0,27.594,10.121,27.594,22.606c0,34.43,0.006,455.25,0.006,466.789
			C27.6,501.879,37.721,512,50.205,512c12.484,0,22.606-10.121,22.606-22.606V382.229c36.24,0,125.675,0,160.584,0v21.46H187.43
			c-14.591,0-25.38,13.652-21.988,27.856l15.07,63.1C182.943,504.82,192.038,512,202.5,512h107c10.462,0,19.557-7.178,21.988-17.355
			l15.07-63.1c3.389-14.192-7.383-27.856-21.988-27.856h-45.965v-21.46c13.003,0,140.276,0,160.584,0v107.165
			c0,12.484,10.121,22.606,22.605,22.606c12.484,0,22.606-10.121,22.606-22.606c0-48.753,0.006-127.569,0.006-466.789
			C484.406,10.121,474.285,0,461.801,0z M315.728,192.05c-2.318,43.51-37.982,40.771-37.982,65.517v79.451c-0.383,0-0.618,0-0.758,0
			c-0.134,0-0.181,0-0.182,0c-1.073,0-7.803,0-42.553,0v-79.451c0-25.166-35.646-20.577-37.985-65.583
			C192.552,109.06,319.678,105.913,315.728,192.05z"/>
	</g>
</g>
<g>
</g>
<g>
</g>
<g>
</g>
<g>
</g>
<g>
</g>
<g>
</g>
<g>
</g>
<g>
</g>
<g>
</g>
<g>
</g>
<g>
</g>
<g>
</g>
<g>
</g>
<g>
</g>
<g>
</g>
</svg>
