<?xml version="1.0" encoding="iso-8859-1"?>
<!-- Generator: Adobe Illustrator 19.0.0, SVG Export Plug-In . SVG Version: 6.00 Build 0)  -->
<svg version="1.1" id="Layer_1" xmlns="http://www.w3.org/2000/svg" xmlns:xlink="http://www.w3.org/1999/xlink" x="0px" y="0px"
	 viewBox="0 0 512 512" style="enable-background:new 0 0 512 512;" xml:space="preserve">
<g>
	<g>
		<g>
			<path d="M510.681,250.726v-68.577c0-12.484-10.121-22.605-22.605-22.605h-31.086V91.181V91.18V22.605
				C456.991,10.121,446.87,0,434.386,0H193.329c-12.484,0-22.605,10.121-22.605,22.605v466.772
				c0,12.484,10.121,22.605,22.605,22.605h100.428c12.484,0,22.605-10.121,22.605-22.605V113.786h95.419v45.758h-31.085
				c-12.484,0-22.605,10.121-22.605,22.605v68.577c0,11.384,8.423,20.775,19.372,22.347v72.088
				c-10.948,1.573-19.372,10.963-19.372,22.347c0,11.384,8.423,20.775,19.372,22.347v33.411c0,12.484,10.121,22.605,22.605,22.605
				h68.637c12.484,0,22.605-10.121,22.605-22.605v-33.411c10.948-1.572,19.371-10.963,19.371-22.347
				c0-11.384-8.422-20.775-19.371-22.347v-72.088C502.257,271.501,510.681,262.109,510.681,250.726z M446.1,400.661h-23.427v-10.549
				H446.1V400.661z M446.1,344.903h-23.427V273.33H446.1V344.903z"/>
			<path d="M1.48,196.456v68.577c0,12.484,10.121,22.605,22.605,22.605h35.092C56.95,295.294,5.651,471.801,2.378,483.069
				c-8.334,28.682,35.007,41.534,43.415,12.618l21.587-74.278h80.74V376.2H80.518l25.739-88.562h41.862V173.851H24.085
				C11.601,173.851,1.48,183.972,1.48,196.456z"/>
		</g>
	</g>
</g>
<g>
</g>
<g>
</g>
<g>
</g>
<g>
</g>
<g>
</g>
<g>
</g>
<g>
</g>
<g>
</g>
<g>
</g>
<g>
</g>
<g>
</g>
<g>
</g>
<g>
</g>
<g>
</g>
<g>
</g>
</svg>
