<?xml version="1.0" encoding="iso-8859-1"?>
<!-- Generator: Adobe Illustrator 19.0.0, SVG Export Plug-In . SVG Version: 6.00 Build 0)  -->
<svg version="1.1" id="Layer_1" xmlns="http://www.w3.org/2000/svg" xmlns:xlink="http://www.w3.org/1999/xlink" x="0px" y="0px"
	 viewBox="0 0 512 512" style="enable-background:new 0 0 512 512;" xml:space="preserve">
<g>
	<g>
		<g>
			<path d="M485.327,29.862h-295.14v-7.665C190.187,9.938,180.249,0,167.991,0H26.673C14.414,0,4.476,9.938,4.476,22.197
				c0,26.498,0,392.087,0,404.006c0,12.258,9.938,22.197,22.197,22.197h458.654c12.258,0,22.197-9.938,22.197-22.197V52.058
				C507.524,39.8,497.586,29.862,485.327,29.862z M97.33,58c8.066,0,14.604,6.538,14.604,14.604c0,8.065-6.538,14.604-14.604,14.604
				c-8.065,0-14.604-6.538-14.604-14.604C82.726,64.537,89.266,58,97.33,58z M97.33,106.992c8.066,0,14.604,6.538,14.604,14.604
				s-6.538,14.604-14.604,14.604c-8.065,0-14.604-6.538-14.604-14.604C82.726,113.531,89.266,106.992,97.33,106.992z
				 M145.794,340.406H48.869v-48.477h96.925V340.406z M327.076,216.936h-17.719c-12.258,0-22.197,9.938-22.197,22.197
				c0,12.258,9.938,22.197,22.197,22.197h17.719v79.076H190.187v-48.468h14.34v6.32c0,12.258,9.938,22.197,22.197,22.197
				c12.258,0,22.197-9.938,22.197-22.197V180.012c0-12.258-9.938-22.197-22.197-22.197c-12.258,0-22.197,9.938-22.197,22.197v6.319
				h-14.34v-48.476h136.889V216.936z M399.53,340.406h-28.061V137.855h28.061V340.406z"/>
			<path d="M421.727,467.607H90.269c-12.258,0-22.197,9.938-22.197,22.197c0,12.258,9.938,22.197,22.197,22.197h331.458
				c12.258,0,22.197-9.938,22.197-22.197C443.923,477.545,433.985,467.607,421.727,467.607z"/>
		</g>
	</g>
</g>
<g>
</g>
<g>
</g>
<g>
</g>
<g>
</g>
<g>
</g>
<g>
</g>
<g>
</g>
<g>
</g>
<g>
</g>
<g>
</g>
<g>
</g>
<g>
</g>
<g>
</g>
<g>
</g>
<g>
</g>
</svg>
