<?xml version="1.0" encoding="iso-8859-1"?>
<!-- Generator: Adobe Illustrator 19.0.0, SVG Export Plug-In . SVG Version: 6.00 Build 0)  -->
<svg version="1.1" id="Layer_1" xmlns="http://www.w3.org/2000/svg" xmlns:xlink="http://www.w3.org/1999/xlink" x="0px" y="0px"
	 viewBox="0 0 512 512" style="enable-background:new 0 0 512 512;" xml:space="preserve">
<g>
	<g>
		<g>
			<path d="M401.631,0h-154.12c-29.084,0-52.746,23.662-52.746,52.746v37.818h-51.239c-8.988,0-17.123,5.326-20.719,13.563
				l-39.291,90.024c11.756,0,258.61,0,267.708,0l-39.291-90.024c-3.596-8.237-11.731-13.563-20.719-13.563h-51.238V52.746
				c0-4.155,3.38-7.535,7.535-7.535h154.12c20.774,0,37.676,16.901,37.676,37.676v206.268c0,4.173-2.761,7.535-9.446,7.535v-16.577
				c0-12.484-10.121-22.606-22.606-22.606H359.03v-18.145h-75.213v40.75c0,12.484-10.121,22.606-22.606,22.606h-21.237v16.577
				c0,29.871-45.211,29.903-45.211,0v-16.577h-21.236c-12.484,0-22.606-10.121-22.606-22.606v-40.75H75.707v125.877
				c4.184-6.709,11.574-10.909,19.652-10.909h244.024c9.324,0,17.739,5.59,21.353,14.184c1.706,4.055,2.172,8.405,1.518,12.57
				h45.002c12.484,0,22.605-10.121,22.605-22.605v-16.577h1.911c29.084,0,52.746-23.662,52.746-52.746V82.887
				C484.518,37.183,447.335,0,401.631,0z"/>
			<path d="M384.649,466.789h-25.62v-77.028c-1.891,3.031,0.924-0.167-49.422,51.298c-4.358,4.455-10.329,6.966-16.561,6.966
				H141.693c-6.233,0-12.201-2.511-16.561-6.966c-50.44-51.56-47.56-48.315-49.425-51.301v77.031h-25.62
				c-12.484,0-22.606,10.121-22.606,22.606S37.604,512,50.088,512h334.562c12.484,0,22.606-10.121,22.606-22.606
				S397.134,466.789,384.649,466.789z"/>
		</g>
	</g>
</g>
<g>
</g>
<g>
</g>
<g>
</g>
<g>
</g>
<g>
</g>
<g>
</g>
<g>
</g>
<g>
</g>
<g>
</g>
<g>
</g>
<g>
</g>
<g>
</g>
<g>
</g>
<g>
</g>
<g>
</g>
</svg>
