<?xml version="1.0" encoding="iso-8859-1"?>
<!-- Generator: Adobe Illustrator 19.0.0, SVG Export Plug-In . SVG Version: 6.00 Build 0)  -->
<svg version="1.1" id="Layer_1" xmlns="http://www.w3.org/2000/svg" xmlns:xlink="http://www.w3.org/1999/xlink" x="0px" y="0px"
	 viewBox="0 0 512.002 512.002" style="enable-background:new 0 0 512.002 512.002;" xml:space="preserve">
<g>
	<g>
		<g>
			<path d="M473.402,132.339h-13.372l6.48-28.429H327.388l6.481,28.429H230.735V22.599C230.735,10.118,220.617,0,208.136,0H38.6
				C26.119,0,16.001,10.118,16.001,22.599c0,16.102,0,432.319,0,466.652c0,12.488,10.126,22.6,22.6,22.6
				c322.142,0,422.025,0.151,434.801,0.151c12.481,0,22.599-10.118,22.599-22.599V154.939
				C496.001,142.457,485.882,132.339,473.402,132.339z M93.18,58.712h60.372c12.481,0,22.599,10.118,22.599,22.599
				s-10.118,22.599-22.599,22.599H93.18c-12.481,0-22.599-10.118-22.599-22.599S80.698,58.712,93.18,58.712z M185.539,357.032
				H61.199v-79.864h39.569v20.896c0,12.481,10.118,22.599,22.599,22.599s22.599-10.118,22.599-22.599v-20.896h39.574V357.032z
				 M351.172,466.652H230.735c0-4.883,0-181.487,0-189.484h37.62v20.892c0,12.481,10.118,22.599,22.599,22.599
				c12.481,0,22.599-10.118,22.599-22.599v-20.892h37.62V466.652z"/>
			<path d="M317.087,58.712h159.726l7.052-30.939c3.223-14.132-7.533-27.622-22.034-27.622H332.069
				c-14.492,0-25.258,13.483-22.034,27.62L317.087,58.712z"/>
		</g>
	</g>
</g>
<g>
</g>
<g>
</g>
<g>
</g>
<g>
</g>
<g>
</g>
<g>
</g>
<g>
</g>
<g>
</g>
<g>
</g>
<g>
</g>
<g>
</g>
<g>
</g>
<g>
</g>
<g>
</g>
<g>
</g>
</svg>
