<?xml version="1.0" encoding="iso-8859-1"?>
<!-- Generator: Adobe Illustrator 19.0.0, SVG Export Plug-In . SVG Version: 6.00 Build 0)  -->
<svg version="1.1" id="Layer_1" xmlns="http://www.w3.org/2000/svg" xmlns:xlink="http://www.w3.org/1999/xlink" x="0px" y="0px"
	 viewBox="0 0 512 512" style="enable-background:new 0 0 512 512;" xml:space="preserve">
<g>
	<g>
		<g>
			<path d="M511.996,243.363c0-11.963-9.699-21.662-21.662-21.662h-56.042v-94.475c0-31.852-25.913-57.765-57.765-57.765h-119.36
				l7.362-32.299c3.089-13.552-7.226-26.475-21.12-26.475H113.185c-13.9,0-24.209,12.931-21.12,26.475l24.205,106.195H21.662
				C9.699,143.358,0,153.056,0,165.019v78.344c0,11.963,9.699,21.662,21.662,21.662c0.001,0,0.001,0,0.001,0
				c0.003,0,0.003,0,0.003,0h313.261h155.407C502.297,265.025,511.996,255.326,511.996,243.363z M121.763,221.701H43.324v-35.02
				h78.439V221.701z M313.26,221.701h-78.429v-35.02h78.429V221.701z M390.968,221.701h-34.385v-56.682
				c0-11.963-9.699-21.662-21.662-21.662h-94.597l6.969-30.572h129.233c7.963,0,14.441,6.478,14.441,14.441V221.701z"/>
			<path d="M0.001,310.876v168.775c0,11.963,9.699,21.662,21.662,21.662h291.602V289.214H21.663
				C9.7,289.214,0.001,298.913,0.001,310.876z"/>
			<path d="M490.338,289.214H356.589v212.099h133.749c11.963,0,21.662-9.699,21.662-21.662V310.876
				C512,298.913,502.301,289.214,490.338,289.214z M434.294,385.97c-9.57,0-17.329-7.759-17.329-17.329
				c0-9.572,7.759-17.33,17.329-17.33c9.57,0,17.33,7.758,17.33,17.33C451.624,378.211,443.865,385.97,434.294,385.97z"/>
		</g>
	</g>
</g>
<g>
</g>
<g>
</g>
<g>
</g>
<g>
</g>
<g>
</g>
<g>
</g>
<g>
</g>
<g>
</g>
<g>
</g>
<g>
</g>
<g>
</g>
<g>
</g>
<g>
</g>
<g>
</g>
<g>
</g>
</svg>
