<?xml version="1.0" encoding="iso-8859-1"?>
<!-- Generator: Adobe Illustrator 19.0.0, SVG Export Plug-In . SVG Version: 6.00 Build 0)  -->
<svg version="1.1" id="Layer_1" xmlns="http://www.w3.org/2000/svg" xmlns:xlink="http://www.w3.org/1999/xlink" x="0px" y="0px"
	 viewBox="0 0 512 512" style="enable-background:new 0 0 512 512;" xml:space="preserve">
<g>
	<g>
		<g>
			<path d="M27.123,286.141v100.913c0,37.394,30.422,67.817,67.817,67.817h14.477v34.525c0,12.484,10.121,22.606,22.606,22.606
				c12.484,0,22.605-10.121,22.605-22.606V454.87h202.746v34.525c0,12.484,10.121,22.606,22.606,22.606
				c12.484,0,22.606-10.121,22.606-22.606V454.87h14.477c37.394,0,67.817-30.423,67.817-67.817V286.141H27.123z M260.832,373.127
				c0,8.323-6.747,15.07-15.07,15.07h-99.645c-8.323,0-15.07-6.747-15.07-15.07v-27.849c0-8.323,6.747-15.07,15.07-15.07h99.645
				c8.323,0,15.07,6.747,15.07,15.07V373.127z M351.961,388.197c-16.012,0-28.994-12.982-28.994-28.994
				c0-16.014,12.982-28.994,28.994-28.994s28.994,12.982,28.994,28.994C380.955,375.216,367.973,388.197,351.961,388.197z"/>
			<path d="M148.206,97.529h-66.45c-12.484,0-22.606,10.121-22.606,22.606c0,46.84,0,73.531,0,120.795c8.665,0,78.907,0,89.055,0
				V97.529z"/>
			<path d="M318.586,83.607h-0.001c-3.073-5.005-8.351-16.219-22.606-16.219h-17.373V45.211h5.362
				c12.484,0,22.606-10.121,22.606-22.606C306.574,10.121,296.453,0,283.968,0h-55.935c-12.484,0-22.606,10.121-22.606,22.606
				c0,12.484,10.121,22.606,22.606,22.606h5.362v22.178h-17.373c-14.22,0-19.504,11.167-22.605,16.22v43.692h125.17V83.607z"/>
			<rect x="193.414" y="172.51" width="125.174" height="68.419"/>
			<path d="M452.851,120.135c0-12.484-10.121-22.606-22.606-22.606h-66.45v143.4c10.145,0,80.388,0,89.055,0
				C452.851,95.395,452.851,152.904,452.851,120.135z"/>
		</g>
	</g>
</g>
<g>
</g>
<g>
</g>
<g>
</g>
<g>
</g>
<g>
</g>
<g>
</g>
<g>
</g>
<g>
</g>
<g>
</g>
<g>
</g>
<g>
</g>
<g>
</g>
<g>
</g>
<g>
</g>
<g>
</g>
</svg>
