<?xml version="1.0" encoding="iso-8859-1"?>
<!-- Generator: Adobe Illustrator 19.0.0, SVG Export Plug-In . SVG Version: 6.00 Build 0)  -->
<svg version="1.1" id="Layer_1" xmlns="http://www.w3.org/2000/svg" xmlns:xlink="http://www.w3.org/1999/xlink" x="0px" y="0px"
	 viewBox="0 0 512.001 512.001" style="enable-background:new 0 0 512.001 512.001;" xml:space="preserve">
<g>
	<g>
		<g>
			<path d="M490.338,172.617h-17.003v-62.519c17.834-8.226,30.247-26.263,30.247-47.155c0-28.623-23.287-51.909-51.909-51.909
				c-28.623,0-51.909,23.287-51.909,51.909c0,20.894,12.414,38.931,30.247,47.155v52.54c-67.607-149.424-280.32-149.645-348.022,0
				v-52.54c17.834-8.226,30.249-26.263,30.249-47.157c0-28.623-23.287-51.909-51.909-51.909S8.418,34.319,8.418,62.942
				c0,20.894,12.414,38.931,30.247,47.155v62.519H21.662C9.699,172.616,0,182.315,0,194.278v93.868
				c0,11.963,9.699,21.662,21.662,21.662h56.126c62.576,162.452,293.63,162.836,356.402,0h56.149
				c11.963,0,21.662-9.699,21.662-21.662v-93.868C512,182.316,502.301,172.617,490.338,172.617z M323.089,148.183
				c7.163-7.163,18.777-7.163,25.941,0c7.163,7.163,7.163,18.778,0,25.941c-7.163,7.163-18.778,7.163-25.941,0
				C315.926,166.961,315.926,155.347,323.089,148.183z M256.001,109.649c10.131,0,18.343,8.213,18.343,18.343
				s-8.213,18.343-18.343,18.343s-18.343-8.213-18.343-18.343S245.87,109.649,256.001,109.649z M142.778,259.555
				c-10.131,0-18.343-8.213-18.343-18.343s8.213-18.343,18.343-18.343s18.343,8.213,18.343,18.343
				C161.121,251.344,152.909,259.555,142.778,259.555z M188.911,334.243c-7.163,7.163-18.777,7.163-25.941,0
				c-7.163-7.163-7.163-18.778,0-25.941c7.164-7.163,18.778-7.163,25.941,0C196.074,315.466,196.074,327.08,188.911,334.243z
				 M188.911,174.124c-7.163,7.163-18.777,7.163-25.941,0c-7.163-7.163-7.163-18.778,0-25.941c7.164-7.163,18.778-7.163,25.941,0
				C196.074,155.347,196.074,166.961,188.911,174.124z M256.001,372.778c-10.131,0-18.343-8.213-18.343-18.343
				c0-10.131,8.213-18.343,18.343-18.343s18.343,8.213,18.343,18.343C274.343,364.565,266.13,372.778,256.001,372.778z
				 M256.001,298.416c-31.598,0-57.202-25.604-57.202-57.202s25.604-57.202,57.202-57.202s57.202,25.604,57.202,57.202
				S287.598,298.416,256.001,298.416z M349.03,334.243c-7.163,7.163-18.778,7.163-25.941,0c-7.164-7.163-7.164-18.778,0-25.941
				c7.163-7.163,18.777-7.163,25.941,0C356.193,315.466,356.193,327.08,349.03,334.243z M369.222,259.555
				c-10.131,0-18.343-8.213-18.343-18.343s8.213-18.343,18.343-18.343s18.343,8.213,18.343,18.343
				C387.564,251.344,379.352,259.555,369.222,259.555z"/>
			<path d="M104.683,419.959v59.348c0,11.963,9.699,21.662,21.662,21.662h259.309c11.963,0,21.662-9.699,21.662-21.662v-59.341
				C319.859,493.953,192.008,493.826,104.683,419.959z"/>
		</g>
	</g>
</g>
<g>
</g>
<g>
</g>
<g>
</g>
<g>
</g>
<g>
</g>
<g>
</g>
<g>
</g>
<g>
</g>
<g>
</g>
<g>
</g>
<g>
</g>
<g>
</g>
<g>
</g>
<g>
</g>
<g>
</g>
</svg>
