<?xml version="1.0" encoding="iso-8859-1"?>
<!-- Generator: Adobe Illustrator 19.0.0, SVG Export Plug-In . SVG Version: 6.00 Build 0)  -->
<svg version="1.1" id="Layer_1" xmlns="http://www.w3.org/2000/svg" xmlns:xlink="http://www.w3.org/1999/xlink" x="0px" y="0px"
	 viewBox="0 0 512.001 512.001" style="enable-background:new 0 0 512.001 512.001;" xml:space="preserve">
<g>
	<g>
		<g>
			<path d="M491.753,444.797h-13.205V240.232H331.257v204.565h-13.204c-11.182,0-20.247,9.065-20.247,20.247
				c0,11.182,9.065,20.247,20.247,20.247c18.924,0,152.95,0,173.701,0c11.182,0,20.247-9.065,20.247-20.247
				C512.001,453.862,502.936,444.797,491.753,444.797z"/>
			<path d="M331.258,199.738h147.291v-77.944c0-11.182-9.065-20.247-20.247-20.247H425.15V73.953
				c0-26.05-21.193-47.243-47.243-47.243h-111.64c-26.05,0-47.243,21.193-47.243,47.243v27.594H20.247
				C9.065,101.547,0,110.613,0,121.794v57.697c0,11.182,9.065,20.247,20.247,20.247h48.311v140.421
				c0,11.182,9.065,20.247,20.247,20.247c11.164,0,20.247,9.083,20.247,20.247S99.969,400.9,88.805,400.9
				s-20.247-9.083-20.247-20.247c0-11.182-9.065-20.247-20.247-20.247c-11.182,0-20.247,9.065-20.247,20.247
				c0,33.493,27.248,60.741,60.741,60.741s60.741-27.248,60.741-60.741c0-26.397-16.925-48.915-40.494-57.272V199.738h130.219
				c11.182,0,20.247-9.065,20.247-20.247v-37.45h71.74V199.738z M259.518,101.547V73.953c0-3.721,3.028-6.749,6.749-6.749h111.64
				c3.721,0,6.749,3.028,6.749,6.749v27.594C363.421,101.547,270.721,101.547,259.518,101.547z"/>
			<path d="M134.874,260.479c0,11.182,9.065,20.247,20.247,20.247h56.085c11.182,0,20.247-9.065,20.247-20.247v-20.247h-96.579
				V260.479z"/>
		</g>
	</g>
</g>
<g>
</g>
<g>
</g>
<g>
</g>
<g>
</g>
<g>
</g>
<g>
</g>
<g>
</g>
<g>
</g>
<g>
</g>
<g>
</g>
<g>
</g>
<g>
</g>
<g>
</g>
<g>
</g>
<g>
</g>
</svg>
