<?xml version="1.0" encoding="iso-8859-1"?>
<!-- Generator: Adobe Illustrator 19.0.0, SVG Export Plug-In . SVG Version: 6.00 Build 0)  -->
<svg version="1.1" id="Layer_1" xmlns="http://www.w3.org/2000/svg" xmlns:xlink="http://www.w3.org/1999/xlink" x="0px" y="0px"
	 viewBox="0 0 512 512" style="enable-background:new 0 0 512 512;" xml:space="preserve">
<g>
	<g>
		<path d="M452.795,346.617c-13.955,0-83.597,0-97.492,0v-166.96c32.617-78.067,32.089-74.319,31.862-81.496V22.606
			C387.165,10.121,377.044,0,364.559,0H147.442c-12.484,0-22.606,10.121-22.606,22.606v75.56c-0.234,7.404-0.164,4.841,31.86,81.491
			v166.96h-47.303H59.205c-12.484,0-22.606,10.121-22.606,22.606s10.121,22.606,22.606,22.606h27.583v97.567
			c0,12.484,10.121,22.606,22.606,22.606h293.212c12.484,0,22.606-10.121,22.606-22.606v-97.567h27.583
			c12.484,0,22.606-10.121,22.606-22.606S465.279,346.617,452.795,346.617z M256,450.822c-11.881,0-21.513-9.631-21.513-21.513
			s9.631-21.513,21.513-21.513c11.881,0,21.513,9.631,21.513,21.513C277.513,441.189,267.881,450.822,256,450.822z M310.092,346.617
			H201.91V197.729h31.485v54.512c-11.973,0.574-21.513,10.435-21.513,22.55v43.026c0,12.484,10.121,22.606,22.606,22.606h43.026
			c12.484,0,22.606-10.121,22.606-22.606v-43.026c0-12.117-9.539-21.977-21.513-22.55v-54.512h31.486V346.617z"/>
	</g>
</g>
<g>
</g>
<g>
</g>
<g>
</g>
<g>
</g>
<g>
</g>
<g>
</g>
<g>
</g>
<g>
</g>
<g>
</g>
<g>
</g>
<g>
</g>
<g>
</g>
<g>
</g>
<g>
</g>
<g>
</g>
</svg>
