<?xml version="1.0" encoding="iso-8859-1"?>
<!-- Generator: Adobe Illustrator 19.0.0, SVG Export Plug-In . SVG Version: 6.00 Build 0)  -->
<svg xmlns="http://www.w3.org/2000/svg" xmlns:xlink="http://www.w3.org/1999/xlink" version="1.1" id="Layer_1" x="0px" y="0px" viewBox="0 0 512 512" style="enable-background:new 0 0 512 512;" xml:space="preserve">
<g>
	<g>
		<path d="M492.113,265.266c-5.069-31.715-16.141-61.603-32.021-86.436c-15.082-23.584-33.889-41.403-54.845-52.112    c0-0.113,0.008-0.224,0.008-0.336c0-39.232-27.238-71.15-60.719-71.15h-19.401C317.98,23.654,289.709,0,256,0    c-33.711,0-61.98,23.654-69.137,55.231h-19.401c-33.481,0-60.718,31.919-60.718,71.15c0,0.113,0.007,0.224,0.008,0.335    c-20.956,10.71-39.764,28.529-54.846,52.114c-15.879,24.833-26.952,54.722-32.021,86.436c-4.88,30.532-3.784,60.784,3.165,87.486    c7.066,27.144,20.191,50.129,38.12,66.979c0.925,22.259,6.122,43.162,14.899,59.482C87.439,500.356,103.654,512,121.726,512    h268.548c18.073,0,34.286-11.644,45.656-32.786c8.775-16.32,13.973-37.222,14.898-59.482c17.929-16.85,31.055-39.835,38.12-66.98    C495.898,326.05,496.993,295.798,492.113,265.266z M256,31.347c16.245,0,30.23,9.848,36.311,23.884h-72.624    C225.77,41.195,239.754,31.347,256,31.347z M446.611,374.617c-2.535-10.504-6.12-20.234-10.681-28.717    c-2.331-4.335-4.871-8.261-7.586-11.778c-0.015,0-0.028,0.002-0.044,0.002H360.21v78.434c0,8.656-7.018,15.673-15.673,15.673    s-15.673-7.018-15.673-15.673v-78.434H183.136v78.434c0,8.656-7.018,15.673-15.673,15.673c-8.656,0-15.673-7.018-15.673-15.673    v-78.434H83.654c-2.714,3.516-5.252,7.441-7.584,11.777c-4.562,8.482-8.147,18.214-10.682,28.718    c-15.385-27.176-20.929-64.472-14.548-104.403c8.218-51.434,33.458-94.218,65.815-113.192h78.488V139.72    c0-8.656,7.018-15.673,15.673-15.673s15.673,7.018,15.673,15.673v17.305h69.066V139.72c0-8.656,7.018-15.673,15.673-15.673    s15.673,7.018,15.673,15.673v17.305h68.441c32.357,18.973,57.595,61.758,65.815,113.191    C467.542,310.143,461.996,347.441,446.611,374.617z"/>
	</g>
</g>
<g>
	<g>
		<path d="M407.872,188.369H104.129c-12.489,16.21-20.254,39.997-20.254,66.953c0,17.571,3.309,33.79,9.065,47.453h326.122    c5.755-13.663,9.065-29.882,9.065-47.453C428.126,228.367,420.36,204.578,407.872,188.369z M325.248,261.245H186.751    c-8.656,0-15.673-7.018-15.673-15.674c0-8.656,7.018-15.673,15.673-15.673h138.497c8.656,0,15.673,7.018,15.673,15.673    C340.922,254.229,333.904,261.245,325.248,261.245z"/>
	</g>
</g>
<g>
</g>
<g>
</g>
<g>
</g>
<g>
</g>
<g>
</g>
<g>
</g>
<g>
</g>
<g>
</g>
<g>
</g>
<g>
</g>
<g>
</g>
<g>
</g>
<g>
</g>
<g>
</g>
<g>
</g>
</svg>
