<?xml version="1.0" encoding="iso-8859-1"?>
<!-- Generator: Adobe Illustrator 19.0.0, SVG Export Plug-In . SVG Version: 6.00 Build 0)  -->
<svg xmlns="http://www.w3.org/2000/svg" xmlns:xlink="http://www.w3.org/1999/xlink" version="1.1" id="Layer_1" x="0px" y="0px" viewBox="0 0 512.001 512.001" style="enable-background:new 0 0 512.001 512.001;" xml:space="preserve">
<g>
	<g>
		<path d="M462.324,485.243l-79.294-79.294c46.826-18.1,80.128-63.596,80.128-116.729V125.088C463.157,56.114,407.039,0,338.063,0    H173.936C104.958,0,48.841,56.114,48.841,125.088V289.22c0,53.133,33.303,98.629,80.129,116.729l-79.293,79.294    c-6.12,6.12-6.12,16.044,0,22.165c3.06,3.062,7.072,4.592,11.082,4.592c4.011,0,8.023-1.531,11.083-4.592l36.159-36.16h295.997    l36.16,36.159c3.06,3.062,7.072,4.592,11.083,4.592s8.023-1.531,11.082-4.592C468.445,501.288,468.445,491.363,462.324,485.243z     M335.137,351.522c-26.956,0-48.887-21.928-48.887-48.879c0-26.955,21.93-48.883,48.887-48.883    c26.952,0,48.879,21.928,48.879,48.883C384.016,329.594,362.089,351.522,335.137,351.522z M98.579,163.045v-37.957    c0-41.554,33.806-75.357,75.356-75.357h164.127c41.553,0,75.358,33.803,75.358,75.357v37.957    c0,41.548-33.806,75.351-75.358,75.351H173.936C132.385,238.396,98.579,204.593,98.579,163.045z M127.977,302.642    c0-26.954,21.929-48.883,48.886-48.883c26.956,0,48.886,21.928,48.886,48.883c0,26.951-21.929,48.879-48.886,48.879    C149.907,351.521,127.977,329.593,127.977,302.642z M139.348,439.902l25.895-25.896c2.872,0.199,5.771,0.308,8.693,0.308h164.127    c2.923,0,5.819-0.11,8.693-0.308l25.896,25.896H139.348z"/>
	</g>
</g>
<g>
</g>
<g>
</g>
<g>
</g>
<g>
</g>
<g>
</g>
<g>
</g>
<g>
</g>
<g>
</g>
<g>
</g>
<g>
</g>
<g>
</g>
<g>
</g>
<g>
</g>
<g>
</g>
<g>
</g>
</svg>
