<?xml version="1.0" encoding="iso-8859-1"?>
<!-- Generator: Adobe Illustrator 19.0.0, SVG Export Plug-In . SVG Version: 6.00 Build 0)  -->
<svg xmlns="http://www.w3.org/2000/svg" xmlns:xlink="http://www.w3.org/1999/xlink" version="1.1" id="Layer_1" x="0px" y="0px" viewBox="0 0 512 512" style="enable-background:new 0 0 512 512;" xml:space="preserve">
<g>
	<g>
		<path d="M0,222.327v218.771c0,8.655,7.016,15.674,15.673,15.674h480.653c8.656,0,15.673-7.019,15.673-15.674V222.327H0z     M256,429.402c-49.545,0-89.853-40.308-89.853-89.853c0-49.545,40.308-89.853,89.853-89.853c49.545,0,89.853,40.308,89.853,89.853    C345.853,389.094,305.545,429.402,256,429.402z"/>
	</g>
</g>
<g>
	<g>
		<path d="M294.4,323.876h-22.727V301.15c0-8.657-7.018-15.673-15.673-15.673c-8.657,0-15.673,7.016-15.673,15.673v22.727h-22.724    c-8.657,0-15.673,7.016-15.673,15.673c0,8.655,7.016,15.673,15.673,15.673h22.724v22.724c0,8.655,7.016,15.673,15.673,15.673    c8.656,0,15.673-7.019,15.673-15.673v-22.724H294.4c8.656,0,15.673-7.019,15.673-15.673    C310.073,330.893,303.056,323.876,294.4,323.876z"/>
	</g>
</g>
<g>
	<g>
		<path d="M496.327,104.505h-162.39V70.902c0-8.657-7.018-15.673-15.674-15.673H193.739c-8.657,0-15.673,7.016-15.673,15.673v33.602    H15.673C7.016,104.504,0,111.52,0,120.177v70.802h512v-70.802C512,111.521,504.982,104.505,496.327,104.505z M302.59,104.504    h-93.178V86.576h93.178V104.504z"/>
	</g>
</g>
<g>
</g>
<g>
</g>
<g>
</g>
<g>
</g>
<g>
</g>
<g>
</g>
<g>
</g>
<g>
</g>
<g>
</g>
<g>
</g>
<g>
</g>
<g>
</g>
<g>
</g>
<g>
</g>
<g>
</g>
</svg>
