<?xml version="1.0" encoding="iso-8859-1"?>
<!-- Generator: Adobe Illustrator 19.0.0, SVG Export Plug-In . SVG Version: 6.00 Build 0)  -->
<svg xmlns="http://www.w3.org/2000/svg" xmlns:xlink="http://www.w3.org/1999/xlink" version="1.1" id="Layer_1" x="0px" y="0px" viewBox="0 0 512.004 512.004" style="enable-background:new 0 0 512.004 512.004;" xml:space="preserve">
<g>
	<g>
		<path d="M496.33,283.728c-18.335,0-35.964-6.724-49.645-18.933c-5.948-5.305-14.928-5.307-20.875,0    c-13.682,12.209-31.313,18.933-49.645,18.933c-18.335,0-35.964-6.724-49.645-18.933c-5.948-5.306-14.928-5.306-20.875,0    c-13.68,12.209-31.311,18.933-49.645,18.933c-18.333,0-35.967-6.724-49.649-18.933c-5.948-5.306-14.928-5.307-20.873,0.001    c-13.678,12.208-31.309,18.932-49.645,18.932c-18.335,0-35.964-6.723-49.641-18.931c-5.948-5.309-14.928-5.309-20.875-0.002    c-13.68,12.209-31.311,18.933-49.647,18.933C7.017,283.728,0,290.746,0,299.402s7.017,15.674,15.674,15.674    c21.588,0,42.493-6.564,60.082-18.689c17.586,12.125,38.489,18.689,60.079,18.689s42.495-6.565,60.081-18.69    c17.59,12.126,38.493,18.69,60.084,18.69s42.493-6.564,60.081-18.69c17.588,12.126,38.491,18.69,60.081,18.69    c21.588,0,42.491-6.564,60.081-18.69c17.588,12.126,38.491,18.69,60.081,18.69c8.655,0,15.674-7.017,15.678-15.674    C512.004,290.746,504.985,283.728,496.33,283.728z"/>
	</g>
</g>
<g>
	<g>
		<path d="M496.328,369.076c-18.335,0-35.964-6.724-49.645-18.934c-5.946-5.308-14.928-5.308-20.875-0.001    c-13.682,12.211-31.313,18.935-49.645,18.935c-18.335,0-35.964-6.724-49.645-18.934c-5.946-5.308-14.929-5.308-20.875,0    c-13.68,12.21-31.311,18.934-49.645,18.934c-18.335,0-35.967-6.724-49.647-18.935c-5.947-5.306-14.931-5.306-20.876,0.002    c-13.676,12.21-31.307,18.933-49.643,18.933c-18.335,0-35.964-6.723-49.638-18.933c-5.947-5.308-14.931-5.31-20.876-0.001    c-13.68,12.21-31.311,18.934-49.647,18.934C7.017,369.076,0,376.094,0,384.75s7.017,15.674,15.674,15.674    c21.59,0,42.495-6.564,60.082-18.691c17.586,12.128,38.487,18.691,60.079,18.691c21.59,0,42.495-6.565,60.081-18.691    c17.59,12.128,38.493,18.691,60.084,18.691c21.588,0,42.493-6.565,60.081-18.691c17.586,12.126,38.491,18.691,60.081,18.691    c21.588,0,42.491-6.564,60.081-18.691c17.586,12.125,38.491,18.691,60.081,18.691c8.655,0,15.674-7.018,15.676-15.674    C512.002,376.094,504.983,369.076,496.328,369.076z"/>
	</g>
</g>
<g>
	<g>
		<path d="M207.344,111.58c-28.603,0-56.077,6.271-81.658,18.637c-4.841,2.34-8.143,6.998-8.751,12.341    c-0.608,5.342,1.565,10.623,5.755,13.99c30.193,24.258,45.583,51.972,52.921,77.533c6.286-3.01,13.211-4.614,20.305-4.614    c11.561,0,22.68,4.24,31.307,11.938c7.933,7.078,18.151,10.976,28.778,10.976c10.625,0,20.841-3.898,28.77-10.973    c8.631-7.7,19.749-11.94,31.311-11.94c11.561,0,22.68,4.24,31.307,11.936c7.931,7.079,18.149,10.977,28.774,10.977    c4.286,0,8.503-0.645,12.533-1.866C367.126,170.579,294.002,111.58,207.344,111.58z"/>
	</g>
</g>
<g>
</g>
<g>
</g>
<g>
</g>
<g>
</g>
<g>
</g>
<g>
</g>
<g>
</g>
<g>
</g>
<g>
</g>
<g>
</g>
<g>
</g>
<g>
</g>
<g>
</g>
<g>
</g>
<g>
</g>
</svg>
