<?xml version="1.0" encoding="iso-8859-1"?>
<!-- Generator: Adobe Illustrator 19.0.0, SVG Export Plug-In . SVG Version: 6.00 Build 0)  -->
<svg xmlns="http://www.w3.org/2000/svg" xmlns:xlink="http://www.w3.org/1999/xlink" version="1.1" id="Layer_1" x="0px" y="0px" viewBox="0 0 512 512" style="enable-background:new 0 0 512 512;" xml:space="preserve">
<g>
	<g>
		<path d="M84.431,407.49c1.426,7.434,3.026,14.442,4.743,21.032H458.18c1.717-6.59,3.316-13.598,4.743-21.032H84.431z"/>
	</g>
</g>
<g>
	<g>
		<path d="M99.186,459.867c11.051,28.8,22.446,43.886,23.369,45.079c2.967,3.841,7.549,6.092,12.404,6.092h277.44    c4.856,0,9.436-2.251,12.404-6.094c0.923-1.194,12.316-16.277,23.367-45.077H99.186z"/>
	</g>
</g>
<g>
	<g>
		<path d="M511.293,11.998c-2.563-8.267-11.342-12.893-19.612-10.329L11.036,150.696c-8.268,2.563-12.892,11.344-10.329,19.612    c2.083,6.723,8.278,11.037,14.965,11.037c1.537,0,3.101-0.229,4.647-0.708l237.647-73.683v53.88H134.959    c-4.855,0-9.436,2.251-12.404,6.093c-1.824,2.362-44.681,59.108-44.681,169.01c0,14.305,0.732,27.704,2,40.206H467.48    c1.267-12.502,1.998-25.899,1.998-40.206c0-109.903-42.851-166.648-44.673-169.009c-2.97-3.843-7.551-6.094-12.406-6.094H289.314    V97.233l211.652-65.624C509.233,29.047,513.857,20.267,511.293,11.998z M255.655,335.937c0,8.655-7.018,15.673-15.673,15.673    H149.45c-8.655,0-15.673-7.018-15.673-15.673c0-51.221,10.75-87.841,19.767-109.541c2.43-5.848,8.141-9.659,14.474-9.659h71.964    c8.655,0,15.673,7.018,15.673,15.673V335.937z M291.698,232.411h0.001c0-8.655,7.016-15.673,15.673-15.673h71.945    c6.32,0,12.022,3.796,14.461,9.626c9.031,21.596,19.795,58.136,19.795,109.574c0,8.655-7.016,15.673-15.673,15.673h-90.53    c-8.657,0-15.673-7.018-15.673-15.673V232.411z"/>
	</g>
</g>
<g>
</g>
<g>
</g>
<g>
</g>
<g>
</g>
<g>
</g>
<g>
</g>
<g>
</g>
<g>
</g>
<g>
</g>
<g>
</g>
<g>
</g>
<g>
</g>
<g>
</g>
<g>
</g>
<g>
</g>
</svg>
