<?xml version="1.0" encoding="iso-8859-1"?>
<!-- Generator: Adobe Illustrator 19.0.0, SVG Export Plug-In . SVG Version: 6.00 Build 0)  -->
<svg xmlns="http://www.w3.org/2000/svg" xmlns:xlink="http://www.w3.org/1999/xlink" version="1.1" id="Layer_1" x="0px" y="0px" viewBox="0 0 512 512" style="enable-background:new 0 0 512 512;" xml:space="preserve">
<g>
	<g>
		<path d="M198.001,327.952v89.369c0,8.657,7.018,15.673,15.673,15.673h5.019h74.615h5.021c8.655,0,15.674-7.016,15.674-15.673    v-89.369H198.001z"/>
	</g>
</g>
<g>
	<g>
		<path d="M178.247,109.102V280.93c0,8.655,7.018,15.673,15.673,15.673h4.08h116.001h4.077c8.657,0,15.674-7.019,15.674-15.673    V109.102H178.247z"/>
	</g>
</g>
<g>
	<g>
		<path d="M295.976,480.653h-2.668v-16.312h-74.615v16.312h-2.668c-8.656,0-15.673,7.019-15.673,15.673    c0,8.657,7.018,15.673,15.673,15.673h79.95c8.657,0,15.673-7.016,15.673-15.673C311.649,487.672,304.633,480.653,295.976,480.653z    "/>
	</g>
</g>
<g>
	<g>
		<path d="M256.001,0c-42.873,0-77.754,34.882-77.754,77.755h155.506C333.753,34.882,298.873,0,256.001,0z"/>
	</g>
</g>
<g>
</g>
<g>
</g>
<g>
</g>
<g>
</g>
<g>
</g>
<g>
</g>
<g>
</g>
<g>
</g>
<g>
</g>
<g>
</g>
<g>
</g>
<g>
</g>
<g>
</g>
<g>
</g>
<g>
</g>
</svg>
