<?xml version="1.0" encoding="iso-8859-1"?>
<!-- Generator: Adobe Illustrator 19.0.0, SVG Export Plug-In . SVG Version: 6.00 Build 0)  -->
<svg xmlns="http://www.w3.org/2000/svg" xmlns:xlink="http://www.w3.org/1999/xlink" version="1.1" id="Layer_1" x="0px" y="0px" viewBox="0 0 512 512" style="enable-background:new 0 0 512 512;" xml:space="preserve">
<g>
	<g>
		<path d="M256,88.347c-81.508,0-150.37,55.144-171.26,130.081h342.521C406.37,143.491,337.509,88.347,256,88.347z"/>
	</g>
</g>
<g>
	<g>
		<path d="M433.046,250.216H78.957c-0.467,5.238-0.719,10.535-0.719,15.894v29.764h355.528V266.11    C433.765,260.752,433.513,255.454,433.046,250.216z"/>
	</g>
</g>
<g>
	<g>
		<path d="M509.372,381.502c-1.673-9.259-5.398-26.514-11.546-38.041c-6.968-13.06-15.804-15.801-21.99-15.801H36.167    c-6.186,0-15.023,2.74-21.991,15.803c-6.149,11.525-9.874,28.78-11.547,38.039c-4.891,27.067-1.902,31.525,0.5,35.107    c2.951,4.403,7.901,7.043,13.201,7.043H495.67c5.299,0,10.25-2.641,13.2-7.043C511.272,413.027,514.262,408.569,509.372,381.502z"/>
	</g>
</g>
<g>
</g>
<g>
</g>
<g>
</g>
<g>
</g>
<g>
</g>
<g>
</g>
<g>
</g>
<g>
</g>
<g>
</g>
<g>
</g>
<g>
</g>
<g>
</g>
<g>
</g>
<g>
</g>
<g>
</g>
</svg>
