<?xml version="1.0" encoding="iso-8859-1"?>
<!-- Generator: Adobe Illustrator 19.0.0, SVG Export Plug-In . SVG Version: 6.00 Build 0)  -->
<svg xmlns="http://www.w3.org/2000/svg" xmlns:xlink="http://www.w3.org/1999/xlink" version="1.1" id="Layer_1" x="0px" y="0px" viewBox="0 0 512.001 512.001" style="enable-background:new 0 0 512.001 512.001;" xml:space="preserve">
<g>
	<g>
		<path d="M420.418,122.076c8.657,0,15.676-7.019,15.676-15.676V56.938c0-4.158-1.651-8.145-4.591-11.084l-24.731-24.731    c-2.941-2.94-6.928-4.591-11.084-4.591c-4.158,0-8.145,1.651-11.084,4.592l-24.729,24.73c-2.941,2.94-4.592,6.928-4.592,11.084    v49.461c0,8.657,7.019,15.676,15.676,15.676h9.053v277.103h-9.053c-8.657,0-15.676,7.019-15.676,15.676v49.461    c0,4.157,1.651,8.144,4.592,11.084l24.729,24.73c2.94,2.941,6.927,4.592,11.084,4.592c4.158,0,8.145-1.651,11.084-4.592    l24.731-24.73c2.94-2.94,4.591-6.927,4.591-11.084v-49.461c0-8.658-7.019-15.676-15.676-15.676h-9.055V122.076H420.418z"/>
	</g>
</g>
<g>
	<g>
		<path d="M288.438,260.627c0-8.657,7.019-15.676,15.676-15.676h51.029c-2.67-54.381-24.891-112.208-64.677-167.987    c-31.737-44.498-63.206-71.982-64.531-73.13c-5.893-5.112-14.648-5.112-20.54,0c-1.324,1.148-32.795,28.631-64.533,73.13    c-1.636,2.292-3.231,4.591-4.807,6.89h57.472c8.656,0,15.676,7.019,15.676,15.676s-7.02,15.676-15.676,15.676h-77.014    c-26.669,47.455-40.606,95.475-40.606,140.795c0,48.266,15.807,99.598,45.97,150.047h71.65c8.656,0,15.676,7.019,15.676,15.676    c0,8.657-7.02,15.676-15.676,15.676h-50.961c31.152,43.098,61.528,69.64,62.828,70.768c2.946,2.554,6.608,3.832,10.27,3.832    s7.324-1.278,10.27-3.833c1.325-1.149,32.794-28.632,64.531-73.13c37.537-52.628,59.429-107.077,64.028-158.735h-50.379    C295.456,276.303,288.438,269.284,288.438,260.627z M215.663,323.176c-37.041,0-67.176-30.135-67.176-67.176    c0-37.042,30.135-67.177,67.176-67.177S282.84,218.958,282.84,256C282.841,293.041,252.705,323.176,215.663,323.176z"/>
	</g>
</g>
<g>
</g>
<g>
</g>
<g>
</g>
<g>
</g>
<g>
</g>
<g>
</g>
<g>
</g>
<g>
</g>
<g>
</g>
<g>
</g>
<g>
</g>
<g>
</g>
<g>
</g>
<g>
</g>
<g>
</g>
</svg>
