<?xml version="1.0" encoding="iso-8859-1"?>
<!-- Generator: Adobe Illustrator 19.0.0, SVG Export Plug-In . SVG Version: 6.00 Build 0)  -->
<svg xmlns="http://www.w3.org/2000/svg" xmlns:xlink="http://www.w3.org/1999/xlink" version="1.1" id="Layer_1" x="0px" y="0px" viewBox="0 0 512.004 512.004" style="enable-background:new 0 0 512.004 512.004;" xml:space="preserve">
<g>
	<g>
		<path d="M256,1.7c-8.656,0-15.674,7.018-15.674,15.674v60.37c0,8.656,7.018,15.674,15.674,15.674s15.674-7.017,15.674-15.674    v-60.37C271.674,8.718,264.656,1.7,256,1.7z"/>
	</g>
</g>
<g>
	<g>
		<path d="M178.559,84.461l-38.288-66.32c-4.328-7.496-13.914-10.064-21.41-5.737c-7.496,4.327-10.066,13.913-5.737,21.41    l38.288,66.318c2.903,5.029,8.171,7.841,13.588,7.841c2.659,0,5.354-0.677,7.822-2.102    C180.319,101.543,182.888,91.957,178.559,84.461z"/>
	</g>
</g>
<g>
	<g>
		<path d="M97.134,140.116L44.63,109.802c-7.496-4.329-17.081-1.761-21.41,5.737c-4.329,7.496-1.761,17.082,5.737,21.41    l52.504,30.313c2.468,1.426,5.163,2.102,7.822,2.102c5.417,0,10.685-2.81,13.588-7.838    C107.2,154.03,104.631,144.445,97.134,140.116z"/>
	</g>
</g>
<g>
	<g>
		<path d="M393.138,12.404c-7.496-4.329-17.081-1.76-21.41,5.737l-38.289,66.319c-4.329,7.497-1.761,17.082,5.737,21.41    c2.468,1.426,5.163,2.103,7.822,2.103c5.417,0,10.685-2.812,13.587-7.84l38.29-66.319    C403.203,26.319,400.635,16.733,393.138,12.404z"/>
	</g>
</g>
<g>
	<g>
		<path d="M488.782,115.537c-4.328-7.497-13.913-10.065-21.41-5.738l-52.507,30.315c-7.496,4.327-10.066,13.913-5.737,21.41    c2.903,5.029,8.171,7.839,13.588,7.839c2.659,0,5.354-0.677,7.822-2.102l52.507-30.313    C490.543,132.621,493.11,123.035,488.782,115.537z"/>
	</g>
</g>
<g>
	<g>
		<path d="M496.33,393.609c-18.334,0-35.966-6.724-49.646-18.934c-5.946-5.308-14.929-5.308-20.874,0    c-13.68,12.209-31.311,18.934-49.644,18.934c-18.335,0-35.966-6.724-49.644-18.934c-5.948-5.308-14.931-5.307-20.875,0    c-13.68,12.209-31.31,18.934-49.645,18.934s-35.967-6.724-49.647-18.934c-5.948-5.308-14.931-5.308-20.875,0.001    c-13.677,12.209-31.308,18.933-49.644,18.933c-18.334,0-35.964-6.723-49.641-18.933c-5.948-5.31-14.931-5.31-20.875-0.001    c-13.68,12.209-31.311,18.934-49.646,18.934C7.018,393.609,0,400.627,0,409.283s7.018,15.674,15.674,15.674    c21.59,0,42.495-6.564,60.083-18.69c17.586,12.126,38.488,18.69,60.078,18.69c21.592,0,42.496-6.564,60.083-18.69    c17.588,12.126,38.493,18.69,60.083,18.69c21.59,0,42.494-6.564,60.082-18.69c17.587,12.126,38.49,18.69,60.082,18.69    c21.59,0,42.491-6.564,60.081-18.69c17.589,12.127,38.492,18.69,60.083,18.69c8.656,0,15.674-7.018,15.678-15.674    C512.004,400.627,504.987,393.609,496.33,393.609z"/>
	</g>
</g>
<g>
	<g>
		<path d="M496.33,478.957c-18.333,0-35.964-6.725-49.647-18.935c-5.946-5.306-14.928-5.306-20.872,0    c-13.683,12.21-31.314,18.935-49.645,18.935c-18.334,0-35.965-6.725-49.645-18.934c-5.948-5.307-14.928-5.308-20.874-0.001    c-13.681,12.21-31.312,18.935-49.645,18.935c-18.333,0-35.965-6.725-49.648-18.935c-5.946-5.306-14.929-5.307-20.873,0.001    c-13.68,12.209-31.311,18.934-49.645,18.934c-18.333,0-35.962-6.725-49.642-18.934c-5.948-5.307-14.928-5.308-20.874-0.001    c-13.681,12.21-31.313,18.935-49.646,18.935C7.018,478.957,0,485.974,0,494.63s7.018,15.674,15.674,15.674    c21.59,0,42.492-6.564,60.083-18.691c17.587,12.126,38.49,18.691,60.078,18.691c21.591,0,42.494-6.564,60.083-18.691    c17.59,12.127,38.494,18.691,60.083,18.691c21.589,0,42.491-6.565,60.082-18.691c17.589,12.128,38.492,18.691,60.082,18.691    c21.588,0,42.49-6.565,60.081-18.691c17.59,12.127,38.494,18.691,60.083,18.691c8.656,0,15.674-7.018,15.678-15.674    C512.004,485.974,504.986,478.957,496.33,478.957z"/>
	</g>
</g>
<g>
	<g>
		<path d="M496.33,308.261c-18.334,0-35.966-6.725-49.646-18.934c-5.946-5.308-14.929-5.308-20.874,0    c-13.68,12.209-31.311,18.934-49.644,18.934c-18.335,0-35.966-6.725-49.644-18.934c-5.948-5.308-14.931-5.307-20.875,0    c-13.68,12.209-31.31,18.934-49.645,18.934s-35.967-6.725-49.647-18.934c-5.948-5.308-14.931-5.308-20.875,0.001    c-13.677,12.209-31.308,18.933-49.644,18.933c-18.334,0-35.964-6.723-49.641-18.933c-5.948-5.31-14.931-5.31-20.875-0.001    c-13.68,12.209-31.311,18.934-49.646,18.934C7.018,308.261,0,315.279,0,323.935s7.018,15.674,15.674,15.674    c21.59,0,42.495-6.565,60.083-18.69c17.586,12.126,38.488,18.69,60.078,18.69c21.592,0,42.496-6.565,60.083-18.69    c17.588,12.126,38.493,18.69,60.083,18.69c21.59,0,42.494-6.565,60.082-18.69c17.587,12.126,38.49,18.69,60.082,18.69    c21.59,0,42.491-6.564,60.081-18.69c17.589,12.127,38.492,18.69,60.083,18.69c8.656,0,15.678-7.018,15.678-15.674    S504.987,308.261,496.33,308.261z"/>
	</g>
</g>
<g>
	<g>
		<path d="M256.003,100.23c-93.833,0-172.397,66.592-190.933,154.995c3.476-0.809,7.058-1.228,10.685-1.228    c11.566,0,22.689,4.243,31.318,11.948c7.922,7.073,18.137,10.968,28.761,10.968c10.627,0,20.843-3.895,28.768-10.971    c8.623-7.701,19.745-11.945,31.313-11.945c11.564,0,22.685,4.242,31.313,11.943c7.928,7.075,18.146,10.973,28.772,10.973    c10.625,0,20.842-3.896,28.771-10.974c8.625-7.699,19.745-11.941,31.311-11.941c11.564,0,22.685,4.241,31.313,11.942    c7.927,7.075,18.144,10.973,28.769,10.973c10.624,0,20.841-3.896,28.77-10.974c8.623-7.699,19.744-11.942,31.311-11.942    c3.628,0,7.21,0.418,10.688,1.229C428.396,166.823,349.834,100.23,256.003,100.23z"/>
	</g>
</g>
<g>
</g>
<g>
</g>
<g>
</g>
<g>
</g>
<g>
</g>
<g>
</g>
<g>
</g>
<g>
</g>
<g>
</g>
<g>
</g>
<g>
</g>
<g>
</g>
<g>
</g>
<g>
</g>
<g>
</g>
</svg>
