<?xml version="1.0" encoding="iso-8859-1"?>
<!-- Generator: Adobe Illustrator 19.0.0, SVG Export Plug-In . SVG Version: 6.00 Build 0)  -->
<svg xmlns="http://www.w3.org/2000/svg" xmlns:xlink="http://www.w3.org/1999/xlink" version="1.1" id="Layer_1" x="0px" y="0px" viewBox="0 0 512 512" style="enable-background:new 0 0 512 512;" xml:space="preserve">
<g>
	<g>
		<path d="M138.208,61.693c-8.753-17.868-26.975-29.444-47.351-29.444c-20.378,0-38.6,11.576-47.353,29.445    C31.02,68.832,23.048,82.229,23.048,97.05c0,22.455,18.268,40.725,40.725,40.725h54.169c22.454,0,40.723-18.27,40.723-40.725    C158.664,82.227,150.693,68.83,138.208,61.693z"/>
	</g>
</g>
<g>
	<g>
		<path d="M462.843,81.483c-10.528-22.929-33.502-37.884-59.259-37.884c-25.758,0-48.733,14.956-59.262,37.885    c-15.878,8.394-26.106,25.014-26.106,43.461c0,27.108,22.054,49.162,49.161,49.162h72.411c27.109,0,49.163-22.055,49.163-49.162    C488.951,106.497,478.722,89.876,462.843,81.483z"/>
	</g>
</g>
<g>
	<g>
		<path d="M329.755,260.831c-1.723-7.005-8.006-11.931-15.22-11.931h-0.974H200.063h-0.975c-7.215,0-13.497,4.926-15.219,11.931    l-10.43,42.411h166.745L329.755,260.831z"/>
	</g>
</g>
<g>
	<g>
		<path d="M298.544,174.498h-83.462c-2.175,15.077-4.614,29.685-7.335,43.055h98.131    C303.157,204.182,300.718,189.575,298.544,174.498z"/>
	</g>
</g>
<g>
	<g>
		<path d="M285.845,51.168c-0.535-7.426-6.19-13.318-13.359-14.364v-21.13C272.486,7.018,265.468,0,256.812,0    s-15.673,7.018-15.673,15.673v21.13c-7.169,1.045-12.825,6.937-13.361,14.365c-1.788,24.833-4.588,58.245-8.596,91.982h75.262    C290.434,109.413,287.634,76.001,285.845,51.168z"/>
	</g>
</g>
<g>
	<g>
		<path d="M408.936,492.517l-36.612-146.074c-1.73-6.903-7.889-11.756-14.987-11.854H156.285    c-7.097,0.098-13.258,4.951-14.987,11.854l-36.612,146.074c-1.174,4.683-0.123,9.646,2.846,13.452    c2.971,3.807,7.529,6.031,12.357,6.031h67.044c8.656,0,15.673-7.018,15.673-15.673c0-29.956,24.371-54.327,54.327-54.327    s54.326,24.371,54.326,54.327c0,8.656,7.018,15.673,15.674,15.673h66.799c4.828,0,9.386-2.226,12.357-6.031    C409.059,502.162,410.109,497.199,408.936,492.517z"/>
	</g>
</g>
<g>
</g>
<g>
</g>
<g>
</g>
<g>
</g>
<g>
</g>
<g>
</g>
<g>
</g>
<g>
</g>
<g>
</g>
<g>
</g>
<g>
</g>
<g>
</g>
<g>
</g>
<g>
</g>
<g>
</g>
</svg>
