<?xml version="1.0" encoding="iso-8859-1"?>
<!-- Generator: Adobe Illustrator 19.0.0, SVG Export Plug-In . SVG Version: 6.00 Build 0)  -->
<svg xmlns="http://www.w3.org/2000/svg" xmlns:xlink="http://www.w3.org/1999/xlink" version="1.1" id="Layer_1" x="0px" y="0px" viewBox="0 0 512 512" style="enable-background:new 0 0 512 512;" xml:space="preserve">
<g>
	<g>
		<path d="M393.863,78.843c-2.648-9.992-14.225-17.816-34.412-23.255c-13.518-3.642-41.354-8.647-75.91-1.247    c-34.773,7.448-66.326,25.147-93.786,52.606L24.202,272.499C9.238,287.462,0.721,307.145,0,328.191    c18.657-37.769,57.581-63.81,102.479-63.81h116.877L389.793,93.944C393.743,89.995,395.293,84.243,393.863,78.843z"/>
	</g>
</g>
<g>
	<g>
		<path d="M429.13,295.738H102.479c-45.694,0-82.869,37.175-82.869,82.869c0,45.695,37.175,82.87,82.869,82.87H429.13    c45.695,0,82.87-37.175,82.87-82.87C512,332.914,474.825,295.738,429.13,295.738z M102.48,417.029    c-21.185,0-38.421-17.235-38.421-38.422c0-21.185,17.235-38.421,38.421-38.421c21.185,0,38.421,17.235,38.421,38.421    C140.901,399.794,123.666,417.029,102.48,417.029z M429.13,417.029c-21.185,0-38.42-17.235-38.42-38.422    c0-21.185,17.234-38.421,38.42-38.421c21.187,0,38.422,17.235,38.422,38.421C467.552,399.794,450.316,417.029,429.13,417.029z"/>
	</g>
</g>
<g>
</g>
<g>
</g>
<g>
</g>
<g>
</g>
<g>
</g>
<g>
</g>
<g>
</g>
<g>
</g>
<g>
</g>
<g>
</g>
<g>
</g>
<g>
</g>
<g>
</g>
<g>
</g>
<g>
</g>
</svg>
