<?xml version="1.0" encoding="iso-8859-1"?>
<!-- Generator: Adobe Illustrator 19.0.0, SVG Export Plug-In . SVG Version: 6.00 Build 0)  -->
<svg xmlns="http://www.w3.org/2000/svg" xmlns:xlink="http://www.w3.org/1999/xlink" version="1.1" id="Layer_1" x="0px" y="0px" viewBox="0 0 512 512" style="enable-background:new 0 0 512 512;" xml:space="preserve">
<g>
	<g>
		<path d="M300.646,240.327h-89.293c-22.753,0-41.265,18.511-41.265,41.265c0,22.755,18.512,41.268,41.265,41.268h89.293    c22.755,0,41.267-18.513,41.267-41.268C341.913,258.838,323.401,240.327,300.646,240.327z"/>
	</g>
</g>
<g>
	<g>
		<path d="M269.488,447.402h40.808v-93.856c-3.159,0.422-6.378,0.661-9.651,0.661h-89.293c-3.273,0-6.489-0.239-9.649-0.66v33.251    h48.468c8.658,0,15.674,7.018,15.674,15.674c0,8.656-7.016,15.673-15.674,15.673h-48.468v78.181    c0,8.656,7.019,15.673,15.673,15.673h77.245c8.657,0,15.673-7.018,15.673-15.673v-17.577h-40.808    c-8.655,0-15.675-7.018-15.675-15.673S260.832,447.402,269.488,447.402z"/>
	</g>
</g>
<g>
	<g>
		<path d="M255.998,0c-8.655,0-15.673,7.018-15.673,15.673v41.491c0,8.656,7.019,15.673,15.673,15.673    c8.657,0,15.673-7.018,15.673-15.673V15.673C271.672,7.018,264.656,0,255.998,0z"/>
	</g>
</g>
<g>
	<g>
		<path d="M201.529,46.082l-29.337-29.34c-6.121-6.121-16.044-6.121-22.165-0.001c-6.121,6.12-6.122,16.044-0.002,22.165    l29.337,29.339c3.06,3.062,7.071,4.592,11.083,4.592c4.01,0,8.022-1.531,11.082-4.59    C207.648,62.127,207.649,52.202,201.529,46.082z"/>
	</g>
</g>
<g>
	<g>
		<path d="M361.977,16.741c-6.121-6.12-16.045-6.119-22.165,0l-29.341,29.34c-6.12,6.121-6.12,16.044,0,22.165    c3.06,3.061,7.071,4.591,11.083,4.591c4.009,0,8.022-1.531,11.082-4.591l29.341-29.34    C368.097,32.786,368.097,22.862,361.977,16.741z"/>
	</g>
</g>
<g>
	<g>
		<path d="M351.29,86.929H160.71c-8.655,0-15.673,7.018-15.673,15.673c0,43.605,10.631,84.833,29.934,116.19    c10.707-6.227,23.132-9.813,36.382-9.813h89.293c13.251,0,25.675,3.586,36.381,9.812c19.307-31.355,29.936-72.585,29.936-116.188    C366.963,93.947,359.947,86.929,351.29,86.929z"/>
	</g>
</g>
<g>
</g>
<g>
</g>
<g>
</g>
<g>
</g>
<g>
</g>
<g>
</g>
<g>
</g>
<g>
</g>
<g>
</g>
<g>
</g>
<g>
</g>
<g>
</g>
<g>
</g>
<g>
</g>
<g>
</g>
</svg>
