<?xml version="1.0" encoding="iso-8859-1"?>
<!-- Generator: Adobe Illustrator 19.0.0, SVG Export Plug-In . SVG Version: 6.00 Build 0)  -->
<svg xmlns="http://www.w3.org/2000/svg" xmlns:xlink="http://www.w3.org/1999/xlink" version="1.1" id="Layer_1" x="0px" y="0px" viewBox="0 0 512 512" style="enable-background:new 0 0 512 512;" xml:space="preserve">
<g>
	<g>
		<path d="M407.51,0H104.49c-8.656,0-15.673,7.016-15.673,15.673v480.653c0,8.655,7.018,15.673,15.673,15.673h303.02    c8.656,0,15.673-7.019,15.673-15.673V15.673C423.184,7.016,416.166,0,407.51,0z M256,485.878    c-15.58,0-28.213-12.633-28.213-28.214c0-15.579,12.633-28.212,28.213-28.212c15.579,0,28.212,12.633,28.212,28.212    C284.212,473.245,271.579,485.878,256,485.878z M375.118,387.657c0,8.655-7.018,15.673-15.673,15.673h-206.89    c-8.656,0-15.673-7.019-15.673-15.673V63.739c0-8.657,7.018-15.673,15.673-15.673h206.89c8.656,0,15.673,7.016,15.673,15.673    V387.657z"/>
	</g>
</g>
<g>
	<g>
		<path d="M310.829,151.101c-13.646-16.813-33.63-26.456-54.828-26.456c-21.198,0-41.182,9.642-54.828,26.456    c-25.877,31.885-25.755,72.272,0.352,116.801c18.234,31.1,42.969,53.441,44.014,54.375c2.977,2.67,6.719,4.002,10.461,4.002    c3.742,0,7.485-1.334,10.461-4.002c1.044-0.936,25.779-23.277,44.012-54.375C336.579,223.374,336.703,182.986,310.829,151.101z     M282.085,236.934c-6.965,6.962-16.228,10.795-26.086,10.795c-9.857,0-19.117-3.833-26.076-10.79    c-6.961-6.961-10.795-16.224-10.795-26.084c0-9.861,3.834-19.124,10.796-26.084c6.955-6.958,16.217-10.792,26.075-10.792    c9.855,0,19.119,3.832,26.081,10.79C296.462,199.154,296.462,222.553,282.085,236.934z"/>
	</g>
</g>
<g>
</g>
<g>
</g>
<g>
</g>
<g>
</g>
<g>
</g>
<g>
</g>
<g>
</g>
<g>
</g>
<g>
</g>
<g>
</g>
<g>
</g>
<g>
</g>
<g>
</g>
<g>
</g>
<g>
</g>
</svg>
