<?xml version="1.0" encoding="iso-8859-1"?>
<!-- Generator: Adobe Illustrator 19.0.0, SVG Export Plug-In . SVG Version: 6.00 Build 0)  -->
<svg xmlns="http://www.w3.org/2000/svg" xmlns:xlink="http://www.w3.org/1999/xlink" version="1.1" id="Layer_1" x="0px" y="0px" viewBox="0 0 512 512" style="enable-background:new 0 0 512 512;" xml:space="preserve">
<g>
	<g>
		<path d="M496.327,414.178c-18.334,0-35.966-6.726-49.647-18.936c-5.946-5.305-14.926-5.307-20.871,0    c-13.685,12.211-31.317,18.936-49.649,18.936c-18.334,0-35.966-6.725-49.647-18.935c-5.944-5.308-14.928-5.308-20.873,0    c-13.679,12.21-31.311,18.935-49.644,18.935c-18.335,0-35.967-6.726-49.65-18.936c-5.944-5.306-14.926-5.307-20.873,0.001    c-13.679,12.21-31.311,18.935-49.646,18.935s-35.964-6.725-49.641-18.933c-5.945-5.311-14.928-5.311-20.873-0.003    c-13.678,12.21-31.31,18.936-49.643,18.936C7.017,414.178,0,421.195,0,429.85v65.633c0,8.655,7.017,15.673,15.673,15.673h480.655    c8.657,0,15.673-7.017,15.673-15.673V429.85C512,421.195,504.984,414.178,496.327,414.178z"/>
	</g>
</g>
<g>
	<g>
		<path d="M480.092,297.169c-2.712-5.142-8.048-8.36-13.863-8.36H45.771c-5.812,0-11.15,3.218-13.862,8.36    c-2.713,5.142-2.357,11.363,0.926,16.162c8.774,12.829,20.508,29.909,32.746,47.705c3.316-0.733,6.725-1.119,10.173-1.119    c11.567,0,22.69,4.245,31.318,11.948c7.921,7.072,18.136,10.968,28.761,10.968c10.627,0,20.845-3.896,28.773-10.974    c8.625-7.699,19.743-11.941,31.309-11.941c11.562,0,22.68,4.24,31.307,11.937c7.932,7.079,18.153,10.978,28.779,10.978    c10.625,0,20.843-3.897,28.771-10.974c8.622-7.699,19.743-11.943,31.309-11.943c11.566,0,22.687,4.242,31.315,11.946    c7.924,7.074,18.142,10.971,28.768,10.971c10.624,0,20.844-3.899,28.778-10.978c8.622-7.696,19.74-11.937,31.305-11.937    c3.512,0,6.984,0.397,10.356,1.158c12.136-17.82,23.791-34.918,32.564-47.746C482.449,308.532,482.804,302.311,480.092,297.169z     M146.198,346.724c-12.349,0-22.359-10.012-22.359-22.36c0-12.35,10.01-22.36,22.359-22.36s22.361,10.01,22.361,22.36    C168.558,336.712,158.547,346.724,146.198,346.724z M255.999,346.724c-12.348,0-22.359-10.012-22.359-22.36    c0-12.35,10.011-22.36,22.359-22.36c12.349,0,22.361,10.01,22.361,22.36C278.36,336.712,268.348,346.724,255.999,346.724z     M365.801,346.724c-12.346,0-22.36-10.012-22.36-22.36c0-12.35,10.014-22.36,22.36-22.36c12.348,0,22.36,10.01,22.36,22.36    C388.162,336.712,378.15,346.724,365.801,346.724z"/>
	</g>
</g>
<g>
	<g>
		<polygon points="170.831,257.464 224.655,257.464 224.655,163.874   "/>
	</g>
</g>
<g>
	<g>
		<g>
			<path d="M267.63,1.375C260.772,3.206,256,9.417,256,16.517v240.946h172.32L285.26,8.704     C281.721,2.551,274.491-0.453,267.63,1.375z"/>
			<polygon points="428.321,257.463 428.32,257.463 428.321,257.464    "/>
		</g>
	</g>
</g>
<g>
</g>
<g>
</g>
<g>
</g>
<g>
</g>
<g>
</g>
<g>
</g>
<g>
</g>
<g>
</g>
<g>
</g>
<g>
</g>
<g>
</g>
<g>
</g>
<g>
</g>
<g>
</g>
<g>
</g>
</svg>
