<?xml version="1.0" encoding="iso-8859-1"?>
<!-- Generator: Adobe Illustrator 19.0.0, SVG Export Plug-In . SVG Version: 6.00 Build 0)  -->
<svg xmlns="http://www.w3.org/2000/svg" xmlns:xlink="http://www.w3.org/1999/xlink" version="1.1" id="Layer_1" x="0px" y="0px" viewBox="0 0 512 512" style="enable-background:new 0 0 512 512;" xml:space="preserve">
<g>
	<g>
		<path d="M433.597,5.551c-7.405-7.403-19.407-7.401-26.811,0.001L228.165,184.176l129.836,129.839l75.593-75.598    c31.101-31.099,48.228-72.45,48.231-116.435C481.826,77.999,464.698,36.649,433.597,5.551z"/>
	</g>
</g>
<g>
	<g>
		<path d="M338.236,347.871L194.309,203.944c-7.403-7.403-19.407-7.403-26.811,0c-7.403,7.403-7.403,19.407,0,26.811l30.828,30.828    L47.186,412.715c-22.681,22.687-22.681,59.591-0.003,82.27c0.003,0,0.005,0.004,0.005,0.004    c22.678,22.68,59.587,22.682,82.278,0.003l151.131-151.135l30.828,30.827c7.403,7.403,19.407,7.403,26.811,0    C345.639,367.279,345.639,355.275,338.236,347.871z"/>
	</g>
</g>
<g>
</g>
<g>
</g>
<g>
</g>
<g>
</g>
<g>
</g>
<g>
</g>
<g>
</g>
<g>
</g>
<g>
</g>
<g>
</g>
<g>
</g>
<g>
</g>
<g>
</g>
<g>
</g>
<g>
</g>
</svg>
