<?xml version="1.0" encoding="iso-8859-1"?>
<!-- Generator: Adobe Illustrator 19.0.0, SVG Export Plug-In . SVG Version: 6.00 Build 0)  -->
<svg xmlns="http://www.w3.org/2000/svg" xmlns:xlink="http://www.w3.org/1999/xlink" version="1.1" id="Layer_1" x="0px" y="0px" viewBox="0 0 512 512" style="enable-background:new 0 0 512 512;" xml:space="preserve">
<g>
	<g>
		<path d="M446.486,138.084l-66.892-38.62c-2.382-1.376-5.086-2.1-7.837-2.1H135.828c-8.656,0-15.673,7.018-15.673,15.673v77.241    c0,8.656,7.018,15.673,15.673,15.673h73.259v15.626h93.823v-15.626h68.846c2.751,0,5.454-0.724,7.837-2.1l66.892-38.619    c4.849-2.799,7.837-7.974,7.837-13.573S451.335,140.885,446.486,138.084z"/>
	</g>
</g>
<g>
	<g>
		<path d="M376.172,252.925H140.243c-2.752,0-5.454,0.724-7.837,2.1l-66.892,38.622c-4.85,2.8-7.837,7.975-7.837,13.573    c0,5.6,2.986,10.774,7.837,13.573l66.892,38.619c2.382,1.375,5.086,2.1,7.837,2.1h68.845v119.14h-39.571    c-8.656,0-15.674,7.018-15.674,15.673S160.861,512,169.517,512h172.964c8.656,0,15.673-7.018,15.673-15.673    s-7.018-15.673-15.673-15.673h-39.569v-119.14h73.26c8.656,0,15.673-7.018,15.673-15.673v-77.241    C391.845,259.942,384.828,252.925,376.172,252.925z"/>
	</g>
</g>
<g>
	<g>
		<path d="M255.999,0c-25.867,0-46.912,21.045-46.912,46.913v19.104h93.823V46.913h0.001C302.912,21.045,281.866,0,255.999,0z"/>
	</g>
</g>
<g>
</g>
<g>
</g>
<g>
</g>
<g>
</g>
<g>
</g>
<g>
</g>
<g>
</g>
<g>
</g>
<g>
</g>
<g>
</g>
<g>
</g>
<g>
</g>
<g>
</g>
<g>
</g>
<g>
</g>
</svg>
