<?xml version="1.0" encoding="iso-8859-1"?>
<!-- Generator: Adobe Illustrator 19.0.0, SVG Export Plug-In . SVG Version: 6.00 Build 0)  -->
<svg xmlns="http://www.w3.org/2000/svg" xmlns:xlink="http://www.w3.org/1999/xlink" version="1.1" id="Layer_1" x="0px" y="0px" viewBox="0 0 512 512" style="enable-background:new 0 0 512 512;" xml:space="preserve">
<g>
	<g>
		<path d="M431.841,485.112c-43.546-42.514-99.928-67.428-160.168-71.12V257.069h64.539c18.292-92.494-3.612-187.55-58.896-256.13    C270.267,0.327,263.159,0,255.999,0c-7.16,0-14.267,0.327-21.314,0.939c-55.286,68.58-77.19,163.636-58.896,256.13h64.537v156.923    c-60.24,3.692-116.624,28.606-160.165,71.12c-4.559,4.453-5.969,11.222-3.565,17.125C79.001,508.14,84.74,512,91.114,512h329.779    c6.374,0,12.112-3.859,14.516-9.764C437.811,496.335,436.402,489.563,431.841,485.112z"/>
	</g>
</g>
<g>
	<g>
		<path d="M190.552,8.937c-39.404,11.031-75.518,32.041-105.245,61.765c-45.594,45.594-70.702,106.214-70.702,170.692    c0,8.656,7.016,15.675,15.673,15.675H143.77c-9.319-50.777-7.73-102.367,4.941-151.704    C157.571,70.869,171.871,38.156,190.552,8.937z"/>
	</g>
</g>
<g>
	<g>
		<path d="M426.691,70.702c-29.724-29.724-65.839-50.735-105.245-61.765c18.682,29.219,32.983,61.933,41.843,96.428    c12.671,49.337,14.261,100.927,4.939,151.705h113.494c8.655,0,15.674-7.019,15.674-15.675    C497.395,176.917,472.285,116.296,426.691,70.702z"/>
	</g>
</g>
<g>
</g>
<g>
</g>
<g>
</g>
<g>
</g>
<g>
</g>
<g>
</g>
<g>
</g>
<g>
</g>
<g>
</g>
<g>
</g>
<g>
</g>
<g>
</g>
<g>
</g>
<g>
</g>
<g>
</g>
</svg>
