<?xml version="1.0" encoding="iso-8859-1"?>
<!-- Generator: Adobe Illustrator 19.0.0, SVG Export Plug-In . SVG Version: 6.00 Build 0)  -->
<svg xmlns="http://www.w3.org/2000/svg" xmlns:xlink="http://www.w3.org/1999/xlink" version="1.1" id="Layer_1" x="0px" y="0px" viewBox="0 0 512 512" style="enable-background:new 0 0 512 512;" xml:space="preserve">
<g>
	<g>
		<path d="M271.664,106.69V84.48h62.9c0.006,0,0.016-0.001,0.021,0c8.657,0,15.673-7.018,15.673-15.673    c0-3.384-1.072-6.518-2.896-9.08l-11.18-17.486l11.588-18.123c3.085-4.824,3.292-10.947,0.543-15.97    C345.561,3.123,340.29,0,334.564,0h-78.572c-8.657,0-15.673,7.018-15.673,15.673v53.133v37.886l-81.741,141.575h194.826    L271.664,106.69z"/>
	</g>
</g>
<g>
	<g>
		<path d="M491.707,487.814L371.501,279.615H140.479L19.883,488.49c-2.8,4.849-2.8,10.824,0,15.673    c2.8,4.849,7.975,7.837,13.573,7.837h445.066c0.007-0.001,0.015-0.001,0.022,0c8.656,0,15.673-7.018,15.673-15.673    C494.217,493.188,493.295,490.265,491.707,487.814z"/>
	</g>
</g>
<g>
</g>
<g>
</g>
<g>
</g>
<g>
</g>
<g>
</g>
<g>
</g>
<g>
</g>
<g>
</g>
<g>
</g>
<g>
</g>
<g>
</g>
<g>
</g>
<g>
</g>
<g>
</g>
<g>
</g>
</svg>
