<?xml version="1.0" encoding="iso-8859-1"?>
<!-- Generator: Adobe Illustrator 19.0.0, SVG Export Plug-In . SVG Version: 6.00 Build 0)  -->
<svg xmlns="http://www.w3.org/2000/svg" xmlns:xlink="http://www.w3.org/1999/xlink" version="1.1" id="Layer_1" x="0px" y="0px" viewBox="0 0 512 512" style="enable-background:new 0 0 512 512;" xml:space="preserve">
<g>
	<g>
		<path d="M0,256.959v41.872c0,34.756,19.266,65.093,47.679,80.904c-0.066-1.344-0.103-2.694-0.103-4.053    c0-45.397,36.935-82.332,82.333-82.332c27.682,0,52.199,13.747,67.132,34.757c14.934-21.011,39.451-34.757,67.133-34.757    c45.399,0,82.333,36.935,82.333,82.332c0,5.36-0.532,10.596-1.514,15.673h74.48c51.019,0,92.526-41.506,92.526-92.524v-41.872H0z"/>
	</g>
</g>
<g>
	<g>
		<path d="M129.909,324.695c-28.114,0-50.987,22.873-50.987,50.986c0,28.116,22.873,50.99,50.987,50.99s50.987-22.874,50.987-50.99    C180.895,347.568,158.022,324.695,129.909,324.695z"/>
	</g>
</g>
<g>
	<g>
		<path d="M264.174,324.695c-28.115,0-50.988,22.873-50.988,50.986c0,28.116,22.873,50.99,50.988,50.99    c28.114,0,50.987-22.874,50.987-50.99C315.161,347.568,292.288,324.695,264.174,324.695z"/>
	</g>
</g>
<g>
	<g>
		<path d="M419.474,85.329H92.526C41.507,85.329,0,126.837,0,177.854v47.757h512v-47.757C512,126.837,470.493,85.329,419.474,85.329    z M178.824,210.271H55.926c-5.168,0-10.003-2.547-12.926-6.81c-2.923-4.262-3.556-9.691-1.694-14.512l18.124-46.908    c2.334-6.042,8.144-10.025,14.62-10.025h104.774c8.656,0,15.673,7.018,15.673,15.673v46.907h0.001    C194.498,203.254,187.48,210.271,178.824,210.271z M355.669,210.271c-0.007-0.001-0.016-0.001-0.021,0H232.752    c-8.656,0-15.673-7.018-15.673-15.673v-46.908c0-8.656,7.018-15.673,15.673-15.673h104.773c6.476,0,12.286,3.983,14.62,10.024    l17.818,46.117c0.887,1.964,1.379,4.145,1.379,6.44C371.343,203.254,364.326,210.271,355.669,210.271z"/>
	</g>
</g>
<g>
</g>
<g>
</g>
<g>
</g>
<g>
</g>
<g>
</g>
<g>
</g>
<g>
</g>
<g>
</g>
<g>
</g>
<g>
</g>
<g>
</g>
<g>
</g>
<g>
</g>
<g>
</g>
<g>
</g>
</svg>
