<?xml version="1.0" encoding="iso-8859-1"?>
<!-- Generator: Adobe Illustrator 19.0.0, SVG Export Plug-In . SVG Version: 6.00 Build 0)  -->
<svg xmlns="http://www.w3.org/2000/svg" xmlns:xlink="http://www.w3.org/1999/xlink" version="1.1" id="Layer_1" x="0px" y="0px" viewBox="0 0 512 512" style="enable-background:new 0 0 512 512;" xml:space="preserve">
<g>
	<g>
		<path d="M378.78,417.858c-0.131-10.969-2.745-18.567-15.502-28.736c-9.381-7.477-25.506-17.612-58.593-37.579    c9.145-34.695,14.308-81.174,14.308-129.99c0-49.015-5.106-95.283-14.382-130.283C293.365,48.83,277.01,27.31,256,27.31    c-21.008,0-37.362,21.52-48.608,63.961c-9.274,35-14.383,81.269-14.383,130.283c0,48.817,5.165,95.295,14.31,129.99    c-33.088,19.968-49.211,30.101-58.593,37.579c-13.11,10.449-15.508,18.183-15.508,29.65c0,4.633,2.048,9.029,5.599,12.007    c3.549,2.978,8.236,4.234,12.797,3.427l104.359-18.413c0.019,0,0.039,0,0.057,0l104.359,18.413    c0.906,0.161,1.818,0.239,2.724,0.239c0.037,0,0.075,0,0.114,0c8.614-0.05,15.581-7.048,15.581-15.673    C378.806,418.465,378.799,418.16,378.78,417.858z"/>
	</g>
</g>
<g>
	<g>
		<path d="M492.551,337.474c-8.59-16.915-26.1-27.874-45.494-27.874c-19.39,0-36.898,10.957-45.489,27.872    c-11.871,7.092-19.453,20.093-19.453,34.289c0,22.003,17.902,39.903,39.906,39.903h50.076c22.004,0,39.903-17.901,39.903-39.903    C512,357.566,504.42,344.566,492.551,337.474z"/>
	</g>
</g>
<g>
	<g>
		<path d="M120.722,431.925c-9.236-18.658-28.405-30.776-49.661-30.776c-21.253,0-40.423,12.119-49.659,30.776    C8.359,439.483,0,453.625,0,469.086C0,492.749,19.251,512,42.914,512H99.21c23.663,0,42.914-19.251,42.914-42.914    C142.124,453.625,133.765,439.484,120.722,431.925z"/>
	</g>
</g>
<g>
	<g>
		<path d="M120.722,30.776C111.486,12.118,92.316,0,71.061,0C49.808,0,30.639,12.118,21.404,30.775C8.359,38.333,0,52.475,0,67.938    c0,23.663,19.251,42.914,42.914,42.914H99.21c23.662,0,42.912-19.251,42.912-42.914C142.121,52.476,133.763,38.334,120.722,30.776    z"/>
	</g>
</g>
<g>
	<g>
		<path d="M165.836,145.444l-26.067,14.036v-21.905c0-8.656-7.016-15.673-15.673-15.673c-8.655,0-15.673,7.018-15.673,15.673v38.784    l-27.806,14.973v-18.599c0-8.656-7.019-15.673-15.673-15.673c-8.657,0-15.673,7.018-15.673,15.673v36.417    c-19.347,13.062-29.768,21.073-37.1,30.238C2.091,251.987,0.027,264.947,0.027,280.532c0,4.662,2.075,9.083,5.663,12.061    c2.837,2.353,6.383,3.612,10.01,3.612c0.961,0,1.929-0.089,2.888-0.269l144.649-27.122c-1.037-15.334-1.577-31.174-1.577-47.261    C161.661,195.115,163.101,169.344,165.836,145.444z"/>
	</g>
</g>
<g>
	<g>
		<path d="M499.829,239.387c-7.331-9.165-17.753-17.176-37.098-30.237v-36.417c0-8.656-7.016-15.673-15.673-15.673    c-8.655,0-15.673,7.018-15.673,15.673v18.6l-27.808-14.973v-38.784c0-8.656-7.016-15.673-15.673-15.673    c-8.655,0-15.673,7.018-15.673,15.673v21.905l-26.067-14.036c2.737,23.9,4.175,49.671,4.175,76.11    c0,16.086-0.539,31.926-1.574,47.26l144.647,27.123c0.961,0.18,1.929,0.268,2.89,0.268c3.625,0,7.173-1.259,10.008-3.612    c3.59-2.978,5.665-7.399,5.665-12.061C511.974,264.947,509.908,251.986,499.829,239.387z"/>
	</g>
</g>
<g>
</g>
<g>
</g>
<g>
</g>
<g>
</g>
<g>
</g>
<g>
</g>
<g>
</g>
<g>
</g>
<g>
</g>
<g>
</g>
<g>
</g>
<g>
</g>
<g>
</g>
<g>
</g>
<g>
</g>
</svg>
