<?xml version="1.0" encoding="iso-8859-1"?>
<!-- Generator: Adobe Illustrator 19.0.0, SVG Export Plug-In . SVG Version: 6.00 Build 0)  -->
<svg version="1.1" id="Layer_1" xmlns="http://www.w3.org/2000/svg" xmlns:xlink="http://www.w3.org/1999/xlink" x="0px" y="0px"
	 viewBox="0 0 511.573 511.573" style="enable-background:new 0 0 511.573 511.573;" xml:space="preserve">
<g>
	<g>
		<path d="M443.52,255.782c0-4.71,3.814-8.533,8.533-8.533h59.52C507.136,112.875,398.694,4.433,264.32,0.004v59.511
			c0,4.719-3.814,8.533-8.533,8.533c-4.719,0-8.533-3.814-8.533-8.533V0.004C112.879,4.433,4.437,112.875,0,247.249h59.52
			c4.719,0,8.533,3.823,8.533,8.533c0,4.719-3.814,8.533-8.533,8.533H0C4.437,398.699,112.879,507.14,247.253,511.569v-59.52
			c0-4.71,3.814-8.533,8.533-8.533c4.719,0,8.533,3.823,8.533,8.533v59.52c134.374-4.429,242.816-112.87,247.253-247.253h-59.52
			C447.334,264.316,443.52,260.501,443.52,255.782z M169.532,360.324c-5.41,3.046-12.254,2.108-16.666-2.295
			c-4.412-4.42-5.342-11.298-2.244-16.725l64.794-113.809l68.608,68.599L169.532,360.324z M360.644,169.903l-64.529,114.15
			l-68.6-68.599l114.142-64.521c5.453-3.072,12.314-2.133,16.7,2.278C362.769,157.615,363.699,164.476,360.644,169.903z"/>
	</g>
</g>
<g>
</g>
<g>
</g>
<g>
</g>
<g>
</g>
<g>
</g>
<g>
</g>
<g>
</g>
<g>
</g>
<g>
</g>
<g>
</g>
<g>
</g>
<g>
</g>
<g>
</g>
<g>
</g>
<g>
</g>
</svg>
