<?xml version="1.0" encoding="iso-8859-1"?>
<!-- Generator: Adobe Illustrator 19.0.0, SVG Export Plug-In . SVG Version: 6.00 Build 0)  -->
<svg version="1.1" id="Layer_1" xmlns="http://www.w3.org/2000/svg" xmlns:xlink="http://www.w3.org/1999/xlink" x="0px" y="0px"
	 viewBox="0 0 512.004 512.004" style="enable-background:new 0 0 512.004 512.004;" xml:space="preserve">
<g transform="translate(0 -1)">
	<g>
		<g>
			<path d="M429.92,381.446l-6.818-1.314l-0.094-6.955c-0.222-17.007-13.73-30.839-30.114-30.839
				c-10.684,0-20.361,5.726-25.882,15.309l-3.49,6.067l-6.639-2.244c-8.303-2.799-17.656,2.876-19.533,11.708l-0.862,4.053
				l-3.712,1.826c-7.091,3.499-11.665,10.965-11.665,19.021c0,11.614,9.071,21.06,20.224,21.06l60.698-0.051l0.956,0.051H426.6
				c10.061,0,18.244-8.533,18.244-19.021C444.844,390.978,438.572,383.118,429.92,381.446z"/>
			<path d="M384.004,257.004c-70.588,0-128,57.421-128,128s57.412,128,128,128c70.579,0,128-57.421,128-128
				S454.583,257.004,384.004,257.004z M426.603,436.204h-85.265c-20.565,0-37.291-17.101-37.291-38.127
				c0-13.15,6.827-25.455,17.698-32.367c4.89-14.106,19.234-23.56,34.014-21.871c8.883-11.588,22.622-18.569,37.137-18.569
				c23.569,0,43.332,18.022,46.686,41.318c13.252,5.359,22.332,18.543,22.332,33.527
				C461.914,420.025,446.067,436.204,426.603,436.204z"/>
			<polygon points="477.869,237.282 477.869,67.375 392.177,153.067 			"/>
			<path d="M102.403,1.004H8.536c-4.71,0-8.533,3.814-8.533,8.533v93.867h102.4V1.004z"/>
			<polygon points="187.736,1.004 187.736,224.774 411.497,1.004 			"/>
			<polygon points="0.003,188.738 0.003,412.499 102.403,310.107 102.403,188.738 			"/>
			<path d="M325.077,199.571h0.043c2.27,0.009,4.454,0.93,6.05,2.56l37.854,38.579c4.924-0.503,9.924-0.777,14.976-0.777
				c35.797,0,68.54,13.099,93.867,34.662v-13.372L374.084,159.259c-1.638-1.587-2.577-3.772-2.594-6.059
				c-0.017-2.278,0.887-4.471,2.5-6.084L477.867,43.24V9.533c0-4.71-3.814-8.533-8.533-8.533h-33.698L185.233,251.402
				c-1.63,1.638-3.806,2.5-6.033,2.5c-1.101,0-2.21-0.205-3.268-0.648c-3.183-1.314-5.265-4.437-5.265-7.885V1h-51.2v110.933
				c0,4.719-3.814,8.533-8.533,8.533H0v51.2h110.933c4.719,0,8.533,3.823,8.533,8.533v133.436c0,2.27-0.896,4.437-2.5,6.033
				L0,436.635v33.698c0,4.719,3.823,8.533,8.533,8.533H42.24l276.804-276.796C320.64,200.467,322.816,199.571,325.077,199.571z"/>
			<path d="M348.775,244.444l-23.757-24.218L66.373,478.872h207.224c-21.564-25.327-34.662-58.069-34.662-93.867
				C238.934,317.182,285.782,260.248,348.775,244.444z"/>
		</g>
	</g>
</g>
<g>
</g>
<g>
</g>
<g>
</g>
<g>
</g>
<g>
</g>
<g>
</g>
<g>
</g>
<g>
</g>
<g>
</g>
<g>
</g>
<g>
</g>
<g>
</g>
<g>
</g>
<g>
</g>
<g>
</g>
</svg>
