<?xml version="1.0" encoding="iso-8859-1"?>
<!-- Generator: Adobe Illustrator 19.0.0, SVG Export Plug-In . SVG Version: 6.00 Build 0)  -->
<svg version="1.1" id="Layer_1" xmlns="http://www.w3.org/2000/svg" xmlns:xlink="http://www.w3.org/1999/xlink" x="0px" y="0px"
	 viewBox="0 0 512.004 512.004" style="enable-background:new 0 0 512.004 512.004;" xml:space="preserve">
<g transform="translate(0 -1)">
	<g>
		<g>
			<path d="M384.003,257.004c-70.588,0-128,57.412-128,128c0,70.579,57.412,128,128,128c70.579,0,128-57.421,128-128
				C512.003,314.417,454.583,257.004,384.003,257.004z M441.237,399.571c-1.664,1.664-3.849,2.5-6.033,2.5
				c-2.185,0-4.369-0.836-6.033-2.5l-11.034-11.034v39.134c0,4.719-3.814,8.533-8.533,8.533s-8.533-3.814-8.533-8.533V371.47
				l-17.067-17.067l-17.067,17.067v56.201c0,4.719-3.814,8.533-8.533,8.533s-8.533-3.814-8.533-8.533v-39.134l-11.034,11.034
				c-3.336,3.337-8.73,3.337-12.066,0c-3.337-3.336-3.337-8.73,0-12.066l25.591-25.591c0-0.009,0.009-0.017,0.017-0.017
				l25.591-25.591c3.337-3.337,8.73-3.337,12.066,0l25.591,25.591c0.009,0,0.009,0.009,0.017,0.017l25.591,25.591
				C444.573,390.841,444.573,396.234,441.237,399.571z"/>
			<polygon points="477.87,237.282 477.87,67.375 392.178,153.067 			"/>
			<path d="M102.403,1.004H8.537c-4.71,0-8.533,3.814-8.533,8.533v93.867h102.4V1.004z"/>
			<polygon points="187.737,1.004 187.737,224.774 411.498,1.004 			"/>
			<polygon points="0.003,188.738 0.003,412.499 102.403,310.107 102.403,188.738 			"/>
			<path d="M325.078,199.571h0.043c2.27,0.009,4.454,0.93,6.05,2.56l37.854,38.579c4.924-0.503,9.924-0.777,14.976-0.777
				c35.797,0,68.54,13.099,93.867,34.662v-13.372L374.085,159.259c-1.638-1.587-2.577-3.772-2.594-6.059
				c-0.017-2.278,0.887-4.471,2.5-6.084L477.868,43.24V9.533c0-4.71-3.814-8.533-8.533-8.533h-33.698L185.234,251.402
				c-1.63,1.638-3.806,2.5-6.033,2.5c-1.101,0-2.21-0.205-3.268-0.648c-3.183-1.314-5.265-4.437-5.265-7.885V1h-51.2v110.933
				c0,4.719-3.814,8.533-8.533,8.533H0.001v51.2h110.933c4.719,0,8.533,3.823,8.533,8.533v133.436c0,2.27-0.896,4.437-2.5,6.033
				L0.001,436.635v33.698c0,4.719,3.823,8.533,8.533,8.533h33.707l276.804-276.796C320.641,200.467,322.817,199.571,325.078,199.571
				z"/>
			<path d="M348.777,244.444l-23.757-24.218L66.375,478.872h207.224c-21.564-25.327-34.662-58.069-34.662-93.867
				C238.936,317.182,285.784,260.248,348.777,244.444z"/>
		</g>
	</g>
</g>
<g>
</g>
<g>
</g>
<g>
</g>
<g>
</g>
<g>
</g>
<g>
</g>
<g>
</g>
<g>
</g>
<g>
</g>
<g>
</g>
<g>
</g>
<g>
</g>
<g>
</g>
<g>
</g>
<g>
</g>
</svg>
