<?xml version="1.0" encoding="iso-8859-1"?>
<!-- Generator: Adobe Illustrator 19.0.0, SVG Export Plug-In . SVG Version: 6.00 Build 0)  -->
<svg version="1.1" id="Layer_1" xmlns="http://www.w3.org/2000/svg" xmlns:xlink="http://www.w3.org/1999/xlink" x="0px" y="0px"
	 viewBox="0 0 512.005 512.005" style="enable-background:new 0 0 512.005 512.005;" xml:space="preserve">
<g transform="translate(0 -1)">
	<g>
		<g>
			<path d="M384.003,257.005c-70.579,0-128,57.412-128,128c0,70.579,57.421,128,128,128s128-57.421,128-128
				C512.003,314.417,454.583,257.005,384.003,257.005z M451.613,388.265c-0.435,1.05-1.058,1.988-1.852,2.782l-34.125,34.125
				c-1.664,1.664-3.849,2.5-6.033,2.5c-2.185,0-4.369-0.836-6.033-2.5c-3.337-3.337-3.337-8.73,0-12.066l19.567-19.567H324.27
				c-4.71,0-8.533-3.814-8.533-8.533c0-4.719,3.823-8.533,8.533-8.533h98.867l-19.567-19.567c-3.337-3.337-3.337-8.73,0-12.066
				s8.738-3.337,12.066,0l34.125,34.125c0.794,0.785,1.417,1.732,1.852,2.782C452.475,383.828,452.475,386.183,451.613,388.265z"/>
			<polygon points="477.871,237.282 477.871,67.375 392.179,153.067 			"/>
			<path d="M102.404,1.004H8.538c-4.71,0-8.533,3.814-8.533,8.533v93.867h102.4V1.004z"/>
			<polygon points="187.738,1.004 187.738,224.774 411.499,1.004 			"/>
			<polygon points="0.004,188.738 0.004,412.499 102.404,310.107 102.404,188.738 			"/>
			<path d="M325.079,199.571h0.043c2.27,0.009,4.454,0.93,6.05,2.56l37.854,38.579c4.924-0.503,9.924-0.777,14.976-0.777
				c35.797,0,68.54,13.099,93.867,34.662v-13.372L374.086,159.259c-1.638-1.587-2.577-3.772-2.594-6.059
				c-0.017-2.278,0.887-4.471,2.5-6.084L477.868,43.24V9.533c0-4.71-3.814-8.533-8.533-8.533h-33.698L185.235,251.402
				c-1.63,1.638-3.806,2.5-6.033,2.5c-1.101,0-2.21-0.205-3.268-0.648c-3.183-1.314-5.265-4.437-5.265-7.885V1h-51.2v110.933
				c0,4.719-3.814,8.533-8.533,8.533H0.002v51.2h110.933c4.719,0,8.533,3.823,8.533,8.533v133.436c0,2.27-0.896,4.437-2.5,6.033
				L0.002,436.635v33.698c0,4.719,3.823,8.533,8.533,8.533h33.707l276.804-276.796C320.642,200.467,322.818,199.571,325.079,199.571
				z"/>
			<path d="M348.778,244.444l-23.757-24.218L66.376,478.872h207.224c-21.564-25.327-34.662-58.069-34.662-93.867
				C238.937,317.182,285.785,260.248,348.778,244.444z"/>
		</g>
	</g>
</g>
<g>
</g>
<g>
</g>
<g>
</g>
<g>
</g>
<g>
</g>
<g>
</g>
<g>
</g>
<g>
</g>
<g>
</g>
<g>
</g>
<g>
</g>
<g>
</g>
<g>
</g>
<g>
</g>
<g>
</g>
</svg>
