<?xml version="1.0" encoding="iso-8859-1"?>
<!-- Generator: Adobe Illustrator 19.0.0, SVG Export Plug-In . SVG Version: 6.00 Build 0)  -->
<svg version="1.1" id="Layer_1" xmlns="http://www.w3.org/2000/svg" xmlns:xlink="http://www.w3.org/1999/xlink" x="0px" y="0px"
	 viewBox="0 0 512.005 512.005" style="enable-background:new 0 0 512.005 512.005;" xml:space="preserve">
<g transform="translate(0 -1)">
	<g>
		<g>
			<path d="M417.1,360.071c0.597,2.526,0.998,5.129,0.998,7.834c0,18.799-15.292,34.091-34.099,34.091
				c-18.799,0-34.091-15.292-34.091-34.091c0-3.524,0.691-6.852,1.681-10.052c-12.203,5.76-23.671,14.968-33.954,27.631
				c18.091,27.068,41.131,41.992,65.365,42.189h0.469c24.32,0,47.778-14.805,66.594-41.907
				C439.697,374.569,428.552,365.976,417.1,360.071z"/>
			<path d="M384.003,384.929c9.395,0,17.033-7.637,17.033-17.024c0-8.465-6.221-15.445-14.319-16.759
				c-1.382-0.102-2.756-0.111-4.139-0.128c-8.713,0.734-15.607,7.979-15.607,16.887
				C366.971,377.292,374.608,384.929,384.003,384.929z"/>
			<path d="M384.005,257.005c-70.579,0-128,57.412-128,128c0,70.579,57.421,128,128,128s128-57.421,128-128
				C512.005,314.417,454.584,257.005,384.005,257.005z M468.007,389.579c-22.613,35.593-52.617,55.159-84.531,55.159h-0.614
				c-31.761-0.247-61.218-19.874-82.935-55.27c-1.818-2.97-1.655-6.758,0.435-9.557c21.683-29.141,48.785-45.065,78.404-46.054
				c1.169-0.043,2.347,0.111,3.524,0.12c0.58-0.026,1.126-0.171,1.715-0.171c1.203,0,2.347,0.23,3.524,0.358
				c28.279,1.954,56.209,17.698,79.77,45.295C469.731,382.309,470.012,386.422,468.007,389.579z"/>
			<polygon points="477.87,237.282 477.87,67.375 392.178,153.067 			"/>
			<path d="M102.403,1.004H8.536c-4.71,0-8.533,3.814-8.533,8.533v93.867h102.4V1.004z"/>
			<polygon points="187.736,1.004 187.736,224.774 411.497,1.004 			"/>
			<polygon points="0.003,188.738 0.003,412.499 102.403,310.107 102.403,188.738 			"/>
			<path d="M325.078,199.571h0.043c2.27,0.009,4.454,0.93,6.05,2.56l37.854,38.579c4.924-0.503,9.924-0.777,14.976-0.777
				c35.797,0,68.54,13.099,93.867,34.662v-13.372L374.085,159.259c-1.638-1.587-2.577-3.772-2.594-6.059
				c-0.017-2.278,0.887-4.471,2.5-6.084L477.867,43.24V9.533c0-4.71-3.814-8.533-8.533-8.533h-33.698L185.234,251.402
				c-1.63,1.638-3.806,2.5-6.033,2.5c-1.101,0-2.21-0.205-3.268-0.648c-3.183-1.314-5.265-4.437-5.265-7.885V1h-51.2v110.933
				c0,4.719-3.814,8.533-8.533,8.533H0v51.2h110.933c4.719,0,8.533,3.823,8.533,8.533v133.436c0,2.27-0.896,4.437-2.5,6.033
				L0,436.635v33.698c0,4.719,3.823,8.533,8.533,8.533H42.24l276.804-276.796C320.64,200.467,322.816,199.571,325.078,199.571z"/>
			<path d="M348.777,244.444l-23.757-24.218L66.374,478.872h207.224c-21.564-25.327-34.662-58.069-34.662-93.867
				C238.935,317.182,285.783,260.248,348.777,244.444z"/>
		</g>
	</g>
</g>
<g>
</g>
<g>
</g>
<g>
</g>
<g>
</g>
<g>
</g>
<g>
</g>
<g>
</g>
<g>
</g>
<g>
</g>
<g>
</g>
<g>
</g>
<g>
</g>
<g>
</g>
<g>
</g>
<g>
</g>
</svg>
