<?xml version="1.0" encoding="iso-8859-1"?>
<!-- Generator: Adobe Illustrator 19.0.0, SVG Export Plug-In . SVG Version: 6.00 Build 0)  -->
<svg version="1.1" id="Layer_1" xmlns="http://www.w3.org/2000/svg" xmlns:xlink="http://www.w3.org/1999/xlink" x="0px" y="0px"
	 viewBox="0 0 512.004 512.004" style="enable-background:new 0 0 512.004 512.004;" xml:space="preserve">
<g transform="translate(0 -1)">
	<g>
		<g>
			<path d="M384.003,257.004c-70.579,0-128,57.421-128,128s57.421,128,128,128s128-57.421,128-128S454.583,257.004,384.003,257.004z
				 M384.003,461.804c-29.252,0-55.339-16.529-68.267-41.685v24.619H298.67v-51.2h51.2v17.067h-19.763
				c9.737,20.514,30.498,34.133,53.897,34.133c32.939,0,59.733-26.803,59.733-59.733c0-32.93-26.795-59.733-59.733-59.733
				c-21.265,0-41.088,11.452-51.746,29.884c-2.364,4.07-7.586,5.487-11.665,3.106c-4.079-2.355-5.47-7.569-3.115-11.657
				c13.705-23.68,39.194-38.4,66.526-38.4c42.342,0,76.8,34.449,76.8,76.8S426.346,461.804,384.003,461.804z"/>
			<polygon points="477.87,237.282 477.87,67.375 392.178,153.067 			"/>
			<path d="M102.403,1.004H8.537c-4.71,0-8.533,3.814-8.533,8.533v93.867h102.4V1.004z"/>
			<polygon points="187.737,1.004 187.737,224.774 411.498,1.004 			"/>
			<polygon points="0.003,188.738 0.003,412.499 102.403,310.107 102.403,188.738 			"/>
			<path d="M325.078,199.571h0.043c2.27,0.009,4.454,0.93,6.05,2.56l37.854,38.579c4.924-0.503,9.924-0.777,14.976-0.777
				c35.797,0,68.54,13.099,93.867,34.662v-13.372L374.085,159.259c-1.638-1.587-2.577-3.772-2.594-6.059
				c-0.017-2.278,0.887-4.471,2.5-6.084L477.868,43.24V9.533c0-4.71-3.814-8.533-8.533-8.533h-33.698L185.234,251.402
				c-1.63,1.638-3.806,2.5-6.033,2.5c-1.101,0-2.21-0.205-3.268-0.648c-3.183-1.314-5.265-4.437-5.265-7.885V1h-51.2v110.933
				c0,4.719-3.814,8.533-8.533,8.533H0.001v51.2h110.933c4.719,0,8.533,3.823,8.533,8.533v133.436c0,2.27-0.896,4.437-2.5,6.033
				L0.001,436.635v33.698c0,4.719,3.823,8.533,8.533,8.533h33.707l276.804-276.796C320.641,200.467,322.817,199.571,325.078,199.571
				z"/>
			<path d="M348.777,244.444l-23.757-24.218L66.375,478.872h207.224c-21.564-25.327-34.662-58.069-34.662-93.867
				C238.936,317.182,285.784,260.248,348.777,244.444z"/>
		</g>
	</g>
</g>
<g>
</g>
<g>
</g>
<g>
</g>
<g>
</g>
<g>
</g>
<g>
</g>
<g>
</g>
<g>
</g>
<g>
</g>
<g>
</g>
<g>
</g>
<g>
</g>
<g>
</g>
<g>
</g>
<g>
</g>
</svg>
