<?xml version="1.0" encoding="iso-8859-1"?>
<!-- Generator: Adobe Illustrator 19.0.0, SVG Export Plug-In . SVG Version: 6.00 Build 0)  -->
<svg version="1.1" id="Layer_1" xmlns="http://www.w3.org/2000/svg" xmlns:xlink="http://www.w3.org/1999/xlink" x="0px" y="0px"
	 viewBox="0 0 512.005 512.005" style="enable-background:new 0 0 512.005 512.005;" xml:space="preserve">
<g transform="translate(0 -1)">
	<g>
		<g>
			<polygon points="344.053,400.846 336.006,433.017 368.194,424.97 414.786,378.378 390.653,354.237 			"/>
			<path d="M423.561,326.805c-1.502-1.493-3.951-1.493-5.478,0l-15.36,15.369l24.132,24.141l15.369-15.369
				c0.99-0.99,1.135-2.142,1.135-2.739s-0.145-1.741-1.135-2.731L423.561,326.805z"/>
			<path d="M384.005,257.004c-70.579,0-128,57.421-128,128c0,70.588,57.421,128,128,128s128-57.412,128-128
				C512.005,314.425,454.584,257.004,384.005,257.004z M454.294,363.014l-75.708,75.699c-1.092,1.092-2.466,1.877-3.968,2.244
				l-48.282,12.058c-0.683,0.171-1.382,0.256-2.065,0.256c-2.244,0-4.42-0.879-6.042-2.5c-2.116-2.125-2.961-5.197-2.244-8.107
				l12.083-48.256c0.375-1.502,1.152-2.867,2.244-3.959l54.306-54.306v-0.008l21.402-21.393c8.166-8.175,21.453-8.158,29.602,0
				l18.671,18.662c3.951,3.951,6.127,9.207,6.127,14.805C460.421,353.798,458.245,359.054,454.294,363.014z"/>
			<polygon points="477.869,237.283 477.869,67.376 392.177,153.067 			"/>
			<path d="M102.403,1.005H8.536c-4.71,0-8.533,3.814-8.533,8.533v93.867h102.4V1.005z"/>
			<polygon points="187.736,1.005 187.736,224.775 411.497,1.005 			"/>
			<polygon points="0.003,188.738 0.003,412.5 102.403,310.108 102.403,188.738 			"/>
			<path d="M325.077,199.572h0.043c2.27,0.009,4.454,0.93,6.05,2.56l37.854,38.579c4.924-0.503,9.924-0.777,14.976-0.777
				c35.797,0,68.54,13.099,93.867,34.662v-13.372L374.084,159.26c-1.638-1.587-2.577-3.772-2.594-6.059
				c-0.017-2.278,0.887-4.471,2.5-6.084L477.867,43.241V9.534c0-4.71-3.814-8.533-8.533-8.533h-33.698L185.233,251.403
				c-1.63,1.638-3.806,2.5-6.033,2.5c-1.101,0-2.21-0.205-3.268-0.648c-3.183-1.314-5.265-4.437-5.265-7.885V1.001h-51.2v110.933
				c0,4.719-3.814,8.533-8.533,8.533H0v51.2h110.933c4.719,0,8.533,3.823,8.533,8.533v133.436c0,2.27-0.896,4.437-2.5,6.033
				L0,436.636v33.698c0,4.719,3.823,8.533,8.533,8.533H42.24l276.804-276.796C320.64,200.468,322.816,199.572,325.077,199.572z"/>
			<path d="M348.776,244.445l-23.757-24.218L66.374,478.873h207.224c-21.564-25.327-34.662-58.069-34.662-93.867
				C238.935,317.183,285.783,260.249,348.776,244.445z"/>
		</g>
	</g>
</g>
<g>
</g>
<g>
</g>
<g>
</g>
<g>
</g>
<g>
</g>
<g>
</g>
<g>
</g>
<g>
</g>
<g>
</g>
<g>
</g>
<g>
</g>
<g>
</g>
<g>
</g>
<g>
</g>
<g>
</g>
</svg>
