<?xml version="1.0" encoding="iso-8859-1"?>
<!-- Generator: Adobe Illustrator 19.0.0, SVG Export Plug-In . SVG Version: 6.00 Build 0)  -->
<svg version="1.1" id="Layer_1" xmlns="http://www.w3.org/2000/svg" xmlns:xlink="http://www.w3.org/1999/xlink" x="0px" y="0px"
	 viewBox="0 0 512.004 512.004" style="enable-background:new 0 0 512.004 512.004;" xml:space="preserve">
<g transform="translate(0 -1)">
	<g>
		<g>
			<path d="M447.349,378.964c-6.511-2.313-11.759-7.305-14.404-13.688c-2.645-6.391-2.458-13.628,0.503-19.866
				c2.082-4.369-0.58-7.535-1.442-8.405c-0.87-0.87-4.036-3.533-8.405-1.451c-6.255,2.97-13.491,3.14-19.866,0.503
				c-6.383-2.645-11.366-7.893-13.687-14.404c-1.621-4.565-5.743-4.915-6.963-4.915c-1.229,0-5.35,0.35-6.972,4.915
				c-2.313,6.511-7.305,11.759-13.687,14.404c-6.383,2.628-13.619,2.458-19.857-0.503c-4.369-2.074-7.543,0.58-8.414,1.451
				c-0.862,0.87-3.524,4.036-1.451,8.397c2.97,6.246,3.149,13.483,0.512,19.874c-2.645,6.383-7.893,11.375-14.404,13.688
				c-2.082,0.802-2.987,3.84-3.072,6.187c-0.119,2.961,0.964,6.511,3.601,7.945c6.263,2.398,11.298,7.279,13.867,13.474
				c2.645,6.383,2.466,13.628-0.495,19.866c-2.082,4.386,0.58,7.544,1.442,8.414c0.87,0.862,4.036,3.516,8.414,1.451
				c3.311-1.579,6.904-2.364,10.496-2.364c3.183,0,6.366,0.623,9.361,1.86c6.383,2.645,11.375,7.893,13.687,14.404
				c1.05,2.15,4.523,3.567,7.245,3.089c2.483-0.034,5.777-0.998,6.895-3.61c2.116-5.99,7.1-11.238,13.483-13.884
				c6.374-2.637,13.611-2.466,19.866,0.503c4.369,2.074,7.535-0.589,8.405-1.451c0.862-0.87,3.524-4.028,1.442-8.414
				c-2.961-6.238-3.149-13.483-0.495-19.866c2.645-6.383,7.893-11.366,14.404-13.67c4.557-1.63,4.915-5.751,4.915-6.98
				C452.273,384.707,451.914,380.577,447.349,378.964z M384.023,419.139c-18.807,0-34.108-15.3-34.108-34.108
				c0-18.807,15.3-34.116,34.108-34.116s34.116,15.309,34.116,34.116C418.139,403.839,402.831,419.139,384.023,419.139z"/>
			<path d="M384.023,367.981c-9.395,0-17.041,7.646-17.041,17.05s7.646,17.041,17.041,17.041c9.404,0,17.05-7.637,17.05-17.041
				S393.427,367.981,384.023,367.981z"/>
			<path d="M384.004,257.003c-70.579,0-128,57.421-128,128c0,70.588,57.421,128,128,128s128-57.412,128-128
				C512.004,314.423,454.583,257.003,384.004,257.003z M453.073,408.981c-1.997,0.708-3.55,2.176-4.361,4.13
				c-0.811,1.963-0.759,4.096,0.154,6.007c4.506,9.472,2.62,20.386-4.796,27.793c-7.407,7.424-18.321,9.31-27.793,4.804
				c-1.92-0.922-4.053-0.956-6.007-0.154c-1.963,0.811-3.43,2.364-4.139,4.352c-3.831,8.951-12.382,14.293-22.511,14.438
				c-0.154,0.009-0.299,0.009-0.452,0.009c-10.146,0-18.859-5.214-22.827-13.687c-1.016-2.748-2.492-4.301-4.446-5.112
				c-1.963-0.811-4.096-0.768-6.008,0.154c-9.463,4.489-20.386,2.62-27.802-4.804c-7.415-7.415-9.293-18.321-4.796-27.802
				c0.913-1.903,0.964-4.036,0.154-5.999c-0.811-1.954-2.355-3.422-4.343-4.13c-0.273-0.102-0.538-0.205-0.794-0.324
				c-8.678-4.105-14.02-13.577-13.628-24.149c0.375-10.078,5.82-18.33,14.216-21.555c2.193-0.777,3.738-2.253,4.548-4.215
				c0.811-1.954,0.759-4.087-0.154-6.007c-4.497-9.455-2.62-20.369,4.796-27.793c7.424-7.407,18.338-9.284,27.802-4.796
				c1.911,0.913,4.053,0.956,6.008,0.145c1.954-0.802,3.43-2.355,4.139-4.343c3.507-9.89,12.561-16.273,23.049-16.273
				s19.533,6.383,23.049,16.273c0.708,1.988,2.176,3.541,4.139,4.343c1.963,0.819,4.096,0.768,6.007-0.145
				c9.455-4.497,20.378-2.628,27.793,4.796s9.301,18.33,4.796,27.802c-0.913,1.911-0.964,4.045-0.154,5.999
				c0.811,1.963,2.364,3.439,4.361,4.147c9.873,3.507,16.256,12.544,16.264,23.04C469.338,396.412,462.955,405.466,453.073,408.981z
				"/>
			<polygon points="477.869,237.284 477.869,67.377 392.177,153.068 			"/>
			<path d="M102.403,1.006H8.536c-4.71,0-8.533,3.814-8.533,8.533v93.867h102.4V1.006z"/>
			<polygon points="187.736,1.006 187.736,224.776 411.497,1.006 			"/>
			<polygon points="0.003,188.739 0.003,412.5 102.403,310.109 102.403,188.739 			"/>
			<path d="M325.077,199.572h0.043c2.27,0.009,4.454,0.93,6.05,2.56l37.854,38.579c4.924-0.503,9.924-0.777,14.976-0.777
				c35.797,0,68.54,13.099,93.867,34.662v-13.372L374.084,159.261c-1.638-1.587-2.577-3.772-2.594-6.059
				c-0.017-2.278,0.887-4.471,2.5-6.084L477.867,43.242V9.535c0-4.71-3.814-8.533-8.533-8.533h-33.698L185.233,251.404
				c-1.63,1.638-3.806,2.5-6.033,2.5c-1.101,0-2.21-0.205-3.268-0.648c-3.183-1.314-5.265-4.437-5.265-7.885V1.002h-51.2v110.933
				c0,4.719-3.814,8.533-8.533,8.533H0v51.2h110.933c4.719,0,8.533,3.823,8.533,8.533v133.436c0,2.27-0.896,4.437-2.5,6.033
				L0,436.637v33.698c0,4.719,3.823,8.533,8.533,8.533H42.24l276.804-276.796C320.64,200.468,322.816,199.572,325.077,199.572z"/>
			<path d="M348.776,244.446l-23.757-24.218L66.374,478.874h207.224c-21.564-25.327-34.662-58.069-34.662-93.867
				C238.935,317.184,285.783,260.25,348.776,244.446z"/>
		</g>
	</g>
</g>
<g>
</g>
<g>
</g>
<g>
</g>
<g>
</g>
<g>
</g>
<g>
</g>
<g>
</g>
<g>
</g>
<g>
</g>
<g>
</g>
<g>
</g>
<g>
</g>
<g>
</g>
<g>
</g>
<g>
</g>
</svg>
