<?xml version="1.0" encoding="iso-8859-1"?>
<!-- Generator: Adobe Illustrator 19.0.0, SVG Export Plug-In . SVG Version: 6.00 Build 0)  -->
<svg version="1.1" id="Layer_1" xmlns="http://www.w3.org/2000/svg" xmlns:xlink="http://www.w3.org/1999/xlink" x="0px" y="0px"
	 viewBox="0 0 505.747 505.747" style="enable-background:new 0 0 505.747 505.747;" xml:space="preserve">
<g>
	<g>
		<path d="M388.239,1.07c-64.797,0-117.508,52.711-117.508,117.508c0,5.246,0.462,10.374,1.133,15.444
			c-5.288,1.561-10.181,4.281-14.193,8.293c-8.754,8.754-11.516,21.151-8.561,32.332L2.434,423.227
			C0.881,424.796,0,426.92,0,429.136v67.148c0,4.642,3.76,8.393,8.393,8.393h67.148c2.191,0,4.297-0.856,5.859-2.384L332.12,257.691
			c2.837,0.755,5.724,1.276,8.637,1.276c8.595,0,17.198-3.273,23.745-9.812c4.012-4.02,6.723-8.914,8.293-14.202
			c5.07,0.671,10.198,1.133,15.444,1.133c64.797,0,117.508-52.711,117.508-117.508S453.036,1.07,388.239,1.07z M263.722,231.411
			L47.927,448.877c-1.645,1.654-3.802,2.476-5.959,2.476c-2.14,0-4.272-0.806-5.909-2.434c-3.29-3.265-3.315-8.578-0.05-11.868
			l215.795-217.457c3.265-3.29,8.578-3.307,11.877-0.05C266.962,222.817,266.987,228.13,263.722,231.411z M352.625,237.287
			c-5.07,5.07-12.582,6.161-18.768,3.366c-0.092-0.042-0.168-0.118-0.269-0.168c-0.94-0.445-1.788-0.932-2.552-1.452
			c-0.747-0.529-1.486-1.083-2.149-1.746L269.53,177.92c-0.092-0.092-0.176-0.227-0.269-0.327c-0.546-0.571-1.032-1.184-1.477-1.813
			c-0.52-0.764-1.007-1.612-1.452-2.552c-0.05-0.092-0.117-0.168-0.159-0.252c-2.803-6.186-1.712-13.715,3.366-18.793
			c1.62-1.62,3.517-2.871,5.59-3.702c0.126,0.436,0.319,0.839,0.445,1.276c1.267,4.281,2.703,8.486,4.423,12.557
			c0.504,1.183,1.133,2.283,1.662,3.45c1.301,2.803,2.661,5.573,4.172,8.251c1.049,1.88,2.191,3.693,3.349,5.506
			c1.158,1.821,2.367,3.601,3.626,5.355c1.368,1.922,2.745,3.827,4.23,5.657c1.192,1.469,2.484,2.845,3.743,4.255
			c2.921,3.265,6.01,6.345,9.275,9.266c1.393,1.251,2.761,2.535,4.222,3.718c1.838,1.494,3.76,2.879,5.691,4.255
			c1.737,1.251,3.492,2.443,5.296,3.592c1.838,1.167,3.66,2.317,5.565,3.383c2.619,1.477,5.321,2.795,8.066,4.071
			c1.225,0.571,2.392,1.234,3.643,1.754c4.037,1.712,8.217,3.139,12.473,4.398c0.453,0.134,0.865,0.336,1.326,0.47
			C355.504,233.762,354.254,235.658,352.625,237.287z M388.239,51.431c-37.023,0-67.148,30.124-67.148,67.148
			c0,4.642-3.76,8.393-8.393,8.393c-4.633,0-8.393-3.752-8.393-8.393c0-46.281,37.653-83.934,83.934-83.934
			c4.633,0,8.393,3.752,8.393,8.393S392.872,51.431,388.239,51.431z"/>
	</g>
</g>
<g>
</g>
<g>
</g>
<g>
</g>
<g>
</g>
<g>
</g>
<g>
</g>
<g>
</g>
<g>
</g>
<g>
</g>
<g>
</g>
<g>
</g>
<g>
</g>
<g>
</g>
<g>
</g>
<g>
</g>
</svg>
