<?xml version="1.0" encoding="iso-8859-1"?>
<!-- Generator: Adobe Illustrator 19.0.0, SVG Export Plug-In . SVG Version: 6.00 Build 0)  -->
<svg version="1.1" id="Layer_1" xmlns="http://www.w3.org/2000/svg" xmlns:xlink="http://www.w3.org/1999/xlink" x="0px" y="0px"
	 viewBox="0 0 512 512" style="enable-background:new 0 0 512 512;" xml:space="preserve">
<g>
	<g>
		<path d="M284.868,384.401L289.809,256h0.324c4.71,0,8.533-3.814,8.533-8.533v-34.159c40.047-16.751,68.267-56.32,68.267-102.374
			C366.933,49.766,317.167,0,256,0S145.067,49.766,145.067,110.933c0,46.054,28.22,85.623,68.267,102.374v34.159
			c0,4.719,3.823,8.533,8.533,8.533h0.324l4.941,128.401C138.786,386.799,0,402.5,0,448c0,46.959,153.097,64,256,64
			s256-17.041,256-64C512,402.5,373.214,386.799,284.868,384.401z M281.6,219.665v19.268h-51.2v-19.268
			c5.077,0.648,9.327,1.126,13.218,1.468c1.673,0.188,3.371,0.256,5.069,0.367c0.913,0.051,1.852,0.102,2.739,0.137
			c1.527,0.06,3.029,0.23,4.574,0.23c1.545,0,3.046-0.171,4.574-0.23c0.888-0.034,1.826-0.085,2.739-0.137
			c1.698-0.111,3.396-0.179,5.069-0.367C272.273,220.792,276.523,220.314,281.6,219.665z M196.267,110.933
			c0,4.719-3.823,8.533-8.533,8.533s-8.533-3.814-8.533-8.533c0-42.351,34.458-76.8,76.8-76.8c4.71,0,8.533,3.814,8.533,8.533
			S260.71,51.2,256,51.2C223.061,51.2,196.267,78.003,196.267,110.933z M256,494.933c-145.852,0-238.933-27.802-238.933-46.933
			c0-15.07,70.409-43.017,210.714-46.558l1.971,51.166c0.538,14.165,12.066,25.259,26.249,25.259
			c14.182,0,25.711-11.093,26.249-25.259l1.971-51.166C424.525,404.983,494.933,432.93,494.933,448
			C494.933,467.132,401.852,494.933,256,494.933z"/>
	</g>
</g>
<g>
</g>
<g>
</g>
<g>
</g>
<g>
</g>
<g>
</g>
<g>
</g>
<g>
</g>
<g>
</g>
<g>
</g>
<g>
</g>
<g>
</g>
<g>
</g>
<g>
</g>
<g>
</g>
<g>
</g>
</svg>
