<?xml version="1.0" encoding="iso-8859-1"?>
<!-- Generator: Adobe Illustrator 19.0.0, SVG Export Plug-In . SVG Version: 6.00 Build 0)  -->
<svg version="1.1" id="Layer_1" xmlns="http://www.w3.org/2000/svg" xmlns:xlink="http://www.w3.org/1999/xlink" x="0px" y="0px"
	 viewBox="0 0 512.005 512.005" style="enable-background:new 0 0 512.005 512.005;" xml:space="preserve">
<g>
	<g>
		<g>
			<path d="M505.978,495.311l-220.979-67.977l169.779-52.241c4.506-1.391,7.031-6.17,5.649-10.667
				c-1.391-4.497-6.161-7.066-10.667-5.649l-193.792,59.631L62.125,358.778c-4.489-1.399-9.284,1.143-10.658,5.649
				c-1.391,4.497,1.143,9.276,5.641,10.667l169.839,52.241L6.027,495.311c-4.506,1.391-7.031,6.17-5.649,10.667
				c1.126,3.669,4.506,6.025,8.158,6.025c0.828,0,1.673-0.12,2.509-0.375l244.924-75.358l244.992,75.358
				c0.836,0.256,1.681,0.375,2.509,0.375c3.652,0,7.023-2.355,8.158-6.025C513.01,501.481,510.484,496.702,505.978,495.311z"/>
			<path d="M213.337,213.311v34.159c0,4.719,3.823,8.533,8.533,8.533h0.486l7.057,120.004c0.828,14.054,12.51,25.062,26.59,25.062
				c14.08,0,25.762-11.008,26.59-25.062l7.057-120.004h0.486c4.71,0,8.533-3.814,8.533-8.533v-34.159
				c40.047-16.751,68.267-56.32,68.267-102.374c0-61.167-49.766-110.933-110.933-110.933S145.07,49.77,145.07,110.936
				C145.07,156.991,173.29,196.56,213.337,213.311z M281.604,219.668v19.268h-51.2v-19.268c5.077,0.648,9.327,1.126,13.218,1.468
				c1.673,0.188,3.371,0.256,5.069,0.367c0.913,0.051,1.852,0.102,2.739,0.137c1.527,0.06,3.029,0.23,4.574,0.23
				c1.545,0,3.046-0.171,4.574-0.23c0.888-0.034,1.826-0.085,2.739-0.137c1.698-0.111,3.396-0.179,5.069-0.367
				C272.277,220.795,276.526,220.317,281.604,219.668z M256.004,34.136c4.71,0,8.533,3.814,8.533,8.533s-3.823,8.533-8.533,8.533
				c-32.939,0-59.733,26.803-59.733,59.733c0,4.719-3.823,8.533-8.533,8.533s-8.533-3.814-8.533-8.533
				C179.204,68.586,213.661,34.136,256.004,34.136z"/>
		</g>
	</g>
</g>
<g>
</g>
<g>
</g>
<g>
</g>
<g>
</g>
<g>
</g>
<g>
</g>
<g>
</g>
<g>
</g>
<g>
</g>
<g>
</g>
<g>
</g>
<g>
</g>
<g>
</g>
<g>
</g>
<g>
</g>
</svg>
