<?xml version="1.0" encoding="iso-8859-1"?>
<!-- Generator: Adobe Illustrator 19.0.0, SVG Export Plug-In . SVG Version: 6.00 Build 0)  -->
<svg version="1.1" id="Layer_1" xmlns="http://www.w3.org/2000/svg" xmlns:xlink="http://www.w3.org/1999/xlink" x="0px" y="0px"
	 viewBox="0 0 511.974 511.974" style="enable-background:new 0 0 511.974 511.974;" xml:space="preserve">
<g>
	<g>
		<path d="M255.987,0C161.882,0,85.321,76.553,85.321,170.641c0,45.901,14.012,73.916,33.391,112.691
			c3.012,6.033,6.17,12.348,9.438,19.055c47.744,98.065,120.055,204.783,120.781,205.85c1.587,2.338,4.233,3.738,7.057,3.738
			s5.47-1.399,7.057-3.738c0.725-1.067,73.037-107.785,120.781-205.85c3.268-6.707,6.426-13.022,9.438-19.055
			c19.379-38.776,33.391-66.79,33.391-112.691C426.654,76.553,350.093,0,255.987,0z M213.321,93.841
			c18.825,0,34.133,15.309,34.133,34.133s-15.309,34.133-34.133,34.133s-34.133-15.309-34.133-34.133S194.496,93.841,213.321,93.841
			z M202.287,236.408c-1.664,1.664-3.849,2.5-6.033,2.5s-4.369-0.836-6.033-2.5c-3.336-3.337-3.336-8.73,0-12.066l119.467-119.467
			c3.337-3.337,8.73-3.337,12.066,0s3.337,8.73,0,12.066L202.287,236.408z M298.654,247.441c-18.825,0-34.133-15.309-34.133-34.133
			c0-18.825,15.309-34.133,34.133-34.133s34.133,15.309,34.133,34.133C332.787,232.132,317.478,247.441,298.654,247.441z"/>
	</g>
</g>
<g>
</g>
<g>
</g>
<g>
</g>
<g>
</g>
<g>
</g>
<g>
</g>
<g>
</g>
<g>
</g>
<g>
</g>
<g>
</g>
<g>
</g>
<g>
</g>
<g>
</g>
<g>
</g>
<g>
</g>
</svg>
