<?xml version="1.0" encoding="iso-8859-1"?>
<!-- Generator: Adobe Illustrator 19.0.0, SVG Export Plug-In . SVG Version: 6.00 Build 0)  -->
<svg xmlns="http://www.w3.org/2000/svg" xmlns:xlink="http://www.w3.org/1999/xlink" version="1.1" id="Capa_1" x="0px" y="0px" viewBox="0 0 384 384" style="enable-background:new 0 0 384 384;" xml:space="preserve">
<g>
	<g>
		<path d="M374.293,47.467l-29.547-35.84C338.773,4.587,329.92,0,320,0H64c-9.92,0-18.773,4.587-24.64,11.627L9.813,47.467    C3.627,54.933,0,64.32,0,74.667v266.667C0,364.907,19.093,384,42.667,384h298.667C364.907,384,384,364.907,384,341.333V74.667    C384,64.32,380.373,54.933,374.293,47.467z M192,309.333L74.667,192h74.667v-42.667h85.333V192h74.667L192,309.333z     M45.333,42.667L62.72,21.333h256l19.947,21.333H45.333z"/>
	</g>
</g>
<g>
</g>
<g>
</g>
<g>
</g>
<g>
</g>
<g>
</g>
<g>
</g>
<g>
</g>
<g>
</g>
<g>
</g>
<g>
</g>
<g>
</g>
<g>
</g>
<g>
</g>
<g>
</g>
<g>
</g>
</svg>
