<?xml version="1.0" encoding="iso-8859-1"?>
<!-- Generator: Adobe Illustrator 19.0.0, SVG Export Plug-In . SVG Version: 6.00 Build 0)  -->
<svg xmlns="http://www.w3.org/2000/svg" xmlns:xlink="http://www.w3.org/1999/xlink" version="1.1" id="Capa_1" x="0px" y="0px" viewBox="0 0 512 512" style="enable-background:new 0 0 512 512;" xml:space="preserve">
<g>
	<g>
		<path d="M406,271c-41.353,0-75,33.647-75,75c0,41.353,33.647,75,75,75c41.353,0,75-33.647,75-75C481,304.647,447.353,271,406,271z     M436,361h-30c-8.291,0-15-6.709-15-15v-30c0-8.291,6.709-15,15-15c8.291,0,15,6.709,15,15v15h15c8.291,0,15,6.709,15,15    C451,354.291,444.291,361,436,361z"/>
	</g>
</g>
<g>
	<g>
		<path d="M497,0H15C6.716,0,0,6.714,0,15v15c0,16.567,13.431,31,30,31h452c16.569,0,30-14.433,30-31V15C512,6.714,505.284,0,497,0z    "/>
	</g>
</g>
<g>
	<g>
		<path d="M31,91v225c0,24.814,20.186,45,45,45h165v63.763c-17.422,6.213-30,22.707-30,42.237c0,24.814,20.186,45,45,45    c24.814,0,45-20.186,45-45c0-19.53-12.578-36.024-30-42.237V361h31.516c-0.716-4.942-1.516-9.864-1.516-15    c0-57.891,47.109-105,105-105c29.392,0,55.92,12.217,75,31.749V91H31z M391,166c0,8.291-6.709,15-15,15    c-6.456,0-11.841-4.116-13.958-9.831l-95.436,95.436c-2.93,2.93-6.768,4.395-10.605,4.395c-3.837,0-7.676-1.465-10.605-4.395    L196,217.211l-49.395,49.395c-5.859,5.859-15.352,5.859-21.211,0c-5.859-5.859-5.859-15.352,0.001-21.211l60-60    c5.859-5.859,15.352-5.859,21.211,0L256,234.789l84.831-84.831C335.116,147.841,331,142.456,331,136c0-8.291,6.709-15,15-15h30    c8.291,0,15,6.817,15,15V166z"/>
	</g>
</g>
<g>
</g>
<g>
</g>
<g>
</g>
<g>
</g>
<g>
</g>
<g>
</g>
<g>
</g>
<g>
</g>
<g>
</g>
<g>
</g>
<g>
</g>
<g>
</g>
<g>
</g>
<g>
</g>
<g>
</g>
</svg>
