<?xml version="1.0" encoding="iso-8859-1"?>
<!-- Generator: Adobe Illustrator 19.0.0, SVG Export Plug-In . SVG Version: 6.00 Build 0)  -->
<svg xmlns="http://www.w3.org/2000/svg" xmlns:xlink="http://www.w3.org/1999/xlink" version="1.1" id="Capa_1" x="0px" y="0px" viewBox="0 0 512 512" style="enable-background:new 0 0 512 512;" xml:space="preserve">
<g>
	<g>
		<path d="M467.264,61H148.482C141.513,26.809,111.216,0,75,0C33.647,0,0,34.647,0,76c0,41.353,33.647,75,75,75    c36.216,0,66.513-25.809,73.482-60h318.606C475.306,91.044,482,97.606,482,105.824V226c0,8.276-6.724,15-15,15h-23.789    l4.395-4.395c5.859-5.859,5.859-15.352,0-21.211s-15.352-5.859-21.211,0l-29.982,29.982c-5.843,5.828-5.867,15.396,0,21.248    l29.982,29.982c5.859,5.859,15.352,5.859,21.211,0s5.859-15.352,0-21.211L443.211,271H467c24.814,0,45-20.186,45-45V105.824    C512,81.171,491.932,61.146,467.264,61z"/>
	</g>
</g>
<g>
	<g>
		<path d="M256,151c-57.891,0-106,47.109-106,105s48.109,105,106,105s106-47.109,106-105S313.891,151,256,151z M286,271h-30    c-8.291,0-15-6.709-15-15v-30c0-8.291,6.709-15,15-15s15,6.709,15,15v15h15c8.291,0,15,6.709,15,15S294.291,271,286,271z"/>
	</g>
</g>
<g>
	<g>
		<path d="M437,361c-36.216,0-66.513,25.809-73.482,60H45c-8.276,0-15-6.724-15-15V286c0-8.276,6.724-15,15-15h23.789l-4.395,4.395    c-5.859,5.859-5.859,15.352,0,21.211c5.859,5.859,15.352,5.859,21.211,0l29.982-29.982c5.923-5.909,5.775-15.489,0-21.248    l-29.982-29.982c-5.859-5.859-15.352-5.859-21.211,0c-5.859,5.859-5.859,15.352,0,21.211L68.789,241H45c-24.814,0-45,20.186-45,45    v120c0,24.814,20.186,45,45,45h318.518c6.969,34.191,37.266,61,73.482,61c41.353,0,75-34.647,75-76    C512,394.647,478.353,361,437,361z"/>
	</g>
</g>
<g>
</g>
<g>
</g>
<g>
</g>
<g>
</g>
<g>
</g>
<g>
</g>
<g>
</g>
<g>
</g>
<g>
</g>
<g>
</g>
<g>
</g>
<g>
</g>
<g>
</g>
<g>
</g>
<g>
</g>
</svg>
