<?xml version="1.0" encoding="iso-8859-1"?>
<!-- Generator: Adobe Illustrator 19.0.0, SVG Export Plug-In . SVG Version: 6.00 Build 0)  -->
<svg xmlns="http://www.w3.org/2000/svg" xmlns:xlink="http://www.w3.org/1999/xlink" version="1.1" id="Capa_1" x="0px" y="0px" viewBox="0 0 512 512" style="enable-background:new 0 0 512 512;" xml:space="preserve">
<g>
	<g>
		<path d="M256,23.5c-41.353,0-75,33.647-75,75c0,41.353,33.647,75,75,75c41.353,0,75-33.647,75-75    C331,57.147,297.353,23.5,256,23.5z M286,113.5h-30c-8.291,0-15-6.709-15-15v-30c0-8.291,6.709-15,15-15s15,6.709,15,15v15h15    c8.291,0,15,6.709,15,15S294.291,113.5,286,113.5z"/>
	</g>
</g>
<g>
	<g>
		<path d="M497,203.5c-8.291,0-15,6.709-15,15c0,24.919-15.119,45.421-31.194,44.786c-5.442-58.022-42.294-109.076-94.986-133.87    c-5.784,18.6-16.419,34.887-30.685,47.481c3.484,2.745,5.865,6.817,5.865,11.603c0,8.291-6.709,15-15,15H196    c-8.291,0-15-6.709-15-15c0-4.786,2.38-8.859,5.865-11.603c-17.186-15.174-29.507-35.603-33.906-59.019    C133.109,96.237,105.203,83.5,76,83.5c-8.291,0-15,6.709-15,15c0,0,0,55.664-0.117,85.269    c-10.913,15.527-19.926,32.505-24.936,50.64C15.454,238.612,0,256.791,0,278.5v30c0,24.814,20.186,45,45,45h4.003    C62.057,378.97,82.03,400.604,106,416.318V443.5c0,24.814,20.186,45,45,45c24.814,0,45-20.186,45-45h90c0,24.814,20.186,45,45,45    c24.814,0,45-20.2,45-45.015v-26.396l0.293-0.176c1.172-0.674,2.197-1.479,3.105-2.388    c40.362-27.794,67.213-72.437,71.679-121.128c0.311,0.005,0.612,0.103,0.923,0.103c33.091,0,60-33.647,60-75    C512,210.209,505.291,203.5,497,203.5z M106,263.5c-8.284,0-15-6.716-15-15c0-8.286,6.716-15,15-15s15,6.714,15,15    C121,256.784,114.284,263.5,106,263.5z"/>
	</g>
</g>
<g>
</g>
<g>
</g>
<g>
</g>
<g>
</g>
<g>
</g>
<g>
</g>
<g>
</g>
<g>
</g>
<g>
</g>
<g>
</g>
<g>
</g>
<g>
</g>
<g>
</g>
<g>
</g>
<g>
</g>
</svg>
