<?xml version="1.0" encoding="iso-8859-1"?>
<!-- Generator: Adobe Illustrator 19.0.0, SVG Export Plug-In . SVG Version: 6.00 Build 0)  -->
<svg xmlns="http://www.w3.org/2000/svg" xmlns:xlink="http://www.w3.org/1999/xlink" version="1.1" id="Capa_1" x="0px" y="0px" viewBox="0 0 512 512" style="enable-background:new 0 0 512 512;" xml:space="preserve">
<g>
	<g>
		<path d="M501.468,212h0.181c-4.578-9.621-76.546-133.92-81.896-143.185C410.017,28.804,373.352,0,331,0    c-22.408,0-43.682,8.324-60,22.93V15c0-8.291-6.709-15-15-15c-8.291,0-15,6.709-15,15v7.93C224.682,8.324,203.408,0,181,0    c-42.352,0-79.017,28.804-88.753,68.815C86.897,78.08,15.929,202.379,11.351,212h0.181C4.977,225.693,0,240.835,0,257    c0,57.891,48.109,105,106,105s105-47.109,105-105c0-16.165-3.977-31.307-10.532-45h0.181    c-4.583-9.632-73.116-129.711-78.45-138.948C129.708,48.226,153.964,30,181,30c15.317,0,29.764,5.934,40.756,16.15    C215.144,53.985,211,63.968,211,75c0,19.53,12.578,36.024,30,42.237V150h-15c-8.291,0-15,6.709-15,15s6.709,15,15,15h15v182h30    V180h15c8.291,0,15-6.709,15-15s-6.709-15-15-15h-15v-32.763c17.422-6.213,30-22.707,30-42.237    c0-11.032-4.144-21.015-10.756-28.85C301.236,35.934,315.683,30,331,30c27.036,0,51.292,18.226,58.801,43.052    c-5.334,9.237-73.867,129.317-78.45,138.948h0.181C304.977,225.693,301,240.835,301,257c0,57.891,47.109,105,105,105    s106-47.109,106-105C512,240.835,508.023,225.693,501.468,212z M151,257c0,8.291-6.709,15-15,15h-30c-8.291,0-15-6.709-15-15v-30    c0-8.291,6.709-15,15-15s15,6.709,15,15v15h15C144.291,242,151,248.709,151,257z M134.552,154.446    C125.413,151.84,115.963,150,106,150s-19.413,1.84-28.552,4.446L106,105L134.552,154.446z M406,105l28.552,49.446    C425.413,151.84,415.963,150,406,150s-19.413,1.84-28.552,4.446L406,105z M436,272h-30c-8.291,0-15-6.709-15-15v-30    c0-8.291,6.709-15,15-15c8.291,0,15,6.709,15,15v15h15c8.291,0,15,6.709,15,15S444.291,272,436,272z"/>
	</g>
</g>
<g>
	<g>
		<path d="M421,452h-60v-30c0-16.569-13.431-30-30-30H181c-16.569,0-30,13.431-30,30v30H91c-16.569,0-30,13.431-30,30v15    c0,8.284,6.716,15,15,15h360c8.284,0,15-6.716,15-15v-15C451,465.431,437.569,452,421,452z"/>
	</g>
</g>
<g>
</g>
<g>
</g>
<g>
</g>
<g>
</g>
<g>
</g>
<g>
</g>
<g>
</g>
<g>
</g>
<g>
</g>
<g>
</g>
<g>
</g>
<g>
</g>
<g>
</g>
<g>
</g>
<g>
</g>
</svg>
