<?xml version="1.0" encoding="iso-8859-1"?>
<!-- Generator: Adobe Illustrator 19.0.0, SVG Export Plug-In . SVG Version: 6.00 Build 0)  -->
<svg xmlns="http://www.w3.org/2000/svg" xmlns:xlink="http://www.w3.org/1999/xlink" version="1.1" id="Capa_1" x="0px" y="0px" viewBox="0 0 512 512" style="enable-background:new 0 0 512 512;" xml:space="preserve">
<g>
	<g>
		<path d="M47.08,75.282c-7.383-3.706-16.392-0.703-20.127,6.68C9.067,117.572,0,155.951,0,196c0,30.776,5.464,60.908,16.216,89.546    c2.924,7.754,11.557,11.669,19.321,8.774c7.764-2.915,11.675-11.572,8.774-19.321C34.819,249.73,30,223.158,30,196    c0-35.332,7.998-69.185,23.76-100.591C57.481,88.012,54.492,79.003,47.08,75.282z"/>
	</g>
</g>
<g>
	<g>
		<path d="M485.047,81.962c-3.721-7.383-12.7-10.356-20.127-6.68c-7.412,3.721-10.4,12.729-6.68,20.127    C474.002,126.815,482,160.668,482,196c0,27.158-4.819,53.73-14.312,78.999c-2.9,7.749,1.011,16.406,8.774,19.321    c7.765,2.895,16.398-1.02,19.322-8.774C506.536,256.908,512,226.776,512,196C512,155.951,502.933,117.572,485.047,81.962z"/>
	</g>
</g>
<g>
	<g>
		<path d="M83.452,139.413c-8.027-1.992-16.172,3.018-18.091,11.089C61.802,165.326,60,180.634,60,196    c0,11.836,1.069,23.701,3.193,35.259c1.507,8.271,9.505,13.592,17.446,12.056c8.159-1.494,13.55-9.302,12.056-17.446    C90.908,216.083,90,206.034,90,196c0-13.008,1.523-25.957,4.541-38.496C96.475,149.447,91.509,141.347,83.452,139.413z"/>
	</g>
</g>
<g>
	<g>
		<path d="M446.639,150.502c-1.934-8.071-10.005-12.993-18.091-11.089c-8.057,1.934-13.022,10.034-11.089,18.091    C420.477,170.043,422,182.992,422,196c0,10.034-0.908,20.083-2.695,29.868c-1.494,8.145,3.896,15.952,12.055,17.446    c7.941,1.536,15.939-3.785,17.446-12.056C450.931,219.701,452,207.836,452,196C452,180.634,450.198,165.326,446.639,150.502z"/>
	</g>
</g>
<g>
	<g>
		<path d="M182.518,452c6.969,34.191,37.266,60,73.482,60s66.513-25.809,73.482-60H182.518z"/>
	</g>
</g>
<g>
	<g>
		<path d="M422,361H90c-16.569,0-30,14.431-30,31v15c0,8.284,6.716,15,15,15h362c8.284,0,15-6.716,15-15v-15    C452,375.431,438.569,361,422,361z"/>
	</g>
</g>
<g>
	<g>
		<path d="M295.278,67.511C298.81,61.09,301,53.831,301,46c0-24.814-20.186-46-45-46c-24.814,0-45,21.186-45,46    c0,7.831,2.19,15.09,5.722,21.511C161.512,84.452,120,135.31,120,196l0.033,75H392v-75C392,135.31,350.488,84.452,295.278,67.511z    "/>
	</g>
</g>
<g>
	<g>
		<path d="M392.493,331c-0.529-9.177-0.535-19.576-0.491-30h-271.96c0.042,10.424,0.027,20.823-0.509,30H392.493z"/>
	</g>
</g>
<g>
</g>
<g>
</g>
<g>
</g>
<g>
</g>
<g>
</g>
<g>
</g>
<g>
</g>
<g>
</g>
<g>
</g>
<g>
</g>
<g>
</g>
<g>
</g>
<g>
</g>
<g>
</g>
<g>
</g>
</svg>
