<?xml version="1.0" encoding="iso-8859-1"?>
<!-- Generator: Adobe Illustrator 19.0.0, SVG Export Plug-In . SVG Version: 6.00 Build 0)  -->
<svg xmlns="http://www.w3.org/2000/svg" xmlns:xlink="http://www.w3.org/1999/xlink" version="1.1" id="Capa_1" x="0px" y="0px" viewBox="0 0 512 512" style="enable-background:new 0 0 512 512;" xml:space="preserve">
<g>
	<g>
		<path d="M451,363.518V346c0-24.814-20.186-45-45-45H271v-31.516c67.315-7.573,120-64.177,120-133.484C391,61.557,330.443,0,256,0    S121,61.557,121,136c0,69.307,52.685,125.911,120,133.484V301H105c-24.814,0-45,20.186-45,45v17.518    C25.809,370.487,0,400.784,0,437c0,41.353,33.647,75,75,75s75-33.647,75-75c0-36.216-25.809-66.513-60-73.482V346    c0-8.276,6.724-15,15-15h136v32.518c-34.191,6.969-60,37.266-60,73.482c0,41.353,33.647,75,75,75c41.353,0,75-33.647,75-75    c0-36.216-25.809-66.513-60-73.482V331h135c8.276,0,15,6.724,15,15v17.518c-34.191,6.969-60,37.266-60,73.482    c0,41.353,33.647,75,75,75c41.353,0,76-33.647,76-75C512,400.784,485.191,370.487,451,363.518z M245.412,146.623    C242.588,143.806,241,139.889,241,136V76c0-8.291,6.709-15,15-15s15,6.709,15,15v53.789l25.605,25.605    c5.859,5.859,5.859,15.352,0,21.211s-15.352,5.859-21.211,0L245.412,146.623z"/>
	</g>
</g>
<g>
</g>
<g>
</g>
<g>
</g>
<g>
</g>
<g>
</g>
<g>
</g>
<g>
</g>
<g>
</g>
<g>
</g>
<g>
</g>
<g>
</g>
<g>
</g>
<g>
</g>
<g>
</g>
<g>
</g>
</svg>
