<?xml version="1.0" encoding="iso-8859-1"?>
<!-- Generator: Adobe Illustrator 19.0.0, SVG Export Plug-In . SVG Version: 6.00 Build 0)  -->
<svg xmlns="http://www.w3.org/2000/svg" xmlns:xlink="http://www.w3.org/1999/xlink" version="1.1" id="Capa_1" x="0px" y="0px" viewBox="0 0 512 512" style="enable-background:new 0 0 512 512;" xml:space="preserve">
<g>
	<g>
		<path d="M352.738,159.262c-52.771-52.771-138.153-52.789-190.913,0c-52.632,52.632-52.632,138.281,0,190.913    c52.659,52.659,138.329,52.613,190.913,0C405.524,297.42,405.513,212.037,352.738,159.262z M299.711,270h-42.422    c-3.889,0-7.806-1.878-10.624-4.702l-42.418-42.404c-5.859-5.859-5.859-15.352,0-21.211c5.859-5.859,15.352-5.859,21.211,0    L263.498,240h36.213c8.291,0,15,6.42,15,14.711S308.002,270,299.711,270z"/>
	</g>
</g>
<g>
	<g>
		<path d="M410.174,101.825c-17.549-17.548-46.098-17.549-63.647,0l-9.326,9.331c13.185,7.366,25.772,15.919,36.747,26.895    c10.975,10.976,19.528,23.562,26.895,36.747l9.331-9.326C427.723,147.923,427.723,119.373,410.174,101.825z"/>
	</g>
</g>
<g>
	<g>
		<path d="M498.847,392.769l-59.94-62.494l-21.826-36.381c-7.064,29.015-21.443,55.8-43.085,77.452l-0.103,0.103    c-21.636,21.623-48.431,35.984-77.481,43.028l36.425,21.854l59.941,62.507c17.549,17.549,46.084,17.549,63.633,0l42.451-42.422    C516.382,438.867,516.382,410.317,498.847,392.769z"/>
	</g>
</g>
<g>
	<g>
		<path d="M181.728,73.094l-62.496-59.96c-17.55-17.536-46.1-17.492-63.649,0.013L13.162,55.584    c-17.549,17.549-17.549,46.084,0,63.633l62.509,59.945l21.923,36.541c6.896-28.429,20.863-55.494,43.021-77.651    c21.652-21.672,48.453-36.063,77.492-43.132L181.728,73.094z"/>
	</g>
</g>
<g>
</g>
<g>
</g>
<g>
</g>
<g>
</g>
<g>
</g>
<g>
</g>
<g>
</g>
<g>
</g>
<g>
</g>
<g>
</g>
<g>
</g>
<g>
</g>
<g>
</g>
<g>
</g>
<g>
</g>
</svg>
