<?xml version="1.0" encoding="iso-8859-1"?>
<!-- Generator: Adobe Illustrator 19.0.0, SVG Export Plug-In . SVG Version: 6.00 Build 0)  -->
<svg xmlns="http://www.w3.org/2000/svg" xmlns:xlink="http://www.w3.org/1999/xlink" version="1.1" id="Capa_1" x="0px" y="0px" viewBox="0 0 512 512" style="enable-background:new 0 0 512 512;" xml:space="preserve">
<g>
	<g>
		<path d="M256,391c-8.276,0-15,6.724-15,15s6.724,15,15,15s15-6.724,15-15S264.276,391,256,391z"/>
	</g>
</g>
<g>
	<g>
		<path d="M256,91c-57.891,0-105,47.109-105,105s47.109,105,105,105s105-47.109,105-105S313.891,91,256,91z M296.605,236.605    c-5.859,5.859-15.352,5.859-21.211,0l-29.982-29.982C242.588,203.806,241,199.889,241,196v-60c0-8.291,6.709-15,15-15    s15,6.709,15,15v53.789l25.605,25.605C302.464,221.253,302.464,230.746,296.605,236.605z"/>
	</g>
</g>
<g>
	<g>
		<path d="M256,0C148.48,0,61,88.48,61,196v270c0,24.814,20.186,46,45,46h300c24.814,0,45-21.186,45-46V196    C451,88.48,363.52,0,256,0z M271,329.484v34.279c17.422,6.213,30,22.707,30,42.237c0,24.814-20.186,45-45,45    c-24.814,0-45-20.186-45-45c0-19.53,12.578-36.024,30-42.237v-34.279C173.685,321.911,121,265.307,121,196    c0-74.443,60.557-135,135-135s135,60.557,135,135C391,265.307,338.315,321.911,271,329.484z"/>
	</g>
</g>
<g>
</g>
<g>
</g>
<g>
</g>
<g>
</g>
<g>
</g>
<g>
</g>
<g>
</g>
<g>
</g>
<g>
</g>
<g>
</g>
<g>
</g>
<g>
</g>
<g>
</g>
<g>
</g>
<g>
</g>
</svg>
