<?xml version="1.0" encoding="iso-8859-1"?>
<!-- Generator: Adobe Illustrator 19.0.0, SVG Export Plug-In . SVG Version: 6.00 Build 0)  -->
<svg xmlns="http://www.w3.org/2000/svg" xmlns:xlink="http://www.w3.org/1999/xlink" version="1.1" id="Capa_1" x="0px" y="0px" viewBox="0 0 512 512" style="enable-background:new 0 0 512 512;" xml:space="preserve">
<g>
	<g>
		<path d="M91,181c-33.091,0-60,26.909-60,60s26.909,60,60,60s60-26.909,60-60S124.091,181,91,181z"/>
	</g>
</g>
<g>
	<g>
		<path d="M421,181c-33.091,0-60,26.909-60,60s26.909,60,60,60s60-26.909,60-60S454.091,181,421,181z"/>
	</g>
</g>
<g>
	<g>
		<path d="M256,0c-57.891,0-105,48.109-105,106s47.109,105,105,105s105-47.109,105-105S313.891,0,256,0z M286,121h-30    c-8.291,0-15-6.709-15-15V45c0-8.291,6.709-15,15-15s15,6.709,15,15v46h15c8.291,0,15,6.709,15,15S294.291,121,286,121z"/>
	</g>
</g>
<g>
	<g>
		<path d="M487.592,301c-16.485,18.279-40.097,30-66.592,30c-26.314,0-49.799-11.55-66.271-29.612    c-2.054,2.291-4.418,4.292-6.238,6.78C374.528,332.794,391,367.416,391,406v45h105c8.291,0,16-6.709,16-15v-75    C512,337.866,501.984,316.959,487.592,301z"/>
	</g>
</g>
<g>
	<g>
		<path d="M157.272,301.389C140.799,319.45,117.314,331,91,331c-26.495,0-50.107-11.721-66.592-30C10.016,316.959,0,337.866,0,361    v75c0,8.291,6.709,15,15,15h106v-45c0-38.584,16.472-73.206,42.51-97.831C161.69,305.681,159.326,303.679,157.272,301.389z"/>
	</g>
</g>
<g>
	<g>
		<path d="M329.341,331.108l-63.834,56.494c-2.769,2.27-6.138,3.398-9.507,3.398c-3.369,0-6.753-1.128-9.521-3.398l-63.798-56.521    C163.193,350.158,151,376.646,151,406v91c0,8.291,6.709,15,15,15h180c8.291,0,15-6.709,15-15v-91    C361,376.659,348.814,350.18,329.341,331.108z"/>
	</g>
</g>
<g>
	<g>
		<path d="M322.797,222.605C303.016,233.985,280.413,241,256,241c-24.413,0-47.016-7.015-66.797-18.395    C184.127,232.707,181,243.944,181,256c0,41.353,33.647,75,75,75c41.353,0,75-33.647,75-75    C331,243.944,327.873,232.707,322.797,222.605z"/>
	</g>
</g>
<g>
</g>
<g>
</g>
<g>
</g>
<g>
</g>
<g>
</g>
<g>
</g>
<g>
</g>
<g>
</g>
<g>
</g>
<g>
</g>
<g>
</g>
<g>
</g>
<g>
</g>
<g>
</g>
<g>
</g>
</svg>
