<?xml version="1.0" encoding="iso-8859-1"?>
<!-- Generator: Adobe Illustrator 19.0.0, SVG Export Plug-In . SVG Version: 6.00 Build 0)  -->
<svg xmlns="http://www.w3.org/2000/svg" xmlns:xlink="http://www.w3.org/1999/xlink" version="1.1" id="Capa_1" x="0px" y="0px" viewBox="0 0 512 512" style="enable-background:new 0 0 512 512;" xml:space="preserve">
<g>
	<g>
		<path d="M256,301c-8.291,0-15-6.709-15-15V151.835C173.589,159.32,121,216.625,121,286c0,74.443,60.557,135,135,135    c69.374,0,126.68-52.588,134.165-120H256z"/>
	</g>
</g>
<g>
	<g>
		<path d="M446.921,116.291l10.613,10.613c5.859,5.859,15.352,5.859,21.211,0s5.859-15.352,0-21.211l-42.437-42.437    c-5.859-5.859-15.352-5.859-21.211,0s-5.859,15.352,0,21.211L425.71,95.08l-21.793,21.793    C375.093,91.632,339.93,73.468,301,65.536V30h15c8.291,0,15-6.709,15-15s-6.709-15-15-15c-25.272,0-94.31,0-120,0    c-8.291,0-15,6.709-15,15s6.709,15,15,15h15v35.536c-38.93,7.932-74.092,26.096-102.916,51.337L86.292,95.08l10.613-10.613    c5.859-5.86,5.859-15.352-0.001-21.211c-5.859-5.859-15.352-5.859-21.211,0l-42.437,42.437c-5.859,5.859-5.859,15.352,0,21.211    s15.352,5.859,21.211,0l10.613-10.613l21.793,21.793C52.201,177.678,31,229.354,31,286c0,124.072,100.928,226,225,226    s225-101.928,225-226c0-56.646-21.2-108.322-55.873-147.916L446.921,116.291z M256,451c-90.981,0-165-74.019-165-165    s74.019-165,165-165c8.291,0,15,6.709,15,15v135h135c8.291,0,15,6.709,15,15C421,376.981,346.982,451,256,451z"/>
	</g>
</g>
<g>
</g>
<g>
</g>
<g>
</g>
<g>
</g>
<g>
</g>
<g>
</g>
<g>
</g>
<g>
</g>
<g>
</g>
<g>
</g>
<g>
</g>
<g>
</g>
<g>
</g>
<g>
</g>
<g>
</g>
</svg>
