<?xml version="1.0" encoding="iso-8859-1"?>
<!-- Generator: Adobe Illustrator 19.0.0, SVG Export Plug-In . SVG Version: 6.00 Build 0)  -->
<svg xmlns="http://www.w3.org/2000/svg" xmlns:xlink="http://www.w3.org/1999/xlink" version="1.1" id="Capa_1" x="0px" y="0px" viewBox="0 0 512 512" style="enable-background:new 0 0 512 512;" xml:space="preserve">
<g>
	<g>
		<rect x="391" y="166" width="30" height="90"/>
	</g>
</g>
<g>
	<g>
		<path d="M0,346v15c0,24.814,21.186,45,46,45h420c24.814,0,46-20.186,46-45v-15H0z"/>
	</g>
</g>
<g>
	<g>
		<rect x="91" y="166" width="30" height="30"/>
	</g>
</g>
<g>
	<g>
		<rect x="271" y="166" width="30" height="90"/>
	</g>
</g>
<g>
	<g>
		<path d="M466,16H46C21.186,16,0,36.186,0,61v15h512V61C512,36.186,490.814,16,466,16z"/>
	</g>
</g>
<g>
	<g>
		<path d="M0,106v210h512V106H0z M151,271c0,8.291-6.709,15-15,15H76c-8.291,0-15-6.709-15-15c0-8.291,6.709-15,15-15h45v-30H76    c-8.291,0-15-6.709-15-15v-60c0-8.291,6.709-15,15-15h60c8.291,0,15,6.709,15,15C151,194.423,151,227.577,151,271z M211,256h-30    v-30h30V256z M211,196h-30v-30h30V196z M331,271c0,8.291-6.709,15-15,15h-60c-8.291,0-15-6.709-15-15V151c0-8.291,6.709-15,15-15    h60c8.291,0,15,6.709,15,15V271z M451,271c0,8.291-6.709,15-15,15h-60c-8.291,0-15-6.709-15-15V151c0-8.291,6.709-15,15-15h60    c8.291,0,15,6.709,15,15V271z"/>
	</g>
</g>
<g>
	<g>
		<path d="M61,436v45c0,8.291,6.709,15,15,15h360c8.291,0,15-6.709,15-15v-45H61z"/>
	</g>
</g>
<g>
</g>
<g>
</g>
<g>
</g>
<g>
</g>
<g>
</g>
<g>
</g>
<g>
</g>
<g>
</g>
<g>
</g>
<g>
</g>
<g>
</g>
<g>
</g>
<g>
</g>
<g>
</g>
<g>
</g>
</svg>
