<?xml version="1.0" encoding="iso-8859-1"?>
<!-- Generator: Adobe Illustrator 19.0.0, SVG Export Plug-In . SVG Version: 6.00 Build 0)  -->
<svg xmlns="http://www.w3.org/2000/svg" xmlns:xlink="http://www.w3.org/1999/xlink" version="1.1" id="Capa_1" x="0px" y="0px" viewBox="0 0 512 512" style="enable-background:new 0 0 512 512;" xml:space="preserve">
<g>
	<g>
		<path d="M256,0c-41.353,0-75,33.647-75,75c0,41.353,33.647,75,75,75c41.353,0,75-33.647,75-75C331,33.647,297.353,0,256,0z     M286,90h-30c-8.291,0-15-6.709-15-15V45c0-8.291,6.709-15,15-15s15,6.709,15,15v15h15c8.291,0,15,6.709,15,15S294.291,90,286,90z    "/>
	</g>
</g>
<g>
	<g>
		<path d="M106,301c-8.276,0-15,6.724-15,15s6.724,15,15,15s15-6.724,15-15S114.276,301,106,301z"/>
	</g>
</g>
<g>
	<g>
		<path d="M406,301c-8.276,0-15,6.724-15,15s6.724,15,15,15s15-6.724,15-15S414.276,301,406,301z"/>
	</g>
</g>
<g>
	<g>
		<polygon points="306.728,361 205.272,361 175.272,422 336.728,422   "/>
	</g>
</g>
<g>
	<g>
		<path d="M436,241H76c-41.353,0-76,33.647-76,75v30c0,41.353,34.647,76,76,76h65.728l40.854-82.709    C185.131,334.208,190.316,331,196,331h120c5.684,0,10.869,3.208,13.418,8.291L370.272,422H436c41.353,0,76-34.647,76-76v-30    C512,274.647,477.353,241,436,241z M106,361c-24.814,0-45-20.186-45-45c0-24.814,20.186-45,45-45c24.814,0,45,20.186,45,45    C151,340.814,130.814,361,106,361z M316,301H196c-8.291,0-15-6.709-15-15c0-8.291,6.709-15,15-15h120c8.291,0,15,6.709,15,15    C331,294.291,324.291,301,316,301z M406,361c-24.814,0-45-20.186-45-45c0-24.814,20.186-45,45-45c24.814,0,45,20.186,45,45    C451,340.814,430.814,361,406,361z"/>
	</g>
</g>
<g>
	<g>
		<path d="M431.913,146.821c-8.198-32.849-37.229-55.834-70.913-56.666V90h-1.516c-7.357,50.75-50.729,90-103.484,90    s-96.127-39.25-103.484-90H151v0.156c-33.684,0.831-62.715,23.817-70.913,56.666L64.296,211h383.408L431.913,146.821z"/>
	</g>
</g>
<g>
	<g>
		<path d="M61,452v15c0,24.814,20.186,45,45,45h30c24.814,0,45-20.186,45-45v-15H61z"/>
	</g>
</g>
<g>
	<g>
		<path d="M331,452v15c0,24.814,20.186,45,45,45h30c24.814,0,45-20.186,45-45v-15H331z"/>
	</g>
</g>
<g>
</g>
<g>
</g>
<g>
</g>
<g>
</g>
<g>
</g>
<g>
</g>
<g>
</g>
<g>
</g>
<g>
</g>
<g>
</g>
<g>
</g>
<g>
</g>
<g>
</g>
<g>
</g>
<g>
</g>
</svg>
