<?xml version="1.0" encoding="iso-8859-1"?>
<!-- Generator: Adobe Illustrator 19.0.0, SVG Export Plug-In . SVG Version: 6.00 Build 0)  -->
<svg xmlns="http://www.w3.org/2000/svg" xmlns:xlink="http://www.w3.org/1999/xlink" version="1.1" id="Capa_1" x="0px" y="0px" viewBox="0 0 512 512" style="enable-background:new 0 0 512 512;" xml:space="preserve">
<g>
	<g>
		<path d="M406,0H106c-8.284,0-15,6.716-15,15v15c0,16.569,13.431,30,30,30h270c16.569,0,30-13.431,30-30V15    C421,6.716,414.284,0,406,0z"/>
	</g>
</g>
<g>
	<g>
		<path d="M391,452H121c-16.569,0-30,13.431-30,30v15c0,8.284,6.716,15,15,15h300c8.284,0,15-6.716,15-15v-15    C421,465.431,407.569,452,391,452z"/>
	</g>
</g>
<g>
	<g>
		<path d="M328.584,413.417c-15.705-16.671-58.316-61.321-70.533-80.582c-0.073,0.117-4.116,0.029-4.189,0.132    c-10.313,15.879-39.272,47.139-73.228,83.35c-1.758,1.875-3.56,3.779-5.332,5.684h161.353    C333.974,419.145,331.235,416.244,328.584,413.417z"/>
	</g>
</g>
<g>
	<g>
		<path d="M318.271,226.341C363.139,203.021,391,155.303,391,105V90H121v15c0,50.303,27.861,98.021,72.729,121.341    C204.218,231.79,211,243.816,211,257s-6.782,25.21-17.271,30.659C148.861,310.979,121,356.697,121,407v15h13.506    c4.362-4.969,11.528-12.654,24.243-26.206c23.994-25.576,60.249-64.233,69.976-79.175c11.279-18.428,43.052-18.75,54.771,0.322    c10.44,16.44,53.569,61.724,66.914,75.908c14.504,15.39,22.416,23.857,27.078,29.15H391v-15    c0-50.303-27.861-96.021-72.729-119.341C307.782,282.21,301,270.184,301,257C301,243.816,307.782,231.79,318.271,226.341z"/>
	</g>
</g>
<g>
</g>
<g>
</g>
<g>
</g>
<g>
</g>
<g>
</g>
<g>
</g>
<g>
</g>
<g>
</g>
<g>
</g>
<g>
</g>
<g>
</g>
<g>
</g>
<g>
</g>
<g>
</g>
<g>
</g>
</svg>
