<?xml version="1.0" encoding="iso-8859-1"?>
<!-- Generator: Adobe Illustrator 19.0.0, SVG Export Plug-In . SVG Version: 6.00 Build 0)  -->
<svg xmlns="http://www.w3.org/2000/svg" xmlns:xlink="http://www.w3.org/1999/xlink" version="1.1" id="Capa_1" x="0px" y="0px" viewBox="0 0 512 512" style="enable-background:new 0 0 512 512;" xml:space="preserve">
<g>
	<g>
		<path d="M406,0H106c-8.284,0-15,6.716-15,15v15c0,16.569,13.431,30,30,30h270c16.569,0,30-13.431,30-30V15    C421,6.716,414.284,0,406,0z"/>
	</g>
</g>
<g>
	<g>
		<path d="M391,452H121c-16.569,0-30,13.431-30,30v15c0,8.284,6.716,15,15,15h300c8.284,0,15-6.716,15-15v-15    C421,465.431,407.569,452,391,452z"/>
	</g>
</g>
<g>
	<g>
		<path d="M129.405,150c11.034,30.813,32.701,57.213,62.675,73.336c0.009,0.007,0.014,0.016,0.014,0.016    c11.054,7.654,33.598,28.015,36.63,32.117c6.006,9.287,16.201,14.839,27.275,14.839c11.074,0,21.27-5.552,27.129-14.619    c3.193-4.321,25.737-24.697,36.753-32.329l0.002-0.002c29.993-16.122,51.672-42.534,62.712-73.358H129.405z"/>
	</g>
</g>
<g>
	<g>
		<path d="M121,105c0,5.067,0.482,10.045,1.036,15h267.927c0.555-4.955,1.036-9.933,1.036-15V90H121V105z"/>
	</g>
</g>
<g>
	<g>
		<path d="M318.271,285.659c-4.818-2.503-8.727-6.506-11.682-11.257c-11.644,16.236-30.302,25.906-50.588,25.906    c-20.197,0-38.833-9.67-50.57-25.931c-2.957,4.764-6.874,8.776-11.7,11.283C148.861,308.979,121,356.697,121,407v15h270v-15    C391,356.697,363.139,308.979,318.271,285.659z"/>
	</g>
</g>
<g>
</g>
<g>
</g>
<g>
</g>
<g>
</g>
<g>
</g>
<g>
</g>
<g>
</g>
<g>
</g>
<g>
</g>
<g>
</g>
<g>
</g>
<g>
</g>
<g>
</g>
<g>
</g>
<g>
</g>
</svg>
