<?xml version="1.0" encoding="iso-8859-1"?>
<!-- Generator: Adobe Illustrator 19.0.0, SVG Export Plug-In . SVG Version: 6.00 Build 0)  -->
<svg xmlns="http://www.w3.org/2000/svg" xmlns:xlink="http://www.w3.org/1999/xlink" version="1.1" id="Capa_1" x="0px" y="0px" viewBox="0 0 512 512" style="enable-background:new 0 0 512 512;" xml:space="preserve">
<g>
	<g>
		<rect x="361" y="272" width="30" height="30"/>
	</g>
</g>
<g>
	<g>
		<rect x="241" y="272" width="30" height="30"/>
	</g>
</g>
<g>
	<g>
		<rect x="241" y="392" width="30" height="30"/>
	</g>
</g>
<g>
	<g>
		<rect x="121" y="90" width="270" height="92"/>
	</g>
</g>
<g>
	<g>
		<rect x="121" y="272" width="30" height="30"/>
	</g>
</g>
<g>
	<g>
		<path d="M436,0H76C51.186,0,31,20.186,31,45v422c0,24.814,20.186,45,45,45h236.472c-17.908-15.643-31.051-36.31-37.211-60H226    c-8.291,0-15-6.709-15-15v-60c0-8.291,6.709-15,15-15h60c0.542,0,0.998,0.253,1.525,0.308    c10.545-18.206,25.576-33.237,43.782-43.782C331.253,317.998,331,317.542,331,317v-60c0-8.291,6.709-15,15-15h60    c8.291,0,15,6.709,15,15v49.261c23.69,6.16,44.357,19.303,60,37.211V45C481,20.186,460.814,0,436,0z M181,437    c0,8.291-6.709,15-15,15h-60c-8.291,0-15-6.709-15-15v-60c0-8.291,6.709-15,15-15h60c8.291,0,15,6.709,15,15V437z M181,317    c0,8.291-6.709,15-15,15h-60c-8.291,0-15-6.709-15-15v-60c0-8.291,6.709-15,15-15h60c8.291,0,15,6.709,15,15V317z M301,317    c0,8.291-6.709,15-15,15h-60c-8.291,0-15-6.709-15-15v-60c0-8.291,6.709-15,15-15h60c8.291,0,15,6.709,15,15V317z M421,197    c0,8.291-6.709,15-15,15H106c-8.291,0-15-6.709-15-15V75c0-8.291,6.709-15,15-15h300c8.291,0,15,6.709,15,15V197z"/>
	</g>
</g>
<g>
	<g>
		<rect x="121" y="392" width="30" height="30"/>
	</g>
</g>
<g>
	<g>
		<path d="M391,332c-49.629,0-90,40.371-90,90c0,49.629,40.371,90,90,90c49.629,0,90-40.371,90-90C481,372.371,440.629,332,391,332z     M421,437h-30c-8.291,0-15-6.709-15-15v-30c0-8.291,6.709-15,15-15c8.291,0,15,6.709,15,15v15h15c8.291,0,15,6.709,15,15    C436,430.291,429.291,437,421,437z"/>
	</g>
</g>
<g>
</g>
<g>
</g>
<g>
</g>
<g>
</g>
<g>
</g>
<g>
</g>
<g>
</g>
<g>
</g>
<g>
</g>
<g>
</g>
<g>
</g>
<g>
</g>
<g>
</g>
<g>
</g>
<g>
</g>
</svg>
