<?xml version="1.0" encoding="iso-8859-1"?>
<!-- Generator: Adobe Illustrator 19.0.0, SVG Export Plug-In . SVG Version: 6.00 Build 0)  -->
<svg xmlns="http://www.w3.org/2000/svg" xmlns:xlink="http://www.w3.org/1999/xlink" version="1.1" id="Capa_1" x="0px" y="0px" viewBox="0 0 512 512" style="enable-background:new 0 0 512 512;" xml:space="preserve">
<g>
	<g>
		<path d="M499.461,211.205l-56.225-9.214c-4.028-13.96-9.609-27.407-16.685-40.181l32.563-45.586    c4.263-5.962,3.589-14.136-1.597-19.321l-42.422-42.422c-5.2-5.2-13.403-5.889-19.321-1.597l-45.586,32.549    c-12.759-7.061-26.206-12.642-40.181-16.67l-9.214-56.225C299.594,5.303,293.339,0,286,0h-60c-7.339,0-13.594,5.303-14.795,12.539    l-9.214,56.225c-13.975,4.028-27.422,9.609-40.181,16.67l-45.586-32.549c-5.977-4.292-14.15-3.604-19.321,1.597L54.481,96.903    c-5.186,5.186-5.859,13.359-1.597,19.321l32.563,45.586c-7.075,12.773-12.656,26.221-16.685,40.181l-56.225,9.214    C5.303,212.406,0,218.661,0,226v60c0,7.339,5.303,13.594,12.539,14.795l56.225,9.214c4.028,13.975,9.609,27.422,16.67,40.181    l-32.549,45.586c-4.263,5.962-3.589,14.136,1.597,19.321l42.422,42.422c5.171,5.171,13.345,5.83,19.321,1.597l45.586-32.549    c12.759,7.061,26.206,12.642,40.181,16.67l9.214,56.225C212.406,506.697,218.661,512,226,512h60    c7.339,0,13.594-5.303,14.795-12.539l9.214-56.225c13.975-4.028,27.422-9.609,40.181-16.67l45.586,32.549    c5.918,4.233,14.121,3.574,19.321-1.597l42.422-42.422c5.186-5.186,5.859-13.359,1.597-19.321l-32.549-45.586    c7.061-12.759,12.642-26.206,16.67-40.181l56.225-9.214C506.697,299.594,512,293.339,512,286v-60    C512,218.661,506.697,212.406,499.461,211.205z M256,391c-74.443,0-135-60.557-135-135s60.557-135,135-135s135,60.557,135,135    S330.443,391,256,391z"/>
	</g>
</g>
<g>
	<g>
		<path d="M256,151c-57.891,0-105,47.109-105,105s47.109,105,105,105s105-47.109,105-105S313.891,151,256,151z M296.605,296.605    c-5.859,5.859-15.352,5.859-21.211,0l-29.982-29.982C242.588,263.806,241,259.889,241,256v-60c0-8.291,6.709-15,15-15    s15,6.709,15,15v53.789l25.605,25.605C302.465,281.254,302.465,290.746,296.605,296.605z"/>
	</g>
</g>
<g>
</g>
<g>
</g>
<g>
</g>
<g>
</g>
<g>
</g>
<g>
</g>
<g>
</g>
<g>
</g>
<g>
</g>
<g>
</g>
<g>
</g>
<g>
</g>
<g>
</g>
<g>
</g>
<g>
</g>
</svg>
