<?xml version="1.0" encoding="iso-8859-1"?>
<!-- Generator: Adobe Illustrator 18.0.0, SVG Export Plug-In . SVG Version: 6.00 Build 0)  -->
<!DOCTYPE svg PUBLIC "-//W3C//DTD SVG 1.1//EN" "http://www.w3.org/Graphics/SVG/1.1/DTD/svg11.dtd">
<svg version="1.1" id="Capa_1" xmlns="http://www.w3.org/2000/svg" xmlns:xlink="http://www.w3.org/1999/xlink" x="0px" y="0px"
	 viewBox="0 0 297 297" style="enable-background:new 0 0 297 297;" xml:space="preserve">
<g>
	<path d="M158.959,169.506c-7.674,0-16.806-1.909-26.061-8.188c-0.219,1.247-0.523,2.535-0.943,3.814
		c2.888,3.228,4.519,7.379,4.519,11.808c0,7.818,11.978,16.732,22.484,16.732c10.507,0,22.484-8.913,22.484-16.732
		c0-4.429,1.632-8.58,4.518-11.808c-0.42-1.279-0.725-2.566-0.942-3.814C175.764,167.597,166.632,169.506,158.959,169.506z"/>
	<path d="M105.087,70.922c0,1.259,0.026,2.559,0.076,3.888c-0.49,0.053-0.979,0.137-1.466,0.259
		c-7.937,1.979-12.136,12.556-9.375,23.621c2.457,9.858,9.604,16.772,16.743,16.772c0.832,0,1.665-0.094,2.49-0.288
		c8.008,19.858,22.3,42.828,45.403,42.828c23.102,0,37.395-22.97,45.401-42.828c0.825,0.194,1.657,0.288,2.489,0.288
		c7.14,0,14.287-6.914,16.744-16.772c2.761-11.065-1.439-21.643-9.376-23.621c-0.485-0.122-0.975-0.206-1.465-0.259
		c0.049-1.329,0.075-2.629,0.075-3.888c0-29.753-24.118-47.596-53.869-47.596C129.205,23.326,105.087,41.169,105.087,70.922z"/>
	<path d="M199.971,173.894c-0.908-0.224-1.939-0.008-2.687,0.577c-0.764,0.599-1.201,1.499-1.201,2.47
		c0,17.669-19.957,31.373-37.125,31.373c-17.169,0-37.125-13.704-37.125-31.373c0-0.971-0.438-1.871-1.202-2.47
		c-0.551-0.431-1.238-0.668-1.937-0.668c-0.252,0-0.505,0.031-0.751,0.091c-2.956,0.729-72.452,18.268-72.452,54.813v34.511
		c0,1.729,1.407,3.137,3.137,3.137h16.734v-27.917c0-9.804,7.975-17.778,17.777-17.778h151.636c9.803,0,17.778,7.975,17.778,17.778
		v27.917h16.733c1.729,0,3.137-1.407,3.137-3.137v-34.511C272.424,192.161,202.929,174.623,199.971,173.894z"/>
	<path d="M234.775,235.299H83.14c-1.729,0-3.137,1.408-3.137,3.138v51.766c0,1.73,1.407,3.138,3.137,3.138h151.636
		c1.729,0,3.138-1.407,3.138-3.138v-51.766C237.913,236.707,236.505,235.299,234.775,235.299z"/>
	<path d="M216.77,41.831h69.771c5.775,0,10.458-4.683,10.458-10.458c0-5.775-4.683-10.458-10.458-10.458h-91.144
		c3.23,1.826,6.265,3.904,9.047,6.239C209.466,31.368,213.593,36.322,216.77,41.831z"/>
	<path d="M286.542,72.682h-56.596c1.463,1.942,2.705,4.132,3.663,6.546c1.745,4.397,2.498,9.328,2.275,14.369h50.657
		c5.775,0,10.458-4.683,10.458-10.458C297,77.363,292.317,72.682,286.542,72.682z"/>
	<path d="M286.542,124.447h-70.605c-3.471,7.517-9.548,15.703-13.361,20.915h83.967c5.775,0,10.458-4.683,10.458-10.458
		C297,129.13,292.317,124.447,286.542,124.447z"/>
	<path d="M286.542,176.213H246.71c11.4,6.188,20.96,13.395,27.535,20.916h12.297c5.775,0,10.458-4.683,10.458-10.458
		S292.317,176.213,286.542,176.213z"/>
	<path d="M71.206,176.213c0.085-0.046,0.041-0.023-0.002,0H31.373v-30.851h83.468c-3.813-5.212-9.393-13.398-12.863-20.915H31.373
		V93.597h50.658c-0.223-5.042,0.53-9.972,2.275-14.369c0.958-2.414,2.199-4.604,3.662-6.546H31.373V41.831h69.771
		c3.178-5.509,7.305-10.463,12.327-14.677c2.783-2.335,5.816-4.413,9.047-6.239H31.373v-6.797c0-5.775-4.683-10.458-10.458-10.458
		H10.458C4.683,3.66,0,8.343,0,14.118v258.829c0,5.775,4.683,10.457,10.458,10.457h10.457c5.775,0,10.458-4.682,10.458-10.457
		v-5.527c-0.329-1.35-0.522-2.753-0.522-4.203v-34.511c0-2.234,0.182-4.442,0.522-6.626v-24.951H43.67
		C50.245,189.607,59.806,182.4,71.206,176.213z"/>
	<path d="M287.05,228.004c0.004,0.234,0.016,0.467,0.016,0.702v20.161c5.529-0.273,9.935-4.832,9.935-10.431
		C297,232.833,292.588,228.27,287.05,228.004z"/>
</g>
<g>
</g>
<g>
</g>
<g>
</g>
<g>
</g>
<g>
</g>
<g>
</g>
<g>
</g>
<g>
</g>
<g>
</g>
<g>
</g>
<g>
</g>
<g>
</g>
<g>
</g>
<g>
</g>
<g>
</g>
</svg>
