<?xml version="1.0" encoding="iso-8859-1"?>
<!-- Generator: Adobe Illustrator 18.0.0, SVG Export Plug-In . SVG Version: 6.00 Build 0)  -->
<!DOCTYPE svg PUBLIC "-//W3C//DTD SVG 1.1//EN" "http://www.w3.org/Graphics/SVG/1.1/DTD/svg11.dtd">
<svg version="1.1" id="Capa_1" xmlns="http://www.w3.org/2000/svg" xmlns:xlink="http://www.w3.org/1999/xlink" x="0px" y="0px"
	 viewBox="0 0 297 297" style="enable-background:new 0 0 297 297;" xml:space="preserve">
<g>
	<path d="M98.119,158.046c0.47-0.101,0.958-0.156,1.458-0.156h14.491c0.188-3.861,0.543-7.598,1.035-11.203
		C107.109,149.759,101.226,153.794,98.119,158.046z"/>
	<path d="M238.192,32.616h-7.412V9.884c0-2.963-1.329-5.769-3.622-7.648c-2.293-1.877-5.307-2.627-8.211-2.042L56.857,32.81
		l-0.003,0.001c-4.522,0.906-7.931,4.9-7.931,9.688v244.617c0,5.458,4.425,9.884,9.884,9.884h179.385
		c5.459,0,9.884-4.426,9.884-9.884V42.499C248.076,37.041,243.651,32.616,238.192,32.616z M211.014,21.954v10.662h-52.984
		L211.014,21.954z M148.5,232.51c-37.331,0-67.702-30.37-67.702-67.702c0-37.331,30.371-67.702,67.702-67.702
		s67.702,30.371,67.702,67.702C216.202,202.14,185.831,232.51,148.5,232.51z"/>
	<path d="M141.581,127.424v-11.7c-2.665,2.716-5.293,6.894-7.531,12.36C136.524,127.789,139.036,127.567,141.581,127.424z"/>
	<path d="M114.068,171.727H99.577c-0.5,0-0.988-0.057-1.458-0.156c3.106,4.251,8.99,8.287,16.984,11.358
		C114.611,179.323,114.257,175.587,114.068,171.727z"/>
	<path d="M182.932,157.89h14.492c0.499,0,0.987,0.056,1.457,0.156c-3.107-4.252-8.99-8.287-16.984-11.359
		C182.389,150.292,182.743,154.028,182.932,157.89z"/>
	<path d="M141.581,171.727h-13.652c0.3,5.503,0.943,10.594,1.854,15.215c3.706,0.665,7.653,1.137,11.798,1.392V171.727z"/>
	<path d="M155.419,157.89h13.652c-0.3-5.504-0.943-10.595-1.855-15.216c-3.706-0.665-7.653-1.137-11.798-1.392V157.89z"/>
	<path d="M155.419,127.424c2.545,0.143,5.057,0.365,7.531,0.66c-2.238-5.467-4.866-9.645-7.531-12.36V127.424z"/>
	<path d="M141.581,157.89v-16.607c-4.145,0.255-8.092,0.727-11.798,1.392c-0.911,4.621-1.555,9.712-1.854,15.216H141.581z"/>
	<path d="M103.054,136.969c4.607-2.362,9.766-4.325,15.315-5.855c1.545-5.288,3.453-10.084,5.674-14.274
		c-9.118,4.668-16.737,11.853-21.934,20.641C102.426,137.311,102.73,137.135,103.054,136.969z"/>
	<path d="M118.368,198.502c-5.549-1.531-10.707-3.493-15.314-5.856c-0.325-0.166-0.628-0.342-0.945-0.511
		c5.196,8.788,12.816,15.974,21.935,20.642C121.821,208.587,119.914,203.791,118.368,198.502z"/>
	<path d="M178.631,131.113c5.55,1.53,10.708,3.493,15.315,5.855c0.324,0.166,0.628,0.342,0.944,0.511
		c-5.196-8.788-12.815-15.973-21.934-20.641C175.178,121.029,177.086,125.825,178.631,131.113z"/>
	<path d="M193.948,192.646c-4.608,2.363-9.768,4.325-15.316,5.856c-1.546,5.289-3.453,10.085-5.675,14.274
		c9.118-4.668,16.737-11.853,21.934-20.641C194.574,192.305,194.272,192.48,193.948,192.646z"/>
	<path d="M141.581,202.191c-2.545-0.141-5.057-0.364-7.531-0.659c2.238,5.467,4.866,9.645,7.531,12.361V202.191z"/>
	<path d="M198.881,171.57c-0.47,0.1-0.958,0.156-1.457,0.156h-14.492c-0.188,3.86-0.543,7.597-1.035,11.202
		C189.891,179.858,195.774,175.821,198.881,171.57z"/>
	<path d="M155.419,202.191v11.702c2.665-2.717,5.293-6.895,7.531-12.361C160.476,201.826,157.964,202.05,155.419,202.191z"/>
	<path d="M155.419,171.727v16.606c4.145-0.255,8.092-0.727,11.798-1.392c0.911-4.621,1.555-9.712,1.855-15.215H155.419z"/>
</g>
<g>
</g>
<g>
</g>
<g>
</g>
<g>
</g>
<g>
</g>
<g>
</g>
<g>
</g>
<g>
</g>
<g>
</g>
<g>
</g>
<g>
</g>
<g>
</g>
<g>
</g>
<g>
</g>
<g>
</g>
</svg>
