<?xml version="1.0" encoding="iso-8859-1"?>
<!-- Generator: Adobe Illustrator 18.0.0, SVG Export Plug-In . SVG Version: 6.00 Build 0)  -->
<!DOCTYPE svg PUBLIC "-//W3C//DTD SVG 1.1//EN" "http://www.w3.org/Graphics/SVG/1.1/DTD/svg11.dtd">
<svg version="1.1" id="Capa_1" xmlns="http://www.w3.org/2000/svg" xmlns:xlink="http://www.w3.org/1999/xlink" x="0px" y="0px"
	 viewBox="0 0 297 297" style="enable-background:new 0 0 297 297;" xml:space="preserve">
<g>
	<path d="M89.694,180.127v106.989c0,5.458,4.424,9.884,9.883,9.884h97.848c5.457,0,9.883-4.426,9.883-9.884V180.127H89.694z
		 M164.808,261.419h-32.615c-3.82,0-6.918-3.097-6.918-6.918c0-3.821,3.098-6.919,6.918-6.919h32.615c3.822,0,6.92,3.098,6.92,6.919
		C171.727,258.322,168.63,261.419,164.808,261.419z"/>
	<path d="M81.097,166.29h134.807c4.412-0.99,7.711-4.925,7.711-9.636V75.115c0-5.459-4.424-9.884-9.883-9.884h-87.631
		c3.043-1.686,5.104-4.925,5.104-8.648c0-5.458-4.426-9.884-9.883-9.884h-6.426V9.884c0-5.458-4.424-9.884-9.883-9.884
		c-5.457,0-9.883,4.426-9.883,9.884v36.815h-6.424c-5.459,0-9.885,4.426-9.885,9.884c0,3.724,2.061,6.963,5.104,8.648h-0.656
		c-5.457,0-9.883,4.425-9.883,9.884v81.539C73.386,161.365,76.687,165.3,81.097,166.29z M115.886,98.094h65.23
		c3.82,0,6.918,3.098,6.918,6.919c0,3.821-3.098,6.918-6.918,6.918h-65.23c-3.822,0-6.92-3.097-6.92-6.918
		C108.966,101.191,112.063,98.094,115.886,98.094z M115.886,120.332h65.23c3.82,0,6.918,3.098,6.918,6.918
		c0,3.821-3.098,6.919-6.918,6.919h-65.23c-3.822,0-6.92-3.098-6.92-6.919C108.966,123.43,112.063,120.332,115.886,120.332z"/>
</g>
<g>
</g>
<g>
</g>
<g>
</g>
<g>
</g>
<g>
</g>
<g>
</g>
<g>
</g>
<g>
</g>
<g>
</g>
<g>
</g>
<g>
</g>
<g>
</g>
<g>
</g>
<g>
</g>
<g>
</g>
</svg>
