<?xml version="1.0" encoding="iso-8859-1"?>
<!-- Generator: Adobe Illustrator 18.0.0, SVG Export Plug-In . SVG Version: 6.00 Build 0)  -->
<!DOCTYPE svg PUBLIC "-//W3C//DTD SVG 1.1//EN" "http://www.w3.org/Graphics/SVG/1.1/DTD/svg11.dtd">
<svg version="1.1" id="Capa_1" xmlns="http://www.w3.org/2000/svg" xmlns:xlink="http://www.w3.org/1999/xlink" x="0px" y="0px"
	 viewBox="0 0 297 297" style="enable-background:new 0 0 297 297;" xml:space="preserve">
<g>
	<path d="M95.28,69.861h10.641c4.556,0,8.249-3.693,8.249-8.249c0-4.557-3.693-8.25-8.249-8.25H95.28c-4.557,0-8.25,3.693-8.25,8.25
		C87.03,66.168,90.724,69.861,95.28,69.861z"/>
	<path d="M110.726,35.42c1.611,1.616,3.726,2.425,5.841,2.425c2.107,0,4.215-0.803,5.825-2.409
		c3.226-3.218,3.233-8.441,0.016-11.667l-5.321-5.335c-3.218-3.227-8.441-3.234-11.667-0.016c-3.226,3.218-3.232,8.441-0.015,11.667
		L110.726,35.42z"/>
	<path d="M180.436,37.845c2.115,0,4.23-0.809,5.841-2.425l5.321-5.335c3.218-3.226,3.211-8.449-0.015-11.667
		c-3.226-3.218-8.449-3.21-11.667,0.016l-5.321,5.335c-3.218,3.226-3.21,8.449,0.016,11.667
		C176.221,37.042,178.328,37.845,180.436,37.845z"/>
	<path d="M182.832,61.612c0,4.556,3.693,8.249,8.249,8.249h10.642c4.557,0,8.25-3.693,8.25-8.249c0-4.557-3.693-8.25-8.25-8.25
		h-10.642C186.525,53.362,182.832,57.056,182.832,61.612z"/>
	<path d="M148.501,27.173c4.556,0,8.25-3.694,8.25-8.25V8.25c0-4.556-3.694-8.25-8.25-8.25c-4.556,0-8.25,3.694-8.25,8.25v10.673
		C140.251,23.479,143.945,27.173,148.501,27.173z"/>
	<path d="M251.113,162.56H45.887c-21.553,0-39.187,17.634-39.187,39.186v10.289c0,21.554,17.634,39.186,39.187,39.186h205.227
		c21.553,0,39.187-17.633,39.187-39.186v-10.289C290.3,180.193,272.666,162.56,251.113,162.56z M99.001,217.1
		c0,5.64-4.588,10.228-10.227,10.228H45.159c-5.638,0-10.226-4.588-10.226-10.228v-18.807c0-5.639,4.588-10.226,10.226-10.226
		h43.615c5.639,0,10.227,4.587,10.227,10.226V217.1z M262.067,217.1c0,5.64-4.588,10.228-10.226,10.228h-43.615
		c-5.639,0-10.226-4.588-10.226-10.228v-18.807c0-5.639,4.587-10.226,10.226-10.226h43.615c5.638,0,10.226,4.587,10.226,10.226
		V217.1z"/>
	<rect x="212.438" y="202.505" width="35.191" height="10.386"/>
	<rect x="49.371" y="202.505" width="35.192" height="10.386"/>
	<path d="M220.779,110.537c-3.111-6.228-11.948-11.69-18.91-11.69H95.131c-6.962,0-15.799,5.463-18.91,11.69l-14.759,29.534
		c-2.213,4.428,0.026,8.051,4.977,8.051h164.125c4.95,0,7.189-3.623,4.977-8.051L220.779,110.537z"/>
	<path d="M31.84,263.78v5.377C31.84,284.51,44.331,297,59.684,297h18.111c15.353,0,27.844-12.49,27.844-27.843v-3.498H45.887
		C41.026,265.659,36.32,264.998,31.84,263.78z"/>
	<path d="M191.361,265.659v3.498c0,15.353,12.49,27.843,27.844,27.843h18.111c15.353,0,27.844-12.49,27.844-27.843v-5.377
		c-4.48,1.218-9.187,1.879-14.047,1.879H191.361z"/>
	<path d="M178.249,61.294c0-16.593-13.345-30.091-29.748-30.091c-16.402,0-29.746,13.498-29.746,30.091V75.41c0,4.95,4.05,9,9,9
		h41.494c4.95,0,9-4.05,9-9V61.294z"/>
</g>
<g>
</g>
<g>
</g>
<g>
</g>
<g>
</g>
<g>
</g>
<g>
</g>
<g>
</g>
<g>
</g>
<g>
</g>
<g>
</g>
<g>
</g>
<g>
</g>
<g>
</g>
<g>
</g>
<g>
</g>
</svg>
