<?xml version="1.0" encoding="iso-8859-1"?>
<!-- Generator: Adobe Illustrator 18.0.0, SVG Export Plug-In . SVG Version: 6.00 Build 0)  -->
<!DOCTYPE svg PUBLIC "-//W3C//DTD SVG 1.1//EN" "http://www.w3.org/Graphics/SVG/1.1/DTD/svg11.dtd">
<svg version="1.1" id="Capa_1" xmlns="http://www.w3.org/2000/svg" xmlns:xlink="http://www.w3.org/1999/xlink" x="0px" y="0px"
	 viewBox="0 0 297 297" style="enable-background:new 0 0 297 297;" xml:space="preserve">
<g>
	<path d="M66.01,234.833l-26.55-26.55c-2.351-2.352-4.171-5.096-5.403-8.088l-3.197,3.198
		c-10.874,10.874-10.874,28.568,0.006,39.451l0.591,0.588c5.254,5.255,12.258,8.149,19.722,8.149h0.001
		c7.464,0,14.468-2.895,19.722-8.147l3.197-3.197C71.106,239.005,68.362,237.185,66.01,234.833z"/>
	<path d="M104.345,143.4c-2.055-2.056-4.807-3.188-7.747-3.188c-2.941,0-5.693,1.132-7.75,3.188l-39.524,39.526
		c-2.057,2.056-3.189,4.807-3.189,7.747c0,2.941,1.133,5.693,3.188,7.747l26.55,26.551c2.055,2.055,4.807,3.188,7.747,3.188
		c2.94,0,5.693-1.133,7.749-3.188l39.525-39.526c2.057-2.056,3.188-4.807,3.188-7.747c0-2.94-1.132-5.693-3.188-7.747L104.345,143.4
		z"/>
	<path d="M134.526,201.538l-33.296,33.295c-2.352,2.351-5.097,4.172-8.089,5.403l48.618,48.616
		c5.254,5.255,12.258,8.147,19.722,8.147c7.465,0,14.469-2.893,19.729-8.153l0.588-0.59c5.256-5.254,8.149-12.258,8.149-19.723
		c0-7.464-2.893-14.468-8.148-19.722L134.526,201.538z"/>
	<path d="M266.154,8.749l-0.602-0.601C260.297,2.893,253.293,0,245.829,0c-7.465,0-14.469,2.893-19.723,8.148L106.118,128.135
		c2.992,1.232,5.737,3.053,8.088,5.404l26.551,26.55c2.35,2.352,4.171,5.096,5.402,8.087L266.149,48.188
		c5.254-5.254,8.146-12.258,8.146-19.722C274.295,21.001,271.402,13.997,266.154,8.749z"/>
</g>
<g>
</g>
<g>
</g>
<g>
</g>
<g>
</g>
<g>
</g>
<g>
</g>
<g>
</g>
<g>
</g>
<g>
</g>
<g>
</g>
<g>
</g>
<g>
</g>
<g>
</g>
<g>
</g>
<g>
</g>
</svg>
