<?xml version="1.0" encoding="iso-8859-1"?>
<!-- Generator: Adobe Illustrator 19.0.0, SVG Export Plug-In . SVG Version: 6.00 Build 0)  -->
<svg xmlns="http://www.w3.org/2000/svg" xmlns:xlink="http://www.w3.org/1999/xlink" version="1.1" id="Capa_1" x="0px" y="0px" viewBox="0 0 512 512" style="enable-background:new 0 0 512 512;" xml:space="preserve">
<g>
	<g>
		<rect x="91.25" y="392" width="28.755" height="120"/>
	</g>
</g>
<g>
	<g>
		<path d="M150,392v120h212V392H150z M315,467H195c-8.291,0-15-6.709-15-15c0-8.291,6.709-15,15-15h120c8.291,0,15,6.709,15,15    C330,460.291,323.291,467,315,467z"/>
	</g>
</g>
<g>
	<g>
		<rect x="91.25" y="242" width="28.755" height="120"/>
	</g>
</g>
<g>
	<g>
		<rect x="392" y="392" width="30" height="120"/>
	</g>
</g>
<g>
	<g>
		<path d="M482,392h-30v120h30c16.569,0,30-13.431,30-30v-60C512,405.431,498.569,392,482,392z"/>
	</g>
</g>
<g>
	<g>
		<path d="M30.05,392C13.454,392,0,405.454,0,422.05V482c0,16.569,13.431,30,30,30h31.245c0,0,0-6.799,0-17.16    c0-33.168,0-102.84,0-102.84H30.05z"/>
	</g>
</g>
<g>
	<g>
		<path d="M30,242c-16.569,0-30,13.431-30,30v60c0,16.569,13.481,30,30.05,30h31.195c0,0,0-69.672,0-102.84    c0-10.361,0-17.16,0-17.16H30z"/>
	</g>
</g>
<g>
	<g>
		<rect x="392" y="242" width="30" height="120"/>
	</g>
</g>
<g>
	<g>
		<path d="M482,242h-30c0,0,0,13.861,0,32.161c0,35.545,0,87.839,0,87.839h30c16.569,0,30-13.431,30-30v-60    C512,255.431,498.569,242,482,242z"/>
	</g>
</g>
<g>
	<g>
		<path d="M355.634,85.752c-20.446-24.17-54.911-31.287-84.741-19.594C275.015,45.568,293.214,30,315,30c8.291,0,15-6.709,15-15    s-6.709-15-15-15c-38.527,0-69.994,29.315-74.165,66.747c-30.212-12.664-65.62-5.629-86.47,19.005    c-17.417,20.552-24.39,50.332-19.16,81.709c2.556,15.313,7.229,29.614,13.273,42.539h213.043    c6.044-12.925,10.717-27.226,13.273-42.539C380.023,136.084,373.051,106.304,355.634,85.752z"/>
	</g>
</g>
<g>
	<g>
		<path d="M344.88,242H167.12H150v120h212V242H344.88z M315,317H195c-8.291,0-15-6.709-15-15c0-8.291,6.709-15,15-15h120    c8.291,0,15,6.709,15,15C330,310.291,323.291,317,315,317z"/>
	</g>
</g>
<g>
</g>
<g>
</g>
<g>
</g>
<g>
</g>
<g>
</g>
<g>
</g>
<g>
</g>
<g>
</g>
<g>
</g>
<g>
</g>
<g>
</g>
<g>
</g>
<g>
</g>
<g>
</g>
<g>
</g>
</svg>
