<?xml version="1.0" encoding="iso-8859-1"?>
<!-- Generator: Adobe Illustrator 19.0.0, SVG Export Plug-In . SVG Version: 6.00 Build 0)  -->
<svg xmlns="http://www.w3.org/2000/svg" xmlns:xlink="http://www.w3.org/1999/xlink" version="1.1" id="Capa_1" x="0px" y="0px" viewBox="0 0 512 512" style="enable-background:new 0 0 512 512;" xml:space="preserve">
<g>
	<g>
		<path d="M121,392H91c-33.091,0-60,26.909-60,60s26.909,60,60,60h375c8.291,0,15-6.709,15-15c0-12.924,0-93.52,0-105    C470.117,392,163.869,392,121,392z"/>
	</g>
</g>
<g>
	<g>
		<path d="M301,137.719v102.87c6.998,0.438,13.817,1.014,20.215,1.652c15.396,1.553,31.362,3.135,36.094-1.128    C359.652,238.989,361,233.115,361,225C361,201.156,330.081,164.793,301,137.719z"/>
	</g>
</g>
<g>
	<g>
		<path d="M436,0H121v362h360V45C481,20.186,460.814,0,436,0z M377.436,263.35c-9.053,8.203-20.479,10.503-33.56,10.503    c-7.983,0-16.582-0.85-25.635-1.758c-5.451-0.546-11.277-0.908-17.241-1.155V300h45c8.291,0,15,6.709,15,15    c0,8.291-6.709,15-15,15H226c-8.291,0-15-6.709-15-15c0-8.291,6.709-15,15-15h45v-29.061c-5.964,0.247-11.79,0.61-17.241,1.155    c-23.892,2.402-44.619,4.453-59.194-8.745C185.438,255.088,181,242.549,181,225c0-36.282,36.795-78.175,64.995-105H226    c-8.291,0-15-6.709-15-15s6.709-15,15-15c12.308,0,107.581,0,120,0c8.291,0,15,6.709,15,15s-6.709,15-15,15h-19.995    C354.205,146.825,391,188.718,391,225C391,242.549,386.562,255.088,377.436,263.35z"/>
	</g>
</g>
<g>
	<g>
		<path d="M211,225c0,8.115,1.348,13.989,3.691,16.113c4.746,4.277,20.683,2.695,36.094,1.128    c6.398-0.637,13.217-1.214,20.215-1.652v-102.87C241.919,164.793,211,201.156,211,225z"/>
	</g>
</g>
<g>
	<g>
		<path d="M31,75v310.408C46.959,371.016,67.866,362,91,362V1.518C56.809,8.487,31,38.784,31,75z"/>
	</g>
</g>
<g>
</g>
<g>
</g>
<g>
</g>
<g>
</g>
<g>
</g>
<g>
</g>
<g>
</g>
<g>
</g>
<g>
</g>
<g>
</g>
<g>
</g>
<g>
</g>
<g>
</g>
<g>
</g>
<g>
</g>
</svg>
