<?xml version="1.0" encoding="iso-8859-1"?>
<!-- Generator: Adobe Illustrator 19.0.0, SVG Export Plug-In . SVG Version: 6.00 Build 0)  -->
<svg xmlns="http://www.w3.org/2000/svg" xmlns:xlink="http://www.w3.org/1999/xlink" version="1.1" id="Capa_1" x="0px" y="0px" viewBox="0 0 512 512" style="enable-background:new 0 0 512 512;" xml:space="preserve">
<g>
	<g>
		<path d="M482,393.763V118.237c17.422-6.213,30-22.707,30-42.237c0-24.814-20.186-45-45-45H45C20.186,31,0,51.186,0,76    c0,19.53,12.578,36.024,30,42.237v275.526C12.578,399.976,0,416.47,0,436v30c0,8.291,6.709,15,15,15h482c8.291,0,15-6.709,15-15    v-30C512,416.47,499.422,399.976,482,393.763z M270,121h30v152.763c-5.605,1.998-10.666,5.034-15,8.941    c-4.334-3.907-9.395-6.943-15-8.941V121z M210,121h30v152.763c-5.605,1.998-10.666,5.034-15,8.941    c-4.334-3.907-9.395-6.943-15-8.941V121z M150,121h30v152.763c-5.605,1.998-10.666,5.034-15,8.941    c-4.334-3.907-9.395-6.943-15-8.941V121z M452,391H60V121h60v152.763C102.578,279.976,90,296.47,90,316c0,24.814,20.186,45,45,45    c11.567,0,22.02-4.508,30-11.704c7.98,7.196,18.433,11.704,30,11.704s22.02-4.508,30-11.704c7.98,7.196,18.433,11.704,30,11.704    s22.02-4.508,30-11.704c7.98,7.196,18.433,11.704,30,11.704c24.814,0,45-20.186,45-45c0-19.53-12.578-36.024-30-42.237V121h35.794    l46.599,157.405C400.137,286.452,392,300.273,392,316c0,24.814,20.186,45,45,45c5.284,0,10.285-1.082,15-2.763V391z M452,273.763    c-3.3-1.175-6.768-1.919-10.367-2.294L397.087,121H452V273.763z"/>
	</g>
</g>
<g>
</g>
<g>
</g>
<g>
</g>
<g>
</g>
<g>
</g>
<g>
</g>
<g>
</g>
<g>
</g>
<g>
</g>
<g>
</g>
<g>
</g>
<g>
</g>
<g>
</g>
<g>
</g>
<g>
</g>
</svg>
