<?xml version="1.0" encoding="iso-8859-1"?>
<!-- Generator: Adobe Illustrator 19.0.0, SVG Export Plug-In . SVG Version: 6.00 Build 0)  -->
<svg xmlns="http://www.w3.org/2000/svg" xmlns:xlink="http://www.w3.org/1999/xlink" version="1.1" id="Capa_1" x="0px" y="0px" viewBox="0 0 511.999 511.999" style="enable-background:new 0 0 511.999 511.999;" xml:space="preserve">
<g>
	<g>
		<path d="M296.793,109.16L57.448,348.504l31.813,31.82c5.874,5.874,15.381,5.845,21.226,0c5.859-5.859,15.352-5.859,21.211,0    c5.859,5.859,5.859,15.352,0,21.211c-5.845,5.859-5.845,15.366,0,21.226l31.818,31.815l239.346-239.347L296.793,109.16z"/>
	</g>
</g>
<g>
	<g>
		
			<rect x="366.634" y="55.374" transform="matrix(0.7071 -0.7071 0.7071 0.7071 19.5919 308.0446)" width="30.01" height="149.999"/>
	</g>
</g>
<g>
	<g>
		<path d="M498.812,55.582L456.39,13.161c-17.549-17.534-46.099-17.563-63.647,0l-32.31,32.359l106.069,106.069l32.31-32.359    C516.361,101.681,516.361,73.131,498.812,55.582z"/>
	</g>
</g>
<g>
	<g>
		<path d="M110.487,443.972c-8.22-8.22-12.226-18.896-12.746-29.681c-10.781-0.518-21.467-4.532-29.691-12.755l-27.761-27.768    L0.799,492.253c-1.802,5.391-0.396,11.338,3.618,15.352c2.857,2.856,6.695,4.394,10.606,4.394c1.582,0,3.193-0.249,4.746-0.776    l118.484-39.49L110.487,443.972z"/>
	</g>
</g>
<g>
</g>
<g>
</g>
<g>
</g>
<g>
</g>
<g>
</g>
<g>
</g>
<g>
</g>
<g>
</g>
<g>
</g>
<g>
</g>
<g>
</g>
<g>
</g>
<g>
</g>
<g>
</g>
<g>
</g>
</svg>
