<?xml version="1.0" encoding="iso-8859-1"?>
<!-- Generator: Adobe Illustrator 19.0.0, SVG Export Plug-In . SVG Version: 6.00 Build 0)  -->
<svg xmlns="http://www.w3.org/2000/svg" xmlns:xlink="http://www.w3.org/1999/xlink" version="1.1" id="Capa_1" x="0px" y="0px" viewBox="0 0 512 512" style="enable-background:new 0 0 512 512;" xml:space="preserve">
<g>
	<g>
		<path d="M376.816,55.606l-42.422-42.422C325.898,4.688,314.59,0,302.578,0H300v90h90v-2.578    C390,75.41,385.312,64.102,376.816,55.606z"/>
	</g>
</g>
<g>
	<g>
		<path d="M377,242c-74.443,0-135,60.557-135,135s60.557,135,135,135s135-60.557,135-135C512,302.785,449.142,242,377,242z M437,392    h-60c-8.291,0-15-6.709-15-15v-60c0-8.291,6.709-15,15-15c8.291,0,15,6.709,15,15v45h45c8.291,0,15,6.709,15,15    C452,385.291,445.291,392,437,392z"/>
	</g>
</g>
<g>
	<g>
		<rect x="90" y="90" width="90" height="92"/>
	</g>
</g>
<g>
	<g>
		<path d="M285,120c-8.291,0-15-6.709-15-15V0H45C20.186,0,0,20.186,0,45v422c0,24.814,20.186,45,45,45h235.43    C237.911,482.123,210,432.798,210,377c0,8.291-6.709,15-15,15H75c-8.291,0-15-6.709-15-15c0-8.291,6.709-15,15-15h120    c8.291,0,15,6.709,15,15c0-39.855,14.209-76.452,37.82-105H75c-8.291,0-15-6.709-15-15c0-8.291,6.709-15,15-15h180    c6.145,0,11.391,3.708,13.711,8.992C297.449,226.713,334.519,212,375,212c5.063,0,10.052,0.311,15,0.76V120H285z M75,422h120    c8.291,0,15,6.709,15,15c0,8.291-6.709,15-15,15H75c-8.291,0-15-6.709-15-15C60,428.709,66.709,422,75,422z M75,302h120    c8.291,0,15,6.709,15,15c0,8.291-6.709,15-15,15H75c-8.291,0-15-6.709-15-15C60,308.709,66.709,302,75,302z M210,197    c0,8.291-6.709,15-15,15H75c-8.291,0-15-6.709-15-15V75c0-8.291,6.709-15,15-15h120c8.291,0,15,6.709,15,15V197z M315,182h-60    c-8.291,0-15-6.709-15-15s6.709-15,15-15h60c8.291,0,15,6.709,15,15S323.291,182,315,182z"/>
	</g>
</g>
<g>
</g>
<g>
</g>
<g>
</g>
<g>
</g>
<g>
</g>
<g>
</g>
<g>
</g>
<g>
</g>
<g>
</g>
<g>
</g>
<g>
</g>
<g>
</g>
<g>
</g>
<g>
</g>
<g>
</g>
</svg>
