<?xml version="1.0" encoding="iso-8859-1"?>
<!-- Generator: Adobe Illustrator 19.0.0, SVG Export Plug-In . SVG Version: 6.00 Build 0)  -->
<svg xmlns="http://www.w3.org/2000/svg" xmlns:xlink="http://www.w3.org/1999/xlink" version="1.1" id="Capa_1" x="0px" y="0px" viewBox="0 0 512 512" style="enable-background:new 0 0 512 512;" xml:space="preserve">
<g>
	<g>
		<path d="M317,302h-15v60h30v-45C332,308.724,325.276,302,317,302z"/>
	</g>
</g>
<g>
	<g>
		<path d="M0,392v45c0,8.291,6.709,15,15,15h15v15c0,24.814,20.186,45,45,45s45-20.186,45-45v-15h272v15c0,24.814,20.186,45,45,45    c24.814,0,45-20.186,45-45v-15h15c8.291,0,15-6.709,15-15v-45H0z"/>
	</g>
</g>
<g>
	<g>
		<rect x="240" y="302" width="30" height="60"/>
	</g>
</g>
<g>
	<g>
		<path d="M195,302c-8.276,0-15,6.724-15,15v45h30v-60H195z"/>
	</g>
</g>
<g>
	<g>
		<path d="M452,227.383c0-6.84,0-147.349,0-152.383c0-41.353-33.647-75-75-75H135C93.648,0,60,33.648,60,75    c0,15.598,0,133.852,0,152.383C41.896,241.088,30,262.596,30,287v75h120v-45c0-24.814,20.186-45,45-45h122    c24.814,0,45,20.186,45,45v45h120v-75C482,262.596,470.104,241.088,452,227.383z M105,332c-8.284,0-15-6.716-15-15    c0-8.286,6.716-15,15-15s15,6.714,15,15C120,325.284,113.284,332,105,332z M240,212h-90V105c0-8.276,6.724-15,15-15h75V212z     M362,212h-92V90h77c8.276,0,15,6.724,15,15V212z M407,332c-8.284,0-15-6.716-15-15c0-8.285,6.716-15,15-15s15,6.714,15,15    C422,325.284,415.284,332,407,332z"/>
	</g>
</g>
<g>
	<g>
		<path d="M482,64.807c0,13.135,0,127.272,0,144.43c17.422-6.213,30-22.707,30-42.237v-60C512,87.477,499.417,71.015,482,64.807z"/>
	</g>
</g>
<g>
	<g>
		<path d="M0,107v60c0,19.53,12.578,36.024,30,42.237c0-13.872,0-127.556,0-144.43C12.583,71.015,0,87.477,0,107z"/>
	</g>
</g>
<g>
</g>
<g>
</g>
<g>
</g>
<g>
</g>
<g>
</g>
<g>
</g>
<g>
</g>
<g>
</g>
<g>
</g>
<g>
</g>
<g>
</g>
<g>
</g>
<g>
</g>
<g>
</g>
<g>
</g>
</svg>
