<?xml version="1.0" encoding="iso-8859-1"?>
<!-- Generator: Adobe Illustrator 19.0.0, SVG Export Plug-In . SVG Version: 6.00 Build 0)  -->
<svg xmlns="http://www.w3.org/2000/svg" xmlns:xlink="http://www.w3.org/1999/xlink" version="1.1" id="Capa_1" x="0px" y="0px" viewBox="0 0 512 512" style="enable-background:new 0 0 512 512;" xml:space="preserve">
<g>
	<g>
		<path d="M194.997,90c-8.276,0-15,6.724-15,15s6.724,15,15,15s15-6.724,15-15S203.273,90,194.997,90z"/>
	</g>
</g>
<g>
	<g>
		<path d="M374.997,392c-8.276,0-15,6.724-15,15s6.724,15,15,15s15-6.724,15-15S383.273,392,374.997,392z"/>
	</g>
</g>
<g>
	<g>
		<path d="M497,0h-62.003c-8.291,0-14.8,6.709-14.8,15v60c0,8.291,6.709,15,15,15h15v243.749    c-19.08-19.532-45.808-31.749-75.2-31.749s-55.92,12.217-75,31.749V105c0-57.891-47.109-105-105-105s-104.8,47.109-104.8,105v167    h-45.2c-7.148,0-13.301,5.054-14.707,12.056L20.701,332h168.593l-9.589-47.944c-1.406-7.002-7.559-12.056-14.707-12.056h-45    v-93.749c19.08,19.532,45.608,31.749,75,31.749c29.392,0,56.12-12.217,75.2-31.749V407c0,57.891,46.909,105,104.8,105    s105-47.109,105-105V90H497c8.291,0,15-6.709,15-15V15C512,6.709,505.291,0,497,0z M194.997,150c-24.814,0-45-20.186-45-45    c0-24.814,20.186-45,45-45c24.814,0,45,20.186,45,45C239.997,129.814,219.811,150,194.997,150z M374.997,452    c-24.814,0-45-20.186-45-45c0-24.814,20.186-45,45-45c24.814,0,45,20.186,45,45C419.997,431.814,399.811,452,374.997,452z"/>
	</g>
</g>
<g>
	<g>
		<path d="M209.704,434.056L195.294,362H14.7L0.29,434.056c-0.879,4.409,0.264,8.979,3.105,12.451    C6.252,449.979,10.5,452,14.997,452h75.2v30h-15c-8.291,0-15.2,6.709-15.2,15c0,8.291,6.709,15,15,15h60c8.291,0,15-6.709,15-15    c0-8.291-6.709-15-15-15h-15v-30h75c4.497,0,8.745-2.021,11.602-5.493C209.441,443.035,210.583,438.465,209.704,434.056z"/>
	</g>
</g>
<g>
</g>
<g>
</g>
<g>
</g>
<g>
</g>
<g>
</g>
<g>
</g>
<g>
</g>
<g>
</g>
<g>
</g>
<g>
</g>
<g>
</g>
<g>
</g>
<g>
</g>
<g>
</g>
<g>
</g>
</svg>
