<?xml version="1.0" encoding="iso-8859-1"?>
<!-- Generator: Adobe Illustrator 19.0.0, SVG Export Plug-In . SVG Version: 6.00 Build 0)  -->
<svg xmlns="http://www.w3.org/2000/svg" xmlns:xlink="http://www.w3.org/1999/xlink" version="1.1" id="Capa_1" x="0px" y="0px" viewBox="0 0 512 512" style="enable-background:new 0 0 512 512;" xml:space="preserve">
<g>
	<g>
		<path d="M497,332h-15V90h15c8.291,0,15-6.709,15-15s-6.709-15-15-15h-30H328.482C321.513,25.809,291.216,0,255,0    s-66.513,25.809-73.482,60H45H15C6.709,60,0,66.709,0,75s6.709,15,15,15h15v242H15c-8.291,0-15,6.709-15,15    c0,8.291,6.709,15,15,15c8.928,0,70.956,0,78.162,0L31.479,490.511c-3.589,7.471-0.439,16.421,7.031,20.01    c2.095,1.011,4.307,1.479,6.475,1.479c5.596,0,10.957-3.135,13.535-8.511L83.234,452h343.531l24.714,51.489    c2.578,5.376,7.939,8.511,13.535,8.511c2.168,0,4.38-0.469,6.475-1.479c7.471-3.589,10.62-12.539,7.031-20.01L416.838,362    c15.348,0,64.87,0,80.162,0c8.291,0,15-6.709,15-15C512,338.709,505.291,332,497,332z M240,422H97.634l28.799-60H240V422z     M208.931,292.566C206.646,298.279,201.123,302,195,302c-0.146,0-0.293,0-0.439,0c-6.299-0.19-11.807-4.292-13.784-10.254    L154.189,212H135c-8.291,0-15-6.709-15-15s6.709-15,15-15h30c6.46,0,12.187,4.131,14.224,10.254l17.051,51.152l44.795-111.973    c2.284-5.698,7.792-9.433,13.93-9.433h120c8.291,0,15,6.709,15,15s-6.709,15-15,15H265.151L208.931,292.566z M272.519,205.32    c-4.6-6.899-2.739-16.201,4.16-20.801c6.899-4.6,16.216-2.754,20.801,4.16l17.52,26.28l17.52-26.279    c4.556-6.914,13.857-8.76,20.801-4.16c6.899,4.6,8.76,13.901,4.16,20.801L333.027,242l24.453,36.68    c4.6,6.899,2.739,16.201-4.16,20.801c-2.563,1.699-5.449,2.52-8.306,2.52c-4.849,0-9.609-2.344-12.495-6.68L315,269.041    l-17.52,26.279c-2.886,4.336-7.646,6.68-12.495,6.68c-2.856,0-5.742-0.82-8.306-2.52c-6.899-4.6-8.76-13.901-4.16-20.801    L296.973,242L272.519,205.32z M270,422v-60h113.568l28.799,60H270z"/>
	</g>
</g>
<g>
</g>
<g>
</g>
<g>
</g>
<g>
</g>
<g>
</g>
<g>
</g>
<g>
</g>
<g>
</g>
<g>
</g>
<g>
</g>
<g>
</g>
<g>
</g>
<g>
</g>
<g>
</g>
<g>
</g>
</svg>
