<?xml version="1.0" encoding="iso-8859-1"?>
<!-- Generator: Adobe Illustrator 19.0.0, SVG Export Plug-In . SVG Version: 6.00 Build 0)  -->
<svg xmlns="http://www.w3.org/2000/svg" xmlns:xlink="http://www.w3.org/1999/xlink" version="1.1" id="Capa_1" x="0px" y="0px" viewBox="0 0 512 512" style="enable-background:new 0 0 512 512;" xml:space="preserve">
<g>
	<g>
		<path d="M255,327.955c-9.102,15.329-21.872,28.011-37.251,37.037L255,403.231l39.258-38.236    C278.875,355.968,264.104,343.286,255,327.955z"/>
	</g>
</g>
<g>
	<g>
		<path d="M347,259.735c-8.276,0-15,6.724-15,15s6.724,15,15,15s15-6.724,15-15S355.276,259.735,347,259.735z"/>
	</g>
</g>
<g>
	<g>
		<path d="M165,259.735c-8.276,0-15,6.724-15,15s6.724,15,15,15s15-6.724,15-15S173.276,259.735,165,259.735z"/>
	</g>
</g>
<g>
	<g>
		<path d="M347,199.735c-41.353,0-75,33.647-75,75c0,41.353,33.647,75,75,75c41.353,0,75-33.647,75-75    C422,233.382,388.353,199.735,347,199.735z M347,319.735c-24.814,0-45-20.186-45-45c0-24.814,20.186-45,45-45    c24.814,0,45,20.186,45,45S371.814,319.735,347,319.735z"/>
	</g>
</g>
<g>
	<g>
		<path d="M165,199.735c-41.353,0-75,33.647-75,75s33.647,75,75,75c41.353,0,75-33.647,75-75    C240,233.382,206.353,199.735,165,199.735z M165,319.735c-24.814,0-45-20.186-45-45c0-24.814,20.186-45,45-45    c24.814,0,45,20.186,45,45C210,299.549,189.814,319.735,165,319.735z"/>
	</g>
</g>
<g>
	<g>
		<path d="M502.327,206.276c-16.921,13.588-37.918,22.066-61.024,23.023c6.685,13.79,10.697,29.103,10.697,45.436    c0,57.9-47.1,105-105,105c-7.8,0-15.3-0.901-22.8-2.701l-58.4,58.2c-2.999,3.001-6.899,4.501-10.8,4.501    c-3.901,0-7.8-1.5-10.8-4.501l-56.4-58.2c-7.5,1.8-15,2.701-22.8,2.701c-57.9,0-105-47.1-105-105    c0-16.333,4.012-31.646,10.697-45.436c-23.106-0.958-44.103-9.435-61.024-23.024C3.494,228.415,0,251.254,0,274.735    c0,132.48,104.854,225,255,225s257-92.52,257-225C512,251.254,508.506,228.415,502.327,206.276z"/>
	</g>
</g>
<g>
	<g>
		<path d="M498.8,12.834c-13.801-2.999-19.2,7.8-30.601,31.501c-7.5,16.199-30.899,65.4-44.399,65.4H317    c-24.6,0-48.199,11.999-62,30.599c-13.801-18.6-35.4-30.599-60-30.599H90c-13.5,0-37.5-48.9-45.601-65.101    c-11.699-24-17.1-35.099-31.199-31.8C4.501,14.934,0,22.134,0,34.735v90c0,41.4,33.6,75,75,75h16.8c18.9-18.6,44.7-30,73.2-30    c19.162,0,38.099,5.767,53.101,15h0.3c12.725,7.271,28.62,22.082,36.599,36.899c8.354-15.514,23.387-27.855,38.599-36.899h0.3    c14.991-9.227,33.926-15,53.101-15c28.5,0,54.3,11.4,73.2,30H437c41.4,0,75-33.6,75-75v-90    C512,22.134,507.499,14.934,498.8,12.834z"/>
	</g>
</g>
<g>
	<g>
		<path d="M255,49.735c-52.484,0-110.288,0.449-157.15,28.661c0.284,0.379,0.699,1.014,0.954,1.339H195    c21.885,0,42.642,6.709,60,18.984c17.358-12.275,40.115-18.984,62-18.984h97.749c0.165-0.218,0.434-0.648,0.61-0.888    C372.699,52.588,317.465,49.735,255,49.735z"/>
	</g>
</g>
<g>
</g>
<g>
</g>
<g>
</g>
<g>
</g>
<g>
</g>
<g>
</g>
<g>
</g>
<g>
</g>
<g>
</g>
<g>
</g>
<g>
</g>
<g>
</g>
<g>
</g>
<g>
</g>
<g>
</g>
</svg>
