<?xml version="1.0" encoding="iso-8859-1"?>
<!-- Generator: Adobe Illustrator 19.0.0, SVG Export Plug-In . SVG Version: 6.00 Build 0)  -->
<svg xmlns="http://www.w3.org/2000/svg" xmlns:xlink="http://www.w3.org/1999/xlink" version="1.1" id="Capa_1" x="0px" y="0px" viewBox="0 0 512 512" style="enable-background:new 0 0 512 512;" xml:space="preserve">
<g>
	<g>
		<path d="M467,0H45C20.303,0,0.19,19.995,0,44.634c0,0.073,0,0.146,0,0.205V120h512V45C512,20.186,491.814,0,467,0z M315,90    c-8.284,0-15-6.716-15-15c0-8.286,6.716-15,15-15s15,6.714,15,15C330,83.284,323.284,90,315,90z M377,90c-8.284,0-15-6.716-15-15    c0-8.286,6.716-15,15-15s15,6.714,15,15C392,83.284,385.284,90,377,90z M437,90c-8.284,0-15-6.716-15-15c0-8.286,6.716-15,15-15    s15,6.714,15,15C452,83.284,445.284,90,437,90z"/>
	</g>
</g>
<g>
	<g>
		<polygon points="150,281.272 150,352.728 221.455,317   "/>
	</g>
</g>
<g>
	<g>
		<path d="M90,212v210h210V212H90z M261.709,330.418l-120,60C139.585,391.473,137.3,392,135,392c-2.739,0-5.479-0.747-7.881-2.241    C122.695,387.02,120,382.2,120,377V257c0-5.2,2.695-10.02,7.119-12.759c4.409-2.754,9.932-2.974,14.59-0.659l120,60    C266.792,306.131,270,311.316,270,317C270,322.684,266.792,327.869,261.709,330.418z"/>
	</g>
</g>
<g>
	<g>
		<path d="M0,152v315c0,24.609,19.863,44.678,44.414,45c0.117,0,0.22,0,0.337,0H467c24.814,0,45-20.186,45-44.941V152H0z M330,437    c0,8.291-6.709,15-15,15H75c-8.291,0-15-6.709-15-15V197c0-8.291,6.709-15,15-15h240c8.291,0,15,6.709,15,15V437z M437,422h-60    c-8.291,0-15-6.709-15-15c0-8.291,6.709-15,15-15h60c8.291,0,15,6.709,15,15C452,415.291,445.291,422,437,422z M437,332h-60    c-8.291,0-15-6.709-15-15c0-8.291,6.709-15,15-15h60c8.291,0,15,6.709,15,15C452,325.291,445.291,332,437,332z M437,242h-60    c-8.291,0-15-6.709-15-15s6.709-15,15-15h60c8.291,0,15,6.709,15,15S445.291,242,437,242z"/>
	</g>
</g>
<g>
</g>
<g>
</g>
<g>
</g>
<g>
</g>
<g>
</g>
<g>
</g>
<g>
</g>
<g>
</g>
<g>
</g>
<g>
</g>
<g>
</g>
<g>
</g>
<g>
</g>
<g>
</g>
<g>
</g>
</svg>
