<?xml version="1.0" encoding="iso-8859-1"?>
<!-- Generator: Adobe Illustrator 19.0.0, SVG Export Plug-In . SVG Version: 6.00 Build 0)  -->
<svg xmlns="http://www.w3.org/2000/svg" xmlns:xlink="http://www.w3.org/1999/xlink" version="1.1" id="Capa_1" x="0px" y="0px" viewBox="0 0 512 512" style="enable-background:new 0 0 512 512;" xml:space="preserve">
<g>
	<g>
		<path d="M0,181v75c0,24.814,20.186,45,45,45h15v-75c0-8.291,6.709-15,15-15s15,6.709,15,15v75h30v-75c0-8.291,6.709-15,15-15    s15,6.709,15,15v75h29.991H180v-75c0-8.291,6.709-15,15-15s15,6.709,15,15v75h30v-75c0-8.291,6.709-15,15-15s15,6.709,15,15v75h30    v-75c0-8.291,6.709-15,15-15c8.291,0,15,6.709,15,15v75h0.009H362v-75c0-8.291,6.709-15,15-15c8.291,0,15,6.709,15,15v75h30v-75    c0-8.291,6.709-15,15-15c8.291,0,15,6.709,15,15v75h15c24.814,0,45-20.186,45-45v-75H0z"/>
	</g>
</g>
<g>
	<g>
		<path d="M467,31H45C20.186,31,0,51.186,0,76v75h512V76C512,51.186,491.814,31,467,31z M135,121H75c-8.291,0-15-6.709-15-15    s6.709-15,15-15h60c8.291,0,15,6.709,15,15S143.291,121,135,121z M195,121c-8.284,0-15-6.716-15-15c0-8.286,6.716-15,15-15    s15,6.714,15,15C210,114.284,203.284,121,195,121z M270,121h-30V91h30V121z M315,121c-8.284,0-15-6.716-15-15    c0-8.286,6.716-15,15-15s15,6.714,15,15C330,114.284,323.284,121,315,121z M437,121h-60c-8.291,0-15-6.709-15-15s6.709-15,15-15    h60c8.291,0,15,6.709,15,15S445.291,121,437,121z"/>
	</g>
</g>
<g>
	<g>
		<path d="M383.994,454.003L279.99,376l60-45h-49.98L255,357.257L219.99,331h-49.98l60,45l-104.004,78.003    c-6.636,4.966-7.983,14.37-3.003,20.991c2.944,3.94,7.441,6.006,12.012,6.006c3.135,0,6.284-0.981,8.979-3.003L255,394.743    l111.006,83.254c2.695,2.021,5.845,3.003,8.979,3.003c4.57,0,9.067-2.065,12.012-6.006    C391.977,468.373,390.63,458.969,383.994,454.003z"/>
	</g>
</g>
<g>
</g>
<g>
</g>
<g>
</g>
<g>
</g>
<g>
</g>
<g>
</g>
<g>
</g>
<g>
</g>
<g>
</g>
<g>
</g>
<g>
</g>
<g>
</g>
<g>
</g>
<g>
</g>
<g>
</g>
</svg>
