<?xml version="1.0" encoding="iso-8859-1"?>
<!-- Generator: Adobe Illustrator 19.0.0, SVG Export Plug-In . SVG Version: 6.00 Build 0)  -->
<svg xmlns="http://www.w3.org/2000/svg" xmlns:xlink="http://www.w3.org/1999/xlink" version="1.1" id="Capa_1" x="0px" y="0px" viewBox="0 0 512 512" style="enable-background:new 0 0 512 512;" xml:space="preserve">
<g>
	<g>
		<path d="M167.843,280.848l-4.014,4.014c-1.217,1.201-2.213,2.607-2.96,4.145l-39.331,80.933    c-2.842,5.859-1.685,12.861,2.886,17.505c2.959,2.974,6.914,4.556,10.928,4.556c2.212,0,4.453-0.483,6.548-1.465l81.753-38.511    c1.597-0.747,3.062-1.772,4.307-3.032l4.014-4.014L167.843,280.848z"/>
	</g>
</g>
<g>
	<g>
		<path d="M390,392v14.648c0,1.655,0.264,3.296,0.791,4.849l24.441,73.323L274.9,344.488l-29.421,29.421    c-1.245,1.26-2.71,2.285-4.321,3.032l-42.204,19.876l24.479,24.479H90.703V288.567l24.911,24.911l20.469-42.123    c0.747-1.538,1.743-2.944,2.959-4.146l29.291-29.288L26.206,95.794c-4.365-4.38-10.942-5.698-16.729-3.325    C3.735,94.842,0,100.438,0,106.648v390C0,505.13,6.87,512,15.352,512h390c6.211,0,11.807-3.735,14.18-9.478    c0.498-1.198,0.187-2.457,0.368-3.702l0.892,2.677c2.08,6.27,7.954,10.503,14.561,10.503s12.48-4.233,14.561-10.503l30-90    c0.527-1.553,0.791-3.193,0.791-4.849V392H390z"/>
	</g>
</g>
<g>
	<g>
		<path d="M435.351,182c-45.595,0-84.135-29.279-98.772-69.89L189.551,259.139l64.133,64.133L390,186.964v174.833h90.703V171.329    C466.913,177.967,451.653,182,435.351,182z"/>
	</g>
</g>
<g>
	<g>
		<path d="M437.352,0c-41.162,0-74.648,33.486-74.648,74.648s33.486,74.648,74.648,74.648c20.495,0,39.073-8.317,52.575-21.735    c0.09-0.088,0.183-0.172,0.273-0.262C503.66,113.791,512,95.18,512,74.648C512,33.486,478.514,0,437.352,0z M437.352,89.648    c-8.284,0-15-6.716-15-15c0-8.286,6.716-15,15-15s15,6.714,15,15C452.352,82.932,445.635,89.648,437.352,89.648z"/>
	</g>
</g>
<g>
</g>
<g>
</g>
<g>
</g>
<g>
</g>
<g>
</g>
<g>
</g>
<g>
</g>
<g>
</g>
<g>
</g>
<g>
</g>
<g>
</g>
<g>
</g>
<g>
</g>
<g>
</g>
<g>
</g>
</svg>
