<?xml version="1.0" encoding="iso-8859-1"?>
<!-- Generator: Adobe Illustrator 19.0.0, SVG Export Plug-In . SVG Version: 6.00 Build 0)  -->
<svg xmlns="http://www.w3.org/2000/svg" xmlns:xlink="http://www.w3.org/1999/xlink" version="1.1" id="Capa_1" x="0px" y="0px" viewBox="0 0 512 512" style="enable-background:new 0 0 512 512;" xml:space="preserve">
<g>
	<g>
		<path d="M422,332c-12.299,0-22.8,7.5-27.599,17.999c-0.3,0.901-0.601,2.1-0.901,3.001c-0.899,2.699-1.5,5.999-1.5,9    c0,16.5,13.5,30,30,30s30-13.5,30-30S438.5,332,422,332z"/>
	</g>
</g>
<g>
	<g>
		<path d="M360.801,237.8C355.699,257.899,337.7,272,317,272h-77v38.099c8.699-5.1,21.2-8.099,32-8.099    c22.2,0,41.4,11.999,51.899,30c5.102,8.699,8.101,19.2,8.101,30h30c0-10.8,3-21.301,8.101-30C380.6,313.999,399.8,302,422,302    c21.3,0,40.2,11.4,51,28.2c5.1,8.399,8.399,18.299,9,29.099c17.401-6,30-22.8,30-42.299V45c0-24.901-20.099-45-45-45H45    C20.099,0,0,20.099,0,45v452c0,8.399,6.599,15,15,15h497v-30h-30c0-33.001-27.001-60-60-60c-32.999,0-60,26.999-60,60h-30    c0-33.001-27.001-60-60-60c-32.999,0-62,26.999-62,60h-30c0-33.001-27.001-60-60-60s-60,26.999-60,60H30    c0-33.9,18.9-63.3,46.5-78.9C66,392.3,60,377.899,60,362c0-33.001,27.001-60,60-60c32.999,0,60,26.999,60,60    c0,15.899-6,30.3-16.5,41.1c12.6,7.2,23.399,17.1,31.5,29.099c8.101-11.999,18.901-21.899,31.5-29.099    C216,392.3,210,377.899,210,362c0-3.001,0.3-5.7,0.6-8.401c-0.301-1.199-0.601-2.399-0.601-3.9V257c0-8.401,6.599-15,15-15h92    c6.9,0,12.9-4.801,14.7-11.4l30-120c1.8-8.101-2.999-16.2-11.1-18.3c-3.9-0.901-7.8-0.3-11.4,1.8c-3.299,2.1-5.7,5.4-6.899,9.3    L308,200.6c-1.499,6.599-7.5,11.4-14.401,11.4H135c-22.8,0-43.2-10.201-57.001-26.4C66.599,172.7,60,155.6,60,137    c0-41.4,33.6-77,75-77c41.4,0,75,35.6,75,77c0,16.8-5.7,32.699-15,45h86.901l21.298-85.8C306.2,84.5,313.7,74.599,323.9,68.301    c10.501-6,22.5-9.8,34.2-7.101c24,6.3,38.7,32.6,32.701,56.6L360.801,237.8z"/>
	</g>
</g>
<g>
	<g>
		<path d="M120,332c-16.5,0-30,13.5-30,30s13.5,30,30,30s30-13.5,30-30S136.5,332,120,332z"/>
	</g>
</g>
<g>
	<g>
		<path d="M300.5,353c-0.3-0.901-0.601-2.1-0.901-3.001C294.8,339.5,284.299,332,272,332c-16.5,0-32,13.5-32,30s15.5,30,32,30    s30-13.5,30-30C302,358.999,301.399,355.699,300.5,353z"/>
	</g>
</g>
<g>
	<g>
		<path d="M135,92c-24.901,0-45,20.099-45,45c0,24.899,20.099,45,45,45s45-20.101,45-45C180,112.099,159.901,92,135,92z"/>
	</g>
</g>
<g>
</g>
<g>
</g>
<g>
</g>
<g>
</g>
<g>
</g>
<g>
</g>
<g>
</g>
<g>
</g>
<g>
</g>
<g>
</g>
<g>
</g>
<g>
</g>
<g>
</g>
<g>
</g>
<g>
</g>
</svg>
