<?xml version="1.0" encoding="iso-8859-1"?>
<!-- Generator: Adobe Illustrator 19.0.0, SVG Export Plug-In . SVG Version: 6.00 Build 0)  -->
<svg xmlns="http://www.w3.org/2000/svg" xmlns:xlink="http://www.w3.org/1999/xlink" version="1.1" id="Capa_1" x="0px" y="0px" viewBox="0 0 512 512" style="enable-background:new 0 0 512 512;" xml:space="preserve">
<g>
	<g>
		<g>
			<path d="M150,452c0.147,0,0.293-0.008,0.439-0.009c0-0.009,0-0.018,0-0.026C150.291,451.965,150.148,452,150,452z"/>
			<path d="M195,212c24.814,0,45-20.186,45-45V15.709C227.454,6.063,212.029,0,195,0c-36.606,0-67.163,28.353-73.696,62.015     C72.29,61.224,30,101.946,30,152c0,11.616,2.241,23.086,6.548,33.75C13.184,208.309,0,239.114,0,272     c0,43.37,23.974,83.326,61.458,104.416C60.688,371.694,60,366.937,60,362c0-34.292,19.058-65.142,49.717-80.508     c7.471-3.706,16.436-0.718,20.142,6.694s0.703,16.421-6.694,20.142C102.7,318.567,90,339.134,90,362c0,33.091,26.909,60,60,60     c13.11,0,25.562-4.146,36.006-11.997c6.606-4.966,16.055-3.618,21.006,2.988c4.966,6.621,3.633,16.025-2.988,21.006     c-15.572,11.689-34.088,17.902-53.585,17.994c-0.008,12.131,3.154,23.962,10.225,34.169C171.885,502.347,190.327,512,210,512     c11.049,0,21.156-3.334,30-8.61V226.617C227.426,236.135,211.948,242,195,242c-8.291,0-15-6.709-15-15S186.709,212,195,212z"/>
		</g>
	</g>
</g>
<g>
	<g>
		<g>
			<path d="M361.561,451.965c0,0.009,0,0.018,0,0.026c0.147,0.001,0.292,0.009,0.439,0.009     C361.852,452,361.709,451.965,361.561,451.965z"/>
			<path d="M475.452,185.75C479.759,175.086,482,163.616,482,152c0-50.127-40.635-90.923-91.494-89.985     c-2.813-13.989-9.58-28.895-19.805-39.368C356.463,8.042,337.391,0,317,0c-17.029,0-32.454,6.063-45,15.709V167     c0,24.814,20.186,45,45,45c8.291,0,15,6.709,15,15s-6.709,15-15,15c-16.948,0-32.426-5.865-45-15.383V503.39     c8.844,5.275,18.951,8.61,30,8.61c19.673,0,38.115-9.653,49.336-25.84c7.07-10.207,10.232-22.038,10.225-34.169     c-19.468-0.092-37.969-6.29-53.526-17.965c-6.636-4.966-7.983-14.37-3.003-20.991c4.966-6.621,14.385-7.969,20.991-3.003     C336.468,417.854,348.904,422,362,422c33.091,0,60-26.909,60-60c0-22.163-12.144-42.437-31.699-52.91     c-7.295-3.926-10.049-13.008-6.138-20.317c3.911-7.28,13.037-10.02,20.317-6.138C433.792,298.353,452,328.763,452,362     c0,4.937-0.688,9.694-1.458,14.416C488.026,355.326,512,315.37,512,272C512,239.114,498.816,208.309,475.452,185.75z"/>
		</g>
	</g>
</g>
<g>
</g>
<g>
</g>
<g>
</g>
<g>
</g>
<g>
</g>
<g>
</g>
<g>
</g>
<g>
</g>
<g>
</g>
<g>
</g>
<g>
</g>
<g>
</g>
<g>
</g>
<g>
</g>
<g>
</g>
</svg>
