<?xml version="1.0" encoding="iso-8859-1"?>
<!-- Generator: Adobe Illustrator 19.0.0, SVG Export Plug-In . SVG Version: 6.00 Build 0)  -->
<svg xmlns="http://www.w3.org/2000/svg" xmlns:xlink="http://www.w3.org/1999/xlink" version="1.1" id="Capa_1" x="0px" y="0px" viewBox="0 0 512 512" style="enable-background:new 0 0 512 512;" xml:space="preserve">
<g>
	<g>
		<path d="M150,362v15c0,8.276,6.724,15,15,15h180c8.276,0,15-6.724,15-15v-15H150z"/>
	</g>
</g>
<g>
	<g>
		<path d="M390,362v15c0,24.814-20.186,45-45,45H240v15c0,8.291-6.709,15-15,15s-15-6.709-15-15v-15h-45c-24.814,0-45-20.186-45-45    v-15H60v105c0,24.895,21.078,45,45,45h300c23.249,0,45-19.535,45-45V362H390z"/>
	</g>
</g>
<g>
	<g>
		<path d="M435,272h-33.164c-21.387,0-39.521-15.117-44.106-36.753C347.534,187.01,304.321,152,255,152    c-49.321,0-92.534,35.01-102.729,83.247C147.686,256.883,129.551,272,108.164,272H75H60v60h390v-60H435z M308.027,237.605    l-42.422,42.422c-2.93,2.93-6.768,4.395-10.605,4.395c-3.837,0-7.676-1.465-10.605-4.395l-42.422-42.422    c-5.859-5.859-5.859-15.352,0-21.211l42.422-42.422c5.859-5.859,15.352-5.859,21.211,0l42.422,42.422    C313.887,222.254,313.887,231.746,308.027,237.605z"/>
	</g>
</g>
<g>
	<g>
		
			<rect x="240.003" y="212.012" transform="matrix(0.7071 -0.7071 0.7071 0.7071 -85.8322 246.8027)" width="29.997" height="29.997"/>
	</g>
</g>
<g>
	<g>
		<path d="M285,0h-60c-24.148,0-43.759,19.156-44.802,43.052C203.641,34.752,228.746,30,255,30c26.254,0,51.359,4.752,74.802,13.052    C328.759,19.156,309.148,0,285,0z"/>
	</g>
</g>
<g>
	<g>
		<path d="M255,62C153.589,62,68.995,140.378,61.143,242h47.021c7.075,0,13.14-5.332,14.751-12.964    C136.04,167.015,191.587,122,255,122s118.96,45.015,132.085,107.036c1.611,7.632,7.676,12.964,14.751,12.964h47.021    C441.012,140.471,356.5,62,255,62z"/>
	</g>
</g>
<g>
	<g>
		<path d="M0,422v15c0,19.523,12.583,35.985,30,42.193c0-6.829,0-50.135,0-57.193H0z"/>
	</g>
</g>
<g>
	<g>
		<path d="M0,317v75h30V274.763C12.578,280.976,0,297.47,0,317z"/>
	</g>
</g>
<g>
	<g>
		<path d="M482,422c0,7.058,0,50.364,0,57.193c17.417-6.208,30-22.67,30-42.193v-15H482z"/>
	</g>
</g>
<g>
	<g>
		<path d="M482,274.763V392h30v-75C512,297.47,499.422,280.976,482,274.763z"/>
	</g>
</g>
<g>
</g>
<g>
</g>
<g>
</g>
<g>
</g>
<g>
</g>
<g>
</g>
<g>
</g>
<g>
</g>
<g>
</g>
<g>
</g>
<g>
</g>
<g>
</g>
<g>
</g>
<g>
</g>
<g>
</g>
</svg>
