<?xml version="1.0" encoding="iso-8859-1"?>
<!-- Generator: Adobe Illustrator 19.0.0, SVG Export Plug-In . SVG Version: 6.00 Build 0)  -->
<svg xmlns="http://www.w3.org/2000/svg" xmlns:xlink="http://www.w3.org/1999/xlink" version="1.1" id="Capa_1" x="0px" y="0px" viewBox="0 0 512 512" style="enable-background:new 0 0 512 512;" xml:space="preserve">
<g>
	<g>
		<path d="M506.362,216.688l-5.889-4.717c-14.663-11.719-28.783-25.151-37.997-39.902l-23.188-37.104    c-16.025-25.635-47.651-41.558-82.529-41.558c-30.557,0-59.136,12.407-76.465,33.193l-10.298,12.358v-51.72    c17.422-6.213,30-22.707,30-42.237c0-24.814-20.186-45-45-45c-24.814,0-45,20.186-45,45c0,19.53,12.578,36.024,30,42.237v51.722    l-10.298-12.345c-17.329-20.801-45.908-33.208-76.465-33.208c-34.878,0-66.504,15.923-82.529,41.558l-23.188,37.104    c-9.214,14.751-21.328,28.184-35.977,39.902l-5.903,4.717c-4.98,3.984-6.899,10.664-4.79,16.685    c2.095,6.006,7.778,10.034,14.15,10.034h69.199l21.577-64.746c2.622-7.852,11.016-12.129,18.97-9.478    c7.852,2.607,12.1,11.104,9.478,18.97l-18.415,55.254h28.391l21.577-64.746c2.607-7.852,11.03-12.129,18.97-9.478    c7.852,2.607,12.1,11.104,9.478,18.97l-18.415,55.254h64.191V272h-105H92.759c6.213,17.422,22.707,30,42.237,30h105v30h-45    c-24.814,0-45,20.186-45,45c0,24.814,20.186,45,45,45h45v30h-15c-8.291,0-15,6.709-15,15c0,8.291,6.709,15,15,15h15v15    c0,8.291,6.709,15,15,15s15-6.709,15-15v-15h15c24.814,0,45-20.186,45-45c0-24.814-20.186-45-45-45h-15v-30h75    c24.814,0,45-20.186,45-45c0-24.814-20.186-45-45-45h-75v-28.594h64.195l-18.419-55.254c-2.622-7.866,1.626-16.362,9.478-18.97    c7.925-2.651,16.348,1.626,18.97,9.478l21.583,64.746h28.389l-18.419-55.254c-2.622-7.866,1.626-16.362,9.478-18.97    c7.954-2.651,16.362,1.626,18.97,9.478l21.583,64.746h71.2c6.372,0,12.056-4.028,14.15-10.034    C513.262,227.352,511.343,220.672,506.362,216.688z M239.996,392h-45c-8.276,0-15-6.724-15-15s6.724-15,15-15h45V392z     M284.996,422c8.276,0,15,6.724,15,15s-6.724,15-15,15h-15v-30H284.996z M344.996,302c8.276,0,15,6.724,15,15s-6.724,15-15,15h-75    v-30H344.996z"/>
	</g>
</g>
<g>
</g>
<g>
</g>
<g>
</g>
<g>
</g>
<g>
</g>
<g>
</g>
<g>
</g>
<g>
</g>
<g>
</g>
<g>
</g>
<g>
</g>
<g>
</g>
<g>
</g>
<g>
</g>
<g>
</g>
</svg>
