<?xml version="1.0" encoding="iso-8859-1"?>
<!-- Generator: Adobe Illustrator 19.0.0, SVG Export Plug-In . SVG Version: 6.00 Build 0)  -->
<svg xmlns="http://www.w3.org/2000/svg" xmlns:xlink="http://www.w3.org/1999/xlink" version="1.1" id="Capa_1" x="0px" y="0px" viewBox="0 0 512 512" style="enable-background:new 0 0 512 512;" xml:space="preserve">
<g>
	<g>
		<path d="M255,199.147c-24.814,0-45,20.186-45,45c0,24.814,20.186,45,45,45c24.814,0,45-20.186,45-45    C300,219.333,279.814,199.147,255,199.147z"/>
	</g>
</g>
<g>
	<g>
		<path d="M512,244.147c0-39.999-33.47-75.306-84.059-99.818c1.058-14.517,0.677-28.237-0.879-41.204    C440.685,95.381,450,80.907,450,64.147c0-24.814-20.186-45-45-45c-7.549,0-14.562,2.045-20.817,5.345    c-0.588-0.361-1.082-0.839-1.683-1.185c-34.638-19.962-80.945-10.356-127.469,21.194C208.495,12.914,162.164,3.292,127.5,23.307    C94.57,42.321,78.296,83.952,81.694,140.509c0.07,1.174,0.401,2.457,0.487,3.64c-3.246,1.562-6.213,3.29-9.309,4.946    c-7.69-6.129-17.296-9.948-27.872-9.948c-24.814,0-45,20.186-45,45c0,9.51,3.005,18.307,8.058,25.582    C2.734,220.86,0,232.388,0,244.147c0,40.036,31.527,75.368,82.196,99.884c-0.09,1.219-0.428,2.543-0.502,3.754    c-3.398,56.558,12.876,98.188,45.806,117.202c12.334,7.119,26.133,10.518,40.913,10.518c26.671-0.005,56.481-11.642,86.387-31.895    c5.092,3.472,10.186,6.617,15.297,9.569c-0.007,0.33-0.097,0.637-0.097,0.969c0,24.814,20.186,45,45,45    c17.697,0,32.889-10.356,40.234-25.247c9.712-1.536,18.995-4.146,27.266-8.914c32.93-19.014,49.204-60.645,45.806-117.202    c-0.073-1.21-0.412-2.534-0.502-3.754C478.473,319.515,512,284.183,512,244.147z M86.39,312.674    C51.553,294.12,30,270.082,30,244.147c0-5.592,1.344-11.168,3.389-16.71c3.728,1.003,7.571,1.71,11.611,1.71    c22.852,0,41.57-17.181,44.421-39.269c4.059,17.781,9.893,35.934,16.948,54.269C97.411,267.427,90.468,290.44,86.39,312.674z     M363.289,47.457C361.212,52.63,360,58.24,360,64.147c0,22.247,16.262,40.646,37.502,44.242    c0.807,7.467,1.124,15.278,0.906,23.476c-20.836-7.383-43.975-13.129-68.767-17.012c-15.813-19.596-32.413-36.808-49.283-51.193    C311.728,44.187,341.285,37.48,363.289,47.457z M124.14,284.479c4.521,9.081,8.776,18.203,13.951,27.168    c5.123,8.873,10.496,17.466,16.031,25.833c-13.931-3.365-27.103-7.344-39.24-11.938    C116.957,312.177,120.005,298.508,124.14,284.479z M114.877,162.701c12.288-4.697,25.514-8.701,39.397-12.048    c-5.548,8.386-10.984,16.992-16.183,25.994c-5.175,8.965-9.43,18.085-13.951,27.167C120,189.766,116.953,176.083,114.877,162.701z     M138.519,244.147c7.324-17.549,15.529-35.136,25.558-52.5c10.076-17.452,21.086-33.664,32.58-48.666    c18.836-2.432,38.353-3.834,58.343-3.834c19.993,0,39.39,1.408,57.995,3.82c11.622,15.201,22.835,31.196,32.928,48.68    c10.118,17.52,18.378,35.266,25.743,52.969c-7.262,17.38-15.83,34.863-25.743,52.031c-10.065,17.437-21.063,33.64-32.542,48.633    c-18.723,2.444-38.251,3.867-58.381,3.867c-20.112,0-39.624-1.423-58.33-3.862c-11.618-15.163-22.646-31.404-32.593-48.638    C154.048,279.283,145.843,261.696,138.519,244.147z M371.91,311.647c5.069-8.782,9.711-17.624,14.139-26.473    c4.032,13.79,7.029,27.224,9.069,40.367c-12.261,4.642-25.585,8.654-39.675,12.039C361.039,329.13,366.669,320.723,371.91,311.647    z M385.984,204.056c-4.555-9.162-8.853-18.365-14.075-27.409c-5.165-8.947-10.562-17.505-16.073-25.844    c14.149,3.417,27.53,7.46,39.827,12.142C393.561,176.173,390.153,189.997,385.984,204.056z M254.601,82.13    c10.338,8.324,20.451,17.617,30.355,27.979c-9.827-0.584-19.786-0.961-29.956-0.961c-10.232,0-20.352,0.381-30.379,1    C234.509,99.763,244.548,90.344,254.601,82.13z M142.5,49.294c21.026-12.178,52.546-6.736,87.068,14.458    c-16.897,14.41-33.519,31.672-49.356,51.308c-24.498,3.882-47.598,9.683-68.716,17.161    C110.328,91.604,121.381,61.487,142.5,49.294z M142.5,439.001c-21.063-12.16-32.111-42.151-31.011-82.604    c20.938,7.427,44.209,13.191,69.142,17.082c15.646,19.34,32.221,36.486,49.288,51.028    C196.481,445.336,164.936,451.948,142.5,439.001z M255.126,406.446c-10.338-8.39-20.612-17.783-30.621-28.303    c10.001,0.606,20.136,1.003,30.494,1.003c10.33,0.001,20.437-0.394,30.411-0.997C275.423,388.646,265.281,398.164,255.126,406.446    z M367.515,439.001c-2.84,1.633-5.967,2.763-9.146,3.787c-5.07-19.297-22.502-33.64-43.369-33.64    c-13.592,0-25.646,6.182-33.904,15.738c-0.328-0.2-0.654-0.368-0.981-0.571c16.848-14.341,33.387-31.289,49.188-50.828    c24.957-3.891,48.254-9.657,69.208-17.089C399.611,396.85,388.563,426.841,367.515,439.001z M423.609,312.674    c-4.041-22.04-10.9-44.843-19.739-67.914c9.148-23.597,15.8-46.805,19.896-69.06C458.513,194.245,482,218.251,482,244.147    C482,270.082,458.447,294.12,423.609,312.674z"/>
	</g>
</g>
<g>
</g>
<g>
</g>
<g>
</g>
<g>
</g>
<g>
</g>
<g>
</g>
<g>
</g>
<g>
</g>
<g>
</g>
<g>
</g>
<g>
</g>
<g>
</g>
<g>
</g>
<g>
</g>
<g>
</g>
</svg>
