<?xml version="1.0" encoding="iso-8859-1"?>
<!-- Generator: Adobe Illustrator 19.0.0, SVG Export Plug-In . SVG Version: 6.00 Build 0)  -->
<svg version="1.1" id="Layer_1" xmlns="http://www.w3.org/2000/svg" xmlns:xlink="http://www.w3.org/1999/xlink" x="0px" y="0px"
	 viewBox="0 0 512 512" style="enable-background:new 0 0 512 512;" xml:space="preserve">
<g>
	<g>
		<path d="M378.991,0c-2.255,0-265.495,0-290.504,0c-9.22,0-16.696,7.475-16.696,16.696c0,5.065,0,437.566,0,445.217
			c0,9.22,7.475,16.696,16.696,16.696h37.847v16.696c0,9.22,7.475,16.696,16.696,16.696s16.696-7.475,16.696-16.696v-16.696
			c33.345,0,190.806,0,219.266,0c33.755,0,61.217-27.462,61.217-61.217v-190.33v-89.043v-76.8C440.209,27.462,412.747,0,378.991,0z
			 M283.27,210.365H105.183v-55.652H283.27V210.365z M338.922,445.217h-22.261c0-5.343,0-407.079,0-411.826h22.261
			C338.922,42.825,338.922,433.026,338.922,445.217z M406.817,210.365h-34.504v-55.652h34.504V210.365z"/>
	</g>
</g>
<g>
</g>
<g>
</g>
<g>
</g>
<g>
</g>
<g>
</g>
<g>
</g>
<g>
</g>
<g>
</g>
<g>
</g>
<g>
</g>
<g>
</g>
<g>
</g>
<g>
</g>
<g>
</g>
<g>
</g>
</svg>
