<?xml version="1.0" encoding="iso-8859-1"?>
<!-- Generator: Adobe Illustrator 19.0.0, SVG Export Plug-In . SVG Version: 6.00 Build 0)  -->
<svg version="1.1" id="Layer_1" xmlns="http://www.w3.org/2000/svg" xmlns:xlink="http://www.w3.org/1999/xlink" x="0px" y="0px"
	 viewBox="0 0 512.001 512.001" style="enable-background:new 0 0 512.001 512.001;" xml:space="preserve">
<g>
	<g>
		<path d="M499.415,147.431l-45.786-68.681c-3.368-6.207-10.422-9.873-17.757-8.578L318.001,90.952
			c-8.449-18.584-24.996-32.735-45.122-37.887V42.22c0-9.321-7.557-16.877-16.877-16.877c-9.321,0-16.877,7.557-16.877,16.877
			v10.845c-27.79,7.114-48.769,31.378-50.989,60.797L72.765,134.2c-5.476,0.142-10.556,2.929-13.605,7.501l-46.576,69.864
			C5.347,213.468,0,220.037,0,227.871c0,40.364,32.839,73.203,73.203,73.203s73.203-32.839,73.203-73.203
			c0-7.834-5.347-14.403-12.584-16.305l-32.127-48.19l92.308-16.273c8.449,18.583,24.996,32.735,45.121,37.887V388.77h-78.761
			c-9.321,0-16.877,7.557-16.877,16.877v64.134c0,9.321,7.557,16.877,16.877,16.877h192.402c9.321,0,16.877-7.557,16.877-16.877
			v-64.134c0-9.321-7.557-16.877-16.877-16.877h-79.886v-203.78c27.79-7.114,48.769-31.377,50.989-60.797l79.101-13.945
			L378.18,147.43c-7.238,1.902-12.584,8.47-12.584,16.305c0,40.364,32.839,73.203,73.203,73.203s73.203-32.839,73.203-73.203
			C512,155.903,506.653,149.334,499.415,147.431z M53.534,210.994l19.669-29.504l19.669,29.504H53.534z M419.128,146.86
			l19.669-29.504l19.669,29.504H419.128z"/>
	</g>
</g>
<g>
</g>
<g>
</g>
<g>
</g>
<g>
</g>
<g>
</g>
<g>
</g>
<g>
</g>
<g>
</g>
<g>
</g>
<g>
</g>
<g>
</g>
<g>
</g>
<g>
</g>
<g>
</g>
<g>
</g>
</svg>
