<?xml version="1.0" encoding="iso-8859-1"?>
<!-- Generator: Adobe Illustrator 19.0.0, SVG Export Plug-In . SVG Version: 6.00 Build 0)  -->
<svg version="1.1" id="Layer_1" xmlns="http://www.w3.org/2000/svg" xmlns:xlink="http://www.w3.org/1999/xlink" x="0px" y="0px"
	 viewBox="0 0 512 512" style="enable-background:new 0 0 512 512;" xml:space="preserve">
<g>
	<g>
		<path d="M494.933,89.316H17.067C7.641,89.316,0,96.957,0,106.382v299.236c0,9.425,7.641,17.067,17.067,17.067h477.867
			c9.425,0,17.067-7.641,17.067-17.067V106.382C512,96.957,504.359,89.316,494.933,89.316z M108.089,248.604
			c-28.232,0-51.2-22.968-51.2-51.2c0-28.232,22.968-51.2,51.2-51.2s51.2,22.968,51.2,51.2
			C159.289,225.636,136.321,248.604,108.089,248.604z M426.667,353.28H285.582c-9.425,0-17.067-7.641-17.067-17.067
			s7.641-17.067,17.067-17.067h141.084c9.425,0,17.067,7.641,17.067,17.067S436.092,353.28,426.667,353.28z M426.667,296.391
			H285.582c-9.425,0-17.067-7.641-17.067-17.067s7.641-17.067,17.067-17.067h141.084c9.425,0,17.067,7.641,17.067,17.067
			S436.092,296.391,426.667,296.391z"/>
	</g>
</g>
<g>
</g>
<g>
</g>
<g>
</g>
<g>
</g>
<g>
</g>
<g>
</g>
<g>
</g>
<g>
</g>
<g>
</g>
<g>
</g>
<g>
</g>
<g>
</g>
<g>
</g>
<g>
</g>
<g>
</g>
</svg>
