<?xml version="1.0" encoding="iso-8859-1"?>
<!-- Generator: Adobe Illustrator 19.0.0, SVG Export Plug-In . SVG Version: 6.00 Build 0)  -->
<svg version="1.1" id="Layer_1" xmlns="http://www.w3.org/2000/svg" xmlns:xlink="http://www.w3.org/1999/xlink" x="0px" y="0px"
	 viewBox="0 0 512 512" style="enable-background:new 0 0 512 512;" xml:space="preserve">
<g>
	<g>
		<path d="M469.778,64.853h-59.04V53.476c0-9.425-7.641-17.067-17.067-17.067s-17.067,7.641-17.067,17.067v11.378H135.396V53.476
			c0-9.425-7.641-17.067-17.067-17.067c-9.425,0-17.067,7.641-17.067,17.067v11.378H42.223C18.904,64.853,0,83.758,0,107.076v39.697
			c0,3.141,2.547,5.689,5.689,5.689h500.622c3.141,0,5.689-2.547,5.689-5.689v-39.698C512,83.758,493.096,64.853,469.778,64.853z"/>
	</g>
</g>
<g>
	<g>
		<path d="M506.311,186.596H5.689c-3.141,0-5.689,2.547-5.689,5.689v241.085c0,23.319,18.904,42.222,42.222,42.222h427.555
			c23.319,0,42.223-18.903,42.223-42.222V192.284C512,189.143,509.453,186.596,506.311,186.596z M394.24,229.894
			c24.154,0,43.804,19.651,43.804,43.804c0,24.154-19.651,43.804-43.804,43.804c-24.154,0-43.804-19.651-43.804-43.804
			C350.436,249.544,370.086,229.894,394.24,229.894z M116.622,429.006c-24.154,0-43.804-19.651-43.804-43.804
			c0-24.154,19.651-43.804,43.804-43.804c24.154,0,43.804,19.651,43.804,43.804C160.427,409.354,140.776,429.006,116.622,429.006z
			 M116.622,317.503c-24.154,0-43.804-19.651-43.804-43.804c0-24.154,19.651-43.804,43.804-43.804
			c24.154,0,43.804,19.651,43.804,43.804C160.427,297.852,140.776,317.503,116.622,317.503z M255.431,429.006
			c-24.154,0-43.804-19.651-43.804-43.804c0-24.154,19.651-43.804,43.804-43.804c24.154,0,43.804,19.651,43.804,43.804
			C299.236,409.354,279.585,429.006,255.431,429.006z M255.431,317.503c-24.154,0-43.804-19.651-43.804-43.804
			c0-24.154,19.651-43.804,43.804-43.804c24.154,0,43.804,19.651,43.804,43.804C299.236,297.852,279.585,317.503,255.431,317.503z
			 M394.43,432.292c-25.948,0-47.058-21.11-47.058-47.057s21.11-47.057,47.058-47.057c25.947,0,47.057,21.11,47.057,47.057
			C441.487,411.183,420.377,432.292,394.43,432.292z"/>
	</g>
</g>
<g>
</g>
<g>
</g>
<g>
</g>
<g>
</g>
<g>
</g>
<g>
</g>
<g>
</g>
<g>
</g>
<g>
</g>
<g>
</g>
<g>
</g>
<g>
</g>
<g>
</g>
<g>
</g>
<g>
</g>
</svg>
