<?xml version="1.0" encoding="iso-8859-1"?>
<!-- Generator: Adobe Illustrator 19.0.0, SVG Export Plug-In . SVG Version: 6.00 Build 0)  -->
<svg version="1.1" id="Layer_1" xmlns="http://www.w3.org/2000/svg" xmlns:xlink="http://www.w3.org/1999/xlink" x="0px" y="0px"
	 viewBox="0 0 512 512" style="enable-background:new 0 0 512 512;" xml:space="preserve">
<g>
	<g>
		<path d="M256,0C114.511,0,0,114.496,0,256c0,141.491,114.496,256,256,256c141.491,0,256-114.496,256-256
			C512,114.509,397.504,0,256,0z M375.604,147.568L240.086,382.293c-6.872,11.902-24.075,11.881-30.934,0l-72.756-126.019
			c-4.933-8.542-2.006-19.466,6.537-24.397c8.542-4.932,19.466-2.006,24.397,6.537l57.288,99.227l120.051-207.934
			c4.932-8.542,15.854-11.471,24.397-6.537C377.611,128.102,380.537,139.026,375.604,147.568z"/>
	</g>
</g>
<g>
</g>
<g>
</g>
<g>
</g>
<g>
</g>
<g>
</g>
<g>
</g>
<g>
</g>
<g>
</g>
<g>
</g>
<g>
</g>
<g>
</g>
<g>
</g>
<g>
</g>
<g>
</g>
<g>
</g>
</svg>
