<?xml version="1.0" encoding="iso-8859-1"?>
<!-- Generator: Adobe Illustrator 19.0.0, SVG Export Plug-In . SVG Version: 6.00 Build 0)  -->
<svg version="1.1" id="Layer_1" xmlns="http://www.w3.org/2000/svg" xmlns:xlink="http://www.w3.org/1999/xlink" x="0px" y="0px"
	 viewBox="0 0 512 512" style="enable-background:new 0 0 512 512;" xml:space="preserve">
<g>
	<g>
		<path d="M255.405,236.949c-10.177,0-18.456,8.279-18.456,18.456s8.279,18.456,18.456,18.456s18.456-8.279,18.456-18.456
			S265.582,236.949,255.405,236.949z"/>
	</g>
</g>
<g>
	<g>
		<path d="M256,0C114.511,0,0,114.496,0,256c0,141.491,114.496,256,256,256c141.489,0,256-114.496,256-256
			C512,114.509,397.504,0,256,0z M255.405,309.581c-8.111,0-15.805-1.804-22.72-5.013l-42.64,42.641
			c-6.974,6.975-18.283,6.976-25.258,0c-6.975-6.974-6.975-18.283,0-25.258l42.229-42.229c-3.694-7.318-5.787-15.576-5.787-24.318
			c0-23.837,15.481-44.113,36.912-51.339v-92.14c0-9.864,7.997-17.86,17.86-17.86c9.864,0,17.86,7.997,17.86,17.86v92.543
			c20.813,7.565,35.721,27.541,35.721,50.936C309.581,285.278,285.278,309.581,255.405,309.581z"/>
	</g>
</g>
<g>
</g>
<g>
</g>
<g>
</g>
<g>
</g>
<g>
</g>
<g>
</g>
<g>
</g>
<g>
</g>
<g>
</g>
<g>
</g>
<g>
</g>
<g>
</g>
<g>
</g>
<g>
</g>
<g>
</g>
</svg>
