<?xml version="1.0" encoding="iso-8859-1"?>
<!-- Generator: Adobe Illustrator 19.0.0, SVG Export Plug-In . SVG Version: 6.00 Build 0)  -->
<svg version="1.1" id="Layer_1" xmlns="http://www.w3.org/2000/svg" xmlns:xlink="http://www.w3.org/1999/xlink" x="0px" y="0px"
	 viewBox="0 0 512 512" style="enable-background:new 0 0 512 512;" xml:space="preserve">
<g>
	<g>
		<path d="M256,63.716H17.067C7.641,63.716,0,71.357,0,80.782v64.853c0,3.141,2.547,5.689,5.689,5.689h261.689
			c3.141,0,5.689-2.547,5.689-5.689V80.782C273.067,71.357,265.425,63.716,256,63.716z"/>
	</g>
</g>
<g>
	<g>
		<path d="M261.092,438.316c-22.189-20.033-38.634-45.418-47.878-73.76c-0.759-2.327-2.943-3.889-5.392-3.889H5.689
			c-3.141,0-5.689,2.547-5.689,5.689v64.861c0,9.425,7.641,17.067,17.067,17.067H256C263.78,448.284,264.39,441.294,261.092,438.316
			z"/>
	</g>
</g>
<g>
	<g>
		<path d="M202.254,273.062H5.689c-3.141,0-5.689,2.547-5.689,5.689v42.094c0,3.141,2.547,5.689,5.689,5.689h193.669
			c3.264,0,5.841-2.74,5.671-6c-0.709-13.624,0.233-27.283,2.816-40.754C208.514,276.29,205.808,273.062,202.254,273.062z"/>
	</g>
</g>
<g>
	<g>
		<path d="M246.9,185.458H5.689c-3.141,0-5.689,2.547-5.689,5.689v42.093c0,3.141,2.547,5.689,5.689,5.689h211.917
			c2.178,0,4.144-1.254,5.115-3.204c7.408-14.868,16.919-28.546,28.305-40.674C254.442,191.411,251.893,185.458,246.9,185.458z"/>
	</g>
</g>
<g>
	<g>
		<path d="M375.087,328.516c-30.038-0.205-54.412-24.706-54.412-54.791c0-22.907,14.135-42.564,34.136-50.736
			c2.148-0.877,3.589-2.923,3.589-5.243v-34.851c0-3.556-3.222-6.217-6.724-5.599c-63.982,11.289-112.741,67.284-112.741,134.455
			s48.759,123.166,112.742,134.455c3.502,0.618,6.724-2.042,6.724-5.599v-35.413c0-2.343-1.454-4.407-3.623-5.294
			c-19.821-8.113-33.872-27.509-34.099-50.165c-0.092-9.249,7.075-17.213,16.316-17.608c9.752-0.416,17.791,7.354,17.814,17.008
			c0.068,27.864,41.783,27.123,41.315-0.316C395.931,337.523,386.384,328.594,375.087,328.516z"/>
	</g>
</g>
<g>
	<g>
		<path d="M399.258,177.296c-3.502-0.618-6.724,2.042-6.724,5.598v34.813c0,2.344,1.454,4.408,3.623,5.295
			c19.822,8.113,33.874,27.509,34.102,50.166c0.092,9.249-7.075,17.213-16.316,17.608c-9.752,0.416-17.791-7.353-17.814-17.008
			c-0.068-27.864-41.783-27.123-41.315,0.316c0.192,11.295,9.739,20.224,21.036,20.301c30.039,0.205,54.412,24.706,54.412,54.791
			c0,22.908-14.136,42.565-34.138,50.737c-2.148,0.877-3.589,2.923-3.589,5.243v35.451c0,3.556,3.222,6.217,6.724,5.599
			C463.241,434.917,512,378.922,512,311.751S463.241,188.585,399.258,177.296z"/>
	</g>
</g>
<g>
</g>
<g>
</g>
<g>
</g>
<g>
</g>
<g>
</g>
<g>
</g>
<g>
</g>
<g>
</g>
<g>
</g>
<g>
</g>
<g>
</g>
<g>
</g>
<g>
</g>
<g>
</g>
<g>
</g>
</svg>
