<?xml version="1.0" encoding="iso-8859-1"?>
<!-- Generator: Adobe Illustrator 19.0.0, SVG Export Plug-In . SVG Version: 6.00 Build 0)  -->
<svg version="1.1" id="Layer_1" xmlns="http://www.w3.org/2000/svg" xmlns:xlink="http://www.w3.org/1999/xlink" x="0px" y="0px"
	 viewBox="0 0 512 512" style="enable-background:new 0 0 512 512;" xml:space="preserve">
<g>
	<g>
		<path d="M467.225,0H111.323c-10.345,0-18.732,8.387-18.732,18.732v288.293c0,5.131,5.879,8.158,9.97,5.06
			c6.64-5.029,14.214-8.849,23.992-10.362c3.724-0.577,6.165-4.243,5.114-7.861c-16.44-56.582-1.631-118.974,41.491-162.095
			c64.097-64.097,166.062-63.256,229.453-2.717c68.094,65.028,67.929,174.028-1.165,238.771
			c-42.575,39.895-102.68,53.511-157.159,38.082c-3.625-1.028-7.348,1.287-7.921,5.011c-1.805,11.72-7.258,22.528-15.802,31.07
			l-59.358,59.358c-3.934,3.934-1.148,10.66,4.414,10.66h301.605c10.345,0,18.732-8.387,18.732-18.732V18.732
			C485.957,8.387,477.57,0,467.225,0z"/>
	</g>
</g>
<g>
	<g>
		<path d="M324.866,207.298h-69.932c-10.345,0-18.732,8.387-18.732,18.732c0,10.345,8.386,18.732,18.732,18.732h69.932
			c10.345,0,18.732-8.387,18.732-18.732C343.597,215.684,335.21,207.298,324.866,207.298z"/>
	</g>
</g>
<g>
	<g>
		<path d="M324.866,252.254h-69.932c-10.345,0-18.732,8.387-18.732,18.732c0,10.345,8.386,18.732,18.732,18.732h69.932
			c10.345,0,18.732-8.387,18.732-18.732C343.597,260.641,335.21,252.254,324.866,252.254z"/>
	</g>
</g>
<g>
	<g>
		<path d="M378.9,158.257c-49.538-49.538-129.711-49.542-179.252,0c-45.073,45.073-49.03,115.922-11.886,165.53l-29.45,29.45
			l-9.268-9.268c-7.313-7.314-19.18-7.31-26.49,0L31.53,434.991c-7.315,7.314-7.315,19.175,0,26.49l45.031,45.031
			c7.315,7.317,19.175,7.314,26.49,0l91.024-91.025c7.317-7.314,7.317-19.174,0-26.489l-9.272-9.272l29.567-29.567
			c48.505,35.683,118.789,33.091,164.531-12.65C428.321,288.089,428.321,207.677,378.9,158.257z M352.41,311.019
			c-34.895,34.895-91.373,34.9-126.272,0c-34.814-34.814-34.814-91.458,0-126.272c34.895-34.895,91.373-34.898,126.272,0
			C387.223,219.561,387.223,276.205,352.41,311.019z"/>
	</g>
</g>
<g>
</g>
<g>
</g>
<g>
</g>
<g>
</g>
<g>
</g>
<g>
</g>
<g>
</g>
<g>
</g>
<g>
</g>
<g>
</g>
<g>
</g>
<g>
</g>
<g>
</g>
<g>
</g>
<g>
</g>
</svg>
