<?xml version="1.0" encoding="iso-8859-1"?>
<!-- Generator: Adobe Illustrator 19.0.0, SVG Export Plug-In . SVG Version: 6.00 Build 0)  -->
<svg version="1.1" id="Layer_1" xmlns="http://www.w3.org/2000/svg" xmlns:xlink="http://www.w3.org/1999/xlink" x="0px" y="0px"
	 viewBox="0 0 512 512" style="enable-background:new 0 0 512 512;" xml:space="preserve">
<g>
	<g>
		<path d="M130.49,0H80.481c-9.864,0-17.86,7.997-17.86,17.86V494.14c0,9.864,7.997,17.86,17.86,17.86h50.009
			c9.864,0,17.86-7.997,17.86-17.86V17.86C148.351,7.997,140.354,0,130.49,0z"/>
	</g>
</g>
<g>
	<g>
		<path d="M444.128,243.371l-81.435-81.437l81.084-81.084C455.628,69,447.178,50.009,431.5,50.009H190.025
			c-3.288,0-5.953,2.666-5.953,5.953v211.944c0,3.288,2.666,5.953,5.953,5.953h240.976
			C447.761,273.86,455.215,254.458,444.128,243.371z"/>
	</g>
</g>
<g>
</g>
<g>
</g>
<g>
</g>
<g>
</g>
<g>
</g>
<g>
</g>
<g>
</g>
<g>
</g>
<g>
</g>
<g>
</g>
<g>
</g>
<g>
</g>
<g>
</g>
<g>
</g>
<g>
</g>
</svg>
