<?xml version="1.0" encoding="iso-8859-1"?>
<!-- Generator: Adobe Illustrator 19.0.0, SVG Export Plug-In . SVG Version: 6.00 Build 0)  -->
<svg version="1.1" id="Layer_1" xmlns="http://www.w3.org/2000/svg" xmlns:xlink="http://www.w3.org/1999/xlink" x="0px" y="0px"
	 viewBox="0 0 512 512" style="enable-background:new 0 0 512 512;" xml:space="preserve">
<g>
	<g>
		<path d="M493.5,335.235l-37.435-51.165v-56.141l37.435-51.164c4.18-5.713,4.592-13.354,1.053-19.482l-33.858-58.622
			c-3.542-6.13-10.362-9.595-17.4-8.825l-62.923,6.847l-48.64-28.087L306.199,10.66C303.345,4.181,296.933,0,289.853,0h-67.706
			c-7.08,0-13.492,4.181-16.348,10.66l-25.531,57.938l-48.641,28.086l-62.923-6.847c-7.032-0.769-13.862,2.697-17.4,8.825
			l-33.858,58.622c-3.541,6.128-3.127,13.771,1.053,19.482l37.435,51.164v56.141L18.5,335.235
			c-4.18,5.713-4.592,13.354-1.053,19.482l33.858,58.622c3.541,6.128,10.368,9.594,17.4,8.825l62.923-6.847l48.641,28.087
			l25.531,57.937c2.855,6.479,9.266,10.66,16.348,10.66h67.706c7.08,0,13.492-4.181,16.348-10.66l25.531-57.937l48.641-28.086
			l62.923,6.847c7.038,0.769,13.861-2.697,17.4-8.825l33.858-58.622C498.094,348.589,497.68,340.947,493.5,335.235z
			 M273.864,354.831v8.352c0,9.865-7.998,17.864-17.864,17.864s-17.864-7.998-17.864-17.864v-8.352
			c-24.227-7.611-41.85-30.275-41.85-56.982c0-9.866,7.998-17.864,17.864-17.864c9.866,0,17.864,7.998,17.864,17.864
			c0,31.699,47.971,31.697,47.971,0c0-13.225-10.76-23.986-23.986-23.986c-32.925,0-59.714-26.787-59.714-59.714
			c0-26.705,17.623-49.369,41.85-56.982v-8.352c0-9.865,7.998-17.864,17.864-17.864s17.864,7.998,17.864,17.864v8.352
			c24.227,7.611,41.85,30.275,41.85,56.982c0,9.866-7.998,17.864-17.864,17.864s-17.864-7.998-17.864-17.864
			c0-31.699-47.971-31.697-47.971,0c0,13.226,10.76,23.986,23.986,23.986c32.925,0,59.714,26.787,59.714,59.714
			C315.714,324.555,298.09,347.219,273.864,354.831z"/>
	</g>
</g>
<g>
</g>
<g>
</g>
<g>
</g>
<g>
</g>
<g>
</g>
<g>
</g>
<g>
</g>
<g>
</g>
<g>
</g>
<g>
</g>
<g>
</g>
<g>
</g>
<g>
</g>
<g>
</g>
<g>
</g>
</svg>
