<?xml version="1.0" encoding="iso-8859-1"?>
<!-- Generator: Adobe Illustrator 19.0.0, SVG Export Plug-In . SVG Version: 6.00 Build 0)  -->
<svg version="1.1" id="Layer_1" xmlns="http://www.w3.org/2000/svg" xmlns:xlink="http://www.w3.org/1999/xlink" x="0px" y="0px"
	 viewBox="0 0 512 512" style="enable-background:new 0 0 512 512;" xml:space="preserve">
<g>
	<g>
		<path d="M454.846,476.279h-38.102c0-12.433,0-109.633,0-122.772c0-18.176-9.901-34.902-25.855-43.658l-98.283-53.835
			c108.754-59.366,106.272-56.888,114.456-68.025c0.007-0.01,0.012-0.019,0.019-0.029c6.321-8.612,9.664-18.801,9.664-29.469V35.721
			h38.102c9.864,0,17.86-7.997,17.86-17.86c0-9.864-7.997-17.86-17.86-17.86C440.896,0,68.961,0,57.153,0
			c-9.864,0-17.86,7.997-17.86,17.86c0,9.864,7.997,17.86,17.86,17.86h36.912v122.772c0,10.671,3.346,20.866,9.673,29.482
			c0.004,0.005,0.006,0.01,0.01,0.014c8.153,11.095,5.602,8.6,114.455,68.023l-98.298,53.842
			c-15.939,8.752-25.839,25.477-25.839,43.653c0,13.117,0,110.335,0,122.772H57.153c-9.864,0-17.86,7.997-17.86,17.86
			c0,9.864,7.997,17.86,17.86,17.86c15.342,0,378.869,0,397.693,0c9.864,0,17.86-7.997,17.86-17.86
			C472.706,484.276,464.71,476.279,454.846,476.279z M129.825,159.554c-0.026-0.351-0.039-0.705-0.039-1.061V35.721h251.237v122.772
			c0,0.356-0.013,0.71-0.039,1.061H129.825z M381.023,381.023H129.785v-27.516c0-5.135,2.8-9.862,7.294-12.33l118.324-64.813
			l118.31,64.806c4.508,2.474,7.309,7.203,7.309,12.337V381.023z"/>
	</g>
</g>
<g>
</g>
<g>
</g>
<g>
</g>
<g>
</g>
<g>
</g>
<g>
</g>
<g>
</g>
<g>
</g>
<g>
</g>
<g>
</g>
<g>
</g>
<g>
</g>
<g>
</g>
<g>
</g>
<g>
</g>
</svg>
