<?xml version="1.0" encoding="iso-8859-1"?>
<!-- Generator: Adobe Illustrator 19.0.0, SVG Export Plug-In . SVG Version: 6.00 Build 0)  -->
<svg version="1.1" id="Layer_1" xmlns="http://www.w3.org/2000/svg" xmlns:xlink="http://www.w3.org/1999/xlink" x="0px" y="0px"
	 viewBox="0 0 512.001 512.001" style="enable-background:new 0 0 512.001 512.001;" xml:space="preserve">
<g>
	<g>
		<path d="M352.447,438.178H157.172c-3.288,0-5.953,2.666-5.953,5.953v24.615c0,23.889,19.365,43.254,43.254,43.254h120.673
			c23.889,0,43.254-19.366,43.254-43.254v-24.615C358.401,440.844,355.735,438.178,352.447,438.178z"/>
	</g>
</g>
<g>
	<g>
		<path d="M258.459,0.018C74.446-2.363-2.825,237.854,151.219,342.286v54.216c0,3.287,2.666,5.953,5.953,5.953h75.014
			c3.288,0,5.953-2.666,5.953-5.953v-34.99l-70.613-117.691c-5.075-8.459-2.331-19.43,6.126-24.505
			c8.459-5.075,19.429-2.333,24.505,6.126L256,321.852l57.843-96.407c5.075-8.459,16.047-11.201,24.505-6.126
			c8.459,5.075,11.201,16.046,6.126,24.505L273.86,361.512v34.99c0,3.287,2.666,5.953,5.953,5.953h72.632
			c3.288,0,5.953-2.666,5.953-5.953v-52.641C512.724,242.626,442.305,2.395,258.459,0.018z"/>
	</g>
</g>
<g>
</g>
<g>
</g>
<g>
</g>
<g>
</g>
<g>
</g>
<g>
</g>
<g>
</g>
<g>
</g>
<g>
</g>
<g>
</g>
<g>
</g>
<g>
</g>
<g>
</g>
<g>
</g>
<g>
</g>
</svg>
