<?xml version="1.0" encoding="iso-8859-1"?>
<!-- Generator: Adobe Illustrator 19.0.0, SVG Export Plug-In . SVG Version: 6.00 Build 0)  -->
<svg version="1.1" id="Layer_1" xmlns="http://www.w3.org/2000/svg" xmlns:xlink="http://www.w3.org/1999/xlink" x="0px" y="0px"
	 viewBox="0 0 512 512" style="enable-background:new 0 0 512 512;" xml:space="preserve">
<g>
	<g>
		<path d="M493.5,335.235l-37.435-51.165v-56.141l37.435-51.164c4.18-5.713,4.592-13.354,1.053-19.482l-33.858-58.622
			c-3.542-6.13-10.365-9.595-17.4-8.825l-62.923,6.847l-48.64-28.087L306.199,10.66C303.345,4.181,296.933,0,289.853,0h-67.706
			c-7.08,0-13.492,4.181-16.348,10.66l-25.531,57.938l-48.641,28.086l-62.923-6.847c-7.035-0.769-13.861,2.697-17.4,8.825
			l-33.858,58.622c-3.541,6.128-3.127,13.771,1.053,19.482l37.435,51.164v56.141L18.5,335.235
			c-4.18,5.713-4.592,13.354-1.053,19.482l33.858,58.622c3.542,6.128,10.366,9.594,17.4,8.825l62.923-6.847l48.641,28.087
			l25.531,57.937c2.855,6.479,9.266,10.66,16.348,10.66h67.706c7.08,0,13.492-4.181,16.348-10.66l25.531-57.937l48.641-28.086
			l62.923,6.847c7.036,0.769,13.862-2.697,17.4-8.825l33.858-58.622C498.094,348.589,497.68,340.947,493.5,335.235z M256,145.245
			c20.39,0,36.918,16.529,36.918,36.918S276.39,219.082,256,219.082s-36.918-16.529-36.918-36.918S235.61,145.245,256,145.245z
			 M334.6,341.746c0,9.866-7.998,17.864-17.864,17.864H194.073c-9.866,0-17.864-7.998-17.864-17.864v-61.23
			c0-23.368,19.012-42.38,42.38-42.38h73.632c23.368,0,42.38,19.012,42.38,42.38V341.746z"/>
	</g>
</g>
<g>
</g>
<g>
</g>
<g>
</g>
<g>
</g>
<g>
</g>
<g>
</g>
<g>
</g>
<g>
</g>
<g>
</g>
<g>
</g>
<g>
</g>
<g>
</g>
<g>
</g>
<g>
</g>
<g>
</g>
</svg>
