<?xml version="1.0" encoding="iso-8859-1"?>
<!-- Generator: Adobe Illustrator 19.0.0, SVG Export Plug-In . SVG Version: 6.00 Build 0)  -->
<svg version="1.1" id="Layer_1" xmlns="http://www.w3.org/2000/svg" xmlns:xlink="http://www.w3.org/1999/xlink" x="0px" y="0px"
	 viewBox="0 0 512 512" style="enable-background:new 0 0 512 512;" xml:space="preserve">
<g>
	<g>
		<path d="M429.16,52.801H82.848c-24.158,0-43.74,19.584-43.74,43.74v182.29c-0.001,3.153,2.555,5.708,5.707,5.708h42.247
			c3.161,0,5.72-2.562,5.708-5.723c-0.043-11.028-0.009-45.493-0.009-156.38c0-9.457,7.667-17.124,17.124-17.124h293.383
			c9.457,0,17.124,7.667,17.124,17.124c0,110.885,0.034,145.351-0.009,156.38c-0.013,3.161,2.547,5.723,5.708,5.723h41.106
			c3.152,0,5.708-2.556,5.708-5.708V96.542C472.902,72.384,453.318,52.801,429.16,52.801z"/>
	</g>
</g>
<g>
	<g>
		<path d="M296.097,170.383l-22.335,26.932l-22.335-26.932c-6.84-8.248-19.515-8.255-26.361,0l-35.515,42.825
			c-14.694,17.721,12.175,38.97,26.361,21.862l22.335-26.932l22.335,26.932c6.84,8.248,19.515,8.255,26.361,0l35.515-42.825
			C336.902,174.829,310.557,152.948,296.097,170.383z"/>
	</g>
</g>
<g>
	<g>
		<path d="M494.87,318.786c0,0-477.738,0-477.739,0c-11.142,0-19.311,10.489-16.612,21.277l21.497,85.991
			c4.88,19.515,22.337,33.145,42.453,33.145c5.476,0,377.586,0,383.062,0c20.116,0,37.572-13.63,42.453-33.145l21.497-85.991
			C514.181,329.275,506.012,318.786,494.87,318.786z M282.253,406.116c-7.61,0-44.892,0-52.505,0
			c-9.457,0-17.124-7.667-17.124-17.124s7.667-17.124,17.124-17.124c7.61,0,44.892,0,52.505,0c9.457,0,17.124,7.667,17.124,17.124
			S291.71,406.116,282.253,406.116z"/>
	</g>
</g>
<g>
</g>
<g>
</g>
<g>
</g>
<g>
</g>
<g>
</g>
<g>
</g>
<g>
</g>
<g>
</g>
<g>
</g>
<g>
</g>
<g>
</g>
<g>
</g>
<g>
</g>
<g>
</g>
<g>
</g>
</svg>
