<?xml version="1.0" encoding="iso-8859-1"?>
<!-- Generator: Adobe Illustrator 19.0.0, SVG Export Plug-In . SVG Version: 6.00 Build 0)  -->
<svg version="1.1" id="Layer_1" xmlns="http://www.w3.org/2000/svg" xmlns:xlink="http://www.w3.org/1999/xlink" x="0px" y="0px"
	 viewBox="0 0 512 512" style="enable-background:new 0 0 512 512;" xml:space="preserve">
<g>
	<g>
		<path d="M435.2,0H76.8c-9.864,0-17.86,7.997-17.86,17.86V494.14c0,9.864,7.997,17.86,17.86,17.86h358.4
			c9.864,0,17.86-7.997,17.86-17.86V17.86C453.06,7.997,445.064,0,435.2,0z M171.46,446.512c-26.262,0-47.628-21.366-47.628-47.628
			s21.366-47.628,47.628-47.628s47.628,21.366,47.628,47.628S197.722,446.512,171.46,446.512z M171.46,303.628
			c-26.262,0-47.628-21.366-47.628-47.628s21.366-47.628,47.628-47.628s47.628,21.366,47.628,47.628S197.722,303.628,171.46,303.628
			z M171.46,160.744c-26.262,0-47.628-21.366-47.628-47.628s21.366-47.628,47.628-47.628s47.628,21.366,47.628,47.628
			S197.722,160.744,171.46,160.744z M370.307,416.744h-89.302c-9.864,0-17.86-7.997-17.86-17.86c0-9.864,7.997-17.86,17.86-17.86
			h89.302c9.864,0,17.86,7.997,17.86,17.86C388.167,408.747,380.171,416.744,370.307,416.744z M370.307,273.86h-89.302
			c-9.864,0-17.86-7.997-17.86-17.86s7.997-17.86,17.86-17.86h89.302c9.864,0,17.86,7.997,17.86,17.86
			S380.171,273.86,370.307,273.86z M370.307,130.977h-89.302c-9.864,0-17.86-7.997-17.86-17.86c0-9.864,7.997-17.86,17.86-17.86
			h89.302c9.864,0,17.86,7.997,17.86,17.86C388.167,122.98,380.171,130.977,370.307,130.977z"/>
	</g>
</g>
<g>
</g>
<g>
</g>
<g>
</g>
<g>
</g>
<g>
</g>
<g>
</g>
<g>
</g>
<g>
</g>
<g>
</g>
<g>
</g>
<g>
</g>
<g>
</g>
<g>
</g>
<g>
</g>
<g>
</g>
</svg>
