<?xml version="1.0" encoding="iso-8859-1"?>
<!-- Generator: Adobe Illustrator 19.0.0, SVG Export Plug-In . SVG Version: 6.00 Build 0)  -->
<svg version="1.1" id="Layer_1" xmlns="http://www.w3.org/2000/svg" xmlns:xlink="http://www.w3.org/1999/xlink" x="0px" y="0px"
	 viewBox="0 0 512 512" style="enable-background:new 0 0 512 512;" xml:space="preserve">
<g>
	<g>
		<path d="M256,0c-59.09,0-107.163,48.073-107.163,107.163c0,59.09,48.073,107.163,107.163,107.163s107.163-48.073,107.163-107.163
			C363.163,48.073,315.09,0,256,0z"/>
	</g>
</g>
<g>
	<g>
		<path d="M345.302,267.907c-19.189,0-159.194,0-178.605,0c-42.676,0-77.395,34.72-77.395,77.395V494.14
			c0,9.864,7.997,17.86,17.86,17.86c13.081,0,284.621,0,297.674,0c9.864,0,17.86-7.997,17.86-17.86V345.302
			C422.698,302.627,387.978,267.907,345.302,267.907z M273.86,395.568V358.4c0-9.864-7.997-17.86-17.86-17.86
			c-9.864,0-17.86,7.997-17.86,17.86v37.166l-34.448-91.938h34.448v8.335c0,9.864,7.997,17.86,17.86,17.86
			c9.864,0,17.86-7.997,17.86-17.86v-8.335h34.449L273.86,395.568z"/>
	</g>
</g>
<g>
</g>
<g>
</g>
<g>
</g>
<g>
</g>
<g>
</g>
<g>
</g>
<g>
</g>
<g>
</g>
<g>
</g>
<g>
</g>
<g>
</g>
<g>
</g>
<g>
</g>
<g>
</g>
<g>
</g>
</svg>
