<?xml version="1.0" encoding="iso-8859-1"?>
<!-- Generator: Adobe Illustrator 19.0.0, SVG Export Plug-In . SVG Version: 6.00 Build 0)  -->
<svg version="1.1" id="Layer_1" xmlns="http://www.w3.org/2000/svg" xmlns:xlink="http://www.w3.org/1999/xlink" x="0px" y="0px"
	 viewBox="0 0 512 512" style="enable-background:new 0 0 512 512;" xml:space="preserve">
<g>
	<g>
		<path d="M256,0c-31.674,0-57.444,25.77-57.444,57.444s25.77,57.444,57.444,57.444s57.444-25.77,57.444-57.444S287.674,0,256,0z"/>
	</g>
</g>
<g>
	<g>
		<path d="M293.98,116.137h-77.21c-24.504,0-44.439,19.936-44.439,44.439v64.205c0,10.345,8.387,18.732,18.732,18.732h128.624
			c10.345,0,18.732-8.387,18.732-18.732v-64.205C338.419,136.072,318.484,116.137,293.98,116.137z"/>
	</g>
</g>
<g>
	<g>
		<path d="M452.059,427.219v-63.824c0-10.345-8.387-18.732-18.732-18.732H274.732v-52.449c0-10.345-8.387-18.732-18.732-18.732
			s-18.732,8.387-18.732,18.732v52.449H78.673c-10.345,0-18.732,8.387-18.732,18.732v63.824
			c-15.44,6.939-26.224,22.453-26.224,40.449c0,24.445,19.887,44.332,44.332,44.332s44.332-19.887,44.332-44.332
			c0-17.508-10.204-32.676-24.976-39.875v-45.667h139.863v45.667c-14.772,7.199-24.976,22.367-24.976,39.875
			c0,24.445,19.887,44.332,44.332,44.332s44.332-19.887,44.332-44.332c0-17.996-10.784-33.51-26.224-40.449v-45.092h139.863v45.667
			c-14.772,7.199-24.976,22.367-24.976,39.875c0,24.445,19.887,44.332,44.332,44.332s44.332-19.887,44.332-44.332
			C478.283,449.672,467.498,434.159,452.059,427.219z"/>
	</g>
</g>
<g>
</g>
<g>
</g>
<g>
</g>
<g>
</g>
<g>
</g>
<g>
</g>
<g>
</g>
<g>
</g>
<g>
</g>
<g>
</g>
<g>
</g>
<g>
</g>
<g>
</g>
<g>
</g>
<g>
</g>
</svg>
