<?xml version="1.0" encoding="iso-8859-1"?>
<!-- Generator: Adobe Illustrator 19.0.0, SVG Export Plug-In . SVG Version: 6.00 Build 0)  -->
<svg version="1.1" id="Layer_1" xmlns="http://www.w3.org/2000/svg" xmlns:xlink="http://www.w3.org/1999/xlink" x="0px" y="0px"
	 viewBox="0 0 512 512" style="enable-background:new 0 0 512 512;" xml:space="preserve">
<g>
	<g>
		<path d="M114.902,0C85.029,0,60.726,24.303,60.726,54.177s24.303,54.177,54.177,54.177s54.177-24.303,54.177-54.177
			S144.776,0,114.902,0z"/>
	</g>
</g>
<g>
	<g>
		<path d="M150.81,109.544H77.804c-23.206,0-42.083,18.877-42.083,42.083v60.317c0,9.864,7.997,17.86,17.86,17.86h121.451
			c9.864,0,17.86-7.997,17.86-17.86v-60.317C192.893,128.422,174.016,109.544,150.81,109.544z"/>
	</g>
</g>
<g>
	<g>
		<path d="M397.098,282.195c-29.873,0-54.177,24.303-54.177,54.177c0,29.873,24.303,54.177,54.177,54.177
			s54.177-24.303,54.177-54.177C451.274,306.499,426.971,282.195,397.098,282.195z"/>
	</g>
</g>
<g>
	<g>
		<path d="M434.196,391.74H361.19c-23.205,0-42.083,18.877-42.083,42.083v60.317c0,9.864,7.997,17.86,17.86,17.86h121.451
			c9.864,0,17.86-7.997,17.86-17.86v-60.317C476.279,410.617,457.402,391.74,434.196,391.74z"/>
	</g>
</g>
<g>
	<g>
		<path d="M412.155,225.529c-14.466-74.517-80.137-128.603-156.154-128.603c-9.864,0-17.86,7.997-17.86,17.86
			c0,9.864,7.997,17.86,17.86,17.86c58.949,0,109.874,41.926,121.087,99.689c1.656,8.535,9.133,14.461,17.513,14.461
			c1.129,0,2.274-0.107,3.424-0.332C407.709,244.586,414.035,235.212,412.155,225.529z"/>
	</g>
</g>
<g>
	<g>
		<path d="M255.999,379.353c-58.949,0-109.874-41.926-121.087-99.689c-1.879-9.684-11.258-16.013-20.936-14.13
			c-9.684,1.879-16.01,11.253-14.13,20.936C114.312,360.987,179.983,415.072,256,415.072c9.864,0,17.859-7.996,17.859-17.859
			C273.859,387.349,265.863,379.353,255.999,379.353z"/>
	</g>
</g>
<g>
</g>
<g>
</g>
<g>
</g>
<g>
</g>
<g>
</g>
<g>
</g>
<g>
</g>
<g>
</g>
<g>
</g>
<g>
</g>
<g>
</g>
<g>
</g>
<g>
</g>
<g>
</g>
<g>
</g>
</svg>
