<?xml version="1.0" encoding="iso-8859-1"?>
<!-- Generator: Adobe Illustrator 19.0.0, SVG Export Plug-In . SVG Version: 6.00 Build 0)  -->
<svg version="1.1" id="Layer_1" xmlns="http://www.w3.org/2000/svg" xmlns:xlink="http://www.w3.org/1999/xlink" x="0px" y="0px"
	 viewBox="0 0 512 512" style="enable-background:new 0 0 512 512;" xml:space="preserve">
<g>
	<g>
		<path d="M462.47,395.244l-125.057-72.203c-2.416-1.395-5.458-0.905-7.356,1.138c-40.1,43.177-108.046,43.15-148.12,0
			c-1.899-2.044-4.94-2.534-7.356-1.138L49.522,395.244c-3.049,1.761-3.911,5.768-1.863,8.63
			c102.218,142.884,314.145,143.32,416.674,0C466.382,401.011,465.519,397.004,462.47,395.244z"/>
	</g>
</g>
<g>
	<g>
		<path d="M280.356,0.826c-3.493-0.328-6.515,2.423-6.515,5.931v144.325c0,2.781,1.933,5.173,4.644,5.792
			c56.667,12.922,91.657,71.71,74.136,128.362c-0.823,2.662,0.278,5.537,2.692,6.932l125.062,72.204
			c3.043,1.757,6.939,0.508,8.4-2.688C561.582,202.403,455.285,17.245,280.356,0.826z"/>
	</g>
</g>
<g>
	<g>
		<path d="M231.638,0.825C56.641,17.251-49.556,202.471,23.221,361.684c1.461,3.195,5.357,4.444,8.4,2.688l125.061-72.205
			c2.414-1.393,3.515-4.268,2.692-6.932c-17.543-56.721,17.543-115.455,74.136-128.361c2.711-0.619,4.644-3.011,4.644-5.792V6.756
			C238.153,3.248,235.13,0.498,231.638,0.825z"/>
	</g>
</g>
<g>
</g>
<g>
</g>
<g>
</g>
<g>
</g>
<g>
</g>
<g>
</g>
<g>
</g>
<g>
</g>
<g>
</g>
<g>
</g>
<g>
</g>
<g>
</g>
<g>
</g>
<g>
</g>
<g>
</g>
</svg>
