<?xml version="1.0" encoding="iso-8859-1"?>
<!-- Generator: Adobe Illustrator 19.0.0, SVG Export Plug-In . SVG Version: 6.00 Build 0)  -->
<svg version="1.1" id="Layer_1" xmlns="http://www.w3.org/2000/svg" xmlns:xlink="http://www.w3.org/1999/xlink" x="0px" y="0px"
	 viewBox="0 0 512 512" style="enable-background:new 0 0 512 512;" xml:space="preserve">
<g>
	<g>
		<path d="M380.058,0H131.945c-14.358,0-21.829,15.01-14.926,26.057l20.366,32.585c1.038,1.66,2.857,2.668,4.814,2.668h227.602
			c1.957,0,3.776-1.008,4.814-2.668l20.365-32.585C401.872,15.034,394.443,0,380.058,0z"/>
	</g>
</g>
<g>
	<g>
		<path d="M353.644,95.372H159.494c-3.136,0-5.677,2.542-5.677,5.677v91.965c0,3.135,2.542,5.677,5.677,5.677h194.149
			c3.135,0,5.677-2.542,5.677-5.677v-91.965C359.321,97.914,356.778,95.372,353.644,95.372z"/>
	</g>
</g>
<g>
	<g>
		<path d="M394.982,268.005l-20.365-32.585c-1.038-1.66-2.857-2.668-4.814-2.668H142.199c-1.957,0-3.776,1.008-4.814,2.668
			l-20.366,32.585c-6.892,11.028,0.54,26.057,14.926,26.057h248.114C394.439,294.062,401.874,279.031,394.982,268.005z"/>
	</g>
</g>
<g>
	<g>
		<path d="M303.297,328.124h-94.59c-3.63,0-6.326,3.36-5.543,6.903l36.209,163.676c3.919,17.71,29.331,17.75,33.257,0
			l36.209-163.676C309.624,331.483,306.926,328.124,303.297,328.124z"/>
	</g>
</g>
<g>
</g>
<g>
</g>
<g>
</g>
<g>
</g>
<g>
</g>
<g>
</g>
<g>
</g>
<g>
</g>
<g>
</g>
<g>
</g>
<g>
</g>
<g>
</g>
<g>
</g>
<g>
</g>
<g>
</g>
</svg>
