<?xml version="1.0" encoding="iso-8859-1"?>
<!-- Generator: Adobe Illustrator 19.0.0, SVG Export Plug-In . SVG Version: 6.00 Build 0)  -->
<svg version="1.1" id="Layer_1" xmlns="http://www.w3.org/2000/svg" xmlns:xlink="http://www.w3.org/1999/xlink" x="0px" y="0px"
	 viewBox="0 0 512 512" style="enable-background:new 0 0 512 512;" xml:space="preserve">
<g>
	<g>
		<path d="M507.075,428.173l-50.576-87.6c-1.079-1.869-3.074-3.021-5.232-3.021H60.609c-2.158,0-4.153,1.152-5.232,3.021
			L5.161,427.551c-14.449,25.026,3.206,54.995,31.032,54.995h438.743C503.811,482.546,521.016,452.319,507.075,428.173z"/>
	</g>
</g>
<g>
	<g>
		<path d="M428.594,292.241l-55.808-96.663c-1.079-1.869-3.074-3.021-5.232-3.021H144.322c-2.158,0-4.153,1.151-5.232,3.021
			l-55.808,96.663c-2.325,4.027,0.581,9.062,5.232,9.062h334.848C428.013,301.303,430.919,296.269,428.594,292.241z"/>
	</g>
</g>
<g>
	<g>
		<path d="M344.882,147.247l-57.18-99.038c-14.438-25.007-49.216-24.792-63.156-0.645l-57.552,99.683
			c-2.325,4.027,0.581,9.062,5.232,9.062H339.65C344.301,156.31,347.207,151.275,344.882,147.247z"/>
	</g>
</g>
<g>
</g>
<g>
</g>
<g>
</g>
<g>
</g>
<g>
</g>
<g>
</g>
<g>
</g>
<g>
</g>
<g>
</g>
<g>
</g>
<g>
</g>
<g>
</g>
<g>
</g>
<g>
</g>
<g>
</g>
</svg>
