<?xml version="1.0" encoding="iso-8859-1"?>
<!-- Generator: Adobe Illustrator 19.0.0, SVG Export Plug-In . SVG Version: 6.00 Build 0)  -->
<svg version="1.1" id="Layer_1" xmlns="http://www.w3.org/2000/svg" xmlns:xlink="http://www.w3.org/1999/xlink" x="0px" y="0px"
	 viewBox="0 0 512 512" style="enable-background:new 0 0 512 512;" xml:space="preserve">
<g>
	<g>
		<path d="M325.089,203.566h-20.038c-7.497-19.805-26.651-33.928-49.051-33.928c-28.913,0-52.434,23.521-52.434,52.434
			c0,28.913,23.521,52.434,52.434,52.434c22.4,0,41.553-14.123,49.051-33.928h20.038c10.22,0,18.506-8.286,18.506-18.506
			C343.595,211.852,335.309,203.566,325.089,203.566z M256,237.494c-8.504,0-15.422-6.918-15.422-15.422
			c0-8.504,6.918-15.422,15.422-15.422c8.504,0,15.422,6.918,15.422,15.422C271.422,230.576,264.504,237.494,256,237.494z"/>
	</g>
</g>
<g>
	<g>
		<path d="M221.455,481.157H101.783c-3.406,0-6.169,2.762-6.169,6.169v6.169c0,10.22,8.286,18.506,18.506,18.506h94.998
			c10.22,0,18.506-8.286,18.506-18.506v-6.169C227.624,483.919,224.862,481.157,221.455,481.157z"/>
	</g>
</g>
<g>
	<g>
		<path d="M432.424,0H79.576C54.406,0,33.928,20.479,33.928,45.648v352.848c0,25.169,20.479,45.648,45.648,45.648h352.848
			c25.169,0,45.648-20.479,45.648-45.648V45.648C478.072,20.479,457.594,0,432.424,0z M410.217,357.783
			c0,10.22-8.286,18.506-18.506,18.506H120.289c-10.22,0-18.506-8.286-18.506-18.506V86.361c0-10.22,8.286-18.506,18.506-18.506
			h271.422c10.22,0,18.506,8.286,18.506,18.506V357.783z"/>
	</g>
</g>
<g>
	<g>
		<path d="M411.451,481.157H291.778c-3.406,0-6.169,2.762-6.169,6.169v6.169c0,10.22,8.286,18.506,18.506,18.506h94.998
			c10.22,0,18.506-8.286,18.506-18.506v-6.169C417.619,483.919,414.857,481.157,411.451,481.157z"/>
	</g>
</g>
<g>
</g>
<g>
</g>
<g>
</g>
<g>
</g>
<g>
</g>
<g>
</g>
<g>
</g>
<g>
</g>
<g>
</g>
<g>
</g>
<g>
</g>
<g>
</g>
<g>
</g>
<g>
</g>
<g>
</g>
</svg>
