<?xml version="1.0" encoding="iso-8859-1"?>
<!-- Generator: Adobe Illustrator 19.0.0, SVG Export Plug-In . SVG Version: 6.00 Build 0)  -->
<svg version="1.1" id="Layer_1" xmlns="http://www.w3.org/2000/svg" xmlns:xlink="http://www.w3.org/1999/xlink" x="0px" y="0px"
	 viewBox="0 0 512.002 512.002" style="enable-background:new 0 0 512.002 512.002;" xml:space="preserve">
<g>
	<g>
		<path d="M463.973,48.029c-64.036-64.038-168.232-64.038-232.269,0c-59.557,59.557-63.712,153.845-12.487,218.262l-47.833,47.833
			l-17.026-17.026c-7.315-7.316-19.178-7.316-26.494,0L5.489,419.474c-7.316,7.316-7.316,19.178,0,26.494l60.546,60.546
			c7.316,7.318,19.179,7.316,26.494,0l122.375-122.375c7.316-7.316,7.316-19.178,0-26.494l-17.026-17.026l47.833-47.833
			c64.415,51.224,158.704,47.072,218.262-12.487C528.01,216.262,528.01,112.066,463.973,48.029z M347.838,76.736
			c16.21,0,29.351,13.14,29.351,29.351s-13.14,29.351-29.351,29.351c-16.21,0-29.351-13.142-29.351-29.351
			C318.487,89.878,331.627,76.736,347.838,76.736z M397.172,251.591h-98.668c-10.346,0-18.734-8.388-18.734-18.734v-49.013
			c0-21.181,17.233-38.414,38.414-38.414h59.307c21.181,0,38.414,17.233,38.414,38.414v49.013h0.001
			C415.906,243.203,407.518,251.591,397.172,251.591z"/>
	</g>
</g>
<g>
</g>
<g>
</g>
<g>
</g>
<g>
</g>
<g>
</g>
<g>
</g>
<g>
</g>
<g>
</g>
<g>
</g>
<g>
</g>
<g>
</g>
<g>
</g>
<g>
</g>
<g>
</g>
<g>
</g>
</svg>
