<?xml version="1.0" encoding="iso-8859-1"?>
<!-- Generator: Adobe Illustrator 19.0.0, SVG Export Plug-In . SVG Version: 6.00 Build 0)  -->
<svg version="1.1" id="Layer_1" xmlns="http://www.w3.org/2000/svg" xmlns:xlink="http://www.w3.org/1999/xlink" x="0px" y="0px"
	 viewBox="0 0 511.999 511.999" style="enable-background:new 0 0 511.999 511.999;" xml:space="preserve">
<g>
	<g>
		<path d="M463.972,48.027c-64.036-64.036-168.232-64.036-232.269,0c-59.558,59.557-63.712,153.845-12.487,218.262l-47.833,47.833
			l-17.026-17.026c-7.315-7.315-19.178-7.315-26.494,0L5.487,419.471c-7.316,7.315-7.316,19.178,0,26.494l60.546,60.546
			c7.316,7.316,19.177,7.316,26.494,0l122.375-122.375c7.316-7.315,7.316-19.178,0-26.494l-17.026-17.026l47.833-47.833
			c64.417,51.224,158.704,47.071,218.262-12.487C528.009,216.259,528.009,112.064,463.972,48.027z M367.195,230.981
			c0,10.346-8.388,18.734-18.734,18.734s-18.734-8.388-18.734-18.734v-3.747c0-10.346,8.388-18.734,18.734-18.734
			s18.734,8.388,18.734,18.734V230.981z M367.195,182.224v3.794c0,10.346-8.388,18.734-18.734,18.734s-18.734-8.388-18.734-18.734
			v-19.145c0-10.346,8.388-18.734,18.734-18.734c8.845,0,16.04-7.197,16.04-16.04c0-21.196-32.081-21.196-32.081,0
			c0,10.346-8.388,18.734-18.734,18.734c-10.346,0-18.734-8.388-18.734-18.734c0-29.504,24.004-53.508,53.509-53.508
			c29.506,0,53.509,24.004,53.509,53.508C401.97,155.016,387.489,174.615,367.195,182.224z"/>
	</g>
</g>
<g>
</g>
<g>
</g>
<g>
</g>
<g>
</g>
<g>
</g>
<g>
</g>
<g>
</g>
<g>
</g>
<g>
</g>
<g>
</g>
<g>
</g>
<g>
</g>
<g>
</g>
<g>
</g>
<g>
</g>
</svg>
