<?xml version="1.0" encoding="iso-8859-1"?>
<!-- Generator: Adobe Illustrator 19.0.0, SVG Export Plug-In . SVG Version: 6.00 Build 0)  -->
<svg version="1.1" id="Layer_1" xmlns="http://www.w3.org/2000/svg" xmlns:xlink="http://www.w3.org/1999/xlink" x="0px" y="0px"
	 viewBox="0 0 512.001 512.001" style="enable-background:new 0 0 512.001 512.001;" xml:space="preserve">
<g>
	<g>
		<path d="M463.972,48.029c-64.036-64.038-168.232-64.038-232.269,0c-59.558,59.557-63.712,153.845-12.487,218.262l-47.833,47.833
			l-17.026-17.026c-7.315-7.316-19.178-7.316-26.494,0L5.488,419.473c-7.316,7.316-7.316,19.178,0,26.494l60.546,60.546
			c7.316,7.318,19.179,7.316,26.494,0l122.375-122.375c7.316-7.316,7.316-19.178,0-26.494l-17.026-17.026l47.833-47.833
			c64.415,51.224,158.704,47.072,218.262-12.487C528.009,216.261,528.009,112.064,463.972,48.029z M437.138,182.273H422.52
			L396,226.661c-7.268,12.161-24.909,12.144-32.166,0L315.97,146.55l-15.892,26.597c-3.382,5.659-9.49,9.125-16.083,9.125h-25.459
			c-10.346,0-18.734-8.388-18.734-18.734s8.388-18.734,18.734-18.734h14.829l26.521-44.39c7.268-12.16,24.909-12.142,32.166,0
			l47.864,80.111l15.891-26.597c3.382-5.66,9.49-9.126,16.083-9.126h25.249c10.346,0,18.734,8.388,18.734,18.735
			C455.873,173.882,447.485,182.273,437.138,182.273z"/>
	</g>
</g>
<g>
</g>
<g>
</g>
<g>
</g>
<g>
</g>
<g>
</g>
<g>
</g>
<g>
</g>
<g>
</g>
<g>
</g>
<g>
</g>
<g>
</g>
<g>
</g>
<g>
</g>
<g>
</g>
<g>
</g>
</svg>
