<?xml version="1.0" encoding="iso-8859-1"?>
<!-- Generator: Adobe Illustrator 19.0.0, SVG Export Plug-In . SVG Version: 6.00 Build 0)  -->
<svg version="1.1" id="Layer_1" xmlns="http://www.w3.org/2000/svg" xmlns:xlink="http://www.w3.org/1999/xlink" x="0px" y="0px"
	 viewBox="0 0 512 512" style="enable-background:new 0 0 512 512;" xml:space="preserve">
<g>
	<g>
		<path d="M398.884,0H113.116C90.1,0,71.442,18.658,71.442,41.674v319.107c0,3.288,2.666,5.953,5.953,5.953h357.209
			c3.287,0,5.953-2.666,5.953-5.953V41.674C440.558,18.658,421.9,0,398.884,0z M256.592,76.205
			c20.386,0,36.912,16.526,36.912,36.912s-16.526,36.912-36.912,36.912c-20.386,0-36.912-16.526-36.912-36.912
			S236.206,76.205,256.592,76.205z M335.178,272.67c0,9.864-7.997,17.86-17.86,17.86H194.676c-9.864,0-17.86-7.997-17.86-17.86
			v-61.219h0c0-23.364,19.008-42.372,42.372-42.372h73.618c23.364,0,42.372,19.008,42.372,42.372V272.67z"/>
	</g>
</g>
<g>
	<g>
		<path d="M434.605,402.456H77.395c-3.287,0-5.953,2.666-5.953,5.953v61.916C71.442,493.342,90.1,512,113.116,512h285.767
			c23.016,0,41.674-18.658,41.674-41.674v-61.916C440.558,405.122,437.892,402.456,434.605,402.456z M286.958,475.088h-61.916
			c-9.864,0-17.86-7.997-17.86-17.86s7.997-17.86,17.86-17.86h61.916c9.864,0,17.86,7.997,17.86,17.86
			S296.822,475.088,286.958,475.088z"/>
	</g>
</g>
<g>
</g>
<g>
</g>
<g>
</g>
<g>
</g>
<g>
</g>
<g>
</g>
<g>
</g>
<g>
</g>
<g>
</g>
<g>
</g>
<g>
</g>
<g>
</g>
<g>
</g>
<g>
</g>
<g>
</g>
</svg>
