<?xml version="1.0" encoding="iso-8859-1"?>
<!-- Generator: Adobe Illustrator 19.0.0, SVG Export Plug-In . SVG Version: 6.00 Build 0)  -->
<svg version="1.1" id="Layer_1" xmlns="http://www.w3.org/2000/svg" xmlns:xlink="http://www.w3.org/1999/xlink" x="0px" y="0px"
	 viewBox="0 0 512 512" style="enable-background:new 0 0 512 512;" xml:space="preserve">
<g>
	<g>
		<path d="M467.662,112.255H337.083l-9.261-51.454c-1.531-8.508-8.935-14.697-17.578-14.697H201.758
			c-8.643,0-16.047,6.189-17.578,14.697l-9.261,51.454H44.337c-9.647,0-9.617,8.167-5.409,10.972l182.084,121.386
			c0.978,0.653,2.127,1,3.302,1h63.373c1.175,0,2.324-0.348,3.302-1l182.084-121.386
			C477.299,120.409,477.291,112.255,467.662,112.255z M211.212,112.255l5.477-30.43h78.621l5.477,30.43H211.212z"/>
	</g>
</g>
<g>
	<g>
		<path d="M502.409,146.601L328.902,262.269c-1.656,1.104-2.652,2.964-2.652,4.953v48.645c0,9.864-7.997,17.86-17.86,17.86H203.608
			c-9.864,0-17.86-7.997-17.86-17.86v-48.645c0-1.991-0.995-3.849-2.652-4.953L9.591,146.601C6.714,144.684,0,144.033,0,156.587
			v264.966c0,24.489,19.852,44.342,44.342,44.342h423.317c24.457,0,44.342-19.897,44.342-44.342V156.587
			C512,143.442,504.903,144.938,502.409,146.601z"/>
	</g>
</g>
<g>
</g>
<g>
</g>
<g>
</g>
<g>
</g>
<g>
</g>
<g>
</g>
<g>
</g>
<g>
</g>
<g>
</g>
<g>
</g>
<g>
</g>
<g>
</g>
<g>
</g>
<g>
</g>
<g>
</g>
</svg>
