<?xml version="1.0" encoding="iso-8859-1"?>
<!-- Generator: Adobe Illustrator 19.0.0, SVG Export Plug-In . SVG Version: 6.00 Build 0)  -->
<svg version="1.1" id="Layer_1" xmlns="http://www.w3.org/2000/svg" xmlns:xlink="http://www.w3.org/1999/xlink" x="0px" y="0px"
	 viewBox="0 0 512 512" style="enable-background:new 0 0 512 512;" xml:space="preserve">
<g>
	<g>
		<path d="M412.008,160.535L269.124,5.744c-7.067-7.655-19.176-7.662-26.248,0L99.992,160.535
			c-3.046,3.299-4.737,7.624-4.737,12.114v321.49c0,9.864,7.997,17.861,17.861,17.861h285.769c9.864,0,17.861-7.997,17.861-17.861
			V172.65C416.745,168.159,415.054,163.834,412.008,160.535z M256,114.305c29.545,0,53.582,24.037,53.582,53.582
			S285.545,221.468,256,221.468s-53.582-24.037-53.582-53.582S226.455,114.305,256,114.305z M327.442,435.795H184.558
			c-9.864,0-17.861-7.997-17.861-17.861s7.997-17.861,17.861-17.861h142.884c9.864,0,17.861,7.997,17.861,17.861
			S337.306,435.795,327.442,435.795z M327.442,366.734H184.558c-9.864,0-17.861-7.997-17.861-17.861s7.997-17.861,17.861-17.861
			h142.884c9.864,0,17.861,7.997,17.861,17.861S337.306,366.734,327.442,366.734z"/>
	</g>
</g>
<g>
</g>
<g>
</g>
<g>
</g>
<g>
</g>
<g>
</g>
<g>
</g>
<g>
</g>
<g>
</g>
<g>
</g>
<g>
</g>
<g>
</g>
<g>
</g>
<g>
</g>
<g>
</g>
<g>
</g>
</svg>
