<?xml version="1.0" encoding="iso-8859-1"?>
<!-- Generator: Adobe Illustrator 19.0.0, SVG Export Plug-In . SVG Version: 6.00 Build 0)  -->
<svg version="1.1" id="Layer_1" xmlns="http://www.w3.org/2000/svg" xmlns:xlink="http://www.w3.org/1999/xlink" x="0px" y="0px"
	 viewBox="0 0 512 512" style="enable-background:new 0 0 512 512;" xml:space="preserve">
<g>
	<g>
		<path d="M461.895,309.581h-69.503c-2.349,0-4.49,1.379-5.432,3.53c-14.419,32.937-40.91,59.428-73.847,73.847
			c-2.153,0.942-3.53,3.083-3.53,5.432v69.503c0,3.948,3.783,6.832,7.575,5.734c72.377-20.948,129.525-78.097,150.473-150.473
			C468.728,313.364,465.844,309.581,461.895,309.581z"/>
	</g>
</g>
<g>
	<g>
		<path d="M198.888,386.959c-32.937-14.419-59.428-40.91-73.847-73.847c-0.942-2.153-3.083-3.53-5.432-3.53H50.105
			c-3.948,0-6.833,3.783-5.736,7.575c20.948,72.377,78.097,129.525,150.473,150.473c3.792,1.098,7.575-1.786,7.575-5.734v-69.503
			C202.419,390.042,201.041,387.902,198.888,386.959z"/>
	</g>
</g>
<g>
	<g>
		<path d="M194.842,44.37C122.467,65.318,65.318,122.467,44.37,194.843c-1.098,3.792,1.786,7.575,5.734,7.575h69.503
			c2.35,0,4.49-1.379,5.432-3.53c14.419-32.937,40.91-59.428,73.847-73.847c2.153-0.942,3.53-3.083,3.53-5.432V50.105
			C202.417,46.156,198.635,43.272,194.842,44.37z"/>
	</g>
</g>
<g>
	<g>
		<path d="M467.63,194.843C446.682,122.467,389.533,65.318,317.157,44.37c-3.792-1.098-7.575,1.786-7.575,5.734v69.503
			c0,2.35,1.378,4.49,3.53,5.433c32.937,14.419,59.428,40.91,73.847,73.847c0.943,2.153,3.083,3.53,5.432,3.53h69.503
			C465.843,202.419,468.728,198.636,467.63,194.843z"/>
	</g>
</g>
<g>
	<g>
		<path d="M494.14,238.14H361.666c-7.55-44.807-43-80.257-87.806-87.806V17.86C273.86,7.997,265.864,0,256,0
			c-9.864,0-17.86,7.997-17.86,17.86v132.473c-44.807,7.549-80.257,42.998-87.806,87.806H17.86C7.997,238.14,0,246.136,0,256
			s7.997,17.86,17.86,17.86h132.473c7.549,44.807,42.998,80.257,87.806,87.806V494.14c0,9.864,7.997,17.86,17.86,17.86
			s17.86-7.997,17.86-17.86V361.666c44.807-7.549,80.257-42.998,87.806-87.806H494.14c9.864,0,17.86-7.997,17.86-17.86
			C512,246.136,504.003,238.14,494.14,238.14z M238.14,325.181c-25.068-6.475-44.845-26.253-51.32-51.32h51.32V325.181z
			 M238.14,238.14h-51.32c6.475-25.068,26.253-44.845,51.32-51.32V238.14z M273.86,325.181v-51.32h51.32
			C318.706,298.928,298.928,318.706,273.86,325.181z M273.86,238.14v-51.32c25.068,6.475,44.845,26.253,51.32,51.32H273.86z"/>
	</g>
</g>
<g>
</g>
<g>
</g>
<g>
</g>
<g>
</g>
<g>
</g>
<g>
</g>
<g>
</g>
<g>
</g>
<g>
</g>
<g>
</g>
<g>
</g>
<g>
</g>
<g>
</g>
<g>
</g>
<g>
</g>
</svg>
