<?xml version="1.0" encoding="iso-8859-1"?>
<!-- Generator: Adobe Illustrator 19.0.0, SVG Export Plug-In . SVG Version: 6.00 Build 0)  -->
<svg version="1.1" id="Layer_1" xmlns="http://www.w3.org/2000/svg" xmlns:xlink="http://www.w3.org/1999/xlink" x="0px" y="0px"
	 viewBox="0 0 512 512" style="enable-background:new 0 0 512 512;" xml:space="preserve">
<g>
	<g>
		<path d="M256,8.453c-30.628,0-55.547,24.918-55.547,55.547s24.919,55.547,55.547,55.547S311.547,94.629,311.547,64
			S286.628,8.453,256,8.453z"/>
	</g>
</g>
<g>
	<g>
		<path d="M293.934,120.755h-74.66c-23.695,0-42.972,19.277-42.972,42.972v62.085c0,10.003,8.11,18.113,18.113,18.113h124.377
			c10.003,0,18.113-8.11,18.113-18.113v-62.085C336.906,140.032,317.628,120.755,293.934,120.755z"/>
	</g>
</g>
<g>
	<g>
		<path d="M79.698,268.076c-30.628,0-55.547,24.919-55.547,55.547c0,30.628,24.919,55.547,55.547,55.547
			s55.547-24.919,55.547-55.547C135.245,292.994,110.326,268.076,79.698,268.076z"/>
	</g>
</g>
<g>
	<g>
		<path d="M117.632,380.377h-74.66C19.277,380.377,0,399.655,0,423.349v62.085c0,10.003,8.11,18.113,18.113,18.113h124.377
			c10.003,0,18.113-8.11,18.113-18.113v-62.085C160.604,399.655,141.326,380.377,117.632,380.377z"/>
	</g>
</g>
<g>
	<g>
		<path d="M432.302,268.076c-30.628,0-55.547,24.919-55.547,55.547c0,30.628,24.919,55.547,55.547,55.547
			s55.547-24.919,55.547-55.547C487.849,292.994,462.93,268.076,432.302,268.076z"/>
	</g>
</g>
<g>
	<g>
		<path d="M469.028,380.377h-74.66c-23.694,0-42.972,19.277-42.972,42.972v62.085c0,10.003,8.11,18.113,18.113,18.113h124.377
			c10.003,0,18.113-8.11,18.113-18.113v-62.085C512,399.655,492.723,380.377,469.028,380.377z"/>
	</g>
</g>
<g>
	<g>
		<path d="M321.425,406.185l-47.312-47.312v-66.647c0-10.003-8.11-18.113-18.113-18.113s-18.113,8.11-18.113,18.113v66.647
			l-47.312,47.312c-7.074,7.074-7.074,18.542,0,25.616c7.073,7.074,18.542,7.075,25.616,0L256,391.992l39.809,39.809
			c7.073,7.074,18.542,7.075,25.616,0C328.499,424.727,328.499,413.259,321.425,406.185z"/>
	</g>
</g>
<g>
</g>
<g>
</g>
<g>
</g>
<g>
</g>
<g>
</g>
<g>
</g>
<g>
</g>
<g>
</g>
<g>
</g>
<g>
</g>
<g>
</g>
<g>
</g>
<g>
</g>
<g>
</g>
<g>
</g>
</svg>
