<?xml version="1.0" encoding="iso-8859-1"?>
<!-- Generator: Adobe Illustrator 19.0.0, SVG Export Plug-In . SVG Version: 6.00 Build 0)  -->
<svg version="1.1" id="Layer_1" xmlns="http://www.w3.org/2000/svg" xmlns:xlink="http://www.w3.org/1999/xlink" x="0px" y="0px"
	 viewBox="0 0 512 512" style="enable-background:new 0 0 512 512;" xml:space="preserve">
<g>
	<g>
		<path d="M332.698,298.865H180.493c-37.808,0-68.568,30.759-68.568,68.568V494.14c0,9.864,7.997,17.86,17.86,17.86h253.619
			c9.864,0,17.86-7.997,17.86-17.86V367.433C401.265,329.624,370.506,298.865,332.698,298.865z"/>
	</g>
</g>
<g>
	<g>
		<path d="M439.367,147.646h-19.093C411.478,64.776,341.165,0,256,0S100.522,64.776,91.725,147.646H72.633
			c-9.864,0-17.86,7.997-17.86,17.86v47.628c0,9.864,7.997,17.86,17.86,17.86h35.721c9.864,0,17.86-7.997,17.86-17.86
			c0-50.864,0.298-47.926,0.298-47.926c0-71.4,58.088-129.488,129.488-129.488c66.991,0,129.786,51.938,129.786,135.741
			l-35.929,0.004c3.429-54.566-40.04-100.023-93.857-100.023c-51.868,0-94.065,42.197-94.065,94.065s42.197,94.065,94.065,94.065
			c36.906,0,68.899-21.374,84.295-52.385l45.491-0.005v5.952c0,9.864,7.997,17.86,17.86,17.86h35.721
			c9.864,0,17.86-7.997,17.86-17.86v-47.628C457.228,155.643,449.231,147.646,439.367,147.646z"/>
	</g>
</g>
<g>
</g>
<g>
</g>
<g>
</g>
<g>
</g>
<g>
</g>
<g>
</g>
<g>
</g>
<g>
</g>
<g>
</g>
<g>
</g>
<g>
</g>
<g>
</g>
<g>
</g>
<g>
</g>
<g>
</g>
</svg>
