<?xml version="1.0" encoding="iso-8859-1"?>
<!-- Generator: Adobe Illustrator 19.0.0, SVG Export Plug-In . SVG Version: 6.00 Build 0)  -->
<svg version="1.1" id="Layer_1" xmlns="http://www.w3.org/2000/svg" xmlns:xlink="http://www.w3.org/1999/xlink" x="0px" y="0px"
	 viewBox="0 0 512 512" style="enable-background:new 0 0 512 512;" xml:space="preserve">
<g>
	<g>
		<path d="M506.047,190.512H295.314c-3.299,0-5.975,2.674-5.975,5.975v119.027c0,3.299,2.675,5.975,5.975,5.975h210.732
			c3.287,0,5.953-2.666,5.953-5.953v-119.07C512,193.178,509.334,190.512,506.047,190.512z M383.405,284.577
			c-16.44,0-29.767-13.327-29.767-29.767c0-16.44,13.327-29.767,29.767-29.767c16.44,0,29.767,13.327,29.767,29.767
			C413.172,271.249,399.845,284.577,383.405,284.577z"/>
	</g>
</g>
<g>
	<g>
		<path d="M295.314,154.789h210.732c3.287,0,5.953-2.666,5.953-5.953v-47.627c0-23.016-18.658-41.674-41.674-41.674H41.674
			C18.658,59.535,0,78.193,0,101.209v309.581c0,23.016,18.658,41.674,41.674,41.674h428.651c23.016,0,41.674-18.658,41.674-41.674
			v-47.628c0-3.287-2.666-5.953-5.953-5.953H295.314c-23.028,0-41.696-18.668-41.696-41.696V196.485
			C253.619,173.457,272.286,154.789,295.314,154.789z"/>
	</g>
</g>
<g>
</g>
<g>
</g>
<g>
</g>
<g>
</g>
<g>
</g>
<g>
</g>
<g>
</g>
<g>
</g>
<g>
</g>
<g>
</g>
<g>
</g>
<g>
</g>
<g>
</g>
<g>
</g>
<g>
</g>
</svg>
