<?xml version="1.0" encoding="iso-8859-1"?>
<!-- Generator: Adobe Illustrator 19.0.0, SVG Export Plug-In . SVG Version: 6.00 Build 0)  -->
<svg version="1.1" id="Layer_1" xmlns="http://www.w3.org/2000/svg" xmlns:xlink="http://www.w3.org/1999/xlink" x="0px" y="0px"
	 viewBox="0 0 330.004 330.004" style="enable-background:new 0 0 330.004 330.004;" xml:space="preserve">
<g id="XMLID_225_">
	<path id="XMLID_226_" d="M279.248,4.394c-5.857-5.857-15.355-5.857-21.213,0c-5.857,5.858-5.857,15.355,0,21.213
		c14.166,14.166,21.967,33,21.967,53.033s-7.801,38.867-21.967,53.033c-5.857,5.857-5.857,15.355,0,21.213
		c2.929,2.929,6.768,4.393,10.606,4.393c3.839,0,7.678-1.465,10.607-4.393c19.832-19.832,30.754-46.2,30.754-74.246
		C310.002,50.593,299.08,24.225,279.248,4.394z"/>
	<path id="XMLID_227_" d="M236.821,46.82c-5.857-5.857-15.355-5.857-21.213,0c-5.858,5.857-5.858,15.355,0,21.213
		c2.833,2.833,4.394,6.601,4.394,10.607c0,4.006-1.561,7.773-4.394,10.606c-5.858,5.857-5.858,15.355,0,21.213
		c2.929,2.929,6.768,4.394,10.607,4.394s7.678-1.465,10.606-4.394c8.499-8.499,13.181-19.8,13.181-31.819
		C250.002,66.619,245.32,55.319,236.821,46.82z"/>
	<path id="XMLID_228_" d="M71.969,4.394c-5.857-5.859-15.355-5.857-21.213,0C30.924,24.225,20.002,50.593,20.002,78.64
		c0,28.046,10.922,54.414,30.754,74.246c2.929,2.929,6.768,4.393,10.606,4.393c3.839,0,7.678-1.465,10.606-4.393
		c5.857-5.857,5.857-15.355,0-21.213c-14.166-14.166-21.967-33-21.967-53.033s7.801-38.867,21.967-53.033
		C77.826,19.749,77.826,10.252,71.969,4.394z"/>
	<path id="XMLID_229_" d="M114.397,46.82c-5.858-5.856-15.355-5.857-21.213-0.001c-8.501,8.5-13.182,19.801-13.182,31.821
		c0,12.02,4.681,23.32,13.182,31.82c2.928,2.929,6.767,4.393,10.605,4.393c3.839,0,7.678-1.465,10.607-4.394
		c5.858-5.858,5.858-15.355-0.002-21.214c-2.832-2.833-4.393-6.6-4.393-10.605c0-4.007,1.56-7.773,4.393-10.606
		C120.254,62.175,120.254,52.678,114.397,46.82z"/>
	<path id="XMLID_230_" d="M101.291,329.534c1.246,0.317,2.493,0.47,3.722,0.47c6.691,0,12.792-4.512,14.522-11.293L134.525,260
		h60.953l14.99,58.711c1.73,6.781,7.83,11.293,14.523,11.293c1.227,0,2.477-0.152,3.722-0.47
		c8.026-2.05,12.872-10.218,10.822-18.245l-53.574-209.834c5.576-5.447,9.041-13.045,9.041-21.455c0-16.568-13.432-30-30-30
		s-30,13.432-30,30c0,8.41,3.465,16.008,9.041,21.455L90.469,311.289C88.419,319.317,93.265,327.485,101.291,329.534z
		 M165.002,140.635L187.818,230h-45.633L165.002,140.635z"/>
</g>
<g>
</g>
<g>
</g>
<g>
</g>
<g>
</g>
<g>
</g>
<g>
</g>
<g>
</g>
<g>
</g>
<g>
</g>
<g>
</g>
<g>
</g>
<g>
</g>
<g>
</g>
<g>
</g>
<g>
</g>
</svg>
