<?xml version="1.0" encoding="iso-8859-1"?>
<!-- Generator: Adobe Illustrator 19.0.0, SVG Export Plug-In . SVG Version: 6.00 Build 0)  -->
<svg version="1.1" id="Layer_1" xmlns="http://www.w3.org/2000/svg" xmlns:xlink="http://www.w3.org/1999/xlink" x="0px" y="0px"
	 viewBox="0 0 330 330" style="enable-background:new 0 0 330 330;" xml:space="preserve">
<g id="XMLID_333_">
	<path id="XMLID_334_" d="M165.008,134.627c-16.773,0-30.377,13.596-30.377,30.373c0,16.77,13.604,30.373,30.377,30.373
		c16.777,0,30.369-13.604,30.369-30.373C195.377,148.223,181.785,134.627,165.008,134.627z"/>
	<path id="XMLID_337_" d="M165.008,0.004c-44.918,0-85.693,18.048-115.479,47.262c-0.41,0.332-0.809,0.687-1.189,1.068
		c-0.381,0.381-0.734,0.777-1.065,1.188C18.053,79.304,0,120.08,0,165c0,90.98,74.022,164.996,165.008,164.996
		c44.904,0,85.668-18.04,115.447-47.242c0.42-0.338,0.826-0.697,1.216-1.086c0.39-0.39,0.749-0.798,1.087-1.218
		C311.961,250.67,330,209.905,330,165C330,74.021,255.985,0.004,165.008,0.004z M78.049,150H30.838
		c2.889-26.001,13.189-49.795,28.739-69.219l33.362,33.356C85.509,124.637,80.314,136.824,78.049,150z M206.165,206.13
		c-0.004,0.004-0.008,0.007-0.012,0.011c-0.008,0.008-0.015,0.017-0.022,0.024c-10.536,10.542-25.082,17.071-41.123,17.071
		c-32.113,0-58.24-26.125-58.24-58.236c0-32.116,26.127-58.244,58.24-58.244c32.088,0,58.191,26.128,58.191,58.244
		C223.199,181.041,216.685,195.587,206.165,206.13z M270.432,249.213l-33.377-33.381c7.417-10.492,12.602-22.668,14.865-35.832
		h47.242C296.275,205.998,285.977,229.79,270.432,249.213z"/>
</g>
<g>
</g>
<g>
</g>
<g>
</g>
<g>
</g>
<g>
</g>
<g>
</g>
<g>
</g>
<g>
</g>
<g>
</g>
<g>
</g>
<g>
</g>
<g>
</g>
<g>
</g>
<g>
</g>
<g>
</g>
</svg>
