<?xml version="1.0" encoding="iso-8859-1"?>
<!-- Generator: Adobe Illustrator 19.0.0, SVG Export Plug-In . SVG Version: 6.00 Build 0)  -->
<svg version="1.1" id="Layer_1" xmlns="http://www.w3.org/2000/svg" xmlns:xlink="http://www.w3.org/1999/xlink" x="0px" y="0px"
	 viewBox="0 0 330 330" style="enable-background:new 0 0 330 330;" xml:space="preserve">
<g id="XMLID_482_">
	<path id="XMLID_483_" d="M165,210c-8.271,0-15,6.729-15,15s6.729,15,15,15s15-6.729,15-15S173.271,210,165,210z"/>
	<path id="XMLID_484_" d="M280,15c0-8.284-6.717-15-15-15H65c-8.284,0-15,6.716-15,15v300c0,8.284,6.716,15,15,15h200
		c8.283,0,15-6.716,15-15V15z M165,270c-24.814,0-45-20.187-45-45s20.186-45,45-45c24.814,0,45,20.187,45,45S189.814,270,165,270z
		 M250,120H80V30h170V120z"/>
</g>
<g>
</g>
<g>
</g>
<g>
</g>
<g>
</g>
<g>
</g>
<g>
</g>
<g>
</g>
<g>
</g>
<g>
</g>
<g>
</g>
<g>
</g>
<g>
</g>
<g>
</g>
<g>
</g>
<g>
</g>
</svg>
