<?xml version="1.0" encoding="iso-8859-1"?>
<!-- Generator: Adobe Illustrator 19.0.0, SVG Export Plug-In . SVG Version: 6.00 Build 0)  -->
<svg version="1.1" id="Layer_1" xmlns="http://www.w3.org/2000/svg" xmlns:xlink="http://www.w3.org/1999/xlink" x="0px" y="0px"
	 viewBox="0 0 330.004 330.004" style="enable-background:new 0 0 330.004 330.004;" xml:space="preserve">
<g id="XMLID_793_">
	<path id="XMLID_794_" d="M60.588,240.018l24.907,79.469c2.009,6.412,7.927,10.518,14.31,10.518c1.482,0,2.994-0.222,4.484-0.689
		l57.561-18.018c7.906-2.475,12.309-10.888,9.834-18.794l-9.813-31.361L60.588,240.018z"/>
	<path id="XMLID_795_" d="M11.939,199.872l38.587,8.048l101.304,21.128l88.172,18.389V22.828L11.939,70.394
		c-6.955,1.45-11.938,7.58-11.938,14.684v100.11C0.002,192.292,4.984,198.421,11.939,199.872z"/>
	<path id="XMLID_796_" d="M315.002,0h-30c-8.284,0-15,6.716-15,15v7.828v224.609v7.828c0,8.284,6.716,15,15,15h29.928
		c8.282,0,14.997-6.713,15-14.996l0.072-240.264c0.002-3.979-1.578-7.795-4.392-10.61C322.797,1.581,318.98,0,315.002,0z"/>
</g>
<g>
</g>
<g>
</g>
<g>
</g>
<g>
</g>
<g>
</g>
<g>
</g>
<g>
</g>
<g>
</g>
<g>
</g>
<g>
</g>
<g>
</g>
<g>
</g>
<g>
</g>
<g>
</g>
<g>
</g>
</svg>
