<?xml version="1.0" encoding="iso-8859-1"?>
<!-- Generator: Adobe Illustrator 19.0.0, SVG Export Plug-In . SVG Version: 6.00 Build 0)  -->
<svg version="1.1" id="Layer_1" xmlns="http://www.w3.org/2000/svg" xmlns:xlink="http://www.w3.org/1999/xlink" x="0px" y="0px"
	 viewBox="0 0 330 330" style="enable-background:new 0 0 330 330;" xml:space="preserve">
<g id="XMLID_503_">
	<path id="XMLID_504_" d="M315,0H15C6.716,0,0,6.716,0,15v240.22c0,8.284,6.716,15,15,15h134.988V300H99.994
		c-8.283,0-15,6.716-15,15s6.717,15,15,15h130.002c8.285,0,15-6.716,15-15s-6.715-15-15-15h-50.008v-29.78H315
		c8.285,0,15-6.716,15-15V15C330,6.716,323.285,0,315,0z M300,180.22H30V90h270V180.22z"/>
</g>
<g>
</g>
<g>
</g>
<g>
</g>
<g>
</g>
<g>
</g>
<g>
</g>
<g>
</g>
<g>
</g>
<g>
</g>
<g>
</g>
<g>
</g>
<g>
</g>
<g>
</g>
<g>
</g>
<g>
</g>
</svg>
