<?xml version="1.0" encoding="iso-8859-1"?>
<!-- Generator: Adobe Illustrator 19.0.0, SVG Export Plug-In . SVG Version: 6.00 Build 0)  -->
<svg version="1.1" id="Layer_1" xmlns="http://www.w3.org/2000/svg" xmlns:xlink="http://www.w3.org/1999/xlink" x="0px" y="0px"
	 viewBox="0 0 329.635 329.635" style="enable-background:new 0 0 329.635 329.635;" xml:space="preserve">
<g id="XMLID_839_">
	<path id="XMLID_840_" d="M105.002,219.817c8.271,0,14.998-6.731,14.998-15.004c0-8.269-6.728-14.996-14.998-14.996
		c-8.272,0-15.002,6.727-15.002,14.996C90,213.086,96.729,219.817,105.002,219.817z"/>
	<path id="XMLID_841_" d="M209.999,204.814c0,8.273,6.73,15.004,15.003,15.004c8.27,0,14.997-6.731,14.997-15.004
		c0-8.269-6.727-14.996-14.997-14.996C216.729,189.817,209.999,196.545,209.999,204.814z"/>
	<path id="XMLID_842_" d="M15,309.817h299.635c8.284,0,15-6.716,15-15v-200c0-8.284-6.716-15-15-15h-44.636v-45
		c0-8.284-6.715-15-15-15H74.818c-8.284,0-15,6.716-15,15v45H15c-8.284,0-15,6.716-15,15v200C0,303.102,6.716,309.817,15,309.817z
		 M269.999,204.814c0,24.815-20.186,45.004-44.997,45.004c-24.814,0-45.002-20.189-45.002-45.004
		c0-24.811,20.188-44.996,45.002-44.996C249.813,159.817,269.999,180.003,269.999,204.814z M89.818,49.817h150.181v30H89.818V49.817
		z M105.002,159.817c24.811,0,44.998,20.186,44.998,44.996c0,24.815-20.187,45.004-44.998,45.004
		C80.188,249.817,60,229.629,60,204.814C60,180.003,80.188,159.817,105.002,159.817z"/>
</g>
<g>
</g>
<g>
</g>
<g>
</g>
<g>
</g>
<g>
</g>
<g>
</g>
<g>
</g>
<g>
</g>
<g>
</g>
<g>
</g>
<g>
</g>
<g>
</g>
<g>
</g>
<g>
</g>
<g>
</g>
</svg>
