<?xml version="1.0" encoding="iso-8859-1"?>
<!-- Generator: Adobe Illustrator 19.0.0, SVG Export Plug-In . SVG Version: 6.00 Build 0)  -->
<svg version="1.1" id="Layer_1" xmlns="http://www.w3.org/2000/svg" xmlns:xlink="http://www.w3.org/1999/xlink" x="0px" y="0px"
	 viewBox="0 0 330 330" style="enable-background:new 0 0 330 330;" xml:space="preserve">
<g id="XMLID_489_">
	<path id="XMLID_490_" d="M255,330c8.283,0,15-6.716,15-15V15c0-8.284-6.717-15-15-15H75c-8.284,0-15,6.716-15,15v300
		c0,8.284,6.716,15,15,15H255z M135,60h60c8.283,0,15,6.716,15,15s-6.717,15-15,15h-60c-8.284,0-15-6.716-15-15S126.716,60,135,60z
		 M135,120h60c8.283,0,15,6.716,15,15s-6.717,15-15,15h-60c-8.284,0-15-6.716-15-15S126.716,120,135,120z M165,180
		c24.814,0,45,20.187,45,45s-20.186,45-45,45c-24.814,0-45-20.187-45-45S140.186,180,165,180z"/>
	<path id="XMLID_496_" d="M165,240c8.271,0,15-6.729,15-15s-6.729-15-15-15s-15,6.729-15,15S156.729,240,165,240z"/>
</g>
<g>
</g>
<g>
</g>
<g>
</g>
<g>
</g>
<g>
</g>
<g>
</g>
<g>
</g>
<g>
</g>
<g>
</g>
<g>
</g>
<g>
</g>
<g>
</g>
<g>
</g>
<g>
</g>
<g>
</g>
</svg>
