<?xml version="1.0" encoding="iso-8859-1"?>
<!-- Generator: Adobe Illustrator 19.0.0, SVG Export Plug-In . SVG Version: 6.00 Build 0)  -->
<svg version="1.1" id="Layer_1" xmlns="http://www.w3.org/2000/svg" xmlns:xlink="http://www.w3.org/1999/xlink" x="0px" y="0px"
	 viewBox="0 0 330 330" style="enable-background:new 0 0 330 330;" xml:space="preserve">
<g id="XMLID_472_">
	<path id="XMLID_473_" d="M285,330c8.285,0,15-6.716,15-15V15c0-8.284-6.715-15-15-15H45c-8.284,0-15,6.716-15,15v300
		c0,8.284,6.716,15,15,15H285z M90,75c0-8.284,6.716-15,15-15h120c8.285,0,15,6.716,15,15v160c0,8.284-6.715,15-15,15H105
		c-8.284,0-15-6.716-15-15V75z"/>
</g>
<g>
</g>
<g>
</g>
<g>
</g>
<g>
</g>
<g>
</g>
<g>
</g>
<g>
</g>
<g>
</g>
<g>
</g>
<g>
</g>
<g>
</g>
<g>
</g>
<g>
</g>
<g>
</g>
<g>
</g>
</svg>
