<?xml version="1.0" encoding="iso-8859-1"?>
<!-- Generator: Adobe Illustrator 19.0.0, SVG Export Plug-In . SVG Version: 6.00 Build 0)  -->
<svg version="1.1" id="Layer_1" xmlns="http://www.w3.org/2000/svg" xmlns:xlink="http://www.w3.org/1999/xlink" x="0px" y="0px"
	 viewBox="0 0 326.726 326.726" style="enable-background:new 0 0 326.726 326.726;" xml:space="preserve">
<g id="XMLID_847_">
	<path id="XMLID_848_" d="M293.363,56.946h-95.757l31.215-31.364c5.844-5.872,5.821-15.369-0.05-21.213
		c-5.872-5.844-15.369-5.822-21.213,0.05l-44.837,45.05L118.513,5.038C112.67-0.836,103.172-0.859,97.3,4.984
		c-5.873,5.843-5.897,15.34-0.054,21.213l30.593,30.748H33.363c-8.284,0-15,6.716-15,15v180c0,8.284,6.716,15,15,15h114.989v29.78
		H98.358c-8.284,0-15,6.716-15,15c0,8.284,6.716,15,15,15h130.001c8.284,0,15-6.716,15-15c0-8.284-6.716-15-15-15h-50.007v-29.78
		h115.011c8.284,0,15-6.716,15-15v-180C308.363,63.661,301.647,56.946,293.363,56.946z M278.363,236.946h-230v-150h230V236.946z"/>
</g>
<g>
</g>
<g>
</g>
<g>
</g>
<g>
</g>
<g>
</g>
<g>
</g>
<g>
</g>
<g>
</g>
<g>
</g>
<g>
</g>
<g>
</g>
<g>
</g>
<g>
</g>
<g>
</g>
<g>
</g>
</svg>
