<?xml version="1.0" encoding="iso-8859-1"?>
<!-- Generator: Adobe Illustrator 19.0.0, SVG Export Plug-In . SVG Version: 6.00 Build 0)  -->
<svg version="1.1" id="Layer_1" xmlns="http://www.w3.org/2000/svg" xmlns:xlink="http://www.w3.org/1999/xlink" x="0px" y="0px"
	 viewBox="0 0 297.95 297.95" style="enable-background:new 0 0 297.95 297.95;" xml:space="preserve">
<g id="XMLID_350_">
	<path id="XMLID_351_" d="M251.129,145.815l-3.535-3.535v-0.001L155.67,50.355l-3.536-3.535c-5.857-5.858-15.355-5.857-21.213,0
		L24.859,152.882c-33.144,33.144-33.144,87.071-0.001,120.214c33.141,33.142,87.065,33.138,120.209-0.006l106.063-106.062
		C256.987,161.171,256.987,151.673,251.129,145.815z"/>
	<path id="XMLID_352_" d="M293.555,96.318c5.858-5.858,5.858-15.356,0.001-21.214l-70.711-70.71c-5.858-5.859-15.355-5.858-21.214,0
		l-24.748,24.748l91.924,91.924L293.555,96.318z"/>
</g>
<g>
</g>
<g>
</g>
<g>
</g>
<g>
</g>
<g>
</g>
<g>
</g>
<g>
</g>
<g>
</g>
<g>
</g>
<g>
</g>
<g>
</g>
<g>
</g>
<g>
</g>
<g>
</g>
<g>
</g>
</svg>
