<?xml version="1.0" encoding="iso-8859-1"?>
<!-- Generator: Adobe Illustrator 19.0.0, SVG Export Plug-In . SVG Version: 6.00 Build 0)  -->
<svg version="1.1" id="Layer_1" xmlns="http://www.w3.org/2000/svg" xmlns:xlink="http://www.w3.org/1999/xlink" x="0px" y="0px"
	 viewBox="0 0 330 330" style="enable-background:new 0 0 330 330;" xml:space="preserve">
<g id="XMLID_800_">
	<path id="XMLID_801_" d="M15,330h140c8.283,0,15-6.716,15-15v-6.006V300V140v-10.15V85c0-46.869-38.131-85-85-85S0,38.131,0,85v230
		C0,323.284,6.716,330,15,330z M95,270H75c-8.284,0-15-6.716-15-15c0-8.284,6.716-15,15-15h20c8.283,0,15,6.716,15,15
		C110,263.284,103.283,270,95,270z M85,30c30.327,0,55,24.673,55,55s-24.673,55-55,55s-55-24.673-55-55S54.673,30,85,30z"/>
	<path id="XMLID_805_" d="M200,300h115c8.283,0,15-6.716,15-15V155c0-8.284-6.717-15-15-15H200V300z"/>
	<circle id="XMLID_806_" cx="85" cy="85" r="30"/>
</g>
<g>
</g>
<g>
</g>
<g>
</g>
<g>
</g>
<g>
</g>
<g>
</g>
<g>
</g>
<g>
</g>
<g>
</g>
<g>
</g>
<g>
</g>
<g>
</g>
<g>
</g>
<g>
</g>
<g>
</g>
</svg>
