<?xml version="1.0" encoding="iso-8859-1"?>
<!-- Generator: Adobe Illustrator 19.0.0, SVG Export Plug-In . SVG Version: 6.00 Build 0)  -->
<svg version="1.1" id="Layer_1" xmlns="http://www.w3.org/2000/svg" xmlns:xlink="http://www.w3.org/1999/xlink" x="0px" y="0px"
	 viewBox="0 0 350 350" style="enable-background:new 0 0 350 350;" xml:space="preserve">
<g id="XMLID_782_">
	<path id="XMLID_783_" d="M105,319.997h120c6.456,0,12.189-4.131,14.23-10.257l6.581-19.743H84.188l6.581,19.743
		C92.812,315.865,98.544,319.997,105,319.997z"/>
	<path id="XMLID_784_" d="M342.885,72.24c-4.421-2.733-9.943-2.982-14.594-0.656l-46.83,23.418v179.995l46.831,23.415
		c2.117,1.059,4.415,1.583,6.707,1.583c2.743,0,5.479-0.751,7.886-2.24c4.424-2.733,7.115-7.561,7.115-12.76V85
		C350,79.801,347.308,74.973,342.885,72.24z"/>
	<path id="XMLID_785_" d="M30,145.003v-5h30v104.993c0,8.005,6.277,14.528,14.175,14.959l0.014,0.042h177.272V110.003H175v-45
		c0-8.284-6.717-15-15-15H30v-5c0-8.284-6.717-15-15-15c-8.284,0-15,6.716-15,15v20v60v20c0,8.284,6.716,15,15,15
		C23.283,160.003,30,153.288,30,145.003z"/>
</g>
<g>
</g>
<g>
</g>
<g>
</g>
<g>
</g>
<g>
</g>
<g>
</g>
<g>
</g>
<g>
</g>
<g>
</g>
<g>
</g>
<g>
</g>
<g>
</g>
<g>
</g>
<g>
</g>
<g>
</g>
</svg>
