<?xml version="1.0" encoding="iso-8859-1"?>
<!-- Generator: Adobe Illustrator 19.0.0, SVG Export Plug-In . SVG Version: 6.00 Build 0)  -->
<svg xmlns="http://www.w3.org/2000/svg" xmlns:xlink="http://www.w3.org/1999/xlink" version="1.1" id="Capa_1" x="0px" y="0px" viewBox="0 0 512 512" style="enable-background:new 0 0 512 512;" xml:space="preserve">
<g>
	<g>
		<path d="M316.145,147.402c-1.942-10.527-9.377-18.982-19.472-21.243c-2.24-0.502-43.188-9.674-45.364-10.16    c-9.244-2.071-18.54,1.5-24.797,8.553c-12.852-21.031-32.091-42.133-56.373-60.261C108.878,18.552,38.583,8.928,12.291,42.434    c0,0-20.784,23.693-8.298,42.55s58.404,2.055,58.404,2.055s-28.787,13.926-19.252,31.262s57.751,2.929,57.751,2.929    s-16.786,10.625-7.917,23.378c11.644,16.74,51.634,1.087,51.634,1.087l87.167-9.365l-75.289,26.293    c-8.531,2.979-14.169,11.119-13.959,20.154c0.21,9.034,6.219,16.903,14.88,19.483l88.835,26.463    c11.032,3.285,22.631-2.994,25.915-14.019c3.285-11.027-2.991-22.63-14.019-25.915l-27.087-8.069l25.839-9.023l5.823,1.734    c9.903,2.95,17.633,9.695,22.091,18.17c16.071-1.14,26.012-1.845,41.869-2.97v-36.21L316.145,147.402z"/>
	</g>
</g>
<g>
	<g>
		<path d="M300.145,26.004c-22.704-5.086-45.23,9.202-50.314,31.899c-5.084,22.702,9.197,45.228,31.9,50.313    c22.705,5.086,45.23-9.203,50.313-31.899C337.129,53.615,322.847,31.089,300.145,26.004z"/>
	</g>
</g>
<g>
	<g>
		<path d="M299.458,233.002l-20.871,1.481c-9.26,9.482-23.331,13.644-36.915,9.596l-18.917-5.635l-25.997,1.844l-8.881,39.651    l-15.018,51.435l-88.936,4.666c-13.452,0.705-23.784,12.183-23.08,25.635c0.707,13.473,12.212,23.79,25.636,23.079l106.22-5.572    c10.352-0.543,19.229-7.57,22.135-17.521c21.614-74.028,20.235-69.208,20.515-70.457l4.588,1.028l-5.43,67.976l-73.548,89.43    c-8.556,10.404-7.058,25.775,3.345,34.331c10.404,8.557,25.776,7.058,34.331-3.345l78.414-95.345    c3.167-3.851,5.077-8.581,5.475-13.551c8.125-101.709,7.644-94.69,7.56-96.873L299.458,233.002z"/>
	</g>
</g>
<g>
	<g>
		<path d="M436.487,171.145l-58.616-0.395v14.246l63.472-4.503C439.891,177.281,438.268,174.162,436.487,171.145z"/>
	</g>
</g>
<g>
	<g>
		<path d="M470.011,220.901l-5.69,0.404c-0.332,57.691-44.48,105.194-100.784,110.841v-103.69l-22.523,1.598v113.914    c0,6.219,5.041,11.261,11.261,11.261c71.87,0,130.761-56.63,134.397-127.611C480.151,228.843,473.698,226.091,470.011,220.901z"/>
	</g>
</g>
<g>
	<g>
		<path d="M352.274,86.075c-6.22,0-11.261,5.042-11.261,11.261v90.274l22.523-1.598v-76.853h0.001    c42.333,4.245,77.796,32.151,92.931,70.259l10.066-0.714c1.959-4.093,5.576-7.387,10.379-8.788    C456.841,120.788,408.54,86.075,352.274,86.075z"/>
	</g>
</g>
<g>
	<g>
		<path d="M149.078,216.497c-1.401,1.628-2.185,3.786-2.021,6.097c0.331,4.657,4.377,8.149,9.01,7.817l32.079-2.276    C174.789,224.156,155.942,218.541,149.078,216.497z"/>
	</g>
</g>
<g>
	<g>
		<path d="M509.958,193.06c-10.176-3.77-4.325-1.602-27.305-10.114c-2.147-0.795-4.404,0.909-4.221,3.196l0.358,4.458    l-190.034,13.484c0.715,5.572,0.172,11.375-1.841,17.044l193.225-13.71l0.329,4.091c0.186,2.321,2.756,3.643,4.753,2.437    c22.475-13.567,16.182-9.769,25.269-15.253C512.709,197.353,512.44,193.979,509.958,193.06z"/>
	</g>
</g>
<g>
</g>
<g>
</g>
<g>
</g>
<g>
</g>
<g>
</g>
<g>
</g>
<g>
</g>
<g>
</g>
<g>
</g>
<g>
</g>
<g>
</g>
<g>
</g>
<g>
</g>
<g>
</g>
<g>
</g>
</svg>
