<?xml version="1.0" encoding="iso-8859-1"?>
<!-- Generator: Adobe Illustrator 19.0.0, SVG Export Plug-In . SVG Version: 6.00 Build 0)  -->
<svg xmlns="http://www.w3.org/2000/svg" xmlns:xlink="http://www.w3.org/1999/xlink" version="1.1" id="Capa_1" x="0px" y="0px" viewBox="0 0 512.001 512.001" style="enable-background:new 0 0 512.001 512.001;" xml:space="preserve">
<g>
	<g>
		<circle cx="242.428" cy="42.141" r="42.141"/>
	</g>
</g>
<g>
	<g>
		<path d="M483.736,159.455c-0.057-0.017-0.115-0.025-0.172-0.041c1.236-1.599,2.214-3.437,2.823-5.491    c2.637-8.902-2.441-18.257-11.343-20.894c-3.396-1.006-6.854-0.883-9.983,0.14c1.825-3.625,5.158-9.042,9.216-13.512    c1.764-1.943,1.803-4.902,0.083-6.884l-0.002-0.002c-0.918-1.058-2.246-1.675-3.647-1.692s-2.742,0.565-3.688,1.599    c-2.744,2.998-5.193,6.231-6.477,8.172c-1.328-5.865-3.443-10.914-5.787-15.126c2.639,0.778,5.445,1.179,8.314,0.927    c9.304-0.819,18.989-11.296,21.966-14.774c0.252-0.295,0.375-0.677,0.344-1.063c-0.032-0.386-0.217-0.743-0.514-0.993    c-2.946-2.468-11.297-9.023-18.359-10.371c3.821-6.256,4.426-17.099,4.517-20.989c0.009-0.386-0.136-0.761-0.405-1.039    c-0.268-0.278-0.636-0.439-1.022-0.446c-4.205-0.07-16.583,0.156-23.284,4.889c-0.059-0.183-0.111-0.367-0.176-0.55    c-3.129-8.793-15.684-15.529-19.809-17.542c-0.351-0.171-0.756-0.194-1.123-0.064c-0.367,0.13-0.667,0.404-0.831,0.758    c-1.926,4.166-7.404,17.319-4.273,26.113c0.126,0.354,0.264,0.701,0.41,1.043c-8.38,0.608-18.16,8.742-21.346,11.59    c-0.289,0.257-0.462,0.619-0.482,1.006c-0.02,0.386,0.114,0.765,0.374,1.051c2.615,2.882,10.166,10.686,17.149,12.917    c-4.46,5.64-6.486,16.061-7.099,19.854c-0.062,0.382,0.031,0.774,0.26,1.086c0.228,0.313,0.573,0.522,0.956,0.579    c4.527,0.683,18.705,2.269,26.278-3.2c3.311-2.391,5.664-5.69,7.349-9.119c3.266,4.942,6.52,11.823,7.576,20.542    c-1.85-1.736-4.11-3.09-6.709-3.86c-8.902-2.637-18.257,2.441-20.894,11.343c-0.607,2.051-0.788,4.122-0.624,6.134    c-0.004-0.001-0.007-0.003-0.011-0.004c-8.902-2.637-18.257,2.441-20.894,11.343c-1.199,4.05-0.779,8.182,0.85,11.745    l-45.225,16.36l-24.668-56.042c-7.285-16.549-23.674-27.241-41.754-27.241c-56.314,0-55.262,0-98.242,0    c-23.166,0-42.648,17.353-45.317,40.365l-8.287,71.463l-32.773,54.848c-4.472-0.073-8.9,1.384-12.938,3.516l-0.046-8.094    c-0.016-2.902-3.079-4.78-5.672-3.484l-69.935,34.93c-2.945,1.471-2.869,5.713,0.129,7.076l40.939,18.612    c-17.056,13.4-24.588,33.219-16.965,48.482c6.589,13.19,34.36,42.735,58.712,53.722l-2.103,1.05    c-5.175,2.585-7.276,8.875-4.69,14.05c2.585,5.174,8.874,7.275,14.05,4.69l43.401-21.677c5.175-2.585,7.275-8.875,4.69-14.05    c-2.586-5.175-8.875-7.274-14.05-4.69l-2.157,1.077c5.94-26.495-1.107-71.948-10.843-84.145c0.544-5.126,0.707-10.797,0.17-16.831    c3.645-1.65,6.844-4.384,9.051-8.079l38.178-63.891c1.477-2.472,2.412-5.228,2.744-8.088c0,0,6.397-56.852,8.596-75.802    c0.042-0.363,0,182.131,0,344.838c0,13.476,10.924,24.4,24.4,24.4s24.4-10.924,24.4-24.4V292.572h10.534v195.029    c0,13.476,10.924,24.4,24.4,24.4s24.4-10.924,24.4-24.4V141.909l32.072,72.841c4.308,9.786,15.455,14.56,25.502,10.938    l63.872-23.321c1.017,0.616,2.105,1.13,3.279,1.491c-1.124,1.791-2.049,3.782-2.693,5.956    c-3.183,10.743,1.455,21.589,10.357,24.227s18.698-3.933,21.881-14.676c0.644-2.174,0.953-4.348,0.986-6.461    c8.858,2.52,18.431-3.596,21.437-13.744c0.755-2.547,1.024-5.107,0.865-7.555c9.103,2.85,18.515-2.376,21.145-11.255    C497.717,171.447,492.639,162.092,483.736,159.455z M94.243,302.963l-0.094-16.308c2.286-1.949,4.677-3.676,6.871-4.901    c0.626,7.657,5.49,14.529,13.125,17.396c0.207,2.075,0.315,4.103,0.337,6.074C108.435,303.126,101.51,302.336,94.243,302.963z"/>
	</g>
</g>
<g>
</g>
<g>
</g>
<g>
</g>
<g>
</g>
<g>
</g>
<g>
</g>
<g>
</g>
<g>
</g>
<g>
</g>
<g>
</g>
<g>
</g>
<g>
</g>
<g>
</g>
<g>
</g>
<g>
</g>
</svg>
