<?xml version="1.0" encoding="iso-8859-1"?>
<!-- Generator: Adobe Illustrator 19.0.0, SVG Export Plug-In . SVG Version: 6.00 Build 0)  -->
<svg xmlns="http://www.w3.org/2000/svg" xmlns:xlink="http://www.w3.org/1999/xlink" version="1.1" id="Capa_1" x="0px" y="0px" viewBox="0 0 512 512" style="enable-background:new 0 0 512 512;" xml:space="preserve">
<g>
	<g>
		<path d="M369.38,223.324l-5.311,1.074l-6.766,55.372c-0.429,3.515,4.644,4.612,5.703,1.229l19.793-63.272    C378.85,220.381,374.331,222.324,369.38,223.324z"/>
	</g>
</g>
<g>
	<g>
		<path d="M412.384,85.786l-35.404,6.985l11.378-84.208c0.693-5.124-3.869-9.418-8.942-8.417l-43.884,8.658    c-3.194,0.63-5.625,3.238-6.029,6.468L314.14,137.918c-0.638,5.097,3.905,9.34,8.951,8.345l51.772-10.213l-1.835,15.019    c10.648,3.309,19.526,11.317,23.717,22.072l24.303-77.693C422.754,89.993,417.999,84.678,412.384,85.786z"/>
	</g>
</g>
<g>
	<g>
		<path d="M381.649,182.756c-2.196-10.861-12.78-17.889-23.644-15.692l-54.568,11.033l-21.151-48.053    c-7.188-16.331-23.363-26.883-41.205-26.883c-55.657,0-53.942,0-102.254,0c-26.461,0-48.094,21.195-48.225,47.247    c0,0.034,0,0.067,0,0.101v147.415c0,11.081,8.984,20.065,20.065,20.065s20.065-8.984,20.065-20.065v-147.35    c0-0.001,0-0.002,0-0.003c0.027-2.296,1.904-4.139,4.199-4.126c2.297,0.014,4.149,1.88,4.149,4.176c0,203.301,0,16.735,0,337.3    c0,13.299,10.781,24.079,24.079,24.079c13.299,0,24.079-10.781,24.079-24.079V295.455h10.397V487.92    c0,13.299,10.781,24.079,24.079,24.079s24.079-10.781,24.079-24.079c0,0,0-337.081,0-341.147l27.42,62.276    c3.799,8.632,13.096,13.453,22.341,11.584l70.401-14.233C376.82,204.204,383.845,193.617,381.649,182.756z"/>
	</g>
</g>
<g>
	<g>
		<path d="M192.552,6.73c-22.968,0-41.587,18.619-41.587,41.586c0,23.103,18.788,41.587,41.587,41.587    c22.885,0,41.587-18.549,41.587-41.587C234.139,25.349,215.52,6.73,192.552,6.73z"/>
	</g>
</g>
<g>
</g>
<g>
</g>
<g>
</g>
<g>
</g>
<g>
</g>
<g>
</g>
<g>
</g>
<g>
</g>
<g>
</g>
<g>
</g>
<g>
</g>
<g>
</g>
<g>
</g>
<g>
</g>
<g>
</g>
</svg>
