<?xml version="1.0" encoding="iso-8859-1"?>
<!-- Generator: Adobe Illustrator 19.0.0, SVG Export Plug-In . SVG Version: 6.00 Build 0)  -->
<svg xmlns="http://www.w3.org/2000/svg" xmlns:xlink="http://www.w3.org/1999/xlink" version="1.1" id="Capa_1" x="0px" y="0px" viewBox="0 0 512 512" style="enable-background:new 0 0 512 512;" xml:space="preserve">
<g>
	<g>
		<path d="M323.923,444.505c-12.573-10.934-19.949-26.953-20.764-39.261l-23.118-3.411l-12.024,80.973    c-2.065,13.904,7.533,26.85,21.437,28.915c13.909,2.064,26.851-7.539,28.915-21.437l6.661-44.857    C324.66,445.12,324.286,444.821,323.923,444.505z"/>
	</g>
</g>
<g>
	<g>
		<path d="M202.087,482.279l-16.005-94.099c-3.855,4.852-8.947,8.833-15.062,11.408c-11.918,5.016-24.941,3.516-35.122-2.869    l10.95,64.377h-93.12c-14.057,0-25.453,11.396-25.453,25.453s11.396,25.452,25.453,25.452h123.267    C192.754,511.999,204.728,497.804,202.087,482.279z"/>
	</g>
</g>
<g>
	<g>
		<circle cx="195.508" cy="132.813" r="45.785"/>
	</g>
</g>
<g>
	<g>
		<path d="M104.254,339.38l-64.845-9.567c-5.272-0.777-10.162,2.861-10.937,8.125c-0.776,5.264,2.861,10.16,8.125,10.937    l76.398,11.272L104.254,339.38z"/>
	</g>
</g>
<g>
	<g>
		<path d="M312.618,338.211l-65.97-3.044V234.576l55.53-40.96c4.696-3.463,7.68-8.775,8.196-14.587l4.333-48.835l2.391,2.348    c4.472,4.393,11.661,4.331,16.056-0.143c4.394-4.473,4.33-11.662-0.143-16.056l-15.706-15.428l0.495-5.573    c0.994-11.201-7.281-21.088-18.483-22.082c-3.134-0.279-6.155,0.19-8.918,1.225l-22.184-21.788l13.758-14.007    c3.387-3.448,3.338-8.99-0.11-12.378L257.632,2.509c-3.448-3.388-8.99-3.338-12.378,0.11l-13.758,14.007l-2.16-2.122    c-4.472-4.394-11.661-4.33-16.056,0.143c-4.394,4.473-4.33,11.662,0.143,16.056l2.16,2.122l-13.758,14.007    c-3.387,3.448-3.338,8.99,0.11,12.378l24.232,23.804c3.448,3.387,8.99,3.338,12.378-0.11l13.758-14.007l24.796,24.358    l-6.48,73.037l-41.684,30.747c-4.008-1.897-8.487-2.962-13.216-2.962h-55.155c-17.081,0-30.929,13.847-30.929,30.929v6.946    l22.367-17.164l-45.437,56.682c-4.673,5.83-5.778,13.749-2.879,20.635l33.756,80.198c4.364,10.368,16.305,15.229,26.667,10.867    c10.365-4.362,15.23-16.302,10.867-26.667l-29.053-69.022l37.853-47.22l-20.153,43.345l21.315,50.639    c6.362,0.939,144.144,21.266,150.934,22.268C332.786,345.934,323.358,338.707,312.618,338.211z"/>
	</g>
</g>
<g>
	<g>
		<path d="M477.78,397.867c-8.785,0-92.087,0-101.03,0c3.195-1.182,5.663-4.024,6.195-7.632c0.776-5.264-2.861-10.161-8.125-10.937    L192.438,352.39c2.17,6.525,2.482,13.282,1.175,19.651l175.052,25.826h-43.852c-3.633,0-6.421,3.241-5.889,6.82    c3.278,22.073,22.336,39.216,45.534,39.216h14.151v38.572h-15.67c-3.282,0-5.946,2.661-5.946,5.946v17.634    c0,3.284,2.662,5.946,5.946,5.946h99.097c3.284,0,5.946-2.662,5.946-5.946V488.42c0-3.284-2.662-5.946-5.946-5.946h-15.671    v-38.572h31.412c3.284,0,5.946-2.662,5.946-5.946v-34.143C483.726,400.518,481.052,397.867,477.78,397.867z"/>
	</g>
</g>
<g>
</g>
<g>
</g>
<g>
</g>
<g>
</g>
<g>
</g>
<g>
</g>
<g>
</g>
<g>
</g>
<g>
</g>
<g>
</g>
<g>
</g>
<g>
</g>
<g>
</g>
<g>
</g>
<g>
</g>
</svg>
