<?xml version="1.0" encoding="iso-8859-1"?>
<!-- Generator: Adobe Illustrator 19.0.0, SVG Export Plug-In . SVG Version: 6.00 Build 0)  -->
<svg xmlns="http://www.w3.org/2000/svg" xmlns:xlink="http://www.w3.org/1999/xlink" version="1.1" id="Capa_1" x="0px" y="0px" viewBox="0 0 512 512" style="enable-background:new 0 0 512 512;" xml:space="preserve">
<g>
	<g>
		<path d="M111.729,390.71l-9.742-57.273l-3.291-0.821c-1.995,1.804-4.318,3.312-6.937,4.414c-7.7,3.241-16.117,2.252-22.677-1.906    l7.139,41.968h-59.86C7.325,377.092,0,384.417,0,393.453c0,9.036,7.325,16.361,16.361,16.361h79.238    C105.731,409.814,113.426,400.686,111.729,390.71z"/>
	</g>
</g>
<g>
	<g>
		<path d="M154.082,346.436l-0.151,46.965c-0.029,9.035,7.272,16.385,16.309,16.413c0.018,0,0.035,0,0.053,0    c9.011,0,16.331-7.291,16.36-16.309l0.126-38.911L154.082,346.436z"/>
	</g>
</g>
<g>
	<g>
		<path d="M136.731,120.295c-0.81-1.911-3.663-1.475-3.851,0.605c-0.676,7.502-3.984,14.599-9.364,19.957    c-4.61-2.997-10.108-4.745-16.016-4.745c-6.007,0-11.59,1.803-16.246,4.893c-5.467-5.376-8.828-12.536-9.51-20.106    c-0.186-2.072-3.038-2.523-3.851-0.605c-4.57,10.779-2.812,22.649,3.593,31.484c-2.179,4.109-3.418,8.791-3.418,13.765    c0,16.254,13.177,29.431,29.431,29.431s29.431-13.176,29.431-29.431c0-5.096-1.296-9.889-3.575-14.069    C139.582,142.672,141.249,130.95,136.731,120.295z"/>
	</g>
</g>
<g>
	<g>
		<path d="M47.858,295.994l-38.03-9.49c-3.318-0.824-6.681,1.19-7.508,4.51c-0.828,3.318,1.19,6.679,4.51,7.508l47.033,11.737    L47.858,295.994z"/>
	</g>
</g>
<g>
	<g>
		<path d="M260.866,351.951c-9.162-5.027-17.016-9.335-37.254-20.437c-1.841-1.01-4.143,0.01-4.632,2.053l-1.158,4.84    l-111.335-27.783c0.668,4.257,0.181,8.538-1.292,12.444l109.744,27.385l-1.174,4.905c-0.489,2.043,1.103,3.994,3.201,3.927    c12.742-0.406,6.415-0.204,42.469-1.354C262.654,357.828,263.708,353.51,260.866,351.951z"/>
	</g>
</g>
<g>
	<g>
		<path d="M171.462,298.11l-31.088-1.74v-52.842l23.256,14.482c3.187,1.985,7.072,2.502,10.659,1.432l46.137-13.759    c-3.543-7.851-5.793-16.399-6.488-25.382l-41.478,12.37c-22.88-14.247-34.13-21.186-39.65-24.562    c-3.413-2.087-7.329-3.186-11.328-3.186H85.036c-10.98,0-19.881,8.901-19.881,19.881v4.465l14.378-11.034l-29.208,36.436    c-3.003,3.747-3.714,8.838-1.851,13.265l21.701,51.553c2.838,6.742,10.66,9.861,17.373,6.886    c6.586-2.919,9.381-10.802,6.586-17.442l-18.508-43.969l24.333-30.353l-12.954,27.862l15.106,35.888    c7.375,1.84,72.669,18.134,84.783,21.156l0.016-5.019C186.937,305.797,180.15,298.596,171.462,298.11z"/>
	</g>
</g>
<g>
	<g>
		<path d="M340.098,236.342c-61.101,2.447-57.432,2.311-58.213,2.311c-12.965,0-23.726-10.243-24.249-23.314    c-0.536-13.402,9.893-24.702,23.294-25.238l50.114-2.006l12.852-8.983c-11.496-17.508-31.294-29.078-53.804-29.078    c-35.53,0-64.334,28.803-64.334,64.334s28.803,64.334,64.334,64.334c29.11-0.001,53.692-19.34,61.63-45.868    C348.213,234.963,344.216,236.177,340.098,236.342z"/>
	</g>
</g>
<g>
	<g>
		<path d="M506.352,381.089l-56.49-48.946l-9.754-35.909c-6.732,8.054-18.17,11.157-28.35,6.872    c-1.549-0.652-2.995-1.445-4.332-2.357l12.163,44.783c0.852,3.137,2.619,5.948,5.075,8.076l60.258,52.211    c6.83,5.918,17.163,5.177,23.079-1.651C513.922,397.338,513.182,387.005,506.352,381.089z"/>
	</g>
</g>
<g>
	<g>
		<path d="M453.193,220.747l-29.207-36.436l14.377,11.033v-4.465c0-10.98-8.901-19.881-19.881-19.881h-37.129    c-4.071,0-8.042,1.247-11.382,3.574c-5.099,3.552-15.208,10.605-35.201,24.58l-53.021,2.123    c-7.059,0.283-12.91,5.964-12.936,13.03c-0.027,7.525,6.226,13.448,13.613,13.142l57.224-2.291    c2.502-0.101,4.923-0.916,6.976-2.35l16.52-11.548v63.225l-35.555,26.919c-4.1,3.104-6.502,7.955-6.486,13.097l0.255,79.008    c0.029,9.015,7.345,16.308,16.36,16.308h0.053c9.036-0.029,16.338-7.378,16.309-16.413l-0.228-70.84l39.195-29.675h7.053    c-0.789-1.35-1.448-2.771-1.967-4.243c-1.957-5.554-1.936-11.825,0.528-17.68c8.263-19.629,9.415-22.366,17.854-42.416    l-12.955-27.863l24.333,30.354l-18.676,44.369c-2.804,6.663,0.323,14.338,6.986,17.142c6.658,2.803,14.336-0.32,17.142-6.986    l21.7-51.552C456.907,229.586,456.197,224.495,453.193,220.747z"/>
	</g>
</g>
<g>
	<g>
		<circle cx="396.019" cy="131.615" r="29.43"/>
	</g>
</g>
<g>
</g>
<g>
</g>
<g>
</g>
<g>
</g>
<g>
</g>
<g>
</g>
<g>
</g>
<g>
</g>
<g>
</g>
<g>
</g>
<g>
</g>
<g>
</g>
<g>
</g>
<g>
</g>
<g>
</g>
</svg>
