<?xml version="1.0" encoding="iso-8859-1"?>
<!-- Generator: Adobe Illustrator 19.0.0, SVG Export Plug-In . SVG Version: 6.00 Build 0)  -->
<svg xmlns="http://www.w3.org/2000/svg" xmlns:xlink="http://www.w3.org/1999/xlink" version="1.1" id="Capa_1" x="0px" y="0px" viewBox="0 0 511.999 511.999" style="enable-background:new 0 0 511.999 511.999;" xml:space="preserve">
<g>
	<g>
		<path d="M245.046,50.565C248.224,23.444,227.046,0,200.123,0c-24.988,0-45.245,20.257-45.245,45.245s20.258,45.245,45.245,45.245    c14.95,0,28.202-7.255,36.44-18.432h28.409l12.022-21.493H245.046z"/>
	</g>
</g>
<g>
	<g>
		<path d="M405.47,23.415c-2.455,0-4.808,0.809-6.986,2.291c-15.809,10.753-33.549,18.183-52.113,21.965    c4.162,8.475,5.095,18.394,2.223,27.725c17.741,3.896,34.642,11.15,49.89,21.521c2.178,1.482,4.531,2.291,6.986,2.291    c11.246,0,20.362-16.967,20.362-37.897S416.716,23.415,405.47,23.415z"/>
	</g>
</g>
<g>
	<g>
		<path d="M268.262,163.598c7.198,0,13.96-3.871,17.555-10.3l44.268-79.146c5.425-9.698,1.96-21.959-7.739-27.383    c-9.7-5.424-21.96-1.96-27.384,7.739l-37.372,66.817l-52.019-8.579l29.878-2.819c-4.513-2.628-9.755-4.14-15.354-4.14H165.59    c-16.88,0-30.564,13.684-30.564,30.564v156.816h0.027l-3.264,77.983L88.07,477.259c-5.292,12.844,0.83,27.545,13.674,32.837    c12.837,5.291,27.544-0.826,32.837-13.674L179.99,386.21c1.118-2.712,1.753-5.599,1.874-8.53    c3.75-89.603,3.509-83.511,3.51-84.517h12.005l28.725,78.319l16.166,118.753c1.874,13.773,14.559,23.405,28.315,21.529    c13.764-1.873,23.404-14.551,21.529-28.316l-16.533-121.458c-0.244-1.799-0.683-3.565-1.308-5.269l-23.614-64.383V175.571    l-51.638-23.12C270.888,164.303,265.909,163.598,268.262,163.598z"/>
	</g>
</g>
<g>
</g>
<g>
</g>
<g>
</g>
<g>
</g>
<g>
</g>
<g>
</g>
<g>
</g>
<g>
</g>
<g>
</g>
<g>
</g>
<g>
</g>
<g>
</g>
<g>
</g>
<g>
</g>
<g>
</g>
</svg>
