<?xml version="1.0" encoding="iso-8859-1"?>
<!-- Generator: Adobe Illustrator 19.0.0, SVG Export Plug-In . SVG Version: 6.00 Build 0)  -->
<svg xmlns="http://www.w3.org/2000/svg" xmlns:xlink="http://www.w3.org/1999/xlink" version="1.1" id="Capa_1" x="0px" y="0px" viewBox="0 0 512 512" style="enable-background:new 0 0 512 512;" xml:space="preserve">
<g>
	<g>
		<path d="M398.733,234.434l-57.401-31.653l-13.541-47.385l16.117,27.725l-1.986-53.21l-44.216-21.972    c-12.499-6.211-27.247-2.892-35.989,7.181c-13.218-30.226-40.327-59.66-77.292-80.158C115.807-3.09,39.041,3.95,12.036,50.483    c0,0-21.477,33.48-7.053,52.516C19.407,122.035,68.491,90.12,68.491,90.12s-30.615,24.023-19.466,42.033    c11.15,18.01,62.839-11.672,62.839-11.672s-17.737,16.971-7.521,29.732c13.414,16.754,56.112-12.248,56.112-12.248    s-13.918,14.705-3.76,24.108c10.159,9.402,39.21-6.025,39.21-6.025s20.768,8.514,33.795,21.353l-40.174,80.842    c-2.77,4.663-3.995,10.282-3.088,16.059l8.31,52.928l11.462-15.814c3.348-4.618,7.642-8.471,12.595-11.301l13.192-7.537    c-1.797-10.261,2.27-20.605,10.13-27.108l0.073-0.06l0.073-0.059l51.121-41.361l-1.754-58.262l15.689,54.905    c1.376,4.814,4.614,8.879,8.997,11.297l64.25,35.429c9.087,5.012,20.524,1.711,25.54-7.385    C411.131,250.882,407.826,239.446,398.733,234.434z"/>
	</g>
</g>
<g>
	<g>
		<path d="M360.967,471.236l-17.445-76.729l-12.674-10.644l-14.077,10.794l4.766,80.509c0.351,5.941-0.618,11.652-2.637,16.861    c5.633,6.748,14.722,10.179,23.883,8.096C355.78,497.168,363.922,484.235,360.967,471.236z"/>
	</g>
</g>
<g>
	<g>
		<path d="M399.102,35.516c-21.956-10.912-48.601-1.957-59.513,20c-7.018,14.123-5.807,30.179,1.786,42.747    c2.914-14.606,15.442-25.931,30.994-26.695c18.354-0.902,33.963,13.245,34.866,31.599l0.314,6.387    c4.693-3.857,8.674-8.733,11.552-14.525C430.013,73.073,421.059,46.428,399.102,35.516z"/>
	</g>
</g>
<g>
	<g>
		<path d="M236.979,405.817l-31.756,43.81c-9.743,13.442-26.355,19.149-41.738,15.525l-1.1,2.918    c-4.704,12.472,1.593,26.397,14.066,31.101c12.475,4.704,26.398-1.596,31.101-14.066l29.492-78.193L236.979,405.817z"/>
	</g>
</g>
<g>
	<g>
		<path d="M300.157,387.063l18.036-13.831l-26.503-22.259l-25.531,14.585l-14.237,19.641l5.549,93.759    c0.784,13.243,12.152,23.343,25.397,22.559c13.242-0.784,23.342-12.154,22.558-25.397L300.157,387.063z"/>
	</g>
</g>
<g>
	<g>
		<path d="M239.425,306.922l-12.614,7.206c-2.963,1.692-5.531,3.997-7.534,6.76l-66.015,91.076    c-7.786,10.741-5.39,25.76,5.351,33.545c10.744,7.787,25.763,5.384,33.545-5.352l62.978-86.885l23.385-13.359    C237.93,305.821,240.773,308.276,239.425,306.922z"/>
	</g>
</g>
<g>
	<g>
		<path d="M470.378,180.513c-12.635-10.611-20.641-17.336-32.025-26.897c-4.233-3.555-9.489-5.318-14.87-5.318    c-4.369,0-8.821,1.165-12.877,3.473l20.51,13.036l-35.865-10.635l-2.472-50.295c-0.51-10.37-9.323-18.367-19.7-17.854    c-10.37,0.51-18.363,9.33-17.853,19.7l3.127,63.607c0.391,7.973,5.778,14.83,13.432,17.1l48.64,14.425l-52.755-0.549    c-0.322-0.003-0.637-0.04-0.956-0.056l39.01,21.511c16.092,8.873,21.943,29.112,13.07,45.203    c-8.873,16.092-29.112,21.943-45.203,13.07c-41.025-22.659-72.407-40.206-72.407-40.206L253.1,278.73    c-5.405,4.473-5.771,12.51-0.826,16.663c23.908,20.08,85.596,71.89,109.521,91.984c4.947,4.156,12.812,2.381,16.27-3.692    l96.904-171.758C481.142,201.083,479.236,187.953,470.378,180.513z"/>
	</g>
</g>
<g>
	<g>
		<path d="M500.462,76.09c-15.855-16.539-42.117-17.093-58.656-1.237c-17.695,16.964-16.94,45.568,1.846,61.563    c15.897,13.541,39.981,13.275,55.571-1.671C515.764,118.891,516.317,92.629,500.462,76.09z"/>
	</g>
</g>
<g>
</g>
<g>
</g>
<g>
</g>
<g>
</g>
<g>
</g>
<g>
</g>
<g>
</g>
<g>
</g>
<g>
</g>
<g>
</g>
<g>
</g>
<g>
</g>
<g>
</g>
<g>
</g>
<g>
</g>
</svg>
