<?xml version="1.0" encoding="iso-8859-1"?>
<!-- Generator: Adobe Illustrator 19.0.0, SVG Export Plug-In . SVG Version: 6.00 Build 0)  -->
<svg xmlns="http://www.w3.org/2000/svg" xmlns:xlink="http://www.w3.org/1999/xlink" version="1.1" id="Capa_1" x="0px" y="0px" viewBox="0 0 512.001 512.001" style="enable-background:new 0 0 512.001 512.001;" xml:space="preserve">
<g>
	<g>
		<path d="M283.051,157.752c6.719-27.456,31.802-47.951,61.548-47.951h4.21c-5.712-7.846-9.479-17.191-10.578-27.328L228.551,1.536    c-2.768-2.044-6.544-2.049-9.319-0.015L25.455,143.544c-2.743,2.01-3.883,5.557-2.825,8.789c1.058,3.232,4.074,5.419,7.474,5.419    h20.339v205.242H28.129c-3.945,0-7.142,3.197-7.142,7.142v43.018c0,3.945,3.197,7.142,7.142,7.142h298.696v-57.302h-69.869    V157.752H283.051z M190.838,362.994h-74.278V157.752h74.278V362.994z"/>
	</g>
</g>
<g>
	<g>
		<path d="M445.695,127.814c-45.108,0-56.118,0-101.095,0c-24.831,0-45.194,19.935-45.317,44.399c0,0.031,0,0.063,0,0.094v138.526    c0,10.414,8.442,18.856,18.856,18.856c10.388,0,18.856-8.46,18.856-18.856V172.398c0-0.001,0-0.001,0-0.002    c0.015-2.162,1.775-3.904,3.936-3.896c2.161,0.008,3.909,1.762,3.909,3.924c0,30.316,0,157.348,0,316.95    c0,12.538,10.19,22.628,22.628,22.628c12.493,0,22.628-10.127,22.628-22.628c0-12.142,0-174.986,0-180.859h9.768    c0,5.702,0,168.721,0,180.859c0,12.499,10.132,22.628,22.628,22.628c12.496,0,22.628-10.13,22.628-22.628V172.416    c0-2.252,1.818-4.08,4.07-4.093c2.252-0.012,4.091,1.796,4.115,4.048c0,0.001,0,0.003,0,0.004v138.458    c0,10.414,8.442,18.856,18.856,18.856c10.399,0,18.856-8.423,18.856-18.856V172.212    C490.891,147.731,470.561,127.814,445.695,127.814z"/>
	</g>
</g>
<g>
	<g>
		<path d="M394.981,37.201c-22.308,0-40.175,18.672-39.028,41.11c1.048,20.411,17.926,37.047,39.028,37.047    c21.583,0,39.079-17.496,39.079-39.079C434.06,54.832,416.675,37.201,394.981,37.201z"/>
	</g>
</g>
<g>
</g>
<g>
</g>
<g>
</g>
<g>
</g>
<g>
</g>
<g>
</g>
<g>
</g>
<g>
</g>
<g>
</g>
<g>
</g>
<g>
</g>
<g>
</g>
<g>
</g>
<g>
</g>
<g>
</g>
</svg>
