<?xml version="1.0" encoding="iso-8859-1"?>
<!-- Generator: Adobe Illustrator 19.0.0, SVG Export Plug-In . SVG Version: 6.00 Build 0)  -->
<svg xmlns="http://www.w3.org/2000/svg" xmlns:xlink="http://www.w3.org/1999/xlink" version="1.1" id="Capa_1" x="0px" y="0px" viewBox="0 0 512 512" style="enable-background:new 0 0 512 512;" xml:space="preserve">
<g>
	<g>
		<path d="M408.893,121.046c-7.277-5.756-17.285-6.364-26.3-5.206l5.582-11.338c1.608-3.265-0.776-7.088-4.411-7.088h-72.08    c-3.639,0-6.016,3.826-4.411,7.088l5.591,11.356c-9.051-1.181-19.124-0.599-26.439,5.187c-5.185,4.102-10.831,12.297-8.267,28.042    c2.091,12.839,6.491,23.939,11.561,33.153c-1.22,3.602-1.891,7.376-1.958,11.262c12.325,3.732,20.526,6.216,32.595,9.87    c19.742,5.969,31.265,26.931,25.175,47.044c-4.403,14.542-16.797,24.463-30.918,26.434c3.234,5.388,6.688,10.273,10.32,14.377    h-5.323c-2.11,0-3.821,1.71-3.821,3.821V313.3c0,2.11,1.71,3.821,3.821,3.821h56.226c2.11,0,3.821-1.711,3.821-3.821v-18.251    c0-2.111-1.71-3.821-3.821-3.821h-5.323c21.824-24.651,37.194-77.624,37.194-97.094c0-4.162-0.712-8.195-2.029-12.034    c5.037-9.185,9.403-20.24,11.483-33.012C419.724,133.344,414.079,125.149,408.893,121.046z M302.339,163.681    c-2.182-5.357-3.965-11.27-5.013-17.713c-0.381-2.338-1.031-7.963,1.144-9.689c3.751-2.976,15.928-1.209,25.588,2.313    l5.476,11.123C318.86,152.354,309.491,157.251,302.339,163.681z M397.993,145.968c-1.04,6.389-2.819,12.268-4.999,17.609    c-7.138-6.379-16.463-11.237-27.078-13.86l5.504-11.181c9.635-3.485,21.698-5.217,25.429-2.257    C399.024,138.005,398.374,143.63,397.993,145.968z"/>
	</g>
</g>
<g>
	<g>
		<circle cx="208.16" cy="45.245" r="45.245"/>
	</g>
</g>
<g>
	<g>
		<path d="M315.255,220.224l-74.184-22.463l-28.433-59.496l34.505,42.939l11.552,3.498v-48.353c0-16.88-13.684-30.564-30.564-30.564    h-54.505c-16.88,0-30.564,13.684-30.564,30.564v156.816h0.027l-3.263,77.983L96.105,477.259    c-5.292,12.845,0.83,27.546,13.675,32.838c12.836,5.291,27.543-0.826,32.838-13.674l45.409-110.212    c1.117-2.712,1.752-5.599,1.874-8.53c3.75-89.603,3.509-83.511,3.51-84.517h12.005l28.726,78.319l16.165,118.753    c1.88,13.81,14.601,23.404,28.315,21.529c13.764-1.873,23.404-14.55,21.529-28.315l-16.534-121.459    c-0.245-1.799-0.684-3.565-1.309-5.269l-23.614-64.382v-28.8c-11.414-3.456-38.924-11.785-49.523-14.996    c-8.599-2.604-14.664-9.64-16.471-17.832l-16.374-75.098l32.26,67.506c2.438,5.103,6.911,8.944,12.324,10.583l82.682,25.036    c10.649,3.225,21.872-2.802,25.09-13.426C331.903,234.678,325.892,223.445,315.255,220.224z"/>
	</g>
</g>
<g>
</g>
<g>
</g>
<g>
</g>
<g>
</g>
<g>
</g>
<g>
</g>
<g>
</g>
<g>
</g>
<g>
</g>
<g>
</g>
<g>
</g>
<g>
</g>
<g>
</g>
<g>
</g>
<g>
</g>
</svg>
