<?xml version="1.0" encoding="iso-8859-1"?>
<!-- Generator: Adobe Illustrator 19.0.0, SVG Export Plug-In . SVG Version: 6.00 Build 0)  -->
<svg version="1.1" id="Layer_1" xmlns="http://www.w3.org/2000/svg" xmlns:xlink="http://www.w3.org/1999/xlink" x="0px" y="0px"
	 viewBox="0 0 512 512" style="enable-background:new 0 0 512 512;" xml:space="preserve">
<g>
	<g>
		<g>
			<path d="M506.047,309.814H5.953c-3.288,0-5.953,2.665-5.953,5.953v29.679c0,23.016,18.658,41.674,41.674,41.674h147.094
				l-18.305,75.482h-22.615c-9.864,0-17.86,7.997-17.86,17.86c0,9.864,7.997,17.86,17.86,17.86h216.302
				c9.864,0,17.86-7.997,17.86-17.86c0-9.864-7.997-17.86-17.86-17.86h-22.615l-18.305-75.482h147.094
				c23.016,0,41.674-18.658,41.674-41.674v-29.679C512,312.48,509.335,309.814,506.047,309.814z"/>
			<path d="M470.326,13.676H41.674C18.658,13.676,0,32.334,0,55.35v224.697C0,283.335,2.666,286,5.953,286h500.093
				c3.289,0,5.953-2.665,5.953-5.953V55.35C512,32.334,493.342,13.676,470.326,13.676z M136.291,229.731
				c0,6.576-5.332,11.907-11.907,11.907H72.365c-6.575,0-11.907-5.331-11.907-11.907v-98.723c0-6.576,5.332-11.907,11.907-11.907
				h52.019c6.575,0,11.907,5.331,11.907,11.907V229.731z M241.375,229.731c0,6.576-5.331,11.907-11.907,11.907h-52.019
				c-6.575,0-11.907-5.331-11.907-11.907V94.371c0-6.576,5.332-11.907,11.907-11.907h52.019c6.576,0,11.907,5.331,11.907,11.907
				V229.731z M346.458,229.731c0,6.576-5.332,11.907-11.907,11.907h-52.019c-6.576,0-11.907-5.331-11.907-11.907V69.946
				c0-6.576,5.331-11.907,11.907-11.907h52.019c6.575,0,11.907,5.331,11.907,11.907V229.731z M451.542,229.731
				c0,6.576-5.332,11.907-11.907,11.907h-52.019c-6.576,0-11.907-5.331-11.907-11.907V143.22c0-6.576,5.331-11.907,11.907-11.907
				h52.019c6.575,0,11.907,5.331,11.907,11.907V229.731z"/>
		</g>
	</g>
</g>
<g>
</g>
<g>
</g>
<g>
</g>
<g>
</g>
<g>
</g>
<g>
</g>
<g>
</g>
<g>
</g>
<g>
</g>
<g>
</g>
<g>
</g>
<g>
</g>
<g>
</g>
<g>
</g>
<g>
</g>
</svg>
