<?xml version="1.0" encoding="iso-8859-1"?>
<!-- Generator: Adobe Illustrator 19.0.0, SVG Export Plug-In . SVG Version: 6.00 Build 0)  -->
<svg version="1.1" id="Layer_1" xmlns="http://www.w3.org/2000/svg" xmlns:xlink="http://www.w3.org/1999/xlink" x="0px" y="0px"
	 viewBox="0 0 512 512" style="enable-background:new 0 0 512 512;" xml:space="preserve">
<g>
	<g>
		<g>
			<path d="M472.178,34.62H39.822C17.829,34.62,0,52.449,0,74.442v45.263c0,3.141,2.547,5.689,5.689,5.689h500.622
				c3.141,0,5.689-2.547,5.689-5.689V74.442C512,52.449,494.171,34.62,472.178,34.62z M71.805,92.844
				c-7.09,0-12.836-5.747-12.836-12.836s5.747-12.836,12.836-12.836c7.089,0,12.836,5.747,12.836,12.836
				C84.642,87.097,78.895,92.844,71.805,92.844z M112.957,92.844c-7.09,0-12.836-5.747-12.836-12.836s5.747-12.836,12.836-12.836
				s12.836,5.747,12.836,12.836C125.794,87.097,120.046,92.844,112.957,92.844z M154.109,92.844
				c-7.089,0-12.836-5.747-12.836-12.836s5.747-12.836,12.836-12.836c7.09,0,12.836,5.747,12.836,12.836
				C166.945,87.097,161.198,92.844,154.109,92.844z"/>
			<path d="M102.014,214.819v195.891h307.971c0.01,0,0.015-0.001,0.015-0.001l-0.015-195.89H102.014z M315.209,322.904
				l-96.711,49.267c-7.518,3.83-16.542-1.602-16.542-10.139v-98.534c0-8.505,9.002-13.98,16.542-10.139l96.711,49.267
				C323.48,306.842,323.478,318.689,315.209,322.904z"/>
			<path d="M506.311,148.15H5.689c-3.141,0-5.689,2.547-5.689,5.689v283.719c0,21.993,17.829,39.822,39.822,39.822h432.356
				c21.993,0,39.822-17.829,39.822-39.822V153.839C512,150.697,509.454,148.15,506.311,148.15z M432.741,410.711
				c0,12.547-10.208,22.756-22.756,22.756H102.014c-12.547,0-22.756-10.208-22.756-22.756V214.819
				c0-12.547,10.208-22.756,22.756-22.756h307.971c12.547,0,22.756,10.208,22.756,22.756V410.711z"/>
		</g>
	</g>
</g>
<g>
</g>
<g>
</g>
<g>
</g>
<g>
</g>
<g>
</g>
<g>
</g>
<g>
</g>
<g>
</g>
<g>
</g>
<g>
</g>
<g>
</g>
<g>
</g>
<g>
</g>
<g>
</g>
<g>
</g>
</svg>
