<?xml version="1.0" encoding="iso-8859-1"?>
<!-- Generator: Adobe Illustrator 19.0.0, SVG Export Plug-In . SVG Version: 6.00 Build 0)  -->
<svg version="1.1" id="Layer_1" xmlns="http://www.w3.org/2000/svg" xmlns:xlink="http://www.w3.org/1999/xlink" x="0px" y="0px"
	 viewBox="0 0 512 512" style="enable-background:new 0 0 512 512;" xml:space="preserve">
<g>
	<g>
		<g>
			<path d="M472.178,34.62H39.822C17.829,34.62,0,52.449,0,74.442v45.263c0,3.141,2.547,5.689,5.689,5.689h500.622
				c3.141,0,5.689-2.547,5.689-5.689V74.442C512,52.449,494.171,34.62,472.178,34.62z M71.805,92.844
				c-7.09,0-12.836-5.747-12.836-12.836s5.747-12.836,12.836-12.836c7.089,0,12.836,5.747,12.836,12.836
				C84.642,87.097,78.895,92.844,71.805,92.844z M112.957,92.844c-7.09,0-12.836-5.747-12.836-12.836s5.747-12.836,12.836-12.836
				s12.836,5.747,12.836,12.836C125.793,87.097,120.046,92.844,112.957,92.844z M154.109,92.844
				c-7.089,0-12.836-5.747-12.836-12.836s5.747-12.836,12.836-12.836c7.09,0,12.836,5.747,12.836,12.836
				C166.945,87.097,161.198,92.844,154.109,92.844z"/>
			<path d="M372.027,319.985h-89.858c-7.85,0-14.212,6.362-14.212,14.212v70.121c0,7.85,6.364,14.212,14.212,14.212h89.858
				c7.849,0,14.213-6.364,14.213-14.212v-70.121C386.24,326.349,379.877,319.985,372.027,319.985z"/>
			<path d="M229.83,319.985h-89.858c-7.849,0-14.212,6.362-14.212,14.212v70.121c0,7.85,6.364,14.212,14.212,14.212h89.858
				c7.85,0,14.212-6.364,14.212-14.212v-70.121C244.043,326.349,237.68,319.985,229.83,319.985z"/>
			<path d="M229.83,206.999h-89.858c-7.849,0-14.212,6.364-14.212,14.213v70.122c0,7.849,6.364,14.212,14.212,14.212h89.858
				c7.85,0,14.212-6.362,14.212-14.212v-70.122C244.043,213.362,237.68,206.999,229.83,206.999z"/>
			<path d="M372.027,206.999h-89.858c-7.85,0-14.212,6.364-14.212,14.213v70.122c0,7.849,6.364,14.212,14.212,14.212h89.858
				c7.849,0,14.213-6.362,14.213-14.212v-70.122C386.24,213.362,379.877,206.999,372.027,206.999z"/>
			<path d="M506.311,148.15c-20.518,0-477.331,0-500.622,0c-3.143,0-5.689,2.547-5.689,5.689v283.719
				c0,21.993,17.829,39.822,39.822,39.822c11.418,0,420.539,0,432.356,0c21.993,0,39.822-17.829,39.822-39.822V153.839
				C512,150.697,509.453,148.15,506.311,148.15z M427.123,178.049v269.433v1.454c0,3.141-2.546,5.689-5.689,5.689H90.565v0
				c-3.141,0-5.689-2.547-5.689-5.689v-1.454V178.049v-1.454c0-3.143,2.547-5.689,5.689-5.689h330.869
				c3.143,0,5.689,2.546,5.689,5.689V178.049z"/>
		</g>
	</g>
</g>
<g>
</g>
<g>
</g>
<g>
</g>
<g>
</g>
<g>
</g>
<g>
</g>
<g>
</g>
<g>
</g>
<g>
</g>
<g>
</g>
<g>
</g>
<g>
</g>
<g>
</g>
<g>
</g>
<g>
</g>
</svg>
