<?xml version="1.0" encoding="iso-8859-1"?>
<!-- Generator: Adobe Illustrator 19.0.0, SVG Export Plug-In . SVG Version: 6.00 Build 0)  -->
<svg version="1.1" id="Layer_1" xmlns="http://www.w3.org/2000/svg" xmlns:xlink="http://www.w3.org/1999/xlink" x="0px" y="0px"
	 viewBox="0 0 512 512" style="enable-background:new 0 0 512 512;" xml:space="preserve">
<g>
	<g>
		<g>
			<path d="M512,299.71c0-10.47-8.489-18.959-18.959-18.959h-63.937v-67.486l61.727-61.727c7.404-7.404,7.404-19.408,0-26.812
				c-7.403-7.404-19.408-7.404-26.812,0l-34.915,34.915v-1.497c0-25.225-20.449-45.673-45.673-45.673c-2.707,0-105.905,0-108.472,0
				c-3.491,0-6.32,2.83-6.32,6.32v364.143c0,3.751,3.253,6.711,6.981,6.289c52.434-5.942,97.838-35.403,125.383-77.546
				l63.016,63.016c17.637,17.639,44.722-8.903,26.812-26.812l-71.971-71.971c6.471-17.904,10.063-37.171,10.228-57.242h63.954v0
				C503.511,318.669,512,310.18,512,299.71z"/>
			<path d="M167.016,87.193h177.968c4.856,0,7.897-5.25,5.492-9.468c-41.787-73.289-147.131-73.347-188.951,0
				C159.119,81.943,162.16,87.193,167.016,87.193z"/>
			<path d="M237.041,112.471c-2.35,0-106.812,0-108.472,0c-25.224,0-45.673,20.449-45.673,45.673v1.497l-34.915-34.915
				c-7.403-7.404-19.408-7.404-26.812,0s-7.404,19.408,0,26.812l61.727,61.727v67.486H18.959C8.489,280.751,0,289.24,0,299.71
				s8.489,18.959,18.959,18.959h63.954c0.164,20.071,3.756,39.337,10.228,57.242L21.17,447.882c-7.404,7.404-7.404,19.408,0,26.812
				c7.403,7.403,19.408,7.404,26.812,0l63.014-63.016c27.545,42.143,72.95,71.604,125.383,77.546
				c3.727,0.422,6.981-2.538,6.981-6.289V118.791C243.361,115.3,240.532,112.471,237.041,112.471z"/>
		</g>
	</g>
</g>
<g>
</g>
<g>
</g>
<g>
</g>
<g>
</g>
<g>
</g>
<g>
</g>
<g>
</g>
<g>
</g>
<g>
</g>
<g>
</g>
<g>
</g>
<g>
</g>
<g>
</g>
<g>
</g>
<g>
</g>
</svg>
