<?xml version="1.0" encoding="iso-8859-1"?>
<!-- Generator: Adobe Illustrator 19.0.0, SVG Export Plug-In . SVG Version: 6.00 Build 0)  -->
<svg version="1.1" id="Layer_1" xmlns="http://www.w3.org/2000/svg" xmlns:xlink="http://www.w3.org/1999/xlink" x="0px" y="0px"
	 viewBox="0 0 512 512" style="enable-background:new 0 0 512 512;" xml:space="preserve">
<g>
	<g>
		<g>
			<path d="M506.112,309.219H336.596c-3.251,0-5.888,2.637-5.888,5.888v80.769c0,3.253,2.637,5.888,5.888,5.888h169.516
				c3.253,0,5.888-2.635,5.888-5.888v-80.769C512,311.855,509.365,309.219,506.112,309.219z"/>
			<path d="M506.112,425.316H336.596c-3.251,0-5.888,2.635-5.888,5.888v35.008c0,16.259,13.181,29.44,29.44,29.44H482.56
				c16.259,0,29.44-13.181,29.44-29.44v-35.008C512,427.952,509.365,425.316,506.112,425.316z M421.353,470.71
				c-5.648,0-10.226-4.579-10.226-10.225c0-5.648,4.579-10.225,10.226-10.225c5.648,0,10.226,4.579,10.226,10.225
				C431.58,466.132,427.001,470.71,421.353,470.71z"/>
			<path d="M497.997,235.99c-4.637-2.867-9.976-4.382-15.436-4.382H360.148c-16.259,0-29.44,13.181-29.44,29.44v18.73
				c0,3.251,2.637,5.888,5.888,5.888h169.516c3.253,0,5.888-2.637,5.888-5.888v-18.73C512,250.704,506.731,241.315,497.997,235.99z"
				/>
			<path d="M307.156,466.212v-80.537v-32.256v-38.311c0-3.251-2.635-5.888-5.888-5.888H5.888c-3.251,0-5.888,2.637-5.888,5.888
				v29.352c0,22.763,18.453,41.216,41.216,41.216h145.477l-18.105,74.655h-22.365c-9.755,0-17.664,7.909-17.664,17.664
				s7.909,17.664,17.664,17.664c6.906,0,157.126,0,159.969,0c4.288,0,7.069-4.405,5.355-8.336
				C308.723,480.85,307.156,473.712,307.156,466.212z"/>
			<path d="M482.56,208.056c5.537,0,11,0.874,16.21,2.558c3.762,1.216,7.603-1.691,7.603-5.645V57.557
				c0-22.763-18.453-41.216-41.216-41.216H41.216C18.453,16.341,0,34.794,0,57.557v222.221c0,3.251,2.637,5.888,5.888,5.888h295.38
				c3.251,0,5.888-2.637,5.888-5.888v-18.73c0-29.267,23.725-52.992,52.992-52.992H482.56z"/>
		</g>
	</g>
</g>
<g>
</g>
<g>
</g>
<g>
</g>
<g>
</g>
<g>
</g>
<g>
</g>
<g>
</g>
<g>
</g>
<g>
</g>
<g>
</g>
<g>
</g>
<g>
</g>
<g>
</g>
<g>
</g>
<g>
</g>
</svg>
