<?xml version="1.0" encoding="iso-8859-1"?>
<!-- Generator: Adobe Illustrator 19.0.0, SVG Export Plug-In . SVG Version: 6.00 Build 0)  -->
<svg version="1.1" id="Layer_1" xmlns="http://www.w3.org/2000/svg" xmlns:xlink="http://www.w3.org/1999/xlink" x="0px" y="0px"
	 viewBox="0 0 512 512" style="enable-background:new 0 0 512 512;" xml:space="preserve">
<g>
	<g>
		<g>
			<path d="M483.044,427.342c-13.22-9.165-473.864-328.53-472.725-327.74c-3.238-2.244-7.698-0.591-8.741,3.208
				c-2.3,8.383-1.407,297.167-1.407,296.027c0,21.974,17.813,39.788,39.788,39.788c465.648,0,434.583,0.502,441.221-1.088
				C485.933,436.398,487.062,430.128,483.044,427.342z"/>
			<path d="M510.319,102.809c-1.042-3.799-5.503-5.452-8.741-3.208l-218.94,151.792c-3.26,2.261-3.26,7.082,0,9.342l218.941,151.792
				c3.236,2.244,7.698,0.591,8.741-3.208C512.665,400.766,512.455,110.595,510.319,102.809z"/>
			<path d="M28.853,84.786l223.857,155.2c1.947,1.351,4.529,1.351,6.477,0l223.857-155.2c4.017-2.786,2.89-9.056-1.865-10.195
				c-7.421-1.778-443.515-1.664-450.461,0C25.963,75.731,24.834,82,28.853,84.786z"/>
		</g>
	</g>
</g>
<g>
</g>
<g>
</g>
<g>
</g>
<g>
</g>
<g>
</g>
<g>
</g>
<g>
</g>
<g>
</g>
<g>
</g>
<g>
</g>
<g>
</g>
<g>
</g>
<g>
</g>
<g>
</g>
<g>
</g>
</svg>
