<?xml version="1.0" encoding="iso-8859-1"?>
<!-- Generator: Adobe Illustrator 19.0.0, SVG Export Plug-In . SVG Version: 6.00 Build 0)  -->
<svg version="1.1" id="Layer_1" xmlns="http://www.w3.org/2000/svg" xmlns:xlink="http://www.w3.org/1999/xlink" x="0px" y="0px"
	 viewBox="0 0 512 512" style="enable-background:new 0 0 512 512;" xml:space="preserve">
<g>
	<g>
		<g>
			<path d="M494.933,81.407H253.497c-2.704,0-4.844,2.215-4.84,4.92c0,0.017,0,0.033,0,0.05v21.495c0,2.701,2.19,4.891,4.891,4.891
				h253.561c2.701,0,4.891-2.19,4.891-4.891v-9.398C512,89.049,504.359,81.407,494.933,81.407z"/>
			<path d="M256,269.206c-42.084,0-42.083,63.688,0,63.688c17.559,0,31.844-14.286,31.844-31.844
				C287.844,283.492,273.559,269.206,256,269.206z"/>
			<path d="M494.933,135.519H225.901V86.378c0-22.585-18.374-40.96-40.96-40.96H40.96C18.374,45.418,0,63.793,0,86.378v363.137
				c0,9.425,7.641,17.067,17.067,17.067h477.867c9.425,0,17.067-7.641,17.067-17.067V152.586
				C512,143.16,504.359,135.519,494.933,135.519z M307.929,317.893l19.098,11.026c5.442,3.141,7.307,10.1,4.164,15.542
				c-3.139,5.439-10.097,7.308-15.542,4.164l-19.117-11.038c-7.572,8.391-17.705,14.422-29.154,16.86v22.047
				c0,6.284-5.095,11.378-11.378,11.378c-6.284,0-11.378-5.094-11.378-11.378v-22.047c-11.449-2.437-21.583-8.468-29.154-16.86
				l-19.117,11.038c-5.439,3.14-12.398,1.28-15.542-4.164c-3.143-5.442-1.278-12.401,4.164-15.542l19.098-11.026
				c-3.559-10.947-3.565-22.724,0-33.687l-19.098-11.025c-5.442-3.141-7.307-10.1-4.164-15.542
				c3.141-5.443,10.099-7.307,15.542-4.164l19.117,11.036c7.572-8.391,17.705-14.422,29.154-16.86v-22.047
				c0-6.284,5.094-11.378,11.378-11.378c6.283,0,11.378,5.094,11.378,11.378v22.047c11.449,2.437,21.582,8.468,29.154,16.86
				l19.117-11.036c5.446-3.143,12.399-1.277,15.542,4.164c3.143,5.442,1.278,12.401-4.164,15.542l-19.098,11.025
				C311.488,295.153,311.494,306.931,307.929,317.893z"/>
		</g>
	</g>
</g>
<g>
</g>
<g>
</g>
<g>
</g>
<g>
</g>
<g>
</g>
<g>
</g>
<g>
</g>
<g>
</g>
<g>
</g>
<g>
</g>
<g>
</g>
<g>
</g>
<g>
</g>
<g>
</g>
<g>
</g>
</svg>
