<?xml version="1.0" encoding="iso-8859-1"?>
<!-- Generator: Adobe Illustrator 19.0.0, SVG Export Plug-In . SVG Version: 6.00 Build 0)  -->
<svg version="1.1" id="Layer_1" xmlns="http://www.w3.org/2000/svg" xmlns:xlink="http://www.w3.org/1999/xlink" x="0px" y="0px"
	 viewBox="0 0 512 512" style="enable-background:new 0 0 512 512;" xml:space="preserve">
<g>
	<g>
		<g>
			<path d="M492.308,337.031H209.593c-10.875,0-19.692,8.817-19.692,19.692c0,10.875,8.817,19.692,19.692,19.692h282.715
				c10.875,0,19.692-8.817,19.692-19.692C512,345.848,503.183,337.031,492.308,337.031z"/>
			<path d="M19.692,376.416h100.863c10.875,0,19.692-8.817,19.692-19.692c0-10.875-8.817-19.692-19.692-19.692H19.692
				C8.817,337.031,0,345.848,0,356.724C0,367.599,8.817,376.416,19.692,376.416z"/>
			<path d="M492.308,431.168H19.692C8.817,431.168,0,439.985,0,450.861c0,10.875,8.817,19.692,19.692,19.692h472.615
				c10.875,0,19.692-8.817,19.692-19.692C512,439.985,503.183,431.168,492.308,431.168z"/>
			<path d="M492.308,142.311c-9.098,0-207.523,0-218.946,0c-3.83,0-6.867,3.265-6.538,7.08c0.725,8.406,0.725,16.816,0,25.224
				c-0.328,3.815,2.71,7.08,6.538,7.08h116.817v53.083c0,10.875,8.817,19.692,19.692,19.692s19.692-8.817,19.692-19.692v-53.083
				h43.051v52.527c0,10.604,8.149,19.728,18.74,20.225c11.309,0.533,20.644-8.478,20.644-19.67v-72.776
				C512,151.128,503.183,142.311,492.308,142.311z"/>
			<path d="M120.555,282.558c66.475,0,120.555-54.08,120.555-120.555S187.03,41.447,120.555,41.447S0,95.529,0,162.003
				S54.08,282.558,120.555,282.558z M120.555,101.889c33.147,0,60.114,26.967,60.114,60.113c0,33.146-26.967,60.113-60.114,60.113
				s-60.114-26.967-60.114-60.113C60.441,128.856,87.408,101.889,120.555,101.889z"/>
		</g>
	</g>
</g>
<g>
</g>
<g>
</g>
<g>
</g>
<g>
</g>
<g>
</g>
<g>
</g>
<g>
</g>
<g>
</g>
<g>
</g>
<g>
</g>
<g>
</g>
<g>
</g>
<g>
</g>
<g>
</g>
<g>
</g>
</svg>
