<?xml version="1.0" encoding="iso-8859-1"?>
<!-- Generator: Adobe Illustrator 19.0.0, SVG Export Plug-In . SVG Version: 6.00 Build 0)  -->
<svg version="1.1" id="Layer_1" xmlns="http://www.w3.org/2000/svg" xmlns:xlink="http://www.w3.org/1999/xlink" x="0px" y="0px"
	 viewBox="0 0 512 512" style="enable-background:new 0 0 512 512;" xml:space="preserve">
<g>
	<g>
		<path d="M490.944,389.384L352.331,250.771c-7.622-7.623-19.99-7.619-27.609,0l-23.185,23.185L286.182,258.6
			c49.075-62.737,44.761-153.945-12.96-211.666c-62.539-62.539-163.767-62.549-226.313,0c-62.542,62.542-62.549,163.766,0,226.313
			c57.866,57.867,148.848,62.189,211.67,12.967l15.35,15.35l-23.184,23.184c-7.624,7.624-7.624,19.984,0,27.609l138.612,138.613
			c28.008,28.007,73.579,28.006,101.587,0v-0.001C519.021,462.895,519.018,417.456,490.944,389.384z M220.858,220.883
			c-33.562,33.559-88.021,33.562-121.583,0c-33.562-33.562-33.56-88.023,0-121.583c33.556-33.559,88.021-33.563,121.583,0
			C254.419,132.862,254.418,187.322,220.858,220.883z"/>
	</g>
</g>
<g>
</g>
<g>
</g>
<g>
</g>
<g>
</g>
<g>
</g>
<g>
</g>
<g>
</g>
<g>
</g>
<g>
</g>
<g>
</g>
<g>
</g>
<g>
</g>
<g>
</g>
<g>
</g>
<g>
</g>
</svg>
