<?xml version="1.0" encoding="iso-8859-1"?>
<!-- Generator: Adobe Illustrator 19.0.0, SVG Export Plug-In . SVG Version: 6.00 Build 0)  -->
<svg version="1.1" id="Layer_1" xmlns="http://www.w3.org/2000/svg" xmlns:xlink="http://www.w3.org/1999/xlink" x="0px" y="0px"
	 viewBox="0 0 512 512" style="enable-background:new 0 0 512 512;" xml:space="preserve">
<g>
	<g>
		<g>
			<path d="M506.047,309.814H5.953c-3.288,0-5.953,2.665-5.953,5.953v29.679c0,23.016,18.658,41.674,41.674,41.674h147.094
				l-18.305,75.482h-22.615c-9.864,0-17.86,7.997-17.86,17.86c0,9.864,7.997,17.86,17.86,17.86h216.302
				c9.864,0,17.86-7.997,17.86-17.86c0-9.864-7.997-17.86-17.86-17.86h-22.615l-18.305-75.482h147.094
				c23.016,0,41.674-18.658,41.674-41.674v-29.679C512,312.48,509.334,309.814,506.047,309.814z"/>
			<path d="M470.326,13.676H41.674C18.658,13.676,0,32.334,0,55.35v224.697C0,283.335,2.665,286,5.953,286h500.093
				c3.287,0,5.953-2.665,5.953-5.953V55.35C512,32.334,493.342,13.676,470.326,13.676z M256,46.632
				c28.036,0,50.845,22.809,50.845,50.845c0,28.036-22.809,50.844-50.845,50.844s-50.845-22.809-50.845-50.845
				S227.964,46.632,256,46.632z M316.539,253.045H195.461c-8.516,0-15.421-6.904-15.421-15.421
				c0-41.884,34.075-75.959,75.959-75.959s75.959,34.075,75.959,75.959C331.959,246.142,325.055,253.045,316.539,253.045z"/>
		</g>
	</g>
</g>
<g>
</g>
<g>
</g>
<g>
</g>
<g>
</g>
<g>
</g>
<g>
</g>
<g>
</g>
<g>
</g>
<g>
</g>
<g>
</g>
<g>
</g>
<g>
</g>
<g>
</g>
<g>
</g>
<g>
</g>
</svg>
