<?xml version="1.0" encoding="iso-8859-1"?>
<!-- Generator: Adobe Illustrator 19.0.0, SVG Export Plug-In . SVG Version: 6.00 Build 0)  -->
<svg version="1.1" id="Layer_1" xmlns="http://www.w3.org/2000/svg" xmlns:xlink="http://www.w3.org/1999/xlink" x="0px" y="0px"
	 viewBox="0 0 512 512" style="enable-background:new 0 0 512 512;" xml:space="preserve">
<g>
	<g>
		<g>
			<path d="M506.047,309.814H5.953c-3.288,0-5.953,2.666-5.953,5.953v29.679c0,23.016,18.658,41.674,41.674,41.674h147.094
				l-18.305,75.482h-22.615c-9.864,0-17.86,7.997-17.86,17.86c0,9.864,7.997,17.86,17.86,17.86h216.302
				c9.864,0,17.86-7.997,17.86-17.86c0-9.864-7.997-17.86-17.86-17.86h-22.615l-18.305-75.482h147.094
				c23.016,0,41.674-18.658,41.674-41.674v-29.679C512,312.48,509.335,309.814,506.047,309.814z"/>
			<path d="M264.127,99.306h-58.666v58.666c12.019,0,46.914,0,58.666,0C264.127,146.222,264.127,111.282,264.127,99.306z"/>
			<path d="M287.942,169.877h-0.001c0,6.576-5.331,11.907-11.907,11.907h-28.16v18.587h58.667v-58.666h-18.599V169.877z"/>
			<path d="M470.326,13.676H41.674C18.658,13.676,0,32.334,0,55.35v224.697C0,283.334,2.666,286,5.953,286h500.093
				c3.289,0,5.953-2.666,5.953-5.953V55.35C512,32.334,493.342,13.676,470.326,13.676z M318.446,224.185h-82.481
				c-6.576,0-11.907-5.331-11.907-11.907v-30.494h-30.506c-6.576,0-11.907-5.331-11.907-11.907v-82.48
				c0-6.576,5.331-11.907,11.907-11.907h82.48c6.576,0,11.907,5.331,11.907,11.907v30.494h30.506
				c6.575,0,11.907,5.331,11.907,11.907v82.48h0.001C330.353,218.854,325.021,224.185,318.446,224.185z"/>
		</g>
	</g>
</g>
<g>
</g>
<g>
</g>
<g>
</g>
<g>
</g>
<g>
</g>
<g>
</g>
<g>
</g>
<g>
</g>
<g>
</g>
<g>
</g>
<g>
</g>
<g>
</g>
<g>
</g>
<g>
</g>
<g>
</g>
</svg>
