<?xml version="1.0" encoding="iso-8859-1"?>
<!-- Generator: Adobe Illustrator 19.0.0, SVG Export Plug-In . SVG Version: 6.00 Build 0)  -->
<svg version="1.1" id="Layer_1" xmlns="http://www.w3.org/2000/svg" xmlns:xlink="http://www.w3.org/1999/xlink" x="0px" y="0px"
	 viewBox="0 0 512 512" style="enable-background:new 0 0 512 512;" xml:space="preserve">
<g>
	<g>
		<g>
			<path d="M256,181.002c-36.759,0-66.664,29.905-66.664,66.664S219.241,314.33,256,314.33c36.759,0,66.664-29.905,66.664-66.664
				S292.758,181.002,256,181.002z"/>
			<path d="M479.359,128.117L265.375,2.656c-5.767-3.557-13.047-3.535-18.793,0.025L32.641,128.117
				c-6.447,3.779-9.858,11.173-8.552,18.53C60.864,353.795,56.324,376.942,245.525,508.61c6.232,4.508,14.607,4.501,20.816,0.093
				C455.818,376.856,451.192,353.539,487.91,146.647C489.217,139.29,485.804,131.898,479.359,128.117z M408.875,183.125
				c-20.478,115.371-22.138,154.772-142.674,238.639c-6.131,4.265-14.27,4.266-20.402,0
				c-120.348-83.737-122.076-122.617-142.674-238.639c-1.306-7.357,2.106-14.751,8.552-18.529l135.289-79.321
				c5.58-3.271,12.488-3.271,18.068,0l135.289,79.321C406.769,168.374,410.181,175.768,408.875,183.125z"/>
		</g>
	</g>
</g>
<g>
</g>
<g>
</g>
<g>
</g>
<g>
</g>
<g>
</g>
<g>
</g>
<g>
</g>
<g>
</g>
<g>
</g>
<g>
</g>
<g>
</g>
<g>
</g>
<g>
</g>
<g>
</g>
<g>
</g>
</svg>
