<?xml version="1.0" encoding="iso-8859-1"?>
<!-- Generator: Adobe Illustrator 19.0.0, SVG Export Plug-In . SVG Version: 6.00 Build 0)  -->
<svg version="1.1" id="Layer_1" xmlns="http://www.w3.org/2000/svg" xmlns:xlink="http://www.w3.org/1999/xlink" x="0px" y="0px"
	 viewBox="0 0 512 512" style="enable-background:new 0 0 512 512;" xml:space="preserve">
<g>
	<g>
		<g>
			<path d="M472.178,34.62H39.822C17.829,34.62,0,52.449,0,74.442v45.263c0,3.141,2.547,5.689,5.689,5.689h500.622
				c3.141,0,5.689-2.547,5.689-5.689V74.442C512,52.449,494.171,34.62,472.178,34.62z M71.805,92.844
				c-7.09,0-12.836-5.747-12.836-12.836s5.747-12.836,12.836-12.836c7.089,0,12.836,5.747,12.836,12.836
				C84.642,87.097,78.895,92.844,71.805,92.844z M112.957,92.844c-7.09,0-12.836-5.747-12.836-12.836s5.747-12.836,12.836-12.836
				s12.836,5.747,12.836,12.836C125.794,87.097,120.046,92.844,112.957,92.844z M154.109,92.844
				c-7.089,0-12.836-5.747-12.836-12.836s5.747-12.836,12.836-12.836c7.09,0,12.836,5.747,12.836,12.836
				C166.945,87.097,161.198,92.844,154.109,92.844z"/>
			<path d="M365.898,305.186c-4.442,4.442-11.646,4.444-16.09,0c-4.443-4.443-4.443-11.647,0-16.09l11.761-11.761
				c-26.443-23.017-59.224-36.597-94.195-39.02v16.634c0,6.284-5.094,11.378-11.378,11.378c-6.284,0-11.378-5.094-11.378-11.378
				v-16.634c-34.97,2.426-67.748,16.005-94.19,39.021l11.759,11.759c4.443,4.443,4.444,11.647,0.001,16.091
				c-4.443,4.443-11.647,4.444-16.09,0l-11.759-11.759c-23.007,26.446-36.585,59.224-39.01,94.188H188
				c5.313-32.254,33.344-57.583,68-57.583c14.568,0,28.436,4.503,40.046,12.824l18.575-18.575
				c4.444-4.442,11.647-4.443,16.092,0.001c4.443,4.443,4.443,11.647,0,16.09l-18.575,18.575
				c6.109,8.539,10.155,18.302,11.862,28.669h92.671c-2.425-34.964-16.003-67.742-39.012-94.189L365.898,305.186z"/>
			<path d="M506.311,148.15H5.689c-3.141,0-5.689,2.547-5.689,5.689v283.719c0,21.993,17.829,39.822,39.822,39.822h432.356
				c21.993,0,39.822-17.829,39.822-39.822V153.839C512,150.697,509.454,148.15,506.311,148.15z M428.453,410.37h-0.011H313.549
				c-6.284,0-11.378-5.094-11.378-11.378c0-8.453-2.249-16.554-6.459-23.621l-31.667,31.667c-4.443,4.442-11.646,4.444-16.092-0.001
				c-4.443-4.443-4.443-11.647,0.001-16.09l31.677-31.677c-7.071-4.225-15.178-6.482-23.632-6.482
				c-25.49,0-46.171,20.59-46.171,46.205c0,6.284-5.094,11.378-11.378,11.378H83.558h-0.011c-6.284,0-11.378-5.094-11.378-11.378
				c0-0.098,0.013-0.192,0.015-0.29c0.156-101.32,82.286-183.541,183.81-183.543c0,0,0.001,0,0.006,0
				c101.375,0,183.74,82.11,183.818,183.689c0.001,0.049,0.007,0.096,0.007,0.144C439.825,405.276,434.737,410.37,428.453,410.37z"
				/>
		</g>
	</g>
</g>
<g>
</g>
<g>
</g>
<g>
</g>
<g>
</g>
<g>
</g>
<g>
</g>
<g>
</g>
<g>
</g>
<g>
</g>
<g>
</g>
<g>
</g>
<g>
</g>
<g>
</g>
<g>
</g>
<g>
</g>
</svg>
