<?xml version="1.0" encoding="iso-8859-1"?>
<!-- Generator: Adobe Illustrator 19.0.0, SVG Export Plug-In . SVG Version: 6.00 Build 0)  -->
<svg version="1.1" id="Layer_1" xmlns="http://www.w3.org/2000/svg" xmlns:xlink="http://www.w3.org/1999/xlink" x="0px" y="0px"
	 viewBox="0 0 511.999 511.999" style="enable-background:new 0 0 511.999 511.999;" xml:space="preserve">
<g>
	<g>
		<g>
			<path d="M241.98,269.994c7.687,7.689,20.152,7.687,27.838,0L490.271,49.54c7.687-7.687,7.687-20.15,0-27.838
				c-7.686-7.688-20.15-7.688-27.838,0L241.98,242.156C234.293,249.843,234.293,262.306,241.98,269.994z"/>
			<path d="M229.946,217.071l37.599-37.599c3.966-3.966,1.447-10.706-4.142-11.187c-52.904-4.563-98.013,38.685-95.518,91.999
				c2.11,45.096,38.708,81.693,83.803,83.803c53.291,2.493,96.564-42.589,91.999-95.518c-0.482-5.588-7.222-8.107-11.187-4.142
				l-37.599,37.599c-9.156,13.714-25.339,22.355-43.364,20.717c-22.296-2.026-40.282-20.014-42.309-42.31
				C207.591,242.409,216.233,226.227,229.946,217.071z"/>
			<path d="M300.443,146.574l21.59-21.591c3.236-3.236,2.256-8.721-1.909-10.618c-101.168-46.049-216.222,26.776-219.744,136.621
				c-2.879,89.81,70.792,163.484,160.602,160.607c109.757-3.514,182.718-118.481,136.627-219.746
				c-1.896-4.165-7.382-5.146-10.618-1.909l-21.591,21.591c-1.778,1.778-2.383,4.416-1.55,6.79
				c25.934,73.923-28.949,150.607-105.696,152.091c-64.834,1.255-117.839-51.749-116.59-116.582
				c1.483-76.886,78.28-131.599,152.092-105.704C296.027,148.956,298.665,148.353,300.443,146.574z"/>
			<path d="M470.807,117.321c-2.268-3.499-7.199-4-10.147-1.052l-44.37,44.371c-2.06,2.06-2.52,5.233-1.11,7.782
				c65.947,119.348-19.517,266.503-155.249,269.456C156.48,440.128,71.85,355.498,74.098,252.048
				C77.045,116.284,224.232,30.864,343.551,96.795c2.55,1.409,5.723,0.949,7.783-1.112l44.37-44.37
				c2.949-2.949,2.447-7.88-1.052-10.147C230.108-65.448,6.451,46.349,0.129,247.888c-4.63,147.559,116.394,268.584,263.953,263.956
				C465.22,505.536,577.691,282.286,470.807,117.321z"/>
		</g>
	</g>
</g>
<g>
</g>
<g>
</g>
<g>
</g>
<g>
</g>
<g>
</g>
<g>
</g>
<g>
</g>
<g>
</g>
<g>
</g>
<g>
</g>
<g>
</g>
<g>
</g>
<g>
</g>
<g>
</g>
<g>
</g>
</svg>
