<?xml version="1.0" encoding="iso-8859-1"?>
<!-- Generator: Adobe Illustrator 19.0.0, SVG Export Plug-In . SVG Version: 6.00 Build 0)  -->
<svg version="1.1" id="Layer_1" xmlns="http://www.w3.org/2000/svg" xmlns:xlink="http://www.w3.org/1999/xlink" x="0px" y="0px"
	 viewBox="0 0 512 512" style="enable-background:new 0 0 512 512;" xml:space="preserve">
<g>
	<g>
		<path d="M496.327,81.509c8.656,0,15.673-7.018,15.673-15.673c0-8.656-7.018-15.673-15.673-15.673h-20.908V30.015
			c0-8.656-7.018-15.673-15.673-15.673c-8.656,0-15.673,7.018-15.673,15.673v20.147H67.928V30.015
			c0-8.656-7.018-15.673-15.673-15.673c-8.656,0-15.673,7.018-15.673,15.673v20.147H15.673C7.018,50.162,0,57.18,0,65.836
			c0,8.656,7.018,15.673,15.673,15.673h20.908v325.694H23.755c-8.656,0-15.673,7.018-15.673,15.673v59.109
			c0,8.656,7.018,15.673,15.673,15.673h464.49c8.656,0,15.673-7.018,15.673-15.673v-59.109c0-8.656-7.018-15.673-15.673-15.673
			h-12.827c0-8.396,0-325.694,0-325.694H496.327z M67.928,81.509h376.142v71.835H407.75v-12.701
			c0-17.312-14.035-31.347-31.347-31.347c-17.312,0-31.347,14.035-31.347,31.347v12.701H254.15v-12.701
			c0-17.312-14.035-31.347-31.347-31.347s-31.347,14.035-31.347,31.347v12.701h-28.212v-12.701
			c0-17.312-14.035-31.347-31.347-31.347s-31.347,14.035-31.347,31.347v12.701H67.928V81.509z M444.07,407.203H67.928v-71.002
			h90.091v12.701c0,17.312,14.035,31.347,31.347,31.347s31.347-14.035,31.347-31.347v-12.701h28.212v12.701
			c0,17.312,14.035,31.347,31.347,31.347s31.347-14.035,31.347-31.347v-12.701h33.436v12.701c0,17.312,14.035,31.347,31.347,31.347
			c17.312,0,31.347-14.035,31.347-31.347v-12.701h36.321V407.203z M444.072,304.854h-36.321v-12.701
			c0-17.312-14.035-31.347-31.347-31.347c-17.312,0-31.347,14.035-31.347,31.347v12.701H311.62v-12.701
			c0-17.312-14.035-31.347-31.347-31.347c-17.312,0-31.347,14.035-31.347,31.347v12.701h-28.212v-12.701
			c0-17.312-14.035-31.347-31.347-31.347c-17.312,0-31.347,14.035-31.347,31.347v12.701H67.928V184.691h32.622v12.701
			c0.001,17.312,14.035,31.347,31.348,31.347c17.312,0,31.347-14.035,31.347-31.347v-12.701h28.212v12.701
			c0,17.312,14.035,31.347,31.347,31.347c17.312,0,31.347-14.035,31.347-31.347v-12.701h90.907v12.701
			c0,17.312,14.035,31.347,31.347,31.347c17.312,0,31.347-14.035,31.347-31.347v-12.701h36.321V304.854z"/>
	</g>
</g>
<g>
</g>
<g>
</g>
<g>
</g>
<g>
</g>
<g>
</g>
<g>
</g>
<g>
</g>
<g>
</g>
<g>
</g>
<g>
</g>
<g>
</g>
<g>
</g>
<g>
</g>
<g>
</g>
<g>
</g>
</svg>
