<?xml version="1.0" encoding="iso-8859-1"?>
<!-- Generator: Adobe Illustrator 19.0.0, SVG Export Plug-In . SVG Version: 6.00 Build 0)  -->
<svg version="1.1" id="Layer_1" xmlns="http://www.w3.org/2000/svg" xmlns:xlink="http://www.w3.org/1999/xlink" x="0px" y="0px"
	 viewBox="0 0 512 512" style="enable-background:new 0 0 512 512;" xml:space="preserve">
<g>
	<g>
		<path d="M495.64,24.605H356.342v84.276H512V40.965C512,31.93,504.675,24.605,495.64,24.605z M401.372,85.773
			c-10.24,0-18.542-8.301-18.542-18.542c0-10.241,8.301-18.542,18.542-18.542c10.24,0,18.542,8.301,18.542,18.542
			C419.914,77.471,411.613,85.773,401.372,85.773z M465.722,85.773c-10.24,0-18.542-8.301-18.542-18.542
			c0-10.241,8.301-18.542,18.542-18.542c10.24,0,18.542,8.301,18.542,18.542C484.264,77.471,475.963,85.773,465.722,85.773z"/>
	</g>
</g>
<g>
	<g>
		<path d="M16.36,24.605C7.325,24.605,0,31.93,0,40.965v67.916h323.623V24.605H16.36z"/>
	</g>
</g>
<g>
	<g>
		<path d="M134.41,232.658c-14.33,0-25.989,11.66-25.989,25.989v27.078c16.786-4.823,35.305-4.769,51.977-0.004v-27.074
			C160.399,244.317,148.74,232.658,134.41,232.658z"/>
	</g>
</g>
<g>
	<g>
		<path d="M0,141.601v329.434c0,9.035,7.325,16.36,16.36,16.36h479.28c9.035,0,16.36-7.325,16.36-16.36V141.601H0z M213.065,403.551
			c0,7.559-7.505,13.688-16.762,13.688H72.516c-9.257,0-16.762-6.128-16.762-13.688v-56.525c0-16.419,7.495-31.624,19.946-43.187
			v-45.192c0-32.372,26.337-58.709,58.709-58.709c32.372,0,58.709,26.337,58.709,58.709v44.975
			c12.405,11.354,19.946,26.326,19.946,42.738V403.551z M447.18,403.895H281.212c-9.035,0-16.36-7.325-16.36-16.36
			c0-9.035,7.325-16.36,16.36-16.36H447.18c9.035,0,16.36,7.325,16.36,16.36C463.541,396.571,456.216,403.895,447.18,403.895z
			 M447.18,322.64H281.212c-9.035,0-16.36-7.325-16.36-16.36s7.325-16.36,16.36-16.36H447.18c9.035,0,16.36,7.325,16.36,16.36
			C463.541,315.315,456.216,322.64,447.18,322.64z M447.18,241.384H281.212c-9.035,0-16.36-7.325-16.36-16.36
			s7.325-16.36,16.36-16.36H447.18c9.035,0,16.36,7.325,16.36,16.36S456.216,241.384,447.18,241.384z"/>
	</g>
</g>
<g>
</g>
<g>
</g>
<g>
</g>
<g>
</g>
<g>
</g>
<g>
</g>
<g>
</g>
<g>
</g>
<g>
</g>
<g>
</g>
<g>
</g>
<g>
</g>
<g>
</g>
<g>
</g>
<g>
</g>
</svg>
