<?xml version="1.0" encoding="iso-8859-1"?>
<!-- Generator: Adobe Illustrator 19.0.0, SVG Export Plug-In . SVG Version: 6.00 Build 0)  -->
<svg version="1.1" id="Layer_1" xmlns="http://www.w3.org/2000/svg" xmlns:xlink="http://www.w3.org/1999/xlink" x="0px" y="0px"
	 viewBox="0 0 512 512" style="enable-background:new 0 0 512 512;" xml:space="preserve">
<g>
	<g>
		<path d="M495.195,76.184h-20.727v30.835c0,27.844-22.572,50.416-50.416,50.416c-27.844,0-50.416-22.572-50.416-50.416V76.184
			h-67.221v30.835c0,27.844-22.572,50.416-50.416,50.416s-50.416-22.572-50.416-50.416V76.184h-67.221v30.835
			c0,27.844-22.572,50.416-50.416,50.416s-50.416-22.572-50.416-50.416V76.184H16.805C7.524,76.184,0,83.708,0,92.989v369.716
			c0,9.281,7.524,16.805,16.805,16.805h478.39c9.281,0,16.805-7.524,16.805-16.805V92.989C512,83.708,504.476,76.184,495.195,76.184
			z M175.615,401.085c0,9.281-7.524,16.805-16.805,16.805h-54.897c-9.281,0-16.805-7.524-16.805-16.805v-54.897
			c0-9.281,7.524-16.805,16.805-16.805h54.897c9.281,0,16.805,7.524,16.805,16.805V401.085z M175.615,270.004
			c0,9.281-7.524,16.805-16.805,16.805h-54.897c-9.281,0-16.805-7.524-16.805-16.805v-54.897c0-9.281,7.524-16.805,16.805-16.805
			h54.897c9.281,0,16.805,7.524,16.805,16.805V270.004z M300.254,401.085c0,9.281-7.524,16.805-16.805,16.805h-54.897
			c-9.281,0-16.805-7.524-16.805-16.805v-54.897c0-9.281,7.524-16.805,16.805-16.805h54.897c9.281,0,16.805,7.524,16.805,16.805
			V401.085z M300.254,270.004c0,9.281-7.524,16.805-16.805,16.805h-54.897c-9.281,0-16.805-7.524-16.805-16.805v-54.897
			c0-9.281,7.524-16.805,16.805-16.805h54.897c9.281,0,16.805,7.524,16.805,16.805V270.004z M424.893,401.085
			c0,9.281-7.524,16.805-16.805,16.805H353.19c-9.281,0-16.805-7.524-16.805-16.805v-54.897c0-9.281,7.524-16.805,16.805-16.805
			h54.897c9.281,0,16.805,7.524,16.805,16.805V401.085z M424.893,270.004c0,9.281-7.524,16.805-16.805,16.805H353.19
			c-9.281,0-16.805-7.524-16.805-16.805v-54.897c0-9.281,7.524-16.805,16.805-16.805h54.897c9.281,0,16.805,7.524,16.805,16.805
			V270.004z"/>
	</g>
</g>
<g>
	<g>
		<path d="M256,32.49c-9.281,0-16.805,7.524-16.805,16.805v57.724c0,9.282,7.524,16.805,16.805,16.805
			c9.281,0,16.805-7.524,16.805-16.805V49.295C272.805,40.014,265.281,32.49,256,32.49z"/>
	</g>
</g>
<g>
	<g>
		<path d="M87.948,32.49c-9.281,0-16.805,7.524-16.805,16.805v57.724c0,9.282,7.524,16.805,16.805,16.805
			c9.281,0,16.805-7.524,16.805-16.805V49.295C104.753,40.014,97.228,32.49,87.948,32.49z"/>
	</g>
</g>
<g>
	<g>
		<path d="M424.053,32.49c-9.281,0-16.805,7.524-16.805,16.805v57.724c0,9.282,7.524,16.805,16.805,16.805
			c9.281,0,16.805-7.524,16.805-16.805V49.295C440.858,40.014,433.333,32.49,424.053,32.49z"/>
	</g>
</g>
<g>
</g>
<g>
</g>
<g>
</g>
<g>
</g>
<g>
</g>
<g>
</g>
<g>
</g>
<g>
</g>
<g>
</g>
<g>
</g>
<g>
</g>
<g>
</g>
<g>
</g>
<g>
</g>
<g>
</g>
</svg>
