<?xml version="1.0" encoding="iso-8859-1"?>
<!-- Generator: Adobe Illustrator 19.0.0, SVG Export Plug-In . SVG Version: 6.00 Build 0)  -->
<svg version="1.1" id="Layer_1" xmlns="http://www.w3.org/2000/svg" xmlns:xlink="http://www.w3.org/1999/xlink" x="0px" y="0px"
	 viewBox="0 0 512 512" style="enable-background:new 0 0 512 512;" xml:space="preserve">
<g>
	<g>
		<path d="M495.341,6.664H374.282c-9.2,0-16.659,7.459-16.659,16.659v248.781h-39.031V146.603c0-5.285-2.509-10.258-6.759-13.399
			c-4.252-3.142-9.74-4.079-14.794-2.526l-90.357,27.766c-6.994,2.149-11.766,8.608-11.766,15.924v97.735h-39.586v-68.859
			c0-5.333-2.553-10.344-6.869-13.48c-4.316-3.135-9.871-4.013-14.944-2.362l-85.361,27.766c-6.86,2.231-11.505,8.626-11.505,15.842
			v41.093H16.659c-9.2,0-16.659,7.459-16.659,16.659v199.913c0,9.2,7.459,16.659,16.659,16.659h311.809V362.759
			c0-10.811,8.764-19.575,19.575-19.575h52.477c10.811,0,19.575,8.764,19.575,19.575v142.577h75.245
			c9.2,0,16.659-7.459,16.659-16.659V23.323C512,14.123,504.541,6.664,495.341,6.664z M215.219,413.57
			c0,10.811-8.764,19.575-19.575,19.575H81.697c-10.811,0-19.575-8.764-19.575-19.575v-54.143c0-10.811,8.764-19.575,19.575-19.575
			h113.947c10.811,0,19.575,8.764,19.575,19.575V413.57z"/>
	</g>
</g>
<g>
</g>
<g>
</g>
<g>
</g>
<g>
</g>
<g>
</g>
<g>
</g>
<g>
</g>
<g>
</g>
<g>
</g>
<g>
</g>
<g>
</g>
<g>
</g>
<g>
</g>
<g>
</g>
<g>
</g>
</svg>
