<?xml version="1.0" encoding="iso-8859-1"?>
<!-- Generator: Adobe Illustrator 19.0.0, SVG Export Plug-In . SVG Version: 6.00 Build 0)  -->
<svg version="1.1" id="Layer_1" xmlns="http://www.w3.org/2000/svg" xmlns:xlink="http://www.w3.org/1999/xlink" x="0px" y="0px"
	 viewBox="0 0 512 512" style="enable-background:new 0 0 512 512;" xml:space="preserve">
<g>
	<g>
		<path d="M512,257.262c0-15.087-12.231-27.318-27.318-27.318h-19.884c12.028-2.86,20.977-13.668,20.977-26.57
			c0-15.087-12.231-27.318-27.318-27.318H313.667c10.798-3.646,18.576-13.852,18.576-25.881c0-15.088-12.23-27.318-27.318-27.318
			H173.795c-0.007,0-0.012,0-0.019,0H149.48c-4.696,0-9.245,0.626-13.576,1.784c-2.258-6.351-8.305-10.907-15.431-10.907H16.391
			C7.339,113.733,0,121.071,0,130.124v251.752c0,9.053,7.339,16.391,16.391,16.391h104.084c8.014,0,14.674-5.755,16.099-13.355
			c1.372,0.13,2.76,0.202,4.166,0.202h131.949v-0.547h148.613c13.58,0,24.587-11.007,24.587-24.587
			c0-8.968-4.803-16.813-11.976-21.107h24.542c15.087,0,27.318-12.231,27.318-27.318c0-13.614-9.961-24.899-22.992-26.974h21.899
			C499.769,284.581,512,272.35,512,257.262z M104.084,365.484H32.783V146.516h71.302V365.484z"/>
	</g>
</g>
<g>
	<g>
		<circle cx="68.438" cy="338.054" r="17.21"/>
	</g>
</g>
<g>
</g>
<g>
</g>
<g>
</g>
<g>
</g>
<g>
</g>
<g>
</g>
<g>
</g>
<g>
</g>
<g>
</g>
<g>
</g>
<g>
</g>
<g>
</g>
<g>
</g>
<g>
</g>
<g>
</g>
</svg>
