<?xml version="1.0" encoding="iso-8859-1"?>
<!-- Generator: Adobe Illustrator 19.0.0, SVG Export Plug-In . SVG Version: 6.00 Build 0)  -->
<svg version="1.1" id="Layer_1" xmlns="http://www.w3.org/2000/svg" xmlns:xlink="http://www.w3.org/1999/xlink" x="0px" y="0px"
	 viewBox="0 0 512.001 512.001" style="enable-background:new 0 0 512.001 512.001;" xml:space="preserve">
<g>
	<g>
		<path d="M256.002,0C163.692,0,88.592,76.433,88.592,170.381c0,59.027,29.934,113.516,78.757,144.558v114.195
			c0,23.804,18.433,43.371,41.772,45.21c4.752,21.512,23.959,37.658,46.88,37.658c22.92,0,42.128-16.146,46.88-37.658
			c23.34-1.839,41.772-21.406,41.772-45.21V314.938c48.823-31.041,78.757-85.53,78.757-144.558C423.41,76.433,348.311,0,256.002,0z
			 M310.993,418.867H201.01v-33.66h109.983V418.867z M334.692,217.647c-0.067,0-0.132-0.004-0.2-0.006
			c-0.034,0-0.066,0.006-0.101,0.006h-61.56v114.457h38.161v33.66H201.01v-33.66h38.162V217.647h-61.56
			c-21.654,0-39.27-17.617-39.27-39.27s17.617-39.27,39.27-39.27c23.781,0,42.278,21.113,38.863,44.88h79.355
			c-3.417-23.776,15.094-44.88,38.863-44.88c21.654,0,39.27,17.617,39.27,39.27S356.346,217.647,334.692,217.647z"/>
	</g>
</g>
<g>
</g>
<g>
</g>
<g>
</g>
<g>
</g>
<g>
</g>
<g>
</g>
<g>
</g>
<g>
</g>
<g>
</g>
<g>
</g>
<g>
</g>
<g>
</g>
<g>
</g>
<g>
</g>
<g>
</g>
</svg>
