<?xml version="1.0" encoding="iso-8859-1"?>
<!-- Generator: Adobe Illustrator 19.0.0, SVG Export Plug-In . SVG Version: 6.00 Build 0)  -->
<svg version="1.1" id="Layer_1" xmlns="http://www.w3.org/2000/svg" xmlns:xlink="http://www.w3.org/1999/xlink" x="0px" y="0px"
	 viewBox="0 0 512 512" style="enable-background:new 0 0 512 512;" xml:space="preserve">
<g>
	<g>
		<path d="M479.616,177.821L334.179,32.384C313.297,11.5,285.532,0,256.001,0s-57.297,11.5-78.18,32.384L32.383,177.821
			c-43.107,43.108-43.107,113.25,0,156.357l145.438,145.438C198.704,500.499,226.468,512,256,512
			c29.531,0,57.297-11.5,78.178-32.384l145.438-145.438C522.724,291.071,522.724,220.929,479.616,177.821z M201.265,55.827
			c14.62-14.621,34.058-22.673,54.735-22.673c20.676,0,40.115,8.052,54.735,22.673l11.352,11.352
			c-21.527-7.57-43.841-11.251-66.087-11.251c-22.107,0-44.425,3.636-66.087,11.251L201.265,55.827z M301.126,95.296l-9.577,53.949
			c-11.176-3.743-23.129-5.777-35.549-5.777c-12.419,0-24.373,2.032-35.549,5.777l-9.577-53.949
			c14.357-4.046,29.493-6.215,45.126-6.215C271.633,89.081,286.768,91.25,301.126,95.296z M55.826,310.736
			c-30.181-30.181-30.181-79.29,0-109.472l11.697-11.697c-15.029,42.738-15.112,89.988,0.375,133.239L55.826,310.736z
			 M95.677,300.918c-4.071-14.398-6.252-29.579-6.252-45.261c0-15.564,2.152-30.633,6.162-44.933l53.94,9.575
			c-3.702,11.121-5.714,23.009-5.714,35.358c0,12.469,2.048,24.468,5.82,35.683L95.677,300.918z M310.736,456.173
			c-14.62,14.62-34.059,22.673-54.735,22.673c-20.676,0-40.115-8.052-54.735-22.673l-12.414-12.414
			c21.148,7.573,43.71,11.627,67.15,11.627c22.654,0,45.272-3.792,67.15-11.627L310.736,456.173z M210.933,416.032l9.576-53.946
			c11.16,3.731,23.093,5.757,35.491,5.757c12.399,0,24.332-2.026,35.492-5.757l9.576,53.946c-14.34,4.035-29.455,6.199-45.067,6.199
			C240.388,422.231,225.274,420.067,210.933,416.032z M256,334.69c-43.94,0-79.033-35.865-79.033-79.033
			c0-43.655,35.62-79.034,79.033-79.034c43.263,0,79.033,35.23,79.033,79.034C335.032,299.105,299.666,334.69,256,334.69z
			 M416.323,300.917l-53.956-9.578c3.772-11.214,5.82-23.213,5.82-35.683c0-12.349-2.011-24.237-5.714-35.358l53.94-9.575
			c4.011,14.299,6.162,29.369,6.162,44.933C422.575,271.339,420.393,286.52,416.323,300.917z M456.173,310.736l-12.071,12.071
			c7.713-21.541,11.627-44.156,11.627-67.15c0-21.946-3.557-44.209-11.253-66.089l11.697,11.697
			C486.354,231.447,486.354,280.553,456.173,310.736z"/>
	</g>
</g>
<g>
</g>
<g>
</g>
<g>
</g>
<g>
</g>
<g>
</g>
<g>
</g>
<g>
</g>
<g>
</g>
<g>
</g>
<g>
</g>
<g>
</g>
<g>
</g>
<g>
</g>
<g>
</g>
<g>
</g>
</svg>
