<?xml version="1.0" encoding="iso-8859-1"?>
<!-- Generator: Adobe Illustrator 19.0.0, SVG Export Plug-In . SVG Version: 6.00 Build 0)  -->
<svg version="1.1" id="Layer_1" xmlns="http://www.w3.org/2000/svg" xmlns:xlink="http://www.w3.org/1999/xlink" x="0px" y="0px"
	 viewBox="0 0 512 512" style="enable-background:new 0 0 512 512;" xml:space="preserve">
<g>
	<g>
		<path d="M342.99,344.665c-0.732,0,1.441,0.032-33.292-0.554l-26.592,18.642c-18.757,13.149-43.282,12.116-60.745-1.025
			l-25.948-19.53c-21.538-0.364-18.878-0.319-32.474-0.548c-8.263-0.139-16.125-2.223-23.093-5.863v158.971
			c0,12.468,12.873,20.815,24.258,15.726L256,469.841l90.894,40.642c11.344,5.072,24.258-3.206,24.258-15.726V336.332
			C362.955,341.646,353.236,344.665,342.99,344.665z"/>
	</g>
</g>
<g>
	<g>
		<path d="M256,96.493c-39.885,0-72.333,32.448-72.333,72.333c0,39.885,32.448,72.333,72.333,72.333
			c39.885,0,72.333-32.448,72.333-72.333C328.333,128.941,295.885,96.493,256,96.493z"/>
	</g>
</g>
<g>
	<g>
		<path d="M411.341,110.645l-34.892-26.262l-12.792-41.755c-2.196-7.168-8.753-12.054-16.18-12.179l-43.665-0.737L268.919,3.451
			c-5.813-4.376-14.031-4.701-20.248-0.341l-35.76,25.068c-0.223-0.003-43.798-0.741-44.021-0.741
			c-7.303,0-13.852,4.718-16.226,11.629l-14.194,41.301l-35.758,25.069c-6.127,4.296-8.762,12.035-6.582,19.151l12.792,41.756
			l-14.194,41.299c-2.434,7.081-0.011,14.889,5.932,19.362l34.892,26.262c5.962,19.462,6.705,21.887,12.792,41.756
			c3.731,10.905,12.284,13.508,26.958,12.361l32.888,0.554l34.893,26.262c5.944,4.473,14.12,4.639,20.248,0.341l35.76-25.069
			c17.345,0.293,25.992,0.44,43.664,0.737c7.453,0.106,14.162-4.585,16.583-11.626l14.194-41.301l35.759-25.069
			c6.115-4.287,8.767-12.021,6.582-19.151l-12.792-41.756l14.194-41.299C419.698,122.95,417.302,115.133,411.341,110.645z
			 M256,275.611c-58.882,0-106.786-47.904-106.786-106.786S197.118,62.039,256,62.039c58.882,0,106.786,47.904,106.786,106.786
			S314.881,275.611,256,275.611z"/>
	</g>
</g>
<g>
</g>
<g>
</g>
<g>
</g>
<g>
</g>
<g>
</g>
<g>
</g>
<g>
</g>
<g>
</g>
<g>
</g>
<g>
</g>
<g>
</g>
<g>
</g>
<g>
</g>
<g>
</g>
<g>
</g>
</svg>
