<?xml version="1.0" encoding="iso-8859-1"?>
<!-- Generator: Adobe Illustrator 19.0.0, SVG Export Plug-In . SVG Version: 6.00 Build 0)  -->
<svg version="1.1" id="Layer_1" xmlns="http://www.w3.org/2000/svg" xmlns:xlink="http://www.w3.org/1999/xlink" x="0px" y="0px"
	 viewBox="0 0 512 512" style="enable-background:new 0 0 512 512;" xml:space="preserve">
<g>
	<g>
		<path d="M495.738,79.455H144.357c-8.982,0-16.262,7.281-16.262,16.262v16.266l351.381-0.003l-0.417,193.374h16.679
			c8.982,0,16.262-7.281,16.262-16.262V95.718C512,86.736,504.719,79.455,495.738,79.455z"/>
	</g>
</g>
<g>
	<g>
		<path d="M431.189,143.592H79.808c-8.982,0-16.262,7.281-16.262,16.262v15.182c328.69,0,351.381,1.082,351.381,1.082
			s0.588,33.581,0.588,193.374h15.675c8.982,0,16.262-7.281,16.262-16.262V159.854C447.451,150.874,440.17,143.592,431.189,143.592z
			"/>
	</g>
</g>
<g>
	<g>
		<path d="M367.643,206.644c-2.951,0-338.484,0-351.381,0C7.281,206.644,0,213.925,0,222.907v193.375
			c0,8.982,7.281,16.262,16.262,16.262h351.381c8.982,0,16.262-7.281,16.262-16.262V222.907
			C383.906,213.925,376.624,206.644,367.643,206.644z M32.526,400.019v-49.266c24.219,5.991,43.275,25.048,49.266,49.266H32.526z
			 M32.526,288.436V239.17h49.266C75.801,263.388,56.745,282.445,32.526,288.436z M191.953,387.108
			c-37.288,0-67.514-30.226-67.514-67.514s30.228-67.514,67.514-67.514c37.287,0,67.514,30.226,67.514,67.514
			S229.241,387.108,191.953,387.108z M351.381,400.019h-49.266c5.991-24.219,25.048-43.275,49.266-49.266V400.019z M351.381,288.436
			c-24.219-5.991-43.275-25.048-49.266-49.266h49.266V288.436z"/>
	</g>
</g>
<g>
</g>
<g>
</g>
<g>
</g>
<g>
</g>
<g>
</g>
<g>
</g>
<g>
</g>
<g>
</g>
<g>
</g>
<g>
</g>
<g>
</g>
<g>
</g>
<g>
</g>
<g>
</g>
<g>
</g>
</svg>
