<?xml version="1.0" encoding="iso-8859-1"?>
<!-- Generator: Adobe Illustrator 19.0.0, SVG Export Plug-In . SVG Version: 6.00 Build 0)  -->
<svg version="1.1" id="Layer_1" xmlns="http://www.w3.org/2000/svg" xmlns:xlink="http://www.w3.org/1999/xlink" x="0px" y="0px"
	 viewBox="0 0 511.999 511.999" style="enable-background:new 0 0 511.999 511.999;" xml:space="preserve">
<g>
	<g>
		<path d="M466.245,486.984c-7.806-14.847-185.676-353.156-193.695-368.409c0-10.159,0-14.606,0-24.791h94.954
			c6.288,0,12.032-3.561,14.831-9.191c2.798-5.631,2.166-12.36-1.631-17.371L365.3,46.892l15.405-20.33
			c3.796-5.011,4.428-11.741,1.631-17.371C379.537,3.561,373.792,0,367.505,0H255.99c-9.146,0-16.561,7.415-16.561,16.561
			c0,22.154,0,81.323,0,102.013c-3.161,6.013-188.275,358.1-194.088,369.157c-5.79,11.015,2.215,24.267,14.659,24.267h391.982
			c0.009,0,0.018,0,0.022,0C464.896,512,472.751,497.923,466.245,486.984z M346.532,339.052c-3.234,3.233-7.473,4.85-11.71,4.85
			c-4.239,0-8.477-1.616-11.71-4.851l-26.767-26.767l-26.767,26.767c-3.106,3.106-7.318,4.851-11.71,4.851s-8.604-1.744-11.71-4.851
			l-26.768-26.767l-26.767,26.767c-3.106,3.106-7.318,4.851-11.711,4.851c-4.392,0-8.604-1.744-11.71-4.851l-5.42-5.42
			c5.231-9.953,89.013-169.308,92.206-175.381c3.198,6.084,89.056,169.386,93.502,177.842L346.532,339.052z"/>
	</g>
</g>
<g>
</g>
<g>
</g>
<g>
</g>
<g>
</g>
<g>
</g>
<g>
</g>
<g>
</g>
<g>
</g>
<g>
</g>
<g>
</g>
<g>
</g>
<g>
</g>
<g>
</g>
<g>
</g>
<g>
</g>
</svg>
