<?xml version="1.0" encoding="iso-8859-1"?>
<!-- Generator: Adobe Illustrator 19.0.0, SVG Export Plug-In . SVG Version: 6.00 Build 0)  -->
<svg version="1.1" id="Layer_1" xmlns="http://www.w3.org/2000/svg" xmlns:xlink="http://www.w3.org/1999/xlink" x="0px" y="0px"
	 viewBox="0 0 512 512" style="enable-background:new 0 0 512 512;" xml:space="preserve">
<g>
	<g>
		<path d="M489.392,476.561l-42.737-128.454l-25.923,25.923l13.096,39.36l-28.332,28.332l-39.36-13.096l-12.952,12.952
			c-5.206,5.206-11.294,8.988-17.778,11.372l133.259,44.338C481.395,501.521,493.667,489.415,489.392,476.561z"/>
	</g>
</g>
<g>
	<g>
		<path d="M160.375,55.259C155.418,60.215,52.32,163.314,47.366,168.268l77.284,77.284c5.755-5.755,107.961-107.962,113.009-113.009
			L160.375,55.259z"/>
	</g>
</g>
<g>
	<g>
		<path d="M23.384,31.278c-29.943,29.944-32.667,80.342,0.802,113.81c4.965-4.964,108.067-108.066,113.009-113.009
			C103.646-1.472,53.426,1.235,23.384,31.278z"/>
	</g>
</g>
<g>
	<g>
		<path d="M269.903,146.656C62.145,354.414,73.045,341.953,71.045,347.968L26.255,482.589c-4.277,12.853,8.007,24.956,20.726,20.727
			c145.19-48.307,137.123-44.839,141.036-48.753l194.489-194.489C264.842,142.409,273.048,150.944,269.903,146.656z M67.692,461.877
			L98.84,368.26l62.468,62.468L67.692,461.877z"/>
	</g>
</g>
<g>
	<g>
		<path d="M508.665,50.439L479.13,20.904c-4.447-4.447-11.659-4.447-16.106,0c-9.122,9.122-34.976,34.975-43.836,43.836
			l-22.094-22.094c-6.367-6.368-16.745-6.435-23.179,0l-35.289,35.289c4.274,3.133-4.162-4.978,113.417,112.601
			c37.13-37.131,35.129-35.057,35.969-36.083c5.289-6.454,4.923-15.966-1.089-21.977l-22.094-22.094
			c8.931-8.93,34.746-34.744,43.837-43.836C513.112,62.098,513.112,54.887,508.665,50.439z"/>
	</g>
</g>
<g>
	<g>
		<path d="M470.187,255.037L321.19,106.041c-6.4-6.402-16.779-6.402-23.179,0c-6.402,6.4-6.402,16.778,0,23.179l137.408,137.408
			l-128.59,128.59c-6.402,6.401-6.402,16.778,0,23.179c6.399,6.4,16.779,6.402,23.179,0l140.181-140.181
			C476.589,271.815,476.589,261.438,470.187,255.037z"/>
	</g>
</g>
<g>
</g>
<g>
</g>
<g>
</g>
<g>
</g>
<g>
</g>
<g>
</g>
<g>
</g>
<g>
</g>
<g>
</g>
<g>
</g>
<g>
</g>
<g>
</g>
<g>
</g>
<g>
</g>
<g>
</g>
</svg>
