<?xml version="1.0" encoding="iso-8859-1"?>
<!-- Generator: Adobe Illustrator 19.0.0, SVG Export Plug-In . SVG Version: 6.00 Build 0)  -->
<svg version="1.1" id="Layer_1" xmlns="http://www.w3.org/2000/svg" xmlns:xlink="http://www.w3.org/1999/xlink" x="0px" y="0px"
	 viewBox="0 0 512 512" style="enable-background:new 0 0 512 512;" xml:space="preserve">
<g>
	<g>
		<path d="M495.377,12.19H16.623C7.443,12.19,0,19.633,0,28.814v64.277c0,9.181,7.443,16.623,16.623,16.623h478.753
			c9.18,0,16.623-7.443,16.623-16.623V28.814C512,19.633,504.557,12.19,495.377,12.19z"/>
	</g>
</g>
<g>
	<g>
		<path d="M471.038,403.394h-3.944V154.043c0-9.181-7.443-16.623-16.623-16.623H61.53c-9.181,0-16.623,7.443-16.623,16.623v249.351
			h-3.944c-9.181,0-16.623,7.443-16.623,16.623s7.443,16.623,16.623,16.623c5.353,0,126.477,0,133.771,0v46.545
			c0,9.181,7.443,16.623,16.623,16.623h129.289c9.181,0,16.623-7.443,16.623-16.623v-46.545c7.295,0,128.41,0,133.771,0
			c9.181,0,16.623-7.443,16.623-16.623S480.218,403.394,471.038,403.394z M304.022,466.563h-96.042v-29.922h96.042V466.563z
			 M433.848,403.394c-7.556,0-318.852,0-355.695,0V170.667h355.695V403.394z"/>
	</g>
</g>
<g>
</g>
<g>
</g>
<g>
</g>
<g>
</g>
<g>
</g>
<g>
</g>
<g>
</g>
<g>
</g>
<g>
</g>
<g>
</g>
<g>
</g>
<g>
</g>
<g>
</g>
<g>
</g>
<g>
</g>
</svg>
