<?xml version="1.0" encoding="iso-8859-1"?>
<!-- Generator: Adobe Illustrator 19.0.0, SVG Export Plug-In . SVG Version: 6.00 Build 0)  -->
<svg version="1.1" id="Layer_1" xmlns="http://www.w3.org/2000/svg" xmlns:xlink="http://www.w3.org/1999/xlink" x="0px" y="0px"
	 viewBox="0 0 512.001 512.001" style="enable-background:new 0 0 512.001 512.001;" xml:space="preserve">
<g>
	<g>
		<path d="M449.44,0H62.561C28.065,0,0,28.065,0,62.561V449.44c0,34.496,28.065,62.561,62.561,62.561H449.44
			c34.496,0,62.561-28.065,62.561-62.561V62.561C512,28.065,483.935,0,449.44,0z M445.842,462.763H66.16
			c-9.345,0-16.921-7.576-16.921-16.921V66.159c0-9.345,7.576-16.921,16.921-16.921h379.682c9.345,0,16.921,7.576,16.921,16.921
			v379.683h0.001C462.764,455.187,455.188,462.763,445.842,462.763z"/>
	</g>
</g>
<g>
	<g>
		<path d="M83.082,83.081v46.993c2.636-1.695,5.765-2.689,9.131-2.689c9.345,0,16.921,7.576,16.921,16.921v51.917
			c0,9.345-7.576,16.921-16.921,16.921c-3.367,0-6.496-0.994-9.131-2.689v91.093c2.636-1.695,5.765-2.689,9.131-2.689
			c9.345,0,16.921,7.576,16.921,16.921v51.917c0,9.345-7.576,16.921-16.921,16.921c-3.367,0-6.496-0.994-9.131-2.689v46.992H428.92
			V83.081H83.082z M256.001,376.063c-66.203,0-120.063-53.86-120.063-120.063c0-66.202,53.86-120.062,120.063-120.062
			c66.202,0,120.062,53.86,120.062,120.062C376.063,322.203,322.203,376.063,256.001,376.063z"/>
	</g>
</g>
<g>
	<g>
		<path d="M319.74,239.079h-25.642c-4.188-9.415-11.76-16.986-21.174-21.174v-25.642c0-9.345-7.576-16.921-16.921-16.921
			s-16.921,7.576-16.921,16.921v25.642c-9.415,4.188-16.986,11.76-21.175,21.174h-25.642c-9.345,0-16.921,7.576-16.921,16.921
			c-0.002,9.345,7.575,16.921,16.92,16.921h25.642c4.188,9.415,11.76,16.987,21.175,21.175v25.642
			c0,9.345,7.576,16.921,16.921,16.921c9.345,0,16.921-7.576,16.921-16.921v-25.642c9.415-4.188,16.986-11.76,21.175-21.175h25.642
			c9.345,0,16.921-7.576,16.921-16.921S329.085,239.079,319.74,239.079z"/>
	</g>
</g>
<g>
</g>
<g>
</g>
<g>
</g>
<g>
</g>
<g>
</g>
<g>
</g>
<g>
</g>
<g>
</g>
<g>
</g>
<g>
</g>
<g>
</g>
<g>
</g>
<g>
</g>
<g>
</g>
<g>
</g>
</svg>
