<?xml version="1.0" encoding="iso-8859-1"?>
<!-- Generator: Adobe Illustrator 19.0.0, SVG Export Plug-In . SVG Version: 6.00 Build 0)  -->
<svg version="1.1" id="Layer_1" xmlns="http://www.w3.org/2000/svg" xmlns:xlink="http://www.w3.org/1999/xlink" x="0px" y="0px"
	 viewBox="0 0 511.999 511.999" style="enable-background:new 0 0 511.999 511.999;" xml:space="preserve">
<g>
	<g>
		<path d="M471.655,493.121l-26.821-388.589c-0.639-9.26-8.337-16.445-17.621-16.445h-61.446V60.615
			C365.767,27.191,338.576,0,305.152,0h-98.305c-33.423,0-60.615,27.191-60.615,60.615v27.471H84.787
			c-9.282,0-16.981,7.185-17.62,16.445L40.344,493.121c-0.337,4.885,1.368,9.689,4.708,13.268c3.341,3.578,8.016,5.61,12.912,5.61
			h396.071c4.895,0,9.571-2.032,12.912-5.61C470.288,502.809,471.993,498.005,471.655,493.121z M330.443,87.862H181.557V60.615
			c0-13.945,11.346-25.29,25.29-25.29h98.305c13.945,0,25.291,11.345,25.291,25.29V87.862z"/>
	</g>
</g>
<g>
</g>
<g>
</g>
<g>
</g>
<g>
</g>
<g>
</g>
<g>
</g>
<g>
</g>
<g>
</g>
<g>
</g>
<g>
</g>
<g>
</g>
<g>
</g>
<g>
</g>
<g>
</g>
<g>
</g>
</svg>
