<?xml version="1.0" encoding="iso-8859-1"?>
<!-- Generator: Adobe Illustrator 19.0.0, SVG Export Plug-In . SVG Version: 6.00 Build 0)  -->
<svg version="1.1" id="Layer_1" xmlns="http://www.w3.org/2000/svg" xmlns:xlink="http://www.w3.org/1999/xlink" x="0px" y="0px"
	 viewBox="0 0 512 512" style="enable-background:new 0 0 512 512;" xml:space="preserve">
<g>
	<g>
		<path d="M489.875,32.548H432.09c-10.741,0-19.93,7.714-21.791,18.293L365.69,304.558h-26.775l26.949-147.975
			c0.883-4.842-0.431-9.824-3.583-13.603c-3.152-3.779-7.821-5.964-12.741-5.964H16.593c-4.92,0-9.589,2.185-12.741,5.964
			s-4.466,8.761-3.583,13.603L27.76,307.536c-4.302,2.998-7.124,7.974-7.124,13.615c0,9.163,7.429,16.593,16.593,16.593h322.626
			l-5.042,28.67H84.008c-12.219,0-22.124,9.905-22.124,22.124s9.905,22.124,22.124,22.124h10.714
			c-2.073,5.545-3.213,11.542-3.213,17.801c0,28.115,22.874,50.989,50.989,50.989s50.989-22.874,50.989-50.989
			c0-6.26-1.14-12.256-3.213-17.801h77.096c-2.073,5.545-3.212,11.542-3.212,17.801c0,28.115,22.873,50.989,50.988,50.989
			s50.989-22.874,50.989-50.989c0-6.26-1.14-12.256-3.213-17.801h10.467c10.74,0,19.93-7.714,21.791-18.292l55.485-315.573h39.212
			c12.219,0,22.124-9.905,22.124-22.124S502.095,32.548,489.875,32.548z M142.499,446.266c-9.816,0-17.802-7.987-17.802-17.802
			c0-9.816,7.987-17.801,17.802-17.801c9.816,0,17.802,7.984,17.802,17.801C160.302,438.28,152.315,446.266,142.499,446.266z
			 M315.147,446.266c-9.816,0-17.801-7.987-17.801-17.802c0-9.816,7.985-17.801,17.801-17.801c9.816,0,17.802,7.984,17.802,17.801
			C332.949,438.28,324.962,446.266,315.147,446.266z"/>
	</g>
</g>
<g>
</g>
<g>
</g>
<g>
</g>
<g>
</g>
<g>
</g>
<g>
</g>
<g>
</g>
<g>
</g>
<g>
</g>
<g>
</g>
<g>
</g>
<g>
</g>
<g>
</g>
<g>
</g>
<g>
</g>
</svg>
