<?xml version="1.0" encoding="iso-8859-1"?>
<!-- Generator: Adobe Illustrator 19.0.0, SVG Export Plug-In . SVG Version: 6.00 Build 0)  -->
<svg version="1.1" id="Layer_1" xmlns="http://www.w3.org/2000/svg" xmlns:xlink="http://www.w3.org/1999/xlink" x="0px" y="0px"
	 viewBox="0 0 512 512" style="enable-background:new 0 0 512 512;" xml:space="preserve">
<g>
	<g>
		<path d="M257.536,69.821H31.957c-9.31,0-16.858,7.548-16.858,16.858v108.827c0,9.311,7.548,16.858,16.858,16.858h225.579
			c9.31,0,16.858-7.548,16.858-16.858V86.678C274.394,77.369,266.846,69.821,257.536,69.821z"/>
	</g>
</g>
<g>
	<g>
		<path d="M122.565,346.522c-26.415,0-47.828,21.413-47.828,47.828c0,26.415,21.413,47.828,47.828,47.828
			c26.415,0,47.828-21.414,47.828-47.828C170.393,367.937,148.98,346.522,122.565,346.522z M122.565,408.907
			c-8.039,0-14.557-6.517-14.557-14.557c0-8.039,6.517-14.557,14.557-14.557c8.039,0,14.557,6.517,14.557,14.557
			C137.121,402.391,130.604,408.907,122.565,408.907z"/>
	</g>
</g>
<g>
	<g>
		<path d="M392.9,346.522c-26.415,0-47.828,21.413-47.828,47.828c0,26.415,21.414,47.828,47.828,47.828
			c26.415,0,47.828-21.414,47.828-47.828C440.729,367.937,419.316,346.522,392.9,346.522z M392.9,408.907
			c-8.039,0-14.557-6.517-14.557-14.557c0-8.039,6.517-14.557,14.557-14.557c8.039,0,14.557,6.517,14.557,14.557
			C407.457,402.391,400.939,408.907,392.9,408.907z"/>
	</g>
</g>
<g>
	<g>
		<path d="M495.142,216.679h-38.829l-36.146-77.394c-2.771-5.933-8.726-9.724-15.274-9.724H311.8
			c-9.31,0-16.858,7.548-16.858,16.858v84.818H16.858C7.548,231.235,0,238.783,0,248.093v133.088c0,9.31,7.548,16.858,16.858,16.858
			h24.258c-2.075-46.386,35.094-85.23,81.449-85.23c46.299,0,83.528,38.782,81.449,85.23h107.437
			c-2.093-46.659,35.339-85.23,81.449-85.23c46.293,0,83.534,38.781,81.449,85.23h20.793c9.31,0,16.858-7.548,16.858-16.858V233.536
			C512,224.227,504.452,216.679,495.142,216.679z M328.659,216.901v-53.626h65.503l25.046,53.626H328.659z"/>
	</g>
</g>
<g>
</g>
<g>
</g>
<g>
</g>
<g>
</g>
<g>
</g>
<g>
</g>
<g>
</g>
<g>
</g>
<g>
</g>
<g>
</g>
<g>
</g>
<g>
</g>
<g>
</g>
<g>
</g>
<g>
</g>
</svg>
