<?xml version="1.0" encoding="iso-8859-1"?>
<!-- Generator: Adobe Illustrator 19.0.0, SVG Export Plug-In . SVG Version: 6.00 Build 0)  -->
<svg version="1.1" id="Layer_1" xmlns="http://www.w3.org/2000/svg" xmlns:xlink="http://www.w3.org/1999/xlink" x="0px" y="0px"
	 viewBox="0 0 512 512" style="enable-background:new 0 0 512 512;" xml:space="preserve">
<g>
	<g>
		<path d="M316.342,207.851l-60.339-60.339l-60.305,60.305c-15.462,15.444-25.029,36.792-25.031,60.373
			c0.001,47.128,38.206,85.333,85.333,85.333c47.128,0,85.333-38.205,85.333-85.333
			C341.333,244.628,331.782,223.295,316.342,207.851z"/>
	</g>
</g>
<g>
	<g>
		<g>
			<rect x="101.181" y="18.286" width="36.571" height="36.571"/>
			<rect x="101.181" y="457.143" width="36.571" height="36.571"/>
			<rect x="156.038" y="457.143" width="36.571" height="36.571"/>
			<rect width="73.143" height="73.143"/>
			<rect x="156.038" y="18.286" width="36.571" height="36.571"/>
			<rect x="18.286" y="101.181" width="36.571" height="36.571"/>
			<rect x="219.429" y="438.857" width="73.143" height="73.143"/>
			<rect y="438.857" width="73.143" height="73.143"/>
			<rect x="18.286" y="319.391" width="36.571" height="36.571"/>
			<rect x="18.286" y="374.248" width="36.571" height="36.571"/>
			<rect x="18.286" y="156.038" width="36.571" height="36.571"/>
			<rect y="219.429" width="73.143" height="73.143"/>
			<rect x="319.391" y="457.143" width="36.571" height="36.571"/>
			<rect x="438.857" y="219.429" width="73.143" height="73.143"/>
			<rect x="457.143" y="319.391" width="36.571" height="36.571"/>
			<rect x="457.143" y="156.038" width="36.571" height="36.571"/>
			<rect x="457.143" y="101.181" width="36.571" height="36.571"/>
			<rect x="438.857" width="73.143" height="73.143"/>
			<rect x="374.248" y="457.143" width="36.571" height="36.571"/>
			<rect x="319.391" y="18.286" width="36.571" height="36.571"/>
			<rect x="219.429" width="73.143" height="73.143"/>
			<rect x="457.143" y="374.248" width="36.571" height="36.571"/>
			<rect x="438.857" y="438.857" width="73.143" height="73.143"/>
			<rect x="374.248" y="18.286" width="36.571" height="36.571"/>
		</g>
	</g>
</g>
<g>
</g>
<g>
</g>
<g>
</g>
<g>
</g>
<g>
</g>
<g>
</g>
<g>
</g>
<g>
</g>
<g>
</g>
<g>
</g>
<g>
</g>
<g>
</g>
<g>
</g>
<g>
</g>
<g>
</g>
</svg>
