<?xml version="1.0" encoding="iso-8859-1"?>
<!-- Generator: Adobe Illustrator 19.0.0, SVG Export Plug-In . SVG Version: 6.00 Build 0)  -->
<svg version="1.1" id="Layer_1" xmlns="http://www.w3.org/2000/svg" xmlns:xlink="http://www.w3.org/1999/xlink" x="0px" y="0px"
	 viewBox="0 0 512 512" style="enable-background:new 0 0 512 512;" xml:space="preserve">
<g>
	<g>
		<path d="M0,147.2v307.2c0,21.207,17.193,38.4,38.4,38.4h435.2c21.207,0,38.4-17.193,38.4-38.4V147.2H0z M256,441.6H76.8v-38.4H256
			V441.6z M435.2,373.334H76.8v-38.4h358.4V373.334z M435.2,305.066H76.8v-38.4h358.4V305.066z M435.2,236.8H76.8v-38.4h358.4V236.8
			z"/>
	</g>
</g>
<g>
	<g>
		<path d="M473.6,19.2H38.4C17.193,19.2,0,36.393,0,57.6v51.2h512V57.6C512,36.393,494.807,19.2,473.6,19.2z M64,89.6
			c-14.139,0-25.6-11.461-25.6-25.6S49.861,38.4,64,38.4S89.6,49.861,89.6,64S78.139,89.6,64,89.6z M473.6,83.2H256V44.8h217.6V83.2
			z"/>
	</g>
</g>
<g>
</g>
<g>
</g>
<g>
</g>
<g>
</g>
<g>
</g>
<g>
</g>
<g>
</g>
<g>
</g>
<g>
</g>
<g>
</g>
<g>
</g>
<g>
</g>
<g>
</g>
<g>
</g>
<g>
</g>
</svg>
