<?xml version="1.0" encoding="iso-8859-1"?>
<!-- Generator: Adobe Illustrator 19.0.0, SVG Export Plug-In . SVG Version: 6.00 Build 0)  -->
<svg version="1.1" id="Layer_1" xmlns="http://www.w3.org/2000/svg" xmlns:xlink="http://www.w3.org/1999/xlink" x="0px" y="0px"
	 viewBox="0 0 512 512" style="enable-background:new 0 0 512 512;" xml:space="preserve">
<g>
	<g>
		<path d="M0,147.2v307.2c0,21.207,17.193,38.4,38.4,38.4h435.2c21.207,0,38.4-17.193,38.4-38.4V147.2H0z M448,428.8h-53.523
			c-4.511,3.971-10.409,6.4-16.877,6.4c-6.468,0-12.365-2.43-16.877-6.4H64v-38.4h296.709c4.675-4.124,10.602-6.4,16.891-6.4
			c6.467,0.005,12.361,2.433,16.872,6.4H448V428.8z M448,332.8H272.877c-4.511,3.971-10.409,6.4-16.877,6.4
			s-12.365-2.429-16.877-6.4H64v-38.4h175.108c4.676-4.124,10.602-6.4,16.892-6.4c6.467,0.005,12.361,2.433,16.872,6.4H448V332.8z
			 M448,236.8H151.292c-4.676,4.124-10.602,6.4-16.892,6.4c-6.468,0-12.365-2.429-16.877-6.4H64v-38.4h53.523
			c4.511-3.971,10.409-6.4,16.877-6.4s12.365,2.429,16.877,6.4H448V236.8z"/>
	</g>
</g>
<g>
	<g>
		<path d="M473.6,19.2H38.4C17.193,19.2,0,36.393,0,57.6v51.2h512V57.6C512,36.393,494.807,19.2,473.6,19.2z M64,89.6
			c-14.139,0-25.6-11.461-25.6-25.6S49.861,38.4,64,38.4S89.6,49.861,89.6,64S78.139,89.6,64,89.6z M473.6,83.2H256V44.8h217.6V83.2
			z"/>
	</g>
</g>
<g>
</g>
<g>
</g>
<g>
</g>
<g>
</g>
<g>
</g>
<g>
</g>
<g>
</g>
<g>
</g>
<g>
</g>
<g>
</g>
<g>
</g>
<g>
</g>
<g>
</g>
<g>
</g>
<g>
</g>
</svg>
