<?xml version="1.0" encoding="iso-8859-1"?>
<!-- Generator: Adobe Illustrator 19.0.0, SVG Export Plug-In . SVG Version: 6.00 Build 0)  -->
<svg version="1.1" id="Layer_1" xmlns="http://www.w3.org/2000/svg" xmlns:xlink="http://www.w3.org/1999/xlink" x="0px" y="0px"
	 viewBox="0 0 512 512" style="enable-background:new 0 0 512 512;" xml:space="preserve">
<g>
	<g>
		<path d="M0,147.2v307.2c0,21.207,17.193,38.4,38.4,38.4h435.2c21.207,0,38.4-17.193,38.4-38.4V147.2H0z M204.8,416h-128v-38.4h128
			V416z M140.8,364.8c-38.819,0-70.4-31.581-70.4-70.4c0-38.819,31.581-70.4,70.4-70.4s70.4,31.581,70.4,70.4
			C211.2,333.219,179.619,364.8,140.8,364.8z M384,416H256v-38.4h128V416z M435.2,339.2H256v-38.4h179.2V339.2z M435.2,262.4H256
			V224h179.2V262.4z"/>
	</g>
</g>
<g>
	<g>
		<path d="M140.8,262.4c-17.645,0-32,14.355-32,32c0,10.446,5.033,19.739,12.8,25.582V307.2c0-10.604,8.596-19.2,19.2-19.2
			s19.2,8.596,19.2,19.2v12.782c7.767-5.843,12.8-15.136,12.8-25.582C172.8,276.755,158.445,262.4,140.8,262.4z"/>
	</g>
</g>
<g>
	<g>
		<path d="M473.6,19.2H38.4C17.193,19.2,0,36.393,0,57.6v51.2h512V57.6C512,36.393,494.807,19.2,473.6,19.2z M64,89.6
			c-14.139,0-25.6-11.461-25.6-25.6S49.861,38.4,64,38.4S89.6,49.861,89.6,64S78.139,89.6,64,89.6z M473.6,83.2H256V44.8h217.6V83.2
			z"/>
	</g>
</g>
<g>
</g>
<g>
</g>
<g>
</g>
<g>
</g>
<g>
</g>
<g>
</g>
<g>
</g>
<g>
</g>
<g>
</g>
<g>
</g>
<g>
</g>
<g>
</g>
<g>
</g>
<g>
</g>
<g>
</g>
</svg>
