<?xml version="1.0" encoding="iso-8859-1"?>
<!-- Generator: Adobe Illustrator 19.0.0, SVG Export Plug-In . SVG Version: 6.00 Build 0)  -->
<svg version="1.1" id="Layer_1" xmlns="http://www.w3.org/2000/svg" xmlns:xlink="http://www.w3.org/1999/xlink" x="0px" y="0px"
	 viewBox="0 0 512 512" style="enable-background:new 0 0 512 512;" xml:space="preserve">
<g>
	<g>
		<circle cx="255.998" cy="149.357" r="57.445"/>
	</g>
</g>
<g>
	<g>
		<path d="M423.16,430.833l29.843-17.23l-121.97-211.26c-13.539,19.114-34.175,32.847-58.047,37.326l157.238,272.33l29.848-17.232
			L423.16,430.833z"/>
	</g>
</g>
<g>
	<g>
		<path d="M221.533,0v64.175c10.651-4.327,22.282-6.73,34.467-6.73c12.185,0,23.815,2.405,34.467,6.73V0H221.533z"/>
	</g>
</g>
<g>
	<g>
		<path d="M180.969,202.343l-121.97,211.26l29.841,17.23l-36.912,63.934L81.778,512l157.238-272.331
			C215.144,235.189,194.508,221.457,180.969,202.343z"/>
	</g>
</g>
<g>
	<g>
		<polygon points="14.732,338.924 14.732,373.391 42.414,373.391 62.313,338.924 		"/>
	</g>
</g>
<g>
	<g>
		<polygon points="449.686,338.924 469.586,373.391 497.268,373.391 497.268,338.924 		"/>
	</g>
</g>
<g>
	<g>
		<polygon points="290.491,338.924 273.233,338.924 273.233,310.202 238.767,310.202 238.767,338.924 221.511,338.924 
			201.611,373.391 238.767,373.391 238.767,402.114 273.233,402.114 273.233,373.391 310.391,373.391 		"/>
	</g>
</g>
<g>
</g>
<g>
</g>
<g>
</g>
<g>
</g>
<g>
</g>
<g>
</g>
<g>
</g>
<g>
</g>
<g>
</g>
<g>
</g>
<g>
</g>
<g>
</g>
<g>
</g>
<g>
</g>
<g>
</g>
</svg>
