<?xml version="1.0" encoding="iso-8859-1"?>
<!-- Generator: Adobe Illustrator 19.0.0, SVG Export Plug-In . SVG Version: 6.00 Build 0)  -->
<svg version="1.1" id="Layer_1" xmlns="http://www.w3.org/2000/svg" xmlns:xlink="http://www.w3.org/1999/xlink" x="0px" y="0px"
	 viewBox="0 0 512 512" style="enable-background:new 0 0 512 512;" xml:space="preserve">
<g>
	<g>
		<path d="M273.349,266.016V512l195.678-112.976l-6.35-3.666l17.349-30.048l6.35,3.666V143.024L273.349,266.016z M307.879,305.984
			l-27.318-15.771l17.349-30.048l27.318,15.771L307.879,305.984z M353.409,332.271L326.091,316.5l17.349-30.049l27.318,15.771
			L353.409,332.271z M398.938,358.557l-27.318-15.771l17.349-30.048l27.318,15.771L398.938,358.557z M444.466,384.843
			l-27.318-15.771l17.349-30.048l27.318,15.771L444.466,384.843z"/>
	</g>
</g>
<g>
	<g>
		<path d="M25.624,143.024v225.952l6.35-3.666l17.349,30.048l-6.35,3.666L238.652,512V266.016L25.624,143.024z M67.535,384.842
			l-17.349-30.048l27.318-15.771l17.349,30.048L67.535,384.842z M113.063,358.556l-17.349-30.048l27.318-15.771l17.349,30.048
			L113.063,358.556z M158.592,332.271l-17.349-30.048l27.318-15.772L185.91,316.5L158.592,332.271z M204.122,305.983l-17.349-30.048
			l27.318-15.771l17.349,30.048L204.122,305.983z"/>
	</g>
</g>
<g>
	<g>
		<path d="M273.349,0v7.333h-34.698V0L42.973,112.976l213.028,122.992l213.027-122.992L273.349,0z M273.349,217.622h-34.698v-31.544
			h34.698V217.622z M273.349,165.05h-34.698v-31.543h34.698V165.05z M273.349,112.477h-34.698V80.935h34.698V112.477z
			 M273.349,59.906h-34.698V28.362h34.698V59.906z"/>
	</g>
</g>
<g>
</g>
<g>
</g>
<g>
</g>
<g>
</g>
<g>
</g>
<g>
</g>
<g>
</g>
<g>
</g>
<g>
</g>
<g>
</g>
<g>
</g>
<g>
</g>
<g>
</g>
<g>
</g>
<g>
</g>
</svg>
