<?xml version="1.0" encoding="iso-8859-1"?>
<!-- Generator: Adobe Illustrator 19.0.0, SVG Export Plug-In . SVG Version: 6.00 Build 0)  -->
<svg version="1.1" id="Layer_1" xmlns="http://www.w3.org/2000/svg" xmlns:xlink="http://www.w3.org/1999/xlink" x="0px" y="0px"
	 viewBox="0 0 512 512" style="enable-background:new 0 0 512 512;" xml:space="preserve">
<g>
	<g>
		<path d="M0,0v512h512V0H0z M86.072,60.214l102.88,102.879V85.336h36.571v140.19H85.333v-36.571h77.762L60.214,86.072
			L86.072,60.214z M225.525,426.669h-36.571V348.91L86.073,451.79l-25.86-25.86l102.88-102.879H85.335V286.48h140.19V426.669z
			 M425.928,451.789l-102.88-102.882v77.762h-36.571v-140.19h140.19v36.571H348.91l102.878,102.879L425.928,451.789z
			 M348.905,188.955h77.762v36.571h-140.19V85.336h36.571v77.757l102.88-102.879l25.86,25.86L348.905,188.955z"/>
	</g>
</g>
<g>
</g>
<g>
</g>
<g>
</g>
<g>
</g>
<g>
</g>
<g>
</g>
<g>
</g>
<g>
</g>
<g>
</g>
<g>
</g>
<g>
</g>
<g>
</g>
<g>
</g>
<g>
</g>
<g>
</g>
</svg>
