<?xml version="1.0" encoding="iso-8859-1"?>
<!-- Generator: Adobe Illustrator 19.0.0, SVG Export Plug-In . SVG Version: 6.00 Build 0)  -->
<svg version="1.1" id="Layer_1" xmlns="http://www.w3.org/2000/svg" xmlns:xlink="http://www.w3.org/1999/xlink" x="0px" y="0px"
	 viewBox="0 0 512 512" style="enable-background:new 0 0 512 512;" xml:space="preserve">
<g>
	<g>
		<path d="M230.4,185.6c-10.587,0-19.2,8.613-19.2,19.2s8.613,19.2,19.2,19.2c10.587,0,19.2-8.613,19.2-19.2
			S240.987,185.6,230.4,185.6z"/>
	</g>
</g>
<g>
	<g>
		<path d="M204.8,64l-51.2-51.2H0v382.447l128-128l102.4,102.4l153.6-153.6l128,128V64H204.8z M230.4,262.4
			c-31.761,0-57.6-25.838-57.6-57.6s25.839-57.6,57.6-57.6c31.761,0,57.6,25.838,57.6,57.6S262.161,262.4,230.4,262.4z"/>
	</g>
</g>
<g>
	<g>
		<path d="M384,270.353l-153.6,153.6L128,321.553l-128,128V460.8c0,21.207,17.193,38.4,38.4,38.4h435.2
			c21.207,0,38.4-17.193,38.4-38.4v-62.447L384,270.353z"/>
	</g>
</g>
<g>
</g>
<g>
</g>
<g>
</g>
<g>
</g>
<g>
</g>
<g>
</g>
<g>
</g>
<g>
</g>
<g>
</g>
<g>
</g>
<g>
</g>
<g>
</g>
<g>
</g>
<g>
</g>
<g>
</g>
</svg>
