<?xml version="1.0" encoding="iso-8859-1"?>
<!-- Generator: Adobe Illustrator 19.0.0, SVG Export Plug-In . SVG Version: 6.00 Build 0)  -->
<svg version="1.1" id="Layer_1" xmlns="http://www.w3.org/2000/svg" xmlns:xlink="http://www.w3.org/1999/xlink" x="0px" y="0px"
	 viewBox="0 0 512 512" style="enable-background:new 0 0 512 512;" xml:space="preserve">
<g>
	<g>
		<path d="M290.133,136.533h-68.267c-56.554,0-102.4,45.847-102.4,102.4V409.6c0,56.553,45.846,102.4,102.4,102.4h68.267
			c56.554,0,102.4-45.847,102.4-102.4V238.933C392.533,182.38,346.688,136.533,290.133,136.533z M273.067,307.2h-34.133V204.8
			h34.133V307.2z"/>
	</g>
</g>
<g>
	<g>
		<path d="M284.444,0c0,30.203-9.128,43.325-19.699,58.52c-8.121,11.675-16.964,24.405-21.905,43.88h35.818
			c3.627-9.313,8.674-16.579,14.106-24.387C304.864,60.621,318.578,40.908,318.578,0H284.444z"/>
	</g>
</g>
<g>
</g>
<g>
</g>
<g>
</g>
<g>
</g>
<g>
</g>
<g>
</g>
<g>
</g>
<g>
</g>
<g>
</g>
<g>
</g>
<g>
</g>
<g>
</g>
<g>
</g>
<g>
</g>
<g>
</g>
</svg>
