<?xml version="1.0" encoding="iso-8859-1"?>
<!-- Generator: Adobe Illustrator 19.0.0, SVG Export Plug-In . SVG Version: 6.00 Build 0)  -->
<svg version="1.1" id="Layer_1" xmlns="http://www.w3.org/2000/svg" xmlns:xlink="http://www.w3.org/1999/xlink" x="0px" y="0px"
	 viewBox="0 0 512 512" style="enable-background:new 0 0 512 512;" xml:space="preserve">
<g>
	<g>
		<path d="M109.714,384c-10.083,0-18.286,8.203-18.286,18.286c0,10.084,8.203,18.286,18.286,18.286S128,412.37,128,402.286
			C128,392.203,119.797,384,109.714,384z"/>
	</g>
</g>
<g>
	<g>
		<rect x="91.429" y="91.429" width="36.571" height="36.571"/>
	</g>
</g>
<g>
	<g>
		<rect x="91.429" y="237.714" width="36.571" height="36.571"/>
	</g>
</g>
<g>
	<g>
		<path d="M0,0v402.286C0,462.88,49.122,512,109.714,512s109.714-49.12,109.714-109.714V0H0z M109.714,457.143
			c-30.248,0-54.857-24.608-54.857-54.857c0-30.248,24.609-54.857,54.857-54.857s54.857,24.609,54.857,54.857
			C164.571,432.535,139.963,457.143,109.714,457.143z M164.571,310.857H54.857V201.143h109.714V310.857z M164.571,164.571H54.857
			V54.857h109.714V164.571z"/>
	</g>
</g>
<g>
	<g>
		<path d="M316.594,40.248L256,100.842v77.579l60.594-60.594l77.58,77.58l-77.58,77.58L256,212.393v51.721l34.733,34.734
			L256,333.581v68.704c0,3.081-0.107,6.138-0.295,9.172l216.049-216.051L316.594,40.248z"/>
	</g>
</g>
<g>
	<g>
		
			<rect x="298.313" y="177.118" transform="matrix(0.7071 -0.7071 0.7071 0.7071 -45.4417 281.1011)" width="36.571" height="36.571"/>
	</g>
</g>
<g>
	<g>
		<path d="M426.31,292.571l-54.856,54.857h85.689v109.714H347.429v-85.689l-36.571,36.571v49.118h-49.118l-48.517,48.517
			l0.009-0.138c-2.222,2.228-4.509,4.393-6.872,6.478H512V292.571H426.31z"/>
	</g>
</g>
<g>
	<g>
		<rect x="384" y="384" width="36.571" height="36.571"/>
	</g>
</g>
<g>
</g>
<g>
</g>
<g>
</g>
<g>
</g>
<g>
</g>
<g>
</g>
<g>
</g>
<g>
</g>
<g>
</g>
<g>
</g>
<g>
</g>
<g>
</g>
<g>
</g>
<g>
</g>
<g>
</g>
</svg>
