<?xml version="1.0" encoding="iso-8859-1"?>
<!-- Generator: Adobe Illustrator 19.0.0, SVG Export Plug-In . SVG Version: 6.00 Build 0)  -->
<svg version="1.1" id="Layer_1" xmlns="http://www.w3.org/2000/svg" xmlns:xlink="http://www.w3.org/1999/xlink" x="0px" y="0px"
	 viewBox="0 0 512 512" style="enable-background:new 0 0 512 512;" xml:space="preserve">
<g>
	<g>
		<rect x="56.195" y="462.049" width="399.61" height="49.951"/>
	</g>
</g>
<g>
	<g>
		<polygon points="362.146,18.732 362.146,93.659 437.073,93.659 		"/>
	</g>
</g>
<g>
	<g>
		<polygon points="324.683,131.122 324.683,0 56.195,0 56.195,187.317 455.805,187.317 455.805,131.122 		"/>
	</g>
</g>
<g>
	<g>
		<path d="M328.377,298.535h-11.351v47.429h11.351c13.79,0,21.017-10.456,21.017-23.827
			C349.394,310.113,342.792,298.535,328.377,298.535z"/>
	</g>
</g>
<g>
	<g>
		<path d="M181.038,298.535h-14.386v21.802h15.062c4.903,0,7.98-4.785,7.98-11.013C189.691,302.908,186.303,298.535,181.038,298.535
			z"/>
	</g>
</g>
<g>
	<g>
		<path d="M56.195,224.781v199.805h399.61V224.781H56.195z M182.835,336.41h-16.184v25.736h-18.432v-79.797h34.054
			c14.722,0,26.075,13.612,26.075,26.975C208.348,324.683,196.839,336.41,182.835,336.41z M252.29,363.047
			c-13.112,0-24.274-3.475-34.054-9.892l8.092-16.072c6.996,4.77,15.816,9.33,26.301,9.33c6.519,0,9.778-1.986,9.778-5.957
			c0-4.377-5.121-6.796-11.632-8.542c-21.834-5.852-29.164-11.212-29.164-24.276c0-13.237,8.828-25.961,29.446-25.961
			c11.148,0,19.889,3.826,28.772,8.766l-8.092,15.285c-6.644-5.005-15.697-7.643-21.242-7.643c-6.594,0-9.89,2.212-9.89,6.631
			c0,5.842,8.04,7.403,16.746,9.778c17.614,4.805,24.838,10.658,24.838,24.164C282.187,352.052,272.895,363.047,252.29,363.047z
			 M328.377,362.146h-29.783v-79.797h29.783c24.405,0,39.786,16.942,39.786,39.786C368.163,346.537,351.116,362.146,328.377,362.146
			z"/>
	</g>
</g>
<g>
</g>
<g>
</g>
<g>
</g>
<g>
</g>
<g>
</g>
<g>
</g>
<g>
</g>
<g>
</g>
<g>
</g>
<g>
</g>
<g>
</g>
<g>
</g>
<g>
</g>
<g>
</g>
<g>
</g>
</svg>
