<?xml version="1.0" encoding="iso-8859-1"?>
<!-- Generator: Adobe Illustrator 19.0.0, SVG Export Plug-In . SVG Version: 6.00 Build 0)  -->
<svg version="1.1" id="Layer_1" xmlns="http://www.w3.org/2000/svg" xmlns:xlink="http://www.w3.org/1999/xlink" x="0px" y="0px"
	 viewBox="0 0 512.001 512.001" style="enable-background:new 0 0 512.001 512.001;" xml:space="preserve">
<g>
	<g>
		<path d="M418.909,0.001l-81.454,81.454l62.06,62.06l-23.272,23.272l-62.062-62.06L290.908,128l38.787,38.789l-23.273,23.272
			l-38.787-38.787l-23.272,23.272l62.06,62.06L283.15,259.88l-62.06-62.061l-23.273,23.274l38.786,38.787l-23.272,23.274
			l-38.787-38.787l-23.272,23.272l62.06,62.06l-23.272,23.274l-62.06-62.061l-23.272,23.274l38.787,38.786l-23.272,23.274
			l-38.787-38.787L58.182,360.73l62.06,62.06l-23.272,23.273l-62.062-62.06L0,418.909L93.09,512L512.001,93.09L418.909,0.001z
			 M407.274,104.726c-8.568-8.569-8.568-22.462,0-31.03c8.569-8.568,22.461-8.568,31.029,0c8.568,8.569,8.568,22.461,0,31.03
			C429.735,113.295,415.843,113.295,407.274,104.726z"/>
	</g>
</g>
<g>
</g>
<g>
</g>
<g>
</g>
<g>
</g>
<g>
</g>
<g>
</g>
<g>
</g>
<g>
</g>
<g>
</g>
<g>
</g>
<g>
</g>
<g>
</g>
<g>
</g>
<g>
</g>
<g>
</g>
</svg>
