<?xml version="1.0" encoding="iso-8859-1"?>
<!-- Generator: Adobe Illustrator 19.0.0, SVG Export Plug-In . SVG Version: 6.00 Build 0)  -->
<svg version="1.1" id="Layer_1" xmlns="http://www.w3.org/2000/svg" xmlns:xlink="http://www.w3.org/1999/xlink" x="0px" y="0px"
	 viewBox="0 0 512 512" style="enable-background:new 0 0 512 512;" xml:space="preserve">
<g>
	<g>
		<path d="M161.391,139.13V372.87h267.13V139.13H161.391z M271.842,321.613l-41.766-0.733l-0.734-41.764l95.521-95.521l42.5,42.5
			L271.842,321.613z"/>
	</g>
</g>
<g>
	<g>
		<path d="M478.609,55.652H33.391C14.95,55.652,0,70.603,0,89.043v333.913c0,18.441,14.95,33.391,33.391,33.391h445.217
			c18.441,0,33.391-14.95,33.391-33.391V89.043C512,70.603,497.05,55.652,478.609,55.652z M94.609,350.609H38.957v-33.391h55.652
			V350.609z M44.522,256c0-12.295,9.966-22.261,22.261-22.261c12.295,0,22.261,9.966,22.261,22.261s-9.966,22.261-22.261,22.261
			S44.522,268.295,44.522,256z M94.609,194.783H38.957v-33.391h55.652V194.783z M461.913,406.261H128V105.739h333.913V406.261z"/>
	</g>
</g>
<g>
</g>
<g>
</g>
<g>
</g>
<g>
</g>
<g>
</g>
<g>
</g>
<g>
</g>
<g>
</g>
<g>
</g>
<g>
</g>
<g>
</g>
<g>
</g>
<g>
</g>
<g>
</g>
<g>
</g>
</svg>
