<?xml version="1.0" encoding="iso-8859-1"?>
<!-- Generator: Adobe Illustrator 19.0.0, SVG Export Plug-In . SVG Version: 6.00 Build 0)  -->
<svg version="1.1" id="Layer_1" xmlns="http://www.w3.org/2000/svg" xmlns:xlink="http://www.w3.org/1999/xlink" x="0px" y="0px"
	 viewBox="0 0 512 512" style="enable-background:new 0 0 512 512;" xml:space="preserve">
<g>
	<g>
		<rect x="16.34" y="429.753" width="65.362" height="65.362"/>
	</g>
</g>
<g>
	<g>
		<rect x="430.298" y="16.885" width="65.362" height="65.362"/>
	</g>
</g>
<g>
	<g>
		<path d="M505.619,240.048c-4.115-4.115-9.586-6.38-15.411-6.38c-5.501,0.002-10.518,2.07-14.357,5.447h-95.097
			c8.663-5.269,16.895-11.146,24.637-17.636c32.618-27.341,55.215-64.168,66.327-107.641h-33.903
			C414.355,191.955,347.342,239.115,256,239.115H36.151c-3.839-3.379-8.859-5.447-14.363-5.447C9.774,233.668,0,243.442,0,255.455
			c0,12.009,9.772,21.783,21.782,21.787h0.005c5.352,0,10.397-1.937,14.375-5.447h95.695
			c-44.862,27.312-77.055,70.572-91.299,125.277h33.906C98.211,318.932,165.066,271.796,256,271.796h219.85
			c3.839,3.379,8.859,5.447,14.363,5.447c12.013,0,21.787-9.774,21.787-21.782C512.002,249.639,509.736,244.165,505.619,240.048z"/>
	</g>
</g>
<g>
</g>
<g>
</g>
<g>
</g>
<g>
</g>
<g>
</g>
<g>
</g>
<g>
</g>
<g>
</g>
<g>
</g>
<g>
</g>
<g>
</g>
<g>
</g>
<g>
</g>
<g>
</g>
<g>
</g>
</svg>
