<?xml version="1.0" encoding="iso-8859-1"?>
<!-- Generator: Adobe Illustrator 19.0.0, SVG Export Plug-In . SVG Version: 6.00 Build 0)  -->
<svg version="1.1" id="Layer_1" xmlns="http://www.w3.org/2000/svg" xmlns:xlink="http://www.w3.org/1999/xlink" x="0px" y="0px"
	 viewBox="0 0 512 512" style="enable-background:new 0 0 512 512;" xml:space="preserve">
<g>
	<g>
		<path d="M424.585,49.951v49.951h-37.463V49.951h-37.463v49.951h-37.463V49.951h-37.463v49.951h-37.463V49.951h-37.463v49.951
			h-37.463V49.951h-37.463v49.951H87.415V49.951H6.244V512h499.512V49.951H424.585z M237.268,455.805H62.439V143.61h174.829V455.805
			z M449.561,455.805H274.732V143.61h174.829V455.805z"/>
	</g>
</g>
<g>
	<g>
		<rect x="237.268" width="37.463" height="49.951"/>
	</g>
</g>
<g>
	<g>
		<rect x="162.341" width="37.463" height="49.951"/>
	</g>
</g>
<g>
	<g>
		<rect x="87.415" width="37.463" height="49.951"/>
	</g>
</g>
<g>
	<g>
		<rect x="387.122" width="37.463" height="49.951"/>
	</g>
</g>
<g>
	<g>
		<rect x="312.195" width="37.463" height="49.951"/>
	</g>
</g>
<g>
	<g>
		<polygon points="111.479,181.073 149.854,257.823 188.229,181.073 		"/>
	</g>
</g>
<g>
	<g>
		<polygon points="99.902,241.689 99.902,357.726 128.912,299.707 		"/>
	</g>
</g>
<g>
	<g>
		<polygon points="362.146,341.591 323.771,418.341 400.521,418.341 		"/>
	</g>
</g>
<g>
	<g>
		<polygon points="170.796,299.707 199.805,357.726 199.805,241.689 		"/>
	</g>
</g>
<g>
	<g>
		<polygon points="149.854,341.591 111.479,418.341 188.229,418.341 		"/>
	</g>
</g>
<g>
	<g>
		<polygon points="323.771,181.073 362.146,257.823 400.521,181.073 		"/>
	</g>
</g>
<g>
	<g>
		<polygon points="312.195,241.689 312.195,357.726 341.204,299.707 		"/>
	</g>
</g>
<g>
	<g>
		<polygon points="383.088,299.707 412.098,357.726 412.098,241.689 		"/>
	</g>
</g>
<g>
</g>
<g>
</g>
<g>
</g>
<g>
</g>
<g>
</g>
<g>
</g>
<g>
</g>
<g>
</g>
<g>
</g>
<g>
</g>
<g>
</g>
<g>
</g>
<g>
</g>
<g>
</g>
<g>
</g>
</svg>
