<?xml version="1.0" encoding="iso-8859-1"?>
<!-- Generator: Adobe Illustrator 19.0.0, SVG Export Plug-In . SVG Version: 6.00 Build 0)  -->
<svg version="1.1" id="Layer_1" xmlns="http://www.w3.org/2000/svg" xmlns:xlink="http://www.w3.org/1999/xlink" x="0px" y="0px"
	 viewBox="0 0 512 512" style="enable-background:new 0 0 512 512;" xml:space="preserve">
<g>
	<g>
		<polygon points="256,387.093 190.899,428.522 321.1,428.522 		"/>
	</g>
</g>
<g>
	<g>
		<polygon points="287.098,367.304 361.739,414.803 361.739,319.805 		"/>
	</g>
</g>
<g>
	<g>
		<path d="M395.13,128v111.304H116.87V128H66.783v384h378.435V128H395.13z M395.13,461.913H116.87V272.696H395.13V461.913z"/>
	</g>
</g>
<g>
	<g>
		<polygon points="190.899,306.087 256,347.516 321.1,306.087 		"/>
	</g>
</g>
<g>
	<g>
		<polygon points="150.261,319.806 150.261,414.802 224.902,367.304 		"/>
	</g>
</g>
<g>
	<g>
		<polygon points="150.261,97.198 150.261,192.196 224.902,144.698 		"/>
	</g>
</g>
<g>
	<g>
		<polygon points="287.098,144.698 361.739,192.197 361.739,97.197 		"/>
	</g>
</g>
<g>
	<g>
		<polygon points="66.783,0 66.783,94.609 116.87,94.609 116.87,50.087 395.13,50.087 395.13,94.609 445.217,94.609 445.217,0 		"/>
	</g>
</g>
<g>
	<g>
		<polygon points="256,164.487 190.903,205.913 321.097,205.913 		"/>
	</g>
</g>
<g>
	<g>
		<polygon points="190.899,83.478 256,124.907 321.101,83.478 		"/>
	</g>
</g>
<g>
</g>
<g>
</g>
<g>
</g>
<g>
</g>
<g>
</g>
<g>
</g>
<g>
</g>
<g>
</g>
<g>
</g>
<g>
</g>
<g>
</g>
<g>
</g>
<g>
</g>
<g>
</g>
<g>
</g>
</svg>
