<?xml version="1.0" encoding="iso-8859-1"?>
<!-- Generator: Adobe Illustrator 19.0.0, SVG Export Plug-In . SVG Version: 6.00 Build 0)  -->
<svg version="1.1" id="Layer_1" xmlns="http://www.w3.org/2000/svg" xmlns:xlink="http://www.w3.org/1999/xlink" x="0px" y="0px"
	 viewBox="0 0 512 512" style="enable-background:new 0 0 512 512;" xml:space="preserve">
<g>
	<g>
		<polygon points="512,358.64 461.31,307.938 461.31,341.949 50.69,341.949 50.69,307.938 0,358.64 50.69,409.355 50.69,375.341 
			461.31,375.341 461.31,409.355 		"/>
	</g>
</g>
<g>
	<g>
		<path d="M33.391,102.645v155.826h445.217V102.645H33.391z M217.732,213.949l-27.246-71.123h17.429l16.729,50.488l16.529-50.488
			h17.33l-26.947,71.123H217.732z M307.288,213.949l-5.51-15.929H279.64l-5.409,15.929h-16.829l25.946-71.123h14.825l25.945,71.123
			H307.288z"/>
	</g>
</g>
<g>
	<g>
		<polygon points="290.759,161.557 282.244,186.701 299.074,186.701 		"/>
	</g>
</g>
<g>
</g>
<g>
</g>
<g>
</g>
<g>
</g>
<g>
</g>
<g>
</g>
<g>
</g>
<g>
</g>
<g>
</g>
<g>
</g>
<g>
</g>
<g>
</g>
<g>
</g>
<g>
</g>
<g>
</g>
</svg>
