<?xml version="1.0" encoding="iso-8859-1"?>
<!-- Generator: Adobe Illustrator 19.0.0, SVG Export Plug-In . SVG Version: 6.00 Build 0)  -->
<svg xmlns="http://www.w3.org/2000/svg" xmlns:xlink="http://www.w3.org/1999/xlink" version="1.1" id="Capa_1" x="0px" y="0px" viewBox="0 0 512 512" style="enable-background:new 0 0 512 512;" xml:space="preserve">
<g>
	<g>
		<path d="M299.339,481.808h-28.242v-39.361h-30.192v0.001v39.361h-28.242c-8.337,0-15.096,6.759-15.096,15.096    c0,8.337,6.759,15.095,15.096,15.095h86.676c8.337,0,15.096-6.759,15.096-15.096C314.435,488.567,307.676,481.808,299.339,481.808    z"/>
	</g>
</g>
<g>
	<g>
		<path d="M296.885,0h-81.771c-16.569,0-30,13.431-30,30v352.448c0,16.569,13.432,30,30,30h81.771c16.569,0,30-13.431,30-30V30    C326.885,13.431,313.455,0,296.885,0z"/>
	</g>
</g>
<g>
</g>
<g>
</g>
<g>
</g>
<g>
</g>
<g>
</g>
<g>
</g>
<g>
</g>
<g>
</g>
<g>
</g>
<g>
</g>
<g>
</g>
<g>
</g>
<g>
</g>
<g>
</g>
<g>
</g>
</svg>
