<?xml version="1.0" encoding="iso-8859-1"?>
<!-- Generator: Adobe Illustrator 19.0.0, SVG Export Plug-In . SVG Version: 6.00 Build 0)  -->
<svg xmlns="http://www.w3.org/2000/svg" xmlns:xlink="http://www.w3.org/1999/xlink" version="1.1" id="Capa_1" x="0px" y="0px" viewBox="0 0 512 512" style="enable-background:new 0 0 512 512;" xml:space="preserve">
<g>
	<g>
		<path d="M502.136,63.895l-56.05-50.564c-5.489-4.951-12.62-7.693-20.012-7.693h-51.241v0.001V125.1    c0,8.25-6.688,14.938-14.938,14.938H134.767c-8.25,0-14.938-6.688-14.938-14.938V5.639H29.876C13.376,5.639,0,19.014,0,35.515    v440.971c0,16.501,13.376,29.876,29.876,29.876h452.247c16.501,0,29.876-13.376,29.876-29.876V86.078    C512,77.621,508.416,69.559,502.136,63.895z M458.309,448.028c0,8.25-6.688,14.938-14.938,14.938H68.629    c-8.25,0-14.938-6.688-14.938-14.938V243.307c0-8.25,6.688-14.938,14.938-14.938h374.742c8.25,0,14.938,6.688,14.938,14.938    V448.028z"/>
	</g>
</g>
<g>
	<g>
		<rect x="149.7" y="5.639" width="113.968" height="104.527"/>
	</g>
</g>
<g>
	<g>
		<rect x="293.545" y="5.639" width="51.41" height="104.527"/>
	</g>
</g>
<g>
	<g>
		<path d="M83.567,258.245V433.09h344.866V258.245H83.567z M142.406,293.895h98.367c8.25,0,14.938,6.688,14.938,14.938    s-6.688,14.938-14.938,14.938h-98.367c-8.25,0-14.938-6.688-14.938-14.938S134.156,293.895,142.406,293.895z M320.54,380.311    H142.406c-8.25,0-14.938-6.688-14.938-14.938c0-8.25,6.688-14.938,14.938-14.938H320.54c8.25,0,14.938,6.688,14.938,14.938    C335.479,373.623,328.79,380.311,320.54,380.311z"/>
	</g>
</g>
<g>
</g>
<g>
</g>
<g>
</g>
<g>
</g>
<g>
</g>
<g>
</g>
<g>
</g>
<g>
</g>
<g>
</g>
<g>
</g>
<g>
</g>
<g>
</g>
<g>
</g>
<g>
</g>
<g>
</g>
</svg>
