<?xml version="1.0" encoding="iso-8859-1"?>
<!-- Generator: Adobe Illustrator 19.0.0, SVG Export Plug-In . SVG Version: 6.00 Build 0)  -->
<svg xmlns="http://www.w3.org/2000/svg" xmlns:xlink="http://www.w3.org/1999/xlink" version="1.1" id="Capa_1" x="0px" y="0px" viewBox="0 0 512 512" style="enable-background:new 0 0 512 512;" xml:space="preserve">
<g>
	<g>
		<path d="M496.053,96.656L254.14,258.208c8.621,8.709,13.956,20.677,13.956,33.87c0,6.75-1.401,13.178-3.919,19.015l103.443-38.23    c32.61-12.052,60.419-34.379,79.233-63.615l63.446-98.586C516.287,101.357,505.255,90.511,496.053,96.656z"/>
	</g>
</g>
<g>
	<g>
		<path d="M401.339,1.703l-98.586,63.446c-29.235,18.814-51.562,46.623-63.614,79.233l-38.231,103.443    c5.837-2.518,12.265-3.919,19.015-3.919c13.193-0.001,25.161,5.334,33.87,13.956L415.345,15.948    C421.49,6.747,410.644-4.285,401.339,1.703z"/>
	</g>
</g>
<g>
	<g>
		<path d="M181.345,263.257c-2.968-3.885-7.037-6.84-11.731-8.441c-39.05-13.315-80.947-10.627-117.975,7.569l-16.532,8.125    C4.02,285.788-8.843,323.508,6.435,354.598l4.925,10.021c3.12,6.349,7.175,11.936,11.919,16.68    c18.486,18.485,47.428,24.149,72.167,11.991l16.532-8.125c29.493-14.494,53.081-37.447,68.189-65.92    c-5.306-7.74-8.417-17.096-8.417-27.167C171.749,281.28,175.321,271.3,181.345,263.257z M89.851,342.749l-17.828,8.761    c-6.988,3.435-15.468,0.543-18.904-6.446c0-0.001,0-0.001,0-0.001l-5.31-10.805c-3.436-6.99-0.544-15.471,6.445-18.906    l17.828-8.761c20.975-10.308,44.086-13.811,66.71-10.339C127.719,316.286,110.826,332.442,89.851,342.749z"/>
	</g>
</g>
<g>
	<g>
		<path d="M257.184,342.386c-1.601-4.695-4.556-8.764-8.442-11.731c-8.042,6.024-18.022,9.596-28.821,9.596    c-10.07,0.001-19.426-3.111-27.166-8.417c-28.473,15.108-51.426,38.695-65.92,68.189l-8.125,16.532    c-12.158,24.739-6.494,53.681,11.992,72.167c4.745,4.745,10.331,8.799,16.68,11.919l-0.001-0.001l10.021,4.925    c31.09,15.277,68.81,2.414,84.088-28.672l8.124-16.532C267.811,423.333,270.499,381.435,257.184,342.386z M205.409,439.919    l-8.761,17.828c-3.434,6.989-11.915,9.881-18.906,6.445l-10.805-5.309c0,0,0,0-0.001-0.001    c-6.989-3.436-9.881-11.916-6.446-18.904l8.761-17.828c10.307-20.975,26.464-37.868,46.496-48.941    C219.22,395.833,215.717,418.944,205.409,439.919z"/>
	</g>
</g>
<g>
	<g>
		<path d="M219.923,273.905c-10.021,0-18.174,8.152-18.174,18.173s8.152,18.174,18.174,18.174c10.021,0,18.173-8.152,18.173-18.174    C238.096,282.058,229.943,273.905,219.923,273.905z"/>
	</g>
</g>
<g>
</g>
<g>
</g>
<g>
</g>
<g>
</g>
<g>
</g>
<g>
</g>
<g>
</g>
<g>
</g>
<g>
</g>
<g>
</g>
<g>
</g>
<g>
</g>
<g>
</g>
<g>
</g>
<g>
</g>
</svg>
