<?xml version="1.0" encoding="iso-8859-1"?>
<!-- Generator: Adobe Illustrator 19.0.0, SVG Export Plug-In . SVG Version: 6.00 Build 0)  -->
<svg xmlns="http://www.w3.org/2000/svg" xmlns:xlink="http://www.w3.org/1999/xlink" version="1.1" id="Capa_1" x="0px" y="0px" viewBox="0 0 512 512" style="enable-background:new 0 0 512 512;" xml:space="preserve">
<g>
	<g>
		<path d="M424.302,251.152H22.985v19.614c0,8.284,6.716,15,15,15h371.318c8.284,0,15-6.716,15-15L424.302,251.152L424.302,251.152z    "/>
	</g>
</g>
<g>
	<g>
		<path d="M499.784,152.941L175.172,91.632c-43.34-8.284-87.899,2.886-122.248,30.646C27.2,143.067,9.53,171.445,2.181,202.821    c-2.196,9.374,5.004,18.33,14.632,18.33H512V167.68C512,160.469,506.869,154.279,499.784,152.941z"/>
	</g>
</g>
<g>
	<g>
		<path d="M454.302,251.152V354.49H30c-16.569,0-30,13.431-30,30v23.552c0,8.284,6.716,15,15,15h482c8.284,0,15-6.716,15-15v-156.89    H454.302z"/>
	</g>
</g>
<g>
</g>
<g>
</g>
<g>
</g>
<g>
</g>
<g>
</g>
<g>
</g>
<g>
</g>
<g>
</g>
<g>
</g>
<g>
</g>
<g>
</g>
<g>
</g>
<g>
</g>
<g>
</g>
<g>
</g>
</svg>
