<?xml version="1.0" encoding="iso-8859-1"?>
<!-- Generator: Adobe Illustrator 19.0.0, SVG Export Plug-In . SVG Version: 6.00 Build 0)  -->
<svg xmlns="http://www.w3.org/2000/svg" xmlns:xlink="http://www.w3.org/1999/xlink" version="1.1" id="Capa_1" x="0px" y="0px" viewBox="0 0 512 512" style="enable-background:new 0 0 512 512;" xml:space="preserve">
<g>
	<g>
		<polygon points="359.073,125.087 318.548,220.588 382.548,220.588 413.308,148.101   "/>
	</g>
</g>
<g>
	<g>
		<path d="M423.985,121.24l-2.707-43.334c-0.237-3.795-2.598-7.129-6.097-8.615c-3.501-1.487-7.539-0.866-10.432,1.6L371.7,99.053    c-0.997,0.849-1.802,1.892-2.4,3.053l54.157,22.981C423.876,123.851,424.066,122.548,423.985,121.24z"/>
	</g>
</g>
<g>
	<g>
		<path d="M300.16,67.991h-26.424V53.819c0-8.316-6.741-15.057-15.057-15.057H209.06c-8.316,0-15.057,6.741-15.057,15.057v166.769    h79.733V98.105h11.367v86.101c0,8.316,6.741,15.057,15.057,15.057c8.316,0,15.057-6.741,15.057-15.057V83.048    C315.217,74.732,308.476,67.991,300.16,67.991z"/>
	</g>
</g>
<g>
	<g>
		<path d="M138.076,0h-13.079c-19.211,0-34.785,15.574-34.785,34.785v132.18c0,6.337,5.137,11.474,11.474,11.474v42.15h59.701    v-0.001v-42.15c6.337,0,11.474-5.137,11.474-11.474V34.785C172.861,15.574,157.287,0,138.076,0z"/>
	</g>
</g>
<g>
	<g>
		<path d="M368.599,250.589H102.998c-8.764-0.001-15.662,7.481-14.951,16.216l17.715,217.629    C107.03,500.007,120.038,512,135.663,512h200.272c15.625,0,28.634-11.993,29.901-27.566l17.714-217.628    C384.261,258.071,377.364,250.589,368.599,250.589z"/>
	</g>
</g>
<g>
</g>
<g>
</g>
<g>
</g>
<g>
</g>
<g>
</g>
<g>
</g>
<g>
</g>
<g>
</g>
<g>
</g>
<g>
</g>
<g>
</g>
<g>
</g>
<g>
</g>
<g>
</g>
<g>
</g>
</svg>
