<?xml version="1.0" encoding="iso-8859-1"?>
<!-- Generator: Adobe Illustrator 19.0.0, SVG Export Plug-In . SVG Version: 6.00 Build 0)  -->
<svg xmlns="http://www.w3.org/2000/svg" xmlns:xlink="http://www.w3.org/1999/xlink" version="1.1" id="Capa_1" x="0px" y="0px" viewBox="0 0 512.001 512.001" style="enable-background:new 0 0 512.001 512.001;" xml:space="preserve">
<g>
	<g>
		<path d="M347.426,0h-7.765c-9.609,0-17.428,7.818-17.428,17.427V28.42c16.148,2.955,30.781,10.293,42.621,20.731V17.427    C364.854,7.818,357.036,0,347.426,0z"/>
	</g>
</g>
<g>
	<g>
		<path d="M306.215,57.112H205.786c-32.334,0-58.639,26.305-58.639,58.639v337.612c0,32.333,26.305,58.638,58.639,58.638h100.429    c32.334-0.001,58.639-26.306,58.639-58.639V115.751C364.854,83.417,338.549,57.112,306.215,57.112z M177.057,153.559    c0-14.642,11.912-26.553,26.554-26.553h104.78c14.642,0,26.554,11.912,26.554,26.553v35.39c0,14.642-11.912,26.553-26.554,26.553    h-104.78c-14.642,0-26.554-11.912-26.554-26.553V153.559z M206.398,461.155h-16.893c-8.324,0-15.071-6.748-15.071-15.071    c0-8.323,6.748-15.071,15.071-15.071h16.893c8.324,0,15.071,6.748,15.071,15.071C221.469,454.407,214.721,461.155,206.398,461.155    z M206.398,412.051h-16.893c-8.324,0-15.071-6.748-15.071-15.071c0-8.323,6.748-15.071,15.071-15.071h16.893    c8.324,0,15.071,6.748,15.071,15.071C221.469,405.303,214.721,412.051,206.398,412.051z M206.398,362.946h-16.893    c-8.324,0-15.071-6.748-15.071-15.071c0-8.324,6.748-15.071,15.071-15.071h16.893c8.324,0,15.071,6.748,15.071,15.071    C221.469,356.199,214.721,362.946,206.398,362.946z M264.448,461.155h-16.893c-8.324,0-15.071-6.748-15.071-15.071    c0-8.323,6.748-15.071,15.071-15.071h16.893c8.324,0,15.071,6.748,15.071,15.071C279.519,454.407,272.771,461.155,264.448,461.155    z M264.448,412.051h-16.893c-8.324,0-15.071-6.748-15.071-15.071c0-8.323,6.748-15.071,15.071-15.071h16.893    c8.324,0,15.071,6.748,15.071,15.071C279.519,405.303,272.771,412.051,264.448,412.051z M264.448,362.946h-16.893    c-8.324,0-15.071-6.748-15.071-15.071c0-8.324,6.748-15.071,15.071-15.071h16.893c8.324,0,15.071,6.748,15.071,15.071    C279.519,356.199,272.771,362.946,264.448,362.946z M322.498,461.155h-16.893c-8.324,0-15.071-6.748-15.071-15.071    c0-8.323,6.748-15.071,15.071-15.071h16.893c8.324,0,15.071,6.748,15.071,15.071C337.569,454.407,330.821,461.155,322.498,461.155    z M322.498,412.051h-16.893c-8.324,0-15.071-6.748-15.071-15.071c0-8.323,6.748-15.071,15.071-15.071h16.893    c8.324,0,15.071,6.748,15.071,15.071C337.569,405.303,330.821,412.051,322.498,412.051z M322.498,362.946h-16.893    c-8.324,0-15.071-6.748-15.071-15.071c0-8.324,6.748-15.071,15.071-15.071h16.893c8.324,0,15.071,6.748,15.071,15.071    C337.569,356.199,330.821,362.946,322.498,362.946z"/>
	</g>
</g>
<g>
	<g>
		<rect x="207.201" y="157.15" width="97.6" height="28.21"/>
	</g>
</g>
<g>
</g>
<g>
</g>
<g>
</g>
<g>
</g>
<g>
</g>
<g>
</g>
<g>
</g>
<g>
</g>
<g>
</g>
<g>
</g>
<g>
</g>
<g>
</g>
<g>
</g>
<g>
</g>
<g>
</g>
</svg>
