<?xml version="1.0" encoding="iso-8859-1"?>
<!-- Generator: Adobe Illustrator 19.0.0, SVG Export Plug-In . SVG Version: 6.00 Build 0)  -->
<svg xmlns="http://www.w3.org/2000/svg" xmlns:xlink="http://www.w3.org/1999/xlink" version="1.1" id="Capa_1" x="0px" y="0px" viewBox="0 0 512 512" style="enable-background:new 0 0 512 512;" xml:space="preserve">
<g>
	<g>
		<path d="M511.128,372.987L468.4,189.896V91.427c0-17.044-13.478-30.935-30.357-31.61l-5.052-21.648    c-4.149-17.777-21.923-28.825-39.7-24.676L194.932,59.784H75.243c-17.476,0-31.643,14.167-31.643,31.643v3.674l-18.052,4.213    c-17.777,4.149-28.825,21.923-24.676,39.7L43.6,322.105v98.468c0,17.044,13.478,30.935,30.357,31.61l5.052,21.648    c4.149,17.777,21.923,28.825,39.7,24.676l198.359-46.291h119.688c17.476,0,31.643-14.167,31.643-31.643v-3.674l18.052-4.213    C504.229,408.538,515.276,390.764,511.128,372.987z M256,378.76H121.715c-8.438,0-15.279-6.841-15.279-15.28    c0-8.439,6.841-15.28,15.28-15.28H256c8.439,0,15.28,6.841,15.28,15.28C271.28,371.919,264.439,378.76,256,378.76z     M390.284,307.106H121.715c-8.438,0-15.28-6.841-15.28-15.28c0-8.439,6.841-15.28,15.28-15.28h268.569    c8.438,0,15.28,6.841,15.28,15.28C405.564,300.265,398.723,307.106,390.284,307.106z M390.284,235.454H121.715    c-8.438,0-15.28-6.841-15.28-15.28c0-8.439,6.841-15.28,15.28-15.28h268.569c8.439,0,15.28,6.841,15.28,15.28    C405.564,228.613,398.723,235.454,390.284,235.454z M390.285,163.8h-268.57c-8.438,0-15.28-6.841-15.28-15.28    c0-8.439,6.841-15.28,15.28-15.28h268.57c8.438,0,15.28,6.841,15.28,15.28C405.565,156.959,398.724,163.8,390.285,163.8z"/>
	</g>
</g>
<g>
</g>
<g>
</g>
<g>
</g>
<g>
</g>
<g>
</g>
<g>
</g>
<g>
</g>
<g>
</g>
<g>
</g>
<g>
</g>
<g>
</g>
<g>
</g>
<g>
</g>
<g>
</g>
<g>
</g>
</svg>
