<?xml version="1.0" encoding="iso-8859-1"?>
<!-- Generator: Adobe Illustrator 19.0.0, SVG Export Plug-In . SVG Version: 6.00 Build 0)  -->
<svg xmlns="http://www.w3.org/2000/svg" xmlns:xlink="http://www.w3.org/1999/xlink" version="1.1" id="Capa_1" x="0px" y="0px" viewBox="0 0 512 512" style="enable-background:new 0 0 512 512;" xml:space="preserve">
<g>
	<g>
		<path d="M349.795,24.082h-187.59c-16.548,0-29.963,13.415-29.963,29.963v122.334h247.516V54.046    C379.758,37.497,366.343,24.082,349.795,24.082z M327.994,142.848H184.005c-8.274,0-14.981-6.707-14.981-14.981    s6.708-14.981,14.981-14.981h143.989c8.274,0,14.981,6.707,14.981,14.981S336.268,142.848,327.994,142.848z M327.994,91.301    H184.005c-8.274,0-14.981-6.707-14.981-14.981s6.708-14.981,14.981-14.981h143.989c8.274,0,14.981,6.707,14.981,14.981    S336.268,91.301,327.994,91.301z"/>
	</g>
</g>
<g>
	<g>
		<path d="M468.913,206.342H43.086C19.29,206.342,0,225.632,0,249.428v160.11c0,16.569,13.431,30,30,30h63.669v-43.539H57.691    c-8.274,0-14.981-6.707-14.981-14.981v-55.265c0-8.274,6.707-14.981,14.981-14.981h396.618c8.274,0,14.981,6.707,14.981,14.981    v55.265c0,8.274-6.707,14.981-14.981,14.981h-35.978v43.539H482c16.569,0,30-13.431,30-30V249.429    C512,225.632,492.709,206.342,468.913,206.342z M77.706,284.652H57.691c-8.274,0-14.981-6.707-14.981-14.981    s6.707-14.981,14.981-14.981h20.015c8.274,0,14.981,6.707,14.981,14.981S85.98,284.652,77.706,284.652z"/>
	</g>
</g>
<g>
	<g>
		<path d="M388.404,340.734H123.596c0.011,0.238,0.036,0.472,0.036,0.713v116.507c0,16.548,13.415,29.963,29.963,29.963h204.811    c16.548,0,29.963-13.415,29.963-29.963V341.447h-0.001C388.368,341.206,388.393,340.972,388.404,340.734z"/>
	</g>
</g>
<g>
</g>
<g>
</g>
<g>
</g>
<g>
</g>
<g>
</g>
<g>
</g>
<g>
</g>
<g>
</g>
<g>
</g>
<g>
</g>
<g>
</g>
<g>
</g>
<g>
</g>
<g>
</g>
<g>
</g>
</svg>
