<?xml version="1.0" encoding="iso-8859-1"?>
<!-- Generator: Adobe Illustrator 19.0.0, SVG Export Plug-In . SVG Version: 6.00 Build 0)  -->
<svg xmlns="http://www.w3.org/2000/svg" xmlns:xlink="http://www.w3.org/1999/xlink" version="1.1" id="Capa_1" x="0px" y="0px" viewBox="0 0 512 512" style="enable-background:new 0 0 512 512;" xml:space="preserve">
<g>
	<g>
		<path d="M419.294,0H117.765c-16.569,0-30,13.431-30,30v3.502H77.742c-3.856,0-7.362,1.464-10.024,3.851    c-3.069,2.753-5.012,6.737-5.012,11.184c0,4.447,1.942,8.431,5.012,11.184c2.661,2.387,6.167,3.851,10.024,3.851h10.024v39.084    H77.742c-3.856,0-7.362,1.464-10.024,3.851c-3.069,2.753-5.012,6.737-5.012,11.184c0,4.447,1.942,8.431,5.012,11.184    c2.661,2.387,6.167,3.851,10.024,3.851h10.024v39.083H77.742c-3.856,0-7.362,1.464-10.024,3.851    c-3.069,2.753-5.012,6.737-5.012,11.184s1.942,8.431,5.012,11.184c2.661,2.387,6.167,3.851,10.024,3.851h10.024v39.083H77.742    c-3.856,0-7.362,1.464-10.024,3.851c-3.069,2.753-5.012,6.737-5.012,11.184s1.942,8.431,5.012,11.184    c2.661,2.387,6.167,3.851,10.024,3.851h10.024v39.083H77.742c-3.856,0-7.362,1.464-10.024,3.851    c-3.069,2.753-5.012,6.737-5.012,11.184c0,4.447,1.942,8.431,5.012,11.184c2.661,2.387,6.167,3.851,10.024,3.851h10.024v39.083    H77.742c-3.856,0-7.362,1.464-10.024,3.851c-3.069,2.753-5.012,6.737-5.012,11.184c0,4.447,1.942,8.431,5.012,11.184    c2.661,2.387,6.167,3.851,10.024,3.851h10.024v39.084H77.742c-3.856,0-7.362,1.464-10.024,3.851    c-3.069,2.753-5.012,6.737-5.012,11.184c0,4.447,1.942,8.431,5.012,11.184c2.661,2.387,6.167,3.851,10.024,3.851h10.023v0.006V482    c0,16.569,13.431,30,30,30h301.529c16.569,0,30-13.431,30-30V30C449.294,13.431,435.863,0,419.294,0z M394.597,112.72    c0,5.535-4.488,10.024-10.024,10.024H152.486c-5.536,0-10.024-4.488-10.024-10.024V85.329h0.001    c0-5.535,4.488-10.024,10.024-10.024h232.086c5.536,0,10.024,4.488,10.024,10.024V112.72z"/>
	</g>
</g>
<g>
</g>
<g>
</g>
<g>
</g>
<g>
</g>
<g>
</g>
<g>
</g>
<g>
</g>
<g>
</g>
<g>
</g>
<g>
</g>
<g>
</g>
<g>
</g>
<g>
</g>
<g>
</g>
<g>
</g>
</svg>
