<?xml version="1.0" encoding="iso-8859-1"?>
<!-- Generator: Adobe Illustrator 19.0.0, SVG Export Plug-In . SVG Version: 6.00 Build 0)  -->
<svg xmlns="http://www.w3.org/2000/svg" xmlns:xlink="http://www.w3.org/1999/xlink" version="1.1" id="Capa_1" x="0px" y="0px" viewBox="0 0 511.999 511.999" style="enable-background:new 0 0 511.999 511.999;" xml:space="preserve">
<g>
	<g>
		<path d="M18.818,70.074v426.946c0,8.273,6.707,14.98,14.98,14.98h108.189c8.273,0,14.98-6.707,14.98-14.98V70.074H18.818z     M87.892,461.376c-15.913,0-28.815-12.9-28.815-28.815s12.9-28.814,28.815-28.814s28.815,12.901,28.815,28.814    C116.707,448.474,103.806,461.376,87.892,461.376z"/>
	</g>
</g>
<g>
	<g>
		<path d="M141.987,0H33.798c-8.273,0-14.98,6.707-14.98,14.98v25.135h138.148V14.98C156.966,6.707,150.259,0,141.987,0z"/>
	</g>
</g>
<g>
	<g>
		<path d="M310.094,0H201.905c-8.273,0-14.98,6.707-14.98,14.98v25.135h138.148V14.98C325.074,6.707,318.367,0,310.094,0z"/>
	</g>
</g>
<g>
	<g>
		<path d="M186.925,70.074v426.946c0,8.273,6.707,14.98,14.98,14.98h108.189c8.273,0,14.98-6.707,14.98-14.98V70.074H186.925z     M256,461.376c-15.913,0-28.815-12.9-28.815-28.815s12.9-28.814,28.815-28.814s28.815,12.901,28.815,28.814    C284.814,448.474,271.913,461.376,256,461.376z"/>
	</g>
</g>
<g>
	<g>
		<path d="M478.201,0H370.013c-8.273,0-14.98,6.707-14.98,14.98v25.135h138.148V14.98C493.181,6.707,486.474,0,478.201,0z"/>
	</g>
</g>
<g>
	<g>
		<path d="M355.033,70.074v426.946c0,8.273,6.707,14.98,14.98,14.98h108.189c8.273,0,14.98-6.707,14.98-14.98V70.074H355.033z     M424.107,461.376c-15.913,0-28.815-12.9-28.815-28.815s12.9-28.814,28.815-28.814s28.815,12.901,28.815,28.814    C452.922,448.474,440.02,461.376,424.107,461.376z"/>
	</g>
</g>
<g>
</g>
<g>
</g>
<g>
</g>
<g>
</g>
<g>
</g>
<g>
</g>
<g>
</g>
<g>
</g>
<g>
</g>
<g>
</g>
<g>
</g>
<g>
</g>
<g>
</g>
<g>
</g>
<g>
</g>
</svg>
