<?xml version="1.0" encoding="iso-8859-1"?>
<!-- Generator: Adobe Illustrator 19.0.0, SVG Export Plug-In . SVG Version: 6.00 Build 0)  -->
<svg xmlns="http://www.w3.org/2000/svg" xmlns:xlink="http://www.w3.org/1999/xlink" version="1.1" id="Capa_1" x="0px" y="0px" viewBox="0 0 512 512" style="enable-background:new 0 0 512 512;" xml:space="preserve">
<g>
	<g>
		<path d="M433.359,0H78.641C62.118,0,48.723,13.395,48.723,29.918v210.625h414.554V29.918C463.277,13.395,449.882,0,433.359,0z     M416.587,189.57c0,8.262-6.697,14.959-14.959,14.959H110.372c-8.262,0-14.959-6.697-14.959-14.959V51.969    c0-8.262,6.697-14.959,14.959-14.959h291.256c8.262,0,14.959,6.697,14.959,14.959V189.57z"/>
	</g>
</g>
<g>
	<g>
		<path d="M125.331,66.928v107.683h261.338V66.928H125.331z M289.122,135.729h-66.243c-8.262,0-14.959-6.697-14.959-14.959    c0-8.262,6.697-14.959,14.959-14.959h66.243c8.262,0,14.959,6.697,14.959,14.959C304.081,129.032,297.383,135.729,289.122,135.729    z"/>
	</g>
</g>
<g>
	<g>
		<path d="M48.723,270.461v211.621c0,16.523,13.395,29.918,29.918,29.918h354.718c16.523,0,29.918-13.395,29.918-29.918V270.461    H48.723z M416.587,460.031c0,8.262-6.697,14.959-14.959,14.959H110.372c-8.262,0-14.959-6.697-14.959-14.959V322.43    c0-8.262,6.697-14.959,14.959-14.959h291.256c8.262,0,14.959,6.697,14.959,14.959V460.031z"/>
	</g>
</g>
<g>
	<g>
		<path d="M125.331,337.389v107.683h261.338V337.389H125.331z M289.121,406.189h-66.243c-8.262,0-14.959-6.697-14.959-14.959    c0-8.262,6.698-14.959,14.959-14.959h66.243c8.262,0,14.959,6.697,14.959,14.959C304.08,399.492,297.383,406.189,289.121,406.189z    "/>
	</g>
</g>
<g>
</g>
<g>
</g>
<g>
</g>
<g>
</g>
<g>
</g>
<g>
</g>
<g>
</g>
<g>
</g>
<g>
</g>
<g>
</g>
<g>
</g>
<g>
</g>
<g>
</g>
<g>
</g>
<g>
</g>
</svg>
