<?xml version="1.0" encoding="iso-8859-1"?>
<!-- Generator: Adobe Illustrator 19.0.0, SVG Export Plug-In . SVG Version: 6.00 Build 0)  -->
<svg xmlns="http://www.w3.org/2000/svg" xmlns:xlink="http://www.w3.org/1999/xlink" version="1.1" id="Capa_1" x="0px" y="0px" viewBox="0 0 512 512" style="enable-background:new 0 0 512 512;" xml:space="preserve">
<g>
	<g>
		<path d="M374.201,0c-8.292,0-15.014,6.722-15.014,15.014c0,5.79-1.375,11.262-3.804,16.118    c-4.339,8.677-12.062,15.379-21.432,18.358c-3.451,1.097-7.124,1.694-10.933,1.694h-22.824c-29.687,0-54.872,19.645-63.241,46.617    h32.853c5.854-9.052,15.63-15.337,26.91-16.418c1.145-0.11,2.303-0.17,3.476-0.17h22.824c36.502,0,66.198-29.696,66.198-66.198    C389.216,6.722,382.493,0,374.201,0z"/>
	</g>
</g>
<g>
	<g>
		<path d="M299.333,127.828h-35.31v124.063h111.21V203.73C375.234,161.878,341.186,127.828,299.333,127.828z"/>
	</g>
</g>
<g>
	<g>
		<path d="M198.685,127.829c-41.852,0-75.901,34.05-75.901,75.902v48.16h111.21V127.829H198.685z"/>
	</g>
</g>
<g>
	<g>
		<path d="M122.784,281.92v140.849c0,49.202,40.029,89.231,89.231,89.231h73.989c49.201,0,89.23-40.028,89.23-89.231V281.92H122.784    z"/>
	</g>
</g>
<g>
</g>
<g>
</g>
<g>
</g>
<g>
</g>
<g>
</g>
<g>
</g>
<g>
</g>
<g>
</g>
<g>
</g>
<g>
</g>
<g>
</g>
<g>
</g>
<g>
</g>
<g>
</g>
<g>
</g>
</svg>
