<?xml version="1.0" encoding="iso-8859-1"?>
<!-- Generator: Adobe Illustrator 19.0.0, SVG Export Plug-In . SVG Version: 6.00 Build 0)  -->
<svg xmlns="http://www.w3.org/2000/svg" xmlns:xlink="http://www.w3.org/1999/xlink" version="1.1" id="Capa_1" x="0px" y="0px" viewBox="0 0 512 512" style="enable-background:new 0 0 512 512;" xml:space="preserve">
<g>
	<g>
		<path d="M61.756,160.34v151.112h388.489V160.34H61.756z M307.686,249.941H204.313c-8.292,0-15.014-6.721-15.014-15.014    c0-8.292,6.722-15.014,15.014-15.014h103.371c8.292,0,15.014,6.722,15.014,15.014C322.699,243.22,315.977,249.941,307.686,249.941    z"/>
	</g>
</g>
<g>
	<g>
		<path d="M451.217,0H60.782C44.198,0,30.754,13.443,30.754,30.027v26.723c0,8.292,6.722,15.014,15.014,15.014h15.988v58.548    h388.489V71.764h15.988c8.292,0,15.014-6.722,15.014-15.014V30.027C481.244,13.443,467.801,0,451.217,0z"/>
	</g>
</g>
<g>
	<g>
		<path d="M61.756,341.479v130.396c0,8.292,6.722,15.014,15.014,15.014h1.606v10.098c0,8.292,6.722,15.014,15.014,15.014h18.882    c8.292,0,15.014-6.722,15.014-15.014v-10.098h257.429v10.098c0,8.292,6.722,15.014,15.014,15.014h18.882    c8.292,0,15.014-6.722,15.014-15.014v-10.097h0h1.606c8.292,0,15.014-6.722,15.014-15.014V341.479H61.756z M307.686,428.12    H204.313c-8.292,0-15.014-6.722-15.014-15.014c0-8.292,6.722-15.014,15.014-15.014h103.371c8.292,0,15.014,6.722,15.014,15.014    C322.698,421.398,315.977,428.12,307.686,428.12z"/>
	</g>
</g>
<g>
</g>
<g>
</g>
<g>
</g>
<g>
</g>
<g>
</g>
<g>
</g>
<g>
</g>
<g>
</g>
<g>
</g>
<g>
</g>
<g>
</g>
<g>
</g>
<g>
</g>
<g>
</g>
<g>
</g>
</svg>
