<?xml version="1.0" encoding="iso-8859-1"?>
<!-- Generator: Adobe Illustrator 19.0.0, SVG Export Plug-In . SVG Version: 6.00 Build 0)  -->
<svg xmlns="http://www.w3.org/2000/svg" xmlns:xlink="http://www.w3.org/1999/xlink" version="1.1" id="Capa_1" x="0px" y="0px" viewBox="0 0 511.999 511.999" style="enable-background:new 0 0 511.999 511.999;" xml:space="preserve">
<g>
	<g>
		<path d="M449.459,194.539c-2.315,1.021-4.491,2.46-6.388,4.357L194.414,447.552c-29.847,29.845-78.408,29.845-108.255,0    c-29.466-29.466-29.466-77.413,0-106.879L371.667,55.166c8.442-8.442,19.649-13.083,31.579-13.083c0.063,0,0.128,0,0.19,0    c12.001,0.05,23.244,4.789,31.659,13.345c17.129,17.414,17.013,45.634-0.259,62.906l-282.74,282.74    c-2.19,2.19-5.096,3.394-8.191,3.394c-0.021,0-0.042,0-0.062,0c-3.118-0.017-6.036-1.251-8.217-3.48    c-4.424-4.517-4.385-11.829,0.085-16.299l281.661-281.661c8.217-8.217,8.217-21.54,0-29.757c-8.216-8.217-21.539-8.217-29.757,0    L105.954,354.932c-20.708,20.708-20.884,54.577-0.395,75.5c10.104,10.318,23.622,16.042,38.064,16.118c0.097,0,0.192,0,0.29,0    c14.333,0,27.799-5.575,37.942-15.719L439.87,172.815l24.723-24.724c16.289-16.289,25.313-37.947,25.408-60.982    c0.095-23.036-8.748-44.768-24.903-61.19c-16.343-16.617-38.18-25.822-61.487-25.918c-23.276-0.116-45.22,8.927-61.701,25.408    L56.403,310.916c-45.874,45.875-45.874,120.519,0,166.394c23.128,23.126,53.505,34.689,83.884,34.689s60.758-11.563,83.884-34.689    l248.658-248.658c8.217-8.217,8.217-21.54,0-29.756C466.509,192.574,457.174,191.136,449.459,194.539z"/>
	</g>
</g>
<g>
</g>
<g>
</g>
<g>
</g>
<g>
</g>
<g>
</g>
<g>
</g>
<g>
</g>
<g>
</g>
<g>
</g>
<g>
</g>
<g>
</g>
<g>
</g>
<g>
</g>
<g>
</g>
<g>
</g>
</svg>
