<?xml version="1.0" encoding="iso-8859-1"?>
<!-- Generator: Adobe Illustrator 19.0.0, SVG Export Plug-In . SVG Version: 6.00 Build 0)  -->
<svg xmlns="http://www.w3.org/2000/svg" xmlns:xlink="http://www.w3.org/1999/xlink" version="1.1" id="Capa_1" x="0px" y="0px" viewBox="0 0 512 512" style="enable-background:new 0 0 512 512;" xml:space="preserve">
<g>
	<g>
		<path d="M263.751,364.577c-2.387,1.424-5.069,2.137-7.751,2.137s-5.364-0.712-7.751-2.137L0,216.428v210.583    c0,8.284,6.716,15,15,15h482c8.284,0,15-6.716,15-15V216.428L263.751,364.577z"/>
	</g>
</g>
<g>
	<g>
		<path d="M15,148.66c-8.284,0-15,6.716-15,15v17.541l104.074,62.109v-94.65H15z"/>
	</g>
</g>
<g>
	<g>
		<path d="M497,148.66h-89.074v94.65L512,181.201V163.66C512,155.376,505.284,148.66,497,148.66z"/>
	</g>
</g>
<g>
	<g>
		<path d="M347.676,69.989H164.324c-16.569,0-30,13.431-30,30v161.373L256,333.975l121.676-72.613V99.989    C377.676,83.42,364.245,69.989,347.676,69.989z M188.987,152.341h134.025c8.353,0,15.125,6.772,15.125,15.125    c0,8.353-6.771,15.125-15.124,15.125H188.987c-8.353,0-15.125-6.772-15.125-15.125    C173.862,159.113,180.634,152.341,188.987,152.341z M323.013,236.978H188.987c-8.353,0-15.125-6.772-15.125-15.125    c0-8.353,6.772-15.125,15.125-15.125h134.025c8.354,0,15.126,6.771,15.126,15.125    C338.138,230.206,331.366,236.978,323.013,236.978z"/>
	</g>
</g>
<g>
</g>
<g>
</g>
<g>
</g>
<g>
</g>
<g>
</g>
<g>
</g>
<g>
</g>
<g>
</g>
<g>
</g>
<g>
</g>
<g>
</g>
<g>
</g>
<g>
</g>
<g>
</g>
<g>
</g>
</svg>
