<?xml version="1.0" encoding="iso-8859-1"?>
<!-- Generator: Adobe Illustrator 19.0.0, SVG Export Plug-In . SVG Version: 6.00 Build 0)  -->
<svg xmlns="http://www.w3.org/2000/svg" xmlns:xlink="http://www.w3.org/1999/xlink" version="1.1" id="Capa_1" x="0px" y="0px" viewBox="0 0 511.999 511.999" style="enable-background:new 0 0 511.999 511.999;" xml:space="preserve">
<g>
	<g>
		<path d="M313.297,369.973H198.705c-9.332,0.001-16.399,8.431-14.77,17.619l17.664,99.644C204.138,501.562,216.59,512,231.138,512    h49.726c14.548,0,27-10.438,29.539-24.764l17.664-99.644C329.696,378.404,322.629,369.973,313.297,369.973z"/>
	</g>
</g>
<g>
	<g>
		<path d="M413.781,153.69c-1.116-1.327-27.73-32.501-62.017-32.501c-0.627,0-1.247,0.032-1.869,0.052    c0.455-0.426,0.91-0.852,1.354-1.296c24.244-24.244,21.02-65.106,20.87-66.834c-0.418-4.844-4.259-8.685-9.103-9.103    c-1.728-0.147-42.591-3.374-66.835,20.87c-0.442,0.442-0.872,0.891-1.295,1.343c0.021-0.619,0.052-1.234,0.052-1.858    c0-34.286-31.175-60.9-32.502-62.016c-3.721-3.13-9.152-3.13-12.873,0c-1.327,1.116-32.502,27.73-32.502,62.016    c0,0.624,0.032,1.239,0.052,1.858c-0.424-0.452-0.854-0.901-1.295-1.343c-24.244-24.243-65.106-21.017-66.835-20.87    c-4.844,0.418-8.685,4.259-9.103,9.103c-0.149,1.728-3.374,42.59,20.87,66.834c0.444,0.444,0.899,0.87,1.354,1.296    c-0.622-0.021-1.241-0.052-1.869-0.052c-34.286,0-60.9,31.174-62.017,32.501c-3.129,3.72-3.129,9.153,0,12.873    c1.116,1.327,27.73,32.501,62.017,32.501c0.624,0,1.239-0.032,1.858-0.052c-0.453,0.424-0.902,0.854-1.344,1.296    c-24.244,24.244-21.02,65.106-20.87,66.834c0.418,4.844,4.259,8.685,9.103,9.103c0.386,0.033,2.722,0.22,6.389,0.22    c12.757,0,41.615-2.259,60.446-21.089c0.442-0.442,0.872-0.891,1.295-1.343c-0.021,0.619-0.052,1.234-0.052,1.858    c0,23.223,14.296,42.914,23.938,53.558v30.525h30V309.45c9.642-10.644,23.938-30.335,23.938-53.558    c0-0.624-0.032-1.239-0.052-1.858c0.424,0.452,0.854,0.901,1.295,1.343c18.833,18.832,47.691,21.089,60.446,21.089    c3.665,0,6.003-0.187,6.389-0.22c4.844-0.418,8.685-4.259,9.103-9.103c0.149-1.728,3.374-42.59-20.87-66.834    c-0.442-0.442-0.891-0.872-1.344-1.296c0.619,0.02,1.234,0.052,1.858,0.052c34.286,0,60.9-31.174,62.017-32.501    C416.91,162.843,416.91,157.411,413.781,153.69z M256.001,225.539c-36.069,0-65.413-29.344-65.413-65.413    c0-36.069,29.344-65.412,65.413-65.412c36.069,0,65.413,29.344,65.413,65.413S292.07,225.539,256.001,225.539z"/>
	</g>
</g>
<g>
	<g>
		<path d="M256.001,124.714c-19.526,0-35.413,15.886-35.413,35.413c0,19.526,15.887,35.413,35.413,35.413    s35.413-15.886,35.413-35.413S275.527,124.714,256.001,124.714z"/>
	</g>
</g>
<g>
</g>
<g>
</g>
<g>
</g>
<g>
</g>
<g>
</g>
<g>
</g>
<g>
</g>
<g>
</g>
<g>
</g>
<g>
</g>
<g>
</g>
<g>
</g>
<g>
</g>
<g>
</g>
<g>
</g>
</svg>
