<?xml version="1.0" encoding="iso-8859-1"?>
<!-- Generator: Adobe Illustrator 19.0.0, SVG Export Plug-In . SVG Version: 6.00 Build 0)  -->
<svg xmlns="http://www.w3.org/2000/svg" xmlns:xlink="http://www.w3.org/1999/xlink" version="1.1" id="Capa_1" x="0px" y="0px" viewBox="0 0 512.001 512.001" style="enable-background:new 0 0 512.001 512.001;" xml:space="preserve">
<g>
	<g>
		<path d="M140.432,465.37c-8.292-0.001-15.015-6.724-15.015-15.017V76.662H88.794c-16.586,0-30.031,13.445-30.031,30.031V481.97    c0,16.586,13.445,30.031,30.031,30.031h237.729c16.585,0,30.031-13.445,30.031-30.031v-16.6H140.432z"/>
	</g>
</g>
<g>
	<g>
		<path d="M379.016,89.236c-8.293,0-15.015-6.723-15.015-15.015V0H185.478c-16.586,0-30.031,13.445-30.031,30.031v405.307h267.76    c16.585,0,30.031-13.445,30.031-30.031V89.236H379.016z M383.15,373.366H225.536c-8.293,0-15.015-6.723-15.015-15.015    c0-8.292,6.723-15.015,15.015-15.015h157.613c8.293,0,15.015,6.723,15.015,15.015C398.164,366.643,391.442,373.366,383.15,373.366    z M383.15,314.446H225.536c-8.293,0-15.015-6.723-15.015-15.015c0-8.292,6.723-15.015,15.015-15.015h157.613    c8.293,0,15.015,6.723,15.015,15.015C398.164,307.723,391.442,314.446,383.15,314.446z M383.15,255.526H225.536    c-8.293,0-15.015-6.723-15.015-15.015c0-8.293,6.723-15.015,15.015-15.015h157.613c8.293,0,15.015,6.723,15.015,15.015    C398.165,248.804,391.442,255.526,383.15,255.526z M383.15,196.607H225.536c-8.293,0-15.015-6.723-15.015-15.015    c0-8.293,6.723-15.015,15.015-15.015h157.613c8.293,0,15.015,6.723,15.015,15.015C398.165,189.884,391.442,196.607,383.15,196.607    z"/>
	</g>
</g>
<g>
	<g>
		<polygon points="394.031,2.733 394.031,59.206 450.504,59.206   "/>
	</g>
</g>
<g>
</g>
<g>
</g>
<g>
</g>
<g>
</g>
<g>
</g>
<g>
</g>
<g>
</g>
<g>
</g>
<g>
</g>
<g>
</g>
<g>
</g>
<g>
</g>
<g>
</g>
<g>
</g>
<g>
</g>
</svg>
