<?xml version="1.0" encoding="iso-8859-1"?>
<!-- Generator: Adobe Illustrator 19.0.0, SVG Export Plug-In . SVG Version: 6.00 Build 0)  -->
<svg xmlns="http://www.w3.org/2000/svg" xmlns:xlink="http://www.w3.org/1999/xlink" version="1.1" id="Capa_1" x="0px" y="0px" viewBox="0 0 512.004 512.004" style="enable-background:new 0 0 512.004 512.004;" xml:space="preserve">
<g>
	<g>
		<path d="M511.92,219.733c-0.807-7.631-7.243-13.423-14.917-13.423h-24.29c-16.991-33.067-51.458-55.741-91.123-55.741    c-39.664,0-74.131,22.674-91.122,55.741h-68.932c-16.991-33.067-51.458-55.741-91.122-55.741s-74.131,22.674-91.123,55.741h-24.29    c-7.674,0-14.11,5.792-14.917,13.423c-0.807,7.631,4.276,14.641,11.78,16.246l17.041,3.644c-0.569,4.361-0.866,8.807-0.866,13.321    c0,20.093,5.823,38.85,15.864,54.68c-11.962,8.116-20.992,20.23-25.192,34.6c-2.324,7.951,2.239,16.281,10.19,18.605    c1.405,0.411,2.821,0.606,4.215,0.606c6.493,0,12.478-4.25,14.391-10.796c0.423-1.448,0.942-2.852,1.544-4.207    c3.031-6.813,8.244-12.357,14.747-15.818c7.454,6.402,15.836,11.752,24.914,15.818c12.744,5.707,26.858,8.886,41.702,8.886    s28.957-3.179,41.702-8.886c22.827-10.222,41.255-28.563,51.585-51.332l32.301-6.908l32.301,6.908    c10.33,22.768,28.758,41.109,51.585,51.332c12.744,5.707,26.858,8.886,41.702,8.886s28.958-3.179,41.702-8.886    c9.079-4.066,17.46-9.415,24.914-15.818c6.502,3.46,11.715,9.005,14.747,15.818c0.603,1.355,1.121,2.759,1.544,4.207    c1.913,6.547,7.898,10.796,14.391,10.796c1.394,0,2.81-0.195,4.215-0.606c7.951-2.324,12.514-10.654,10.19-18.605    c-4.2-14.37-13.23-26.484-25.192-34.6c10.041-15.83,15.864-34.587,15.864-54.68c0-4.514-0.297-8.96-0.866-13.321l17.041-3.644    C507.644,234.373,512.727,227.364,511.92,219.733z M279.222,252.547l-23.219,4.966l-23.219-4.966    c-0.021-5.526-0.486-10.948-1.353-16.237h49.145C279.708,241.599,279.243,247.021,279.222,252.547z"/>
	</g>
</g>
<g>
</g>
<g>
</g>
<g>
</g>
<g>
</g>
<g>
</g>
<g>
</g>
<g>
</g>
<g>
</g>
<g>
</g>
<g>
</g>
<g>
</g>
<g>
</g>
<g>
</g>
<g>
</g>
<g>
</g>
</svg>
