<?xml version="1.0" encoding="iso-8859-1"?>
<!-- Generator: Adobe Illustrator 19.0.0, SVG Export Plug-In . SVG Version: 6.00 Build 0)  -->
<svg xmlns="http://www.w3.org/2000/svg" xmlns:xlink="http://www.w3.org/1999/xlink" version="1.1" id="Capa_1" x="0px" y="0px" viewBox="0 0 512 512" style="enable-background:new 0 0 512 512;" xml:space="preserve">
<g>
	<g>
		<path d="M0,160.64v277.659c0,16.569,13.431,30,30,30h452c16.569,0,30-13.431,30-30V160.64H0z M238.18,381.985    c0,8.284-6.716,15-15,15H97.274c-8.284,0-15-6.716-15-15V258.549c0-8.285,6.716-15,15-15H223.18c8.284,0,15,6.716,15,15V381.985z     M334.875,381.985c0,8.284-6.716,15-15,15H297.21c-8.284,0-15-6.716-15-15v-23.068c0-8.285,6.715-15,15-15h22.665    c8.284,0,15,6.716,15,15V381.985z M334.875,281.617c0,8.284-6.716,15-15,15H297.21c-8.284,0-15-6.716-15-15v-23.068    c0-8.285,6.715-15,15-15h22.665c8.284,0,15,6.716,15,15V281.617z M429.726,381.985c0,8.284-6.716,15-15,15h-22.665    c-8.284,0-15-6.716-15-15v-23.068c0-8.285,6.716-15,15-15h22.665c8.284,0,15,6.716,15,15V381.985z M429.726,281.617    c0,8.284-6.716,15-15,15h-22.665c-8.284,0-15-6.716-15-15v-23.068c0-8.285,6.716-15,15-15h22.665c8.284,0,15,6.716,15,15V281.617z    "/>
	</g>
</g>
<g>
	<g>
		<path d="M491.914,71.461H445.29V58.766c0-2.688-0.712-5.206-1.946-7.391c-2.585-4.578-7.487-7.674-13.119-7.674    c-5.632,0-10.534,3.096-13.119,7.674c-1.234,2.185-1.946,4.703-1.946,7.391v12.696h-74.919V58.766    c0-2.688-0.712-5.206-1.946-7.391c-2.585-4.578-7.487-7.674-13.119-7.674c-5.632,0-10.534,3.096-13.119,7.674    c-1.234,2.185-1.946,4.703-1.946,7.391v12.696H201.887V58.766c0-2.688-0.712-5.206-1.946-7.391    c-2.585-4.578-7.487-7.674-13.119-7.674c-5.632,0-10.534,3.096-13.119,7.674c-1.234,2.185-1.946,4.703-1.946,7.391v12.696H96.839    V58.766c0-2.688-0.712-5.206-1.946-7.391c-2.585-4.578-7.487-7.674-13.119-7.674s-10.534,3.096-13.119,7.674    c-1.234,2.185-1.946,4.703-1.946,7.391v12.696H20.086C9.011,71.461,0,80.472,0,91.548v39.093h512V91.548    C512,80.472,502.989,71.461,491.914,71.461z"/>
	</g>
</g>
<g>
</g>
<g>
</g>
<g>
</g>
<g>
</g>
<g>
</g>
<g>
</g>
<g>
</g>
<g>
</g>
<g>
</g>
<g>
</g>
<g>
</g>
<g>
</g>
<g>
</g>
<g>
</g>
<g>
</g>
</svg>
