<?xml version="1.0" encoding="iso-8859-1"?>
<!-- Generator: Adobe Illustrator 19.0.0, SVG Export Plug-In . SVG Version: 6.00 Build 0)  -->
<svg xmlns="http://www.w3.org/2000/svg" xmlns:xlink="http://www.w3.org/1999/xlink" version="1.1" id="Capa_1" x="0px" y="0px" viewBox="0 0 512 512" style="enable-background:new 0 0 512 512;" xml:space="preserve">
<g>
	<g>
		<path d="M359.965,292.533v163.754c0,8.318-6.743,15.061-15.061,15.061H97.323c-8.318,0-15.061-6.743-15.061-15.061V59.523H48.757    c-8.318,0-15.061,6.743-15.061,15.061v407.295c0,16.636,13.486,30.121,30.121,30.121h314.591    c16.636,0,30.121-13.486,30.121-30.121V243.967L359.965,292.533z"/>
	</g>
</g>
<g>
	<g>
		<path d="M393.47,59.522h-33.505v105.857l48.566-48.566v-42.23C408.531,66.265,401.788,59.522,393.47,59.522z"/>
	</g>
</g>
<g>
	<g>
		<path d="M212.516,317.922c0.283-3.572,1.831-6.925,4.364-9.458L329.843,195.5V59.523H303.49v17.164    c0,8.318-6.743,15.061-15.061,15.061H153.798c-8.318,0-15.061-6.743-15.061-15.061V59.523h-26.354v381.703h217.46V322.654    l-49.387,49.387c-2.533,2.534-5.887,4.081-9.458,4.364l-45.922,3.644c-0.398,0.031-0.796,0.047-1.192,0.047    c-3.977,0-7.813-1.576-10.648-4.411c-3.118-3.118-4.713-7.445-4.364-11.841L212.516,317.922z"/>
	</g>
</g>
<g>
	<g>
		<path d="M473.958,114.963c-5.793-5.793-15.186-5.793-20.979,0L242.103,325.838l-1.808,22.788l22.788-1.808l210.876-210.875    C479.752,130.149,479.752,120.756,473.958,114.963z"/>
	</g>
</g>
<g>
	<g>
		<path d="M258.307,28.101h-4.159v-13.04C254.149,6.743,247.406,0,239.088,0h-35.949c-8.318,0-15.061,6.743-15.061,15.061v13.041    h-4.159c-8.318,0-15.061,6.743-15.061,15.061v18.464h104.51V43.162C273.368,34.844,266.625,28.101,258.307,28.101z"/>
	</g>
</g>
<g>
</g>
<g>
</g>
<g>
</g>
<g>
</g>
<g>
</g>
<g>
</g>
<g>
</g>
<g>
</g>
<g>
</g>
<g>
</g>
<g>
</g>
<g>
</g>
<g>
</g>
<g>
</g>
<g>
</g>
</svg>
