<?xml version="1.0" encoding="iso-8859-1"?>
<!-- Generator: Adobe Illustrator 19.0.0, SVG Export Plug-In . SVG Version: 6.00 Build 0)  -->
<svg xmlns="http://www.w3.org/2000/svg" xmlns:xlink="http://www.w3.org/1999/xlink" version="1.1" id="Capa_1" x="0px" y="0px" viewBox="0 0 512 512" style="enable-background:new 0 0 512 512;" xml:space="preserve">
<g>
	<g>
		<path d="M421.937,231.206h-34.244v30.053h34.244c6.765,0,12.269,5.504,12.269,12.269v107.467c0,6.765-5.504,12.269-12.269,12.269    h-34.244v30.053h34.244c23.336,0,42.321-18.986,42.321-42.322V273.527C464.258,250.191,445.273,231.206,421.937,231.206z"/>
	</g>
</g>
<g>
	<g>
		<path d="M135.097,57.465c-7.247,0-13.182-5.656-13.66-12.784c-0.021-0.306-0.047-0.611-0.047-0.923    c0-4.489,2.179-8.469,5.525-10.971c2.287-1.71,5.113-2.736,8.182-2.736c8.299,0,15.026-6.728,15.026-15.026    C150.123,6.727,143.396,0,135.097,0c-24.129,0-43.759,19.63-43.759,43.759c0,13.246,5.924,25.126,15.252,33.157    c7.664,6.599,17.624,10.602,28.508,10.602c7.557,0,13.706,6.148,13.706,13.706s-6.148,13.706-13.706,13.706h-52.94    c-8.299,0-15.026,6.728-15.026,15.026c0,6.34,3.932,11.751,9.485,13.958c1.716,0.682,3.582,1.068,5.541,1.068h52.939v0.001    c3.29,0,6.491-0.377,9.576-1.068c19.536-4.38,34.183-21.852,34.183-42.691C178.856,77.095,159.226,57.465,135.097,57.465z"/>
	</g>
</g>
<g>
	<g>
		<path d="M265.472,57.465c-7.247,0-13.182-5.656-13.66-12.783c-0.021-0.306-0.047-0.611-0.047-0.923    c0-4.49,2.179-8.469,5.525-10.971c2.287-1.71,5.113-2.735,8.181-2.735c8.299,0,15.026-6.728,15.026-15.026    C280.497,6.729,273.769,0,265.471,0c-24.129,0-43.76,19.63-43.76,43.759c0,13.246,5.924,25.126,15.252,33.158    c7.664,6.599,17.624,10.601,28.508,10.601c7.558,0,13.707,6.148,13.707,13.706s-6.148,13.706-13.707,13.706h-52.939    c-8.299,0-15.026,6.728-15.026,15.026c0,6.34,3.932,11.751,9.485,13.958c1.716,0.682,3.582,1.068,5.541,1.068h52.939v0.001    c3.29,0,6.492-0.377,9.576-1.068c19.537-4.38,34.184-21.852,34.184-42.691C309.231,77.095,289.601,57.465,265.472,57.465z"/>
	</g>
</g>
<g>
	<g>
		<path d="M327.693,163.95H77.742c-16.569,0-30,13.431-30,30v267.708c0,14.608,10.891,26.712,24.977,28.639    c-1.002,2.013-1.58,4.275-1.58,6.677c0,6.05,3.583,11.251,8.737,13.633c1.915,0.885,4.041,1.393,6.289,1.393h233.103    c2.249,0,4.374-0.508,6.289-1.393c5.154-2.382,8.738-7.583,8.738-13.633c0-2.402-0.578-4.663-1.58-6.677    c14.087-1.927,24.978-14.031,24.978-28.639V193.95C357.693,177.381,344.262,163.95,327.693,163.95z"/>
	</g>
</g>
<g>
</g>
<g>
</g>
<g>
</g>
<g>
</g>
<g>
</g>
<g>
</g>
<g>
</g>
<g>
</g>
<g>
</g>
<g>
</g>
<g>
</g>
<g>
</g>
<g>
</g>
<g>
</g>
<g>
</g>
</svg>
