<?xml version="1.0" encoding="iso-8859-1"?>
<!-- Generator: Adobe Illustrator 19.0.0, SVG Export Plug-In . SVG Version: 6.00 Build 0)  -->
<svg xmlns="http://www.w3.org/2000/svg" xmlns:xlink="http://www.w3.org/1999/xlink" version="1.1" id="Capa_1" x="0px" y="0px" viewBox="0 0 511.999 511.999" style="enable-background:new 0 0 511.999 511.999;" xml:space="preserve">
<g>
	<g>
		
			<rect x="47.652" y="228.454" transform="matrix(0.7071 -0.7071 0.7071 0.7071 -96.4008 259.9896)" width="435.966" height="35.815"/>
	</g>
</g>
<g>
	<g>
		<path d="M33.633,364.079L3.349,394.363c-4.464,4.464-4.464,11.728,0,16.191l98.093,98.092c2.162,2.162,5.037,3.353,8.095,3.353    c3.058,0,5.933-1.191,8.095-3.353l30.285-30.285L33.633,364.079z"/>
	</g>
</g>
<g>
	<g>
		<rect x="2.058" y="184.436" transform="matrix(0.7071 -0.7071 0.7071 0.7071 -77.518 214.3973)" width="435.966" height="32.67"/>
	</g>
</g>
<g>
	<g>
		
			<rect x="93.248" y="275.621" transform="matrix(0.7071 -0.7071 0.7071 0.7071 -115.2865 305.5852)" width="435.966" height="32.669"/>
	</g>
</g>
<g>
	<g>
		<path d="M493.622,0.359L388.806,23.24l99.95,99.949l22.883-104.813C513.992,7.6,504.399-1.994,493.622,0.359z"/>
	</g>
</g>
<g>
</g>
<g>
</g>
<g>
</g>
<g>
</g>
<g>
</g>
<g>
</g>
<g>
</g>
<g>
</g>
<g>
</g>
<g>
</g>
<g>
</g>
<g>
</g>
<g>
</g>
<g>
</g>
<g>
</g>
</svg>
