<?xml version="1.0" encoding="iso-8859-1"?>
<!-- Generator: Adobe Illustrator 19.0.0, SVG Export Plug-In . SVG Version: 6.00 Build 0)  -->
<svg xmlns="http://www.w3.org/2000/svg" xmlns:xlink="http://www.w3.org/1999/xlink" version="1.1" id="Capa_1" x="0px" y="0px" viewBox="0 0 512 512" style="enable-background:new 0 0 512 512;" xml:space="preserve">
<g>
	<g>
		<path d="M503.467,34.133H84.463C80.512,14.686,63.266,0,42.667,0C19.14,0,0,19.14,0,42.667v426.667C0,492.86,19.14,512,42.667,512    h460.8c4.719,0,8.533-3.823,8.533-8.533v-460.8C512,37.956,508.186,34.133,503.467,34.133z M68.267,435.217    c-7.134-5.359-16-8.55-25.6-8.55c-2.705,0-5.342,0.316-7.919,0.802c-0.811,0.154-1.587,0.401-2.389,0.606    c-1.732,0.427-3.43,0.93-5.077,1.579c-0.862,0.333-1.69,0.7-2.526,1.092c-1.536,0.717-3.021,1.528-4.454,2.424    c-0.742,0.452-1.485,0.887-2.193,1.391c-0.333,0.239-0.717,0.418-1.041,0.657V42.667c0-14.114,11.486-25.6,25.6-25.6    s25.6,11.486,25.6,25.6V435.217z M477.867,204.8c0,4.71-3.814,8.533-8.533,8.533H460.8V307.2v25.6h8.533    c4.719,0,8.533,3.823,8.533,8.533v128c0,4.71-3.814,8.533-8.533,8.533H349.867c-4.719,0-8.533-3.823-8.533-8.533V460.8h-17.067    H307.2c-4.719,0-8.533-3.823-8.533-8.533c0-4.71,3.814-8.533,8.533-8.533h8.533v-68.267c0-4.71,3.814-8.533,8.533-8.533    s8.533,3.823,8.533,8.533v68.267h17.067c4.719,0,8.533,3.823,8.533,8.533v8.533h102.4V349.867h-8.533    c-4.719,0-8.533-3.823-8.533-8.533v-25.6H332.8v8.533c0,4.71-3.814,8.533-8.533,8.533s-8.533-3.823-8.533-8.533V307.2V204.8    c0-4.71,3.814-8.533,8.533-8.533s8.533,3.823,8.533,8.533v93.867h110.933V204.8c0-4.71,3.814-8.533,8.533-8.533h8.533V85.333    H358.4v8.533c0,4.71-3.814,8.533-8.533,8.533H332.8v51.2c0,4.71-3.814,8.533-8.533,8.533s-8.533-3.823-8.533-8.533v-51.2h-51.2    v102.4c0,4.71-3.814,8.533-8.533,8.533c-4.719,0-8.533-3.823-8.533-8.533V102.4H230.4c-4.719,0-8.533-3.823-8.533-8.533v-8.533    h-102.4v110.933H128c4.719,0,8.533,3.823,8.533,8.533v59.733h110.933V256c0-4.71,3.814-8.533,8.533-8.533    c4.719,0,8.533,3.823,8.533,8.533v17.067v17.067c0,4.71-3.814,8.533-8.533,8.533c-4.719,0-8.533-3.823-8.533-8.533V281.6H136.533    v59.733c0,4.71-3.814,8.533-8.533,8.533h-8.533V460.8h102.4v-8.533c0-4.71,3.814-8.533,8.533-8.533h17.067v-102.4    c0-4.71,3.814-8.533,8.533-8.533c4.719,0,8.533,3.823,8.533,8.533v102.4h8.533c4.719,0,8.533,3.823,8.533,8.533    c0,4.71-3.814,8.533-8.533,8.533H256h-17.067v8.533c0,4.71-3.814,8.533-8.533,8.533H110.933c-4.719,0-8.533-3.823-8.533-8.533    v-128c0-4.71,3.814-8.533,8.533-8.533h8.533v-59.733v-59.733h-8.533c-4.719,0-8.533-3.823-8.533-8.533v-128    c0-4.71,3.814-8.533,8.533-8.533H230.4c4.719,0,8.533,3.823,8.533,8.533v8.533H256h68.267h17.067V76.8    c0-4.71,3.814-8.533,8.533-8.533h119.467c4.719,0,8.533,3.823,8.533,8.533V204.8z M366.933,375.467    c0-4.71,3.814-8.533,8.533-8.533H409.6c4.719,0,8.533,3.823,8.533,8.533S414.319,384,409.6,384h-34.133    C370.748,384,366.933,380.177,366.933,375.467z M366.933,179.2c0-4.71,3.814-8.533,8.533-8.533H409.6    c4.719,0,8.533,3.823,8.533,8.533s-3.814,8.533-8.533,8.533h-34.133C370.748,187.733,366.933,183.91,366.933,179.2z M204.8,179.2    c0,4.71-3.814,8.533-8.533,8.533h-34.133c-4.719,0-8.533-3.823-8.533-8.533s3.814-8.533,8.533-8.533h34.133    C200.986,170.667,204.8,174.49,204.8,179.2z M204.8,375.467c0,4.71-3.814,8.533-8.533,8.533h-34.133    c-4.719,0-8.533-3.823-8.533-8.533s3.814-8.533,8.533-8.533h34.133C200.986,366.933,204.8,370.756,204.8,375.467z"/>
	</g>
</g>
<g>
</g>
<g>
</g>
<g>
</g>
<g>
</g>
<g>
</g>
<g>
</g>
<g>
</g>
<g>
</g>
<g>
</g>
<g>
</g>
<g>
</g>
<g>
</g>
<g>
</g>
<g>
</g>
<g>
</g>
</svg>
