<?xml version="1.0" encoding="iso-8859-1"?>
<!-- Generator: Adobe Illustrator 19.0.0, SVG Export Plug-In . SVG Version: 6.00 Build 0)  -->
<svg xmlns="http://www.w3.org/2000/svg" xmlns:xlink="http://www.w3.org/1999/xlink" version="1.1" id="Capa_1" x="0px" y="0px" viewBox="0 0 512 512" style="enable-background:new 0 0 512 512;" xml:space="preserve">
<g>
	<g>
		<g>
			<path d="M110.933,51.2c4.719,0,8.533-3.823,8.533-8.533V8.533c0-4.71-3.814-8.533-8.533-8.533H8.533C3.814,0,0,3.823,0,8.533     v76.8h69.137C73.088,65.886,90.334,51.2,110.933,51.2z"/>
			<path d="M153.6,51.2c20.599,0,37.845,14.686,41.796,34.133h121.208C320.555,65.886,337.801,51.2,358.4,51.2     c4.719,0,8.533-3.823,8.533-8.533V8.533c0-4.71-3.814-8.533-8.533-8.533H153.6c-4.719,0-8.533,3.823-8.533,8.533v34.133     C145.067,47.377,148.881,51.2,153.6,51.2z"/>
			<path d="M503.467,0h-102.4c-4.719,0-8.533,3.823-8.533,8.533v34.133c0,4.71,3.814,8.533,8.533,8.533     c20.599,0,37.845,14.686,41.796,34.133H512v-76.8C512,3.823,508.186,0,503.467,0z"/>
			<path d="M443.733,460.8h-128V102.4H196.267v358.4h-128V102.4H0v366.933v34.133C0,508.177,3.814,512,8.533,512h494.933     c4.719,0,8.533-3.823,8.533-8.533v-34.133V102.4h-68.267V460.8z M494.933,477.867v17.067H17.067v-17.067h42.667H204.8h102.4     h145.067H494.933z"/>
		</g>
	</g>
</g>
<g>
</g>
<g>
</g>
<g>
</g>
<g>
</g>
<g>
</g>
<g>
</g>
<g>
</g>
<g>
</g>
<g>
</g>
<g>
</g>
<g>
</g>
<g>
</g>
<g>
</g>
<g>
</g>
<g>
</g>
</svg>
