<?xml version="1.0" encoding="iso-8859-1"?>
<!-- Generator: Adobe Illustrator 19.0.0, SVG Export Plug-In . SVG Version: 6.00 Build 0)  -->
<svg xmlns="http://www.w3.org/2000/svg" xmlns:xlink="http://www.w3.org/1999/xlink" version="1.1" id="Capa_1" x="0px" y="0px" viewBox="0 0 512 512" style="enable-background:new 0 0 512 512;" xml:space="preserve">
<g>
	<g>
		<path d="M509.935,199.228l-22.042-25.6c-0.017-0.009-0.043-0.026-0.06-0.043c-0.009-0.009-0.009-0.026-0.017-0.034l-37.495-42.445    L347.998,3.2c-1.621-2.022-4.07-3.2-6.664-3.2H170.667c-2.594,0-5.043,1.178-6.665,3.2L61.688,131.106l-37.504,42.445    c-0.009,0.008-0.009,0.026-0.017,0.034c-0.017,0.017-0.043,0.034-0.06,0.043l-22.042,25.6C0.734,200.772,0,202.752,0,204.792    v298.675C0,508.177,3.814,512,8.533,512H128c4.719,0,8.533-3.823,8.533-8.533v-153.6c0-1.971-0.683-3.883-1.92-5.402    l-75.648-92.45L40.013,181.41l32.094-36.344h141.227v68.267H68.267c-3.285,0-6.263,1.877-7.689,4.838    c-1.417,2.953-1.024,6.468,1.024,9.02l102.4,128c1.621,2.031,4.07,3.209,6.665,3.209h170.667c2.594,0,5.043-1.178,6.664-3.209    l102.4-128c2.057-2.551,2.449-6.067,1.033-9.02c-1.425-2.961-4.412-4.838-7.697-4.838H298.667v-68.267h141.227l32.102,36.344    l-18.961,70.605l-75.639,92.45c-1.246,1.519-1.929,3.43-1.929,5.402v153.6c0,4.71,3.814,8.533,8.533,8.533h119.467    c4.719,0,8.533-3.823,8.533-8.533V204.792C512,202.752,511.266,200.772,509.935,199.228z"/>
	</g>
</g>
<g>
</g>
<g>
</g>
<g>
</g>
<g>
</g>
<g>
</g>
<g>
</g>
<g>
</g>
<g>
</g>
<g>
</g>
<g>
</g>
<g>
</g>
<g>
</g>
<g>
</g>
<g>
</g>
<g>
</g>
</svg>
