<?xml version="1.0" encoding="iso-8859-1"?>
<!-- Generator: Adobe Illustrator 19.0.0, SVG Export Plug-In . SVG Version: 6.00 Build 0)  -->
<svg xmlns="http://www.w3.org/2000/svg" xmlns:xlink="http://www.w3.org/1999/xlink" version="1.1" id="Capa_1" x="0px" y="0px" viewBox="0 0 513.017 513.017" style="enable-background:new 0 0 513.017 513.017;" xml:space="preserve">
<g>
	<g>
		<rect x="0.853" y="410.002" width="93.867" height="34.133"/>
	</g>
</g>
<g>
	<g>
		<path d="M0.853,358.802v34.133H166.4c3.413-12.8,9.387-23.893,17.92-34.133H0.853z"/>
	</g>
</g>
<g>
	<g>
		<path d="M329.387,358.802c7.68,10.24,14.507,21.333,17.92,34.133h165.547v-34.133H329.387z"/>
	</g>
</g>
<g>
	<g>
		<path d="M349.867,410.002c0,2.56,0.853,5.973,0.853,8.533v25.6h51.2v-34.133H349.867z"/>
	</g>
</g>
<g>
	<g>
		<path d="M111.787,410.002v34.133h51.2v-25.6c0-2.56,0-5.973,0.853-8.533H111.787z"/>
	</g>
</g>
<g>
	<g>
		<path d="M0.853,461.202v42.667c0,5.12,3.413,8.533,8.533,8.533h153.6v-51.2H0.853z"/>
	</g>
</g>
<g>
	<g>
		<path d="M350.72,461.202v51.2h153.6c5.12,0,8.533-3.413,8.533-8.533v-42.667H350.72z"/>
	</g>
</g>
<g>
	<g>
		<rect x="418.987" y="410.002" width="93.867" height="34.133"/>
	</g>
</g>
<g>
	<g>
		<path d="M504.32,102.802c4.267,0,7.68-3.413,8.533-6.827c0.853-4.267-1.707-8.533-5.973-9.387L259.413,1.255    c-1.707-0.853-3.413-0.853-5.973,0L5.973,86.588C1.707,88.295,0,91.708,0,95.975c1.707,3.413,5.12,6.827,9.387,6.827H94.72v68.267    H9.387c-5.12,0-8.533,3.413-8.533,8.533v34.133c0,5.12,3.413,8.533,8.533,8.533h8.533v68.267H9.387    c-5.12,0-8.533,3.413-8.533,8.533v42.667H94.72v-34.133h17.067v34.133h91.307c12.8-9.387,28.16-15.36,45.227-16.213v-17.92h17.067    v17.92c17.067,1.707,32.427,7.68,45.227,16.213h91.307v-34.133h17.067v34.133h93.867v-42.667c0-5.12-3.413-8.533-8.533-8.533    h-8.533v-68.267h8.533c5.12,0,8.533-3.413,8.533-8.533v-34.133c0-5.12-3.413-8.533-8.533-8.533h-85.333v-68.267H504.32z     M103.253,290.535H86.187H69.12v-68.267h34.133V290.535z M188.587,290.535h-34.133v-68.267h34.133V290.535z M273.92,290.535    h-17.067h-17.067v-68.267h34.133V290.535z M162.987,171.068v-68.267H350.72v68.267H162.987z M359.253,290.535H325.12v-68.267    h34.133V290.535z M444.587,222.268v68.267h-25.6h-8.533v-68.267H444.587z M410.453,85.735h-51.2h-204.8h-51.2H60.587    l196.267-67.413L453.12,85.735H410.453z"/>
	</g>
</g>
<g>
</g>
<g>
</g>
<g>
</g>
<g>
</g>
<g>
</g>
<g>
</g>
<g>
</g>
<g>
</g>
<g>
</g>
<g>
</g>
<g>
</g>
<g>
</g>
<g>
</g>
<g>
</g>
<g>
</g>
</svg>
