<?xml version="1.0" encoding="iso-8859-1"?>
<!-- Generator: Adobe Illustrator 19.0.0, SVG Export Plug-In . SVG Version: 6.00 Build 0)  -->
<svg xmlns="http://www.w3.org/2000/svg" xmlns:xlink="http://www.w3.org/1999/xlink" version="1.1" id="Capa_1" x="0px" y="0px" viewBox="0 0 512 512" style="enable-background:new 0 0 512 512;" xml:space="preserve">
<g>
	<g>
		<path d="M503.467,443.733h-8.533v-42.667c0-4.71-3.823-8.533-8.533-8.533h-8.533v-42.667c0-4.71-3.823-8.533-8.533-8.533H460.8    v-42.667c0-4.71-3.823-8.533-8.533-8.533h-8.533v-42.667c0-4.71-3.823-8.533-8.533-8.533h-34.133v-102.4H435.2    c3.763,0,7.083-2.466,8.166-6.059c1.092-3.601-0.299-7.484-3.43-9.574L260.736,1.434c-2.867-1.911-6.605-1.911-9.472,0    L72.064,120.9c-3.123,2.091-4.523,5.973-3.43,9.574c1.092,3.593,4.412,6.059,8.166,6.059h34.133v102.4H76.8    c-4.71,0-8.533,3.823-8.533,8.533v42.667h-8.533c-4.71,0-8.533,3.823-8.533,8.533v42.667h-8.533c-4.71,0-8.533,3.823-8.533,8.533    v42.667H25.6c-4.71,0-8.533,3.823-8.533,8.533v42.667H8.533c-4.71,0-8.533,3.823-8.533,8.533v51.2C0,508.177,3.823,512,8.533,512    H179.2h153.6h170.667c4.71,0,8.533-3.823,8.533-8.533v-51.2C512,447.556,508.177,443.733,503.467,443.733z M307.2,85.333    c4.71,0,8.533,3.823,8.533,8.533c0,4.71-3.823,8.533-8.533,8.533s-8.533-3.823-8.533-8.533    C298.667,89.156,302.49,85.333,307.2,85.333z M281.6,59.733c4.71,0,8.533,3.823,8.533,8.533S286.31,76.8,281.6,76.8    s-8.533-3.823-8.533-8.533S276.89,59.733,281.6,59.733z M256,34.133c4.71,0,8.533,3.823,8.533,8.533    c0,4.71-3.823,8.533-8.533,8.533s-8.533-3.823-8.533-8.533C247.467,37.956,251.29,34.133,256,34.133z M256,85.333    c4.71,0,8.533,3.823,8.533,8.533c0,4.71-3.823,8.533-8.533,8.533s-8.533-3.823-8.533-8.533    C247.467,89.156,251.29,85.333,256,85.333z M230.4,59.733c4.71,0,8.533,3.823,8.533,8.533S235.11,76.8,230.4,76.8    s-8.533-3.823-8.533-8.533S225.69,59.733,230.4,59.733z M204.8,85.333c4.71,0,8.533,3.823,8.533,8.533    c0,4.71-3.823,8.533-8.533,8.533c-4.71,0-8.533-3.823-8.533-8.533C196.267,89.156,200.09,85.333,204.8,85.333z M128,136.533h256    v102.4h-34.133V204.8c0-18.825-15.309-34.133-34.133-34.133c-18.816,0-34.133,15.309-34.133,34.133v34.133h-51.2V204.8    c0-18.825-15.309-34.133-34.133-34.133c-18.816,0-34.133,15.309-34.133,34.133v34.133H128V136.533z M310.025,290.133l1.143,17.067    H200.841l1.135-17.067H310.025z M203.11,273.067L204.254,256h17.613h68.267h17.621l1.135,17.067H203.11z M312.303,324.267    l1.135,17.067H198.562l1.135-17.067H312.303z M314.573,358.4l1.143,17.067H196.292l1.135-17.067H314.573z M316.851,392.533    l0.708,10.505l0.435,6.562H194.014l0.435-6.562l0.7-10.505H316.851z M319.13,426.667l1.135,17.067H191.735l1.135-17.067H319.13z     M174.635,443.733H34.133V409.6h8.533h134.238L174.635,443.733z M181.461,341.333H68.267V307.2H76.8h106.931L181.461,341.333z     M188.322,494.933l2.278-34.133h130.807l2.27,34.133H188.322z M330.547,341.333l-2.278-34.133H435.2h8.533v34.133H330.547z     M477.867,443.733H337.374l-2.278-34.133h134.238h8.533V443.733z"/>
	</g>
</g>
<g>
</g>
<g>
</g>
<g>
</g>
<g>
</g>
<g>
</g>
<g>
</g>
<g>
</g>
<g>
</g>
<g>
</g>
<g>
</g>
<g>
</g>
<g>
</g>
<g>
</g>
<g>
</g>
<g>
</g>
</svg>
