<?xml version="1.0" encoding="iso-8859-1"?>
<!-- Generator: Adobe Illustrator 19.0.0, SVG Export Plug-In . SVG Version: 6.00 Build 0)  -->
<svg xmlns="http://www.w3.org/2000/svg" xmlns:xlink="http://www.w3.org/1999/xlink" version="1.1" id="Capa_1" x="0px" y="0px" viewBox="0 0 512 512" style="enable-background:new 0 0 512 512;" xml:space="preserve">
<g>
	<g>
		<g>
			<rect x="298.665" y="315.733" width="34.133" height="51.2"/>
			<rect x="255.998" y="128" width="34.133" height="34.133"/>
			<rect x="341.332" y="128" width="34.133" height="34.133"/>
			<rect x="341.332" y="221.867" width="34.133" height="34.133"/>
			<rect x="255.998" y="221.867" width="34.133" height="34.133"/>
			<path d="M221.867,366.933H281.6V307.2c0-4.71,3.823-8.533,8.533-8.533h51.2c4.71,0,8.533,3.823,8.533,8.533v59.733H409.6V93.867     H221.867V366.933z M324.267,119.467c0-4.71,3.823-8.533,8.533-8.533H384c4.71,0,8.533,3.823,8.533,8.533v51.2     c0,4.71-3.823,8.533-8.533,8.533h-51.2c-4.71,0-8.533-3.823-8.533-8.533V119.467z M324.267,213.333     c0-4.71,3.823-8.533,8.533-8.533H384c4.71,0,8.533,3.823,8.533,8.533v51.2c0,4.71-3.823,8.533-8.533,8.533h-51.2     c-4.71,0-8.533-3.823-8.533-8.533V213.333z M238.933,119.467c0-4.71,3.823-8.533,8.533-8.533h51.2     c4.71,0,8.533,3.823,8.533,8.533v51.2c0,4.71-3.823,8.533-8.533,8.533h-51.2c-4.71,0-8.533-3.823-8.533-8.533V119.467z      M238.933,213.333c0-4.71,3.823-8.533,8.533-8.533h51.2c4.71,0,8.533,3.823,8.533,8.533v51.2c0,4.71-3.823,8.533-8.533,8.533     h-51.2c-4.71,0-8.533-3.823-8.533-8.533V213.333z"/>
			<path d="M503.467,34.133H84.472C80.503,14.686,63.275,0,42.667,0C19.14,0,0,19.14,0,42.667v426.667     C0,492.86,19.14,512,42.667,512h460.8c4.71,0,8.533-3.823,8.533-8.533v-460.8C512,37.956,508.177,34.133,503.467,34.133z      M68.267,435.217c-7.134-5.359-16-8.55-25.6-8.55c-2.705,0-5.333,0.316-7.91,0.802c-0.819,0.154-1.604,0.401-2.406,0.606     c-1.732,0.435-3.422,0.93-5.06,1.57c-0.87,0.341-1.707,0.708-2.543,1.109c-1.536,0.708-3.004,1.519-4.437,2.406     c-0.742,0.461-1.493,0.896-2.202,1.399c-0.333,0.239-0.708,0.418-1.041,0.657V42.667c0-14.114,11.486-25.6,25.6-25.6     s25.6,11.486,25.6,25.6V435.217z M145.067,247.467c0,4.71-3.823,8.533-8.533,8.533S128,252.177,128,247.467v-34.133     c0-4.71,3.823-8.533,8.533-8.533s8.533,3.823,8.533,8.533V247.467z M187.733,375.467c0,4.71-3.823,8.533-8.533,8.533h-17.067     c-4.71,0-8.533-3.823-8.533-8.533s3.823-8.533,8.533-8.533V93.867c-4.71,0-8.533-3.823-8.533-8.533     c0-4.71,3.823-8.533,8.533-8.533H179.2c4.71,0,8.533,3.823,8.533,8.533c0,4.71-3.823,8.533-8.533,8.533v273.067     C183.91,366.933,187.733,370.756,187.733,375.467z M332.8,460.8h-34.133c-4.71,0-8.533-3.823-8.533-8.533     c0-4.71,3.823-8.533,8.533-8.533H332.8c4.71,0,8.533,3.823,8.533,8.533C341.333,456.977,337.51,460.8,332.8,460.8z      M426.667,426.667c0,4.71-3.823,8.533-8.533,8.533s-8.533-3.823-8.533-8.533H221.867c0,4.71-3.823,8.533-8.533,8.533     c-4.71,0-8.533-3.823-8.533-8.533V409.6c0-4.71,3.823-8.533,8.533-8.533c4.71,0,8.533,3.823,8.533,8.533H409.6     c0-4.71,3.823-8.533,8.533-8.533s8.533,3.823,8.533,8.533V426.667z M426.667,375.467c0,4.71-3.823,8.533-8.533,8.533h-76.8h-51.2     h-76.8c-4.71,0-8.533-3.823-8.533-8.533V85.333c0-4.71,3.823-8.533,8.533-8.533h204.8c4.71,0,8.533,3.823,8.533,8.533V375.467z"/>
		</g>
	</g>
</g>
<g>
</g>
<g>
</g>
<g>
</g>
<g>
</g>
<g>
</g>
<g>
</g>
<g>
</g>
<g>
</g>
<g>
</g>
<g>
</g>
<g>
</g>
<g>
</g>
<g>
</g>
<g>
</g>
<g>
</g>
</svg>
