<?xml version="1.0" encoding="iso-8859-1"?>
<!-- Generator: Adobe Illustrator 19.0.0, SVG Export Plug-In . SVG Version: 6.00 Build 0)  -->
<svg xmlns="http://www.w3.org/2000/svg" xmlns:xlink="http://www.w3.org/1999/xlink" version="1.1" id="Capa_1" x="0px" y="0px" viewBox="0 0 512 512" style="enable-background:new 0 0 512 512;" xml:space="preserve">
<g>
	<g>
		<path d="M503.467,102.08h-13.653L407.04,27.84c-41.813-36.693-104.107-36.693-145.92,0L256,31.253l-4.267-3.413    c-41.813-36.693-104.107-36.693-145.92,0l-83.627,74.24H8.533c-5.12,0-8.533,3.413-8.533,8.533v34.133    c0,5.12,3.413,8.533,8.533,8.533H25.6v42.667c0,5.12,3.413,8.533,8.533,8.533h8.533v238.933h-8.533    c-5.12,0-8.533,3.413-8.533,8.533v51.2c0,5.12,3.413,8.533,8.533,8.533h102.4c5.12,0,8.533-3.413,8.533-8.533v-51.2    c0-5.12-3.413-8.533-8.533-8.533H128V204.48h8.533c5.12,0,8.533-3.413,8.533-8.533V153.28h51.2v42.667    c0,5.12,3.413,8.533,8.533,8.533h8.533v238.933H204.8c-5.12,0-8.533,3.413-8.533,8.533v51.2c0,5.12,3.413,8.533,8.533,8.533h102.4    c5.12,0,8.533-3.413,8.533-8.533v-51.2c0-5.12-3.413-8.533-8.533-8.533h-8.533V204.48h8.533c5.12,0,8.533-3.413,8.533-8.533    V153.28h51.2v42.667c0,5.12,3.413,8.533,8.533,8.533H384v238.933h-8.533c-5.12,0-8.533,3.413-8.533,8.533v51.2    c0,5.12,3.413,8.533,8.533,8.533h102.4c5.12,0,8.533-3.413,8.533-8.533v-51.2c0-5.12-3.413-8.533-8.533-8.533h-8.533V204.48h8.533    c5.12,0,8.533-3.413,8.533-8.533V153.28h17.067c5.12,0,8.533-3.413,8.533-8.533v-34.133    C512,105.493,508.587,102.08,503.467,102.08z M110.933,443.413h-51.2V204.48h51.2V443.413z M281.6,443.413h-51.2V204.48h51.2    V443.413z M452.267,443.413h-51.2V204.48h51.2V443.413z M494.933,136.213h-17.067h-102.4H307.2H204.8h-68.267h-102.4H17.067    v-17.067H25.6h460.8h8.533V136.213z"/>
	</g>
</g>
<g>
</g>
<g>
</g>
<g>
</g>
<g>
</g>
<g>
</g>
<g>
</g>
<g>
</g>
<g>
</g>
<g>
</g>
<g>
</g>
<g>
</g>
<g>
</g>
<g>
</g>
<g>
</g>
<g>
</g>
</svg>
