<?xml version="1.0" encoding="iso-8859-1"?>
<!-- Generator: Adobe Illustrator 19.0.0, SVG Export Plug-In . SVG Version: 6.00 Build 0)  -->
<svg xmlns="http://www.w3.org/2000/svg" xmlns:xlink="http://www.w3.org/1999/xlink" version="1.1" id="Capa_1" x="0px" y="0px" viewBox="0 0 511.998 511.998" style="enable-background:new 0 0 511.998 511.998;" xml:space="preserve">
<g>
	<g>
		<path d="M495.483,462.45h-41.29v-24.774c0-4.558-3.691-8.258-8.258-8.258h-5.145l27.532-27.813    c1.536-1.553,2.395-3.658,2.387-5.847c-0.008-2.197-0.892-4.286-2.453-5.83l-31.29-30.976l31.356-31.67    c1.536-1.553,2.395-3.658,2.387-5.847c-0.008-2.197-0.892-4.286-2.453-5.83l-31.29-30.976l31.356-31.67    c1.536-1.552,2.395-3.658,2.387-5.847c-0.008-2.197-0.892-4.286-2.453-5.83l-31.29-30.976l31.356-31.67    c3.212-3.237,3.179-8.473-0.066-11.677l-19.15-18.961c2.989-1.239,5.087-4.179,5.087-7.614v-24.774h41.29    c3.947,0,7.333-2.783,8.093-6.648c0.776-3.865-1.297-7.738-4.93-9.241L259.162,0.626c-2.031-0.834-4.294-0.834-6.326,0    L13.352,99.722c-3.634,1.503-5.706,5.376-4.93,9.241c0.76,3.865,4.146,6.648,8.093,6.648h41.29v24.774    c0,3.435,2.098,6.375,5.087,7.614l-19.15,18.961c-3.245,3.204-3.278,8.44-0.066,11.677l31.356,31.67l-31.29,30.976    c-1.561,1.544-2.444,3.634-2.453,5.83c-0.008,2.188,0.851,4.294,2.387,5.847l31.356,31.67l-31.29,30.976    c-1.561,1.544-2.444,3.634-2.453,5.83c-0.008,2.188,0.851,4.294,2.387,5.847l31.356,31.67l-31.29,30.976    c-1.561,1.544-2.444,3.634-2.453,5.83c-0.008,2.188,0.851,4.294,2.387,5.847l27.532,27.813h-5.145c-4.567,0-8.258,3.7-8.258,8.258    v24.774h-41.29c-4.567,0-8.258,3.7-8.258,8.258v33.032c0,4.558,3.691,8.258,8.258,8.258h478.968c4.567,0,8.258-3.7,8.258-8.258    v-33.032C503.741,466.149,500.05,462.45,495.483,462.45z M371.612,115.611h66.065v16.516h-8.002h-50.06h-8.002V115.611z     M74.322,132.127v-16.516h66.065v16.516h-8.002h-50.06H74.322z M140.386,462.45H74.322v-16.516h16.69h32.685h16.69V462.45z     M363.354,429.417c-4.567,0-8.258,3.7-8.258,8.258v24.774H156.902v-24.774c0-4.558-3.691-8.258-8.258-8.258h-5.145l27.532-27.813    c1.536-1.553,2.395-3.658,2.387-5.847c-0.008-2.197-0.892-4.286-2.453-5.83l-31.29-30.976l31.356-31.67    c1.536-1.553,2.395-3.658,2.387-5.847c-0.008-2.197-0.892-4.286-2.453-5.83l-31.29-30.976l31.356-31.67    c1.536-1.552,2.395-3.658,2.387-5.847c-0.008-2.197-0.892-4.286-2.453-5.83l-31.29-30.976l31.356-31.67    c3.212-3.237,3.179-8.473-0.066-11.677l-19.15-18.961c2.989-1.239,5.087-4.179,5.087-7.614v-24.774h198.193v24.774    c0,3.435,2.098,6.375,5.087,7.614l-19.15,18.961c-3.245,3.204-3.278,8.44-0.066,11.677l31.356,31.67l-31.29,30.976    c-1.561,1.544-2.444,3.634-2.453,5.83c-0.008,2.188,0.851,4.294,2.387,5.847l31.356,31.67l-31.29,30.976    c-1.561,1.544-2.444,3.634-2.453,5.83c-0.008,2.188,0.851,4.294,2.387,5.847l31.356,31.67l-31.29,30.976    c-1.561,1.544-2.444,3.634-2.453,5.83c-0.008,2.188,0.851,4.294,2.387,5.847l27.532,27.813H363.354z M437.676,462.45h-66.065    v-16.516h16.69h32.685h16.69V462.45z"/>
	</g>
</g>
<g>
</g>
<g>
</g>
<g>
</g>
<g>
</g>
<g>
</g>
<g>
</g>
<g>
</g>
<g>
</g>
<g>
</g>
<g>
</g>
<g>
</g>
<g>
</g>
<g>
</g>
<g>
</g>
<g>
</g>
</svg>
