<?xml version="1.0" encoding="iso-8859-1"?>
<!-- Generator: Adobe Illustrator 19.0.0, SVG Export Plug-In . SVG Version: 6.00 Build 0)  -->
<svg xmlns="http://www.w3.org/2000/svg" xmlns:xlink="http://www.w3.org/1999/xlink" version="1.1" id="Capa_1" x="0px" y="0px" viewBox="0 0 512.004 512.004" style="enable-background:new 0 0 512.004 512.004;" xml:space="preserve">
<g>
	<g>
		<path d="M499.412,461.644h-8.393v-41.967c0-4.633-3.752-8.393-8.393-8.393h-11.188l-11.952-28.68    c-1.427-3.424-4.977-5.514-8.612-5.12l-1.821,0.227c-9.258,0-16.787-7.529-16.787-16.787c0-4.977,2.283-9.703,6.287-12.951    c2.879-2.342,3.878-6.304,2.443-9.736l-16.426-39.432c-1.36-3.282-4.499-5.38-8.2-5.154c-0.436,0.025-0.873,0.076-0.89,0.126    c-9.258,0-16.787-7.529-16.787-16.787c0-4.717,1.981-9.115,5.582-12.38c2.635-2.384,3.475-6.169,2.107-9.451l-11.885-28.529h4.197    c4.642,0,8.393-3.76,8.393-8.393v-41.967h75.541c4.642,0,8.393-3.76,8.393-8.393v-25.18h8.393c3.869,0,7.235-2.644,8.158-6.413    c0.915-3.76-0.865-7.655-4.306-9.434L259.855,0.944c-2.409-1.259-5.296-1.259-7.705,0L8.74,126.846    c-3.441,1.779-5.221,5.674-4.306,9.434c0.923,3.769,4.289,6.413,8.158,6.413h8.393v25.18c0,4.633,3.752,8.393,8.393,8.393h75.541    v41.967c0,4.633,3.752,8.393,8.393,8.393h4.197l-11.885,28.529c-1.368,3.282-0.529,7.067,2.107,9.451    c3.601,3.265,5.582,7.663,5.582,12.38c0,9.258-7.529,16.787-16.367,16.795c-0.243-0.025-1.074-0.117-1.309-0.134    c-3.727-0.21-6.841,1.872-8.2,5.154l-16.426,39.432c-1.435,3.433-0.436,7.395,2.443,9.736c4.004,3.248,6.287,7.974,6.287,12.951    c0,9.199-7.445,16.703-17.324,16.703c-0.059,0-0.118-0.008-0.185-0.008l-1.091-0.134c-3.727-0.386-7.193,1.695-8.62,5.12    l-11.952,28.68H29.379c-4.642,0-8.393,3.76-8.393,8.393v41.967h-8.393c-4.642,0-8.393,3.76-8.393,8.393v33.574    c0,4.633,3.752,8.393,8.393,8.393h486.82c4.642,0,8.393-3.76,8.393-8.393v-33.574    C507.805,465.404,504.053,461.644,499.412,461.644z M411.163,310.285l12.17,29.209c-5.053,5.993-7.856,13.53-7.856,21.428    c0,17.551,13.539,32.004,30.728,33.456l7.042,16.904h-32.172l-76.943-184.656h32.172l12.523,30.065    c-4.448,5.817-6.925,12.951-6.925,20.295C381.904,294.043,394.679,308.161,411.163,310.285z M113.314,411.283h-4.197    l76.934-184.656h11.197c4.642,0,8.393-3.76,8.393-8.393v-41.967h100.721v41.967c0,4.633,3.752,8.393,8.393,8.393h11.197    l76.934,184.656h-4.197c-4.642,0-8.393,3.76-8.393,8.393v41.967h-268.59v-41.967C121.707,415.043,117.955,411.283,113.314,411.283    z M113.314,159.48H37.773v-16.787h436.459v16.787h-75.541h-83.934H197.248H113.314z M65.798,394.378    c17.19-1.452,30.728-15.906,30.728-33.456c0-7.898-2.803-15.436-7.856-21.428l12.17-29.209    c16.485-2.124,29.26-16.241,29.26-33.297c0-7.344-2.476-14.479-6.925-20.295l12.523-30.065h32.172L90.928,411.283H58.756    L65.798,394.378z M491.018,495.217H20.986V478.43h8.393h83.934h285.377h83.934h8.393V495.217z"/>
	</g>
</g>
<g>
</g>
<g>
</g>
<g>
</g>
<g>
</g>
<g>
</g>
<g>
</g>
<g>
</g>
<g>
</g>
<g>
</g>
<g>
</g>
<g>
</g>
<g>
</g>
<g>
</g>
<g>
</g>
<g>
</g>
</svg>
