<?xml version="1.0" encoding="iso-8859-1"?>
<!-- Generator: Adobe Illustrator 19.0.0, SVG Export Plug-In . SVG Version: 6.00 Build 0)  -->
<svg xmlns="http://www.w3.org/2000/svg" xmlns:xlink="http://www.w3.org/1999/xlink" version="1.1" id="Capa_1" x="0px" y="0px" viewBox="0 0 512.002 512.002" style="enable-background:new 0 0 512.002 512.002;" xml:space="preserve">
<g>
	<g>
		<g>
			<path d="M469.335,460.801v-25.6h-8.533c-20.028,0-47.36-10.47-58.59-29.858l-1.143-1.724v57.182h-51.2v-25.6h-8.533     c-20.028,0-47.368-10.47-58.59-29.858l-1.143-1.715v57.173h-51.2v-25.6h-17.067c-16.521,0-37.879-7.228-51.2-20.608v46.208h-51.2     v-25.6h-8.533c-20.028,0-47.369-10.47-58.59-29.858l-1.143-1.715v57.173c-23.526,0-42.667,19.14-42.667,42.667     c0,4.71,3.814,8.533,8.533,8.533h494.933c4.71,0,8.533-3.823,8.533-8.533C512.002,479.941,492.853,460.801,469.335,460.801z      M18.528,494.934c3.524-9.933,13.013-17.067,24.141-17.067h8.533h51.2h68.267h51.2h68.267h51.2h68.267h51.2h8.533     c11.119,0,20.617,7.134,24.141,17.067H18.528z"/>
			<path d="M8.533,238.931h8.533v25.6c0,4.719,3.823,8.533,8.533,8.533h18.79l13.909,20.873c7.1,12.22,26.752,21.794,44.1,21.794     h8.533v-42.667h51.2v10.223l7.1,10.65c7.1,12.22,26.752,21.794,44.1,21.794h17.067v-42.667h52.924l13.909,20.873     c7.1,12.22,26.752,21.794,44.1,21.794h8.533v-42.667h52.924l13.909,20.873c7.1,12.22,26.752,21.794,44.1,21.794h8.533v-42.667     h17.067c4.719,0,8.533-3.814,8.533-8.533v-25.6h8.533c4.164,0,7.723-3.012,8.414-7.125c0.691-4.105-1.69-8.115-5.632-9.472     l-36.915-12.732V102.398h-34.133v95.437l-17.067-5.879v-89.557h-17.067v83.669l-17.067-5.888v-77.781h-17.067v71.893     l-17.067-5.879v-66.014h-17.067v60.126l-17.067-5.888v-54.238h-34.133v42.47L258.781,137c-1.809-0.623-3.755-0.623-5.564,0     l-22.818,7.868v-42.47h-34.133v54.238l-17.067,5.888v-60.126h-17.067v66.014l-17.067,5.879v-71.893h-17.067v77.781l-17.067,5.888     v-83.669H93.866v89.557l-17.067,5.879v-95.437H42.666v107.204L5.751,222.334c-3.942,1.357-6.323,5.367-5.632,9.472     C0.81,235.919,4.369,238.931,8.533,238.931z M89.787,211.411l134.861-46.507h0.009l31.343-10.812l31.343,10.812h0.008     l134.861,46.507l30.327,10.453H59.46L89.787,211.411z M34.133,238.931h443.733v17.067h-17.067h-51.2h-68.267h-51.2h-68.267h-51.2     h-68.267h-51.2H34.133V238.931z"/>
			<path d="M102.401,418.134h8.533v-34.133h-8.533c-20.028,0-47.369-10.47-58.59-29.858l-1.143-1.715v20.454l15.633,23.45     C65.392,408.56,85.053,418.134,102.401,418.134z"/>
			<path d="M102.399,366.934h8.533v-34.133h-8.533c-20.028,0-47.36-10.47-58.59-29.858l-1.143-1.715v20.454l15.633,23.45     C65.399,357.36,85.051,366.934,102.399,366.934z"/>
			<path d="M230.399,332.801h-17.067c-16.521,0-37.88-7.228-51.2-20.608v22.289l7.1,10.65c7.1,12.228,26.752,21.803,44.1,21.803     h17.067V332.801z"/>
			<path d="M162.133,363.396v22.289l7.1,10.65c7.1,12.22,26.752,21.803,44.1,21.803h17.067v-34.133h-17.067     C196.812,384.004,175.453,376.777,162.133,363.396z"/>
			<path d="M341.333,366.934h8.533v-34.133h-8.533c-20.028,0-47.36-10.47-58.59-29.858l-1.143-1.715v20.454l15.633,23.45     C304.332,357.36,323.985,366.934,341.333,366.934z"/>
			<path d="M341.335,418.134h8.533v-34.133h-8.533c-20.028,0-47.368-10.47-58.59-29.858l-1.143-1.715v20.454l15.633,23.45     C304.326,408.56,323.987,418.134,341.335,418.134z"/>
			<path d="M469.333,332.801h-8.533c-20.028,0-47.36-10.47-58.581-29.858l-1.152-1.724v20.463l15.633,23.45     c7.1,12.228,26.752,21.803,44.1,21.803h8.533V332.801z"/>
			<path d="M402.216,354.143l-1.152-1.724v20.463l15.633,23.45c7.1,12.228,26.752,21.803,44.1,21.803h8.533v-34.133h-8.533     C440.778,384.001,413.437,373.531,402.216,354.143z"/>
			<path d="M375.466,0.001c-48.879,0-89.105,37.564-93.431,85.333h186.863C464.563,37.565,424.345,0.001,375.466,0.001z"/>
			<path d="M136.533,0.001c-48.879,0-89.105,37.564-93.431,85.333h186.863C225.638,37.565,185.412,0.001,136.533,0.001z"/>
		</g>
	</g>
</g>
<g>
</g>
<g>
</g>
<g>
</g>
<g>
</g>
<g>
</g>
<g>
</g>
<g>
</g>
<g>
</g>
<g>
</g>
<g>
</g>
<g>
</g>
<g>
</g>
<g>
</g>
<g>
</g>
<g>
</g>
</svg>
