<?xml version="1.0" encoding="iso-8859-1"?>
<!-- Generator: Adobe Illustrator 19.0.0, SVG Export Plug-In . SVG Version: 6.00 Build 0)  -->
<svg xmlns="http://www.w3.org/2000/svg" xmlns:xlink="http://www.w3.org/1999/xlink" version="1.1" id="Capa_1" x="0px" y="0px" viewBox="0 0 512 512" style="enable-background:new 0 0 512 512;" xml:space="preserve">
<g>
	<g>
		<g>
			<path d="M503.467,460.8h-25.6c0-15.855-10.923-29.107-25.6-32.922v-121.89c14.677-3.814,25.6-17.067,25.6-32.922h8.533     c4.71,0,8.533-3.823,8.533-8.533v-25.6h8.533c4.164,0,7.723-3.012,8.414-7.125c0.691-4.105-1.69-8.115-5.632-9.472     l-156.382-53.931V102.4h-34.133v54.238l-17.067-5.879V102.4H281.6v42.47l-17.067-5.888V102.4h-17.067v36.582L230.4,144.87V102.4     h-17.067v48.358l-17.067,5.879V102.4h-34.133v66.005L5.751,222.336c-3.942,1.357-6.323,5.367-5.632,9.472     c0.691,4.113,4.25,7.125,8.414,7.125h8.533v25.6c0,4.71,3.823,8.533,8.533,8.533h8.533c0,15.855,10.923,29.107,25.6,32.922     v121.89c-14.677,3.814-25.6,17.067-25.6,32.922h-25.6c-4.71,0-8.533,3.823-8.533,8.533v34.133C0,508.177,3.823,512,8.533,512     h494.933c4.71,0,8.533-3.823,8.533-8.533v-34.133C512,464.623,508.177,460.8,503.467,460.8z M443.733,290.133h-51.2     c-9.412,0-17.067-7.654-17.067-17.067H460.8C460.8,282.479,453.146,290.133,443.733,290.133z M173.449,182.562L256,154.095     l82.551,28.467l113.988,39.305H59.46L173.449,182.562z M298.667,273.067c0,9.412-7.654,17.067-17.067,17.067h-51.2     c-9.412,0-17.067-7.654-17.067-17.067H298.667z M51.2,273.067h85.333c0,9.412-7.654,17.067-17.067,17.067h-51.2     C58.854,290.133,51.2,282.479,51.2,273.067z M51.2,460.8c0-9.412,7.654-17.067,17.067-17.067h51.2     c9.412,0,17.067,7.654,17.067,17.067H51.2z M196.267,460.8H153.6c0-15.855-10.923-29.107-25.6-32.922v-121.89     c14.677-3.814,25.6-17.067,25.6-32.922h42.667c0,15.855,10.923,29.107,25.6,32.922v121.89     C207.189,431.693,196.267,444.945,196.267,460.8z M213.333,460.8c0-9.412,7.654-17.067,17.067-17.067h51.2     c9.412,0,17.067,7.654,17.067,17.067H213.333z M358.4,460.8h-42.667c0-15.855-10.923-29.107-25.6-32.922v-121.89     c14.677-3.814,25.6-17.067,25.6-32.922H358.4c0,15.855,10.923,29.107,25.6,32.922v121.89     C369.323,431.693,358.4,444.945,358.4,460.8z M375.467,460.8c0-9.412,7.654-17.067,17.067-17.067h51.2     c9.412,0,17.067,7.654,17.067,17.067H375.467z"/>
			<path d="M256,0c-48.879,0-89.105,37.564-93.431,85.333h186.863C345.105,37.564,304.879,0,256,0z"/>
		</g>
	</g>
</g>
<g>
</g>
<g>
</g>
<g>
</g>
<g>
</g>
<g>
</g>
<g>
</g>
<g>
</g>
<g>
</g>
<g>
</g>
<g>
</g>
<g>
</g>
<g>
</g>
<g>
</g>
<g>
</g>
<g>
</g>
</svg>
