<?xml version="1.0" encoding="iso-8859-1"?>
<!-- Generator: Adobe Illustrator 19.0.0, SVG Export Plug-In . SVG Version: 6.00 Build 0)  -->
<svg xmlns="http://www.w3.org/2000/svg" xmlns:xlink="http://www.w3.org/1999/xlink" version="1.1" id="Capa_1" x="0px" y="0px" viewBox="0 0 512.004 512.004" style="enable-background:new 0 0 512.004 512.004;" xml:space="preserve">
<g>
	<g>
		<path d="M503.469,460.804h-25.6v-17.067c0-15.855-10.923-29.107-25.6-32.922v-224.29c14.677-3.814,25.6-17.067,25.6-32.922    v-17.067h8.533c4.71,0,8.533-3.823,8.533-8.533v-25.6h8.533c4.164,0,7.723-3.012,8.414-7.125c0.691-4.104-1.69-8.115-5.632-9.472    L258.784,0.474c-1.809-0.631-3.755-0.631-5.564,0L5.754,85.807c-3.942,1.357-6.323,5.367-5.632,9.472    c0.691,4.113,4.25,7.125,8.414,7.125h8.533v25.6c0,4.71,3.823,8.533,8.533,8.533h8.533v17.067c0,15.855,10.923,29.107,25.6,32.922    v224.29c-14.677,3.814-25.6,17.067-25.6,32.922v17.067h-25.6c-4.71,0-8.533,3.823-8.533,8.533v34.133    c0,4.71,3.823,8.533,8.533,8.533h494.933c4.71,0,8.533-3.823,8.533-8.533v-34.133    C512.002,464.627,508.179,460.804,503.469,460.804z M460.802,153.604c0,9.412-7.654,17.067-17.067,17.067h-51.2    c-9.412,0-17.067-7.654-17.067-17.067v-17.067h85.333V153.604z M256.002,17.566l196.54,67.772H59.462L256.002,17.566z     M298.669,136.538v17.067c0,9.412-7.654,17.067-17.067,17.067h-51.2c-9.412,0-17.067-7.654-17.067-17.067v-17.067H298.669z     M51.202,153.604v-17.067h85.333v17.067c0,9.412-7.654,17.067-17.067,17.067h-51.2C58.857,170.671,51.202,163.017,51.202,153.604z     M136.535,460.804H51.202v-17.067c0-9.412,7.654-17.067,17.067-17.067h51.2c9.412,0,17.067,7.654,17.067,17.067V460.804z     M196.269,443.738v17.067h-42.667v-17.067c0-15.855-10.923-29.107-25.6-32.922v-224.29c14.677-3.814,25.6-17.067,25.6-32.922    v-17.067h42.667v17.067c0,15.855,10.923,29.107,25.6,32.922v224.29C207.191,414.63,196.269,427.883,196.269,443.738z     M298.669,460.804h-85.333v-17.067c0-9.412,7.654-17.067,17.067-17.067h51.2c9.412,0,17.067,7.654,17.067,17.067V460.804z     M358.402,443.738v17.067h-42.667v-17.067c0-15.855-10.923-29.107-25.6-32.922v-224.29c14.677-3.814,25.6-17.067,25.6-32.922    v-17.067h42.667v17.067c0,15.855,10.923,29.107,25.6,32.922v224.29C369.325,414.63,358.402,427.883,358.402,443.738z     M460.802,460.804h-85.333v-17.067c0-9.412,7.654-17.067,17.067-17.067h51.2c9.412,0,17.067,7.654,17.067,17.067V460.804z"/>
	</g>
</g>
<g>
</g>
<g>
</g>
<g>
</g>
<g>
</g>
<g>
</g>
<g>
</g>
<g>
</g>
<g>
</g>
<g>
</g>
<g>
</g>
<g>
</g>
<g>
</g>
<g>
</g>
<g>
</g>
<g>
</g>
</svg>
