<?xml version="1.0" encoding="iso-8859-1"?>
<!-- Generator: Adobe Illustrator 19.0.0, SVG Export Plug-In . SVG Version: 6.00 Build 0)  -->
<svg xmlns="http://www.w3.org/2000/svg" xmlns:xlink="http://www.w3.org/1999/xlink" version="1.1" id="Capa_1" x="0px" y="0px" viewBox="0 0 512 512" style="enable-background:new 0 0 512 512;" xml:space="preserve">
<g>
	<g>
		<g>
			<rect x="341.331" y="221.867" width="34.133" height="34.133"/>
			<rect x="298.664" y="315.733" width="34.133" height="51.2"/>
			<rect x="255.997" y="221.867" width="34.133" height="34.133"/>
			<polygon points="213.798,170.667 417.668,170.667 315.729,95.915    "/>
			<path d="M221.866,366.933h59.733V307.2c0-4.71,3.823-8.533,8.533-8.533h51.2c4.71,0,8.533,3.823,8.533,8.533v59.733h59.733     v-179.2H221.866V366.933z M324.266,213.333c0-4.71,3.823-8.533,8.533-8.533h51.2c4.71,0,8.533,3.823,8.533,8.533v51.2     c0,4.71-3.823,8.533-8.533,8.533h-51.2c-4.71,0-8.533-3.823-8.533-8.533V213.333z M238.932,213.333     c0-4.71,3.823-8.533,8.533-8.533h51.2c4.71,0,8.533,3.823,8.533,8.533v51.2c0,4.71-3.823,8.533-8.533,8.533h-51.2     c-4.71,0-8.533-3.823-8.533-8.533V213.333z"/>
			<path d="M503.467,34.133H84.471C80.503,14.686,63.266,0,42.667,0C19.14,0,0,19.14,0,42.667v426.667     C0,492.86,19.14,512,42.667,512h460.8c4.71,0,8.533-3.823,8.533-8.533v-460.8C512,37.956,508.177,34.133,503.467,34.133z      M68.267,435.217c-7.142-5.367-16.009-8.55-25.6-8.55c-2.714,0-5.342,0.316-7.91,0.802c-0.828,0.154-1.604,0.401-2.415,0.606     c-1.724,0.435-3.413,0.93-5.052,1.57c-0.87,0.341-1.707,0.708-2.543,1.101c-1.536,0.717-3.004,1.528-4.437,2.415     c-0.742,0.461-1.493,0.896-2.202,1.399c-0.341,0.239-0.717,0.418-1.041,0.657V42.667c0-14.114,11.486-25.6,25.6-25.6     s25.6,11.486,25.6,25.6V435.217z M128,247.467c0,4.71-3.823,8.533-8.533,8.533s-8.533-3.823-8.533-8.533v-34.133     c0-4.71,3.823-8.533,8.533-8.533s8.533,3.823,8.533,8.533V247.467z M170.667,375.467c0,4.71-3.823,8.533-8.533,8.533h-17.067     c-4.71,0-8.533-3.823-8.533-8.533s3.823-8.533,8.533-8.533V93.867c-4.71,0-8.533-3.823-8.533-8.533     c0-4.71,3.823-8.533,8.533-8.533h17.067c4.71,0,8.533,3.823,8.533,8.533c0,4.71-3.823,8.533-8.533,8.533v273.067     C166.844,366.933,170.667,370.756,170.667,375.467z M332.8,460.8h-34.133c-4.71,0-8.533-3.823-8.533-8.533     c0-4.71,3.823-8.533,8.533-8.533H332.8c4.71,0,8.533,3.823,8.533,8.533C341.333,456.977,337.51,460.8,332.8,460.8z      M426.667,426.667c0,4.71-3.823,8.533-8.533,8.533s-8.533-3.823-8.533-8.533H221.867c0,4.71-3.823,8.533-8.533,8.533     c-4.71,0-8.533-3.823-8.533-8.533V409.6c0-4.71,3.823-8.533,8.533-8.533c4.71,0,8.533,3.823,8.533,8.533H409.6     c0-4.71,3.823-8.533,8.533-8.533s8.533,3.823,8.533,8.533V426.667z M451.84,181.854c-1.143,3.507-4.42,5.879-8.107,5.879h-17.067     v187.733c0,4.71-3.823,8.533-8.533,8.533h-76.8h-51.2h-76.8c-4.71,0-8.533-3.823-8.533-8.533V187.733h-17.067     c-3.695,0-6.963-2.372-8.107-5.879c-1.152-3.507,0.085-7.356,3.055-9.54l128-93.867c3.004-2.193,7.1-2.193,10.095,0l128,93.867     C451.755,174.498,452.992,178.347,451.84,181.854z"/>
		</g>
	</g>
</g>
<g>
</g>
<g>
</g>
<g>
</g>
<g>
</g>
<g>
</g>
<g>
</g>
<g>
</g>
<g>
</g>
<g>
</g>
<g>
</g>
<g>
</g>
<g>
</g>
<g>
</g>
<g>
</g>
<g>
</g>
</svg>
