<?xml version="1.0" encoding="iso-8859-1"?>
<!-- Generator: Adobe Illustrator 19.0.0, SVG Export Plug-In . SVG Version: 6.00 Build 0)  -->
<svg xmlns="http://www.w3.org/2000/svg" xmlns:xlink="http://www.w3.org/1999/xlink" version="1.1" id="Capa_1" x="0px" y="0px" viewBox="0 0 512.007 512.007" style="enable-background:new 0 0 512.007 512.007;" xml:space="preserve">
<g>
	<g>
		<g>
			<path d="M503.47,460.804h-8.533v-25.6c0-4.71-3.814-8.533-8.533-8.533h-17.067v-17.067h-25.6c-14.114,0-25.6-11.486-25.6-25.6     V196.271c0-14.114,11.486-25.6,25.6-25.6h25.6v-17.067h34.133c3.891,0,7.287-2.637,8.269-6.4c0.964-3.772-0.734-7.723-4.147-9.6     L260.125,1.071c-2.56-1.425-5.683-1.425-8.243,0L4.415,137.604c-3.413,1.877-5.111,5.828-4.147,9.6     c0.981,3.763,4.378,6.4,8.269,6.4H42.67v17.067h25.6c14.114,0,25.6,11.486,25.6,25.6v187.733c0,14.114-11.486,25.6-25.6,25.6     h-25.6v17.067H25.603c-4.719,0-8.533,3.823-8.533,8.533v25.6H8.537c-4.719,0-8.533,3.823-8.533,8.533v34.133     c0,4.71,3.814,8.533,8.533,8.533H503.47c4.719,0,8.533-3.823,8.533-8.533v-34.133     C512.003,464.627,508.189,460.804,503.47,460.804z M51.203,136.538h-9.532L256.003,18.283l214.332,118.255h-9.532H290.137H221.87     H51.203z M401.07,196.271v187.733c0,14.114-11.486,25.6-25.6,25.6s-25.6-11.486-25.6-25.6V196.271     c0-14.114,11.486-25.6,25.6-25.6S401.07,182.157,401.07,196.271z M204.803,409.604c-14.114,0-25.6-11.486-25.6-25.6V196.271     c0-14.114,11.486-25.6,25.6-25.6h25.6v-17.067h51.2v17.067h25.6c14.114,0,25.6,11.486,25.6,25.6v187.733     c0,14.114-11.486,25.6-25.6,25.6h-25.6v17.067h-51.2v-17.067H204.803z M162.137,196.271v187.733c0,14.114-11.486,25.6-25.6,25.6     s-25.6-11.486-25.6-25.6V196.271c0-14.114,11.486-25.6,25.6-25.6S162.137,182.157,162.137,196.271z M477.87,460.804H34.137     v-17.067h17.067H221.87h68.267h170.667h17.067V460.804z"/>
			<path d="M256.003,119.471c18.825,0,34.133-15.309,34.133-34.133c0-18.825-15.309-34.133-34.133-34.133     S221.87,66.513,221.87,85.338C221.87,104.162,237.179,119.471,256.003,119.471z"/>
			<path d="M128.003,196.271v187.733c0,4.702,3.823,8.533,8.533,8.533s8.533-3.831,8.533-8.533V196.271     c0-4.702-3.823-8.533-8.533-8.533S128.003,191.569,128.003,196.271z"/>
			<path d="M76.803,384.004V196.271c0-4.702-3.823-8.533-8.533-8.533h-25.6v204.8h25.6C72.98,392.538,76.803,388.706,76.803,384.004     z"/>
			<path d="M230.403,187.738h-25.6c-4.71,0-8.533,3.831-8.533,8.533v187.733c0,4.702,3.823,8.533,8.533,8.533h25.6V187.738z"/>
			<path d="M315.737,384.004V196.271c0-4.702-3.823-8.533-8.533-8.533h-25.6v204.8h25.6     C311.914,392.538,315.737,388.706,315.737,384.004z"/>
			<path d="M366.937,196.271v187.733c0,4.702,3.823,8.533,8.533,8.533s8.533-3.831,8.533-8.533V196.271     c0-4.702-3.823-8.533-8.533-8.533S366.937,191.569,366.937,196.271z"/>
			<path d="M435.203,196.271v187.733c0,4.702,3.823,8.533,8.533,8.533h25.6v-204.8h-25.6     C439.026,187.738,435.203,191.569,435.203,196.271z"/>
		</g>
	</g>
</g>
<g>
</g>
<g>
</g>
<g>
</g>
<g>
</g>
<g>
</g>
<g>
</g>
<g>
</g>
<g>
</g>
<g>
</g>
<g>
</g>
<g>
</g>
<g>
</g>
<g>
</g>
<g>
</g>
<g>
</g>
</svg>
