<?xml version="1.0" encoding="iso-8859-1"?>
<!-- Generator: Adobe Illustrator 19.0.0, SVG Export Plug-In . SVG Version: 6.00 Build 0)  -->
<svg xmlns="http://www.w3.org/2000/svg" xmlns:xlink="http://www.w3.org/1999/xlink" version="1.1" id="Capa_1" x="0px" y="0px" viewBox="0 0 512 512" style="enable-background:new 0 0 512 512;" xml:space="preserve">
<g>
	<g>
		<path d="M503.467,460.8h-8.533v-25.6c0-4.71-3.814-8.533-8.533-8.533h-8.533v-25.6c0-4.71-3.814-8.533-8.533-8.533h-17.067    V263.322c14.686-3.814,25.6-17.067,25.6-32.922s-10.914-29.107-25.6-32.922V179.2h8.533c3.678,0,6.929-2.347,8.09-5.837    L484.019,128h19.447c4.028,0,7.501-2.816,8.346-6.75c0.836-3.934-1.178-7.927-4.855-9.574L259.49,0.743    c-2.219-0.99-4.762-0.99-6.98,0L5.043,111.676c-3.678,1.647-5.692,5.641-4.855,9.574c0.845,3.934,4.318,6.75,8.346,6.75h19.447    l15.13,45.363c1.152,3.49,4.412,5.837,8.09,5.837h8.533v18.278c-14.686,3.814-25.6,17.067-25.6,32.922s10.914,29.107,25.6,32.922    v129.212H42.667c-4.719,0-8.533,3.823-8.533,8.533v25.6H25.6c-4.719,0-8.533,3.823-8.533,8.533v25.6H8.534    C3.815,460.8,0,464.623,0,469.334v34.133C0,508.177,3.815,512,8.534,512h494.933c4.719,0,8.533-3.823,8.533-8.533v-34.133    C512,464.623,508.186,460.8,503.467,460.8z M460.8,409.6v17.067H324.267V409.6h17.067h102.4H460.8z M324.267,230.4    c0-9.412,7.654-17.067,17.067-17.067c4.949,0,9.387,2.159,12.51,5.538c0.043,0.051,0.06,0.12,0.111,0.171    c1.408,1.57,2.953,3.925,3.797,6.955c0.077,0.273,0.188,0.521,0.247,0.802c0.247,1.109,0.401,2.313,0.401,3.601    s-0.154,2.492-0.401,3.601c-0.06,0.282-0.171,0.529-0.247,0.802c-0.845,3.029-2.389,5.385-3.797,6.955    c-0.051,0.051-0.068,0.119-0.111,0.171c-3.123,3.379-7.561,5.538-12.51,5.538C331.921,247.467,324.267,239.812,324.267,230.4z     M375.032,225.289c-0.068-0.435-0.128-0.862-0.213-1.289c-0.077-0.418-0.188-0.819-0.282-1.229    c-0.068-0.299-0.102-0.606-0.179-0.905h36.352c-0.077,0.299-0.111,0.606-0.179,0.905c-0.094,0.41-0.205,0.811-0.282,1.229    c-0.085,0.427-0.145,0.853-0.213,1.289c-0.256,1.69-0.435,3.388-0.435,5.112c0,1.724,0.179,3.422,0.435,5.111    c0.068,0.435,0.128,0.862,0.213,1.289c0.077,0.418,0.188,0.819,0.282,1.229c0.068,0.299,0.102,0.606,0.179,0.905h-36.352    c0.077-0.299,0.111-0.606,0.179-0.905c0.094-0.41,0.205-0.811,0.282-1.229c0.085-0.427,0.145-0.853,0.213-1.289    c0.256-1.69,0.435-3.388,0.435-5.111C375.467,228.676,375.288,226.978,375.032,225.289z M460.8,230.4    c0,9.412-7.654,17.067-17.067,17.067c-4.949,0-9.387-2.159-12.51-5.538c-0.043-0.051-0.06-0.119-0.111-0.171    c-1.408-1.57-2.953-3.925-3.797-6.955c-0.077-0.273-0.188-0.521-0.247-0.802c-0.247-1.109-0.401-2.313-0.401-3.601    s0.154-2.492,0.401-3.601c0.06-0.282,0.171-0.529,0.247-0.802c0.845-3.029,2.389-5.385,3.797-6.955    c0.051-0.051,0.068-0.12,0.111-0.171c3.123-3.379,7.561-5.538,12.51-5.538C453.146,213.334,460.8,220.988,460.8,230.4z     M466.023,128l-11.375,34.133h-10.914h-102.4h-10.914L319.044,128H466.023z M195.823,173.363L210.953,128h90.095l15.13,45.363    c1.161,3.49,4.412,5.837,8.09,5.837h8.533v18.278c-14.686,3.814-25.6,17.067-25.6,32.922s10.914,29.107,25.6,32.922v129.212    h-17.067c-4.719,0-8.533,3.823-8.533,8.533v25.6H204.8v-25.6c0-4.71-3.814-8.533-8.533-8.533H179.2v-128    c18.825,0,34.133-15.309,34.133-34.133s-15.309-34.133-34.133-34.133V179.2h8.533C191.411,179.2,194.663,176.854,195.823,173.363z     M162.134,230.4c0-9.412,7.654-17.067,17.067-17.067s17.067,7.654,17.067,17.067c0,9.412-7.654,17.067-17.067,17.067    S162.134,239.812,162.134,230.4z M57.353,162.134L45.978,128h146.978l-11.375,34.133h-10.914h-102.4H57.353z M136.969,235.512    c0.094,0.657,0.247,1.297,0.384,1.937c0.102,0.495,0.162,0.998,0.29,1.485h-36.352c0.077-0.299,0.111-0.606,0.179-0.905    c0.094-0.41,0.205-0.811,0.282-1.229c0.085-0.427,0.145-0.853,0.213-1.289c0.256-1.69,0.435-3.388,0.435-5.111    c0-1.724-0.179-3.422-0.435-5.112c-0.068-0.435-0.128-0.862-0.213-1.289c-0.077-0.418-0.188-0.819-0.282-1.229    c-0.068-0.299-0.102-0.606-0.179-0.905h36.352c-0.128,0.486-0.188,0.99-0.29,1.485c-0.137,0.64-0.29,1.28-0.384,1.937    c-0.256,1.69-0.435,3.388-0.435,5.112C136.534,232.124,136.713,233.822,136.969,235.512z M51.2,230.4    c0-9.412,7.654-17.067,17.067-17.067c4.949,0,9.387,2.159,12.51,5.538c0.043,0.051,0.06,0.12,0.111,0.171    c1.408,1.57,2.953,3.925,3.797,6.955c0.077,0.273,0.188,0.521,0.247,0.802c0.247,1.109,0.401,2.313,0.401,3.601    s-0.154,2.492-0.401,3.601c-0.06,0.282-0.171,0.529-0.247,0.802c-0.845,3.029-2.389,5.385-3.797,6.955    c-0.051,0.051-0.068,0.119-0.111,0.171c-3.123,3.379-7.561,5.538-12.51,5.538C58.855,247.467,51.2,239.812,51.2,230.4z     M51.2,409.6h17.067h102.4h17.067v17.067H51.2V409.6z M494.934,494.934H17.067v-17.067H25.6h460.8h8.533V494.934z"/>
	</g>
</g>
<g>
</g>
<g>
</g>
<g>
</g>
<g>
</g>
<g>
</g>
<g>
</g>
<g>
</g>
<g>
</g>
<g>
</g>
<g>
</g>
<g>
</g>
<g>
</g>
<g>
</g>
<g>
</g>
<g>
</g>
</svg>
