<?xml version="1.0" encoding="iso-8859-1"?>
<!-- Generator: Adobe Illustrator 19.0.0, SVG Export Plug-In . SVG Version: 6.00 Build 0)  -->
<svg xmlns="http://www.w3.org/2000/svg" xmlns:xlink="http://www.w3.org/1999/xlink" version="1.1" id="Capa_1" x="0px" y="0px" viewBox="0 0 512.003 512.003" style="enable-background:new 0 0 512.003 512.003;" xml:space="preserve">
<g>
	<g>
		<g>
			<path d="M503.47,460.8h-9.387l-32.341-307.2h41.728c3.891,0,7.287-2.628,8.26-6.4c0.973-3.772-0.734-7.723-4.139-9.6     L260.125,1.066c-2.568-1.417-5.675-1.417-8.243,0L4.415,137.6c-3.413,1.877-5.112,5.828-4.147,9.6     c0.973,3.772,4.378,6.4,8.269,6.4h41.719L17.915,460.8H8.537c-4.719,0-8.533,3.823-8.533,8.533v34.133     c0,4.719,3.814,8.533,8.533,8.533H503.47c4.71,0,8.533-3.814,8.533-8.533v-34.133C512.003,464.622,508.18,460.8,503.47,460.8z      M136.938,103.466l114.944-63.42c2.569-1.417,5.675-1.417,8.243,0l114.935,63.42c3.413,1.877,5.111,5.828,4.147,9.6     c-0.973,3.772-4.378,6.4-8.269,6.4H141.059c-3.891,0-7.296-2.628-8.26-6.4C131.826,109.294,133.533,105.344,136.938,103.466z      M35.408,457.711L56.52,257.143c4.216,43.708,10.914,84.872,20.002,119.561C64.669,420.147,50.026,448.708,35.408,457.711z      M68.321,153.6h34.022c-0.486,72.081-7.023,135.398-17.007,185.489C75.353,288.998,68.808,225.681,68.321,153.6z M94.143,376.704     c9.088-34.688,15.787-75.853,20.011-119.561l21.111,200.568C120.639,448.708,106.004,420.147,94.143,376.704z M152.75,460.8     l-32.341-307.2h100.514l-32.341,307.2H152.75z M206.075,457.711l21.111-200.568c4.216,43.708,10.914,84.872,20.002,119.561     C235.336,420.147,220.692,448.708,206.075,457.711z M238.988,153.6h34.022c-0.486,72.081-7.023,135.398-17.007,185.489     C246.019,288.998,239.474,225.681,238.988,153.6z M264.81,376.704c9.088-34.688,15.787-75.853,20.011-119.561l21.111,200.568     C291.306,448.708,276.671,420.147,264.81,376.704z M323.417,460.8l-32.341-307.2h100.514l-32.341,307.2H323.417z      M376.741,457.711l21.111-200.568c4.215,43.708,10.914,84.872,20.002,119.561C406.002,420.147,391.359,448.708,376.741,457.711z      M409.655,153.6h34.022c-0.486,72.081-7.023,135.398-17.007,185.489C416.686,288.998,410.141,225.681,409.655,153.6z      M435.476,376.704c9.088-34.688,15.787-75.853,20.011-119.561l21.111,200.568C461.972,448.708,447.338,420.147,435.476,376.704z"/>
			<polygon points="256.001,57.266 174.192,102.407 337.81,102.407    "/>
		</g>
	</g>
</g>
<g>
</g>
<g>
</g>
<g>
</g>
<g>
</g>
<g>
</g>
<g>
</g>
<g>
</g>
<g>
</g>
<g>
</g>
<g>
</g>
<g>
</g>
<g>
</g>
<g>
</g>
<g>
</g>
<g>
</g>
</svg>
