<?xml version="1.0" encoding="iso-8859-1"?>
<!-- Generator: Adobe Illustrator 19.0.0, SVG Export Plug-In . SVG Version: 6.00 Build 0)  -->
<svg xmlns="http://www.w3.org/2000/svg" xmlns:xlink="http://www.w3.org/1999/xlink" version="1.1" id="Capa_1" x="0px" y="0px" viewBox="0 0 512.431 512.431" style="enable-background:new 0 0 512.431 512.431;" xml:space="preserve">
<g>
	<g>
		<path d="M507.098,120.429L259.631,0.962c-2.56-0.853-5.12-0.853-7.68,0L4.484,120.429c-3.413,1.707-5.12,5.973-4.267,9.387    c0.853,4.267,4.267,6.827,8.533,6.827h51.2v34.987c-14.507,3.413-25.6,17.067-25.6,33.28c0,16.213,11.093,29.013,25.6,33.28    v36.693c-14.507,3.413-25.6,17.067-25.6,33.28c0,16.213,11.093,29.013,25.6,33.28v36.693c-14.507,3.413-25.6,17.067-25.6,33.28    c0,16.213,11.093,29.013,25.6,33.28v16.213H42.884c-5.12,0-8.533,3.413-8.533,8.533v34.133c0,5.12,3.413,8.533,8.533,8.533h153.6    c5.12,0,8.533-3.413,8.533-8.533v-34.133c0-5.12-3.413-8.533-8.533-8.533h-17.067v-17.92c14.507-3.413,25.6-17.067,25.6-33.28    c0-16.213-11.093-29.013-25.6-33.28v-36.693c14.507-3.413,25.6-17.067,25.6-33.28c0-16.213-11.093-29.013-25.6-33.28v-36.693    c14.507-3.413,25.6-17.067,25.6-33.28s-11.093-29.013-25.6-33.28v-33.28h153.6v34.987c-14.507,3.413-25.6,17.067-25.6,33.28    c0,16.213,11.093,29.013,25.6,33.28v36.693c-14.507,3.413-25.6,17.067-25.6,33.28c0,16.213,11.093,29.013,25.6,33.28v36.693    c-14.507,3.413-25.6,17.067-25.6,33.28c0,16.213,11.093,29.013,25.6,33.28v16.213h-17.067c-5.12,0-8.533,3.413-8.533,8.533v34.133    c0,5.12,3.413,8.533,8.533,8.533h153.6c5.12,0,8.533-3.413,8.533-8.533v-34.133c0-5.12-3.413-8.533-8.533-8.533h-17.067v-17.92    c14.507-3.413,25.6-17.067,25.6-33.28c0-16.213-11.093-29.013-25.6-33.28v-36.693c14.507-3.413,25.6-17.067,25.6-33.28    c0-16.213-11.093-29.013-25.6-33.28v-36.693c14.507-3.413,25.6-17.067,25.6-33.28s-11.093-29.013-25.6-33.28v-33.28h51.2    c4.267,0,7.68-2.56,8.533-6.827C513.071,126.402,511.364,122.135,507.098,120.429z M162.351,460.909H77.017v-17.067h85.333    V460.909z M162.351,375.575H77.017v-34.133h85.333V375.575z M162.351,273.175H77.017v-34.133h85.333V273.175z M162.351,170.775    H77.017v-34.133h85.333V170.775z M435.417,460.909h-85.333v-17.067h85.333V460.909z M435.417,375.575h-85.333v-34.133h85.333    V375.575z M435.417,273.175h-85.333v-34.133h85.333V273.175z M435.417,170.775h-85.333v-34.133h85.333V170.775z"/>
	</g>
</g>
<g>
</g>
<g>
</g>
<g>
</g>
<g>
</g>
<g>
</g>
<g>
</g>
<g>
</g>
<g>
</g>
<g>
</g>
<g>
</g>
<g>
</g>
<g>
</g>
<g>
</g>
<g>
</g>
<g>
</g>
</svg>
