<?xml version="1.0" encoding="iso-8859-1"?>
<!-- Generator: Adobe Illustrator 19.0.0, SVG Export Plug-In . SVG Version: 6.00 Build 0)  -->
<svg xmlns="http://www.w3.org/2000/svg" xmlns:xlink="http://www.w3.org/1999/xlink" version="1.1" id="Capa_1" x="0px" y="0px" viewBox="0 0 512 512" style="enable-background:new 0 0 512 512;" xml:space="preserve">
<g>
	<g>
		<g>
			<path d="M332.8,443.733v-78.882c-12.186,9.685-34.466,14.592-46.669,16.649c-3.337,31.906-7.893,50.842-12.527,62.234h-35.209     c-4.634-11.392-9.19-30.327-12.527-62.234c-12.203-2.057-34.483-6.963-46.669-16.649v78.882     c-18.825,0-34.133,15.309-34.133,34.133S160.376,512,179.2,512h153.6c18.825,0,34.133-15.309,34.133-34.133     S351.625,443.733,332.8,443.733z M332.8,494.933H179.2c-9.412,0-17.067-7.654-17.067-17.067S169.788,460.8,179.2,460.8h8.533H256     h68.267h8.533c9.412,0,17.067,7.654,17.067,17.067S342.212,494.933,332.8,494.933z"/>
			<path d="M352.734,52.523l13.764-41.293c0.862-2.603,0.427-5.461-1.178-7.68C363.716,1.314,361.139,0,358.4,0H153.6     c-2.739,0-5.316,1.314-6.921,3.55c-1.604,2.219-2.039,5.077-1.178,7.68l13.764,41.293c-22.75,5.205-39.799,25.566-39.799,49.877     c0,28.237,22.963,51.2,51.2,51.2h8.533v78.882c12.186-9.685,34.466-14.592,46.669-16.648     c3.337-31.906,7.893-50.842,12.527-62.234h35.209c4.634,11.392,9.19,30.327,12.527,62.234     c12.203,2.057,34.483,6.963,46.669,16.648V153.6h8.533c28.237,0,51.2-22.963,51.2-51.2     C392.533,78.089,375.484,57.728,352.734,52.523z M303.206,68.267c-0.247,0.273-0.444,0.597-0.683,0.879     c-0.572,0.657-1.075,1.365-1.604,2.057c-1.143,1.476-2.21,2.987-3.183,4.574c-0.495,0.819-0.973,1.638-1.425,2.483     c-0.905,1.673-1.69,3.396-2.398,5.171c-0.316,0.802-0.674,1.562-0.956,2.381c-0.896,2.603-1.647,5.282-2.116,8.055h-69.683     c-0.469-2.773-1.22-5.453-2.116-8.055c-0.282-0.819-0.64-1.579-0.956-2.381c-0.708-1.775-1.493-3.499-2.398-5.171     c-0.452-0.845-0.93-1.664-1.425-2.483c-0.973-1.587-2.039-3.098-3.183-4.574c-0.529-0.691-1.033-1.399-1.604-2.057     c-0.239-0.282-0.435-0.606-0.683-0.879H303.206z M341.333,136.533h-17.067H256h-68.267h-17.067     c-18.825,0-34.133-15.309-34.133-34.133c0-18.825,15.309-34.133,34.133-34.133c18.825,0,34.133,15.309,34.133,34.133     c0,4.71,3.823,8.533,8.533,8.533h85.333c4.71,0,8.533-3.823,8.533-8.533c0-18.825,15.309-34.133,34.133-34.133     s34.133,15.309,34.133,34.133C375.467,121.225,360.158,136.533,341.333,136.533z"/>
			<circle cx="170.667" cy="102.4" r="8.533"/>
			<circle cx="341.333" cy="102.4" r="8.533"/>
			<path d="M179.2,334.909c11.102-8.798,30.532-13.662,42.906-16c-0.154-6.622-0.239-13.363-0.239-20.241s0.085-13.619,0.239-20.25     c-12.373-2.33-31.804-7.194-42.906-15.992V334.909z"/>
			<path d="M332.8,334.909v-72.482c-11.102,8.798-30.532,13.662-42.906,15.992c0.154,6.63,0.239,13.372,0.239,20.25     s-0.085,13.619-0.239,20.241C302.268,321.247,321.698,326.111,332.8,334.909z"/>
			<path d="M277.197,231.757c-3.951-0.512-7.023-3.695-7.398-7.663c-4.019-42.692-10.214-61.722-13.798-68.343     c-3.584,6.622-9.779,25.651-13.798,68.343c-0.375,3.968-3.447,7.151-7.398,7.663c-27.375,3.55-44.211,11.665-46.882,15.684     c2.509,3.584,17.323,11.366,44.169,15.36c4.275,0.64,7.398,4.378,7.27,8.695c-0.265,8.832-0.427,17.886-0.427,27.17     s0.162,18.338,0.427,27.17c0.128,4.318-2.995,8.055-7.27,8.695c-26.846,3.994-41.66,11.776-44.169,15.36     c2.671,4.019,19.507,12.134,46.882,15.684c3.951,0.512,7.023,3.695,7.398,7.663c4.019,42.692,10.214,61.722,13.798,68.343     c3.584-6.622,9.779-25.651,13.798-68.343c0.375-3.968,3.447-7.151,7.398-7.663c27.375-3.55,44.211-11.665,46.882-15.684     c-2.509-3.584-17.323-11.366-44.169-15.36c-4.275-0.64-7.398-4.378-7.27-8.695c0.265-8.832,0.427-17.886,0.427-27.17     s-0.162-18.338-0.427-27.17c-0.128-4.318,2.995-8.055,7.27-8.695c26.846-3.994,41.66-11.776,44.169-15.36     C321.408,243.422,304.572,235.307,277.197,231.757z M256,358.4c-4.71,0-8.533-3.823-8.533-8.533s3.823-8.533,8.533-8.533     c4.71,0,8.533,3.823,8.533,8.533S260.71,358.4,256,358.4z M256,256c-4.71,0-8.533-3.823-8.533-8.533s3.823-8.533,8.533-8.533     c4.71,0,8.533,3.823,8.533,8.533S260.71,256,256,256z"/>
		</g>
	</g>
</g>
<g>
</g>
<g>
</g>
<g>
</g>
<g>
</g>
<g>
</g>
<g>
</g>
<g>
</g>
<g>
</g>
<g>
</g>
<g>
</g>
<g>
</g>
<g>
</g>
<g>
</g>
<g>
</g>
<g>
</g>
</svg>
