<?xml version="1.0" encoding="iso-8859-1"?>
<!-- Generator: Adobe Illustrator 19.0.0, SVG Export Plug-In . SVG Version: 6.00 Build 0)  -->
<svg xmlns="http://www.w3.org/2000/svg" xmlns:xlink="http://www.w3.org/1999/xlink" version="1.1" id="Capa_1" x="0px" y="0px" viewBox="0 0 512 512" style="enable-background:new 0 0 512 512;" xml:space="preserve">
<g>
	<g>
		<path d="M375.398,502.409l-8.533-68.267c-0.529-4.275-4.164-7.475-8.465-7.475h-17.067v-8.533c0-11.11-7.159-20.489-17.067-24.03    V100.83c9.907-3.541,17.067-12.919,17.067-24.03v-8.533H358.4c4.173,0,7.731-3.021,8.414-7.125l8.533-51.2    c0.418-2.475-0.282-5.009-1.903-6.921C371.823,1.101,369.442,0,366.933,0H145.067c-2.509,0-4.89,1.101-6.511,3.021    c-1.621,1.911-2.321,4.446-1.903,6.921l8.533,51.2c0.683,4.104,4.241,7.125,8.414,7.125h17.067V76.8    c0,11.11,7.159,20.489,17.067,24.021v293.282c-9.907,3.541-17.067,12.919-17.067,24.03v8.533H153.6    c-4.301,0-7.936,3.2-8.465,7.475l-8.533,68.267c-0.307,2.432,0.452,4.872,2.065,6.707c1.621,1.835,3.951,2.884,6.4,2.884h221.867    c2.449,0,4.779-1.05,6.4-2.884C374.946,507.281,375.706,504.841,375.398,502.409z M187.733,68.267h136.533V76.8    c0,4.702-3.823,8.533-8.533,8.533H256h-59.733c-4.71,0-8.533-3.831-8.533-8.533V68.267z M290.133,170.667    c0,10.24-4.625,19.337-11.793,25.6c7.168,6.263,11.793,15.36,11.793,25.6c0,10.24-4.625,19.337-11.793,25.6    c7.168,6.263,11.793,15.36,11.793,25.6c0,10.24-4.625,19.337-11.793,25.6c7.168,6.263,11.793,15.36,11.793,25.6    c0,10.24-4.625,19.337-11.793,25.6c7.168,6.263,11.793,15.36,11.793,25.6c0,6.246-1.809,12.023-4.753,17.067H226.62    c-2.944-5.043-4.753-10.82-4.753-17.067c0-10.24,4.625-19.336,11.793-25.6c-7.168-6.263-11.793-15.36-11.793-25.6    c0-10.24,4.625-19.336,11.793-25.6c-7.168-6.263-11.793-15.36-11.793-25.6c0-10.24,4.625-19.336,11.793-25.6    c-7.168-6.263-11.793-15.36-11.793-25.6c0-10.24,4.625-19.337,11.793-25.6c-7.168-6.263-11.793-15.36-11.793-25.6    s4.625-19.337,11.793-25.6c-7.168-6.263-11.793-15.36-11.793-25.6c0-6.246,1.809-12.023,4.753-17.067h58.761    c2.944,5.043,4.753,10.82,4.753,17.067c0,10.24-4.625,19.337-11.793,25.6C285.508,151.33,290.133,160.427,290.133,170.667z     M324.267,426.667H187.733v-8.533c0-4.702,3.823-8.533,8.533-8.533H256h59.733c4.71,0,8.533,3.831,8.533,8.533V426.667z"/>
	</g>
</g>
<g>
</g>
<g>
</g>
<g>
</g>
<g>
</g>
<g>
</g>
<g>
</g>
<g>
</g>
<g>
</g>
<g>
</g>
<g>
</g>
<g>
</g>
<g>
</g>
<g>
</g>
<g>
</g>
<g>
</g>
</svg>
