<?xml version="1.0" encoding="iso-8859-1"?>
<!-- Generator: Adobe Illustrator 19.0.0, SVG Export Plug-In . SVG Version: 6.00 Build 0)  -->
<svg xmlns="http://www.w3.org/2000/svg" xmlns:xlink="http://www.w3.org/1999/xlink" version="1.1" id="Capa_1" x="0px" y="0px" viewBox="0 0 512 512" style="enable-background:new 0 0 512 512;" xml:space="preserve">
<g>
	<g>
		<path d="M503.467,34.133H84.472C80.503,14.686,63.275,0,42.667,0C19.14,0,0,19.14,0,42.667v426.667C0,492.86,19.14,512,42.667,512    h460.8c4.71,0,8.533-3.823,8.533-8.533v-460.8C512,37.956,508.177,34.133,503.467,34.133z M68.267,435.217    c-7.134-5.359-16-8.55-25.6-8.55c-2.705,0-5.333,0.316-7.91,0.802c-0.819,0.154-1.604,0.401-2.406,0.606    c-1.732,0.435-3.422,0.93-5.06,1.57c-0.87,0.341-1.707,0.708-2.543,1.109c-1.536,0.708-3.004,1.519-4.437,2.406    c-0.742,0.461-1.493,0.896-2.202,1.399c-0.333,0.239-0.708,0.418-1.041,0.657V42.667c0-14.114,11.486-25.6,25.6-25.6    s25.6,11.486,25.6,25.6V435.217z M469.333,460.8c0,4.71-3.823,8.533-8.533,8.533h-25.6c-4.71,0-8.533-3.823-8.533-8.533    s3.823-8.533,8.533-8.533h17.067v-358.4H307.2V153.6c0,4.71-3.823,8.533-8.533,8.533s-8.533-3.823-8.533-8.533V93.867h-30.601    l11.034,11.034c3.337,3.337,3.337,8.73,0,12.066c-1.664,1.664-3.849,2.5-6.033,2.5c-2.185,0-4.369-0.836-6.033-2.5l-11.034-11.034    v56.201c0,4.71-3.823,8.533-8.533,8.533s-8.533-3.823-8.533-8.533v-56.201l-11.034,11.034c-3.336,3.336-8.73,3.336-12.066,0    c-3.337-3.337-3.337-8.73,0-12.066l11.034-11.034H128v81.801l11.034-11.034c3.336-3.337,8.73-3.337,12.066,0s3.337,8.73,0,12.066    l-11.034,11.034h47.667c4.71,0,8.533,3.823,8.533,8.533s-3.823,8.533-8.533,8.533h-47.667l11.034,11.034    c3.337,3.337,3.337,8.73,0,12.066c-1.664,1.664-3.849,2.5-6.033,2.5c-2.185,0-4.369-0.836-6.033-2.5L128,216.866V256h162.133    v-51.2c0-4.71,3.823-8.533,8.533-8.533s8.533,3.823,8.533,8.533V256h51.2c4.71,0,8.533,3.823,8.533,8.533v59.733    c0,4.71-3.823,8.533-8.533,8.533s-8.533-3.823-8.533-8.533v-51.2h-30.6L330.3,284.1c3.337,3.337,3.337,8.73,0,12.066    c-1.664,1.664-3.849,2.5-6.033,2.5c-2.185,0-4.369-0.836-6.033-2.5L307.2,285.133v81.801c0,4.71-3.823,8.533-8.533,8.533    s-8.533-3.823-8.533-8.533v-81.801L279.1,296.166c-3.336,3.336-8.73,3.336-12.066,0c-3.337-3.337-3.337-8.73,0-12.066    l11.034-11.034H128v90.334l11.034-11.034c3.336-3.337,8.73-3.337,12.066,0s3.337,8.73,0,12.066l-11.034,11.034h81.801    c4.71,0,8.533,3.823,8.533,8.533s-3.823,8.533-8.533,8.533h-81.801l11.034,11.034c3.337,3.336,3.337,8.73,0,12.066    c-1.664,1.664-3.849,2.5-6.033,2.5c-2.185,0-4.369-0.836-6.033-2.5L128,404.599v47.667h221.867v-76.8    c0-4.719,3.823-8.533,8.533-8.533s8.533,3.814,8.533,8.533v76.8H384c4.71,0,8.533,3.823,8.533,8.533s-3.823,8.533-8.533,8.533    h-25.6H119.467c-4.71,0-8.533-3.823-8.533-8.533V264.533v-179.2c0-4.71,3.823-8.533,8.533-8.533h179.2H460.8    c4.71,0,8.533,3.823,8.533,8.533V460.8z M213.333,145.067v17.067c0,4.71-3.823,8.533-8.533,8.533c-4.71,0-8.533-3.823-8.533-8.533    v-17.067c0-4.71,3.823-8.533,8.533-8.533C209.51,136.533,213.333,140.356,213.333,145.067z M196.267,230.4    c0,4.71-3.823,8.533-8.533,8.533h-17.067c-4.71,0-8.533-3.823-8.533-8.533s3.823-8.533,8.533-8.533h17.067    C192.444,221.867,196.267,225.69,196.267,230.4z M273.067,324.267V358.4c0,4.71-3.823,8.533-8.533,8.533    c-4.71,0-8.533-3.823-8.533-8.533v-34.133c0-4.71,3.823-8.533,8.533-8.533C269.244,315.733,273.067,319.556,273.067,324.267z     M221.867,418.133c0,4.71-3.823,8.533-8.533,8.533H179.2c-4.71,0-8.533-3.823-8.533-8.533s3.823-8.533,8.533-8.533h34.133    C218.044,409.6,221.867,413.423,221.867,418.133z"/>
	</g>
</g>
<g>
</g>
<g>
</g>
<g>
</g>
<g>
</g>
<g>
</g>
<g>
</g>
<g>
</g>
<g>
</g>
<g>
</g>
<g>
</g>
<g>
</g>
<g>
</g>
<g>
</g>
<g>
</g>
<g>
</g>
</svg>
