<?xml version="1.0" encoding="iso-8859-1"?>
<!-- Generator: Adobe Illustrator 19.0.0, SVG Export Plug-In . SVG Version: 6.00 Build 0)  -->
<svg xmlns="http://www.w3.org/2000/svg" xmlns:xlink="http://www.w3.org/1999/xlink" version="1.1" id="Capa_1" x="0px" y="0px" viewBox="0 0 512 512" style="enable-background:new 0 0 512 512;" xml:space="preserve">
<g>
	<g>
		<g>
			<path d="M349.867,51.2c-9.412,0-17.067-7.654-17.067-17.067c0-9.412,7.654-17.067,17.067-17.067c4.719,0,8.533-3.823,8.533-8.533     S354.586,0,349.867,0H162.133c-4.719,0-8.533,3.823-8.533,8.533s3.814,8.533,8.533,8.533c9.412,0,17.067,7.654,17.067,17.067     c0,9.412-7.654,17.067-17.067,17.067c-4.719,0-8.533,3.823-8.533,8.533s3.814,8.533,8.533,8.533h13.286     c-2.944,5.043-4.753,10.82-4.753,17.067c0,17.647,13.508,32.034,30.703,33.784l11.068,22.135c0.154,0.316,0.29,0.64,0.41,0.973     C225.451,177.903,266.01,204.8,307.2,204.8h8.533v-86.545c14.686-3.814,25.6-17.067,25.6-32.922     c0-6.246-1.809-12.023-4.753-17.067h13.286c4.719,0,8.533-3.823,8.533-8.533S354.586,51.2,349.867,51.2z M204.8,102.4     c-9.412,0-17.067-7.654-17.067-17.067c0-9.412,7.654-17.067,17.067-17.067s17.067,7.654,17.067,17.067     C221.867,94.746,214.212,102.4,204.8,102.4z M277.82,102.4H234.18c2.944-5.043,4.753-10.82,4.753-17.067     s-1.809-12.023-4.753-17.067h43.639c-2.944,5.043-4.753,10.82-4.753,17.067S274.876,97.357,277.82,102.4z M307.2,102.4     c-9.412,0-17.067-7.654-17.067-17.067c0-9.412,7.654-17.067,17.067-17.067c9.412,0,17.067,7.654,17.067,17.067     C324.267,94.746,316.612,102.4,307.2,102.4z"/>
			<path d="M349.867,460.8h-8.533v-42.667c0-4.71-3.814-8.533-8.533-8.533h-17.067v-85.333H307.2     c-48.666,0-94.942-30.857-110.268-73.446l-0.666-1.331v64.23l16.171,32.333c0.154,0.316,0.29,0.64,0.41,0.973     C225.451,382.703,266.01,409.6,307.2,409.6h-61.653c-22.383-13.141-40.192-32.964-48.614-56.38l-0.666-1.331V409.6H179.2     c-4.719,0-8.533,3.823-8.533,8.533V460.8h-8.533c-4.719,0-8.533,3.823-8.533,8.533v34.133c0,4.71,3.814,8.533,8.533,8.533     h187.733c4.719,0,8.533-3.823,8.533-8.533v-34.133C358.4,464.623,354.586,460.8,349.867,460.8z M324.267,460.8H187.733v-34.133     H204.8h102.4h17.067V460.8z"/>
			<path d="M212.85,244.625c12.604,35.678,53.154,62.575,94.353,62.575h8.533v-85.333h-8.533     c-48.666,0-94.942-30.857-110.268-73.446l-0.666-1.331v64.23l16.162,32.333C212.594,243.968,212.722,244.292,212.85,244.625z"/>
		</g>
	</g>
</g>
<g>
</g>
<g>
</g>
<g>
</g>
<g>
</g>
<g>
</g>
<g>
</g>
<g>
</g>
<g>
</g>
<g>
</g>
<g>
</g>
<g>
</g>
<g>
</g>
<g>
</g>
<g>
</g>
<g>
</g>
</svg>
