<?xml version="1.0" encoding="iso-8859-1"?>
<!-- Generator: Adobe Illustrator 19.0.0, SVG Export Plug-In . SVG Version: 6.00 Build 0)  -->
<svg xmlns="http://www.w3.org/2000/svg" xmlns:xlink="http://www.w3.org/1999/xlink" version="1.1" id="Capa_1" x="0px" y="0px" viewBox="0 0 512 512" style="enable-background:new 0 0 512 512;" xml:space="preserve">
<g>
	<g>
		<g>
			<path d="M196.267,256c28.237,0,51.2-19.14,51.2-42.667c0-23.526-22.963-42.667-51.2-42.667V256z"/>
			<path d="M255.998,139.827c-5.82,9.182-14.336,16.896-24.602,22.306c10.266,5.41,18.782,13.124,24.602,22.306     c5.828-9.182,14.345-16.896,24.602-22.306C270.343,156.723,261.827,149.009,255.998,139.827z"/>
			<path d="M315.733,170.667c-28.237,0-51.2,19.14-51.2,42.667c0,23.526,22.963,42.667,51.2,42.667V170.667z"/>
			<path d="M231.4,264.533c10.257,5.41,18.773,13.124,24.602,22.306c5.82-9.182,14.336-16.896,24.602-22.306     c-10.266-5.41-18.782-13.124-24.602-22.306C250.173,251.409,241.657,259.123,231.4,264.533z"/>
			<path d="M196.267,358.4c28.237,0,51.2-19.14,51.2-42.667c0-23.526-22.963-42.667-51.2-42.667V358.4z"/>
			<path d="M256,389.238c5.828-9.182,14.345-16.887,24.602-22.306c-10.257-5.41-18.773-13.116-24.602-22.306     c-5.828,9.19-14.345,16.896-24.602,22.306C241.655,372.35,250.172,380.056,256,389.238z"/>
			<path d="M315.733,273.067c-28.237,0-51.2,19.14-51.2,42.667c0,23.526,22.963,42.667,51.2,42.667V273.067z"/>
			<path d="M171.11,62.43c0.785,2.355,2.56,4.105,4.727,5.052c-3.217,5.214-5.171,11.29-5.171,17.852     c0,15.855,10.914,29.107,25.6,32.922V153.6c28.237,0,51.2-27.674,51.2-51.2H234.18c2.944-5.043,4.753-10.82,4.753-17.067     s-1.809-12.023-4.753-17.067h43.639c-2.944,5.043-4.753,10.82-4.753,17.067s1.809,12.023,4.753,17.067h-13.286     c0,23.526,22.963,51.2,51.2,51.2v-35.345c14.686-3.814,25.6-17.067,25.6-32.922c0-6.562-1.954-12.638-5.171-17.852     c2.167-0.947,3.942-2.697,4.727-5.052l17.067-51.2c0.879-2.603,0.435-5.461-1.161-7.68c-1.613-2.236-4.19-3.55-6.929-3.55     H162.133c-2.739,0-5.316,1.314-6.929,3.55c-1.596,2.219-2.039,5.077-1.161,7.68L171.11,62.43z M307.2,68.267     c9.412,0,17.067,7.654,17.067,17.067c0,9.412-7.654,17.067-17.067,17.067c-9.412,0-17.067-7.654-17.067-17.067     C290.133,75.921,297.788,68.267,307.2,68.267z M204.8,68.267c9.412,0,17.067,7.654,17.067,17.067     c0,9.412-7.654,17.067-17.067,17.067s-17.067-7.654-17.067-17.067C187.733,75.921,195.388,68.267,204.8,68.267z"/>
			<path d="M340.89,449.57c-1.161-3.49-4.412-5.837-8.09-5.837V435.2c0-11.11-7.159-20.489-17.067-24.03v-35.703     c-24.721,0-45.406,14.686-50.167,34.133h-19.132c-4.762-19.447-25.446-34.133-50.167-34.133v35.703     c-9.907,3.541-17.067,12.919-17.067,24.03v8.533c-3.678,0-6.938,2.347-8.09,5.837l-17.067,51.2     c-0.879,2.603-0.435,5.461,1.161,7.68c1.613,2.236,4.19,3.55,6.929,3.55h187.733c2.739,0,5.316-1.314,6.929-3.55     c1.596-2.219,2.039-5.077,1.161-7.68L340.89,449.57z M315.733,443.733H196.267V435.2c0-4.702,3.823-8.533,8.533-8.533H256h51.2     c4.71,0,8.533,3.831,8.533,8.533V443.733z"/>
		</g>
	</g>
</g>
<g>
</g>
<g>
</g>
<g>
</g>
<g>
</g>
<g>
</g>
<g>
</g>
<g>
</g>
<g>
</g>
<g>
</g>
<g>
</g>
<g>
</g>
<g>
</g>
<g>
</g>
<g>
</g>
<g>
</g>
</svg>
