<?xml version="1.0" encoding="iso-8859-1"?>
<!-- Generator: Adobe Illustrator 19.0.0, SVG Export Plug-In . SVG Version: 6.00 Build 0)  -->
<svg xmlns="http://www.w3.org/2000/svg" xmlns:xlink="http://www.w3.org/1999/xlink" version="1.1" id="Capa_1" x="0px" y="0px" viewBox="0 0 512 512" style="enable-background:new 0 0 512 512;" xml:space="preserve">
<g>
	<g>
		<g>
			<path d="M349.867,100.83c9.907-3.541,17.067-12.919,17.067-24.03V66.697C376.841,63.155,384,53.777,384,42.667V25.6     C384,11.486,372.514,0,358.4,0H153.6C139.486,0,128,11.486,128,25.6v17.067c0,11.11,7.159,20.489,17.067,24.021V76.8     c0,11.11,7.159,20.489,17.067,24.021V153.6H204.8c14.114,0,25.6-11.486,25.6-25.6s-11.486-25.6-25.6-25.6h33.92     c5.41,7.151,8.747,15.957,8.747,25.6c0,20.326-14.319,37.325-33.382,41.583c3.55,19.968,20.941,35.217,41.916,35.217     c32.93,0,59.733,26.795,59.733,59.733c0,4.71-3.814,8.533-8.533,8.533s-8.533-3.823-8.533-8.533     c0-23.526-19.14-42.667-42.667-42.667c-30.037,0-54.895-22.298-59.051-51.2h-34.816v122.462c0.956,0,1.929,0.068,2.884,0.41     c21.077,7.458,35.968,26.078,39.108,47.795h0.674c23.526,0,42.667,19.14,42.667,42.667c0,9.643-3.337,18.449-8.747,25.6H204.8     c14.114,0,25.6-11.486,25.6-25.6s-11.486-25.6-25.6-25.6h-42.667v52.77c-9.907,3.541-17.067,12.919-17.067,24.03v10.103     C135.16,448.845,128,458.223,128,469.333V486.4c0,14.114,11.486,25.6,25.6,25.6h204.8c14.114,0,25.6-11.486,25.6-25.6v-17.067     c0-11.11-7.159-20.489-17.067-24.03V435.2c0-11.11-7.159-20.489-17.067-24.03V358.4H307.2c-14.114,0-25.6,11.486-25.6,25.6     s11.486,25.6,25.6,25.6h-33.92c-5.41-7.151-8.747-15.957-8.747-25.6c0-20.326,14.319-37.325,33.382-41.583     C294.366,322.449,276.975,307.2,256,307.2c-32.93,0-59.733-26.795-59.733-59.733c0-4.71,3.814-8.533,8.533-8.533     s8.533,3.823,8.533,8.533c0,23.526,19.14,42.667,42.667,42.667c30.037,0,54.895,22.298,59.051,51.2h34.816V218.957     c-0.939,0-1.911-0.162-2.85-0.495c-21.077-7.458-35.968-26.078-39.117-47.795h-0.7c-23.526,0-42.667-19.14-42.667-42.667     c0-9.643,3.337-18.449,8.747-25.6h33.92c-14.114,0-25.6,11.486-25.6,25.6s11.486,25.6,25.6,25.6h42.667V100.83z M307.2,426.667     h34.133c4.71,0,8.533,3.831,8.533,8.533v8.533H162.133V435.2c0-4.702,3.823-8.533,8.533-8.533H204.8H307.2z M341.333,85.333     H307.2H204.8h-34.133c-4.71,0-8.533-3.831-8.533-8.533v-8.533h187.733V76.8C349.867,81.502,346.044,85.333,341.333,85.333z"/>
			<path d="M349.867,201.104v-30.438h-24.602C328.021,184.106,337.126,195.506,349.867,201.104z"/>
			<path d="M162.133,310.883v30.447h24.636C184.004,327.881,174.891,316.472,162.133,310.883z"/>
		</g>
	</g>
</g>
<g>
</g>
<g>
</g>
<g>
</g>
<g>
</g>
<g>
</g>
<g>
</g>
<g>
</g>
<g>
</g>
<g>
</g>
<g>
</g>
<g>
</g>
<g>
</g>
<g>
</g>
<g>
</g>
<g>
</g>
</svg>
