<?xml version="1.0" encoding="iso-8859-1"?>
<!-- Generator: Adobe Illustrator 19.0.0, SVG Export Plug-In . SVG Version: 6.00 Build 0)  -->
<svg xmlns="http://www.w3.org/2000/svg" xmlns:xlink="http://www.w3.org/1999/xlink" version="1.1" id="Capa_1" x="0px" y="0px" viewBox="0 0 512 512" style="enable-background:new 0 0 512 512;" xml:space="preserve">
<g>
	<g>
		<path d="M384,76.8V66.697c9.907-3.541,17.067-12.919,17.067-24.03V25.6c0-14.114-11.486-25.6-25.6-25.6H136.533    c-14.114,0-25.6,11.486-25.6,25.6v17.067c0,11.11,7.159,20.489,17.067,24.021V76.8c0,11.11,7.159,20.489,17.067,24.021V411.17    C135.159,414.711,128,424.09,128,435.2v10.103c-9.907,3.541-17.067,12.919-17.067,24.03V486.4c0,14.114,11.486,25.6,25.6,25.6    h238.933c14.114,0,25.6-11.486,25.6-25.6v-17.067c0-11.11-7.159-20.489-17.067-24.03V435.2c0-11.11-7.159-20.489-17.067-24.03    V100.83C376.841,97.289,384,87.91,384,76.8z M366.933,443.733H145.067V435.2c0-4.702,3.823-8.533,8.533-8.533h204.8    c4.71,0,8.533,3.831,8.533,8.533V443.733z M187.733,358.4c4.719,0,8.533,3.823,8.533,8.533c0,4.702,3.823,8.533,8.533,8.533    s8.533-3.831,8.533-8.533V145.067c0-14.114,11.486-25.6,25.6-25.6c14.114,0,25.6,11.486,25.6,25.6c0,4.71-3.814,8.533-8.533,8.533    s-8.533-3.823-8.533-8.533c0-4.702-3.823-8.533-8.533-8.533c-4.71,0-8.533,3.831-8.533,8.533v221.867    c0,14.114-11.486,25.6-25.6,25.6s-25.6-11.486-25.6-25.6C179.2,362.223,183.014,358.4,187.733,358.4z M179.2,315.733V196.267    c0-4.71,3.814-8.533,8.533-8.533s8.533,3.823,8.533,8.533v119.467c0,4.71-3.814,8.533-8.533,8.533S179.2,320.444,179.2,315.733z     M324.267,153.6c-4.719,0-8.533-3.823-8.533-8.533c0-4.702-3.823-8.533-8.533-8.533s-8.533,3.831-8.533,8.533v221.867    c0,14.114-11.486,25.6-25.6,25.6s-25.6-11.486-25.6-25.6c0-4.71,3.814-8.533,8.533-8.533s8.533,3.823,8.533,8.533    c0,4.702,3.823,8.533,8.533,8.533s8.533-3.831,8.533-8.533V145.067c0-14.114,11.486-25.6,25.6-25.6s25.6,11.486,25.6,25.6    C332.8,149.777,328.986,153.6,324.267,153.6z M332.8,196.267v119.467c0,4.71-3.814,8.533-8.533,8.533s-8.533-3.823-8.533-8.533    V196.267c0-4.71,3.814-8.533,8.533-8.533S332.8,191.556,332.8,196.267z M247.467,315.733V196.267c0-4.71,3.814-8.533,8.533-8.533    s8.533,3.823,8.533,8.533v119.467c0,4.71-3.814,8.533-8.533,8.533S247.467,320.444,247.467,315.733z M358.4,85.333H153.6    c-4.71,0-8.533-3.831-8.533-8.533v-8.533h221.867V76.8C366.933,81.502,363.11,85.333,358.4,85.333z"/>
	</g>
</g>
<g>
</g>
<g>
</g>
<g>
</g>
<g>
</g>
<g>
</g>
<g>
</g>
<g>
</g>
<g>
</g>
<g>
</g>
<g>
</g>
<g>
</g>
<g>
</g>
<g>
</g>
<g>
</g>
<g>
</g>
</svg>
