<?xml version="1.0" encoding="iso-8859-1"?>
<!-- Generator: Adobe Illustrator 19.0.0, SVG Export Plug-In . SVG Version: 6.00 Build 0)  -->
<svg xmlns="http://www.w3.org/2000/svg" xmlns:xlink="http://www.w3.org/1999/xlink" version="1.1" id="Capa_1" x="0px" y="0px" viewBox="0 0 512.853 512.853" style="enable-background:new 0 0 512.853 512.853;" xml:space="preserve">
<g>
	<g>
		<path d="M494.613,133.12l-3.413-7.68c-3.413-5.973-5.973-11.947-9.387-17.92c-3.413-7.68-7.68-15.36-11.093-23.04    c-3.413-6.827-6.827-14.507-10.24-21.333c-2.56-4.267-4.267-9.387-6.827-13.653c-1.707-2.56-3.413-5.12-5.973-5.973    s-5.973,0-9.387,0h-5.12h-14.507h-18.773H376h-25.6h-26.453H296.64h-26.453H245.44h-22.187h-17.92h-14.507h-8.533h-2.56V25.6    c0-2.56-1.707-5.12-3.413-6.827l-25.6-17.067C149.013,0.853,147.307,0,145.6,0h-34.133c-1.707,0-3.413,0.853-5.12,1.707    l-25.6,17.067c-1.707,1.707-3.413,4.267-3.413,6.827v17.067h-25.6c-5.12,0-8.533,3.413-8.533,8.533v85.333    c0,5.12,3.413,8.533,8.533,8.533h25.6v349.867h-51.2c-5.12,0-8.533,3.413-8.533,8.533S21.013,512,26.133,512h59.733H171.2h59.733    c5.12,0,8.533-3.413,8.533-8.533s-3.413-8.533-8.533-8.533h-51.2V145.067H376v51.2c0,5.12,3.413,8.533,8.533,8.533    c9.387,0,17.067,7.68,17.067,17.067c0,9.387-7.68,17.067-17.067,17.067s-17.067-7.68-17.067-17.067    c0-5.12-3.413-8.533-8.533-8.533c-5.12,0-8.533,3.413-8.533,8.533c0,11.947,5.973,22.187,16.213,29.013l-55.467,40.96    c-2.56,2.56-4.267,5.973-2.56,9.387c0.853,3.413,4.267,5.973,7.68,5.973H452.8c3.413,0,6.827-2.56,7.68-5.973s0-7.68-2.56-9.387    l-54.613-40.96c9.387-5.973,15.36-16.213,15.36-29.013c0-16.213-11.093-29.013-25.6-33.28v-43.52h93.867    c2.56,0,5.973-1.707,7.68-4.267C495.467,138.24,495.467,135.68,494.613,133.12z M94.4,50.347L114.027,64L94.4,77.653V50.347z     M94.4,136.533V110.08l19.627,13.653L94.4,137.387V136.533z M94.4,170.667l20.48,16.213L94.4,203.947V170.667z M94.4,238.933    l20.48,16.213L94.4,272.213V238.933z M94.4,307.2l20.48,16.213L94.4,340.48V307.2z M94.4,375.467l20.48,16.213L94.4,408.747    V375.467z M94.4,446.293l21.333,18.773L94.4,484.693V446.293z M108.053,494.933l20.48-18.773l20.48,18.773H108.053z     M162.667,483.84l-21.333-18.773l21.333-19.627V483.84z M162.667,408.747l-20.48-16.213l20.48-16.213V408.747z M162.667,340.48    l-20.48-16.213l20.48-16.213V340.48z M162.667,272.213L142.187,256l20.48-16.213V272.213z M162.667,203.947l-20.48-16.213    l20.48-16.213V203.947z M162.667,136.533l-19.627-12.8l19.627-13.653V136.533z M162.667,77.653L143.04,64l19.627-12.8V77.653z     M197.653,128l16.213-20.48L230.08,128H197.653z M213.867,80.213l-16.213-20.48h32.427L213.867,80.213z M265.92,128l16.213-20.48    L298.347,128H265.92z M282.133,80.213l-16.213-20.48h32.427L282.133,80.213z M366.613,59.733L350.4,80.213l-16.213-20.48H366.613z     M334.187,128l16.213-20.48L366.613,128H334.187z M400.747,128l13.653-19.627L428.053,128H400.747z M414.4,79.36l-13.653-19.627    h27.307L414.4,79.36z"/>
	</g>
</g>
<g>
	<g>
		<path d="M469.867,501.76l-8.533-34.133c-0.853-3.413-4.267-6.827-8.533-6.827h-8.533v-128c0-5.12-3.413-8.533-8.533-8.533h-25.6    V460.8h-17.067V324.267H376V460.8h-17.067V324.267h-25.6c-5.12,0-8.533,3.413-8.533,8.533v128h-8.533    c-4.267,0-7.68,2.56-8.533,6.827L299.2,501.76c-0.853,2.56,0,5.12,1.707,7.68c1.707,1.707,4.267,3.413,6.827,3.413h153.6    c2.56,0,5.12-0.853,6.827-3.413C469.867,507.733,470.72,504.32,469.867,501.76z M318.827,494.933l4.267-17.067h10.24h34.133H401.6    h34.133h10.24l4.267,17.067H318.827z"/>
	</g>
</g>
<g>
</g>
<g>
</g>
<g>
</g>
<g>
</g>
<g>
</g>
<g>
</g>
<g>
</g>
<g>
</g>
<g>
</g>
<g>
</g>
<g>
</g>
<g>
</g>
<g>
</g>
<g>
</g>
<g>
</g>
</svg>
