<?xml version="1.0" encoding="iso-8859-1"?>
<!-- Generator: Adobe Illustrator 19.0.0, SVG Export Plug-In . SVG Version: 6.00 Build 0)  -->
<svg xmlns="http://www.w3.org/2000/svg" xmlns:xlink="http://www.w3.org/1999/xlink" version="1.1" id="Capa_1" x="0px" y="0px" viewBox="0 0 512 512" style="enable-background:new 0 0 512 512;" xml:space="preserve">
<g>
	<g>
		<path d="M499.942,325.973L394.129,250.88c9.387-5.973,15.36-16.213,15.36-28.16c0-16.213-11.093-29.013-25.6-33.28v-44.373h93.867    c2.56,0,5.973-1.707,7.68-4.267c1.707-2.56,1.707-5.973,0-8.533c-7.68-15.36-15.36-30.72-23.04-46.933    c-4.267-8.533-8.533-16.213-11.947-24.747c-4.267-6.827-6.827-17.92-17.92-17.92c-4.267,0-8.533,0-11.947,0h-47.787h-65.707    h-66.56h-51.2h-18.773V25.6c0-2.56-1.707-5.12-3.413-6.827l-25.6-17.067C139.836,0.853,138.129,0,136.422,0h-34.133    c-1.707,0-3.413,0.853-5.12,1.707l-25.6,17.067c-1.707,1.707-3.413,4.267-3.413,6.827v17.067h-25.6    c-5.12,0-8.533,3.413-8.533,8.533v85.333c0,5.12,3.413,8.533,8.533,8.533h25.6v349.867h-51.2c-5.12,0-8.533,3.413-8.533,8.533    S11.836,512,16.956,512h59.733h85.333h51.2c5.12,0,8.533-3.413,8.533-8.533s-3.413-8.533-8.533-8.533h-42.667V145.067h196.267    v51.2c0,5.12,3.413,8.533,8.533,8.533c9.387,0,17.067,7.68,17.067,17.067c0,9.387-7.68,17.067-17.067,17.067    s-17.067-7.68-17.067-17.067c0-5.12-3.413-8.533-8.533-8.533c-5.12,0-8.533,3.413-8.533,8.533c0,11.947,5.973,22.187,15.36,28.16    L250.769,325.12c-3.413,2.56-4.267,5.973-3.413,9.387s4.267,5.973,8.533,5.973h238.933c3.413,0,6.827-2.56,8.533-5.973    C504.209,331.947,502.502,327.68,499.942,325.973z M418.876,59.733L405.222,79.36l-13.653-19.627H418.876z M405.222,108.373    L418.876,128h-27.307L405.222,108.373z M85.222,50.347L104.849,64L85.222,77.653V50.347z M85.222,136.533V110.08l19.627,13.653    l-19.627,13.653V136.533z M85.222,170.667l20.48,16.213l-20.48,17.067V170.667z M85.222,238.933l20.48,16.213l-20.48,17.067    V238.933z M85.222,307.2l20.48,16.213l-20.48,17.067V307.2z M85.222,375.467l20.48,16.213l-20.48,17.067V375.467z M85.222,484.693    v-38.4l21.333,18.773L85.222,484.693z M153.489,483.84l-21.333-18.773l21.333-19.627V483.84z M153.489,408.747l-20.48-16.213    l20.48-16.213V408.747z M153.489,340.48l-20.48-16.213l20.48-16.213V340.48z M153.489,272.213L133.009,256l20.48-16.213V272.213z     M153.489,203.947l-20.48-16.213l20.48-16.213V203.947z M153.489,136.533l-19.627-12.8l19.627-13.653V136.533z M153.489,77.653    L133.862,64l19.627-12.8V77.653z M188.476,128l16.213-20.48L220.902,128H188.476z M204.689,80.213l-16.213-20.48h32.427    L204.689,80.213z M256.742,128l16.213-20.48L289.169,128H256.742z M272.956,80.213l-16.213-20.48h32.427L272.956,80.213z     M357.436,59.733l-16.213,20.48l-16.213-20.48H357.436z M325.009,128l16.213-20.48L357.436,128H325.009z"/>
	</g>
</g>
<g>
	<g>
		<path d="M469.222,358.4H281.489c-5.12,0-8.533,3.413-8.533,8.533v136.533c0,5.12,3.413,8.533,8.533,8.533h68.267v-59.733    c0-5.12,3.413-8.533,8.533-8.533h34.133c5.12,0,8.533,3.413,8.533,8.533V512h68.267c5.12,0,8.533-3.413,8.533-8.533V366.933    C477.756,361.813,474.342,358.4,469.222,358.4z"/>
	</g>
</g>
<g>
	<g>
		<rect x="366.822" y="460.8" width="17.067" height="51.2"/>
	</g>
</g>
<g>
</g>
<g>
</g>
<g>
</g>
<g>
</g>
<g>
</g>
<g>
</g>
<g>
</g>
<g>
</g>
<g>
</g>
<g>
</g>
<g>
</g>
<g>
</g>
<g>
</g>
<g>
</g>
<g>
</g>
</svg>
