<?xml version="1.0" encoding="iso-8859-1"?>
<!-- Generator: Adobe Illustrator 18.0.0, SVG Export Plug-In . SVG Version: 6.00 Build 0)  -->
<!DOCTYPE svg PUBLIC "-//W3C//DTD SVG 1.1//EN" "http://www.w3.org/Graphics/SVG/1.1/DTD/svg11.dtd">
<svg version="1.1" id="Capa_1" xmlns="http://www.w3.org/2000/svg" xmlns:xlink="http://www.w3.org/1999/xlink" x="0px" y="0px"
	 viewBox="0 0 460.241 460.241" style="enable-background:new 0 0 460.241 460.241;" xml:space="preserve">
<g id="XMLID_455_">
	<circle id="XMLID_460_" cx="355.221" cy="38.041" r="37.866"/>
	<path id="XMLID_802_" d="M443.928,296.381h-3.187v-16.493c4.53-3.422,7.31-8.807,7.281-14.663l-0.674-134.228
		c-0.12-23.721-19.516-43.02-43.237-43.02h-19.243c-2.393,6.253-19.566,52.464-22.133,59.171l5.34-25.155
		c0.375-1.766,0.103-3.609-0.767-5.191l-7.333-13.337l6.519-11.554c0.452-0.822,0.436-1.822-0.041-2.63
		c-0.478-0.808-1.346-1.303-2.285-1.303h-17.893c-0.938,0-1.807,0.495-2.285,1.303c-0.478,0.808-0.493,1.808-0.041,2.63
		l6.519,11.554l-7.36,13.387c-0.854,1.552-1.132,3.356-0.787,5.094l4.669,25.203c-2.332-5.98-18.881-52.673-21.415-59.171h-19.55
		c-23.722,0-43.118,19.299-43.237,43.02l-0.674,134.228c-0.051,10.09,8.088,18.312,18.179,18.362c0.031,0,0.063,0,0.094,0
		c10.047,0,18.218-8.12,18.269-18.179l0.674-134.228c0.01-1.946,1.592-3.516,3.537-3.511c1.945,0.005,3.518,1.583,3.518,3.528
		l0.009,307.119c0,12.109,9.816,21.925,21.925,21.925s21.925-9.816,21.925-21.925V267.802c0-2.614,2.119-4.733,4.733-4.733
		c2.614,0,4.733,2.119,4.733,4.733v170.514c0,12.109,9.816,21.925,21.925,21.925s21.925-9.816,21.925-21.925v-37.345
		c-8.744-4.617-14.72-13.8-14.72-24.356V303.91c0-10.557,5.976-19.739,14.72-24.356c0-34.255-0.386,0.76-0.397-148.298
		c0-2.097,1.689-3.803,3.786-3.824s3.82,1.651,3.861,3.749l0.674,134.228c0.031,6.233,3.257,11.771,7.975,14.997v15.976h-3.089
		c-4.158,0-7.529,3.371-7.529,7.529v72.705c0,4.158,3.371,7.529,7.529,7.529h27.561c4.158,0,7.529-3.371,7.529-7.529V303.91
		C451.457,299.752,448.086,296.381,443.928,296.381z"/>
	<circle id="XMLID_803_" cx="130.14" cy="37.881" r="37.881"/>
	<path id="XMLID_804_" d="M204.065,125.024c-7.486-21.783-20.202-37.188-43.146-37.188c-2.311,6.037-20.374,53.227-23.019,60.138
		l5.34-25.155c0.375-1.766,0.103-3.609-0.767-5.191l-7.333-13.337l6.273-12.521c0.452-0.822,0.436-1.822-0.041-2.63
		c-0.478-0.808-1.346-1.303-2.285-1.303h-17.893c-0.938,0-1.807,0.495-2.285,1.303c-0.478,0.808-0.493,1.808-0.041,2.63
		l6.766,12.521l-7.36,13.387c-0.854,1.552-1.132,3.356-0.787,5.094l4.669,25.203c-2.419-6.203-19.997-52.971-22.792-60.138
		c-22.94,0-35.659,15.395-43.148,37.188C43.072,163.267,13.228,244.919,12.928,245.74c-2.876,7.865,0.002,16.415,6.475,21.084
		c0,15.344,0,12.952,0,29.383h-3.089c-4.158,0-7.529,3.371-7.529,7.529v72.705c0,4.158,3.371,7.529,7.529,7.529h27.561
		c4.158,0,7.529-3.371,7.529-7.529v-72.705c0-4.158-3.371-7.529-7.529-7.529h-3.187c0-10.558,0-18.788,0-29.305
		c2.911-2.068,5.253-5.002,6.572-8.609c0.255-0.696,21.686-59.331,36.324-100.771c-0.948,7.75,1.854-7.503-23.599,123.913
		c6.911,5.006,11.418,13.135,11.418,22.302v1.99c3.057,0,6.457,0,10.135,0v132.582c0,12.113,9.82,21.933,21.933,21.933
		s21.933-9.82,21.933-21.933V305.726c3.153,0,6.317,0,9.47,0v132.582c0,12.113,9.82,21.933,21.933,21.933s21.933-9.82,21.933-21.933
		V305.726c5.288,0,10.011,0,13.947,0c3.033,0,5.907-1.356,7.836-3.697c1.929-2.341,2.709-5.421,2.132-8.399
		c-28.041-144.775-25-128.257-25.961-136.109c14.638,41.44,36.07,100.075,36.324,100.771c3.467,9.482,13.964,14.356,23.442,10.89
		c9.48-3.466,14.356-13.962,10.89-23.442C247.052,244.919,217.208,163.27,204.065,125.024z"/>
</g>
<g>
</g>
<g>
</g>
<g>
</g>
<g>
</g>
<g>
</g>
<g>
</g>
<g>
</g>
<g>
</g>
<g>
</g>
<g>
</g>
<g>
</g>
<g>
</g>
<g>
</g>
<g>
</g>
<g>
</g>
</svg>
