<?xml version="1.0" encoding="iso-8859-1"?>
<!-- Generator: Adobe Illustrator 18.0.0, SVG Export Plug-In . SVG Version: 6.00 Build 0)  -->
<!DOCTYPE svg PUBLIC "-//W3C//DTD SVG 1.1//EN" "http://www.w3.org/Graphics/SVG/1.1/DTD/svg11.dtd">
<svg version="1.1" id="Capa_1" xmlns="http://www.w3.org/2000/svg" xmlns:xlink="http://www.w3.org/1999/xlink" x="0px" y="0px"
	 viewBox="0 0 460.127 460.127" style="enable-background:new 0 0 460.127 460.127;" xml:space="preserve">
<g id="XMLID_30_">
	<path id="XMLID_224_" d="M431.467,70.754h-50.881c-5.522,0-10,4.477-10,10s4.478,10,10,10h50.881c5.522,0,10-4.477,10-10
		S436.989,70.754,431.467,70.754z"/>
	<path id="XMLID_1056_" d="M380.586,55.978c2.559,0,5.118-0.977,7.071-2.929l35.979-35.978c3.905-3.905,3.905-10.237,0-14.142
		c-3.904-3.905-10.234-3.905-14.143,0l-35.979,35.978c-3.905,3.905-3.905,10.237,0,14.142
		C375.468,55.002,378.027,55.978,380.586,55.978z"/>
	<circle id="XMLID_1057_" cx="317.01" cy="65.083" r="35.062"/>
	<path id="XMLID_1058_" d="M402.313,155.268c-0.111-21.964-18.07-39.833-40.034-39.833c-14.657,0-63.75,0-78.19,0l-37.046-4.331
		l19.942-23.959c5.977-7.181,5.001-17.848-2.181-23.825c-7.18-5.978-17.848-5.001-23.825,2.18l-39.918,47.958
		c-3.971,4.771-5.01,11.335-2.707,17.1c2.304,5.765,7.579,9.805,13.745,10.526l59.691,6.979l0.008,291.764
		c0,11.212,9.089,20.301,20.301,20.301s20.301-9.089,20.301-20.301V281.942c0-2.421,1.962-4.383,4.383-4.383
		s4.383,1.962,4.383,4.383v157.884c0,11.212,9.089,20.301,20.301,20.301s20.301-9.089,20.301-20.301l-0.36-284.227
		c-0.002-1.924,1.533-3.497,3.457-3.542c1.924-0.044,3.531,1.457,3.616,3.379c0,0.001,0,0.002,0,0.002l0.624,124.286
		c0.047,9.314,7.611,16.833,16.915,16.833c0.028,0,0.059,0,0.087,0c9.343-0.047,16.879-7.659,16.832-17.002L402.313,155.268z"/>
	<circle id="XMLID_1067_" cx="105.705" cy="65.422" r="35.4"/>
	<path id="XMLID_1068_" d="M191.832,152.325c-0.111-22.177-18.244-40.219-40.421-40.219h-17.507l-21.174,55.318l4.992-23.517
		c0.351-1.651,0.096-3.374-0.718-4.853l-6.855-12.469l6.095-11.085c0.423-0.769,0.408-1.704-0.039-2.458
		c-0.447-0.755-1.259-1.218-2.136-1.218H97.341c-0.877,0-1.689,0.463-2.136,1.218c-0.447,0.755-0.461,1.69-0.038,2.458l6.095,11.085
		L94.381,139.1c-0.798,1.451-1.059,3.137-0.736,4.762l4.365,23.562l-20.955-55.318H59.712c-22.177,0-40.31,18.042-40.421,40.219
		l-0.63,125.486c-0.048,9.433,7.561,17.119,16.995,17.166c0.029,0,0.058,0,0.088,0c9.393,0,17.031-7.591,17.078-16.995l0.63-125.486
		c0.01-1.819,1.489-3.287,3.307-3.282s3.289,1.48,3.289,3.299l0.008,287.116c0,11.32,9.177,20.497,20.497,20.497
		c11.32,0,20.497-9.177,20.497-20.497V280.221c0-2.444,1.981-4.425,4.425-4.425c2.444,0,4.425,1.981,4.425,4.425V439.63
		c0,11.32,9.177,20.497,20.497,20.497c11.32,0,20.497-9.177,20.497-20.497l-0.372-287.857c0-1.984,1.609-3.593,3.593-3.593
		c1.984,0,3.593,1.609,3.593,3.593c0,0.231-0.012,0.472-0.036,0.723l0.63,125.486c0.047,9.405,7.685,16.995,17.078,16.995
		c0.029,0,0.059,0,0.088,0c9.433-0.047,17.042-7.733,16.995-17.166L191.832,152.325z"/>
</g>
<g>
</g>
<g>
</g>
<g>
</g>
<g>
</g>
<g>
</g>
<g>
</g>
<g>
</g>
<g>
</g>
<g>
</g>
<g>
</g>
<g>
</g>
<g>
</g>
<g>
</g>
<g>
</g>
<g>
</g>
</svg>
