<?xml version="1.0" encoding="iso-8859-1"?>
<!-- Generator: Adobe Illustrator 19.0.0, SVG Export Plug-In . SVG Version: 6.00 Build 0)  -->
<svg version="1.1" id="Capa_1" xmlns="http://www.w3.org/2000/svg" xmlns:xlink="http://www.w3.org/1999/xlink" x="0px" y="0px"
	 viewBox="0 0 512 512" style="enable-background:new 0 0 512 512;" xml:space="preserve">
<g>
	<g>
		<path d="M170.987,39.639l0.004-0.002c7.5-3.501,10.752-12.422,7.251-19.937c-3.501-7.5-12.407-10.723-19.937-7.251L49.541,63.163
			c-7.5,3.501-10.752,12.422-7.251,19.937c2.549,5.448,7.954,8.656,13.608,8.656c2.12,0,4.272-0.458,6.319-1.404l12.684,27.198
			l108.768-50.72L170.987,39.639z"/>
	</g>
</g>
<g>
	<g>
		<path d="M27.001,227.045c-16.8,16.199-27.001,39-27.001,63.9c0,39,25.201,72.299,60,84.6v-9.599c0-14.401,4.501-28.5,12.299-40.8
			L27.001,227.045z"/>
	</g>
</g>
<g>
	<g>
		<path d="M437,440.946H75c-8.284,0-15,6.713-15,15v30c0,8.399,6.599,15,15,15h362c8.401,0,15-6.601,15-15v-30
			C452,447.66,445.284,440.946,437,440.946z"/>
	</g>
</g>
<g>
	<g>
		<path d="M471.501,200.343l-13.2-44.7L303.199,83.345l-40.8,18.001l-42.8-18.001L64.501,155.646l-13.2,44.699
			c-0.901,2.999-0.601,6.301,0.599,9.3h-0.3l51.901,111c0.042,0.095,0.002,0.203,0.042,0.3h75.551l-54.787-115.767
			c-2.856-6.006-4.307-12.495-4.307-19.233c0-25.226,20.608-45,45-45c19.133,0,35.369,12.451,41.724,30h98.238
			c4.539-12.609,14.255-22.919,27.037-27.437c24.771-8.745,54.038,7.646,59.165,33.75c0.83,0,2.363,14.08-2.622,25.986
			c-2.853,6.234-52.704,111.478-55.649,117.7h86.274l49.933-106.8C471.352,209.187,472.951,206.151,471.501,200.343z"/>
	</g>
</g>
<g>
	<g>
		<path d="M255,260.946c-25.224,0-45,20.409-45,45c0,25.236,20.598,45,45,45c24.452,0,47-19.815,47-45
			C302,281.132,279.814,260.946,255,260.946z M255,320.946c-8.284,0-15-6.716-15-15c0-8.286,6.716-15,15-15s17,6.714,17,15
			C272,314.23,263.284,320.946,255,320.946z"/>
	</g>
</g>
<g>
	<g>
		<path d="M304.764,200.946h-97.449c-5.558,15.691-18.222,27.324-37.963,29.257l19.488,41.177
			c14.157-27.111,40.152-40.434,66.16-40.434c28.819,0,55.604,16.522,68.158,40.426l19.351-40.88
			C324.978,228.721,310.488,216.997,304.764,200.946z"/>
	</g>
</g>
<g>
	<g>
		<path d="M347,170.946c-8.095,0-15,6.517-15,15c0,8.276,6.724,15,15,15c8.542,0,15-6.948,15-15
			C361.039,175.88,354.531,170.946,347,170.946z"/>
	</g>
</g>
<g>
	<g>
		<path d="M407,350.946h-90c-0.238,0-0.436-0.125-0.672-0.135c-14.013,18.428-37.682,30.135-61.328,30.135
			c-23.641,0-45.306-11.7-59.326-30.135c-0.236,0.011-0.434,0.135-0.674,0.135h-90c-8.284,0-15,6.713-15,15v45h332v-45
			C422,357.66,415.284,350.946,407,350.946z"/>
	</g>
</g>
<g>
	<g>
		<path d="M179.722,183.031c-1.377-7.002-7.559-12.085-14.722-12.085c-7.104,0-13.286,5.039-14.707,11.968
			c-2.359,11.977,9.424,20.917,19.688,17.183c9.208-3.262,8.891-9.165,10.642-17.244L179.722,183.031z"/>
	</g>
</g>
<g>
	<g>
		<path d="M492.201,234.846l-46.8,100.8c4.499,9.901,6.599,19.799,6.599,30.3v9.6c34.799-12.301,60-45.601,60-84.6
			C512,269.946,504.8,250.445,492.201,234.846z"/>
	</g>
</g>
<g>
	<g>
		<path d="M473.24,63.162L364.476,12.45c-7.471-3.442-16.406-0.22-19.937,7.251c-3.501,7.515-0.249,16.436,7.251,19.937l0.004,0.002
			l-12.68,27.188l108.77,50.715l12.68-27.191c7.676,3.55,16.491,0.094,19.927-7.253C483.992,75.584,480.74,66.663,473.24,63.162z"/>
	</g>
</g>
<g>
</g>
<g>
</g>
<g>
</g>
<g>
</g>
<g>
</g>
<g>
</g>
<g>
</g>
<g>
</g>
<g>
</g>
<g>
</g>
<g>
</g>
<g>
</g>
<g>
</g>
<g>
</g>
<g>
</g>
</svg>
