<?xml version="1.0" encoding="iso-8859-1"?>
<!-- Generator: Adobe Illustrator 19.0.0, SVG Export Plug-In . SVG Version: 6.00 Build 0)  -->
<svg version="1.1" id="Capa_1" xmlns="http://www.w3.org/2000/svg" xmlns:xlink="http://www.w3.org/1999/xlink" x="0px" y="0px"
	 viewBox="0 0 512 512" style="enable-background:new 0 0 512 512;" xml:space="preserve">
<g>
	<g>
		<path d="M128.291,228.582L210,187.72v-56.448l-68.291,34.146c-7.487,3.718-16.441,0.642-20.127-6.709
			c-3.706-7.412-0.703-16.421,6.709-20.127l80.815-40.408C204.675,61.017,173.329,32,135,32H75C36.667,32,5.319,61.019,0.892,98.18
			l80.817,40.402c7.412,3.706,10.415,12.715,6.709,20.127c-3.641,7.303-12.599,10.447-20.127,6.709L0,131.278v56.444l81.709,40.86
			c7.412,3.706,10.415,12.715,6.709,20.127c-3.686,7.351-12.64,10.427-20.127,6.709L0,221.269v56.453l81.709,40.86
			c7.412,3.706,10.415,12.715,6.709,20.127c-3.686,7.351-12.64,10.427-20.127,6.709L0,311.267v56.461l81.709,40.854
			c7.412,3.706,10.415,12.715,6.709,20.127c-3.686,7.351-12.64,10.427-20.127,6.709L0,401.272V437c0,41.353,33.647,75,75,75h60
			c41.353,0,75-33.647,75-75c0-20.053,0-15.669,0-35.722l-68.291,34.14c-7.528,3.738-16.486,0.594-20.127-6.709
			c-3.706-7.412-0.703-16.421,6.709-20.127L210,367.735v-56.462l-68.291,34.146c-7.487,3.718-16.441,0.642-20.127-6.709
			c-3.706-7.412-0.703-16.421,6.709-20.127L210,277.728v-56.461l-68.291,34.151c-7.487,3.718-16.441,0.642-20.127-6.709
			C117.876,241.297,120.879,232.288,128.291,228.582z"/>
	</g>
</g>
<g>
	<g>
		<path d="M467,212c-8.582,0-14.692,0-23.275,0c4.88-6.33,8.275-13.89,8.275-22.5c0-12.599-6.617-23.199-16.148-30
			c9.531-6.801,16.148-17.401,16.148-30c0-18.051-13.013-32.411-30-35.986V45c0-24.814-20.186-45-45-45c-24.814,0-45,20.186-45,45
			v48.514c-16.987,3.574-30,17.935-30,35.986c0,12.599,6.617,23.199,16.148,30c-9.531,6.801-16.148,17.401-16.148,30
			c0,8.61,3.395,16.17,8.275,22.5c-12.488,0-23.284,0-40.275,0v-15c0-24.213-11.836-45.57-30-59.7v269.4
			c17.999-13.799,30-35.4,30-59.7v-15h197c24.901,0,45-20.099,45-45v-30C512,232.099,491.901,212,467,212z"/>
	</g>
</g>
<g>
</g>
<g>
</g>
<g>
</g>
<g>
</g>
<g>
</g>
<g>
</g>
<g>
</g>
<g>
</g>
<g>
</g>
<g>
</g>
<g>
</g>
<g>
</g>
<g>
</g>
<g>
</g>
<g>
</g>
</svg>
