<?xml version="1.0" encoding="iso-8859-1"?>
<!-- Generator: Adobe Illustrator 19.0.0, SVG Export Plug-In . SVG Version: 6.00 Build 0)  -->
<svg version="1.1" id="Capa_1" xmlns="http://www.w3.org/2000/svg" xmlns:xlink="http://www.w3.org/1999/xlink" x="0px" y="0px"
	 viewBox="0 0 512 512" style="enable-background:new 0 0 512 512;" xml:space="preserve">
<g>
	<g>
		<path d="M256.983,181.775c-57.932,0-106.875,47.342-106.875,105.274s48.943,104.874,106.875,104.874
			s105.074-47.142,105.074-105.074S314.915,181.775,256.983,181.775z M256.983,362.102c-41.382,0-77.054-33.871-77.054-75.253
			s35.672-75.253,77.054-75.253c41.382,0,75.453,34.271,75.453,75.653C332.436,328.631,298.365,362.102,256.983,362.102z"/>
	</g>
</g>
<g>
	<g>
		<path d="M256.983,241.817c-24.832,0-46.833,20.4-46.833,45.232c0,24.831,22.002,44.832,46.833,44.832
			c24.831,0,45.032-20.2,45.032-45.032C302.015,262.017,281.816,241.817,256.983,241.817z"/>
	</g>
</g>
<g>
	<g>
		<path d="M450.787,196.697c-47.582-83.804-126.901-181.68-193.789-181.695c-66.888,0.015-148.164,97.833-195.732,181.593
			C17.275,274.052-19.02,374.743,11.002,425.096c31.633,53.02,148.78,71.902,245.967,71.902c97.232,0,212.406-18.895,244.025-71.902
			C531.014,374.758,494.749,274.111,450.787,196.697z M256.983,76.701c8.29,0,15.011,6.719,15.011,15.011
			c0,8.29-6.721,15.011-15.011,15.011c-8.29,0-15.011-6.721-15.011-15.011C241.972,83.42,248.694,76.701,256.983,76.701z
			 M74.855,406.934c-8.29,0-15.011-6.721-15.011-15.011c0-8.292,6.721-15.011,15.011-15.011s15.011,6.719,15.011,15.011
			C89.865,400.213,83.145,406.934,74.855,406.934z M256.983,422.144c-74.496,0-137.097-60.8-137.097-135.295
			s62.601-135.295,137.097-135.295s135.496,61.2,135.496,135.696S331.48,422.144,256.983,422.144z M437.11,406.934
			c-8.29,0-15.011-6.721-15.011-15.011c0-8.292,6.721-15.011,15.011-15.011c8.29,0,15.011,6.719,15.011,15.011
			C452.121,400.213,445.4,406.934,437.11,406.934z"/>
	</g>
</g>
<g>
</g>
<g>
</g>
<g>
</g>
<g>
</g>
<g>
</g>
<g>
</g>
<g>
</g>
<g>
</g>
<g>
</g>
<g>
</g>
<g>
</g>
<g>
</g>
<g>
</g>
<g>
</g>
<g>
</g>
</svg>
