<?xml version="1.0" encoding="iso-8859-1"?>
<!-- Generator: Adobe Illustrator 19.0.0, SVG Export Plug-In . SVG Version: 6.00 Build 0)  -->
<svg version="1.1" id="Capa_1" xmlns="http://www.w3.org/2000/svg" xmlns:xlink="http://www.w3.org/1999/xlink" x="0px" y="0px"
	 viewBox="0 0 512 512" style="enable-background:new 0 0 512 512;" xml:space="preserve">
<g>
	<g>
		<path d="M427.104,145.761c-2.144,4.554-4.691,8.992-8.445,12.751c-17.036,16.992-46.685,16.992-63.662,0
			c-5.859-5.859-15.352-5.859-21.211,0c-5.845,5.845-5.845,15.366,0,21.211c17.618,17.618,17.546,46.102,0,63.647
			c-17.007,16.978-52.242,22.307-69.22,5.329c-5.83-5.83-15.352-5.845-21.211,0.015c-5.845,5.83-5.845,15.366,0.015,21.211
			c17.546,17.546,17.603,46.015-0.015,63.633c-16.948,16.978-46.626,17.007-63.633,0c-5.859-5.859-15.352-5.859-21.211,0
			c-5.845,5.845-5.845,15.366,0,21.211c8.496,8.496,13.184,19.805,13.184,31.831c0,16.417-8.318,31.962-25.941,40.27l43.819,43.819
			l281.344-281.116L427.104,145.761z"/>
	</g>
</g>
<g>
	<g>
		<path d="M481.53,30.47c-37.313-37.286-95.729-40.221-136.822-9.527c54.253,54.252,93.674,93.674,146.347,146.347
			C521.74,126.207,518.828,67.781,481.53,30.47z"/>
	</g>
</g>
<g>
	<g>
		<path d="M20.945,344.482c-30.685,41.083-27.773,99.509,9.525,136.82c35.706,35.68,93.24,42.08,136.822,9.527
			C114.656,438.194,75.158,398.696,20.945,344.482z"/>
	</g>
</g>
<g>
	<g>
		<path d="M397.419,116.075l-74.993-74.993L41.083,322.199l74.993,74.993c14.012,14.047,35.237-7.164,21.226-21.211
			c-17.549-17.549-17.549-46.084,0-63.633s46.083-17.549,63.632-0.001c5.698,5.669,15.586,5.669,21.196,0
			c5.907-5.907,5.86-15.381,0.015-21.196c-17.534-17.563-17.534-46.113-0.015-63.662c17.563-17.505,46.099-17.549,63.662-0.015
			c5.684,5.713,21.1,0.354,26.783-5.329c5.818-5.788,5.913-15.267,0-21.211c-17.549-17.549-17.549-46.084,0-63.633
			c17.549-17.549,46.084-17.549,63.633,0c5.859,5.874,15.366,5.874,21.226,0C403.279,131.456,403.279,121.92,397.419,116.075z"/>
	</g>
</g>
<g>
</g>
<g>
</g>
<g>
</g>
<g>
</g>
<g>
</g>
<g>
</g>
<g>
</g>
<g>
</g>
<g>
</g>
<g>
</g>
<g>
</g>
<g>
</g>
<g>
</g>
<g>
</g>
<g>
</g>
</svg>
