<?xml version="1.0" encoding="iso-8859-1"?>
<!-- Generator: Adobe Illustrator 19.0.0, SVG Export Plug-In . SVG Version: 6.00 Build 0)  -->
<svg version="1.1" id="Capa_1" xmlns="http://www.w3.org/2000/svg" xmlns:xlink="http://www.w3.org/1999/xlink" x="0px" y="0px"
	 viewBox="0 0 511.999 511.999" style="enable-background:new 0 0 511.999 511.999;" xml:space="preserve">
<g>
	<g>
		<path d="M491.102,12.781c-14.044-14.02-34.882-16.282-51.725-7.885c2.688,2.04,5.411,4.032,7.853,6.478l45.322,45.322
			c2.439,2.437,4.42,5.153,6.454,7.833C507.41,47.675,505.126,26.829,491.102,12.781z"/>
	</g>
</g>
<g>
	<g>
		<polygon points="256.448,203.692 214.015,246.117 256.448,288.55 298.873,246.117 		"/>
	</g>
</g>
<g>
	<g>
		<path d="M192.822,140.065c-5.863-5.863-15.366-5.865-21.231-0.005l-21.211,21.196c-5.863,5.865-5.861,15.364,0,21.226
			l42.424,42.424l42.433-42.426L192.822,140.065z"/>
	</g>
</g>
<g>
	<g>
		<path d="M478.724,88.837c-2.04-3.851-4.16-7.698-7.383-10.915L426.004,32.57c-3.217-3.232-7.066-5.356-10.915-7.401l-0.013,0.013
			c-15.24-8.056-36.571-6.669-50.202,5.072c-0.044,0.038-0.101,0.051-0.145,0.09L235.986,140.808l125.771,125.771l111.782-127.397
			C485.552,125.305,486.818,104.13,478.724,88.837z"/>
	</g>
</g>
<g>
	<g>
		<path d="M150.38,224.904l-21.22,21.217l12.431,12.431c5.859,5.859,5.859,15.352,0,21.211c-5.86,5.86-15.351,5.86-21.211,0
			l-12.433-12.433l-21.213,21.209l12.435,12.435c5.859,5.859,5.859,15.352,0,21.211c-5.86,5.86-15.351,5.86-21.211,0l-12.437-12.437
			l-10.62,10.62c-17.505,17.549-17.505,46.084,0.015,63.633l21.216,21.22l-10.611,10.611c-5.859,5.859-5.859,15.352,0,21.211
			c5.86,5.86,15.351,5.86,21.211,0l10.607-10.607l21.224,21.227c3.761,3.755,8.199,6.301,12.753,8.443l-12.753,12.753
			c-17.534,17.52-46.084,17.52-63.647,0l-21.211-21.211c-5.859-5.859-15.352-5.859-21.211,0s-5.859,15.352,0,21.211l21.211,21.211
			c29.239,29.239,76.83,29.239,106.069,0c23.639-23.639,29.396-29.396,53.035-53.035l-12.429-12.429
			c-5.859-5.859-5.859-15.352,0-21.211c5.859-5.859,15.352-5.859,21.211,0l12.429,12.429l21.211-21.211l-12.429-12.429
			c-5.859-5.859-5.859-15.352,0-21.211c5.859-5.859,15.352-5.859,21.211,0l12.429,12.429l21.218-21.218L150.38,224.904z"/>
	</g>
</g>
<g>
	<g>
		<path d="M362.504,309.748l-42.42-42.42l-42.426,42.433l42.431,42.431c5.856,5.856,15.352,5.852,21.204-0.007l21.211-21.211
			C368.365,325.113,368.365,315.61,362.504,309.748z"/>
	</g>
</g>
<g>
</g>
<g>
</g>
<g>
</g>
<g>
</g>
<g>
</g>
<g>
</g>
<g>
</g>
<g>
</g>
<g>
</g>
<g>
</g>
<g>
</g>
<g>
</g>
<g>
</g>
<g>
</g>
<g>
</g>
</svg>
