<?xml version="1.0" encoding="iso-8859-1"?>
<!-- Generator: Adobe Illustrator 19.0.0, SVG Export Plug-In . SVG Version: 6.00 Build 0)  -->
<svg version="1.1" id="Capa_1" xmlns="http://www.w3.org/2000/svg" xmlns:xlink="http://www.w3.org/1999/xlink" x="0px" y="0px"
	 viewBox="0 0 512 512" style="enable-background:new 0 0 512 512;" xml:space="preserve">
<g>
	<g>
		<path d="M256,270c-8.276,0-15,6.724-15,15s6.724,15,15,15s15-6.724,15-15S264.276,270,256,270z"/>
	</g>
</g>
<g>
	<g>
		<path d="M255.998,150c-0.022,0-0.04,0.007-0.062,0.007C183.335,150.036,121,209.257,121,285c0,74.443,60.557,137,135,137
			s135-62.557,135-137C391,209.091,328.494,150,255.998,150z M309.033,210.753c5.857-5.858,15.355-5.858,21.213,0
			c5.859,5.859,5.859,15.355,0,21.215c-5.858,5.858-15.355,5.858-21.213,0C303.175,226.109,303.175,216.613,309.033,210.753z
			 M256,180c8.284,0,15,6.714,15,15c0,8.284-6.716,15-15,15s-15-6.716-15-15C241,186.714,247.716,180,256,180z M166,300
			c-8.284,0-15-6.716-15-15c0-8.286,6.716-15,15-15s15,6.714,15,15C181,293.284,174.284,300,166,300z M202.967,361.246
			c-5.858,5.858-15.355,5.858-21.213,0c-5.859-5.858-5.859-15.355,0-21.213c5.858-5.858,15.355-5.858,21.213,0
			C208.825,345.891,208.825,355.388,202.967,361.246z M202.967,231.967c-5.858,5.858-15.355,5.858-21.213,0
			c-5.859-5.859-5.859-15.355,0-21.215c5.858-5.858,15.355-5.858,21.213,0C208.825,216.612,208.825,226.108,202.967,231.967z
			 M256,392c-8.284,0-15-6.716-15-15c0-8.286,6.716-15,15-15s15,6.714,15,15C271,385.284,264.284,392,256,392z M256,332
			c-24.814,0-45-22.186-45-47c0-24.814,20.186-45,45-45c24.814,0,45,20.186,45,45C301,309.814,280.814,332,256,332z
			 M330.246,361.246c-5.858,5.858-15.355,5.858-21.213,0c-5.858-5.858-5.858-15.355,0-21.213c5.858-5.858,15.355-5.858,21.213,0
			C336.105,345.89,336.105,355.388,330.246,361.246z M346,300c-8.284,0-15-6.716-15-15c0-8.286,6.716-15,15-15s15,6.714,15,15
			C361,293.284,354.284,300,346,300z"/>
	</g>
</g>
<g>
	<g>
		<path d="M256,0C191.206,0,128.82,22.295,78.39,62.626l55.164,62.062c13.692,15.388,35.76,18.425,54.858,9.799
			c0.531-0.24,1.095-0.399,1.63-0.634C209.581,125.285,232.475,120,256,120c23.338,0,46.764,5.43,66.041,13.892
			c0.511,0.225,1.053,0.379,1.562,0.61c19.185,8.578,41.171,5.57,54.829-9.814l55.179-62.062C383.178,22.3,320.794,0,256,0z"/>
	</g>
</g>
<g>
	<g>
		<path d="M416.159,127.397l-15.3,17.212c-8.61,9.697-19.435,16.668-31.631,20.691C401.027,195.397,421,237.865,421,285
			c0,90.981-74.019,167-165,167S91,375.981,91,285c0-47.137,19.975-89.608,51.777-119.705c-12.193-4.016-23.026-10.986-31.65-20.685
			l-15.291-17.205C54.604,169.349,31,225.857,31,285c0,124.072,100.928,227,225,227s225-102.928,225-227
			C481,225.853,457.392,169.34,416.159,127.397z"/>
	</g>
</g>
<g>
</g>
<g>
</g>
<g>
</g>
<g>
</g>
<g>
</g>
<g>
</g>
<g>
</g>
<g>
</g>
<g>
</g>
<g>
</g>
<g>
</g>
<g>
</g>
<g>
</g>
<g>
</g>
<g>
</g>
</svg>
