<?xml version="1.0" encoding="iso-8859-1"?>
<!-- Generator: Adobe Illustrator 19.0.0, SVG Export Plug-In . SVG Version: 6.00 Build 0)  -->
<svg version="1.1" id="Capa_1" xmlns="http://www.w3.org/2000/svg" xmlns:xlink="http://www.w3.org/1999/xlink" x="0px" y="0px"
	 viewBox="0 0 512 512" style="enable-background:new 0 0 512 512;" xml:space="preserve">
<g>
	<g>
		<path d="M256,0c-36.216,0-66.513,25.809-73.482,60h146.964C322.513,25.809,292.216,0,256,0z"/>
	</g>
</g>
<g>
	<g>
		<path d="M200.2,90l-61.201,61.199c26.181,3.525,48.121,18.982,59.702,47.101c4.199,1.5,7.899,3.6,11.799,6V90H200.2z"/>
	</g>
</g>
<g>
	<g>
		<path d="M160.6,193.2c-8.699-8.401-19.801-13.2-31.8-13.2c-12.001,0-23.401,4.799-31.8,13.2l-42.599,42.299
			c-9.128,9.885-13.2,21.068-13.2,31.8c0,12.001,4.799,23.401,13.2,31.8c5.325,5.329,11.563,10.04,16.888,4.711l88.876-88.878
			C166.115,208.984,166.315,199.395,160.6,193.2z"/>
	</g>
</g>
<g>
	<g>
		<path d="M75.7,150.899c-6-6-15.3-6-21.299,0L12.1,193.2c-5.512,4.96-6.514,14.785,0,21.299l11.7,11.7c2.699-4.2,6-8.101,9.6-11.7
			l42.3-42.6c3.6-3.599,7.5-6.599,11.4-9.3L75.7,150.899z"/>
	</g>
</g>
<g>
	<g>
		<path d="M311.8,90h-10.2v114.3c3.9-2.401,7.501-4.501,11.699-6c11.58-28.118,33.521-43.576,59.702-47.1L311.8,90z"/>
	</g>
</g>
<g>
	<g>
		<rect x="241.6" y="90" width="28.9" height="90"/>
	</g>
</g>
<g>
	<g>
		<path d="M457.599,235.499L415,193.2c-16.8-17.1-46.5-17.1-63.6,0c-5.722,6.202-5.521,15.778,0.436,21.733l87.911,87.914
			c3.851,3.851,9.736,4.669,17.853-3.448c8.401-8.699,13.2-20.099,13.2-32.1C470.799,256.597,466.74,245.398,457.599,235.499z"/>
	</g>
</g>
<g>
	<g>
		<path d="M418.203,323.584l-92.535-92.805c-4.89-4.906-11.69-0.157-16.567,4.72c-4.126,4.126-6.959,9.132-9.3,14.399h-0.3
			C286.046,243.622,270.847,240,256,240c-15.361,0-29.279,3.704-43.2,10.199h-0.3c-2.195-4.94-5.647-10.747-9.6-14.7
			c-0.412-0.412-0.824-0.802-1.24-1.176c-5.59-5.017-14.108-4.781-19.424,0.529c-20.574,20.548-75.912,75.846-90.417,90.591
			C86.946,330.4,92.107,336.807,97,341.7c4.361,4.361,12.494,9.216,20.4,10.8c8.477,4.232,19.289,2.345,27.899-1.201
			C145.9,351,146.2,351,146.501,351c1.8-1.201,3.6-2.1,5.099-3.001V497c0,8.399,5.999,15,14.4,15h180c8.401,0,14.5-6.601,14.5-15
			V347.999c1.5,0.901,3.3,1.8,5.099,3.001c0.3,0,0.601,0,1.201,0.298c8.519,3.509,19.309,5.44,27.799,1.201
			c7.127-1.427,15.561-5.961,20.4-10.8c1.8-1.802,3.6-3.602,5.099-5.7C422.242,331.89,421.475,326.866,418.203,323.584z M256,390
			c-24.814,0-45-20.186-45-45c0-24.814,20.186-45,45-45c24.814,0,45,20.186,45,45C301,369.814,280.814,390,256,390z"/>
	</g>
</g>
<g>
	<g>
		<path d="M256,330c-8.276,0-15,6.724-15,15s6.724,15,15,15c8.276,0,15-6.724,15-15S264.276,330,256,330z"/>
	</g>
</g>
<g>
	<g>
		<path d="M499.9,193.2l-42.301-42.301c-5.506-5.506-15.328-6.636-21.299,0l-11.4,11.7c3.9,2.701,7.8,5.7,11.4,9.3l42.299,42.599
			c3.6,3.6,6.901,7.5,9.6,11.7l11.7-11.7C506.414,207.985,505.412,198.16,499.9,193.2z"/>
	</g>
</g>
<g>
</g>
<g>
</g>
<g>
</g>
<g>
</g>
<g>
</g>
<g>
</g>
<g>
</g>
<g>
</g>
<g>
</g>
<g>
</g>
<g>
</g>
<g>
</g>
<g>
</g>
<g>
</g>
<g>
</g>
</svg>
