<?xml version="1.0" encoding="iso-8859-1"?>
<!-- Generator: Adobe Illustrator 19.0.0, SVG Export Plug-In . SVG Version: 6.00 Build 0)  -->
<svg version="1.1" id="Capa_1" xmlns="http://www.w3.org/2000/svg" xmlns:xlink="http://www.w3.org/1999/xlink" x="0px" y="0px"
	 viewBox="0 0 512 512" style="enable-background:new 0 0 512 512;" xml:space="preserve">
<g>
	<g>
		<path d="M255.253,251.733c-8.643,14.561-14.883,27.627-15,32.212c0,8.262,6.724,14.985,15,14.985c8.262,0,15-6.724,15-15
			C270.121,279.33,263.881,266.264,255.253,251.733z"/>
	</g>
</g>
<g>
	<g>
		<path d="M294.774,150H166v272h180l0.088-176.36L294.774,150z M242.904,215.406c5.625-8.115,19.072-8.115,24.697,0
			c9.814,14.224,32.651,49.351,32.651,68.525c0.001,24.814-20.185,45-44.999,45c-24.814,0-45-20.186-45-45
			C210.253,264.756,233.09,229.629,242.904,215.406z M300.253,391.031h-90c-8.291,0-15-6.809-15-15.1s6.709-15,15-15h90
			c8.291,0,15,6.709,15,15C315.253,384.222,308.544,391.031,300.253,391.031z"/>
	</g>
</g>
<g>
	<g>
		<path d="M210.399,0h-30c-19.53,0-36.024,12.578-42.237,30h114.474C246.424,12.578,229.929,0,210.399,0z"/>
	</g>
</g>
<g>
	<g>
		<path d="M420.312,196.069c-9.585-18.94-42.401-87.574-57.363-107.153C348.71,70.532,327.118,60,303.695,60H149.521
			C108.988,60.747,76,94.395,76,135v302c0,41.353,33.647,75,75,75h210c41.353,0,75-33.647,75-75V241.802
			C436,224.971,425,205.333,420.312,196.069z M376,437c0,8.291-6.724,15-15,15H151c-8.291,0-15-6.709-15-15V135
			c0-8.291,6.709-15,15-15h152.754c5.522,0,10.605,3.032,13.213,7.91l57.334,106.875c1.172,2.183,1.787,4.614,1.787,7.09L376,437z"
			/>
	</g>
</g>
<g>
</g>
<g>
</g>
<g>
</g>
<g>
</g>
<g>
</g>
<g>
</g>
<g>
</g>
<g>
</g>
<g>
</g>
<g>
</g>
<g>
</g>
<g>
</g>
<g>
</g>
<g>
</g>
<g>
</g>
</svg>
