<?xml version="1.0" encoding="iso-8859-1"?>
<!-- Generator: Adobe Illustrator 19.0.0, SVG Export Plug-In . SVG Version: 6.00 Build 0)  -->
<svg version="1.1" id="Capa_1" xmlns="http://www.w3.org/2000/svg" xmlns:xlink="http://www.w3.org/1999/xlink" x="0px" y="0px"
	 viewBox="0 0 512 512" style="enable-background:new 0 0 512 512;" xml:space="preserve">
<g>
	<g>
		<rect x="210" y="392" width="92" height="30"/>
	</g>
</g>
<g>
	<g>
		<path d="M407,90c-8.276,0-15,6.724-15,15s6.724,15,15,15s15-6.724,15-15S415.276,90,407,90z"/>
	</g>
</g>
<g>
	<g>
		<path d="M255,90c-8.276,0-15,6.724-15,15s6.724,15,15,15s17-6.724,17-15S263.276,90,255,90z"/>
	</g>
</g>
<g>
	<g>
		<path d="M105,90c-8.276,0-15,6.724-15,15s6.724,15,15,15s15-6.724,15-15S113.276,90,105,90z"/>
	</g>
</g>
<g>
	<g>
		<path d="M437,0H75C33.647,0,0,33.647,0,75v60c0,27.924,14.676,54.584,45,68.022V287c0,53.828,29.035,102.821,75,129.476V437
			c0,41.353,33.647,75,75,75h122c41.353,0,75-33.647,75-75v-20.484c45.943-26.528,75-75.546,75-129.516v-83.985
			c30.341-13.472,45-40.091,45-68.015V75C512,33.647,478.353,0,437,0z M332,60c8.284,0,15,6.714,15,15c0,8.284-6.716,15-15,15
			s-15-6.716-15-15C317,66.714,323.716,60,332,60z M255,60c24.814,0,47,20.186,47,45c0,24.814-22.186,45-47,45
			c-24.814,0-45-20.186-45-45C210,80.186,230.186,60,255,60z M287,210v92h-62v-92H287z M180,60c8.284,0,15,6.714,15,15
			c0,8.284-6.716,15-15,15s-15-6.716-15-15C165,66.714,171.716,60,180,60z M60,105c0-24.814,20.186-45,45-45s45,20.186,45,45
			c0,24.814-20.186,45-45,45C80.186,150,60,129.814,60,105z M157.427,312.152c-13.385,7.831-23.747,19.709-30.095,33.444
			C113.329,329.479,105,308.658,105,287v-77h60.004l0.022,98.971C162.51,310.086,159.811,310.756,157.427,312.152z M165,135
			c0-8.286,6.716-15,15-15s15,6.714,15,15c0,8.284-6.716,15-15,15S165,143.284,165,135z M332,437c0,8.291-6.709,15-15,15H195
			c-8.291,0-15-6.709-15-15v-60c0-8.291,6.709-15,15-15h122c8.291,0,15,6.709,15,15V437z M332,150c-8.284,0-15-6.716-15-15
			c0-8.286,6.716-15,15-15s15,6.714,15,15C347,143.284,340.284,150,332,150z M407,287c0,21.932-8.172,42.506-22.315,58.771
			c-6.248-13.846-16.562-25.703-30.097-33.62c-2.382-1.392-5.076-2.06-7.588-3.173V210h60V287z M407,150c-24.814,0-45-20.186-45-45
			c0-24.814,20.186-45,45-45c24.814,0,45,20.186,45,45C452,129.814,431.814,150,407,150z"/>
	</g>
</g>
<g>
</g>
<g>
</g>
<g>
</g>
<g>
</g>
<g>
</g>
<g>
</g>
<g>
</g>
<g>
</g>
<g>
</g>
<g>
</g>
<g>
</g>
<g>
</g>
<g>
</g>
<g>
</g>
<g>
</g>
</svg>
