<?xml version="1.0" encoding="iso-8859-1"?>
<!-- Generator: Adobe Illustrator 19.0.0, SVG Export Plug-In . SVG Version: 6.00 Build 0)  -->
<svg version="1.1" id="Capa_1" xmlns="http://www.w3.org/2000/svg" xmlns:xlink="http://www.w3.org/1999/xlink" x="0px" y="0px"
	 viewBox="0 0 512 512" style="enable-background:new 0 0 512 512;" xml:space="preserve">
<g>
	<g>
		<path d="M431.71,370.653c-7.998-5.629-124.735-55.87-133.699-59.781c-27.268-11.935-57.832-11.448-83.995-0.029l-126.08,55.039
			c-16.398,7.166-27.007,23.372-27.007,41.265c0,18.888,12.598,34.975,27.007,41.265c77.316,33.746,48.732,21.272,126.051,55.01
			c27.559,12.062,59.345,10.792,84.01,0.015l126.066-55.025c16.398-7.166,27.007-23.372,27.007-41.265
			C451.069,392.33,443.532,378.989,431.71,370.653z M165.967,422.152c-8.287,0-15.005-6.718-15.005-15.005
			c0-8.287,6.718-15.005,15.005-15.005s15.005,6.718,15.005,15.005C180.972,415.433,174.254,422.152,165.967,422.152z
			 M255.999,452.163c-24.823,0-45.016-20.193-45.016-45.016c0-24.823,20.193-45.016,45.016-45.016
			c24.823,0,45.016,20.193,45.016,45.016C301.016,431.969,280.823,452.163,255.999,452.163z M346.032,422.152
			c-8.287,0-15.005-6.718-15.005-15.005c0-8.287,6.718-15.005,15.005-15.005s15.005,6.718,15.005,15.005
			C361.037,415.433,354.319,422.152,346.032,422.152z"/>
	</g>
</g>
<g>
	<g>
		<path d="M99.732,210.076l51.229,51.229v44.313l51.039-22.281c34.143-14.917,73.855-14.917,108.027,0.029l51.009,22.257v-44.319
			l51.229-51.228H99.732z"/>
	</g>
</g>
<g>
	<g>
		<path d="M316.021,60.022h-15.005V45.016c0-5.286-1.082-10.289-2.764-15.005h47.78c8.294,0,15.005-6.711,15.005-15.005
			C361.037,6.711,354.326,0,346.032,0h-90.032c-24.823,0-45.016,20.193-45.016,45.016v15.005h-15.005
			c-19.537,0-36.037,12.583-42.252,30.011h204.547C352.058,72.604,335.558,60.022,316.021,60.022z"/>
	</g>
</g>
<g>
	<g>
		<path d="M376.042,120.043c-88.51,0-151.569,0-240.086,0c-24.823,0-45.016,20.193-45.016,45.016v15.005h330.119v-15.005
			C421.059,140.236,400.865,120.043,376.042,120.043z"/>
	</g>
</g>
<g>
</g>
<g>
</g>
<g>
</g>
<g>
</g>
<g>
</g>
<g>
</g>
<g>
</g>
<g>
</g>
<g>
</g>
<g>
</g>
<g>
</g>
<g>
</g>
<g>
</g>
<g>
</g>
<g>
</g>
</svg>
