<?xml version="1.0" encoding="iso-8859-1"?>
<!-- Generator: Adobe Illustrator 19.0.0, SVG Export Plug-In . SVG Version: 6.00 Build 0)  -->
<svg version="1.1" id="Capa_1" xmlns="http://www.w3.org/2000/svg" xmlns:xlink="http://www.w3.org/1999/xlink" x="0px" y="0px"
	 viewBox="0 0 512 512" style="enable-background:new 0 0 512 512;" xml:space="preserve">
<g>
	<g>
		<path d="M92.014,297.486L49.94,434.114c-5.757,18.413-2.505,37.881,8.921,53.423C70.287,503.079,87.924,512,107.216,512
			c26.382,0,49.395-16.919,57.261-42.114l41.885-136.019L92.014,297.486z"/>
	</g>
</g>
<g>
	<g>
		<path d="M256,180c-8.291,0-15-6.709-15-15v-15c0-2.959,0.879-5.859,2.52-8.32L267.968,105L243.52,68.32
			C241.879,65.859,241,62.959,241,60V0h-22.939c-19.79,0-37.061,12.686-42.95,31.582l-74.149,237.266l114.349,36.383l1.635-5.231
			H226c8.284,0,15-6.716,15-15c0-8.291,6.709-15,15-15c24.814,0,45-20.186,45-45C301,200.186,280.814,180,256,180z M256,240
			c-8.284,0-15-6.716-15-15c0-8.286,6.716-15,15-15c8.284,0,15,6.714,15,15C271,233.284,264.284,240,256,240z"/>
	</g>
</g>
<g>
	<g>
		<path d="M336.889,31.582C331,12.686,313.729,0,293.939,0H271v55.459l27.48,41.221c3.354,5.039,3.354,11.602,0,16.641
			l-25.708,38.569C306.401,159.595,331,190.588,331,225c0,25.827-14.328,51.789-38.517,65.175l4.534,16.089l114-37.478
			L336.889,31.582z"/>
	</g>
</g>
<g>
	<g>
		<path d="M462.06,434.114l-42.09-136.683l-114.001,37.478l41.556,134.977C355.39,495.081,378.402,512,404.784,512
			c19.292,0,36.929-8.921,48.354-24.463C464.563,471.995,467.816,452.527,462.06,434.114z"/>
	</g>
</g>
<g>
</g>
<g>
</g>
<g>
</g>
<g>
</g>
<g>
</g>
<g>
</g>
<g>
</g>
<g>
</g>
<g>
</g>
<g>
</g>
<g>
</g>
<g>
</g>
<g>
</g>
<g>
</g>
<g>
</g>
</svg>
