<?xml version="1.0" encoding="iso-8859-1"?>
<!-- Generator: Adobe Illustrator 19.0.0, SVG Export Plug-In . SVG Version: 6.00 Build 0)  -->
<svg version="1.1" id="Capa_1" xmlns="http://www.w3.org/2000/svg" xmlns:xlink="http://www.w3.org/1999/xlink" x="0px" y="0px"
	 viewBox="0 0 511.999 511.999" style="enable-background:new 0 0 511.999 511.999;" xml:space="preserve">
<g>
	<g>
		<path d="M411.444,164.197l19.085-19.085l-63.64-63.64l-19.085,19.085L337.197,89.95c-5.863-5.863-15.351-5.863-21.213,0
			l-21.213,21.213c-5.862,5.863-5.862,15.351,0.001,21.214l84.853,84.853c5.863,5.863,15.351,5.863,21.213,0l21.213-21.213
			c5.863-5.863,5.863-15.351,0-21.213L411.444,164.197z"/>
	</g>
</g>
<g>
	<g>
		<path d="M483.562,113.292l-84.853-84.853c-5.863-5.863-15.351-5.863-21.213,0c-5.862,5.863-5.863,15.35,0,21.213l84.853,84.853
			c5.863,5.863,15.351,5.863,21.213,0C489.425,128.642,489.425,119.154,483.562,113.292z"/>
	</g>
</g>
<g>
	<g>
		<path d="M449.264,317.295c-17.546-17.546-46.093-17.546-63.64,0l-31.82,31.82l-31.82-31.82l-21.213-21.213l15.213-15.213
			l21.213,21.213c5.863,5.863,15.351,5.863,21.213,0l21.213-21.213c5.863-5.863,5.863-15.351,0-21.213L252.345,132.376
			c-5.863-5.863-15.351-5.863-21.213,0l-21.213,21.213c-5.863,5.863-5.863,15.351,0,21.213l21.213,21.213l-15.213,15.213
			l-21.213-21.213c-5.863-5.863-15.351-5.863-21.213,0l-31.82,31.82l148.492,148.492l21.213-21.213l21.213,21.213l-31.82,31.82
			c-17.546,17.546-17.546,46.093,0,63.64c17.546,17.547,46.093,17.546,63.64,0l31.82-31.82l10.607,10.607
			c5.863,5.863,15.351,5.863,21.213,0s5.862-15.351,0-21.213l-10.607-10.607l31.82-31.82
			C466.81,363.389,466.81,334.842,449.264,317.295z"/>
	</g>
</g>
<g>
	<g>
		<polygon points="113.903,236.493 82.083,247.099 264.902,429.918 275.508,398.098 		"/>
	</g>
</g>
<g>
	<g>
		<path d="M56.82,264.262L25,296.082c-5.863,5.863-5.863,15.351,0,21.213L8.787,333.509c-11.715,11.715-11.716,30.71,0,42.426
			s30.711,11.715,42.426,0l16.213-16.213l21.213,21.213L30,439.574c-11.715,11.715-11.716,30.71,0,42.426s30.711,11.715,42.426,0
			l58.64-58.64l21.213,21.213l-16.213,16.213c-11.715,11.715-11.716,30.71,0,42.426c11.716,11.716,30.712,11.715,42.426,0
			l16.214-16.212c5.863,5.863,15.351,5.863,21.213,0l31.82-31.82L56.82,264.262z"/>
	</g>
</g>
<g>
	<g>
		<path d="M498.84,13.16c-17.546-17.546-46.093-17.546-63.64,0l-4.671,4.671l63.64,63.64l4.671-4.671
			C516.386,59.254,516.386,30.707,498.84,13.16z"/>
	</g>
</g>
<g>
</g>
<g>
</g>
<g>
</g>
<g>
</g>
<g>
</g>
<g>
</g>
<g>
</g>
<g>
</g>
<g>
</g>
<g>
</g>
<g>
</g>
<g>
</g>
<g>
</g>
<g>
</g>
<g>
</g>
</svg>
