<?xml version="1.0" encoding="iso-8859-1"?>
<!-- Generator: Adobe Illustrator 19.0.0, SVG Export Plug-In . SVG Version: 6.00 Build 0)  -->
<svg version="1.1" id="Capa_1" xmlns="http://www.w3.org/2000/svg" xmlns:xlink="http://www.w3.org/1999/xlink" x="0px" y="0px"
	 viewBox="0 0 512 512" style="enable-background:new 0 0 512 512;" xml:space="preserve">
<g>
	<g>
		<path d="M257,90c-8.276,0-17,6.724-17,15s8.724,15,17,15s15-6.724,15-15S265.276,90,257,90z"/>
	</g>
</g>
<g>
	<g>
		<path d="M210,105c0-3.025,0.322-5.973,0.894-8.833c-13.411,3.73-26.125,9.075-37.936,15.879c2.637,1.655,5.554,2.816,7.804,5.068
			c5.427,5.437,9.093,12.08,11.178,19.25c7.553-4.032,15.463-7.3,23.782-9.853C212.19,120.09,210,112.831,210,105z"/>
	</g>
</g>
<g>
	<g>
		<path d="M301.107,96.166c0.571,2.86,0.894,5.808,0.894,8.833c0,7.831-2.19,15.09-5.722,21.511
			c8.317,2.554,16.228,5.822,23.781,9.854c2.086-7.17,5.751-13.813,11.179-19.25c2.252-2.252,5.167-3.411,7.806-5.067
			C327.235,105.241,314.518,99.896,301.107,96.166z"/>
	</g>
</g>
<g>
	<g>
		<path d="M159.536,138.325c0,0,0,0-0.015,0c-5.393-5.42-14.39-6.185-20.744-0.302c-0.251,0.251-0.504,0.504-0.754,0.754
			c-5.883,6.354-5.118,15.352,0.302,20.744c5.698,5.699,15.557,5.684,21.196,0.015C165.372,153.715,165.428,144.248,159.536,138.325
			z"/>
	</g>
</g>
<g>
	<g>
		<path d="M400.527,173.901c-1.633,2.441-3.519,4.739-5.641,6.861c-5.429,5.42-12.074,9.089-19.25,11.177
			c4.034,7.553,7.3,15.465,9.853,23.783C391.91,212.19,399.169,210,407,210c3.025,0,5.973,0.322,8.833,0.894
			C412.204,197.846,407.073,185.442,400.527,173.901z"/>
	</g>
</g>
<g>
	<g>
		<path d="M105,240c-8.276,0-15,8.724-15,17s6.724,15,15,15s15-6.724,15-15S113.276,240,105,240z"/>
	</g>
</g>
<g>
	<g>
		<path d="M373.977,138.777c-0.251-0.251-0.504-0.504-0.754-0.754c-6.354-5.883-15.352-5.118-20.744,0.302c-0.015,0-0.015,0-0.015,0
			c-5.886,5.917-5.845,15.382,0,21.196c5.683,5.713,15.527,5.699,21.211,0.015C379.154,154.057,379.812,145.08,373.977,138.777z"/>
	</g>
</g>
<g>
	<g>
		<path d="M257,150c-57.891,0-107,49.109-107,107s49.109,105,107,105s105-47.109,105-105S314.891,150,257,150z M257,332
			c-41.353,0-77-33.647-77-75c0-41.353,35.647-77,77-77c41.353,0,75,35.647,75,77C332,298.353,298.353,332,257,332z"/>
	</g>
</g>
<g>
	<g>
		<path d="M257,210c-24.814,0-47,22.186-47,47c0,24.814,22.186,45,47,45c24.814,0,45-20.186,45-45C302,232.186,281.814,210,257,210z
			"/>
	</g>
</g>
<g>
	<g>
		<path d="M117.114,180.747c-2.122-2.119-4.005-4.415-5.638-6.852c-6.55,11.541-11.68,23.948-15.309,36.998
			c2.86-0.571,5.808-0.894,8.833-0.894c7.831,0.001,15.09,2.191,21.511,5.723c2.552-8.32,5.821-16.232,9.855-23.785
			C129.19,189.848,122.543,186.177,117.114,180.747z"/>
	</g>
</g>
<g>
	<g>
		<path d="M373.675,352.479c0-0.015,0-0.015,0-0.015c-5.917-5.886-15.382-5.845-21.196,0c-5.851,5.821-5.907,15.288-0.015,21.211
			c5.563,5.563,15.057,5.599,20.792,0.273c0.242-0.24,0.482-0.483,0.721-0.725C379.86,366.869,379.095,357.871,373.675,352.479z"/>
	</g>
</g>
<g>
	<g>
		<path d="M407,240c-8.276,0-15,8.724-15,17s6.724,15,15,15s15-6.724,15-15S415.276,240,407,240z"/>
	</g>
</g>
<g>
	<g>
		<path d="M407,302c-7.831,0-15.09-2.19-21.511-5.722c-2.633,8.58-6.033,16.729-10.239,24.492
			c7.244,1.945,14.161,4.999,19.636,10.468c2.122,2.122,4.008,4.42,5.641,6.861c6.546-11.541,11.677-23.945,15.306-36.993
			C412.973,301.677,410.025,302,407,302z"/>
	</g>
</g>
<g>
	<g>
		<path d="M257,0C116.39,0,0,116.39,0,257s116.39,255,257,255s255-114.39,255-255S397.61,0,257,0z M257,452
			c-106.805,0-197-86.808-197-195c0-107.841,89.866-197,197-197c106.992,0,195,89.02,195,197C452,364.038,364.751,452,257,452z"/>
	</g>
</g>
<g>
	<g>
		<path d="M159.536,352.48c-5.821-5.852-15.288-5.909-21.211-0.016c0,0,0,0,0,0.015c-5.42,5.393-6.185,14.39-0.302,20.744
			c0.238,0.24,0.476,0.482,0.716,0.72c5.748,5.305,15.262,5.297,20.782-0.267C165.428,367.769,165.381,358.295,159.536,352.48z"/>
	</g>
</g>
<g>
	<g>
		<path d="M338.101,400.525c-2.443-1.633-4.741-3.517-6.863-5.64c-5.42-5.428-9.089-12.073-11.176-19.249
			c-7.553,4.034-15.465,7.3-23.784,9.853C299.81,391.91,302,399.169,302,407c0,3.025-0.322,5.973-0.894,8.833
			C314.154,412.204,326.559,407.073,338.101,400.525z"/>
	</g>
</g>
<g>
	<g>
		<path d="M215.721,385.489c-8.319-2.553-16.228-5.821-23.783-9.855c-2.089,7.174-5.762,13.823-11.191,19.252
			c-2.119,2.122-4.413,4.005-6.852,5.638c11.541,6.548,23.948,11.68,36.998,15.309c-0.571-2.86-0.894-5.808-0.894-8.833
			C209.999,399.169,212.189,391.91,215.721,385.489z"/>
	</g>
</g>
<g>
	<g>
		<path d="M126.511,296.278C120.09,299.81,112.831,302,105,302c-3.025,0-5.973-0.322-8.833-0.894
			c3.629,13.048,8.76,25.453,15.308,36.995c1.633-2.443,3.517-4.741,5.64-6.863c5.477-5.468,12.394-8.522,19.636-10.468
			C132.545,313.006,129.144,304.858,126.511,296.278z"/>
	</g>
</g>
<g>
	<g>
		<path d="M257,392c-8.276,0-17,6.724-17,15s8.724,15,17,15s15-6.724,15-15S265.276,392,257,392z"/>
	</g>
</g>
<g>
</g>
<g>
</g>
<g>
</g>
<g>
</g>
<g>
</g>
<g>
</g>
<g>
</g>
<g>
</g>
<g>
</g>
<g>
</g>
<g>
</g>
<g>
</g>
<g>
</g>
<g>
</g>
<g>
</g>
</svg>
