<?xml version="1.0" encoding="iso-8859-1"?>
<!-- Generator: Adobe Illustrator 19.0.0, SVG Export Plug-In . SVG Version: 6.00 Build 0)  -->
<svg version="1.1" id="Capa_1" xmlns="http://www.w3.org/2000/svg" xmlns:xlink="http://www.w3.org/1999/xlink" x="0px" y="0px"
	 viewBox="0 0 512 512" style="enable-background:new 0 0 512 512;" xml:space="preserve">
<g>
	<g>
		<path d="M257.161,0H134.092c-24.199,0-44.15,19.688-44.458,43.901c-0.005,0.489-0.004,0.976,0.009,1.463
			c0.189,7.553,6.359,13.567,13.914,13.567h183.998c7.698,0,13.965-6.189,14.064-13.887C301.952,20.271,282.038,0,257.161,0z"/>
	</g>
</g>
<g>
	<g>
		<path d="M345.198,143.973C331.033,129.808,312.195,122,292.156,122H242V89.031h-92V122h-45c-19.999,0-36.791,13.2-42.634,31.278
			C66.557,152.767,70.673,152,75,152h278.224L345.198,143.973z"/>
	</g>
</g>
<g>
	<g>
		<path d="M151.253,345.931c0-4.77,0.789-9.327,1.408-13.931H90v30h62.877C152.057,356.723,151.253,351.433,151.253,345.931z"/>
	</g>
</g>
<g>
	<g>
		<path d="M330.691,272c8.565,8.624,15.43,18.847,20.61,30H422v-30H330.691z"/>
	</g>
</g>
<g>
	<g>
		<path d="M266.824,272h-21.141c-36.321,5.193-64.429,36.198-64.429,73.931c-0.001,41.352,33.646,75,74.999,75
			c41.353,0,75-33.647,75-75C331.253,308.198,303.144,277.193,266.824,272z M256.253,390.931c-24.814,0-45-20.186-45-45
			c0-24.814,20.185-45,45-45c24.814,0,45,20.186,45,45C301.253,370.745,281.067,390.931,256.253,390.931z"/>
	</g>
</g>
<g>
	<g>
		<path d="M256.253,330.931c-8.276,0-15,6.724-15,15s6.724,15,15,15s15-6.724,15-15S264.529,330.931,256.253,330.931z"/>
	</g>
</g>
<g>
	<g>
		<path d="M350.138,392c-5.559,11.274-12.89,21.447-21.93,30H422v-30H350.138z"/>
	</g>
</g>
<g>
	<g>
		<path d="M359.845,332c0.619,4.603,1.408,9.161,1.408,13.931c0,5.502-0.804,10.792-1.624,16.069H422v-30H359.845z"/>
	</g>
</g>
<g>
	<g>
		<path d="M452,183.518v326.964c34.191-6.969,60-37.266,60-73.482V257C512,220.784,486.191,190.487,452,183.518z"/>
	</g>
</g>
<g>
	<g>
		<path d="M90,182v60c115.112,0,281.256,0,332,0v-60C284.549,182,226.778,182,90,182z"/>
	</g>
</g>
<g>
	<g>
		<rect x="90" y="452" width="332" height="60"/>
	</g>
</g>
<g>
	<g>
		<path d="M0,257v180c0,36.216,25.809,66.513,60,73.482V183.518C25.715,190.453,0,221.922,0,257z"/>
	</g>
</g>
<g>
	<g>
		<path d="M162.367,392H90v30h94.298C175.258,413.447,167.927,403.274,162.367,392z"/>
	</g>
</g>
<g>
	<g>
		<path d="M90,272v30h71.205c5.18-11.153,12.045-21.376,20.61-30H90z"/>
	</g>
</g>
<g>
</g>
<g>
</g>
<g>
</g>
<g>
</g>
<g>
</g>
<g>
</g>
<g>
</g>
<g>
</g>
<g>
</g>
<g>
</g>
<g>
</g>
<g>
</g>
<g>
</g>
<g>
</g>
<g>
</g>
</svg>
