<?xml version="1.0" encoding="iso-8859-1"?>
<!-- Generator: Adobe Illustrator 19.0.0, SVG Export Plug-In . SVG Version: 6.00 Build 0)  -->
<svg version="1.1" id="Capa_1" xmlns="http://www.w3.org/2000/svg" xmlns:xlink="http://www.w3.org/1999/xlink" x="0px" y="0px"
	 viewBox="0 0 512 512" style="enable-background:new 0 0 512 512;" xml:space="preserve">
<g>
	<g>
		<path d="M207.16,385.207l0.081-0.064c-4.274-19.293-13.749-37.068-28.061-51.381c-14.314-14.314-32.09-23.788-51.38-28.062
			l-0.073,0.09c-41.415-9.157-86.382,8.034-110.382,44.31C-9.602,390.78-5.064,446.513,30.683,482.259
			c39.641,39.641,108.797,39.669,148.497,0C201.342,460.096,215.48,422.791,207.16,385.207z"/>
	</g>
</g>
<g>
	<g>
		<path d="M511.823,267.837C492.15,130.121,382.879,19.81,245.163,0.136c-10.235-1.331-18.343,7.305-16.979,16.979
			c12.525,87.63-16.544,185.246-77.205,260.015l-2.851,3.514c19.399,6.557,37.362,17.001,52.262,31.907
			c14.906,14.898,25.348,32.865,31.905,52.264l3.516-2.853c74.769-60.661,171.432-89.643,259.032-77.147
			C504.467,286.328,513.243,277.904,511.823,267.837z"/>
	</g>
</g>
<g>
</g>
<g>
</g>
<g>
</g>
<g>
</g>
<g>
</g>
<g>
</g>
<g>
</g>
<g>
</g>
<g>
</g>
<g>
</g>
<g>
</g>
<g>
</g>
<g>
</g>
<g>
</g>
<g>
</g>
</svg>
