<?xml version="1.0" encoding="iso-8859-1"?>
<!-- Generator: Adobe Illustrator 19.0.0, SVG Export Plug-In . SVG Version: 6.00 Build 0)  -->
<svg version="1.1" id="Capa_1" xmlns="http://www.w3.org/2000/svg" xmlns:xlink="http://www.w3.org/1999/xlink" x="0px" y="0px"
	 viewBox="0 0 512 512" style="enable-background:new 0 0 512 512;" xml:space="preserve">
<g>
	<g>
		<path d="M498.871,140.636l-127.5-127.515c-17.534-17.505-46.04-17.49-63.516,0.015l-21.299,21.299
			c-5.859,5.859-5.859,15.352,0,21.211L456.362,225.45c5.86,5.86,15.351,5.86,21.211,0l21.299-21.299
			C516.376,186.647,516.376,158.156,498.871,140.636z"/>
	</g>
</g>
<g>
	<g>
		<path d="M435.078,246.633L265.375,76.93c-5.859-5.859-15.352-5.859-21.211,0s-5.859,15.352,0,21.211l10.644,10.644L224.77,138.82
			l148.418,148.418l30.035-30.038l10.644,10.644c5.86,5.86,15.351,5.86,21.211,0C440.937,261.985,440.937,252.492,435.078,246.633z"
			/>
	</g>
</g>
<g>
	<g>
		<path d="M362.67,319.142L192.865,149.337c-5.859-5.859-15.352-5.859-21.211,0l-54.902,54.902c-5.859,5.859-5.859,15.352,0,21.211
			l169.805,169.805c5.86,5.86,15.351,5.86,21.211,0l54.902-54.902C368.529,334.494,368.529,325.001,362.67,319.142z
			 M250.379,282.841c-5.858,5.859-15.355,5.859-21.213,0c-5.859-5.858-5.859-15.355,0-21.213c5.858-5.858,15.355-5.858,21.213,0
			C256.237,267.486,256.236,276.984,250.379,282.841z"/>
	</g>
</g>
<g>
	<g>
		<path d="M222.851,373.971l-84.814-84.814L95.02,332.169c-26.089-1.597-50.654,8.027-68.496,26.206
			c-35.486,35.091-35.205,92.41-0.117,127.104c35.372,35.77,92.7,34.897,127.075,0.161c18.311-17.988,27.7-42.671,26.353-68.657
			L222.851,373.971z M111.192,443.233c-11.69,11.69-30.732,11.69-42.422,0c-11.704-11.689-11.704-30.732,0-42.422
			c11.689-11.689,30.732-11.689,42.422,0C122.896,412.501,122.896,431.544,111.192,443.233z"/>
	</g>
</g>
<g>
</g>
<g>
</g>
<g>
</g>
<g>
</g>
<g>
</g>
<g>
</g>
<g>
</g>
<g>
</g>
<g>
</g>
<g>
</g>
<g>
</g>
<g>
</g>
<g>
</g>
<g>
</g>
<g>
</g>
</svg>
