<?xml version="1.0" encoding="iso-8859-1"?>
<!-- Generator: Adobe Illustrator 19.0.0, SVG Export Plug-In . SVG Version: 6.00 Build 0)  -->
<svg version="1.1" id="Layer_1" xmlns="http://www.w3.org/2000/svg" xmlns:xlink="http://www.w3.org/1999/xlink" x="0px" y="0px"
	 viewBox="0 0 512 512" style="enable-background:new 0 0 512 512;" xml:space="preserve">
<g>
	<g>
		<g>
			<polygon points="362.667,324.177 362.667,187.814 253.589,255.996 			"/>
			<path d="M256,0C114.837,0,0,114.837,0,256s114.837,256,256,256s256-114.837,256-256S397.163,0,256,0z M149.333,362.667
				c0,11.776-9.557,21.333-21.333,21.333s-21.333-9.557-21.333-21.333V149.333c0-11.776,9.557-21.333,21.333-21.333
				s21.333,9.557,21.333,21.333V362.667z M405.333,362.667c0,7.765-4.203,14.891-10.987,18.667C391.104,383.104,387.563,384,384,384
				c-3.925,0-7.851-1.088-11.307-3.243L202.027,274.091C195.797,270.187,192,263.36,192,256s3.797-14.187,10.027-18.091
				l170.667-106.667c6.592-4.139,14.869-4.352,21.653-0.576s10.987,10.901,10.987,18.667V362.667z"/>
		</g>
	</g>
</g>
<g>
</g>
<g>
</g>
<g>
</g>
<g>
</g>
<g>
</g>
<g>
</g>
<g>
</g>
<g>
</g>
<g>
</g>
<g>
</g>
<g>
</g>
<g>
</g>
<g>
</g>
<g>
</g>
<g>
</g>
</svg>
