<?xml version="1.0" encoding="iso-8859-1"?>
<!-- Generator: Adobe Illustrator 19.0.0, SVG Export Plug-In . SVG Version: 6.00 Build 0)  -->
<svg version="1.1" id="Layer_1" xmlns="http://www.w3.org/2000/svg" xmlns:xlink="http://www.w3.org/1999/xlink" x="0px" y="0px"
	 viewBox="0 0 512 512" style="enable-background:new 0 0 512 512;" xml:space="preserve">
<g>
	<g>
		<path d="M362.667,64h-21.333V21.333C341.333,9.557,331.776,0,320,0H192c-11.776,0-21.333,9.557-21.333,21.333V64h-21.333
			C137.557,64,128,73.557,128,85.333v405.333c0,11.797,9.557,21.333,21.333,21.333h213.333c11.776,0,21.333-9.536,21.333-21.333
			V85.333C384,73.557,374.443,64,362.667,64z M315.733,290.133l-64,85.333c-4.181,5.611-10.603,8.533-17.088,8.533
			c-4.437,0-8.939-1.387-12.779-4.267c-9.429-7.061-11.328-20.437-4.267-29.845l44.736-59.648l-54.165-13.547
			c-6.933-1.728-12.544-6.805-14.933-13.547c-2.389-6.741-1.259-14.229,3.029-19.925l64-85.333
			c7.061-9.451,20.416-11.307,29.867-4.267c9.429,7.061,11.349,20.437,4.267,29.845l-44.715,59.648l54.165,13.547
			c6.933,1.728,12.523,6.805,14.933,13.525C321.173,276.949,320.021,284.416,315.733,290.133z"/>
	</g>
</g>
<g>
</g>
<g>
</g>
<g>
</g>
<g>
</g>
<g>
</g>
<g>
</g>
<g>
</g>
<g>
</g>
<g>
</g>
<g>
</g>
<g>
</g>
<g>
</g>
<g>
</g>
<g>
</g>
<g>
</g>
</svg>
