<?xml version="1.0" encoding="iso-8859-1"?>
<!-- Generator: Adobe Illustrator 19.0.0, SVG Export Plug-In . SVG Version: 6.00 Build 0)  -->
<svg version="1.1" id="Layer_1" xmlns="http://www.w3.org/2000/svg" xmlns:xlink="http://www.w3.org/1999/xlink" x="0px" y="0px"
	 viewBox="0 0 512 512" style="enable-background:new 0 0 512 512;" xml:space="preserve">
<g>
	<g>
		<path d="M256,0C128.789,0,0,36.629,0,106.667V256v149.333C0,475.371,128.789,512,256,512s256-36.629,256-106.667V256V106.667
			C512,36.629,383.211,0,256,0z M106.667,299.264c-40.555-13.077-64-29.931-64-43.264v-87.637c0.661,0.405,1.472,0.747,2.155,1.152
			c5.099,3.029,10.517,5.931,16.299,8.64c0.512,0.235,0.939,0.512,1.451,0.747c6.635,3.051,13.76,5.867,21.163,8.512
			c1.152,0.405,2.368,0.789,3.541,1.195c6.229,2.155,12.693,4.16,19.392,6.037V299.264z M234.667,319.595
			c-31.68-1.067-60.395-4.48-85.333-9.387V204.267c27.093,4.8,56.021,7.744,85.333,8.683V319.595z M362.667,310.208
			c-24.939,4.907-53.653,8.32-85.333,9.387V212.949c29.312-0.939,58.24-3.883,85.333-8.683V310.208z M469.333,256
			c0,13.333-23.445,30.187-64,43.264V194.645c6.699-1.877,13.163-3.883,19.392-6.037c1.173-0.405,2.389-0.789,3.541-1.195
			c7.403-2.645,14.528-5.461,21.163-8.512c0.512-0.235,0.939-0.512,1.451-0.747c5.781-2.709,11.2-5.611,16.299-8.64
			c0.683-0.405,1.493-0.747,2.155-1.152V256z"/>
	</g>
</g>
<g>
</g>
<g>
</g>
<g>
</g>
<g>
</g>
<g>
</g>
<g>
</g>
<g>
</g>
<g>
</g>
<g>
</g>
<g>
</g>
<g>
</g>
<g>
</g>
<g>
</g>
<g>
</g>
<g>
</g>
</svg>
