<?xml version="1.0" encoding="iso-8859-1"?>
<!-- Generator: Adobe Illustrator 19.0.0, SVG Export Plug-In . SVG Version: 6.00 Build 0)  -->
<svg version="1.1" id="Layer_1" xmlns="http://www.w3.org/2000/svg" xmlns:xlink="http://www.w3.org/1999/xlink" x="0px" y="0px"
	 viewBox="0 0 512 512" style="enable-background:new 0 0 512 512;" xml:space="preserve">
<g>
	<g>
		<g>
			<polygon points="320,12.499 320,127.998 435.499,127.998 			"/>
			<path d="M298.667,170.667c-11.776,0-21.333-9.536-21.333-21.333V0h-192C73.557,0,64,9.536,64,21.333v469.333
				C64,502.464,73.557,512,85.333,512h341.333c11.776,0,21.333-9.536,21.333-21.333v-320H298.667z M170.667,128h42.667
				c11.776,0,21.333,9.536,21.333,21.333c0,11.797-9.557,21.333-21.333,21.333h-42.667c-11.776,0-21.333-9.536-21.333-21.333
				C149.333,137.536,158.891,128,170.667,128z M341.333,384H170.667c-11.776,0-21.333-9.536-21.333-21.333
				s9.557-21.333,21.333-21.333h170.667c11.776,0,21.333,9.536,21.333,21.333S353.109,384,341.333,384z M341.333,277.333H170.667
				c-11.776,0-21.333-9.536-21.333-21.333s9.557-21.333,21.333-21.333h170.667c11.776,0,21.333,9.536,21.333,21.333
				S353.109,277.333,341.333,277.333z"/>
		</g>
	</g>
</g>
<g>
</g>
<g>
</g>
<g>
</g>
<g>
</g>
<g>
</g>
<g>
</g>
<g>
</g>
<g>
</g>
<g>
</g>
<g>
</g>
<g>
</g>
<g>
</g>
<g>
</g>
<g>
</g>
<g>
</g>
</svg>
