<?xml version="1.0" encoding="iso-8859-1"?>
<!-- Generator: Adobe Illustrator 19.0.0, SVG Export Plug-In . SVG Version: 6.00 Build 0)  -->
<svg version="1.1" id="Layer_1" xmlns="http://www.w3.org/2000/svg" xmlns:xlink="http://www.w3.org/1999/xlink" x="0px" y="0px"
	 viewBox="0 0 512 512" style="enable-background:new 0 0 512 512;" xml:space="preserve">
<g>
	<g>
		<g>
			<polygon points="320,12.499 320,127.998 435.499,127.998 			"/>
			<path d="M298.667,170.667c-11.797,0-21.333-9.536-21.333-21.333V0h-192C73.536,0,64,9.536,64,21.333v469.333
				C64,502.464,73.536,512,85.333,512h341.333c11.797,0,21.333-9.536,21.333-21.333v-320H298.667z M224.448,410.965L184,443.328
				c-3.925,3.136-8.619,4.672-13.333,4.672c-5.483,0-10.944-2.112-15.083-6.251l-16.192-16.192c-8.32-8.32-8.32-21.824,0-30.165
				c8.341-8.32,21.845-8.32,30.165,0l2.688,2.688l25.536-20.459c9.237-7.381,22.656-5.867,30.016,3.328
				C235.136,390.165,233.643,403.584,224.448,410.965z M224.448,325.632L184,357.995c-3.925,3.136-8.619,4.672-13.333,4.672
				c-5.483,0-10.944-2.112-15.083-6.251l-16.192-16.192c-8.32-8.32-8.32-21.824,0-30.165c8.341-8.32,21.845-8.32,30.165,0
				l2.688,2.688l25.536-20.459c9.237-7.381,22.656-5.845,30.016,3.328C235.136,304.832,233.643,318.251,224.448,325.632z
				 M224.448,240.299L184,272.661c-3.925,3.136-8.619,4.672-13.333,4.672c-5.483,0-10.944-2.112-15.083-6.251l-16.192-16.192
				c-8.32-8.32-8.32-21.824,0-30.165c8.341-8.32,21.845-8.32,30.165,0l2.688,2.688l25.536-20.459
				c9.237-7.36,22.656-5.845,30.016,3.328C235.136,219.499,233.643,232.917,224.448,240.299z M362.667,426.667h-85.333
				c-11.797,0-21.333-9.536-21.333-21.333c0-11.797,9.536-21.333,21.333-21.333h85.333c11.797,0,21.333,9.536,21.333,21.333
				C384,417.131,374.464,426.667,362.667,426.667z M362.667,341.333h-85.333C265.536,341.333,256,331.797,256,320
				s9.536-21.333,21.333-21.333h85.333c11.797,0,21.333,9.536,21.333,21.333S374.464,341.333,362.667,341.333z M362.667,256h-85.333
				C265.536,256,256,246.464,256,234.667c0-11.797,9.536-21.333,21.333-21.333h85.333c11.797,0,21.333,9.536,21.333,21.333
				C384,246.464,374.464,256,362.667,256z"/>
		</g>
	</g>
</g>
<g>
</g>
<g>
</g>
<g>
</g>
<g>
</g>
<g>
</g>
<g>
</g>
<g>
</g>
<g>
</g>
<g>
</g>
<g>
</g>
<g>
</g>
<g>
</g>
<g>
</g>
<g>
</g>
<g>
</g>
</svg>
