<?xml version="1.0" encoding="iso-8859-1"?>
<!-- Generator: Adobe Illustrator 19.0.0, SVG Export Plug-In . SVG Version: 6.00 Build 0)  -->
<svg version="1.1" id="Layer_1" xmlns="http://www.w3.org/2000/svg" xmlns:xlink="http://www.w3.org/1999/xlink" x="0px" y="0px"
	 viewBox="0 0 512 512" style="enable-background:new 0 0 512 512;" xml:space="preserve">
<g>
	<g>
		<g>
			<path d="M256,320c-11.776,0-21.333,9.579-21.333,21.333c0,11.755,9.557,21.333,21.333,21.333s21.333-9.579,21.333-21.333
				C277.333,329.579,267.776,320,256,320z"/>
			<path d="M362.667,208.32V106.667C362.667,47.851,314.816,0,256,0S149.333,47.851,149.333,106.667V208.32
				c-38.955,31.296-64,79.253-64,133.013C85.333,435.435,161.899,512,256,512s170.667-76.565,170.667-170.667
				C426.667,287.573,401.621,239.616,362.667,208.32z M192,106.667c0-35.285,28.715-64,64-64s64,28.715,64,64v76.459
				c-2.091-0.832-4.245-1.451-6.357-2.219c-2.688-0.981-5.333-2.005-8.085-2.837c-2.859-0.875-5.803-1.536-8.725-2.261
				c-2.432-0.597-4.821-1.301-7.296-1.792c-3.456-0.683-6.976-1.131-10.475-1.6c-2.048-0.277-4.032-0.683-6.101-0.896
				c-5.611-0.555-11.264-0.853-16.96-0.853s-11.349,0.299-16.96,0.853c-2.069,0.213-4.075,0.619-6.101,0.896
				c-3.52,0.469-7.019,0.917-10.475,1.6c-2.475,0.491-4.864,1.195-7.317,1.792c-2.901,0.725-5.845,1.387-8.704,2.261
				c-2.752,0.832-5.419,1.877-8.107,2.837c-2.112,0.768-4.267,1.387-6.336,2.219V106.667z M341.333,362.667h-25.259
				c-6.443,18.069-20.672,32.299-38.741,38.741v25.259c0,11.776-9.536,21.333-21.333,21.333s-21.333-9.557-21.333-21.333v-25.259
				c-18.069-6.443-32.299-20.672-38.741-38.741h-25.259c-11.797,0-21.333-9.557-21.333-21.333c0-11.776,9.536-21.333,21.333-21.333
				h25.259c6.443-18.069,20.672-32.299,38.741-38.741V256c0-11.776,9.536-21.333,21.333-21.333s21.333,9.557,21.333,21.333v25.259
				c18.069,6.443,32.299,20.672,38.741,38.741h25.259c11.797,0,21.333,9.557,21.333,21.333
				C362.667,353.109,353.131,362.667,341.333,362.667z"/>
		</g>
	</g>
</g>
<g>
</g>
<g>
</g>
<g>
</g>
<g>
</g>
<g>
</g>
<g>
</g>
<g>
</g>
<g>
</g>
<g>
</g>
<g>
</g>
<g>
</g>
<g>
</g>
<g>
</g>
<g>
</g>
<g>
</g>
</svg>
