<?xml version="1.0" encoding="iso-8859-1"?>
<!-- Generator: Adobe Illustrator 19.0.0, SVG Export Plug-In . SVG Version: 6.00 Build 0)  -->
<svg version="1.1" id="Layer_1" xmlns="http://www.w3.org/2000/svg" xmlns:xlink="http://www.w3.org/1999/xlink" x="0px" y="0px"
	 viewBox="0 0 511.992 511.992" style="enable-background:new 0 0 511.992 511.992;" xml:space="preserve">
<g>
	<g>
		<g>
			<path d="M511.932,489.132l-21.333-298.667c-0.789-11.157-10.091-19.819-21.269-19.819h-85.333
				c-11.797,0-21.333,9.557-21.333,21.333c0,11.797,9.536,21.333,21.333,21.333h65.472l18.283,256H44.242l18.283-256h65.472
				c11.797,0,21.333-9.536,21.333-21.333c0-11.776-9.536-21.333-21.333-21.333H42.663c-11.179,0-20.48,8.661-21.269,19.819
				L0.06,489.132c-0.448,5.909,1.621,11.733,5.653,16.064c4.032,4.331,9.707,6.784,15.616,6.784h469.333
				c5.909,0,11.584-2.453,15.595-6.784C510.311,500.866,512.38,495.042,511.932,489.132z"/>
			<path d="M347.181,312.435c3.819,7.275,11.221,11.435,18.923,11.435c3.328,0,6.72-0.789,9.899-2.453
				c17.259-9.045,30.635-20.907,39.765-35.2c6.315-9.941,3.392-23.125-6.549-29.461c-9.899-6.315-23.104-3.392-29.461,6.507
				c-5.056,7.957-12.992,14.827-23.595,20.373C345.731,289.117,341.699,302.003,347.181,312.435z"/>
			<path d="M158.765,360.08c3.627,0,7.317-0.917,10.688-2.88c9.579-5.568,20.843-9.728,33.429-12.416
				c11.541-2.475,18.88-13.803,16.448-25.323c-2.475-11.52-13.845-18.901-25.323-16.405c-17.024,3.627-32.491,9.429-45.973,17.237
				c-10.176,5.909-13.675,18.965-7.744,29.141C144.237,356.262,151.405,360.08,158.765,360.08z"/>
			<path d="M125.266,365.872c-10.667-4.864-23.381-0.149-28.245,10.581C85.884,400.88,85.33,422.555,85.33,426.651
				c0,11.776,9.536,21.333,21.333,21.333c11.797,0,21.333-9.557,21.333-21.333c0-0.619,0.085-15.467,7.851-32.512
				C140.732,383.408,135.996,370.758,125.266,365.872z"/>
			<path d="M163.621,159.688c6.421,12.523,12.48,24.341,17.323,37.632l55.403,130.987c3.328,7.893,11.093,13.013,19.648,13.013
				c0.939,0,1.813-0.277,2.731-0.405c0.917,0.149,1.728,0.619,2.709,0.64c4.629,0.171,9.088,0.235,13.419,0.235
				c11.221,0,21.973-0.491,31.979-1.493c11.733-1.173,20.288-11.627,19.115-23.36c-1.152-11.712-11.669-20.309-23.317-19.115
				c-4.608,0.469-9.536,0.683-14.507,0.896l43.563-103.147c4.459-12.224,10.56-24.021,17.024-36.523l2.347-4.565v-0.043
				c12.757-24.875,15.083-52.523,6.72-79.893c-10.816-35.499-41.152-63.701-77.312-71.808c-32.427-7.296-65.6,0.213-91.072,20.587
				c-25.451,20.373-40.064,50.752-40.064,83.328c0,16.597,3.861,32.597,11.456,47.509L163.621,159.688z M255.994,85.32
				c11.776,0,21.333,9.557,21.333,21.333s-9.557,21.333-21.333,21.333c-11.776,0-21.333-9.557-21.333-21.333
				S244.218,85.32,255.994,85.32z"/>
		</g>
	</g>
</g>
<g>
</g>
<g>
</g>
<g>
</g>
<g>
</g>
<g>
</g>
<g>
</g>
<g>
</g>
<g>
</g>
<g>
</g>
<g>
</g>
<g>
</g>
<g>
</g>
<g>
</g>
<g>
</g>
<g>
</g>
</svg>
