<?xml version="1.0" encoding="iso-8859-1"?>
<!-- Generator: Adobe Illustrator 19.0.0, SVG Export Plug-In . SVG Version: 6.00 Build 0)  -->
<svg version="1.1" id="Layer_1" xmlns="http://www.w3.org/2000/svg" xmlns:xlink="http://www.w3.org/1999/xlink" x="0px" y="0px"
	 viewBox="0 0 512.002 512.002" style="enable-background:new 0 0 512.002 512.002;" xml:space="preserve">
<g>
	<g>
		<g>
			<polygon points="192,475.327 320,507.306 320,36.671 192,4.671 			"/>
			<path d="M0,63.999v426.667c0,6.677,3.136,12.992,8.491,17.045c3.733,2.795,8.256,4.288,12.843,4.288
				c1.963,0,3.947-0.277,5.867-0.811l122.133-34.901V5.226L15.467,43.476C6.315,46.1,0,54.463,0,63.999z"/>
			<path d="M503.511,4.287c-5.333-4.011-12.267-5.291-18.709-3.477L362.669,35.711v471.061l133.867-38.251
				c9.152-2.624,15.467-11.008,15.467-20.523V21.332C512.002,14.634,508.845,8.319,503.511,4.287z"/>
		</g>
	</g>
</g>
<g>
</g>
<g>
</g>
<g>
</g>
<g>
</g>
<g>
</g>
<g>
</g>
<g>
</g>
<g>
</g>
<g>
</g>
<g>
</g>
<g>
</g>
<g>
</g>
<g>
</g>
<g>
</g>
<g>
</g>
</svg>
