<?xml version="1.0" encoding="iso-8859-1"?>
<!-- Generator: Adobe Illustrator 19.0.0, SVG Export Plug-In . SVG Version: 6.00 Build 0)  -->
<svg version="1.1" id="Layer_1" xmlns="http://www.w3.org/2000/svg" xmlns:xlink="http://www.w3.org/1999/xlink" x="0px" y="0px"
	 viewBox="0 0 512 512" style="enable-background:new 0 0 512 512;" xml:space="preserve">
<g>
	<g>
		<g>
			<path d="M128,106.667c-11.755,0-21.333,9.579-21.333,21.333c0,11.755,9.579,21.333,21.333,21.333
				c11.755,0,21.333-9.579,21.333-21.333C149.333,116.245,139.755,106.667,128,106.667z"/>
			<path d="M426.667,256C473.728,256,512,217.728,512,170.667V85.333C512,38.272,473.728,0,426.667,0H85.333
				C38.272,0,0,38.272,0,85.333v85.333C0,217.728,38.272,256,85.333,256h149.333v88.363c-29.845,7.765-53.205,31.125-60.971,60.971
				H21.333C9.557,405.333,0,414.891,0,426.667S9.557,448,21.333,448h152.363c9.536,36.693,42.667,64,82.304,64
				s72.768-27.307,82.304-64h152.363c11.797,0,21.333-9.557,21.333-21.333s-9.536-21.333-21.333-21.333H338.304
				c-7.765-29.845-31.125-53.205-60.971-60.971V256H426.667z M128,192c-35.285,0-64-28.715-64-64s28.715-64,64-64s64,28.715,64,64
				S163.285,192,128,192z M448,170.667c0,11.776-9.557,21.333-21.333,21.333h-128c-11.776,0-21.333-9.557-21.333-21.333
				s9.557-21.333,21.333-21.333h128C438.443,149.333,448,158.891,448,170.667z M256,106.667c-11.776,0-21.333-9.557-21.333-21.333
				S244.224,64,256,64h128c11.776,0,21.333,9.557,21.333,21.333s-9.557,21.333-21.333,21.333H256z"/>
		</g>
	</g>
</g>
<g>
</g>
<g>
</g>
<g>
</g>
<g>
</g>
<g>
</g>
<g>
</g>
<g>
</g>
<g>
</g>
<g>
</g>
<g>
</g>
<g>
</g>
<g>
</g>
<g>
</g>
<g>
</g>
<g>
</g>
</svg>
