<?xml version="1.0" encoding="iso-8859-1"?>
<!-- Generator: Adobe Illustrator 19.0.0, SVG Export Plug-In . SVG Version: 6.00 Build 0)  -->
<svg version="1.1" id="Layer_1" xmlns="http://www.w3.org/2000/svg" xmlns:xlink="http://www.w3.org/1999/xlink" x="0px" y="0px"
	 viewBox="0 0 512.002 512.002" style="enable-background:new 0 0 512.002 512.002;" xml:space="preserve">
<g>
	<g>
		<path d="M511.778,352.628l-9.105-63.622H9.328l-9.105,63.622c-0.913,6.411,1.002,12.867,5.209,17.742
			c4.252,4.875,10.374,7.68,16.829,7.68h155.826v89.044c0,12.31,9.951,22.261,22.261,22.261h89.043
			c12.31,0,22.261-9.951,22.261-22.261V378.05H489.74c6.456,0,12.577-2.805,16.829-7.68
			C510.776,365.495,512.691,359.04,511.778,352.628z M267.131,444.833h-44.522V378.05h44.522V444.833z"/>
	</g>
</g>
<g>
	<g>
		<path d="M467.261,41.746c-1.581-10.952-10.975-19.1-22.038-19.1H155.831v43.743c0,12.31-9.973,22.261-22.261,22.261
			c-12.31,0-22.261-9.951-22.261-22.261V22.647H66.788c-11.064,0-20.458,8.147-22.038,19.1L15.7,244.477h480.59L467.261,41.746z"/>
	</g>
</g>
<g>
</g>
<g>
</g>
<g>
</g>
<g>
</g>
<g>
</g>
<g>
</g>
<g>
</g>
<g>
</g>
<g>
</g>
<g>
</g>
<g>
</g>
<g>
</g>
<g>
</g>
<g>
</g>
<g>
</g>
</svg>
