<?xml version="1.0" encoding="iso-8859-1"?>
<!-- Generator: Adobe Illustrator 19.0.0, SVG Export Plug-In . SVG Version: 6.00 Build 0)  -->
<svg version="1.1" id="Layer_1" xmlns="http://www.w3.org/2000/svg" xmlns:xlink="http://www.w3.org/1999/xlink" x="0px" y="0px"
	 viewBox="0 0 512 512" style="enable-background:new 0 0 512 512;" xml:space="preserve">
<g>
	<g>
		<g>
			<path d="M341.333,0H170.667v149.333h170.667V0z M234.667,106.667c0,11.776-9.536,21.333-21.333,21.333
				C201.536,128,192,118.443,192,106.667V85.333C192,73.557,201.536,64,213.333,64c11.797,0,21.333,9.557,21.333,21.333V106.667z
				 M320,106.667c0,11.776-9.536,21.333-21.333,21.333c-11.797,0-21.333-9.557-21.333-21.333V85.333
				c0-11.776,9.536-21.333,21.333-21.333C310.464,64,320,73.557,320,85.333V106.667z"/>
			<path d="M505.749,112.917L399.083,6.251C395.093,2.261,389.675,0,384,0v170.667c0,11.776-9.536,21.333-21.333,21.333H149.333
				C137.536,192,128,182.443,128,170.667V0H21.333C9.536,0,0,9.557,0,21.333v469.333C0,502.443,9.536,512,21.333,512h85.333V298.667
				c0-11.776,9.536-21.333,21.333-21.333h256c11.797,0,21.333,9.557,21.333,21.333V512h85.333c11.797,0,21.333-9.557,21.333-21.333
				V128C512,122.347,509.739,116.907,505.749,112.917z"/>
			<path d="M149.333,512h213.333V320H149.333V512z M213.333,341.333h85.333c11.797,0,21.333,9.557,21.333,21.333
				S310.464,384,298.667,384h-85.333C201.536,384,192,374.443,192,362.667S201.536,341.333,213.333,341.333z M192,405.333h128
				c11.797,0,21.333,9.557,21.333,21.333S331.797,448,320,448H192c-11.797,0-21.333-9.557-21.333-21.333
				S180.203,405.333,192,405.333z"/>
		</g>
	</g>
</g>
<g>
</g>
<g>
</g>
<g>
</g>
<g>
</g>
<g>
</g>
<g>
</g>
<g>
</g>
<g>
</g>
<g>
</g>
<g>
</g>
<g>
</g>
<g>
</g>
<g>
</g>
<g>
</g>
<g>
</g>
</svg>
