<?xml version="1.0" encoding="iso-8859-1"?>
<!-- Generator: Adobe Illustrator 19.0.0, SVG Export Plug-In . SVG Version: 6.00 Build 0)  -->
<svg version="1.1" id="Layer_1" xmlns="http://www.w3.org/2000/svg" xmlns:xlink="http://www.w3.org/1999/xlink" x="0px" y="0px"
	 viewBox="0 0 510.912 510.912" style="enable-background:new 0 0 510.912 510.912;" xml:space="preserve">
<g>
	<g>
		<path d="M383.456,298.667c0-11.797,9.536-21.333,21.333-21.333h62.912c-5.333-53.397-30.549-100.928-67.989-135.424l41.429-41.429
			c8.341-8.341,8.341-21.824,0-30.165c-8.341-8.341-21.824-8.341-30.165,0l-45.653,45.653
			c-14.272-8.619-29.675-15.509-45.867-20.608V21.333C319.456,9.536,309.92,0,298.123,0h-85.333
			c-11.797,0-21.333,9.536-21.333,21.333V95.36c-16.192,5.099-31.595,11.989-45.867,20.608L99.872,70.251
			c-8.341-8.341-21.824-8.341-30.165,0c-8.341,8.341-8.341,21.824,0,30.165l41.493,41.493
			c-37.44,34.496-62.656,82.027-67.989,135.424h62.912c11.797,0,21.333,9.536,21.333,21.333c0,11.797-9.536,21.333-21.333,21.333
			H43.211c10.027,100.629,90.283,180.885,190.912,190.912V448c0-11.797,9.536-21.333,21.333-21.333
			c11.797,0,21.333,9.536,21.333,21.333v62.912C377.419,500.885,457.675,420.629,467.701,320h-62.912
			C392.992,320,383.456,310.464,383.456,298.667z M234.123,86.421V42.667h42.667v43.755v0.043
			c-7.168-0.747-14.293-1.131-21.333-1.131c-7.04,0-14.165,0.384-21.333,1.131V86.421z M234.123,129.536
			c14.272-1.856,28.395-1.856,42.667,0v19.797c0,11.797-9.536,21.333-21.333,21.333c-11.797,0-21.333-9.536-21.333-21.333V129.536z
			 M270.539,313.749c-4.16,4.16-9.621,6.251-15.083,6.251c-5.461,0-10.923-2.091-15.083-6.251l-64-64
			c-8.341-8.341-8.341-21.824,0-30.165c8.341-8.341,21.824-8.341,30.165,0l64,64C278.88,291.925,278.88,305.408,270.539,313.749z"/>
	</g>
</g>
<g>
</g>
<g>
</g>
<g>
</g>
<g>
</g>
<g>
</g>
<g>
</g>
<g>
</g>
<g>
</g>
<g>
</g>
<g>
</g>
<g>
</g>
<g>
</g>
<g>
</g>
<g>
</g>
<g>
</g>
</svg>
