<?xml version="1.0" encoding="iso-8859-1"?>
<!-- Generator: Adobe Illustrator 19.0.0, SVG Export Plug-In . SVG Version: 6.00 Build 0)  -->
<svg version="1.1" id="Layer_1" xmlns="http://www.w3.org/2000/svg" xmlns:xlink="http://www.w3.org/1999/xlink" x="0px" y="0px"
	 viewBox="0 0 512 512" style="enable-background:new 0 0 512 512;" xml:space="preserve">
<g>
	<g>
		<g>
			<path d="M384,128c-70.592,0-128,57.408-128,128s57.408,128,128,128s128-57.408,128-128S454.592,128,384,128z"/>
			<path d="M85.333,170.667C38.272,170.667,0,208.939,0,256s38.272,85.333,85.333,85.333h151.083
				c-14.592-25.131-23.083-54.229-23.083-85.333s8.491-60.203,23.083-85.333H85.333z M149.333,277.333h-42.667
				c-11.776,0-21.333-9.557-21.333-21.333s9.557-21.333,21.333-21.333h42.667c11.776,0,21.333,9.557,21.333,21.333
				S161.109,277.333,149.333,277.333z"/>
		</g>
	</g>
</g>
<g>
</g>
<g>
</g>
<g>
</g>
<g>
</g>
<g>
</g>
<g>
</g>
<g>
</g>
<g>
</g>
<g>
</g>
<g>
</g>
<g>
</g>
<g>
</g>
<g>
</g>
<g>
</g>
<g>
</g>
</svg>
