<?xml version="1.0" encoding="iso-8859-1"?>
<!-- Generator: Adobe Illustrator 19.0.0, SVG Export Plug-In . SVG Version: 6.00 Build 0)  -->
<svg version="1.1" id="Layer_1" xmlns="http://www.w3.org/2000/svg" xmlns:xlink="http://www.w3.org/1999/xlink" x="0px" y="0px"
	 viewBox="0 0 512 512" style="enable-background:new 0 0 512 512;" xml:space="preserve">
<g>
	<g>
		<g>
			<path d="M128,170.667c11.797,0,21.333-9.557,21.333-21.333c0-58.816,47.851-106.667,106.667-106.667
				s106.667,47.851,106.667,106.667v85.333c0,2.603,0.619,5.035,1.493,7.339L222.165,384h67.669l167.979-167.979
				c-2.987-1.579-6.208-2.688-9.813-2.688h-42.667v-64C405.333,66.987,338.325,0,256,0S106.667,66.987,106.667,149.333
				C106.667,161.109,116.203,170.667,128,170.667z"/>
			<path d="M42.667,490.667C42.667,502.443,52.203,512,64,512h384c11.797,0,21.333-9.557,21.333-21.333v-64H42.667V490.667z"/>
			<polygon points="350.168,384 469.335,384 469.335,264.832 			"/>
			<polygon points="94.168,384 161.837,384 332.504,213.333 264.834,213.333 			"/>
			<path d="M204.499,213.333H63.998c-11.797,0-21.333,9.557-21.333,21.333V384c0-5.461,2.091-10.923,6.251-15.083L204.499,213.333z"
				/>
		</g>
	</g>
</g>
<g>
</g>
<g>
</g>
<g>
</g>
<g>
</g>
<g>
</g>
<g>
</g>
<g>
</g>
<g>
</g>
<g>
</g>
<g>
</g>
<g>
</g>
<g>
</g>
<g>
</g>
<g>
</g>
<g>
</g>
</svg>
