<?xml version="1.0" encoding="iso-8859-1"?>
<!-- Generator: Adobe Illustrator 19.0.0, SVG Export Plug-In . SVG Version: 6.00 Build 0)  -->
<svg version="1.1" id="Layer_1" xmlns="http://www.w3.org/2000/svg" xmlns:xlink="http://www.w3.org/1999/xlink" x="0px" y="0px"
	 viewBox="0 0 511.936 511.936" style="enable-background:new 0 0 511.936 511.936;" xml:space="preserve">
<g>
	<g>
		<path d="M418.357,342.016c-1.195-0.512-2.432-0.917-3.712-1.195l-73.344-16.533v-37.376c27.243-24.32,42.667-58.368,42.667-94.912
			v-74.219C383.968,52.843,331.125,0,266.165,0h-20.416c-64.96,0-117.781,52.843-117.781,117.781V192
			c0,36.544,15.403,70.592,42.667,94.912v37.376l-73.365,16.533c-1.259,0.277-2.517,0.683-3.712,1.195
			c-30.933,13.269-50.923,43.584-50.923,77.248v43.989c0,9.749,6.613,18.283,16.085,20.672l35.563,9.024
			c52.672,12.651,106.944,18.987,161.344,18.987c54.485,0,109.056-6.336,162.283-19.051l35.307-8.96
			c9.451-2.389,16.085-10.923,16.085-20.672v-43.989C469.301,385.6,449.291,355.285,418.357,342.016z"/>
	</g>
</g>
<g>
</g>
<g>
</g>
<g>
</g>
<g>
</g>
<g>
</g>
<g>
</g>
<g>
</g>
<g>
</g>
<g>
</g>
<g>
</g>
<g>
</g>
<g>
</g>
<g>
</g>
<g>
</g>
<g>
</g>
</svg>
