<?xml version="1.0" encoding="iso-8859-1"?>
<!-- Generator: Adobe Illustrator 19.0.0, SVG Export Plug-In . SVG Version: 6.00 Build 0)  -->
<svg version="1.1" id="Layer_1" xmlns="http://www.w3.org/2000/svg" xmlns:xlink="http://www.w3.org/1999/xlink" x="0px" y="0px"
	 viewBox="0 0 511.996 511.996" style="enable-background:new 0 0 511.996 511.996;" xml:space="preserve">
<g>
	<g>
		<g>
			<path d="M170.669,289.329h-6.187c-42.304,0-76.117,29.248-80.811,69.675v76.416c13.547,12.395,28.373,23.339,44.331,32.619
				V353.329c0-11.776,9.536-21.333,21.333-21.333h21.333V289.329z"/>
			<path d="M511.996,246.667c0-107.392-66.56-199.403-160.533-237.333c20.544,20.715,34.56,47.936,38.165,78.08
				c6.784,56.661-12.096,127.061-53.888,159.253h11.776c63.915,0,116.971,46.848,123.392,108.992
				c0.064,0.725,0.085,1.451,0.085,2.176v27.307C496.828,345.163,511.996,297.696,511.996,246.667z"/>
			<path d="M213.805,219.311c12.48,4.608,20.864,16.768,20.864,30.293v5.141c0,13.248-8.277,27.093-21.333,32.32v44.928h85.333
				v-44.928c-13.056-5.227-21.333-19.072-21.333-32.32v-5.227c0-13.589,8.384-25.515,21.312-30.379
				c29.525-11.115,48.384-61.141,49.493-105.429c-2.411,0.875-4.821,1.771-7.509,2.432c-6.741,1.707-13.739,2.539-20.992,2.539
				c-22.549,0-47.573-8.192-74.667-24.491c-53.995-32.491-75.008-12.672-79.253-7.488c-1.045,5.632-1.685,11.392-1.685,17.259
				C164.034,150.767,184.045,208.303,213.805,219.311z"/>
			<path d="M341.158,69.958c-12.309-30.677-40.661-53.589-74.475-57.365c-3.499-0.384-6.571-0.341-10.389-0.576
				c-22.101,0-42.517,7.915-59.029,21.76c18.944,0.811,41.984,7.168,69.717,23.851C310.054,83.569,331.857,76.593,341.158,69.958z"
				/>
			<path d="M170.669,487.729c26.731,9.515,55.381,14.933,85.333,14.933s58.603-5.419,85.333-14.933V374.662H170.669V487.729z"/>
			<path d="M176.661,246.671c-40.107-31.723-55.275-99.115-55.275-142.72c0-35.648,13.781-69.141,38.784-94.507
				C66.389,47.482,0,139.407,0,246.671c0,51.029,15.168,98.496,41.003,138.475v-27.307c0-0.725,0.043-1.451,0.107-2.197
				c6.421-62.123,59.456-108.971,123.371-108.971H176.661z"/>
			<path d="M347.524,289.338h-6.187v42.667h21.333c11.797,0,21.333,9.536,21.333,21.333v114.709
				c15.957-9.28,30.784-20.245,44.331-32.619v-76.416C423.642,318.564,389.828,289.338,347.524,289.338z"/>
		</g>
	</g>
</g>
<g>
</g>
<g>
</g>
<g>
</g>
<g>
</g>
<g>
</g>
<g>
</g>
<g>
</g>
<g>
</g>
<g>
</g>
<g>
</g>
<g>
</g>
<g>
</g>
<g>
</g>
<g>
</g>
<g>
</g>
</svg>
