<?xml version="1.0" encoding="iso-8859-1"?>
<!-- Generator: Adobe Illustrator 19.0.0, SVG Export Plug-In . SVG Version: 6.00 Build 0)  -->
<svg version="1.1" id="Layer_1" xmlns="http://www.w3.org/2000/svg" xmlns:xlink="http://www.w3.org/1999/xlink" x="0px" y="0px"
	 viewBox="0 0 511.996 511.996" style="enable-background:new 0 0 511.996 511.996;" xml:space="preserve">
<g>
	<g>
		<g>
			<path d="M511.996,246.666c0-107.392-66.56-199.403-160.533-237.333c20.544,20.715,34.56,47.936,38.165,78.08
				c6.784,56.661-12.096,127.061-53.888,159.253h11.776c63.915,0,116.971,46.848,123.392,108.992
				c0.064,0.725,0.085,1.451,0.085,2.176v27.307C496.828,345.162,511.996,297.695,511.996,246.666z"/>
			<path d="M213.818,219.303c12.48,4.608,20.843,16.789,20.843,30.293v5.141c0,6.805-2.24,13.739-6.101,19.648l27.435,27.435
				l27.456-27.435c-3.861-5.909-6.123-12.843-6.123-19.648v-5.205c0-13.611,8.384-25.536,21.312-30.4
				c29.547-11.093,48.384-61.141,49.493-105.408c-2.411,0.875-4.821,1.749-7.509,2.432c-6.72,1.685-13.717,2.517-20.971,2.517
				c-22.571,0-47.595-8.171-74.667-24.491c-53.995-32.491-75.008-12.672-79.253-7.488c-1.067,5.632-1.685,11.392-1.685,17.259
				C164.047,150.759,184.036,208.295,213.818,219.303z"/>
			<path d="M176.661,246.67c-40.107-31.723-55.275-99.115-55.275-142.72c0-35.648,13.781-69.141,38.784-94.507
				C66.389,47.481,0,139.406,0,246.67c0,51.029,15.168,98.496,41.003,138.475v-27.307c0-0.725,0.043-1.451,0.107-2.197
				c6.421-62.123,59.456-108.971,123.371-108.971H176.661z"/>
			<path d="M341.158,69.936c-12.309-30.656-40.661-53.568-74.475-57.344c-3.499-0.384-6.955-0.341-10.389-0.576
				c-22.101,0-42.517,7.915-59.029,21.76c18.944,0.811,41.984,7.168,69.717,23.851C310.054,83.589,331.857,76.592,341.158,69.936z"
				/>
			<path d="M347.524,289.33h-18.688l-57.749,57.749c-4.16,4.16-9.621,6.251-15.083,6.251c-5.461,0-10.923-2.091-15.083-6.251
				l-57.749-57.749h-18.688c-42.325,0-76.139,29.227-80.811,69.675v76.416c45.525,41.621,105.92,67.243,172.331,67.243
				s126.784-25.621,172.331-67.243v-76.416C423.642,318.557,389.828,289.33,347.524,289.33z"/>
		</g>
	</g>
</g>
<g>
</g>
<g>
</g>
<g>
</g>
<g>
</g>
<g>
</g>
<g>
</g>
<g>
</g>
<g>
</g>
<g>
</g>
<g>
</g>
<g>
</g>
<g>
</g>
<g>
</g>
<g>
</g>
<g>
</g>
</svg>
