<?xml version="1.0" encoding="iso-8859-1"?>
<!-- Generator: Adobe Illustrator 19.0.0, SVG Export Plug-In . SVG Version: 6.00 Build 0)  -->
<svg version="1.1" id="Layer_1" xmlns="http://www.w3.org/2000/svg" xmlns:xlink="http://www.w3.org/1999/xlink" x="0px" y="0px"
	 viewBox="0 0 512 512" style="enable-background:new 0 0 512 512;" xml:space="preserve">
<g>
	<g>
		<g>
			<path d="M274.509,181.418c-7.573-13.291-29.461-13.291-37.035,0L66.807,480.084c-3.776,6.592-3.755,14.699,0.064,21.291
				s10.859,10.624,18.453,10.624h341.333c7.595,0,14.635-4.032,18.453-10.624c3.819-6.592,3.84-14.699,0.064-21.291L274.509,181.418
				z M255.991,447.999c-11.776,0-21.333-9.557-21.333-21.333s9.557-21.333,21.333-21.333c11.776,0,21.333,9.557,21.333,21.333
				S267.767,447.999,255.991,447.999z M277.325,362.666c0,11.797-9.536,21.333-21.333,21.333c-11.797,0-21.333-9.536-21.333-21.333
				v-42.667c0-11.797,9.536-21.333,21.333-21.333c11.797,0,21.333,9.536,21.333,21.333V362.666z"/>
			<path d="M446.784,154.113C437.035,80.726,369.835,0.001,289.024,0.001c-43.328,0-87.381,21.291-116.8,55.445
				c-9.408-3.435-19.371-5.205-29.525-5.205c-45.973,0-83.648,36.224-85.952,81.643C22.784,153.772,0,194.198,0,234.668
				c0,25.344,8.405,53.461,23.061,77.12c14.336,23.168,37.547,39.808,63.957,46.955l113.408-198.485
				c11.072-19.413,32.363-31.488,55.573-31.488c23.211,0,44.501,12.075,55.573,31.509L425.685,359.98
				c44.928-9.621,80.747-46.101,85.611-91.157c0.469-4.203,0.704-8.491,0.704-12.821C512,207.02,486.912,168.684,446.784,154.113z"
				/>
		</g>
	</g>
</g>
<g>
</g>
<g>
</g>
<g>
</g>
<g>
</g>
<g>
</g>
<g>
</g>
<g>
</g>
<g>
</g>
<g>
</g>
<g>
</g>
<g>
</g>
<g>
</g>
<g>
</g>
<g>
</g>
<g>
</g>
</svg>
