<?xml version="1.0" encoding="iso-8859-1"?>
<!-- Generator: Adobe Illustrator 19.0.0, SVG Export Plug-In . SVG Version: 6.00 Build 0)  -->
<svg version="1.1" id="Layer_1" xmlns="http://www.w3.org/2000/svg" xmlns:xlink="http://www.w3.org/1999/xlink" x="0px" y="0px"
	 viewBox="0 0 512 512" style="enable-background:new 0 0 512 512;" xml:space="preserve">
<g>
	<g>
		<g>
			<path d="M256.1,255.887c-11.776,0-21.333,9.579-21.333,21.333c0,11.755,9.557,21.333,21.333,21.333
				c11.776,0,21.333-9.579,21.333-21.333C277.434,265.466,267.876,255.887,256.1,255.887z"/>
			<path d="M0,0v512h512V0H0z M256.107,341.227c-35.307,0-64-28.715-64-64c0-35.307,28.693-64,64-64c35.285,0,64,28.693,64,64
				C320.107,312.512,291.392,341.227,256.107,341.227z M346.603,389.056c-5.461,0-10.923-2.069-15.083-6.251
				c-8.341-8.32-8.341-21.845,0-30.165c20.096-20.117,31.189-46.891,31.189-75.413c0-28.544-11.093-55.317-31.189-75.435
				c-20.117-20.096-46.891-31.168-75.413-31.168c-28.523,0-55.317,11.072-75.413,31.168c-20.117,20.117-31.189,46.891-31.189,75.435
				c0,28.523,11.072,55.296,31.189,75.413c8.32,8.32,8.32,21.845,0,30.165c-8.341,8.341-21.845,8.341-30.187,0
				c-28.16-28.16-43.669-65.664-43.669-105.579c0-39.936,15.509-77.44,43.669-105.6c28.181-28.16,65.685-43.669,105.6-43.669
				c39.915,0,77.419,15.509,105.579,43.669c28.16,28.16,43.691,65.664,43.691,105.6c0,39.915-15.531,77.419-43.691,105.579
				C357.525,386.987,352.064,389.056,346.603,389.056z M422.037,443.157c-4.16,4.16-9.621,6.251-15.083,6.251
				c-5.461,0-10.923-2.091-15.083-6.251c-8.341-8.32-8.341-21.824,0-30.165c74.859-74.859,74.859-196.672,0-271.552
				c-74.88-74.816-196.672-74.837-271.552,0c-74.837,74.88-74.837,196.693,0,271.552c8.341,8.341,8.341,21.845,0,30.165
				c-8.32,8.341-21.824,8.341-30.165,0c-91.499-91.499-91.499-240.384,0-331.883s240.384-91.456,331.883,0
				C513.536,202.773,513.536,351.659,422.037,443.157z"/>
		</g>
	</g>
</g>
<g>
</g>
<g>
</g>
<g>
</g>
<g>
</g>
<g>
</g>
<g>
</g>
<g>
</g>
<g>
</g>
<g>
</g>
<g>
</g>
<g>
</g>
<g>
</g>
<g>
</g>
<g>
</g>
<g>
</g>
</svg>
