<?xml version="1.0" encoding="iso-8859-1"?>
<!-- Generator: Adobe Illustrator 19.0.0, SVG Export Plug-In . SVG Version: 6.00 Build 0)  -->
<svg version="1.1" id="Layer_1" xmlns="http://www.w3.org/2000/svg" xmlns:xlink="http://www.w3.org/1999/xlink" x="0px" y="0px"
	 viewBox="0 0 490 490" style="enable-background:new 0 0 490 490;" xml:space="preserve">
<g>
	<g>
		<g>
			<path d="M0,432v28c0,5.523,4.477,10,10,10h470c5.523,0,10-4.477,10-10v-28H0z"/>
			<path d="M190.5,390h45v20h20v-20h45c5.523,0,10-4.477,10-10v-40v-40c0-5.523-4.477-10-10-10h-45v-20h45c5.523,0,10-4.477,10-10
				v-40c0-5.523-4.477-10-10-10h-45v-20h45c5.523,0,10-4.477,10-10v-40c0-5.523-4.477-10-10-10h-45V20h-20v110h-45
				c-5.523,0-10,4.477-10,10v40c0,5.523,4.477,10,10,10h45v20h-45c-5.523,0-10,4.477-10,10v40c0,5.523,4.477,10,10,10h45v20h-45
				c-5.523,0-10,4.477-10,10v40v40C180.5,385.523,184.977,390,190.5,390z M200.5,170v-20h90v20H200.5z M200.5,250v-20h90v20H200.5z
				 M200.5,310h90v20h-90V310z M200.5,350h90v20h-90V350z"/>
			<path d="M30.5,360h45v50h20v-50h45c5.523,0,10-4.477,10-10v-40v-40v-40c0-5.523-4.477-10-10-10h-45v-70h45
				c5.523,0,10-4.477,10-10v-40c0-5.523-4.477-10-10-10h-45V20h-20v70h-45c-5.523,0-10,4.477-10,10v40c0,5.523,4.477,10,10,10h45v70
				h-45c-5.523,0-10,4.477-10,10v40v40v40C20.5,355.523,24.977,360,30.5,360z M40.5,130v-20h90v20H40.5z M40.5,240h90v20h-90V240z
				 M40.5,280h90v20h-90V280z M40.5,320h90v20h-90V320z"/>
			<path d="M350.5,380h45v30h20v-30h45c5.523,0,10-4.477,10-10v-40c0-5.523-4.477-10-10-10h-45v-20h45c5.523,0,10-4.477,10-10v-40
				c0-5.523-4.477-10-10-10h-45v-50h45c5.523,0,10-4.477,10-10v-40v-40c0-5.523-4.477-10-10-10h-45V20h-20v70h-45
				c-5.523,0-10,4.477-10,10v40v40c0,5.523,4.477,10,10,10h45v50h-45c-5.523,0-10,4.477-10,10v40c0,5.523,4.477,10,10,10h45v20h-45
				c-5.523,0-10,4.477-10,10v40C340.5,375.523,344.977,380,350.5,380z M360.5,110h90v20h-90V110z M360.5,170v-20h90v20H360.5z
				 M360.5,280v-20h90v20H360.5z M360.5,340h90v20h-90V340z"/>
		</g>
	</g>
</g>
<g>
</g>
<g>
</g>
<g>
</g>
<g>
</g>
<g>
</g>
<g>
</g>
<g>
</g>
<g>
</g>
<g>
</g>
<g>
</g>
<g>
</g>
<g>
</g>
<g>
</g>
<g>
</g>
<g>
</g>
</svg>
