<?xml version="1.0" encoding="iso-8859-1"?>
<!-- Generator: Adobe Illustrator 19.0.0, SVG Export Plug-In . SVG Version: 6.00 Build 0)  -->
<svg version="1.1" id="Layer_1" xmlns="http://www.w3.org/2000/svg" xmlns:xlink="http://www.w3.org/1999/xlink" x="0px" y="0px"
	 viewBox="0 0 490 490" style="enable-background:new 0 0 490 490;" xml:space="preserve">
<g>
	<g>
		<g>
			<path d="M480,325h-23l0.001,160H480c5.522,0,10-4.477,10-10V335C490,329.477,485.522,325,480,325z"/>
			<path d="M10,325c-5.523,0-10,4.477-10,10v140c0,5.523,4.477,10,10,10h23.001L33,325H10z"/>
			<path d="M165,63v32h-10v124h180V95h-10V63h-20v32H185V63H165z M245,130c19.299,0,35,15.701,35,35s-15.701,35-35,35
				s-35-15.701-35-35S225.701,130,245,130z"/>
			<path d="M355,219h80v-84c0-22.056-17.944-40-40-40h-40V219z"/>
			<path d="M135,95H95c-22.056,0-40,17.944-40,40v84h80V95z"/>
			<rect x="135" y="275" width="20" height="20"/>
			<rect x="335" y="275" width="20" height="20"/>
			<path d="M435,317v-76h-80v14h10c5.522,0,10,4.477,10,10v40c0,5.523-4.478,10-10,10h-40c-5.522,0-10-4.477-10-10v-40
				c0-5.523,4.478-10,10-10h10v-14H155v14h10c5.523,0,10,4.477,10,10v40c0,5.523-4.477,10-10,10h-40c-5.523,0-10-4.477-10-10v-40
				c0-5.523,4.477-10,10-10h10v-14H55v65.001L55.001,485H65h360h10.001L435,325V317z M375,405c0,22.056-17.944,40-40,40H155
				c-22.056,0-40-17.944-40-40v-65c0-5.523,4.477-10,10-10h240c5.522,0,10,4.477,10,10V405z"/>
			<path d="M355,15c0-5.523-4.478-10-10-10H145c-5.523,0-10,4.477-10,10v26h220V15z"/>
			<rect x="225" y="375" width="40" height="20"/>
		</g>
	</g>
</g>
<g>
</g>
<g>
</g>
<g>
</g>
<g>
</g>
<g>
</g>
<g>
</g>
<g>
</g>
<g>
</g>
<g>
</g>
<g>
</g>
<g>
</g>
<g>
</g>
<g>
</g>
<g>
</g>
<g>
</g>
</svg>
