<?xml version="1.0" encoding="iso-8859-1"?>
<!-- Generator: Adobe Illustrator 19.0.0, SVG Export Plug-In . SVG Version: 6.00 Build 0)  -->
<svg version="1.1" id="Layer_1" xmlns="http://www.w3.org/2000/svg" xmlns:xlink="http://www.w3.org/1999/xlink" x="0px" y="0px"
	 viewBox="0 0 490 490" style="enable-background:new 0 0 490 490;" xml:space="preserve">
<g>
	<g>
		<g>
			<rect x="390" y="85" width="25" height="20"/>
			<path d="M490,235v-80c0-11.028-8.972-20-20-20V55c0-11.028-8.972-20-20-20H20C8.972,35,0,43.972,0,55v80c0,11.028,8.972,20,20,20
				v11v4v46v1v18c-11.028,0-20,8.972-20,20v80c0,11.028,8.972,20,20,20v80c0,11.028,8.972,20,20,20h430c11.028,0,20-8.972,20-20v-13
				v-1v-48v-2v-16c0-11.028-8.972-20-20-20v-80C481.028,255,490,246.028,490,235z M370,75c0-5.522,4.478-10,10-10h45
				c5.522,0,10,4.478,10,10v40c0,5.522-4.478,10-10,10h-45c-5.522,0-10-4.478-10-10V75z M345,290v-20h80v20H345z M425,300v20H245
				v-20H425z M45,70h80v20H45V70z M45,100h195v20H45V100z M42,170h368c5.522,0,10,4.477,10,10v26c0,5.523-4.478,10-10,10H42V170z
				 M65,310H45v-30h20V310z M468,421H100c-5.522,0-10-4.478-10-10v-28c0-5.522,4.478-10,10-10h368V421z"/>
		</g>
	</g>
</g>
<g>
</g>
<g>
</g>
<g>
</g>
<g>
</g>
<g>
</g>
<g>
</g>
<g>
</g>
<g>
</g>
<g>
</g>
<g>
</g>
<g>
</g>
<g>
</g>
<g>
</g>
<g>
</g>
<g>
</g>
</svg>
