<?xml version="1.0" encoding="iso-8859-1"?>
<!-- Generator: Adobe Illustrator 19.0.0, SVG Export Plug-In . SVG Version: 6.00 Build 0)  -->
<svg version="1.1" id="Layer_1" xmlns="http://www.w3.org/2000/svg" xmlns:xlink="http://www.w3.org/1999/xlink" x="0px" y="0px"
	 viewBox="0 0 480 480" style="enable-background:new 0 0 480 480;" xml:space="preserve">
<g>
	<g>
		<g>
			<path d="M470,25h-35v325v60c0,5.522-4.478,10-10,10H240H55c-5.523,0-10-4.478-10-10v-60V25H10C4.477,25,0,29.478,0,35v415
				c0,5.522,4.477,10,10,10h460c5.522,0,10-4.478,10-10V35C480,29.478,475.522,25,470,25z"/>
			<path d="M415,340V20H282.868L250,40.543V285h-20V40.543L197.132,20H65v320h175H415z M390,295h-30v-20h30V295z M275,75h30v20h-30
				V75z M275,115h115v20H275V115z M275,155h115v20H275V155z M275,195h115v20H275V195z M275,235h115v20H275V235z M90,75h30v20H90V75z
				 M120,295H90v-20h30V295z M170,295h-30v-20h30V295z M205,255H90v-20h115V255z M205,215H90v-20h115V215z M205,175H90v-20h115V175z
				 M205,135H90v-20h115V135z"/>
			<rect x="65" y="360" width="165" height="40"/>
			<rect x="250" y="360" width="165" height="40"/>
		</g>
	</g>
</g>
<g>
</g>
<g>
</g>
<g>
</g>
<g>
</g>
<g>
</g>
<g>
</g>
<g>
</g>
<g>
</g>
<g>
</g>
<g>
</g>
<g>
</g>
<g>
</g>
<g>
</g>
<g>
</g>
<g>
</g>
</svg>
