<?xml version="1.0" encoding="iso-8859-1"?>
<!-- Generator: Adobe Illustrator 19.0.0, SVG Export Plug-In . SVG Version: 6.00 Build 0)  -->
<svg version="1.1" id="Layer_1" xmlns="http://www.w3.org/2000/svg" xmlns:xlink="http://www.w3.org/1999/xlink" x="0px" y="0px"
	 viewBox="0 0 490 490" style="enable-background:new 0 0 490 490;" xml:space="preserve">
<g>
	<g>
		<g>
			<rect x="250" y="52" width="10" height="25"/>
			<rect x="365" y="52" width="10" height="25"/>
			<path d="M410,0H80C68.972,0,60,8.972,60,20v104.001h370V20C430,8.972,421.028,0,410,0z M135,52h-15v15h-20V42
				c0-5.522,4.477-10,10-10h25V52z M215,97h-20V52h-15V32h25c5.523,0,10,4.478,10,10V97z M280,87c0,5.522-4.478,10-10,10h-30
				c-5.523,0-10-4.478-10-10V42c0-5.522,4.477-10,10-10h30c5.522,0,10,4.478,10,10V87z M330,97h-20V52h-15V32h25
				c5.522,0,10,4.478,10,10V97z M395,87c0,5.522-4.478,10-10,10h-30c-5.522,0-10-4.478-10-10V42c0-5.522,4.478-10,10-10h30
				c5.522,0,10,4.478,10,10V87z"/>
			<path d="M60,470c0,11.028,8.972,20,20,20h330c11.028,0,20-8.972,20-20V146.001H60V470z M277.929,417.929l80-80l14.143,14.143
				l-80,80L277.929,417.929z M360,435c-11.028,0-20-8.972-20-20s8.972-20,20-20s20,8.972,20,20S371.028,435,360,435z
				 M282.929,192.071l14.143-14.143L330,210.857l32.929-32.929l14.143,14.143L344.143,225l32.929,32.929l-14.143,14.143L330,239.143
				l-32.929,32.929l-14.143-14.143L315.857,225L282.929,192.071z M285,340c11.028,0,20,8.972,20,20s-8.972,20-20,20s-20-8.972-20-20
				S273.972,340,285,340z M110,215h40v-40h20v40h40v20h-40v40h-20v-40h-40V215z M110,385h100v20H110V385z"/>
		</g>
	</g>
</g>
<g>
</g>
<g>
</g>
<g>
</g>
<g>
</g>
<g>
</g>
<g>
</g>
<g>
</g>
<g>
</g>
<g>
</g>
<g>
</g>
<g>
</g>
<g>
</g>
<g>
</g>
<g>
</g>
<g>
</g>
</svg>
