<?xml version="1.0" encoding="iso-8859-1"?>
<!-- Generator: Adobe Illustrator 19.0.0, SVG Export Plug-In . SVG Version: 6.00 Build 0)  -->
<svg version="1.1" id="Layer_1" xmlns="http://www.w3.org/2000/svg" xmlns:xlink="http://www.w3.org/1999/xlink" x="0px" y="0px"
	 viewBox="0 0 490 490" style="enable-background:new 0 0 490 490;" xml:space="preserve">
<g>
	<g>
		<g>
			<path d="M183.996,285c-0.37,0-0.733-0.023-1.092-0.063c-0.089-0.01-0.178-0.028-0.267-0.04c-0.277-0.038-0.551-0.083-0.82-0.143
				c-0.101-0.022-0.2-0.051-0.3-0.077c-0.26-0.066-0.516-0.141-0.767-0.227c-0.101-0.035-0.201-0.072-0.3-0.11
				c-0.254-0.097-0.501-0.203-0.745-0.319c-0.058-0.028-0.119-0.047-0.177-0.076l-60-30C116.14,252.251,114,248.788,114,245
				c0-3.788,2.14-7.25,5.528-8.944l60-30c0.051-0.025,0.105-0.042,0.157-0.066c0.284-0.136,0.575-0.259,0.873-0.368
				c0.085-0.032,0.17-0.065,0.256-0.094c0.36-0.121,0.728-0.227,1.105-0.307c0.008-0.002,0.017-0.004,0.025-0.006
				c0.378-0.079,0.766-0.133,1.158-0.168c0.114-0.01,0.228-0.011,0.342-0.018c0.185-0.01,0.367-0.028,0.555-0.028h230V105h-10h-75
				h-10h-12V0H64c-5.523,0-10,4.477-10,10v470c0,5.523,4.477,10,10,10h340c5.523,0,10-4.477,10-10V285H184
				C183.998,285,183.997,285,183.996,285z M104,55h60v20h-60V55z M104,95h130v20H104V95z"/>
			<polygon points="329,5.857 329,83 406.143,83 			"/>
			<path d="M429.519,225.031h-28.518v40.155h28.518c3.58,0,6.481-2.901,6.481-6.481v-27.193
				C436,227.933,433.099,225.031,429.519,225.031z"/>
			<polygon points="184.751,225 184.751,225 184.751,225 			"/>
			<path d="M184.336,225.115c-0.23,0.075-0.453,0.164-0.671,0.263c-0.023,0.011-0.048,0.017-0.07,0.028l-29.324,13.684
				c-2.297,1.072-3.765,3.377-3.765,5.911s1.468,4.839,3.765,5.911l29.324,13.683c0.025,0.012,0.052,0.02,0.078,0.032
				c0.152,0.068,0.308,0.129,0.466,0.187c0.059,0.02,0.116,0.044,0.175,0.064c0.143,0.046,0.29,0.086,0.437,0.123V225
				c-0.127,0.032-0.254,0.062-0.378,0.102C184.361,225.105,184.349,225.111,184.336,225.115z"/>
			<rect x="204.1" y="225" width="176.939" height="40"/>
		</g>
	</g>
</g>
<g>
</g>
<g>
</g>
<g>
</g>
<g>
</g>
<g>
</g>
<g>
</g>
<g>
</g>
<g>
</g>
<g>
</g>
<g>
</g>
<g>
</g>
<g>
</g>
<g>
</g>
<g>
</g>
<g>
</g>
</svg>
