<?xml version="1.0" encoding="iso-8859-1"?>
<!-- Generator: Adobe Illustrator 19.0.0, SVG Export Plug-In . SVG Version: 6.00 Build 0)  -->
<svg version="1.1" id="Layer_1" xmlns="http://www.w3.org/2000/svg" xmlns:xlink="http://www.w3.org/1999/xlink" x="0px" y="0px"
	 viewBox="0 0 474.999 474.999" style="enable-background:new 0 0 474.999 474.999;" xml:space="preserve">
<g>
	<g>
		<g>
			<path d="M416.371,460.386l-106.602-205c-0.001-0.001-0.001-0.002-0.002-0.003l-22.268-42.827V77h-100v135.556l-22.269,42.828
				c-0.001,0.001-0.001,0.002-0.001,0.002l-106.602,205c-1.612,3.1-1.489,6.817,0.324,9.803c1.813,2.987,5.054,4.81,8.548,4.81h340
				c3.494,0,6.734-1.824,8.548-4.81C417.861,467.203,417.983,463.486,416.371,460.386z M257.499,300h30v20h-30V300z M197.499,420
				h-30v-20h30V420z M207.499,370c-16.542,0-30-13.458-30-30s13.458-30,30-30s30,13.458,30,30S224.041,370,207.499,370z
				 M287.499,430c-16.542,0-30-13.458-30-30s13.458-30,30-30s30,13.458,30,30S304.041,430,287.499,430z"/>
			<path d="M147.499,55h60h60h60c5.522,0,10-4.477,10-10V10c0-5.523-4.478-10-10-10h-180c-5.523,0-10,4.477-10,10v35
				C137.499,50.523,141.976,55,147.499,55z"/>
			<path d="M207.499,330c-5.514,0-10,4.486-10,10c0,5.514,4.486,10,10,10c5.514,0,10-4.486,10-10
				C217.499,334.486,213.014,330,207.499,330z"/>
			<path d="M287.499,390c-5.514,0-10,4.486-10,10c0,5.514,4.486,10,10,10c5.514,0,10-4.486,10-10
				C297.499,394.486,293.014,390,287.499,390z"/>
		</g>
	</g>
</g>
<g>
</g>
<g>
</g>
<g>
</g>
<g>
</g>
<g>
</g>
<g>
</g>
<g>
</g>
<g>
</g>
<g>
</g>
<g>
</g>
<g>
</g>
<g>
</g>
<g>
</g>
<g>
</g>
<g>
</g>
</svg>
