<?xml version="1.0" encoding="iso-8859-1"?>
<!-- Generator: Adobe Illustrator 19.0.0, SVG Export Plug-In . SVG Version: 6.00 Build 0)  -->
<svg version="1.1" id="Layer_1" xmlns="http://www.w3.org/2000/svg" xmlns:xlink="http://www.w3.org/1999/xlink" x="0px" y="0px"
	 viewBox="0 0 490 490" style="enable-background:new 0 0 490 490;" xml:space="preserve">
<g>
	<g>
		<g>
			<path d="M380.604,204.431c-23.314-28.526-55.25-49.092-90.604-58.504V77h-90v68.926c-35.355,9.413-67.291,29.978-90.604,58.504
				C83.991,235.517,70,274.784,70,315c0,96.495,78.505,175,175,175s175-78.505,175-175C420,274.784,406.009,235.517,380.604,204.431
				z M130,310c0-60.654,49.346-110,110-110v20c-49.626,0-90,40.374-90,90H130z M235,275v20h-40v-20H235z M205,405h-40v-20h40V405z
				 M265,365h-40v-20h40V365z M265,235h40v20h-40V235z M335,405h-40v-20h40V405z M345,325h-40v-20h40V325z"/>
			<path d="M175,55h45h50h45c5.522,0,10-4.477,10-10V10c0-5.523-4.478-10-10-10H175c-5.523,0-10,4.477-10,10v35
				C165,50.523,169.477,55,175,55z"/>
		</g>
	</g>
</g>
<g>
</g>
<g>
</g>
<g>
</g>
<g>
</g>
<g>
</g>
<g>
</g>
<g>
</g>
<g>
</g>
<g>
</g>
<g>
</g>
<g>
</g>
<g>
</g>
<g>
</g>
<g>
</g>
<g>
</g>
</svg>
