<?xml version="1.0" encoding="iso-8859-1"?>
<!-- Generator: Adobe Illustrator 19.0.0, SVG Export Plug-In . SVG Version: 6.00 Build 0)  -->
<svg version="1.1" id="Layer_1" xmlns="http://www.w3.org/2000/svg" xmlns:xlink="http://www.w3.org/1999/xlink" x="0px" y="0px"
	 viewBox="0 0 482.201 482.201" style="enable-background:new 0 0 482.201 482.201;" xml:space="preserve">
<g>
	<g>
		<g>
			<path d="M216.101,252.201c0,13.785,11.215,25,25,25c13.785,0,25-11.215,25-25c0-13.785-11.215-25-25-25
				C227.316,227.201,216.101,238.416,216.101,252.201z"/>
			<path d="M375.175,268L251.101,0v208.335c20.014,4.561,35,22.491,35,43.866c0,24.813-20.186,45-45,45c-24.814,0-45-20.187-45-45
				c0-21.376,14.985-39.305,35-43.866V0L107.026,268c-1.093,2.359-1.224,5.051-0.364,7.505l27.777,79.363h213.324l27.776-79.363
				C376.398,273.051,376.268,270.359,375.175,268z"/>
			<path d="M116.101,432.201c0,5.523,4.478,10,10,10h25v40h20v-40h140v40h20v-40h25c5.523,0,10-4.477,10-10v-55.333h-250V432.201z"
				/>
		</g>
	</g>
</g>
<g>
</g>
<g>
</g>
<g>
</g>
<g>
</g>
<g>
</g>
<g>
</g>
<g>
</g>
<g>
</g>
<g>
</g>
<g>
</g>
<g>
</g>
<g>
</g>
<g>
</g>
<g>
</g>
<g>
</g>
</svg>
