<?xml version="1.0" encoding="iso-8859-1"?>
<!-- Generator: Adobe Illustrator 19.0.0, SVG Export Plug-In . SVG Version: 6.00 Build 0)  -->
<svg version="1.1" id="Layer_1" xmlns="http://www.w3.org/2000/svg" xmlns:xlink="http://www.w3.org/1999/xlink" x="0px" y="0px"
	 viewBox="0 0 490 490" style="enable-background:new 0 0 490 490;" xml:space="preserve">
<g>
	<g>
		<path d="M490,230V10c0-5.523-4.477-10-10-10H330v70h90c5.523,0,10,4.478,10,10v105h-20V90h-80v70h-20V0H205v115h50v20h-60
			c-5.523,0-10-4.477-10-10V0H10C4.477,0,0,4.477,0,10v70h130v20H0v70h200v20h-90v105h55v20h-65c-5.523,0-10-4.478-10-10V190H0v195
			h230v-50h20v60c0,5.522-4.477,10-10,10H0v75c0,5.522,4.477,10,10,10h360v-60h-70v-20h80c5.523,0,10,4.478,10,10v70h90
			c5.523,0,10-4.478,10-10V250H330v95h110v20H320c-5.523,0-10-4.478-10-10V250h-95v-20H490z"/>
	</g>
</g>
<g>
</g>
<g>
</g>
<g>
</g>
<g>
</g>
<g>
</g>
<g>
</g>
<g>
</g>
<g>
</g>
<g>
</g>
<g>
</g>
<g>
</g>
<g>
</g>
<g>
</g>
<g>
</g>
<g>
</g>
</svg>
