<?xml version="1.0" encoding="iso-8859-1"?>
<!-- Generator: Adobe Illustrator 19.0.0, SVG Export Plug-In . SVG Version: 6.00 Build 0)  -->
<svg version="1.1" id="Layer_1" xmlns="http://www.w3.org/2000/svg" xmlns:xlink="http://www.w3.org/1999/xlink" x="0px" y="0px"
	 viewBox="0 0 490 490" style="enable-background:new 0 0 490 490;" xml:space="preserve">
<g>
	<g>
		<g>
			<path d="M480,15H10C4.477,15,0,19.477,0,25v31.001h490V25C490,19.477,485.522,15,480,15z"/>
			<path d="M20,365c0,5.523,4.477,10,10,10h159h112h159c5.522,0,10-4.477,10-10V78.001H20V365z M395,100h30v20h-30V100z M395,130h30
				v20h-30V130z M350,100h30v20h-30V100z M320,155h40c5.522,0,10,4.477,10,10v110h-20V175h-30V155z M200,215h40v-40h20v40h40v20h-40
				v40h-20v-40h-40V215z M110,155h40c5.523,0,10,4.477,10,10v110h-20V175h-30V155z"/>
			<polygon points="255,397 235,397 235,455 215,455 215,475 275,475 275,455 255,455 			"/>
		</g>
	</g>
</g>
<g>
</g>
<g>
</g>
<g>
</g>
<g>
</g>
<g>
</g>
<g>
</g>
<g>
</g>
<g>
</g>
<g>
</g>
<g>
</g>
<g>
</g>
<g>
</g>
<g>
</g>
<g>
</g>
<g>
</g>
</svg>
