<?xml version="1.0" encoding="iso-8859-1"?>
<!-- Generator: Adobe Illustrator 19.0.0, SVG Export Plug-In . SVG Version: 6.00 Build 0)  -->
<svg version="1.1" id="Layer_1" xmlns="http://www.w3.org/2000/svg" xmlns:xlink="http://www.w3.org/1999/xlink" x="0px" y="0px"
	 viewBox="0 0 490 490" style="enable-background:new 0 0 490 490;" xml:space="preserve">
<g>
	<g>
		<g>
			<path d="M150,0H10C4.477,0,0,4.477,0,10v75h70v20H0v50h70v20H0v60h70v20H0v60h70v20H0v50h70v20H0v75c0,5.523,4.477,10,10,10h140
				c5.523,0,10-4.477,10-10V10C160,4.477,155.523,0,150,0z"/>
			<rect x="255.999" y="126" width="39.001" height="277"/>
			<rect x="195" y="126" width="38.999" height="277"/>
			<path d="M255.999,104h37.371L254.285,6.286C252.766,2.489,249.089,0,245,0s-7.766,2.489-9.285,6.286L196.63,104h37.369H255.999z"
				/>
			<path d="M195,480c0,5.523,4.477,10,10,10h80c5.523,0,10-4.477,10-10v-55H195V480z"/>
			<path d="M480,220H340c-5.523,0-10,4.477-10,10v79h160v-79C490,224.477,485.523,220,480,220z"/>
			<path d="M330,480c0,5.523,4.477,10,10,10h140c5.523,0,10-4.477,10-10V331H330V480z M430,390h20v20h-20V390z M400,430h50v20h-50
				V430z"/>
		</g>
	</g>
</g>
<g>
</g>
<g>
</g>
<g>
</g>
<g>
</g>
<g>
</g>
<g>
</g>
<g>
</g>
<g>
</g>
<g>
</g>
<g>
</g>
<g>
</g>
<g>
</g>
<g>
</g>
<g>
</g>
<g>
</g>
</svg>
