<?xml version="1.0" encoding="iso-8859-1"?>
<!-- Generator: Adobe Illustrator 19.0.0, SVG Export Plug-In . SVG Version: 6.00 Build 0)  -->
<svg version="1.1" id="Layer_1" xmlns="http://www.w3.org/2000/svg" xmlns:xlink="http://www.w3.org/1999/xlink" x="0px" y="0px"
	 viewBox="0 0 490 490" style="enable-background:new 0 0 490 490;" xml:space="preserve">
<g>
	<g>
		<g>
			<path d="M488.185,474.254l-330.001-470c-2.506-3.57-7.038-5.103-11.197-3.789S140,5.637,140,10v130h50v20h-50v50h50v20h-50v50h50
				v20h-50v50h50v20h-50v50h50v20h-50v40c0,5.523,4.477,10,10,10h330c3.731,0,7.152-2.078,8.873-5.388
				C490.594,481.301,490.328,477.307,488.185,474.254z M345.944,394.472C344.25,397.86,340.788,400,337,400H232
				c-5.523,0-10-4.477-10-10V250c0-4.304,2.754-8.126,6.838-9.487c4.083-1.362,8.579,0.043,11.162,3.487l105,140
				C347.272,387.03,347.639,391.085,345.944,394.472z"/>
			<path d="M110,0H10C4.477,0,0,4.477,0,10v55h52.778v20H0v60h52.778v20H0v70h52.778v20H0v70h52.778v20H0v60h52.778v20H0v55
				c0,5.523,4.477,10,10,10h100c5.523,0,10-4.477,10-10V10C120,4.477,115.523,0,110,0z"/>
		</g>
	</g>
</g>
<g>
</g>
<g>
</g>
<g>
</g>
<g>
</g>
<g>
</g>
<g>
</g>
<g>
</g>
<g>
</g>
<g>
</g>
<g>
</g>
<g>
</g>
<g>
</g>
<g>
</g>
<g>
</g>
<g>
</g>
</svg>
