<?xml version="1.0" encoding="iso-8859-1"?>
<!-- Generator: Adobe Illustrator 19.0.0, SVG Export Plug-In . SVG Version: 6.00 Build 0)  -->
<svg version="1.1" id="Layer_1" xmlns="http://www.w3.org/2000/svg" xmlns:xlink="http://www.w3.org/1999/xlink" x="0px" y="0px"
	 viewBox="0 0 490 490" style="enable-background:new 0 0 490 490;" xml:space="preserve">
<g>
	<g>
		<g>
			<path d="M91.001,430h298V60h-298V430z M200,185c0-3.466,1.794-6.685,4.743-8.507c2.949-1.821,6.628-1.988,9.73-0.438l69.999,35
				C287.86,212.75,290,216.212,290,220c0,3.788-2.14,7.25-5.528,8.944l-69.999,35C213.061,264.649,211.529,265,210,265
				c-1.829,0-3.652-0.501-5.258-1.493C201.794,261.685,200,258.466,200,255V185z M120,340h45v-15h20v15h185v20H185v15h-20v-15h-45
				V340z"/>
			<path d="M460,60h-48.999v370H460c16.542,0,30-13.458,30-30V90C490,73.458,476.542,60,460,60z M458,275h-20v-60h20V275z"/>
			<path d="M0,90v310c0,16.542,13.458,30,30,30h39.001V60H30C13.458,60,0,73.458,0,90z M48,305H28v-75h20V305z M48,210H28v-25h20
				V210z"/>
		</g>
	</g>
</g>
<g>
</g>
<g>
</g>
<g>
</g>
<g>
</g>
<g>
</g>
<g>
</g>
<g>
</g>
<g>
</g>
<g>
</g>
<g>
</g>
<g>
</g>
<g>
</g>
<g>
</g>
<g>
</g>
<g>
</g>
</svg>
