<?xml version="1.0" encoding="iso-8859-1"?>
<!-- Generator: Adobe Illustrator 19.0.0, SVG Export Plug-In . SVG Version: 6.00 Build 0)  -->
<svg version="1.1" id="Layer_1" xmlns="http://www.w3.org/2000/svg" xmlns:xlink="http://www.w3.org/1999/xlink" x="0px" y="0px"
	 viewBox="0 0 490 490" style="enable-background:new 0 0 490 490;" xml:space="preserve">
<g>
	<g>
		<g>
			<path d="M60,389h370V91H60V389z M230,355H100v-20h130V355z M230,315H100v-20h130V315z M230,275H100v-20h130V275z M390,355H260
				v-20h130V355z M390,315H260v-20h130V315z M390,275H260v-20h130V275z M95,125c0-5.522,4.477-10,10-10h280c5.523,0,10,4.478,10,10
				v100c0,5.523-4.477,10-10,10H105c-5.523,0-10-4.477-10-10V125z"/>
			<path d="M60,460c0,16.542,13.458,30,30,30h310c16.542,0,30-13.458,30-30v-49H60V460z M215,438h60v20h-60V438z"/>
			<path d="M400,0H90C73.458,0,60,13.458,60,30v39h370V30C430,13.458,416.542,0,400,0z M260,47h-75V27h75V47z M305,47h-25V27h25V47z
				"/>
			<path d="M121,216h249c3.314,0,6-2.686,6-6v-71c0-3.314-2.686-6-6-6H121c-3.313,0-6,2.686-6,6v71C115,213.314,117.687,216,121,216
				z"/>
		</g>
	</g>
</g>
<g>
</g>
<g>
</g>
<g>
</g>
<g>
</g>
<g>
</g>
<g>
</g>
<g>
</g>
<g>
</g>
<g>
</g>
<g>
</g>
<g>
</g>
<g>
</g>
<g>
</g>
<g>
</g>
<g>
</g>
</svg>
