<?xml version="1.0" encoding="iso-8859-1"?>
<!-- Generator: Adobe Illustrator 19.0.0, SVG Export Plug-In . SVG Version: 6.00 Build 0)  -->
<svg version="1.1" id="Layer_1" xmlns="http://www.w3.org/2000/svg" xmlns:xlink="http://www.w3.org/1999/xlink" x="0px" y="0px"
	 viewBox="0 0 512 512" style="enable-background:new 0 0 512 512;" xml:space="preserve">
<g>
	<g>
		<g>
			<path d="M149.333,181.333h64c11.797,0,21.333,9.557,21.333,21.333v170.667h42.667V202.667c0-11.776,9.536-21.333,21.333-21.333
				h64v-42.667H149.333V181.333z"/>
			<path d="M490.667,10.667H21.333C9.536,10.667,0,20.224,0,32v448c0,11.776,9.536,21.333,21.333,21.333h469.333
				c11.797,0,21.333-9.557,21.333-21.333V32C512,20.224,502.464,10.667,490.667,10.667z M405.333,202.667
				c0,11.776-9.536,21.333-21.333,21.333h-64v170.667c0,11.776-9.536,21.333-21.333,21.333h-85.333
				C201.536,416,192,406.443,192,394.667V224h-64c-11.797,0-21.333-9.557-21.333-21.333v-85.333C106.667,105.557,116.203,96,128,96
				h256c11.797,0,21.333,9.557,21.333,21.333V202.667z"/>
		</g>
	</g>
</g>
<g>
</g>
<g>
</g>
<g>
</g>
<g>
</g>
<g>
</g>
<g>
</g>
<g>
</g>
<g>
</g>
<g>
</g>
<g>
</g>
<g>
</g>
<g>
</g>
<g>
</g>
<g>
</g>
<g>
</g>
</svg>
