<?xml version="1.0" encoding="iso-8859-1"?>
<!-- Generator: Adobe Illustrator 19.0.0, SVG Export Plug-In . SVG Version: 6.00 Build 0)  -->
<svg version="1.1" id="Layer_1" xmlns="http://www.w3.org/2000/svg" xmlns:xlink="http://www.w3.org/1999/xlink" x="0px" y="0px"
	 viewBox="0 0 512 512" style="enable-background:new 0 0 512 512;" xml:space="preserve">
<g>
	<g>
		<g>
			<path d="M490.667,0H21.333C9.536,0,0,9.557,0,21.333V128h512V21.333C512,9.557,502.464,0,490.667,0z M85.333,106.667
				C73.557,106.667,64,97.109,64,85.333S73.557,64,85.333,64s21.333,9.557,21.333,21.333S97.109,106.667,85.333,106.667z
				 M149.333,106.667c-11.776,0-21.333-9.557-21.333-21.333S137.557,64,149.333,64s21.333,9.557,21.333,21.333
				S161.109,106.667,149.333,106.667z M213.333,106.667c-11.776,0-21.333-9.557-21.333-21.333S201.557,64,213.333,64
				s21.333,9.557,21.333,21.333S225.109,106.667,213.333,106.667z"/>
			<path d="M213.333,277.333c0-29.504-13.163-42.667-42.667-42.667c-29.504,0-42.667,13.163-42.667,42.667
				c0,34.965,23.659,81.003,42.667,111.424C189.675,358.336,213.333,312.299,213.333,277.333z"/>
			<path d="M0,490.667C0,502.443,9.536,512,21.333,512h469.333c11.797,0,21.333-9.557,21.333-21.333v-320H0V490.667z M320,213.333
				h85.333c11.797,0,21.333,9.557,21.333,21.333S417.131,256,405.333,256H320c-11.797,0-21.333-9.557-21.333-21.333
				S308.203,213.333,320,213.333z M320,298.667h85.333c11.797,0,21.333,9.557,21.333,21.333s-9.536,21.333-21.333,21.333H320
				c-11.797,0-21.333-9.557-21.333-21.333S308.203,298.667,320,298.667z M320,384h85.333c11.797,0,21.333,9.557,21.333,21.333
				s-9.536,21.333-21.333,21.333H320c-11.797,0-21.333-9.557-21.333-21.333S308.203,384,320,384z M170.667,192
				c53.44,0,85.333,31.893,85.333,85.333c0,71.232-65.536,158.549-68.331,162.219c-4.032,5.333-10.325,8.448-17.003,8.448
				c-6.677,0-12.971-3.115-17.003-8.448c-2.795-3.669-68.331-90.987-68.331-162.219C85.333,223.893,117.227,192,170.667,192z"/>
		</g>
	</g>
</g>
<g>
</g>
<g>
</g>
<g>
</g>
<g>
</g>
<g>
</g>
<g>
</g>
<g>
</g>
<g>
</g>
<g>
</g>
<g>
</g>
<g>
</g>
<g>
</g>
<g>
</g>
<g>
</g>
<g>
</g>
</svg>
