<?xml version="1.0" encoding="iso-8859-1"?>
<!-- Generator: Adobe Illustrator 19.0.0, SVG Export Plug-In . SVG Version: 6.00 Build 0)  -->
<svg version="1.1" id="Layer_1" xmlns="http://www.w3.org/2000/svg" xmlns:xlink="http://www.w3.org/1999/xlink" x="0px" y="0px"
	 viewBox="0 0 512 512" style="enable-background:new 0 0 512 512;" xml:space="preserve">
<g>
	<g>
		<g>
			<path d="M490.667,0H21.333C9.536,0,0,9.557,0,21.333V128h512V21.333C512,9.557,502.464,0,490.667,0z M85.333,106.667
				C73.557,106.667,64,97.109,64,85.333S73.557,64,85.333,64s21.333,9.557,21.333,21.333S97.109,106.667,85.333,106.667z
				 M149.333,106.667c-11.776,0-21.333-9.557-21.333-21.333S137.557,64,149.333,64s21.333,9.557,21.333,21.333
				S161.109,106.667,149.333,106.667z M213.333,106.667c-11.776,0-21.333-9.557-21.333-21.333S201.557,64,213.333,64
				s21.333,9.557,21.333,21.333S225.109,106.667,213.333,106.667z"/>
			<path d="M136.725,405.329c25.024,0,33.941-24.171,33.941-46.784v-17.216h-27.52c-20.8,0-36.48,14.592-36.48,33.941
				C106.667,395.494,116.501,405.329,136.725,405.329z"/>
			<path d="M0,490.667C0,502.443,9.536,512,21.333,512h469.333c11.797,0,21.333-9.557,21.333-21.333v-320H0V490.667z
				 M426.667,426.667h-128c-11.797,0-21.333-9.557-21.333-21.333S286.869,384,298.667,384h128c11.797,0,21.333,9.557,21.333,21.333
				S438.464,426.667,426.667,426.667z M298.667,298.667h128c11.797,0,21.333,9.557,21.333,21.333s-9.536,21.333-21.333,21.333h-128
				c-11.797,0-21.333-9.557-21.333-21.333S286.869,298.667,298.667,298.667z M143.147,298.667h27.52v-85.333
				c0-11.776,9.536-21.333,21.333-21.333s21.333,9.557,21.333,21.333H256c11.797,0,21.333,9.557,21.333,21.333S267.797,256,256,256
				h-42.667v102.549c0,52.651-31.509,89.451-76.608,89.451C93.227,448,64,418.773,64,375.275
				C64,332.309,98.773,298.667,143.147,298.667z"/>
		</g>
	</g>
</g>
<g>
</g>
<g>
</g>
<g>
</g>
<g>
</g>
<g>
</g>
<g>
</g>
<g>
</g>
<g>
</g>
<g>
</g>
<g>
</g>
<g>
</g>
<g>
</g>
<g>
</g>
<g>
</g>
<g>
</g>
</svg>
