<?xml version="1.0" encoding="iso-8859-1"?>
<!-- Generator: Adobe Illustrator 19.0.0, SVG Export Plug-In . SVG Version: 6.00 Build 0)  -->
<svg version="1.1" id="Layer_1" xmlns="http://www.w3.org/2000/svg" xmlns:xlink="http://www.w3.org/1999/xlink" x="0px" y="0px"
	 viewBox="0 0 512 512" style="enable-background:new 0 0 512 512;" xml:space="preserve">
<g>
	<g>
		<g>
			<path d="M490.667,0H21.333C9.557,0,0,9.557,0,21.333V128h512V21.333C512,9.557,502.443,0,490.667,0z M85.333,106.667
				C73.557,106.667,64,97.109,64,85.333S73.557,64,85.333,64s21.333,9.557,21.333,21.333S97.109,106.667,85.333,106.667z
				 M149.333,106.667c-11.776,0-21.333-9.557-21.333-21.333S137.557,64,149.333,64s21.333,9.557,21.333,21.333
				S161.109,106.667,149.333,106.667z M213.333,106.667c-11.776,0-21.333-9.557-21.333-21.333S201.557,64,213.333,64
				s21.333,9.557,21.333,21.333S225.109,106.667,213.333,106.667z"/>
			<path d="M0,490.667C0,502.443,9.557,512,21.333,512h469.333c11.776,0,21.333-9.557,21.333-21.333v-320H0V490.667z
				 M176.917,283.584c8.341-8.341,21.824-8.341,30.165,0l27.584,27.584v-97.835c0-11.776,9.557-21.333,21.333-21.333
				s21.333,9.557,21.333,21.333v97.835l27.584-27.584c8.341-8.341,21.824-8.341,30.165,0c8.341,8.341,8.341,21.824,0,30.165l-64,64
				c-1.963,1.963-4.309,3.52-6.933,4.608C261.547,383.424,258.773,384,256,384s-5.547-0.576-8.149-1.643
				c-2.624-1.088-4.971-2.645-6.933-4.608l-64-64C168.576,305.408,168.576,291.925,176.917,283.584z M149.333,405.333h213.333
				c11.776,0,21.333,9.557,21.333,21.333S374.443,448,362.667,448H149.333C137.557,448,128,438.443,128,426.667
				S137.557,405.333,149.333,405.333z"/>
		</g>
	</g>
</g>
<g>
</g>
<g>
</g>
<g>
</g>
<g>
</g>
<g>
</g>
<g>
</g>
<g>
</g>
<g>
</g>
<g>
</g>
<g>
</g>
<g>
</g>
<g>
</g>
<g>
</g>
<g>
</g>
<g>
</g>
</svg>
