<?xml version="1.0" encoding="iso-8859-1"?>
<!-- Generator: Adobe Illustrator 19.0.0, SVG Export Plug-In . SVG Version: 6.00 Build 0)  -->
<svg version="1.1" id="Layer_1" xmlns="http://www.w3.org/2000/svg" xmlns:xlink="http://www.w3.org/1999/xlink" x="0px" y="0px"
	 viewBox="0 0 512 512" style="enable-background:new 0 0 512 512;" xml:space="preserve">
<g>
	<g>
		<g>
			<rect x="106.667" y="362.667" width="85.333" height="42.667"/>
			<path d="M490.667,0H21.333C9.557,0,0,9.557,0,21.333V128h512V21.333C512,9.557,502.464,0,490.667,0z M85.333,106.667
				C73.557,106.667,64,97.109,64,85.333S73.557,64,85.333,64s21.333,9.557,21.333,21.333S97.109,106.667,85.333,106.667z
				 M149.333,106.667c-11.776,0-21.333-9.557-21.333-21.333S137.557,64,149.333,64s21.333,9.557,21.333,21.333
				S161.109,106.667,149.333,106.667z M213.333,106.667c-11.776,0-21.333-9.557-21.333-21.333S201.557,64,213.333,64
				s21.333,9.557,21.333,21.333S225.109,106.667,213.333,106.667z"/>
			<rect x="320" y="362.667" width="85.333" height="42.667"/>
			<path d="M0,490.667C0,502.443,9.557,512,21.333,512h469.333c11.797,0,21.333-9.557,21.333-21.333v-320H0V490.667z M448,341.333
				v85.333c0,11.776-9.557,21.333-21.333,21.333h-128c-11.776,0-21.333-9.557-21.333-21.333v-85.333
				c0-11.776,9.557-21.333,21.333-21.333h128C438.443,320,448,329.557,448,341.333z M85.333,192H320
				c11.776,0,21.333,9.557,21.333,21.333s-9.557,21.333-21.333,21.333H85.333c-11.776,0-21.333-9.557-21.333-21.333
				S73.557,192,85.333,192z M85.333,256h85.333c11.776,0,21.333,9.557,21.333,21.333s-9.557,21.333-21.333,21.333H85.333
				c-11.776,0-21.333-9.557-21.333-21.333S73.557,256,85.333,256z M64,341.333C64,329.557,73.557,320,85.333,320h128
				c11.776,0,21.333,9.557,21.333,21.333v85.333c0,11.776-9.557,21.333-21.333,21.333h-128C73.557,448,64,438.443,64,426.667
				V341.333z"/>
		</g>
	</g>
</g>
<g>
</g>
<g>
</g>
<g>
</g>
<g>
</g>
<g>
</g>
<g>
</g>
<g>
</g>
<g>
</g>
<g>
</g>
<g>
</g>
<g>
</g>
<g>
</g>
<g>
</g>
<g>
</g>
<g>
</g>
</svg>
