<?xml version="1.0" encoding="iso-8859-1"?>
<!-- Generator: Adobe Illustrator 19.0.0, SVG Export Plug-In . SVG Version: 6.00 Build 0)  -->
<svg version="1.1" id="Layer_1" xmlns="http://www.w3.org/2000/svg" xmlns:xlink="http://www.w3.org/1999/xlink" x="0px" y="0px"
	 viewBox="0 0 512 512" style="enable-background:new 0 0 512 512;" xml:space="preserve">
<g>
	<g>
		<g>
			<path d="M0,490.667C0,502.443,9.536,512,21.333,512h469.333c11.797,0,21.333-9.557,21.333-21.333v-320H0V490.667z M352,192
				c17.664,0,32,14.336,32,32s-14.336,32-32,32s-32-14.336-32-32S334.336,192,352,192z M352,277.333c17.664,0,32,14.336,32,32
				s-14.336,32-32,32s-32-14.336-32-32S334.336,277.333,352,277.333z M352,362.667c17.664,0,32,14.336,32,32s-14.336,32-32,32
				s-32-14.336-32-32S334.336,362.667,352,362.667z M245.333,192c17.664,0,32,14.336,32,32s-14.336,32-32,32s-32-14.336-32-32
				S227.669,192,245.333,192z M245.333,277.333c17.664,0,32,14.336,32,32s-14.336,32-32,32s-32-14.336-32-32
				S227.669,277.333,245.333,277.333z M245.333,362.667c17.664,0,32,14.336,32,32s-14.336,32-32,32s-32-14.336-32-32
				S227.669,362.667,245.333,362.667z M138.667,192c17.664,0,32,14.336,32,32s-14.336,32-32,32s-32-14.336-32-32
				S121.003,192,138.667,192z M138.667,277.333c17.664,0,32,14.336,32,32s-14.336,32-32,32s-32-14.336-32-32
				S121.003,277.333,138.667,277.333z M138.667,362.667c17.664,0,32,14.336,32,32s-14.336,32-32,32s-32-14.336-32-32
				S121.003,362.667,138.667,362.667z"/>
			<path d="M490.667,0H21.333C9.536,0,0,9.557,0,21.333V128h512V21.333C512,9.557,502.464,0,490.667,0z M85.333,106.667
				C73.557,106.667,64,97.109,64,85.333S73.557,64,85.333,64s21.333,9.557,21.333,21.333S97.109,106.667,85.333,106.667z
				 M149.333,106.667c-11.776,0-21.333-9.557-21.333-21.333S137.557,64,149.333,64s21.333,9.557,21.333,21.333
				S161.109,106.667,149.333,106.667z M213.333,106.667c-11.776,0-21.333-9.557-21.333-21.333S201.557,64,213.333,64
				s21.333,9.557,21.333,21.333S225.109,106.667,213.333,106.667z"/>
		</g>
	</g>
</g>
<g>
</g>
<g>
</g>
<g>
</g>
<g>
</g>
<g>
</g>
<g>
</g>
<g>
</g>
<g>
</g>
<g>
</g>
<g>
</g>
<g>
</g>
<g>
</g>
<g>
</g>
<g>
</g>
<g>
</g>
</svg>
