<?xml version="1.0" encoding="iso-8859-1"?>
<!-- Generator: Adobe Illustrator 19.0.0, SVG Export Plug-In . SVG Version: 6.00 Build 0)  -->
<svg version="1.1" id="Layer_1" xmlns="http://www.w3.org/2000/svg" xmlns:xlink="http://www.w3.org/1999/xlink" x="0px" y="0px"
	 viewBox="0 0 512.009 512.009" style="enable-background:new 0 0 512.009 512.009;" xml:space="preserve">
<g>
	<g>
		<g>
			<polygon points="234.675,293.673 234.675,346.323 278.558,319.998 			"/>
			<path d="M490.675,0H21.342C9.545,0,0.009,9.557,0.009,21.333V128h512V21.333C512.009,9.557,502.473,0,490.675,0z M85.342,106.667
				c-11.776,0-21.333-9.557-21.333-21.333S73.566,64,85.342,64s21.333,9.557,21.333,21.333S97.118,106.667,85.342,106.667z
				 M149.342,106.667c-11.776,0-21.333-9.557-21.333-21.333S137.566,64,149.342,64s21.333,9.557,21.333,21.333
				S161.118,106.667,149.342,106.667z M213.342,106.667c-11.776,0-21.333-9.557-21.333-21.333S201.566,64,213.342,64
				s21.333,9.557,21.333,21.333S225.118,106.667,213.342,106.667z"/>
			<path d="M0,490.675c0,11.776,9.557,21.333,21.333,21.333h469.333c11.797,0,21.333-9.557,21.333-21.333v-320H0V490.675z
				 M192,256.009c0-7.701,4.139-14.784,10.816-18.581c6.72-3.776,14.891-3.691,21.504,0.277l106.667,64
				c6.421,3.861,10.347,10.816,10.347,18.304c0,7.488-3.925,14.421-10.347,18.283l-106.667,64
				c-3.371,2.027-7.189,3.051-10.987,3.051c-3.627,0-7.232-0.917-10.517-2.773c-6.677-3.797-10.816-10.88-10.816-18.56V256.009z"/>
		</g>
	</g>
</g>
<g>
</g>
<g>
</g>
<g>
</g>
<g>
</g>
<g>
</g>
<g>
</g>
<g>
</g>
<g>
</g>
<g>
</g>
<g>
</g>
<g>
</g>
<g>
</g>
<g>
</g>
<g>
</g>
<g>
</g>
</svg>
