<?xml version="1.0" encoding="iso-8859-1"?>
<!-- Generator: Adobe Illustrator 19.0.0, SVG Export Plug-In . SVG Version: 6.00 Build 0)  -->
<svg version="1.1" id="Layer_1" xmlns="http://www.w3.org/2000/svg" xmlns:xlink="http://www.w3.org/1999/xlink" x="0px" y="0px"
	 viewBox="0 0 512 512" style="enable-background:new 0 0 512 512;" xml:space="preserve">
<g>
	<g>
		<g>
			<path d="M490.667,0H21.333C9.557,0,0,9.557,0,21.333V128h512V21.333C512,9.557,502.443,0,490.667,0z M85.333,106.667
				C73.557,106.667,64,97.109,64,85.333S73.557,64,85.333,64s21.333,9.557,21.333,21.333S97.109,106.667,85.333,106.667z
				 M149.333,106.667c-11.776,0-21.333-9.557-21.333-21.333S137.557,64,149.333,64s21.333,9.557,21.333,21.333
				S161.109,106.667,149.333,106.667z M213.333,106.667c-11.776,0-21.333-9.557-21.333-21.333S201.557,64,213.333,64
				s21.333,9.557,21.333,21.333S225.109,106.667,213.333,106.667z"/>
			<path d="M0,490.667C0,502.443,9.557,512,21.333,512h469.333c11.776,0,21.333-9.557,21.333-21.333v-320H0V490.667z
				 M277.333,234.667H320c11.776,0,21.333,9.557,21.333,21.333s-9.557,21.333-21.333,21.333h-42.667
				C265.536,277.333,256,267.776,256,256S265.536,234.667,277.333,234.667z M149.333,234.667h64
				c11.776,0,21.333,9.557,21.333,21.333s-9.557,21.333-21.333,21.333h-64C137.557,277.333,128,267.776,128,256
				S137.557,234.667,149.333,234.667z M149.333,298.667h213.333c11.776,0,21.333,9.557,21.333,21.333s-9.557,21.333-21.333,21.333
				H149.333C137.557,341.333,128,331.776,128,320S137.557,298.667,149.333,298.667z M149.333,362.667h213.333
				c11.776,0,21.333,9.557,21.333,21.333s-9.557,21.333-21.333,21.333H149.333C137.557,405.333,128,395.776,128,384
				S137.557,362.667,149.333,362.667z"/>
		</g>
	</g>
</g>
<g>
</g>
<g>
</g>
<g>
</g>
<g>
</g>
<g>
</g>
<g>
</g>
<g>
</g>
<g>
</g>
<g>
</g>
<g>
</g>
<g>
</g>
<g>
</g>
<g>
</g>
<g>
</g>
<g>
</g>
</svg>
