<?xml version="1.0" encoding="iso-8859-1"?>
<!-- Generator: Adobe Illustrator 19.0.0, SVG Export Plug-In . SVG Version: 6.00 Build 0)  -->
<svg version="1.1" id="Layer_1" xmlns="http://www.w3.org/2000/svg" xmlns:xlink="http://www.w3.org/1999/xlink" x="0px" y="0px"
	 viewBox="0 0 512 512" style="enable-background:new 0 0 512 512;" xml:space="preserve">
<g>
	<g>
		<path d="M490.667,0H21.333C9.536,0,0,9.557,0,21.333v469.333C0,502.443,9.536,512,21.333,512h469.333
			c11.776,0,21.333-9.557,21.333-21.333V21.333C512,9.557,502.443,0,490.667,0z M296.448,234.667
			c11.797,0,21.333,9.557,21.333,21.333s-9.536,21.333-21.333,21.333h-19.115V384c0,11.755,9.557,21.333,21.333,21.333h64
			c11.776,0,21.333,9.557,21.333,21.333S374.443,448,362.667,448h-64c-16.469,0-31.339-6.421-42.667-16.64
			C244.651,441.579,229.781,448,213.333,448h-64C137.536,448,128,438.443,128,426.667s9.536-21.333,21.333-21.333h64
			c11.755,0,21.333-9.579,21.333-21.333V277.333h-19.136c-11.797,0-21.333-9.557-21.333-21.333s9.536-21.333,21.333-21.333h19.136
			V128c0-11.755-9.579-21.333-21.333-21.333h-64c-11.797,0-21.333-9.557-21.333-21.333S137.536,64,149.333,64h64
			c16.448,0,31.317,6.421,42.667,16.64C267.328,70.421,282.197,64,298.667,64h64C374.443,64,384,73.557,384,85.333
			s-9.557,21.333-21.333,21.333h-64c-11.776,0-21.333,9.579-21.333,21.333v106.667H296.448z"/>
	</g>
</g>
<g>
</g>
<g>
</g>
<g>
</g>
<g>
</g>
<g>
</g>
<g>
</g>
<g>
</g>
<g>
</g>
<g>
</g>
<g>
</g>
<g>
</g>
<g>
</g>
<g>
</g>
<g>
</g>
<g>
</g>
</svg>
