<?xml version="1.0" encoding="iso-8859-1"?>
<!-- Generator: Adobe Illustrator 19.0.0, SVG Export Plug-In . SVG Version: 6.00 Build 0)  -->
<svg version="1.1" id="Layer_1" xmlns="http://www.w3.org/2000/svg" xmlns:xlink="http://www.w3.org/1999/xlink" x="0px" y="0px"
	 viewBox="0 0 512 512" style="enable-background:new 0 0 512 512;" xml:space="preserve">
<g>
	<g>
		<path d="M490.667,0H21.333C9.536,0,0,9.557,0,21.333v469.333C0,502.443,9.536,512,21.333,512h469.333
			c11.797,0,21.333-9.557,21.333-21.333V21.333C512,9.557,502.464,0,490.667,0z M91.584,228.416c-8.341-8.341-8.341-21.824,0-30.165
			c8.341-8.341,21.824-8.341,30.165,0l42.667,42.667c8.341,8.341,8.341,21.824,0,30.165l-42.667,42.667
			c-4.16,4.16-9.621,6.251-15.083,6.251c-5.461,0-10.923-2.091-15.083-6.251c-8.341-8.341-8.341-21.824,0-30.165L119.168,256
			L91.584,228.416z M405.333,405.333H106.667c-11.797,0-21.333-9.557-21.333-21.333s9.536-21.333,21.333-21.333h298.667
			c11.797,0,21.333,9.557,21.333,21.333S417.131,405.333,405.333,405.333z M405.333,320H234.667
			c-11.797,0-21.333-9.557-21.333-21.333s9.536-21.333,21.333-21.333h170.667c11.797,0,21.333,9.557,21.333,21.333
			S417.131,320,405.333,320z M405.333,234.667H234.667c-11.797,0-21.333-9.557-21.333-21.333S222.869,192,234.667,192h170.667
			c11.797,0,21.333,9.557,21.333,21.333S417.131,234.667,405.333,234.667z M405.333,149.333H106.667
			c-11.797,0-21.333-9.557-21.333-21.333s9.536-21.333,21.333-21.333h298.667c11.797,0,21.333,9.557,21.333,21.333
			S417.131,149.333,405.333,149.333z"/>
	</g>
</g>
<g>
</g>
<g>
</g>
<g>
</g>
<g>
</g>
<g>
</g>
<g>
</g>
<g>
</g>
<g>
</g>
<g>
</g>
<g>
</g>
<g>
</g>
<g>
</g>
<g>
</g>
<g>
</g>
<g>
</g>
</svg>
