<?xml version="1.0" encoding="iso-8859-1"?>
<!-- Generator: Adobe Illustrator 19.0.0, SVG Export Plug-In . SVG Version: 6.00 Build 0)  -->
<svg version="1.1" id="Layer_1" xmlns="http://www.w3.org/2000/svg" xmlns:xlink="http://www.w3.org/1999/xlink" x="0px" y="0px"
	 viewBox="0 0 512 512" style="enable-background:new 0 0 512 512;" xml:space="preserve">
<g>
	<g>
		<path d="M490.667,0H21.333C9.536,0,0,9.557,0,21.333v469.333C0,502.443,9.536,512,21.333,512h469.333
			c11.797,0,21.333-9.557,21.333-21.333V21.333C512,9.557,502.464,0,490.667,0z M213.333,405.333H106.667
			c-11.797,0-21.333-9.557-21.333-21.333s9.536-21.333,21.333-21.333h106.667c11.797,0,21.333,9.557,21.333,21.333
			S225.131,405.333,213.333,405.333z M234.667,320h-128c-11.797,0-21.333-9.557-21.333-21.333s9.536-21.333,21.333-21.333h128
			c11.797,0,21.333,9.557,21.333,21.333S246.464,320,234.667,320z M85.333,213.333c0-11.776,9.536-21.333,21.333-21.333H192
			c11.797,0,21.333,9.557,21.333,21.333s-9.536,21.333-21.333,21.333h-85.333C94.869,234.667,85.333,225.109,85.333,213.333z
			 M234.667,149.333h-128c-11.797,0-21.333-9.557-21.333-21.333s9.536-21.333,21.333-21.333h128
			c11.797,0,21.333,9.557,21.333,21.333S246.464,149.333,234.667,149.333z M320,384c0,11.776-9.536,21.333-21.333,21.333
			c-11.797,0-21.333-9.557-21.333-21.333V128c0-11.776,9.536-21.333,21.333-21.333c11.797,0,21.333,9.557,21.333,21.333V384z
			 M420.416,283.584c8.341,8.341,8.341,21.824,0,30.165c-4.16,4.16-9.621,6.251-15.083,6.251c-5.461,0-10.923-2.091-15.083-6.251
			l-42.667-42.667c-8.341-8.341-8.341-21.824,0-30.165l42.667-42.667c8.341-8.341,21.824-8.341,30.165,0s8.341,21.824,0,30.165
			L392.832,256L420.416,283.584z"/>
	</g>
</g>
<g>
</g>
<g>
</g>
<g>
</g>
<g>
</g>
<g>
</g>
<g>
</g>
<g>
</g>
<g>
</g>
<g>
</g>
<g>
</g>
<g>
</g>
<g>
</g>
<g>
</g>
<g>
</g>
<g>
</g>
</svg>
