<?xml version="1.0" encoding="iso-8859-1"?>
<!-- Generator: Adobe Illustrator 19.0.0, SVG Export Plug-In . SVG Version: 6.00 Build 0)  -->
<svg version="1.1" id="Layer_1" xmlns="http://www.w3.org/2000/svg" xmlns:xlink="http://www.w3.org/1999/xlink" x="0px" y="0px"
	 viewBox="0 0 512 512" style="enable-background:new 0 0 512 512;" xml:space="preserve">
<g>
	<g>
		<path d="M490.667,0H21.333C9.536,0,0,9.557,0,21.333v469.333C0,502.443,9.536,512,21.333,512h469.333
			c11.797,0,21.333-9.557,21.333-21.333V21.333C512,9.557,502.464,0,490.667,0z M106.667,106.667h128
			c11.797,0,21.333,9.557,21.333,21.333s-9.536,21.333-21.333,21.333h-128c-11.797,0-21.333-9.557-21.333-21.333
			S94.869,106.667,106.667,106.667z M164.416,356.416l-42.667,42.667c-4.16,4.16-9.621,6.251-15.083,6.251
			c-5.461,0-10.923-2.091-15.083-6.251c-8.341-8.341-8.341-21.824,0-30.165l27.584-27.584l-27.584-27.584
			c-8.341-8.341-8.341-21.824,0-30.165c8.341-8.341,21.824-8.341,30.165,0l42.667,42.667
			C172.757,334.592,172.757,348.075,164.416,356.416z M234.667,384c0,11.776-9.536,21.333-21.333,21.333
			C201.536,405.333,192,395.776,192,384v-85.333c0-11.776,9.536-21.333,21.333-21.333c11.797,0,21.333,9.557,21.333,21.333V384z
			 M405.333,405.333h-128C265.536,405.333,256,395.776,256,384s9.536-21.333,21.333-21.333h128c11.797,0,21.333,9.557,21.333,21.333
			S417.131,405.333,405.333,405.333z M405.333,320h-128C265.536,320,256,310.443,256,298.667s9.536-21.333,21.333-21.333h128
			c11.797,0,21.333,9.557,21.333,21.333S417.131,320,405.333,320z M405.333,234.667H170.667c-11.797,0-21.333-9.557-21.333-21.333
			S158.869,192,170.667,192h234.667c11.797,0,21.333,9.557,21.333,21.333S417.131,234.667,405.333,234.667z M405.333,149.333H320
			c-11.797,0-21.333-9.557-21.333-21.333s9.536-21.333,21.333-21.333h85.333c11.797,0,21.333,9.557,21.333,21.333
			S417.131,149.333,405.333,149.333z"/>
	</g>
</g>
<g>
</g>
<g>
</g>
<g>
</g>
<g>
</g>
<g>
</g>
<g>
</g>
<g>
</g>
<g>
</g>
<g>
</g>
<g>
</g>
<g>
</g>
<g>
</g>
<g>
</g>
<g>
</g>
<g>
</g>
</svg>
