<?xml version="1.0" encoding="iso-8859-1"?>
<!-- Generator: Adobe Illustrator 19.0.0, SVG Export Plug-In . SVG Version: 6.00 Build 0)  -->
<svg version="1.1" id="Layer_1" xmlns="http://www.w3.org/2000/svg" xmlns:xlink="http://www.w3.org/1999/xlink" x="0px" y="0px"
	 viewBox="0 0 512 512" style="enable-background:new 0 0 512 512;" xml:space="preserve">
<g>
	<g>
		<path d="M490.667,0H21.333C9.536,0,0,9.536,0,21.333v469.333C0,502.443,9.536,512,21.333,512h469.333
			c11.776,0,21.333-9.557,21.333-21.333V21.333C512,9.536,502.443,0,490.667,0z M222.784,209.963l81.899,46.784
			c42.432,24.256,62.272,69.504,50.517,115.285c-11.627,45.205-50.197,74.965-98.368,75.947c-0.277,0.021-0.576,0-0.832,0.021
			h-0.491c-56.64-0.299-106.176-50.027-106.176-106.667c0-11.797,9.536-21.333,21.333-21.333c11.776,0,21.333,9.536,21.333,21.333
			c0,33.429,30.379,63.893,63.829,64c34.645-0.661,52.693-23.083,58.048-43.904c5.419-21.205,0.32-50.112-30.357-67.627
			l-81.899-46.805c-40.448-23.104-59.605-65.067-48.853-106.923c11.413-44.416,52.331-74.901,101.995-76.053
			C255.168,64,255.573,64,256,64h0.469c56.64,0.299,106.197,50.005,106.197,106.667c0,11.776-9.557,21.333-21.333,21.333
			C329.536,192,320,182.443,320,170.667c0-33.451-30.4-63.893-63.851-64c-37.632,0.683-56.939,24.128-62.08,44.032
			C188.075,174.101,198.805,196.245,222.784,209.963z"/>
	</g>
</g>
<g>
</g>
<g>
</g>
<g>
</g>
<g>
</g>
<g>
</g>
<g>
</g>
<g>
</g>
<g>
</g>
<g>
</g>
<g>
</g>
<g>
</g>
<g>
</g>
<g>
</g>
<g>
</g>
<g>
</g>
</svg>
