<?xml version="1.0" encoding="iso-8859-1"?>
<!-- Generator: Adobe Illustrator 19.0.0, SVG Export Plug-In . SVG Version: 6.00 Build 0)  -->
<svg version="1.1" id="Layer_1" xmlns="http://www.w3.org/2000/svg" xmlns:xlink="http://www.w3.org/1999/xlink" x="0px" y="0px"
	 viewBox="0 0 512 512" style="enable-background:new 0 0 512 512;" xml:space="preserve">
<g>
	<g>
		<g>
			<rect x="106.667" y="128" width="298.667" height="42.667"/>
			<path d="M490.667,0H21.333C9.536,0,0,9.557,0,21.333v469.333C0,502.443,9.536,512,21.333,512h469.333
				c11.797,0,21.333-9.557,21.333-21.333V21.333C512,9.557,502.464,0,490.667,0z M335.083,335.083
				c-4.16,4.16-9.621,6.251-15.083,6.251s-10.923-2.091-15.083-6.251l-27.584-27.584v97.835c0,11.776-9.536,21.333-21.333,21.333
				s-21.333-9.557-21.333-21.333v-97.835l-27.584,27.584c-4.16,4.16-9.621,6.251-15.083,6.251s-10.923-2.091-15.083-6.251
				c-8.341-8.341-8.341-21.824,0-30.165l63.979-63.979c1.963-1.984,4.331-3.541,6.955-4.629c5.205-2.155,11.093-2.155,16.299,0
				c2.624,1.088,4.992,2.645,6.955,4.629l63.979,63.979C343.424,313.259,343.424,326.741,335.083,335.083z M448,192
				c0,11.776-9.536,21.333-21.333,21.333H85.333C73.536,213.333,64,203.776,64,192v-85.333c0-11.776,9.536-21.333,21.333-21.333
				h341.333c11.797,0,21.333,9.557,21.333,21.333V192z"/>
		</g>
	</g>
</g>
<g>
</g>
<g>
</g>
<g>
</g>
<g>
</g>
<g>
</g>
<g>
</g>
<g>
</g>
<g>
</g>
<g>
</g>
<g>
</g>
<g>
</g>
<g>
</g>
<g>
</g>
<g>
</g>
<g>
</g>
</svg>
