<?xml version="1.0" encoding="iso-8859-1"?>
<!-- Generator: Adobe Illustrator 19.0.0, SVG Export Plug-In . SVG Version: 6.00 Build 0)  -->
<svg version="1.1" id="Layer_1" xmlns="http://www.w3.org/2000/svg" xmlns:xlink="http://www.w3.org/1999/xlink" x="0px" y="0px"
	 viewBox="0 0 511.989 511.989" style="enable-background:new 0 0 511.989 511.989;" xml:space="preserve">
<g>
	<g>
		<path d="M507.375,312.293c-14.967-20.838-30.131-21.171-68.087-1.203l-73.574,44.996c-8.636,4.591-45.261,16.068-49.98,16.068
			H179.2c-25.6,0-25.6,12.843-25.6,17.067c0,4.71-3.814,8.533-8.533,8.533c-4.71,0-8.533-3.823-8.533-8.533
			c0-21.376,15.957-34.133,42.667-34.133h133.453c0-5.931-2.347-12.476-7.108-19.584c-9.685-14.464-24.559-24.602-41.651-29.047
			c0.333-1.997,0.768-4.036,1.016-6.007l38.204-23.415c4.019-2.458,5.282-7.714,2.816-11.733c-2.458-4.019-7.706-5.274-11.733-2.816
			l-28.177,17.271c-0.06-6.11-0.375-12.151-1.237-18.074c12.211-11.802,32.256-15.266,51.686-18.62
			c3.396-0.589,6.664-1.178,9.907-1.783l25.984,25.984c1.664,1.664,3.849,2.5,6.033,2.5s4.361-0.836,6.033-2.5
			c3.328-3.337,3.328-8.738,0-12.066l-18.731-18.731c10.726-3.584,20.471-8.841,29.03-15.625l29.85,21.683
			c1.519,1.101,3.268,1.638,5.009,1.638c2.637,0,5.239-1.22,6.903-3.516c2.782-3.823,1.929-9.156-1.877-11.921l-27.349-19.866
			c3.208-3.686,6.221-7.578,8.9-11.81c1.434-2.27,2.321-4.531,2.978-6.776l31.258-15.249c4.233-2.065,5.99-7.177,3.925-11.409
			c-2.057-4.233-7.142-6.008-11.409-3.925l-25.882,12.629c-2.15-3.729-5.197-6.938-8.832-9.233
			c-1.331-0.836-2.739-1.562-4.207-2.176V133.23c0-4.719-3.814-8.533-8.533-8.533s-8.533,3.814-8.533,8.533v26.513
			c-5.572,1.485-10.82,4.881-14.677,10.965c-9.173,14.515-26.641,19.712-45.056,23.279v-26.624c0-4.719-3.814-8.533-8.533-8.533
			s-8.533,3.814-8.533,8.533v29.722c-4.779,0.853-9.557,1.749-14.071,2.842c-10.359,2.509-20.062,6.511-28.979,11.93
			c-1.314-2.313-2.654-4.523-4.011-6.647c-2.705-4.224-7.723-15.761-8.192-17.783c-0.119-18.586,19.328-31.309,38.118-43.614
			c8.55-5.598,16.631-10.897,23.202-16.853c6.178-5.615,11.102-12.228,14.959-19.328h38.707c4.719,0,8.533-3.823,8.533-8.533
			c0-4.719-3.814-8.533-8.533-8.533h-31.949c0.922-3.712,1.493-7.475,1.809-11.264l33.63-15.087
			c4.301-1.929,6.221-6.98,4.292-11.281c-1.929-4.292-6.989-6.221-11.273-4.284L318.891,60.97c-0.614-3.217-1.451-6.409-2.56-9.523
			c-1.408-3.959-3.686-7.236-6.46-9.958l13.286-23.535c2.313-4.104,0.862-9.31-3.243-11.622c-4.087-2.321-9.301-0.879-11.622,3.234
			l-14.037,24.858c-8.823-0.836-17.749,2.321-23.219,8.755c-0.06,0.068-0.085,0.154-0.137,0.222l-26.974-19.49
			c-3.84-2.765-9.165-1.911-11.921,1.92c-2.756,3.823-1.894,9.156,1.92,11.913l32.222,23.287c0.256,1.732,0.58,3.473,1.203,5.222
			c3.959,11.093-1.331,19.968-11.819,28.851l-19.106-19.106c-3.336-3.337-8.738-3.337-12.066,0c-3.337,3.328-3.337,8.73,0,12.066
			l17.254,17.254c-2.415,1.604-4.915,3.226-7.535,4.89c-5.001,3.183-9.711,6.195-13.773,9.216
			c-12.996,9.694-22.878,21.41-29.047,34.355c-15.607-13.193-30.08-26.317-38.707-41.574l41.207-41.207
			c3.328-3.336,3.328-8.738,0-12.066c-3.337-3.337-8.738-3.337-12.066,0l-35.908,35.917c-1.63-7.262-1.929-15.036-0.452-23.526
			c3.26-18.756-14.942-61.534-21.871-65.135l-5.623-2.884l-4.42,4.437c-4.924,4.924-10.129,20.89-13.662,33.997L74.291,16.263
			c-3.337-3.337-8.738-3.337-12.066,0c-3.336,3.328-3.336,8.73,0,12.066l33.109,33.118c-5.794,37.094,6.647,64.845,25.557,88.849
			H85.325c-4.719,0-8.533,3.814-8.533,8.533c0,4.71,3.814,8.533,8.533,8.533h50.449c7.142,7.535,14.66,14.822,22.144,22.05
			c10.035,9.685,19.883,19.226,28.518,29.15h-32.845c-4.719,0-8.533,3.814-8.533,8.533c0,4.71,3.814,8.533,8.533,8.533h45.918
			c7.714,11.725,13.133,24.329,14.797,38.537l-32.043-12.365c-4.412-1.698-9.336,0.486-11.034,4.881
			c-1.698,4.403,0.495,9.344,4.881,11.034l38.289,14.78c-0.333,3.106-0.811,6.272-1.493,9.532c-0.128,0.623-0.077,1.237-0.162,1.86
			h-1.818c-17.869,0-35.234-5.666-48.887-15.966c-30.618-23.074-78.797,1.86-102.306,16.794v-17.894H0v221.867h59.733v-25.6h110.933
			c17.442,0,35.004-1.331,52.198-3.951l110.609-16.811c4.028-0.051,8.115-0.529,11.742-1.348
			c10.18-1.434,19.917-6.298,28.177-14.089l129.348-100.719l0.196-0.162C513.007,337.671,514.953,322.858,507.375,312.293z"/>
	</g>
</g>
<g>
</g>
<g>
</g>
<g>
</g>
<g>
</g>
<g>
</g>
<g>
</g>
<g>
</g>
<g>
</g>
<g>
</g>
<g>
</g>
<g>
</g>
<g>
</g>
<g>
</g>
<g>
</g>
<g>
</g>
</svg>
