<?xml version="1.0" encoding="iso-8859-1"?>
<!-- Generator: Adobe Illustrator 19.0.0, SVG Export Plug-In . SVG Version: 6.00 Build 0)  -->
<svg version="1.1" id="Layer_1" xmlns="http://www.w3.org/2000/svg" xmlns:xlink="http://www.w3.org/1999/xlink" x="0px" y="0px"
	 viewBox="0 0 512 512" style="enable-background:new 0 0 512 512;" xml:space="preserve">
<g transform="translate(0 -1)">
	<g>
		<g>
			<path d="M119.447,43.667c2.185,0,4.369-0.836,6.033-2.5c3.337-3.337,3.337-8.73,0-12.066L99.888,3.51
				c-0.785-0.794-1.732-1.417-2.782-1.852c-2.082-0.862-4.437-0.862-6.519,0c-1.05,0.435-1.997,1.058-2.782,1.852L62.214,29.101
				c-3.337,3.337-3.337,8.73,0,12.066c3.337,3.337,8.73,3.337,12.066,0l11.034-11.034v98.867c0,4.719,3.814,8.533,8.533,8.533
				s8.533-3.814,8.533-8.533V30.134l11.034,11.034C115.078,42.831,117.262,43.667,119.447,43.667z"/>
			<path d="M452.272,342.154l-0.026-119.287c0-20.139-16.435-42.667-38.417-42.667c-8.073,0-15.309,2.927-21.257,7.612l0.009-7.612
				c0-20.19-16.435-42.769-38.417-42.769c-8.055,0-15.36,3.038-21.385,7.868V43.667C332.78,23.528,316.345,1,294.363,1
				c-9.028,0-17.903,3.917-25.003,11.042c-6.298,6.306-10.675,14.549-12.459,23.1c-6.178-5.222-13.798-8.542-22.229-8.542
				c-21.965,0-38.383,22.528-38.383,42.667l-0.034,155.119c-7.706-15.846-17.476-31.036-28.126-41.685
				c-13.815-13.815-41.071-14.814-56.09-2.022c-4.873,4.156-19.268,19.84,0.478,47.181c18.304,25.37,32.512,82.364,32.512,114.475
				c0,68.181,44.356,98.978,59.75,107.597v54.536c0,4.719,3.814,8.533,8.533,8.533h204.8c4.71,0,8.525-3.814,8.533-8.516
				l0.085-57.028C452.409,413.083,452.4,409.038,452.272,342.154z M298.647,419.133h25.6c4.719,0,8.533,3.814,8.533,8.533
				c0,4.719-3.814,8.533-8.533,8.533h-25.6c-4.719,0-8.533-3.814-8.533-8.533C290.113,422.948,293.928,419.133,298.647,419.133z
				 M332.78,470.333h-42.667c-4.719,0-8.533-3.814-8.533-8.533s3.814-8.533,8.533-8.533h42.667c4.719,0,8.533,3.814,8.533,8.533
				S337.499,470.333,332.78,470.333z"/>
		</g>
	</g>
</g>
<g>
</g>
<g>
</g>
<g>
</g>
<g>
</g>
<g>
</g>
<g>
</g>
<g>
</g>
<g>
</g>
<g>
</g>
<g>
</g>
<g>
</g>
<g>
</g>
<g>
</g>
<g>
</g>
<g>
</g>
</svg>
