<?xml version="1.0" encoding="iso-8859-1"?>
<!-- Generator: Adobe Illustrator 19.0.0, SVG Export Plug-In . SVG Version: 6.00 Build 0)  -->
<svg version="1.1" id="Layer_1" xmlns="http://www.w3.org/2000/svg" xmlns:xlink="http://www.w3.org/1999/xlink" x="0px" y="0px"
	 viewBox="0 0 512.001 512.001" style="enable-background:new 0 0 512.001 512.001;" xml:space="preserve">
<g transform="translate(0 -1)">
	<g>
		<g>
			<path d="M77.763,136.876c1.041,0.435,2.15,0.657,3.26,0.657s2.219-0.222,3.26-0.657c1.05-0.435,1.997-1.058,2.782-1.852
				l25.591-25.591c3.337-3.328,3.337-8.73,0-12.066c-3.337-3.337-8.73-3.337-12.066,0l-11.034,11.034V9.533
				c0-4.71-3.814-8.533-8.533-8.533S72.49,4.823,72.49,9.533v98.867L61.456,97.367c-3.336-3.337-8.73-3.337-12.066,0
				c-3.337,3.336-3.337,8.738,0,12.066l25.591,25.591C75.775,135.818,76.714,136.441,77.763,136.876z"/>
			<path d="M422.447,180.201c-9.6,0-18.466,3.191-25.6,8.55v-8.55c0-23.526-19.14-42.667-42.667-42.667
				c-9.6,0-18.466,3.191-25.6,8.55V43.667c0-23.526-19.14-42.667-42.667-42.667c-23.526,0-42.667,19.14-42.667,42.667v0.017
				c-7.134-5.359-16-8.55-25.6-8.55c-23.526,0-42.667,19.14-42.667,42.667v160.205c-19.038-32.41-62.686-49.306-95.514-36.941
				c-4.779,1.801-8.9,4.378-11.605,6.161c-12.791,8.474-12.45,18.901-12.211,22.69c-0.828,4.634,0.128,5.734,11.784,19.208
				c15.053,17.391,46.379,53.572,66.142,89.148c0.768,1.246,14.285,23.1,31.915,45.722c0.657,0.35,1.331,0.717,1.98,1.058
				c35.934,19.183,58.249,31.189,64.137,36.028c3.635,2.995,4.156,8.371,1.161,12.015c-1.69,2.048-4.13,3.106-6.596,3.106
				c-1.911,0-3.823-0.64-5.419-1.946c-3.396-2.799-19.081-11.469-37.239-21.257v14.754c0,47.01,38.238,85.248,85.248,85.248h85.419
				c36.983,0,75.119-30.686,83.277-67.021c2.227-9.95,5.248-17.502,8.508-21.257c0.273-0.316,0.555-0.751,0.828-1.092
				c-21.333,7.066-38.852,12.186-39.27,12.297c-0.717,0.188-1.442,0.273-2.15,0.273c-3.789,0-7.253-2.543-8.252-6.391
				c-1.178-4.557,1.553-9.216,6.118-10.402c12.399-3.217,34.261-10.24,55.023-17.638c3.977-11.341,6.852-25.617,6.852-42.368
				V222.868C465.113,199.341,445.973,180.201,422.447,180.201z"/>
		</g>
	</g>
</g>
<g>
</g>
<g>
</g>
<g>
</g>
<g>
</g>
<g>
</g>
<g>
</g>
<g>
</g>
<g>
</g>
<g>
</g>
<g>
</g>
<g>
</g>
<g>
</g>
<g>
</g>
<g>
</g>
<g>
</g>
</svg>
