<?xml version="1.0" encoding="iso-8859-1"?>
<!-- Generator: Adobe Illustrator 19.0.0, SVG Export Plug-In . SVG Version: 6.00 Build 0)  -->
<svg version="1.1" id="Layer_1" xmlns="http://www.w3.org/2000/svg" xmlns:xlink="http://www.w3.org/1999/xlink" x="0px" y="0px"
	 viewBox="0 0 512 512" style="enable-background:new 0 0 512 512;" xml:space="preserve">
<g transform="translate(0 -1)">
	<g>
		<path d="M432.342,111.933c0-23.526-19.14-42.667-42.667-42.667c-9.6,0-18.466,3.183-25.6,8.55v-8.55
			c0-23.526-19.14-42.667-42.667-42.667c-9.933,0-19.081,3.405-26.342,9.122C291.337,15.985,273.954,1,253.142,1
			c-18.304,0-33.954,11.58-39.996,27.802c-7.535-6.673-17.434-10.735-28.271-10.735c-23.526,0-42.667,19.14-42.667,42.667v47.599
			c-11.767-7.91-26.965-11.204-39.509-7.057c-6.775,2.244-28.143,12.51-18.85,50.586c7.415,30.362,2.825,71.586-0.862,104.713
			c-0.99,8.892-1.929,17.306-2.586,24.943c-8.26,96.017,53.154,140.749,70.34,151.305v70.076c0,4.693,3.78,8.499,8.474,8.533
			l230.4,1.57h0.06c2.253,0,4.412-0.887,6.016-2.475c1.613-1.613,2.517-3.78,2.517-6.059v-74.112
			c33.186-44.271,34.15-49.126,34.15-147.755L432.342,111.933z M261.675,419.133h34.133c4.71,0,8.533,3.814,8.533,8.533
			c0,4.719-3.823,8.533-8.533,8.533h-34.133c-4.71,0-8.533-3.814-8.533-8.533C253.142,422.948,256.965,419.133,261.675,419.133z
			 M304.342,470.333h-50.5c-4.719,0-8.533-3.814-8.533-8.533s3.814-8.533,8.533-8.533h50.5c4.71,0,8.533,3.814,8.533,8.533
			S309.052,470.333,304.342,470.333z"/>
	</g>
</g>
<g>
</g>
<g>
</g>
<g>
</g>
<g>
</g>
<g>
</g>
<g>
</g>
<g>
</g>
<g>
</g>
<g>
</g>
<g>
</g>
<g>
</g>
<g>
</g>
<g>
</g>
<g>
</g>
<g>
</g>
</svg>
