<?xml version="1.0" encoding="iso-8859-1"?>
<!-- Generator: Adobe Illustrator 19.0.0, SVG Export Plug-In . SVG Version: 6.00 Build 0)  -->
<svg version="1.1" id="Layer_1" xmlns="http://www.w3.org/2000/svg" xmlns:xlink="http://www.w3.org/1999/xlink" x="0px" y="0px"
	 viewBox="0 0 512.002 512.002" style="enable-background:new 0 0 512.002 512.002;" xml:space="preserve">
<g transform="translate(0 -1)">
	<g>
		<g>
			<path d="M499.2,26.602h-98.867l11.034-11.034c3.337-3.337,3.337-8.73,0-12.066c-3.336-3.337-8.73-3.337-12.066,0l-25.6,25.6
				c-0.785,0.785-1.408,1.732-1.843,2.773c-0.862,2.082-0.862,4.437,0,6.519c0.435,1.05,1.058,1.988,1.843,2.773l25.6,25.6
				c1.664,1.664,3.849,2.5,6.033,2.5c2.185,0,4.369-0.836,6.033-2.5c3.337-3.337,3.337-8.73,0-12.066l-11.034-11.034H499.2
				c4.71,0,8.533-3.823,8.533-8.533S503.91,26.602,499.2,26.602z"/>
			<path d="M371.29,180.202c-9.6,0-18.466,3.191-25.6,8.55V77.802c0-23.526-19.14-42.667-42.667-42.667
				c-9.771,0-18.569,4.164-25.6,10.232v-1.698c0-23.526-19.14-42.667-42.667-42.667c-23.526,0-42.667,19.14-42.667,42.667v0.017
				c-7.134-5.359-16-8.55-25.6-8.55c-23.526,0-42.667,19.14-42.667,42.667v160.205c-19.038-32.41-62.677-49.306-95.514-36.941
				c-4.779,1.801-8.9,4.378-11.605,6.161c-12.791,8.474-12.45,18.901-12.211,22.69c-0.828,4.634,0.128,5.734,11.785,19.208
				c15.053,17.391,46.379,53.572,66.142,89.148c0.802,1.306,15.599,25.207,34.449,48.93c6.067,3.089,12.339,6.229,18.193,9.165
				c24.311,12.143,39.501,19.866,45.389,24.713c3.635,2.995,4.156,8.371,1.161,12.015c-1.69,2.048-4.13,3.106-6.596,3.106
				c-1.911,0-3.823-0.64-5.419-1.946c-4.369-3.601-21.103-12.092-37.239-20.164v13.662c0,47.01,38.238,85.248,85.248,85.248h85.419
				c36.983,0,75.119-30.686,83.277-67.021c1.596-7.142,3.61-12.971,5.82-17.126c-2.364,0.444-4.753,0.896-7.262,1.357
				c-12.194,2.261-22.724,4.215-28.493,5.717c-0.717,0.188-1.442,0.273-2.15,0.273c-3.789,0-7.253-2.543-8.252-6.391
				c-1.178-4.557,1.553-9.216,6.118-10.402c6.34-1.647,17.152-3.652,29.67-5.973c6.033-1.118,14.037-2.611,22.434-4.275
				c5.436-12.194,9.771-29.124,9.771-49.758V222.869C413.956,199.342,394.816,180.202,371.29,180.202z"/>
		</g>
	</g>
</g>
<g>
</g>
<g>
</g>
<g>
</g>
<g>
</g>
<g>
</g>
<g>
</g>
<g>
</g>
<g>
</g>
<g>
</g>
<g>
</g>
<g>
</g>
<g>
</g>
<g>
</g>
<g>
</g>
<g>
</g>
</svg>
