<?xml version="1.0" encoding="iso-8859-1"?>
<!-- Generator: Adobe Illustrator 19.0.0, SVG Export Plug-In . SVG Version: 6.00 Build 0)  -->
<svg version="1.1" id="Layer_1" xmlns="http://www.w3.org/2000/svg" xmlns:xlink="http://www.w3.org/1999/xlink" x="0px" y="0px"
	 viewBox="0 0 512 512" style="enable-background:new 0 0 512 512;" xml:space="preserve">
<g transform="translate(0 -1)">
	<g>
		<g>
			<path d="M490.007,31.873c-0.435-1.05-1.067-1.997-1.852-2.782L462.564,3.499c-3.336-3.328-8.73-3.328-12.066,0
				c-3.337,3.337-3.337,8.738,0,12.066l11.034,11.034h-98.867c-4.71,0-8.533,3.814-8.533,8.533s3.823,8.533,8.533,8.533h98.867
				l-11.034,11.034c-3.337,3.337-3.337,8.738,0,12.066c1.664,1.672,3.849,2.5,6.033,2.5c2.185,0,4.369-0.828,6.033-2.5
				l25.591-25.591c0.785-0.785,1.417-1.732,1.852-2.782C490.869,36.31,490.869,33.963,490.007,31.873z"/>
			<path d="M371.197,222.867c0-20.139-16.427-42.667-38.417-42.667c-8.073,0-15.309,2.927-21.257,7.62l0.008-7.62
				c0-20.19-16.427-42.769-38.417-42.769c-8.055,0-15.36,3.038-21.385,7.868V43.667C251.73,23.528,235.304,1,213.313,1
				c-9.02,0-17.903,3.917-25.003,11.034c-6.289,6.306-10.675,14.558-12.459,23.108c-6.187-5.222-13.798-8.542-22.238-8.542
				c-21.965,0-38.383,22.528-38.383,42.667l-0.026,155.119C107.5,208.539,97.729,193.35,87.08,182.7
				c-13.824-13.815-41.088-14.805-56.09-2.022c-4.881,4.156-19.268,19.84,0.469,47.181c18.313,25.37,32.521,82.364,32.521,114.475
				c0,68.181,44.365,98.978,59.75,107.597v54.536c0,4.719,3.823,8.533,8.533,8.533h204.8c4.71,0,8.525-3.806,8.533-8.516
				l0.094-57.037c25.668-34.364,25.66-38.417,25.523-105.293L371.197,222.867z M217.597,419.133h25.6
				c4.71,0,8.533,3.814,8.533,8.533c0,4.719-3.823,8.533-8.533,8.533h-25.6c-4.71,0-8.533-3.814-8.533-8.533
				C209.064,422.948,212.887,419.133,217.597,419.133z M251.73,470.333h-42.667c-4.71,0-8.533-3.814-8.533-8.533
				s3.823-8.533,8.533-8.533h42.667c4.71,0,8.533,3.814,8.533,8.533S256.441,470.333,251.73,470.333z"/>
		</g>
	</g>
</g>
<g>
</g>
<g>
</g>
<g>
</g>
<g>
</g>
<g>
</g>
<g>
</g>
<g>
</g>
<g>
</g>
<g>
</g>
<g>
</g>
<g>
</g>
<g>
</g>
<g>
</g>
<g>
</g>
<g>
</g>
</svg>
