<?xml version="1.0" encoding="iso-8859-1"?>
<!-- Generator: Adobe Illustrator 19.0.0, SVG Export Plug-In . SVG Version: 6.00 Build 0)  -->
<svg version="1.1" id="Layer_1" xmlns="http://www.w3.org/2000/svg" xmlns:xlink="http://www.w3.org/1999/xlink" x="0px" y="0px"
	 viewBox="0 0 512.002 512.002" style="enable-background:new 0 0 512.002 512.002;" xml:space="preserve">
<g transform="translate(0 -1)">
	<g>
		<g>
			<path d="M482.125,26.602h-98.867l11.034-11.034c1.664-1.664,2.5-3.849,2.5-6.033c0-2.185-0.836-4.369-2.5-6.033
				c-3.336-3.337-8.73-3.337-12.066,0l-25.6,25.6c-0.009,0.009-0.009,0.009-0.017,0.017c0,0-0.009,0.026-0.017,0.017l-0.009,0.009
				c-0.026,0-0.017,0.026-0.026,0.026v0.009c-1.476,1.51-2.278,3.422-2.415,5.385v0.009v0.009c-0.034,0.538-0.017,1.084,0.051,1.63
				v0.009c0.205,1.63,0.887,3.209,2.031,4.523c0.145,0.162,0.29,0.316,0.444,0.469l25.557,25.557c1.664,1.664,3.849,2.5,6.033,2.5
				c2.185,0,4.369-0.836,6.033-2.5c3.337-3.337,3.337-8.73,0-12.066l-11.034-11.034h98.867c4.71,0,8.533-3.814,8.533-8.533
				S486.836,26.602,482.125,26.602z"/>
			<path d="M371.192,222.869c0-20.139-16.427-42.667-38.417-42.667c-8.073,0-15.309,2.927-21.257,7.62l0.008-7.62
				c0-20.19-16.427-42.769-38.417-42.769c-8.055,0-15.36,3.038-21.393,7.868c-0.41-19.942-16.7-41.899-38.409-41.899
				c-8.021,0-15.3,3.012-21.316,7.799V43.669c0-20.139-16.427-42.667-38.417-42.667c-21.965,0-38.383,22.528-38.383,42.667v180.702
				c-7.706-15.846-17.468-31.027-28.117-41.668c-13.824-13.815-41.079-14.805-56.09-2.022c-4.881,4.156-19.268,19.84,0.478,47.181
				c18.304,25.37,32.512,82.364,32.512,114.475c0,68.181,44.365,98.978,59.75,107.597v54.536c0,4.719,3.823,8.533,8.533,8.533h204.8
				c4.71,0,8.525-3.806,8.533-8.516l0.094-57.037c25.668-34.364,25.66-38.417,25.523-105.293L371.192,222.869z M217.592,419.136
				h25.6c4.71,0,8.533,3.814,8.533,8.533c0,4.719-3.823,8.533-8.533,8.533h-25.6c-4.71,0-8.533-3.814-8.533-8.533
				C209.058,422.95,212.881,419.136,217.592,419.136z M251.725,470.335h-42.667c-4.71,0-8.533-3.814-8.533-8.533
				s3.823-8.533,8.533-8.533h42.667c4.71,0,8.533,3.814,8.533,8.533S256.436,470.335,251.725,470.335z"/>
		</g>
	</g>
</g>
<g>
</g>
<g>
</g>
<g>
</g>
<g>
</g>
<g>
</g>
<g>
</g>
<g>
</g>
<g>
</g>
<g>
</g>
<g>
</g>
<g>
</g>
<g>
</g>
<g>
</g>
<g>
</g>
<g>
</g>
</svg>
