<?xml version="1.0" encoding="iso-8859-1"?>
<!-- Generator: Adobe Illustrator 19.0.0, SVG Export Plug-In . SVG Version: 6.00 Build 0)  -->
<svg version="1.1" id="Layer_1" xmlns="http://www.w3.org/2000/svg" xmlns:xlink="http://www.w3.org/1999/xlink" x="0px" y="0px"
	 viewBox="0 0 512.002 512.002" style="enable-background:new 0 0 512.002 512.002;" xml:space="preserve">
<g transform="translate(0 -1)">
	<g>
		<g>
			<path d="M482.126,26.602h-98.867l11.034-11.034c3.337-3.337,3.337-8.73,0-12.066c-3.336-3.337-8.73-3.337-12.066,0
				l-25.591,25.591c-0.794,0.794-1.417,1.732-1.852,2.782c-0.862,2.082-0.862,4.437,0,6.519c0.435,1.05,1.058,1.988,1.852,2.782
				l25.591,25.591c1.664,1.664,3.849,2.5,6.033,2.5c2.185,0,4.369-0.836,6.033-2.5c3.337-3.337,3.337-8.73,0-12.066l-11.034-11.034
				h98.867c4.71,0,8.533-3.814,8.533-8.533S486.837,26.602,482.126,26.602z"/>
			<path d="M371.193,222.869c0-20.139-16.427-42.667-38.417-42.667c-8.107,0-15.343,2.927-21.291,7.603l0.043-126.968
				c0-20.19-16.427-42.769-38.417-42.769c-9.404,0-17.783,4.122-24.294,10.436c-5.649-14.839-19.021-27.503-35.507-27.503
				c-9.02,0-17.903,3.917-25.003,11.034c-8.209,8.226-13.158,19.738-13.338,30.916c-6.025-4.804-13.321-7.817-21.359-7.817
				c-21.965,0-38.383,22.528-38.383,42.667l-0.026,146.586c-7.706-15.846-17.476-31.036-28.126-41.685
				c-13.824-13.815-41.079-14.805-56.09-2.022c-4.881,4.156-19.268,19.84,0.469,47.181c18.313,25.37,32.521,82.364,32.521,114.475
				c0,68.181,44.365,98.978,59.75,107.597v54.536c0,4.719,3.823,8.533,8.533,8.533h204.8c4.71,0,8.525-3.806,8.533-8.516
				l0.094-57.037c25.668-34.364,25.66-38.417,25.523-105.293L371.193,222.869z M217.593,419.136h25.6
				c4.71,0,8.533,3.814,8.533,8.533c0,4.719-3.823,8.533-8.533,8.533h-25.6c-4.71,0-8.533-3.814-8.533-8.533
				C209.059,422.95,212.882,419.136,217.593,419.136z M251.726,470.335h-42.667c-4.71,0-8.533-3.814-8.533-8.533
				s3.823-8.533,8.533-8.533h42.667c4.71,0,8.533,3.814,8.533,8.533S256.437,470.335,251.726,470.335z"/>
		</g>
	</g>
</g>
<g>
</g>
<g>
</g>
<g>
</g>
<g>
</g>
<g>
</g>
<g>
</g>
<g>
</g>
<g>
</g>
<g>
</g>
<g>
</g>
<g>
</g>
<g>
</g>
<g>
</g>
<g>
</g>
<g>
</g>
</svg>
