<?xml version="1.0" encoding="iso-8859-1"?>
<!-- Generator: Adobe Illustrator 19.0.0, SVG Export Plug-In . SVG Version: 6.00 Build 0)  -->
<svg version="1.1" id="Layer_1" xmlns="http://www.w3.org/2000/svg" xmlns:xlink="http://www.w3.org/1999/xlink" x="0px" y="0px"
	 viewBox="0 0 512.001 512.001" style="enable-background:new 0 0 512.001 512.001;" xml:space="preserve">
<g transform="translate(-1 -1)">
	<g>
		<g>
			<path d="M491.609,34.06v-0.009c-0.205-1.63-0.887-3.208-2.031-4.523c-0.145-0.162-0.29-0.316-0.444-0.469L463.577,3.502
				c-3.337-3.337-8.738-3.337-12.066,0c-3.337,3.337-3.337,8.73,0,12.066l11.034,11.034h-78.268l11.034-11.034
				c1.664-1.664,2.5-3.849,2.5-6.033c0-2.185-0.836-4.369-2.5-6.033c-3.337-3.337-8.738-3.337-12.066,0l-25.6,25.6l-0.017,0.017
				c0,0-0.008,0-0.008,0.009l-0.009,0.009l-0.009,0.009l-0.009,0.008l-0.017,0.017c-0.008,0-0.008,0.009-0.008,0.009
				c-1.476,1.502-2.278,3.422-2.406,5.385v0.009v0.009c-0.034,0.538-0.017,1.075,0.051,1.63v0.009
				c0.205,1.63,0.888,3.209,2.031,4.523c0.145,0.162,0.29,0.316,0.444,0.469l25.557,25.557c3.328,3.337,8.73,3.337,12.066,0
				c3.328-3.336,3.328-8.73,0-12.066l-11.034-11.034h78.268L451.51,54.702c-1.673,1.664-2.5,3.849-2.5,6.033
				c0,2.185,0.828,4.369,2.5,6.033c1.664,1.664,3.849,2.5,6.033,2.5c2.185,0,4.369-0.836,6.033-2.5l25.6-25.6l0.017-0.017
				c0,0,0.009,0,0.009-0.008l0.009-0.009l0.009-0.009l0.008-0.009l0.017-0.017c0.009,0,0.009-0.009,0.009-0.009
				c1.468-1.51,2.27-3.422,2.406-5.385v-0.008V35.69C491.694,35.153,491.677,34.606,491.609,34.06z"/>
			<path d="M372.175,226.409c0-20.139-16.435-42.667-38.417-42.667c-8.081,0-15.309,2.927-21.265,7.612l0.009-7.612
				c0-20.19-16.427-42.769-38.417-42.769c-8.03,0-15.317,3.021-21.342,7.825V52.21c0.009-10.095-3.908-20.557-10.735-28.732
				c-7.407-8.858-17.502-13.943-27.682-13.943c-16.469,0-29.815,12.655-35.465,27.477c-6.519-6.298-14.899-10.411-24.303-10.411
				c-21.948,0-38.349,22.528-38.349,42.667v158.754c-8.03-16.35-18.048-31.676-28.151-41.779
				c-13.824-13.815-41.088-14.805-56.098-2.022c-4.872,4.156-19.26,19.84,0.478,47.181c17.442,24.166,26.052,89.719,31.198,120.806
				l1.442,8.627c10.82,63.633,44.971,84.079,59.665,90.044v53.589c0,4.719,3.823,8.533,8.533,8.533h204.8
				c4.71,0,8.533-3.814,8.533-8.525l0.051-57.003c3.703-4.83,6.827-8.61,9.446-11.793c16.196-19.627,16.196-21.768,16.085-76.484
				L372.175,226.409z M218.609,419.135h25.6c4.71,0,8.533,3.814,8.533,8.533c0,4.719-3.823,8.533-8.533,8.533h-25.6
				c-4.71,0-8.533-3.814-8.533-8.533C210.076,422.949,213.899,419.135,218.609,419.135z M252.743,470.335h-42.667
				c-4.71,0-8.533-3.814-8.533-8.533s3.823-8.533,8.533-8.533h42.667c4.71,0,8.533,3.814,8.533,8.533
				S257.453,470.335,252.743,470.335z"/>
		</g>
	</g>
</g>
<g>
</g>
<g>
</g>
<g>
</g>
<g>
</g>
<g>
</g>
<g>
</g>
<g>
</g>
<g>
</g>
<g>
</g>
<g>
</g>
<g>
</g>
<g>
</g>
<g>
</g>
<g>
</g>
<g>
</g>
</svg>
