<?xml version="1.0" encoding="iso-8859-1"?>
<!-- Generator: Adobe Illustrator 19.0.0, SVG Export Plug-In . SVG Version: 6.00 Build 0)  -->
<svg version="1.1" id="Layer_1" xmlns="http://www.w3.org/2000/svg" xmlns:xlink="http://www.w3.org/1999/xlink" x="0px" y="0px"
	 viewBox="0 0 511.403 511.403" style="enable-background:new 0 0 511.403 511.403;" xml:space="preserve">
<g>
	<g>
		<path d="M430.626,341.154l-0.017-119.287c0-20.139-16.427-42.667-38.417-42.667c-8.107,0-15.343,2.927-21.291,7.603l0.043-126.967
			c0-20.19-16.427-42.769-38.417-42.769c-9.404,0-17.783,4.13-24.294,10.436C302.583,12.672,289.212,0,272.725,0
			c-9.028,0-17.903,3.917-25.003,11.034c-8.209,8.226-13.158,19.746-13.338,30.916c-6.024-4.804-13.32-7.817-21.359-7.817
			c-21.965,0-38.383,22.528-38.383,42.667l-0.026,146.586c-7.706-15.838-17.476-31.036-28.126-41.685
			c-13.815-13.815-41.079-14.805-56.09-2.031c-4.881,4.156-19.268,19.84,0.469,47.189c18.313,25.37,32.521,82.372,32.521,114.475
			c0,68.181,44.365,98.978,59.75,107.605v53.931c0,4.719,3.823,8.533,8.533,8.533h204.8c4.71,0,8.525-3.806,8.533-8.516
			l0.094-56.431C430.771,412.075,430.763,408.03,430.626,341.154z M277.009,417.536h25.6c4.71,0,8.533,3.814,8.533,8.533
			c0,4.719-3.823,8.533-8.533,8.533h-25.6c-4.71,0-8.533-3.814-8.533-8.533C268.476,421.35,272.298,417.536,277.009,417.536z
			 M311.142,468.736h-42.667c-4.71,0-8.533-3.814-8.533-8.533s3.823-8.533,8.533-8.533h42.667c4.71,0,8.533,3.814,8.533,8.533
			S315.853,468.736,311.142,468.736z"/>
	</g>
</g>
<g>
</g>
<g>
</g>
<g>
</g>
<g>
</g>
<g>
</g>
<g>
</g>
<g>
</g>
<g>
</g>
<g>
</g>
<g>
</g>
<g>
</g>
<g>
</g>
<g>
</g>
<g>
</g>
<g>
</g>
</svg>
