<?xml version="1.0" encoding="iso-8859-1"?>
<!-- Generator: Adobe Illustrator 19.0.0, SVG Export Plug-In . SVG Version: 6.00 Build 0)  -->
<svg version="1.1" id="Layer_1" xmlns="http://www.w3.org/2000/svg" xmlns:xlink="http://www.w3.org/1999/xlink" x="0px" y="0px"
	 viewBox="0 0 512 512" style="enable-background:new 0 0 512 512;" xml:space="preserve">
<g>
	<g>
		<path d="M396.37,425.057h37.724c19.765-28.295,19.765-39.868,19.63-106.467l-0.019-275.118C453.704,19.099,434.867,0,410.822,0
			c-24.296,0-44.061,19.504-44.061,43.472v80.085c-6.501-4.714-14.558-7.632-24.151-7.632c-12.645,0-22.663,5.014-29.899,12.636
			c-7.458-13.235-21.475-22.296-37.724-22.296c-16.249,0-30.266,9.061-37.724,22.296c-7.236-7.622-17.253-12.636-29.899-12.636
			c-29.87,0-43.472,25.04-43.472,48.302v20.383c-8.588-17.765-19.408-34.719-31.222-46.534c-15.64-15.63-46.495-16.77-63.498-2.289
			c-5.526,4.705-21.813,22.46,0.531,53.412c20.731,28.72,36.816,93.242,36.816,129.594c0,54.581,25.098,87.919,45.974,106.264
			h59.701c5.333,0,9.66,4.318,9.66,9.66c0,5.342-4.328,9.66-9.66,9.66h-38.014v29.087c0,21.243,17.273,38.535,38.497,38.535h173.993
			c21.185,0,37.907-16.896,38.052-38.535v-29.087H396.37c-5.333,0-9.66-4.318-9.66-9.66
			C386.71,429.375,391.038,425.057,396.37,425.057z M231.516,246.34c0,13.322-10.839,24.151-24.151,24.151
			s-24.151-10.829-24.151-24.151v-82.113c0-4.84,1.169-28.981,24.151-28.981c19.108,0,24.151,18.954,24.151,28.981V246.34z
			 M299.138,164.226v82.113c0,13.322-10.839,24.151-24.151,24.151s-24.151-10.829-24.151-24.151v-82.113v-14.491
			c0-13.322,10.839-24.151,24.151-24.151s24.151,10.829,24.151,24.151V164.226z M366.761,246.34
			c0,13.322-10.839,24.151-24.151,24.151s-24.151-10.829-24.151-24.151v-82.113c0-11.65,6.434-28.981,24.151-28.981
			c19.108,0,24.151,18.954,24.151,28.981V246.34z"/>
	</g>
</g>
<g>
</g>
<g>
</g>
<g>
</g>
<g>
</g>
<g>
</g>
<g>
</g>
<g>
</g>
<g>
</g>
<g>
</g>
<g>
</g>
<g>
</g>
<g>
</g>
<g>
</g>
<g>
</g>
<g>
</g>
</svg>
