<?xml version="1.0" encoding="iso-8859-1"?>
<!-- Generator: Adobe Illustrator 19.0.0, SVG Export Plug-In . SVG Version: 6.00 Build 0)  -->
<svg version="1.1" id="Layer_1" xmlns="http://www.w3.org/2000/svg" xmlns:xlink="http://www.w3.org/1999/xlink" x="0px" y="0px"
	 viewBox="0 0 512 512" style="enable-background:new 0 0 512 512;" xml:space="preserve">
<g>
	<g>
		<path d="M383.982,432.552h35.046c18.061-25.847,18.061-36.431,17.938-97.289l-0.018-17.47l-0.018-128.6
			c0-21.566-17.549-39.124-39.115-39.124h-1.218c-2.41,0-4.749,0.291-7.044,0.715c-0.697,0.132-1.377,0.3-2.057,0.468
			c-1.642,0.397-3.24,0.892-4.802,1.492c-0.644,0.247-1.306,0.468-1.942,0.75c-1.942,0.874-3.831,1.854-5.597,3.019V39.724
			C375.155,17.823,357.314,0,335.395,0c-21.645,0-39.442,17.62-39.689,39.38l-0.018,108.57c-1.871-1.254-3.893-2.304-5.976-3.231
			c-0.609-0.265-1.236-0.486-1.863-0.724c-1.615-0.627-3.275-1.148-4.988-1.554c-0.68-0.168-1.342-0.344-2.039-0.468
			c-2.348-0.433-4.732-0.733-7.203-0.733c-2.436,0-4.802,0.3-7.124,0.724c-0.583,0.106-1.156,0.221-1.73,0.353
			c-2.242,0.512-4.431,1.148-6.506,2.022c-0.035,0.018-0.071,0.026-0.106,0.044c-2.101,0.892-4.07,2.013-5.976,3.24
			c-0.486,0.318-0.962,0.644-1.439,0.98c-1.792,1.271-3.513,2.639-5.067,4.184c-0.044,0.044-0.106,0.079-0.15,0.132
			c-1.589,1.589-2.984,3.354-4.29,5.191c-0.327,0.477-0.644,0.945-0.962,1.43c-0.318,0.494-0.68,0.945-0.98,1.457
			c-0.918-0.865-1.986-1.563-2.993-2.339c-0.865-0.671-1.66-1.412-2.578-2.013c-1.289-0.839-2.701-1.483-4.087-2.172
			c-0.892-0.45-1.721-0.989-2.657-1.368c-1.615-0.653-3.337-1.077-5.049-1.527c-0.83-0.221-1.598-0.547-2.445-0.715
			c-2.604-0.512-5.297-0.794-8.077-0.794c-21.672,0-39.3,17.629-39.3,39.309v24.038c-7.971-16.384-18.07-32.097-29.087-43.105
			c-14.31-14.292-42.505-15.316-58.024-2.092c-5.049,4.299-19.933,20.524,0.486,48.808c18.944,26.253,33.642,85.213,33.642,118.422
			c0,49.876,22.934,80.34,42.011,97.103h55.128c4.873,0,8.828,3.955,8.828,8.828c0,4.882-3.955,8.828-8.828,8.828h-35.31v26.58
			c0,19.412,15.784,35.213,35.178,35.213h158.994c19.359,0,35.213-15.766,35.346-35.213v-26.58h-26.483
			c-4.873,0-8.828-3.946-8.828-8.828C375.155,436.507,379.11,432.552,383.982,432.552z M233.896,287.32
			c0,11.944-9.71,21.645-21.654,21.645h-0.839c-11.935,0-21.645-9.701-21.645-21.645v-13.683v-84.259
			c0-11.944,9.71-21.654,22.484-21.654c11.944,0,21.654,9.71,21.654,21.654V287.32z M295.689,304.552
			c0,12.173-9.905,22.069-22.069,22.069s-22.069-9.896-22.069-22.069V287.32v-97.942v-8.413c0-12.173,9.905-22.069,22.069-22.069
			s22.069,9.896,22.069,22.069V304.552z M375.137,278.678v-89.485c0-0.026,0.009-0.062,0.009-0.088c0-0.018,0.009-0.026,0.009-0.044
			c0.062-10.293,7.433-18.909,17.152-20.895c1.386-0.291,2.825-0.441,4.29-0.441h1.218c11.829,0,21.46,9.631,21.46,22.087v88.867
			c0,11.838-9.631,21.46-21.46,21.46h-1.218C384.768,300.138,375.137,290.516,375.137,278.678z"/>
	</g>
</g>
<g>
</g>
<g>
</g>
<g>
</g>
<g>
</g>
<g>
</g>
<g>
</g>
<g>
</g>
<g>
</g>
<g>
</g>
<g>
</g>
<g>
</g>
<g>
</g>
<g>
</g>
<g>
</g>
<g>
</g>
</svg>
