<?xml version="1.0" encoding="iso-8859-1"?>
<!-- Generator: Adobe Illustrator 19.0.0, SVG Export Plug-In . SVG Version: 6.00 Build 0)  -->
<svg version="1.1" id="Layer_1" xmlns="http://www.w3.org/2000/svg" xmlns:xlink="http://www.w3.org/1999/xlink" x="0px" y="0px"
	 viewBox="0 0 512 512" style="enable-background:new 0 0 512 512;" xml:space="preserve">
<g>
	<g>
		<path d="M452.425,209.621c0.802-18.62-11.964-35.61-30.788-39.322c-7.953-1.553-15.795-0.546-22.716,2.466
			c0.324-8.055-1.911-15.983-6.511-22.827c-5.726-8.542-14.404-14.336-24.44-16.307c-7.467-1.459-14.908-0.623-21.564,2.048
			l18.364-89.771c1.672-8.175,1.092-15.949-1.681-22.477C357.039,9.199,343.13,0,327.659,0c-26.445,0-34.424,20.787-38.195,36.676
			l-33.22,160.623L229.415,70.758c-5.547-26.018-16.623-36.625-38.246-36.625c-12.902,0-24.277,4.582-31.206,12.578
			c-4.275,4.941-8.969,13.645-6.997,27.315l28.8,161.929c-18.654-18.995-42.948-39.296-63.804-50.705
			c-16.853-9.216-42.923-2.995-53.675,12.826c-3.601,5.299-13.329,24.26,12.766,45.952c54.758,45.551,58.718,97.314,58.812,98.5
			c6.741,47.369,28.169,76.587,44.663,92.672h50.21c4.719,0,8.533,3.814,8.533,8.533c0,4.71-3.814,8.533-8.533,8.533h-34.133v25.694
			c0,19.089,14.464,34.039,32.922,34.039h153.66c19.004,0,35.174-15.565,35.285-34.039v-25.694h-25.6
			c-4.71,0-8.533-3.823-8.533-8.533c0-4.719,3.823-8.533,8.533-8.533h33.886c17.459-24.994,17.451-35.226,17.34-94.054
			l-0.026-80.683l2.603-15.01l5.205-26.436C452.502,215.876,452.587,212.736,452.425,209.621z M334.161,308.89
			c-11.546-2.278-19.089-13.517-16.811-25.062l22.272-113.024c1.092-5.555,4.309-10.368,9.071-13.559
			c3.575-2.406,7.671-3.644,11.853-3.644c1.365,0,2.756,0.128,4.13,0.41c5.555,1.092,10.377,4.309,13.568,9.062
			c2.039,3.055,3.149,6.494,3.456,10.035c-0.068,0.777-0.077,1.553-0.23,2.321l-4.941,25.122c-0.23,1.169-0.196,2.33,0.034,3.422
			l-17.357,88.107C356.937,303.625,345.699,311.185,334.161,308.89z M435.102,212.292l-5.171,29.85l-12.117,61.491
			c-1.092,5.555-4.309,10.377-9.054,13.559c-4.762,3.183-10.462,4.344-15.991,3.243c-11.546-2.278-19.089-13.508-16.811-25.054
			l17.323-87.91c2.005-10.155,10.948-17.212,20.924-17.212c1.365,0,2.748,0.128,4.13,0.41c5.555,1.084,10.377,4.301,13.568,9.062
			c2.022,3.021,3.123,6.434,3.447,9.933C435.282,210.534,435.273,211.405,435.102,212.292z"/>
	</g>
</g>
<g>
</g>
<g>
</g>
<g>
</g>
<g>
</g>
<g>
</g>
<g>
</g>
<g>
</g>
<g>
</g>
<g>
</g>
<g>
</g>
<g>
</g>
<g>
</g>
<g>
</g>
<g>
</g>
<g>
</g>
</svg>
