<?xml version="1.0" encoding="iso-8859-1"?>
<!-- Generator: Adobe Illustrator 19.0.0, SVG Export Plug-In . SVG Version: 6.00 Build 0)  -->
<svg version="1.1" id="Layer_1" xmlns="http://www.w3.org/2000/svg" xmlns:xlink="http://www.w3.org/1999/xlink" x="0px" y="0px"
	 viewBox="0 0 512 512" style="enable-background:new 0 0 512 512;" xml:space="preserve">
<g>
	<g>
		<path d="M379.694,435.2h16.939h16.973c17.459-24.994,17.459-35.217,17.348-94.046l-0.026-234.488c0-21.171-17.229-38.4-38.4-38.4
			c-7.885,0-15.223,2.389-21.333,6.485V64c0-21.171-17.229-38.4-38.4-38.4c-8.107,0-15.642,2.526-21.854,6.835
			C308.073,14.08,292.15,0,273.01,0c-21.129,0-38.306,17.229-38.306,38.4v113.22c-1.826-1.237-3.789-2.261-5.82-3.166
			c-0.614-0.273-1.254-0.495-1.886-0.742c-1.536-0.597-3.123-1.084-4.753-1.476c-0.666-0.162-1.323-0.341-2.005-0.461
			c-2.27-0.427-4.574-0.708-6.963-0.708c-21.171,0-38.4,17.229-38.4,38.4v39.902c-7.706-15.846-17.468-31.027-28.117-41.668
			c-13.815-13.807-41.071-14.814-56.09-2.022c-4.872,4.156-19.268,19.84,0.478,47.181c18.304,25.37,32.512,82.364,32.512,114.475
			c0,48.213,22.178,77.662,40.627,93.867h27.639h25.634c4.719,0,8.533,3.814,8.533,8.533s-3.814,8.533-8.533,8.533h-25.634h-8.465
			v25.694c0,18.765,15.24,34.039,33.971,34.039h153.694c18.731,0,34.074-15.249,34.202-34.039v-25.694h-8.695h-16.939
			c-4.719,0-8.533-3.814-8.533-8.533S374.975,435.2,379.694,435.2z M234.61,187.733v89.6c0,11.768-9.566,21.333-21.333,21.333
			s-21.333-9.566-21.333-21.333v-93.867c0-11.767,9.566-21.333,21.333-21.333s21.333,9.566,21.333,21.333V187.733z"/>
	</g>
</g>
<g>
</g>
<g>
</g>
<g>
</g>
<g>
</g>
<g>
</g>
<g>
</g>
<g>
</g>
<g>
</g>
<g>
</g>
<g>
</g>
<g>
</g>
<g>
</g>
<g>
</g>
<g>
</g>
<g>
</g>
</svg>
