<?xml version="1.0" encoding="iso-8859-1"?>
<!-- Generator: Adobe Illustrator 19.0.0, SVG Export Plug-In . SVG Version: 6.00 Build 0)  -->
<svg version="1.1" id="Layer_1" xmlns="http://www.w3.org/2000/svg" xmlns:xlink="http://www.w3.org/1999/xlink" x="0px" y="0px"
	 viewBox="0 0 512 512" style="enable-background:new 0 0 512 512;" xml:space="preserve">
<g>
	<g>
		<path d="M383.961,432.552h17.523h17.567c18.061-25.856,18.052-36.431,17.938-97.289l-0.026-251.401
			c0-21.901-17.814-39.724-39.724-39.724c-8.157,0-15.748,2.472-22.069,6.709V39.724C375.169,17.823,357.355,0,335.445,0
			c-21.901,0-39.724,17.823-39.724,39.724v90.615c-3.169-2.136-6.735-3.646-10.461-4.802c-0.591-0.185-1.165-0.388-1.748-0.547
			c-1.209-0.309-2.419-0.574-3.663-0.768c-2.233-0.388-4.378-0.636-6.25-0.636c-2.498,0-4.917,0.291-7.283,0.733
			c-0.742,0.141-1.439,0.344-2.163,0.521c-1.633,0.406-3.231,0.892-4.785,1.492c-0.741,0.291-1.465,0.574-2.189,0.909
			c-1.58,0.724-3.09,1.554-4.555,2.472c-0.521,0.327-1.068,0.609-1.571,0.953c-1.898,1.315-3.681,2.772-5.314,4.387
			c-0.353,0.344-0.636,0.742-0.98,1.103c-1.254,1.333-2.419,2.728-3.487,4.228c-0.45,0.627-0.847,1.28-1.262,1.942
			c-0.856,1.368-1.633,2.79-2.322,4.273c-0.327,0.689-0.662,1.368-0.945,2.083c-0.15,0.388-0.362,0.742-0.503,1.13
			c-0.141-0.115-0.309-0.194-0.45-0.3c-1.298-0.989-2.639-1.88-4.061-2.71c-0.697-0.415-1.404-0.786-2.127-1.156
			c-1.262-0.636-2.516-1.245-3.84-1.739c-1.139-0.441-2.322-0.759-3.505-1.095c-1.05-0.291-2.074-0.636-3.16-0.839
			c-2.383-0.45-4.802-0.733-7.292-0.733c-2.498,0-4.943,0.282-7.327,0.742c-1.13,0.212-2.189,0.574-3.275,0.874
			c-1.156,0.335-2.322,0.636-3.434,1.068c-1.377,0.53-2.666,1.165-3.964,1.827c-0.697,0.362-1.395,0.724-2.066,1.121
			c-1.448,0.856-2.816,1.792-4.14,2.825c-0.388,0.3-0.759,0.618-1.139,0.936c-1.448,1.209-2.816,2.481-4.078,3.884
			c-0.097,0.115-0.185,0.238-0.291,0.353c-4.484,5.102-7.804,11.246-9.207,18.15c-0.486,1.086-0.803,2.269-0.803,3.531v4.414v32.45
			c-7.971-16.393-18.07-32.097-29.087-43.105c-14.301-14.292-42.505-15.316-58.024-2.092c-5.049,4.299-19.933,20.524,0.486,48.808
			c18.944,26.244,33.642,85.204,33.642,118.422c0,49.876,22.943,80.34,42.028,97.103h28.593h26.518c4.873,0,8.828,3.946,8.828,8.828
			c0,4.882-3.955,8.828-8.828,8.828h-26.518h-8.757v26.58c0,19.412,15.766,35.213,35.143,35.213h158.994
			c19.385,0,35.257-15.775,35.381-35.213v-26.58h-8.995h-17.523c-4.873,0-8.828-3.946-8.828-8.828
			C375.134,436.498,379.088,432.552,383.961,432.552z M233.875,269.241c0,12.173-9.905,22.069-22.069,22.069
			c-12.164,0-22.069-9.896-22.069-22.069v-88.276c0-0.971,0.168-1.898,0.291-2.842c0.018-0.097,0.053-0.194,0.071-0.291
			c0.971-6.709,4.952-12.385,10.408-15.722c0.141-0.088,0.291-0.15,0.433-0.23c0.945-0.556,1.933-1.05,2.957-1.457
			c0.441-0.168,0.909-0.282,1.368-0.424c0.794-0.256,1.58-0.521,2.401-0.689c1.342-0.256,2.719-0.415,4.14-0.415
			c1.421,0,2.798,0.159,4.14,0.415c0.821,0.168,1.607,0.433,2.401,0.689c0.459,0.141,0.927,0.256,1.368,0.424
			c1.024,0.406,2.013,0.9,2.957,1.457c0.141,0.079,0.291,0.141,0.433,0.23c5.455,3.337,9.437,9.013,10.408,15.722
			c0.009,0.053,0.053,0.097,0.062,0.15c0.132,0.989,0.3,1.96,0.3,2.984V269.241z M295.668,269.241
			c0,12.173-9.905,22.069-22.069,22.069s-22.069-9.896-22.069-22.069v-88.276v-4.414V163.31c0-12.173,9.905-22.069,22.069-22.069
			c1.395,0,2.754,0.159,4.078,0.415c0.212,0.035,0.424,0.071,0.644,0.124c4.061,0.892,7.68,2.895,10.567,5.676
			c0.185,0.194,0.38,0.371,0.565,0.574c0.283,0.282,0.503,0.618,0.768,0.918c3.01,3.743,5.244,9.322,5.447,17.576V269.241z"/>
	</g>
</g>
<g>
</g>
<g>
</g>
<g>
</g>
<g>
</g>
<g>
</g>
<g>
</g>
<g>
</g>
<g>
</g>
<g>
</g>
<g>
</g>
<g>
</g>
<g>
</g>
<g>
</g>
<g>
</g>
<g>
</g>
</svg>
