<?xml version="1.0" encoding="iso-8859-1"?>
<!-- Generator: Adobe Illustrator 19.0.0, SVG Export Plug-In . SVG Version: 6.00 Build 0)  -->
<svg version="1.1" id="Layer_1" xmlns="http://www.w3.org/2000/svg" xmlns:xlink="http://www.w3.org/1999/xlink" x="0px" y="0px"
	 viewBox="0 0 512 512" style="enable-background:new 0 0 512 512;" xml:space="preserve">
<g>
	<g>
		<path d="M426.646,173.756c-2.662-0.529-5.325-0.777-7.979-0.802c-0.828-0.009-1.638,0.119-2.466,0.162
			c-1.818,0.085-3.618,0.196-5.41,0.521c-0.973,0.171-1.92,0.469-2.884,0.708c-1.587,0.401-3.166,0.836-4.71,1.425
			c-0.998,0.384-1.971,0.845-2.953,1.306c-0.862,0.41-1.766,0.7-2.603,1.161c-0.085-1.587-0.384-3.14-0.64-4.693
			c-0.111-0.64-0.128-1.306-0.265-1.937c-0.538-2.526-1.289-4.966-2.261-7.33c-0.222-0.546-0.538-1.05-0.785-1.587
			c-0.828-1.783-1.715-3.516-2.773-5.171c-0.478-0.751-1.033-1.434-1.553-2.159c-0.981-1.348-2.014-2.654-3.157-3.883
			c-0.649-0.7-1.323-1.365-2.022-2.031c-1.203-1.126-2.458-2.167-3.789-3.157c-0.759-0.572-1.51-1.143-2.313-1.655
			c-1.493-0.973-3.081-1.801-4.702-2.577c-0.751-0.358-1.459-0.777-2.236-1.092c-2.458-0.998-5.009-1.835-7.697-2.372
			c-2.705-0.546-5.427-0.802-8.132-0.819c-0.862-0.009-1.715,0.154-2.568,0.205c-1.826,0.094-3.652,0.188-5.436,0.521
			c-1.075,0.196-2.091,0.572-3.149,0.853c-1.536,0.41-3.081,0.794-4.582,1.382c-1.101,0.427-2.133,1.015-3.208,1.544
			s-2.202,0.939-3.243,1.562l16.674-100.036c1.425-10.53-1.69-20.787-8.764-28.877c-8.124-9.301-20.668-14.848-33.604-14.916
			c-0.017,0-0.034-0.008-0.06-0.008h-0.077h-0.017h-0.068c-22.451,0-37.547,14.592-42.59,41.515l-17.408,127.667l-16.87-116.224
			c-4.932-38.477-28.595-44.365-42.402-44.424h-0.034h-0.077h-0.009h-0.077c-13.21,0-25.361,5.043-33.314,13.833
			c-7.228,7.953-10.445,18.227-9.293,29.85l18.372,153.079c0.435,0.853,0.828,1.613,1.357,2.645
			c9.83,19.157,39.723,77.474,61.747,92.16c7.27,4.847,19.456,12.962,20.838,32.077c0.341,4.702-3.191,8.789-7.893,9.131
			c-0.205,0.017-0.418,0.026-0.623,0.026c-4.437,0-8.175-3.43-8.499-7.919c-0.734-10.035-5.743-14.08-13.295-19.115
			c-22.793-15.198-48.026-60.664-67.456-98.577c-0.64-1.237-1.143-2.219-1.638-3.183c-21.444-15.411-49.809-21.171-72.883-12.476
			c-3.661,1.374-7.236,3.277-11.605,6.153c-12.792,8.482-12.45,18.91-12.211,22.699c-0.828,4.634,0.128,5.734,11.793,19.217
			c15.053,17.382,46.362,53.564,66.133,89.139c0.776,1.254,14.677,23.714,32.666,46.677c24.55,18.697,57.131,40.883,69.76,42.812
			c4.659,0.708,7.859,5.069,7.142,9.728c-0.64,4.215-4.284,7.245-8.422,7.245c-0.427,0-0.862-0.034-1.297-0.102
			c-11.247-1.724-30.618-13.005-49.911-26.172v9.284c0,47.01,38.238,85.257,85.248,85.257h68.352
			c36.983,0,75.119-30.694,83.277-67.021c0.734-3.302,1.587-6.221,2.483-8.943c-4.25,0.981-8.721,1.988-13.508,3.055
			c-7.543,1.673-14.199,3.149-18.91,4.361c-0.717,0.196-1.442,0.282-2.15,0.282c-3.789,0-7.253-2.543-8.252-6.391
			c-1.186-4.565,1.553-9.216,6.118-10.402c4.847-1.263,11.716-2.782,19.49-4.514c7.014-1.562,17.98-3.994,28.749-6.716
			c7.108-12.203,13.636-31.949,13.636-57.31v-55.287c0.435-1.237,0.828-2.5,1.092-3.806l15.189-75.29
			C464.679,200.952,449.694,178.406,426.646,173.756z"/>
	</g>
</g>
<g>
</g>
<g>
</g>
<g>
</g>
<g>
</g>
<g>
</g>
<g>
</g>
<g>
</g>
<g>
</g>
<g>
</g>
<g>
</g>
<g>
</g>
<g>
</g>
<g>
</g>
<g>
</g>
<g>
</g>
</svg>
