<?xml version="1.0" encoding="iso-8859-1"?>
<!-- Generator: Adobe Illustrator 19.0.0, SVG Export Plug-In . SVG Version: 6.00 Build 0)  -->
<svg version="1.1" id="Layer_1" xmlns="http://www.w3.org/2000/svg" xmlns:xlink="http://www.w3.org/1999/xlink" x="0px" y="0px"
	 viewBox="0 0 511.984 511.984" style="enable-background:new 0 0 511.984 511.984;" xml:space="preserve">
<g>
	<g>
		<path d="M485.618,143.242c-6.127-11.11-17.058-18.219-29.978-19.499c-8.747-0.862-26.402,1.673-46.063,28.868l-24.269,36.651
			l25.737-92.672c5.069-18.253-1.911-37.709-16.973-47.292c-6.835-4.352-14.746-6.648-22.886-6.648
			c-22.46,0-36.838,21.641-42.223,39.902l-26.044,78.157V42.728c0-22.451-17.22-41.173-39.211-42.624
			c-12.928-0.802-24.815,3.072-33.348,11.051c-8.354,7.817-12.774,18.714-12.774,31.497v126.251l-25.865-91.418
			c-5.564-21.444-14.942-43.366-42.402-43.366c-18.423,0-34.193,10.974-40.192,27.972c-2.432,6.912-2.705,14.643-0.802,23.006
			l34.722,152.781c-2.918-3.294-5.786-6.707-8.73-10.223l-0.819-0.973c-21.41-25.515-60.169-37.248-88.226-26.633
			c-4.77,1.792-8.9,4.369-11.588,6.152c-12.8,8.482-12.45,18.91-12.228,22.699c-0.819,4.634,0.137,5.734,11.802,19.217
			c15.044,17.382,46.362,53.564,66.133,89.139c0.794,1.289,15.36,24.815,33.988,48.35c7.825,4.318,17.732,9.284,26.47,13.645
			c16.768,8.38,31.249,15.616,37.564,20.804c3.635,3.004,4.156,8.38,1.161,12.023c-1.681,2.048-4.13,3.106-6.588,3.106
			c-1.911,0-3.831-0.631-5.419-1.946c-4.668-3.84-19.49-11.298-32.99-18.039l12.442,37.342
			c11.853,35.55,44.996,59.443,82.483,59.443h71.484c36.992,0,75.128-30.694,83.277-67.012c1.348-6.007,3.004-10.982,4.796-14.933
			c-12.638,4.378-28.996,10.078-32.026,12.169c-1.485,1.015-3.166,1.51-4.838,1.51c-2.714,0-5.376-1.289-7.031-3.695
			c-2.671-3.883-1.698-9.19,2.185-11.861c4.813-3.328,16.794-7.552,37.555-14.754c5.154-1.783,11.426-3.959,17.698-6.212
			c5.231-12.117,9.318-28.732,9.318-48.811v-27.486c0-19.857,4.463-39.851,12.894-57.822l42.257-90.078
			C492.461,170.207,492.299,155.342,485.618,143.242z"/>
	</g>
</g>
<g>
</g>
<g>
</g>
<g>
</g>
<g>
</g>
<g>
</g>
<g>
</g>
<g>
</g>
<g>
</g>
<g>
</g>
<g>
</g>
<g>
</g>
<g>
</g>
<g>
</g>
<g>
</g>
<g>
</g>
</svg>
