<?xml version="1.0" encoding="iso-8859-1"?>
<!-- Generator: Adobe Illustrator 19.0.0, SVG Export Plug-In . SVG Version: 6.00 Build 0)  -->
<svg version="1.1" id="Layer_1" xmlns="http://www.w3.org/2000/svg" xmlns:xlink="http://www.w3.org/1999/xlink" x="0px" y="0px"
	 viewBox="0 0 511.998 511.998" style="enable-background:new 0 0 511.998 511.998;" xml:space="preserve">
<g transform="translate(0 -1)">
	<g>
		<g>
			<path d="M507.372,316.612c-14.95-20.847-30.123-21.171-68.079-1.203l-73.583,44.988c-10.914,5.803-33.297,7.544-55.006,7.919
				c3.857-8.03,2.133-17.613-5.154-28.501c-13.372-19.951-36.301-31.855-61.338-31.855h-33.28c-18.074,0-35.439-5.581-48.896-15.727
				c-30.635-23.066-78.788,1.869-102.298,16.802v-17.903H0.005v221.867h59.733v-25.6h110.933c17.442,0,35.004-1.323,52.19-3.951
				l110.618-16.802c4.028-0.051,8.107-0.538,11.742-1.357c10.189-1.425,19.917-6.298,28.177-14.08l129.34-100.727l0.205-0.154
				C513.012,341.982,514.958,327.168,507.372,316.612z M492.14,337.109l-129.562,100.89l-0.657,0.572
				c-5.726,5.47-12.314,8.875-19.917,9.967c-3.106,0.691-6.195,1.041-9.199,1.041l-112.503,17.007
				c-16.35,2.483-33.05,3.746-49.63,3.746H59.739V329.549c20.335-14.66,68.028-41.762,92.023-23.68
				c16.393,12.348,37.41,19.157,59.17,19.157h33.28c19.336,0,36.958,9.08,47.155,24.294c3.592,5.35,5.009,9.796,3.806,11.878
				c-2.278,3.942-12.843,6.366-23.569,6.835c-3.499-0.06-6.682-0.102-9.472-0.102h-82.927c-26.718,0-42.667,12.757-42.667,34.133
				c0,4.719,3.814,8.533,8.533,8.533c4.719,0,8.533-3.814,8.533-8.533c0-4.224,0-17.067,25.6-17.067h82.654
				c1.911,0.119,5.675,0.299,10.411,0.111c1.468,0.026,2.987,0.06,4.548,0.085c40.021,0.708,77.594,0.538,97.348-9.976
				l73.549-44.979c35.174-18.492,38.716-13.525,45.79-3.678C495.869,329.839,495.254,334.455,492.14,337.109z"/>
			<path d="M158.915,193.777l108.544,92.894c2.048,1.749,4.565,2.611,7.074,2.611c2.517,0,5.035-0.87,7.083-2.628l108.553-92.885
				c23.108-19.925,38.955-45.107,45.841-72.823c4.745-19.132,3.294-30.874,2.825-33.673c-4.77-49.203-44.373-86.263-92.288-86.263
				c-31.974,0-58.505,21.026-74.044,45.338C256.946,22.035,230.424,1,198.441,1c-47.095,0-83.328,35.447-88.226,86.272
				c-0.478,2.807-1.929,14.532,2.825,33.664C119.926,148.669,135.781,173.851,158.915,193.777z"/>
		</g>
	</g>
</g>
<g>
</g>
<g>
</g>
<g>
</g>
<g>
</g>
<g>
</g>
<g>
</g>
<g>
</g>
<g>
</g>
<g>
</g>
<g>
</g>
<g>
</g>
<g>
</g>
<g>
</g>
<g>
</g>
<g>
</g>
</svg>
