<?xml version="1.0" encoding="iso-8859-1"?>
<!-- Generator: Adobe Illustrator 19.0.0, SVG Export Plug-In . SVG Version: 6.00 Build 0)  -->
<svg version="1.1" id="Layer_1" xmlns="http://www.w3.org/2000/svg" xmlns:xlink="http://www.w3.org/1999/xlink" x="0px" y="0px"
	 viewBox="0 0 503.611 503.611" style="enable-background:new 0 0 503.611 503.611;" xml:space="preserve">
<g>
	<g>
		<g>
			<path d="M432.086,309.259l-72.368,44.25c-8.494,4.516-44.519,15.805-49.16,15.805H176.262c-25.18,0-25.18,12.632-25.18,16.787
				c0,4.642-3.752,8.393-8.393,8.393c-4.633,0-8.393-3.752-8.393-8.393c0-21.026,15.696-33.574,41.967-33.574h131.265
				c0-5.044-1.838-10.567-5.338-16.485c0.008-0.109,0.059-0.193,0.059-0.302c0-3.744-2.484-6.799-5.875-7.881
				c-13.379-16.157-33.851-25.692-56.161-25.692h-32.743c-17.576,0-34.656-5.573-48.086-15.704
				c-30.116-22.696-77.505,1.83-100.629,16.527V285.38H0v218.229h58.754v-25.18h109.115c17.156,0,34.43-1.301,51.343-3.886
				l108.796-16.527c3.962-0.05,7.982-0.529,11.549-1.335c10.013-1.41,19.59-6.194,27.715-13.849L494.5,343.756l0.193-0.151
				c9.904-8.209,11.818-22.771,4.365-33.162C484.335,289.937,469.42,289.61,432.086,309.259z"/>
			<path d="M503.611,67.149V0.002H394.496h-8.393h-58.754c-4.633,0-8.393,3.76-8.393,8.393c0,4.642,3.76,8.393,8.393,8.393h58.754
				v50.361h16.787v16.787H251.807v100.721h16.787v33.574h8.393v25.18h83.934v-25.18h8.393v-33.574h134.295V83.936h-16.787V67.149
				H503.611z"/>
			<path d="M293.775,285.381c4.633,0,8.393-3.752,8.393-8.393v-8.393c0-4.642-3.76-8.393-8.393-8.393
				c-4.633,0-8.393,3.752-8.393,8.393v8.393C285.381,281.629,289.142,285.381,293.775,285.381z"/>
			<path d="M285.381,310.562c0,4.642,3.76,8.393,8.393,8.393c4.633,0,8.393-3.752,8.393-8.393v-8.393
				c0-4.642-3.76-8.393-8.393-8.393c-4.633,0-8.393,3.752-8.393,8.393V310.562z"/>
			<path d="M310.562,344.135c0,4.642,3.76,8.393,8.393,8.393s8.393-3.752,8.393-8.393v-8.393c0-4.642-3.76-8.393-8.393-8.393
				s-8.393,3.752-8.393,8.393V344.135z"/>
			<path d="M318.955,285.381c4.633,0,8.393-3.752,8.393-8.393v-8.393c0-4.642-3.76-8.393-8.393-8.393s-8.393,3.752-8.393,8.393
				v8.393C310.562,281.629,314.322,285.381,318.955,285.381z"/>
			<path d="M310.562,310.562c0,4.642,3.76,8.393,8.393,8.393s8.393-3.752,8.393-8.393v-8.393c0-4.642-3.76-8.393-8.393-8.393
				s-8.393,3.752-8.393,8.393V310.562z"/>
			<path d="M335.742,310.562c0,4.642,3.76,8.393,8.393,8.393c4.633,0,8.393-3.752,8.393-8.393v-8.393
				c0-4.642-3.76-8.393-8.393-8.393c-4.633,0-8.393,3.752-8.393,8.393V310.562z"/>
			<path d="M344.135,285.381c4.633,0,8.393-3.752,8.393-8.393v-8.393c0-4.642-3.76-8.393-8.393-8.393
				c-4.633,0-8.393,3.752-8.393,8.393v8.393C335.742,281.629,339.502,285.381,344.135,285.381z"/>
			<path d="M335.742,344.135c0,4.642,3.76,8.393,8.393,8.393c4.633,0,8.393-3.752,8.393-8.393v-8.393
				c0-4.642-3.76-8.393-8.393-8.393c-4.633,0-8.393,3.752-8.393,8.393V344.135z"/>
		</g>
	</g>
</g>
<g>
</g>
<g>
</g>
<g>
</g>
<g>
</g>
<g>
</g>
<g>
</g>
<g>
</g>
<g>
</g>
<g>
</g>
<g>
</g>
<g>
</g>
<g>
</g>
<g>
</g>
<g>
</g>
<g>
</g>
</svg>
