<?xml version="1.0" encoding="iso-8859-1"?>
<!-- Generator: Adobe Illustrator 19.0.0, SVG Export Plug-In . SVG Version: 6.00 Build 0)  -->
<svg version="1.1" id="Layer_1" xmlns="http://www.w3.org/2000/svg" xmlns:xlink="http://www.w3.org/1999/xlink" x="0px" y="0px"
	 viewBox="0 0 511.981 511.981" style="enable-background:new 0 0 511.981 511.981;" xml:space="preserve">
<g>
	<g>
		<path d="M507.366,315.468c-14.967-20.838-30.131-21.171-68.087-1.195l-73.574,44.988c-8.636,4.591-45.261,16.068-49.971,16.068
			H179.2c-25.6,0-25.6,12.843-25.6,17.067c0,4.719-3.823,8.533-8.533,8.533c-4.719,0-8.533-3.814-8.533-8.533
			c0-21.376,15.949-34.133,42.667-34.133h133.453c-0.009-5.146-1.886-10.786-5.47-16.828c0.009-29.21,16.845-81.203,35.772-98.005
			c26.837-23.842,41.028-58.581,41.028-100.446c0-78.771-61.252-142.865-136.533-142.865c-66.731,0-120.585,67.371-127.181,127.821
			c-4.574,41.984,10.18,82.731,40.491,111.795c9.549,9.156,18.304,33.152,23.262,62.882c-7.953-2.697-15.411-6.554-21.99-11.52
			c-30.618-23.074-78.788,1.86-102.298,16.802v-17.903H0v221.867h59.733v-25.6h110.933c17.434,0,34.995-1.323,52.19-3.951
			l110.609-16.811c4.028-0.051,8.115-0.529,11.742-1.348c10.189-1.434,19.917-6.298,28.177-14.08l129.348-100.727l0.205-0.162
			C512.998,340.846,514.944,326.032,507.366,315.468z M213.316,179.319c0-14.362,11.247-25.6,25.6-25.6h17.067
			c14.353,0,25.6,11.238,25.6,25.6v17.067c0,14.362-11.247,25.6-25.6,25.6v86.059c-3.857-0.58-7.774-0.981-11.776-0.981h-5.291
			v-85.077c-14.353,0-25.6-11.238-25.6-25.6V179.319z"/>
	</g>
</g>
<g>
</g>
<g>
</g>
<g>
</g>
<g>
</g>
<g>
</g>
<g>
</g>
<g>
</g>
<g>
</g>
<g>
</g>
<g>
</g>
<g>
</g>
<g>
</g>
<g>
</g>
<g>
</g>
<g>
</g>
</svg>
