<?xml version="1.0" encoding="iso-8859-1"?>
<!-- Generator: Adobe Illustrator 19.0.0, SVG Export Plug-In . SVG Version: 6.00 Build 0)  -->
<svg version="1.1" id="Layer_1" xmlns="http://www.w3.org/2000/svg" xmlns:xlink="http://www.w3.org/1999/xlink" x="0px" y="0px"
	 viewBox="0 0 507.159 507.159" style="enable-background:new 0 0 507.159 507.159;" xml:space="preserve">
<g>
	<g>
		<path d="M443.697,298.567c-1.519-15.95-11.464-29.618-25.322-37.064c10.309-8.756,16.861-21.816,16.861-36.378
			c0-10.847-4.686-21.834-13.208-30.911c-10.014-10.691-25.001-16.818-41.107-16.818H280.777l6.109-33.332l7.168-31.935
			c10.821-40.786-11.125-90.78-46.983-106.999c-4.027-1.822-8.539-3.211-14.214-4.356c-16.714-3.35-24.602,5.059-27.561,8.348
			c-3.992,2.794-4.079,4.009-5.545,24.394c-1.909,26.477-5.884,81.556-18.519,125.848c-0.095,0.269-0.998,2.89-2.239,7.073
			c2.213,12.21,4.834,25.444,6.717,34.955c3.775,19.039,6.109,30.972,6.517,36.057c0.382,4.773-3.176,8.956-7.958,9.346
			c-0.226,0.017-0.469,0.026-0.703,0.026c-4.478,0-8.27-3.436-8.635-7.984c-0.356-4.339-3.22-18.779-6.248-34.07
			c-0.842-4.27-1.649-8.322-2.421-12.271h-5.953c-53.526,0-97.063,43.555-97.063,97.08v99.502c0,43.555,33.124,79.108,78.761,84.532
			c3.124,0.373,6.3,1.302,9.537,2.551c-2.352-8.513-4.669-17.998-7.125-28.516c-1.406-6.049-2.725-11.672-3.948-16.41
			c-1.215-4.634,1.571-9.372,6.213-10.578c4.651-1.232,9.372,1.588,10.578,6.222c1.267,4.86,2.612,10.63,4.053,16.818
			c2.916,12.488,7.576,32.43,12.427,45.16c7.055,3.437,16.644,6.526,29.505,9.476c18.935,4.348,39.276,8.426,59.904,8.826h96.56
			c26.26,0,48.44-20.532,49.456-45.768c0.547-13.772-4.834-26.537-14.006-35.666c16.861-6.448,29.453-21.617,31.18-39.736
			c1.276-13.442-3.159-26.841-12.184-36.76c-0.408-0.443-0.824-0.885-1.241-1.31c7.047-2.638,13.442-6.925,18.597-12.592
			C440.539,325.408,444.973,312.009,443.697,298.567z"/>
	</g>
</g>
<g>
</g>
<g>
</g>
<g>
</g>
<g>
</g>
<g>
</g>
<g>
</g>
<g>
</g>
<g>
</g>
<g>
</g>
<g>
</g>
<g>
</g>
<g>
</g>
<g>
</g>
<g>
</g>
<g>
</g>
</svg>
