<?xml version="1.0" encoding="iso-8859-1"?>
<!-- Generator: Adobe Illustrator 19.0.0, SVG Export Plug-In . SVG Version: 6.00 Build 0)  -->
<svg version="1.1" id="Layer_1" xmlns="http://www.w3.org/2000/svg" xmlns:xlink="http://www.w3.org/1999/xlink" x="0px" y="0px"
	 viewBox="0 0 511.998 511.998" style="enable-background:new 0 0 511.998 511.998;" xml:space="preserve">
<g>
	<g>
		<path d="M358.348,435.198h33.792c17.604-25.796,17.604-38.366,17.493-98.569l-0.171-88.55c0.06-0.401,0.154-1.519,0.154-1.929
			v-2.953v-51.2v-2.953c0-0.99-0.23-1.954-0.589-2.867c-0.341-2.236-0.896-4.386-1.613-6.477c-0.068-0.213-0.128-0.427-0.196-0.64
			c-0.631-1.732-1.391-3.388-2.253-5.001c-0.299-0.555-0.58-1.101-0.896-1.638c-0.776-1.297-1.621-2.526-2.534-3.712
			c-0.589-0.777-1.203-1.51-1.843-2.236c-0.828-0.922-1.673-1.809-2.586-2.654c-0.905-0.836-1.869-1.596-2.85-2.347
			c-0.836-0.631-1.655-1.263-2.534-1.826c-1.212-0.768-2.483-1.417-3.772-2.048c-0.819-0.401-1.604-0.845-2.458-1.186
			c-1.51-0.606-3.098-1.041-4.693-1.459c-0.742-0.196-1.451-0.461-2.21-0.614c-2.389-0.461-4.847-0.742-7.373-0.742
			c-2.398,0-4.719,0.282-6.997,0.708c-0.691,0.128-1.357,0.316-2.031,0.478c-1.613,0.393-3.183,0.879-4.71,1.468
			c-0.666,0.256-1.323,0.495-1.971,0.785c-1.758,0.802-3.447,1.715-5.052,2.756c-0.265,0.171-0.563,0.299-0.819,0.478
			c-0.068,0.051-0.154,0.077-0.222,0.128c-0.051-0.324-0.171-0.614-0.23-0.93c-0.179-0.964-0.461-1.877-0.708-2.825
			c-0.375-1.399-0.768-2.79-1.289-4.122c-0.358-0.93-0.794-1.818-1.22-2.705c-0.606-1.254-1.246-2.466-1.98-3.644
			c-0.529-0.845-1.092-1.656-1.69-2.466c-0.811-1.101-1.673-2.142-2.594-3.14c-0.674-0.742-1.348-1.459-2.082-2.133
			c-1.007-0.947-2.074-1.792-3.174-2.62c-0.785-0.597-1.553-1.195-2.381-1.724c-1.203-0.768-2.475-1.417-3.763-2.048
			c-0.845-0.41-1.655-0.87-2.526-1.22c-1.476-0.597-3.021-1.015-4.582-1.425c-0.776-0.205-1.527-0.495-2.33-0.657
			c-2.389-0.469-4.855-0.742-7.381-0.742c-2.389,0-4.693,0.282-6.963,0.708c-0.674,0.119-1.314,0.29-1.971,0.444
			c-1.655,0.401-3.26,0.905-4.821,1.502c-0.606,0.239-1.212,0.444-1.8,0.708c-2.014,0.896-3.968,1.903-5.777,3.123V39.37
			c0-18.645-12.749-34.859-30.31-38.519c-11.469-2.432-23.228,0.41-32.256,7.748c-9.045,7.347-14.234,18.219-14.234,29.798v105.924
			c-1.988-1.57-4.113-2.953-6.349-4.087c-11.469-5.88-24.388-4.651-35.447,3.319c-11.23,8.107-17.937,21.914-17.937,36.907v56.107
			c-4.053,2.423-8.218,4.838-12.578,7.177c-0.538,0.299-0.905,0.751-1.357,1.135c-25.685,11.588-37.265,32.196-37.265,66.56
			l-0.068,25.626c0,68.514,44.877,102.263,59.768,111.573v25.054c0,21.12,17.178,38.306,38.306,38.306h149.393
			c19.405,0,34.039-20.19,34.167-38.306v-21.427h-25.634c-4.719,0-8.533-3.814-8.533-8.533S353.629,435.198,358.348,435.198z
			 M213.282,187.62c-4.83,2.722-9.975,7.04-15.258,13.594c-6.144,7.62-15.642,15.949-27.341,24.252v-45.005
			c0-9.54,4.062-18.159,10.863-23.074c3.499-2.526,7.006-3.789,10.487-3.789c2.415,0,4.821,0.606,7.202,1.826
			c7.791,3.985,13.67,13.679,14.046,22.861V187.62z M332.817,191.998v51.2v17.067c0,11.767-9.574,21.333-21.333,21.333
			c-11.759,0-21.333-9.566-21.333-21.333v-93.867c0-11.767,9.574-21.333,21.333-21.333c11.759,0,21.333,9.566,21.333,21.333V191.998
			z M349.883,191.998c0-11.767,9.574-21.333,21.333-21.333c1.417,0,2.799,0.154,4.139,0.418c0.538,0.111,1.041,0.307,1.57,0.452
			c0.759,0.213,1.536,0.41,2.261,0.708c0.691,0.282,1.331,0.649,1.98,0.998c0.486,0.256,0.99,0.495,1.451,0.785
			c0.794,0.512,1.536,1.101,2.244,1.715c0.239,0.196,0.495,0.384,0.725,0.589c0.853,0.794,1.647,1.656,2.355,2.586
			c0.034,0.043,0.077,0.085,0.111,0.128c2.313,3.063,3.831,6.784,4.241,10.889c0.017,0.171,0.068,0.333,0.094,0.495
			c0.043,0.529,0.162,1.033,0.162,1.57v51.2c0,11.767-9.574,21.333-21.333,21.333c-11.759,0-21.333-9.566-21.333-21.333V191.998z"/>
	</g>
</g>
<g>
</g>
<g>
</g>
<g>
</g>
<g>
</g>
<g>
</g>
<g>
</g>
<g>
</g>
<g>
</g>
<g>
</g>
<g>
</g>
<g>
</g>
<g>
</g>
<g>
</g>
<g>
</g>
<g>
</g>
</svg>
