<?xml version="1.0" encoding="iso-8859-1"?>
<!-- Generator: Adobe Illustrator 19.0.0, SVG Export Plug-In . SVG Version: 6.00 Build 0)  -->
<svg version="1.1" id="Layer_1" xmlns="http://www.w3.org/2000/svg" xmlns:xlink="http://www.w3.org/1999/xlink" x="0px" y="0px"
	 viewBox="0 0 511.987 511.987" style="enable-background:new 0 0 511.987 511.987;" xml:space="preserve">
<g transform="translate(0 -1)">
	<g>
		<g>
			<path d="M507.366,256.99c-14.95-20.83-30.123-21.163-68.087-1.203L422.4,266.112c-3.465,15.863-8.994,31.241-16.717,45.961
				l-3.311,6.263l-19.738,12.083l-0.461,0.247c-20.198,10.752-51.405,12.228-82.133,12.228c-7.637,0-15.479-0.102-23.441-0.247
				l-22.963-0.401l-0.12-17.109H190.14c-25.6,0-25.6,12.843-25.6,17.067c0,4.719-3.814,8.533-8.533,8.533s-8.533-3.814-8.533-8.533
				c0-21.376,15.949-34.133,42.667-34.133h63.258l-0.111-16.239l-9.079-9.361h-33.28c-25.455,0-50.116-8.021-69.453-22.605
				c-3.072-2.321-6.827-4.471-11.401-6.562h-0.503l-3.072-1.519c-8.61-3.516-19.029-6.34-30.985-8.38l-3.755-0.614l-2.406-0.35
				c-2.167-0.299-4.309-0.58-6.332-0.811l-24.329-2.722l1.647-24.44c0.188-2.748,0.478-5.598,0.836-8.542
				c-0.469-0.009-0.998-0.026-1.442-0.034V180.07H0v273.314h59.733v-25.6h110.933c17.382,0,34.944-1.331,52.19-3.951l110.618-16.811
				c4.028-0.051,8.107-0.529,11.742-1.348c10.18-1.434,19.917-6.298,28.177-14.089l129.34-100.719l0.196-0.162
				C513.007,282.368,514.953,267.545,507.366,256.99z"/>
			<path d="M91.666,225.535c0.845,0.119,1.707,0.239,2.577,0.375c1.357,0.196,2.748,0.435,4.139,0.674
				c10.991,1.869,23.603,4.847,35.174,9.643c0.017,0.009,0.043,0.009,0.06,0.017c6.596,2.739,12.826,5.982,18.142,9.992h-0.008
				c16.393,12.365,37.41,19.166,59.179,19.166h33.28c19.337,0,36.958,9.079,47.147,24.286c3.524,5.248,4.966,9.643,3.891,11.759
				c-1.63,3.149-9.924,6.528-24.781,6.963l0.12,17.067l6.323,0.102c7.851,0.145,15.59,0.247,23.134,0.247
				c30.899,0,58.257-1.784,74.121-10.232l15.309-9.361l1.092-2.091c12.629-24.073,19.038-50.022,19.038-77.141
				c0-41.745-15.573-79.846-41.062-109.09l-0.375-0.435c-1.894-2.219-3.797-4.437-5.828-6.528c-0.12-0.119-0.273-0.188-0.393-0.299
				c-11.298-11.529-24.235-21.427-38.46-29.303c-0.23-0.154-0.418-0.341-0.657-0.478c-4.454-2.432-9.054-4.574-13.713-6.588
				c-0.751-0.324-1.502-0.648-2.253-0.964c-4.437-1.835-8.934-3.507-13.517-4.958c-0.853-0.265-1.724-0.486-2.586-0.742
				c-3.9-1.161-7.834-2.167-11.81-3.038c-1.143-0.256-2.278-0.538-3.439-0.768c-4.582-0.905-9.199-1.596-13.85-2.116
				c-1.152-0.128-2.295-0.222-3.456-0.324c-4.983-0.452-9.984-0.768-15.002-0.768c-4.71,0-9.412,0.282-14.097,0.691
				c-1.365,0.111-2.714,0.247-4.062,0.393c-4.087,0.452-8.149,1.033-12.194,1.792c-1.425,0.265-2.825,0.589-4.233,0.887
				c-3.311,0.708-6.588,1.519-9.856,2.432c-1.749,0.486-3.482,0.998-5.214,1.544c-3.234,1.024-6.426,2.142-9.591,3.354
				c-1.553,0.606-3.098,1.212-4.634,1.852c-3.405,1.425-6.758,2.97-10.061,4.617c-1.331,0.674-2.645,1.357-3.959,2.057
				c-1.05,0.563-2.133,1.067-3.174,1.655c-0.418,0.23-0.768,0.538-1.135,0.828c-19.388,11.127-36.403,25.967-49.929,43.708
				c-0.316,0.307-0.649,0.589-0.922,0.947c-3.106,4.156-5.931,8.474-8.627,12.868c-0.478,0.785-0.939,1.587-1.408,2.389
				c-1.997,3.371-3.866,6.81-5.606,10.3c-0.486,0.973-0.99,1.937-1.459,2.927c-4.087,8.61-7.424,17.544-9.967,26.718
				c-0.375,1.348-0.691,2.714-1.033,4.07c-0.845,3.405-1.596,6.835-2.227,10.291c-0.265,1.434-0.538,2.859-0.768,4.309
				c-0.742,4.762-1.348,9.549-1.681,14.379l-0.546,8.158l8.115,0.905C87.083,224.912,89.362,225.211,91.666,225.535z
				 M165.522,99.651c0.802,0.683,1.587,1.348,2.202,1.911c-1.997,1.724-3.866,4.378-3.396,8.311
				c0.828,6.989,7.945,8.909,12.655,10.172c8.678,2.33,15.471,0.947,20.932-0.179c4.898-1.015,8.124-1.681,12.416-0.068
				c5.538,2.074,8.951,3.524,11.034,4.48c0.111,3.004,0.956,6.281,3.209,9.003c2.15,2.586,7.177,6.519,16.7,3.797
				c1.169-0.333,1.664-0.29,1.655-0.307c0.35,0.162,0.614,0.393,0.862,0.572c2.654,1.835,5.248,2.756,7.808,2.756
				c3.516,0,6.972-1.724,10.436-5.197c1.57-1.562,1.971-1.604,3.925-1.8c3.226-0.333,8.636-0.888,13.815-7.484
				c2.236-2.842,4.437-3.345,7.757-4.113c1.98-0.452,4.207-0.964,6.417-2.065c4.557-2.278,6.17-5.854,6.886-7.774
				c0,0,0.23-0.179,0.896-0.427c3.456-1.331,5.896-3.405,7.305-6.272c1.237,0.862,2.654,1.442,4.062,1.553
				c4.651,0.393,7.006-2.21,9.515-5.76c1.954,1.237,3.917,2.466,5.811,3.789c-1.545,0.93-2.842,2.304-3.55,4.087
				c-0.026,0.077-3.482,7.868-12.954,12.604c-8.576,4.292-11.145,9.045-13.03,13.56c-0.845,2.039-0.922,2.21-3.456,3.243
				c-10.974,4.489-23.091,14.362-26.854,17.562c-11.366-3.558-15.3-0.913-16.401-0.085c-1.903,0.614-8.218,0.469-14.908-0.247
				c-1.476-2.825-3.763-4.796-6.673-5.623c-8.235-2.364-13.79,5.871-15.616,8.55c-2.261,3.328-3.849,3.977-6.246,4.966
				c-5.18,2.133-10.377,5.094-12.177,15.454c-0.888,5.137-0.461,9.301,0.282,12.493c-5.154,3.081-8.9,8.405-9.318,12.919
				c-0.418,4.582,2.278,8.636,6.588,9.847c11.503,3.26,15.514,5.052,17.92,6.127c5.12,2.295,6.784,2.415,18.304,2.731
				c9.489,0.239,17.109-0.205,22.682-0.529c3.004-0.188,6.357-0.384,7.893-0.282c1.613,0.973,4.813,2.475,8.585,0.657
				c0.128-0.06,0.239-0.128,0.358-0.188c0.538,0.043,1.254,0.128,2.176,0.265c2.244,0.316,3.721,1.408,5.453,2.662
				c1.135,0.836,2.765,2.031,4.787,2.782c1.374,1.084,3.046,1.988,5.026,2.688c1.118,0.393,1.911,0.657,2.509,0.853
				c1.869,1.237,5.504,3.217,13.585,7.262c11.648,5.828,18.389,6.69,22.903,6.758c0.213,0.401,0.35,0.691,0.461,0.913
				c1.237,2.594,2.432,3.686,4.48,5.018c0.759,0.503,2.15,1.408,4.915,3.516c2.202,1.69,3.78,3.106,5.06,4.233
				c4.258,3.797,7.595,6.281,14.131,6.281c1.246,0,2.611-0.094,4.122-0.282c2.253-0.29,4.301-1.451,5.692-3.243
				c1.391-1.801,2.005-4.079,1.707-6.323c-0.085-0.657-0.137-1.178-0.179-1.613c2.611-2.014,5.35-4.983,8.013-10.803
				c4.625-10.086,4.932-14.72,1.399-20.642c-0.469-0.785-0.657-1.101-0.836-1.894c-0.973-4.164-2.381-8.013-4.002-12.45
				c-1.374-3.738-2.978-8.09-4.685-13.722c-1.485-4.873-1.348-5.871-0.768-10.086c0.555-4.028,1.391-10.103,1.135-21.751
				c-0.196-8.474-0.23-12.732-0.239-14.874c0.026-0.077,0.034-0.162,0.051-0.239c0,0,0.256-1.186,0.708-3.371
				c15.821,23.689,25.079,52.113,25.079,82.671c0,23.552-5.393,46.14-16.017,67.149l-10.82,6.63
				c-10.914,5.803-33.297,7.543-55.006,7.919c3.849-8.064,2.125-17.656-5.146-28.51c-13.38-19.942-36.301-31.855-61.338-31.855
				h-33.28c-18.082,0-35.447-5.581-48.896-15.727h-0.009c-2.859-2.159-6.033-4.147-9.361-6.05c3.226-5.803,2.671-9.583,1.673-13.21
				c-0.452-1.638-0.93-3.328-0.742-7.287c0.478-10.513-1.724-14.379-6.861-19.072c-0.964-0.888-2.142-1.946-3.49-3.661
				c-3.055-3.891-5.82-14.959-6.801-21.572c-0.077-0.495-0.188-0.973-0.35-1.451l-8.533-25.6c-0.111-0.333-0.239-0.657-0.393-0.973
				c0,0-0.06-0.119-0.085-0.179C137.865,120.174,150.853,108.662,165.522,99.651z"/>
		</g>
	</g>
</g>
<g>
</g>
<g>
</g>
<g>
</g>
<g>
</g>
<g>
</g>
<g>
</g>
<g>
</g>
<g>
</g>
<g>
</g>
<g>
</g>
<g>
</g>
<g>
</g>
<g>
</g>
<g>
</g>
<g>
</g>
</svg>
