<?xml version="1.0" encoding="iso-8859-1"?>
<!-- Generator: Adobe Illustrator 19.0.0, SVG Export Plug-In . SVG Version: 6.00 Build 0)  -->
<svg version="1.1" id="Layer_1" xmlns="http://www.w3.org/2000/svg" xmlns:xlink="http://www.w3.org/1999/xlink" x="0px" y="0px"
	 viewBox="0 0 512 512" style="enable-background:new 0 0 512 512;" xml:space="preserve">
<g>
	<g>
		<path d="M464.316,208.271c0-23.925-19.465-43.39-43.39-43.39c-2.786,0-5.493,0.321-8.14,0.824
			c-0.85,0.165-1.649,0.434-2.482,0.642c-1.762,0.451-3.497,0.955-5.172,1.614c-0.911,0.356-1.779,0.772-2.655,1.189
			c-1.51,0.72-2.977,1.501-4.391,2.386c-0.833,0.521-1.649,1.05-2.447,1.631c-0.486,0.347-1.033,0.625-1.501,0.989
			c-0.017-0.113-0.069-0.226-0.095-0.338c-0.156-0.781-0.443-1.501-0.633-2.256c-0.477-1.874-0.998-3.714-1.71-5.484
			c-0.382-0.937-0.868-1.805-1.31-2.716c-0.72-1.484-1.475-2.951-2.36-4.339c-0.573-0.903-1.215-1.744-1.857-2.603
			c-0.946-1.267-1.927-2.482-3.003-3.636c-0.738-0.798-1.501-1.553-2.308-2.291c-1.154-1.067-2.36-2.057-3.627-2.994
			c-0.859-0.642-1.718-1.276-2.629-1.848c-1.371-0.876-2.812-1.614-4.278-2.334c-0.937-0.451-1.831-0.929-2.794-1.319
			c-1.666-0.668-3.41-1.146-5.172-1.605c-0.868-0.226-1.692-0.538-2.577-0.712c-2.69-0.521-5.441-0.833-8.279-0.833
			c-2.786,0-5.493,0.321-8.14,0.824c-0.85,0.165-1.649,0.434-2.482,0.642c-1.762,0.451-3.497,0.955-5.172,1.614
			c-0.911,0.356-1.779,0.772-2.655,1.189c-1.51,0.72-2.977,1.501-4.391,2.386c-0.833,0.521-1.649,1.05-2.447,1.631
			c-0.486,0.347-1.033,0.625-1.501,0.989c-0.017-0.113-0.069-0.226-0.095-0.338c-0.156-0.781-0.443-1.501-0.633-2.256
			c-0.477-1.874-0.998-3.714-1.71-5.484c-0.382-0.937-0.868-1.805-1.31-2.716c-0.72-1.484-1.475-2.951-2.36-4.339
			c-0.573-0.902-1.215-1.744-1.857-2.603c-0.946-1.267-1.927-2.482-3.003-3.636c-0.738-0.798-1.501-1.553-2.308-2.291
			c-1.154-1.067-2.36-2.057-3.627-2.994c-0.859-0.642-1.718-1.276-2.629-1.848c-1.371-0.876-2.812-1.614-4.278-2.334
			c-0.937-0.451-1.831-0.929-2.794-1.319c-1.666-0.668-3.41-1.146-5.172-1.605c-0.868-0.226-1.692-0.538-2.577-0.712
			c-2.69-0.521-5.441-0.833-8.279-0.833c-2.682,0-5.268,0.321-7.819,0.79c-0.703,0.13-1.38,0.295-2.074,0.451
			c-2.031,0.477-3.992,1.093-5.901,1.84c-0.486,0.191-0.981,0.338-1.458,0.538c-2.291,0.998-4.469,2.196-6.534,3.558
			c-0.477,0.304-0.903,0.66-1.362,0.989c-1.631,1.172-3.167,2.439-4.617,3.81c-0.469,0.451-0.955,0.885-1.406,1.362
			c-1.718,1.779-3.332,3.671-4.729,5.727c-0.113,0.165-0.2,0.356-0.312,0.521c-0.946,1.441-1.84,2.907-2.621,4.46l-13.286-91.492
			C226.921,16.531,211.119,0,186.621,0c-12.869,0-25.487,5.484-33.731,14.666c-7.376,8.227-10.787,18.753-9.598,29.757
			l19.959,166.348c33.957,60.598,53.942,79.759,62.898,85.738c7.394,4.929,19.786,13.19,21.192,32.629
			c0.347,4.782-3.246,8.93-8.027,9.277c-0.208,0.017-0.425,0.026-0.634,0.026c-4.513,0-8.313-3.48-8.643-8.053
			c-0.746-10.205-5.84-14.319-13.52-19.439c-18.623-12.418-42.47-44.735-70.864-96.065l-1.31-2.36
			c-1.215-2.161-1.371-4.599-0.694-6.795c-21.469-14.319-48.961-19.447-71.515-10.952c-3.723,1.397-7.359,3.332-11.802,6.257
			c-13.008,8.626-12.661,19.23-12.418,23.083c-0.842,4.712,0.13,5.832,11.993,19.543c15.308,17.677,47.147,54.472,67.254,90.65
			c1.033,1.666,24.715,39.979,50.783,68.304v22.693c0,47.807,38.886,86.693,86.693,86.693h86.866
			c37.61,0,76.392-31.215,84.688-68.157c1.675-7.498,3.801-13.633,6.135-17.877c-7.966,8.921-16.21,11.09-32.204,15.204
			l-4.374,1.128c-0.729,0.191-1.467,0.278-2.187,0.278c-3.853,0-7.376-2.586-8.392-6.5c-1.198-4.634,1.579-9.372,6.222-10.578
			l4.408-1.137c17.33-4.46,20.359-5.398,25.539-12.305c2.872-3.827,8.313-4.608,12.149-1.736c3.22,2.412,4.131,6.595,2.681,10.153
			c8.661-11.073,18.146-33.809,18.146-64.677l-0.026-68.782c0.017-0.226,0.026-0.451,0.026-0.642V208.271z M238.584,435.209
			c-0.651,4.296-4.356,7.368-8.565,7.368c-0.434,0-0.876-0.035-1.319-0.104c-20.463-3.124-30.711-15.95-39.754-27.266
			c-2.864-3.584-5.58-6.977-8.487-9.91c-3.376-3.402-3.358-8.895,0.052-12.271c3.402-3.376,8.886-3.367,12.271,0.052
			c3.567,3.593,6.691,7.506,9.719,11.299c8.088,10.11,15.056,18.84,28.82,20.949C236.059,426.045,239.313,430.471,238.584,435.209z
			 M308.112,182.237v26.034v11.568v14.466c0,14.353-11.681,26.034-26.034,26.034c-14.353,0-26.034-11.681-26.034-26.034v-78.102
			c0-14.353,11.681-26.034,26.034-26.034c14.353,0,26.034,11.681,26.034,26.034V182.237z M377.536,208.271v46.28v5.788
			c0,14.353-11.681,26.034-26.034,26.034s-26.034-11.681-26.034-26.034v-26.034v-14.466v-11.568v-26.034
			c0-14.353,11.681-26.034,26.034-26.034s26.034,11.681,26.034,26.034V208.271z M446.96,286.373
			c0,14.353-11.681,26.034-26.034,26.034c-14.353,0-26.034-11.681-26.034-26.034v-26.034v-5.788v-46.28
			c0-14.353,11.681-26.034,26.034-26.034c14.353,0,26.034,11.681,26.034,26.034V286.373z"/>
	</g>
</g>
<g>
</g>
<g>
</g>
<g>
</g>
<g>
</g>
<g>
</g>
<g>
</g>
<g>
</g>
<g>
</g>
<g>
</g>
<g>
</g>
<g>
</g>
<g>
</g>
<g>
</g>
<g>
</g>
<g>
</g>
</svg>
