<?xml version="1.0" encoding="iso-8859-1"?>
<!-- Generator: Adobe Illustrator 19.0.0, SVG Export Plug-In . SVG Version: 6.00 Build 0)  -->
<svg version="1.1" id="Layer_1" xmlns="http://www.w3.org/2000/svg" xmlns:xlink="http://www.w3.org/1999/xlink" x="0px" y="0px"
	 viewBox="0 0 505.733 505.733" style="enable-background:new 0 0 505.733 505.733;" xml:space="preserve">
<g>
	<g>
		<g>
			<path d="M240.716,224.267c2.082-16.666-2.611-31.684-13.201-42.283c-0.008,0-0.017-0.009-0.017-0.009l-0.768-0.768
				c-4.941,11.554-9.489,22.263-10.82,26.914c-1.306,4.531-6.033,7.142-10.564,5.837c-4.54-1.306-7.134-6.033-5.845-10.556
				c1.69-5.871,6.562-17.271,12.203-30.473c1.698-3.951,3.686-8.619,5.709-13.431c-2.167-19.132-6.298-36.608-6.588-37.828
				c-6.818-23.859-8.951-53.393-9.967-67.584c-0.7-9.643-0.913-12.638-3.14-14.865c-0.273-0.273-0.572-0.529-0.913-0.794
				c-1.852-1.946-7.381-7.808-18.449-5.555c-3.345,0.666-6.059,1.51-8.525,2.62c-19.268,8.721-31.428,32.862-28.877,55.245
				L60.415,10.208C48.827-1.38,29.951-1.354,18.32,10.277c-11.665,11.665-11.665,30.643,0,42.308l24.866,24.858
				c-4.096,1.365-7.91,3.635-11.085,6.81c-11.162,11.162-11.315,29.969-0.597,41.805c-4.079,1.229-7.97,3.405-11.324,6.75
				c-10.214,10.214-11.546,25.506-4.045,37.222c-2.901,1.331-5.538,3.166-7.74,5.376c-23.117,23.108,3.038,51.311,59.58,107.853
				c3.883,3.874,7.885,6.921,11.844,9.361c20.463-6.332,40.141-13.15,44.928-15.957c3.43-2.022,7.671-1.365,10.359,1.314
				c0.495,0.503,0.947,1.067,1.323,1.715c2.389,4.062,1.033,9.293-3.029,11.674c-2.953,1.741-13.329,5.751-26.607,10.342
				c0.367,0.034,0.811,0.094,1.152,0.119c0.939,0.068,4.548,0.64,11.639,5.137c21.922,13.884,46.967,11.981,63.795-4.847
				l37.658-37.658C231.688,253.809,238.856,239.166,240.716,224.267z"/>
			<path d="M497.064,443.779l-80.529-80.529c22.374,2.543,46.524-9.609,55.236-28.885c1.118-2.466,1.954-5.171,2.628-8.525
				c2.244-11.068-3.61-16.597-5.555-18.449c-0.265-0.333-0.521-0.64-0.794-0.904c-2.236-2.236-5.231-2.449-14.865-3.149
				c-14.199-1.016-43.733-3.149-67.584-9.958c-1.22-0.299-18.697-4.42-37.828-6.588c-4.821,2.022-9.481,4.011-13.44,5.7
				c-13.193,5.641-24.593,10.513-30.473,12.203c-4.514,1.297-9.25-1.306-10.556-5.837c-1.297-4.531,1.314-9.259,5.845-10.564
				c4.642-1.331,15.36-5.888,26.914-10.829l-0.768-0.768c-0.009,0-0.009,0-0.017-0.008c-10.598-10.598-25.609-15.292-42.274-13.21
				c-14.899,1.869-29.542,9.037-40.192,19.678l-37.658,37.666c-16.836,16.828-18.731,41.865-4.847,63.787
				c4.497,7.091,5.069,10.701,5.137,11.64c0.017,0.35,0.085,0.785,0.119,1.16c4.591-13.286,8.602-23.663,10.334-26.607
				c2.389-4.062,7.612-5.427,11.674-3.029c0.649,0.367,1.22,0.819,1.715,1.323c2.688,2.679,3.337,6.929,1.323,10.351
				c-2.816,4.787-9.626,24.465-15.966,44.937c2.449,3.959,5.487,7.962,9.361,11.836c56.542,56.542,84.753,82.697,107.861,59.588
				c2.202-2.202,4.045-4.847,5.376-7.748c11.716,7.501,26.999,6.17,37.214-4.036c3.354-3.354,5.53-7.253,6.758-11.324
				c11.827,10.709,30.643,10.556,41.796-0.606c3.183-3.174,5.444-6.98,6.81-11.076l24.866,24.858
				c11.665,11.665,30.635,11.665,42.308,0C508.618,474.252,508.652,455.367,497.064,443.779z"/>
		</g>
	</g>
</g>
<g>
</g>
<g>
</g>
<g>
</g>
<g>
</g>
<g>
</g>
<g>
</g>
<g>
</g>
<g>
</g>
<g>
</g>
<g>
</g>
<g>
</g>
<g>
</g>
<g>
</g>
<g>
</g>
<g>
</g>
</svg>
