<?xml version="1.0" encoding="iso-8859-1"?>
<!-- Generator: Adobe Illustrator 19.0.0, SVG Export Plug-In . SVG Version: 6.00 Build 0)  -->
<svg version="1.1" id="Layer_1" xmlns="http://www.w3.org/2000/svg" xmlns:xlink="http://www.w3.org/1999/xlink" x="0px" y="0px"
	 viewBox="0 0 512 512" style="enable-background:new 0 0 512 512;" xml:space="preserve">
<g>
	<g>
		<path d="M475.529,141.71h-32.594c-9.079-9.655-37.943-36.599-77.221-36.599c-0.366,0-0.722,0.018-1.07,0.064
			c-28.187,0.055-48.558,2.331-67.566,27.429l-255.936,0.064C18.459,132.667,0,151.081,0,173.728
			c0,22.702,18.459,41.179,41.143,41.179l93.742,0.018c-4.48,6.693-6.885,14.565-6.885,22.802c0,20.453,14.647,37.513,33.874,40.987
			c-0.85,1.317-1.609,2.688-2.295,4.096c-0.055,0.11-0.101,0.229-0.155,0.347c-0.987,2.066-1.783,4.224-2.414,6.446
			c-0.073,0.274-0.174,0.53-0.247,0.805c-0.576,2.213-0.942,4.48-1.143,6.784c-0.027,0.411-0.064,0.814-0.082,1.225
			c-0.128,2.295-0.073,4.608,0.201,6.93c0.046,0.366,0.119,0.713,0.174,1.079c0.357,2.432,0.878,4.864,1.701,7.278l0.53,1.518
			c0.805,2.35,1.856,4.544,3.035,6.647c0.384,0.667,0.832,1.28,1.243,1.92c0.896,1.408,1.856,2.761,2.907,4.023
			c0.539,0.649,1.097,1.271,1.682,1.883c1.179,1.243,2.423,2.386,3.739,3.465c0.53,0.439,1.033,0.896,1.591,1.307
			c1.975,1.454,4.05,2.77,6.254,3.84l0.009,0.009c0.027,0.009,0.046,0.009,0.064,0.027c2.377,1.152,4.891,1.993,7.451,2.661
			c0.686,0.183,1.371,0.347,2.066,0.494c2.277,0.466,4.581,0.768,6.93,0.841c0.274,0.009,0.558,0.101,0.841,0.101
			c-0.192,0.549-0.265,1.115-0.421,1.664c-0.265,0.887-0.475,1.765-0.677,2.661c-0.357,1.582-0.613,3.173-0.777,4.782
			c-0.091,0.896-0.183,1.783-0.219,2.679c-0.064,1.728,0.027,3.447,0.183,5.166c0.073,0.768,0.082,1.527,0.192,2.295
			c0.375,2.469,0.923,4.928,1.755,7.342c0.887,2.597,2.011,5.029,3.337,7.314c0.521,0.887,1.207,1.637,1.783,2.478
			c0.905,1.317,1.755,2.688,2.798,3.867c0.887,1.015,1.947,1.865,2.935,2.789c0.914,0.841,1.755,1.765,2.734,2.523
			c1.134,0.887,2.414,1.582,3.639,2.35c0.978,0.603,1.902,1.28,2.926,1.801c0.247,0.128,0.457,0.311,0.713,0.43
			c5.733,2.798,11.895,4.215,18.066,4.215c0.914,0,1.819-0.165,2.725-0.219c0.375-0.027,0.75-0.064,1.125-0.101
			c2.011-0.192,4.005-0.539,5.989-1.033c0.448-0.11,0.896-0.11,1.344-0.229c10.313,2.578,49.061,11.675,83.008,11.675
			c63.835,0,76.672-0.768,112.649-27.374l33.829-0.091C496.009,379.278,512,363.497,512,343.483V178.181
			C512,158.075,495.634,141.71,475.529,141.71z M41.143,196.622c-12.608,0-22.857-10.267-22.857-22.894
			c0-12.562,10.249-22.775,22.857-22.775l241.838-0.055c-0.027,0.091-0.018,0.183-0.046,0.274
			c-11.849,15.479-24.402,32.064-34.542,45.806c-0.512-0.091-0.987-0.311-1.527-0.311l-77.705-0.046
			c-0.43-0.064-1.061,0-1.609,0.027L41.143,196.622z M169.143,261.088c-12.389,0-22.857-10.697-22.857-23.36
			c0-6.107,2.386-11.849,6.702-16.165c4.041-4.023,9.307-6.354,14.967-6.629l67.429,0.018c-1.307,1.865-2.523,3.621-3.52,5.093
			c-7.863,11.73-11.227,21.623-12.123,29.76c-0.21,0.055-0.43,0.018-0.64,0.091l-25.71,8.841l-20.206,2.35H169.143z
			 M203.456,322.949c-1.435,0.494-2.889,0.832-4.343,1.015c-10.167,1.298-20.224-4.635-23.68-14.702l-0.53-1.518
			c-3.959-11.502,2.185-24.073,13.678-28.023l29.513-10.149c4.709,6.098,11.419,10.898,18.853,14.08
			c5.422,2.834,11.566,4.489,18.048,4.489c2.779,0,5.605-0.338,8.421-0.905c2.395-0.421,4.736-1.051,6.967-1.947
			c1.865-0.741,3.913-1.701,6.034-2.752c0.558-0.274,1.125-0.576,1.691-0.878c1.819-0.942,3.712-1.984,5.687-3.127
			c0.347-0.201,0.677-0.384,1.024-0.585c10.213-6.016,22.263-14.491,35.154-24.814c0.777,1.271,1.417,2.642,1.911,4.069l0.53,1.518
			c1.902,5.531,1.518,11.52-1.079,16.832c-2.578,5.303-7.058,9.271-12.581,11.182l-36.471,12.544L203.456,322.949z M350.501,332.951
			c-2.688,5.504-7.333,9.627-13.074,11.611l-95.104,32.704c-5.751,1.957-11.95,1.573-17.435-1.106
			c-5.513-2.688-9.637-7.333-11.611-13.074s-1.582-11.941,1.106-17.445c1.353-2.752,3.182-5.166,5.394-7.131
			c2.203-1.957,4.8-3.483,7.662-4.471l0.018-0.009l50.77-17.463l36.453-12.535c0.009,0,0.009-0.009,0.018-0.009l7.863-2.706
			c2.459-0.841,4.946-1.243,7.415-1.243c9.49,0,18.377,5.97,21.632,15.433C353.582,321.248,353.189,327.447,350.501,332.951z"/>
	</g>
</g>
<g>
</g>
<g>
</g>
<g>
</g>
<g>
</g>
<g>
</g>
<g>
</g>
<g>
</g>
<g>
</g>
<g>
</g>
<g>
</g>
<g>
</g>
<g>
</g>
<g>
</g>
<g>
</g>
<g>
</g>
</svg>
