<?xml version="1.0" encoding="iso-8859-1"?>
<!-- Generator: Adobe Illustrator 19.0.0, SVG Export Plug-In . SVG Version: 6.00 Build 0)  -->
<svg version="1.1" id="Layer_1" xmlns="http://www.w3.org/2000/svg" xmlns:xlink="http://www.w3.org/1999/xlink" x="0px" y="0px"
	 viewBox="0 0 512 512" style="enable-background:new 0 0 512 512;" xml:space="preserve">
<g>
	<g>
		<path d="M470.857,132.667l-255.936-0.055c-19.264-25.106-39.525-27.365-67.474-27.429c-0.384-0.046-0.768-0.073-1.161-0.073
			c-39.278,0-68.142,26.953-77.221,36.599H36.471C16.366,141.71,0,158.075,0,178.181v165.303c0,20.023,15.991,35.813,36.443,35.941
			l33.792,0.091c35.977,26.606,48.814,27.374,112.649,27.374c33.902,0,72.576-9.07,82.962-11.666
			c0.603,0.174,1.207,0.183,1.81,0.329c1.554,0.366,3.099,0.667,4.672,0.85c0.923,0.11,1.847,0.192,2.77,0.229
			c0.658,0.037,1.317,0.174,1.975,0.174c1.408,0,2.825-0.101,4.233-0.247c0.073-0.009,0.146-0.009,0.219-0.018
			c2.231-0.238,4.434-0.731,6.619-1.344c0.512-0.146,1.015-0.283,1.518-0.448c1.856-0.603,3.694-1.289,5.477-2.158
			c0.119-0.064,0.219-0.155,0.338-0.21c1.737-0.869,3.346-1.938,4.937-3.035c0.594-0.411,1.253-0.731,1.819-1.17
			c1.472-1.134,2.779-2.459,4.096-3.785c0.539-0.558,1.179-1.024,1.691-1.609c1.289-1.463,2.386-3.127,3.465-4.791
			c0.366-0.558,0.823-1.033,1.161-1.618c1.335-2.286,2.469-4.736,3.355-7.342c0.841-2.414,1.381-4.873,1.755-7.351
			c0.11-0.75,0.119-1.49,0.183-2.24c0.165-1.746,0.256-3.493,0.192-5.239c-0.027-0.869-0.128-1.737-0.21-2.606
			c-0.174-1.627-0.43-3.246-0.786-4.855c-0.201-0.878-0.411-1.755-0.667-2.624c-0.165-0.549-0.238-1.125-0.43-1.673
			c1.125-0.009,2.222-0.183,3.328-0.283c0.887-0.082,1.792-0.091,2.67-0.229c1.17-0.192,2.295-0.53,3.438-0.823
			c0.85-0.21,1.71-0.347,2.542-0.613c1.106-0.357,2.158-0.859,3.227-1.307c0.814-0.338,1.664-0.613,2.45-1.006
			c1.015-0.503,1.957-1.152,2.935-1.737c0.777-0.475,1.591-0.878,2.331-1.399c0.923-0.649,1.746-1.426,2.615-2.149
			c0.713-0.594,1.472-1.125,2.139-1.774c0.85-0.814,1.582-1.746,2.359-2.642c0.585-0.667,1.234-1.28,1.774-1.993
			c0.878-1.161,1.627-2.441,2.377-3.703c0.338-0.549,0.731-1.042,1.033-1.609c1.015-1.883,1.883-3.867,2.606-5.952l0.521-1.527
			c0.786-2.304,1.289-4.626,1.655-6.949c0.064-0.439,0.146-0.869,0.201-1.307c0.274-2.24,0.347-4.48,0.247-6.702
			c-0.018-0.457-0.064-0.905-0.101-1.362c-0.192-2.304-0.53-4.59-1.106-6.811c-0.055-0.201-0.128-0.393-0.183-0.594
			c-0.658-2.414-1.518-4.763-2.615-7.003c-0.009-0.027-0.009-0.046-0.018-0.064c-0.009-0.009-0.009-0.018-0.018-0.027
			c-0.695-1.426-1.463-2.816-2.322-4.151C369.353,275.241,384,258.181,384,237.737c0-8.238-2.405-16.11-6.885-22.802l93.742-0.018
			c22.683,0,41.143-18.478,41.143-41.179C512,151.099,493.541,132.667,470.857,132.667z M298.725,363.086
			c-1.975,5.742-6.098,10.386-11.611,13.074c-5.477,2.679-11.657,3.063-18.03,0.896l-94.51-32.494
			c-5.742-1.975-10.386-6.098-13.074-11.611c-2.688-5.504-3.081-11.703-1.106-17.445c3.255-9.463,12.142-15.433,21.632-15.433
			c2.459,0,4.955,0.402,7.415,1.243l7.863,2.706c0.009,0,0.009,0.009,0.018,0.009l87.259,30.016
			c0.814,0.283,1.545,0.695,2.313,1.061c0.585,0.274,1.207,0.485,1.755,0.805c0.896,0.53,1.701,1.189,2.514,1.829
			c0.347,0.274,0.741,0.485,1.061,0.777c2.213,1.966,4.041,4.37,5.394,7.122C300.306,351.145,300.699,357.344,298.725,363.086z
			 M338.185,300.923c-0.009,0.85,0.018,1.71-0.091,2.551c-0.192,1.435-0.521,2.862-1.006,4.279l-0.521,1.527
			c-3.959,11.493-16.539,17.627-28.023,13.678l-18.057-6.208l-87.241-30.016c-5.522-1.911-10.002-5.879-12.581-11.182
			c-2.597-5.312-2.981-11.291-1.07-16.832l0.53-1.536c0.485-1.417,1.125-2.779,1.902-4.05c16.11,12.901,30.885,22.912,42.386,28.8
			c0.347,0.174,0.695,0.366,1.033,0.539c2.176,1.079,4.27,2.057,6.171,2.816c0.009,0.009,0.027,0.009,0.046,0.018
			c0.027,0.009,0.055,0.027,0.082,0.037c0.987,0.375,2.002,0.539,2.999,0.832c1.234,0.366,2.441,0.814,3.721,1.042
			c2.853,0.585,5.705,0.951,8.53,0.951c6.51,0,12.699-1.682,18.149-4.562c7.397-3.182,14.08-7.963,18.761-14.025l29.513,10.139
			c1.408,0.485,2.734,1.106,3.977,1.838c0.786,0.457,1.472,1.033,2.185,1.582c0.421,0.32,0.887,0.585,1.28,0.933
			c2.121,1.893,3.877,4.197,5.166,6.848c1.289,2.633,2.021,5.44,2.213,8.283C338.277,299.771,338.194,300.347,338.185,300.923z
			 M342.857,261.088h-4.041l-20.206-2.35l-25.71-8.841c-0.21-0.073-0.421-0.037-0.64-0.091c-0.896-8.137-4.261-18.03-12.123-29.751
			c-0.997-1.49-2.213-3.237-3.52-5.102l67.319-0.018c5.696,0.247,11.017,2.587,15.077,6.638c4.315,4.306,6.702,10.048,6.702,16.165
			C365.714,250.391,355.246,261.088,342.857,261.088z M470.857,196.631l-126.565,0.018c-0.466-0.009-0.914,0.009-1.435-0.018
			l-77.714,0.037c-0.549,0-1.015,0.219-1.536,0.311c-10.149-13.742-22.702-30.327-34.542-45.797
			c-0.027-0.091-0.018-0.192-0.046-0.283l241.838,0.055c12.608,0,22.857,10.222,22.857,22.784
			C493.714,186.363,483.465,196.631,470.857,196.631z"/>
	</g>
</g>
<g>
</g>
<g>
</g>
<g>
</g>
<g>
</g>
<g>
</g>
<g>
</g>
<g>
</g>
<g>
</g>
<g>
</g>
<g>
</g>
<g>
</g>
<g>
</g>
<g>
</g>
<g>
</g>
<g>
</g>
</svg>
