<?xml version="1.0" encoding="iso-8859-1"?>
<!-- Generator: Adobe Illustrator 19.0.0, SVG Export Plug-In . SVG Version: 6.00 Build 0)  -->
<svg version="1.1" id="Layer_1" xmlns="http://www.w3.org/2000/svg" xmlns:xlink="http://www.w3.org/1999/xlink" x="0px" y="0px"
	 viewBox="0 0 512 512" style="enable-background:new 0 0 512 512;" xml:space="preserve">
<g>
	<g>
		<path d="M395.223,246.162c0.283-1.015,0.347-2.03,0.549-3.045c0.265-1.253,0.558-2.505,0.695-3.776
			c0.146-1.39,0.137-2.761,0.146-4.142c0.009-1.243,0.064-2.487-0.046-3.721c-0.128-1.481-0.421-2.917-0.704-4.37
			c-0.219-1.097-0.366-2.194-0.667-3.273c-0.485-1.71-1.161-3.328-1.856-4.955c-0.283-0.667-0.43-1.362-0.75-2.021
			c-0.064-0.119-0.146-0.219-0.21-0.338c-0.869-1.746-1.947-3.374-3.063-4.983c-0.393-0.576-0.713-1.216-1.143-1.774
			c-1.143-1.49-2.496-2.825-3.849-4.16c-0.53-0.521-0.978-1.134-1.536-1.627c-1.49-1.307-3.163-2.414-4.855-3.502
			c-0.539-0.357-1.006-0.805-1.563-1.125c-2.286-1.335-4.736-2.469-7.333-3.355c-2.45-0.85-4.928-1.399-7.397-1.765
			c-0.759-0.11-1.518-0.11-2.286-0.183c-1.737-0.155-3.474-0.247-5.193-0.183c-0.878,0.027-1.746,0.137-2.624,0.229
			c-1.655,0.165-3.291,0.421-4.91,0.795c-0.814,0.183-1.618,0.375-2.423,0.613c-0.585,0.165-1.189,0.247-1.765,0.448
			c0-0.503-0.101-0.997-0.128-1.49c-0.037-0.759-0.119-1.49-0.192-2.24c-0.174-1.71-0.457-3.383-0.85-5.038
			c-0.165-0.704-0.311-1.417-0.512-2.112c-0.576-1.947-1.28-3.849-2.139-5.687c-0.137-0.311-0.229-0.631-0.375-0.933
			c-1.051-2.121-2.304-4.133-3.712-6.053c-0.357-0.485-0.777-0.923-1.161-1.399c-1.115-1.381-2.304-2.706-3.611-3.941
			c-0.558-0.53-1.134-1.033-1.728-1.536c-1.326-1.125-2.734-2.139-4.224-3.099c-0.594-0.384-1.161-0.786-1.792-1.143
			c-2.139-1.216-4.379-2.313-6.784-3.136l-1.536-0.53c-2.432-0.832-4.882-1.362-7.333-1.719c-0.329-0.046-0.658-0.119-0.997-0.155
			c-2.341-0.283-4.672-0.338-6.985-0.21c-0.393,0.018-0.786,0.055-1.189,0.082c-2.295,0.201-4.562,0.558-6.775,1.143
			c-0.302,0.073-0.576,0.183-0.869,0.265c-2.158,0.622-4.261,1.39-6.272,2.35c-0.174,0.082-0.357,0.146-0.521,0.229
			c-1.39,0.686-2.734,1.435-4.032,2.277C275.241,142.647,258.19,128,237.728,128c-8.238,0-16.11,2.405-22.802,6.885l-0.018-93.742
			C214.907,18.459,196.439,0,173.728,0c-22.638,0-41.061,18.459-41.061,41.143l-0.064,255.936
			c-25.125,19.282-27.374,39.552-27.429,67.557c-0.046,0.347-0.064,0.713-0.064,1.079c0,39.278,26.953,68.142,36.599,77.221v32.594
			c0,20.105,16.357,36.471,36.471,36.471h165.312c20.005,0,35.794-15.991,35.931-36.443l0.091-33.792
			c26.606-35.977,27.374-48.814,27.374-112.649C406.889,295.223,397.819,256.558,395.223,246.162z M151.191,282.926
			c-0.091,0.027-0.201,0.018-0.293,0.055l0.055-241.838c0-12.608,10.213-22.857,22.775-22.857c12.626,0,22.894,10.249,22.894,22.857
			l0.027,126.4c-0.018,0.539-0.027,1.061-0.027,1.609l0.046,77.714c0,0.539,0.219,1.015,0.311,1.527
			C183.246,258.533,166.661,271.086,151.191,282.926z M249.806,219.73c-8.128,0.905-18.03,4.27-29.751,12.133
			c-1.481,0.997-3.237,2.213-5.102,3.52l-0.018-67.438c0.274-5.65,2.606-10.917,6.638-14.958c4.306-4.315,10.048-6.702,16.155-6.702
			c12.663,0,23.36,10.469,23.36,22.857v4.041l-2.35,20.206l-8.841,25.71C249.824,219.31,249.861,219.52,249.806,219.73z
			 M275.552,321.335c-5.312,2.606-11.273,2.971-16.823,1.079l-1.545-0.539c-1.417-0.485-2.779-1.125-4.05-1.902
			c12.946-16.165,22.994-30.994,28.864-42.514c0.146-0.283,0.302-0.567,0.439-0.841c1.097-2.194,2.094-4.306,2.853-6.235
			c0.009-0.018,0.018-0.046,0.018-0.064c0.018-0.027,0.027-0.055,0.037-0.073c4.443-11.703,3.429-24.329-2.011-34.103
			c-3.182-7.113-7.881-13.513-13.751-18.048l10.139-29.513c3.959-11.483,16.503-17.646,28.014-13.678l1.527,0.53h0.009
			c11.493,3.95,17.637,16.521,13.687,28.023l-6.208,18.057l-30.007,87.241C284.823,314.277,280.855,318.757,275.552,321.335z
			 M377.056,242.917l-32.494,94.51c-1.984,5.742-6.107,10.386-11.611,13.074c-5.495,2.697-11.694,3.099-17.445,1.106
			c-11.922-4.096-18.286-17.134-14.19-29.047l2.706-7.854c0-0.009,0.009-0.018,0.009-0.027l30.016-87.259
			c0.119-0.338,0.311-0.631,0.448-0.96c0.43-1.097,0.887-2.185,1.472-3.173c0.302-0.521,0.704-0.969,1.051-1.454
			c0.512-0.731,0.997-1.481,1.573-2.13c0.667-0.741,1.435-1.381,2.194-2.03c0.357-0.302,0.667-0.667,1.042-0.942
			c1.179-0.896,2.45-1.682,3.813-2.35c1.481-0.713,3.017-1.234,4.581-1.627c0.539-0.137,1.106-0.183,1.664-0.274
			c1.006-0.174,2.021-0.32,3.035-0.357c0.942-0.027,1.883,0,2.834,0.082c0.384,0.037,0.768,0.046,1.152,0.101
			c1.399,0.201,2.798,0.503,4.178,0.969c1.472,0.503,2.853,1.152,4.142,1.911c0.503,0.293,0.933,0.695,1.408,1.024
			c0.75,0.521,1.527,1.015,2.203,1.618c0.421,0.384,0.768,0.85,1.17,1.262c0.631,0.667,1.298,1.307,1.847,2.048
			c0.128,0.174,0.219,0.375,0.338,0.549C378.299,227.547,379.662,235.31,377.056,242.917z"/>
	</g>
</g>
<g>
</g>
<g>
</g>
<g>
</g>
<g>
</g>
<g>
</g>
<g>
</g>
<g>
</g>
<g>
</g>
<g>
</g>
<g>
</g>
<g>
</g>
<g>
</g>
<g>
</g>
<g>
</g>
<g>
</g>
</svg>
