<?xml version="1.0" encoding="iso-8859-1"?>
<!-- Generator: Adobe Illustrator 19.0.0, SVG Export Plug-In . SVG Version: 6.00 Build 0)  -->
<svg version="1.1" id="Layer_1" xmlns="http://www.w3.org/2000/svg" xmlns:xlink="http://www.w3.org/1999/xlink" x="0px" y="0px"
	 viewBox="0 0 512.002 512.002" style="enable-background:new 0 0 512.002 512.002;" xml:space="preserve">
<g transform="translate(0 -1)">
	<g>
		<g>
			<path d="M243.132,263.664c9.993-18.953,19.089-37.683,20.489-43.059c0.99-3.849,4.454-6.391,8.252-6.391
				c0.708,0,1.425,0.085,2.15,0.282c4.557,1.178,7.296,5.837,6.11,10.394c-0.862,3.311-5.359,13.483-11.503,26.129
				c0.29-0.239,0.64-0.503,0.905-0.734c0.708-0.614,3.669-2.765,11.861-4.599c25.318-5.683,41.677-24.73,41.677-48.538V143.89
				c0-15.053-5.282-30.481-14.498-42.334C298.257,88.304,284.322,81,269.338,81h-0.017h-1.092
				c4.685,11.665,9.037,22.46,11.383,26.684c2.278,4.122,0.785,9.318-3.345,11.597c-4.122,2.287-9.31,0.776-11.588-3.328
				c-2.961-5.35-7.578-16.862-12.919-30.174c-1.604-4.002-3.49-8.704-5.47-13.534c-15.061-11.998-30.336-21.436-31.403-22.093
				c-21.683-12.049-44.075-31.428-54.835-40.747c-7.313-6.323-9.583-8.286-12.732-8.286c-0.384,0-0.785,0.034-1.212,0.085
				c-2.679-0.068-10.735-0.307-16.964,9.114c-1.894,2.842-3.226,5.35-4.181,7.885c-7.458,19.789,1.015,45.457,18.645,59.477H29.713
				C13.329,77.68,0,91.06,0,107.504c0,16.495,13.423,29.909,29.918,29.909h35.157c-1.929,3.866-3.021,8.158-3.021,12.655
				c0,15.778,13.193,29.193,29.133,29.986c-2.014,3.746-3.226,8.038-3.226,12.783c0,14.438,9.865,26.189,23.458,29.175
				c-1.109,2.987-1.681,6.153-1.681,9.267c0,32.691,38.443,34.133,118.4,34.133C233.626,265.413,238.601,264.739,243.132,263.664z"
				/>
			<path d="M497.495,349.026c-10.308-13.261-24.243-20.557-39.236-20.557h-0.008h-1.092c4.676,11.657,9.037,22.46,11.375,26.684
				c2.287,4.122,0.785,9.318-3.336,11.597c-4.13,2.287-9.31,0.776-11.597-3.328c-2.961-5.35-7.578-16.862-12.919-30.182
				c-1.596-3.994-3.49-8.695-5.461-13.534c-15.061-11.989-30.336-21.436-31.411-22.084c-21.683-12.058-44.075-31.428-54.835-40.747
				c-7.305-6.323-9.574-8.294-12.732-8.294c-0.384,0-0.777,0.034-1.203,0.085c-2.688-0.068-10.735-0.299-16.973,9.122
				c-1.894,2.842-3.217,5.35-4.173,7.876c-7.467,19.797,1.016,45.466,18.637,59.486H218.643c-16.393,0-29.722,13.38-29.722,29.815
				c0,16.503,13.423,29.918,29.918,29.918h35.157c-1.929,3.857-3.021,8.158-3.021,12.655c0,15.778,13.193,29.184,29.133,29.978
				c-2.005,3.755-3.226,8.047-3.226,12.783c0,14.447,9.865,26.197,23.458,29.175c-1.109,2.995-1.673,6.161-1.673,9.276
				c0,32.683,38.434,34.133,118.4,34.133c5.478,0,10.462-0.683,14.984-1.749c9.993-18.953,19.089-37.683,20.489-43.059
				c0.998-3.849,4.454-6.391,8.252-6.391c0.708,0,1.434,0.085,2.15,0.273c4.565,1.186,7.305,5.845,6.11,10.402
				c-0.853,3.311-5.35,13.483-11.494,26.129c0.282-0.239,0.631-0.512,0.896-0.734c0.717-0.623,3.669-2.773,11.861-4.599
				c25.318-5.683,41.685-24.738,41.685-48.538v-53.257C512.002,376.298,506.711,360.878,497.495,349.026z"/>
		</g>
	</g>
</g>
<g>
</g>
<g>
</g>
<g>
</g>
<g>
</g>
<g>
</g>
<g>
</g>
<g>
</g>
<g>
</g>
<g>
</g>
<g>
</g>
<g>
</g>
<g>
</g>
<g>
</g>
<g>
</g>
<g>
</g>
</svg>
