<?xml version="1.0" encoding="iso-8859-1"?>
<!-- Generator: Adobe Illustrator 19.0.0, SVG Export Plug-In . SVG Version: 6.00 Build 0)  -->
<svg version="1.1" id="Layer_1" xmlns="http://www.w3.org/2000/svg" xmlns:xlink="http://www.w3.org/1999/xlink" x="0px" y="0px"
	 viewBox="0 0 512 512" style="enable-background:new 0 0 512 512;" xml:space="preserve">
<g>
	<g>
		<path d="M469.333,170.709H274.987c32.41-19.029,49.323-62.66,36.949-95.514c-1.809-4.796-4.378-8.917-6.161-11.597
			c-8.474-12.8-18.901-12.45-22.69-12.22c-4.634-0.819-5.734,0.137-19.217,11.802c-17.391,15.044-53.564,46.362-89.139,66.133
			c-1.212,0.751-22.229,13.747-44.356,30.857c-3.482,6.289-7.014,12.749-10.325,18.799c-14.362,26.274-23.415,42.641-28.126,48.358
			c-2.995,3.644-8.371,4.164-12.006,1.169c-2.048-1.69-3.115-4.13-3.115-6.588c0-1.911,0.64-3.831,1.946-5.419
			c3.439-4.181,12.587-20.617,21.7-37.248H85.248C38.238,179.242,0,217.48,0,264.49v85.419c0,36.983,30.686,75.119,67.021,83.277
			c9.958,2.236,17.51,5.257,21.257,8.508c0.529,0.452,1.229,0.922,1.826,1.382c-7.774-21.606-12.919-39.39-13.03-39.825
			c-0.188-0.717-0.273-1.434-0.273-2.142c0-3.797,2.543-7.262,6.391-8.26c4.557-1.186,9.216,1.553,10.402,6.118
			c3.584,13.781,10.999,35.447,19.081,55.569c11.093,3.703,24.909,6.306,40.926,6.306h136.533c23.526,0,42.667-19.14,42.667-42.667
			c0-9.6-3.191-18.466-8.55-25.6h8.55c23.526,0,42.667-19.14,42.667-42.667c0-9.6-3.191-18.466-8.55-25.6h0.017
			c23.526,0,42.667-19.14,42.667-42.667c0-9.6-3.191-18.466-8.55-25.6h68.284c23.526,0,42.667-19.14,42.667-42.667
			C512,189.849,492.86,170.709,469.333,170.709z"/>
	</g>
</g>
<g>
</g>
<g>
</g>
<g>
</g>
<g>
</g>
<g>
</g>
<g>
</g>
<g>
</g>
<g>
</g>
<g>
</g>
<g>
</g>
<g>
</g>
<g>
</g>
<g>
</g>
<g>
</g>
<g>
</g>
</svg>
