<?xml version="1.0" encoding="iso-8859-1"?>
<!-- Generator: Adobe Illustrator 19.0.0, SVG Export Plug-In . SVG Version: 6.00 Build 0)  -->
<svg version="1.1" id="Layer_1" xmlns="http://www.w3.org/2000/svg" xmlns:xlink="http://www.w3.org/1999/xlink" x="0px" y="0px"
	 viewBox="0 0 504.581 504.581" style="enable-background:new 0 0 504.581 504.581;" xml:space="preserve">
<g>
	<g>
		<path d="M433.842,299.141c-0.174-0.923-0.21-1.856-0.448-2.779c-0.686-2.606-1.618-5.175-2.834-7.68
			c-1.115-2.295-2.469-4.416-3.95-6.418c-0.475-0.64-1.033-1.207-1.536-1.819c-1.088-1.307-2.222-2.56-3.456-3.712
			c-0.677-0.631-1.39-1.207-2.112-1.792c-1.225-0.997-2.505-1.92-3.849-2.77c-0.805-0.512-1.609-1.006-2.45-1.463
			c-0.485-0.265-0.923-0.603-1.426-0.85c0.229-0.229,0.375-0.53,0.603-0.768c1.289-1.381,2.414-2.907,3.502-4.471
			c0.521-0.75,1.125-1.426,1.591-2.213c1.463-2.423,2.715-4.992,3.657-7.735c1.755-5.102,2.469-10.386,2.158-15.598
			c-0.32-5.221-1.655-10.368-4.014-15.177l-0.713-1.472c-4.709-9.655-12.928-16.905-23.141-20.425
			c-1.518-0.512-3.063-0.942-4.608-1.28c4.763-6.885,7.296-15.122,7.205-23.781c-0.128-11.054-4.462-21.413-12.233-29.166
			c-5.824-5.833-13.083-9.701-20.992-11.264l66.277-66.304c16.037-16.037,16.027-42.139-0.027-58.203
			c-16.018-16.018-42.094-16-58.13,0.055l-181.01,180.937c-31.36-4.133-47.333,8.603-67.163,28.37
			c-0.274,0.219-0.549,0.457-0.805,0.722c-27.776,27.767-29.147,67.237-28.745,80.475l-23.04,23.049
			c-14.217,14.217-14.217,37.358,0,51.566l116.901,116.901c7.003,7.003,16.055,10.505,25.179,10.505
			c9.289,0,18.651-3.621,25.993-10.862l23.954-23.826c44.261-6.638,53.888-15.177,99.008-60.306
			c23.973-23.963,44.901-57.71,50.414-66.907c1.015-0.567,1.865-1.307,2.807-1.938c1.006-0.677,2.03-1.298,2.953-2.048
			c1.17-0.933,2.185-1.984,3.227-3.035c0.832-0.832,1.701-1.618,2.45-2.514c0.933-1.115,1.71-2.331,2.514-3.538
			c0.649-0.96,1.353-1.883,1.92-2.898c0.695-1.262,1.216-2.597,1.783-3.922c0.448-1.061,0.978-2.085,1.344-3.182
			c0.448-1.381,0.704-2.807,1.015-4.233c0.238-1.115,0.576-2.203,0.722-3.346c0.201-1.49,0.165-2.999,0.201-4.517
			c0.018-1.097,0.155-2.185,0.091-3.291C434.528,302.514,434.162,300.832,433.842,299.141z M372.859,160.699
			c4.37,4.361,6.802,10.194,6.875,16.43c0.064,6.199-2.249,11.968-6.528,16.247l-2.853,2.853l-15.945,12.626l-24.43,11.922
			c-0.201,0.101-0.329,0.274-0.521,0.384c-6.382-5.12-15.762-9.737-29.605-12.462c-1.755-0.347-3.849-0.722-6.107-1.115
			l47.525-47.543c4.206-3.886,9.646-6.034,15.424-6.043h0.018C362.811,153.998,368.544,156.375,372.859,160.699z M215.072,196.119
			c-0.091-0.046-0.165-0.128-0.265-0.174L385.842,24.983c4.334-4.325,10.066-6.711,16.155-6.72h0.037
			c6.071,0,11.785,2.359,16.082,6.665c8.923,8.933,8.942,23.442,0.027,32.347l-89.582,89.609c-0.311,0.302-0.622,0.603-0.923,0.914
			l-54.93,54.967c-0.384,0.393-0.567,0.878-0.869,1.307C254.962,201.531,234.373,198.679,215.072,196.119z M263.154,300.064
			l-0.695-1.435c-0.667-1.362-1.17-2.77-1.527-4.233c19.52-2.149,36.37-5.303,48.558-9.024c0.192-0.055,0.357-0.119,0.549-0.174
			c1.518-0.475,3.008-0.951,4.379-1.435c0.613-0.219,1.143-0.448,1.728-0.677c0.878-0.329,1.81-0.667,2.606-1.006
			c0.018-0.009,0.046-0.027,0.064-0.037c0.018-0.009,0.046-0.018,0.073-0.027c11.438-5.138,19.657-14.811,22.702-25.6
			c2.77-7.269,3.959-15.086,3.008-22.437l28.05-13.687c5.266-2.56,11.237-2.907,16.823-0.997
			c5.605,1.929,10.094,5.879,12.654,11.127l0.704,1.454c0,0.009,0,0.009,0.009,0.018c2.578,5.257,2.926,11.237,1.006,16.832
			c-0.485,1.399-1.088,2.725-1.81,3.968c-2.176,3.739-5.394,6.757-9.344,8.677l-8.018,3.922l-50.688,24.75l-41.371,20.197
			C281.714,315.543,268.503,310.99,263.154,300.064z M403.095,327.52c-0.018,0.009-0.027,0.018-0.037,0.027l-89.819,43.84
			c-5.467,2.661-11.675,3.026-17.454,1.033c-5.787-1.993-10.45-6.089-13.12-11.547c-5.522-11.319-0.805-25.033,10.514-30.565
			l7.424-3.63c0.018-0.009,0.046-0.018,0.073-0.027l41.326-20.178l41.554-20.288h0.009c0.274-0.128,0.567-0.192,0.841-0.311
			c5.248-2.295,11.09-2.615,16.603-0.722c5.797,1.993,10.459,6.089,13.12,11.547C419.653,308.027,414.944,321.733,403.095,327.52z"
			/>
	</g>
</g>
<g>
</g>
<g>
</g>
<g>
</g>
<g>
</g>
<g>
</g>
<g>
</g>
<g>
</g>
<g>
</g>
<g>
</g>
<g>
</g>
<g>
</g>
<g>
</g>
<g>
</g>
<g>
</g>
<g>
</g>
</svg>
