<?xml version="1.0" encoding="iso-8859-1"?>
<!-- Generator: Adobe Illustrator 19.0.0, SVG Export Plug-In . SVG Version: 6.00 Build 0)  -->
<svg version="1.1" id="Layer_1" xmlns="http://www.w3.org/2000/svg" xmlns:xlink="http://www.w3.org/1999/xlink" x="0px" y="0px"
	 viewBox="0 0 511.767 511.767" style="enable-background:new 0 0 511.767 511.767;" xml:space="preserve">
<g>
	<g>
		<g>
			<path d="M256.009,346.972c-9.318-10.761-28.689-33.152-40.738-54.835c-0.657-1.075-10.095-16.341-22.093-31.403
				c-4.838-1.98-9.54-3.866-13.534-5.47c-13.321-5.342-24.823-9.958-30.174-12.919c-4.113-2.278-5.623-7.467-3.337-11.597
				c2.287-4.122,7.475-5.615,11.597-3.337c4.233,2.338,15.027,6.699,26.684,11.375v-1.084v-0.017
				c0-14.984-7.296-28.919-20.557-39.236c-11.853-9.216-27.273-14.498-42.334-14.498H68.267c-23.799,0-42.846,16.358-48.529,41.677
				c-1.835,8.192-3.985,11.145-4.608,11.861c-0.222,0.265-0.486,0.614-0.725,0.905c12.638-6.144,22.81-10.65,26.121-11.503
				c4.557-1.186,9.216,1.545,10.402,6.11c0.188,0.725,0.273,1.442,0.273,2.15c0,3.797-2.543,7.262-6.391,8.252
				c-5.376,1.399-24.098,10.496-43.059,20.489C0.683,268.414,0,273.397,0,278.884c0,79.957,1.451,118.4,34.133,118.4
				c3.115,0,6.281-0.572,9.276-1.681c2.987,13.594,14.737,23.458,29.175,23.458c4.745,0,9.028-1.212,12.783-3.226
				c0.794,15.94,14.2,29.133,29.986,29.133c4.489,0,8.789-1.092,12.646-3.021v35.157c0,16.495,13.414,29.918,29.918,29.918
				c16.444,0,29.815-13.329,29.815-29.722V363.415c14.029,17.63,39.689,26.103,59.486,18.637c2.534-0.947,5.043-2.278,7.885-4.173
				c9.412-6.229,9.182-14.285,9.114-16.973c0.051-0.427,0.085-0.819,0.085-1.203C264.303,356.555,262.332,354.276,256.009,346.972z"
				/>
			<path d="M511.767,180.505c0-3.157-1.963-5.427-8.294-12.732c-9.31-10.761-28.689-33.152-40.738-54.835
				c-0.657-1.075-10.095-16.341-22.093-31.411c-4.83-1.971-9.54-3.866-13.534-5.461c-13.312-5.342-24.823-9.958-30.174-12.919
				c-4.104-2.287-5.615-7.467-3.336-11.597c2.287-4.122,7.475-5.623,11.605-3.337c4.224,2.338,15.019,6.699,26.684,11.375v-1.084
				v-0.017c0-14.993-7.305-28.919-20.565-39.236c-11.844-9.216-27.273-14.507-42.325-14.507h-53.265
				c-23.799,0-42.846,16.367-48.529,41.685c-1.835,8.192-3.985,11.145-4.599,11.861c-0.23,0.256-0.495,0.614-0.734,0.896
				c12.638-6.144,22.81-10.641,26.121-11.494c4.565-1.195,9.216,1.545,10.402,6.11c0.196,0.717,0.273,1.442,0.273,2.15
				c0,3.797-2.543,7.253-6.391,8.252c-5.367,1.399-24.098,10.496-43.051,20.489c-1.075,4.523-1.758,9.506-1.758,14.985
				c0,79.966,1.451,118.4,34.133,118.4c3.123,0,6.289-0.563,9.276-1.672c2.987,13.594,14.737,23.458,29.175,23.458
				c4.745,0,9.037-1.22,12.783-3.226c0.794,15.94,14.2,29.133,29.986,29.133c4.489,0,8.789-1.092,12.646-3.021v35.157
				c0,16.495,13.423,29.918,29.918,29.918c16.444,0,29.815-13.329,29.815-29.722V184.217c14.029,17.621,39.697,26.103,59.486,18.637
				c2.534-0.956,5.043-2.278,7.885-4.173c9.412-6.238,9.182-14.285,9.114-16.973C511.733,181.282,511.767,180.889,511.767,180.505z"
				/>
		</g>
	</g>
</g>
<g>
</g>
<g>
</g>
<g>
</g>
<g>
</g>
<g>
</g>
<g>
</g>
<g>
</g>
<g>
</g>
<g>
</g>
<g>
</g>
<g>
</g>
<g>
</g>
<g>
</g>
<g>
</g>
<g>
</g>
</svg>
