<?xml version="1.0" encoding="iso-8859-1"?>
<!-- Generator: Adobe Illustrator 19.0.0, SVG Export Plug-In . SVG Version: 6.00 Build 0)  -->
<svg version="1.1" id="Layer_1" xmlns="http://www.w3.org/2000/svg" xmlns:xlink="http://www.w3.org/1999/xlink" x="0px" y="0px"
	 viewBox="0 0 503.607 503.607" style="enable-background:new 0 0 503.607 503.607;" xml:space="preserve">
<g>
	<g>
		<g>
			<path d="M293.773,453.247c4.642,0,8.393-3.752,8.393-8.393s-3.752-8.393-8.393-8.393h-33.574c-4.642,0-8.393,3.752-8.393,8.393
				s3.752,8.393,8.393,8.393H293.773z"/>
			<path d="M302.166,470.034h-50.361c-4.642,0-8.393,3.752-8.393,8.393c0,4.642,3.752,8.393,8.393,8.393h50.361
				c4.642,0,8.393-3.752,8.393-8.393C310.56,473.785,306.808,470.034,302.166,470.034z"/>
			<path d="M262.674,185.87c-9.56,1.637-18.692,4.902-27.144,9.711c-4.037,2.291-5.447,7.411-3.148,11.449
				c1.536,2.719,4.381,4.239,7.302,4.239c1.402,0,2.829-0.353,4.138-1.091c6.765-3.844,14.059-6.455,21.689-7.764
				c4.566-0.781,7.638-5.128,6.849-9.694C271.588,188.153,267.266,185.09,262.674,185.87z"/>
			<path d="M209.839,268.452l0.008-1.2c0.076-4.625-3.618-8.444-8.251-8.528h-0.143c-4.574,0-8.318,3.66-8.393,8.251l-0.008,1.62
				c0,9.191,1.486,18.222,4.407,26.842c1.192,3.5,4.457,5.699,7.957,5.699c0.89,0,1.805-0.143,2.694-0.445
				c4.39-1.494,6.748-6.262,5.254-10.651C211.03,283.165,209.839,275.947,209.839,268.452z"/>
			<path d="M203.385,249.491c0.99,0.378,1.998,0.554,2.996,0.554c3.374,0,6.564-2.056,7.839-5.405
				c2.753-7.218,6.723-13.874,11.81-19.775c3.013-3.517,2.61-8.821-0.898-11.843c-3.517-3.013-8.805-2.619-11.843,0.89
				c-6.337,7.378-11.306,15.704-14.756,24.744C196.888,242.986,199.062,247.837,203.385,249.491z"/>
			<path d="M339.794,244.768c1.276,3.357,4.465,5.422,7.848,5.422c0.99,0,1.998-0.176,2.971-0.546
				c4.339-1.645,6.522-6.488,4.877-10.819c-3.441-9.065-8.385-17.408-14.705-24.794c-3.03-3.534-8.326-3.903-11.843-0.915
				c-3.517,3.013-3.928,8.31-0.915,11.835C333.096,230.86,337.041,237.533,339.794,244.768z"/>
			<path d="M288.595,202.446c7.621,1.318,14.907,3.945,21.663,7.797c1.309,0.755,2.745,1.108,4.155,1.108
				c2.921,0,5.741-1.519,7.294-4.23c2.3-4.02,0.898-9.157-3.122-11.449c-8.452-4.826-17.576-8.116-27.119-9.77
				c-4.558-0.789-8.922,2.266-9.711,6.832C280.965,197.301,284.029,201.649,288.595,202.446z"/>
			<path d="M352.363,258.87c-4.633,0.092-8.318,3.92-8.234,8.553l0.008,1.167c0,7.403-1.209,14.663-3.576,21.58
				c-1.502,4.39,0.831,9.166,5.221,10.668c0.898,0.302,1.821,0.453,2.719,0.453c3.492,0,6.748-2.191,7.94-5.674
				c2.971-8.679,4.482-17.769,4.482-27.027l-0.008-1.486C360.824,262.479,357.131,258.668,352.363,258.87z"/>
			<path d="M361.237,0H150.763c-18.331,0-33.255,14.924-33.255,33.255v17.106v25.18c-4.633,0-8.393,3.752-8.393,8.393v8.393
				c0,4.642,3.76,8.393,8.393,8.393v8.393c-4.633,0-8.393,3.752-8.393,8.393v8.393c0,4.642,3.76,8.393,8.393,8.393v8.393
				c-4.633,0-8.393,3.752-8.393,8.393v8.393c0,4.642,3.76,8.393,8.393,8.393v260.197v42.286c0,18.34,14.924,33.255,33.255,33.255
				h75.86c4.642,0,8.393-3.752,8.393-8.393v-67.148V293.77c0-9.166,3.047-17.954,8.393-25.096v50.277h67.148v-50.277
				c5.355,7.143,8.393,15.931,8.393,25.096v134.295v67.148c0,4.642,3.76,8.393,8.393,8.393h33.893
				c18.34,0,33.255-14.915,33.255-33.255v-42.286V50.361V33.255C394.492,14.924,379.577,0,361.237,0z M377.705,411.279h-41.967
				v-82.961c2.392-2.35,4.7-4.801,6.807-7.42c2.904-3.618,2.317-8.905-1.293-11.81c-1.62-1.284-3.584-1.788-5.515-1.729V293.77
				c0-19.456-9.846-37.569-25.835-48.464c-3.038-15.41-16.627-27.077-32.919-27.077s-29.881,11.667-32.911,27.077
				c-15.998,10.895-25.843,29.008-25.843,48.464v13.589c-1.922-0.059-3.878,0.436-5.506,1.729c-3.618,2.904-4.197,8.192-1.293,11.81
				c2.107,2.619,4.415,5.07,6.799,7.42v82.961h-83.934V67.148h243.41V411.279z"/>
			<path d="M159.478,100.723c2.182,0,4.356-0.923,5.875-2.434c1.595-1.603,2.518-3.777,2.518-5.959s-0.923-4.373-2.434-5.959
				c-3.106-3.106-8.729-3.106-11.919,0c-1.519,1.586-2.434,3.685-2.434,5.959c0,2.258,0.915,4.356,2.434,5.959
				C155.105,99.875,157.203,100.723,159.478,100.723z"/>
			<path d="M193.052,100.722c2.266,0,4.365-0.923,5.959-2.434c1.511-1.595,2.434-3.777,2.434-5.959c0-2.182-0.923-4.365-2.434-5.959
				c-3.106-3.106-8.813-3.106-11.919,0c-1.519,1.595-2.434,3.777-2.434,5.959c0,2.182,0.915,4.365,2.434,5.959
				C188.687,99.799,190.785,100.722,193.052,100.722z"/>
			<path d="M344.134,100.722h8.393c4.642,0,8.393-3.752,8.393-8.393c0-4.642-3.752-8.393-8.393-8.393h-8.393
				c-4.642,0-8.393,3.752-8.393,8.393C335.74,96.97,339.492,100.722,344.134,100.722z"/>
			<path d="M302.166,100.722h8.393c4.642,0,8.393-3.752,8.393-8.393c0-4.642-3.752-8.393-8.393-8.393h-8.393
				c-4.642,0-8.393,3.752-8.393,8.393C293.773,96.97,297.525,100.722,302.166,100.722z"/>
			<path d="M235.019,100.722h25.18c4.642,0,8.393-3.752,8.393-8.393c0-4.642-3.752-8.393-8.393-8.393h-25.18
				c-4.642,0-8.393,3.752-8.393,8.393C226.625,96.97,230.377,100.722,235.019,100.722z"/>
		</g>
	</g>
</g>
<g>
</g>
<g>
</g>
<g>
</g>
<g>
</g>
<g>
</g>
<g>
</g>
<g>
</g>
<g>
</g>
<g>
</g>
<g>
</g>
<g>
</g>
<g>
</g>
<g>
</g>
<g>
</g>
<g>
</g>
</svg>
