<?xml version="1.0" encoding="iso-8859-1"?>
<!-- Generator: Adobe Illustrator 19.0.0, SVG Export Plug-In . SVG Version: 6.00 Build 0)  -->
<svg version="1.1" id="Layer_1" xmlns="http://www.w3.org/2000/svg" xmlns:xlink="http://www.w3.org/1999/xlink" x="0px" y="0px"
	 viewBox="0 0 511.987 511.987" style="enable-background:new 0 0 511.987 511.987;" xml:space="preserve">
<g transform="translate(0 -1)">
	<g>
		<g>
			<path d="M151.75,233.438c16.393,12.356,37.41,19.166,59.179,19.166h33.28c19.336,0,36.958,9.079,47.147,24.286
				c3.516,5.248,4.966,9.643,3.883,11.759c-1.621,3.149-9.916,6.519-24.772,6.955l0.12,17.067l6.323,0.111
				c7.851,0.137,15.599,0.247,23.134,0.247c30.899,0,58.257-1.792,74.112-10.231l61.312-37.478l-0.845-5.589
				c-2.159-14.362-11.938-25.882-25.071-30.438c-0.759-14.37-9.702-26.982-22.485-32.836c6.409-9.668,7.219-20.446,1.732-29.005
				c-4.71-7.373-14.729-13.261-29.807-11.008c7.765-11.665,8.781-24.474,2.287-32.794c-6.118-7.859-16.811-9.685-29.03-5.086
				c-0.35-2.884-0.666-4.122-0.794-4.651c-4.864-18.825-21.845-31.974-41.318-31.974c-6.238,0-12.425,1.425-18.099,4.13
				c-0.572-0.333-1.101-0.691-1.348-0.922c-7.287-7.569-17.05-11.742-27.486-11.742c-18.398,0-33.818,13.013-37.547,30.31
				c-5.257,0.427-12.262,1.997-17.451,7.68c-4.881,5.35-6.878,12.919-5.948,22.485c-16.956-9.574-29.995-4.437-36.634,3.746
				c-6.639,8.166-7.987,19.934-4.181,30.089c-0.102-0.008-0.205-0.008-0.316-0.008c-4.471,0-8.883,1.468-12.877,4.326
				c-11.102,7.945-17.007,24.926-17.118,37.581l-0.06,6.571l6.34,1.741C131.756,221.85,143.319,227.073,151.75,233.438z"/>
			<path d="M507.366,244.188c-14.072-19.601-28.339-21.043-61.577-4.531c2.807,5.385,4.77,11.29,5.709,17.519l2.526,16.802
				l-71.398,43.639l-0.452,0.247c-20.198,10.752-51.405,12.228-82.133,12.228c-7.629,0-15.479-0.102-23.441-0.247l-22.963-0.401
				l-0.12-16.862H179.2c-25.6,0-25.6,12.843-25.6,17.067c0,4.71-3.814,8.533-8.533,8.533s-8.533-3.823-8.533-8.533
				c0-21.376,15.949-34.133,42.667-34.133h74.197l-0.111-16.486c0,0,0.691-9.361-9.079-9.361h-33.28
				c-25.455,0-50.116-8.021-69.453-22.605c-6.707-5.069-16.324-9.335-28.57-12.681l-19.012-5.231l0.171-19.686
				c0.043-4.241,0.538-8.815,1.519-13.483c-14.652-2.133-27.699-2.765-35.849-2.893v-25.822H0v273.314h59.733v-25.6h110.933
				c17.382,0,34.944-1.331,52.19-3.951l110.618-16.811c4.028-0.051,8.107-0.529,11.742-1.348
				c10.18-1.434,19.917-6.298,28.177-14.089l129.34-100.719l0.196-0.162C513.007,269.566,514.953,254.744,507.366,244.188z"/>
		</g>
	</g>
</g>
<g>
</g>
<g>
</g>
<g>
</g>
<g>
</g>
<g>
</g>
<g>
</g>
<g>
</g>
<g>
</g>
<g>
</g>
<g>
</g>
<g>
</g>
<g>
</g>
<g>
</g>
<g>
</g>
<g>
</g>
</svg>
