<?xml version="1.0" encoding="iso-8859-1"?>
<!-- Generator: Adobe Illustrator 19.0.0, SVG Export Plug-In . SVG Version: 6.00 Build 0)  -->
<svg version="1.1" id="Layer_1" xmlns="http://www.w3.org/2000/svg" xmlns:xlink="http://www.w3.org/1999/xlink" x="0px" y="0px"
	 viewBox="0 0 512 512" style="enable-background:new 0 0 512 512;" xml:space="preserve">
<g>
	<g>
		<g>
			<path d="M469.333,213.334c-4.719,0-8.533,3.814-8.533,8.533v42.667c0,4.719,3.814,8.533,8.533,8.533s8.533-3.814,8.533-8.533
				v-42.667C477.867,217.149,474.052,213.334,469.333,213.334z"/>
			<path d="M307.2,426.668c4.719,0,8.533-3.814,8.533-8.533c0-4.719-3.814-8.533-8.533-8.533h-17.067
				c-4.719,0-8.533,3.814-8.533,8.533c0,4.719,3.814,8.533,8.533,8.533H307.2z"/>
			<path d="M315.733,443.734H281.6c-4.719,0-8.533,3.814-8.533,8.533s3.814,8.533,8.533,8.533h34.133
				c4.719,0,8.533-3.814,8.533-8.533S320.452,443.734,315.733,443.734z"/>
			<path d="M230.4,238.793l0.009-1.22c0.077-4.702-3.678-8.585-8.388-8.67h-0.145c-4.651,0-8.456,3.721-8.533,8.388l-0.008,1.647
				c0,9.344,1.51,18.526,4.48,27.29c1.212,3.558,4.531,5.794,8.09,5.794c0.905,0,1.835-0.145,2.739-0.452
				c4.463-1.519,6.861-6.366,5.342-10.829C231.612,253.751,230.4,246.413,230.4,238.793z"/>
			<path d="M284.117,154.835c-9.719,1.664-19.004,4.983-27.597,9.873c-4.105,2.33-5.538,7.535-3.2,11.639
				c1.562,2.765,4.454,4.309,7.424,4.309c1.425,0,2.876-0.358,4.207-1.109c6.878-3.908,14.293-6.562,22.05-7.893
				c4.642-0.794,7.765-5.214,6.963-9.856C293.179,157.156,288.767,154.067,284.117,154.835z"/>
			<path d="M340.959,164.801c-8.593-4.907-17.869-8.252-27.571-9.933c-4.625-0.742-9.071,2.304-9.873,6.946
				c-0.802,4.642,2.313,9.062,6.955,9.873c7.748,1.34,15.155,4.011,22.025,7.927c1.331,0.768,2.79,1.126,4.224,1.126
				c2.97,0,5.837-1.544,7.415-4.301C346.471,172.353,345.046,167.13,340.959,164.801z"/>
			<path d="M370.5,220.227c1.007,0,2.031-0.179,3.021-0.555c4.412-1.673,6.63-6.596,4.958-10.999
				c-3.499-9.216-8.525-17.698-14.95-25.207c-3.081-3.593-8.465-3.977-12.041-0.93c-3.576,3.063-3.994,8.448-0.93,12.032
				c5.154,6.007,9.165,12.791,11.964,20.147C363.819,218.127,367.061,220.227,370.5,220.227z"/>
			<path d="M366.929,237.746l0.009,1.186c0,7.526-1.229,14.908-3.635,21.939c-1.527,4.463,0.845,9.318,5.308,10.846
				c0.913,0.307,1.852,0.461,2.765,0.461c3.55,0,6.861-2.227,8.073-5.769c3.021-8.823,4.557-18.065,4.557-27.477l-0.009-1.51
				c-0.094-4.71-3.891-8.235-8.695-8.371C370.59,229.145,366.844,233.036,366.929,237.746z"/>
			<path d="M245.949,182.438c-3.576-3.063-8.96-2.654-12.041,0.905c-6.443,7.501-11.494,15.966-15.002,25.156
				c-1.672,4.403,0.538,9.335,4.932,11.016c1.007,0.384,2.031,0.563,3.046,0.563c3.43,0,6.673-2.091,7.97-5.495
				c2.799-7.339,6.835-14.106,12.006-20.105C249.925,190.903,249.516,185.51,245.949,182.438z"/>
			<path d="M470.46,34.133H41.54C18.637,34.133,0,52.77,0,75.674v18.193v281.6v18.193c0,22.912,18.637,41.54,41.54,41.54h197.393
				v34.133c0,4.719,3.814,8.533,8.533,8.533s8.533-3.814,8.533-8.533v-51.2V358.4v-93.867c0-9.318,3.089-18.253,8.533-25.515v51.115
				H332.8v-51.115c5.444,7.262,8.533,16.196,8.533,25.515V358.4v59.733v51.2c0,4.719,3.814,8.533,8.533,8.533
				s8.533-3.814,8.533-8.533V435.2h112.06c22.903,0,41.54-18.628,41.54-41.54V75.674C512,52.77,493.363,34.133,470.46,34.133z
				 M238.933,418.133H41.54c-13.491,0-24.474-10.982-24.474-24.474v-18.193h93.867H128h110.933V418.133z M51.2,162.133h25.6
				c4.719,0,8.533,3.814,8.533,8.533S81.519,179.2,76.8,179.2H51.2c-4.719,0-8.533-3.814-8.533-8.533S46.481,162.133,51.2,162.133z
				 M42.667,136.533c0-4.719,3.814-8.533,8.533-8.533h25.6c4.719,0,8.533,3.814,8.533,8.533s-3.814,8.533-8.533,8.533H51.2
				C46.481,145.067,42.667,141.252,42.667,136.533z M64,196.267c21.171,0,38.4,17.229,38.4,38.4c0,21.18-17.229,38.4-38.4,38.4
				s-38.4-17.22-38.4-38.4C25.6,213.495,42.829,196.267,64,196.267z M76.8,307.2H51.2c-4.719,0-8.533-3.814-8.533-8.533
				c0-4.719,3.814-8.533,8.533-8.533h25.6c4.719,0,8.533,3.814,8.533,8.533C85.333,303.386,81.519,307.2,76.8,307.2z M85.333,332.8
				c0,4.719-3.814,8.533-8.533,8.533H51.2c-4.719,0-8.533-3.814-8.533-8.533s3.814-8.533,8.533-8.533h25.6
				C81.519,324.267,85.333,328.081,85.333,332.8z M332.134,215.262c-3.089-15.667-16.904-27.529-33.468-27.529
				s-30.379,11.861-33.468,27.529c-16.256,11.076-26.266,29.491-26.266,49.271v13.815c-1.954-0.06-3.942,0.444-5.598,1.758
				c-3.678,2.953-4.267,8.329-1.323,12.006c2.15,2.662,4.497,5.154,6.921,7.544V358.4H128V110.933h298.667V358.4H358.4v-58.743
				c2.423-2.389,4.77-4.881,6.921-7.544c2.944-3.678,2.355-9.054-1.323-12.006c-1.647-1.314-3.635-1.826-5.598-1.758v-13.815
				C358.4,244.753,348.39,226.338,332.134,215.262z M494.933,393.66c0,13.491-10.982,24.474-24.474,24.474H358.4v-42.667h85.333
				v-281.6H128h-17.067H17.067V75.674c0-13.491,10.982-24.474,24.474-24.474H470.46c13.491,0,24.474,10.982,24.474,24.474V393.66z"
				/>
			<path d="M145.067,170.668c2.185,0,4.369-0.836,6.033-2.5l34.133-34.133c3.336-3.336,3.336-8.73,0-12.066
				c-3.337-3.337-8.73-3.337-12.066,0l-34.133,34.133c-3.337,3.337-3.337,8.73,0,12.066
				C140.698,169.831,142.882,170.668,145.067,170.668z"/>
			<path d="M156.1,181.701l-17.067,17.067c-3.337,3.337-3.337,8.73,0,12.066c1.664,1.664,3.849,2.5,6.033,2.5
				c2.185,0,4.369-0.836,6.033-2.5l17.067-17.067c3.336-3.336,3.336-8.73,0-12.066C164.83,178.365,159.437,178.365,156.1,181.701z"
				/>
			<path d="M173.141,164.61c-1.545,1.613-2.475,3.84-2.475,6.059c0,2.219,0.93,4.429,2.475,6.059
				c1.613,1.536,3.746,2.475,6.059,2.475c2.295,0,4.429-0.939,6.059-2.475c1.536-1.63,2.475-3.763,2.475-6.059
				c0-2.313-0.939-4.446-2.475-6.059C182.101,161.452,176.299,161.452,173.141,164.61z"/>
			<path d="M227.9,121.968c-3.337-3.337-8.73-3.337-12.066,0l-25.6,25.6c-3.336,3.337-3.336,8.73,0,12.066
				c1.664,1.664,3.849,2.5,6.033,2.5c2.185,0,4.369-0.836,6.033-2.5l25.6-25.6C231.236,130.697,231.236,125.304,227.9,121.968z"/>
			<path d="M64,256.001c11.767,0,21.333-9.566,21.333-21.333c0-11.767-9.566-21.333-21.333-21.333s-21.333,9.566-21.333,21.333
				C42.667,246.435,52.233,256.001,64,256.001z M64,221.868c7.066,0,12.8,5.734,12.8,12.8c0,7.066-5.734,12.8-12.8,12.8
				s-12.8-5.734-12.8-12.8C51.2,227.602,56.934,221.868,64,221.868z"/>
		</g>
	</g>
</g>
<g>
</g>
<g>
</g>
<g>
</g>
<g>
</g>
<g>
</g>
<g>
</g>
<g>
</g>
<g>
</g>
<g>
</g>
<g>
</g>
<g>
</g>
<g>
</g>
<g>
</g>
<g>
</g>
<g>
</g>
</svg>
