<?xml version="1.0" encoding="iso-8859-1"?>
<!-- Generator: Adobe Illustrator 19.0.0, SVG Export Plug-In . SVG Version: 6.00 Build 0)  -->
<svg version="1.1" id="Layer_1" xmlns="http://www.w3.org/2000/svg" xmlns:xlink="http://www.w3.org/1999/xlink" x="0px" y="0px"
	 viewBox="0 0 512 512" style="enable-background:new 0 0 512 512;" xml:space="preserve">
<g transform="translate(0 -1)">
	<g>
		<g>
			<path d="M255.987,52.2c4.719,0,8.533-3.814,8.533-8.533V9.533c0-4.719-3.814-8.533-8.533-8.533s-8.533,3.814-8.533,8.533v34.133
				C247.454,48.386,251.268,52.2,255.987,52.2z"/>
			<path d="M102.387,205.8c4.719,0,8.533-3.814,8.533-8.533s-3.814-8.533-8.533-8.533H68.279c-4.719,0-8.533,3.814-8.533,8.533
				s3.814,8.533,8.533,8.533H102.387z"/>
			<path d="M443.721,188.733h-34.133c-4.719,0-8.533,3.814-8.533,8.533s3.814,8.533,8.533,8.533h34.133
				c4.719,0,8.533-3.814,8.533-8.533S448.439,188.733,443.721,188.733z"/>
			<path d="M115.654,130.434l-25.6-17.067c-3.942-2.611-9.225-1.562-11.836,2.364s-1.553,9.216,2.372,11.836l25.6,17.067
				c1.459,0.964,3.098,1.434,4.719,1.434c2.765,0,5.47-1.331,7.108-3.797C120.637,138.344,119.579,133.053,115.654,130.434z"/>
			<path d="M405.787,144.634l25.6-17.067c3.925-2.62,4.983-7.91,2.364-11.836c-2.603-3.925-7.893-4.975-11.827-2.364l-25.6,17.067
				c-3.925,2.62-4.984,7.91-2.372,11.836c1.647,2.466,4.352,3.797,7.108,3.797C402.69,146.068,404.328,145.598,405.787,144.634z"/>
			<path d="M97.654,249.9l-25.6,17.067c-3.925,2.62-4.983,7.91-2.364,11.836c1.638,2.466,4.343,3.797,7.108,3.797
				c1.621,0,3.26-0.469,4.719-1.434l25.6-17.067c3.925-2.62,4.983-7.91,2.372-11.836C106.878,248.339,101.588,247.289,97.654,249.9z
				"/>
			<path d="M439.921,266.967l-25.6-17.067c-3.934-2.611-9.224-1.562-11.836,2.364c-2.611,3.925-1.553,9.216,2.372,11.836
				l25.6,17.067c1.459,0.964,3.098,1.434,4.719,1.434c2.765,0,5.47-1.331,7.108-3.797
				C444.904,274.877,443.846,269.587,439.921,266.967z"/>
			<path d="M255.987,120.467c-42.342,0-76.8,34.449-76.8,76.8v76.8h153.6v-76.8C332.787,154.916,298.33,120.467,255.987,120.467z"/>
			<path d="M255.987,69.267c-70.579,0-128,57.421-128,128V385c0,70.579,57.421,128,128,128s128-57.421,128-128V197.267
				C383.987,126.687,326.566,69.267,255.987,69.267z M341.321,402.067H170.654c-4.71,0-8.533-3.814-8.533-8.533
				s3.823-8.533,8.533-8.533h170.667c4.71,0,8.533,3.814,8.533,8.533S346.031,402.067,341.321,402.067z M341.321,367.933H170.654
				c-4.71,0-8.533-3.814-8.533-8.533c0-4.719,3.823-8.533,8.533-8.533h170.667c4.71,0,8.533,3.814,8.533,8.533
				C349.854,364.119,346.031,367.933,341.321,367.933z M349.854,291.133H162.121v-93.867c0-51.755,42.112-93.867,93.867-93.867
				s93.867,42.112,93.867,93.867V291.133z"/>
			<path d="M189.154,48.4c1.638,2.466,4.352,3.797,7.108,3.797c1.621,0,3.268-0.461,4.727-1.434
				c3.925-2.611,4.983-7.902,2.364-11.827l-17.067-25.6c-2.611-3.925-7.902-4.983-11.836-2.372c-3.925,2.62-4.983,7.91-2.364,11.836
				L189.154,48.4z"/>
			<path d="M310.985,50.766c1.459,0.964,3.106,1.434,4.727,1.434c2.756,0,5.47-1.331,7.108-3.797l17.067-25.6
				c2.62-3.925,1.562-9.216-2.364-11.836c-3.942-2.62-9.225-1.562-11.836,2.364l-17.067,25.6
				C306.001,42.856,307.059,48.147,310.985,50.766z"/>
			<path d="M139.204,82.542c1.638,1.562,3.746,2.321,5.854,2.321c2.261,0,4.531-0.896,6.204-2.68
				c3.234-3.422,3.072-8.823-0.358-12.058l-25.6-24.132c-3.405-3.243-8.832-3.081-12.058,0.358
				c-3.234,3.422-3.072,8.823,0.358,12.058L139.204,82.542z"/>
			<path d="M366.921,84.867c2.099,0,4.207-0.768,5.854-2.321l25.6-24.141c3.43-3.226,3.584-8.627,0.358-12.058
				c-3.226-3.43-8.644-3.601-12.066-0.358l-25.6,24.132c-3.43,3.234-3.584,8.636-0.358,12.066
				C362.389,83.971,364.651,84.867,366.921,84.867z"/>
		</g>
	</g>
</g>
<g>
</g>
<g>
</g>
<g>
</g>
<g>
</g>
<g>
</g>
<g>
</g>
<g>
</g>
<g>
</g>
<g>
</g>
<g>
</g>
<g>
</g>
<g>
</g>
<g>
</g>
<g>
</g>
<g>
</g>
</svg>
