<?xml version="1.0" encoding="iso-8859-1"?>
<!-- Generator: Adobe Illustrator 19.0.0, SVG Export Plug-In . SVG Version: 6.00 Build 0)  -->
<svg version="1.1" id="Layer_1" xmlns="http://www.w3.org/2000/svg" xmlns:xlink="http://www.w3.org/1999/xlink" x="0px" y="0px"
	 viewBox="0 0 512 512" style="enable-background:new 0 0 512 512;" xml:space="preserve">
<g transform="translate(0 -1)">
	<g>
		<g>
			<path d="M465.067,1.026H48c-25.122,0-48,22.366-48,46.933v285.867c0,26.351,24.917,42.667,48,42.667h148.267
				c4.719,0,8.533-3.814,8.533-8.533s-3.814-8.533-8.533-8.533H48c-14.942,0-30.933-10.283-30.933-25.6V47.959
				c0-15.078,15.326-29.867,30.933-29.867h417.067c15.351,0,29.867,14.515,29.867,29.867v243.2c0,4.719,3.814,8.533,8.533,8.533
				c4.719,0,8.533-3.814,8.533-8.533v-243.2C512,23.392,489.634,1.026,465.067,1.026z"/>
			<path d="M209.691,220.985c-0.674-0.888-2.185-2.048-3.14-2.62c-3.567-2.185-6.801-4.002-10.283-4.002h-34.133v-51.2h34.133
				c3.132,0,6.212-0.845,8.917-2.441c0.538-0.324,1.05-0.708,1.51-1.135l57.737-54.477l0.102,92.186c0,4.71,3.814,8.533,8.533,8.533
				c4.71,0,8.533-3.823,8.533-8.533v-92.023c0-6.477-3.26-12.22-8.721-15.343c-5.308-3.046-11.708-2.97-17.135,0.205
				c-0.546,0.324-1.067,0.708-1.527,1.152l-58.095,54.81h-42.522c-4.719,0-8.533,3.814-8.533,8.533v68.267
				c0,4.71,3.814,8.533,8.533,8.533h41.506c0.64,0.316,1.331,0.751,1.937,1.118l9.481,12.552c1.673,2.227,4.233,3.396,6.818,3.396
				c1.792,0,3.601-0.563,5.129-1.732c3.763-2.842,4.514-8.183,1.673-11.947L209.691,220.985z"/>
			<path d="M305.859,194.793c1.664,1.664,3.849,2.5,6.033,2.5c2.185,0,4.369-0.836,6.033-2.5c9.591-9.583,14.874-22.332,14.874-35.9
				s-5.282-26.317-14.874-35.9c-3.337-3.337-8.73-3.337-12.066,0s-3.337,8.73,0,12.066c6.366,6.366,9.873,14.831,9.873,23.834
				c0,9.003-3.507,17.468-9.873,23.834C302.522,186.064,302.522,191.457,305.859,194.793z"/>
			<path d="M348.525,194.793c1.664,1.664,3.849,2.5,6.033,2.5c2.185,0,4.369-0.836,6.033-2.5c9.591-9.583,14.874-22.332,14.874-35.9
				s-5.282-26.317-14.874-35.9c-3.337-3.337-8.73-3.337-12.066,0c-3.337,3.337-3.337,8.73,0,12.066
				c6.366,6.366,9.873,14.831,9.873,23.834c0,9.003-3.507,17.468-9.873,23.834C345.189,186.064,345.189,191.457,348.525,194.793z"/>
			<path d="M372.612,361.439c-10.428,10.436-17.553,24.875-24.44,38.852c-0.956,1.929-1.877,3.738-2.816,5.598
				c36.608-5.282,65.792-34.082,71.578-70.519c-2.884,1.408-5.786,2.782-8.653,4.122
				C395.686,345.345,382.656,351.404,372.612,361.439z"/>
			<path d="M401.087,324.014c4.386-2.039,8.508-4.045,12.467-6.101l-34.91-34.918c-23.287-23.279-61.184-23.279-84.471,0
				c-23.287,23.296-23.287,61.193,0,84.489l34.21,34.21c1.476-2.884,2.953-5.862,4.48-8.951
				c7.151-14.507,15.258-30.942,27.682-43.366C372.722,337.198,387.792,330.2,401.087,324.014z"/>
			<path d="M414.853,246.794c-43.255-43.247-113.638-43.247-156.885,0c-43.247,43.255-43.247,113.638,0.128,157.013l111.471,106.786
				c1.587,1.528,3.703,2.381,5.896,2.381h128c4.719,0,8.533-3.814,8.533-8.533V351.088c0-2.21-0.853-4.335-2.381-5.914
				L414.853,246.794z M434.821,328.901c-3.371,50.637-44.109,91.375-94.754,94.754c-0.64,0.043-1.289,0.068-1.929,0.068
				c-7.569,0-14.865-3.012-20.267-8.414l-35.763-35.763c-29.943-29.943-29.943-78.677,0-108.612
				c29.935-29.952,78.66-29.952,108.604,0l35.772,35.772C432.338,312.543,435.376,320.641,434.821,328.901z"/>
		</g>
	</g>
</g>
<g>
</g>
<g>
</g>
<g>
</g>
<g>
</g>
<g>
</g>
<g>
</g>
<g>
</g>
<g>
</g>
<g>
</g>
<g>
</g>
<g>
</g>
<g>
</g>
<g>
</g>
<g>
</g>
<g>
</g>
</svg>
