<?xml version="1.0" encoding="iso-8859-1"?>
<!-- Generator: Adobe Illustrator 19.0.0, SVG Export Plug-In . SVG Version: 6.00 Build 0)  -->
<svg version="1.1" id="Layer_1" xmlns="http://www.w3.org/2000/svg" xmlns:xlink="http://www.w3.org/1999/xlink" x="0px" y="0px"
	 viewBox="0 0 512 512" style="enable-background:new 0 0 512 512;" xml:space="preserve">
<g transform="translate(-1 -1)">
	<g>
		<g>
			<path d="M223.127,43.667c4.71,0,8.533-3.823,8.533-8.533v-25.6c0-4.71-3.823-8.533-8.533-8.533c-4.71,0-8.533,3.823-8.533,8.533
				v25.6C214.594,39.844,218.417,43.667,223.127,43.667z"/>
			<path d="M129.872,103.4h25.429c4.719,0,8.533-3.823,8.533-8.533s-3.814-8.533-8.533-8.533h-25.429
				c-4.71,0-8.533,3.823-8.533,8.533S125.162,103.4,129.872,103.4z"/>
			<path d="M273.936,94.867c0,4.71,3.823,8.533,8.533,8.533h25.429c4.719,0,8.533-3.823,8.533-8.533s-3.814-8.533-8.533-8.533
				h-25.429C277.759,86.333,273.936,90.156,273.936,94.867z"/>
			<path d="M265.515,60.733c2.193,0,4.386-0.845,6.05-2.517l16.956-17.067c3.319-3.345,3.302-8.747-0.043-12.066
				c-3.328-3.319-8.738-3.302-12.066,0.034l-16.947,17.067c-3.328,3.345-3.311,8.747,0.034,12.066
				C261.163,59.906,263.339,60.733,265.515,60.733z"/>
			<path d="M166.207,58.213c1.664,1.681,3.866,2.517,6.05,2.517c2.176,0,4.352-0.819,6.016-2.475
				c3.345-3.319,3.362-8.73,0.043-12.066L161.36,29.122c-3.328-3.354-8.73-3.371-12.066-0.043
				c-3.345,3.319-3.362,8.721-0.043,12.066L166.207,58.213z"/>
			<path d="M397.835,231.4c-7.885,0-15.232,2.389-21.333,6.485v-2.219c0-21.171-17.229-38.4-38.4-38.4
				c-7.885,0-15.232,2.389-21.333,6.485v-2.219c0-21.171-17.229-38.4-38.4-38.4c-7.859,0-15.181,2.372-21.282,6.451V99.995
				c0-21.649-17.135-39.262-38.212-39.262c-21.069,0-38.212,17.613-38.212,39.262l0.017,168.653
				c-18.142-26.274-53.99-39.322-81.391-28.629c-4.267,1.664-7.936,4.028-10.325,5.666c-11.529,7.91-11.213,17.579-10.999,20.958
				c-0.768,4.463,0.29,5.734,10.436,17.86c13.065,15.633,40.252,48.154,57.54,80.324c0.546,0.87,8.747,13.764,20.309,29.414
				c1.306,0.512,2.526,1.22,3.482,2.372c3.516,4.232,23.04,17.698,34.705,25.737c9.011,6.212,16.12,11.119,19.422,13.867
				c3.618,3.021,4.105,8.405,1.092,12.023c-1.69,2.022-4.113,3.072-6.562,3.072c-1.929,0-3.857-0.657-5.453-1.98
				c-2.714-2.261-10.231-7.441-18.185-12.928c-2.039-1.408-3.994-2.765-5.914-4.096l-0.068,12.527
				c0,40.132,31.556,68.164,76.749,68.164h76.297c35.388,0,63.667-20.744,70.357-51.627c0.717-3.302,1.468-6.025,2.21-8.337
				c-12.015,4.301-23.142,7.398-27.128,8.474c-0.742,0.196-1.493,0.29-2.219,0.29c-3.772,0-7.219-2.509-8.243-6.315
				c-1.22-4.557,1.476-9.233,6.025-10.462c16.657-4.471,33.698-10.633,44.416-15.718c4.975-11.127,9.003-26.778,9.003-45.995V269.8
				C436.235,248.629,419.007,231.4,397.835,231.4z"/>
		</g>
	</g>
</g>
<g>
</g>
<g>
</g>
<g>
</g>
<g>
</g>
<g>
</g>
<g>
</g>
<g>
</g>
<g>
</g>
<g>
</g>
<g>
</g>
<g>
</g>
<g>
</g>
<g>
</g>
<g>
</g>
<g>
</g>
</svg>
