<?xml version="1.0" encoding="iso-8859-1"?>
<!-- Generator: Adobe Illustrator 19.0.0, SVG Export Plug-In . SVG Version: 6.00 Build 0)  -->
<svg version="1.1" id="Layer_1" xmlns="http://www.w3.org/2000/svg" xmlns:xlink="http://www.w3.org/1999/xlink" x="0px" y="0px"
	 viewBox="0 0 512.028 512.028" style="enable-background:new 0 0 512.028 512.028;" xml:space="preserve">
<g transform="translate(0 -1)">
	<g>
		<g>
			<path d="M162.175,53.978c8.081-8.09,8.081-21.265,0-29.355L144.622,7.07c-8.09-8.09-21.257-8.098-29.355,0L99.463,22.874
				l46.908,46.908L162.175,53.978z"/>
			<polygon points="87.394,34.941 20.041,102.295 2.445,166.798 66.949,149.194 134.302,81.849 			"/>
			<path d="M466.916,180.228c-9.6,0-18.466,3.191-25.6,8.55v-8.55c0-23.526-19.14-42.667-42.667-42.667
				c-9.6,0-18.466,3.191-25.6,8.55v-0.017c0-23.526-19.14-42.667-42.667-42.667c-9.6,0-18.466,3.191-25.6,8.55V43.695
				c0-23.526-19.14-42.667-42.667-42.667c-23.526,0-42.667,19.14-42.667,42.667v194.347c-19.029-32.41-62.66-49.323-95.514-36.949
				c-4.796,1.809-8.917,4.378-11.597,6.161c-12.8,8.474-12.45,18.901-12.22,22.69c-0.819,4.634,0.137,5.734,11.802,19.217
				c15.044,17.391,46.362,53.564,66.133,89.139c0.751,1.212,13.747,22.221,30.857,44.356c6.289,3.482,12.749,7.014,18.799,10.325
				c26.274,14.362,42.641,23.415,48.358,28.126c3.644,2.995,4.164,8.371,1.169,12.006c-1.69,2.048-4.13,3.115-6.588,3.115
				c-1.911,0-3.831-0.64-5.419-1.946c-4.181-3.439-20.617-12.587-37.248-21.7v15.198c0,47.01,38.238,85.248,85.248,85.248h85.419
				c36.983,0,75.119-30.686,83.277-67.021c2.236-9.958,5.257-17.51,8.508-21.257c0.452-0.529,0.922-1.229,1.382-1.826
				c-21.606,7.774-39.39,12.919-39.825,13.03c-0.717,0.188-1.434,0.273-2.142,0.273c-3.797,0-7.262-2.543-8.26-6.391
				c-1.186-4.557,1.553-9.216,6.118-10.402c13.781-3.576,35.447-11,55.569-19.081c3.703-11.093,6.306-24.909,6.306-40.926V222.895
				C509.583,199.368,490.443,180.228,466.916,180.228z"/>
		</g>
	</g>
</g>
<g>
</g>
<g>
</g>
<g>
</g>
<g>
</g>
<g>
</g>
<g>
</g>
<g>
</g>
<g>
</g>
<g>
</g>
<g>
</g>
<g>
</g>
<g>
</g>
<g>
</g>
<g>
</g>
<g>
</g>
</svg>
