<?xml version="1.0" encoding="iso-8859-1"?>
<!-- Generator: Adobe Illustrator 19.0.0, SVG Export Plug-In . SVG Version: 6.00 Build 0)  -->
<svg version="1.1" id="Layer_1" xmlns="http://www.w3.org/2000/svg" xmlns:xlink="http://www.w3.org/1999/xlink" x="0px" y="0px"
	 viewBox="0 0 503.691 503.691" style="enable-background:new 0 0 503.691 503.691;" xml:space="preserve">
<g transform="translate(0 -1)">
	<g>
		<g>
			<path d="M125.902,101.764c-2.149,0-4.297-0.823-5.934-2.459l-27.64-27.64v97.246h75.541V1.042H0v167.869h75.541V71.665
				l-27.64,27.64c-3.282,3.282-8.586,3.282-11.868,0c-3.282-3.282-3.282-8.587,0-11.868l47.901-47.901l47.901,47.901
				c3.282,3.282,3.282,8.586,0,11.868C130.199,100.941,128.05,101.764,125.902,101.764z"/>
			<path d="M461.724,177.305c-9.443,0-18.163,3.139-25.18,8.41v-8.41c0-23.141-18.826-41.967-41.967-41.967
				c-9.443,0-18.163,3.139-25.18,8.41v-0.017c0-23.141-18.826-41.967-41.967-41.967c-9.443,0-18.163,3.139-25.18,8.41V43.01
				c0-23.141-18.826-41.967-41.967-41.967s-41.967,18.827-41.967,41.967V234.17c-18.717-31.878-61.633-48.514-93.948-36.344
				c-4.717,1.779-8.771,4.306-11.407,6.06c-12.59,8.335-12.246,18.591-12.019,22.318c-0.806,4.558,0.134,5.64,11.608,18.902
				c14.798,17.106,45.602,52.686,65.049,87.678c0.739,1.192,13.522,21.857,30.351,43.629c6.186,3.425,12.54,6.899,18.491,10.156
				c25.843,14.126,41.942,23.032,47.566,27.665c3.584,2.946,4.096,8.234,1.15,11.81c-1.662,2.014-4.062,3.064-6.48,3.064
				c-1.88,0-3.769-0.63-5.33-1.914c-4.113-3.383-20.279-12.38-36.637-21.344v14.949c0,46.239,37.611,83.85,83.851,83.85h84.018
				c36.377,0,73.887-30.183,81.912-65.922c2.199-9.795,5.17-17.223,8.368-20.908c0.445-0.52,0.906-1.209,1.36-1.796
				c-21.252,7.646-38.744,12.708-39.172,12.817c-0.705,0.185-1.41,0.269-2.107,0.269c-3.735,0-7.143-2.501-8.125-6.287
				c-1.167-4.482,1.528-9.065,6.018-10.232c13.555-3.517,34.866-10.819,54.658-18.768c3.643-10.911,6.203-24.5,6.203-40.255V219.272
				C503.691,196.131,484.865,177.305,461.724,177.305z"/>
		</g>
	</g>
</g>
<g>
</g>
<g>
</g>
<g>
</g>
<g>
</g>
<g>
</g>
<g>
</g>
<g>
</g>
<g>
</g>
<g>
</g>
<g>
</g>
<g>
</g>
<g>
</g>
<g>
</g>
<g>
</g>
<g>
</g>
</svg>
