<?xml version="1.0" encoding="iso-8859-1"?>
<!-- Generator: Adobe Illustrator 19.0.0, SVG Export Plug-In . SVG Version: 6.00 Build 0)  -->
<svg version="1.1" id="Layer_1" xmlns="http://www.w3.org/2000/svg" xmlns:xlink="http://www.w3.org/1999/xlink" x="0px" y="0px"
	 viewBox="0 0 512.001 512.001" style="enable-background:new 0 0 512.001 512.001;" xml:space="preserve">
<g transform="translate(0 -1)">
	<g>
		<g>
			<path d="M511.586,342.155l-0.026-119.287c0-20.139-16.427-42.667-38.409-42.667c-8.081,0-15.317,2.935-21.265,7.62l0.009-7.62
				c0-20.19-16.427-42.769-38.409-42.769c-8.055,0-15.369,3.038-21.402,7.876c-0.401-19.942-16.691-41.907-38.4-41.907
				c-8.021,0-15.309,3.012-21.325,7.799V43.667c0-20.139-16.427-42.667-38.409-42.667c-21.973,0-38.391,22.528-38.391,42.667
				v180.685c-7.706-15.838-17.468-31.01-28.109-41.651c-13.841-13.833-41.105-14.788-56.09-2.022
				c-4.881,4.156-19.268,19.84,0.478,47.181c18.304,25.378,32.512,82.372,32.512,114.475c0,68.181,44.382,98.978,59.785,107.605
				v54.528c0,4.719,3.814,8.533,8.533,8.533h204.8c4.71,0,8.525-3.814,8.533-8.525l0.06-57.037
				C511.723,413.084,511.714,409.031,511.586,342.155z M358.003,419.134h25.6c4.719,0,8.533,3.814,8.533,8.533
				c0,4.719-3.814,8.533-8.533,8.533h-25.6c-4.719,0-8.533-3.814-8.533-8.533C349.47,422.949,353.284,419.134,358.003,419.134z
				 M392.137,470.334H349.47c-4.719,0-8.533-3.814-8.533-8.533s3.814-8.533,8.533-8.533h42.667c4.719,0,8.533,3.814,8.533,8.533
				S396.856,470.334,392.137,470.334z"/>
			<path d="M202.27,76.964c2.893-11.648,2.108-19.174,1.766-21.376c-3.055-31.138-28.194-54.579-58.581-54.579
				c-18.56,0-34.185,10.974-44.271,24.508C91.089,11.982,75.465,1,56.913,1C26.953,1,3.896,23.434,0.755,55.588
				c-0.341,2.185-1.118,9.719,1.766,21.376c4.292,17.254,14.14,32.93,28.527,45.329l64.845,55.484
				c1.877,1.621,4.181,2.44,6.494,2.44c2.295,0,4.599-0.802,6.485-2.406l64.887-55.535
				C188.122,109.902,197.978,94.235,202.27,76.964z"/>
		</g>
	</g>
</g>
<g>
</g>
<g>
</g>
<g>
</g>
<g>
</g>
<g>
</g>
<g>
</g>
<g>
</g>
<g>
</g>
<g>
</g>
<g>
</g>
<g>
</g>
<g>
</g>
<g>
</g>
<g>
</g>
<g>
</g>
</svg>
