<?xml version="1.0" encoding="iso-8859-1"?>
<!-- Generator: Adobe Illustrator 19.0.0, SVG Export Plug-In . SVG Version: 6.00 Build 0)  -->
<svg version="1.1" id="Layer_1" xmlns="http://www.w3.org/2000/svg" xmlns:xlink="http://www.w3.org/1999/xlink" x="0px" y="0px"
	 viewBox="0 0 512 512" style="enable-background:new 0 0 512 512;" xml:space="preserve">
<g transform="translate(0 -1)">
	<g>
		<g>
			<path d="M294.4,120.469c-42.342,0-76.8,34.449-76.8,76.8v76.8h153.6v-76.8C371.2,154.918,336.742,120.469,294.4,120.469z"/>
			<path d="M294.4,1c-66.526,0-128.725,32.358-167.159,86.63c-11.136-6.229-23.962-9.83-37.641-9.83
				c-42.342,0-76.8,34.082-76.8,75.964s34.458,75.955,76.8,75.955c0.512,0,1.007-0.068,1.51-0.077
				c6.221,53.248,33.314,102.204,75.29,135.902V385c0,70.588,57.421,128,128,128s128-57.412,128-128v-19.473
				c48.828-39.125,76.8-97.058,76.8-159.727C499.2,92.878,407.33,1,294.4,1z M55.467,163.133c-4.71,0-8.533-3.814-8.533-8.533
				c0-4.71,3.823-8.533,8.533-8.533h68.267c4.71,0,8.533,3.823,8.533,8.533c0,4.719-3.823,8.533-8.533,8.533H55.467z
				 M379.733,402.067H209.067c-4.71,0-8.533-3.814-8.533-8.533c0-4.71,3.823-8.533,8.533-8.533h170.667
				c4.71,0,8.533,3.823,8.533,8.533C388.267,398.252,384.444,402.067,379.733,402.067z M379.733,367.933H209.067
				c-4.71,0-8.533-3.814-8.533-8.533c0-4.71,3.823-8.533,8.533-8.533h170.667c4.71,0,8.533,3.823,8.533,8.533
				C388.267,364.119,384.444,367.933,379.733,367.933z M388.267,291.133H200.533v-93.867c0-51.755,42.112-93.867,93.867-93.867
				c51.755,0,93.867,42.112,93.867,93.867V291.133z M422.4,343.007V197.267c0-70.579-57.421-128-128-128s-128,57.421-128,128
				v145.741c-32.452-30.327-53.316-71.347-58.419-115.558c0.154-0.043,0.299-0.094,0.452-0.137
				c24.636-6.178,44.518-24.115,53.188-47.428c0.205-0.538,0.401-1.058,0.589-1.596c0.486-1.391,0.922-2.799,1.323-4.233
				c0.256-0.904,0.486-1.809,0.708-2.722c0.29-1.22,0.58-2.432,0.811-3.669c0.247-1.297,0.427-2.603,0.606-3.917
				c0.128-0.956,0.29-1.903,0.375-2.876c0.23-2.347,0.367-4.71,0.367-7.108c0-2.662-0.145-5.282-0.418-7.868
				c-0.137-1.314-0.393-2.594-0.597-3.883c-0.196-1.246-0.341-2.5-0.597-3.721c-0.341-1.63-0.802-3.217-1.254-4.813
				c-0.23-0.836-0.418-1.69-0.683-2.517c-0.521-1.664-1.169-3.277-1.809-4.89c-0.29-0.725-0.538-1.468-0.845-2.185
				c-0.674-1.536-1.434-3.021-2.202-4.514c-0.401-0.768-0.768-1.553-1.195-2.304c-0.742-1.314-1.553-2.586-2.372-3.857
				c-0.589-0.913-1.161-1.835-1.783-2.714c-0.734-1.041-1.519-2.048-2.313-3.055c-0.862-1.101-1.732-2.185-2.654-3.234
				c-0.657-0.751-1.331-1.468-2.014-2.193c-1.22-1.289-2.475-2.534-3.78-3.738c-0.282-0.256-0.521-0.538-0.802-0.794
				c35.234-49.783,92.314-79.42,153.318-79.42c103.518,0,187.733,84.224,187.733,187.733
				C482.133,258.51,460.536,307.56,422.4,343.007z"/>
		</g>
	</g>
</g>
<g>
</g>
<g>
</g>
<g>
</g>
<g>
</g>
<g>
</g>
<g>
</g>
<g>
</g>
<g>
</g>
<g>
</g>
<g>
</g>
<g>
</g>
<g>
</g>
<g>
</g>
<g>
</g>
<g>
</g>
</svg>
