<?xml version="1.0" encoding="iso-8859-1"?>
<!-- Generator: Adobe Illustrator 19.0.0, SVG Export Plug-In . SVG Version: 6.00 Build 0)  -->
<svg version="1.1" id="Layer_1" xmlns="http://www.w3.org/2000/svg" xmlns:xlink="http://www.w3.org/1999/xlink" x="0px" y="0px"
	 viewBox="0 0 512 512" style="enable-background:new 0 0 512 512;" xml:space="preserve">
<g transform="translate(0 -1)">
	<g>
		<g>
			<path d="M511.983,342.154l-0.026-119.287c0-20.139-16.427-42.667-38.409-42.667c-8.081,0-15.317,2.935-21.265,7.62l0.009-7.62
				c0-20.19-16.427-42.769-38.409-42.769c-8.055,0-15.369,3.038-21.393,7.868c-0.41-19.942-16.7-41.899-38.409-41.899
				c-8.021,0-15.309,3.012-21.316,7.799V43.667C332.766,23.528,316.331,1,294.349,1c-21.973,0-38.383,22.528-38.383,42.667v180.702
				c-7.714-15.846-17.476-31.027-28.117-41.668c-13.833-13.815-41.088-14.805-56.098-2.022c-4.873,4.156-19.26,19.84,0.478,47.181
				c18.313,25.378,32.521,82.364,32.521,114.475c0,68.181,44.39,98.978,59.785,107.605v54.528c0,4.719,3.823,8.533,8.533,8.533
				h204.8c4.71,0,8.525-3.814,8.533-8.525l0.06-57.037C512.12,413.083,512.111,409.03,511.983,342.154z M358.4,419.133H384
				c4.71,0,8.533,3.814,8.533,8.533c0,4.719-3.823,8.533-8.533,8.533h-25.6c-4.71,0-8.533-3.814-8.533-8.533
				C349.867,422.948,353.69,419.133,358.4,419.133z M392.534,470.333h-42.667c-4.71,0-8.533-3.814-8.533-8.533
				s3.823-8.533,8.533-8.533h42.667c4.71,0,8.533,3.814,8.533,8.533S397.244,470.333,392.534,470.333z"/>
			<path d="M170.667,1.03h-76.8v98.867l28.1-28.1c3.337-3.337,8.73-3.337,12.066,0c3.337,3.336,3.337,8.73,0,12.066l-48.7,48.7
				l-48.7-48.7c-3.337-3.337-3.337-8.73,0-12.066c3.337-3.337,8.73-3.337,12.066,0l28.1,28.1V1.03H0v170.667h170.667V1.03z"/>
		</g>
	</g>
</g>
<g>
</g>
<g>
</g>
<g>
</g>
<g>
</g>
<g>
</g>
<g>
</g>
<g>
</g>
<g>
</g>
<g>
</g>
<g>
</g>
<g>
</g>
<g>
</g>
<g>
</g>
<g>
</g>
<g>
</g>
</svg>
