<?xml version="1.0" encoding="iso-8859-1"?>
<!-- Generator: Adobe Illustrator 19.0.0, SVG Export Plug-In . SVG Version: 6.00 Build 0)  -->
<svg version="1.1" id="Layer_1" xmlns="http://www.w3.org/2000/svg" xmlns:xlink="http://www.w3.org/1999/xlink" x="0px" y="0px"
	 viewBox="0 0 511.997 511.997" style="enable-background:new 0 0 511.997 511.997;" xml:space="preserve">
<g transform="translate(0 -1)">
	<g>
		<g>
			<path d="M114.046,201.567c1.067,0,2.15-0.205,3.2-0.631c4.369-1.766,6.477-6.741,4.702-11.11
				c-5.137-12.689-5.794-25.498-5.794-35.243c0-47.471,35.507-87.535,82.594-93.193c2.483-0.299,4.71-1.673,6.093-3.746
				c16.981-25.523,43.068-39.578,73.446-39.578c51.755,0,93.867,42.103,93.867,93.867c0,12.732-2.185,24.576-6.485,35.209
				c-1.766,4.369,0.35,9.344,4.719,11.11c4.378,1.758,9.336-0.35,11.11-4.71c5.12-12.672,7.723-26.675,7.723-41.609
				C389.221,50.758,339.454,1,278.287,1c-34.458,0-65.382,15.974-85.444,43.981c-53.717,8.363-93.756,54.81-93.756,109.602
				c0,11.29,0.794,26.232,7.049,41.651C107.476,199.554,110.667,201.567,114.046,201.567z"/>
			<path d="M338.734,145.439c4.386,1.775,9.344-0.341,11.11-4.702c3.473-8.585,5.239-18.278,5.239-28.809
				c0-42.342-34.458-76.8-76.8-76.8c-28.356,0-52.395,15.838-65.28,42.667l-2.987-0.009c-42.342,0-76.8,34.449-76.8,76.8
				c0,8.695,0.538,18.918,4.548,28.809c1.34,3.32,4.531,5.342,7.91,5.342c1.058,0,2.15-0.205,3.191-0.631
				c4.378-1.766,6.485-6.741,4.71-11.11c-2.304-5.709-3.294-12.416-3.294-22.409c0-32.939,26.786-59.725,60.536-59.725h0.008
				c1.809,0.026,3.584,0.017,5.359,0.009l2.372-0.009c3.482,0,6.605-2.108,7.91-5.333c9.6-23.723,28.484-37.333,51.814-37.333
				c32.939,0,59.733,26.795,59.733,59.733c0,8.328-1.34,15.863-3.985,22.4C332.257,138.697,334.365,143.672,338.734,145.439z"/>
			<path d="M397.396,231.397c-7.885,0-15.232,2.389-21.333,6.485V227.13c0-21.171-17.229-38.4-38.4-38.4
				c-7.885,0-15.232,2.389-21.333,6.485v-87.552c0-21.171-17.229-38.4-38.4-38.4c-21.171,0-38.4,17.229-38.4,38.4v9.378
				c-5.914-3.166-13.15-4.915-21.342-4.915c-22.963,0-38.391,13.722-38.391,34.133v131.191
				c-18.031-26.982-54.204-48.213-81.946-37.444c-4.292,1.664-7.979,4.028-10.385,5.666c-11.588,7.902-11.281,17.579-11.068,20.966
				c-0.768,4.48,0.299,5.751,10.505,17.877c13.15,15.633,40.525,48.154,57.95,80.367c0.674,1.05,12.817,19.797,28.527,39.706
				c3.371,1.69,6.682,3.354,9.822,4.924c29.184,14.583,47.334,23.782,53.214,28.629c3.644,2.995,4.164,8.371,1.169,12.006
				c-1.69,2.048-4.13,3.115-6.588,3.115c-1.911,0-3.831-0.64-5.419-1.946c-3.866-3.183-20.079-11.529-37.265-20.164v13.577
				c0,20.719,8.081,38.272,23.364,50.773c13.798,11.281,32.785,17.493,53.453,17.493h76.8c35.593,0,64.026-20.744,70.767-51.618
				c0.939-4.292,1.929-7.654,2.901-10.325c-12.279,5.231-23.305,8.986-28.8,10.453c-0.742,0.196-1.476,0.29-2.202,0.29
				c-3.772,0-7.228-2.517-8.243-6.332c-1.22-4.548,1.485-9.233,6.042-10.445c11.716-3.132,30.891-10.795,46.498-19.14
				c3.917-10.658,6.903-24.969,6.903-42.573v-113.51C435.796,248.625,418.568,231.397,397.396,231.397z"/>
		</g>
	</g>
</g>
<g>
</g>
<g>
</g>
<g>
</g>
<g>
</g>
<g>
</g>
<g>
</g>
<g>
</g>
<g>
</g>
<g>
</g>
<g>
</g>
<g>
</g>
<g>
</g>
<g>
</g>
<g>
</g>
<g>
</g>
</svg>
