<?xml version="1.0" encoding="iso-8859-1"?>
<!-- Generator: Adobe Illustrator 19.0.0, SVG Export Plug-In . SVG Version: 6.00 Build 0)  -->
<svg version="1.1" id="Layer_1" xmlns="http://www.w3.org/2000/svg" xmlns:xlink="http://www.w3.org/1999/xlink" x="0px" y="0px"
	 viewBox="0 0 512 512" style="enable-background:new 0 0 512 512;" xml:space="preserve">
<g transform="translate(0 -1)">
	<g>
		<g>
			<path d="M103.223,60.733c-14.114,0-25.6,11.486-25.6,25.6s11.486,25.6,25.6,25.6s25.6-11.486,25.6-25.6
				S117.338,60.733,103.223,60.733z"/>
			<path d="M199.974,95.771l3.055-4.668l-3.055-4.676c-24.474-37.385-59.742-58.829-96.742-58.829S30.963,49.043,6.49,86.427
				l-3.055,4.676l3.055,4.668c24.474,37.385,59.742,58.829,96.742,58.829S175.501,133.156,199.974,95.771z M60.557,86.333
				c0-23.526,19.14-42.667,42.667-42.667c23.526,0,42.667,19.14,42.667,42.667c0,23.526-19.14,42.667-42.667,42.667
				C79.697,129,60.557,109.86,60.557,86.333z"/>
			<path d="M303.765,120.467c-42.342,0-76.8,34.449-76.8,76.8v76.8h153.6v-76.8C380.565,154.916,346.108,120.467,303.765,120.467z"
				/>
			<path d="M303.765,1C262.327,1,222.4,13.314,188.309,36.627c-3.891,2.654-4.898,7.962-2.227,11.853
				c2.662,3.9,7.97,4.898,11.861,2.227c31.24-21.35,67.831-32.64,105.822-32.64c103.518,0,187.733,84.215,187.733,187.733
				c0,52.745-21.598,101.811-59.733,137.259V197.267c0-70.579-57.421-128-128-128s-128,57.421-128,128v145.792
				c-38.135-35.447-59.733-84.514-59.733-137.259c0-8.175,0.529-16.418,1.587-24.499c0.614-4.668-2.688-8.951-7.364-9.557
				c-4.71-0.691-8.951,2.679-9.557,7.356c-1.152,8.798-1.732,17.792-1.732,26.701c0,62.712,27.972,120.67,76.8,159.787V385
				c0,70.579,57.421,128,128,128s128-57.421,128-128v-19.413c48.828-39.134,76.8-97.084,76.8-159.787
				C508.565,92.878,416.687,1,303.765,1z M389.099,402.067H218.432c-4.71,0-8.533-3.814-8.533-8.533s3.823-8.533,8.533-8.533
				h170.667c4.71,0,8.533,3.814,8.533,8.533S393.809,402.067,389.099,402.067z M389.099,367.933H218.432
				c-4.71,0-8.533-3.814-8.533-8.533c0-4.719,3.823-8.533,8.533-8.533h170.667c4.71,0,8.533,3.814,8.533,8.533
				C397.632,364.119,393.809,367.933,389.099,367.933z M397.632,291.133H209.899v-93.867c0-51.755,42.112-93.867,93.867-93.867
				c51.755,0,93.867,42.112,93.867,93.867V291.133z"/>
		</g>
	</g>
</g>
<g>
</g>
<g>
</g>
<g>
</g>
<g>
</g>
<g>
</g>
<g>
</g>
<g>
</g>
<g>
</g>
<g>
</g>
<g>
</g>
<g>
</g>
<g>
</g>
<g>
</g>
<g>
</g>
<g>
</g>
</svg>
