<?xml version="1.0" encoding="iso-8859-1"?>
<!-- Generator: Adobe Illustrator 19.0.0, SVG Export Plug-In . SVG Version: 6.00 Build 0)  -->
<svg version="1.1" id="Layer_1" xmlns="http://www.w3.org/2000/svg" xmlns:xlink="http://www.w3.org/1999/xlink" x="0px" y="0px"
	 viewBox="0 0 511.997 511.997" style="enable-background:new 0 0 511.997 511.997;" xml:space="preserve">
<g transform="translate(-1 -1)">
	<g>
		<g>
			<path d="M129.765,193.213c4.045-2.423,5.342-7.671,2.918-11.708c-7.97-13.269-12.186-28.467-12.186-43.972
				c0-47.061,38.272-85.333,85.333-85.333c1.331,0,2.679,0.026,4.011,0.094c2.671,0.102,5.265-1.007,6.98-3.081
				c16.41-19.797,40.397-31.147,65.809-31.147c25.489,0,49.502,11.349,65.877,31.138c1.707,2.057,4.181,3.115,6.972,3.081
				c1.306-0.06,2.628-0.085,3.951-0.085c47.053,0,85.333,38.272,85.333,85.333c0,12.783-2.773,25.088-8.235,36.591
				c-1.186,2.517-2.526,4.992-3.977,7.39c-2.423,4.036-1.118,9.284,2.918,11.708c1.374,0.836,2.893,1.229,4.386,1.229
				c2.901,0,5.726-1.476,7.322-4.139c1.741-2.893,3.354-5.871,4.77-8.883c6.554-13.79,9.882-28.561,9.882-43.895
				c0-56.465-45.943-102.4-102.4-102.4h-0.521C339.395,13.39,311.824,1,282.631,1c-29.116,0-56.653,12.382-76.194,34.133h-0.606
				c-56.465,0-102.4,45.935-102.4,102.4c0,18.594,5.052,36.847,14.626,52.762C120.481,194.331,125.729,195.645,129.765,193.213z"/>
			<path d="M403.32,163.91c-2.432,4.036-1.126,9.276,2.91,11.716c1.374,0.828,2.893,1.22,4.395,1.22
				c2.893,0,5.717-1.476,7.322-4.139c1.152-1.911,2.219-3.891,3.174-5.914c4.361-9.182,6.571-19.029,6.571-29.261
				c0-37.641-30.618-68.267-68.267-68.267c-5.589,0-11.145,0.674-16.546,2.022c-11.785-22.067-35.098-36.156-60.254-36.156
				c-25.096,0-48.367,14.037-60.245,36.156c-5.385-1.348-10.94-2.022-16.555-2.022c-37.641,0-68.267,30.626-68.267,68.267
				c0,12.416,3.371,24.585,9.754,35.174c2.432,4.028,7.663,5.342,11.716,2.901c4.036-2.432,5.333-7.672,2.901-11.708
				c-4.779-7.936-7.305-17.058-7.305-26.368c0-28.237,22.972-51.2,51.2-51.2c4.992,0,9.907,0.708,14.626,2.116l0.094,0.026
				c0.905,0.265,1.801,0.563,2.688,0.888c2.782,1.34,6.17,1.101,8.755-0.742c1.621-1.152,2.756-2.816,3.268-4.659
				c0.478-1.143,1.101-2.509,1.101-2.509c8.439-17.775,26.607-29.252,46.268-29.252c19.686,0,37.854,11.494,46.285,29.261
				c0.504,1.075,0.981,2.159,1.604,3.712c1.86,4.096,6.596,6.05,10.778,4.454c1.152-0.427,2.321-0.828,3.499-1.178
				c4.736-1.408,9.66-2.116,14.635-2.116c28.237,0,51.2,22.963,51.2,51.2c0,7.68-1.655,15.061-4.924,21.948
				C404.975,161,404.182,162.476,403.32,163.91z"/>
			<path d="M419.161,205.797c-9.6,0-18.466,3.191-25.6,8.55v-68.284c0-23.526-19.14-42.667-42.667-42.667
				c-9.6,0-18.466,3.191-25.6,8.55v-0.017c0-23.526-19.14-42.667-42.667-42.667c-23.526,0-42.667,19.14-42.667,42.667v0.017
				c-7.134-5.359-16-8.55-25.6-8.55c-23.526,0-42.667,19.14-42.667,42.667v109.013c-19.029-32.41-62.66-49.314-95.514-36.949
				c-4.796,1.809-8.917,4.378-11.597,6.161c-12.8,8.474-12.45,18.901-12.22,22.69c-0.879,4.966,0.888,6.733,10.709,16.521
				c15.241,15.198,46.942,46.814,67.226,83.302c0.802,1.297,15.599,25.207,34.449,48.939c6.067,3.089,12.331,6.229,18.185,9.156
				c24.32,12.143,39.501,19.866,45.38,24.713c3.644,2.995,4.164,8.371,1.169,12.006c-1.69,2.048-4.13,3.115-6.588,3.115
				c-1.911,0-3.831-0.64-5.419-1.946c-4.378-3.601-21.103-12.092-37.248-20.164v13.662c0,44.45,35.857,76.715,85.248,76.715h85.419
				c34.859,0,74.658-20.087,83.277-58.487c1.459-6.511,3.277-11.861,5.257-15.923c-13.679,6.613-26.795,12.22-35.191,14.404
				c-0.717,0.188-1.434,0.273-2.142,0.273c-3.797,0-7.262-2.543-8.26-6.391c-1.186-4.557,1.553-9.216,6.118-10.402
				c11.691-3.038,35.191-14.345,54.46-24.695c4.267-11.563,7.415-26.334,7.415-43.844V248.463
				C461.828,224.937,442.688,205.797,419.161,205.797z"/>
		</g>
	</g>
</g>
<g>
</g>
<g>
</g>
<g>
</g>
<g>
</g>
<g>
</g>
<g>
</g>
<g>
</g>
<g>
</g>
<g>
</g>
<g>
</g>
<g>
</g>
<g>
</g>
<g>
</g>
<g>
</g>
<g>
</g>
</svg>
