<?xml version="1.0" encoding="iso-8859-1"?>
<!-- Generator: Adobe Illustrator 19.0.0, SVG Export Plug-In . SVG Version: 6.00 Build 0)  -->
<svg version="1.1" id="Layer_1" xmlns="http://www.w3.org/2000/svg" xmlns:xlink="http://www.w3.org/1999/xlink" x="0px" y="0px"
	 viewBox="0 0 512 512" style="enable-background:new 0 0 512 512;" xml:space="preserve">
<g transform="translate(0 -1)">
	<g>
		<g>
			<path d="M294.4,1c-45.534,0-88.653,14.635-124.672,42.325c-3.738,2.876-4.446,8.235-1.57,11.964
				c2.876,3.738,8.226,4.454,11.964,1.57c33.024-25.378,72.533-38.793,114.278-38.793c103.518,0,187.733,84.215,187.733,187.733
				c0,52.702-21.598,101.76-59.733,137.207V197.267c0-70.579-57.421-128-128-128s-128,57.421-128,128v145.664
				c-25.464-23.842-44.151-54.536-53.197-88.149c-1.229-4.548-5.922-7.262-10.462-6.025c-4.548,1.229-7.253,5.914-6.025,10.462
				c11.204,41.617,35.942,79.121,69.683,106.231V385c0,70.579,57.421,128,128,128s128-57.421,128-128v-19.473
				c48.828-39.125,76.8-97.067,76.8-159.727C499.2,92.878,407.322,1,294.4,1z M379.733,402.067H209.067
				c-4.71,0-8.533-3.814-8.533-8.533s3.823-8.533,8.533-8.533h170.667c4.71,0,8.533,3.814,8.533,8.533
				S384.444,402.067,379.733,402.067z M379.733,367.933H209.067c-4.71,0-8.533-3.814-8.533-8.533c0-4.719,3.823-8.533,8.533-8.533
				h170.667c4.71,0,8.533,3.814,8.533,8.533C388.267,364.119,384.444,367.933,379.733,367.933z M388.267,291.133H200.533v-93.867
				c0-51.755,42.112-93.867,93.867-93.867s93.867,42.112,93.867,93.867V291.133z"/>
			<path d="M294.4,120.467c-42.342,0-76.8,34.449-76.8,76.8v76.8h153.6v-76.8C371.2,154.916,336.742,120.467,294.4,120.467z"/>
			<path d="M132.267,222.867h8.533c4.719,0,8.533-3.814,8.533-8.533s-3.814-8.533-8.533-8.533h-8.533v-25.6
				c0-22.059-9.421-39.441-27.162-51.2c17.741-11.759,27.162-29.141,27.162-51.2V60.733h8.533c4.719,0,8.533-3.814,8.533-8.533
				s-3.814-8.533-8.533-8.533h-8.533h-5.905H34.458h-4.591h-8.533c-4.719,0-8.533,3.814-8.533,8.533s3.814,8.533,8.533,8.533h8.533
				V77.8c0,22.75,8.96,39.936,26.385,51.482c-16.171,11.947-26.385,30.814-26.385,50.918v25.6h-8.533
				c-4.719,0-8.533,3.814-8.533,8.533s3.814,8.533,8.533,8.533h8.533H38.4h87.962H132.267z M46.933,77.8V60.733H115.2V77.8
				c0,20.181-9.779,34.15-29.909,42.667h-9.745C56.03,112.189,46.933,98.596,46.933,77.8z M115.2,205.8H46.933v-25.6
				c0-18.185,11.443-35.132,28.621-42.667h9.737c20.13,8.516,29.909,22.485,29.909,42.667V205.8z"/>
		</g>
	</g>
</g>
<g>
</g>
<g>
</g>
<g>
</g>
<g>
</g>
<g>
</g>
<g>
</g>
<g>
</g>
<g>
</g>
<g>
</g>
<g>
</g>
<g>
</g>
<g>
</g>
<g>
</g>
<g>
</g>
<g>
</g>
</svg>
