<?xml version="1.0" encoding="iso-8859-1"?>
<!-- Generator: Adobe Illustrator 19.0.0, SVG Export Plug-In . SVG Version: 6.00 Build 0)  -->
<svg version="1.1" id="Layer_1" xmlns="http://www.w3.org/2000/svg" xmlns:xlink="http://www.w3.org/1999/xlink" x="0px" y="0px"
	 viewBox="0 0 512 512" style="enable-background:new 0 0 512 512;" xml:space="preserve">
<g>
	<g>
		<path d="M463.949,208.271c0-23.925-19.465-43.39-43.39-43.39c-10.101,0-19.404,3.463-26.789,9.277
			c-3.792-20.072-21.469-35.311-42.635-35.311c-10.162,0-19.291,4.426-26.529,10.821c-3.15-20.827-21.192-36.855-42.895-36.855
			c-17.998,0-32.178,8.86-38.981,23.023l-13.13-90.468C226.555,16.531,210.752,0,186.254,0c-12.869,0-25.487,5.484-33.731,14.666
			c-7.376,8.227-10.787,18.753-9.598,29.757l21.643,180.398c-21.261-27.96-61.336-41.62-92.073-30.043
			c-4.851,1.822-9.051,4.443-11.793,6.257c-13.017,8.626-12.661,19.23-12.427,23.083c-0.833,4.712,0.139,5.832,12.002,19.543
			c15.299,17.677,47.147,54.472,67.254,90.65c0.911,1.493,19.925,32.221,42.557,58.949c2.968,1.189,5.884,2.343,8.635,3.436
			c25.487,10.092,41.42,16.601,47.763,21.825c3.697,3.046,4.226,8.513,1.18,12.219c-1.718,2.083-4.2,3.159-6.699,3.159
			c-1.944,0-3.896-0.642-5.519-1.979c-3.671-3.02-17.486-8.843-31.518-14.475l11.359,34.104
			C207.342,487.702,241.047,512,279.169,512h72.695c37.61,0,76.401-31.215,84.68-68.148c1.319-5.866,2.924-10.769,4.66-14.718
			c-11.082,5.094-21.712,10.058-24.402,11.906c-1.501,1.033-3.211,1.536-4.912,1.536c-2.76,0-5.467-1.31-7.151-3.758
			c-2.725-3.948-1.727-9.346,2.222-12.062c4.322-2.985,15.889-8.322,34.408-16.783c4.27-1.944,9.233-4.217,14.353-6.587
			c4.669-12.01,8.227-28.056,8.227-47.59l-0.035-77.303c0.026-0.278,0.035-0.573,0.035-0.798V208.271z"/>
	</g>
</g>
<g>
</g>
<g>
</g>
<g>
</g>
<g>
</g>
<g>
</g>
<g>
</g>
<g>
</g>
<g>
</g>
<g>
</g>
<g>
</g>
<g>
</g>
<g>
</g>
<g>
</g>
<g>
</g>
<g>
</g>
</svg>
