<?xml version="1.0" encoding="iso-8859-1"?>
<!-- Generator: Adobe Illustrator 19.0.0, SVG Export Plug-In . SVG Version: 6.00 Build 0)  -->
<svg version="1.1" id="Layer_1" xmlns="http://www.w3.org/2000/svg" xmlns:xlink="http://www.w3.org/1999/xlink" x="0px" y="0px"
	 viewBox="0 0 512.003 512.003" style="enable-background:new 0 0 512.003 512.003;" xml:space="preserve">
<g transform="translate(0 -1)">
	<g>
		<g>
			<path d="M153.825,174.295c2.594-1.929,3.874-5.163,3.311-8.346l-9.429-52.924l39.962-37.538c2.389-2.244,3.285-5.675,2.287-8.798
				c-0.99-3.132-3.695-5.419-6.946-5.871l-55.629-7.791l-26.027-47.59C99.827,2.655,96.865,1.111,93.691,1
				c-3.174,0.068-6.059,1.894-7.467,4.745L62.766,53.062L7.351,60.819C4.1,61.271,1.395,63.558,0.405,66.69
				c-0.998,3.123-0.102,6.554,2.287,8.798l39.962,37.538l-9.421,52.924c-0.563,3.191,0.717,6.417,3.311,8.346
				c1.502,1.109,3.294,1.681,5.094,1.681c1.314,0,2.637-0.299,3.857-0.922l49.69-25.173l49.69,25.173
				C147.75,176.522,151.231,176.223,153.825,174.295z"/>
			<path d="M469.334,180.203c-9.6,0-18.466,3.191-25.6,8.55v-8.55c0-23.526-19.14-42.667-42.667-42.667
				c-9.6,0-18.466,3.191-25.6,8.55v-0.017c0-23.526-19.14-42.667-42.667-42.667c-9.6,0-18.466,3.191-25.6,8.55V43.669
				c0-23.526-19.14-42.667-42.667-42.667c-23.526,0-42.667,19.14-42.667,42.667v194.347c-19.029-32.41-62.66-49.323-95.514-36.949
				c-4.796,1.809-8.917,4.378-11.597,6.161c-12.8,8.474-12.45,18.901-12.22,22.69c-0.819,4.634,0.137,5.734,11.802,19.217
				c15.044,17.391,46.362,53.564,66.133,89.139c0.751,1.212,13.747,22.221,30.857,44.356c6.289,3.482,12.749,7.014,18.799,10.325
				c26.274,14.362,42.641,23.415,48.358,28.126c3.644,2.995,4.164,8.371,1.169,12.006c-1.69,2.048-4.13,3.115-6.588,3.115
				c-1.911,0-3.831-0.64-5.419-1.946c-4.181-3.439-20.617-12.587-37.248-21.7v15.198c0,47.01,38.238,85.248,85.248,85.248h85.419
				c36.983,0,75.119-30.686,83.277-67.021c2.236-9.958,5.257-17.51,8.508-21.257c0.452-0.529,0.922-1.229,1.382-1.826
				c-21.606,7.774-39.39,12.919-39.825,13.03c-0.717,0.188-1.434,0.273-2.142,0.273c-3.797,0-7.262-2.543-8.26-6.391
				c-1.186-4.557,1.553-9.216,6.118-10.402c13.781-3.576,35.447-11,55.569-19.081c3.703-11.093,6.306-24.909,6.306-40.926V222.869
				C512,199.343,492.86,180.203,469.334,180.203z"/>
		</g>
	</g>
</g>
<g>
</g>
<g>
</g>
<g>
</g>
<g>
</g>
<g>
</g>
<g>
</g>
<g>
</g>
<g>
</g>
<g>
</g>
<g>
</g>
<g>
</g>
<g>
</g>
<g>
</g>
<g>
</g>
<g>
</g>
</svg>
