<?xml version="1.0" encoding="iso-8859-1"?>
<!-- Generator: Adobe Illustrator 19.0.0, SVG Export Plug-In . SVG Version: 6.00 Build 0)  -->
<svg version="1.1" id="Layer_1" xmlns="http://www.w3.org/2000/svg" xmlns:xlink="http://www.w3.org/1999/xlink" x="0px" y="0px"
	 viewBox="0 0 512 512" style="enable-background:new 0 0 512 512;" xml:space="preserve">
<g transform="translate(0 -1)">
	<g>
		<g>
			<path d="M511.984,342.154l-0.026-119.287c0-20.139-16.427-42.667-38.409-42.667c-8.081,0-15.317,2.935-21.265,7.62l0.009-7.62
				c0-20.19-16.427-42.769-38.409-42.769c-8.055,0-15.369,3.038-21.402,7.876c-0.401-19.942-16.691-41.907-38.4-41.907
				c-8.021,0-15.309,3.012-21.325,7.799V43.667C332.758,23.528,316.332,1,294.35,1c-21.973,0-38.391,22.528-38.391,42.667v180.685
				c-7.706-15.838-17.468-31.01-28.109-41.651c-13.85-13.833-41.105-14.788-56.09-2.022c-4.881,4.156-19.268,19.84,0.478,47.181
				c18.304,25.378,32.512,82.372,32.512,114.475c0,68.181,44.382,98.978,59.785,107.605v54.528c0,4.719,3.814,8.533,8.533,8.533
				h204.8c4.71,0,8.525-3.814,8.533-8.525l0.06-57.037C512.121,413.083,512.112,409.03,511.984,342.154z M358.401,419.134h25.6
				c4.719,0,8.533,3.814,8.533,8.533c0,4.719-3.814,8.533-8.533,8.533h-25.6c-4.719,0-8.533-3.814-8.533-8.533
				C349.868,422.948,353.682,419.134,358.401,419.134z M392.534,470.334h-42.667c-4.719,0-8.533-3.814-8.533-8.533
				s3.814-8.533,8.533-8.533h42.667c4.719,0,8.533,3.814,8.533,8.533S397.253,470.334,392.534,470.334z"/>
			<path d="M195.124,167.4c1.527-2.645,1.527-5.905-0.009-8.542l-93.867-153.6c-3.046-5.274-11.716-5.274-14.763,0l-85.333,153.6
				c-1.536,2.637-1.536,5.896-0.008,8.542c1.527,2.637,4.343,4.267,7.39,4.267h179.2C190.781,171.667,193.605,170.037,195.124,167.4
				z M99.926,143.592c-1.621,1.536-3.84,2.475-6.059,2.475c-2.219,0-4.446-0.939-6.059-2.475c-1.544-1.621-2.475-3.84-2.475-6.059
				s0.93-4.437,2.475-6.059c3.157-3.157,8.96-3.157,12.117,0c1.536,1.621,2.475,3.84,2.475,6.059S101.462,141.971,99.926,143.592z
				 M102.401,103.4c0,4.71-3.814,8.533-8.533,8.533c-4.719,0-8.533-3.823-8.533-8.533V52.2c0-4.71,3.814-8.533,8.533-8.533
				c4.719,0,8.533,3.823,8.533,8.533V103.4z"/>
		</g>
	</g>
</g>
<g>
</g>
<g>
</g>
<g>
</g>
<g>
</g>
<g>
</g>
<g>
</g>
<g>
</g>
<g>
</g>
<g>
</g>
<g>
</g>
<g>
</g>
<g>
</g>
<g>
</g>
<g>
</g>
<g>
</g>
</svg>
