<?xml version="1.0" encoding="iso-8859-1"?>
<!-- Generator: Adobe Illustrator 19.0.0, SVG Export Plug-In . SVG Version: 6.00 Build 0)  -->
<svg version="1.1" id="Layer_1" xmlns="http://www.w3.org/2000/svg" xmlns:xlink="http://www.w3.org/1999/xlink" x="0px" y="0px"
	 viewBox="0 0 512 512" style="enable-background:new 0 0 512 512;" xml:space="preserve">
<g transform="translate(0 -1)">
	<g>
		<g>
			<path d="M320.001,60.077c-48.857,0-88.615,39.749-88.615,88.615v88.615h177.231v-88.615
				C408.617,99.826,368.858,60.077,320.001,60.077z"/>
			<path d="M320.001,1c-81.438,0-147.692,66.255-147.692,147.692v216.615c0,81.438,66.255,147.692,147.692,147.692
				s147.692-66.255,147.692-147.692V148.692C467.694,67.255,401.439,1,320.001,1z M418.463,385H221.54
				c-5.435,0-9.846-4.401-9.846-9.846s4.411-9.846,9.846-9.846h196.923c5.435,0,9.846,4.401,9.846,9.846S423.898,385,418.463,385z
				 M418.463,345.615H221.54c-5.435,0-9.846-4.401-9.846-9.846c0-5.445,4.411-9.846,9.846-9.846h196.923
				c5.435,0,9.846,4.401,9.846,9.846C428.309,341.214,423.898,345.615,418.463,345.615z M428.309,257H211.694V148.692
				c0-59.717,48.591-108.308,108.308-108.308s108.308,48.591,108.308,108.308V257z"/>
			<path d="M125.963,57.193c1.92,1.92,4.441,2.885,6.961,2.885c2.521,0,5.041-0.965,6.961-2.885c3.85-3.85,3.85-10.073,0-13.922
				L100.511,3.896c-0.906-0.916-1.999-1.634-3.21-2.137c-2.402-0.994-5.12-0.994-7.522,0c-1.211,0.502-2.304,1.221-3.21,2.137
				L47.194,43.271c-3.85,3.85-3.85,10.073,0,13.922c3.85,3.85,10.073,3.85,13.922,0l22.577-22.577v267.54l-22.577-22.577
				c-3.85-3.85-10.073-3.85-13.922,0c-3.85,3.85-3.85,10.073,0,13.922l39.375,39.375c0.906,0.916,1.999,1.634,3.21,2.137
				c1.201,0.502,2.481,0.758,3.761,0.758c1.28,0,2.56-0.256,3.761-0.758c1.211-0.502,2.304-1.221,3.21-2.137l39.375-39.375
				c3.85-3.85,3.85-10.073,0-13.922s-10.073-3.85-13.922,0l-22.577,22.577V34.616L125.963,57.193z"/>
		</g>
	</g>
</g>
<g>
</g>
<g>
</g>
<g>
</g>
<g>
</g>
<g>
</g>
<g>
</g>
<g>
</g>
<g>
</g>
<g>
</g>
<g>
</g>
<g>
</g>
<g>
</g>
<g>
</g>
<g>
</g>
<g>
</g>
</svg>
