<?xml version="1.0" encoding="iso-8859-1"?>
<!-- Generator: Adobe Illustrator 19.0.0, SVG Export Plug-In . SVG Version: 6.00 Build 0)  -->
<svg version="1.1" id="Layer_1" xmlns="http://www.w3.org/2000/svg" xmlns:xlink="http://www.w3.org/1999/xlink" x="0px" y="0px"
	 viewBox="0 0 511.998 511.998" style="enable-background:new 0 0 511.998 511.998;" xml:space="preserve">
<g transform="translate(0 -1)">
	<g>
		<g>
			<path d="M147.833,103.699c0.717,0,1.442-0.094,2.167-0.282c4.565-1.195,7.287-5.862,6.093-10.419
				c-1.297-4.932-1.954-10.044-1.954-15.198c0-32.939,26.795-59.733,59.733-59.733c32.939,0,59.733,26.795,59.733,59.733
				c0,4.958-0.606,9.882-1.801,14.643c-1.152,4.574,1.621,9.207,6.187,10.359c4.565,1.118,9.207-1.638,10.359-6.195
				c1.545-6.127,2.321-12.45,2.321-18.807c0-42.351-34.449-76.8-76.8-76.8c-42.342,0-76.8,34.449-76.8,76.8
				c0,6.613,0.845,13.193,2.509,19.533C140.588,101.164,144.044,103.699,147.833,103.699z"/>
			<path d="M430.942,358.929l-0.017-118.997c0-20.139-16.444-42.667-38.451-42.667c-8.081,0-15.326,2.953-21.282,7.654v-7.637
				c0.017-11.452-4.992-23.313-13.414-31.753c-7.1-7.117-15.966-11.034-24.977-11.034c-8.055,0-15.369,3.038-21.402,7.876
				c-0.179-9.847-4.062-20.002-10.718-27.964c-7.407-8.858-17.493-13.943-27.674-13.943c-8.013,0-15.292,3.021-21.308,7.834
				l-0.009-50.5c0-20.139-16.435-42.667-38.417-42.667c-21.973,0-38.383,22.528-38.383,42.667v163.635
				c-7.714-15.846-17.476-31.027-28.117-41.668c-13.824-13.815-41.088-14.805-56.098-2.022c-4.873,4.156-19.26,19.84,0.478,47.181
				c17.442,24.166,26.052,76.194,31.198,107.281l1.442,8.627c10.82,63.633,44.971,84.079,59.665,90.044v53.589
				c0,4.719,3.823,8.533,8.533,8.533h204.8c4.71,0,8.533-3.814,8.533-8.525l0.051-57.003c3.712-4.847,6.844-8.627,9.463-11.81
				C431.053,416.026,431.053,413.875,430.942,358.929z M277.325,419.132h25.6c4.71,0,8.533,3.814,8.533,8.533
				c0,4.719-3.823,8.533-8.533,8.533h-25.6c-4.71,0-8.533-3.814-8.533-8.533C268.792,422.946,272.614,419.132,277.325,419.132z
				 M311.458,470.332h-42.667c-4.71,0-8.533-3.814-8.533-8.533s3.823-8.533,8.533-8.533h42.667c4.71,0,8.533,3.814,8.533,8.533
				S316.169,470.332,311.458,470.332z"/>
		</g>
	</g>
</g>
<g>
</g>
<g>
</g>
<g>
</g>
<g>
</g>
<g>
</g>
<g>
</g>
<g>
</g>
<g>
</g>
<g>
</g>
<g>
</g>
<g>
</g>
<g>
</g>
<g>
</g>
<g>
</g>
<g>
</g>
</svg>
