<?xml version="1.0" encoding="iso-8859-1"?>
<!-- Generator: Adobe Illustrator 19.0.0, SVG Export Plug-In . SVG Version: 6.00 Build 0)  -->
<svg version="1.1" id="Layer_1" xmlns="http://www.w3.org/2000/svg" xmlns:xlink="http://www.w3.org/1999/xlink" x="0px" y="0px"
	 viewBox="0 0 512 512" style="enable-background:new 0 0 512 512;" xml:space="preserve">
<g transform="translate(0 -1)">
	<g>
		<g>
			<path d="M511.983,342.154l-0.026-119.287c0-20.139-16.427-42.667-38.409-42.667c-8.081,0-15.317,2.935-21.265,7.62l0.009-7.62
				c0-20.19-16.427-42.769-38.409-42.769c-8.055,0-15.369,3.038-21.393,7.868c-0.41-19.942-16.7-41.899-38.409-41.899
				c-8.098,0-15.334,2.935-21.282,7.62V43.667C332.8,23.528,316.357,1,294.349,1C272.401,1,256,23.528,256,43.667v180.804
				c-8.03-16.341-18.048-31.667-28.151-41.771c-13.833-13.815-41.088-14.797-56.098-2.022c-4.873,4.156-19.26,19.84,0.478,47.181
				c18.313,25.378,32.521,82.364,32.521,114.475c0,68.181,44.39,98.978,59.785,107.605v54.528c0,4.719,3.823,8.533,8.533,8.533
				h204.8c4.71,0,8.525-3.814,8.533-8.525l0.06-57.037C512.12,413.083,512.111,409.03,511.983,342.154z M358.4,419.133H384
				c4.71,0,8.533,3.814,8.533,8.533c0,4.719-3.823,8.533-8.533,8.533h-25.6c-4.71,0-8.533-3.814-8.533-8.533
				C349.867,422.948,353.69,419.133,358.4,419.133z M392.534,470.333h-42.667c-4.71,0-8.533-3.814-8.533-8.533
				s3.823-8.533,8.533-8.533h42.667c4.71,0,8.533,3.814,8.533,8.533S397.244,470.333,392.534,470.333z"/>
			<path d="M85.334,1.001C38.281,1.001,0,39.281,0,86.334s38.281,85.333,85.333,85.333c47.053,0,85.333-38.281,85.333-85.333
				S132.386,1.001,85.334,1.001z M126.413,65.692l-42.667,59.733c-0.128,0.171-0.324,0.23-0.461,0.393
				c-0.179,0.222-0.247,0.486-0.452,0.683c-0.444,0.444-0.998,0.674-1.51,0.998c-0.341,0.222-0.623,0.495-0.99,0.666
				c-1.126,0.512-2.313,0.836-3.533,0.836c0,0,0,0-0.009,0c-0.981,0-1.963-0.222-2.91-0.572c-0.29-0.102-0.555-0.273-0.836-0.418
				c-0.401-0.196-0.828-0.333-1.203-0.597c-0.205-0.145-0.299-0.367-0.486-0.521c-0.188-0.162-0.418-0.222-0.589-0.393l-25.6-25.6
				c-3.337-3.337-3.337-8.73,0-12.066c3.337-3.336,8.73-3.336,12.066,0l18.475,18.475l36.813-51.533
				c2.739-3.84,8.073-4.719,11.904-1.988C128.265,56.527,129.152,61.861,126.413,65.692z"/>
		</g>
	</g>
</g>
<g>
</g>
<g>
</g>
<g>
</g>
<g>
</g>
<g>
</g>
<g>
</g>
<g>
</g>
<g>
</g>
<g>
</g>
<g>
</g>
<g>
</g>
<g>
</g>
<g>
</g>
<g>
</g>
<g>
</g>
</svg>
