<?xml version="1.0" encoding="iso-8859-1"?>
<!-- Generator: Adobe Illustrator 19.0.0, SVG Export Plug-In . SVG Version: 6.00 Build 0)  -->
<svg version="1.1" id="Layer_1" xmlns="http://www.w3.org/2000/svg" xmlns:xlink="http://www.w3.org/1999/xlink" x="0px" y="0px"
	 viewBox="0 0 512 512" style="enable-background:new 0 0 512 512;" xml:space="preserve">
<g transform="translate(0 -1)">
	<g>
		<g>
			<path d="M147.567,160.633c1.664,1.664,3.849,2.5,6.033,2.5c2.185,0,4.369-0.836,6.033-2.5c3.337-3.337,3.337-8.73,0-12.066
				l-37.282-37.282c8.892-11.511,14.182-26.018,14.182-42.018C136.533,30.986,106.547,1,68.267,1S0,30.986,0,69.267
				s29.986,68.267,68.267,68.267c16,0,30.507-5.291,42.018-14.182L147.567,160.633z M68.267,120.467
				c-28.706,0-51.2-22.494-51.2-51.2s22.494-51.2,51.2-51.2s51.2,22.494,51.2,51.2S96.973,120.467,68.267,120.467z"/>
			<path d="M307.2,120.467c-42.342,0-76.8,34.449-76.8,76.8v76.8H384v-76.8C384,154.916,349.542,120.467,307.2,120.467z"/>
			<path d="M307.2,1c-41.438,0-81.365,12.314-115.456,35.627c-3.891,2.654-4.89,7.962-2.227,11.853
				c2.662,3.9,7.97,4.898,11.861,2.227c31.24-21.35,67.831-32.64,105.822-32.64c103.518,0,187.733,84.215,187.733,187.733
				c0,52.745-21.598,101.811-59.733,137.259V197.267c0-70.579-57.421-128-128-128s-128,57.421-128,128v145.792
				c-38.135-35.447-59.733-84.514-59.733-137.259c0-4.719-3.823-8.533-8.533-8.533s-8.533,3.814-8.533,8.533
				c0,62.712,27.972,120.67,76.8,159.787V385c0,70.579,57.421,128,128,128s128-57.421,128-128v-19.413
				C484.028,326.453,512,268.503,512,205.8C512,92.878,420.13,1,307.2,1z M392.533,402.067H221.867c-4.71,0-8.533-3.814-8.533-8.533
				s3.823-8.533,8.533-8.533h170.667c4.71,0,8.533,3.814,8.533,8.533S397.244,402.067,392.533,402.067z M392.533,367.933H221.867
				c-4.71,0-8.533-3.814-8.533-8.533c0-4.719,3.823-8.533,8.533-8.533h170.667c4.71,0,8.533,3.814,8.533,8.533
				C401.067,364.119,397.244,367.933,392.533,367.933z M401.067,291.133H213.333v-93.867c0-51.755,42.112-93.867,93.867-93.867
				c51.755,0,93.867,42.112,93.867,93.867V291.133z"/>
		</g>
	</g>
</g>
<g>
</g>
<g>
</g>
<g>
</g>
<g>
</g>
<g>
</g>
<g>
</g>
<g>
</g>
<g>
</g>
<g>
</g>
<g>
</g>
<g>
</g>
<g>
</g>
<g>
</g>
<g>
</g>
<g>
</g>
</svg>
