<?xml version="1.0" encoding="iso-8859-1"?>
<!-- Generator: Adobe Illustrator 19.0.0, SVG Export Plug-In . SVG Version: 6.00 Build 0)  -->
<svg version="1.1" id="Layer_1" xmlns="http://www.w3.org/2000/svg" xmlns:xlink="http://www.w3.org/1999/xlink" x="0px" y="0px"
	 viewBox="0 0 511.906 511.906" style="enable-background:new 0 0 511.906 511.906;" xml:space="preserve">
<g transform="translate(0 -1)">
	<g>
		<g>
			<path d="M509.503,342.154l-0.017-119.287c0-20.139-16.435-42.667-38.417-42.667c-8.081,0-15.309,2.927-21.265,7.612l0.009-7.612
				c0-20.19-16.427-42.769-38.417-42.769c-8.047,0-15.36,3.038-21.385,7.868c-0.41-19.942-16.7-41.899-38.409-41.899
				c-8.021,0-15.309,3.012-21.316,7.799V43.667C330.286,23.528,313.851,1,291.869,1c-21.973,0-38.383,22.528-38.383,42.667v180.702
				c-7.714-15.846-17.476-31.027-28.117-41.668c-13.824-13.815-41.088-14.805-56.098-2.022c-4.873,4.156-19.26,19.84,0.478,47.181
				c18.313,25.378,32.521,82.364,32.521,114.475c0,68.181,44.39,98.978,59.785,107.605v54.434c0,4.719,3.823,8.533,8.533,8.533
				h204.8c4.71,0,8.533-3.814,8.533-8.525l0.051-56.934C509.64,413.083,509.631,409.03,509.503,342.154z M355.92,419.133h25.6
				c4.71,0,8.533,3.814,8.533,8.533c0,4.719-3.823,8.533-8.533,8.533h-25.6c-4.71,0-8.533-3.814-8.533-8.533
				C347.387,422.948,351.21,419.133,355.92,419.133z M390.053,470.333h-42.667c-4.71,0-8.533-3.814-8.533-8.533
				s3.823-8.533,8.533-8.533h42.667c4.71,0,8.533,3.814,8.533,8.533S394.764,470.333,390.053,470.333z"/>
			<path d="M162.108,24.621L144.555,7.068c-8.081-8.09-21.257-8.09-29.355,0L99.396,22.872l46.908,46.908l15.804-15.804
				C170.197,45.886,170.197,32.711,162.108,24.621z"/>
			<polygon points="19.974,102.297 2.387,166.8 66.882,149.196 134.235,81.851 87.327,34.943 			"/>
		</g>
	</g>
</g>
<g>
</g>
<g>
</g>
<g>
</g>
<g>
</g>
<g>
</g>
<g>
</g>
<g>
</g>
<g>
</g>
<g>
</g>
<g>
</g>
<g>
</g>
<g>
</g>
<g>
</g>
<g>
</g>
<g>
</g>
</svg>
