<?xml version="1.0" encoding="iso-8859-1"?>
<!-- Generator: Adobe Illustrator 19.0.0, SVG Export Plug-In . SVG Version: 6.00 Build 0)  -->
<svg version="1.1" id="Layer_1" xmlns="http://www.w3.org/2000/svg" xmlns:xlink="http://www.w3.org/1999/xlink" x="0px" y="0px"
	 viewBox="0 0 512 512" style="enable-background:new 0 0 512 512;" xml:space="preserve">
<g transform="translate(0 -1)">
	<g>
		<g>
			<path d="M132.233,60.733c4.719,0,8.533-3.814,8.533-8.533V9.533c0-0.068-0.043-0.128-0.043-0.196
				c-0.009-0.648-0.213-1.254-0.375-1.877c-0.119-0.461-0.145-0.947-0.333-1.374c-0.179-0.41-0.512-0.742-0.759-1.118
				c-0.358-0.555-0.683-1.135-1.161-1.587c-0.051-0.051-0.068-0.12-0.119-0.162c-0.324-0.299-0.725-0.41-1.084-0.648
				c-0.521-0.35-1.007-0.725-1.596-0.956c-0.572-0.213-1.169-0.256-1.766-0.35C133.095,1.188,132.694,1,132.233,1H89.566
				c-4.719,0-8.533,3.814-8.533,8.533s3.814,8.533,8.533,8.533h23.373L55.433,81.324V60.733c0-4.719-3.814-8.533-8.533-8.533
				s-8.533,3.814-8.533,8.533V103.4c0,0.068,0.043,0.128,0.043,0.196c0.009,0.649,0.222,1.254,0.375,1.886
				c0.119,0.461,0.145,0.939,0.333,1.365c0.179,0.41,0.512,0.742,0.759,1.126c0.367,0.555,0.683,1.126,1.161,1.579
				c0.051,0.051,0.068,0.119,0.119,0.162c0.418,0.375,0.913,0.563,1.374,0.845c0.41,0.247,0.759,0.555,1.203,0.734
				c1.015,0.41,2.091,0.64,3.166,0.64h42.667c4.719,0,8.533-3.814,8.533-8.533s-3.814-8.533-8.533-8.533H66.193L123.7,31.609V52.2
				C123.7,56.919,127.514,60.733,132.233,60.733z"/>
			<path d="M473.617,341.915L473.6,222.867c0-20.139-16.444-42.667-38.451-42.667c-8.064,0-15.3,2.953-21.248,7.654V180.2
				c0-20.19-16.435-42.769-38.417-42.769c-8.055,0-15.369,3.038-21.393,7.868c-0.41-19.942-16.7-41.899-38.409-41.899
				c-8.09,0-15.334,2.935-21.282,7.62V43.667C294.4,23.528,277.965,1,255.983,1C234.018,1,217.6,23.528,217.6,43.667v180.804
				c-8.03-16.35-18.048-31.667-28.151-41.771c-13.815-13.815-41.062-14.814-56.09-2.022c-4.873,4.156-19.268,19.84,0.478,47.181
				c18.304,25.37,32.512,82.364,32.512,114.475c0,68.181,44.356,98.978,59.75,107.597v54.536c0,4.719,3.814,8.533,8.533,8.533h204.8
				c4.71,0,8.525-3.814,8.533-8.516l0.085-57.028C473.754,413.041,473.745,408.996,473.617,341.915z M319.966,410.6h25.6
				c4.719,0,8.533,3.814,8.533,8.533c0,4.719-3.814,8.533-8.533,8.533h-25.6c-4.719,0-8.533-3.814-8.533-8.533
				C311.433,414.414,315.247,410.6,319.966,410.6z M354.1,461.8h-42.667c-4.719,0-8.533-3.814-8.533-8.533s3.814-8.533,8.533-8.533
				H354.1c4.719,0,8.533,3.814,8.533,8.533S358.819,461.8,354.1,461.8z"/>
		</g>
	</g>
</g>
<g>
</g>
<g>
</g>
<g>
</g>
<g>
</g>
<g>
</g>
<g>
</g>
<g>
</g>
<g>
</g>
<g>
</g>
<g>
</g>
<g>
</g>
<g>
</g>
<g>
</g>
<g>
</g>
<g>
</g>
</svg>
