<?xml version="1.0" encoding="iso-8859-1"?>
<!-- Generator: Adobe Illustrator 19.0.0, SVG Export Plug-In . SVG Version: 6.00 Build 0)  -->
<svg version="1.1" id="Layer_1" xmlns="http://www.w3.org/2000/svg" xmlns:xlink="http://www.w3.org/1999/xlink" x="0px" y="0px"
	 viewBox="0 0 511.997 511.997" style="enable-background:new 0 0 511.997 511.997;" xml:space="preserve">
<g transform="translate(0 -1)">
	<g>
		<g>
			<path d="M91.366,98.564c-4.062-2.406-9.293-1.058-11.691,2.995c-3.004,5.052-5.828,10.334-8.397,15.684
				c-2.048,4.25-0.265,9.344,3.985,11.392c1.195,0.58,2.449,0.845,3.695,0.845c3.174,0,6.221-1.775,7.697-4.83
				c2.364-4.915,4.949-9.762,7.706-14.396C96.759,106.201,95.419,100.962,91.366,98.564z"/>
			<path d="M190.266,29.348c0.947,0,1.92-0.162,2.867-0.495c5.111-1.818,10.351-3.43,15.582-4.787
				c4.557-1.186,7.305-5.837,6.118-10.402c-1.178-4.565-5.845-7.33-10.402-6.118c-5.709,1.476-11.443,3.243-17.033,5.231
				c-4.429,1.579-6.75,6.46-5.171,10.906C183.474,27.172,186.759,29.348,190.266,29.348z"/>
			<path d="M336.099,35.965c4.872,2.313,9.737,4.864,14.438,7.62c1.357,0.777,2.833,1.152,4.292,1.152
				c2.935,0,5.794-1.51,7.39-4.233c2.364-4.07,0.99-9.301-3.081-11.674c-5.12-2.987-10.419-5.777-15.744-8.303
				c-4.232-1.997-9.344-0.188-11.366,4.07C330.015,28.856,331.841,33.951,336.099,35.965z"/>
			<path d="M69.266,144.614c-4.48-1.246-9.242,1.374-10.513,5.914c-1.587,5.641-2.944,11.477-4.045,17.34
				c-0.879,4.625,2.176,9.088,6.81,9.958c0.529,0.094,1.058,0.145,1.579,0.145c4.028,0,7.612-2.859,8.38-6.955
				c1.016-5.367,2.253-10.718,3.703-15.889C76.46,150.596,73.806,145.886,69.266,144.614z"/>
			<path d="M144.799,52.581c1.664,0,3.354-0.486,4.821-1.502c4.497-3.081,9.156-6.007,13.85-8.67c4.104-2.33,5.538-7.535,3.2-11.639
				c-2.313-4.087-7.518-5.521-11.631-3.2c-5.111,2.901-10.18,6.084-15.078,9.446c-3.883,2.662-4.873,7.979-2.202,11.861
				C139.406,51.293,142.085,52.581,144.799,52.581z"/>
			<path d="M240.166,18.69c0.222,0,0.461-0.009,0.683-0.026c4.983-0.401,10.078-0.597,15.147-0.597h1.22
				c4.719,0,8.533-3.823,8.533-8.533c0-4.719-3.814-8.533-8.533-8.533h-1.22c-5.521,0-11.068,0.213-16.495,0.648
				c-4.702,0.375-8.209,4.489-7.834,9.182C232.025,15.302,235.754,18.69,240.166,18.69z"/>
			<path d="M289.632,21.073c5.35,0.964,10.701,2.176,15.898,3.601c0.751,0.196,1.51,0.299,2.261,0.299
				c3.746,0,7.185-2.492,8.226-6.281c1.237-4.548-1.434-9.233-5.982-10.487c-5.683-1.544-11.529-2.876-17.374-3.934
				c-4.676-0.802-9.071,2.253-9.916,6.886C281.918,15.799,284.999,20.228,289.632,21.073z"/>
			<path d="M59.841,194.831h-0.094c-4.676,0-8.482,3.763-8.533,8.439l-0.017,2.526c0,4.719,3.823,8.533,8.533,8.533
				c4.719,0,8.533-3.814,8.533-8.533l0.017-2.338C68.332,198.74,64.551,194.882,59.841,194.831z"/>
			<path d="M447.875,163.44c4.548-1.212,7.27-5.879,6.059-10.445c-1.51-5.675-3.302-11.392-5.333-16.998
				c-1.613-4.42-6.502-6.69-10.931-5.111c-4.437,1.604-6.716,6.494-5.12,10.931c1.869,5.137,3.507,10.377,4.881,15.565
				c1.024,3.814,4.471,6.34,8.243,6.34C446.398,163.721,447.141,163.627,447.875,163.44z"/>
			<path d="M112.524,59.648c-4.198,4.122-8.294,8.499-12.151,12.996c-3.063,3.584-2.654,8.969,0.922,12.041
				c1.613,1.382,3.584,2.057,5.555,2.057c2.398,0,4.787-1.007,6.477-2.978c3.55-4.139,7.296-8.158,11.145-11.93
				c3.371-3.302,3.422-8.713,0.12-12.066C121.271,56.38,115.878,56.354,112.524,59.648z"/>
			<path d="M460.033,188.031c-0.41-4.693-4.446-8.26-9.233-7.765c-4.693,0.401-8.175,4.531-7.765,9.233
				c0.469,5.402,0.7,10.88,0.7,16.299c0,4.719,3.814,8.533,8.533,8.533s8.533-3.814,8.533-8.533
				C460.801,199.901,460.545,193.919,460.033,188.031z"/>
			<path d="M433.608,103.748c-2.987-5.188-6.204-10.249-9.557-15.053c-2.705-3.849-8.03-4.787-11.896-2.091
				c-3.857,2.714-4.787,8.03-2.091,11.895c3.081,4.378,6.016,9.003,8.747,13.747c1.579,2.748,4.446,4.284,7.407,4.284
				c1.442,0,2.91-0.367,4.241-1.135C434.546,113.05,435.954,107.836,433.608,103.748z"/>
			<path d="M388.175,49.356c-3.618-3.055-8.994-2.594-12.023,0.99c-3.055,3.601-2.603,8.986,0.99,12.023
				c4.164,3.524,8.201,7.262,12.006,11.085c1.673,1.681,3.857,2.517,6.05,2.517c2.176,0,4.352-0.828,6.016-2.483
				c3.345-3.319,3.362-8.721,0.034-12.066C397.109,57.249,392.706,53.187,388.175,49.356z"/>
			<path d="M255.999,120.464c-42.342,0-76.8,34.449-76.8,76.8v76.8h153.6v-76.8C332.799,154.913,298.342,120.464,255.999,120.464z"
				/>
			<path d="M255.999,69.264c-70.579,0-128,57.421-128,128v187.733c0,70.579,57.421,128,128,128s128-57.421,128-128V197.264
				C383.999,126.685,326.578,69.264,255.999,69.264z M341.332,402.064H170.666c-4.71,0-8.533-3.814-8.533-8.533
				s3.823-8.533,8.533-8.533h170.667c4.71,0,8.533,3.814,8.533,8.533S346.043,402.064,341.332,402.064z M341.332,367.931H170.666
				c-4.71,0-8.533-3.814-8.533-8.533c0-4.719,3.823-8.533,8.533-8.533h170.667c4.71,0,8.533,3.814,8.533,8.533
				C349.866,364.116,346.043,367.931,341.332,367.931z M349.866,291.131H162.132v-93.867c0-51.755,42.112-93.867,93.867-93.867
				c51.755,0,93.867,42.112,93.867,93.867V291.131z"/>
		</g>
	</g>
</g>
<g>
</g>
<g>
</g>
<g>
</g>
<g>
</g>
<g>
</g>
<g>
</g>
<g>
</g>
<g>
</g>
<g>
</g>
<g>
</g>
<g>
</g>
<g>
</g>
<g>
</g>
<g>
</g>
<g>
</g>
</svg>
