<?xml version="1.0" encoding="iso-8859-1"?>
<!-- Generator: Adobe Illustrator 19.0.0, SVG Export Plug-In . SVG Version: 6.00 Build 0)  -->
<svg version="1.1" id="Layer_1" xmlns="http://www.w3.org/2000/svg" xmlns:xlink="http://www.w3.org/1999/xlink" x="0px" y="0px"
	 viewBox="0 0 512 512" style="enable-background:new 0 0 512 512;" xml:space="preserve">
<g transform="translate(0 -1)">
	<g>
		<g>
			<path d="M235.546,245.429c3.755-2.842,4.506-8.192,1.664-11.955l-8.388-11.102l52.753-50.244l0.026,23.825
				c0,4.719,3.814,8.533,8.533,8.533s8.533-3.814,8.533-8.533v-40.107l48.546-46.234c3.422-3.26,3.55-8.661,0.307-12.066
				c-3.268-3.43-8.67-3.541-12.066-0.307l-36.787,35.038v-28.348c0-6.485-3.26-12.22-8.713-15.343
				c-5.333-3.072-11.733-2.97-17.135,0.205c-0.555,0.324-1.067,0.708-1.536,1.152l-58.709,55.39
				c-0.299,0.213-0.631,0.461-1.041,0.759h-40.866c-4.719,0-8.533,3.814-8.533,8.533v68.267c0,4.719,3.814,8.533,8.533,8.533
				l23.902-0.008l-38.315,36.489c-3.422,3.26-3.55,8.661-0.307,12.066c1.69,1.766,3.934,2.654,6.187,2.654
				c2.116,0,4.233-0.785,5.879-2.347l48.367-46.063l7.211,9.54c1.673,2.227,4.233,3.396,6.818,3.396
				C232.201,247.153,234.01,246.59,235.546,245.429z M212.48,214.359H179.2v-51.2h34.133c4.019,0,6.903-2.219,8.917-3.772
				c0.538-0.324,1.05-0.708,1.519-1.143l57.737-54.477l0.051,44.809L212.48,214.359z"/>
			<path d="M465.067,1.026H48c-25.122,0-48,22.366-48,46.933v285.867c0,26.351,24.917,42.667,48,42.667h148.267
				c4.719,0,8.533-3.814,8.533-8.533s-3.814-8.533-8.533-8.533H48c-14.942,0-30.933-10.283-30.933-25.6V47.959
				c0-15.078,15.326-29.867,30.933-29.867h417.067c15.351,0,29.867,14.515,29.867,29.867v243.2c0,4.719,3.814,8.533,8.533,8.533
				c4.719,0,8.533-3.814,8.533-8.533v-243.2C512,23.392,489.634,1.026,465.067,1.026z"/>
			<path d="M372.612,361.439c-10.428,10.436-17.553,24.875-24.44,38.852c-0.956,1.929-1.877,3.738-2.816,5.598
				c36.608-5.282,65.792-34.082,71.578-70.519c-2.884,1.408-5.786,2.782-8.653,4.122
				C395.686,345.345,382.656,351.404,372.612,361.439z"/>
			<path d="M401.087,324.014c4.386-2.039,8.508-4.045,12.467-6.101l-34.91-34.918c-23.287-23.279-61.184-23.279-84.471,0
				c-23.287,23.296-23.287,61.193,0,84.489l34.21,34.21c1.476-2.884,2.953-5.862,4.48-8.951
				c7.151-14.507,15.258-30.942,27.682-43.366C372.722,337.198,387.792,330.2,401.087,324.014z"/>
			<path d="M414.853,246.794c-43.255-43.247-113.638-43.247-156.885,0c-43.247,43.255-43.247,113.638,0.128,157.013l111.471,106.786
				c1.587,1.528,3.703,2.381,5.896,2.381h128c4.719,0,8.533-3.814,8.533-8.533V351.088c0-2.21-0.853-4.335-2.381-5.914
				L414.853,246.794z M434.821,328.901c-3.371,50.637-44.109,91.375-94.754,94.754c-0.64,0.043-1.289,0.068-1.929,0.068
				c-7.569,0-14.865-3.012-20.267-8.414l-35.763-35.763c-29.943-29.943-29.943-78.677,0-108.612
				c29.935-29.952,78.66-29.952,108.604,0l35.772,35.772C432.338,312.543,435.376,320.641,434.821,328.901z"/>
		</g>
	</g>
</g>
<g>
</g>
<g>
</g>
<g>
</g>
<g>
</g>
<g>
</g>
<g>
</g>
<g>
</g>
<g>
</g>
<g>
</g>
<g>
</g>
<g>
</g>
<g>
</g>
<g>
</g>
<g>
</g>
<g>
</g>
</svg>
