<?xml version="1.0" encoding="iso-8859-1"?>
<!-- Generator: Adobe Illustrator 19.0.0, SVG Export Plug-In . SVG Version: 6.00 Build 0)  -->
<svg version="1.1" id="Layer_1" xmlns="http://www.w3.org/2000/svg" xmlns:xlink="http://www.w3.org/1999/xlink" x="0px" y="0px"
	 viewBox="0 0 512.003 512.003" style="enable-background:new 0 0 512.003 512.003;" xml:space="preserve">
<g transform="translate(0 -1)">
	<g>
		<g>
			<path d="M465.068,1H48.001c-25.122,0-48,22.366-48,46.933V333.8c0,26.351,24.917,42.667,48,42.667h148.267
				c4.71,0,8.533-3.814,8.533-8.533s-3.823-8.533-8.533-8.533H48.001c-14.933,0-30.933-10.283-30.933-25.6V47.933
				c0-15.078,15.317-29.867,30.933-29.867h417.067c15.351,0,29.867,14.515,29.867,29.867v243.2c0,4.719,3.823,8.533,8.533,8.533
				s8.533-3.814,8.533-8.533v-243.2C512.001,23.366,489.627,1,465.068,1z"/>
			<path d="M238.935,239.933c2.185,0,4.369-0.836,6.033-2.5c3.336-3.337,3.336-8.73,0-12.066L227.901,208.3
				c-0.785-0.785-1.69-1.348-2.645-1.758c3.2-5.197,5.146-11.264,5.146-17.809c0-6.008-1.698-11.58-4.429-16.486l41.737-34.782
				c6.016,5.282,13.807,8.602,22.426,8.602c18.825,0,34.133-15.309,34.133-34.133c0-18.825-15.309-34.133-34.133-34.133
				s-34.133,15.309-34.133,34.133c0,3.994,0.819,7.765,2.082,11.332l-43.87,36.557c-5.231-3.26-11.341-5.222-17.946-5.222
				c-18.825,0-34.133,15.309-34.133,34.133s15.309,34.133,34.133,34.133c6.545,0,12.604-1.946,17.809-5.154
				c0.41,0.964,0.973,1.869,1.758,2.654l17.067,17.067C234.566,239.097,236.75,239.933,238.935,239.933z"/>
			<path d="M372.614,361.467c-10.428,10.436-17.553,24.875-24.44,38.852c-0.956,1.929-1.877,3.738-2.816,5.598
				c36.608-5.282,65.792-34.082,71.578-70.519c-2.884,1.408-5.786,2.782-8.653,4.122
				C395.688,345.373,382.657,351.432,372.614,361.467z"/>
			<path d="M401.088,324.042c4.386-2.039,8.508-4.045,12.467-6.101l-34.91-34.918c-23.287-23.279-61.184-23.279-84.471,0
				c-23.287,23.296-23.287,61.193,0,84.489l34.21,34.21c1.476-2.884,2.953-5.862,4.48-8.951
				c7.151-14.507,15.258-30.942,27.682-43.366C372.724,337.226,387.794,330.229,401.088,324.042z"/>
			<path d="M414.854,246.822c-43.255-43.247-113.638-43.247-156.885,0c-43.247,43.256-43.247,113.638,0.128,157.013l111.471,106.786
				c1.587,1.527,3.703,2.381,5.896,2.381h128c4.719,0,8.533-3.814,8.533-8.533V351.117c0-2.21-0.853-4.335-2.381-5.914
				L414.854,246.822z M434.822,328.93c-3.371,50.637-44.109,91.375-94.754,94.754c-0.64,0.043-1.289,0.068-1.929,0.068
				c-7.569,0-14.865-3.012-20.267-8.414l-35.763-35.763c-29.943-29.943-29.943-78.677,0-108.612
				c29.935-29.952,78.66-29.952,108.604,0l35.772,35.772C432.339,312.572,435.377,320.67,434.822,328.93z"/>
		</g>
	</g>
</g>
<g>
</g>
<g>
</g>
<g>
</g>
<g>
</g>
<g>
</g>
<g>
</g>
<g>
</g>
<g>
</g>
<g>
</g>
<g>
</g>
<g>
</g>
<g>
</g>
<g>
</g>
<g>
</g>
<g>
</g>
</svg>
