<?xml version="1.0" encoding="iso-8859-1"?>
<!-- Generator: Adobe Illustrator 19.0.0, SVG Export Plug-In . SVG Version: 6.00 Build 0)  -->
<svg version="1.1" id="Layer_1" xmlns="http://www.w3.org/2000/svg" xmlns:xlink="http://www.w3.org/1999/xlink" x="0px" y="0px"
	 viewBox="0 0 511.997 511.997" style="enable-background:new 0 0 511.997 511.997;" xml:space="preserve">
<g transform="translate(0 -1)">
	<g>
		<g>
			<path d="M400.408,40.403c-0.435-1.05-1.067-1.997-1.852-2.782L364.431,3.496c-3.336-3.328-8.73-3.328-12.066,0
				c-3.337,3.337-3.337,8.738,0,12.066l19.567,19.567H140.064l19.567-19.567c3.337-3.328,3.337-8.73,0-12.066
				c-3.337-3.328-8.73-3.328-12.066,0L113.44,37.621c-0.794,0.785-1.417,1.732-1.852,2.782c-0.862,2.082-0.862,4.437,0,6.519
				c0.435,1.05,1.058,1.997,1.852,2.782l34.125,34.125c1.664,1.673,3.849,2.5,6.033,2.5c2.185,0,4.369-0.828,6.033-2.5
				c3.337-3.328,3.337-8.73,0-12.066l-19.567-19.567h231.868l-19.567,19.567c-3.337,3.337-3.337,8.738,0,12.066
				c1.664,1.673,3.849,2.5,6.033,2.5c2.185,0,4.369-0.828,6.033-2.5l34.125-34.125c0.785-0.785,1.417-1.732,1.852-2.782
				C401.27,44.84,401.27,42.493,400.408,40.403z"/>
			<path d="M255.998,120.463c-42.342,0-76.8,34.449-76.8,76.8v76.8h153.6v-76.8C332.798,154.912,298.341,120.463,255.998,120.463z"
				/>
			<path d="M255.998,69.263c-70.579,0-128,57.421-128,128v187.733c0,70.579,57.421,128,128,128s128-57.421,128-128V197.263
				C383.998,126.684,326.578,69.263,255.998,69.263z M341.332,402.063H170.665c-4.71,0-8.533-3.814-8.533-8.533
				s3.823-8.533,8.533-8.533h170.667c4.71,0,8.533,3.814,8.533,8.533S346.042,402.063,341.332,402.063z M341.332,367.93H170.665
				c-4.71,0-8.533-3.814-8.533-8.533c0-4.719,3.823-8.533,8.533-8.533h170.667c4.71,0,8.533,3.814,8.533,8.533
				C349.865,364.116,346.042,367.93,341.332,367.93z M349.865,291.13H162.132v-93.867c0-51.755,42.112-93.867,93.867-93.867
				c51.755,0,93.867,42.112,93.867,93.867V291.13z"/>
		</g>
	</g>
</g>
<g>
</g>
<g>
</g>
<g>
</g>
<g>
</g>
<g>
</g>
<g>
</g>
<g>
</g>
<g>
</g>
<g>
</g>
<g>
</g>
<g>
</g>
<g>
</g>
<g>
</g>
<g>
</g>
<g>
</g>
</svg>
