<?xml version="1.0" encoding="iso-8859-1"?>
<!-- Generator: Adobe Illustrator 19.0.0, SVG Export Plug-In . SVG Version: 6.00 Build 0)  -->
<svg version="1.1" id="Layer_1" xmlns="http://www.w3.org/2000/svg" xmlns:xlink="http://www.w3.org/1999/xlink" x="0px" y="0px"
	 viewBox="0 0 512 512" style="enable-background:new 0 0 512 512;" xml:space="preserve">
<g transform="translate(0 -1)">
	<g>
		<g>
			<path d="M508.549,341.753l-0.017-118.886c0-20.139-16.435-42.667-38.417-42.667c-8.073,0-15.309,2.927-21.257,7.612l0.009-7.612
				c0-20.19-16.435-42.769-38.417-42.769c-8.055,0-15.369,3.038-21.393,7.868c-0.41-19.942-16.7-41.899-38.409-41.899
				c-8.021,0-15.309,3.012-21.316,7.799V43.667C329.332,23.528,312.896,1,290.914,1c-21.965,0-38.383,22.528-38.383,42.667v180.702
				c-7.706-15.846-17.476-31.027-28.117-41.668c-13.85-13.833-41.097-14.788-56.09-2.022c-4.881,4.156-19.268,19.84,0.478,47.181
				c18.304,25.378,32.512,82.372,32.512,114.475c0,68.181,44.382,98.978,59.785,107.605v54.528c0,4.719,3.814,8.533,8.533,8.533
				h204.8c4.719,0,8.533-3.814,8.533-8.533v-57.02C508.685,413.015,508.677,408.962,508.549,341.753z M354.966,419.133h25.6
				c4.719,0,8.533,3.814,8.533,8.533c0,4.719-3.814,8.533-8.533,8.533h-25.6c-4.719,0-8.533-3.814-8.533-8.533
				C346.432,422.948,350.247,419.133,354.966,419.133z M389.099,470.333h-42.667c-4.719,0-8.533-3.814-8.533-8.533
				s3.814-8.533,8.533-8.533h42.667c4.719,0,8.533,3.814,8.533,8.533S393.818,470.333,389.099,470.333z"/>
			<path d="M103.224,26.6c-14.114,0-25.6,11.486-25.6,25.6s11.486,25.6,25.6,25.6s25.6-11.486,25.6-25.6S117.338,26.6,103.224,26.6z
				"/>
			<path d="M199.975,69.181l3.055-4.676l-3.055-4.676c-24.474-37.385-59.742-58.82-96.742-58.82S30.964,22.444,6.49,59.829
				l-3.055,4.676l3.055,4.676c24.474,37.385,59.742,58.82,96.742,58.82S175.501,106.566,199.975,69.181z M103.224,94.867
				c-23.526,0-42.667-19.14-42.667-42.667c0-23.526,19.14-42.667,42.667-42.667c23.526,0,42.667,19.14,42.667,42.667
				C145.89,75.726,126.75,94.867,103.224,94.867z"/>
		</g>
	</g>
</g>
<g>
</g>
<g>
</g>
<g>
</g>
<g>
</g>
<g>
</g>
<g>
</g>
<g>
</g>
<g>
</g>
<g>
</g>
<g>
</g>
<g>
</g>
<g>
</g>
<g>
</g>
<g>
</g>
<g>
</g>
</svg>
