<?xml version="1.0" encoding="iso-8859-1"?>
<!-- Generator: Adobe Illustrator 19.0.0, SVG Export Plug-In . SVG Version: 6.00 Build 0)  -->
<svg version="1.1" id="Layer_1" xmlns="http://www.w3.org/2000/svg" xmlns:xlink="http://www.w3.org/1999/xlink" x="0px" y="0px"
	 viewBox="0 0 512 512" style="enable-background:new 0 0 512 512;" xml:space="preserve">
<g>
	<g>
		<path d="M392.771,250.826c0.287-0.988,0.341-1.994,0.548-2.991c0.252-1.231,0.539-2.461,0.674-3.701
			c0.153-1.374,0.144-2.722,0.153-4.078c0.009-1.222,0.054-2.443-0.045-3.656c-0.126-1.455-0.422-2.865-0.701-4.294
			c-0.216-1.078-0.359-2.156-0.656-3.216c-0.476-1.68-1.141-3.27-1.815-4.869c-0.278-0.656-0.431-1.338-0.746-1.985
			c-0.054-0.117-0.144-0.216-0.198-0.332c-0.862-1.716-1.922-3.315-3.009-4.895c-0.395-0.566-0.71-1.195-1.123-1.743
			c-1.132-1.464-2.452-2.776-3.782-4.087c-0.53-0.512-0.961-1.114-1.518-1.59c-1.455-1.294-3.108-2.38-4.77-3.449
			c-0.53-0.35-0.979-0.79-1.527-1.105c-2.255-1.311-4.662-2.425-7.213-3.297c-2.407-0.835-4.842-1.374-7.276-1.734
			c-0.737-0.108-1.482-0.108-2.228-0.18c-1.716-0.153-3.413-0.243-5.111-0.18c-0.871,0.027-1.725,0.135-2.587,0.225
			c-1.626,0.162-3.225,0.413-4.806,0.781c-0.808,0.18-1.599,0.368-2.398,0.602c-0.566,0.171-1.159,0.243-1.716,0.44
			c-0.009-0.494-0.108-0.979-0.126-1.464c-0.036-0.746-0.117-1.464-0.198-2.201c-0.171-1.68-0.449-3.324-0.826-4.949
			c-0.171-0.692-0.314-1.383-0.512-2.075c-0.557-1.913-1.258-3.782-2.093-5.587c-0.144-0.296-0.234-0.62-0.377-0.907
			c-1.033-2.093-2.264-4.069-3.638-5.946c-0.359-0.485-0.763-0.916-1.141-1.383c-1.096-1.356-2.273-2.659-3.548-3.871
			c-0.548-0.521-1.114-1.015-1.698-1.509c-1.302-1.096-2.695-2.102-4.15-3.045c-0.593-0.377-1.15-0.772-1.761-1.123
			c-2.102-1.195-4.303-2.264-6.674-3.081l-1.509-0.521c-2.542-0.871-5.111-1.464-7.68-1.805c-1.051-0.144-2.093-0.072-3.153-0.126
			c-1.509-0.081-3.018-0.225-4.5-0.135c-1.222,0.072-2.389,0.368-3.584,0.548c-1.293,0.207-2.587,0.323-3.844,0.647
			c-1.293,0.332-2.506,0.871-3.746,1.329c-0.979,0.359-1.994,0.602-2.937,1.033l20.525-110.835
			c2.398-12.962,0.225-25.537-6.117-35.427C289.985,7.123,278.003,0,265.58,0c-22.034,0-37.259,21.845-40.933,43.511
			l-18.324,116.008L188.376,51.892c-8.533-37.331-28.456-42.909-39.568-42.909c-12.54,0-24.81,7.051-32.795,18.872
			c-6.467,9.557-8.964,21.89-7.051,34.726l25.968,172.679l11.048,56.652l-7.68,6.342c-28.007,19.717-30.433,40.206-30.477,68.967
			c-0.045,0.341-0.063,0.701-0.063,1.06c0,38.589,26.471,66.946,35.957,75.866v32.022c0,19.752,16.07,35.831,35.822,35.831h162.412
			c19.654,0,35.166-15.71,35.31-35.804l0.081-33.199c26.148-35.346,26.902-47.957,26.902-110.673
			C404.242,299.026,395.322,261.039,392.771,250.826z M249.914,224.858c-7.994,0.889-17.722,4.195-29.238,11.92
			c-11.408,7.662-35.463,25.627-58.7,43.331l-9.342-47.894L126.738,59.913c-1.267-8.372,0.216-16.186,4.15-21.998
			c4.644-6.872,11.345-10.968,17.92-10.968c12.764,0,19.043,15.746,21.953,28.42l26.947,161.684
			c0.719,4.339,4.473,7.509,8.866,7.509h0.036c4.41-0.018,8.147-3.225,8.83-7.581l26.938-170.568
			c2.317-13.68,11.848-28.447,23.202-28.447c6.36,0,12.539,3.943,16.941,10.797c3.862,6.027,5.129,14.004,3.566,22.465
			L258.78,198.701l-8.776,25.537C249.932,224.445,249.968,224.651,249.914,224.858z M275.2,324.689
			c-5.219,2.551-11.075,2.91-16.528,1.051l-1.509-0.53c-1.401-0.476-2.731-1.105-3.988-1.868
			c15.495-19.33,26.858-36.819,31.6-48.721c0.009-0.018,0.009-0.045,0.018-0.072c0.009-0.018,0.027-0.045,0.036-0.063
			c4.365-11.497,3.359-23.893-1.985-33.505c-3.126-6.988-7.734-13.276-13.51-17.722l9.962-29.004
			c3.889-11.282,16.204-17.336,27.531-13.438l1.5,0.521h0.009c11.291,3.88,17.327,16.231,13.447,27.531l-6.108,17.74l-29.48,85.711
			C284.317,317.745,280.419,322.147,275.2,324.689z M374.932,247.637L343,340.489c-1.949,5.641-6,10.204-11.399,12.845
			c-5.407,2.65-11.489,3.045-17.148,1.087c-11.704-4.024-17.965-16.833-13.932-28.537l2.65-7.716
			c0.009-0.009,0.009-0.018,0.018-0.027l29.489-85.729c0.117-0.341,0.314-0.638,0.44-0.979c0.431-1.06,0.871-2.12,1.437-3.081
			c0.296-0.503,0.692-0.934,1.024-1.41c0.512-0.719,0.979-1.464,1.563-2.12c0.566-0.629,1.24-1.168,1.877-1.734
			c0.44-0.386,0.844-0.835,1.311-1.186c1.15-0.871,2.398-1.644,3.728-2.3c1.446-0.701,2.946-1.204,4.473-1.581
			c0.575-0.153,1.186-0.207,1.779-0.305c0.943-0.153,1.886-0.287,2.839-0.323c0.952-0.036,1.913-0.009,2.874,0.081
			c0.35,0.036,0.71,0.036,1.06,0.09c1.374,0.198,2.758,0.485,4.123,0.952c5.632,1.94,10.195,5.991,12.836,11.408
			C376.684,235.322,377.07,241.395,374.932,247.637z"/>
	</g>
</g>
<g>
</g>
<g>
</g>
<g>
</g>
<g>
</g>
<g>
</g>
<g>
</g>
<g>
</g>
<g>
</g>
<g>
</g>
<g>
</g>
<g>
</g>
<g>
</g>
<g>
</g>
<g>
</g>
<g>
</g>
</svg>
