<?xml version="1.0" encoding="iso-8859-1"?>
<!-- Generator: Adobe Illustrator 19.0.0, SVG Export Plug-In . SVG Version: 6.00 Build 0)  -->
<svg version="1.1" id="Layer_1" xmlns="http://www.w3.org/2000/svg" xmlns:xlink="http://www.w3.org/1999/xlink" x="0px" y="0px"
	 viewBox="0 0 512.003 512.003" style="enable-background:new 0 0 512.003 512.003;" xml:space="preserve">
<g transform="translate(-1 -1)">
	<g>
		<g>
			<path d="M98.629,92.721c-0.128-0.495-0.205-0.99-0.427-1.451c-0.205-0.452-0.546-0.836-0.845-1.254
				c-0.358-0.503-0.683-0.998-1.135-1.408c-0.094-0.085-0.137-0.213-0.239-0.299c-0.299-0.247-0.674-0.333-0.998-0.538
				c-0.512-0.324-0.998-0.648-1.579-0.853c-0.58-0.213-1.161-0.273-1.758-0.358c-0.384-0.051-0.725-0.222-1.118-0.222H47.865
				c-4.719,0-8.533,3.814-8.533,8.533s3.814,8.533,8.533,8.533H72.33l-30.95,37.205c-3.012,3.627-2.526,9.011,1.101,12.023
				c1.587,1.323,3.533,1.971,5.453,1.971c2.449,0,4.881-1.05,6.562-3.072l27.503-33.058v19.063c0,4.719,3.814,8.533,8.533,8.533
				s8.533-3.814,8.533-8.533V94.871c0-0.137-0.068-0.247-0.077-0.375C98.962,93.881,98.783,93.318,98.629,92.721z"/>
			<path d="M175.863,60.737c0-4.719-3.814-8.533-8.533-8.533h-24.431l31.053-37.197c3.029-3.618,2.534-9.003-1.084-12.023
				c-3.61-3.029-9.003-2.526-12.015,1.084l-27.656,33.135V18.07c0-4.719-3.814-8.533-8.533-8.533c-4.719,0-8.533,3.814-8.533,8.533
				v42.667c0,0.128,0.068,0.239,0.077,0.367c0.026,0.606,0.196,1.169,0.35,1.758c0.137,0.503,0.213,1.016,0.427,1.476
				c0.213,0.444,0.546,0.819,0.828,1.229c0.367,0.503,0.691,1.016,1.161,1.434c0.085,0.085,0.128,0.205,0.222,0.29
				c0.401,0.333,0.87,0.495,1.306,0.742c0.358,0.205,0.674,0.461,1.067,0.614c1.007,0.393,2.039,0.623,3.089,0.623h0.008h42.667
				C172.048,69.27,175.863,65.456,175.863,60.737z"/>
			<path d="M474.656,341.919l-0.017-119.049c0-20.139-16.444-42.667-38.451-42.667c-8.064,0-15.3,2.953-21.248,7.654v-7.654
				c0-20.19-16.435-42.769-38.417-42.769c-8.055,0-15.369,3.038-21.393,7.868c-0.41-19.942-16.7-41.899-38.409-41.899
				c-8.09,0-15.334,2.935-21.282,7.62V43.67c0-20.139-16.435-42.667-38.417-42.667c-21.965,0-38.383,22.528-38.383,42.667v180.804
				c-8.03-16.35-18.048-31.667-28.151-41.771c-13.807-13.815-41.062-14.814-56.09-2.022c-4.873,4.156-19.268,19.84,0.478,47.181
				c18.304,25.37,32.512,82.364,32.512,114.475c0,68.181,44.356,98.978,59.75,107.597v54.536c0,4.719,3.814,8.533,8.533,8.533h204.8
				c4.71,0,8.525-3.814,8.533-8.516l0.085-57.028C474.792,413.044,474.784,408.999,474.656,341.919z M321.005,419.137h25.6
				c4.719,0,8.533,3.814,8.533,8.533c0,4.719-3.814,8.533-8.533,8.533h-25.6c-4.719,0-8.533-3.814-8.533-8.533
				C312.471,422.951,316.286,419.137,321.005,419.137z M355.138,470.337h-42.667c-4.719,0-8.533-3.814-8.533-8.533
				s3.814-8.533,8.533-8.533h42.667c4.719,0,8.533,3.814,8.533,8.533S359.857,470.337,355.138,470.337z"/>
		</g>
	</g>
</g>
<g>
</g>
<g>
</g>
<g>
</g>
<g>
</g>
<g>
</g>
<g>
</g>
<g>
</g>
<g>
</g>
<g>
</g>
<g>
</g>
<g>
</g>
<g>
</g>
<g>
</g>
<g>
</g>
<g>
</g>
</svg>
