<?xml version="1.0" encoding="iso-8859-1"?>
<!-- Generator: Adobe Illustrator 19.0.0, SVG Export Plug-In . SVG Version: 6.00 Build 0)  -->
<svg xmlns="http://www.w3.org/2000/svg" xmlns:xlink="http://www.w3.org/1999/xlink" version="1.1" id="Layer_1" x="0px" y="0px" viewBox="0 0 511.999 511.999" style="enable-background:new 0 0 511.999 511.999;" xml:space="preserve">
<g>
	<g>
		<path d="M174.115,375.671c-27.67,0-50.195,22.525-50.195,50.195c0,27.681,22.525,50.195,50.195,50.195    c27.681,0,50.195-22.515,50.195-50.195C224.31,398.196,201.795,375.671,174.115,375.671z"/>
	</g>
</g>
<g>
	<g>
		<path d="M437.64,400.768v-56.47h-27.451V99.858c0-46.995-38.232-85.227-85.227-85.227H187.709    c-46.995,0-85.227,38.232-85.227,85.227v65.463C42.101,192.678,0,253.518,0,324.011v120.207h94.629    c-1.359-5.898-2.081-12.047-2.081-18.353c0-44.977,36.59-81.567,81.567-81.567c5.365,0,10.604,0.523,15.686,1.516V149.897h-15.686    c-13.856,0-27.336,1.631-40.261,4.706V99.858c0-29.688,24.156-53.855,53.855-53.855h137.253c29.699,0,53.855,24.167,53.855,53.855    v244.44H351.89v56.47h-79.999v96.6l240.07-0.032l0.038-96.573L437.64,400.768z M139.334,220.651v26.394h-26.394v-26.394H139.334z"/>
	</g>
</g>
<g>
</g>
<g>
</g>
<g>
</g>
<g>
</g>
<g>
</g>
<g>
</g>
<g>
</g>
<g>
</g>
<g>
</g>
<g>
</g>
<g>
</g>
<g>
</g>
<g>
</g>
<g>
</g>
<g>
</g>
</svg>
