<?xml version="1.0" encoding="iso-8859-1"?>
<!-- Generator: Adobe Illustrator 19.0.0, SVG Export Plug-In . SVG Version: 6.00 Build 0)  -->
<svg xmlns="http://www.w3.org/2000/svg" xmlns:xlink="http://www.w3.org/1999/xlink" version="1.1" id="Layer_1" x="0px" y="0px" viewBox="0 0 512 512" style="enable-background:new 0 0 512 512;" xml:space="preserve">
<g>
	<g>
		<polygon points="463.37,248.927 393.216,248.927 416.507,353.667 483.746,353.667   "/>
	</g>
</g>
<g>
	<g>
		<polygon points="361.096,248.927 316.322,248.927 321.494,278.915 367.773,278.915   "/>
	</g>
</g>
<g>
	<g>
		<path d="M475.602,60.395c-9.086-6.914-20.272-10.501-31.69-10.501h-55.21v167.685h54.961c11.344,0.001,22.452-3.554,31.519-10.372    C497.521,190.408,512,163.684,512,133.643C512,103.793,497.704,77.214,475.602,60.395z"/>
	</g>
</g>
<g>
	<g>
		<rect x="303.574" y="385.014" width="182.878" height="77.093"/>
	</g>
</g>
<g>
	<g>
		<path d="M125.388,67.814c-30.898,0-56.874,21.399-63.927,50.155H0v31.347h61.461c7.053,28.756,33.029,50.155,63.927,50.155h77.908    V67.814H125.388z"/>
	</g>
</g>
<g>
	<g>
		<rect x="234.642" y="49.894" width="122.713" height="167.685"/>
	</g>
</g>
<g>
</g>
<g>
</g>
<g>
</g>
<g>
</g>
<g>
</g>
<g>
</g>
<g>
</g>
<g>
</g>
<g>
</g>
<g>
</g>
<g>
</g>
<g>
</g>
<g>
</g>
<g>
</g>
<g>
</g>
</svg>
