<?xml version="1.0" encoding="iso-8859-1"?>
<!-- Generator: Adobe Illustrator 19.0.0, SVG Export Plug-In . SVG Version: 6.00 Build 0)  -->
<svg xmlns="http://www.w3.org/2000/svg" xmlns:xlink="http://www.w3.org/1999/xlink" version="1.1" id="Layer_1" x="0px" y="0px" viewBox="0 0 512 512" style="enable-background:new 0 0 512 512;" xml:space="preserve">
<g>
	<g>
		<path d="M172.931,243.983c-6.626,0-12.016,5.391-12.016,12.016c0,6.626,5.391,12.016,12.016,12.016    c6.626,0,12.016-5.391,12.016-12.016C184.947,249.374,179.556,243.983,172.931,243.983z"/>
	</g>
</g>
<g>
	<g>
		<path d="M0,80.124v351.751h512V80.124H0z M54.335,128.228h22.988v22.988H54.335V128.228z M77.322,381.094H54.335v-22.988h22.988    V381.094z M172.931,367.281c-61.361,0-111.282-49.92-111.282-111.282s49.921-111.282,111.282-111.282    s111.282,49.92,111.282,111.282S234.291,367.281,172.931,367.281z M388.496,189.282v95.414l-16.368,20.199l11.694,8.977    l-61.715,80.401l-49.732-38.174l61.715-80.401l13.164,10.104l9.895-12.212v-84.309h-16.718v-31.347h16.718v-21.895h31.347v21.895    h17.762v31.348H388.496z M469.277,312.822h-13.702v66.274h-31.347v-66.274h-13.702v-31.347h13.702v-17.408h31.347v17.408h13.702    V312.822z"/>
	</g>
</g>
<g>
	<g>
		<path d="M172.931,176.065c-44.076,0-79.935,35.858-79.935,79.935s35.859,79.935,79.935,79.935    c44.076,0,79.935-35.858,79.935-79.935S217.007,176.065,172.931,176.065z M172.931,299.363c-23.91,0-43.363-19.453-43.363-43.363    s19.453-43.363,43.363-43.363s43.363,19.453,43.363,43.363S196.841,299.363,172.931,299.363z"/>
	</g>
</g>
<g>
</g>
<g>
</g>
<g>
</g>
<g>
</g>
<g>
</g>
<g>
</g>
<g>
</g>
<g>
</g>
<g>
</g>
<g>
</g>
<g>
</g>
<g>
</g>
<g>
</g>
<g>
</g>
<g>
</g>
</svg>
