<?xml version="1.0" encoding="iso-8859-1"?>
<!-- Generator: Adobe Illustrator 19.0.0, SVG Export Plug-In . SVG Version: 6.00 Build 0)  -->
<svg xmlns="http://www.w3.org/2000/svg" xmlns:xlink="http://www.w3.org/1999/xlink" version="1.1" id="Layer_1" x="0px" y="0px" viewBox="0 0 512 512" style="enable-background:new 0 0 512 512;" xml:space="preserve">
<g>
	<g>
		<path d="M0,0.266v511.467h512V0.266H0z M240.327,91.005h31.347v190.986h-31.347V91.005z M256,436.668    c-85.295,0-154.687-69.392-154.687-154.676c0-41.326,16.091-80.165,45.307-109.38l22.162,22.162    c-23.291,23.291-36.122,54.272-36.122,87.218c0,68.002,55.327,123.329,123.34,123.329s123.34-55.327,123.34-123.329    c0-32.946-12.831-63.927-36.122-87.218l22.162-22.162c29.215,29.215,45.307,68.054,45.307,109.38    C410.687,367.276,341.295,436.668,256,436.668z"/>
	</g>
</g>
<g>
</g>
<g>
</g>
<g>
</g>
<g>
</g>
<g>
</g>
<g>
</g>
<g>
</g>
<g>
</g>
<g>
</g>
<g>
</g>
<g>
</g>
<g>
</g>
<g>
</g>
<g>
</g>
<g>
</g>
</svg>
