<?xml version="1.0" encoding="iso-8859-1"?>
<!-- Generator: Adobe Illustrator 19.0.0, SVG Export Plug-In . SVG Version: 6.00 Build 0)  -->
<svg xmlns="http://www.w3.org/2000/svg" xmlns:xlink="http://www.w3.org/1999/xlink" version="1.1" id="Layer_1" x="0px" y="0px" viewBox="0 0 512 512" style="enable-background:new 0 0 512 512;" xml:space="preserve">
<g>
	<g>
		<path d="M256,4.642c-65.296,0-118.418,53.123-118.418,118.418c0,56.341,39.549,103.612,92.348,115.513h52.14    c52.799-11.901,92.348-59.173,92.348-115.513C374.418,57.765,321.296,4.642,256,4.642z M256,164.856    c-23.05,0-41.796-18.745-41.796-41.796c0-23.04,18.745-41.796,41.796-41.796c23.05,0,41.796,18.756,41.796,41.796    C297.796,146.111,279.05,164.856,256,164.856z"/>
	</g>
</g>
<g>
	<g>
		<path d="M256,112.611c-5.757,0-10.449,4.692-10.449,10.449s4.692,10.449,10.449,10.449s10.449-4.692,10.449-10.449    S261.757,112.611,256,112.611z"/>
	</g>
</g>
<g>
	<g>
		<rect x="424.229" y="459.011" width="87.771" height="48.347"/>
	</g>
</g>
<g>
	<g>
		<path d="M0,269.921v157.738h512V269.921H0z M120.686,383.01H97.698v-22.988h22.988V383.01z M171.886,383.01h-22.988v-22.988    h22.988V383.01z M223.608,383.01H200.62v-22.988h22.988V383.01z M275.853,383.01h-22.988v-22.988h22.988V383.01z M327.576,383.01    h-22.988v-22.988h22.988V383.01z M369.894,337.996H55.38v-31.347h314.514V337.996z M411.815,344.161v-43.687l30.302,21.849    L411.815,344.161z"/>
	</g>
</g>
<g>
	<g>
		<rect y="459.011" width="87.771" height="48.347"/>
	</g>
</g>
<g>
</g>
<g>
</g>
<g>
</g>
<g>
</g>
<g>
</g>
<g>
</g>
<g>
</g>
<g>
</g>
<g>
</g>
<g>
</g>
<g>
</g>
<g>
</g>
<g>
</g>
<g>
</g>
<g>
</g>
</svg>
