<?xml version="1.0" encoding="iso-8859-1"?>
<!-- Generator: Adobe Illustrator 19.0.0, SVG Export Plug-In . SVG Version: 6.00 Build 0)  -->
<svg xmlns="http://www.w3.org/2000/svg" xmlns:xlink="http://www.w3.org/1999/xlink" version="1.1" id="Layer_1" x="0px" y="0px" viewBox="0 0 512 512" style="enable-background:new 0 0 512 512;" xml:space="preserve">
<g>
	<g>
		<path d="M287.99,171.263c-1.779-6.321-5.4-11.888-10.234-16.074c-5.839-5.065-13.447-8.131-21.756-8.131    c-8.319,0-15.927,3.066-21.766,8.141c-4.824,4.186-8.445,9.743-10.224,16.053c-0.816,2.878-1.256,5.912-1.256,9.052    c0,14.42,9.24,26.747,22.122,31.331c3.474,1.245,7.221,1.915,11.124,1.915c3.893,0,7.639-0.67,11.113-1.915    c12.882-4.583,22.133-16.9,22.133-31.331C289.246,177.176,288.806,174.141,287.99,171.263z"/>
	</g>
</g>
<g>
	<g>
		<path d="M434.421,178.421C434.421,80.033,354.377,0,256,0C157.612,0,77.579,80.033,77.579,178.421    c0,92.182,70.28,168.27,160.077,177.49v63.708h-5.546c-32.712,0-59.334,26.622-59.334,59.334V512H333.93v-33.047    c0-32.712-26.622-59.334-59.334-59.334h-5.546V356.36C361.357,349.663,434.421,272.414,434.421,178.421z M284.118,459.384v15.875    h-15.875v-15.875H284.118z M256,244.944c-10.485,0-20.385-2.512-29.154-6.959l-23.472,34.282    c-5.829,8.518-15.132,13.405-25.513,13.405c-16.074,0-32.524-11.187-42.915-29.186l-7.084-12.264    c-10.036-17.392-11.741-36.793-4.447-50.617c5.096-9.69,14.211-15.718,24.989-16.544l43.292-3.317    c1.999-19.768,12.945-36.94,28.725-47.373L201.03,85.925c-4.678-9.753-4.008-20.657,1.821-29.918    c8.33-13.238,25.984-21.452,46.065-21.452h14.159c20.082,0,37.735,8.215,46.065,21.452c5.839,9.261,6.498,20.165,1.821,29.918    l-19.38,40.446c15.781,10.433,26.727,27.606,28.725,47.373l43.281,3.317c10.779,0.827,19.893,6.854,25,16.544    c7.294,13.824,5.588,33.225-4.458,50.617l-7.074,12.264c-10.402,17.999-26.842,29.186-42.926,29.186    c-10.381,0-19.673-4.887-25.513-13.405l-23.462-34.282C276.385,242.433,266.486,244.944,256,244.944z"/>
	</g>
</g>
<g>
	<g>
		<path d="M360.897,208.339l-45.113-3.464c-1.81,4.385-4.092,8.539-6.781,12.38l25.345,37.024    c3.296-0.188,10.318-4.489,15.519-13.489l7.074-12.264C362.592,218.741,362.111,210.62,360.897,208.339z"/>
	</g>
</g>
<g>
	<g>
		<path d="M263.074,65.948h-14.159c-11.291,0-18.093,4.468-19.454,6.666l20.762,43.313c1.905-0.178,3.83-0.262,5.776-0.262    c1.946,0,3.872,0.084,5.776,0.262l20.751-43.313C281.167,70.416,274.376,65.948,263.074,65.948z"/>
	</g>
</g>
<g>
	<g>
		<path d="M196.216,204.875l-45.113,3.464c-1.224,2.281-1.695,10.402,3.956,20.186l7.074,12.264c5.201,9,12.212,13.3,15.519,13.489    l25.345-37.024C200.308,213.414,198.026,209.26,196.216,204.875z"/>
	</g>
</g>
<g>
</g>
<g>
</g>
<g>
</g>
<g>
</g>
<g>
</g>
<g>
</g>
<g>
</g>
<g>
</g>
<g>
</g>
<g>
</g>
<g>
</g>
<g>
</g>
<g>
</g>
<g>
</g>
<g>
</g>
</svg>
