<?xml version="1.0" encoding="iso-8859-1"?>
<!-- Generator: Adobe Illustrator 19.0.0, SVG Export Plug-In . SVG Version: 6.00 Build 0)  -->
<svg xmlns="http://www.w3.org/2000/svg" xmlns:xlink="http://www.w3.org/1999/xlink" version="1.1" id="Layer_1" x="0px" y="0px" viewBox="0 0 512 512" style="enable-background:new 0 0 512 512;" xml:space="preserve">
<g>
	<g>
		<polygon points="346.849,372.914 162.476,372.914 142.602,512 366.723,512   "/>
	</g>
</g>
<g>
	<g>
		<polygon points="393.974,69.956 434.474,0 125.424,0 131.85,58.326 77.526,58.326 77.526,235.635 108.873,235.635 108.873,89.673     135.299,89.673 163.041,341.567 343.693,341.567 348.656,304.023 265.179,304.023 265.179,272.677 352.805,272.677     357.653,236.105 265.179,236.105 265.179,204.758 361.801,204.758 366.566,168.73 265.179,168.73 265.179,137.383     370.714,137.383 375.395,102.045 375.824,101.303 265.179,101.303 265.179,69.956   "/>
	</g>
</g>
<g>
</g>
<g>
</g>
<g>
</g>
<g>
</g>
<g>
</g>
<g>
</g>
<g>
</g>
<g>
</g>
<g>
</g>
<g>
</g>
<g>
</g>
<g>
</g>
<g>
</g>
<g>
</g>
<g>
</g>
</svg>
