<?xml version="1.0" encoding="iso-8859-1"?>
<!-- Generator: Adobe Illustrator 19.0.0, SVG Export Plug-In . SVG Version: 6.00 Build 0)  -->
<svg xmlns="http://www.w3.org/2000/svg" xmlns:xlink="http://www.w3.org/1999/xlink" version="1.1" id="Layer_1" x="0px" y="0px" viewBox="0 0 512 512" style="enable-background:new 0 0 512 512;" xml:space="preserve">
<g>
	<g>
		<path d="M184.952,159.69c7.36,49.459,50.097,87.523,101.585,87.523c51.477,0,94.214-38.064,101.585-87.523H184.952z"/>
	</g>
</g>
<g>
	<g>
		<polygon points="111.323,480.637 111.323,245.572 147.704,159.69 113.633,159.69 79.96,239.205 79.96,512 287.311,512     287.311,480.637   "/>
	</g>
</g>
<g>
	<g>
		<polygon points="384.431,0 180.75,0 126.921,128.327 432.04,128.327   "/>
	</g>
</g>
<g>
	<g>
		
			<rect x="178.712" y="259.714" transform="matrix(0.6768 -0.7361 0.7361 0.6768 -136.7393 239.3134)" width="50.965" height="31.361"/>
	</g>
</g>
<g>
	<g>
		
			<rect x="356.842" y="249.918" transform="matrix(0.7361 -0.6768 0.6768 0.7361 -88.1047 324.8044)" width="31.361" height="50.965"/>
	</g>
</g>
<g>
	<g>
		<rect x="271.634" y="267.076" width="31.363" height="45.361"/>
	</g>
</g>
<g>
</g>
<g>
</g>
<g>
</g>
<g>
</g>
<g>
</g>
<g>
</g>
<g>
</g>
<g>
</g>
<g>
</g>
<g>
</g>
<g>
</g>
<g>
</g>
<g>
</g>
<g>
</g>
<g>
</g>
</svg>
