<?xml version="1.0" encoding="iso-8859-1"?>
<!-- Generator: Adobe Illustrator 19.0.0, SVG Export Plug-In . SVG Version: 6.00 Build 0)  -->
<svg xmlns="http://www.w3.org/2000/svg" xmlns:xlink="http://www.w3.org/1999/xlink" version="1.1" id="Layer_1" x="0px" y="0px" viewBox="0 0 512 512" style="enable-background:new 0 0 512 512;" xml:space="preserve">
<g>
	<g>
		<polygon points="168.188,194.645 138.509,194.645 138.509,151.586 107.224,151.586 107.224,194.645 61.861,194.645     61.861,151.586 30.576,151.586 30.576,194.645 0.897,194.645 18.51,263.555 5.391,263.555 5.391,263.639 163.683,263.639     163.683,263.555 150.564,263.555   "/>
	</g>
</g>
<g>
	<g>
		<path d="M377.047,86.607c-27.812,0-50.431,22.619-50.431,50.421c0,27.812,22.619,50.431,50.431,50.431    c27.802,0,50.421-22.619,50.421-50.431C427.468,109.226,404.849,86.607,377.047,86.607z M366.097,146.873h-20.335v-20.335h20.335    V146.873z M408.321,146.873h-20.325v-20.335h20.325V146.873z"/>
	</g>
</g>
<g>
	<g>
		<rect x="5.391" y="294.924" width="158.292" height="42.652"/>
	</g>
</g>
<g>
	<g>
		<path d="M242.98,0v456.761h118.424v23.954H100.185V368.861H68.9V512h323.789v-55.239h118.414V0H242.98z M377.047,405.694    c-45.061,0-81.716-36.656-81.716-81.706c0-45.061,36.656-81.716,81.716-81.716c45.05,0,81.706,36.656,81.706,81.716    C458.753,369.038,422.097,405.694,377.047,405.694z M377.047,218.745c-45.061,0-81.716-36.656-81.716-81.716    c0-45.05,36.656-81.706,81.716-81.706c45.05,0,81.706,36.656,81.706,81.706C458.753,182.089,422.097,218.745,377.047,218.745z"/>
	</g>
</g>
<g>
	<g>
		<path d="M377.047,273.556c-27.812,0-50.431,22.63-50.431,50.431c0,27.802,22.619,50.421,50.431,50.421    c27.802,0,50.421-22.619,50.421-50.421S404.849,273.556,377.047,273.556z M366.097,333.821h-20.335v-20.335h20.335V333.821z     M408.321,333.821h-20.325v-20.335h20.325V333.821z"/>
	</g>
</g>
<g>
</g>
<g>
</g>
<g>
</g>
<g>
</g>
<g>
</g>
<g>
</g>
<g>
</g>
<g>
</g>
<g>
</g>
<g>
</g>
<g>
</g>
<g>
</g>
<g>
</g>
<g>
</g>
<g>
</g>
</svg>
