<?xml version="1.0" encoding="iso-8859-1"?>
<!-- Generator: Adobe Illustrator 19.0.0, SVG Export Plug-In . SVG Version: 6.00 Build 0)  -->
<svg xmlns="http://www.w3.org/2000/svg" xmlns:xlink="http://www.w3.org/1999/xlink" version="1.1" id="Layer_1" x="0px" y="0px" viewBox="0 0 512 512" style="enable-background:new 0 0 512 512;" xml:space="preserve">
<g>
	<g>
		<path d="M129.167,358.713c-13.168,0-23.88,10.712-23.88,23.88s10.712,23.88,23.88,23.88c13.168,0,23.88-10.712,23.88-23.88    S142.334,358.713,129.167,358.713z"/>
	</g>
</g>
<g>
	<g>
		<path d="M129.167,228.765c-13.168,0-23.88,10.712-23.88,23.88s10.712,23.88,23.88,23.88c13.168,0,23.88-10.712,23.88-23.88    S142.334,228.765,129.167,228.765z"/>
	</g>
</g>
<g>
	<g>
		<path d="M438.917,137.323V18.116H73.083v119.206H0v356.561h512V137.323H438.917z M442.589,259.663v31.347H259.282v-31.347H442.589    z M298.154,251.502v-31.347h105.561v31.347H298.154z M104.43,49.463h303.14v87.859H104.43V49.463z M129.167,437.821    c-30.453,0-55.227-24.775-55.227-55.227s24.775-55.227,55.227-55.227s55.227,24.775,55.227,55.227    S159.619,437.821,129.167,437.821z M129.167,307.872c-30.453,0-55.227-24.775-55.227-55.227s24.775-55.227,55.227-55.227    s55.227,24.775,55.227,55.227S159.619,307.872,129.167,307.872z M298.154,411.051v-31.347h105.561v31.347H298.154z     M442.59,371.543L442.59,371.543H259.282v-31.347H442.59V371.543z M244.559,330.608v-31.347H457.31v31.347H244.559z"/>
	</g>
</g>
<g>
</g>
<g>
</g>
<g>
</g>
<g>
</g>
<g>
</g>
<g>
</g>
<g>
</g>
<g>
</g>
<g>
</g>
<g>
</g>
<g>
</g>
<g>
</g>
<g>
</g>
<g>
</g>
<g>
</g>
</svg>
