<?xml version="1.0" encoding="iso-8859-1"?>
<!-- Generator: Adobe Illustrator 19.0.0, SVG Export Plug-In . SVG Version: 6.00 Build 0)  -->
<svg xmlns="http://www.w3.org/2000/svg" xmlns:xlink="http://www.w3.org/1999/xlink" version="1.1" id="Layer_1" x="0px" y="0px" viewBox="0 0 512 512" style="enable-background:new 0 0 512 512;" xml:space="preserve">
<g>
	<g>
		<path d="M395.201,0H116.799c-27.24,0-49.403,22.162-49.403,49.403v33.144h377.208V49.403C444.604,22.162,422.442,0,395.201,0z     M284.223,65.515h-91.972V46.707h91.972V65.515z M319.749,65.515h-18.798V46.707h18.798V65.515z"/>
	</g>
</g>
<g>
	<g>
		<path d="M67.396,425.273v37.324c0,27.24,22.162,49.403,49.403,49.403h278.403c27.24,0,49.403-22.162,49.403-49.403v-37.324H67.396    z M292.091,480.653h-72.182v-31.347h72.182V480.653z"/>
	</g>
</g>
<g>
	<g>
		<rect x="67.396" y="113.894" width="377.208" height="280.033"/>
	</g>
</g>
<g>
</g>
<g>
</g>
<g>
</g>
<g>
</g>
<g>
</g>
<g>
</g>
<g>
</g>
<g>
</g>
<g>
</g>
<g>
</g>
<g>
</g>
<g>
</g>
<g>
</g>
<g>
</g>
<g>
</g>
</svg>
