<?xml version="1.0" encoding="iso-8859-1"?>
<!-- Generator: Adobe Illustrator 19.0.0, SVG Export Plug-In . SVG Version: 6.00 Build 0)  -->
<svg xmlns="http://www.w3.org/2000/svg" xmlns:xlink="http://www.w3.org/1999/xlink" version="1.1" id="Layer_1" x="0px" y="0px" viewBox="0 0 512 512" style="enable-background:new 0 0 512 512;" xml:space="preserve">
<g>
	<g>
		<rect x="106.458" y="0.758" width="298.039" height="134.013"/>
	</g>
</g>
<g>
	<g>
		<path d="M138.091,346.379v164.863h235.556V346.379H138.091z M336.523,469.119H174.431v-31.373h0h162.091V469.119z     M336.523,414.217H174.431v-31.373h0h162.091V414.217z"/>
	</g>
</g>
<g>
	<g>
		<path d="M0,166.144v65.882h512v-65.882H0z M447.655,216.047H411.19v-31.373h36.465V216.047z"/>
	</g>
</g>
<g>
	<g>
		<polygon points="0,263.399 0,435.644 106.458,435.644 106.719,346.379 62.536,346.379 62.536,315.007 446.85,315.007     446.85,346.379 405.02,346.379 405.02,435.644 512,435.644 512,263.399   "/>
	</g>
</g>
<g>
</g>
<g>
</g>
<g>
</g>
<g>
</g>
<g>
</g>
<g>
</g>
<g>
</g>
<g>
</g>
<g>
</g>
<g>
</g>
<g>
</g>
<g>
</g>
<g>
</g>
<g>
</g>
<g>
</g>
</svg>
