<?xml version="1.0" encoding="iso-8859-1"?>
<!-- Generator: Adobe Illustrator 19.0.0, SVG Export Plug-In . SVG Version: 6.00 Build 0)  -->
<svg xmlns="http://www.w3.org/2000/svg" xmlns:xlink="http://www.w3.org/1999/xlink" version="1.1" id="Capa_1" x="0px" y="0px" viewBox="0 0 512.001 512.001" style="enable-background:new 0 0 512.001 512.001;" xml:space="preserve">
<g>
	<g>
		<path d="M447.534,37.498c-49.998-49.998-131.353-49.998-181.35,0c-30.879,30.88-42.678,73.719-35.414,113.746L47.233,334.783    c-13.068,13.068-20.265,30.443-20.265,48.921c0,12.652,3.378,24.782,9.701,35.37c1.916,3.208,6.326,3.784,8.969,1.141    L223.044,242.81c5.86-5.859,15.362-5.861,21.222,0c5.86,5.859,5.86,15.361,0,21.222l-38.783,38.783c-2.23,2.23-2.23,5.846,0,8.076    l10.568,10.568c5.86,5.859,5.86,15.361,0,21.222c-2.93,2.93-6.771,4.396-10.61,4.396s-7.681-1.466-10.61-4.396l-10.568-10.568    c-2.23-2.23-5.846-2.23-8.076,0l-59.309,59.309c-2.23,2.23-2.23,5.846,0,8.076l10.568,10.568c5.86,5.859,5.86,15.361,0,21.222    c-2.93,2.93-6.771,4.396-10.61,4.396c-3.84,0-7.681-1.466-10.61-4.396l-10.568-10.568c-2.23-2.23-5.846-2.23-8.076,0    l-22.086,22.086c-2.23,2.23-2.23,5.846,0,8.076l25.229,25.229c0.746,0.747,1.554,1.397,2.403,1.953    c0.555,0.845,1.202,1.648,1.945,2.391l21.716,21.716c6.554,6.553,15.161,9.829,23.771,9.829c8.608,0,17.218-3.276,23.772-9.83    l33.997-33.998c6.351-6.35,9.848-14.792,9.848-23.772c0-8.981-3.497-17.423-9.847-23.772l-15.45-15.45l7.586-7.586l15.231,15.232    c6.554,6.553,15.161,9.829,23.771,9.829c8.608,0,17.218-3.276,23.772-9.83l33.997-33.998c6.351-6.35,9.848-14.792,9.848-23.772    c0-8.981-3.497-17.423-9.847-23.772l-15.231-15.231l61.788-61.788c7.623,1.384,15.346,2.084,23.072,2.084    c32.838,0,65.675-12.499,90.675-37.499C497.532,168.85,497.532,87.497,447.534,37.498z M388.015,159.33    c-17.18,17.179-45.134,17.179-62.312,0c-17.179-17.179-17.179-45.133,0-62.313c8.591-8.591,19.871-12.884,31.157-12.884    c11.281,0,22.567,4.296,31.156,12.884C405.195,114.196,405.195,142.151,388.015,159.33z"/>
	</g>
</g>
<g>
</g>
<g>
</g>
<g>
</g>
<g>
</g>
<g>
</g>
<g>
</g>
<g>
</g>
<g>
</g>
<g>
</g>
<g>
</g>
<g>
</g>
<g>
</g>
<g>
</g>
<g>
</g>
<g>
</g>
</svg>
