<?xml version="1.0" encoding="iso-8859-1"?>
<!-- Generator: Adobe Illustrator 19.0.0, SVG Export Plug-In . SVG Version: 6.00 Build 0)  -->
<svg xmlns="http://www.w3.org/2000/svg" xmlns:xlink="http://www.w3.org/1999/xlink" version="1.1" id="Capa_1" x="0px" y="0px" viewBox="0 0 512 512" style="enable-background:new 0 0 512 512;" xml:space="preserve">
<g>
	<g>
		<path d="M437.02,74.981C388.668,26.628,324.381,0,256.001,0S123.333,26.628,74.981,74.981C26.63,123.334,0,187.62,0,256    s26.628,132.667,74.981,181.019C123.334,485.371,187.62,512,256,512s132.667-26.628,181.019-74.981    C485.37,388.667,512,324.38,512,256S485.371,123.334,437.02,74.981z M240.987,114.141c0-8.292,6.722-15.014,15.014-15.014    s15.014,6.722,15.014,15.014v149.174c0,8.292-6.722,15.014-15.014,15.014s-15.014-6.722-15.014-15.014V114.141z M256.001,407.525    c-82.431,0-149.493-67.063-149.493-149.493c0-25.953,6.758-51.523,19.544-73.948c12.39-21.732,30.194-40.17,51.49-53.322    c7.052-4.358,16.306-2.171,20.663,4.883c4.358,7.055,2.171,16.306-4.883,20.664c-35.556,21.962-56.784,59.99-56.784,101.724    c0,65.874,53.592,119.466,119.466,119.466s119.466-53.592,119.466-119.466c0-21.536-4.951-42.249-14.319-59.9    c-9.299-17.522-23.034-32.141-39.719-42.279c-7.086-4.306-9.34-13.54-5.035-20.627c4.306-7.086,13.54-9.34,20.627-5.035    c42.876,26.052,68.473,73.843,68.473,127.842C405.493,340.462,338.432,407.525,256.001,407.525z"/>
	</g>
</g>
<g>
</g>
<g>
</g>
<g>
</g>
<g>
</g>
<g>
</g>
<g>
</g>
<g>
</g>
<g>
</g>
<g>
</g>
<g>
</g>
<g>
</g>
<g>
</g>
<g>
</g>
<g>
</g>
<g>
</g>
</svg>
