<?xml version="1.0" encoding="iso-8859-1"?>
<!-- Generator: Adobe Illustrator 19.0.0, SVG Export Plug-In . SVG Version: 6.00 Build 0)  -->
<svg xmlns="http://www.w3.org/2000/svg" xmlns:xlink="http://www.w3.org/1999/xlink" version="1.1" id="Capa_1" x="0px" y="0px" viewBox="0 0 511.999 511.999" style="enable-background:new 0 0 511.999 511.999;" xml:space="preserve">
<g>
	<g>
		<path d="M255.528,79.579c-96.941,0-175.807,78.867-175.807,175.807c0,96.942,78.868,175.808,175.807,175.808    c96.942,0,175.808-78.867,175.808-175.808C431.336,158.447,352.468,79.579,255.528,79.579z M254.08,416.112    c-87.63,0-158.921-71.291-158.921-158.921S166.45,98.271,254.08,98.271S413,169.562,413,257.192S341.708,416.112,254.08,416.112z"/>
	</g>
</g>
<g>
	<g>
		<path d="M254.08,128.312c-71.065,0-128.879,57.814-128.879,128.879S183.015,386.07,254.08,386.07s128.879-57.814,128.879-128.879    S325.143,128.312,254.08,128.312z M324.162,263.603c0,45.646-37.137,82.782-82.783,82.782h-38.521    c-8.296,0-15.021-6.725-15.021-15.021s6.725-15.021,15.021-15.021h38.521c29.081,0,52.741-23.659,52.741-52.74v-34.631    c0-21.019-17.101-38.119-38.12-38.119c-21.019,0-38.12,17.1-38.12,38.119v5.826v24.598v4.399c0,6.495,5.284,11.78,11.78,11.78    s11.779-5.284,11.779-11.78V231.77c0-8.295,6.725-15.021,15.021-15.021c8.296,0,15.021,6.725,15.021,15.021v32.024    c0,23.06-18.76,41.822-41.821,41.822s-41.822-18.761-41.822-41.822v-4.399v-24.598v-5.826c0-37.584,30.577-68.161,68.162-68.161    c37.584,0,68.162,30.576,68.162,68.161V263.603z"/>
	</g>
</g>
<g>
	<g>
		<path d="M458.024,1.993H53.976C24.214,1.993,0,26.206,0,55.969V456.03c0,29.763,24.214,53.976,53.976,53.976h404.047    c29.763,0,53.976-24.214,53.976-53.976V55.969C512,26.206,487.786,1.993,458.024,1.993z M420.796,72.844    c0.05-0.491,0.12-0.981,0.22-1.462c0.091-0.481,0.221-0.961,0.36-1.422c0.14-0.472,0.311-0.941,0.491-1.393    c0.189-0.451,0.4-0.891,0.631-1.322c0.23-0.431,0.481-0.86,0.751-1.272c0.27-0.401,0.571-0.801,0.881-1.182    c0.311-0.381,0.641-0.751,0.991-1.103c0.34-0.34,0.711-0.671,1.092-0.99c0.38-0.301,0.781-0.602,1.192-0.871    c0.4-0.271,0.831-0.522,1.262-0.751c0.431-0.23,0.881-0.441,1.332-0.631c0.451-0.19,0.911-0.352,1.382-0.501    c0.471-0.141,0.94-0.261,1.422-0.361c0.48-0.09,0.971-0.17,1.462-0.22c0.981-0.101,1.973-0.101,2.954,0    c0.48,0.05,0.98,0.13,1.462,0.22c0.471,0.1,0.951,0.22,1.422,0.361c0.471,0.149,0.931,0.31,1.382,0.501    c0.451,0.189,0.901,0.4,1.332,0.631c0.431,0.229,0.851,0.48,1.262,0.751c0.411,0.27,0.812,0.57,1.183,0.871    c0.391,0.319,0.751,0.65,1.102,0.99c0.35,0.352,0.681,0.722,0.991,1.103c0.31,0.38,0.601,0.78,0.871,1.182    c0.27,0.411,0.53,0.841,0.761,1.272c0.229,0.432,0.44,0.871,0.621,1.322c0.189,0.451,0.359,0.921,0.501,1.393    c0.14,0.461,0.26,0.94,0.359,1.422c0.101,0.48,0.17,0.971,0.221,1.462c0.05,0.49,0.069,0.98,0.069,1.472    c0,0.492-0.02,0.991-0.069,1.481c-0.051,0.481-0.12,0.972-0.221,1.452c-0.1,0.481-0.22,0.961-0.359,1.433    c-0.141,0.461-0.311,0.931-0.501,1.382c-0.181,0.45-0.392,0.9-0.621,1.321c-0.23,0.441-0.491,0.861-0.761,1.273    c-0.271,0.4-0.562,0.801-0.871,1.182c-0.311,0.381-0.642,0.751-0.991,1.103c-0.351,0.34-0.721,0.681-1.102,0.99    c-0.37,0.311-0.772,0.602-1.183,0.871c-0.411,0.271-0.831,0.522-1.262,0.751c-0.431,0.23-0.881,0.441-1.332,0.631    c-0.451,0.19-0.911,0.352-1.382,0.501c-0.471,0.141-0.951,0.261-1.432,0.36c-0.481,0.09-0.972,0.17-1.452,0.22    c-0.491,0.04-0.991,0.07-1.482,0.07c-0.49,0-0.98-0.03-1.472-0.07c-0.491-0.05-0.981-0.13-1.462-0.22    c-0.471-0.1-0.951-0.22-1.422-0.36c-0.471-0.149-0.931-0.31-1.382-0.501c-0.451-0.189-0.901-0.4-1.332-0.631    c-0.431-0.229-0.861-0.48-1.262-0.751c-0.411-0.27-0.812-0.561-1.192-0.871c-0.381-0.31-0.751-0.65-1.092-0.99    c-0.352-0.352-0.681-0.722-0.991-1.103s-0.611-0.781-0.881-1.182c-0.27-0.411-0.521-0.831-0.751-1.273    c-0.23-0.421-0.441-0.871-0.631-1.321c-0.18-0.451-0.352-0.921-0.491-1.382c-0.14-0.472-0.27-0.951-0.36-1.433    c-0.1-0.48-0.17-0.971-0.22-1.452c-0.05-0.49-0.08-0.99-0.08-1.481C420.716,73.825,420.746,73.333,420.796,72.844z M61.668,72.844    c0.05-0.491,0.13-0.981,0.22-1.462c0.101-0.481,0.221-0.961,0.36-1.433c0.14-0.461,0.31-0.931,0.501-1.382    c0.18-0.451,0.401-0.891,0.621-1.322c0.229-0.44,0.491-0.86,0.761-1.272c0.271-0.401,0.562-0.801,0.871-1.182    c0.309-0.381,0.651-0.751,0.991-1.103c3.144-3.134,7.651-4.777,12.097-4.325c0.49,0.05,0.98,0.13,1.462,0.22    c0.48,0.1,0.961,0.22,1.422,0.361c0.471,0.149,0.94,0.31,1.392,0.501c0.451,0.189,0.892,0.4,1.322,0.631    c0.44,0.229,0.86,0.48,1.272,0.751c0.401,0.27,0.802,0.57,1.183,0.871c0.38,0.319,0.751,0.65,1.091,0.99    c0.35,0.352,0.681,0.722,1.001,1.103c0.3,0.38,0.601,0.78,0.871,1.182c0.27,0.411,0.521,0.831,0.751,1.272    c0.229,0.432,0.44,0.871,0.631,1.322c0.189,0.451,0.35,0.921,0.501,1.382c0.14,0.472,0.26,0.951,0.359,1.433    c0.091,0.48,0.171,0.971,0.21,1.462c0.051,0.49,0.08,0.98,0.08,1.472c0,0.492-0.029,0.991-0.08,1.481    c-0.039,0.481-0.119,0.972-0.21,1.452c-0.1,0.481-0.22,0.961-0.359,1.433c-0.15,0.461-0.311,0.931-0.501,1.382    c-0.19,0.45-0.401,0.9-0.631,1.321c-0.23,0.441-0.481,0.861-0.751,1.273c-0.271,0.4-0.571,0.801-0.871,1.182    c-0.32,0.381-0.651,0.751-1.001,1.103c-2.794,2.794-6.659,4.396-10.616,4.396c-0.49,0-0.99-0.021-1.472-0.07    c-0.491-0.05-0.98-0.12-1.462-0.22c-0.48-0.1-0.961-0.22-1.432-0.361c-0.461-0.14-0.932-0.31-1.382-0.501    c-0.451-0.189-0.892-0.4-1.322-0.631c-0.441-0.229-0.861-0.48-1.273-0.751c-0.4-0.27-0.801-0.561-1.182-0.871    c-0.381-0.31-0.751-0.65-1.102-0.99c-0.34-0.352-0.682-0.722-0.991-1.103c-0.309-0.38-0.601-0.781-0.871-1.182    c-0.27-0.411-0.531-0.831-0.761-1.273c-0.22-0.421-0.441-0.871-0.621-1.321c-0.19-0.451-0.36-0.921-0.501-1.382    c-0.14-0.472-0.26-0.951-0.36-1.433c-0.09-0.48-0.17-0.971-0.22-1.452c-0.05-0.49-0.07-0.99-0.07-1.481    S61.618,73.333,61.668,72.844z M87.233,447.593c-0.341,0.341-0.711,0.681-1.092,0.991c-0.38,0.31-0.781,0.601-1.183,0.871    c-0.411,0.27-0.831,0.531-1.272,0.761c-0.431,0.22-0.871,0.441-1.322,0.621c-0.451,0.189-0.921,0.36-1.392,0.501    c-0.461,0.14-0.941,0.26-1.422,0.36c-0.481,0.09-0.972,0.17-1.462,0.22c-0.481,0.05-0.981,0.07-1.473,0.07    c-0.49,0-0.99-0.021-1.481-0.07c-0.481-0.05-0.971-0.13-1.452-0.22c-0.48-0.101-0.961-0.221-1.432-0.36    c-0.461-0.14-0.932-0.311-1.382-0.501c-0.451-0.18-0.901-0.401-1.332-0.621c-0.432-0.229-0.852-0.491-1.263-0.761    c-0.41-0.271-0.801-0.562-1.182-0.871c-0.381-0.311-0.751-0.651-1.102-0.991c-2.794-2.794-4.397-6.669-4.397-10.624    c0-0.491,0.021-0.981,0.07-1.473c0.049-0.492,0.13-0.98,0.22-1.462c0.101-0.48,0.221-0.951,0.361-1.422    c0.139-0.471,0.31-0.931,0.501-1.382c0.18-0.451,0.401-0.901,0.621-1.332c0.229-0.431,0.491-0.861,0.761-1.262    c0.271-0.411,0.562-0.812,0.871-1.192c0.309-0.38,0.651-0.751,0.991-1.092c0.35-0.35,0.721-0.681,1.102-0.991    c0.381-0.31,0.772-0.61,1.182-0.881c0.411-0.27,0.831-0.521,1.263-0.751c0.431-0.229,0.881-0.44,1.332-0.631    c0.45-0.18,0.921-0.35,1.382-0.491c0.471-0.149,0.951-0.27,1.432-0.359c0.481-0.101,0.971-0.17,1.452-0.221    c0.98-0.1,1.982-0.1,2.954,0c0.49,0.051,0.98,0.12,1.462,0.221c0.48,0.09,0.961,0.21,1.422,0.359    c0.471,0.141,0.94,0.311,1.392,0.491c0.451,0.19,0.892,0.401,1.322,0.631c0.44,0.23,0.86,0.481,1.272,0.751    c0.401,0.271,0.802,0.571,1.183,0.881c0.38,0.311,0.751,0.642,1.091,0.991c0.351,0.34,0.681,0.711,1.001,1.092    c0.3,0.38,0.601,0.781,0.871,1.192c0.27,0.4,0.521,0.831,0.751,1.262c0.229,0.431,0.44,0.881,0.631,1.332    c0.189,0.451,0.351,0.911,0.491,1.382c0.149,0.471,0.27,0.941,0.359,1.422c0.101,0.481,0.17,0.971,0.22,1.462    c0.051,0.491,0.08,0.981,0.08,1.473C91.639,440.924,90.037,444.799,87.233,447.593z M450.689,438.45    c-0.051,0.481-0.12,0.971-0.221,1.452c-0.1,0.48-0.22,0.961-0.359,1.432c-0.141,0.461-0.311,0.931-0.501,1.382    c-0.181,0.451-0.392,0.901-0.621,1.332c-0.23,0.432-0.491,0.852-0.761,1.262c-0.271,0.411-0.562,0.812-0.871,1.183    c-0.311,0.381-0.642,0.751-0.991,1.102c-0.35,0.352-0.721,0.681-1.102,0.991c-0.371,0.31-0.772,0.601-1.183,0.871    c-0.411,0.27-0.831,0.531-1.262,0.761s-0.881,0.441-1.332,0.621c-0.451,0.189-0.911,0.36-1.382,0.501    c-0.471,0.14-0.951,0.26-1.432,0.36c-0.481,0.1-0.972,0.17-1.452,0.22c-0.491,0.05-0.991,0.07-1.482,0.07    c-0.49,0-0.98-0.021-1.472-0.07c-0.492-0.049-0.981-0.12-1.462-0.22c-0.471-0.101-0.951-0.221-1.422-0.36    s-0.931-0.311-1.382-0.501c-0.451-0.18-0.901-0.391-1.332-0.621c-0.431-0.229-0.861-0.491-1.262-0.761    c-0.411-0.271-0.812-0.562-1.192-0.871c-0.381-0.311-0.751-0.641-1.091-0.991c-0.352-0.35-0.681-0.721-0.991-1.102    c-0.31-0.371-0.611-0.772-0.881-1.183c-0.27-0.41-0.521-0.83-0.751-1.262c-0.23-0.431-0.441-0.881-0.631-1.332    c-0.18-0.451-0.352-0.921-0.491-1.382c-0.14-0.471-0.27-0.951-0.36-1.432c-0.1-0.481-0.17-0.971-0.22-1.452    c-0.05-0.491-0.08-0.991-0.08-1.481c0-0.491,0.03-0.981,0.08-1.473c0.05-0.492,0.12-0.98,0.22-1.462    c0.091-0.48,0.221-0.951,0.36-1.422c0.139-0.471,0.311-0.931,0.491-1.382c0.189-0.451,0.4-0.901,0.631-1.332    s0.481-0.861,0.751-1.262c0.27-0.411,0.571-0.812,0.881-1.192c0.311-0.381,0.641-0.751,0.991-1.091    c0.34-0.351,0.711-0.681,1.091-1.001c0.381-0.3,0.781-0.601,1.192-0.871c0.4-0.27,0.831-0.521,1.262-0.751    c0.431-0.229,0.881-0.44,1.332-0.631c0.451-0.189,0.911-0.351,1.382-0.491c0.471-0.149,0.94-0.27,1.422-0.36    c0.48-0.101,0.971-0.181,1.462-0.221c0.981-0.1,1.973-0.1,2.954,0c0.48,0.04,0.98,0.12,1.462,0.221    c0.471,0.09,0.951,0.21,1.422,0.36c0.471,0.141,0.931,0.301,1.382,0.491c0.451,0.19,0.901,0.401,1.332,0.631    s0.851,0.481,1.262,0.751c0.411,0.271,0.812,0.571,1.183,0.871c0.391,0.32,0.751,0.651,1.102,1.001    c0.351,0.34,0.681,0.711,0.991,1.091s0.601,0.781,0.871,1.192c0.27,0.4,0.53,0.831,0.761,1.262    c0.229,0.431,0.44,0.881,0.621,1.332c0.189,0.451,0.359,0.911,0.501,1.382c0.14,0.471,0.26,0.941,0.359,1.422    c0.101,0.481,0.17,0.971,0.221,1.462c0.05,0.491,0.069,0.981,0.069,1.473C450.758,437.459,450.738,437.96,450.689,438.45z     M255.528,461.237c-113.506,0-205.849-92.344-205.849-205.85S142.023,49.538,255.528,49.538    c113.507,0,205.85,92.344,205.85,205.849C461.378,368.893,369.033,461.237,255.528,461.237z"/>
	</g>
</g>
<g>
</g>
<g>
</g>
<g>
</g>
<g>
</g>
<g>
</g>
<g>
</g>
<g>
</g>
<g>
</g>
<g>
</g>
<g>
</g>
<g>
</g>
<g>
</g>
<g>
</g>
<g>
</g>
<g>
</g>
</svg>
