<?xml version="1.0" encoding="iso-8859-1"?>
<!-- Generator: Adobe Illustrator 19.0.0, SVG Export Plug-In . SVG Version: 6.00 Build 0)  -->
<svg xmlns="http://www.w3.org/2000/svg" xmlns:xlink="http://www.w3.org/1999/xlink" version="1.1" id="Capa_1" x="0px" y="0px" viewBox="0 0 512.001 512.001" style="enable-background:new 0 0 512.001 512.001;" xml:space="preserve">
<g>
	<g>
		<path d="M283.744,392.069c-1.06-2.158-2.898-3.771-5.177-4.542l-152.664-51.618c-4.653-1.574-9.738,0.923-11.342,5.562    l-25.519,74.192c-0.877,2.55,0.488,5.327,3.042,6.19l160.404,54.234c2.535,0.857,5.287-0.494,6.157-3.025l25.516-74.101    C284.954,396.67,284.804,394.23,283.744,392.069z"/>
	</g>
</g>
<g>
	<g>
		<path d="M387.719,320.789c-6.175-12.593-16.895-22.001-30.18-26.495l-119.229-40.312l26.309-78.46    c0.021-0.062,0.032-0.125,0.052-0.188c0.089-0.278,0.163-0.56,0.236-0.842c0.055-0.211,0.113-0.422,0.158-0.633    c0.05-0.235,0.085-0.472,0.123-0.709c0.042-0.258,0.087-0.516,0.116-0.774c0.021-0.192,0.028-0.385,0.042-0.577    c0.021-0.296,0.044-0.592,0.047-0.887c0.002-0.179-0.01-0.359-0.015-0.538c-0.008-0.3-0.012-0.601-0.038-0.899    c-0.018-0.215-0.054-0.429-0.081-0.643c-0.033-0.256-0.06-0.513-0.107-0.766c-0.05-0.273-0.119-0.542-0.184-0.813    c-0.046-0.191-0.084-0.384-0.138-0.573c-0.085-0.303-0.192-0.601-0.297-0.9c-0.054-0.154-0.101-0.311-0.161-0.463    c-0.112-0.288-0.244-0.569-0.374-0.851c-0.075-0.163-0.144-0.328-0.225-0.487c-0.122-0.241-0.261-0.476-0.398-0.713    c-0.114-0.198-0.226-0.398-0.349-0.591c-0.122-0.19-0.256-0.374-0.387-0.56c-0.162-0.23-0.325-0.46-0.501-0.681    c-0.043-0.054-0.077-0.111-0.121-0.164l-41.257-50.548h15.623c32.518,0,58.975-26.456,58.975-58.974V19.115    C295.356,8.575,286.781,0,276.241,0h-74.05v49.084c0,8.283-6.715,14.999-14.999,14.999c-8.283,0-14.999-6.715-14.999-14.999V0    h-74.05c-10.54,0-19.115,8.575-19.115,19.115v32.633c0,32.518,26.456,58.974,58.974,58.974h44.036l51.508,63.108l-23.654,70.544    l-89.726-30.336c-27.108-9.167-56.774,5.38-66.127,32.43l-33.112,95.79c-4.795,13.869-3.612,28.81,3.362,41.82    c6.388,11.916,17.354,20.721,30.161,25.052c2.536,0.857,5.288-0.495,6.158-3.026l25.595-74.41    c6.977-20.188,29.092-31.036,49.309-24.201l152.662,51.618c9.905,3.35,17.897,10.364,22.501,19.752    c4.605,9.388,5.26,20.001,1.843,29.885l-25.437,73.873c-0.878,2.55,0.486,5.328,3.042,6.191l0.828,0.28    c5.506,1.862,11.113,2.746,16.638,2.746c21.682-0.001,42.038-13.619,49.488-35.175l33.113-95.791    C394.772,347.616,393.894,333.382,387.719,320.789z"/>
	</g>
</g>
<g>
	<g>
		<path d="M479.034,358.97c-3.02-1.873-6.453-3.198-10.207-3.938l-0.86-0.17l-23.746-1.855    c-11.425-0.893-21.886,6.188-25.505,17.063c-0.065,0.195-0.131,0.391-0.199,0.586l-33.113,95.791    c-0.023,0.067-0.047,0.134-0.07,0.201c-3.948,11.273,0.398,23.764,10.682,29.839l18.419,10.879    c5.157,3.106,10.883,4.636,16.546,4.636c7.249,0,14.395-2.507,20.108-7.422c4.217-3.627,7.409-8.331,9.232-13.605l31.912-94.957    C497.04,382.002,491.619,366.778,479.034,358.97z"/>
	</g>
</g>
<g>
</g>
<g>
</g>
<g>
</g>
<g>
</g>
<g>
</g>
<g>
</g>
<g>
</g>
<g>
</g>
<g>
</g>
<g>
</g>
<g>
</g>
<g>
</g>
<g>
</g>
<g>
</g>
<g>
</g>
</svg>
