<?xml version="1.0" encoding="iso-8859-1"?>
<!-- Generator: Adobe Illustrator 19.0.0, SVG Export Plug-In . SVG Version: 6.00 Build 0)  -->
<svg xmlns="http://www.w3.org/2000/svg" xmlns:xlink="http://www.w3.org/1999/xlink" version="1.1" id="Capa_1" x="0px" y="0px" viewBox="0 0 512 512" style="enable-background:new 0 0 512 512;" xml:space="preserve">
<g>
	<g>
		<path d="M496.979,130.547h-38.366V83.212c0-8.296-6.726-15.021-15.021-15.021s-15.021,6.726-15.021,15.021v47.336h-37.409V83.212    c0-8.296-6.726-15.021-15.021-15.021c-8.296,0-15.021,6.726-15.021,15.021v47.336h-38.366c-8.296,0-15.021,6.726-15.021,15.021    s6.726,15.021,15.021,15.021h7.761h158.704h7.761c8.296,0,15.021-6.726,15.021-15.021S505.276,130.547,496.979,130.547z"/>
	</g>
</g>
<g>
	<g>
		<path d="M152.037,246.842h-14.57c-4.115,0-7.451,3.336-7.451,7.451v32.126c0,4.115,3.336,7.451,7.451,7.451h14.57    c4.115,0,7.451-3.336,7.451-7.451v-32.126C159.487,250.177,156.152,246.842,152.037,246.842z"/>
	</g>
</g>
<g>
	<g>
		<path d="M479.732,190.633H340c-5.238,0-9.486,4.247-9.486,9.486v3.487c0,22.955,18.609,41.562,41.562,41.562h75.577    c22.955,0,41.563-18.609,41.563-41.563v-3.487C489.218,194.879,484.971,190.633,479.732,190.633z"/>
	</g>
</g>
<g>
	<g>
		<path d="M409.866,274.44c-8.296,0-15.021,6.726-15.021,15.021v86.504c0,21.802-17.674,39.476-39.476,39.476H199.859    c-16.451,0-30.574-10.118-36.496-24.455h73.596c11.521,0,20.896-9.373,20.896-20.896V235.288l5.054,6.109    c2.97,3.59,7.259,5.446,11.582,5.446c3.372,0,6.766-1.131,9.568-3.448c6.392-5.289,7.285-14.757,1.997-21.149l-42.071-50.849    v-71.199c0-11.368-9.248-20.616-20.616-20.616h-23.697c-9.228,0-17.058,6.095-19.68,14.47l-14.839-17.936    c-5.047-6.1-12.482-9.599-20.399-9.599c-7.917,0-15.353,3.499-20.4,9.599L3.448,222.244c-5.289,6.392-4.394,15.861,1.998,21.149    c6.392,5.29,15.861,4.395,21.149-1.998l5.289-6.392V370.09c0,11.521,9.373,20.896,20.896,20.896h79.212    c6.887,31.133,34.692,54.498,67.866,54.498h155.51c38.395,0,69.519-31.125,69.519-69.519v-86.504    C424.888,281.165,418.162,274.44,409.866,274.44z M125.537,323.912c-14.095,0-25.564-11.467-25.564-25.563v-55.987    c0-14.095,11.467-25.563,25.564-25.563h38.43c14.095,0,25.563,11.467,25.563,25.563v55.987c0,14.095-11.467,25.563-25.563,25.563    H125.537z"/>
	</g>
</g>
<g>
</g>
<g>
</g>
<g>
</g>
<g>
</g>
<g>
</g>
<g>
</g>
<g>
</g>
<g>
</g>
<g>
</g>
<g>
</g>
<g>
</g>
<g>
</g>
<g>
</g>
<g>
</g>
<g>
</g>
</svg>
