<?xml version="1.0" encoding="iso-8859-1"?>
<!-- Generator: Adobe Illustrator 19.0.0, SVG Export Plug-In . SVG Version: 6.00 Build 0)  -->
<svg xmlns="http://www.w3.org/2000/svg" xmlns:xlink="http://www.w3.org/1999/xlink" version="1.1" id="Capa_1" x="0px" y="0px" viewBox="0 0 512 512" style="enable-background:new 0 0 512 512;" xml:space="preserve">
<g>
	<g>
		<path d="M290.913,73.688l-8.102-68.747C282.479,2.124,280.09,0,277.252,0h-44.376c-2.838,0-5.228,2.125-5.559,4.943l-8.095,68.747    c-0.392,3.328,2.209,6.252,5.559,6.252h60.574C288.705,79.941,291.305,77.016,290.913,73.688z"/>
	</g>
</g>
<g>
	<g>
		<path d="M178.439,109.951H81.083c-2.572,0-4.812,1.752-5.433,4.247l-10.265,41.305c-0.877,3.531,1.794,6.947,5.433,6.947h102.758    c2.838,0,5.228-2.125,5.559-4.942l4.863-41.305C184.39,112.875,181.79,109.951,178.439,109.951z"/>
	</g>
</g>
<g>
	<g>
		<path d="M300.638,156.198l-4.868-41.305c-0.332-2.818-2.721-4.941-5.559-4.941h-70.282c-2.838,0-5.228,2.125-5.559,4.943    l-4.863,41.305c-0.392,3.328,2.209,6.252,5.559,6.252h80.014C298.43,162.451,301.03,159.526,300.638,156.198z"/>
	</g>
</g>
<g>
	<g>
		<path d="M446.615,155.503l-10.265-41.305c-0.62-2.496-2.861-4.247-5.433-4.247h-99.218c-3.351,0-5.952,2.925-5.559,6.253    l4.868,41.305c0.331,2.819,2.72,4.942,5.559,4.942h104.614C444.82,162.452,447.492,159.035,446.615,155.503z"/>
	</g>
</g>
<g>
	<g>
		<path d="M468.756,244.594l-11.901-47.885c-0.62-2.496-2.861-4.247-5.433-4.247h-110c-3.351,0-5.952,2.925-5.559,6.253    l8.348,70.823c0.08,0.683-0.453,1.283-1.14,1.283h-27.903c-0.582,0-1.072-0.436-1.14-1.014l-8.534-72.402    c-0.332-2.819-2.721-4.942-5.559-4.942h-89.723c-2.838,0-5.228,2.125-5.559,4.942l-8.526,72.402    c-0.068,0.578-0.558,1.014-1.14,1.014h-27.904c-0.687,0-1.221-0.6-1.14-1.282l8.339-70.823c0.392-3.328-2.209-6.252-5.559-6.252    H60.577c-2.572,0-4.812,1.752-5.433,4.247l-11.9,47.882c-1.676,6.74-0.076,13.752,4.39,19.118    c4.211,5.061,10.6,7.795,17.184,7.795h1.711v218.81c0,11.976,9.708,21.683,21.683,21.683h335.573    c11.976,0,21.683-9.708,21.683-21.683v-218.81h1.711c6.584,0,12.972-2.735,17.183-7.795    C468.83,258.345,470.43,251.333,468.756,244.594z M287.46,382.94c-0.731,1.891-1.851,3.665-3.376,5.191l-50.842,50.841    c-2.93,2.93-6.771,4.395-10.609,4.395c-3.84,0-7.68-1.464-10.609-4.395c-5.86-5.86-5.86-15.36,0-21.219l26.349-26.348h-16.237    c-0.958,0-1.894-0.099-2.803-0.271c-3.124-0.433-6.139-1.834-8.541-4.235c-5.86-5.859-5.86-15.36,0-21.219l50.841-50.842    c5.859-5.86,15.36-5.86,21.219,0c5.86,5.859,5.86,15.36,0,21.219l-25.339,25.34h16.459c8.286,0,15.005,6.718,15.005,15.004    C288.976,378.748,288.421,380.962,287.46,382.94z"/>
	</g>
</g>
<g>
	<g>
		<path d="M426.109,72.994l-14.051-56.539C409.652,6.767,400.997,0,391.014,0H318.74c-3.351,0-5.952,2.925-5.559,6.253l8.102,68.747    c0.332,2.819,2.721,4.943,5.559,4.943h93.834C424.315,79.942,426.987,76.525,426.109,72.994z"/>
	</g>
</g>
<g>
	<g>
		<path d="M191.386,0h-70.4c-9.983,0-18.638,6.767-21.043,16.454l-14.052,56.54c-0.877,3.531,1.794,6.947,5.433,6.947h91.967    c2.838,0,5.228-2.125,5.559-4.943l8.095-68.747C197.337,2.924,194.736,0,191.386,0z"/>
	</g>
</g>
<g>
</g>
<g>
</g>
<g>
</g>
<g>
</g>
<g>
</g>
<g>
</g>
<g>
</g>
<g>
</g>
<g>
</g>
<g>
</g>
<g>
</g>
<g>
</g>
<g>
</g>
<g>
</g>
<g>
</g>
</svg>
