<?xml version="1.0" encoding="iso-8859-1"?>
<!-- Generator: Adobe Illustrator 19.0.0, SVG Export Plug-In . SVG Version: 6.00 Build 0)  -->
<svg xmlns="http://www.w3.org/2000/svg" xmlns:xlink="http://www.w3.org/1999/xlink" version="1.1" id="Capa_1" x="0px" y="0px" viewBox="0 0 512 512" style="enable-background:new 0 0 512 512;" xml:space="preserve">
<g>
	<g>
		<path d="M384.692,21.386h-38.791c-1.769,0-3.493,0.191-5.154,0.555c-4.78,1.044-6.644,6.903-3.523,10.669l59.906,72.297    c3.962,4.782,11.735,1.98,11.735-4.23V45.56C408.866,32.208,398.043,21.386,384.692,21.386z"/>
	</g>
</g>
<g>
	<g>
		<path d="M479.933,251.453L282.017,12.242C275.58,4.462,266.098,0,256,0c-10.097,0-19.58,4.462-26.016,12.242L32.066,251.453    c-5.285,6.389-4.392,15.853,1.997,21.14c6.39,5.285,15.852,4.393,21.141-1.997l25.609-30.952V487.37    c0,13.581,11.049,24.63,24.63,24.63h301.496c13.581,0,24.63-11.05,24.63-24.63V240.105l25.227,30.49    c2.969,3.588,7.256,5.443,11.575,5.443c3.371,0,6.764-1.13,9.564-3.446C484.326,267.306,485.22,257.842,479.933,251.453z     M240.985,256.586c0-8.292,6.723-15.015,15.015-15.015c8.292,0,15.015,6.723,15.015,15.015v85.541    c0,8.292-6.723,15.015-15.015,15.015c-8.292,0-15.015-6.723-15.015-15.015V256.586z M256,431.225    c-50.8,0-92.129-41.329-92.129-92.129c0-32.18,16.363-61.5,43.772-78.431c7.054-4.358,16.307-2.171,20.665,4.884    c4.358,7.055,2.171,16.307-4.884,20.665c-18.487,11.419-29.524,31.187-29.524,52.882c0,34.241,27.858,62.1,62.1,62.1    s62.1-27.858,62.1-62.1c0-22.98-10.172-42.341-27.908-53.118c-7.087-4.306-9.341-13.542-5.035-20.628    c4.306-7.086,13.542-9.341,20.628-5.035c26.515,16.111,42.344,45.563,42.344,78.782C348.129,389.896,306.8,431.225,256,431.225z"/>
	</g>
</g>
<g>
</g>
<g>
</g>
<g>
</g>
<g>
</g>
<g>
</g>
<g>
</g>
<g>
</g>
<g>
</g>
<g>
</g>
<g>
</g>
<g>
</g>
<g>
</g>
<g>
</g>
<g>
</g>
<g>
</g>
</svg>
