<?xml version="1.0" encoding="iso-8859-1"?>
<!-- Generator: Adobe Illustrator 19.0.0, SVG Export Plug-In . SVG Version: 6.00 Build 0)  -->
<svg xmlns="http://www.w3.org/2000/svg" xmlns:xlink="http://www.w3.org/1999/xlink" version="1.1" id="Capa_1" x="0px" y="0px" viewBox="0 0 512 512" style="enable-background:new 0 0 512 512;" xml:space="preserve">
<g>
	<g>
		<path d="M308.922,110.121H136.487c-5.002,0-9.071,4.069-9.071,9.071v172.436c0,5.002,4.069,9.071,9.071,9.071h172.435    c5.003,0,9.072-4.069,9.072-9.071V119.193C317.994,114.191,313.924,110.121,308.922,110.121z M186.241,189.338    c0,8.289-6.72,15.008-15.009,15.008s-15.008-6.72-15.008-15.008v-34.424c0-8.289,6.72-15.008,15.008-15.008    s15.009,6.72,15.009,15.008V189.338z M237.713,258.753c0,8.289-6.72,15.008-15.008,15.008s-15.008-6.72-15.008-15.008v-34.424    c0-8.289,6.72-15.009,15.008-15.009s15.008,6.72,15.008,15.009V258.753z M288.981,189.338c0,8.289-6.72,15.008-15.009,15.008    c-8.289,0-15.008-6.72-15.008-15.008v-34.424c0-8.289,6.72-15.008,15.008-15.008c8.289,0,15.009,6.72,15.009,15.008V189.338z"/>
	</g>
</g>
<g>
	<g>
		<path d="M479.696,481.983H269.395c-17.469,0-31.682-14.212-31.682-31.682V410.82h64.47c69.438,0,125.931-56.492,125.931-125.931    V125.931C428.115,56.493,371.622,0,302.183,0H143.227C73.787,0,17.294,56.493,17.294,125.931v158.957    c0,69.438,56.493,125.931,125.931,125.931h64.471v39.481c0,34.02,27.678,61.699,61.699,61.699h210.302    c8.289,0,15.008-6.72,15.008-15.008S487.985,481.983,479.696,481.983z M136.487,330.716L136.487,330.716    c-21.553,0-39.088-17.535-39.088-39.088V119.193c0-21.553,17.535-39.088,39.088-39.088h172.435    c21.553,0,39.088,17.535,39.088,39.088v172.436c0,21.553-17.535,39.088-39.088,39.088H136.487z"/>
	</g>
</g>
<g>
</g>
<g>
</g>
<g>
</g>
<g>
</g>
<g>
</g>
<g>
</g>
<g>
</g>
<g>
</g>
<g>
</g>
<g>
</g>
<g>
</g>
<g>
</g>
<g>
</g>
<g>
</g>
<g>
</g>
</svg>
