<?xml version="1.0" encoding="iso-8859-1"?>
<!-- Generator: Adobe Illustrator 19.0.0, SVG Export Plug-In . SVG Version: 6.00 Build 0)  -->
<svg xmlns="http://www.w3.org/2000/svg" xmlns:xlink="http://www.w3.org/1999/xlink" version="1.1" id="Capa_1" x="0px" y="0px" viewBox="0 0 512 512" style="enable-background:new 0 0 512 512;" xml:space="preserve">
<g>
	<g>
		<path d="M384.692,21.386h-38.791c-1.769,0-3.493,0.191-5.154,0.555c-4.78,1.044-6.644,6.903-3.523,10.669l59.906,72.297    c3.962,4.782,11.735,1.98,11.735-4.23V45.56C408.866,32.208,398.043,21.386,384.692,21.386z"/>
	</g>
</g>
<g>
	<g>
		<path d="M269.89,292.372h-25.561c-1.928,0-3.49,1.563-3.49,3.49v16.959c0,1.928,1.563,3.49,3.49,3.49h25.561    c1.928,0,3.49-1.563,3.49-3.49v-16.959C273.38,293.935,271.817,292.372,269.89,292.372z"/>
	</g>
</g>
<g>
	<g>
		<path d="M269.89,346.34h-25.561c-1.928,0-3.49,1.563-3.49,3.49v16.951c0,1.928,1.563,3.49,3.49,3.49h25.561    c1.928,0,3.49-1.563,3.49-3.49v-16.951C273.38,347.903,271.817,346.34,269.89,346.34z"/>
	</g>
</g>
<g>
	<g>
		<path d="M257.11,241.629c-49.459,0-89.697,40.237-89.697,89.697c0,49.459,40.237,89.697,89.697,89.697    s89.697-40.237,89.697-89.697C346.806,281.866,306.568,241.629,257.11,241.629z M303.409,373.273    c0,14.903-12.124,27.026-27.026,27.026h-38.547c-14.903,0-27.026-12.124-27.026-27.026v-83.905    c0-14.903,12.124-27.026,27.026-27.026h38.547c14.903,0,27.026,12.124,27.026,27.026V373.273z"/>
	</g>
</g>
<g>
	<g>
		<path d="M479.933,251.453L282.017,12.242C275.58,4.462,266.098,0,256,0c-10.097,0-19.58,4.462-26.016,12.242L32.066,251.453    c-5.285,6.389-4.392,15.853,1.997,21.14c6.39,5.285,15.852,4.393,21.141-1.997l25.609-30.952V487.37    c0,13.581,11.049,24.63,24.63,24.63h301.496c13.581,0,24.63-11.05,24.63-24.63V240.105l25.227,30.49    c2.969,3.588,7.256,5.443,11.575,5.443c3.371,0,6.764-1.13,9.564-3.446C484.326,267.306,485.22,257.842,479.933,251.453z     M257.11,451.051c-66.018,0-119.726-53.708-119.726-119.726S191.092,211.6,257.11,211.6s119.726,53.708,119.726,119.726    S323.126,451.051,257.11,451.051z"/>
	</g>
</g>
<g>
</g>
<g>
</g>
<g>
</g>
<g>
</g>
<g>
</g>
<g>
</g>
<g>
</g>
<g>
</g>
<g>
</g>
<g>
</g>
<g>
</g>
<g>
</g>
<g>
</g>
<g>
</g>
<g>
</g>
</svg>
