<?xml version="1.0" encoding="iso-8859-1"?>
<!-- Generator: Adobe Illustrator 19.0.0, SVG Export Plug-In . SVG Version: 6.00 Build 0)  -->
<svg xmlns="http://www.w3.org/2000/svg" xmlns:xlink="http://www.w3.org/1999/xlink" version="1.1" id="Capa_1" x="0px" y="0px" viewBox="0 0 512 512" style="enable-background:new 0 0 512 512;" xml:space="preserve">
<g>
	<g>
		<path d="M384.692,21.386h-38.791c-1.769,0-3.493,0.191-5.154,0.555c-4.78,1.044-6.644,6.903-3.523,10.669l59.906,72.297    c3.962,4.782,11.735,1.98,11.735-4.23V45.56C408.866,32.208,398.043,21.386,384.692,21.386z"/>
	</g>
</g>
<g>
	<g>
		<path d="M291.045,337.795c-0.143,0.004-0.287,0.014-0.429,0.014c-6.662,0.001-12.746-4.466-14.514-11.213    c-2.022-7.718-9.019-13.108-17.017-13.108c-6.157,0-11.765,3.138-14.999,8.394c-0.022,0.036-0.049,0.068-0.071,0.104    c-0.182,0.29-0.378,0.567-0.579,0.842c-0.098,0.135-0.19,0.274-0.291,0.405c-0.184,0.236-0.382,0.459-0.579,0.683    c-0.137,0.156-0.269,0.317-0.411,0.466c-0.16,0.167-0.332,0.322-0.5,0.482c-0.193,0.184-0.383,0.373-0.585,0.546    c-0.128,0.11-0.265,0.208-0.397,0.313c-0.25,0.2-0.5,0.402-0.762,0.585c-0.112,0.078-0.23,0.146-0.344,0.221    c-0.287,0.189-0.576,0.379-0.874,0.548c-0.138,0.078-0.284,0.143-0.425,0.217c-0.28,0.146-0.559,0.295-0.847,0.423    c-0.213,0.095-0.433,0.172-0.652,0.258c-0.223,0.087-0.442,0.182-0.669,0.258c-0.294,0.099-0.596,0.177-0.896,0.259    c-0.158,0.042-0.313,0.095-0.474,0.132c-0.33,0.078-0.666,0.133-1.001,0.188c-0.139,0.023-0.276,0.055-0.416,0.074    c-0.312,0.042-0.628,0.063-0.944,0.085c-0.173,0.012-0.344,0.033-0.518,0.04c-0.259,0.01-0.521,0-0.782-0.005    c-0.238-0.003-0.477-0.001-0.715-0.016c-0.198-0.013-0.396-0.041-0.596-0.061c-0.305-0.031-0.61-0.062-0.913-0.112    c-0.154-0.026-0.308-0.063-0.461-0.094c-0.343-0.068-0.686-0.14-1.026-0.233c-0.038-0.01-0.076-0.015-0.114-0.026    c-0.897-0.251-1.837-0.379-2.793-0.379c-5.673,0-10.288,4.615-10.288,10.288s4.615,10.288,10.288,10.288h66.318    c2.513,0,4.981-2.931,4.981-5.917C295.75,340.096,293.661,337.941,291.045,337.795z"/>
	</g>
</g>
<g>
	<g>
		<path d="M256,244.733c-49.459,0-89.697,40.237-89.697,89.697c0,49.459,40.237,89.697,89.697,89.697s89.697-40.237,89.697-89.697    C345.696,284.97,305.459,244.733,256,244.733z M290.769,378.693h-66.318c-22.231,0-40.317-18.086-40.317-40.317    s18.086-40.317,40.317-40.317c0.104,0,0.208,0.01,0.312,0.011c8.873-9.273,21.121-14.611,34.322-14.611    c18.166,0,34.426,10.295,42.422,25.971c14.067,4.544,24.272,17.759,24.272,33.319    C325.779,362.233,309.746,378.693,290.769,378.693z"/>
	</g>
</g>
<g>
	<g>
		<path d="M479.933,251.453L282.017,12.242C275.58,4.462,266.098,0,256,0c-10.097,0-19.58,4.462-26.016,12.242L32.066,251.453    c-5.285,6.389-4.392,15.853,1.997,21.14c6.39,5.285,15.852,4.393,21.141-1.997l25.609-30.952V487.37    c0,13.581,11.049,24.63,24.63,24.63h301.496c13.581,0,24.63-11.05,24.63-24.63V240.105l25.227,30.49    c2.969,3.588,7.256,5.443,11.575,5.443c3.371,0,6.764-1.13,9.564-3.446C484.326,267.306,485.22,257.842,479.933,251.453z     M256,454.156c-66.017,0-119.726-53.708-119.726-119.726S189.982,214.704,256,214.704s119.726,53.708,119.726,119.726    S322.017,454.156,256,454.156z"/>
	</g>
</g>
<g>
</g>
<g>
</g>
<g>
</g>
<g>
</g>
<g>
</g>
<g>
</g>
<g>
</g>
<g>
</g>
<g>
</g>
<g>
</g>
<g>
</g>
<g>
</g>
<g>
</g>
<g>
</g>
<g>
</g>
</svg>
