<?xml version="1.0" encoding="iso-8859-1"?>
<!-- Generator: Adobe Illustrator 19.0.0, SVG Export Plug-In . SVG Version: 6.00 Build 0)  -->
<svg xmlns="http://www.w3.org/2000/svg" xmlns:xlink="http://www.w3.org/1999/xlink" version="1.1" id="Capa_1" x="0px" y="0px" viewBox="0 0 512 512" style="enable-background:new 0 0 512 512;" xml:space="preserve">
<g>
	<g>
		<path d="M479.933,251.453L282.017,12.242C275.58,4.462,266.098,0,256,0c-10.097,0-19.58,4.462-26.016,12.242L32.066,251.453    c-5.285,6.389-4.392,15.853,1.997,21.14c6.39,5.285,15.852,4.393,21.141-1.997l25.609-30.952V487.37    c0,13.581,11.049,24.63,24.63,24.63h301.496c13.581,0,24.63-11.05,24.63-24.63V240.105l25.227,30.49    c2.969,3.588,7.256,5.443,11.575,5.443c3.371,0,6.764-1.13,9.564-3.446C484.326,267.306,485.22,257.842,479.933,251.453z     M256,454.717c-66.016,0-119.725-53.709-119.725-119.726S189.983,215.265,256,215.265c66.017,0,119.726,53.708,119.726,119.726    S322.017,454.717,256,454.717z"/>
	</g>
</g>
<g>
	<g>
		<path d="M256,245.295c-49.458,0-89.696,40.237-89.696,89.697s40.237,89.697,89.696,89.697c49.459,0,89.697-40.238,89.697-89.697    S305.459,245.295,256,245.295z M228.833,367.812l-5.974,11.534c-2.67,5.156-7.913,8.113-13.345,8.113    c-2.325,0-4.685-0.542-6.893-1.685c-7.362-3.814-10.241-12.875-6.427-20.238l5.974-11.534c2.046-3.952,1.37-8.783-1.682-12.022    l-1.536-1.63c-10.399-11.036-13.064-27.085-6.791-40.889l3.698-8.134c3.431-7.549,12.33-10.887,19.881-7.456    c7.548,3.431,10.888,12.333,7.455,19.881l-3.697,8.134c-1.207,2.657-0.694,5.746,1.307,7.87l1.535,1.63    C234.128,333.895,236.737,352.552,228.833,367.812z M273.419,367.812l-5.974,11.534c-2.67,5.156-7.913,8.113-13.345,8.113    c-2.325,0-4.685-0.542-6.893-1.685c-7.362-3.814-10.241-12.875-6.427-20.238l5.974-11.534c2.046-3.952,1.37-8.782-1.683-12.021    l-1.537-1.634c-10.397-11.034-13.062-27.083-6.787-40.887l3.697-8.133c3.431-7.549,12.331-10.887,19.881-7.456    c7.548,3.431,10.888,12.333,7.455,19.881l-3.697,8.134c-1.207,2.657-0.694,5.746,1.307,7.87l1.538,1.633    C278.714,333.894,281.324,352.551,273.419,367.812z M317.986,367.811l-5.975,11.535c-2.67,5.156-7.913,8.113-13.345,8.113    c-2.325,0-4.685-0.542-6.893-1.685c-7.363-3.814-10.241-12.875-6.427-20.238l5.974-11.534c2.046-3.951,1.369-8.783-1.683-12.021    l-1.538-1.634c-10.397-11.034-13.062-27.083-6.787-40.887l3.697-8.133c3.431-7.549,12.33-10.887,19.881-7.456    c7.548,3.431,10.888,12.333,7.455,19.881l-3.697,8.134c-1.207,2.657-0.694,5.746,1.307,7.87l1.537,1.633    C323.279,333.893,325.888,352.55,317.986,367.811z"/>
	</g>
</g>
<g>
	<g>
		<path d="M384.692,21.386h-38.791c-1.769,0-3.493,0.191-5.154,0.555c-4.78,1.044-6.644,6.903-3.523,10.669l59.906,72.297    c3.962,4.782,11.735,1.98,11.735-4.23V45.56C408.866,32.208,398.043,21.386,384.692,21.386z"/>
	</g>
</g>
<g>
</g>
<g>
</g>
<g>
</g>
<g>
</g>
<g>
</g>
<g>
</g>
<g>
</g>
<g>
</g>
<g>
</g>
<g>
</g>
<g>
</g>
<g>
</g>
<g>
</g>
<g>
</g>
<g>
</g>
</svg>
