<?xml version="1.0" encoding="iso-8859-1"?>
<!-- Generator: Adobe Illustrator 19.0.0, SVG Export Plug-In . SVG Version: 6.00 Build 0)  -->
<svg xmlns="http://www.w3.org/2000/svg" xmlns:xlink="http://www.w3.org/1999/xlink" version="1.1" id="Capa_1" x="0px" y="0px" viewBox="0 0 511.999 511.999" style="enable-background:new 0 0 511.999 511.999;" xml:space="preserve">
<g>
	<g>
		<path d="M437.019,74.981C388.666,26.629,324.38,0,256,0S123.333,26.629,74.98,74.981C26.629,123.333,0,187.62,0,256    c0,68.381,26.629,132.667,74.98,181.019c48.352,48.351,112.639,74.98,181.019,74.98s132.667-26.629,181.019-74.98    C485.37,388.667,511.999,324.38,511.999,256S485.371,123.333,437.019,74.981z M262.464,75.126    c0.791-8.253,8.097-14.301,16.375-13.512c89.732,8.596,161.083,79.965,169.656,169.699c0.789,8.253-5.262,15.583-13.516,16.372    c-0.484,0.046-0.968,0.069-1.445,0.069c-7.648,0-14.184-5.818-14.926-13.585c-7.208-75.441-67.195-135.441-142.633-142.669    C267.723,90.71,261.673,83.378,262.464,75.126z M292.486,214.827l2.784-6.126c3.433-7.548,12.33-10.884,19.879-7.453    c7.548,3.431,10.885,12.331,7.453,19.879l-2.784,6.125c-1.791,3.941-1.03,8.526,1.94,11.677    c11.822,12.547,14.438,31.259,6.513,46.565l-6.003,11.592c-2.67,5.155-7.912,8.111-13.343,8.111c-2.325,0-4.684-0.541-6.891-1.684    c-7.361-3.813-10.239-12.871-6.426-20.234l6.003-11.591c2.07-3.999,1.387-8.89-1.702-12.169    C288.54,247.457,285.627,229.915,292.486,214.827z M274.988,150.134c-8.182-1.336-13.732-9.052-12.396-17.235    c1.336-8.182,9.053-13.733,17.236-12.396c27.585,4.505,52.649,17.394,72.484,37.272c19.838,19.882,32.671,44.98,37.111,72.581    c1.317,8.185-4.251,15.888-12.437,17.206c-0.808,0.13-1.61,0.193-2.403,0.193c-7.24,0-13.615-5.252-14.803-12.63    C352.75,191.424,318.674,157.268,274.988,150.134z M360.644,277.295c1.195-8.203,8.81-13.887,17.019-12.69    c8.204,1.196,13.886,8.816,12.69,17.02c-8.027,55.071-50.196,98.84-104.935,108.911c-0.918,0.168-1.832,0.25-2.733,0.25    c-7.104,0-13.415-5.062-14.746-12.298c-1.5-8.153,3.893-15.981,12.047-17.481C322.061,353.266,354.474,319.625,360.644,277.295z     M238.594,150.233c-21.628,2.946-41.422,12.542-57.242,27.749c-15.78,15.168-26.147,34.502-29.98,55.91    c-1.301,7.267-7.627,12.369-14.76,12.369c-0.878,0-1.768-0.077-2.663-0.237c-8.161-1.46-13.593-9.261-12.132-17.422    c4.957-27.688,18.347-52.676,38.727-72.265c20.435-19.642,46.022-32.04,73.994-35.852c8.219-1.116,15.782,4.633,16.901,12.847    C252.56,141.547,246.809,149.114,238.594,150.233z M194.246,259.518c-11.365-12.061-14.278-29.604-7.421-44.692l2.784-6.125    c3.431-7.548,12.332-10.887,19.878-7.454c7.548,3.431,10.885,12.331,7.454,19.878l-2.784,6.125    c-1.792,3.942-1.031,8.527,1.94,11.678c11.821,12.546,14.438,31.259,6.511,46.565l-6.003,11.592    c-2.669,5.155-7.912,8.111-13.342,8.111c-2.326,0-4.684-0.541-6.891-1.684c-7.362-3.813-10.239-12.871-6.427-20.234l6.003-11.591    C198.018,267.687,197.335,262.797,194.246,259.518z M64.638,229.62c4.644-42.619,24.003-82.811,54.511-113.169    c30.519-30.369,70.824-49.53,113.49-53.953c8.244-0.854,15.625,5.137,16.48,13.384s-5.137,15.624-13.383,16.48    c-35.858,3.718-69.742,19.832-95.408,45.373c-25.659,25.532-41.939,59.32-45.842,95.139c-0.838,7.689-7.344,13.387-14.905,13.387    c-0.543,0-1.092-0.029-1.645-0.09C69.694,245.273,63.74,237.863,64.638,229.62z M251.503,436.858    c-0.786,7.733-7.309,13.496-14.918,13.496c-0.507,0-1.02-0.025-1.535-0.078c-42.669-4.333-82.942-23.474-113.398-53.896    c-30.454-30.42-49.639-70.667-54.021-113.327c-0.848-8.247,5.151-15.62,13.398-16.468c8.258-0.85,15.62,5.151,16.468,13.398    c7.588,73.865,66.714,132.92,140.587,140.422C246.332,421.244,252.34,428.61,251.503,436.858z M251.514,379.221    c-1.102,7.458-7.512,12.82-14.832,12.82c-0.73,0-1.468-0.053-2.212-0.163c-27.943-4.127-53.365-16.865-73.516-36.836    c-20.139-19.959-33.103-45.245-37.49-73.124c-1.289-8.19,4.305-15.874,12.495-17.162c8.19-1.29,15.873,4.305,17.162,12.495    c3.387,21.517,13.404,41.043,28.967,56.467c15.573,15.433,35.203,25.274,56.77,28.46    C247.06,363.388,252.726,371.019,251.514,379.221z M249.595,303.511c-7.362-3.812-10.24-12.871-6.427-20.233l6.003-11.591    c2.072-4.001,1.388-8.891-1.701-12.17c-11.366-12.061-14.279-29.604-7.421-44.692l2.784-6.125    c3.431-7.548,12.33-10.887,19.879-7.454c7.547,3.431,10.885,12.331,7.454,19.878l-2.784,6.125    c-1.791,3.942-1.031,8.527,1.94,11.678c11.822,12.547,14.438,31.26,6.511,46.566l-6.002,11.591    c-2.669,5.155-7.911,8.111-13.343,8.111C254.161,305.197,251.802,304.655,249.595,303.511z M397.234,395.292    c-30.33,30.802-70.643,50.044-113.515,54.184c-0.49,0.047-0.979,0.07-1.46,0.07c-7.642,0-14.175-5.809-14.925-13.571    c-0.797-8.253,5.247-15.588,13.5-16.385c35.871-3.463,69.613-19.573,95.007-45.364c25.421-25.817,41.008-59.856,43.887-95.843    c0.661-8.264,7.901-14.431,16.161-13.767c8.264,0.661,14.428,7.897,13.767,16.161    C446.213,323.788,427.597,364.456,397.234,395.292z"/>
	</g>
</g>
<g>
</g>
<g>
</g>
<g>
</g>
<g>
</g>
<g>
</g>
<g>
</g>
<g>
</g>
<g>
</g>
<g>
</g>
<g>
</g>
<g>
</g>
<g>
</g>
<g>
</g>
<g>
</g>
<g>
</g>
</svg>
