<?xml version="1.0" encoding="iso-8859-1"?>
<!-- Generator: Adobe Illustrator 19.0.0, SVG Export Plug-In . SVG Version: 6.00 Build 0)  -->
<svg xmlns="http://www.w3.org/2000/svg" xmlns:xlink="http://www.w3.org/1999/xlink" version="1.1" id="Capa_1" x="0px" y="0px" viewBox="0 0 511.999 511.999" style="enable-background:new 0 0 511.999 511.999;" xml:space="preserve">
<g>
	<g>
		<path d="M259.951,225.339c-2.132-3.135-6.798-3.034-8.812,0.178c-19.301,30.8-20.358,41.015-20.358,42.864    c0,13.906,11.313,25.219,25.219,25.219c13.906,0,25.219-11.313,25.219-25.219C281.219,262.238,273.238,244.881,259.951,225.339z"/>
	</g>
</g>
<g>
	<g>
		<path d="M437.019,74.981C388.667,26.629,324.38,0,256,0S123.333,26.629,74.98,74.981C26.629,123.333,0,187.62,0,256    c0,68.381,26.629,132.667,74.98,181.019c48.352,48.351,112.639,74.98,181.019,74.98s132.667-26.629,181.019-74.98    C485.37,388.667,511.999,324.38,511.999,256S485.371,123.333,437.019,74.981z M262.464,75.126    c0.791-8.253,8.115-14.301,16.375-13.512c89.732,8.596,161.083,79.965,169.656,169.699c0.789,8.253-5.263,15.583-13.516,16.372    c-0.485,0.046-0.968,0.069-1.445,0.069c-7.648,0-14.184-5.818-14.927-13.585C411.4,158.729,351.414,98.729,275.975,91.501    C267.723,90.71,261.673,83.378,262.464,75.126z M360.644,277.295c1.196-8.203,8.813-13.886,17.02-12.69    c8.203,1.196,13.886,8.816,12.69,17.02c-8.027,55.071-50.197,98.84-104.935,108.911c-0.918,0.168-1.832,0.25-2.733,0.25    c-7.104,0-13.416-5.062-14.747-12.298c-1.5-8.153,3.894-15.981,12.047-17.481C322.061,353.266,354.474,319.625,360.644,277.295z     M274.989,150.134c-8.182-1.336-13.733-9.052-12.396-17.235c1.336-8.182,9.054-13.733,17.235-12.396    c27.585,4.505,52.65,17.393,72.484,37.272c19.838,19.882,32.671,44.98,37.112,72.581c1.317,8.185-4.251,15.888-12.437,17.206    c-0.808,0.13-1.61,0.193-2.403,0.193c-7.241,0-13.615-5.251-14.803-12.63C352.749,191.424,318.674,157.268,274.989,150.134z     M238.594,150.233c-21.628,2.946-41.422,12.542-57.242,27.749c-15.78,15.168-26.147,34.502-29.98,55.91    c-1.301,7.267-7.627,12.369-14.76,12.369c-0.878,0-1.768-0.077-2.663-0.237c-8.161-1.46-13.593-9.261-12.132-17.422    c4.957-27.688,18.347-52.676,38.727-72.265c20.435-19.642,46.022-32.04,73.994-35.852c8.221-1.116,15.782,4.633,16.901,12.847    C252.56,141.547,246.809,149.114,238.594,150.233z M64.638,229.62c4.644-42.619,24.003-82.811,54.511-113.169    c30.519-30.369,70.824-49.53,113.49-53.953c8.242-0.854,15.625,5.137,16.48,13.384s-5.137,15.624-13.383,16.48    c-35.858,3.718-69.742,19.832-95.408,45.373c-25.659,25.532-41.939,59.32-45.842,95.139c-0.838,7.689-7.344,13.387-14.905,13.387    c-0.543,0-1.092-0.029-1.645-0.09C69.694,245.273,63.74,237.863,64.638,229.62z M251.503,436.858    c-0.786,7.733-7.309,13.496-14.918,13.496c-0.507,0-1.02-0.025-1.535-0.078c-42.669-4.333-82.942-23.474-113.398-53.896    c-30.454-30.42-49.639-70.667-54.021-113.327c-0.848-8.247,5.151-15.62,13.398-16.468c8.258-0.85,15.62,5.151,16.468,13.398    c7.589,73.865,66.714,132.92,140.587,140.422C246.332,421.244,252.34,428.61,251.503,436.858z M251.514,379.221    c-1.102,7.458-7.512,12.82-14.832,12.82c-0.73,0-1.468-0.053-2.212-0.163c-27.943-4.127-53.365-16.865-73.516-36.836    c-20.139-19.959-33.103-45.245-37.49-73.124c-1.289-8.19,4.305-15.874,12.495-17.162c8.186-1.29,15.874,4.305,17.162,12.495    c3.387,21.517,13.404,41.043,28.967,56.467c15.573,15.433,35.203,25.274,56.77,28.46    C247.06,363.388,252.726,371.019,251.514,379.221z M200.758,268.381c0-9.043,3.219-25.964,31.053-68.322    c5.048-7.681,13.545-12.419,22.729-12.674c9.193-0.26,17.903,3.997,23.358,11.372c7.729,10.446,15.411,22.48,21.079,33.013    c8.254,15.341,12.267,27.316,12.267,36.611c0,30.461-24.781,55.242-55.242,55.242C225.54,323.623,200.758,298.842,200.758,268.381    z M397.234,395.292c-30.33,30.802-70.643,50.044-113.515,54.184c-0.49,0.047-0.978,0.07-1.46,0.07    c-7.641,0-14.176-5.809-14.925-13.571c-0.797-8.253,5.248-15.588,13.5-16.385c35.872-3.463,69.613-19.573,95.007-45.364    c25.421-25.817,41.007-59.856,43.886-95.843c0.662-8.264,7.9-14.424,16.161-13.767c8.264,0.661,14.428,7.897,13.767,16.161    C446.213,323.788,427.597,364.456,397.234,395.292z"/>
	</g>
</g>
<g>
</g>
<g>
</g>
<g>
</g>
<g>
</g>
<g>
</g>
<g>
</g>
<g>
</g>
<g>
</g>
<g>
</g>
<g>
</g>
<g>
</g>
<g>
</g>
<g>
</g>
<g>
</g>
<g>
</g>
</svg>
