<?xml version="1.0" encoding="iso-8859-1"?>
<!-- Generator: Adobe Illustrator 19.0.0, SVG Export Plug-In . SVG Version: 6.00 Build 0)  -->
<svg xmlns="http://www.w3.org/2000/svg" xmlns:xlink="http://www.w3.org/1999/xlink" version="1.1" id="Capa_1" x="0px" y="0px" viewBox="0 0 512 512" style="enable-background:new 0 0 512 512;" xml:space="preserve">
<g>
	<g>
		<path d="M307.571,282.408h-37.323c-3.655,0-6.617,2.962-6.617,6.617v32.348c0,3.654,2.963,6.617,6.617,6.617h37.323    c3.655,0,6.617-2.962,6.617-6.617v-32.348C314.188,285.37,311.226,282.408,307.571,282.408z"/>
	</g>
</g>
<g>
	<g>
		<path d="M227.02,282.408h-35.603c-3.655,0-6.617,2.962-6.617,6.617v32.348c0,3.655,2.962,6.617,6.617,6.617h35.603    c3.655,0,6.617-2.962,6.617-6.617v-32.348C233.638,285.37,230.676,282.408,227.02,282.408z"/>
	</g>
</g>
<g>
	<g>
		<path d="M148.192,282.408h-35.324c-3.655,0-6.617,2.962-6.617,6.617v32.348c0,3.655,2.962,6.617,6.617,6.617h35.324    c3.655,0,6.617-2.962,6.617-6.617v-32.348C154.809,285.37,151.847,282.408,148.192,282.408z"/>
	</g>
</g>
<g>
	<g>
		<path d="M410.065,88.726c-3.655,0-6.617,2.962-6.617,6.617v59.987c0,8.075-6.205,15.023-14.271,15.403    c-8.612,0.406-15.721-6.456-15.721-14.979v-60.41c0-3.655-2.962-6.617-6.617-6.617h-0.948c-3.655,0-6.617,2.962-6.617,6.617    v59.987c0,8.075-6.205,15.023-14.271,15.403c-8.612,0.406-15.721-6.456-15.721-14.979v-60.41c0-3.655-2.962-6.617-6.617-6.617    H101.935C45.638,88.726,0,134.363,0,190.66v55.137c0,3.655,2.962,6.617,6.617,6.617h498.765c3.655,0,6.617-2.962,6.617-6.617    v-55.138C512,134.363,466.362,88.726,410.065,88.726z M357.825,236.086h-203.65c-8.282,0-14.996-6.714-14.996-14.996    s6.714-14.996,14.996-14.996h203.65c8.282,0,14.996,6.714,14.996,14.996S366.108,236.086,357.825,236.086z"/>
	</g>
</g>
<g>
	<g>
		<path d="M505.383,282.407h-71.061c-3.655,0-6.617,2.962-6.617,6.617v32.348c0,3.655,2.962,6.617,6.617,6.617h61.65    c8.852,0,16.028-7.176,16.028-16.028v-22.937C512,285.37,509.037,282.407,505.383,282.407z"/>
	</g>
</g>
<g>
	<g>
		<path d="M391.094,282.408h-40.297c-3.655,0-6.617,2.962-6.617,6.617v32.348c0,3.655,2.962,6.617,6.617,6.617h40.297    c3.655,0,6.617-2.962,6.617-6.617v-32.348C397.711,285.37,394.749,282.408,391.094,282.408z"/>
	</g>
</g>
<g>
	<g>
		<path d="M69.641,282.408H6.617c-3.655,0-6.617,2.962-6.617,6.617v22.937c0,8.852,7.176,16.028,16.028,16.028h53.613    c3.654,0,6.617-2.963,6.617-6.617v-32.348C76.258,285.37,73.296,282.408,69.641,282.408z"/>
	</g>
</g>
<g>
	<g>
		<path d="M124.958,349.95c-5.856-5.857-15.35-5.856-21.207,0l-47.725,47.724c-5.857,5.855-5.857,15.351,0,21.208    c2.928,2.928,6.765,4.393,10.603,4.393c3.837,0,7.676-1.465,10.603-4.393l47.725-47.724    C130.814,365.302,130.814,355.807,124.958,349.95z"/>
	</g>
</g>
<g>
	<g>
		<path d="M202.971,349.95c-5.855-5.857-15.351-5.857-21.207,0l-47.724,47.724c-5.857,5.857-5.857,15.351,0,21.208    c2.928,2.928,6.766,4.393,10.603,4.393c3.837,0,7.676-1.464,10.603-4.393l47.724-47.724    C208.827,365.301,208.827,355.807,202.971,349.95z"/>
	</g>
</g>
<g>
	<g>
		<path d="M284.876,349.95c-5.857-5.857-15.35-5.857-21.207,0l-47.725,47.724c-5.857,5.856-5.857,15.351,0,21.208    c2.928,2.928,6.765,4.393,10.603,4.393c3.837,0,7.676-1.465,10.603-4.393l47.725-47.724    C290.732,365.302,290.732,355.807,284.876,349.95z"/>
	</g>
</g>
<g>
	<g>
		<path d="M362.888,349.95c-5.855-5.857-15.351-5.857-21.206,0l-47.724,47.724c-5.857,5.857-5.857,15.351,0,21.208    c2.928,2.928,6.766,4.393,10.603,4.393s7.676-1.464,10.603-4.393l47.724-47.724C368.745,365.301,368.745,355.807,362.888,349.95z"/>
	</g>
</g>
<g>
	<g>
		<path d="M441.24,349.95c-5.855-5.857-15.351-5.857-21.206,0l-47.724,47.724c-5.857,5.857-5.857,15.351,0,21.208    c2.928,2.928,6.766,4.393,10.603,4.393s7.676-1.464,10.603-4.393l47.724-47.724C447.097,365.301,447.097,355.807,441.24,349.95z"/>
	</g>
</g>
<g>
</g>
<g>
</g>
<g>
</g>
<g>
</g>
<g>
</g>
<g>
</g>
<g>
</g>
<g>
</g>
<g>
</g>
<g>
</g>
<g>
</g>
<g>
</g>
<g>
</g>
<g>
</g>
<g>
</g>
</svg>
