<?xml version="1.0" encoding="iso-8859-1"?>
<!-- Generator: Adobe Illustrator 19.0.0, SVG Export Plug-In . SVG Version: 6.00 Build 0)  -->
<svg version="1.1" id="Layer_1" xmlns="http://www.w3.org/2000/svg" xmlns:xlink="http://www.w3.org/1999/xlink" x="0px" y="0px"
	 viewBox="0 0 512.001 512.001" style="enable-background:new 0 0 512.001 512.001;" xml:space="preserve">
<g>
	<g>
		<path d="M179.782,0c-17.753,0-32.147,14.393-32.147,32.147c0,8.34,3.177,15.938,8.386,21.651h47.521
			c5.209-5.713,8.386-13.311,8.386-21.651C211.927,14.393,197.535,0,179.782,0z"/>
	</g>
</g>
<g>
	<g>
		<path d="M450.535,316.573c-6.456,0-13.716,0-15.355,0v-101.3c0-5.792-4.697-10.487-10.488-10.487H82.444
			c-5.792,0-10.488,4.695-10.488,10.488v101.3c-5.198,0-8.226,0-10.489,0c-5.793,0-10.486,4.695-10.486,10.488v34.79
			c0,5.792,4.695,10.488,10.488,10.488h53.793l93.725,21.028L90.344,419.985c-4.529,1.016-7.611,5.011-7.667,9.46
			c-0.002,0.074-0.006,0.147-0.007,0.219c-0.001,0.074,0.006,0.147,0.007,0.221c0.056,4.448,3.138,8.444,7.667,9.459l118.643,26.619
			L90.344,492.582c-5.295,1.188-8.625,6.445-7.438,11.741c1.187,5.286,6.432,8.628,11.741,7.438l159.231-35.725L413.11,511.76
			c5.295,1.189,10.553-2.142,11.741-7.438c1.189-5.296-2.142-10.553-7.438-11.741L298.77,465.963l118.643-26.619
			c4.529-1.016,7.611-5.011,7.667-9.459c0.001-0.074,0.008-0.147,0.007-0.221c-0.001-0.074-0.004-0.147-0.007-0.219
			c-0.056-4.449-3.138-8.444-7.667-9.46L298.77,393.367l93.725-21.028h58.037c5.792,0,10.488-4.695,10.488-10.488v-34.79
			C461.021,321.269,456.327,316.573,450.535,316.573z M370.774,429.665l-116.896,26.227l-116.896-26.227l116.896-26.227
			L370.774,429.665z M253.879,383.296L205.14,372.36c0.046-0.009,0.094-0.012,0.14-0.021h97.432L253.879,383.296z M414.203,316.574
			h-16.848v-47.658l0.102-0.677c0.136-0.897,0.091-1.797-0.102-2.662c-0.256-1.145-0.781-2.227-1.563-3.138
			c-1.374-1.598-3.376-2.517-5.483-2.517H340.43c-2.107,0-4.109,0.919-5.483,2.517c-1.374,1.598-1.982,3.716-1.666,5.799
			l7.331,48.336h-39.054l7.331-48.336c0.315-2.084-0.293-4.201-1.666-5.799c-1.374-1.598-3.376-2.517-5.483-2.517h-49.878
			c-2.107,0-4.109,0.919-5.483,2.517c-1.374,1.598-1.982,3.716-1.666,5.799l7.331,48.336h-31.83v-73.964h-37.226v73.964h-7.606
			v-73.964h-37.227v73.964c-15.906,0.001-28.627,0.001-45.222,0.001v-90.813h321.27V316.574z"/>
	</g>
</g>
<g>
	<g>
		<path d="M341.839,53.785l-58.086-15.575c-3.646-0.977-7.393,1.186-8.371,4.831l-2.832,10.561
			c-0.977,3.646,1.186,7.393,4.831,8.371l21.386,5.735l-10.132,37.787c-2.484,0.364-4.914,1.336-7.06,2.952L258.1,126.105
			l-0.108-21.604c-0.101-20.139-16.569-36.522-36.707-36.522c-8.643,0-74.617,0-83.27,0c-20.138,0-36.605,16.384-36.706,36.522
			l-0.253,50.599c-0.039,7.709,5.59,14.276,13.214,15.418l24.051,3.601v13.819h82.158v-83.265c0-1.789,1.449-3.241,3.238-3.246
			c1.789-0.004,3.246,1.44,3.255,3.23l0.263,52.486c0.03,5.865,3.365,11.213,8.62,13.818c5.283,2.621,11.554,2.007,16.216-1.5
			l48.154-36.224c6.602-4.966,8.098-14.18,3.577-20.971l10.809-40.311l20.859,5.593c3.646,0.977,7.393-1.186,8.37-4.831
			l2.832-10.561C347.647,58.511,345.484,54.764,341.839,53.785z M138.322,142.752l-6.176-0.925l0.186-37.17
			c0.008-1.652,1.352-2.985,3.003-2.981s2.987,1.344,2.987,2.995V142.752z"/>
	</g>
</g>
<g>
</g>
<g>
</g>
<g>
</g>
<g>
</g>
<g>
</g>
<g>
</g>
<g>
</g>
<g>
</g>
<g>
</g>
<g>
</g>
<g>
</g>
<g>
</g>
<g>
</g>
<g>
</g>
<g>
</g>
</svg>
