<?xml version="1.0" encoding="iso-8859-1"?>
<!-- Generator: Adobe Illustrator 19.0.0, SVG Export Plug-In . SVG Version: 6.00 Build 0)  -->
<svg version="1.1" id="Layer_1" xmlns="http://www.w3.org/2000/svg" xmlns:xlink="http://www.w3.org/1999/xlink" x="0px" y="0px"
	 viewBox="0 0 511.998 511.998" style="enable-background:new 0 0 511.998 511.998;" xml:space="preserve">
<g>
	<g>
		<path d="M348.071,175.953c-7.248-27.205,5.436-41.173-5.033-71.474c-3.598-10.412-9.591-14.124-16.23-14.123
			c-12.68,0-27.715,13.542-32.895,19.788c-3.573,4.308-5.706,8.883-6.818,13.616c7.804-0.247,15.757,1.814,22.777,6.43
			c18.118,11.914,23.146,36.258,11.235,54.375l-26.826,40.797c2.59,5.743,7.175,9.195,12.719,9.253
			c14.188,0.149,24.474,3.715,33.714,3.715c4.922,0,9.546-1.012,14.304-4.091C368.709,225.38,355.32,203.158,348.071,175.953z"/>
	</g>
</g>
<g>
	<g>
		<path d="M262.73,0l-15.693,154.295c8.828-13.427,11.37-18.554,19.434-23.942L279.729,0H262.73z"/>
	</g>
</g>
<g>
	<g>
		<path d="M299.686,145.683c-9.56-6.287-22.408-3.633-28.695,5.928l-44.297,67.367l-52.694,5.021l35.666-14.32
			c-5.854-2.14-12.414-2.39-18.741-0.258l-48.282,16.27c-14.953,5.039-22.927,21.431-17.811,36.612l16.664,49.451l90.63-35.98
			l-54.195-10.523l62.582-5.964c6.252-0.596,11.896-3.995,15.347-9.242l49.755-75.667
			C311.901,164.816,309.246,151.97,299.686,145.683z"/>
	</g>
</g>
<g>
	<g>
		<circle cx="149.966" cy="164.342" r="42.941"/>
	</g>
</g>
<g>
	<g>
		<path d="M283.157,431.793l-11.512,36.816c-4.097,13.105,3.204,27.052,16.31,31.149c11.642,3.641,26.396-1.106,31.763-18.27
			L283.157,431.793z"/>
	</g>
</g>
<g>
	<g>
		<path d="M400.135,472.401l-80.152-108.949c-5.397-7.336-14.37-11.136-23.399-9.899l-69.544,9.517
			c7.489-3.339,59.336-26.45,66.773-29.765c13.149-5.861,28.26-1.518,36.452,9.626c7.944,10.811,3.247,4.425,22.999,31.272
			l5.52-17.654c4.915-15.722-6.564-31.791-23.001-32.273l-54.099-1.586c-4.369,6.385-9.793,10.08-16.414,12.708
			c-109.816,43.598-100.761,40.02-102.152,40.521l9.919,27.792c4.646,9.218,14.768,14.919,25.571,13.438
			c17.955-2.458,71.322-9.761,90.078-12.327l71.395,97.045c8.137,11.061,23.7,13.43,34.76,5.293
			C405.902,499.025,408.273,483.462,400.135,472.401z"/>
	</g>
</g>
<g>
	<g>
		<path d="M270.648,296.874c-3.694-9.301-14.233-13.841-23.528-10.156L144.977,327.27c-9.301,3.694-13.848,14.227-10.156,23.528
			c3.678,9.263,14.173,13.857,23.528,10.156l102.143-40.552C269.794,316.708,274.339,306.175,270.648,296.874z"/>
	</g>
</g>
<g>
</g>
<g>
</g>
<g>
</g>
<g>
</g>
<g>
</g>
<g>
</g>
<g>
</g>
<g>
</g>
<g>
</g>
<g>
</g>
<g>
</g>
<g>
</g>
<g>
</g>
<g>
</g>
<g>
</g>
</svg>
