<?xml version="1.0" encoding="iso-8859-1"?>
<!-- Generator: Adobe Illustrator 19.0.0, SVG Export Plug-In . SVG Version: 6.00 Build 0)  -->
<svg version="1.1" id="Layer_1" xmlns="http://www.w3.org/2000/svg" xmlns:xlink="http://www.w3.org/1999/xlink" x="0px" y="0px"
	 viewBox="0 0 512 512" style="enable-background:new 0 0 512 512;" xml:space="preserve">
<g>
	<g>
		<polygon points="234.684,348.917 236.683,369.29 243.153,369.29 245.15,348.917 		"/>
	</g>
</g>
<g>
	<g>
		<path d="M359.204,55.68l-60.133-16.124c-3.775-1.013-7.654,1.227-8.666,5l-2.932,10.934c-1.01,3.775,1.228,7.654,5.002,8.666
			l22.139,5.936l-7.112,26.526c5.832,0.217,11.444,2.236,16.056,5.681l7.457-27.81l21.593,5.79c3.773,1.011,7.654-1.227,8.665-5.001
			l2.932-10.934C365.217,60.572,362.977,56.692,359.204,55.68z"/>
	</g>
</g>
<g>
	<g>
		<path d="M401.736,498.002l-70.72-290.618c-7.861,6.923-15.714,6.173-21.798,6.173l7.047,28.958h-10.637l-2.22,22.638h18.366
			l11.568,47.54h-34.597l-2.22,22.639h42.326l11.568,47.54h-58.556l-2.221,22.638h66.285l11.568,47.54h-82.516l-2.22,22.638h90.245
			l6.731,27.662c1.479,6.078,7.604,9.801,13.676,8.323C399.488,510.198,403.215,504.076,401.736,498.002z"/>
	</g>
</g>
<g>
	<g>
		<polygon points="199.335,242.697 199.335,265.154 209.142,265.154 214.058,242.515 		"/>
	</g>
</g>
<g>
	<g>
		<path d="M314.7,177.695c-17.903,0-16.567-0.13-34.461-0.13c0,0,1.513,1.043,1.917,1.496c6.28,7.048,7.042,16.372,5.145,25.107
			l-21.853,100.644c-0.606,2.791-1.587,5.431-2.869,7.88h-15.591c3.08-2.639,5.365-6.254,6.292-10.522l21.853-100.644
			c2.34-10.777-4.865-21.366-15.795-23.11c5.187-0.891,2.325,0.479,56.783-40.487c7.087-5.331,8.511-15.397,3.179-22.484
			c-5.303-7.05-15.397-8.514-22.484-3.179l-24.301,18.28l-0.111-22.365c-0.106-20.798-17.128-37.809-37.999-37.809
			c-10.707,0-75.46,0-86.204,0c-20.997,0-37.893,17.141-37.998,37.809l-0.263,52.382c-0.04,7.98,5.786,14.779,13.679,15.961
			l24.898,3.728c0,0.325-0.171-2.473-0.171,178.642l-33.851,139.109c-1.478,6.074,2.247,12.196,8.323,13.674
			c6.075,1.478,12.197-2.249,13.674-8.323l6.731-27.662h103.144l-2.342,23.881c-0.652,6.648,4.567,12.425,11.276,12.425
			c5.746,0,10.681-4.369,11.255-10.216l29.596-301.809H314.7v0c6.152,0,11.139-4.987,11.139-11.139
			C325.84,182.682,320.852,177.695,314.7,177.695z M233.569,108.155c0-1.856,1.505-3.361,3.361-3.361s3.361,1.505,3.361,3.361
			c0,0.062-0.001,0.125-0.002,0.188l0.273,54.334c0.059,11.569,11.047,15.663,13.018,15.663l-20.011,1.894V108.155z
			 M148.518,147.779l-6.394-0.957l0.193-38.479c0.009-1.711,1.399-3.09,3.109-3.085c1.709,0.004,3.092,1.392,3.092,3.101V147.779z
			 M248.587,453.053h-99.855l11.568-47.54h92.948L248.587,453.053z M255.469,382.874c-13.54,0-61.979,0-77.625,0
			c5.424-3.409,9.04-9.43,9.04-16.309V224.253h43.881l-15.143,69.74c-1.553,7.151,1.083,14.236,6.262,18.698
			c-19.73,0-22.548,0.001-22.548,0.001v22.638c7.125,0,53.672,0,60.796,0L255.469,382.874z"/>
	</g>
</g>
<g>
	<g>
		<path d="M191.438,0c-18.379,0-33.279,14.899-33.279,33.279c0,8.634,3.289,16.499,8.681,22.414h49.196
			c5.392-5.914,8.681-13.779,8.681-22.414C224.718,14.899,209.817,0,191.438,0z"/>
	</g>
</g>
<g>
</g>
<g>
</g>
<g>
</g>
<g>
</g>
<g>
</g>
<g>
</g>
<g>
</g>
<g>
</g>
<g>
</g>
<g>
</g>
<g>
</g>
<g>
</g>
<g>
</g>
<g>
</g>
<g>
</g>
</svg>
