<?xml version="1.0" encoding="iso-8859-1"?>
<!-- Generator: Adobe Illustrator 19.0.0, SVG Export Plug-In . SVG Version: 6.00 Build 0)  -->
<svg version="1.1" id="Layer_1" xmlns="http://www.w3.org/2000/svg" xmlns:xlink="http://www.w3.org/1999/xlink" x="0px" y="0px"
	 viewBox="0 0 511.999 511.999" style="enable-background:new 0 0 511.999 511.999;" xml:space="preserve">
<g>
	<g>
		<path d="M356.126,341.426c-9.125-9.612-20.946-10.591-32.961-9.295c2.055,11.938-1.247,24.664-10.088,34.263
			c-15.121,16.421-40.691,17.475-57.112,2.353l-16.042-14.754c-3.153,11.214-6.497,19.349-1.782,28.977
			c6.485,13.244,27.876,3.608,53.081,0.02s36.385,9.3,64.718,3.154C384.271,379.996,363.823,349.534,356.126,341.426z"/>
	</g>
</g>
<g>
	<g>
		<circle cx="327.914" cy="165.941" r="43.688"/>
	</g>
</g>
<g>
	<g>
		<path d="M296.753,324.453l-50.485-46.42l7.847-65.058l6.405,43.539c12.239-6.128,18.93-20.183,15.288-33.937l-12.959-48.937
			c-4.37-16.502-21.797-25.855-37.95-20.417l-108.294,36.573c-11.971,4.043-21.708,12.897-26.882,24.425s-5.339,24.712-0.391,36.338
			c19.341,45.444,38.907,91.396,38.907,91.396l-104.301-0.811c-0.063,0-0.125,0-0.188,0c-13.033,0-23.649,10.514-23.75,23.569
			c-0.103,13.119,10.451,24.93,23.569,25.032h140.517c0.061,0,0.123,0,0.185,0c7.936,0,15.352-3.964,19.761-10.572
			c4.443-6.659,5.231-15.109,2.098-22.477l-30.51-71.759l31.385-8.312l27.803-68.389l-9.06,75.12
			c-0.762,6.32,1.561,12.621,6.244,16.932l57.943,53.287c8.037,7.405,20.564,6.892,27.969-1.152
			C305.313,344.382,304.795,331.858,296.753,324.453z"/>
	</g>
</g>
<g>
	<g>
		<path d="M509.718,272.213c-1.859-2.222-4.608-3.505-7.505-3.505H404.47c-2.897,0-5.645,1.284-7.505,3.506
			c-1.859,2.222-2.639,5.154-2.127,8.005l18.173,101.467c0.835,4.665,4.894,8.061,9.632,8.061h61.397
			c4.738,0,8.797-3.396,9.632-8.061l18.173-101.467C512.356,277.366,511.576,274.434,509.718,272.213z"/>
	</g>
</g>
<g>
</g>
<g>
</g>
<g>
</g>
<g>
</g>
<g>
</g>
<g>
</g>
<g>
</g>
<g>
</g>
<g>
</g>
<g>
</g>
<g>
</g>
<g>
</g>
<g>
</g>
<g>
</g>
<g>
</g>
</svg>
