<?xml version="1.0" encoding="iso-8859-1"?>
<!-- Generator: Adobe Illustrator 19.0.0, SVG Export Plug-In . SVG Version: 6.00 Build 0)  -->
<svg version="1.1" id="Layer_1" xmlns="http://www.w3.org/2000/svg" xmlns:xlink="http://www.w3.org/1999/xlink" x="0px" y="0px"
	 viewBox="0 0 512.001 512.001" style="enable-background:new 0 0 512.001 512.001;" xml:space="preserve">
<g>
	<g>
		<path d="M191.728,0c-23.274,0-42.14,18.867-42.14,42.14c0,1.775,0.122,3.52,0.336,5.236l16.141,4.217
			c0.288-2.19,2.142-3.888,4.413-3.888h42.501c2.391,0,4.325,1.88,4.447,4.24l16.06-4.194c0.245-1.836,0.383-3.707,0.383-5.61
			C233.87,18.867,215.002,0,191.728,0z"/>
	</g>
</g>
<g>
	<g>
		<path d="M153.47,59.805c1.121,2.424,2.465,4.721,4.006,6.869c10.589-2.766,7.678-2.005,11.144-2.911
			C165.349,62.908,168.038,63.611,153.47,59.805z"/>
	</g>
</g>
<g>
	<g>
		<path d="M202.522,88.343c-9.429-6.105-22.016-3.41-28.119,6.015l-35.149,54.128l-0.031,0.047l0.024-0.066l19.298-50.754
			c-6.467,0-10.79,0-17.097,0c-32.596,0-54.853,24.96-43.664,54.698c2.296,7.102,13.678,42.307,15.971,49.396
			c5.243,16.214,27.062,19.237,36.416,4.798l58.366-90.143C214.64,107.035,211.947,94.446,202.522,88.343z"/>
	</g>
</g>
<g>
	<g>
		<path d="M216.217,63.763c1.644,0.43-0.092-0.025,9.98,2.607c1.366-1.94,2.577-3.995,3.605-6.155
			C216.529,63.682,218,63.297,216.217,63.763z"/>
	</g>
</g>
<g>
	<g>
		<path d="M367.968,327.577V185.693l10.588-8.604c15.239-12.384,17.561-34.858,5.177-50.096c-4.201-5.17-9.662-8.973-15.766-11.124
			V41.966c0-5.839-4.733-10.572-10.572-10.572s-10.572,4.733-10.572,10.572v73.111c-1.719,0.464-3.405,1.055-5.037,1.771
			c-2.905-3.415-6.806-5.808-11.252-6.851c-11.28-2.662-22.711,4.227-25.415,15.755l-5.579,23.774
			c-4.742,3.854-4.494,3.616-5.241,4.326l-0.041-8.26c-0.134-26.4-21.719-47.876-48.118-47.876h-22.189
			c2.025,8.551,0.7,17.882-4.454,25.842l-9.599,14.824l-48.769,75.32c-5.548,8.568-14.361,13.743-23.749,14.96l0.009,258.94
			c0,13.475,10.924,24.4,24.4,24.4s24.4-10.924,24.4-24.4v-195.03h10.536V487.6c0,13.475,10.924,24.4,24.4,24.4
			s24.4-10.924,24.4-24.4c0-90.648-0.421-247.831-0.442-341.908c0-2.35,1.904-4.256,4.253-4.256c2.35,0,4.256,1.904,4.256,4.253
			c0,0.034,0,0.07,0,0.105l0.346,68.804c0.039,7.688,4.41,14.698,11.298,18.113c6.895,3.42,15.122,2.649,21.258-1.968l33.775-25.406
			c2.879,3.549,6.018,6.084,11.301,6.084c2.96,0,5.938-0.978,8.414-2.991l6.835-5.554v124.701l-26.326,43.52h16.909l9.418-15.569
			v15.569c7.99,0,12.951,0,21.145,0v-15.569l9.418,15.569h16.909L367.968,327.577z M331.563,198.067l-28.075-34.546l8.008-6.507
			l6.621-28.213c0.982-4.182,5.164-6.794,9.364-5.804c4.189,0.983,6.787,5.174,5.804,9.364l-2.014,8.583l10.786-8.765
			c9.541-7.753,23.56-6.302,31.31,3.236c7.752,9.54,6.304,23.557-3.235,31.31L331.563,198.067z"/>
	</g>
</g>
<g>
	<g>
		<path d="M414.811,391.829c-1.901-2.271-4.711-3.585-7.673-3.585h-99.937c-2.962,0-5.773,1.312-7.673,3.585
			c-1.901,2.271-2.698,5.269-2.176,8.185l18.581,103.744c0.855,4.77,5.003,8.241,9.849,8.241h62.774
			c4.846,0,8.994-3.472,9.849-8.241l18.581-103.744C417.509,397.098,416.712,394.101,414.811,391.829z"/>
	</g>
</g>
<g>
</g>
<g>
</g>
<g>
</g>
<g>
</g>
<g>
</g>
<g>
</g>
<g>
</g>
<g>
</g>
<g>
</g>
<g>
</g>
<g>
</g>
<g>
</g>
<g>
</g>
<g>
</g>
<g>
</g>
</svg>
