<?xml version="1.0" encoding="iso-8859-1"?>
<!-- Generator: Adobe Illustrator 19.0.0, SVG Export Plug-In . SVG Version: 6.00 Build 0)  -->
<svg version="1.1" id="Layer_1" xmlns="http://www.w3.org/2000/svg" xmlns:xlink="http://www.w3.org/1999/xlink" x="0px" y="0px"
	 viewBox="0 0 512.002 512.002" style="enable-background:new 0 0 512.002 512.002;" xml:space="preserve">
<g>
	<g>
		<path d="M217.898,366.214c-14.338,0-107.655,0-121.624,0V261.583c0-12.283-9.958-22.24-22.24-22.24H60.931
			c-12.284,0-22.24,9.958-22.24,22.24c0,18.305,0,138.941,0,153.43c0,12.284,9.958,22.24,22.24,22.24h37.72v17.252
			c0,8.67-7.028,15.699-15.698,15.699H38.69v41.796h64.859c22.852,0,41.381-18.524,41.381-41.375c0-11.215,0-23.201,0-34.056
			c42.034-4.448,75.111-30.22,79.769-62.509C225.295,369.929,222.092,366.214,217.898,366.214z"/>
	</g>
</g>
<g>
	<g>
		<path d="M469.503,251.637l-54.197-132.115c-0.112-0.274-0.236-0.538-0.354-0.806l-14.757,20.028l29.933-72.859
			c4.572-11.124-1.166-23.806-12.518-27.729L310.588,1.155c-10.921-3.779-22.838,2.016-26.614,12.939
			c-3.777,10.922,2.017,22.838,12.939,26.614l86.083,29.762l-21.515,52.368l2.318-15.913c-2.097,0.859-40.681,16.687-40.681,16.687
			c-12.511,5.132-19.895,17.46-19.334,30.236l-29.089,32.291l-73.387,6.237l-38.117-48.018c6.649,1.099,7.048,1.226,8.088,1.226
			c3.906,0,7.352-2.823,8.009-6.804c0.732-4.428-2.265-8.612-6.693-9.343l-12.809-2.116c-0.42-1.361-0.907-2.742-1.471-4.137
			l10.359-1.833c4.42-0.782,7.37-4.998,6.586-9.417c-0.782-4.421-5.002-7.379-9.418-6.586l-16.145,2.857
			c-1.898-2.506-3.982-4.936-6.346-7.316l11.667-6.353c3.942-2.146,5.397-7.083,3.251-11.024c-2.148-3.943-7.085-5.397-11.024-3.251
			l-15.768,8.587l0.933-16.036c0.26-4.481-3.161-8.325-7.641-8.584c-4.509-0.265-8.325,3.161-8.586,7.641L115.34,86.37
			c-3.285,0.049-6.209,0.961-8.549,2.832c-2.217,1.773-3.701,4.253-4.508,7.224l-13.313-2.2c-4.428-0.727-8.612,2.265-9.343,6.693
			c-0.732,4.429,2.265,8.612,6.693,9.343l15.015,2.481l-12.45,14.18c-2.962,3.372-2.627,8.508,0.745,11.469
			c3.369,2.96,8.507,2.629,11.469-0.745l9.011-10.264c1.734,2.728,3.595,5.253,5.653,7.704l-6.497,15.497
			c-1.736,4.14,0.214,8.901,4.354,10.637c4.154,1.739,8.907-0.226,10.637-4.354l4.203-10.025c1.198,0.835,2.399,1.596,3.596,2.294
			l-0.775,13.338c-0.27,4.652,3.423,8.598,8.12,8.598c4.273,0,7.855-3.336,8.106-7.656l0.403-6.939l32.947,41.505
			c-5.009,4.23-7.972,10.73-7.374,17.759c0.978,11.495,11.078,20.053,22.622,19.08l90.376-7.681
			c5.295-0.45,10.22-2.897,13.776-6.846l19.788-21.967l36.254,88.382l-41.464,72.735c-2.542,4.458-3.611,9.606-3.057,14.707
			l12.624,116.105c1.454,13.381,13.48,23.053,26.867,21.597c13.383-1.455,23.052-13.484,21.597-26.867l-11.77-108.256l46.09-80.852
			l10.464-4.292l-25.639,75.937c-1.277,3.784-1.605,7.825-0.956,11.765l18.532,112.302c2.189,13.262,14.708,22.274,28.018,20.082
			c13.283-2.192,22.274-14.737,20.082-28.018l-17.542-106.299l30.479-90.081C474.56,275.647,474.161,262.992,469.503,251.637z"/>
	</g>
</g>
<g>
	<g>
		<path d="M290.476,59.337c-7.181-2.483-13.216-6.781-17.779-12.2c-2.2,9.117-1.664,18.983,2.167,28.323
			c9.681,23.602,36.661,34.885,60.261,25.204c9.355-3.838,16.765-10.399,21.711-18.385L290.476,59.337z"/>
	</g>
</g>
<g>
</g>
<g>
</g>
<g>
</g>
<g>
</g>
<g>
</g>
<g>
</g>
<g>
</g>
<g>
</g>
<g>
</g>
<g>
</g>
<g>
</g>
<g>
</g>
<g>
</g>
<g>
</g>
<g>
</g>
</svg>
