<?xml version="1.0" encoding="iso-8859-1"?>
<!-- Generator: Adobe Illustrator 19.0.0, SVG Export Plug-In . SVG Version: 6.00 Build 0)  -->
<svg version="1.1" id="Layer_1" xmlns="http://www.w3.org/2000/svg" xmlns:xlink="http://www.w3.org/1999/xlink" x="0px" y="0px"
	 viewBox="0 0 512.001 512.001" style="enable-background:new 0 0 512.001 512.001;" xml:space="preserve">
<g>
	<g>
		<path d="M395.034,59.926v-9.278c10.777-3.106,18.682-13.058,18.682-24.821C413.715,11.586,402.13,0,387.889,0
			s-25.826,11.586-25.826,25.826c0,3.945,3.198,7.143,7.143,7.143c3.945,0,7.143-3.198,7.143-7.143
			c0-6.363,5.176-11.539,11.539-11.539c6.363,0,11.539,5.176,11.539,11.539c0,6.362-5.173,11.539-11.536,11.539
			c-3.945,0-7.143,3.198-7.143,7.143v15.418l-18.907,9.518c1.521,2.15,2.423,4.768,2.423,7.602c0,2.322,0.35,4.561,0.977,6.681
			l22.65-11.403l22.65,11.403c0.627-2.121,0.977-4.36,0.977-6.681c0-2.834,0.903-5.452,2.423-7.602L395.034,59.926z"/>
	</g>
</g>
<g>
	<g>
		<circle cx="85.253" cy="57.681" r="43.531"/>
	</g>
</g>
<g>
	<g>
		<path d="M499.035,77.046c-15.313,0-57.844,0-74.329,0c0,20.333-16.483,36.815-36.815,36.815
			c-20.332,0-36.815-16.483-36.815-36.815c-9.176,0-65.545,0-74.329,0c-3.559,0-6.445,2.885-6.445,6.444v16.125l38.326,32.094
			c8.323,6.97,9.425,19.413,2.454,27.735l-1.218,1.455v107.944c0,3.559,2.885,6.445,6.445,6.445h143.164
			c3.559,0,6.445-2.885,6.445-6.445V138.65h33.119c3.559,0,6.445-2.885,6.445-6.445V83.489
			C505.479,79.93,502.594,77.046,499.035,77.046z"/>
	</g>
</g>
<g>
	<g>
		<path d="M301.574,140.133l-64.18-53.741c-3.685-3.085-9.17-2.597-12.254,1.084l-7.199,8.598
			c-3.085,3.684-2.598,9.169,1.084,12.254l24.568,20.573c-9.737,9.217-4.667,4.418-36.179,34.251
			c-1.464,1.386-2.406,3.232-2.671,5.23l-0.641,4.841l-55.729-2.266l-59.291-35.555l51.565,15.293v-1.082
			c0-16.239-13.164-29.404-29.404-29.404H58.808c-16.24,0-29.404,13.164-29.404,29.404L6.623,341.884
			c-0.908,6.607,4.233,12.494,10.893,12.494h11.746l-0.374,132.349C28.848,500.645,40.1,511.96,54.019,512c0.025,0,0.048,0,0.073,0
			c13.885,0,25.161-11.236,25.2-25.131l0.375-132.491h11.024l0.01,132.423c0.001,13.918,11.285,25.201,25.205,25.2
			c13.919-0.001,25.201-11.284,25.2-25.205l-0.01-132.418h8.566c6.586,0,11.704-5.763,10.917-12.307l-13.21-109.931
			c-13.436-0.546-19.571,0.385-25.863-5.964c-6.006-6.088-48.401-49.051-54.023-54.748l63.881,38.309
			c3.015,1.808,6.436,2.83,9.949,2.973l57.247,2.326c-1.121,8.462-29.706,224.199-31.24,235.77
			c-1.037,7.826,1.291,15.714,6.38,21.73c1.812-7.698,5.733-14.59,11.13-20.021c1.55-11.681,30.252-228.301,31.373-236.763
			c14.979,0.61,23.088-9.669,23.511-20.064c0.442-10.863-7.45-20.133-17.985-21.64l0.036-0.268
			c37.597-35.593,17.987-17.027,35.4-33.514l26.038,21.803c3.684,3.085,9.169,2.599,12.254-1.084l7.2-8.598
			C305.743,148.703,305.257,143.217,301.574,140.133z"/>
	</g>
</g>
<g>
	<g>
		<path d="M214.682,452.361c-16.521,0-29.819,13.423-29.82,29.82c0,16.473,13.355,29.819,29.82,29.819
			c16.47,0,29.82-13.35,29.82-29.819C244.501,465.746,231.184,452.361,214.682,452.361z M214.682,491.958
			c-5.4,0-9.777-4.378-9.777-9.777c0-5.399,4.378-9.777,9.777-9.777c5.399,0,9.777,4.378,9.777,9.777
			C224.458,487.581,220.082,491.958,214.682,491.958z"/>
	</g>
</g>
<g>
	<g>
		<path d="M353.76,453.691h-12.025v-6.64c0-10.588-8.583-19.172-19.172-19.172h-95.559c-8.271,0-15.297,5.247-17.986,12.586
			c1.854-0.251,3.742-0.392,5.663-0.392c23.218,0,42.107,18.891,42.107,42.108c0,11.192-4.398,21.37-11.545,28.92h77.319
			c10.588,0,19.172-8.583,19.172-19.172v-0.331h12.025c3.034,0,5.494-2.46,5.494-5.494v-26.918
			C359.254,456.151,356.794,453.691,353.76,453.691z M325.164,468.24c0,3.036-2.46,5.494-5.494,5.494H282.5
			c-3.034,0-5.494-2.46-5.494-5.494v-20.784c0-3.036,2.46-5.494,5.494-5.494h37.17c3.034,0,5.494,2.46,5.494,5.494V468.24z"/>
	</g>
</g>
<g>
</g>
<g>
</g>
<g>
</g>
<g>
</g>
<g>
</g>
<g>
</g>
<g>
</g>
<g>
</g>
<g>
</g>
<g>
</g>
<g>
</g>
<g>
</g>
<g>
</g>
<g>
</g>
<g>
</g>
</svg>
