<?xml version="1.0" encoding="iso-8859-1"?>
<!-- Generator: Adobe Illustrator 19.0.0, SVG Export Plug-In . SVG Version: 6.00 Build 0)  -->
<svg version="1.1" id="Layer_1" xmlns="http://www.w3.org/2000/svg" xmlns:xlink="http://www.w3.org/1999/xlink" x="0px" y="0px"
	 viewBox="0 0 512 512" style="enable-background:new 0 0 512 512;" xml:space="preserve">
<g>
	<g>
		<path d="M511.513,437.904l-60.416-246.188l1.359-0.504c6.504-2.415,9.821-9.646,7.406-16.151
			c-2.415-6.504-9.646-9.821-16.151-7.406l-11.661,4.329c3.602-3.355,5.04-8.668,3.22-13.571c-2.414-6.504-9.646-9.821-16.151-7.406
			l-151.07,56.083c-6.504,2.415-9.821,9.646-7.406,16.151c1.822,4.908,6.386,7.991,11.311,8.176l-6.564,2.436l-20.847-10.42
			c0.513,5.325-0.132,10.846-2.104,16.204c-1.149,3.121-2.682,5.989-4.517,8.579l21.11,10.553c4.039,2.019,7.426,1.492,11.315,0.048
			l73.842,146.288c5.279-4.273,11.315-7.788,18.027-10.279c33.701-12.512,70.514,5.186,82.66,37.903
			c5.74,15.462,5.124,31.751-0.514,45.998l56.665-21.036C509.039,454.716,513.549,446.205,511.513,437.904z"/>
	</g>
</g>
<g>
	<g>
		<path d="M426.029,439.724c-8.311-22.387-33.543-34.69-56.818-26.053c-22.901,8.503-34.557,33.914-26.054,56.818
			c8.369,22.543,33.693,34.636,56.818,26.054C422.824,488.061,434.511,462.572,426.029,439.724z M391.231,472.987
			c-10.058,3.735-20.931-1.582-24.516-11.242c-3.668-9.88,1.359-20.848,11.242-24.516c10.087-3.743,20.942,1.615,24.516,11.242
			C406.133,458.329,401.089,469.327,391.231,472.987z"/>
	</g>
</g>
<g>
	<g>
		<path d="M214.751,208.342l-63.709-23.44l-29.872-48.416l32.217,30.474l4.41-20.609c3.448-16.111-6.818-31.965-22.929-35.413
			L82.846,99.805c-16.111-3.448-31.966,6.817-35.413,22.928L18.321,273.026c0.107,1.123,5.617,36.918,12.993,84.994L0.852,469.126
			c-3.472,12.661,3.979,25.74,16.641,29.211c12.661,3.47,25.74-3.98,29.211-16.641l31.8-115.99c0.883-3.22,1.077-6.59,0.571-9.889
			l-11.067-72.158l10.452,2.237l27.852,75.936l7.5,115.126c0.854,13.113,12.183,23.035,25.267,22.176
			c13.1-0.853,23.029-12.165,22.176-25.267l-7.722-118.547c-0.147-2.269-0.621-4.506-1.404-6.64l-23.765-64.792l9.328-43.589
			c-9.857-3.627-9.455-3.478-19.175-7.055c-5.997-2.206-10.305-7.127-12.05-12.796l-19.015-63.157l33.466,54.241
			c2.329,3.774,5.856,6.658,10.019,8.19l70.133,25.804c10.271,3.778,21.655-1.487,25.432-11.751
			C230.281,223.505,225.019,212.119,214.751,208.342z"/>
	</g>
</g>
<g>
	<g>
		<circle cx="133.273" cy="53.443" r="40.757"/>
	</g>
</g>
<g>
</g>
<g>
</g>
<g>
</g>
<g>
</g>
<g>
</g>
<g>
</g>
<g>
</g>
<g>
</g>
<g>
</g>
<g>
</g>
<g>
</g>
<g>
</g>
<g>
</g>
<g>
</g>
<g>
</g>
</svg>
