<?xml version="1.0" encoding="iso-8859-1"?>
<!-- Generator: Adobe Illustrator 19.0.0, SVG Export Plug-In . SVG Version: 6.00 Build 0)  -->
<svg version="1.1" id="Layer_1" xmlns="http://www.w3.org/2000/svg" xmlns:xlink="http://www.w3.org/1999/xlink" x="0px" y="0px"
	 viewBox="0 0 512 512" style="enable-background:new 0 0 512 512;" xml:space="preserve">
<g>
	<g>
		<path d="M218.531,446.916c-6.697,0-12.943-2.033-18.124-5.544V487.6c0,13.476,10.924,24.4,24.4,24.4
			c13.475,0,24.4-10.924,24.4-24.4v-40.685H218.531z"/>
	</g>
</g>
<g>
	<g>
		<path d="M290.418,446.917h-30.677V487.6c0,13.476,10.924,24.4,24.4,24.4s24.4-10.924,24.4-24.4v-46.227
			C303.36,444.884,297.114,446.917,290.418,446.917z"/>
	</g>
</g>
<g>
	<g>
		<circle cx="256.294" cy="42.14" r="42.14"/>
	</g>
</g>
<g>
	<g>
		<path d="M316.138,251.603c-1.653-15.651-14.375-27.826-29.831-27.826c-5.568,0-10.778,1.586-15.248,4.339
			c-3.58-7.548-11.741-12.828-21.247-12.828c-12.808,0-23.191,9.574-23.191,21.385c0,1.852,0.282,3.639,0.762,5.353
			c-11.852,1.413-22.057,4.878-28.962,9.577H316.138z"/>
	</g>
</g>
<g>
	<g>
		<path d="M224.692,97.714c5.427,15.314,12.432,35.081,17.648,49.802c10.642,0,17.819,0,27.337,0
			c5.885-16.608,11.797-33.29,17.648-49.802C275.359,97.714,236.688,97.714,224.692,97.714z"/>
	</g>
</g>
<g>
	<g>
		<path d="M366.682,184.056c-22.392-38.164-29.967-48.78-34.968-56.438c-6.955-10.652-14.623-22.377-28.466-27.396
			c-3.972,11.208-17.464,49.28-17.464,49.28s4.056,34.966,7.795,56.73c8.155,1.274,21.915,9.594,21.915,9.594l-8.854-52.352
			c0,0,16.908,27.543,21.85,35.88c-0.412,7.093-3.375,58.203-3.71,63.985l-136.402,0.148l-1.161-0.148
			c-0.651-11.222-2.387-41.179-3.709-63.985c5.109-8.62,15.396-25.848,22.563-36.996c-2.949,24.116-0.351,8.859-12.385,70.996
			c4.789-2.558,10.187-4.681,16.066-6.306c1.536-5.842,4.437-11.17,8.358-15.657c4.857-28.266,8.539-60.717,8.539-60.717
			s-7.438-20.987-17.881-50.458c-13.852,5.015-21.524,16.745-28.483,27.4c-4.899,7.504-12.589,18.296-34.969,56.44
			c-2.034,3.467-2.996,7.458-2.763,11.47l4.199,72.428c1.006,17.35,21.918,25.426,34.356,13.496h5.312
			c8.229,59.461,4.817,31.102,15.881,134.913c0.885,8.298,7.885,14.593,16.23,14.593h71.888c8.345,0,15.346-6.295,16.23-14.593
			c0.619-5.811,13.871-130.152,14.377-134.913c3.439,0,6.44,0,9.865,0c12.408,11.898,33.348,3.895,34.356-13.496l4.199-72.427
			C369.678,191.513,368.717,187.522,366.682,184.056z M293.087,328.683v1.529c0,2.843-2.305,5.148-5.148,5.148h-66.933
			c-2.843,0-5.147-2.305-5.147-5.148v-1.529v-22.18c0-2.842,2.305-5.147,5.147-5.147h66.933c2.843,0,5.148,2.305,5.148,5.147
			V328.683z"/>
	</g>
</g>
<g>
</g>
<g>
</g>
<g>
</g>
<g>
</g>
<g>
</g>
<g>
</g>
<g>
</g>
<g>
</g>
<g>
</g>
<g>
</g>
<g>
</g>
<g>
</g>
<g>
</g>
<g>
</g>
<g>
</g>
</svg>
