<?xml version="1.0" encoding="iso-8859-1"?>
<!-- Generator: Adobe Illustrator 19.0.0, SVG Export Plug-In . SVG Version: 6.00 Build 0)  -->
<svg version="1.1" id="Layer_1" xmlns="http://www.w3.org/2000/svg" xmlns:xlink="http://www.w3.org/1999/xlink" x="0px" y="0px"
	 viewBox="0 0 511.986 511.986" style="enable-background:new 0 0 511.986 511.986;" xml:space="preserve">
<g>
	<g>
		<circle cx="207.795" cy="45.074" r="45.074"/>
	</g>
</g>
<g>
	<g>
		<path d="M324.799,339.727c-2.357-17.921-10.499-52.586-21.548-74.792c-3.439-6.913-7.16-12.614-11.076-16.231
			c3.772-3.087,6.468-7.515,7.26-12.713c0.279-1.831,0.283-3.638,0.082-5.395c5.785,3.444,11.867,5.695,17.476,7.576
			c1.201,0.402,2.607-0.026,3.36-1.129c0.881-1.293,0.72-3.063-1.079-4.292c-7.534-5.137-14.344-10.722-19.545-18.591
			c14.134-6.763,9.955-4.763,17.154-8.208c4.179-1.999,5.946-7.009,3.947-11.189c-2.001-4.18-7.013-5.947-11.19-3.947
			c-19.384,9.275-13.806,6.606-30.33,14.513c-2.505,1.198-4.215,3.544-4.65,6.229c-7.177-1.094-54.882-8.362-62.172-9.472
			l-32.754-70.426l42.336,51.243l9.802-36.212c4.394-16.233-5.203-32.953-21.436-37.347l-52.414-14.188
			c-10.766-2.914-20.135,2.481-29.199,7.578c-22.033,12.393-72.565,44.84-72.565,44.84c-11.466,7.086-13.033,23.158-3.172,32.327
			l40.307,37.486c-0.033,0.123-13.328,50.058-13.328,50.058s6.093,28.561,26.856,114.048l-13.37,103.66
			c-1.68,13.029,7.519,24.955,20.55,26.635c13.024,1.679,24.954-7.516,26.634-20.55l13.933-108.027
			c0.373-2.886,0.213-5.817-0.473-8.646l-22.577-93.168l0.37,0.1c0.831,1.936-3.466-5.75,55.951,98.477l-11.487,105.649
			c-1.421,13.061,8.017,24.799,21.077,26.22c13.035,1.42,24.797-7.998,26.22-21.077l12.32-113.307
			c0.542-4.979-0.503-10.002-2.983-14.352l-40.542-71.118l8.267-30.54l-8.25-1.257c-18.65-2.842-29.772-17.764-31.683-26.972
			l-16.973-81.753l36.169,77.767c2.917,6.269,8.776,10.56,15.442,11.577l75.291,11.471c-3.661,4.617-7.1,10.975-10.242,18.271
			c-9.558,22.188-16.38,52.999-18.403,69.529c-0.405,3.311,2.204,6.205,5.497,6.191l71.696-0.308
			C322.672,345.951,325.232,343.027,324.799,339.727z M105.453,172.83l-4.936-4.591l7.419-4.584L105.453,172.83z"/>
	</g>
</g>
<g>
	<g>
		<path d="M460.507,195.179l-100.132-11.672l83.975-36.754c2.804-1.227,4.082-4.496,2.855-7.301c-1.226-2.804-4.494-4.086-7.3-2.855
			l-102.739,44.967c-2.293,1.005-3.63,3.42-3.26,5.897c0.37,2.476,2.353,4.397,4.841,4.687l120.477,14.044
			c0.219,0.026,0.434,0.038,0.649,0.038c2.775,0,5.171-2.08,5.5-4.902C465.726,198.286,463.547,195.534,460.507,195.179z"/>
	</g>
</g>
<g>
</g>
<g>
</g>
<g>
</g>
<g>
</g>
<g>
</g>
<g>
</g>
<g>
</g>
<g>
</g>
<g>
</g>
<g>
</g>
<g>
</g>
<g>
</g>
<g>
</g>
<g>
</g>
<g>
</g>
</svg>
