<?xml version="1.0" encoding="iso-8859-1"?>
<!-- Generator: Adobe Illustrator 19.0.0, SVG Export Plug-In . SVG Version: 6.00 Build 0)  -->
<svg version="1.1" id="Layer_1" xmlns="http://www.w3.org/2000/svg" xmlns:xlink="http://www.w3.org/1999/xlink" x="0px" y="0px"
	 viewBox="0 0 512 512" style="enable-background:new 0 0 512 512;" xml:space="preserve">
<g>
	<g>
		<path d="M155.011,379.08c-2.102-2.513-5.211-3.964-8.487-3.964H35.984c-3.276,0-6.385,1.452-8.487,3.964
			c-2.102,2.512-2.984,5.828-2.406,9.053l20.553,114.751c0.945,5.275,5.534,9.116,10.893,9.116h69.435
			c5.36,0,9.948-3.841,10.893-9.116l20.553-114.751C157.994,384.908,157.113,381.593,155.011,379.08z"/>
	</g>
</g>
<g>
	<g>
		<circle cx="281.536" cy="42.14" r="42.14"/>
	</g>
</g>
<g>
	<g>
		<path d="M485.758,468.576c-1.56-2.457-4.269-3.945-7.179-3.945h-52.268V193.119l13.106-9.859
			c8.974-6.751,10.776-19.498,4.025-28.472c-4.183-5.56-10.669-8.361-17.133-8.086V83.955c0-5.532-4.484-10.016-10.016-10.016
			c-5.532,0-10.016,4.484-10.016,10.016v73.347l-22.08,16.609l-0.142-28.32c-0.132-26.4-21.718-47.877-48.118-47.877H226.78
			c-26.399,0-47.985,21.476-48.118,47.876l-0.75,149.38c-0.057,11.229,9.001,20.379,20.231,20.435c0.034,0,0.07,0,0.105,0
			c11.181,0,20.274-9.037,20.331-20.231l0.75-149.379c0-0.018,0-0.035,0-0.052c0.027-2.159,1.791-3.892,3.95-3.878
			s3.902,1.767,3.902,3.926l0.009,341.809c0,13.476,10.924,24.4,24.4,24.4s24.4-10.924,24.4-24.4V292.571h10.535V487.6
			c0,13.476,10.924,24.4,24.4,24.4c13.476,0,24.4-10.924,24.4-24.4l-0.434-342.035c-0.003-2.288,1.808-4.167,4.094-4.247
			c2.286-0.08,4.228,1.665,4.385,3.947c0.012,0.172,0.019,0.348,0.022,0.53l0.346,68.804c0.039,7.689,4.41,14.698,11.298,18.113
			c6.913,3.429,15.137,2.638,21.258-1.968l29.985-22.557v256.443h-38.003c-3.296,0-6.296,1.904-7.697,4.888l-14.266,30.361
			c-1.238,2.634-1.043,5.718,0.518,8.175c1.56,2.457,4.269,3.945,7.179,3.945h110.302c3.296,0,6.294-1.904,7.697-4.888
			l14.266-30.361C487.513,474.118,487.318,471.034,485.758,468.576z"/>
	</g>
</g>
<g>
</g>
<g>
</g>
<g>
</g>
<g>
</g>
<g>
</g>
<g>
</g>
<g>
</g>
<g>
</g>
<g>
</g>
<g>
</g>
<g>
</g>
<g>
</g>
<g>
</g>
<g>
</g>
<g>
</g>
</svg>
