<?xml version="1.0" encoding="iso-8859-1"?>
<!-- Generator: Adobe Illustrator 19.0.0, SVG Export Plug-In . SVG Version: 6.00 Build 0)  -->
<svg version="1.1" id="Layer_1" xmlns="http://www.w3.org/2000/svg" xmlns:xlink="http://www.w3.org/1999/xlink" x="0px" y="0px"
	 viewBox="0 0 512 512" style="enable-background:new 0 0 512 512;" xml:space="preserve">
<g>
	<g>
		<path d="M8.651,333.748v163.009c0,8.419,6.824,15.243,15.243,15.243h196.472c8.419,0,15.243-6.825,15.243-15.243V333.748H8.651z
			 M162.801,455.773c-22.477,22.478-58.861,22.483-81.341-0.001c-22.478-22.478-22.479-58.862,0-81.34
			c22.478-22.478,58.861-22.481,81.341,0C185.28,396.909,185.283,433.292,162.801,455.773z"/>
	</g>
</g>
<g>
	<g>
		<path d="M96.117,389.088c-14.379,14.379-14.38,37.649,0,52.029l52.029-52.029C133.77,374.71,110.497,374.707,96.117,389.088z"/>
	</g>
</g>
<g>
	<g>
		<path d="M220.368,265.35H23.895c-8.419,0-15.243,6.825-15.243,15.243v32.429h226.96v-32.429
			C235.611,272.175,228.787,265.35,220.368,265.35z M171.186,300.585c-5.151,0-9.327-4.176-9.327-9.327
			c0-5.151,4.176-9.327,9.327-9.327c5.151,0,9.327,4.176,9.327,9.327C180.512,296.41,176.336,300.585,171.186,300.585z
			 M206.421,302.658c-6.296,0-11.4-5.104-11.4-11.4s5.104-11.4,11.4-11.4s11.4,5.104,11.4,11.4
			C217.821,297.554,212.717,302.658,206.421,302.658z"/>
	</g>
</g>
<g>
	<g>
		<path d="M220.368,0H23.896C15.477,0,8.651,6.824,8.651,15.243v32.429h226.96V15.243C235.611,6.824,228.787,0,220.368,0z
			 M171.186,35.235c-5.151,0-9.327-4.176-9.327-9.327c0-5.151,4.176-9.327,9.327-9.327c5.151,0,9.327,4.176,9.327,9.327
			C180.512,31.059,176.336,35.235,171.186,35.235z M206.421,37.308c-6.296,0-11.4-5.104-11.4-11.4s5.104-11.4,11.4-11.4
			s11.4,5.104,11.4,11.4S212.717,37.308,206.421,37.308z"/>
	</g>
</g>
<g>
	<g>
		<path d="M8.651,68.398v163.009c0,8.419,6.824,15.243,15.243,15.243h196.472c8.419,0,15.243-6.825,15.243-15.243V68.398H8.651z
			 M122.131,207.27c-31.715,0-57.518-25.802-57.518-57.518c0-31.716,25.803-57.518,57.518-57.518s57.518,25.802,57.518,57.518
			C179.649,181.468,153.846,207.27,122.131,207.27z"/>
	</g>
</g>
<g>
	<g>
		<path d="M122.132,112.962v73.581c20.286-0.001,36.79-16.505,36.79-36.791S142.418,112.962,122.132,112.962z"/>
	</g>
</g>
<g>
	<g>
		<path d="M391.444,445.213l-5.491-6.341c-5.539-6.396-7.923-14.449-7.296-22.266l-21.964,12.065l-4.736,60.728
			c-0.901,11.546,7.73,21.637,19.277,22.537c0.555,0.042,1.105,0.063,1.652,0.063c10.841,0,20.027-8.349,20.884-19.34l3.202-41.065
			L391.444,445.213z"/>
	</g>
</g>
<g>
	<g>
		<circle cx="315.279" cy="240.014" r="38.571"/>
	</g>
</g>
<g>
	<g>
		<path d="M498.229,477.3l-49.483-57.13c0,0,33.859-32.7,35.409-34.233c9.349-9.25,16.286-20.677,16.768-33.878
			c0.504-13.82-5.225-27.135-15.607-36.269l-41.67-36.665c-14.035-12.349-32.588-18.278-51.183-16.355
			c-18.595,1.923-35.543,11.522-46.753,26.482c-8.63,11.516-6.29,27.846,5.225,36.476l22.807,17.092l-0.465-21.114l10.842,35.983
			l-59.878,32.892c-8.459,4.647-11.549,15.27-6.903,23.729c4.649,8.466,15.278,11.548,23.73,6.903l68.449-39.714
			c8.749-5.076,12.909-15.466,10.08-25.178l-17.676-60.69l35.564,67.844l15.363-10.258l-47.653,52.546
			c-7.126,7.857-7.262,19.799-0.317,27.816l61.65,71.18c7.581,8.755,20.826,9.705,29.579,2.122
			C504.862,499.298,505.812,486.055,498.229,477.3z"/>
	</g>
</g>
<g>
</g>
<g>
</g>
<g>
</g>
<g>
</g>
<g>
</g>
<g>
</g>
<g>
</g>
<g>
</g>
<g>
</g>
<g>
</g>
<g>
</g>
<g>
</g>
<g>
</g>
<g>
</g>
<g>
</g>
</svg>
