<?xml version="1.0" encoding="iso-8859-1"?>
<!-- Generator: Adobe Illustrator 19.0.0, SVG Export Plug-In . SVG Version: 6.00 Build 0)  -->
<svg version="1.1" id="Capa_1" xmlns="http://www.w3.org/2000/svg" xmlns:xlink="http://www.w3.org/1999/xlink" x="0px" y="0px"
	 viewBox="0 0 512 512" style="enable-background:new 0 0 512 512;" xml:space="preserve">
<g>
	<g>
		<path d="M90,405.5H75v-20H45v20H30c-8.284,0-15,6.716-15,15s6.716,15,15,15h60c8.284,0,15-6.716,15-15S98.284,405.5,90,405.5z"/>
	</g>
</g>
<g>
	<g>
		<path d="M60,76.5c-33.084,0-60,26.916-60,60v204c0,8.284,6.716,15,15,15h90c8.284,0,15-6.716,15-15v-204
			C120,103.416,93.084,76.5,60,76.5z M60,125.5c8.284,0,15,6.716,15,15s-6.716,15-15,15s-15-6.716-15-15S51.716,125.5,60,125.5z
			 M60,168.5c8.284,0,15,6.716,15,15s-6.716,15-15,15s-15-6.716-15-15S51.716,168.5,60,168.5z M68,306.5H52c-8.284,0-15-6.716-15-15
			s6.716-15,15-15h16c8.284,0,15,6.716,15,15S76.284,306.5,68,306.5z M68,259.5H52c-8.284,0-15-6.716-15-15s6.716-15,15-15h16
			c8.284,0,15,6.716,15,15S76.284,259.5,68,259.5z"/>
	</g>
</g>
<g>
	<g>
		<path d="M482,405.5h-15v-20h-30v20h-15c-8.284,0-15,6.716-15,15s6.716,15,15,15h60c8.284,0,15-6.716,15-15
			S490.284,405.5,482,405.5z"/>
	</g>
</g>
<g>
	<g>
		<path d="M452,76.5c-33.084,0-60,26.916-60,60v204c0,8.284,6.716,15,15,15h90c8.284,0,15-6.716,15-15v-204
			C512,103.416,485.084,76.5,452,76.5z M452,125.5c8.284,0,15,6.716,15,15s-6.716,15-15,15s-15-6.716-15-15S443.716,125.5,452,125.5
			z M452,168.5c8.284,0,15,6.716,15,15s-6.716,15-15,15s-15-6.716-15-15S443.716,168.5,452,168.5z M460,306.5h-16
			c-8.284,0-15-6.716-15-15s6.716-15,15-15h16c8.284,0,15,6.716,15,15S468.284,306.5,460,306.5z M460,259.5h-16
			c-8.284,0-15-6.716-15-15s6.716-15,15-15h16c8.284,0,15,6.716,15,15S468.284,259.5,460,259.5z"/>
	</g>
</g>
<g>
	<g>
		<path d="M356,76.5H156c-8.284,0-15,6.716-15,15v140c0,8.284,6.716,15,15,15h200c8.284,0,15-6.716,15-15v-140
			C371,83.216,364.284,76.5,356,76.5z"/>
	</g>
</g>
<g>
	<g>
		<path d="M356,276.5H156c-8.284,0-15,6.716-15,15c0,4.897,0,122.324,0,129c0,8.284,6.716,15,15,15s15-6.716,15-15v-20h170v20
			c0,8.284,6.716,15,15,15s15-6.716,15-15c0-6.616,0-124.091,0-129C371,283.216,364.284,276.5,356,276.5z M256,353.5
			c-8.284,0-15-6.716-15-15s6.716-15,15-15s15,6.716,15,15S264.284,353.5,256,353.5z"/>
	</g>
</g>
<g>
</g>
<g>
</g>
<g>
</g>
<g>
</g>
<g>
</g>
<g>
</g>
<g>
</g>
<g>
</g>
<g>
</g>
<g>
</g>
<g>
</g>
<g>
</g>
<g>
</g>
<g>
</g>
<g>
</g>
</svg>
