<?xml version="1.0" encoding="iso-8859-1"?>
<!-- Generator: Adobe Illustrator 19.0.0, SVG Export Plug-In . SVG Version: 6.00 Build 0)  -->
<svg version="1.1" id="Capa_1" xmlns="http://www.w3.org/2000/svg" xmlns:xlink="http://www.w3.org/1999/xlink" x="0px" y="0px"
	 viewBox="0 0 512 512" style="enable-background:new 0 0 512 512;" xml:space="preserve">
<g>
	<g>
		<path d="M336,74h-5V15c0-8.284-6.716-15-15-15s-15,6.716-15,15v59h-90V15c0-8.284-6.716-15-15-15s-15,6.716-15,15v59h-5
			c-24.813,0-45,20.187-45,45v160c0,24.813,20.187,45,45,45h160c24.813,0,45-20.187,45-45V119C381,94.187,360.813,74,336,74z
			 M306,265H206c-8.284,0-15-6.716-15-15s6.716-15,15-15h100c8.284,0,15,6.716,15,15S314.284,265,306,265z"/>
	</g>
</g>
<g>
	<g>
		<path d="M206,354v143c0,8.284,6.716,15,15,15h70c8.284,0,15-6.716,15-15V354H206z"/>
	</g>
</g>
<g>
</g>
<g>
</g>
<g>
</g>
<g>
</g>
<g>
</g>
<g>
</g>
<g>
</g>
<g>
</g>
<g>
</g>
<g>
</g>
<g>
</g>
<g>
</g>
<g>
</g>
<g>
</g>
<g>
</g>
</svg>
