<?xml version="1.0" encoding="iso-8859-1"?>
<!-- Generator: Adobe Illustrator 19.0.0, SVG Export Plug-In . SVG Version: 6.00 Build 0)  -->
<svg version="1.1" id="Capa_1" xmlns="http://www.w3.org/2000/svg" xmlns:xlink="http://www.w3.org/1999/xlink" x="0px" y="0px"
	 viewBox="0 0 512 512" style="enable-background:new 0 0 512 512;" xml:space="preserve">
<g>
	<g>
		<path d="M415.999,0H96.001C71.187,0,51,20.187,51,45v56.734h410V45C461,20.187,440.813,0,415.999,0z M311,66
			c-8.284,0-15-6.716-15-15s6.716-15,15-15s15,6.716,15,15S319.284,66,311,66z M371,66c-8.284,0-15-6.716-15-15s6.716-15,15-15
			s15,6.716,15,15S379.284,66,371,66z"/>
	</g>
</g>
<g>
	<g>
		<path d="M51,131.734V467c0,24.813,20.187,45,45.001,45H416c24.813,0,45-20.187,45-45V131.734H51z M255.998,437
			c-71.682,0-130-58.317-130-130s58.318-130,130-130s130,58.317,130,130S327.679,437,255.998,437z"/>
	</g>
</g>
<g>
	<g>
		<path d="M255.998,237C217.401,237,186,268.401,186,307s31.401,70,69.998,70c38.596,0,69.998-31.401,69.998-70
			S294.595,237,255.998,237z"/>
	</g>
</g>
<g>
</g>
<g>
</g>
<g>
</g>
<g>
</g>
<g>
</g>
<g>
</g>
<g>
</g>
<g>
</g>
<g>
</g>
<g>
</g>
<g>
</g>
<g>
</g>
<g>
</g>
<g>
</g>
<g>
</g>
</svg>
