<?xml version="1.0" encoding="iso-8859-1"?>
<!-- Generator: Adobe Illustrator 19.0.0, SVG Export Plug-In . SVG Version: 6.00 Build 0)  -->
<svg version="1.1" id="Capa_1" xmlns="http://www.w3.org/2000/svg" xmlns:xlink="http://www.w3.org/1999/xlink" x="0px" y="0px"
	 viewBox="0 0 512 512" style="enable-background:new 0 0 512 512;" xml:space="preserve">
<g>
	<g>
		<path d="M376.578,49.95C344.195,17.739,301.373,0,256,0s-88.195,17.739-120.578,49.95c-5.874,5.842-5.899,15.34-0.057,21.213
			c5.842,5.874,15.34,5.901,21.213,0.057C183.302,44.639,218.61,30,256,30s72.698,14.639,99.422,41.22
			c5.877,5.846,15.375,5.813,21.213-0.057C382.477,65.29,382.452,55.792,376.578,49.95z"/>
	</g>
</g>
<g>
	<g>
		<path d="M334.289,97.349C313.542,75.724,285.739,63.815,256,63.815s-57.542,11.909-78.289,33.534
			c-5.735,5.979-5.538,15.474,0.44,21.209c5.977,5.736,15.473,5.538,21.208-0.439C214.395,102.446,234.51,93.815,256,93.815
			s41.605,8.631,56.641,24.304c5.737,5.98,15.233,6.172,21.208,0.439C339.827,112.823,340.024,103.328,334.289,97.349z"/>
	</g>
</g>
<g>
	<g>
		<path d="M292.746,145.895c-8.865-11.608-22.258-18.265-36.746-18.265c-14.488,0-27.881,6.658-36.746,18.265
			c-5.028,6.584-3.767,15.997,2.817,21.025c6.583,5.029,15.996,3.766,21.025-2.816c3.142-4.115,7.845-6.474,12.904-6.474
			s9.762,2.36,12.904,6.474c5.031,6.589,14.448,7.842,21.025,2.816C296.513,161.892,297.774,152.479,292.746,145.895z"/>
	</g>
</g>
<g>
	<g>
		<path d="M264.982,192.987c-5.326-3.982-12.639-3.982-17.965,0C241.872,196.834,121,288.232,121,377c0,74.439,60.561,135,135,135
			s135-60.561,135-135C391,288.232,270.128,196.834,264.982,192.987z"/>
	</g>
</g>
<g>
</g>
<g>
</g>
<g>
</g>
<g>
</g>
<g>
</g>
<g>
</g>
<g>
</g>
<g>
</g>
<g>
</g>
<g>
</g>
<g>
</g>
<g>
</g>
<g>
</g>
<g>
</g>
<g>
</g>
</svg>
