<?xml version="1.0" encoding="iso-8859-1"?>
<!-- Generator: Adobe Illustrator 19.0.0, SVG Export Plug-In . SVG Version: 6.00 Build 0)  -->
<svg version="1.1" id="Capa_1" xmlns="http://www.w3.org/2000/svg" xmlns:xlink="http://www.w3.org/1999/xlink" x="0px" y="0px"
	 viewBox="0 0 512 512" style="enable-background:new 0 0 512 512;" xml:space="preserve">
<g>
	<g>
		<path d="M401,0H111C86.187,0,66,20.187,66,45v422c0,24.813,20.187,45,45,45h290c24.813,0,45-20.187,45-45V45
			C446,20.187,425.813,0,401,0z M256,452c-57.897,0-105-47.103-105-105c0-57.897,47.103-105,105-105c57.897,0,105,47.103,105,105
			C361,404.897,313.897,452,256,452z M386,195c0,8.284-6.716,15-15,15H141c-8.284,0-15-6.716-15-15V75c0-8.284,6.716-15,15-15h230
			c8.284,0,15,6.716,15,15V195z"/>
	</g>
</g>
<g>
	<g>
		<path d="M256,302c-24.813,0-45,20.187-45,45s20.187,45,45,45s45-20.187,45-45S280.813,302,256,302z"/>
	</g>
</g>
<g>
</g>
<g>
</g>
<g>
</g>
<g>
</g>
<g>
</g>
<g>
</g>
<g>
</g>
<g>
</g>
<g>
</g>
<g>
</g>
<g>
</g>
<g>
</g>
<g>
</g>
<g>
</g>
<g>
</g>
</svg>
