<?xml version="1.0" encoding="iso-8859-1"?>
<!-- Generator: Adobe Illustrator 19.0.0, SVG Export Plug-In . SVG Version: 6.00 Build 0)  -->
<svg version="1.1" id="Capa_1" xmlns="http://www.w3.org/2000/svg" xmlns:xlink="http://www.w3.org/1999/xlink" x="0px" y="0px"
	 viewBox="0 0 512 512" style="enable-background:new 0 0 512 512;" xml:space="preserve">
<g>
	<g>
		<path d="M336,0H176c-24.813,0-45,20.187-45,45v342c0,68.925,56.075,125,125,125s125-56.075,125-125V45C381,20.187,360.813,0,336,0
			z M288,52h20c8.284,0,15,6.716,15,15s-6.716,15-15,15h-20c-8.284,0-15-6.716-15-15S279.716,52,288,52z M196,112h36
			c8.284,0,15,6.716,15,15s-6.716,15-15,15h-36c-8.284,0-15-6.716-15-15S187.716,112,196,112z M196,172h36c8.284,0,15,6.716,15,15
			s-6.716,15-15,15h-36c-8.284,0-15-6.716-15-15S187.716,172,196,172z M181,247c0-8.284,6.716-15,15-15h36c8.284,0,15,6.716,15,15
			s-6.716,15-15,15h-36C187.716,262,181,255.284,181,247z M285,352h-14v14c0,8.284-6.716,15-15,15s-15-6.716-15-15v-14h-14
			c-8.284,0-15-6.716-15-15s6.716-15,15-15h14v-14c0-8.284,6.716-15,15-15s15,6.716,15,15v14h14c8.284,0,15,6.716,15,15
			S293.284,352,285,352z M316,262h-36c-8.284,0-15-6.716-15-15s6.716-15,15-15h36c8.284,0,15,6.716,15,15S324.284,262,316,262z
			 M316,202h-36c-8.284,0-15-6.716-15-15s6.716-15,15-15h36c8.284,0,15,6.716,15,15S324.284,202,316,202z M316,142h-36
			c-8.284,0-15-6.716-15-15s6.716-15,15-15h36c8.284,0,15,6.716,15,15S324.284,142,316,142z"/>
	</g>
</g>
<g>
</g>
<g>
</g>
<g>
</g>
<g>
</g>
<g>
</g>
<g>
</g>
<g>
</g>
<g>
</g>
<g>
</g>
<g>
</g>
<g>
</g>
<g>
</g>
<g>
</g>
<g>
</g>
<g>
</g>
</svg>
