<?xml version="1.0" encoding="iso-8859-1"?>
<!-- Generator: Adobe Illustrator 19.0.0, SVG Export Plug-In . SVG Version: 6.00 Build 0)  -->
<svg version="1.1" id="Capa_1" xmlns="http://www.w3.org/2000/svg" xmlns:xlink="http://www.w3.org/1999/xlink" x="0px" y="0px"
	 viewBox="0 0 512 512" style="enable-background:new 0 0 512 512;" xml:space="preserve">
<g>
	<g>
		<path d="M296,396h-80c-8.284,0-15,6.716-15,15s6.716,15,15,15h80c8.284,0,15-6.716,15-15S304.284,396,296,396z"/>
	</g>
</g>
<g>
	<g>
		<path d="M326,482H186c-8.284,0-15,6.716-15,15s6.716,15,15,15h140c8.284,0,15-6.716,15-15S334.284,482,326,482z"/>
	</g>
</g>
<g>
	<g>
		<path d="M256,0c-74.439,0-135,60.561-135,135c0,52.692,22.12,104.554,63.968,149.977c31.153,33.813,62.13,52.19,63.434,52.957
			c2.345,1.378,4.972,2.066,7.598,2.066c2.626,0,5.253-0.688,7.599-2.066c1.303-0.767,32.28-19.144,63.434-52.957
			C368.88,239.554,391,187.692,391,135C391,60.561,330.439,0,256,0z M256,190c-30.327,0-55-24.673-55-55c0-30.327,24.673-55,55-55
			c30.327,0,55,24.673,55,55C311,165.327,286.327,190,256,190z"/>
	</g>
</g>
<g>
</g>
<g>
</g>
<g>
</g>
<g>
</g>
<g>
</g>
<g>
</g>
<g>
</g>
<g>
</g>
<g>
</g>
<g>
</g>
<g>
</g>
<g>
</g>
<g>
</g>
<g>
</g>
<g>
</g>
</svg>
