<?xml version="1.0" encoding="iso-8859-1"?>
<!-- Generator: Adobe Illustrator 19.0.0, SVG Export Plug-In . SVG Version: 6.00 Build 0)  -->
<svg version="1.1" id="Capa_1" xmlns="http://www.w3.org/2000/svg" xmlns:xlink="http://www.w3.org/1999/xlink" x="0px" y="0px"
	 viewBox="0 0 512 512" style="enable-background:new 0 0 512 512;" xml:space="preserve">
<g>
	<g>
		<path d="M506.924,314.756L461,274.235v-44.23c0-67.832-33.385-129.015-85.27-166.409c-71.52-51.543-168.157-51.388-239.46,0
			C84.446,100.944,51,162.096,51,230.004v44.23L5.076,314.756C1.849,317.604,0,321.7,0,326.004v101c0,4.304,1.849,8.4,5.076,11.248
			l51,45c2.571,2.264,6.164,3.745,9.901,3.751c0.008,0,0.015,0.001,0.023,0.001h60c24.813,0,45-20.187,45-45v-131
			c0-24.813-20.187-45-45-45H81v-36c0-53.012,23.698-100.59,61.052-132.708l20.042,27.858c2.325,3.232,5.84,5.407,9.77,6.046
			c4.005,0.65,8.012-0.354,11.182-2.641c21.36-15.41,46.587-23.555,72.954-23.555s51.594,8.146,72.954,23.555
			c3.229,2.328,7.25,3.277,11.182,2.641c3.93-0.639,7.445-2.813,9.77-6.046l20.042-27.858C407.302,129.414,431,176.992,431,230.004
			v36h-45c-24.813,0-45,20.187-45,45v131c0,24.813,20.187,45,45,45h60c0.008,0,0.015-0.001,0.023-0.001
			c3.676-0.006,7.259-1.421,9.901-3.751l51-45c3.227-2.848,5.076-6.944,5.076-11.248v-101
			C512,321.7,510.151,317.604,506.924,314.756z M51,438.765l-21-18.529v-87.463l21-18.529V438.765z M482,420.236l-21,18.529V314.243
			l21,18.529V420.236z"/>
	</g>
</g>
<g>
</g>
<g>
</g>
<g>
</g>
<g>
</g>
<g>
</g>
<g>
</g>
<g>
</g>
<g>
</g>
<g>
</g>
<g>
</g>
<g>
</g>
<g>
</g>
<g>
</g>
<g>
</g>
<g>
</g>
</svg>
