<?xml version="1.0" encoding="iso-8859-1"?>
<!-- Generator: Adobe Illustrator 19.0.0, SVG Export Plug-In . SVG Version: 6.00 Build 0)  -->
<svg version="1.1" id="Capa_1" xmlns="http://www.w3.org/2000/svg" xmlns:xlink="http://www.w3.org/1999/xlink" x="0px" y="0px"
	 viewBox="0 0 512 512" style="enable-background:new 0 0 512 512;" xml:space="preserve">
<g>
	<g>
		<path d="M376.58,49.951C344.196,17.739,301.374,0,256,0c-45.374,0-88.196,17.739-120.58,49.95
			c-5.874,5.842-5.899,15.339-0.057,21.213c5.843,5.874,15.341,5.899,21.213,0.057C183.3,44.639,218.609,30,256,30
			s72.7,14.639,99.424,41.22c5.877,5.846,15.375,5.813,21.213-0.056C382.478,65.29,382.454,55.793,376.58,49.951z"/>
	</g>
</g>
<g>
	<g>
		<path d="M334.29,97.348C313.542,75.724,285.738,63.815,256,63.815s-57.542,11.909-78.29,33.533
			c-5.737,5.978-5.54,15.473,0.438,21.209c5.978,5.735,15.475,5.54,21.208-0.438c15.039-15.673,35.155-24.304,56.644-24.304
			s41.605,8.632,56.644,24.304c5.737,5.98,15.234,6.171,21.208,0.438C339.829,112.821,340.026,103.326,334.29,97.348z"/>
	</g>
</g>
<g>
	<g>
		<path d="M292.748,145.895c-8.865-11.608-22.26-18.265-36.747-18.265s-27.882,6.657-36.747,18.265
			c-5.029,6.583-3.768,15.997,2.816,21.025c6.58,5.027,15.996,3.768,21.025-2.816c3.142-4.114,7.847-6.474,12.905-6.474
			s9.762,2.36,12.905,6.474c5.028,6.584,14.441,7.846,21.027,2.816C296.516,161.892,297.776,152.478,292.748,145.895z"/>
	</g>
</g>
<g>
	<g>
		<path d="M456.674,461.577c-5.919-48.938-17.676-137.246-23.274-181.273C430.551,257.896,411.407,241,388.869,241H123.132
			c-22.539,0-41.683,16.896-44.532,39.303c-5.557,43.723-17.359,132.361-23.274,181.273c-1.548,12.803,2.465,25.674,11.009,35.314
			C74.847,506.493,87.078,512,99.892,512h27.944c17.2,0,32.619-9.6,40.242-25.054L205.541,411h100.918l37.463,75.946
			C351.545,502.4,366.964,512,384.164,512h27.944c12.815,0,25.045-5.507,33.557-15.109
			C454.209,487.251,458.222,474.38,456.674,461.577z M190.999,341h-10v10c0,8.284-6.716,15-15,15s-15-6.716-15-15v-10h-10
			c-8.284,0-15-6.716-15-15s6.716-15,15-15h10v-10c0-8.284,6.716-15,15-15s15,6.716,15,15v10h10c8.284,0,15,6.716,15,15
			S199.283,341,190.999,341z M343.608,352.607c-5.858,5.858-15.356,5.858-21.214,0c-5.858-5.858-5.858-15.355,0-21.213
			c5.858-5.858,15.356-5.858,21.214,0C349.466,337.251,349.466,346.749,343.608,352.607z M371.609,324.607
			c-5.858,5.858-15.356,5.858-21.214,0c-5.858-5.858-5.858-15.355,0-21.213c5.858-5.858,15.356-5.858,21.214,0
			C377.467,309.251,377.467,318.749,371.609,324.607z"/>
	</g>
</g>
<g>
</g>
<g>
</g>
<g>
</g>
<g>
</g>
<g>
</g>
<g>
</g>
<g>
</g>
<g>
</g>
<g>
</g>
<g>
</g>
<g>
</g>
<g>
</g>
<g>
</g>
<g>
</g>
<g>
</g>
</svg>
