<?xml version="1.0" encoding="iso-8859-1"?>
<!-- Generator: Adobe Illustrator 19.0.0, SVG Export Plug-In . SVG Version: 6.00 Build 0)  -->
<svg version="1.1" id="Capa_1" xmlns="http://www.w3.org/2000/svg" xmlns:xlink="http://www.w3.org/1999/xlink" x="0px" y="0px"
	 viewBox="0 0 512 512" style="enable-background:new 0 0 512 512;" xml:space="preserve">
<g>
	<g>
		<path d="M421,222.284V165C421,74.019,346.981,0,256,0S91,74.019,91,165v57.284C68.532,224.781,51,243.878,51,267v85h152.096
			c6.547-23.057,27.777-40,52.904-40s46.356,16.943,52.904,40H461v-85C461,243.878,443.468,224.781,421,222.284z M391,222H121v-57
			c0-74.439,60.561-135,135-135s135,60.561,135,135V222z"/>
	</g>
</g>
<g>
	<g>
		<path d="M308.904,382c-6.548,23.057-27.777,40-52.904,40s-46.356-16.943-52.904-40H51v85c0,24.813,20.187,45,45,45h320
			c24.813,0,45-20.187,45-45v-85H308.904z"/>
	</g>
</g>
<g>
</g>
<g>
</g>
<g>
</g>
<g>
</g>
<g>
</g>
<g>
</g>
<g>
</g>
<g>
</g>
<g>
</g>
<g>
</g>
<g>
</g>
<g>
</g>
<g>
</g>
<g>
</g>
<g>
</g>
</svg>
