<?xml version="1.0" encoding="iso-8859-1"?>
<!-- Generator: Adobe Illustrator 19.0.0, SVG Export Plug-In . SVG Version: 6.00 Build 0)  -->
<svg version="1.1" id="Capa_1" xmlns="http://www.w3.org/2000/svg" xmlns:xlink="http://www.w3.org/1999/xlink" x="0px" y="0px"
	 viewBox="0 0 512 512" style="enable-background:new 0 0 512 512;" xml:space="preserve">
<g>
	<g>
		<path d="M497,444H293.071c-4.064-10.008-12.063-18.007-22.071-22.071V376h131c60.654,0,110-49.346,110-110
			c0-38.009-19.318-72.766-51.015-92.868c0.01-0.713,0.015-1.424,0.015-2.132c0-87.122-70.878-158-158-158
			c-44.531,0-86.364,18.479-116.276,51.03C178.334,62.017,169.718,61,161,61c-60.654,0-110,49.346-110,110
			c0,0.707,0.007,1.415,0.021,2.125C19.314,193.224,0,227.964,0,266c0,60.654,49.346,110,110,110h131v45.929
			c-10.008,4.064-18.007,12.063-22.071,22.071H15c-8.284,0-15,6.716-15,15s6.716,15,15,15h203.929c5.947,14.643,20.318,25,37.071,25
			s31.124-10.357,37.071-25H497c8.284,0,15-6.716,15-15S505.284,444,497,444z"/>
	</g>
</g>
<g>
</g>
<g>
</g>
<g>
</g>
<g>
</g>
<g>
</g>
<g>
</g>
<g>
</g>
<g>
</g>
<g>
</g>
<g>
</g>
<g>
</g>
<g>
</g>
<g>
</g>
<g>
</g>
<g>
</g>
</svg>
