<?xml version="1.0" encoding="iso-8859-1"?>
<!-- Generator: Adobe Illustrator 19.0.0, SVG Export Plug-In . SVG Version: 6.00 Build 0)  -->
<svg version="1.1" id="Capa_1" xmlns="http://www.w3.org/2000/svg" xmlns:xlink="http://www.w3.org/1999/xlink" x="0px" y="0px"
	 viewBox="0 0 512 512" style="enable-background:new 0 0 512 512;" xml:space="preserve">
<g>
	<g>
		<path d="M381,211h-15v-35c0-24.813-20.187-45-45-45H161c-24.813,0-45,20.187-45,45v160c0,24.813,20.187,45,45,45h160
			c24.813,0,45-20.187,45-45v-35h15c8.284,0,15-6.716,15-15v-60C396,217.716,389.284,211,381,211z M256,256c0,8.284-6.716,15-15,15
			s-15-6.716-15-15v-30c0-8.284,6.716-15,15-15s15,6.716,15,15V256z"/>
	</g>
</g>
<g>
	<g>
		<path d="M149.392,411l6.652,87.142C156.641,505.96,163.158,512,171,512h140c7.842,0,14.359-6.04,14.956-13.858L332.608,411
			H149.392z"/>
	</g>
</g>
<g>
	<g>
		<path d="M325.956,13.858C325.359,6.04,318.842,0,311,0H171c-7.842,0-14.359,6.04-14.956,13.858L149.392,101h183.216
			L325.956,13.858z"/>
	</g>
</g>
<g>
</g>
<g>
</g>
<g>
</g>
<g>
</g>
<g>
</g>
<g>
</g>
<g>
</g>
<g>
</g>
<g>
</g>
<g>
</g>
<g>
</g>
<g>
</g>
<g>
</g>
<g>
</g>
<g>
</g>
</svg>
