<?xml version="1.0" encoding="iso-8859-1"?>
<!-- Generator: Adobe Illustrator 19.0.0, SVG Export Plug-In . SVG Version: 6.00 Build 0)  -->
<svg version="1.1" id="Capa_1" xmlns="http://www.w3.org/2000/svg" xmlns:xlink="http://www.w3.org/1999/xlink" x="0px" y="0px"
	 viewBox="0 0 512 512" style="enable-background:new 0 0 512 512;" xml:space="preserve">
<g>
	<g>
		<path d="M435,25H110C49.346,25,0,74.346,0,135s49.346,110,110,110h81v35c0,8.284,6.716,15,15,15h100c8.284,0,15-6.716,15-15v-35
			h64c6.814,0,12.772-4.593,14.506-11.183l50-190C452.007,34.316,444.829,25,435,25z M89,150c-8.284,0-15-6.716-15-15
			s6.716-15,15-15s15,6.716,15,15S97.284,150,89,150z"/>
	</g>
</g>
<g>
	<g>
		<path d="M241,325v66c0,8.271-6.729,15-15,15H121v-36c0-8.284-6.716-15-15-15H15c-8.284,0-15,6.716-15,15v102
			c0,8.284,6.716,15,15,15h91c8.284,0,15-6.716,15-15v-36h105c24.813,0,45-20.187,45-45v-66H241z"/>
	</g>
</g>
<g>
	<g>
		<path d="M497,70h-23.363l-34.21,130H497c8.284,0,15-6.716,15-15V85C512,76.716,505.284,70,497,70z"/>
	</g>
</g>
<g>
</g>
<g>
</g>
<g>
</g>
<g>
</g>
<g>
</g>
<g>
</g>
<g>
</g>
<g>
</g>
<g>
</g>
<g>
</g>
<g>
</g>
<g>
</g>
<g>
</g>
<g>
</g>
<g>
</g>
</svg>
