<?xml version="1.0" encoding="iso-8859-1"?>
<!-- Generator: Adobe Illustrator 19.0.0, SVG Export Plug-In . SVG Version: 6.00 Build 0)  -->
<svg version="1.1" id="Capa_1" xmlns="http://www.w3.org/2000/svg" xmlns:xlink="http://www.w3.org/1999/xlink" x="0px" y="0px"
	 viewBox="0 0 512 512" style="enable-background:new 0 0 512 512;" xml:space="preserve">
<g>
	<g>
		<path d="M437,0H75C33.645,0,0,33.645,0,75v362c0,41.355,33.645,75,75,75h362c41.355,0,75-33.645,75-75V75
			C512,33.645,478.355,0,437,0z M291,356c0,8.284-6.716,15-15,15s-15-6.716-15-15v-18c0-8.284,6.716-15,15-15s15,6.716,15,15V356z
			 M291,286c0,8.284-6.716,15-15,15s-15-6.716-15-15v-60c0-2.757-2.243-5-5-5c-2.757,0-5,2.243-5,5v80c0,8.284-6.716,15-15,15
			s-15-6.716-15-15v-80c0-19.299,15.701-35,35-35s35,15.701,35,35V286z M341,356c0,8.284-6.716,15-15,15s-15-6.716-15-15V226
			c0-30.327-24.673-55-55-55c-30.327,0-55,24.673-55,55v130c0,8.284-6.716,15-15,15s-15-6.716-15-15V226c0-46.869,38.131-85,85-85
			s85,38.131,85,85V356z M391,406c0,8.284-6.716,15-15,15s-15-6.716-15-15V226c0-57.897-47.103-105-105-105
			c-57.897,0-105,47.103-105,105v180c0,8.284-6.716,15-15,15s-15-6.716-15-15V226c0-74.439,60.561-135,135-135s135,60.561,135,135
			V406z"/>
	</g>
</g>
<g>
</g>
<g>
</g>
<g>
</g>
<g>
</g>
<g>
</g>
<g>
</g>
<g>
</g>
<g>
</g>
<g>
</g>
<g>
</g>
<g>
</g>
<g>
</g>
<g>
</g>
<g>
</g>
<g>
</g>
</svg>
