<?xml version="1.0" encoding="iso-8859-1"?>
<!-- Generator: Adobe Illustrator 19.0.0, SVG Export Plug-In . SVG Version: 6.00 Build 0)  -->
<svg version="1.1" id="Capa_1" xmlns="http://www.w3.org/2000/svg" xmlns:xlink="http://www.w3.org/1999/xlink" x="0px" y="0px"
	 viewBox="0 0 512 512" style="enable-background:new 0 0 512 512;" xml:space="preserve">
<g>
	<g>
		<path d="M401,0H111C94.431,0,81,13.431,81,30v61h350V30C431,13.431,417.569,0,401,0z"/>
	</g>
</g>
<g>
	<g>
		<path d="M81,121v270h350V121H81z M289.929,337.921c-6.578,5.024-15.992,3.773-21.025-2.818c-3.142-4.114-7.845-6.473-12.903-6.473
			c-5.058,0-9.762,2.359-12.903,6.473c-5.027,6.584-14.442,7.846-21.025,2.818c-6.584-5.028-7.846-14.441-2.818-21.025
			c8.865-11.608,22.259-18.266,36.747-18.266c14.488,0,27.882,6.658,36.747,18.266C297.774,323.48,296.513,332.894,289.929,337.921z
			 M333.85,289.558c-5.973,5.731-15.468,5.544-21.209-0.439c-15.036-15.672-35.151-24.303-56.641-24.303
			s-41.604,8.631-56.641,24.303c-5.735,5.978-15.23,6.174-21.209,0.439c-5.978-5.735-6.175-15.23-0.439-21.208
			c20.747-21.625,48.551-33.534,78.289-33.534s57.542,11.909,78.289,33.534C340.024,274.327,339.827,283.822,333.85,289.558z
			 M376.635,242.164c-5.842,5.872-15.338,5.9-21.213,0.056C328.699,215.639,293.391,201,256,201s-72.699,14.639-99.422,41.22
			c-5.872,5.843-15.37,5.817-21.213-0.056c-5.842-5.874-5.817-15.371,0.057-21.213C167.804,188.74,210.626,171,256,171
			c45.374,0,88.196,17.74,120.578,49.951C382.452,226.793,382.476,236.291,376.635,242.164z"/>
	</g>
</g>
<g>
	<g>
		<path d="M81,421v61c0,16.569,13.431,30,30,30h290c16.569,0,30-13.431,30-30v-61H81z M276,480h-40c-8.284,0-15-6.716-15-15
			s6.716-15,15-15h40c8.284,0,15,6.716,15,15S284.284,480,276,480z"/>
	</g>
</g>
<g>
</g>
<g>
</g>
<g>
</g>
<g>
</g>
<g>
</g>
<g>
</g>
<g>
</g>
<g>
</g>
<g>
</g>
<g>
</g>
<g>
</g>
<g>
</g>
<g>
</g>
<g>
</g>
<g>
</g>
</svg>
