<?xml version="1.0" encoding="iso-8859-1"?>
<!-- Generator: Adobe Illustrator 19.0.0, SVG Export Plug-In . SVG Version: 6.00 Build 0)  -->
<svg version="1.1" id="Capa_1" xmlns="http://www.w3.org/2000/svg" xmlns:xlink="http://www.w3.org/1999/xlink" x="0px" y="0px"
	 viewBox="0 0 512 512" style="enable-background:new 0 0 512 512;" xml:space="preserve">
<g>
	<g>
		<path d="M416,482h-49.121l-13.726-42H158.847l-13.726,42H96c-8.284,0-15,6.716-15,15s6.716,15,15,15c5.539,0,316.393,0,320,0
			c8.284,0,15-6.716,15-15S424.284,482,416,482z"/>
	</g>
</g>
<g>
	<g>
		<path d="M467,0H45C20.187,0,0,20.187,0,45v252h512V45C512,20.187,491.813,0,467,0z"/>
	</g>
</g>
<g>
	<g>
		<path d="M0,327v38c0,24.813,20.187,45,45,45h422c24.813,0,45-20.187,45-45v-38H0z M256,383.5c-8.284,0-15-6.716-15-15
			s6.716-15,15-15s15,6.716,15,15S264.284,383.5,256,383.5z"/>
	</g>
</g>
<g>
</g>
<g>
</g>
<g>
</g>
<g>
</g>
<g>
</g>
<g>
</g>
<g>
</g>
<g>
</g>
<g>
</g>
<g>
</g>
<g>
</g>
<g>
</g>
<g>
</g>
<g>
</g>
<g>
</g>
</svg>
