<?xml version="1.0" encoding="iso-8859-1"?>
<!-- Generator: Adobe Illustrator 19.0.0, SVG Export Plug-In . SVG Version: 6.00 Build 0)  -->
<svg version="1.1" id="Layer_1" xmlns="http://www.w3.org/2000/svg" xmlns:xlink="http://www.w3.org/1999/xlink" x="0px" y="0px"
	 viewBox="0 0 512 512" style="enable-background:new 0 0 512 512;" xml:space="preserve">
<g>
	<g>
		<path d="M133.565,205.913c-18.413,0-33.391,14.978-33.391,33.391c0,18.413,14.978,33.391,33.391,33.391
			s33.391-14.978,33.391-33.391C166.957,220.891,151.978,205.913,133.565,205.913z"/>
	</g>
</g>
<g>
	<g>
		<polygon points="351.663,372.87 160.337,372.87 125.188,439.652 386.812,439.652 		"/>
	</g>
</g>
<g>
	<g>
		<path d="M320.688,205.913H191.312c5.71,9.836,9.036,21.221,9.036,33.391c0,12.17-3.326,23.555-9.036,33.391h129.376
			c-5.71-9.836-9.036-21.221-9.036-33.391C311.652,227.134,314.978,215.749,320.688,205.913z"/>
	</g>
</g>
<g>
	<g>
		<path d="M461.913,72.348H50.087C22.468,72.348,0,94.816,0,122.435v267.13c0,27.619,22.468,50.087,50.087,50.087H87.46
			l48.029-91.255c2.881-5.484,8.577-8.919,14.772-8.919h211.478c6.195,0,11.892,3.435,14.771,8.919l48.03,91.255h37.373
			c27.619,0,50.087-22.468,50.087-50.087v-267.13C512,94.816,489.532,72.348,461.913,72.348z M378.435,306.087h-244.87
			c-36.826,0-66.783-29.956-66.783-66.783c0-36.826,29.956-66.783,66.783-66.783h244.87c36.826,0,66.783,29.956,66.783,66.783
			C445.217,276.13,415.261,306.087,378.435,306.087z"/>
	</g>
</g>
<g>
	<g>
		<path d="M378.435,205.913c-18.413,0-33.391,14.978-33.391,33.391c0,18.413,14.978,33.391,33.391,33.391
			c18.413,0,33.391-14.978,33.391-33.391C411.826,220.891,396.848,205.913,378.435,205.913z"/>
	</g>
</g>
<g>
</g>
<g>
</g>
<g>
</g>
<g>
</g>
<g>
</g>
<g>
</g>
<g>
</g>
<g>
</g>
<g>
</g>
<g>
</g>
<g>
</g>
<g>
</g>
<g>
</g>
<g>
</g>
<g>
</g>
</svg>
