<?xml version="1.0" encoding="iso-8859-1"?>
<!-- Generator: Adobe Illustrator 19.0.0, SVG Export Plug-In . SVG Version: 6.00 Build 0)  -->
<svg version="1.1" id="Layer_1" xmlns="http://www.w3.org/2000/svg" xmlns:xlink="http://www.w3.org/1999/xlink" x="0px" y="0px"
	 viewBox="0 0 512 512" style="enable-background:new 0 0 512 512;" xml:space="preserve">
<g>
	<g>
		<path d="M443.711,123.874c-3.467-18.705-13.151-35.818-27.907-48.365c-18.685-15.885-43.413-22.706-67.967-18.739
			c-34.364,5.589-61.372,34.078-67.985,69.246c-21.334-22.705-51.531-36.985-85.07-36.985H83.478
			c-9.217,0-16.696,7.473-16.696,16.696V205.9c0,17.94,4.182,34.882,11.438,50.087H16.696C7.479,255.987,0,263.46,0,272.683v33.391
			c0,27.619,22.468,50.087,50.087,50.087l47.859,0.011c31.239,61.195,94.305,100.163,163.62,100.163
			c101.261,0,183.652-82.386,183.652-183.652v-50.087h50.087c9.217,0,16.696-7.473,16.696-16.696
			C512,165.061,482.507,131.045,443.711,123.874z M278.261,272.683c0,9.206-7.49,16.696-16.696,16.696h-77.913
			c-46.032,0-83.478-37.446-83.478-83.478v-16.696h94.609c9.206,0,16.696,7.49,16.696,16.696v33.391
			c0,9.223,7.479,16.696,16.696,16.696c9.217,0,16.696-7.473,16.696-16.696V205.9c0-27.619-22.468-50.087-50.087-50.087h-94.609
			v-33.391h94.609c46.032,0,83.478,37.446,83.478,83.478V272.683z M361.739,155.813c-9.22,0-16.696-7.475-16.696-16.696
			c0-9.22,7.475-16.696,16.696-16.696s16.696,7.475,16.696,16.696C378.435,148.338,370.96,155.813,361.739,155.813z
			 M445.217,189.204v-30.533c14.207,5.038,25.489,16.32,30.533,30.533H445.217z"/>
	</g>
</g>
<g>
</g>
<g>
</g>
<g>
</g>
<g>
</g>
<g>
</g>
<g>
</g>
<g>
</g>
<g>
</g>
<g>
</g>
<g>
</g>
<g>
</g>
<g>
</g>
<g>
</g>
<g>
</g>
<g>
</g>
</svg>
