<?xml version="1.0" encoding="iso-8859-1"?>
<!-- Generator: Adobe Illustrator 19.0.0, SVG Export Plug-In . SVG Version: 6.00 Build 0)  -->
<svg version="1.1" id="Layer_1" xmlns="http://www.w3.org/2000/svg" xmlns:xlink="http://www.w3.org/1999/xlink" x="0px" y="0px"
	 viewBox="0 0 512 512" style="enable-background:new 0 0 512 512;" xml:space="preserve">
<g>
	<g>
		<path d="M495.304,205.912H294.957c-9.217,0-16.696,7.473-16.696,16.696v81.022c-17.836-6.18-25.392-24.054-36.739-54.364
			C224.108,202.787,200.261,139.13,94.609,139.13H16.696C7.479,139.13,0,146.603,0,155.825v55.652
			c0,8.31,6.108,15.353,14.337,16.528c1.91,0.273,78.343,11.298,80.272,11.298c26.207,0,36.902,29.191,53.565,80.794
			c25.381,78.636,60.152,186.337,213.565,186.337c82.858,0,150.261-67.408,150.261-150.261V222.608
			C512,213.385,504.521,205.912,495.304,205.912z M77.913,203.359l-44.522-6.36v-24.478h44.522V203.359z M478.609,272.695H311.652
			v-33.391h166.957V272.695z"/>
	</g>
</g>
<g>
	<g>
		<path d="M373.544,77.233c-11.931-11.907-11.944-31.242,0-43.163c6.521-6.521,6.521-17.092,0-23.614
			c-6.521-6.522-17.087-6.516-23.609-0.006c-24.992,24.992-24.99,65.412,0,90.403c11.931,11.907,11.944,31.242,0,43.163
			c-6.522,6.521-6.522,17.092,0,23.614c6.522,6.522,17.081,6.522,23.609,0.006C398.536,142.643,398.534,102.223,373.544,77.233z"/>
	</g>
</g>
<g>
	<g>
		<path d="M440.327,77.233c-11.931-11.907-11.944-31.242,0-43.163c6.521-6.521,6.521-17.092,0-23.614
			c-6.521-6.522-17.087-6.516-23.609-0.006c-24.992,24.992-24.99,65.412,0,90.403c11.931,11.907,11.944,31.242,0,43.163
			c-6.522,6.521-6.522,17.092,0,23.614c6.522,6.522,17.081,6.522,23.609,0.006C465.319,142.643,465.317,102.223,440.327,77.233z"/>
	</g>
</g>
<g>
</g>
<g>
</g>
<g>
</g>
<g>
</g>
<g>
</g>
<g>
</g>
<g>
</g>
<g>
</g>
<g>
</g>
<g>
</g>
<g>
</g>
<g>
</g>
<g>
</g>
<g>
</g>
<g>
</g>
</svg>
