<?xml version="1.0" encoding="iso-8859-1"?>
<!-- Generator: Adobe Illustrator 19.0.0, SVG Export Plug-In . SVG Version: 6.00 Build 0)  -->
<svg version="1.1" id="Layer_1" xmlns="http://www.w3.org/2000/svg" xmlns:xlink="http://www.w3.org/1999/xlink" x="0px" y="0px"
	 viewBox="0 0 512 512" style="enable-background:new 0 0 512 512;" xml:space="preserve">
<g>
	<g>
		<path d="M389.565,0h-267.13c-9.223,0-16.696,7.473-16.696,16.696v50.087h300.522V16.696C406.261,7.473,398.788,0,389.565,0z"/>
	</g>
</g>
<g>
	<g>
		<path d="M344.195,100.174c10.427,23.753,36.012,37.579,62.065,32.266v-32.266H344.195z"/>
	</g>
</g>
<g>
	<g>
		<path d="M439.158,491.266c-22.384-89.534-32.897-187.099-32.897-274.223v-50.86c-45.812,5.748-86.357-23.951-97.243-66.009
			H202.982c-10.853,41.931-51.299,71.773-97.243,66.009v50.86c0,86.402-10.299,183.584-32.897,274.223
			C70.221,501.763,78.179,512,89.044,512h333.913C433.821,512,441.779,501.763,439.158,491.266z M256,414.011
			c-10.766-63.527-16.696-132.244-16.696-196.967c0-9.206,7.49-16.696,16.696-16.696s16.696,7.49,16.696,16.696
			C272.696,281.766,266.772,350.478,256,414.011z"/>
	</g>
</g>
<g>
	<g>
		<path d="M105.739,100.174v32.266c26.046,5.311,51.637-8.511,62.066-32.266H105.739z"/>
	</g>
</g>
<g>
</g>
<g>
</g>
<g>
</g>
<g>
</g>
<g>
</g>
<g>
</g>
<g>
</g>
<g>
</g>
<g>
</g>
<g>
</g>
<g>
</g>
<g>
</g>
<g>
</g>
<g>
</g>
<g>
</g>
</svg>
