<?xml version="1.0" encoding="iso-8859-1"?>
<!-- Generator: Adobe Illustrator 19.0.0, SVG Export Plug-In . SVG Version: 6.00 Build 0)  -->
<svg version="1.1" id="Layer_1" xmlns="http://www.w3.org/2000/svg" xmlns:xlink="http://www.w3.org/1999/xlink" x="0px" y="0px"
	 viewBox="0 0 512.002 512.002" style="enable-background:new 0 0 512.002 512.002;" xml:space="preserve">
<g>
	<g>
		<path d="M217.696,105.149c-6.532-6.52-17.122-6.515-23.653,0.006c-6.506,6.506-6.559,17.078,0,23.636
			c6.498,6.509,17.133,6.519,23.653,0C224.206,122.276,224.206,111.67,217.696,105.149z"/>
	</g>
</g>
<g>
	<g>
		<path d="M406.853,294.306c-6.532-6.52-17.121-6.52-23.653,0c-6.56,6.571-6.506,17.13,0,23.648c6.53,6.514,17.121,6.514,23.653,0
			C413.362,311.428,413.362,300.821,406.853,294.306z"/>
	</g>
</g>
<g>
	<g>
		<path d="M477.78,223.376c-23.143-23.145-53.652-34.499-84.057-34.164l36.773-36.773c6.531-6.525,6.531-17.116,0-23.642
			c-6.53-6.53-17.111-6.53-23.642,0l-84.91,84.91c-2.429-5.094-5.567-9.869-9.679-13.978c-4.105-4.107-8.879-7.245-13.968-9.674
			l84.904-84.905c6.531-6.525,6.531-17.116,0-23.642c-6.531-6.531-17.111-6.531-23.642,0l-36.778,36.778
			c0.338-30.406-11.011-60.919-34.159-84.066c-45.64-45.634-119.886-45.613-165.503,0c-38.266,38.267-44.312,96.606-18.395,141.369
			c-19.168,1.499-37.918,9.51-52.541,24.14L4.898,247.016c-6.53,6.53-6.53,17.111,0,23.642l47.284,47.289
			c20.667,20.675,50.9,29.571,80.832,21.559c1.894,9.688,6.603,18.598,13.745,25.736c7.15,7.141,16.074,11.847,25.77,13.738
			c-7.47,27.921-0.349,58.969,21.514,80.836l47.295,47.289c6.527,6.527,17.115,6.527,23.642,0l47.284-47.289
			c14.229-14.223,22.631-32.681,24.17-52.525c45.99,26.617,103.865,19.074,141.345-18.407
			C523.409,343.25,523.409,269.004,477.78,223.376z M123.113,270.66c-6.529,6.529-17.115,6.529-23.644,0
			c-6.529-6.529-6.529-17.115,0-23.644s17.115-6.529,23.644,0S129.642,264.131,123.113,270.66z M170.401,81.502
			c19.528-19.544,51.365-19.566,70.937,0c19.549,19.56,19.549,51.382,0,70.937c-19.541,19.541-51.387,19.555-70.937,0.006
			C150.801,132.855,150.782,101.11,170.401,81.502z M264.979,412.528c-6.529,6.529-17.115,6.529-23.644,0
			c-6.528-6.529-6.528-17.115,0-23.644c6.529-6.529,17.115-6.529,23.644,0C271.509,395.412,271.509,405.997,264.979,412.528z
			 M288.621,247.016l-94.579,94.579c-6.313,6.313-17.329,6.319-23.642-0.006c-6.525-6.525-6.545-17.085,0-23.642l94.579-94.573
			c6.466-6.477,17.065-6.583,23.642-0.006C295.127,229.886,295.18,240.446,288.621,247.016z M430.506,341.59
			c-0.011,0.006-0.011,0.006-0.011,0.011c-19.555,19.555-51.392,19.545-70.937,0c-19.595-19.595-19.625-51.329,0-70.943
			c19.56-19.555,51.398-19.549,70.937,0.006C450.044,290.219,450.044,322.035,430.506,341.59z"/>
	</g>
</g>
<g>
</g>
<g>
</g>
<g>
</g>
<g>
</g>
<g>
</g>
<g>
</g>
<g>
</g>
<g>
</g>
<g>
</g>
<g>
</g>
<g>
</g>
<g>
</g>
<g>
</g>
<g>
</g>
<g>
</g>
</svg>
