<?xml version="1.0" encoding="iso-8859-1"?>
<!-- Generator: Adobe Illustrator 19.0.0, SVG Export Plug-In . SVG Version: 6.00 Build 0)  -->
<svg version="1.1" id="Layer_1" xmlns="http://www.w3.org/2000/svg" xmlns:xlink="http://www.w3.org/1999/xlink" x="0px" y="0px"
	 viewBox="0 0 512 512" style="enable-background:new 0 0 512 512;" xml:space="preserve">
<g>
	<g>
		<path d="M189.285,322.775c-6.516-6.508-17.085-6.508-23.602,0c-6.495,6.506-6.495,17.09,0.011,23.602
			c6.506,6.501,17.085,6.495,23.591-0.006C195.78,339.861,195.78,329.276,189.285,322.775z"/>
	</g>
</g>
<g>
	<g>
		<path d="M507.112,99.312c-89.184-89.194-84.755-84.764-94.364-94.375c-6.516-6.516-17.075-6.516-23.591,0
			c-6.516,6.511-6.516,17.075,0,23.591l11.798,11.799l-23.599,23.598l-11.801-11.801c-6.516-6.516-17.075-6.516-23.591,0
			c-6.516,6.511-6.516,17.079,0,23.591l11.801,11.801c-36.462,36.459-52.602,52.599-88.751,88.75
			c-40.106-16.95-83.53-10.843-111.126,16.749c-6.974,6.968-12.665,15.103-16.911,24.167c-3.161,6.707-9.721,11.035-17.15,11.296
			c-32.931,1.151-61.942,13.36-83.904,35.316c-51.744,51.733-47.393,141.351,11.795,200.54
			c58.532,58.542,148.489,63.84,200.546,11.806c21.962-21.956,34.17-50.967,35.31-83.904c0.26-7.424,4.595-13.995,11.318-17.15
			c9.059-4.258,17.182-9.949,24.156-16.922c27.577-27.583,33.694-70.999,16.745-111.125c22.578-22.579,66.23-66.231,88.748-88.748
			l11.799,11.803c6.516,6.516,17.075,6.516,23.591,0c6.516-6.511,6.516-17.075,0-23.591l-11.799-11.803l23.592-23.593l11.797,11.797
			c6.516,6.516,17.075,6.516,23.591,0C513.629,116.392,513.629,105.828,507.112,99.312z M142.092,440.74
			c-6.516,6.516-17.075,6.516-23.591,0l-47.182-47.188c-6.516-6.516-6.516-17.079,0-23.591c6.516-6.516,17.075-6.516,23.591,0
			l47.182,47.188C148.609,423.667,148.609,434.229,142.092,440.74z M212.887,369.957c-0.011,0.006-0.011,0.006-0.011,0.006
			c-19.505,19.509-51.273,19.517-70.784,0.006c-19.507-19.524-19.507-51.272,0-70.784c19.486-19.513,51.255-19.534,70.784,0
			C232.383,318.696,232.383,350.444,212.887,369.957z M271.853,263.787l-23.591-23.591l105.5-105.496l23.591,23.59L271.853,263.787z
			"/>
	</g>
</g>
<g>
</g>
<g>
</g>
<g>
</g>
<g>
</g>
<g>
</g>
<g>
</g>
<g>
</g>
<g>
</g>
<g>
</g>
<g>
</g>
<g>
</g>
<g>
</g>
<g>
</g>
<g>
</g>
<g>
</g>
</svg>
