<?xml version="1.0" encoding="iso-8859-1"?>
<!-- Generator: Adobe Illustrator 19.0.0, SVG Export Plug-In . SVG Version: 6.00 Build 0)  -->
<svg version="1.1" id="Layer_1" xmlns="http://www.w3.org/2000/svg" xmlns:xlink="http://www.w3.org/1999/xlink" x="0px" y="0px"
	 viewBox="0 0 512 512" style="enable-background:new 0 0 512 512;" xml:space="preserve">
<g>
	<g>
		<path d="M389.783,350.339c-19.986,0-37.902-8.854-50.169-22.793c-12.267,13.939-30.183,22.793-50.169,22.793
			c-13.786,0-26.608-4.198-37.266-11.373c-9.146,26.057-33.929,44.818-63.071,44.818h-16.723c-9.236,0-16.723-7.487-16.723-16.723
			c0-9.236,7.487-16.723,16.723-16.723h14.831c18.11,0,34.344-13.561,35.291-31.648c1.01-19.288-14.332-35.244-33.399-35.244
			h-33.446c-36.943,0-66.892,29.948-66.892,66.892c0,105.84,75.434,161.66,150.506,161.66h33.446
			c83.122,0,150.506-67.384,150.506-150.506c0-7.724,0-12.385,0-20.205C413.376,347.008,401.974,350.339,389.783,350.339z"/>
	</g>
</g>
<g>
	<g>
		<path d="M389.783,183.11c-18.472,0-33.446,14.974-33.446,33.446v66.892c0,18.472,14.974,33.446,33.446,33.446
			c18.472,0,33.446-14.974,33.446-33.446v-66.892C423.229,198.084,408.255,183.11,389.783,183.11z"/>
	</g>
</g>
<g>
	<g>
		<path d="M289.446,183.11c-18.472,0-33.446,14.975-33.446,33.446v66.892c0,18.472,14.974,33.446,33.446,33.446
			c18.472,0,33.446-14.974,33.446-33.446v-66.892C322.892,198.084,307.918,183.11,289.446,183.11z"/>
	</g>
</g>
<g>
	<g>
		<path d="M248.67,0.313c-18.345-2.498-35.188,10.223-37.736,28.525c0,0-20.4,146.844-21.956,158.04
			c-0.061,0.444-0.094,0.674-0.094,0.674L166.832,28.838c-2.547-18.302-19.39-31.023-37.735-28.525
			c-18.29,2.542-31.061,19.44-28.525,37.736l27.305,196.532c0.936,6.728,3.874,12.646,8.047,17.393
			c21.656-4.339,67.428-4.006,86.629,7.07v-42.488c0-26.617,15.664-49.585,38.224-60.346l16.416-118.162
			C279.732,19.752,266.961,2.855,248.67,0.313z"/>
	</g>
</g>
<g>
</g>
<g>
</g>
<g>
</g>
<g>
</g>
<g>
</g>
<g>
</g>
<g>
</g>
<g>
</g>
<g>
</g>
<g>
</g>
<g>
</g>
<g>
</g>
<g>
</g>
<g>
</g>
<g>
</g>
</svg>
