<?xml version="1.0" encoding="iso-8859-1"?>
<!-- Generator: Adobe Illustrator 19.0.0, SVG Export Plug-In . SVG Version: 6.00 Build 0)  -->
<svg version="1.1" id="Layer_1" xmlns="http://www.w3.org/2000/svg" xmlns:xlink="http://www.w3.org/1999/xlink" x="0px" y="0px"
	 viewBox="0 0 512.001 512.001" style="enable-background:new 0 0 512.001 512.001;" xml:space="preserve">
<g>
	<g>
		<path d="M411.827,255.895c-8.872,0-17.434,1.272-25.63,3.448l-39.72-87.385c6.589-16.412,12.59-30.61,17.199-40.178
			c2.76-5.739,8.674-9.451,15.044-9.451c33.207,0,52.587-24.5,52.587-49.875c0-9.223-7.479-16.696-16.696-16.696
			c-9.217,0-16.696,7.473-16.696,16.696c0,9.021-6.429,16.484-19.196,16.484c-19.12,0-36.837,11.13-45.131,28.354
			c-4.769,9.902-10.848,24.223-17.478,40.672l-135.245,28.981l-17.401-31.223h9.058c9.217,0,16.696-7.473,16.696-16.696
			s-7.479-16.696-16.696-16.696h-66.99c-9.087,0-16.489-7.397-16.489-16.484c0-9.223-7.479-16.696-16.696-16.696
			s-16.696,7.473-16.696,16.696c0,27.5,22.38,49.875,49.88,49.875h19.701L153.6,206.62l-25.651,53.276
			c-8.832-2.556-18.13-4-27.775-4C44.935,255.896,0,300.836,0,356.07c0,55.234,44.936,100.173,100.175,100.173
			c49.538,0,90.68-36.181,98.666-83.478h4.351c7.141,22.498,27.98,38.957,52.809,38.957c30.684,0,55.652-24.968,55.652-55.652
			c0-16.484-7.345-31.157-18.771-41.357c7.008-19.481,21.723-60.058,36.666-99.31l26.223,57.689
			c-26.602,18.028-44.118,48.495-44.118,82.979c0,55.234,44.935,100.174,100.174,100.174c55.239,0,100.174-44.94,100.174-100.174
			S467.066,255.895,411.827,255.895z M143.24,305.108c10.388,8.793,18.009,20.701,21.518,34.265h-38.019L143.24,305.108z
			 M100.175,422.851c-36.826,0-66.783-29.956-66.783-66.783s29.956-66.783,66.783-66.783c4.45,0,8.793,0.457,13.001,1.291
			l-28.045,58.247c-5.337,11.095,2.769,23.94,15.044,23.94h64.584C157.318,401.522,131.227,422.851,100.175,422.851z
			 M203.192,339.373h-4.351c-4.511-26.721-19.582-49.852-40.824-64.947l15.469-32.125l42.168,75.662
			C209.966,323.985,205.755,331.293,203.192,339.373z M262.305,301.053c-2.095-0.24-4.145-0.638-6.304-0.638
			c-3.856,0-7.62,0.4-11.255,1.15l-46.876-84.112l103.615-22.205C285.904,235.852,270.186,279.142,262.305,301.053z
			 M411.827,422.851c-36.826,0-66.783-29.956-66.783-66.783c0-20.95,9.712-39.654,24.851-51.907l26.736,58.814
			c3.757,8.281,13.574,12.149,22.108,8.293c8.391-3.815,12.098-13.717,8.282-22.108l-26.731-58.808
			c3.755-0.658,7.595-1.067,11.536-1.067c36.826,0,66.783,29.956,66.783,66.783C478.61,392.895,448.653,422.851,411.827,422.851z"/>
	</g>
</g>
<g>
</g>
<g>
</g>
<g>
</g>
<g>
</g>
<g>
</g>
<g>
</g>
<g>
</g>
<g>
</g>
<g>
</g>
<g>
</g>
<g>
</g>
<g>
</g>
<g>
</g>
<g>
</g>
<g>
</g>
</svg>
