<?xml version="1.0" encoding="iso-8859-1"?>
<!-- Generator: Adobe Illustrator 19.0.0, SVG Export Plug-In . SVG Version: 6.00 Build 0)  -->
<svg version="1.1" id="Layer_1" xmlns="http://www.w3.org/2000/svg" xmlns:xlink="http://www.w3.org/1999/xlink" x="0px" y="0px"
	 viewBox="0 0 512 512" style="enable-background:new 0 0 512 512;" xml:space="preserve">
<g>
	<g>
		<path d="M497.69,185.72l-156.648-22.763L270.982,21.006c-6.125-12.392-23.843-12.393-29.968,0l-70.055,141.953L14.31,185.721
			c-13.669,1.985-19.167,18.851-9.258,28.5l113.349,110.487L91.642,480.73c-2.336,13.66,12.03,24.018,24.247,17.612l140.108-73.66
			l140.114,73.66c12.275,6.427,26.576-3.998,24.247-17.612l-26.76-156.017l113.349-110.493
			C516.858,204.57,511.355,187.705,497.69,185.72z M360.019,261.953l-39.879,38.889l9.415,54.923
			c2.33,13.636-12,24.034-24.248,17.612l-49.31-25.938l-49.305,25.938c-12.197,6.418-26.581-3.949-24.247-17.612l9.415-54.923
			l-39.879-38.889c-9.9-9.652-4.406-26.51,9.268-28.495l55.114-8.001l24.65-49.952c6.121-12.396,23.84-12.406,29.968-0.006
			l24.655,49.958l55.114,8.001C364.424,235.444,369.918,252.301,360.019,261.953z"/>
	</g>
</g>
<g>
</g>
<g>
</g>
<g>
</g>
<g>
</g>
<g>
</g>
<g>
</g>
<g>
</g>
<g>
</g>
<g>
</g>
<g>
</g>
<g>
</g>
<g>
</g>
<g>
</g>
<g>
</g>
<g>
</g>
</svg>
