<?xml version="1.0" encoding="iso-8859-1"?>
<!-- Generator: Adobe Illustrator 19.0.0, SVG Export Plug-In . SVG Version: 6.00 Build 0)  -->
<svg version="1.1" id="Layer_1" xmlns="http://www.w3.org/2000/svg" xmlns:xlink="http://www.w3.org/1999/xlink" x="0px" y="0px"
	 viewBox="0 0 512 512" style="enable-background:new 0 0 512 512;" xml:space="preserve">
<g>
	<g>
		<path d="M226.142,44.903L20.232,0.382C11.209-1.526,2.33,4.154,0.384,13.175c-1.957,9.011,3.772,17.896,12.782,19.848
			l205.91,44.521c9.199,1.966,17.941-3.938,19.848-12.793C240.881,55.739,235.152,46.854,226.142,44.903z"/>
	</g>
</g>
<g>
	<g>
		<path d="M511.616,13.175c-1.946-9.027-10.848-14.744-19.847-12.793l-205.91,44.521c-9.011,1.951-14.739,10.836-12.782,19.848
			c1.907,8.855,10.649,14.759,19.848,12.793l205.91-44.521C507.845,31.071,513.573,22.186,511.616,13.175z"/>
	</g>
</g>
<g>
	<g>
		<path d="M431.935,141.798c-7.884-18.51-25.991-30.477-46.165-30.488l-259.594-0.066c-20.076,0.066-38.021,11.711-45.728,29.668
			C52.125,207.01,50.282,265.513,61.533,322.824c11.594-17.392,20.944-31.419,47.013-70.517c6.604-9.904,21.179-9.904,27.782,0
			l52.891,79.336c21.495-32.242-17.321,25.964,52.891-79.336c6.604-9.904,21.179-9.904,27.782,0
			c20.6,30.9,35.274,52.91,52.891,79.336l52.891-79.336c6.195-9.294,21.587-9.294,27.782,0
			c18.196,27.293,31.773,47.659,46.832,70.249C461.489,265.304,459.731,207.071,431.935,141.798z M102.113,178.092v-0.001
			c2.627-7.9,5.542-15.88,9.031-24.021c2.402-5.62,8.489-9.413,15.087-9.435L385.76,144.7c6.761,0.006,12.825,4,15.457,10.18v0.006
			c3.344,7.854,6.163,15.566,8.698,23.207H102.113z"/>
	</g>
</g>
<g>
	<g>
		<path d="M389.565,291.665L336.673,371c-6.604,9.904-21.179,9.904-27.782,0c-18.6-27.899-33.481-50.22-52.891-79.336L203.109,371
			c-6.604,9.904-21.179,9.904-27.782,0l-52.891-79.336L72.47,366.613c11.444,38.099,27.28,76.577,42.4,113.93
			C122.6,499.652,140.795,512,161.23,512h189.682c20.347,0,38.477-12.293,46.163-31.326c15.663-38.753,31.078-76.67,42.31-114.279
			C422.24,340.678,407.849,319.093,389.565,291.665z M366.119,468.163c-2.565,6.348-8.532,10.446-15.206,10.446H161.23
			c-6.761,0-12.804-4.157-15.402-10.597c-3.641-8.979-5.364-13.223-9.226-22.794h238.77
			C371.997,453.626,369.496,459.796,366.119,468.163z"/>
	</g>
</g>
<g>
</g>
<g>
</g>
<g>
</g>
<g>
</g>
<g>
</g>
<g>
</g>
<g>
</g>
<g>
</g>
<g>
</g>
<g>
</g>
<g>
</g>
<g>
</g>
<g>
</g>
<g>
</g>
<g>
</g>
</svg>
