<?xml version="1.0" encoding="iso-8859-1"?>
<!-- Generator: Adobe Illustrator 19.0.0, SVG Export Plug-In . SVG Version: 6.00 Build 0)  -->
<svg version="1.1" id="Layer_1" xmlns="http://www.w3.org/2000/svg" xmlns:xlink="http://www.w3.org/1999/xlink" x="0px" y="0px"
	 viewBox="0 0 512.001 512.001" style="enable-background:new 0 0 512.001 512.001;" xml:space="preserve">
<g>
	<g>
		<path d="M475.366,28.778c-35.494-35.483-88.046-38.52-119.639-6.921c-21.887,21.887-23.842,48.046-20.429,68.562
			c-20.522-3.403-46.681-1.453-68.562,20.429c-30.241,30.236-28.678,79.618,2.592,114.915c-19.102,9.01-34.528,24.57-43.403,43.728
			c-35.116-31.254-84.231-33.6-115.097-2.734c-21.887,21.887-23.842,48.046-20.429,68.562c-20.511-3.414-46.675-1.459-68.562,20.424
			c-31.606,31.61-28.563,84.163,6.926,119.64c51.128,51.145,139.544,40.284,208.827,17.955c5.14-1.654,9.171-5.686,10.826-10.826
			c28.97-89.892,19.574-145.617,3.086-178.936c1.602-27.812,23.727-50.32,51.487-52.399c53.415,26.81,122.628,15.59,179.5-2.737
			c5.146-1.654,9.165-5.686,10.826-10.826C533.79,111.996,499.444,52.851,475.366,28.778z"/>
	</g>
</g>
<g>
</g>
<g>
</g>
<g>
</g>
<g>
</g>
<g>
</g>
<g>
</g>
<g>
</g>
<g>
</g>
<g>
</g>
<g>
</g>
<g>
</g>
<g>
</g>
<g>
</g>
<g>
</g>
<g>
</g>
</svg>
