<?xml version="1.0" encoding="iso-8859-1"?>
<!-- Generator: Adobe Illustrator 19.0.0, SVG Export Plug-In . SVG Version: 6.00 Build 0)  -->
<svg version="1.1" id="Layer_1" xmlns="http://www.w3.org/2000/svg" xmlns:xlink="http://www.w3.org/1999/xlink" x="0px" y="0px"
	 viewBox="0 0 512 512" style="enable-background:new 0 0 512 512;" xml:space="preserve">
<g>
	<g>
		<path d="M361.426,412.092c7.45-15.59,11.443-32.75,11.443-50.353c0-32.689-13.527-62.247-35.233-83.478h18.538
			c27.619,0,50.087-22.468,50.087-50.087c0-27.619-22.468-50.087-50.087-50.087H303.01c1.87-5.248,3.076-10.813,3.076-16.696
			s-1.207-11.448-3.076-16.696h36.468c9.217,0,16.696-7.473,16.696-16.696c0-9.223-7.479-16.696-16.696-16.696h-28.12l12.609-45.38
			c5.152-15.462,2.641-31.908-6.881-45.131C307.554,7.582,292.75,0,276.457,0h-40.913c-16.294,0-31.097,7.582-40.631,20.794
			c-9.522,13.223-12.033,29.668-7.13,44.326l12.85,46.185h-28.111c-9.217,0-16.696,7.473-16.696,16.696
			c0,9.223,7.479,16.696,16.696,16.696h36.468c-1.87,5.248-3.076,10.813-3.076,16.696c0,5.55,1.121,10.797,2.795,15.79
			c-57.904-6.905-102.969-56.234-102.969-115.964V16.696C105.739,7.473,98.261,0,89.044,0c-9.217,0-16.696,7.473-16.696,16.696
			v44.522c0,78.328,60.263,142.767,136.853,149.582c-2.025,5.434-3.288,11.243-3.288,17.375c0,5.882,1.207,11.448,3.076,16.696
			h-36.468c-9.217,0-16.696,7.473-16.696,16.696c0,9.223,7.479,16.696,16.696,16.696h1.842
			c-21.707,21.231-35.233,50.789-35.233,83.478c0,17.603,3.994,34.763,11.443,50.353c-43.582,2.733-78.226,38.953-78.226,83.212
			c0,9.223,7.479,16.696,16.696,16.696h333.913c9.217,0,16.696-7.473,16.696-16.696
			C439.652,451.045,405.009,414.825,361.426,412.092z M303.01,211.478h53.163c9.206,0,16.696,7.49,16.696,16.696
			c0,9.206-7.49,16.696-16.696,16.696H303.01c1.87-5.248,3.076-10.813,3.076-16.696C306.087,222.291,304.88,216.726,303.01,211.478z
			 M256,144.696c9.206,0,16.696,7.49,16.696,16.696c0,9.206-7.49,16.696-16.696,16.696s-16.696-7.49-16.696-16.696
			C239.304,152.185,246.794,144.696,256,144.696z M256,211.478c9.206,0,16.696,7.49,16.696,16.696
			c0,9.206-7.49,16.696-16.696,16.696s-16.696-7.49-16.696-16.696C239.304,218.968,246.794,211.478,256,211.478z M108.597,478.609
			c6.891-19.435,25.456-33.391,47.229-33.391h200.348c21.772,0,40.337,13.956,47.229,33.391H108.597z"/>
	</g>
</g>
<g>
</g>
<g>
</g>
<g>
</g>
<g>
</g>
<g>
</g>
<g>
</g>
<g>
</g>
<g>
</g>
<g>
</g>
<g>
</g>
<g>
</g>
<g>
</g>
<g>
</g>
<g>
</g>
<g>
</g>
</svg>
