<?xml version="1.0" encoding="iso-8859-1"?>
<!-- Generator: Adobe Illustrator 19.0.0, SVG Export Plug-In . SVG Version: 6.00 Build 0)  -->
<svg version="1.1" id="Layer_1" xmlns="http://www.w3.org/2000/svg" xmlns:xlink="http://www.w3.org/1999/xlink" x="0px" y="0px"
	 viewBox="0 0 512 512" style="enable-background:new 0 0 512 512;" xml:space="preserve">
<g>
	<g>
		<path d="M256,0C134.677,0,38.957,99.778,38.957,217.043v278.261c0,9.223,7.479,16.696,16.696,16.696h400.696
			c9.217,0,16.696-7.473,16.696-16.696V217.043C473.043,99.157,377.693,0,256,0z M372.87,361.739
			c0,64.441-52.424,116.87-116.87,116.87s-116.87-52.429-116.87-116.87v-61.217h50.087c27.323,0,51.545-13.252,66.783-33.602
			c15.238,20.35,39.46,33.602,66.783,33.602h50.087V361.739z M73.193,200.348c1.041-11.479,3.212-22.615,6.274-33.391h353.182
			c3.085,10.877,5.123,22.052,6.155,33.391H73.193z"/>
	</g>
</g>
<g>
	<g>
		<path d="M315.021,397.157c-6.521-6.521-17.086-6.521-23.609,0c-9.435,9.44-22.01,14.635-35.413,14.635
			c-13.402,0-25.978-5.196-35.413-14.635c-6.521-6.521-17.087-6.521-23.609,0c-6.521,6.516-6.521,17.087,0,23.609
			c15.74,15.75,36.707,24.418,59.021,24.418c22.314,0,43.283-8.668,59.021-24.418C321.543,414.245,321.543,403.674,315.021,397.157z
			"/>
	</g>
</g>
<g>
</g>
<g>
</g>
<g>
</g>
<g>
</g>
<g>
</g>
<g>
</g>
<g>
</g>
<g>
</g>
<g>
</g>
<g>
</g>
<g>
</g>
<g>
</g>
<g>
</g>
<g>
</g>
<g>
</g>
</svg>
