<?xml version="1.0" encoding="iso-8859-1"?>
<!-- Generator: Adobe Illustrator 19.0.0, SVG Export Plug-In . SVG Version: 6.00 Build 0)  -->
<svg version="1.1" id="Layer_1" xmlns="http://www.w3.org/2000/svg" xmlns:xlink="http://www.w3.org/1999/xlink" x="0px" y="0px"
	 viewBox="0 0 512 512" style="enable-background:new 0 0 512 512;" xml:space="preserve">
<g>
	<g>
		<path d="M395.13,222.609h-44.522c-27.619,0-50.087-22.468-50.087-50.087V72.348c0-9.223-7.479-16.696-16.696-16.696H16.696
			C7.479,55.652,0,63.125,0,72.348V372.87v33.391c0,27.619,22.468,50.087,50.087,50.087h411.826
			c27.619,0,50.087-22.468,50.087-50.087c0-24.166,0-42.617,0-66.783C512,275.037,459.576,222.609,395.13,222.609z M304.621,242.123
			c8.757,5.806,18.651,10.026,29.292,12.195v33.741c-19.751-2.845-37.881-10.614-53.163-22.066L304.621,242.123z M233.739,89.043
			h33.391v33.391h-33.391V89.043z M233.739,155.826h33.391v16.696c0,16.992,5.129,32.792,13.881,45.992l-23.871,23.869
			c-14.624-19.515-23.401-43.654-23.401-69.861V155.826z M116.87,122.435c27.619,0,50.087,22.468,50.087,50.087
			c0,27.619-22.468,50.087-50.087,50.087c-27.619,0-50.087-22.468-50.087-50.087C66.783,144.903,89.25,122.435,116.87,122.435z
			 M478.609,406.261c0,9.206-7.49,16.696-16.696,16.696H50.087c-9.206,0-16.696-7.49-16.696-16.696v-16.696h445.217V406.261z
			 M478.609,356.174H367.304V256h27.826c46.032,0,83.478,37.446,83.478,83.478V356.174z"/>
	</g>
</g>
<g>
	<g>
		<path d="M116.87,155.826c-9.206,0-16.696,7.49-16.696,16.696c0,9.206,7.49,16.696,16.696,16.696s16.696-7.49,16.696-16.696
			C133.565,163.316,126.076,155.826,116.87,155.826z"/>
	</g>
</g>
<g>
</g>
<g>
</g>
<g>
</g>
<g>
</g>
<g>
</g>
<g>
</g>
<g>
</g>
<g>
</g>
<g>
</g>
<g>
</g>
<g>
</g>
<g>
</g>
<g>
</g>
<g>
</g>
<g>
</g>
</svg>
