<?xml version="1.0" encoding="iso-8859-1"?>
<!-- Generator: Adobe Illustrator 19.0.0, SVG Export Plug-In . SVG Version: 6.00 Build 0)  -->
<svg version="1.1" id="Layer_1" xmlns="http://www.w3.org/2000/svg" xmlns:xlink="http://www.w3.org/1999/xlink" x="0px" y="0px"
	 viewBox="0 0 512 512" style="enable-background:new 0 0 512 512;" xml:space="preserve">
<g>
	<g>
		<path d="M256,166.957c-49.097,0-89.043,39.946-89.043,89.043s39.946,89.043,89.043,89.043s89.043-39.946,89.043-89.043
			S305.097,166.957,256,166.957z M256,278.261c-12.277,0-22.261-9.984-22.261-22.261c0-12.277,9.984-22.261,22.261-22.261
			c12.277,0,22.261,9.984,22.261,22.261C278.261,268.277,268.277,278.261,256,278.261z"/>
	</g>
</g>
<g>
	<g>
		<path d="M256,0C114.843,0,0,114.843,0,256s114.843,256,256,256s256-114.843,256-256S397.157,0,256,0z M256,445.217
			c-50.468,0-97.968-19.701-133.739-55.479C86.483,353.968,66.783,306.468,66.783,256c0-9.223,7.473-16.696,16.696-16.696
			s16.696,7.473,16.696,16.696c0,41.549,16.228,80.663,45.696,110.13c29.468,29.467,68.581,45.696,110.13,45.696
			c9.223,0,16.696,7.473,16.696,16.696C272.696,437.744,265.223,445.217,256,445.217z M256,378.435
			c-67.51,0-122.435-54.924-122.435-122.435c0-67.51,54.924-122.435,122.435-122.435S378.435,188.489,378.435,256
			C378.435,323.511,323.511,378.435,256,378.435z M428.522,272.696c-9.223,0-16.696-7.473-16.696-16.696
			c0-41.549-16.228-80.663-45.696-110.13c-29.468-29.467-68.581-45.696-110.13-45.696c-9.223,0-16.696-7.473-16.696-16.696
			S246.777,66.783,256,66.783c50.468,0,97.968,19.701,133.739,55.479c35.778,35.771,55.479,83.271,55.479,133.739
			C445.217,265.223,437.744,272.696,428.522,272.696z"/>
	</g>
</g>
<g>
</g>
<g>
</g>
<g>
</g>
<g>
</g>
<g>
</g>
<g>
</g>
<g>
</g>
<g>
</g>
<g>
</g>
<g>
</g>
<g>
</g>
<g>
</g>
<g>
</g>
<g>
</g>
<g>
</g>
</svg>
