<?xml version="1.0" encoding="iso-8859-1"?>
<!-- Generator: Adobe Illustrator 19.0.0, SVG Export Plug-In . SVG Version: 6.00 Build 0)  -->
<svg version="1.1" id="Layer_1" xmlns="http://www.w3.org/2000/svg" xmlns:xlink="http://www.w3.org/1999/xlink" x="0px" y="0px"
	 viewBox="0 0 512 512" style="enable-background:new 0 0 512 512;" xml:space="preserve">
<g>
	<g>
		<path d="M256,0C114.837,0,0,114.843,0,256s114.837,256,256,256s256-114.843,256-256S397.163,0,256,0z M256,66.783
			c38.359,0,69.565,31.206,69.565,69.565S294.359,205.913,256,205.913s-69.565-31.206-69.565-69.565S217.641,66.783,256,66.783z
			 M256,478.609c-122.75,0-222.609-99.865-222.609-222.609c0-79.685,42.223-149.524,105.337-188.86
			c-12.038,20.318-19.076,43.929-19.076,69.208c0,75.185,61.163,136.348,136.348,136.348c56.772,0,102.957,46.185,102.957,102.956
			S312.772,478.609,256,478.609z"/>
	</g>
</g>
<g>
	<g>
		<path d="M256,306.087c-38.359,0-69.565,31.206-69.565,69.565s31.206,69.565,69.565,69.565s69.565-31.206,69.565-69.565
			S294.359,306.087,256,306.087z"/>
	</g>
</g>
<g>
</g>
<g>
</g>
<g>
</g>
<g>
</g>
<g>
</g>
<g>
</g>
<g>
</g>
<g>
</g>
<g>
</g>
<g>
</g>
<g>
</g>
<g>
</g>
<g>
</g>
<g>
</g>
<g>
</g>
</svg>
