<?xml version="1.0" encoding="iso-8859-1"?>
<!-- Generator: Adobe Illustrator 19.0.0, SVG Export Plug-In . SVG Version: 6.00 Build 0)  -->
<svg version="1.1" id="Layer_1" xmlns="http://www.w3.org/2000/svg" xmlns:xlink="http://www.w3.org/1999/xlink" x="0px" y="0px"
	 viewBox="0 0 512 512" style="enable-background:new 0 0 512 512;" xml:space="preserve">
<g>
	<g>
		<path d="M225.247,296.13c-8.481,0-17.027-2.542-24.441-7.785v198.62c0,13.827,11.209,25.034,25.034,25.034
			c13.827,0,25.034-11.208,25.034-25.034V287.53C243.413,293.182,234.373,296.13,225.247,296.13z"/>
	</g>
</g>
<g>
	<g>
		<path d="M286.751,296.13c-8.896,0-17.715-2.789-25.066-8.164v198.999c0,13.827,11.209,25.034,25.035,25.034
			c13.827,0,25.034-11.208,25.034-25.034V287.944C304.214,293.459,295.446,296.13,286.751,296.13z"/>
	</g>
</g>
<g>
	<g>
		<path d="M237.778,237.001l-8.654-6.473l-26.175,32.528l9.838,7.358c9.221,6.898,22.297,5.019,29.202-4.211
			C248.889,256.977,247.003,243.902,237.778,237.001z"/>
	</g>
</g>
<g>
	<g>
		<path d="M283.132,230.338l-8.909,6.663c-9.187,6.872-11.12,19.965-4.211,29.202c6.908,9.235,19.983,11.106,29.202,4.211
			l10.093-7.549L283.132,230.338z"/>
	</g>
</g>
<g>
	<g>
		<path d="M381.436,189.467c-4.084-10.049-24.225-59.603-28.491-70.1c-8.009-19.708-26.932-32.442-48.205-32.442h-5.063
			c-11.098,10.954-26.328,17.731-43.116,17.731c-16.116,0-31.538-6.303-43.117-17.731h-6.184c-21.274,0-40.197,12.734-48.206,32.442
			c-4.285,10.542-24.428,60.101-28.491,70.1c-3.571,8.789-0.765,18.88,6.832,24.563l48.247,36.084l26.175-32.528l-36.536-27.326
			c11.761-28.937,17.429-43.205,20.474-50.489c0.482-1.153,1.709-1.805,2.935-1.559c1.224,0.246,2.106,1.322,2.106,2.571v41.638
			c54.751,40.949,51.789,38.459,55.205,42.037c3.422-3.586,0.462-1.094,55.301-42.11v-41.334c0-1.25,0.881-2.325,2.107-2.57
			c1.225-0.245,2.454,0.407,2.935,1.56c3.055,7.329,8.726,21.588,20.376,50.253l-36.281,27.136l26.175,32.528l47.991-35.892
			C382.201,208.348,385.007,198.256,381.436,189.467z"/>
	</g>
</g>
<g>
	<g>
		<circle cx="256.566" cy="43.238" r="43.238"/>
	</g>
</g>
<g>
</g>
<g>
</g>
<g>
</g>
<g>
</g>
<g>
</g>
<g>
</g>
<g>
</g>
<g>
</g>
<g>
</g>
<g>
</g>
<g>
</g>
<g>
</g>
<g>
</g>
<g>
</g>
<g>
</g>
</svg>
