<?xml version="1.0" encoding="iso-8859-1"?>
<!-- Generator: Adobe Illustrator 19.0.0, SVG Export Plug-In . SVG Version: 6.00 Build 0)  -->
<svg version="1.1" id="Layer_1" xmlns="http://www.w3.org/2000/svg" xmlns:xlink="http://www.w3.org/1999/xlink" x="0px" y="0px"
	 viewBox="0 0 512 512" style="enable-background:new 0 0 512 512;" xml:space="preserve">
<g>
	<g>
		<path d="M489.833,19.544H279.839c-4.61,0-8.348,3.737-8.348,8.348v98.69c0,4.611,3.738,8.348,8.348,8.348h209.995
			c4.61,0,8.347-3.738,8.347-8.348v-98.69C498.18,23.28,494.443,19.544,489.833,19.544z M323.619,118.234h-35.432V36.24h35.432
			V118.234z M376.488,118.234h-36.174V36.24h36.174V118.234z M429.358,118.234h-36.174V36.24h36.174V118.234z M481.485,118.234
			h-35.432V36.24h35.432V118.234z"/>
	</g>
</g>
<g>
	<g>
		<circle cx="227.773" cy="175.171" r="40.915"/>
	</g>
</g>
<g>
	<g>
		<path d="M290.687,467.168c-18.462-123.807-17.091-114.829-17.399-116.244c4.914-1.271,9.292-4.538,11.816-9.396
			c4.719-9.086,1.18-20.276-7.907-24.996l-62.417-32.419l-30.09-50.346l34.322,30.783l6.438,3.344l6.906-32.53
			c-23.772,1.77-46.757-10.391-58.218-32.533c-8.608,0.607-17.007,3.413-24.349,8.269c-11.762,7.781-19.74,20.119-22.01,34.038
			l-18.032,110.56c-0.8,4.904-0.02,9.877,2.134,14.242H8.07c-4.457,0-8.07,3.613-8.07,8.07v31.503c0,4.457,3.613,8.07,8.07,8.07
			h4.898v61.907c0,7.162,5.806,12.967,12.967,12.967s12.967-5.806,12.967-12.967v-61.907h102.445v61.907
			c0,7.162,5.806,12.967,12.967,12.967s12.967-5.806,12.967-12.967v-61.907h10.085c4.457,0,8.07-3.613,8.07-8.07v-28.315
			c12.496-0.614,46.883-2.304,46.883-2.304l14.298,94.355c1.678,12.172,12.909,20.676,25.076,18.995
			C283.862,490.564,292.366,479.338,290.687,467.168z M192.898,336.287c-9.14-4.747-7.286-3.784-15.307-7.949
			c-4.403-2.287-7.38-6.324-8.516-10.782l-16.21-64.769l32.788,54.862c1.764,2.952,4.315,5.356,7.368,6.941l38.153,19.815
			L192.898,336.287z"/>
	</g>
</g>
<g>
	<g>
		<path d="M498.093,258.717h-36.73c-7.681,0-13.907,6.226-13.907,13.907v87.277H342.801c-5.291,0-9.261,4.824-8.301,9.978
			c4.439,23.842,28.553,43.735,61.467,52.669v61.472c0,4.658,3.775,8.434,8.434,8.434c11.719,0,87.142,0,99.167,0
			c4.658,0,8.434-3.775,8.434-8.434V272.626C512,264.944,505.774,258.717,498.093,258.717z"/>
	</g>
</g>
<g>
</g>
<g>
</g>
<g>
</g>
<g>
</g>
<g>
</g>
<g>
</g>
<g>
</g>
<g>
</g>
<g>
</g>
<g>
</g>
<g>
</g>
<g>
</g>
<g>
</g>
<g>
</g>
<g>
</g>
</svg>
