<?xml version="1.0" encoding="iso-8859-1"?>
<!-- Generator: Adobe Illustrator 19.0.0, SVG Export Plug-In . SVG Version: 6.00 Build 0)  -->
<svg version="1.1" id="Layer_1" xmlns="http://www.w3.org/2000/svg" xmlns:xlink="http://www.w3.org/1999/xlink" x="0px" y="0px"
	 viewBox="0 0 512.001 512.001" style="enable-background:new 0 0 512.001 512.001;" xml:space="preserve">
<g>
	<g>
		<circle cx="103.217" cy="42.191" r="42.131"/>
	</g>
</g>
<g>
	<g>
		<path d="M285.193,117.269c-8.351-7.505-21.204-6.818-28.707,1.533l-43.822,48.766l-15.528-38.204
			c-7.805-19.203-26.242-31.612-46.97-31.612H136.78c-2.663,6.957-22.344,58.373-25.2,65.835l5.941-27.988
			c0.418-1.965,0.114-4.015-0.854-5.776l-8.159-14.839l7.253-13.192c1.08-1.964-0.343-4.376-2.588-4.376H93.265
			c-2.242,0-3.669,2.41-2.588,4.376l7.253,13.192l-8.189,14.894c-0.95,1.727-1.26,3.734-0.877,5.668l5.195,28.041
			c-6.94-17.798-21.872-57.968-24.939-65.835H48.482c-26.394,0-48.35,21.473-48.482,47.864V294.96
			c-0.057,11.227,8.624,20.374,19.851,20.43c0.035,0.001,0.069,0.001,0.104,0.001c11.179-0.001,20.644-9.034,20.7-20.227V145.821
			c0-0.001,0-0.001,0-0.002c0.012-2.267,1.857-4.097,4.125-4.09c2.268,0.007,4.101,1.847,4.101,4.113
			c0.001,50.38,0.009,339.864,0.009,341.705c0,13.473,10.921,24.394,24.394,24.394c13.472,0,24.394-10.921,24.394-24.394V292.563
			h10.533v194.983c0,13.473,10.921,24.394,24.394,24.394s24.394-10.921,24.394-24.394c0-329.894-0.442-129.245-0.442-346.821
			c2.776,2.299,0.489-2.02,30.676,72.249c5.645,13.893,23.928,17.088,33.952,5.933l65.54-72.933
			C294.229,137.625,293.543,124.774,285.193,117.269z"/>
	</g>
</g>
<g>
	<g>
		<path d="M499.688,164.15l-73.927-26.85l24.57,2.841c-4.864-10.832-15.64-17.4-27.115-17.164l-13.755,0.283
			c-9.813,19.175-25.77,31.814-48.202,31.843v333.113c0,13.104,11.395,23.727,24.499,23.727c3.549,0,6.903-0.801,9.925-2.196
			c-3.749-6.303-5.91-13.664-5.91-21.531V309.698h14.912v178.514c0,13.104,10.623,23.727,23.727,23.727s23.727-10.623,23.727-23.727
			V310.455c-15.472-7.672-24.048-25.371-19.561-42.796l18.134-70.425l-37.711-24.799l57.975,21.058l-12.233,47.508l36.111,9.664
			l16.553-64.285C513.807,177.056,508.735,167.436,499.688,164.15z"/>
	</g>
</g>
<g>
	<g>
		<path d="M452.853,263.873l-2.175,8.446c-2.574,9.996,3.444,20.186,13.439,22.76c10.003,2.576,20.188-3.449,22.76-13.439
			l2.087-8.103L452.853,263.873z"/>
	</g>
</g>
<g>
	<g>
		<path d="M424.181,6.572c-3.717-3.177-9.306-2.739-12.481,0.978l-18.235,21.338c-3.177,3.716-2.739,9.304,0.978,12.481
			c3.719,3.178,9.307,2.737,12.481-0.978l18.235-21.338C428.336,15.336,427.898,9.748,424.181,6.572z"/>
	</g>
</g>
<g>
	<g>
		<path d="M465.092,43.957c-1.434-4.674-6.385-7.304-11.059-5.869L413.317,50.57c-11.065,3.392-6.148,20.408,5.19,16.927
			l40.716-12.482C463.897,53.583,466.525,48.631,465.092,43.957z"/>
	</g>
</g>
<g>
	<g>
		<path d="M357.438,54.844c-0.02,0-0.037,0-0.057,0c-23.12,0.03-41.837,18.798-41.806,41.916c0.03,23.1,18.768,41.807,41.861,41.807
			c0.02,0,0.037,0,0.057,0c23.12-0.031,41.837-18.799,41.806-41.917C399.268,73.55,380.53,54.844,357.438,54.844z"/>
	</g>
</g>
<g>
</g>
<g>
</g>
<g>
</g>
<g>
</g>
<g>
</g>
<g>
</g>
<g>
</g>
<g>
</g>
<g>
</g>
<g>
</g>
<g>
</g>
<g>
</g>
<g>
</g>
<g>
</g>
<g>
</g>
</svg>
