<?xml version="1.0" encoding="iso-8859-1"?>
<!-- Generator: Adobe Illustrator 19.0.0, SVG Export Plug-In . SVG Version: 6.00 Build 0)  -->
<svg version="1.1" id="Layer_1" xmlns="http://www.w3.org/2000/svg" xmlns:xlink="http://www.w3.org/1999/xlink" x="0px" y="0px"
	 viewBox="0 0 512.001 512.001" style="enable-background:new 0 0 512.001 512.001;" xml:space="preserve">
<g>
	<g>
		<path d="M471.714,433.221c-9.403,0-81.087,0-90.493,0c-21.886,0-39.877,17.805-39.987,39.689
			c-0.109-21.865-18.117-39.689-39.987-39.689c-9.403,0-81.087,0-90.493,0c-20.736,0-37.806,15.929-39.795,35.97
			c0,0,0.012-11.16-10.278-22.477c-7.439-8.181-18.049-13.492-29.901-13.492c-9.403,0-81.087,0-90.493,0
			c-21.886,0-39.877,17.805-39.987,39.689v39.09h33.615l0.196-38.921c0.026-4.366,6.782-4.527,6.782,0.017v38.904h89.283v-38.903
			c0-4.384,6.76-4.564,6.782-0.018l0.196,38.921c13.465,0,53.764,0,67.229,0c0.101-20.15,0.098-19.471,0.196-38.921
			c0.022-4.487,6.782-4.432,6.782,0.017v38.904h89.283v-38.903c0-4.475,6.854-4.441,6.879-0.018c0.023,4.576-0.021,34.805,0,38.921
			c30.61,0,37.437,0,67.426,0c0.001-0.266-0.007-38.686,0-38.954c0.066-4.448,6.877-4.404,6.877,0.05c0,15.497,0,23.333,0,38.904
			h89.283v-38.903c0-4.356,6.758-4.638,6.782-0.018c0.098,19.499,0.092,18.297,0.196,38.921H511.7v-39.09
			C511.593,451.026,493.6,433.221,471.714,433.221z"/>
	</g>
</g>
<g>
	<g>
		<path d="M426.467,352.217c-19.335,0-34.934,15.682-34.934,34.934c0,19.338,15.72,34.934,34.934,34.934
			c6.953,0,13.425-2.039,18.868-5.541c9.661-6.215,16.066-17.053,16.066-29.393C461.402,367.894,445.803,352.217,426.467,352.217z"
			/>
	</g>
</g>
<g>
	<g>
		<polygon points="297.743,152.818 297.743,211.241 309.236,211.241 		"/>
	</g>
</g>
<g>
	<g>
		<path d="M302.854,111.552l0.191,0.143h-5.68c-24.809,0-45.095,20.184-45.218,44.991l-0.312,62.299
			c4.584-4.768,11.018-7.744,18.138-7.744h20.118l0.273-54.362c0.019-3.777,3.056-6.854,6.808-6.958l-1.423-7.232
			c-1.323-6.725,0.052-13.562,3.872-19.253c6.627-9.875,16.187-10.843,21.477-11.883H302.854z"/>
	</g>
</g>
<g>
	<g>
		<path d="M406.201,62.37c0-5.854-3.357-10.914-8.246-13.392c4.887-2.478,8.246-7.538,8.246-13.392
			c0-9.813-9.328-17.132-19.011-14.466C387.919,9.464,378.675,0,367.381,0c-8.334,0-15.459,5.135-18.409,12.41
			C346.021,5.135,338.896,0,330.562,0c-11.293,0-20.538,9.463-19.807,21.121c-9.678-2.664-19.011,4.648-19.011,14.466
			c0,5.856,3.357,10.915,8.246,13.392c-4.887,2.478-8.246,7.538-8.246,13.392c0,5.856,3.357,10.914,8.246,13.392
			c-4.888,2.478-8.246,7.538-8.246,13.392c0,8.295,6.725,15.02,15.02,15.02c8.444,0,15.438-7.016,14.98-15.818
			c7.082,6.642,16.601,10.716,27.076,10.716c10.635,0,20.283-4.2,27.398-11.023c-0.653,8.887,6.387,16.124,14.963,16.124
			c8.295,0,15.02-6.725,15.02-15.02c0-5.856-3.357-10.914-8.246-13.392C402.842,73.284,406.201,68.225,406.201,62.37z"/>
	</g>
</g>
<g>
	<g>
		<path d="M383.744,125.379c-0.957-4.867-5.679-8.037-10.548-7.08l-54.004,10.624c-4.868,0.957-8.038,5.68-7.081,10.547
			l14.118,71.771h17.261c-0.688-2.786-1.061-5.697-1.061-8.694c0.002-19.955,16.179-36.132,36.134-36.132h13.253L383.744,125.379z"
			/>
	</g>
</g>
<g>
	<g>
		<g>
			<polygon points="395.412,111.697 395.413,111.697 395.412,111.696 			"/>
			<path d="M470.934,193.929c-6.157-14.04-13.943-32.175-20.249-47.018c-8.948-21.063-29.338-35.214-50.738-35.214h-4.534
				c2.28,3.019,3.927,6.562,4.694,10.464l5.759,29.276c4.02,2.009,7.697,5.829,9.646,10.417c3.008,7.078,6.17,14.482,9.224,21.587
				h-46.172c-10.553,0-19.109,8.555-19.109,19.108c0,3.134,0.769,6.085,2.107,8.694h65.777c8.37,0,15.795,4.11,20.374,10.414h6.137
				C466.773,221.655,477.385,208.642,470.934,193.929z"/>
		</g>
	</g>
</g>
<g>
	<g>
		<path d="M85.534,352.217c-19.293,0-34.934,15.641-34.934,34.934c-0.001,19.294,15.642,34.934,34.934,34.934
			c6.953,0,13.425-2.039,18.868-5.541c9.661-6.215,16.066-17.053,16.066-29.393C120.468,367.837,104.775,352.217,85.534,352.217z"/>
	</g>
</g>
<g>
	<g>
		<path d="M256.001,352.217c-19.377,0-34.934,15.719-34.934,34.934c0,11.704,5.89,22.847,16.066,29.393
			c5.443,3.501,11.916,5.541,18.869,5.541c19.232,0,34.934-15.619,34.934-34.934C290.935,367.86,275.298,352.217,256.001,352.217z"
			/>
	</g>
</g>
<g>
	<g>
		<path d="M427.34,227.917H269.975c-4.686,0-8.498,3.812-8.498,8.498v82.763c0,4.686,3.812,8.498,8.498,8.498h39.136
			c0,3.723,0,49.087,0,89.427c12.44,1.74,23.618,7.53,32.124,16.002c12.453-12.404,26.72-16.562,42.847-16.562
			c-5.807-8.348-9.223-18.477-9.223-29.393c0-13.299,5.057-25.437,13.348-34.596c-0.001-13.667-0.001-23.272-0.001-24.879h39.136
			c4.686,0,8.498-3.812,8.498-8.498v-82.763C435.838,231.729,432.026,227.917,427.34,227.917z M407.223,265.491H290.092
			c-4.606,0-8.338-3.733-8.338-8.338c0-4.605,3.732-8.338,8.338-8.338h117.131c4.606,0,8.338,3.733,8.338,8.338
			C415.561,261.758,411.829,265.491,407.223,265.491z"/>
	</g>
</g>
<g>
</g>
<g>
</g>
<g>
</g>
<g>
</g>
<g>
</g>
<g>
</g>
<g>
</g>
<g>
</g>
<g>
</g>
<g>
</g>
<g>
</g>
<g>
</g>
<g>
</g>
<g>
</g>
<g>
</g>
</svg>
