<?xml version="1.0" encoding="iso-8859-1"?>
<!-- Generator: Adobe Illustrator 19.0.0, SVG Export Plug-In . SVG Version: 6.00 Build 0)  -->
<svg version="1.1" id="Layer_1" xmlns="http://www.w3.org/2000/svg" xmlns:xlink="http://www.w3.org/1999/xlink" x="0px" y="0px"
	 viewBox="0 0 512 512" style="enable-background:new 0 0 512 512;" xml:space="preserve">
<g>
	<g>
		<path d="M392.601,100.689c-13.093,0-27.168-3.73-37.687-11.364c-0.478,21.246,16.612,38.549,37.687,38.549
			c21.02,0,38.162-17.243,37.687-38.555C419.733,96.984,405.65,100.689,392.601,100.689z"/>
	</g>
</g>
<g>
	<g>
		<path d="M485.63,182.729c-0.122-24.21-20.135-43.905-44.343-43.905h-48.76h-0.156h-45.439c-21.592,0-41.553,12.591-50.855,32.075
			l-16.766,35.118l-0.148,0.047c5.852,15.12,1.833,32.712-10.751,43.731l30.416-9.512c5.112-1.598,9.327-5.253,11.635-10.086
			l20.384-42.697c2.51-5.259,4.902-6.757,8.604-8.474c0.981-0.455,2.127-0.376,3.036,0.21s0.834,1.598,0.824,2.679
			c-0.221,23.129,0,138.015,0,306.852c0,12.768,9.733,23.118,22.501,23.118c12.767,0,23.118-10.35,23.118-23.118V314.255h6.857
			v174.513c0,12.768,10.351,23.118,23.118,23.118s22.315-10.35,22.315-23.118c0-151.775,0-284.885,0-306.211
			c0-1.643,1.331-2.975,2.975-2.975c1.577,0,2.854,1.278,2.854,2.854c0,16.77,0,102.512,0,125.084
			c0,10.639,8.788,19.265,19.428,19.265c10.639,0,19.156-8.625,19.156-19.265C485.63,282.421,485.63,208.159,485.63,182.729z"/>
	</g>
</g>
<g>
	<g>
		<path d="M429.991,12.66C419.376,4.497,406.097,0,392.603,0c-13.5,0-26.782,4.497-37.397,12.661
			c-10.33,7.946-16.497,18.367-16.497,27.877c0,4.389,1.133,7.957,3.115,10.86c2.973,4.358,7.862,7.213,13.706,9.082v7.102
			c0.014,8.424,16.599,19.4,37.072,19.4c20.473,0,37.044-10.977,37.058-19.4v-7.096c5.841-1.867,10.73-4.716,13.707-9.067
			c1.989-2.906,3.127-6.482,3.127-10.881C446.493,31.029,440.324,20.607,429.991,12.66z M392.603,65.187
			c-3.464-0.001-7.338-5.599-7.338-13.092c0-7.494,3.874-13.093,7.338-13.093c3.463,0,7.337,5.599,7.337,13.093
			C399.939,59.588,396.066,65.187,392.603,65.187z"/>
	</g>
</g>
<g>
	<g>
		<path d="M115.582,311.852c-7.864,0-15.789-2.357-22.663-7.219v184.155c0,12.82,10.392,23.211,23.211,23.211
			s23.211-10.392,23.211-23.211v-184.91C132.424,309.118,124.043,311.852,115.582,311.852z"/>
	</g>
</g>
<g>
	<g>
		<path d="M172.606,311.852c-8.248,0-16.426-2.586-23.242-7.571v184.507c0,12.82,10.392,23.211,23.211,23.211
			s23.211-10.392,23.211-23.211V304.263C188.797,309.377,180.669,311.852,172.606,311.852z"/>
	</g>
</g>
<g>
	<g>
		<path d="M260.396,212.956c-3.051-7.504-23.128-56.9-26.417-64.991c-7.426-18.272-24.97-30.081-44.694-30.081h-4.694
			c-10.29,10.156-24.41,16.439-39.975,16.439c-14.943,0-29.242-5.845-39.975-16.439h-5.734c-19.724,0-37.267,11.807-44.694,30.08
			c-3.289,8.093-23.366,57.488-26.417,64.994c-3.312,8.148-0.709,17.505,6.334,22.773l69.9,52.279
			c8.56,6.402,20.68,4.645,27.075-3.905c6.398-8.555,4.651-20.677-3.905-27.075l-57.944-43.337
			c22.51-55.381,20.896-52.755,23.656-54.987v47.72c50.737,37.947,48.018,35.658,51.185,38.976
			c3.165-3.316,0.403-0.996,51.273-39.043v-47.585c2.647,2.193,0.941-0.752,23.568,54.918l-57.943,43.337
			c-8.487,6.347-10.337,18.475-3.905,27.075c6.399,8.557,18.523,10.302,27.075,3.905l69.899-52.279
			C261.106,230.46,263.709,221.104,260.396,212.956z"/>
	</g>
</g>
<g>
	<g>
		<circle cx="144.619" cy="77.375" r="40.085"/>
	</g>
</g>
<g>
</g>
<g>
</g>
<g>
</g>
<g>
</g>
<g>
</g>
<g>
</g>
<g>
</g>
<g>
</g>
<g>
</g>
<g>
</g>
<g>
</g>
<g>
</g>
<g>
</g>
<g>
</g>
<g>
</g>
</svg>
