<?xml version="1.0" encoding="iso-8859-1"?>
<!-- Generator: Adobe Illustrator 19.0.0, SVG Export Plug-In . SVG Version: 6.00 Build 0)  -->
<svg version="1.1" id="Layer_1" xmlns="http://www.w3.org/2000/svg" xmlns:xlink="http://www.w3.org/1999/xlink" x="0px" y="0px"
	 viewBox="0 0 512.001 512.001" style="enable-background:new 0 0 512.001 512.001;" xml:space="preserve">
<g>
	<g>
		<path d="M271.028,217.547l28.279,72.241c0.014-10.462,0.144-108.482,0.158-118.818c0.02-16.011-12.089-29.02-27.064-29.061
			c-0.013,0-0.026-0.001-0.039-0.001c-11.708-0.24-12.234-0.313-15.327-0.113c-27.463,1.78-48.888,24.542-48.958,51.742v20.257
			l23.154-40.935l-10.858,54.176c-0.671,3.347-0.366,6.817,0.878,9.997l31.637,80.819c3.592,9.176,13.936,13.679,23.087,10.097
			c9.165-3.587,13.684-13.924,10.098-23.087l-29.73-75.95l9.83-49.05L271.028,217.547z"/>
	</g>
</g>
<g>
	<g>
		<path d="M467.103,0H44.898c-4.665,0-8.444,3.781-8.444,8.444s3.78,8.444,8.444,8.444h422.205c4.665,0,8.444-3.781,8.444-8.444
			S471.768,0,467.103,0z"/>
	</g>
</g>
<g>
	<g>
		<path d="M467.103,56.345H313.931c2.838,5.194,4.876,10.878,5.978,16.888h147.194c4.665,0,8.444-3.781,8.444-8.444
			S471.767,56.345,467.103,56.345z"/>
	</g>
</g>
<g>
	<g>
		<path d="M44.898,56.345c-4.665,0-8.444,3.781-8.444,8.444s3.78,8.444,8.444,8.444h163.31c1.102-6.009,3.14-11.696,5.98-16.888
			H44.898z"/>
	</g>
</g>
<g>
	<g>
		<path d="M223.842,123.603c-3.317-3.325-6.168-6.99-8.527-10.913H44.898c-4.665,0-8.444,3.781-8.444,8.444s3.78,8.444,8.444,8.444
			h185.959C228.387,127.791,226.038,125.804,223.842,123.603z"/>
	</g>
</g>
<g>
	<g>
		<path d="M467.103,112.689H312.748c-3.992,6.63-9.302,12.376-15.561,16.888h169.916c4.665,0,8.444-3.781,8.444-8.444
			S471.767,112.689,467.103,112.689z"/>
	</g>
</g>
<g>
	<g>
		<path d="M467.103,169.035H316.306c0.063,1.602,0.047,0.348,0.025,16.888h150.772c4.665,0,8.444-3.781,8.444-8.444
			S471.767,169.035,467.103,169.035z"/>
	</g>
</g>
<g>
	<g>
		<path d="M44.898,169.035c-4.665,0-8.444,3.781-8.444,8.444s3.78,8.444,8.444,8.444h147.069c0.667-5.794,2.073-11.469,4.153-16.888
			H44.898z"/>
	</g>
</g>
<g>
	<g>
		<path d="M467.103,225.38H316.279l-0.023,16.888h150.847c4.665,0,8.444-3.781,8.444-8.444S471.767,225.38,467.103,225.38z"/>
	</g>
</g>
<g>
	<g>
		<path d="M44.898,225.38c-4.665,0-8.444,3.781-8.444,8.444s3.78,8.444,8.444,8.444h146.486l0.043-16.888H44.898z"/>
	</g>
</g>
<g>
	<g>
		<path d="M44.898,281.725c-4.665,0-8.444,3.781-8.444,8.444s3.78,8.444,8.444,8.444H191.24l0.043-16.888H44.898z"/>
	</g>
</g>
<g>
	<g>
		<path d="M467.103,281.725H316.205l-0.023,16.888h150.921c4.665,0,8.444-3.781,8.444-8.444S471.767,281.725,467.103,281.725z"/>
	</g>
</g>
<g>
	<g>
		<path d="M44.898,394.414c-4.665,0-8.444,3.781-8.444,8.444s3.78,8.444,8.444,8.444h146.687v-16.888H44.898z"/>
	</g>
</g>
<g>
	<g>
		<path d="M467.103,394.414H315.348v16.888h151.755c4.665,0,8.444-3.781,8.444-8.444S471.767,394.414,467.103,394.414z"/>
	</g>
</g>
<g>
	<g>
		<path d="M467.103,338.069H315.348v16.888h151.755c4.665,0,8.444-3.781,8.444-8.444S471.767,338.069,467.103,338.069z"/>
	</g>
</g>
<g>
	<g>
		<path d="M44.898,338.069c-4.665,0-8.444,3.781-8.444,8.444s3.78,8.444,8.444,8.444h146.687v-16.888H44.898z"/>
	</g>
</g>
<g>
	<g>
		<path d="M264.11,43.585c-0.019,0-0.035,0-0.054,0c-22.015,0.001-39.879,17.834-39.908,39.856
			c-0.029,22.041,17.815,39.933,39.856,39.962c0.019,0,0.035,0,0.054,0c22.016,0,39.879-17.834,39.908-39.856
			C303.996,61.506,286.152,43.614,264.11,43.585z"/>
	</g>
</g>
<g>
	<g>
		<path d="M282.469,344.542c-3.437,1.345-6.958,2.121-10.457,2.371V489.38c0,7.5-2.059,14.517-5.634,20.526
			c2.882,1.331,6.079,2.094,9.462,2.094c12.494,0,22.62-10.13,22.62-22.62c0-2.197,0-154.147,0-157.293
			C294.582,337.518,289.145,341.928,282.469,344.542z"/>
	</g>
</g>
<g>
	<g>
		<path d="M236.294,324.347c-2.752-7.03-25.032-63.51-28.219-71.652c-0.008,2.972,0,27.678,0,236.686
			c0,12.493,9.366,22.62,21.858,22.62s22.62-10.127,22.62-22.62V342.709C245.386,338.844,239.495,332.523,236.294,324.347z"/>
	</g>
</g>
<g>
</g>
<g>
</g>
<g>
</g>
<g>
</g>
<g>
</g>
<g>
</g>
<g>
</g>
<g>
</g>
<g>
</g>
<g>
</g>
<g>
</g>
<g>
</g>
<g>
</g>
<g>
</g>
<g>
</g>
</svg>
