<?xml version="1.0" encoding="iso-8859-1"?>
<!-- Generator: Adobe Illustrator 19.0.0, SVG Export Plug-In . SVG Version: 6.00 Build 0)  -->
<svg version="1.1" id="Layer_1" xmlns="http://www.w3.org/2000/svg" xmlns:xlink="http://www.w3.org/1999/xlink" x="0px" y="0px"
	 viewBox="0 0 512 512" style="enable-background:new 0 0 512 512;" xml:space="preserve">
<g>
	<g>
		<path d="M96.498,296.13c-8.483,0.001-17.029-2.54-24.443-7.784v198.62C72.055,500.792,83.264,512,97.09,512
			c13.826,0,25.035-11.208,25.035-25.035V287.53C114.662,293.182,105.624,296.13,96.498,296.13z"/>
	</g>
</g>
<g>
	<g>
		<path d="M158,296.131c-8.896,0-17.716-2.789-25.066-8.165v198.999c0,13.826,11.208,25.035,25.035,25.035
			s25.035-11.208,25.035-25.035V287.944C175.464,293.46,166.696,296.131,158,296.131z"/>
	</g>
</g>
<g>
	<g>
		<path d="M109.025,237.002l-8.654-6.472l-26.175,32.529l9.839,7.359c9.222,6.896,22.298,5.017,29.203-4.213
			C120.137,256.977,118.252,243.903,109.025,237.002z"/>
	</g>
</g>
<g>
	<g>
		<path d="M154.38,230.339l-8.909,6.662c-9.188,6.872-11.119,19.964-4.212,29.202c6.909,9.236,19.984,11.107,29.204,4.212
			l10.092-7.548L154.38,230.339z"/>
	</g>
</g>
<g>
	<g>
		<path d="M252.685,189.467c-4.085-10.048-24.225-59.602-28.491-70.099c-8.01-19.708-26.932-32.442-48.205-32.442h-5.062
			c-11.097,10.954-26.328,17.731-43.116,17.731c-16.116,0-31.539-6.302-43.116-17.731H78.51c-21.274,0-40.196,12.734-48.206,32.442
			c-4.285,10.543-24.427,60.101-28.491,70.1c-3.571,8.788-0.765,18.881,6.832,24.562l48.247,36.085l26.174-32.528L46.53,190.262
			c11.761-28.937,17.429-43.205,20.473-50.488c0.481-1.152,1.71-1.805,2.935-1.559c1.225,0.246,2.105,1.322,2.105,2.57v41.639
			c54.751,40.949,51.79,38.459,55.205,42.037c3.422-3.586,0.462-1.094,55.301-42.11v-41.333c0-1.249,0.881-2.325,2.107-2.57
			s2.454,0.407,2.935,1.561c3.055,7.331,8.726,21.589,20.376,50.252l-36.281,27.136l26.174,32.529l47.993-35.895
			C253.45,208.346,256.256,198.254,252.685,189.467z"/>
	</g>
</g>
<g>
	<g>
		<path d="M127.811,0c-23.879,0-43.239,19.358-43.239,43.239c0,23.88,19.359,43.237,43.239,43.237
			c23.88,0,43.239-19.358,43.239-43.239C171.049,19.357,151.691,0,127.811,0z M145.273,63.252c3.26,3.26,3.26,8.544,0,11.805
			c-3.26,3.259-8.544,3.259-11.804,0l-5.657-5.657l-5.657,5.657c-3.26,3.259-8.544,3.259-11.804,0c-3.26-3.26-3.26-8.544,0-11.805
			l5.656-5.656l-5.656-5.656c-3.26-3.26-3.26-8.544,0-11.805c3.259-3.259,8.544-3.259,11.804,0l5.657,5.657l5.657-5.657
			c3.259-3.259,8.544-3.259,11.804,0c3.26,3.26,3.26,8.544,0,11.805l-5.656,5.656L145.273,63.252z"/>
	</g>
</g>
<g>
	<g>
		<path d="M354,296.13c-8.483,0.001-17.029-2.54-24.443-7.784v198.62c0,13.826,11.208,25.035,25.035,25.035
			s25.035-11.208,25.035-25.035V287.53C372.164,293.182,363.126,296.13,354,296.13z"/>
	</g>
</g>
<g>
	<g>
		<path d="M415.502,296.131c-8.896,0-17.716-2.789-25.066-8.165v198.999c0,13.826,11.208,25.035,25.035,25.035
			s25.035-11.208,25.035-25.035V287.944C432.966,293.46,424.198,296.131,415.502,296.131z"/>
	</g>
</g>
<g>
	<g>
		<path d="M366.527,237.002l-8.654-6.472l-26.174,32.529l9.839,7.359c9.221,6.896,22.297,5.017,29.202-4.213
			C377.639,256.977,375.754,243.903,366.527,237.002z"/>
	</g>
</g>
<g>
	<g>
		<path d="M411.884,230.339l-8.909,6.662c-9.188,6.872-11.119,19.964-4.212,29.202c6.907,9.236,19.983,11.107,29.203,4.212
			l10.092-7.548L411.884,230.339z"/>
	</g>
</g>
<g>
	<g>
		<path d="M510.187,189.468c-4.085-10.049-24.225-59.603-28.491-70.099c-8.01-19.708-26.932-32.442-48.205-32.442h-5.062
			c-11.097,10.954-26.328,17.731-43.116,17.731c-16.116,0-31.539-6.302-43.116-17.731h-6.184c-21.274,0-40.196,12.734-48.206,32.442
			c-4.285,10.542-24.427,60.101-28.491,70.099c-3.571,8.788-0.765,18.881,6.832,24.562l48.247,36.085l26.174-32.528l-36.536-27.325
			c11.761-28.937,17.429-43.205,20.473-50.488c0.482-1.152,1.71-1.805,2.935-1.559c1.225,0.246,2.105,1.322,2.105,2.57v41.639
			c54.751,40.949,51.79,38.459,55.205,42.037c3.422-3.586,0.462-1.094,55.301-42.11v-41.333c0-1.249,0.881-2.325,2.107-2.57
			s2.454,0.407,2.935,1.561c3.055,7.331,8.726,21.589,20.376,50.252l-36.281,27.136l26.174,32.529l47.993-35.895
			C510.952,208.348,513.758,198.255,510.187,189.468z"/>
	</g>
</g>
<g>
	<g>
		<path d="M385.313,0c-23.879,0-43.239,19.358-43.239,43.239c0,23.88,19.359,43.237,43.239,43.237
			c23.88,0,43.237-19.358,43.237-43.239C428.55,19.357,409.193,0,385.313,0z M402.774,63.252c3.26,3.26,3.26,8.544,0,11.805
			c-3.26,3.259-8.544,3.259-11.804,0l-5.656-5.657l-5.657,5.657c-3.26,3.259-8.544,3.259-11.804,0c-3.26-3.26-3.26-8.544,0-11.805
			l5.656-5.656l-5.656-5.656c-3.26-3.26-3.26-8.544,0-11.805c3.26-3.259,8.544-3.259,11.804,0l5.657,5.657l5.656-5.657
			c3.259-3.259,8.544-3.259,11.804,0c3.26,3.26,3.26,8.544,0,11.805l-5.656,5.656L402.774,63.252z"/>
	</g>
</g>
<g>
</g>
<g>
</g>
<g>
</g>
<g>
</g>
<g>
</g>
<g>
</g>
<g>
</g>
<g>
</g>
<g>
</g>
<g>
</g>
<g>
</g>
<g>
</g>
<g>
</g>
<g>
</g>
<g>
</g>
</svg>
