<?xml version="1.0" encoding="iso-8859-1"?>
<!-- Generator: Adobe Illustrator 19.0.0, SVG Export Plug-In . SVG Version: 6.00 Build 0)  -->
<svg version="1.1" id="Layer_1" xmlns="http://www.w3.org/2000/svg" xmlns:xlink="http://www.w3.org/1999/xlink" x="0px" y="0px"
	 viewBox="0 0 512 512" style="enable-background:new 0 0 512 512;" xml:space="preserve">
<g>
	<g>
		<path d="M285.257,14.629H21.943C9.823,14.629,0,24.453,0,36.571v438.857c0,12.118,9.823,21.943,21.943,21.943h51.2v-21.943
			v-21.943v-21.952c0-12.118,9.825-21.943,21.943-21.943c12.117,0,21.943,9.825,21.943,21.943v21.952v21.943v21.943h47.66
			c-2.437-6.868-3.774-14.251-3.774-21.943v-21.943V270.598v-87.744v-43.883c0-36.298,29.531-65.829,65.829-65.829h36.571h21.943
			H307.2V36.571C307.2,24.453,297.375,14.629,285.257,14.629z"/>
	</g>
</g>
<g>
	<g>
		<path d="M504.686,292.573c-0.001-0.001-0.001-0.001-0.003-0.001l-146.027-0.013c-0.085,0.002-0.17,0.013-0.256,0.013
			c-0.089,0-0.171-0.012-0.259-0.013l-72.884-0.006l-80.457-0.007v160.941v21.943c0,12.118,9.823,21.943,21.943,21.943h58.514h51.2
			v-65.837c0-12.118,9.823-21.943,21.943-21.943c12.117,0,21.943,9.825,21.943,21.943v65.837h109.714
			c12.117,0,21.943-9.825,21.943-21.943V291.297C509.709,292.108,507.255,292.573,504.686,292.573z"/>
	</g>
</g>
<g>
	<g>
		<path d="M504.686,204.799H380.343v43.877l124.344,0.01c2.567,0.001,5.022,0.465,7.313,1.276v-46.438
			C509.709,204.333,507.255,204.799,504.686,204.799z"/>
	</g>
</g>
<g>
	<g>
		<path d="M490.057,117.029H380.343v43.883h124.343c2.569,0,5.023,0.464,7.314,1.276v-23.216
			C512,126.853,502.175,117.029,490.057,117.029z"/>
	</g>
</g>
<g>
	<g>
		<path d="M307.2,117.029h-21.943h-21.943h-36.571c-12.12,0-21.943,9.825-21.943,21.943v21.94h80.4h0.057h0.056h51.144v-43.883
			H307.2z"/>
	</g>
</g>
<g>
	<g>
		<polygon points="285.257,204.797 204.8,204.797 204.8,248.659 285.257,248.667 336.457,248.671 336.457,204.797 		"/>
	</g>
</g>
<g>
</g>
<g>
</g>
<g>
</g>
<g>
</g>
<g>
</g>
<g>
</g>
<g>
</g>
<g>
</g>
<g>
</g>
<g>
</g>
<g>
</g>
<g>
</g>
<g>
</g>
<g>
</g>
<g>
</g>
</svg>
