<?xml version="1.0" encoding="iso-8859-1"?>
<!-- Generator: Adobe Illustrator 19.0.0, SVG Export Plug-In . SVG Version: 6.00 Build 0)  -->
<svg version="1.1" id="Layer_1" xmlns="http://www.w3.org/2000/svg" xmlns:xlink="http://www.w3.org/1999/xlink" x="0px" y="0px"
	 viewBox="0 0 512 512" style="enable-background:new 0 0 512 512;" xml:space="preserve">
<g>
	<g>
		<path d="M488.727,294.782h-23.273H325.818h-23.273h-23.273v162.909c0,12.853,10.422,23.273,23.273,23.273h69.818v-23.273v-23.273
			v-23.282c0-12.853,10.422-23.273,23.273-23.273c12.854,0,23.273,10.42,23.273,23.273v23.282v23.273v23.273h69.818
			c12.854,0,23.273-10.42,23.273-23.273V294.782H488.727z"/>
	</g>
</g>
<g>
	<g>
		<path d="M209.455,263.747l-23.273-0.003l-69.519-0.008c-0.099,0.002-0.199,0.016-0.299,0.016c-0.099,0-0.199-0.014-0.299-0.016
			l-69.519-0.008l-23.273-0.003L0,263.723v193.967c0,12.853,10.422,23.273,23.273,23.273h69.818v-23.273v-23.273v-23.282
			c0-12.853,10.422-23.273,23.273-23.273c12.854,0,23.273,10.42,23.273,23.273v23.282v23.273v23.273h69.818
			c12.854,0,23.273-10.42,23.273-23.273V271.509v-7.761L209.455,263.747z"/>
	</g>
</g>
<g>
	<g>
		<path d="M209.455,77.57h-69.818v23.273v23.27h69.818h23.273v-23.27C232.727,87.99,222.309,77.57,209.455,77.57z"/>
	</g>
</g>
<g>
	<g>
		<polygon points="46.545,170.657 23.273,170.657 0,170.657 0,217.18 23.273,217.18 46.545,217.183 93.091,217.187 93.091,170.657 
					"/>
	</g>
</g>
<g>
	<g>
		<polygon points="209.455,170.657 186.182,170.657 139.636,170.657 139.636,217.194 186.182,217.198 209.455,217.201 
			232.727,217.203 232.727,170.657 		"/>
	</g>
</g>
<g>
	<g>
		<path d="M23.273,77.57C10.422,77.57,0,87.99,0,100.842v23.27h23.273h69.818v-23.27V77.57H23.273z"/>
	</g>
</g>
<g>
	<g>
		<path d="M488.727,77.57h-69.818v-23.26c0-12.853-10.418-23.273-23.273-23.273c-12.851,0-23.273,10.42-23.273,23.273v23.26h-69.818
			c-12.851,0-23.273,10.42-23.273,23.273v46.542v93.097v7.754h23.273h23.273h139.636h23.273H512V100.842
			C512,87.99,501.582,77.57,488.727,77.57z"/>
	</g>
</g>
<g>
</g>
<g>
</g>
<g>
</g>
<g>
</g>
<g>
</g>
<g>
</g>
<g>
</g>
<g>
</g>
<g>
</g>
<g>
</g>
<g>
</g>
<g>
</g>
<g>
</g>
<g>
</g>
<g>
</g>
</svg>
