<?xml version="1.0" encoding="iso-8859-1"?>
<!-- Generator: Adobe Illustrator 19.0.0, SVG Export Plug-In . SVG Version: 6.00 Build 0)  -->
<svg version="1.1" id="Layer_1" xmlns="http://www.w3.org/2000/svg" xmlns:xlink="http://www.w3.org/1999/xlink" x="0px" y="0px"
	 viewBox="0 0 512 512" style="enable-background:new 0 0 512 512;" xml:space="preserve">
<g>
	<g>
		<path d="M442.182,0H69.818C56.965,0,46.545,10.42,46.545,23.273v93.091v93.091v93.091v93.091v93.091
			c0,12.853,10.42,23.273,23.273,23.273h93.094H256h93.091h93.091c12.854,0,23.273-10.42,23.273-23.273V302.545v-93.091v-93.091
			V23.273C465.455,10.42,455.036,0,442.182,0z M139.639,465.455H93.091v-46.545h46.549V465.455z M139.639,372.364H93.091v-46.545
			h46.549V372.364z M139.639,279.273H93.091v-46.545h46.549V279.273z M139.639,186.182H93.091v-46.545h46.549V186.182z
			 M232.727,465.455h-46.542v-46.545h46.542V465.455z M232.727,372.364h-46.542v-46.545h46.542V372.364z M232.727,279.273h-46.542
			v-46.545h46.542V279.273z M232.727,186.182h-46.542v-46.545h46.542V186.182z M325.818,465.455h-46.545v-46.545h46.545V465.455z
			 M325.818,372.364h-46.545v-46.545h46.545V372.364z M325.818,279.273h-46.545v-46.545h46.545V279.273z M325.818,186.182h-46.545
			v-46.545h46.545V186.182z M418.909,465.455h-46.545v-69.818v-69.818h46.545V465.455z M418.909,279.273h-46.545v-46.545h46.545
			V279.273z M418.909,186.182h-46.545v-46.545h46.545V186.182z M418.909,93.091h-69.818H256h-93.088H93.091V46.545h325.818V93.091z"
			/>
	</g>
</g>
<g>
</g>
<g>
</g>
<g>
</g>
<g>
</g>
<g>
</g>
<g>
</g>
<g>
</g>
<g>
</g>
<g>
</g>
<g>
</g>
<g>
</g>
<g>
</g>
<g>
</g>
<g>
</g>
<g>
</g>
</svg>
