<?xml version="1.0" encoding="iso-8859-1"?>
<!-- Generator: Adobe Illustrator 19.0.0, SVG Export Plug-In . SVG Version: 6.00 Build 0)  -->
<svg version="1.1" id="Layer_1" xmlns="http://www.w3.org/2000/svg" xmlns:xlink="http://www.w3.org/1999/xlink" x="0px" y="0px"
	 viewBox="0 0 512 512" style="enable-background:new 0 0 512 512;" xml:space="preserve">
<g>
	<g>
		<path d="M332.607,414.342l-30.475-21.333l-20.319-14.222H163.556c-35.29,0-64-28.71-64-64V184.889v-21.333v-21.333h-64
			c-11.782,0-21.333,9.552-21.333,21.333v250.786c0,11.782,9.552,21.333,21.333,21.333h29.867v54.992
			c0,7.954,4.424,15.249,11.48,18.923c3.1,1.614,6.481,2.411,9.85,2.411c4.301,0,8.583-1.298,12.237-3.857l103.528-72.468h131.705
			c6.898,0,13.01-3.288,16.912-8.364L332.607,414.342z"/>
	</g>
</g>
<g>
	<g>
		<path d="M476.444,0H163.556c-11.783,0-21.333,9.552-21.333,21.333v120.889v21.333v21.333v129.897
			c0,11.782,9.55,21.333,21.333,21.333H295.26l17.628,12.339l21.333,14.933l21.333,14.933l43.233,30.262
			c3.652,2.559,7.933,3.857,12.237,3.857c3.366,0,6.75-0.796,9.85-2.411c7.056-3.674,11.48-10.968,11.48-18.923v-54.992h44.089
			c11.78,0,21.333-9.552,21.333-21.333V21.333C497.778,9.552,488.225,0,476.444,0z M408.991,164.571
			c-2.661,4.092-6.497,6.943-10.769,8.451v61.648c0,11.782-9.553,21.333-21.333,21.333H263.108c-5.127,0-9.833-1.813-13.511-4.828
			c-1.169-0.959-2.224-2.044-3.167-3.224c-2.908-3.647-4.655-8.257-4.655-13.282v-61.645c-4.272-1.509-8.105-4.363-10.766-8.454
			c-6.428-9.874-3.631-23.09,6.245-29.517l13.905-9.048c0.023-0.014,0.047-0.028,0.07-0.043l57.136-37.178
			c7.076-4.602,16.198-4.602,23.269,0l71.111,46.269C412.622,141.481,415.417,154.697,408.991,164.571z"/>
	</g>
</g>
<g>
</g>
<g>
</g>
<g>
</g>
<g>
</g>
<g>
</g>
<g>
</g>
<g>
</g>
<g>
</g>
<g>
</g>
<g>
</g>
<g>
</g>
<g>
</g>
<g>
</g>
<g>
</g>
<g>
</g>
</svg>
