<?xml version="1.0" encoding="iso-8859-1"?>
<!-- Generator: Adobe Illustrator 19.0.0, SVG Export Plug-In . SVG Version: 6.00 Build 0)  -->
<svg version="1.1" id="Layer_1" xmlns="http://www.w3.org/2000/svg" xmlns:xlink="http://www.w3.org/1999/xlink" x="0px" y="0px"
	 viewBox="0 0 512 512" style="enable-background:new 0 0 512 512;" xml:space="preserve">
<g>
	<g>
		<path d="M505.562,211.215c-4.116-4.115-9.695-6.426-15.516-6.426l-468.092,0.026c-12.118,0.001-21.942,9.824-21.942,21.942
			v263.301C0.012,502.176,9.838,512,21.954,512h468.092c12.119,0,21.942-9.824,21.942-21.942V226.731
			C511.988,220.911,509.676,215.33,505.562,211.215z M314.512,424.211H109.723c-12.116,0-21.942-9.824-21.942-21.942
			s9.826-21.942,21.942-21.942h204.789c12.119,0,21.942,9.824,21.942,21.942S326.631,424.211,314.512,424.211z M402.279,336.466
			H109.723c-12.116,0-21.942-9.824-21.942-21.942c0-12.118,9.826-21.942,21.942-21.942H402.28c12.119,0,21.942,9.824,21.942,21.942
			C424.221,326.642,414.398,336.466,402.279,336.466z"/>
	</g>
</g>
<g>
	<g>
		<path d="M465.565,32.177c1.616-3.057,2.539-6.537,2.539-10.235C468.104,9.824,458.282,0,446.162,0H329.14
			c-12.116,0-21.942,9.824-21.942,21.942c0,2.569,0.465,5.023,1.274,7.314h-30.53v21.942v21.942v43.883v21.942v21.942h168.22
			c36.296,0,65.825-29.529,65.825-65.825C511.988,65.536,492.42,40.477,465.565,32.177z"/>
	</g>
</g>
<g>
	<g>
		<path d="M65.839,29.256c-5.818,0-11.399,2.311-15.513,6.427L6.443,79.567c-8.569,8.568-8.569,22.461,0,31.03l43.882,43.882
			c4.115,4.116,9.695,6.427,15.514,6.427h168.22v-21.942v-21.942V73.139V51.197V29.256H65.839z"/>
	</g>
</g>
<g>
</g>
<g>
</g>
<g>
</g>
<g>
</g>
<g>
</g>
<g>
</g>
<g>
</g>
<g>
</g>
<g>
</g>
<g>
</g>
<g>
</g>
<g>
</g>
<g>
</g>
<g>
</g>
<g>
</g>
</svg>
