<?xml version="1.0" encoding="iso-8859-1"?>
<!-- Generator: Adobe Illustrator 19.0.0, SVG Export Plug-In . SVG Version: 6.00 Build 0)  -->
<svg version="1.1" id="Layer_1" xmlns="http://www.w3.org/2000/svg" xmlns:xlink="http://www.w3.org/1999/xlink" x="0px" y="0px"
	 viewBox="0 0 512 512" style="enable-background:new 0 0 512 512;" xml:space="preserve">
<g>
	<g>
		<path d="M426.669,341.325H357.79l-69.827-162.93c22.46-11.618,37.856-35.058,37.856-62.041c0-30.34-19.458-56.209-46.546-65.816
			V23.273C279.273,10.42,268.855,0,256,0c-12.851,0-23.273,10.42-23.273,23.273v27.265c-27.087,9.607-46.546,35.476-46.546,65.816
			c0,26.984,15.397,50.423,37.857,62.041l-69.825,162.93H85.331c-12.851,0-23.273,10.42-23.273,23.273s10.422,23.273,23.273,23.273
			h48.932l-39.293,91.682c-5.063,11.813,0.411,25.496,12.225,30.559c2.99,1.282,6.098,1.888,9.156,1.888
			c9.028,0,17.619-5.286,21.402-14.113l47.153-110.016h49.174c3.198,9.033,11.793,15.515,21.92,15.515
			c10.13,0,18.722-6.482,21.922-15.515h49.176l47.15,110.016C378.031,506.714,386.621,512,395.65,512
			c3.058,0,6.167-0.607,9.156-1.888c11.813-5.064,17.287-18.746,12.223-30.559l-39.291-91.682h48.931
			c12.854,0,23.273-10.42,23.273-23.273C449.942,351.745,439.523,341.325,426.669,341.325z M277.922,341.325
			c-3.198-9.033-11.792-15.515-21.922-15.515c-10.127,0-18.721,6.482-21.92,15.515h-29.226L256,221.981l51.149,119.344H277.922z"/>
	</g>
</g>
<g>
</g>
<g>
</g>
<g>
</g>
<g>
</g>
<g>
</g>
<g>
</g>
<g>
</g>
<g>
</g>
<g>
</g>
<g>
</g>
<g>
</g>
<g>
</g>
<g>
</g>
<g>
</g>
<g>
</g>
</svg>
