<?xml version="1.0" encoding="iso-8859-1"?>
<!-- Generator: Adobe Illustrator 19.0.0, SVG Export Plug-In . SVG Version: 6.00 Build 0)  -->
<svg version="1.1" id="Layer_1" xmlns="http://www.w3.org/2000/svg" xmlns:xlink="http://www.w3.org/1999/xlink" x="0px" y="0px"
	 viewBox="0 0 512.001 512.001" style="enable-background:new 0 0 512.001 512.001;" xml:space="preserve">
<g>
	<g>
		<path d="M488.726,279.273c-12.853,0-23.273,10.422-23.273,23.273c0,12.833-10.442,23.273-23.273,23.273
			c-12.833,0-23.273-10.44-23.273-23.273c0-12.831,10.44-23.273,23.273-23.273c12.853,0,23.273-10.418,23.273-23.273V139.637h23.273
			c11.252,0,20.893-8.049,22.899-19.119c2.009-11.073-4.191-21.994-14.727-25.944L248.656,1.483
			c-2.613-0.979-5.381-1.482-8.172-1.482h-54.303v139.636h-46.545V0.001H85.333c-7.782,0-15.047,3.89-19.363,10.364L3.91,103.456
			C1.359,107.277,0,111.77,0,116.364V224.97c0,12.854,10.42,23.273,23.273,23.273s23.273-10.418,23.273-23.273v-85.333h46.545
			v325.817h-7.758c-12.853,0-23.273,10.418-23.273,23.273C62.06,501.578,72.48,512,85.333,512h31.03h93.091h31.03
			c12.853,0,23.273-10.422,23.273-23.273c0-12.854-10.42-23.273-23.273-23.273h-7.758V139.637h186.181v97.095
			c-27.086,9.607-46.545,35.474-46.545,65.814c0,38.499,31.319,69.818,69.818,69.818c38.498,0,69.818-31.319,69.818-69.818
			C511.998,289.693,501.578,279.273,488.726,279.273z"/>
	</g>
</g>
<g>
</g>
<g>
</g>
<g>
</g>
<g>
</g>
<g>
</g>
<g>
</g>
<g>
</g>
<g>
</g>
<g>
</g>
<g>
</g>
<g>
</g>
<g>
</g>
<g>
</g>
<g>
</g>
<g>
</g>
</svg>
