<?xml version="1.0" encoding="iso-8859-1"?>
<!-- Generator: Adobe Illustrator 19.0.0, SVG Export Plug-In . SVG Version: 6.00 Build 0)  -->
<svg version="1.1" id="Layer_1" xmlns="http://www.w3.org/2000/svg" xmlns:xlink="http://www.w3.org/1999/xlink" x="0px" y="0px"
	 viewBox="0 0 512 512" style="enable-background:new 0 0 512 512;" xml:space="preserve">
<g>
	<g>
		<path d="M491.243,290.594c11.465,0,20.757-9.294,20.757-20.757s-9.292-20.757-20.757-20.757h-6.919v-41.514h6.919
			c11.465,0,20.757-9.294,20.757-20.757s-9.292-20.757-20.757-20.757h-6.919v-48.432c0-5.506-2.186-10.784-6.079-14.676
			l-41.513-41.513c-8.105-8.106-21.248-8.106-29.354,0l-41.513,41.513c-3.893,3.893-6.08,9.172-6.08,14.676v48.432H318.27v-48.432
			c0-5.506-2.186-10.784-6.079-14.676l-41.513-41.513c-8.105-8.106-21.248-8.106-29.354,0l-41.514,41.513
			c-3.893,3.893-6.08,9.172-6.08,14.676v48.432h-41.513v-48.432c0-5.506-2.186-10.784-6.079-14.676l-41.514-41.513
			c-8.106-8.106-21.248-8.106-29.356,0l-41.513,41.513c-3.891,3.893-6.079,9.172-6.079,14.676v48.432h-6.919
			C9.295,166.054,0,175.347,0,186.81s9.295,20.757,20.757,20.757h6.919v41.514h-6.919C9.295,249.081,0,258.374,0,269.837
			s9.295,20.757,20.757,20.757h6.919v41.513h-6.919C9.295,332.108,0,341.401,0,352.865s9.295,20.757,20.757,20.757h6.919v62.27
			c0,11.463,9.295,20.757,20.757,20.757h83.027c11.465,0,20.757-9.294,20.757-20.757v-62.27h41.513v62.27
			c0,11.463,9.295,20.757,20.757,20.757h83.027c11.465,0,20.757-9.294,20.757-20.757v-62.27h41.514v62.27
			c0,11.463,9.295,20.757,20.757,20.757h83.027c11.465,0,20.757-9.294,20.757-20.757v-62.27h6.919
			c11.465,0,20.757-9.294,20.757-20.757s-9.292-20.757-20.757-20.757h-6.919v-41.513H491.243z M193.73,332.108h-41.513v-41.513
			h41.513V332.108z M193.73,249.081h-41.513v-41.514h41.513V249.081z M359.784,332.108H318.27v-41.513h41.514V332.108z
			 M359.784,249.081H318.27v-41.514h41.514V249.081z"/>
	</g>
</g>
<g>
</g>
<g>
</g>
<g>
</g>
<g>
</g>
<g>
</g>
<g>
</g>
<g>
</g>
<g>
</g>
<g>
</g>
<g>
</g>
<g>
</g>
<g>
</g>
<g>
</g>
<g>
</g>
<g>
</g>
</svg>
