<?xml version="1.0" encoding="iso-8859-1"?>
<!-- Generator: Adobe Illustrator 19.0.0, SVG Export Plug-In . SVG Version: 6.00 Build 0)  -->
<svg version="1.1" id="Layer_1" xmlns="http://www.w3.org/2000/svg" xmlns:xlink="http://www.w3.org/1999/xlink" x="0px" y="0px"
	 viewBox="0 0 512.002 512.002" style="enable-background:new 0 0 512.002 512.002;" xml:space="preserve">
<g>
	<g>
		<path d="M505.118,228.321l-38.751-38.751l-16.609,16.609l-16.607,16.606l-77.505,77.503l-16.609,16.607l-16.605,16.607
			l38.751,38.752c4.405,4.405,10.38,6.879,16.609,6.879c6.227,0,12.202-2.474,16.605-6.879l110.72-110.72
			C514.291,252.364,514.291,237.494,505.118,228.321z"/>
	</g>
</g>
<g>
	<g>
		<path d="M438.685,117.601l-44.284-44.289c-9.171-9.171-24.043-9.173-33.216-0.002c-1.945,1.945-3.453,4.156-4.572,6.503
			L283.677,6.879C279.274,2.476,273.299,0,267.072,0c-6.23,0-12.206,2.476-16.609,6.88L139.746,117.599
			c-9.171,9.173-9.171,24.043,0,33.216l71.966,71.968L6.883,427.617c-9.173,9.171-9.173,24.043-0.002,33.216l44.286,44.289
			c4.405,4.405,10.378,6.88,16.607,6.88c6.23,0,12.204-2.476,16.609-6.88l188.222-188.225l16.609-16.607l16.606-16.609h0.003
			l16.605-16.607l77.508-77.505l16.605-16.607l16.609-16.607l-0.966-0.966c2.349-1.121,4.557-2.627,6.501-4.571
			C447.856,141.645,447.856,126.775,438.685,117.601z"/>
	</g>
</g>
<g>
</g>
<g>
</g>
<g>
</g>
<g>
</g>
<g>
</g>
<g>
</g>
<g>
</g>
<g>
</g>
<g>
</g>
<g>
</g>
<g>
</g>
<g>
</g>
<g>
</g>
<g>
</g>
<g>
</g>
</svg>
