<?xml version="1.0" encoding="iso-8859-1"?>
<!-- Generator: Adobe Illustrator 19.0.0, SVG Export Plug-In . SVG Version: 6.00 Build 0)  -->
<svg version="1.1" id="Layer_1" xmlns="http://www.w3.org/2000/svg" xmlns:xlink="http://www.w3.org/1999/xlink" x="0px" y="0px"
	 viewBox="0 0 512 512" style="enable-background:new 0 0 512 512;" xml:space="preserve">
<g>
	<g>
		<path d="M36.308,269.838h108.99v-137.36C92.844,161.683,53.022,210.945,36.308,269.838z"/>
	</g>
</g>
<g>
	<g>
		<path d="M366.703,132.478v137.36h108.99C458.976,210.945,419.156,161.683,366.703,132.478z"/>
	</g>
</g>
<g>
	<g>
		<path d="M304.432,62.27h-96.865c-11.465,0-20.757,9.294-20.757,20.757v31.484v155.327h138.378V114.511V83.027
			C325.189,71.564,315.894,62.27,304.432,62.27z"/>
	</g>
</g>
<g>
	<g>
		<path d="M491.243,311.351h-7.874H366.703h-20.757h-20.757H186.811h-20.757h-20.757H28.63h-7.874
			C9.294,311.351,0,320.645,0,332.108v96.865c0,11.463,9.294,20.757,20.757,20.757h470.486c11.462,0,20.757-9.294,20.757-20.757
			v-96.865C512,320.645,502.705,311.351,491.243,311.351z"/>
	</g>
</g>
<g>
</g>
<g>
</g>
<g>
</g>
<g>
</g>
<g>
</g>
<g>
</g>
<g>
</g>
<g>
</g>
<g>
</g>
<g>
</g>
<g>
</g>
<g>
</g>
<g>
</g>
<g>
</g>
<g>
</g>
</svg>
