<?xml version="1.0" encoding="iso-8859-1"?>
<!-- Generator: Adobe Illustrator 19.0.0, SVG Export Plug-In . SVG Version: 6.00 Build 0)  -->
<svg version="1.1" id="Layer_1" xmlns="http://www.w3.org/2000/svg" xmlns:xlink="http://www.w3.org/1999/xlink" x="0px" y="0px"
	 viewBox="0 0 512 512" style="enable-background:new 0 0 512 512;" xml:space="preserve">
<g>
	<g>
		<path d="M246.36,315.789c-4.397-4.399-10.24-6.819-16.455-6.819c-6.218,0-12.061,2.422-16.457,6.816
			c-9.075,9.075-9.075,23.839,0,32.914c4.395,4.395,10.24,6.816,16.457,6.816s12.06-2.42,16.454-6.816
			c4.397-4.395,6.819-10.24,6.819-16.457C253.177,326.027,250.755,320.182,246.36,315.789z"/>
	</g>
</g>
<g>
	<g>
		<path d="M488.726,442.178h-23.273V210.589l10.578,6.884c3.921,2.549,8.321,3.769,12.671,3.769c7.61,0,15.07-3.73,19.529-10.583
			c7.01-10.774,3.959-25.19-6.816-32.2L268.69,27.04c-7.716-5.021-17.665-5.021-25.384,0L10.583,178.459
			c-10.774,7.01-13.824,21.426-6.814,32.2s21.426,13.827,32.2,6.814l10.58-6.884V442.18H23.276
			c-12.853,0-23.273,10.42-23.273,23.273c0,12.853,10.42,23.273,23.273,23.273h46.545h372.36h46.545
			c12.851,0,23.273-10.42,23.273-23.273C511.998,452.598,501.577,442.178,488.726,442.178z M345.097,249.961l-52.169,52.169
			c4.442,9.283,6.794,19.515,6.794,30.112c0,18.649-7.264,36.183-20.452,49.37c-13.185,13.186-30.717,20.447-49.366,20.447
			s-36.181-7.263-49.369-20.449c-27.221-27.223-27.221-71.515,0-98.736c13.186-13.186,30.718-20.45,49.369-20.45
			c10.595,0,20.827,2.351,30.11,6.794l35.714-35.714l-5.485-5.485c-9.087-9.087-9.089-23.823,0-32.912
			c9.087-9.089,23.822-9.09,32.912-0.002l21.943,21.941c4.366,4.364,6.819,10.283,6.819,16.455
			C351.915,239.677,349.463,245.597,345.097,249.961z"/>
	</g>
</g>
<g>
</g>
<g>
</g>
<g>
</g>
<g>
</g>
<g>
</g>
<g>
</g>
<g>
</g>
<g>
</g>
<g>
</g>
<g>
</g>
<g>
</g>
<g>
</g>
<g>
</g>
<g>
</g>
<g>
</g>
</svg>
