<?xml version="1.0" encoding="iso-8859-1"?>
<!-- Generator: Adobe Illustrator 19.0.0, SVG Export Plug-In . SVG Version: 6.00 Build 0)  -->
<svg version="1.1" id="Layer_1" xmlns="http://www.w3.org/2000/svg" xmlns:xlink="http://www.w3.org/1999/xlink" x="0px" y="0px"
	 viewBox="0 0 512 512" style="enable-background:new 0 0 512 512;" xml:space="preserve">
<g>
	<g>
		<path d="M488.723,442.179h-23.272v-231.59l10.581,6.886c3.918,2.551,8.318,3.769,12.669,3.769c7.609,0,15.07-3.728,19.53-10.583
			c7.01-10.772,3.958-25.189-6.816-32.198l-46.532-30.277c-0.006-0.003-0.009-0.006-0.012-0.009L268.692,27.041
			c-7.719-5.021-17.67-5.021-25.384,0L57.128,148.176c-0.006,0.003-0.009,0.006-0.014,0.009l-46.531,30.276
			c-10.774,7.01-13.824,21.426-6.816,32.198c7.011,10.774,21.426,13.825,32.2,6.816l10.578-6.886v231.59H23.273
			C10.422,442.179,0,452.599,0,465.452c0,12.854,10.421,23.272,23.272,23.272h46.545h372.359h46.545
			c12.854,0,23.272-10.418,23.272-23.272C511.996,452.598,501.577,442.179,488.723,442.179z M271.419,382.74
			c-4.402,3.893-9.909,5.84-15.419,5.84c-5.506,0-11.016-1.946-15.417-5.84c-3.362-2.973-6.701-5.903-9.998-8.795
			c-40.179-35.248-74.878-65.689-74.878-106.555c0-36.795,28.824-65.617,65.617-65.617c12.154,0,24.197,3.401,34.676,9.531
			c10.476-6.127,22.517-9.531,34.67-9.531c36.797,0,65.617,28.822,65.617,65.617C356.289,307.68,315.064,344.14,271.419,382.74z"/>
	</g>
</g>
<g>
</g>
<g>
</g>
<g>
</g>
<g>
</g>
<g>
</g>
<g>
</g>
<g>
</g>
<g>
</g>
<g>
</g>
<g>
</g>
<g>
</g>
<g>
</g>
<g>
</g>
<g>
</g>
<g>
</g>
</svg>
