<?xml version="1.0" encoding="iso-8859-1"?>
<!-- Generator: Adobe Illustrator 19.0.0, SVG Export Plug-In . SVG Version: 6.00 Build 0)  -->
<svg version="1.1" id="Layer_1" xmlns="http://www.w3.org/2000/svg" xmlns:xlink="http://www.w3.org/1999/xlink" x="0px" y="0px"
	 viewBox="0 0 512 512" style="enable-background:new 0 0 512 512;" xml:space="preserve">
<g>
	<g>
		<path d="M488.723,442.18h-23.272V210.591l10.581,6.882c3.918,2.551,8.318,3.769,12.669,3.769c7.609,0,15.07-3.728,19.53-10.583
			c7.01-10.774,3.958-25.189-6.816-32.2L268.692,27.04c-7.719-5.019-17.67-5.019-25.384,0L10.583,178.459
			c-10.774,7.011-13.824,21.425-6.816,32.2c7.011,10.774,21.426,13.825,32.2,6.814l10.578-6.882V442.18H23.273
			C10.422,442.18,0,452.6,0,465.452s10.421,23.272,23.272,23.272h46.545h186.18h186.18h46.545c12.854,0,23.272-10.42,23.272-23.272
			C511.996,452.598,501.577,442.18,488.723,442.18z M279.271,383.257v58.921h-23.272h-23.272v-58.921
			c-16.179-14.517-46.545-47.249-46.545-88.471c0-52.987,50.178-91.957,55.9-96.227c8.255-6.159,19.578-6.159,27.834,0
			c5.722,4.27,55.899,43.24,55.899,96.227C325.816,336.008,295.452,368.741,279.271,383.257z"/>
	</g>
</g>
<g>
</g>
<g>
</g>
<g>
</g>
<g>
</g>
<g>
</g>
<g>
</g>
<g>
</g>
<g>
</g>
<g>
</g>
<g>
</g>
<g>
</g>
<g>
</g>
<g>
</g>
<g>
</g>
<g>
</g>
</svg>
