<?xml version="1.0" encoding="iso-8859-1"?>
<!-- Generator: Adobe Illustrator 19.0.0, SVG Export Plug-In . SVG Version: 6.00 Build 0)  -->
<svg version="1.1" id="Layer_1" xmlns="http://www.w3.org/2000/svg" xmlns:xlink="http://www.w3.org/1999/xlink" x="0px" y="0px"
	 viewBox="0 0 512 512" style="enable-background:new 0 0 512 512;" xml:space="preserve">
<g>
	<g>
		<path d="M466.824,60.235h-67.765V22.588C399.059,10.114,388.947,0,376.471,0H45.176C32.703,0,22.588,10.114,22.588,22.588v120.471
			c0,12.475,10.115,22.588,22.588,22.588h331.294c12.476,0,22.588-10.113,22.588-22.588v-37.647h45.176v92.854l-236.05,27.77
			c-11.377,1.339-19.95,10.981-19.95,22.435v67.765h-22.588c-12.473,0-22.588,10.114-22.588,22.588v150.588
			c0,12.475,10.115,22.588,22.588,22.588H256c12.478,0,22.588-10.114,22.588-22.588V338.824c0-12.475-10.112-22.588-22.588-22.588
			h-22.588v-47.678l236.052-27.77c11.375-1.339,19.948-10.981,19.948-22.435V82.824C489.412,70.349,479.3,60.235,466.824,60.235z"/>
	</g>
</g>
<g>
</g>
<g>
</g>
<g>
</g>
<g>
</g>
<g>
</g>
<g>
</g>
<g>
</g>
<g>
</g>
<g>
</g>
<g>
</g>
<g>
</g>
<g>
</g>
<g>
</g>
<g>
</g>
<g>
</g>
</svg>
