<?xml version="1.0" encoding="iso-8859-1"?>
<!-- Generator: Adobe Illustrator 19.0.0, SVG Export Plug-In . SVG Version: 6.00 Build 0)  -->
<svg version="1.1" id="Layer_1" xmlns="http://www.w3.org/2000/svg" xmlns:xlink="http://www.w3.org/1999/xlink" x="0px" y="0px"
	 viewBox="0 0 512 512" style="enable-background:new 0 0 512 512;" xml:space="preserve">
<g>
	<g>
		<path d="M511.306,478.535l-60.831-241.023c-1.42-5.634-4.874-10.325-9.455-13.383c-18.979,69.101-63.087,122.743-101.584,158.606
			c-24.302,22.638-43.844,35.603-45.986,37.002c-11.163,7.297-24.111,11.154-37.446,11.154c-13.334,0-26.281-3.857-37.443-11.152
			c-4.266-2.788-42.748-28.507-80.106-72.493c-22.058-25.97-39.693-53.483-52.42-81.777c-6.133-13.634-11.125-27.453-14.971-41.4
			c-4.622,3.057-8.109,7.774-9.538,13.444L0.694,478.535c-1.722,6.819-0.201,14.052,4.121,19.601
			c4.324,5.549,10.963,8.793,17.997,8.793h466.376c7.034,0,13.672-3.244,17.997-8.793
			C511.508,492.587,513.029,485.356,511.306,478.535z"/>
	</g>
</g>
<g>
	<g>
		<path d="M256.004,5.071c-82.098,0-148.891,66.802-148.891,148.912c0,23.644,3.908,45.8,10.402,66.3
			c31.077,98.135,121.401,158.255,126.008,161.267c3.79,2.477,8.136,3.717,12.481,3.717c4.345,0,8.691-1.239,12.481-3.718
			c0.725-0.473,17.985-11.826,39.855-32.198c32.111-29.915,68.7-73.754,86.18-129.068c6.498-20.559,10.378-42.691,10.378-66.3
			C404.898,71.873,338.105,5.071,256.004,5.071z M272.138,170.097c-4.241,4.243-10.128,6.676-16.134,6.676
			c-6.009,0-11.893-2.433-16.137-6.676c-4.241-4.243-6.675-10.128-6.675-16.135c0-6.007,2.433-11.877,6.675-16.136
			c4.245-4.243,10.128-6.676,16.137-6.676c6.006,0,11.893,2.433,16.134,6.676c4.242,4.258,6.678,10.128,6.678,16.136
			C278.815,159.969,276.379,165.854,272.138,170.097z"/>
	</g>
</g>
<g>
</g>
<g>
</g>
<g>
</g>
<g>
</g>
<g>
</g>
<g>
</g>
<g>
</g>
<g>
</g>
<g>
</g>
<g>
</g>
<g>
</g>
<g>
</g>
<g>
</g>
<g>
</g>
<g>
</g>
</svg>
