<?xml version="1.0" encoding="iso-8859-1"?>
<!-- Generator: Adobe Illustrator 19.0.0, SVG Export Plug-In . SVG Version: 6.00 Build 0)  -->
<svg version="1.1" id="Layer_1" xmlns="http://www.w3.org/2000/svg" xmlns:xlink="http://www.w3.org/1999/xlink" x="0px" y="0px"
	 viewBox="0 0 511.999 511.999" style="enable-background:new 0 0 511.999 511.999;" xml:space="preserve">
<g>
	<g>
		<path d="M491.879,77.925L420.634,6.679c-8.905-8.905-23.346-8.907-32.253,0L155.87,239.192l-5.375-5.376
			c-8.907-8.907-23.346-8.907-32.254,0l-98.124,98.124c-8.905,8.907-8.905,23.346,0,32.253l141.127,141.127
			c4.453,4.453,10.292,6.679,16.126,6.679c5.838,0,11.674-2.226,16.127-6.679l98.124-98.124c8.905-8.907,8.905-23.346,0-32.253
			l-5.376-5.376l44.367-44.367c4.277-4.277,6.681-10.077,6.681-16.127v-30.95h30.95c12.594,0,22.806-10.211,22.806-22.806v-30.948
			h30.948c12.594,0,22.806-10.211,22.806-22.806v-30.948h30.948c0.002,0,0.002,0,0.002,0c6.048,0,11.849-2.402,16.124-6.679
			c4.278-4.277,6.682-10.079,6.682-16.127V94.052C498.56,88.002,496.156,82.202,491.879,77.925z M177.37,456.941L68.497,348.066
			l65.871-65.871L243.241,391.07L177.37,456.941z"/>
	</g>
</g>
<g>
</g>
<g>
</g>
<g>
</g>
<g>
</g>
<g>
</g>
<g>
</g>
<g>
</g>
<g>
</g>
<g>
</g>
<g>
</g>
<g>
</g>
<g>
</g>
<g>
</g>
<g>
</g>
<g>
</g>
</svg>
