<?xml version="1.0" encoding="iso-8859-1"?>
<!-- Generator: Adobe Illustrator 19.0.0, SVG Export Plug-In . SVG Version: 6.00 Build 0)  -->
<svg version="1.1" id="Layer_1" xmlns="http://www.w3.org/2000/svg" xmlns:xlink="http://www.w3.org/1999/xlink" x="0px" y="0px"
	 viewBox="0 0 512 512" style="enable-background:new 0 0 512 512;" xml:space="preserve">
<g>
	<g>
		<path d="M504.982,97.337L414.664,7.016C410.174,2.524,404.08,0,397.728,0c-6.353,0-12.444,2.524-16.934,7.016l-67.743,67.743
			c-4.491,4.491-7.016,10.583-7.016,16.934c0,6.353,2.524,12.444,7.016,16.936l28.226,28.224l-112.902,112.9l16.936,16.934
			l16.933,16.936l-16.933,16.934l-16.936,16.934l-33.87,33.87l-11.29,11.29c-9.352,9.352-24.515,9.352-33.87-0.002
			c-9.352-9.353-9.353-24.515,0-33.872l45.16-45.158l16.934-16.934l16.934-16.934l-67.74-67.74
			c-4.491-4.491-10.583-7.016-16.934-7.016c-6.352,0-12.444,2.524-16.934,7.016l-84.674,84.674
			c-27.142,27.142-42.09,63.228-42.09,101.613c0,38.382,14.946,74.47,42.088,101.612C69.229,497.052,105.317,512,143.701,512
			c38.381,0,74.471-14.948,101.61-42.088l84.676-84.676c9.353-9.353,9.353-24.517,0-33.87l-67.742-67.743l112.902-112.9
			l28.227,28.224c4.677,4.677,10.806,7.016,16.934,7.016c6.128,0,12.259-2.338,16.936-7.016l67.74-67.74
			C514.337,121.854,514.337,106.691,504.982,97.337z M420.308,148.141l-28.219-28.218c-0.002-0.002-0.003-0.005-0.006-0.008
			c-0.003-0.002-0.006-0.005-0.01-0.006l-28.216-28.216l33.872-33.873l56.448,56.452L420.308,148.141z"/>
	</g>
</g>
<g>
</g>
<g>
</g>
<g>
</g>
<g>
</g>
<g>
</g>
<g>
</g>
<g>
</g>
<g>
</g>
<g>
</g>
<g>
</g>
<g>
</g>
<g>
</g>
<g>
</g>
<g>
</g>
<g>
</g>
</svg>
