<?xml version="1.0" encoding="iso-8859-1"?>
<!-- Generator: Adobe Illustrator 19.0.0, SVG Export Plug-In . SVG Version: 6.00 Build 0)  -->
<svg version="1.1" id="Layer_1" xmlns="http://www.w3.org/2000/svg" xmlns:xlink="http://www.w3.org/1999/xlink" x="0px" y="0px"
	 viewBox="0 0 512.003 512.003" style="enable-background:new 0 0 512.003 512.003;" xml:space="preserve">
<g>
	<g>
		<polygon points="192.001,199.099 170.667,199.097 149.333,199.094 149.333,241.741 170.667,241.741 192.001,241.741 
			234.669,241.741 234.669,199.104 		"/>
	</g>
</g>
<g>
	<g>
		<polygon points="192.001,284.409 170.667,284.409 149.333,284.409 149.333,327.06 170.667,327.061 192.001,327.064 
			234.669,327.068 234.669,284.409 		"/>
	</g>
</g>
<g>
	<g>
		<path d="M384.008,469.332l-21.337-0.003v-99.58l-21.334-0.001l-21.334-0.001l-63.749-0.006c-0.085,0-0.168,0.013-0.253,0.013
			c-0.087,0-0.169-0.011-0.256-0.013l-63.746-0.007l-21.334-0.001l-21.334-0.001v99.576L128,469.303c-0.003,0-0.003,0-0.003,0
			c-11.781,0-21.334,9.551-21.334,21.331c-0.003,11.782,9.548,21.335,21.331,21.337l42.142,0.006
			c0.178,0.004,0.35,0.026,0.529,0.026h64.002v-0.018v-21.315v-21.334v-0.018v-21.323c0-11.782,9.55-21.334,21.334-21.334
			c11.781,0,21.334,9.552,21.334,21.334v21.328v0.013v21.334v21.321v0.013h64.002c0.034,0,0.07-0.004,0.104-0.006l42.561,0.006
			c0,0,0,0,0.003,0c11.779,0,21.331-9.551,21.334-21.331C405.341,478.887,395.79,469.333,384.008,469.332z"/>
	</g>
</g>
<g>
	<g>
		<polygon points="341.339,199.116 277.337,199.109 277.337,199.11 277.337,241.741 320.005,241.741 341.339,241.741 
			362.673,241.741 362.673,199.119 		"/>
	</g>
</g>
<g>
	<g>
		<polygon points="341.339,284.409 320.005,284.409 277.337,284.409 277.337,327.073 320.005,327.077 341.339,327.08 
			362.673,327.081 362.673,284.409 		"/>
	</g>
</g>
<g>
	<g>
		<path d="M327.115,56.876h-49.779V21.334C277.335,9.552,267.782,0,256.001,0c-11.783,0-21.334,9.552-21.334,21.334v35.542h-49.779
			c-11.784,0-21.334,9.552-21.334,21.334v78.218l7.017,0.001l14.318,0.001l70.453,0.007c0.001,0,0.001,0,0.001,0
			c0.091-0.003,0.181-0.013,0.272-0.014c0.131-0.001,0.256-0.02,0.385-0.02s0.256,0.017,0.385,0.02
			c0.092,0.001,0.183,0.011,0.276,0.014l70.452,0.007l21.334,0.003V78.21C348.449,66.428,338.895,56.876,327.115,56.876z"/>
	</g>
</g>
<g>
</g>
<g>
</g>
<g>
</g>
<g>
</g>
<g>
</g>
<g>
</g>
<g>
</g>
<g>
</g>
<g>
</g>
<g>
</g>
<g>
</g>
<g>
</g>
<g>
</g>
<g>
</g>
<g>
</g>
</svg>
