<?xml version="1.0" encoding="iso-8859-1"?>
<!-- Generator: Adobe Illustrator 19.0.0, SVG Export Plug-In . SVG Version: 6.00 Build 0)  -->
<svg version="1.1" id="Layer_1" xmlns="http://www.w3.org/2000/svg" xmlns:xlink="http://www.w3.org/1999/xlink" x="0px" y="0px"
	 viewBox="0 0 512 512" style="enable-background:new 0 0 512 512;" xml:space="preserve">
<g>
	<g>
		<path d="M504.966,7.031c-6.427-6.429-15.935-8.673-24.567-5.8L174.85,103.084c-7.893,2.633-13.86,9.162-15.772,17.259
			c-1.909,8.098,0.506,16.608,6.389,22.491l84.875,84.874l16.974-16.976l16.976-16.974l28.292-28.292
			c9.374-9.375,24.575-9.375,33.95,0c9.374,9.374,9.374,24.575,0,33.95l-14.145,14.146l-14.148,14.146l-16.976,16.976
			l-16.973,16.974l84.875,84.875c4.555,4.555,10.684,7.032,16.976,7.032c1.834,0,3.686-0.211,5.513-0.642
			c8.1-1.911,14.63-7.88,17.261-15.772L510.768,31.598C513.643,22.971,511.395,13.462,504.966,7.031z"/>
	</g>
</g>
<g>
	<g>
		<path d="M216.389,329.558l67.901-67.9l-33.95-33.951l-67.9,67.903l-16.976-16.976c-9.374-9.374-24.573-9.374-33.951,0
			L7.032,403.119c-9.375,9.374-9.375,24.576,0,33.95l67.9,67.901C79.434,509.472,85.539,512,91.906,512s12.474-2.529,16.974-7.031
			l124.484-124.486c4.502-4.502,7.032-10.608,7.032-16.974c0-6.367-2.529-12.474-7.032-16.976L216.389,329.558z"/>
	</g>
</g>
<g>
</g>
<g>
</g>
<g>
</g>
<g>
</g>
<g>
</g>
<g>
</g>
<g>
</g>
<g>
</g>
<g>
</g>
<g>
</g>
<g>
</g>
<g>
</g>
<g>
</g>
<g>
</g>
<g>
</g>
</svg>
