<?xml version="1.0" encoding="iso-8859-1"?>
<!-- Generator: Adobe Illustrator 19.0.0, SVG Export Plug-In . SVG Version: 6.00 Build 0)  -->
<svg version="1.1" id="Layer_1" xmlns="http://www.w3.org/2000/svg" xmlns:xlink="http://www.w3.org/1999/xlink" x="0px" y="0px"
	 viewBox="0 0 512 512" style="enable-background:new 0 0 512 512;" xml:space="preserve">
<g>
	<g>
		<path d="M507.849,240.079L424.822,129.4c-3.922-5.227-10.073-8.303-16.608-8.301l-62.267,0.006h-41.514v221.358h-41.513V141.869
			v-0.003V79.592H62.27c-11.462,0-20.757,9.294-20.757,20.757v242.114H20.757C9.295,342.462,0,351.756,0,363.219
			s9.295,20.757,20.757,20.757h41.46c0.019,0,0.035,0.003,0.054,0.003c0.019,0,0.035-0.003,0.054-0.003h51.563
			c8.838,28.041,35.084,48.432,66.005,48.432c30.925,0,57.168-20.391,66.005-48.432h61.719
			c8.838,28.041,35.084,48.432,66.005,48.432c30.925,0,57.168-20.391,66.005-48.432h51.616c11.465,0,20.757-9.294,20.757-20.757
			V252.536C512,248.043,510.543,243.673,507.849,240.079z M179.892,390.893c-15.259,0-27.676-12.414-27.676-27.673
			c0-15.262,12.417-27.678,27.676-27.678s27.676,12.417,27.676,27.678C207.568,378.481,195.151,390.893,179.892,390.893z
			 M401.297,363.214c0,0.01,0,0.014,0,0.019c-0.008,15.252-12.419,27.66-27.676,27.66c-15.259,0-27.676-12.414-27.676-27.673
			c0-15.262,12.417-27.678,27.676-27.678c15.256,0,27.667,12.408,27.676,27.663C401.297,363.209,401.297,363.214,401.297,363.214z"
			/>
	</g>
</g>
<g>
</g>
<g>
</g>
<g>
</g>
<g>
</g>
<g>
</g>
<g>
</g>
<g>
</g>
<g>
</g>
<g>
</g>
<g>
</g>
<g>
</g>
<g>
</g>
<g>
</g>
<g>
</g>
<g>
</g>
</svg>
