<?xml version="1.0" encoding="iso-8859-1"?>
<!-- Generator: Adobe Illustrator 19.0.0, SVG Export Plug-In . SVG Version: 6.00 Build 0)  -->
<svg version="1.1" id="Layer_1" xmlns="http://www.w3.org/2000/svg" xmlns:xlink="http://www.w3.org/1999/xlink" x="0px" y="0px"
	 viewBox="0 0 511.999 511.999" style="enable-background:new 0 0 511.999 511.999;" xml:space="preserve">
<g>
	<g>
		<path d="M505.911,143.293l-98.005-98.005c-8.118-8.119-21.281-8.119-29.401,0c-8.118,8.118-8.118,21.282,0,29.401l83.304,83.304
			L373.604,246.2L270.699,143.293c-3.899-3.899-9.188-6.09-14.7-6.09c-5.515,0-10.802,2.19-14.7,6.09L6.088,378.507
			c-8.118,8.119-8.118,21.282,0,29.401l58.802,58.802c4.061,4.061,9.379,6.09,14.7,6.09c5.321,0,10.642-2.031,14.7-6.09
			l79.121-79.117l44.1,14.7l-5.615,5.615c-8.118,8.118-8.118,21.282,0,29.401c4.061,4.06,9.38,6.09,14.701,6.09
			c5.319,0,10.642-2.031,14.698-6.09l52.923-52.923l10.782-10.782l24.502,24.5c4.061,4.061,9.38,6.09,14.7,6.09
			c5.321,0,10.643-2.03,14.701-6.09c8.118-8.119,8.118-21.282,0-29.401l-24.502-24.5l-29.4,29.4l-14.7-14.701l-14.701-14.7
			L251.098,319.7c-7.611-7.609-8.086-19.655-1.428-27.82c0.444-0.546,0.92-1.074,1.428-1.583c8.119-8.118,21.281-8.119,29.401,0
			l24.503,24.503l14.703,14.7l14.7,14.701l53.901-53.901c0.004-0.004,0.008-0.008,0.011-0.013l117.594-117.595
			C514.029,164.577,514.029,151.413,505.911,143.293z"/>
	</g>
</g>
<g>
</g>
<g>
</g>
<g>
</g>
<g>
</g>
<g>
</g>
<g>
</g>
<g>
</g>
<g>
</g>
<g>
</g>
<g>
</g>
<g>
</g>
<g>
</g>
<g>
</g>
<g>
</g>
<g>
</g>
</svg>
