<?xml version="1.0" encoding="iso-8859-1"?>
<!-- Generator: Adobe Illustrator 19.0.0, SVG Export Plug-In . SVG Version: 6.00 Build 0)  -->
<svg xmlns="http://www.w3.org/2000/svg" xmlns:xlink="http://www.w3.org/1999/xlink" version="1.1" id="Capa_1" x="0px" y="0px" viewBox="0 0 512.001 512.001" style="enable-background:new 0 0 512.001 512.001;" xml:space="preserve">
<g>
	<g>
		<path d="M416.391,243.322H311.96v-8.837c0-17.649-14.359-32.009-32.009-32.009h-47.638c-17.649,0-32.009,14.359-32.009,32.009    v8.837H95.609C42.89,243.322,0,286.213,0,338.932v50.154c0,27.229,10.213,53.205,28.76,73.142s43.717,31.998,70.875,33.963    c20.124,1.457,40.19-2.768,58.022-12.215l61.115-32.38c23.206-12.294,50.768-12.024,73.727,0.725l55.23,30.666    c16.01,8.889,33.876,13.503,52.08,13.503c2.465,0,4.937-0.084,7.411-0.255l4.76-0.327h0.001    c27.237-1.872,52.497-13.893,71.128-33.849s28.892-45.982,28.892-73.282v-49.843C512,286.213,469.11,243.322,416.391,243.322z     M152.384,381.115h-26.717v28.537c0,8.303-6.731,15.034-15.034,15.034c-8.303,0-15.034-6.731-15.034-15.034v-28.537H68.881    c-8.303,0-15.035-6.731-15.035-15.034c0-8.303,6.731-15.035,15.035-15.035h26.717v-24.897c0-8.303,6.731-15.035,15.034-15.035    c8.303,0,15.035,6.731,15.035,15.035v24.897h26.717c8.303,0,15.035,6.731,15.035,15.035    C167.419,374.383,160.687,381.115,152.384,381.115z M274.876,322.38h-38.897c-8.303,0-15.035-6.731-15.035-15.034    c0-8.303,6.731-15.034,15.035-15.034h38.897c8.303,0,15.035,6.731,15.035,15.034C289.911,315.65,283.179,322.38,274.876,322.38z     M386.698,327.359c0-8.303,6.731-15.035,15.035-15.035c8.303,0,15.034,6.732,15.034,15.035v0.317    c0,8.303-6.731,15.034-15.034,15.034c-8.303,0-15.035-6.731-15.035-15.034V327.359z M363.062,379.974h-0.317    c-8.303,0-15.035-6.731-15.035-15.034c0-8.303,6.731-15.034,15.035-15.034h0.317c8.303,0,15.034,6.731,15.034,15.034    C378.096,373.244,371.365,379.974,363.062,379.974z M401.743,418.961h-0.01c-8.303,0-15.035-6.731-15.035-15.034    c0-8.303,6.731-15.035,15.035-15.035c8.303,0,15.039,6.731,15.039,15.035C416.772,412.229,410.046,418.961,401.743,418.961z     M454.348,364.94c0,8.303-6.731,15.034-15.034,15.034c-8.303,0-15.034-6.731-15.034-15.034c0-8.303,6.731-15.039,15.034-15.039    c8.303,0,15.034,6.726,15.034,15.029V364.94z"/>
	</g>
</g>
<g>
	<g>
		<path d="M448.592,15.51c-8.303,0-15.034,6.731-15.034,15.034v98.44c0,18.279-14.871,33.151-33.151,33.151    c-18.279,0-33.151-14.872-33.151-33.151v-4.926c0.089-0.661,0.15-1.33,0.15-2.015v-18.256c0-35.186-28.894-63.751-64.202-63.213    c-34.689,0.529-62.238,29.479-62.238,64.172v60.8c0,8.303,6.73,15.034,15.035,15.034c8.303,0,15.034-6.731,15.034-15.034v-61.098    c0-18.548,15.179-34.122,33.723-33.807c18.016,0.307,32.579,15.059,32.579,33.146v4.928c-0.088,0.661-0.15,1.328-0.15,2.013    v18.256c0,34.859,28.36,63.22,63.22,63.22c34.859,0,63.22-28.361,63.22-63.22v-98.44C463.627,22.242,456.896,15.51,448.592,15.51z    "/>
	</g>
</g>
<g>
</g>
<g>
</g>
<g>
</g>
<g>
</g>
<g>
</g>
<g>
</g>
<g>
</g>
<g>
</g>
<g>
</g>
<g>
</g>
<g>
</g>
<g>
</g>
<g>
</g>
<g>
</g>
<g>
</g>
</svg>
