<?xml version="1.0" encoding="iso-8859-1"?>
<!-- Generator: Adobe Illustrator 19.0.0, SVG Export Plug-In . SVG Version: 6.00 Build 0)  -->
<svg xmlns="http://www.w3.org/2000/svg" xmlns:xlink="http://www.w3.org/1999/xlink" version="1.1" id="Capa_1" x="0px" y="0px" viewBox="0 0 511.998 511.998" style="enable-background:new 0 0 511.998 511.998;" xml:space="preserve">
<g>
	<g>
		<path d="M373.299,350.07c0-64.957-52.843-117.8-117.8-117.8s-117.8,52.843-117.8,117.8c0,49.026,30.109,91.158,72.802,108.863    h-54.957c26.331,24.197,61.46,38.996,99.955,38.996s73.624-14.799,99.955-38.996h-54.957    C343.19,441.228,373.299,399.095,373.299,350.07z M171.819,351.1c0-46.141,37.538-83.68,83.68-83.68    c46.142,0,83.68,37.539,83.68,83.68s-37.539,83.68-83.68,83.68S171.819,397.241,171.819,351.1z"/>
	</g>
</g>
<g>
	<g>
		<path d="M255.499,297.478c-29.568,0-53.622,24.055-53.622,53.622c0,29.567,24.054,53.622,53.622,53.622    c29.568,0,53.622-24.055,53.622-53.622S285.067,297.478,255.499,297.478z"/>
	</g>
</g>
<g>
	<g>
		<path d="M310.286,14.069H200.711c-17.647,0-32.005,14.358-32.005,32.005v33.637c0,17.648,14.357,32.005,32.005,32.005h109.575    c17.647,0,32.005-14.357,32.005-32.005V46.075C342.291,28.428,327.933,14.069,310.286,14.069z"/>
	</g>
</g>
<g>
	<g>
		<path d="M478.833,153.529v-10.16c0-20.689-16.832-37.521-37.521-37.521h-36.094c-20.689,0-37.521,16.832-37.521,37.521v9.065    h-56.631v-9.847c0-6.81-5.522-12.331-12.332-12.33l-85.477,0.015c-6.808,0.001-12.327,5.521-12.327,12.33v9.831h-98.553v-19.638    c0-17.76-14.448-32.209-32.209-32.209s-32.209,14.449-32.209,32.209v19.912C16.633,155.091,0,173.226,0,195.177v221.012    c0,23.566,19.167,42.743,42.733,42.743h112.81c-29.427-27.043-47.904-65.839-47.904-108.863    c0-81.529,66.33-147.859,147.859-147.859s147.859,66.33,147.859,147.859c0,43.024-18.476,81.82-47.904,108.863h113.802    c23.566,0,42.743-19.177,42.743-42.743V195.177C512,174.905,497.803,157.891,478.833,153.529z M107.625,232.272H67.067    c-8.3,0-15.029-6.729-15.029-15.029c0-8.3,6.729-15.029,15.029-15.029h40.558c8.3,0,15.029,6.729,15.029,15.029    C122.655,225.543,115.925,232.272,107.625,232.272z"/>
	</g>
</g>
<g>
</g>
<g>
</g>
<g>
</g>
<g>
</g>
<g>
</g>
<g>
</g>
<g>
</g>
<g>
</g>
<g>
</g>
<g>
</g>
<g>
</g>
<g>
</g>
<g>
</g>
<g>
</g>
<g>
</g>
</svg>
