<?xml version="1.0" encoding="iso-8859-1"?>
<!-- Generator: Adobe Illustrator 19.0.0, SVG Export Plug-In . SVG Version: 6.00 Build 0)  -->
<svg xmlns="http://www.w3.org/2000/svg" xmlns:xlink="http://www.w3.org/1999/xlink" version="1.1" id="Capa_1" x="0px" y="0px" viewBox="0 0 512.001 512.001" style="enable-background:new 0 0 512.001 512.001;" xml:space="preserve">
<g>
	<g>
		<path d="M384.126,92.439c18.861,0,34.974,11.991,41.116,28.752h84.305c1.355,0,2.453-1.099,2.453-2.453V80.204    c0-1.355-1.099-2.453-2.453-2.453H2.453C1.099,77.751,0,78.849,0,80.204v47.278c0,1.355,1.099,2.453,2.453,2.453h131.846    c1,0,1.882-0.614,2.274-1.534c7.025-16.485,23.873-27.818,43.156-26.579c22.189,1.425,39.967,19.663,40.863,41.879    c1.005,24.953-19.002,45.573-43.737,45.573c-18.469,0-34.293-11.501-40.71-27.714c-0.375-0.945-1.265-1.583-2.282-1.583h-12.381    c-1.625,0-2.802,1.551-2.362,3.116l11.525,41.082c0.297,1.06,1.263,1.791,2.362,1.791h121.311c0.958,0,1.814-0.566,2.228-1.43    c7.65-15.933,24.657-26.555,43.859-24.678c20.977,2.051,37.684,19.174,39.264,40.192c1.928,25.649-18.396,47.137-43.646,47.137    c-19.141,0-35.445-12.353-41.375-29.505c-0.342-0.991-1.252-1.674-2.301-1.674H119.574c-7.666,0-13.978-5.746-14.895-13.164    l-17.134-61.076c-0.297-1.06-1.263-1.791-2.362-1.791H2.453c-1.355,0-2.453,1.099-2.453,2.453v120.686    c0,1.355,1.099,2.453,2.453,2.453h507.093c1.355,0,2.453-1.099,2.453-2.453V153.687c0-1.355-1.099-2.453-2.453-2.453h-84.305    c-6.431,17.55-23.797,29.871-43.801,28.67c-22.271-1.337-40.163-19.617-41.052-41.91    C339.394,113.049,359.398,92.439,384.126,92.439z"/>
	</g>
</g>
<g>
	<g>
		<path d="M176.855,131.772c-7.572,0-13.73,6.159-13.73,13.73c0,7.572,6.159,13.73,13.73,13.73c7.572,0,13.73-6.16,13.73-13.73    C190.586,137.93,184.427,131.772,176.855,131.772z"/>
	</g>
</g>
<g>
	<g>
		<path d="M296.023,209.687c-7.571,0-13.729,6.159-13.729,13.73s6.159,13.729,13.729,13.729c7.572,0,13.73-6.16,13.73-13.729    C309.754,215.845,303.595,209.687,296.023,209.687z"/>
	</g>
</g>
<g>
	<g>
		<path d="M511.12,44.802c-4.277-22.272-23.898-39.156-47.4-39.156H48.28c-23.502,0-43.122,16.884-47.4,39.156    c-0.289,1.508,0.884,2.905,2.42,2.905h505.4C510.236,47.707,511.409,46.309,511.12,44.802z"/>
	</g>
</g>
<g>
	<g>
		<path d="M384.126,122.482c-7.572,0-13.73,6.159-13.73,13.73c0,7.572,6.159,13.73,13.73,13.73c7.571,0,13.729-6.159,13.729-13.73    C397.855,128.64,391.696,122.482,384.126,122.482z"/>
	</g>
</g>
<g>
	<g>
		<path d="M456.115,371.113H320.542c-1.355,0-2.453-1.099-2.453-2.453v-7.835c0-1.355,1.099-2.453,2.453-2.453H463.72    c23.758,0,43.552-17.252,47.538-39.884c0.263-1.498-0.904-2.872-2.426-2.872H3.168c-1.521,0-2.69,1.374-2.426,2.872    c3.986,22.632,23.781,39.884,47.538,39.884h143.179c1.355,0,2.453,1.099,2.453,2.453v7.835c0,1.355-1.099,2.453-2.453,2.453    H55.886C25.02,371.113,0,396.134,0,426.998v23.471c0,30.865,25.02,55.886,55.886,55.886h400.23    c30.865,0,55.885-25.02,55.885-55.885v-23.471C512,396.134,486.98,371.113,456.115,371.113z M241.946,453.755H74.694    c-8.296,0-15.021-6.726-15.021-15.021c0-8.296,6.725-15.021,15.021-15.021h167.253c8.296,0,15.021,6.726,15.021,15.021    S250.243,453.755,241.946,453.755z M436.411,453.755H388.89c-8.296,0-15.021-6.726-15.021-15.021    c0-8.296,6.725-15.021,15.021-15.021h47.521c8.296,0,15.021,6.726,15.021,15.021C451.433,447.029,444.707,453.755,436.411,453.755    z"/>
	</g>
</g>
<g>
</g>
<g>
</g>
<g>
</g>
<g>
</g>
<g>
</g>
<g>
</g>
<g>
</g>
<g>
</g>
<g>
</g>
<g>
</g>
<g>
</g>
<g>
</g>
<g>
</g>
<g>
</g>
<g>
</g>
</svg>
