<?xml version="1.0" encoding="iso-8859-1"?>
<!-- Generator: Adobe Illustrator 19.0.0, SVG Export Plug-In . SVG Version: 6.00 Build 0)  -->
<svg xmlns="http://www.w3.org/2000/svg" xmlns:xlink="http://www.w3.org/1999/xlink" version="1.1" id="Capa_1" x="0px" y="0px" viewBox="0 0 512 512" style="enable-background:new 0 0 512 512;" xml:space="preserve">
<g>
	<g>
		<path d="M238.933,127.606h-44.177c-5.37,0-9.722,4.352-9.722,9.722v39.56c0,5.369,4.352,9.722,9.722,9.722h44.176    c5.37,0,9.722-4.353,9.722-9.722v-39.561C248.654,131.957,244.302,127.606,238.933,127.606z"/>
	</g>
</g>
<g>
	<g>
		<path d="M402.042,77.74H109.958c-3.372,0-6.106,2.734-6.106,6.106v343.785c0,3.372,2.734,6.106,6.106,6.106h292.083    c3.372,0,6.106-2.734,6.106-6.106V83.846C408.148,80.474,405.414,77.74,402.042,77.74z M155.093,130.157    c0-17.917,14.577-32.495,32.496-32.495h58.514c17.918,0,32.496,14.577,32.496,32.495v53.899c0,17.918-14.577,32.496-32.496,32.496    h-58.514c-17.918,0-32.496-14.576-32.496-32.495V130.157z M358.888,386.348c0,16.91-13.757,30.668-30.667,30.668H185.76    c-16.91,0-30.668-13.757-30.668-30.668v-12.212c0-16.91,13.757-30.668,30.668-30.668h142.46c16.909,0,30.667,13.757,30.667,30.668    V386.348z M155.093,305.376c0-8.268,6.703-14.971,14.971-14.971h73.662c8.268,0,14.971,6.703,14.971,14.971    s-6.703,14.971-14.971,14.971h-73.662C161.795,320.346,155.093,313.643,155.093,305.376z M343.917,267.85H170.064    c-8.268,0-14.971-6.703-14.971-14.971c0-8.268,6.703-14.971,14.971-14.971h173.852c8.268,0,14.971,6.703,14.971,14.971    C358.888,261.147,352.185,267.85,343.917,267.85z M343.917,127.605h-36.788c-8.268,0-14.971-6.703-14.971-14.971    c0-8.268,6.702-14.971,14.971-14.971h36.788c8.268,0,14.971,6.703,14.971,14.971C358.888,120.902,352.185,127.605,343.917,127.605    z"/>
	</g>
</g>
<g>
	<g>
		<path d="M322.114,373.41H191.867c-3.774,0-6.833,3.059-6.833,6.833c0,3.774,3.059,6.833,6.833,6.833h130.248    c3.773,0,6.832-3.058,6.832-6.832v-0.001C328.947,376.469,325.888,373.41,322.114,373.41z"/>
	</g>
</g>
<g>
	<g>
		<path d="M406.122,40.134C399.667,17.013,378.43,0,353.279,0H158.721c-25.151,0-46.389,17.013-52.842,40.133    c-1.077,3.857,1.902,7.665,5.907,7.665h288.427v0.001C404.219,47.799,407.198,43.991,406.122,40.134z"/>
	</g>
</g>
<g>
	<g>
		<path d="M400.354,463.678h-288.71c-4.007,0-6.947,3.8-5.909,7.67C112.013,494.733,133.381,512,158.721,512h194.558    c25.339,0,46.708-17.268,52.986-40.652C407.302,467.479,404.362,463.678,400.354,463.678z"/>
	</g>
</g>
<g>
</g>
<g>
</g>
<g>
</g>
<g>
</g>
<g>
</g>
<g>
</g>
<g>
</g>
<g>
</g>
<g>
</g>
<g>
</g>
<g>
</g>
<g>
</g>
<g>
</g>
<g>
</g>
<g>
</g>
</svg>
