<?xml version="1.0" encoding="iso-8859-1"?>
<!-- Generator: Adobe Illustrator 19.0.0, SVG Export Plug-In . SVG Version: 6.00 Build 0)  -->
<svg xmlns="http://www.w3.org/2000/svg" xmlns:xlink="http://www.w3.org/1999/xlink" version="1.1" id="Capa_1" x="0px" y="0px" viewBox="0 0 512 512" style="enable-background:new 0 0 512 512;" xml:space="preserve">
<g>
	<g>
		<path d="M465.537,13.405H46.463C20.802,13.405,0,34.206,0,59.868v216.635c0,4.945,4.008,8.953,8.953,8.953h494.094    c4.945,0,8.953-4.008,8.953-8.953V59.867C512,34.206,491.198,13.405,465.537,13.405z M126.117,63.178l0.349-0.349    c5.866-5.866,15.379-5.866,21.246,0c5.867,5.866,5.867,15.379,0,21.246l-0.349,0.349c-2.934,2.934-6.778,4.401-10.622,4.401    s-7.69-1.467-10.622-4.401C120.25,78.557,120.25,69.044,126.117,63.178z M46.567,142.729l49.84-49.84    c5.867-5.866,15.379-5.868,21.245,0c5.867,5.866,5.867,15.379,0,21.246l-49.84,49.84c-2.934,2.933-6.778,4.401-10.622,4.401    c-3.845,0-7.689-1.466-10.622-4.401C40.7,158.107,40.7,148.595,46.567,142.729z M112.664,184.664l-44.293,44.293    c-2.932,2.932-6.777,4.4-10.622,4.4c-3.845,0-7.69-1.467-10.622-4.401c-5.867-5.866-5.867-15.379,0-21.246l44.293-44.293    c5.866-5.866,15.379-5.866,21.245,0C118.531,169.284,118.531,178.797,112.664,184.664z M141.96,155.367l-0.349,0.35    c-2.934,2.943-6.786,4.415-10.638,4.415c-3.838,0-7.676-1.461-10.608-4.386c-5.875-5.859-5.888-15.371-0.03-21.246l0.349-0.35    c5.859-5.876,15.371-5.889,21.246-0.029C147.806,139.98,147.819,149.492,141.96,155.367z M212.002,85.326l-41.417,41.417    c-2.934,2.933-6.778,4.401-10.622,4.401s-7.69-1.467-10.622-4.401c-5.867-5.866-5.867-15.379,0-21.246l41.417-41.417    c5.866-5.866,15.379-5.866,21.246,0C217.869,69.947,217.869,79.46,212.002,85.326z"/>
	</g>
</g>
<g>
	<g>
		<path d="M503.048,315.501H8.953c-4.945,0-8.953,4.008-8.953,8.953v19.305c0,25.66,20.802,46.463,46.463,46.463h149.82    l-5.802,17.808c-1.34,4.112,1.725,8.335,6.05,8.335h118.287c4.326,0,7.39-4.222,6.05-8.335l-5.802-17.808h150.47    c25.66,0,46.463-20.802,46.463-46.463v-19.305C512.001,319.509,507.993,315.501,503.048,315.501z"/>
	</g>
</g>
<g>
	<g>
		<path d="M356.011,460.956l-10.999-12.404c-1.208-1.362-2.94-2.141-4.761-2.141H168.156c-1.666,0-3.265,0.653-4.455,1.819    l-11.814,11.582c-6.677,6.545-8.649,16.41-4.973,25.035c3.611,8.471,12.191,13.748,21.4,13.748h170.254    c7.331,0,14.399-3.286,18.732-9.2C363.739,480.607,362.953,468.785,356.011,460.956z"/>
	</g>
</g>
<g>
</g>
<g>
</g>
<g>
</g>
<g>
</g>
<g>
</g>
<g>
</g>
<g>
</g>
<g>
</g>
<g>
</g>
<g>
</g>
<g>
</g>
<g>
</g>
<g>
</g>
<g>
</g>
<g>
</g>
</svg>
