<?xml version="1.0" encoding="iso-8859-1"?>
<!-- Generator: Adobe Illustrator 19.0.0, SVG Export Plug-In . SVG Version: 6.00 Build 0)  -->
<svg xmlns="http://www.w3.org/2000/svg" xmlns:xlink="http://www.w3.org/1999/xlink" version="1.1" id="Capa_1" x="0px" y="0px" viewBox="0 0 512 512" style="enable-background:new 0 0 512 512;" xml:space="preserve">
<g>
	<g>
		<g>
			<path d="M251.229,143.376h-14.438v142.352c0,8.313-6.739,15.052-15.052,15.052c-8.313,0-15.052-6.739-15.052-15.052V143.376     h-14.438c-65.677,0-118.919,53.242-118.919,118.919v87.398c0,5.911,4.793,10.704,10.704,10.704h275.41     c5.911,0,10.704-4.793,10.704-10.704v-87.398C370.148,196.618,316.906,143.376,251.229,143.376z"/>
			<path d="M438.612,14.626c-0.235-8.308-7.11-14.851-15.471-14.621c-8.31,0.235-14.855,7.162-14.621,15.471     c0.604,21.349-4.853,36.955-16.216,46.383c-23.193,19.243-64.769,10.495-65.151,10.413l-0.531-0.108     c-40.362-7.456-71.712-1.59-93.183,17.428c-18.638,16.509-24.805,38.858-26.781,53.778l30.091-0.003     c1.613-9.638,5.844-22.237,16.65-31.24c14.518-12.097,36.864-16.03,67.541-10.4c4.995,1.061,56.817,11.184,90.457-16.592     C430.336,69.499,439.493,45.776,438.612,14.626z"/>
		</g>
	</g>
</g>
<g>
	<g>
		<path d="M369.904,400.597c-0.012-5.578-4.538-10.097-10.118-10.097H83.669c-5.527,0-10.013,4.433-10.111,9.937    c-0.001,0.061-0.009,0.12-0.009,0.183c0,0.531,0.053,1.049,0.133,1.557C78.328,463.604,129.634,512,192.25,512h58.979    c62.733,0,114.117-48.577,118.597-110.167c0.048-0.398,0.079-0.802,0.079-1.213C369.905,400.612,369.904,400.605,369.904,400.597z    "/>
	</g>
</g>
<g>
</g>
<g>
</g>
<g>
</g>
<g>
</g>
<g>
</g>
<g>
</g>
<g>
</g>
<g>
</g>
<g>
</g>
<g>
</g>
<g>
</g>
<g>
</g>
<g>
</g>
<g>
</g>
<g>
</g>
</svg>
