<?xml version="1.0" encoding="iso-8859-1"?>
<!-- Generator: Adobe Illustrator 19.0.0, SVG Export Plug-In . SVG Version: 6.00 Build 0)  -->
<svg xmlns="http://www.w3.org/2000/svg" xmlns:xlink="http://www.w3.org/1999/xlink" version="1.1" id="Capa_1" x="0px" y="0px" viewBox="0 0 512 512" style="enable-background:new 0 0 512 512;" xml:space="preserve">
<g>
	<g>
		<path d="M256.172,193.755c-49.378,0-89.55,40.172-89.55,89.55s40.172,89.55,89.55,89.55s89.549-40.172,89.549-89.55    S305.55,193.755,256.172,193.755z M256,326.013c-23.55,0-42.709-19.159-42.709-42.709S232.45,240.595,256,240.595    s42.709,19.159,42.709,42.709C298.709,306.854,279.55,326.013,256,326.013z"/>
	</g>
</g>
<g>
	<g>
		<path d="M99.367,198.154H81.511c-5.763,0-10.451,4.688-10.451,10.45c0,5.762,4.688,10.45,10.451,10.45h17.856    c5.763,0,10.451-4.688,10.451-10.45C109.817,202.843,105.129,198.154,99.367,198.154z"/>
	</g>
</g>
<g>
	<g>
		<path d="M461.583,127.807h-2.82v-0.331c0-29.928-24.348-54.276-54.276-54.276h-16.041c-29.929,0-54.276,24.348-54.276,54.276    v0.331H50.418C22.618,127.807,0,150.425,0,178.226v210.157C0,416.183,22.618,438.8,50.418,438.8h411.164    c27.801,0,50.418-22.618,50.418-50.418V178.226C512,150.425,489.382,127.807,461.583,127.807z M99.367,249.1H81.511    c-22.329,0-40.496-18.166-40.496-40.495c0-22.329,18.166-40.495,40.496-40.495h17.856c22.329,0,40.496,18.166,40.496,40.495    C139.863,230.934,121.696,249.1,99.367,249.1z M256.172,402.898c-65.946,0-119.595-53.65-119.595-119.595    s53.649-119.595,119.595-119.595c65.945,0,119.594,53.65,119.594,119.595S322.117,402.898,256.172,402.898z"/>
	</g>
</g>
<g>
</g>
<g>
</g>
<g>
</g>
<g>
</g>
<g>
</g>
<g>
</g>
<g>
</g>
<g>
</g>
<g>
</g>
<g>
</g>
<g>
</g>
<g>
</g>
<g>
</g>
<g>
</g>
<g>
</g>
</svg>
