<?xml version="1.0" encoding="iso-8859-1"?>
<!-- Generator: Adobe Illustrator 19.0.0, SVG Export Plug-In . SVG Version: 6.00 Build 0)  -->
<svg xmlns="http://www.w3.org/2000/svg" xmlns:xlink="http://www.w3.org/1999/xlink" version="1.1" id="Capa_1" x="0px" y="0px" viewBox="0 0 512 512" style="enable-background:new 0 0 512 512;" xml:space="preserve">
<g>
	<g>
		<path d="M0,380.166v60.12c0,31.122,25.32,56.441,56.441,56.441h399.116c31.122,0,56.441-25.319,56.441-56.441v-60.12H0z"/>
	</g>
</g>
<g>
	<g>
		<path d="M295.909,16.1l-0.067-0.023c-2.192-0.748-4.31-0.767-6.545-0.804c-0.574,0.007-1.226,0-1.831,0h-63.432    c-0.049,0-0.096,0.007-0.144,0.007c-0.319,0.003-0.64,0.025-0.961,0.049c-0.194,0.014-0.39,0.023-0.582,0.045    c-0.253,0.029-0.506,0.074-0.759,0.116c-0.26,0.043-0.522,0.083-0.777,0.139c-0.182,0.04-0.365,0.093-0.547,0.14    c-0.317,0.082-0.634,0.167-0.943,0.269c-0.045,0.015-0.091,0.023-0.135,0.039c-0.765,0.261-1.241,0.419-1.632,0.549    c-4.211,1.404-7.655,6.183-7.655,10.621v96.68l0.073,68.635c0.008,6.014,4.885,10.885,10.898,10.885h70.723    c6.019,0,10.896-4.879,10.896-10.896v-14.348v-56.195v-96.71C302.488,21.141,299.843,17.443,295.909,16.1z"/>
	</g>
</g>
<g>
	<g>
		<path d="M461.671,189.044c-13.906-41.377-37.373-79.332-68.67-110.271l-1.118-1.106c-16.391-16.204-32.825-29.359-50.001-39.923    c-4.025-2.476-9.208,0.449-9.208,5.174v98.309c0,1.648,0.66,3.229,1.833,4.387l0.172,0.17l0.632,0.625    c12.002,11.865,23.66,30.617,32.22,50.41c1.731,4.003,5.635,6.628,9.996,6.628h73.818    C458.809,203.449,464.049,196.119,461.671,189.044z"/>
	</g>
</g>
<g>
	<g>
		<path d="M170.575,39.986c-15.889,10.167-31.174,22.604-46.426,37.682l-1.118,1.105c-31.297,30.939-54.763,68.895-68.671,110.271    c-2.378,7.075,2.861,14.404,10.326,14.404h73.796c4.316,0,8.258-2.534,9.969-6.496c7.978-18.478,18.659-36.059,29.806-47.991    c1.037-1.111,1.6-2.578,1.6-4.097V45.109C179.858,40.343,174.589,37.418,170.575,39.986z"/>
	</g>
</g>
<g>
	<g>
		<path d="M473.12,236.376c-0.061-0.404-0.125-0.806-0.191-1.208c-0.157-0.965-0.987-1.677-1.966-1.677h-91.729    c0.005,0.024,0.01,0.049,0.015,0.073H302.49v-0.073h-92.473v0.073h-73.232c0.005-0.024,0.01-0.049,0.015-0.073H45.052    c-0.974,0-1.813,0.704-1.963,1.666l-0.003,0.017C18.391,241.19,0,263.484,0,290.005v60.12h512v-60.12    C512,265.013,495.668,243.777,473.12,236.376z M81.848,300.634c-0.05,0.491-0.13,0.971-0.22,1.462    c-0.1,0.471-0.22,0.951-0.36,1.422c-0.15,0.471-0.31,0.931-0.501,1.382c-0.19,0.451-0.401,0.901-0.631,1.332    c-0.22,0.431-0.481,0.851-0.751,1.262c-0.27,0.411-0.561,0.811-0.871,1.192c-0.31,0.38-0.651,0.741-0.991,1.091    c-0.35,0.351-0.721,0.681-1.102,0.991c-0.38,0.31-0.771,0.601-1.182,0.881c-0.411,0.26-0.831,0.521-1.262,0.751    c-0.431,0.23-0.881,0.441-1.332,0.621c-0.451,0.19-0.921,0.36-1.382,0.501c-0.471,0.14-0.951,0.26-1.432,0.36    c-0.481,0.1-0.971,0.17-1.452,0.22c-0.491,0.05-0.991,0.07-1.482,0.07c-0.491,0-0.981-0.02-1.472-0.07    c-0.491-0.05-0.981-0.12-1.462-0.22c-0.481-0.1-0.961-0.22-1.422-0.36c-0.471-0.14-0.941-0.31-1.392-0.501    c-0.451-0.18-0.891-0.391-1.322-0.621c-0.441-0.23-0.861-0.491-1.272-0.751c-0.401-0.28-0.801-0.571-1.182-0.881    c-0.381-0.31-0.751-0.641-1.102-0.991c-0.341-0.35-0.681-0.711-0.991-1.091c-0.31-0.381-0.601-0.781-0.871-1.192    c-0.27-0.411-0.521-0.831-0.751-1.262c-0.23-0.431-0.441-0.881-0.631-1.332s-0.35-0.911-0.501-1.382    c-0.14-0.471-0.26-0.951-0.36-1.422c-0.09-0.491-0.17-0.971-0.21-1.462c-0.05-0.491-0.08-0.991-0.08-1.482    c0-0.491,0.03-0.981,0.08-1.472c0.04-0.491,0.12-0.981,0.21-1.462c0.1-0.481,0.22-0.951,0.36-1.422    c0.15-0.471,0.31-0.931,0.501-1.382c0.19-0.451,0.401-0.901,0.631-1.332c0.23-0.431,0.481-0.861,0.751-1.262    c0.27-0.411,0.561-0.811,0.871-1.192c0.31-0.381,0.651-0.751,0.991-1.092c0.35-0.351,0.721-0.681,1.102-0.991    c0.381-0.31,0.781-0.611,1.182-0.881c0.411-0.27,0.831-0.521,1.272-0.751c0.431-0.23,0.871-0.441,1.322-0.631    c0.451-0.18,0.921-0.351,1.392-0.491c0.461-0.15,0.941-0.27,1.422-0.36c0.481-0.1,0.971-0.17,1.462-0.22    c0.971-0.1,1.973-0.1,2.954,0c0.481,0.05,0.971,0.12,1.452,0.22c0.481,0.09,0.961,0.21,1.432,0.36    c0.461,0.14,0.931,0.31,1.382,0.491c0.451,0.19,0.901,0.401,1.332,0.631c0.431,0.23,0.851,0.481,1.262,0.751    s0.801,0.571,1.182,0.881s0.751,0.641,1.102,0.991c0.341,0.34,0.681,0.711,0.991,1.092c0.31,0.38,0.601,0.781,0.871,1.192    c0.27,0.401,0.531,0.831,0.751,1.262c0.23,0.431,0.441,0.881,0.631,1.332s0.35,0.911,0.501,1.382    c0.14,0.471,0.26,0.941,0.36,1.422c0.09,0.481,0.17,0.971,0.22,1.462c0.05,0.491,0.07,0.981,0.07,1.472    C81.919,299.643,81.898,300.143,81.848,300.634z"/>
	</g>
</g>
<g>
</g>
<g>
</g>
<g>
</g>
<g>
</g>
<g>
</g>
<g>
</g>
<g>
</g>
<g>
</g>
<g>
</g>
<g>
</g>
<g>
</g>
<g>
</g>
<g>
</g>
<g>
</g>
<g>
</g>
</svg>
