<?xml version="1.0" encoding="iso-8859-1"?>
<!-- Generator: Adobe Illustrator 19.0.0, SVG Export Plug-In . SVG Version: 6.00 Build 0)  -->
<svg xmlns="http://www.w3.org/2000/svg" xmlns:xlink="http://www.w3.org/1999/xlink" version="1.1" id="Capa_1" x="0px" y="0px" viewBox="0 0 512 512" style="enable-background:new 0 0 512 512;" xml:space="preserve">
<g>
	<g>
		<path d="M346.603,0H165.398c-21.904,0-39.662,17.757-39.662,39.662v181.415c0,7.689,6.233,13.922,13.922,13.922h232.684    c7.689,0,13.922-6.233,13.922-13.922V39.662C386.264,17.757,368.507,0,346.603,0z M207.495,194.666    c0,8.294-6.724,15.017-15.017,15.017c-8.293,0-15.017-6.724-15.017-15.017v-41.037c0-8.294,6.724-15.017,15.017-15.017    c8.293,0,15.017,6.724,15.017,15.017V194.666z M247.848,194.666c0,8.294-6.724,15.017-15.017,15.017    c-8.294,0-15.017-6.724-15.017-15.017v-69.078c0-8.294,6.724-15.017,15.017-15.017c8.294,0,15.017,6.724,15.017,15.017V194.666z     M289.103,194.666c0,8.294-6.724,15.017-15.017,15.017c-8.294,0-15.017-6.724-15.017-15.017V96.861    c0-8.294,6.724-15.017,15.017-15.017c8.294,0,15.017,6.724,15.017,15.017V194.666z M331.507,194.666    c0,8.294-6.724,15.017-15.017,15.017c-8.294,0-15.017-6.724-15.017-15.017V68.135c0-8.294,6.724-15.017,15.017-15.017    c8.294,0,15.017,6.724,15.017,15.017V194.666z"/>
	</g>
</g>
<g>
	<g>
		<path d="M255.913,313.66c-30.25,0-54.86,24.61-54.86,54.859c0,30.25,24.61,54.86,54.86,54.86s54.859-24.61,54.859-54.86    C310.773,338.269,286.162,313.66,255.913,313.66z"/>
	</g>
</g>
<g>
	<g>
		<path d="M372.342,265.034H139.658c-7.689,0-13.922,6.233-13.922,13.922v193.382c0,21.904,17.757,39.662,39.662,39.662h181.204    c21.904,0,39.662-17.757,39.662-39.662V278.956C386.264,271.266,380.031,265.034,372.342,265.034z M255.913,453.414    c-46.811,0-84.895-38.084-84.895-84.895c0-46.811,38.084-84.894,84.895-84.894c46.811,0,84.894,38.084,84.894,84.894    C340.807,415.331,302.723,453.414,255.913,453.414z"/>
	</g>
</g>
<g>
</g>
<g>
</g>
<g>
</g>
<g>
</g>
<g>
</g>
<g>
</g>
<g>
</g>
<g>
</g>
<g>
</g>
<g>
</g>
<g>
</g>
<g>
</g>
<g>
</g>
<g>
</g>
<g>
</g>
</svg>
