<?xml version="1.0" encoding="iso-8859-1"?>
<!-- Generator: Adobe Illustrator 19.0.0, SVG Export Plug-In . SVG Version: 6.00 Build 0)  -->
<svg xmlns="http://www.w3.org/2000/svg" xmlns:xlink="http://www.w3.org/1999/xlink" version="1.1" id="Capa_1" x="0px" y="0px" viewBox="0 0 512 512" style="enable-background:new 0 0 512 512;" xml:space="preserve">
<g>
	<g>
		<path d="M396.017,174.558h-14.891c-1.416,0-2.808,0.096-4.179,0.264v-14.318c0-33.322-27.11-60.431-60.432-60.431h-170.61    c-33.322,0-60.432,27.109-60.432,60.431v191.452c0,33.322,27.11,60.432,60.432,60.432h170.61c33.322,0,60.432-27.11,60.432-60.432    v-60.322c1.371,0.168,2.763,0.264,4.179,0.264h14.891c17.962,0,30.509-14.096,30.509-34.281V208.84    C426.526,188.656,413.98,174.558,396.017,174.558z M313.919,338.574c-2.946,2.977-6.823,4.466-10.7,4.466    c-3.843,0-7.687-1.463-10.624-4.39L277.4,323.507c-2.494-2.485-6.331-2.994-9.399-1.265c-11.752,6.622-25.45,10.179-40.005,9.569    c-39.563-1.659-71.324-34.285-71.969-73.879c-0.567-34.798,22.634-64.371,54.401-73.519c3.381-0.973,5.731-4.034,5.731-7.551    V159.32c0-8.104,6.228-15.078,14.323-15.459c8.643-0.407,15.778,6.48,15.778,15.034v17.967c0,3.516,2.347,6.577,5.726,7.549    c31.39,9.037,54.417,38.016,54.417,72.273c0,13.03-3.343,25.289-9.202,35.983c-1.689,3.082-1.181,6.901,1.308,9.383l15.015,14.963    C319.45,322.919,319.802,332.629,313.919,338.574z"/>
	</g>
</g>
<g>
	<g>
		<path d="M327.799,458.141l-0.123-0.611c-0.697-3.463-1.171-6.958-1.425-10.465c-0.297-4.103-3.759-7.187-7.872-7.175    c-0.05,0-0.1,0-0.151,0H147.616c-1.056,0-2.105-0.028-3.148-0.084c-4.201-0.225-7.803,2.975-8.105,7.171    c-0.263,3.667-0.767,7.326-1.515,10.95c-2.748,13.302,0.595,26.971,9.174,37.502C152.6,505.96,165.31,512,178.893,512h104.016    c13.209,0,25.981-5.428,34.668-15.38C326.839,486.006,330.568,471.888,327.799,458.141z"/>
	</g>
</g>
<g>
	<g>
		<path d="M318.397,16.571C309.82,6.04,297.11,0,283.527,0H179.512c-13.209,0-25.981,5.428-34.668,15.38    c-9.263,10.614-12.992,24.732-10.222,38.479l0.123,0.611c0.7,3.473,1.175,6.979,1.43,10.497c0.304,4.203,3.9,7.417,8.108,7.187    c1.067-0.058,2.142-0.088,3.224-0.088h170.61c0.026,0,0.052,0,0.078,0c4.106,0.006,7.571-3.061,7.87-7.157    c0.265-3.629,0.765-7.249,1.505-10.836C330.319,40.771,326.976,27.102,318.397,16.571z"/>
	</g>
</g>
<g>
	<g>
		<path d="M246.314,292.53l-23.327-23.247c-4.109-2.688-6.828-7.322-6.828-12.597v-35.811c0-3.262-3.486-5.413-6.354-3.859    c-14.786,8.008-24.62,24.034-23.617,42.212c1.234,22.375,19.101,40.673,41.443,42.413c5.941,0.463,11.664-0.239,16.971-1.894    C247.699,298.779,248.612,294.821,246.314,292.53z"/>
	</g>
</g>
<g>
	<g>
		<path d="M252.748,217.087c-2.922-1.594-6.488,0.46-6.488,3.789v27.3c0,1.156,0.461,2.264,1.278,3.079l19.771,19.702    c2.349,2.341,6.344,1.296,7.258-1.89c1.129-3.935,1.735-8.087,1.735-12.381C276.302,239.618,266.768,224.741,252.748,217.087z"/>
	</g>
</g>
<g>
</g>
<g>
</g>
<g>
</g>
<g>
</g>
<g>
</g>
<g>
</g>
<g>
</g>
<g>
</g>
<g>
</g>
<g>
</g>
<g>
</g>
<g>
</g>
<g>
</g>
<g>
</g>
<g>
</g>
</svg>
