<?xml version="1.0" encoding="iso-8859-1"?>
<!-- Generator: Adobe Illustrator 19.0.0, SVG Export Plug-In . SVG Version: 6.00 Build 0)  -->
<svg xmlns="http://www.w3.org/2000/svg" xmlns:xlink="http://www.w3.org/1999/xlink" version="1.1" id="Capa_1" x="0px" y="0px" viewBox="0 0 512.002 512.002" style="enable-background:new 0 0 512.002 512.002;" xml:space="preserve">
<g>
	<g>
		<path d="M378.796,408.582H220.678c-3.836,0-7.285,2.746-7.744,6.554c-0.547,4.536,2.995,8.406,7.424,8.406h158.117    c3.836,0,7.285-2.746,7.744-6.554C386.766,412.45,383.224,408.582,378.796,408.582z"/>
	</g>
</g>
<g>
	<g>
		<path d="M299.576,166.801c-22.199,0-40.258,18.059-40.258,40.258v65.85c0,22.198,18.06,40.258,40.258,40.258    c22.199,0,40.258-18.059,40.258-40.258v-65.85C339.835,184.86,321.775,166.801,299.576,166.801z"/>
	</g>
</g>
<g>
	<g>
		<path d="M470.251,40.936C455.08,16.39,427.931,0,397.014,0H203.201c-30.917,0-58.066,16.39-73.238,40.935    c-8.129,13.152,1.59,30.128,17.052,30.128H453.2C468.661,71.062,478.382,54.088,470.251,40.936z"/>
	</g>
</g>
<g>
	<g>
		<path d="M463.198,101.083H137.016c-10.983,0-19.888,8.904-19.888,19.888v216.213h-10.587c-42.803,0-77.627,34.823-77.627,77.627    v82.18c0,8.29,6.721,15.01,15.01,15.01c8.29,0,15.01-6.721,15.01-15.01v-82.18c0-26.25,21.356-47.606,47.607-47.606h10.587v58.724    c0,47.536,38.536,86.073,86.073,86.073h193.813c47.536,0,86.073-38.536,86.073-86.073V120.97    C483.087,109.987,474.184,101.083,463.198,101.083z M229.297,207.059c0-38.752,31.528-70.279,70.279-70.279    s70.279,31.526,70.279,70.279v65.85c0,38.752-31.527,70.279-70.279,70.279s-70.279-31.526-70.279-70.279V207.059z     M378.796,453.561H220.358c-20.678,0-37.501-16.822-37.501-37.501s16.823-37.501,37.501-37.501h158.437    c20.678,0,37.501,16.822,37.501,37.501S399.472,453.561,378.796,453.561z"/>
	</g>
</g>
<g>
</g>
<g>
</g>
<g>
</g>
<g>
</g>
<g>
</g>
<g>
</g>
<g>
</g>
<g>
</g>
<g>
</g>
<g>
</g>
<g>
</g>
<g>
</g>
<g>
</g>
<g>
</g>
<g>
</g>
</svg>
