<?xml version="1.0" encoding="iso-8859-1"?>
<!-- Generator: Adobe Illustrator 19.0.0, SVG Export Plug-In . SVG Version: 6.00 Build 0)  -->
<svg xmlns="http://www.w3.org/2000/svg" xmlns:xlink="http://www.w3.org/1999/xlink" version="1.1" id="Capa_1" x="0px" y="0px" viewBox="0 0 512 512" style="enable-background:new 0 0 512 512;" xml:space="preserve">
<g>
	<g>
		<path d="M418.963,24.339H93.043c-3.063,0-5.547,2.483-5.547,5.547v29.841c0,5.136,4.163,9.299,9.298,9.299h318.417    c5.136,0,9.299-4.163,9.299-9.299V29.885C424.51,26.823,422.027,24.339,418.963,24.339z"/>
	</g>
</g>
<g>
	<g>
		<path d="M398.203,247.68h-284.4c-3.063,0-5.547,2.483-5.547,5.547v38.995c0,3.063,2.483,5.547,5.547,5.547h284.4    c3.063,0,5.547-2.483,5.547-5.547v-38.995C403.75,250.164,401.267,247.68,398.203,247.68z"/>
	</g>
</g>
<g>
	<g>
		<path d="M401.222,197.593H110.784c-1.396,0-2.528,1.132-2.528,2.528v12.013c0,3.063,2.483,5.547,5.547,5.547h284.4    c3.063,0,5.547-2.483,5.547-5.547V200.12C403.75,198.724,402.618,197.593,401.222,197.593z"/>
	</g>
</g>
<g>
	<g>
		<path d="M461.87,28.531c-3.597-1.259-7.36,1.438-7.36,5.249v25.947c0,21.704-17.594,39.298-39.298,39.298H96.794    c-21.704,0-39.298-17.594-39.298-39.298V33.779c0-3.811-3.762-6.508-7.359-5.25C20.977,38.731,0,66.505,0,99.104V265.24    c0,17.965,14.563,32.528,32.528,32.528h37.196c4.712,0,8.532-3.82,8.532-8.532v-89.117c0-17.965,14.563-32.528,32.528-32.528    h290.438c17.965,0,32.528,14.563,32.528,32.528v89.117c0,4.712,3.82,8.532,8.532,8.532h37.19    c17.965,0,32.528-14.563,32.528-32.528V99.104C512,66.508,491.026,38.734,461.87,28.531z M293.162,149.291h-74.318    c-8.284,0-15-6.716-15-15s6.716-15,15-15h74.318c8.284,0,15,6.716,15,15S301.446,149.291,293.162,149.291z"/>
	</g>
</g>
<g>
	<g>
		<path d="M191.243,392.714c-9.318-13.144-10.722-30.304-3.662-44.785l4.658-9.556c3.63-7.446,0.536-16.426-6.91-20.056    c-7.446-3.629-16.427-0.537-20.057,6.911l-4.658,9.556c-11.866,24.343-9.508,53.188,6.156,75.281    c9.088,12.815,10.649,29.641,4.076,43.911l-5.715,12.405c-3.466,7.524-0.177,16.434,7.348,19.9c2.033,0.937,4.166,1.38,6.267,1.38    c5.674,0,11.104-3.236,13.634-8.727l5.715-12.405C209.145,442.542,206.519,414.258,191.243,392.714z"/>
	</g>
</g>
<g>
	<g>
		<path d="M268.164,392.714c-9.318-13.144-10.722-30.304-3.662-44.785l4.658-9.556c3.63-7.446,0.536-16.426-6.91-20.056    c-7.446-3.629-16.427-0.537-20.057,6.911l-4.658,9.556c-11.866,24.343-9.508,53.188,6.156,75.281    c9.088,12.815,10.649,29.641,4.076,43.911l-5.715,12.405c-3.466,7.524-0.177,16.434,7.348,19.9c2.033,0.937,4.166,1.38,6.267,1.38    c5.674,0,11.104-3.236,13.634-8.727l5.715-12.405C286.066,442.542,283.44,414.258,268.164,392.714z"/>
	</g>
</g>
<g>
	<g>
		<path d="M344.234,392.714c-9.318-13.144-10.721-30.304-3.662-44.785l4.658-9.556c3.63-7.446,0.536-16.426-6.91-20.056    c-7.447-3.629-16.427-0.537-20.057,6.911l-4.658,9.556c-11.866,24.343-9.508,53.188,6.156,75.281    c9.088,12.815,10.649,29.641,4.076,43.911l-5.715,12.405c-3.466,7.524-0.177,16.434,7.348,19.9c2.033,0.937,4.166,1.38,6.267,1.38    c5.674,0,11.104-3.236,13.634-8.727l5.715-12.405C362.136,442.542,359.51,414.258,344.234,392.714z"/>
	</g>
</g>
<g>
</g>
<g>
</g>
<g>
</g>
<g>
</g>
<g>
</g>
<g>
</g>
<g>
</g>
<g>
</g>
<g>
</g>
<g>
</g>
<g>
</g>
<g>
</g>
<g>
</g>
<g>
</g>
<g>
</g>
</svg>
