<?xml version="1.0" encoding="iso-8859-1"?>
<!-- Generator: Adobe Illustrator 19.0.0, SVG Export Plug-In . SVG Version: 6.00 Build 0)  -->
<svg xmlns="http://www.w3.org/2000/svg" xmlns:xlink="http://www.w3.org/1999/xlink" version="1.1" id="Capa_1" x="0px" y="0px" viewBox="0 0 512 512" style="enable-background:new 0 0 512 512;" xml:space="preserve">
<g>
	<g>
		<path d="M347.685,303.573H164.314c-7.223,0-13.078,5.855-13.078,13.078v73.039c0,7.223,5.855,13.078,13.078,13.078h183.372    c7.223,0,13.078-5.855,13.078-13.078v-73.039C360.763,309.428,354.908,303.573,347.685,303.573z"/>
	</g>
</g>
<g>
	<g>
		<path d="M402.782,108.363H109.217c-7.223,0-13.078,5.855-13.078,13.078v93.074c0,7.223,5.855,13.078,13.078,13.078h293.565    c7.223,0,13.078-5.855,13.078-13.078v-93.074C415.861,114.219,410.006,108.363,402.782,108.363z"/>
	</g>
</g>
<g>
	<g>
		<path d="M466.55,33.019H45.449C20.388,33.019,0,53.407,0,78.468v355.064c0,25.061,20.388,45.449,45.449,45.449h421.102    c25.061,0,45.449-20.388,45.449-45.449V78.468C512,53.407,491.611,33.019,466.55,33.019z M447.129,321.355    c0.351,0.351,0.681,0.721,0.992,1.102c0.311,0.381,0.601,0.781,0.872,1.182c0.27,0.411,0.531,0.831,0.761,1.272    c0.23,0.431,0.441,0.872,0.621,1.322c0.19,0.451,0.361,0.922,0.501,1.392c0.14,0.461,0.26,0.942,0.361,1.422    c0.101,0.48,0.17,0.972,0.22,1.463c0.05,0.491,0.07,0.982,0.07,1.473c0,0.491-0.02,0.992-0.07,1.483    c-0.05,0.481-0.12,0.972-0.22,1.453c-0.1,0.481-0.22,0.962-0.361,1.433c-0.14,0.461-0.311,0.932-0.501,1.382    c-0.18,0.451-0.391,0.902-0.621,1.332c-0.23,0.431-0.491,0.852-0.761,1.262c-0.271,0.411-0.561,0.801-0.872,1.182    c-0.311,0.381-0.641,0.751-0.992,1.102c-0.351,0.341-0.721,0.681-1.102,0.992c-0.371,0.311-0.771,0.601-1.182,0.872    s-0.831,0.531-1.262,0.761c-0.431,0.22-0.882,0.441-1.332,0.621c-0.451,0.19-0.922,0.361-1.382,0.501    c-0.471,0.14-0.952,0.26-1.432,0.361c-0.481,0.09-0.972,0.17-1.453,0.22c-0.491,0.05-0.992,0.07-1.483,0.07    c-0.491,0-0.982-0.02-1.473-0.07c-0.491-0.05-0.982-0.13-1.463-0.22c-0.481-0.1-0.962-0.22-1.422-0.361    c-0.471-0.14-0.932-0.31-1.382-0.501c-0.461-0.18-0.902-0.401-1.332-0.621c-0.431-0.23-0.862-0.491-1.262-0.761    c-0.411-0.27-0.811-0.561-1.192-0.872c-0.381-0.311-0.751-0.651-1.092-0.992c-0.351-0.351-0.681-0.721-1.002-1.102    c-0.301-0.381-0.601-0.771-0.872-1.182s-0.521-0.831-0.751-1.262c-0.23-0.431-0.441-0.882-0.631-1.332    c-0.18-0.451-0.351-0.922-0.491-1.382c-0.15-0.471-0.27-0.952-0.361-1.433c-0.1-0.481-0.17-0.972-0.22-1.453    c-0.05-0.491-0.08-0.992-0.08-1.483c0-0.491,0.03-0.982,0.08-1.473c0.05-0.491,0.12-0.982,0.22-1.463    c0.09-0.481,0.21-0.962,0.361-1.422c0.14-0.471,0.311-0.942,0.491-1.392c0.19-0.451,0.401-0.892,0.631-1.322    c0.23-0.441,0.481-0.861,0.751-1.272c0.27-0.401,0.571-0.801,0.872-1.182c0.321-0.381,0.651-0.751,1.002-1.102    c0.341-0.341,0.711-0.671,1.092-0.992c0.381-0.301,0.781-0.601,1.192-0.872c0.401-0.271,0.831-0.521,1.262-0.751    c0.431-0.23,0.872-0.441,1.332-0.631c0.451-0.19,0.912-0.351,1.382-0.501c0.461-0.14,0.942-0.26,1.422-0.361    c0.481-0.09,0.972-0.17,1.463-0.22c0.982-0.09,1.973-0.09,2.955,0c0.481,0.05,0.972,0.13,1.453,0.22    c0.481,0.1,0.962,0.22,1.432,0.361c0.461,0.15,0.932,0.311,1.382,0.501c0.451,0.19,0.902,0.401,1.332,0.631    c0.431,0.23,0.852,0.481,1.262,0.751c0.411,0.27,0.811,0.571,1.182,0.872C446.408,320.684,446.778,321.015,447.129,321.355z     M66.086,104.044c0-14.19,11.544-25.733,25.733-25.733H420.18c14.19,0,25.733,11.544,25.733,25.733v127.869    c0,14.19-11.544,25.733-25.733,25.733H91.819c-14.19,0-25.733-11.544-25.733-25.733V104.044z M100.356,372.12H90.273v10.082    c0,8.299-6.728,15.026-15.026,15.026c-8.298,0-15.026-6.728-15.026-15.026V372.12H50.139c-8.299,0-15.026-6.728-15.026-15.026    c0-8.299,6.728-15.026,15.026-15.026h10.082v-10.082c0-8.299,6.728-15.026,15.026-15.026c8.298,0,15.026,6.728,15.026,15.026    v10.082h10.082c8.299,0,15.026,6.728,15.026,15.026C115.382,365.393,108.655,372.12,100.356,372.12z M365.084,432.821H146.916    c-14.19,0-25.733-11.544-25.733-25.733V299.253c0-14.19,11.544-25.733,25.733-25.733h218.167c14.19,0,25.733,11.544,25.733,25.733    v107.834h0.001C390.817,421.278,379.273,432.821,365.084,432.821z M419.8,367.516c-0.411,0.27-0.831,0.521-1.262,0.751    c-0.431,0.23-0.882,0.441-1.332,0.631c-0.451,0.19-0.922,0.351-1.382,0.501c-0.471,0.14-0.952,0.26-1.432,0.361    c-0.481,0.09-0.972,0.17-1.453,0.22c-0.491,0.05-0.992,0.07-1.483,0.07c-0.491,0-0.982-0.02-1.473-0.07    c-0.491-0.05-0.982-0.13-1.463-0.22c-0.481-0.1-0.952-0.22-1.422-0.361c-0.471-0.15-0.932-0.311-1.382-0.501    c-0.451-0.19-0.902-0.401-1.332-0.631c-0.431-0.23-0.862-0.481-1.262-0.751c-0.411-0.27-0.811-0.561-1.192-0.872    c-0.381-0.311-0.751-0.651-1.092-0.992c-0.351-0.351-0.681-0.721-0.992-1.102c-0.311-0.381-0.611-0.771-0.882-1.182    s-0.521-0.831-0.751-1.262c-0.23-0.431-0.441-0.882-0.631-1.332c-0.18-0.451-0.351-0.922-0.491-1.382    c-0.15-0.471-0.27-0.952-0.361-1.432c-0.1-0.481-0.17-0.972-0.22-1.453c-0.05-0.491-0.08-0.992-0.08-1.483    c0-0.491,0.03-0.982,0.08-1.473c0.05-0.491,0.12-0.982,0.22-1.463c0.09-0.481,0.21-0.962,0.361-1.423    c0.14-0.471,0.311-0.942,0.491-1.392c0.19-0.451,0.401-0.892,0.631-1.322c0.23-0.441,0.481-0.861,0.751-1.272    c0.27-0.401,0.571-0.801,0.882-1.182c0.311-0.381,0.641-0.751,0.992-1.102c0.341-0.341,0.711-0.681,1.092-0.992    c0.381-0.31,0.781-0.601,1.192-0.872c0.401-0.27,0.831-0.521,1.262-0.751c0.431-0.23,0.882-0.441,1.332-0.631    c0.451-0.19,0.912-0.351,1.382-0.491c0.471-0.15,0.942-0.271,1.422-0.361c0.481-0.1,0.972-0.18,1.463-0.22    c0.982-0.1,1.973-0.1,2.955,0c0.481,0.04,0.972,0.12,1.453,0.22c0.481,0.09,0.962,0.21,1.432,0.361    c0.461,0.14,0.932,0.3,1.382,0.491c0.451,0.19,0.902,0.401,1.332,0.631c0.431,0.23,0.852,0.481,1.262,0.751    c0.411,0.271,0.811,0.561,1.182,0.872c0.391,0.311,0.751,0.651,1.102,0.992c0.351,0.351,0.681,0.721,0.992,1.102    c0.311,0.381,0.601,0.781,0.882,1.182c0.26,0.411,0.521,0.831,0.751,1.272c0.23,0.431,0.441,0.872,0.621,1.322    c0.19,0.451,0.361,0.922,0.501,1.392c0.14,0.461,0.26,0.942,0.361,1.423c0.1,0.481,0.17,0.972,0.22,1.463s0.07,0.982,0.07,1.473    c0,0.491-0.02,0.992-0.07,1.483c-0.05,0.481-0.12,0.972-0.22,1.453c-0.1,0.481-0.22,0.962-0.361,1.432    c-0.14,0.461-0.311,0.932-0.501,1.382c-0.18,0.451-0.391,0.902-0.621,1.332c-0.23,0.43-0.491,0.852-0.751,1.262    c-0.281,0.411-0.571,0.801-0.882,1.182c-0.31,0.381-0.641,0.751-0.992,1.102c-0.351,0.341-0.711,0.681-1.102,0.992    C420.613,366.955,420.212,367.246,419.8,367.516z M451.457,379.547c-0.05,0.481-0.12,0.972-0.22,1.453    c-0.1,0.481-0.22,0.962-0.361,1.432c-0.14,0.461-0.311,0.932-0.501,1.382c-0.18,0.451-0.391,0.902-0.621,1.332    c-0.23,0.431-0.491,0.852-0.761,1.262c-0.27,0.41-0.561,0.801-0.872,1.182c-0.311,0.381-0.641,0.751-0.992,1.102    c-0.351,0.341-0.721,0.681-1.102,0.992c-0.371,0.311-0.771,0.601-1.182,0.872c-0.411,0.27-0.831,0.521-1.262,0.751    c-0.431,0.23-0.882,0.441-1.332,0.631c-0.451,0.19-0.922,0.351-1.382,0.501c-0.471,0.14-0.952,0.26-1.432,0.361    c-0.481,0.09-0.972,0.17-1.453,0.22c-0.491,0.05-0.992,0.07-1.483,0.07c-0.491,0-0.982-0.02-1.473-0.07    c-0.491-0.05-0.982-0.13-1.463-0.22c-0.481-0.1-0.962-0.22-1.423-0.361c-0.471-0.15-0.932-0.311-1.382-0.501    c-0.461-0.19-0.902-0.401-1.332-0.631c-0.431-0.23-0.862-0.481-1.262-0.751c-0.411-0.27-0.811-0.561-1.192-0.872    c-0.381-0.311-0.751-0.651-1.092-0.992c-0.351-0.351-0.681-0.721-1.002-1.102c-0.3-0.381-0.601-0.771-0.872-1.182    c-0.27-0.411-0.521-0.831-0.751-1.262c-0.23-0.431-0.441-0.882-0.631-1.332c-0.18-0.451-0.351-0.922-0.491-1.382    c-0.15-0.471-0.27-0.952-0.361-1.432c-0.1-0.481-0.17-0.972-0.22-1.453c-0.05-0.491-0.08-0.992-0.08-1.483    c0-0.491,0.03-0.992,0.08-1.473c0.05-0.491,0.12-0.982,0.22-1.463c0.09-0.481,0.21-0.962,0.361-1.423    c0.14-0.471,0.311-0.942,0.491-1.392c0.19-0.451,0.401-0.892,0.631-1.322c0.23-0.441,0.481-0.862,0.751-1.272    c0.271-0.401,0.571-0.801,0.872-1.182c0.321-0.381,0.651-0.751,1.002-1.102c0.341-0.341,0.711-0.671,1.092-0.992    c0.381-0.3,0.781-0.601,1.192-0.872c0.401-0.27,0.831-0.521,1.262-0.751c0.431-0.23,0.872-0.441,1.332-0.631    c0.451-0.19,0.912-0.351,1.382-0.491c0.461-0.15,0.942-0.27,1.423-0.361c0.481-0.1,0.972-0.18,1.463-0.22    c0.982-0.1,1.974-0.1,2.955,0c0.481,0.04,0.972,0.12,1.453,0.22c0.481,0.09,0.962,0.21,1.432,0.361    c0.461,0.14,0.932,0.301,1.382,0.491c0.451,0.19,0.902,0.401,1.332,0.631c0.431,0.23,0.852,0.481,1.262,0.751    c0.411,0.27,0.811,0.571,1.182,0.872c0.381,0.321,0.751,0.651,1.102,0.992c0.351,0.351,0.681,0.721,0.992,1.102    c0.311,0.381,0.601,0.781,0.872,1.182c0.27,0.411,0.531,0.831,0.761,1.272c0.23,0.431,0.441,0.872,0.621,1.322    c0.19,0.451,0.361,0.922,0.501,1.392c0.14,0.461,0.26,0.942,0.361,1.423c0.1,0.481,0.17,0.972,0.22,1.463    c0.05,0.481,0.07,0.982,0.07,1.473C451.526,378.556,451.506,379.057,451.457,379.547z M476.501,356.507    c-0.05,0.481-0.12,0.972-0.22,1.453c-0.1,0.481-0.22,0.962-0.361,1.432c-0.14,0.461-0.311,0.932-0.501,1.382    c-0.18,0.451-0.391,0.902-0.621,1.332c-0.23,0.43-0.491,0.852-0.761,1.262c-0.27,0.411-0.561,0.801-0.872,1.182    c-0.311,0.381-0.641,0.751-0.992,1.102c-0.351,0.341-0.711,0.681-1.102,0.992c-0.371,0.311-0.771,0.601-1.182,0.872    c-0.411,0.27-0.831,0.521-1.262,0.751c-0.431,0.23-0.882,0.441-1.332,0.631c-0.451,0.19-0.922,0.351-1.382,0.501    c-0.471,0.14-0.952,0.26-1.432,0.361c-0.481,0.09-0.972,0.17-1.453,0.22c-0.491,0.05-0.992,0.07-1.483,0.07    c-0.491,0-0.982-0.02-1.473-0.07c-0.491-0.05-0.982-0.13-1.463-0.22c-0.481-0.1-0.952-0.22-1.422-0.361    c-0.471-0.15-0.932-0.311-1.382-0.501c-0.451-0.19-0.902-0.401-1.332-0.631c-0.431-0.23-0.862-0.481-1.262-0.751    c-0.411-0.27-0.811-0.561-1.192-0.872c-0.381-0.311-0.751-0.651-1.092-0.992c-0.351-0.351-0.681-0.721-0.992-1.102    c-0.311-0.381-0.611-0.771-0.882-1.182s-0.521-0.831-0.751-1.262c-0.23-0.431-0.441-0.882-0.631-1.332    c-0.18-0.451-0.351-0.922-0.491-1.382c-0.15-0.471-0.27-0.952-0.361-1.432c-0.1-0.481-0.17-0.972-0.22-1.453    c-0.05-0.491-0.08-0.992-0.08-1.483c0-0.491,0.03-0.982,0.08-1.473c0.05-0.491,0.12-0.982,0.22-1.463    c0.09-0.481,0.21-0.962,0.361-1.423c0.14-0.471,0.311-0.932,0.491-1.392c0.19-0.451,0.401-0.892,0.631-1.322    c0.23-0.431,0.481-0.861,0.751-1.262c0.27-0.411,0.571-0.811,0.882-1.192s0.641-0.751,0.992-1.102    c0.341-0.341,0.711-0.671,1.092-0.992c0.381-0.301,0.781-0.601,1.192-0.872c0.401-0.27,0.831-0.521,1.262-0.751    c0.431-0.23,0.882-0.441,1.332-0.631c0.451-0.19,0.912-0.351,1.382-0.501c0.471-0.14,0.942-0.26,1.422-0.361    c0.481-0.09,0.972-0.17,1.463-0.22c0.982-0.09,1.973-0.09,2.955,0c0.481,0.05,0.972,0.13,1.453,0.22    c0.481,0.1,0.962,0.22,1.432,0.361c0.461,0.15,0.932,0.311,1.382,0.501c0.451,0.19,0.902,0.401,1.332,0.631    c0.431,0.23,0.852,0.481,1.262,0.751c0.411,0.27,0.811,0.571,1.182,0.872c0.391,0.321,0.751,0.651,1.102,0.992    c0.351,0.351,0.681,0.721,0.992,1.102c0.311,0.381,0.601,0.781,0.872,1.192c0.271,0.401,0.531,0.831,0.761,1.262    c0.23,0.431,0.441,0.872,0.621,1.322c0.19,0.461,0.361,0.922,0.501,1.392c0.14,0.461,0.26,0.942,0.361,1.423    c0.1,0.481,0.17,0.972,0.22,1.463s0.07,0.982,0.07,1.473S476.55,356.016,476.501,356.507z"/>
	</g>
</g>
<g>
</g>
<g>
</g>
<g>
</g>
<g>
</g>
<g>
</g>
<g>
</g>
<g>
</g>
<g>
</g>
<g>
</g>
<g>
</g>
<g>
</g>
<g>
</g>
<g>
</g>
<g>
</g>
<g>
</g>
</svg>
