<?xml version="1.0" encoding="iso-8859-1"?>
<!-- Generator: Adobe Illustrator 19.0.0, SVG Export Plug-In . SVG Version: 6.00 Build 0)  -->
<svg xmlns="http://www.w3.org/2000/svg" xmlns:xlink="http://www.w3.org/1999/xlink" version="1.1" id="Capa_1" x="0px" y="0px" viewBox="0 0 512 512" style="enable-background:new 0 0 512 512;" xml:space="preserve">
<g>
	<g>
		<path d="M354.48,0H157.52c-28.208,0-51.156,22.948-51.156,51.156v51.016c0-33.525,27.275-60.8,60.8-60.8h177.673    c33.525,0,60.8,27.275,60.8,60.8V51.156C405.635,22.948,382.687,0,354.48,0z"/>
	</g>
</g>
<g>
	<g>
		<path d="M344.835,471.635H167.163c-33.525,0-60.8-27.275-60.8-60.8v50.009c0,28.208,22.948,51.156,51.156,51.156h196.96    c28.208,0,51.156-22.949,51.156-51.156v-50.009C405.635,444.36,378.361,471.635,344.835,471.635z"/>
	</g>
</g>
<g>
	<g>
		<path d="M344.835,71.372H167.163c-16.983,0-30.8,13.817-30.8,30.8v308.663c0,16.983,13.817,30.8,30.8,30.8h177.672    c16.983,0,30.8-13.817,30.8-30.8V102.172C375.635,85.189,361.819,71.372,344.835,71.372z M227.311,174.804    c1.934,0,3.546,0.645,4.029,2.337l12.249,41.339l6.366-27.237c0.483-2.176,3.304-3.304,6.043-3.304    c2.739,0,5.56,1.128,6.043,3.304l6.366,27.237l12.248-41.339c0.483-1.692,2.096-2.337,4.029-2.337    c3.626,0,8.139,2.257,8.139,4.996c0,0.403-0.08,0.806-0.161,1.048l-16.036,49.154c-0.967,2.82-4.593,4.19-8.3,4.19    c-3.626,0-7.494-1.37-8.139-4.19l-4.19-19.098l-4.19,19.098c-0.645,2.82-4.513,4.19-8.139,4.19c-3.707,0-7.414-1.37-8.3-4.19    l-16.036-49.154c-0.081-0.242-0.161-0.645-0.161-1.048C219.173,177.061,223.686,174.804,227.311,174.804z M145.197,180.848    c-0.081-0.242-0.161-0.645-0.161-1.048c0-2.739,4.513-4.996,8.139-4.996c1.934,0,3.546,0.645,4.029,2.337l12.249,41.339    l6.366-27.237c0.483-2.176,3.304-3.304,6.043-3.304c2.74,0,5.561,1.128,6.044,3.304l6.366,27.237l12.249-41.339    c0.483-1.692,2.095-2.337,4.029-2.337c3.626,0,8.139,2.257,8.139,4.996c0,0.403-0.081,0.806-0.161,1.048l-16.036,49.154    c-0.967,2.82-4.593,4.19-8.3,4.19c-3.626,0-7.494-1.37-8.139-4.19l-4.19-19.098l-4.19,19.098c-0.645,2.82-4.513,4.19-8.139,4.19    c-3.707,0-7.414-1.37-8.3-4.19L145.197,180.848z M345.809,341.212H246.19c-8.284,0-15-6.716-15-15s6.716-15,15-15h99.618    c8.284,0,15,6.716,15,15S354.092,341.212,345.809,341.212z M345.809,287.535H166.19c-8.284,0-15-6.716-15-15s6.716-15,15-15    h179.618c8.284,0,15,6.716,15,15S354.092,287.535,345.809,287.535z M366.799,180.848l-16.036,49.154    c-0.967,2.82-4.593,4.19-8.3,4.19c-3.626,0-7.494-1.37-8.139-4.19l-4.19-19.098l-4.189,19.098c-0.645,2.82-4.513,4.19-8.139,4.19    c-3.707,0-7.414-1.37-8.301-4.19l-16.035-49.154c-0.081-0.242-0.161-0.645-0.161-1.048c0-2.739,4.513-4.996,8.139-4.996    c1.934,0,3.546,0.645,4.029,2.337l12.248,41.339l6.366-27.237c0.483-2.176,3.304-3.304,6.043-3.304    c2.74,0,5.561,1.128,6.044,3.304l6.366,27.237l12.248-41.339c0.483-1.692,2.096-2.337,4.029-2.337    c3.626,0,8.139,2.257,8.139,4.996C366.96,180.203,366.88,180.606,366.799,180.848z"/>
	</g>
</g>
<g>
</g>
<g>
</g>
<g>
</g>
<g>
</g>
<g>
</g>
<g>
</g>
<g>
</g>
<g>
</g>
<g>
</g>
<g>
</g>
<g>
</g>
<g>
</g>
<g>
</g>
<g>
</g>
<g>
</g>
</svg>
