<?xml version="1.0" encoding="iso-8859-1"?>
<!-- Generator: Adobe Illustrator 19.0.0, SVG Export Plug-In . SVG Version: 6.00 Build 0)  -->
<svg xmlns="http://www.w3.org/2000/svg" xmlns:xlink="http://www.w3.org/1999/xlink" version="1.1" id="Capa_1" x="0px" y="0px" viewBox="0 0 511.996 511.996" style="enable-background:new 0 0 511.996 511.996;" xml:space="preserve">
<g>
	<g>
		<path d="M481.219,21.879H30.78C13.807,21.879,0,35.687,0,52.66v272.427c0,16.972,13.807,30.78,30.78,30.78h162.202    l-15.461,103.716c-1.386,9.298,2.215,18.739,9.775,24.772c4.819,3.845,10.898,5.761,17.062,5.761h20.335    c8.997,0,16.292-7.294,16.292-16.292v-67.301c0-8.082,6.211-15.036,14.284-15.416c8.619-0.406,15.735,6.462,15.735,14.992v67.725    c0,8.997,7.294,16.292,16.292,16.292h20.341c6.165,0,12.245-1.916,17.062-5.762c7.561-6.033,11.162-15.473,9.775-24.772    l-15.46-103.716h162.202c16.972,0,30.78-13.807,30.78-30.78V52.66C512,35.687,498.192,21.879,481.219,21.879z M255.993,299.228    c-24.421,0-44.289-19.868-44.289-44.288c0-24.421,19.868-44.289,44.289-44.289c24.421,0,44.289,19.868,44.289,44.289    C300.283,279.361,280.414,299.228,255.993,299.228z M349.987,203.976c-3.607,7.463-12.583,10.589-20.045,6.98    c-22.746-10.997-48.122-16.808-73.387-16.808s-50.642,5.813-73.388,16.808l-1.115,0.539c-2.104,1.017-4.328,1.498-6.518,1.498    c-5.579,0-10.937-3.124-13.526-8.484c-3.605-7.464-0.477-16.438,6.986-20.043l1.111-0.536    c26.79-12.952,56.686-19.799,86.449-19.799c29.762,0,59.657,6.847,86.453,19.802C350.47,187.538,353.595,196.513,349.987,203.976z     M399.873,170.7c-3.14,7.672-11.904,11.347-19.575,8.209l-12.934-5.291c-35.313-14.447-72.563-21.771-110.717-21.771    c-38.153,0-75.404,7.325-110.717,21.771l-12.935,5.291c-1.86,0.76-3.784,1.122-5.677,1.122c-5.915,0-11.519-3.518-13.897-9.331    c-3.139-7.672,0.537-16.436,8.209-19.575l12.935-5.291c38.938-15.929,80.012-24.006,122.083-24.006    c42.07,0,83.145,8.077,122.084,24.006l12.934,5.291C399.337,154.263,403.012,163.027,399.873,170.7z M445.077,137.379    c-2.378,5.812-7.984,9.33-13.898,9.33c-1.893,0-3.817-0.36-5.677-1.122l-17.52-7.167c-48.476-19.831-99.611-29.886-151.986-29.886    c-52.374,0-103.509,10.055-151.985,29.886l-17.52,7.167c-7.672,3.138-16.436-0.537-19.575-8.209s0.536-16.436,8.209-19.575    l17.52-7.167c52.101-21.314,107.06-32.121,163.351-32.121c56.291,0,111.251,10.807,163.352,32.121l17.52,7.167    C444.541,120.943,448.215,129.708,445.077,137.379z"/>
	</g>
</g>
<g>
</g>
<g>
</g>
<g>
</g>
<g>
</g>
<g>
</g>
<g>
</g>
<g>
</g>
<g>
</g>
<g>
</g>
<g>
</g>
<g>
</g>
<g>
</g>
<g>
</g>
<g>
</g>
<g>
</g>
</svg>
