<?xml version="1.0" encoding="iso-8859-1"?>
<!-- Generator: Adobe Illustrator 19.0.0, SVG Export Plug-In . SVG Version: 6.00 Build 0)  -->
<svg version="1.1" id="Layer_1" xmlns="http://www.w3.org/2000/svg" xmlns:xlink="http://www.w3.org/1999/xlink" x="0px" y="0px"
	 viewBox="0 0 360.711 360.711" style="enable-background:new 0 0 360.711 360.711;" xml:space="preserve">
<g id="XMLID_23_">
	<path id="XMLID_24_" d="M330.711,190.356h-120h-30v80h-80V143.739c11.813,5.628,20,17.683,20,31.616c0,8.284,6.716,15,15,15
		c8.284,0,15-6.716,15-15c0-19.434-8.584-36.891-22.146-48.812c6.326,1.377,12.343,4.51,17.251,9.418
		c5.857,5.858,15.355,5.858,21.213,0c5.858-5.858,5.858-15.355,0-21.213c-13.741-13.742-32.155-20.016-50.176-18.855
		c5.447-3.499,11.917-5.539,18.858-5.539c8.284,0,15-6.716,15-15s-6.716-15-15-15c-20.084,0-38.067,9.16-50,23.518
		c-11.933-14.358-29.916-23.518-50-23.518c-8.284,0-15,6.716-15,15s6.716,15,15,15c6.941,0,13.411,2.04,18.858,5.539
		c-18.021-1.16-36.435,5.114-50.176,18.855c-5.858,5.858-5.858,15.355,0,21.213c5.857,5.858,15.356,5.858,21.213,0
		c4.908-4.908,10.925-8.04,17.251-9.418c-13.563,11.921-22.146,29.378-22.146,48.812c0,8.284,6.716,15,15,15c8.284,0,15-6.716,15-15
		c0-13.934,8.187-25.988,20-31.616v126.616h-25c-8.284,0-15,6.716-15,15c0,8.284,6.716,15,15,15h300c8.284,0,15-6.716,15-15v0
		c0,0,0,0,0,0v-94.999H330.711z M255.711,270.355v-25c0-8.284,6.716-15,15-15c8.284,0,15,6.716,15,15v25H255.711z"/>
	<path id="XMLID_27_" d="M270.711,80.356c-4.147,0-8.108,1.716-10.943,4.741l-70.556,75.259h41.122h80.754h41.122l-70.556-75.259
		C278.819,82.072,274.858,80.356,270.711,80.356z"/>
</g>
<g>
</g>
<g>
</g>
<g>
</g>
<g>
</g>
<g>
</g>
<g>
</g>
<g>
</g>
<g>
</g>
<g>
</g>
<g>
</g>
<g>
</g>
<g>
</g>
<g>
</g>
<g>
</g>
<g>
</g>
</svg>
