<?xml version="1.0" encoding="iso-8859-1"?>
<!-- Generator: Adobe Illustrator 19.0.0, SVG Export Plug-In . SVG Version: 6.00 Build 0)  -->
<svg version="1.1" id="Layer_1" xmlns="http://www.w3.org/2000/svg" xmlns:xlink="http://www.w3.org/1999/xlink" x="0px" y="0px"
	 viewBox="0 0 330 330" style="enable-background:new 0 0 330 330;" xml:space="preserve">
<g id="XMLID_17_">
	<path id="XMLID_18_" d="M304.388,289.397C297.037,296.749,293.433,300,285.003,300c-0.002,0-0.005,0-0.008,0
		c-8.427,0-12.034-3.252-19.388-10.604c-8.18-8.179-19.38-19.377-40.564-19.392c-0.015,0-0.028-0.002-0.043-0.002
		c-21.215,0-32.424,11.209-40.607,19.395C177.039,296.749,173.433,300,165.004,300c-0.002,0-0.004,0-0.007,0
		c-8.428,0-12.036-3.252-19.39-10.604c-8.178-8.178-19.377-19.375-40.559-19.392c-0.016,0-0.029-0.002-0.045-0.002
		c-21.214,0-32.424,11.209-40.607,19.395C57.043,296.749,53.437,300,45.008,300c-0.004,0-0.006,0-0.009,0
		c-8.427,0-12.034-3.252-19.388-10.605l-0.002-0.001c-5.857-5.858-15.353-5.857-21.212,0.001
		c-5.858,5.858-5.857,15.355,0.001,21.213C12.582,318.792,23.79,330,44.996,330c0.006,0,0.01,0,0.015,0
		c21.208,0,32.415-11.207,40.599-19.391c7.35-7.35,10.957-10.602,19.375-10.607c0.006,0,0.012,0.001,0.018,0.001
		c8.432,0,12.039,3.251,19.394,10.607c8.185,8.184,19.39,19.391,40.599,19.391c0.006,0,0.01,0,0.014,0
		c21.207,0,32.414-11.207,40.598-19.391c7.35-7.351,10.957-10.603,19.377-10.607c0.007,0,0.014,0.001,0.02,0.001
		c8.431,0,12.037,3.251,19.393,10.607c8.184,8.184,19.39,19.391,40.598,19.391c0.004,0.001,0.009,0,0.014,0
		c21.207-0.002,32.416-11.209,40.598-19.392c5.857-5.858,5.857-15.356-0.001-21.214
		C319.744,283.537,310.246,283.538,304.388,289.397z"/>
	<path id="XMLID_19_" d="M304.388,229.396C297.037,236.749,293.433,240,285.003,240c-0.002,0-0.005,0-0.008,0
		c-8.427,0-12.034-3.252-19.388-10.605c-6.191-6.191-14.118-14.109-26.793-17.601c-5.387-30.189-28.877-54.187-58.815-60.287V83.384
		c11.814,5.628,20,17.683,20,31.616c0,8.284,6.715,15,15,15c8.283,0,15-6.716,15-15c0-19.435-8.585-36.891-22.147-48.813
		c6.326,1.378,12.343,4.511,17.251,9.419c5.857,5.858,15.355,5.858,21.213,0c5.858-5.858,5.858-15.355,0-21.213
		c-13.741-13.742-32.154-20.016-50.175-18.855C201.589,32.039,208.058,30,215,30c8.283,0,15-6.716,15-15s-6.717-15-15-15
		c-20.086,0-38.068,9.159-50,23.518C153.066,9.159,135.084,0,115,0c-8.285,0-15,6.716-15,15s6.715,15,15,15
		c6.941,0,13.411,2.039,18.858,5.539c-18.02-1.161-36.435,5.112-50.177,18.854c-5.857,5.857-5.857,15.354,0,21.213
		c5.857,5.858,15.355,5.858,21.213,0c4.908-4.908,10.926-8.04,17.251-9.418C108.584,78.11,100,95.566,100,115
		c0,8.284,6.715,15,15,15c8.283,0,15-6.716,15-15c0-13.934,8.186-25.988,20-31.616v68.125
		c-29.937,6.102-53.426,30.099-58.812,60.286c-12.674,3.491-20.601,11.41-26.791,17.602C57.043,236.749,53.437,240,45.008,240
		c-0.004,0-0.006,0-0.009,0c-8.427,0-12.034-3.252-19.388-10.605l-0.002-0.001c-5.857-5.858-15.353-5.857-21.212,0.001
		c-5.858,5.857-5.857,15.355,0.001,21.213C12.582,258.792,23.79,270,44.996,270c0.006,0,0.01,0,0.015,0
		c21.208,0,32.415-11.207,40.599-19.391c7.35-7.35,10.957-10.602,19.375-10.607c0.006,0,0.012,0.001,0.018,0.001
		c8.432,0,12.039,3.251,19.394,10.607c8.185,8.184,19.39,19.391,40.599,19.391c0.006,0,0.01,0,0.014,0
		c21.207,0,32.414-11.207,40.598-19.391c7.35-7.351,10.957-10.603,19.377-10.607c0.007,0,0.014,0.001,0.02,0.001
		c8.431,0,12.037,3.251,19.393,10.607c8.184,8.184,19.39,19.391,40.598,19.391c0.004,0,0.009,0,0.014,0
		c21.207-0.002,32.416-11.209,40.598-19.392c5.857-5.858,5.857-15.356-0.001-21.214
		C319.744,223.537,310.246,223.538,304.388,229.396z"/>
</g>
<g>
</g>
<g>
</g>
<g>
</g>
<g>
</g>
<g>
</g>
<g>
</g>
<g>
</g>
<g>
</g>
<g>
</g>
<g>
</g>
<g>
</g>
<g>
</g>
<g>
</g>
<g>
</g>
<g>
</g>
</svg>
