<?xml version="1.0" encoding="iso-8859-1"?>
<!-- Generator: Adobe Illustrator 19.0.0, SVG Export Plug-In . SVG Version: 6.00 Build 0)  -->
<svg version="1.1" id="Layer_1" xmlns="http://www.w3.org/2000/svg" xmlns:xlink="http://www.w3.org/1999/xlink" x="0px" y="0px"
	 viewBox="0 0 330 330" style="enable-background:new 0 0 330 330;" xml:space="preserve">
<g id="XMLID_333_">
	<path id="XMLID_334_" d="M72.497,145c16.429,0,32.524-5.652,45.325-15.916c3.551-2.847,5.617-7.152,5.617-11.703
		c0-4.551-2.066-8.856-5.617-11.703c-10.131-8.123-15.941-20.216-15.941-33.178c0-12.962,5.81-25.057,15.942-33.181
		c3.55-2.847,5.616-7.152,5.616-11.703s-2.066-8.856-5.617-11.702C105.024,5.652,88.926,0,72.497,0C32.522,0,0,32.524,0,72.501
		C0,112.477,32.522,145,72.497,145z"/>
	<path id="XMLID_337_" d="M237.055,330H315c5.438,0,10.451-2.944,13.1-7.694c2.649-4.75,2.52-10.562-0.338-15.189l-105-170
		C220.03,132.693,215.2,130,210,130c-5.201,0-10.029,2.693-12.763,7.118l-39.513,63.974l75.26,122.297L237.055,330z"/>
	<path id="XMLID_338_" d="M201.828,330l-94.263-153.178C104.804,172.577,100.082,170,95,170c-5.209,0-10.045,2.702-12.775,7.139
		l-80,130c-2.848,4.628-2.97,10.435-0.318,15.178C4.557,327.061,9.567,330,15,330h160c0.006,0,0.014,0,0.02,0H201.828z"/>
</g>
<g>
</g>
<g>
</g>
<g>
</g>
<g>
</g>
<g>
</g>
<g>
</g>
<g>
</g>
<g>
</g>
<g>
</g>
<g>
</g>
<g>
</g>
<g>
</g>
<g>
</g>
<g>
</g>
<g>
</g>
</svg>
