<?xml version="1.0" encoding="iso-8859-1"?>
<!-- Generator: Adobe Illustrator 19.0.0, SVG Export Plug-In . SVG Version: 6.00 Build 0)  -->
<svg version="1.1" id="Layer_1" xmlns="http://www.w3.org/2000/svg" xmlns:xlink="http://www.w3.org/1999/xlink" x="0px" y="0px"
	 viewBox="0 0 330.02 330.02" style="enable-background:new 0 0 330.02 330.02;" xml:space="preserve">
<g id="XMLID_244_">
	<path id="XMLID_245_" d="M15,330.01h300c8.284,0,15-6.716,15-15s-6.716-15-15-15h-60v-30h60c0.006,0,0.012,0,0.02,0
		c8.285,0,15-6.716,15-15c0-2.691-0.709-5.218-1.95-7.401L253.416,98.302c-2.54-5.082-7.734-8.292-13.416-8.292
		c-5.682,0-10.876,3.21-13.416,8.292l-75,150c-2.325,4.649-2.077,10.172,0.656,14.594c2.733,4.422,7.562,7.114,12.76,7.114h60v30H15
		c-8.284,0-15,6.716-15,15S6.716,330.01,15,330.01z"/>
	<path id="XMLID_307_" d="M72.497,145.01c39.979,0,72.503-32.523,72.503-72.5s-32.524-72.5-72.503-72.5
		C32.522,0.01,0,32.533,0,72.51S32.522,145.01,72.497,145.01z"/>
</g>
<g>
</g>
<g>
</g>
<g>
</g>
<g>
</g>
<g>
</g>
<g>
</g>
<g>
</g>
<g>
</g>
<g>
</g>
<g>
</g>
<g>
</g>
<g>
</g>
<g>
</g>
<g>
</g>
<g>
</g>
</svg>
