<?xml version="1.0" encoding="iso-8859-1"?>
<!-- Generator: Adobe Illustrator 19.0.0, SVG Export Plug-In . SVG Version: 6.00 Build 0)  -->
<svg version="1.1" id="Layer_1" xmlns="http://www.w3.org/2000/svg" xmlns:xlink="http://www.w3.org/1999/xlink" x="0px" y="0px"
	 viewBox="0 0 330 330" style="enable-background:new 0 0 330 330;" xml:space="preserve">
<g id="XMLID_28_">
	<path id="XMLID_29_" d="M315,130h-40.457C259.52,82.997,215.265,50,165,50c-50.29,0-94.521,32.988-109.544,80H15
		c-8.284,0-15,6.716-15,15s6.716,15,15,15h51.977c0.013,0,0.026,0.002,0.039,0.002c0.015,0,0.029-0.002,0.045-0.002H315
		c8.284,0,15-6.716,15-15S323.284,130,315,130z"/>
	<path id="XMLID_30_" d="M110,265c0,8.284,6.716,15,15,15h80c8.284,0,15-6.716,15-15s-6.716-15-15-15h-80
		C116.716,250,110,256.716,110,265z"/>
	<path id="XMLID_31_" d="M275,220c8.284,0,15-6.716,15-15s-6.716-15-15-15h-80c-8.284,0-15,6.716-15,15s6.716,15,15,15H275z"/>
	<path id="XMLID_71_" d="M135,190H55c-8.284,0-15,6.716-15,15s6.716,15,15,15h80c8.284,0,15-6.716,15-15S143.284,190,135,190z"/>
</g>
<g>
</g>
<g>
</g>
<g>
</g>
<g>
</g>
<g>
</g>
<g>
</g>
<g>
</g>
<g>
</g>
<g>
</g>
<g>
</g>
<g>
</g>
<g>
</g>
<g>
</g>
<g>
</g>
<g>
</g>
</svg>
