<?xml version="1.0" encoding="iso-8859-1"?>
<!-- Generator: Adobe Illustrator 19.0.0, SVG Export Plug-In . SVG Version: 6.00 Build 0)  -->
<svg version="1.1" id="Layer_1" xmlns="http://www.w3.org/2000/svg" xmlns:xlink="http://www.w3.org/1999/xlink" x="0px" y="0px"
	 viewBox="0 0 330.02 330.02" style="enable-background:new 0 0 330.02 330.02;" xml:space="preserve">
<g id="XMLID_221_">
	<path id="XMLID_222_" d="M315,210.01c0.006,0,0.014-0.001,0.02,0c8.285,0,15-6.716,15-15c0-2.691-0.709-5.218-1.95-7.401
		L253.416,38.302c-2.54-5.082-7.734-8.292-13.416-8.292c-5.682,0-10.876,3.21-13.416,8.292l-75,150
		c-2.325,4.649-2.077,10.172,0.656,14.594c2.733,4.422,7.562,7.114,12.76,7.114h60v60H80v-52.096c23.057-6.547,40-27.777,40-52.904
		V125.01c0-30.327-24.673-55-55-55c-30.327,0-55,24.673-55,55v39.999c0,25.127,16.943,46.356,40,52.904v52.096H15
		c-8.284,0-15,6.716-15,15s6.716,15,15,15h300c8.284,0,15-6.716,15-15s-6.716-15-15-15h-60v-60H315z"/>
</g>
<g>
</g>
<g>
</g>
<g>
</g>
<g>
</g>
<g>
</g>
<g>
</g>
<g>
</g>
<g>
</g>
<g>
</g>
<g>
</g>
<g>
</g>
<g>
</g>
<g>
</g>
<g>
</g>
<g>
</g>
</svg>
