<?xml version="1.0" encoding="iso-8859-1"?>
<!-- Generator: Adobe Illustrator 19.0.0, SVG Export Plug-In . SVG Version: 6.00 Build 0)  -->
<svg version="1.1" id="Layer_1" xmlns="http://www.w3.org/2000/svg" xmlns:xlink="http://www.w3.org/1999/xlink" x="0px" y="0px"
	 viewBox="0 0 330 330" style="enable-background:new 0 0 330 330;" xml:space="preserve">
<g id="XMLID_2_">
	<path id="XMLID_4_" d="M315,300h-56.759l-17.503-140h-30.232h-30.507v55c0,8.284-6.716,15-15,15c-8.284,0-15-6.716-15-15v-55
		h-30.505H89.262L71.759,300H15c-8.284,0-15,6.716-15,15s6.716,15,15,15h70h160h70c8.284,0,15-6.716,15-15S323.284,300,315,300z
		 M150,300v-25c0-8.284,6.716-15,15-15s15,6.716,15,15v25H150z"/>
	<path id="XMLID_7_" d="M179.999,130h26.757h30.232h28.011c8.284,0,15-6.716,15-15s-6.716-15-15-15h-45.002h-39.998V15
		c0-8.284-6.716-15-15-15c-8.284,0-15,6.716-15,15v85h-39.996H64.999c-8.284,0-15,6.716-15,15s6.716,15,15,15h28.013h30.232h26.755
		v30h30V130z"/>
</g>
<g>
</g>
<g>
</g>
<g>
</g>
<g>
</g>
<g>
</g>
<g>
</g>
<g>
</g>
<g>
</g>
<g>
</g>
<g>
</g>
<g>
</g>
<g>
</g>
<g>
</g>
<g>
</g>
<g>
</g>
</svg>
