<?xml version="1.0" encoding="iso-8859-1"?>
<!-- Generator: Adobe Illustrator 19.0.0, SVG Export Plug-In . SVG Version: 6.00 Build 0)  -->
<svg xmlns="http://www.w3.org/2000/svg" xmlns:xlink="http://www.w3.org/1999/xlink" version="1.1" id="Layer_1" x="0px" y="0px" viewBox="0 0 512.001 512.001" style="enable-background:new 0 0 512.001 512.001;" xml:space="preserve">
<g>
	<g>
		<path d="M210.238,327.162l25.951-25.951c-9.268-7.62-17.778-16.132-25.4-25.4l-25.951,25.951l-17.706-17.706    c-2.351-2.351-5.566-3.619-8.894-3.499c-3.322,0.119-6.445,1.613-8.623,4.124L23.393,430.325    c-12.354,6.387-20.676,17.916-22.847,31.666c-2.183,13.824,2.242,27.429,12.137,37.326c8.238,8.237,19.045,12.683,30.41,12.683    c2.288,0,4.599-0.18,6.916-0.546c13.749-2.171,25.278-10.492,31.666-22.847l145.644-126.222c2.512-2.177,4.005-5.3,4.124-8.623    c0.119-3.322-1.148-6.544-3.499-8.894L210.238,327.162z"/>
	</g>
</g>
<g>
	<g>
		<path d="M352.516,0.001c-87.94,0-159.485,71.545-159.485,159.485s71.545,159.485,159.485,159.485s159.485-71.545,159.485-159.485    C512,71.546,440.455,0.001,352.516,0.001z M352.516,285.648c-69.567,0-126.162-56.596-126.162-126.162    S282.949,33.324,352.516,33.324s126.162,56.595,126.162,126.162S422.082,285.648,352.516,285.648z"/>
	</g>
</g>
<g>
	<g>
		<path d="M352.516,57.272c-56.36,0-102.213,45.853-102.213,102.213s45.853,102.213,102.213,102.213S454.73,215.846,454.73,159.486    S408.877,57.272,352.516,57.272z M352.516,127.021c-17.901,0-32.465,14.563-32.465,32.465c0,9.919-8.042,17.961-17.961,17.961    c-9.919,0-17.961-8.042-17.961-17.961c0-37.709,30.678-68.387,68.387-68.387c9.919,0,17.961,8.042,17.961,17.961    C370.478,118.979,362.436,127.021,352.516,127.021z"/>
	</g>
</g>
<g>
</g>
<g>
</g>
<g>
</g>
<g>
</g>
<g>
</g>
<g>
</g>
<g>
</g>
<g>
</g>
<g>
</g>
<g>
</g>
<g>
</g>
<g>
</g>
<g>
</g>
<g>
</g>
<g>
</g>
</svg>
