<?xml version="1.0" encoding="iso-8859-1"?>
<!-- Generator: Adobe Illustrator 19.0.0, SVG Export Plug-In . SVG Version: 6.00 Build 0)  -->
<svg xmlns="http://www.w3.org/2000/svg" xmlns:xlink="http://www.w3.org/1999/xlink" version="1.1" id="Layer_1" x="0px" y="0px" viewBox="0 0 512 512" style="enable-background:new 0 0 512 512;" xml:space="preserve">
<g>
	<g>
		<path d="M256,0C114.841,0,0,114.841,0,256s114.841,256,256,256s256-114.841,256-256S397.159,0,256,0z M256,469.608    c-117.784,0-213.609-95.824-213.609-213.609S138.216,42.391,256,42.391S469.609,138.214,469.609,256S373.784,469.608,256,469.608z    "/>
	</g>
</g>
<g>
	<g>
		<path d="M256,67.092C151.836,67.092,67.092,151.836,67.092,256S151.836,444.908,256,444.908S444.908,360.164,444.908,256    S360.164,67.092,256,67.092z M377.874,257.817l6.859,21.111c0.805,2.481,0.805,5.153,0,7.634l-6.622,20.381    c-0.807,2.481-2.376,4.643-4.487,6.175l-17.959,13.047c-1.01,0.734-1.75,1.75-2.135,2.939l-6.859,21.111    c-0.806,2.48-2.376,4.641-4.487,6.175l-17.338,12.596c-2.109,1.534-4.651,2.359-7.26,2.359h-22.198    c-1.25,0-2.445,0.388-3.457,1.124l-17.958,13.047c-2.109,1.533-4.651,2.359-7.26,2.359h-21.431c-2.608,0-5.149-0.825-7.26-2.359    l-17.959-13.047c-1.01-0.735-2.206-1.123-3.456-1.123h-22.198c-2.608,0-5.149-0.825-7.26-2.359l-17.338-12.596    c-2.109-1.533-3.68-3.694-4.487-6.175l-6.859-21.111c-0.387-1.189-1.125-2.206-2.135-2.941l-17.959-13.047    c-2.109-1.533-3.68-3.695-4.487-6.175l-6.622-20.381c-0.805-2.481-0.805-5.153,0-7.634l6.859-21.112    c0.387-1.188,0.387-2.444,0-3.634l-6.859-21.111c-0.805-2.481-0.805-5.153,0-7.634l6.622-20.381    c0.807-2.481,2.376-4.643,4.487-6.175l17.959-13.047c1.01-0.734,1.75-1.75,2.135-2.939l6.859-21.111    c0.807-2.48,2.376-4.641,4.487-6.175l17.338-12.596c2.109-1.534,4.651-2.359,7.26-2.359h22.198c1.25,0,2.445-0.388,3.457-1.124    l17.958-13.047c2.109-1.533,4.651-2.359,7.26-2.359h21.431c2.608,0,5.149,0.825,7.26,2.359l17.959,13.047    c1.01,0.735,2.206,1.123,3.456,1.123h22.198c2.608,0,5.149,0.825,7.26,2.359l17.338,12.596c2.109,1.533,3.68,3.694,4.487,6.175    l6.859,21.111c0.387,1.189,1.125,2.206,2.135,2.941l17.959,13.047c2.109,1.533,3.68,3.695,4.487,6.175l6.622,20.381    c0.805,2.481,0.805,5.153,0,7.634l-6.859,21.112C377.487,255.371,377.487,256.629,377.874,257.817z"/>
	</g>
</g>
<g>
	<g>
		<path d="M354.38,246.552L360,229.256l-4.142-12.748l-14.713-10.688c-5.259-3.821-9.1-9.109-11.109-15.29l-5.619-17.294    l-10.845-7.878h-18.185c-6.5,0-12.715-2.019-17.975-5.839l-14.712-10.689h-13.405l-14.712,10.689    c-5.26,3.82-11.476,5.841-17.975,5.841h-18.185l-10.845,7.878l-5.62,17.294c-2.009,6.183-5.85,11.47-11.109,15.29l-14.713,10.689    l-4.142,12.748l5.62,17.294c2.008,6.183,2.008,12.717,0,18.899l-5.62,17.296l4.142,12.748l14.713,10.688    c5.259,3.821,9.1,9.108,11.109,15.29l5.62,17.294l10.845,7.878h18.185c6.5,0,12.715,2.019,17.975,5.839l14.712,10.689h13.405    l14.712-10.689c5.26-3.82,11.476-5.841,17.975-5.841h18.185l10.845-7.878l5.619-17.294c2.009-6.183,5.85-11.47,11.109-15.29    l14.713-10.689L360,282.745l-5.619-17.294C352.372,259.268,352.372,252.733,354.38,246.552z M256,317.744    c-34.045,0-61.744-27.698-61.744-61.744s27.698-61.744,61.744-61.744s61.744,27.698,61.744,61.744S290.045,317.744,256,317.744z"/>
	</g>
</g>
<g>
</g>
<g>
</g>
<g>
</g>
<g>
</g>
<g>
</g>
<g>
</g>
<g>
</g>
<g>
</g>
<g>
</g>
<g>
</g>
<g>
</g>
<g>
</g>
<g>
</g>
<g>
</g>
<g>
</g>
</svg>
