<?xml version="1.0" encoding="iso-8859-1"?>
<!-- Generator: Adobe Illustrator 19.0.0, SVG Export Plug-In . SVG Version: 6.00 Build 0)  -->
<svg xmlns="http://www.w3.org/2000/svg" xmlns:xlink="http://www.w3.org/1999/xlink" version="1.1" id="Layer_1" x="0px" y="0px" viewBox="0 0 511.999 511.999" style="enable-background:new 0 0 511.999 511.999;" xml:space="preserve">
<g>
	<g>
		<path d="M255.999,0C114.841,0,0,114.841,0,255.999s114.841,255.999,255.999,255.999s255.999-114.841,255.999-255.999    S397.158,0,255.999,0z M255.999,469.608c-117.784,0-213.609-95.824-213.609-213.609S138.215,42.392,255.999,42.392    s213.609,95.824,213.609,213.609S373.783,469.608,255.999,469.608z"/>
	</g>
</g>
<g>
	<g>
		<path d="M255.999,67.093c-104.164,0-188.908,84.744-188.908,188.908s84.744,188.908,188.908,188.908    s188.908-84.744,188.908-188.908S360.163,67.093,255.999,67.093z M186.747,318.86c-1.209,0.374-2.44,0.555-3.658,0.556    c-3.994,0-7.838-1.943-10.184-5.363l-47.565-69.299v62.309c0,6.821-5.531,12.35-12.351,12.35c-6.82,0-12.35-5.529-12.35-12.35    V204.938c0-5.412,3.524-10.193,8.691-11.796c5.171-1.603,10.781,0.345,13.842,4.807l47.565,69.298v-62.309    c0-6.821,5.531-12.351,12.35-12.351s12.35,5.529,12.35,12.351v102.126h0C195.438,312.476,191.914,317.256,186.747,318.86z     M273.116,243.649c6.82,0,12.35,5.529,12.35,12.35c0,6.821-5.531,12.35-12.35,12.35h-32.405v26.362h38.577    c6.82,0,12.351,5.529,12.351,12.35s-5.531,12.35-12.351,12.35H228.36c-6.82,0-12.351-5.529-12.351-12.35V204.936    c0-6.821,5.531-12.35,12.351-12.35h50.927c6.82,0,12.351,5.529,12.351,12.35s-5.531,12.35-12.351,12.35h-38.577v26.362H273.116z     M402.247,308.155c-0.477,5.359-4.366,9.794-9.619,10.964c-5.248,1.168-10.655-1.197-13.359-5.848l-19.015-32.7l-19.014,32.7    c-2.242,3.858-6.344,6.143-10.674,6.143c-0.892,0-1.79-0.096-2.686-0.295c-5.253-1.17-9.142-5.605-9.619-10.964l-9.065-102.126    c-0.603-6.794,4.415-12.791,11.211-13.394c6.785-0.599,12.79,4.417,13.394,11.211l5.628,63.401l10.148-17.454    c2.211-3.803,6.278-6.143,10.677-6.143s8.465,2.34,10.677,6.143l10.15,17.455l5.628-63.402    c0.604-6.794,6.603-11.801,13.394-11.211c6.795,0.603,11.813,6.6,11.211,13.394L402.247,308.155z"/>
	</g>
</g>
<g>
</g>
<g>
</g>
<g>
</g>
<g>
</g>
<g>
</g>
<g>
</g>
<g>
</g>
<g>
</g>
<g>
</g>
<g>
</g>
<g>
</g>
<g>
</g>
<g>
</g>
<g>
</g>
<g>
</g>
</svg>
