<?xml version="1.0" encoding="iso-8859-1"?>
<!-- Generator: Adobe Illustrator 19.0.0, SVG Export Plug-In . SVG Version: 6.00 Build 0)  -->
<svg xmlns="http://www.w3.org/2000/svg" xmlns:xlink="http://www.w3.org/1999/xlink" version="1.1" id="Layer_1" x="0px" y="0px" viewBox="0 0 512.001 512.001" style="enable-background:new 0 0 512.001 512.001;" xml:space="preserve">
<g>
	<g>
		<path d="M256,94.73c-88.925,0-161.271,72.345-161.271,161.271S167.074,417.271,256,417.271s161.271-72.345,161.271-161.271    S344.926,94.73,256,94.73z M256,384.606c-70.915,0-128.607-57.693-128.607-128.607H256V127.393    c70.915,0,128.607,57.693,128.607,128.607S326.915,384.606,256,384.606z"/>
	</g>
</g>
<g>
	<g>
		<path d="M492.43,261.365c-1.139-3.51-1.139-7.219,0-10.728l13.612-41.894c1.228-3.778,1.228-7.85,0-11.63L492.9,156.668    c-1.228-3.778-3.62-7.073-6.834-9.407l-35.637-25.893c-2.984-2.169-5.165-5.168-6.305-8.677l-13.612-41.894    c-1.228-3.78-3.62-7.073-6.836-9.409l-34.405-24.997c-3.215-2.335-7.085-3.593-11.059-3.593h-44.048    c-3.688,0-7.217-1.147-10.203-3.317L288.324,3.593C285.109,1.258,281.237,0,277.264,0h-42.527c-3.974,0-7.845,1.258-11.059,3.593    l-35.636,25.891c-2.986,2.169-6.513,3.317-10.203,3.317H133.79c-3.974,0-7.845,1.258-11.059,3.593L88.325,61.39    c-3.215,2.336-5.609,5.629-6.836,9.409L67.877,112.69c-1.14,3.51-3.321,6.509-6.306,8.68l-35.636,25.892    c-3.215,2.335-5.607,5.629-6.834,9.407L5.959,197.113c-1.228,3.78-1.228,7.852,0,11.63l13.612,41.893    c1.139,3.51,1.139,7.219,0,10.728L5.959,303.256c-1.228,3.778-1.228,7.85,0,11.63l13.142,40.444    c1.228,3.778,3.62,7.073,6.834,9.407l35.637,25.893c2.984,2.169,5.165,5.168,6.305,8.677l13.612,41.894    c1.228,3.78,3.62,7.073,6.836,9.409l34.405,24.997c3.215,2.335,7.085,3.593,11.059,3.593h44.048c3.688,0,7.217,1.147,10.203,3.317    l35.636,25.891c3.215,2.335,7.085,3.593,11.059,3.593h42.527c3.974,0,7.845-1.258,11.059-3.593l35.637-25.892    c2.984-2.169,6.512-3.316,10.201-3.316h44.048c3.974,0,7.845-1.258,11.059-3.593l34.405-24.997    c3.215-2.336,5.609-5.629,6.836-9.409l13.612-41.893c1.14-3.51,3.321-6.509,6.306-8.68l35.636-25.892    c3.215-2.335,5.607-5.629,6.834-9.407l13.142-40.444c1.228-3.78,1.228-7.852,0-11.63L492.43,261.365z M256,442.359    c-102.759,0-186.359-83.602-186.359-186.36S153.241,69.641,256,69.641s186.36,83.6,186.36,186.359S358.759,442.359,256,442.359z"/>
	</g>
</g>
<g>
</g>
<g>
</g>
<g>
</g>
<g>
</g>
<g>
</g>
<g>
</g>
<g>
</g>
<g>
</g>
<g>
</g>
<g>
</g>
<g>
</g>
<g>
</g>
<g>
</g>
<g>
</g>
<g>
</g>
</svg>
