<?xml version="1.0" encoding="iso-8859-1"?>
<!-- Generator: Adobe Illustrator 19.0.0, SVG Export Plug-In . SVG Version: 6.00 Build 0)  -->
<svg xmlns="http://www.w3.org/2000/svg" xmlns:xlink="http://www.w3.org/1999/xlink" version="1.1" id="Layer_1" x="0px" y="0px" viewBox="0 0 512.001 512.001" style="enable-background:new 0 0 512.001 512.001;" xml:space="preserve">
<g>
	<g>
		<path d="M194.148,373.748l-49.276-49.275L41.209,444.087l-1.933,1.025c-7.113,3.768-11.913,10.497-13.172,18.464    c-1.281,8.117,1.316,16.104,7.126,21.914c5.784,5.783,13.835,8.398,21.916,7.126c7.963-1.258,14.693-6.059,18.461-13.17    l1.025-1.935l119.614-103.665C194.219,373.82,194.187,373.786,194.148,373.748z"/>
	</g>
</g>
<g>
	<g>
		<path d="M443.63,112.403c-9.935-13.518-21.976-25.396-35.646-35.132H512v-27.13c0-17.159-13.911-31.07-31.072-31.07H31.072    C13.911,19.069,0,32.98,0,50.141v27.13h43.353c-0.061-0.597-0.091-1.203-0.091-1.816c0-9.816,7.957-17.773,17.773-17.773    s17.773,7.957,17.773,17.773c0,0.614-0.032,1.219-0.091,1.816h19.676c-0.061-0.597-0.091-1.203-0.091-1.816    c0-9.816,7.957-17.773,17.773-17.773s17.773,7.957,17.773,17.773c0,0.614-0.032,1.219-0.091,1.816h19.676    c-0.061-0.597-0.091-1.203-0.091-1.816c0-9.816,7.957-17.773,17.773-17.773s17.773,7.957,17.773,17.773    c0,0.614-0.032,1.219-0.091,1.816h37.708c-13.67,9.736-25.711,21.614-35.645,35.132H0V360.02c0,17.16,13.911,31.07,31.072,31.07    h25.075l71.028-81.956c4.243-4.897,10.391-7.837,16.866-8.069c6.428-0.255,12.789,2.238,17.395,6.846l13.382,13.38l19.397-19.199    c7.284,9.214,15.582,17.588,24.72,24.963l-19.274,19.076l11.047,11.047c2.21,2.209,3.903,4.668,5.032,7.309    c3.968,9.274,1.672,19.869-5.671,26.601H480.93c17.16,0,31.072-13.911,31.072-31.07V112.403H443.63z M202.189,244.528    c-4.263-12.386-6.582-25.67-6.582-39.484c0-67.072,54.567-121.639,121.638-121.639c40.384,0,76.228,19.787,98.363,50.169    c-0.713,0.518-1.406,1.075-2.052,1.713l-84.013,83.008l-32.128-40.541c-3.101-3.914-7.722-6.321-12.707-6.624    c-4.976-0.308-9.862,1.534-13.412,5.045L202.189,244.528z M317.244,326.679c-40.208,0.002-75.916-19.613-98.075-49.772    c0.611-0.464,1.208-0.956,1.768-1.509l61.121-60.455l32.121,40.533c3.1,3.913,7.72,6.32,12.702,6.624    c4.976,0.296,9.859-1.531,13.411-5.039l92.162-91.059c4.165,12.26,6.427,25.391,6.427,39.041    C438.882,272.112,384.315,326.679,317.244,326.679z"/>
	</g>
</g>
<g>
</g>
<g>
</g>
<g>
</g>
<g>
</g>
<g>
</g>
<g>
</g>
<g>
</g>
<g>
</g>
<g>
</g>
<g>
</g>
<g>
</g>
<g>
</g>
<g>
</g>
<g>
</g>
<g>
</g>
</svg>
