<?xml version="1.0" encoding="iso-8859-1"?>
<!-- Generator: Adobe Illustrator 19.0.0, SVG Export Plug-In . SVG Version: 6.00 Build 0)  -->
<svg xmlns="http://www.w3.org/2000/svg" xmlns:xlink="http://www.w3.org/1999/xlink" version="1.1" id="Layer_1" x="0px" y="0px" viewBox="0 0 512 512" style="enable-background:new 0 0 512 512;" xml:space="preserve">
<g>
	<g>
		<path d="M381.869,391.181l-23.229-228.07H153.358l-23.229,228.07c-0.344,3.374,0.758,6.736,3.03,9.253    c2.273,2.517,5.507,3.953,8.898,3.953h227.884c3.391,0,6.623-1.436,8.898-3.953C381.113,397.917,382.213,394.556,381.869,391.181z    "/>
	</g>
</g>
<g>
	<g>
		<path d="M378.044,0h-34.343c-12.031,0-21.819,9.788-21.819,21.819v29.739h-20.896V21.819C300.986,9.788,291.197,0,279.166,0    h-46.334c-12.031,0-21.82,9.788-21.82,21.819v29.739h-20.896V21.819C190.118,9.788,180.329,0,168.298,0h-34.344    c-12.031,0-21.819,9.788-21.819,21.819v115.311c0,0.683,0.071,1.349,0.18,2.001h287.366c0.11-0.652,0.181-1.318,0.181-2.001    V21.819C399.863,9.788,390.075,0,378.044,0z"/>
	</g>
</g>
<g>
	<g>
		<path d="M410.673,476.029h-3.906v-39.186c0-6.621-5.369-11.99-11.99-11.99H117.223c-6.621,0-11.99,5.369-11.99,11.99v39.186    h-3.906c-9.933,0-17.985,8.053-17.985,17.985c0,9.933,8.053,17.985,17.985,17.985h309.347c9.933,0,17.985-8.053,17.985-17.985    C428.659,484.082,420.606,476.029,410.673,476.029z"/>
	</g>
</g>
<g>
</g>
<g>
</g>
<g>
</g>
<g>
</g>
<g>
</g>
<g>
</g>
<g>
</g>
<g>
</g>
<g>
</g>
<g>
</g>
<g>
</g>
<g>
</g>
<g>
</g>
<g>
</g>
<g>
</g>
</svg>
