<?xml version="1.0" encoding="iso-8859-1"?>
<!-- Generator: Adobe Illustrator 19.0.0, SVG Export Plug-In . SVG Version: 6.00 Build 0)  -->
<svg xmlns="http://www.w3.org/2000/svg" xmlns:xlink="http://www.w3.org/1999/xlink" version="1.1" id="Layer_1" x="0px" y="0px" viewBox="0 0 512 512" style="enable-background:new 0 0 512 512;" xml:space="preserve">
<g>
	<g>
		<path d="M50.759,64.833v301.019h410.481V64.833H50.759z M256,316.823c-55.957,0-101.48-45.523-101.48-101.48    c0-55.957,45.523-101.48,101.48-101.48c55.957,0,101.48,45.523,101.48,101.48C357.48,271.3,311.957,316.823,256,316.823z"/>
	</g>
</g>
<g>
	<g>
		<path d="M494.897,412.96H17.103C7.658,412.96,0,420.618,0,430.063s7.658,17.103,17.103,17.103h477.793    c9.446,0,17.103-7.658,17.103-17.103S504.342,412.96,494.897,412.96z"/>
	</g>
</g>
<g>
	<g>
		<circle cx="213.097" cy="172.436" r="22.553"/>
	</g>
</g>
<g>
	<g>
		<circle cx="298.91" cy="258.25" r="22.553"/>
	</g>
</g>
<g>
	<g>
		<path d="M306.97,164.371c-4.453-4.45-11.673-4.451-16.126,0l-85.816,85.816c-4.453,4.453-4.453,11.672,0,16.126    c2.227,2.226,5.145,3.34,8.063,3.34s5.837-1.114,8.063-3.34l85.816-85.816C311.424,176.045,311.424,168.825,306.97,164.371z"/>
	</g>
</g>
<g>
</g>
<g>
</g>
<g>
</g>
<g>
</g>
<g>
</g>
<g>
</g>
<g>
</g>
<g>
</g>
<g>
</g>
<g>
</g>
<g>
</g>
<g>
</g>
<g>
</g>
<g>
</g>
<g>
</g>
</svg>
