<?xml version="1.0" encoding="iso-8859-1"?>
<!-- Generator: Adobe Illustrator 19.0.0, SVG Export Plug-In . SVG Version: 6.00 Build 0)  -->
<svg xmlns="http://www.w3.org/2000/svg" xmlns:xlink="http://www.w3.org/1999/xlink" version="1.1" id="Layer_1" x="0px" y="0px" viewBox="0 0 512 512" style="enable-background:new 0 0 512 512;" xml:space="preserve">
<g>
	<g>
		<rect x="188.197" y="421.99" width="135.614" height="21.904"/>
	</g>
</g>
<g>
	<g>
		<path d="M190.809,469.158c5.206,12.616,17.633,21.521,32.107,21.521h14.134v2.37c0,10.466,8.485,18.951,18.951,18.951    c10.466,0,18.951-8.485,18.951-18.951v-2.37h14.134c14.474,0,26.902-8.904,32.107-21.521H190.809z"/>
	</g>
</g>
<g>
	<g>
		<path d="M329.94,19.92c-7.415-4.316-15.237-8.009-23.396-10.995c-13.747-5.031-28.447-8.066-43.745-8.763    C260.545,0.059,258.28,0,256.001,0c-2.279,0-4.544,0.059-6.798,0.163c-15.299,0.697-29.998,3.732-43.745,8.763    c-8.159,2.987-15.981,6.678-23.396,10.995c-43.921,25.562-73.513,73.154-73.513,127.531c0,17.168,2.927,33.993,8.701,50.011    c0.01,0.027,0.019,0.054,0.029,0.08l60.448,167.373c0.167,0.464,0.363,0.919,0.582,1.358c2.351,4.701,5.56,6.234,9.886,6.735    v23.708h135.611v-23.547c4.737-0.533,8.825-3.699,10.47-8.258c0.08-0.224,8.903-24.654,19.784-54.78l36.788-101.862    c2.037-5.637,3.176-8.793,3.814-10.749l0.059,0.021c5.793-16.039,8.73-32.891,8.73-50.089    C403.451,93.075,373.861,45.484,329.94,19.92z M256.001,314.836c-10.59,0-19.175-8.585-19.175-19.175    c0-10.59,8.585-19.175,19.175-19.175c10.59,0,19.175,8.585,19.175,19.175C275.175,306.251,266.59,314.836,256.001,314.836z     M292.108,187.359l-25.775,25.773v30.067c0,6.977-5.656,12.634-12.634,12.634c-6.978,0-12.634-5.658-12.634-12.634V207.9    c0-3.351,1.332-6.563,3.701-8.934l29.475-29.474c5.496-5.496,8.522-12.802,8.522-20.573c0-13.828-11.251-25.079-25.079-25.079    h-3.367c-13.828,0-25.079,11.249-25.079,25.079c0,6.977-5.656,12.634-12.634,12.634s-12.634-5.658-12.634-12.634    c0-27.763,22.586-50.348,50.347-50.348h3.367c27.762,0,50.347,22.585,50.347,50.347    C308.03,163.438,302.375,177.09,292.108,187.359z"/>
	</g>
</g>
<g>
</g>
<g>
</g>
<g>
</g>
<g>
</g>
<g>
</g>
<g>
</g>
<g>
</g>
<g>
</g>
<g>
</g>
<g>
</g>
<g>
</g>
<g>
</g>
<g>
</g>
<g>
</g>
<g>
</g>
</svg>
