<?xml version="1.0" encoding="iso-8859-1"?>
<!-- Generator: Adobe Illustrator 19.0.0, SVG Export Plug-In . SVG Version: 6.00 Build 0)  -->
<svg xmlns="http://www.w3.org/2000/svg" xmlns:xlink="http://www.w3.org/1999/xlink" version="1.1" id="Layer_1" x="0px" y="0px" viewBox="0 0 512 512" style="enable-background:new 0 0 512 512;" xml:space="preserve">
<g>
	<g>
		<path d="M402.456,75.481c-60.403,0-109.545,49.142-109.545,109.544c0,22.792,7.003,43.976,18.963,61.526l-76.2,76.678    c-7.55-3.484-15.942-5.443-24.787-5.443c-8.749,0-17.052,1.917-24.537,5.33l-47.352-49.675    c10.336-13.202,16.52-29.805,16.52-47.834c0-42.877-34.883-77.759-77.759-77.759S0,182.729,0,225.606s34.883,77.758,77.759,77.758    c9.805,0,19.184-1.843,27.833-5.17l51.458,53.983c-3.539,7.598-5.528,16.056-5.528,24.974c0,32.736,26.632,59.368,59.366,59.368    c32.736,0,59.368-26.632,59.368-59.368c0-8.825-1.95-17.198-5.419-24.734l76.234-76.714    c17.523,11.899,38.654,18.862,61.385,18.862c60.402,0,109.544-49.142,109.544-109.544S462.858,75.481,402.456,75.481z"/>
	</g>
</g>
<g>
</g>
<g>
</g>
<g>
</g>
<g>
</g>
<g>
</g>
<g>
</g>
<g>
</g>
<g>
</g>
<g>
</g>
<g>
</g>
<g>
</g>
<g>
</g>
<g>
</g>
<g>
</g>
<g>
</g>
</svg>
