<?xml version="1.0" encoding="iso-8859-1"?>
<!-- Generator: Adobe Illustrator 19.0.0, SVG Export Plug-In . SVG Version: 6.00 Build 0)  -->
<svg xmlns="http://www.w3.org/2000/svg" xmlns:xlink="http://www.w3.org/1999/xlink" version="1.1" id="Layer_1" x="0px" y="0px" viewBox="0 0 512 512" style="enable-background:new 0 0 512 512;" xml:space="preserve">
<g>
	<g>
		<path d="M466.363,126.945c-6.856-0.044-13.456,1.323-19.661,4.154c-3.451,1.577-7.441,1.454-10.793-0.329    c-3.35-1.785-5.677-5.026-6.298-8.771c-9.315-56.302-57.552-97.167-114.698-97.167c-44.418,0-84.326,24.737-104.15,64.558    c-2.856,5.738-9.674,8.287-15.589,5.823c-10.262-4.262-21.134-6.424-32.314-6.424c-30.05,0-58.059,16.213-73.093,42.311    c-1.699,2.949-4.552,5.054-7.871,5.805c-3.323,0.753-6.801,0.081-9.605-1.849c-7.732-5.324-16.737-8.115-26.133-8.115    c-0.496,0-0.992,0.009-1.492,0.024C20.039,127.739,0,148.846,0,174.017c0,34.494,27.985,62.479,62.384,62.479h184.223    l30.177-41.133c6.808-9.287,17.748-14.873,29.264-14.944h0.076h0.076h0.077c11.424,0,22.345,5.448,29.214,14.571l31.255,41.506    h82.872c34.396,0,62.382-27.985,62.382-62.384C512,148.822,491.101,127.222,466.363,126.945z"/>
	</g>
</g>
<g>
	<g>
		<path d="M394.337,313.737c-0.177-0.279-0.367-0.555-0.569-0.823l-77.756-103.257c-0.863-1.147-1.911-2.117-3.084-2.882    c-0.783-0.51-1.62-0.928-2.498-1.246c-0.878-0.318-1.794-0.536-2.733-0.647c-0.469-0.055-0.945-0.083-1.423-0.083    c-0.026,0-0.051,0-0.077,0c-3.856,0.024-7.473,1.87-9.752,4.98c-1.557,2.121-3.113,4.243-4.669,6.365    c-3.969,5.41-66.174,90.199-69.369,94.553c-0.531,0.725-1.076,1.443-1.597,2.177c-2.7,3.808-3.205,8.804-0.399,12.754    c3.619,5.096,9.458,4.72,14.984,4.712c4.402-0.007,50.288-0.083,53.485-0.089v138.632c0,10.099,8.187,18.286,18.286,18.286    s18.286-8.187,18.286-18.286V330.19l59.633-0.099C393.396,329.95,398.783,320.759,394.337,313.737z"/>
	</g>
</g>
<g>
</g>
<g>
</g>
<g>
</g>
<g>
</g>
<g>
</g>
<g>
</g>
<g>
</g>
<g>
</g>
<g>
</g>
<g>
</g>
<g>
</g>
<g>
</g>
<g>
</g>
<g>
</g>
<g>
</g>
</svg>
