<?xml version="1.0" encoding="iso-8859-1"?>
<!-- Generator: Adobe Illustrator 19.0.0, SVG Export Plug-In . SVG Version: 6.00 Build 0)  -->
<svg xmlns="http://www.w3.org/2000/svg" xmlns:xlink="http://www.w3.org/1999/xlink" version="1.1" id="Layer_1" x="0px" y="0px" viewBox="0 0 511.999 511.999" style="enable-background:new 0 0 511.999 511.999;" xml:space="preserve">
<g>
	<g>
		<g>
			<path d="M442.405,125.309V58.707H170.756c6.566,13.495,10.253,28.638,10.253,44.626c0,1.689-0.044,3.369-0.126,5.039h125.662     c6.541,0,11.845,5.303,11.845,11.845s-5.304,11.845-11.845,11.845h-129.25c-0.131,0-0.259-0.015-0.39-0.02     c-4.734,16.176-13.363,30.702-24.799,42.494H397.28c6.541,0,11.845,5.303,11.845,11.845s-5.304,11.845-11.845,11.845H116.997     c-11.847,4.803-24.787,7.456-38.336,7.456c-13.125,0-25.68-2.486-37.222-7.007V461.99c0,13.97,11.366,25.336,25.336,25.336     H444.62c-1.432-3.888-2.215-8.085-2.215-12.463V125.309z M201.014,397.753H86.564c-6.542,0-11.845-5.303-11.845-11.845     c0-6.542,5.303-11.845,11.845-11.845h114.45c6.542,0,11.845,5.303,11.845,11.845C212.859,392.45,207.556,397.753,201.014,397.753     z M201.014,335.978H86.564c-6.542,0-11.845-5.303-11.845-11.845s5.303-11.845,11.845-11.845h114.45     c6.542,0,11.845,5.303,11.845,11.845S207.556,335.978,201.014,335.978z M201.014,274.203H86.564     c-6.542,0-11.845-5.303-11.845-11.845s5.303-11.845,11.845-11.845h114.45c6.542,0,11.845,5.303,11.845,11.845     S207.556,274.203,201.014,274.203z M409.124,385.908c0,6.542-5.304,11.845-11.845,11.845H268.276     c-6.541,0-11.845-5.303-11.845-11.845v-123.55c0-6.542,5.304-11.845,11.845-11.845h129.003c6.541,0,11.845,5.303,11.845,11.845     V385.908z"/>
			<polygon points="444.62,487.326 444.62,487.326 444.62,487.326    "/>
		</g>
	</g>
</g>
<g>
	<g>
		<path d="M466.094,137.154v337.708h0.001c0,6.872,5.592,12.463,12.464,12.463h5.012h3.09c13.971,0,25.338-11.365,25.338-25.336    V137.154H466.094z"/>
	</g>
</g>
<g>
	<g>
		<path d="M78.66,24.673C35.287,24.673,0,59.959,0,103.333s35.287,78.659,78.66,78.659c43.373,0,78.66-35.287,78.66-78.66    S122.033,24.673,78.66,24.673z M122.499,107.12c0.773,2.38,0.773,4.943,0,7.323l-1.844,5.676    c-0.772,2.378-2.279,4.451-4.302,5.922l-3.221,2.341l-1.231,3.786c-0.773,2.378-2.279,4.453-4.302,5.922l-4.828,3.507    c-2.024,1.471-4.462,2.262-6.962,2.262h-3.981l-3.221,2.341c-2.023,1.471-4.461,2.262-6.962,2.262h-5.968    c-2.502,0-4.938-0.791-6.963-2.262l-3.221-2.341h-3.982c-2.502,0-4.938-0.791-6.962-2.262l-4.828-3.507    c-2.023-1.47-3.529-3.544-4.302-5.922l-1.231-3.786l-3.221-2.341c-2.023-1.47-3.53-3.544-4.302-5.922l-1.844-5.676    c-0.773-2.38-0.773-4.943,0-7.323l1.231-3.786l-1.231-3.786c-0.773-2.38-0.773-4.943,0-7.323l1.844-5.676    c0.772-2.378,2.279-4.451,4.302-5.923l3.222-2.341l1.229-3.786c0.772-2.378,2.279-4.453,4.302-5.922l4.828-3.507    c2.024-1.471,4.462-2.262,6.962-2.262h3.981l3.222-2.341c2.023-1.47,4.461-2.262,6.961-2.262h5.968    c2.503,0,4.939,0.791,6.963,2.262l3.222,2.341h3.981c2.502,0,4.938,0.791,6.962,2.262l4.828,3.507    c2.023,1.47,3.53,3.544,4.302,5.922l1.229,3.786l3.222,2.341c2.023,1.47,3.53,3.543,4.302,5.923l1.844,5.676    c0.773,2.38,0.773,4.943,0,7.323l-1.231,3.786L122.499,107.12z"/>
	</g>
</g>
<g>
	<g>
		<path d="M78.66,82.347c-11.571,0-20.986,9.414-20.986,20.986c0,11.571,9.414,20.986,20.986,20.986    c11.571,0,20.986-9.414,20.986-20.986C99.646,91.761,90.232,82.347,78.66,82.347z"/>
	</g>
</g>
<g>
</g>
<g>
</g>
<g>
</g>
<g>
</g>
<g>
</g>
<g>
</g>
<g>
</g>
<g>
</g>
<g>
</g>
<g>
</g>
<g>
</g>
<g>
</g>
<g>
</g>
<g>
</g>
<g>
</g>
</svg>
