<?xml version="1.0" encoding="iso-8859-1"?>
<!-- Generator: Adobe Illustrator 19.0.0, SVG Export Plug-In . SVG Version: 6.00 Build 0)  -->
<svg xmlns="http://www.w3.org/2000/svg" xmlns:xlink="http://www.w3.org/1999/xlink" version="1.1" id="Layer_1" x="0px" y="0px" viewBox="0 0 512 512" style="enable-background:new 0 0 512 512;" xml:space="preserve">
<g>
	<g>
		<path d="M474.222,58.038c-2.24-2.238-5.3-3.453-8.47-3.342l-52.703,1.777c-6.312,0.213-11.256,5.502-11.042,11.812    c0.213,6.312,5.484,11.26,11.812,11.042l10.682-0.36l1.94,1.94l-18.862,15.052l-80.342,64.115l-41.577-30.22l-71.403-51.899    c-5.693-4.137-13.339-4.376-19.279-0.604L25.077,185.266c-7.996,5.079-10.361,15.677-5.282,23.673    c3.268,5.145,8.819,7.958,14.494,7.958c3.144,0,6.328-0.866,9.178-2.676l47.697-30.295l112.362-71.366l39.935,29.026l74.18,53.917    c6.245,4.536,14.748,4.345,20.782-0.468l112.428-89.72l2.443,2.443l-0.36,10.682c-0.214,6.312,4.731,11.601,11.042,11.812    c0.131,0.005,0.262,0.007,0.392,0.007c6.137,0,11.213-4.869,11.42-11.049l1.777-52.703    C477.672,63.343,476.461,60.277,474.222,58.038z"/>
	</g>
</g>
<g>
	<g>
		<path d="M500.566,434.444h-11.404V217.755c0-13.614-11.077-24.692-24.692-24.692h-36.446c-13.614,0-24.692,11.077-24.692,24.692    v216.688h-32.697V296.69c0-13.614-11.077-24.692-24.692-24.692h-36.446c-13.614,0-24.692,11.077-24.692,24.692v137.755h-32.697    V223.627c0-13.614-11.077-24.692-24.692-24.692h-36.447c-13.614,0-24.69,11.077-24.69,24.692v210.817h-32.698v-70.166    c0-13.614-11.077-24.69-24.692-24.69H72.45c-13.614,0-24.692,11.076-24.692,24.69v70.166H11.434C5.12,434.444,0,439.564,0,445.878    c0,6.314,5.12,11.434,11.434,11.434h489.132c6.314,0,11.434-5.12,11.434-11.434C512,439.564,506.881,434.444,500.566,434.444z"/>
	</g>
</g>
<g>
</g>
<g>
</g>
<g>
</g>
<g>
</g>
<g>
</g>
<g>
</g>
<g>
</g>
<g>
</g>
<g>
</g>
<g>
</g>
<g>
</g>
<g>
</g>
<g>
</g>
<g>
</g>
<g>
</g>
</svg>
