<?xml version="1.0" encoding="iso-8859-1"?>
<!-- Generator: Adobe Illustrator 19.0.0, SVG Export Plug-In . SVG Version: 6.00 Build 0)  -->
<svg xmlns="http://www.w3.org/2000/svg" xmlns:xlink="http://www.w3.org/1999/xlink" version="1.1" id="Layer_1" x="0px" y="0px" viewBox="0 0 512 512" style="enable-background:new 0 0 512 512;" xml:space="preserve">
<g>
	<g>
		<path d="M459.439,94.956c-6.375-0.079-12.513,1.229-18.284,3.863c-3.207,1.466-6.918,1.352-10.036-0.307    c-3.115-1.658-5.279-4.674-5.856-8.155C416.602,38.001,371.745,0,318.604,0c-41.305,0-78.416,23.003-96.851,60.033    c-2.656,5.337-8.996,7.705-14.497,5.416c-9.544-3.964-19.653-5.975-30.05-5.975c-27.944,0-53.99,15.077-67.971,39.346    c-1.58,2.742-4.233,4.699-7.32,5.398c-3.087,0.698-6.324,0.075-8.932-1.72c-7.19-4.951-15.564-7.546-24.299-7.546    c-0.461,0-0.924,0.008-1.39,0.023c-22.904,0.719-41.54,20.346-41.54,43.753v0.09c0,31.988,26.024,58.012,58.012,58.012h57.941    c-1.809,7.363-3.078,14.934-3.765,22.672c-0.396,4.458-0.61,8.968-0.61,13.528c0,35.727,12.416,68.602,33.151,94.557    l-13.856,13.856l-11.873-11.873c-2.225-2.224-5.267-3.434-8.42-3.312c-3.145,0.112-6.102,1.527-8.162,3.904L29.217,444.349    c-10.077,5.337-16.858,14.829-18.641,26.123c-1.813,11.48,1.861,22.777,10.08,30.996C27.497,508.308,36.471,512,45.908,512    c1.901,0,3.82-0.15,5.744-0.453c11.294-1.783,20.784-8.563,26.123-18.641l114.187-98.96c2.379-2.061,3.793-5.017,3.904-8.163    c0.113-3.145-1.087-6.194-3.312-8.419l-11.872-11.873l13.856-13.856c25.955,20.735,58.831,33.151,94.556,33.151    c83.678,0,151.755-68.077,151.755-151.755c0-4.559-0.214-9.07-0.61-13.528c-0.687-7.737-1.955-15.308-3.765-22.671h7.391    c31.988,0,58.012-26.024,58.012-58.012C501.877,115.299,482.443,95.213,459.439,94.956z M289.093,350.778    c-52.866,0-97.703-35.022-112.537-83.082h225.075C386.795,315.756,341.959,350.778,289.093,350.778z M406.833,233.688H171.354    c-0.001-0.22-0.008-0.438-0.008-0.659c0-64.926,52.821-117.747,117.747-117.747s117.747,52.821,117.747,117.747    C406.841,233.249,406.834,233.468,406.833,233.688z"/>
	</g>
</g>
<g>
</g>
<g>
</g>
<g>
</g>
<g>
</g>
<g>
</g>
<g>
</g>
<g>
</g>
<g>
</g>
<g>
</g>
<g>
</g>
<g>
</g>
<g>
</g>
<g>
</g>
<g>
</g>
<g>
</g>
</svg>
