<?xml version="1.0" encoding="iso-8859-1"?>
<!-- Generator: Adobe Illustrator 19.0.0, SVG Export Plug-In . SVG Version: 6.00 Build 0)  -->
<svg xmlns="http://www.w3.org/2000/svg" xmlns:xlink="http://www.w3.org/1999/xlink" version="1.1" id="Layer_1" x="0px" y="0px" viewBox="0 0 512.001 512.001" style="enable-background:new 0 0 512.001 512.001;" xml:space="preserve">
<g>
	<g>
		<path d="M493.895,237.896h-31.892c-8.682-99.616-88.281-179.217-187.899-187.899V18.105C274.104,8.106,265.998,0,255.999,0    s-18.105,8.106-18.105,18.105v31.892C138.278,58.679,58.678,138.28,49.996,237.896H18.105C8.106,237.896,0,246.002,0,256.001    s8.106,18.105,18.105,18.105h31.892c8.682,99.616,88.283,179.217,187.899,187.899v31.892c0,9.999,8.106,18.105,18.105,18.105    s18.105-8.106,18.105-18.105v-31.892c99.616-8.682,179.217-88.283,187.899-187.899h31.892c9.999,0,18.105-8.106,18.105-18.105    S503.894,237.896,493.895,237.896z M413.894,274.104h11.74c-8.439,79.637-71.893,143.091-151.529,151.53v-11.74    c0-9.999-8.106-18.105-18.105-18.105s-18.105,8.106-18.105,18.105v11.74c-79.636-8.439-143.091-71.893-151.53-151.529h11.74    c9.999,0,18.105-8.106,18.105-18.105s-8.106-18.105-18.105-18.105h-11.74c8.439-79.636,71.894-143.091,151.53-151.53v11.74    c0,9.999,8.106,18.105,18.105,18.105s18.105-8.106,18.105-18.105v-11.74c79.636,8.439,143.089,71.894,151.529,151.529h-11.74    c-9.999,0-18.105,8.106-18.105,18.105S403.895,274.104,413.894,274.104z"/>
	</g>
</g>
<g>
	<g>
		<path d="M256.001,149.635c-58.65,0-106.366,47.716-106.366,106.366c0,58.65,47.716,106.366,106.366,106.366    s106.366-47.716,106.366-106.366S314.649,149.635,256.001,149.635z M289.214,272.146c4.713,4.713,4.713,12.356,0,17.069    c-2.357,2.356-5.447,3.535-8.535,3.535c-3.09,0-6.177-1.178-8.535-3.535l-16.145-16.145l-16.145,16.145    c-2.357,2.357-5.446,3.535-8.535,3.535s-6.177-1.178-8.535-3.535c-4.713-4.713-4.714-12.356,0-17.069l16.146-16.146    l-16.146-16.146c-4.713-4.713-4.713-12.356,0-17.069c4.713-4.712,12.356-4.713,17.069,0l16.145,16.145l16.145-16.145    c4.714-4.713,12.355-4.715,17.07,0c4.713,4.713,4.713,12.356,0,17.069l-16.146,16.146L289.214,272.146z"/>
	</g>
</g>
<g>
</g>
<g>
</g>
<g>
</g>
<g>
</g>
<g>
</g>
<g>
</g>
<g>
</g>
<g>
</g>
<g>
</g>
<g>
</g>
<g>
</g>
<g>
</g>
<g>
</g>
<g>
</g>
<g>
</g>
</svg>
