<?xml version="1.0" encoding="iso-8859-1"?>
<!-- Generator: Adobe Illustrator 19.0.0, SVG Export Plug-In . SVG Version: 6.00 Build 0)  -->
<svg xmlns="http://www.w3.org/2000/svg" xmlns:xlink="http://www.w3.org/1999/xlink" version="1.1" id="Layer_1" x="0px" y="0px" viewBox="0 0 511.999 511.999" style="enable-background:new 0 0 511.999 511.999;" xml:space="preserve">
<g>
	<g>
		<path d="M268.614,0.008c45.493,31.443,81.01,73.681,104.035,122.049h101.775C431.354,52.07,355.616,4.246,268.614,0.008z"/>
	</g>
</g>
<g>
	<g>
		<path d="M37.575,122.057h102.58c2.52-5.218,5.182-10.38,7.998-15.468C171.522,64.362,204.444,27.646,243.586,0    C156.5,4.174,80.678,52.016,37.575,122.057z"/>
	</g>
</g>
<g>
	<g>
		<path d="M23.845,147.488c-13.767,29.34-22.143,61.692-23.817,95.779h109.494c1.355-32.569,8.043-64.965,19.701-95.779H23.845z"/>
	</g>
</g>
<g>
	<g>
		<path d="M488.153,147.488H383.395c11.246,30.333,17.789,62.601,19.096,95.779H511.97    C510.297,209.18,501.92,176.828,488.153,147.488z"/>
	</g>
</g>
<g>
	<g>
		<path d="M402.454,268.698c-1.405,32.6-8.039,64.994-19.553,95.779h105.252c13.767-29.341,22.143-61.692,23.817-95.779H402.454z"/>
	</g>
</g>
<g>
	<g>
		<path d="M372.095,389.909c-2.421,5.073-4.973,10.091-7.67,15.041c-23.19,42.561-55.912,79.404-94.861,106.961    c86.603-4.538,161.947-52.271,204.86-122.002H372.095z"/>
	</g>
</g>
<g>
	<g>
		<path d="M109.534,268.698H0.027c1.673,34.088,10.05,66.44,23.817,95.779h104.998C117.527,334.165,110.914,301.9,109.534,268.698z"/>
	</g>
</g>
<g>
	<g>
		<path d="M139.661,389.909H37.575c43.249,70.277,119.442,118.199,206.897,122.09C198.655,480.622,162.873,438.37,139.661,389.909z"/>
	</g>
</g>
<g>
	<g>
		<path d="M356.09,147.488h-86.313v95.779h107.24C375.584,209.915,368.404,177.574,356.09,147.488z"/>
	</g>
</g>
<g>
	<g>
		<path d="M269.776,32.516v89.541h74.384C325.997,87.793,300.837,57.237,269.776,32.516z"/>
	</g>
</g>
<g>
	<g>
		<path d="M135.014,268.698c1.513,33.381,8.767,65.717,21.16,95.779h88.172v-95.779H135.014z"/>
	</g>
</g>
<g>
	<g>
		<path d="M269.776,268.698v95.779h85.621c12.551-30.354,20.001-62.795,21.573-95.779H269.776z"/>
	</g>
</g>
<g>
	<g>
		<path d="M156.807,147.488c-12.746,30.417-20.281,62.865-21.803,95.779h109.342v-95.779H156.807z"/>
	</g>
</g>
<g>
	<g>
		<path d="M168.947,122.057h75.398V31.241C213.151,56.237,187.55,87.387,168.947,122.057z"/>
	</g>
</g>
<g>
	<g>
		<path d="M168.188,389.909c18.546,34.754,44.32,65.642,76.157,90.488v-90.488H168.188z"/>
	</g>
</g>
<g>
	<g>
		<path d="M269.776,389.909v89.956c30.432-24.73,55.422-55.572,73.638-89.956H269.776z"/>
	</g>
</g>
<g>
</g>
<g>
</g>
<g>
</g>
<g>
</g>
<g>
</g>
<g>
</g>
<g>
</g>
<g>
</g>
<g>
</g>
<g>
</g>
<g>
</g>
<g>
</g>
<g>
</g>
<g>
</g>
<g>
</g>
</svg>
