<?xml version="1.0" encoding="iso-8859-1"?>
<!-- Generator: Adobe Illustrator 19.0.0, SVG Export Plug-In . SVG Version: 6.00 Build 0)  -->
<svg xmlns="http://www.w3.org/2000/svg" xmlns:xlink="http://www.w3.org/1999/xlink" version="1.1" id="Layer_1" x="0px" y="0px" viewBox="0 0 512 512" style="enable-background:new 0 0 512 512;" xml:space="preserve">
<g>
	<g>
		<path d="M442.406,474.863V125.309V58.707H170.757c6.566,13.495,10.253,28.638,10.253,44.626c0,1.689-0.044,3.369-0.126,5.039    h125.663c6.542,0,11.845,5.303,11.845,11.845s-5.303,11.845-11.845,11.845H177.296c-0.131,0-0.259-0.015-0.39-0.02    c-4.734,16.176-13.364,30.702-24.799,42.494h245.173c6.542,0,11.845,5.303,11.845,11.845s-5.303,11.845-11.845,11.845H116.997    c-11.847,4.803-24.787,7.456-38.336,7.456c-13.125,0-25.68-2.486-37.222-7.008v263.316c0,13.97,11.366,25.336,25.336,25.336    h377.846v-0.001C443.189,483.439,442.406,479.241,442.406,474.863z M201.015,397.754H86.565c-6.542,0-11.845-5.303-11.845-11.845    c0-6.542,5.303-11.845,11.845-11.845h114.45c6.542,0,11.845,5.303,11.845,11.845C212.86,392.451,207.557,397.754,201.015,397.754z     M201.015,335.979H86.565c-6.542,0-11.845-5.303-11.845-11.845c0-6.542,5.303-11.845,11.845-11.845h114.45    c6.542,0,11.845,5.303,11.845,11.845C212.86,330.676,207.557,335.979,201.015,335.979z M201.015,274.203H86.565    c-6.542,0-11.845-5.303-11.845-11.845s5.303-11.845,11.845-11.845h114.45c6.542,0,11.845,5.303,11.845,11.845    S207.557,274.203,201.015,274.203z M409.125,385.909c0,6.542-5.303,11.845-11.845,11.845H268.276    c-6.542,0-11.845-5.303-11.845-11.845V262.358c0-6.542,5.303-11.845,11.845-11.845H397.28c6.542,0,11.845,5.303,11.845,11.845    V385.909z"/>
	</g>
</g>
<g>
	<g>
		<path d="M466.096,137.154v337.709h0c0,6.872,5.592,12.463,12.464,12.463h5.012h3.091c13.97,0,25.336-11.365,25.336-25.337V137.154    H466.096z"/>
	</g>
</g>
<g>
	<g>
		<path d="M78.66,24.673C35.287,24.673,0,59.959,0,103.332s35.288,78.66,78.66,78.66s78.66-35.287,78.66-78.66    S122.033,24.673,78.66,24.673z M105.713,99.346l-17.192,25.838c-2.196,3.3-5.898,5.283-9.862,5.283    c-3.965,0-7.665-1.983-9.861-5.283L51.605,99.345c-4.241-6.373-3.481-14.662,1.849-20.159c5.329-5.496,13.592-6.512,20.093-2.469    l5.112,3.179l5.112-3.179c6.502-4.043,14.764-3.029,20.094,2.469C109.196,84.682,109.955,92.972,105.713,99.346z"/>
	</g>
</g>
<g>
</g>
<g>
</g>
<g>
</g>
<g>
</g>
<g>
</g>
<g>
</g>
<g>
</g>
<g>
</g>
<g>
</g>
<g>
</g>
<g>
</g>
<g>
</g>
<g>
</g>
<g>
</g>
<g>
</g>
</svg>
