<?xml version="1.0" encoding="iso-8859-1"?>
<!-- Generator: Adobe Illustrator 19.0.0, SVG Export Plug-In . SVG Version: 6.00 Build 0)  -->
<svg xmlns="http://www.w3.org/2000/svg" xmlns:xlink="http://www.w3.org/1999/xlink" version="1.1" id="Layer_1" x="0px" y="0px" viewBox="0 0 512 512" style="enable-background:new 0 0 512 512;" xml:space="preserve">
<g>
	<g>
		<path d="M473.82,83.624H104.264c-21.087,0-38.18,17.095-38.18,38.18v27.902h329.632c27.682,0,50.203,22.521,50.203,50.203V308.07    c4.425-1.76,9.202-2.702,14.107-2.702h13.795c21.087,0,38.18-17.095,38.18-38.18V121.804    C512,100.718,494.907,83.624,473.82,83.624z"/>
	</g>
</g>
<g>
	<g>
		<path d="M421.875,199.909c0-14.425-11.735-26.16-26.16-26.16H26.16c-14.425,0-26.16,11.735-26.16,26.16v145.382    c0,14.425,11.735,26.16,26.16,26.16h226.931c17.252,0,33.083,8.688,42.348,23.241l21.112,33.159    c0.1,0.158,0.333,0.525,0.956,0.525c0.623,0,0.856-0.368,0.956-0.524l21.112-33.159c9.265-14.552,25.096-23.241,42.348-23.241    h13.795c14.425,0,26.16-11.735,26.16-26.16V199.909H421.875z M339.022,320.057H54.126c-6.638,0-12.021-5.382-12.021-12.021    s5.383-12.021,12.021-12.021H339.02c6.638,0,12.022,5.382,12.022,12.021C351.042,314.674,345.66,320.057,339.022,320.057z     M339.02,254.67H54.126c-6.638,0-12.021-5.382-12.021-12.021s5.383-12.021,12.021-12.021H339.02    c6.638,0,12.022,5.382,12.022,12.021S345.659,254.67,339.02,254.67z"/>
	</g>
</g>
<g>
</g>
<g>
</g>
<g>
</g>
<g>
</g>
<g>
</g>
<g>
</g>
<g>
</g>
<g>
</g>
<g>
</g>
<g>
</g>
<g>
</g>
<g>
</g>
<g>
</g>
<g>
</g>
<g>
</g>
</svg>
