<?xml version="1.0" encoding="iso-8859-1"?>
<!-- Generator: Adobe Illustrator 19.0.0, SVG Export Plug-In . SVG Version: 6.00 Build 0)  -->
<svg xmlns="http://www.w3.org/2000/svg" xmlns:xlink="http://www.w3.org/1999/xlink" version="1.1" id="Layer_1" x="0px" y="0px" viewBox="0 0 512 512" style="enable-background:new 0 0 512 512;" xml:space="preserve">
<g>
	<g>
		<path d="M472.643,53.431H39.357c-6.297,0-11.402,5.105-11.402,11.402v323.824c0,6.297,5.105,11.402,11.402,11.402h433.286    c6.296,0,11.402-5.105,11.402-11.402V64.833C484.045,58.536,478.939,53.431,472.643,53.431z M102.07,124.299h72.974v91.044H102.07    V124.299z M407.65,330.92H102.07v-42.98h305.58V330.92z M407.65,215.343H243.458v-91.044H407.65V215.343z"/>
	</g>
</g>
<g>
	<g>
		<path d="M494.897,424.362H17.103C7.658,424.362,0,432.02,0,441.466s7.658,17.103,17.103,17.103h477.793    c9.446,0,17.103-7.658,17.103-17.103S504.342,424.362,494.897,424.362z"/>
	</g>
</g>
<g>
</g>
<g>
</g>
<g>
</g>
<g>
</g>
<g>
</g>
<g>
</g>
<g>
</g>
<g>
</g>
<g>
</g>
<g>
</g>
<g>
</g>
<g>
</g>
<g>
</g>
<g>
</g>
<g>
</g>
</svg>
