<?xml version="1.0" encoding="iso-8859-1"?>
<!-- Generator: Adobe Illustrator 19.0.0, SVG Export Plug-In . SVG Version: 6.00 Build 0)  -->
<svg xmlns="http://www.w3.org/2000/svg" xmlns:xlink="http://www.w3.org/1999/xlink" version="1.1" id="Layer_1" x="0px" y="0px" viewBox="0 0 512 512" style="enable-background:new 0 0 512 512;" xml:space="preserve">
<g>
	<g>
		<path d="M472.643,52.828H39.357c-6.297,0-11.402,5.105-11.402,11.402v323.824c0,6.296,5.105,11.402,11.402,11.402h433.286    c6.297,0,11.402-5.105,11.402-11.402V64.231C484.045,57.933,478.94,52.828,472.643,52.828z M205.83,287.336H102.07    c-6.297,0-11.402-5.105-11.402-11.402c0-6.297,5.105-11.402,11.402-11.402h103.76c6.297,0,11.402,5.105,11.402,11.402    C217.232,282.231,212.128,287.336,205.83,287.336z M205.83,237.545H102.07c-6.297,0-11.402-5.105-11.402-11.402    c0-6.297,5.105-11.402,11.402-11.402h103.76c6.297,0,11.402,5.105,11.402,11.402C217.232,232.44,212.128,237.545,205.83,237.545z     M205.83,187.751H102.07c-6.297,0-11.402-5.105-11.402-11.402c0-6.297,5.105-11.402,11.402-11.402h103.76    c6.297,0,11.402,5.105,11.402,11.402C217.232,182.646,212.128,187.751,205.83,187.751z M335.816,305.958    c-44.01,0-79.816-35.805-79.816-79.816c0-44.01,35.805-79.816,79.816-79.816s79.816,35.805,79.816,79.816    C415.632,270.153,379.826,305.958,335.816,305.958z"/>
	</g>
</g>
<g>
	<g>
		<path d="M494.897,424.965H17.103C7.658,424.965,0,432.623,0,442.068s7.658,17.103,17.103,17.103h477.793    c9.446,0,17.103-7.658,17.103-17.103S504.342,424.965,494.897,424.965z"/>
	</g>
</g>
<g>
	<g>
		<g>
			<path d="M294.261,178.325c-4.394,3.995-8.213,8.613-11.316,13.712c-1.551,2.55-2.922,5.22-4.098,7.993     c-3.133,7.396-4.866,15.522-4.866,24.045h61.833v-61.832C319.832,162.243,305.248,168.338,294.261,178.325z"/>
			<polygon points="335.815,162.243 335.815,162.243 335.816,162.243    "/>
		</g>
	</g>
</g>
<g>
</g>
<g>
</g>
<g>
</g>
<g>
</g>
<g>
</g>
<g>
</g>
<g>
</g>
<g>
</g>
<g>
</g>
<g>
</g>
<g>
</g>
<g>
</g>
<g>
</g>
<g>
</g>
<g>
</g>
</svg>
