<?xml version="1.0" encoding="iso-8859-1"?>
<!-- Generator: Adobe Illustrator 19.0.0, SVG Export Plug-In . SVG Version: 6.00 Build 0)  -->
<svg xmlns="http://www.w3.org/2000/svg" xmlns:xlink="http://www.w3.org/1999/xlink" version="1.1" id="Layer_1" x="0px" y="0px" viewBox="0 0 511.999 511.999" style="enable-background:new 0 0 511.999 511.999;" xml:space="preserve">
<g>
	<g>
		<path d="M463.003,23.853H346.599c0.662-1.868,1.04-3.87,1.04-5.964C347.639,8.009,339.63,0,329.75,0h-147.5    c-9.879,0-17.889,8.009-17.889,17.889c0,2.095,0.379,4.096,1.04,5.964H48.997c-9.879,0-17.889,8.009-17.889,17.889    c0,9.879,8.009,17.889,17.889,17.889h31.149v213c0,23.327,18.911,42.238,42.238,42.238H238.11v11.241    c-3.009,1.405-5.667,3.651-7.565,6.671l-95.412,151.808c-5.258,8.365-2.738,19.407,5.627,24.665    c2.958,1.859,6.249,2.745,9.502,2.745c5.947,0,11.764-2.965,15.162-8.372l72.686-115.65v62.861    c0,9.879,8.009,17.889,17.889,17.889c9.879,0,17.889-8.009,17.889-17.889v-62.861l72.686,115.65    c3.399,5.408,9.215,8.372,15.162,8.372c3.253,0,6.545-0.887,9.502-2.745c8.365-5.257,10.883-16.299,5.627-24.665l-95.412-151.808    c-1.899-3.021-4.557-5.265-7.565-6.671v-11.241h115.725c23.327,0,42.237-18.911,42.237-42.238v-213h31.149    c9.879,0,17.889-8.009,17.889-17.889C480.89,31.862,472.882,23.853,463.003,23.853z M363.27,134.98l-93.015,89.848    c-2.294,2.216-5.283,3.349-8.288,3.349c-2.439,0-4.887-0.745-6.985-2.261l-53.116-38.407l-36.332,37.088    c-4.609,4.705-12.16,4.782-16.865,0.174c-4.705-4.609-4.782-12.16-0.174-16.865l43.517-44.424    c4.131-4.216,10.724-4.776,15.507-1.318l53.345,38.573l85.832-82.91c4.738-4.575,12.287-4.446,16.863,0.292    C368.138,122.855,368.007,130.404,363.27,134.98z"/>
	</g>
</g>
<g>
</g>
<g>
</g>
<g>
</g>
<g>
</g>
<g>
</g>
<g>
</g>
<g>
</g>
<g>
</g>
<g>
</g>
<g>
</g>
<g>
</g>
<g>
</g>
<g>
</g>
<g>
</g>
<g>
</g>
</svg>
