<?xml version="1.0" encoding="iso-8859-1"?>
<!-- Generator: Adobe Illustrator 19.0.0, SVG Export Plug-In . SVG Version: 6.00 Build 0)  -->
<svg xmlns="http://www.w3.org/2000/svg" xmlns:xlink="http://www.w3.org/1999/xlink" version="1.1" id="Layer_1" x="0px" y="0px" viewBox="0 0 512 512" style="enable-background:new 0 0 512 512;" xml:space="preserve">
<g>
	<g>
		<path d="M510.189,326.906H1.811c-0.617,0-1.218-0.06-1.811-0.146v26.92c0,12.957,10.541,23.5,23.498,23.5h195.558h73.888h195.558    c12.957,0,23.498-10.542,23.498-23.5v-26.92C511.407,326.846,510.806,326.906,510.189,326.906z"/>
	</g>
</g>
<g>
	<g>
		<path d="M488.502,29.714H23.498C10.541,29.714,0,40.256,0,53.213v248.862c0.593-0.085,1.194-0.145,1.811-0.145h508.379    c0.617,0,1.219,0.06,1.811,0.146V53.213C512,40.256,501.459,29.714,488.502,29.714z M37.473,149.887    c0-6.897,5.592-12.488,12.488-12.488c6.896,0,12.488,5.591,12.488,12.488V179.2c0,6.897-5.592,12.488-12.488,12.488    c-6.896,0-12.488-5.591-12.488-12.488V149.887z M64.947,266.517H49.961c-6.896,0-12.488-5.591-12.488-12.488v-14.985    c0-6.897,5.592-12.488,12.488-12.488c6.896,0,12.488,5.591,12.488,12.488v2.498h2.498c6.896,0,12.488,5.591,12.488,12.488    C77.434,260.927,71.842,266.517,64.947,266.517z M64.947,87.545h-2.498v2.498c0,6.897-5.592,12.488-12.488,12.488    c-6.896,0-12.488-5.591-12.488-12.488V75.057c0-6.897,5.592-12.488,12.488-12.488h14.985c6.896,0,12.488,5.591,12.488,12.488    S71.842,87.545,64.947,87.545z M146.747,266.517h-26.893c-6.896,0-12.488-5.591-12.488-12.488c0-6.897,5.592-12.488,12.488-12.488    h26.893c6.896,0,12.488,5.591,12.488,12.488C159.234,260.927,153.642,266.517,146.747,266.517z M146.747,87.545h-26.893    c-6.896,0-12.488-5.591-12.488-12.488s5.591-12.488,12.488-12.488h26.893c6.896,0,12.488,5.591,12.488,12.488    S153.642,87.545,146.747,87.545z M228.547,266.517h-26.894c-6.896,0-12.488-5.591-12.488-12.488    c0-6.897,5.592-12.488,12.488-12.488h26.892c6.896,0,12.488,5.591,12.488,12.488C241.033,260.927,235.443,266.517,228.547,266.517    z M228.546,87.545h-26.892c-6.896,0-12.488-5.591-12.488-12.488s5.592-12.488,12.488-12.488h26.892    c6.896,0,12.488,5.591,12.488,12.488S235.441,87.545,228.546,87.545z M283.453,62.569h26.893c6.896,0,12.488,5.591,12.488,12.488    s-5.592,12.488-12.488,12.488h-26.892c-6.896,0-12.488-5.591-12.488-12.488S276.557,62.569,283.453,62.569z M310.347,266.517    h-26.892c-6.896,0-12.488-5.591-12.488-12.488c0-6.897,5.592-12.488,12.488-12.488h26.892c6.896,0,12.488,5.591,12.488,12.488    C322.835,260.927,317.243,266.517,310.347,266.517z M392.146,266.517h-26.893c-6.896,0-12.488-5.591-12.488-12.488    c0-6.897,5.592-12.488,12.488-12.488h26.893c6.896,0,12.488,5.591,12.488,12.488C404.634,260.927,399.043,266.517,392.146,266.517    z M392.146,87.545h-26.893c-6.896,0-12.488-5.591-12.488-12.488s5.592-12.488,12.488-12.488h26.893    c6.896,0,12.488,5.591,12.488,12.488S399.042,87.545,392.146,87.545z M474.527,254.029c0,6.897-5.592,12.488-12.488,12.488    h-14.985c-6.896,0-12.488-5.591-12.488-12.488c0-6.897,5.592-12.488,12.488-12.488h2.498v-2.498    c0-6.897,5.592-12.488,12.488-12.488c6.896,0,12.488,5.591,12.488,12.488V254.029z M474.527,179.2    c0,6.897-5.592,12.488-12.488,12.488c-6.896,0-12.488-5.591-12.488-12.488v-29.311c0-6.897,5.592-12.488,12.488-12.488    c6.896,0,12.488,5.591,12.488,12.488V179.2z M474.527,90.042c0,6.897-5.592,12.488-12.488,12.488    c-6.896,0-12.488-5.591-12.488-12.488v-2.498h-2.498c-6.896,0-12.488-5.591-12.488-12.488s5.592-12.488,12.488-12.488h14.985    c6.896,0,12.488,5.591,12.488,12.488V90.042z"/>
	</g>
</g>
<g>
	<g>
		<path d="M349.733,444.823h-44.302h-24.976v-42.668h-48.912v42.668h-24.976h-44.302c-10.345,0-18.732,8.387-18.732,18.732    s8.387,18.732,18.732,18.732h187.467c10.345,0,18.732-8.387,18.732-18.732S360.078,444.823,349.733,444.823z"/>
	</g>
</g>
<g>
</g>
<g>
</g>
<g>
</g>
<g>
</g>
<g>
</g>
<g>
</g>
<g>
</g>
<g>
</g>
<g>
</g>
<g>
</g>
<g>
</g>
<g>
</g>
<g>
</g>
<g>
</g>
<g>
</g>
</svg>
