<?xml version="1.0" encoding="iso-8859-1"?>
<!-- Generator: Adobe Illustrator 19.0.0, SVG Export Plug-In . SVG Version: 6.00 Build 0)  -->
<svg xmlns="http://www.w3.org/2000/svg" xmlns:xlink="http://www.w3.org/1999/xlink" version="1.1" id="Layer_1" x="0px" y="0px" viewBox="0 0 512 512" style="enable-background:new 0 0 512 512;" xml:space="preserve">
<g>
	<g>
		<path d="M442.397,474.89V125.293V58.682H170.778c6.567,13.497,10.254,28.641,10.254,44.632c0,1.689-0.044,3.369-0.126,5.039    h125.616c6.543,0,11.847,5.304,11.847,11.846s-5.304,11.846-11.847,11.846H177.253c-0.11,0-0.218-0.013-0.327-0.017    c-4.735,16.176-13.364,30.704-24.801,42.497h245.14c6.543,0,11.847,5.304,11.847,11.846c0,6.543-5.304,11.846-11.847,11.846    H117.011c-11.849,4.804-24.79,7.457-38.341,7.457c-13.151,0-25.729-2.495-37.29-7.033v263.374c0,13.972,11.368,25.34,25.34,25.34    h377.894C443.181,483.468,442.397,479.269,442.397,474.89z M200.976,397.772H86.511c-6.543,0-11.846-5.304-11.846-11.846    c0-6.543,5.304-11.847,11.846-11.847h114.464c6.543,0,11.846,5.304,11.846,11.847    C212.822,392.468,207.519,397.772,200.976,397.772z M200.976,335.989H86.511c-6.543,0-11.846-5.304-11.846-11.847    c0-6.543,5.304-11.846,11.846-11.846h114.464c6.543,0,11.846,5.304,11.846,11.846    C212.822,330.685,207.519,335.989,200.976,335.989z M200.976,274.206H86.511c-6.543,0-11.846-5.304-11.846-11.846    c0-6.543,5.304-11.846,11.846-11.846h114.464c6.543,0,11.846,5.304,11.846,11.846    C212.822,268.902,207.519,274.206,200.976,274.206z M409.112,385.925c0,6.543-5.304,11.846-11.847,11.846H268.246    c-6.543,0-11.846-5.304-11.846-11.846V262.359c0-6.543,5.304-11.846,11.846-11.846h129.019c6.543,0,11.847,5.304,11.847,11.846    V385.925z"/>
	</g>
</g>
<g>
	<g>
		<path d="M466.09,137.139V474.89c0,6.873,5.593,12.465,12.466,12.465h5.012h3.092c13.972,0,25.34-11.367,25.34-25.34V137.139    H466.09z"/>
	</g>
</g>
<g>
	<g>
		<path d="M78.67,24.643C35.292,24.643,0,59.934,0,103.313s35.292,78.67,78.67,78.67c43.378,0,78.67-35.292,78.67-78.67    S122.049,24.643,78.67,24.643z M100.281,123.452H68.007c-6.543,0-11.846-5.304-11.846-11.846V82.378    c0-6.543,5.304-11.846,11.846-11.846c6.543,0,11.846,5.304,11.846,11.846v17.381h20.427c6.543,0,11.846,5.304,11.846,11.846    C112.127,118.148,106.823,123.452,100.281,123.452z"/>
	</g>
</g>
<g>
</g>
<g>
</g>
<g>
</g>
<g>
</g>
<g>
</g>
<g>
</g>
<g>
</g>
<g>
</g>
<g>
</g>
<g>
</g>
<g>
</g>
<g>
</g>
<g>
</g>
<g>
</g>
<g>
</g>
</svg>
