<?xml version="1.0" encoding="iso-8859-1"?>
<!-- Generator: Adobe Illustrator 19.0.0, SVG Export Plug-In . SVG Version: 6.00 Build 0)  -->
<svg version="1.1" id="Layer_1" xmlns="http://www.w3.org/2000/svg" xmlns:xlink="http://www.w3.org/1999/xlink" x="0px" y="0px"
	 viewBox="0 0 512 512" style="enable-background:new 0 0 512 512;" xml:space="preserve">
<g>
	<g>
		<path d="M432.988,37.926h-25.284V0h-75.852v37.926H79.012c-20.945,0-37.926,16.981-37.926,37.926v259.161h429.827V75.852
			C470.914,54.907,453.933,37.926,432.988,37.926z M123.259,126.42c-13.942,0-25.284-11.342-25.284-25.284
			s11.342-25.284,25.284-25.284c13.942,0,25.284,11.342,25.284,25.284S137.201,126.42,123.259,126.42z M256,278.123
			c-41.892,0-75.852-33.96-75.852-75.852S214.108,126.42,256,126.42s75.852,33.96,75.852,75.852S297.892,278.123,256,278.123z
			 M414.025,113.778h-37.926V75.852h37.926V113.778z"/>
	</g>
</g>
<g>
	<g>
		<path d="M41.086,372.938v56.889c0,20.945,16.981,37.926,37.926,37.926h31.605v-56.889h290.765v56.889h31.605
			c20.945,0,37.926-16.981,37.926-37.926v-56.889H41.086z"/>
	</g>
</g>
<g>
	<g>
		<rect x="148.543" y="448.79" width="214.914" height="63.21"/>
	</g>
</g>
<g>
</g>
<g>
</g>
<g>
</g>
<g>
</g>
<g>
</g>
<g>
</g>
<g>
</g>
<g>
</g>
<g>
</g>
<g>
</g>
<g>
</g>
<g>
</g>
<g>
</g>
<g>
</g>
<g>
</g>
</svg>
