<?xml version="1.0" encoding="iso-8859-1"?>
<!-- Generator: Adobe Illustrator 19.0.0, SVG Export Plug-In . SVG Version: 6.00 Build 0)  -->
<svg version="1.1" id="Layer_1" xmlns="http://www.w3.org/2000/svg" xmlns:xlink="http://www.w3.org/1999/xlink" x="0px" y="0px"
	 viewBox="0 0 512 512" style="enable-background:new 0 0 512 512;" xml:space="preserve">
<g>
	<g>
		<path d="M304.762,60.952H24.381C10.915,60.952,0,71.868,0,85.333V268.19c0,13.466,10.915,24.381,24.381,24.381h24.381v48.762
			l97.524-48.762h158.476c13.466,0,24.381-10.915,24.381-24.381V85.333C329.143,71.868,318.227,60.952,304.762,60.952z"/>
	</g>
</g>
<g>
	<g>
		<path d="M487.619,170.667H365.714v97.524c0,33.609-27.343,60.952-60.952,60.952H182.857v48.762
			c0,13.466,10.915,24.381,24.381,24.381h158.476l97.524,48.762v-48.762h24.381c13.466,0,24.381-10.915,24.381-24.381V195.048
			C512,181.582,501.085,170.667,487.619,170.667z"/>
	</g>
</g>
<g>
</g>
<g>
</g>
<g>
</g>
<g>
</g>
<g>
</g>
<g>
</g>
<g>
</g>
<g>
</g>
<g>
</g>
<g>
</g>
<g>
</g>
<g>
</g>
<g>
</g>
<g>
</g>
<g>
</g>
</svg>
