<?xml version="1.0" encoding="iso-8859-1"?>
<!-- Generator: Adobe Illustrator 19.0.0, SVG Export Plug-In . SVG Version: 6.00 Build 0)  -->
<svg version="1.1" id="Layer_1" xmlns="http://www.w3.org/2000/svg" xmlns:xlink="http://www.w3.org/1999/xlink" x="0px" y="0px"
	 viewBox="0 0 512 512" style="enable-background:new 0 0 512 512;" xml:space="preserve">
<g>
	<g>
		<circle cx="102.955" cy="102.955" r="45.45"/>
	</g>
</g>
<g>
	<g>
		<path d="M443.825,137.038c0-37.652-30.523-68.175-68.175-68.175H174.805c10.179,21.509,10.179,46.667,0,68.175H443.825z"/>
	</g>
</g>
<g>
	<g>
		<path d="M472.063,102.951c3.783,10.668,5.849,22.139,5.849,34.087H512v-34.087H472.063z"/>
	</g>
</g>
<g>
	<g>
		<path d="M68.863,174.806v200.845c0,37.652,30.523,68.175,68.175,68.175v-269.02C115.529,184.984,90.373,184.984,68.863,174.806z"
			/>
	</g>
</g>
<g>
	<g>
		<path d="M102.951,472.063V512h34.087v-34.087C125.091,477.913,113.618,475.847,102.951,472.063z"/>
	</g>
</g>
<g>
	<g>
		<path d="M24.103,0L0,24.103l35.983,35.984c6.204-9.666,14.434-17.903,24.096-24.112L24.103,0z"/>
	</g>
</g>
<g>
	<g>
		<g>
			<path d="M211.868,455.908l10.036,32.577c11.294-3.479,22.567-7.509,33.506-11.978l-12.89-31.557
				C232.514,449.038,222.201,452.725,211.868,455.908z"/>
			<path d="M262.394,436.141l14.736,30.738c10.65-5.107,21.207-10.755,31.376-16.788l-17.395-29.315
				C281.803,426.297,272.142,431.466,262.394,436.141z"/>
			<path d="M159.009,468l5.13,33.699c11.687-1.779,23.427-4.101,34.894-6.903l-8.088-33.114
				C180.451,464.246,169.705,466.372,159.009,468z"/>
			<path d="M309.467,409.139l19.089,28.241c9.785-6.615,19.397-13.747,28.568-21.197l-21.496-26.455
				C327.229,396.55,318.429,403.083,309.467,409.139z"/>
			<path d="M444.675,243.187l31.529,12.958c4.489-10.926,8.542-22.183,12.044-33.461l-32.552-10.108
				C452.49,222.892,448.783,233.192,444.675,243.187z"/>
			<path d="M467.899,159.746c-1.649,10.69-3.797,21.43-6.385,31.919l33.096,8.163c2.828-11.467,5.177-23.203,6.978-34.885
				L467.899,159.746z"/>
			<path d="M420.435,291.661l29.286,17.446c6.048-10.151,11.711-20.694,16.836-31.33l-30.709-14.794
				C431.158,272.719,425.972,282.367,420.435,291.661z"/>
			<path d="M389.34,336.094l26.423,21.535c7.461-9.156,14.606-18.753,21.236-28.527l-28.211-19.134
				C402.717,318.92,396.173,327.71,389.34,336.094z"/>
			<path d="M352.082,375.54l23.007,25.153c8.714-7.971,17.181-16.428,25.166-25.13l-25.118-23.043
				C367.822,360.493,360.066,368.237,352.082,375.54z"/>
		</g>
	</g>
</g>
<g>
</g>
<g>
</g>
<g>
</g>
<g>
</g>
<g>
</g>
<g>
</g>
<g>
</g>
<g>
</g>
<g>
</g>
<g>
</g>
<g>
</g>
<g>
</g>
<g>
</g>
<g>
</g>
<g>
</g>
</svg>
