<?xml version="1.0" encoding="iso-8859-1"?>
<!-- Generator: Adobe Illustrator 19.0.0, SVG Export Plug-In . SVG Version: 6.00 Build 0)  -->
<svg version="1.1" id="Layer_1" xmlns="http://www.w3.org/2000/svg" xmlns:xlink="http://www.w3.org/1999/xlink" x="0px" y="0px"
	 viewBox="0 0 512 512" style="enable-background:new 0 0 512 512;" xml:space="preserve">
<g>
	<g>
		<path d="M306.444,19.575c-20.685-20.682-54.223-20.682-74.909,0.002c-16.304,16.305-19.744,40.593-10.342,60.281l31.151-31.15
			l24.968,24.967l-31.15,31.151c19.687,9.4,43.976,5.959,60.282-10.342C327.129,73.796,327.129,40.258,306.444,19.575z"/>
	</g>
</g>
<g>
	<g>
		<path d="M52.966,90.094C23.712,90.094,0,113.807,0,143.06C0,166.12,14.74,185.728,35.31,193v-44.053h35.31V193
			c20.569-7.274,35.31-26.881,35.31-49.941C105.931,113.807,82.217,90.094,52.966,90.094z"/>
	</g>
</g>
<g>
	<g>
		<path d="M494.345,143.063v-0.001V66.556h-35.31v76.506h-17.655v35.31h17.655v100.046c0,54.174-22.306,103.23-58.204,138.49
			c7.161-17.297,11.124-36.244,11.124-56.099c0-81.125-66.001-147.126-147.126-147.126c-61.114,0-113.639,37.46-135.835,90.62
			c-0.451-50.315,18.464-100.772,56.768-139.078l60.401-60.4c-5.287-2.526-10.246-5.966-14.624-10.345
			c-4.378-4.38-7.82-9.337-10.345-14.623l-60.4,60.4c-71.531,71.531-85.876,178.914-43.053,264.835
			c-29.349-34.03-47.119-78.315-47.119-126.672v-85.418c-5.524,1.951-11.463,3.025-17.655,3.025s-12.131-1.073-17.655-3.025v85.418
			c0,125.288,100.912,227.434,225.724,229.469c1.261,0.032,2.526,0.048,3.794,0.048s2.532-0.016,3.794-0.048
			c124.811-2.035,225.724-104.181,225.724-229.469V178.374H512v-35.31H494.345z M267.71,472.589c-0.96,0.014-1.92,0.036-2.883,0.036
			c-0.963,0-1.922-0.023-2.883-0.036c-60.329-1.535-108.934-51.087-108.934-111.78c0-61.655,50.161-111.816,111.816-111.816
			s111.816,50.161,111.816,111.816C376.644,421.502,328.039,471.054,267.71,472.589z"/>
	</g>
</g>
<g>
</g>
<g>
</g>
<g>
</g>
<g>
</g>
<g>
</g>
<g>
</g>
<g>
</g>
<g>
</g>
<g>
</g>
<g>
</g>
<g>
</g>
<g>
</g>
<g>
</g>
<g>
</g>
<g>
</g>
</svg>
