<?xml version="1.0" encoding="iso-8859-1"?>
<!-- Generator: Adobe Illustrator 19.0.0, SVG Export Plug-In . SVG Version: 6.00 Build 0)  -->
<svg version="1.1" id="Layer_1" xmlns="http://www.w3.org/2000/svg" xmlns:xlink="http://www.w3.org/1999/xlink" x="0px" y="0px"
	 viewBox="0 0 512 512" style="enable-background:new 0 0 512 512;" xml:space="preserve">
<g>
	<g>
		<path d="M503.131,30.28l-21.41-21.411c-11.824-11.825-30.996-11.825-42.819,0l-26.763,26.763l64.23,64.229l26.761-26.761
			C514.956,61.274,514.956,42.103,503.131,30.28z"/>
	</g>
</g>
<g>
	<g>
		<polygon points="380.025,67.746 0.001,447.77 0.001,512 64.23,512 444.255,131.975 		"/>
	</g>
</g>
<g>
	<g>
		<path d="M80.666,19.575c-17.737-17.735-46.493-17.735-64.23,0C-1.3,37.312-1.3,66.069,16.436,83.804l141.65,141.65l64.23-64.229
			L80.666,19.575z"/>
	</g>
</g>
<g>
	<g>
		<path d="M408.084,346.993l-57.309-57.309l-64.229,64.23l57.307,57.307c11.825,11.825,30.996,11.825,42.819,0l21.411-21.41
			C419.909,377.988,419.909,358.816,408.084,346.993z"/>
	</g>
</g>
<g>
	<g>
		<path d="M492.803,418.411c-10.629-10.628-24.534-15.973-38.464-16.049c-3.592,7.141-8.325,13.748-14.143,19.564l-21.411,21.41
			c-5.816,5.816-12.423,10.549-19.564,14.141c0.077,13.929,5.423,27.836,16.052,38.464c10.703,10.706,24.734,16.058,38.763,16.058
			h54.823l0.002-54.823C508.861,443.147,503.508,429.116,492.803,418.411z"/>
	</g>
</g>
<g>
</g>
<g>
</g>
<g>
</g>
<g>
</g>
<g>
</g>
<g>
</g>
<g>
</g>
<g>
</g>
<g>
</g>
<g>
</g>
<g>
</g>
<g>
</g>
<g>
</g>
<g>
</g>
<g>
</g>
</svg>
