<?xml version="1.0" encoding="iso-8859-1"?>
<!-- Generator: Adobe Illustrator 19.0.0, SVG Export Plug-In . SVG Version: 6.00 Build 0)  -->
<svg version="1.1" id="Layer_1" xmlns="http://www.w3.org/2000/svg" xmlns:xlink="http://www.w3.org/1999/xlink" x="0px" y="0px"
	 viewBox="0 0 512 512" style="enable-background:new 0 0 512 512;" xml:space="preserve">
<g>
	<g>
		<path d="M512,79.238V42.667h-42.667V0h-36.571v42.667H79.238V0H42.667v42.667H0v36.571h42.667v353.524H0v36.571h42.667V512h36.571
			v-42.667h353.524V512h36.571v-42.667H512v-36.571h-42.667V79.238H512z M432.762,432.762H79.238V79.238h353.524V432.762z"/>
	</g>
</g>
<g>
	<g>
		<rect x="237.714" y="237.714" width="36.571" height="36.571"/>
	</g>
</g>
<g>
	<g>
		<rect x="237.714" y="298.679" width="36.571" height="36.571"/>
	</g>
</g>
<g>
	<g>
		<rect x="237.714" y="359.631" width="36.571" height="36.571"/>
	</g>
</g>
<g>
	<g>
		<rect x="237.714" y="115.797" width="36.571" height="36.571"/>
	</g>
</g>
<g>
	<g>
		<rect x="237.714" y="176.762" width="36.571" height="36.571"/>
	</g>
</g>
<g>
	<g>
		<rect x="176.75" y="237.714" width="36.571" height="36.571"/>
	</g>
</g>
<g>
	<g>
		<rect x="115.797" y="237.714" width="36.571" height="36.571"/>
	</g>
</g>
<g>
	<g>
		<rect x="359.619" y="237.714" width="36.571" height="36.571"/>
	</g>
</g>
<g>
	<g>
		<rect x="298.667" y="237.714" width="36.571" height="36.571"/>
	</g>
</g>
<g>
</g>
<g>
</g>
<g>
</g>
<g>
</g>
<g>
</g>
<g>
</g>
<g>
</g>
<g>
</g>
<g>
</g>
<g>
</g>
<g>
</g>
<g>
</g>
<g>
</g>
<g>
</g>
<g>
</g>
</svg>
