<?xml version="1.0" encoding="iso-8859-1"?>
<!-- Generator: Adobe Illustrator 19.0.0, SVG Export Plug-In . SVG Version: 6.00 Build 0)  -->
<svg version="1.1" id="Layer_1" xmlns="http://www.w3.org/2000/svg" xmlns:xlink="http://www.w3.org/1999/xlink" x="0px" y="0px"
	 viewBox="0 0 512 512" style="enable-background:new 0 0 512 512;" xml:space="preserve">
<g>
	<g>
		<path d="M0,389.565v22.261c0,18.441,14.95,33.391,33.391,33.391h445.217c18.441,0,33.391-14.95,33.391-33.391v-22.261H0z"/>
	</g>
</g>
<g>
	<g>
		<path d="M44.522,66.783v289.391h422.957V66.783H44.522z M255.999,272.696c-33.755,0-61.217-27.462-61.217-61.217
			s27.462-61.217,61.217-61.217v33.391c-15.343,0-27.826,12.483-27.826,27.826s12.483,27.826,27.826,27.826
			c15.343,0,27.826-12.483,27.826-27.826h33.391C317.217,245.233,289.755,272.696,255.999,272.696z"/>
	</g>
</g>
<g>
</g>
<g>
</g>
<g>
</g>
<g>
</g>
<g>
</g>
<g>
</g>
<g>
</g>
<g>
</g>
<g>
</g>
<g>
</g>
<g>
</g>
<g>
</g>
<g>
</g>
<g>
</g>
<g>
</g>
</svg>
