<?xml version="1.0" encoding="iso-8859-1"?>
<!-- Generator: Adobe Illustrator 19.0.0, SVG Export Plug-In . SVG Version: 6.00 Build 0)  -->
<svg version="1.1" id="Layer_1" xmlns="http://www.w3.org/2000/svg" xmlns:xlink="http://www.w3.org/1999/xlink" x="0px" y="0px"
	 viewBox="0 0 511.999 511.999" style="enable-background:new 0 0 511.999 511.999;" xml:space="preserve">
<g>
	<g>
		
			<rect x="154.774" y="237.016" transform="matrix(0.7071 -0.7071 0.7071 0.7071 -106.0327 256.0132)" width="202.491" height="37.967"/>
	</g>
</g>
<g>
	<g>
		<path d="M275.086,317.474l-34.062,34.063c-1.325,12.508-6.758,24.657-16.323,34.221l-71.593,71.591
			c-10.756,10.756-25.058,16.682-40.271,16.682c-15.212,0-29.513-5.924-40.269-16.68l-17.899-17.899
			c-10.756-10.756-16.68-25.058-16.68-40.269c0-15.212,5.924-29.513,16.68-40.271l71.592-71.591
			c9.326-9.326,21.319-15.011,34.258-16.361l34.079-34.08c-8.974-2.765-18.409-4.207-28.068-4.207
			c-25.353,0-49.19,9.873-67.117,27.801l-71.591,71.591C9.894,349.992,0.021,373.829,0.021,399.182s9.873,49.189,27.8,67.116
			l17.899,17.899c17.928,17.927,41.764,27.801,67.117,27.801c25.355,0,49.191-9.874,67.118-27.802l71.591-71.591
			C277.247,386.905,285.08,350.016,275.086,317.474z"/>
	</g>
</g>
<g>
	<g>
		<path d="M484.221,45.696L466.322,27.8C448.395,9.873,424.56,0,399.206,0s-49.189,9.873-67.117,27.801l-71.591,71.591
			c-17.928,17.927-27.801,41.763-27.801,67.116c0,9.659,1.442,19.094,4.207,28.069l34.08-34.081
			c1.349-12.939,7.035-24.932,16.361-34.258l71.591-71.591c10.757-10.756,25.058-16.68,40.271-16.68s29.513,5.924,40.269,16.682
			l17.899,17.897c10.756,10.756,16.68,25.058,16.68,40.271s-5.924,29.513-16.68,40.269l-71.593,71.591
			c-9.326,9.326-21.321,15.012-34.259,16.363l-34.078,34.08c8.975,2.765,18.409,4.207,28.068,4.207
			c25.353-0.001,49.189-9.874,67.116-27.802l71.593-71.591C521.23,142.924,521.23,82.707,484.221,45.696z"/>
	</g>
</g>
<g>
	<g>
		
			<rect x="102.809" y="83.793" transform="matrix(0.7071 -0.7071 0.7071 0.7071 -50.4253 121.7827)" width="37.966" height="75.934"/>
	</g>
</g>
<g>
	<g>
		<rect x="187.904" y="34.65" transform="matrix(0.9659 -0.2588 0.2588 0.9659 -11.7447 56.0181)" width="37.966" height="75.931"/>
	</g>
</g>
<g>
	<g>
		
			<rect x="420.417" y="267.142" transform="matrix(0.2588 -0.9659 0.9659 0.2588 30.9687 650.573)" width="37.966" height="75.931"/>
	</g>
</g>
<g>
	<g>
		
			<rect x="371.287" y="352.278" transform="matrix(0.7071 -0.7071 0.7071 0.7071 -161.6364 390.2632)" width="37.967" height="75.931"/>
	</g>
</g>
<g>
	<g>
		
			<rect x="286.186" y="401.396" transform="matrix(0.9659 -0.2588 0.2588 0.9659 -103.3126 93.9494)" width="37.966" height="75.931"/>
	</g>
</g>
<g>
	<g>
		
			<rect x="53.672" y="168.888" transform="matrix(0.2588 -0.9659 0.9659 0.2588 -145.954 223.4969)" width="37.966" height="75.93"/>
	</g>
</g>
<g>
</g>
<g>
</g>
<g>
</g>
<g>
</g>
<g>
</g>
<g>
</g>
<g>
</g>
<g>
</g>
<g>
</g>
<g>
</g>
<g>
</g>
<g>
</g>
<g>
</g>
<g>
</g>
<g>
</g>
</svg>
