<?xml version="1.0" encoding="iso-8859-1"?>
<!-- Generator: Adobe Illustrator 19.0.0, SVG Export Plug-In . SVG Version: 6.00 Build 0)  -->
<svg version="1.1" id="Layer_1" xmlns="http://www.w3.org/2000/svg" xmlns:xlink="http://www.w3.org/1999/xlink" x="0px" y="0px"
	 viewBox="0 0 512 512" style="enable-background:new 0 0 512 512;" xml:space="preserve">
<g>
	<g>
		<rect x="32" y="198.4" width="38.4" height="38.4"/>
	</g>
</g>
<g>
	<g>
		<rect x="32" y="275.2" width="38.4" height="38.4"/>
	</g>
</g>
<g>
	<g>
		<rect x="32" y="44.8" width="38.4" height="38.4"/>
	</g>
</g>
<g>
	<g>
		<rect x="32" y="121.6" width="38.4" height="38.4"/>
	</g>
</g>
<g>
	<g>
		<rect x="32" y="352" width="38.4" height="38.4"/>
	</g>
</g>
<g>
	<g>
		<rect x="32" y="428.8" width="38.4" height="38.4"/>
	</g>
</g>
<g>
	<g>
		<path d="M70.4,0v44.8h38.4v38.4H70.4v38.4h38.4V160H70.4v38.4h38.4v38.4H70.4v38.4h38.4v38.4H70.4V352h38.4v38.4H70.4v38.4h38.4
			v38.4H70.4V512H480V0H70.4z M211.2,390.4h-38.4V352h38.4V390.4z M211.2,313.6h-38.4v-38.4h38.4V313.6z M211.2,236.8h-38.4v-38.4
			h38.4V236.8z M211.2,160h-38.4v-38.4h38.4V160z M409.6,390.4h-160V352h160V390.4z M409.6,313.6h-160v-38.4h160V313.6z
			 M409.6,236.8h-160v-38.4h160V236.8z M409.6,160h-160v-38.4h160V160z"/>
	</g>
</g>
<g>
</g>
<g>
</g>
<g>
</g>
<g>
</g>
<g>
</g>
<g>
</g>
<g>
</g>
<g>
</g>
<g>
</g>
<g>
</g>
<g>
</g>
<g>
</g>
<g>
</g>
<g>
</g>
<g>
</g>
</svg>
