<?xml version="1.0" encoding="iso-8859-1"?>
<!-- Generator: Adobe Illustrator 19.0.0, SVG Export Plug-In . SVG Version: 6.00 Build 0)  -->
<svg version="1.1" id="Layer_1" xmlns="http://www.w3.org/2000/svg" xmlns:xlink="http://www.w3.org/1999/xlink" x="0px" y="0px"
	 viewBox="0 0 512 512" style="enable-background:new 0 0 512 512;" xml:space="preserve">
<g>
	<g>
		<path d="M391.355,368.538c-34.578-20.396-61.906-47.263-88.335-73.245c-50.683-49.828-98.557-96.892-194.86-96.892
			c-41.393,0-75.869,8.319-108.16,26.079V460.8h512v-57.883C467.089,401.13,427.497,389.856,391.355,368.538z"/>
	</g>
</g>
<g>
	<g>
		<path d="M0,51.2v130.427C32.717,167.1,68.335,160,108.16,160c50.253,0,93.902,11.338,133.445,34.662
			c34.578,20.396,61.906,47.263,88.335,73.245c48.38,47.564,94.234,92.576,182.06,96.572V51.2H0z M396.8,204.8
			c-21.207,0-38.4-17.193-38.4-38.4s17.193-38.4,38.4-38.4s38.4,17.193,38.4,38.4C435.2,187.607,418.007,204.8,396.8,204.8z"/>
	</g>
</g>
<g>
</g>
<g>
</g>
<g>
</g>
<g>
</g>
<g>
</g>
<g>
</g>
<g>
</g>
<g>
</g>
<g>
</g>
<g>
</g>
<g>
</g>
<g>
</g>
<g>
</g>
<g>
</g>
<g>
</g>
</svg>
