<?xml version="1.0" encoding="iso-8859-1"?>
<!-- Generator: Adobe Illustrator 19.0.0, SVG Export Plug-In . SVG Version: 6.00 Build 0)  -->
<svg version="1.1" id="Layer_1" xmlns="http://www.w3.org/2000/svg" xmlns:xlink="http://www.w3.org/1999/xlink" x="0px" y="0px"
	 viewBox="0 0 512 512" style="enable-background:new 0 0 512 512;" xml:space="preserve">
<g>
	<g>
		<circle cx="252.8" cy="83.2" r="83.2"/>
	</g>
</g>
<g>
	<g>
		<path d="M355.2,243.199L150.399,243.2C137.6,204.8,99.2,192,73.6,192v115.2H22.4V384h52.282c6.097,36.32,37.665,64,75.718,64v64
			c42.415,0,76.8-21.585,76.8-64h51.2v64c42.415,0,76.8-21.585,76.8-64c56.554,0,102.4-45.846,102.4-102.4
			C457.6,289.046,411.754,243.199,355.2,243.199z M304,320H201.6v-38.4H304V320z"/>
	</g>
</g>
<g>
	<g>
		<path d="M409.658,215.722c11.965,5.024,23.087,11.653,33.102,19.617c10.46-14.6,27.552-24.139,46.84-24.139v-38.4
			C456.278,172.8,426.879,189.873,409.658,215.722z"/>
	</g>
</g>
<g>
</g>
<g>
</g>
<g>
</g>
<g>
</g>
<g>
</g>
<g>
</g>
<g>
</g>
<g>
</g>
<g>
</g>
<g>
</g>
<g>
</g>
<g>
</g>
<g>
</g>
<g>
</g>
<g>
</g>
</svg>
