<?xml version="1.0" encoding="iso-8859-1"?>
<!-- Generator: Adobe Illustrator 19.0.0, SVG Export Plug-In . SVG Version: 6.00 Build 0)  -->
<svg version="1.1" id="Layer_1" xmlns="http://www.w3.org/2000/svg" xmlns:xlink="http://www.w3.org/1999/xlink" x="0px" y="0px"
	 viewBox="0 0 512 512" style="enable-background:new 0 0 512 512;" xml:space="preserve">
<g>
	<g>
		<path d="M394.667,205.334L512,88L423.999,0.001L306.665,117.333L277.333,88c-32.402-32.401-84.933-32.401-117.335,0
			l-19.555,19.554l88.001,88.002l88.002,88.002l87.999,87.999L424,352c32.399-32.403,32.4-84.932-0.001-117.333L394.667,205.334z"/>
	</g>
</g>
<g>
	<g>
		<path d="M199.111,224.888L18.216,405.781C-0.94,424.938-4.982,453.472,6.063,476.6l36.597-36.597l29.333,29.333l-36.595,36.598
			c23.13,11.047,51.665,7.005,70.821-12.152L287.113,312.89L199.111,224.888z"/>
	</g>
</g>
<g>
</g>
<g>
</g>
<g>
</g>
<g>
</g>
<g>
</g>
<g>
</g>
<g>
</g>
<g>
</g>
<g>
</g>
<g>
</g>
<g>
</g>
<g>
</g>
<g>
</g>
<g>
</g>
<g>
</g>
</svg>
