<?xml version="1.0" encoding="iso-8859-1"?>
<!-- Generator: Adobe Illustrator 19.0.0, SVG Export Plug-In . SVG Version: 6.00 Build 0)  -->
<svg version="1.1" id="Layer_1" xmlns="http://www.w3.org/2000/svg" xmlns:xlink="http://www.w3.org/1999/xlink" x="0px" y="0px"
	 viewBox="0 0 512 512" style="enable-background:new 0 0 512 512;" xml:space="preserve">
<g>
	<g>
		<path d="M250.177,155.713c-53.569,0-97.151,43.582-97.151,97.151s43.582,97.151,97.151,97.151s97.151-43.582,97.151-97.151
			S303.746,155.713,250.177,155.713z"/>
	</g>
</g>
<g>
	<g>
		<path d="M21.912,83.114L0,302.229l129.647,13.597c-9.88-18.838-15.481-40.258-15.481-62.964
			c0-51.987,29.324-97.249,72.297-120.133l3.009-32.862L21.912,83.114z"/>
	</g>
</g>
<g>
	<g>
		<path d="M512,238.089L463.496,23.29L299.237,60.38l16.327,73.252c42.06,23.158,70.625,67.919,70.625,119.23
			c0,4.887-0.266,9.714-0.771,14.469L512,238.089z"/>
	</g>
</g>
<g>
	<g>
		<path d="M130.55,317.536L44.226,403.86c-15.176,15.175-15.176,39.779,0,54.956c15.175,15.175,39.78,15.175,54.956,0l86.326-86.326
			C162.3,359.895,143.147,340.742,130.55,317.536z"/>
	</g>
</g>
<g>
	<g>
		<path d="M250.177,388.873c-16.128,0-31.605-2.829-45.973-8.004l-2.547,102.795l168.32,5.047l5.487-182.917
			C354.779,354.572,306.41,388.873,250.177,388.873z"/>
	</g>
</g>
<g>
</g>
<g>
</g>
<g>
</g>
<g>
</g>
<g>
</g>
<g>
</g>
<g>
</g>
<g>
</g>
<g>
</g>
<g>
</g>
<g>
</g>
<g>
</g>
<g>
</g>
<g>
</g>
<g>
</g>
</svg>
