<?xml version="1.0" encoding="iso-8859-1"?>
<!-- Generator: Adobe Illustrator 19.0.0, SVG Export Plug-In . SVG Version: 6.00 Build 0)  -->
<svg version="1.1" id="Layer_1" xmlns="http://www.w3.org/2000/svg" xmlns:xlink="http://www.w3.org/1999/xlink" x="0px" y="0px"
	 viewBox="0 0 512 512" style="enable-background:new 0 0 512 512;" xml:space="preserve">
<g>
	<g>
		<polygon points="512,409.6 512,358.4 0,358.4 0,409.6 204.8,409.6 204.8,460.8 140.8,460.8 140.8,499.2 371.2,499.2 371.2,460.8 
			307.2,460.8 307.2,409.6 		"/>
	</g>
</g>
<g>
	<g>
		<path d="M0,12.8V320h512V12.8H0z M153.6,138.477V262.4h-38.4V138.477c-3.971-4.511-6.4-10.409-6.4-16.877s2.429-12.365,6.4-16.877
			V70.4h38.4v34.323c3.971,4.511,6.4,10.409,6.4,16.877S157.571,133.965,153.6,138.477z M281.6,208.877V262.4h-38.4v-53.523
			c-3.971-4.511-6.4-10.409-6.4-16.877s2.429-12.365,6.4-16.877V70.4h38.4v104.723c3.971,4.511,6.4,10.409,6.4,16.877
			S285.571,204.365,281.6,208.877z M409.6,176.877V262.4h-38.4v-85.523c-3.971-4.511-6.4-10.409-6.4-16.877s2.429-12.365,6.4-16.877
			V70.4h38.4v72.723c3.971,4.511,6.4,10.409,6.4,16.877S413.571,172.365,409.6,176.877z"/>
	</g>
</g>
<g>
</g>
<g>
</g>
<g>
</g>
<g>
</g>
<g>
</g>
<g>
</g>
<g>
</g>
<g>
</g>
<g>
</g>
<g>
</g>
<g>
</g>
<g>
</g>
<g>
</g>
<g>
</g>
<g>
</g>
</svg>
