<?xml version="1.0" encoding="iso-8859-1"?>
<!-- Generator: Adobe Illustrator 19.0.0, SVG Export Plug-In . SVG Version: 6.00 Build 0)  -->
<svg version="1.1" id="Layer_1" xmlns="http://www.w3.org/2000/svg" xmlns:xlink="http://www.w3.org/1999/xlink" x="0px" y="0px"
	 viewBox="0 0 512 512" style="enable-background:new 0 0 512 512;" xml:space="preserve">
<g>
	<g>
		<path d="M275.694,0h-39.386c0,50.754-72.978,78.769-203.487,78.769v170.667C32.82,392.392,150.974,487.113,256,512
			c105.026-24.887,223.179-119.608,223.179-262.564V78.769C348.671,78.769,275.694,50.754,275.694,0z M282.256,347.897h-52.513
			c-18.097,0-32.82-14.723-32.82-32.821C196.923,282.501,223.425,256,256,256c-18.097,0-32.82-14.723-32.82-32.82
			s14.723-32.82,32.82-32.82s32.82,14.723,32.82,32.82S274.097,256,256,256c32.575,0,59.077,26.501,59.077,59.077
			C315.077,333.174,300.354,347.897,282.256,347.897z"/>
	</g>
</g>
<g>
</g>
<g>
</g>
<g>
</g>
<g>
</g>
<g>
</g>
<g>
</g>
<g>
</g>
<g>
</g>
<g>
</g>
<g>
</g>
<g>
</g>
<g>
</g>
<g>
</g>
<g>
</g>
<g>
</g>
</svg>
