<?xml version="1.0" encoding="iso-8859-1"?>
<!-- Generator: Adobe Illustrator 19.0.0, SVG Export Plug-In . SVG Version: 6.00 Build 0)  -->
<svg version="1.1" id="Layer_1" xmlns="http://www.w3.org/2000/svg" xmlns:xlink="http://www.w3.org/1999/xlink" x="0px" y="0px"
	 viewBox="0 0 512.001 512.001" style="enable-background:new 0 0 512.001 512.001;" xml:space="preserve">
<g>
	<g>
		<path d="M184.558,89.305v339.346h53.581V357.21h35.721v71.442h53.581V89.305H184.558z M273.861,160.747H238.14v-35.721h35.721
			V160.747z"/>
	</g>
</g>
<g>
	<g>
		<g>
			<path d="M274.253,7.56c-10.08-10.08-26.424-10.08-36.504,0l-45.63,45.63c-0.126,0.125-0.232,0.266-0.355,0.393h128.473
				c-0.122-0.128-0.227-0.267-0.354-0.392L274.253,7.56z"/>
			<polygon points="320.237,53.583 320.236,53.583 320.237,53.584 			"/>
		</g>
	</g>
</g>
<g>
	<g>
		<path d="M363.163,185.704v207.227h95.256C458.419,282.577,397.909,250.887,363.163,185.704z"/>
	</g>
</g>
<g>
	<g>
		<path d="M53.582,392.931h95.256V185.704C114.091,250.887,53.582,282.577,53.582,392.931z"/>
	</g>
</g>
<g>
	<g>
		<polygon points="295.69,464.373 216.311,464.373 208.372,512.001 303.628,512.001 		"/>
	</g>
</g>
<g>
</g>
<g>
</g>
<g>
</g>
<g>
</g>
<g>
</g>
<g>
</g>
<g>
</g>
<g>
</g>
<g>
</g>
<g>
</g>
<g>
</g>
<g>
</g>
<g>
</g>
<g>
</g>
<g>
</g>
</svg>
