<?xml version="1.0" encoding="iso-8859-1"?>
<!-- Generator: Adobe Illustrator 19.0.0, SVG Export Plug-In . SVG Version: 6.00 Build 0)  -->
<svg version="1.1" id="Layer_1" xmlns="http://www.w3.org/2000/svg" xmlns:xlink="http://www.w3.org/1999/xlink" x="0px" y="0px"
	 viewBox="0 0 512 512" style="enable-background:new 0 0 512 512;" xml:space="preserve">
<g>
	<g>
		<rect y="107.789" width="94.316" height="296.421"/>
	</g>
</g>
<g>
	<g>
		<polygon points="134.737,107.789 134.737,404.211 269.474,512 269.474,0 		"/>
	</g>
</g>
<g>
	<g>
		<path d="M330.105,74.105v40.421c78.009,0,141.474,63.464,141.474,141.474s-63.465,141.474-141.474,141.474v40.421
			C430.403,437.895,512,356.297,512,256S430.403,74.105,330.105,74.105z"/>
	</g>
</g>
<g>
	<g>
		<path d="M330.105,154.947v40.421c33.434,0,60.632,27.198,60.632,60.632s-27.198,60.632-60.632,60.632v40.421
			c55.72,0,101.053-45.332,101.053-101.053C431.158,200.28,385.826,154.947,330.105,154.947z"/>
	</g>
</g>
<g>
</g>
<g>
</g>
<g>
</g>
<g>
</g>
<g>
</g>
<g>
</g>
<g>
</g>
<g>
</g>
<g>
</g>
<g>
</g>
<g>
</g>
<g>
</g>
<g>
</g>
<g>
</g>
<g>
</g>
</svg>
