<?xml version="1.0" encoding="iso-8859-1"?>
<!-- Generator: Adobe Illustrator 19.0.0, SVG Export Plug-In . SVG Version: 6.00 Build 0)  -->
<svg version="1.1" id="Layer_1" xmlns="http://www.w3.org/2000/svg" xmlns:xlink="http://www.w3.org/1999/xlink" x="0px" y="0px"
	 viewBox="0 0 512 512" style="enable-background:new 0 0 512 512;" xml:space="preserve">
<g>
	<g>
		<path d="M0,51.2v409.6h512V51.2H0z M205.576,357.624l-27.153,27.153L153.6,359.953l-24.824,24.824l-27.153-27.153l24.824-24.824
			l-24.824-24.824l27.153-27.153l24.824,24.824l24.824-24.823l27.153,27.153L180.753,332.8L205.576,357.624z M358.4,371.2
			c-21.207,0-38.4-17.194-38.4-38.4c0-21.208,17.193-38.4,38.4-38.4s38.4,17.192,38.4,38.4C396.8,354.006,379.607,371.2,358.4,371.2
			z M358.396,243.2l-71.868-40.408l35.671-9.992C306.589,172.315,282.214,160,256,160c-45.876,0-83.2,37.323-83.2,83.2h-38.4
			c0-67.05,54.55-121.6,121.6-121.6c43.346,0,83.258,23.022,105.043,60.323l37.792-10.587L358.396,243.2z"/>
	</g>
</g>
<g>
</g>
<g>
</g>
<g>
</g>
<g>
</g>
<g>
</g>
<g>
</g>
<g>
</g>
<g>
</g>
<g>
</g>
<g>
</g>
<g>
</g>
<g>
</g>
<g>
</g>
<g>
</g>
<g>
</g>
</svg>
