<?xml version="1.0" encoding="iso-8859-1"?>
<!-- Generator: Adobe Illustrator 19.0.0, SVG Export Plug-In . SVG Version: 6.00 Build 0)  -->
<svg version="1.1" id="Layer_1" xmlns="http://www.w3.org/2000/svg" xmlns:xlink="http://www.w3.org/1999/xlink" x="0px" y="0px"
	 viewBox="0 0 512 512" style="enable-background:new 0 0 512 512;" xml:space="preserve">
<g>
	<g>
		<path d="M468.542,237.714C459.749,134.64,377.36,52.251,274.286,43.459V0h-36.571v43.459
			C134.64,52.251,52.251,134.64,43.459,237.714H0v36.571h43.459c8.792,103.074,91.181,185.464,194.255,194.255V512h36.571v-43.459
			c103.074-8.792,185.464-91.181,194.256-194.255H512v-36.571H468.542z M431.821,274.286
			c-8.559,82.895-74.64,148.976-157.535,157.535v-41.726h-36.571v41.726c-82.895-8.559-148.976-74.64-157.535-157.535h41.726
			v-36.571H80.179c8.559-82.895,74.64-148.976,157.535-157.535v41.726h36.571V80.179c82.895,8.559,148.976,74.64,157.535,157.535
			h-41.726v36.571H431.821z"/>
	</g>
</g>
<g>
	<g>
		<polygon points="274.286,237.714 274.286,195.048 237.714,195.048 237.714,237.714 195.048,237.714 195.048,274.286 
			237.714,274.286 237.714,316.952 274.286,316.952 274.286,274.286 316.952,274.286 316.952,237.714 		"/>
	</g>
</g>
<g>
</g>
<g>
</g>
<g>
</g>
<g>
</g>
<g>
</g>
<g>
</g>
<g>
</g>
<g>
</g>
<g>
</g>
<g>
</g>
<g>
</g>
<g>
</g>
<g>
</g>
<g>
</g>
<g>
</g>
</svg>
