<?xml version="1.0" encoding="iso-8859-1"?>
<!-- Generator: Adobe Illustrator 19.0.0, SVG Export Plug-In . SVG Version: 6.00 Build 0)  -->
<svg version="1.1" id="Layer_1" xmlns="http://www.w3.org/2000/svg" xmlns:xlink="http://www.w3.org/1999/xlink" x="0px" y="0px"
	 viewBox="0 0 512 512" style="enable-background:new 0 0 512 512;" xml:space="preserve">
<g>
	<g>
		<path d="M496.449,41.782l-47.629,47.629l-29.95-29.95l47.629-47.629c-26.613-13.89-60.221-9.664-82.571,12.686
			c-16.33,16.33-22.984,38.673-19.967,59.902L84.421,363.958c-21.231-3.016-43.571,3.637-59.902,19.967
			c-22.35,22.35-26.577,55.96-12.686,82.571l47.629-47.63l29.95,29.95l-47.63,47.631c26.614,13.892,60.221,9.666,82.573-12.686
			c16.33-16.33,22.983-38.672,19.967-59.902l279.54-279.538c21.229,3.017,43.571-3.637,59.902-19.968
			C506.114,102.003,510.338,68.395,496.449,41.782z"/>
	</g>
</g>
<g>
	<g>
		<path d="M503.728,423.862L353.973,274.11l-79.866,79.868L423.86,503.729c11.028,11.028,28.908,11.028,39.932,0l39.937-39.934
			C514.756,452.77,514.756,434.891,503.728,423.862z"/>
	</g>
</g>
<g>
	<g>
		<polygon points="236.742,116.94 206.792,86.989 161.864,131.918 79.87,49.916 59.906,0.001 0.001,0 0.003,59.902 49.919,79.868 
			131.911,161.867 86.986,206.792 116.937,236.743 136.905,216.774 154.304,234.174 234.17,154.308 216.771,136.909 		"/>
	</g>
</g>
<g>
</g>
<g>
</g>
<g>
</g>
<g>
</g>
<g>
</g>
<g>
</g>
<g>
</g>
<g>
</g>
<g>
</g>
<g>
</g>
<g>
</g>
<g>
</g>
<g>
</g>
<g>
</g>
<g>
</g>
</svg>
