<?xml version="1.0" encoding="iso-8859-1"?>
<!-- Generator: Adobe Illustrator 19.0.0, SVG Export Plug-In . SVG Version: 6.00 Build 0)  -->
<svg version="1.1" id="Layer_1" xmlns="http://www.w3.org/2000/svg" xmlns:xlink="http://www.w3.org/1999/xlink" x="0px" y="0px"
	 viewBox="0 0 512 512" style="enable-background:new 0 0 512 512;" xml:space="preserve">
<g>
	<g>
		<rect x="237.496" y="474.988" width="37.012" height="37.012"/>
	</g>
</g>
<g>
	<g>
		<rect x="274.508" y="437.976" width="37.012" height="37.012"/>
	</g>
</g>
<g>
	<g>
		<rect x="311.52" y="400.964" width="37.012" height="37.012"/>
	</g>
</g>
<g>
	<g>
		<rect x="348.532" y="363.952" width="37.012" height="37.012"/>
	</g>
</g>
<g>
	<g>
		<rect x="385.544" y="326.94" width="37.012" height="37.012"/>
	</g>
</g>
<g>
	<g>
		<rect x="422.556" y="289.928" width="37.012" height="37.012"/>
	</g>
</g>
<g>
	<g>
		<rect x="459.568" y="252.903" width="37.012" height="37.012"/>
	</g>
</g>
<g>
	<g>
		<rect x="200.484" y="437.976" width="37.012" height="37.012"/>
	</g>
</g>
<g>
	<g>
		<rect x="163.472" y="400.964" width="37.012" height="37.012"/>
	</g>
</g>
<g>
	<g>
		<rect x="126.46" y="363.952" width="37.012" height="37.012"/>
	</g>
</g>
<g>
	<g>
		<rect x="89.448" y="326.94" width="37.012" height="37.012"/>
	</g>
</g>
<g>
	<g>
		<rect x="52.433" y="289.928" width="37.012" height="37.012"/>
	</g>
</g>
<g>
	<g>
		<rect x="15.42" y="252.903" width="37.012" height="37.012"/>
	</g>
</g>
<g>
	<g>
		<path d="M157.303,0v123.373c0,54.51,44.189,98.699,98.699,98.699s98.699-44.189,98.699-98.699V0H157.303z"/>
	</g>
</g>
<g>
	<g>
		<path d="M303.908,250.345c-14.905,5.641-31.049,8.74-47.906,8.74c-16.858,0-33.004-3.099-47.908-8.741
			c-14.098,12.949-22.94,31.533-22.938,52.186c-0.001,19.563,7.928,37.275,20.749,50.095l50.097,50.098l50.098-50.096
			c12.819-12.825,20.749-30.539,20.749-50.102C326.848,281.875,318.006,263.294,303.908,250.345z"/>
	</g>
</g>
<g>
</g>
<g>
</g>
<g>
</g>
<g>
</g>
<g>
</g>
<g>
</g>
<g>
</g>
<g>
</g>
<g>
</g>
<g>
</g>
<g>
</g>
<g>
</g>
<g>
</g>
<g>
</g>
<g>
</g>
</svg>
