<?xml version="1.0" encoding="iso-8859-1"?>
<!-- Generator: Adobe Illustrator 19.0.0, SVG Export Plug-In . SVG Version: 6.00 Build 0)  -->
<svg version="1.1" id="Layer_1" xmlns="http://www.w3.org/2000/svg" xmlns:xlink="http://www.w3.org/1999/xlink" x="0px" y="0px"
	 viewBox="0 0 512 512" style="enable-background:new 0 0 512 512;" xml:space="preserve">
<g>
	<g>
		<rect x="234.667" y="60.444" width="42.667" height="85.333"/>
	</g>
</g>
<g>
	<g>
		<rect x="76.569" y="88.317" transform="matrix(0.9397 -0.342 0.342 0.9397 -38.8927 41.3809)" width="42.667" height="85.332"/>
	</g>
</g>
<g>
	<g>
		
			<rect x="371.411" y="109.664" transform="matrix(0.342 -0.9397 0.9397 0.342 149.3691 475.3118)" width="85.348" height="42.667"/>
	</g>
</g>
<g>
	<g>
		<path d="M256,195.556c-106.997,0-201.172,50.889-256,128c54.828,77.112,149.003,128,256,128s201.173-50.888,256-128
			C457.173,246.444,362.997,195.556,256,195.556z M311.986,342.848L256,398.831l-55.984-55.984
			c-19.594-19.594-19.594-51.477,0-71.071c9.492-9.492,22.111-14.72,35.534-14.72c7.164,0,14.05,2.499,20.45,10.008
			c6.518-6.976,13.286-10.008,20.45-10.008c13.423,0,26.044,5.228,35.534,14.72C331.578,291.369,331.578,323.251,311.986,342.848z"
			/>
	</g>
</g>
<g>
</g>
<g>
</g>
<g>
</g>
<g>
</g>
<g>
</g>
<g>
</g>
<g>
</g>
<g>
</g>
<g>
</g>
<g>
</g>
<g>
</g>
<g>
</g>
<g>
</g>
<g>
</g>
<g>
</g>
</svg>
