<?xml version="1.0" encoding="iso-8859-1"?>
<!-- Generator: Adobe Illustrator 19.0.0, SVG Export Plug-In . SVG Version: 6.00 Build 0)  -->
<svg xmlns="http://www.w3.org/2000/svg" xmlns:xlink="http://www.w3.org/1999/xlink" version="1.1" id="Capa_1" x="0px" y="0px" viewBox="0 0 512 512" style="enable-background:new 0 0 512 512;" xml:space="preserve">
<g>
	<g>
		<path d="M491.243,83.027c11.463,0,20.757-9.294,20.757-20.757s-9.293-20.757-20.757-20.757h-6.919v-6.919    c0-11.463-9.294-20.757-20.757-20.757s-20.757,9.294-20.757,20.757v6.919H69.189v-6.919c0-11.463-9.294-20.757-20.757-20.757    s-20.757,9.294-20.757,20.757v6.919h-6.919C9.294,41.513,0,50.807,0,62.27s9.294,20.757,20.757,20.757h6.919v374.828    c-8.056,2.851-13.838,10.517-13.838,19.55c0,11.463,9.294,20.757,20.757,20.757h13.838H62.27c11.463,0,20.757-9.294,20.757-20.757    c0-9.033-5.781-16.698-13.838-19.55V83.027h39.835l66.138,66.137c-38.846,26.107-64.459,70.454-64.459,120.674    c0,80.118,65.18,145.297,145.297,145.297s145.297-65.179,145.297-145.297c0-50.22-25.612-94.566-64.458-120.674l66.137-66.137    h39.835v374.828c-8.056,2.851-13.838,10.517-13.838,19.55c0,11.463,9.294,20.757,20.757,20.757h13.838h13.838    c11.463,0,20.757-9.294,20.757-20.757c0-9.033-5.781-16.698-13.838-19.55V83.027H491.243z M256,332.108    c-34.337,0-62.27-27.933-62.27-62.27s27.933-62.27,62.27-62.27s62.27,27.933,62.27,62.27S290.337,332.108,256,332.108z     M296.888,130.406c-12.976-3.812-26.696-5.866-40.888-5.866s-27.911,2.054-40.887,5.866l-47.379-47.379h176.533L296.888,130.406z"/>
	</g>
</g>
<g>
	<g>
		<path d="M256,249.081c-11.445,0-20.757,9.311-20.757,20.757c0,11.445,9.312,20.757,20.757,20.757s20.757-9.311,20.757-20.757    C276.757,258.393,267.445,249.081,256,249.081z"/>
	</g>
</g>
<g>
</g>
<g>
</g>
<g>
</g>
<g>
</g>
<g>
</g>
<g>
</g>
<g>
</g>
<g>
</g>
<g>
</g>
<g>
</g>
<g>
</g>
<g>
</g>
<g>
</g>
<g>
</g>
<g>
</g>
</svg>
