<?xml version="1.0" encoding="iso-8859-1"?>
<!-- Generator: Adobe Illustrator 19.0.0, SVG Export Plug-In . SVG Version: 6.00 Build 0)  -->
<svg xmlns="http://www.w3.org/2000/svg" xmlns:xlink="http://www.w3.org/1999/xlink" version="1.1" id="Capa_1" x="0px" y="0px" viewBox="0 0 512 512" style="enable-background:new 0 0 512 512;" xml:space="preserve">
<g>
	<g>
		<path d="M256,232.727c-12.833,0-23.273,10.44-23.273,23.273c0,12.833,10.44,23.273,23.273,23.273    c12.833,0,23.273-10.44,23.273-23.273C279.273,243.167,268.833,232.727,256,232.727z"/>
	</g>
</g>
<g>
	<g>
		<path d="M256,0C114.842,0,0,114.842,0,256s114.842,256,256,256s256-114.842,256-256S397.158,0,256,0z M224.97,108.606    c0-12.853,10.42-23.273,23.273-23.273h15.515c12.853,0,23.273,10.42,23.273,23.273v15.515c0,12.853-10.42,23.273-23.273,23.273    h-15.515c-12.853,0-23.273-10.42-23.273-23.273V108.606z M154.376,270.739c0,9.413-5.669,17.898-14.367,21.501    c-2.878,1.193-5.904,1.772-8.901,1.772c-2.51,0-4.999-0.428-7.374-1.223c-2.409,0.807-4.893,1.223-7.365,1.223    c-6.056,0-12.009-2.363-16.46-6.817l-14.739-14.739c-9.089-9.087-9.089-23.824,0-32.912l14.739-14.739    c6.271-6.273,15.521-8.395,23.839-5.61c5.21-1.735,10.979-1.623,16.261,0.565c8.698,3.603,14.367,12.088,14.367,21.501V270.739z     M256,426.667c-17.11,0-31.03-13.92-31.03-31.03c0-17.11,13.92-31.03,31.03-31.03s31.03,13.92,31.03,31.03    C287.03,412.747,273.11,426.667,256,426.667z M256,325.818c-38.499,0-69.818-31.319-69.818-69.818s31.319-69.818,69.818-69.818    s69.818,31.319,69.818,69.818S294.499,325.818,256,325.818z M426.831,272.455l-14.739,14.739    c-4.451,4.453-10.404,6.817-16.46,6.817c-2.472,0-4.956-0.417-7.365-1.223c-2.375,0.794-4.864,1.223-7.374,1.223    c-2.999,0-6.023-0.579-8.901-1.772c-8.696-3.603-14.367-12.088-14.367-21.501v-29.479c0-9.413,5.669-17.898,14.367-21.501    c5.284-2.188,11.055-2.299,16.263-0.565c8.319-2.785,17.569-0.662,23.838,5.61l14.739,14.739    C435.921,248.632,435.921,263.368,426.831,272.455z"/>
	</g>
</g>
<g>
</g>
<g>
</g>
<g>
</g>
<g>
</g>
<g>
</g>
<g>
</g>
<g>
</g>
<g>
</g>
<g>
</g>
<g>
</g>
<g>
</g>
<g>
</g>
<g>
</g>
<g>
</g>
<g>
</g>
</svg>
