<?xml version="1.0" encoding="iso-8859-1"?>
<!-- Generator: Adobe Illustrator 19.0.0, SVG Export Plug-In . SVG Version: 6.00 Build 0)  -->
<svg xmlns="http://www.w3.org/2000/svg" xmlns:xlink="http://www.w3.org/1999/xlink" version="1.1" id="Capa_1" x="0px" y="0px" viewBox="0 0 512 512" style="enable-background:new 0 0 512 512;" xml:space="preserve">
<g>
	<g>
		<path d="M64,213.333V42.667c0-11.782-9.552-21.333-21.333-21.333c-11.782,0-21.333,9.552-21.333,21.333v170.667    C9.552,213.333,0,222.885,0,234.667v42.667c0,11.782,9.552,21.333,21.333,21.333v170.667c0,11.782,9.552,21.333,21.333,21.333    c11.782,0,21.333-9.552,21.333-21.333V298.667c11.782,0,21.333-9.552,21.333-21.333v-42.667    C85.333,222.885,75.782,213.333,64,213.333z"/>
	</g>
</g>
<g>
	<g>
		<path d="M170.667,85.333V42.667c0-11.782-9.552-21.333-21.333-21.333c-11.782,0-21.333,9.552-21.333,21.333v42.667    c-11.782,0-21.333,9.552-21.333,21.333v42.667c0,11.782,9.552,21.333,21.333,21.333v298.667c0,11.782,9.552,21.333,21.333,21.333    c11.782,0,21.333-9.552,21.333-21.333V170.667c11.782,0,21.333-9.552,21.333-21.333v-42.667    C192,94.885,182.448,85.333,170.667,85.333z"/>
	</g>
</g>
<g>
	<g>
		<path d="M277.333,312.889V42.667c0-11.782-9.552-21.333-21.333-21.333s-21.333,9.552-21.333,21.333v270.222    c-11.782,0-21.333,9.552-21.333,21.333v42.667c0,11.782,9.552,21.333,21.333,21.333v71.111c0,11.782,9.552,21.333,21.333,21.333    s21.333-9.552,21.333-21.333v-71.111c11.782,0,21.333-9.552,21.333-21.333v-42.667    C298.667,322.441,289.115,312.889,277.333,312.889z"/>
	</g>
</g>
<g>
	<g>
		<path d="M384,170.667v-128c0-11.782-9.552-21.333-21.333-21.333s-21.333,9.552-21.333,21.333v128    C329.552,170.667,320,180.218,320,192v42.667c0,11.782,9.552,21.333,21.333,21.333v213.333c0,11.782,9.552,21.333,21.333,21.333    S384,481.115,384,469.333V256c11.782,0,21.333-9.552,21.333-21.333V192C405.333,180.218,395.782,170.667,384,170.667z"/>
	</g>
</g>
<g>
	<g>
		<path d="M490.667,256V42.667c0-11.782-9.552-21.333-21.333-21.333c-11.782,0-21.333,9.552-21.333,21.333V256    c-11.782,0-21.333,9.552-21.333,21.333V320c0,11.782,9.552,21.333,21.333,21.333v128c0,11.782,9.552,21.333,21.333,21.333    c11.782,0,21.333-9.552,21.333-21.333v-128c11.782,0,21.333-9.552,21.333-21.333v-42.667C512,265.552,502.448,256,490.667,256z"/>
	</g>
</g>
<g>
</g>
<g>
</g>
<g>
</g>
<g>
</g>
<g>
</g>
<g>
</g>
<g>
</g>
<g>
</g>
<g>
</g>
<g>
</g>
<g>
</g>
<g>
</g>
<g>
</g>
<g>
</g>
<g>
</g>
</svg>
