<?xml version="1.0" encoding="iso-8859-1"?>
<!-- Generator: Adobe Illustrator 19.0.0, SVG Export Plug-In . SVG Version: 6.00 Build 0)  -->
<svg xmlns="http://www.w3.org/2000/svg" xmlns:xlink="http://www.w3.org/1999/xlink" version="1.1" id="Capa_1" x="0px" y="0px" viewBox="0 0 512 512" style="enable-background:new 0 0 512 512;" xml:space="preserve">
<g>
	<g>
		<path d="M488.727,38.788H23.273C10.42,38.788,0,49.208,0,62.061V224.97h23.273h23.273h418.909h23.273H512V62.061    C512,49.208,501.58,38.788,488.727,38.788z M209.455,162.909h-93.091c-12.853,0-23.273-10.42-23.273-23.273    c0-12.853,10.42-23.273,23.273-23.273h93.091c12.853,0,23.273,10.42,23.273,23.273    C232.727,152.489,222.307,162.909,209.455,162.909z M325.818,147.394c0,12.853-10.42,23.273-23.273,23.273    c-12.853,0-23.273-10.42-23.273-23.273v-15.515c0-12.853,10.42-23.273,23.273-23.273c12.853,0,23.273,10.42,23.273,23.273V147.394    z M418.909,147.394c0,12.853-10.42,23.273-23.273,23.273c-12.853,0-23.273-10.42-23.273-23.273v-15.515    c0-12.853,10.42-23.273,23.273-23.273c12.853,0,23.273,10.42,23.273,23.273V147.394z"/>
	</g>
</g>
<g>
	<g>
		<path d="M488.727,271.515h-23.273H46.545H23.273H0v162.909c0,12.853,10.42,23.273,23.273,23.273h71.171    c3.199,9.033,11.792,15.515,21.92,15.515s18.721-6.482,21.92-15.515h235.433c3.198,9.033,11.792,15.515,21.92,15.515    s18.721-6.482,21.92-15.515h71.171c12.853,0,23.273-10.42,23.273-23.273V271.515H488.727z M209.455,380.121h-93.091    c-12.853,0-23.273-10.42-23.273-23.273c0-12.853,10.42-23.273,23.273-23.273h93.091c12.853,0,23.273,10.42,23.273,23.273    C232.727,369.701,222.307,380.121,209.455,380.121z M318.999,373.305c-4.329,4.329-10.333,6.813-16.462,6.813    c-6.113,0-12.119-2.482-16.448-6.813c-4.327-4.329-6.825-10.333-6.825-16.46c0-6.128,2.498-12.119,6.825-16.446    c4.329-4.344,10.333-6.827,16.448-6.827c6.128,0,12.133,2.482,16.462,6.827c4.327,4.329,6.825,10.318,6.825,16.446    C325.826,362.972,323.328,368.977,318.999,373.305z M412.09,373.305c-4.329,4.329-10.333,6.813-16.462,6.813    c-6.113,0-12.119-2.482-16.448-6.813c-4.327-4.329-6.811-10.333-6.811-16.46c0-6.128,2.484-12.119,6.811-16.446    c4.329-4.344,10.333-6.827,16.448-6.827c6.128,0,12.133,2.482,16.462,6.827c4.344,4.329,6.825,10.318,6.825,16.446    C418.917,362.972,416.434,368.963,412.09,373.305z"/>
	</g>
</g>
<g>
</g>
<g>
</g>
<g>
</g>
<g>
</g>
<g>
</g>
<g>
</g>
<g>
</g>
<g>
</g>
<g>
</g>
<g>
</g>
<g>
</g>
<g>
</g>
<g>
</g>
<g>
</g>
<g>
</g>
</svg>
