<?xml version="1.0" encoding="iso-8859-1"?>
<!-- Generator: Adobe Illustrator 19.0.0, SVG Export Plug-In . SVG Version: 6.00 Build 0)  -->
<svg xmlns="http://www.w3.org/2000/svg" xmlns:xlink="http://www.w3.org/1999/xlink" version="1.1" id="Capa_1" x="0px" y="0px" viewBox="0 0 512 512" style="enable-background:new 0 0 512 512;" xml:space="preserve">
<g>
	<g>
		<path d="M413.538,196.923c-32.576,0-59.077,26.502-59.077,59.077s26.501,59.077,59.077,59.077    c32.575,0,59.077-26.502,59.077-59.077S446.113,196.923,413.538,196.923z M427.467,269.925c-3.676,3.664-8.743,5.765-13.929,5.765    c-5.172,0-10.253-2.101-13.929-5.765c-3.663-3.661-5.763-8.742-5.763-13.928c0-5.186,2.101-10.254,5.763-13.916    c3.677-3.676,8.758-5.776,13.929-5.776c5.186,0,10.253,2.101,13.929,5.776c3.663,3.663,5.763,8.73,5.763,13.916    S431.13,266.264,427.467,269.925z"/>
	</g>
</g>
<g>
	<g>
		<path d="M98.462,196.923c-32.576,0-59.077,26.502-59.077,59.077s26.501,59.077,59.077,59.077    c32.575,0,59.077-26.503,59.077-59.077C157.538,223.425,131.037,196.923,98.462,196.923z M112.391,269.925    c-3.676,3.664-8.743,5.765-13.929,5.765c-5.186,0-10.253-2.101-13.929-5.765c-3.663-3.661-5.763-8.743-5.763-13.928    c0-5.186,2.101-10.254,5.763-13.929c3.677-3.663,8.743-5.763,13.929-5.763c5.186,0,10.253,2.101,13.929,5.763    c3.663,3.676,5.763,8.743,5.763,13.929C118.154,261.183,116.053,266.264,112.391,269.925z"/>
	</g>
</g>
<g>
	<g>
		<polygon points="275.692,354.462 275.692,393.846 275.692,413.538 275.692,433.231 315.077,433.231 315.077,413.538     315.077,393.846 315.077,354.462   "/>
	</g>
</g>
<g>
	<g>
		<polygon points="196.923,354.462 196.923,393.846 196.923,413.538 196.923,433.231 236.308,433.231 236.308,413.538     236.308,393.846 236.308,354.462   "/>
	</g>
</g>
<g>
	<g>
		<polygon points="275.692,78.769 275.692,98.462 275.692,118.154 275.692,157.538 315.077,157.538 315.077,118.154 315.077,98.462     315.077,78.769   "/>
	</g>
</g>
<g>
	<g>
		<rect x="196.923" y="196.923" width="39.385" height="39.385"/>
	</g>
</g>
<g>
	<g>
		<rect x="196.923" y="275.692" width="39.385" height="39.385"/>
	</g>
</g>
<g>
	<g>
		<rect x="275.692" y="196.923" width="39.385" height="39.385"/>
	</g>
</g>
<g>
	<g>
		<rect x="275.692" y="275.692" width="39.385" height="39.385"/>
	</g>
</g>
<g>
	<g>
		<polygon points="196.923,78.769 196.923,98.462 196.923,118.154 196.923,157.538 236.308,157.538 236.308,118.154 236.308,98.462     236.308,78.769   "/>
	</g>
</g>
<g>
	<g>
		<path d="M98.462,354.462c-22.149,0-42.609-7.356-59.077-19.746c-7.454-5.607-14.091-12.247-19.692-19.707    C7.333,298.554,0,278.118,0,256v157.538c0,10.875,8.817,19.692,19.692,19.692h137.846v-19.692v-19.692v-59.077v-0.054    C141.07,347.106,120.61,354.462,98.462,354.462z"/>
	</g>
</g>
<g>
	<g>
		<path d="M492.308,78.769H354.462v19.692v19.692v59.077v0.054c16.468-12.39,36.928-19.746,59.077-19.746    c22.149,0,42.609,7.356,59.077,19.746c7.454,5.608,14.091,12.247,19.692,19.707C504.667,213.448,512,233.882,512,256V98.462    C512,87.586,503.183,78.769,492.308,78.769z"/>
	</g>
</g>
<g>
	<g>
		<path d="M19.692,78.769C8.817,78.769,0,87.586,0,98.462V256c0-22.118,7.333-42.554,19.692-59.009    c5.602-7.459,12.238-14.098,19.692-19.707c16.468-12.39,36.928-19.746,59.077-19.746s42.609,7.356,59.077,19.746v-0.054v-59.077    V98.462V78.769H19.692z"/>
	</g>
</g>
<g>
	<g>
		<path d="M492.308,315.009c-5.602,7.459-12.238,14.1-19.692,19.707c-16.468,12.39-36.928,19.746-59.077,19.746    c-22.149,0-42.609-7.356-59.077-19.746v0.054v59.077v19.692v19.692h137.846c10.875,0,19.692-8.817,19.692-19.692V256    C512,278.118,504.667,298.554,492.308,315.009z"/>
	</g>
</g>
<g>
</g>
<g>
</g>
<g>
</g>
<g>
</g>
<g>
</g>
<g>
</g>
<g>
</g>
<g>
</g>
<g>
</g>
<g>
</g>
<g>
</g>
<g>
</g>
<g>
</g>
<g>
</g>
<g>
</g>
</svg>
