<?xml version="1.0" encoding="iso-8859-1"?>
<!-- Generator: Adobe Illustrator 19.0.0, SVG Export Plug-In . SVG Version: 6.00 Build 0)  -->
<svg xmlns="http://www.w3.org/2000/svg" xmlns:xlink="http://www.w3.org/1999/xlink" version="1.1" id="Capa_1" x="0px" y="0px" viewBox="0 0 512.001 512.001" style="enable-background:new 0 0 512.001 512.001;" xml:space="preserve">
<g>
	<g>
		<path d="M500.235,130.165c-7.171-3.301-15.605-2.119-21.597,3.015L358.926,235.79h-82.716v-33.529    c0-11.162-9.049-20.211-20.211-20.211c-11.162,0-20.211,9.049-20.211,20.211v33.528h-35.647h-31.407v-33.528    c0-11.162-9.049-20.211-20.211-20.211c-11.162,0-20.211,9.049-20.211,20.211v33.528l-87.892-0.001v-6.657    c0-11.162-9.049-20.211-20.211-20.211C9.049,208.92,0,217.969,0,229.13v26.868v26.869c0,11.162,9.049,20.211,20.211,20.211    c11.162,0,20.211-9.049,20.211-20.211v-6.659h42.173c-5.232,10.262-8.018,21.679-8.018,33.529    c0.001,40.775,33.175,73.948,73.948,73.948L256,383.687c40.775,0,73.948-33.172,73.948-73.949c0-12.066-2.924-23.455-8.071-33.527    h37.049l119.712,102.61c3.735,3.203,8.42,4.865,13.157,4.865c2.86,0,5.741-0.608,8.441-1.85    c7.171-3.297,11.765-10.469,11.765-18.361V148.525C512,140.633,507.406,133.462,500.235,130.165z M256,343.266l-107.478-0.001    c-18.486,0-33.525-15.039-33.527-33.527c0-8.955,3.487-17.376,9.82-23.708c6.331-6.331,14.748-9.818,23.706-9.818h0.003    l51.615-0.001l55.929,0.001c18.456,0.039,33.459,15.064,33.459,33.527C289.527,328.225,274.487,343.266,256,343.266z"/>
	</g>
</g>
<g>
</g>
<g>
</g>
<g>
</g>
<g>
</g>
<g>
</g>
<g>
</g>
<g>
</g>
<g>
</g>
<g>
</g>
<g>
</g>
<g>
</g>
<g>
</g>
<g>
</g>
<g>
</g>
<g>
</g>
</svg>
