<?xml version="1.0" encoding="iso-8859-1"?>
<!-- Generator: Adobe Illustrator 19.0.0, SVG Export Plug-In . SVG Version: 6.00 Build 0)  -->
<svg xmlns="http://www.w3.org/2000/svg" xmlns:xlink="http://www.w3.org/1999/xlink" version="1.1" id="Capa_1" x="0px" y="0px" viewBox="0 0 512 512" style="enable-background:new 0 0 512 512;" xml:space="preserve">
<g>
	<g>
		<path d="M490.057,163.776h-39.452c-4.858-28.207-15.802-54.807-32.004-78.172c-0.037-0.057-0.07-0.114-0.108-0.17    c-0.037-0.053-0.075-0.102-0.111-0.156c-0.812-1.166-1.646-2.319-2.482-3.468c-0.509-0.696-1.02-1.387-1.536-2.076    c-0.81-1.08-1.619-2.161-2.453-3.226c-0.843-1.077-1.704-2.134-2.567-3.192c-1.074-1.315-2.167-2.619-3.277-3.91    c-0.772-0.897-1.548-1.792-2.336-2.674c-0.753-0.843-1.51-1.684-2.281-2.518c-0.973-1.055-1.963-2.092-2.958-3.122    c-1.065-1.107-2.149-2.202-3.245-3.284c-0.952-0.944-1.908-1.88-2.878-2.8c-0.405-0.386-0.793-0.787-1.201-1.17    C359.019,23.789,318.188,5.588,274.632,1.533c-0.231-0.022-0.461-0.044-0.692-0.066c-1.779-0.158-3.561-0.304-5.345-0.415    c-0.385-0.023-0.768-0.045-1.154-0.067c-1.475-0.085-2.952-0.151-4.431-0.203c-0.483-0.018-0.963-0.038-1.445-0.05    c-1.852-0.053-3.705-0.086-5.565-0.086c-1.859,0-3.713,0.034-5.566,0.086c-0.481,0.012-0.961,0.032-1.442,0.05    c-1.482,0.053-2.959,0.118-4.434,0.203c-0.385,0.022-0.768,0.042-1.153,0.067c-45.811,2.872-88.94,21.353-122.574,52.789    c-0.465,0.434-0.911,0.884-1.372,1.322c-0.423,0.401-0.84,0.809-1.258,1.214c-0.73,0.711-1.464,1.42-2.183,2.14    c-1.191,1.191-2.371,2.395-3.534,3.618c-0.012,0.012-0.022,0.023-0.032,0.034c-1.707,1.798-3.376,3.626-5.009,5.477    c-0.192,0.218-0.375,0.446-0.565,0.664c-1.448,1.659-2.876,3.332-4.264,5.032c-0.162,0.202-0.317,0.41-0.48,0.611    c-1.412,1.742-2.797,3.505-4.146,5.29c-0.143,0.19-0.276,0.385-0.42,0.576c-1.358,1.814-2.687,3.645-3.98,5.502    c-0.026,0.038-0.054,0.073-0.08,0.111c-0.038,0.056-0.072,0.114-0.108,0.17c-16.206,23.366-27.145,49.967-32.001,78.174H21.943    C9.825,163.776,0,173.6,0,185.719v175.543c0,12.118,9.825,21.943,21.943,21.943h102.4c12.118,0,21.943-9.825,21.943-21.943    V185.719c0-12.118-9.825-21.943-21.943-21.943h-18.201c3.546-15.691,9.523-30.449,17.506-43.883h264.708    c7.983,13.433,13.96,28.192,17.506,43.883h-18.205c-12.118,0-21.943,9.825-21.943,21.943v175.543    c0,12.118,9.825,21.943,21.943,21.943H409.6v49.705c0,10.99-8.941,19.931-19.931,19.931h-37.847    c-3.015-8.517-11.118-14.629-20.667-14.629H256c-12.118,0-21.943,9.825-21.943,21.943v14.629v14.629    c0,12.118,9.825,21.943,21.943,21.943h75.154c9.549,0,17.652-6.112,20.667-14.629h37.847c35.189,0,63.817-28.628,63.817-63.817    v-49.705h36.571c12.118,0,21.943-9.825,21.943-21.943V185.719C512,173.6,502.175,163.776,490.057,163.776z"/>
	</g>
</g>
<g>
</g>
<g>
</g>
<g>
</g>
<g>
</g>
<g>
</g>
<g>
</g>
<g>
</g>
<g>
</g>
<g>
</g>
<g>
</g>
<g>
</g>
<g>
</g>
<g>
</g>
<g>
</g>
<g>
</g>
</svg>
