<?xml version="1.0" encoding="iso-8859-1"?>
<!-- Generator: Adobe Illustrator 19.0.0, SVG Export Plug-In . SVG Version: 6.00 Build 0)  -->
<svg xmlns="http://www.w3.org/2000/svg" xmlns:xlink="http://www.w3.org/1999/xlink" version="1.1" id="Capa_1" x="0px" y="0px" viewBox="0 0 512 512" style="enable-background:new 0 0 512 512;" xml:space="preserve">
<g>
	<g>
		<path d="M159.187,231.66c-3.882-3.882-9.266-6.109-14.749-6.109c-5.495,0.001-10.866,2.226-14.763,6.109    c-3.882,3.896-6.108,9.267-6.108,14.763c0,5.495,2.226,10.867,6.108,14.762c3.882,3.882,9.267,6.11,14.763,6.11    c5.482,0,10.867-2.228,14.749-6.11c3.897-3.896,6.122-9.267,6.122-14.762C165.309,240.927,163.083,235.554,159.187,231.66z"/>
	</g>
</g>
<g>
	<g>
		<path d="M219.758,171.103c-3.882-3.882-9.267-6.122-14.762-6.122c-5.498,0.001-10.869,2.24-14.751,6.122    c-3.882,3.884-6.121,9.253-6.121,14.749c0,5.496,2.239,10.88,6.121,14.763c3.882,3.881,9.253,6.108,14.751,6.108    c5.495,0,10.88-2.228,14.762-6.108c3.882-3.884,6.11-9.267,6.11-14.763C225.868,180.371,223.641,174.986,219.758,171.103z"/>
	</g>
</g>
<g>
	<g>
		<path d="M209.665,120.63c-8.15-8.15-21.366-8.151-29.517,0L18.642,282.135c-8.151,8.15-8.151,21.366,0,29.517    c4.076,4.074,9.417,6.111,14.759,6.111c5.34,0,10.684-2.039,14.758-6.113l161.505-161.504    C217.816,141.995,217.816,128.781,209.665,120.63z"/>
	</g>
</g>
<g>
	<g>
		<polygon points="349.742,222.807 334.981,208.048 303.939,177.002 289.178,162.243 274.422,147.483 92.436,329.467     107.194,344.226 121.954,358.985 153,390.033 167.761,404.789 182.517,419.55 364.498,237.566   "/>
	</g>
</g>
<g>
	<g>
		<path d="M505.87,147.222L364.765,6.114c-5.324-5.325-13.108-7.369-20.361-5.347c-7.254,2.022-12.857,7.794-14.662,15.106    l-24.998,101.289l-0.806,0.807l14.756,14.759l14.758,14.759l31.045,31.046l14.759,14.759l14.758,14.756l0.81-0.807l101.286-24.998    c7.314-1.803,13.085-7.405,15.104-14.662C513.238,160.328,511.194,152.547,505.87,147.222z"/>
	</g>
</g>
<g>
	<g>
		<path d="M138.243,434.308l-14.759-14.758l-31.048-31.048l-14.759-14.758l-14.759-14.758l-44.275,44.275    c-24.833,24.836-24.833,65.247,0.001,90.083C30.674,505.374,46.669,511.997,63.681,512c0.003,0,0.004,0,0.004,0    c17.012,0,33.007-6.626,45.039-18.657L153,449.067L138.243,434.308z"/>
	</g>
</g>
<g>
	<g>
		<path d="M98.635,292.233c-3.882-3.884-9.267-6.122-14.763-6.122c-5.499-0.003-10.87,2.237-14.752,6.121    c-3.896,3.881-6.122,9.267-6.122,14.75c0,0.768,0.054,1.532,0.139,2.29c0.527,4.678,2.633,9.134,5.985,12.472    c3.882,3.884,9.253,6.11,14.749,6.11c2.055,0,4.095-0.313,6.047-0.904c3.267-0.992,6.287-2.773,8.717-5.204    c3.882-3.881,6.109-9.266,6.109-14.762C104.743,301.501,102.517,296.114,98.635,292.233z"/>
	</g>
</g>
<g>
</g>
<g>
</g>
<g>
</g>
<g>
</g>
<g>
</g>
<g>
</g>
<g>
</g>
<g>
</g>
<g>
</g>
<g>
</g>
<g>
</g>
<g>
</g>
<g>
</g>
<g>
</g>
<g>
</g>
</svg>
