<?xml version="1.0" encoding="iso-8859-1"?>
<!-- Generator: Adobe Illustrator 19.0.0, SVG Export Plug-In . SVG Version: 6.00 Build 0)  -->
<svg xmlns="http://www.w3.org/2000/svg" xmlns:xlink="http://www.w3.org/1999/xlink" version="1.1" id="Capa_1" x="0px" y="0px" viewBox="0 0 512.002 512.002" style="enable-background:new 0 0 512.002 512.002;" xml:space="preserve">
<g>
	<g>
		<path d="M404.743,174.789l-16.457-16.455l-34.617-34.616l-16.455-16.455l-16.457-16.455L6.818,404.741    C2.452,409.107,0,415.024,0,421.198c0,6.172,2.451,12.091,6.817,16.457l67.53,67.53c4.544,4.544,10.501,6.817,16.455,6.817    s11.913-2.273,16.455-6.817l313.94-313.94L404.743,174.789z"/>
	</g>
</g>
<g>
	<g>
		<path d="M505.185,74.347l-67.528-67.53C433.294,2.451,427.373,0,421.201,0c-6.172,0-12.093,2.451-16.455,6.817L353.67,57.892    l16.455,16.457l16.457,16.454l34.617,34.616l16.455,16.457l16.457,16.455l51.073-51.073    C514.273,98.172,514.273,83.437,505.185,74.347z"/>
	</g>
</g>
<g>
	<g>
		<path d="M163.533,213.408c-4.329-4.329-10.333-6.811-16.448-6.811c-6.128,0-12.131,2.482-16.46,6.811    c-4.329,4.329-6.827,10.333-6.827,16.462c0,6.111,2.498,12.117,6.827,16.446c4.329,4.329,10.332,6.827,16.46,6.827    c6.113,0,12.119-2.484,16.448-6.827c4.329-4.329,6.825-10.333,6.825-16.446C170.358,223.741,167.862,217.737,163.533,213.408z"/>
	</g>
</g>
<g>
	<g>
		<path d="M96.008,280.931c-4.344-4.33-10.333-6.813-16.46-6.813c-6.128,0-12.117,2.482-16.462,6.813    c-4.329,4.343-6.811,10.332-6.811,16.46s2.482,12.119,6.811,16.46c4.344,4.33,10.333,6.813,16.462,6.813    c6.127,0,12.131-2.482,16.46-6.813c4.329-4.343,6.813-10.332,6.813-16.46S100.337,285.272,96.008,280.931z"/>
	</g>
</g>
<g>
	<g>
		<path d="M231.068,145.87c-4.329-4.329-10.332-6.811-16.46-6.811s-12.133,2.482-16.462,6.811    c-4.329,4.346-6.811,10.333-6.811,16.462s2.482,12.117,6.811,16.462c4.344,4.327,10.333,6.811,16.462,6.811    s12.131-2.484,16.46-6.811c4.329-4.346,6.813-10.333,6.813-16.462C237.88,156.203,235.396,150.216,231.068,145.87z"/>
	</g>
</g>
<g>
	<g>
		<path d="M219.811,89.602c-9.086-9.089-23.822-9.087-32.912-0.002L6.818,269.681c-9.089,9.087-9.089,23.823,0,32.912    c4.543,4.543,10.499,6.816,16.455,6.816c5.955,0,11.913-2.273,16.457-6.816l180.081-180.08    C228.9,113.425,228.9,98.69,219.811,89.602z"/>
	</g>
</g>
<g>
</g>
<g>
</g>
<g>
</g>
<g>
</g>
<g>
</g>
<g>
</g>
<g>
</g>
<g>
</g>
<g>
</g>
<g>
</g>
<g>
</g>
<g>
</g>
<g>
</g>
<g>
</g>
<g>
</g>
</svg>
