<?xml version="1.0" encoding="iso-8859-1"?>
<!-- Generator: Adobe Illustrator 19.0.0, SVG Export Plug-In . SVG Version: 6.00 Build 0)  -->
<svg xmlns="http://www.w3.org/2000/svg" xmlns:xlink="http://www.w3.org/1999/xlink" version="1.1" id="Capa_1" x="0px" y="0px" viewBox="0 0 512 512" style="enable-background:new 0 0 512 512;" xml:space="preserve">
<g>
	<g>
		<path d="M478.982,467.402h-7.433V43.736c0-7.834-4.11-15.09-10.825-19.12c-1.507-0.904-3.021-1.77-4.54-2.625    c-0.415-0.233-0.831-0.467-1.246-0.697c-1.402-0.773-2.811-1.528-4.223-2.26c-0.559-0.288-1.119-0.565-1.678-0.846    c-0.859-0.433-1.721-0.856-2.585-1.274c-1.641-0.794-3.293-1.552-4.95-2.291c-0.009-0.004-0.021-0.009-0.03-0.013    C419.468,4.815,396.147,0,370.733,0c-1.497,0-2.995,0.027-4.491,0.059c-0.08-0.001-0.156-0.013-0.236-0.013    c-0.135,0-0.266,0.019-0.401,0.021c-0.058,0.001-0.116,0.001-0.174,0.003c-0.088,0.001-0.172,0.016-0.262,0.019    c-0.645,0.025-1.283,0.068-1.913,0.146c-0.042,0.006-0.085,0.01-0.126,0.016c-29.86,1.1-59.037,8.357-86.813,16.409    c-0.091,0.025-0.18,0.051-0.269,0.077c-6.417,1.863-12.764,3.764-19.023,5.643c-19.573,5.872-38.786,11.625-57.68,15.523    c-2.795,0.021-5.46,0.568-7.922,1.527c-35.105,6.233-69.125,5.114-102.336-14.813c-3.465-2.08-7.43-3.178-11.472-3.178    c-0.003,0-0.003,0-0.004,0c-17.868,0-34.666,6.959-47.299,19.593C17.678,53.664,10.719,70.464,10.719,88.332    c0,14.485,4.558,28.276,13.181,39.878c0.287,0.388,0.589,0.766,0.899,1.133L316.174,472.47c-4.973,4.091-8.145,10.29-8.145,17.231    c0,12.315,9.984,22.298,22.298,22.298h29.728c0.004,0,0.009,0.001,0.013,0.001c0.006,0,0.012-0.001,0.016-0.001h5.919h83.247    h29.731c12.315,0,22.298-9.984,22.298-22.298C501.28,477.386,491.297,467.402,478.982,467.402z M93.968,141.896h-0.001    l-34.623-40.775c-2.636-3.751-4.027-8.16-4.027-12.79c0-5.958,2.32-11.556,6.53-15.768c3.016-3.016,6.746-5.062,10.809-5.98    c7.106,3.874,14.214,7.113,21.313,9.804V141.896z M177.213,239.927l-38.65-45.515V86.583c12.992,1.189,25.896,0.963,38.65-0.257    V239.927z M260.46,337.962l-38.65-45.515V78.525c13.15-3.165,26.056-6.88,38.65-10.626V337.962z M343.706,435.994l-38.65-45.515    V54.925c13.034-3.468,25.914-6.382,38.65-8.207V435.994z"/>
	</g>
</g>
<g>
</g>
<g>
</g>
<g>
</g>
<g>
</g>
<g>
</g>
<g>
</g>
<g>
</g>
<g>
</g>
<g>
</g>
<g>
</g>
<g>
</g>
<g>
</g>
<g>
</g>
<g>
</g>
<g>
</g>
</svg>
