<?xml version="1.0" encoding="iso-8859-1"?>
<!-- Generator: Adobe Illustrator 19.0.0, SVG Export Plug-In . SVG Version: 6.00 Build 0)  -->
<svg xmlns="http://www.w3.org/2000/svg" xmlns:xlink="http://www.w3.org/1999/xlink" version="1.1" id="Capa_1" x="0px" y="0px" viewBox="0 0 512 512" style="enable-background:new 0 0 512 512;" xml:space="preserve">
<g>
	<g>
		<polygon points="201.697,380.121 201.697,426.667 201.697,449.939 201.697,473.212 310.303,473.212 310.303,449.939     310.303,426.667 310.303,380.121   "/>
	</g>
</g>
<g>
	<g>
		<polygon points="201.697,240.485 201.697,263.758 201.697,287.03 201.697,333.576 310.303,333.576 310.303,287.03     310.303,263.758 310.303,240.485   "/>
	</g>
</g>
<g>
	<g>
		<path d="M488.727,38.788H356.849v23.273v23.273v178.424v93.091v69.818v23.273v23.273h131.879c12.853,0,23.273-10.42,23.273-23.273    V62.061C512,49.208,501.58,38.788,488.727,38.788z M443.128,264.701c-4.344,4.33-10.333,6.811-16.462,6.811    c-6.129,0-12.117-2.482-16.462-6.811c-4.329-4.329-6.811-10.333-6.811-16.462s2.482-12.119,6.811-16.446    c4.346-4.344,10.333-6.827,16.462-6.827s12.117,2.482,16.462,6.827c4.329,4.329,6.811,10.318,6.811,16.446    S447.457,260.372,443.128,264.701z M443.128,171.61c-4.329,4.329-10.333,6.811-16.462,6.811c-6.129,0-12.133-2.482-16.462-6.811    c-4.329-4.329-6.811-10.333-6.811-16.462s2.482-12.119,6.811-16.446c4.346-4.344,10.333-6.827,16.462-6.827    s12.117,2.482,16.462,6.827c4.329,4.329,6.811,10.318,6.811,16.446S447.457,167.281,443.128,171.61z"/>
	</g>
</g>
<g>
	<g>
		<path d="M23.273,38.788C10.42,38.788,0,49.208,0,62.061v387.879c0,12.853,10.42,23.273,23.273,23.273h131.879v-23.273v-23.273    v-69.818v-93.091V85.333V62.061V38.788H23.273z M101.795,264.701c-4.329,4.33-10.333,6.811-16.462,6.811    c-6.129,0-12.117-2.482-16.462-6.811c-4.329-4.329-6.811-10.333-6.811-16.462s2.482-12.117,6.811-16.446    c4.346-4.344,10.333-6.827,16.462-6.827c6.128,0,12.133,2.482,16.462,6.827c4.329,4.329,6.811,10.333,6.811,16.446    C108.606,254.368,106.124,260.357,101.795,264.701z M101.795,171.61c-4.329,4.329-10.333,6.811-16.462,6.811    c-6.129,0-12.117-2.482-16.462-6.811c-4.329-4.329-6.811-10.333-6.811-16.462s2.482-12.117,6.811-16.446    c4.346-4.344,10.333-6.827,16.462-6.827c6.128,0,12.133,2.482,16.462,6.827c4.329,4.329,6.811,10.333,6.811,16.446    C108.606,161.277,106.124,167.266,101.795,171.61z"/>
	</g>
</g>
<g>
</g>
<g>
</g>
<g>
</g>
<g>
</g>
<g>
</g>
<g>
</g>
<g>
</g>
<g>
</g>
<g>
</g>
<g>
</g>
<g>
</g>
<g>
</g>
<g>
</g>
<g>
</g>
<g>
</g>
</svg>
