<?xml version="1.0" encoding="iso-8859-1"?>
<!-- Generator: Adobe Illustrator 19.0.0, SVG Export Plug-In . SVG Version: 6.00 Build 0)  -->
<svg xmlns="http://www.w3.org/2000/svg" xmlns:xlink="http://www.w3.org/1999/xlink" version="1.1" id="Capa_1" x="0px" y="0px" viewBox="0 0 511.998 511.998" style="enable-background:new 0 0 511.998 511.998;" xml:space="preserve">
<g>
	<g>
		<path d="M91.602,58.248l16.404,16.566l16.554,16.718l60.706,61.307c13.879-9.528,29.777-16.302,46.91-19.565V46.878V23.413V0.005    C179.007,4.815,130.468,25.902,91.602,58.248z"/>
	</g>
</g>
<g>
	<g>
		<path d="M255.499,177.692c-42.885,0-77.772,34.89-77.772,77.777c0,42.88,34.887,77.766,77.772,77.766    c42.848,0,77.704-34.886,77.704-77.766C333.202,212.583,298.345,177.692,255.499,177.692z M271.953,271.957    c-4.338,4.336-10.355,6.824-16.496,6.824c-6.126,0-12.144-2.488-16.482-6.824c-4.336-4.355-6.825-10.355-6.825-16.498    c0.002-6.14,2.489-12.14,6.825-16.494c4.338-4.338,10.355-6.827,16.482-6.827c6.141,0,12.158,2.489,16.496,6.827    c4.336,4.355,6.841,10.355,6.841,16.494C278.794,261.603,276.29,267.604,271.953,271.957z"/>
	</g>
</g>
<g>
	<g>
		<path d="M91.569,124.507l-16.571-16.735L58.588,91.198C26.052,130.123,4.831,178.801,0,232.145h23.409h23.466h86.434    c3.209-16.846,9.798-32.509,19.075-46.221L91.569,124.507z"/>
	</g>
</g>
<g>
	<g>
		<path d="M278.818,0.009v23.408v23.466v86.392c57.451,10.956,101.025,61.565,101.025,122.193    c0,68.601-55.782,124.409-124.347,124.409c-60.631,0-111.242-43.605-122.192-101.092H46.875H23.409H0    c11.822,130.563,121.879,233.208,255.475,233.208c141.447,0,256.523-115.079,256.523-256.529    C512,121.884,409.366,11.843,278.818,0.009z"/>
	</g>
</g>
<g>
</g>
<g>
</g>
<g>
</g>
<g>
</g>
<g>
</g>
<g>
</g>
<g>
</g>
<g>
</g>
<g>
</g>
<g>
</g>
<g>
</g>
<g>
</g>
<g>
</g>
<g>
</g>
<g>
</g>
</svg>
