<?xml version="1.0" encoding="iso-8859-1"?>
<!-- Generator: Adobe Illustrator 19.0.0, SVG Export Plug-In . SVG Version: 6.00 Build 0)  -->
<svg xmlns="http://www.w3.org/2000/svg" xmlns:xlink="http://www.w3.org/1999/xlink" version="1.1" id="Capa_1" x="0px" y="0px" viewBox="0 0 511.999 511.999" style="enable-background:new 0 0 511.999 511.999;" xml:space="preserve">
<g>
	<g>
		<path d="M491.429,375.233h-21.312h-15.394H57.276H41.882H20.568H0c8.998,37.931,43.131,66.241,83.772,66.241h344.454    c40.643,0,74.774-28.31,83.772-66.241H491.429z"/>
	</g>
</g>
<g>
	<g>
		<path d="M454.723,70.524H57.276c-10.975,0-19.872,8.897-19.872,19.872v245.092h19.872h19.872H434.85h19.872h19.872V90.397    C474.595,79.422,465.697,70.524,454.723,70.524z M156.638,262.623c0,10.975-8.898,19.872-19.872,19.872    c-10.975,0-19.872-8.898-19.872-19.872v-52.993c0-10.975,8.898-19.872,19.872-19.872c10.975,0,19.872,8.898,19.872,19.872V262.623    z M236.127,262.623c0,10.975-8.898,19.872-19.872,19.872c-10.975,0-19.872-8.898-19.872-19.872v-92.738    c0-10.975,8.898-19.872,19.872-19.872c10.975,0,19.872,8.897,19.872,19.872V262.623z M315.616,262.623    c0,10.975-8.898,19.872-19.872,19.872c-10.975,0-19.872-8.898-19.872-19.872V156.638c0-10.975,8.898-19.872,19.872-19.872    c10.975,0,19.872,8.897,19.872,19.872V262.623z M395.106,262.623c0,10.975-8.898,19.872-19.872,19.872    c-10.975,0-19.872-8.898-19.872-19.872v-66.241c0-10.975,8.898-19.872,19.872-19.872c10.975,0,19.872,8.898,19.872,19.872V262.623    z"/>
	</g>
</g>
<g>
</g>
<g>
</g>
<g>
</g>
<g>
</g>
<g>
</g>
<g>
</g>
<g>
</g>
<g>
</g>
<g>
</g>
<g>
</g>
<g>
</g>
<g>
</g>
<g>
</g>
<g>
</g>
<g>
</g>
</svg>
