<?xml version="1.0" encoding="iso-8859-1"?>
<!-- Generator: Adobe Illustrator 19.0.0, SVG Export Plug-In . SVG Version: 6.00 Build 0)  -->
<svg xmlns="http://www.w3.org/2000/svg" xmlns:xlink="http://www.w3.org/1999/xlink" version="1.1" id="Capa_1" x="0px" y="0px" viewBox="0 0 512 512" style="enable-background:new 0 0 512 512;" xml:space="preserve">
<g>
	<g>
		<path d="M488.727,224.97h-7.758V54.303h7.758C501.58,54.303,512,43.883,512,31.03c0-12.853-10.42-23.273-23.273-23.273h-31.03    H54.303h-31.03C10.42,7.758,0,18.177,0,31.03c0,12.853,10.42,23.273,23.273,23.273h7.758V224.97h-7.758    C10.42,224.97,0,235.39,0,248.242c0,12.853,10.42,23.273,23.273,23.273h31.03h100.849h77.573v106.744l-85.993,86.281    c-9.075,9.104-9.048,23.839,0.054,32.912c4.543,4.527,10.487,6.789,16.429,6.789c5.969,0,11.937-2.282,16.483-6.844l53.026-53.205    v36.772c0,12.853,10.42,23.273,23.273,23.273c12.853,0,23.273-10.42,23.273-23.273v-36.777l53.029,53.206    c4.547,4.561,10.515,6.844,16.483,6.844c5.942,0,11.886-2.262,16.429-6.789c9.104-9.073,9.129-23.81,0.054-32.912l-85.996-86.281    V271.515h77.579h100.848h31.03c12.853,0,23.273-10.42,23.273-23.273C512,235.39,501.58,224.97,488.727,224.97z M457.697,86.295    l-23.273,50.128l-41.112,88.547h-72.927L256,86.295L191.615,224.97h-72.927l-41.112-88.547L54.303,86.295L39.449,54.303h14.854    h23.273h13.191l64.385,138.674l64.385-138.674h21.609h29.708h21.609l64.385,138.674l64.385-138.674h13.191h23.273h14.854    L457.697,86.295z"/>
	</g>
</g>
<g>
</g>
<g>
</g>
<g>
</g>
<g>
</g>
<g>
</g>
<g>
</g>
<g>
</g>
<g>
</g>
<g>
</g>
<g>
</g>
<g>
</g>
<g>
</g>
<g>
</g>
<g>
</g>
<g>
</g>
</svg>
