<?xml version="1.0" encoding="iso-8859-1"?>
<!-- Generator: Adobe Illustrator 19.0.0, SVG Export Plug-In . SVG Version: 6.00 Build 0)  -->
<svg xmlns="http://www.w3.org/2000/svg" xmlns:xlink="http://www.w3.org/1999/xlink" version="1.1" id="Capa_1" x="0px" y="0px" viewBox="0 0 512 512" style="enable-background:new 0 0 512 512;" xml:space="preserve">
<g>
	<g>
		<path d="M162.909,49.49v69.689c2.683,3.049,4.777,6.617,6.105,10.544l60.303,34.816c2.206-7.933,3.41-16.277,3.41-24.903    C232.727,96.34,203.014,59.851,162.909,49.49z"/>
	</g>
</g>
<g>
	<g>
		<path d="M145.773,170.052c-1.984,0.399-4.036,0.614-6.136,0.614c-2.101,0-4.152-0.216-6.136-0.614l-60.233,34.776    c16.901,17.203,40.401,27.898,66.365,27.899c0.003,0,0.006,0,0.009,0c25.963-0.002,49.465-10.698,66.365-27.899L145.773,170.052z"/>
	</g>
</g>
<g>
	<g>
		<path d="M46.545,139.636c0,8.626,1.204,16.971,3.41,24.903l60.303-34.814c1.328-3.928,3.423-7.497,6.105-10.546V49.49    C76.259,59.851,46.545,96.34,46.545,139.636z"/>
	</g>
</g>
<g>
	<g>
		<path d="M355.19,165.458c-3.423-2.282-6.366-5.226-8.65-8.648l-67.247-18.019c0,0.284-0.02,0.562-0.02,0.846    c0,51.329,41.758,93.088,93.086,93.091c0.003,0,0.006,0,0.009,0c0.282,0,0.559-0.019,0.839-0.022L355.19,165.458z"/>
	</g>
</g>
<g>
	<g>
		<path d="M256,216.731c-16.384,24.646-40.372,43.816-68.597,54.123l54.964,54.964h27.266l54.964-54.964    C296.372,260.549,272.384,241.377,256,216.731z"/>
	</g>
</g>
<g>
	<g>
		<path d="M452.526,92.388l-49.233,49.23c-0.267,4.205-1.368,8.176-3.151,11.764l18.021,67.252    c28.207-16.012,47.292-46.31,47.292-80.997C465.455,122.397,460.726,106.248,452.526,92.388z"/>
	</g>
</g>
<g>
	<g>
		<path d="M372.364,46.545c-34.687,0-64.985,19.085-80.998,47.293l67.252,18.019c3.589-1.783,7.561-2.884,11.764-3.153l49.233-49.23    C405.754,51.273,389.603,46.545,372.364,46.545z"/>
	</g>
</g>
<g>
	<g>
		<path d="M488.727,216.731c-6.597,9.925-14.428,18.96-23.273,26.888c-22.396,20.072-51.287,33.03-83.09,35.292l-59.268,59.268    c1.731,3.257,2.721,6.966,2.721,10.912c0,12.853-10.42,23.273-23.273,23.273h-23.273h-46.545h-23.273    c-12.853,0-23.273-10.42-23.273-23.273c0-3.946,0.99-7.657,2.721-10.912l-59.268-59.268c-31.803-2.262-60.694-15.222-83.09-35.292    c-8.845-7.927-16.676-16.963-23.273-26.886c-1.317-1.98-2.583-3.997-3.798-6.045c-0.267-0.402-0.524-0.81-0.768-1.232    c-0.107-0.185-0.188-0.379-0.289-0.565C6.704,188.467,0,164.819,0,139.636v349.091C0,501.58,10.42,512,23.273,512h465.455    C501.58,512,512,501.58,512,488.727V139.636C512,168.114,503.423,194.624,488.727,216.731z M412.098,412.093    c-4.329,4.33-10.333,6.813-16.462,6.813s-12.133-2.482-16.462-6.813c-4.329-4.344-6.811-10.333-6.811-16.46    c0-6.113,2.482-12.119,6.811-16.462c4.329-4.329,10.333-6.811,16.462-6.811s12.133,2.482,16.462,6.811    c4.329,4.344,6.811,10.333,6.811,16.462C418.909,401.76,416.427,407.766,412.098,412.093z"/>
	</g>
</g>
<g>
	<g>
		<path d="M139.636,0c28.478,0,54.987,8.575,77.095,23.273c9.925,6.597,18.961,14.427,26.888,23.273    c4.496,5.018,8.636,10.364,12.381,15.996c3.744-5.632,7.883-10.977,12.381-15.996c7.927-8.845,16.964-16.676,26.888-23.273    C317.376,8.575,343.886,0,372.364,0H139.636z"/>
	</g>
</g>
<g>
	<g>
		<path d="M488.727,0H372.364c28.478,0,54.987,8.575,77.095,23.273c7.303,4.855,14.125,10.38,20.378,16.482    c0.428,0.369,0.859,0.737,1.264,1.143c0.406,0.406,0.773,0.836,1.142,1.264c6.104,6.253,11.627,13.073,16.483,20.378    c14.696,22.108,23.273,48.617,23.273,77.095V23.273C512,10.42,501.58,0,488.727,0z"/>
	</g>
</g>
<g>
	<g>
		<path d="M23.273,0C10.42,0,0,10.42,0,23.273v116.364c0-28.478,8.577-54.987,23.273-77.095    c10.341-15.557,23.712-28.928,39.269-39.269C84.649,8.575,111.158,0,139.636,0H23.273z"/>
	</g>
</g>
<g>
</g>
<g>
</g>
<g>
</g>
<g>
</g>
<g>
</g>
<g>
</g>
<g>
</g>
<g>
</g>
<g>
</g>
<g>
</g>
<g>
</g>
<g>
</g>
<g>
</g>
<g>
</g>
<g>
</g>
</svg>
