<?xml version="1.0" encoding="iso-8859-1"?>
<!-- Generator: Adobe Illustrator 19.0.0, SVG Export Plug-In . SVG Version: 6.00 Build 0)  -->
<svg xmlns="http://www.w3.org/2000/svg" xmlns:xlink="http://www.w3.org/1999/xlink" version="1.1" id="Capa_1" x="0px" y="0px" viewBox="0 0 512 512" style="enable-background:new 0 0 512 512;" xml:space="preserve">
<g>
	<g>
		<path d="M488.727,0H302.545h-93.091h-93.091H23.273C10.42,0,0,10.42,0,23.273v93.091v93.091v93.091v93.091v93.091    C0,501.58,10.42,512,23.273,512h93.091h93.091h93.091h186.182C501.58,512,512,501.58,512,488.727V23.273    C512,10.42,501.58,0,488.727,0z M93.091,465.455H46.545v-46.545h46.545V465.455z M93.091,372.364H46.545v-46.545h46.545V372.364z     M93.091,279.273H46.545v-46.545h46.545V279.273z M93.091,186.182H46.545v-46.545h46.545V186.182z M93.091,93.091H46.545V46.545    h46.545V93.091z M186.182,465.455h-46.545v-46.545h46.545V465.455z M186.182,372.364h-46.545v-46.545h46.545V372.364z     M186.182,279.273h-46.545v-46.545h46.545V279.273z M186.182,186.182h-46.545v-46.545h46.545V186.182z M186.182,93.091h-46.545    V46.545h46.545V93.091z M279.273,465.455h-46.545v-46.545h46.545V465.455z M279.273,372.364h-46.545v-46.545h46.545V372.364z     M279.273,279.273h-46.545v-46.545h46.545V279.273z M279.273,186.182h-46.545v-46.545h46.545V186.182z M279.273,93.091h-46.545    V46.545h46.545V93.091z M412.098,435.366c-4.346,4.329-10.333,6.813-16.462,6.813s-12.117-2.482-16.462-6.813    c-4.329-4.327-6.811-10.333-6.811-16.46c0-6.128,2.482-12.117,6.811-16.446c4.346-4.344,10.333-6.825,16.462-6.825    s12.117,2.482,16.462,6.825c4.329,4.329,6.811,10.318,6.811,16.446C418.909,425.033,416.427,431.039,412.098,435.366z     M412.098,326.76c-4.346,4.329-10.349,6.813-16.462,6.813c-6.113,0-12.117-2.482-16.462-6.813    c-4.329-4.327-6.811-10.333-6.811-16.46c0-6.128,2.482-12.119,6.811-16.446c4.346-4.344,10.333-6.827,16.462-6.827    s12.117,2.482,16.462,6.827c4.329,4.329,6.811,10.318,6.811,16.446C418.909,316.427,416.427,322.433,412.098,326.76z     M412.098,218.154c-4.346,4.329-10.333,6.813-16.462,6.813s-12.117-2.482-16.462-6.813c-4.329-4.344-6.811-10.333-6.811-16.46    c0-6.113,2.482-12.119,6.811-16.462c4.346-4.329,10.333-6.811,16.462-6.811s12.117,2.482,16.462,6.811    c4.329,4.344,6.811,10.349,6.811,16.462C418.909,207.821,416.427,213.811,412.098,218.154z M412.098,109.548    c-4.346,4.329-10.333,6.813-16.462,6.813s-12.117-2.484-16.462-6.813c-4.329-4.327-6.811-10.333-6.811-16.46    c0-6.128,2.482-12.119,6.811-16.448c4.346-4.344,10.333-6.825,16.462-6.825s12.117,2.482,16.462,6.825    c4.329,4.329,6.811,10.318,6.811,16.448C418.909,99.215,416.427,105.221,412.098,109.548z"/>
	</g>
</g>
<g>
</g>
<g>
</g>
<g>
</g>
<g>
</g>
<g>
</g>
<g>
</g>
<g>
</g>
<g>
</g>
<g>
</g>
<g>
</g>
<g>
</g>
<g>
</g>
<g>
</g>
<g>
</g>
<g>
</g>
</svg>
