<?xml version="1.0" encoding="iso-8859-1"?>
<!-- Generator: Adobe Illustrator 19.0.0, SVG Export Plug-In . SVG Version: 6.00 Build 0)  -->
<svg xmlns="http://www.w3.org/2000/svg" xmlns:xlink="http://www.w3.org/1999/xlink" version="1.1" id="Capa_1" x="0px" y="0px" viewBox="0 0 512 512" style="enable-background:new 0 0 512 512;" xml:space="preserve">
<g>
	<g>
		<path d="M511.406,237.979c-4.278-64.666-32.759-124.696-80.201-169.035C383.636,24.484,321.413,0,255.997,0    C190.58,0,128.355,24.485,80.786,68.946C33.345,113.285,4.867,173.316,0.592,237.983c-0.034,0.511-0.049,1.022-0.049,1.533v63.474    v185.787C0.543,501.604,10.941,512,23.766,512h92.894c10.482,0,19.331-6.945,22.223-16.484    c9.537-2.889,16.482-11.742,16.482-22.222V318.472c0-10.482-6.945-19.331-16.482-22.222c-2.891-9.537-11.742-16.484-22.223-16.484    h-69.67v-39.464c7.575-108.768,99.237-193.855,209.007-193.855c109.766,0,201.432,85.086,209.014,193.852v39.467h-69.67    c-10.482,0-19.331,6.947-22.223,16.484c-9.537,2.889-16.482,11.74-16.482,22.222v154.823c0,10.482,6.945,19.333,16.482,22.222    C376.008,505.053,384.859,512,395.34,512h92.894c12.826,0,23.223-10.396,23.223-23.223V302.989v-63.477    C511.457,239.001,511.44,238.49,511.406,237.979z"/>
	</g>
</g>
<g>
</g>
<g>
</g>
<g>
</g>
<g>
</g>
<g>
</g>
<g>
</g>
<g>
</g>
<g>
</g>
<g>
</g>
<g>
</g>
<g>
</g>
<g>
</g>
<g>
</g>
<g>
</g>
<g>
</g>
</svg>
