<?xml version="1.0" encoding="iso-8859-1"?>
<!-- Generator: Adobe Illustrator 19.0.0, SVG Export Plug-In . SVG Version: 6.00 Build 0)  -->
<svg xmlns="http://www.w3.org/2000/svg" xmlns:xlink="http://www.w3.org/1999/xlink" version="1.1" id="Capa_1" x="0px" y="0px" viewBox="0 0 512 512" style="enable-background:new 0 0 512 512;" xml:space="preserve">
<g>
	<g>
		<path d="M19.692,78.769C8.817,78.769,0,87.586,0,98.462v393.846C0,503.183,8.817,512,19.692,512h137.846v-19.692V479.18v-6.564    V137.846v-19.692V98.462V78.769H19.692z M99.257,427.464c-3.663,3.663-8.743,5.765-13.929,5.765    c-5.172,0-10.254-2.101-13.917-5.765c-3.661-3.663-5.763-8.743-5.763-13.928c0-5.186,2.101-10.253,5.763-13.929    c3.663-3.663,8.743-5.763,13.917-5.763c5.186,0,10.266,2.101,13.929,5.763c3.661,3.676,5.763,8.743,5.763,13.929    C105.02,418.72,102.919,423.801,99.257,427.464z M99.257,191.156c-3.663,3.663-8.743,5.765-13.929,5.765    c-5.172,0-10.254-2.101-13.917-5.765c-3.661-3.663-5.763-8.743-5.763-13.928c0-5.186,2.101-10.253,5.763-13.929    c3.663-3.663,8.743-5.763,13.917-5.763c5.186,0,10.266,2.101,13.929,5.763c3.661,3.676,5.763,8.743,5.763,13.929    C105.02,182.412,102.919,187.493,99.257,191.156z"/>
	</g>
</g>
<g>
	<g>
		<path d="M196.923,118.154v19.692v19.692v301.949v19.692v13.128v6.564h118.154V479.18v-13.128v-6.564V177.231v-19.692v-19.692    v-19.692H196.923z M269.924,414.335c-3.663,3.663-8.743,5.765-13.929,5.765c-5.172,0-10.254-2.101-13.917-5.765    c-3.661-3.676-5.763-8.743-5.763-13.928c0-5.172,2.101-10.253,5.763-13.929c3.663-3.663,8.73-5.763,13.917-5.763    s10.266,2.101,13.929,5.763c3.661,3.676,5.775,8.743,5.775,13.929C275.699,405.592,273.585,410.673,269.924,414.335z     M269.924,230.54c-3.663,3.663-8.743,5.765-13.929,5.765c-5.172,0-10.254-2.101-13.917-5.765    c-3.661-3.663-5.763-8.743-5.763-13.928c0-5.173,2.101-10.253,5.763-13.916c3.663-3.676,8.73-5.776,13.917-5.776    s10.266,2.101,13.929,5.776c3.661,3.663,5.775,8.73,5.775,13.916C275.699,221.797,273.585,226.878,269.924,230.54z"/>
	</g>
</g>
<g>
	<g>
		<path d="M492.308,157.538H354.462v19.692v19.692v249.436v19.692v13.128v6.564h137.846c10.875,0,19.692-8.817,19.692-19.692    v-288.82C512,166.355,503.183,157.538,492.308,157.538z M440.589,401.207c-3.663,3.663-8.743,5.765-13.917,5.765    c-5.186,0-10.266-2.101-13.929-5.765c-3.676-3.676-5.775-8.743-5.775-13.928c0-5.173,2.101-10.253,5.775-13.916    c3.663-3.676,8.743-5.776,13.929-5.776c5.172,0,10.253,2.101,13.917,5.776c3.661,3.663,5.763,8.73,5.763,13.916    C446.352,392.464,444.252,397.544,440.589,401.207z M440.589,269.925c-3.663,3.663-8.743,5.765-13.917,5.765    c-5.186,0-10.266-2.101-13.929-5.765c-3.676-3.676-5.775-8.743-5.775-13.928c0-5.172,2.101-10.254,5.775-13.929    c3.677-3.663,8.743-5.763,13.929-5.763c5.172,0,10.253,2.101,13.917,5.763c3.661,3.676,5.763,8.743,5.763,13.929    C446.352,261.182,444.252,266.262,440.589,269.925z"/>
	</g>
</g>
<g>
	<g>
		<path d="M485.744,0c-6.634,0-12.682,2.492-17.31,6.564h-238.69c-10.875,0-19.692,8.817-19.692,19.692s8.817,19.692,19.692,19.692    h90.377h29.297h119.016c4.628,4.072,10.676,6.564,17.31,6.564c14.478,0,26.256-11.779,26.256-26.256S500.221,0,485.744,0z"/>
	</g>
</g>
<g>
</g>
<g>
</g>
<g>
</g>
<g>
</g>
<g>
</g>
<g>
</g>
<g>
</g>
<g>
</g>
<g>
</g>
<g>
</g>
<g>
</g>
<g>
</g>
<g>
</g>
<g>
</g>
<g>
</g>
</svg>
