<?xml version="1.0" encoding="iso-8859-1"?>
<!-- Generator: Adobe Illustrator 19.0.0, SVG Export Plug-In . SVG Version: 6.00 Build 0)  -->
<svg xmlns="http://www.w3.org/2000/svg" xmlns:xlink="http://www.w3.org/1999/xlink" version="1.1" id="Capa_1" x="0px" y="0px" viewBox="0 0 512 512" style="enable-background:new 0 0 512 512;" xml:space="preserve">
<g>
	<g>
		<path d="M215.233,21.247c-4.147-1.382-8.634-1.382-12.781,0L165.14,33.685H20.211C9.049,33.685,0,42.733,0,53.895v80.842v80.842    v80.842v80.842v80.842c0,11.162,9.049,20.211,20.211,20.211h144.93l37.31,12.436c4.147,1.382,8.634,1.382,12.781,0l13.821-4.607    v-21.303v-6.737v-14.566V68.463V53.895v-6.737V25.854L215.233,21.247z M148.211,437.895H40.421v-40.421h45.598    c3.7,4.124,9.056,6.737,15.034,6.737h47.158V437.895z M148.211,350.316h-47.158c-5.98,0-11.334,2.613-15.034,6.737H40.421v-40.421    h45.598c3.7,4.124,9.056,6.737,15.034,6.737h47.158V350.316z M148.211,269.474h-47.158c-5.98,0-11.334,2.613-15.034,6.737H40.421    V235.79h45.598c3.7,4.124,9.056,6.737,15.034,6.737h47.158V269.474z M148.211,188.632h-47.158c-5.98,0-11.334,2.613-15.034,6.737    H40.421v-40.421h45.598c3.7,4.126,9.056,6.737,15.034,6.737h47.158V188.632z M148.211,107.79h-47.158    c-5.98,0-11.334,2.611-15.034,6.737H40.421V74.106h107.789V107.79z"/>
	</g>
</g>
<g>
	<g>
		<path d="M424.421,33.685h-74.105v20.211v20.211v363.789v20.211v20.211h74.105c48.291,0,87.579-39.288,87.579-87.579V121.264    C512,72.972,472.712,33.685,424.421,33.685z M425.236,391.556c-3.759,3.758-8.974,5.914-14.296,5.914    c-5.309,0-10.524-2.156-14.282-5.914c-3.759-3.76-5.916-8.974-5.916-14.297c0-5.321,2.157-10.522,5.916-14.282    c3.758-3.773,8.972-5.928,14.282-5.928c5.322,0,10.536,2.157,14.296,5.928c3.759,3.76,5.927,8.96,5.927,14.282    C431.165,382.583,428.995,387.784,425.236,391.556z M425.236,310.714c-3.759,3.758-8.974,5.914-14.296,5.914    c-5.309,0-10.524-2.156-14.282-5.914c-3.759-3.76-5.916-8.973-5.916-14.297c0-5.321,2.157-10.522,5.916-14.294    c3.758-3.759,8.972-5.916,14.282-5.916c5.322,0,10.536,2.157,14.296,5.916c3.759,3.774,5.927,8.987,5.927,14.294    C431.165,301.741,428.995,306.954,425.236,310.714z M425.236,229.872c-3.759,3.758-8.974,5.914-14.296,5.914    c-5.309,0-10.524-2.156-14.282-5.914c-3.759-3.76-5.916-8.973-5.916-14.297c0-5.321,2.157-10.522,5.916-14.282    c3.758-3.773,8.972-5.928,14.282-5.928c5.322,0,10.536,2.157,14.296,5.928c3.759,3.761,5.927,8.974,5.927,14.282    C431.165,220.899,428.995,226.1,425.236,229.872z M425.236,149.03c-3.759,3.759-8.974,5.915-14.296,5.915    c-5.309,0-10.524-2.156-14.282-5.915c-3.759-3.759-5.916-8.973-5.916-14.296c0-5.322,2.157-10.523,5.916-14.282    c3.758-3.773,8.972-5.928,14.282-5.928c5.322,0,10.536,2.156,14.296,5.928c3.759,3.759,5.927,8.96,5.927,14.282    C431.165,140.057,428.995,145.257,425.236,149.03z"/>
	</g>
</g>
<g>
	<g>
		<path d="M296.075,21.247c-4.147-1.382-8.634-1.382-12.781,0l-13.82,4.607v21.305v6.737v14.568v375.076v14.566v6.737v21.303    l13.82,4.607c2.074,0.691,4.233,1.037,6.391,1.037c2.159,0,4.317-0.346,6.391-1.037l13.82-4.607v-21.303v-6.737v-14.566V68.463    V53.895v-6.737V25.854L296.075,21.247z"/>
	</g>
</g>
<g>
</g>
<g>
</g>
<g>
</g>
<g>
</g>
<g>
</g>
<g>
</g>
<g>
</g>
<g>
</g>
<g>
</g>
<g>
</g>
<g>
</g>
<g>
</g>
<g>
</g>
<g>
</g>
<g>
</g>
</svg>
