<?xml version="1.0" encoding="iso-8859-1"?>
<!-- Generator: Adobe Illustrator 19.0.0, SVG Export Plug-In . SVG Version: 6.00 Build 0)  -->
<svg xmlns="http://www.w3.org/2000/svg" xmlns:xlink="http://www.w3.org/1999/xlink" version="1.1" id="Capa_1" x="0px" y="0px" viewBox="0 0 512 512" style="enable-background:new 0 0 512 512;" xml:space="preserve">
<g>
	<g>
		<path d="M411.151,418.909h-23.273H124.121h-23.273H77.576v69.818c0,12.853,10.42,23.273,23.273,23.273h310.303    c12.853,0,23.273-10.42,23.273-23.273v-69.818H411.151z"/>
	</g>
</g>
<g>
	<g>
		<path d="M411.151,0H100.849C87.996,0,77.576,10.42,77.576,23.273v349.091h23.273h23.273h263.758h23.273h23.273V23.273    C434.424,10.42,424.004,0,411.151,0z M333.576,248.242c0,12.853-10.42,23.273-23.273,23.273h-15.515    c-12.853,0-23.273-10.42-23.273-23.273c0-10.128,6.482-18.722,15.515-21.92v-43.698l-46.545,7.758v73.376    c0,12.853-10.42,23.273-23.273,23.273h-15.515c-12.853,0-23.273-10.42-23.273-23.273c0-10.128,6.482-18.722,15.515-21.92v-71.171    c0-11.377,8.225-21.087,19.447-22.956l93.091-15.515c6.744-1.125,13.649,0.774,18.868,5.199c5.221,4.42,8.231,10.917,8.231,17.757    V248.242z"/>
	</g>
</g>
<g>
</g>
<g>
</g>
<g>
</g>
<g>
</g>
<g>
</g>
<g>
</g>
<g>
</g>
<g>
</g>
<g>
</g>
<g>
</g>
<g>
</g>
<g>
</g>
<g>
</g>
<g>
</g>
<g>
</g>
</svg>
