<?xml version="1.0" encoding="iso-8859-1"?>
<!-- Generator: Adobe Illustrator 19.0.0, SVG Export Plug-In . SVG Version: 6.00 Build 0)  -->
<svg xmlns="http://www.w3.org/2000/svg" xmlns:xlink="http://www.w3.org/1999/xlink" version="1.1" id="Capa_1" x="0px" y="0px" viewBox="0 0 512 512" style="enable-background:new 0 0 512 512;" xml:space="preserve">
<g>
	<g>
		<path d="M349.091,0c-38.499,0-69.818,31.32-69.818,69.818c0,30.34,19.458,56.208,46.545,65.815v353.094    c0,12.853,10.42,23.273,23.273,23.273c12.853,0,23.273-10.42,23.273-23.273V135.633c27.088-9.607,46.545-35.475,46.545-65.815    C418.909,31.32,387.589,0,349.091,0z"/>
	</g>
</g>
<g>
	<g>
		<path d="M162.909,0C124.41,0,93.091,31.32,93.091,69.818c0,30.34,19.458,56.208,46.545,65.815v353.094    c0,12.853,10.42,23.273,23.273,23.273c12.853,0,23.273-10.42,23.273-23.273V135.633c27.088-9.607,46.545-35.475,46.545-65.815    C232.727,31.32,201.407,0,162.909,0z"/>
	</g>
</g>
<g>
</g>
<g>
</g>
<g>
</g>
<g>
</g>
<g>
</g>
<g>
</g>
<g>
</g>
<g>
</g>
<g>
</g>
<g>
</g>
<g>
</g>
<g>
</g>
<g>
</g>
<g>
</g>
<g>
</g>
</svg>
