<?xml version="1.0" encoding="iso-8859-1"?>
<!-- Generator: Adobe Illustrator 19.0.0, SVG Export Plug-In . SVG Version: 6.00 Build 0)  -->
<svg xmlns="http://www.w3.org/2000/svg" xmlns:xlink="http://www.w3.org/1999/xlink" version="1.1" id="Capa_1" x="0px" y="0px" viewBox="0 0 512.001 512.001" style="enable-background:new 0 0 512.001 512.001;" xml:space="preserve">
<g>
	<g>
		<path d="M233.735,155.525l-21.131,21.128l-28.063,28.059l-5.311,5.31c-4.205,4.203-9.716,6.306-15.224,6.306    c-5.511,0-11.021-2.102-15.225-6.306l-31.493-31.491l-31.508,31.491c-8.409,8.404-22.04,8.404-30.448-0.003l-5.456-5.456    l-28.019-28.016L0.747,155.442C0.268,159.732,0,164.086,0,168.504c0,30.822,11.955,66.132,31.979,94.457    c18.06,25.545,40.149,42.249,63.725,48.599v127.633c0,11.892,9.641,21.533,21.533,21.533c11.892,0,21.533-9.641,21.533-21.533    V311.557c23.573-6.354,45.659-23.055,63.718-48.599c20.026-28.324,31.979-63.636,31.978-94.455    C234.466,164.134,234.203,159.806,233.735,155.525z"/>
	</g>
</g>
<g>
	<g>
		<path d="M200.132,85.612c-22.142-22.143-51.58-34.337-82.896-34.338c-43.212,0-81.013,23.518-101.344,58.409l15.844,15.843    l16.31,16.311l22.512,22.509l31.509-31.493c8.405-8.405,22.037-8.404,30.448,0.003l31.491,31.49l22.47-22.466l16.292-16.289    l15.904-15.9C213.617,101.005,207.426,92.906,200.132,85.612z"/>
	</g>
</g>
<g>
	<g>
		<path d="M511.265,155.529l-21.128,21.125l-28.088,28.082l-5.287,5.287c-4.205,4.203-9.714,6.306-15.224,6.306    c-5.511,0-11.021-2.102-15.224-6.306l-31.497-31.491l-31.508,31.491c-8.408,8.404-22.04,8.404-30.448-0.003l-5.428-5.426    l-28.046-28.045l-21.108-21.107c-0.478,4.292-0.746,8.646-0.746,13.065c0.001,30.821,11.958,66.131,31.982,94.455    c18.059,25.544,40.148,42.246,63.722,48.599v127.633c0,11.892,9.641,21.533,21.533,21.533c11.892,0,21.533-9.641,21.533-21.533    V311.56c23.573-6.352,45.661-23.053,63.719-48.599c20.024-28.325,31.979-63.636,31.979-94.457    C512,164.115,511.737,159.791,511.265,155.529z"/>
	</g>
</g>
<g>
	<g>
		<path d="M394.766,51.274c-43.212,0-81.011,23.518-101.344,58.409l15.844,15.841l16.312,16.311l22.512,22.511l31.508-31.493    c8.409-8.404,22.04-8.404,30.446,0.003l31.494,31.491l22.445-22.44l16.318-16.313l15.847-15.844    C475.826,74.822,438.007,51.275,394.766,51.274z"/>
	</g>
</g>
<g>
</g>
<g>
</g>
<g>
</g>
<g>
</g>
<g>
</g>
<g>
</g>
<g>
</g>
<g>
</g>
<g>
</g>
<g>
</g>
<g>
</g>
<g>
</g>
<g>
</g>
<g>
</g>
<g>
</g>
</svg>
