<?xml version="1.0" encoding="iso-8859-1"?>
<!-- Generator: Adobe Illustrator 19.0.0, SVG Export Plug-In . SVG Version: 6.00 Build 0)  -->
<svg xmlns="http://www.w3.org/2000/svg" xmlns:xlink="http://www.w3.org/1999/xlink" version="1.1" id="Capa_1" x="0px" y="0px" viewBox="0 0 512 512" style="enable-background:new 0 0 512 512;" xml:space="preserve">
<g>
	<g>
		<path d="M168.229,73.143c-68.563,0-124.343,55.78-124.343,124.343s55.78,124.343,124.343,124.343s124.343-55.78,124.343-124.343    S236.791,73.143,168.229,73.143z M183.75,213.002c-4.081,4.083-9.743,6.423-15.521,6.423s-11.425-2.341-15.521-6.423    c-4.081-4.08-6.422-9.743-6.422-15.519c0-5.778,2.341-11.425,6.422-15.521c4.097-4.081,9.743-6.422,15.521-6.422    s11.425,2.341,15.521,6.422c4.081,4.096,6.422,9.743,6.422,15.521C190.171,203.26,187.831,208.922,183.75,213.002z"/>
	</g>
</g>
<g>
	<g>
		<path d="M490.057,29.257H168.229c30.161,0,58.489,7.986,82.995,21.943c10.879,6.195,21.004,13.565,30.201,21.943    c33.792,30.792,55.033,75.131,55.033,124.343c0,92.761-75.467,168.229-168.229,168.229c-49.211,0-93.553-21.241-124.343-55.034    c-8.378-9.194-15.748-19.32-21.943-30.199C7.984,255.977,0,227.647,0,197.486V460.8c0,12.118,9.825,21.943,21.943,21.943h468.114    c12.118,0,21.943-9.825,21.943-21.943V51.2C512,39.082,502.175,29.257,490.057,29.257z M431.543,153.6    c0,6.492-2.836,12.306-7.314,16.323v144.592c0,5.821-2.311,11.4-6.428,15.515l-52.183,52.182    c-0.971,15.261-13.659,27.389-29.161,27.389c-16.132,0-29.257-13.126-29.257-29.257c0-15.502,12.127-28.191,27.388-29.164    l45.755-45.754V169.923c-4.478-4.017-7.314-9.832-7.314-16.323v-14.629c0-12.118,9.825-21.943,21.943-21.943h7.314h7.314    c12.118,0,21.943,9.825,21.943,21.943V153.6z"/>
	</g>
</g>
<g>
	<g>
		<path d="M21.943,29.257C9.825,29.257,0,39.082,0,51.2v146.286c0-30.161,7.984-58.491,21.943-82.995    c6.195-10.879,13.565-21.005,21.943-30.199c3.542-3.887,7.262-7.607,11.147-11.148c9.196-8.378,19.321-15.748,30.201-21.943    c24.506-13.957,52.834-21.943,82.995-21.943H21.943z"/>
	</g>
</g>
<g>
</g>
<g>
</g>
<g>
</g>
<g>
</g>
<g>
</g>
<g>
</g>
<g>
</g>
<g>
</g>
<g>
</g>
<g>
</g>
<g>
</g>
<g>
</g>
<g>
</g>
<g>
</g>
<g>
</g>
</svg>
