<?xml version="1.0" encoding="iso-8859-1"?>
<!-- Generator: Adobe Illustrator 19.0.0, SVG Export Plug-In . SVG Version: 6.00 Build 0)  -->
<svg xmlns="http://www.w3.org/2000/svg" xmlns:xlink="http://www.w3.org/1999/xlink" version="1.1" id="Capa_1" x="0px" y="0px" viewBox="0 0 511.999 511.999" style="enable-background:new 0 0 511.999 511.999;" xml:space="preserve">
<g>
	<g>
		<path d="M439.36,133.913h-84.071c-6.816-9.416-10.504-20.694-10.504-32.544c0-14.868,5.789-28.847,16.303-39.36    c8.527-8.526,19.313-13.957,31.193-15.707c12.716-1.873,21.507-13.698,19.634-26.413c-1.871-12.716-13.694-21.51-26.413-19.634    c-21.851,3.216-41.673,13.191-57.327,28.844c-19.305,19.304-29.936,44.972-29.936,72.272c0,11.238,1.831,22.19,5.295,32.544    h-0.175h-94.727h-0.174c3.466-10.355,5.295-21.307,5.295-32.544c0-27.3-10.632-52.968-29.936-72.271    C168.17,13.445,148.347,3.471,126.495,0.252c-12.702-1.876-24.54,6.918-26.414,19.633c-1.873,12.716,6.918,24.542,19.633,26.414    c11.881,1.75,22.666,7.18,31.192,15.707c10.513,10.513,16.305,24.492,16.305,39.36c0,11.85-3.689,23.127-10.504,32.544H72.638    c-12.853,0-23.273,10.42-23.273,23.273s10.42,23.273,23.273,23.273h48.82c-28.422,46.286-46.609,103.054-46.61,150.395    c0.002,80.636,52.971,149.126,125.937,172.532c0.512,0.163,1.021,0.337,1.533,0.495c16.97,5.275,35,8.121,53.682,8.121    c18.685,0,36.718-2.847,53.69-8.124c0.504-0.158,1.004-0.326,1.508-0.487c72.974-23.401,125.95-91.894,125.951-172.538    c-0.002-47.341-18.188-104.108-46.61-150.394h48.823c12.853,0,23.273-10.42,23.273-23.273    C462.634,144.331,452.212,133.913,439.36,133.913z M185.363,445.382h-0.002c-38.358-23.746-63.967-66.201-63.969-114.529    c0.003-47.408,23.502-108.967,56.765-150.395h7.205V445.382z M280.09,463.293h-0.002c-7.818,1.418-15.869,2.164-24.089,2.164    c-8.221,0-16.272-0.745-24.092-2.164V180.458h48.182V463.293z M390.602,330.852c-0.002,48.329-25.614,90.788-63.969,114.531    V180.458h7.204C367.1,221.885,390.599,283.445,390.602,330.852z"/>
	</g>
</g>
<g>
</g>
<g>
</g>
<g>
</g>
<g>
</g>
<g>
</g>
<g>
</g>
<g>
</g>
<g>
</g>
<g>
</g>
<g>
</g>
<g>
</g>
<g>
</g>
<g>
</g>
<g>
</g>
<g>
</g>
</svg>
