<?xml version="1.0" encoding="iso-8859-1"?>
<!-- Generator: Adobe Illustrator 19.0.0, SVG Export Plug-In . SVG Version: 6.00 Build 0)  -->
<svg xmlns="http://www.w3.org/2000/svg" xmlns:xlink="http://www.w3.org/1999/xlink" version="1.1" id="Capa_1" x="0px" y="0px" viewBox="0 0 512 512" style="enable-background:new 0 0 512 512;" xml:space="preserve">
<g>
	<g>
		<path d="M422.957,0h-11.13h-77.913H256h-77.913h-77.913h-11.13C76.75,0,66.783,9.967,66.783,22.261    c0,8.688,4.986,16.193,12.243,19.86c6.594,59.143,42.257,109.633,92.343,136.8l-6.954,80.789h22.342h22.344h93.798h22.342h22.343    l-6.954-80.789c50.087-27.167,85.75-77.658,92.346-136.802c7.256-3.666,12.242-11.17,12.242-19.858    C445.217,9.967,435.25,0,422.957,0z M124.3,44.522h32.286c2.032,30.474,8.211,59.187,18.003,83.548    C148.48,107.934,130.003,78.372,124.3,44.522z M233.739,142.502c-4.546-5.294-8.933-12.031-12.922-20.011    c-10.423-20.844-17.271-48.443-19.588-77.969h32.51V142.502z M291.181,122.491c-3.991,7.978-8.376,14.716-12.92,20.01V44.522    h32.51C308.454,74.049,301.605,101.646,291.181,122.491z M337.409,128.07c9.793-24.361,15.973-53.074,18.005-83.548H387.7    C381.996,78.372,363.519,107.934,337.409,128.07z"/>
	</g>
</g>
<g>
	<g>
		<path d="M367.223,487.831l-15.807-183.599h-22.342H306.73H205.266h-22.341h-22.342l-15.804,183.599    c-0.534,6.212,1.561,12.365,5.776,16.96c4.216,4.595,10.166,7.21,16.402,7.21h178.087c6.236,0,12.186-2.616,16.402-7.21    C365.661,500.196,367.757,494.043,367.223,487.831z"/>
	</g>
</g>
<g>
</g>
<g>
</g>
<g>
</g>
<g>
</g>
<g>
</g>
<g>
</g>
<g>
</g>
<g>
</g>
<g>
</g>
<g>
</g>
<g>
</g>
<g>
</g>
<g>
</g>
<g>
</g>
<g>
</g>
</svg>
