<?xml version="1.0" encoding="iso-8859-1"?>
<!-- Generator: Adobe Illustrator 19.0.0, SVG Export Plug-In . SVG Version: 6.00 Build 0)  -->
<svg xmlns="http://www.w3.org/2000/svg" xmlns:xlink="http://www.w3.org/1999/xlink" version="1.1" id="Capa_1" x="0px" y="0px" viewBox="0 0 511.999 511.999" style="enable-background:new 0 0 511.999 511.999;" xml:space="preserve">
<g>
	<g>
		<path d="M505.368,92.018l-10.666-10.667l-51.239-51.239l-12.807-12.807c-0.002,0-0.002-0.002-0.002-0.002L419.983,6.632    c-8.839-8.842-23.176-8.842-32.019,0c-6.969,6.967-8.421,17.339-4.406,25.754l-33.88,33.88    c-8.414-4.013-18.785-2.561-25.751,4.406c-8.842,8.842-8.842,23.177,0,32.019l10.652,10.652c0.008,0.006,0.014,0.015,0.021,0.023    l16.007,16.009l-33.366,33.366c-22.833-16.303-50.082-25.126-78.701-25.126c-36.286,0-70.402,14.131-96.058,39.787    c-6.447,6.447-12.223,13.523-17.253,21.13c-29.886,6.355-56.953,21.056-78.81,42.913C16.485,271.377,0,311.176,0,353.511    s16.484,82.133,46.419,112.068c29.933,29.935,69.734,46.421,112.068,46.421c0.003,0-0.002,0,0.002,0    c42.332,0,82.135-16.486,112.067-46.419c21.855-21.856,36.558-48.925,42.911-78.811c7.604-5.028,14.682-10.803,21.129-17.25    c25.659-25.659,39.788-59.774,39.788-96.061c0-28.619-8.824-55.868-25.126-78.701l33.367-33.367l16.01,16.01l0.002,0.002    l10.672,10.673c4.421,4.421,10.216,6.631,16.01,6.631c5.795,0,11.589-2.21,16.009-6.631c6.969-6.969,8.421-17.339,4.408-25.754    l33.879-33.88c3.075,1.467,6.403,2.225,9.742,2.225c5.793,0,11.589-2.211,16.009-6.632    C514.21,115.195,514.21,100.86,505.368,92.018z M195.847,390.866c-4.421,4.421-10.216,6.632-16.009,6.632    c-5.795,0-11.589-2.21-16.009-6.632l-21.34-21.339l-0.015-0.015l-21.339-21.339c-8.842-8.841-8.842-23.177,0-32.019    c8.841-8.841,23.177-8.842,32.019,0l5.336,5.336l32.021,32.019l5.336,5.336C204.689,367.688,204.689,382.025,195.847,390.866z     M270.558,294.809c-7.129,7.126-16.604,11.05-26.682,11.05c-1.802,0-3.585-0.131-5.339-0.379    c-8.054-1.132-15.491-4.82-21.343-10.672c-5.854-5.852-9.543-13.292-10.676-21.348c-0.246-1.754-0.377-3.535-0.377-5.336    c0-10.081,3.926-19.557,11.053-26.685c7.123-7.126,16.599-11.052,26.68-11.052c1.802,0,3.585,0.131,5.339,0.379    c8.053,1.134,15.491,4.823,21.343,10.675c5.854,5.852,9.543,13.29,10.676,21.346c0.246,1.754,0.377,3.535,0.377,5.339    C281.61,278.206,277.684,287.682,270.558,294.809z"/>
	</g>
</g>
<g>
</g>
<g>
</g>
<g>
</g>
<g>
</g>
<g>
</g>
<g>
</g>
<g>
</g>
<g>
</g>
<g>
</g>
<g>
</g>
<g>
</g>
<g>
</g>
<g>
</g>
<g>
</g>
<g>
</g>
</svg>
