<?xml version="1.0" encoding="iso-8859-1"?>
<!-- Generator: Adobe Illustrator 19.0.0, SVG Export Plug-In . SVG Version: 6.00 Build 0)  -->
<svg xmlns="http://www.w3.org/2000/svg" xmlns:xlink="http://www.w3.org/1999/xlink" version="1.1" id="Capa_1" x="0px" y="0px" viewBox="0 0 512 512" style="enable-background:new 0 0 512 512;" xml:space="preserve">
<g>
	<g>
		<path d="M511.95,261.212c-4.287-64.802-32.828-124.961-80.37-169.393C383.907,47.265,321.553,22.727,256,22.727    c-65.556,0-127.913,24.537-175.585,69.092C32.874,136.253,4.333,196.414,0.05,261.216c-0.033,0.51-0.05,1.022-0.05,1.536v63.612    v139.636c0,12.853,10.42,23.273,23.273,23.273c10.504,0,19.372-6.96,22.27-16.517c9.557-2.897,16.517-11.768,16.517-22.27V341.879    c0-10.128-6.482-18.721-15.515-21.92V263.54C54.139,154.54,145.996,69.272,256,69.272c109.999,0,201.857,85.267,209.455,194.265    v56.421c-9.033,3.199-15.515,11.792-15.515,21.92v108.606c0,10.504,6.96,19.374,16.519,22.27    c2.897,9.557,11.767,16.517,22.269,16.517c12.853,0,23.273-10.42,23.273-23.273V326.363v-63.614    C512,262.237,511.983,261.724,511.95,261.212z"/>
	</g>
</g>
<g>
	<g>
		<path d="M364.606,163.454H147.394c-12.853,0-23.273,10.42-23.273,23.273v24.626c-9.033,3.198-15.515,11.792-15.515,21.92v77.577    c0,10.128,6.482,18.721,15.515,21.92v133.232c0,12.853,10.42,23.273,23.273,23.273h217.212c12.853,0,23.273-10.42,23.273-23.273    V186.726C387.879,173.872,377.459,163.454,364.606,163.454z M287.969,389.365c-4.329,4.329-10.333,6.811-16.462,6.811    c-6.113,0-12.119-2.482-16.446-6.811c-4.329-4.329-6.827-10.333-6.827-16.448c0-6.144,2.498-12.131,6.827-16.477    c4.327-4.329,10.332-6.811,16.446-6.811c6.128,0,12.133,2.482,16.462,6.811c4.329,4.346,6.825,10.35,6.825,16.477    C294.796,379.032,292.298,385.021,287.969,389.365z M287.969,296.274c-4.329,4.329-10.333,6.811-16.462,6.811    c-6.113,0-12.119-2.482-16.446-6.811c-4.329-4.329-6.827-10.333-6.827-16.448c0-6.144,2.498-12.131,6.827-16.477    c4.327-4.329,10.332-6.811,16.446-6.811c6.128,0,12.133,2.482,16.462,6.811c4.329,4.346,6.825,10.35,6.825,16.477    C294.796,285.941,292.298,291.945,287.969,296.274z"/>
	</g>
</g>
<g>
</g>
<g>
</g>
<g>
</g>
<g>
</g>
<g>
</g>
<g>
</g>
<g>
</g>
<g>
</g>
<g>
</g>
<g>
</g>
<g>
</g>
<g>
</g>
<g>
</g>
<g>
</g>
<g>
</g>
</svg>
