<?xml version="1.0" encoding="iso-8859-1"?>
<!-- Generator: Adobe Illustrator 19.0.0, SVG Export Plug-In . SVG Version: 6.00 Build 0)  -->
<svg xmlns="http://www.w3.org/2000/svg" xmlns:xlink="http://www.w3.org/1999/xlink" version="1.1" id="Capa_1" x="0px" y="0px" viewBox="0 0 512.001 512.001" style="enable-background:new 0 0 512.001 512.001;" xml:space="preserve">
<g>
	<g>
		<path d="M462.413,151.489L317.219,6.29c-5.929-5.93-14.769-7.865-22.638-4.957c-7.866,2.909-13.32,10.133-13.963,18.496    l-11.49,149.373L92.51,345.821l-30.374,30.374c-25.118,25.121-25.118,65.996,0.003,91.12    c25.121,25.118,65.998,25.116,91.118-0.001l30.368-30.368l0.004-0.004l0.004-0.004l106.298-106.301l30.375,30.372l-92.915,92.915    c-7.335-2.216-15.621-0.432-21.417,5.365c-8.387,8.386-8.387,21.985,0,30.372l8.025,8.025l8.025,8.025    c4.194,4.194,9.69,6.29,15.185,6.29c5.497,0,10.993-2.098,15.185-6.29c5.799-5.797,7.583-14.083,5.365-21.418l108.101-108.099    l40.495-40.495c25.122-25.122,25.122-65.998,0-91.12c-25.121-25.121-65.996-25.121-91.117,0l-40.491,40.492    c-0.003,0.003-0.006,0.003-0.007,0.006c0,0-0.004,0.004-0.006,0.006l-45.552,45.553l-30.374-30.375l100.684-100.686    l149.375-11.487c8.363-0.643,15.586-6.097,18.496-13.963C470.279,166.259,468.343,157.419,462.413,151.489z M345.617,274.951    c4.056-4.056,9.45-6.29,15.185-6.29c5.737,0,11.129,2.232,15.185,6.29c8.375,8.374,8.375,22.001,0,30.375l-25.31,25.31    l-30.375-30.372L345.617,274.951z M122.886,436.94c-8.372,8.375-21.998,8.376-30.375,0.003    c-8.374-8.376-8.374-22.002-0.001-30.377l15.185-15.187l30.375,30.375L122.886,436.94z M198.815,361.008l-30.372,30.374    l-30.375-30.375l30.374-30.374L198.815,361.008z"/>
	</g>
</g>
<g>
</g>
<g>
</g>
<g>
</g>
<g>
</g>
<g>
</g>
<g>
</g>
<g>
</g>
<g>
</g>
<g>
</g>
<g>
</g>
<g>
</g>
<g>
</g>
<g>
</g>
<g>
</g>
<g>
</g>
</svg>
