<?xml version="1.0" encoding="iso-8859-1"?>
<!-- Generator: Adobe Illustrator 19.0.0, SVG Export Plug-In . SVG Version: 6.00 Build 0)  -->
<svg xmlns="http://www.w3.org/2000/svg" xmlns:xlink="http://www.w3.org/1999/xlink" version="1.1" id="Capa_1" x="0px" y="0px" viewBox="0 0 512 512" style="enable-background:new 0 0 512 512;" xml:space="preserve">
<g>
	<g>
		<path d="M173.419,264.26c-13.662,0-24.774,11.114-24.774,24.774c0,13.66,11.112,24.774,24.774,24.774    c13.66,0,24.774-11.114,24.774-24.774C198.194,275.372,187.08,264.26,173.419,264.26z"/>
	</g>
</g>
<g>
	<g>
		<path d="M487.226,115.615h-78.559L115.188,17.79c-12.978-4.327-27.009,2.689-31.338,15.669    C79.525,46.438,86.54,60.47,99.52,64.797l152.459,50.82H24.774C11.092,115.617,0,126.709,0,140.391v297.29    c0,13.682,11.092,24.774,24.774,24.774h74.323v8.258c0,13.682,11.092,24.774,24.774,24.774s24.774-11.092,24.774-24.774v-8.258    h214.71v8.258c0,13.682,11.092,24.774,24.774,24.774s24.774-11.092,24.774-24.774v-8.258h74.323    c13.682,0,24.774-11.092,24.774-24.774v-297.29C512,126.708,500.908,115.615,487.226,115.615z M173.419,363.357    c-40.983,0-74.323-33.341-74.323-74.323c0-40.982,33.339-74.323,74.323-74.323c40.981,0,74.323,33.341,74.323,74.323    C247.742,330.016,214.401,363.357,173.419,363.357z M323.064,356.102c-4.608,4.608-11,7.252-17.524,7.252    c-6.507,0-12.899-2.644-17.507-7.252c-4.608-4.608-7.252-11-7.252-17.522c0-6.507,2.644-12.901,7.252-17.524    c4.606-4.608,10.998-7.251,17.507-7.251c6.524,0,12.916,2.643,17.524,7.251c4.608,4.625,7.265,11,7.265,17.524    C330.331,345.102,327.672,351.494,323.064,356.102z M405.644,356.102c-4.608,4.608-10.983,7.252-17.524,7.252    c-6.524,0-12.901-2.644-17.507-7.252c-4.608-4.608-7.252-11-7.252-17.522c0-6.524,2.644-12.901,7.252-17.509    c4.606-4.625,10.998-7.265,17.507-7.265c6.524,0,12.916,2.643,17.524,7.265c4.608,4.608,7.251,10.983,7.251,17.509    C412.895,345.102,410.252,351.494,405.644,356.102z M388.129,264.26h-82.581c-13.682,0-24.774-11.092-24.774-24.774    s11.092-24.774,24.774-24.774h82.581c13.682,0,24.774,11.092,24.774,24.774S401.811,264.26,388.129,264.26z"/>
	</g>
</g>
<g>
</g>
<g>
</g>
<g>
</g>
<g>
</g>
<g>
</g>
<g>
</g>
<g>
</g>
<g>
</g>
<g>
</g>
<g>
</g>
<g>
</g>
<g>
</g>
<g>
</g>
<g>
</g>
<g>
</g>
</svg>
