<?xml version="1.0" encoding="iso-8859-1"?>
<!-- Generator: Adobe Illustrator 19.0.0, SVG Export Plug-In . SVG Version: 6.00 Build 0)  -->
<svg xmlns="http://www.w3.org/2000/svg" xmlns:xlink="http://www.w3.org/1999/xlink" version="1.1" id="Capa_1" x="0px" y="0px" viewBox="0 0 511.999 511.999" style="enable-background:new 0 0 511.999 511.999;" xml:space="preserve">
<g>
	<g>
		<path d="M421.789,183.967c-7.766-7.767-20.36-7.767-28.127,0L270.063,307.567c-18.096,18.094-47.538,18.093-65.633,0.001    c-18.094-18.094-18.094-47.536,0-65.632L328.031,118.34c7.767-7.767,7.767-20.36,0-28.127c-7.765-7.767-20.36-7.767-28.127,0    L176.301,213.811c-28.758,28.762-32.88,72.954-12.406,106.166L5.826,478.047c-7.767,7.766-7.767,20.36,0,28.127    c3.884,3.885,8.974,5.825,14.064,5.825c5.09,0,10.181-1.941,14.063-5.825l158.07-158.072c13.81,8.514,29.51,12.793,45.221,12.793    c22.07,0,44.141-8.4,60.945-25.201l123.6-123.602C429.556,204.327,429.556,191.734,421.789,183.967z"/>
	</g>
</g>
<g>
	<g>
		<path d="M271.774,33.955c-7.765-7.767-20.359-7.767-28.127,0L129.991,147.606c-7.766,7.767-7.766,20.36,0.001,28.127    c3.884,3.884,8.973,5.826,14.063,5.826c5.089,0,10.181-1.943,14.063-5.826L271.774,62.083    C279.541,54.315,279.541,41.722,271.774,33.955z"/>
	</g>
</g>
<g>
	<g>
		<path d="M478.043,240.223c-7.766-7.767-20.36-7.767-28.127,0L336.262,353.877c-7.767,7.766-7.767,20.36,0,28.127    c3.884,3.885,8.974,5.826,14.063,5.826c5.09,0,10.181-1.941,14.064-5.826L478.043,268.35    C485.812,260.582,485.812,247.989,478.043,240.223z"/>
	</g>
</g>
<g>
	<g>
		<path d="M506.173,324.607c-7.766-7.767-20.359-7.767-28.127-0.001l-57.399,57.396c-7.766,7.767-7.767,20.36,0,28.129    c3.884,3.884,8.974,5.826,14.064,5.826c5.089,0,10.181-1.943,14.063-5.825l57.399-57.396    C513.941,344.967,513.942,332.375,506.173,324.607z"/>
	</g>
</g>
<g>
	<g>
		<path d="M187.392,5.826c-7.766-7.767-20.36-7.767-28.127,0l-57.396,57.399c-7.767,7.767-7.767,20.36,0,28.127    c3.884,3.884,8.974,5.825,14.064,5.825c5.09,0,10.181-1.941,14.063-5.826l57.396-57.398    C195.159,26.185,195.159,13.592,187.392,5.826z"/>
	</g>
</g>
<g>
</g>
<g>
</g>
<g>
</g>
<g>
</g>
<g>
</g>
<g>
</g>
<g>
</g>
<g>
</g>
<g>
</g>
<g>
</g>
<g>
</g>
<g>
</g>
<g>
</g>
<g>
</g>
<g>
</g>
</svg>
