<?xml version="1.0" encoding="iso-8859-1"?>
<!-- Generator: Adobe Illustrator 19.0.0, SVG Export Plug-In . SVG Version: 6.00 Build 0)  -->
<svg xmlns="http://www.w3.org/2000/svg" xmlns:xlink="http://www.w3.org/1999/xlink" version="1.1" id="Capa_1" x="0px" y="0px" viewBox="0 0 511.999 511.999" style="enable-background:new 0 0 511.999 511.999;" xml:space="preserve">
<g>
	<g>
		<path d="M488.727,312.827l-23.272,9.639l-110.461,45.755l-56.186,23.272l-56.186,23.272h246.105    c6.173,0,12.092-2.453,16.457-6.817c4.366-4.364,6.816-10.285,6.816-16.455v-88.306L488.727,312.827z"/>
	</g>
</g>
<g>
	<g>
		<path d="M510.226,228.351l-29.652-71.589l-21.5,8.904l-21.502,8.906l-25.046,10.375c-2.912,1.204-5.93,1.778-8.896,1.778    c-9.134,0-17.799-5.41-21.51-14.375c-4.918-11.874,0.721-25.488,12.595-30.406l21.763-9.016l22.261-9.219l22.013-9.117    c-22.635-34.567-61.265-55.925-103.711-55.925c-16.303,0-32.259,3.185-47.424,9.467l-186.181,77.118    c-30.609,12.679-54.448,36.517-67.125,67.127c-12.679,30.609-12.679,64.323,0,94.929l29.651,71.589L14.372,408.55    c-11.874,4.92-17.513,18.531-12.595,30.408c3.713,8.963,12.376,14.373,21.51,14.373c2.968,0,5.986-0.571,8.896-1.778    l88.813-36.787l56.184-23.272l56.184-23.272l232.088-96.133l23.272-9.639l8.632-3.576l14.64-6.065v-15.551    C511.998,234.201,511.396,231.174,510.226,228.351z"/>
	</g>
</g>
<g>
</g>
<g>
</g>
<g>
</g>
<g>
</g>
<g>
</g>
<g>
</g>
<g>
</g>
<g>
</g>
<g>
</g>
<g>
</g>
<g>
</g>
<g>
</g>
<g>
</g>
<g>
</g>
<g>
</g>
</svg>
