<?xml version="1.0" encoding="iso-8859-1"?>
<!-- Generator: Adobe Illustrator 19.0.0, SVG Export Plug-In . SVG Version: 6.00 Build 0)  -->
<svg xmlns="http://www.w3.org/2000/svg" xmlns:xlink="http://www.w3.org/1999/xlink" version="1.1" id="Capa_1" x="0px" y="0px" viewBox="0 0 512 512" style="enable-background:new 0 0 512 512;" xml:space="preserve">
<g>
	<g>
		<path d="M256.002,139.636c-34.672,0-64.096,22.863-74.004,54.303h53.549c5.468-4.813,12.617-7.758,20.457-7.758    c7.837,0,14.985,2.945,20.454,7.758h53.549C320.096,162.5,290.672,139.636,256.002,139.636z"/>
	</g>
</g>
<g>
	<g>
		<path d="M263.758,240.485h-15.515h-69.818v155.151v69.818v23.273V512h155.151v-23.273v-23.273v-69.818V240.485H263.758z     M287.03,372.364c0,17.11-13.92,31.03-31.03,31.03s-31.03-13.92-31.03-31.03v-62.061c0-12.853,10.42-23.273,23.273-23.273h15.515    c12.853,0,23.273,10.42,23.273,23.273V372.364z"/>
	</g>
</g>
<g>
	<g>
		<path d="M256,0C144.091,0,51.686,85.073,40.038,193.939h23.419h23.471h47.171C145.026,136.588,195.516,93.091,256,93.091    c60.484,0,110.974,43.497,121.901,100.848h47.171h23.473h23.419C460.313,85.073,367.909,0,256,0z"/>
	</g>
</g>
<g>
	<g>
		<path d="M85.333,418.909H62.061H38.788v69.818c0,12.853,10.42,23.273,23.273,23.273h69.818v-23.273v-23.273v-46.545H85.333z"/>
	</g>
</g>
<g>
	<g>
		<path d="M449.939,418.909h-23.273h-46.545v46.545v23.273V512h69.818c12.853,0,23.273-10.42,23.273-23.273v-69.818H449.939z"/>
	</g>
</g>
<g>
	<g>
		<polygon points="449.939,240.485 426.667,240.485 380.121,240.485 380.121,372.364 426.667,372.364 449.939,372.364     473.212,372.364 473.212,240.485   "/>
	</g>
</g>
<g>
	<g>
		<polygon points="85.333,240.485 62.061,240.485 38.788,240.485 38.788,372.364 62.061,372.364 85.333,372.364 131.879,372.364     131.879,240.485   "/>
	</g>
</g>
<g>
</g>
<g>
</g>
<g>
</g>
<g>
</g>
<g>
</g>
<g>
</g>
<g>
</g>
<g>
</g>
<g>
</g>
<g>
</g>
<g>
</g>
<g>
</g>
<g>
</g>
<g>
</g>
<g>
</g>
</svg>
