<?xml version="1.0" encoding="iso-8859-1"?>
<!-- Generator: Adobe Illustrator 19.0.0, SVG Export Plug-In . SVG Version: 6.00 Build 0)  -->
<svg xmlns="http://www.w3.org/2000/svg" xmlns:xlink="http://www.w3.org/1999/xlink" version="1.1" id="Capa_1" x="0px" y="0px" viewBox="0 0 512 512" style="enable-background:new 0 0 512 512;" xml:space="preserve">
<g>
	<g>
		<path d="M465.455,0H197.516l69.817,23.273l69.817,23.273l10.75,3.584c28.552,9.517,47.737,36.136,47.737,66.234v93.091v162.909    v23.273v23.273h23.273c12.853,0,23.273-10.42,23.273-23.273V232.727h23.273c12.853,0,23.273-10.42,23.273-23.273V23.273    C488.727,10.42,478.307,0,465.455,0z"/>
	</g>
</g>
<g>
	<g>
		<path d="M333.179,94.286L189.96,46.545l-69.818-23.273L56.183,1.953c-0.365-0.121-0.732-0.233-1.098-0.337    C52.44,0.573,49.56,0,46.545,0C33.693,0,23.273,10.42,23.273,23.273v372.364c0,10.017,6.409,18.911,15.914,22.078l279.273,93.091    c2.403,0.802,4.887,1.195,7.357,1.195c4.824,0,9.596-1.5,13.608-4.392c6.068-4.374,9.666-11.401,9.666-18.88v-69.818v-23.273    v-23.273v-256C349.091,106.347,342.682,97.454,333.179,94.286z M263.758,294.788c0,4.771-1.441,9.205-3.904,12.895    c-4.172,6.256-11.287,10.378-19.369,10.378H224.97c-12.853,0-23.273-10.42-23.273-23.273c0-10.128,6.482-18.722,15.515-21.92    v-22.039V229.17l-14.44,2.406l-32.105,5.351v73.376c0,12.853-10.42,23.273-23.273,23.273h-15.515    c-12.853,0-23.273-10.42-23.273-23.273c0-10.128,6.482-18.722,15.515-21.92v-71.171c0-11.377,8.225-21.087,19.447-22.956    l27.747-4.624l65.344-10.892c6.746-1.125,13.649,0.776,18.868,5.199c5.221,4.42,8.231,10.917,8.231,17.757V294.788z"/>
	</g>
</g>
<g>
</g>
<g>
</g>
<g>
</g>
<g>
</g>
<g>
</g>
<g>
</g>
<g>
</g>
<g>
</g>
<g>
</g>
<g>
</g>
<g>
</g>
<g>
</g>
<g>
</g>
<g>
</g>
<g>
</g>
</svg>
