<?xml version="1.0" encoding="iso-8859-1"?>
<!-- Generator: Adobe Illustrator 19.0.0, SVG Export Plug-In . SVG Version: 6.00 Build 0)  -->
<svg xmlns="http://www.w3.org/2000/svg" xmlns:xlink="http://www.w3.org/1999/xlink" version="1.1" id="Capa_1" x="0px" y="0px" viewBox="0 0 512 512" style="enable-background:new 0 0 512 512;" xml:space="preserve">
<g>
	<g>
		<path d="M472.129,219.336c-5.438-22.02-14.151-42.763-25.609-61.672c11.498-21.111,8.339-48.146-9.501-65.989    c-10.512-10.512-24.487-16.299-39.353-16.299c-9.471,0-18.579,2.36-26.661,6.784c-18.899-11.451-39.636-20.158-61.646-25.594    C302.537,33.546,281.205,16.696,256,16.696c-25.205,0-46.537,16.85-53.359,39.872c-22.01,5.436-42.747,14.143-61.646,25.594    c-8.082-4.424-17.19-6.784-26.661-6.784c-14.866,0-28.841,5.789-39.353,16.301c-17.84,17.843-20.999,44.876-9.501,65.987    c-11.458,18.907-20.171,39.651-25.609,61.672C16.85,226.157,0,247.49,0,272.696c0,25.205,16.85,46.539,39.871,53.359    c6.108,24.735,16.36,47.852,29.979,68.571c0.325,0.597,0.666,1.187,1.049,1.759c26.661,39.825,64.794,69.308,108.404,85.302    c0.134,0.048,0.266,0.098,0.399,0.147c1.465,0.536,2.937,1.052,4.417,1.56c0.531,0.181,1.067,0.358,1.601,0.536    c1.266,0.421,2.533,0.838,3.808,1.239c0.974,0.303,1.95,0.592,2.931,0.883c1.144,0.341,2.291,0.683,3.444,1.006    c1.693,0.475,3.39,0.933,5.096,1.368c0.613,0.156,1.232,0.3,1.848,0.453c1.478,0.362,2.959,0.714,4.446,1.046    c0.611,0.138,1.226,0.27,1.84,0.404c1.57,0.337,3.143,0.657,4.722,0.96c0.506,0.096,1.011,0.197,1.515,0.291    c1.981,0.367,3.968,0.709,5.963,1.023c0.098,0.016,0.196,0.034,0.292,0.049c2.202,0.341,4.415,0.651,6.632,0.929    c0.206,0.025,0.413,0.045,0.619,0.071c1.894,0.232,3.795,0.438,5.699,0.62c0.583,0.055,1.169,0.104,1.754,0.156    c1.551,0.137,3.106,0.257,4.663,0.361c0.678,0.045,1.358,0.091,2.038,0.129c1.54,0.089,3.084,0.159,4.629,0.215    c0.631,0.025,1.26,0.053,1.889,0.073c2.146,0.062,4.296,0.099,6.451,0.099s4.304-0.037,6.451-0.099    c0.631-0.019,1.26-0.047,1.889-0.073c1.545-0.056,3.088-0.126,4.629-0.215c0.68-0.037,1.359-0.085,2.038-0.129    c1.557-0.104,3.112-0.224,4.663-0.361c0.585-0.052,1.169-0.101,1.754-0.156c1.904-0.182,3.804-0.389,5.699-0.62    c0.206-0.027,0.413-0.046,0.619-0.071c2.217-0.278,4.428-0.588,6.632-0.929c0.096-0.015,0.194-0.033,0.292-0.049    c1.995-0.313,3.982-0.656,5.963-1.023c0.506-0.095,1.011-0.194,1.515-0.291c1.578-0.303,3.152-0.625,4.722-0.96    c0.614-0.134,1.229-0.266,1.84-0.404c1.487-0.332,2.968-0.684,4.446-1.046c0.616-0.153,1.235-0.295,1.848-0.453    c1.707-0.435,3.403-0.893,5.096-1.368c1.153-0.323,2.3-0.663,3.444-1.006c0.979-0.289,1.956-0.58,2.931-0.883    c1.275-0.401,2.544-0.818,3.808-1.239c0.534-0.178,1.07-0.355,1.601-0.536c1.478-0.508,2.95-1.023,4.417-1.56    c0.134-0.047,0.266-0.098,0.399-0.147c43.611-15.992,81.743-45.477,108.404-85.302c0.383-0.571,0.724-1.161,1.049-1.759    c13.619-20.719,23.871-43.836,29.979-68.571C495.151,319.234,512,297.901,512,272.696C512,247.49,495.151,226.157,472.129,219.336    z M427.608,320.334c-4.069,14.643-9.963,28.534-17.426,41.405H101.818c-7.463-12.873-13.357-26.762-17.426-41.405    c16.117-9.761,26.912-27.461,26.912-47.638s-10.795-37.879-26.912-47.638c3.921-14.104,9.537-27.508,16.614-39.981    c4.31,1.054,8.775,1.603,13.325,1.603c14.864,0,28.84-5.788,39.353-16.299c14.253-14.253,19.141-34.38,14.67-52.662    c12.478-7.085,25.892-12.705,40.006-16.629c9.759,16.117,27.461,26.912,47.64,26.912c20.179,0,37.879-10.795,47.64-26.912    c14.113,3.924,27.528,9.544,40.006,16.629c-4.473,18.284,0.417,38.409,14.67,52.663c10.513,10.51,24.488,16.298,39.353,16.298    c4.55,0,9.016-0.549,13.325-1.603c7.079,12.472,12.695,25.876,16.614,39.981c-16.117,9.759-26.912,27.461-26.912,47.638    S411.491,310.573,427.608,320.334z"/>
	</g>
</g>
<g>
</g>
<g>
</g>
<g>
</g>
<g>
</g>
<g>
</g>
<g>
</g>
<g>
</g>
<g>
</g>
<g>
</g>
<g>
</g>
<g>
</g>
<g>
</g>
<g>
</g>
<g>
</g>
<g>
</g>
</svg>
