<?xml version="1.0" encoding="iso-8859-1"?>
<!-- Generator: Adobe Illustrator 19.0.0, SVG Export Plug-In . SVG Version: 6.00 Build 0)  -->
<svg xmlns="http://www.w3.org/2000/svg" xmlns:xlink="http://www.w3.org/1999/xlink" version="1.1" id="Capa_1" x="0px" y="0px" viewBox="0 0 512 512" style="enable-background:new 0 0 512 512;" xml:space="preserve">
<g>
	<g>
		<path d="M428.189,139.635h-23.4h-10.423h-12.951H130.584h-12.951H107.21H83.812c-2.239,21.549-3.911,42.934-4.94,64.017    l21.977,21.979l0.495-0.495l24.287-24.291l10.394-10.394c4.364-4.364,10.283-6.817,16.455-6.817s12.093,2.453,16.455,6.817    l35.177,35.177l35.178-35.177c4.364-4.364,10.283-6.817,16.457-6.817s12.093,2.453,16.455,6.817l35.177,35.177l35.177-35.177    c4.364-4.364,10.283-6.817,16.457-6.817s12.093,2.453,16.455,6.817l10.921,10.923l24.256,24.256l0.02-0.02l22.435-22.436    C432.074,182.246,430.411,161.021,428.189,139.635z"/>
	</g>
</g>
<g>
	<g>
		<path d="M427.103,275.001c-4.543,4.543-10.497,6.816-16.454,6.816c-0.123,0-0.245-0.017-0.368-0.017    c-2.11-0.033-4.219-0.338-6.257-0.942c-3.598-1.064-6.991-3.016-9.83-5.857c-0.003-0.002-0.005-0.005-0.006-0.006l-6.546-6.546    l-28.625-28.627l-35.177,35.179c-4.364,4.366-10.283,6.817-16.455,6.817s-12.093-2.451-16.457-6.817l-35.178-35.179    l-35.177,35.179c-4.364,4.366-10.283,6.817-16.455,6.817s-12.092-2.451-16.455-6.817l-35.177-35.179l-28.144,28.146l-7.027,7.027    c-0.002,0.002-0.003,0.005-0.006,0.006c-1.282,1.282-2.684,2.363-4.161,3.283c-3.499,2.183-7.443,3.344-11.425,3.492    c-4.754,0.175-9.553-1.071-13.674-3.793c-1.291-0.852-2.515-1.845-3.652-2.982l-6.619-6.619    c1.049,34.624,6.329,69.452,13.245,103.982h23.758h23.768h234.907h23.768h23.758c6.951-34.704,12.257-69.71,13.267-104.507    L427.103,275.001z"/>
	</g>
</g>
<g>
	<g>
		<path d="M386.975,418.908h-23.893v0.002H148.923H125.03h-23.886c1.815,7.894,3.654,15.759,5.486,23.591    c4.153,17.751,8.074,34.52,11.587,51.06c2.282,10.75,11.774,18.44,22.765,18.44h230.037c10.991,0,20.483-7.688,22.765-18.44    c3.511-16.53,7.43-33.289,11.58-51.031c1.836-7.843,3.676-15.718,5.494-23.622H386.975z"/>
	</g>
</g>
<g>
	<g>
		<path d="M394.368,0H117.634C79.136,0,47.815,31.32,47.815,69.818c0,8.158,1.42,15.988,4.003,23.273H77.33h32.546h7.758h276.733    h7.758h32.546h25.512c2.583-7.284,4.003-15.115,4.003-23.273C464.186,31.32,432.866,0,394.368,0z"/>
	</g>
</g>
<g>
</g>
<g>
</g>
<g>
</g>
<g>
</g>
<g>
</g>
<g>
</g>
<g>
</g>
<g>
</g>
<g>
</g>
<g>
</g>
<g>
</g>
<g>
</g>
<g>
</g>
<g>
</g>
<g>
</g>
</svg>
