<?xml version="1.0" encoding="iso-8859-1"?>
<!-- Generator: Adobe Illustrator 19.0.0, SVG Export Plug-In . SVG Version: 6.00 Build 0)  -->
<svg xmlns="http://www.w3.org/2000/svg" xmlns:xlink="http://www.w3.org/1999/xlink" version="1.1" id="Capa_1" x="0px" y="0px" viewBox="0 0 512 512" style="enable-background:new 0 0 512 512;" xml:space="preserve">
<g>
	<g>
		<path d="M436.28,122.596c-3.806,0-7.433,0.759-10.763,2.104L321.001,87.812L450.69,42.04c11.268-3.976,17.177-16.333,13.199-27.6    c-3.976-11.268-16.333-17.176-27.6-13.201L256,64.87L75.709,1.239c-11.271-3.975-23.624,1.934-27.6,13.201    c-3.978,11.267,1.933,23.624,13.199,27.6l129.689,45.772L86.484,124.7c-3.33-1.346-6.957-2.104-10.763-2.104    c-15.905,0-28.845,12.94-28.845,28.845s12.94,28.845,28.845,28.845c10.799,0,20.219-5.975,25.161-14.784L256,110.753    l155.118,54.747c4.943,8.809,14.362,14.784,25.161,14.784c15.905,0,28.845-12.94,28.845-28.845S452.185,122.596,436.28,122.596z"/>
	</g>
</g>
<g>
	<g>
		<path d="M472.335,468.733h-7.211V266.819h7.211c11.947,0,21.634-9.686,21.634-21.634c0-11.948-9.686-21.634-21.634-21.634h-28.845    H68.509H39.664c-11.948,0-21.634,9.686-21.634,21.634c0,11.947,9.686,21.634,21.634,21.634h7.211v201.913h-7.211    c-11.948,0-21.634,9.686-21.634,21.634c0,11.947,9.686,21.634,21.634,21.634h28.845h93.745h187.491h93.745h28.845    c11.947,0,21.634-9.686,21.634-21.634C493.969,478.419,484.283,468.733,472.335,468.733z M443.491,305.761l-21.634,56.579    l-40.68,106.392h-62.864L256,305.761l-62.313,162.971h-62.864L90.143,362.34l-21.634-56.579l-14.89-38.942h14.89h21.634h9.799    l62.313,162.971l62.313-162.971h16.542h29.779h16.542l62.313,162.971l62.313-162.971h9.799h21.634h14.89L443.491,305.761z"/>
	</g>
</g>
<g>
</g>
<g>
</g>
<g>
</g>
<g>
</g>
<g>
</g>
<g>
</g>
<g>
</g>
<g>
</g>
<g>
</g>
<g>
</g>
<g>
</g>
<g>
</g>
<g>
</g>
<g>
</g>
<g>
</g>
</svg>
