<?xml version="1.0" encoding="iso-8859-1"?>
<!-- Generator: Adobe Illustrator 19.0.0, SVG Export Plug-In . SVG Version: 6.00 Build 0)  -->
<svg xmlns="http://www.w3.org/2000/svg" xmlns:xlink="http://www.w3.org/1999/xlink" version="1.1" id="Capa_1" x="0px" y="0px" viewBox="0 0 512 512" style="enable-background:new 0 0 512 512;" xml:space="preserve">
<g>
	<g>
		<path d="M256.018,316.238c-0.005,0-0.009,0.001-0.014,0.001c-0.01,0-0.02-0.003-0.03-0.003    c-12.451,0.006-22.579,10.135-22.579,22.588c0.002,12.455,10.136,22.588,22.59,22.588c12.455,0,22.588-10.133,22.588-22.588    C278.573,326.38,268.456,316.258,256.018,316.238z"/>
	</g>
</g>
<g>
	<g>
		<path d="M195.75,0.003c-9.975,0-18.769,6.543-21.635,16.098l-23.591,78.635l82.873,124.308V0.003H195.75z"/>
	</g>
</g>
<g>
	<g>
		<path d="M473.025,466.666L337.854,16.101c-2.866-9.556-11.66-16.098-21.635-16.098h-37.647v274.942    c26.291,9.324,45.176,34.432,45.176,63.879c0,37.365-30.399,67.764-67.764,67.764s-67.764-30.401-67.764-67.764    c0-24.359,12.925-45.75,32.271-57.696l-86.817-130.225L38.586,467.861c-2.051,6.84-0.748,14.247,3.513,19.975    c4.262,5.728,10.982,9.104,18.122,9.104h54.019c3.104,8.767,11.445,15.059,21.275,15.059h240.94    c9.83,0,18.171-6.292,21.275-15.059h54.019c0.011,0,0.02,0,0.03,0c12.473,0,22.588-10.113,22.588-22.588    C474.368,471.653,473.894,469.065,473.025,466.666z"/>
	</g>
</g>
<g>
	<g>
		<path d="M94.076,10.061C87.155-0.319,73.128-3.123,62.751,3.795C52.369,10.716,49.565,24.74,56.485,35.12l77.19,115.784    l16.849-56.168L94.076,10.061z"/>
	</g>
</g>
<g>
</g>
<g>
</g>
<g>
</g>
<g>
</g>
<g>
</g>
<g>
</g>
<g>
</g>
<g>
</g>
<g>
</g>
<g>
</g>
<g>
</g>
<g>
</g>
<g>
</g>
<g>
</g>
<g>
</g>
</svg>
