<?xml version="1.0" encoding="iso-8859-1"?>
<!-- Generator: Adobe Illustrator 19.0.0, SVG Export Plug-In . SVG Version: 6.00 Build 0)  -->
<svg xmlns="http://www.w3.org/2000/svg" xmlns:xlink="http://www.w3.org/1999/xlink" version="1.1" id="Capa_1" x="0px" y="0px" viewBox="0 0 512 512" style="enable-background:new 0 0 512 512;" xml:space="preserve">
<g>
	<g>
		<path d="M354.462,164.103h-32.82c-25.336,0-45.949-20.613-45.949-45.949C275.692,53.004,222.689,0,157.538,0    S39.385,53.004,39.385,118.154v203.487v91.897c0,10.875,8.817,19.692,19.692,19.692h78.769h62.464    c-2.186,6.162-3.387,12.788-3.387,19.692C196.923,485.499,223.424,512,256,512c32.576,0,59.077-26.501,59.077-59.077    c0-6.904-1.201-13.53-3.387-19.692h62.464h78.769c10.875,0,19.692-8.817,19.692-19.692v-91.897v-39.385    C472.615,217.106,419.612,164.103,354.462,164.103z M118.154,393.846H78.769v-52.513h39.385V393.846z M196.923,393.846h-39.385    v-52.513h39.385V393.846z M275.692,393.846H256h-19.692v-52.513h39.385V393.846z M354.462,393.846h-39.385v-52.513h39.385V393.846    z M433.231,393.846h-39.385v-52.513h39.385V393.846z"/>
	</g>
</g>
<g>
</g>
<g>
</g>
<g>
</g>
<g>
</g>
<g>
</g>
<g>
</g>
<g>
</g>
<g>
</g>
<g>
</g>
<g>
</g>
<g>
</g>
<g>
</g>
<g>
</g>
<g>
</g>
<g>
</g>
</svg>
