<?xml version="1.0" encoding="iso-8859-1"?>
<!-- Generator: Adobe Illustrator 19.0.0, SVG Export Plug-In . SVG Version: 6.00 Build 0)  -->
<svg xmlns="http://www.w3.org/2000/svg" xmlns:xlink="http://www.w3.org/1999/xlink" version="1.1" id="Capa_1" x="0px" y="0px" viewBox="0 0 512 512" style="enable-background:new 0 0 512 512;" xml:space="preserve">
<g>
	<g>
		<path d="M326.33,70.33c-102.379,0-185.67,83.292-185.67,185.67c0,62.728,31.274,118.282,79.042,151.912h-112.8V261.626V141.43    c3.491-3.966,5.626-9.151,5.626-14.837c0-12.409-10.096-22.505-22.505-22.505s-22.505,10.096-22.505,22.505    c0,5.686,2.136,10.87,5.626,14.837v103.317H39.385V141.43c3.491-3.966,5.626-9.151,5.626-14.837    c0-12.409-10.096-22.505-22.505-22.505S0,114.184,0,126.593c0,5.686,2.136,10.87,5.626,14.837v120.196    c0,9.322,7.557,16.879,16.879,16.879h50.637v146.286c0,9.322,7.557,16.879,16.879,16.879H326.33    C428.708,441.67,512,358.379,512,256S428.708,70.33,326.33,70.33z M270.747,341.079c-3.139,3.14-7.494,4.941-11.929,4.941    c-4.445,0-8.8-1.8-11.938-4.941c-3.139-3.14-4.941-7.494-4.941-11.938c0-4.434,1.802-8.788,4.941-11.928    c3.138-3.151,7.493-4.951,11.938-4.951c4.434,0,8.79,1.8,11.929,4.951c3.14,3.14,4.94,7.483,4.94,11.928    C275.687,333.584,273.886,337.939,270.747,341.079z M326.33,351.648c-12.41,0-22.505-10.096-22.505-22.505    s10.096-22.505,22.505-22.505s22.505,10.096,22.505,22.505S338.739,351.648,326.33,351.648z M405.78,341.079    c-3.14,3.14-7.494,4.941-11.939,4.941c-4.434,0-8.788-1.8-11.928-4.941c-3.14-3.14-4.941-7.494-4.941-11.938    c0-4.445,1.802-8.788,4.941-11.928c3.138-3.151,7.493-4.951,11.928-4.951c4.445,0,8.8,1.8,11.939,4.951    c3.14,3.14,4.95,7.483,4.95,11.928C410.731,333.584,408.919,337.939,405.78,341.079z M395.207,199.736H258.813    c-9.322,0-16.879-7.557-16.879-16.879c0-9.322,7.557-16.879,16.879-16.879h136.393c9.322,0,16.879,7.557,16.879,16.879    C412.086,192.179,404.528,199.736,395.207,199.736z"/>
	</g>
</g>
<g>
</g>
<g>
</g>
<g>
</g>
<g>
</g>
<g>
</g>
<g>
</g>
<g>
</g>
<g>
</g>
<g>
</g>
<g>
</g>
<g>
</g>
<g>
</g>
<g>
</g>
<g>
</g>
<g>
</g>
</svg>
