<?xml version="1.0" encoding="iso-8859-1"?>
<!-- Generator: Adobe Illustrator 19.0.0, SVG Export Plug-In . SVG Version: 6.00 Build 0)  -->
<svg xmlns="http://www.w3.org/2000/svg" xmlns:xlink="http://www.w3.org/1999/xlink" version="1.1" id="Capa_1" x="0px" y="0px" viewBox="0 0 512 512" style="enable-background:new 0 0 512 512;" xml:space="preserve">
<g>
	<g>
		<path d="M492.308,249.436h-19.692V32.82c0-10.875-8.817-19.692-19.692-19.692H59.077c-10.875,0-19.692,8.817-19.692,19.692    v216.615H19.692C8.817,249.436,0,258.253,0,269.128v78.769c0,10.875,8.817,19.692,19.692,19.692h19.692v91.897H32.82    c-10.875,0-19.692,8.817-19.692,19.692s8.817,19.692,19.692,19.692h26.256h137.846V479.18v-13.128    c0-2.305,0.416-4.508,1.145-6.564c2.706-7.643,9.977-13.128,18.548-13.128c8.57,0,15.84,5.485,18.547,13.128    c0.729,2.056,1.145,4.259,1.145,6.564c0-2.305,0.416-4.508,1.145-6.564c2.706-7.643,9.977-13.128,18.548-13.128    c8.57,0,15.841,5.485,18.548,13.128c0.729,2.056,1.145,4.259,1.145,6.564c0-2.305,0.416-4.508,1.145-6.564    c2.706-7.643,9.977-13.128,18.548-13.128c8.57,0,15.84,5.485,18.548,13.128c0.729,2.056,1.145,4.259,1.145,6.564v13.128v19.692    h137.846h26.256c10.875,0,19.692-8.817,19.692-19.692s-8.817-19.692-19.692-19.692h-6.564V367.59h19.692    c10.875,0,19.692-8.817,19.692-19.692v-78.769C512,258.253,503.183,249.436,492.308,249.436z M78.769,328.205H59.077H39.385    V288.82h19.692h19.692V328.205z M157.538,328.205h-39.385V288.82h39.385V328.205z M236.308,328.205h-39.385V288.82h39.385V328.205    z M315.077,328.205h-39.385V288.82h39.385V328.205z M256,210.051h-78.769h-26.256c-10.875,0-19.692-8.817-19.692-19.692    c0-10.875,8.817-19.692,19.692-19.692h6.564V111.59c0-10.875,8.817-19.692,19.692-19.692h59.077v19.692v19.692v39.385H256h19.692    v-39.385V111.59V91.897h59.077c10.875,0,19.692,8.817,19.692,19.692v59.077h6.564c10.875,0,19.692,8.817,19.692,19.692    c0,10.875-8.817,19.692-19.692,19.692h-26.256H256z M393.846,328.205h-39.385V288.82h39.385V328.205z M472.615,328.205h-19.692    h-19.692V288.82h19.692h19.692V328.205z"/>
	</g>
</g>
<g>
</g>
<g>
</g>
<g>
</g>
<g>
</g>
<g>
</g>
<g>
</g>
<g>
</g>
<g>
</g>
<g>
</g>
<g>
</g>
<g>
</g>
<g>
</g>
<g>
</g>
<g>
</g>
<g>
</g>
</svg>
