<?xml version="1.0" encoding="iso-8859-1"?>
<!-- Generator: Adobe Illustrator 19.0.0, SVG Export Plug-In . SVG Version: 6.00 Build 0)  -->
<svg version="1.1" id="Layer_1" xmlns="http://www.w3.org/2000/svg" xmlns:xlink="http://www.w3.org/1999/xlink" x="0px" y="0px"
	 viewBox="0 0 330 330" style="enable-background:new 0 0 330 330;" xml:space="preserve">
<g id="XMLID_28_">
	<polygon id="XMLID_29_" points="200,99.997 291.213,99.997 200,8.787 	"/>
	<path id="XMLID_30_" d="M30,170h270v-40.003H185c-8.284,0-15-6.716-15-15V0H45c-8.284,0-15,6.716-15,15V170z"/>
	<path id="XMLID_31_" d="M131.193,250.928v-0.679c0-3.887-1.424-4.623-4.055-4.623h-4.168v9.98h4.168
		C129.77,255.606,131.193,254.861,131.193,250.928z"/>
	<path id="XMLID_71_" d="M30,315c0,8.284,6.716,15,15,15h240c8.284,0,15-6.716,15-15V200H30V315z M189.174,239.526
		c0-3.006,2.504-5.36,5.699-5.36h10.041c9.93,0,15.857,6.013,15.857,16.083v17.244c0,10.105-5.928,16.139-15.857,16.139h-10.041
		c-3.143,0-5.699-2.431-5.699-5.418V239.526z M162.233,262.868c-4.915-1.847-12.343-4.638-12.343-14.492
		c0-8.834,6.142-14.322,16.027-14.322c5.023,0,13.523,1.571,13.523,7.459c0,2.945-2.268,6.1-5.645,6.1
		c-1.311,0-2.297-0.509-3.168-0.957c-1.038-0.535-2.33-1.2-4.771-1.2c-4.225,0-4.225,1.616-4.225,2.582
		c0,1.563,0.531,2.153,5.398,3.941c5.35,1.966,13.436,4.936,13.436,16.364c0,9.675-6.119,15.685-15.971,15.685
		c-8.945,0-15.631-5.346-15.631-10.126c0-2.879,2.441-6.1,5.705-6.1c2.207,0,3.533,1.43,4.41,2.375
		c1.113,1.2,2.165,2.334,5.289,2.334c4.107,0,4.451-1.892,4.451-3.829C168.721,265.703,167.417,264.816,162.233,262.868z
		 M111.227,239.526c0-2.876,2.305-5.178,5.36-5.354c0.077-0.005,0.153-0.007,0.229-0.007h10.438c9.822,0,15.686,5.991,15.686,16.025
		v0.568c0,10.068-5.906,16.08-15.801,16.08h-4.168v11.316c0,3.07-2.579,5.475-5.873,5.475c-3.291,0-5.871-2.405-5.871-5.475V239.526
		z"/>
	<path id="XMLID_89_" d="M209.025,267.493v-17.244c0-3.887-1.444-4.623-4.111-4.623h-4v26.546h4
		C207.519,272.172,209.025,271.406,209.025,267.493z"/>
</g>
<g>
</g>
<g>
</g>
<g>
</g>
<g>
</g>
<g>
</g>
<g>
</g>
<g>
</g>
<g>
</g>
<g>
</g>
<g>
</g>
<g>
</g>
<g>
</g>
<g>
</g>
<g>
</g>
<g>
</g>
</svg>
