<?xml version="1.0" encoding="iso-8859-1"?>
<!-- Generator: Adobe Illustrator 19.0.0, SVG Export Plug-In . SVG Version: 6.00 Build 0)  -->
<svg version="1.1" id="Layer_1" xmlns="http://www.w3.org/2000/svg" xmlns:xlink="http://www.w3.org/1999/xlink" x="0px" y="0px"
	 viewBox="0 0 330 330" style="enable-background:new 0 0 330 330;" xml:space="preserve">
<g id="XMLID_784_">
	<polygon id="XMLID_785_" points="200,99.997 291.213,99.997 200,8.787 	"/>
	<path id="XMLID_786_" d="M45,0c-8.284,0-15,6.716-15,15v300c0,8.284,6.716,15,15,15h240c8.284,0,15-6.716,15-15V129.997H185
		c-8.284,0-15-6.716-15-15V0H45z M176.807,208.987c0.018,0.059,0.034,0.119,0.05,0.178l6.293,23.476l15.711-55.766
		c1.262-4.605,5.564-7.734,10.693-7.734c6.935,0,12.576,4.982,12.576,11.105c0,0.63,0,1.783-0.452,3.241l-26.163,90.487
		c-0.014,0.045-0.027,0.091-0.041,0.136c-1.596,5.154-6.504,8.484-12.504,8.484c-6.163,0-11.155-3.545-12.477-8.839l-5.424-20.163
		l-5.438,20.199c-1.358,5.27-6.356,8.803-12.467,8.803c-6.078,0-10.998-3.369-12.534-8.584l-26.291-90.484
		c-0.47-1.475-0.47-2.64-0.47-3.28c0-6.124,5.644-11.105,12.58-11.105c5.144,0,9.447,3.14,10.709,7.813l15.694,55.693l6.273-23.394
		c1.309-5.302,5.98-8.719,11.945-8.719C170.773,200.535,175.27,203.773,176.807,208.987z"/>
</g>
<g>
</g>
<g>
</g>
<g>
</g>
<g>
</g>
<g>
</g>
<g>
</g>
<g>
</g>
<g>
</g>
<g>
</g>
<g>
</g>
<g>
</g>
<g>
</g>
<g>
</g>
<g>
</g>
<g>
</g>
</svg>
