<?xml version="1.0" encoding="iso-8859-1"?>
<!-- Generator: Adobe Illustrator 19.0.0, SVG Export Plug-In . SVG Version: 6.00 Build 0)  -->
<svg version="1.1" id="Layer_1" xmlns="http://www.w3.org/2000/svg" xmlns:xlink="http://www.w3.org/1999/xlink" x="0px" y="0px"
	 viewBox="0 0 369.997 369.997" style="enable-background:new 0 0 369.997 369.997;" xml:space="preserve">
<g id="XMLID_850_">
	<path id="XMLID_851_" d="M278.08,235.266l-27.644,27.643l-8.519-8.518c-5.857-5.858-15.355-5.858-21.213,0
		c-5.858,5.858-5.858,15.355,0,21.213l19.125,19.125c2.929,2.929,6.768,4.394,10.606,4.394s7.678-1.464,10.606-4.394l38.25-38.25
		c5.858-5.858,5.858-15.355,0-21.213C293.435,229.407,283.937,229.407,278.08,235.266z"/>
	<polygon id="XMLID_852_" points="174.999,8.787 174.999,99.997 266.211,99.997 	"/>
	<path id="XMLID_853_" d="M364.936,261.556c-0.019-0.578-0.038-1.156-0.066-1.732c-0.016-0.337-0.038-0.673-0.059-1.009
		c-0.029-0.52-0.061-1.039-0.099-1.556c-0.026-0.358-0.057-0.715-0.087-1.071c-0.041-0.492-0.083-0.984-0.131-1.475
		c-0.036-0.369-0.076-0.736-0.115-1.103c-0.053-0.478-0.107-0.956-0.164-1.432c-0.046-0.369-0.093-0.738-0.143-1.106
		c-0.063-0.474-0.129-0.946-0.198-1.418c-0.054-0.366-0.108-0.732-0.166-1.096c-0.075-0.473-0.154-0.944-0.235-1.415
		c-0.062-0.359-0.123-0.718-0.188-1.075c-0.088-0.479-0.182-0.955-0.275-1.432c-0.068-0.346-0.135-0.692-0.206-1.037
		c-0.103-0.497-0.214-0.991-0.324-1.485c-0.071-0.32-0.14-0.642-0.214-0.961c-0.133-0.573-0.275-1.143-0.419-1.713
		c-0.06-0.236-0.114-0.475-0.175-0.71c-0.205-0.791-0.418-1.578-0.641-2.362c-0.082-0.289-0.171-0.575-0.255-0.863
		c-0.147-0.502-0.294-1.005-0.449-1.505c-0.108-0.349-0.222-0.695-0.334-1.043c-0.14-0.433-0.277-0.868-0.423-1.299
		c-0.123-0.369-0.252-0.735-0.38-1.102c-0.142-0.407-0.284-0.814-0.431-1.219c-0.136-0.375-0.275-0.748-0.415-1.121
		c-0.148-0.392-0.295-0.783-0.446-1.172c-0.147-0.379-0.298-0.757-0.449-1.134c-0.152-0.378-0.307-0.755-0.463-1.131
		c-0.159-0.382-0.32-0.763-0.483-1.143c-0.157-0.366-0.317-0.729-0.479-1.093c-0.17-0.383-0.34-0.766-0.515-1.146
		c-0.162-0.355-0.329-0.708-0.495-1.06c-0.182-0.384-0.362-0.769-0.549-1.151c-0.164-0.339-0.335-0.675-0.503-1.012
		c-0.196-0.391-0.39-0.783-0.59-1.171c-0.157-0.305-0.321-0.607-0.481-0.91c-0.219-0.415-0.436-0.832-0.661-1.243
		c-0.036-0.067-0.075-0.133-0.112-0.2c-0.605-1.104-1.232-2.194-1.876-3.273c-0.116-0.195-0.229-0.392-0.347-0.586
		c-0.266-0.439-0.539-0.873-0.811-1.308c-0.153-0.245-0.305-0.491-0.459-0.735c-0.27-0.423-0.545-0.842-0.82-1.261
		c-0.164-0.249-0.327-0.499-0.493-0.747c-0.277-0.415-0.56-0.826-0.843-1.236c-0.17-0.246-0.34-0.491-0.511-0.736
		c-0.29-0.412-0.583-0.821-0.878-1.229c-0.17-0.234-0.341-0.468-0.512-0.702c-0.305-0.412-0.611-0.822-0.921-1.229
		c-0.167-0.221-0.336-0.439-0.505-0.659c-0.321-0.415-0.645-0.83-0.972-1.241c-0.157-0.198-0.317-0.395-0.477-0.592
		c-0.346-0.427-0.692-0.853-1.044-1.275c-0.134-0.161-0.27-0.32-0.405-0.48c-0.383-0.454-0.767-0.906-1.157-1.353
		c-0.071-0.081-0.145-0.162-0.216-0.243c-2.422-2.756-4.985-5.384-7.681-7.874c-0.068-0.064-0.137-0.129-0.206-0.192
		c-0.482-0.443-0.97-0.88-1.46-1.314c-0.1-0.089-0.199-0.178-0.299-0.266c-0.482-0.423-0.968-0.84-1.457-1.254
		c-0.109-0.092-0.218-0.186-0.328-0.278c-0.49-0.412-0.984-0.819-1.482-1.223c-0.106-0.086-0.213-0.171-0.318-0.257
		c-0.511-0.409-1.024-0.815-1.542-1.216c-0.087-0.067-0.175-0.133-0.262-0.2c-0.542-0.416-1.087-0.829-1.638-1.235
		c-0.046-0.034-0.092-0.066-0.137-0.1c-3.373-2.48-6.91-4.747-10.571-6.817c-1.665-0.941-3.348-1.853-5.066-2.704
		c-0.021-0.01-0.04-0.02-0.06-0.03c-0.671-0.332-1.345-0.655-2.023-0.972c-0.031-0.015-0.063-0.03-0.094-0.044
		c-0.682-0.318-1.365-0.628-2.055-0.932c-0.016-0.007-0.031-0.014-0.047-0.021c-1.456-0.641-2.933-1.24-4.422-1.815
		c-5.768-2.229-11.775-3.97-17.979-5.155c-0.012-0.002-0.023-0.004-0.034-0.007c-0.77-0.146-1.543-0.285-2.318-0.415
		c-0.017-0.003-0.032-0.005-0.049-0.008c-0.779-0.13-1.562-0.252-2.347-0.365v-31.076h-115c-8.284,0-15-6.716-15-15V0h-125
		c-8.284,0-15,6.716-15,15v300c0,8.284,6.716,15,15,15h157.598c0.017,0.021,0.035,0.042,0.052,0.063
		c0.55,0.695,1.11,1.382,1.677,2.063c0.123,0.146,0.246,0.291,0.369,0.436c0.474,0.562,0.952,1.12,1.438,1.671
		c0.154,0.176,0.311,0.35,0.466,0.525c0.468,0.525,0.94,1.045,1.418,1.56c0.16,0.174,0.321,0.347,0.483,0.519
		c0.496,0.529,1,1.052,1.507,1.57c0.141,0.143,0.279,0.288,0.421,0.431c0.595,0.601,1.197,1.195,1.807,1.781
		c0.053,0.052,0.105,0.104,0.159,0.156c1.365,1.309,2.766,2.58,4.2,3.815c0.113,0.098,0.229,0.193,0.343,0.29
		c0.585,0.499,1.174,0.992,1.77,1.479c0.184,0.15,0.369,0.298,0.554,0.446c0.537,0.432,1.077,0.859,1.622,1.281
		c0.208,0.161,0.417,0.321,0.626,0.48c0.538,0.41,1.081,0.814,1.627,1.214c0.207,0.151,0.413,0.303,0.621,0.453
		c0.586,0.423,1.178,0.838,1.772,1.249c0.165,0.114,0.329,0.23,0.495,0.343c1.553,1.058,3.134,2.077,4.744,3.052
		c0.085,0.052,0.171,0.101,0.256,0.151c0.701,0.422,1.408,0.837,2.121,1.244c0.218,0.124,0.438,0.245,0.656,0.368
		c0.587,0.329,1.177,0.654,1.77,0.973c0.261,0.14,0.521,0.276,0.783,0.414c0.564,0.296,1.131,0.587,1.7,0.874
		c0.273,0.137,0.547,0.274,0.822,0.409c0.578,0.284,1.161,0.561,1.746,0.835c0.26,0.122,0.52,0.246,0.781,0.365
		c0.652,0.299,1.311,0.59,1.971,0.876c0.191,0.083,0.383,0.17,0.576,0.253c1.721,0.734,3.467,1.423,5.234,2.066
		c0.241,0.088,0.485,0.171,0.729,0.257c0.634,0.225,1.27,0.447,1.908,0.661c0.309,0.104,0.621,0.203,0.932,0.303
		c0.581,0.188,1.164,0.372,1.749,0.55c0.333,0.101,0.667,0.2,1.001,0.298c0.577,0.169,1.157,0.333,1.739,0.493
		c0.333,0.091,0.665,0.183,0.999,0.271c0.607,0.16,1.218,0.313,1.829,0.462c0.308,0.075,0.614,0.153,0.923,0.225
		c0.732,0.172,1.471,0.334,2.209,0.491c0.186,0.039,0.369,0.083,0.555,0.121c0.93,0.192,1.865,0.371,2.804,0.538
		c0.22,0.039,0.441,0.072,0.661,0.11c0.715,0.122,1.432,0.24,2.152,0.349c0.334,0.05,0.67,0.094,1.005,0.141
		c0.612,0.086,1.225,0.169,1.84,0.244c0.37,0.045,0.742,0.086,1.113,0.128c0.588,0.065,1.177,0.126,1.767,0.182
		c0.383,0.036,0.765,0.07,1.148,0.103c0.598,0.049,1.196,0.092,1.797,0.132c0.37,0.024,0.739,0.05,1.11,0.07
		c0.654,0.036,1.311,0.063,1.969,0.086c0.316,0.012,0.631,0.027,0.947,0.036c0.974,0.027,1.949,0.043,2.93,0.043
		c57.897,0,105-47.103,105-105c0-0.868-0.012-1.732-0.033-2.594C364.958,262.12,364.946,261.838,364.936,261.556z M155.12,260
		H79.998c-8.284,0-15-6.716-15-15c0-8.284,6.716-15,15-15h81.005C157.651,239.456,155.614,249.529,155.12,260z M177.592,200H79.998
		c-8.284,0-15-6.716-15-15c0-8.284,6.716-15,15-15h135.304C200.524,176.981,187.626,187.307,177.592,200z M259.999,339.997
		c-41.355,0-75-33.645-75-75c0-41.355,33.645-75,75-75s75,33.645,75,75C334.999,306.352,301.354,339.997,259.999,339.997z"/>
</g>
<g>
</g>
<g>
</g>
<g>
</g>
<g>
</g>
<g>
</g>
<g>
</g>
<g>
</g>
<g>
</g>
<g>
</g>
<g>
</g>
<g>
</g>
<g>
</g>
<g>
</g>
<g>
</g>
<g>
</g>
</svg>
