<?xml version="1.0" encoding="iso-8859-1"?>
<!-- Generator: Adobe Illustrator 19.0.0, SVG Export Plug-In . SVG Version: 6.00 Build 0)  -->
<svg version="1.1" id="Layer_1" xmlns="http://www.w3.org/2000/svg" xmlns:xlink="http://www.w3.org/1999/xlink" x="0px" y="0px"
	 viewBox="0 0 330 330" style="enable-background:new 0 0 330 330;" xml:space="preserve">
<g id="XMLID_90_">
	<polygon id="XMLID_91_" points="200,99.997 291.213,99.997 200,8.787 	"/>
	<path id="XMLID_92_" d="M300,129.997H185c-8.284,0-15-6.716-15-15V0H45c-8.284,0-15,6.716-15,15v155h270V129.997z"/>
	<path id="XMLID_93_" d="M45,330h240c8.284,0,15-6.716,15-15V200H30v115C30,323.284,36.716,330,45,330z M207.549,263.353
		c-3.121,0-5.475-2.403-5.475-5.59c0-3.218,2.329-5.645,5.418-5.645c2.601,0,3.09-0.1,3.09-3.26c0-3.156-0.735-3.316-2.863-3.316
		c-3.262,0-3.262,1.295-3.262,2.068c0,3.425-2.391,5.816-5.814,5.816c-3.712,0-5.928-2.302-5.928-6.158
		c0-6.324,4.732-13.131,15.119-13.131c9.138,0,14.379,5.097,14.379,13.984c0,3.591-0.825,6.701-2.355,9.1
		c2.279,2.431,3.49,5.73,3.49,9.676v1.078c0,9.849-6.075,15.967-15.855,15.967c-10.225,0-15.742-6.882-15.742-13.357
		c0-3.692,2.206-5.986,5.758-5.986c4.096,0,5.93,2.807,5.93,5.589c0,0.539,0.288,2.296,3.998,2.296c2.825,0,4.17-0.675,4.17-4.508
		v-1.078C211.605,264.959,211.3,263.353,207.549,263.353z M154.563,239.498c0-2.875,2.302-5.176,5.355-5.353
		c0.076-0.005,0.153-0.007,0.23-0.007h10.439c9.822,0,15.686,5.991,15.686,16.025v0.568c0,10.068-5.906,16.08-15.799,16.08h-4.168
		v11.316c0,3.07-2.58,5.475-5.873,5.475c-3.292,0-5.871-2.404-5.871-5.475V239.498z M106.652,239.954
		c0-3.37,2.469-5.815,5.869-5.815c2.709,0,4.915,1.604,6.558,4.766l6.208,11.98l6.204-11.977c1.645-3.166,3.85-4.77,6.558-4.77
		c3.402,0,5.871,2.445,5.871,5.815v38.175c0,3.07-2.579,5.475-5.871,5.475c-3.292,0-5.871-2.404-5.871-5.475v-15.756l-1.882,3.56
		c-1.111,2.084-3.004,3.321-5.067,3.321c-0.976,0-3.416-0.323-5.006-3.315l-1.828-3.513v15.703c0,3.07-2.58,5.475-5.873,5.475
		c-3.291,0-5.869-2.404-5.869-5.475V239.954z"/>
	<path id="XMLID_106_" d="M174.529,250.9v-0.679c0-3.887-1.425-4.624-4.055-4.624h-4.168v9.982h4.168
		C173.105,255.58,174.529,254.834,174.529,250.9z"/>
</g>
<g>
</g>
<g>
</g>
<g>
</g>
<g>
</g>
<g>
</g>
<g>
</g>
<g>
</g>
<g>
</g>
<g>
</g>
<g>
</g>
<g>
</g>
<g>
</g>
<g>
</g>
<g>
</g>
<g>
</g>
</svg>
