<?xml version="1.0" encoding="iso-8859-1"?>
<!-- Generator: Adobe Illustrator 19.0.0, SVG Export Plug-In . SVG Version: 6.00 Build 0)  -->
<svg version="1.1" id="Layer_1" xmlns="http://www.w3.org/2000/svg" xmlns:xlink="http://www.w3.org/1999/xlink" x="0px" y="0px"
	 viewBox="0 0 330 330" style="enable-background:new 0 0 330 330;" xml:space="preserve">
<g id="XMLID_243_">
	<polygon id="XMLID_244_" points="200,99.997 291.213,99.997 200,8.787 	"/>
	<path id="XMLID_245_" d="M30,170h270v-40.003H185c-8.284,0-15-6.716-15-15V0H45c-8.284,0-15,6.716-15,15V170z"/>
	<path id="XMLID_307_" d="M30,315c0,8.284,6.716,15,15,15h240c8.284,0,15-6.716,15-15V200H30V315z M183.743,276.656l11.819-38.391
		c0.784-2.514,3.152-4.128,6.035-4.128c2.871,0,5.252,1.589,6.065,4.048l11.826,38.601c0.056,0.185,0.099,0.372,0.128,0.563
		c0.047,0.218,0.104,0.553,0.104,0.951c0,3.376-3.241,5.645-6.27,5.645c-2.412,0-4.457-1.45-5.21-3.694
		c-0.015-0.042-0.027-0.084-0.04-0.126l-1.756-5.878h-9.752l-1.74,5.822c-0.64,2.323-2.765,3.876-5.326,3.876
		c-2.959,0-6.154-2.137-6.154-5.589C183.473,278.079,183.473,277.418,183.743,276.656z M150.314,239.84
		c0-3.105,2.47-5.359,5.871-5.359c3.349,0,5.873,2.304,5.873,5.359v32.646h12.164c2.994,0,5.25,2.451,5.25,5.701
		c0,3.282-2.256,5.758-5.25,5.758h-18.207c-3.196,0-5.701-2.405-5.701-5.475V239.84z M112.277,239.898
		c0-3.089,2.452-5.418,5.703-5.418h20.08c3.039,0,5.418,2.479,5.418,5.643c0,3.261-2.379,5.816-5.418,5.816h-14.039v7.601h4.963
		c3.007,0,5.361,2.504,5.361,5.701c0,3.153-2.305,5.531-5.361,5.531h-4.963v13.755c0,3.089-2.524,5.418-5.873,5.418
		c-3.347,0-5.871-2.329-5.871-5.418V239.898z"/>
	<polygon id="XMLID_333_" points="201.582,258.008 200.066,263.012 203.084,263.012 	"/>
</g>
<g>
</g>
<g>
</g>
<g>
</g>
<g>
</g>
<g>
</g>
<g>
</g>
<g>
</g>
<g>
</g>
<g>
</g>
<g>
</g>
<g>
</g>
<g>
</g>
<g>
</g>
<g>
</g>
<g>
</g>
</svg>
