<?xml version="1.0" encoding="iso-8859-1"?>
<!-- Generator: Adobe Illustrator 19.0.0, SVG Export Plug-In . SVG Version: 6.00 Build 0)  -->
<svg version="1.1" id="Layer_1" xmlns="http://www.w3.org/2000/svg" xmlns:xlink="http://www.w3.org/1999/xlink" x="0px" y="0px"
	 viewBox="0 0 330 330" style="enable-background:new 0 0 330 330;" xml:space="preserve">
<g id="XMLID_462_">
	<polygon id="XMLID_463_" points="200,99.997 291.213,99.997 200,8.787 	"/>
	<path id="XMLID_464_" d="M170,114.997V0H45c-8.284,0-15,6.716-15,15v155h270v-40.003H185C176.716,129.997,170,123.281,170,114.997z
		"/>
	<path id="XMLID_466_" d="M133.888,253.822h8.548c-2.746-0.355-4.708-2.295-4.931-4.975c-0.261-2.108-1.005-3.25-4.072-3.25
		c-2.63,0-4.055,0.737-4.055,4.624v6.124C130.324,254.816,131.975,253.822,133.888,253.822z"/>
	<path id="XMLID_467_" d="M133.433,272.484c2.63,0,4.055-0.746,4.055-4.68v-2.75h-3.6c-1.913,0-3.564-1.004-4.51-2.549v5.299
		C129.378,271.738,130.803,272.484,133.433,272.484z"/>
	<path id="XMLID_468_" d="M45,330h240c8.284,0,15-6.716,15-15V200H30v115C30,323.284,36.716,330,45,330z M181.166,239.557
		c0-3.088,2.451-5.418,5.702-5.418h20.08c3.038,0,5.418,2.479,5.418,5.645c0,3.261-2.38,5.814-5.418,5.814h-14.039v7.602h4.963
		c3.006,0,5.36,2.504,5.36,5.701c0,3.152-2.305,5.531-5.36,5.531h-4.963v13.754c0,3.09-2.524,5.419-5.873,5.419
		c-3.347,0-5.87-2.329-5.87-5.419V239.557z M158.792,239.5c0-3.106,2.47-5.361,5.871-5.361c3.349,0,5.873,2.305,5.873,5.361v38.629
		c0,3.07-2.579,5.476-5.873,5.476c-3.292,0-5.871-2.405-5.871-5.476V239.5z M117.634,250.222c0-10.07,5.886-16.083,15.743-16.083
		c9.335,0,15.854,5.68,15.854,13.813c0,3.252-1.983,5.525-5.02,5.881c2.885,0.168,5.02,2.461,5.02,5.465v8.508
		c0,10.105-5.906,16.139-15.799,16.139s-15.799-6.033-15.799-16.139V250.222z"/>
</g>
<g>
</g>
<g>
</g>
<g>
</g>
<g>
</g>
<g>
</g>
<g>
</g>
<g>
</g>
<g>
</g>
<g>
</g>
<g>
</g>
<g>
</g>
<g>
</g>
<g>
</g>
<g>
</g>
<g>
</g>
</svg>
