<?xml version="1.0" encoding="iso-8859-1"?>
<!-- Generator: Adobe Illustrator 19.0.0, SVG Export Plug-In . SVG Version: 6.00 Build 0)  -->
<svg version="1.1" id="Layer_1" xmlns="http://www.w3.org/2000/svg" xmlns:xlink="http://www.w3.org/1999/xlink" x="0px" y="0px"
	 viewBox="0 0 330 330" style="enable-background:new 0 0 330 330;" xml:space="preserve">
<g id="XMLID_817_">
	<polygon id="XMLID_818_" points="200,99.997 291.213,99.997 200,8.787 	"/>
	<path id="XMLID_819_" d="M45,0c-8.284,0-15,6.716-15,15v300c0,8.284,6.716,15,15,15h240c8.284,0,15-6.716,15-15V129.997H185
		c-8.284,0-15-6.716-15-15V0H45z M218.395,227.297l8.226,10.2c2.151,2.667,3.324,5.99,3.324,9.417V255c0,8.284-6.716,15-15,15H105
		c-8.284,0-15-6.716-15-15v-8.087c0-3.79,1.435-7.44,4.017-10.216l26.633-28.634c5.24-5.634,13.891-6.389,20.029-1.75l38.84,29.362
		l19.419-11.785C205.363,219.992,213.681,221.45,218.395,227.297z M175.03,160.43c3.949,0,7.809,1.61,10.609,4.4
		c2.79,2.79,4.391,6.66,4.391,10.6c0,3.95-1.601,7.82-4.391,10.61c-2.8,2.79-6.66,4.39-10.609,4.39c-3.95,0-7.82-1.6-10.61-4.39
		c-2.79-2.79-4.39-6.66-4.39-10.61c0-3.94,1.6-7.81,4.39-10.6C167.21,162.04,171.08,160.43,175.03,160.43z"/>
</g>
<g>
</g>
<g>
</g>
<g>
</g>
<g>
</g>
<g>
</g>
<g>
</g>
<g>
</g>
<g>
</g>
<g>
</g>
<g>
</g>
<g>
</g>
<g>
</g>
<g>
</g>
<g>
</g>
<g>
</g>
</svg>
