<?xml version="1.0" encoding="iso-8859-1"?>
<!-- Generator: Adobe Illustrator 19.0.0, SVG Export Plug-In . SVG Version: 6.00 Build 0)  -->
<svg version="1.1" id="Layer_1" xmlns="http://www.w3.org/2000/svg" xmlns:xlink="http://www.w3.org/1999/xlink" x="0px" y="0px"
	 viewBox="0 0 330 330" style="enable-background:new 0 0 330 330;" xml:space="preserve">
<g id="XMLID_334_">
	<polygon id="XMLID_337_" points="200,99.997 291.213,99.997 200,8.787 	"/>
	<path id="XMLID_338_" d="M300,129.997H185c-8.284,0-15-6.716-15-15V0H45c-8.284,0-15,6.716-15,15v155h270V129.997z"/>
	<path id="XMLID_340_" d="M300,200H30v115c0,8.284,6.716,15,15,15h240c8.284,0,15-6.716,15-15V200z M127.39,272.512
		c3.313,0,3.431-0.945,3.746-3.473c0.364-2.975,2.712-4.979,5.84-4.979c1.377,0,5.871,0.456,5.871,6.325
		c0,6.752-5.445,13.586-15.853,13.586c-9.711,0-15.744-6.184-15.744-16.138V250.25c0-9.922,6.097-16.084,15.912-16.084
		c10.298,0,15.686,6.778,15.686,13.474c0,3.925-2.194,6.268-5.871,6.268c-3.235,0-5.646-2.11-5.861-5.134
		c-0.095-2.029-0.77-3.147-3.953-3.147c-2.824,0-4.168,0.692-4.168,4.624v17.583C122.993,271.836,124.35,272.512,127.39,272.512z
		 M164.747,284.028c-8.946,0-15.631-5.347-15.631-10.126c0-2.879,2.439-6.1,5.703-6.1c2.207,0,3.534,1.43,4.411,2.376
		c1.113,1.2,2.164,2.333,5.288,2.333c4.109,0,4.453-1.892,4.453-3.829c0-2.979-1.305-3.866-6.489-5.814
		c-4.916-1.847-12.345-4.638-12.345-14.492c0-8.835,6.142-14.322,16.027-14.322c5.025,0,13.529,1.571,13.529,7.46
		c0,2.945-2.269,6.1-5.645,6.1c-1.311,0-2.299-0.509-3.17-0.957c-1.039-0.535-2.333-1.201-4.773-1.201
		c-4.225,0-4.225,1.617-4.225,2.582c0,1.563,0.53,2.154,5.397,3.942c5.35,1.965,13.435,4.935,13.435,16.363
		C180.714,278.018,174.596,284.028,164.747,284.028z M202.782,284.028c-8.945,0-15.629-5.347-15.629-10.126
		c0-2.879,2.438-6.1,5.701-6.1c2.208,0,3.535,1.431,4.413,2.377c1.112,1.199,2.163,2.332,5.286,2.332
		c4.109,0,4.453-1.892,4.453-3.829c0-2.979-1.305-3.866-6.489-5.814c-4.916-1.847-12.345-4.638-12.345-14.492
		c0-8.835,6.142-14.322,16.027-14.322c5.025,0,13.529,1.571,13.529,7.46c0,2.945-2.269,6.1-5.645,6.1
		c-1.312,0-2.299-0.509-3.171-0.957c-1.038-0.535-2.331-1.201-4.77-1.201c-4.227,0-4.227,1.617-4.227,2.582
		c0,1.563,0.53,2.154,5.398,3.942c5.351,1.965,13.436,4.935,13.436,16.363C218.751,278.018,212.632,284.028,202.782,284.028z"/>
</g>
<g>
</g>
<g>
</g>
<g>
</g>
<g>
</g>
<g>
</g>
<g>
</g>
<g>
</g>
<g>
</g>
<g>
</g>
<g>
</g>
<g>
</g>
<g>
</g>
<g>
</g>
<g>
</g>
<g>
</g>
</svg>
