<?xml version="1.0" encoding="iso-8859-1"?>
<!-- Generator: Adobe Illustrator 19.0.0, SVG Export Plug-In . SVG Version: 6.00 Build 0)  -->
<svg version="1.1" id="Layer_1" xmlns="http://www.w3.org/2000/svg" xmlns:xlink="http://www.w3.org/1999/xlink" x="0px" y="0px"
	 viewBox="0 0 330 330" style="enable-background:new 0 0 330 330;" xml:space="preserve">
<g id="XMLID_223_">
	<polygon id="XMLID_224_" points="200,99.997 291.213,99.997 200,8.787 	"/>
	<path id="XMLID_225_" d="M300,129.997H185c-8.284,0-15-6.716-15-15V0H45c-8.284,0-15,6.716-15,15v155h270V129.997z"/>
	<path id="XMLID_226_" d="M45,330h240c8.284,0,15-6.716,15-15V200H30v115C30,323.284,36.716,330,45,330z M196.065,234.139
		c2.564,0,4.686,1.551,5.322,3.873l6.634,22.02l6.616-22.079c0.013-0.039,0.024-0.079,0.038-0.118
		c0.749-2.245,2.795-3.696,5.212-3.696c3.027,0,6.27,2.268,6.27,5.645c0,0.4-0.057,0.737-0.104,0.952
		c-0.029,0.19-0.072,0.378-0.129,0.563l-11.799,38.458c-0.797,2.552-3.187,4.188-6.094,4.188c-2.915,0-5.289-1.658-6.049-4.226
		l-11.793-38.261c-0.249-0.682-0.283-1.297-0.283-1.73C189.907,236.275,193.104,234.139,196.065,234.139z M151.302,250.222
		c0-10.07,5.906-16.083,15.799-16.083c9.893,0,15.799,6.013,15.799,16.083v17.583c0,10.105-5.906,16.139-15.799,16.139
		c-9.893,0-15.799-6.033-15.799-16.139V250.222z M103.843,239.954c0-3.37,2.47-5.815,5.871-5.815c2.704,0,4.911,1.602,6.556,4.762
		l6.209,11.984l6.205-11.977c1.645-3.166,3.85-4.77,6.556-4.77c3.403,0,5.873,2.445,5.873,5.815v38.175
		c0,3.07-2.579,5.475-5.873,5.475c-3.292,0-5.871-2.404-5.871-5.475v-15.753l-1.88,3.556c-1.111,2.085-3.004,3.322-5.067,3.322
		c-0.974,0-3.411-0.322-5.004-3.309l-1.83-3.517v15.7c0,3.07-2.579,5.475-5.873,5.475c-3.292,0-5.871-2.404-5.871-5.475V239.954z"/>
	<path id="XMLID_231_" d="M167.101,272.484c2.63,0,4.055-0.746,4.055-4.68v-17.583c0-3.887-1.425-4.624-4.055-4.624
		s-4.055,0.737-4.055,4.624v17.583C163.046,271.738,164.471,272.484,167.101,272.484z"/>
</g>
<g>
</g>
<g>
</g>
<g>
</g>
<g>
</g>
<g>
</g>
<g>
</g>
<g>
</g>
<g>
</g>
<g>
</g>
<g>
</g>
<g>
</g>
<g>
</g>
<g>
</g>
<g>
</g>
<g>
</g>
</svg>
