<?xml version="1.0" encoding="iso-8859-1"?>
<!-- Generator: Adobe Illustrator 19.0.0, SVG Export Plug-In . SVG Version: 6.00 Build 0)  -->
<svg version="1.1" id="Layer_1" xmlns="http://www.w3.org/2000/svg" xmlns:xlink="http://www.w3.org/1999/xlink" x="0px" y="0px"
	 viewBox="0 0 330 330" style="enable-background:new 0 0 330 330;" xml:space="preserve">
<g id="XMLID_530_">
	<polygon id="XMLID_531_" points="200,99.997 291.213,99.997 200,8.787 	"/>
	<path id="XMLID_532_" d="M30,170h270v-40.003H185c-8.284,0-15-6.716-15-15V0H45c-8.284,0-15,6.716-15,15V170z"/>
	<path id="XMLID_533_" d="M30,315c0,8.284,6.716,15,15,15h240c8.284,0,15-6.716,15-15V200H30V315z M199.41,276.48l11.816-38.384
		c0.787-2.515,3.154-4.128,6.035-4.128c2.868,0,5.248,1.587,6.064,4.044l11.827,38.605c0.056,0.18,0.098,0.364,0.126,0.55
		c0.049,0.22,0.107,0.56,0.107,0.963c0,3.376-3.242,5.645-6.271,5.645c-2.412,0-4.457-1.45-5.21-3.694
		c-0.015-0.042-0.027-0.084-0.04-0.126l-1.756-5.878h-9.752l-1.74,5.822c-0.638,2.324-2.762,3.877-5.324,3.877
		c-2.961,0-6.156-2.137-6.156-5.589C199.137,277.908,199.137,277.245,199.41,276.48z M154.344,240.124
		c0-3.37,2.47-5.815,5.871-5.815c2.707,0,4.912,1.603,6.557,4.764l6.207,11.982l6.205-11.977c1.646-3.166,3.852-4.769,6.557-4.769
		c3.404,0,5.873,2.445,5.873,5.815v38.174c0,3.07-2.579,5.476-5.873,5.476c-3.291,0-5.871-2.405-5.871-5.476v-15.754l-1.881,3.558
		c-1.111,2.085-3.003,3.322-5.066,3.322c-0.975,0-3.41-0.322-5.004-3.309l-1.83-3.516v15.7c0,3.07-2.579,5.476-5.873,5.476
		c-3.291,0-5.871-2.405-5.871-5.476V240.124z M102.771,234.31c2.557,0,4.699,1.574,5.334,3.917l5.857,20.786l1.893-7.061
		c0.652-2.623,2.943-4.313,5.861-4.313c2.799,0,5.008,1.6,5.767,4.175l1.93,7.198l5.867-20.825c0.632-2.309,2.775-3.878,5.325-3.878
		c3.395,0,6.154,2.481,6.154,5.531c0,0.287,0,0.873-0.225,1.606l-11.107,38.417c-0.811,2.612-3.2,4.25-6.109,4.25
		c-2.997,0-5.432-1.75-6.088-4.364l-1.514-5.629l-1.527,5.672c-0.635,2.555-3.084,4.321-6.074,4.321
		c-2.951,0-5.347-1.66-6.104-4.229l-11.165-38.421c-0.232-0.741-0.232-1.332-0.232-1.623
		C96.613,236.791,99.376,234.31,102.771,234.31z"/>
	<polygon id="XMLID_783_" points="217.246,257.838 215.73,262.842 218.748,262.842 	"/>
</g>
<g>
</g>
<g>
</g>
<g>
</g>
<g>
</g>
<g>
</g>
<g>
</g>
<g>
</g>
<g>
</g>
<g>
</g>
<g>
</g>
<g>
</g>
<g>
</g>
<g>
</g>
<g>
</g>
<g>
</g>
</svg>
