<?xml version="1.0" encoding="iso-8859-1"?>
<!-- Generator: Adobe Illustrator 19.0.0, SVG Export Plug-In . SVG Version: 6.00 Build 0)  -->
<svg version="1.1" id="Layer_1" xmlns="http://www.w3.org/2000/svg" xmlns:xlink="http://www.w3.org/1999/xlink" x="0px" y="0px"
	 viewBox="0 0 330 330" style="enable-background:new 0 0 330 330;" xml:space="preserve">
<g id="XMLID_107_">
	<polygon id="XMLID_108_" points="200,99.997 291.213,99.997 200,8.787 	"/>
	<path id="XMLID_109_" d="M300,129.997H185c-8.284,0-15-6.716-15-15V0H45c-8.284,0-15,6.716-15,15v155h270V129.997z"/>
	<path id="XMLID_110_" d="M45,330h240c8.284,0,15-6.716,15-15V200H30v115C30,323.284,36.716,330,45,330z M215.145,239.322
		c0-3.119,2.483-5.383,5.904-5.383c3.366,0,5.905,2.314,5.905,5.383v33.299h12.455c3.005,0,5.271,2.465,5.271,5.732
		c0,3.301-2.267,5.789-5.271,5.789h-18.532c-3.215,0-5.732-2.417-5.732-5.502V239.322z M166.439,239.787
		c0-3.389,2.482-5.848,5.903-5.848c2.727,0,4.952,1.619,6.611,4.812l6.38,12.316l6.38-12.313c1.661-3.196,3.885-4.815,6.61-4.815
		c3.477,0,5.905,2.404,5.905,5.848v38.854c0,3.137-2.539,5.502-5.905,5.502c-3.311,0-5.904-2.417-5.904-5.502v-16.319l-2.047,3.872
		c-1.142,2.132-2.995,3.343-5.097,3.343c-0.979,0-3.431-0.325-5.031-3.333l-1.995-3.833v16.271c0,3.085-2.595,5.502-5.907,5.502
		c-3.311,0-5.903-2.417-5.903-5.502V239.787z M130.456,233.939h23.153c3.102,0,5.442,2.465,5.442,5.732
		c0,3.333-2.34,5.847-5.442,5.847h-5.643v33.122c0,3.085-2.593,5.502-5.903,5.502c-3.367,0-5.907-2.365-5.907-5.502v-33.122h-5.7
		c-3.053,0-5.443-2.544-5.443-5.791C125.013,236.481,127.403,233.939,130.456,233.939z M85.318,239.322
		c0-3.119,2.483-5.383,5.904-5.383c3.366,0,5.905,2.314,5.905,5.383v13.264h8.686v-13.264c0-3.119,2.483-5.383,5.905-5.383
		c3.367,0,5.907,2.314,5.907,5.383v39.318c0,3.085-2.595,5.502-5.907,5.502c-3.366,0-5.905-2.365-5.905-5.502v-14.762h-8.686v14.762
		c0,3.085-2.594,5.502-5.905,5.502c-3.311,0-5.904-2.417-5.904-5.502V239.322z"/>
</g>
<g>
</g>
<g>
</g>
<g>
</g>
<g>
</g>
<g>
</g>
<g>
</g>
<g>
</g>
<g>
</g>
<g>
</g>
<g>
</g>
<g>
</g>
<g>
</g>
<g>
</g>
<g>
</g>
<g>
</g>
</svg>
