<?xml version="1.0" encoding="iso-8859-1"?>
<!-- Generator: Adobe Illustrator 19.0.0, SVG Export Plug-In . SVG Version: 6.00 Build 0)  -->
<svg version="1.1" id="Layer_1" xmlns="http://www.w3.org/2000/svg" xmlns:xlink="http://www.w3.org/1999/xlink" x="0px" y="0px"
	 viewBox="0 0 512.47 512.47" style="enable-background:new 0 0 512.47 512.47;" xml:space="preserve">
<g>
	<g>
		<g>
			<path d="M419.375,220.979c0-10.566,2.56-20.666,7.005-29.929L321.606,86.3c-25.926,12.288-57.81,7.983-79.244-13.428
				c-6.423-6.423-15.988-8.448-24.529-5.376c-8.518,3.165-14.429,11.008-15.127,20.061L187.951,279.51h-71.587
				c-12.847,0-23.273,10.403-23.273,23.273v37.655c-29.347-44.195-46.545-97.117-46.545-154.019
				c0-12.87-10.426-23.273-23.273-23.273S0,173.549,0,186.419c0,179.642,146.176,325.818,325.818,325.818
				c12.847,0,23.273-10.426,23.273-23.273c0-12.87-10.426-23.273-23.273-23.273c-56.902,0-109.824-17.199-154.019-46.545h37.655
				c12.847,0,23.273-10.426,23.273-23.273v-71.052l192.442-14.825c9.076-0.698,16.896-6.586,20.061-15.127
				c3.142-8.518,1.047-18.106-5.376-24.529C426.636,257.145,419.375,239.621,419.375,220.979z M324.655,220.979
				c-9.1,9.1-23.831,9.1-32.908,0c-9.1-9.1-9.1-23.831,0-32.908c9.076-9.1,23.808-9.1,32.908,0
				C333.754,197.148,333.754,211.88,324.655,220.979z"/>
			<path d="M505.675,72.879L439.836,7.04c-9.076-9.076-23.808-9.076-32.908,0l-49.361,49.385l98.723,98.723l49.385-49.361
				c4.352-4.352,6.796-10.287,6.796-16.454C512.493,83.165,510.027,77.231,505.675,72.879z"/>
		</g>
	</g>
</g>
<g>
</g>
<g>
</g>
<g>
</g>
<g>
</g>
<g>
</g>
<g>
</g>
<g>
</g>
<g>
</g>
<g>
</g>
<g>
</g>
<g>
</g>
<g>
</g>
<g>
</g>
<g>
</g>
<g>
</g>
</svg>
