<?xml version="1.0" encoding="iso-8859-1"?>
<!-- Generator: Adobe Illustrator 19.0.0, SVG Export Plug-In . SVG Version: 6.00 Build 0)  -->
<svg version="1.1" id="Layer_1" xmlns="http://www.w3.org/2000/svg" xmlns:xlink="http://www.w3.org/1999/xlink" x="0px" y="0px"
	 viewBox="0 0 512 512" style="enable-background:new 0 0 512 512;" xml:space="preserve">
<g>
	<g>
		<g>
			<path d="M384,469.333h-21.333c-11.797,0-21.333,9.557-21.333,21.333S350.869,512,362.667,512H384
				c11.797,0,21.333-9.557,21.333-21.333S395.797,469.333,384,469.333z"/>
			<path d="M149.333,426.667c11.797,0,21.333-9.557,21.333-21.333V384c0-11.776-9.536-21.333-21.333-21.333
				C137.536,362.667,128,372.224,128,384v21.333C128,417.109,137.536,426.667,149.333,426.667z"/>
			<path d="M170.667,469.333h-21.333c-11.797,0-21.333,9.557-21.333,21.333S137.536,512,149.333,512h21.333
				c11.797,0,21.333-9.557,21.333-21.333S182.464,469.333,170.667,469.333z"/>
			<path d="M277.333,469.333H256c-11.797,0-21.333,9.557-21.333,21.333S244.203,512,256,512h21.333
				c11.797,0,21.333-9.557,21.333-21.333S289.131,469.333,277.333,469.333z"/>
			<path d="M362.667,149.333c0-11.776-9.536-21.333-21.333-21.333H320c-11.797,0-21.333,9.557-21.333,21.333
				s9.536,21.333,21.333,21.333h21.333C353.131,170.667,362.667,161.109,362.667,149.333z"/>
			<path d="M490.667,384c-11.797,0-21.333,9.557-21.333,21.333v21.333c0,11.776,9.536,21.333,21.333,21.333S512,438.443,512,426.667
				v-21.333C512,393.557,502.464,384,490.667,384z"/>
			<path d="M490.667,277.333c-11.797,0-21.333,9.557-21.333,21.333V320c0,11.776,9.536,21.333,21.333,21.333S512,331.776,512,320
				v-21.333C512,286.891,502.464,277.333,490.667,277.333z"/>
			<path d="M490.667,170.667c-11.797,0-21.333,9.557-21.333,21.333v21.333c0,11.776,9.536,21.333,21.333,21.333
				S512,225.109,512,213.333V192C512,180.224,502.464,170.667,490.667,170.667z"/>
			<path d="M469.333,149.333c0-11.776-9.536-21.333-21.333-21.333h-21.333c-11.797,0-21.333,9.557-21.333,21.333
				s9.536,21.333,21.333,21.333H448C459.797,170.667,469.333,161.109,469.333,149.333z"/>
			<path d="M490.667,469.333h-21.333c-11.797,0-21.333,9.557-21.333,21.333S457.536,512,469.333,512h21.333
				c11.797,0,21.333-9.557,21.333-21.333S502.464,469.333,490.667,469.333z"/>
			<path d="M277.333,0h-256C9.536,0,0,9.557,0,21.333v256c0,11.776,9.536,21.333,21.333,21.333H128
				c0,11.776,9.536,21.333,21.333,21.333c11.797,0,21.333-9.557,21.333-21.333v-21.333V192v-21.333h42.667h21.333h42.667
				c11.797,0,21.333-9.557,21.333-21.333v-128C298.667,9.557,289.131,0,277.333,0z"/>
		</g>
	</g>
</g>
<g>
</g>
<g>
</g>
<g>
</g>
<g>
</g>
<g>
</g>
<g>
</g>
<g>
</g>
<g>
</g>
<g>
</g>
<g>
</g>
<g>
</g>
<g>
</g>
<g>
</g>
<g>
</g>
<g>
</g>
</svg>
