<?xml version="1.0" encoding="iso-8859-1"?>
<!-- Generator: Adobe Illustrator 19.0.0, SVG Export Plug-In . SVG Version: 6.00 Build 0)  -->
<svg version="1.1" id="Layer_1" xmlns="http://www.w3.org/2000/svg" xmlns:xlink="http://www.w3.org/1999/xlink" x="0px" y="0px"
	 viewBox="0 0 512 512" style="enable-background:new 0 0 512 512;" xml:space="preserve">
<g>
	<g>
		<path d="M0,0v512h512V0H0z M198.251,27.584c8.341-8.341,21.824-8.341,30.165,0L256,55.168l27.584-27.584
			c8.341-8.341,21.824-8.341,30.165,0c8.341,8.341,8.341,21.824,0,30.165l-36.416,36.416V128c0,11.776-9.536,21.333-21.333,21.333
			s-21.333-9.557-21.333-21.333V94.165l-36.416-36.416C189.909,49.408,189.909,35.925,198.251,27.584z M128,490.667H42.667
			c-2.773,0-5.547-0.576-8.149-1.643c-5.227-2.155-9.387-6.315-11.541-11.541c-2.155-5.205-2.155-11.093,0-16.299
			c1.088-2.624,2.645-4.971,4.629-6.955l48.896-48.896H42.667c-11.797,0-21.333-9.557-21.333-21.333s9.536-21.333,21.333-21.333H128
			c2.773,0,5.547,0.576,8.149,1.643c5.227,2.155,9.387,6.315,11.541,11.541c2.155,5.205,2.155,11.093,0,16.299
			c-1.088,2.624-2.645,4.971-4.629,6.955L94.165,448H128c11.797,0,21.333,9.557,21.333,21.333S139.797,490.667,128,490.667z
			 M332.672,337.323c-4.245,5.269-10.432,8-16.704,8c-4.651,0-9.365-1.515-13.312-4.672l-47.381-36.864l-56.277,39.211
			c-3.947,3.136-8.64,4.672-13.312,4.672c-6.272,0-12.459-2.731-16.683-8c-7.36-9.195-5.867-22.635,3.328-29.995l62.336-43.413V192
			c0-11.776,9.536-21.333,21.333-21.333s21.333,9.557,21.333,21.333v74.901l51.989,40.448
			C338.517,314.688,340.011,328.128,332.672,337.323z M463.083,454.251c8.341,8.341,8.341,21.824,0,30.165
			c-4.16,4.16-9.621,6.251-15.083,6.251c-5.461,0-10.923-2.091-15.083-6.251l-27.584-27.584l-27.584,27.584
			c-4.16,4.16-9.621,6.251-15.083,6.251s-10.923-2.091-15.083-6.251c-8.341-8.341-8.341-21.824,0-30.165l27.584-27.584
			l-27.584-27.584c-8.341-8.341-8.341-21.824,0-30.165c8.341-8.341,21.824-8.341,30.165,0l27.584,27.584l27.584-27.584
			c8.341-8.341,21.824-8.341,30.165,0c8.341,8.341,8.341,21.824,0,30.165l-27.584,27.584L463.083,454.251z"/>
	</g>
</g>
<g>
</g>
<g>
</g>
<g>
</g>
<g>
</g>
<g>
</g>
<g>
</g>
<g>
</g>
<g>
</g>
<g>
</g>
<g>
</g>
<g>
</g>
<g>
</g>
<g>
</g>
<g>
</g>
<g>
</g>
</svg>
