<?xml version="1.0" encoding="iso-8859-1"?>
<!-- Generator: Adobe Illustrator 19.0.0, SVG Export Plug-In . SVG Version: 6.00 Build 0)  -->
<svg version="1.1" id="Layer_1" xmlns="http://www.w3.org/2000/svg" xmlns:xlink="http://www.w3.org/1999/xlink" x="0px" y="0px"
	 viewBox="0 0 512 512" style="enable-background:new 0 0 512 512;" xml:space="preserve">
<g>
	<g>
		<path d="M490.661,298.668h-21.333V72.838l36.415-36.415c8.341-8.341,8.341-21.824,0-30.164s-21.824-8.341-30.164,0l-36.415,36.415
			h-225.83V21.34c0-11.776-9.536-21.333-21.333-21.333H106.67c-11.797,0-21.333,9.557-21.333,21.333v21.333H21.339
			c-11.797,0-21.333,9.557-21.333,21.333v85.331c0,11.776,9.536,21.333,21.333,21.333h63.999v225.83L6.256,475.581
			c-8.341,8.341-8.341,21.824,0,30.164c4.16,4.16,9.621,6.251,15.083,6.251c5.461,0,10.923-2.091,15.083-6.251l79.081-79.081h225.83
			v63.999c0,11.776,9.536,21.333,21.333,21.333h85.331c11.797,0,21.333-9.557,21.333-21.333v-63.999h21.333
			c11.797,0,21.333-9.557,21.333-21.333v-85.331C511.994,308.225,502.458,298.668,490.661,298.668z M85.337,128.005H42.671V85.339
			h42.666V128.005z M213.334,170.671h97.833l-97.833,97.833V170.671z M341.331,298.668h-97.833l97.833-97.833V298.668z
			 M426.663,469.331h-42.666v-42.666h42.666V469.331z"/>
	</g>
</g>
<g>
</g>
<g>
</g>
<g>
</g>
<g>
</g>
<g>
</g>
<g>
</g>
<g>
</g>
<g>
</g>
<g>
</g>
<g>
</g>
<g>
</g>
<g>
</g>
<g>
</g>
<g>
</g>
<g>
</g>
</svg>
