<?xml version="1.0" encoding="iso-8859-1"?>
<!-- Generator: Adobe Illustrator 19.0.0, SVG Export Plug-In . SVG Version: 6.00 Build 0)  -->
<svg version="1.1" id="Layer_1" xmlns="http://www.w3.org/2000/svg" xmlns:xlink="http://www.w3.org/1999/xlink" x="0px" y="0px"
	 viewBox="0 0 512 512" style="enable-background:new 0 0 512 512;" xml:space="preserve">
<g>
	<g>
		<g>
			<path d="M490.667,234.667h-21.333H448H277.333h-42.667V97.899c0-30.464-24.768-55.232-55.232-55.232H97.899
				c-30.464,0-55.232,24.768-55.232,55.232v136.768H21.333C9.557,234.667,0,244.224,0,256s9.557,21.333,21.333,21.333h21.333
				v136.768c0,30.464,24.768,55.232,55.232,55.232h81.536c30.464,0,55.232-24.768,55.232-55.232V277.333h42.667H448h21.333h21.333
				c11.776,0,21.333-9.557,21.333-21.333S502.443,234.667,490.667,234.667z"/>
			<path d="M469.333,161.894c0-30.464-24.768-55.232-55.232-55.232h-81.536c-30.464,0-55.232,24.768-55.232,55.232v30.101h192
				V161.894z"/>
			<path d="M277.331,350.099c0,30.464,24.768,55.232,55.232,55.232h81.536c30.464,0,55.232-24.768,55.232-55.232v-30.101h-192
				V350.099z"/>
		</g>
	</g>
</g>
<g>
</g>
<g>
</g>
<g>
</g>
<g>
</g>
<g>
</g>
<g>
</g>
<g>
</g>
<g>
</g>
<g>
</g>
<g>
</g>
<g>
</g>
<g>
</g>
<g>
</g>
<g>
</g>
<g>
</g>
</svg>
