<?xml version="1.0" encoding="iso-8859-1"?>
<!-- Generator: Adobe Illustrator 19.0.0, SVG Export Plug-In . SVG Version: 6.00 Build 0)  -->
<svg version="1.1" id="Layer_1" xmlns="http://www.w3.org/2000/svg" xmlns:xlink="http://www.w3.org/1999/xlink" x="0px" y="0px"
	 viewBox="0 0 512.009 512.009" style="enable-background:new 0 0 512.009 512.009;" xml:space="preserve">
<g>
	<g>
		<g>
			<path d="M277.366,412.745c0.704-32.768,18.752-64.171,50.795-88.427c20.971-15.872,33.301-39.787,33.877-65.664
				c0.576-27.2-11.712-52.608-34.603-71.552c-42.325-34.987-50.603-71.04-50.069-95.125c0.704-32.853,18.325-64.171,49.643-88.299
				l3.733-3.669H221.153L183.542,36.83c-21.419,16.192-33.451,36.117-33.877,56.064c-0.448,21.013,11.52,42.24,34.624,61.333
				c32.661,27.029,50.901,65.429,50.027,105.344c-0.832,38.976-19.328,74.987-50.773,98.773
				c-21.717,16.448-33.451,35.584-33.877,55.339c-0.448,20.523,11.541,41.451,34.624,60.544l37.824,37.781h110.123l-6.251-6.208
				C285.132,472.115,276.854,436.489,277.366,412.745z"/>
			<path d="M391.338,0l-37.44,36.821c-21.419,16.213-33.451,36.117-33.877,56.064c-0.448,21.035,11.52,42.24,34.624,61.333
				c32.661,27.029,50.901,65.429,50.027,105.344c-0.832,38.997-19.328,74.987-50.773,98.773
				c-21.717,16.469-33.451,35.584-33.877,55.339c-0.448,20.523,11.541,41.451,34.624,60.544L392.66,512h119.339V0H391.338z"/>
			<path d="M107.018,412.757c0.704-32.789,18.752-64.192,50.795-88.427c20.971-15.893,33.301-39.808,33.856-65.685
				c0.597-27.2-11.691-52.608-34.603-71.552c-42.304-34.987-50.581-71.04-50.048-95.125c0.704-32.875,18.325-64.171,49.664-88.299
				L160.415,0H0.01v512h161.835l-6.251-6.251C114.783,472.107,106.506,436.48,107.018,412.757z"/>
		</g>
	</g>
</g>
<g>
</g>
<g>
</g>
<g>
</g>
<g>
</g>
<g>
</g>
<g>
</g>
<g>
</g>
<g>
</g>
<g>
</g>
<g>
</g>
<g>
</g>
<g>
</g>
<g>
</g>
<g>
</g>
<g>
</g>
</svg>
