<?xml version="1.0" encoding="iso-8859-1"?>
<!-- Generator: Adobe Illustrator 19.0.0, SVG Export Plug-In . SVG Version: 6.00 Build 0)  -->
<svg version="1.1" id="Layer_1" xmlns="http://www.w3.org/2000/svg" xmlns:xlink="http://www.w3.org/1999/xlink" x="0px" y="0px"
	 viewBox="0 0 512.002 512.002" style="enable-background:new 0 0 512.002 512.002;" xml:space="preserve">
<g>
	<g>
		<g>
			<path d="M21.333,0.001C9.557,0.001,0,9.558,0,21.334v469.333c0,11.776,9.557,21.333,21.333,21.333s21.333-9.557,21.333-21.333
				V21.334C42.667,9.558,33.109,0.001,21.333,0.001z"/>
			<path d="M456.77,277.334H140.567c-30.464,0-55.232,24.768-55.232,55.232v81.536c0,30.464,24.768,55.232,55.232,55.232H456.77
				c30.464,0,55.232-24.768,55.232-55.232v-81.536C512.002,302.102,487.234,277.334,456.77,277.334z"/>
			<path d="M384,179.438V97.902c0-30.464-24.768-55.232-55.232-55.232h-30.101v192h30.101C359.232,234.67,384,209.902,384,179.438z"
				/>
			<rect x="213.333" y="42.668" width="42.667" height="192"/>
			<path d="M140.563,234.668h30.101v-192h-30.101c-30.464,0-55.232,24.768-55.232,55.232v81.536
				C85.331,209.9,110.099,234.668,140.563,234.668z"/>
		</g>
	</g>
</g>
<g>
</g>
<g>
</g>
<g>
</g>
<g>
</g>
<g>
</g>
<g>
</g>
<g>
</g>
<g>
</g>
<g>
</g>
<g>
</g>
<g>
</g>
<g>
</g>
<g>
</g>
<g>
</g>
<g>
</g>
</svg>
