<?xml version="1.0" encoding="iso-8859-1"?>
<!-- Generator: Adobe Illustrator 19.0.0, SVG Export Plug-In . SVG Version: 6.00 Build 0)  -->
<svg version="1.1" id="Layer_1" xmlns="http://www.w3.org/2000/svg" xmlns:xlink="http://www.w3.org/1999/xlink" x="0px" y="0px"
	 viewBox="0 0 512 512" style="enable-background:new 0 0 512 512;" xml:space="preserve">
<g>
	<g>
		<path d="M464.149,343.637l-52.693-158.08C432.981,175.253,448,153.429,448,128c0-35.307-28.715-64-64-64
			c-18.219,0-34.603,7.744-46.272,20.011l-169.877-37.76C160.107,19.627,135.765,0,106.667,0c-35.285,0-64,28.693-64,64
			c0,26.816,16.619,49.749,40.085,59.264L45.056,387.179C19.051,395.328,0,419.349,0,448c0,35.285,28.715,64,64,64
			c28.651,0,52.672-19.051,60.821-45.056l263.915-37.696c9.493,23.445,32.448,40.085,59.264,40.085c35.285,0,64-28.715,64-64
			C512,375.637,491.605,350.848,464.149,343.637z M387.2,386.368l-263.936,37.717c-6.507-16.064-19.285-28.864-35.349-35.349
			L125.632,124.8c17.792-5.568,32.363-18.453,39.723-35.392l155.072,34.453C320.32,125.248,320,126.571,320,128
			c0,29.675,20.395,54.464,47.851,61.675l52.693,158.08C404.629,355.392,392.533,369.323,387.2,386.368z"/>
	</g>
</g>
<g>
</g>
<g>
</g>
<g>
</g>
<g>
</g>
<g>
</g>
<g>
</g>
<g>
</g>
<g>
</g>
<g>
</g>
<g>
</g>
<g>
</g>
<g>
</g>
<g>
</g>
<g>
</g>
<g>
</g>
</svg>
