<?xml version="1.0" encoding="iso-8859-1"?>
<!-- Generator: Adobe Illustrator 19.0.0, SVG Export Plug-In . SVG Version: 6.00 Build 0)  -->
<svg version="1.1" id="Layer_1" xmlns="http://www.w3.org/2000/svg" xmlns:xlink="http://www.w3.org/1999/xlink" x="0px" y="0px"
	 viewBox="0 0 512 512" style="enable-background:new 0 0 512 512;" xml:space="preserve">
<g>
	<g>
		<g>
			<path d="M192,0c-11.776,0-21.333,9.557-21.333,21.333v86.912c-4.053-0.96-8.213-1.579-12.565-1.579H76.565
				c-30.464,0-55.232,24.768-55.232,55.232V192h149.333v42.667H21.333v42.667h149.333V320H21.333v30.101
				c0,30.464,24.768,55.232,55.232,55.232h81.536c4.352,0,8.512-0.619,12.565-1.579v86.912c0,11.776,9.557,21.333,21.333,21.333
				s21.333-9.557,21.333-21.333V350.101V161.899V21.333C213.333,9.557,203.776,0,192,0z"/>
			<path d="M469.333,0C457.557,0,448,9.557,448,21.333v22.912c-4.053-0.96-8.213-1.579-12.565-1.579h-81.536
				c-30.464,0-55.232,24.768-55.232,55.232v316.203c0,30.464,24.768,55.232,55.232,55.232h81.536c4.352,0,8.512-0.619,12.565-1.579
				v22.912c0,11.776,9.557,21.333,21.333,21.333s21.333-9.557,21.333-21.333v-76.565V97.899V21.333
				C490.667,9.557,481.109,0,469.333,0z"/>
		</g>
	</g>
</g>
<g>
</g>
<g>
</g>
<g>
</g>
<g>
</g>
<g>
</g>
<g>
</g>
<g>
</g>
<g>
</g>
<g>
</g>
<g>
</g>
<g>
</g>
<g>
</g>
<g>
</g>
<g>
</g>
<g>
</g>
</svg>
