<?xml version="1.0" encoding="iso-8859-1"?>
<!-- Generator: Adobe Illustrator 19.0.0, SVG Export Plug-In . SVG Version: 6.00 Build 0)  -->
<svg version="1.1" id="Layer_1" xmlns="http://www.w3.org/2000/svg" xmlns:xlink="http://www.w3.org/1999/xlink" x="0px" y="0px"
	 viewBox="0 0 512 512" style="enable-background:new 0 0 512 512;" xml:space="preserve">
<g>
	<g>
		<g>
			<path d="M21.333,213.333h140.565h188.203h140.565c11.797,0,21.333-9.557,21.333-21.333s-9.536-21.333-21.333-21.333h-86.912
				c0.96-4.053,1.579-8.213,1.579-12.565V76.565c0-30.464-24.768-55.232-55.232-55.232H320v149.333h-42.667V21.333h-42.667v149.333
				H192V21.333h-30.101c-30.464,0-55.232,24.768-55.232,55.232v81.536c0,4.352,0.619,8.512,1.579,12.565H21.333
				C9.536,170.667,0,180.224,0,192S9.536,213.333,21.333,213.333z"/>
			<path d="M490.667,448h-22.912c0.96-4.053,1.579-8.213,1.579-12.565v-81.536c0-30.464-24.768-55.232-55.232-55.232H97.899
				c-30.464,0-55.232,24.768-55.232,55.232v81.536c0,4.352,0.619,8.512,1.579,12.565H21.333C9.536,448,0,457.557,0,469.333
				s9.536,21.333,21.333,21.333h76.565h316.203h76.565c11.797,0,21.333-9.557,21.333-21.333S502.464,448,490.667,448z"/>
		</g>
	</g>
</g>
<g>
</g>
<g>
</g>
<g>
</g>
<g>
</g>
<g>
</g>
<g>
</g>
<g>
</g>
<g>
</g>
<g>
</g>
<g>
</g>
<g>
</g>
<g>
</g>
<g>
</g>
<g>
</g>
<g>
</g>
</svg>
