<?xml version="1.0" encoding="iso-8859-1"?>
<!-- Generator: Adobe Illustrator 19.0.0, SVG Export Plug-In . SVG Version: 6.00 Build 0)  -->
<svg version="1.1" id="Layer_1" xmlns="http://www.w3.org/2000/svg" xmlns:xlink="http://www.w3.org/1999/xlink" x="0px" y="0px"
	 viewBox="0 0 512.002 512.002" style="enable-background:new 0 0 512.002 512.002;" xml:space="preserve">
<g>
	<g>
		<g>
			<path d="M490.668,0H21.334C9.558,0,0.001,9.557,0.001,21.333s9.557,21.333,21.333,21.333h469.333
				c11.776,0,21.333-9.557,21.333-21.333S502.444,0,490.668,0z"/>
			<path d="M179.436,85.335H97.9c-30.464,0-55.232,24.768-55.232,55.232V456.77c0,30.464,24.768,55.232,55.232,55.232h81.536
				c30.464,0,55.232-24.768,55.232-55.232V140.567C234.668,110.103,209.9,85.335,179.436,85.335z"/>
			<path d="M277.332,328.768c0,30.464,24.768,55.232,55.232,55.232H414.1c30.464,0,55.232-24.768,55.232-55.232v-30.101h-192
				V328.768z"/>
			<rect x="277.334" y="213.333" width="192" height="42.667"/>
			<path d="M414.102,85.331h-81.536c-30.464,0-55.232,24.768-55.232,55.232v30.101h192v-30.101
				C469.334,110.099,444.566,85.331,414.102,85.331z"/>
		</g>
	</g>
</g>
<g>
</g>
<g>
</g>
<g>
</g>
<g>
</g>
<g>
</g>
<g>
</g>
<g>
</g>
<g>
</g>
<g>
</g>
<g>
</g>
<g>
</g>
<g>
</g>
<g>
</g>
<g>
</g>
<g>
</g>
</svg>
