<?xml version="1.0" encoding="iso-8859-1"?>
<!-- Generator: Adobe Illustrator 19.0.0, SVG Export Plug-In . SVG Version: 6.00 Build 0)  -->
<svg version="1.1" id="Layer_1" xmlns="http://www.w3.org/2000/svg" xmlns:xlink="http://www.w3.org/1999/xlink" x="0px" y="0px"
	 viewBox="0 0 512 512" style="enable-background:new 0 0 512 512;" xml:space="preserve">
<g>
	<g>
		<g>
			<path d="M158.102,42.667H76.566c-4.352,0-8.512,0.619-12.565,1.579V21.333C64.001,9.557,54.465,0,42.668,0
				C30.87,0,21.334,9.557,21.334,21.333v76.565v316.203v76.565c0,11.776,9.536,21.333,21.333,21.333
				c11.797,0,21.333-9.557,21.333-21.333v-22.912c4.053,0.96,8.213,1.579,12.565,1.579h81.536c30.464,0,55.232-24.768,55.232-55.232
				V97.899C213.334,67.435,188.566,42.667,158.102,42.667z"/>
			<path d="M490.666,192v-30.101c0-30.464-24.768-55.232-55.232-55.232h-81.536c-4.352,0-8.512,0.619-12.565,1.579V21.333
				C341.332,9.557,331.796,0,319.999,0s-21.333,9.557-21.333,21.333v140.565v188.203v140.565c0,11.776,9.536,21.333,21.333,21.333
				s21.333-9.557,21.333-21.333v-86.912c4.053,0.96,8.213,1.579,12.565,1.579h81.536c30.464,0,55.232-24.768,55.232-55.232V320
				H341.332v-42.667h149.333v-42.667H341.332V192H490.666z"/>
		</g>
	</g>
</g>
<g>
</g>
<g>
</g>
<g>
</g>
<g>
</g>
<g>
</g>
<g>
</g>
<g>
</g>
<g>
</g>
<g>
</g>
<g>
</g>
<g>
</g>
<g>
</g>
<g>
</g>
<g>
</g>
<g>
</g>
</svg>
