<?xml version="1.0" encoding="iso-8859-1"?>
<!-- Generator: Adobe Illustrator 19.0.0, SVG Export Plug-In . SVG Version: 6.00 Build 0)  -->
<svg version="1.1" id="Layer_1" xmlns="http://www.w3.org/2000/svg" xmlns:xlink="http://www.w3.org/1999/xlink" x="0px" y="0px"
	 viewBox="0 0 512 512" style="enable-background:new 0 0 512 512;" xml:space="preserve">
<g>
	<g>
		<g>
			<path d="M192,42.667h21.333c11.776,0,21.333-9.557,21.333-21.333S225.109,0,213.333,0H192c-11.776,0-21.333,9.557-21.333,21.333
				S180.224,42.667,192,42.667z"/>
			<path d="M85.333,42.667h21.333c11.776,0,21.333-9.557,21.333-21.333S118.443,0,106.667,0H85.333C73.557,0,64,9.557,64,21.333
				S73.557,42.667,85.333,42.667z"/>
			<path d="M405.333,42.667h21.333c11.776,0,21.333-9.557,21.333-21.333S438.443,0,426.667,0h-21.333
				C393.557,0,384,9.557,384,21.333S393.557,42.667,405.333,42.667z"/>
			<path d="M298.667,42.667H320c11.776,0,21.333-9.557,21.333-21.333S331.776,0,320,0h-21.333c-11.776,0-21.333,9.557-21.333,21.333
				S286.891,42.667,298.667,42.667z"/>
			<path d="M426.667,85.333c-11.776,0-21.333,9.557-21.333,21.333V128c0,11.776,9.557,21.333,21.333,21.333S448,139.776,448,128
				v-21.333C448,94.891,438.443,85.333,426.667,85.333z"/>
			<path d="M85.333,128c11.776,0,21.333-9.557,21.333-21.333V85.333C106.667,73.557,97.109,64,85.333,64S64,73.557,64,85.333v21.333
				C64,118.443,73.557,128,85.333,128z"/>
			<path d="M426.667,298.667c-11.776,0-21.333,9.557-21.333,21.333v21.333h-42.667h-21.333H256h-21.333h-85.333H128H85.333
				c-11.776,0-21.333,9.557-21.333,21.333v128C64,502.443,73.557,512,85.333,512h341.333c11.776,0,21.333-9.557,21.333-21.333v-128
				c0-3.968-1.387-7.488-3.264-10.667c1.877-3.179,3.264-6.699,3.264-10.667V320C448,308.224,438.443,298.667,426.667,298.667z"/>
			<path d="M85.333,234.667c11.776,0,21.333-9.557,21.333-21.333V192c0-11.776-9.557-21.333-21.333-21.333S64,180.224,64,192v21.333
				C64,225.109,73.557,234.667,85.333,234.667z"/>
			<path d="M426.667,192c-11.776,0-21.333,9.557-21.333,21.333v21.333c0,11.776,9.557,21.333,21.333,21.333S448,246.443,448,234.667
				v-21.333C448,201.557,438.443,192,426.667,192z"/>
			<path d="M106.667,320v-21.333c0-11.776-9.557-21.333-21.333-21.333S64,286.891,64,298.667V320
				c0,11.776,9.557,21.333,21.333,21.333S106.667,331.776,106.667,320z"/>
		</g>
	</g>
</g>
<g>
</g>
<g>
</g>
<g>
</g>
<g>
</g>
<g>
</g>
<g>
</g>
<g>
</g>
<g>
</g>
<g>
</g>
<g>
</g>
<g>
</g>
<g>
</g>
<g>
</g>
<g>
</g>
<g>
</g>
</svg>
