<?xml version="1.0" encoding="iso-8859-1"?>
<!-- Generator: Adobe Illustrator 19.0.0, SVG Export Plug-In . SVG Version: 6.00 Build 0)  -->
<svg version="1.1" id="Layer_1" xmlns="http://www.w3.org/2000/svg" xmlns:xlink="http://www.w3.org/1999/xlink" x="0px" y="0px"
	 viewBox="0 0 501.126 501.126" style="enable-background:new 0 0 501.126 501.126;" xml:space="preserve">
<g>
	<g>
		<g>
			<path d="M452.209,139.123l30.165-30.165c12.075-12.075,18.752-28.16,18.752-45.269c0-17.088-6.656-33.152-18.731-45.248h-0.021
				c-24.149-24.149-66.325-24.192-90.496,0l-30.187,30.165L331.526,18.44c-8.32-8.341-21.824-8.341-30.165,0l-78.507,78.507
				c-4.011,3.989-6.251,9.408-6.251,15.083c0,5.653,2.24,11.072,6.251,15.083l15.083,15.083l-78.72,78.741L279.9,341.597
				l78.72-78.72l15.083,15.083c4.16,4.16,9.621,6.251,15.083,6.251c5.461,0,10.923-2.091,15.083-6.251l78.507-78.507
				c8.32-8.32,8.32-21.824,0-30.165L452.209,139.123z M388.785,232.712l-15.083-15.083l-90.496-90.517
				c-0.021-0.021-0.043-0.021-0.064-0.043l-15.04-15.04l48.341-48.341l30.165,30.165c8.341,8.341,21.845,8.341,30.187,0
				l45.248-45.248c8.085-8.043,22.144-8.064,30.144,0h0.021c4.011,4.053,6.251,9.408,6.251,15.083
				c0,5.717-2.219,11.051-6.251,15.083l-45.248,45.269c-8.341,8.341-8.341,21.845,0,30.165l30.165,30.165L388.785,232.712z"/>
			<path d="M69.451,310.67c-3.989,3.989-6.251,9.408-6.251,15.083c0,5.675,2.261,11.093,6.251,15.083l0.021,0.021L18.72,391.588
				c-24.96,24.96-24.96,65.557,0,90.517c12.459,12.48,28.864,18.709,45.227,18.709c16.405,0,32.789-6.229,45.269-18.709
				l50.752-50.752c8.341,8.341,21.845,8.341,30.165,0l59.584-59.584L129.035,251.086L69.451,310.67z"/>
		</g>
	</g>
</g>
<g>
</g>
<g>
</g>
<g>
</g>
<g>
</g>
<g>
</g>
<g>
</g>
<g>
</g>
<g>
</g>
<g>
</g>
<g>
</g>
<g>
</g>
<g>
</g>
<g>
</g>
<g>
</g>
<g>
</g>
</svg>
