<?xml version="1.0" encoding="iso-8859-1"?>
<!-- Generator: Adobe Illustrator 19.0.0, SVG Export Plug-In . SVG Version: 6.00 Build 0)  -->
<svg version="1.1" id="Layer_1" xmlns="http://www.w3.org/2000/svg" xmlns:xlink="http://www.w3.org/1999/xlink" x="0px" y="0px"
	 viewBox="0 0 488.203 488.203" style="enable-background:new 0 0 488.203 488.203;" xml:space="preserve">
<g>
	<g>
		<path d="M439.307,139.424l30.165-30.187c12.075-12.075,18.731-28.16,18.731-45.269c0-17.067-6.656-33.152-18.731-45.248
			c-24.96-24.96-65.557-24.96-90.517,0l-30.165,30.165L318.603,18.72c-8.32-8.32-21.824-8.32-30.165,0l-78.485,78.507
			c-8.341,8.341-8.341,21.824,0,30.165l15.083,15.083L77.259,290.251c-8.341,8.32-8.341,21.824-0.021,30.165l0.021,0.021
			L18.72,378.976c-24.96,24.96-24.96,65.557,0,90.517c12.459,12.48,28.843,18.709,45.227,18.709
			c16.384,0,32.789-6.229,45.269-18.709l58.56-58.56c8.341,8.341,21.824,8.341,30.165,0l147.776-147.776L360.8,278.24
			c4.16,4.181,9.621,6.251,15.083,6.251c5.461,0,10.923-2.069,15.083-6.251l78.507-78.485c8.32-8.341,8.32-21.845,0-30.165
			L439.307,139.424z M182.859,365.685c-8.341-8.341-21.824-8.341-30.165,0l-73.643,73.621c-8.341,8.341-21.888,8.32-30.165,0.021
			c-8.32-8.32-8.32-21.845,0-30.187l73.621-73.621c8.341-8.341,8.341-21.845,0.021-30.165h-0.021L255.2,172.64l60.352,60.352
			L182.859,365.685z"/>
	</g>
</g>
<g>
</g>
<g>
</g>
<g>
</g>
<g>
</g>
<g>
</g>
<g>
</g>
<g>
</g>
<g>
</g>
<g>
</g>
<g>
</g>
<g>
</g>
<g>
</g>
<g>
</g>
<g>
</g>
<g>
</g>
</svg>
