<?xml version="1.0" encoding="iso-8859-1"?>
<!-- Generator: Adobe Illustrator 19.0.0, SVG Export Plug-In . SVG Version: 6.00 Build 0)  -->
<svg version="1.1" id="Layer_1" xmlns="http://www.w3.org/2000/svg" xmlns:xlink="http://www.w3.org/1999/xlink" x="0px" y="0px"
	 viewBox="0 0 512.019 512.019" style="enable-background:new 0 0 512.019 512.019;" xml:space="preserve">
<g>
	<g>
		<g>
			<path d="M128.01,298.675v-85.333c0-11.776-9.536-21.333-21.333-21.333H88.586c6.037-1.387,11.435-5.248,14.379-11.243
				c5.611-11.328,12.459-22.059,20.416-31.893c7.403-9.173,5.952-22.592-3.179-29.995c-9.216-7.403-22.592-5.995-30.016,3.179
				c-9.92,12.267-18.496,25.685-25.472,39.829c-5.227,10.56-0.875,23.36,9.685,28.587c2.133,1.045,4.395,1.237,6.613,1.536H21.343
				c-11.797,0-21.333,9.557-21.333,21.333v85.333c0,11.776,9.536,21.333,21.333,21.333h31.573c3.029,9.6,6.485,19.029,10.816,28.075
				c3.669,7.659,11.307,12.117,19.264,12.117c3.072,0,6.229-0.661,9.195-2.091c10.624-5.099,15.104-17.835,10.005-28.459
				c-1.493-3.136-2.667-6.421-3.968-9.643h8.448C118.474,320.009,128.01,310.451,128.01,298.675z"/>
			<path d="M490.676,192.009h-31.573c-3.029-9.6-6.485-19.029-10.816-28.075c-5.099-10.624-17.813-15.168-28.459-10.027
				c-10.624,5.099-15.104,17.835-10.005,28.459c1.493,3.136,2.667,6.421,3.968,9.643h-8.448c-11.797,0-21.333,9.557-21.333,21.333
				v85.333c0,11.776,9.536,21.333,21.333,21.333h19.584c-6.592,1.045-12.672,4.8-15.851,11.221
				c-5.611,11.371-12.48,22.08-20.416,31.893c-7.424,9.152-5.995,22.592,3.157,29.995c3.947,3.2,8.683,4.757,13.397,4.757
				c6.229,0,12.373-2.709,16.597-7.915c9.92-12.245,18.517-25.643,25.515-39.829c5.227-10.56,0.896-23.36-9.685-28.565
				c-1.877-0.939-3.883-1.216-5.845-1.557h58.88c11.797,0,21.333-9.557,21.333-21.333v-85.333
				C512.01,201.566,502.474,192.009,490.676,192.009z"/>
			<path d="M393.125,120.192c7.424-9.152,6.016-22.592-3.157-30.016c-12.288-9.941-25.685-18.539-39.829-25.493
				c-10.581-5.227-23.339-0.853-28.587,9.707c-0.917,1.877-1.195,3.861-1.536,5.824v-58.88C320.016,9.557,310.459,0,298.683,0
				h-85.333c-11.797,0-21.333,9.557-21.333,21.333v31.552c-9.6,3.029-19.051,6.464-28.117,10.816
				c-10.624,5.099-15.104,17.835-9.984,28.459c3.648,7.659,11.285,12.117,19.243,12.117c3.072,0,6.229-0.683,9.216-2.112
				c3.115-1.493,6.421-2.667,9.643-3.968v8.469c0,11.797,9.536,21.333,21.333,21.333h85.333c11.776,0,21.333-9.536,21.333-21.333
				v-19.52c1.067,6.571,4.821,12.629,11.243,15.808c11.307,5.568,22.037,12.437,31.872,20.395c3.947,3.2,8.683,4.736,13.397,4.736
				C382.757,128.085,388.901,125.397,393.125,120.192z"/>
			<path d="M329.676,409.811c-3.157,1.515-6.443,2.667-9.664,3.989v-8.448c0-11.797-9.536-21.333-21.333-21.333h-85.333
				c-11.797,0-21.333,9.536-21.333,21.333v19.52c-1.067-6.592-4.821-12.629-11.243-15.808
				c-11.328-5.568-22.059-12.437-31.893-20.395c-9.131-7.424-22.549-5.995-29.995,3.157c-7.424,9.152-5.995,22.592,3.179,29.995
				c12.288,9.963,25.685,18.539,39.829,25.515c3.029,1.493,6.251,2.197,9.408,2.197c7.872,0,15.445-4.373,19.179-11.904
				c0.917-1.877,1.195-3.861,1.536-5.824v58.88c0,11.776,9.536,21.333,21.333,21.333h85.333c11.797,0,21.333-9.557,21.333-21.333
				v-31.595c9.557-3.008,19.008-6.464,28.075-10.795c10.624-5.099,15.125-17.835,10.048-28.459
				C353.036,409.214,340.257,404.691,329.676,409.811z"/>
		</g>
	</g>
</g>
<g>
</g>
<g>
</g>
<g>
</g>
<g>
</g>
<g>
</g>
<g>
</g>
<g>
</g>
<g>
</g>
<g>
</g>
<g>
</g>
<g>
</g>
<g>
</g>
<g>
</g>
<g>
</g>
<g>
</g>
</svg>
