<?xml version="1.0" encoding="iso-8859-1"?>
<!-- Generator: Adobe Illustrator 19.0.0, SVG Export Plug-In . SVG Version: 6.00 Build 0)  -->
<svg version="1.1" id="Layer_1" xmlns="http://www.w3.org/2000/svg" xmlns:xlink="http://www.w3.org/1999/xlink" x="0px" y="0px"
	 viewBox="0 0 511.993 511.993" style="enable-background:new 0 0 511.993 511.993;" xml:space="preserve">
<g>
	<g>
		<g>
			<path d="M185.713,162.909c0-12.847,10.403-23.273,23.273-23.273h93.091c12.87,0,23.273,10.426,23.273,23.273v15.919
				l155.927-43.311C438.129,54.947,353.16,0,255.531,0C120.573,0,9.957,105.03,0.462,237.591l185.251-46.313V162.909z"/>
			<path d="M499.569,178.751l-174.22,48.384v28.858c0,12.847-10.403,23.273-23.273,23.273h-93.091
				c-12.87,0-23.273-10.426-23.273-23.273V239.26L1.346,285.34c14.615,127.372,122.973,226.653,254.185,226.653
				c141.149,0,256-114.851,256-256C511.531,229.067,507.295,203.141,499.569,178.751z"/>
			<rect x="232.258" y="186.177" width="46.545" height="46.545"/>
		</g>
	</g>
</g>
<g>
</g>
<g>
</g>
<g>
</g>
<g>
</g>
<g>
</g>
<g>
</g>
<g>
</g>
<g>
</g>
<g>
</g>
<g>
</g>
<g>
</g>
<g>
</g>
<g>
</g>
<g>
</g>
<g>
</g>
</svg>
