<?xml version="1.0" encoding="iso-8859-1"?>
<!-- Generator: Adobe Illustrator 19.0.0, SVG Export Plug-In . SVG Version: 6.00 Build 0)  -->
<svg version="1.1" id="Layer_1" xmlns="http://www.w3.org/2000/svg" xmlns:xlink="http://www.w3.org/1999/xlink" x="0px" y="0px"
	 viewBox="0 0 512 512" style="enable-background:new 0 0 512 512;" xml:space="preserve">
<g>
	<g>
		<g>
			<path d="M490.667,42.667H128V21.333C128,9.557,118.464,0,106.667,0H21.333C9.536,0,0,9.557,0,21.333v85.333
				C0,118.443,9.536,128,21.333,128h21.333v362.667C42.667,502.443,52.203,512,64,512c11.797,0,21.333-9.557,21.333-21.333V128
				h21.333c11.797,0,21.333-9.557,21.333-21.333V85.333h362.667C502.464,85.333,512,75.776,512,64S502.464,42.667,490.667,42.667z"
				/>
			<path d="M419.375,303.949L248.708,154.615c-6.016-5.269-14.443-6.699-21.867-3.797c-7.445,2.944-12.608,9.771-13.397,17.728
				L192.111,381.88c-0.832,8.427,3.371,16.555,10.752,20.715c3.264,1.835,6.869,2.731,10.475,2.731
				c4.523,0,9.024-1.429,12.779-4.267l61.675-46.251l33.323,99.947c2.965,8.939,11.285,14.592,20.224,14.592
				c2.219,0,4.501-0.363,6.741-1.109c11.179-3.733,17.216-15.808,13.483-26.987l-33.301-99.925h77.077
				c8.896,0,16.853-5.504,19.968-13.824C428.442,319.181,426.052,309.794,419.375,303.949z"/>
		</g>
	</g>
</g>
<g>
</g>
<g>
</g>
<g>
</g>
<g>
</g>
<g>
</g>
<g>
</g>
<g>
</g>
<g>
</g>
<g>
</g>
<g>
</g>
<g>
</g>
<g>
</g>
<g>
</g>
<g>
</g>
<g>
</g>
</svg>
