<?xml version="1.0" encoding="iso-8859-1"?>
<!-- Generator: Adobe Illustrator 19.0.0, SVG Export Plug-In . SVG Version: 6.00 Build 0)  -->
<svg version="1.1" id="Layer_1" xmlns="http://www.w3.org/2000/svg" xmlns:xlink="http://www.w3.org/1999/xlink" x="0px" y="0px"
	 viewBox="0 0 512.002 512.002" style="enable-background:new 0 0 512.002 512.002;" xml:space="preserve">
<g>
	<g>
		<path d="M489.741,100.175H267.132c-12.31,0-22.261,9.973-22.261,22.261v73.038L176.041,46.326
			c-3.651-7.88-11.531-12.934-20.213-12.934c-8.682,0-16.562,5.053-20.213,12.934L2.05,335.717
			c-3.183,6.901-2.627,14.915,1.447,21.326c4.118,6.389,11.175,10.262,18.766,10.262H135.57
			c10.663,63.065,65.514,111.304,131.562,111.304s120.899-48.239,131.562-111.304h91.047c12.31,0,22.261-9.973,22.261-22.261
			V122.436C512.002,110.148,502.051,100.175,489.741,100.175z M161.037,264.237c-0.378,0.467-0.735,0.957-1.091,1.447
			c-2.649,3.584-5.142,7.279-7.435,11.13c-0.378,0.623-0.757,1.247-1.135,1.87c-5.053,8.771-9.171,18.12-12.132,27.982
			c-0.223,0.735-0.356,1.514-0.579,2.248c-1.113,3.962-2.07,7.992-2.827,12.11c-0.089,0.601-0.289,1.158-0.401,1.759h-78.38
			l98.771-214.016l53.537,116.024C190.288,234.007,173.77,247.564,161.037,264.237z M467.48,322.783h-68.63
			c-0.089-0.579-0.312-1.091-0.423-1.647c-1.091-6.01-2.538-11.887-4.408-17.586c-0.378-1.113-0.801-2.159-1.202-3.25
			c-1.825-5.142-3.962-10.151-6.389-14.982c-0.423-0.868-0.801-1.759-1.269-2.605c-2.783-5.276-5.966-10.307-9.416-15.115
			c-0.779-1.091-1.581-2.137-2.382-3.183c-7.346-9.661-15.961-18.276-25.622-25.622c-1.024-0.779-2.07-1.581-3.139-2.337
			c-4.831-3.473-9.862-6.656-15.16-9.461c-0.824-0.445-1.67-0.801-2.515-1.202c-4.875-2.471-9.951-4.63-15.16-6.478
			c-1.024-0.378-2.026-0.779-3.072-1.135c-5.766-1.892-11.687-3.361-17.742-4.452c-0.534-0.089-1.024-0.289-1.558-0.401v-68.63
			H467.48V322.783z"/>
	</g>
</g>
<g>
</g>
<g>
</g>
<g>
</g>
<g>
</g>
<g>
</g>
<g>
</g>
<g>
</g>
<g>
</g>
<g>
</g>
<g>
</g>
<g>
</g>
<g>
</g>
<g>
</g>
<g>
</g>
<g>
</g>
</svg>
