<?xml version="1.0" encoding="iso-8859-1"?>
<!-- Generator: Adobe Illustrator 19.0.0, SVG Export Plug-In . SVG Version: 6.00 Build 0)  -->
<svg version="1.1" id="Layer_1" xmlns="http://www.w3.org/2000/svg" xmlns:xlink="http://www.w3.org/1999/xlink" x="0px" y="0px"
	 viewBox="0 0 512 512" style="enable-background:new 0 0 512 512;" xml:space="preserve">
<g>
	<g>
		<g>
			<path d="M128,298.667h-21.333c-11.797,0-21.333,9.557-21.333,21.333s9.536,21.333,21.333,21.333H128
				c11.797,0,21.333-9.557,21.333-21.333S139.797,298.667,128,298.667z"/>
			<path d="M21.333,64C9.536,64,0,73.557,0,85.333v21.333C0,118.443,9.536,128,21.333,128c11.797,0,21.333-9.557,21.333-21.333
				V85.333C42.667,73.557,33.131,64,21.333,64z"/>
			<path d="M21.333,170.667C9.536,170.667,0,180.224,0,192v21.333c0,11.776,9.536,21.333,21.333,21.333
				c11.797,0,21.333-9.557,21.333-21.333V192C42.667,180.224,33.131,170.667,21.333,170.667z"/>
			<path d="M64,0H42.667C30.869,0,21.333,9.557,21.333,21.333s9.536,21.333,21.333,21.333H64c11.797,0,21.333-9.557,21.333-21.333
				S75.797,0,64,0z"/>
			<path d="M192,21.333C192,9.557,182.464,0,170.667,0h-21.333C137.536,0,128,9.557,128,21.333s9.536,21.333,21.333,21.333h21.333
				C182.464,42.667,192,33.109,192,21.333z"/>
			<path d="M298.667,85.333c0,11.776,9.536,21.333,21.333,21.333s21.333-9.557,21.333-21.333V64
				c0-11.776-9.536-21.333-21.333-21.333S298.667,52.224,298.667,64V85.333z"/>
			<path d="M320,149.333c-11.797,0-21.333,9.557-21.333,21.333H192c-11.797,0-21.333,9.557-21.333,21.333v128v21.333
				c0,11.776,9.536,21.333,21.333,21.333s21.333-9.557,21.333-21.333H320c11.797,0,21.333-9.557,21.333-21.333V192v-21.333
				C341.333,158.891,331.797,149.333,320,149.333z"/>
			<path d="M256,42.667h21.333c11.797,0,21.333-9.557,21.333-21.333S289.131,0,277.333,0H256c-11.797,0-21.333,9.557-21.333,21.333
				S244.203,42.667,256,42.667z"/>
			<path d="M21.333,277.333C9.536,277.333,0,286.891,0,298.667V320c0,11.776,9.536,21.333,21.333,21.333
				c11.797,0,21.333-9.557,21.333-21.333v-21.333C42.667,286.891,33.131,277.333,21.333,277.333z"/>
			<path d="M469.333,469.333H448c-11.797,0-21.333,9.557-21.333,21.333S436.203,512,448,512h21.333
				c11.797,0,21.333-9.557,21.333-21.333S481.131,469.333,469.333,469.333z"/>
			<path d="M213.333,426.667c0-11.776-9.536-21.333-21.333-21.333s-21.333,9.557-21.333,21.333V448
				c0,11.776,9.536,21.333,21.333,21.333s21.333-9.557,21.333-21.333V426.667z"/>
			<path d="M490.667,384c-11.797,0-21.333,9.557-21.333,21.333v21.333c0,11.776,9.536,21.333,21.333,21.333S512,438.443,512,426.667
				v-21.333C512,393.557,502.464,384,490.667,384z"/>
			<path d="M490.667,170.667c-11.797,0-21.333,9.557-21.333,21.333v21.333c0,11.776,9.536,21.333,21.333,21.333
				S512,225.109,512,213.333V192C512,180.224,502.464,170.667,490.667,170.667z"/>
			<path d="M490.667,277.333c-11.797,0-21.333,9.557-21.333,21.333V320c0,11.776,9.536,21.333,21.333,21.333S512,331.776,512,320
				v-21.333C512,286.891,502.464,277.333,490.667,277.333z"/>
			<path d="M405.333,170.667H384c-11.797,0-21.333,9.557-21.333,21.333s9.536,21.333,21.333,21.333h21.333
				c11.797,0,21.333-9.557,21.333-21.333S417.131,170.667,405.333,170.667z"/>
			<path d="M256,469.333h-21.333c-11.797,0-21.333,9.557-21.333,21.333S222.869,512,234.667,512H256
				c11.797,0,21.333-9.557,21.333-21.333S267.797,469.333,256,469.333z"/>
			<path d="M362.667,469.333h-21.333c-11.797,0-21.333,9.557-21.333,21.333S329.536,512,341.333,512h21.333
				c11.797,0,21.333-9.557,21.333-21.333S374.464,469.333,362.667,469.333z"/>
		</g>
	</g>
</g>
<g>
</g>
<g>
</g>
<g>
</g>
<g>
</g>
<g>
</g>
<g>
</g>
<g>
</g>
<g>
</g>
<g>
</g>
<g>
</g>
<g>
</g>
<g>
</g>
<g>
</g>
<g>
</g>
<g>
</g>
</svg>
