<?xml version="1.0" encoding="iso-8859-1"?>
<!-- Generator: Adobe Illustrator 19.0.0, SVG Export Plug-In . SVG Version: 6.00 Build 0)  -->
<svg version="1.1" id="Layer_1" xmlns="http://www.w3.org/2000/svg" xmlns:xlink="http://www.w3.org/1999/xlink" x="0px" y="0px"
	 viewBox="0 0 512 512" style="enable-background:new 0 0 512 512;" xml:space="preserve">
<g>
	<g>
		<path d="M0,0v512h512V0H0z M188.437,471.104c0,10.795-8.747,19.563-19.541,19.563c-10.816,0-19.563-8.768-19.563-19.563v-19.563
			c0-10.795,8.747-19.541,19.563-19.541c10.795,0,19.541,8.747,19.541,19.541V471.104z M188.437,373.333
			c0,10.795-8.747,19.541-19.541,19.541c-10.816,0-19.563-8.747-19.563-19.541v-19.563c0-10.795,8.747-19.563,19.563-19.563
			c10.795,0,19.541,8.768,19.541,19.563V373.333z M188.437,275.541c0,10.816-8.747,19.563-19.541,19.563
			c-10.816,0-19.563-8.747-19.563-19.563V256c0-10.816,8.747-19.563,19.563-19.563c10.795,0,19.541,8.747,19.541,19.563V275.541z
			 M188.437,177.771c0,10.795-8.747,19.563-19.541,19.563c-10.816,0-19.563-8.768-19.563-19.563v-19.563
			c0-10.795,8.747-19.541,19.563-19.541c10.795,0,19.541,8.747,19.541,19.541V177.771z M188.437,80
			c0,10.795-8.747,19.541-19.541,19.541c-10.816,0-19.563-8.747-19.563-19.541V60.437c0-10.795,8.747-19.563,19.563-19.563
			c10.795,0,19.541,8.768,19.541,19.563V80z M208,40.875c0-10.795,8.747-19.541,19.563-19.541h19.541
			c10.816,0,19.563,8.747,19.563,19.541c0,10.816-8.747,19.563-19.563,19.563h-19.541C216.747,60.437,208,51.691,208,40.875z
			 M266.667,490.667h-19.563c-10.795,0-19.541-8.768-19.541-19.563s8.747-19.563,19.541-19.563h19.563
			c10.816,0,19.563,8.768,19.563,19.563S277.483,490.667,266.667,490.667z M305.771,40.875c0-10.795,8.747-19.541,19.563-19.541
			h19.563c10.795,0,19.541,8.747,19.541,19.541c0,10.816-8.747,19.563-19.541,19.563h-19.563
			C314.517,60.437,305.771,51.691,305.771,40.875z M364.437,490.667h-19.541c-10.816,0-19.563-8.768-19.563-19.563
			s8.747-19.563,19.563-19.563h19.541c10.816,0,19.563,8.768,19.563,19.563S375.253,490.667,364.437,490.667z M384,412.437
			c0,10.795-8.747,19.563-19.563,19.563c-10.795,0-19.541-8.768-19.541-19.563v-19.563c0-10.795,8.747-19.541,19.541-19.541
			c10.816,0,19.563,8.747,19.563,19.541V412.437z M384,314.667c0,10.795-8.747,19.541-19.563,19.541
			c-10.795,0-19.541-8.747-19.541-19.541v-19.563c0-10.795,8.747-19.563,19.541-19.563c10.816,0,19.563,8.768,19.563,19.563V314.667
			z M384,216.875c0,10.816-8.747,19.563-19.563,19.563c-10.795,0-19.541-8.747-19.541-19.563v-19.541
			c0-10.816,8.747-19.563,19.541-19.563c10.816,0,19.563,8.747,19.563,19.563V216.875z M384,119.104
			c0,10.795-8.747,19.563-19.563,19.563c-10.795,0-19.541-8.768-19.541-19.563V99.541c0-10.795,8.747-19.541,19.541-19.541
			C375.253,80,384,88.747,384,99.541V119.104z"/>
	</g>
</g>
<g>
</g>
<g>
</g>
<g>
</g>
<g>
</g>
<g>
</g>
<g>
</g>
<g>
</g>
<g>
</g>
<g>
</g>
<g>
</g>
<g>
</g>
<g>
</g>
<g>
</g>
<g>
</g>
<g>
</g>
</svg>
