<?xml version="1.0" encoding="iso-8859-1"?>
<!-- Generator: Adobe Illustrator 19.0.0, SVG Export Plug-In . SVG Version: 6.00 Build 0)  -->
<svg version="1.1" id="Layer_1" xmlns="http://www.w3.org/2000/svg" xmlns:xlink="http://www.w3.org/1999/xlink" x="0px" y="0px"
	 viewBox="0 0 512.009 512.009" style="enable-background:new 0 0 512.009 512.009;" xml:space="preserve">
<g>
	<g>
		<g>
			<path d="M200.151,203.307c3.904,6.229,10.731,10.027,18.091,10.027c7.339,0,14.187-3.797,18.069-10.027L342.978,32.64
				c4.139-6.571,4.331-14.869,0.597-21.653C339.799,4.203,332.653,0,324.909,0H111.575c-7.765,0-14.912,4.203-18.667,10.987
				c-3.755,6.784-3.541,15.083,0.576,21.653L200.151,203.307z"/>
			<path d="M236.32,308.702c-7.787-12.48-28.373-12.48-36.16,0L93.493,479.369c-4.139,6.571-4.331,14.869-0.597,21.653
				c3.776,6.784,10.923,10.987,18.667,10.987h213.333c7.765,0,14.912-4.203,18.667-10.987c3.755-6.784,3.541-15.083-0.576-21.653
				L236.32,308.702z"/>
			<path d="M218.236,234.671h-21.333c-11.797,0-21.333,9.557-21.333,21.333s9.536,21.333,21.333,21.333h21.333
				c11.797,0,21.333-9.557,21.333-21.333S230.033,234.671,218.236,234.671z"/>
			<path d="M324.902,234.671h-21.333c-11.797,0-21.333,9.557-21.333,21.333s9.536,21.333,21.333,21.333h21.333
				c11.797,0,21.333-9.557,21.333-21.333S336.7,234.671,324.902,234.671z"/>
			<path d="M132.902,256.004c0-11.776-9.536-21.333-21.333-21.333H90.236c-11.797,0-21.333,9.557-21.333,21.333
				s9.536,21.333,21.333,21.333h21.333C123.366,277.338,132.902,267.78,132.902,256.004z"/>
			<path d="M406.568,362.671h-8.832l8.832-8.832c49.685-49.707,48.576-125.76-2.581-176.917c-8.341-8.341-21.845-8.341-30.165,0
				c-8.341,8.341-8.341,21.824,0,30.165c33.963,33.963,35.051,84.075,2.581,116.587l-8.832,8.832v-8.853
				c0-11.776-9.536-21.333-21.333-21.333c-11.797,0-21.333,9.557-21.333,21.333v60.352c0,2.773,0.555,5.547,1.643,8.149
				c2.155,5.227,6.315,9.387,11.541,11.541c2.603,1.067,5.376,1.643,8.149,1.643h60.331c11.797,0,21.333-9.557,21.333-21.333
				S418.366,362.671,406.568,362.671z"/>
		</g>
	</g>
</g>
<g>
</g>
<g>
</g>
<g>
</g>
<g>
</g>
<g>
</g>
<g>
</g>
<g>
</g>
<g>
</g>
<g>
</g>
<g>
</g>
<g>
</g>
<g>
</g>
<g>
</g>
<g>
</g>
<g>
</g>
</svg>
