<?xml version="1.0" encoding="iso-8859-1"?>
<!-- Generator: Adobe Illustrator 19.0.0, SVG Export Plug-In . SVG Version: 6.00 Build 0)  -->
<svg version="1.1" id="Layer_1" xmlns="http://www.w3.org/2000/svg" xmlns:xlink="http://www.w3.org/1999/xlink" x="0px" y="0px"
	 viewBox="0 0 512.021 512.021" style="enable-background:new 0 0 512.021 512.021;" xml:space="preserve">
<g>
	<g>
		<path d="M498.691,159.06C454.937,52.138,347.822-11.116,232.665,1.62C115.054,14.612,20.291,109.375,7.299,226.986
			c-8.043,72.811,15.147,145.621,63.637,199.765c48.533,54.187,118.059,85.269,190.763,85.269h32.704
			c18.795,0,35.925-9.536,45.803-25.515c9.899-16,10.795-35.605,2.368-52.437l-44.032-88.085c-2.069-4.139-1.024-7.787-0.213-9.579
			c0.811-1.813,2.816-5.035,7.253-6.229l125.781-34.325c28.096-7.637,51.563-27.008,64.448-53.141
			C508.697,216.533,509.742,186.068,498.691,159.06z M91.033,266.687c0-17.664,14.336-32,32-32s32,14.336,32,32s-14.336,32-32,32
			S91.033,284.351,91.033,266.687z M165.699,405.354c-17.664,0-32-14.336-32-32c0-17.664,14.336-32,32-32s32,14.336,32,32
			C197.699,391.018,183.363,405.354,165.699,405.354z M165.699,192.02c-17.664,0-32-14.336-32-32s14.336-32,32-32s32,14.336,32,32
			S183.363,192.02,165.699,192.02z M272.366,149.354c-17.664,0-32-14.336-32-32s14.336-32,32-32s32,14.336,32,32
			S290.03,149.354,272.366,149.354z M379.033,213.354c-17.664,0-32-14.336-32-32s14.336-32,32-32c17.664,0,32,14.336,32,32
			S396.697,213.354,379.033,213.354z"/>
	</g>
</g>
<g>
</g>
<g>
</g>
<g>
</g>
<g>
</g>
<g>
</g>
<g>
</g>
<g>
</g>
<g>
</g>
<g>
</g>
<g>
</g>
<g>
</g>
<g>
</g>
<g>
</g>
<g>
</g>
<g>
</g>
</svg>
