<?xml version="1.0" encoding="iso-8859-1"?>
<!-- Generator: Adobe Illustrator 19.0.0, SVG Export Plug-In . SVG Version: 6.00 Build 0)  -->
<svg version="1.1" id="Layer_1" xmlns="http://www.w3.org/2000/svg" xmlns:xlink="http://www.w3.org/1999/xlink" x="0px" y="0px"
	 viewBox="0 0 512 512" style="enable-background:new 0 0 512 512;" xml:space="preserve">
<g>
	<g>
		<g>
			<path d="M256,0C146.539,0,64,45.845,64,106.667v92.907l53.675,87.872c22.208,31.808,78.08,53.888,138.325,53.888
				c60.16,0,116.011-22.059,138.987-54.891L448,218.24V106.667C448,45.845,365.461,0,256,0z M256,170.667
				c-85.483,0-149.333-33.792-149.333-64s63.851-64,149.333-64s149.333,33.792,149.333,64S341.483,170.667,256,170.667z"/>
			<path d="M256,384c-74.731,0-143.04-28.757-174.037-73.259L64,281.365V448c0,60.907,159.936,64,192,64c32.064,0,192-3.093,192-64
				V287.723l-18.709,24.043C398.891,355.307,330.624,384,256,384z"/>
		</g>
	</g>
</g>
<g>
</g>
<g>
</g>
<g>
</g>
<g>
</g>
<g>
</g>
<g>
</g>
<g>
</g>
<g>
</g>
<g>
</g>
<g>
</g>
<g>
</g>
<g>
</g>
<g>
</g>
<g>
</g>
<g>
</g>
</svg>
