<?xml version="1.0" encoding="iso-8859-1"?>
<!-- Generator: Adobe Illustrator 19.0.0, SVG Export Plug-In . SVG Version: 6.00 Build 0)  -->
<svg version="1.1" id="Layer_1" xmlns="http://www.w3.org/2000/svg" xmlns:xlink="http://www.w3.org/1999/xlink" x="0px" y="0px"
	 viewBox="0 0 503.233 503.233" style="enable-background:new 0 0 503.233 503.233;" xml:space="preserve">
<g>
	<g>
		<g>
			<path d="M481.9,396.32h-42.667v-42.667c0-11.776-9.536-21.333-21.333-21.333s-21.333,9.557-21.333,21.333v42.667H353.9
				c-11.797,0-21.333,9.557-21.333,21.333s9.536,21.333,21.333,21.333h42.667v42.667c0,11.776,9.536,21.333,21.333,21.333
				s21.333-9.557,21.333-21.333v-42.667H481.9c11.797,0,21.333-9.557,21.333-21.333S493.697,396.32,481.9,396.32z"/>
			<path d="M364.567,144.716c7.147-4.117,11.264-11.989,10.603-20.203c-0.661-8.235-6.016-15.317-13.717-18.24L80.982,0.247
				l83.861,140.907c9.408-1.835,19.115-1.771,28.672,0.789c16.533,4.416,30.315,15.019,38.869,29.824
				c8.533,14.805,10.816,32.043,6.4,48.555c-4.437,16.512-15.019,30.315-29.824,38.848c-10.048,5.803-21.035,8.576-31.893,8.576
				c-22.123,0-43.691-11.477-55.552-31.979c-13.76-23.893-10.176-52.949,6.571-72.96L47.34,27.127L0.278,314.786
				c-1.323,8.149,2.133,16.32,8.939,21.013c6.741,4.651,15.616,5.035,22.784,0.917c24.704-14.272,53.419-18.048,80.96-10.688
				c27.499,7.36,50.496,25.024,64.747,49.728c2.837,4.907,7.509,8.491,12.971,9.941c1.813,0.491,3.669,0.725,5.504,0.725
				c3.712,0,7.403-0.96,10.667-2.859l110.869-64c10.197-5.888,13.696-18.923,7.808-29.141
				C296.108,239.479,313.622,174.114,364.567,144.716z"/>
			<path d="M182.482,183.153c-1.835-0.491-3.712-0.747-5.568-0.747c-3.669,0-7.275,0.981-10.56,2.859l-0.085,0.043
				c-10.176,5.909-13.653,18.944-7.787,29.12c5.845,10.155,18.88,13.696,29.141,7.808c4.949-2.859,8.469-7.467,9.941-12.949
				c1.472-5.504,0.704-11.264-2.155-16.192v-0.021C192.573,188.145,187.986,184.625,182.482,183.153z"/>
		</g>
	</g>
</g>
<g>
</g>
<g>
</g>
<g>
</g>
<g>
</g>
<g>
</g>
<g>
</g>
<g>
</g>
<g>
</g>
<g>
</g>
<g>
</g>
<g>
</g>
<g>
</g>
<g>
</g>
<g>
</g>
<g>
</g>
</svg>
