<?xml version="1.0" encoding="iso-8859-1"?>
<!-- Generator: Adobe Illustrator 19.0.0, SVG Export Plug-In . SVG Version: 6.00 Build 0)  -->
<svg version="1.1" id="Layer_1" xmlns="http://www.w3.org/2000/svg" xmlns:xlink="http://www.w3.org/1999/xlink" x="0px" y="0px"
	 viewBox="0 0 512.006 512.006" style="enable-background:new 0 0 512.006 512.006;" xml:space="preserve">
<g>
	<g>
		<g>
			<path d="M394.67,21.34h-42.667c-11.797,0-21.333,9.536-21.333,21.333c0,11.797,9.536,21.333,21.333,21.333h42.667
				c11.797,0,21.333-9.536,21.333-21.333C416.003,30.876,406.467,21.34,394.67,21.34z"/>
			<path d="M367.086,91.59c-8.341-8.341-21.824-8.341-30.165,0c-8.341,8.341-8.341,21.824,0,30.165l21.333,21.333
				c4.16,4.16,9.621,6.251,15.083,6.251c5.461,0,10.923-2.091,15.083-6.251c8.341-8.341,8.341-21.824,0-30.165L367.086,91.59z"/>
			<path d="M266.67,172.352V128h21.333c11.797,0,21.333-9.536,21.333-21.333V21.333C309.337,9.557,299.801,0,288.003,0H202.67
				c-11.797,0-21.333,9.557-21.333,21.333v85.333c0,11.797,9.536,21.333,21.333,21.333h21.333v44.352
				c-65.216,9.408-116.885,61.056-126.293,126.315h295.253C383.555,233.408,331.886,181.76,266.67,172.352z"/>
			<path d="M96.003,490.673c0,11.797,9.536,21.333,21.333,21.333h256c11.797,0,21.333-9.536,21.333-21.333V341.34H96.003V490.673z"
				/>
		</g>
	</g>
</g>
<g>
</g>
<g>
</g>
<g>
</g>
<g>
</g>
<g>
</g>
<g>
</g>
<g>
</g>
<g>
</g>
<g>
</g>
<g>
</g>
<g>
</g>
<g>
</g>
<g>
</g>
<g>
</g>
<g>
</g>
</svg>
