<?xml version="1.0" encoding="iso-8859-1"?>
<!-- Generator: Adobe Illustrator 19.0.0, SVG Export Plug-In . SVG Version: 6.00 Build 0)  -->
<svg version="1.1" id="Layer_1" xmlns="http://www.w3.org/2000/svg" xmlns:xlink="http://www.w3.org/1999/xlink" x="0px" y="0px"
	 viewBox="0 0 512 512" style="enable-background:new 0 0 512 512;" xml:space="preserve">
<g>
	<g>
		<g>
			<path d="M490.667,170.667H341.333V21.333C341.333,9.557,331.797,0,320,0H213.333v192c0,11.776-9.536,21.333-21.333,21.333H0V320
				c0,11.776,9.536,21.333,21.333,21.333h149.333v149.333c0,11.776,9.536,21.333,21.333,21.333h298.667
				c11.797,0,21.333-9.557,21.333-21.333V192C512,180.224,502.464,170.667,490.667,170.667z M469.333,469.333h-256v-128H320
				c11.797,0,21.333-9.557,21.333-21.333V213.333h128V469.333z"/>
			<path d="M170.667,0H21.333C9.536,0,0,9.557,0,21.333v149.333h170.667V0z"/>
		</g>
	</g>
</g>
<g>
</g>
<g>
</g>
<g>
</g>
<g>
</g>
<g>
</g>
<g>
</g>
<g>
</g>
<g>
</g>
<g>
</g>
<g>
</g>
<g>
</g>
<g>
</g>
<g>
</g>
<g>
</g>
<g>
</g>
</svg>
