<?xml version="1.0" encoding="iso-8859-1"?>
<!-- Generator: Adobe Illustrator 19.0.0, SVG Export Plug-In . SVG Version: 6.00 Build 0)  -->
<svg version="1.1" id="Layer_1" xmlns="http://www.w3.org/2000/svg" xmlns:xlink="http://www.w3.org/1999/xlink" x="0px" y="0px"
	 viewBox="0 0 512 512" style="enable-background:new 0 0 512 512;" xml:space="preserve">
<g>
	<g>
		<g>
			<path d="M106.667,330.667H86.763c0.683-5.483,1.515-10.944,2.709-16.299c2.581-11.499-4.629-22.912-16.128-25.493
				c-11.605-2.603-22.912,4.629-25.493,16.128c-1.899,8.427-3.157,17.003-4.011,25.664H21.333C9.536,330.667,0,340.224,0,352v85.333
				c0,11.776,9.536,21.333,21.333,21.333h85.333c11.797,0,21.333-9.557,21.333-21.333V352
				C128,340.224,118.464,330.667,106.667,330.667z"/>
			<path d="M320,138.667h112.576C439.979,151.36,453.589,160,469.333,160C492.907,160,512,140.907,512,117.333
				c0-23.573-19.093-42.667-42.667-42.667c-15.744,0-29.355,8.64-36.757,21.333H320V74.667c0-11.776-9.536-21.333-21.333-21.333
				h-85.333c-11.797,0-21.333,9.557-21.333,21.333V96H79.424c-7.403-12.693-21.013-21.333-36.757-21.333
				C19.093,74.667,0,93.76,0,117.333C0,140.907,19.093,160,42.667,160c15.744,0,29.355-8.64,36.757-21.333H192v16.939
				c-2.304,4.416-3.285,9.536-2.027,14.763c2.368,9.771,11.093,16.32,20.715,16.32c1.664,0,3.328-0.171,5.013-0.576
				c12.224-2.965,24.853-4.544,37.589-4.757c0.043,0,0.064-0.021,0.107-0.021h5.205c0.043,0,0.064,0.021,0.107,0.021
				c12.736,0.213,25.365,1.792,37.589,4.757c1.685,0.405,3.349,0.576,5.013,0.576c9.621,0,18.347-6.549,20.715-16.32
				c1.259-5.227,0.277-10.347-2.027-14.763V138.667z"/>
			<path d="M490.667,330.667H468.16c-0.853-8.661-2.112-17.237-4.011-25.664c-2.581-11.499-13.931-18.752-25.493-16.128
				c-11.499,2.581-18.709,13.995-16.128,25.493c1.195,5.355,2.027,10.816,2.709,16.299h-19.904C393.536,330.667,384,340.224,384,352
				v85.333c0,11.776,9.536,21.333,21.333,21.333h85.333c11.797,0,21.333-9.557,21.333-21.333V352
				C512,340.224,502.464,330.667,490.667,330.667z"/>
			<path d="M121.417,186.406c-12.224,9.963-23.381,21.312-33.131,33.685c-7.296,9.259-5.696,22.677,3.541,29.952
				c3.925,3.093,8.576,4.587,13.184,4.587c6.315,0,12.565-2.795,16.789-8.149c7.829-9.899,16.768-19.008,26.581-26.987
				c9.109-7.445,10.496-20.885,3.051-30.016C144.009,180.369,130.611,178.982,121.417,186.406z"/>
			<path d="M406.978,254.624c4.608,0,9.28-1.493,13.184-4.565c9.259-7.296,10.837-20.715,3.541-29.973
				c-9.749-12.373-20.885-23.701-33.131-33.685c-9.131-7.424-22.549-6.037-30.016,3.072c-7.424,9.131-6.059,22.571,3.072,30.016
				c9.813,8,18.752,17.088,26.581,27.008C394.413,251.829,400.663,254.624,406.978,254.624z"/>
		</g>
	</g>
</g>
<g>
</g>
<g>
</g>
<g>
</g>
<g>
</g>
<g>
</g>
<g>
</g>
<g>
</g>
<g>
</g>
<g>
</g>
<g>
</g>
<g>
</g>
<g>
</g>
<g>
</g>
<g>
</g>
<g>
</g>
</svg>
