<?xml version="1.0" encoding="iso-8859-1"?>
<!-- Generator: Adobe Illustrator 19.0.0, SVG Export Plug-In . SVG Version: 6.00 Build 0)  -->
<svg version="1.1" id="Layer_1" xmlns="http://www.w3.org/2000/svg" xmlns:xlink="http://www.w3.org/1999/xlink" x="0px" y="0px"
	 viewBox="0 0 330 330" style="enable-background:new 0 0 330 330;" xml:space="preserve">
<g id="XMLID_226_">
	<path id="XMLID_227_" d="M55,330h54.979v-30v-35.002c0-8.284,6.716-15,15-15s15,6.716,15,15V300v30h50v-30v-35.002
		c0-8.284,6.716-15,15-15s15,6.716,15,15V300v30H275c8.284,0,15-6.716,15-15v-85.004h-30H70H40V315C40,323.284,46.716,330,55,330z"
		/>
	<path id="XMLID_228_" d="M290,135c0-8.284-6.716-15-15-15h-55.021V55.428C219.979,24.865,195.315,0,165,0
		c-30.314,0-54.978,24.865-54.978,55.428V120H55c-8.284,0-15,6.716-15,15v64.996h250V135z"/>
</g>
<g>
</g>
<g>
</g>
<g>
</g>
<g>
</g>
<g>
</g>
<g>
</g>
<g>
</g>
<g>
</g>
<g>
</g>
<g>
</g>
<g>
</g>
<g>
</g>
<g>
</g>
<g>
</g>
<g>
</g>
</svg>
