<?xml version="1.0" encoding="iso-8859-1"?>
<!-- Generator: Adobe Illustrator 19.0.0, SVG Export Plug-In . SVG Version: 6.00 Build 0)  -->
<svg version="1.1" id="Layer_1" xmlns="http://www.w3.org/2000/svg" xmlns:xlink="http://www.w3.org/1999/xlink" x="0px" y="0px"
	 viewBox="0 0 300 300" style="enable-background:new 0 0 300 300;" xml:space="preserve">
<g id="XMLID_222_">
	<path id="XMLID_223_" d="M255,60h-90v45c0,24.813-20.187,45-45,45s-45-20.187-45-45V60H45v45c0,57.897,47.102,105,105,105
		s105-47.103,105-105V60z"/>
	<path id="XMLID_224_" d="M45,189.749V285c0,8.284,6.716,15,15,15h180c8.284,0,15-6.716,15-15v-95.251
		C230.23,220.377,192.367,240,150,240S69.769,220.377,45,189.749z"/>
	<path id="XMLID_225_" d="M285,15c0-8.271-6.729-15-15-15H30c-8.272,0-15,6.729-15,15s6.728,15,15,15h29.99H90
		c8.284,0,15,6.716,15,15v60c0,8.271,6.728,15,15,15s15-6.729,15-15V45c0-8.284,6.716-15,15-15h90.01H270
		C278.271,30,285,23.271,285,15z"/>
</g>
<g>
</g>
<g>
</g>
<g>
</g>
<g>
</g>
<g>
</g>
<g>
</g>
<g>
</g>
<g>
</g>
<g>
</g>
<g>
</g>
<g>
</g>
<g>
</g>
<g>
</g>
<g>
</g>
<g>
</g>
</svg>
