<?xml version="1.0" encoding="iso-8859-1"?>
<!-- Generator: Adobe Illustrator 19.0.0, SVG Export Plug-In . SVG Version: 6.00 Build 0)  -->
<svg version="1.1" id="Layer_1" xmlns="http://www.w3.org/2000/svg" xmlns:xlink="http://www.w3.org/1999/xlink" x="0px" y="0px"
	 viewBox="0 0 325.18 325.18" style="enable-background:new 0 0 325.18 325.18;" xml:space="preserve">
<g id="XMLID_71_">
	<path id="XMLID_85_" d="M239.217,14.749l-23.002,23.002l71.213,71.214l23.002-23.001c9.513-9.511,14.751-22.156,14.75-35.608
		c0-13.449-5.237-26.096-14.748-35.605c-9.511-9.512-22.156-14.749-35.606-14.749C261.375,0.001,248.73,5.238,239.217,14.749z"/>
	<path id="XMLID_86_" d="M196.877,203.265l22.519,22.52c2.929,2.929,6.768,4.394,10.606,4.393c3.839,0.001,7.678-1.463,10.606-4.393
		l50.001-50c5.857-5.857,5.857-15.355,0-21.213l-22.515-22.513l-1.698-1.699l-0.182-0.181l-71.213-71.214v0.001L170.609,34.57
		c-5.858-5.858-15.357-5.858-21.213,0l-50.001,50c-5.858,5.858-5.858,15.355,0,21.214l24.393,24.392l-0.001,0.001L196.877,203.265z"
		/>
	<path id="XMLID_87_" d="M15.002,325.178L65,325.179c3.979-0.001,7.794-1.58,10.606-4.395l98.183-98.182l-71.215-71.213
		l-98.18,98.182C1.58,252.385,0,256.2,0,260.179l0.002,49.999C0.002,318.462,6.718,325.178,15.002,325.178z"/>
</g>
<g>
</g>
<g>
</g>
<g>
</g>
<g>
</g>
<g>
</g>
<g>
</g>
<g>
</g>
<g>
</g>
<g>
</g>
<g>
</g>
<g>
</g>
<g>
</g>
<g>
</g>
<g>
</g>
<g>
</g>
</svg>
