<?xml version="1.0" encoding="iso-8859-1"?>
<!-- Generator: Adobe Illustrator 19.0.0, SVG Export Plug-In . SVG Version: 6.00 Build 0)  -->
<svg version="1.1" id="Layer_1" xmlns="http://www.w3.org/2000/svg" xmlns:xlink="http://www.w3.org/1999/xlink" x="0px" y="0px"
	 viewBox="0 0 330.001 330.001" style="enable-background:new 0 0 330.001 330.001;" xml:space="preserve">
<g id="XMLID_238_">
	<path id="XMLID_239_" d="M215.608,4.394c-5.858-5.859-15.356-5.859-21.213,0l-28.787,28.787
		c-5.856,5.855-5.858,15.347-0.007,21.206l37.357,37.356l57.955,57.955l14.693,14.695c2.93,2.93,6.769,4.393,10.607,4.394
		c3.839-0.001,7.678-1.465,10.605-4.394l28.787-28.787c5.858-5.858,5.859-15.355,0-21.213L215.608,4.394z"/>
	<path id="XMLID_240_" d="M13.786,294.999l21.213-21.213l79.153-79.164c5.857-5.858,15.355-5.859,21.214-0.002
		c5.857,5.858,5.857,15.355,0,21.214l-79.152,79.165L35,316.213l9.394,9.394c2.877,2.875,6.715,4.394,10.611,4.395
		c2.125,0,4.267-0.453,6.281-1.381l130-60c3.267-1.507,5.882-4.138,7.369-7.413l41.045-90.296l-57.955-57.955l-22.656-22.654
		l-90.295,41.043c-3.275,1.488-5.906,4.103-7.412,7.37l-60,130c-2.635,5.705-1.432,12.449,3.013,16.892L13.786,294.999z"/>
</g>
<g>
</g>
<g>
</g>
<g>
</g>
<g>
</g>
<g>
</g>
<g>
</g>
<g>
</g>
<g>
</g>
<g>
</g>
<g>
</g>
<g>
</g>
<g>
</g>
<g>
</g>
<g>
</g>
<g>
</g>
</svg>
