<?xml version="1.0" encoding="iso-8859-1"?>
<!-- Generator: Adobe Illustrator 19.0.0, SVG Export Plug-In . SVG Version: 6.00 Build 0)  -->
<svg version="1.1" id="Layer_1" xmlns="http://www.w3.org/2000/svg" xmlns:xlink="http://www.w3.org/1999/xlink" x="0px" y="0px"
	 viewBox="0 0 329.998 329.998" style="enable-background:new 0 0 329.998 329.998;" xml:space="preserve">
<g id="XMLID_88_">
	<path id="XMLID_89_" d="M123.786,134.998l-39.394,39.394c-2.813,2.812-4.394,6.629-4.394,10.607c0,3.978,1.58,7.793,4.394,10.605
		l50,50c2.813,2.814,6.628,4.394,10.606,4.394c3.978-0.001,7.794-1.582,10.606-4.394l39.394-39.394L123.786,134.998z"/>
	<path id="XMLID_90_" d="M275.605,4.393c-5.858-5.857-15.355-5.858-21.214,0.001L144.999,113.786l71.212,71.212L325.604,75.603
		c2.813-2.812,4.393-6.627,4.393-10.606c0-3.979-1.58-7.793-4.393-10.607L275.605,4.393z"/>
	<path id="XMLID_91_" d="M71.242,140.398l-14.938-14.937c-5.857-5.857-15.354-5.858-21.213,0c-5.858,5.858-5.857,15.355,0,21.213
		l14.938,14.937c2.929,2.929,6.768,4.393,10.606,4.394c3.838,0,7.678-1.464,10.606-4.394
		C77.101,155.753,77.1,146.256,71.242,140.398z"/>
	<path id="XMLID_92_" d="M189.599,258.755c-5.859-5.857-15.355-5.857-21.213,0.001c-5.857,5.858-5.856,15.355,0.001,21.213
		l14.938,14.937c2.93,2.929,6.768,4.393,10.606,4.392c3.838,0,7.678-1.464,10.606-4.392c5.857-5.858,5.856-15.355,0-21.214
		L189.599,258.755z"/>
	<path id="XMLID_93_" d="M51.123,210.184c0.001-8.284-6.715-15.001-14.999-15L15,195.183c-8.285,0-15,6.716-15,15.001
		c0,8.284,6.715,15,15,15l21.123,0C44.408,225.184,51.123,218.468,51.123,210.184z"/>
	<path id="XMLID_102_" d="M119.815,278.873l-0.002,0.001c-8.282,0-15,6.715-15,15v21.123c-0.001,8.285,6.715,15.001,14.999,15.001
		l0.001,0c8.282,0,14.999-6.716,14.999-15l0.002-21.124C134.814,285.59,128.1,278.874,119.815,278.873z"/>
	<path id="XMLID_103_" d="M45.698,299.299c3.838,0,7.677-1.464,10.605-4.393l14.939-14.937c5.856-5.857,5.857-15.355,0-21.212
		c-5.858-5.858-15.355-5.859-21.213-0.001l-14.938,14.937c-5.858,5.858-5.858,15.354-0.002,21.213
		C38.02,297.835,41.858,299.298,45.698,299.299z"/>
</g>
<g>
</g>
<g>
</g>
<g>
</g>
<g>
</g>
<g>
</g>
<g>
</g>
<g>
</g>
<g>
</g>
<g>
</g>
<g>
</g>
<g>
</g>
<g>
</g>
<g>
</g>
<g>
</g>
<g>
</g>
</svg>
