<?xml version="1.0" encoding="iso-8859-1"?>
<!-- Generator: Adobe Illustrator 19.0.0, SVG Export Plug-In . SVG Version: 6.00 Build 0)  -->
<svg version="1.1" id="Layer_1" xmlns="http://www.w3.org/2000/svg" xmlns:xlink="http://www.w3.org/1999/xlink" x="0px" y="0px"
	 viewBox="0 0 330 330" style="enable-background:new 0 0 330 330;" xml:space="preserve">
<g id="XMLID_104_">
	<path id="XMLID_105_" d="M165,210h146.996c7.134,0,13.28-5.024,14.7-12.015C328.889,187.19,330,176.093,330,165
		C330,74.019,255.981,0,165,0S0,74.019,0,165s74.019,165,165,165c24.814,0,45-20.187,45-45s-20.186-45-45-45
		c-8.271,0-15-6.729-15-15S156.729,210,165,210z M226.413,81.088c12.427,0,22.501,10.074,22.5,22.5
		c0.001,12.426-10.073,22.5-22.5,22.5c-12.426,0-22.5-10.074-22.499-22.5C203.914,91.162,213.987,81.087,226.413,81.088z
		 M119.499,119.497c-8.787,8.787-23.033,8.787-31.819,0c-8.787-8.787-8.787-23.033,0-31.82c8.786-8.787,23.032-8.787,31.819,0
		C128.285,96.464,128.286,110.71,119.499,119.497z M142.502,78.149c0-12.425,10.074-22.5,22.5-22.5
		c12.426,0,22.5,10.074,22.499,22.5c0.001,12.425-10.073,22.5-22.499,22.499C152.576,100.65,142.502,90.576,142.502,78.149z"/>
</g>
<g>
</g>
<g>
</g>
<g>
</g>
<g>
</g>
<g>
</g>
<g>
</g>
<g>
</g>
<g>
</g>
<g>
</g>
<g>
</g>
<g>
</g>
<g>
</g>
<g>
</g>
<g>
</g>
<g>
</g>
</svg>
