<?xml version="1.0" encoding="iso-8859-1"?>
<!-- Generator: Adobe Illustrator 19.0.0, SVG Export Plug-In . SVG Version: 6.00 Build 0)  -->
<svg version="1.1" id="Layer_1" xmlns="http://www.w3.org/2000/svg" xmlns:xlink="http://www.w3.org/1999/xlink" x="0px" y="0px"
	 viewBox="0 0 330 330" style="enable-background:new 0 0 330 330;" xml:space="preserve">
<g id="XMLID_2_">
	<path id="XMLID_4_" d="M145,100c0,27.57,22.43,50,50,50s50-22.43,50-50s-22.43-50-50-50S145,72.43,145,100z"/>
	<path id="XMLID_5_" d="M212.58,30c-1.665-4.695-2.58-9.741-2.58-15s0.915-10.305,2.58-15h-95.16c1.665,4.695,2.58,9.741,2.58,15
		s-0.915,10.305-2.58,15H212.58z"/>
	<path id="XMLID_6_" d="M300,117.42v92.216l-32.957-44.388c-2.829-3.812-7.296-6.059-12.043-6.059
		c-4.747,0-9.214,2.247-12.043,6.059l-47.531,64.016l-78.093-112.802C114.531,112.415,109.922,110,105,110
		c-4.922,0-9.531,2.415-12.333,6.462L30,206.98V117.42c-4.695,1.665-9.742,2.58-15,2.58c-5.258,0-10.305-0.915-15-2.58v95.16
		c4.695-1.665,9.742-2.58,15-2.58c24.812,0,45,20.186,45,45v15h15c24.812,0,45,20.186,45,45c0,5.259-0.915,10.305-2.58,15h95.16
		c-1.665-4.695-2.58-9.741-2.58-15c0-24.814,20.187-45,45-45h15v-15c0-24.814,20.188-45,45-45c5.258,0,10.305,0.915,15,2.58v-95.16
		c-4.695,1.665-9.742,2.58-15,2.58C309.742,120,304.695,119.085,300,117.42z"/>
	<path id="XMLID_7_" d="M315,0h-60c-8.284,0-15,6.716-15,15s6.716,15,15,15h45v45c0,8.284,6.716,15,15,15c8.284,0,15-6.716,15-15V15
		C330,6.716,323.284,0,315,0z"/>
	<path id="XMLID_8_" d="M75,300H30v-45c0-8.284-6.716-15-15-15s-15,6.716-15,15v60c0,8.284,6.716,15,15,15h60
		c8.284,0,15-6.716,15-15S83.284,300,75,300z"/>
	<path id="XMLID_9_" d="M315,240c-8.284,0-15,6.716-15,15v45h-45c-8.284,0-15,6.716-15,15s6.716,15,15,15h60c8.284,0,15-6.716,15-15
		v-60C330,246.716,323.284,240,315,240z"/>
	<path id="XMLID_10_" d="M15,90c8.284,0,15-6.716,15-15V30h45c8.284,0,15-6.716,15-15S83.284,0,75,0H15C6.716,0,0,6.716,0,15v60
		C0,83.284,6.716,90,15,90z"/>
</g>
<g>
</g>
<g>
</g>
<g>
</g>
<g>
</g>
<g>
</g>
<g>
</g>
<g>
</g>
<g>
</g>
<g>
</g>
<g>
</g>
<g>
</g>
<g>
</g>
<g>
</g>
<g>
</g>
<g>
</g>
</svg>
