<?xml version="1.0" encoding="iso-8859-1"?>
<!-- Generator: Adobe Illustrator 19.0.0, SVG Export Plug-In . SVG Version: 6.00 Build 0)  -->
<svg version="1.1" id="Layer_1" xmlns="http://www.w3.org/2000/svg" xmlns:xlink="http://www.w3.org/1999/xlink" x="0px" y="0px"
	 viewBox="0 0 512 512" style="enable-background:new 0 0 512 512;" xml:space="preserve">
<g>
	<g>
		<path d="M435.2,358.4c-18.108,0-34.739,6.332-47.881,16.853l-59.23-59.23c13.576-16.282,21.777-37.205,21.777-60.023
			c0-23.552-8.781-45.047-23.159-61.542l73.566-73.591c11.81,9.779,26.965,15.667,43.46,15.667
			c37.641,0,68.267-30.626,68.267-68.267C512,30.626,481.374,0,443.733,0c-37.641,0-68.267,30.626-68.267,68.267
			c0,15.002,4.924,28.843,13.158,40.115l-74.231,74.249c-16.051-12.792-36.326-20.497-58.394-20.497
			c-22.878,0-43.844,8.243-60.151,21.896l-88.03-89.011c7.287-9.899,11.648-22.076,11.648-35.285C119.467,26.795,92.663,0,59.733,0
			S0,26.795,0,59.733s26.803,59.733,59.733,59.733c13.585,0,26.078-4.608,36.122-12.271l87.945,88.909
			c-13.517,16.265-21.666,37.146-21.666,59.895c0,22.81,8.192,43.733,21.777,60.023l-44.612,44.612
			c-14.711-12.049-33.502-19.302-53.965-19.302C38.281,341.333,0,379.614,0,426.667S38.281,512,85.333,512
			c47.053,0,85.333-38.281,85.333-85.333c0-20.463-7.253-39.245-19.294-53.965l44.604-44.612
			c16.29,13.576,37.214,21.777,60.023,21.777c22.81,0,43.733-8.192,60.023-21.777l59.23,59.23
			C364.732,400.461,358.4,417.092,358.4,435.2c0,42.342,34.449,76.8,76.8,76.8s76.8-34.458,76.8-76.8S477.551,358.4,435.2,358.4z
			 M443.733,34.133c4.719,0,8.533,3.823,8.533,8.533c0,4.71-3.814,8.533-8.533,8.533c-9.412,0-17.067,7.654-17.067,17.067
			c0,4.71-3.814,8.533-8.533,8.533s-8.533-3.823-8.533-8.533C409.6,49.442,424.909,34.133,443.733,34.133z M59.733,51.2
			c-4.71,0-8.533,3.831-8.533,8.533c0,4.71-3.814,8.533-8.533,8.533s-8.533-3.823-8.533-8.533c0-14.114,11.486-25.6,25.6-25.6
			c4.719,0,8.533,3.823,8.533,8.533C68.267,47.377,64.452,51.2,59.733,51.2z M85.333,392.533c-18.825,0-34.133,15.309-34.133,34.133
			c0,4.71-3.814,8.533-8.533,8.533s-8.533-3.823-8.533-8.533c0-28.237,22.963-51.2,51.2-51.2c4.719,0,8.533,3.823,8.533,8.533
			S90.052,392.533,85.333,392.533z M256,213.333c-23.526,0-42.667,19.14-42.667,42.667c0,4.71-3.814,8.533-8.533,8.533
			s-8.533-3.823-8.533-8.533c0-32.939,26.803-59.733,59.733-59.733c4.719,0,8.533,3.823,8.533,8.533
			C264.533,209.51,260.719,213.333,256,213.333z M435.2,409.6c-14.114,0-25.6,11.486-25.6,25.6c0,4.71-3.814,8.533-8.533,8.533
			c-4.719,0-8.533-3.823-8.533-8.533c0-23.526,19.14-42.667,42.667-42.667c4.719,0,8.533,3.823,8.533,8.533
			S439.919,409.6,435.2,409.6z"/>
	</g>
</g>
<g>
</g>
<g>
</g>
<g>
</g>
<g>
</g>
<g>
</g>
<g>
</g>
<g>
</g>
<g>
</g>
<g>
</g>
<g>
</g>
<g>
</g>
<g>
</g>
<g>
</g>
<g>
</g>
<g>
</g>
</svg>
