<?xml version="1.0" encoding="iso-8859-1"?>
<!-- Generator: Adobe Illustrator 19.0.0, SVG Export Plug-In . SVG Version: 6.00 Build 0)  -->
<svg version="1.1" id="Layer_1" xmlns="http://www.w3.org/2000/svg" xmlns:xlink="http://www.w3.org/1999/xlink" x="0px" y="0px"
	 viewBox="0 0 512 512" style="enable-background:new 0 0 512 512;" xml:space="preserve">
<g>
	<g>
		<path d="M460.8,393.216V246.784c28.894-4.164,51.2-29.022,51.2-59.051C512,154.795,485.197,128,452.267,128
			c-30.029,0-54.886,22.298-59.051,51.2H332.8v-60.416c28.894-4.164,51.2-29.022,51.2-59.051C384,26.795,357.197,0,324.267,0
			c-30.029,0-54.886,22.298-59.051,51.2H118.784C114.62,22.298,89.762,0,59.733,0C26.803,0,0,26.795,0,59.733
			c0,30.029,22.306,54.886,51.2,59.051v146.432C22.306,269.38,0,294.238,0,324.267C0,357.205,26.803,384,59.733,384
			c30.029,0,54.886-22.298,59.051-51.2H179.2v60.416c-28.894,4.164-51.2,29.022-51.2,59.051C128,485.205,154.803,512,187.733,512
			c30.029,0,54.886-22.298,59.051-51.2h146.432c4.164,28.902,29.022,51.2,59.051,51.2c32.93,0,59.733-26.795,59.733-59.733
			C512,422.238,489.694,397.38,460.8,393.216z M452.267,162.133c4.719,0,8.533,3.823,8.533,8.533s-3.814,8.533-8.533,8.533
			c-4.71,0-8.533,3.831-8.533,8.533c0,4.71-3.814,8.533-8.533,8.533s-8.533-3.823-8.533-8.533
			C426.667,173.619,438.153,162.133,452.267,162.133z M324.267,34.133c4.719,0,8.533,3.823,8.533,8.533
			c0,4.71-3.814,8.533-8.533,8.533c-4.71,0-8.533,3.831-8.533,8.533c0,4.71-3.814,8.533-8.533,8.533s-8.533-3.823-8.533-8.533
			C298.667,45.619,310.153,34.133,324.267,34.133z M196.267,246.861c0.333-0.051,0.64-0.171,0.964-0.222
			c2.884-0.461,5.709-1.075,8.439-1.937c0.171-0.051,0.324-0.128,0.495-0.179c2.628-0.853,5.154-1.92,7.612-3.115
			c0.461-0.23,0.93-0.435,1.391-0.674c2.449-1.271,4.787-2.705,7.023-4.292c0.452-0.324,0.879-0.657,1.323-0.99
			c2.253-1.698,4.429-3.49,6.417-5.478c0.017-0.017,0.034-0.034,0.051-0.051c1.98-1.988,3.78-4.164,5.47-6.409
			c0.333-0.444,0.674-0.879,0.99-1.331c1.587-2.227,3.021-4.565,4.292-7.006c0.239-0.469,0.452-0.947,0.683-1.425
			c1.195-2.449,2.253-4.966,3.106-7.586c0.06-0.171,0.128-0.324,0.179-0.495c0.862-2.731,1.476-5.564,1.937-8.439
			c0.051-0.333,0.171-0.631,0.222-0.964h68.872v68.873c-0.333,0.051-0.64,0.171-0.964,0.222c-2.884,0.469-5.709,1.075-8.44,1.937
			c-0.171,0.051-0.324,0.128-0.495,0.179c-2.628,0.853-5.154,1.92-7.612,3.115c-0.461,0.23-0.93,0.435-1.391,0.674
			c-2.449,1.271-4.787,2.705-7.014,4.292c-0.461,0.316-0.887,0.657-1.331,0.998c-2.253,1.69-4.429,3.482-6.417,5.47
			c-0.017,0.017-0.034,0.034-0.051,0.051c-1.98,1.988-3.78,4.156-5.47,6.409c-0.333,0.444-0.674,0.879-0.998,1.331
			c-1.579,2.227-3.012,4.565-4.284,7.006c-0.239,0.469-0.452,0.947-0.683,1.425c-1.195,2.449-2.253,4.966-3.106,7.586
			c-0.06,0.171-0.128,0.324-0.179,0.495c-0.862,2.731-1.476,5.555-1.937,8.44c-0.051,0.324-0.171,0.631-0.222,0.964h-68.873V246.861
			z M187.733,179.2c-4.71,0-8.533,3.831-8.533,8.533c0,4.71-3.814,8.533-8.533,8.533s-8.533-3.823-8.533-8.533
			c0-14.114,11.486-25.6,25.6-25.6c4.719,0,8.533,3.823,8.533,8.533S192.452,179.2,187.733,179.2z M324.267,298.667
			c4.719,0,8.533,3.823,8.533,8.533s-3.814,8.533-8.533,8.533c-4.71,0-8.533,3.831-8.533,8.533c0,4.71-3.814,8.533-8.533,8.533
			s-8.533-3.823-8.533-8.533C298.667,310.153,310.153,298.667,324.267,298.667z M42.667,68.267c-4.719,0-8.533-3.823-8.533-8.533
			c0-14.114,11.486-25.6,25.6-25.6c4.719,0,8.533,3.823,8.533,8.533c0,4.71-3.814,8.533-8.533,8.533
			c-4.71,0-8.533,3.831-8.533,8.533C51.2,64.444,47.386,68.267,42.667,68.267z M59.733,315.733c-4.71,0-8.533,3.831-8.533,8.533
			c0,4.71-3.814,8.533-8.533,8.533s-8.533-3.823-8.533-8.533c0-14.114,11.486-25.6,25.6-25.6c4.719,0,8.533,3.823,8.533,8.533
			S64.452,315.733,59.733,315.733z M118.861,315.733c-0.051-0.333-0.171-0.631-0.222-0.964c-0.461-2.876-1.075-5.709-1.937-8.44
			c-0.051-0.171-0.119-0.324-0.179-0.495c-0.853-2.62-1.911-5.137-3.106-7.586c-0.23-0.478-0.444-0.956-0.683-1.425
			c-1.271-2.441-2.705-4.779-4.292-7.006c-0.316-0.452-0.657-0.887-0.99-1.331c-1.69-2.244-3.49-4.42-5.47-6.409
			c-0.017-0.017-0.034-0.034-0.051-0.051c-1.988-1.988-4.164-3.78-6.417-5.478c-0.444-0.333-0.87-0.666-1.323-0.99
			c-2.236-1.587-4.574-3.021-7.023-4.292c-0.461-0.239-0.93-0.444-1.391-0.674c-2.458-1.195-4.984-2.261-7.612-3.115
			c-0.171-0.051-0.324-0.128-0.495-0.179c-2.731-0.862-5.555-1.476-8.439-1.937c-0.324-0.051-0.631-0.171-0.964-0.222V118.861
			c0.333-0.051,0.64-0.171,0.964-0.222c2.884-0.461,5.709-1.075,8.439-1.937c0.171-0.051,0.324-0.128,0.495-0.179
			c2.628-0.853,5.154-1.92,7.612-3.115c0.461-0.23,0.93-0.435,1.391-0.674c2.449-1.271,4.787-2.705,7.023-4.292
			c0.452-0.324,0.879-0.657,1.323-0.99c2.253-1.698,4.429-3.49,6.417-5.478c0.017-0.017,0.034-0.034,0.051-0.051
			c1.98-1.988,3.78-4.164,5.47-6.409c0.333-0.444,0.674-0.879,0.99-1.331c1.587-2.227,3.021-4.565,4.292-7.006
			c0.239-0.469,0.452-0.947,0.683-1.425c1.195-2.449,2.253-4.966,3.106-7.586c0.06-0.171,0.128-0.324,0.179-0.495
			c0.862-2.731,1.476-5.564,1.937-8.439c0.051-0.333,0.171-0.631,0.222-0.964h146.278c0.051,0.333,0.171,0.64,0.222,0.964
			c0.461,2.884,1.075,5.709,1.937,8.439c0.051,0.171,0.119,0.324,0.179,0.495c0.853,2.62,1.911,5.137,3.106,7.586
			c0.23,0.478,0.444,0.956,0.683,1.425c1.271,2.441,2.705,4.779,4.284,7.006c0.324,0.452,0.666,0.888,0.998,1.331
			c1.69,2.253,3.49,4.42,5.47,6.409c0.017,0.017,0.034,0.034,0.051,0.051c1.988,1.988,4.164,3.78,6.417,5.47
			c0.444,0.341,0.87,0.683,1.331,0.998c2.227,1.587,4.565,3.021,7.014,4.292c0.461,0.239,0.93,0.444,1.391,0.674
			c2.458,1.195,4.983,2.261,7.612,3.115c0.171,0.051,0.324,0.128,0.495,0.179c2.731,0.862,5.555,1.468,8.44,1.937
			c0.324,0.051,0.631,0.171,0.964,0.222V179.2h-68.949c-4.164-28.902-29.022-51.2-59.051-51.2C154.803,128,128,154.795,128,187.733
			c0,30.029,22.306,54.886,51.2,59.051v68.949H118.861z M187.733,443.733c-4.71,0-8.533,3.831-8.533,8.533
			c0,4.71-3.814,8.533-8.533,8.533s-8.533-3.823-8.533-8.533c0-14.114,11.486-25.6,25.6-25.6c4.719,0,8.533,3.823,8.533,8.533
			S192.452,443.733,187.733,443.733z M424.832,399.266c-2.449,1.271-4.787,2.705-7.014,4.292c-0.461,0.316-0.887,0.657-1.331,0.998
			c-2.253,1.69-4.429,3.482-6.417,5.47c-0.017,0.017-0.034,0.034-0.051,0.051c-1.98,1.988-3.78,4.156-5.47,6.409
			c-0.333,0.444-0.674,0.879-0.998,1.331c-1.579,2.227-3.012,4.565-4.284,7.006c-0.239,0.469-0.452,0.947-0.683,1.425
			c-1.195,2.449-2.253,4.966-3.106,7.586c-0.06,0.171-0.128,0.324-0.179,0.495c-0.862,2.731-1.476,5.555-1.937,8.44
			c-0.051,0.324-0.171,0.631-0.222,0.964H246.861c-0.051-0.333-0.171-0.631-0.222-0.964c-0.461-2.876-1.075-5.709-1.937-8.44
			c-0.051-0.171-0.12-0.324-0.179-0.495c-0.853-2.62-1.911-5.137-3.106-7.586c-0.23-0.478-0.444-0.956-0.683-1.425
			c-1.271-2.441-2.705-4.779-4.292-7.006c-0.316-0.452-0.657-0.887-0.99-1.331c-1.69-2.244-3.49-4.42-5.47-6.409
			c-0.017-0.017-0.034-0.034-0.051-0.051c-1.988-1.988-4.164-3.78-6.417-5.478c-0.444-0.333-0.87-0.666-1.323-0.99
			c-2.236-1.587-4.574-3.021-7.023-4.292c-0.461-0.239-0.93-0.444-1.391-0.674c-2.458-1.195-4.983-2.261-7.612-3.115
			c-0.171-0.051-0.324-0.128-0.495-0.179c-2.731-0.862-5.555-1.476-8.439-1.937c-0.324-0.051-0.631-0.171-0.964-0.222V332.8h68.949
			c4.164,28.902,29.022,51.2,59.051,51.2c32.93,0,59.733-26.795,59.733-59.733c0-30.029-22.306-54.886-51.2-59.051v-68.949h60.339
			c0.051,0.333,0.171,0.64,0.222,0.964c0.461,2.884,1.075,5.709,1.937,8.439c0.051,0.171,0.119,0.324,0.179,0.495
			c0.853,2.62,1.911,5.137,3.106,7.586c0.23,0.478,0.444,0.956,0.683,1.425c1.271,2.441,2.705,4.779,4.284,7.006
			c0.324,0.452,0.666,0.887,0.998,1.331c1.69,2.253,3.49,4.42,5.47,6.409c0.017,0.017,0.034,0.034,0.051,0.051
			c1.988,1.988,4.164,3.78,6.417,5.47c0.444,0.341,0.87,0.683,1.331,0.998c2.227,1.587,4.565,3.021,7.014,4.292
			c0.461,0.239,0.93,0.444,1.391,0.674c2.458,1.195,4.983,2.261,7.612,3.115c0.171,0.051,0.324,0.128,0.495,0.179
			c2.731,0.862,5.555,1.468,8.44,1.937c0.324,0.051,0.631,0.171,0.964,0.222v146.278c-0.333,0.051-0.64,0.171-0.964,0.222
			c-2.884,0.469-5.709,1.075-8.44,1.937c-0.171,0.051-0.324,0.128-0.495,0.179c-2.628,0.853-5.154,1.92-7.612,3.115
			C425.762,398.822,425.293,399.027,424.832,399.266z M452.267,443.733c-4.71,0-8.533,3.831-8.533,8.533
			c0,4.71-3.814,8.533-8.533,8.533s-8.533-3.823-8.533-8.533c0-14.114,11.486-25.6,25.6-25.6c4.719,0,8.533,3.823,8.533,8.533
			S456.986,443.733,452.267,443.733z"/>
	</g>
</g>
<g>
</g>
<g>
</g>
<g>
</g>
<g>
</g>
<g>
</g>
<g>
</g>
<g>
</g>
<g>
</g>
<g>
</g>
<g>
</g>
<g>
</g>
<g>
</g>
<g>
</g>
<g>
</g>
<g>
</g>
</svg>
