<?xml version="1.0" encoding="iso-8859-1"?>
<!-- Generator: Adobe Illustrator 19.0.0, SVG Export Plug-In . SVG Version: 6.00 Build 0)  -->
<svg version="1.1" id="Layer_1" xmlns="http://www.w3.org/2000/svg" xmlns:xlink="http://www.w3.org/1999/xlink" x="0px" y="0px"
	 viewBox="0 0 512 512" style="enable-background:new 0 0 512 512;" xml:space="preserve">
<g>
	<g>
		<path d="M460.8,393.216V246.784c28.894-4.164,51.2-29.022,51.2-59.051C512,154.795,485.197,128,452.267,128
			c-11.196,0-21.641,3.149-30.601,8.533l-46.199-46.199c5.385-8.96,8.533-19.405,8.533-30.601C384,26.795,357.205,0,324.267,0
			c-30.029,0-54.886,22.298-59.051,51.2H118.784C114.62,22.298,89.762,0,59.733,0C26.795,0,0,26.795,0,59.733
			c0,30.029,22.298,54.886,51.2,59.051v146.432C22.298,269.38,0,294.238,0,324.267C0,357.205,26.795,384,59.733,384
			c11.196,0,21.641-3.149,30.601-8.533l46.199,46.199c-5.385,8.96-8.533,19.405-8.533,30.601C128,485.205,154.795,512,187.733,512
			c30.029,0,54.886-22.298,59.051-51.2h146.432c4.164,28.902,29.022,51.2,59.051,51.2c32.93,0,59.733-26.795,59.733-59.733
			C512,422.238,489.694,397.38,460.8,393.216z M452.267,162.133c4.719,0,8.533,3.823,8.533,8.533s-3.814,8.533-8.533,8.533
			c-4.71,0-8.533,3.831-8.533,8.533c0,4.71-3.814,8.533-8.533,8.533s-8.533-3.823-8.533-8.533
			C426.667,173.619,438.153,162.133,452.267,162.133z M408.363,147.371c-7.962,8.653-13.389,19.644-15.147,31.829H332.8v-60.416
			c12.186-1.758,23.177-7.185,31.838-15.147L408.363,147.371z M324.267,34.133c4.71,0,8.533,3.823,8.533,8.533
			c0,4.71-3.823,8.533-8.533,8.533c-4.702,0-8.533,3.831-8.533,8.533c0,4.71-3.823,8.533-8.533,8.533s-8.533-3.823-8.533-8.533
			C298.667,45.619,310.153,34.133,324.267,34.133z M196.267,246.861c0.333-0.051,0.631-0.171,0.964-0.222
			c2.884-0.461,5.717-1.075,8.448-1.937c0.154-0.051,0.299-0.12,0.461-0.171c2.645-0.853,5.188-1.929,7.663-3.132
			c0.444-0.222,0.905-0.427,1.348-0.657c2.458-1.271,4.813-2.722,7.057-4.318c0.435-0.307,0.845-0.631,1.271-0.947
			c4.548-3.413,8.585-7.45,11.998-11.998c0.316-0.427,0.64-0.836,0.947-1.271c1.596-2.244,3.038-4.599,4.318-7.057
			c0.23-0.444,0.435-0.905,0.657-1.348c1.203-2.475,2.278-5.018,3.132-7.663c0.051-0.162,0.12-0.307,0.171-0.461
			c0.862-2.731,1.476-5.564,1.937-8.448c0.051-0.333,0.171-0.631,0.222-0.964h68.872v68.873c-0.333,0.051-0.631,0.171-0.964,0.222
			c-2.884,0.461-5.717,1.075-8.448,1.937c-0.154,0.051-0.299,0.119-0.461,0.171c-2.645,0.853-5.188,1.929-7.663,3.132
			c-0.444,0.222-0.904,0.427-1.348,0.657c-2.458,1.28-4.813,2.722-7.057,4.318c-0.435,0.307-0.845,0.631-1.271,0.947
			c-4.548,3.413-8.585,7.45-11.998,11.998c-0.316,0.427-0.64,0.836-0.947,1.271c-1.596,2.244-3.046,4.599-4.318,7.057
			c-0.23,0.444-0.435,0.905-0.657,1.348c-1.203,2.475-2.278,5.018-3.132,7.663c-0.051,0.162-0.119,0.307-0.171,0.461
			c-0.862,2.731-1.476,5.564-1.937,8.448c-0.051,0.333-0.171,0.631-0.222,0.964h-68.873V246.861z M187.733,179.2
			c-4.702,0-8.533,3.831-8.533,8.533c0,4.71-3.823,8.533-8.533,8.533s-8.533-3.823-8.533-8.533c0-14.114,11.486-25.6,25.6-25.6
			c4.71,0,8.533,3.823,8.533,8.533S192.444,179.2,187.733,179.2z M324.267,298.667c4.71,0,8.533,3.823,8.533,8.533
			s-3.823,8.533-8.533,8.533c-4.702,0-8.533,3.831-8.533,8.533c0,4.71-3.823,8.533-8.533,8.533s-8.533-3.823-8.533-8.533
			C298.667,310.153,310.153,298.667,324.267,298.667z M108.425,94.208c1.596-2.244,3.038-4.599,4.318-7.057
			c0.23-0.444,0.435-0.905,0.657-1.348c1.203-2.475,2.278-5.018,3.132-7.663c0.051-0.162,0.12-0.307,0.171-0.461
			c0.862-2.731,1.476-5.564,1.937-8.448c0.051-0.333,0.171-0.631,0.222-0.964h146.278c0.051,0.333,0.171,0.631,0.222,0.964
			c0.461,2.884,1.075,5.717,1.937,8.448c0.051,0.154,0.119,0.299,0.171,0.461c0.853,2.645,1.929,5.188,3.132,7.663
			c0.222,0.444,0.427,0.905,0.657,1.348c1.271,2.458,2.722,4.813,4.318,7.057c0.307,0.435,0.631,0.845,0.947,1.271
			c3.413,4.548,7.45,8.585,11.998,11.998c0.427,0.316,0.836,0.64,1.271,0.947c2.244,1.596,4.599,3.038,7.057,4.318
			c0.444,0.23,0.905,0.435,1.348,0.657c2.475,1.203,5.018,2.278,7.663,3.132c0.162,0.051,0.307,0.12,0.461,0.171
			c2.731,0.862,5.564,1.476,8.448,1.937c0.333,0.051,0.631,0.171,0.964,0.222V179.2h-68.949c-4.164-28.902-29.022-51.2-59.051-51.2
			c-13.397,0-25.728,4.489-35.703,11.964l-44.518-44.518C107.819,95.027,108.126,94.626,108.425,94.208z M42.667,68.267
			c-4.71,0-8.533-3.823-8.533-8.533c0-14.114,11.486-25.6,25.6-25.6c4.71,0,8.533,3.823,8.533,8.533c0,4.71-3.823,8.533-8.533,8.533
			c-4.702,0-8.533,3.831-8.533,8.533C51.2,64.444,47.377,68.267,42.667,68.267z M59.733,315.733c-4.702,0-8.533,3.831-8.533,8.533
			c0,4.71-3.823,8.533-8.533,8.533c-4.71,0-8.533-3.823-8.533-8.533c0-14.114,11.486-25.6,25.6-25.6c4.71,0,8.533,3.823,8.533,8.533
			S64.444,315.733,59.733,315.733z M95.479,276.523c-0.427-0.316-0.836-0.64-1.271-0.947c-2.244-1.596-4.599-3.038-7.057-4.318
			c-0.444-0.23-0.905-0.435-1.348-0.657c-2.475-1.203-5.018-2.278-7.663-3.132c-0.162-0.051-0.307-0.119-0.461-0.171
			c-2.731-0.862-5.564-1.476-8.448-1.937c-0.333-0.051-0.631-0.171-0.964-0.222V118.861c0.333-0.051,0.631-0.171,0.964-0.222
			c2.884-0.461,5.717-1.075,8.448-1.937c0.154-0.051,0.299-0.119,0.461-0.171c2.645-0.853,5.188-1.929,7.663-3.132
			c0.444-0.222,0.905-0.427,1.348-0.657c2.458-1.28,4.813-2.722,7.057-4.318c0.418-0.299,0.819-0.606,1.237-0.913l44.518,44.518
			C132.489,162.005,128,174.336,128,187.733c0,30.029,22.298,54.886,51.2,59.051v68.949h-60.339
			c-0.051-0.333-0.171-0.631-0.222-0.964c-0.461-2.884-1.075-5.717-1.937-8.448c-0.051-0.154-0.119-0.299-0.171-0.461
			c-0.853-2.645-1.929-5.188-3.132-7.663c-0.222-0.444-0.427-0.904-0.657-1.348c-1.28-2.458-2.722-4.813-4.318-7.057
			c-0.307-0.435-0.631-0.845-0.947-1.271C104.064,283.972,100.028,279.936,95.479,276.523z M103.637,364.638
			c7.962-8.661,13.389-19.652,15.147-31.838H179.2v60.416c-12.186,1.758-23.177,7.185-31.838,15.147L103.637,364.638z
			 M187.733,443.733c-4.702,0-8.533,3.831-8.533,8.533c0,4.71-3.823,8.533-8.533,8.533s-8.533-3.823-8.533-8.533
			c0-14.114,11.486-25.6,25.6-25.6c4.71,0,8.533,3.823,8.533,8.533S192.444,443.733,187.733,443.733z M403.558,417.809
			c-1.587,2.236-3.021,4.582-4.292,7.031c-0.239,0.452-0.444,0.922-0.674,1.382c-1.195,2.458-2.27,5.001-3.123,7.637
			c-0.051,0.162-0.119,0.307-0.171,0.461c-0.862,2.731-1.468,5.564-1.937,8.448c-0.051,0.324-0.171,0.631-0.222,0.964H246.861
			c-0.051-0.333-0.171-0.631-0.222-0.964c-0.461-2.884-1.075-5.717-1.937-8.448c-0.051-0.154-0.12-0.299-0.171-0.461
			c-0.853-2.645-1.929-5.188-3.132-7.663c-0.222-0.444-0.427-0.904-0.657-1.348c-1.28-2.458-2.722-4.813-4.318-7.057
			c-0.307-0.435-0.631-0.845-0.947-1.271c-3.413-4.548-7.45-8.585-11.998-11.998c-0.427-0.316-0.836-0.64-1.271-0.947
			c-2.244-1.596-4.599-3.038-7.057-4.318c-0.444-0.23-0.905-0.435-1.348-0.657c-2.475-1.203-5.018-2.278-7.663-3.132
			c-0.162-0.051-0.307-0.119-0.461-0.171c-2.731-0.862-5.564-1.476-8.448-1.937c-0.333-0.051-0.631-0.171-0.964-0.222V332.8h68.949
			c4.164,28.902,29.022,51.2,59.051,51.2c13.397,0,25.737-4.489,35.703-11.964l44.518,44.518
			C404.181,416.973,403.866,417.382,403.558,417.809z M424.832,399.266c-2.449,1.271-4.787,2.705-7.023,4.292
			c-0.427,0.299-0.836,0.614-1.246,0.93l-44.527-44.518c7.475-9.975,11.964-22.306,11.964-35.703
			c0-30.029-22.298-54.886-51.2-59.051v-68.949h60.339c0.051,0.333,0.171,0.64,0.222,0.964c0.469,2.884,1.075,5.717,1.937,8.448
			c0.051,0.154,0.119,0.299,0.171,0.461c0.853,2.637,1.929,5.18,3.123,7.637c0.23,0.461,0.435,0.93,0.674,1.382
			c1.271,2.449,2.705,4.796,4.292,7.031c0.316,0.444,0.657,0.87,0.981,1.306c1.698,2.27,3.507,4.454,5.504,6.451h0.009
			c1.997,2.005,4.173,3.806,6.443,5.504c0.435,0.333,0.862,0.674,1.314,0.99c2.236,1.587,4.574,3.021,7.023,4.292
			c0.461,0.239,0.93,0.444,1.391,0.674c2.458,1.195,4.983,2.261,7.612,3.115c0.171,0.051,0.324,0.128,0.495,0.179
			c2.731,0.862,5.555,1.468,8.44,1.937c0.324,0.051,0.631,0.171,0.964,0.222v146.278c-0.333,0.051-0.64,0.171-0.964,0.222
			c-2.884,0.469-5.709,1.075-8.44,1.937c-0.171,0.051-0.324,0.128-0.495,0.179c-2.628,0.853-5.154,1.92-7.612,3.115
			C425.762,398.822,425.293,399.027,424.832,399.266z M452.267,443.733c-4.71,0-8.533,3.831-8.533,8.533
			c0,4.71-3.814,8.533-8.533,8.533s-8.533-3.823-8.533-8.533c0-14.114,11.486-25.6,25.6-25.6c4.719,0,8.533,3.823,8.533,8.533
			S456.986,443.733,452.267,443.733z"/>
	</g>
</g>
<g>
</g>
<g>
</g>
<g>
</g>
<g>
</g>
<g>
</g>
<g>
</g>
<g>
</g>
<g>
</g>
<g>
</g>
<g>
</g>
<g>
</g>
<g>
</g>
<g>
</g>
<g>
</g>
<g>
</g>
</svg>
