<?xml version="1.0" encoding="iso-8859-1"?>
<!-- Generator: Adobe Illustrator 19.0.0, SVG Export Plug-In . SVG Version: 6.00 Build 0)  -->
<svg version="1.1" id="Layer_1" xmlns="http://www.w3.org/2000/svg" xmlns:xlink="http://www.w3.org/1999/xlink" x="0px" y="0px"
	 viewBox="0 0 511.869 511.869" style="enable-background:new 0 0 511.869 511.869;" xml:space="preserve">
<g>
	<g>
		<g>
			<path d="M245.217,190.904l1.826,1.638c4.898,4.403,12.885,4.42,17.801-0.017l1.801-1.613
				c12.254-11.034,15.223-28.817,7.219-43.255l-17.929-35.14l-17.783,34.876C230.002,162.095,232.963,179.878,245.217,190.904z"/>
			<path d="M430.211,398.358l-3.823-4.727h-16.64c-14.106,4.301-26.82,11.844-36.847,21.871
				c-15.104,13.978-31.983,19.712-49.143,19.712c-26.667,0-54.007-13.858-76.416-32.188c-11.119,25.114-29.423,40.576-59.674,40.576
				c-4.719,0-8.533-3.823-8.533-8.533c0-4.719,3.814-8.533,8.533-8.533c23.347,0,37.53-12.578,46.234-35.601
				c-0.35-0.35-0.717-0.691-1.067-1.033c-26.197-22.733-76.757-29.926-110.003-15.292l-33.126,13.807l-7.228,8.926
				c-9.207,11.366-14.276,25.694-14.276,40.32c0,17.126,6.665,33.237,18.782,45.346c18.628,18.611,43.383,28.86,69.709,28.86H351.32
				c23.023,0,45.44-8.115,63.121-22.852l7.492-6.229c13.807-11.52,21.734-28.433,21.734-46.421
				C443.668,422.576,438.889,409.076,430.211,398.358z"/>
			<path d="M116.12,358.929c37.035-16.316,90.598-9.728,123.008,14.268c6.912-30.541,8.141-73.31,8.252-125.867h17.084
				c-0.034,52.002-0.572,101.965-10.974,138.462c31.957,27.955,75.836,46.763,107.588,17.408
				c12.075-12.083,27.733-21.257,45.039-26.291c0.776-0.222,1.579-0.341,2.389-0.341h4.062L306.772,245.871
				c10.103-3.43,17.434-12.894,17.434-24.141c0-13.773-10.965-24.96-24.61-25.498l1.28-1.152l0.009-0.009
				c30.123-27.093,37.402-70.758,17.724-106.172l-42.923-77.278C271.64,4.343,264.259,0,255.939,0
				c-8.329,0-15.71,4.343-19.755,11.622L193.261,88.9c-19.678,35.413-12.39,79.078,17.732,106.18l1.28,1.152
				c-13.645,0.538-24.602,11.725-24.602,25.498c0,11.247,7.33,20.71,17.425,24.141L112.28,360.525L116.12,358.929z M223.094,139.375
				l18.859-37.001c2.688-5.282,8.047-8.576,13.986-8.576c5.931,0,11.29,3.294,13.978,8.576l19.004,37.265
				c10.112,18.202,8.192,40.243-4.105,56.491h-57.762C214.757,179.883,212.854,157.807,223.094,139.375z"/>
		</g>
	</g>
</g>
<g>
</g>
<g>
</g>
<g>
</g>
<g>
</g>
<g>
</g>
<g>
</g>
<g>
</g>
<g>
</g>
<g>
</g>
<g>
</g>
<g>
</g>
<g>
</g>
<g>
</g>
<g>
</g>
<g>
</g>
</svg>
