<?xml version="1.0" encoding="iso-8859-1"?>
<!-- Generator: Adobe Illustrator 19.0.0, SVG Export Plug-In . SVG Version: 6.00 Build 0)  -->
<svg version="1.1" id="Layer_1" xmlns="http://www.w3.org/2000/svg" xmlns:xlink="http://www.w3.org/1999/xlink" x="0px" y="0px"
	 viewBox="0 0 512.066 512.066" style="enable-background:new 0 0 512.066 512.066;" xml:space="preserve">
<g>
	<g>
		<path d="M483.413,100.527c-9.155-1.605-18.337,0.417-25.938,5.736c-7.602,5.302-12.679,13.26-14.301,22.389
			c-2.812,15.881,5.771,31.084,19.786,37.515l-21.634,122.047c-12.54,0.981-23.543,8.687-28.759,20.089l-122.047-21.643
			c-0.469-6.109-2.43-12.028-6.031-17.182c-3.601-5.155-8.487-9.025-14.067-11.568l21.643-122.056
			c15.377-1.215,28.663-12.531,31.484-28.412v-0.009c3.341-18.84-9.268-36.89-28.117-40.231c-9.164-1.614-18.345,0.408-25.947,5.727
			c-5.155,3.601-9.025,8.478-11.568,14.058L135.869,65.347c-0.469-6.109-2.43-12.028-6.031-17.182
			c-5.311-7.602-13.269-12.678-22.389-14.293c-9.155-1.623-18.354,0.408-25.947,5.727C73.9,44.91,68.823,52.859,67.209,61.988
			c-2.812,15.881,5.771,31.084,19.786,37.515L65.361,221.541c-6.127,0.469-12.036,2.43-17.191,6.04
			c-7.593,5.311-12.67,13.26-14.293,22.398c-2.812,15.881,5.771,31.076,19.786,37.506L32.028,409.523
			c-6.127,0.469-12.036,2.43-17.191,6.04c-7.593,5.311-12.67,13.26-14.293,22.389c-1.623,9.129,0.408,18.345,5.719,25.947
			c5.32,7.602,13.269,12.679,22.398,14.293c2.048,0.365,4.096,0.547,6.135,0.547c7.047,0,13.911-2.152,19.812-6.274
			c7.593-5.311,12.67-13.26,14.284-22.389c1.631-9.129-0.408-18.345-5.719-25.947c-3.601-5.155-8.487-9.025-14.067-11.568
			l21.634-122.004c6.118-0.469,12.036-2.465,17.2-6.075c5.146-3.601,9.016-8.478,11.559-14.058l122.064,21.643
			c1.215,15.377,12.531,28.655,28.403,31.475c2.057,0.365,4.105,0.547,6.144,0.547c7.047,0,13.911-2.152,19.812-6.274
			c5.146-3.601,9.025-8.478,11.559-14.058l122.064,21.643c1.215,15.369,12.54,28.655,28.412,31.475
			c2.039,0.364,4.07,0.538,6.075,0.538c16.505,0,31.189-11.845,34.156-28.655c1.631-9.129-0.408-18.345-5.719-25.947
			c-3.601-5.155-8.487-9.034-14.067-11.568l21.643-122.056c15.369-1.215,28.663-12.531,31.484-28.412
			C514.87,121.927,502.261,103.877,483.413,100.527z M253.36,254.752c-1.649,0.13-3.263,0.382-4.851,0.746
			c-0.321,0.069-0.616,0.182-0.929,0.26c-1.631,0.417-3.211,0.955-4.747,1.588c-0.555,0.226-1.093,0.46-1.64,0.72
			c-1.631,0.772-3.219,1.64-4.703,2.664c-0.252,0.165-0.486,0.339-0.72,0.512c-1.441,1.033-2.777,2.204-4.044,3.445
			c-0.434,0.425-0.842,0.85-1.25,1.302c-1.12,1.224-2.161,2.517-3.107,3.905c-0.182,0.269-0.399,0.503-0.573,0.781
			c-0.868,1.362-1.657,2.786-2.343,4.278l-121.778-21.599c-0.122-1.588-0.365-3.159-0.694-4.712
			c-0.035-0.156-0.095-0.295-0.13-0.451c-0.425-1.814-1.024-3.584-1.736-5.32c-0.191-0.46-0.391-0.92-0.607-1.38
			c-0.85-1.84-1.814-3.645-3.003-5.346c-1.18-1.692-2.534-3.202-3.966-4.634c-0.365-0.373-0.746-0.729-1.128-1.085
			c-1.371-1.25-2.812-2.412-4.348-3.419c-0.139-0.095-0.269-0.208-0.408-0.295c-1.345-0.85-2.734-1.614-4.183-2.274l21.582-121.778
			c0.798-0.061,1.571-0.226,2.352-0.347c0.521-0.078,1.05-0.13,1.571-0.226c1.788-0.347,3.541-0.807,5.233-1.423
			c0.165-0.061,0.312-0.148,0.469-0.208c1.527-0.581,3.003-1.276,4.426-2.065c0.495-0.269,0.963-0.573,1.449-0.876
			c1.085-0.668,2.135-1.397,3.141-2.187c0.46-0.347,0.911-0.694,1.345-1.076c1.163-0.998,2.248-2.065,3.272-3.211
			c0.182-0.208,0.382-0.382,0.564-0.59c1.172-1.38,2.213-2.864,3.167-4.426c0.243-0.417,0.451-0.85,0.686-1.267
			c0.417-0.764,0.877-1.501,1.241-2.3l121.787,21.599c0.13,1.649,0.391,3.272,0.746,4.868c0.061,0.252,0.148,0.486,0.208,0.729
			c0.434,1.727,0.998,3.393,1.675,5.016c0.2,0.477,0.408,0.955,0.625,1.423c0.85,1.796,1.788,3.541,2.916,5.155
			c0,0.009,0.009,0.009,0.009,0.009c1.128,1.614,2.439,3.098,3.827,4.504c0.373,0.373,0.746,0.729,1.137,1.085
			c1.284,1.189,2.655,2.3,4.113,3.28c0.217,0.148,0.408,0.321,0.625,0.46c1.371,0.885,2.812,1.684,4.313,2.378L253.36,254.752z"/>
	</g>
</g>
<g>
</g>
<g>
</g>
<g>
</g>
<g>
</g>
<g>
</g>
<g>
</g>
<g>
</g>
<g>
</g>
<g>
</g>
<g>
</g>
<g>
</g>
<g>
</g>
<g>
</g>
<g>
</g>
<g>
</g>
</svg>
