<?xml version="1.0" encoding="iso-8859-1"?>
<!-- Generator: Adobe Illustrator 19.0.0, SVG Export Plug-In . SVG Version: 6.00 Build 0)  -->
<svg version="1.1" id="Layer_1" xmlns="http://www.w3.org/2000/svg" xmlns:xlink="http://www.w3.org/1999/xlink" x="0px" y="0px"
	 viewBox="0 0 512.003 512.003" style="enable-background:new 0 0 512.003 512.003;" xml:space="preserve">
<g>
	<g>
		<path d="M473.362,323.624c21.311,0,38.642-17.331,38.642-38.642c0-17.949-12.356-32.952-28.981-37.27v-78.655
			c0-3.661-2.067-7.004-5.342-8.636l-63.16-31.589c0.56-2.608,0.879-5.304,0.879-8.076c0-17.949-12.356-32.952-28.981-37.27V14.492
			c0-5.333-4.318-9.66-9.66-9.66c-5.342,0-9.66,4.328-9.66,9.66v68.994c-16.616,4.318-28.981,19.321-28.981,37.27
			c0,2.773,0.328,5.468,0.879,8.076l-29.86,14.935c-7.091-8.115-17.379-13.351-28.981-13.351c-11.592,0-21.89,5.236-28.981,13.351
			l-63.305-31.647c-2.715-1.362-5.922-1.362-8.636,0l-63.304,31.647c-7.091-8.115-17.379-13.351-28.981-13.351
			c-9.1,0-17.369,3.294-23.977,8.578l-47.51-35.628c-4.26-3.207-10.327-2.328-13.525,1.932c-3.207,4.27-2.338,10.327,1.942,13.525
			l47.375,35.531c-1.884,4.54-2.946,9.496-2.946,14.703c0,17.949,12.365,32.952,28.981,37.27v78.655
			c0,3.661,2.067,7.004,5.342,8.646l63.102,31.551c-0.531,2.55-0.821,5.178-0.821,7.883c0,17.949,12.365,32.952,28.981,37.27v41.607
			c-16.616,4.318-28.981,19.321-28.981,37.27c0,2.773,0.328,5.468,0.879,8.076l-63.16,31.589c-4.772,2.386-6.704,8.182-4.318,12.955
			c1.691,3.391,5.101,5.342,8.646,5.342c1.459,0,2.927-0.328,4.309-1.014l63.304-31.657c7.091,8.115,17.389,13.351,28.981,13.351
			c11.602,0,21.89-5.236,28.981-13.351l63.304,31.657c1.362,0.676,2.84,1.014,4.318,1.014c1.488,0,2.966-0.338,4.318-1.014
			l63.304-31.657c7.091,8.115,17.389,13.351,28.981,13.351c11.602,0,21.89-5.236,28.981-13.351l63.304,31.657
			c1.381,0.686,2.859,1.014,4.308,1.014c3.545,0,6.956-1.951,8.656-5.342c2.386-4.772,0.454-10.568-4.328-12.955l-63.16-31.589
			c0.56-2.608,0.879-5.304,0.879-8.076c0-17.949-12.356-32.952-28.981-37.27v-41.385c16.625-4.318,28.981-19.321,28.981-37.27
			c0-2.773-0.319-5.468-0.879-8.076l29.86-14.935C451.471,318.388,461.769,323.624,473.362,323.624z M183.55,294.421
			c-2.773,0-5.468,0.319-8.076,0.879c-0.869,0.184-1.671,0.541-2.521,0.783c-1.71,0.493-3.41,0.985-5.014,1.7
			c-0.898,0.396-1.71,0.937-2.579,1.401c-1.478,0.802-2.937,1.613-4.299,2.589c-0.715,0.522-1.362,1.121-2.038,1.691
			c-1.439,1.188-2.792,2.434-4.038,3.816c-0.203,0.222-0.444,0.377-0.638,0.599l-57.74-28.865v-72.53
			c1.352-0.348,2.618-0.879,3.903-1.362c0.58-0.222,1.188-0.377,1.758-0.618c2.135-0.927,4.173-2.029,6.086-3.314
			c0.425-0.28,0.782-0.628,1.188-0.918c1.459-1.063,2.859-2.193,4.164-3.439c0.58-0.57,1.092-1.179,1.642-1.778
			c1.014-1.111,1.99-2.26,2.869-3.478c0.512-0.715,0.985-1.449,1.449-2.193c0.783-1.246,1.478-2.541,2.116-3.883
			c0.377-0.792,0.753-1.575,1.072-2.396c0.58-1.478,1.024-3.014,1.42-4.579c0.193-0.744,0.435-1.459,0.58-2.222
			c0.454-2.357,0.734-4.763,0.734-7.245c0-2.773-0.319-5.468-0.879-8.076l58.841-29.425l58.841,29.425
			c-0.551,2.608-0.879,5.304-0.879,8.076c0,2.483,0.29,4.888,0.734,7.245c0.145,0.763,0.386,1.478,0.58,2.222
			c0.396,1.565,0.84,3.101,1.43,4.579c0.319,0.821,0.696,1.604,1.072,2.396c0.628,1.343,1.323,2.637,2.106,3.883
			c0.464,0.744,0.937,1.478,1.449,2.193c0.889,1.217,1.855,2.367,2.869,3.478c0.551,0.599,1.063,1.208,1.652,1.778
			c1.294,1.246,2.695,2.376,4.164,3.439c0.406,0.29,0.763,0.638,1.179,0.918c1.913,1.285,3.951,2.386,6.086,3.314
			c0.57,0.242,1.179,0.396,1.768,0.618c1.285,0.483,2.55,1.014,3.893,1.362v41.086c-1.343,0.348-2.608,0.869-3.893,1.362
			c-0.589,0.213-1.198,0.367-1.768,0.609c-2.135,0.927-4.173,2.029-6.086,3.313c-0.415,0.28-0.773,0.628-1.179,0.918
			c-1.468,1.063-2.869,2.193-4.164,3.439c-0.589,0.57-1.101,1.188-1.652,1.787c-1.014,1.111-1.98,2.251-2.869,3.468
			c-0.512,0.715-0.985,1.449-1.449,2.193c-0.783,1.256-1.478,2.541-2.106,3.883c-0.377,0.792-0.754,1.575-1.072,2.396
			c-0.589,1.478-1.034,3.014-1.43,4.579c-0.193,0.744-0.435,1.459-0.58,2.222c-0.444,2.357-0.734,4.763-0.734,7.245
			c0,2.773,0.328,5.468,0.879,8.076l-29.628,14.819c-0.193-0.222-0.444-0.377-0.638-0.599c-1.246-1.381-2.608-2.628-4.038-3.816
			c-0.676-0.57-1.323-1.169-2.048-1.691c-1.352-0.976-2.811-1.787-4.289-2.589c-0.869-0.464-1.681-1.005-2.589-1.401
			c-1.594-0.715-3.304-1.208-5.004-1.7c-0.85-0.242-1.652-0.599-2.531-0.783C189.018,294.74,186.323,294.421,183.55,294.421z
			 M367.097,411.794c-1.343,0.348-2.608,0.869-3.893,1.362c-0.589,0.213-1.198,0.367-1.768,0.609
			c-2.135,0.927-4.173,2.029-6.086,3.314c-0.415,0.28-0.773,0.628-1.179,0.918c-1.468,1.063-2.869,2.193-4.164,3.439
			c-0.589,0.57-1.101,1.188-1.652,1.787c-1.014,1.111-1.98,2.251-2.869,3.468c-0.512,0.715-0.985,1.449-1.449,2.193
			c-0.782,1.256-1.478,2.541-2.106,3.883c-0.377,0.792-0.754,1.575-1.072,2.396c-0.589,1.478-1.034,3.014-1.43,4.579
			c-0.193,0.744-0.435,1.459-0.58,2.222c-0.444,2.357-0.734,4.763-0.734,7.245c0,2.773,0.328,5.468,0.879,8.076l-58.841,29.426
			l-58.841-29.426c0.56-2.608,0.879-5.304,0.879-8.076c0-2.744-0.251-5.342-0.647-7.854c-0.135-0.811-0.367-1.565-0.541-2.357
			c-0.357-1.642-0.754-3.246-1.285-4.763c-0.299-0.86-0.667-1.662-1.014-2.473c-0.58-1.343-1.217-2.637-1.932-3.874
			c-0.454-0.763-0.927-1.507-1.43-2.232c-0.811-1.159-1.7-2.241-2.637-3.285c-0.56-0.628-1.111-1.256-1.72-1.836
			c-1.111-1.053-2.328-1.98-3.584-2.879c-0.57-0.406-1.092-0.869-1.7-1.246c-1.922-1.198-3.961-2.251-6.163-3.082
			c-0.174-0.068-0.377-0.097-0.551-0.164c-1.845-0.667-3.748-1.256-5.777-1.662v-41.018c1.352-0.348,2.618-0.879,3.903-1.362
			c0.58-0.222,1.188-0.377,1.758-0.618c2.135-0.927,4.173-2.029,6.086-3.314c0.425-0.28,0.782-0.628,1.188-0.918
			c1.459-1.063,2.859-2.193,4.164-3.439c0.58-0.56,1.092-1.179,1.642-1.777c1.014-1.111,1.99-2.251,2.869-3.478
			c0.512-0.715,0.985-1.449,1.449-2.193c0.782-1.246,1.478-2.541,2.116-3.883c0.377-0.792,0.754-1.575,1.072-2.386
			c0.58-1.488,1.024-3.024,1.42-4.589c0.193-0.744,0.435-1.459,0.58-2.222c0.454-2.357,0.734-4.763,0.734-7.245
			c0-2.705-0.29-5.333-0.821-7.883l29.725-14.867c0.155,0.184,0.357,0.309,0.522,0.493c1.314,1.449,2.753,2.763,4.27,3.999
			c0.599,0.493,1.159,1.024,1.778,1.468c1.459,1.053,3.024,1.922,4.618,2.763c0.763,0.406,1.478,0.879,2.27,1.237
			c1.691,0.753,3.487,1.275,5.294,1.777c0.763,0.213,1.468,0.531,2.251,0.696c2.599,0.56,5.294,0.879,8.057,0.879
			c2.773,0,5.458-0.319,8.066-0.879c0.773-0.164,1.488-0.483,2.241-0.696c1.816-0.502,3.603-1.024,5.304-1.777
			c0.782-0.357,1.497-0.831,2.26-1.237c1.604-0.84,3.159-1.71,4.618-2.763c0.628-0.444,1.179-0.976,1.778-1.468
			c1.526-1.237,2.956-2.55,4.28-3.999c0.155-0.184,0.357-0.309,0.522-0.493l29.773,14.896c-0.551,2.608-0.879,5.304-0.879,8.076
			c0,2.483,0.29,4.888,0.734,7.245c0.145,0.763,0.386,1.478,0.58,2.222c0.396,1.565,0.84,3.101,1.43,4.579
			c0.319,0.821,0.696,1.604,1.072,2.396c0.628,1.343,1.323,2.637,2.106,3.883c0.464,0.744,0.937,1.478,1.449,2.193
			c0.889,1.217,1.855,2.367,2.869,3.478c0.551,0.599,1.063,1.208,1.652,1.778c1.294,1.246,2.695,2.376,4.164,3.439
			c0.406,0.29,0.763,0.638,1.179,0.918c1.913,1.285,3.951,2.386,6.086,3.313c0.57,0.242,1.179,0.396,1.768,0.618
			c1.285,0.483,2.55,1.014,3.893,1.362V411.794z M405.826,307.955c-0.155-0.184-0.367-0.309-0.522-0.493
			c-1.314-1.449-2.753-2.763-4.27-3.999c-0.599-0.493-1.159-1.014-1.787-1.468c-1.459-1.053-3.014-1.922-4.618-2.763
			c-0.763-0.406-1.478-0.879-2.261-1.237c-1.691-0.744-3.478-1.266-5.284-1.768c-0.763-0.222-1.478-0.541-2.261-0.705
			c-2.608-0.56-5.294-0.879-8.066-0.879c-2.763,0-5.458,0.319-8.057,0.879c-0.782,0.164-1.507,0.483-2.27,0.705
			c-1.797,0.502-3.594,1.024-5.275,1.768c-0.792,0.357-1.507,0.831-2.27,1.237c-1.594,0.84-3.159,1.71-4.608,2.763
			c-0.628,0.454-1.188,0.976-1.787,1.468c-1.517,1.237-2.956,2.55-4.27,3.999c-0.164,0.184-0.367,0.309-0.522,0.493l-29.783-14.896
			c0.56-2.608,0.879-5.304,0.879-8.076c0-2.483-0.28-4.888-0.734-7.245c-0.145-0.763-0.386-1.478-0.58-2.222
			c-0.396-1.565-0.84-3.101-1.42-4.579c-0.319-0.821-0.696-1.604-1.072-2.396c-0.638-1.343-1.333-2.628-2.116-3.883
			c-0.464-0.744-0.937-1.478-1.449-2.193c-0.879-1.217-1.855-2.357-2.869-3.468c-0.551-0.599-1.063-1.217-1.642-1.787
			c-1.304-1.246-2.705-2.376-4.164-3.439c-0.406-0.29-0.763-0.638-1.188-0.918c-1.913-1.285-3.951-2.386-6.086-3.313
			c-0.57-0.242-1.179-0.396-1.758-0.609c-1.285-0.493-2.55-1.014-3.903-1.362v-41.086c1.352-0.348,2.618-0.879,3.903-1.362
			c0.58-0.222,1.188-0.377,1.758-0.618c2.135-0.927,4.173-2.029,6.086-3.314c0.425-0.28,0.782-0.628,1.188-0.918
			c1.459-1.063,2.859-2.193,4.164-3.439c0.58-0.57,1.092-1.179,1.642-1.778c1.014-1.111,1.99-2.26,2.869-3.478
			c0.512-0.715,0.985-1.449,1.449-2.193c0.782-1.246,1.478-2.541,2.116-3.883c0.377-0.792,0.754-1.575,1.072-2.396
			c0.58-1.478,1.024-3.014,1.42-4.579c0.193-0.744,0.435-1.459,0.58-2.222c0.454-2.357,0.734-4.763,0.734-7.245
			c0-2.773-0.319-5.468-0.879-8.076l29.773-14.896c0.164,0.184,0.367,0.309,0.531,0.493c1.314,1.449,2.753,2.763,4.27,3.999
			c0.599,0.493,1.159,1.024,1.778,1.468c1.459,1.053,3.024,1.922,4.618,2.763c0.763,0.406,1.478,0.879,2.27,1.237
			c1.691,0.754,3.487,1.275,5.294,1.778c0.763,0.213,1.468,0.531,2.251,0.696c2.599,0.56,5.294,0.879,8.057,0.879
			c2.773,0,5.458-0.319,8.066-0.879c0.773-0.164,1.488-0.483,2.241-0.696c1.816-0.502,3.603-1.024,5.304-1.778
			c0.782-0.357,1.497-0.831,2.261-1.237c1.604-0.84,3.159-1.71,4.618-2.763c0.628-0.444,1.179-0.976,1.778-1.468
			c1.526-1.237,2.956-2.55,4.28-3.999c0.155-0.184,0.367-0.309,0.522-0.493l57.875,28.943v72.685
			c-16.616,4.318-28.981,19.321-28.981,37.27c0,2.773,0.328,5.468,0.879,8.076L405.826,307.955z"/>
	</g>
</g>
<g>
</g>
<g>
</g>
<g>
</g>
<g>
</g>
<g>
</g>
<g>
</g>
<g>
</g>
<g>
</g>
<g>
</g>
<g>
</g>
<g>
</g>
<g>
</g>
<g>
</g>
<g>
</g>
<g>
</g>
</svg>
