<?xml version="1.0" encoding="iso-8859-1"?>
<!-- Generator: Adobe Illustrator 19.0.0, SVG Export Plug-In . SVG Version: 6.00 Build 0)  -->
<svg version="1.1" id="Layer_1" xmlns="http://www.w3.org/2000/svg" xmlns:xlink="http://www.w3.org/1999/xlink" x="0px" y="0px"
	 viewBox="0 0 509.081 509.081" style="enable-background:new 0 0 509.081 509.081;" xml:space="preserve">
<g>
	<g>
		<g>
			<path d="M486.243,22.838c-30.46-30.442-80.002-30.442-110.453,0L265.337,133.292l-6.135-6.135c-3.393-3.384-8.878-3.384-12.271,0
				l-36.821,36.821c-1.631,1.623-2.543,3.827-2.543,6.135c0,2.3,0.911,4.504,2.543,6.135l24.55,24.55L105.723,329.726h147.265
				l55.296-55.305l24.55,24.55c1.631,1.631,3.836,2.543,6.135,2.543c2.308,0,4.513-0.911,6.135-2.543l36.821-36.821
				c3.384-3.393,3.384-8.878,0-12.271l-6.135-6.135l110.453-110.453C516.694,102.849,516.694,53.298,486.243,22.838z
				 M338.969,280.565l-24.55-24.55l-61.353-61.353l-24.55-24.55l24.55-24.55l6.135,6.135l98.182,98.183l6.135,6.135L338.969,280.565
				z M461.702,59.659c-3.393,3.393-8.878,3.393-12.271,0c-9.832-9.832-26.989-9.841-36.821-0.009l-15.872,15.872
				c-1.701,1.692-3.914,2.543-6.135,2.543s-4.443-0.85-6.135-2.543c-3.393-3.393-3.393-8.878,0-12.271L400.34,47.38
				c8.192-8.192,19.083-12.705,30.677-12.705s22.493,4.521,30.685,12.713C465.095,50.782,465.095,56.266,461.702,59.659z"/>
			<path d="M53.634,381.812c-11.212,11.212-18.623,26.025-20.862,41.724c-1.718,12.002-7.385,23.335-15.95,31.909l-9.207,9.207
				c-10.153,10.153-10.153,26.659,0,36.812c5.077,5.077,11.741,7.611,18.406,7.611c6.673,0,13.329-2.534,18.406-7.611l9.207-9.199
				c8.574-8.583,19.907-14.241,31.918-15.95c15.69-2.248,30.503-9.659,41.715-20.87l108.362-108.362H88.363L53.634,381.812z"/>
		</g>
	</g>
</g>
<g>
</g>
<g>
</g>
<g>
</g>
<g>
</g>
<g>
</g>
<g>
</g>
<g>
</g>
<g>
</g>
<g>
</g>
<g>
</g>
<g>
</g>
<g>
</g>
<g>
</g>
<g>
</g>
<g>
</g>
</svg>
