<?xml version="1.0" encoding="iso-8859-1"?>
<!-- Generator: Adobe Illustrator 19.0.0, SVG Export Plug-In . SVG Version: 6.00 Build 0)  -->
<svg version="1.1" id="Layer_1" xmlns="http://www.w3.org/2000/svg" xmlns:xlink="http://www.w3.org/1999/xlink" x="0px" y="0px"
	 viewBox="0 0 505.094 505.094" style="enable-background:new 0 0 505.094 505.094;" xml:space="preserve">
<g>
	<g>
		<g>
			<path d="M487.316,17.799C475.853,6.326,460.588,0,444.369,0c-16.228,0-31.492,6.326-42.956,17.799l-92.047,92.039
				c-11.472,11.472-17.799,26.719-17.799,42.956c0,16.228,6.326,31.475,17.799,42.956c11.837,11.837,27.388,17.764,42.947,17.764
				c15.551,0,31.119-5.927,42.965-17.764l92.039-92.056C511.007,80.02,511.007,41.472,487.316,17.799z M462.758,54.619
				c-3.376,3.376-8.878,3.393-12.271-0.017c-2.204-2.204-4.781-2.534-6.118-2.534c-1.345,0-3.931,0.33-6.144,2.543l-58.923,58.932
				c-1.701,1.692-3.914,2.543-6.135,2.543c-2.221,0-4.443-0.85-6.135-2.543c-3.393-3.393-3.393-8.878,0-12.271l58.923-58.932
				c6.63-6.639,14.388-7.628,18.415-7.628c4.027,0,11.776,0.989,18.406,7.637C466.159,45.742,466.159,51.226,462.758,54.619z"/>
			<path d="M1.182,492.068c-1.979,3.402-1.406,7.706,1.371,10.483c1.675,1.666,3.888,2.543,6.135,2.543
				c1.493,0,2.994-0.382,4.348-1.172c74.969-43.398,144.202-96.178,206.076-156.802H102.671
				C64.826,392.445,30.8,440.903,1.182,492.068z"/>
			<path d="M275.701,168.049L165.318,278.433c-16.566,16.566-32.525,33.705-47.911,51.33h119.296l100.378-100.378
				c-15.065-2.951-28.906-10.283-39.988-21.365C286.011,196.929,278.669,183.096,275.701,168.049z"/>
		</g>
	</g>
</g>
<g>
</g>
<g>
</g>
<g>
</g>
<g>
</g>
<g>
</g>
<g>
</g>
<g>
</g>
<g>
</g>
<g>
</g>
<g>
</g>
<g>
</g>
<g>
</g>
<g>
</g>
<g>
</g>
<g>
</g>
</svg>
