<?xml version="1.0" encoding="iso-8859-1"?>
<!-- Generator: Adobe Illustrator 19.0.0, SVG Export Plug-In . SVG Version: 6.00 Build 0)  -->
<svg version="1.1" id="Layer_1" xmlns="http://www.w3.org/2000/svg" xmlns:xlink="http://www.w3.org/1999/xlink" x="0px" y="0px"
	 viewBox="0 0 509.472 509.472" style="enable-background:new 0 0 509.472 509.472;" xml:space="preserve">
<g>
	<g>
		<g>
			<path d="M335.913,0C240.212,0,162.353,77.859,162.353,173.56c0,22.337,4.391,43.641,12.114,63.271l-16.124,16.115
				c-5.016,5.025-7.784,11.698-7.784,18.788c0,3.896,0.903,7.628,2.482,11.064l-99.024,99.033h147.256l25.4-25.4
				c3.436,1.579,7.168,2.482,11.064,2.482c7.09,0,13.763-2.768,18.788-7.784l16.115-16.124c19.63,7.723,40.934,12.114,63.271,12.114
				c95.701,0,173.559-77.859,173.559-173.559S431.613,0,335.913,0z M244.247,338.858c-3.454,3.454-9.381,3.454-12.887,0.095
				c-0.104-0.104-0.243-0.226-0.399-0.347l-60.164-60.182c-0.095-0.113-0.182-0.217-0.26-0.304
				c-1.684-1.718-2.621-3.966-2.621-6.387c0-2.456,0.955-4.764,2.699-6.517l11.464-11.464c0.13,0.234,0.278,0.46,0.399,0.694
				c0.998,1.883,2.083,3.705,3.15,5.545c1.658,2.898,3.376,5.753,5.189,8.539c0.833,1.267,1.675,2.525,2.543,3.775
				c2.499,3.627,5.137,7.142,7.906,10.57c0.382,0.46,0.738,0.946,1.12,1.406c3.428,4.139,6.986,8.183,10.804,12.002
				c3.818,3.818,7.862,7.376,12.002,10.804c0.46,0.382,0.946,0.738,1.406,1.119c3.428,2.768,6.942,5.406,10.57,7.906
				c1.25,0.868,2.508,1.71,3.775,2.543c2.786,1.814,5.641,3.532,8.539,5.189c1.84,1.067,3.662,2.152,5.545,3.15
				c0.234,0.121,0.46,0.269,0.694,0.399L244.247,338.858z M335.913,52.068c-44.336,0-83.647,24.229-105.142,64.807
				c-1.562,2.942-4.573,4.617-7.68,4.617c-1.371,0-2.76-0.321-4.053-1.007c-4.235-2.248-5.858-7.498-3.61-11.733
				c24.559-46.366,69.606-74.04,120.485-74.04c4.799,0,8.678,3.879,8.678,8.678S340.712,52.068,335.913,52.068z"/>
			<path d="M32.785,423.916c-1.71,12.002-7.385,23.326-15.959,31.909l-9.199,9.199C2.708,469.944,0,476.487,0,483.438
				c0,6.951,2.708,13.494,7.628,18.406c4.912,4.92,11.455,7.628,18.406,7.628s13.494-2.708,18.406-7.628l9.207-9.199
				c8.583-8.565,19.907-14.241,31.909-15.95c15.681-2.248,30.503-9.65,41.724-20.862l56.641-56.65H41.177
				C36.994,406.881,34.026,415.229,32.785,423.916z"/>
		</g>
	</g>
</g>
<g>
</g>
<g>
</g>
<g>
</g>
<g>
</g>
<g>
</g>
<g>
</g>
<g>
</g>
<g>
</g>
<g>
</g>
<g>
</g>
<g>
</g>
<g>
</g>
<g>
</g>
<g>
</g>
<g>
</g>
</svg>
