<?xml version="1.0" encoding="iso-8859-1"?>
<!-- Generator: Adobe Illustrator 19.0.0, SVG Export Plug-In . SVG Version: 6.00 Build 0)  -->
<svg version="1.1" id="Layer_1" xmlns="http://www.w3.org/2000/svg" xmlns:xlink="http://www.w3.org/1999/xlink" x="0px" y="0px"
	 viewBox="0 0 512 512" style="enable-background:new 0 0 512 512;" xml:space="preserve">
<g>
	<g>
		<g>
			<path d="M170.667,343.458c-58.3,0-106.24,45.201-110.609,102.4h106.684l48.649-56.747c3.072-3.584,8.457-3.994,12.032-0.93
				c3.575,3.072,3.994,8.448,0.922,12.023l-39.125,45.653h92.058C276.907,388.659,228.966,343.458,170.667,343.458z"/>
			<path d="M452.267,351.992h6.161c-2.961-5.077-8.405-8.533-14.694-8.533c-9.412,0-17.067,7.654-17.067,17.067
				c0,9.412,7.654,17.067,17.067,17.067c6.289,0,11.733-3.456,14.694-8.533h-6.161c-4.71,0-8.533-3.814-8.533-8.533
				C443.733,355.806,447.556,351.992,452.267,351.992z"/>
			<path d="M341.333,360.525c0,6.289,3.456,11.733,8.533,14.694v-6.161c0-4.719,3.823-8.533,8.533-8.533s8.533,3.814,8.533,8.533
				v6.161c5.077-2.961,8.533-8.405,8.533-14.694c0-9.412-7.654-17.067-17.067-17.067S341.333,351.113,341.333,360.525z"/>
			<path d="M486.4,283.725h-25.6v-85.333c0-4.719-3.823-8.533-8.533-8.533H435.2v-60.945c14.677-3.814,25.6-17.058,25.6-32.922
				c0-18.825-15.309-34.133-34.133-34.133c-15.855,0-29.107,10.914-32.922,25.6H292.753l-19.686,52.497L222.985,6.409l-40.525,81.05
				h-64.205c-3.814-14.686-17.067-25.6-32.922-25.6c-18.825,0-34.133,15.309-34.133,34.133c0,15.863,10.923,29.107,25.6,32.922
				v60.945H59.733c-4.71,0-8.533,3.814-8.533,8.533v85.333H25.6c-14.114,0-25.6,11.486-25.6,25.6v170.667
				c0,14.114,11.486,25.6,25.6,25.6h460.8c14.114,0,25.6-11.486,25.6-25.6V309.325C512,295.211,500.514,283.725,486.4,283.725z
				 M93.867,128.913c11.938-3.106,21.282-12.45,24.388-24.388h74.752l27.742-55.484l52.318,139.52l31.514-84.036h89.165
				c3.106,11.938,12.45,21.282,24.388,24.388v60.945h-17.067c-4.71,0-8.533,3.814-8.533,8.533v85.333H119.467v-85.333
				c0-4.719-3.823-8.533-8.533-8.533H93.867V128.913z M392.533,360.525c0,18.825-15.309,34.133-34.133,34.133
				s-34.133-15.309-34.133-34.133c0-18.825,15.309-34.133,34.133-34.133S392.533,341.7,392.533,360.525z M290.133,462.925H51.2
				c-4.71,0-8.533-3.814-8.533-8.533c0-70.579,57.421-128,128-128s128,57.421,128,128
				C298.667,459.11,294.844,462.925,290.133,462.925z M469.333,462.925H332.8c-4.71,0-8.533-3.814-8.533-8.533
				s3.823-8.533,8.533-8.533h136.533c4.71,0,8.533,3.814,8.533,8.533S474.044,462.925,469.333,462.925z M469.333,428.792H332.8
				c-4.71,0-8.533-3.814-8.533-8.533c0-4.719,3.823-8.533,8.533-8.533h136.533c4.71,0,8.533,3.814,8.533,8.533
				C477.867,424.977,474.044,428.792,469.333,428.792z M443.733,394.658c-18.825,0-34.133-15.309-34.133-34.133
				c0-18.825,15.309-34.133,34.133-34.133c18.825,0,34.133,15.309,34.133,34.133C477.867,379.349,462.558,394.658,443.733,394.658z"
				/>
		</g>
	</g>
</g>
<g>
</g>
<g>
</g>
<g>
</g>
<g>
</g>
<g>
</g>
<g>
</g>
<g>
</g>
<g>
</g>
<g>
</g>
<g>
</g>
<g>
</g>
<g>
</g>
<g>
</g>
<g>
</g>
<g>
</g>
</svg>
