<?xml version="1.0" encoding="iso-8859-1"?>
<!-- Generator: Adobe Illustrator 19.0.0, SVG Export Plug-In . SVG Version: 6.00 Build 0)  -->
<svg version="1.1" id="Layer_1" xmlns="http://www.w3.org/2000/svg" xmlns:xlink="http://www.w3.org/1999/xlink" x="0px" y="0px"
	 viewBox="0 0 503.85 503.85" style="enable-background:new 0 0 503.85 503.85;" xml:space="preserve">
<g>
	<g>
		<path d="M396.162,214.385L289.272,21.974C281.625,8.209,267.667,0,251.921,0c-15.738,0-29.704,8.209-37.342,21.974
			l-106.89,192.411c-45.879,82.566-28.882,184.37,41.329,247.556l4.482,4.029c28.059,25.247,63.236,37.88,98.422,37.88
			c35.185,0,70.379-12.632,98.438-37.88l4.474-4.029C425.044,398.756,442.041,296.952,396.162,214.385z M308.182,479.039
			l-4.507,4.054c-13.9,12.515-31.433,19.414-49.563,20.312c6.362-0.495,12.431-2.971,17.24-7.311l4.407-3.945
			c29.008-26.112,36.033-68.18,17.139-102.19l-29.176-54.591c-2.677-5.011-7.663-8.016-13.53-7.923
			c-5.674,0.117-10.735,3.374-13.195,8.477l-25.986,53.919c-18.961,34.119-11.969,76.162,17.005,102.249l3.743,3.341
			c3.685,3.315,7.336,5.565,10.87,6.698c2.787,0.898,5.624,1.326,8.452,1.41c-0.311,0-0.621,0.042-0.932,0.042
			c-9.451,0-19.011-1.654-28.244-5.053c-9.023-3.307-17.735-8.721-25.911-16.073l-3.785-3.408
			c-46.81-42.135-58.141-109.996-27.556-165.04l65.225-117.416c4.163-7.487,11.751-11.961,20.312-11.961
			c8.561,0,16.157,4.474,20.312,11.961l65.234,117.416C366.323,369.051,354.992,436.912,308.182,479.039z"/>
	</g>
</g>
<g>
</g>
<g>
</g>
<g>
</g>
<g>
</g>
<g>
</g>
<g>
</g>
<g>
</g>
<g>
</g>
<g>
</g>
<g>
</g>
<g>
</g>
<g>
</g>
<g>
</g>
<g>
</g>
<g>
</g>
</svg>
