<?xml version="1.0" encoding="iso-8859-1"?>
<!-- Generator: Adobe Illustrator 19.0.0, SVG Export Plug-In . SVG Version: 6.00 Build 0)  -->
<svg version="1.1" id="Layer_1" xmlns="http://www.w3.org/2000/svg" xmlns:xlink="http://www.w3.org/1999/xlink" x="0px" y="0px"
	 viewBox="0 0 503.675 503.675" style="enable-background:new 0 0 503.675 503.675;" xml:space="preserve">
<g>
	<g>
		<g>
			<path d="M493.613,416.307l-6.866-9.804c-1.57-2.249-4.138-3.584-6.874-3.584H23.152c-2.736,0-5.305,1.335-6.874,3.584
				l-6.085,8.696c-12.061,17.232-13.53,39.533-3.811,58.192c9.711,18.659,28.823,30.25,49.857,30.25h391.898
				c20.774,0,39.634-11.449,49.236-29.872C506.967,455.345,505.524,433.329,493.613,416.307z M452.956,461.674H50.07
				c-4.633,0-8.393-3.76-8.393-8.393c0-4.633,3.76-8.393,8.393-8.393h402.885c4.633,0,8.393,3.76,8.393,8.393
				C461.349,457.913,457.589,461.674,452.956,461.674z"/>
			<path d="M268.3,310.592c0,31.249,13.522,61.071,37.099,81.836c1.536,1.351,3.508,2.098,5.548,2.098h132.935
				c2.04,0,4.012-0.747,5.548-2.098c23.577-20.765,37.099-50.587,37.099-81.836c0-29.595-12.187-58.024-33.574-78.579V48.851
				c9.745-3.475,16.787-12.708,16.787-23.636c0-13.883-11.298-25.18-25.18-25.18H310.267c-13.883,0-25.18,11.298-25.18,25.18
				c0,10.928,7.042,20.161,16.787,23.636v183.162C280.487,252.568,268.3,280.997,268.3,310.592z M369.021,201.477h-25.18
				c-4.633,0-8.393-3.76-8.393-8.393s3.76-8.393,8.393-8.393h25.18c4.633,0,8.393,3.76,8.393,8.393S373.654,201.477,369.021,201.477
				z M394.201,167.903h-50.361c-4.633,0-8.393-3.76-8.393-8.393s3.76-8.393,8.393-8.393h50.361c4.633,0,8.393,3.76,8.393,8.393
				S398.835,167.903,394.201,167.903z M335.447,125.936c0-4.633,3.76-8.393,8.393-8.393h25.18c4.633,0,8.393,3.76,8.393,8.393
				c0,4.633-3.76,8.393-8.393,8.393h-25.18C339.208,134.33,335.447,130.569,335.447,125.936z M394.201,100.756h-50.361
				c-4.633,0-8.393-3.76-8.393-8.393s3.76-8.393,8.393-8.393h50.361c4.633,0,8.393,3.76,8.393,8.393
				S398.835,100.756,394.201,100.756z M310.267,16.821h134.295c4.625,0,8.393,3.769,8.393,8.393c0,4.625-3.769,8.393-8.393,8.393
				H310.267c-4.625,0-8.393-3.769-8.393-8.393C301.874,20.59,305.642,16.821,310.267,16.821z"/>
			<path d="M16.497,310.592c0,31.249,13.522,61.071,37.099,81.836c1.536,1.351,3.508,2.098,5.548,2.098h132.935
				c2.04,0,4.012-0.747,5.548-2.098c23.577-20.765,37.099-50.587,37.099-81.836c0-29.595-12.187-58.024-33.574-78.579V48.851
				c9.745-3.475,16.787-12.708,16.787-23.636c0-13.883-11.298-25.18-25.18-25.18H58.464c-13.883,0-25.18,11.298-25.18,25.18
				c0,10.928,7.042,20.161,16.787,23.636v183.162C28.684,252.568,16.497,280.997,16.497,310.592z M117.218,201.477h-25.18
				c-4.633,0-8.393-3.76-8.393-8.393s3.76-8.393,8.393-8.393h25.18c4.633,0,8.393,3.76,8.393,8.393S121.851,201.477,117.218,201.477
				z M142.398,167.903H92.037c-4.633,0-8.393-3.76-8.393-8.393s3.76-8.393,8.393-8.393h50.361c4.633,0,8.393,3.76,8.393,8.393
				S147.031,167.903,142.398,167.903z M83.644,125.936c0-4.633,3.76-8.393,8.393-8.393h25.18c4.633,0,8.393,3.76,8.393,8.393
				c0,4.633-3.76,8.393-8.393,8.393h-25.18C87.404,134.33,83.644,130.569,83.644,125.936z M142.398,100.756H92.037
				c-4.633,0-8.393-3.76-8.393-8.393s3.76-8.393,8.393-8.393h50.361c4.633,0,8.393,3.76,8.393,8.393
				S147.031,100.756,142.398,100.756z M58.464,16.821h134.295c4.625,0,8.393,3.769,8.393,8.393c0,4.625-3.769,8.393-8.393,8.393
				H58.464c-4.625,0-8.393-3.769-8.393-8.393C50.07,20.59,53.839,16.821,58.464,16.821z"/>
		</g>
	</g>
</g>
<g>
</g>
<g>
</g>
<g>
</g>
<g>
</g>
<g>
</g>
<g>
</g>
<g>
</g>
<g>
</g>
<g>
</g>
<g>
</g>
<g>
</g>
<g>
</g>
<g>
</g>
<g>
</g>
<g>
</g>
</svg>
