<?xml version="1.0" encoding="iso-8859-1"?>
<!-- Generator: Adobe Illustrator 19.0.0, SVG Export Plug-In . SVG Version: 6.00 Build 0)  -->
<svg version="1.1" id="Layer_1" xmlns="http://www.w3.org/2000/svg" xmlns:xlink="http://www.w3.org/1999/xlink" x="0px" y="0px"
	 viewBox="0 0 511.998 511.998" style="enable-background:new 0 0 511.998 511.998;" xml:space="preserve">
<g>
	<g>
		<g>
			<path d="M389.095,405.75c-35.49-10.172-65.587-3.738-82.193,17.783c-21.257,27.307-43.529,37.376-66.031,37.376
				c-24.482,0.009-49.246-11.93-73.284-26.564c-19.55-10.069-36.523-15.778-48.572-16.213h-7.817
				c2.014,34.031,15.804,66.167,39.637,91.221c1.613,1.69,3.849,2.645,6.187,2.645h197.683c2.338,0,4.565-0.956,6.178-2.645
				c25.796-27.11,40.004-62.49,40.038-99.618L389.095,405.75z"/>
			<path d="M175.938,419.473c47.326,28.791,83.217,37.615,117.47-6.4c21.103-27.315,57.83-35.925,100.762-23.612l5.581,1.877
				c-5.495-42.786-30.063-81.493-67.089-104.678V67.055c14.677-3.814,25.6-17.067,25.6-32.922C358.261,15.309,342.953,0,324.128,0
				H187.595c-18.825,0-34.133,15.309-34.133,34.133c0,15.855,10.923,29.107,25.6,32.922V286.66
				c-39.817,24.926-65.203,67.814-67.985,114.406h8.252C134.389,401.613,153.333,407.808,175.938,419.473z M247.328,221.867h-25.6
				c-4.71,0-8.533-3.823-8.533-8.533c0-4.71,3.823-8.533,8.533-8.533h25.6c4.71,0,8.533,3.823,8.533,8.533
				C255.861,218.044,252.038,221.867,247.328,221.867z M272.928,187.733h-51.2c-4.71,0-8.533-3.823-8.533-8.533
				s3.823-8.533,8.533-8.533h51.2c4.71,0,8.533,3.823,8.533,8.533S277.638,187.733,272.928,187.733z M213.195,145.067
				c0-4.71,3.823-8.533,8.533-8.533h25.6c4.71,0,8.533,3.823,8.533,8.533c0,4.71-3.823,8.533-8.533,8.533h-25.6
				C217.018,153.6,213.195,149.777,213.195,145.067z M272.928,119.467h-51.2c-4.71,0-8.533-3.823-8.533-8.533
				s3.823-8.533,8.533-8.533h51.2c4.71,0,8.533,3.823,8.533,8.533S277.638,119.467,272.928,119.467z M170.528,34.133
				c0-9.412,7.654-17.067,17.067-17.067h136.533c9.412,0,17.067,7.654,17.067,17.067c0,9.412-7.654,17.067-17.067,17.067H187.595
				C178.182,51.2,170.528,43.546,170.528,34.133z"/>
		</g>
	</g>
</g>
<g>
</g>
<g>
</g>
<g>
</g>
<g>
</g>
<g>
</g>
<g>
</g>
<g>
</g>
<g>
</g>
<g>
</g>
<g>
</g>
<g>
</g>
<g>
</g>
<g>
</g>
<g>
</g>
<g>
</g>
</svg>
