<?xml version="1.0" encoding="iso-8859-1"?>
<!-- Generator: Adobe Illustrator 19.0.0, SVG Export Plug-In . SVG Version: 6.00 Build 0)  -->
<svg version="1.1" id="Layer_1" xmlns="http://www.w3.org/2000/svg" xmlns:xlink="http://www.w3.org/1999/xlink" x="0px" y="0px"
	 viewBox="0 0 511.998 511.998" style="enable-background:new 0 0 511.998 511.998;" xml:space="preserve">
<g>
	<g>
		<g>
			<path d="M61.676,314.206c16.734,2.534,47.659,3.174,66.492-21.188c44.382-57.037,93.175-38.904,139.307-10.812
				c41.788,20.395,54.895,23.347,76.356,1.894c41.276-38.084,76.459-22.366,110.49-7.151l4.471,2.432
				c-9.967-71.885-57.856-134.477-125.995-162.074V67.055c14.686-3.814,25.6-17.067,25.6-32.922C358.397,15.309,343.088,0,324.264,0
				H187.73c-18.825,0-34.133,15.309-34.133,34.133c0,15.855,10.914,29.107,25.6,32.922v50.253
				c-76.809,31.104-128,106.658-128,189.892c0,2.313,0.102,4.608,0.179,6.912h9.011C60.814,314.112,61.249,314.138,61.676,314.206z
				 M170.664,34.133c0-9.412,7.654-17.067,17.067-17.067h136.533c9.412,0,17.067,7.654,17.067,17.067
				c0,9.412-7.654,17.067-17.067,17.067H187.73C178.318,51.2,170.664,43.546,170.664,34.133z M162.13,162.133h34.133
				c4.719,0,8.533,3.823,8.533,8.533s-3.814,8.533-8.533,8.533H162.13c-4.719,0-8.533-3.823-8.533-8.533
				S157.411,162.133,162.13,162.133z M136.53,196.267h25.6c4.719,0,8.533,3.823,8.533,8.533c0,4.71-3.814,8.533-8.533,8.533h-25.6
				c-4.719,0-8.533-3.823-8.533-8.533C127.997,200.09,131.811,196.267,136.53,196.267z M110.93,230.4h42.667
				c4.719,0,8.533,3.823,8.533,8.533s-3.814,8.533-8.533,8.533H110.93c-4.719,0-8.533-3.823-8.533-8.533S106.211,230.4,110.93,230.4
				z"/>
			<path d="M460.511,299.732l-13.756-7.501c-35.934-16.034-59.921-24.593-91.11,4.173c-30.643,30.66-55.356,20.821-96.358,0.751
				c-47.479-28.86-83.379-37.675-117.641,6.323c-17.766,23.006-46.822,32.845-81.894,27.699h-7.108
				c11.921,101.666,98.543,180.821,203.358,180.821c112.922,0,204.8-91.87,204.8-204.8
				C460.801,304.698,460.605,302.223,460.511,299.732z"/>
		</g>
	</g>
</g>
<g>
</g>
<g>
</g>
<g>
</g>
<g>
</g>
<g>
</g>
<g>
</g>
<g>
</g>
<g>
</g>
<g>
</g>
<g>
</g>
<g>
</g>
<g>
</g>
<g>
</g>
<g>
</g>
<g>
</g>
</svg>
