<?xml version="1.0" encoding="iso-8859-1"?>
<!-- Generator: Adobe Illustrator 19.0.0, SVG Export Plug-In . SVG Version: 6.00 Build 0)  -->
<svg version="1.1" id="Layer_1" xmlns="http://www.w3.org/2000/svg" xmlns:xlink="http://www.w3.org/1999/xlink" x="0px" y="0px"
	 viewBox="0 0 512 512" style="enable-background:new 0 0 512 512;" xml:space="preserve">
<g>
	<g>
		<path d="M476.092,489.728l-77.414-100.642c11.46-5.513,19.456-17.143,19.456-30.686c0-18.825-15.309-34.133-34.133-34.133h-4.838
			c-9.37-33.604-32.418-62.507-63.428-78.942V67.055c14.677-3.814,25.6-17.067,25.6-32.922C341.333,15.309,326.025,0,307.2,0H204.8
			c-18.825,0-34.133,15.309-34.133,34.133c0,15.855,10.923,29.107,25.6,32.922v178.27c-31.01,16.435-54.059,45.338-63.428,78.942
			H128c-18.825,0-34.133,15.309-34.133,34.133c0,13.542,7.996,25.173,19.456,30.686L35.908,489.728
			c-2.876,3.738-2.176,9.097,1.553,11.964c1.553,1.203,3.388,1.775,5.205,1.775c2.552,0,5.086-1.143,6.758-3.328l82.773-107.605
			h0.597c14.421,52.019,60.885,89.839,114.671,93.491v17.442c0,4.71,3.823,8.533,8.533,8.533c4.71,0,8.533-3.823,8.533-8.533
			v-17.442c53.786-3.652,100.25-41.472,114.671-93.491h0.597l82.773,107.605c1.672,2.185,4.207,3.328,6.758,3.328
			c1.818,0,3.652-0.572,5.205-1.775C478.268,498.825,478.967,493.466,476.092,489.728z M187.733,34.133
			c0-9.412,7.654-17.067,17.067-17.067h102.4c9.412,0,17.067,7.654,17.067,17.067c0,9.412-7.654,17.067-17.067,17.067H204.8
			C195.388,51.2,187.733,43.546,187.733,34.133z M238.933,187.733c-4.71,0-8.533-3.823-8.533-8.533s3.823-8.533,8.533-8.533h34.133
			c4.71,0,8.533,3.823,8.533,8.533s-3.823,8.533-8.533,8.533H238.933z M264.533,213.333c0,4.71-3.823,8.533-8.533,8.533h-17.067
			c-4.71,0-8.533-3.823-8.533-8.533c0-4.71,3.823-8.533,8.533-8.533H256C260.71,204.8,264.533,208.623,264.533,213.333z
			 M230.4,145.067c0-4.71,3.823-8.533,8.533-8.533H256c4.71,0,8.533,3.823,8.533,8.533c0,4.71-3.823,8.533-8.533,8.533h-17.067
			C234.223,153.6,230.4,149.777,230.4,145.067z M273.067,119.467h-34.133c-4.71,0-8.533-3.823-8.533-8.533s3.823-8.533,8.533-8.533
			h34.133c4.71,0,8.533,3.823,8.533,8.533S277.777,119.467,273.067,119.467z M384,375.467h-11.349H139.349H128
			c-9.412,0-17.067-7.654-17.067-17.067s7.654-17.067,17.067-17.067h11.307h233.387H384c9.412,0,17.067,7.654,17.067,17.067
			S393.412,375.467,384,375.467z"/>
	</g>
</g>
<g>
</g>
<g>
</g>
<g>
</g>
<g>
</g>
<g>
</g>
<g>
</g>
<g>
</g>
<g>
</g>
<g>
</g>
<g>
</g>
<g>
</g>
<g>
</g>
<g>
</g>
<g>
</g>
<g>
</g>
</svg>
