<?xml version="1.0" encoding="iso-8859-1"?>
<!-- Generator: Adobe Illustrator 19.0.0, SVG Export Plug-In . SVG Version: 6.00 Build 0)  -->
<svg version="1.1" id="Layer_1" xmlns="http://www.w3.org/2000/svg" xmlns:xlink="http://www.w3.org/1999/xlink" x="0px" y="0px"
	 viewBox="0 0 511.999 511.999" style="enable-background:new 0 0 511.999 511.999;" xml:space="preserve">
<g>
	<g>
		<g>
			<path d="M119.829,318.839l7.057,4.966c5.487,3.277,10.658,6.98,15.3,11.008c32.265,32.239,81.766,58.001,116.608,25.779
				c0.256-0.239,0.521-0.452,0.794-0.648c43.622-39.356,102.076-10.411,139.034,26.556c7.467,6.46,16.631,11.989,26.812,16.034
				l5.385,2.253c-0.503-20.087-6.724-39.672-18.278-56.482l-71.151-103.492V67.055c14.677-3.814,25.6-17.067,25.6-32.922
				C366.988,15.309,351.679,0,332.855,0h-153.6c-18.825,0-34.133,15.309-34.133,34.133c0,15.855,10.923,29.107,25.6,32.922v177.758
				L119.829,318.839z M230.455,221.867h-17.067c-4.719,0-8.533-3.823-8.533-8.533c0-4.71,3.814-8.533,8.533-8.533h17.067
				c4.719,0,8.533,3.823,8.533,8.533C238.988,218.044,235.174,221.867,230.455,221.867z M247.522,187.733h-34.133
				c-4.719,0-8.533-3.823-8.533-8.533s3.814-8.533,8.533-8.533h34.133c4.719,0,8.533,3.823,8.533,8.533
				S252.24,187.733,247.522,187.733z M204.855,145.067c0-4.71,3.814-8.533,8.533-8.533h17.067c4.719,0,8.533,3.823,8.533,8.533
				c0,4.71-3.814,8.533-8.533,8.533h-17.067C208.669,153.6,204.855,149.777,204.855,145.067z M247.522,119.467h-34.133
				c-4.719,0-8.533-3.823-8.533-8.533s3.814-8.533,8.533-8.533h34.133c4.719,0,8.533,3.823,8.533,8.533
				S252.24,119.467,247.522,119.467z M162.188,34.133c0-9.412,7.654-17.067,17.067-17.067h153.6c9.412,0,17.067,7.654,17.067,17.067
				c0,9.412-7.654,17.067-17.067,17.067h-153.6C169.843,51.2,162.188,43.546,162.188,34.133z"/>
			<path d="M386.989,398.975c-32.273-32.256-81.792-57.984-116.608-25.779c-0.247,0.239-0.521,0.452-0.794,0.657
				c-43.614,39.356-102.067,10.411-139.034-26.564c-3.439-2.953-7.825-6.093-12.971-9.19l-7.407-5.214l-10.607,15.42
				c-14.899,21.675-21.043,47.949-17.331,73.976c7.313,51.149,51.772,89.719,103.441,89.719h140.749
				c51.482,0,95.787-38.298,103.339-89.165l-10.778-4.497C407.161,413.644,396.358,407.107,386.989,398.975z"/>
		</g>
	</g>
</g>
<g>
</g>
<g>
</g>
<g>
</g>
<g>
</g>
<g>
</g>
<g>
</g>
<g>
</g>
<g>
</g>
<g>
</g>
<g>
</g>
<g>
</g>
<g>
</g>
<g>
</g>
<g>
</g>
<g>
</g>
</svg>
