<?xml version="1.0" encoding="iso-8859-1"?>
<!-- Generator: Adobe Illustrator 19.0.0, SVG Export Plug-In . SVG Version: 6.00 Build 0)  -->
<svg version="1.1" id="Layer_1" xmlns="http://www.w3.org/2000/svg" xmlns:xlink="http://www.w3.org/1999/xlink" x="0px" y="0px"
	 viewBox="0 0 512.003 512.003" style="enable-background:new 0 0 512.003 512.003;" xml:space="preserve">
<g>
	<g>
		<g>
			<path d="M38.049,308.147c0.256,0.137,0.503,0.282,0.742,0.435c41.865,27.264,98.287,36.685,125.116,1.937
				c44.399-57.02,93.193-38.895,139.324-10.812c50.987,30.831,68.403,9.242,74.121,2.142c25.651-28.399,62.438-23.322,117.419-5.094
				l4.855,1.8c-15.061-85.965-74.65-158.805-158.293-189.508V66.543c14.78-4.352,25.6-17.152,25.6-32.41
				C366.932,15.309,350.574,0,330.47,0H181.529c-20.105,0-36.463,15.309-36.463,34.133c0,15.258,10.82,28.058,25.6,32.41v42.505
				C87.022,139.75,27.434,212.582,12.373,298.547l9.532,3.029C27.92,303.497,33.202,305.647,38.049,308.147z M162.133,34.133
				c0-9.412,8.704-17.067,19.396-17.067H330.47c10.692,0,19.396,7.654,19.396,17.067c0,9.412-8.704,17.067-19.396,17.067H181.529
				C170.836,51.2,162.133,43.546,162.133,34.133z M110.933,187.733h51.2c4.71,0,8.533,3.823,8.533,8.533s-3.823,8.533-8.533,8.533
				h-51.2c-4.71,0-8.533-3.823-8.533-8.533S106.222,187.733,110.933,187.733z M85.332,221.867h25.6c4.71,0,8.533,3.823,8.533,8.533
				s-3.823,8.533-8.533,8.533h-25.6c-4.71,0-8.533-3.823-8.533-8.533S80.622,221.867,85.332,221.867z M68.266,256h51.2
				c4.71,0,8.533,3.823,8.533,8.533c0,4.71-3.823,8.533-8.533,8.533h-51.2c-4.71,0-8.533-3.823-8.533-8.533
				C59.732,259.823,63.555,256,68.266,256z"/>
			<path d="M502.214,317.708l-13.09-4.847c-56.73-18.807-81.732-18.816-98.79,0.06c-14.515,18.022-43.247,33.263-95.957,1.374
				c-46.831-28.51-82.731-37.325-116.975,6.682c-33.05,42.786-99.157,33.485-147.55,2.15c-3.942-2.005-8.124-3.695-13.124-5.291
				l-6.707-2.133c-0.879,8.465-1.485,16.99-1.485,25.634c0,62.421,23.347,122.061,65.749,167.919
				c1.613,1.749,3.883,2.748,6.263,2.748h350.899c2.381,0,4.651-0.998,6.272-2.748c42.394-45.858,65.749-105.498,65.749-167.919
				C503.468,333.375,502.956,325.516,502.214,317.708z"/>
		</g>
	</g>
</g>
<g>
</g>
<g>
</g>
<g>
</g>
<g>
</g>
<g>
</g>
<g>
</g>
<g>
</g>
<g>
</g>
<g>
</g>
<g>
</g>
<g>
</g>
<g>
</g>
<g>
</g>
<g>
</g>
<g>
</g>
</svg>
