<?xml version="1.0" encoding="iso-8859-1"?>
<!-- Generator: Adobe Illustrator 19.0.0, SVG Export Plug-In . SVG Version: 6.00 Build 0)  -->
<svg version="1.1" id="Layer_1" xmlns="http://www.w3.org/2000/svg" xmlns:xlink="http://www.w3.org/1999/xlink" x="0px" y="0px"
	 viewBox="0 0 512.016 512.016" style="enable-background:new 0 0 512.016 512.016;" xml:space="preserve">
<g transform="translate(0 -1)">
	<g>
		<g>
			<path d="M486.408,461.816H373.324l-24.371-82.884c-10.769-36.608-44.945-62.182-83.115-62.182
				c-47.761,0-86.63,38.869-86.63,86.63v58.436h-153.6c-4.719,0-8.533,3.814-8.533,8.533v34.133c0,4.719,3.814,8.533,8.533,8.533
				h460.8c4.719,0,8.533-3.814,8.533-8.533V470.35C494.941,465.631,491.127,461.816,486.408,461.816z M264.541,453.283
				c-28.237,0-51.2-22.963-51.2-51.2c0-28.237,22.963-51.2,51.2-51.2s51.2,22.963,51.2,51.2
				C315.741,430.32,292.778,453.283,264.541,453.283z"/>
			<path d="M140.294,307.48l28.254,19.14c1.417,0.964,3.089,1.468,4.787,1.468c0.529,0,1.075-0.043,1.604-0.145
				c2.227-0.435,4.19-1.724,5.461-3.601l14.353-21.197v0.009c1.417,0.956,3.098,1.459,4.787,1.459c0.538,0,1.075-0.043,1.604-0.145
				c2.227-0.435,4.19-1.724,5.461-3.601l18.005-26.581l31.531-17.707c0.213-0.128,0.384-0.299,0.58-0.444
				c0.358-0.23,0.708-0.461,1.024-0.759c0.239-0.222,0.427-0.478,0.631-0.717c0.213-0.247,0.461-0.461,0.649-0.734l20.053-29.577
				c8.388,4.497,17.963,7.066,28.126,7.066c32.939,0,59.733-26.795,59.733-59.733c0-18.27-8.269-34.637-21.24-45.602l13.909-20.523
				c1.263-1.869,1.741-4.173,1.314-6.4c-0.435-2.219-1.724-4.181-3.601-5.453l-7.236-4.907l5.547-8.661
				c1.988,0.495,4.019,0.802,6.084,0.802c1.69,0,3.396-0.162,5.111-0.503c6.716-1.34,12.518-5.197,16.35-10.854
				c3.84-5.666,5.214-12.467,3.874-19.174c-1.331-6.63-5.171-12.399-10.82-16.222L333.839,5.468
				c-5.641-3.831-12.433-5.282-19.072-4.028c-6.724,1.246-12.535,5.052-16.375,10.726c-3.823,5.649-5.248,12.467-4.002,19.2
				c0.725,3.917,2.389,7.458,4.676,10.547l-5.504,8.593l-6.886-4.668c-3.891-2.628-9.199-1.621-11.853,2.278L174.24,196.487
				c-0.077,0.111-0.085,0.247-0.154,0.358c-0.435,0.717-0.759,1.493-0.973,2.313c-0.051,0.213-0.128,0.41-0.171,0.623
				c-0.017,0.128-0.077,0.239-0.094,0.367l-4.753,35.84l-18.014,26.598c-2.637,3.9-1.621,9.208,2.287,11.844l-14.362,21.205
				C135.371,299.535,136.395,304.843,140.294,307.48z M330.306,182.714c3.337,3.337,3.337,8.738,0,12.066
				c-1.664,1.673-3.849,2.5-6.033,2.5s-4.369-0.828-6.033-2.5l-11.034-11.034l-11.034,11.034c-1.664,1.673-3.849,2.5-6.033,2.5
				c-2.185,0-4.369-0.828-6.033-2.5c-3.328-3.328-3.328-8.73,0-12.066l11.034-11.034l-11.034-11.034
				c-3.328-3.328-3.328-8.73,0-12.066c3.336-3.328,8.738-3.328,12.066,0l11.034,11.034l11.034-11.034
				c3.337-3.328,8.738-3.328,12.066,0c3.337,3.337,3.337,8.738,0,12.066l-11.034,11.034L330.306,182.714z M312.386,52.768
				L329.7,64.502l10.931,7.407l-4.685,7.305l-28.245-19.132L312.386,52.768z M284.166,64.758l56.525,38.281l-9.481,13.986
				c-7.356-3.243-15.462-5.077-24.004-5.077c-32.93,0-59.733,26.803-59.733,59.733c0,13.961,4.762,27.059,13.346,37.564
				c0.119,0.137,0.222,0.299,0.333,0.435c0.444,0.521,0.93,1.007,1.382,1.519c0.896,1.015,1.792,2.022,2.756,2.978
				c0.017,0.009,0.026,0.017,0.034,0.034l-15.642,23.074l-16.956-11.486l-39.569-26.803L284.166,64.758z M187.953,216.079
				l47.787,32.375l-16.64,9.344l-16.828-11.401l-16.828-11.401L187.953,216.079z M166.5,284.005l14.123,9.566l-9.574,14.14
				l-14.123-9.574L166.5,284.005z"/>
			<path d="M264.54,367.951c-18.825,0-34.133,15.309-34.133,34.133c0,18.825,15.309,34.133,34.133,34.133
				s34.133-15.309,34.133-34.133C298.673,383.26,283.364,367.951,264.54,367.951z M282.656,408.135
				c3.328,3.337,3.311,8.738-0.034,12.066c-1.664,1.656-3.84,2.483-6.016,2.483c-2.193,0-4.378-0.845-6.05-2.517l-5.999-6.033
				l-6.05,6.05c-1.664,1.664-3.848,2.5-6.033,2.5c-2.185,0-4.369-0.836-6.033-2.5c-3.328-3.337-3.328-8.738,0-12.066l6.084-6.084
				l-6.033-6.076c-3.328-3.345-3.311-8.738,0.034-12.066c3.345-3.336,8.738-3.311,12.066,0.034l5.999,6.033l5.982-5.973
				c3.337-3.336,8.738-3.336,12.066,0c3.337,3.328,3.337,8.73,0,12.066l-6.016,6.016L282.656,408.135z"/>
			<path d="M59.742,427.683h102.4V403.38c0-9.31,1.348-18.304,3.661-26.897H59.742c-4.719,0-8.533,3.814-8.533,8.533v34.133
				C51.208,423.869,55.023,427.683,59.742,427.683z"/>
			<path d="M365.324,374.117l6.221,21.163c24.576-32.401,38.059-71.518,38.059-112.666c0-34.116-9.489-67.456-27-96.512
				c-6.101,31.983-32.094,56.917-64.572,61.525c4.096,11.17,6.238,22.98,6.238,34.987c0,10.897-1.843,21.658-5.299,31.949
				C340.834,327.687,357.832,348.645,365.324,374.117z"/>
		</g>
	</g>
</g>
<g>
</g>
<g>
</g>
<g>
</g>
<g>
</g>
<g>
</g>
<g>
</g>
<g>
</g>
<g>
</g>
<g>
</g>
<g>
</g>
<g>
</g>
<g>
</g>
<g>
</g>
<g>
</g>
<g>
</g>
</svg>
