<?xml version="1.0" encoding="iso-8859-1"?>
<!-- Generator: Adobe Illustrator 19.0.0, SVG Export Plug-In . SVG Version: 6.00 Build 0)  -->
<svg version="1.1" id="Layer_1" xmlns="http://www.w3.org/2000/svg" xmlns:xlink="http://www.w3.org/1999/xlink" x="0px" y="0px"
	 viewBox="0 0 512 512" style="enable-background:new 0 0 512 512;" xml:space="preserve">
<g>
	<g>
		<path d="M486.4,409.6h-25.6V135.671c19.447-3.968,34.133-21.197,34.133-41.805c0-23.526-19.14-42.667-42.667-42.667
			c-13.884,0-26.121,6.767-33.911,17.067H93.645C85.854,57.967,73.617,51.2,59.733,51.2c-23.526,0-42.667,19.14-42.667,42.667
			c0,20.608,14.686,37.837,34.133,41.805V409.6H25.6C11.486,409.6,0,421.086,0,435.2s11.486,25.6,25.6,25.6h460.8
			c14.114,0,25.6-11.486,25.6-25.6S500.514,409.6,486.4,409.6z M101.538,85.333h308.924c-0.563,2.756-0.862,5.615-0.862,8.533
			s0.299,5.777,0.862,8.533H101.538c0.563-2.756,0.862-5.615,0.862-8.533S102.101,88.09,101.538,85.333z M238.933,247.467
			c9.412,0,17.067,7.663,17.067,17.067c0,9.412-7.654,17.067-17.067,17.067s-17.067-7.654-17.067-17.067
			C221.867,255.13,229.521,247.467,238.933,247.467z M213.333,242.193c-4.446-5.094-10.325-8.832-17.067-10.581V119.467H230.4
			v112.145C223.659,233.361,217.779,237.099,213.333,242.193z M247.467,231.612V119.467H281.6v112.145
			c-6.741,1.749-12.621,5.487-17.067,10.581C260.087,237.099,254.208,233.361,247.467,231.612z M145.067,231.612V119.467H179.2
			v112.145c-6.741,1.749-12.621,5.487-17.067,10.581C157.688,237.099,151.808,233.361,145.067,231.612z M153.6,264.533
			c0,9.412-7.654,17.067-17.067,17.067c-9.412,0-17.067-7.654-17.067-17.067c0-9.404,7.654-17.067,17.067-17.067
			C145.946,247.467,153.6,255.13,153.6,264.533z M443.733,409.6H68.267V135.671c10.351-2.108,19.226-8.073,25.378-16.205H128
			v112.145c-14.686,3.814-25.6,17.058-25.6,32.922c0,18.825,15.309,34.133,34.133,34.133c10.249,0,19.337-4.625,25.6-11.793
			c6.263,7.168,15.351,11.793,25.6,11.793s19.337-4.625,25.6-11.793c6.263,7.168,15.351,11.793,25.6,11.793
			s19.337-4.625,25.6-11.793c6.263,7.168,15.352,11.793,25.6,11.793c18.825,0,34.133-15.309,34.133-34.133
			c0-15.863-10.914-29.107-25.6-32.922V119.467h36.523l38.827,116.471c-9.378,6.093-15.616,16.606-15.616,28.595
			c0,18.825,15.309,34.133,34.133,34.133c18.825,0,34.133-15.309,34.133-34.133S411.358,230.4,392.533,230.4
			c-0.794,0-1.527,0.179-2.304,0.23l-37.06-111.164h65.186c6.153,8.132,15.027,14.097,25.378,16.205V409.6z"/>
	</g>
</g>
<g>
</g>
<g>
</g>
<g>
</g>
<g>
</g>
<g>
</g>
<g>
</g>
<g>
</g>
<g>
</g>
<g>
</g>
<g>
</g>
<g>
</g>
<g>
</g>
<g>
</g>
<g>
</g>
<g>
</g>
</svg>
