<?xml version="1.0" encoding="iso-8859-1"?>
<!-- Generator: Adobe Illustrator 19.0.0, SVG Export Plug-In . SVG Version: 6.00 Build 0)  -->
<svg version="1.1" id="Layer_1" xmlns="http://www.w3.org/2000/svg" xmlns:xlink="http://www.w3.org/1999/xlink" x="0px" y="0px"
	 viewBox="0 0 512 512" style="enable-background:new 0 0 512 512;" xml:space="preserve">
<g>
	<g>
		<g>
			<path d="M264.828,303.842l52.966,30.27l52.966-30.27v-60.381L317.794,213.2l-52.966,30.27V303.842z M282.484,258.839
				c0-3.178,1.695-6.1,4.449-7.662l26.483-15.13c4.255-2.428,9.631-0.953,12.041,3.284c2.419,4.228,0.945,9.631-3.284,12.041
				l-22.034,12.588v24.514c0,4.882-3.955,8.828-8.828,8.828s-8.828-3.946-8.828-8.828V258.839z"/>
			<path d="M247.172,303.843v-60.381l-52.966-30.261l-52.966,30.261v60.381l52.966,30.27L247.172,303.843z M176.552,288.474
				c0,4.882-3.955,8.828-8.828,8.828c-4.873,0-8.828-3.946-8.828-8.828V258.84c0-3.178,1.695-6.1,4.449-7.671l26.483-15.122
				c4.255-2.428,9.631-0.953,12.041,3.284c2.419,4.228,0.953,9.622-3.284,12.041l-22.034,12.588V288.474z"/>
			<path d="M317.793,44.138c0-0.009,0.009-0.026,0.009-0.035L317.793,0H194.207v44.138v8.828h123.586V44.138z"/>
			<path d="M308.966,197.917v-60.381L256,107.267l-52.966,30.27v60.381L256,228.178L308.966,197.917z M238.345,182.539
				c0,4.882-3.955,8.828-8.828,8.828c-4.873,0-8.828-3.946-8.828-8.828v-29.634c0-3.169,1.695-6.091,4.449-7.662l26.483-15.13
				c4.246-2.428,9.631-0.945,12.041,3.284c2.419,4.237,0.953,9.631-3.284,12.041l-22.034,12.588V182.539z"/>
			<path d="M432.552,0h-97.103v35.31h70.621c9.737,0,17.655,7.918,17.655,17.655v406.069c0,9.737-7.918,17.655-17.655,17.655
				H105.931c-9.737,0-17.655-7.918-17.655-17.655V52.966c0-9.737,7.918-17.655,17.655-17.655h70.621V0H79.448
				C64.847,0,52.966,11.882,52.966,26.483v459.034c0,14.601,11.882,26.483,26.483,26.483h353.103
				c14.601,0,26.483-11.882,26.483-26.483V26.483C459.034,11.882,447.153,0,432.552,0z"/>
			<path d="M105.931,52.966v406.069h300.138V52.966h-70.621c0,9.737-7.918,17.655-17.655,17.655H194.207
				c-9.737,0-17.655-7.918-17.655-17.655H105.931z M379.586,432.552h-70.621c-4.873,0-8.828-3.946-8.828-8.828
				s3.955-8.828,8.828-8.828h70.621c4.873,0,8.828,3.946,8.828,8.828S384.459,432.552,379.586,432.552z M379.586,397.241H291.31
				c-4.873,0-8.828-3.946-8.828-8.828c0-4.882,3.955-8.828,8.828-8.828h88.276c4.873,0,8.828,3.946,8.828,8.828
				C388.414,393.295,384.459,397.241,379.586,397.241z M185.379,197.914v-65.501c0-3.16,1.695-6.091,4.449-7.662l61.793-35.31
				c2.719-1.554,6.038-1.554,8.757,0l61.793,35.31c2.754,1.571,4.449,4.502,4.449,7.662v65.501l57.344,32.768
				c2.754,1.571,4.449,4.502,4.449,7.662v70.621c0,3.16-1.695,6.091-4.449,7.662l-61.793,35.31
				c-1.359,0.777-2.869,1.165-4.378,1.165s-3.019-0.388-4.378-1.165L256,319.135l-57.415,32.803
				c-1.359,0.777-2.869,1.165-4.378,1.165s-3.019-0.388-4.378-1.165l-61.793-35.31c-2.754-1.571-4.449-4.502-4.449-7.662v-70.621
				c0-3.16,1.695-6.091,4.449-7.662L185.379,197.914z"/>
		</g>
	</g>
</g>
<g>
</g>
<g>
</g>
<g>
</g>
<g>
</g>
<g>
</g>
<g>
</g>
<g>
</g>
<g>
</g>
<g>
</g>
<g>
</g>
<g>
</g>
<g>
</g>
<g>
</g>
<g>
</g>
<g>
</g>
</svg>
