<?xml version="1.0" encoding="iso-8859-1"?>
<!-- Generator: Adobe Illustrator 19.0.0, SVG Export Plug-In . SVG Version: 6.00 Build 0)  -->
<svg version="1.1" id="Layer_1" xmlns="http://www.w3.org/2000/svg" xmlns:xlink="http://www.w3.org/1999/xlink" x="0px" y="0px"
	 viewBox="0 0 512 512" style="enable-background:new 0 0 512 512;" xml:space="preserve">
<g>
	<g>
		<path d="M486.4,8.533H25.6C11.093,8.533,0,19.627,0,34.133V51.2c0,14.507,11.093,25.6,25.6,25.6h460.8
			c14.507,0,25.6-11.093,25.6-25.6V34.133C512,19.627,500.907,8.533,486.4,8.533z"/>
	</g>
</g>
<g>
	<g>
		<path d="M273.067,146.773l-51.2,29.013v58.027l20.48,11.947l30.72,17.92l30.72-17.92l20.48-11.947v-58.027L273.067,146.773z
			 M276.48,186.88L256,196.267v25.6c0,5.12-3.413,8.533-8.533,8.533s-8.533-3.413-8.533-8.533v-31.573
			c0-3.413,1.707-6.827,5.12-7.68l25.6-11.093c4.267-1.707,9.387,0,11.093,4.267C282.453,180.053,280.747,185.173,276.48,186.88z"/>
	</g>
</g>
<g>
	<g>
		<path d="M486.4,93.867H25.6c-5.12,0-8.533,3.413-8.533,8.533v307.2c0,5.12,3.413,8.533,8.533,8.533h221.867v17.92
			c-14.507,3.413-25.6,17.067-25.6,33.28c0,18.773,15.36,34.133,34.133,34.133c18.773,0,34.133-15.36,34.133-34.133
			c0-16.213-11.093-29.013-25.6-33.28v-17.92H486.4c5.12,0,8.533-3.413,8.533-8.533V102.4C494.933,97.28,491.52,93.867,486.4,93.867
			z M102.4,179.2H59.733c-5.12,0-8.533-3.413-8.533-8.533s3.413-8.533,8.533-8.533H102.4c5.12,0,8.533,3.413,8.533,8.533
			S107.52,179.2,102.4,179.2z M128,145.067H59.733c-5.12,0-8.533-3.413-8.533-8.533S54.613,128,59.733,128H128
			c5.12,0,8.533,3.413,8.533,8.533S133.12,145.067,128,145.067z M273.067,469.333c0,9.387-7.68,17.067-17.067,17.067
			s-17.067-7.68-17.067-17.067s7.68-17.067,17.067-17.067S273.067,459.947,273.067,469.333z M401.067,341.333
			c0,3.413-1.707,5.973-4.267,7.68l-59.733,34.133C335.36,384,334.507,384,332.8,384c-1.707,0-2.56,0-4.267-0.853l-55.467-31.573
			L217.6,383.147C215.893,384,215.04,384,213.333,384c-1.707,0-2.56,0-4.267-0.853l-59.733-34.133
			c-2.56-1.707-4.267-4.267-4.267-7.68v-68.267c0-3.413,1.707-5.973,4.267-7.68l55.467-31.573v-63.147
			c0-3.413,1.707-5.973,4.267-7.68l59.733-34.133c2.56-1.707,5.973-1.707,8.533,0l59.733,34.133c2.56,1.707,4.267,4.267,4.267,7.68
			v63.147l55.467,31.573c2.56,1.707,4.267,4.267,4.267,7.68V341.333z"/>
	</g>
</g>
<g>
	<g>
		<path d="M244.053,266.24l-30.72-17.067l-51.2,29.013v58.027l51.2,29.013l51.2-29.013v-58.027L244.053,266.24z M216.747,289.28
			l-20.48,9.387v25.6c0,5.12-3.413,8.533-8.533,8.533s-8.533-3.413-8.533-8.533v-31.573c0-3.413,1.707-6.827,5.12-7.68l25.6-11.093
			c4.267-1.707,9.387,0,11.093,4.267S221.013,287.573,216.747,289.28z"/>
	</g>
</g>
<g>
	<g>
		<path d="M332.8,249.173l-30.72,17.067l-20.48,11.947v58.027l51.2,29.013l51.2-29.013v-58.027L332.8,249.173z M336.213,289.28
			l-20.48,9.387v25.6c0,5.12-3.413,8.533-8.533,8.533s-8.533-3.413-8.533-8.533v-31.573c0-3.413,1.707-6.827,5.12-7.68l25.6-11.093
			c4.267-1.707,9.387,0,11.093,4.267S340.48,287.573,336.213,289.28z"/>
	</g>
</g>
<g>
</g>
<g>
</g>
<g>
</g>
<g>
</g>
<g>
</g>
<g>
</g>
<g>
</g>
<g>
</g>
<g>
</g>
<g>
</g>
<g>
</g>
<g>
</g>
<g>
</g>
<g>
</g>
<g>
</g>
</svg>
