<?xml version="1.0" encoding="iso-8859-1"?>
<!-- Generator: Adobe Illustrator 19.0.0, SVG Export Plug-In . SVG Version: 6.00 Build 0)  -->
<svg version="1.1" id="Layer_1" xmlns="http://www.w3.org/2000/svg" xmlns:xlink="http://www.w3.org/1999/xlink" x="0px" y="0px"
	 viewBox="0 0 512 512" style="enable-background:new 0 0 512 512;" xml:space="preserve">
<g>
	<g>
		<g>
			<path d="M486.4,8.533H25.6C11.486,8.533,0,20.019,0,34.133V51.2c0,14.114,11.486,25.6,25.6,25.6h460.8
				c14.114,0,25.6-11.486,25.6-25.6V34.133C512,20.019,500.514,8.533,486.4,8.533z"/>
			<path d="M189.127,293.374c-0.009-0.008-0.026-0.008-0.043-0.017c-1.212-0.87-2.517-1.562-3.866-2.074
				c-0.043-0.017-0.077-0.026-0.119-0.034c-1.212-0.452-2.475-0.734-3.755-0.896c-0.265-0.034-0.538-0.06-0.811-0.085
				c-1.084-0.094-2.185-0.06-3.268,0.06c-0.29,0.034-0.589,0.043-0.879,0.094c-1.331,0.213-2.637,0.555-3.891,1.092
				c-6.084,2.611-10.359,8.653-10.359,15.684c0,9.412,7.654,17.067,17.067,17.067c9.412,0,17.067-7.654,17.067-17.067
				C196.269,301.498,193.436,296.472,189.127,293.374z"/>
			<path d="M234.926,204.391c-0.358-0.631-0.717-1.246-1.033-1.903c-0.734-1.502-1.306-3.072-1.809-4.693
				c-0.162-0.521-0.444-0.998-0.58-1.527h-70.451c-0.307,1.203-0.785,2.347-1.22,3.507c-0.188,0.486-0.307,0.998-0.521,1.476
				c-0.828,1.911-1.818,3.746-2.97,5.47c-0.136,0.205-0.307,0.367-0.444,0.563c-1.041,1.493-2.193,2.893-3.465,4.198
				c-0.427,0.444-0.904,0.819-1.348,1.237c-0.742,0.674-1.425,1.408-2.227,2.022l25.165,58.718c1.698-0.265,3.43-0.393,5.18-0.393
				c2.21,0,4.386,0.239,6.528,0.657c0.998,0.196,1.937,0.555,2.91,0.836c0.939,0.273,1.903,0.452,2.816,0.802l46.959-65.741
				c-0.247-0.29-0.401-0.649-0.631-0.947C236.718,207.318,235.779,205.902,234.926,204.391z"/>
			<path d="M128,170.667c-9.412,0-17.067,7.654-17.067,17.067S118.588,204.8,128,204.8c2.398,0,4.685-0.512,6.758-1.408
				c1.374-0.597,2.594-1.408,3.738-2.304c0.282-0.222,0.563-0.444,0.836-0.691c1.075-0.964,2.065-2.014,2.859-3.208
				c0.077-0.111,0.128-0.247,0.196-0.358c0.708-1.118,1.254-2.338,1.69-3.601c0.119-0.35,0.239-0.708,0.333-1.075
				c0.384-1.425,0.657-2.893,0.657-4.42C145.067,178.321,137.412,170.667,128,170.667z"/>
			<path d="M264.533,170.667c-9.412,0-17.067,7.654-17.067,17.067c0,1.289,0.171,2.543,0.444,3.755
				c0.094,0.384,0.239,0.742,0.35,1.118c0.247,0.836,0.538,1.656,0.913,2.432c0.171,0.358,0.367,0.691,0.563,1.032
				c0.469,0.819,0.99,1.613,1.596,2.347c0.171,0.205,0.324,0.41,0.503,0.606c0.836,0.93,1.758,1.801,2.816,2.56
				c0.026,0.017,0.043,0.051,0.068,0.068c2.782,1.971,6.153,3.149,9.813,3.149c9.412,0,17.067-7.654,17.067-17.067
				S273.946,170.667,264.533,170.667z"/>
			<path d="M486.4,93.867H25.6c-4.71,0-8.533,3.823-8.533,8.533v307.2c0,4.71,3.823,8.533,8.533,8.533h221.867v18.278
				c-14.677,3.814-25.6,17.067-25.6,32.922c0,18.825,15.309,34.133,34.133,34.133c18.825,0,34.133-15.309,34.133-34.133
				c0-15.855-10.923-29.107-25.6-32.922v-18.278H486.4c4.71,0,8.533-3.823,8.533-8.533V102.4
				C494.933,97.69,491.11,93.867,486.4,93.867z M273.067,469.333c0,9.412-7.654,17.067-17.067,17.067
				c-9.412,0-17.067-7.654-17.067-17.067c0-9.412,7.654-17.067,17.067-17.067C265.412,452.267,273.067,459.921,273.067,469.333z
				 M264.533,221.867c-4.318,0-8.405-0.888-12.211-2.355l-47.07,65.903c4.966,5.931,8.081,13.466,8.081,21.786
				c0,18.825-15.309,34.133-34.133,34.133s-34.133-15.309-34.133-34.133c0-10.957,5.282-20.617,13.338-26.871l-25.276-58.982
				c-1.69,0.256-3.371,0.521-5.129,0.521c-18.825,0-34.133-15.309-34.133-34.133S109.175,153.6,128,153.6
				c15.855,0,29.107,10.923,32.922,25.6h70.69c3.814-14.677,17.067-25.6,32.922-25.6c18.825,0,34.133,15.309,34.133,34.133
				S283.358,221.867,264.533,221.867z M443.733,366.933c0,4.71-3.823,8.533-8.533,8.533s-8.533-3.823-8.533-8.533V358.4H384
				c-4.71,0-8.533-3.823-8.533-8.533s3.823-8.533,8.533-8.533h42.667v-17.067h-25.6c-4.71,0-8.533-3.823-8.533-8.533
				s3.823-8.533,8.533-8.533h25.6v-17.067H384c-4.71,0-8.533-3.823-8.533-8.533s3.823-8.533,8.533-8.533h42.667V256h-25.6
				c-4.71,0-8.533-3.823-8.533-8.533s3.823-8.533,8.533-8.533h25.6v-17.067H384c-4.71,0-8.533-3.823-8.533-8.533
				c0-4.71,3.823-8.533,8.533-8.533h42.667v-17.067h-25.6c-4.71,0-8.533-3.823-8.533-8.533s3.823-8.533,8.533-8.533h25.6V153.6
				c0-4.71,3.823-8.533,8.533-8.533s8.533,3.823,8.533,8.533V366.933z"/>
		</g>
	</g>
</g>
<g>
</g>
<g>
</g>
<g>
</g>
<g>
</g>
<g>
</g>
<g>
</g>
<g>
</g>
<g>
</g>
<g>
</g>
<g>
</g>
<g>
</g>
<g>
</g>
<g>
</g>
<g>
</g>
<g>
</g>
</svg>
