<?xml version="1.0" encoding="iso-8859-1"?>
<!-- Generator: Adobe Illustrator 19.0.0, SVG Export Plug-In . SVG Version: 6.00 Build 0)  -->
<svg version="1.1" id="Layer_1" xmlns="http://www.w3.org/2000/svg" xmlns:xlink="http://www.w3.org/1999/xlink" x="0px" y="0px"
	 viewBox="0 0 511.682 511.682" style="enable-background:new 0 0 511.682 511.682;" xml:space="preserve">
<g>
	<g>
		<path d="M443.57,178.882c18.825,0,34.133-15.317,34.133-34.133c0-18.825-15.309-34.133-34.133-34.133
			c-15.863,0-29.107,10.923-32.922,25.6h-72.798L263.278,4.026c-3.029-5.367-11.836-5.367-14.865,0l-74.573,132.19h-72.806
			c-3.814-14.677-17.058-25.6-32.922-25.6c-18.825,0-34.133,15.309-34.133,34.133c0,18.816,15.309,34.133,34.133,34.133
			c3.038,0,5.931-0.529,8.73-1.271l36.83,65.28l-52.992,93.935c-1.493,2.645-1.468,5.879,0.068,8.499
			c1.519,2.62,4.335,4.224,7.364,4.224H173.84l58.368,103.475c-6.443,6.212-10.496,14.891-10.496,24.525
			c0,18.825,15.309,34.133,34.133,34.133s34.133-15.309,34.133-34.133c0-9.634-4.053-18.313-10.496-24.525l58.368-103.475h105.728
			c3.038,0,5.845-1.604,7.364-4.224c1.536-2.62,1.562-5.854,0.068-8.499l-52.992-93.943l36.821-65.271
			C437.648,178.353,440.532,178.882,443.57,178.882z M255.845,25.581l62.413,110.635H193.433L255.845,25.581z M91.741,169.282
			c0.802-0.777,1.485-1.638,2.21-2.492c0.469-0.538,0.939-1.084,1.374-1.655c0.631-0.845,1.229-1.698,1.784-2.603
			c0.555-0.896,1.033-1.818,1.502-2.756c0.435-0.887,0.879-1.758,1.237-2.679c0.495-1.246,0.947-2.509,1.289-3.814h63.078
			l-40.747,72.235L91.741,169.282z M82.721,332.482l40.747-72.226l40.747,72.226H82.721z M264.626,444.61
			c-0.29-0.077-0.589-0.102-0.888-0.179c-0.674-0.162-1.357-0.299-2.057-0.427c-1.911-0.341-3.84-0.58-5.777-0.58
			c-0.017,0-0.034-0.009-0.06-0.009c-0.017,0-0.043,0.009-0.06,0.009c-1.937,0-3.866,0.239-5.777,0.58
			c-0.7,0.128-1.374,0.265-2.057,0.427c-0.299,0.077-0.597,0.102-0.887,0.179l-53.632-95.061h124.826L264.626,444.61z
			 M327.884,332.482H183.807l-50.543-89.591l50.543-89.609h144.077l50.543,89.6L327.884,332.482z M428.97,332.482h-81.493
			l40.747-72.235L428.97,332.482z M388.223,225.517l-40.747-72.235h63.078c0.316,1.212,0.751,2.381,1.195,3.541
			c0.41,1.058,0.896,2.074,1.399,3.081c0.444,0.879,0.896,1.766,1.417,2.603c0.555,0.913,1.161,1.784,1.801,2.637
			c0.435,0.572,0.904,1.118,1.374,1.664c0.725,0.845,1.408,1.707,2.202,2.475L388.223,225.517z"/>
	</g>
</g>
<g>
</g>
<g>
</g>
<g>
</g>
<g>
</g>
<g>
</g>
<g>
</g>
<g>
</g>
<g>
</g>
<g>
</g>
<g>
</g>
<g>
</g>
<g>
</g>
<g>
</g>
<g>
</g>
<g>
</g>
</svg>
