<?xml version="1.0" encoding="iso-8859-1"?>
<!-- Generator: Adobe Illustrator 19.0.0, SVG Export Plug-In . SVG Version: 6.00 Build 0)  -->
<svg version="1.1" id="Layer_1" xmlns="http://www.w3.org/2000/svg" xmlns:xlink="http://www.w3.org/1999/xlink" x="0px" y="0px"
	 viewBox="0 0 510.776 510.776" style="enable-background:new 0 0 510.776 510.776;" xml:space="preserve">
<g>
	<g>
		<g>
			<path d="M508.188,65.012L495.706,52.53L458.25,15.074L445.768,2.583c-3.443-3.443-9.031-3.443-12.482,0
				c-3.452,3.452-3.452,9.039,0,12.491l6.241,6.241l-56.17,56.179L352.143,46.28c-3.31-3.31-9.172-3.31-12.482,0l-24.973,24.973
				c-3.443,3.443-3.443,9.031,0,12.482l6.25,6.241l-42.425,42.417l23.993,23.993l43.264-41.569l12.615,12.606l-41.657,39.53
				l24.964,24.964l41.666-39.521l12.359,12.359l-43.282,41.56l25.953,25.953l42.417-42.425l6.241,6.241
				c1.721,1.73,3.981,2.586,6.241,2.586c2.26,0,4.52-0.856,6.241-2.586L464.5,171.12c1.66-1.651,2.586-3.893,2.586-6.241
				c0-2.339-0.927-4.582-2.586-6.241l-31.214-31.214l56.179-56.17l6.241,6.241c1.73,1.721,3.99,2.586,6.241,2.586
				c2.26,0,4.52-0.865,6.241-2.586C511.639,74.043,511.639,68.455,508.188,65.012z M445.777,164.879l-12.491,12.482l-6.241-6.241
				l-24.964-24.964L364.625,108.7L339.66,83.735l-6.241-6.241l12.482-12.491l31.214,31.214l37.447,37.447L445.777,164.879z
				 M420.804,114.941l-24.964-24.964l56.17-56.179l24.973,24.973L420.804,114.941z"/>
			<path d="M252.272,158.637l37.447,37.447c3.452,3.452,3.452,9.039,0,12.482c-1.721,1.73-3.981,2.586-6.241,2.586
				s-4.52-0.856-6.241-2.586l-37.447-37.447l-18.732,18.732l37.455,37.455c3.443,3.443,3.443,9.031,0,12.482
				c-1.73,1.721-3.981,2.586-6.241,2.586s-4.52-0.865-6.241-2.586l-37.456-37.455l-18.723,18.723l37.455,37.455
				c3.443,3.443,3.443,9.031,0,12.482c-1.73,1.721-3.99,2.586-6.241,2.586c-2.26,0-4.52-0.865-6.241-2.586l-37.455-37.455
				l-25.009,25.009c-18.503,18.503-20.268,47.342-5.57,67.999l-11.838,11.838l37.447,37.447l11.829-11.838
				c9.145,6.506,19.836,9.896,30.596,9.896c13.55,0,27.101-5.164,37.411-15.475L365.9,244.75l-99.867-99.875L252.272,158.637z"/>
			<path d="M102.632,370.699c-7.821,7.821-9.057,19.668-3.919,28.884L2.589,495.707c-3.452,3.452-3.452,9.039,0,12.482
				c1.721,1.73,3.981,2.586,6.241,2.586c2.26,0,4.52-0.856,6.241-2.586l96.124-96.124c3.655,2.039,7.689,3.16,11.776,3.16
				c6.197,0,12.394-2.357,17.108-7.08l19.836-19.836l-37.447-37.447L102.632,370.699z"/>
		</g>
	</g>
</g>
<g>
</g>
<g>
</g>
<g>
</g>
<g>
</g>
<g>
</g>
<g>
</g>
<g>
</g>
<g>
</g>
<g>
</g>
<g>
</g>
<g>
</g>
<g>
</g>
<g>
</g>
<g>
</g>
<g>
</g>
</svg>
