<?xml version="1.0" encoding="iso-8859-1"?>
<!-- Generator: Adobe Illustrator 19.0.0, SVG Export Plug-In . SVG Version: 6.00 Build 0)  -->
<svg version="1.1" id="Layer_1" xmlns="http://www.w3.org/2000/svg" xmlns:xlink="http://www.w3.org/1999/xlink" x="0px" y="0px"
	 viewBox="0 0 512 512" style="enable-background:new 0 0 512 512;" xml:space="preserve">
<g>
	<g>
		<g>
			<circle cx="256.002" cy="388.889" r="19.399"/>
			<path d="M256.002,241.342c-30.713,0-55.7,24.987-55.7,55.7v12.763h111.4v-12.763C311.702,266.33,286.714,241.342,256.002,241.342
				z"/>
			<path d="M420.231,210.031c-20.355-73.274-87.639-125.149-164.852-125.149c-93.67,0-170.001,75.662-171.096,169.076
				c-46.465,1.218-83.933,39.226-84.281,85.901c-0.356,47.98,39.729,87.236,87.708,87.236h64.669
				c6.617,0,11.981-5.364,11.981-11.981c0-3.291-0.002-118.016-0.002-116.903c0-50.453,40.287-92.316,90.737-92.806
				c50.945-0.495,92.547,40.805,92.547,91.638c0,0.337-0.002,118.406-0.002,118.071c0,6.617,5.364,11.981,11.981,11.981
				c53.148,0,50.195,0.177,52.958-0.461C468.564,421.633,512,374.415,512,317.857C512.001,263.493,472.305,218.378,420.231,210.031z
				"/>
		</g>
	</g>
</g>
<g>
</g>
<g>
</g>
<g>
</g>
<g>
</g>
<g>
</g>
<g>
</g>
<g>
</g>
<g>
</g>
<g>
</g>
<g>
</g>
<g>
</g>
<g>
</g>
<g>
</g>
<g>
</g>
<g>
</g>
</svg>
