<?xml version="1.0" encoding="iso-8859-1"?>
<!-- Generator: Adobe Illustrator 19.0.0, SVG Export Plug-In . SVG Version: 6.00 Build 0)  -->
<svg version="1.1" id="Layer_1" xmlns="http://www.w3.org/2000/svg" xmlns:xlink="http://www.w3.org/1999/xlink" x="0px" y="0px"
	 viewBox="0 0 512.001 512.001" style="enable-background:new 0 0 512.001 512.001;" xml:space="preserve">
<g>
	<g>
		<g>
			<path d="M285.014,281.21c-1.655-1.591-4.123-1.989-6.195-0.998l-36.239,17.327c-4.509,2.156-9.752,2.156-14.262,0l-36.238-17.327
				c-2.072-0.991-4.54-0.593-6.195,0.998L60.525,401.727c-3.577,3.438-1.143,9.482,3.818,9.482h342.212
				c4.961,0,7.395-6.043,3.818-9.482L285.014,281.21z"/>
			<path d="M149.607,257.05C54.725,211.685,20.494,195.363,7.896,189.287C4.238,187.523,0,190.191,0,194.252v204.017
				c0,4.856,5.827,7.337,9.327,3.971l141.724-136.248C153.825,263.327,153.078,258.71,149.607,257.05z"/>
			<path d="M437.127,100.792c-44.72,0-80,39.29-74.266,84.44H106.799c-5.866,0-7.667,7.951-2.373,10.481
				c61.443,29.378,116.712,55.803,128.651,61.511c1.503,0.718,3.24,0.722,4.742,0.002c12.262-5.862,70.126-33.526,127.329-60.876
				c3.416,11.915,9.698,22.528,17.973,31.137l-61.829,29.562c-3.471,1.659-4.216,6.275-1.441,8.942l141.723,136.245
				c3.501,3.366,9.327,0.885,9.327-3.971V242.526c25.007-12.542,41.1-38.068,41.1-66.861
				C512,134.38,478.412,100.792,437.127,100.792z M450.23,197.392h-0.001c0,4.557-3.707,8.264-8.264,8.264
				c-4.557,0-8.264-3.707-8.264-8.264v-29.628c-0.471,0.083-0.948,0.125-1.427,0.125c-8.481,0-11.364-11.248-4.136-15.422
				l9.695-5.599c5.508-3.182,12.397,0.82,12.397,7.157V197.392z"/>
		</g>
	</g>
</g>
<g>
</g>
<g>
</g>
<g>
</g>
<g>
</g>
<g>
</g>
<g>
</g>
<g>
</g>
<g>
</g>
<g>
</g>
<g>
</g>
<g>
</g>
<g>
</g>
<g>
</g>
<g>
</g>
<g>
</g>
</svg>
