<?xml version="1.0" encoding="iso-8859-1"?>
<!-- Generator: Adobe Illustrator 19.0.0, SVG Export Plug-In . SVG Version: 6.00 Build 0)  -->
<svg version="1.1" id="Layer_1" xmlns="http://www.w3.org/2000/svg" xmlns:xlink="http://www.w3.org/1999/xlink" x="0px" y="0px"
	 viewBox="0 0 512 512" style="enable-background:new 0 0 512 512;" xml:space="preserve">
<g>
	<g>
		<g>
			<path d="M256.001,190.294c-20.096,0-36.444,16.349-36.444,36.444v4.753h72.887v-4.753
				C292.445,206.642,276.096,190.294,256.001,190.294z"/>
			<circle cx="255.998" cy="294.53" r="14.317"/>
			<path d="M373.372,96.93h65.54c5.325,0,7.99-6.437,4.226-10.202l-65.54-65.539c-3.765-3.765-10.202-1.098-10.202,4.225v65.54
				C367.396,94.255,370.071,96.93,373.372,96.93z"/>
			<path d="M458.349,134.047H348.837c-10.25,0-18.559-8.309-18.559-18.559V5.976c0-3.3-2.676-5.976-5.976-5.976H65.603
				c-9.901,0-17.928,8.027-17.928,17.928v476.144c0,9.901,8.027,17.928,17.928,17.928h380.794c9.901,0,17.928-8.027,17.928-17.928
				V140.023C464.325,136.723,461.65,134.047,458.349,134.047z M328.3,332.481c0,13.83-11.251,25.081-25.081,25.081h-94.436
				c-13.829,0-25.081-11.251-25.081-25.081c0-13.014,0-93.043,0-105.744c0-39.865,32.434-72.299,72.299-72.299
				s72.299,32.434,72.299,72.299C328.3,239.438,328.3,319.466,328.3,332.481z"/>
		</g>
	</g>
</g>
<g>
</g>
<g>
</g>
<g>
</g>
<g>
</g>
<g>
</g>
<g>
</g>
<g>
</g>
<g>
</g>
<g>
</g>
<g>
</g>
<g>
</g>
<g>
</g>
<g>
</g>
<g>
</g>
<g>
</g>
</svg>
