<?xml version="1.0" encoding="iso-8859-1"?>
<!-- Generator: Adobe Illustrator 19.0.0, SVG Export Plug-In . SVG Version: 6.00 Build 0)  -->
<svg version="1.1" id="Layer_1" xmlns="http://www.w3.org/2000/svg" xmlns:xlink="http://www.w3.org/1999/xlink" x="0px" y="0px"
	 viewBox="0 0 512 512" style="enable-background:new 0 0 512 512;" xml:space="preserve">
<g>
	<g>
		<g>
			<path d="M189.431,171.368h133.136c3.514,0,6.363-2.848,6.363-6.363V46.647c0-3.514-2.849-6.363-6.363-6.363H189.431
				c-3.515,0-6.363,2.849-6.363,6.363v118.357C183.068,168.519,185.917,171.368,189.431,171.368z"/>
			<path d="M44.543,209.547c-3.514,0-6.363,2.849-6.363,6.363v80.179c0,3.515,2.849,6.363,6.363,6.363h186.004
				c3.514,0,6.363-2.848,6.363-6.363v-80.179c0-3.514-2.849-6.363-6.363-6.363H44.543z"/>
			<path d="M322.568,340.632H189.431c-3.515,0-6.363,2.848-6.363,6.363v118.357c0,3.515,2.848,6.363,6.363,6.363h133.136
				c3.514,0,6.363-2.848,6.363-6.363V346.996C328.931,343.482,326.081,340.632,322.568,340.632z"/>
			<path d="M473.82,40.284H373.474c-3.515,0-6.363,2.849-6.363,6.363v118.357c0,3.515,2.848,6.363,6.363,6.363h132.163
				c3.514,0,6.363-2.848,6.363-6.363V78.464C512,57.377,494.906,40.284,473.82,40.284z"/>
			<path d="M6.363,171.368h132.162c3.514,0,6.363-2.848,6.363-6.363V46.647c0-3.514-2.849-6.363-6.363-6.363H38.18
				C17.093,40.284,0,57.377,0,78.464v86.541C0,168.519,2.849,171.368,6.363,171.368z"/>
			<path d="M275.09,215.911v80.179c0,3.515,2.849,6.363,6.363,6.363h186.004c3.514,0,6.363-2.848,6.363-6.363v-80.179
				c0-3.514-2.849-6.363-6.363-6.363H281.453C277.938,209.547,275.09,212.397,275.09,215.911z"/>
			<path d="M505.637,340.632H373.474c-3.515,0-6.363,2.848-6.363,6.363v124.72h106.71c21.087,0,38.18-17.093,38.18-38.18v-86.541
				C512,343.482,509.151,340.632,505.637,340.632z"/>
			<path d="M138.525,340.632H6.363c-3.514,0-6.363,2.848-6.363,6.363v86.541c0,21.087,17.093,38.18,38.18,38.18h100.345
				c3.514,0,6.363-2.848,6.363-6.363V346.996C144.888,343.482,142.04,340.632,138.525,340.632z"/>
		</g>
	</g>
</g>
<g>
</g>
<g>
</g>
<g>
</g>
<g>
</g>
<g>
</g>
<g>
</g>
<g>
</g>
<g>
</g>
<g>
</g>
<g>
</g>
<g>
</g>
<g>
</g>
<g>
</g>
<g>
</g>
<g>
</g>
</svg>
