<?xml version="1.0" encoding="iso-8859-1"?>
<!-- Generator: Adobe Illustrator 19.0.0, SVG Export Plug-In . SVG Version: 6.00 Build 0)  -->
<svg version="1.1" id="Layer_1" xmlns="http://www.w3.org/2000/svg" xmlns:xlink="http://www.w3.org/1999/xlink" x="0px" y="0px"
	 viewBox="0 0 512.001 512.001" style="enable-background:new 0 0 512.001 512.001;" xml:space="preserve">
<g>
	<g>
		<g>
			<path d="M508.378,139.203c0-20.754-16.885-37.64-37.64-37.64H252.356l-21.876-47.308c-3.079-6.658-9.746-10.921-17.082-10.921
				H41.261c-20.754,0-37.64,16.885-37.64,37.64v131.538v218.513c0,20.754,16.885,37.64,37.64,37.64h429.478
				c20.754,0,37.64-16.885,37.64-37.64V212.512v-73.308H508.378z M315.318,349.998h-5.356
				c-5.736,16.401-18.742,29.407-35.143,35.143v5.356c0,10.393-8.426,18.82-18.82,18.82c-10.394,0-18.82-8.426-18.82-18.82v-5.356
				c-16.4-5.736-29.405-18.742-35.143-35.143h-5.356c-10.394,0-18.82-8.426-18.82-18.82s8.426-18.82,18.82-18.82h5.356
				c5.736-16.4,18.742-29.405,35.143-35.142v-5.357c0-10.394,8.426-18.82,18.82-18.82c10.394,0,18.82,8.426,18.82,18.82v5.357
				c16.4,5.736,29.405,18.742,35.142,35.142h5.356c10.394,0,18.82,8.426,18.82,18.82
				C334.138,341.573,325.713,349.998,315.318,349.998z M470.739,193.693H41.261V80.975h160.104l21.877,47.309
				c3.079,6.658,9.746,10.921,17.082,10.921h230.415V193.693z"/>
			<path d="M256,311.658c-10.764,0-19.521,8.756-19.521,19.521c0,10.765,8.757,19.521,19.521,19.521
				c10.764,0,19.521-8.758,19.521-19.521C275.521,320.415,266.764,311.658,256,311.658z"/>
		</g>
	</g>
</g>
<g>
</g>
<g>
</g>
<g>
</g>
<g>
</g>
<g>
</g>
<g>
</g>
<g>
</g>
<g>
</g>
<g>
</g>
<g>
</g>
<g>
</g>
<g>
</g>
<g>
</g>
<g>
</g>
<g>
</g>
</svg>
