<?xml version="1.0" encoding="iso-8859-1"?>
<!-- Generator: Adobe Illustrator 19.0.0, SVG Export Plug-In . SVG Version: 6.00 Build 0)  -->
<svg version="1.1" id="Layer_1" xmlns="http://www.w3.org/2000/svg" xmlns:xlink="http://www.w3.org/1999/xlink" x="0px" y="0px"
	 viewBox="0 0 512 512" style="enable-background:new 0 0 512 512;" xml:space="preserve">
<g>
	<g>
		<g>
			<path d="M495.156,342.381h-25.212V91.195c0-9.303-7.542-16.844-16.844-16.844H58.901c-9.303,0-16.844,7.542-16.844,16.844
				v251.186H16.844C7.542,342.381,0,349.923,0,359.226v44.016c0,18.972,15.435,34.407,34.406,34.407h443.188
				c18.972,0,34.406-15.435,34.406-34.407v-44.016C512,349.923,504.459,342.381,495.156,342.381z M299.32,420.805h-86.64V376.07
				h86.64V420.805z M417.257,306.539c0,9.302-7.542,16.844-16.844,16.844H111.588c-9.302,0-16.844-7.542-16.844-16.844V143.882
				c0-9.302,7.542-16.844,16.844-16.844h288.825c9.302,0,16.844,7.542,16.844,16.844V306.539z"/>
			<path d="M310.016,196.036c0-29.785-24.232-54.017-54.016-54.017s-54.017,24.232-54.017,54.017v10.302
				c-2.329,2.548-3.762,5.929-3.762,9.653v66.381c0.001,11.052,8.993,20.044,20.045,20.044h75.469
				c11.052,0,20.044-8.991,20.044-20.044v-66.381c0-3.724-1.433-7.105-3.762-9.653V196.036z M256,263.482
				c-6.319,0-11.442-5.123-11.442-11.442c0-6.32,5.123-11.442,11.442-11.442c6.319,0,11.442,5.123,11.442,11.442
				C267.442,258.359,262.319,263.482,256,263.482z M276.328,201.666h-40.656v-5.628c0.001-11.209,9.119-20.329,20.329-20.329
				c11.209,0,20.328,9.119,20.328,20.329V201.666z"/>
		</g>
	</g>
</g>
<g>
</g>
<g>
</g>
<g>
</g>
<g>
</g>
<g>
</g>
<g>
</g>
<g>
</g>
<g>
</g>
<g>
</g>
<g>
</g>
<g>
</g>
<g>
</g>
<g>
</g>
<g>
</g>
<g>
</g>
</svg>
