<?xml version="1.0" encoding="iso-8859-1"?>
<!-- Generator: Adobe Illustrator 19.0.0, SVG Export Plug-In . SVG Version: 6.00 Build 0)  -->
<svg version="1.1" id="Layer_1" xmlns="http://www.w3.org/2000/svg" xmlns:xlink="http://www.w3.org/1999/xlink" x="0px" y="0px"
	 viewBox="0 0 512.001 512.001" style="enable-background:new 0 0 512.001 512.001;" xml:space="preserve">
<g>
	<g>
		<g>
			<path d="M476.058,64.163H35.942C16.123,64.163,0,80.286,0,100.105v244.432c0,15.618,10.017,28.935,23.961,33.881v51.449
				c0,9.925,8.046,17.971,17.971,17.971h124.265c9.925,0,17.971-8.046,17.971-17.971v-49.389h143.666v49.389
				c0,9.925,8.046,17.971,17.971,17.971h124.265c9.925,0,17.971-8.046,17.971-17.971v-51.449
				c13.944-4.946,23.961-18.262,23.961-33.881V100.105C512,80.286,495.877,64.163,476.058,64.163z M148.226,411.895H59.903v-31.417
				h88.323V411.895z M308.68,249.586l13.251,13.25c7.018,7.018,7.018,18.396,0,25.414c-7.017,7.018-18.396,7.018-25.414,0
				l-13.252-13.252c-16.7,8.667-37.196,8.996-54.53,0l-13.252,13.253c-7.018,7.017-18.396,7.018-25.414,0
				c-7.018-7.018-7.018-18.396,0-25.414l13.251-13.25c-8.668-16.7-8.996-37.197,0-54.531l-13.251-13.25
				c-7.018-7.018-7.018-18.396,0-25.414c7.017-7.018,18.396-7.018,25.414-0.001l13.252,13.25c16.701-8.667,37.197-8.996,54.531,0
				l13.252-13.25c7.018-7.017,18.397-7.017,25.414,0.001c7.018,7.018,7.018,18.396,0,25.414l-13.25,13.25
				C317.347,211.755,317.677,232.252,308.68,249.586z M452.097,411.895h-88.323v-31.417h88.323V411.895z"/>
			<path d="M239.484,205.802c-9.13,9.129-9.133,23.905-0.001,33.036c9.128,9.128,23.906,9.13,33.035,0s9.13-23.906,0-33.036
				C263.39,196.674,248.612,196.67,239.484,205.802z"/>
		</g>
	</g>
</g>
<g>
</g>
<g>
</g>
<g>
</g>
<g>
</g>
<g>
</g>
<g>
</g>
<g>
</g>
<g>
</g>
<g>
</g>
<g>
</g>
<g>
</g>
<g>
</g>
<g>
</g>
<g>
</g>
<g>
</g>
</svg>
