<?xml version="1.0" encoding="iso-8859-1"?>
<!-- Generator: Adobe Illustrator 19.0.0, SVG Export Plug-In . SVG Version: 6.00 Build 0)  -->
<svg version="1.1" id="Layer_1" xmlns="http://www.w3.org/2000/svg" xmlns:xlink="http://www.w3.org/1999/xlink" x="0px" y="0px"
	 viewBox="0 0 512 512" style="enable-background:new 0 0 512 512;" xml:space="preserve">
<g>
	<g>
		<g>
			<path d="M399.651,0H112.349C92.578,0,76.493,16.085,76.493,35.856c0,9.265,0,428.383,0,440.288
				c0,19.771,16.085,35.856,35.856,35.856h287.302c19.771,0,35.856-16.085,35.856-35.856c0-4.659,0-436.681,0-440.288
				C435.507,16.085,419.422,0,399.651,0z M215.663,47.73h80.672c9.901,0,17.928,8.027,17.928,17.928
				c0,9.901-8.027,17.928-17.928,17.928h-80.672c-9.901,0-17.928-8.027-17.928-17.928C197.735,55.757,205.762,47.73,215.663,47.73z
				 M399.651,382.273H112.349V129.727h287.302V382.273z"/>
			<path d="M208.781,357.562h94.438c13.83,0,25.081-11.252,25.081-25.081c0-13.015,0-93.044,0-105.745
				c0-39.866-32.434-72.3-72.3-72.3c-39.866,0-72.3,32.434-72.3,72.3c0,12.7,0,92.731,0,105.745
				C183.7,346.312,194.952,357.562,208.781,357.562z M256,308.843c-7.907,0-14.317-6.41-14.317-14.317
				c0-7.907,6.41-14.317,14.317-14.317c7.907,0,14.317,6.41,14.317,14.317C270.317,302.434,263.907,308.843,256,308.843z
				 M219.556,226.737c0-20.095,16.348-36.444,36.444-36.444c20.095,0,36.444,16.349,36.444,36.444v4.753h-72.888V226.737z"/>
		</g>
	</g>
</g>
<g>
</g>
<g>
</g>
<g>
</g>
<g>
</g>
<g>
</g>
<g>
</g>
<g>
</g>
<g>
</g>
<g>
</g>
<g>
</g>
<g>
</g>
<g>
</g>
<g>
</g>
<g>
</g>
<g>
</g>
</svg>
