<?xml version="1.0" encoding="iso-8859-1"?>
<!-- Generator: Adobe Illustrator 19.0.0, SVG Export Plug-In . SVG Version: 6.00 Build 0)  -->
<svg version="1.1" id="Layer_1" xmlns="http://www.w3.org/2000/svg" xmlns:xlink="http://www.w3.org/1999/xlink" x="0px" y="0px"
	 viewBox="0 0 512 512" style="enable-background:new 0 0 512 512;" xml:space="preserve">
<g>
	<g>
		<path d="M474.483,186.689L326.091,89.625c-14.825-11.289-31.717-18.726-49.703-22.029c-1.896-28.353-19.369-54.16-46.66-65.937
			c-10.256-4.426-22.162,0.31-26.583,10.558l-44.539,103.249c-11.682,16.489-18.689,35.248-20.861,54.558L29.474,485.206
			c-4.506,13.118,5.258,26.793,19.126,26.793c13.093,0,317.229-0.004,330.304-0.004c12.587,0,22.11-11.39,19.912-23.76
			l-34.559-194.581c7.826,2.742,64.304,22.534,73.375,25.714c11.629,4.074,24.15-3.12,26.529-15.168l19.091-96.668
			C484.849,199.447,481.38,191.201,474.483,186.689z M137.001,471.553H76.932l14.577-42.436h45.492V471.553z M137.002,388.67h-0.001
			h-31.597l31.599-91.983V388.67z M270.414,414.545c-0.798,0.093-1.59,0.139-2.373,0.139c-10.12,0-18.858-7.582-20.062-17.879
			l-11.328-96.956c13.385,2.061,26.997,1.883,40.633-0.759l10.868,93.021C289.45,403.205,281.507,413.249,270.414,414.545z
			 M428.999,273.483c-93.825-32.881-79.457-27.842-99.078-34.735c-22.417-7.875-20.53,5.416-44.451,15.737
			c-67.475,29.112-131.334-43.138-100.098-105.313c33.982,6.044,67.938-11.141,83.14-41.91
			c20.698,3.664,32.558,14.429,35.317,16.132l137.099,89.679L428.999,273.483z"/>
	</g>
</g>
<g>
</g>
<g>
</g>
<g>
</g>
<g>
</g>
<g>
</g>
<g>
</g>
<g>
</g>
<g>
</g>
<g>
</g>
<g>
</g>
<g>
</g>
<g>
</g>
<g>
</g>
<g>
</g>
<g>
</g>
</svg>
