<?xml version="1.0" encoding="iso-8859-1"?>
<!-- Generator: Adobe Illustrator 19.0.0, SVG Export Plug-In . SVG Version: 6.00 Build 0)  -->
<svg version="1.1" id="Layer_1" xmlns="http://www.w3.org/2000/svg" xmlns:xlink="http://www.w3.org/1999/xlink" x="0px" y="0px"
	 viewBox="0 0 512 512" style="enable-background:new 0 0 512 512;" xml:space="preserve">
<g>
	<g>
		<path d="M55.957,336.606v151.356c0,13.276,10.762,24.038,24.039,24.038s24.039-10.762,24.039-24.038V336.606H55.957z"/>
	</g>
</g>
<g>
	<g>
		<path d="M114.414,336.606v151.356h-0.001c0,13.276,10.762,24.038,24.039,24.038s24.039-10.762,24.039-24.038V336.606H114.414z"/>
	</g>
</g>
<g>
	<g>
		<path d="M140.72,103.849c-16.54,43.213-13.301,34.751-21.655,56.574h12.077c8.098-20.894,2.626-6.774,21.929-56.574H140.72z"/>
	</g>
</g>
<g>
	<g>
		<path d="M53.311,103.901c-25.074,1.067-45.247,21.788-45.376,47.116L7.196,298.183c-0.054,11.063,8.868,20.076,19.932,20.132
			c0.034,0,0.068,0.001,0.103,0.001c11.016-0.001,19.974-8.903,20.03-19.932l0.739-147.166v-0.002
			c0.011-2.19,1.793-3.959,3.985-3.953c2.19,0.006,3.963,1.785,3.963,3.975v73.876h24.082v-52.277
			C76.141,162.803,57.234,114.022,53.311,103.901z"/>
	</g>
</g>
<g>
	<g>
		<path d="M77.293,103.849H65.551c16.483,42.525,12.996,33.529,21.929,56.574h11.873C92.35,142.466,97.674,156.12,77.293,103.849z"
			/>
	</g>
</g>
<g>
	<g>
		<path d="M109.218,7.583c-22.93,0-41.517,18.588-41.517,41.516c0,22.98,18.648,41.517,41.517,41.517
			c22.783,0,41.517-18.477,41.517-41.516C150.736,26.171,132.148,7.583,109.218,7.583z"/>
	</g>
</g>
<g>
	<g>
		<path d="M269.01,161.951c-6.897-8.584-19.517-10.012-28.163-3.068l-30.377,24.408l0.03-32.155c0-0.04,0-0.08,0-0.12
			c-0.128-25.266-20.203-45.952-45.193-47.112c-4.087,10.544-23.745,61.263-26.822,69.201v52.01h23.568v-73.938
			c0-2.316,1.877-4.192,4.192-4.192c2.316,0,4.192,1.877,4.192,4.192c0,0.001,0,0.003,0,0.004l-0.068,73.915
			c-0.007,7.712,4.413,14.742,11.365,18.079c6.966,3.342,15.214,2.378,21.215-2.445l62.994-50.617
			C274.568,183.183,275.94,170.575,269.01,161.951z"/>
	</g>
</g>
<g>
	<g>
		<path d="M121.891,133.801l-7.666-13.942l6.815-12.395c0.472-0.859,0.457-1.904-0.043-2.749c-0.499-0.845-1.407-1.362-2.388-1.362
			H99.905c-0.981,0-1.889,0.518-2.388,1.362c-0.5,0.845-0.515,1.89-0.043,2.749l6.815,12.395l-7.694,13.994
			c-0.892,1.623-1.184,3.508-0.824,5.325l4.218,21.246h18.205l4.499-21.196C123.086,137.381,122.801,135.455,121.891,133.801z"/>
	</g>
</g>
<g>
	<g>
		<path d="M504.797,54.869V0H203.743c-4.419,0-8.001,3.583-8.001,8.001v38.867c0,4.419,3.583,8.001,8.001,8.001h14.136v51.781
			h-9.818c3.785,3.816,7.09,8.107,9.818,12.776c5.255,8.996,8.374,19.384,8.612,30.464l11.852-8.121v-7.856h266.455V82.875
			c0-3.052-2.474-5.525-5.525-5.525h-35.436c-3.052,0-5.526,2.474-5.526,5.525v20.536c0,1.214,0.404,2.327,1.067,3.239h-22.499
			c0.06-0.303,0.094-0.615,0.094-0.934V83.643c0-2.627-2.13-4.758-4.758-4.758h-36.971c-2.627,0-4.757,2.13-4.757,4.758v22.073
			c0,0.32,0.034,0.633,0.094,0.934h-22.844c0.171-0.743,0.268-1.512,0.268-2.306V72.397c0-5.682-4.606-10.288-10.288-10.288h-12.956
			c-5.682,0-10.288,4.606-10.288,10.288v31.948c0,0.794,0.099,1.563,0.268,2.306h-29.099c0.392-0.675,0.634-1.449,0.634-2.287
			V81.923c0-2.525-2.047-4.572-4.572-4.572h-37.342c-2.525,0-4.572,2.047-4.572,4.572v22.442c0,0.837,0.242,1.612,0.634,2.287
			H238.34V54.869H504.797z"/>
	</g>
</g>
<g>
	<g>
		<path d="M504.804,282.183v-51.888c-0.007-2.86-2.327-5.18-5.189-5.18h-36.122c-2.862,0-5.182,2.32-5.182,5.182v21.222
			c0,1.309,0.501,2.49,1.301,3.402h-24.346c0.754-0.881,1.226-2.011,1.226-3.261v-21.503c0-2.784-2.257-5.041-5.041-5.041h-36.403
			c-2.784,0-5.041,2.257-5.041,5.041v21.503c0,1.25,0.472,2.38,1.226,3.261h-23.464c0.258-0.478,0.419-1.015,0.419-1.596v-24.833
			c0-1.865-1.512-3.377-3.376-3.377h-39.733c-1.864,0-3.376,1.512-3.376,3.377v24.833c0,0.581,0.161,1.12,0.419,1.596h-22.911
			c0.425-0.635,0.674-1.397,0.674-2.218v-23.589c0-2.208-1.79-3.999-3.999-3.999h-38.489c-2.208,0-3.998,1.79-3.998,3.999v23.589
			c0,0.821,0.249,1.584,0.674,2.218h-15.727V232.82l-20.463,16.443v5.658h-7.234c-4.467,3.029-9.578,5.017-14.903,5.821v13.442
			c0,4.418,3.583,8.001,8.001,8.001h14.136v45.886h-14.136c-4.419,0-8.001,3.583-8.001,8.001v38.867
			c0,4.419,3.583,8.001,8.001,8.001h14.136v22.481h20.463v-22.481H485.1v22.481h19.702c0-29.196,0-51.155,0-77.35h-46.486v-28.062
			c0-5.682-4.606-10.288-10.288-10.288h-12.955c-5.682,0-10.288,4.606-10.288,10.288v28.062h-33.393
			c0.014-0.143,0.043-0.281,0.043-0.428v-23.319c0-2.283-1.851-4.133-4.133-4.133h-38.218c-2.283,0-4.133,1.851-4.133,4.133v23.319
			c0,0.146,0.028,0.286,0.043,0.428h-27.501c3.445-2.897,5.639-7.235,5.639-12.088c0-8.722-7.071-15.793-15.793-15.793h-14.9
			c-8.722,0-15.793,7.071-15.793,15.793c0,4.853,2.194,9.19,5.639,12.088h-43.935v-45.886H504.804z"/>
	</g>
</g>
<g>
	<g>
		<path d="M465.384,180.787c3.585-2.896,5.882-7.322,5.882-12.289c0-8.722-7.071-15.793-15.793-15.793h-14.9
			c-8.722,0-15.793,7.071-15.793,15.793c0,4.967,2.298,9.393,5.884,12.288h-32.343c3.586-2.895,5.884-7.321,5.884-12.288
			c0-8.722-7.071-15.793-15.793-15.793h-14.9c-8.722,0-15.793,7.071-15.793,15.793c0,4.967,2.298,9.393,5.884,12.288h-27.77
			c3.586-2.895,5.884-7.321,5.884-12.288c0-8.722-7.071-15.793-15.793-15.793h-14.9c-8.722,0-15.793,7.071-15.793,15.793
			c0,4.967,2.298,9.393,5.884,12.288h-12.242c-1.513,8.605-6.03,16.28-12.904,21.803l-6.796,5.461h235.627v-27.264H465.384z"/>
	</g>
</g>
<g>
</g>
<g>
</g>
<g>
</g>
<g>
</g>
<g>
</g>
<g>
</g>
<g>
</g>
<g>
</g>
<g>
</g>
<g>
</g>
<g>
</g>
<g>
</g>
<g>
</g>
<g>
</g>
<g>
</g>
</svg>
