<?xml version="1.0" encoding="iso-8859-1"?>
<!-- Generator: Adobe Illustrator 19.0.0, SVG Export Plug-In . SVG Version: 6.00 Build 0)  -->
<svg version="1.1" id="Layer_1" xmlns="http://www.w3.org/2000/svg" xmlns:xlink="http://www.w3.org/1999/xlink" x="0px" y="0px"
	 viewBox="0 0 512.002 512.002" style="enable-background:new 0 0 512.002 512.002;" xml:space="preserve">
<g>
	<g>
		<path d="M512,440.312c0-10.588-8.583-19.172-19.172-19.172H249.049V267.401c-7.144,4.129-15.184,5.927-23.627,5.081v195.111
			c0,6.525,5.289,11.813,11.814,11.813h15.529c-0.001-0.147-0.011-0.291-0.011-0.439c0-3.924,0.495-7.734,1.419-11.375
			c5.082-20.023,23.255-34.882,44.836-34.882s39.755,14.859,44.837,34.882c0.924,3.641,1.419,7.45,1.419,11.375
			c0,0.147-0.01,0.292-0.011,0.439h49.272c-0.001-0.147-0.011-0.291-0.011-0.439c0-3.924,0.495-7.734,1.419-11.375
			c5.082-20.023,23.255-34.882,44.837-34.882c21.581,0,39.755,14.859,44.837,34.882c0.924,3.641,1.419,7.45,1.419,11.375
			c0,0.147-0.01,0.292-0.011,0.439h13.173c6.525,0,11.814-5.289,11.814-11.813L512,440.312z"/>
	</g>
</g>
<g>
	<g>
		<path d="M232.377,213.35c-7.903-1.204-58.161-8.861-68.835-10.488l-32.284-69.416l41.73,50.509l9.662-35.694
			c4.331-16-5.129-32.481-21.129-36.812L115.988,99.24c-11.177-2.997-23.094-1.266-32.956,4.788L9.548,149.133
			c-5.342,3.301-8.839,8.906-9.452,15.158c-0.613,6.25,1.726,12.429,6.325,16.706l39.729,36.95
			c-0.236,0.869-7.064,26.583-10.769,40.539c-1.55,5.84-1.633,11.88-0.27,17.767c4.29,18.539,14.575,62.787,24.374,103.45
			L46.307,481.878c-1.656,12.844,7.413,24.597,20.256,26.254c12.869,1.655,24.601-7.435,26.253-20.255l13.733-106.481
			c0.367-2.845,0.208-5.733-0.467-8.521l-22.255-91.834l0.365,0.099c0.821,1.913-3.41-5.656,55.149,97.069l-11.322,104.135
			c-1.4,12.874,7.902,24.445,20.775,25.844c12.837,1.401,24.442-7.872,25.844-20.775l12.142-111.685
			c0.533-4.908-0.495-9.858-2.939-14.146l-39.961-70.1l8.148-30.103l-8.132-1.239c-17.709-2.698-29.213-16.866-31.23-26.587
			l-16.73-80.582l35.651,76.654c2.813,6.045,8.483,10.384,15.221,11.411l79.505,12.112c11.032,1.683,21.264-5.922,22.931-16.868
			C250.914,225.325,243.405,215.03,232.377,213.35z M58.038,174.024l-4.864-4.524l7.313-4.519L58.038,174.024z"/>
	</g>
</g>
<g>
	<g>
		<circle cx="158.921" cy="48.103" r="44.429"/>
	</g>
</g>
<g>
	<g>
		<path d="M451.307,191.501h-153.38c-7.448,0-13.485,6.038-13.485,13.485V372.48c0,7.448,6.038,13.486,13.485,13.486h153.38
			c7.448,0,13.485-6.038,13.485-13.485V204.986C464.792,197.538,458.754,191.501,451.307,191.501z M435.607,321.868
			c-0.339,0.818-1.137,1.351-2.022,1.351h-6.4v28.167c0,2.432-1.971,4.403-4.403,4.403h-16.396c-2.432,0-4.403-1.971-4.403-4.403
			v-28.167h-6.4c-0.886,0-1.684-0.533-2.021-1.351c-0.341-0.818-0.153-1.759,0.472-2.385l19.002-19.002
			c0.855-0.855,2.24-0.855,3.095,0l19.002,19.002C435.759,320.108,435.946,321.05,435.607,321.868z"/>
	</g>
</g>
<g>
	<g>
		<path d="M299.008,449.607c-16.216,0-29.36,13.145-29.36,29.36c0,16.216,13.145,29.36,29.36,29.36s29.36-13.145,29.36-29.36
			C328.369,462.752,315.224,449.607,299.008,449.607z M299.008,489.426c-5.776,0-10.459-4.682-10.459-10.459
			s4.682-10.459,10.459-10.459s10.459,4.682,10.459,10.459C309.467,484.743,304.785,489.426,299.008,489.426z"/>
	</g>
</g>
<g>
	<g>
		<path d="M440.77,449.607c-16.216,0-29.36,13.145-29.36,29.36c0,16.216,13.145,29.36,29.36,29.36
			c16.216,0,29.36-13.145,29.36-29.36C470.13,462.752,456.985,449.607,440.77,449.607z M440.77,489.426
			c-5.776,0-10.459-4.682-10.459-10.459s4.682-10.459,10.459-10.459c5.776,0,10.459,4.682,10.459,10.459
			C451.228,484.743,446.545,489.426,440.77,489.426z"/>
	</g>
</g>
<g>
</g>
<g>
</g>
<g>
</g>
<g>
</g>
<g>
</g>
<g>
</g>
<g>
</g>
<g>
</g>
<g>
</g>
<g>
</g>
<g>
</g>
<g>
</g>
<g>
</g>
<g>
</g>
<g>
</g>
</svg>
