<?xml version="1.0" encoding="iso-8859-1"?>
<!-- Generator: Adobe Illustrator 19.0.0, SVG Export Plug-In . SVG Version: 6.00 Build 0)  -->
<svg version="1.1" id="Layer_1" xmlns="http://www.w3.org/2000/svg" xmlns:xlink="http://www.w3.org/1999/xlink" x="0px" y="0px"
	 viewBox="0 0 512 512" style="enable-background:new 0 0 512 512;" xml:space="preserve">
<g>
	<g>
		<path d="M477.226,273.315h-20.121v-79.376c0-5.005-4.057-9.062-9.062-9.062H379.04V54.504c0-5.005-4.057-9.062-9.062-9.062h-4.989
			V11.71c0-6.467-5.243-11.71-11.71-11.71h-94.459c-6.467,0-11.71,5.242-11.71,11.71v32.34h-7.026
			c-6.467,0-11.709,5.242-11.709,11.709c0,6.467,5.242,11.71,11.709,11.71h0.783l-39.095,63.524
			c-72.634-17.252-48.797-11.245-104.425-26.302c-15.859-4.293-32.196,5.084-36.49,20.943
			c-30.97,114.413-9.675,35.743-35.454,130.978c-2.898,10.704-3.116,22.015-0.584,32.811c4.264,18.18,11.972,50.845,22.597,95.08
			l-13.063,101.28c-1.641,12.731,7.347,24.381,20.078,26.023c1.009,0.129,2.011,0.193,3.001,0.193
			c11.512-0.001,21.509-8.55,23.021-20.271l13.613-105.546c0.363-2.819,0.206-5.682-0.463-8.446l-22.071-91.083l0.352,0.096
			c0.84,1.97-3.186-5.25,54.688,96.273L115.35,486.242c-1.388,12.761,7.832,24.231,20.593,25.618
			c0.854,0.094,1.701,0.138,2.541,0.138c11.71,0,21.781-8.824,23.077-20.731l12.037-110.705c0.528-4.864-0.491-9.772-2.913-14.023
			l-39.62-69.501l8.086-29.873l-8.061-1.227c-17.554-2.675-28.955-16.718-30.956-26.353l-16.583-79.875l35.337,75.981
			c2.789,5.996,8.413,10.294,15.086,11.312l78.807,12.006c10.936,1.668,21.077-5.87,22.73-16.72
			c1.656-10.869-5.795-21.066-16.72-22.73c-7.833-1.193-57.65-8.783-68.23-10.395l-32.001-68.807l41.363,50.066l7.211-26.641
			l39.455,9.37c8.403,1.996,17.102-1.641,21.603-8.955l18.917-30.738v45.952c0,6.467,5.242,11.71,11.71,11.71
			c6.467,0,11.709-5.242,11.709-11.71V95.409l5.282-8.583c3.748-6.089,3.812-13.393,0.845-19.355h0.118
			c6.467,0,11.71-5.242,11.71-11.709c0-6.467-5.242-11.71-11.71-11.71h-6.246V23.419h71.039v22.023h-4.99
			c-5.005,0-9.062,4.057-9.062,9.062v218.809h-31.278c-1.256-19.577-17.525-35.069-37.418-35.069c-1.332,0-2.647,0.072-3.943,0.207
			c0.046,2.214-0.085,4.46-0.429,6.722c-3.223,21.154-23.075,36.044-44.55,32.771l-16.844-2.56l0.112,224.904
			c0,6.467,5.242,11.71,11.71,11.71c6.467,0,11.71-5.242,11.71-11.71V331.069h248.932V500.29c0,6.467,5.242,11.71,11.71,11.71
			c6.467,0,11.709-5.242,11.709-11.71V285.024C488.935,278.557,483.693,273.315,477.226,273.315z"/>
	</g>
</g>
<g>
	<g>
		<circle cx="145.982" cy="55.755" r="44.039"/>
	</g>
</g>
<g>
</g>
<g>
</g>
<g>
</g>
<g>
</g>
<g>
</g>
<g>
</g>
<g>
</g>
<g>
</g>
<g>
</g>
<g>
</g>
<g>
</g>
<g>
</g>
<g>
</g>
<g>
</g>
<g>
</g>
</svg>
