<?xml version="1.0" encoding="iso-8859-1"?>
<!-- Generator: Adobe Illustrator 19.0.0, SVG Export Plug-In . SVG Version: 6.00 Build 0)  -->
<svg version="1.1" id="Layer_1" xmlns="http://www.w3.org/2000/svg" xmlns:xlink="http://www.w3.org/1999/xlink" x="0px" y="0px"
	 viewBox="0 0 511.989 511.989" style="enable-background:new 0 0 511.989 511.989;" xml:space="preserve">
<g>
	<g>
		<path d="M418.601,256.909h-30.475c-8.829,9.483-21.318,13.878-33.649,12.511l-46.05-5.097c-1.443,2.353-2.291,5.113-2.291,8.075
			c0,8.554,6.934,15.489,15.489,15.489h17.255v111.612c0,8.31,6.737,15.048,15.048,15.048h5.282v86.667
			c0,5.951,4.824,10.775,10.775,10.775s10.775-4.824,10.775-10.775v-86.667h5.282c8.31,0,15.048-6.737,15.048-15.048V287.887h17.509
			c8.555,0,15.489-6.935,15.489-15.489C434.09,263.843,427.155,256.909,418.601,256.909z"/>
	</g>
</g>
<g>
	<g>
		<path d="M361.124,209.383l-70.161-7.767l-35.583-68.975l44.366,49.431l8.306-36.557c3.722-16.387-6.543-32.689-22.929-36.412
			L232.21,97.082c-16.387-3.724-32.689,6.542-36.412,22.929c-39.384,173.348,42.574-187.564-34.587,152.232l-11.761,86.388
			l-68.33,117.646c-6.592,11.352-2.735,25.9,8.617,32.493c11.349,6.592,25.9,2.736,32.493-8.617l70.685-121.706
			c1.556-2.681,2.574-5.641,2.995-8.712l11.904-86.903l16.762,3.808l37.491,85.248l3.941,117.129
			c0.441,13.118,11.435,23.401,24.557,22.957c13.12-0.441,23.398-11.436,22.957-24.556l-4.096-121.706
			c-0.1-3.025-0.779-6.002-1.997-8.771l-31.265-71.091l5.563-24.485l-8.288-0.917c-18.05-1.998-30.288-15.863-32.738-25.634
			l-20.29-80.931l39.293,76.167c3.083,5.976,9.02,10.166,15.891,10.928c7.631,0.844,72.992,8.08,81.036,8.97
			c11.373,1.26,21.312-7.038,22.528-18.038C380.385,220.855,372.44,210.635,361.124,209.383z"/>
	</g>
</g>
<g>
	<g>
		<circle cx="279.86" cy="45.045" r="45.045"/>
	</g>
</g>
<g>
</g>
<g>
</g>
<g>
</g>
<g>
</g>
<g>
</g>
<g>
</g>
<g>
</g>
<g>
</g>
<g>
</g>
<g>
</g>
<g>
</g>
<g>
</g>
<g>
</g>
<g>
</g>
<g>
</g>
</svg>
