<?xml version="1.0" encoding="iso-8859-1"?>
<!-- Generator: Adobe Illustrator 19.0.0, SVG Export Plug-In . SVG Version: 6.00 Build 0)  -->
<svg version="1.1" id="Layer_1" xmlns="http://www.w3.org/2000/svg" xmlns:xlink="http://www.w3.org/1999/xlink" x="0px" y="0px"
	 viewBox="0 0 511.999 511.999" style="enable-background:new 0 0 511.999 511.999;" xml:space="preserve">
<g>
	<g>
		<path d="M219.273,243.493l-3.467-0.052c-0.505-12.597-7.462-23.557-17.655-29.657c-0.001,0.391-0.002,0.781-0.019,1.175
			c-0.205,4.997-1.635,9.651-3.981,13.697c4.068,3.648,6.76,8.797,7.203,14.567c-17.386-0.249-43.88-0.811-62.301-0.868
			c-4.442,0.486-7.931,4.214-8,8.797c-0.075,4.963,3.888,9.049,8.853,9.124l0.977,0.015l6.406,68.559
			c0.28,2.997,2.771,5.3,5.78,5.346l50.544,0.763c3.009,0.046,5.569-2.183,5.94-5.169l8.474-68.333l0.976,0.014
			c0.047,0.001,0.093,0.001,0.138,0.001c4.901,0,8.912-3.936,8.985-8.854C228.2,247.653,224.237,243.567,219.273,243.493z"/>
	</g>
</g>
<g>
	<g>
		<path d="M169.016,197.7l-54.94-2.259l-35.05-29.916l35.254,16.159l1.579-19.208c1.093-13.301-8.802-24.969-22.103-26.062
			c-1.054-0.087-42.947-3.53-42.947-3.53c-13.301-1.093-24.969,8.802-26.062,22.103c-0.045,0.539-5.802,81.212-7.997,111.956
			c-0.548,7.681-0.24,15.604,0.928,23.216l7.687,50.119L0.69,430.276c-2.811,10.256,3.223,20.849,13.48,23.661
			c10.256,2.813,20.85-3.223,23.661-13.479l25.759-93.955c0.715-2.607,0.872-5.337,0.463-8.01l-8.68-56.593l8.452,0.695
			l22.29,60.773l6.073,93.254c0.693,10.631,9.881,18.662,20.466,17.963c10.612-0.692,18.654-9.854,17.964-20.466l-6.256-96.026
			c-0.119-1.839-0.503-3.649-1.138-5.38l-17.45-47.576l3.617-44.005c-8.227-0.338-15.473,0.489-20.862-7.221l-30.34-43.975
			l39.268,33.515c2.732,2.332,6.169,3.68,9.758,3.828l60.482,2.487c0.224,0.009,0.447,0.013,0.671,0.013
			c8.557,0,15.667-6.757,16.02-15.387C184.753,205.538,177.871,198.065,169.016,197.7z"/>
	</g>
</g>
<g>
	<g>
		<circle cx="86.493" cy="90.389" r="33.018"/>
	</g>
</g>
<g>
	<g>
		<circle cx="336.171" cy="93.491" r="34.83"/>
	</g>
</g>
<g>
	<g>
		<path d="M488.752,258.874l-18.566-70.852c-1.279-4.881-6.273-7.799-11.153-6.522c-4.479,1.174-7.992,5.542-6.27,12.113
			l-1.899,0.724l-15.773-14.935c2.286-3.82,2.96-8.573,1.432-13.123c-2.772-8.263-11.72-12.716-19.982-9.944l-59.743,20.04
			l1.176-5.175c2.879-12.674-5.06-25.281-17.734-28.161c0,0-9.275-1.953-37.993-8.632c-10.572-2.459-27.517,1.345-31.089,17.068
			c-26.063,114.717-26.749,117.735-26.749,117.735l-9.096,66.812l-52.843,90.986c-5.099,8.78-2.116,20.031,6.664,25.13
			c8.78,5.1,20.031,2.115,25.13-6.664l54.667-94.126c1.205-2.074,1.991-4.362,2.317-6.738l9.206-67.21l12.964,2.945l28.995,65.93
			l3.048,90.586c0.341,10.15,8.847,18.099,18.991,17.755c10.147-0.341,18.097-8.845,17.755-18.991l-3.167-94.126
			c-0.079-2.338-0.604-4.641-1.545-6.782l-24.18-54.982l4.302-18.936l-6.41-0.71c-14.544-1.61-23.567-12.832-25.319-19.826
			l-15.692-62.591l30.389,58.906c2.414,4.678,7.015,7.866,12.29,8.451c6.74,0.746,56.019,6.201,62.673,6.937
			c8.199,0.907,15.684-4.653,17.231-12.682c1.752-9.087-4.617-17.679-13.758-18.691c-0.454-0.05-21.817-2.415-54.262-6.007
			l-27.519-53.345l34.312,38.229l0.621,0.692l24.783,2.743l41.635-13.967l13.333,12.624l-19.801,7.556
			c10.446,5.706,17.358,17.458,15.907,30.562c-1.825,16.495-16.484,28.894-33.454,27.4l2.172,8.288
			c0.775,2.959,3.654,4.857,6.679,4.407l69.213-10.32c1.724,6.574,6.948,8.651,11.405,7.483c3.202-0.839,5.549-3.279,6.432-6.234
			c7.113,11.939,3.417,24.654,1.482,26.418c-0.558,1.046-0.995,2.003-1.243,3.472c-0.954,5.653,2.856,11.009,8.509,11.963
			c4.307,0.726,10.342-1.079,12.106-9.232C514.476,287.915,506.488,268.245,488.752,258.874z"/>
	</g>
</g>
<g>
</g>
<g>
</g>
<g>
</g>
<g>
</g>
<g>
</g>
<g>
</g>
<g>
</g>
<g>
</g>
<g>
</g>
<g>
</g>
<g>
</g>
<g>
</g>
<g>
</g>
<g>
</g>
<g>
</g>
</svg>
