<?xml version="1.0" encoding="iso-8859-1"?>
<!-- Generator: Adobe Illustrator 19.0.0, SVG Export Plug-In . SVG Version: 6.00 Build 0)  -->
<svg version="1.1" id="Layer_1" xmlns="http://www.w3.org/2000/svg" xmlns:xlink="http://www.w3.org/1999/xlink" x="0px" y="0px"
	 viewBox="0 0 512.002 512.002" style="enable-background:new 0 0 512.002 512.002;" xml:space="preserve">
<g>
	<g>
		<path d="M199.562,187.161l-64.87-2.668l-41.385-35.323l41.625,19.079l1.865-22.679c1.291-15.704-10.393-29.482-26.097-30.772
			c-1.244-0.102-50.708-4.168-50.708-4.168c-15.704-1.291-29.482,10.393-30.772,26.097L17.9,274.443
			c-0.447,5.429-0.199,10.892,0.738,16.258l11.311,64.801L0.815,461.765c-3.32,12.11,3.805,24.617,15.915,27.937
			c12.114,3.321,24.619-3.81,27.937-15.915l30.414-110.933c0.844-3.08,1.03-6.303,0.546-9.459l-10.248-66.819l9.979,0.82
			l26.318,71.756l7.173,110.106c0.817,12.536,11.642,22.028,24.165,21.209c12.529-0.817,22.025-11.635,21.209-24.165l-7.385-113.379
			c-0.141-2.171-0.593-4.309-1.342-6.351l-20.603-56.175l4.271-51.956c-9.663-0.397-18.267,0.58-24.633-8.526L68.709,177.99
			l46.365,39.572c3.227,2.754,7.283,4.345,11.522,4.519c0.613,0.025,71.59,2.953,72.203,2.953
			c10.103,0.003,18.495-7.975,18.915-18.164C218.144,196.415,210.017,187.591,199.562,187.161z"/>
	</g>
</g>
<g>
	<g>
		<circle cx="102.125" cy="60.461" r="38.985"/>
	</g>
</g>
<g>
	<g>
		<path d="M477.856,400.638c-15.292-3.992-31.328,0.177-42.724,10.83l-19.197-12.077l62.451-84.297
			c3.656-4.934,1.163-12.02-4.785-13.573l-179.62-46.888c-5.783-1.51-11.332,3.15-10.85,9.104l4.446,54.899l-20.672-13.005
			l-10.281-93.846c-0.456-4.157-3.372-7.627-7.388-8.79l-16.136-4.676c0.668,2.956,0.969,6.046,0.838,9.219
			c-0.172,4.164-1.065,8.128-2.546,11.781l5.461,1.583l10.072,91.936c0.343,3.132,2.098,5.936,4.765,7.613l8.426,5.301l4.208,88.964
			c0.344,7.297,5.58,13.43,12.733,14.915c7.167,1.484,14.402-2.067,17.618-8.613l27.594-56.164l101.357,63.768
			c-0.576,1.519-1.084,3.075-1.501,4.675c-6.376,24.427,8.229,49.354,32.657,55.732c24.534,6.404,49.39-8.365,55.732-32.658
			C516.876,432.001,502.225,407,477.856,400.638z M284.096,395.733l-2.676-56.581l23.279,14.646L284.096,395.733z M490.539,451.155
			c-3.482,13.339-17.104,21.406-30.541,17.897c-12.774-3.334-20.777-15.982-18.217-29.01l23.248,14.626
			c4.829,3.037,11.2,1.582,14.234-3.24c3.036-4.825,1.585-11.199-3.24-14.234l-22.257-14.003c5.618-3.267,12.314-4.289,18.877-2.577
			C485.996,424.101,494.024,437.8,490.539,451.155z"/>
	</g>
</g>
<g>
</g>
<g>
</g>
<g>
</g>
<g>
</g>
<g>
</g>
<g>
</g>
<g>
</g>
<g>
</g>
<g>
</g>
<g>
</g>
<g>
</g>
<g>
</g>
<g>
</g>
<g>
</g>
<g>
</g>
</svg>
