<?xml version="1.0" encoding="iso-8859-1"?>
<!-- Generator: Adobe Illustrator 19.0.0, SVG Export Plug-In . SVG Version: 6.00 Build 0)  -->
<svg version="1.1" id="Layer_1" xmlns="http://www.w3.org/2000/svg" xmlns:xlink="http://www.w3.org/1999/xlink" x="0px" y="0px"
	 viewBox="0 0 511.999 511.999" style="enable-background:new 0 0 511.999 511.999;" xml:space="preserve">
<g>
	<g>
		<path d="M126.646,374.965L106.15,290.39H59.529l22.094,91.172L68.89,480.285c-1.742,13.512,8.764,25.555,22.497,25.555
			c11.221,0,20.966-8.333,22.44-19.759l13.27-102.882C127.451,380.451,127.299,377.659,126.646,374.965z"/>
	</g>
</g>
<g>
	<g>
		<path d="M201.778,364.053l-38.619-67.749l1.601-5.914c-11.412,0-45.18,0-57.127,0l51.15,89.727l-10.94,100.617
			c-1.454,13.365,9,25.105,22.549,25.105c11.414,0,21.233-8.602,22.494-20.208l11.733-107.911
			C205.133,372.979,204.14,368.196,201.778,364.053z"/>
	</g>
</g>
<g>
	<g>
		<path d="M251.484,202.32c4.772,0.727,9.197,2.323,13.155,4.589h37.089c4.005-4.19,6.116-10.107,5.202-16.286
			c-1.575-10.626-11.465-17.962-22.089-16.39l-64.719,9.587l-20.07-23.814c5.419-20.013-6.143-33.979-19.841-37.687l-49.917-13.512
			c-15.459-4.185-31.384,4.956-35.569,20.415l-21.029,77.685h52.381l-9.233-44.468l34.446,74.065
			c2.77,5.953,8.318,10.053,14.706,11.025l76.819,11.704c10.615,1.621,20.54-5.681,22.156-16.298
			c1.619-10.622-5.682-20.54-16.298-22.156c-8.908-1.357-60.578-9.229-66.509-10.133l-31.194-67.071
			c1.866,2.258,39.971,48.38,41.049,49.686L251.484,202.32z"/>
	</g>
</g>
<g>
	<g>
		<circle cx="177.7" cy="61.111" r="42.928"/>
	</g>
</g>
<g>
	<g>
		<path d="M163.183,265.988c-17.11-2.608-28.225-16.297-30.174-25.689l-3.378-16.269H17.44C7.809,224.03,0,231.838,0,241.471v14.357
			c0,9.633,7.809,17.441,17.441,17.441h193.538L163.183,265.988z"/>
	</g>
</g>
<g>
	<g>
		<path d="M511.572,17.547c-0.01-6.295-5.117-11.392-11.412-11.388c-24.301,0.01-85.516,0.091-164.61,0.598
			c-6.27,0.04-11.334,5.135-11.334,11.405c0,17.127,0,59.563,0,163.481c0,6.304,5.11,11.414,11.414,11.414
			s11.414-5.11,11.414-11.414V61.111h105.915v212.065c-3.395,0-85.528,0-88.835,0c8.787-0.9,15.642-8.323,15.642-17.349V241.47
			c0-9.633-7.809-17.441-17.441-17.441h-81.99c3.041,6.56,4.263,14.049,3.094,21.717c-3.146,20.65-22.541,35.128-43.427,31.944
			l-16.31-2.088v218.823c0,6.304,5.11,11.414,11.414,11.414s11.414-5.11,11.414-11.414V329.474h242.652v164.951
			c0,6.304,5.11,11.414,11.414,11.414s11.414-5.11,11.414-11.414C512,297.376,511.657,70.379,511.572,17.547z"/>
	</g>
</g>
<g>
</g>
<g>
</g>
<g>
</g>
<g>
</g>
<g>
</g>
<g>
</g>
<g>
</g>
<g>
</g>
<g>
</g>
<g>
</g>
<g>
</g>
<g>
</g>
<g>
</g>
<g>
</g>
<g>
</g>
</svg>
