<?xml version="1.0" encoding="iso-8859-1"?>
<!-- Generator: Adobe Illustrator 19.0.0, SVG Export Plug-In . SVG Version: 6.00 Build 0)  -->
<svg version="1.1" id="Layer_1" xmlns="http://www.w3.org/2000/svg" xmlns:xlink="http://www.w3.org/1999/xlink" x="0px" y="0px"
	 viewBox="0 0 511.999 511.999" style="enable-background:new 0 0 511.999 511.999;" xml:space="preserve">
<g>
	<g>
		<circle cx="192.107" cy="113.494" r="42.967"/>
	</g>
</g>
<g>
	<g>
		<path d="M506.442,195.115l-53.734-7.545l7.011-31.63c1.293-5.835-5.378-10.16-10.175-6.6l-29.331,21.751l-13.866-33.781
			c-2.377-5.787-10.827-5.15-12.284,0.953l-8.133,34.033l-43.281-32.369c-5.384-4.03-12.615,1.882-9.722,7.963l23.05,48.467
			l-31.407,9.671c-5.723,1.762-6.179,9.737-0.67,12.126l32.224,13.972l-33.307,32.065c-4.871,4.689-0.138,12.795,6.339,10.866
			l14.123-4.211c-22.341,11.122-34.695,23.554-37.707,37.922c-4.363,20.816,11.207,38.499,26.264,55.598
			c3.384,3.842,25.614,28.201,20.731,33.921c-1.422,1.668-10.704,10.034-53.91,10.85c-10.276,0.199-21.07-0.07-31.25-0.625v-42.648
			c0-8.361-6.777-15.138-15.138-15.138h-18.932c0-6.316,0.154-18.798,0.154-18.798l15.508-0.09c5.07,0,9.178-4.11,9.178-9.18v-3.225
			v-0.714c0-5.07-4.11-9.18-9.178-9.18h-3.041c0.65-1.011,1.225-2.089,1.691-3.246c4.021-9.971-0.802-21.313-10.774-25.333
			l-63.904-25.77l-19.102-60.369l10.039,17.579c11.199-11.049,11.574-29.074,0.721-40.572
			c-14.295-15.143-34.264-23.629-55.087-23.412c-20.823,0.217-40.61,9.119-54.585,24.558l-41.495,45.838
			c-15.095,16.675-17.648,41.344-5.954,60.829c0.038,0.065,0.076,0.129,0.115,0.194c4.93,8.132,53.199,59.34,53.199,59.34
			L5.703,402.818c-8.447,9.751-7.388,24.504,2.363,32.951c9.767,8.459,24.518,7.374,32.951-2.364l68.676-79.29
			c7.736-8.931,7.584-22.233-0.354-30.986l-53.086-58.535c6.874,4.59,60.959,40.704,67.748,45.237
			c16.736,11.175,20.126,34.543,6.9,50.035c-7.505,8.658-4.739,5.467-12.404,14.318l3.567,45.745
			c1.597,20.465,26.963,28.959,40.618,13.84l0.148-122.426c0,0-18.518-8.838-24.53-11.263c-7.491-3.02-12.572-9.484-14.183-16.825
			l-25.359-9.318l22.489-21.23l-3.851-44.108l21.229,67.093c1.753,5.541,5.889,10.008,11.28,12.182l53.746,21.673h-7.548
			c-4.622,0-9.179,3.334-9.179,10.142v2.975c0,5.069,4.11,9.18,9.179,9.18h15.661c0,6.998,0,11.724,0,18.887h-18.931
			c-8.361,0-15.138,6.777-15.138,15.138v59.44c0,8.361,6.777,15.138,15.138,15.138h59.44c6.689,0,12.354-4.343,14.356-10.359
			c27.662,1.485,84.779,2.826,102.361-17.796c5.401-6.336,7.16-14.43,4.952-22.788c-3.761-14.237-15.02-27.024-25.91-39.392
			c-11.546-13.113-23.486-26.673-21.34-36.913c3.13-14.934,31.687-24.599,50.527-35.473l1.314,20.255
			c0.41,6.323,8.785,8.344,12.025,2.885l22.062-37.162l24.573,56.736c2.871,6.625,12.796,4.259,12.403-2.927l-3.28-59.798
			l32.188,3.475c6.475,0.685,9.713-7.396,4.837-11.426l-24.764-23.453l49.265-18.73
			C514.075,205.205,513.046,196.042,506.442,195.115z M444.343,217.868c-4.454,1.693-5.611,7.474-2.151,10.751l18.621,17.635
			l-20.682-2.233c-3.968-0.43-7.376,2.806-7.159,6.79l1.714,31.268l-15.225-35.154c-2.098-4.842-8.808-5.276-11.506-0.731
			l-17.858,30.082l-1.568-24.169c-0.268-4.143-4.325-6.973-8.309-5.784l-29.23,8.715l21.11-20.323
			c3.332-3.207,2.311-8.771-1.914-10.602l-25.063-10.867l21.82-6.718c3.775-1.161,5.634-5.408,3.941-8.967l-15.021-31.584
			l30.196,22.584c3.718,2.782,9.091,0.848,10.172-3.679l5.758-24.091l9.405,22.915c1.6,3.898,6.453,5.256,9.844,2.741l22.087-16.379
			l-4.774,21.538c-0.816,3.681,1.681,7.286,5.42,7.811l35.71,5.014L444.343,217.868z"/>
	</g>
</g>
<g>
</g>
<g>
</g>
<g>
</g>
<g>
</g>
<g>
</g>
<g>
</g>
<g>
</g>
<g>
</g>
<g>
</g>
<g>
</g>
<g>
</g>
<g>
</g>
<g>
</g>
<g>
</g>
<g>
</g>
</svg>
