<?xml version="1.0" encoding="iso-8859-1"?>
<!-- Generator: Adobe Illustrator 19.0.0, SVG Export Plug-In . SVG Version: 6.00 Build 0)  -->
<svg version="1.1" id="Layer_1" xmlns="http://www.w3.org/2000/svg" xmlns:xlink="http://www.w3.org/1999/xlink" x="0px" y="0px"
	 viewBox="0 0 511.989 511.989" style="enable-background:new 0 0 511.989 511.989;" xml:space="preserve">
<g>
	<g>
		<path d="M217.73,212.706c-8.016-1.222-58.997-8.989-69.827-10.638l-32.75-70.417c7.067,8.554,39.3,47.568,43.098,52.165
			l36.388,5.544c0.255-1.562,0.564-2.983,1.2-4.941h-15.824l-13.563-34.657l0.834-3.081c4.393-16.231-5.203-32.95-21.434-37.343
			L93.444,95.148c-16.231-4.394-32.95,5.203-37.343,21.434c-1.92,7.095-25.422,94.488-35.756,132.915
			c-3.154,11.73-3.398,24.119-0.653,35.951c5.16,22.238,14.294,61.371,22.655,96.063L28.977,485.159
			c-1.681,13.029,7.52,24.951,20.547,26.632c13.014,1.68,24.95-7.506,26.632-20.547l13.931-108.015
			c0.372-2.886,0.212-5.817-0.472-8.645l-22.589-93.215l0.361,0.098c0.859,2.015-3.287-5.418,55.968,98.528l-11.485,105.636
			c-1.526,14.036,9.452,26.358,23.675,26.358c11.983,0,22.291-9.031,23.617-21.217l12.318-113.295c0.541-4.979-0.502-10-2.982-14.35
			l-40.549-71.129l8.276-30.573l-8.249-1.256c-17.964-2.737-29.634-17.109-31.68-26.97l-16.972-81.744l36.164,77.76
			c2.885,6.2,8.678,10.545,15.44,11.575l80.651,12.288c11.145,1.701,21.564-5.965,23.262-17.111
			C236.544,224.789,228.844,214.393,217.73,212.706z"/>
	</g>
</g>
<g>
	<g>
		<circle cx="143.213" cy="45.07" r="45.07"/>
	</g>
</g>
<g>
	<g>
		<path d="M482.212,279.7c-6.252,0-156.488,0-163.008,0c7.668-5.145,12.969-13.542,13.928-23.218c17.758,0,35.587,0,53.427,0
			l2.495,7.354c1.693,4.991,6.353,8.137,11.347,8.137c1.276,0,2.576-0.206,3.852-0.639c6.268-2.126,9.625-8.932,7.498-15.198
			l-3.896-11.482c-12.718-37.483-47.816-63.492-89.055-63.298l-93.455,0.735c-5.835,0.047-10.789,4.289-11.732,10.048l-0.018,0.106
			l7.089,1.079c9.403,1.434,17.543,6.053,23.501,12.588c0.414-0.003,74.944-0.59,75.357-0.59c25.956,0,49.317,14.369,61.193,36.78
			c-27.988,0-22.068,0-49.488,0c-4.595-12.171-16.315-20.546-29.714-20.546c-13.5,0-25.151,8.456-29.714,20.546h-18.218
			c-1.246,5.276-3.541,10.141-6.64,14.381h22.973c0.959,9.676,6.26,18.073,13.928,23.218c-8.765,0-72.389,0-80.374,0
			c-6.621,0-11.984,5.413-11.984,11.984v208.321c0,6.618,5.365,11.984,11.984,11.984c6.618,0,11.984-5.365,11.984-11.984V338.807
			h254.758v161.197c0,6.618,5.365,11.984,11.984,11.984c6.619,0,11.984-5.365,11.984-11.984V291.683
			C494.196,285.066,488.831,279.7,482.212,279.7z"/>
	</g>
</g>
<g>
</g>
<g>
</g>
<g>
</g>
<g>
</g>
<g>
</g>
<g>
</g>
<g>
</g>
<g>
</g>
<g>
</g>
<g>
</g>
<g>
</g>
<g>
</g>
<g>
</g>
<g>
</g>
<g>
</g>
</svg>
