<?xml version="1.0" encoding="iso-8859-1"?>
<!-- Generator: Adobe Illustrator 19.0.0, SVG Export Plug-In . SVG Version: 6.00 Build 0)  -->
<svg version="1.1" id="Layer_1" xmlns="http://www.w3.org/2000/svg" xmlns:xlink="http://www.w3.org/1999/xlink" x="0px" y="0px"
	 viewBox="0 0 511.999 511.999" style="enable-background:new 0 0 511.999 511.999;" xml:space="preserve">
<g>
	<g>
		<path d="M384.407,0.979c-9.685-3.272-20.188,1.924-23.462,11.609l-3.118,9.225l37.564-10.771
			C393.366,6.464,389.521,2.708,384.407,0.979z"/>
	</g>
</g>
<g>
	<g>
		<polygon points="349.985,80.803 371.229,97.776 379.861,72.237 		"/>
	</g>
</g>
<g>
	<g>
		<path d="M238.678,32.351c-17.366,3.295-30.179,16.849-33.38,33.196l21.365-6.127c0.85-5.39,2.906-10.674,6.248-15.445
			c3.887-5.547,9.023-9.693,14.759-12.343C244.713,31.553,241.704,31.778,238.678,32.351z"/>
	</g>
</g>
<g>
	<g>
		<path d="M258.429,107.055l-23.783,6.82c6.195,1.83,12.901,2.265,19.683,0.978c3.677-0.697,7.145-1.86,10.366-3.406
			L258.429,107.055z"/>
	</g>
</g>
<g>
	<g>
		<path d="M451.501,23.413c-1.69-6.064-7.976-9.609-14.038-7.92L309.244,52.258l24.016,16.827l110.321-31.633
			C449.644,35.762,453.191,29.476,451.501,23.413z"/>
	</g>
</g>
<g>
	<g>
		<path d="M374.716,489.092l-3.818-113.45c-0.093-2.818-0.725-5.592-1.861-8.174l-34.431-78.29l-24.585-129.584l-24.784,6.83
			l59.277-34.874c5.429-3.193,8.86-8.927,9.11-15.219c0.249-6.292-2.717-12.281-7.874-15.894L273.85,50.058
			c-8.369-5.864-19.915-3.833-25.779,4.537c-5.867,8.372-3.835,19.915,4.537,25.78l48.327,33.861l-34.468,20.279l7.885-8.033
			l-49.195,9.333c-15.39,2.919-25.499,17.763-22.579,33.153l27.059,142.627l-7.87,57.449l-63.691,109.665
			c-6.146,10.582-2.549,24.142,8.032,30.289c10.581,6.145,24.142,2.552,30.289-8.033l65.89-113.449
			c1.451-2.499,2.401-5.258,2.793-8.121l10.43-76.146l15.571-2.954l35.669,81.105l3.675,109.182
			c0.41,12.187,10.604,21.806,22.891,21.399C365.547,511.571,375.128,501.323,374.716,489.092z"/>
	</g>
</g>
<g>
	<g>
		<path d="M117.334,147.513c-1.778-4.771-3.505-9.768-5.176-15.031l129.556-37.148c-7.008-5.005-11.751-12.014-14-19.699
			l-121.644,34.88c-1.275-5.365-2.366-10.548-3.3-15.569c-6.058-32.559-5.476-58.327-4.81-83.257
			c0.051-1.924-1.156-3.657-2.981-4.27c-1.823-0.613-3.834,0.036-4.955,1.6c-15.602,21.783-23.785,55.919-18.818,94.978
			c0.657,5.167,1.552,10.423,2.682,15.745l-5.471,1.569c-6.069,1.69-9.608,7.979-7.92,14.038c1.689,6.064,7.975,9.61,14.038,7.92
			l5.484-1.573c1.767,5.054,3.735,10.006,5.886,14.828c14.807,33.19,38.299,60.19,65.216,71.685
			c1.766,0.755,3.819,0.274,5.061-1.191c1.242-1.465,1.385-3.568,0.352-5.187C142.258,199.457,128.751,178.149,117.334,147.513z"/>
	</g>
</g>
<g>
</g>
<g>
</g>
<g>
</g>
<g>
</g>
<g>
</g>
<g>
</g>
<g>
</g>
<g>
</g>
<g>
</g>
<g>
</g>
<g>
</g>
<g>
</g>
<g>
</g>
<g>
</g>
<g>
</g>
</svg>
