<?xml version="1.0" encoding="iso-8859-1"?>
<!-- Generator: Adobe Illustrator 19.0.0, SVG Export Plug-In . SVG Version: 6.00 Build 0)  -->
<svg version="1.1" id="Layer_1" xmlns="http://www.w3.org/2000/svg" xmlns:xlink="http://www.w3.org/1999/xlink" x="0px" y="0px"
	 viewBox="0 0 512 512" style="enable-background:new 0 0 512 512;" xml:space="preserve">
<g>
	<g>
		<path d="M386.543,116.912c-4.273,0-7.738,3.465-7.738,7.738v34.612l0.403-0.232c4.583-2.635,9.789-4.027,15.057-4.027
			c0.006,0,0.01,0,0.016,0V124.65C394.281,120.376,390.817,116.912,386.543,116.912z"/>
	</g>
</g>
<g>
	<g>
		<path d="M500.893,374.756v-0.001c6.134,0,11.107-4.973,11.107-11.107v-5.924c0-6.134-4.973-11.107-11.107-11.107H487.94
			l-17.125-63.142c-1.312-4.84-5.706-8.2-10.72-8.2h-85v-21.892h7.815c6.134,0,11.107-4.973,11.107-11.107v-6.855h84.221v17.456
			c0,7.376,5.98,13.357,13.357,13.357s13.357-5.98,13.357-13.357v-55.397c0-7.376-5.98-13.357-13.357-13.357
			s-13.357,5.98-13.357,13.357v17.456h-74.92c-17.306,9.951-31.534,18.131-48.906,28.121c-7.387,4.246-16.671,5.363-25.367,2.216
			v8.112h19.338v21.892h-19.339c0,0-0.008,14.771-0.008,99.479h36.043v35.306h-36.043v28.138h171.857
			c6.134,0,11.107-4.973,11.107-11.107v-5.924c0-6.134-4.973-11.107-11.107-11.107h-52.336v-35.306H500.893z"/>
	</g>
</g>
<g>
	<g>
		<path d="M212.516,374.755c0-16.777,0-50.538,0-58.083c-3.374,1.307-7.036,2.023-10.86,2.023c-0.069,0-0.138-0.001-0.206-0.001
			c-15.238-0.102-30.129-11.685-30.025-32.288H102.4c-6.147,0-11.13-4.983-11.13-11.13c0-14.639,0-24.533,0-40.009
			c0-6.147,4.983-11.13,11.13-11.13h69.337c0.118-23.464,0.083-16.649,0.201-40.07H36.707c-6.134,0-11.107,4.973-11.107,11.107
			v22.284H11.107C4.973,217.457,0,222.43,0,228.564v13.712c0,6.134,4.973,11.107,11.107,11.107H25.6v93.234H11.107
			C4.973,346.617,0,351.59,0,357.724v5.924c0,6.134,4.973,11.107,11.107,11.107H36.73v35.306H11.107
			C4.973,410.06,0,415.033,0,421.167v5.924c0,6.134,4.973,11.107,11.107,11.107h201.409V410.06h-92.307v-35.306H212.516z"/>
	</g>
</g>
<g>
	<g>
		<path d="M270.547,43.362c-19.331,0-35.003,15.672-35.003,35.003c0.001,19.38,15.726,35.003,35.003,35.003
			c19.217,0,35.003-15.548,35.003-35.003C305.55,59.039,289.884,43.362,270.547,43.362z"/>
	</g>
</g>
<g>
	<g>
		<path d="M406.922,174.043c-5.284-5.973-14.119-7.428-21.06-3.437l-29.765,17.115v-0.001l-0.106-23.428
			c-0.11-21.816-17.962-39.767-39.967-39.767c-11.273,0-79.372,0-90.67,0c-21.919,0-39.857,17.836-39.967,39.767l-0.622,124.078
			c-0.047,9.327,7.476,16.927,16.804,16.974c0.014,0,0.029,0,0.043,0s0.029,0,0.042,0c9.288,0,16.84-7.505,16.887-16.805
			l0.623-124.078c0.01-1.949,1.596-3.522,3.544-3.517c1.949,0.006,3.525,1.587,3.525,3.535
			c-0.009,162.445-0.367,20.542-0.367,283.892c0,11.193,9.074,20.266,20.266,20.266s20.266-9.075,20.266-20.266V286.377h8.751
			v161.995c0,11.193,9.073,20.266,20.266,20.266c11.193,0,20.266-9.075,20.266-20.266l0.008-283.903
			c0-1.798,1.455-3.256,3.251-3.261c1.798-0.006,3.26,1.445,3.27,3.243l0.236,52.462c0.06,12.885,14.047,21.04,25.31,14.568
			l54.942-31.592C411.96,194.563,414.011,182.09,406.922,174.043z"/>
	</g>
</g>
<g>
</g>
<g>
</g>
<g>
</g>
<g>
</g>
<g>
</g>
<g>
</g>
<g>
</g>
<g>
</g>
<g>
</g>
<g>
</g>
<g>
</g>
<g>
</g>
<g>
</g>
<g>
</g>
<g>
</g>
</svg>
