<?xml version="1.0" encoding="iso-8859-1"?>
<!-- Generator: Adobe Illustrator 19.0.0, SVG Export Plug-In . SVG Version: 6.00 Build 0)  -->
<svg version="1.1" id="Layer_1" xmlns="http://www.w3.org/2000/svg" xmlns:xlink="http://www.w3.org/1999/xlink" x="0px" y="0px"
	 viewBox="0 0 512 512" style="enable-background:new 0 0 512 512;" xml:space="preserve">
<g>
	<g>
		<path d="M267.118,273.612H163.946l0.009,215.014c0,12.909,10.465,23.374,23.374,23.374c12.909,0,23.374-10.465,23.374-23.374
			v-186.83h10.092v186.83c0,12.909,10.465,23.374,23.374,23.374c12.909,0,23.374-10.465,23.374-23.374
			C267.541,293.25,267.118,274.771,267.118,273.612z"/>
	</g>
</g>
<g>
	<g>
		<path d="M163.356,115.13c-25.29,0-45.967,20.574-46.094,45.864l-0.719,143.1c-0.054,10.757,8.623,19.521,19.38,19.576
			c0.033,0,0.067,0,0.1,0c10.712,0,19.422-8.656,19.476-19.381l0.719-143.1c0.011-2.132,1.744-3.851,3.875-3.846
			s3.854,1.735,3.854,3.865v15.271c4.186,0,7.925-8.719,10.395-22.392c1.913-10.594,3.063-24.162,3.068-38.956H163.356z"/>
	</g>
</g>
<g>
	<g>
		<path d="M175.523,65.229c1.697,20.734,19.05,37.034,40.221,37.034s38.524-16.3,40.221-37.034H175.523z"/>
	</g>
</g>
<g>
	<g>
		<path d="M191.081,115.131c0.051,13.47,10.985,24.36,24.451,24.36c13.474,0,24.4-10.897,24.451-24.36
			C213.244,115.131,207.781,115.131,191.081,115.131z"/>
	</g>
</g>
<g>
	<g>
		<path d="M391.163,155.522c-4.588-5.71-11.736-8.142-18.478-6.991l-12.459-46.878l12.348-3.281
			c3.121-0.829,4.978-4.031,4.149-7.153l-4.809-18.096c-0.829-3.121-4.031-4.978-7.153-4.149l-12.348,3.281l-0.735-2.765
			c-1.292-4.859-6.279-7.749-11.138-6.461c-4.859,1.292-7.752,6.278-6.461,11.138l0.735,2.765l-3.55,0.944
			c-1.077,0.287-2.051,0.875-2.804,1.696l-20.092,21.876c-1.35,1.471-1.857,3.528-1.345,5.458l0.705,2.651
			c0.829,3.121,4.031,4.978,7.153,4.149l27.747-7.375l13.842,52.082l-42.272,33.965l0.029-31.267c0-0.039,0-0.077,0-0.116
			c-0.127-25.29-20.804-45.864-46.094-45.864h-14.476c0.004,14.794,1.155,28.363,3.068,38.956
			c2.47,13.674,6.209,22.391,10.395,22.391v-15.277c0-2.24,1.807-4.06,4.047-4.076s4.074,1.778,4.105,4.018c0,0.001,0,0.001,0,0.002
			l-0.067,71.88c-0.007,7.498,4.292,14.334,11.052,17.578c6.789,3.257,14.806,2.301,20.627-2.378l60.572-48.67
			c1.613,4.329,6.278,6.829,10.864,5.613c4.859-1.292,7.752-6.278,6.461-11.138l-1.838-6.918l5.24-4.208
			C396.565,176.168,397.901,163.907,391.163,155.522z"/>
	</g>
</g>
<g>
	<g>
		<path d="M261.365,42.607h-2.302c-3.912-14.769-15.176-26.536-29.637-31.169v10.05c0,2.595-2.104,4.699-4.699,4.699h-3.637V5.558
			c0-3.069-2.489-5.558-5.558-5.558c-3.069,0-5.557,2.489-5.557,5.558v20.631h-3.637c-2.595,0-4.699-2.104-4.699-4.699v-9.912
			c-14.257,4.725-25.339,16.408-29.214,31.032h-2.725c-3.178,0-5.753,2.575-5.753,5.753c0,3.177,2.575,5.752,5.752,5.752
			c42.056,0,50.049,0,91.667,0c3.178,0,5.753-2.575,5.753-5.753S264.543,42.607,261.365,42.607z"/>
	</g>
</g>
<g>
</g>
<g>
</g>
<g>
</g>
<g>
</g>
<g>
</g>
<g>
</g>
<g>
</g>
<g>
</g>
<g>
</g>
<g>
</g>
<g>
</g>
<g>
</g>
<g>
</g>
<g>
</g>
<g>
</g>
</svg>
