<?xml version="1.0" encoding="iso-8859-1"?>
<!-- Generator: Adobe Illustrator 19.0.0, SVG Export Plug-In . SVG Version: 6.00 Build 0)  -->
<svg version="1.1" id="Layer_1" xmlns="http://www.w3.org/2000/svg" xmlns:xlink="http://www.w3.org/1999/xlink" x="0px" y="0px"
	 viewBox="0 0 512 512" style="enable-background:new 0 0 512 512;" xml:space="preserve">
<g>
	<g>
		<path d="M69.18,115.13c-25.29,0-45.967,20.575-46.094,45.864l-0.719,143.098c-0.054,10.757,8.623,19.521,19.38,19.576
			c0.033,0,0.067,0,0.1,0c10.712,0,19.422-8.656,19.476-19.381l0.719-143.098c0.02-3.916,3.221-7.102,7.138-7.102h0.59v22.392
			c4.186,0,7.925-8.718,10.394-22.391c1.913-10.594,3.063-24.162,3.068-38.957H69.18z"/>
	</g>
</g>
<g>
	<g>
		<path d="M172.942,273.611H69.77c0,0,0.009,209.58,0.009,215.014c0,12.909,10.465,23.374,23.374,23.374
			s23.374-10.465,23.374-23.374V301.797h10.092v186.829c0,12.909,10.465,23.374,23.374,23.374c12.909,0,23.374-10.465,23.374-23.374
			C173.365,293.249,172.942,274.774,172.942,273.611z"/>
	</g>
</g>
<g>
	<g>
		<path d="M81.346,65.229c1.697,20.734,19.05,37.034,40.221,37.034c21.172,0,38.525-16.3,40.222-37.034H81.346z"/>
	</g>
</g>
<g>
	<g>
		<path d="M96.905,115.131c0.051,13.468,10.984,24.36,24.451,24.36c13.474,0,24.4-10.897,24.451-24.36
			C119.068,115.131,113.605,115.131,96.905,115.131z"/>
	</g>
</g>
<g>
	<g>
		<path d="M249.559,168.643l-29.537,23.735l0.029-31.267c0-0.039,0-0.078,0-0.116c-0.128-25.289-20.805-45.864-46.095-45.864
			h-14.476c0.004,14.795,1.155,28.363,3.068,38.957c2.47,13.673,6.209,22.391,10.394,22.391v-22.392h1.014
			c3.903,0,7.097,3.164,7.138,7.061l-0.067,71.878c-0.007,7.498,4.292,14.335,11.052,17.578c6.757,3.244,14.78,2.321,20.627-2.376
			l51.196-41.137v-42.623C258.937,163.92,253.762,165.267,249.559,168.643z"/>
	</g>
</g>
<g>
	<g>
		<path d="M167.189,42.607h-2.302c-3.912-14.769-15.177-26.536-29.637-31.169v10.05c0,2.595-2.104,4.699-4.699,4.699h-3.637V5.557
			c0-3.07-2.489-5.557-5.557-5.557s-5.558,2.488-5.558,5.557v20.631h-3.637c-2.595,0-4.699-2.104-4.699-4.699v-9.912
			c-14.257,4.725-25.339,16.408-29.214,31.032h-2.725c-3.178,0-5.753,2.575-5.753,5.753c0,3.177,2.575,5.752,5.752,5.752
			c9.908,0,82.224,0,91.667,0c3.178,0,5.753-2.575,5.753-5.753C172.942,45.183,170.367,42.607,167.189,42.607z"/>
	</g>
</g>
<g>
	<g>
		<path d="M478.52,34.827c-6.139,0-11.115,4.977-11.115,11.115v110.159h-13.436v-40.492c0-2.805-2.274-5.08-5.08-5.08h-32.078
			c-2.805,0-5.08,2.274-5.08,5.08v40.492h-26.627V87.453c0-6.286-5.095-11.381-11.381-11.381h-35.087
			c-6.286,0-11.381,5.095-11.381,11.381v68.648c-14.062,0-10.447,0-24.453,0V45.942c0-6.138-4.976-11.115-11.115-11.115
			s-11.115,4.977-11.115,11.115v454.725c0,6.138,4.976,11.115,11.115,11.115s11.115-4.977,11.115-11.115v-31.122
			c6.756,0,157.282,0,164.6,0v31.122c0,6.138,4.976,11.115,11.115,11.115s11.115-4.977,11.115-11.115V45.942
			C489.635,39.804,484.659,34.827,478.52,34.827z M302.803,301.708V178.331c6.757,0,157.285,0,164.602,0v123.377H425.07v-44.195
			c0-6.286-5.095-11.381-11.381-11.381h-79.498c-6.286,0-11.381,5.095-11.381,11.381v44.195
			C311.095,301.708,314.497,301.708,302.803,301.708z M467.406,447.315h-21.217V388.22c0-3.581-2.903-6.483-6.483-6.483H391.91
			c-3.581,0-6.483,2.903-6.483,6.483v59.095h-29.245V351.17c0-0.92-0.747-1.667-1.667-1.667H324.48c-0.92,0-1.667,0.747-1.667,1.667
			v96.145c-11.715,0-8.313,0-20.007,0V323.938c6.756,0,157.282,0,164.6,0V447.315z"/>
	</g>
</g>
<g>
</g>
<g>
</g>
<g>
</g>
<g>
</g>
<g>
</g>
<g>
</g>
<g>
</g>
<g>
</g>
<g>
</g>
<g>
</g>
<g>
</g>
<g>
</g>
<g>
</g>
<g>
</g>
<g>
</g>
</svg>
