<?xml version="1.0" encoding="iso-8859-1"?>
<!-- Generator: Adobe Illustrator 19.0.0, SVG Export Plug-In . SVG Version: 6.00 Build 0)  -->
<svg version="1.1" id="Layer_1" xmlns="http://www.w3.org/2000/svg" xmlns:xlink="http://www.w3.org/1999/xlink" x="0px" y="0px"
	 viewBox="0 0 512 512" style="enable-background:new 0 0 512 512;" xml:space="preserve">
<g>
	<g>
		<path d="M503.172,300.138c5.297,0,8.828-3.531,8.828-8.828V256c0-5.297-3.531-8.828-8.828-8.828H397.241V220.69
			c0-5.297-3.531-8.828-8.828-8.828h-8.828V52.966h8.828c5.297,0,8.828-3.531,8.828-8.828V8.828c0-5.297-3.531-8.828-8.828-8.828
			H123.586c-5.297,0-8.828,3.531-8.828,8.828v35.31c0,5.297,3.531,8.828,8.828,8.828h8.828v158.897h-8.828
			c-5.297,0-8.828,3.531-8.828,8.828v26.483H8.828C3.531,247.172,0,250.703,0,256v35.31c0,5.297,3.531,8.828,8.828,8.828h8.828
			v158.897H8.828c-5.297,0-8.828,3.531-8.828,8.828v35.31C0,508.469,3.531,512,8.828,512h123.586h247.172h123.586
			c5.297,0,8.828-3.531,8.828-8.828v-35.31c0-5.297-3.531-8.828-8.828-8.828h-8.828V300.138H503.172z M132.414,17.655h247.172V35.31
			h-61.793H198.621h-66.207V17.655z M321.324,211.862h-24.717L256,171.255l-40.607,40.607h-24.717l59.145-59.145l27.366-27.366
			l72.386-72.386h24.717l-78.565,78.565l78.566,80.331h-24.717l-66.207-67.972l-15.007,15.007L321.324,211.862z M137.71,52.966
			h24.717l67.09,67.09l15.89-15.89l-50.317-51.2h24.717l37.959,38.841l38.841-38.841h24.717l-57.379,57.379l-28.248,28.248
			l-73.269,73.269H137.71l79.448-79.448L137.71,52.966z M247.172,494.345H17.655V476.69h61.793h123.586h44.138V494.345z
			 M22.952,300.138h24.717l67.09,67.09l15.89-15.89l-50.317-51.2h24.717l37.959,38.841l38.841-38.841h24.717l-57.379,57.379
			l-28.248,28.248l-73.269,73.269H22.952l79.448-79.448L22.952,300.138z M247.172,312.497l-66.207,66.207l66.207,67.972v12.359
			h-12.359l-66.207-67.972L153.6,406.069l52.966,52.966h-24.717l-40.607-40.607l-40.607,40.607H75.917l59.145-59.145l27.366-27.365
			l72.386-72.386h12.359V312.497z M247.172,282.483h-44.138H83.862H17.655v-17.655h105.931h123.586V282.483z M132.414,247.172
			v-17.655h61.793h123.586h61.793v17.655H256H132.414z M309.848,300.138h24.717l37.959,38.841l38.841-38.841h24.717l-57.379,57.379
			l-28.248,28.248l-73.269,73.269h-12.359v-12.359l67.09-67.09l-67.09-67.09v-12.359h12.359l67.09,67.09l15.89-15.89
			L309.848,300.138z M489.048,459.034h-24.717l-66.207-67.972l-15.007,15.007l52.966,52.966h-24.717l-40.607-40.607l-40.607,40.607
			h-24.717l59.145-59.145l27.365-27.365l72.386-72.386h24.717l-78.566,78.565L489.048,459.034z M494.345,494.345H264.828V476.69
			h44.138h123.586h61.793V494.345z M432.552,282.483H313.379h-48.552v-17.655h123.586h105.931v17.655H432.552z"/>
	</g>
</g>
<g>
</g>
<g>
</g>
<g>
</g>
<g>
</g>
<g>
</g>
<g>
</g>
<g>
</g>
<g>
</g>
<g>
</g>
<g>
</g>
<g>
</g>
<g>
</g>
<g>
</g>
<g>
</g>
<g>
</g>
</svg>
