<?xml version="1.0" encoding="iso-8859-1"?>
<!-- Generator: Adobe Illustrator 19.0.0, SVG Export Plug-In . SVG Version: 6.00 Build 0)  -->
<svg version="1.1" id="Layer_1" xmlns="http://www.w3.org/2000/svg" xmlns:xlink="http://www.w3.org/1999/xlink" x="0px" y="0px"
	 viewBox="0 0 512 512" style="enable-background:new 0 0 512 512;" xml:space="preserve">
<g>
	<g>
		<g>
			<path d="M474.292,65.597c-3.84-2.748-9.165-1.86-11.904,1.98l-35.891,50.244l-18.603-24.806
				c-2.816-3.763-8.158-4.531-11.947-1.707c-3.772,2.825-4.531,8.175-1.707,11.947l25.6,34.133c1.613,2.15,4.147,3.413,6.827,3.413
				h0.102c2.722-0.034,5.257-1.357,6.844-3.575l42.667-59.733C479.02,73.661,478.132,68.328,474.292,65.597z"/>
			<polygon points="246.574,371.202 221.87,346.779 197.166,371.202 			"/>
			<path d="M512,98.133c0-42.351-34.449-76.8-76.8-76.8c-36.471,0-67.029,25.583-74.82,59.733H8.533C3.823,81.067,0,84.881,0,89.6
				v51.2c0,4.719,3.823,8.533,8.533,8.533h8.533V192h48.196l-43.17-42.667H46.37l45.688,45.158c0.009,0.009,0.017,0.009,0.026,0.017
				l85.837,84.838l31.701-30.78l-43.127-41.89c-0.077-0.085-0.162-0.154-0.239-0.239l-58.786-57.105h24.491L175.881,192h91.972
				l43.921-42.667h24.491L227.831,254.669c-0.009,0.009-0.009,0.017-0.017,0.026l-43.998,42.735h-0.009L55.159,422.4H30.677
				l35.14-34.133H17.067V422.4H8.533c-4.71,0-8.533,3.814-8.533,8.533v51.2c0,4.719,3.823,8.533,8.533,8.533H435.2
				c4.719,0,8.533-3.814,8.533-8.533v-51.2c0-4.719-3.814-8.533-8.533-8.533h-8.533v-34.133h-48.742l35.14,34.133h-24.491
				L265.916,303.249l-2.125,2.099l-29.781,29.44l39.356,38.904l0.026,0.017l49.263,48.691h-24.277l-34.534-34.133H179.9
				L145.357,422.4h-24.269l49.254-48.683c0.009-0.009,0.017-0.017,0.026-0.034l45.491-44.954l0.009-0.009l43.998-43.486l0.009-0.009
				l5.436-5.367c0.017-0.017,0.026-0.026,0.043-0.043l86.289-85.291c0.017-0.017,0.034-0.026,0.051-0.043l36.267-35.849
				c-0.145-0.111-0.256-0.265-0.401-0.375c4.727,3.755,9.907,6.929,15.437,9.506L378.47,192h48.196v-17.57
				c2.807,0.316,5.649,0.503,8.533,0.503C477.551,174.933,512,140.484,512,98.133z M124.587,439.467h194.56H409.6h8.533h8.533V473.6
				h-409.6v-34.133H25.6h8.533H124.587z M332.8,132.267H110.933H17.067V98.133H358.4c0,2.825,0.179,5.606,0.478,8.354
				c0.12,1.109,0.333,2.193,0.503,3.294c0.247,1.596,0.486,3.191,0.828,4.762c0.282,1.306,0.648,2.594,0.998,3.883
				c0.367,1.323,0.742,2.645,1.169,3.942c0.435,1.306,0.913,2.586,1.417,3.866c0.521,1.297,1.075,2.577,1.655,3.849
				c0.333,0.717,0.58,1.476,0.939,2.185H332.8z M378.001,149.333h0.119c0.213,0.239,0.427,0.478,0.649,0.717
				C378.53,149.794,378.24,149.598,378.001,149.333z M420.275,155.904h-0.008c-5.666-1.459-11.042-3.866-16.026-6.903
				c0.418,0.265,0.785,0.58,1.203,0.853c-6.613-3.823-12.416-8.849-17.118-14.814c-1.894-2.406-3.584-4.915-5.069-7.518
				c-0.137-0.239-0.29-0.452-0.418-0.691c-1.399-2.526-2.534-5.163-3.541-7.842c-0.239-0.64-0.486-1.263-0.7-1.911
				c-0.888-2.645-1.596-5.35-2.099-8.107c-0.111-0.606-0.188-1.229-0.282-1.843c-0.444-2.953-0.751-5.948-0.751-8.994
				c0-2.543,0.222-5.026,0.529-7.475c0-0.009-0.009-0.017-0.009-0.017C379.699,61.235,404.804,38.4,435.2,38.4
				c32.939,0,59.733,26.803,59.733,59.733c0,32.939-26.795,59.733-59.733,59.733C430.037,157.867,425.054,157.141,420.275,155.904z"
				/>
			<polygon points="17.068,371.202 83.38,371.202 162.441,294.402 17.068,294.402 			"/>
			<polygon points="360.357,371.202 426.669,371.202 426.669,294.402 281.295,294.402 			"/>
			<polygon points="361.208,209.068 292.131,277.335 426.668,277.335 426.668,209.068 			"/>
			<polygon points="17.068,209.068 17.068,277.335 151.604,277.335 82.535,209.068 			"/>
			<polygon points="193.449,209.068 221.865,236.674 250.281,209.068 			"/>
		</g>
	</g>
</g>
<g>
</g>
<g>
</g>
<g>
</g>
<g>
</g>
<g>
</g>
<g>
</g>
<g>
</g>
<g>
</g>
<g>
</g>
<g>
</g>
<g>
</g>
<g>
</g>
<g>
</g>
<g>
</g>
<g>
</g>
</svg>
