<?xml version="1.0" encoding="iso-8859-1"?>
<!-- Generator: Adobe Illustrator 19.0.0, SVG Export Plug-In . SVG Version: 6.00 Build 0)  -->
<svg version="1.1" id="Layer_1" xmlns="http://www.w3.org/2000/svg" xmlns:xlink="http://www.w3.org/1999/xlink" x="0px" y="0px"
	 viewBox="0 0 512 512" style="enable-background:new 0 0 512 512;" xml:space="preserve">
<g>
	<g>
		<g>
			<rect x="158.897" y="114.759" width="70.621" height="35.31"/>
			<path d="M317.793,44.138c0-0.018,0.009-0.035,0.009-0.053L317.793,0H194.207v44.138v8.828h123.586V44.138z"/>
			<path d="M123.586,52.966v406.069h264.828V52.966h-52.966c0,9.737-7.918,17.655-17.655,17.655H194.207
				c-9.737,0-17.655-7.918-17.655-17.655H123.586z M141.241,282.483c0-4.873,3.955-8.828,8.828-8.828h185.379
				c4.873,0,8.828,3.955,8.828,8.828c0,4.873-3.955,8.828-8.828,8.828H150.069C145.196,291.31,141.241,287.356,141.241,282.483z
				 M351.461,367.06l-44.138,61.793c-0.185,0.265-0.494,0.371-0.706,0.609c-0.388,0.441-0.689,0.953-1.183,1.324
				c-0.291,0.212-0.618,0.309-0.927,0.486c-0.291,0.168-0.556,0.318-0.865,0.45c-1.13,0.494-2.304,0.83-3.496,0.83h-0.009h-0.009
				c-1.165,0-2.313-0.318-3.425-0.794c-0.282-0.124-0.547-0.256-0.821-0.406c-0.282-0.168-0.6-0.247-0.874-0.441
				c-0.494-0.353-0.794-0.847-1.192-1.28c-0.229-0.238-0.539-0.335-0.742-0.609l-26.483-35.31
				c-2.922-3.902-2.136-9.437,1.766-12.359c3.919-2.931,9.445-2.128,12.359,1.766l19.244,25.662l37.129-51.977
				c2.834-3.972,8.36-4.882,12.314-2.057C353.377,357.579,354.295,363.096,351.461,367.06z M344.276,256H150.069
				c-4.873,0-8.828-3.955-8.828-8.828c0-4.873,3.955-8.828,8.828-8.828h194.207c4.873,0,8.828,3.955,8.828,8.828
				C353.103,252.045,349.149,256,344.276,256z M361.931,203.034c4.873,0,8.828,3.955,8.828,8.828c0,4.873-3.955,8.828-8.828,8.828
				H150.069c-4.873,0-8.828-3.955-8.828-8.828c0-4.873,3.955-8.828,8.828-8.828H361.931z M238.345,97.103
				c4.873,0,8.828,3.955,8.828,8.828v52.966c0,4.873-3.955,8.828-8.828,8.828h-88.276c-4.873,0-8.828-3.955-8.828-8.828v-52.966
				c0-4.873,3.955-8.828,8.828-8.828H238.345z"/>
			<path d="M414.897,0h-79.448v35.31h52.966c9.737,0,17.655,7.918,17.655,17.655v406.069c0,9.737-7.918,17.655-17.655,17.655
				H123.586c-9.737,0-17.655-7.918-17.655-17.655V52.966c0-9.737,7.918-17.655,17.655-17.655h52.966V0H97.103
				C82.503,0,70.621,11.882,70.621,26.483v459.034c0,14.601,11.882,26.483,26.483,26.483h317.793
				c14.601,0,26.483-11.882,26.483-26.483V26.483C441.379,11.882,429.497,0,414.897,0z"/>
		</g>
	</g>
</g>
<g>
</g>
<g>
</g>
<g>
</g>
<g>
</g>
<g>
</g>
<g>
</g>
<g>
</g>
<g>
</g>
<g>
</g>
<g>
</g>
<g>
</g>
<g>
</g>
<g>
</g>
<g>
</g>
<g>
</g>
</svg>
