<?xml version="1.0" encoding="iso-8859-1"?>
<!-- Generator: Adobe Illustrator 19.0.0, SVG Export Plug-In . SVG Version: 6.00 Build 0)  -->
<svg version="1.1" id="Layer_1" xmlns="http://www.w3.org/2000/svg" xmlns:xlink="http://www.w3.org/1999/xlink" x="0px" y="0px"
	 viewBox="0 0 512 512" style="enable-background:new 0 0 512 512;" xml:space="preserve">
<g>
	<g>
		<g>
			<rect y="136.533" width="512" height="51.2"/>
			<path d="M469.333,68.267H42.667C19.14,68.267,0,87.407,0,110.933v8.533h512v-8.533C512,87.407,492.86,68.267,469.333,68.267z"/>
			<rect x="307.2" y="307.2" width="136.533" height="68.267"/>
			<path d="M0,401.067c0,23.526,19.14,42.667,42.667,42.667h426.667c23.526,0,42.667-19.14,42.667-42.667V204.8H0V401.067z
				 M238.933,298.667h-25.6c-4.719,0-8.533-3.814-8.533-8.533s3.814-8.533,8.533-8.533h25.6c4.719,0,8.533,3.814,8.533,8.533
				S243.652,298.667,238.933,298.667z M290.133,298.667c0-4.719,3.814-8.533,8.533-8.533h153.6c4.719,0,8.533,3.814,8.533,8.533V384
				c0,4.719-3.814,8.533-8.533,8.533h-153.6c-4.719,0-8.533-3.814-8.533-8.533V298.667z M162.236,247.467h76.698
				c4.719,0,8.533,3.814,8.533,8.533s-3.814,8.533-8.533,8.533h-76.698c-4.719,0-8.533-3.814-8.533-8.533
				S157.517,247.467,162.236,247.467z M51.2,247.467h76.698c4.719,0,8.533,3.814,8.533,8.533s-3.814,8.533-8.533,8.533H51.2
				c-4.719,0-8.533-3.814-8.533-8.533S46.481,247.467,51.2,247.467z M51.2,281.6h128c4.719,0,8.533,3.814,8.533,8.533
				s-3.814,8.533-8.533,8.533h-128c-4.719,0-8.533-3.814-8.533-8.533S46.481,281.6,51.2,281.6z"/>
		</g>
	</g>
</g>
<g>
</g>
<g>
</g>
<g>
</g>
<g>
</g>
<g>
</g>
<g>
</g>
<g>
</g>
<g>
</g>
<g>
</g>
<g>
</g>
<g>
</g>
<g>
</g>
<g>
</g>
<g>
</g>
<g>
</g>
</svg>
