<?xml version="1.0" encoding="iso-8859-1"?>
<!-- Generator: Adobe Illustrator 19.0.0, SVG Export Plug-In . SVG Version: 6.00 Build 0)  -->
<svg version="1.1" id="Layer_1" xmlns="http://www.w3.org/2000/svg" xmlns:xlink="http://www.w3.org/1999/xlink" x="0px" y="0px"
	 viewBox="0 0 512 512" style="enable-background:new 0 0 512 512;" xml:space="preserve">
<g>
	<g>
		<g>
			<path d="M384,294.4h-17.067c-4.719,0-8.533,3.814-8.533,8.533s3.814,8.533,8.533,8.533H384c4.719,0,8.533-3.814,8.533-8.533
				S388.719,294.4,384,294.4z"/>
			<path d="M501.265,275.797l-33.246-13.295l-21.308-85.257c-2.85-11.401-13.073-19.379-24.841-19.379h-80.538v-51.2
				c0-9.412-7.654-17.067-17.067-17.067h-307.2C7.654,89.6,0,97.254,0,106.667v153.6v102.4c0,9.412,7.654,17.067,17.067,17.067
				h34.901C56.055,403.908,77.082,422.4,102.4,422.4c25.318,0,46.345-18.492,50.432-42.667h206.336
				c4.087,24.175,25.114,42.667,50.432,42.667c25.318,0,46.345-18.492,50.432-42.667h34.901c9.412,0,17.067-7.654,17.067-17.067
				v-71.023C512,284.621,507.785,278.4,501.265,275.797z M51.2,132.267h238.933c4.719,0,8.533,3.814,8.533,8.533
				s-3.814,8.533-8.533,8.533H51.2c-4.719,0-8.533-3.814-8.533-8.533S46.481,132.267,51.2,132.267z M51.2,166.4h221.867
				c4.719,0,8.533,3.814,8.533,8.533s-3.814,8.533-8.533,8.533H51.2c-4.719,0-8.533-3.814-8.533-8.533S46.481,166.4,51.2,166.4z
				 M51.2,200.533H256c4.719,0,8.533,3.814,8.533,8.533S260.719,217.6,256,217.6H51.2c-4.719,0-8.533-3.814-8.533-8.533
				S46.481,200.533,51.2,200.533z M102.4,388.267c-9.421,0-17.067-7.646-17.067-17.067c0-9.421,7.646-17.067,17.067-17.067
				c9.421,0,17.067,7.646,17.067,17.067C119.467,380.621,111.821,388.267,102.4,388.267z M409.6,388.267
				c-9.421,0-17.067-7.646-17.067-17.067c0-9.421,7.646-17.067,17.067-17.067c9.421,0,17.067,7.646,17.067,17.067
				C426.667,380.621,419.021,388.267,409.6,388.267z M494.933,362.667h-34.842c-0.034-0.196-0.111-0.375-0.154-0.572
				c-0.469-2.594-1.135-5.12-1.98-7.569c-0.154-0.444-0.324-0.887-0.486-1.331c-0.922-2.432-1.997-4.796-3.26-7.04
				c-0.188-0.324-0.393-0.631-0.58-0.956c-1.382-2.321-2.884-4.548-4.599-6.613c-0.051-0.06-0.102-0.111-0.145-0.162
				c-1.724-2.065-3.627-3.959-5.641-5.717c-0.23-0.205-0.435-0.418-0.666-0.606c-1.988-1.681-4.113-3.174-6.34-4.54
				c-0.375-0.23-0.742-0.461-1.126-0.683c-2.219-1.289-4.54-2.398-6.955-3.345c-0.427-0.162-0.845-0.316-1.271-0.469
				c-2.483-0.887-5.035-1.621-7.671-2.125c-0.341-0.068-0.683-0.102-1.024-0.162c-2.799-0.469-5.658-0.777-8.593-0.777
				s-5.794,0.307-8.593,0.777c-0.341,0.06-0.683,0.094-1.024,0.162c-2.637,0.503-5.188,1.237-7.672,2.125
				c-0.427,0.154-0.845,0.307-1.271,0.469c-2.415,0.947-4.736,2.057-6.955,3.345c-0.384,0.222-0.751,0.452-1.126,0.683
				c-2.227,1.365-4.352,2.859-6.34,4.54c-0.23,0.188-0.435,0.401-0.666,0.606c-2.014,1.758-3.917,3.652-5.641,5.717
				c-0.043,0.051-0.094,0.102-0.145,0.162c-1.715,2.065-3.226,4.301-4.599,6.622c-0.188,0.316-0.393,0.623-0.58,0.947
				c-1.263,2.244-2.338,4.599-3.26,7.04c-0.162,0.444-0.333,0.888-0.486,1.331c-0.845,2.449-1.51,4.975-1.98,7.569
				c-0.043,0.196-0.119,0.375-0.154,0.572H152.892c-0.034-0.196-0.111-0.375-0.154-0.572c-0.469-2.594-1.135-5.12-1.98-7.569
				c-0.154-0.444-0.324-0.887-0.486-1.331c-0.922-2.432-1.997-4.796-3.26-7.04c-0.188-0.324-0.393-0.631-0.58-0.956
				c-1.382-2.321-2.884-4.548-4.599-6.613c-0.051-0.06-0.102-0.111-0.145-0.162c-1.724-2.065-3.627-3.959-5.641-5.717
				c-0.23-0.205-0.435-0.418-0.666-0.606c-1.988-1.681-4.113-3.174-6.34-4.54c-0.375-0.23-0.742-0.461-1.126-0.683
				c-2.219-1.289-4.54-2.398-6.955-3.345c-0.427-0.162-0.845-0.316-1.271-0.469c-2.483-0.887-5.035-1.621-7.671-2.125
				c-0.341-0.068-0.683-0.102-1.024-0.162c-2.799-0.469-5.658-0.777-8.593-0.777c-2.935,0-5.794,0.307-8.593,0.777
				c-0.341,0.06-0.683,0.094-1.024,0.162c-2.637,0.503-5.188,1.237-7.672,2.125c-0.427,0.154-0.845,0.307-1.271,0.469
				c-2.415,0.947-4.736,2.057-6.955,3.345c-0.384,0.222-0.751,0.452-1.126,0.683c-2.227,1.365-4.352,2.859-6.34,4.54
				c-0.23,0.188-0.435,0.401-0.666,0.606c-2.014,1.758-3.917,3.652-5.641,5.717c-0.043,0.051-0.094,0.102-0.145,0.162
				c-1.715,2.065-3.226,4.301-4.599,6.622c-0.188,0.316-0.393,0.623-0.58,0.947c-1.263,2.244-2.338,4.599-3.26,7.04
				c-0.162,0.444-0.333,0.888-0.486,1.331c-0.845,2.449-1.51,4.975-1.98,7.569c-0.043,0.196-0.12,0.375-0.154,0.572H17.067V268.8
				h230.426c51.738,0,93.841-42.103,93.841-93.841v-0.026h80.538c3.925,0,7.33,2.662,8.286,6.46l19.721,78.874h-63.573
				c-5.982,0-10.837-4.855-10.837-10.837v-40.363c0-4.719-3.814-8.533-8.533-8.533s-8.533,3.814-8.533,8.533v40.363
				c0,15.386,12.518,27.904,27.904,27.904h72.849l35.78,14.31V362.667z"/>
		</g>
	</g>
</g>
<g>
</g>
<g>
</g>
<g>
</g>
<g>
</g>
<g>
</g>
<g>
</g>
<g>
</g>
<g>
</g>
<g>
</g>
<g>
</g>
<g>
</g>
<g>
</g>
<g>
</g>
<g>
</g>
<g>
</g>
</svg>
