<?xml version="1.0" encoding="iso-8859-1"?>
<!-- Generator: Adobe Illustrator 19.0.0, SVG Export Plug-In . SVG Version: 6.00 Build 0)  -->
<svg version="1.1" id="Layer_1" xmlns="http://www.w3.org/2000/svg" xmlns:xlink="http://www.w3.org/1999/xlink" x="0px" y="0px"
	 viewBox="0 0 511.984 511.984" style="enable-background:new 0 0 511.984 511.984;" xml:space="preserve">
<g>
	<g>
		<g>
			<path d="M507.372,260.129c-14.976-20.83-30.14-21.171-68.087-1.195l-73.583,44.988c-10.914,5.803-33.297,7.543-55.006,7.919
				c3.857-8.03,2.133-17.621-5.163-28.501c-13.363-19.951-36.284-31.855-61.321-31.855h-33.289
				c-18.074,0-35.439-5.589-48.896-15.727c-40.858-30.788-87.381,23.927-90.428,26.266l-3.337,2.569v166.332h102.4
				c17.434,0,35.004-1.323,52.19-3.951l110.618-16.811c4.019-0.043,8.107-0.529,11.733-1.348
				c10.189-1.434,19.925-6.298,28.177-14.08L502.73,294.007l0.205-0.154C512.996,285.508,514.95,270.702,507.372,260.129z
				 M307.197,328.524h-128c-25.6,0-25.6,12.843-25.6,17.067c0,4.719-3.823,8.533-8.533,8.533s-8.533-3.814-8.533-8.533
				c0-21.376,15.949-34.133,42.667-34.133h128c4.71,0,8.533,3.814,8.533,8.533S311.908,328.524,307.197,328.524z"/>
			<rect x="0" y="234.658" width="51.2" height="221.867"/>
			<path d="M172.303,222.125c10.513,7.927,24.226,12.288,38.622,12.288h33.289c30.737,0,58.957,14.746,75.503,39.433
				c4.941,7.364,7.731,14.123,9.062,20.19c18.577-1.271,25.89-3.695,28.57-5.001l43.699-26.726V81.205
				c0-14.199-11.546-25.745-25.745-25.745h-76.655v69.342c0,6.289-3.516,11.887-9.19,14.618c-2.261,1.084-4.668,1.621-7.057,1.621
				c-3.601,0-7.151-1.22-10.103-3.576l-24.849-19.883l-24.849,19.883c-4.915,3.917-11.494,4.668-17.161,1.954
				c-5.666-2.731-9.19-8.329-9.19-14.618V55.46h-76.646c-14.2,0-25.754,11.546-25.754,25.745v140.826
				c14.02-8.354,27.767-12.715,41.097-12.715C148.453,209.316,161.022,213.625,172.303,222.125z"/>
		</g>
	</g>
</g>
<g>
</g>
<g>
</g>
<g>
</g>
<g>
</g>
<g>
</g>
<g>
</g>
<g>
</g>
<g>
</g>
<g>
</g>
<g>
</g>
<g>
</g>
<g>
</g>
<g>
</g>
<g>
</g>
<g>
</g>
</svg>
