<?xml version="1.0" encoding="iso-8859-1"?>
<!-- Generator: Adobe Illustrator 19.0.0, SVG Export Plug-In . SVG Version: 6.00 Build 0)  -->
<svg version="1.1" id="Layer_1" xmlns="http://www.w3.org/2000/svg" xmlns:xlink="http://www.w3.org/1999/xlink" x="0px" y="0px"
	 viewBox="0 0 512 512" style="enable-background:new 0 0 512 512;" xml:space="preserve">
<g>
	<g>
		<g>
			<path d="M179.197,247.464h-68.267v110.933h35.14c0.051-0.282,0.179-0.538,0.239-0.819c0.401-1.809,0.862-3.601,1.536-5.291
				c0.256-0.649,0.64-1.237,0.93-1.869c0.623-1.323,1.212-2.662,1.997-3.891c0.623-0.973,1.417-1.835,2.142-2.748
				c0.631-0.794,1.178-1.647,1.877-2.381c1.519-1.596,3.209-3.063,5.06-4.369l19.345-13.687V247.464z"/>
			<path d="M254.904,282.095c9.011,1.544,16.887,6.511,22.17,13.986l3.115,4.412c0.256-0.546,0.597-1.041,0.862-1.579
				c0.939-1.886,1.937-3.721,3.021-5.513c0.478-0.802,0.939-1.613,1.451-2.389c1.604-2.458,3.302-4.847,5.163-7.1
				c0.043-0.051,0.094-0.094,0.137-0.145c1.869-2.244,3.891-4.352,6.007-6.374c0.512-0.486,1.05-0.956,1.579-1.434
				c1.809-1.638,3.686-3.183,5.641-4.651c0.478-0.35,0.947-0.717,1.434-1.067c4.958-3.533,10.342-6.477,16.077-8.764
				c0.504-0.205,1.024-0.375,1.536-0.563c2.338-0.87,4.719-1.63,7.159-2.278c0.725-0.196,1.442-0.393,2.176-0.563
				c2.569-0.597,5.18-1.067,7.834-1.408c0.358-0.043,0.708-0.145,1.075-0.188v-60.211H196.271v42.667v72.337l33.067-23.381
				C236.804,282.598,245.892,280.541,254.904,282.095z"/>
			<path d="M261.556,78.855l45.645,39.117V8.532h-102.4v109.44l45.645-39.117C253.646,76.116,258.356,76.116,261.556,78.855z"/>
			<path d="M469.333,8.535H324.267v112.486c0,6.195-3.499,11.648-9.122,14.234c-5.641,2.594-12.041,1.69-16.742-2.338L256,96.573
				l-42.402,36.343c-2.918,2.5-6.502,3.797-10.146,3.797c-2.219,0-4.463-0.478-6.596-1.459c-5.623-2.586-9.122-8.038-9.122-14.234
				V8.535H42.667C19.14,8.535,0,27.675,0,51.201v409.6c0,23.526,19.14,42.667,42.667,42.667h426.667
				c23.526,0,42.667-19.14,42.667-42.667v-409.6C512,27.675,492.86,8.535,469.333,8.535z M349.867,409.601
				c-8.448,0-16.555-1.425-24.166-3.951c-2.15,2.935-4.702,5.547-7.68,7.654l-69.487,49.126c-5.854,4.139-12.689,6.298-19.703,6.298
				c-1.946,0-3.908-0.162-5.862-0.495c-9.02-1.553-16.887-6.519-22.17-13.986l-49.143-69.487c-2.031-2.876-3.43-6.033-4.489-9.293
				H102.4c-4.71,0-8.533-3.823-8.533-8.533v-128c0-4.71,3.823-8.533,8.533-8.533h76.8v-42.667c0-4.71,3.823-8.533,8.533-8.533
				h162.133c4.71,0,8.533,3.823,8.533,8.533v68.77c38.34,4.267,68.267,36.838,68.267,76.297
				C426.667,375.144,392.209,409.601,349.867,409.601z"/>
			<path d="M302.205,392.914c-0.239-0.188-0.495-0.358-0.725-0.546c-2.33-1.903-4.54-3.942-6.63-6.101
				c-0.435-0.452-0.836-0.93-1.263-1.391c-1.63-1.749-3.174-3.576-4.625-5.478c-0.452-0.597-0.905-1.186-1.34-1.784
				c-1.545-2.142-2.987-4.352-4.309-6.647c-0.154-0.273-0.333-0.529-0.486-0.802c-1.502-2.697-2.85-5.478-4.028-8.363
				c-0.111-0.265-0.196-0.546-0.299-0.819c-0.99-2.475-1.835-5.026-2.552-7.62c-0.205-0.734-0.393-1.468-0.572-2.21
				c-0.555-2.244-0.998-4.514-1.348-6.827c-0.119-0.794-0.265-1.579-0.367-2.381c-0.358-3.004-0.597-6.042-0.597-9.139
				c0-3.541,0.324-6.997,0.794-10.402c0.051-0.393,0.026-0.794,0.085-1.186l-10.803-15.283c-0.683-0.964-1.451-1.835-2.278-2.611
				c-0.051-0.051-0.119-0.085-0.171-0.137c-3.277-2.995-7.526-4.54-11.827-4.489c-1.485,0.017-2.935,0.282-4.361,0.674
				c-0.393,0.111-0.777,0.239-1.169,0.384c-1.442,0.521-2.859,1.152-4.147,2.065l-46.524,32.904l-22.955,16.239H169.7
				c-1.126,0.794-2.099,1.732-2.978,2.748c-0.222,0.247-0.401,0.512-0.606,0.777c-0.674,0.879-1.28,1.809-1.766,2.799
				c-0.102,0.196-0.205,0.393-0.299,0.597c-1.152,2.569-1.69,5.436-1.468,8.414c0.008,0.051-0.026,0.094-0.017,0.145
				c0.247,3.012,1.237,5.931,3.029,8.465l49.135,69.487c2.645,3.746,6.596,6.238,11.119,7.014c4.523,0.759,9.079-0.265,12.834-2.91
				l69.487-49.135c0.512-0.367,1.007-0.759,1.476-1.186c-0.265-0.162-0.495-0.375-0.759-0.538
				C306.575,396.173,304.339,394.612,302.205,392.914z"/>
			<path d="M349.867,273.068c-3.268,0-6.477,0.333-9.626,0.845c-0.41,0.068-0.828,0.119-1.229,0.196
				c-3.046,0.563-6.025,1.374-8.9,2.389c-0.375,0.128-0.734,0.265-1.101,0.401c-2.927,1.092-5.76,2.389-8.448,3.908
				c-0.179,0.102-0.341,0.213-0.512,0.316c-5.461,3.157-10.368,7.177-14.575,11.853c-0.316,0.35-0.64,0.683-0.947,1.041
				c-1.877,2.184-3.584,4.531-5.146,6.989c-0.316,0.512-0.631,1.033-0.939,1.553c-1.476,2.5-2.799,5.103-3.908,7.834
				c-0.188,0.452-0.341,0.93-0.512,1.391c-1.101,2.927-2.048,5.939-2.688,9.079c-0.094,0.452-0.128,0.922-0.213,1.382
				c-0.273,1.51-0.529,3.021-0.683,4.548c-0.205,1.98-0.307,3.977-0.307,6.007c0,2.654,0.23,5.265,0.58,7.851
				c0.077,0.597,0.171,1.195,0.273,1.792c0.393,2.406,0.896,4.796,1.579,7.117c0.043,0.128,0.068,0.264,0.102,0.392
				c0.776,2.56,1.732,5.043,2.833,7.467c0.154,0.333,0.324,0.649,0.478,0.981c1.058,2.219,2.236,4.378,3.558,6.443
				c0.119,0.179,0.213,0.367,0.333,0.538c1.442,2.21,3.038,4.309,4.762,6.315c0.23,0.273,0.486,0.529,0.725,0.802
				c1.596,1.783,3.294,3.482,5.103,5.077c0.222,0.196,0.435,0.41,0.666,0.606c2.031,1.732,4.181,3.336,6.443,4.796
				c0.222,0.137,0.452,0.265,0.674,0.401c2.244,1.408,4.591,2.697,7.049,3.806c7.509,3.405,15.812,5.35,24.576,5.35
				c32.939,0,59.733-26.795,59.733-59.733C409.6,299.863,382.805,273.068,349.867,273.068z"/>
		</g>
	</g>
</g>
<g>
</g>
<g>
</g>
<g>
</g>
<g>
</g>
<g>
</g>
<g>
</g>
<g>
</g>
<g>
</g>
<g>
</g>
<g>
</g>
<g>
</g>
<g>
</g>
<g>
</g>
<g>
</g>
<g>
</g>
</svg>
