<?xml version="1.0" encoding="iso-8859-1"?>
<!-- Generator: Adobe Illustrator 19.0.0, SVG Export Plug-In . SVG Version: 6.00 Build 0)  -->
<svg version="1.1" id="Layer_1" xmlns="http://www.w3.org/2000/svg" xmlns:xlink="http://www.w3.org/1999/xlink" x="0px" y="0px"
	 viewBox="0 0 511.999 511.999" style="enable-background:new 0 0 511.999 511.999;" xml:space="preserve">
<g>
	<g>
		<g>
			<path d="M401.065,0c-61.167,0-110.933,49.758-110.933,110.933c0,61.167,49.766,110.933,110.933,110.933
				S511.998,172.1,511.998,110.933C511.998,49.758,462.232,0,401.065,0z M459.467,72.849l-59.733,93.867
				c-1.391,2.185-3.695,3.618-6.272,3.9c-0.307,0.034-0.623,0.051-0.93,0.051c-2.244,0-4.42-0.896-6.033-2.5L343.832,125.5
				c-3.328-3.337-3.328-8.738,0-12.066c3.337-3.337,8.738-3.337,12.066,0l35.149,35.149l54.025-84.898
				c2.526-3.977,7.799-5.146,11.776-2.62C460.824,63.599,462.002,68.873,459.467,72.849z"/>
			<path d="M68.268,460.799h102.4v-85.333h-102.4V460.799z M93.868,392.532h51.2c4.71,0,8.533,3.823,8.533,8.533
				s-3.823,8.533-8.533,8.533h-51.2c-4.71,0-8.533-3.823-8.533-8.533S89.157,392.532,93.868,392.532z M93.868,426.666h34.133
				c4.71,0,8.533,3.823,8.533,8.533s-3.823,8.533-8.533,8.533H93.868c-4.71,0-8.533-3.823-8.533-8.533
				S89.157,426.666,93.868,426.666z"/>
			<path d="M204.801,170.666c1.886,0,3.772,0.623,5.333,1.869l28.8,23.04v-93.175h-68.267v93.175l28.8-23.04
				C201.029,171.289,202.915,170.666,204.801,170.666z"/>
			<path d="M273.068,110.932c0-2.884,0.247-5.7,0.435-8.533h-17.502v94.899c0,6.298-3.533,11.913-9.207,14.635
				c-5.675,2.722-12.262,1.988-17.178-1.954l-24.815-19.849l-24.815,19.849c-2.953,2.364-6.511,3.575-10.112,3.575
				c-2.398,0.009-4.804-0.529-7.066-1.621c-5.675-2.722-9.207-8.337-9.207-14.635v-94.899H42.241
				c-23.296,0-42.24,19.14-42.24,42.667v324.267c0,23.526,18.944,42.667,42.24,42.667h324.693c23.526,0,42.667-19.14,42.667-42.667
				V238.497c-2.833,0.188-5.649,0.435-8.533,0.435C330.488,238.932,273.068,181.512,273.068,110.932z M187.734,469.333
				c0,4.71-3.823,8.533-8.533,8.533H59.734c-4.71,0-8.533-3.823-8.533-8.533v-102.4c0-4.71,3.823-8.533,8.533-8.533h119.467
				c4.71,0,8.533,3.823,8.533,8.533V469.333z"/>
		</g>
	</g>
</g>
<g>
</g>
<g>
</g>
<g>
</g>
<g>
</g>
<g>
</g>
<g>
</g>
<g>
</g>
<g>
</g>
<g>
</g>
<g>
</g>
<g>
</g>
<g>
</g>
<g>
</g>
<g>
</g>
<g>
</g>
</svg>
