<?xml version="1.0" encoding="iso-8859-1"?>
<!-- Generator: Adobe Illustrator 19.0.0, SVG Export Plug-In . SVG Version: 6.00 Build 0)  -->
<svg version="1.1" id="Layer_1" xmlns="http://www.w3.org/2000/svg" xmlns:xlink="http://www.w3.org/1999/xlink" x="0px" y="0px"
	 viewBox="0 0 512 512" style="enable-background:new 0 0 512 512;" xml:space="preserve">
<g>
	<g>
		<g>
			<path d="M136.533,452.268h238.933v-85.333H136.533V452.268z M349.867,435.201h-59.733c-4.71,0-8.533-3.823-8.533-8.533
				s3.823-8.533,8.533-8.533h59.733c4.71,0,8.533,3.823,8.533,8.533S354.577,435.201,349.867,435.201z M221.867,384.001h128
				c4.71,0,8.533,3.823,8.533,8.533s-3.823,8.533-8.533,8.533h-128c-4.71,0-8.533-3.823-8.533-8.533
				S217.156,384.001,221.867,384.001z M162.133,384.001h25.6c4.71,0,8.533,3.823,8.533,8.533s-3.823,8.533-8.533,8.533h-25.6
				c-4.71,0-8.533-3.823-8.533-8.533S157.423,384.001,162.133,384.001z M162.133,418.135H256c4.71,0,8.533,3.823,8.533,8.533
				s-3.823,8.533-8.533,8.533h-93.867c-4.71,0-8.533-3.823-8.533-8.533S157.423,418.135,162.133,418.135z"/>
			<path d="M261.556,78.855l45.645,39.117V8.532h-102.4v109.44l45.645-39.117C253.646,76.116,258.356,76.116,261.556,78.855z"/>
			<path d="M469.333,8.535H324.267v112.486c0,6.195-3.499,11.648-9.122,14.234c-5.632,2.594-12.041,1.69-16.742-2.338L256,96.573
				l-42.402,36.343c-2.918,2.5-6.502,3.797-10.146,3.797c-2.219,0-4.463-0.478-6.596-1.459c-5.623-2.586-9.122-8.038-9.122-14.234
				V8.535H42.667C19.14,8.535,0,27.675,0,51.201v409.6c0,23.526,19.14,42.667,42.667,42.667h426.667
				c23.526,0,42.667-19.14,42.667-42.667v-409.6C512,27.675,492.86,8.535,469.333,8.535z M292.634,198.768l34.133-34.133
				c0.785-0.785,1.724-1.408,2.773-1.843c2.082-0.862,4.437-0.862,6.519,0c1.05,0.435,1.988,1.058,2.773,1.843l34.133,34.133
				c3.337,3.337,3.337,8.73,0,12.066c-1.664,1.664-3.849,2.5-6.033,2.5c-2.185,0-4.369-0.836-6.033-2.5l-19.567-19.567v98.867
				c0,4.71-3.823,8.533-8.533,8.533c-4.71,0-8.533-3.823-8.533-8.533v-98.867L304.7,210.834c-3.337,3.337-8.73,3.337-12.066,0
				S289.297,202.105,292.634,198.768z M139.034,198.768l34.133-34.133c0.785-0.785,1.724-1.408,2.773-1.843
				c2.082-0.862,4.437-0.862,6.519,0c1.05,0.435,1.988,1.058,2.773,1.843l34.133,34.133c3.337,3.337,3.337,8.73,0,12.066
				c-1.664,1.664-3.849,2.5-6.033,2.5c-2.185,0-4.369-0.836-6.033-2.5l-19.567-19.567v98.867c0,4.71-3.823,8.533-8.533,8.533
				s-8.533-3.823-8.533-8.533v-98.867L151.1,210.834c-3.337,3.337-8.73,3.337-12.066,0
				C135.697,207.498,135.697,202.105,139.034,198.768z M392.533,460.801c0,4.71-3.823,8.533-8.533,8.533H128
				c-4.71,0-8.533-3.823-8.533-8.533v-102.4c0-4.71,3.823-8.533,8.533-8.533h256c4.71,0,8.533,3.823,8.533,8.533V460.801z
				 M384,332.801H128c-4.71,0-8.533-3.823-8.533-8.533s3.823-8.533,8.533-8.533h256c4.71,0,8.533,3.823,8.533,8.533
				S388.71,332.801,384,332.801z"/>
		</g>
	</g>
</g>
<g>
</g>
<g>
</g>
<g>
</g>
<g>
</g>
<g>
</g>
<g>
</g>
<g>
</g>
<g>
</g>
<g>
</g>
<g>
</g>
<g>
</g>
<g>
</g>
<g>
</g>
<g>
</g>
<g>
</g>
</svg>
