<?xml version="1.0" encoding="iso-8859-1"?>
<!-- Generator: Adobe Illustrator 19.0.0, SVG Export Plug-In . SVG Version: 6.00 Build 0)  -->
<svg version="1.1" id="Layer_1" xmlns="http://www.w3.org/2000/svg" xmlns:xlink="http://www.w3.org/1999/xlink" x="0px" y="0px"
	 viewBox="0 0 512 512" style="enable-background:new 0 0 512 512;" xml:space="preserve">
<g>
	<g>
		<g>
			<path d="M281.6,290.133c0,14.114,11.486,25.6,25.6,25.6s25.6-11.486,25.6-25.6v-25.6h-51.2V290.133z"/>
			<path d="M179.2,290.133c0,14.114,11.486,25.6,25.6,25.6s25.6-11.486,25.6-25.6v-25.6h-51.2V290.133z"/>
			<path d="M261.552,78.858l45.645,39.125V8.535h-102.4v109.449l45.653-39.125C253.633,76.11,258.369,76.11,261.552,78.858z"/>
			<path d="M469.333,8.533H324.267V121.02c0,6.187-3.49,11.639-9.114,14.234c-2.133,0.981-4.378,1.459-6.605,1.459
				c-3.644,0-7.219-1.297-10.146-3.797v-0.009L256,96.572l-42.402,36.335c-4.71,4.045-11.11,4.932-16.751,2.347
				c-5.623-2.594-9.114-8.047-9.114-14.234V8.533H42.667C19.14,8.533,0,27.674,0,51.2v409.6c0,23.526,19.14,42.667,42.667,42.667
				h426.667c23.526,0,42.667-19.14,42.667-42.667V51.2C512,27.674,492.86,8.533,469.333,8.533z M247.467,290.133
				c0,20.599-14.686,37.837-34.133,41.805v34.995h8.533c4.719,0,8.533,3.814,8.533,8.533S226.586,384,221.867,384h-34.133
				c-4.719,0-8.533-3.814-8.533-8.533s3.814-8.533,8.533-8.533h8.533v-34.995c-19.447-3.968-34.133-21.205-34.133-41.805V256
				c0-4.719,3.814-8.533,8.533-8.533h68.267c4.719,0,8.533,3.814,8.533,8.533V290.133z M349.867,290.133
				c0,20.599-14.686,37.837-34.133,41.805v34.995h8.533c4.719,0,8.533,3.814,8.533,8.533S328.986,384,324.267,384h-34.133
				c-4.719,0-8.533-3.814-8.533-8.533s3.814-8.533,8.533-8.533h8.533v-34.995c-19.447-3.968-34.133-21.205-34.133-41.805V256
				c0-4.719,3.814-8.533,8.533-8.533h68.267c4.719,0,8.533,3.814,8.533,8.533V290.133z M469.333,469.333h-68.267
				c-4.719,0-8.533-3.814-8.533-8.533c0-4.719,3.814-8.533,8.533-8.533h68.267c4.719,0,8.533,3.814,8.533,8.533
				C477.867,465.519,474.052,469.333,469.333,469.333z M469.333,435.2H384c-4.719,0-8.533-3.814-8.533-8.533
				s3.814-8.533,8.533-8.533h85.333c4.719,0,8.533,3.814,8.533,8.533S474.052,435.2,469.333,435.2z"/>
		</g>
	</g>
</g>
<g>
</g>
<g>
</g>
<g>
</g>
<g>
</g>
<g>
</g>
<g>
</g>
<g>
</g>
<g>
</g>
<g>
</g>
<g>
</g>
<g>
</g>
<g>
</g>
<g>
</g>
<g>
</g>
<g>
</g>
</svg>
