<?xml version="1.0" encoding="iso-8859-1"?>
<!-- Generator: Adobe Illustrator 19.0.0, SVG Export Plug-In . SVG Version: 6.00 Build 0)  -->
<svg version="1.1" id="Layer_1" xmlns="http://www.w3.org/2000/svg" xmlns:xlink="http://www.w3.org/1999/xlink" x="0px" y="0px"
	 viewBox="0 0 512 512" style="enable-background:new 0 0 512 512;" xml:space="preserve">
<g>
	<g>
		<g>
			<path d="M401.067,85.333c-14.114,0-25.6,11.486-25.6,25.6s11.486,25.6,25.6,25.6c14.114,0,25.6-11.486,25.6-25.6
				S415.181,85.333,401.067,85.333z"/>
			<path d="M492.203,84.105c-3.43-1.212-6.084-3.738-7.475-7.1c-1.399-3.371-1.314-7.031,0.256-10.317
				c5.487-11.529,3.192-24.815-5.837-33.835c-9.02-9.028-22.298-11.307-33.826-5.837c-3.294,1.562-6.963,1.647-10.317,0.265
				c-3.371-1.399-5.897-4.053-7.108-7.484C423.62,7.774,412.612,0,399.838,0c-12.766,0-23.774,7.774-28.049,19.789
				c-1.212,3.439-3.746,6.101-7.117,7.492c-3.362,1.382-7.023,1.297-10.308-0.265c-11.511-5.47-24.798-3.191-33.835,5.837
				c-9.02,9.02-11.315,22.298-5.837,33.835c1.57,3.285,1.655,6.946,0.265,10.308c-1.391,3.362-4.045,5.888-7.689,7.185
				c-10.103,3.891-16.666,13.926-17.118,26.197c-0.486,12.954,6.008,24.533,17.323,29.833c3.439,1.22,6.093,3.746,7.484,7.117
				c1.391,3.362,1.306,7.023-0.265,10.308c-5.478,11.529-3.183,24.815,5.837,33.835c9.037,9.037,22.323,11.324,33.835,5.837
				c3.285-1.579,6.963-1.664,10.308-0.265c3.371,1.391,5.905,4.045,7.424,8.235c4.813,10.283,15.445,16.606,27.861,16.606h0.563
				c12.365-0.188,22.775-6.647,27.375-17.365c1.212-3.43,3.738-6.084,7.108-7.475c3.354-1.391,7.023-1.297,10.317,0.265
				c11.52,5.478,24.798,3.191,33.826-5.837c9.028-9.028,11.324-22.306,5.837-33.835c-1.57-3.285-1.655-6.955-0.256-10.317
				c1.391-3.362,4.045-5.888,7.475-7.108C504.226,135.936,512,124.928,512,112.162C512,99.396,504.226,88.388,492.203,84.105z
				 M401.067,153.6c-23.526,0-42.667-19.14-42.667-42.667c0-23.526,19.14-42.667,42.667-42.667c23.526,0,42.667,19.14,42.667,42.667
				C443.733,134.46,424.593,153.6,401.067,153.6z"/>
			<path d="M204.8,170.667c1.886,0,3.772,0.623,5.333,1.869l28.8,23.04V102.4h-68.267v93.175l28.8-23.04
				C201.028,171.29,202.914,170.667,204.8,170.667z"/>
			<path d="M68.267,460.8h102.4v-85.333h-102.4V460.8z M93.867,392.533h51.2c4.719,0,8.533,3.823,8.533,8.533
				s-3.814,8.533-8.533,8.533h-51.2c-4.719,0-8.533-3.823-8.533-8.533S89.148,392.533,93.867,392.533z M93.867,426.667H128
				c4.719,0,8.533,3.823,8.533,8.533s-3.814,8.533-8.533,8.533H93.867c-4.719,0-8.533-3.823-8.533-8.533
				S89.148,426.667,93.867,426.667z"/>
			<path d="M399.957,238.95c-18.321,0-34.347-9.336-42.359-24.508c-5.197,1.911-10.598,2.884-16.12,2.884
				c-12.407,0-24.124-4.898-33.015-13.79c-13.158-13.15-17.22-32.068-10.88-49.212c-15.88-8.678-25.199-25.489-24.491-44.587
				c0.094-2.509,0.401-4.949,0.828-7.339H256v94.899c0,6.298-3.524,11.913-9.207,14.635c-5.692,2.731-12.262,1.971-17.178-1.954
				L204.8,190.131l-24.815,19.849c-2.961,2.364-6.519,3.584-10.12,3.584c-2.381,0-4.787-0.538-7.057-1.63
				c-5.683-2.722-9.207-8.337-9.207-14.635V102.4H42.231C18.944,102.4,0,121.54,0,145.067v324.267C0,492.86,18.944,512,42.231,512
				h324.702c23.526,0,42.667-19.14,42.667-42.667V237.969c-2.867,0.538-5.794,0.939-8.823,0.981H399.957z M187.733,469.333
				c0,4.71-3.814,8.533-8.533,8.533H59.733c-4.719,0-8.533-3.823-8.533-8.533v-102.4c0-4.71,3.814-8.533,8.533-8.533H179.2
				c4.719,0,8.533,3.823,8.533,8.533V469.333z"/>
		</g>
	</g>
</g>
<g>
</g>
<g>
</g>
<g>
</g>
<g>
</g>
<g>
</g>
<g>
</g>
<g>
</g>
<g>
</g>
<g>
</g>
<g>
</g>
<g>
</g>
<g>
</g>
<g>
</g>
<g>
</g>
<g>
</g>
</svg>
