<?xml version="1.0" encoding="iso-8859-1"?>
<!-- Generator: Adobe Illustrator 19.0.0, SVG Export Plug-In . SVG Version: 6.00 Build 0)  -->
<svg version="1.1" id="Layer_1" xmlns="http://www.w3.org/2000/svg" xmlns:xlink="http://www.w3.org/1999/xlink" x="0px" y="0px"
	 viewBox="0 0 512 512" style="enable-background:new 0 0 512 512;" xml:space="preserve">
<g>
	<g>
		<g>
			<path d="M412.047,123.469c-3.925-3.311-8.943-4.642-14.114-3.729c-6.733,1.169-12.476,6.938-13.662,13.713
				c-0.964,5.538,0.555,9.404,5.444,13.807c1.792,1.621,2.816,3.925,2.816,6.34v17.067h17.067V153.6c0-2.415,1.024-4.719,2.825-6.34
				c4.267-3.849,5.709-6.554,5.709-10.726C418.132,131.482,415.913,126.72,412.047,123.469z"/>
			<path d="M486.4,68.268h-25.626c0-0.683,0-1.323,0.009-2.031l0.017-6.502c0-32.939-26.795-59.733-59.733-59.733
				c-32.939,0-59.733,26.795-59.733,59.733v8.533h-25.6c-14.114,0-25.6,11.477-25.6,25.6v102.4c0,14.114,11.486,25.6,25.6,25.6
				H486.4c14.114,0,25.6-11.486,25.6-25.6v-102.4C512,79.745,500.514,68.268,486.4,68.268z M426.667,157.211v21.99
				c0,4.71-3.823,8.533-8.533,8.533H384c-4.71,0-8.533-3.823-8.533-8.533v-22.033c-7.168-7.706-9.788-16.461-8.004-26.65
				c2.415-13.841,13.739-25.19,27.546-27.597c10.078-1.732,20.292,0.981,28.023,7.484c7.731,6.502,12.169,16.026,12.169,26.129
				C435.2,146.16,431.078,152.586,426.667,157.211z M443.716,66.169c0,0.708-0.009,1.408-0.009,2.099H358.4v-8.533
				c0-23.526,19.14-42.667,42.667-42.667c23.526,0,42.667,19.14,42.667,42.667L443.716,66.169z"/>
			<path d="M204.8,170.665c1.886,0,3.772,0.623,5.333,1.869l28.8,23.04v-93.175h-68.267v93.175l28.8-23.04
				C201.028,171.288,202.914,170.665,204.8,170.665z"/>
			<path d="M273.067,196.265v-93.867H256v94.899c0,6.298-3.533,11.913-9.207,14.635c-5.683,2.731-12.254,1.98-17.178-1.954
				L204.8,190.13l-24.815,19.849c-2.953,2.364-6.511,3.575-10.112,3.575c-2.398,0.009-4.804-0.529-7.066-1.621
				c-5.675-2.722-9.207-8.337-9.207-14.635v-94.899H42.24c-23.296,0-42.24,18.944-42.24,42.24v324.693
				c0,23.526,19.14,42.667,42.667,42.667h324.267c23.526,0,42.667-19.14,42.667-42.667v-230.4h-93.867
				C292.207,238.932,273.067,219.792,273.067,196.265z M187.733,469.332c0,4.71-3.823,8.533-8.533,8.533H59.733
				c-4.71,0-8.533-3.823-8.533-8.533v-102.4c0-4.71,3.823-8.533,8.533-8.533H179.2c4.71,0,8.533,3.823,8.533,8.533V469.332z"/>
			<path d="M68.267,460.799h102.4v-85.333h-102.4V460.799z M93.867,392.532h51.2c4.71,0,8.533,3.823,8.533,8.533
				s-3.823,8.533-8.533,8.533h-51.2c-4.71,0-8.533-3.823-8.533-8.533S89.156,392.532,93.867,392.532z M93.867,426.665H128
				c4.71,0,8.533,3.823,8.533,8.533s-3.823,8.533-8.533,8.533H93.867c-4.71,0-8.533-3.823-8.533-8.533
				S89.156,426.665,93.867,426.665z"/>
		</g>
	</g>
</g>
<g>
</g>
<g>
</g>
<g>
</g>
<g>
</g>
<g>
</g>
<g>
</g>
<g>
</g>
<g>
</g>
<g>
</g>
<g>
</g>
<g>
</g>
<g>
</g>
<g>
</g>
<g>
</g>
<g>
</g>
</svg>
