<?xml version="1.0" encoding="iso-8859-1"?>
<!-- Generator: Adobe Illustrator 19.0.0, SVG Export Plug-In . SVG Version: 6.00 Build 0)  -->
<svg version="1.1" id="Layer_1" xmlns="http://www.w3.org/2000/svg" xmlns:xlink="http://www.w3.org/1999/xlink" x="0px" y="0px"
	 viewBox="0 0 511.999 511.999" style="enable-background:new 0 0 511.999 511.999;" xml:space="preserve">
<g>
	<g>
		<g>
			<path d="M204.8,170.666c1.886,0,3.772,0.623,5.333,1.869l28.8,23.04v-93.175h-68.267v93.175l28.8-23.04
				C201.029,171.289,202.915,170.666,204.8,170.666z"/>
			<path d="M68.267,460.799h102.4v-85.333h-102.4V460.799z M93.867,392.532h51.2c4.71,0,8.533,3.823,8.533,8.533
				s-3.823,8.533-8.533,8.533h-51.2c-4.71,0-8.533-3.823-8.533-8.533S89.157,392.532,93.867,392.532z M93.867,426.666H128
				c4.71,0,8.533,3.823,8.533,8.533s-3.823,8.533-8.533,8.533H93.867c-4.71,0-8.533-3.823-8.533-8.533
				S89.157,426.666,93.867,426.666z"/>
			<path d="M273.067,196.061v-93.662H256v94.899c0,6.298-3.533,11.913-9.207,14.635c-5.675,2.731-12.262,1.98-17.178-1.954
				L204.8,190.13l-24.815,19.849c-2.953,2.364-6.511,3.575-10.112,3.575c-2.398,0.009-4.804-0.529-7.066-1.621
				c-5.675-2.722-9.207-8.337-9.207-14.635v-94.899H42.24c-23.296,0-42.24,18.944-42.24,42.24v325.12
				c0,23.296,18.944,42.24,42.24,42.24h324.693c23.526,0,42.667-19.14,42.667-42.667v-230.4h-93.662
				C292.301,238.932,273.067,219.698,273.067,196.061z M187.734,469.333c0,4.71-3.823,8.533-8.533,8.533H59.734
				c-4.71,0-8.533-3.823-8.533-8.533v-102.4c0-4.71,3.823-8.533,8.533-8.533H179.2c4.71,0,8.533,3.823,8.533,8.533V469.333z"/>
			<path d="M486.194,0H315.937c-14.225,0-25.805,11.571-25.805,25.805v170.257c0,14.225,11.58,25.805,25.805,25.805h170.257
				c14.234,0,25.805-11.58,25.805-25.805V25.805C511.999,11.571,500.428,0,486.194,0z M468.675,114.193
				c-0.435,1.041-1.058,1.988-1.843,2.773L432.698,151.1c-1.664,1.664-3.849,2.5-6.033,2.5s-4.369-0.836-6.033-2.5
				c-3.328-3.337-3.328-8.738,0-12.066l19.567-19.567h-98.867c-4.71,0-8.533-3.823-8.533-8.533s3.823-8.533,8.533-8.533h98.867
				l-19.567-19.567c-3.328-3.337-3.328-8.738,0-12.066c3.337-3.337,8.738-3.337,12.066,0l34.133,34.133
				c0.785,0.785,1.408,1.724,1.843,2.773C469.537,109.756,469.537,112.102,468.675,114.193z"/>
		</g>
	</g>
</g>
<g>
</g>
<g>
</g>
<g>
</g>
<g>
</g>
<g>
</g>
<g>
</g>
<g>
</g>
<g>
</g>
<g>
</g>
<g>
</g>
<g>
</g>
<g>
</g>
<g>
</g>
<g>
</g>
<g>
</g>
</svg>
