<?xml version="1.0" encoding="iso-8859-1"?>
<!-- Generator: Adobe Illustrator 19.0.0, SVG Export Plug-In . SVG Version: 6.00 Build 0)  -->
<svg version="1.1" id="Layer_1" xmlns="http://www.w3.org/2000/svg" xmlns:xlink="http://www.w3.org/1999/xlink" x="0px" y="0px"
	 viewBox="0 0 512 512" style="enable-background:new 0 0 512 512;" xml:space="preserve">
<g>
	<g>
		<g>
			<path d="M145.067,238.933c1.801,0,3.601,0.572,5.12,1.707l20.48,15.36V153.6h-51.2V256l20.48-15.36
				C141.466,239.505,143.266,238.933,145.067,238.933z"/>
			<path d="M290.133,256c4.719,0,8.533-3.823,8.533-8.533s-3.814-8.533-8.533-8.533c-9.412,0-17.067-7.654-17.067-17.067v-59.733
				c0-4.71-3.814-8.533-8.533-8.533h-76.8v119.467c0,3.234-1.826,6.187-4.719,7.637c-1.203,0.597-2.517,0.896-3.814,0.896
				c-1.809,0-3.618-0.58-5.12-1.707l-29.013-21.76l-29.013,21.76c-2.577,1.937-6.042,2.253-8.934,0.811
				c-2.893-1.451-4.719-4.403-4.719-7.637V153.6H34.133C15.309,153.6,0,168.909,0,187.733v290.133C0,496.691,15.309,512,34.133,512
				H204.8c18.825,0,34.133-15.309,34.133-34.133v-203.93c0-10.223,7.33-17.937,17.067-17.937H290.133z"/>
			<path d="M384,85.333c1.801,0,3.601,0.572,5.12,1.707l20.48,15.36V0h-51.2v102.4l20.48-15.36
				C380.399,85.905,382.2,85.333,384,85.333z"/>
			<path d="M477.867,0h-51.2v119.467c0,3.234-1.826,6.187-4.719,7.637c-1.203,0.597-2.517,0.896-3.814,0.896
				c-1.809,0-3.618-0.58-5.12-1.707L384,104.533l-29.013,21.76c-2.577,1.946-6.042,2.253-8.934,0.811
				c-2.893-1.451-4.719-4.403-4.719-7.637V0h-51.2C271.309,0,256,15.309,256,34.133v102.4h8.533c14.114,0,25.6,11.486,25.6,25.6
				v59.733c14.114,0,25.6,11.486,25.6,25.6c0,3.004-0.614,5.854-1.57,8.533h163.703C496.691,256,512,240.691,512,221.867V34.133
				C512,15.309,496.691,0,477.867,0z"/>
			<path d="M372.05,325.975l20.48,15.36v-68.267h-51.2v68.267l20.489-15.36c1.519-1.135,3.311-1.707,5.111-1.707
				S370.531,324.84,372.05,325.975z"/>
			<path d="M477.867,273.067H409.6V358.4c0,3.234-1.826,6.187-4.719,7.637c-1.203,0.597-2.517,0.896-3.814,0.896
				c-1.809,0-3.618-0.58-5.12-1.707l-29.013-21.76l-29.013,21.76c-2.577,1.946-6.042,2.253-8.934,0.811
				c-2.893-1.451-4.719-4.403-4.719-7.637v-85.333h-34.133h-0.188H256.06c0.026,0.085-0.06,0.393-0.06,0.87v203.93
				c0,12.126-4.258,23.27-11.332,32.051C248.235,511.181,252.006,512,256,512h221.867C496.691,512,512,496.691,512,477.867v-204.8
				c0-3.994-0.819-7.765-2.082-11.332C501.137,268.809,489.993,273.067,477.867,273.067z"/>
		</g>
	</g>
</g>
<g>
</g>
<g>
</g>
<g>
</g>
<g>
</g>
<g>
</g>
<g>
</g>
<g>
</g>
<g>
</g>
<g>
</g>
<g>
</g>
<g>
</g>
<g>
</g>
<g>
</g>
<g>
</g>
<g>
</g>
</svg>
