<?xml version="1.0" encoding="iso-8859-1"?>
<!-- Generator: Adobe Illustrator 19.0.0, SVG Export Plug-In . SVG Version: 6.00 Build 0)  -->
<svg version="1.1" id="Layer_1" xmlns="http://www.w3.org/2000/svg" xmlns:xlink="http://www.w3.org/1999/xlink" x="0px" y="0px"
	 viewBox="0 0 512 512" style="enable-background:new 0 0 512 512;" xml:space="preserve">
<g>
	<g>
		<g>
			<path d="M486.204,0H315.93c-14.225,0-25.796,11.571-25.796,25.805v170.257c0,14.234,11.571,25.805,25.796,25.805h170.274
				c14.225,0,25.796-11.571,25.796-25.805V25.805C512,11.571,500.429,0,486.204,0z M375.467,59.733h64.734L429.167,48.7
				c-3.336-3.336-3.336-8.73,0-12.066c3.337-3.337,8.73-3.337,12.066,0l25.591,25.591c0.794,0.794,1.417,1.732,1.852,2.782
				c0.862,2.082,0.862,4.437,0,6.519c-0.435,1.05-1.058,1.988-1.852,2.782L441.233,99.9c-1.664,1.664-3.849,2.5-6.033,2.5
				c-2.185,0-4.369-0.836-6.033-2.5c-3.336-3.336-3.336-8.73,0-12.066L440.201,76.8h-64.734c-14.114,0-25.6,11.486-25.6,25.6
				c0,4.71-3.814,8.533-8.533,8.533c-4.719,0-8.533-3.823-8.533-8.533C332.8,78.874,351.94,59.733,375.467,59.733z M426.667,162.133
				h-64.734l11.034,11.034c3.337,3.337,3.337,8.73,0,12.066c-1.664,1.664-3.849,2.5-6.033,2.5c-2.185,0-4.369-0.836-6.033-2.5
				l-25.591-25.591c-0.794-0.794-1.417-1.732-1.852-2.782c-0.862-2.082-0.862-4.437,0-6.519c0.435-1.05,1.058-1.988,1.852-2.782
				l25.591-25.591c3.337-3.336,8.73-3.336,12.066,0c3.337,3.337,3.337,8.73,0,12.066l-11.034,11.034h64.734
				c14.114,0,25.6-11.486,25.6-25.6c0-4.71,3.814-8.533,8.533-8.533c4.719,0,8.533,3.823,8.533,8.533
				C469.333,142.993,450.193,162.133,426.667,162.133z"/>
			<path d="M204.8,170.667c1.886,0,3.772,0.623,5.333,1.869l28.8,23.04V102.4h-68.267v93.175l28.8-23.04
				C201.028,171.29,202.914,170.667,204.8,170.667z"/>
			<path d="M68.267,460.8h102.4v-85.333h-102.4V460.8z M93.867,392.533h51.2c4.71,0,8.533,3.823,8.533,8.533
				s-3.823,8.533-8.533,8.533h-51.2c-4.71,0-8.533-3.823-8.533-8.533S89.156,392.533,93.867,392.533z M93.867,426.667H128
				c4.71,0,8.533,3.823,8.533,8.533s-3.823,8.533-8.533,8.533H93.867c-4.71,0-8.533-3.823-8.533-8.533
				S89.156,426.667,93.867,426.667z"/>
			<path d="M273.067,196.062V102.4H256v94.899c0,6.298-3.533,11.913-9.207,14.635c-5.675,2.731-12.262,1.98-17.178-1.954
				L204.8,190.131l-24.815,19.849c-2.953,2.364-6.511,3.575-10.112,3.575c-2.398,0.009-4.804-0.529-7.066-1.621
				c-5.675-2.722-9.207-8.337-9.207-14.635V102.4H42.24C18.944,102.4,0,121.344,0,144.64v325.12C0,493.056,18.944,512,42.24,512
				h324.693c23.526,0,42.667-19.14,42.667-42.667v-230.4h-93.662C292.301,238.933,273.067,219.699,273.067,196.062z
				 M187.733,469.333c0,4.71-3.823,8.533-8.533,8.533H59.733c-4.71,0-8.533-3.823-8.533-8.533v-102.4
				c0-4.71,3.823-8.533,8.533-8.533H179.2c4.71,0,8.533,3.823,8.533,8.533V469.333z"/>
		</g>
	</g>
</g>
<g>
</g>
<g>
</g>
<g>
</g>
<g>
</g>
<g>
</g>
<g>
</g>
<g>
</g>
<g>
</g>
<g>
</g>
<g>
</g>
<g>
</g>
<g>
</g>
<g>
</g>
<g>
</g>
<g>
</g>
</svg>
