<?xml version="1.0" encoding="iso-8859-1"?>
<!-- Generator: Adobe Illustrator 19.0.0, SVG Export Plug-In . SVG Version: 6.00 Build 0)  -->
<svg version="1.1" id="Layer_1" xmlns="http://www.w3.org/2000/svg" xmlns:xlink="http://www.w3.org/1999/xlink" x="0px" y="0px"
	 viewBox="0 0 511.676 511.676" style="enable-background:new 0 0 511.676 511.676;" xml:space="preserve">
<g>
	<g>
		<g>
			<path d="M477.636,392.209H34.039c-14.157,0-25.668,11.511-25.668,25.668v68.13c0,14.157,11.511,25.668,25.668,25.668h443.597
				c14.148,0,25.668-11.511,25.668-25.668v-68.13C503.305,403.721,491.785,392.209,477.636,392.209z"/>
			<path d="M37.003,144.742h31.104v187.665c0,14.157,11.511,25.668,25.66,25.668h68.139c14.148,0,25.668-11.511,25.668-25.668
				V144.742h31.531c8.158,0,15.386-4.89,18.423-12.459c2.944-7.339,1.297-15.59-4.173-21.214l-74.428-96.777
				C151.136,5.205,139.804,0,127.84,0c-11.972,0-23.305,5.205-31.377,14.652l-73.83,96.119c-5.521,5.675-7.185,13.995-4.216,21.393
				C21.481,139.802,28.777,144.742,37.003,144.742z"/>
			<path d="M292.953,144.742h31.104v187.665c0,14.157,11.511,25.668,25.66,25.668h68.139c14.148,0,25.668-11.511,25.668-25.668
				V144.742h31.531c8.149,0,15.386-4.89,18.415-12.45c2.953-7.339,1.306-15.59-4.164-21.222l-74.428-96.777
				C407.086,5.205,395.754,0,383.79,0c-11.972,0-23.305,5.205-31.377,14.652l-73.839,96.119c-5.521,5.683-7.177,14.003-4.215,21.402
				C277.431,139.81,284.727,144.742,292.953,144.742z"/>
		</g>
	</g>
</g>
<g>
</g>
<g>
</g>
<g>
</g>
<g>
</g>
<g>
</g>
<g>
</g>
<g>
</g>
<g>
</g>
<g>
</g>
<g>
</g>
<g>
</g>
<g>
</g>
<g>
</g>
<g>
</g>
<g>
</g>
</svg>
