<?xml version="1.0" encoding="iso-8859-1"?>
<!-- Generator: Adobe Illustrator 19.0.0, SVG Export Plug-In . SVG Version: 6.00 Build 0)  -->
<svg version="1.1" id="Layer_1" xmlns="http://www.w3.org/2000/svg" xmlns:xlink="http://www.w3.org/1999/xlink" x="0px" y="0px"
	 viewBox="0 0 512 512" style="enable-background:new 0 0 512 512;" xml:space="preserve">
<g>
	<g>
		<g>
			<path d="M503.467,354.133h-55.885c16.222-22.741,26.342-49.126,29.295-76.8h-50.21c-14.114,0-25.6-11.486-25.6-25.6V217.6
				c0-14.114,11.486-25.6,25.6-25.6h33.929c-0.29-0.572-0.546-1.143-0.845-1.715c-13.346-25.259-39.834-40.951-69.154-40.951
				H264.533V140.8c0-14.114-11.486-25.6-25.6-25.6h-68.267c-14.114,0-25.6,11.486-25.6,25.6v8.533H65.613
				c-18.91,0-36.122,9.933-44.919,25.924C6.955,200.201,0,228.804,0,260.267c0,11.793,0.981,23.185,2.927,34.133H256v-68.267
				c0-14.114,11.486-25.6,25.6-25.6h68.267c14.114,0,25.6,11.486,25.6,25.6V371.2h17.067h37.461h64.939v17.067
				c0,4.71,3.814,8.533,8.533,8.533c4.719,0,8.533-3.823,8.533-8.533v-25.6C512,357.956,508.186,354.133,503.467,354.133z
				 M119.467,251.733c0,14.114-11.486,25.6-25.6,25.6H59.733c-14.114,0-25.6-11.486-25.6-25.6V217.6c0-14.114,11.486-25.6,25.6-25.6
				h34.133c14.114,0,25.6,11.486,25.6,25.6V251.733z M221.867,251.733c0,14.114-11.486,25.6-25.6,25.6h-34.133
				c-14.114,0-25.6-11.486-25.6-25.6V217.6c0-14.114,11.486-25.6,25.6-25.6h34.133c14.114,0,25.6,11.486,25.6,25.6V251.733z
				 M247.467,149.333h-85.333V140.8c0-4.702,3.823-8.533,8.533-8.533h68.267c4.71,0,8.533,3.831,8.533,8.533V149.333z"/>
			<path d="M196.267,345.6c-9.412,0-17.067,7.654-17.067,17.067s7.654,17.067,17.067,17.067c9.412,0,17.067-7.654,17.067-17.067
				S205.679,345.6,196.267,345.6z"/>
			<path d="M93.867,209.067H59.733c-4.71,0-8.533,3.831-8.533,8.533v34.133c0,4.702,3.823,8.533,8.533,8.533h34.133
				c4.71,0,8.533-3.831,8.533-8.533V217.6C102.4,212.898,98.577,209.067,93.867,209.067z"/>
			<path d="M349.867,217.6H281.6c-4.71,0-8.533,3.831-8.533,8.533V371.2H358.4V226.133C358.4,221.431,354.577,217.6,349.867,217.6z
				 M341.333,294.4H332.8c-4.719,0-8.533-3.823-8.533-8.533c0-4.71,3.814-8.533,8.533-8.533h8.533c4.719,0,8.533,3.823,8.533,8.533
				C349.867,290.577,346.052,294.4,341.333,294.4z"/>
			<path d="M418.133,217.6v34.133c0,4.702,3.823,8.533,8.533,8.533h51.2c0-17.203-3.268-34.355-9.66-51.2h-41.54
				C421.956,209.067,418.133,212.898,418.133,217.6z"/>
			<path d="M196.267,209.067h-34.133c-4.71,0-8.533,3.831-8.533,8.533v34.133c0,4.702,3.823,8.533,8.533,8.533h34.133
				c4.71,0,8.533-3.831,8.533-8.533V217.6C204.8,212.898,200.977,209.067,196.267,209.067z"/>
			<path d="M20.692,345.279c8.798,15.991,26.01,25.924,44.928,25.924h97.724c-0.708-2.748-1.212-5.572-1.212-8.533
				c0-18.825,15.309-34.133,34.133-34.133s34.133,15.309,34.133,34.133c0,2.961-0.495,5.786-1.212,8.533h26.812V311.47H6.927
				C10.307,323.349,14.846,334.664,20.692,345.279z"/>
		</g>
	</g>
</g>
<g>
</g>
<g>
</g>
<g>
</g>
<g>
</g>
<g>
</g>
<g>
</g>
<g>
</g>
<g>
</g>
<g>
</g>
<g>
</g>
<g>
</g>
<g>
</g>
<g>
</g>
<g>
</g>
<g>
</g>
</svg>
