<?xml version="1.0" encoding="iso-8859-1"?>
<!-- Generator: Adobe Illustrator 19.0.0, SVG Export Plug-In . SVG Version: 6.00 Build 0)  -->
<svg version="1.1" id="Layer_1" xmlns="http://www.w3.org/2000/svg" xmlns:xlink="http://www.w3.org/1999/xlink" x="0px" y="0px"
	 viewBox="0 0 512 512" style="enable-background:new 0 0 512 512;" xml:space="preserve">
<g transform="translate(0 -1)">
	<g>
		<g>
			<rect x="349.867" y="266.446" width="51.2" height="34.133"/>
			<path d="M469.333,334.713H460.8v-179.2c0-14.114-11.486-25.6-25.6-25.6H281.6c-14.114,0-25.6,11.486-25.6,25.6v179.2h-17.067
				V121.38c0-14.114-11.486-25.6-25.6-25.6h-25.6c0-0.623-0.119-1.22-0.188-1.826c0.068,0.631,0.188,1.237,0.188,1.877v79.241
				c0,5.914-3.524,11.196-8.986,13.457c-1.809,0.751-3.712,1.118-5.589,1.118c-3.772,0-7.475-1.485-10.274-4.267l-17.818-17.826
				l-17.818,17.818c-4.181,4.181-10.402,5.419-15.863,3.157c-5.461-2.261-8.986-7.544-8.986-13.457V95.831
				c0-0.64,0.119-1.246,0.188-1.877c-0.068,0.606-0.188,1.203-0.188,1.826H59.733c-14.114,0-25.6,11.486-25.6,25.6v214.195
				C14.686,339.543,0,356.78,0,377.38c0,23.526,19.14,42.667,42.667,42.667h426.667c23.526,0,42.667-19.14,42.667-42.667
				C512,353.853,492.86,334.713,469.333,334.713z M51.2,385.913c-4.71,0-8.533-3.823-8.533-8.533s3.823-8.533,8.533-8.533
				s8.533,3.823,8.533,8.533S55.91,385.913,51.2,385.913z M85.333,385.913c-4.71,0-8.533-3.823-8.533-8.533s3.823-8.533,8.533-8.533
				c4.71,0,8.533,3.823,8.533,8.533S90.044,385.913,85.333,385.913z M119.467,385.913c-4.71,0-8.533-3.823-8.533-8.533
				s3.823-8.533,8.533-8.533S128,372.669,128,377.38S124.177,385.913,119.467,385.913z M153.6,385.913
				c-4.71,0-8.533-3.823-8.533-8.533s3.823-8.533,8.533-8.533c4.71,0,8.533,3.823,8.533,8.533S158.31,385.913,153.6,385.913z
				 M187.733,385.913c-4.71,0-8.533-3.823-8.533-8.533s3.823-8.533,8.533-8.533s8.533,3.823,8.533,8.533
				S192.444,385.913,187.733,385.913z M221.867,385.913c-4.71,0-8.533-3.823-8.533-8.533s3.823-8.533,8.533-8.533
				c4.71,0,8.533,3.823,8.533,8.533S226.577,385.913,221.867,385.913z M256,385.913c-4.71,0-8.533-3.823-8.533-8.533
				s3.823-8.533,8.533-8.533s8.533,3.823,8.533,8.533S260.71,385.913,256,385.913z M290.133,385.913
				c-4.71,0-8.533-3.823-8.533-8.533s3.823-8.533,8.533-8.533s8.533,3.823,8.533,8.533S294.844,385.913,290.133,385.913z
				 M324.267,385.913c-4.71,0-8.533-3.823-8.533-8.533s3.823-8.533,8.533-8.533s8.533,3.823,8.533,8.533
				S328.977,385.913,324.267,385.913z M358.4,385.913c-4.71,0-8.533-3.823-8.533-8.533s3.823-8.533,8.533-8.533
				s8.533,3.823,8.533,8.533S363.11,385.913,358.4,385.913z M392.533,385.913c-4.71,0-8.533-3.823-8.533-8.533
				s3.823-8.533,8.533-8.533c4.71,0,8.533,3.823,8.533,8.533S397.244,385.913,392.533,385.913z M409.6,317.646h-68.267
				c-4.71,0-8.533-3.823-8.533-8.533v-51.2c0-4.71,3.823-8.533,8.533-8.533H409.6c4.719,0,8.533,3.823,8.533,8.533v51.2
				C418.133,313.823,414.319,317.646,409.6,317.646z M426.667,385.913c-4.71,0-8.533-3.823-8.533-8.533s3.823-8.533,8.533-8.533
				s8.533,3.823,8.533,8.533S431.377,385.913,426.667,385.913z M460.8,385.913c-4.71,0-8.533-3.823-8.533-8.533
				s3.823-8.533,8.533-8.533s8.533,3.823,8.533,8.533S465.51,385.913,460.8,385.913z"/>
			<polygon points="170.667,169.021 170.667,95.831 119.518,95.78 119.467,169.021 145.067,143.421 			"/>
		</g>
	</g>
</g>
<g>
</g>
<g>
</g>
<g>
</g>
<g>
</g>
<g>
</g>
<g>
</g>
<g>
</g>
<g>
</g>
<g>
</g>
<g>
</g>
<g>
</g>
<g>
</g>
<g>
</g>
<g>
</g>
<g>
</g>
</svg>
