<?xml version="1.0" encoding="iso-8859-1"?>
<!-- Generator: Adobe Illustrator 19.0.0, SVG Export Plug-In . SVG Version: 6.00 Build 0)  -->
<svg version="1.1" id="Layer_1" xmlns="http://www.w3.org/2000/svg" xmlns:xlink="http://www.w3.org/1999/xlink" x="0px" y="0px"
	 viewBox="0 0 509.452 509.452" style="enable-background:new 0 0 509.452 509.452;" xml:space="preserve">
<g>
	<g>
		<g>
			<path d="M249.747,109.246c1.173-0.493,2.402-0.726,3.603-0.726c3.64,0,7.084,2.132,8.592,5.697l11.692,27.816l33.243-73.365
				l-51.554-21.448l-33.401,73.728L249.747,109.246z"/>
			<path d="M476.87,73.127h-88.436c-3.779,0-7.187,2.29-8.62,5.79l-7.01,17.185l-48.696-20.266l-41.723,94.05
				c-1.415,3.482-4.804,5.772-8.564,5.79h-0.047c-3.752,0-7.131-2.253-8.583-5.706l-16.803-39.955l-39.964,16.803
				c-3.463,1.452-7.475,0.68-10.156-1.964c-2.672-2.644-3.491-6.647-2.067-10.138l41.965-94.627l-50.074-20.834
				c-5.921-2.458-12.418-2.458-18.32,0.019c-5.902,2.467-10.473,7.103-12.884,13.023L53.213,288.028
				c-9.104-2.588-18.711-2.206-27.555,1.517c-10.314,4.338-18.32,12.428-22.556,22.789c-8.723,21.383,1.583,45.885,22.975,54.607
				l187.718,76.567c7.382,27.881,32.759,48.528,62.929,48.528c35.933,0,65.164-29.24,65.164-65.164
				c0-8.034-1.536-15.704-4.208-22.817l108.395-265.765h30.794c17.967,0,32.582-14.615,32.582-32.582S494.836,73.127,476.87,73.127z
				 M226.567,385.326c-0.177,0.214-0.335,0.447-0.512,0.661c-1.089,1.35-2.132,2.728-3.1,4.152c-0.316,0.456-0.605,0.95-0.912,1.415
				c-0.782,1.21-1.536,2.43-2.243,3.686c-0.372,0.67-0.708,1.359-1.061,2.039c-0.559,1.098-1.108,2.206-1.61,3.342
				c-0.363,0.819-0.689,1.657-1.015,2.495c-0.419,1.052-0.81,2.104-1.164,3.174c-0.307,0.912-0.586,1.834-0.847,2.765
				c-0.307,1.061-0.577,2.132-0.829,3.202c-0.214,0.95-0.419,1.899-0.596,2.858c-0.205,1.126-0.372,2.262-0.521,3.407
				c-0.121,0.922-0.233,1.852-0.317,2.783c-0.037,0.419-0.112,0.828-0.14,1.247L33.105,349.71
				c-11.878-4.859-17.603-18.46-12.763-30.338c2.346-5.762,6.796-10.249,12.53-12.66c2.904-1.229,5.958-1.834,9.021-1.834
				c2.97,0,5.958,0.577,8.797,1.732l180.522,73.626C229.564,381.845,228.028,383.567,226.567,385.326z M476.87,119.673h-37.041
				c-3.789,0-7.196,2.29-8.62,5.79L325.755,384.014c-0.428-0.493-0.903-0.922-1.341-1.396c-0.773-0.828-1.536-1.657-2.355-2.448
				c-0.614-0.605-1.266-1.164-1.908-1.741c-0.884-0.791-1.769-1.592-2.7-2.337c-0.577-0.465-1.182-0.894-1.778-1.34
				c-1.052-0.782-2.104-1.573-3.202-2.299c-0.447-0.298-0.922-0.559-1.378-0.838c-1.285-0.801-2.56-1.592-3.901-2.299
				c-0.149-0.084-0.317-0.149-0.475-0.233c-4.645-2.42-9.626-4.273-14.839-5.52c-0.54-0.13-1.08-0.307-1.629-0.419
				c-1.024-0.223-2.076-0.354-3.119-0.521c-0.912-0.149-1.815-0.344-2.737-0.456l102.111-250.359l8.183-20.061h82.181
				c7.699,0,13.964,6.265,13.964,13.964S484.568,119.673,476.87,119.673z"/>
		</g>
	</g>
</g>
<g>
</g>
<g>
</g>
<g>
</g>
<g>
</g>
<g>
</g>
<g>
</g>
<g>
</g>
<g>
</g>
<g>
</g>
<g>
</g>
<g>
</g>
<g>
</g>
<g>
</g>
<g>
</g>
<g>
</g>
</svg>
