<?xml version="1.0" encoding="iso-8859-1"?>
<!-- Generator: Adobe Illustrator 19.0.0, SVG Export Plug-In . SVG Version: 6.00 Build 0)  -->
<svg version="1.1" id="Layer_1" xmlns="http://www.w3.org/2000/svg" xmlns:xlink="http://www.w3.org/1999/xlink" x="0px" y="0px"
	 viewBox="0 0 512 512" style="enable-background:new 0 0 512 512;" xml:space="preserve">
<g>
	<g>
		<g>
			<path d="M256,366.933c-18.825,0-34.133,15.309-34.133,34.133c0,18.825,15.309,34.133,34.133,34.133
				c18.825,0,34.133-15.309,34.133-34.133C290.133,382.242,274.825,366.933,256,366.933z"/>
			<path d="M426.667,366.933c-18.825,0-34.133,15.309-34.133,34.133c0,18.825,15.309,34.133,34.133,34.133
				s34.133-15.309,34.133-34.133C460.8,382.242,445.491,366.933,426.667,366.933z"/>
			<rect x="341.333" y="76.8" width="17.067" height="34.133"/>
			<path d="M256,196.267h34.133V256c0,4.719,3.814,8.533,8.533,8.533h145.067c4.719,0,8.533-3.814,8.533-8.533V85.333
				c0-4.719-3.814-8.533-8.533-8.533h-68.267v42.667c0,4.719-3.814,8.533-8.533,8.533H332.8c-4.719,0-8.533-3.814-8.533-8.533V76.8
				H256c-4.719,0-8.533,3.814-8.533,8.533v102.4C247.467,192.452,251.281,196.267,256,196.267z"/>
			<path d="M0,110.933c0,18.825,15.309,34.133,34.133,34.133h51.2V76.8h-51.2C15.309,76.8,0,92.109,0,110.933z"/>
			<path d="M477.867,332.8h-8.533v-51.2h-25.6h-68.267v8.533c0,4.719-3.814,8.533-8.533,8.533H332.8
				c-4.719,0-8.533-3.814-8.533-8.533V281.6h-25.6c-14.114,0-25.6-11.486-25.6-25.6v-8.533H256c-4.719,0-8.533,3.814-8.533,8.533
				v76.8H230.4V256c0-14.114,2.953-25.6,17.067-25.6H230.4c-4.719,0-8.533-3.814-8.533-8.533V179.2h-25.6
				c-4.719,0-8.533,3.814-8.533,8.533V332.8H179.2h-8.533V145.067c0-37.641-30.626-68.267-68.267-68.267v68.267v102.4V332.8
				c0,37.641,30.626,68.267,68.267,68.267h8.533h25.6c0-28.237,22.963-51.2,51.2-51.2s51.2,22.963,51.2,51.2h68.267
				c0-28.237,22.963-51.2,51.2-51.2c28.237,0,51.2,22.963,51.2,51.2c18.825,0,34.133-15.309,34.133-34.133
				S496.691,332.8,477.867,332.8z"/>
		</g>
	</g>
</g>
<g>
</g>
<g>
</g>
<g>
</g>
<g>
</g>
<g>
</g>
<g>
</g>
<g>
</g>
<g>
</g>
<g>
</g>
<g>
</g>
<g>
</g>
<g>
</g>
<g>
</g>
<g>
</g>
<g>
</g>
</svg>
