<?xml version="1.0" encoding="iso-8859-1"?>
<!-- Generator: Adobe Illustrator 19.0.0, SVG Export Plug-In . SVG Version: 6.00 Build 0)  -->
<svg xmlns="http://www.w3.org/2000/svg" xmlns:xlink="http://www.w3.org/1999/xlink" version="1.1" id="Layer_1" x="0px" y="0px" viewBox="0 0 512 512" style="enable-background:new 0 0 512 512;" xml:space="preserve">
<g>
	<g>
		<rect x="392" y="91" width="60" height="60"/>
	</g>
</g>
<g>
	<g>
		<path d="M467,31H45C20.186,31,0,51.186,0,76v300c0,24.814,20.186,45,45,45h75v-75c0-24.404,11.896-45.912,30-59.617V286    c0-57.891,48.109-105,106-105s106,47.109,106,105v0.383c18.104,13.705,30,35.213,30,59.617v75h75c24.814,0,45-20.186,45-45V76    C512,51.186,491.814,31,467,31z M75,61h90c8.291,0,15,6.709,15,15s-6.709,15-15,15H75c-8.291,0-15-6.709-15-15S66.709,61,75,61z     M195,151H75c-8.291,0-15-6.709-15-15s6.709-15,15-15h120c8.291,0,15,6.709,15,15S203.291,151,195,151z M482,166    c0,8.291-6.709,15-15,15h-90c-8.291,0-15-6.709-15-15V76c0-8.291,6.709-15,15-15h90c8.291,0,15,6.709,15,15V166z"/>
	</g>
</g>
<g>
	<g>
		<path d="M332,303.763V286c0-41.353-34.647-75-76-75c-41.353,0-76,33.647-76,75v17.763c-17.422,6.213-30,22.707-30,42.237v90    c0,24.814,20.186,45,45,45h122c24.814,0,45-20.186,45-45v-90C362,326.47,349.422,309.976,332,303.763z M271,406    c0,8.291-6.709,15-15,15c-8.291,0-15-6.709-15-15v-30c0-8.291,6.709-15,15-15s15,6.709,15,15V406z M302,301h-92v-15    c0-24.814,21.186-45,46-45c24.814,0,46,20.186,46,45V301z"/>
	</g>
</g>
<g>
</g>
<g>
</g>
<g>
</g>
<g>
</g>
<g>
</g>
<g>
</g>
<g>
</g>
<g>
</g>
<g>
</g>
<g>
</g>
<g>
</g>
<g>
</g>
<g>
</g>
<g>
</g>
<g>
</g>
</svg>
