<?xml version="1.0" encoding="iso-8859-1"?>
<!-- Generator: Adobe Illustrator 19.0.0, SVG Export Plug-In . SVG Version: 6.00 Build 0)  -->
<svg xmlns="http://www.w3.org/2000/svg" xmlns:xlink="http://www.w3.org/1999/xlink" version="1.1" id="Layer_1" x="0px" y="0px" viewBox="0 0 512 512" style="enable-background:new 0 0 512 512;" xml:space="preserve">
<g>
	<g>
		<path d="M256,0c-41.353,0-75,33.647-74.956,76.069l30,422C211.601,505.921,218.134,512,226,512h60    c7.866,0,14.399-6.079,14.956-13.931L331,75C331,33.647,297.353,0,256,0z"/>
	</g>
</g>
<g>
	<g>
		<path d="M497,211c-8.291,0-15,6.709-15,15v7.256L451,220.4v-20.109c0-8.291-6.709-15-15-15c-8.291,0-15,6.709-15,15v7.251    l-30-12.858v-20.116c0-8.291-6.709-15-15-15c-8.291,0-15,6.709-15,15v7.258l-7.308-3.131L344.383,309.5l150.493,21.354    C503.896,332.141,512,325.148,512,316c0-31.335,0-58.218,0-90C512,217.709,505.291,211,497,211z"/>
	</g>
</g>
<g>
	<g>
		<path d="M158.227,178.732L151,181.829v-7.26c0-8.291-6.709-15-15-15s-15,6.709-15,15v20.116l-30,12.858v-7.251    c0-8.291-6.709-15-15-15s-15,6.709-15,15v20.109l-31,12.856V226c0-8.291-6.709-15-15-15s-15,6.709-15,15c0,31.772,0,58.698,0,90    c0,9.148,8.146,16.163,17.124,14.854l150.443-21.348L158.227,178.732z"/>
	</g>
</g>
<g>
	<g>
		<path d="M384.32,454.52l-47.913-31.945l-5.524,77.633c-0.295,4.142-1.33,8.04-2.674,11.792H376c8.291,0,15-6.709,15-15v-30    C391,461.99,388.495,457.303,384.32,454.52z"/>
	</g>
</g>
<g>
	<g>
		<path d="M181.117,500.193l-5.543-77.606L127.68,454.52c-4.175,2.783-6.68,7.47-6.68,12.48v30c0,8.291,6.709,15,15,15h47.794    C182.448,508.245,181.412,504.341,181.117,500.193z"/>
	</g>
</g>
<g>
</g>
<g>
</g>
<g>
</g>
<g>
</g>
<g>
</g>
<g>
</g>
<g>
</g>
<g>
</g>
<g>
</g>
<g>
</g>
<g>
</g>
<g>
</g>
<g>
</g>
<g>
</g>
<g>
</g>
</svg>
