<?xml version="1.0" encoding="iso-8859-1"?>
<!-- Generator: Adobe Illustrator 19.0.0, SVG Export Plug-In . SVG Version: 6.00 Build 0)  -->
<svg xmlns="http://www.w3.org/2000/svg" xmlns:xlink="http://www.w3.org/1999/xlink" version="1.1" id="Layer_1" x="0px" y="0px" viewBox="0 0 512 512" style="enable-background:new 0 0 512 512;" xml:space="preserve">
<g>
	<g>
		<path d="M467,61H45C20.186,61,0,81.186,0,106v300c0,24.814,20.186,45,45,45h422c24.814,0,45-20.186,45-45V106    C512,81.186,491.814,61,467,61z M91,346c0,8.291-6.709,15-15,15s-15-6.709-15-15V166c0-8.291,6.709-15,15-15s15,6.709,15,15V346z     M136,361c-8.284,0-15-6.716-15-15s6.716-15,15-15s15,6.716,15,15S144.284,361,136,361z M151,286c0,8.291-6.709,15-15,15    s-15-6.709-15-15V166c0-8.291,6.709-15,15-15s15,6.709,15,15V286z M196,361c-8.284,0-15-6.716-15-15s6.716-15,15-15    s15,6.716,15,15S204.284,361,196,361z M211,286c0,8.291-6.709,15-15,15s-15-6.709-15-15V166c0-8.291,6.709-15,15-15    s15,6.709,15,15V286z M256,361c-8.284,0-15-6.716-15-15s6.716-15,15-15s15,6.716,15,15S264.284,361,256,361z M271,286    c0,8.291-6.709,15-15,15c-8.291,0-15-6.709-15-15V166c0-8.291,6.709-15,15-15s15,6.709,15,15V286z M316,361    c-8.284,0-15-6.716-15-15s6.716-15,15-15s15,6.716,15,15S324.284,361,316,361z M331,286c0,8.291-6.709,15-15,15    c-8.291,0-15-6.709-15-15V166c0-8.291,6.709-15,15-15c8.291,0,15,6.709,15,15V286z M376,361c-8.284,0-15-6.716-15-15    s6.716-15,15-15s15,6.716,15,15S384.284,361,376,361z M391,286c0,8.291-6.709,15-15,15c-8.291,0-15-6.709-15-15V166    c0-8.291,6.709-15,15-15c8.291,0,15,6.709,15,15V286z M451,346c0,8.291-6.709,15-15,15c-8.291,0-15-6.709-15-15V166    c0-8.291,6.709-15,15-15c8.291,0,15,6.709,15,15V346z"/>
	</g>
</g>
<g>
</g>
<g>
</g>
<g>
</g>
<g>
</g>
<g>
</g>
<g>
</g>
<g>
</g>
<g>
</g>
<g>
</g>
<g>
</g>
<g>
</g>
<g>
</g>
<g>
</g>
<g>
</g>
<g>
</g>
</svg>
