<?xml version="1.0" encoding="iso-8859-1"?>
<!-- Generator: Adobe Illustrator 19.0.0, SVG Export Plug-In . SVG Version: 6.00 Build 0)  -->
<svg xmlns="http://www.w3.org/2000/svg" xmlns:xlink="http://www.w3.org/1999/xlink" version="1.1" id="Layer_1" x="0px" y="0px" viewBox="0 0 512.002 512.002" style="enable-background:new 0 0 512.002 512.002;" xml:space="preserve">
<g>
	<g>
		<path d="M507.83,140.752L380.55,13.472c-5.729-5.729-15.811-5.4-21.211,0l-84.844,84.844c-5.859,5.859-5.859,15.352,0,21.211    l38.842,38.842c-25.023,3.801-49.343,20.9-57.526,47.964c-6.709,22.148-23.525,44.077-29.443,44.722    C177.5,214.17,115.244,206.113,63.901,230.034c-24.185,11.294-46.222,29.268-61.384,52.002    c-3.867,5.801-3.223,13.506,1.553,18.604c4.776,5.082,12.437,6.196,18.472,2.68c27.916-16.23,67.499,15.02,81.247,44.531    c17.813,38.174,59.971,57.422,99.448,47.769c3.853,29.949-21.132,59.615-51.855,72.261c-13.03,5.361-12.067,24.232,1.436,28.257    c37.874,11.25,79.418,7.764,113.899-8.32c58.433-27.246,94.424-86.484,91.699-150.908c-1.263-30.002-27.374-92.609-10.342-100.562    l29.493-13.749l24.208,24.208c5.859,5.859,15.352,5.859,21.211,0l84.844-84.844C513.567,156.226,513.215,146.137,507.83,140.752z     M412.381,214.99l-106.07-106.069l54.424-54.425l15.727,78.58c1.187,5.933,5.83,10.576,11.763,11.763l78.58,15.727L412.381,214.99    z"/>
	</g>
</g>
<g>
	<g>
		<path d="M158.897,156.176c-36.094-14.883-74.282-14.531-107.607,0.996c-4.189,1.948-7.236,5.728-8.276,10.225    s0.059,9.229,2.974,12.817l15.127,18.661c20.55-8.09,42.279-12.435,64.911-12.435c32.637,0,65.537,8.877,94.966,25.356    c1.038-1.884,1.749-4.16,2.69-6.238C206.234,183.774,184.109,166.582,158.897,156.176z"/>
	</g>
</g>
<g>
</g>
<g>
</g>
<g>
</g>
<g>
</g>
<g>
</g>
<g>
</g>
<g>
</g>
<g>
</g>
<g>
</g>
<g>
</g>
<g>
</g>
<g>
</g>
<g>
</g>
<g>
</g>
<g>
</g>
</svg>
