<?xml version="1.0" encoding="iso-8859-1"?>
<!-- Generator: Adobe Illustrator 19.0.0, SVG Export Plug-In . SVG Version: 6.00 Build 0)  -->
<svg xmlns="http://www.w3.org/2000/svg" xmlns:xlink="http://www.w3.org/1999/xlink" version="1.1" id="Layer_1" x="0px" y="0px" viewBox="0 0 512 512" style="enable-background:new 0 0 512 512;" xml:space="preserve">
<g>
	<g>
		<path d="M446.921,115.291l10.613,10.613c5.859,5.859,15.352,5.859,21.211,0s5.859-15.352,0-21.211l-42.437-42.437    c-5.859-5.859-15.352-5.859-21.211,0s-5.859,15.352,0,21.211L425.71,94.08l-21.793,21.793    C367.862,84.298,321.745,64.129,271,60.76V30h45c8.291,0,15-6.709,15-15s-6.709-15-15-15H196c-8.291,0-15,6.709-15,15    s6.709,15,15,15h45v30.76c-50.744,3.369-96.861,23.538-132.916,55.113L86.292,94.08l10.613-10.613    c5.859-5.86,5.859-15.352-0.001-21.211c-5.859-5.859-15.352-5.859-21.211,0l-42.437,42.437c-5.859,5.859-5.859,15.352,0,21.211    s15.352,5.859,21.211,0l10.613-10.613l21.793,21.793C52.201,176.678,31,229.354,31,286c0,124.072,100.928,226,225,226    s225-101.928,225-226c0-56.646-21.2-109.322-55.873-148.916L446.921,115.291z M256,452c-90.981,0-165-75.019-165-166    s74.019-166,165-166s165,75.019,165,166S346.982,452,256,452z"/>
	</g>
</g>
<g>
	<g>
		<path d="M361,286c0-8.291,6.709-15,15-15h13.484C382.474,208.675,333.326,158.527,271,151.516V165c0,8.291-6.709,15-15,15    c-8.291,0-15-6.709-15-15v-13.484C178.675,158.527,129.527,208.675,122.516,271H136c8.291,0,15,6.709,15,15    c0,8.291-6.709,15-15,15h-13.484c7.011,62.325,56.158,112.473,118.484,119.484V407c0-8.291,6.709-15,15-15s15,6.709,15,15v13.484    c62.325-7.011,111.473-57.158,118.484-119.484H376C367.709,301,361,294.291,361,286z M330.238,232.973l-33.748,33.748    c2.807,5.867,4.51,12.352,4.51,19.279c0,24.814-20.186,45-45,45c-24.814,0-45-20.186-45-45c0-24.814,20.186-45,45-45    c6.927,0,13.412,1.703,19.279,4.51l33.748-33.748c5.859-5.859,15.352-5.859,21.211,0    C336.097,217.621,336.097,227.114,330.238,232.973z"/>
	</g>
</g>
<g>
	<g>
		<path d="M256,271c-8.276,0-15,6.724-15,15s6.724,15,15,15s15-6.724,15-15S264.276,271,256,271z"/>
	</g>
</g>
<g>
</g>
<g>
</g>
<g>
</g>
<g>
</g>
<g>
</g>
<g>
</g>
<g>
</g>
<g>
</g>
<g>
</g>
<g>
</g>
<g>
</g>
<g>
</g>
<g>
</g>
<g>
</g>
<g>
</g>
</svg>
