<?xml version="1.0" encoding="iso-8859-1"?>
<!-- Generator: Adobe Illustrator 19.0.0, SVG Export Plug-In . SVG Version: 6.00 Build 0)  -->
<svg xmlns="http://www.w3.org/2000/svg" xmlns:xlink="http://www.w3.org/1999/xlink" version="1.1" id="Layer_1" x="0px" y="0px" viewBox="0 0 512 512" style="enable-background:new 0 0 512 512;" xml:space="preserve">
<g>
	<g>
		<path d="M481,452H31c-16.569,0-30,13.431-30,30c0,16.567,13.431,30,30,30h450c16.569,0,30-13.433,30-30    C511,465.431,497.569,452,481,452z"/>
	</g>
</g>
<g>
	<g>
		<path d="M346,331c-65.389,0-117.587,0-180,0c-52.755,0-96.127,40.25-103.484,91h386.968C442.127,371.25,398.755,331,346,331z"/>
	</g>
</g>
<g>
	<g>
		<path d="M358.671,98.031C360.224,90.824,361,83.412,361,76c0-75-79.028-76-105-76S151,1,151,76c0,7.39,0.46,10.023,1.174,15    l6.059,30l15.839,74.136c4.277,20.024,3.911,41.104-1.055,60.952L161.792,301H350.21l-11.226-44.927    c-4.966-19.834-5.332-40.913-1.055-60.938L358.671,98.031z M308.603,188.866c-3.647,17.084-4.362,34.764-2.503,52.134H205.901    c1.859-17.373,1.144-35.052-2.503-52.134L201.717,181h108.567L308.603,188.866z"/>
	</g>
</g>
<g>
</g>
<g>
</g>
<g>
</g>
<g>
</g>
<g>
</g>
<g>
</g>
<g>
</g>
<g>
</g>
<g>
</g>
<g>
</g>
<g>
</g>
<g>
</g>
<g>
</g>
<g>
</g>
<g>
</g>
</svg>
