<?xml version="1.0" encoding="iso-8859-1"?>
<!-- Generator: Adobe Illustrator 19.0.0, SVG Export Plug-In . SVG Version: 6.00 Build 0)  -->
<svg xmlns="http://www.w3.org/2000/svg" xmlns:xlink="http://www.w3.org/1999/xlink" version="1.1" id="Layer_1" x="0px" y="0px" viewBox="0 0 512 512" style="enable-background:new 0 0 512 512;" xml:space="preserve">
<g>
	<g>
		<path d="M436,362h76v-45c0-2.236-1.928-7.561-3.003-8.994L421,191.01V166c0-21.511-19.157-45-45-45H136c-25.917,0-45,23.603-45,45    v25.01L3.003,308.006C1.976,309.376,0,314.822,0,317v45h76c8.291,0,15,6.709,15,15c0,8.291-6.709,15-15,15H0v30h76    c8.291,0,15,6.709,15,15c0,8.291-6.709,15-15,15H0v15c0,24.814,20.186,45,45,45h421c24.814,0,46-20.186,46-45v-15h-76    c-8.291,0-15-6.709-15-15c0-8.291,6.709-15,15-15h76v-30h-76c-8.291,0-15-6.709-15-15C421,368.709,427.709,362,436,362z M91,302    H45l46-60V302z M121,304.534c0-114.991,0-80.936,0-132.323L189.789,242l-64.365,64.365    C125.261,306.288,121.023,304.542,121,304.534z M363.534,332H148.466c-0.527-1.509-1.143-2.974-1.831-4.424L211,263.211    l13.096,13.096c17.578,17.607,46.23,17.607,63.809,0L301,263.211l64.365,64.365C364.677,329.026,364.062,330.491,363.534,332z     M391,304.534c-0.046,0.016-4.188,1.719-4.424,1.831L322.211,242L391,172.211C391,223.8,391,189.421,391,304.534z M421,242l45,60    h-45V242z"/>
	</g>
</g>
<g>
	<g>
		<path d="M346,0H166c-24.484,0-45,22.345-45,45v46h30V51.211L189.789,91h132.422L361,51.211V91h30V45C391,23.489,371.843,0,346,0z"/>
	</g>
</g>
<g>
</g>
<g>
</g>
<g>
</g>
<g>
</g>
<g>
</g>
<g>
</g>
<g>
</g>
<g>
</g>
<g>
</g>
<g>
</g>
<g>
</g>
<g>
</g>
<g>
</g>
<g>
</g>
<g>
</g>
</svg>
