<?xml version="1.0" encoding="iso-8859-1"?>
<!-- Generator: Adobe Illustrator 19.0.0, SVG Export Plug-In . SVG Version: 6.00 Build 0)  -->
<svg xmlns="http://www.w3.org/2000/svg" xmlns:xlink="http://www.w3.org/1999/xlink" version="1.1" id="Layer_1" x="0px" y="0px" viewBox="0 0 512.001 512.001" style="enable-background:new 0 0 512.001 512.001;" xml:space="preserve">
<g>
	<g>
		<path d="M510.506,150.18c-3.574-7.441-12.495-10.547-20.024-6.987c-5.947,2.856-11.646,6.401-16.963,10.547    c-21.738,16.934-50.805,16.934-72.543,0c-31.049-24.234-73.23-24.988-105.149-2.844c5.859,8.106,11.027,16.71,15.491,25.746    c21.552-15.961,49.884-15.866,71.201,0.74c32.411,25.296,76.978,25.322,109.442,0.015c3.618-2.813,7.515-5.244,11.558-7.192    C510.975,166.616,514.109,157.651,510.506,150.18z"/>
	</g>
</g>
<g>
	<g>
		<path d="M150,106.001c-82.705,0-150,67.295-150,150s67.295,150,150,150s150-67.295,150-150S232.705,106.001,150,106.001z     M150,346.001c-49.629,0-90-40.371-90-90c0-49.629,40.371-90,90-90c49.629,0,90,40.371,90,90    C240,305.63,199.629,346.001,150,346.001z"/>
	</g>
</g>
<g>
	<g>
		<path d="M150,196.001c-33.091,0-60,26.909-60,60s26.909,60,60,60s60-26.909,60-60S183.091,196.001,150,196.001z"/>
	</g>
</g>
<g>
	<g>
		<path d="M510.506,210.18c-3.574-7.456-12.495-10.562-20.024-6.987c-5.947,2.856-11.646,6.401-16.963,10.547    c-21.738,16.934-50.805,16.934-72.543,0c-23.474-18.322-53.762-23.185-80.466-14.984c3.153,9.364,5.477,19.074,7.057,29.05    c18.005-6.213,38.736-3.056,54.952,9.576c32.411,25.296,76.978,25.322,109.442,0.015c3.618-2.813,7.515-5.244,11.558-7.192    C510.975,226.616,514.109,217.651,510.506,210.18z"/>
	</g>
</g>
<g>
	<g>
		<path d="M510.506,270.18c-3.574-7.456-12.495-10.547-20.024-6.987c-5.947,2.856-11.646,6.401-16.963,10.547    c-21.738,16.934-50.805,16.934-72.543,0c-20.722-16.174-46.978-21.905-70.992-17.413c-0.02,10.827-1.141,21.385-3.001,31.688    c18.164-6.489,39.143-3.402,55.536,9.368c32.411,25.296,76.978,25.322,109.442,0.015c3.618-2.813,7.515-5.244,11.558-7.192    C510.975,286.616,514.109,277.651,510.506,270.18z"/>
	</g>
</g>
<g>
	<g>
		<path d="M510.506,330.18c-3.574-7.456-12.495-10.576-20.024-6.987c-5.947,2.856-11.646,6.401-16.963,10.547    c-21.738,16.934-50.805,16.934-72.543,0c-24.122-18.827-55.406-23.595-82.694-14.416c-6.841,18.115-16.393,34.891-28.372,49.691    c6.995-3.04,13.795-6.738,20.067-11.633c21.738-16.934,50.805-16.934,72.543,0c32.432,25.313,77.011,25.298,109.442,0.015    c3.618-2.813,7.515-5.244,11.558-7.192C510.975,346.616,514.109,337.651,510.506,330.18z"/>
	</g>
</g>
<g>
</g>
<g>
</g>
<g>
</g>
<g>
</g>
<g>
</g>
<g>
</g>
<g>
</g>
<g>
</g>
<g>
</g>
<g>
</g>
<g>
</g>
<g>
</g>
<g>
</g>
<g>
</g>
<g>
</g>
</svg>
