<?xml version="1.0" encoding="iso-8859-1"?>
<!-- Generator: Adobe Illustrator 19.0.0, SVG Export Plug-In . SVG Version: 6.00 Build 0)  -->
<svg xmlns="http://www.w3.org/2000/svg" xmlns:xlink="http://www.w3.org/1999/xlink" version="1.1" id="Layer_1" x="0px" y="0px" viewBox="0 0 511.999 511.999" style="enable-background:new 0 0 511.999 511.999;" xml:space="preserve">
<g>
	<g>
		<path d="M224.97,420.977H44.994C20.183,420.977,0,441.161,0,465.971v30.996c0,8.29,6.708,14.998,14.998,14.998h239.968    c8.29,0,14.998-6.708,14.998-14.998v-30.996C269.964,441.161,249.78,420.977,224.97,420.977z"/>
	</g>
</g>
<g>
	<g>
		<path d="M134.982,0.034C60.549,0.034,0,61.582,0,136.016c0,8.29,6.708,14.998,14.998,14.998h14.998v239.968    c49.788,0,167.559,0,209.972,0V151.014h14.998c8.29,0,14.998-6.708,14.998-14.998C269.964,61.583,209.415,0.034,134.982,0.034z     M164.978,270.998h-59.992c-8.29,0-14.998-6.708-14.998-14.998c0-8.29,6.708-14.998,14.998-14.998h59.992    c8.29,0,14.998,6.708,14.998,14.998C179.976,264.29,173.268,270.998,164.978,270.998z M209.972,181.01H59.992v-29.996h149.98    V181.01z"/>
	</g>
</g>
<g>
	<g>
		<path d="M507.606,179.193l-84.847-84.847c-5.717-5.717-15.82-5.388-21.208,0L274.288,221.609c-5.378,5.379-5.734,15.474,0,21.208    l84.847,84.847c5.858,5.858,15.35,5.858,21.208,0l127.263-127.263C513.464,194.543,513.464,185.051,507.606,179.193z     M369.739,295.852l-54.428-54.428l78.579-15.714c5.932-1.187,10.575-5.829,11.761-11.761l15.714-78.58l54.428,54.428    L369.739,295.852z"/>
	</g>
</g>
<g>
</g>
<g>
</g>
<g>
</g>
<g>
</g>
<g>
</g>
<g>
</g>
<g>
</g>
<g>
</g>
<g>
</g>
<g>
</g>
<g>
</g>
<g>
</g>
<g>
</g>
<g>
</g>
<g>
</g>
</svg>
