<?xml version="1.0" encoding="iso-8859-1"?>
<!-- Generator: Adobe Illustrator 19.0.0, SVG Export Plug-In . SVG Version: 6.00 Build 0)  -->
<svg xmlns="http://www.w3.org/2000/svg" xmlns:xlink="http://www.w3.org/1999/xlink" version="1.1" id="Layer_1" x="0px" y="0px" viewBox="0 0 512 512" style="enable-background:new 0 0 512 512;" xml:space="preserve">
<g>
	<g>
		<path d="M467,391c24.814,0,45-20.186,45-45V106c0-24.814-20.186-45-45-45H255c-24.814,0-45,20.186-45,45v270    c0,8.291,6.709,15,15,15h106c0,10.977,3.177,21.14,8.344,30H141.656c5.167-8.86,8.344-19.023,8.344-30h15c8.291,0,15-6.709,15-15    V166c0-8.291-6.709-15-15-15H91.055c-15.073,0-29.077,7.485-37.441,20.039L4.424,273.373C2.88,276.598,0,286.311,0,292.812V346    c0,19.629,12.711,36.183,30.271,42.321C29.729,400.527,32.893,411.57,38.34,421H15c-8.291,0-15,6.709-15,15s6.709,15,15,15h482    c8.291,0,15-6.709,15-15c0-8.291-6.709-15-15-15h-53.344c5.167-8.86,8.344-19.023,8.344-30H467z M90,421    c-16.538,0-30-13.462-30-30c0-16.538,13.462-30,30-30s30,13.462,30,30C120,407.538,106.538,421,90,421z M120,271H38.813l28.746-60    H120V271z M391,421c-16.538,0-30-13.462-30-30c0-16.538,13.462-30,30-30c16.538,0,31,13.462,31,30    C422,407.538,407.538,421,391,421z M255,301c-8.291,0-15-6.709-15-15V136c0-8.727,7.357-15,15-15h212c8.176,0,15,7.456,15,15v150    c0,8.291-6.709,15-15,15H255z"/>
	</g>
</g>
<g>
	<g>
		<path d="M370.756,237.382c-5.592,4.83-13.942,4.81-19.512,0L270,168.602V271h182V168.602L370.756,237.382z"/>
	</g>
</g>
<g>
	<g>
		<polygon points="295.541,151 361,206.239 426.459,151   "/>
	</g>
</g>
<g>
</g>
<g>
</g>
<g>
</g>
<g>
</g>
<g>
</g>
<g>
</g>
<g>
</g>
<g>
</g>
<g>
</g>
<g>
</g>
<g>
</g>
<g>
</g>
<g>
</g>
<g>
</g>
<g>
</g>
</svg>
