<?xml version="1.0" encoding="iso-8859-1"?>
<!-- Generator: Adobe Illustrator 19.0.0, SVG Export Plug-In . SVG Version: 6.00 Build 0)  -->
<svg xmlns="http://www.w3.org/2000/svg" xmlns:xlink="http://www.w3.org/1999/xlink" version="1.1" id="Layer_1" x="0px" y="0px" viewBox="0 0 512 512" style="enable-background:new 0 0 512 512;" xml:space="preserve">
<g>
	<g>
		<path d="M256,151c-5.284,0-10.285-1.082-15-2.763V181h30v-32.763C266.285,149.918,261.284,151,256,151z"/>
	</g>
</g>
<g>
	<g>
		<path d="M241,211v32.763c4.715-1.681,9.716-2.763,15-2.763s10.285,1.082,15,2.763V211H241z"/>
	</g>
</g>
<g>
	<g>
		<path d="M256,271c-8.276,0-15,6.724-15,15s6.724,15,15,15s15-6.724,15-15S264.276,271,256,271z"/>
	</g>
</g>
<g>
	<g>
		<path d="M256,91c-8.276,0-15,6.724-15,15s6.724,15,15,15s15-6.724,15-15S264.276,91,256,91z"/>
	</g>
</g>
<g>
	<g>
		<path d="M406,0H106C81.186,0,61,20.186,61,45v61c0,41.353,33.647,75,75,75h75v-75c0-24.814,20.186-45,45-45    c24.814,0,45,20.186,45,45v75h75c41.353,0,75-33.647,75-75V45C451,20.186,430.814,0,406,0z"/>
	</g>
</g>
<g>
	<g>
		<path d="M376,211h-75v75c0,24.814-20.186,45-45,45c-24.814,0-45-20.186-45-45v-75h-75c-29.392,0-55.92-12.217-75-31.749V497    c0,8.291,6.709,15,15,15h360c8.291,0,15-6.709,15-15V179.251C431.92,198.783,405.392,211,376,211z M136,361h90    c8.291,0,15,6.709,15,15c0,8.291-6.709,15-15,15h-90c-8.291,0-15-6.709-15-15C121,367.709,127.709,361,136,361z M93.563,482    c6.197-17.461,22.881-30,42.437-30h240c19.556,0,36.24,12.539,42.437,30H93.563z"/>
	</g>
</g>
<g>
</g>
<g>
</g>
<g>
</g>
<g>
</g>
<g>
</g>
<g>
</g>
<g>
</g>
<g>
</g>
<g>
</g>
<g>
</g>
<g>
</g>
<g>
</g>
<g>
</g>
<g>
</g>
<g>
</g>
</svg>
