<?xml version="1.0" encoding="iso-8859-1"?>
<!-- Generator: Adobe Illustrator 19.0.0, SVG Export Plug-In . SVG Version: 6.00 Build 0)  -->
<svg xmlns="http://www.w3.org/2000/svg" xmlns:xlink="http://www.w3.org/1999/xlink" version="1.1" id="Layer_1" x="0px" y="0px" viewBox="0 0 512 512" style="enable-background:new 0 0 512 512;" xml:space="preserve">
<g>
	<g>
		<path d="M497,181c8.291,0,15-6.709,15-15v-60c0-8.291-6.709-15-15-15s-15,6.709-15,15v15h-30v-15c0-8.291-6.709-15-15-15h-45V15    c0-8.291-6.709-15-15-15H135c-8.291,0-15,6.709-15,15v76H75c-8.291,0-15,6.709-15,15v15H30v-15c0-8.291-6.709-15-15-15    S0,97.709,0,106v60c0,8.291,6.709,15,15,15s15-6.709,15-15v-15h30v15c0,1.187,0.414,2.238,0.674,3.345    c-2.964,4.017-5.409,8.553-7.09,13.632L3.203,391h505.591l-50.729-209.238c-1.558-4.669-3.847-8.925-6.68-12.713    c0.218-1.016,0.615-1.967,0.615-3.049v-15h30v15C482,174.291,488.709,181,497,181z M195,91h122c8.291,0,15,6.709,15,15    s-6.709,15-15,15H195c-8.291,0-15-6.709-15-15S186.709,91,195,91z M170.127,189.291l4.146-8.291h163.455l4.145,8.291    c5.012,9.999-2.278,21.709-13.418,21.709h-144.91C172.405,211,165.115,199.29,170.127,189.291z M90,121h30v30H96.621    c-2.294,0-4.404,0.721-6.621,1.058V121z M105,361c-8.284,0-15-6.716-15-15c0-8.286,6.716-15,15-15s15,6.714,15,15    C120,354.284,113.284,361,105,361z M135,301c-8.284,0-15-6.716-15-15c0-8.286,6.716-15,15-15s15,6.714,15,15    C150,294.284,143.284,301,135,301z M165,361c-8.284,0-15-6.716-15-15c0-8.286,6.716-15,15-15s15,6.714,15,15    C180,354.284,173.284,361,165,361z M195,301c-8.284,0-15-6.716-15-15c0-8.286,6.716-15,15-15s15,6.714,15,15    C210,294.284,203.284,301,195,301z M225,361c-8.284,0-15-6.716-15-15c0-8.286,6.716-15,15-15s16,6.714,16,15    C241,354.284,233.284,361,225,361z M256,301c-8.284,0-15-6.716-15-15c0-8.286,6.716-15,15-15s15,6.714,15,15    C271,294.284,264.284,301,256,301z M286,361c-8.284,0-15-6.716-15-15c0-8.286,6.716-15,15-15s15,6.714,15,15    C301,354.284,294.284,361,286,361z M317,301c-8.284,0-16-6.716-16-15c0-8.286,7.716-15,16-15s15,6.714,15,15    C332,294.284,325.284,301,317,301z M347,361c-8.284,0-15-6.716-15-15c0-8.286,6.716-15,15-15s15,6.714,15,15    C362,354.284,355.284,361,347,361z M377,301c-8.284,0-15-6.716-15-15c0-8.286,6.716-15,15-15s15,6.714,15,15    C392,294.284,385.284,301,377,301z M407,361c-8.284,0-15-6.716-15-15c0-8.286,6.716-15,15-15s15,6.714,15,15    C422,354.284,415.284,361,407,361z M422,152.051c-2.217-0.335-4.327-1.051-6.621-1.051H392v-30h30V152.051z"/>
	</g>
</g>
<g>
	<g>
		<path d="M0,421v46c0,24.814,20.186,45,45,45h422c24.814,0,45-20.186,45-45v-46H0z"/>
	</g>
</g>
<g>
</g>
<g>
</g>
<g>
</g>
<g>
</g>
<g>
</g>
<g>
</g>
<g>
</g>
<g>
</g>
<g>
</g>
<g>
</g>
<g>
</g>
<g>
</g>
<g>
</g>
<g>
</g>
<g>
</g>
</svg>
