<?xml version="1.0" encoding="iso-8859-1"?>
<!-- Generator: Adobe Illustrator 19.0.0, SVG Export Plug-In . SVG Version: 6.00 Build 0)  -->
<svg xmlns="http://www.w3.org/2000/svg" xmlns:xlink="http://www.w3.org/1999/xlink" version="1.1" id="Layer_1" x="0px" y="0px" viewBox="0 0 512 512" style="enable-background:new 0 0 512 512;" xml:space="preserve">
<g>
	<g>
		<path d="M406,391h-16.518c0.989-4.849,1.518-9.864,1.518-15v-15h15c24.814,0,45-20.186,45-45c0-24.814-20.186-45-45-45h-15    v-36.907c2.441,0.187,4.883,0.476,7.31,0.476c11.982,0,23.628-2.549,33.179-10.444C444.804,213.109,451,194.652,451,166    C451,65.761,374.462,0,256,0S61,65.761,61,166c0,28.652,6.196,47.109,19.512,58.125c11.486,9.5,26.005,11.087,40.488,9.979V271    h-15c-24.814,0-45,20.186-45,45c0,24.814,20.186,45,45,45h15v15c0,5.136,0.529,10.151,1.518,15H106c-41.353,0-75,34.647-75,76v30    c0,8.291,6.709,15,15,15h420c8.291,0,15-6.709,15-15v-30C481,425.647,447.353,391,406,391z M256,61c8.284,0,15,6.714,15,15    c0,8.284-6.716,15-15,15s-15-6.716-15-15C241,67.714,247.716,61,256,61z M151,166c0-8.276,6.724-15,15-15h15v60h-30V166z     M232.211,482l-30-31h47.578l30,31H232.211z M361,376c0,24.814-20.186,45-45,45H196c-24.814,0-45-20.186-45-45    c0-53.54,0-61.23,0-113.053C180.176,287.122,216.962,301,256,301c39.038,0,75.824-13.878,105-38.053    C361,314.264,361,321.178,361,376z M361,211H211v-60h135c8.276,0,15,6.724,15,15V211z"/>
	</g>
</g>
<g>
	<g>
		<path d="M316,361h-8.027c-5.347,0-10.327-2.871-13.008-7.515C286.952,339.613,272.011,331,256,331s-30.952,8.613-38.965,22.485    c-2.681,4.629-7.676,7.515-13.008,7.515H196c-8.291,0-15,6.709-15,15c0,8.291,6.709,15,15,15h8.027    c16.011,0,30.938-8.613,38.965-22.485c5.361-9.287,20.654-9.287,26.016,0C277.021,382.387,291.962,391,307.973,391H316    c8.291,0,15-6.709,15-15C331,367.709,324.291,361,316,361z"/>
	</g>
</g>
<g>
</g>
<g>
</g>
<g>
</g>
<g>
</g>
<g>
</g>
<g>
</g>
<g>
</g>
<g>
</g>
<g>
</g>
<g>
</g>
<g>
</g>
<g>
</g>
<g>
</g>
<g>
</g>
<g>
</g>
</svg>
