<?xml version="1.0" encoding="iso-8859-1"?>
<!-- Generator: Adobe Illustrator 19.0.0, SVG Export Plug-In . SVG Version: 6.00 Build 0)  -->
<svg xmlns="http://www.w3.org/2000/svg" xmlns:xlink="http://www.w3.org/1999/xlink" version="1.1" id="Layer_1" x="0px" y="0px" viewBox="0 0 512 512" style="enable-background:new 0 0 512 512;" xml:space="preserve">
<g>
	<g>
		<path d="M120,120v99.789l4.395-4.395c5.859-5.859,16.351-5.859,22.21,0.001L256,324.789l49.395-49.395    c5.859-5.859,15.352-5.859,21.211,0L392,339.789V120H120z M286,241c-24.814,0-45-20.186-45-45c0-24.814,20.186-45,45-45    c24.814,0,45,20.186,45,45C331,220.814,310.814,241,286,241z"/>
	</g>
</g>
<g>
	<g>
		<path d="M286,181c-8.276,0-15,6.724-15,15s6.724,15,15,15s15-6.724,15-15S294.276,181,286,181z"/>
	</g>
</g>
<g>
	<g>
		<polygon points="135,247.211 120,262.211 120,392 279.789,392   "/>
	</g>
</g>
<g>
	<g>
		<polygon points="316,307.211 277.211,346 322.211,392 392,392 392,383.211   "/>
	</g>
</g>
<g>
	<g>
		<path d="M497,120c8.291,0,15-6.709,15-15V45c0-8.291-6.709-15-15-15c-8.276,0-15-6.724-15-15c0-8.291-6.709-15-15-15h-60    c-8.291,0-15,6.709-15,15c0,8.276-6.724,15-15,15s-16-6.724-16-15c0-8.291-6.709-15-15-15h-60c-8.291,0-15,6.709-15,15    c0,8.276-6.724,15-15,15s-15-6.724-15-15c0-8.291-6.709-15-15-15h-60c-8.291,0-15,6.709-15,15c0,8.276-7.724,15-16,15    s-15-6.724-15-15c0-8.291-6.709-15-15-15H45c-8.291,0-15,6.709-15,15c0,8.276-6.724,15-15,15C6.709,30,0,36.709,0,45v60    c0,8.291,6.709,15,15,15c8.276,0,15,6.724,15,15s-6.724,16-15,16c-8.291,0-15,6.709-15,15v60c0,8.291,6.709,15,15,15    c8.276,0,15,6.724,15,15s-6.724,15-15,15c-8.291,0-15,6.709-15,15v60c0,8.291,6.709,16,15,16c8.276,0,15,6.724,15,15    s-6.724,15-15,15c-8.291,0-15,6.709-15,15v60c0,8.291,6.709,15,15,15c8.276,0,15,6.724,15,15c0,8.291,6.709,15,15,15h60    c8.291,0,15-6.709,15-15c0-8.276,6.724-15,15-15s16,6.724,16,15c0,8.291,6.709,15,15,15h60c8.291,0,15-6.709,15-15    c0-8.276,6.724-15,15-15s15,6.724,15,15c0,8.291,6.709,15,15,15h60c8.291,0,15-6.709,15-15c0-8.276,7.724-15,16-15s15,6.724,15,15    c0,8.291,6.709,15,15,15h60c8.291,0,15-6.709,15-15c0-8.276,6.724-15,15-15c8.291,0,15-6.709,15-15v-60c0-8.291-6.709-15-15-15    c-8.276,0-15-6.724-15-15s6.724-15,15-15c8.291,0,15-7.709,15-16v-60c0-8.291-6.709-15-15-15c-8.276,0-15-6.724-15-15    s6.724-15,15-15c8.291,0,15-6.709,15-15v-60c0-8.291-6.709-15-15-15c-8.276,0-15-7.724-15-16S488.724,120,497,120z M422,407    c0,8.291-6.709,15-15,15H105c-8.291,0-15-6.709-15-15V105c0-8.291,6.709-15,15-15h302c8.291,0,15,6.709,15,15V407z"/>
	</g>
</g>
<g>
</g>
<g>
</g>
<g>
</g>
<g>
</g>
<g>
</g>
<g>
</g>
<g>
</g>
<g>
</g>
<g>
</g>
<g>
</g>
<g>
</g>
<g>
</g>
<g>
</g>
<g>
</g>
<g>
</g>
</svg>
