<?xml version="1.0" encoding="iso-8859-1"?>
<!-- Generator: Adobe Illustrator 19.0.0, SVG Export Plug-In . SVG Version: 6.00 Build 0)  -->
<svg xmlns="http://www.w3.org/2000/svg" xmlns:xlink="http://www.w3.org/1999/xlink" version="1.1" id="Layer_1" x="0px" y="0px" viewBox="0 0 512 512" style="enable-background:new 0 0 512 512;" xml:space="preserve">
<g>
	<g>
		<rect x="362" y="196" width="60" height="60"/>
	</g>
</g>
<g>
	<g>
		<path d="M467,46H45C20.186,46,0,66.186,0,91c0,150.513,0,179.544,0,330c0,24.814,20.186,45,45,45h422c24.814,0,45-20.186,45-45    c0-136.835,0-172.183,0-330C512,66.186,491.814,46,467,46z M383.211,76h47.578l-30,30h-47.578L383.211,76z M292.211,76h48.578    l-30,30h-48.578L292.211,76z M111.211,76h47.578l-30,30H81.211L111.211,76z M165,256c8.291,0,15,6.709,15,15    c0,8.291-6.709,15-15,15H75c-8.291,0-15-6.709-15-15c0-8.291,6.709-15,15-15H165z M30,91c0-8.276,6.724-15,15-15h23.789l-30,30H30    V91z M39.833,434.956C34.122,432.836,30,427.443,30,421v-15h38.789L39.833,434.956z M60,331c0-8.291,6.709-15,15-15h151    c8.291,0,15,6.709,15,15c0,8.291-6.709,15-15,15H75C66.709,346,60,339.291,60,331z M128.789,436H81.211l30-30h47.578L128.789,436z     M219.789,436h-48.578l30-30h48.578L219.789,436z M219.789,106h-48.578l30-30h48.578L219.789,106z M310.789,436h-48.578l30-30    h48.578L310.789,436z M400.789,436h-47.578l30-30h47.578L400.789,436z M347,286c-8.291,0-15-6.709-15-15v-90    c0-8.291,6.709-15,15-15h90c8.291,0,15,6.709,15,15v90c0,8.291-6.709,15-15,15H347z M482,421c0,8.276-6.724,15-15,15h-23.789    l30-30H482V421z M482,106h-38.789l28.956-28.956C477.878,79.164,482,84.557,482,91V106z"/>
	</g>
</g>
<g>
</g>
<g>
</g>
<g>
</g>
<g>
</g>
<g>
</g>
<g>
</g>
<g>
</g>
<g>
</g>
<g>
</g>
<g>
</g>
<g>
</g>
<g>
</g>
<g>
</g>
<g>
</g>
<g>
</g>
</svg>
