<?xml version="1.0" encoding="iso-8859-1"?>
<!-- Generator: Adobe Illustrator 19.0.0, SVG Export Plug-In . SVG Version: 6.00 Build 0)  -->
<svg xmlns="http://www.w3.org/2000/svg" xmlns:xlink="http://www.w3.org/1999/xlink" version="1.1" id="Layer_1" x="0px" y="0px" viewBox="0 0 512 512" style="enable-background:new 0 0 512 512;" xml:space="preserve">
<g>
	<g>
		<path d="M376.013,15.002C376.013,6.71,369.304,0,361.012,0H150.988c-8.292,0-15.002,6.71-15.002,15.002    c0,35.186,24.446,64.579,57.184,72.633l-18.606,93.036c2.175-0.104,4.224-0.65,6.426-0.65h150.017c2.201,0,4.25,0.546,6.426,0.65    l-18.606-93.036C351.568,79.581,376.013,50.188,376.013,15.002z"/>
	</g>
</g>
<g>
	<g>
		<path d="M331.008,210.024H180.991c-57.898,0-105.012,47.114-105.012,105.012c0,8.292,6.71,15.002,15.002,15.002h330.037    c8.292,0,15.002-6.71,15.002-15.002C436.02,257.138,388.906,210.024,331.008,210.024z"/>
	</g>
</g>
<g>
	<g>
		<path d="M206.79,360.041l34.662,140.649c3.769,15.08,25.325,15.08,29.095,0l34.662-140.649H206.79z"/>
	</g>
</g>
<g>
</g>
<g>
</g>
<g>
</g>
<g>
</g>
<g>
</g>
<g>
</g>
<g>
</g>
<g>
</g>
<g>
</g>
<g>
</g>
<g>
</g>
<g>
</g>
<g>
</g>
<g>
</g>
<g>
</g>
</svg>
