<?xml version="1.0" encoding="iso-8859-1"?>
<!-- Generator: Adobe Illustrator 19.0.0, SVG Export Plug-In . SVG Version: 6.00 Build 0)  -->
<svg version="1.1" id="Layer_1" xmlns="http://www.w3.org/2000/svg" xmlns:xlink="http://www.w3.org/1999/xlink" x="0px" y="0px"
	 viewBox="0 0 511.9 511.9" style="enable-background:new 0 0 511.9 511.9;" xml:space="preserve">
<g>
	<g>
		<path d="M490.748,128V64c0-11.8-9.5-21.3-21.3-21.3h-85.4c-11.8,0-21.3,9.6-21.3,21.3v64c-11.8,0-21.3,9.6-21.3,21.3v85.3
			c0,11.8,9.5,21.3,21.3,21.3h42.7v74.7c0,9.3-1,18.4-2.7,27.2c-12.2-58-63.8-101.8-125.4-101.8c-70.6,0-128,57.4-128,128
			c0,8.2,0.9,16.3,2.3,24.1c-14.9-22.1-23.6-48.8-23.6-77.4V213.3h64c11.8,0,21.3-9.6,21.3-21.3v-85.3c0-11.8-9.5-21.3-21.3-21.3
			v-64c0-11.8-9.5-21.4-21.3-21.4h-128c-11.8,0-21.4,9.6-21.4,21.3v64c-11.8,0-21.3,9.6-21.3,21.4V192c0,11.8,9.5,21.3,21.3,21.3h64
			v117.3c0,100,81.3,181.3,181.3,181.3c1.8,0,3.5-0.2,5.3-0.3c1.8,0.1,3.5,0.3,5.3,0.3c19.4,0,37.7-4.5,54.1-12.2
			c68-26.2,116.5-92,116.5-169.2V256h42.7c11.8,0,21.3-9.6,21.3-21.3v-85.3C512.048,137.6,502.548,128,490.748,128z M64.048,85.4
			v-0.1V42.7h85.3v42.7H64.048z M313.448,461.1c-12.5,4.5-25.8,7.2-39.6,7.9c-45.4-1.9-81.8-39.1-81.8-85
			c0-47.1,38.3-85.3,85.3-85.3s85.3,38.3,85.3,85.3C362.748,418.1,342.448,447.4,313.448,461.1z M448.048,128h-42.7V85.3h42.7V128z"
			/>
	</g>
</g>
<g>
</g>
<g>
</g>
<g>
</g>
<g>
</g>
<g>
</g>
<g>
</g>
<g>
</g>
<g>
</g>
<g>
</g>
<g>
</g>
<g>
</g>
<g>
</g>
<g>
</g>
<g>
</g>
<g>
</g>
</svg>
