<?xml version="1.0" encoding="iso-8859-1"?>
<!-- Generator: Adobe Illustrator 19.0.0, SVG Export Plug-In . SVG Version: 6.00 Build 0)  -->
<svg version="1.1" id="Layer_1" xmlns="http://www.w3.org/2000/svg" xmlns:xlink="http://www.w3.org/1999/xlink" x="0px" y="0px"
	 viewBox="0 0 512.013 512.013" style="enable-background:new 0 0 512.013 512.013;" xml:space="preserve">
<g>
	<g>
		<path d="M505.757,240.917l-10.392-10.388l10.389-10.389c8.341-8.341,8.341-21.824,0-30.165L322.032,6.252
			c-8.32-8.32-21.824-8.32-30.165,0l-10.39,10.389L271.088,6.252c-8.341-8.32-21.824-8.32-30.165,0
			c-8.341,8.341-8.341,21.845,0,30.165l8.192,8.192c-17.387-7.723-38.485-4.565-52.693,9.685l-63.915,63.915
			c-8.939,8.96-13.888,20.843-13.888,33.515c0,12.651,4.949,24.555,13.888,33.493l61.333,61.312l-85.675,85.675
			c-8.341,8.341-8.341,21.824,0,30.165l5.845,5.845c-0.341,0.277-0.768,0.384-1.088,0.704L6.256,475.585
			c-8.341,8.341-8.341,21.845,0,30.165c4.16,4.181,9.621,6.251,15.083,6.251c5.461,0,10.923-2.069,15.083-6.251l106.667-106.667
			c0.32-0.32,0.427-0.747,0.725-1.067l5.824,5.824c4.181,4.181,9.621,6.251,15.083,6.251c5.461,0,10.923-2.069,15.083-6.251
			l85.675-85.653l61.312,61.312c8.96,8.96,20.843,13.888,33.515,13.888c12.651,0,24.555-4.928,33.493-13.888l63.915-63.915
			c14.251-14.229,17.387-35.307,9.664-52.715l8.213,8.213c4.16,4.181,9.621,6.251,15.083,6.251c5.462,0,10.923-2.069,15.083-6.251
			C514.098,262.762,514.098,249.258,505.757,240.917z M437.339,228.225L283.781,74.668L306.949,51.5l153.557,153.557
			L437.339,228.225z"/>
	</g>
</g>
<g>
</g>
<g>
</g>
<g>
</g>
<g>
</g>
<g>
</g>
<g>
</g>
<g>
</g>
<g>
</g>
<g>
</g>
<g>
</g>
<g>
</g>
<g>
</g>
<g>
</g>
<g>
</g>
<g>
</g>
</svg>
