<?xml version="1.0" encoding="iso-8859-1"?>
<!-- Generator: Adobe Illustrator 19.0.0, SVG Export Plug-In . SVG Version: 6.00 Build 0)  -->
<svg version="1.1" id="Layer_1" xmlns="http://www.w3.org/2000/svg" xmlns:xlink="http://www.w3.org/1999/xlink" x="0px" y="0px"
	 viewBox="0 0 512.011 512.011" style="enable-background:new 0 0 512.011 512.011;" xml:space="preserve">
<g transform="translate(-1)">
	<g>
		<path d="M491.678,234.673h-64V213.34v-64h42.667c11.797,0,21.333-9.557,21.333-21.333s-9.536-21.333-21.333-21.333h-42.667v-64
			c0-11.776-9.536-21.333-21.333-21.333H171.678H86.345c-11.797,0-21.333,9.557-21.333,21.333v45.468L34.185,67.59
			c-9.856-6.571-23.061-3.883-29.589,5.909c-6.549,9.813-3.904,23.061,5.909,29.589l54.507,36.338v55.381l-30.827-20.551
			c-9.856-6.549-23.061-3.904-29.589,5.909c-6.549,9.813-3.904,23.061,5.909,29.589l54.507,36.338v223.246
			c0,11.776,9.536,21.333,21.333,21.333h85.333h234.667h85.333c11.797,0,21.333-9.557,21.333-21.333V256.006
			C513.011,244.23,503.475,234.673,491.678,234.673z M150.345,213.339v85.333v85.333v64h-42.667V234.837
			c0.001-0.166,0.003-0.332,0-0.498V128.17c0.001-0.166,0.003-0.332,0-0.498V64.006h42.667V213.339z M257.011,106.673h64
			c11.797,0,21.333,9.557,21.333,21.333s-9.536,21.333-21.333,21.333h-64c-11.797,0-21.333-9.557-21.333-21.333
			S245.214,106.673,257.011,106.673z M385.011,448.006h-192v-42.667h192V448.006z M385.011,362.673h-192v-42.667h192V362.673z
			 M385.011,256.006v21.333h-192v-42.667h192V256.006z M470.345,448.006h-42.667v-64v-85.333V277.34h42.667V448.006z"/>
	</g>
</g>
<g>
</g>
<g>
</g>
<g>
</g>
<g>
</g>
<g>
</g>
<g>
</g>
<g>
</g>
<g>
</g>
<g>
</g>
<g>
</g>
<g>
</g>
<g>
</g>
<g>
</g>
<g>
</g>
<g>
</g>
</svg>
