<?xml version="1.0" encoding="iso-8859-1"?>
<!-- Generator: Adobe Illustrator 19.0.0, SVG Export Plug-In . SVG Version: 6.00 Build 0)  -->
<svg version="1.1" id="Layer_1" xmlns="http://www.w3.org/2000/svg" xmlns:xlink="http://www.w3.org/1999/xlink" x="0px" y="0px"
	 viewBox="0 0 511.999 511.999" style="enable-background:new 0 0 511.999 511.999;" xml:space="preserve">
<g>
	<g>
		<path d="M426.667,0c-35.285,0-64,28.715-64,64v42.667V192c0,11.776,9.536,21.333,21.333,21.333h21.333v85.333
			c0,45.333-17.877,86.464-46.805,117.056c2.603-10.155,4.139-20.757,4.139-31.723c0-70.592-57.408-128-128-128s-128,57.408-128,128
			c0,10.965,1.536,21.568,4.139,31.723C81.877,385.131,64,344,64,298.667v-21.333C64,230.272,102.272,192,149.333,192h21.333v21.333
			c0,11.776,9.536,21.333,21.333,21.333h42.667c35.285,0,64-28.715,64-64c0-35.285-28.715-64-64-64H192
			c-11.797,0-21.333,9.557-21.333,21.333v21.333h-21.333c-32.811,0-62.656,12.501-85.333,32.853V128h21.333
			c35.285,0,64-28.715,64-64c0-35.285-28.715-64-64-64H42.667C30.869,0,21.333,9.557,21.333,21.333v85.333v192
			c0,113.216,88.725,205.867,200.256,212.672c4.309,0.448,8.661,0.661,13.077,0.661c4.416,0,8.768-0.213,13.077-0.661
			C359.275,504.533,448,411.883,448,298.667v-85.333h21.333c11.797,0,21.333-9.557,21.333-21.333v-85.333V64
			C490.667,28.715,461.952,0,426.667,0z M234.667,469.333c-47.061,0-85.333-38.272-85.333-85.333
			c0-47.061,38.272-85.333,85.333-85.333C281.728,298.667,320,336.939,320,384C320,431.061,281.728,469.333,234.667,469.333z
			 M448,85.333h-42.667V64c0-11.755,9.557-21.333,21.333-21.333S448,52.245,448,64V85.333z"/>
	</g>
</g>
<g>
</g>
<g>
</g>
<g>
</g>
<g>
</g>
<g>
</g>
<g>
</g>
<g>
</g>
<g>
</g>
<g>
</g>
<g>
</g>
<g>
</g>
<g>
</g>
<g>
</g>
<g>
</g>
<g>
</g>
</svg>
