<?xml version="1.0" encoding="iso-8859-1"?>
<!-- Generator: Adobe Illustrator 19.0.0, SVG Export Plug-In . SVG Version: 6.00 Build 0)  -->
<svg version="1.1" id="Layer_1" xmlns="http://www.w3.org/2000/svg" xmlns:xlink="http://www.w3.org/1999/xlink" x="0px" y="0px"
	 viewBox="0 0 512 512" style="enable-background:new 0 0 512 512;" xml:space="preserve">
<g>
	<g>
		<path d="M487.622,0h-128c-11.797,0-21.333,9.557-21.333,21.333v341.333c0,11.776,9.536,21.333,21.333,21.333h42.667v21.333
			c0,35.285-28.715,64-64,64c-35.285,0-64-28.715-64-64c0-70.592-57.408-128-128-128c-17.579,0-32.725-10.709-39.232-25.941
			c23.445-9.045,40.725-30.592,43.371-57.067l10.709-107.179c2.24-22.251-5.099-44.501-20.075-61.077
			C126.065,9.493,104.646,0,82.289,0C59.931,0,38.513,9.493,23.515,26.069C8.539,42.645,1.201,64.896,3.441,87.147L14.15,194.325
			c2.837,28.48,22.72,51.008,48.896,58.645c8.427,38.273,42.475,67.03,83.243,67.03c47.061,0,85.333,38.272,85.333,85.333
			c0,58.816,47.851,106.667,106.667,106.667c58.816,0,106.667-47.851,106.667-106.667V384h42.667
			c11.797,0,21.333-9.557,21.333-21.333V21.333C508.955,9.557,499.419,0,487.622,0z M423.622,298.667
			c-11.776,0-21.333-9.557-21.333-21.333S411.846,256,423.622,256s21.333,9.557,21.333,21.333S435.398,298.667,423.622,298.667z
			 M423.622,213.333c-11.776,0-21.333-9.557-21.333-21.333s9.557-21.333,21.333-21.333s21.333,9.557,21.333,21.333
			S435.398,213.333,423.622,213.333z M423.622,128c-11.776,0-21.333-9.557-21.333-21.333s9.557-21.333,21.333-21.333
			s21.333,9.557,21.333,21.333S435.398,128,423.622,128z"/>
	</g>
</g>
<g>
</g>
<g>
</g>
<g>
</g>
<g>
</g>
<g>
</g>
<g>
</g>
<g>
</g>
<g>
</g>
<g>
</g>
<g>
</g>
<g>
</g>
<g>
</g>
<g>
</g>
<g>
</g>
<g>
</g>
</svg>
