<?xml version="1.0" encoding="iso-8859-1"?>
<!-- Generator: Adobe Illustrator 19.0.0, SVG Export Plug-In . SVG Version: 6.00 Build 0)  -->
<svg version="1.1" id="Layer_1" xmlns="http://www.w3.org/2000/svg" xmlns:xlink="http://www.w3.org/1999/xlink" x="0px" y="0px"
	 viewBox="0 0 512 512" style="enable-background:new 0 0 512 512;" xml:space="preserve">
<g>
	<g>
		<path d="M490.667,213.333H277.333v-128c0-11.755,9.557-21.333,21.333-21.333S320,73.579,320,85.333v21.333
			c0,35.285,28.715,64,64,64c35.285,0,64-28.715,64-64V21.333C448,9.557,438.464,0,426.667,0s-21.333,9.557-21.333,21.333v85.333
			c0,11.755-9.557,21.333-21.333,21.333s-21.333-9.579-21.333-21.333V85.333c0-35.285-28.715-64-64-64c-35.285,0-64,28.715-64,64
			v128H21.333C9.536,213.333,0,222.891,0,234.667v256C0,502.443,9.536,512,21.333,512h469.333c11.797,0,21.333-9.557,21.333-21.333
			v-256C512,222.891,502.464,213.333,490.667,213.333z M170.667,384h-21.333v21.333c0,11.776-9.536,21.333-21.333,21.333
			s-21.333-9.557-21.333-21.333V384H85.333C73.536,384,64,374.443,64,362.667s9.536-21.333,21.333-21.333h21.333V320
			c0-11.776,9.536-21.333,21.333-21.333s21.333,9.557,21.333,21.333v21.333h21.333c11.797,0,21.333,9.557,21.333,21.333
			S182.464,384,170.667,384z M277.333,448h-42.667c-11.797,0-21.333-9.557-21.333-21.333s9.536-21.333,21.333-21.333h42.667
			c11.797,0,21.333,9.557,21.333,21.333S289.132,448,277.333,448z M277.333,384h-42.667c-11.797,0-21.333-9.557-21.333-21.333
			s9.536-21.333,21.333-21.333h42.667c11.797,0,21.333,9.557,21.333,21.333S289.132,384,277.333,384z M298.667,320h-85.333
			C201.536,320,192,310.443,192,298.667s9.536-21.333,21.333-21.333h85.333c11.797,0,21.333,9.557,21.333,21.333
			S310.464,320,298.667,320z M341.333,448C329.557,448,320,438.443,320,426.667s9.557-21.333,21.333-21.333
			s21.333,9.557,21.333,21.333S353.109,448,341.333,448z M426.667,448c-11.776,0-21.333-9.557-21.333-21.333
			s9.557-21.333,21.333-21.333S448,414.891,448,426.667S438.443,448,426.667,448z"/>
	</g>
</g>
<g>
</g>
<g>
</g>
<g>
</g>
<g>
</g>
<g>
</g>
<g>
</g>
<g>
</g>
<g>
</g>
<g>
</g>
<g>
</g>
<g>
</g>
<g>
</g>
<g>
</g>
<g>
</g>
<g>
</g>
</svg>
