<?xml version="1.0" encoding="iso-8859-1"?>
<!-- Generator: Adobe Illustrator 19.0.0, SVG Export Plug-In . SVG Version: 6.00 Build 0)  -->
<svg version="1.1" id="Layer_1" xmlns="http://www.w3.org/2000/svg" xmlns:xlink="http://www.w3.org/1999/xlink" x="0px" y="0px"
	 viewBox="0 0 512 512" style="enable-background:new 0 0 512 512;" xml:space="preserve">
<g>
	<g>
		<path d="M512,170.667c0-70.592-57.408-128-128-128H277.333h-42.667H128c-70.592,0-128,57.408-128,128
			c0,32.896,12.565,62.827,33.024,85.525C11.904,279.467,0,309.333,0,341.333c0,70.592,57.408,128,128,128h256
			c70.592,0,128-57.408,128-128c0-32-11.904-61.867-33.024-85.141C499.435,233.493,512,203.563,512,170.667z M99.157,250.645
			c-3.008-1.131-5.973-2.347-8.875-3.819c-0.981-0.491-1.92-1.045-2.88-1.557c-3.456-1.92-6.848-3.968-10.091-6.379
			c-0.043-0.043-0.085-0.043-0.128-0.064c-20.821-15.573-34.517-40.213-34.517-68.16c0-47.061,38.272-85.333,85.333-85.333h11.52
			c-20.352,22.677-32.853,52.523-32.853,85.333S119.168,233.323,139.52,256H128c-5.205,0-10.261-0.64-15.211-1.536
			c-2.283-0.427-4.501-1.067-6.741-1.685C103.701,252.16,101.397,251.456,99.157,250.645z M213.333,384H128
			c-11.797,0-21.333-9.557-21.333-21.333s9.536-21.333,21.333-21.333h85.333c11.797,0,21.333,9.557,21.333,21.333
			S225.131,384,213.333,384z M298.667,384c-11.776,0-21.333-9.557-21.333-21.333s9.557-21.333,21.333-21.333
			S320,350.891,320,362.667S310.443,384,298.667,384z M384,384c-11.776,0-21.333-9.557-21.333-21.333s9.557-21.333,21.333-21.333
			s21.333,9.557,21.333,21.333S395.776,384,384,384z M434.816,238.827c-0.043,0.021-0.085,0.021-0.128,0.064
			c-3.243,2.411-6.635,4.459-10.091,6.357c-0.96,0.533-1.899,1.088-2.88,1.579c-2.901,1.472-5.867,2.688-8.875,3.797
			c-2.24,0.832-4.544,1.536-6.891,2.155c-2.24,0.619-4.459,1.259-6.741,1.685C394.261,255.36,389.205,256,384,256h-11.52
			c20.352-22.677,32.853-52.523,32.853-85.333s-12.501-62.656-32.853-85.333H384c47.061,0,85.333,38.272,85.333,85.333
			C469.333,198.613,455.637,223.253,434.816,238.827z"/>
	</g>
</g>
<g>
</g>
<g>
</g>
<g>
</g>
<g>
</g>
<g>
</g>
<g>
</g>
<g>
</g>
<g>
</g>
<g>
</g>
<g>
</g>
<g>
</g>
<g>
</g>
<g>
</g>
<g>
</g>
<g>
</g>
</svg>
