<?xml version="1.0" encoding="iso-8859-1"?>
<!-- Generator: Adobe Illustrator 19.0.0, SVG Export Plug-In . SVG Version: 6.00 Build 0)  -->
<svg version="1.1" id="Layer_1" xmlns="http://www.w3.org/2000/svg" xmlns:xlink="http://www.w3.org/1999/xlink" x="0px" y="0px"
	 viewBox="0 0 512 512" style="enable-background:new 0 0 512 512;" xml:space="preserve">
<g>
	<g>
		<path d="M490.667,21.334H21.333C9.557,21.334,0,30.891,0,42.667v192h512v-192C512,30.891,502.464,21.334,490.667,21.334z
			 M85.333,149.333C73.557,149.333,64,139.776,64,128s9.557-21.333,21.333-21.333s21.333,9.557,21.333,21.333
			S97.109,149.333,85.333,149.333z M384,170.667c0,11.776-9.557,21.333-21.333,21.333H149.333C137.557,192,128,182.443,128,170.667
			V85.334C128,73.558,137.557,64,149.333,64h213.333C374.443,64,384,73.558,384,85.334V170.667z M426.667,149.333
			c-11.776,0-21.333-9.557-21.333-21.333s9.557-21.333,21.333-21.333S448,116.224,448,128S438.443,149.333,426.667,149.333z"/>
	</g>
</g>
<g>
	<g>
		<rect x="170.67" y="106.67" width="170.67" height="42.667"/>
	</g>
</g>
<g>
	<g>
		<path d="M0,277.333v192c0,11.776,9.557,21.333,21.333,21.333h469.333c11.797,0,21.333-9.557,21.333-21.333v-192H0z M362.667,320
			c11.776,0,21.333,9.557,21.333,21.333s-9.557,21.333-21.333,21.333s-21.333-9.557-21.333-21.333S350.891,320,362.667,320z
			 M192,405.333h-21.333v21.333c0,11.776-9.557,21.333-21.333,21.333S128,438.443,128,426.667v-21.333h-21.333
			c-11.776,0-21.333-9.557-21.333-21.333s9.557-21.334,21.333-21.334H128v-21.333c0-11.776,9.557-21.333,21.333-21.333
			s21.333,9.557,21.333,21.333v21.333H192c11.776,0,21.333,9.557,21.333,21.333S203.776,405.333,192,405.333z M320,405.333
			c-11.776,0-21.333-9.557-21.333-21.333s9.557-21.333,21.333-21.333s21.333,9.557,21.333,21.333S331.776,405.333,320,405.333z
			 M362.667,448c-11.776,0-21.333-9.557-21.333-21.333s9.557-21.333,21.333-21.333S384,414.891,384,426.667S374.443,448,362.667,448
			z M405.333,405.333C393.557,405.333,384,395.776,384,384s9.557-21.333,21.333-21.333s21.333,9.557,21.333,21.333
			S417.109,405.333,405.333,405.333z"/>
	</g>
</g>
<g>
</g>
<g>
</g>
<g>
</g>
<g>
</g>
<g>
</g>
<g>
</g>
<g>
</g>
<g>
</g>
<g>
</g>
<g>
</g>
<g>
</g>
<g>
</g>
<g>
</g>
<g>
</g>
<g>
</g>
</svg>
