<?xml version="1.0" encoding="iso-8859-1"?>
<!-- Generator: Adobe Illustrator 19.0.0, SVG Export Plug-In . SVG Version: 6.00 Build 0)  -->
<svg version="1.1" id="Layer_1" xmlns="http://www.w3.org/2000/svg" xmlns:xlink="http://www.w3.org/1999/xlink" x="0px" y="0px"
	 viewBox="0 0 511.625 511.625" style="enable-background:new 0 0 511.625 511.625;" xml:space="preserve">
<g>
	<g>
		<path d="M503.253,152.324l-0.853-3.904c-0.256-1.664-0.341-3.285-0.683-4.971c-0.469-2.347-1.344-4.608-1.984-6.933l-0.149-0.683
			h-0.064c-5.077-17.643-14.805-34.261-28.949-48.32c-21.845-21.696-65.003-45.035-108.096-45.035H149.141
			c-43.093,0-86.229,23.339-108.075,45.035c-14.165,14.059-23.872,30.677-28.971,48.32l-0.363,0.021l-0.853,4.245
			c-0.277,1.131-0.747,2.197-0.981,3.349c-0.256,1.323-0.299,2.624-0.512,3.947l-1.024,4.928
			c-0.32,1.643-26.048,180.843,14.379,279.808c4.16,10.176,10.624,19.008,18.624,25.515c9.451,7.68,19.861,11.499,30.293,11.499
			c12.459,0,24.939-5.44,35.883-16.213c26.197-25.856,40.704-96.213,47.701-142.549c11.115,72.789,38.699,116.629,60.117,140.544
			c10.347,11.584,25.088,18.219,40.448,18.219c15.381,0,30.123-6.635,40.469-18.197c21.419-23.936,48.981-67.755,60.117-140.544
			c6.976,46.293,21.483,116.672,47.701,142.528c10.923,10.773,23.424,16.213,35.883,16.213c10.411,0,20.821-3.797,30.272-11.477
			c8.021-6.528,14.464-15.36,18.645-25.557C529.301,333.167,503.595,153.967,503.253,152.324z M117.76,267.14
			c-5.376,53.376-21.397,136.875-40.192,155.413c-5.291,5.205-6.293,4.416-9.28,1.984c-2.496-2.027-4.608-4.992-6.059-8.555
			C41.92,366.233,40.725,287.875,43.626,230.723c1.451,1.109,2.944,2.176,4.459,3.221c13.397,9.152,29.675,14.891,48.405,17.003
			c4.843,0.533,9.365,1.6,13.696,2.923c1.344,0.405,2.603,0.917,3.883,1.408c1.621,0.597,3.093,1.387,4.651,2.112L117.76,267.14z
			 M255.808,298.479c-11.776,0-21.333-9.557-21.333-21.333s9.557-21.333,21.333-21.333c11.797,0,21.333,9.557,21.333,21.333
			S267.605,298.479,255.808,298.479z M255.808,191.812h-21.333v21.333c0,11.776-9.536,21.333-21.333,21.333
			c-11.776,0-21.333-9.557-21.333-21.333v-21.333h-21.333c-11.776,0-21.333-9.557-21.333-21.333s9.557-21.333,21.333-21.333h21.333
			v-21.333c0-11.776,9.557-21.333,21.333-21.333c11.797,0,21.333,9.557,21.333,21.333v21.333h21.333
			c11.797,0,21.333,9.557,21.333,21.333S267.605,191.812,255.808,191.812z M319.808,149.146c-11.776,0-21.333-9.557-21.333-21.333
			s9.557-21.333,21.333-21.333c11.797,0,21.333,9.557,21.333,21.333S331.605,149.146,319.808,149.146z M362.475,213.146
			c-11.776,0-21.333-9.557-21.333-21.333s9.557-21.333,21.333-21.333c11.797,0,21.333,9.557,21.333,21.333
			S374.272,213.146,362.475,213.146z M449.408,415.962c-1.472,3.584-3.563,6.549-6.08,8.597c-2.965,2.411-3.989,3.221-9.28-2.005
			c-18.752-18.496-34.795-102.016-40.171-155.328l-0.96-9.835c1.536-0.725,3.008-1.515,4.629-2.112
			c1.301-0.491,2.56-1.003,3.904-1.429c4.331-1.301,8.832-2.368,13.696-2.901c18.709-2.112,35.008-7.851,48.405-17.003
			c1.515-1.045,2.987-2.112,4.437-3.221C470.891,287.898,469.696,366.234,449.408,415.962z"/>
	</g>
</g>
<g>
</g>
<g>
</g>
<g>
</g>
<g>
</g>
<g>
</g>
<g>
</g>
<g>
</g>
<g>
</g>
<g>
</g>
<g>
</g>
<g>
</g>
<g>
</g>
<g>
</g>
<g>
</g>
<g>
</g>
</svg>
