<?xml version="1.0" encoding="iso-8859-1"?>
<!-- Generator: Adobe Illustrator 19.0.0, SVG Export Plug-In . SVG Version: 6.00 Build 0)  -->
<svg version="1.1" id="Layer_1" xmlns="http://www.w3.org/2000/svg" xmlns:xlink="http://www.w3.org/1999/xlink" x="0px" y="0px"
	 viewBox="0 0 512 512" style="enable-background:new 0 0 512 512;" xml:space="preserve">
<g>
	<g>
		<path d="M442.182,195.491V83.782C442.182,37.585,404.596,0,358.4,0H153.6c-46.196,0-83.782,37.585-83.782,83.782v111.709
			c0,23.831,10.124,45.242,26.135,60.509c-16.012,15.267-26.135,36.678-26.135,60.509v111.709c0,46.196,37.585,83.782,83.782,83.782
			h204.8c46.196,0,83.782-37.585,83.782-83.782V316.509c0-23.831-10.124-45.242-26.135-60.509
			C432.058,240.733,442.182,219.322,442.182,195.491z M169.728,99.91l23.273-23.273c9.1-9.1,23.808-9.1,32.908,0
			c9.1,9.1,9.1,23.808,0,32.908l-23.273,23.273c-4.538,4.538-10.496,6.819-16.454,6.819s-11.916-2.281-16.454-6.819
			C160.628,123.718,160.628,109.009,169.728,99.91z M256,395.636h-23.273v23.273c0,12.847-10.403,23.273-23.273,23.273
			s-23.273-10.426-23.273-23.273v-23.273h-23.273c-12.87,0-23.273-10.426-23.273-23.273c0-12.847,10.403-23.273,23.273-23.273
			h23.273v-23.273c0-12.847,10.403-23.273,23.273-23.273s23.273,10.426,23.273,23.273v23.273H256
			c12.87,0,23.273,10.426,23.273,23.273C279.273,385.21,268.87,395.636,256,395.636z M225.908,202.636
			c-4.538,4.538-10.496,6.819-16.454,6.819c-5.958,0-11.916-2.281-16.454-6.819c-9.1-9.1-9.1-23.808,0-32.908l69.818-69.818
			c9.1-9.1,23.808-9.1,32.908,0c9.1,9.1,9.1,23.808,0,32.908L225.908,202.636z M325.818,442.182
			c-12.847,0-23.273-10.426-23.273-23.273c0-12.847,10.426-23.273,23.273-23.273c12.847,0,23.273,10.426,23.273,23.273
			C349.091,431.756,338.665,442.182,325.818,442.182z M325.818,349.091c-12.847,0-23.273-10.426-23.273-23.273
			c0-12.847,10.426-23.273,23.273-23.273c12.847,0,23.273,10.426,23.273,23.273C349.091,338.665,338.665,349.091,325.818,349.091z"
			/>
	</g>
</g>
<g>
</g>
<g>
</g>
<g>
</g>
<g>
</g>
<g>
</g>
<g>
</g>
<g>
</g>
<g>
</g>
<g>
</g>
<g>
</g>
<g>
</g>
<g>
</g>
<g>
</g>
<g>
</g>
<g>
</g>
</svg>
