<?xml version="1.0" encoding="iso-8859-1"?>
<!-- Generator: Adobe Illustrator 19.0.0, SVG Export Plug-In . SVG Version: 6.00 Build 0)  -->
<svg version="1.1" id="Layer_1" xmlns="http://www.w3.org/2000/svg" xmlns:xlink="http://www.w3.org/1999/xlink" x="0px" y="0px"
	 viewBox="0 0 512 512" style="enable-background:new 0 0 512 512;" xml:space="preserve">
<g>
	<g>
		<path d="M512,244.331C512,180.181,458.944,128,393.728,128c-26.837,0-51.541,8.939-71.424,23.808h-44.971V64
			c0-11.755,9.557-21.333,21.333-21.333S320,52.245,320,64v21.333c0,11.776,9.536,21.333,21.333,21.333s21.333-9.557,21.333-21.333
			V64c0-35.285-28.715-64-64-64c-35.285,0-64,28.715-64,64v87.808H188.97c-19.755-14.549-44.181-23.275-70.699-23.275
			C53.056,128.533,0,180.715,0,244.864c0,20.715,5.611,40.171,15.317,57.045L5.995,435.435C5.995,477.653,40.853,512,83.691,512
			c34.517,0,64.405-21.867,74.176-53.867l15.467-45.909c10.987,8.896,24.789,14.443,40,14.443c16.448,0,31.317-6.421,42.667-16.64
			c11.349,10.219,26.219,16.64,42.667,16.64c15.68,0,29.867-5.888,41.024-15.275l15.531,46.165
			c9.961,32.576,39.87,54.443,74.388,54.443c42.837,0,77.696-34.347,77.632-78.059l-9.429-134.443
			C506.859,283.072,512,264.277,512,244.331z M213.333,384C201.557,384,192,374.421,192,362.667
			c0-11.754,9.557-21.333,21.333-21.333s21.333,9.579,21.333,21.333C234.666,374.421,225.109,384,213.333,384z M256,315.307
			c-8.469-7.638-18.837-13.142-30.464-15.403c9.28-16.768,14.421-35.605,14.421-55.04c0-17.664-4.075-34.837-11.712-50.389h58.368
			c-7.637,15.552-11.712,32.725-11.712,50.389c0,19.477,5.035,38.144,14.123,54.784C276.416,301.568,265.067,307.136,256,315.307z
			 M298.667,384c-11.776,0-21.333-9.579-21.333-21.333c0-11.754,9.557-21.333,21.333-21.333S320,350.912,320,362.667
			S310.443,384,298.667,384z"/>
	</g>
</g>
<g>
</g>
<g>
</g>
<g>
</g>
<g>
</g>
<g>
</g>
<g>
</g>
<g>
</g>
<g>
</g>
<g>
</g>
<g>
</g>
<g>
</g>
<g>
</g>
<g>
</g>
<g>
</g>
<g>
</g>
</svg>
