<?xml version="1.0" encoding="iso-8859-1"?>
<!-- Generator: Adobe Illustrator 19.0.0, SVG Export Plug-In . SVG Version: 6.00 Build 0)  -->
<svg version="1.1" id="Layer_1" xmlns="http://www.w3.org/2000/svg" xmlns:xlink="http://www.w3.org/1999/xlink" x="0px" y="0px"
	 viewBox="0 0 475.889 475.889" style="enable-background:new 0 0 475.889 475.889;" xml:space="preserve">
<g transform="translate(0 -1)">
	<g>
		<g>
			<path d="M159.177,396.488h157.538V81.412H159.177V396.488z M291.253,165.951c7.7,7.7,7.7,20.145,0,27.845l-59.077,59.077
				c-3.84,3.84-8.881,5.77-13.922,5.77s-10.082-1.93-13.922-5.77c-7.7-7.7-7.7-20.145,0-27.845l59.077-59.077
				C271.108,158.251,283.554,158.251,291.253,165.951z M184.639,165.951l19.692-19.692c7.7-7.7,20.145-7.7,27.845,0
				c7.7,7.7,7.7,20.145,0,27.845l-19.692,19.692c-3.84,3.84-8.881,5.77-13.922,5.77c-5.041,0-10.082-1.93-13.922-5.77
				C176.939,186.096,176.939,173.65,184.639,165.951z"/>
			<path d="M17.885,124.065c-23.847,75.185-23.847,154.585,0,229.77c4.411,24.438,26.014,42.654,50.983,42.654h50.924V81.412H68.868
				C43.898,81.412,22.296,99.627,17.885,124.065z"/>
			<path d="M458.004,124.055c-4.411-24.438-25.994-42.654-50.983-42.654h-50.924v315.077h50.924
				c24.99,0,46.572-18.196,50.983-42.634C481.851,278.64,481.851,199.26,458.004,124.055z"/>
		</g>
	</g>
</g>
<g>
</g>
<g>
</g>
<g>
</g>
<g>
</g>
<g>
</g>
<g>
</g>
<g>
</g>
<g>
</g>
<g>
</g>
<g>
</g>
<g>
</g>
<g>
</g>
<g>
</g>
<g>
</g>
<g>
</g>
</svg>
