<?xml version="1.0" encoding="iso-8859-1"?>
<!-- Generator: Adobe Illustrator 19.0.0, SVG Export Plug-In . SVG Version: 6.00 Build 0)  -->
<svg version="1.1" id="Layer_1" xmlns="http://www.w3.org/2000/svg" xmlns:xlink="http://www.w3.org/1999/xlink" x="0px" y="0px"
	 viewBox="0 0 512.002 512.002" style="enable-background:new 0 0 512.002 512.002;" xml:space="preserve">
<g>
	<g>
		<path d="M192,448.002c-39.659,0-72.768-27.307-82.304-64h39.637c11.797,0,21.333-9.557,21.333-21.333V21.335
			c0-11.776-9.536-21.333-21.333-21.333h-128C9.536,0.002,0,9.559,0,21.335v341.333c0,11.776,9.536,21.333,21.333,21.333H65.92
			C76.139,444.439,128.704,490.669,192,490.669c11.797,0,21.333-9.557,21.333-21.333S203.797,448.002,192,448.002z M85.333,298.669
			c-11.776,0-21.333-9.558-21.333-21.334c0-11.776,9.557-21.333,21.333-21.333s21.333,9.557,21.333,21.333
			S97.109,298.669,85.333,298.669z M85.333,213.335c-11.776,0-21.333-9.557-21.333-21.333c0-11.776,9.557-21.333,21.333-21.333
			s21.333,9.557,21.333,21.333S97.109,213.335,85.333,213.335z M85.333,128.002c-11.776,0-21.333-9.557-21.333-21.333
			s9.557-21.333,21.333-21.333s21.333,9.557,21.333,21.333S97.109,128.002,85.333,128.002z"/>
	</g>
</g>
<g>
	<g>
		<path d="M277.333,0.001C265.536,0.002,256,9.559,256,21.335v469.333c0,11.776,9.536,21.333,21.333,21.333h64v-512H277.333z"/>
	</g>
</g>
<g>
	<g>
		<path d="M494.167,21.628L384.002,3.26v508.736h106.667c11.797,0,21.333-9.536,21.333-21.333v-448
			C512.002,32.252,504.45,23.334,494.167,21.628z"/>
	</g>
</g>
<g>
</g>
<g>
</g>
<g>
</g>
<g>
</g>
<g>
</g>
<g>
</g>
<g>
</g>
<g>
</g>
<g>
</g>
<g>
</g>
<g>
</g>
<g>
</g>
<g>
</g>
<g>
</g>
<g>
</g>
</svg>
