<?xml version="1.0" encoding="iso-8859-1"?>
<!-- Generator: Adobe Illustrator 19.0.0, SVG Export Plug-In . SVG Version: 6.00 Build 0)  -->
<svg version="1.1" id="Layer_1" xmlns="http://www.w3.org/2000/svg" xmlns:xlink="http://www.w3.org/1999/xlink" x="0px" y="0px"
	 viewBox="0 0 512.01 512.01" style="enable-background:new 0 0 512.01 512.01;" xml:space="preserve">
<g>
	<g>
		<path d="M256.006,106.675c-47.061,0-85.333,28.715-85.333,64c0,35.285,38.272,64,85.333,64c47.061,0,85.333-28.715,85.333-64
			C341.339,135.39,303.068,106.675,256.006,106.675z"/>
	</g>
</g>
<g>
	<g>
		<path d="M407.477,0H104.522C86.004,0,68.832,5.269,53.728,13.76l124.309,72.512C199.647,72.363,226.655,64,256.011,64
			c29.355,0,56.341,8.363,77.973,22.272L458.293,13.76C443.168,5.269,426.016,0,407.477,0z"/>
	</g>
</g>
<g>
	<g>
		<rect x="128.001" y="426.68" width="256" height="85.33"/>
	</g>
</g>
<g>
	<g>
		<path d="M491.952,43.511l-125.653,73.301c11.179,15.829,17.707,34.197,17.707,53.867c0,58.816-57.408,106.667-128,106.667
			s-128-47.851-128-106.667c0-19.669,6.528-38.037,17.707-53.867L20.059,43.511C7.579,60.727,0.006,81.698,0.006,104.546v132.267
			V407.48c0,51.051,36.864,93.525,85.333,102.592V405.346c0-11.776,9.536-21.333,21.333-21.333h298.667
			c11.797,0,21.333,9.557,21.333,21.333v104.725c48.469-9.067,85.333-51.541,85.333-102.592V236.813V104.546
			C512.005,81.698,504.433,60.727,491.952,43.511z"/>
	</g>
</g>
<g>
</g>
<g>
</g>
<g>
</g>
<g>
</g>
<g>
</g>
<g>
</g>
<g>
</g>
<g>
</g>
<g>
</g>
<g>
</g>
<g>
</g>
<g>
</g>
<g>
</g>
<g>
</g>
<g>
</g>
</svg>
