<?xml version="1.0" encoding="iso-8859-1"?>
<!-- Generator: Adobe Illustrator 19.0.0, SVG Export Plug-In . SVG Version: 6.00 Build 0)  -->
<svg version="1.1" id="Layer_1" xmlns="http://www.w3.org/2000/svg" xmlns:xlink="http://www.w3.org/1999/xlink" x="0px" y="0px"
	 viewBox="0 0 512 512" style="enable-background:new 0 0 512 512;" xml:space="preserve">
<g>
	<g>
		<path d="M490.667,311.424v-76.757C490.667,105.259,385.387,0,256,0S21.333,105.259,21.333,234.667v76.757
			C8.427,321.835,0,337.579,0,355.392v99.861C0,486.528,25.451,512,56.747,512h28.587h85.333c11.776,0,21.333-9.557,21.333-21.333
			V320c0-11.797-9.557-21.333-21.333-21.333h-21.333v-64C149.333,175.851,197.184,128,256,128s106.667,47.851,106.667,106.667v64
			h-21.333C329.557,298.667,320,308.203,320,320v170.667c0,11.776,9.557,21.333,21.333,21.333h85.333h28.587
			C486.549,512,512,486.528,512,455.253v-99.861C512,337.579,503.573,321.835,490.667,311.424z M64,469.333h-7.253
			c-7.765,0-14.08-6.315-14.08-14.08v-99.861c0-7.744,6.315-14.059,14.08-14.059H64V469.333z M469.333,455.253
			c0,7.765-6.315,14.08-14.08,14.08H448v-128h7.253c7.765,0,14.08,6.315,14.08,14.059V455.253z"/>
	</g>
</g>
<g>
</g>
<g>
</g>
<g>
</g>
<g>
</g>
<g>
</g>
<g>
</g>
<g>
</g>
<g>
</g>
<g>
</g>
<g>
</g>
<g>
</g>
<g>
</g>
<g>
</g>
<g>
</g>
<g>
</g>
</svg>
