<?xml version="1.0" encoding="iso-8859-1"?>
<!-- Generator: Adobe Illustrator 19.0.0, SVG Export Plug-In . SVG Version: 6.00 Build 0)  -->
<svg version="1.1" id="Layer_1" xmlns="http://www.w3.org/2000/svg" xmlns:xlink="http://www.w3.org/1999/xlink" x="0px" y="0px"
	 viewBox="0 0 512 512" style="enable-background:new 0 0 512 512;" xml:space="preserve">
<g>
	<g>
		<path d="M384,362.667c-11.776,0-21.333,9.579-21.333,21.333c0,11.755,9.557,21.333,21.333,21.333s21.333-9.579,21.333-21.333
			C405.333,372.245,395.776,362.667,384,362.667z"/>
	</g>
</g>
<g>
	<g>
		<rect x="106.67" y="106.67" width="298.67" height="149.33"/>
	</g>
</g>
<g>
	<g>
		<path d="M449.408,0H62.592C28.075,0,0,28.075,0,62.592v386.816C0,483.925,28.075,512,62.592,512h386.816
			C483.925,512,512,483.925,512,449.408V62.592C512,28.075,483.925,0,449.408,0z M128,448c-35.285,0-64-28.715-64-64
			c0-35.285,28.715-64,64-64c35.285,0,64,28.715,64,64C192,419.285,163.285,448,128,448z M277.333,405.333h-42.667
			c-11.797,0-21.333-9.557-21.333-21.333s9.536-21.333,21.333-21.333h42.667c11.797,0,21.333,9.557,21.333,21.333
			S289.131,405.333,277.333,405.333z M384,448c-35.285,0-64-28.715-64-64c0-35.285,28.715-64,64-64c35.285,0,64,28.715,64,64
			C448,419.285,419.285,448,384,448z M448,277.333c0,11.776-9.536,21.333-21.333,21.333H85.333
			c-11.797,0-21.333-9.557-21.333-21.333v-192C64,73.557,73.536,64,85.333,64h341.333C438.464,64,448,73.557,448,85.333V277.333z"/>
	</g>
</g>
<g>
	<g>
		<path d="M128,362.667c-11.776,0-21.333,9.579-21.333,21.333c0,11.755,9.557,21.333,21.333,21.333s21.333-9.579,21.333-21.333
			C149.333,372.245,139.776,362.667,128,362.667z"/>
	</g>
</g>
<g>
</g>
<g>
</g>
<g>
</g>
<g>
</g>
<g>
</g>
<g>
</g>
<g>
</g>
<g>
</g>
<g>
</g>
<g>
</g>
<g>
</g>
<g>
</g>
<g>
</g>
<g>
</g>
<g>
</g>
</svg>
