<?xml version="1.0" encoding="iso-8859-1"?>
<!-- Generator: Adobe Illustrator 19.0.0, SVG Export Plug-In . SVG Version: 6.00 Build 0)  -->
<svg version="1.1" id="Layer_1" xmlns="http://www.w3.org/2000/svg" xmlns:xlink="http://www.w3.org/1999/xlink" x="0px" y="0px"
	 viewBox="0 0 512 512" style="enable-background:new 0 0 512 512;" xml:space="preserve">
<g>
	<g>
		<path d="M0,234.667v64C0,310.443,9.557,320,21.333,320h213.333v22.571C173.419,349.163,128,383.68,128,426.667
			C128,474.517,184.235,512,256,512s128-37.483,128-85.333c0-42.987-45.419-77.504-106.667-84.096V320h213.333
			c11.776,0,21.333-9.557,21.333-21.333v-64H0z M341.333,426.667c0,20.139-36.48,42.667-85.333,42.667
			c-48.853,0-85.333-22.528-85.333-42.667c0-17.067,26.304-35.691,64-41.024v19.691c0,11.775,9.557,21.333,21.333,21.333
			s21.333-9.557,21.333-21.333v-19.691C315.029,390.976,341.333,409.6,341.333,426.667z"/>
	</g>
</g>
<g>
	<g>
		<path d="M490.667,0H21.333C9.557,0,0,9.557,0,21.333V192h512V21.333C512,9.557,502.443,0,490.667,0z"/>
	</g>
</g>
<g>
</g>
<g>
</g>
<g>
</g>
<g>
</g>
<g>
</g>
<g>
</g>
<g>
</g>
<g>
</g>
<g>
</g>
<g>
</g>
<g>
</g>
<g>
</g>
<g>
</g>
<g>
</g>
<g>
</g>
</svg>
