<?xml version="1.0" encoding="iso-8859-1"?>
<!-- Generator: Adobe Illustrator 19.0.0, SVG Export Plug-In . SVG Version: 6.00 Build 0)  -->
<svg version="1.1" id="Layer_1" xmlns="http://www.w3.org/2000/svg" xmlns:xlink="http://www.w3.org/1999/xlink" x="0px" y="0px"
	 viewBox="0 0 512 512" style="enable-background:new 0 0 512 512;" xml:space="preserve">
<g>
	<g>
		<rect x="170.67" y="85.33" width="170.67" height="277.33"/>
	</g>
</g>
<g>
	<g>
		<path d="M393.557,0H118.421C88.427,0,64,24.427,64,54.421v403.157C64,487.573,88.427,512,118.443,512h275.115
			C423.573,512,448,487.573,448,457.579V54.421C448,24.427,423.573,0,393.557,0z M384,384c0,11.776-9.536,21.333-21.333,21.333
			h-46.592c2.389,6.699,3.925,13.824,3.925,21.333c0,35.285-28.715,64-64,64c-35.285,0-64-28.715-64-64
			c0-7.509,1.536-14.635,3.925-21.333h-46.592C137.536,405.333,128,395.776,128,384V64c0-11.776,9.536-21.333,21.333-21.333h213.333
			C374.464,42.667,384,52.224,384,64V384z"/>
	</g>
</g>
<g>
	<g>
		<path d="M256,405.333c-11.776,0-21.333,9.579-21.333,21.333C234.667,438.42,244.224,448,256,448s21.333-9.579,21.333-21.333
			C277.333,414.913,267.776,405.333,256,405.333z"/>
	</g>
</g>
<g>
</g>
<g>
</g>
<g>
</g>
<g>
</g>
<g>
</g>
<g>
</g>
<g>
</g>
<g>
</g>
<g>
</g>
<g>
</g>
<g>
</g>
<g>
</g>
<g>
</g>
<g>
</g>
<g>
</g>
</svg>
