<?xml version="1.0" encoding="iso-8859-1"?>
<!-- Generator: Adobe Illustrator 19.0.0, SVG Export Plug-In . SVG Version: 6.00 Build 0)  -->
<svg version="1.1" id="Layer_1" xmlns="http://www.w3.org/2000/svg" xmlns:xlink="http://www.w3.org/1999/xlink" x="0px" y="0px"
	 viewBox="0 0 512 512" style="enable-background:new 0 0 512 512;" xml:space="preserve">
<g>
	<g>
		<rect x="128" y="64" width="234.67" height="384"/>
	</g>
</g>
<g>
	<g>
		<path d="M21.333,64C9.536,64,0,73.557,0,85.333v341.333C0,438.443,9.536,448,21.333,448h64V64H21.333z"/>
	</g>
</g>
<g>
	<g>
		<path d="M490.667,64h-85.333v131.925c6.699-2.389,13.824-3.925,21.333-3.925c35.285,0,64,28.715,64,64c0,35.285-28.715,64-64,64
			c-7.509,0-14.635-1.536-21.333-3.925V448h85.333c11.797,0,21.333-9.557,21.333-21.333V85.333C512,73.557,502.464,64,490.667,64z"
			/>
	</g>
</g>
<g>
	<g>
		<path d="M426.667,234.667c-11.776,0-21.333,9.579-21.333,21.333s9.557,21.333,21.333,21.333S448,267.755,448,256
			S438.443,234.667,426.667,234.667z"/>
	</g>
</g>
<g>
</g>
<g>
</g>
<g>
</g>
<g>
</g>
<g>
</g>
<g>
</g>
<g>
</g>
<g>
</g>
<g>
</g>
<g>
</g>
<g>
</g>
<g>
</g>
<g>
</g>
<g>
</g>
<g>
</g>
</svg>
