<?xml version="1.0" encoding="iso-8859-1"?>
<!-- Generator: Adobe Illustrator 19.0.0, SVG Export Plug-In . SVG Version: 6.00 Build 0)  -->
<svg version="1.1" id="Layer_1" xmlns="http://www.w3.org/2000/svg" xmlns:xlink="http://www.w3.org/1999/xlink" x="0px" y="0px"
	 viewBox="0 0 512 512" style="enable-background:new 0 0 512 512;" xml:space="preserve">
<g>
	<g>
		<path d="M456.619,85.334h-51.285v-37.91C405.333,21.269,384.064,0,357.909,0h-203.84c-26.133,0-47.403,21.269-47.403,47.424
			v37.909H55.36C24.832,85.333,0,110.187,0,140.715v29.952h106.667v42.667H0V384h106.667v42.667H0v29.952
			C0,487.147,24.832,512,55.36,512H128c3.755,0,7.104-1.237,10.176-2.944c4.992,1.792,10.304,2.944,15.893,2.944h203.84
			c5.611,0,10.901-1.152,15.893-2.944C376.875,510.763,380.224,512,384,512h72.619C487.168,512,512,487.147,512,456.619v-29.952
			H405.333V384H512V213.333H405.333v-42.667H512v-29.951C512,110.187,487.168,85.334,456.619,85.334z M149.333,47.424
			c0-2.624,2.112-4.757,4.736-4.757h203.84c2.624,0,4.757,2.133,4.757,4.757v37.909H149.333V47.424z M195.925,469.333h-41.856
			c-2.624,0-4.736-2.133-4.736-4.757v-37.909h46.592C193.536,433.365,192,440.491,192,448
			C192,455.509,193.536,462.635,195.925,469.333z M256,469.333c-11.776,0-21.333-9.579-21.333-21.333
			c0-11.755,9.557-21.333,21.333-21.333c11.755,0,21.333,9.579,21.333,21.333C277.333,459.755,267.755,469.333,256,469.333z
			 M357.91,469.333h-41.856C318.443,462.635,320,455.509,320,448c0-7.509-1.557-14.635-3.947-21.333h46.613v37.909h0.001
			C362.667,467.2,360.534,469.333,357.91,469.333z M362.667,384H149.333V192v-64h213.333v64h0.001V384z"/>
	</g>
</g>
<g>
</g>
<g>
</g>
<g>
</g>
<g>
</g>
<g>
</g>
<g>
</g>
<g>
</g>
<g>
</g>
<g>
</g>
<g>
</g>
<g>
</g>
<g>
</g>
<g>
</g>
<g>
</g>
<g>
</g>
</svg>
