<?xml version="1.0" encoding="iso-8859-1"?>
<!-- Generator: Adobe Illustrator 19.0.0, SVG Export Plug-In . SVG Version: 6.00 Build 0)  -->
<svg version="1.1" id="Layer_1" xmlns="http://www.w3.org/2000/svg" xmlns:xlink="http://www.w3.org/1999/xlink" x="0px" y="0px"
	 viewBox="0 0 512 512" style="enable-background:new 0 0 512 512;" xml:space="preserve">
<g>
	<g>
		<path d="M362.7,0H149.3c-23.5,0-42.7,19.1-42.7,42.7V64h298.7V42.7C405.3,19.1,386.2,0,362.7,0z"/>
	</g>
</g>
<g>
	<g>
		<path d="M106.7,106.7v234.6h298.7V106.7H106.7z M234.7,298.7H192V256h42.7V298.7z M320,298.7h-42.7V256H320V298.7z"/>
	</g>
</g>
<g>
	<g>
		<path d="M106.7,384v85.3c0,23.5,19.1,42.7,42.7,42.7h213.3c23.5,0,42.7-19.1,42.7-42.7V384H106.7z M256,469.3
			c-11.7,0-21.3-9.6-21.3-21.3c0-11.7,9.5-21.3,21.3-21.3s21.3,9.6,21.3,21.3S267.7,469.3,256,469.3z"/>
	</g>
</g>
<g>
</g>
<g>
</g>
<g>
</g>
<g>
</g>
<g>
</g>
<g>
</g>
<g>
</g>
<g>
</g>
<g>
</g>
<g>
</g>
<g>
</g>
<g>
</g>
<g>
</g>
<g>
</g>
<g>
</g>
</svg>
