<?xml version="1.0" encoding="iso-8859-1"?>
<!-- Generator: Adobe Illustrator 19.0.0, SVG Export Plug-In . SVG Version: 6.00 Build 0)  -->
<svg version="1.1" id="Layer_1" xmlns="http://www.w3.org/2000/svg" xmlns:xlink="http://www.w3.org/1999/xlink" x="0px" y="0px"
	 viewBox="0 0 511.999 511.999" style="enable-background:new 0 0 511.999 511.999;" xml:space="preserve">
<g>
	<g>
		<path d="M159.871,295.893c-6.571,13.845-10.539,29.141-10.539,45.44s3.968,31.595,10.539,45.44l60.587-45.44L159.871,295.893z"/>
	</g>
</g>
<g>
	<g>
		<path d="M352.127,295.893l-60.587,45.44l60.587,45.44c6.571-13.845,10.539-29.141,10.539-45.44S358.699,309.738,352.127,295.893z"
			/>
	</g>
</g>
<g>
	<g>
		<path d="M255.999,234.677c-27.093,0-51.605,10.475-70.421,27.179l70.421,52.821l70.421-52.821
			C307.604,245.152,283.092,234.677,255.999,234.677z"/>
	</g>
</g>
<g>
	<g>
		<path d="M255.999,367.989l-70.421,52.822c18.816,16.704,43.328,27.179,70.421,27.179s51.605-10.475,70.421-27.179L255.999,367.989
			z"/>
	</g>
</g>
<g>
	<g>
		<path d="M414.848,0H97.151C67.114,0,42.666,24.448,42.666,54.485v403.029c0,30.037,24.448,54.485,54.485,54.485h317.696
			c30.037,0,54.485-24.448,54.485-54.485V54.485C469.332,24.448,444.884,0,414.848,0z M256.001,490.666
			c-82.325,0-149.334-66.986-149.334-149.333c0-41.771,17.28-79.531,45.035-106.667h-23.702c-11.797,0-21.333-9.557-21.333-21.333
			V64c0-11.776,9.536-21.333,21.333-21.333h256c11.797,0,21.333,9.557,21.333,21.333v149.333c0,11.776-9.536,21.333-21.333,21.333
			h-23.701c27.755,27.136,45.035,64.896,45.035,106.667C405.334,423.68,338.326,490.666,256.001,490.666z"/>
	</g>
</g>
<g>
	<g>
		<rect x="149.329" y="85.33" width="213.33" height="106.67"/>
	</g>
</g>
<g>
</g>
<g>
</g>
<g>
</g>
<g>
</g>
<g>
</g>
<g>
</g>
<g>
</g>
<g>
</g>
<g>
</g>
<g>
</g>
<g>
</g>
<g>
</g>
<g>
</g>
<g>
</g>
<g>
</g>
</svg>
