<?xml version="1.0" encoding="iso-8859-1"?>
<!-- Generator: Adobe Illustrator 19.0.0, SVG Export Plug-In . SVG Version: 6.00 Build 0)  -->
<svg version="1.1" id="Layer_1" xmlns="http://www.w3.org/2000/svg" xmlns:xlink="http://www.w3.org/1999/xlink" x="0px" y="0px"
	 viewBox="0 0 512 512" style="enable-background:new 0 0 512 512;" xml:space="preserve">
<g>
	<g>
		<rect x="170.67" y="106.67" width="170.67" height="106.67"/>
	</g>
</g>
<g>
	<g>
		<path d="M256,320c-23.531,0-42.667,19.136-42.667,42.667s19.136,42.667,42.667,42.667s42.667-19.136,42.667-42.667
			S279.531,320,256,320z"/>
	</g>
</g>
<g>
	<g>
		<path d="M393.515,0h-275.03C88.448,0,64,24.448,64,54.485v403.029C64,487.552,88.448,512,118.485,512h275.029
			C423.552,512,448,487.552,448,457.515V54.485C448,24.448,423.552,0,393.515,0z M256,448c-47.061,0-85.333-38.272-85.333-85.333
			c0-47.061,38.272-85.333,85.333-85.333c47.061,0,85.333,38.272,85.333,85.333C341.333,409.728,303.061,448,256,448z M384,234.667
			c0,11.776-9.536,21.333-21.333,21.333H149.333C137.536,256,128,246.443,128,234.667V85.333C128,73.557,137.536,64,149.333,64
			h213.333C374.464,64,384,73.557,384,85.333V234.667z"/>
	</g>
</g>
<g>
</g>
<g>
</g>
<g>
</g>
<g>
</g>
<g>
</g>
<g>
</g>
<g>
</g>
<g>
</g>
<g>
</g>
<g>
</g>
<g>
</g>
<g>
</g>
<g>
</g>
<g>
</g>
<g>
</g>
</svg>
