<?xml version="1.0" encoding="iso-8859-1"?>
<!-- Generator: Adobe Illustrator 19.0.0, SVG Export Plug-In . SVG Version: 6.00 Build 0)  -->
<svg version="1.1" id="Layer_1" xmlns="http://www.w3.org/2000/svg" xmlns:xlink="http://www.w3.org/1999/xlink" x="0px" y="0px"
	 viewBox="0 0 512 512" style="enable-background:new 0 0 512 512;" xml:space="preserve">
<g>
	<g>
		<path d="M490.667,384H467.18c-8.512-41.728-41.451-74.667-83.179-83.179v-23.488c0-11.776-9.536-21.333-21.333-21.333
			s-21.333,9.557-21.333,21.333v21.333h-42.667v-21.333c0-11.776-9.536-21.333-21.333-21.333C265.536,256,256,265.557,256,277.333
			v21.333h-64v-87.488c48.619-9.92,85.333-53.013,85.333-104.512C277.333,47.851,229.484,0,170.667,0
			C111.852,0,64,47.851,64,106.667c0,51.499,36.715,94.592,85.333,104.512v87.488c-51.499,0-94.592,36.715-104.512,85.333H21.333
			C9.536,384,0,393.557,0,405.333v85.333C0,502.443,9.536,512,21.333,512h469.333c11.797,0,21.333-9.557,21.333-21.333v-85.333
			C512,393.557,502.464,384,490.667,384z M88.982,384c8.811-24.832,32.533-42.667,60.352-42.667h213.333
			c27.819,0,51.541,17.835,60.352,42.667H88.982z"/>
	</g>
</g>
<g>
</g>
<g>
</g>
<g>
</g>
<g>
</g>
<g>
</g>
<g>
</g>
<g>
</g>
<g>
</g>
<g>
</g>
<g>
</g>
<g>
</g>
<g>
</g>
<g>
</g>
<g>
</g>
<g>
</g>
</svg>
