<?xml version="1.0" encoding="iso-8859-1"?>
<!-- Generator: Adobe Illustrator 19.0.0, SVG Export Plug-In . SVG Version: 6.00 Build 0)  -->
<svg version="1.1" id="Layer_1" xmlns="http://www.w3.org/2000/svg" xmlns:xlink="http://www.w3.org/1999/xlink" x="0px" y="0px"
	 viewBox="0 0 512 512" style="enable-background:new 0 0 512 512;" xml:space="preserve">
<g>
	<g>
		<path d="M352,405.333h-74.667v-42.667h55.317c28.309,0,51.349-23.04,51.349-51.371V51.349C384,23.04,360.96,0,332.651,0h-55.317
			v85.333c0,11.776-9.536,21.333-21.333,21.333s-21.333-9.557-21.333-21.333V0h-55.317C151.04,0,128,23.04,128,51.349v259.947
			c0,28.331,23.04,51.371,51.349,51.371h55.317v42.667H160c-29.419,0-53.333,23.936-53.333,53.333
			C106.667,488.064,130.581,512,160,512h192c29.419,0,53.333-23.936,53.333-53.333C405.333,429.27,381.419,405.333,352,405.333z
			 M192,192c0-35.285,28.715-64,64-64c35.285,0,64,28.715,64,64c0,35.285-28.715,64-64,64C220.715,256,192,227.285,192,192z"/>
	</g>
</g>
<g>
	<g>
		<path d="M256,170.667c-11.776,0-21.333,9.579-21.333,21.333c0,11.754,9.557,21.333,21.333,21.333s21.333-9.579,21.333-21.333
			S267.776,170.667,256,170.667z"/>
	</g>
</g>
<g>
</g>
<g>
</g>
<g>
</g>
<g>
</g>
<g>
</g>
<g>
</g>
<g>
</g>
<g>
</g>
<g>
</g>
<g>
</g>
<g>
</g>
<g>
</g>
<g>
</g>
<g>
</g>
<g>
</g>
</svg>
