<?xml version="1.0" encoding="iso-8859-1"?>
<!-- Generator: Adobe Illustrator 19.0.0, SVG Export Plug-In . SVG Version: 6.00 Build 0)  -->
<svg version="1.1" id="Layer_1" xmlns="http://www.w3.org/2000/svg" xmlns:xlink="http://www.w3.org/1999/xlink" x="0px" y="0px"
	 viewBox="0 0 512 512" style="enable-background:new 0 0 512 512;" xml:space="preserve">
<g>
	<g>
		<path d="M0,298.65v25.3c0,33.1,27,60.1,60.1,60.1h113c-3.6,6.6-8.2,14.1-13.3,21.3c-29.3,0.1-53.1,24-53.1,53.3
			c0,29.4,23.9,53.3,53.3,53.3h192c29.4,0,53.3-23.9,53.3-53.3c0-29.4-23.8-53.2-53.1-53.3c-5.1-7.3-9.7-14.8-13.4-21.3h113.1
			c33.1,0,60.1-27,60.1-60.1v-25.3H0z M210.2,405.35c3.8-7,7.1-14.2,9.3-21.3h73c2.2,7.1,5.5,14.3,9.3,21.3H210.2z"/>
	</g>
</g>
<g>
	<g>
		<path d="M451.9,0.05H60.1C27,0.05,0,26.95,0,60.15v195.9h512V60.15C512,26.95,485,0.05,451.9,0.05z M149.3,234.75h-42.7v-42.7
			h42.7V234.75z M234.7,234.75H192v-42.7h42.7V234.75z M320,234.75h-42.7v-42.7H320V234.75z M347.4,164.55l-28.9-29.1
			c-3,8.1-10.7,14-19.9,14c-11.8,0-21.3-9.6-21.3-21.3v-42.8c0-2.8,0.6-5.5,1.6-8.1c2.2-5.2,6.3-9.4,11.5-11.5
			c2.6-1.1,5.4-1.6,8.1-1.6h42.7c11.8,0,21.3,9.6,21.3,21.3c0,9.2-5.8,16.8-14,19.8l29.1,29.1c8.3,8.3,8.3,21.8,0,30.2
			c-4.2,4.2-9.6,6.3-15.1,6.3S351.6,168.75,347.4,164.55z M405.3,234.75h-42.7v-42.7h42.7V234.75z"/>
	</g>
</g>
<g>
</g>
<g>
</g>
<g>
</g>
<g>
</g>
<g>
</g>
<g>
</g>
<g>
</g>
<g>
</g>
<g>
</g>
<g>
</g>
<g>
</g>
<g>
</g>
<g>
</g>
<g>
</g>
<g>
</g>
</svg>
