<?xml version="1.0" encoding="iso-8859-1"?>
<!-- Generator: Adobe Illustrator 19.0.0, SVG Export Plug-In . SVG Version: 6.00 Build 0)  -->
<svg version="1.1" id="Layer_1" xmlns="http://www.w3.org/2000/svg" xmlns:xlink="http://www.w3.org/1999/xlink" x="0px" y="0px"
	 viewBox="0 0 512 512" style="enable-background:new 0 0 512 512;" xml:space="preserve">
<g>
	<g>
		<path d="M503.616,4.366c-5.291-4.011-12.139-5.333-18.581-3.627L409.301,21.41c-100.331,27.349-206.357,27.328-306.603,0
			L26.944,0.738c-6.4-1.707-13.291-0.384-18.581,3.627C3.093,8.397,0,14.669,0,21.324v341.333c0,6.635,3.093,12.907,8.363,16.96
			c5.291,4.032,12.181,5.376,18.581,3.627l75.733-20.672c43.243-11.797,87.552-18.176,131.989-19.797v62.549h-64
			c-11.797,0-21.333,9.557-21.333,21.333v64c0,11.776,9.536,21.333,21.333,21.333h170.667c11.776,0,21.333-9.557,21.333-21.333v-64
			c0-11.776-9.557-21.333-21.333-21.333h-64v-62.549c44.437,1.621,88.725,8.021,131.947,19.797l75.755,20.672
			c1.856,0.491,3.755,0.747,5.632,0.747c4.608,0,9.173-1.515,12.949-4.373c5.269-4.053,8.384-10.325,8.384-16.96V21.324
			C512,14.669,508.885,8.397,503.616,4.366z"/>
	</g>
</g>
<g>
</g>
<g>
</g>
<g>
</g>
<g>
</g>
<g>
</g>
<g>
</g>
<g>
</g>
<g>
</g>
<g>
</g>
<g>
</g>
<g>
</g>
<g>
</g>
<g>
</g>
<g>
</g>
<g>
</g>
</svg>
