<?xml version="1.0" encoding="iso-8859-1"?>
<!-- Generator: Adobe Illustrator 19.0.0, SVG Export Plug-In . SVG Version: 6.00 Build 0)  -->
<svg version="1.1" id="Layer_1" xmlns="http://www.w3.org/2000/svg" xmlns:xlink="http://www.w3.org/1999/xlink" x="0px" y="0px"
	 viewBox="0 0 512.011 512.011" style="enable-background:new 0 0 512.011 512.011;" xml:space="preserve">
<g transform="translate(-1 -1)">
	<g>
		<g>
			<path d="M412.208,50.764c2.894-11.865-4.385-23.864-16.25-26.824L306.914,1.679c-6.634-1.647-13.668-0.178-19.078,4.051
				c-5.409,4.207-8.57,10.685-8.57,17.542v133.565h-44.522V23.272c0-6.856-3.161-13.334-8.57-17.542
				c-5.409-4.23-12.488-5.743-19.078-4.051L118.053,23.94c-11.865,2.961-19.144,14.959-16.25,26.824
				c0.2,0.824,19.679,81.742,21.66,129.269c0.178,4.452,0.111,8.949,0.045,13.49l-0.067,7.836c0,36.664-1.224,58.947-7.814,78.915
				c-10.418,31.477-14.536,62.998-12.243,93.696c0.49,6.701,1.158,12.065,1.803,14.848c16.25,71.969,80.095,124.193,151.819,124.193
				c71.747,0,135.591-52.246,151.797-124.149c0.668-2.827,1.336-8.17,1.825-14.915c2.293-30.675-1.825-62.197-12.243-93.651
				c-6.589-19.99-7.814-42.273-7.814-78.937l-0.067-7.836c-0.067-4.541-0.134-9.038,0.045-13.49
				C392.53,132.506,412.008,51.588,412.208,50.764z M257.006,423.968c-36.819,0-66.783-29.963-66.783-66.783
				c0-36.819,29.963-66.783,66.783-66.783c36.82,0,66.783,29.963,66.783,66.783C323.788,394.005,293.825,423.968,257.006,423.968z"
				/>
			<path d="M257.006,334.924c-12.288,0-22.261,9.995-22.261,22.261s9.973,22.261,22.261,22.261c12.288,0,22.261-9.995,22.261-22.261
				C279.266,344.919,269.294,334.924,257.006,334.924z"/>
		</g>
	</g>
</g>
<g>
</g>
<g>
</g>
<g>
</g>
<g>
</g>
<g>
</g>
<g>
</g>
<g>
</g>
<g>
</g>
<g>
</g>
<g>
</g>
<g>
</g>
<g>
</g>
<g>
</g>
<g>
</g>
<g>
</g>
</svg>
