<?xml version="1.0" encoding="iso-8859-1"?>
<!-- Generator: Adobe Illustrator 19.0.0, SVG Export Plug-In . SVG Version: 6.00 Build 0)  -->
<svg version="1.1" id="Layer_1" xmlns="http://www.w3.org/2000/svg" xmlns:xlink="http://www.w3.org/1999/xlink" x="0px" y="0px"
	 viewBox="0 0 512 512" style="enable-background:new 0 0 512 512;" xml:space="preserve">
<g>
	<g>
		<path d="M149.333,170.666H128V256h21.333C172.864,256,192,236.864,192,213.333S172.864,170.666,149.333,170.666z"/>
	</g>
</g>
<g>
	<g>
		<path d="M256,362.667c-11.776,0-21.333,9.579-21.333,21.333c0,11.755,9.557,21.333,21.333,21.333s21.333-9.579,21.333-21.333
			C277.333,372.245,267.776,362.667,256,362.667z"/>
	</g>
</g>
<g>
	<g>
		<path d="M277.333,213.333c0-47.061,38.272-85.333,85.333-85.333H384C384,57.408,326.592,0,256,0S128,57.408,128,128h21.333
			c47.061,0,85.333,38.272,85.333,85.333c0,47.061-38.272,85.333-85.333,85.333H128V384c0,70.592,57.408,128,128,128
			s128-57.408,128-128v-85.333h-21.333C315.605,298.667,277.333,260.395,277.333,213.333z M256,448c-35.285,0-64-28.715-64-64
			c0-35.285,28.715-64,64-64c35.285,0,64,28.715,64,64C320,419.285,291.285,448,256,448z"/>
	</g>
</g>
<g>
	<g>
		<path d="M362.667,170.667c-23.531,0-42.667,19.136-42.667,42.666C320,236.864,339.136,256,362.667,256H384v-85.333H362.667z"/>
	</g>
</g>
<g>
</g>
<g>
</g>
<g>
</g>
<g>
</g>
<g>
</g>
<g>
</g>
<g>
</g>
<g>
</g>
<g>
</g>
<g>
</g>
<g>
</g>
<g>
</g>
<g>
</g>
<g>
</g>
<g>
</g>
</svg>
