<?xml version="1.0" encoding="iso-8859-1"?>
<!-- Generator: Adobe Illustrator 19.0.0, SVG Export Plug-In . SVG Version: 6.00 Build 0)  -->
<svg version="1.1" id="Layer_1" xmlns="http://www.w3.org/2000/svg" xmlns:xlink="http://www.w3.org/1999/xlink" x="0px" y="0px"
	 viewBox="0 0 512 512" style="enable-background:new 0 0 512 512;" xml:space="preserve">
<g>
	<g>
		<path d="M149.333,213.333H128v85.333h21.333C172.864,298.667,192,279.531,192,256S172.864,213.333,149.333,213.333z"/>
	</g>
</g>
<g>
	<g>
		<path d="M362.667,213.334C339.136,213.333,320,232.469,320,256s19.136,42.667,42.667,42.667H384v-85.333H362.667z"/>
	</g>
</g>
<g>
	<g>
		<path d="M362.667,170.667H384V128C384,57.408,326.592,0,256,0S128,57.408,128,128v42.667h21.333
			c47.061,0,85.333,38.272,85.333,85.333c0,47.061-38.272,85.333-85.333,85.333H128V384c0,70.592,57.408,128,128,128
			s128-57.408,128-128v-42.667h-21.333c-47.061,0-85.333-38.272-85.333-85.333C277.334,208.939,315.606,170.667,362.667,170.667z"/>
	</g>
</g>
<g>
</g>
<g>
</g>
<g>
</g>
<g>
</g>
<g>
</g>
<g>
</g>
<g>
</g>
<g>
</g>
<g>
</g>
<g>
</g>
<g>
</g>
<g>
</g>
<g>
</g>
<g>
</g>
<g>
</g>
</svg>
