<?xml version="1.0" encoding="iso-8859-1"?>
<!-- Generator: Adobe Illustrator 19.0.0, SVG Export Plug-In . SVG Version: 6.00 Build 0)  -->
<svg version="1.1" id="Layer_1" xmlns="http://www.w3.org/2000/svg" xmlns:xlink="http://www.w3.org/1999/xlink" x="0px" y="0px"
	 viewBox="0 0 512.006 512.006" style="enable-background:new 0 0 512.006 512.006;" xml:space="preserve">
<g>
	<g>
		<path d="M490.673,320.006V277.34c0-11.776-9.536-21.333-21.333-21.333s-21.333,9.557-21.333,21.333v42.667H405.34V277.34
			c0-11.776-9.536-21.333-21.333-21.333s-21.333,9.557-21.333,21.333v42.667c-11.797,0-21.333,9.557-21.333,21.333v85.333
			c0,11.776,9.536,21.333,21.333,21.333h36.736c-7.403,12.693-21.013,21.333-36.736,21.333H256.006
			c-11.797,0-21.333,9.557-21.333,21.333s9.536,21.333,21.333,21.333h106.667c39.659,0,72.768-27.307,82.304-64h45.696
			c11.797,0,21.333-9.557,21.333-21.333V341.34C512.006,329.564,502.47,320.006,490.673,320.006z"/>
	</g>
</g>
<g>
	<g>
		<path d="M224.113,110.193c-0.768-2.112-2.731-3.52-4.885-3.52h-97.109c-2.155,0-4.117,1.408-4.885,3.52
			c-14.059,38.997-14.059,81.963,0,120.96c0.768,2.112,2.731,3.52,4.885,3.52h97.109c2.155,0,4.117-1.408,4.885-3.52
			C238.172,192.156,238.172,149.19,224.113,110.193z M192.006,192.006H149.34c-11.797,0-21.333-9.557-21.333-21.333
			c0-11.776,9.536-21.333,21.333-21.333h42.667c11.797,0,21.333,9.557,21.333,21.333S203.804,192.006,192.006,192.006z"/>
	</g>
</g>
<g>
	<g>
		<path d="M320,0H21.333C9.557,0,0,9.557,0,21.333V320c0,11.797,9.557,21.333,21.333,21.333H320
			c11.797,0,21.333-9.536,21.333-21.333V21.333C341.333,9.557,331.797,0,320,0z M264.235,245.633
			c-6.827,18.965-24.917,31.701-44.992,31.701h-97.131c-20.096,0-38.165-12.736-44.992-31.701
			c-17.451-48.341-17.451-101.568,0-149.909C83.947,76.737,102.016,64,122.112,64h97.131c20.075,0,38.165,12.736,44.992,31.723
			C281.664,144.064,281.664,197.292,264.235,245.633z"/>
	</g>
</g>
<g>
</g>
<g>
</g>
<g>
</g>
<g>
</g>
<g>
</g>
<g>
</g>
<g>
</g>
<g>
</g>
<g>
</g>
<g>
</g>
<g>
</g>
<g>
</g>
<g>
</g>
<g>
</g>
<g>
</g>
</svg>
