<?xml version="1.0" encoding="iso-8859-1"?>
<!-- Generator: Adobe Illustrator 19.0.0, SVG Export Plug-In . SVG Version: 6.00 Build 0)  -->
<svg version="1.1" id="Layer_1" xmlns="http://www.w3.org/2000/svg" xmlns:xlink="http://www.w3.org/1999/xlink" x="0px" y="0px"
	 viewBox="0 0 512 512" style="enable-background:new 0 0 512 512;" xml:space="preserve">
<g>
	<g>
		<path d="M490.667,277.333v-42.667c0-11.776-9.536-21.333-21.333-21.333s-21.333,9.557-21.333,21.333v42.667h-42.667v-42.667
			c0-11.776-9.536-21.333-21.333-21.333s-21.333,9.557-21.333,21.333v42.667c-11.797,0-21.333,9.557-21.333,21.333V21.333
			C341.333,9.557,331.797,0,320,0H21.333C9.536,0,0,9.557,0,21.333V320c0,11.776,9.536,21.333,21.333,21.333H320
			c11.797,0,21.333-9.557,21.333-21.333v42.667c0,38.293,25.515,70.4,60.331,81.173c-6.635,14.976-21.589,25.493-38.997,25.493H256
			c-11.797,0-21.333,9.557-21.333,21.333S244.203,512,256,512h106.667c40.491,0,74.325-28.416,83.029-66.304
			C483.584,436.992,512,403.157,512,362.667v-64C512,286.891,502.464,277.333,490.667,277.333z M170.667,277.333
			C111.851,277.333,64,229.483,64,170.667S111.851,64,170.667,64c58.816,0,106.667,47.851,106.667,106.667
			C277.333,229.483,229.483,277.333,170.667,277.333z"/>
	</g>
</g>
<g>
	<g>
		<path d="M170.667,106.667c-35.285,0-64,28.715-64,64s28.715,64,64,64c35.285,0,64-28.715,64-64
			C234.667,135.382,205.952,106.667,170.667,106.667z M192,192h-42.667C137.536,192,128,182.443,128,170.667
			s9.536-21.333,21.333-21.333H192c11.797,0,21.333,9.557,21.333,21.333S203.797,192,192,192z"/>
	</g>
</g>
<g>
</g>
<g>
</g>
<g>
</g>
<g>
</g>
<g>
</g>
<g>
</g>
<g>
</g>
<g>
</g>
<g>
</g>
<g>
</g>
<g>
</g>
<g>
</g>
<g>
</g>
<g>
</g>
<g>
</g>
</svg>
