<?xml version="1.0" encoding="iso-8859-1"?>
<!-- Generator: Adobe Illustrator 19.0.0, SVG Export Plug-In . SVG Version: 6.00 Build 0)  -->
<svg version="1.1" id="Layer_1" xmlns="http://www.w3.org/2000/svg" xmlns:xlink="http://www.w3.org/1999/xlink" x="0px" y="0px"
	 viewBox="0 0 512 512" style="enable-background:new 0 0 512 512;" xml:space="preserve">
<g>
	<g>
		<path d="M509.632,169.323c0.277-0.576,0.597-1.088,0.832-1.685c0.896-2.347,1.408-4.779,1.451-7.253
			c0-0.128,0.085-0.235,0.085-0.384V32c0-11.776-9.557-21.333-21.333-21.333H21.333C9.557,10.667,0,20.224,0,32v128
			c0,0.149,0.085,0.256,0.085,0.384c0.043,2.475,0.555,4.907,1.451,7.253c0.235,0.597,0.555,1.109,0.832,1.685
			c0.405,0.832,0.683,1.728,1.216,2.517L38.357,224L3.584,276.16c-0.533,0.789-0.811,1.685-1.216,2.517
			c-0.277,0.576-0.597,1.088-0.832,1.685c-0.896,2.347-1.408,4.779-1.451,7.253C0.085,287.744,0,287.851,0,288v128
			c0,11.776,9.557,21.333,21.333,21.333h21.333V480c0,11.776,9.557,21.333,21.333,21.333h85.333
			c11.776,0,21.333-9.557,21.333-21.333v-42.667h170.667V480c0,11.776,9.557,21.333,21.333,21.333H448
			c11.776,0,21.333-9.557,21.333-21.333v-42.667h21.333c11.776,0,21.333-9.557,21.333-21.333V288c0-0.149-0.085-0.256-0.085-0.384
			c-0.043-2.475-0.555-4.907-1.451-7.253c-0.235-0.597-0.555-1.109-0.832-1.685c-0.405-0.832-0.683-1.728-1.216-2.517L473.643,224
			l34.773-52.16C508.949,171.051,509.227,170.155,509.632,169.323z M192,74.667h213.333c11.776,0,21.333,9.557,21.333,21.333
			s-9.557,21.333-21.333,21.333H192c-11.776,0-21.333-9.557-21.333-21.333S180.224,74.667,192,74.667z M106.667,74.667
			C118.443,74.667,128,84.224,128,96s-9.557,21.333-21.333,21.333S85.333,107.776,85.333,96S94.891,74.667,106.667,74.667z
			 M106.667,373.333c-11.776,0-21.333-9.557-21.333-21.333s9.557-21.333,21.333-21.333S128,340.224,128,352
			S118.443,373.333,106.667,373.333z M405.333,373.333H192c-11.776,0-21.333-9.557-21.333-21.333s9.557-21.333,21.333-21.333
			h213.333c11.776,0,21.333,9.557,21.333,21.333S417.109,373.333,405.333,373.333z M61.205,266.667l14.208-21.333h361.173
			l14.208,21.333H61.205z M436.587,202.667H75.413l-14.208-21.333h389.589L436.587,202.667z"/>
	</g>
</g>
<g>
</g>
<g>
</g>
<g>
</g>
<g>
</g>
<g>
</g>
<g>
</g>
<g>
</g>
<g>
</g>
<g>
</g>
<g>
</g>
<g>
</g>
<g>
</g>
<g>
</g>
<g>
</g>
<g>
</g>
</svg>
