<?xml version="1.0" encoding="iso-8859-1"?>
<!-- Generator: Adobe Illustrator 19.0.0, SVG Export Plug-In . SVG Version: 6.00 Build 0)  -->
<svg version="1.1" id="Layer_1" xmlns="http://www.w3.org/2000/svg" xmlns:xlink="http://www.w3.org/1999/xlink" x="0px" y="0px"
	 viewBox="0 0 512 512" style="enable-background:new 0 0 512 512;" xml:space="preserve">
<g>
	<g>
		<path d="M448,106.667v-64c0-11.776-9.536-21.333-21.333-21.333H320c-11.797,0-21.333,9.557-21.333,21.333v64
			c-11.797,0-21.333,9.557-21.333,21.333v85.333c0,11.776,9.536,21.333,21.333,21.333V384c0,29.269-21.632,53.867-44.437,69.077
			c-24.32-15.787-40.896-41.323-40.896-69.077V213.333c11.797,0,21.333-9.557,21.333-21.333v-85.333
			c0-11.776-9.536-21.333-21.333-21.333v-64C213.333,9.557,203.797,0,192,0H85.333C73.536,0,64,9.557,64,21.333v64
			c-11.797,0-21.333,9.557-21.333,21.333V192c0,11.776,9.536,21.333,21.333,21.333l0.021,160.917
			C67.093,452.779,123.84,512,195.989,512h112h8C388.8,512,448,454.592,448,384V234.667c11.797,0,21.333-9.557,21.333-21.333V128
			C469.333,116.224,459.797,106.667,448,106.667z M195.989,469.333c-48.768,0-87.168-41.6-89.323-95.915V213.333h64V384
			c0,32.427,13.739,62.507,35.968,85.333H195.989z M405.333,384c0,47.061-40.085,85.333-89.344,85.333h-8
			c-1.813,0-3.541-0.427-5.355-0.512c24.725-24.149,38.699-54.016,38.699-84.821V234.667h64V384z"/>
	</g>
</g>
<g>
</g>
<g>
</g>
<g>
</g>
<g>
</g>
<g>
</g>
<g>
</g>
<g>
</g>
<g>
</g>
<g>
</g>
<g>
</g>
<g>
</g>
<g>
</g>
<g>
</g>
<g>
</g>
<g>
</g>
</svg>
