<?xml version="1.0" encoding="iso-8859-1"?>
<!-- Generator: Adobe Illustrator 19.0.0, SVG Export Plug-In . SVG Version: 6.00 Build 0)  -->
<svg version="1.1" id="Layer_1" xmlns="http://www.w3.org/2000/svg" xmlns:xlink="http://www.w3.org/1999/xlink" x="0px" y="0px"
	 viewBox="0 0 512 512" style="enable-background:new 0 0 512 512;" xml:space="preserve">
<g>
	<g>
		<path d="M0,181.334v85.333h512v-85.333H0z M106.667,245.333c-11.776,0-21.334-9.557-21.334-21.333s9.558-21.333,21.334-21.333
			S128,212.224,128,224S118.443,245.333,106.667,245.333z M405.333,245.333H192c-11.797,0-21.333-9.557-21.333-21.333
			s9.536-21.333,21.333-21.333h213.333c11.797,0,21.333,9.557,21.333,21.333S417.13,245.333,405.333,245.333z"/>
	</g>
</g>
<g>
	<g>
		<path d="M490.667,10.667H21.333C9.536,10.667,0,20.224,0,32v106.667h512V32C512,20.224,502.464,10.667,490.667,10.667z
			 M106.667,96c-11.776,0-21.333-9.557-21.333-21.333s9.557-21.333,21.333-21.333S128,62.891,128,74.667S118.443,96,106.667,96z
			 M405.333,96H192c-11.797,0-21.333-9.557-21.333-21.333S180.203,53.333,192,53.333h213.333c11.797,0,21.333,9.557,21.333,21.333
			S417.131,96,405.333,96z"/>
	</g>
</g>
<g>
	<g>
		<path d="M0,309.333V416c0,11.776,9.536,21.333,21.333,21.333h64V480c0,11.776,9.536,21.333,21.333,21.333
			s21.333-9.557,21.333-21.333v-42.667h256V480c0,11.776,9.536,21.333,21.333,21.333s21.333-9.557,21.333-21.333v-42.667h64
			c11.797,0,21.333-9.557,21.333-21.333V309.333H0z M106.667,394.666c-11.776,0-21.333-9.557-21.333-21.333S94.891,352,106.667,352
			S128,361.557,128,373.333S118.443,394.666,106.667,394.666z M405.333,394.666H192c-11.797,0-21.333-9.557-21.333-21.333
			S180.203,352,192,352h213.333c11.797,0,21.333,9.557,21.333,21.333S417.13,394.666,405.333,394.666z"/>
	</g>
</g>
<g>
</g>
<g>
</g>
<g>
</g>
<g>
</g>
<g>
</g>
<g>
</g>
<g>
</g>
<g>
</g>
<g>
</g>
<g>
</g>
<g>
</g>
<g>
</g>
<g>
</g>
<g>
</g>
<g>
</g>
</svg>
