<?xml version="1.0" encoding="iso-8859-1"?>
<!-- Generator: Adobe Illustrator 19.0.0, SVG Export Plug-In . SVG Version: 6.00 Build 0)  -->
<svg version="1.1" id="Layer_1" xmlns="http://www.w3.org/2000/svg" xmlns:xlink="http://www.w3.org/1999/xlink" x="0px" y="0px"
	 viewBox="0 0 512 512" style="enable-background:new 0 0 512 512;" xml:space="preserve">
<g>
	<g>
		<rect x="213.25" y="213.3" width="85.3" height="85.3"/>
	</g>
</g>
<g>
	<g>
		<path d="M396.65,125.4c-0.4-0.7-0.8-1.5-1.3-2.2l-32.7-48.4V21.3c0-11.8-9.5-21.3-21.3-21.3h-170.7c-11.8,0-21.3,9.6-21.3,21.3
			v53.5l-32.7,48.4c-0.5,0.7-0.9,1.5-1.3,2.2c-5.6,11-8.6,23.3-8.6,35.6v190c0,12.3,3,24.6,8.6,35.6c0.4,0.7,0.8,1.5,1.3,2.2
			l32.7,48.4v53.5c0,11.8,9.5,21.3,21.3,21.3h170.7c11.8,0,21.3-9.6,21.3-21.3v-53.5l32.7-48.4c0.5-0.7,0.9-1.5,1.3-2.2
			c5.6-11,8.6-23.3,8.6-35.6V161C405.25,148.8,402.25,136.4,396.65,125.4z M191.95,42.7h128V64h-128V42.7z M319.95,469.3h-128V448
			h128V469.3z M341.25,320c0,11.8-9.5,21.3-21.3,21.3h-128c-11.8,0-21.3-9.6-21.3-21.3V192c0-11.8,9.5-21.3,21.3-21.3h128
			c11.8,0,21.3,9.6,21.3,21.3V320z"/>
	</g>
</g>
<g>
</g>
<g>
</g>
<g>
</g>
<g>
</g>
<g>
</g>
<g>
</g>
<g>
</g>
<g>
</g>
<g>
</g>
<g>
</g>
<g>
</g>
<g>
</g>
<g>
</g>
<g>
</g>
<g>
</g>
</svg>
