<?xml version="1.0" encoding="iso-8859-1"?>
<!-- Generator: Adobe Illustrator 19.0.0, SVG Export Plug-In . SVG Version: 6.00 Build 0)  -->
<svg version="1.1" id="Layer_1" xmlns="http://www.w3.org/2000/svg" xmlns:xlink="http://www.w3.org/1999/xlink" x="0px" y="0px"
	 viewBox="0 0 511.998 511.998" style="enable-background:new 0 0 511.998 511.998;" xml:space="preserve">
<g>
	<g>
		<path d="M422.611,192h-40.512c-11.051-27.179-28.885-50.88-51.435-69.013V21.333C330.665,9.557,321.129,0,309.331,0H138.665
			c-11.776,0-21.333,9.557-21.333,21.333v101.653c-38.955,31.317-64,79.275-64,133.013c0,53.76,25.045,101.717,64,133.013v101.653
			c0,11.797,9.557,21.333,21.333,21.333h170.667c11.797,0,21.333-9.536,21.333-21.333V389.013
			C353.215,370.901,371.049,347.2,382.1,320h40.512c19.861,0,36.053-16.171,36.053-36.053v-55.893
			C458.665,208.192,442.473,192,422.611,192z M327.571,330.923c-3.669-6.4-10.304-10.923-18.24-10.923H138.665
			c-7.915,0-14.549,4.523-18.219,10.923C105.129,309.824,95.998,283.989,95.998,256c0-43.563,21.909-82.048,55.253-105.173
			c5.163-3.584,10.581-6.741,16.192-9.472c0.235-0.128,0.491-0.235,0.725-0.363c34.923-16.704,76.736-16.704,111.659,0
			c0.256,0.128,0.491,0.235,0.747,0.363c5.589,2.731,11.008,5.888,16.192,9.472c33.323,23.125,55.232,61.61,55.232,105.173
			C351.998,283.989,342.867,309.824,327.571,330.923z"/>
	</g>
</g>
<g>
</g>
<g>
</g>
<g>
</g>
<g>
</g>
<g>
</g>
<g>
</g>
<g>
</g>
<g>
</g>
<g>
</g>
<g>
</g>
<g>
</g>
<g>
</g>
<g>
</g>
<g>
</g>
<g>
</g>
</svg>
