<?xml version="1.0" encoding="iso-8859-1"?>
<!-- Generator: Adobe Illustrator 19.0.0, SVG Export Plug-In . SVG Version: 6.00 Build 0)  -->
<svg version="1.1" id="Layer_1" xmlns="http://www.w3.org/2000/svg" xmlns:xlink="http://www.w3.org/1999/xlink" x="0px" y="0px"
	 viewBox="0 0 512 512" style="enable-background:new 0 0 512 512;" xml:space="preserve">
<g>
	<g>
		<path d="M338.961,0H173.052c-35.797,0-64.853,28.523-66.155,64h298.197C403.814,28.523,374.758,0,338.961,0z"/>
	</g>
</g>
<g>
	<g>
		<path d="M106.666,106.667v234.667h298.667V106.667H106.666z M176.917,155.584l21.333-21.333c8.341-8.341,21.824-8.341,30.165,0
			s8.341,21.824,0,30.165l-21.333,21.333c-4.16,4.16-9.621,6.251-15.083,6.251c-5.461,0-10.923-2.091-15.083-6.251
			C168.576,177.408,168.576,163.925,176.917,155.584z M292.416,185.749l-64,64c-4.16,4.16-9.621,6.251-15.083,6.251
			c-5.461,0-10.923-2.091-15.083-6.251c-8.341-8.341-8.341-21.824,0-30.165l64-64c8.341-8.341,21.824-8.341,30.165,0
			C300.757,163.925,300.757,177.408,292.416,185.749z"/>
	</g>
</g>
<g>
	<g>
		<path d="M106.666,384v61.632c0,36.587,29.781,66.368,66.368,66.368h165.931c36.587,0,66.368-29.781,66.368-66.368V384H106.666z
			 M298.666,469.333h-85.333C201.536,469.333,192,459.776,192,448s9.536-21.333,21.333-21.333h85.333
			c11.797,0,21.333,9.557,21.333,21.333S310.463,469.333,298.666,469.333z"/>
	</g>
</g>
<g>
</g>
<g>
</g>
<g>
</g>
<g>
</g>
<g>
</g>
<g>
</g>
<g>
</g>
<g>
</g>
<g>
</g>
<g>
</g>
<g>
</g>
<g>
</g>
<g>
</g>
<g>
</g>
<g>
</g>
</svg>
