<?xml version="1.0" encoding="iso-8859-1"?>
<!-- Generator: Adobe Illustrator 19.0.0, SVG Export Plug-In . SVG Version: 6.00 Build 0)  -->
<svg version="1.1" id="Layer_1" xmlns="http://www.w3.org/2000/svg" xmlns:xlink="http://www.w3.org/1999/xlink" x="0px" y="0px"
	 viewBox="0 0 511.999 511.999" style="enable-background:new 0 0 511.999 511.999;" xml:space="preserve">
<g>
	<g>
		<path d="M490.667,64H21.333C9.536,64,0,73.557,0,85.333v341.333C0,438.443,9.536,448,21.333,448h469.333
			c11.797,0,21.333-9.557,21.333-21.333V85.333C512,73.557,502.464,64,490.667,64z M298.667,384h-64
			c-11.797,0-21.333-9.557-21.333-21.333s9.536-21.333,21.333-21.333h64c11.797,0,21.333,9.557,21.333,21.333
			S310.464,384,298.667,384z M426.667,320H85.333C73.536,320,64,310.443,64,298.667V149.333C64,137.557,73.536,128,85.333,128
			h341.333c11.797,0,21.333,9.557,21.333,21.333v149.334H448C448,310.443,438.464,320,426.667,320z"/>
	</g>
</g>
<g>
	<g>
		<rect x="106.67" y="170.669" width="298.67" height="106.67"/>
	</g>
</g>
<g>
</g>
<g>
</g>
<g>
</g>
<g>
</g>
<g>
</g>
<g>
</g>
<g>
</g>
<g>
</g>
<g>
</g>
<g>
</g>
<g>
</g>
<g>
</g>
<g>
</g>
<g>
</g>
<g>
</g>
</svg>
