<?xml version="1.0" encoding="iso-8859-1"?>
<!-- Generator: Adobe Illustrator 19.0.0, SVG Export Plug-In . SVG Version: 6.00 Build 0)  -->
<svg version="1.1" id="Layer_1" xmlns="http://www.w3.org/2000/svg" xmlns:xlink="http://www.w3.org/1999/xlink" x="0px" y="0px"
	 viewBox="0 0 512 512" style="enable-background:new 0 0 512 512;" xml:space="preserve">
<g>
	<g>
		<rect x="0.009" y="234.67" width="128" height="170.67"/>
	</g>
</g>
<g>
	<g>
		<path d="M451.925,128h-89.259V21.333C362.667,9.557,353.131,0,341.333,0C329.557,0,320,9.557,320,21.333V128H60.096
			C26.965,128,0,154.944,0,188.075V192h21.333h128H320v42.667H170.667v170.667h234.667V234.667h-42.667V192h64
			c11.797,0,21.333,9.557,21.333,21.333v213.333c0,11.776-9.536,21.333-21.333,21.333H149.333h-128H0v3.925
			C0,485.056,26.965,512,60.096,512h391.829C485.056,512,512,485.056,512,451.925v-263.85C512,154.944,485.056,128,451.925,128z"/>
	</g>
</g>
<g>
</g>
<g>
</g>
<g>
</g>
<g>
</g>
<g>
</g>
<g>
</g>
<g>
</g>
<g>
</g>
<g>
</g>
<g>
</g>
<g>
</g>
<g>
</g>
<g>
</g>
<g>
</g>
<g>
</g>
</svg>
