<?xml version="1.0" encoding="iso-8859-1"?>
<!-- Generator: Adobe Illustrator 19.0.0, SVG Export Plug-In . SVG Version: 6.00 Build 0)  -->
<svg version="1.1" id="Layer_1" xmlns="http://www.w3.org/2000/svg" xmlns:xlink="http://www.w3.org/1999/xlink" x="0px" y="0px"
	 viewBox="0 0 511.999 511.999" style="enable-background:new 0 0 511.999 511.999;" xml:space="preserve">
<g>
	<g>
		<path d="M490.667,64H21.333C9.557,64,0,73.557,0,85.333v341.333C0,438.443,9.557,448,21.333,448h469.333
			c11.776,0,21.333-9.557,21.333-21.333V85.333C512,73.557,502.443,64,490.667,64z M426.667,384H85.333
			C73.557,384,64,374.443,64,362.667V149.333C64,137.557,73.557,128,85.333,128h341.333c11.776,0,21.333,9.557,21.333,21.333
			v213.334H448C448,374.443,438.443,384,426.667,384z"/>
	</g>
</g>
<g>
	<g>
		<rect x="106.67" y="170.669" width="298.67" height="170.67"/>
	</g>
</g>
<g>
</g>
<g>
</g>
<g>
</g>
<g>
</g>
<g>
</g>
<g>
</g>
<g>
</g>
<g>
</g>
<g>
</g>
<g>
</g>
<g>
</g>
<g>
</g>
<g>
</g>
<g>
</g>
<g>
</g>
</svg>
