<?xml version="1.0" encoding="iso-8859-1"?>
<!-- Generator: Adobe Illustrator 19.0.0, SVG Export Plug-In . SVG Version: 6.00 Build 0)  -->
<svg version="1.1" id="Layer_1" xmlns="http://www.w3.org/2000/svg" xmlns:xlink="http://www.w3.org/1999/xlink" x="0px" y="0px"
	 viewBox="0 0 512.009 512.009" style="enable-background:new 0 0 512.009 512.009;" xml:space="preserve">
<g>
	<g>
		<path d="M451.925,21.336H60.096C26.965,21.337,0,48.281,0,81.411v25.259h512V81.411C512,48.281,485.056,21.336,451.925,21.336z"/>
	</g>
</g>
<g>
	<g>
		<rect x="0.009" y="149.34" width="512" height="85.33"/>
	</g>
</g>
<g>
	<g>
		<path d="M0.008,277.338v25.259h0.001c0,33.131,26.965,60.075,60.075,60.075h174.592v42.667h-64c-35.285,0-64,28.715-64,64
			c0,11.776,9.536,21.333,21.333,21.333c11.797,0,21.333-9.557,21.333-21.333c0-11.755,9.557-21.333,21.333-21.333h170.667
			c11.776,0,21.333,9.579,21.333,21.333c0,11.776,9.536,21.333,21.333,21.333s21.333-9.557,21.333-21.333c0-35.285-28.715-64-64-64
			h-64v-42.667h174.592c33.109,0,60.075-26.944,60.075-60.075v-25.259H0.008z"/>
	</g>
</g>
<g>
</g>
<g>
</g>
<g>
</g>
<g>
</g>
<g>
</g>
<g>
</g>
<g>
</g>
<g>
</g>
<g>
</g>
<g>
</g>
<g>
</g>
<g>
</g>
<g>
</g>
<g>
</g>
<g>
</g>
</svg>
