<?xml version="1.0" encoding="iso-8859-1"?>
<!-- Generator: Adobe Illustrator 19.0.0, SVG Export Plug-In . SVG Version: 6.00 Build 0)  -->
<svg version="1.1" id="Layer_1" xmlns="http://www.w3.org/2000/svg" xmlns:xlink="http://www.w3.org/1999/xlink" x="0px" y="0px"
	 viewBox="0 0 512.011 512.011" style="enable-background:new 0 0 512.011 512.011;" xml:space="preserve">
<g>
	<g>
		<path d="M505.755,153.864L358.149,6.259c-8.341-8.341-21.845-8.341-30.165,0L206.939,127.283
			c-25.045-3.456-51.349,4.117-70.549,23.339l-36.053,36.032c-32.576,32.555-32.576,85.547,0,118.123l17.707,17.707L68.165,372.36
			c-8.32,8.32-8.32,21.824,0,30.165l5.589,5.568L6.256,475.592c-8.341,8.341-8.341,21.824,0,30.165
			c4.16,4.16,9.621,6.251,15.083,6.251c5.461,0,10.923-2.091,15.083-6.251l67.499-67.499l5.568,5.589
			c4.011,4.011,9.429,6.251,15.083,6.251c5.653,0,11.093-2.24,15.083-6.251l49.877-49.877l17.707,17.707
			c16.299,16.299,37.675,24.427,59.051,24.427c21.397,0,42.773-8.128,59.051-24.427l36.053-36.053
			c19.221-19.2,26.795-45.504,23.339-70.549L505.757,184.03C514.096,175.709,514.096,162.205,505.755,153.864z M304.923,134.259
			l21.333-21.333c8.341-8.341,21.824-8.341,30.165,0c8.341,8.341,8.341,21.824,0,30.165l-21.333,21.333
			c-4.16,4.16-9.621,6.251-15.083,6.251c-5.462,0-10.923-2.091-15.083-6.251C296.581,156.083,296.581,142.6,304.923,134.259z
			 M331.227,345.459l-36.053,36.053c-15.936,15.936-41.835,15.915-57.771,0l-32.768-32.747c0-0.021,0-0.021-0.021-0.043
			L163.291,307.4c-0.021-0.021-0.021-0.021-0.043-0.021l-32.747-32.768c-15.936-15.936-15.936-41.856,0-57.771l36.053-36.053
			c15.915-15.915,41.835-15.936,57.771,0l106.901,106.901C347.163,303.603,347.163,329.544,331.227,345.459z M399.088,185.757
			l-21.333,21.333c-4.16,4.16-9.621,6.251-15.083,6.251c-5.462,0-10.923-2.091-15.083-6.251c-8.341-8.341-8.341-21.824,0-30.165
			l21.333-21.333c8.341-8.341,21.824-8.341,30.165,0C407.429,163.933,407.429,177.416,399.088,185.757z"/>
	</g>
</g>
<g>
</g>
<g>
</g>
<g>
</g>
<g>
</g>
<g>
</g>
<g>
</g>
<g>
</g>
<g>
</g>
<g>
</g>
<g>
</g>
<g>
</g>
<g>
</g>
<g>
</g>
<g>
</g>
<g>
</g>
</svg>
