<?xml version="1.0" encoding="iso-8859-1"?>
<!-- Generator: Adobe Illustrator 19.0.0, SVG Export Plug-In . SVG Version: 6.00 Build 0)  -->
<svg version="1.1" id="Layer_1" xmlns="http://www.w3.org/2000/svg" xmlns:xlink="http://www.w3.org/1999/xlink" x="0px" y="0px"
	 viewBox="0 0 512.001 512.001" style="enable-background:new 0 0 512.001 512.001;" xml:space="preserve">
<g>
	<g>
		<path d="M511.888,214.78c-2.87-105.486-112.209-169.482-203.032-130.108l32.556-52.339c6.165-9.912,3.128-22.942-6.782-29.108
			s-22.942-3.131-29.108,6.782l-49.522,79.613L233.91,54.106c-6.164-9.911-19.196-12.946-29.108-6.782
			c-9.91,6.164-12.948,19.196-6.782,29.108l5.117,8.225C112.167,45.18,2.977,109.492,0.114,214.778
			c-0.885,32.507,1.979,33.481,61.015,214.008c21.271,69.164,99.443,102.715,164.007,71.357c19.328-9.387,42.405-9.386,61.733,0
			c64.782,31.46,142.805-2.419,164.007-71.356C509.862,248.396,512.769,247.17,511.888,214.78z M382.647,400.524l-2.042,6.243
			c-3.628,11.096-15.565,17.146-26.655,13.52c-11.094-3.626-17.146-15.56-13.52-26.653l2.042-6.243
			c3.626-11.095,15.563-17.149,26.655-13.52C380.222,377.497,386.275,389.431,382.647,400.524z M434.339,242.48l-0.169,0.486
			l-29.609,90.549c-3.631,11.102-15.572,17.143-26.655,13.518c-11.094-3.628-17.146-15.561-13.518-26.655l29.671-90.736
			c0.041-0.125,0.085-0.252,0.127-0.378l0.235-0.675c3.836-11.023,15.88-16.853,26.905-13.014
			C432.347,219.411,438.174,231.457,434.339,242.48z"/>
	</g>
</g>
<g>
</g>
<g>
</g>
<g>
</g>
<g>
</g>
<g>
</g>
<g>
</g>
<g>
</g>
<g>
</g>
<g>
</g>
<g>
</g>
<g>
</g>
<g>
</g>
<g>
</g>
<g>
</g>
<g>
</g>
</svg>
