<?xml version="1.0" encoding="iso-8859-1"?>
<!-- Generator: Adobe Illustrator 19.0.0, SVG Export Plug-In . SVG Version: 6.00 Build 0)  -->
<svg version="1.1" id="Layer_1" xmlns="http://www.w3.org/2000/svg" xmlns:xlink="http://www.w3.org/1999/xlink" x="0px" y="0px"
	 viewBox="0 0 512 512" style="enable-background:new 0 0 512 512;" xml:space="preserve">
<g>
	<g>
		<g>
			<path d="M279.577,471.594h-3.373v-77.493h3.371c11.157,0,20.203-9.046,20.203-20.203s-9.046-20.203-20.203-20.203h-3.373V303.14
				c0-3.719-3.016-6.734-6.734-6.734h-26.937c-3.719,0-6.734,3.016-6.734,6.734v50.555h-3.373c-11.157,0-20.203,9.046-20.203,20.203
				s9.046,20.203,20.203,20.203h3.373v77.493h-3.373c-11.157,0-20.203,9.046-20.203,20.203c0,11.157,9.046,20.203,20.203,20.203
				h47.152c11.157,0,20.203-9.046,20.203-20.203C299.78,480.64,290.734,471.594,279.577,471.594z"/>
			<path d="M491.797,212.22c-11.157,0-20.203,9.046-20.203,20.203v3.372h-77.492v-3.372c0-26.696-40.406-26.725-40.406,0v3.372
				h-77.493v-77.493h3.373c11.157,0,20.203-9.046,20.203-20.203c0-11.157-9.046-20.203-20.203-20.203h-3.373V40.406h3.373
				c11.157,0,20.203-9.046,20.203-20.203C299.779,9.046,290.733,0,279.576,0h-47.152c-11.157,0-20.203,9.046-20.203,20.203
				c0,11.157,9.046,20.203,20.203,20.203h3.372v77.492h-3.372c-11.157,0-20.203,9.046-20.203,20.203s9.046,20.203,20.203,20.203
				h3.372v77.493h-77.493v-3.373c0-11.157-9.046-20.203-20.203-20.203c-11.157,0-20.203,9.046-20.203,20.203v3.373H40.406v-3.373
				c0-11.157-9.046-20.203-20.203-20.203C9.046,212.221,0,221.267,0,232.424v47.152c0,11.157,9.046,20.203,20.203,20.203
				c11.157,0,20.203-9.046,20.203-20.203v-3.373h77.492v3.373c0,11.157,9.046,20.203,20.203,20.203s20.203-9.046,20.203-20.203
				v-3.373c14.739,0,172.478,0,195.391,0v3.373c0,11.157,9.046,20.203,20.203,20.203s20.203-9.046,20.203-20.203v-3.373h77.492
				v3.373c0,11.157,9.046,20.203,20.203,20.203s20.203-9.046,20.203-20.203v-47.152C512,221.266,502.954,212.22,491.797,212.22z"/>
			<path d="M491.797,185.346c11.157,0,20.203-9.046,20.203-20.203s-9.046-20.203-20.203-20.203
				c-68.78,0-124.737-55.957-124.737-124.737C367.06,9.046,358.014,0,346.857,0c-11.157,0-20.203,9.046-20.203,20.203
				C326.653,111.263,400.736,185.346,491.797,185.346z"/>
			<path d="M20.203,326.653C9.046,326.653,0,335.698,0,346.856c0,11.157,9.046,20.203,20.203,20.203
				c68.78,0,124.737,55.957,124.737,124.737c0,11.157,9.046,20.203,20.203,20.203s20.203-9.046,20.203-20.203
				C185.346,400.736,111.263,326.653,20.203,326.653z"/>
		</g>
	</g>
</g>
<g>
</g>
<g>
</g>
<g>
</g>
<g>
</g>
<g>
</g>
<g>
</g>
<g>
</g>
<g>
</g>
<g>
</g>
<g>
</g>
<g>
</g>
<g>
</g>
<g>
</g>
<g>
</g>
<g>
</g>
</svg>
