<?xml version="1.0" encoding="iso-8859-1"?>
<!-- Generator: Adobe Illustrator 19.0.0, SVG Export Plug-In . SVG Version: 6.00 Build 0)  -->
<svg version="1.1" id="Layer_1" xmlns="http://www.w3.org/2000/svg" xmlns:xlink="http://www.w3.org/1999/xlink" x="0px" y="0px"
	 viewBox="0 0 512.001 512.001" style="enable-background:new 0 0 512.001 512.001;" xml:space="preserve">
<g>
	<g>
		<g>
			<path d="M492.445,376.168H82.095V73.293c0-10.8-8.755-19.555-19.555-19.555H19.555C8.755,53.738,0,62.494,0,73.293
				c0,10.8,8.755,19.555,19.555,19.555h23.43v68.366h-23.43C8.755,161.214,0,169.97,0,180.769s8.755,19.555,19.555,19.555h23.43
				v68.367h-23.43C8.755,268.691,0,277.447,0,288.246c0,10.8,8.755,19.555,19.555,19.555h23.43v68.367h-23.43
				C8.755,376.168,0,384.924,0,395.723c0,10.8,8.755,19.555,19.555,19.555c11.55,0,175.605,0,180.81,0v23.43
				c0,10.8,8.755,19.555,19.555,19.555s19.555-8.755,19.555-19.555v-23.43h175.843v23.43c0,10.8,8.755,19.555,19.555,19.555
				c10.8,0,19.555-8.755,19.555-19.555v-23.43h38.019c10.8,0,19.555-8.755,19.555-19.555
				C512,384.922,503.245,376.168,492.445,376.168z"/>
			<path d="M149.309,356.613h141.22c3.601,0,6.518-2.919,6.518-6.518V180.77c0-10.8-8.755-19.555-19.555-19.555H162.346
				c-10.8,0-19.555,8.755-19.555,19.555v169.324C142.791,353.694,145.71,356.613,149.309,356.613z"/>
			<path d="M364.262,356.613h141.22c3.601,0,6.518-2.919,6.518-6.518V73.293c0-10.801-8.755-19.555-19.555-19.555H377.299
				c-10.8,0-19.555,8.755-19.555,19.555v276.801C357.744,353.694,360.662,356.613,364.262,356.613z"/>
		</g>
	</g>
</g>
<g>
</g>
<g>
</g>
<g>
</g>
<g>
</g>
<g>
</g>
<g>
</g>
<g>
</g>
<g>
</g>
<g>
</g>
<g>
</g>
<g>
</g>
<g>
</g>
<g>
</g>
<g>
</g>
<g>
</g>
</svg>
