<?xml version="1.0" encoding="iso-8859-1"?>
<!-- Generator: Adobe Illustrator 19.0.0, SVG Export Plug-In . SVG Version: 6.00 Build 0)  -->
<svg version="1.1" id="Layer_1" xmlns="http://www.w3.org/2000/svg" xmlns:xlink="http://www.w3.org/1999/xlink" x="0px" y="0px"
	 viewBox="0 0 512 512" style="enable-background:new 0 0 512 512;" xml:space="preserve">
<g>
	<g>
		<g>
			<path d="M495.031,121.157h-20.196c-3.123,0-5.656,2.533-5.656,5.656v22.625c0,3.123,2.533,5.656,5.656,5.656h3.227v211.306
				H322.161c-4.832,0-9.368,2.137-12.615,5.715c-28.747,31.672-78.347,31.671-107.092,0c-3.247-3.578-7.783-5.715-12.615-5.715
				H33.938V155.095h3.227c3.123,0,5.656-2.533,5.656-5.656v-22.625c0-3.123-2.533-5.656-5.656-5.656H16.969
				C7.598,121.157,0,128.755,0,138.126V383.37c0,9.371,7.598,16.969,16.969,16.969h165.633c41.139,39.306,105.681,39.282,146.797,0
				h165.633c9.371,0,16.969-7.598,16.969-16.969V138.126C512,128.755,504.402,121.157,495.031,121.157z"/>
			<path d="M76.76,340.548h135.991c15.434,39.203,71.044,39.256,86.5,0h135.991c9.371,0,16.969-7.598,16.969-16.969V99.16
				c0-9.371-7.598-16.969-16.969-16.969H285.489c-9.371,0-16.969,7.598-16.969,16.969c0,16.544-25.04,16.548-25.04,0
				c0-9.371-7.598-16.969-16.969-16.969H76.76c-9.371,0-16.969,7.598-16.969,16.969v224.419
				C59.791,332.951,67.387,340.548,76.76,340.548z M310.062,143.529h71.118c9.371,0,16.969,7.598,16.969,16.969
				c0,9.371-7.598,16.969-16.969,16.969h-71.118c-9.371,0-16.969-7.598-16.969-16.969
				C293.093,151.125,300.69,143.529,310.062,143.529z M310.062,198.131h71.118c9.371,0,16.969,7.598,16.969,16.969
				c0,9.371-7.598,16.969-16.969,16.969h-71.118c-9.371,0-16.969-7.598-16.969-16.969
				C293.093,205.729,300.69,198.131,310.062,198.131z M310.062,252.734h71.118c9.371,0,16.969,7.598,16.969,16.969
				c0,9.371-7.598,16.969-16.969,16.969h-71.118c-9.371,0-16.969-7.598-16.969-16.969
				C293.093,260.332,300.69,252.734,310.062,252.734z M239.028,182.526c0-9.371,7.598-16.969,16.969-16.969
				c9.371,0,16.969,7.598,16.969,16.969v87.177c0,9.371-7.598,16.969-16.969,16.969c-9.371,0-16.969-7.598-16.969-16.969V182.526z
				 M113.851,160.498c0-9.371,7.598-16.969,16.969-16.969h71.118c9.371,0,16.969,7.598,16.969,16.969v59.114
				c0,9.371-7.598,16.969-16.969,16.969H130.82c-9.371,0-16.969-7.598-16.969-16.969V160.498z M130.82,252.734h71.118
				c9.371,0,16.969,7.598,16.969,16.969c0,9.371-7.598,16.969-16.969,16.969H130.82c-9.371,0-16.969-7.598-16.969-16.969
				C113.851,260.332,121.448,252.734,130.82,252.734z"/>
		</g>
	</g>
</g>
<g>
</g>
<g>
</g>
<g>
</g>
<g>
</g>
<g>
</g>
<g>
</g>
<g>
</g>
<g>
</g>
<g>
</g>
<g>
</g>
<g>
</g>
<g>
</g>
<g>
</g>
<g>
</g>
<g>
</g>
</svg>
