<?xml version="1.0" encoding="iso-8859-1"?>
<!-- Generator: Adobe Illustrator 19.0.0, SVG Export Plug-In . SVG Version: 6.00 Build 0)  -->
<svg version="1.1" id="Layer_1" xmlns="http://www.w3.org/2000/svg" xmlns:xlink="http://www.w3.org/1999/xlink" x="0px" y="0px"
	 viewBox="0 0 512 512" style="enable-background:new 0 0 512 512;" xml:space="preserve">
<g>
	<g>
		<g>
			<circle cx="335.714" cy="335.714" r="22.143"/>
			<circle cx="176.277" cy="176.277" r="22.143"/>
			<path d="M345.167,234.862h-19.021c-9.095-30.125-37.093-52.128-70.144-52.128c-40.399,0-73.266,32.867-73.266,73.266
				c0,33.051,22.003,61.049,52.128,70.144v19.021c0,11.674,9.464,21.138,21.138,21.138s21.138-9.464,21.138-21.138v-19.021
				c23.427-7.074,41.934-25.58,49.006-49.006h19.021c11.674,0,21.138-9.464,21.138-21.138S356.841,234.862,345.167,234.862z"/>
			<path d="M335.213,145.881c-8.254-8.255-21.638-8.255-29.893,0s-8.255,21.638,0,29.893l30.902,30.902
				c8.254,8.256,21.64,8.255,29.893,0c8.255-8.255,8.255-21.638,0-29.893L335.213,145.881z"/>
			<path d="M143.264,213.005c-11.674,0-21.138,9.464-21.138,21.138v43.704c0,11.674,9.464,21.138,21.138,21.138
				s21.138-9.464,21.138-21.138v-43.704C164.402,222.469,154.938,213.005,143.264,213.005z"/>
			<path d="M256,0C114.842,0,0,114.842,0,256s114.842,256,256,256s256-114.842,256-256S397.158,0,256,0z M256,429.332
				c-95.575,0-173.332-77.757-173.332-173.332S160.425,82.668,256,82.668S429.332,160.425,429.332,256S351.575,429.332,256,429.332z
				"/>
		</g>
	</g>
</g>
<g>
</g>
<g>
</g>
<g>
</g>
<g>
</g>
<g>
</g>
<g>
</g>
<g>
</g>
<g>
</g>
<g>
</g>
<g>
</g>
<g>
</g>
<g>
</g>
<g>
</g>
<g>
</g>
<g>
</g>
</svg>
