<?xml version="1.0" encoding="iso-8859-1"?>
<!-- Generator: Adobe Illustrator 19.0.0, SVG Export Plug-In . SVG Version: 6.00 Build 0)  -->
<svg version="1.1" id="Layer_1" xmlns="http://www.w3.org/2000/svg" xmlns:xlink="http://www.w3.org/1999/xlink" x="0px" y="0px"
	 viewBox="0 0 512 512" style="enable-background:new 0 0 512 512;" xml:space="preserve">
<g>
	<g>
		<g>
			<path d="M130.548,119.054h250.904c3.5,0,6.339-2.838,6.339-6.339V66.198c0-10.502-8.514-19.016-19.016-19.016h-58.734
				c-7.089-62.916-100.982-62.904-108.081,0h-58.735c-10.502,0-19.016,8.514-19.016,19.016v46.517
				C124.209,116.217,127.046,119.054,130.548,119.054z"/>
			<path d="M419.483,69.735h-6.339c-3.501,0-6.339,2.838-6.339,6.339v366.202c0,21.005-17.027,38.031-38.031,38.031h-225.55
				c-21.005,0-38.031-17.027-38.031-38.031V76.073c0-3.5-2.838-6.339-6.339-6.339h-6.339c-10.502,0-19.016,8.514-19.016,19.016
				v404.234c0,10.503,8.514,19.016,19.016,19.016h326.967c10.502,0,19.016-8.513,19.016-19.016V88.751
				C438.499,78.249,429.985,69.735,419.483,69.735z"/>
			<path d="M143.225,461.291h225.55c10.502,0,19.016-8.513,19.016-19.016V144.408c0-3.5-2.838-6.339-6.339-6.339H130.548
				c-3.5,0-6.339,2.838-6.339,6.339v297.868C124.209,452.779,132.722,461.291,143.225,461.291z M200.266,205.409L200.266,205.409
				c0-10.502,8.514-19.016,19.016-19.016h73.436c10.502,0,19.016,8.514,19.016,19.016v73.436c0,10.502-8.514,19.016-19.016,19.016
				h-73.436c-10.502,0-19.016-8.514-19.016-19.016V205.409z M219.282,312.813h73.436c10.502,0,19.016,8.514,19.016,19.016
				s-8.514,19.016-19.016,19.016h-73.436c-10.502,0-19.016-8.514-19.016-19.016C200.266,321.325,208.78,312.813,219.282,312.813z
				 M219.282,365.358h73.436c10.502,0,19.016,8.514,19.016,19.016c0,10.502-8.514,19.016-19.016,19.016h-73.436
				c-10.502,0-19.016-8.514-19.016-19.016C200.266,373.872,208.78,365.358,219.282,365.358z"/>
		</g>
	</g>
</g>
<g>
</g>
<g>
</g>
<g>
</g>
<g>
</g>
<g>
</g>
<g>
</g>
<g>
</g>
<g>
</g>
<g>
</g>
<g>
</g>
<g>
</g>
<g>
</g>
<g>
</g>
<g>
</g>
<g>
</g>
</svg>
