<?xml version="1.0" encoding="iso-8859-1"?>
<!-- Generator: Adobe Illustrator 19.0.0, SVG Export Plug-In . SVG Version: 6.00 Build 0)  -->
<svg version="1.1" id="Layer_1" xmlns="http://www.w3.org/2000/svg" xmlns:xlink="http://www.w3.org/1999/xlink" x="0px" y="0px"
	 viewBox="0 0 512.001 512.001" style="enable-background:new 0 0 512.001 512.001;" xml:space="preserve">
<g>
	<g>
		<g>
			<path d="M271.101,309.077c53.23-15.164,53.295-90.972,0-106.154c-2.267-0.645-4.533,1.023-4.533,3.381v99.392
				C266.567,308.054,268.833,309.722,271.101,309.077z"/>
			<path d="M240.307,190.681c-31.771,16.154-68.392,21.124-103.497,13.841c-1.901-0.395-3.786,0.776-4.184,2.676
				c-12.008,57.355-66.719,96.301-124.921,88.663c-2.342-0.307-4.339,1.729-3.935,4.056c3.629,20.893,9.808,40.919,18.189,59.759
				c0.923,2.076,3.578,2.73,5.363,1.323c71.658-56.439,165.395-30.163,211.552,48.048c1.826,3.095,6.556,1.818,6.556-1.776V193.808
				C245.429,191.175,242.653,189.487,240.307,190.681z"/>
			<path d="M270.403,395.002c70.311-7.232,125.337-66.812,125.337-139.003s-55.025-131.77-125.337-139.003
				c-2.057-0.211-3.836,1.44-3.836,3.509v56.91c0,1.684,1.188,3.161,2.845,3.455c83.38,14.847,83.552,135.376,0,150.254
				c-1.659,0.296-2.845,1.771-2.845,3.455v56.91C266.567,393.562,268.344,395.214,270.403,395.002z"/>
			<path d="M36.037,381.184c-1.284,1.103-1.587,2.989-0.727,4.447c42.261,71.671,118.433,121.053,206.284,125.95
				c2.049,0.114,3.775-1.568,3.706-3.62C240.901,379.492,121.389,307.819,36.037,381.184z"/>
			<path d="M241.726,0.411C101.577,8.151-7.634,128.709,0.418,270.439c0.089,1.567,1.212,2.906,2.748,3.23
				c54.814,11.618,107.778-28.586,110.622-85.185c0.014-0.295,0.061-0.595,0.151-0.877c2.024-6.356,8.196-9.064,13.543-7.359
				c39.265,12.519,82.233,6.475,116.375-16.045c0.988-0.651,1.574-1.766,1.574-2.948V3.939
				C245.429,1.924,243.738,0.299,241.726,0.411z"/>
			<path d="M270.272,0.411c-2.012-0.111-3.703,1.513-3.703,3.529v88.276c0,1.84,1.419,3.35,3.252,3.506
				c82.263,7.035,147.058,76.226,147.058,160.279S352.084,409.245,269.821,416.28c-1.833,0.156-3.252,1.666-3.252,3.506v88.276
				c0,2.015,1.691,3.64,3.703,3.529c134.544-7.432,241.729-119.219,241.729-255.589S404.817,7.843,270.272,0.411z"/>
		</g>
	</g>
</g>
<g>
</g>
<g>
</g>
<g>
</g>
<g>
</g>
<g>
</g>
<g>
</g>
<g>
</g>
<g>
</g>
<g>
</g>
<g>
</g>
<g>
</g>
<g>
</g>
<g>
</g>
<g>
</g>
<g>
</g>
</svg>
