<?xml version="1.0" encoding="iso-8859-1"?>
<!-- Generator: Adobe Illustrator 19.0.0, SVG Export Plug-In . SVG Version: 6.00 Build 0)  -->
<svg version="1.1" id="Layer_1" xmlns="http://www.w3.org/2000/svg" xmlns:xlink="http://www.w3.org/1999/xlink" x="0px" y="0px"
	 viewBox="0 0 512 512" style="enable-background:new 0 0 512 512;" xml:space="preserve">
<g>
	<g>
		<path d="M428.864,0H83.136C72.032,0,63.03,9.002,63.03,20.107v471.787c0,11.104,9.002,20.107,20.107,20.107h345.727
			c11.104,0,20.107-9.002,20.107-20.107V20.107C448.97,9.002,439.968,0,428.864,0z M185.223,141.574
			c0-11.104,9.002-20.107,20.107-20.107c11.104,0,20.107,9.002,20.107,20.107v51.763h61.128v-51.763
			c0-11.104,9.002-20.107,20.107-20.107s20.107,9.002,20.107,20.107v143.74c0,11.104-9.002,20.107-20.107,20.107
			s-20.107-9.002-20.107-20.107v-51.763h-61.128v51.763c0,11.104-9.002,20.107-20.107,20.107c-11.104,0-20.107-9.002-20.107-20.107
			V141.574z M205.33,327.448H256c11.104,0,20.107,9.002,20.107,20.107c0,11.104-9.002,20.107-20.107,20.107h-50.67
			c-11.104,0-20.107-9.002-20.107-20.107C185.223,336.45,194.226,327.448,205.33,327.448z M164.903,112.508
			c0,11.104-9.002,20.107-20.107,20.107s-20.107-9.002-20.107-20.107v-30.74c0-11.104,9.002-20.107,20.107-20.107
			c11.104,0,20.107,9.002,20.107,20.107V112.508z M310.523,424.95H205.33c-11.104,0-20.107-9.002-20.107-20.107
			s9.002-20.107,20.107-20.107h105.193c11.104,0,20.107,9.002,20.107,20.107S321.627,424.95,310.523,424.95z"/>
	</g>
</g>
<g>
</g>
<g>
</g>
<g>
</g>
<g>
</g>
<g>
</g>
<g>
</g>
<g>
</g>
<g>
</g>
<g>
</g>
<g>
</g>
<g>
</g>
<g>
</g>
<g>
</g>
<g>
</g>
<g>
</g>
</svg>
