<?xml version="1.0" encoding="iso-8859-1"?>
<!-- Generator: Adobe Illustrator 19.0.0, SVG Export Plug-In . SVG Version: 6.00 Build 0)  -->
<svg version="1.1" id="Layer_1" xmlns="http://www.w3.org/2000/svg" xmlns:xlink="http://www.w3.org/1999/xlink" x="0px" y="0px"
	 viewBox="0 0 512 512" style="enable-background:new 0 0 512 512;" xml:space="preserve">
<g>
	<g>
		<g>
			<path d="M494.914,260.143c-0.004-0.006-0.008-0.013-0.011-0.019c-12.964-24.467-32.89-44.601-58.039-58.776V68.552h16.001
				c10.36,0,18.759-8.399,18.759-18.759s-8.399-18.759-18.759-18.759c-21.99,0-158.393,0-180.747,0
				c-10.36,0-18.759,8.399-18.759,18.759s8.399,18.759,18.759,18.759h15.999v132.797c-25.161,14.18-45.098,34.318-58.064,58.787
				c-0.001,0.001-0.001,0.003-0.003,0.004c-5.665,10.693-9.854,21.872-12.675,33.278V169.523h15.999
				c10.36,0,18.759-8.399,18.759-18.759c0-10.36-8.399-18.759-18.759-18.759c-17.416,0-163.34,0-180.747,0
				c-10.36,0-18.759,8.399-18.759,18.759c0,10.36,8.399,18.759,18.759,18.759h16.001v128.462L5.988,415.223
				c-16.94,29.152,4.066,65.744,37.859,65.744h198.306c17.494,0,31.541-9.816,38.691-23.319
				c22.47,14.564,49.958,23.319,81.645,23.319C483.752,480.967,543.919,352.669,494.914,260.143z M143.001,407.645
				c-13.918,0-25.2-11.282-25.2-25.199c0-13.918,11.282-25.201,25.2-25.201s25.2,11.283,25.2,25.201
				C168.2,396.362,156.918,407.645,143.001,407.645z M179.856,283.922h-73.711V169.523h73.711V283.922z M362.49,378.863
				c-13.918,0-25.2-11.282-25.2-25.2c0-13.918,11.282-25.201,25.2-25.201s25.2,11.283,25.2,25.201
				C387.69,367.58,376.407,378.863,362.49,378.863z M284.278,250.165c8.676-8.099,18.888-14.925,30.577-20.418
				c6.58-3.093,10.78-9.709,10.78-16.977V68.552h73.71V212.77c0,7.27,4.2,13.884,10.78,16.977
				c11.686,5.493,21.896,12.317,30.568,20.418H284.278z"/>
			<path d="M115.193,98.617c10.36,0,18.759-8.399,18.759-18.759V49.793c0-10.36-8.399-18.759-18.759-18.759
				s-18.759,8.399-18.759,18.759v30.065C96.434,90.218,104.833,98.617,115.193,98.617z"/>
			<path d="M170.807,98.617c10.36,0,18.759-8.399,18.759-18.759V49.793c0-10.36-8.399-18.759-18.759-18.759
				c-10.36,0-18.759,8.399-18.759,18.759v30.065C152.048,90.218,160.447,98.617,170.807,98.617z"/>
		</g>
	</g>
</g>
<g>
</g>
<g>
</g>
<g>
</g>
<g>
</g>
<g>
</g>
<g>
</g>
<g>
</g>
<g>
</g>
<g>
</g>
<g>
</g>
<g>
</g>
<g>
</g>
<g>
</g>
<g>
</g>
<g>
</g>
</svg>
