<?xml version="1.0" encoding="iso-8859-1"?>
<!-- Generator: Adobe Illustrator 19.0.0, SVG Export Plug-In . SVG Version: 6.00 Build 0)  -->
<svg version="1.1" id="Layer_1" xmlns="http://www.w3.org/2000/svg" xmlns:xlink="http://www.w3.org/1999/xlink" x="0px" y="0px"
	 viewBox="0 0 512 512" style="enable-background:new 0 0 512 512;" xml:space="preserve">
<g>
	<g>
		<path d="M461.913,172.522h-16.696v-50.087c0-9.228-7.467-16.696-16.696-16.696H16.696C7.467,105.739,0,113.207,0,122.435v267.13
			c0,9.228,7.467,16.696,16.696,16.696h411.826c9.228,0,16.696-7.467,16.696-16.696v-50.087h16.696
			c27.619,0,50.087-22.468,50.087-50.087v-66.783C512,194.99,489.532,172.522,461.913,172.522z M133.565,322.783
			c0,9.228-7.467,16.696-16.696,16.696H83.478c-9.228,0-16.696-7.467-16.696-16.696V189.217c0-9.228,7.467-16.696,16.696-16.696
			h33.391c9.228,0,16.696,7.467,16.696,16.696V322.783z M233.739,322.783c0,9.228-7.467,16.696-16.696,16.696h-33.391
			c-9.228,0-16.696-7.467-16.696-16.696V189.217c0-9.228,7.467-16.696,16.696-16.696h33.391c9.228,0,16.696,7.467,16.696,16.696
			V322.783z M333.913,322.783c0,9.228-7.467,16.696-16.696,16.696h-33.391c-9.228,0-16.696-7.467-16.696-16.696V189.217
			c0-9.228,7.467-16.696,16.696-16.696h33.391c9.228,0,16.696,7.467,16.696,16.696V322.783z"/>
	</g>
</g>
<g>
</g>
<g>
</g>
<g>
</g>
<g>
</g>
<g>
</g>
<g>
</g>
<g>
</g>
<g>
</g>
<g>
</g>
<g>
</g>
<g>
</g>
<g>
</g>
<g>
</g>
<g>
</g>
<g>
</g>
</svg>
