<?xml version="1.0" encoding="iso-8859-1"?>
<!-- Generator: Adobe Illustrator 19.0.0, SVG Export Plug-In . SVG Version: 6.00 Build 0)  -->
<svg version="1.1" id="Layer_1" xmlns="http://www.w3.org/2000/svg" xmlns:xlink="http://www.w3.org/1999/xlink" x="0px" y="0px"
	 viewBox="0 0 512 512" style="enable-background:new 0 0 512 512;" xml:space="preserve">
<g>
	<g>
		<polygon points="256,85.84 187.128,177.67 324.872,177.67 		"/>
	</g>
</g>
<g>
	<g>
		<path d="M264.709,40.098c14.849,19.74,12.889,17.138,89.327,119.119l44.678-119.119H264.709z"/>
	</g>
</g>
<g>
	<g>
		<polygon points="177.813,212.063 256,420.6 334.216,212.063 		"/>
	</g>
</g>
<g>
	<g>
		<path d="M82.132,54.917L0,177.67h128.176C114.591,141.455,99.3,100.686,82.132,54.917z"/>
	</g>
</g>
<g>
	<g>
		<path d="M237.442,468.983c-10.498-27.998-32.389-86.358-96.366-256.919H2.269l231.647,259.051
			C235.462,472.843,238.255,471.154,237.442,468.983z"/>
	</g>
</g>
<g>
	<g>
		<path d="M113.337,40.098l44.658,119.109c76.503-101.939,74.584-99.368,89.346-119.109H113.337z"/>
	</g>
</g>
<g>
	<g>
		<path d="M429.805,54.838c-17.199,45.867-32.474,86.605-46.059,122.832H512L429.805,54.838z"/>
	</g>
</g>
<g>
	<g>
		<path d="M370.85,212.063c-64.214,171.246-85.791,228.787-96.358,256.995c-0.813,2.171,1.98,3.858,3.525,2.13l231.715-259.125
			H370.85z"/>
	</g>
</g>
<g>
</g>
<g>
</g>
<g>
</g>
<g>
</g>
<g>
</g>
<g>
</g>
<g>
</g>
<g>
</g>
<g>
</g>
<g>
</g>
<g>
</g>
<g>
</g>
<g>
</g>
<g>
</g>
<g>
</g>
</svg>
