<?xml version="1.0" encoding="iso-8859-1"?>
<!-- Generator: Adobe Illustrator 19.0.0, SVG Export Plug-In . SVG Version: 6.00 Build 0)  -->
<svg version="1.1" id="Layer_1" xmlns="http://www.w3.org/2000/svg" xmlns:xlink="http://www.w3.org/1999/xlink" x="0px" y="0px"
	 viewBox="0 0 512 512" style="enable-background:new 0 0 512 512;" xml:space="preserve">
<g>
	<g>
		<path d="M139.13,278.261c-18.424,0-33.391,14.967-33.391,33.391v166.957c0,18.424,14.967,33.391,33.391,33.391
			c18.424,0,33.391-14.967,33.391-33.391V311.652C172.522,293.228,157.555,278.261,139.13,278.261z"/>
	</g>
</g>
<g>
	<g>
		<path d="M5.565,395.065c0,40.28,28.789,73.588,66.783,81.39V313.676C34.354,321.477,5.565,354.785,5.565,395.065z"/>
	</g>
</g>
<g>
	<g>
		<path d="M372.87,278.261c-18.424,0-33.391,14.967-33.391,33.391v166.957c0,18.424,14.967,33.391,33.391,33.391
			s33.391-14.967,33.391-33.391V311.652C406.261,293.228,391.294,278.261,372.87,278.261z"/>
	</g>
</g>
<g>
	<g>
		<path d="M439.652,313.676v162.778c37.994-7.801,66.783-41.109,66.783-81.389C506.435,354.785,477.646,321.477,439.652,313.676z"/>
	</g>
</g>
<g>
	<g>
		<path d="M256,0C117.902,0,5.565,112.337,5.565,250.435v63.93c9.559-9.834,20.779-17.963,33.391-24.002v-39.928
			C38.957,130.76,136.326,33.391,256,33.391s217.043,97.369,217.043,217.044v39.924c12.613,6.037,23.832,14.167,33.391,24.001
			v-63.924C506.435,112.337,394.098,0,256,0z"/>
	</g>
</g>
<g>
</g>
<g>
</g>
<g>
</g>
<g>
</g>
<g>
</g>
<g>
</g>
<g>
</g>
<g>
</g>
<g>
</g>
<g>
</g>
<g>
</g>
<g>
</g>
<g>
</g>
<g>
</g>
<g>
</g>
</svg>
