<?xml version="1.0" encoding="iso-8859-1"?>
<!-- Generator: Adobe Illustrator 19.0.0, SVG Export Plug-In . SVG Version: 6.00 Build 0)  -->
<svg version="1.1" id="Layer_1" xmlns="http://www.w3.org/2000/svg" xmlns:xlink="http://www.w3.org/1999/xlink" x="0px" y="0px"
	 viewBox="0 0 512 512" style="enable-background:new 0 0 512 512;" xml:space="preserve">
<g>
	<g>
		<path d="M492.51,158.033C438.49,27.618,288.45-34.53,158.034,19.49C27.619,73.51-34.53,223.549,19.49,353.965
			C73.51,484.382,223.551,546.53,353.965,492.509C484.381,438.49,546.53,288.45,492.51,158.033z M142.887,302.854l-92.548,38.334
			c-23.486-56.703-21.72-117.672,0.096-170.336l92.506,38.317C130.942,238.136,129.97,271.668,142.887,302.854z M341.149,50.433
			l-38.317,92.506c-28.965-11.997-62.499-12.97-93.685-0.053l-38.335-92.547C227.515,26.853,288.484,28.619,341.149,50.433z
			 M170.852,461.566l38.317-92.506c28.965,11.998,62.499,12.97,93.685,0.053l38.335,92.547
			C284.486,485.148,223.517,483.38,170.852,461.566z M290.075,338.265c-45.36,18.789-97.55-2.829-116.339-48.189
			c-18.789-45.362,2.829-97.553,48.19-116.341c45.36-18.788,97.55,2.829,116.339,48.19
			C357.053,267.285,335.436,319.476,290.075,338.265z M461.566,341.148L369.06,302.83c11.998-28.965,12.971-62.498,0.053-93.684
			l92.547-38.335C485.148,227.514,483.38,288.482,461.566,341.148z"/>
	</g>
</g>
<g>
</g>
<g>
</g>
<g>
</g>
<g>
</g>
<g>
</g>
<g>
</g>
<g>
</g>
<g>
</g>
<g>
</g>
<g>
</g>
<g>
</g>
<g>
</g>
<g>
</g>
<g>
</g>
<g>
</g>
</svg>
