<?xml version="1.0" encoding="iso-8859-1"?>
<!-- Generator: Adobe Illustrator 19.0.0, SVG Export Plug-In . SVG Version: 6.00 Build 0)  -->
<svg version="1.1" id="Layer_1" xmlns="http://www.w3.org/2000/svg" xmlns:xlink="http://www.w3.org/1999/xlink" x="0px" y="0px"
	 viewBox="0 0 511.999 511.999" style="enable-background:new 0 0 511.999 511.999;" xml:space="preserve">
<g>
	<g>
		<polygon points="344.465,129.907 344.465,433.987 443.988,392.563 443.988,90.104 		"/>
	</g>
</g>
<g>
	<g>
		<polygon points="68.01,116.637 68.01,418.589 167.534,378.774 167.534,76.843 		"/>
	</g>
</g>
<g>
	<g>
		<polygon points="200.708,79.057 200.708,378.447 311.29,432.618 311.29,130.094 		"/>
	</g>
</g>
<g>
	<g>
		<path d="M503.048,2.859c-4.557-3.089-10.345-3.725-15.454-1.663L328.342,64.888L191.075,1.53
			c-4.147-1.912-8.887-2.03-13.109-0.335L12.093,67.544c-6.306,2.516-10.432,8.618-10.432,15.4v409.153
			c0,5.507,2.732,10.648,7.29,13.737c4.557,3.089,10.345,3.714,15.454,1.663l159.037-63.617l135.646,66.424
			c2.3,1.133,4.795,1.695,7.301,1.695c2.16,0,4.33-0.421,6.372-1.274l167.364-69.664c6.188-2.57,10.216-8.618,10.216-15.313V16.594
			C510.338,11.088,507.605,5.948,503.048,2.859z M477.163,414.68l-150.226,62.537l-142.137-69.61L34.835,467.594V94.175
			l148.832-59.524l143.734,66.338l149.761-59.891V414.68z"/>
	</g>
</g>
<g>
</g>
<g>
</g>
<g>
</g>
<g>
</g>
<g>
</g>
<g>
</g>
<g>
</g>
<g>
</g>
<g>
</g>
<g>
</g>
<g>
</g>
<g>
</g>
<g>
</g>
<g>
</g>
<g>
</g>
</svg>
