<?xml version="1.0" encoding="iso-8859-1"?>
<!-- Generator: Adobe Illustrator 19.0.0, SVG Export Plug-In . SVG Version: 6.00 Build 0)  -->
<svg version="1.1" id="Layer_1" xmlns="http://www.w3.org/2000/svg" xmlns:xlink="http://www.w3.org/1999/xlink" x="0px" y="0px"
	 viewBox="0 0 512 512" style="enable-background:new 0 0 512 512;" xml:space="preserve">
<g>
	<g>
		<path d="M461.913,89.045h-56.462L376.674,31.49c-2.837-5.641-8.608-9.228-14.935-9.228H150.261
			c-6.327,0-12.098,3.587-14.935,9.228l-28.777,57.554H50.087C22.419,89.055,0.01,111.461,0,139.132v83.478h174.381
			c21.069-20.602,49.818-33.387,81.619-33.391c31.802,0.004,60.552,12.789,81.622,33.391H512v-83.478
			C511.99,111.461,489.581,89.055,461.913,89.045z M428.522,189.219H395.13c-9.22,0-16.696-7.475-16.696-16.696
			c0-9.223,7.475-16.696,16.696-16.696h33.391c9.22,0,16.696,7.473,16.696,16.696C445.217,181.743,437.742,189.219,428.522,189.219z
			"/>
	</g>
</g>
<g>
	<g>
		<path d="M256,289.39c-9.161,0.018-16.679,7.526-16.696,16.698c0.017,9.169,7.534,16.677,16.696,16.696
			c9.161-0.018,16.679-7.526,16.696-16.696C272.679,296.917,265.161,289.409,256,289.39z"/>
	</g>
</g>
<g>
	<g>
		<path d="M256,222.608c-46.099,0.083-83.395,37.382-83.478,83.48c0.083,46.097,37.379,83.395,83.478,83.478
			c46.099-0.083,83.395-37.382,83.478-83.478C339.395,259.989,302.099,222.691,256,222.608z M256,356.173
			c-27.655-0.027-50.058-22.408-50.087-50.085c0.029-27.679,22.432-50.06,50.087-50.087c27.655,0.027,50.058,22.408,50.087,50.087
			C306.058,333.765,283.655,356.146,256,356.173z"/>
	</g>
</g>
<g>
	<g>
		<path d="M361.187,256.001c7.273,15.23,11.68,32.081,11.682,50.087c-0.01,64.551-52.319,116.857-116.87,116.867
			c-64.551-0.01-116.86-52.316-116.87-116.867c0.002-18.006,4.41-34.857,11.682-50.087H0v183.652
			c0.01,27.668,22.419,50.075,50.087,50.085h411.826c27.668-0.01,50.077-22.417,50.087-50.085V256.001H361.187z"/>
	</g>
</g>
<g>
</g>
<g>
</g>
<g>
</g>
<g>
</g>
<g>
</g>
<g>
</g>
<g>
</g>
<g>
</g>
<g>
</g>
<g>
</g>
<g>
</g>
<g>
</g>
<g>
</g>
<g>
</g>
<g>
</g>
</svg>
