<?xml version="1.0" encoding="iso-8859-1"?>
<!-- Generator: Adobe Illustrator 19.0.0, SVG Export Plug-In . SVG Version: 6.00 Build 0)  -->
<svg version="1.1" id="Layer_1" xmlns="http://www.w3.org/2000/svg" xmlns:xlink="http://www.w3.org/1999/xlink" x="0px" y="0px"
	 viewBox="0 0 512 512" style="enable-background:new 0 0 512 512;" xml:space="preserve">
<g>
	<g>
		<path d="M184.765,86.883c-27.619,0-50.087,22.468-50.087,50.087s22.468,50.087,50.087,50.087
			c27.619,0,50.087-22.468,50.087-50.087C234.852,109.351,212.384,86.883,184.765,86.883z"/>
	</g>
</g>
<g>
	<g>
		<path d="M461.913,0H50.087C22.468,0,0,22.468,0,50.087v411.826C0,489.532,22.468,512,50.087,512h411.826
			C489.532,512,512,489.532,512,461.913V50.087C512,22.468,489.532,0,461.913,0z M445.217,293.609l-88.368-88.37
			c-6.521-6.52-17.091-6.52-23.613,0L228.174,310.304l-60.544-54.979c-6.52-6.52-17.089-6.52-23.609,0L66.783,327V83.478
			c0-9.228,7.467-16.696,16.696-16.696h345.043c9.228,0,16.696,7.467,16.696,16.696V293.609z"/>
	</g>
</g>
<g>
</g>
<g>
</g>
<g>
</g>
<g>
</g>
<g>
</g>
<g>
</g>
<g>
</g>
<g>
</g>
<g>
</g>
<g>
</g>
<g>
</g>
<g>
</g>
<g>
</g>
<g>
</g>
<g>
</g>
</svg>
