<?xml version="1.0" encoding="iso-8859-1"?>
<!-- Generator: Adobe Illustrator 19.0.0, SVG Export Plug-In . SVG Version: 6.00 Build 0)  -->
<svg version="1.1" id="Layer_1" xmlns="http://www.w3.org/2000/svg" xmlns:xlink="http://www.w3.org/1999/xlink" x="0px" y="0px"
	 viewBox="0 0 512 512" style="enable-background:new 0 0 512 512;" xml:space="preserve">
<g>
	<g>
		<path d="M444.233,169.659C434.593,72.932,353.671,0,256.011,0C151.677,0,66.798,84.878,66.798,189.212
			c0,41.238,12.957,80.324,37.489,113.062l137.876,202.356c3.109,4.609,8.293,7.369,13.847,7.369c5.554,0,10.738-2.76,13.847-7.369
			l137.496-201.855C435.929,264.831,449.025,217.55,444.233,169.659z M256.011,272.689c-46.031,0-83.476-37.445-83.476-83.476
			s37.444-83.476,83.476-83.476c46.031,0,83.476,37.445,83.476,83.476S302.042,272.689,256.011,272.689z"/>
	</g>
</g>
<g>
</g>
<g>
</g>
<g>
</g>
<g>
</g>
<g>
</g>
<g>
</g>
<g>
</g>
<g>
</g>
<g>
</g>
<g>
</g>
<g>
</g>
<g>
</g>
<g>
</g>
<g>
</g>
<g>
</g>
</svg>
