<?xml version="1.0" encoding="iso-8859-1"?>
<!-- Generator: Adobe Illustrator 19.0.0, SVG Export Plug-In . SVG Version: 6.00 Build 0)  -->
<svg version="1.1" id="Layer_1" xmlns="http://www.w3.org/2000/svg" xmlns:xlink="http://www.w3.org/1999/xlink" x="0px" y="0px"
	 viewBox="0 0 512 512" style="enable-background:new 0 0 512 512;" xml:space="preserve">
<g>
	<g>
		<path d="M272.697,123.461v272.586c80.593-53.581,100.35-154.912,104.951-219.966C341.618,161.356,308.241,144.142,272.697,123.461
			z"/>
	</g>
</g>
<g>
	<g>
		<path d="M133.603,176.082c4.589,65.047,25.138,166.357,105.701,219.95V123.476C203.777,144.15,169.614,161.36,133.603,176.082z"/>
	</g>
</g>
<g>
	<g>
		<path d="M467.001,103.72C393.837,79.402,337.221,51.142,264.963,2.825c-5.632-3.766-13.074-3.767-18.707-0.001
			c-72.081,48.188-128.538,76.421-201.269,100.65c-6.3,2.098-11.616,9.244-11.604,15.885
			c0.356,193.325,73.008,340.158,216.812,391.697c3.498,1.26,7.334,1.261,10.816,0c143.774-51.527,217.182-198.244,217.606-391.442
			C478.632,112.967,473.308,105.816,467.001,103.72z M410.335,166.187c-3.555,76.504-27.473,213.629-147.737,271.885
			c-4.442,2.145-9.537,2.145-13.979,0C128.356,379.805,104.46,242.692,100.913,166.177c-0.318-6.883,3.791-13.109,10.205-15.628
			c46.407-18.228,89.617-40.093,135.98-68.814c5.197-3.219,11.843-3.218,17.039,0.001c46.353,28.725,89.564,50.584,135.983,68.808
			C406.541,153.065,410.656,159.297,410.335,166.187z"/>
	</g>
</g>
<g>
</g>
<g>
</g>
<g>
</g>
<g>
</g>
<g>
</g>
<g>
</g>
<g>
</g>
<g>
</g>
<g>
</g>
<g>
</g>
<g>
</g>
<g>
</g>
<g>
</g>
<g>
</g>
<g>
</g>
</svg>
