<?xml version="1.0" encoding="iso-8859-1"?>
<!-- Generator: Adobe Illustrator 19.0.0, SVG Export Plug-In . SVG Version: 6.00 Build 0)  -->
<svg version="1.1" id="Layer_1" xmlns="http://www.w3.org/2000/svg" xmlns:xlink="http://www.w3.org/1999/xlink" x="0px" y="0px"
	 viewBox="0 0 511.999 511.999" style="enable-background:new 0 0 511.999 511.999;" xml:space="preserve">
<g>
	<g>
		<path d="M404.412,187.012c-7.706-28.484-38.366-44.848-66.823-33.411c-7.333-27.109-35.916-44.311-64.891-34.01V49.697
			c-0.025-66.211-100.21-66.314-100.234,0v257.784c-25.355-25.355-48.037-48.037-48.092-48.092
			c-19.53-19.555-51.347-19.555-70.874,0.002c-19.517,19.484-19.587,51.296,0.002,70.869
			c4.844,4.84,127.641,127.641,132.483,132.483c31.551,31.551,74.329,49.256,118.944,49.254v0.002
			c92.924-0.012,168.23-75.318,168.24-168.24c0-33.412,0-28.031,0-110.301C473.152,198.235,437.579,173.681,404.412,187.012z"/>
	</g>
</g>
<g>
</g>
<g>
</g>
<g>
</g>
<g>
</g>
<g>
</g>
<g>
</g>
<g>
</g>
<g>
</g>
<g>
</g>
<g>
</g>
<g>
</g>
<g>
</g>
<g>
</g>
<g>
</g>
<g>
</g>
</svg>
