<?xml version="1.0" encoding="iso-8859-1"?>
<!-- Generator: Adobe Illustrator 19.0.0, SVG Export Plug-In . SVG Version: 6.00 Build 0)  -->
<svg version="1.1" id="Layer_1" xmlns="http://www.w3.org/2000/svg" xmlns:xlink="http://www.w3.org/1999/xlink" x="0px" y="0px"
	 viewBox="0 0 512 512" style="enable-background:new 0 0 512 512;" xml:space="preserve">
<g>
	<g>
		<path d="M49.073,286.157l-27.547-13.108C10.96,269.527,0,277.422,0,288.567v163.578c0,11.123,10.938,19.051,21.527,15.518
			c34.82-16.569,18.103-8.617,76.62-36.445V309.494L49.073,286.157z"/>
	</g>
</g>
<g>
	<g>
		<path d="M441.661,239.592H179.936c-27.155,0-49.073,21.918-49.073,49.073v163.578c0,27.153,21.918,49.073,49.073,49.073h261.725
			c27.155,0,49.073-21.921,49.073-49.073V288.665C490.735,261.511,468.816,239.592,441.661,239.592z"/>
	</g>
</g>
<g>
	<g>
		<path d="M414.049,10.683c-54.161-0.022-97.969,43.772-97.951,97.951c-0.017,54.159,43.772,97.969,97.951,97.948
			c54.163,0.02,97.969-43.776,97.951-97.948C512.017,54.47,468.228,10.66,414.049,10.683z M414.113,141.284h-0.096
			c-18.265,0-32.619-14.666-32.619-32.619c0-18.211,14.524-32.682,32.587-32.682c18.456,0,32.715,14.699,32.715,32.619
			C446.7,126.969,432.02,141.284,414.113,141.284z"/>
	</g>
</g>
<g>
	<g>
		<path d="M207.548,10.683c-54.161-0.022-97.969,43.772-97.951,97.951c-0.017,54.159,43.772,97.969,97.951,97.948
			c54.163,0.02,97.969-43.776,97.951-97.948C305.517,54.47,261.727,10.66,207.548,10.683z M207.612,141.284h-0.096
			c-18.265,0-32.619-14.666-32.619-32.619c0-18.211,14.524-32.682,32.587-32.682c18.456,0,32.715,14.699,32.715,32.619
			C240.198,126.969,225.52,141.284,207.612,141.284z"/>
	</g>
</g>
<g>
</g>
<g>
</g>
<g>
</g>
<g>
</g>
<g>
</g>
<g>
</g>
<g>
</g>
<g>
</g>
<g>
</g>
<g>
</g>
<g>
</g>
<g>
</g>
<g>
</g>
<g>
</g>
<g>
</g>
</svg>
