<?xml version="1.0" encoding="iso-8859-1"?>
<!-- Generator: Adobe Illustrator 19.0.0, SVG Export Plug-In . SVG Version: 6.00 Build 0)  -->
<svg version="1.1" id="Capa_1" xmlns="http://www.w3.org/2000/svg" xmlns:xlink="http://www.w3.org/1999/xlink" x="0px" y="0px"
	 viewBox="0 0 512 512" style="enable-background:new 0 0 512 512;" xml:space="preserve">
<g>
	<g>
		<path d="M506,154.007L385.999,64.006c-9.818-7.372-23.994-0.386-23.994,11.997v45.001H163.303C73.258,121.004,0,194.26,0,284.32
			v3.398c0,90.031,73.258,163.288,163.303,163.288h273.702c8.291,0,15-6.708,15.001-14.999v-60.001c0-8.291-6.709-15-15-15H165.003
			c-42.959,0-77.163-35.865-74.884-79.044v-0.015c2.036-39.111,37.91-70.943,79.981-70.943h191.904v45.001
			c0,12.485,14.334,19.336,23.994,11.997L506,178.001C514.006,172.012,513.994,159.987,506,154.007z"/>
	</g>
</g>
<g>
</g>
<g>
</g>
<g>
</g>
<g>
</g>
<g>
</g>
<g>
</g>
<g>
</g>
<g>
</g>
<g>
</g>
<g>
</g>
<g>
</g>
<g>
</g>
<g>
</g>
<g>
</g>
<g>
</g>
</svg>
