<?xml version="1.0" encoding="iso-8859-1"?>
<!-- Generator: Adobe Illustrator 19.0.0, SVG Export Plug-In . SVG Version: 6.00 Build 0)  -->
<svg version="1.1" id="Capa_1" xmlns="http://www.w3.org/2000/svg" xmlns:xlink="http://www.w3.org/1999/xlink" x="0px" y="0px"
	 viewBox="0 0 512 512" style="enable-background:new 0 0 512 512;" xml:space="preserve">
<g>
	<g>
		<path d="M360.788,179.663c-66.167,0-119.8,54.833-119.8,121v45c0,8.291,6.509,16.337,14.8,16.337h60c8.291,0,15-6.709,15-15v-45
			c0-16.538,13.462-32.337,30-32.337c23.416,0,30.615,21.88,30.615,45.286c0,43.169-33.559,107.251-105.615,107.251
			c-57.891,0-105-47.309-105-105.2V150h45c12.352,0,19.396-14.487,11.997-24.331l-90-120c-5.654-7.559-18.34-7.559-23.994,0l-90,120
			C26.4,135.503,33.425,150,45.788,150h45.2v167c0,107.52,87.28,195,194.8,195c122.344,0,195.44-100.356,195.439-197.373
			C481.227,237.299,437.479,179.663,360.788,179.663z"/>
	</g>
</g>
<g>
</g>
<g>
</g>
<g>
</g>
<g>
</g>
<g>
</g>
<g>
</g>
<g>
</g>
<g>
</g>
<g>
</g>
<g>
</g>
<g>
</g>
<g>
</g>
<g>
</g>
<g>
</g>
<g>
</g>
</svg>
