<?xml version="1.0" encoding="iso-8859-1"?>
<!-- Generator: Adobe Illustrator 19.0.0, SVG Export Plug-In . SVG Version: 6.00 Build 0)  -->
<svg version="1.1" id="Capa_1" xmlns="http://www.w3.org/2000/svg" xmlns:xlink="http://www.w3.org/1999/xlink" x="0px" y="0px"
	 viewBox="0 0 512 512" style="enable-background:new 0 0 512 512;" xml:space="preserve">
<g>
	<g>
		<path d="M497,0H347c-13.361,0-20.018,16.193-10.606,25.606l42.642,42.656L244.71,194.692L131.821,69.39l43.784-43.785
			C185.014,16.197,178.365,0,165,0H15C6.709,0,0,6.709,0,15v150c0,13.329,16.15,20.029,25.605,10.606l42.686-42.686L197,274.102
			v221.967c0,8.291,6.709,15.931,15,15.931h60c8.291,0,15-6.709,15-15V276.533l155.655-144.654l43.74,43.726
			C495.95,185.096,512,178.243,512,165V15C512,6.709,505.291,0,497,0z"/>
	</g>
</g>
<g>
</g>
<g>
</g>
<g>
</g>
<g>
</g>
<g>
</g>
<g>
</g>
<g>
</g>
<g>
</g>
<g>
</g>
<g>
</g>
<g>
</g>
<g>
</g>
<g>
</g>
<g>
</g>
<g>
</g>
</svg>
