<?xml version="1.0" encoding="iso-8859-1"?>
<!-- Generator: Adobe Illustrator 19.0.0, SVG Export Plug-In . SVG Version: 6.00 Build 0)  -->
<svg version="1.1" id="Capa_1" xmlns="http://www.w3.org/2000/svg" xmlns:xlink="http://www.w3.org/1999/xlink" x="0px" y="0px"
	 viewBox="0 0 512 512" style="enable-background:new 0 0 512 512;" xml:space="preserve">
<g>
	<g>
		<path d="M180.747,116.404l-48.325-47.615l43.184-43.184C185.034,16.177,178.342,0,165.015,0H15C6.709,0,0,6.709,0,15v150
			c0,13.324,16.173,19.974,25.592,10.621c0.864-0.864,29.106-28.384,43.74-42.656l47.783,47.073
			c19.834,19.834,30.747,46.201,30.747,74.253c0,46.054-25.505,73.799-97.458,144.273c-13.696,13.432-29.004,28.403-45.996,45.41
			c-5.922,5.922-5.827,15.414-0.015,21.196c0.381,0.381,41.104,41.089,42.378,42.378c5.844,5.905,15.38,5.948,21.269,0.059
			c14.751-14.751,28.55-28.242,41.367-40.796c81.944-80.171,128.366-128.336,128.366-212.521
			C237.773,202.141,217.515,153.172,180.747,116.404z"/>
	</g>
</g>
<g>
	<g>
		<g>
			<polygon points="331.238,116.417 331.249,116.406 331.253,116.402 			"/>
			<path d="M507.591,443.972c-16.992-17.007-32.3-31.977-45.996-45.41c-71.953-70.473-97.456-98.218-97.456-144.273
				c0-28.052,10.913-54.419,30.747-74.253l47.783-47.072c17.287,16.859,42.876,41.792,43.74,42.656
				C495.964,185.078,512,178.19,512,165V15c0-8.291-6.709-15-15-15H346.985c-13.333,0-20.012,16.184-10.591,25.604l43.184,43.184
				l-48.329,47.618c-36.764,36.768-57.022,85.736-57.022,137.882c0,84.185,46.421,132.35,128.364,212.521
				c12.817,12.554,26.616,26.045,41.367,40.796c5.856,5.856,15.352,5.86,21.211,0l42.451-42.451
				C513.48,459.294,513.45,449.831,507.591,443.972z"/>
		</g>
	</g>
</g>
<g>
</g>
<g>
</g>
<g>
</g>
<g>
</g>
<g>
</g>
<g>
</g>
<g>
</g>
<g>
</g>
<g>
</g>
<g>
</g>
<g>
</g>
<g>
</g>
<g>
</g>
<g>
</g>
<g>
</g>
</svg>
