<?xml version="1.0" encoding="iso-8859-1"?>
<!-- Generator: Adobe Illustrator 19.0.0, SVG Export Plug-In . SVG Version: 6.00 Build 0)  -->
<svg xmlns="http://www.w3.org/2000/svg" xmlns:xlink="http://www.w3.org/1999/xlink" version="1.1" id="Capa_1" x="0px" y="0px" viewBox="0 0 512 512" style="enable-background:new 0 0 512 512;" xml:space="preserve">
<g>
	<g>
		<path d="M334.467,190.524c-1.609-2.98-5.328-4.09-8.307-2.482l-24.729,13.353c-2.98,1.609-4.09,5.328-2.482,8.307l3.543,6.562    c8.049-8.351,20.276-11.782,31.802-8.268l11.501,3.507L334.467,190.524z"/>
	</g>
</g>
<g>
	<g>
		<path d="M510.415,480.257l-36.412-88.376l-2.719-64.949h0.022V196.328c0-14.059-11.397-25.455-25.455-25.455h-45.395    c-14.059,0-25.455,11.397-25.455,25.455v24.081l16.297,4.969l22.062-27.454l-20.652,43.214l-62.693-19.114    c-8.853-2.7-18.219,2.289-20.917,11.142c-2.7,8.853,2.29,18.218,11.142,20.917l76.484,23.319    c7.923,2.416,16.432-1.321,20.008-8.805l26.867-56.22l-13.637,62.543c-3.059,14.031-17.425,22.58-31.317,18.399    c-8.02-2.447-3.157-0.964-23.646-7.211v40.139l-19.667,53.62c-0.52,1.419-0.886,2.89-1.09,4.388l-13.771,101.159    c-1.561,11.464,6.468,22.022,17.931,23.581c11.453,1.562,22.021-6.461,23.581-17.931l13.464-98.904l23.925-65.229h9.999    c0,0.84-0.2-4.246,2.923,70.39c0.102,2.441,0.631,4.846,1.562,7.104l37.818,91.79c4.408,10.699,16.653,15.795,27.349,11.388    C509.723,503.198,514.823,490.954,510.415,480.257z"/>
	</g>
</g>
<g>
	<g>
		<circle cx="433.868" cy="120.453" r="37.683"/>
	</g>
</g>
<g>
	<g>
		<path d="M190.54,169.049l-32.198-68.249c-3.7-7.843-12.784-11.404-20.756-8.379c7.857,9.156,12.622,21.041,12.622,34.024    c0,8.274-1.938,16.102-5.373,23.065l8.213,17.408l-27.397,10.253H53.194l-12.483-2.311l25.226-54.029    c3.854-8.257,0.286-18.077-7.97-21.931c-8.259-3.855-18.077-0.286-21.932,7.971L1.559,180.712    c-4.644,9.947,1.557,21.545,12.34,23.273l57.44,9.207l-22.74,1.922v114.63h0.041c0,0.01-0.001,0.019-0.001,0.029l0.227,158.819    c0.017,11.381,9.247,20.596,20.625,20.596c0.01,0,0.021,0,0.031,0c11.391-0.016,20.612-9.263,20.596-20.654L89.89,329.745h9.841    l22.634,61.711l-11.039,94.72c-1.319,11.314,6.785,21.556,18.099,22.874c11.36,1.318,21.561-6.825,22.874-18.099l11.606-99.599    c0.374-3.208-0.011-6.457-1.123-9.489l-19.364-52.794V223.361v-17.603l37.982-14.215c4.32-1.617,7.767-4.969,9.503-9.242    C192.64,178.027,192.509,173.221,190.54,169.049z"/>
	</g>
</g>
<g>
	<g>
		<path d="M97.882,89.343c-8.01,0-15.421,2.547-21.484,6.863c6.063,8.749,7.451,20.392,2.623,30.733l-10.408,22.292    c6.79,8.709,17.371,14.316,29.27,14.316c20.49,0,37.102-16.612,37.102-37.102C134.984,105.954,118.373,89.343,97.882,89.343z"/>
	</g>
</g>
<g>
	<g>
		<path d="M356.745,2.81c-5.779,0-10.954,1.055-14.527,2.724c-1.165-1.47-2.964-2.416-4.985-2.416s-3.819,0.946-4.985,2.416    c-3.573-1.668-8.748-2.725-14.527-2.725c-10.776,0-19.511,3.651-19.511,8.155c0,4.504,8.735,8.155,19.511,8.155    c5.074,0,9.679-0.816,13.149-2.142V42.99h-49.085c1.649-4.678-6.868-10.091-17.589-12.024c-1.124-0.203-2.227-0.352-3.313-0.468    v-13.52c3.47,1.327,8.076,2.142,13.149,2.142c10.776,0,19.512-3.651,19.512-8.155s-8.735-8.155-19.512-8.155    c-5.779,0-10.954,1.055-14.527,2.724c-1.166-1.47-2.964-2.416-4.985-2.416s-3.819,0.946-4.985,2.416    c-3.572-1.668-8.748-2.725-14.527-2.725c-10.776,0-19.511,3.651-19.511,8.155c0,4.504,8.735,8.155,19.511,8.155    c5.074,0,9.679-0.816,13.149-2.142v12.449c-0.865-0.812-1.963-1.395-3.218-1.622c-1.995-0.361-3.932,0.251-5.338,1.491    c-3.22-2.276-8.125-4.233-13.81-5.258c-10.605-1.913-19.85,0.13-20.65,4.561c-0.799,4.432,7.149,9.576,17.754,11.489    c4.993,0.901,9.67,0.916,13.321,0.226l-4.618,25.599l-68.876-12.425l4.618-25.599c3.18,1.921,7.567,3.542,12.56,4.443    c10.605,1.913,19.85-0.13,20.65-4.561c0.799-4.433-7.149-9.576-17.754-11.489c-5.686-1.025-10.968-0.905-14.78,0.102    c-0.886-1.654-2.487-2.904-4.476-3.263c-1.996-0.361-3.932,0.251-5.338,1.491c-3.22-2.275-8.125-4.232-13.81-5.257    c-10.605-1.913-19.85,0.13-20.65,4.561c-0.799,4.433,7.149,9.577,17.754,11.489c4.992,0.901,9.67,0.915,13.321,0.226    l-5.272,29.229c-1.163,1.177-1.997,2.704-2.312,4.455c-0.768,4.262,1.795,8.349,5.829,9.6l-3.711,6.486    c4.248,0.78,8.315,2.385,11.955,4.73l5.007-8.753l4.042,0.729l-2.458,13.622c2.117,2.345,3.934,5.032,5.352,8.038l6.658,14.112    l24.044,4.337c4.441,0.8,8.69-2.15,9.491-6.591l4.498-24.936l4.042,0.73l8.97,54.641c0.57,3.475,3.85,5.817,7.309,5.247    c3.467-0.568,5.817-3.841,5.247-7.309l-2.982-18.163c0.135,0.058,0.267,0.119,0.408,0.168c3.311,1.175,6.949-0.554,8.125-3.866    l18.527-52.18h4.107v25.339c0,4.512,3.659,8.171,8.171,8.171h32.013c4.518,0,8.176-3.658,8.176-8.171V59.957h4.107l18.528,52.18    c1.176,3.311,4.813,5.042,8.125,3.867c3.311-1.176,5.042-4.813,3.866-8.125l-17.041-47.993c4.192-0.515,7.441-4.08,7.441-8.413    c0-1.779-0.549-3.428-1.485-4.791V16.978c3.471,1.327,8.076,2.142,13.149,2.142c10.776,0,19.511-3.651,19.511-8.155    S367.521,2.81,356.745,2.81z M201.227,89.743c-0.915,5.072-5.769,8.442-10.84,7.526c-5.072-0.915-8.442-5.768-7.527-10.84    c0.915-5.072,5.768-8.442,10.84-7.527C198.772,79.818,202.142,84.671,201.227,89.743z M238.546,103.732l-3.282-19.991    c0.159,0.009,0.318,0.021,0.476,0.021c4.025,0,7.598-2.877,8.339-6.979c0.315-1.75,0.067-3.47-0.611-4.978l3.369-18.679    c0.704,3.558,3.632,6.31,7.276,6.758L238.546,103.732z M295.878,81.165c-5.154,0-9.332-4.178-9.332-9.332s4.178-9.332,9.332-9.332    c5.154,0,9.332,4.178,9.332,9.332S301.032,81.165,295.878,81.165z"/>
	</g>
</g>
<g>
</g>
<g>
</g>
<g>
</g>
<g>
</g>
<g>
</g>
<g>
</g>
<g>
</g>
<g>
</g>
<g>
</g>
<g>
</g>
<g>
</g>
<g>
</g>
<g>
</g>
<g>
</g>
<g>
</g>
</svg>
