<?xml version="1.0" encoding="iso-8859-1"?>
<!-- Generator: Adobe Illustrator 19.0.0, SVG Export Plug-In . SVG Version: 6.00 Build 0)  -->
<svg xmlns="http://www.w3.org/2000/svg" xmlns:xlink="http://www.w3.org/1999/xlink" version="1.1" id="Capa_1" x="0px" y="0px" viewBox="0 0 512 512" style="enable-background:new 0 0 512 512;" xml:space="preserve">
<g>
	<g>
		<path d="M256.426,160.082c-5.137-7.768-15.6-9.901-23.367-4.761l-48.653,32.185l-19.036-1.047    c-3.517-9.946-13-17.073-24.15-17.073H95.54c-14.147,0-25.615,11.468-25.615,25.614v131.42h0.022l-2.472,59.055L8.468,429.541    c-9.328,6.966-11.242,20.174-4.277,29.502c6.967,9.33,20.176,11.241,29.502,4.277l67.039-50.062    c5.08-3.794,8.183-9.674,8.448-16.008c3.142-75.096,2.94-69.983,2.942-70.83h10.062l23.188,63.223l-9.846,96.96    c-1.258,12.388,8.453,23.21,20.997,23.21c10.684,0,19.843-8.093,20.946-18.951l10.336-101.789    c0.323-3.178-0.081-6.389-1.181-9.389l-19.79-53.957v-40.765c-18.459,6.034-13.869,4.534-23.115,7.556    c-13.936,4.555-28.961-3.804-32.19-18.435l-13.723-62.936l27.036,56.574c3.651,7.639,12.402,11.389,20.455,8.758l68.849-22.506    c8.853-2.894,13.683-12.415,10.789-21.268c-2.894-8.854-12.419-13.683-21.268-10.789l-54.778,17.906l-20.653-43.216l21.921,27.279    l16.677-5.452l32.248-10.541c5.641-1.844,11.425-2.011,16.819-0.782l35.765-23.659    C259.433,178.312,261.564,167.85,256.426,160.082z"/>
	</g>
</g>
<g>
	<g>
		<circle cx="118.582" cy="116.791" r="37.918"/>
	</g>
</g>
<g>
	<g>
		<path d="M358.371,28.503c-6.697-1.208-12.932-1.077-17.424,0.109c-1.046-1.944-2.931-3.411-5.271-3.834    c-2.337-0.421-4.616,0.296-6.276,1.752c-3.795-2.681-9.591-4.983-16.29-6.191c-12.499-2.255-23.395,0.152-24.337,5.376    c-0.943,5.224,8.426,11.286,20.925,13.541c5.876,1.06,11.397,1.089,15.698,0.28l-5.44,30.157l-81.176-14.644l5.44-30.156    c3.746,2.261,8.93,4.162,14.806,5.222c12.499,2.255,23.395-0.152,24.337-5.376c0.943-5.224-8.426-11.286-20.925-13.541    c-6.697-1.208-12.932-1.077-17.424,0.109c-1.046-1.944-2.931-3.411-5.271-3.834c-2.338-0.419-4.617,0.297-6.276,1.752    c-3.795-2.681-9.591-4.983-16.29-6.191c-12.499-2.255-23.395,0.152-24.337,5.376c-0.942,5.223,8.427,11.286,20.925,13.541    c5.876,1.06,11.397,1.089,15.698,0.28l-6.213,34.442c-1.37,1.385-2.353,3.182-2.725,5.244c-0.906,5.023,2.115,9.84,6.869,11.314    l-29.807,52.101c-2.057,3.595-0.81,8.177,2.785,10.232c3.593,2.057,8.176,0.812,10.232-2.785l32.408-56.647l4.764,0.86    l-5.582,30.945c-0.789,4.374,2.118,8.561,6.492,9.35l40.244,7.26c4.374,0.789,8.561-2.118,9.35-6.492l5.582-30.945l4.764,0.86    l5.069,30.877l13.269-11.76l-2.689-16.379c5.082,0.285,9.499-3.268,10.388-8.201c0.372-2.063,0.08-4.089-0.719-5.867l6.212-34.441    c3.746,2.261,8.93,4.162,14.806,5.222c12.499,2.255,23.395-0.152,24.337-5.376C380.239,36.82,370.87,30.757,358.371,28.503z     M284.157,97.778c-1.078,5.978-6.798,9.949-12.776,8.872c-5.979-1.079-9.95-6.799-8.872-12.777    c1.079-5.978,6.798-9.949,12.776-8.871C281.263,86.08,285.234,91.8,284.157,97.778z"/>
	</g>
</g>
<g>
	<g>
		<path d="M405.65,86.092c-5.738-0.768-11.345-0.195-16.51,1.472c1.198,0.998,2.335,2.098,3.399,3.299    c11.486,12.96,10.292,32.777-2.668,44.264l-16.222,14.378c5.68,5.877,13.3,9.96,22.03,11.128    c20.584,2.754,39.503-11.701,42.256-32.285C440.688,107.764,426.233,88.845,405.65,86.092z"/>
	</g>
</g>
<g>
	<g>
		<path d="M511.147,249.086c-2.906-8.768-12.374-13.516-21.135-10.614l-50.513,16.739l-15.525-33.184l2.155-16.104    c1.86-13.905-7.905-26.686-21.81-28.546l-40.06-5.359l-23.474-12.939l39.381-34.904c6.912-6.126,7.549-16.695,1.423-23.607    c-6.125-6.913-16.695-7.548-23.606-1.423l-56.206,49.816c-8.374,7.422-7.23,20.848,2.297,26.739l46.12,28.521l-19.995-5.973    L314.661,322.5l-2.061,49.248l-44.082,106.991c-4.732,11.487,0.743,24.637,12.23,29.37c11.493,4.734,24.64-0.748,29.37-12.23    l45.593-110.659c0.999-2.426,1.566-5.008,1.677-7.629l2.055-49.101l5.689,0.761l22.807,62.182l13.436,98.696    c1.554,11.418,12.066,19.449,23.532,17.893c11.439-1.558,19.45-12.093,17.893-23.533l-13.742-100.943    c-0.203-1.495-0.567-2.963-1.087-4.378l-18.332-49.981l6.13-45.821c3.738,7.322,12.27,10.876,20.141,8.27l64.623-21.414    C509.299,267.315,514.052,257.853,511.147,249.086z"/>
	</g>
</g>
<g>
</g>
<g>
</g>
<g>
</g>
<g>
</g>
<g>
</g>
<g>
</g>
<g>
</g>
<g>
</g>
<g>
</g>
<g>
</g>
<g>
</g>
<g>
</g>
<g>
</g>
<g>
</g>
<g>
</g>
</svg>
