<?xml version="1.0" encoding="iso-8859-1"?>
<!-- Generator: Adobe Illustrator 19.0.0, SVG Export Plug-In . SVG Version: 6.00 Build 0)  -->
<svg xmlns="http://www.w3.org/2000/svg" xmlns:xlink="http://www.w3.org/1999/xlink" version="1.1" id="Capa_1" x="0px" y="0px" viewBox="0 0 511.999 511.999" style="enable-background:new 0 0 511.999 511.999;" xml:space="preserve">
<g>
	<g>
		<path d="M498.341,71.039c-7.007-5.488-14.362-8.662-19.465-8.831c-1.023-1.566-2.6-2.777-4.553-3.286    c-2.393-0.623-4.814-0.062-6.651,1.314c-3.722-3.083-9.551-5.935-16.401-7.723c-12.784-3.338-24.278-1.713-25.673,3.631    c-1.395,5.342,7.837,12.38,20.621,15.717c6.01,1.569,11.734,2.041,16.258,1.545l-8.053,30.845l-83.027-21.677l5.971-22.869    c0.405,1.147,0.842,2.302,1.342,3.467c5.206,12.144,13.541,20.223,18.616,18.048c5.076-2.176,4.969-13.784-0.237-25.927    C392.672,44.985,386,37.608,380.979,36.943c-1.007-1.74-2.681-3.092-4.779-3.641c-1.937-0.506-3.892-0.229-5.542,0.623    c-2.347-4.27-6.838-9.116-12.733-13.307c-10.768-7.656-22.092-10.213-25.291-5.713c-3.199,4.501,2.937,14.355,13.704,22.011    c6.763,4.808,13.742,7.602,18.793,7.903l-9.972,38.193c-1.532,1.328-2.695,3.114-3.245,5.224    c-1.342,5.138,1.407,10.375,6.221,12.285l-35.082,51.657c-2.421,3.564-1.495,8.415,2.07,10.836    c3.568,2.423,8.418,1.491,10.836-2.071l38.142-56.164l4.873,1.273l-8.264,31.651c-1.168,4.474,1.512,9.049,5.986,10.217    l41.162,10.747c4.474,1.168,9.049-1.512,10.217-5.987l8.264-31.651l4.873,1.273l5.816,67.642c0.366,4.267,4.117,7.47,8.441,7.104    c4.293-0.369,7.473-4.148,7.104-8.441l-5.349-62.209c5.178,0.694,10.1-2.581,11.431-7.681c0.551-2.11,0.41-4.236-0.277-6.144    l8.964-34.335c2.258,2.877,5.191,5.82,8.668,8.544c10.402,8.147,21.595,11.227,24.999,6.879    C514.416,89.314,508.743,79.185,498.341,71.039z M415.049,130.521c-1.596,6.114-7.847,9.777-13.961,8.179    c-6.114-1.596-9.777-7.847-8.18-13.961c1.596-6.114,7.847-9.777,13.961-8.18C412.983,118.158,416.645,124.408,415.049,130.521z"/>
	</g>
</g>
<g>
	<g>
		<path d="M282.394,114.162c-5.658-8.55-17.179-10.897-25.734-5.239l-53.58,35.444l-20.963-1.153    c-3.874-10.953-14.315-18.802-26.596-18.802h-50.304c-15.579,0-28.209,12.63-28.209,28.209v144.729h0.025l-2.721,65.036    L9.325,410.913c-10.273,7.671-12.381,22.217-4.71,32.49c7.673,10.275,22.219,12.38,32.49,4.71l73.827-55.132    c5.594-4.178,9.012-10.653,9.304-17.629c3.46-82.701,3.239-77.07,3.239-78.003h11.081l25.537,69.625l-10.844,106.778    c-1.385,13.643,9.309,25.561,23.123,25.561c11.766,0,21.853-8.912,23.067-20.871l11.383-112.098c0.356-3.5-0.089-7.035-1.3-10.339    l-21.794-59.421v-44.893c-20.329,6.645-15.273,4.993-25.456,8.322c-15.347,5.017-31.894-4.189-35.45-20.302l-15.112-69.309    l29.773,62.302c4.021,8.413,13.657,12.543,22.526,9.644l75.822-24.785c9.749-3.187,15.068-13.673,11.882-23.422    c-3.186-9.75-13.676-15.067-23.422-11.882l-60.326,19.72l-22.744-47.594l24.141,30.041l18.367-6.004l35.514-11.609    c6.212-2.03,12.583-2.215,18.523-0.861l39.387-26.056C285.707,134.239,288.053,122.717,282.394,114.162z"/>
	</g>
</g>
<g>
	<g>
		<circle cx="130.587" cy="66.496" r="41.757"/>
	</g>
</g>
<g>
</g>
<g>
</g>
<g>
</g>
<g>
</g>
<g>
</g>
<g>
</g>
<g>
</g>
<g>
</g>
<g>
</g>
<g>
</g>
<g>
</g>
<g>
</g>
<g>
</g>
<g>
</g>
<g>
</g>
</svg>
