<?xml version="1.0" encoding="iso-8859-1"?>
<!-- Generator: Adobe Illustrator 19.0.0, SVG Export Plug-In . SVG Version: 6.00 Build 0)  -->
<svg xmlns="http://www.w3.org/2000/svg" xmlns:xlink="http://www.w3.org/1999/xlink" version="1.1" id="Capa_1" x="0px" y="0px" viewBox="0 0 512 512" style="enable-background:new 0 0 512 512;" xml:space="preserve">
<g>
	<g>
		<path d="M245.566,180.097l-14.172-19.172c-1.545-2.091-4.352-2.673-6.586-1.507c0,0-6.805,28.948-12.404,51.669l32.07-23.706    C246.786,185.671,247.275,182.409,245.566,180.097z"/>
	</g>
</g>
<g>
	<g>
		<path d="M205.459,153.655c-24.461-6.096-23.368-5.92-24.396-5.92c-2.336,0-4.461,1.583-5.05,3.951l-7.789,31.261l7.391-0.397    c9.878-0.53,19.003,3.144,25.657,9.451l7.982-32.032C209.949,157.176,208.25,154.35,205.459,153.655z"/>
	</g>
</g>
<g>
	<g>
		<circle cx="77.225" cy="62.708" r="41.491"/>
	</g>
</g>
<g>
	<g>
		<path d="M195.899,216.113c-0.548-10.178-9.247-17.981-19.419-17.44l-77.724,4.171l-5.18-50.765l11.835,34.237l25.922-1.391    v-38.661c0-15.481-12.55-28.031-28.031-28.031H53.313c-15.481,0-28.031,12.55-28.031,28.031v143.818h0.025l-3.08,73.577    L0.538,462.777c-2.724,12.445,5.158,24.742,17.603,27.466c12.452,2.724,24.743-5.164,27.466-17.603l22.118-101.077    c0.285-1.304,0.458-2.632,0.513-3.967c3.439-82.187,3.219-76.587,3.22-77.512h11.011l25.785,70.304l-0.242,107.269    c-0.029,12.741,10.275,23.091,23.015,23.119c0.018,0,0.035,0,0.053,0c12.715,0,23.038-10.293,23.067-23.015l0.252-111.393    c0.006-2.728-0.471-5.434-1.41-7.996l-21.657-59.047v-35.098c-15.739,0.845-38.83,2.084-54.445,2.922    c-17.008,0.913-31.32-13.646-29.127-31.423l9.098-69.901l6.965,68.262c1,9.799,9.518,17.083,19.348,16.555l95.287-5.114    C188.637,234.983,196.444,226.29,195.899,216.113z"/>
	</g>
</g>
<g>
	<g>
		<path d="M484.082,119.745h-37.437c-1.666,5.136-5.869,11.521-16.158,15.821c-7.349,3.071-16.349,4.343-24.31,4.285    c0,5.325,0,9.609,0,15.03c3.62,9.131,1.952,19.512-4.287,27.066l4.072,11.47c0.591-0.226,9.692-3.703,10.28-3.927l32.204-40.074    l-26.301,55.036l-67.633,25.838c-9.483,3.623-14.232,14.245-10.61,23.728c3.623,9.485,14.249,14.231,23.728,10.609l74.492-28.458    c4.403-1.682,7.992-4.992,10.024-9.245l29.466-61.659l-14.956,68.593c-1.553,7.124-6.557,12.606-12.876,15.073    c-7.891,3.012,0.366-0.141-47.403,18.108v23.106l-21.569,58.807c-1.239,3.377-1.667,6.998-1.251,10.571l12.929,110.942    c1.469,12.605,12.879,21.629,25.48,20.161c12.602-1.469,21.629-12.877,20.161-25.48l-12.295-105.507l25.211-68.739h10.962    l-0.253,176.873c-0.018,12.688,10.253,22.989,22.942,23.006c0.011,0,0.021,0,0.033,0c12.672,0,22.956-10.265,22.974-22.942    c0.003-1.77,0.251-175.185,0.251-176.938L512,147.663C512,132.244,499.501,119.745,484.082,119.745z"/>
	</g>
</g>
<g>
	<g>
		<path d="M406.716,102.952c-5.983,0-13.099,0.947-18.468,3.449c-0.001,0-0.002,0.001-0.003,0.001    c-1.665-2.093-4.363-3.325-7.221-3.007c-2.07,0.227-4.063,1.286-5.432,3.007c-1.079-0.332-6.749-3.451-18.47-3.451    c-10.939,0-24.798,3.51-24.798,10.364c0,6.156,12.223,10.365,24.798,10.365c0.002,0,0.005,0,0.007,0    c5.496-0.002,11.657-0.781,16.704-2.708v33.043h-88.947v-33.043c5.086,1.94,11.263,2.706,16.704,2.708c0.002,0,0.005,0,0.007,0    c13.692,0,24.797-4.639,24.798-10.365c0-7.189-15.306-10.364-24.798-10.364c-5.934,0-13.079,0.937-18.468,3.449    c-0.001,0-0.002,0.001-0.003,0.001c-1.595-2.005-3.986-3.059-6.326-3.059c-2.554,0-5.017,1.312-6.327,3.059    c-5.241-2.096-10.358-3.451-18.47-3.451c-10.939,0-24.798,3.51-24.798,10.364c0,2.683,2.439,5.128,6.442,6.969    c5.366,2.468,12.375,3.395,18.355,3.395c0.002,0,0.005,0,0.007,0c5.418-0.002,11.627-0.77,16.704-2.708v37.737    c-4.578,6.676-0.388,15.798,7.562,16.78c0.002,0,0.004,0.001,0.006,0.001l-21.656,60.994c-1.494,4.209,0.706,8.831,4.914,10.326    c4.215,1.495,8.833-0.711,10.326-4.914l23.547-66.316h5.22v33.907c0,4.793,3.886,8.679,8.679,8.679h35.61    c1.825-1.128,3.776-2.108,5.854-2.901l11.172-4.268c0.2-1.135,0.14,1.496,0.14-35.416h5.22l10.433,29.383l15.111-5.773    l-8.415-23.7c8.568-1.269,11.862-10.518,7.568-16.781v-37.737c5.061,1.931,11.237,2.706,16.704,2.708c0.002,0,0.005,0,0.007,0    c11.202,0,24.797-3.746,24.798-10.365C431.513,106.126,416.208,102.952,406.716,102.952z M329.36,202.533    c-6.55,0-11.86-5.31-11.86-11.859c0-6.55,5.309-11.859,11.86-11.859c6.55,0,11.859,5.309,11.859,11.859    C341.22,197.222,335.911,202.533,329.36,202.533z"/>
	</g>
</g>
<g>
	<g>
		<path d="M457.105,23.12c-22.824,0-41.327,18.502-41.327,41.327c0,22.912,18.622,41.327,41.327,41.327    c22.824,0,41.327-18.502,41.327-41.327C498.433,41.623,479.93,23.12,457.105,23.12z"/>
	</g>
</g>
<g>
</g>
<g>
</g>
<g>
</g>
<g>
</g>
<g>
</g>
<g>
</g>
<g>
</g>
<g>
</g>
<g>
</g>
<g>
</g>
<g>
</g>
<g>
</g>
<g>
</g>
<g>
</g>
<g>
</g>
</svg>
