<?xml version="1.0" encoding="iso-8859-1"?>
<!-- Generator: Adobe Illustrator 19.0.0, SVG Export Plug-In . SVG Version: 6.00 Build 0)  -->
<svg xmlns="http://www.w3.org/2000/svg" xmlns:xlink="http://www.w3.org/1999/xlink" version="1.1" id="Capa_1" x="0px" y="0px" viewBox="0 0 512 512" style="enable-background:new 0 0 512 512;" xml:space="preserve">
<g>
	<g>
		<circle cx="73.874" cy="93.397" r="39.692"/>
	</g>
</g>
<g>
	<g>
		<path d="M207.655,172.625c-4.516-8.644-15.181-11.99-23.821-7.478l-63.438,33.13l-28.81-33.4l25.739,17.579l8.301-4.335v-4.797    c0-14.808-12.005-26.813-26.813-26.813H50.997c-14.808,0-26.813,12.005-26.813,26.813v137.57h0.099    c-0.058,0.88,0.196-5.012-3.021,71.853l-20.747,94.81c-2.605,11.905,4.933,23.667,16.839,26.272    c11.912,2.605,23.668-4.939,26.272-16.839l21.157-96.686c0.272-1.248,0.436-2.517,0.491-3.794    c3.314-79.179,3.15-73.853,3.033-75.616h10.037l25.208,68.727l-0.232,102.608c-0.028,12.187,9.828,22.088,22.015,22.115    c0.017,0,0.033,0,0.051,0c12.163,0,22.038-9.846,22.065-22.015l0.241-106.552c0.006-2.609-0.451-5.199-1.349-7.648l-20.992-57.233    h0.275v-58.093l-0.719,0.376c-12.127,6.334-27.455,1.74-33.802-11.156L64.854,187.94l37.947,43.994    c5.354,6.207,14.274,7.91,21.538,4.117l75.84-39.606C208.82,191.931,212.168,181.267,207.655,172.625z"/>
	</g>
</g>
<g>
	<g>
		<path d="M510.311,473.523l-38.784-94.136l-2.871-68.607V171.743c0-14.975-12.14-27.115-27.115-27.115    c-59.512,0,18.204-0.192-98.2,0.182l-50.789-33.953c-1.503-1.004-3.104-1.745-4.747-2.244l-12.946-36.461    c4.737-0.582,8.407-4.613,8.407-9.507c0-2.01-0.62-3.873-1.678-5.414V23.679c3.92,1.496,9.134,2.407,14.859,2.407    c12.177,0,22.049-4.126,22.049-9.215c0-5.089-9.872-9.215-22.049-9.215c-6.525,0-12.386,1.185-16.423,3.068    c-1.317-1.656-3.346-2.721-5.626-2.721s-4.309,1.065-5.626,2.721c-4.036-1.883-9.898-3.068-16.423-3.068    c-12.177,0-22.049,4.126-22.049,9.215c0,5.089,9.872,9.215,22.049,9.215c5.725,0,10.939-0.912,14.859-2.407v29.381h-79.088V23.679    c3.92,1.496,9.134,2.407,14.859,2.407c12.177,0,22.049-4.126,22.049-9.215c0-5.089-9.872-9.215-22.049-9.215    c-6.525,0-12.386,1.185-16.423,3.068c-1.317-1.656-3.346-2.721-5.626-2.721s-4.309,1.065-5.626,2.721    c-4.037-1.883-9.898-3.068-16.423-3.068c-12.177,0-22.049,4.126-22.049,9.215c0,5.089,9.872,9.215,22.049,9.215    c5.725,0,10.939-0.912,14.859-2.407v33.553c-1.057,1.541-1.678,3.404-1.678,5.414c0,4.894,3.671,8.924,8.407,9.507l-19.257,54.234    c-1.659,4.672,1.811,9.597,6.775,9.597c2.958,0,5.73-1.84,6.775-4.787l20.937-58.965h4.642v30.149    c0,4.262,3.455,7.717,7.717,7.717h39.208c4.262,0,7.717-3.455,7.717-7.717V72.233h4.642l13.602,38.305    c-2.102,1.302-3.973,3.048-5.437,5.239c-5.479,8.196-3.278,19.282,4.919,24.761l34.678,23.183    c15.389,4.189,56.304,15.328,60.741,16.535l39.773-17.528l-42.543,32.963l-69.774-18.994c-9.513-2.592-19.323,3.023-21.913,12.535    c-2.59,9.513,3.023,19.324,12.535,21.913l78.362,21.332c5.418,1.475,11.202,0.312,15.622-3.113l49.578-38.414l-40.012,50.761    c-5.13,6.509-13.749,10.082-23.684,7.369v60.398l-20.949,57.117c-0.554,1.511-0.943,3.078-1.16,4.674l-14.668,107.751    c-1.823,13.392,8.584,25.326,22.137,25.326c10.986-0.001,20.558-8.117,22.082-19.307l14.341-105.35l25.245-68.827h10.899    c0.003,0.094,0.001,0.186,0.005,0.28l3.099,74.045c0.109,2.601,0.672,5.161,1.663,7.567l40.283,97.773    c4.695,11.397,17.74,16.824,29.131,12.131C509.575,497.96,515.006,484.918,510.311,473.523z M227.664,96.198    c-5.824,0-10.545-4.721-10.545-10.545c0-5.824,4.721-10.545,10.545-10.545c5.824,0,10.545,4.721,10.545,10.545    C238.21,91.477,233.488,96.198,227.664,96.198z"/>
	</g>
</g>
<g>
	<g>
		<circle cx="428.777" cy="90.924" r="40.138"/>
	</g>
</g>
<g>
</g>
<g>
</g>
<g>
</g>
<g>
</g>
<g>
</g>
<g>
</g>
<g>
</g>
<g>
</g>
<g>
</g>
<g>
</g>
<g>
</g>
<g>
</g>
<g>
</g>
<g>
</g>
<g>
</g>
</svg>
