<?xml version="1.0" encoding="iso-8859-1"?>
<!-- Generator: Adobe Illustrator 19.0.0, SVG Export Plug-In . SVG Version: 6.00 Build 0)  -->
<svg xmlns="http://www.w3.org/2000/svg" xmlns:xlink="http://www.w3.org/1999/xlink" version="1.1" id="Capa_1" x="0px" y="0px" viewBox="0 0 512 512" style="enable-background:new 0 0 512 512;" xml:space="preserve">
<g>
	<g>
		<path d="M510.13,438.488l-44.556-58.827c5.565-2.547,8.488-8.896,6.591-14.878c-0.779-2.456-2.26-4.493-4.148-5.968l-12.3-38.796    c4.239,1.169,9.222,1.897,14.566,2.012c15.61,0.336,28.379-4.68,28.52-11.204c0.141-6.524-12.4-12.086-28.012-12.423    c-9.214-0.199-17.435,1.469-22.657,4.209c-2.259-1.542-5.175-2.074-7.983-1.184c-2.792,0.886-4.862,2.979-5.828,5.521    c-5.666-0.74-13.277,0.068-21.258,2.599c-14.885,4.719-25.351,13.588-23.379,19.808c1.973,6.221,15.637,7.438,30.521,2.719    c6.997-2.219,13.018-5.355,17.229-8.701l11.386,35.913l-96.669,30.65l-12.489-39.391c4.401,2.986,10.499,5.646,17.477,7.366    c15.161,3.737,28.716,1.63,30.279-4.707c1.562-6.337-9.462-14.503-24.622-18.24c-14.034-3.459-26.686-1.909-29.728,3.368    c-2.122-1.146-4.685-1.468-7.164-0.683c-2.792,0.886-4.862,2.979-5.828,5.521c-5.666-0.74-13.277,0.068-21.258,2.599    c-14.884,4.719-25.351,13.588-23.379,19.808s15.637,7.438,30.521,2.719c6.997-2.219,13.018-5.355,17.229-8.701l13.003,41.014    c-0.694,2.292-0.73,4.81,0.048,7.265c1.14,3.595,3.779,6.299,7.009,7.639l-8.056,18.368c-1.422,3.238-0.863,7.004,1.435,9.693    l12.652,14.805c3.309,3.872,9.129,4.325,12.998,1.019c3.87-3.308,4.326-9.127,1.018-12.998l-8.895-10.409l10.69-24.37l9.431-2.99    l11.684,36.851c1.652,5.21,7.214,8.093,12.423,6.443l47.924-15.195c5.21-1.652,8.093-7.214,6.442-12.423l-11.684-36.851    l5.674-1.799l48.443,63.958c3.072,4.057,8.854,4.859,12.915,1.783C512.405,448.329,513.204,442.547,510.13,438.488z     M417.208,427.342c-7.118,2.258-14.719-1.684-16.976-8.802c-2.258-7.118,1.684-14.719,8.803-16.976    c7.119-2.258,14.719,1.684,16.976,8.802C428.268,417.485,424.326,425.085,417.208,427.342z"/>
	</g>
</g>
<g>
	<g>
		<ellipse transform="matrix(0.151 -0.9885 0.9885 0.151 38.8894 239.3956)" cx="158.816" cy="97.057" rx="46.66" ry="46.864"/>
	</g>
</g>
<g>
	<g>
		<path d="M269.619,149.704c-7.974-11.156-23.482-13.738-34.638-5.764l-80.729,57.694l-59.146-28.882l51.625,12.566l7.113-5.084    c-3.789-14.72-15.174-25.969-29.514-29.803l-17.169-4.591c-33.228-8.885-67.339,11.073-75.89,44.37L1.287,306.969    c-5.378,20.94,6.371,44.684,30.119,50.663c26.207,6.6,10.644,2.493,71.754,19.01l-48.6,29.762    c-14.034,8.594-18.443,26.937-9.849,40.971c8.595,14.033,26.936,18.443,40.971,9.849l107.589-65.889    c10.148-6.215,15.625-17.871,13.932-29.649c-1.693-11.778-10.232-21.42-21.719-24.524l-64.473-17.425l14.657-52.986    l-62.353-49.375c0.055,0.027,72.387,35.349,72.441,35.375c8.194,4,17.982,3.18,25.416-2.171l92.683-66.238    C275.013,176.369,277.592,160.86,269.619,149.704z"/>
	</g>
</g>
<g>
	<g>
		<path d="M310.275,229.28c-2.606-13.464-15.63-22.265-29.097-19.658l-30.648,5.934l-69.18,49.441l-0.569,0.406l9.026,5.67    c5.325,3.344,11.731,4.551,17.928,3.351l82.883-16.047C304.081,255.771,312.882,242.743,310.275,229.28z"/>
	</g>
</g>
<g>
</g>
<g>
</g>
<g>
</g>
<g>
</g>
<g>
</g>
<g>
</g>
<g>
</g>
<g>
</g>
<g>
</g>
<g>
</g>
<g>
</g>
<g>
</g>
<g>
</g>
<g>
</g>
<g>
</g>
</svg>
