<?xml version="1.0" encoding="iso-8859-1"?>
<!-- Generator: Adobe Illustrator 19.0.0, SVG Export Plug-In . SVG Version: 6.00 Build 0)  -->
<svg xmlns="http://www.w3.org/2000/svg" xmlns:xlink="http://www.w3.org/1999/xlink" version="1.1" id="Capa_1" x="0px" y="0px" viewBox="0 0 512 512" style="enable-background:new 0 0 512 512;" xml:space="preserve">
<g>
	<g>
		<circle cx="51.557" cy="116.129" r="38.373"/>
	</g>
</g>
<g>
	<g>
		<path d="M134.801,294.044L85.51,249.256l-25.917-54.233l33.481,40.929l5.58,5.071v-47.627c0-14.317-11.606-25.923-25.923-25.923    H26.504c-14.317,0-25.923,11.606-25.923,25.923v133.003h0.043c0,1.628,0.231,162.654,0.233,164.297    c0.017,11.772,9.565,21.303,21.333,21.303c0.01,0,0.021,0,0.031,0c11.782-0.017,21.32-9.582,21.303-21.363l-0.235-164.237h10.179    l23.41,63.828L65.46,488.196C63.986,500.842,73.856,512,86.677,512c10.677,0,19.897-8.002,21.163-18.865l12.005-103.016    c0.386-3.318-0.011-6.679-1.161-9.816l-19.039-51.91l-49.608-45.076c-3.574-3.248-6.328-5.165-7.353-9.886l-13.887-63.693    l27.361,57.255c0.953,1.995,2.286,3.785,3.921,5.272l51.769,47.039c6.975,6.338,17.77,5.823,24.108-1.153    C142.293,311.176,141.776,300.382,134.801,294.044z"/>
	</g>
</g>
<g>
	<g>
		<path d="M320.986,170.176c-1.726-3.196-5.715-4.388-8.911-2.662l-26.526,14.323c-3.196,1.726-4.388,5.715-2.662,8.911l3.8,7.039    c8.635-8.956,21.75-12.637,34.113-8.868l12.337,3.761L320.986,170.176z"/>
	</g>
</g>
<g>
	<g>
		<path d="M509.719,480.964l-39.057-94.797l-2.915-69.668h0.024V176.402c0-15.08-12.225-27.305-27.305-27.305h-48.694    c-15.081,0-27.305,12.225-27.305,27.305v25.831l17.481,5.33l23.665-29.45l-22.153,46.354l-67.248-20.504    c-9.496-2.896-19.543,2.456-22.438,11.952c-2.895,9.497,2.456,19.542,11.952,22.438l82.041,25.014    c8.498,2.592,17.626-1.417,21.462-9.443l28.82-60.306l-14.628,67.089c-3.282,15.05-18.692,24.221-33.593,19.736    c-8.604-2.625-3.387-1.034-25.364-7.735v43.055l-21.096,57.517c-0.559,1.523-0.95,3.1-1.168,4.706l-14.771,108.51    c-1.674,12.297,6.938,23.622,19.234,25.296c12.285,1.675,23.621-6.932,25.296-19.234L386.4,386.465l25.663-69.969h10.725    c0.001,0.9-0.214-4.554,3.136,75.505c0.109,2.619,0.676,5.198,1.675,7.62l40.566,98.46c4.728,11.477,17.863,16.943,29.336,12.217    C508.978,505.572,514.447,492.438,509.719,480.964z"/>
	</g>
</g>
<g>
	<g>
		<circle cx="427.605" cy="95.016" r="40.415"/>
	</g>
</g>
<g>
	<g>
		<path d="M269.963,0c-6.815,0-12.934,1.238-17.15,3.205c-1.376-1.729-3.494-2.841-5.876-2.841s-4.5,1.112-5.876,2.841    C236.846,1.238,230.726,0,223.912,0c-12.717,0-23.026,4.309-23.026,9.624c0,5.315,10.308,9.624,23.026,9.624    c5.979,0,11.424-0.952,15.517-2.514v30.682h-82.592V16.733c4.094,1.562,9.539,2.514,15.517,2.514    c12.717,0,23.026-4.309,23.026-9.624C195.38,4.308,185.071,0,172.355,0c-6.815,0-12.934,1.238-17.15,3.205    c-1.375-1.729-3.494-2.841-5.875-2.841c-2.382,0-4.5,1.112-5.876,2.841C139.238,1.238,133.117,0,126.304,0    c-12.717,0-23.026,4.309-23.026,9.624c0,5.315,10.308,9.624,23.026,9.624c5.979,0,11.424-0.952,15.517-2.514v35.04    c-1.103,1.609-1.752,3.555-1.752,5.653c0,5.111,3.833,9.319,8.78,9.928l-20.11,56.637c-1.732,4.878,1.891,10.022,7.076,10.022    c3.088,0,5.984-1.921,7.076-4.999l21.864-61.577h4.847v31.485c0,4.451,3.608,8.059,8.059,8.059h40.945    c4.451,0,8.059-3.608,8.059-8.059V67.438h4.847l21.864,61.577c1.388,3.908,5.68,5.951,9.589,4.564    c3.907-1.388,5.951-5.68,4.563-9.588l-20.11-56.637c4.946-0.608,8.78-4.816,8.78-9.928c0-2.098-0.649-4.044-1.752-5.653V16.733    c4.093,1.562,9.539,2.515,15.517,2.515c12.717,0,23.026-4.309,23.026-9.624C292.989,4.309,282.679,0,269.963,0z M198.133,92.466    c-6.082,0-11.012-4.93-11.012-11.012c0-6.082,4.93-11.012,11.012-11.012c6.082,0,11.012,4.93,11.012,11.012    C209.146,87.535,204.215,92.466,198.133,92.466z"/>
	</g>
</g>
<g>
</g>
<g>
</g>
<g>
</g>
<g>
</g>
<g>
</g>
<g>
</g>
<g>
</g>
<g>
</g>
<g>
</g>
<g>
</g>
<g>
</g>
<g>
</g>
<g>
</g>
<g>
</g>
<g>
</g>
</svg>
