<?xml version="1.0" encoding="iso-8859-1"?>
<!-- Generator: Adobe Illustrator 19.0.0, SVG Export Plug-In . SVG Version: 6.00 Build 0)  -->
<svg xmlns="http://www.w3.org/2000/svg" xmlns:xlink="http://www.w3.org/1999/xlink" version="1.1" id="Capa_1" x="0px" y="0px" viewBox="0 0 511.998 511.998" style="enable-background:new 0 0 511.998 511.998;" xml:space="preserve">
<g>
	<g>
		<circle cx="107.945" cy="91.472" r="40.764"/>
	</g>
</g>
<g>
	<g>
		<path d="M170.311,339.232c-10.517,1.342-21.503-2.231-29.26-10.599c-6.166-6.652-50.851-54.858-57.155-61.658    c-3.969-4.281-5.575-9.989-4.904-15.361l8.94-68.67l6.843,67.062c0.399,3.917,2.063,7.597,4.74,10.484l53.172,57.361    c6.805,7.343,18.276,7.778,25.62,0.972s7.778-18.277,0.971-25.62L130.23,240.29l-6.228-61.026l17.073,49.392l20.018,21.595    v-76.698c0-15.208-12.329-27.538-27.538-27.538H84.449c-15.208,0-27.538,12.329-27.538,27.538v141.285h0.024l-3.024,72.281    l-21.308,97.37c-2.675,12.226,5.067,24.306,17.294,26.981c12.233,2.676,24.308-5.073,26.981-17.294l21.728-99.297    c0.28-1.282,0.448-2.585,0.503-3.897c3.379-80.722,3.162-75.241,3.164-76.147h10.815l25.334,69.07l-0.239,105.38    c-0.029,12.516,10.094,22.685,22.61,22.713c0.018,0,0.034,0,0.052,0c12.491,0,22.632-10.112,22.66-22.61l0.247-109.431    c0.006-2.68-0.463-5.339-1.385-7.854L170.311,339.232z"/>
	</g>
</g>
<g>
	<g>
		<path d="M453.722,0c-7.754,0-14.719,1.409-19.516,3.647c-1.565-1.968-3.976-3.233-6.685-3.233c-2.71,0-5.12,1.265-6.685,3.233    C416.038,1.409,409.073,0,401.318,0c-14.47,0-26.202,4.903-26.202,10.951c0,6.049,11.731,10.951,26.202,10.951    c6.803,0,13-1.084,17.658-2.86v34.915h-93.985V19.041c4.658,1.777,10.855,2.86,17.658,2.86c14.47,0,26.202-4.903,26.202-10.951    C368.852,4.903,357.121,0,342.649,0c-7.754,0-14.72,1.409-19.516,3.647c-1.565-1.968-3.976-3.233-6.685-3.233    c-2.71,0-5.12,1.265-6.685,3.233C304.965,1.409,298,0,290.245,0c-14.47,0-26.202,4.903-26.202,10.951    c0,6.049,11.731,10.951,26.202,10.951c6.803,0,13-1.084,17.658-2.86v39.873c-1.256,1.831-1.994,4.045-1.994,6.434    c0,5.817,4.361,10.605,9.991,11.297l-22.884,64.45c-1.971,5.551,2.152,11.405,8.051,11.405c3.515,0,6.808-2.186,8.052-5.688    L334,76.739h5.515v35.829c0,5.065,4.106,9.17,9.17,9.17h1.829l-17.007,24.046h-0.329c-3.98,0-7.207,3.227-7.207,7.207v29.32    h38.439v-36.528h-16.064l17.007-24.046h13.256l17.007,24.046h-16.064v36.528h38.439v-29.32c0-3.98-3.227-7.207-7.207-7.207h-0.329    l-17.007-24.046h1.829c5.065,0,9.17-4.106,9.17-9.17V76.74h5.516l24.88,70.072c1.579,4.448,6.464,6.771,10.911,5.193    c4.446-1.579,6.771-6.464,5.192-10.911l-22.884-64.45c5.629-0.692,9.991-5.481,9.991-11.297c0-2.388-0.738-4.603-1.994-6.434    V19.041c4.658,1.777,10.855,2.86,17.658,2.86c14.47,0,26.202-4.903,26.202-10.951C479.924,4.903,468.194,0,453.722,0z     M371.984,105.221c-6.921,0-12.531-5.61-12.531-12.531c0-6.921,5.61-12.532,12.531-12.532c6.92,0,12.531,5.61,12.531,12.532    C384.515,99.61,378.905,105.221,371.984,105.221z"/>
	</g>
</g>
<g>
	<g>
		<path d="M379.556,197.457v40.352h31.233c3.98,0,7.207-3.227,7.207-7.207v-33.145H379.556z"/>
	</g>
</g>
<g>
	<g>
		<path d="M325.972,197.456v33.145c0,3.98,3.227,7.207,7.207,7.207h31.233v-40.352H325.972z"/>
	</g>
</g>
<g>
</g>
<g>
</g>
<g>
</g>
<g>
</g>
<g>
</g>
<g>
</g>
<g>
</g>
<g>
</g>
<g>
</g>
<g>
</g>
<g>
</g>
<g>
</g>
<g>
</g>
<g>
</g>
<g>
</g>
</svg>
