<?xml version="1.0" encoding="iso-8859-1"?>
<!-- Generator: Adobe Illustrator 19.0.0, SVG Export Plug-In . SVG Version: 6.00 Build 0)  -->
<svg xmlns="http://www.w3.org/2000/svg" xmlns:xlink="http://www.w3.org/1999/xlink" version="1.1" id="Capa_1" x="0px" y="0px" viewBox="0 0 512 512" style="enable-background:new 0 0 512 512;" xml:space="preserve">
<g>
	<g>
		<path d="M54.075,140.745l-3.801-20.552c-0.92-4.974-5.698-8.26-10.672-7.341l-32.107,5.939c-4.974,0.92-8.261,5.698-7.34,10.672    l11.428,61.782c0.92,4.974,5.698,8.261,10.672,7.34l8.607-1.592c-8.517-9.83-10.992-24.117-5.147-36.672    C31.104,148.742,42.182,141.63,54.075,140.745z"/>
	</g>
</g>
<g>
	<g>
		<path d="M377.865,156.216c-4.075-9.615-15.173-14.107-24.788-10.031l-46.903,19.878c-8.699-14.338-13.782-22.714-22.152-36.51    c-7.814-12.878-21.787-20.748-36.849-20.748h-94.523c-20.052,0-37.454,13.829-41.983,33.362l-7.712,33.263L64.55,157.549    c-9.67-4.504-21.207-0.124-25.401,9.789c-3.995,9.443,0.555,20.356,9.851,24.685l59.128,27.531    c10.871,5.062,23.686-1.159,26.401-12.871l12.523-59.686v323.828c0,12.303,9.568,22.782,21.863,23.219    c12.908,0.459,23.517-9.869,23.517-22.675V290.007h9.797v180.819c0,12.303,9.568,22.782,21.863,23.219    c12.908,0.459,23.517-9.869,23.517-22.675c0-82.888,0.001-324.372,0.001-324.372s31.744,47.762,34.72,52.666    c4.873,8.031,14.902,11.264,23.544,7.6l61.963-26.261C377.449,176.929,381.94,165.831,377.865,156.216z"/>
	</g>
</g>
<g>
	<g>
		<path d="M197.325,17.94c-21.643,0-39.187,17.545-39.187,39.187c-0.001,21.798,17.734,39.187,39.187,39.187    c21.552,0,39.188-17.472,39.188-39.187C236.513,35.485,218.968,17.94,197.325,17.94z"/>
	</g>
</g>
<g>
	<g>
		<path d="M504.359,151.427c-12.41-15.974-35.2-18.59-50.903-6.389c-1.228,0.954-2.376,1.983-3.457,3.065l-15.056-5.744l3.408-2.315    c0.937-0.636,1.57-1.632,1.746-2.751c0.177-1.119-0.117-2.261-0.812-3.156l-3.945-5.077c6.281-4.88,7.416-13.928,2.536-20.209    c-4.88-6.281-13.929-7.416-20.209-2.536l-3.945-5.077c-0.695-0.895-1.73-1.462-2.858-1.567s-2.249,0.262-3.098,1.012l-3.085,2.73    l-1.576-13.675c1.695-0.93,3.329-2,4.887-3.21c15.833-12.302,18.692-35.07,6.389-50.904    c-12.412-15.974-35.201-18.589-50.904-6.389c-15.795,12.273-18.662,35.108-6.389,50.904c6.254,8.049,15.39,12.984,25.424,13.864    l3.036,26.346l-2.501,2.214l-24.811-9.464c1.713-10.161-0.865-20.276-7.116-28.322c-12.412-15.974-35.201-18.589-50.904-6.389    c-15.795,12.273-18.662,35.108-6.389,50.904c6.65,8.559,16.558,13.599,27.341,13.983l26.002-11.02    c28.017-11.872,56.107,16.263,44.832,44.112l1.771,15.366c-1.231,0.743-2.426,1.561-3.581,2.458    c-15.833,12.301-18.692,35.07-6.389,50.904c12.427,15.994,35.236,18.562,50.904,6.388c15.832-12.302,18.691-35.07,6.388-50.903    c-6.546-8.425-16.244-13.447-26.829-13.969l-3.23-28.02l2.764-1.877l26.309,10.036c-2.041,10.559,0.589,21.001,6.954,29.193    c12.429,15.995,35.237,18.562,50.906,6.388C513.803,190.027,516.662,167.26,504.359,151.427z M331.882,119.141    c-6.643,5.162-16.278,4.037-21.512-2.699c-5.186-6.675-3.975-16.326,2.699-21.512c6.653-5.169,16.279-4.037,21.513,2.699    C339.78,104.318,338.575,113.942,331.882,119.141z M395.143,69.988c-6.643,5.162-16.278,4.037-21.512-2.699    c-5.186-6.675-3.975-16.326,2.699-21.512c6.653-5.168,16.279-4.037,21.513,2.7C403.04,55.166,401.834,64.789,395.143,69.988z     M424.559,213.431c5.199,6.692,3.991,16.313-2.699,21.512c-6.644,5.163-16.278,4.037-21.512-2.699    c-5.198-6.691-3.992-16.314,2.7-21.513C409.711,205.553,419.335,206.708,424.559,213.431z M485.12,185.789    c-6.644,5.163-16.278,4.037-21.512-2.699c-5.198-6.691-3.992-16.314,2.7-21.513c6.664-5.178,16.288-4.023,21.512,2.7    C493.018,170.97,491.811,180.59,485.12,185.789z"/>
	</g>
</g>
<g>
</g>
<g>
</g>
<g>
</g>
<g>
</g>
<g>
</g>
<g>
</g>
<g>
</g>
<g>
</g>
<g>
</g>
<g>
</g>
<g>
</g>
<g>
</g>
<g>
</g>
<g>
</g>
<g>
</g>
</svg>
