<?xml version="1.0" encoding="iso-8859-1"?>
<!-- Generator: Adobe Illustrator 19.0.0, SVG Export Plug-In . SVG Version: 6.00 Build 0)  -->
<svg xmlns="http://www.w3.org/2000/svg" xmlns:xlink="http://www.w3.org/1999/xlink" version="1.1" id="Capa_1" x="0px" y="0px" viewBox="0 0 512.001 512.001" style="enable-background:new 0 0 512.001 512.001;" xml:space="preserve">
<g>
	<g>
		<path d="M167.23,0c-6.774,0-12.857,1.231-17.047,3.185c-1.367-1.719-3.473-2.824-5.84-2.824s-4.473,1.106-5.84,2.824    C134.313,1.231,128.229,0,121.456,0c-12.641,0-22.887,4.283-22.887,9.566s10.246,9.566,22.887,9.566    c5.943,0,11.355-0.946,15.424-2.499v30.498H54.784V16.632c4.069,1.552,9.481,2.499,15.424,2.499    c12.641,0,22.887-4.283,22.887-9.566S82.849,0,70.208,0c-6.774,0-12.857,1.231-17.047,3.185c-1.367-1.719-3.473-2.824-5.84-2.824    c-2.367,0-4.473,1.106-5.84,2.824C37.292,1.231,31.208,0,24.434,0C11.793,0,1.547,4.283,1.547,9.566s10.247,9.566,22.887,9.566    c5.943,0,11.355-0.946,15.424-2.499v34.829c-1.097,1.599-1.741,3.534-1.741,5.619c0,5.08,3.81,9.263,8.727,9.868l-19.989,56.297    c-1.722,4.849,1.88,9.962,7.033,9.962c3.07,0,5.948-1.91,7.033-4.969l21.733-61.207h4.818v31.296c0,4.424,3.586,8.01,8.011,8.01    h40.699c4.424,0,8.01-3.586,8.01-8.01V67.033h4.818l21.733,61.207c1.38,3.885,5.646,5.915,9.531,4.537    c3.884-1.379,5.915-5.646,4.536-9.53l-19.99-56.297c4.917-0.604,8.727-4.787,8.727-9.868c0-2.086-0.645-4.02-1.741-5.619v-34.83    c4.069,1.552,9.481,2.499,15.424,2.499c12.641,0,22.887-4.283,22.887-9.566S179.871,0,167.23,0z M95.832,91.91    c-6.045,0-10.946-4.901-10.946-10.946c0-6.045,4.901-10.946,10.946-10.946c6.045,0,10.946,4.901,10.946,10.946    C106.778,87.009,101.877,91.91,95.832,91.91z"/>
	</g>
</g>
<g>
	<g>
		<circle cx="412.488" cy="80.732" r="41.686"/>
	</g>
</g>
<g>
	<g>
		<path d="M278.086,157.14c-2.682-1.97-6.454-1.394-8.424,1.289l-19.3,26.272c-1.97,2.683-1.393,6.454,1.289,8.425l17.824,13.094    c0.246-1.434,0.574-2.869,1.01-4.297c4.759-15.611,19.513-25.423,35.111-24.573L278.086,157.14z"/>
	</g>
</g>
<g>
	<g>
		<path d="M508.701,479.993l-40.28-97.763l-3.006-71.848h0.025V165.903c0-15.552-12.608-28.159-28.159-28.159h-50.218    c-15.552,0-28.159,12.607-28.159,28.159v26.638l18.029,5.497l24.405-30.37l-22.844,47.804l-69.352-21.146    c-9.798-2.986-20.155,2.533-23.14,12.326c-2.986,9.794,2.533,20.154,12.325,23.14l84.608,25.797    c8.787,2.679,18.187-1.48,22.134-9.739l29.722-62.196l-15.087,69.19c-3.39,15.548-19.313,24.975-34.644,20.354    c-8.873-2.708-3.493-1.067-26.157-7.977v44.4l-21.757,59.319c-0.575,1.57-0.979,3.197-1.205,4.854l-15.233,111.904    c-1.727,12.682,7.155,24.361,19.835,26.087c12.68,1.728,24.361-7.153,26.087-19.836l14.894-109.411l26.467-72.157h11.06    c0.001,0.917-0.222-4.708,3.234,77.867c0.112,2.7,0.698,5.36,1.727,7.858l41.836,101.542    c4.876,11.833,18.419,17.474,30.254,12.598C507.935,505.372,513.577,491.826,508.701,479.993z"/>
	</g>
</g>
<g>
	<g>
		<path d="M299.293,138.232c-7.463-7.463-17.385-11.573-27.939-11.573c-10.554,0-20.476,4.11-27.939,11.573    c-2.915,2.915-2.915,7.64,0,10.555c2.915,2.915,7.64,2.915,10.554,0c4.645-4.644,10.819-7.201,17.386-7.201    c6.567,0,12.741,2.557,17.384,7.201c1.457,1.457,3.367,2.186,5.277,2.185c1.91,0,3.82-0.728,5.277-2.186    C302.208,145.871,302.208,141.145,299.293,138.232z"/>
	</g>
</g>
<g>
	<g>
		<path d="M314.59,118.956c-23.84-23.841-62.63-23.841-86.47,0c-2.915,2.915-2.915,7.639,0,10.554c2.915,2.915,7.64,2.915,10.554,0    c18.021-18.02,47.341-18.02,65.362,0c1.457,1.458,3.367,2.186,5.277,2.186c1.91,0,3.82-0.728,5.277-2.186    C317.505,126.595,317.505,121.87,314.59,118.956z"/>
	</g>
</g>
<g>
	<g>
		<path d="M123.771,130.271c-2.914-2.915-7.639-2.915-10.554,0c-9.586,9.586-25.184,9.586-34.769,0    c-2.915-2.915-7.64-2.915-10.554,0c-2.915,2.915-2.915,7.64,0,10.554c7.703,7.703,17.821,11.554,27.939,11.554    s20.234-3.851,27.937-11.554C126.686,137.91,126.686,133.186,123.771,130.271z"/>
	</g>
</g>
<g>
	<g>
		<path d="M139.067,149.547c-2.914-2.915-7.639-2.915-10.554,0c-18.02,18.019-47.341,18.019-65.362,0    c-2.915-2.915-7.64-2.915-10.554,0c-2.915,2.915-2.915,7.64,0,10.554c11.92,11.92,27.577,17.88,43.235,17.88    s31.316-5.96,43.235-17.88C141.982,157.186,141.982,152.461,139.067,149.547z"/>
	</g>
</g>
<g>
</g>
<g>
</g>
<g>
</g>
<g>
</g>
<g>
</g>
<g>
</g>
<g>
</g>
<g>
</g>
<g>
</g>
<g>
</g>
<g>
</g>
<g>
</g>
<g>
</g>
<g>
</g>
<g>
</g>
</svg>
