<?xml version="1.0" encoding="iso-8859-1"?>
<!-- Generator: Adobe Illustrator 19.0.0, SVG Export Plug-In . SVG Version: 6.00 Build 0)  -->
<svg xmlns="http://www.w3.org/2000/svg" xmlns:xlink="http://www.w3.org/1999/xlink" version="1.1" id="Capa_1" x="0px" y="0px" viewBox="0 0 512 512" style="enable-background:new 0 0 512 512;" xml:space="preserve">
<g>
	<g>
		<path d="M503.742,99.461L426.06,35.162c-8.141-6.738-20.204-5.602-26.941,2.54c-2.068,2.498-3.387,5.367-3.997,8.336    c-7.234-9.636-18.755-15.871-31.732-15.871c-21.902,0-39.658,17.756-39.658,39.658c0,21.903,17.756,39.658,39.658,39.658    s39.658-17.755,39.658-39.658c0-1.425-0.079-2.831-0.226-4.218l49.662,41.106l-47.688,15.41c-8.85,0-82.642,0-92.871,0    c-25.233,0-45.863,20.212-45.989,45.152v140.578c0,10.568,8.567,19.135,19.135,19.135c10.568,0,19.134-8.567,19.134-19.135V167.37    c0.012-2.29,1.875-4.139,4.164-4.133c2.29,0.006,4.142,1.864,4.142,4.154v321.645c0,12.682,10.281,22.962,22.962,22.962    c12.682,0,22.963-10.28,22.963-22.962V305.499h9.913v183.538c0,12.682,10.281,22.962,22.962,22.962    c12.681,0,22.962-10.28,22.962-22.962c0-303.619,0-130.857,0-329.625l83.149-27.003    C511.774,127.773,515.356,109.073,503.742,99.461z"/>
	</g>
</g>
<g>
	<g>
		<path d="M93.502,0C42.597,0,1.33,41.267,1.33,92.172c0,23.234,8.599,44.458,22.785,60.668l15.182-15.182l2.783-55.536    c0.132-2.664,1.535-4.959,3.588-6.343V61.37c-2.963,1.067-6.803,1.716-11.006,1.716c-9.365,0-16.956-3.196-16.956-7.14    s7.591-7.14,16.956-7.14s16.956,3.196,16.956,7.14c0-3.943,7.591-7.14,16.956-7.14s16.956,3.196,16.956,7.14    s-7.591,7.14-16.956,7.14c-4.205,0-8.043-0.648-11.006-1.715V74.39h44.998l11.339-11.34c-8.581-0.353-15.287-3.398-15.287-7.103    c0-3.943,7.591-7.14,16.956-7.14c4.152,0,7.952,0.63,10.9,1.674l27.695-27.694C137.958,8.6,116.735,0,93.502,0z"/>
	</g>
</g>
<g>
	<g>
		<polygon points="58.056,92.238 50.476,126.479 65.4,111.554 65.4,92.238   "/>
	</g>
</g>
<g>
	<g>
		<path d="M168.436,38.496l-11.12,11.121c5.42,1.191,9.126,3.575,9.126,6.329c0,3.943-7.591,7.14-16.956,7.14    c-1.846,0-3.618-0.128-5.281-0.357l-5.727,5.726v7.462c1.955,1.405,3.267,3.65,3.391,6.206l2.937,62.53    c0.199,4.237-5.976,5.078-6.904,0.931l-11.984-53.345h-7.37v23.781c0,2.967-2.404,5.372-5.372,5.372H85.543l-45.716,45.716    c11.163,8.01,24.192,13.579,38.306,15.949V512h30.737V183.061c43.589-7.317,76.803-45.221,76.803-90.89    C185.674,72.146,179.284,53.613,168.436,38.496z"/>
	</g>
</g>
<g>
</g>
<g>
</g>
<g>
</g>
<g>
</g>
<g>
</g>
<g>
</g>
<g>
</g>
<g>
</g>
<g>
</g>
<g>
</g>
<g>
</g>
<g>
</g>
<g>
</g>
<g>
</g>
<g>
</g>
</svg>
