<?xml version="1.0" encoding="iso-8859-1"?>
<!-- Generator: Adobe Illustrator 19.0.0, SVG Export Plug-In . SVG Version: 6.00 Build 0)  -->
<svg xmlns="http://www.w3.org/2000/svg" xmlns:xlink="http://www.w3.org/1999/xlink" version="1.1" id="Capa_1" x="0px" y="0px" viewBox="0 0 512.001 512.001" style="enable-background:new 0 0 512.001 512.001;" xml:space="preserve">
<g>
	<g>
		<path d="M195.37,219.271c-7.628,0-14.48,1.386-19.199,3.586c-1.539-1.936-3.911-3.18-6.577-3.18c-2.666,0-5.038,1.245-6.577,3.18    c-4.72-2.201-11.571-3.586-19.2-3.586c-14.236,0-25.776,4.823-25.776,10.773c0,5.949,11.54,10.773,25.776,10.773    c6.693,0,12.789-1.066,17.371-2.815v34.348H68.731v-34.348c4.582,1.748,10.678,2.815,17.371,2.815    c14.236,0,25.776-4.823,25.776-10.773c0-5.95-11.54-10.773-25.776-10.773c-7.628,0-14.48,1.387-19.199,3.586    c-1.539-1.936-3.911-3.18-6.577-3.18s-5.038,1.245-6.577,3.18c-4.72-2.201-11.571-3.586-19.2-3.586    c-14.236,0-25.776,4.823-25.776,10.773c0,5.949,11.54,10.773,25.776,10.773c6.693,0,12.789-1.066,17.371-2.815v39.226    c-1.236,1.801-1.962,3.98-1.962,6.329c0,5.722,4.291,10.433,9.829,11.113l-22.513,63.402c-1.939,5.462,2.117,11.219,7.921,11.219    c3.458,0,6.698-2.15,7.921-5.595l24.477-68.933h5.426v35.246c0,4.982,4.039,9.021,9.021,9.021h45.836    c4.983,0,9.021-4.039,9.021-9.021v-35.246h5.426l24.477,68.933c1.553,4.375,6.358,6.661,10.734,5.109    c4.374-1.553,6.661-6.359,5.108-10.733l-22.512-63.402c5.538-0.68,9.829-5.391,9.829-11.113c0-2.349-0.726-4.528-1.962-6.329    v-39.226c4.583,1.748,10.678,2.815,17.371,2.815c14.236,0,25.776-4.823,25.776-10.773    C221.146,224.094,209.606,219.271,195.37,219.271z M114.96,322.781c-6.808,0-12.328-5.519-12.328-12.328    c0-6.808,5.519-12.328,12.328-12.328s12.328,5.519,12.328,12.328C127.288,317.261,121.769,322.781,114.96,322.781z"/>
	</g>
</g>
<g>
	<g>
		<circle cx="397.163" cy="45.131" r="45.131"/>
	</g>
</g>
<g>
	<g>
		<path d="M251.676,127.843c-2.904-2.133-6.987-1.509-9.121,1.395l-20.894,28.44c-2.133,2.904-1.509,6.987,1.395,9.121    l19.295,14.175c0.266-1.552,0.622-3.106,1.093-4.652c5.154-16.9,21.125-27.522,38.012-26.602L251.676,127.843z"/>
	</g>
</g>
<g>
	<g>
		<path d="M501.328,477.349l-43.605-105.835l-3.255-77.78h0.027V137.33c0-16.836-13.649-30.484-30.484-30.484h-54.363    c-16.836,0-30.484,13.649-30.484,30.484v28.838l19.518,5.95l26.419-32.877l-24.731,51.75L285.292,168.1    c-10.606-3.233-21.819,2.741-25.051,13.344c-3.233,10.602,2.742,21.818,13.344,25.05l91.593,27.927    c9.512,2.899,19.688-1.602,23.961-10.543l32.176-67.33l-16.331,74.903c-3.67,16.833-20.907,27.036-37.503,22.033    c-9.605-2.931-3.781-1.154-28.316-8.635v48.066l-23.553,64.216c-0.623,1.699-1.06,3.461-1.304,5.255l-16.491,121.142    c-1.869,13.728,7.745,26.373,21.473,28.241c13.727,1.869,26.372-7.744,28.242-21.473l16.123-118.444l28.651-78.115h11.973    c0.001,0.993-0.24-5.097,3.501,84.296c0.122,2.923,0.756,5.802,1.87,8.508l45.29,109.924c5.278,12.809,19.94,18.917,32.752,13.639    C500.499,504.823,506.607,490.159,501.328,477.349z"/>
	</g>
</g>
<g>
	<g>
		<path d="M163.905,128.124h-14.874v-6.032c0-2.168-1.758-3.926-3.926-3.926H61.479c-2.168,0-3.926,1.758-3.926,3.926v45.797    c0.001,2.169,1.758,3.926,3.926,3.926h83.626c2.168,0,3.926-1.758,3.926-3.926v-6.032h14.874c2.168,0,3.926-1.758,3.926-3.926    v-25.881C167.831,129.882,166.073,128.124,163.905,128.124z M88.706,161.159h-15.24v-32.336h15.24V161.159z"/>
	</g>
</g>
<g>
</g>
<g>
</g>
<g>
</g>
<g>
</g>
<g>
</g>
<g>
</g>
<g>
</g>
<g>
</g>
<g>
</g>
<g>
</g>
<g>
</g>
<g>
</g>
<g>
</g>
<g>
</g>
<g>
</g>
</svg>
