<?xml version="1.0" encoding="iso-8859-1"?>
<!-- Generator: Adobe Illustrator 19.0.0, SVG Export Plug-In . SVG Version: 6.00 Build 0)  -->
<svg xmlns="http://www.w3.org/2000/svg" xmlns:xlink="http://www.w3.org/1999/xlink" version="1.1" id="Capa_1" x="0px" y="0px" viewBox="0 0 512 512" style="enable-background:new 0 0 512 512;" xml:space="preserve">
<g>
	<g>
		<circle cx="359.349" cy="45.242" r="45.242"/>
	</g>
</g>
<g>
	<g>
		<path d="M419.456,136.349h-0.002c0-16.88-13.684-30.565-30.565-30.565h-54.506c-16.88,0-30.565,13.684-30.565,30.565v40.152    l15.249,0.104l30.807-38.338l-26.749,55.973l-79.901-0.544c-11.123-0.052-20.183,8.872-20.259,19.985    c-0.076,11.113,8.872,20.183,19.985,20.259c0.102,0.001,92.72,0.632,92.822,0.632c7.746,0,14.81-4.449,18.155-11.446l32.26-67.505    l-16.374,75.097c-2.62,12.019-12.81,21.622-28.519,21.503c0.11,13.346-4.907,26.726-15.067,36.886    c-7.316,7.316-16.453,12.159-26.397,14.111l-19.624,53.506c-1.356,3.697-1.825,7.661-1.369,11.573l14.154,121.46    C294.483,502.565,305.352,512,317.942,512c0.973,0,1.954-0.057,2.944-0.172c13.798-1.609,23.68-14.097,22.072-27.895    l-13.461-115.511l27.602-75.256h12.002l-0.277,193.645c-0.02,13.892,11.226,25.168,25.117,25.188c0.012,0,0.024,0,0.037,0    c13.874,0,25.131-11.238,25.152-25.116l0.277-193.679c0-0.013-0.001-0.025-0.001-0.039h0.049V136.349z"/>
	</g>
</g>
<g>
	<g>
		<path d="M258.678,283.734c-7.872-7.87-18.648-11.621-29.673-10.439l-6.403-26.209l0.898-1.022    c-10.251-6.24-17.138-17.135-18.03-29.49c-0.544-7.521,1.108-14.697,4.56-20.955l-4.08-16.702    c1.969-1.318,3.823-2.839,5.536-4.552c14.186-14.187,14.186-37.271-0.001-51.458c-14.221-14.221-37.236-14.221-51.458,0    c-14.186,14.187-14.186,37.271,0.001,51.458c7.385,7.384,17.654,11.442,28.793,10.521l6.076,24.872    c-4.782,4.206-1.051,0.924-5.118,4.501l-24.57-6.002c0.818-10.791-3.034-21.026-10.54-28.533c-14.22-14.22-37.236-14.222-51.458,0    c-14.22,14.22-14.222,37.236-0.001,51.458c14.221,14.221,37.236,14.222,51.458,0c1.778-1.778,3.346-3.711,4.699-5.764    l13.871,3.389c-0.879,0.773-2.744,2.413-4.423,3.891c-0.862,0.758-1.372,1.839-1.408,2.988c-0.036,1.147,0.405,2.258,1.216,3.069    l4.528,4.528c-5.555,5.556-5.693,14.736,0,20.429c5.641,5.641,14.788,5.642,20.429,0l4.528,4.527    c0.811,0.811,1.922,1.25,3.069,1.214c1.147-0.036,2.23-0.544,2.988-1.405c1.774-2.018,0.708-0.806,3.891-4.423l3.932,16.099    c-18.608,13.173-20.62,39.616-4.768,55.469c14.221,14.221,37.235,14.222,51.458,0    C272.899,320.971,272.899,297.956,258.678,283.734z M139.812,216.329c-6.009,6.009-15.735,6.011-21.746,0    c-6.009-6.009-6.01-15.736,0.001-21.746c6.009-6.009,15.736-6.01,21.746,0C145.821,200.59,145.822,210.319,139.812,216.329z     M196.63,159.51c-6.009,6.008-15.736,6.011-21.747,0c-5.996-5.996-5.996-15.751-0.001-21.746c6.01-6.009,15.736-6.011,21.747,0    C202.625,143.759,202.625,153.514,196.63,159.51z M243.821,320.338c-6.009,6.009-15.735,6.011-21.746,0    c-6.009-6.009-6.01-15.736,0.001-21.746c6.009-6.01,15.736-6.01,21.746,0C249.831,304.6,249.833,314.328,243.821,320.338z"/>
	</g>
</g>
<g>
	<g>
		<path d="M305.112,251.97c0.196,4.527-1.492,8.571-4.471,11.55c-6.009,6.008-15.735,6.01-21.745,0    c-2.971-2.97-4.726-7.08-4.461-11.76l-21.029-0.143c-0.282,10.209,3.575,19.7,10.633,26.758c14.219,14.22,37.236,14.222,51.458,0    c6.791-6.791,10.792-16.028,10.645-26.263L305.112,251.97z"/>
	</g>
</g>
<g>
	<g>
		<path d="M170.914,84.809c-26.873,0-48.735,21.862-48.735,48.734c0,4.352,3.527,7.879,7.879,7.879c4.352,0,7.879-3.527,7.879-7.879    c0-18.185,14.794-32.977,32.978-32.977c4.352,0,7.879-3.528,7.879-7.879C178.793,88.335,175.266,84.809,170.914,84.809z"/>
	</g>
</g>
<g>
	<g>
		<path d="M170.915,57.231c-42.079,0-76.312,34.234-76.312,76.312c-0.001,4.351,3.526,7.879,7.878,7.879s7.879-3.527,7.879-7.879    c0-33.39,27.165-60.555,60.556-60.555c4.352,0,7.879-3.527,7.879-7.879C178.794,60.758,175.267,57.231,170.915,57.231z"/>
	</g>
</g>
<g>
	<g>
		<path d="M217.582,360.346c-18.184,0-32.977-14.794-32.977-32.977c0-4.352-3.527-7.879-7.879-7.879s-7.879,3.527-7.879,7.879    c0,26.873,21.863,48.735,48.735,48.735c4.352,0,7.879-3.527,7.879-7.879C225.461,363.873,221.933,360.346,217.582,360.346z"/>
	</g>
</g>
<g>
	<g>
		<path d="M217.582,387.923c-33.391,0-60.555-27.165-60.555-60.556c0-4.352-3.527-7.879-7.879-7.879s-7.879,3.527-7.879,7.879    c0,42.079,34.234,76.312,76.311,76.312c4.352,0,7.879-3.527,7.879-7.879C225.461,391.451,221.933,387.923,217.582,387.923z"/>
	</g>
</g>
<g>
</g>
<g>
</g>
<g>
</g>
<g>
</g>
<g>
</g>
<g>
</g>
<g>
</g>
<g>
</g>
<g>
</g>
<g>
</g>
<g>
</g>
<g>
</g>
<g>
</g>
<g>
</g>
<g>
</g>
</svg>
