<?xml version="1.0" encoding="iso-8859-1"?>
<!-- Generator: Adobe Illustrator 19.0.0, SVG Export Plug-In . SVG Version: 6.00 Build 0)  -->
<svg xmlns="http://www.w3.org/2000/svg" xmlns:xlink="http://www.w3.org/1999/xlink" version="1.1" id="Capa_1" x="0px" y="0px" viewBox="0 0 512.001 512.001" style="enable-background:new 0 0 512.001 512.001;" xml:space="preserve">
<g>
	<g>
		<circle cx="461.233" cy="77.003" r="38.425"/>
	</g>
</g>
<g>
	<g>
		<path d="M511.999,154.383c0-14.336-11.345-25.958-25.682-25.958h-46.292c-14.336,0-25.958,11.622-25.958,25.958v42.395    l9.173-3.505l29.943-37.262l-24.455,51.173l-62.886,24.026c-8.817,3.368-13.234,13.247-9.865,22.064    c3.367,8.815,13.243,13.234,22.064,9.865l69.264-26.462c4.094-1.564,7.43-4.641,9.32-8.595l27.399-57.332l-13.906,63.78    c-2.538,11.643-12.401,14.18-17.476,16.117l-38.573,14.736v21.484l-20.056,54.68c-1.152,3.14-1.55,6.506-1.163,9.828    l12.022,103.156c1.365,11.72,11.974,20.112,23.692,18.745c11.718-1.365,20.112-11.973,18.745-23.692l-11.433-98.104l23.442-63.914    h10.193l-0.235,164.46c-0.017,11.808,9.551,21.393,21.363,21.393c11.783,0,21.345-9.545,21.362-21.332    C512.001,450.695,511.999,154.383,511.999,154.383z"/>
	</g>
</g>
<g>
	<g>
		<ellipse transform="matrix(0.151 -0.9885 0.9885 0.151 -69.0136 288.3094)" cx="133.341" cy="184.333" rx="38.667" ry="38.835"/>
	</g>
</g>
<g>
	<g>
		<path d="M221.01,296.968l-4.077-9.885c-1.689-4.094-6.377-6.045-10.472-4.356l-27.002,11.137    c7.811,5.034,13.513,13.085,15.438,22.55l21.757-8.973C220.749,305.751,222.699,301.063,221.01,296.968z"/>
	</g>
</g>
<g>
	<g>
		<path d="M84.801,345.958l76.131-1.918c11.361-0.286,20.338-9.727,20.052-21.088c-0.284-11.36-9.744-20.33-21.085-20.052    l-60.729,1.53l-15.711-48.942l19.865,34.21l19.01-0.479l5.03-18.188c5.104-18.449-5.824-37.531-24.309-42.474l-14.227-3.804    c-27.536-7.363-55.803,9.176-62.889,36.769L1.09,358.277c-4.753,18.507,6.486,37.333,24.959,41.985    c21.198,5.338,12.525,3.068,37.992,9.951l-42.907,15.075c-12.865,4.52-19.63,18.614-15.109,31.48    c4.521,12.868,18.615,19.631,31.48,15.11l117.97-41.449c10.206-3.586,16.89-13.398,16.49-24.208    c-0.4-10.81-7.79-20.102-18.233-22.924l-53.428-14.44l2.413-8.724c-21.795,0.549-15.87,0.4-24.197,0.609    c-14.341,0.361-26.375-10.544-27.751-24.598l-6.495-68.082c0.257,0.798,20.18,62.872,20.44,63.669    C67.494,340.311,75.625,346.175,84.801,345.958z"/>
	</g>
</g>
<g>
	<g>
		<path d="M344.545,346.778c-6.439,0-12.223,1.17-16.207,3.029c-1.3-1.634-3.302-2.685-5.552-2.685    c-2.251,0-4.253,1.051-5.552,2.685c-3.984-1.858-9.768-3.029-16.207-3.029c-12.017,0-21.759,4.072-21.759,9.095    c0,5.022,9.742,9.094,21.759,9.094c5.65,0,10.796-0.9,14.664-2.376v28.995h-78.049V362.59c3.869,1.476,9.014,2.376,14.664,2.376    c12.018,0,21.759-4.072,21.759-9.094c0-5.022-9.742-9.095-21.759-9.095c-6.439,0-12.223,1.17-16.207,3.029    c-1.3-1.634-3.302-2.685-5.552-2.685c-2.251,0-4.253,1.051-5.552,2.685c-3.984-1.858-9.768-3.029-16.207-3.029    c-12.017,0-21.759,4.072-21.759,9.095c0,5.022,9.742,9.094,21.759,9.094c5.65,0,10.796-0.9,14.664-2.376v33.113    c-1.043,1.521-1.655,3.359-1.655,5.343c0,4.83,3.622,8.807,8.297,9.381L211.09,463.95c-1.637,4.61,1.787,9.471,6.687,9.471    c2.919,0,5.654-1.815,6.687-4.724l20.662-58.191h4.58v29.754c0,4.206,3.409,7.616,7.616,7.616h38.694    c4.206,0,7.616-3.409,7.616-7.616v-29.754h4.58l20.662,58.191c1.311,3.693,5.368,5.623,9.061,4.313    c3.693-1.311,5.623-5.367,4.313-9.06l-19.004-53.523c4.675-0.574,8.297-4.551,8.297-9.381c0-1.983-0.612-3.822-1.655-5.343V362.59    c3.868,1.476,9.014,2.376,14.663,2.376c12.018,0,21.759-4.072,21.759-9.094C366.308,350.849,356.562,346.778,344.545,346.778z     M276.666,434.157c-5.747,0-10.407-4.659-10.407-10.407c0-5.747,4.66-10.407,10.407-10.407c5.747,0,10.407,4.659,10.407,10.407    C287.072,429.499,282.413,434.157,276.666,434.157z"/>
	</g>
</g>
<g>
</g>
<g>
</g>
<g>
</g>
<g>
</g>
<g>
</g>
<g>
</g>
<g>
</g>
<g>
</g>
<g>
</g>
<g>
</g>
<g>
</g>
<g>
</g>
<g>
</g>
<g>
</g>
<g>
</g>
</svg>
