<?xml version="1.0" encoding="iso-8859-1"?>
<!-- Generator: Adobe Illustrator 19.0.0, SVG Export Plug-In . SVG Version: 6.00 Build 0)  -->
<svg xmlns="http://www.w3.org/2000/svg" xmlns:xlink="http://www.w3.org/1999/xlink" version="1.1" id="Capa_1" x="0px" y="0px" viewBox="0 0 512 512" style="enable-background:new 0 0 512 512;" xml:space="preserve">
<g>
	<g>
		<path d="M367.512,357.213c-0.09,0-0.192,0.102-0.192,0.191c0,0.09,0.102,0.192,0.192,0.192c0.09,0,0.192-0.103,0.192-0.192    S367.602,357.213,367.512,357.213z"/>
	</g>
</g>
<g>
	<g>
		<circle cx="213.324" cy="42.139" r="42.139"/>
	</g>
</g>
<g>
	<g>
		<path d="M227.589,406.453c-3.076,0-6.082-0.298-9.001-0.842v81.99c0,13.475,10.924,24.399,24.399,24.399    c13.475,0,24.399-10.924,24.399-24.399V386.04C258.472,398.395,243.954,406.453,227.589,406.453z"/>
	</g>
</g>
<g>
	<g>
		<path d="M267.901,97.713c-16.295,0-92.518,0-109.158,0c-26.814,0-48.736,21.477-48.869,47.876c0,0.034,0,0.068,0,0.103v149.379    c0,11.229,9.103,20.333,20.333,20.333s20.333-9.103,20.333-20.333V145.759c0.038-3.419,3.204-7.381,8.932-7.381    c0,214.159-0.216,22.619-0.216,349.221c0,13.475,10.924,24.399,24.399,24.399c13.475,0,24.399-10.924,24.399-24.399v-85.217    c-17.352-7.565-29.515-24.874-29.515-44.978c0-15.431,7.163-29.221,18.339-38.218c-11.272-9.075-18.339-22.954-18.339-38.218    c0-27.045,22.003-49.047,49.048-49.047c8.011,0,15.602,1.888,22.261,5.359c7.33,3.82,17.32,12.628,17.32,12.628V138.38    c5.639,0,8.893,3.892,8.932,7.381v149.312c0,11.229,9.103,20.333,20.333,20.333s20.333-9.103,20.333-20.333v-149.38    c0-0.034,0-0.068,0-0.103C316.635,119.205,294.68,97.713,267.901,97.713z"/>
	</g>
</g>
<g>
	<g>
		<path d="M261.46,295.071c0.001-7.784,0.001-3.163,0.001-21.232c-3.296-15.677-17.229-27.485-33.871-27.485    c-19.086,0-34.614,15.528-34.614,34.613c0,19.085,15.528,34.613,34.614,34.613c10.588,0,20.076-4.784,26.43-12.298l10.678,6.485    C262.624,305.299,261.46,300.322,261.46,295.071z M227.589,295.595c-8.066,0-14.628-6.561-14.628-14.627    s6.561-14.627,14.628-14.627c8.065,0,14.627,6.562,14.627,14.627S235.654,295.595,227.589,295.595z"/>
	</g>
</g>
<g>
	<g>
		<path d="M367.512,322.792c-10.89,0-20.615,5.059-26.965,12.947l-21.953-13.333l-0.017-0.262    c-12.602,10.318-31.051,10.712-44.133,0.119l-0.009,0.143l-20.578,12.499c-6.353-7.406-15.769-12.111-26.268-12.111    c-19.086,0-34.614,15.528-34.614,34.613c0,19.085,15.528,34.613,34.614,34.613s34.613-15.527,34.613-34.613    c0-2.41-0.249-4.764-0.721-7.036l11.614-7.053c-0.12,1.871-0.035,0.54-0.359,5.588c-0.07,1.089,0.315,2.158,1.061,2.955    c0.746,0.796,1.79,1.251,2.881,1.251h6.095c0,7.467,6.079,13.741,13.741,13.741c7.604,0,13.741-6.167,13.741-13.741h6.092    c1.091,0,2.133-0.452,2.881-1.248c0.747-0.796,1.134-1.866,1.064-2.955c-0.145-2.26-0.305-4.753-0.359-5.592l13.478,8.186    c-0.332,1.92-0.514,3.889-0.514,5.903c0,19.086,15.528,34.613,34.614,34.613s34.614-15.528,34.614-34.613    C402.125,338.319,386.598,322.792,367.512,322.792z M227.589,372.031c-8.066,0-14.628-6.561-14.628-14.627    s6.561-14.627,14.628-14.627c8.065,0,14.627,6.562,14.627,14.627S235.654,372.031,227.589,372.031z M367.513,372.031    c-8.066,0-14.628-6.561-14.628-14.627s6.561-14.627,14.628-14.627c8.065,0,14.627,6.562,14.627,14.627    S375.578,372.031,367.513,372.031z"/>
	</g>
</g>
<g>
	<g>
		<path d="M367.513,246.354c-19.086,0-34.614,15.528-34.614,34.613c0,1.923,0.165,3.806,0.468,5.644l-1.957,1.188    c0,8.399,0.469,14.067-3.298,22.1l12.283-7.46c6.345,7.997,16.138,13.14,27.117,13.14c19.086,0,34.613-15.528,34.613-34.613    C402.126,261.881,386.599,246.354,367.513,246.354z M367.513,295.595c-8.066,0-14.628-6.561-14.628-14.627    s6.561-14.627,14.628-14.627c8.065,0,14.627,6.562,14.627,14.627S375.579,295.595,367.513,295.595z"/>
	</g>
</g>
<g>
</g>
<g>
</g>
<g>
</g>
<g>
</g>
<g>
</g>
<g>
</g>
<g>
</g>
<g>
</g>
<g>
</g>
<g>
</g>
<g>
</g>
<g>
</g>
<g>
</g>
<g>
</g>
<g>
</g>
</svg>
