<?xml version="1.0" encoding="iso-8859-1"?>
<!-- Generator: Adobe Illustrator 19.0.0, SVG Export Plug-In . SVG Version: 6.00 Build 0)  -->
<svg xmlns="http://www.w3.org/2000/svg" xmlns:xlink="http://www.w3.org/1999/xlink" version="1.1" id="Capa_1" x="0px" y="0px" viewBox="0 0 512.001 512.001" style="enable-background:new 0 0 512.001 512.001;" xml:space="preserve">
<g>
	<g>
		<path d="M300.565,169.795c-1.728-3.199-5.722-4.393-8.921-2.665l-7.563,4.083l-20.223-30.084    c-2.012-2.998-6.676-0.498-5.269,2.845l14.061,33.411l-7.563,4.083c-3.199,1.728-4.393,5.722-2.665,8.921l3.804,7.047    c8.644-8.966,21.774-12.651,34.151-8.878l12.35,3.765L300.565,169.795z"/>
	</g>
</g>
<g>
	<g>
		<path d="M489.509,480.929l-39.101-94.903l-2.918-69.746h0.024V176.029c0-15.097-12.238-27.336-27.336-27.336H371.43    c-15.098,0-27.336,12.238-27.336,27.336v25.859l17.501,5.336l23.692-29.483l-22.177,46.406l-67.323-20.527    c-9.506-2.899-19.565,2.458-22.463,11.966s2.458,19.563,11.966,22.463l82.133,25.042c8.508,2.595,17.645-1.418,21.486-9.454    l28.852-60.373l-14.645,67.163c-3.285,15.067-18.713,24.247-33.631,19.758c-8.613-2.628-3.391-1.035-25.392-7.743v43.103    l-21.12,57.581c-0.559,1.524-0.951,3.104-1.17,4.711l-14.788,108.63c-1.676,12.31,6.945,23.649,19.256,25.324    c12.298,1.677,23.648-6.938,25.324-19.256l14.458-106.21l25.691-70.047h10.737c0.001,0.901-0.214-4.559,3.14,75.589    c0.109,2.622,0.677,5.204,1.677,7.629l40.611,98.57c4.734,11.489,17.883,16.962,29.368,12.23    C488.767,505.565,494.243,492.417,489.509,480.929z"/>
	</g>
</g>
<g>
	<g>
		<circle cx="407.306" cy="94.55" r="40.46"/>
	</g>
</g>
<g>
	<g>
		<path d="M187.66,0c-6.822,0-12.949,1.24-17.169,3.208c-1.377-1.731-3.498-2.844-5.882-2.844c-2.384,0-4.505,1.113-5.882,2.844    C154.507,1.24,148.38,0,141.558,0c-12.731,0-23.051,4.314-23.051,9.634c0,5.321,10.32,9.634,23.051,9.634    c5.985,0,11.436-0.953,15.535-2.517v30.716H74.409V16.751c4.098,1.563,9.549,2.517,15.535,2.517    c12.731,0,23.051-4.314,23.051-9.634c0-5.321-10.32-9.633-23.051-9.633c-6.822,0-12.949,1.24-17.169,3.208    c-1.377-1.731-3.498-2.844-5.882-2.844c-2.384,0-4.505,1.113-5.882,2.844C56.789,1.24,50.663,0,43.841,0    C31.109,0,20.789,4.314,20.789,9.634c0,5.321,10.32,9.634,23.051,9.634c5.985,0,11.436-0.953,15.535-2.517v35.079    c-1.104,1.611-1.754,3.559-1.754,5.66c0,5.116,3.838,9.33,8.789,9.939l-20.133,56.7c-1.734,4.884,1.893,10.033,7.084,10.033    c3.092,0,5.99-1.923,7.084-5.004l21.889-61.646h4.853v31.52c0,4.456,3.612,8.068,8.068,8.068h40.991    c4.456,0,8.068-3.612,8.068-8.068v-31.52h4.853l21.889,61.646c1.389,3.913,5.687,5.957,9.599,4.569    c3.912-1.389,5.957-5.687,4.568-9.598l-20.133-56.7c4.952-0.608,8.79-4.822,8.79-9.939c0-2.101-0.649-4.049-1.754-5.66v-35.08    c4.098,1.563,9.549,2.517,15.535,2.517c12.731,0,23.051-4.314,23.051-9.634C210.712,4.313,200.391,0,187.66,0z M115.751,92.569    c-6.089,0-11.025-4.936-11.025-11.024c0-6.089,4.936-11.025,11.025-11.025c6.089,0,11.024,4.936,11.024,11.025    C126.775,87.633,121.839,92.569,115.751,92.569z"/>
	</g>
</g>
<g>
</g>
<g>
</g>
<g>
</g>
<g>
</g>
<g>
</g>
<g>
</g>
<g>
</g>
<g>
</g>
<g>
</g>
<g>
</g>
<g>
</g>
<g>
</g>
<g>
</g>
<g>
</g>
<g>
</g>
</svg>
