<?xml version="1.0" encoding="iso-8859-1"?>
<!-- Generator: Adobe Illustrator 19.0.0, SVG Export Plug-In . SVG Version: 6.00 Build 0)  -->
<svg xmlns="http://www.w3.org/2000/svg" xmlns:xlink="http://www.w3.org/1999/xlink" version="1.1" id="Capa_1" x="0px" y="0px" viewBox="0 0 512.001 512.001" style="enable-background:new 0 0 512.001 512.001;" xml:space="preserve">
<g>
	<g>
		<path d="M358.041,160.189c-4.183-9.873-15.579-14.484-25.449-10.299l-59.81,25.348l-22.748-37.494    c-7.969-13.136-22.465-21.296-37.829-21.296c-55.632,0-56.298,0-103.396,0c-25.205,0-46.531,20.505-46.658,45.711v142.624    c-0.054,10.721,8.594,19.458,19.315,19.511c0.034,0,0.066,0,0.099,0c10.676,0,19.357-8.628,19.412-19.315V162.355    c0.012-2.324,1.902-4.199,4.225-4.193c2.323,0.006,4.203,1.892,4.203,4.215v326.326c0,12.866,10.43,23.297,23.296,23.297    c12.866,0,23.296-10.43,23.296-23.297V302.494h10.059v186.21c0,12.866,10.43,23.297,23.296,23.297    c12.866,0,23.296-10.43,23.296-23.297c0-305.836,0-135.382,0-329.648c0-1.013,0.675-1.902,1.65-2.175s2.013,0.137,2.539,1.004    l31.46,51.851c3.615,5.958,9.995,9.346,16.606,9.346c5.417,0,1.102,1.199,82.838-33.443    C357.614,181.454,362.226,170.06,358.041,160.189z"/>
	</g>
</g>
<g>
	<g>
		<circle cx="161.029" cy="63.389" r="40.237"/>
	</g>
</g>
<g>
	<g>
		<path d="M425.118,0c-7.319,0-13.893,1.33-18.422,3.442c-1.478-1.857-3.753-3.051-6.311-3.051c-2.558,0-4.833,1.194-6.311,3.051    C389.547,1.33,382.973,0,375.653,0c-13.659,0-24.732,4.628-24.732,10.336s11.073,10.336,24.732,10.336    c6.422,0,12.271-1.023,16.667-2.7v32.957h-88.713V17.973c4.397,1.677,10.245,2.7,16.667,2.7c13.659,0,24.732-4.628,24.732-10.336    S333.934,0,320.275,0c-7.319,0-13.893,1.33-18.422,3.442c-1.478-1.857-3.753-3.051-6.311-3.051s-4.833,1.194-6.311,3.051    C284.704,1.33,278.13,0,270.811,0c-13.659,0-24.732,4.628-24.732,10.336s11.073,10.336,24.732,10.336    c6.422,0,12.271-1.023,16.667-2.7V55.61c-1.185,1.729-1.882,3.819-1.882,6.073c0,5.49,4.117,10.011,9.43,10.663l-21.6,60.835    c-1.86,5.24,2.031,10.766,7.6,10.766c3.318,0,6.427-2.063,7.6-5.368l23.485-66.142h5.207v33.819c0,4.781,3.875,8.656,8.656,8.656    h43.98c4.781,0,8.656-3.875,8.656-8.656v-33.82h5.207l23.485,66.142c1.491,4.198,6.101,6.391,10.299,4.902    c4.197-1.491,6.392-6.101,4.901-10.298l-21.6-60.835c5.313-0.653,9.43-5.174,9.43-10.663c0-2.254-0.696-4.345-1.882-6.073V17.973    c4.397,1.677,10.245,2.7,16.667,2.7c13.659,0,24.732-4.628,24.732-10.336S438.777,0,425.118,0z M347.965,99.319    c-6.532,0-11.828-5.296-11.828-11.828c0-6.532,5.296-11.828,11.828-11.828s11.828,5.296,11.828,11.828    C359.793,94.023,354.497,99.319,347.965,99.319z"/>
	</g>
</g>
<g>
</g>
<g>
</g>
<g>
</g>
<g>
</g>
<g>
</g>
<g>
</g>
<g>
</g>
<g>
</g>
<g>
</g>
<g>
</g>
<g>
</g>
<g>
</g>
<g>
</g>
<g>
</g>
<g>
</g>
</svg>
