<?xml version="1.0" encoding="iso-8859-1"?>
<!-- Generator: Adobe Illustrator 19.0.0, SVG Export Plug-In . SVG Version: 6.00 Build 0)  -->
<svg version="1.1" id="Layer_1" xmlns="http://www.w3.org/2000/svg" xmlns:xlink="http://www.w3.org/1999/xlink" x="0px" y="0px"
	 viewBox="0 0 330 330" style="enable-background:new 0 0 330 330;" xml:space="preserve">
<path id="XMLID_9_" d="M165,0C74.019,0,0,74.019,0,165s74.019,165,165,165s165-74.019,165-165S255.981,0,165,0z M225.75,238.25
	h-121.5c-8.284,0-15-6.716-15-15s6.716-15,15-15h121.5c8.284,0,15,6.716,15,15S234.034,238.25,225.75,238.25z M225.77,178.25
	c-0.005-0.001-0.014,0-0.02,0h-121.5c-5.756,0-11.005-3.294-13.508-8.477c-2.503-5.184-1.818-11.343,1.761-15.851l60.75-76.5
	c2.846-3.583,7.171-5.672,11.747-5.672s8.901,2.089,11.747,5.672l60.328,75.97c2.301,2.636,3.694,6.084,3.694,9.858
	C240.77,171.534,234.055,178.25,225.77,178.25z"/>
<g>
</g>
<g>
</g>
<g>
</g>
<g>
</g>
<g>
</g>
<g>
</g>
<g>
</g>
<g>
</g>
<g>
</g>
<g>
</g>
<g>
</g>
<g>
</g>
<g>
</g>
<g>
</g>
<g>
</g>
</svg>
