<?xml version="1.0" encoding="iso-8859-1"?>
<!-- Generator: Adobe Illustrator 19.0.0, SVG Export Plug-In . SVG Version: 6.00 Build 0)  -->
<svg version="1.1" id="Layer_1" xmlns="http://www.w3.org/2000/svg" xmlns:xlink="http://www.w3.org/1999/xlink" x="0px" y="0px"
	 viewBox="0 0 330 330" style="enable-background:new 0 0 330 330;" xml:space="preserve">
<path id="XMLID_90_" d="M315,0H15C6.716,0,0,6.716,0,15v300c0,8.284,6.716,15,15,15h300c8.284,0,15-6.716,15-15V15
	C330,6.716,323.284,0,315,0z M225.75,238.25h-121.5c-8.284,0-15-6.716-15-15s6.716-15,15-15h121.5c8.284,0,15,6.716,15,15
	S234.034,238.25,225.75,238.25z M225.769,178.25c-0.007-0.001-0.014-0.001-0.019,0h-121.5c-5.756,0-11.005-3.294-13.508-8.477
	c-2.503-5.184-1.818-11.343,1.762-15.851l60.75-76.5c2.846-3.583,7.17-5.672,11.746-5.672c4.576,0,8.9,2.088,11.746,5.672
	l60.33,75.97c2.301,2.636,3.693,6.085,3.693,9.858C240.769,171.534,234.055,178.25,225.769,178.25z"/>
<g>
</g>
<g>
</g>
<g>
</g>
<g>
</g>
<g>
</g>
<g>
</g>
<g>
</g>
<g>
</g>
<g>
</g>
<g>
</g>
<g>
</g>
<g>
</g>
<g>
</g>
<g>
</g>
<g>
</g>
</svg>
