<?xml version="1.0" encoding="iso-8859-1"?>
<!-- Generator: Adobe Illustrator 19.0.0, SVG Export Plug-In . SVG Version: 6.00 Build 0)  -->
<svg version="1.1" id="Layer_1" xmlns="http://www.w3.org/2000/svg" xmlns:xlink="http://www.w3.org/1999/xlink" x="0px" y="0px"
	 viewBox="0 0 330 330" style="enable-background:new 0 0 330 330;" xml:space="preserve">
<path id="XMLID_240_" d="M175.606,4.394c-4.289-4.291-10.743-5.572-16.347-3.252C153.654,3.463,150,8.933,150,15v113.788
	L25.606,4.394C21.317,0.103,14.864-1.179,9.26,1.142C3.654,3.463,0,8.933,0,15v300c0,6.066,3.654,11.536,9.26,13.857
	c1.855,0.77,3.805,1.143,5.737,1.143c3.903,0,7.74-1.524,10.609-4.394L150,201.214V315c0,6.066,3.654,11.536,9.26,13.857
	c1.855,0.77,3.805,1.143,5.737,1.143c3.903,0,7.74-1.524,10.609-4.394l150-149.999c2.814-2.813,4.394-6.628,4.394-10.606
	s-1.58-7.794-4.394-10.607L175.606,4.394z"/>
<g>
</g>
<g>
</g>
<g>
</g>
<g>
</g>
<g>
</g>
<g>
</g>
<g>
</g>
<g>
</g>
<g>
</g>
<g>
</g>
<g>
</g>
<g>
</g>
<g>
</g>
<g>
</g>
<g>
</g>
</svg>
