<?xml version="1.0" encoding="iso-8859-1"?>
<!-- Generator: Adobe Illustrator 19.0.0, SVG Export Plug-In . SVG Version: 6.00 Build 0)  -->
<svg version="1.1" id="Layer_1" xmlns="http://www.w3.org/2000/svg" xmlns:xlink="http://www.w3.org/1999/xlink" x="0px" y="0px"
	 viewBox="0 0 300 300" style="enable-background:new 0 0 300 300;" xml:space="preserve">
<path id="XMLID_2_" d="M195,45c-16.542,0-30-13.458-30-30c0-8.284-6.716-15-15-15c-8.284,0-15,6.716-15,15v182.399
	c-8.833-4.696-19.075-7.399-30-7.399c-33.084,0-60,24.673-60,55s26.916,55,60,55s60-24.673,60-55V66.928
	C173.832,72.051,184.075,75,195,75c16.542,0,30,13.458,30,30c0,8.284,6.716,15,15,15c8.284,0,15-6.716,15-15
	C255,71.916,228.084,45,195,45z"/>
<g>
</g>
<g>
</g>
<g>
</g>
<g>
</g>
<g>
</g>
<g>
</g>
<g>
</g>
<g>
</g>
<g>
</g>
<g>
</g>
<g>
</g>
<g>
</g>
<g>
</g>
<g>
</g>
<g>
</g>
</svg>
