<?xml version="1.0" encoding="iso-8859-1"?>
<!-- Generator: Adobe Illustrator 19.0.0, SVG Export Plug-In . SVG Version: 6.00 Build 0)  -->
<svg version="1.1" id="Layer_1" xmlns="http://www.w3.org/2000/svg" xmlns:xlink="http://www.w3.org/1999/xlink" x="0px" y="0px"
	 viewBox="0 0 330 330" style="enable-background:new 0 0 330 330;" xml:space="preserve">
<path id="XMLID_87_" d="M165,0C74.019,0,0,74.019,0,165s74.019,165,165,165s165-74.019,165-165S255.981,0,165,0z M236.949,177.721
	l-108,67.499c-2.426,1.517-5.186,2.28-7.949,2.28c-2.502,0-5.006-0.624-7.272-1.88c-4.769-2.643-7.728-7.667-7.728-13.12v-135
	c0-5.453,2.959-10.476,7.728-13.12c4.769-2.644,10.598-2.49,15.222,0.4l108,67.501c4.386,2.741,7.05,7.548,7.05,12.72
	C244,170.173,241.336,174.98,236.949,177.721z"/>
<g>
</g>
<g>
</g>
<g>
</g>
<g>
</g>
<g>
</g>
<g>
</g>
<g>
</g>
<g>
</g>
<g>
</g>
<g>
</g>
<g>
</g>
<g>
</g>
<g>
</g>
<g>
</g>
<g>
</g>
</svg>
