<?xml version="1.0" encoding="iso-8859-1"?>
<!-- Generator: Adobe Illustrator 19.0.0, SVG Export Plug-In . SVG Version: 6.00 Build 0)  -->
<svg version="1.1" id="Layer_1" xmlns="http://www.w3.org/2000/svg" xmlns:xlink="http://www.w3.org/1999/xlink" x="0px" y="0px"
	 viewBox="0 0 330 330" style="enable-background:new 0 0 330 330;" xml:space="preserve">
<path id="XMLID_231_" d="M315,0H15C6.716,0,0,6.716,0,15v300c0,8.284,6.716,15,15,15h300c8.284,0,15-6.716,15-15V15
	C330,6.716,323.284,0,315,0z M236.95,177.721L128.949,245.22c-2.426,1.517-5.187,2.28-7.949,2.28c-2.502,0-5.006-0.624-7.271-1.88
	c-4.77-2.643-7.729-7.667-7.729-13.12v-135c0-5.453,2.959-10.476,7.729-13.12c4.77-2.644,10.598-2.491,15.222,0.4l108,67.501
	c4.386,2.741,7.05,7.548,7.05,12.72C244,170.173,241.336,174.98,236.95,177.721z"/>
<g>
</g>
<g>
</g>
<g>
</g>
<g>
</g>
<g>
</g>
<g>
</g>
<g>
</g>
<g>
</g>
<g>
</g>
<g>
</g>
<g>
</g>
<g>
</g>
<g>
</g>
<g>
</g>
<g>
</g>
</svg>
