<?xml version="1.0" encoding="iso-8859-1"?>
<!-- Generator: Adobe Illustrator 19.0.0, SVG Export Plug-In . SVG Version: 6.00 Build 0)  -->
<svg version="1.1" id="Layer_1" xmlns="http://www.w3.org/2000/svg" xmlns:xlink="http://www.w3.org/1999/xlink" x="0px" y="0px"
	 viewBox="0 0 330 330" style="enable-background:new 0 0 330 330;" xml:space="preserve">
<path id="XMLID_105_" d="M315,0H15C6.716,0,0,6.716,0,15v300c0,8.284,6.716,15,15,15h300c8.284,0,15-6.716,15-15V15
	C330,6.716,323.284,0,315,0z M247.5,232.5c0,6.067-3.654,11.537-9.26,13.858c-1.855,0.769-3.805,1.142-5.737,1.142
	c-3.903,0-7.74-1.524-10.609-4.394L180,201.213V232.5c0,6.067-3.654,11.537-9.26,13.858c-1.855,0.769-3.805,1.142-5.737,1.142
	c-3.903,0-7.74-1.524-10.609-4.394L112.5,201.213V232.5c0,8.284-6.716,15-15,15s-15-6.716-15-15v-135c0-8.284,6.716-15,15-15
	s15,6.716,15,15v31.287l41.894-41.893c4.29-4.29,10.745-5.571,16.347-3.252c5.605,2.322,9.26,7.791,9.26,13.858v31.287
	l41.894-41.893c4.29-4.29,10.745-5.571,16.347-3.252c5.605,2.322,9.26,7.791,9.26,13.858V232.5z"/>
<g>
</g>
<g>
</g>
<g>
</g>
<g>
</g>
<g>
</g>
<g>
</g>
<g>
</g>
<g>
</g>
<g>
</g>
<g>
</g>
<g>
</g>
<g>
</g>
<g>
</g>
<g>
</g>
<g>
</g>
</svg>
