<?xml version="1.0" encoding="iso-8859-1"?>
<!-- Generator: Adobe Illustrator 19.0.0, SVG Export Plug-In . SVG Version: 6.00 Build 0)  -->
<svg version="1.1" id="Layer_1" xmlns="http://www.w3.org/2000/svg" xmlns:xlink="http://www.w3.org/1999/xlink" x="0px" y="0px"
	 viewBox="0 0 330 330" style="enable-background:new 0 0 330 330;" xml:space="preserve">
<path id="XMLID_22_" d="M165,0C74.019,0,0,74.019,0,165s74.019,165,165,165s165-74.019,165-165S255.981,0,165,0z M237.5,232.5
	c0,6.067-3.654,11.536-9.26,13.858c-1.855,0.769-3.805,1.142-5.736,1.142c-3.904,0-7.74-1.523-10.61-4.394L170,201.213V232.5
	c0,6.067-3.654,11.536-9.26,13.858c-1.855,0.769-3.805,1.142-5.736,1.142c-3.904,0-7.74-1.523-10.61-4.394l-67.5-67.5
	c-5.858-5.857-5.858-15.355,0-21.213l67.5-67.5c4.288-4.291,10.74-5.574,16.347-3.252c5.605,2.322,9.26,7.791,9.26,13.858v31.287
	l41.894-41.893c4.289-4.291,10.741-5.574,16.347-3.252c5.605,2.322,9.26,7.791,9.26,13.858V232.5z"/>
<g>
</g>
<g>
</g>
<g>
</g>
<g>
</g>
<g>
</g>
<g>
</g>
<g>
</g>
<g>
</g>
<g>
</g>
<g>
</g>
<g>
</g>
<g>
</g>
<g>
</g>
<g>
</g>
<g>
</g>
</svg>
