<?xml version="1.0" encoding="iso-8859-1"?>
<!-- Generator: Adobe Illustrator 19.0.0, SVG Export Plug-In . SVG Version: 6.00 Build 0)  -->
<svg version="1.1" id="Layer_1" xmlns="http://www.w3.org/2000/svg" xmlns:xlink="http://www.w3.org/1999/xlink" x="0px" y="0px"
	 viewBox="0 0 330 330" style="enable-background:new 0 0 330 330;" xml:space="preserve">
<path id="XMLID_138_" d="M315,0H15C6.716,0,0,6.716,0,15v300c0,8.284,6.716,15,15,15h300c8.284,0,15-6.716,15-15V15
	C330,6.716,323.284,0,315,0z M237.5,232.5c0,6.067-3.654,11.537-9.26,13.858c-1.855,0.769-3.805,1.142-5.736,1.142
	c-3.904,0-7.74-1.524-10.61-4.394L170,201.213V232.5c0,6.067-3.654,11.537-9.26,13.858c-1.855,0.769-3.805,1.142-5.736,1.142
	c-3.904,0-7.74-1.524-10.61-4.394l-67.5-67.5c-2.813-2.813-4.394-6.629-4.394-10.607c0-3.979,1.58-7.793,4.394-10.606l67.5-67.499
	c4.289-4.29,10.739-5.574,16.347-3.252c5.605,2.322,9.26,7.791,9.26,13.858v31.287l41.894-41.893
	c4.288-4.29,10.74-5.574,16.347-3.252c5.605,2.322,9.26,7.791,9.26,13.858V232.5z"/>
<g>
</g>
<g>
</g>
<g>
</g>
<g>
</g>
<g>
</g>
<g>
</g>
<g>
</g>
<g>
</g>
<g>
</g>
<g>
</g>
<g>
</g>
<g>
</g>
<g>
</g>
<g>
</g>
<g>
</g>
</svg>
