<?xml version="1.0" encoding="iso-8859-1"?>
<!-- Generator: Adobe Illustrator 19.0.0, SVG Export Plug-In . SVG Version: 6.00 Build 0)  -->
<svg version="1.1" id="Layer_1" xmlns="http://www.w3.org/2000/svg" xmlns:xlink="http://www.w3.org/1999/xlink" x="0px" y="0px"
	 viewBox="0 0 330 330" style="enable-background:new 0 0 330 330;" xml:space="preserve">
<path id="XMLID_5_" d="M315,12.5H105c-8.284,0-15,6.716-15,15v60v122.399c-8.832-4.696-19.075-7.399-30-7.399
	c-33.084,0-60,24.673-60,55s26.916,55,60,55s60-24.673,60-55v-155h180v112.399c-8.832-4.696-19.075-7.399-30-7.399
	c-33.084,0-60,24.673-60,55s26.916,55,60,55s60-24.673,60-55v-175v-60C330,19.216,323.284,12.5,315,12.5z"/>
<g>
</g>
<g>
</g>
<g>
</g>
<g>
</g>
<g>
</g>
<g>
</g>
<g>
</g>
<g>
</g>
<g>
</g>
<g>
</g>
<g>
</g>
<g>
</g>
<g>
</g>
<g>
</g>
<g>
</g>
</svg>
