<?xml version="1.0" encoding="iso-8859-1"?>
<!-- Generator: Adobe Illustrator 19.0.0, SVG Export Plug-In . SVG Version: 6.00 Build 0)  -->
<svg version="1.1" id="Layer_1" xmlns="http://www.w3.org/2000/svg" xmlns:xlink="http://www.w3.org/1999/xlink" x="0px" y="0px"
	 viewBox="0 0 300 300" style="enable-background:new 0 0 300 300;" xml:space="preserve">
<path id="XMLID_8_" d="M228.914,25.515C202.935,9.061,168.694,0,132.5,0c-8.284,0-15,6.716-15,15v182.399
	c-8.832-4.696-19.075-7.399-30-7.399c-33.084,0-60,24.673-60,55s26.916,55,60,55s60-24.673,60-55V30.629
	c52.836,4.418,95,31.717,95,63.537c0,8.284,6.716,15,15,15c8.284,0,15-6.716,15-15C272.5,67.696,257.021,43.316,228.914,25.515z"/>
<g>
</g>
<g>
</g>
<g>
</g>
<g>
</g>
<g>
</g>
<g>
</g>
<g>
</g>
<g>
</g>
<g>
</g>
<g>
</g>
<g>
</g>
<g>
</g>
<g>
</g>
<g>
</g>
<g>
</g>
</svg>
