<?xml version="1.0" encoding="iso-8859-1"?>
<!-- Generator: Adobe Illustrator 19.0.0, SVG Export Plug-In . SVG Version: 6.00 Build 0)  -->
<svg version="1.1" id="Layer_1" xmlns="http://www.w3.org/2000/svg" xmlns:xlink="http://www.w3.org/1999/xlink" x="0px" y="0px"
	 viewBox="0 0 330 330" style="enable-background:new 0 0 330 330;" xml:space="preserve">
<path id="XMLID_102_" d="M315,0H15C6.716,0,0,6.716,0,15v300c0,8.284,6.716,15,15,15h300c8.284,0,15-6.716,15-15V15
	C330,6.716,323.284,0,315,0z M247.5,232.5c0,8.284-6.716,15-15,15s-15-6.716-15-15v-31.287l-41.894,41.893
	c-2.869,2.87-6.706,4.394-10.609,4.394c-1.933,0-3.882-0.374-5.737-1.142c-5.605-2.322-9.26-7.792-9.26-13.858v-31.287
	l-41.894,41.893c-2.869,2.87-6.706,4.394-10.609,4.394c-1.933,0-3.882-0.374-5.737-1.142c-5.606-2.322-9.26-7.792-9.26-13.858v-135
	c0-6.067,3.654-11.537,9.26-13.858c5.604-2.319,12.058-1.039,16.347,3.252L150,128.787V97.5c0-6.067,3.654-11.537,9.26-13.858
	c5.604-2.319,12.058-1.039,16.347,3.252l41.894,41.893V97.5c0-8.284,6.716-15,15-15s15,6.716,15,15V232.5z"/>
<g>
</g>
<g>
</g>
<g>
</g>
<g>
</g>
<g>
</g>
<g>
</g>
<g>
</g>
<g>
</g>
<g>
</g>
<g>
</g>
<g>
</g>
<g>
</g>
<g>
</g>
<g>
</g>
<g>
</g>
</svg>
