<?xml version="1.0" encoding="iso-8859-1"?>
<!-- Generator: Adobe Illustrator 19.0.0, SVG Export Plug-In . SVG Version: 6.00 Build 0)  -->
<svg version="1.1" id="Layer_1" xmlns="http://www.w3.org/2000/svg" xmlns:xlink="http://www.w3.org/1999/xlink" x="0px" y="0px"
	 viewBox="0 0 330 330" style="enable-background:new 0 0 330 330;" xml:space="preserve">
<path id="XMLID_9_" d="M275,50h-30c-8.284,0-15,6.716-15,15v30c0,8.284,6.716,15,15,15v34.496l-65,6.842V54h9
	c6.067,0,11.536-3.655,13.858-9.26c2.321-5.605,1.038-12.057-3.252-16.347l-24-24c-5.857-5.858-15.355-5.858-21.213,0l-24,24
	c-4.29,4.29-5.573,10.742-3.252,16.347C129.464,50.345,134.933,54,141,54h9v114.015c0,0.014,0,0.027,0,0.042v3.282l-65-6.842
	v-38.532c8.958-5.195,15-14.884,15-25.964c0-16.542-13.458-30-30-30s-30,13.458-30,30c0,11.08,6.042,20.769,15,25.964v51.98
	c0,0.014,0,0.028,0,0.042V178c0,0.06,0.008,0.118,0.009,0.178c0.005,0.451,0.023,0.899,0.068,1.341
	c0.01,0.105,0.033,0.206,0.046,0.309c0.047,0.391,0.1,0.78,0.177,1.162c0.039,0.194,0.097,0.381,0.144,0.572
	c0.069,0.283,0.132,0.568,0.217,0.845c0.079,0.255,0.177,0.501,0.269,0.749c0.075,0.205,0.141,0.414,0.225,0.615
	c0.113,0.272,0.248,0.534,0.376,0.798c0.083,0.169,0.156,0.343,0.246,0.509c0.139,0.26,0.297,0.508,0.451,0.758
	c0.099,0.16,0.188,0.325,0.293,0.482c0.152,0.229,0.322,0.444,0.486,0.663c0.125,0.167,0.243,0.34,0.375,0.502
	c0.154,0.188,0.322,0.363,0.484,0.543c0.161,0.179,0.316,0.363,0.486,0.535c0.149,0.15,0.31,0.287,0.465,0.43
	c0.199,0.185,0.393,0.374,0.603,0.548c0.147,0.122,0.304,0.23,0.456,0.347c0.23,0.178,0.458,0.359,0.7,0.523
	c0.159,0.107,0.327,0.201,0.49,0.303c0.246,0.154,0.488,0.312,0.744,0.452c0.198,0.108,0.406,0.199,0.609,0.299
	c0.231,0.113,0.458,0.234,0.696,0.335c0.275,0.118,0.562,0.213,0.845,0.315c0.176,0.063,0.347,0.136,0.527,0.193
	c0.383,0.121,0.777,0.217,1.174,0.308c0.089,0.021,0.175,0.049,0.265,0.068c0.449,0.094,0.908,0.163,1.371,0.215
	c0.045,0.005,0.089,0.016,0.134,0.021l0.011,0.001c0.016,0.002,0.032,0.003,0.047,0.005l81.512,8.58v41.076
	c-17.459,6.192-30,22.865-30,42.42c0,24.813,20.187,45,45,45c24.813,0,45-20.187,45-45c0-19.555-12.541-36.228-30-42.42v-54.516
	c0-0.02,0-0.039,0-0.059v-6.501l81.512-8.58c0.016-0.002,0.031-0.003,0.047-0.005l0.012-0.001c0.045-0.005,0.089-0.016,0.134-0.021
	c0.463-0.052,0.922-0.121,1.371-0.215c0.088-0.018,0.171-0.046,0.259-0.066c0.398-0.09,0.795-0.188,1.181-0.31
	c0.177-0.056,0.345-0.128,0.519-0.19c0.286-0.102,0.575-0.199,0.854-0.317c0.235-0.1,0.459-0.22,0.688-0.331
	c0.206-0.101,0.417-0.193,0.617-0.302c0.254-0.139,0.494-0.296,0.738-0.449c0.164-0.103,0.335-0.197,0.495-0.306
	c0.24-0.164,0.466-0.344,0.696-0.52c0.152-0.118,0.312-0.227,0.459-0.35c0.209-0.173,0.403-0.362,0.602-0.546
	c0.155-0.144,0.317-0.281,0.467-0.432c0.17-0.172,0.325-0.356,0.487-0.537c0.161-0.179,0.329-0.354,0.482-0.54
	c0.135-0.165,0.255-0.34,0.382-0.51c0.162-0.216,0.329-0.429,0.479-0.654c0.108-0.162,0.201-0.333,0.303-0.499
	c0.15-0.245,0.306-0.487,0.441-0.741c0.094-0.174,0.172-0.357,0.258-0.534c0.125-0.256,0.254-0.508,0.364-0.771
	c0.091-0.216,0.161-0.44,0.242-0.661c0.085-0.233,0.178-0.463,0.251-0.702c0.093-0.3,0.162-0.608,0.236-0.915
	c0.04-0.168,0.091-0.331,0.125-0.502c0.085-0.416,0.145-0.84,0.193-1.266c0.008-0.069,0.023-0.135,0.03-0.204
	c0.049-0.48,0.072-0.967,0.073-1.458c0.001-0.023,0.004-0.044,0.004-0.066v-0.005c0-0.02,0-0.039,0-0.059V110
	c8.284,0,15-6.716,15-15V65C290,56.716,283.284,50,275,50z"/>
<g>
</g>
<g>
</g>
<g>
</g>
<g>
</g>
<g>
</g>
<g>
</g>
<g>
</g>
<g>
</g>
<g>
</g>
<g>
</g>
<g>
</g>
<g>
</g>
<g>
</g>
<g>
</g>
<g>
</g>
</svg>
